<svg xmlns="http://www.w3.org/2000/svg" width="600" height="400" viewBox="0 0 600 400"><title>flag-absentee-shawnee</title><rect width="600" height="400" fill="#991125"/><path d="M44,25.06,52.7,62.35H42.79l-1-6.53H34.42l-1,6.53H23.7l8.56-37.29Zm-5.91,7.63L35.52,48.51h5.21L38.18,32.69Z" fill="#e2c159"/><path d="M68.64,25.06q5,0,7.39,2.54a9.48,9.48,0,0,1,2.38,6.76,12.34,12.34,0,0,1-.33,2.85,8.78,8.78,0,0,1-1,2.5,6.58,6.58,0,0,1-1.73,1.91,6.29,6.29,0,0,1-2.55,1.09v.11a6.46,6.46,0,0,1,3,1,7.05,7.05,0,0,1,2.06,2A8.78,8.78,0,0,1,79,48.43a11.49,11.49,0,0,1,.38,2.9,15.68,15.68,0,0,1-.6,4.44,9.16,9.16,0,0,1-1.88,3.5,8.36,8.36,0,0,1-3.33,2.27,13.56,13.56,0,0,1-5,.81H54.56V25.06ZM66.13,39.69a2.49,2.49,0,0,0,2.21-1.13,4.61,4.61,0,0,0,.75-2.63,4.87,4.87,0,0,0-.75-2.72,2.47,2.47,0,0,0-2.21-1.15H63.88v7.63Zm.35,15.66a3,3,0,0,0,2.31-1.12,5.15,5.15,0,0,0,1-3.47,5,5,0,0,0-1-3.34,3,3,0,0,0-2.31-1.15h-2.6v9.08Z" fill="#e2c159"/><path d="M96.94,34.93a5.71,5.71,0,0,0-.65-2.84,2.13,2.13,0,0,0-2-1.18,2.5,2.5,0,0,0-2.21,1,4,4,0,0,0-.7,2.27,3.81,3.81,0,0,0,1.13,2.9A10.28,10.28,0,0,0,95.34,39c1.13.53,2.35,1.06,3.66,1.6a16,16,0,0,1,3.65,2.11,10.45,10.45,0,0,1,2.84,3.42,11.73,11.73,0,0,1,1.12,5.51q0,6-3.25,8.65c-2.18,1.79-5.31,2.69-9.42,2.69a23.88,23.88,0,0,1-5.14-.5A9.05,9.05,0,0,1,85,60.71a7.9,7.9,0,0,1-2.33-3.21,13.28,13.28,0,0,1-.8-4.91V51.28h9v.89a5.14,5.14,0,0,0,.85,3.37,2.83,2.83,0,0,0,2.21,1,2.62,2.62,0,0,0,2.23-1A4.23,4.23,0,0,0,97,52.9,3.93,3.93,0,0,0,95.92,50a9.61,9.61,0,0,0-2.71-1.83c-1.09-.5-2.26-1-3.53-1.54a15,15,0,0,1-3.53-2,9.84,9.84,0,0,1-2.71-3.29A11.32,11.32,0,0,1,82.36,36q0-5.7,2.91-8.67t8.82-3c4.07,0,7,.92,8.84,2.74s2.73,4.75,2.73,8.75H96.94Z" fill="#e2c159"/><path d="M130.11,25.06V33H119.24v6.37h10.12V47H119.24v7.41h11.32v7.94H109.92V25.06Z" fill="#e2c159"/><path d="M162.42,33.31V25.06h23.25v8.25h-7v29h-9.32v-29Z" fill="#e2c159"/><path d="M207.47,25.06V33H197.09v6.37h9.62V47h-9.62v7.41h10.83v7.94H187.77V25.06Z" fill="#e2c159"/><path d="M232.52,25.06V33H222.14v6.37h9.63V47h-9.63v7.41H233v7.94H212.82V25.06Z" fill="#e2c159"/><path d="M264.83,34.93a5.82,5.82,0,0,0-.65-2.84,2.15,2.15,0,0,0-2-1.18,2.48,2.48,0,0,0-2.2,1,3.91,3.91,0,0,0-.7,2.27,3.8,3.8,0,0,0,1.12,2.9A10.59,10.59,0,0,0,263.22,39c1.14.53,2.36,1.06,3.66,1.6a16.33,16.33,0,0,1,3.66,2.11,10.42,10.42,0,0,1,2.83,3.42,11.72,11.72,0,0,1,1.13,5.51q0,6-3.26,8.65t-9.42,2.69a23.72,23.72,0,0,1-5.13-.5,9,9,0,0,1-3.76-1.72,7.72,7.72,0,0,1-2.33-3.21,13.08,13.08,0,0,1-.8-4.91V51.28h9v.89a5.14,5.14,0,0,0,.85,3.37,2.81,2.81,0,0,0,2.2,1,2.62,2.62,0,0,0,2.23-1,4.17,4.17,0,0,0,.78-2.56A3.89,3.89,0,0,0,263.8,50a9.7,9.7,0,0,0-2.7-1.83c-1.09-.5-2.27-1-3.54-1.54a15.16,15.16,0,0,1-3.53-2,9.81,9.81,0,0,1-2.7-3.29A11.32,11.32,0,0,1,250.25,36q0-5.7,2.9-8.67t8.82-3c4.08,0,7,.92,8.85,2.74s2.73,4.75,2.73,8.75h-8.72Z" fill="#e2c159"/><path d="M287.12,25.06V38.75h5.71V25.06h9.32V62.35h-9.32V47h-5.71V62.35H277.8V25.06Z" fill="#e2c159"/><path d="M324.15,25.06l8.71,37.29h-9.92L322,55.82h-7.41l-1,6.53h-9.76l8.56-37.29Zm-5.92,7.63-2.55,15.82h5.21l-2.56-15.82Z" fill="#e2c159"/><path d="M354.06,25.06l3.65,23.3h.1l2-23.3h9l-5.62,37.29H353l-3.1-22.57h-.1l-3.11,22.57H336.47l-5.61-37.29h9l2.3,23.3h.1l3.36-23.3Z" fill="#e2c159"/><path d="M380.45,25.06l8,19h.1v-19h8.72V62.35h-8.22l-8.21-19h-.1v19H372V25.06Z" fill="#e2c159"/><path d="M142.48,25.06l8,19h.1v-19h8.72V62.35h-8.22l-8.22-19h-.1v19h-8.71V25.06Z" fill="#e2c159"/><path d="M420.89,25.06V33H410.52v6.37h9.62V47h-9.62v7.41h10.82v7.94H401.2V25.06Z" fill="#e2c159"/><path d="M445.94,25.06V33H435.57v6.37h9.62V47h-9.62v7.41h10.82v7.94H426.25V25.06Z" fill="#e2c159"/><path d="M460.27,33.31V25.06h23.25v8.25h-7v29h-9.32v-29Z" fill="#e2c159"/><path d="M500.2,25.06a12.65,12.65,0,0,1,4.53.73,7.75,7.75,0,0,1,3.06,2.07,8,8,0,0,1,1.7,3.16,14.33,14.33,0,0,1,.53,4,11.26,11.26,0,0,1-1.45,6,6.37,6.37,0,0,1-4.66,2.82V44q3.34.31,4.61,2.45a11.79,11.79,0,0,1,1.25,5.9V57c0,.53,0,1,.05,1.49a11,11,0,0,0,.15,1.28,3.23,3.23,0,0,0,.25.89c.13.21.27.41.4.6a1.94,1.94,0,0,0,.65.55v.52h-9.92a6.57,6.57,0,0,1-.52-1.72,19,19,0,0,1-.26-2c-.05-.66-.08-1.29-.1-1.9s0-1.11,0-1.49V52.74a18.94,18.94,0,0,0-.15-2.61,4.27,4.27,0,0,0-.53-1.64,2.06,2.06,0,0,0-.95-.84,3.73,3.73,0,0,0-1.43-.23h-2.45V62.35h-9.32V25.06Zm-3.41,15.77a3.51,3.51,0,0,0,3-1.22,5.13,5.13,0,0,0,.95-3.21,4.84,4.84,0,0,0-.93-3.35,4,4,0,0,0-3-1h-1.8v8.77Z" fill="#e2c159"/><path d="M523.47,25.06V62.35h-8.82V25.06Z" fill="#e2c159"/><path d="M541.78,25.06q5,0,7.39,2.54a9.44,9.44,0,0,1,2.38,6.76,12.9,12.9,0,0,1-.32,2.85,8.8,8.8,0,0,1-1,2.5,6.55,6.55,0,0,1-1.72,1.91,6.39,6.39,0,0,1-2.56,1.09v.11a6.5,6.5,0,0,1,3,1,7,7,0,0,1,2,2,8.8,8.8,0,0,1,1.18,2.63,11.48,11.48,0,0,1,.37,2.9,15.68,15.68,0,0,1-.6,4.44,9.16,9.16,0,0,1-1.88,3.5,8.36,8.36,0,0,1-3.33,2.27,13.53,13.53,0,0,1-5,.81H527.7V25.06Zm-2.5,14.63a2.49,2.49,0,0,0,2.2-1.13,4.61,4.61,0,0,0,.75-2.63,4.87,4.87,0,0,0-.75-2.72,2.46,2.46,0,0,0-2.2-1.15H537v7.63Zm.35,15.66a3,3,0,0,0,2.3-1.12,5.1,5.1,0,0,0,1-3.47,4.92,4.92,0,0,0-1-3.34,3,3,0,0,0-2.3-1.15H537v9.08Z" fill="#e2c159"/><path d="M575.85,25.06V33H565.48v6.37h9.62V47h-9.62v7.41H576.3v7.94H556.16V25.06Z" fill="#e2c159"/><circle cx="297.18" cy="202.15" r="93.37" fill="#e2c159" stroke="#000" stroke-miterlimit="10" stroke-width="4"/><path d="M403.13,111.27a17,17,0,0,0-22.36-9,16.19,16.19,0,0,0-2.19,1.14h0l0,0c-.18.1-.34.21-.51.32L216.82,208,208,238.43l31.14.85L396.31,132.53a15.22,15.22,0,0,0,1.5-1h0A17,17,0,0,0,403.13,111.27Z" fill="#fff" stroke="#000" stroke-miterlimit="10" stroke-width="2"/><path d="M403.13,111.27a17,17,0,0,0-22.36-9,16.19,16.19,0,0,0-2.19,1.14h0l0,0c-.18.1-.34.21-.51.32l-29.38,19-3.83,23.27,27.1,3,24.38-16.56a15.22,15.22,0,0,0,1.5-1h0A17,17,0,0,0,403.13,111.27Z"/><path d="M170.77,263.29a1.91,1.91,0,0,1-1.61-.77,1.78,1.78,0,0,1-.3-1.44c.26-1.47,2-2.87,2.42-3.17L395.16,109.6a9.9,9.9,0,0,1,4-1.34,1.58,1.58,0,0,1,1.43.67c.63.95-.14,2.16-.77,3a9.7,9.7,0,0,1-1.85,1.88L174.06,262.11a2.24,2.24,0,0,1-.4.22l-.33.15A6.38,6.38,0,0,1,170.77,263.29Z" fill="#fff"/><path d="M399.13,109.26a.71.71,0,0,1,.6.22c.46.7-1.64,3-2.34,3.49L173.51,261.28l-.24.13a7.45,7.45,0,0,1-2.5.88.93.93,0,0,1-.8-.36c-.68-.93,1.17-2.72,1.86-3.19l223.88-148.3a9,9,0,0,1,3.42-1.18m0-2h0a10.62,10.62,0,0,0-4.52,1.51L170.73,257.08s-2.48,1.69-2.86,3.82a2.84,2.84,0,0,0,2.9,3.39,7.17,7.17,0,0,0,3-.91l.29-.13a4.83,4.83,0,0,0,.55-.3L398.49,114.64c.05,0,4.66-3.62,2.9-6.27a2.57,2.57,0,0,0-2.26-1.11Z"/><path d="M436.83,169.21a17,17,0,0,0-17-17,16.66,16.66,0,0,0-2.46.18h0l-.59.1L227.49,184.77l-20.08,24.51,28.29,13,186.5-36.26a15,15,0,0,0,1.77-.34h0A17,17,0,0,0,436.83,169.21Z" fill="#fff" stroke="#000" stroke-miterlimit="10" stroke-width="2"/><path d="M436.83,169.21a17,17,0,0,0-17-17,16.66,16.66,0,0,0-2.46.18h0l-.59.1-34.49,5.89-12.68,19.89,23.73,13.45,28.93-5.63a15,15,0,0,0,1.77-.34h0A17,17,0,0,0,436.83,169.21Z"/><path d="M165.22,217.77c-1.75,0-2.76-.55-3-1.64a1.81,1.81,0,0,1,.29-1.44c.82-1.25,2.95-1.86,3.48-2l264.18-48.2a9.09,9.09,0,0,1,1.32-.08c3.62,0,3.84,1.19,3.91,1.59.21,1.12-1,1.93-1.88,2.44a9.59,9.59,0,0,1-2.44,1l-264.19,48.2a3.42,3.42,0,0,1-.45,0h-.37C165.82,217.75,165.53,217.77,165.22,217.77Z" fill="#fff"/><path d="M431.48,165.45c1.21,0,2.82.18,2.93.77.15.82-2.7,2.13-3.52,2.29L166.7,216.7a1.24,1.24,0,0,1-.27,0c-.26,0-.72,0-1.21,0-.88,0-1.87-.13-2-.86-.26-1.13,2.14-2,3-2.2l264.18-48.19a6.58,6.58,0,0,1,1.14-.07m0-2a9.4,9.4,0,0,0-1.5.1L165.8,211.75s-2.94.58-4.13,2.38a2.83,2.83,0,0,0-.43,2.23c.2.9,1,2.41,4,2.41.32,0,.63,0,.89,0h.32a3.36,3.36,0,0,0,.63-.06l264.19-48.2c.05,0,5.7-1.49,5.13-4.61-.44-2.41-3.8-2.41-4.9-2.41Z"/><path d="M213.74,139.33l.92.68-6.07,9c-.84,1.25-1.18,1.8-1.18,1.8l-.25-.47c-.55-1-.66-1.28-7.6-6-6.74-4.55-6.9-4.52-8.15-4.66l-.54,0s.64-.85,2.26-3.26,2.08-3.18,2.08-3.18l.25.53c.52,1.13,1,1.64,5.7,4.79l7.27,4.9,1-1.46c1.94-2.87,1.52-3.69.84-5.39C210.25,136.61,211.15,137.38,213.74,139.33Z" fill="#e2c159"/><path d="M219.16,134.87c-1.78,2-2.49,2.91-2.49,2.91l-.19-.51c-.43-1.12-.48-1.35-6.76-6.91-6.08-5.39-6.24-5.38-7.47-5.68l-.52-.13s.74-.76,2.56-2.81,2.5-2.9,2.5-2.9l.19.5c.42,1.12.47,1.36,6.75,6.92,6.09,5.39,6.24,5.38,7.47,5.68l.52.13S220.92,132.89,219.16,134.87Z" fill="#e2c159"/><path d="M219.15,125.09l-2-2.37,10.68-9.26,2.05,2.37Z" fill="#e2c159"/><path d="M240.86,116.62a14.86,14.86,0,0,1-5.15,2.25s-.3-.6-1.2-2.05-1.61-2.48-1.61-2.48a5.75,5.75,0,0,0,5.81-.33c1.66-1,2.39-2.08,1.66-3.27s-1.65-.95-3.18-.82l-2.48.2c-2.56.21-4.75-.34-6.22-2.71-2.23-3.59-.76-6.51,3.25-9a13.79,13.79,0,0,1,4.91-2.1s.32.62,1.25,2.11,1.53,2.35,1.53,2.35a5.61,5.61,0,0,0-5.53.21c-1.78,1.11-2,2-1.48,2.86s1.55.85,3.23.69l2.21-.19c2.84-.25,4.9.31,6.48,2.85C246.94,111.36,244.56,114.32,240.86,116.62Z" fill="#e2c159"/><path d="M253.74,109.43c-2.44,1.09-3.46,1.61-3.46,1.61l0-.53c.08-1.2.12-1.43-3.31-9.08-3.33-7.41-3.48-7.47-4.47-8.25l-.42-.33s1-.38,3.48-1.5,3.47-1.62,3.47-1.62l0,.53c-.08,1.2-.12,1.44,3.31,9.08,3.33,7.42,3.48,7.47,4.47,8.25l.42.33S256.17,108.34,253.74,109.43Z" fill="#e2c159"/><path d="M257.75,100.51l-.89-3,13.55-4,.89,3Z" fill="#e2c159"/><path d="M302.15,86.7l-2.58,13.5s-1.06,0-3.71.16-3.74.27-3.74.27l-3.18-12a17.85,17.85,0,0,1-.46-2.19c0,.17-.05,1-.23,2.26L286.6,101s-1.17,0-3.74.16-3.87.27-3.87.27l-4-13.12c-1.17-3.88-1.85-5.51-2.94-6.46,0,0,1.23,0,4.05-.18,3-.17,4.4-.31,4.4-.31a2,2,0,0,0-.79,1.81,31.4,31.4,0,0,0,1,4.62l2.25,9,.36,1.77c0-.17.08-1,.2-1.78L285.62,81s1,0,3.1-.12,3.12-.24,3.12-.24l4,15c.18.74.48,2.07.48,2.07s.13-1.3.25-2.11l1.22-8.89a29.08,29.08,0,0,0,.46-4.7,2,2,0,0,0-1-1.71s1.23,0,3.65-.15,3.43-.25,3.43-.25C303.37,81,302.9,82.72,302.15,86.7Z" fill="#e2c159"/><path d="M309.29,101.5c-2.66-.36-3.8-.46-3.8-.46l.31-.44c.7-1,.86-1.15,2-9.45,1.1-8.06,1-8.18.57-9.37l-.18-.51s1,.2,3.76.57,3.79.47,3.79.47l-.31.43c-.7,1-.86,1.16-2,9.46-1.1,8-1,8.18-.57,9.37l.18.5S311.92,101.86,309.29,101.5Z" fill="#e2c159"/><path d="M315.77,95.73l.79-3,13.68,3.55-.79,3Z" fill="#e2c159"/><path d="M358.32,98.34c-.89.65-1.19.81-5,8.29l-4.44,8.78s-.7-.42-2.49-1.33-3.49-1.7-3.49-1.7l.56-13.68a15.29,15.29,0,0,1,.27-2.33l-2.18,4.31c-3.67,7.26-3.62,7.41-3.6,8.67v.54s-.77-.46-2.59-1.38-2.72-1.31-2.72-1.31l.44-.31c.89-.65,1.19-.81,5-8.29,3.67-7.25,3.62-7.4,3.6-8.66V89.4s1.05.59,3.56,1.86c2.15,1.09,3.3,1.6,3.3,1.6L348,106.48a13.86,13.86,0,0,1-.3,2.39l2.18-4.32c3.67-7.25,3.62-7.4,3.6-8.67v-.53s.77.45,2.59,1.37S358.76,98,358.76,98Z" fill="#e2c159"/><path d="M384.25,128.06l-11.6,7.38s-.73-.77-2.66-2.6-2.76-2.53-2.76-2.53l6.55-10.54a15.32,15.32,0,0,1,1.28-1.83c-.14.1-.76.63-1.8,1.37l-10.05,7.2s-.81-.85-2.68-2.62-2.86-2.63-2.86-2.63l6.83-11.89c2-3.51,2.75-5.13,2.69-6.58,0,0,.85.89,2.9,2.83s3.25,3,3.25,3a2,2,0,0,0-1.86.66,32,32,0,0,0-2.7,3.87l-5,7.79-1.05,1.47c.14-.11.82-.66,1.44-1.07l12.87-9.21s.71.75,2.22,2.17,2.31,2.12,2.31,2.12l-8.2,13.21-1.18,1.77s1-.8,1.71-1.27l7.31-5.21A29.55,29.55,0,0,0,385,122a2,2,0,0,0,.56-1.9s.86.89,2.62,2.56,2.54,2.32,2.54,2.32C389.23,125,387.67,125.88,384.25,128.06Z" fill="#e2c159"/><path d="M380.73,146.93c-1.46-2.25-2.13-3.18-2.13-3.18l.54-.05c1.19-.11,1.43-.1,8.46-4.67,6.81-4.43,6.85-4.58,7.46-5.68l.26-.47s.54.92,2,3.21,2.13,3.18,2.13,3.18l-.53,0c-1.2.11-1.44.1-8.47,4.67-6.81,4.43-6.84,4.58-7.46,5.68l-.26.47S382.18,149.15,380.73,146.93Z" fill="#e2c159"/><path d="M179.93,225c-.25-2.22-.52-4.07-.52-4.07a2,2,0,0,0,1.85.69,18.93,18.93,0,0,0,3.48-1.07l.89-.33-.62-5.47-.94-.12a19.46,19.46,0,0,0-3.63-.29,2,2,0,0,0-1.65,1.09s-.11-1.42-.34-3.42-.42-3.24-.42-3.24c1.12.91,2.87,1.22,6.87,1.83l11.93,1.82a4.07,4.07,0,0,0,1,.05.8.8,0,0,0,.56-.26l1.06,9.33a1,1,0,0,0-.6-.1,4.15,4.15,0,0,0-1,.25l-11.25,4.21c-3.8,1.41-5.41,2.07-6.3,3.22C180.34,229.15,180.21,227.5,179.93,225Zm15.4-8.27a19.52,19.52,0,0,1,2-.62,20.4,20.4,0,0,1-2.07-.16l-7-.81.45,4Z" fill="#e2c159"/><path d="M186.15,246.65a21.62,21.62,0,0,1-2.21-5.27c-.32-1-1.05-3.42-1.37-4.43-.6-1.87-.95-2.75-.95-2.75l.53.09c1.16.21,1.41.28,9.39-2.3,7.73-2.5,7.8-2.64,8.69-3.54l.37-.39s.26,1,.75,2.52c.3.9,1.08,3.15,1.36,4,1.46,4.54,2.78,9-1.64,10.39-3.59,1.16-5.43-1.65-6.08-3.2.82,2.81.46,5.69-2.89,6.77A4.82,4.82,0,0,1,186.15,246.65Zm6.18-7.84a12.73,12.73,0,0,0-.46-1.23l-5.45,1.76a5.09,5.09,0,0,0,.33,1.27,5.24,5.24,0,0,0,.89,1.77c.63.77,1.55,1.06,3,.58C192.8,242.27,193,240.83,192.33,238.81Zm7.82-2.88a4.51,4.51,0,0,0-.36-.91l-5.13,1.66s.06.24.3,1a5.23,5.23,0,0,0,.77,1.57,2.34,2.34,0,0,0,2.83.67C200.66,239.23,200.79,237.92,200.15,235.93Z" fill="#e2c159"/><path d="M192.36,261.73a15,15,0,0,1-2-5.26s.62-.27,2.11-1.09,2.57-1.48,2.57-1.48a5.79,5.79,0,0,0,0,5.83c.95,1.71,1.95,2.5,3.18,1.82s1-1.59,1-3.12l-.06-2.49c-.08-2.57.59-4.72,3-6.07,3.7-2,6.54-.4,8.81,3.73a13.82,13.82,0,0,1,1.84,5s-.64.29-2.18,1.13-2.42,1.4-2.42,1.4a5.63,5.63,0,0,0,.08-5.53c-1-1.84-1.9-2.11-2.78-1.63-1,.57-.93,1.5-.86,3.18l.07,2.23c.1,2.84-.57,4.87-3.19,6.31C197.29,268.08,194.46,265.55,192.36,261.73Z" fill="#e2c159"/><path d="M209.87,284.55l-.92.67-7.17-8.89c-.95-1.18-1.38-1.66-1.38-1.66l.53-.1c1.16-.22,1.42-.25,7.94-5.51,6.33-5.1,6.35-5.26,6.85-6.41l.21-.5s.36.5,1.31,1.67l7,8.7s-.54.4-1.73,1.36-1.79,1.52-1.84,1.56a3.23,3.23,0,0,0,0-1.24,6.53,6.53,0,0,0-1.45-2.78l-1.67-2.06-3.94,3.17,1.25,1.54a6.4,6.4,0,0,0,2.34,2.06,4,4,0,0,0,1.2.33s-.66.43-2.32,1.76-2.14,1.83-2.18,1.87a4.56,4.56,0,0,0,0-1.26,6.5,6.5,0,0,0-1.51-2.72l-1.25-1.55-4,3.21,1.49,1.85c2.18,2.7,3.09,2.54,4.91,2.4C213.5,282,212.5,282.64,209.87,284.55Z" fill="#e2c159"/><path d="M241.65,288.35c-1,.44-1.34.53-6.65,7L228.78,303s-.59-.56-2.15-1.83-3-2.42-3-2.42l3.5-13.23a16.31,16.31,0,0,1,.77-2.22L224.8,287c-5.15,6.29-5.13,6.45-5.38,7.68l-.11.53s-.66-.61-2.24-1.9-2.37-1.87-2.37-1.87l.5-.21c1-.43,1.34-.53,6.64-7,5.15-6.3,5.13-6.45,5.39-7.69l.1-.53s.9.81,3.08,2.59c1.86,1.53,2.87,2.28,2.87,2.28l-3.49,13.17a13.74,13.74,0,0,1-.8,2.26l3.06-3.74c5.14-6.29,5.13-6.45,5.38-7.68l.11-.53s.65.61,2.23,1.9,2.37,1.87,2.37,1.87Z" fill="#e2c159"/><path d="M257.51,301.49a3.21,3.21,0,0,0-.52-1.14,6.05,6.05,0,0,0-2.37-2l-1.24-.63-3.14,6.14c-3.7,7.24-3.65,7.39-3.63,8.65v.54s-1-.57-3.35-1.78-3.44-1.69-3.44-1.69l.44-.31c1-.69,1.2-.8,5-8.26l3-5.9-1.24-.63a6,6,0,0,0-3-.75,2.88,2.88,0,0,0-1.22.25s.44-.75,1.17-2.17,1-2,1-2l14.65,7.48s-.33.59-1,1.95S257.53,301.44,257.51,301.49Z" fill="#e2c159"/><path d="M270.85,320.33l-.37,1.08-11-3.19c-1.45-.42-2.07-.57-2.07-.57l.37-.39c.82-.84,1-1,3.36-9.06,2.27-7.8,2.19-7.94,1.94-9.18l-.11-.53s.59.2,2,.62l10.73,3.12s-.21.64-.64,2.11-.6,2.27-.62,2.33a3.13,3.13,0,0,0-.72-1,6.52,6.52,0,0,0-2.78-1.45l-2.55-.74L267,308.34l1.9.55a6.47,6.47,0,0,0,3.1.35,4.15,4.15,0,0,0,1.17-.42s-.3.73-.89,2.77c-.55,1.87-.71,2.73-.73,2.78a3.65,3.65,0,0,0-.75-1A6.56,6.56,0,0,0,268,312l-1.91-.55-1.42,4.91L267,317c3.32,1,4,.31,5.39-.85C272.38,316.17,271.92,317.26,270.85,320.33Z" fill="#e2c159"/><path d="M292.21,323.17l-.17,1.14-11.37-1.13c-1.5-.15-2.14-.19-2.14-.19l.3-.44c.65-1,.81-1.19,1.64-9.53.81-8.09.71-8.21.23-9.38l-.2-.5s.61.09,2.11.24l11.12,1.11s-.09.66-.25,2.19-.17,2.34-.18,2.4a3,3,0,0,0-.9-.85,6.32,6.32,0,0,0-3-.92l-2.64-.26-.5,5,2,.2a6.42,6.42,0,0,0,3.11-.23,4.07,4.07,0,0,0,1.07-.62s-.16.77-.37,2.88c-.19,1.95-.19,2.82-.2,2.88a3.6,3.6,0,0,0-.92-.85,6.48,6.48,0,0,0-3-.84l-2-.19-.51,5.09,2.36.23c3.45.34,4-.42,5.15-1.82C293,318.81,292.7,320,292.21,323.17Z" fill="#e2c159"/><path d="M316.55,322.86a14.83,14.83,0,0,1-5.61.15s-.06-.67-.35-2.35c-.32-1.84-.56-2.91-.56-2.91a5.73,5.73,0,0,0,5.51,1.88c1.93-.33,3-1,2.76-2.4s-1.17-1.5-2.64-2l-2.37-.75c-2.45-.76-4.27-2.09-4.75-4.85-.72-4.15,1.74-6.31,6.39-7.12a14,14,0,0,1,5.34-.1s.07.7.37,2.43.53,2.74.53,2.74a5.62,5.62,0,0,0-5.2-1.87c-2.07.36-2.62,1.1-2.45,2.1s1.12,1.36,2.74,1.85l2.12.65c2.73.83,4.43,2.12,4.94,5.07C324.16,320.26,320.85,322.11,316.55,322.86Z" fill="#e2c159"/><path d="M346.66,313.58c-2.49,1-3.53,1.48-3.53,1.48l.06-.54c.1-1.09.19-1.4-2.26-7.52l-5.47,2.19c2.45,6.15,2.65,6.25,3.55,7l.41.35s-1.09.37-3.55,1.36-3.53,1.47-3.53,1.47l.05-.53c.13-1.19.19-1.43-2.93-9.21-3-7.55-3.16-7.61-4.12-8.43l-.41-.35s1-.35,3.57-1.37S332,298,332,298l-.06.53c-.11,1.07-.2,1.38,2.11,7.16l5.48-2.19c-2.32-5.78-2.54-5.9-3.41-6.64l-.41-.34s1-.36,3.57-1.37,3.51-1.47,3.51-1.47l-.06.54c-.13,1.16-.18,1.42,2.94,9.21,3,7.54,3.16,7.61,4.12,8.43l.41.34S349.13,312.6,346.66,313.58Z" fill="#e2c159"/><path d="M370.14,299.33c-1.83,1.28-3.33,2.4-3.33,2.4a2,2,0,0,0-.28-2,18.57,18.57,0,0,0-2.6-2.55l-.71-.62-4.51,3.15.35.88a18.8,18.8,0,0,0,1.48,3.33,2,2,0,0,0,1.74.93s-1.2.77-2.85,1.93-2.64,1.92-2.64,1.92c.27-1.42-.3-3.1-1.67-6.91L351,290.49a3.93,3.93,0,0,0-.45-.95.78.78,0,0,0-.5-.36l7.69-5.39a.94.94,0,0,0,.2.58,4,4,0,0,0,.7.77l9.06,7.87c3.06,2.66,4.41,3.76,5.84,4C373.56,297,372.17,297.9,370.14,299.33Zm-14.62-9.57c-.91-.83-1.35-1.31-1.49-1.45a20,20,0,0,1,.85,1.89l2.61,6.5,3.27-2.29Z" fill="#e2c159"/><path d="M387.14,262.13l8.14,11.07s-.71.78-2.4,2.82-2.34,2.93-2.34,2.93l-11-5.82a15.79,15.79,0,0,1-1.91-1.14c.11.12.68.7,1.49,1.7l7.86,9.52s-.79.87-2.43,2.86-2.42,3-2.42,3l-12.33-6c-3.64-1.77-5.3-2.38-6.74-2.23,0,0,.83-.91,2.62-3.09s2.77-3.44,2.77-3.44a2,2,0,0,0,.79,1.81,30.55,30.55,0,0,0,4,2.43l8.1,4.45L383,284c-.11-.13-.71-.77-1.16-1.36l-10.06-12.21s.7-.76,2-2.35,1.95-2.45,1.95-2.45l13.73,7.27c.67.37,1.85,1.06,1.85,1.06s-.87-1-1.39-1.62l-5.68-6.93a29.61,29.61,0,0,0-3.14-3.53,2,2,0,0,0-1.93-.43s.83-.91,2.38-2.79,2.14-2.68,2.14-2.68C383.79,257.37,384.72,258.87,387.14,262.13Z" fill="#e2c159"/><path d="M391.7,237.41c.69.86.87,1.15,8.52,4.57l9,4s-.38.72-1.2,2.55-1.53,3.57-1.53,3.57l-13.69.09a16.71,16.71,0,0,1-2.35-.16l4.42,2c7.42,3.32,7.56,3.26,8.82,3.18l.54,0s-.42.79-1.25,2.65-1.18,2.78-1.18,2.78l-.33-.42c-.69-.86-.86-1.15-8.51-4.57-7.42-3.32-7.57-3.26-8.83-3.18l-.53,0s.54-1.07,1.69-3.65c1-2.19,1.44-3.36,1.44-3.36l13.62-.09a13.44,13.44,0,0,1,2.4.18l-4.41-2c-7.42-3.31-7.57-3.26-8.83-3.18l-.53,0s.41-.8,1.24-2.66,1.18-2.77,1.18-2.77Z" fill="#e2c159"/><path d="M413.34,225.08l1.1.31-2.54,11.14c-.33,1.47-.45,2.11-.45,2.11l-.4-.35c-.89-.78-1.07-1-9.25-2.83-7.92-1.8-8.06-1.72-9.28-1.4l-.51.14s.16-.59.5-2.06l2.48-10.9s.65.18,2.14.52,2.31.47,2.36.48a3.42,3.42,0,0,0-.95.79,6.47,6.47,0,0,0-1.29,2.86l-.59,2.58,4.93,1.13.45-1.94a6.55,6.55,0,0,0,.16-3.11,4.52,4.52,0,0,0-.48-1.14s.74.25,2.81.73c1.91.43,2.77.54,2.82.55a4.17,4.17,0,0,0-1,.82,6.55,6.55,0,0,0-1.21,2.87l-.44,1.94,5,1.14.53-2.32c.77-3.38.08-4-1.17-5.34C409.1,223.8,410.22,224.2,413.34,225.08Z" fill="#e2c159"/><path d="M415,205.23l1.14.11-.62,11.41c-.08,1.51-.09,2.15-.09,2.15l-.46-.28c-1-.61-1.22-.76-9.59-1.22-8.11-.44-8.23-.34-9.38.19l-.49.22s.07-.61.15-2.12l.61-11.15s.67.06,2.2.14,2.35.08,2.4.08a3.45,3.45,0,0,0-.8.94,6.42,6.42,0,0,0-.79,3l-.14,2.65,5.05.28.11-2a6.45,6.45,0,0,0-.37-3.1,3.78,3.78,0,0,0-.67-1.05,28.69,28.69,0,0,0,2.9.25c1.95.1,2.82.07,2.88.07a4.32,4.32,0,0,0-.81,1,6.48,6.48,0,0,0-.7,3l-.11,2,5.11.28.13-2.37c.19-3.46-.6-4-2.05-5.06C410.56,204.68,411.73,204.88,415,205.23Z" fill="#e2c159"/><polygon points="197.78 163.52 202.63 159.98 196.64 159.98 194.79 154.26 192.95 159.98 186.95 159.98 191.81 163.52 189.97 169.21 194.79 165.69 199.61 169.21 197.78 163.52" fill="#e2c159"/><polygon points="191.31 185.69 195.64 181.52 189.7 182.33 187.1 176.92 186.05 182.83 180.1 183.65 185.4 186.5 184.35 192.38 188.65 188.25 193.9 191.07 191.31 185.69" fill="#e2c159"/><path d="M283.63,219.22c-7.06,0-13.23-3.74-14.39-4.47a5.29,5.29,0,0,1-.95.1,3.38,3.38,0,0,1-2.94-1.63,6.69,6.69,0,0,1-.64-5.41c.09-.21.2-.43.3-.63.64-1.33,1-2.06-.75-3.32a3,3,0,0,1-1.31-2.09,3.83,3.83,0,0,1,.66-2.36,2,2,0,0,1-.91-1.18,2.58,2.58,0,0,1,.74-2,3.47,3.47,0,0,0,.73-1.41c.12-1-1.52-1.78-3-2.5-.53-.26-1-.5-1.47-.76a1.32,1.32,0,0,1-.64-.92c-.17-1.13,1.12-2.55,2.89-4.51.9-1,1.82-2,2.61-3.06,2.21-3,2.13-5,2-8,0-.38,0-.77,0-1.18-.12-3.82,3.62-9.41,3.78-9.64l.16-.25,20.13,1.91.07.37c.35,2,8.54,48.5-1.31,52a17.31,17.31,0,0,1-5.76.95Z" fill="#5b3914"/><path d="M270.75,164.54l19.45,1.85s8.59,48-1,51.41a17,17,0,0,1-5.6.92c-7.6,0-14.29-4.51-14.29-4.51a4.11,4.11,0,0,1-1,.14c-3.38,0-3.78-4.84-3.13-6.33s1.79-2.83-.6-4.57-.22-4.18-.22-4.18c-2.72-1.47.11-2.67.33-4.4s-2.94-2.72-4.68-3.76,2.39-4.29,5-7.76,2.18-5.76,2.07-9.46,3.69-9.35,3.69-9.35m-.5-1-.33.5c-.16.24-4,6-3.86,9.93,0,.41,0,.81,0,1.19.12,3,.2,4.83-1.91,7.64-.78,1-1.69,2.05-2.58,3-1.87,2.07-3.21,3.56-3,4.92a1.72,1.72,0,0,0,.88,1.27c.45.27,1,.53,1.49.79,1,.52,2.78,1.37,2.7,2a3,3,0,0,1-.63,1.17,3,3,0,0,0-.82,2.44,2.27,2.27,0,0,0,.74,1.18,4.11,4.11,0,0,0-.51,2.3,3.45,3.45,0,0,0,1.52,2.43c1.4,1,1.21,1.41.59,2.7-.11.21-.21.43-.31.65a7.18,7.18,0,0,0,.68,5.88,3.86,3.86,0,0,0,3.36,1.86,5,5,0,0,0,.85-.08c1.53,1,7.6,4.45,14.49,4.45a17.78,17.78,0,0,0,5.93-1c4.51-1.59,6.06-10.74,4.74-28-.94-12.34-3.09-24.42-3.11-24.54l-.13-.75-.76-.07-19.45-1.85-.6-.06Z"/><path d="M269.35,180.06,274,182s-3.94.67-4.61,1.53" fill="none" stroke="#000" stroke-linecap="round" stroke-linejoin="round"/><path d="M267.91,176.11s2.69-2.49,6.63,1.35" fill="none" stroke="#000" stroke-linecap="round" stroke-linejoin="round"/><path d="M265.7,188.9s3.46,1.43,2.21,2.73" fill="none" stroke="#000" stroke-linecap="round" stroke-linejoin="round"/><path d="M268.77,194.09s.39,4.42,3.56,5.76,2.21,6.92,2.21,6.92" fill="none" stroke="#000" stroke-linecap="round" stroke-linejoin="round"/><path d="M264.34,199.27s3.57.68,4.43.68" fill="none" stroke="#000" stroke-linecap="round" stroke-linejoin="round"/><path d="M270.86,180.84s-1.17.68,0,1.77l2.79-.58Z"/><path d="M298,158.6s-3.27-26.14,10-29.92,33.19,13.24,41.44,38.51.52,54.17-7,61.73c0,0-2-22.53-21.49-20.63C296.88,210.63,298,158.6,298,158.6Z" fill="#991125" stroke="#000" stroke-linecap="round" stroke-linejoin="round"/><polygon points="402.43 163.64 407.29 160.1 401.29 160.1 399.45 154.38 397.61 160.1 391.61 160.1 396.46 163.64 394.63 169.33 399.45 165.81 404.27 169.33 402.43 163.64" fill="#e2c159"/><polygon points="403.06 185.81 398.73 181.64 404.67 182.45 407.27 177.04 408.32 182.95 414.27 183.77 408.97 186.62 410.02 192.5 405.72 188.37 400.47 191.19 403.06 185.81" fill="#e2c159"/><line x1="302.04" y1="161.85" x2="298.19" y2="144.03" fill="none" stroke="#000" stroke-linecap="round" stroke-linejoin="round"/><line x1="300.42" y1="135.76" x2="302.65" y2="160.02" fill="none" stroke="#000" stroke-linecap="round" stroke-linejoin="round"/><line x1="305.02" y1="160.02" x2="305.02" y2="130.04" fill="none" stroke="#000" stroke-linecap="round" stroke-linejoin="round"/><line x1="307.35" y1="160.02" x2="309.69" y2="128.4" fill="none" stroke="#000" stroke-linecap="round" stroke-linejoin="round"/><line x1="311.49" y1="161.1" x2="317.95" y2="129.47" fill="none" stroke="#000" stroke-linecap="round" stroke-linejoin="round"/><line x1="313.28" y1="128.4" x2="309.69" y2="161.85" fill="none" stroke="#000" stroke-linecap="round" stroke-linejoin="round"/><line x1="313.28" y1="161.85" x2="322.12" y2="131.79" fill="none" stroke="#000" stroke-linecap="round" stroke-linejoin="round"/><line x1="315.7" y1="162.77" x2="326.12" y2="134.2" fill="none" stroke="#000" stroke-linecap="round" stroke-linejoin="round"/><line x1="317.7" y1="165.08" x2="330.03" y2="137.41" fill="none" stroke="#000" stroke-linecap="round" stroke-linejoin="round"/><line x1="319.61" y1="165.08" x2="333.04" y2="140.42" fill="none" stroke="#000" stroke-linecap="round" stroke-linejoin="round"/><line x1="320.41" y1="167.68" x2="336.45" y2="143.26" fill="none" stroke="#000" stroke-linecap="round" stroke-linejoin="round"/><line x1="322.12" y1="168.61" x2="339.28" y2="146.97" fill="none" stroke="#000" stroke-linecap="round" stroke-linejoin="round"/><line x1="323.87" y1="169.79" x2="341.49" y2="150.56" fill="none" stroke="#000" stroke-linecap="round" stroke-linejoin="round"/><line x1="325.29" y1="171.93" x2="343.6" y2="153.85" fill="none" stroke="#000" stroke-linecap="round" stroke-linejoin="round"/><line x1="326.12" y1="173.9" x2="345.56" y2="157.64" fill="none" stroke="#000" stroke-linecap="round" stroke-linejoin="round"/><line x1="327.13" y1="175.32" x2="347.05" y2="161.45" fill="none" stroke="#000" stroke-linecap="round" stroke-linejoin="round"/><line x1="327.73" y1="177.46" x2="348.64" y2="164.98" fill="none" stroke="#000" stroke-linecap="round" stroke-linejoin="round"/><line x1="328.18" y1="179.41" x2="349.18" y2="168.58" fill="none" stroke="#000" stroke-linecap="round" stroke-linejoin="round"/><line x1="328.83" y1="181.12" x2="350.63" y2="171.45" fill="none" stroke="#000" stroke-linecap="round" stroke-linejoin="round"/><line x1="328.83" y1="183.12" x2="351.01" y2="174.98" fill="none" stroke="#000" stroke-linecap="round" stroke-linejoin="round"/><line x1="328.83" y1="184.72" x2="352.06" y2="178.54" fill="none" stroke="#000" stroke-linecap="round" stroke-linejoin="round"/><line x1="328.83" y1="186.63" x2="352.06" y2="181.32" fill="none" stroke="#000" stroke-linecap="round" stroke-linejoin="round"/><line x1="328.83" y1="188.13" x2="352.69" y2="184.85" fill="none" stroke="#000" stroke-linecap="round" stroke-linejoin="round"/><line x1="328.83" y1="189.54" x2="352.69" y2="188.18" fill="none" stroke="#000" stroke-linecap="round" stroke-linejoin="round"/><line x1="329.53" y1="191.63" x2="352.94" y2="191.69" fill="none" stroke="#000" stroke-linecap="round" stroke-linejoin="round"/><line x1="329.53" y1="193.45" x2="352.83" y2="195.1" fill="none" stroke="#000" stroke-linecap="round" stroke-linejoin="round"/><line x1="328.53" y1="195.15" x2="352.69" y2="198.76" fill="none" stroke="#000" stroke-linecap="round" stroke-linejoin="round"/><line x1="328.53" y1="196.95" x2="352.2" y2="202" fill="none" stroke="#000" stroke-linecap="round" stroke-linejoin="round"/><line x1="328.53" y1="198.76" x2="351.69" y2="205.17" fill="none" stroke="#000" stroke-linecap="round" stroke-linejoin="round"/><line x1="327.73" y1="200.96" x2="350.63" y2="208.38" fill="none" stroke="#000" stroke-linecap="round" stroke-linejoin="round"/><line x1="326.33" y1="201.97" x2="349.98" y2="211.2" fill="none" stroke="#000" stroke-linecap="round" stroke-linejoin="round"/><line x1="325.29" y1="203.77" x2="349.18" y2="214.6" fill="none" stroke="#000" stroke-linecap="round" stroke-linejoin="round"/><line x1="323.87" y1="204.67" x2="347.85" y2="218.41" fill="none" stroke="#000" stroke-linecap="round" stroke-linejoin="round"/><line x1="338.15" y1="216.61" x2="346.47" y2="221.72" fill="none" stroke="#000" stroke-linecap="round" stroke-linejoin="round"/><line x1="340.83" y1="222.32" x2="344.83" y2="225.22" fill="none" stroke="#000" stroke-linecap="round" stroke-linejoin="round"/><line x1="341.99" y1="226.62" x2="343.47" y2="227.53" fill="none" stroke="#000" stroke-linecap="round" stroke-linejoin="round"/><path d="M288.28,157.82c-3.52.16-9.45.28-11.62,2.58s-3.43.27-5.44.67-2.31,2.75-.47,3.47,15.8,9,15.93,14.28,3.7,31.69-1.87,34.67-26.43,15-29.55,27.89-2.47,26.28,4.32,24,5.43-8.8,8-9.48,5.82-.13,5-4.19-.68-9.62.54-9.21,1.76,3.65,3.52.4,2-4.76,3.39-3.59,2.16,3.59,3.38-2.5,1.68-11.59,4.5-14.46,5.93-3.69,12.84-4.77,28.71-5.93,30-18.28-1.79-29.66-13.39-37.54S290.76,157.71,288.28,157.82Z" fill="#070b10" stroke="#000" stroke-linecap="round" stroke-linejoin="round"/><polygon points="284.81 212.29 279.45 216.77 288.17 226.36 293.75 221.02 284.81 212.29" fill="#991125" stroke="#000" stroke-linecap="round" stroke-linejoin="round"/><path d="M192.57,340.61v6.18H181.65v8.8h10.1v6.19h-10.1V378h-7.86V340.61Z" fill="#e2c159"/><path d="M251.85,356.28H252l9.94-15h8.51l-10.59,16,11.79,21.37h-8.84l-8-15.35-2.9,4.25v11.1H244V341.3h7.86Z" fill="#e2c159"/><path d="M274.8,340.61h7.86v29.22h12.42V378H274.8Z" fill="#e2c159"/><path d="M318.65,340.61,329,378h-8.19l-1.8-7.91H308.61l-1.8,7.91h-8.19l10.32-37.41Zm-1,23.31-3.77-16.81h-.11L310,363.92Z" fill="#e2c159"/><path d="M339.87,340.61v14.3H349v-14.3h7.86V378H349V361.41h-9.17V378H332V340.61Z" fill="#e2c159"/><path d="M405,340.61l4.83,23.9h.1l4.87-23.9h10.08V378h-6.25V348.15l-.09,2.5-6,27.37h-5.3l-6-27.37-.1-2.5V378h-6.24V340.61Z" fill="#e2c159"/><path d="M450.28,341.3l10.31,37.4h-8.18l-1.81-7.91H440.23l-1.8,7.91h-8.19l10.32-37.4Zm-1,23.31-3.77-16.82h-.11l-3.76,16.82Z" fill="#e2c159"/><path d="M212.33,360.23a31.66,31.66,0,0,1,1.64-11,14.75,14.75,0,0,1,4.27-6.46,9.91,9.91,0,0,1,6.4-2.12q5.45,0,8.88,5T237,360q0,9.42-3.63,14.71a10.42,10.42,0,0,1-17.36.05Q212.33,369.47,212.33,360.23Zm6.4-.25q0,5.75,1.7,8.61c1.14,1.92,2.55,2.87,4.24,2.87s3.1-.95,4.21-2.85,1.67-4.81,1.67-8.75-.54-6.71-1.62-8.55a4.68,4.68,0,0,0-8.55,0Q218.73,354.12,218.73,360Z" fill="#e2c159"/><path d="M139.41,360.23a31.68,31.68,0,0,1,1.63-11,14.77,14.77,0,0,1,4.28-6.46,9.91,9.91,0,0,1,6.4-2.12q5.44,0,8.88,5T164,360q0,9.42-3.64,14.71a10.41,10.41,0,0,1-17.35.05Q139.41,369.47,139.41,360.23Zm6.39-.25q0,5.75,1.71,8.61c1.14,1.92,2.55,2.87,4.23,2.87s3.1-.95,4.22-2.85,1.67-4.81,1.67-8.75-.54-6.71-1.63-8.55a4.82,4.82,0,0,0-4.26-2.77,4.89,4.89,0,0,0-4.28,2.79Q145.79,354.12,145.8,360Z" fill="#e2c159"/><path d="M363.34,360.23a31.68,31.68,0,0,1,1.63-11,14.77,14.77,0,0,1,4.28-6.46,9.91,9.91,0,0,1,6.4-2.12q5.44,0,8.87,5T388,360q0,9.42-3.64,14.71a10.41,10.41,0,0,1-17.35.05Q363.34,369.47,363.34,360.23Zm6.39-.25q0,5.75,1.71,8.61c1.14,1.92,2.55,2.87,4.23,2.87s3.1-.95,4.22-2.85,1.67-4.81,1.67-8.75-.54-6.71-1.63-8.55a4.82,4.82,0,0,0-4.26-2.77,4.89,4.89,0,0,0-4.28,2.79Q369.73,354.12,369.73,360Z" fill="#e2c159"/></svg>