<svg xmlns="http://www.w3.org/2000/svg" width="600" height="400" viewBox="0 0 600 400"><title>flag-new-hampshire</title><path d="M0,400H600V0H0Z" fill="#002a86"/><path d="M347,229.55a7.7,7.7,0,0,0,1.54,7l-87.59-8.2L257,228c-.35-1-1.36-3.6-2.56-6.68-1.88-4.61-4.62-10.28-7.88-12.66,2.74-.17,4.28.18,6.16,0,1.72-.17,1.54-2.22,1-3.42-.84-1.54-4.26-2.73-7-3.26v-.68c-3.95-1.7-10.79-4.61-14.88-8.2,4.09,2.05,22.75,8.2,38.31,11.46a6.88,6.88,0,0,0,1.88.33c.69.18,1.38.35,2.23.51,10.27,1.89,31.14,4.63,40.71,5.66,1,.16,1.88.16,2.73.34h1.38c2.06,0,4.44.17,7.19.17l-.18-3.77h-.85v-1.36h21.05c0-.51.16-.86.16-1.37a112.77,112.77,0,0,0,11.47,1.7c.67,0,1.18.17,1.7.17,1.2,0,2.23.18,3.08.18a4.18,4.18,0,0,0-2.73,2.38c-.69,2.4-1.38,5.49-.35,7.7a21.55,21.55,0,0,0-3.6.5,55.51,55.51,0,0,1-2.38,6v.33c-2.75,0-4.29.18-5.47,1.72M252.7,208.69c1.72-.17,1.54-2.22,1-3.44-.84-1.52-4.26-2.71-7-3.24,0,2.05-.34,3.77-.18,6.68C249.28,208.52,250.82,208.87,252.7,208.69Zm70.15-63.48-1.71,14,1,.17Zm-3.25,27.72L315,211.07c1,.18,1.88.18,2.73.36h1.38l2.23-38.5ZM322,162.15h-1l-1,7.36h1.54Zm-51.83,42.42a6.92,6.92,0,0,0,1.88.35c.69.16,1.38.33,2.23.51l2.23-30.63-2.07-.33Zm8.22-57.64-2.06,15.22,1,.17ZM276,164.55l-1.21,7.52h1.88l.51-7.52Zm49.26,5.14-3.77-.18h-1.54l-2.57-.17.7,3.59h3.25l4.09-.18ZM322,162.15l1.88.17.35-2.73-2-.18-1-.15h-1.37L319.6,162l1.36.18Zm-44.64.17-1-.17H274.6l.17,2.23,1.21.17h1.18l1.72.33.16-2.56Zm-2.57,9.75-2.74-.16v2.39l2.39.17,2.05.33,1.72.18.16-2.73-1.7-.18Zm-38,81.45a1.94,1.94,0,0,1-2.05-1.9c0-1.19,1-2.38,1.88-2.23,1.36.18,2.05.18,2.21,1.55A2.2,2.2,0,0,1,236.8,253.52Zm141-28.07a2,2,0,0,0,1.37-2.4,2.17,2.17,0,0,0-2.57-1.53c-1.2.69-1.88,1-1.54,2.23A2,2,0,0,0,377.76,225.45Zm-23.45,19.84a1.94,1.94,0,0,0,2.07-1.87,2.25,2.25,0,0,0-1.88-2.23c-1.2.18-2.07.33-2.23,1.72A2,2,0,0,0,354.31,245.29ZM291.54,130a41,41,0,0,1,6-4.08c-2.57-1.54-5.13-1.72-7.86-1.72a8.38,8.38,0,0,0,3.75-6c-3.06-.33-7.52,1.55-9.06,4.11a52.9,52.9,0,0,1-6.16,6.68c.51-1.37,1.54-3.07,1.54-4.61,0-.69-.69-.86-.85-.18-.85,3.09-4.11,5.82-7.19,6.84a63.1,63.1,0,0,0-13,6.17,2.22,2.22,0,0,1-.67-1.55c0-1.19,1.7-1.71,3.59-1.71,3.08-.16,13.86-6.66,12.15-12.31-1.21,2.38-4.29,3.24-8.39,3.58-5.12.52-9.56,5.13-8.55,10.44a7.89,7.89,0,0,1,.35,2.56c-1.54,1-3.08,2.23-4.78,3.42a10.07,10.07,0,0,0-.19-5.14c-.16-.84-1.19-1.87-.85-.15.35,1.52-.34,5.12-1.7,7.69a61.91,61.91,0,0,0-12.32,14.89,2,2,0,0,1-1-1c-.51-1.19.85-2.23,2.39-3.07,2.92-1.54,9.93-11.81,6-16.42-.17,2.91-2.58,4.78-6.16,6.83-4.46,2.74-6.5,8.74-3.26,13a9.46,9.46,0,0,1,1.19,2.05c-.85,1.53-1.52,3.07-2.39,4.61a10,10,0,0,0-2-3.75c-.52-.7-1.89-1.21-.86.16a16.32,16.32,0,0,1,1.7,6.5,68.82,68.82,0,0,0-5.63,19.5,1.64,1.64,0,0,1-1.37-.51c-.85-.86-.17-2.39,1.19-3.93,2-2.38,4.8-14.55-.68-17.26,1,2.71-.51,5.29-3.08,8.71-3.26,4.1-2.73,10.45,1.72,13.16a15,15,0,0,1,2,1.54c-.17,1.37-.35,2.91-.51,4.46a11.56,11.56,0,0,0-3.92-3.26c-.86-.51-2.23-.34-.69.5a14.47,14.47,0,0,1,4.44,6.18,92.84,92.84,0,0,0,1.71,20.35,1.92,1.92,0,0,1-1.38,0c-1-.51-1-2-.66-3.75.85-2.58-1.88-14-7.36-14.91,1.71,2.07,1.54,4.81.86,8.38a9.62,9.62,0,0,0,6.83,11.14,19.29,19.29,0,0,1,1.89.5,55.65,55.65,0,0,0,1.53,6,15,15,0,0,0-5-1.35c-.86,0-2,.51-.34.84a15.71,15.71,0,0,1,6.32,3.42,88.14,88.14,0,0,0,7.87,16.27,1.52,1.52,0,0,1-1.36.66c-1.21-.15-1.72-1.87-1.72-3.75-.16-3.08-6.32-13.86-12.13-12.32,2.39,1.37,3.23,4.28,3.41,8.55.52,5.14,5.14,9.58,10.44,8.56a16.75,16.75,0,0,1,2.21-.35c1.2,1.72,2.41,3.26,3.61,5a15.22,15.22,0,0,0-5,.35c-.85.33-1.88,1.37,0,.86a17.16,17.16,0,0,1,7,1.19,63.08,63.08,0,0,0,11.47,11c-.34.33-.69.66-1,.66-1.2.18-3.24-1.87-3.77-3.57-.85-3.09-9.4-6.86-14.53-3.6,2.74.51,4.78-.35,6.16,3.6,1.7,4.78,8.37,6.66,12.32,4.61.85-.33,1.54-.69,2.05-.86A40.41,40.41,0,0,0,263,267.7a19,19,0,0,0-3.93,2.2c-.69.69-1.19,1.88.35.86a13.29,13.29,0,0,1,6-1.72,70.72,70.72,0,0,0,19,6.51,1.83,1.83,0,0,1-.69,1.38c-.85.67-2.39,0-3.77-1.38-2.39-2.05-14.53-5.14-17.28.17,2.57-1,5.31.69,8.39,3.25,4.11,3.41,10.43,3.26,13.35-1.37.67-1,1.19-1.53,1.7-1.7a32,32,0,0,0,3.77.33,10.08,10.08,0,0,0,.67-2.91,39.3,39.3,0,0,1-3.93-.66c.34-1.21,1-2.41.52-4-1-2.91-5.47-6.83-9.92-6.83-3.43-.18-6.33-3.77-9.06-4.11a13.33,13.33,0,0,1,2.05,4.79c.85,4.61,6.15,7.52,12.31,7,1.71-.18,2.74,1.54,3.08,2.91a68,68,0,0,1-19.16-6.68,8.81,8.81,0,0,1-2.39-4.63c-.35-1.7-1.2-1.87-.87,0a20.84,20.84,0,0,0,.7,3.26c-1.37-.86-2.91-1.72-4.29-2.55.87-1,2.41-2.06,2.41-3.95.34-2.89-2-8.38-6-10.25-3.06-1.37-4.27-6-6.66-7.37a10.54,10.54,0,0,1-.17,5.14c-1,4.61,2.56,9.39,8.39,11.46,1.7.69,2,3.09,1.36,4.46a72.69,72.69,0,0,1-11.81-9.94,10.68,10.68,0,0,1-.67-7c.34-1.52-.35-2-.87-.15a20.58,20.58,0,0,0-.67,4.61c-1.38-1.7-2.58-3.42-3.77-5.12.85-1.21,3.24-1.37,4.11-3.61,1-2.72.16-8.71-3.26-11.45-2.55-2.22-2.39-7-4.27-8.89a14.53,14.53,0,0,1-1.54,4.77c-2.4,4.28-.17,9.77,5,13.36,1.88,1.37.85,4.43-.51,5.12A76.44,76.44,0,0,1,233.05,227a11,11,0,0,1,1.54-6.66c.85-1.38.52-2.24-.69-.51a15,15,0,0,0-2.05,3.58c-.5-1.7-.86-3.58-1.36-5.29,1.18-.36,3.08,0,4.1-1.2,1.72-1.89,2.73-7,.68-10.78-1.7-2.91-.16-6.68-1.37-9.08a8.35,8.35,0,0,1-2.73,3.42c-3.08,2.4-2.74,7.87.68,13,1,1.54-.18,3.42-1.36,3.94a85.76,85.76,0,0,1-1.21-28.57c1.38,0,3.26,1.19,5.14.15,2.74-1.36,6-6.32,5.47-10.58-.34-3.44,2.9-6.86,2.9-9.59a12.92,12.92,0,0,1-4.44,2.56c-4.62,1.54-6.84,7.2-5.47,13.36.51,1.87-2.06,3.59-3.43,3.41a86.67,86.67,0,0,1,4.63-18,12.24,12.24,0,0,1,6.67-3.93c1.53-.18,1.88-1-.17-.86a13,13,0,0,0-5.14,1.54c1-2.05,1.88-3.94,2.91-5.82,1.54.18,2.74,2.23,5,2,3.08-.33,8-3.59,9.07-7.87,1-3.24,5.29-5.29,6.14-7.87a12.67,12.67,0,0,1-5,.86c-4.78-.35-8.89,4.1-9.91,10.27-.34,2-3.77,2.74-4.78,1.7a54,54,0,0,1,11.79-14.7,10.52,10.52,0,0,1,7.36-.69c1.54.35,2-.17.16-.86a15.1,15.1,0,0,0-4.78-.86c1.7-1.34,3.42-2.55,5.29-3.75,1,.86,1.37,3.25,3.6,3.93,2.74,1,8.72.18,11.47-3.24,2.23-2.58,7-2.58,8.88-4.45a15.18,15.18,0,0,1-4.95-1.55c-4.27-2.22-9.76,0-13.35,5.31-1.2,1.7-4.28.86-5-.35a60.27,60.27,0,0,1,18.49-8.2.74.74,0,0,1,0-.86c5.8,2.91,11.63,1.54,13.68,0ZM313.77,272.5l-2.55.51a14.87,14.87,0,0,0,0,2.91,16.77,16.77,0,0,0,2.89-.35,5.37,5.37,0,0,1,1.71,2.05c3.08,4.45,9.42,4.63,13.53,1.21,3.06-2.58,5.8-4.12,8.37-3.26-2.72-5.3-14.87-2.23-17.28-.16-1.36,1.35-2.9,2-3.75,1.35a3.2,3.2,0,0,1-.87-1.53,62.64,62.64,0,0,0,18.82-6.32,15.31,15.31,0,0,1,6.32,1.7c1.38,1.19,1-.18.35-.84a12.48,12.48,0,0,0-4.26-2.23c1.88-1.19,3.59-2.23,5.29-3.44a23.6,23.6,0,0,1,2.21,1c3.95,1.87,10.62,0,12.32-4.79,1.38-3.92,3.42-3.08,6.16-3.59-5.13-3.24-13.68.51-14.53,3.59-.67,1.7-2.57,3.93-3.77,3.6a1.78,1.78,0,0,1-1.18-.86,65.54,65.54,0,0,0,11.27-10.61c2.57-1,6-1.54,7.36-1.19,1.72.33.85-.68,0-1a16.59,16.59,0,0,0-5.29-.35,33.84,33.84,0,0,0,3.58-5,21,21,0,0,1,2.56.33c5.31,1,9.93-3.4,10.27-8.55.34-4.08,1-7.17,3.59-8.54-5.82-1.54-12.14,9.24-12.14,12.31,0,2.05-.51,3.59-1.72,3.77a2.13,2.13,0,0,1-1.54-.69,88.31,88.31,0,0,0,8-16.25c2.05-1.71,5-3.26,6.34-3.41,1.7-.36.51-.86-.52-.86a14.64,14.64,0,0,0-4.77,1.36,50,50,0,0,0,1.52-6,13,13,0,0,1,1.89-.53,9.6,9.6,0,0,0,6.83-11.11c-.85-3.6-1-6.33.85-8.38-5.47.86-8.19,12.32-7.34,14.88.33,1.72.33,3.24-.69,3.77a2,2,0,0,1-1.36,0,83.28,83.28,0,0,0,1.53-20.37c1.21-2.56,3.42-5.47,4.45-6.15,1.54-.86.17-.86-.52-.51a13.78,13.78,0,0,0-4.1,3.24,34.34,34.34,0,0,0-.34-4.43,5.5,5.5,0,0,1,2.05-1.39c4.45-2.89,5-9.24,1.72-13.34-2.57-3.24-4.11-6-3.08-8.71-5.47,2.73-2.74,15.06-.69,17.44,1.2,1.37,2.05,2.91,1.2,3.77a2,2,0,0,1-1.36.51,75,75,0,0,0-5.64-19.49,17,17,0,0,1,1.52-6.51c1-1.36-.16-.86-.67-.17a11.38,11.38,0,0,0-2.06,3.77c-.85-1.55-1.54-3.09-2.39-4.63a6.57,6.57,0,0,1,1.19-1.88c3.26-4.45,1.2-10.45-3.24-13-3.59-2.22-6.16-4.1-6.16-6.83-3.93,4.45,3.08,14.71,5.82,16.25,1.7.86,3.08,2,2.55,3.08a1.54,1.54,0,0,1-1,1,74.92,74.92,0,0,0-12.32-14.88c-1.38-2.56-2.05-6.16-1.72-7.7.18-1.7-.67-.68-1,.18a17.23,17.23,0,0,0-.16,5.29,50.8,50.8,0,0,0-4.8-3.59c0-.51.18-1.37.34-2.56,1.2-5.29-3.24-9.92-8.37-10.43-4.11-.35-7.19-1.21-8.4-3.59-1.69,5.64,8.91,12.14,12.15,12.32,1.89,0,3.59.51,3.59,1.7a2.1,2.1,0,0,1-.85,1.72,63.55,63.55,0,0,0-12.83-6.33c-3.08-1-6.5-3.77-7.19-6.68-.16-.86-.85-.68-.85,0,0,1.54,1,3.26,1.54,4.61a55.31,55.31,0,0,1-6.32-6.66c-1.38-2.38-5.82-4.45-8.9-3.93,0,2,1.88,4.79,3.59,5.8-2.56,0-5.29.18-7.7,1.72a41.64,41.64,0,0,1,6,4.1c2.05,1.55,7.87,2.91,13.7,0a1.19,1.19,0,0,1,0,1,59.74,59.74,0,0,1,18.46,8c-.67,1.21-3.77,2.05-5.13.35-3.42-5.31-8.89-7.54-13.17-5.31a17.23,17.23,0,0,1-5,1.54c1.88,1.87,6.67,1.87,8.89,4.45,2.74,3.42,8.72,4.44,11.47,3.42,2.23-.86,2.39-3.26,3.59-4.12,1.7,1.21,3.42,2.4,5.29,3.77a15,15,0,0,0-4.78.86c-2.05.68-1.36,1.19.16.84a11.89,11.89,0,0,1,7.37.7,62.41,62.41,0,0,1,11.8,14.71c-1.2,1-4.46.51-4.79-1.72-1-6.15-5.14-10.61-9.92-10.26a18.54,18.54,0,0,1-5.13-.68c1,2.4,5.29,4.45,6.16,7.7,1.18,4.27,6.14,7.52,9.06,7.87,2.39.15,3.58-1.88,5-2.05a35.69,35.69,0,0,1,2.9,5.8,14.53,14.53,0,0,0-4.95-1.37c-2.06-.33-1.72.53-.18.86a10.46,10.46,0,0,1,6.51,3.77,79.88,79.88,0,0,1,4.78,18c-1.54.15-3.93-1.54-3.59-3.44,1.38-6.15-.69-11.8-5.31-13.34a13.24,13.24,0,0,1-4.45-2.56c0,2.74,3.26,6.15,2.91,9.57-.5,4.28,2.74,9.24,5.49,10.61,1.87,1,3.75-.16,5.13-.16a86,86,0,0,1-1.2,28.56c-1.19-.51-2.39-2.41-1.37-3.93,3.42-5.14,3.76-10.61.52-13a13.18,13.18,0,0,1-2.75-3.42c-1,2.41.52,6.18-1.2,9.09-2,3.75-1.19,8.88.51,10.76,1.21,1.37,3.1.86,4.11,1.19-.34,1.72-.67,3.61-1.19,5.31a24.22,24.22,0,0,0-2-3.59c-1.21-1.54-1.54-.86-.69.51a11.35,11.35,0,0,1,1.54,6.68,69.09,69.09,0,0,1-7.7,16.07c-1.36-.51-2.21-3.75-.34-5.14,5.14-3.57,7.19-9.06,5-13.34a14.51,14.51,0,0,1-1.54-4.78c-1.88,1.87-1.7,6.66-4.44,8.89-3.24,2.75-4.11,8.73-3.08,11.46.85,2.23,3.08,2.58,4.1,3.59a53.7,53.7,0,0,1-3.75,5.14,22,22,0,0,0-.69-4.63c-.69-1.87-1.2-1.37-.85.35a11.47,11.47,0,0,1-.69,6.84,63.84,63.84,0,0,1-11.81,9.92c-.67-1.19-.51-3.77,1.21-4.28,6-2.2,9.57-7,8.37-11.64a16.68,16.68,0,0,1-.16-5.11c-2.23,1.36-3.43,6-6.51,7.36-3.93,1.87-6.32,7.34-6.14,10.43.17,1.7,1.69,2.73,2.56,3.77-1.54.86-2.92,1.87-4.46,2.73a31.47,31.47,0,0,0,.87-3.26c.33-2-.52-1.87-.87-.16a8.84,8.84,0,0,1-2.39,4.61,67.14,67.14,0,0,1-19.15,6.68c.16-1.36,1.36-3.08,2.9-2.91,6.34.51,11.63-2.4,12.48-7a14.47,14.47,0,0,1,2.07-4.8c-2.74.35-5.82,4.12-9.24,4.12-4.28,0-8.73,3.92-9.75,6.83-.52,1.55.16,2.91.51,3.95ZM361,242.38a13.09,13.09,0,0,0-2.74.18c-4.45,2.05-28.06,3.42-33.37,2.23a10.48,10.48,0,0,0-5.47.85,14.21,14.21,0,0,1-6.85.84,6.54,6.54,0,0,0-5.47,1.37c-1.19.86-3.93,1.88-8.89,1.21a26.55,26.55,0,0,0-13.84,2.74c-1.2-.86-4.62-.53-7.36-3.42-6.34,1-16.08,3.75-23.28,2.89-6.48-.84-14.87,2.07-20.87,1.37a86.05,86.05,0,0,0,140.8-9.07c0-.15.18-.33.18-.5a74.94,74.94,0,0,0-12.84-.69ZM253.72,258.81c3.26,2.58,12,1,13.53.33a17,17,0,0,1,7-1.87c4.09-.16,7.34-.69,10.43-3.93,1.53-1.37.67-1.89-.34-2.56-1.2-.7-4.28-1.89-5.82-3.94-.68-.69-1.53-.34-2.22,0-.85.5-2.9.17-4.62-.34-1.54-.5-13.68-.68-16.07,1.53-2.41,2.05-6.67,3.94-4,8A11.67,11.67,0,0,0,253.72,258.81Z" fill="none" stroke="#000" stroke-width="0.34"/><path d="M299.91,82.42h-6l-6,.53-5.82.68-5.8,1L270.67,86l-5.47,1.54-5.47,1.87-5.31,2-5.29,2.41-5,2.56-5,2.73-4.79,3.09-4.62,3.24-8.55,7.19-4.11,3.94-3.94,3.93-3.58,4.27L206,129.3l-3.24,4.61-3.08,4.63L197,143.48l-2.57,5L192,153.75,189.94,159l-1.87,5.32L186.54,170l-1.38,5.66-1,5.81-.69,5.82-.52,5.82-.16,6.15.16,6,.52,5.83.69,6,1,5.63,1.38,5.66,1.53,5.63,1.87,5.31,2.07,5.29,2.38,5.31,2.57,5,2.74,5,3.08,4.6L206,269l3.6,4.46,3.58,4.27,3.94,3.93,4.11,3.95,4.27,3.77,4.28,3.41,4.62,3.25,4.77,3.08,5,2.74,5,2.55,5.29,2.41,5.31,2,5.47,1.89,5.47,1.55,5.64,1.36,5.81,1,5.82.68,6,.51,6,.18,6.16-.18,6-.51,5.81-.68,5.8-1,5.65-1.36,5.47-1.55,5.49-1.89,5.29-2,5.29-2.41,5-2.55,4.95-2.74,4.78-3.08,4.64-3.25,4.26-3.41,4.29-3.77,4.08-3.95,3.95-3.93,3.58-4.27L394,269l3.26-4.61,3.08-4.6,2.74-5,2.57-5,2.37-5.31,2.07-5.29,1.88-5.31,1.52-5.63,1.38-5.66,1-5.63.67-6,.51-5.83.18-6-.18-6.15-.51-5.82-.67-5.82-1-5.81L413.46,170l-1.52-5.62L410.06,159,408,153.75l-2.37-5.31-2.57-5-2.74-4.94-3.08-4.63L394,129.3l-3.59-4.46-3.58-4.27-3.95-3.93-4.08-3.94-4.29-3.6-4.26-3.59-4.64-3.24-4.78-3.09-4.95-2.73-5-2.56-5.29-2.41-5.29-2-5.49-1.87L329.33,86l-5.65-1.37-5.8-1L312.07,83l-6-.53Z" fill="#efae0e" stroke="#000" stroke-width="0.33"/><path d="M299.91,90.49l-5.47.15-5.63.36-5.49.66-5.29,1-5.31,1.19-5.13,1.36L262.47,97l-5,2-4.78,2-4.78,2.41-4.46,2.71L239,109,234.77,112l-4.11,3.26-4.11,3.42-3.76,3.58-3.6,3.77-3.4,3.92-3.26,4.12-3.08,4.28-2.73,4.43L204,147.25,201.58,152l-2.05,4.79-2,5-1.71,5-1.37,5.31L193,177.17l-.85,5.47-.69,5.49-.5,5.46-.18,5.65.18,5.47.5,5.64.69,5.31.85,5.47,1.38,5.12,1.37,5.31,1.71,5,2,5,2.05,4.79,2.39,4.78,2.75,4.46,2.73,4.43,3.08,4.28,3.26,4.1,3.4,3.95,3.6,3.75,3.76,3.59,4.11,3.42,4.11,3.26,4.27,3.07,4.44,2.73,4.46,2.75,4.78,2.39,4.78,2,5,2.05,5.12,1.72,5.13,1.36,5.31,1.2,5.29,1,5.49.68,5.63.53h11.12l5.66-.53,5.47-.68,5.29-1,5.29-1.2,5.14-1.36,5.13-1.72,5-2.05,4.8-2,4.79-2.39,4.43-2.75,4.46-2.73,4.26-3.07,4.11-3.26,3.93-3.42,3.93-3.59,3.59-3.75,3.42-3.95,3.25-4.1,3.09-4.28,2.74-4.43,2.55-4.46,2.58-4.78,2-4.79,2-5,1.72-5,1.36-5.31,1.38-5.12.85-5.47.69-5.31.5-5.64V193.59l-.5-5.46-.69-5.49-.85-5.47-1.38-5.12-1.36-5.31-1.72-5-2-5-2-4.79-2.58-4.78-2.55-4.46-2.74-4.43-3.09-4.28L384.22,130,380.8,126l-3.59-3.77-3.93-3.58-3.93-3.42L365.24,112,361,109l-4.46-2.76-4.43-2.71-4.79-2.41-4.8-2-5-2-5.13-1.72-5.14-1.36L322,92.7l-5.29-1L311.22,91l-5.66-.36-5.65-.15" fill="#002a86"/><path d="M299.91,109.45l-9.06.53-9.07,1.19-8.55,2.23L265,116.47l-8,3.76-7.36,4.46L242.79,130l-6.5,5.65-2.9,3.26-2.91,3.24L225.34,149l-4.61,7.36L217,164.2l-2.9,8.38-2.22,8.53-.85,4.46-.52,4.45-.35,4.61-.17,4.63.52,9.06.52,4.43.85,4.46,2.22,8.73,2.9,8.2,3.77,7.87,4.61,7.35,5.14,6.85,5.81,6.49,3.08,2.91,3.42,2.73,3.26,2.75,3.59,2.56,7.36,4.44,3.91,2.07,4.11,1.7L269,283.4l4.28,1.52,4.27,1.21,4.28,1,4.45.68,4.62.69,4.44.35h4.62l9.24-.35,9.06-1.37,8.55-2.23,8.22-3.08,7.87-3.75,7.53-4.46,6.83-5.29,6.49-5.64,5.83-6.51,5.13-6.83L379.1,242l2.06-3.92,1.87-3.93,2.91-8.22,1.2-4.26,1-4.45.84-4.46.52-4.45.35-4.43.16-4.61-.51-9.24-.52-4.45-.84-4.46-2.24-8.55-2.9-8.38-3.93-7.87L374.66,149l-5.13-6.84-5.83-6.5-3.08-2.92L357.21,130,354,127.25l-3.59-2.58-3.6-2.21-3.93-2.23-3.77-1.89-4.1-1.87-3.93-1.55-4.29-1.52-4.26-1.21-4.27-1-4.46-.68-4.62-.51-4.44-.53h-4.8" fill="#efae0e"/><path d="M253.72,251.29c7.19.86,17-1.9,23.28-2.91a202.18,202.18,0,0,1,22.75-2.23c3.59,0,3.24-.86,4.11-1.7a2.81,2.81,0,0,1,3.06-.35c1.54.69,3.93.51,7.36-.86,3.24-1.54,6.16-2.05,8.73-1s30.11,1,35.24.33a14.64,14.64,0,0,1,2.73-.16L219.34,229.22a86.6,86.6,0,0,0,13.51,23.44c6,.68,14.38-2.21,20.87-1.37ZM366.63,223.4a21.21,21.21,0,0,1-9.07,1c-1.36-.17-3.92-.86-5.8-.52-5.13.86-111.72-1.37-135.49-5.12a34.34,34.34,0,0,0,1.54,5.64l158.41,14.71a92,92,0,0,0,6.84-17.62C378.79,221.68,369.55,222.54,366.63,223.4Z" fill="none" stroke="#000" stroke-width="0.34"/><path d="M299.91,113.4l-8.71.51-8.57,1.19-8.21,2.22-7.86,2.91-7.52,3.6-7.19,4.28-6.5,5-6.16,5.47-5.64,6.15-5,6.5-4.27,7.19-3.6,7.36-2.91,8-2,8.2-.85,4.1-.51,4.28-.35,4.45v4.46H386V194.8l-.34-4.45L384.28,182l-2-8.38-2.92-7.85-3.58-7.36-4.28-7.19-5-6.5-5.64-6.15-6.16-5.47-6.5-5L341,123.83l-3.59-1.9-3.93-1.7-7.86-2.91-4.11-1.19-4.12-1-4.25-.69-4.28-.52-4.46-.34L300,113.4" fill="#fff"/><path d="M299.91,113.4l-8.71.51-8.57,1.19-8.21,2.22-7.86,2.91-7.52,3.6-7.19,4.28-6.5,5-6.16,5.47-5.64,6.15-5,6.5-4.27,7.19-3.6,7.36-2.91,8-2,8.2-.85,4.1-.51,4.28-.35,4.45v4.46H386V194.8l-.34-4.45L384.28,182l-2-8.38-2.92-7.85-3.58-7.36-4.28-7.19-5-6.5-5.64-6.15-6.16-5.47-6.5-5L341,123.83l-3.59-1.9-3.93-1.7-7.86-2.91-4.11-1.19-4.12-1-4.25-.69-4.28-.52-4.46-.34L300,113.4Zm-47.73,96.66c1.54,1.87,4.8,10.6,5.65,13m91.7,14.37c1.7,0,2.74-.17,2.74-.33.16-1,.52-2.91.69-4.79l-6.16-.17a6,6,0,0,0,2.73,5.31ZM347.3,228a5.21,5.21,0,0,0-.34,1.52,13.87,13.87,0,0,0-.16,2.56l6.16.18a42.15,42.15,0,0,0,.68-4.44l-6.34.16Zm6.34-3.95c-2.75,0-4.29.18-5.47,1.7-.18.51-.52,1.21-.7,1.9l-.17.35,6.34-.18A13.86,13.86,0,0,0,353.64,224.08ZM333.1,207.83v3.93c1.9,0,3.77.17,5.49.17V208Zm-6.67,0,.17,3.75c1.88.18,4.11.18,6.16.18v-3.93Zm19.86.18h-7.36v3.92h7.36Z" fill="none" stroke="#000" stroke-width="0.34"/><path d="M305.91,65.16l9.4-6.84-11.94.08-3.59-10.61L296.49,58.3H284.86l9.42,6.86-3.77,11.29,9.58-7,9.57,7-3.75-11.29" fill="#efae0e"/><path d="M220.54,92.36l9.23-7.18-11.79.5L214,75.08l-3.25,10.78-11.46.51L208.59,93l-3.1,11.21,9.41-7.36,9.74,6.68-4.1-11.12" fill="#efae0e"/><path d="M169.07,171.64l12-.94-10.1-6.15,2.57-11L164.94,161l-10.1-6,4.62,10.63-9.05,7.67,11.8-1,4.3,11,2.56-11.64" fill="#efae0e"/><path d="M180,258.22l8.69-8.14-11.64,1.54-4.78-10.1-2.22,11.14L158.61,254l10.09,5.63-2.39,11.64,8.72-8.2L185,269l-5-10.76" fill="#efae0e"/><path d="M240.22,319l2.05-11.64-8.7,8.3-9.91-5.29,5.1,10.18-8.39,8,11.47-1.54,5,10.76L239,326l11.63-1.53L240.2,319" fill="#efae0e"/><path d="M263.14,289.61l.43-4.71-3.08,3.6-4.36-1.8,2.22,3.93-3.09,3.59,4.63-1,2.39,4.28.51-4.94,4.8-1-4.45-1.87" fill="#efae0e"/><path d="M337.21,289.61l-.43-4.71,3.26,3.75,4.18-1.95-2.39,4.1,3.08,3.59-4.62-1-2.39,4.1-.51-4.8-4.78-1,4.6-2.05" fill="#efae0e"/><path d="M274.26,68.57l-1.38-.68-1.36-.68-2.91-.33-2.74.17-2.21.51-2.75.68-2.23.16,3.44-1.88L266.56,64,271,60.88l1.54-1.54L273.75,58l.85.17,1-.35.69-.5.5-.69.17-1-.17-1-.5-.86-.87-.51-1-.33-.85.18-.85.51-.69.85-.16,1,.16.86.35.86.68.68-.18.16-2.73,2.4L266.9,62.6l-3.42,1.87-3.59,1.88-7.35,3.08-7.36,2.23,1.36-.86,1.4-.94,5.14-2.56L257,65l1.7-1.54,1.56-1.72L261.78,60l1-2.05,1-2.21.52-2.4-2.23.33-1.88.53-2.05.84-1.72,1-3.4,2.39-2.92,2.91-2.56,3.08-2.06,3.07L244,70.29l-1,2-.33.36-.87-.36-.33-.66.15-1,.34-1.2,1-2.91.85-3.06h.85l.85-.35.69-.69.34-.86v-.84l-.34-.86-.69-.68-.85-.35h-1l-.87.35-.5.68-.33.86-.18.84.34.69.35.5.69.51L242.27,66l-1.2,3.06-1.54,3.26L238,74.9l-7.35,4.44-.16-.67v-1l.68-2.23.69-1.19,1.18-1,2.41-1.89.85-1.19.69-1.88.34-2.4V62.42l-.51.86-1,.69-2.57,1.69-2.73,2-1.2,1.22-1,1.52-.35,1,.18,1.37.5,1.37.86,1.7.34,1v1l-.17,2.23-2.21,1.71-.69.51-.17.51.17.33.17.18,1,.17,1-.5,2.72-1.72,2.24-.34h2.55l1.2.34,1.21.5,1,.69.68,1-.52.86-.15.84.15,1,.34.84.87.68,1,.35,1-.17,1-.51.69-.86.33-1-.15-1-.52-.86-.69-.66-.85-.36h-1l-.85.36-1.54-1.55L238,80.37l-1.88-.51-1.87-.17,3.41-2,1.88-.35,1.72.17,1.87.35,1.88.84,2.57,1.55,3.25,1.36,1.72.51,1.7.18h1.89l1.7-.51,2.92-1.21,1-.33H263L262.1,79l-1.54-1.38L257.5,74.9,255.44,74l-2.23-.35-2.21.18-1.89.68-2.39,1-2.41.7-2.21.33L240,76.09l3.08-1.54,2.39-1.19,8-2.73,2.07.15,2.21.86,2.05,1L261.76,74l2.9,1.55,2.91.86,3.08.35,3.08-.35,2.74-.86L279,74.38l2.23-1.72,1.54-2-2.06.17-2.21-.33-2.23-.68-2.05-1.2" fill="#efae0e"/><path d="M200.35,110.82l-1.54.18-1.54.35-2.4,1.54-2,1.7-1.54,1.88-1.71,2.22-1.7,1.37,1.54-3.42,2.05-5,1.53-5,.33-2.23v-1.7l.86-.5.52-.86.34-.86v-.86l-.51-1-.68-.68-1-.33-1,.15-.86.35-.68.86-.35.84v1l.35.86.68.66.86.35,1,.16v.18l-.85,3.59-1.19,3.77-1.54,3.75-1.72,3.61-3.94,7L179.33,131l1.18-3.42,2.4-5.14,1.54-3.92.35-2.23.33-2.4v-2.23l-.33-2.38-.68-2.23-1-2.23-1.37,1.55-1.38,1.72-1,1.69-.86,1.88-1.21,4.1-.51,4.12v3.93l.18,3.59.51,3.09.5,2.38-.15.51-.86.17-.68-.35-.53-.84-.51-1.21-.85-2.91-1.19-2.91.68-.51.33-.86.18-.84-.18-.85-.68-.69-.68-.51-1-.15-.86.33-.68.51-.52.86-.16.84.33.86.51.68.52.51.69.17h.85l1,2.56.86,3.26.85,3.42.18,3.07-2.91,8-.68-.5-.51-.86-.86-2.05-.16-1.55.33-1.52.69-2.91v-1.37l-.69-1.89-1.19-2.21-2.06-2.75v1l-.33,1.19-.86,2.91-1,3.42-.15,1.72.15,1.7.35,1,.86,1,1.36.86,1.71.68.86.51.68.86,1.19,1.88L171.3,150v.86l.17.51.18.17H172l.85-.52.68-1,1-3.07,1.37-1.54,2.22-1.54,1.21-.51,1.18-.35h1.21l1.19.35v.86l.5.86.7.66.84.51h1.21l.85-.33.86-.84.33-.86.18-1.21-.51-.84-.68-.86-1-.51h-.86l-1,.33-.69.51-.5.86-2-.33-2.06.16-1.88.68-1.54,1,1.37-3.77,1.19-1.19,1.54-1,1.71-.84,2.05-.53,2.92-.33,3.4-.86,1.72-.68,1.54-1,1.36-1,1-1.52,1.54-2.58.67-.84.86-.86-1.37-.35-2.05-.33-4.1-.18-2.06.51-2.05,1.21-1.72,1.53-1,1.54-1.2,2.38-1.54,2.07-1.54,1.35-1.87,1,1.37-3.09,1.18-2.38,4.62-7.19,1.89-1,1.92-.76,2.69-.43,2.05-.15,3.26-.53,2.9-1,2.57-1.7,2.22-2.07,1.89-2.38,1.19-2.56.67-2.56v-2.75l-1.53,1.54-1.87,1-2.24.86-2.38.35" fill="#efae0e"/><path d="M167.16,189.86l-1.19,1-.85,1.21-1.21,2.73-.51,2.56v5.14l-.5,2.23L162,201l-1.36-5-1.89-5-1-2.07-1-1.54.33-.84v-.86l-.33-.86-.53-.68-1-.51h-1l-.86.18-.85.68-.51.86v1l.35,1,.68.7.69.51,1,.16.84-.16.85-.68v.33l1.54,3.42,1.38,3.59,1,3.77.85,3.93,1,8,.33,7.52-.81-1.44-.52-1.9-.89-5.54-1.19-4.1-1-2.07-1.18-2-1.37-1.89-1.71-1.52L152,196.54l-2.05-1-.35,2.07v2l.68,4.1,1.54,3.95,2.07,3.59,2.37,3.24,2.4,2.74,2.23,2.22,1.87,1.55v.5l-.5.69-.67.17-1-.35-1-.68-2.38-1.88-1.38-.86-1.37-.68.18-.86-.18-1-.49-.69-.69-.51-.85-.35-.86.18-.86.51-.51.68-.35.86.18,1,.51.69.68.68.68.18h.85l.68-.35.53-.51,2.39,1.54,2.73,2,2.75,2.23,2.05,2.23,2.38,8.2h-.68l-1-.33-1.89-1.21-1-1-.69-1.37L159.65,228l-1-1.21-1.53-1-2.24-1.21-3.24-.66.51.66.5,1.21,1,2.91,1.18,3.24.86,1.55,1.21,1.19,1,.68,1.21.18h1.54l1.87-.69h1l1,.34,2,.68,1,2.75.52.67.34.35h.33l.35-.35.34-.86-.18-1.19-1-2.89.33-2.23.68-2.56.53-1.21.85-.86,1-.84,1-.35.68.68.86.33,1,.18.85-.18.85-.66.69-.86.17-1-.33-1-.53-1-1-.51-1-.16-1,.33-.85.51-.5.68-.18,1v.86l-1.87,1-1.54,1.36-1,1.72-.69,1.7-1-3.77.15-1.87.68-1.72.86-1.53,1.2-1.72,2.23-2,2-2.73,1-1.54.68-1.7.33-1.72V209l-.33-3.08-.18-1,.35-1.21-1.38.7-1.87,1-3.26,2.23-1.36,1.7-.85,2-.52,2.22.17,2.05.52,2.58v2.38l-.35,2.23-1,1.88-1.19-6-.68-8.38.85-2.07,1.36-1.87,1.54-1.7,1.72-1.55,2.23-2.22,1.71-2.74,1-2.91.53-2.91v-2.89l-.69-2.91-1-2.4L171.28,182l-.36,2-.84,2.05-1.21,2.07-1.71,1.7" fill="#efae0e"/><path d="M189.24,272.83l-.35,1.55.17,1.36.51,2.91,1.2,2.4,1.37,1.88,1.71,2.4.85,1.88-2.91-2.41-4.09-3.24-4.46-2.91-1.87-.86-1.89-.5-.16-1-.53-.7-.85-.51-.86-.16-1,.16-.85.51-.68.86-.18,1,.18,1,.49.66.86.68,1,.18.86-.18.84-.33.53-.68.33-1,.35.18,3.25,1.72,3.25,2.2,3.06,2.41,3.08,2.73,5.64,5.65,4.8,5.82-1.67-.77-1.41-1.28-4.1-3.77-3.59-2.56-1.88-1-2.23-.86-2.22-.51-2.23-.33h-2.39l-2.4.33,1,1.9,2.73,3.07L184.1,294l3.6,2.23,3.76,1.72,3.76,1,3.58.86,3.08.35,2.39.16.53.35v.86l-.53.51-1,.33h-1.21l-3.08.18-3.24.33-.33-.86-.53-.66-.84-.36h-.86l-1,.36-.51.66-.35.86-.16.86.51,1,.51.51.86.33,1,.18.68-.35.51-.51.5-.51.17-.86,2.75-.15h3.41l3.59.15,2.92.53,6.83,5-.5.51-1,.33-2.22.33-1.54-.33-1.38-.68-2.55-1.37-1.37-.33h-2.07l-2.38.51-3.08,1.19.85.33,1,.51,2.56,1.89,3.08,1.72,1.54.67,1.7.35h1.21l1-.69,1.21-1,1.18-1.53.85-.5.86-.53,2.22-.51,2.4,1.37.68.35h.53l.33-.18.18-.33-.36-1-.85-.84-2.56-1.72-1.2-1.9-.86-2.38-.16-1.37v-1.19l.33-1.21.69-1,.85.17,1-.17.85-.51.5-.86.35-1v-1l-.52-.86-.85-.67-1-.35h-1l-1,.51-.68.86-.33,1,.15.86.35.85.68.69-1,1.87-.33,2.05V304l.68,1.71-3.25-2.4-.86-1.52-.5-1.72-.33-1.88.16-1.89.34-3.09v-3.41l-.17-1.88-.33-1.7-.86-1.72-1-1.36-2.22-2.23-.68-.86-.36-1-.85,1.21-.86,1.88L201.37,286l-.17,2.05.69,2.22.84,2,1.37,1.55,1.89,1.87,1.54,1.88,1,2.07.33,1.87-2.55-2.07-1.89-1.87-5.65-6.33-.69-2.05v-2.38l.18-2.41.51-2.2.52-3.09-.35-3.24-.86-2.91-1.35-2.58-1.9-2.38-2.22-1.88-2.22-1.37-2.57-.7,1,1.9.51,2.05.17,2.38-.33,2.4" fill="#efae0e"/><path d="M307.45,350H311l2.07-.51,1.87-1v-.35l-.33-.51-2.41-.86-3.59-1.37-2.06-1-2.21-1.2-3.26-1.71-2.21-.67-1.54-.53-.87-.5-1-1L293.61,336l-1.38-3.42-.18-1.54v-1.37l.87-.33.69-.69.49-.86.18-.84-.35-1-.5-.86-.86-.68-1.19-.16-1,.33-.85.68-.53.86-.16,1,.16,1,.53.68.85.68.85.16.18,2.73.67,3.42,1,2.91.69,1.21.67.67-3.93-.34-1.54-.86-1.36-1.19-1.36-1.36-.87-1.88-1.19-2.73-1.89-3.09-1-1.37-1.38-1.21-1.36-1-1.72-.67-3.08-.7-.85-.51-1-.68v1.54l.32,2.05.87,3.93,1,1.89,1.7,1.7,1.88,1.19,1.89.51,2.57.53,2.23,1,1.88,1,1.54,1.52-3.42-.51-2.57-.5-8.21-2.56L272.05,335l-1.2-2.07-1-2-.85-2.05-1.2-3.09-1.88-2.4-2.39-2.05-2.57-1.7-2.74-1-2.72-.52-2.75.17-2.57.69,1.72,1,1.7,1.55,1.38,1.87.85,2.23.69,1.54.69,1.19,2,2.05,2.38,1.55,2.06.85,2.56,1,1.9,1.37-4.08-.59-5-.6-5.12-.18-2.23.18-1.87.5-.69-.68-.85-.33h-.87l-.85.33-.85.68-.35.86-.16,1,.33.84.69.86.85.51h1l1-.34.67-.5.51-.86.18-1-.34-.84h.34l3.77-.17L258,335l3.95.33,4.09.69,7.7,2,7.18,2.38-3.59-.16-5.65-1-4.28-.35-2.21.15-2.23.35-2.21.69-2.24.86-2,1.19-1.7,1.54,1.88,1,1.87.86,2.06.5,2.05.36h4.11l4.11-.51,3.92-1,3.42-1.19,2.74-1.37,2.22-1h.51l.51.86-.16.68-.69.69-1,.86-2.73,1.54-1.2.84-1.21,1-.67-.52-.85-.16-1,.16-.69.52-.52.69-.33.86.17,1,.5.69.69.68.85.18,1-.18.69-.51.5-.51.35-.7v-.84l-.17-.68,2.23-1.72,2.9-1.7,3.08-1.72,2.74-1H291l2.23.51,2,.51,2,.33,1.21.18,1.36.53,2.74,1.69,2.57,1.88,2.21,2.05" fill="#efae0e"/><path d="M379.46,92.7l-9.06-7.17,11.63.33L386,75.43l3.25,10.76,11.64.51L391.27,93l3.24,11.46-9.4-7.34-9.75,6.5,4.1-11" fill="#efae0e"/><path d="M430.62,171.91l-11.63-1,10.09-6-2.57-11,8.73,7.36,9.93-6-4.46,10.61,9.06,7.69-12-1-4.46,10.78-2.73-11.47" fill="#efae0e"/><path d="M419.84,258.48l-8.55-8.05L422.74,252l4.8-10.27,2.39,11.11,11.63,1.55L431.31,260l2.37,11.64L425,263.42l-10.26,5.64,5.13-10.58" fill="#efae0e"/><path d="M359.8,319.2l-2.06-11.47,8.39,8.23,10.09-5.32-4.79,10.28,8,8L368,327.4,363.21,338,361,326.39l-11.65-1.55,10.45-5.64" fill="#efae0e"/><path d="M325.76,68.93l1.36-.86,1.36-.51,2.92-.35,2.73.17,2.23.51,2.72.68h2.23l-3.41-1.69-4.46-2.58-4.27-3.07-1.7-1.54-1.2-1.37h-.87l-.85-.18-.85-.5-.51-.86-.16-1,.16-.86.51-.86.85-.68,1-.16,1,.16.87.53.5.84.17,1v.84l-.51.86-.69.51.18.17,2.9,2.41,3.08,2.2,3.41,2,3.6,1.9,7.52,3.09,7.19,2.2-1.36-1-1.72-1-5-2.4L343,65.16l-1.7-1.37-1.53-1.7-1.37-1.89-1.2-1.88-.85-2.23-.51-2.4,2,.35,2.05.51,1.88.68,1.89,1,3.4,2.56L350,61.72l2.39,3.08,2.05,2.91L356,70.45l1,2.23.51.15.87-.33.16-.68V71l-.34-1.19L357,66.88l-.85-3.09h-.85l-.85-.33-.51-.71-.34-.84v-.86l.34-.85.51-.69,1-.33h.87l.85.33.69.69.33.85v.69l-.17.86-.52.51-.51.5.69,2.74,1.36,3.06,1.38,3.27,1.7,2.55,7.19,4.46.18-.86V78l-.69-2.25-.69-1.17-1.19-1-2.23-1.88-.85-1.21L363,68.57,362.7,66V62.75l.67.69.85.86,2.56,1.7,2.91,2,1.2,1.21.87,1.52.34,1v1.36l-.52,1.37-1,1.72-.34.84v1.21l.34,2.05,2.21,1.7.51.68.18.51v.35l-.34.16-1,.18-1-.51-2.57-1.72-2.23-.33h-2.55l-1.36.33-1.2.51-1,.7-.69,1,.51.85.18.84v1l-.51.86-.87.68-1,.16h-1l-1-.51L355,87l-.16-1V85l.51-1,.85-.51.85-.33h.87l1,.33,1.36-1.55L362,80.7,363.9,80h1.88l-3.42-2.23-1.72-.17-1.87.17-1.88.35-1.71.84-2.75,1.55-3.08,1.36-1.88.51-1.71.18h-1.88l-1.7-.51-2.74-1.21-1-.33h-1.2l.85-1.19,1.54-1.55,3.08-2.56,1.89-.85L346.8,74l2.39.16,1.7.68,2.41,1,2.37.68,2.23.16,2.05-.33-3.08-1.7-2.37-1L346.63,71l-2.24.15-2.21.86-2.05,1-1.88,1.21-2.74,1.7-3.08.86-3.08.17-2.9-.17-2.92-.86L321,74.55l-2-1.56-1.71-2,2.21.15,2.07-.33,2.21-.68,2.06-1.19" fill="#efae0e"/><path d="M399.66,111.17l1.7.18,1.38.33,2.55,1.39,2,1.87,1.38,1.88,1.7,2.22,1.72,1.37-1.54-3.59L408.72,112l-1.71-5-.34-2.23V103l-.85-.51-.53-.68-.34-.86.18-.86.34-1,.85-.68.86-.35h1l1,.51.69.68.33,1-.15,1-.36.86-.67.68-.87.34h-.85v.35l.85,3.59,1,3.75,1.54,3.61,1.71,3.75L416.4,125l4.45,6.33-1.19-3.42-2.56-5.12-1.37-4.12-.51-2.21-.34-2.22V112l.34-2.4.67-2.23,1-2.2,1.54,1.54,1.18,1.7,1,1.72.87,1.87,1.2,4.1.51,4.1.16,4-.33,3.57-.34,3.09-.69,2.38.34.53.86.16.68-.34.49-.86.35-1.19.85-2.91,1.21-2.91-.69-.68-.34-.68-.16-.86.32-.84.53-.86.85-.33.85-.18.85.18.87.66.33.7.18,1-.18.86-.51.66-.69.35-.67.35-.67-.17-1,2.73-1,3.25-.69,3.43-.35,3.07,2.92,7.87.69-.35.51-.84.85-2.23.16-1.36-.16-1.55-.69-2.91v-1.52l.51-1.9,1.19-2.22,2.07-2.56v1L433,131l1,2.91.85,3.24L435,139v1.72l-.51,1-.87,1-1.19.69-1.89.84-.67.52-.87.84-1,1.9.67,2.73v1.19l-.33.36H428l-.85-.51-.51-1-1-3.08-1.54-1.53-2.05-1.54-1.2-.68-1.19-.18-1.38-.18-1.18.53v.84l-.34.86-.69.68-1,.36-1,.17-1-.53-.67-.68-.51-1v-1l.33-1,.69-.68,1-.51h1l.85.34.67.52.52.84,2.23-.33,2.05.16,1.88.7,1.52,1-1.52-3.77-1.19-1.2-1.54-1.21-1.71-.66-1.88-.51-3.08-.35-3.26-1-1.7-.7-1.54-.84-1.36-1-1.2-1.53-1.54-2.75-.52-.84-1-.68,1.36-.36,2.23-.33,3.93-.17,2.23.5,1.88,1.22,1.72,1.52,1.18,1.54,1.2,2.4,1.37,1.88,1.71,1.54,1.7,1-1.36-3.24-1.19-2.23-4.61-7.19-1.9-1.19-2.21-.68-2.23-.36-2.23-.15-3.24-.51-2.91-1-2.58-1.7-2.21-2.07-1.72-2.39-1.19-2.56L391.8,110v-2.58l1.54,1.37,1.88,1.21,2.21.84,2.23.35" fill="#efae0e"/><path d="M433,190l1,1.19.85,1.19,1.2,2.58.51,2.73.16,2.39v2.75l.51,2,.87-3.57,1.37-5.14,1.71-5,1-1.89,1-1.53-.34-.86v-.86l.34-.84.69-.86.85-.35,1-.15,1,.33.67.68.51.86v1l-.17,1-.67.69-.85.5-.85.16-1-.33-.69-.51-.18.18-1.54,3.41-1.36,3.75-1,3.77-.86,3.93-1,8-.34,7.52.69-1.53.5-1.89,1.2-5.47,1.19-4.28.86-2,1.19-1.87,1.54-1.88,1.54-1.72,1.89-1.36,2.22-1.2.17,2.23V200l-.17,2-.52,2.07L448.21,208l-2,3.59L444,214.82l-2.41,2.74-2.21,2.23-1.9,1.36-.16.69.52.68h.85l.86-.33,1-.69,2.57-1.71,1.38-1,1.36-.68-.33-.86.16-.86.51-.69.67-.5.87-.36,1,.2.68.33.69.84.17.86-.17.86-.34.86-.85.51-.69.33h-.69l-.69-.33-.67-.51-2.39,1.54L441,222.36l-2.57,2.21-2.21,2.23L433.84,235h.87l.85-.35,2.05-1.19.85-1,.87-1.35,1-2.75,1-1.19L442.9,226l2.41-1,3.24-.68-.69.68-.5,1.21-.87,2.89-1.36,3.27-.85,1.36-1.2,1.37-.85.51-1.36.35-1.54-.18-1.9-.5h-.85l-1.2.15-2,.86-1,2.74-.34.5-.51.35h-.34l-.35-.17-.34-.84.16-1.21,1-3.07-.16-2.07-.69-2.56-.69-1.19-.85-1-.85-.69-1.21-.51-.67.84-.87.36-.84.17-1-.35-.85-.51-.51-.86-.18-1.19.18-1,.69-.86.85-.51,1-.16,1,.16.87.68.51.69.34,1-.18.84,1.9,1,1.54,1.36,1,1.72.69,1.7,1.19-3.92-.34-1.72-.51-1.72-.87-1.7L430.78,221,428.72,219l-2.21-2.74-.87-1.7L425,213l-.51-1.72v-1.87l.51-3.09v-1l-.35-1.19,1.36.51,1.88,1,3.27,2.38,1.37,1.7,1,2,.34,2.22-.18,1.9-.33,2.73-.18,2.39.51,2.22.69,1.88.85-3.42.51-2.56.7-8.38-.87-2.05-1.37-1.89-1.52-1.88L431,203.55l-2.24-2.38L427,198.59l-1-2.91-.49-2.89.15-3.08.52-2.74,1-2.56,1.54-2,.52,2,.67,2.06,1.38,1.87,1.7,1.72" fill="#efae0e"/><path d="M410.94,273l.17,1.54v1.54l-.67,2.89-1.2,2.41-1.38,1.87-1.7,2.23-.87,2.05,2.92-2.38,4.11-3.27,4.44-2.91,2.05-1,1.7-.51.34-.86.51-.68.69-.51,1-.18,1,.18.85.51.52.68.17,1-.17,1-.52.86-.85.69-.84.15-1-.15-.87-.53-.51-.67-.34-.86-.16.16L417.1,280l-3.26,2.23-3.24,2.38-3.08,2.58-5.47,5.8-5,5.82,3.08-2.05,4.27-3.77,3.41-2.56,2.06-1,2-.84,2.23-.68,2.39-.35h2.23l2.39.51-1,1.72L419,291.48,417.43,293l-1.54,1.37-3.57,2.22-3.77,1.54-3.77,1.2-3.58.86-3.08.33h-2.41l-.33.52v.84l.51.51.85.35h4.44l3.08.34.34-.69.69-.68.85-.33H407l.84.33.7.68.33.86v.86l-.33.86-.7.66L407,306h-.87l-.85-.18-.52-.51-.33-.68-.16-.68-2.92-.34h-3.42l-3.41.34-3.08.52-6.85,5,.69.51.85.33,2.39.18,1.38-.18,1.36-.68,2.57-1.54,1.54-.34h1.87l2.57.69,3.08,1.19-1,.35-1,.51-2.57,1.72-2.9,1.87-1.72.69-1.54.33-1.18-.18-1.19-.5-1.2-1-1.21-1.54-.67-.51-1-.51-2.05-.53L381,311.66l-.67.33h-.53l-.34-.17v-.34l.18-1,.85-.84,2.57-1.72,1.2-1.87.85-2.56.34-1.21V300.9l-.34-1.21-.69-1-1,.16-.87-.16-.85-.35-.69-.86-.33-1,.16-1,.51-.84.69-.86,1-.17h1.2l.87.5.67.86.36.86v1l-.36.86-.67.68.85,1.88.51,2.05-.17,2.05-.68,1.72,3.24-2.41.87-1.52.67-1.72.18-1.87v-2.05l-.34-2.91-.17-3.6.17-1.72.5-1.7.69-1.72,1-1.34,2.22-2.23.69-.86.51-1.19.69,1.37.85,1.87,1.36,3.93v2.07l-.51,2.21-1,2.05-1.18,1.54-2.06,1.7-1.6,2.07-1,2.05-.29,1.87,2.73-2.22,1.89-1.7,5.65-6.33.51-2.23v-2.22l-.17-2.41-.52-2.22-.33-3.24.16-3.09,1-2.89,1.38-2.75,1.7-2.21,2.23-1.9,2.39-1.36,2.39-.86-.85,1.89-.69,2.23v2.21l.34,2.4" fill="#efae0e"/><path d="M292.56,350.16l-1.54.17h-2l-2.05-.51-1.7-1.21-.18-.33.51-.33,2.22-.86,3.59-1.37,2.23-1,2.05-1.37,3.42-1.52,2.05-.86,1.54-.35,1-.51.85-1,1.89-2.91,1.35-3.26.35-1.52L308,330l-.86-.35-.68-.68-.51-.86-.18-1,.34-1,.69-.86.85-.5,1-.18,1,.35.85.51.51,1,.18,1-.18,1-.51.68-.85.68-.85.18-.17,2.73-.52,3.25-1.18,3.08-.51,1.19-.87.69,4.1-.35,1.56-.84,1.35-1.21,1.2-1.53,1-1.72,1.18-2.73,1.72-3.09,1-1.36,1.37-1.35,1.54-.86,1.54-.69,3.08-.85,1-.36,1-.68-.18,1.54-.16,2.05-1,3.93-1,1.89-1.54,1.53-2.05,1.38-1.72.51-2.55.51-2.41.86-1.87,1.19-1.38,1.54,3.43-.5,2.57-.51,8-2.58,1.54-1.54,1.36-1.88,1-2.05L331,329l1.38-2.92,1.87-2.55,2.23-2.05,2.57-1.55,2.73-1,2.92-.51,2.72.17,2.41.67-1.72,1-1.54,1.53-1.36,1.89-1,2.23-.51,1.37-.87,1.36-2,2.05-2.23,1.37-2.23,1-2.55,1-1.72,1.19,3.77-.5,5.12-.51,5.31-.18,2.23.18,1.7.51.67-.69.87-.35h.85l1,.18.69.68.52,1v1l-.34.86-.69.86-.85.33-1,.18-1-.35-.67-.69-.34-.68-.17-1,.17-.86h-.17l-3.76-.17H342l-3.94.51-3.93.7-7.86,1.87-7.19,2.56,3.75-.17,5.47-1,4.29-.33,2.21.15,2.41.36,2.21.5,2.05,1,2.06,1.21,1.89,1.52-1.89,1-2.06.86-1.87.51-2.06.33h-4.28l-4.09-.51-3.77-1L322,344l-2.9-1.36L317,341.45l-.52.17-.51.67.18.85.67.69,1,.68,2.56,1.72,1.37.84,1.2,1,.67-.51.87-.18.85.18.85.51.51.68-.13.94.13.76-.33.86-.85.53-.87.33-.85-.18-.85-.51-.51-.5-.18-.86v-.69l.18-.66-2.23-1.72-2.91-1.89-3.08-1.53-2.9-1H309l-2.21.5-2.07.51-1.88.18-1.36.33-1.21.53-2.72,1.54-2.74,2-2.23,1.88" fill="#efae0e"/><path d="M299.75,98.69l-.69.18-.51.33-.34.51-.16.68.16.68.34.51.51.51.78.08.6-.08.67-.51.34-.51.18-.68-.18-.68-.34-.51-.67-.33-.69-.18" fill="#efae0e"/><path d="M225,133.07l-.69.17-.52.35-.33.51-.18.67.18.7.33.51.52.5h1.37l.6-.43.41-.58.18-.7-.18-.67-.51-.51-.5-.35-.68-.17" fill="#efae0e"/><path d="M202.24,181l-.68.15-.69.35-.35.51-.17.69.17.68.35.68.69.34.77.27.59-.27.51-.34.35-.68.16-.68-.16-.69-.35-.51-.51-.35-.68-.15" fill="#efae0e"/><path d="M205,226.13l-.69.16-.68.35-.33.51-.17.7.17.67.33.68.68.35.69.18.77-.1.44-.43.33-.68.17-.67-.17-.7-.33-.51-.52-.35-.69-.16" fill="#efae0e"/><path d="M345.76,109.45l.69.18.51.35.34.51.17.68-.17.69-.34.68-.51.33-.69.18-.59-.08-.78-.43-.33-.68-.18-.69.18-.68.33-.51.7-.35.67-.18" fill="#efae0e"/><path d="M275.29,293l-2.41-.51.35-1.39,1.37.18,1-.18.51-.66.18-.35,1.79.58-2.57,9.59-2.14-.58,1.88-6.68" fill="#efae0e"/><path d="M295,293.11l-.09,1.46-1.36,1.37-1.36,2.22-.87,2.21-.51,2.23H289l.51-2.74,1.37-2.73,1.89-2.56-5-.18.17-1.71,7.1.43" fill="#efae0e"/><path d="M310.44,293.28l-.09,1.47-1.2,1.52L308,298.5l-.87,2.22-.32,2.23h-2.07l.51-2.74,1.36-2.75,1.72-2.56h-4.95l.08-1.62h7" fill="#efae0e"/><path d="M324.55,291.13l-.94-.23-1.29-.1-.85.18-.85.33-.85,1.19-.51,2.25v1.87l.51,1.7.5,1.37.69.68.69.35,1.52.33,1.54-.5,1-.86.5-1.19v-1.37l-.34-1.19-.69-1-1-.51-1.18-.17-1.2.35-.67.68.15-1.71.34-.86.87-.34H323l.51.34.16.5,1.9-.15-.36-1-.67-.86" fill="#efae0e"/><path d="M236.29,273.69l-1.38-1.37.51-1v-.86l-.67-.86-.87-.86-.85-.16-.69.34-.17.33-.07.6.67,1.37.44.76.85,2.25-.18,1.19-.67,1-1.19.68h-1.21l-1.36-.35-1.21-1-.84-1.36-.35-1.37.18-1.19.85-1.21,1.37,1.36-.51.71v.84l.68,1,1.19.86h.52l.33-.35.35-.33v-.51l-.51-1.39-.86-1.52-.68-1.72.17-1,.68-1,1.2-.68,1.2-.16,1.36.51,1.36,1.19,1,1.37.51,1.54-.33,1.37-.85,1" fill="#efae0e"/><path d="M217,262.05l1.36-1,3.43,4.1,1.53-1.37L220.21,260l1.35-1.21,3.08,3.77,2-1.72-3.58-4.26,1.36-1.21,5.06,6.08-7.87,6.5-4.71-5.9" fill="#efae0e"/><path d="M220.89,250.25l-2.06.51-2.06-3.06,1.37-1.72L217,244.1l-6.67,8.38,1.46,2.13,10.42-2.38-1.27-2" fill="#efae0e"/><path d="M215.32,240.25l-9.24,4.11-.94-2.13,7.7-3.26-2.05-4.61,1.71-.69,2.82,6.58" fill="#efae0e"/><path d="M198.9,175.08l1.8-8.15,1.71.53-.68,2.91,8,1.88-.5,2.05-8.06-1.88-.59,3-1.71-.35" fill="#efae0e"/><path d="M213.19,163.34l-.77,2-9.24-3.92.6-2,3.59,1.37,1.53-3.59-3.59-1.55.87-1.87,9.41,3.94-.86,2.06-4.12-1.9-1.71,3.6,4.29,1.87" fill="#efae0e"/><path d="M213.52,141.29l1.54,1-2.91,4.46L214,148l2.56-4.28,1.54,1-2.73,4.12,2.21,1.37,3.08-4.63,1.54.86-4,6.58-8.56-5.47,3.85-6.25" fill="#efae0e"/><path d="M233.55,129l1.54-1.37,1,.33h.69l1-.66.69-.86.16-.86-.34-.69-.35-.17-.5-.16-1.38.67-.85.52-2.23,1-1-.18-1.19-.84-.68-1V123.5l.35-1.37,1-1.37,1.2-.86,1.36-.33,1.38.16,1.19.86L235.24,122l-.85-.33h-.69l-1,.51-.84,1.19v.51l.33.53.35.15H233l1.38-.51,1.54-.86,1.7-.68,1,.18,1,.68.67,1.19.26,1.29-.6,1.27-1,1.37-1.54,1-1.38.51-1.36-.18-1.2-.83" fill="#efae0e"/><path d="M240.73,113.73l6.84-4.61,1,1.54-2.56,1.7,4.53,6.94-1.79,1.11-4.62-6.84-2.57,1.53-.85-1.37" fill="#efae0e"/><path d="M258.17,114.94l-.16-2.23,3.5-1.44,1.28,1.44,2.07-.85-7.54-7.7-2.06,1,1,10.58,1.88-.84" fill="#efae0e"/><path d="M266.74,100.57l7.86-2.23.51,1.72-2.9.86,2.21,8-1.95.6-2.23-8-3,.79-.51-1.72" fill="#efae0e"/><path d="M287.77,96l.35,1.7-5.31.86.34,2,4.79-.69.34,1.72-4.78.84.34,2.58,5.47-.86.35,1.7-7.61,1.29-1.38-10.1,7.1-1.11" fill="#efae0e"/><path d="M318.39,97.48l-1.36-1-1.88-.36-1.89.36-1.54.68L311,98l-.5.86-.33,2.56.15,2.38.52.86.69.86,1.36,1,2,.41,1.8-.41,1.37-.86.84-.68.36-1,.49-2.38-.35-2.4-.32-1-.69-.66" fill="#efae0e"/><path d="M324.13,108.34l3.25-9.57,6.75,2.3-.69,1.72-4.78-1.72L328,103.3l4.28,1.37-.69,1.72L327.47,105,326.09,109l-2-.61" fill="#efae0e"/><path d="M352.52,120.84l6.34-7.87,1.78,1.29-1.36,8,4.44-5.47,1.54,1.21-6.49,7.85-1.54-1.37,1.36-8L354,122l-1.45-1.11" fill="#efae0e"/><path d="M377.25,129.14l-1.2,1.19-3.77-3.77-1.53,1.55,3.42,3.41-1.2,1.19-3.42-3.41-1.88,1.89,3.93,3.93-1.2,1.36L365,131.09l7.17-7.16,5.06,5.21" fill="#efae0e"/><path d="M382.47,135.72l1.28,1.8-4.11,4.28-1,1.19,1.37-.69,5.48-2.38,1.19,1.88-3.93,4.27-1.2,1.2,1.36-.69,5.65-2.22,1.2,1.87-9.93,3.44L378.61,148l4.27-4.43,1.38-1.37-1.88.84-5.49,2.4-1.11-1.62,6.69-8.05" fill="#efae0e"/><path d="M389.73,171.05l-.42-1.79,9.75-2.74.42,2-3.59,1,1,3.75,3.59-1,.67,2.05L391.45,177l-.69-2.05,4.44-1.19-1-3.95-4.46,1.21" fill="#efae0e"/><path d="M393,183.54l2.05.35.51,3.75-1.89.86.33,2.22,9.42-5-.26-2.3-10.43-2.05.25,2.13" fill="#efae0e"/><path d="M396.4,200l7.88,1.7v3.09H394.19v-1.88h8.55L394.19,201v-2.07l8.55-2.05h-8.55l.07-1.78h10.09l-.07,3L396.4,200" fill="#efae0e"/><path d="M402.21,218.44l.69-1,.51-1.19.6-4.35-10.08-1.37-.27,2.13,3.59.35-.33,2.23v1.54l.33,1,1,.86,1.36.51,1.54-.17,1-.51" fill="#efae0e"/><path d="M394.69,223.57l-.68,1.88h-1l-.69.51-.5,1-.17,1.19.17.86.67.34H393l.33-.18.87-1.19.5-.86,1.38-1.88,1.18-.5,1.21.17,1.18.69.69.85.34,1.37-.34,1.7-.69,1.37-.85,1-1.36.51-1.36-.15.49-1.88h.87l.67-.35.69-1.19V227.5l-.18-.35-.51-.33h-.51l-.5.17-.69,1.19-1,1.55-1.19,1.36-1,.51-1.19-.17-1-.69-.85-1-.18-1.37.18-1.72.85-1.7,1.11-.94,1.1-.6,1.54.17" fill="#efae0e"/><path d="M386.31,237.25l.94-1.78,9.24,4.1-.94,1.8L392,239.82l-1.54,3.6,3.42,1.54-.85,1.88-9.24-4.11,1-1.89,4.11,1.89,1.54-3.59-4.11-1.89" fill="#efae0e"/><path d="M388.53,254.36l-8.73-5.3,1.29-1.62,8.55,5.29-1.11,1.63" fill="#efae0e"/><path d="M385,260.27l-7.86-6.34-1.45,1.64L379,258l-1.36,1.7-.5.7-.51.16-.53-.16-.85-.35-.69-.51-.67-.51-.52-.35-1.52,1.9.34.15h.67l.69.71.51.33,1.54.68,1.19-.17-.16.68.16.86.85,1.19,1,.51h1l1-.33,1.2-1,3.15-3.83" fill="#efae0e"/><path d="M370.24,276.78l-1.2-1.21,3.75-3.75-1.36-1.55-3.6,3.42-1.2-1.19,3.61-3.42-1.89-1.89L364.24,271l-1.19-1.19,5.56-5.22,7,7.19-5.38,5" fill="#efae0e"/><path d="M197.11,207.48l-.86,1.39-.17,2,.33,1.89.86,1.37.85.68,1,.34,2.4.35,2.39-.35.86-.51.93-.61.76-1.62.17-1.87-.33-1.88-.86-1.37-.85-.68-.85-.51L201.2,206l-2.39.33-.86.51-.84.7" fill="#efae0e"/><path d="M206.08,200.21H196L195.9,193h1.72v5.14H200v-4.46h1.71v4.46H206l.09,2.12" fill="#efae0e"/><path d="M297.52,155l5.13-.16-2,31.29-1.2-.15-1.88-31" fill="#efae0e"/><path d="M303,186.45l5.31-22.76m-16.43-.17,5,22.75" fill="none" stroke="#000" stroke-width="0.34"/><path d="M278,160.78l4.6-2.38,11.81,28.9-1.19.34L278,160.78" fill="#efae0e"/><path d="M276.65,170.88l14.55,18.3" fill="none" stroke="#000" stroke-width="0.34"/><path d="M263.14,174.47l3.08-4.1,23.44,20.35-.69.86-25.83-17.11" fill="#efae0e"/><path d="M256,193.13l.85-5,30.11,8-.34,1.19L256,193.13" fill="#efae0e"/><path d="M266.56,184,287.77,194" fill="none" stroke="#000" stroke-width="0.34"/><path d="M322,160.78l-4.44-2.38-11.81,28.9,1,.34L322,160.78" fill="#efae0e"/><path d="M323.35,170.88l-14.54,18.3" fill="none" stroke="#000" stroke-width="0.34"/><path d="M336.87,174.47l-2.9-4.1-23.62,20.35.68.86,25.84-17.11" fill="#efae0e"/><path d="M344.06,193.13l-.85-5-30.11,8,.33,1.19,30.63-4.25" fill="#efae0e"/><path d="M333.44,184,312.23,194M277,177.56l1.7.15m-1.7,1.88,1.88.18M277,183.89l2.57.15M277,186.27l2.91.18m-2.75,6,3.6,1m-39.51,3.26,33.17-22.25" fill="none" stroke="#000" stroke-width="0.34"/><path d="M349.53,237.42c1.7,0,2.74-.17,2.74-.33.16-1,.52-2.91.69-4.79l-6.16-.17a6,6,0,0,0,2.73,5.31Z" fill="#de1c2c" stroke="#000" stroke-width="0.34"/><path d="M347.3,228a5.21,5.21,0,0,0-.34,1.52,13.87,13.87,0,0,0-.16,2.56l6.16.18a42.15,42.15,0,0,0,.68-4.44l-6.34.16Z" fill="#de1c2c" stroke="#000" stroke-width="0.34"/><path d="M353.64,224.08c-2.75,0-4.29.18-5.47,1.7-.18.51-.52,1.21-.7,1.9l-.17.35,6.34-.18A13.86,13.86,0,0,0,353.64,224.08Z" fill="#de1c2c" stroke="#000" stroke-width="0.34"/><path d="M333.1,207.83v3.93l5.49.17V208l-5.49-.18" fill="#fff"/><path d="M326.43,207.83l.17,3.75,6.16.18v-3.93h-6.33" fill="#fff"/><path d="M338.37,212.6h8v-5h-8Z"/><path d="M285.71,150v.18a2.41,2.41,0,0,1-2,2.38c2,.7,3.77,0,3.77-1a2.79,2.79,0,0,1,2.92-1.87C288.46,149.67,288.28,149,285.71,150Z" fill="#de1c2c" stroke="#000" stroke-width="0.34"/><path d="M291.54,145.06c.85,1.52-.18,3.07-1.54,2.89-1.54-.33-3.93.35-4.29,2.05,2.57-1,2.75-.33,4.64-.33,4.09,0,2-3.44,1.19-4.63Z" fill="#de1c2c" stroke="#000" stroke-width="0.34"/><path d="M291.2,144.71c.16.17.16.33.34.33.85,1.19,2.9,4.63-1.19,4.63,1.52,0,3.75-.53,4.27-2.23.33-1.54-1.37-3.59-1.54-4.63a9.78,9.78,0,0,0-2.57.86,3.35,3.35,0,0,0,.69,1Z" fill="#de1c2c" stroke="#000" stroke-width="0.34"/><path d="M322.68,146.23a11.67,11.67,0,0,1-9.07-2.38c-6.51-5.12-17.79-7.37-22.59-2.23a1.69,1.69,0,0,0-.51,2,9.78,9.78,0,0,1,2.57-.86c3.75-.84,10.26-.15,14,2.76A30.26,30.26,0,0,0,322,151.21a6.37,6.37,0,0,1,.7-5Z" fill="#de1c2c" stroke="#000" stroke-width="0.34"/><path d="M277.68,147.77c-4.27-1-14.89-.33-15.23,5a5.13,5.13,0,0,1,3.77-1.54,15.33,15.33,0,0,1,2.57.33,50,50,0,0,0,8.37.51c-.16-1.52-.33-2.91.51-4.28Z" fill="#de1c2c" stroke="#000" stroke-width="0.34"/><path d="M265.71,158.91c0,.68-.18,1.19-1.38,1.87-1.7.86-6,3.42-6.83,7,2.56-2.56,5.47-4.61,7.36-5.11a3.24,3.24,0,0,0,2.39-1.9C267.25,160.1,266.38,159.59,265.71,158.91Z" fill="#de1c2c" stroke="#000" stroke-width="0.34"/><path d="M266.56,156.35a4.18,4.18,0,0,1-.34-5.14,5.13,5.13,0,0,0-3.77,1.54,7.45,7.45,0,0,0,2.41,5.47c.34.16.5.51.85.67.67.7,1.54,1.21,1.54,1.89.67-1,.67-2.73-.69-4.45Zm58.84,41.23,5.65-2.4m-5.81-.51,5.12-1.9m-5.3-1.87,4.29-2.23m-4.46-.17,4.12-1.37m-4.12-.33,3.59-1.55m-3.75-.17,3.41-1.37m-3.41-.68,3.08-.51m-3.08-1.39,2.74-.15m-2.92-1.9,2.23-.33m-2.39-2.58h1.88m-1.88-1.37,1.37-.15m-7.53,23.44h4.45m-4.11-2.91,4.28.15m-4.12-2.73,4.12.17m-4-2.56,4,.16m-3.59-2.91,3.59.18m-3.43-2.56h3.43m-3.25-2.4h3.25m-2.92-2.21,2.92.16m-2.92-1.88H323m-2.74-2.05,2.74.18m-2.57-2.23,2.57.15" fill="#de1c2c" stroke="#000" stroke-width="0.34"/><path d="M289.31,278.83l.69-2.56.69-3.59.33-3.77v-3.09l.16-1.54-.16-1-5.47-.15.34,3.06.18,2.76-.52,4.61-.69,3.76v1.35L285,280l1.19.86h1.18l1-.67.87-1.38" fill="#fff"/><path d="M306.43,267.19l-.87,1-.67,1.37-.7,2.56-.17,3.06,1.89-2.38,1.54-2.56.34-1.21v-1l-.34-.69-1-.17" fill="#fff"/><path d="M297,279l-.34,1.2-.85,1.19-1,.86-1,.86L295,284.3l.52.33.51-.16,1.72-1.54,1-1.37.85-1.36-1.36-.36L297,279" fill="#fff"/><path d="M296.67,275.06l-1.2-2.74-.18-2.22.69-1.88.51-.51.69-.52-.35-1.7-.51-.86-.68-.33-1-.18h-.85l-1.9.68-.49.51-.35.51v3.09l-.34,3.77-.69,3.59-.67,2.56-.87,1.37-1,.68h-1.18L285,280l.18,1.54.51,1.19,1,.69,1.2.51,1.37.17,1.36-.17,1.54-.34,1.54-.52,1-.84,1-.86.85-1.19L297,279l.35-1.71.16-.86-.85-1.37" fill="#fff"/><path d="M297.36,269.41l-.18-2.22-.69.52-.51.51-.67,1.88.16,2.22,1.2,2.74.85,1.37v-3.6l-.16-3.42" fill="#fff"/><path d="M318.23,261.72l-1.2.51-1,.35-1.89.33-.85,2-1.7,2.05.51.69.16.68v.68l-.34.86-.33,1-.34,1.38v2.89l.34,2.56.67,1.9.87.86.67.15,1-.5.84-.86.18-2.91v-4.09l.34-2.4.69-2.75.85-2.72.51-2.75" fill="#fff"/><path d="M304,275.23v0Zm0,1.2c0,.35.17.86.17,1.21C304.19,277.29,304,276.78,304,276.43Z" fill="none" stroke="#000" stroke-width="0.34"/><path d="M304.19,277.64,303,279l-1.54.84,2.07,2.58L305.4,284l.67.15h.51l1-1-1.18-1-1-1.19-.87-1.54-.34-1.7" fill="#fff"/><path d="M304,276.43v-1.2l.17-3.06.7-2.58-.87-.51-1-.35-2.21-.33-2.06.33-1.36.7.16,3.42v3.58l-.16.86L297,279l1.2.84,1.36.36,1.88-.36L303,279l1.2-1.36-.17-1.21" fill="#fff"/><path d="M312.23,279.69l-.51-1.55-.5-2.05V273l.16-1.7.51-1.37.34-.86v-.68l-.16-.69-.51-.68-.69-.33-.85-.35h-1.88l-1,.35-.69.51,1,.15.34.69v1l-.34,1.19-1.54,2.56-1.87,2.4v1.2l.17,1.19.34,1.72.85,1.54,1,1.19,1.18,1,1.89.86,1.72.35,1.7-.35,1.54-.86.85-1.55.34-2.2-.85.86-1,.5-.67-.17-.87-.86" fill="#fff"/><path d="M304,276.43Zm44.48-39.87-87.59-8.2L257,228l-39.17-3.6c.5,1.53,1,3.07,1.54,4.79L361,242.38a76.85,76.85,0,0,1,12.82.69c.86-1.37,1.54-2.56,2.4-3.93Z" fill="none" stroke="#000" stroke-width="0.34"/><path d="M284.35,251.8a26.61,26.61,0,0,1,13.86-2.74c4.94.69,7.68-.33,8.89-1.19a6.44,6.44,0,0,1,5.46-1.39,13.92,13.92,0,0,0,6.84-.84,10.57,10.57,0,0,1,5.49-.85c5.29,1.19,28.9-.18,33.36-2.23-5.13.68-32.67.68-35.24-.33s-5.49-.53-8.73,1c-3.43,1.37-5.82,1.55-7.36.86a2.85,2.85,0,0,0-3.06.33c-.87.86-.52,1.72-4.11,1.72A202.18,202.18,0,0,0,277,248.38C279.73,251.27,283.15,250.94,284.35,251.8Z" fill="#fff" stroke="#000" stroke-width="0.34"/><path d="M310.18,199.28l-.16-2.05-.52-2-.86-1.55-1-1.54-1.54-1.19-1.72-.86-1.87-.68-2.39-.16-2.06.16-1.71.52-1.88.84-1.38,1.21-1.36,1.37-1,1.7-.69,2.05-.34,2.23H310.2" fill="#efae0e"/><path d="M257,144.36a2.06,2.06,0,0,1,1.88-2.06c1.2,0,2.39,1.22,2.23,2.06-.18,1.36-.34,2.07-1.72,2.22A2.1,2.1,0,0,1,257,144.36Z" fill="#de1c2c" stroke="#000" stroke-width="0.34"/><path d="M249.28,134.94a1.9,1.9,0,0,1,1.88-1.87c1.2,0,2.39,1,2.23,1.87-.18,1.39-.34,2.07-1.72,2.25A2.12,2.12,0,0,1,249.28,134.94Z" fill="#de1c2c" stroke="#000" stroke-width="0.34"/><path d="M239.71,166.25a1.83,1.83,0,0,1,.85-2.56c1-.51,2.56,0,2.74.86.34,1.37.67,2-.53,2.74a2.09,2.09,0,0,1-3.06-1Z" fill="#de1c2c" stroke="#000" stroke-width="0.34"/><path d="M228.76,161c-.35-1-.18-2.23.85-2.56a2.32,2.32,0,0,1,2.91.86c.33,1.19.49,2.05-.68,2.71A2.19,2.19,0,0,1,228.76,161Z" fill="#de1c2c" stroke="#000" stroke-width="0.34"/><path d="M219.52,191.41a2.09,2.09,0,0,1-.17-2.74c.68-.86,2.39-1,2.9-.33.85,1,1.36,1.52.51,2.73A2.22,2.22,0,0,1,219.52,191.41Z" fill="#de1c2c" stroke="#000" stroke-width="0.34"/><path d="M233.88,221l-.67-.34-.53-.5-.16-.69v-.86l.51-.68.52-.51.84-.35.7.18,1.36.86.18.5v.86l-.34.86-.53.51-.85.33-1-.17" fill="#de1c2c"/><path d="M222.6,225.63a2,2,0,0,1-1.38-2.41,2.16,2.16,0,0,1,2.57-1.52c1.21.51,1.89.84,1.54,2.21A2.09,2.09,0,0,1,222.6,225.63Z" fill="#de1c2c" stroke="#000" stroke-width="0.34"/><path d="M259,273.18l-.69.34-.85-.16-.69-.35-.34-.51-.34-.86.16-.84.34-.7.53-.51,1.52-.33.69.33.51.51.34.86v.86l-.34.86-.86.5" fill="#de1c2c"/><path d="M277.5,122.64a2.07,2.07,0,0,1,1.89-2c1.19,0,2.39,1,2.22,2s-.34,2-1.7,2.22A2.2,2.2,0,0,1,277.5,122.64Z" fill="#de1c2c" stroke="#000" stroke-width="0.34"/><path d="M264,262.23l-.67.17h-.87l-.67-.35-.35-.66-.34-.86.16-.86.35-.69.52-.33,1.54-.35.67.18.51.5.34.86v.84l-.34.86-.85.69" fill="#de1c2c"/><path d="M255.62,203.05l.34,2.56.17,2.55,4.78,1.55v-5l-5.29-1.7" fill="#fff"/><path d="M271.34,207.32l-.16,4.79,5.13.84v-4.61l-5-1" fill="#fff"/><path d="M263.66,205.61l-.18,4.78,5.13,1.19.18-4.78-5.13-1.19" fill="#fff"/><path d="M325.06,213.3l.18,3.59,4.78.18-.16-3.59-4.8-.18" fill="#fff"/><path d="M317.54,213v3.77l5.14.15.17-3.76-5.31-.16" fill="#fff"/><path d="M332.76,213.48l.18,3.59h4.78v-3.59h-5" fill="#fff"/><path d="M309.84,212.44v3.95l5.31.15v-3.75l-5.31-.35" fill="#fff"/><path d="M343.88,213.48h-3.41l.17,3.41h3.08l.16-3.41" fill="#fff"/><path d="M286.58,209.88l.16,4.46,5.13.5.16-4.1-5.45-.86" fill="#fff"/><path d="M279,208.87v4.43l5.13.68v-4.45l-5.13-.66" fill="#fff"/><path d="M301.63,211.76l.17,4.1,5.65.35v-3.92l-5.82-.53" fill="#fff"/><path d="M294.62,211.07l-.18-.15v4.28h.18l4.44.5.18-4.27-4.62-.36" fill="#fff"/><path d="M260.91,228.36l-1-2.56-1.21-1.89,10.11,1,5,.33,5.64.51,5.65.51,6.5.35L296,227l6.83.51,4.29.33,7.52.35,3.93.16,6.85.51L330,229l10.27.36,6.67.17.49-2.07.87-1.7-16.94-.17-27-.84-28.57-1.55-12.14-.86-9.24-1L257,228l3.93.35" fill="#de1c2c"/><path d="M260.91,228.36a20.53,20.53,0,0,0-2.23-4.45c2.92.35,6.34.68,10.11,1a43,43,0,0,0,5,.33c1.87.18,3.75.36,5.64.51s3.75.35,5.63.51c2.23.18,4.29.35,6.5.35A40,40,0,0,0,296,227c2.39.16,4.62.33,6.83.51a38,38,0,0,1,4.29.33c2.56,0,5.13.18,7.52.35a32.21,32.21,0,0,0,3.93.16c2.23.18,4.62.35,6.85.51,1.52,0,3.06.17,4.62.17,7.86.36,14,.53,16.92.53a10.56,10.56,0,0,1,1.38-3.77c-11.81.51-74.08-1.89-93.93-4.45,1.21,3.08,2.22,5.64,2.57,6.68l3.93.33Zm87.08-21-.69,7.88,9.93.15,1.7-7Zm-.85,9.07,3.59,6.83,2.57-.17,2-6.31Z" fill="none" stroke="#000" stroke-width="0.34"/><path d="M268.61,227.85l5,.69.18-3.27-5-.33-.18,2.91" fill="#fff"/><path d="M314.8,232.46l3.59.35.18-4.45-3.93-.18.16,4.28" fill="#fff"/><path d="M325.58,233.5l4.62.35L330,229l-4.62-.17.18,4.63" fill="#fff"/><path d="M303,231.27l4.11.33v-3.75l-4.27-.35.16,3.77" fill="#fff"/><path d="M279.39,229.22l5.65.51v-3.42l-5.65-.51v3.42" fill="#fff"/><path d="M291.54,230.23l4.44.53V227l-4.44-.35v3.59" fill="#fff"/><path d="M346.11,241.52l-3.93-17.09v-1l.5-.69.69.18.69,1,6.49,17.61h-4.44" fill="#fff"/><path d="M333.44,240.84l-2.73-16.07v-1.2l.51-.86.34-.17.34.35.69,1.54,5.29,16.76-4.45-.35" fill="#fff"/><path d="M322,240.16,320.8,232l-1.54-9.06v-.68l.34-.51.51.16.51.85,4.78,17.45H322" fill="#fff"/><path d="M309.66,240l.36-8.38.16-9.39.17-.69.34-.35.51.18.34.86,1.72,17.61-3.6.16" fill="#fff"/><path d="M297.7,239.14l.51-8.55.49-9.07.18-.52.34-.51.51.17.36.86,1.54,17.62h-3.95" fill="#fff"/><path d="M284.69,239l3.94-18,.16-.69.34-.15.35.33.16.51-.51,18.14-4.44-.17" fill="#fff"/><path d="M272,237.07l4.46-15,.51-.68h.67l.68.35.17.84L277,230.41l-1.36,7-3.59-.35" fill="#fff"/><path d="M258.52,236.05l7.86-14.53.69-.86h.5l.53.34-.18.7-6.16,14.35H258.5" fill="#fff"/><path d="M343.37,144.2a1.9,1.9,0,0,0-1.88-1.9c-1.2,0-2.39,1-2.23,1.9.18,1.37.34,2,1.72,2.23A2.1,2.1,0,0,0,343.37,144.2Z" fill="#de1c2c" stroke="#000" stroke-width="0.34"/><path d="M351.07,134.94a1.93,1.93,0,0,0-1.88-2c-1.2,0-2.39,1-2.23,1.88.18,1.36.34,2.05,1.72,2.22a2,2,0,0,0,2.39-2Z" fill="#de1c2c" stroke="#000" stroke-width="0.34"/><path d="M360.64,166.25a2.13,2.13,0,0,0-.84-2.73c-1-.34-2.57,0-2.75,1-.33,1.19-.67,1.88.51,2.56A2,2,0,0,0,360.64,166.25Z" fill="#de1c2c" stroke="#000" stroke-width="0.34"/><path d="M371.6,160.78c.34-1,.18-2.23-1-2.56a2.11,2.11,0,0,0-2.75.86c-.33,1.19-.51,2,.69,2.74a2.11,2.11,0,0,0,3.08-1Z" fill="#de1c2c" stroke="#000" stroke-width="0.34"/><path d="M380.67,191.23a1.92,1.92,0,0,0,.33-2.73c-.85-.86-2.39-1-2.9-.34-.85,1-1.38,1.7-.51,2.74A2,2,0,0,0,380.67,191.23Z" fill="#de1c2c" stroke="#000" stroke-width="0.34"/><path d="M366.47,221l.69-.51.49-.51.18-.68v-.86l-.51-.69-.69-.5-.67-.34-.7.16-1.36.86-.35.51.17.86.34.86.53.5.85.34h1" fill="#de1c2c"/><path d="M363.55,253.34l.69-.18.67-.35.51-.51.18-.85-.18-.84-.51-.69-.49-.51-.7-.17-1.54.33-.51.51-.16.7v1l.34.68.69.51,1,.35" fill="#de1c2c"/><path d="M336.36,262.05l.69.18h.67l.69-.34.51-.7.34-.84-.18-.86-.33-.68-.5-.33-1.73-.35-.5.17-.51.68-.36.69v.86l.36.86.85.66" fill="#de1c2c"/><path d="M341.31,273.18l.7.16h.67l.69-.33.51-.69.16-.85v-.86l-.34-.67-.51-.35-1.72-.35-.49.17-.51.51-.34.86v.86l.34.86.84.68" fill="#de1c2c"/><path d="M322.68,122.46a2,2,0,0,0-1.88-2c-1,0-2.23,1.19-2.07,2,.17,1.37.35,2.05,1.54,2.23A2.11,2.11,0,0,0,322.68,122.46Z" fill="#de1c2c" stroke="#000" stroke-width="0.34"/><path d="M321.81,296.27l.87-.33h.67l.35.33.49.53.18.66-.33,1.37-.36.35-.49.16h-.69L322,299l-.33-.5-.18-.69V297l.34-.68" fill="#002a86"/><path d="M215.59,249.06l1.36,2.21-4.11,1,2.75-3.24" fill="#002a86"/><path d="M260.06,109.8l-2.23,1.2-.51-4.26,2.74,3.06" fill="#002a86"/><path d="M312.92,104.16l-.51-1.19-.18-1.54.18-1.55.69-1,.85-.69,1.2-.17,1,.17.85.69.51,1.19.18,1.54-.34,1.53-.51,1-.87.68-1.18.18-1-.18-.85-.68" fill="#002a86"/><path d="M397.25,186.8l-.33-2.58,4.1.68-3.77,1.9" fill="#002a86"/><path d="M399,216.39l-.34-.51v-.68l.34-1.9,2.9.35-.16,1.88-.51,1.21-.53.15H400l-.69-.15-.34-.35" fill="#002a86"/><path d="M380,263.26l-.52.18-.85-.35-.35-.51v-.69l.53-1,1.36-1.88,2.23,1.72-1.54,1.88-.86.68" fill="#002a86"/><path d="M204.12,212.62l-1.2.68-1.36.18L200,213.3l-1.21-.51-.68-.86-.33-1.19.33-1,.52-.84,1.19-.69,1.54-.17,1.54.17,1,.51.68.86.33,1-.15,1.19-.69.86" fill="#002a86"/><path d="M299.91,86.88c-62.26,0-112.73,50.29-112.73,112.4,0,61.91,50.47,112.22,112.73,112.22,62.45,0,112.92-50.31,112.92-112.22C412.83,137.19,362.36,86.88,299.91,86.88Z" fill="none" stroke="#000" stroke-width="0.34"/><path d="M214,199.28v5l.51,5,.67,4.78,1,4.79,5.3.68,7,.69,18.13,1.19,21.55,1L291,223l21.88.7,18.82.33H345.4l6.34-.17,1.54-.16,1.54.16,2.72.52,2.23.16,2.23-.16,2.22-.35,2.38-.68,3.08-.51,4.63-.68,8.72-.69,1.36-5.46.87-5.47.5-5.67.17-5.62H214" fill="#4f9eff"/><path d="M214,199.28v5l.51,5,.67,4.78,1,4.79,5.3.68,7,.69,18.13,1.19,21.55,1L291,223l21.88.7,18.82.33H345.4l6.34-.17,1.54-.16,1.54.16,2.72.52,2.23.16,2.23-.16,2.22-.35,2.38-.68,3.08-.51,4.63-.68,8.72-.69,1.36-5.46.87-5.47.5-5.67.17-5.62H214Z" fill="none" stroke="#000" stroke-width="0.33"/><path d="M361,242.38l-2.74.18-2.39.68-3.95.69-9.91.84-10.27.5-4.09-.15-2.74-.35h-2.57l-2.92.86-3.06.68-1.72.17h-2.05l-1.88-.17-1.36.35-1.21.51-1,.68-1.19.69L304,249l-2.39.18-3.42-.18h-3.59l-3.75.51-3.44.86-3.06,1.37-1.2-.51-1.88-.35-2.23-.86-2.05-1.7-11.28,2.23-6.16.68-3.08.16-2.74-.16-2.57-.18h-2.56l-5.47.69-5.49.86-2.55.15-2.23-.15,2.9,3.59,3.26,3.42,3.41,3.24,3.6,3.09,3.77,2.91,3.93,2.56,4.11,2.55,4.28,2.23,4.26,1.88,4.61,1.71,4.46,1.55,4.78,1.19,4.79,1,5,.67,5,.51,5,.17,5.83-.17,5.82-.67,5.47-.86,5.47-1.38,5.29-1.53,5.31-2.05,5-2.23,4.78-2.55,4.62-2.91,4.44-3.07,4.28-3.44,3.93-3.59,3.77-3.93,3.42-4.1,3.26-4.45,3.06-4.46.18-.5-6-.51-6.83-.16" fill="#4f9eff"/><path d="M361,242.38l-2.74.18-2.39.68-3.95.69-9.91.84-10.27.5-4.09-.15-2.74-.35h-2.57l-2.92.86-3.06.68-1.72.17h-2.05l-1.88-.17-1.36.35-1.21.51-1,.68-1.19.69L304,249l-2.39.18-3.42-.18h-3.59l-3.75.51-3.44.86-3.06,1.37-1.2-.51-1.88-.35-2.23-.86-2.05-1.7-11.28,2.23-6.16.68-3.08.16-2.74-.16-2.57-.18h-2.56l-5.47.69-5.49.86-2.55.15-2.23-.15,2.9,3.59,3.26,3.42,3.41,3.24,3.6,3.09,3.77,2.91,3.93,2.56,4.11,2.55,4.28,2.23,4.26,1.88,4.61,1.71,4.46,1.55,4.78,1.19,4.79,1,5,.67,5,.51,5,.17,5.83-.17,5.82-.67,5.47-.86,5.47-1.38,5.29-1.53,5.31-2.05,5-2.23,4.78-2.55,4.62-2.91,4.44-3.07,4.28-3.44,3.93-3.59,3.77-3.93,3.42-4.1,3.26-4.45,3.06-4.46.18-.5-6-.51Z" fill="none" stroke="#000" stroke-width="0.33"/><path d="M253.72,258.81l1.54.86L257,260l2,.18h2.05l3.93-.51,2.23-.51L270,258l1.72-.33,2.55-.35,2.9-.16,2.75-.68,2.38-1,2.41-2,.85-.86v-.68l-.51-.53-.69-.51-2.73-1.52-1.71-1-1.37-1.36-.51-.36h-.51l-1.37.36-.69.35-1.2-.18-2.55-.51-2.74-.17h-5l-5.13.51-1.88.5-1.36.69-2.07,1.54-1.88,1.7-.51,1-.34,1,.18,1.19.67,1.52,1,1.55Z" fill="#efae0e" stroke="#000" stroke-width="0.34"/><path d="M306.43,267.19a5.45,5.45,0,0,0-1.54,2.4,13.72,13.72,0,0,0-.87,5.64C306.43,272.83,310,266.86,306.43,267.19Z" fill="#efae0e" stroke="#000" stroke-width="0.34"/><path d="M289.31,278.83c.86-2.4,2.23-9.77,1.71-13a6,6,0,0,0,0-2.56c-1.36,0-3.41-.17-5.47-.17,1.72,8.73-1.71,13.51-.51,16.93C286.58,281.74,288.46,281.23,289.31,278.83Z" fill="#efae0e" stroke="#000" stroke-width="0.34"/><path d="M297,279a7.08,7.08,0,0,1-3.24,4.11c.85,1.19,1.52,1.69,2.21,1.36a15.81,15.81,0,0,0,3.59-4.27A3.13,3.13,0,0,1,297,279Z" fill="#efae0e" stroke="#000" stroke-width="0.34"/><path d="M296.67,275.06c-2.05-3.75-1.54-7,.51-7.87a8.53,8.53,0,0,0-.35-1.7c-1-2.76-5.47-1-5.81.33.52,3.24-.85,10.61-1.71,13s-2.73,2.89-4.27,1.19c-.35,4.45,5,5,8.73,3.09A7.08,7.08,0,0,0,297,279a5,5,0,0,0,.35-1.71,8,8,0,0,1,.16-.86A12.5,12.5,0,0,1,296.67,275.06Z" fill="#efae0e" stroke="#000" stroke-width="0.34"/><path d="M297.36,269.41a8.61,8.61,0,0,0-.18-2.22c-2.05.86-2.56,4.12-.51,7.87a12.5,12.5,0,0,0,.85,1.37A47.25,47.25,0,0,0,297.36,269.41Z" fill="#efae0e" stroke="#000" stroke-width="0.34"/><path d="M318.23,261.72c-1.54,1-3.08.86-4.12,1.19a9.07,9.07,0,0,1-2.55,4.1,2.13,2.13,0,0,1,.33,2.91c-1.36,2.4-.51,8.21.34,9.75,1,1.54,2.23,1.21,3.42-.33.35-2.23,0-3.25.17-7C316,269.24,317.7,265.31,318.23,261.72Z" fill="#efae0e" stroke="#000" stroke-width="0.34"/><path d="M304.19,277.64a5.11,5.11,0,0,1-2.74,2.2c1,1.72,3.26,4,3.95,4.13,1,.5,1.54.15,2.21-.86A7.64,7.64,0,0,1,304.19,277.64Z" fill="#efae0e" stroke="#000" stroke-width="0.34"/><path d="M304,276.43v-1.2a13.72,13.72,0,0,1,.87-5.64c-1.9-1.7-6.34-1.37-7.53-.18a47.25,47.25,0,0,1,.16,7,8,8,0,0,0-.16.86A5,5,0,0,1,297,279a3.13,3.13,0,0,0,2.56,1.2,8.21,8.21,0,0,0,1.88-.36,5.11,5.11,0,0,0,2.74-2.2C304.19,277.29,304,276.78,304,276.43Z" fill="#efae0e" stroke="#000" stroke-width="0.34"/><path d="M312.23,279.69a18.41,18.41,0,0,1-1-3.77,14.87,14.87,0,0,1,0-2.91,8.42,8.42,0,0,1,.67-3.07,2.12,2.12,0,0,0-.33-2.91,3.82,3.82,0,0,0-3.44-.68,5.57,5.57,0,0,0-1.69.84c3.59-.33,0,5.66-2.41,8v1.2c0,.35.17.86.17,1.21a7.64,7.64,0,0,0,3.42,5.47,6.38,6.38,0,0,0,3.61,1.19c2.55,0,4.43-1.7,4.43-5C314.46,280.88,313.26,281.23,312.23,279.69Z" fill="#efae0e" stroke="#000" stroke-width="0.34"/><path d="M377.76,225.45l.68-.33.51-.69.16-.68v-.7l-.5-.84-.69-.51-.67-.18h-.69l-1.38.86-.34.51.18.86.34.84.51.7.85.16h1Z" fill="#de1c2c" stroke="#000" stroke-width="0.34"/><polygon points="354.31 245.29 355.18 245.12 355.87 244.79 356.2 244.28 356.38 243.42 356.38 242.56 355.87 241.89 355.18 241.37 354.5 241.19 352.95 241.54 352.62 242.05 352.26 242.91 352.26 243.77 352.62 244.45 353.3 245.12 354.31 245.29" fill="#de1c2c" stroke="#000" stroke-width="0.34"/><polygon points="344.39 169 344.39 170.02 345.6 170.02 346.29 169.84 346.44 169 344.39 169" fill="none" stroke="#000" stroke-width="0.34"/><polygon points="344.39 180.8 342 206.47 345.08 206.47 345.43 180.8 344.39 180.8" fill="none" stroke="#000" stroke-width="0.34"/><polygon points="345.43 177.89 341.83 177.89 341.67 179.26 344.39 180.8 345.43 180.8 347.48 179.08 347.48 177.89 345.43 177.89" fill="none" stroke="#000" stroke-width="0.34"/><path d="M345.6,170l-.85,7.87h.67Z" fill="#9e4d3c" stroke="#000" stroke-width="0.34"/><path d="M344.39,180.8,342,206.47h3.08l.33-25.67Z" fill="#9e4d3c" stroke="#000" stroke-width="0.33"/><path d="M345.42,177.89h-3.59l-.16,1.37,2.72,1.54h1l2.05-1.72v-1.19Z" fill="#9e4d3c" stroke="#000" stroke-width="0.33"/><path d="M344.39,169v1h1.21l.69-.18.16-.84Z" fill="#9e4d3c" stroke="#000" stroke-width="0.34"/><path d="M322.85,145.21l-1.71,14,1,.17Z" fill="#9e4d3c" stroke="#000" stroke-width="0.34"/><path d="M322,162.15h-1l-1,7.36h1.54Z" fill="#9e4d3c" stroke="#000" stroke-width="0.34"/><path d="M325.24,169.69l-3.77-.18h-1.54l-2.57-.17.7,3.59h3.25l4.09-.18Z" fill="#9e4d3c" stroke="#000" stroke-width="0.33"/><path d="M322,162.15l1.88.17.35-2.73-2-.18-1-.15h-1.37L319.6,162l1.36.18Z" fill="#9e4d3c" stroke="#000" stroke-width="0.33"/><path d="M270.15,204.57l1.88.35,2.23.51,2.23-30.63-2.07-.33Z" fill="#9e4d3c" stroke="#000" stroke-width="0.33"/><path d="M278.37,146.93l-2.06,15.22,1,.17Z" fill="#9e4d3c" stroke="#000" stroke-width="0.34"/><path d="M276,164.55l-1.21,7.52h1.88l.51-7.52Z" fill="#9e4d3c" stroke="#000" stroke-width="0.34"/><path d="M277.34,162.32l-1-.17H274.6l.17,2.23,1.21.17h1.18l1.72.33.16-2.56Z" fill="#9e4d3c" stroke="#000" stroke-width="0.33"/><path d="M274.77,172.07l-2.74-.16v2.39l2.39.17,2.05.33,1.72.18.16-2.73-1.7-.18Z" fill="#9e4d3c" stroke="#000" stroke-width="0.33"/><path d="M353.3,190.55l.34-1.19-1.54.17-1.37.51-2.39,1.54L346.11,193l-1,.51-1,.15-.34,1.39,1-.18,1.19-.5,2.41-1.37,2.38-1.54,1.37-.51,1.2-.35" fill="#de1c2c"/><path d="M354,187.64c-3.24.17-6.83,3.43-9.4,3.77-.18.68-.35,1.36-.51,2.22,2.57,0,5.65-4.1,9.58-4.27A5.42,5.42,0,0,1,354,187.64Zm-.67,2.91c.16-.34.16-.84.34-1.19-3.93.17-7,4.27-9.58,4.27a5.76,5.76,0,0,1-.34,1.37C346.45,195.18,349.88,190.9,353.3,190.55Zm0,0c-3.42.35-6.85,4.63-9.58,4.45a12.19,12.19,0,0,1-.35,1.37c3.77-.18,6.67-4,9.93-4.46Zm-2.92,5.64c2.74-1.7,8.05-2.22,11-.51l.51-1.54c-2.92-1.87-8.39-1.19-11.29.35-1.55,1-5.14,3.42-7.53,3.42a6.06,6.06,0,0,0-.69,1.88c2.41.35,6.34-2.74,8-3.58Zm2.92-4.1c2.72-.86,7.17-.68,9.06.18l2.06-6.68c-2.41-1.7-6.5-1-9.76,0a22,22,0,0,0-1.36,6.32Zm0-.18v0Z" fill="none" stroke="#000" stroke-width="0.34"/><path d="M354,187.64l-2.39.68L349,189.53l-2.38,1.19-2.06.69-.51,2.22,1-.17,1-.51,2.23-1.37,2.39-1.54,1.37-.51,1.54-.17.33-1.72" fill="#fff"/><path d="M354,187.64l-2.39.68L349,189.53l-2.38,1.19-2.06.69-.51,2.22,1-.17,1-.51,2.23-1.37,2.39-1.54,1.37-.51,1.54-.17Z" fill="none" stroke="#000" stroke-width="0.33"/><path d="M354.66,185.59l-2.9,1.21-3.42,1.7-1.89.68-1.88.51v1.72l2.06-.69,2.38-1.19,2.57-1.21,1.21-.51,1.18-.17.69-2" fill="#de1c2c"/><path d="M354.66,185.59a8.87,8.87,0,0,0-2.9,1.21c-2.41,1.19-4.46,2.38-7.19,2.89v1.72c2.57-.34,6.16-3.6,9.4-3.77C354.15,187,354.5,186.27,354.66,185.59Z" fill="none" stroke="#000" stroke-width="0.34"/><path d="M353.3,190.55l-1.2.35-1.37.51L348.34,193l-2.41,1.37-1.18.5-1,.18-.33,1.37,1.36-.18,1.36-.51,2.41-1.36,2.37-1.55,1.21-.5,1.2-.36v-1.36" fill="#fff"/><path d="M353.3,190.55l-1.2.35-1.37.51L348.34,193l-2.41,1.37-1.18.5-1,.18-.33,1.37,1.36-.18,1.36-.51,2.41-1.36,2.37-1.55,1.21-.5,1.2-.36Z" fill="none" stroke="#000" stroke-width="0.33"/><path d="M350.38,196.19l-3.75,2.23-2.24,1-1,.34h-1l-.33,1.54h1.71l1.88-.51,1.87-.86,1.54-1,1.37-1,1.38-.68,1.36-.51,1.54-.18,3.08.18,3.08.68.5-1.72-1.19-.68-1.36-.16-2.9-.17-3.08.51-2.41,1" fill="#de1c2c"/><path d="M350.38,196.19c-1.7.86-5.63,3.95-8,3.6a5.07,5.07,0,0,1-.33,1.54c1.87.51,5.46-.86,7-2.4,3.26-2.89,8-2.89,11.81-1.55l.52-1.7C358.43,194,353.12,194.49,350.38,196.19Z" fill="none" stroke="#000" stroke-width="0.34"/><path d="M350.38,196.19l2.41-1,3.08-.51,2.9.15,1.36.18,1.19.68.51-1.54-1.19-.51-1.38-.5L356.2,193l-3.08.51-2.56,1-3.42,2-2.23,1-1.88.33-.69,1.88h1l1-.34,2.24-1,3.75-2.21" fill="#fff"/><path d="M350.38,196.19l2.41-1,3.08-.51,2.9.15,1.36.18,1.19.68.51-1.54-1.19-.51-1.38-.5L356.2,193l-3.08.51-2.56,1-3.42,2-2.23,1-1.88.33-.69,1.88h1l1-.34,2.24-1,3.75-2.21Z" fill="none" stroke="#000" stroke-width="0.33"/><path d="M361.85,194.14l.51-1.87-1.89-.51-2.39-.18-2.57.18-2.21.33v-.18l-2.41.86-2.39,1.55-2.39,1.36-1.36.51-1.38.18-.34,1.54,1.88-.35,2.23-1,3.42-2,2.56-1,3.08-.51,3.08.18,1.36.5,1.21.51" fill="#de1c2c"/><path d="M361.85,194.14l.51-1.87c-1.89-.86-6.34-1-9.06-.18v-.18c-3.26.51-6.16,4.3-9.93,4.46a5.19,5.19,0,0,0-.34,1.54c2.39,0,6-2.4,7.53-3.42C353.46,193,358.93,192.27,361.85,194.14Z" fill="none" stroke="#000" stroke-width="0.34"/><path d="M353.3,192.09l2.21-.33,2.57-.18,2.39.18,1.89.51,2-6.68-1-.51-1-.33-2.56-.18-2.57.33-2.57.69-1,3.26-.34,3.06v.18" fill="#002a86"/><path d="M353.3,192.09l2.21-.33,2.57-.18,2.39.18,1.89.51,2-6.68-1-.51-1-.33-2.56-.18-2.57.33-2.57.69-1,3.26-.34,3.06Z" fill="none" stroke="#000" stroke-width="0.33"/><path d="M364.42,185.59l-3.6,11.79-2.9,9.42c.67,0,1.18.17,1.7.17l5.31-23.26ZM282.47,206.8,278.19,175m1.88,31.31L277.85,175m47.91,31.49-1.37-33.72M328,206.47l-3.42-33.72M334,206.47l-8.57-33.72,4.28,33.72m-7.18,5.11.51-38.65m-1,0-1.87,38.5m-42.95-13.19,4.29.86m-4.29,2.05,4.8.86m-4.8,1.54,5.14,1.2M277,174.8V206m48.58.51,7.52-3.42m-7.52.86,7-2.76m-7,.51,6.49-2m-6.67.51,6.16-2.56m-14.2,9h5.32m-5-2.38,5,.17m-4.8-2.22,4.8.17m-4.62-2.07,4.62.18" fill="none" stroke="#000" stroke-width="0.34"/><path d="M317,211.25l3.59-38.32" fill="#9e4d3c"/><path d="M317,211.25l3.59-38.32" fill="none" stroke="#000" stroke-width="0.34"/><polygon points="319.6 172.93 314.98 211.07 317.7 211.43 319.07 211.43 321.31 172.93 319.6 172.93" fill="#9e4d3c" stroke="#000" stroke-width="0.34"/><polyline points="246.54 206.8 231.84 192.95 246.54 208.69" fill="#9e4d3c" stroke="#000" stroke-width="0.34"/><path d="M252.7,208.69l.85-.53.53-.84v-1l-.36-1-1-1-1.7-1-2.05-.68-2.23-.51-.18,3.07v3.61h6.16Z" fill="#efae0e" stroke="#000" stroke-width="0.33"/><path d="M347,229.55l-.16,1.72v1.87l.5,1.72,1.2,1.7-87.59-8.2L257,228l-2.56-6.68-1.54-3.6L251,214.16,249,211.07l-1.19-1.36-1.2-1h6.16l.85-.51.51-.86v-1l-.35-1-1-1-1.72-1-2.05-.68-2.23-.51v-.68l-7.35-3.42-4.11-2.23-3.41-2.56,5.47,2.23,9.4,3.07,11.47,3.26,12,2.91,1.88.33,2.21.51L295,208.54l20,2.55,2.74.34h1.36l7.19.17-.16-3.75h-.87v-1.38h21.05l.16-1.37,5.65,1,5.82.69,1.72.15,3.08.18L361,208l-.51.68-.52.86-.51,1.88-.16,2v1.89l.34,1.88-1.88.15-1.71.35-1,3.07-1.36,2.91v.35h-1.88l-1.38.35-1.19.51-1,.84L347,229.55Z" fill="#9e4d3c" stroke="#000" stroke-width="0.33"/><path d="M255.09,211.76c7.54,4.78,22.59,7,31,7.69,15.38,1.37,37.63,1.88,51.49,1a10.21,10.21,0,0,1,0,2.21c-11.63.85-42.78-.51-47.56-.84C285.2,221.33,265.53,219.8,255.09,211.76Z" fill="#de1c2c" stroke="#000" stroke-width="0.34"/><path d="M246,245.47a2,2,0,0,1-2.22-1.9c0-1,1-2.38,1.88-2.2,1.36.15,2.23.33,2.39,1.52A2.3,2.3,0,0,1,246,245.47Z" fill="#de1c2c" stroke="#000" stroke-width="0.34"/><path d="M366.47,221a2,2,0,0,0,1.36-2.56c-.33-1-1.7-1.9-2.57-1.37-1.2.51-1.87.86-1.54,2.23A2.09,2.09,0,0,0,366.47,221Z" fill="#de1c2c" stroke="#000" stroke-width="0.34"/><path d="M236.8,253.52l-.69-.18-.69-.35-.51-.69-.16-.68.16-.84.35-.7.67-.51.7-.16,1.54.34.51.52.16.67v.86l-.34.86-.67.5Z" fill="#de1c2c" stroke="#000" stroke-width="0.34"/><path d="M233.88,221a1.86,1.86,0,0,1-1.36-2.39c.33-1,1.7-1.87,2.57-1.36,1.2.5,1.87.84,1.54,2.2A1.93,1.93,0,0,1,233.88,221Z" fill="#de1c2c" stroke="#000" stroke-width="0.34"/><path d="M259,273.18a1.79,1.79,0,0,1-2.57-.68c-.51-1-.18-2.56.69-2.91,1.36-.35,2-.51,2.73.51A2,2,0,0,1,259,273.18Z" fill="#de1c2c" stroke="#000" stroke-width="0.34"/><path d="M264,262.23a1.94,1.94,0,0,1-2.56-.84c-.52-1-.18-2.58.69-2.76,1.2-.5,2.05-.68,2.74.35A2.24,2.24,0,0,1,264,262.23Z" fill="#de1c2c" stroke="#000" stroke-width="0.34"/><path d="M336.36,262.05a2,2,0,0,0,2.57-.86c.49-1,.15-2.56-.68-2.71-1.38-.53-2.07-.69-2.74.5A1.92,1.92,0,0,0,336.36,262.05Z" fill="#de1c2c" stroke="#000" stroke-width="0.34"/><path d="M341.31,273.18a2,2,0,0,0,2.57-.86c.51-1,.18-2.55-.67-2.73-1.38-.51-2.07-.68-2.74.33A2.13,2.13,0,0,0,341.31,273.18Z" fill="#de1c2c" stroke="#000" stroke-width="0.34"/><path d="M363.55,253.34a1.92,1.92,0,0,0,2.05-1.89c0-1-1-2.39-1.88-2.21-1.36.15-2.05.33-2.21,1.52A2.1,2.1,0,0,0,363.55,253.34Z" fill="#de1c2c" stroke="#000" stroke-width="0.34"/><path d="M333.1,207.83v3.93c1.9,0,3.77.17,5.49.17V208Z" fill="#fff" stroke="#000" stroke-width="0.34"/><path d="M326.43,207.83l.17,3.75c1.88.18,4.11.18,6.16.18v-3.93Z" fill="#fff" stroke="#000" stroke-width="0.34"/><path d="M346.29,208h-7.36v3.92h7.36Z" fill="#fff" stroke="#000" stroke-width="0.34"/><path d="M255.62,203.05a27.47,27.47,0,0,1,.51,5.11,18.2,18.2,0,0,0,4.78,1.55v-5A46.81,46.81,0,0,1,255.62,203.05Z" fill="#fff" stroke="#000" stroke-width="0.34"/><path d="M271.34,207.32l-.16,4.79c2.63.51,4.11.64,5.13.84v-4.61C274.6,208,273.06,207.66,271.34,207.32Z" fill="#fff" stroke="#000" stroke-width="0.34"/><path d="M263.66,205.61l-.18,4.78c1.72.51,4.17,1.6,5.87,2l-.56-5.54C267.07,206.47,265.36,205.94,263.66,205.61Z" fill="#fff" stroke="#000" stroke-width="0.34"/><path d="M325.06,213.3l.18,3.59a42.44,42.44,0,0,1,4.78.18l-.16-3.59A41.22,41.22,0,0,0,325.06,213.3Z" fill="#fff" stroke="#000" stroke-width="0.34"/><path d="M317.54,213v3.77c1.72,0,3.42.15,5.14.15l.17-3.76C321,213.13,319.26,213,317.54,213Z" fill="#fff" stroke="#000" stroke-width="0.34"/><path d="M332.76,213.48l.18,3.59h4.78v-3.59Z" fill="#fff" stroke="#000" stroke-width="0.34"/><path d="M309.84,212.44v3.95c2.57,0,4,.15,5.31.15v-3.75C313.26,212.62,311.56,212.44,309.84,212.44Z" fill="#fff" stroke="#000" stroke-width="0.34"/><path d="M343.88,213.48h-3.41l.17,3.41h3.08C343.72,215.88,343.88,214.49,343.88,213.48Z" fill="#fff" stroke="#000" stroke-width="0.34"/><path d="M286.58,209.88l.16,4.46c2.77.23,4.15.39,5.13.5l.16-4.1C290.33,210.39,288.46,210.23,286.58,209.88Z" fill="#fff" stroke="#000" stroke-width="0.34"/><path d="M279,208.87v4.43a39.14,39.14,0,0,0,5.13.68v-4.45C282.47,209.38,280.76,209,279,208.87Z" fill="#fff" stroke="#000" stroke-width="0.34"/><path d="M301.63,211.76l.17,4.1a51.63,51.63,0,0,0,5.65.35v-3.92Z" fill="#fff" stroke="#000" stroke-width="0.34"/><path d="M294.62,211.07l-.18-.15v4.28h.18c2.27.27,3.46.39,4.44.5l.18-4.27A43.25,43.25,0,0,0,294.62,211.07Z" fill="#fff" stroke="#000" stroke-width="0.34"/><path d="M349.71,209l-.36,5,1.21.18.17-5.14h-1" fill="#fff"/><path d="M349.71,209l-.36,5,1.21.18.17-5.14Z" fill="none" stroke="#000" stroke-width="0.34"/><path d="M356.54,209.53h-.85l-.18,5,.87.18.16-5.14" fill="#fff"/><path d="M356.54,209.53h-.85l-.18,5,.87.18Z" fill="none" stroke="#000" stroke-width="0.34"/><path d="M351.92,209.2l-.16,5,.85.18V209.2h-.69" fill="#fff"/><path d="M351.92,209.2l-.16,5,.85.18V209.2Z" fill="none" stroke="#000" stroke-width="0.34"/><path d="M353.81,209.38l-.17,5,.86.15.16-5.11h-.85" fill="#fff"/><path d="M353.81,209.38l-.17,5,.86.15.16-5.11Z" fill="none" stroke="#000" stroke-width="0.34"/><path d="M268.61,227.85c1.37.18,2.91.51,5,.69l.18-3.27a43,43,0,0,1-5-.33C268.79,225.63,268.61,226.64,268.61,227.85Z" fill="#fff" stroke="#000" stroke-width="0.34"/><path d="M314.8,232.46c1.2.18,2.39.18,3.59.35l.18-4.45a28.58,28.58,0,0,1-3.93-.18Z" fill="#fff" stroke="#000" stroke-width="0.34"/><path d="M325.58,233.5c1.54.15,3.08.15,4.62.35A37,37,0,0,0,330,229c-1.54,0-3.08-.17-4.62-.17Z" fill="#fff" stroke="#000" stroke-width="0.34"/><path d="M303,231.27c1,.18,3.95.33,4.11.33v-3.75a33.39,33.39,0,0,0-4.27-.35Z" fill="#fff" stroke="#000" stroke-width="0.34"/><path d="M279.39,229.22c1.7.17,3.6.33,5.65.51v-3.42l-5.65-.51Z" fill="#fff" stroke="#000" stroke-width="0.34"/><path d="M291.54,230.23c1.36.18,2.9.36,4.44.53V227a40,40,0,0,1-4.44-.35Z" fill="#fff" stroke="#000" stroke-width="0.34"/><path d="M346.11,241.52s-3.59-15.56-3.93-17.09,1-2.73,1.88-.52c.69,2.05,6.5,17.61,6.5,17.61Z" fill="#fff" stroke="#000" stroke-width="0.34"/><path d="M333.44,240.84s-2.39-14.53-2.73-16.07,1-3.77,1.88-.34c1,3.25,5.31,16.76,5.31,16.76Z" fill="#fff" stroke="#000" stroke-width="0.34"/><path d="M322,240.16s-2.38-16.08-2.72-17.27.67-1.89,1.36-.18c.52,1.72,4.78,17.45,4.78,17.45Z" fill="#fff" stroke="#000" stroke-width="0.34"/><path d="M309.66,240s.52-16.76.52-17.77c-.16-1,1.2-1.55,1.38,0,.16,1.36,1.7,17.61,1.7,17.61Z" fill="#fff" stroke="#000" stroke-width="0.34"/><path d="M297.7,239.14s1-16.78,1-17.62c-.17-.86,1.19-1.89,1.37,0s1.54,17.62,1.54,17.62Z" fill="#fff" stroke="#000" stroke-width="0.34"/><path d="M284.69,239s3.77-16.94,3.94-18,1-1,1,0c0,1.21-.49,18.14-.49,18.14Z" fill="#fff" stroke="#000" stroke-width="0.34"/><path d="M272,237.07s4.28-13.85,4.46-15a1.05,1.05,0,0,1,2,.51c0,1.37-2.91,14.88-2.91,14.88Z" fill="#fff" stroke="#000" stroke-width="0.34"/><path d="M258.52,236.05s7.19-13.16,7.86-14.53c.69-1.54,2.06-1,1.54.18-.67,1-6.14,14.35-6.14,14.35Z" fill="#fff" stroke="#000" stroke-width="0.34"/><path d="M291.54,130l3.24-2.38,2.74-1.7-1.88-1-1.87-.5-4.11-.18,1.36-1,1.21-1.54.85-1.7.33-1.72-2.56.18-2.57.86-2.21,1.35-1,.7-.69,1-2.55,3.25L278.21,129l.85-2.24.51-1.19.16-1.19-.16-.36-.18-.15h-.33l-.18.35-1,2.21-1.72,2.05L273.93,130l-2.22,1-6.51,2.75-6.5,3.42-.51-.71-.16-.84.34-.68.69-.68,1.18-.33h1.36l1.54-.36,1.88-.86,2.23-1.36,2.23-1.55,2.06-1.87,1.54-2,.85-2.23v-1l-.18-1-.5.86-.69.68-1.89,1-2.39.66-2.9.35-1.9.34-1.88.68-1.53,1-1.37,1.36-1,1.53-.67,1.72-.36,1.71.18,2,.35,2.56-4.79,3.42.17-2.73-.35-2.41-.69-1h-.16v2.38l-.18,1.9-.67,2.22-.85,2.05-3.43,3.25-3.08,3.59-3.08,3.93-2.73,4.1-.69-.51-.34-.51V157l.34-.84,1-.7,1-.67,1.37-1,1.38-1.54,1.54-2,1.2-2.39,1-2.56.67-2.57-.16-2.23-.51-1-.51-1-.5,2-1.2,1.7-1.9,1.54-2.56,1.54-1.53,1.2-1.36,1.36-1,1.7-.5,1.72-.35,1.72v1.87l.51,1.88,1,1.54,1.18,2.05-2.37,4.61-.85-2.2L232,161.13l-1-.68-.16.16.33.68,1,2.75.68,3.75L231,172.07l-1.54,4.79-1.19,5-1,5.47-.86-.16-.5-.35-.33-.86.16-.84.5-1,.86-1.19.68-1.19.86-2,.52-2.56.33-2.58v-2.73l-.33-2.56-1-2.07-.67-.84-1-.68.35,1v1l-.5,2.05-1.2,2.22-1.72,2.39-1,1.54-.69,1.87-.34,1.72v1.88l.34,1.89.85,1.7,1,1.37,1.54,1.19L227.1,189l-.53,4.46-1.87-2.05-2.06-1.21-1.19-.34-.17.34.67.5,1,.86,1.19,1.55,1.21,1.71,1,2.06v4.94l.35,5,.51,5.31.85,5.14-.85.15-.51-.15-.67-.71-.18-.84.18-2.22.15-1.37-.15-1.88-.51-2.4-.86-2.4-1-2.38L222.31,201l-1.71-1.55-1-.5-.85-.36,1,1.72.34,1.9-.17,2.2-.35,2.56-.17,1.72.17,1.72.35,1.7.86,1.72,1,1.37,1.38,1.19,1.54,1,1.7.69,1.89.52,1.53,6-2.56-1-2.4-.35-1.19.35v.16l.86.35,1.19.35,1.71.67,1.71,1,1.71,1.37,3.25,7.85,2.22,4.3,2.4,4.1-.69.51-.69.17-.67-.35-.51-.86-.34-1.19-.18-1.37-.33-1.54-.87-1.87L233.26,235l-1.56-2.23-1.87-2-2.05-1.56-2.05-.84-1.19-.18-1,.18.85.68.69.69,1,1.87.68,2.39.18,2.91.33,1.89.85,1.7L229,242l1.37,1.37,1.54,1.19,1.71.68,1.72.36,2-.18,2.23-.35,3.6,5h-2.75l-2.21.35-1,.68.16.34.87-.16h1.19l1.71.16,4.11,1,5.31,5.82,2.9,2.56,3.24,2.56-.51.51-.51.17-1-.17-1-.84-1-1.21-.7-1.37-.67-1.19-1.2-1.19-1.72-1-2.05-.66-2.23-.53-2.37-.18-2.23.36-2.06.85,1.88.16,1.72.35.69.35.67.51.69.84.51,1.37.85,1.54,1.19,1.54,1.54,1,1.71.68,1.88.51,1.72.18,1.89-.18,1.52-.68,2.06-.86,5.13,3.44-2.23,1-1.7,1.19-.69,1,.16.33.87-.51,2.39-1,3.59-.69,4.28,2.05,4.62,1.7,5,1.55,5.13,1.19-.17.68-.52.7-.85.16-.85-.16-1-.52-1-.86-1.36-.84-2-.7-2.41-.67-2.73-.51h-2.74l-2.57.34-2,.84-.85.7-.51,1,.85-.33h1l2.05.69,2.24,1.19,2.21,1.72,1.71,1.19,1.72.68,1.88.33h1.89L280,281l1.72-.84,1.52-1,1.2-1.52,1-1.21.69-.51,3.75.35.69-2.91-3.94-.68.51-1.88.18-1-.18-1-1.36-2.2-2.39-2.23-1.37-1-1.54-.68-1.54-.53-1.71-.15-1.19-.18-1.2-.51-2.39-1.37-2.23-1.36-1-.35-1-.34,1.2,2.39.85,2.4.51,1.7.87,1.37,1.18,1.36,1.54,1,1.88.86,1.88.51,2.23.17h2.23l1.18.16.87.68.67,1,.34,1-4.78-1-5-1.55L271.05,268l-4.62-2.23-1-1.37-.69-1.19-.69-2.07-.34-1-.33-.34-.18.34v1l.69,3.26-4.28-2.55,1.54-1.72.51-.86.35-1.37-.17-2.56-1.21-2.91-.85-1.37-1-1.36-1.35-1.19-1.38-.86-1-.69-1-.86-1.54-2.2-1.38-2-.85-.86-.85-.71.16,2.58-.34,2.56-.16,1.72.16,1.7.69,1.72.85,1.54,1.38,1.52,1.52,1.19,1.9,1.22,2,.85,1,.86.51,1.2.18,1.19-.34,1.19-6.16-4.61-2.92-2.58-2.74-2.73-.67-2.23-.34-2,.16-1.54.18-1.22v-.85l-.18-.51-.34.17-.35,1-.5,2.21-.17,2.4-3.76-5.12.85-.7,1.21-.67,1.18-.86.85-1.38.34-1.17v-1.39l-.34-3.24L244,231.23l-.85-1.37L242,228.67l-.85-1-.51-1-1-2.56-.86-2.4-.5-1-.51-.85-.69,2.55-.85,2.23-.69,1.7-.16,1.72v1.72l.51,1.87.85,1.72,1.21,1.7,1.54,1.54,1.7,1.37.51.68.33.69.18,1.54-.51,1.37-1,.84-2.21-3.75-2-3.95-1.72-4.1L233.1,227v-2.2l.34-1.9.69-1.54.51-1,.34-.86v-.5h-.34l-.69.86-1.19,1.71-.85,1.88-1.38-5.31,2.06-.34,1.2-.17.85-.68,1.2-1.88.5-2.73v-3.09l-.5-1.54-.51-1.53-.51-1-.36-1.19V199.1l-.51-2-1.19,1.88-1.54,1.54-1,1-.69,1.37-.35,1.39v1.7l.18,1.72.5,1.87.86,2.05,1.2,1.88.33,1.19-.16,1.21-.69.86-.85.66L229.35,210l-.68-7.36.17-7,.51-6.83,2.38.51h1.37l1.36-.34,1-.68,1-1,1.9-2.56.67-1.37.69-1.7.16-1.54V177l.34-1.19,1-2.4,1-2.39.36-1.21.15-1-2.21,1.54-2.23,1-1.7.86-1.38,1-1,1.37-.85,1.72-.51,1.87-.33,2.05v2l.33,2.41v.68l-.16.68-.85,1-1.21.86-1.19.17.69-4.45,1-4.45,1.38-4.61,1.52-4.45,2-1.7,1.72-1.19,1.54-.69,1.36-.35.87-.16.33-.35-.17-.15-1.19-.2-2.74.53-2.39,1,2.9-5.8,1.2.34,1,.85,1.19.69,1.54.15,2.56-.86,2.73-1.52,1.2-1.19,1.21-1.37.84-1.36.52-1.55.51-1.21.67-1,1.9-1.88,1.87-1.89.69-.84.5-1-2.55.69-2.41.17h-1.87l-1.54.51-1.54,1L247.1,151l-1.19,1.52-1,1.72-.68,2.05-.53,2.22-.33.69-.52.68-1.18.69-1.54.17-1.21-.53,2.57-4.1,2.75-3.77,3.08-3.57,3.39-3.26,2.41-.86,2.05-.16h1.54l1.37.33h1.36l-.16-.33-1-.51-2.38-.68-2.41-.18,5.29-3.77.69.86.69,1.2.85,1.19,1.38.7,1.18.33,1.39.18,3.06-.51,3.26-1.21,1.36-.86,1.2-1.19.85-.86,1.2-.67,2.39-1,2.57-.86,1-.51.85-.51-2.57-.5-2.39-1-1.7-.51-1.72-.33-1.71.16-1.72.53-1.88.84L267.47,136l-1.54,1.52-1.54,1.89-.51.51-.69.33h-1.54l-1.36-.33-.85-.86,4.28-2.56,4.43-2.22,4.61-1.88,5.14-1.54V130l2.23.86,2.05.51,2,.33h1.89l3.26-.66,2.21-1Z" fill="#3f863f" stroke="#000" stroke-width="0.33"/><path d="M313.77,272.5l-2.55.51v3.08l2.89-.52.86.68.85,1.37,1.37,1.38,1.54,1.2,1.71.68,1.7.33L324,281l1.87-.34,1.72-.68,1.7-1.19,2.23-1.72,2.23-1.19,2-.69,1.88.34-.51-.84-.87-.86-2.21-.86-2.41-.33H329l-2.74.5-2.57.69-1.87.68-1.37.86-1,.84-1,.7-1,.16-.67-.35-.51-.67-.34-.86,5.12-1,4.8-1.52,4.6-1.72,4.28-2,3.77.68,2.57,1,.69.52.16-.17-.52-1.19-1.87-1.22-2.39-1,5.29-3.42,2.23,1,1.54.5,1.72.18,1.88-.18,1.87-.33,1.72-.86,1.52-1,1.2-1.37.85-1.72.52-1.37.69-.84.67-.52.69-.33,1.72-.36,1.87-.15-2-.86-2.39-.35-2.23.17-2.23.51-2,.86-1.71.84-1.21,1.21-.67,1.19-.67,1.37-1,1.21-1,.84-1,.18-.69-.18-.51-.68,3.08-2.39,2.9-2.56,5.31-5.66,2.05-.66,2-.53,1.89-.18,1.36.18h.87l.16-.33-1-.69-2.38-.33h-2.91l3.58-5,2.58.33,1.88.18,1.88-.35,1.71-.69,1.52-1,1.21-1.39,1-1.7.69-1.7.34-1.89.34-2.89.69-2.4,1-1.88.67-.7.85-.67-1-.17-1.19.17-2.05.84-2.05,1.55-1.88,2-1.54,2.22-1.36,2.21-.69,2.07-.34,1.37-.16,1.36-.35,1.2-.52.86-.67.33-.87-.16-.67-.53,2.39-4.25,2.23-4.13,1.88-3.92,1.54-3.93,1.7-1.19L373,225l1.53-.68,1.37-.33.69-.36v-.15l-1.21-.35-2.21.35-2.56,1,1.52-6L374,218l1.7-.68,1.54-.86,1.38-1.35,1-1.37.69-1.72.51-1.7.16-1.72-.16-1.71-.51-2.56v-2.23l.34-1.87,1-1.72-1,.35-.85.51-1.72,1.54-1.36,2-1,2.38-.85,2.41-.51,2.38-.16,1.89.16,1.37.17,1.19v1l-.35.84-.51.68-.67.18-.69-.18.86-5.12.5-5.31.35-5-.17-5,1-2.05L376,193l1.2-1.54,1-.86.69-.51v-.18l-1.21.18-2.05,1.37-2.05,1.87-.34-4.43,2.05-1.37,1.37-1.21,1.2-1.52.69-1.72.5-1.88v-1.72l-.34-1.87-.69-1.88-1-1.54-1.72-2.4-1.2-2.23-.51-2,.35-2.07-1,.68-.69.86-1,2-.5,2.56v2.76l.5,2.73.53,2.38.67,2.05.85,1.37.87,1,.49,1,.18,1-.34.7L374,187l-.85.18-1-5.31-1.21-5.12L369.37,172l-1.87-4.27.67-3.77.87-2.74.51-.68-.18-.18-1,.69-1.19,1.71-.87,2.06-2.39-4.63,1.19-1.88,1-1.72.5-1.87V153l-.34-1.9-.69-1.71-1-1.7-1.2-1.37-1.54-1-2.57-1.72L357.41,142l-1.19-1.7-.35-.86-.18-1-.67.84-.34,1-.17,2.21.51,2.58,1,2.56,1.38,2.4,1.54,2.05,1.36,1.52,1.2,1,1.21.68.85.69.51.85v.86l-.35.67-.67.35-2.75-4.1-3.08-3.95L354,147.3l-3.26-3.41-.84-2-.7-2.23-.33-1.88.16-1.54v-.68l-.34-.16-.69,1-.16,2.4v2.89l-4.78-3.59.34-2.56.16-1.88-.16-1.89-.69-1.7-1.19-1.54-1.2-1.37-1.7-1-1.72-.68-1.87-.35-2.92-.33-2.39-.69-1.88-1-.69-.71-.51-.84-.16,1v1l.85,2.23,1.54,2,2.05,1.88,2.21,1.54,2.23,1.37,1.88.84,1.54.35,1.38.17,1,.34.87.5.33.69-.17.86-.68.86-6.33-3.6-6.5-2.73-2.23-1-2.23-1.54-1.7-2-.67-1-.34-1-.17-.53H321l-.16.18-.18.35.18,1.19.34,1.19,1,2.23-3.59-3.42-2.74-3.26-.67-.84-.87-.86-2.21-1.37-2.75-.86-1.2-.15-1.17.15.34,1.55.83,1.69,1.2,1.55,1.21,1-3.95.35-1.88.36-1.88,1,2.75,1.72,3.24,2.38,2.05,1,1.54.51,1.72.15h2.05l2.06-.33,2-.51,2.23-.86v1l5.13,1.54,4.62,1.72,4.45,2.21,4.28,2.58-.85.84-1.54.52-1.38-.17-.69-.35-.67-.51-1.37-1.88L333,135.84l-1.72-1.19-1.7-.86-1.72-.51-1.87-.17-1.72.35-1.54.51-2.39,1-2.57.53.85.68,1,.51,2.39.86,2.58.86,1,.66,1,.86,1.2,1.19,1.36.86,1.54.86,1.54.51,3.26.35,2.55-.35,1.38-.86.85-1.19.67-1,.69-1L347,143l-2.41.33-2.39.51-1,.51-.16.35.34.17,1-.17,1.19-.35h1.71l2.06.35,2.39.68,3.43,3.24,3.08,3.6,2.73,3.94,2.56,3.93-1.2.51-1.54-.18-1.36-.66-.34-.69-.35-.68-.5-2.23-.87-2.05-1-1.72-1.19-1.54-1.36-1.19-1.54-.86-1.54-.51-1.89-.16-2.57-.17-2.55-.51.5.86.86.84,1.88,1.87,1.72,1.9.85,1,.35,1.21.67,1.52.85,1.54,1,1.21,1.36,1.18,2.75,1.71,2.38.69,1.54-.16,1.37-.7,1-.67,1-.5,2.9,5.8-2.39-.86-2.56-.51h-1.19l-.35.18.35.33,1,.35,1.2.16,1.72.68,1.7,1.21,1.89,1.7,1.7,4.45L369,179.1l1.2,4.45.67,4.46-1.2-.18-1.19-.68-1-1.19-.18-.69v-.68l.35-2.4.16-2.05-.33-2-.52-1.88-.85-1.72-1.2-1.36-1.2-1-1.7-.86-2.23-1-2.23-1.52.19,1,.34,1.21,1,2.38,1,2.4.34,1.37v1.19l-.16,1.7.33,1.56.52,1.7.85,1.55,1.89,2.55,1,.86,1,.69,1.36.33h1.36l1.2-.33,1.19-.18.51,6.84v7l-.51,7.36-1.19,7.35-.86-.69-.67-.84-.18-1.21.35-1.19,1.19-1.87.85-1.9.51-1.87.18-1.88v-1.72l-.52-1.37-.69-1.36-1-1-1.37-1.54-1.38-1.88-.33,2v2.4l-.18,2.4-.18,1.19-.51,1-.67,1.52-.34,1.54-.16,3.09.68,2.71,1,1.9,1,.68,1,.33,2,.18-1.19,5.31-1-1.89-1-1.72-.69-.84h-.51v.51l.51.86.51,1,.52,1.54.51,1.88V227l-1.54,4.1-1.72,4.11L362,239.14l-2.39,3.75-.85-.86-.51-1.35.17-1.54.16-.68.69-.51,1.72-1.54,1.54-1.55,1.18-1.7.87-1.71.34-1.88.16-1.72-.16-1.7-.69-1.72-1-2.22-.51-2.56-.69.86-.5,1-.67,2.41-1,2.55-.69,1-.85,1-1,1.19-1,1.36-.69,1.55-.33,1.72-.52,3.06.52,2.56.85,1.37,1.2.86,1,.68,1,.68-3.75,5.14-.18-2.4-.49-2.21-.53-1-.34-.18-.17.53.17,1,.18,1v1.7L354,249l-.67,2.23L350.58,254l-2.91,2.58L344.6,259l-3.09,2.22-.33-1v-1.37l.51-1.19,1-.69,2.23-1,1.88-1,1.54-1.36,1.2-1.53,1-1.54.49-1.72.36-1.7-.36-1.72-.32-2.56.16-2.57-.85.7-.69.84L348,243.93l-1.54,2-1,1-1,.67-1.37.7-1.36,1.19-1,1.37-.83,1.36-1.21,2.91-.33,1.53v1.19l.33,1.21.69,1,1.52,1.54-4.44,2.73.85-3.26V260l-.16-.35-.35.35-.34,1-.67,2.05-.69,1.19-1,1.37-4.62,2.22-4.77,1.88-5,1.54-4.8,1,.34-1,.69-1,.85-.68,1-.18h2.39l2.23-.17,1.88-.51,1.72-.84,1.54-1,1.36-1.37.85-1.37.51-1.72.69-2.38,1.37-2.4-1.19.33-1,.53L328,259.82l-2.39,1.2-1.2.5-1.37.18-1.54.18-1.71.5-1.37.69-1.54,1-2.21,2.23-.87,1-.51,1.22-.16,1,.16,1,.51,1.89Z" fill="#3f863f" stroke="#000" stroke-width="0.33"/></svg>