<svg xmlns="http://www.w3.org/2000/svg" width="300" height="300"><path d="M1.5 168.5l7.18-11.9-7-11.37a70.24 70.24 0 0110.14.63c6.08.8 18.83 3.41 18.83 3.41s-8.83-6.28-8.47-10.83 2.71-9.17 1.42-17.25c0 0 5.33-6.23 22.66-2.29s28.74 9.63 43.67 18.67c0 0 4.37-4.68 5.72-9.27s4.29-7.22 9.92-5.41 20.53 8.38 32.86 14.54 29.87 15.12 29.87 15.12 1.94-2.1 1.19-9.13 4.79-7.75 11.84-8.49 33.81-1.68 44.87-3.59 19.47-7.24 26-9.49 15.5-5.11 16.79 3 2.26 7 2.26 7 9.35-6.88 23.15-2.84l-7.86 6.35s6.3 6.86 9.49 11.31c0 0-9.65-1.68-22.05 5.81s-29.21 17.2-26.38-3.1c0 0-27.5 9-32.52 9.72s-10.67 1.35-10.67 1.35-5.67 8.82-7.51 13.94-3.18 10.2-9.79 9.43-37.19-8.3-52.77-19.87c-7.3 8.3-3.72 23.87-13 18.63s-45.86-25.21-51.58-29a65.5 65.5 0 00-11.81-6.18s2.79 8 .94 13.14-.08 12.14-4.61 12.81c-6.85 1-17.09-.17-29.39-2.52-11.25-2.24-13.83-3.67-23.39-2.33zM22.27 140.44c9.53-2.31 18.18-.6 35.64 6.86M30.68 149.27s24.43 6.42 26.66-2.21" fill="none" stroke="#000" stroke-width="1.4"/><path d="M134.31 163.88s-21.15-12.44-33-19.6-11.36-6.71-11.36-6.71M168.3 152.55s23.81 15.37 34.71 8.89c4-2.17 2.8-6.65-7.85-7.8s-24.93-5.47-25.67-12.54M247.57 149.31s12-5.52 18.46-7.74 15.12-1 5.69 3.85-13.88 7.55-16.85 9.69-6.37 5.76-2.32 6.16M275.59 141.27a76.71 76.71 0 01-5.08-10.09" fill="none" stroke="#000" stroke-width="1.4"/><path d="M46.28 137.43l-2.5-.49 2.09-10.71-4.48 10.23-2.67-.46-.23-11.16h-.05l-2.09 10.66-2.48-.5 2.48-12.81 3.92.77.34 10.54 4.25-9.64 3.89.75-2.52 12.83M77.56 137.51l2.22 1.29-6.53 11.3-2.37-1.37v-10.7l-4.65 8.07-2.23-1.32 6.52-11.32 2.48 1.43v10.47l4.54-7.88M82.08 155.12l-2.37-1.34L85 144.4l-3.43-2 1.13-2 9.25 5.22-1.13 2-3.44-2-5.28 9.39M113.47 157.76l2.22 1.24-6.36 11.37-2.39-1.3-.09-10.74-4.54 8.13-2.21-1.25 6.36-11.4 2.5 1.39.1 10.46 4.42-7.93M106.31 138.63c-.31.64-.64 2 1.47 3.12 1.12.6 2.56 1 3.19-.21.48-.9-.26-1.6-1.32-2.53l-1.09-.95c-1.65-1.41-3.23-2.78-1.89-5.32.69-1.29 2.56-3.2 6.31-1.22 3.55 1.86 3.28 4.68 2.55 6.08l-2.32-1.21c.22-.53.64-1.84-1.45-3-.91-.47-2.19-.71-2.74.33a1.39 1.39 0 00.59 1.84l2.46 2.18c1.37 1.2 2.46 2.61 1.39 4.68-1.83 3.47-5.53 1.94-6.55 1.4-4.22-2.23-3.67-5-2.91-6.46l2.31 1.21M129.36 143.55l-6.05-3.38-1.31 2.41 5.57 3.09-1.13 2-5.55-3.1-1.63 3 6.32 3.51-1.11 2-8.67-4.82 6.35-11.42 8.39 4.67-1.13 2M140 161.41l-2.25-1.18 5.07-9.65-7.23 8.55-2.37-1.23 3-10.79-5 9.66-2.26-1.18 5.89-11.59 3.53 1.85L135.7 156l6.84-8 3.49 1.81-6.03 11.6M172.18 163.78l-6.39-2.68-1.07 2.52 5.88 2.48-.9 2.13-5.87-2.47-1.31 3.11 6.68 2.81-.9 2.13-9.12-3.81 5-12 8.86 3.7-.9 2.14M200.22 149.94l6.47-.41.15 2.35-9.19.61-.88-13 2.73-.17.72 10.64M213.17 151.38l-2.72.23-1-13 2.71-.23 1 13M240.55 136.36l-6.74 1.64.64 2.64 6.18-1.47.54 2.27-6.17 1.47.78 3.28 7-1.7.54 2.27-9.63 2.3-3-12.69 9.33-2.24.54 2.23M264.31 137.29l-2.59.87-4.13-12.37 2.59-.86 4.13 12.36M60.15 128.24c-1.6-.64-6.11-1.62-8.39 4s1.66 8.11 3.24 8.76 6.1 1.67 8.39-4-1.65-8.13-3.24-8.76zm.73 7.72c-1.37 3.37-3.62 3.47-5 2.9s-3-2.17-1.6-5.55 3.62-3.47 5-2.9 2.95 2.14 1.6 5.59zM96.66 148.33l-10.44 9.1 2.51 1.4 2.11-1.83 4.21 2.31-.59 2.78 2.54 1.39 2.37-13.64zM95.47 157l-2.9-1.63 4-3.69zM156.16 154.41l-5.44-2.41-5.36 11.93 2.49 1.07 1.93-4.27 2.86 1.29a4 4 0 005.49-2.08c1.06-2.41.33-4.52-1.97-5.53zm-.46 4.23a1.78 1.78 0 01-2.69 1l-2.3-1.07 1.56-3.46 2 .85c1.53.74 1.95 1.53 1.43 2.68zM228.08 146a3 3 0 00-2.35-2.9 2.61 2.61 0 001.29-2.83c-.16-1.35-1.19-3.26-4.37-2.87l-6.31.7 1.46 13 5.5-.63c2.66-.3 3.32-.84 4-1.63a3.67 3.67 0 00.78-2.84zm-8.88-6l3.11-.36c1.22-.12 2 .13 2.14 1.19s-.69 1.51-1.75 1.64l-3.18.36zm4.28 8.12l-3.32.38-.39-3.48 3.46-.38c1-.13 2 .2 2.12 1.34.14 1.35-.54 2.02-1.87 2.15zM258.34 139.2c-.62 0-.82-.37-1.64-2.1-1-2.2-1.74-2.32-2.92-2.3a3.07 3.07 0 00.5-3.66c-.47-1-2.16-3.07-5.29-1.6l-6 2.84 5.59 11.8 2.42-1.13-2.19-4.62 2.55-1.2c1.82-.87 2.22-.3 3 1.3a9.53 9.53 0 001.39 2.27l2.73-1.3zm-7.56-4.14l-2.87 1.37-1.51-3.12 3.09-1.47a1.63 1.63 0 012.45.74c.54 1.14.13 1.91-1.16 2.48zM115.4 173.75l-2.4-1.31 6.35-11.4 2.38 1.34-6.34 11.37M183.91 165.88l-6.18-2.33-4.57 12.24 2.5.93 1.79-4.78 2.63 1c1.89.7 1.76 1.4 1.13 3.07a9.13 9.13 0 00-.66 2.57l2.84 1.07.12-.33c-.48-.41-.31-.87.37-2.64.85-2.27.44-2.85-.39-3.68a3.13 3.13 0 003-2.19c.36-1.08.67-3.72-2.58-4.93zm-.09 4.21c-.46 1.21-1.28 1.42-2.61.92l-3-1.11 1.22-3.28 3.19 1.21a1.64 1.64 0 011.2 2.26z"/></svg>