<svg xmlns="http://www.w3.org/2000/svg" width="600" height="400" viewBox="0 0 600 400"><path fill="#c21f32" d="M-21.04 0h639.65v400H-21.04z"/><path fill="#eaab22" d="M117.62 0h362.32v400H117.62z"/><path fill="#081f40" d="M144.29 0h309.33v400H144.29z"/><path fill="#fff" d="M335.56 91.3l-.79-6.8 6.86-2.51-7.3-1.71-.78-6.8-3.78 5.71-7.3-1.72 5 5.26-3.71 5.76 6.8-2.51 5 5.32zm24.23 11.33l.86-6.78 7.2-.83-6.7-3.4.86-6.78-5.01 4.67-6.64-3.4 3.59 6.29-5.01 4.72 7.2-.83 3.65 6.34zm24.25 6.12l2.81-6.26-6.14 3.1-5.46-5.23 1.67 7.07-6.15 3.1 7.18 1.32 1.61 7.06 2.81-6.26 7.12 1.32-5.45-5.22zm23.64 27.84l-4.19-6.26 4.08-5.51-6.66 1.66-4.14-6.2.06 7.24-6.66 1.66 6.66 2.82.11 7.29 4.02-5.51 6.72 2.81zm7.76 14.35l-3.11-6.85-1.12 7.23-6.81.56 6.16 3.86-1.08 7.16 4.88-4.8 6.16 3.86-3.15-6.79 4.88-4.79-6.81.56zm10.7 39.34l-1.23-7.37 6-3.36-6.78-1.26-1.23-7.36-2.94 6.62-6.72-1.26 4.95 5.36-2.94 6.68 5.95-3.36 4.94 5.31zm-3.81 14.82l-6.34-2.66 3.71 6.3-4.29 5.86 6.56-2.01 3.66 6.25.42-7.49 6.51-2.01-6.29-2.6.36-7.5-4.3 5.86zm5.96 34.52l-5.55-3.99 2.02-7.25-5.45 4.74-5.61-3.98 2.16 6.92-5.46 4.75 6.83-.43 2.15 6.93 2.08-7.26 6.83-.43zm-21.25 33.91l3.45-6.69 6.79.85-4.72-4.97 3.44-6.68-6.31 3.55-4.72-4.97.79 7.2-6.31 3.61 6.79.84.8 7.26zm-19.02 22.22l5.11-5.51 6.31 2.7-3.09-6.09 5.1-5.45-7.06 1.72-3.1-6.14-1.26 7.17-7.06 1.72 6.31 2.7-1.26 7.18zM261.41 84.28l-.34 6.83 4.65-5.63 6.95 2.07-4.08-5.51 4.65-5.57-7.18 2.18-4.13-5.45-.35 6.83-7.17 2.18 7 2.07zm-33.25 11.55l7.23.41 1.27 6.71 3.27-6.54 7.23.4-5.28-4.42 3.22-6.49-6.43 3.79-5.29-4.36 1.27 6.72-6.49 3.78zm-21.66 18.03l7.12-1.32 2.82 6.26 1.6-7.07 7.18-1.32-6.14-3.1 1.66-7.06-5.45 5.22-6.15-3.09 2.82 6.25-5.46 5.23zm-7.38 13.89l.06-7.23-4.14 6.2-6.66-1.67 4.08 5.52-4.19 6.25 6.71-2.81 4.02 5.51.12-7.29 6.66-2.81-6.66-1.67zM184.9 151.4l-1.41-7.18-2.83 6.97-6.83-.31 5.06 4.61-2.89 6.91 6.01-4.1 5.06 4.61-1.35-7.12 6.01-4.09-6.83-.3zm-2.24 25.05L176 178l-3.22-6.48-.92 7.4-6.71 1.55 6.14 3.1-.92 7.41 4.71-5.51 6.08 3.1-3.21-6.55 4.71-5.57zm-2.88 25.6l-6.21 2.98-4.59-5.62.75 7.46-6.15 2.93 6.61 1.66.8 7.47 3.33-6.43 6.66 1.66-4.59-5.63 3.39-6.48zm-6.25 33.76l-5.39 4.19 6.83.18 2.35 7.17 1.9-7 6.83.17-5.63-4.54 1.9-7-5.45 4.19-5.63-4.54 2.29 7.18zm10.04 27.09l-4.36 5.29 6.72-1.32 3.9 6.43.29-7.3 6.72-1.31-6.55-3.16.29-7.24-4.37 5.28-6.54-3.1 3.9 6.43zm16.05 23.72l-3.1 6.09 6.31-2.7 5.11 5.51-1.26-7.17 6.32-2.7-7.06-1.73-1.27-7.17-3.1 6.14-7.06-1.72 5.11 5.45zm16.62 20.81a2.77 2.77 0 0 0 1.28.64c.23 0 .58-.23.93-.69l4.3-5.59c.35-.46.52-.81.47-1.1s-.35-.64-.94-1.11l.18-.23 4.07 3.2-.17.23a2.93 2.93 0 0 0-1.28-.64c-.29 0-.59.24-.93.7l-4.31 5.58a1.64 1.64 0 0 0-.46 1.11 3.76 3.76 0 0 0 .93 1.1l-.18.24-4.07-3.2zm5.16 4.04a2.4 2.4 0 0 0 1.42.41c.3-.06.71-.47 1.18-1.18l3.91-5.91-.06-.35a1.57 1.57 0 0 0-.3-.77 1.46 1.46 0 0 0-.65-.53l.18-.24 2.54 1.65 1.48 10.23 3-4.43a2.35 2.35 0 0 0 .6-1.66 2.47 2.47 0 0 0-.89-1l.18-.24 3.48 2.31-.17.23c-.59-.29-1.07-.47-1.36-.35s-.71.47-1.19 1.18l-4.67 7-.23-.17-1.77-11.65-3.48 5.15a2.33 2.33 0 0 0-.6 1.65 2.71 2.71 0 0 0 .83 1l-.17.23-3.49-2.3zm29.36 4.53c.56.44.93.69 1 .75a1.16 1.16 0 0 0 .56.12 1.37 1.37 0 0 0 .43-.25l.38.19-1.31 3.35-.37-.18a5.28 5.28 0 0 0-.37-2.18 4 4 0 0 0-2.24-2.11 4.59 4.59 0 0 0-3.42-.12c-1.18.37-2.11 1.43-2.85 3.17a4.81 4.81 0 0 0-.19 3.91 4.89 4.89 0 0 0 2.55 2.55 5 5 0 0 0 .74.24l.87.19a2 2 0 0 0 .87 0 .48.48 0 0 0 .31-.31l1.06-2.48c.25-.63.31-1 .18-1.25s-.49-.49-1.11-.8l.12-.31 4.41 1.86-.12.31a2.15 2.15 0 0 0-.93-.19c-.32.06-.56.38-.81.87l-1.31 3.05c-.06.18-.68.18-1.8.06a9.53 9.53 0 0 1-3-.81 7.42 7.42 0 0 1-3.67-3.17 4.89 4.89 0 0 1-.18-4.72 5.51 5.51 0 0 1 3.1-3 6.51 6.51 0 0 1 5.16.18 5.3 5.3 0 0 1 2 1.12zm5.74 3.73a6.13 6.13 0 0 1 4.4-.18 6 6 0 0 1 3.48 2.64 5.74 5.74 0 0 1-2.58 8.06 6.22 6.22 0 0 1-4.33.13 6.09 6.09 0 0 1-3.61-2.77 5.28 5.28 0 0 1-.42-4.39 5.39 5.39 0 0 1 3.06-3.49zm-1.14 8.06a3.41 3.41 0 0 0 2.29 2 3.8 3.8 0 0 0 3-.36 7 7 0 0 0 2.29-7.34 3.67 3.67 0 0 0-2.23-1.92 3.78 3.78 0 0 0-3 .36 5.6 5.6 0 0 0-2.23 3.31 5.69 5.69 0 0 0-.12 3.95zm9.83 4.71a2.66 2.66 0 0 0 1.35-.06c.25-.12.43-.49.56-1.11l1.47-7.32c.13-.61.13-1-.06-1.23a2.26 2.26 0 0 0-1.23-.55l.06-.31 4.93 1a10.25 10.25 0 0 1 4.06 1.6 4.86 4.86 0 0 1 2.15 5.36 5.17 5.17 0 0 1-1 2.21 4.71 4.71 0 0 1-2 1.54 5.39 5.39 0 0 1-1.6.43 10.17 10.17 0 0 1-3.5-.24l-5.05-1zm3.75.31a1.71 1.71 0 0 0 .86.31 7.37 7.37 0 0 0 3.7-.06 4.32 4.32 0 0 0 2.89-3.57 4.69 4.69 0 0 0-1-4.19 7 7 0 0 0-3.75-1.9 2.18 2.18 0 0 0-.86-.07c-.19.07-.25.19-.31.5l-1.66 8.37a.63.63 0 0 0 .12.61zm20.53-7.28v.33c-.37 0-.63.06-.81.06a.5.5 0 0 0-.44.53c0 .13 0 .27.06.33s.06.27.12.47l2.71 6.81 2-5-.88-2.18a1.49 1.49 0 0 0-.75-.79 2.68 2.68 0 0 0-.88-.14v-.33h5.09v.33c-.5 0-.82.07-1 .07a.6.6 0 0 0-.44.59c0 .14 0 .2.06.27s.06.26.19.46l2.7 6.75 2.1-6a2.82 2.82 0 0 0 .25-.93c0-.13.07-.26.07-.39a.77.77 0 0 0-.51-.73 2.26 2.26 0 0 0-.81-.13v-.33h3.78v.33a4.22 4.22 0 0 0-.75.2c-.31.2-.29.4-.48.8l-2 5.36-.76 2.05-1.19 3.24h-.32l-.82-2.05-2.2-5.56-2.95 7.61h-.32l-1.38-3.71-1.58-4.23a19 19 0 0 0-1.38-3.17 1.59 1.59 0 0 0-1.19-.67v-.33zm13.39 10.58a3.22 3.22 0 0 0 1.44-.48c.21-.18.28-.53.21-1.19l-.9-7.19c-.07-.6-.2-1-.48-1.08s-.28-.17-.28-.33l-.07-.3 9.72-.93.34 2.34-.55.06a2.38 2.38 0 0 0-1-1.32 5.62 5.62 0 0 0-2.41-.06l-2.82.3c-.27 0-.48.06-.55.18s-.07.24-.07.42l.48 3.59 3.17-.3a2.55 2.55 0 0 0 1.65-.48 2.37 2.37 0 0 0 .42-1.31l.48-.06.48 3.77-.48.06a2.36 2.36 0 0 0-.76-1.2 2.77 2.77 0 0 0-1.72-.12l-3.17.3.48 4a.62.62 0 0 0 .49.54 14 14 0 0 0 2.34-.12 9.35 9.35 0 0 0 3-.66 3.61 3.61 0 0 0 1.58-1.92l.55-.06-.62 2.81-11.15 1.08zm16.92-12.23l11.22-2.59 1 2.53-.47.12a3.3 3.3 0 0 0-1.43-1.39 4.56 4.56 0 0 0-2.39.18l-1.09.23 2.52 7.72c.21.58.41.92.68 1a4.4 4.4 0 0 0 1.64-.11l.07.29-5.8 1.32-.07-.29a3.33 3.33 0 0 0 1.5-.69 1.64 1.64 0 0 0-.06-1.27l-2.46-7.55-1.09.23a4.91 4.91 0 0 0-2.11.87 2.19 2.19 0 0 0-.41 1.78l-.48.12zm15.75 6.41c.59-.3 1-.54 1.06-.77s0-.65-.23-1.31l-2.49-6.51a1.57 1.57 0 0 0-.65-.95 2.1 2.1 0 0 0-1.3.12l-.12-.3 4.62-1.77a9.47 9.47 0 0 1 2.54-.6 2.55 2.55 0 0 1 2.73 1.6 2 2 0 0 1-.18 2 6.08 6.08 0 0 1-1.89 1.66l4.91 2.54a2.81 2.81 0 0 0 .83.3 2.6 2.6 0 0 0 .89-.12l.12.3-2.67 1-5.92-3.08-.71.3 1.12 3c.24.53.42.89.71.95a3.29 3.29 0 0 0 1.37-.18l.12.3-4.62 1.77zm3.73-7.41a2 2 0 0 0 .65-2.37 2 2 0 0 0-1.89-1.36 5.76 5.76 0 0 0-1.78.36c-.47.17-.77.29-.83.41a.64.64 0 0 0 0 .48l1.42 3.73a7.39 7.39 0 0 0 2.43-1.25zm8.21-8.7l.12.3a3 3 0 0 0-1.09.91 1.54 1.54 0 0 0 .24 1.16l2.37 4.74a3.67 3.67 0 0 0 1.28 1.64 3 3 0 0 0 3.1-.06c1.34-.67 2.06-1.52 2.06-2.55a5.26 5.26 0 0 0-.66-2.31l-1.95-3.83c-.42-.79-.79-1.28-1.09-1.34a2.19 2.19 0 0 0-1.4.24l-.12-.3 3.77-1.88.12.3c-.61.36-1 .73-1 1a3.21 3.21 0 0 0 .43 1.64l1.94 3.83a5.41 5.41 0 0 1 .67 2.68c-.12 1.4-1.09 2.49-2.85 3.4s-3.22 1-4.38.24a4.85 4.85 0 0 1-1.64-1.94l-2.39-4.59c-.24-.55-.55-.85-.79-.91a2.85 2.85 0 0 0-1.34.3l-.12-.3zm12.16 2.36a5.52 5.52 0 0 0 2.06.92 4.43 4.43 0 0 0 3.18-.43 2.54 2.54 0 0 0 1.13-1.22 1.58 1.58 0 0 0-.2-1.53 2 2 0 0 0-1.39-.86 14.14 14.14 0 0 0-2.32 0l-2 .06a5.78 5.78 0 0 1-1.53-.12 3 3 0 0 1-1.73-1 2.57 2.57 0 0 1-.33-2.27 3.86 3.86 0 0 1 1.79-2 4.89 4.89 0 0 1 1.53-.55 5.39 5.39 0 0 0 1.06-.31c.2-.12.33-.24.33-.36a1.52 1.52 0 0 0-.06-.49l.33-.19 2.39 2.82-.4.24a4.16 4.16 0 0 0-2.59-1.1 4.85 4.85 0 0 0-2.19.49 2.26 2.26 0 0 0-1 1 1.17 1.17 0 0 0 .13 1.23 1.94 1.94 0 0 0 1 .73 7.72 7.72 0 0 0 1.79.12l2-.12a9.24 9.24 0 0 1 2.85.19 2.67 2.67 0 0 1 1.79 3.55 4.2 4.2 0 0 1-2.05 2.2 5.46 5.46 0 0 1-1.8.67 10.93 10.93 0 0 0-1.12.31c-.2.12-.34.24-.34.37a1 1 0 0 0 .07.43l-.4.24-2.52-2.69zm4.37-11.33l8.51-6.37 1.82 2.25-.38.25a3.62 3.62 0 0 0-1.75-.94 4 4 0 0 0-1.94.94l-.81.62 5.25 6.94c.38.5.75.75 1 .75a3.87 3.87 0 0 0 1.3-.65l.18.25-4.37 3.31-.19-.25a2.84 2.84 0 0 0 1-1.18c.06-.25-.13-.69-.56-1.25l-5.06-6.79-.88.62a4 4 0 0 0-1.44 1.62 3.15 3.15 0 0 0 .38 1.94l-.38.25z"/><path d="M308.32 160.15q-6.37-5.6-12.58-11.37c-4.47-4.13-7.29-4.25-12-.46-.28.23-.57.46-.8.69-10.68 9.65-16.71 21.65-18.6 35.89-1 7.29 6.15 19.11 14.13 22.89 2.68 1.32 2.54-9.44 13.44-13.45 4.13 0 5.66 2.48 12.61 10.7 4.42-8.61 5.41-13.83 4-23.47a35.89 35.89 0 0 0-1.32-4.88l.57-.29a39.62 39.62 0 0 1 2.42 4.59c1.66 4.71.91 9.48.23 14.19a47.54 47.54 0 0 1-5.75 16.3 7.08 7.08 0 0 0 .58.69c1.55-.92 3.9-1.49 4.59-2.93 2.7-5.39 5.46-11 7.18-16.71 3.62-12.34 1.38-23.48-8.67-32.38zm-32.84 8c-1.5 3.22-2.87 6.49-4.37 9.7-.23.52-.86.86-1.32 1.32-.17-.63-.69-1.37-.51-1.89a35.54 35.54 0 0 1 7.29-13.9c.57-.63 1-1.37 1.49-2.06a7 7 0 0 0 .75.63c-1.15 2.07-2.36 4.08-3.33 6.2z" fill="#fff" stroke="#000" stroke-width=".05"/><path d="M238.76 197.27c2 1.44 3.9 3.22 6.08 4.31 6.15 3 12.46 5.86 18.72 8.67 2 .86 2.07.75 2.7 3.62-3.1-.64-6.09-1.15-9-1.9a38.7 38.7 0 0 1-21.7-14.75c-3.1-4.14-4.88-8.79-4.13-14s3.5-8 8.84-8.56c7.23-.69 13.95 1.38 20.5 4.08a1.88 1.88 0 0 1 .91 1.61c-2.35 9.58.52 17.74 6.95 24.8-1.32 2.7-.86 2.93 2 3.56a29 29 0 0 1 7.75 3.1c2.7 1.43 5.11 3.33 7.7 4.94 3.15 1.95 6.6 1.55 9.93.74 4.59-1.09 9.13-2.35 13.66-3.56a25 25 0 0 1 14.76.81c2.18.74 2.24 1 .8 2.7-4.59 5.34-9.3 10.62-15.38 14.29-7.58 4.6-15.56 6-23.83 2.13-5.17-2.36-8.38-6.84-11.37-11.43-2.76-4.19-5.4-8.44-8.1-12.57a3.23 3.23 0 0 0-1.43-1.21c-8.1-3.79-16.13-7.52-24.23-11.25-.57-.29-1.15-.46-1.72-.69a1.92 1.92 0 0 0-.46.57zm117.76-16.02a47.15 47.15 0 0 0-1.44 6.15 34.36 34.36 0 0 1-24.51 28.65c-.12.06-.29 0-.52 0-1-4.88-5.8-4-9-5.74 3-1.9 5.86-3.68 8.79-5.46-.12-.29-.29-.51-.4-.8-3.51 1.49-7.07 3-10.57 4.48 6.38-6.72 13.21-12.92 18.32-20.67a4.54 4.54 0 0 0-.58-.58l-21.81 21.65c-.18-.17-.41-.29-.58-.46a12.23 12.23 0 0 1 .4-1.26c4-8 7-16.25 6.95-25.32a3.12 3.12 0 0 1 .35-1.44c4.59-7.58 10.22-14.12 18.77-17.45a24.87 24.87 0 0 1 15.79-1.1c3.16.87 4.19 2.3 3.79 5.63a50.68 50.68 0 0 1-1.44 6.55 7.54 7.54 0 0 0-.34 3c.52-.63 1-1.26 1.55-2 3 1.55 3.85 4.36 4 7.23.57 8.22.11 16.37-3.22 24.12a3.42 3.42 0 0 1-3.21 2.3c-3.91.57-7.81 1.55-12 2.41a42.91 42.91 0 0 0 10.16-13.27c2.47-5.34 1.32-11 1.55-16.53a4.2 4.2 0 0 1-.8-.12zm-23.77 20.85c.17.23.34.51.51.74a5.47 5.47 0 0 0 3.39-2.81c-.17-.23-.34-.46-.57-.75-1.09 1-2.24 1.9-3.33 2.82zm-11.6 32.95c9.36 3.68 27.5 6.15 35.94 3.85-1.49-.29-3-.63-4.54-.8-6.77-.64-13.6-1-20.38-1.78-5.22-.64-9.7-3.22-13.83-6.61 2.92-3.15 5.62-6.31 8.61-9.07 1-1 3-.92 4.48-1.38 7-2.06 14-4.36 21-6.26a31.1 31.1 0 0 1 16.36-.4 19.71 19.71 0 0 1 12.58 10c3.5 6.66-1.15 15.16-8.67 16.08-2.93.34-5.92.52-9.19.75l1.21 1.6c-.06.12-.12.29-.23.35-4.88 1.32-9.76 2.87-14.76 3.79-8.67 1.61-17 .57-24.06-5.23-1.66-1.49-3-3.27-4.53-4.88z" fill="#fff"/><path d="M281.25 235.28c3.73 1.44 7.23 2.82 10.85 4.19-1 1.84-2 3.85-3.05 5.86.18.17.35.4.52.57a14.25 14.25 0 0 0 2.53-2c.8-1 1.15-2.35 1.89-3.38.46-.63 1.44-.86 2.18-1.27.29.64.92 1.32.81 1.9-.4 2.53-.92 5-1.5 7.46-.45 2.18-1.09 4.31-1.6 6.55 3-1.55 4.19-5.05 5.45-16.08.75-.17 1.55-.34 2.7-.57.34 2.24.69 4.3 1 6.6a3.71 3.71 0 0 0 1.5-4.48c-.46-2 .05-2.87 2-3.73a94.24 94.24 0 0 0 9.12-4.94 52.18 52.18 0 0 0 3.28 4.94c1.78 2.18 3.9 4.08 5.74 6.2.92 1.09 2 2.41 2.18 3.73a20.13 20.13 0 0 1-.11 6.66c-.58 2.82-2.13 5.11-5.23 5.8q-10.59 2.33-21.19 4.54a35.71 35.71 0 0 0-5 1.15c7.69 1.37 15.16-.52 22.62-2a48.63 48.63 0 0 1-25 7.23c-5.75 0-17.23-5.63-21.76-10.68 6.2 2.47 11.65 5.57 18 5.8 0-.17.17-.4.23-.57-.69-.29-1.38-.58-2-.86-6.43-2.82-12.92-5.57-19.29-8.5-2.76-1.27-5-5.46-4.6-8.44.06-.58.52-1.38.92-1.49 6.49-2.07 12-5.92 16.77-10.17zm-38.59 5.63c2-.35 3.56-.63 5.11-.92a3.55 3.55 0 0 1 .06-.8 23.81 23.81 0 0 0-4.48-.63 54 54 0 0 1-17.62-2.24 15.14 15.14 0 0 1-9.88-9.42c-1.44-3.56-.06-7.46 3.56-10.11 6.72-4.88 14.35-6.6 22.56-6.37 4.14.12 7.41 2.41 11.14 3.45 4.42 1.14 8.9 2.06 13.27 3.21a4.36 4.36 0 0 1 2.41 1.72c1.26 1.9 2.35 4 3.67 6.32h-14.24c-.06.23-.06.4-.11.63 2.52.58 5.05 1.26 7.63 1.61a19.44 19.44 0 0 0 6.09-.06 3.25 3.25 0 0 1 3.73 1.72c.58.92 1.32 1.67 2.13 2.7-7.47 4.31-15.91 5.06-24.18 7.06 2.82 1.67 8.16.75 22.22-3.5-1.6 2.53-9.35 6.43-15.38 8s-11.72.35-17.69-2.35z" fill="#fff"/><path d="M280.86 209.41l3.33-5.52c4.58-7.15 9.16-10 13.75-3.15l6 6.13a40.84 40.84 0 0 1-2.19 5.52c-6.37 2.73-13.07 2.07-16.56 0a9.77 9.77 0 0 1-4.29-3z" fill="#eaaa22"/><path fill="#eaab22" d="M301.21 72.56l-3.62-10.34-3.67 10.34 3.67 5.28 3.62-5.28zm-10.51 9.07l-3.1 10.45 9.19-6.14v-5.8l-6.09 1.49zm1.96-8.15h-11.03l8.5 6.71 6.14-1.49-3.61-5.22zM305 80.19l8.5-6.71h-11.03l-3.61 5.22 6.14 1.49zm-.57 1.44l-6.09-1.49v5.8l9.19 6.14-3.1-10.45z"/></svg>