<svg xmlns="http://www.w3.org/2000/svg" width="170" height="300" viewBox="0 0 170 300"><path fill="#fff" stroke="#000" stroke-linecap="round" stroke-linejoin="round" stroke-width="2" fill-rule="evenodd" d="M20.49 48.97V174.5l12.48-3.32V47.31l-12.48 1.66zM133.56 47.31l2.48 127.19h12.49l-1.67-127.19h-13.3z"/><path fill="#fff" stroke="#000" stroke-linecap="round" stroke-linejoin="round" stroke-width="2" fill-rule="evenodd" d="M8.86 172.02l.83 21.61h147.15l-.84-21.61H8.86z"/><path fill="#fff" stroke="#000" stroke-linecap="round" stroke-linejoin="round" stroke-width="2" fill-rule="evenodd" d="M1.37 184.48v19.96l161.29.83-.84-20.79H1.37zM12.18 43.98l.83 9.15H42.1l.83-9.98-30.75.83zM126.9 43.15l.83 9.98h24.95l.83-9.98H126.9z"/><path fill="#fff" stroke="#000" stroke-linecap="round" stroke-linejoin="round" stroke-width="2" fill-rule="evenodd" d="M20.49 29.85l-.83 13.3h124.71V30.68l-123.88-.83zM97.81 98c-1.66-9.15-5.82-49.88-20-50.72S59.57 58.12 59.57 58.12s20 2.5 18.29 10.81-10 29.1-14.13 31.59 26.6-1.66 34.08-2.52z"/><path fill="#fff" stroke="#000" stroke-linecap="round" stroke-linejoin="round" stroke-width="2" fill-rule="evenodd" d="M69.55 93.86l-3.34 56.53 39.92.84-1.67-54.87-34.91-2.5z"/><path d="M33 136.84s-.73-34.91 1.66-44.64c1.66-10 7.48-16.63 17.46-15.8s27.41 19.12 27.41 19.12 26.6-24.11 36.57-23.27c11.43 3.28 17.28 11.39 18.36 20.71.28 7.25.87 44.3.87 44.3s-20.74-23.45-27.54-25.94C102 109.65 90.33 108 90.33 108l-1.59 45.23-9.22-.34s-.83-21.61-1.66-29.92a58.43 58.43 0 00-4.15-15.8s-15 7.48-20 13.3C47.73 126 33 136.84 33 136.84z" fill="#fff" stroke="#000" stroke-linecap="round" stroke-linejoin="round" stroke-width="2" fill-rule="evenodd"/><path d="M33.78 140.09l99.78.33V182c-.78 36.59-50.4 88.16-50.4 88.16S32.93 222.73 33 180.32c-.86-42.4.78-40.23.78-40.23z" fill="#fff" stroke="#000" stroke-linecap="round" stroke-linejoin="round" stroke-width="2" fill-rule="evenodd"/><path fill-rule="evenodd" d="M47.8 188.26l.01 37.42 7.08 11.04-.03-48.46H47.8zM63.34 188.26l.13 59.99 6.94 8.36-.02-68.35h-7.05zM78.88 188.26l.02 77.7 4.24 4.19 4.2-4.64v-77.25h-8.46zM95.82 188.26l.07 67.34 7.01-8.84-.03-58.5h-7.05zM111.35 188.26l.1 46.68 6.96-10.85.01-35.83h-7.07zM33.68 188.26h7.06v22.34l-7.06-22.34zM125.54 188.26l.03 22.48 7.56-22.48h-7.59z"/><path fill="#fff" stroke="#000" stroke-linecap="round" stroke-linejoin="round" stroke-width="2" fill-rule="evenodd" d="M32.97 139.34l100.59 1.07v39.58l-100.59.34v-40.99z"/><path d="M82.39 143.92l4 12.17h12.75l-10.35 7.51 3.95 12.17-10.35-7.52L72 175.77l4-12.17-10.35-7.51h12.79l4-12.17z" fill="#fff" stroke="#000" stroke-linecap="round" stroke-linejoin="round" stroke-width="2" fill-rule="evenodd"/></svg>