<svg xmlns="http://www.w3.org/2000/svg" width="600" height="400" viewBox="0 0 600 400"><title>flag-colorado-dimensions</title><path fill="#fff" stroke="#50d6cc" stroke-linecap="round" stroke-linejoin="round" d="M70.31 111.23h490.54v109.01H70.31zM70.31 2.22h490.54v109.01H70.31zM70.31 220.24h490.54v109.01H70.31z"/><path d="M380.28 129.52a109 109 0 1 0 0 72.43l-102.85-36.21z" fill="#fff" stroke="#50d6cc" stroke-linecap="round" stroke-linejoin="round"/><circle cx="277.43" cy="165.74" r="54.5" fill="#fff" stroke="#50d6cc" stroke-linecap="round" stroke-linejoin="round"/><path fill="none" stroke="#a3a3a3" stroke-linecap="round" stroke-linejoin="round" stroke-dasharray="5 5" d="M568.86 2.22h13.57v41.91M568.86 111.23h13.57V70.58M61.85 2.22H4.8v148M61.85 329.25H4.8V180.16"/><path d="M4.83 159.37a3 3 0 0 1 3.08 3A4.76 4.76 0 0 1 6 165.69 13.93 13.93 0 0 0 3.16 169H7.6a.24.24 0 0 0 .19-.07.22.22 0 0 1 .23-.07V170H1.8v-.75a12.61 12.61 0 0 1 3.07-3.94c.77-.7 1.86-1.63 1.86-2.92a2 2 0 0 0-2-2 2.21 2.21 0 0 0-1.81 1c-.09.14 0 .24-.15.39l-.86-.69a3.44 3.44 0 0 1 2.92-1.72z"/><path fill="none" stroke="#a3a3a3" stroke-linecap="round" stroke-linejoin="round" stroke-dasharray="5 5" d="M380.28 56.73H39.79v95.49M380.28 274.74H39.79v-96.58"/><path d="M29.63 170.05h-1.19v-9.14l-2.13.63-.28-.66 2.78-1.45h.82zM37.09 170.23a1 1 0 1 1 1-1 1 1 0 0 1-1 1zM46.94 164.39a2.84 2.84 0 0 1 1.81 2.73 3.07 3.07 0 0 1-3.26 3.09 3.7 3.7 0 0 1-2.78-1.2l.9-1.07c.15.15.07.32.22.48a2.3 2.3 0 0 0 1.65.72 2.13 2.13 0 0 0 2.13-2.14c0-1.26-1-2-2.48-2a4.89 4.89 0 0 0-.54 0v-.95a4 4 0 0 0 1.67-.27 1.86 1.86 0 0 0 1.13-1.67 1.71 1.71 0 0 0-1.84-1.64 2.53 2.53 0 0 0-1.83.81l-.66-.74a3.49 3.49 0 0 1 2.55-1.13 2.79 2.79 0 0 1 2.91 2.68 2.45 2.45 0 0 1-1.58 2.3zM55.44 164.39a2.84 2.84 0 0 1 1.81 2.73 3.07 3.07 0 0 1-3.25 3.09 3.7 3.7 0 0 1-2.78-1.2l.9-1.07c.15.15.07.32.22.48a2.3 2.3 0 0 0 1.65.72 2.13 2.13 0 0 0 2.12-2.14c0-1.26-1-2-2.48-2a4.89 4.89 0 0 0-.54 0v-.95a4 4 0 0 0 1.67-.27 1.86 1.86 0 0 0 1.13-1.67 1.71 1.71 0 0 0-1.84-1.64 2.53 2.53 0 0 0-1.83.81l-.66-.74a3.49 3.49 0 0 1 2.55-1.13 2.79 2.79 0 0 1 2.89 2.68 2.45 2.45 0 0 1-1.56 2.3zM63.94 164.39a2.84 2.84 0 0 1 1.81 2.73 3.07 3.07 0 0 1-3.26 3.09 3.7 3.7 0 0 1-2.78-1.2l.9-1.07c.15.15.07.32.22.48a2.3 2.3 0 0 0 1.65.72 2.13 2.13 0 0 0 2.13-2.14c0-1.26-1-2-2.48-2a4.89 4.89 0 0 0-.54 0v-.95a4 4 0 0 0 1.67-.27 1.86 1.86 0 0 0 1.13-1.67 1.71 1.71 0 0 0-1.84-1.64 2.53 2.53 0 0 0-1.83.81l-.66-.74a3.49 3.49 0 0 1 2.55-1.13 2.79 2.79 0 0 1 2.91 2.68 2.45 2.45 0 0 1-1.58 2.3zM263.41 90a1 1 0 1 1 0-1.95 1 1 0 1 1 0 1.95zM273.25 84.12a2.84 2.84 0 0 1 1.82 2.73 3.08 3.08 0 0 1-3.26 3.1 3.71 3.71 0 0 1-2.81-1.21l.89-1.07c.15.15.08.32.22.48a2.26 2.26 0 0 0 1.66.72 2.13 2.13 0 0 0 2.13-2.16c0-1.26-1.05-2-2.49-2a3.27 3.27 0 0 0-.54 0v-1a4.1 4.1 0 0 0 1.68-.27 1.86 1.86 0 0 0 1.13-1.66 1.72 1.72 0 0 0-1.85-1.65A2.51 2.51 0 0 0 270 81l-.66-.73a3.44 3.44 0 0 1 2.54-1.14 2.79 2.79 0 0 1 2.92 2.68 2.46 2.46 0 0 1-1.55 2.31zM281.75 84.12a2.84 2.84 0 0 1 1.82 2.73 3.08 3.08 0 0 1-3.26 3.1 3.71 3.71 0 0 1-2.78-1.21l.89-1.07c.15.15.08.32.22.48a2.26 2.26 0 0 0 1.66.72 2.13 2.13 0 0 0 2.13-2.16c0-1.26-1.05-2-2.49-2a3.27 3.27 0 0 0-.54 0v-1a4.1 4.1 0 0 0 1.68-.27 1.86 1.86 0 0 0 1.13-1.66 1.72 1.72 0 0 0-1.85-1.65 2.51 2.51 0 0 0-1.82.81l-.66-.73a3.44 3.44 0 0 1 2.54-1.14 2.79 2.79 0 0 1 2.92 2.68 2.46 2.46 0 0 1-1.59 2.37zM290.25 84.12a2.84 2.84 0 0 1 1.82 2.73 3.08 3.08 0 0 1-3.26 3.1 3.71 3.71 0 0 1-2.81-1.21l.89-1.07c.15.15.08.32.22.48a2.26 2.26 0 0 0 1.66.72 2.13 2.13 0 0 0 2.13-2.16c0-1.26-1.05-2-2.49-2a3.27 3.27 0 0 0-.54 0v-1a4.1 4.1 0 0 0 1.68-.27 1.86 1.86 0 0 0 1.13-1.66 1.72 1.72 0 0 0-1.85-1.65A2.51 2.51 0 0 0 287 81l-.66-.73a3.44 3.44 0 0 1 2.54-1.14 2.79 2.79 0 0 1 2.92 2.68 2.46 2.46 0 0 1-1.55 2.31zM337.48 172.32a1 1 0 1 1 0-2 1 1 0 1 1 0 2zM346.21 161.46a3 3 0 0 1 3.08 3 4.76 4.76 0 0 1-1.87 3.34 13.93 13.93 0 0 0-2.88 3.3H349a.24.24 0 0 0 .19-.07.21.21 0 0 1 .22-.07v1.19h-6.22v-.75a12.83 12.83 0 0 1 3.08-3.95c.77-.69 1.86-1.62 1.86-2.91a2 2 0 0 0-2-2 2.23 2.23 0 0 0-1.81 1c-.09.15-.05.25-.15.4l-.86-.69a3.44 3.44 0 0 1 2.9-1.79zM356.75 161.52v6.63h1.36v1.06h-1.36v2.92h-1.23v-2.94h-4.27v-.88l4.5-6.79zm-4.33 6.63h3.11v-4.74zM360.28 171.33l.82-.91c.18.12.13.3.28.41a2.17 2.17 0 0 0 1.27.39 2.25 2.25 0 0 0 2.1-1.46 7.17 7.17 0 0 0 .43-2.62 2.67 2.67 0 0 1-2.19 1.14 3.07 3.07 0 0 1-2.9-3.34 3.24 3.24 0 0 1 3-3.51 3.09 3.09 0 0 1 2.88 2.3 9.41 9.41 0 0 1 .36 3 8.81 8.81 0 0 1-.45 3.15 3.54 3.54 0 0 1-3.29 2.46 3.32 3.32 0 0 1-2.31-1.01zm4.84-5.38c.19-2.14-.82-3.46-2-3.46-1 0-1.84.86-1.84 2.4s.91 2.35 1.86 2.35a2.46 2.46 0 0 0 1.98-1.24zM374.58 163.91a3 3 0 0 1-1.7 2.55 3.34 3.34 0 0 1 2.05 2.93 3.05 3.05 0 0 1-3.26 2.91 3 3 0 0 1-3.22-2.84 3.44 3.44 0 0 1 2.12-3A2.85 2.85 0 0 1 369 164a2.74 2.74 0 0 1 2.87-2.61 2.62 2.62 0 0 1 2.71 2.52zm-4.91 5.39a2 2 0 0 0 2.05 1.93 1.91 1.91 0 0 0 2-1.85 2.81 2.81 0 0 0-2.26-2.4 2.68 2.68 0 0 0-1.79 2.32zm.43-5.39c0 1.4 1.86 2.13 1.86 2.13a2.53 2.53 0 0 0 1.45-2 1.62 1.62 0 0 0-1.68-1.59 1.56 1.56 0 0 0-1.63 1.46zM402.87 172.32a1 1 0 1 1 1-1 1 1 0 0 1-1 1zM413.63 161.52v6.63H415v1.06h-1.37v2.92h-1.23v-2.94h-4.27v-.88l4.51-6.79zm-4.32 6.63h3.11v-4.74zM417.16 171.33l.82-.91c.18.12.14.3.28.41a2.17 2.17 0 0 0 1.27.39 2.25 2.25 0 0 0 2.1-1.46 7.17 7.17 0 0 0 .43-2.62 2.66 2.66 0 0 1-2.18 1.14 3.08 3.08 0 0 1-2.91-3.34 3.24 3.24 0 0 1 3-3.51 3.08 3.08 0 0 1 2.88 2.3 9.41 9.41 0 0 1 .36 3 8.58 8.58 0 0 1-.45 3.15 3.52 3.52 0 0 1-3.29 2.46 3.32 3.32 0 0 1-2.31-1.01zM422 166c.19-2.14-.82-3.46-2-3.46-1 0-1.85.86-1.85 2.4s.92 2.35 1.86 2.35A2.46 2.46 0 0 0 422 166zM425.66 171.33l.82-.91c.18.12.14.3.28.41a2.17 2.17 0 0 0 1.27.39 2.25 2.25 0 0 0 2.1-1.46 7.17 7.17 0 0 0 .43-2.62 2.66 2.66 0 0 1-2.18 1.14 3.08 3.08 0 0 1-2.91-3.34 3.24 3.24 0 0 1 3-3.51 3.08 3.08 0 0 1 2.88 2.3 9.41 9.41 0 0 1 .36 3 8.58 8.58 0 0 1-.45 3.15 3.52 3.52 0 0 1-3.26 2.42 3.32 3.32 0 0 1-2.34-.97zm4.84-5.33c.19-2.14-.82-3.46-2-3.46-1 0-1.85.86-1.85 2.4s.92 2.35 1.86 2.35a2.46 2.46 0 0 0 1.99-1.29zM440 161.53v1.07h-4.37l-.16 3.06a3.79 3.79 0 0 1 1.73-.41 3.19 3.19 0 0 1 3.2 3.53 3.26 3.26 0 0 1-3.34 3.54 3.78 3.78 0 0 1-3.14-1.63l1.05-.79c.15.1.06.27.13.4a2.56 2.56 0 0 0 1.94 1 2.55 2.55 0 0 0 0-5 2.56 2.56 0 0 0-2 1l-.76-.31.37-5.39zM569.49 63.31a1 1 0 1 1 1-1 1 1 0 0 1-1 1zM581.13 53.38l-.82.91c-.15-.12-.15-.28-.26-.39a1.92 1.92 0 0 0-1.23-.44c-.76 0-2.51.47-2.57 4.1a2.59 2.59 0 0 1 2.24-1.28c1.5 0 2.91 1.27 2.91 3.47s-1.42 3.54-3 3.54a3 3 0 0 1-2.51-1.4 6.52 6.52 0 0 1-.8-3.6 10.37 10.37 0 0 1 .45-3.25 3.54 3.54 0 0 1 3.29-2.63 3.3 3.3 0 0 1 2.3.97zm-4.82 5.37c-.14 2 .82 3.49 2.11 3.49.9 0 1.82-.77 1.82-2.43 0-1.83-1-2.49-1.86-2.49a2.51 2.51 0 0 0-2.07 1.43zM589.63 53.38l-.82.91c-.15-.12-.15-.28-.26-.39a1.92 1.92 0 0 0-1.23-.44c-.76 0-2.51.47-2.57 4.1a2.59 2.59 0 0 1 2.25-1.28c1.5 0 2.91 1.27 2.91 3.47s-1.42 3.54-3 3.54a3 3 0 0 1-2.51-1.4 6.52 6.52 0 0 1-.8-3.6A10.37 10.37 0 0 1 584 55a3.54 3.54 0 0 1 3.29-2.63 3.3 3.3 0 0 1 2.34 1.01zm-4.82 5.37c-.14 2 .82 3.49 2.11 3.49.9 0 1.82-.77 1.82-2.43 0-1.83-1-2.49-1.86-2.49a2.51 2.51 0 0 0-2.07 1.43zM598.13 53.38l-.82.91c-.15-.12-.15-.28-.26-.39a1.92 1.92 0 0 0-1.23-.44c-.76 0-2.51.47-2.57 4.1a2.59 2.59 0 0 1 2.24-1.28c1.5 0 2.91 1.27 2.91 3.47s-1.42 3.54-3 3.54a3 3 0 0 1-2.51-1.4 6.52 6.52 0 0 1-.8-3.6 10.37 10.37 0 0 1 .45-3.25 3.54 3.54 0 0 1 3.29-2.63 3.3 3.3 0 0 1 2.3.97zm-4.82 5.37c-.14 2 .82 3.49 2.11 3.49.9 0 1.82-.77 1.82-2.43 0-1.83-1-2.49-1.86-2.49a2.51 2.51 0 0 0-2.07 1.43z"/><path fill="none" stroke="#a3a3a3" stroke-linecap="round" stroke-linejoin="round" stroke-dasharray="5 5" d="M582.43 111.23v39.91M568.86 220.24h13.57v-41.16"/><path d="M569.49 168.28a1 1 0 1 1 1-1 1 1 0 0 1-1 1zM581.13 158.34l-.82.91c-.15-.11-.15-.27-.26-.38a1.86 1.86 0 0 0-1.23-.44c-.76 0-2.51.47-2.57 4.1a2.59 2.59 0 0 1 2.24-1.28c1.5 0 2.91 1.26 2.91 3.47s-1.42 3.54-3 3.54a3 3 0 0 1-2.51-1.41 6.47 6.47 0 0 1-.8-3.59 10.48 10.48 0 0 1 .45-3.26 3.55 3.55 0 0 1 3.29-2.63 3.34 3.34 0 0 1 2.3.97zm-4.82 5.37c-.14 2 .82 3.5 2.11 3.5.9 0 1.82-.78 1.82-2.43 0-1.83-1-2.49-1.86-2.49a2.5 2.5 0 0 0-2.07 1.42zM589.63 158.34l-.82.91c-.15-.11-.15-.27-.26-.38a1.86 1.86 0 0 0-1.23-.44c-.76 0-2.51.47-2.57 4.1a2.59 2.59 0 0 1 2.24-1.28c1.5 0 2.91 1.26 2.91 3.47s-1.42 3.54-3 3.54a3 3 0 0 1-2.51-1.41 6.47 6.47 0 0 1-.8-3.59A10.48 10.48 0 0 1 584 160a3.55 3.55 0 0 1 3.29-2.63 3.34 3.34 0 0 1 2.34.97zm-4.82 5.37c-.14 2 .82 3.5 2.11 3.5.9 0 1.82-.78 1.82-2.43 0-1.83-1-2.49-1.86-2.49a2.5 2.5 0 0 0-2.07 1.42zM598.13 158.34l-.82.91c-.15-.11-.15-.27-.26-.38a1.86 1.86 0 0 0-1.23-.44c-.76 0-2.51.47-2.57 4.1a2.59 2.59 0 0 1 2.24-1.28c1.5 0 2.91 1.26 2.91 3.47s-1.42 3.54-3 3.54a3 3 0 0 1-2.51-1.41 6.47 6.47 0 0 1-.8-3.59 10.48 10.48 0 0 1 .45-3.26 3.55 3.55 0 0 1 3.29-2.63 3.34 3.34 0 0 1 2.3.97zm-4.82 5.37c-.14 2 .82 3.5 2.11 3.5.9 0 1.82-.78 1.82-2.43 0-1.83-1-2.49-1.86-2.49a2.5 2.5 0 0 0-2.07 1.42z"/><path fill="none" stroke="#a3a3a3" stroke-linecap="round" stroke-linejoin="round" stroke-dasharray="5 5" d="M277.43 111.23v41.91M277.43 220.24v-41.16"/><path d="M264.48 172.32a1 1 0 1 1 0-2 1 1 0 1 1 0 2zM276.13 162.38l-.82.91c-.16-.11-.15-.27-.26-.38a1.86 1.86 0 0 0-1.23-.44c-.77 0-2.51.47-2.57 4.1a2.58 2.58 0 0 1 2.24-1.28c1.5 0 2.91 1.26 2.91 3.47s-1.42 3.54-3 3.54a3 3 0 0 1-2.5-1.41 6.47 6.47 0 0 1-.8-3.59 10.48 10.48 0 0 1 .45-3.26 3.54 3.54 0 0 1 3.29-2.63 3.34 3.34 0 0 1 2.29.97zm-4.83 5.37c-.14 2 .83 3.5 2.12 3.5.9 0 1.82-.78 1.82-2.43 0-1.83-1-2.49-1.86-2.49a2.52 2.52 0 0 0-2.08 1.42zM284.63 162.38l-.82.91c-.16-.11-.15-.27-.26-.38a1.86 1.86 0 0 0-1.23-.44c-.77 0-2.51.47-2.57 4.1a2.58 2.58 0 0 1 2.24-1.28c1.5 0 2.91 1.26 2.91 3.47s-1.42 3.54-3 3.54a3 3 0 0 1-2.5-1.41 6.47 6.47 0 0 1-.8-3.59 10.48 10.48 0 0 1 .4-3.3 3.54 3.54 0 0 1 3.29-2.63 3.34 3.34 0 0 1 2.34 1.01zm-4.83 5.37c-.14 2 .83 3.5 2.12 3.5.9 0 1.82-.78 1.82-2.43 0-1.83-1-2.49-1.86-2.49a2.52 2.52 0 0 0-2.08 1.42zM293.13 162.38l-.82.91c-.16-.11-.15-.27-.26-.38a1.86 1.86 0 0 0-1.23-.44c-.77 0-2.51.47-2.57 4.1a2.58 2.58 0 0 1 2.24-1.28c1.5 0 2.91 1.26 2.91 3.47s-1.42 3.54-3 3.54a3 3 0 0 1-2.5-1.41 6.47 6.47 0 0 1-.8-3.59 10.48 10.48 0 0 1 .45-3.26 3.54 3.54 0 0 1 3.29-2.63 3.34 3.34 0 0 1 2.29.97zm-4.83 5.37c-.14 2 .83 3.5 2.12 3.5.9 0 1.82-.78 1.82-2.43 0-1.83-1-2.49-1.86-2.49a2.52 2.52 0 0 0-2.08 1.42z"/><path fill="none" stroke="#a3a3a3" stroke-linecap="round" stroke-linejoin="round" stroke-dasharray="5 5" d="M582.43 220.24v39.41M568.86 329.25h13.57v-41.16"/><path d="M569.49 277.33a1 1 0 1 1 1-1 1 1 0 0 1-1 1zM581.13 267.39l-.82.91c-.15-.11-.15-.27-.26-.38a1.86 1.86 0 0 0-1.23-.44c-.76 0-2.51.47-2.57 4.09a2.6 2.6 0 0 1 2.24-1.27c1.5 0 2.91 1.26 2.91 3.47s-1.42 3.54-3 3.54a3 3 0 0 1-2.51-1.41 6.47 6.47 0 0 1-.8-3.59 10.48 10.48 0 0 1 .45-3.26 3.55 3.55 0 0 1 3.29-2.63 3.34 3.34 0 0 1 2.3.97zm-4.82 5.37c-.14 2 .82 3.5 2.11 3.5.9 0 1.82-.78 1.82-2.43 0-1.83-1-2.49-1.86-2.49a2.5 2.5 0 0 0-2.07 1.42zM589.63 267.39l-.82.91c-.15-.11-.15-.27-.26-.38a1.86 1.86 0 0 0-1.23-.44c-.76 0-2.51.47-2.57 4.09a2.6 2.6 0 0 1 2.25-1.27c1.5 0 2.91 1.26 2.91 3.47s-1.42 3.54-3 3.54a3 3 0 0 1-2.51-1.41 6.47 6.47 0 0 1-.8-3.59 10.48 10.48 0 0 1 .45-3.26 3.55 3.55 0 0 1 3.29-2.63 3.34 3.34 0 0 1 2.29.97zm-4.82 5.37c-.14 2 .82 3.5 2.11 3.5.9 0 1.82-.78 1.82-2.43 0-1.83-1-2.49-1.86-2.49a2.5 2.5 0 0 0-2.07 1.42zM598.13 267.39l-.82.91c-.15-.11-.15-.27-.26-.38a1.86 1.86 0 0 0-1.23-.44c-.76 0-2.51.47-2.57 4.09a2.6 2.6 0 0 1 2.24-1.27c1.5 0 2.91 1.26 2.91 3.47s-1.42 3.54-3 3.54a3 3 0 0 1-2.51-1.41 6.47 6.47 0 0 1-.8-3.59 10.48 10.48 0 0 1 .45-3.26 3.55 3.55 0 0 1 3.29-2.63 3.34 3.34 0 0 1 2.3.97zm-4.82 5.37c-.14 2 .82 3.5 2.11 3.5.9 0 1.82-.78 1.82-2.43 0-1.83-1-2.49-1.86-2.49a2.5 2.5 0 0 0-2.07 1.42zM319.27 387.28a3 3 0 0 1 1.9 2.85 3.2 3.2 0 0 1-3.4 3.21 3.86 3.86 0 0 1-2.89-1.25l.93-1.11c.16.16.08.33.23.5a2.4 2.4 0 0 0 1.72.74A2.21 2.21 0 0 0 320 390c0-1.32-1.1-2.1-2.59-2.1a5.46 5.46 0 0 0-.56 0v-1a4.07 4.07 0 0 0 1.74-.28 1.92 1.92 0 0 0 1.18-1.73 1.8 1.8 0 0 0-1.92-1.72 2.65 2.65 0 0 0-1.9.85l-.68-.77a3.6 3.6 0 0 1 2.64-1.18 2.9 2.9 0 0 1 3 2.8 2.53 2.53 0 0 1-1.64 2.41z"/><path fill="none" stroke="#a3a3a3" stroke-linecap="round" stroke-linejoin="round" stroke-dasharray="5 5" d="M70.31 84.7v302.24H303.2M560.85 338.65v48.29H329.98"/><path d="M115.94 364.74a1 1 0 1 1 0-2 1 1 0 1 1 0 2zM128.06 354.41l-.86.94c-.16-.12-.16-.28-.26-.4a2 2 0 0 0-1.29-.46c-.79 0-2.61.5-2.68 4.27a2.71 2.71 0 0 1 2.34-1.33c1.56 0 3 1.31 3 3.61s-1.47 3.68-3.14 3.68a3.14 3.14 0 0 1-2.61-1.46 6.83 6.83 0 0 1-.83-3.74 10.72 10.72 0 0 1 .47-3.39 3.69 3.69 0 0 1 3.42-2.73 3.47 3.47 0 0 1 2.44 1.01zM123 360c-.15 2.06.86 3.63 2.2 3.63.93 0 1.89-.8 1.89-2.52 0-1.9-1-2.59-1.94-2.59A2.62 2.62 0 0 0 123 360z"/><path fill="none" stroke="#a3a3a3" stroke-linecap="round" stroke-linejoin="round" stroke-dasharray="5 5" d="M70.31 358.33h37.88M168.42 57.03v301.3h-29.96"/><path d="M259.54 364.56h-1.24v-9.51l-2.21.65-.29-.68 2.88-1.51h.86zM267.3 364.74a1 1 0 1 1 1.05-1 1 1 0 0 1-1.05 1zM277.55 358.66a3 3 0 0 1 1.89 2.85 3.2 3.2 0 0 1-3.39 3.22 3.87 3.87 0 0 1-2.9-1.26l.93-1.11c.16.16.08.33.23.5a2.39 2.39 0 0 0 1.72.75 2.21 2.21 0 0 0 2.22-2.25c0-1.32-1.09-2.09-2.59-2.09h-.56v-1a4.07 4.07 0 0 0 1.74-.28 1.92 1.92 0 0 0 1.16-1.69 1.8 1.8 0 0 0-1.92-1.72 2.65 2.65 0 0 0-1.9.85l-.68-.77a3.59 3.59 0 0 1 2.64-1.17 2.89 2.89 0 0 1 3 2.79 2.53 2.53 0 0 1-1.59 2.38zM286.39 358.66a3 3 0 0 1 1.89 2.85 3.2 3.2 0 0 1-3.39 3.22 3.89 3.89 0 0 1-2.9-1.26l.94-1.11c.15.16.07.33.22.5a2.4 2.4 0 0 0 1.73.75 2.21 2.21 0 0 0 2.22-2.25c0-1.32-1.1-2.09-2.59-2.09a5.12 5.12 0 0 0-.56 0v-1a4.11 4.11 0 0 0 1.74-.28 1.92 1.92 0 0 0 1.17-1.73 1.79 1.79 0 0 0-1.91-1.72 2.63 2.63 0 0 0-1.9.85l-.69-.77a3.6 3.6 0 0 1 2.65-1.17 2.9 2.9 0 0 1 3 2.79 2.52 2.52 0 0 1-1.62 2.42zM295.23 358.66a3 3 0 0 1 1.9 2.85 3.21 3.21 0 0 1-3.4 3.22 3.87 3.87 0 0 1-2.89-1.26l.93-1.11c.16.16.08.33.23.5a2.39 2.39 0 0 0 1.72.75 2.21 2.21 0 0 0 2.22-2.25c0-1.32-1.1-2.09-2.59-2.09h-.56v-1a4.07 4.07 0 0 0 1.74-.28 1.92 1.92 0 0 0 1.18-1.73 1.8 1.8 0 0 0-1.92-1.72 2.65 2.65 0 0 0-1.9.85l-.68-.77a3.59 3.59 0 0 1 2.64-1.17 2.89 2.89 0 0 1 3 2.79 2.52 2.52 0 0 1-1.62 2.42z"/><path fill="none" stroke="#a3a3a3" stroke-linecap="round" stroke-linejoin="round" stroke-dasharray="5 5" d="M380.99 56.73v301.6h-75.98M168.42 358.33h78.17M277.43 56.73V76.4M277.43 96.23v15"/><path fill="none" stroke="#a3a3a3" stroke-linecap="round" stroke-linejoin="round" stroke-dasharray="5 5" d="M315.58 148.15h41.9v3.37M315.58 182.55h41.9v-3.42M354.18 129.52h67.52v16.61M354.18 201.95h67.52v-22.87M260.68 111.23h33.49M260.68 220.24h33.49"/></svg>