<svg xmlns="http://www.w3.org/2000/svg" width="600" height="315.79" viewBox="0 0 600 315.79"><path fill="#bf0a30" d="M0 0h600v315.79H0z"/><path fill="#fff" d="M0 24.29h600v24.29H0zM0 72.87h600v24.29H0zM0 121.46h600v24.29H0zM0 170.04h600v24.29H0zM0 218.62h600v24.29H0zM0 267.21h600v24.29H0z"/><path fill="#002664" d="M0 0h240v170.04H0z"/><path fill="#fff" d="M23.81 11.54l-2.19 6.71h-7.06l5.72 4.15-2.19 6.72 5.72-4.15 5.71 4.15-2.18-6.72 5.71-4.15h-7.06l-2.18-6.71zM55.87 11.54l-2.18 6.71h-7.06l5.71 4.15-2.18 6.72 5.71-4.15 5.71 4.15-2.18-6.72 5.71-4.15h-7.06l-2.18-6.71zM87.94 11.54l-2.19 6.71h-7.06l5.72 4.15-2.19 6.72 5.72-4.15 5.71 4.15-2.18-6.72 5.71-4.15h-7.06l-2.18-6.71zM120 11.54l-2.18 6.71h-7.06l5.71 4.15-2.18 6.72 5.71-4.15 5.71 4.15-2.18-6.72 5.71-4.15h-7.06L120 11.54zM152.06 11.54l-2.18 6.71h-7.06l5.71 4.15-2.18 6.72 5.71-4.15 5.72 4.15-2.19-6.72 5.72-4.15h-7.06l-2.19-6.71zM184.13 11.54l-2.18 6.71h-7.06l5.71 4.15-2.18 6.72 5.71-4.15 5.71 4.15-2.18-6.72 5.71-4.15h-7.06l-2.18-6.71zM212.66 22.4l-2.18 6.72 5.71-4.15 5.72 4.15-2.19-6.72 5.72-4.15h-7.06l-2.19-6.71-2.18 6.71h-7.06l5.71 4.15zM23.81 43.42l-2.19 6.71h-7.06l5.72 4.15L18.09 61l5.72-4.15L29.52 61l-2.18-6.72 5.71-4.15h-7.06l-2.18-6.71zM55.87 43.42l-2.18 6.71h-7.06l5.71 4.15L50.16 61l5.71-4.15L61.58 61l-2.18-6.72 5.71-4.15h-7.06l-2.18-6.71zM87.94 43.42l-2.19 6.71h-7.06l5.72 4.15L82.22 61l5.72-4.15L93.65 61l-2.18-6.72 5.71-4.15h-7.06l-2.18-6.71zM120 43.42l-2.18 6.71h-7.06l5.71 4.15-2.18 6.72 5.71-4.15 5.71 4.15-2.18-6.72 5.71-4.15h-7.06L120 43.42zM152.06 43.42l-2.18 6.71h-7.06l5.71 4.15-2.18 6.72 5.71-4.15 5.72 4.15-2.19-6.72 5.72-4.15h-7.06l-2.19-6.71zM184.13 43.42l-2.18 6.71h-7.06l5.71 4.15-2.18 6.72 5.71-4.15 5.71 4.15-2.18-6.72 5.71-4.15h-7.06l-2.18-6.71zM216.19 43.42l-2.18 6.71h-7.06l5.71 4.15-2.18 6.72 5.71-4.15 5.72 4.15-2.19-6.72 5.72-4.15h-7.06l-2.19-6.71zM23.81 75.3l-2.19 6.72h-7.06l5.72 4.15-2.19 6.71 5.72-4.15 5.71 4.15-2.18-6.71 5.71-4.15h-7.06l-2.18-6.72zM55.87 75.3l-2.18 6.72h-7.06l5.71 4.15-2.18 6.71 5.71-4.15 5.71 4.15-2.18-6.71 5.71-4.15h-7.06l-2.18-6.72zM87.94 75.3l-2.19 6.72h-7.06l5.72 4.15-2.19 6.71 5.72-4.15 5.71 4.15-2.18-6.71 5.71-4.15h-7.06l-2.18-6.72zM120 75.3l-2.18 6.72h-7.06l5.71 4.15-2.18 6.71 5.71-4.15 5.71 4.15-2.18-6.71 5.71-4.15h-7.06L120 75.3zM152.06 75.3l-2.18 6.72h-7.06l5.71 4.15-2.18 6.71 5.71-4.15 5.72 4.15-2.19-6.71 5.72-4.15h-7.06l-2.19-6.72zM184.13 75.3l-2.18 6.72h-7.06l5.71 4.15-2.18 6.71 5.71-4.15 5.71 4.15-2.18-6.71 5.71-4.15h-7.06l-2.18-6.72zM216.19 75.3l-2.18 6.72h-7.06l5.71 4.15-2.18 6.71 5.71-4.15 5.72 4.15-2.19-6.71 5.72-4.15h-7.06l-2.19-6.72zM23.81 107.19l-2.19 6.71h-7.06l5.72 4.15-2.19 6.71 5.72-4.15 5.71 4.15-2.18-6.71 5.71-4.15h-7.06l-2.18-6.71zM55.87 107.19l-2.18 6.71h-7.06l5.71 4.15-2.18 6.71 5.71-4.15 5.71 4.15-2.18-6.71 5.71-4.15h-7.06l-2.18-6.71zM87.94 107.19l-2.19 6.71h-7.06l5.72 4.15-2.19 6.71 5.72-4.15 5.71 4.15-2.18-6.71 5.71-4.15h-7.06l-2.18-6.71zM120 107.19l-2.18 6.71h-7.06l5.71 4.15-2.18 6.71 5.71-4.15 5.71 4.15-2.18-6.71 5.71-4.15h-7.06l-2.18-6.71zM152.06 107.19l-2.18 6.71h-7.06l5.71 4.15-2.18 6.71 5.71-4.15 5.72 4.15-2.19-6.71 5.72-4.15h-7.06l-2.19-6.71zM184.13 107.19l-2.18 6.71h-7.06l5.71 4.15-2.18 6.71 5.71-4.15 5.71 4.15-2.18-6.71 5.71-4.15h-7.06l-2.18-6.71zM216.19 107.19l-2.18 6.71h-7.06l5.71 4.15-2.18 6.71 5.71-4.15 5.72 4.15-2.19-6.71 5.72-4.15h-7.06l-2.19-6.71zM25.99 145.78l-2.18-6.71-2.19 6.71h-7.06l5.72 4.15-2.19 6.72 5.72-4.15 5.71 4.15-2.18-6.72 5.71-4.15h-7.06zM58.05 145.78l-2.18-6.71-2.18 6.71h-7.06l5.71 4.15-2.18 6.72 5.71-4.15 5.71 4.15-2.18-6.72 5.71-4.15h-7.06zM90.12 145.78l-2.18-6.71-2.19 6.71h-7.06l5.72 4.15-2.19 6.72 5.72-4.15 5.71 4.15-2.18-6.72 5.71-4.15h-7.06zM122.18 145.78l-2.18-6.71-2.18 6.71h-7.06l5.71 4.15-2.18 6.72 5.71-4.15 5.71 4.15-2.18-6.72 5.71-4.15h-7.06zM154.25 145.78l-2.19-6.71-2.18 6.71h-7.06l5.71 4.15-2.18 6.72 5.71-4.15 5.72 4.15-2.19-6.72 5.72-4.15h-7.06zM186.31 145.78l-2.18-6.71-2.18 6.71h-7.06l5.71 4.15-2.18 6.72 5.71-4.15 5.71 4.15-2.18-6.72 5.71-4.15h-7.06zM218.38 145.78l-2.19-6.71-2.18 6.71h-7.06l5.71 4.15-2.18 6.72 5.71-4.15 5.72 4.15-2.19-6.72 5.72-4.15h-7.06z"/></svg>