<svg xmlns="http://www.w3.org/2000/svg" width="246" height="300" viewBox="0 0 246 300"><title>flag-michigan-icon-man</title><path d="M70,86.61l-.36-.47,0,0,.4.43" fill="#fff" stroke="#000" stroke-linecap="round" stroke-linejoin="round" stroke-width="1.5"/><path d="M70.1,103v-1c0-3.83-1.93-8.7-2.42-10.13a7.38,7.38,0,0,1,.44-3.29L66.72,91l2.91,7.72L70.1,103" fill="#fff" stroke="#000" stroke-linecap="round" stroke-linejoin="round" stroke-width="1.5"/><path d="M94.15,167.4l4.72,0c-.41-7.12-.75-11.28-.75-11.28s-2.25,6.16-4,11.24" fill="#fff" stroke="#000" stroke-linecap="round" stroke-linejoin="round" stroke-width="1.5"/><path d="M86.53,148.93c1-8.7,1.92-6.79,1.45-11.1s0,1.4-.49-6.8-1.93-10.13-1.93-10.13a65,65,0,0,1-10.63-1,6,6,0,0,1-4.83-5.79v-5.88c-1.19,2-4.93,7.35-14,12.62-11.57,6.76-12.53,13.53-4.83,13.53s5.79-3.87,15.46,3.87,8.7,6.76-9.67,2.89-13.49-3.87-21.25-1.92-12.54,2.87-5.8,5.79,12.57,5.78,4.83,7.74a97.85,97.85,0,0,1-15,2.4C27.6,160,30,161.94,35.32,162.94s5.31,0,11.12,2.4,2.89,2.91,9.18,2.44,11.1-2,15-.53l12.71.07a186.07,186.07,0,0,0,3.23-18.39" fill="none" stroke="#000" stroke-linecap="round" stroke-linejoin="round" stroke-width="1.5"/><path d="M229,86.14C219.37,89,214.55,90,211.64,82.25s-14.5-4.82-19.31-2.87a48,48,0,0,1-14.5,2.87c-2.89,0-13.52-6.74-7.72-8.69S173,58.1,156.59,63.9s-29,3.87-17.39,8.7S157.55,85.18,144,89s-18.35,8.7-23.18,9.66-3.87,2.91-9.67-5.79-8.7-15.45-17.39-8.71S87,96.75,83.17,99.62s-6.76,2.92-6.76,2.92L73.12,91.88c.61,2.51,1.53,6.38,1.83,8.23a28.23,28.23,0,0,0,1.46,5.3l1.45,5.35,5.31-.51a20.79,20.79,0,0,0,2.88-3.87c1.44-2.4,4.35.51,4.35.51s1-1,.47-3.38-1.44-1.93.49-6.76,1.93-4.34,6.76-5.8,5.79,1,7.74,4.33-.49,4.83-.49,7.74a7.39,7.39,0,0,1-1.93,4.83s4.35,3.87,4.84,7.23,1.43,4.34,1.43,4.34a30.38,30.38,0,0,0,10.16,2,91.19,91.19,0,0,1,11.59,1l-1,3.34a14.41,14.41,0,0,1-4.36,1c-1.93,0-3.86,1.93-8.69,2.44a44.5,44.5,0,0,1-8.7,0l-1.93,7.7a62.92,62.92,0,0,0,.47,7.74c.33,1.93,1.48,13.35,2.23,22.94l131.77.74V81.27S238.7,83.17,229,86.1" fill="none" stroke="#000" stroke-linecap="round" stroke-linejoin="round" stroke-width="1.5"/><path d="M194.61,168.17a15.64,15.64,0,0,0,3.93-10.42,15.88,15.88,0,1,0-28.45,9.69" fill="#fff" stroke="#000" stroke-linecap="round" stroke-linejoin="round" stroke-width="1.5"/><path d="M121.79,262.65s-82-22-101.44-26.85-18-13.63-18-23.88V37.35h239V211.92c0,10.25,1.45,19-18,23.88s-101.43,26.85-101.43,26.85" fill="none" stroke="#000" stroke-linecap="round" stroke-linejoin="round" stroke-width="1.5"/><path d="M2.47,150.84c5.33,0,9.67-.47,17.39,4.36s10.14,6.74,15.46,7.7,5.29,0,11.12,2.44,2.87,2.91,9.16,2.4,11.1-1.93,15-.49,11.1,3.4,11.1,3.4m30,8.23s1.43.94,8.68,2.39,1.45-1.45,9.67,0,7.25,2.44,13.52,4.82a94.32,94.32,0,0,0,10.15,3.4s4.8.49-7.74,2.91-16.9,4.32-21.73,5.79S102,201.55,86.53,203s-24.15,1-36.71,2.87-18.84.5-27,2S2,211.22,2,211.22m238.15-43.44H109.84m-11.42,0H93.53m-10.87,0H71.37m8.4,21.71c3.87-1.91,5.79-2.4,9.17.49,0,0,2.91-13.5,3.38-16.43s5.8-17.39,5.8-17.39.49,5.78.94,15.49-1.41,14,4.84,15.44,10.15,0,10.15,0-3.87-1-3.87-7.74-2.41-31.89-2.89-34.78a63,63,0,0,1-.47-7.74l1.91-7.7a44.5,44.5,0,0,0,8.7,0c4.84-.51,6.76-2.44,8.69-2.44a14.41,14.41,0,0,0,4.36-1l1-3.34a91.19,91.19,0,0,0-11.59-1,30.46,30.46,0,0,1-10.16-2s-.94-1-1.41-4.34-4.84-7.23-4.84-7.23a7.43,7.43,0,0,0,1.91-4.84c0-2.9,2.42-4.34.49-7.74S103,89.52,98.1,91s-4.81,1-6.74,5.8-1,4.32-.49,6.74-.47,3.4-.47,3.4-2.91-2.91-4.35-.51a21.34,21.34,0,0,1-2.9,3.87l-5.31.47-1.45-5.31a28.52,28.52,0,0,1-1.46-5.3c-.49-2.89-2.41-10.63-2.41-10.63l-3.38-3.87S67.23,90.48,67.7,92s2.42,6.27,2.42,10.1v12.11A6,6,0,0,0,74.93,120a65,65,0,0,0,10.63,1S87,122.82,87.49,131s0,2.44.49,6.8-.49,2.4-1.45,11.1a200.61,200.61,0,0,1-4.35,23.15C81.22,176,79.77,189.49,79.77,189.49ZM91.85,174l7.23,2.44" fill="none" stroke="#000" stroke-linecap="round" stroke-linejoin="round" stroke-width="1.5"/><path d="M28.56,222.83c11.6,0,15.94-2.91,23.19-2.91s11.57,0,21.71-2.89,39.14-5.77,26.09-1.43-8.7,5.79,11.6,4.32S144.49,217,143,212.69s.48-1.43-11.12-.49-12.55-.94-12.55-.94,3.87-4.84,11.59-3.89,19.33-.44,23.68-1.44,9.17,4.36,3.85,5.33-2.4,4.34,1.45,4.81,6.78,9.67-15.93,8.23-29.95,1-45.41,1.44-34.3,1-26.09-1.44,12.55-3.87-6.29-1-16.39.49-31.38,1.43-22.69,1-22.69,1l16.42-2.87"/><path d="M158.38,195.51c-11.59,1.1,15.79-1.77,21.43-2.36s18.26-2.4,7.21.36-10.45,3-1,2.74a86.12,86.12,0,0,0,16.08-1.82c.83-.15,6,0,6,0s6.62.15-10.26,2.39-29.94,3-24.37,1.89,17.67-2.62,3.72-2-17.2,0-11.59-.85-1.55-.92-7.2-.32"/><path d="M240.15,184.73s7.73.92-7.25.34-20.29-.34-20.29-.34-5.8-.28,6.28,1.26,27.06,3.14,15,3.76-17.88,1.87-14,2.51,5.79.32,9.66-.34a29.67,29.67,0,0,1,7.73,0l3.87.66v6.27s2.41.3-8.71.3-27.52.63-19.31.93,11.59.28,16.9.28h11.57"/><path d="M129.52,171.65c4.36,0,17.4,1.39,11.59,1.39s-8.21,1.48,1,2,16.88.47,16.88.47l-17.86,1.43s-11.59,0-9.18-1-4.34-2.4-4.34-2.4l-3.38-2.41,5.31.47"/><path d="M188,231.53c18.35-.53,14.5-2,35.76-5.83s1.92-7.7-11.12-10.1,21.75-4.34,17.88-5.31-26.57,1-41.07,1-2.89,8.66,12.09,10.13-16.92,3.35-31.89,3.88c0,0,6.28,2.87-24.15,4.3s-52.18,1.93-39.14,3.87,64.74,2.44,29,5.8-46.37,1.47-53.62,2.9-22.22,3.36-22.22,3.36,17.39,4.35,18.84,4.35-4.83-1.91,16.92-1.91,36.23-1.43,53.62-3.4,45.88-5.78,29-7.23-27.53-3.87-14-3.87A151.85,151.85,0,0,0,188,231.53"/><path d="M127.27,161.32h35.87v-3.76H127.27Z"/><path d="M163,153.77,131.56,150l-.34,2.89,31.45,3.8.36-2.87"/><path d="M163.92,149.86l-33.18-14.69-1.17,2.66,33.17,14.67,1.18-2.64"/><path d="M166.26,146.16,139,129.94l-1.47,2.47,27.22,16.22,1.48-2.47"/><path d="M168.65,142.91,141,112.46l-2.16,2,27.68,30.45,2.13-2"/><path d="M172.32,140.47,154,114.63l-2.36,1.66,18.33,25.88,2.38-1.7"/><path d="M175.81,138.49,160.72,93.14,158,94l15.06,45.39,2.76-.93"/><path d="M180.11,137.79l-6.28-31.09-2.85.6,6.3,31,2.83-.58"/><path d="M184.12,137.38l4.59-47.6-2.89-.3-4.57,47.62,2.87.28"/><path d="M188.37,138.42l6.81-30.95-2.83-.62-6.82,31,2.84.59"/><path d="M192.2,139.7,215.65,98l-2.53-1.39-23.45,41.67,2.53,1.43"/><path d="M195.63,142.36l18.77-25.5-2.34-1.74-18.75,25.54,2.32,1.7"/><path d="M198.64,145.1l38.3-28.62-1.73-2.32L196.9,142.78l1.74,2.32"/><path d="M200.69,149l27.49-15.78-1.43-2.51-27.49,15.74,1.43,2.55"/><path d="M202.34,152.61l32.26-7.38-.64-2.79-32.27,7.38.65,2.79"/><path d="M202.66,157l31.53-3.31-.3-2.89-31.53,3.29.3,2.91"/><path d="M202.68,161l29.37,5.68.55-2.83-29.38-5.69-.54,2.84"/><path d="M127.59,126.69l-5.31,41.56-2.41,4.36-2,.94,1.46,1.46-2.87,10.61,3.83,1L122.28,174a32.4,32.4,0,0,0,2.89-7.27c1-3.87,4.35-40.55,4.35-40.55"/><path d="M79.77,189.49s5.3-2.87,8.68-.47-.47,3.87-2.4,3.87-6.28-3.4-6.28-3.4"/><path d="M114.07,187.58l1,1.44s-1.45.47-6.28.47a11.56,11.56,0,0,1-7.72-2.87"/><path d="M129,120.9l2.42-14,1.44.49-1.93,14"/></svg>