<svg xmlns="http://www.w3.org/2000/svg" width="108" height="300" viewBox="0 0 108 300"><title>flag-maine-icon-farmer</title><path d="M100.07,267.13c-3.08-3.57-4.23-7.92-6.55-11.77-4.63-12.36-9.36-25.87-9.45-38.1-.58-7.71.86-17.85,2.12-26.15.62-1.23.63-2.72,1.3-3.9a31.18,31.18,0,0,0,1.23-4.93c.13-.8.18-1.62.29-2.43,0,0,0,0,0-.08a6.73,6.73,0,0,1,.32-1.81,1.74,1.74,0,0,1-.11.18c1.15-2.31-.29-5.1,3.28-5.4a4.09,4.09,0,0,0,1.74-1.93L94,169.75l.08,0a.53.53,0,0,1-.08-.17,6.59,6.59,0,0,0-.56-1.46,16.37,16.37,0,0,1-1.66-1.21,4.43,4.43,0,0,1-1-2.89c.19.09.28-.19.48-.4.19-2.5-.48-5.2,1.73-7.11,1.56-1.65,3.87-1.28,5.72-1.38.07-.45.13-.9.2-1.35h-.12c.59-6.55,1.41-12.59,1.8-18.38.05,0,1.41-10.33,1.72-10.29.1-.6.22-1.21.29-1.81v0a79.49,79.49,0,0,1,1.67-8.7,2.46,2.46,0,0,0,1.81-1.24,8.6,8.6,0,0,0,.37-4q-1.2-1.91-2.39-3.81c-1.46-4.4-4.86-9.32-5.46-14.07A15.13,15.13,0,0,1,98.15,89c-.14-.79-.38-1.54-.56-2.31a1.63,1.63,0,0,1-.11-.17l-.12-.13A35.42,35.42,0,0,0,89.9,72.54c-2-6.37-9.64-5-14.46-5.87a13.31,13.31,0,0,0-2.72-.38l-1.2-.11c.68-3.85,0-7.65,1.25-11.91.29-.09.36.21.65.21,1.94-1.34,4.14-2.78,6.26-4.13A14,14,0,0,0,83,40.23c-2.22-5.39-4.56-10.82-8.71-15.44-2.73-2.26-6.35-1.16-9.3-.76a.59.59,0,0,0,.22-.77l-1.52-1.9c-.34,0-.7-.05-1-.05a7.78,7.78,0,0,0-1,.05c-4.49.46-7.9,3.29-11.86,4.9-2,1.14-1.4,3.85-1.52,5.71l-.06.81V33a19.08,19.08,0,0,0-7.78,3.31c-5.58,2.61-6.09,9.07-6.47,14.09-.2,2.2,1.48,3.85,3.21,4.62,2.8,1.27,5.57,3.29,8.65,3.49.88-.39,2.23.83,2.23-.33,2.7.49,2.76,3.81,3,5.44-.28.78-.75,0-1.14,0l-.38.65c-1.84.57-3.37,1.93-5.49,1.74-3.86,1.84-8.2,2-12.35,3.1-4.53,1.61-7.23,6.75-11.85,7.83-4.54-.38-5.68,5.07-10.5,3.81a8.59,8.59,0,0,0-6.1,8.1c-.09,2.31-.77,5.2,1.75,6.48,2.69,9.62,6.35,19.48,14.36,26.54-7,7.22-14.74,14.26-17.74,24-1,1-.61,1.51-.87,2.77.19.49.41,1.68,1.47,1.41a162.38,162.38,0,0,1,22.36-19.14l.21.16c-1,2.33,1.94,3.51,2.23,5.71A2.27,2.27,0,0,1,25.13,138c-.78,1,.66,2.31,1.63,2.89a3.6,3.6,0,0,0,2.61-.66c.77.19,1.73-.87,2.61-.49,0,.79-1,.7-1.09,1.36h.71c.87,7.43,2,14.4,1,21.05-1.44,8.31,2.93,16.1,3.7,24.1,2.23,8.58-3,18.64.27,26.92.78,8,4,15,4,23.12-.47,2.89-.38,6.24-.76,9.62-.1,1.93,1,3.44.38,4.79-.59-.7-1.36,0-2.13,0a70,70,0,0,0-.27,7.78c.68,2.68,4.33,1.7,6.26,2.39-1,2.51-.28,5.43-1.91,7.67a19.22,19.22,0,0,1-6.09,5.39,9.11,9.11,0,0,1-.87,2.39h-.06a3.09,3.09,0,0,0,.22.87.93.93,0,0,1,0,.22h0a3.08,3.08,0,0,0,1.26.38s5.21.29,8.2.19c5.59-.12,10.76-.26,16-.33a5.77,5.77,0,0,0,.6-1.19l0-.09h-.07c.78-3.1-.57-6.35-.49-9.35-.28-2.31.87-5.22,0-7.83a4.26,4.26,0,0,0,2-.87c.28-2.8,1.51-5.38,1-8.27-.86-3.19.21-6.68-1.63-10-2.41-10.53-.79-19.48-1-30.19.48-8.77-.63-19.5,2.94-29,2.12,9.65,4.59,20.35,7.29,29.7,2.8,10.32,7.84,20.39,8.32,31a12.57,12.57,0,0,1,.55,2.78l1,2.5c-1.16,5-2.33,10.05-4.68,14.74-2.12,5-7.43,15.6-7.62,16,.58,0,1.14,0,1.74,0,.39.3,2.54.24,5.1.12a18.85,18.85,0,0,0,.87-2.07h-.09c2-5,3.79-10.28,6.09-15a64.72,64.72,0,0,1,1.91,15.61h0c0,.1,0,.2,0,.3a8,8,0,0,1,0,.86c4,0,7.74.56,11.67.64v0a1.19,1.19,0,0,1,.13-.89h0c.29-.78-.7-1.44.16-1.91a8.53,8.53,0,0,1,2.58,2,1.17,1.17,0,0,1,.27.42c.27.23.55.46.8.72l.43.05a1.3,1.3,0,0,1,.46-.1,8.29,8.29,0,0,1,3.58.41h1.74a1.12,1.12,0,0,1,.66-.19,3.64,3.64,0,0,0,.86-.12C104.81,274.91,101.72,271.27,100.07,267.13ZM27.68,114.75c-1.54-4.81-5-8.27-6.74-13,3.46,1,7.52.12,9.73-2.77-1.14,4.53,0,8.84.38,13.27C30,113.41,28.75,113.6,27.68,114.75Zm55.05,24.42c-.68-3.08-1.72-5.71-1.53-9,.68-.2.66-1,1.14-1.53a8.73,8.73,0,0,0,.39-1.74c.63-5.67-1.34-9.88-2.78-15l-.11-1a39.76,39.76,0,0,1,14,2.94l.6-.55c.77.31-.18.93.11,1.53-1.36,10.4-2.72,22.07-3.1,32.09-.39,4.34-1.65,7.93-1.36,12.35C87.84,152.57,83.88,146.51,82.73,139.17Z"/><path d="M72.67,66.3a1.35,1.35,0,0,0-.54.15c0,.14.08.26.13.41"/><path d="M48.71,31.89c.08-.51-.14-1.26.17-1.71,2.12-.86,4.06-2.59,6.47-2.4l-.2-.58c-2,0-3.95,1.35-5.88,2.12l-.39-.38c.3-.11.1-.49.19-.67a25.5,25.5,0,0,0,5-2c-1.74-.1-3.37,1.35-5,1.35,2.9-3,7.14-3.85,10.72-5.61,1.34-.26,3.76-1,4.33.88,1.74,2.4-2.69,2.89-3.08,5.2-2.23.49-3.87,2.33-6.08,2.61a23.49,23.49,0,0,1-6.17,2.12l-.08-.9" fill="#fff"/><path d="M73.19,25a35.88,35.88,0,0,1,4.72,6.55c-1.06-.47-3-2.31-4.91-2.61a.84.84,0,0,0-.3.87,11.82,11.82,0,0,1,4.35,2.33A5.28,5.28,0,0,1,78.4,35c.29.49.58-.08.86-.08v-.18c1.74,3.08,3.56,6.45,2.22,10.19-.09-5.3-2.89-10.5-7.9-12.62l-1.06-.39c-.2,1.74,2.31,1.45,3.27,2.61a13.2,13.2,0,0,1,4,13.2c.58.88-.68,1.55-1,2.23C80,45.71,79,40.5,75.6,37.5c-1.15-1.63-2.9-2.2-4.54-2.77.11,1.14,2,1.14,2.8,2a12.46,12.46,0,0,1,3.67,13l-.19.19c.19.18.48.38.39.67l-.68.38c.68-2,1-5.58-.87-7.42a26,26,0,0,0-4.73-4.52l-.19.17c2.22,2.8,6.47,5.41,5,10-.08.86-1.25,1.64-.28,2.41a32.27,32.27,0,0,0-3,1.74c.48-3.29.85-7.9-1.07-10.9-4.53-4.42-11-4.34-16.58-3.18-5.21,1.55-8.49,6.75-9.75,11.49a11.19,11.19,0,0,0,1.16,6.72,3.85,3.85,0,0,1-2.89-.26c-.29-2.22-1.06-5.12,0-7.63.19-2.62,1.55-4.63,2.6-7-.19-.28-.19-.56-.57-.75C43,45,42.34,49.27,41.76,53.42A7.22,7.22,0,0,0,43,56.69c-.58.3-1.35-.66-2.13-.85-.28-4.45.59-10.62,3.48-14.85L45,40.6c-.49-.3-.68-1.16-1.36-.88-3.76,4.64-4.33,10-3.66,15.63-1,.29-1.16-1.25-1.54-2.12a8.14,8.14,0,0,1,.87-4.43l-.49-.56C37,49.48,37.12,52,37.42,54c.18.1.18.29.18.49-1.82-.67-.86-2.61-.86-4.13.86-2.62,1.54-5.31,3.48-7.55,0-.09.09-.86-.39-1-3.19,2.62-4,6.57-4.44,10.43-.57-.67-.48-2.51-.39-3.65,1.16-2.91.3-6.67,2.8-9.07a21.64,21.64,0,0,1,13-6.37c-2,1.24-5.12,1.83-5.22,4.63l.3.39c2.5-3.1,6.36-4.17,9.74-5.61,2.79-1.15,7.13-.08,8.39-3.65-1.06-.78-1.46.67-2.51.87-1.35.37-2.71.76-4.15,1.05,1.64-1.74,4.92-1.74,5.79-4.53,2.21-2.59,6.94-3.19,10-1.35" fill="#fff"/><path d="M59.29,36.08c-1.82,1.14-4.62.56-6.45,1.42-1.45.88-3.38,1.66-4.64,2.9-.28,0-.66.2-.86-.18,2.7-3.37,6.94-4.35,11.09-5,.29.28,1.26.1.86.88"/><path d="M71.45,44.07c.59,3.08,1.25,5.69,0,8.49-1.73-.08-2,1.54-3.08,2.4-.49.88,1.83,2.16.77,2.63-.29.49-1.64.86-1.64,1.43-.29-.1-.38.18-.58.28.09,1.15,2.83,1.8,2.54,3-.67-.39-2.34-1.4-3.21-1.31-1.32,2.17,4.1,2.35,2.25,4.21a6.42,6.42,0,0,1-2.64-.06c-1-1,.1-3.18-1.74-3.49-.87.39-.48,1.48-.28,2l.86,1.64c-1.35.2-1.06-1.45-1.54-2.13a.58.58,0,0,0-.19-.39h-.2c-.57,1.17.2,2.23.68,3.19-.19-.19-.39-.47-.68-.37l-.48.67a.67.67,0,0,0-1-.1c-.39-.39,0-.87.19-1.27l-1.06-.18c-.29-1.14,1.25-2,.48-2.88s-2.69,1.54-2.21-.88c1.92-1.82,2.5,1.46,4.82.3.47.2.77-.19,1.05-.49v-.37c.58.08,1.45.67,1.93,0-.48-1.45-1.74-.77-3-1.17-1.83,0-4.16-.28-5.69.88.09-.77-.77-1.44-1.45-1.65a4.4,4.4,0,0,0-2.69,2.12c.09-.86,1-2.69-.58-3.65h-.87a1.51,1.51,0,0,0-.48-2h-.38c0-.37-.3-.46-.48-.75L49.77,55c1.64-1.44-1.16-2.89.86-4,.38-2,.58-3.75,1.06-5.58,1.35-.78-.38-3.08,2-2.61.77-1.06,2.21-1.25,2.6-2.59,5.12-.31,11.67-1.55,15.14,3.85" fill="#fff"/><path d="M60.56,46.19v2.22c-.77.19-1.07-.67-1.64-1-.11.18-.49.38-.29.67l.18.21c-1.92,1.52-3.27-2.23-4.72,0a1,1,0,0,1-.38-1.37c.29-.78,1.16-.86,1.73-1.07,1.45-.47,2.61.88,4.05.88a2,2,0,0,0-1.25-2.23,5.59,5.59,0,0,0-4.63.3c-.29-.09-.19-.3-.19-.47a5.17,5.17,0,0,1,7.14,1.91"/><path d="M69.33,44.75c-1.25.09-3.08-.3-4,1a13.65,13.65,0,0,1,4.53,2.12,4.87,4.87,0,0,1-4.72-.56l-.29,1c-1-.49-1.16-1.93-1-3.08.38-.88,1.16-1,1.92-1.44a6.75,6.75,0,0,1,3.57.86"/><path d="M45,55v1.73h-.68c.48-1.13-.68-3,.19-4.32.77.77.39,1.63.49,2.59"/><path d="M65.86,54A2.3,2.3,0,0,1,65,56.43a3.07,3.07,0,0,1-2.71-.21l-1.06-.85c-.57.29-.67,1-1,1.24-.58-.86.38-1.44.67-2.12l.38-.39c.86.68,1.64,2.61,3.28,1.65a2,2,0,0,0,.67-2.12c.3-.09.49.19.68.39"/><path d="M53,58.17v.47l-.68-.47c.29-.21.4-.21.68,0" fill="#fff"/><path d="M68.65,59.2c.29.21-.57-.75-.19-1l.19,1" fill="#ffd1d1"/><path d="M57.76,61.92c-.87.57-.59,1.73-.87,2.5.87.47-.49-.18-.38-.56-.59-.21-.59,2.14-.86,2.42l.79-.47-2.1-1.3c-.47-.76.42-1.42.62-2.59l.68.85c.76,0,.19-.77.87-1-.3-.67-.78.49-.87-.39.28-.66.76-1.62,1.53-1.24-.18,1,1,.77.59,1.74" fill="#fff"/><path d="M54.48,61.63c-.48-.21.09-.68.09-1.06.19.47-.29.57-.09,1.06" fill="#fff"/><path d="M58.92,65.77c.28-.56-.49-2.4.77-2.79-1.26,1.14,1.74,3.47-.77,2.79" fill="#fff"/><path d="M58.05,64.51c-.49-.18-.38-1-.1-1.35,0,.49.58.88.1,1.35" fill="#fff"/><path d="M57.76,65.29l-.59.48v-.88c.3-.07.39.21.59.4" fill="#fff"/><path d="M97.11,89.21c-.68.78-2.22.78-3.28.67" fill="#fff"/><path d="M93.54,91l1.35.38c.67-.38,1.74-.78,2.22-.38" fill="#fff"/><path d="M93.83,89.9c-4-.49-8.4-.49-12.34-.69,0-1.83.29-4.53-1.55-5.59-.77.38,0,1.06-.19,1.64.38,1.15,0,2.61.38,3.77l.2.18a17.31,17.31,0,0,1-4,1.27c-1.45,1-3.67.67-4.83,2.2l-2.6.48c1.64-1,2.41-2.61,3.28-4.34,2.8-3.07,1.93-10.81,7.52-10,1.45-.07,1-1.81.88-2.79-2.23-2.8-5.4-5.3-6.67-8.49,4.73,1.07,9.27.11,13.22,2.61,2.41,4,.87,8.88-.68,12.82a.93.93,0,0,0,.87.4c1.55-2.89,2.8-6.07,2.22-9.56h.19c1.55,2.12,3.95,4.34,2.8,7.24-.58,1.92-2.13,3.57-2.32,5.4,1.83-.66,2.12-2.41,3.19-4,.18-.67.18-1.45.68-1.92a54.06,54.06,0,0,1,3.07,8.67V91a31.35,31.35,0,0,0,2.5,7.81,97.39,97.39,0,0,0-26-.4c.27-.67-.58-1.73-.39-2.4a2.94,2.94,0,0,1-.49-2.22l1.16-.67-.19-.19c6.18-3.57,13.12-2,19.87-1.93l.29-1" fill="#fff"/><path d="M18.31,96.35c1.45,1.73-.67,3.57,1.54,4.62,1,5.41,5.6,9.27,6.85,14.47-2.5,1.94-4.34,3.76-6.46,5.41.28-.39-.48,0-.87-.39-7.72-7-11.19-16.48-13.89-25.85l-.2-.17c1.94-2.62,4.16-3,7.53-2.44,2.22.28,4.34,2.33,5.5,4.35" fill="#fff"/><path d="M72.13,97.41c-.58,2.71-4,3-5.69,5-1.26,1.84-5,2.23-4,4.82.09.69.58,1.08.86,1.55-.57.95-1.82.39-2.69.57,0-3.26.57-6.47,2.6-8.67-.29-.2-.29-.57-.59-.67-1.14.1-1.63,1.35-2.21,2.23a25,25,0,0,0-1.07,6.46c-1,.26-1.62-.49-2.4-.78-1.83-3.48,1.44-7,3.67-9.57a1,1,0,0,0-.59-1c-2.89,2.89-6,6-4.62,10.71-.87.49-1.26-.67-1.74-1.06-1.25-4,.48-6.94,2.7-9.65-.19-.47-.58-.36-1-.36a9.55,9.55,0,0,0-3.18,9.52c-.29-1.92-2.21-4.32-1.06-6.45,3.57-7.71,12.54-5.3,19-6.18,1.73.1,1.64,2.23,2,3.47" fill="#fff"/><path d="M99.91,100.12c2.12,2.69,2.8,6.26,4.92,9.06-.1,1.06.86,2.12.29,3a5.37,5.37,0,0,0-2.23-3.39c-2.79-1.17-6.74-.86-8.86,1.06a3.59,3.59,0,0,0-1.27,1.92c-15-4.81-31.63-1.15-46,4.16A176.58,176.58,0,0,0,2,148.73C4.23,136.47,14.45,129,23,120L27,116.61c.19-.3,5.4-3.68,5.59-4.15,5.31-4.16,11.57-5.89,17.56-8.5.77,1.73.86,4.63,3.47,4.83a2.88,2.88,0,0,0,2,.57c.76-1.06,2,.59,3.17.49,1.74,1.14,3.47.75,5.21.36,1.63-1.52-1.83-3.17.09-4.71,4.44-3.57,10.13-4.13,16.21-4.53a53.22,53.22,0,0,1,15.62.58c-.19,1.34-1.55,2.61-1.25,4,.86.29.67-.66,1.45-.85.09-.88,1-1.94,1.34-2.92-1.06-2.2-3.57-1.53-5.59-1.92-7.43-1-14.47,0-21.32,1.16,3.48-2.68,8.11-1.16,12.35-2a89.25,89.25,0,0,1,17,1.16" fill="#fff"/><path d="M50.23,105.89v.29a152.27,152.27,0,0,0-26.91,16.5c-8.2,7-15.53,14.95-20.06,24.49.29-2.89,1.93-4.91,3.28-7.42,1.06-1.25,1.74-3,3.09-4.16l-.19-.19c1.44-1.24,2.6-3,4-4.13,3.67-5.41,9.74-9.76,14.76-13.59,2.41-1.26,4.82-3.77,7.43-4.54,4.54-2.7,9.26-5.88,14.28-7.82l.28.59"/><path d="M104,111.4c.19.78-.48.78-.77,1.25-2.5,8.67-4.91,35-5.87,41-2.23.29-4.64,1.14-5.69,3.29.37-6.57,1.91-15.34,2-22.38.4-7.16,1.26-12.74,1.93-20.36.68-.2.49-.87,0-1.34-.77.38-1.16-.78-1.72-.39.28-1.45,2.59-2.79,4.33-3.1,2.31-.28,4.63.1,5.79,2" fill="#fff"/><path d="M31.61,127.61c-.06,1.13.75,2.37,1,3.45a25.12,25.12,0,0,0,.48,4.34,4.93,4.93,0,0,1-3.66,4.15,5.41,5.41,0,0,1-2.22.69c-.38-.77-1.73-.77-1.25-1.74a2.61,2.61,0,0,0,1.73-1.05c.1-.49-.09-1.26.2-1.73.38.85.86,1.73,1.91,1.63.2-.6-.37-1.25-.47-1.74.47.11.09,1,.86,1-.08-1.64-.86-1.94-1.64-3.57a1.41,1.41,0,0,0-.08-1.06h-.2c.2.29-.38-.5,0-.86a.5.5,0,0,0,.2-.39l-1.26-.17c.09-.32-.19-.5-.38-.7l-1.16.87c.29.19.09.49.2.68-.2-.19-.5-.38-.39-.68.77,0-.2-.49.39-.49,1.71-1.24,3.44-2.46,5.19-3.64l.58,1" fill="#fff"/><path d="M78.54,110.91a62.35,62.35,0,0,0-16.25,1.94c-11.22,1.73-21,6.85-30.36,13.09l.29.92a18.17,18.17,0,0,1,1.52,4.2c.77.29,1.55-.57,1.73-.39l-.86-.47.58-.56,3.28,1v.21c.87,0,1.64.67,2.4.18-.86,0-1.44-.95-1.92-1.55-.38-1.14-1.36-2.5-.86-3.46.66.3.86,1.16,1,1.83,2.12,4.35,7.62,2.69,11.48,3.18,5.69,2.52,10.32-2.59,14.08-6.08.39-.18,1.26-.39,1.55.21-1.16,1-2.61,2.79-4,3.75,4.44-.57,8.39,3.36,13,1.06,1-1.45,3.38-.08,4.33-.49l.29.28c4-5.09.58-9.82-.29-15.23-.14-.9-.68-1.8-.74-2.67l-.36-1" fill="#fff"/><path d="M85.15,234.18c-3.57-16.5-2.89-29.4.19-45.52,3-4.24,1.93-10,3.67-14.76-.78,0,5.13-3.52,2.88-4.82l-.47-.49s-1.16-.57-1.07-1c-.67-1.47-1.53-4-.67-5.61-2.12-6.26-5.5-11.95-7.14-18.41l-.48.56c-1.44-.07-3.47,1-4.33-.18,1.34-1.34,3.08-1.06,4.62-.85-.86-2.05-.48-3.88-1.54-5.69-.68.38-.68.57-1.74.47-1.24.87-3.08.49-4.52,1a1.33,1.33,0,0,1-.48-1c1.92-1.07,4.72-1.17,6.56-1.56-.58-1.44-.09-3.17-1-4.52-2.12.56-3.85,1.26-5.79,1.26-.18-.49-.67-.77-.18-1.26-2.42.49-5.22-.68-7.63-1.35a10.08,10.08,0,0,1-2.8-.77l-.09.2-1.06.18c-1.14-1.63-1.73,1.53-3.17.67v.6a12.05,12.05,0,0,1-5.69,1.52,2.78,2.78,0,0,0,.19.88c-2.42.66-5,.66-7.33,1.35-.3-.31-.67-.57-.48-1.06a32,32,0,0,1,6.74-1.55c-1,.49-1.35-.88-2.12.18l-6.56.88c-.67.09-1.44-.77-.86-1.35h3c-.28-.59-.67.39-.76-.38a18,18,0,0,1-3.48-.39C39.65,133,36,132,34,132.81c1.44.68,3.28-.56,4.71.19.09.3-.18.39-.18.69.38,0,.86-.2,1.26.19l-.59.85c-1.64.11-3.18.67-5,.5,0,.17,0,.49.18.49,2-.11,3.66-1.27,5.5-.32a1.26,1.26,0,0,1-.68,1.17h.39a.82.82,0,0,1,.29.86c-.2.58-.77.3-1.16.39.48.38-.19.68-.19,1.05-1.83-.48-3.85.78-5.89.88v.19a14.91,14.91,0,0,0,5-.58,1.2,1.2,0,0,1,.49,1.24c-1.83.68-4.15.3-5.51,1.07a27,27,0,0,0,4-.19c.48.08,1.64.29,1.25,1a9.88,9.88,0,0,1-4.73.31l-.17,1.24c1.33-.07,3.07-.77,4.22.21-.38.19,0,.75-.38,1l-3.66.39c.19.17.48.28.38.47,1.25.38,2.61-.58,3.48.19-.11,1.93-2.61.77-3.67,1.54.68.88.1,1.63.48,2.61a4,4,0,0,1,1.74.39.28.28,0,0,0-.1.38c1.16.26,3-.19,3.47,1.14A10.84,10.84,0,0,1,33.76,151l.2,2.4c1.54-.67,4.24.38,5.59-1.35l.29.28c-.77,2.8-3.67,1.07-5.88,2.33l.19,1c1.25.11,2.21.67,3.28.18.38.21.38.57.57.88l-2.6.18,2.89.19c-.48,1.27-2,.48-3.08.69-1.25-.39.29-2-1.25-1.37.28,1.45-.49,4,0,5.31-.1.1-.2.28-.29.2-.78,8.67,2.8,16.58,4.14,25.17,1.35,7.14-1.83,13.6-1.25,20.64,1,7.23,2.89,13.4,4.33,20.35,1.46,7.23-.37,12.63.39,20,.11.67.49,1.93-.39,2.4,4.16-.67,8.88,2.53,13-.85.77-.58,2.5-.11,2.61-1.14a2.9,2.9,0,0,1,2.31,0c.87.47,2.61-.79,2.89.64h.57c1-4.13-1-7.5-1.72-11.06-.11-.79.08-1.28-.39-1.67a8,8,0,0,1-4.14,1.74.89.89,0,0,1-.39-.86,35.27,35.27,0,0,1,4.53-1.73c-.58-.86.48-2.23-.87-2.4-.77,1-2.12.08-3.09.85-.18-.28-.48-.47-.38-.85.48-.7,1.35-.7,2.22-.7.58-.37,2.12-.08,1.74-1.25-1.26.49-2.42-.28-3.48.79-.39-.3-.48-.79-.67-1.07,1.25-1.06,2.51-1,4.05-.67l-.2-1.94-.57.3c-1.74-.09-3.77,1.15-4.44-.3a6.34,6.34,0,0,1,5.21-.57c-.39-4.52.67-8.67.28-13.68a3.25,3.25,0,0,0-1.15.38c-.87-.21-2.12,1.06-2.61-.38.87-1.07,2.51-.78,4-.88A30.86,30.86,0,0,1,60,209c-1.82.19-3.37.58-5.49.68-.38-.29-.77-.85-.38-1.34,1.73.38,3.85-1,6.07-.68-.1-.49.18-1.06-.38-1.25-1.55.19-3,1.05-4.83,1.25a1.18,1.18,0,0,1-.38-.86c1.34-1.37,3.66-1.05,5.59-1.26a5.48,5.48,0,0,0-.2-1.35c-.28,0-.57-.39-.86.08-1.16-.26-2.8,1-3.76,0a1.73,1.73,0,0,1,.68-1c-.78-.28-.59-.77-.59-1.24,1.45-.28,3.19-.86,4.53-.2.49-2.39-.18-6.55.59-9.54a4.44,4.44,0,0,0-1.93.38c-1.06,0-2.12.69-2.79-.19,1.15-1.73,2.88-1.05,4.81-1.24a11.72,11.72,0,0,0,.39-2.4c-1.25.37-3.19-.1-4.33,1-.39-.38-.78-.85-.39-1.34,1.64-.78,3.65-.67,5.2-1.25-1.15-.87-3.28,0-4.62.68-.29-.29-.67-.59-.58-1.06,1.36-.86,3.28-1.55,4.73-1,.08-.11.18-.29.38-.2v-.58l-1.93.19c-1,.2-2.12,1.27-3,.2.19-.28.19-.86.67-.86,1.64-.19,2.78-1.07,4.33-.38-.95-1.55-3.65,1-3.95-1.55,1.44-.68,2.79.08,4.34-.21a42.37,42.37,0,0,0,.66-9.34l-.28-.29c1.16-6.56,2.6-12.05,2.71-18.61l.37-.39a1,1,0,0,1,.88.39c-.2,2.61-.2,4.91-.68,7.81a3.73,3.73,0,0,1-.38,2.12c-.68,2.22-.78,5.2-1.16,7.81,1.06-.2,3.18-.6,4.34.28-.39.68-1.06.19-1.64.4l.58.46c-.39,1.45-2.51.87-3.47,1.06v.49c1.44.47,2.79-.88,4.33-.1.39,1.06-1.34.7-1.25,1a.76.76,0,0,1,.68,1.06l-3.48.2c-.27.75.48.88.77,1.24,1.84-.17,3.87-1.24,5.51-.36.09.26-.2.36-.3.47-1.64-.6-3.46.39-5.2.39V179c2.23-.2,4.83-.1,7.24-.38.56.28.18.47,0,.85-2.51-.18-4.63.39-6.76.19v.69c1.25,2.59,4.72-.77,6.94.86a24.51,24.51,0,0,1-6.26,1.06c.19,2.4,1.25,4.63,1.54,7.13.77,2,.57,4,1.64,5.9,2.12-1.08,3.08-.1,5.3-.87.39.28.78.66.39,1.05l-5.69.68a12.12,12.12,0,0,1,.48,1.91c1.84-.18,3.86-1.24,5.6-.39-1.16,1.76-3.28,1-5.22,1.37,1.07,3.36,1.16,6.47,2.6,9.55,1.26-.39,2.23.08,3.48-.31.58.39.39.69.29,1.16l-3.66.21.39,1.42c.66-.17,1.64.32,2.12-.38.85.21,2.2-.37,2.59.49a.63.63,0,0,1-.19.87,28.9,28.9,0,0,0-4.15.19,4.69,4.69,0,0,1,.28,1.24c1.55-.18,3.87-1.34,4.92.31-.38.38-1,.19-1.25.19-1,.66-2.88.08-3.07,1.24a10.09,10.09,0,0,1,5,.2c-.08.18.09.47-.19.68a.58.58,0,0,1-.19-.39,19.1,19.1,0,0,1-4.14.88c.57,3,4,.17,5.88,1,.2.21.48.29.38.49-1.34,1.07-3.46,1-5.21,1.45a123.32,123.32,0,0,1,5.86,25.74l3.31-11.18" fill="#fff"/><path d="M78.4,130.67c-1.55-.08-2.61,1.09-4.15.88.48-.18,2.8-1.53,4.15-.88" fill="#fff"/><path d="M71.65,132.61c0-.85.57.29.87-.38l.67.77c-1.45-.08-3.09.58-4.73.86-.29-.47-.29-.66,0-1.05,1.35.09,2.12-.77,3.19-.2"/><path d="M79.75,133.11c-.2,1.44-2.61.77-3.47,1.44-.78-.1-2.22,1.17-3.09,0l-.19-.39a30.3,30.3,0,0,1,6.75-1"/><path d="M37.79,133.88a6.08,6.08,0,0,1-3.66.08c1.25.28,2.32-.38,3.66-.08" fill="#fff"/><path d="M79.65,135v.59a20,20,0,0,1-5.11,1c-.09-.29-.48-.68-.09-1.17,1.73.11,3.46-1.05,5.2-.38"/><path d="M33.65,137.14c.67-.95,1.73-.39,2.89-.57l1.72-.29v.29l-4.61.57" fill="#fff"/><path d="M80.81,139.08c-.28,1.54-2.41.86-3.47,1.54-1.16,0-2.51.79-3.67,0l.19-.87c2.42,0,4.73-.75,7-.67"/><path d="M81.19,141.77c0,.39-.38.49-.57.78-1.64-.19-2.71.87-4.44.49-.09-.3-.29-.49-.2-.88,1.55-.57,3.28-.29,4.83-.86l.38.47"/><path d="M43.67,167.35c0,.47.68,1.71.2,2.22-.77,0-.68-1.26-1.06-1.84a19.12,19.12,0,0,1-.48-2.32c-1.83-4.63-.68-8.48-.87-13.21a13.78,13.78,0,0,0-1.64-10l.77-.39c4.63,7.06-.58,17.46,3.08,25.58"/><path d="M36.34,155.56c-.19-.28.88-.86,1.07-1.24-.19.49-.78.85-1.07,1.24"/><path d="M44.93,167.82a20.22,20.22,0,0,1-1.06,7.53h-.39c.58-2.91.39-4.92,1.45-7.53"/><path d="M59.69,198.39c-1.74-.47-3.09,1.16-4-.29,1-.75,2.69,0,4,0v.29"/><path d="M59.69,211.43c-.68,0,0,.38-.4.56a11.53,11.53,0,0,0-3.94.47c-.39-.18-.2-.56-.39-.85,1.55,0,3.19-1.45,4.73-.18"/><path d="M59.49,217v.5c-1.34-.21-2.5.64-3.66.36-.1-1.15,1.45-.57,2.12-1.24.48,0,1.16-.11,1.54.38"/><path d="M87.27,241.33a128.93,128.93,0,0,1-4.92,15.9c-.68,4-3.18,7.72-4.44,11.68-1.06,2.4-1.73,5.2-3,7.13l-3.48-.18c6.37-12.15,11.68-24.41,13.5-38.21a7.3,7.3,0,0,0,.59-1.73l1.73,5.41" fill="#fff"/><path d="M61.23,241.12c-.67,1.17-2.51.57-3.67,1.27-.28-.21-.09-.49-.19-.78,1.35-.49,2.42-1.06,3.86-.49"/><path d="M61.43,243.73c-1.26-.48-2.9.47-4.26-.39.68-1.16,2.9-.56,4.26-.49v.88"/><path d="M83.61,258.87c2,6,1.73,10.81,3,17.36,0,0,6.17.28,8.79.49-.49-.79.28-2,.85-2.61,1.93-.3,3.37,1.63,4.72,3,1.07.18,3-.49,4.16,0-4.43-5.2-7.24-11.66-10.9-17.56-2.79.08-6.27,1.14-9.24,0l-1.36-.69" fill="#fff"/><path d="M83.79,258.07c1.18-4.8,3.06-9.19,4.16-13.95.39,1.81,1.92,3.65,2.12,5.87-1.45-.08-2.51.67-3.86.67,1,1.84,2.9.11,4.34.21a39.49,39.49,0,0,0,3,7.22,14,14,0,0,1-8.19.35l-1.55-.37" fill="#fff"/><path d="M62.09,245.46c.2.86-1.92.47-3,.4l-1.74-.19.19-.88c1.73.28,2.89-.28,4.53.67"/><path d="M61.23,246.81c-.29.19-.19.49-.19.78-1.25.57-2.51-.57-3.67.28-.29-.18-.08-.57-.2-.85,1.26-.78,2.8.17,4.06-.21"/><path d="M62.29,250.2c-.2.26.19.78.68.86-.49,2.32-.4,5.59-2.13,7.24-5.49,1-12.05.18-17.36,1.43-1.64-.38-4.43.19-4.82-1.72,1-2.13-.48-4.34.48-6.67,1,.39,2.7,0,3.86.39a35.84,35.84,0,0,0,8.48.49c3-1.94,7-1.94,10.81-2" fill="#fff"/><path d="M60.17,259.75a51.07,51.07,0,0,0,.39,14.36c-.49.66.38,3.09-1.45,2.61-6.17-1.26-13.6.95-20-.49H36.93a2.83,2.83,0,0,1,2-3c2.41-1.27,3.67-3.47,4.92-5.41.19-2.12.87-4.73.87-6.93,4.82-1.16,11.08-.58,15.42-1.16" fill="#fff"/><path d="M62.57,91.43c3.77-4.73,8.21-9.16,8.88-15.24-.57-2.7-.87-5.5-2.41-7.81-.48.86-1.54,0-1.92,1.06-.3-.67-1-.28-1.36-.2a20.43,20.43,0,0,1-9.07-.18C55.35,69,54.48,68,53,67.52c-.28-.2-.48-.69-.86-.69-1.16,2-.19,4.35.58,6.57,2.89,5.2,6.65,10.12,7.61,16.2l1.16,2.68,1-.85" fill="#fff"/><path d="M71.12,66.79c-.47.56-1.24.92-1,1.59,1.26,3.47,3.48,7.81,1.35,11.47a26.69,26.69,0,0,1-3,5.69c-1.83,2.42-3.86,4.24-5.3,6.74l-.59.21L61,92.68c-2.32-4.25-3-9.45-5.89-13.5-2.31-4-5.88-8.69-3.66-13.22L51,64.2c-.77.39-1,1.37-1.9,1.37-2,4.52-5.2,8.48-5.4,13.7,2.12-.09,5.89-.67,7.63,1.25,3.18,1.74-.68,5.49,3.27,6.47l4.06,5.29c-.1.38.09.88-.2,1.07-.87.08-.48-1.07-1.06-1.35-1.93-1.84-2.7-4.52-5.21-5.61-.47-1.34.3-3.08-.67-4.53-1.82-3-5.49-1.44-8.29-1.83-1.73-3.86,1.92-7.61,3.28-11.27l-.19-.19L48,65.38c-1.26.39-3.09.76-4.54,1.07-5.21,2.87-12.44,1-16.68,6.25-2.71,1.56-2.9,4.92-5.31,6.76-2.21,2.89,1.07,5.41.87,8.2-.67-.28-.87-1.45-1.25-2.12a5.85,5.85,0,0,1-1.07-4.82c.2-1.45,1.74-2.81,2.61-4.15-1.64.09-3.37,1.05-5.21,1.16C15,80,12,81.58,8.58,81.39,5.13,83.14,4,87.17,4,90.46A5,5,0,0,0,4.64,94c.86-1.34,2.41-2,3.85-2.69-1.24-2.12,0-3.67,1-5.41,1-.59,2-2.22,3.37-1.54a7.1,7.1,0,0,0-4.25,4.83l.2,2.12c3.08-.59,6.65-.21,8.88,2.21,3.85,2,0,8.3,5.88,7.62,3.48,1.07,6.17-2.22,7.81-4.63a14.05,14.05,0,0,1,5-9.54c-.09,1.91-1.83,3.64-2.4,5.69-1.65,2.87-.68,6.26-1.93,9.34-.1,3.2-.68,6.57,0,9.56,5.3-3.77,11.66-5.79,17.55-8.3.58-1-.77-1.91.19-2.79,2.11-3.57,5.59-7.25,10.21-6.75,1.94-1.06,5.31-.29,7.82,0l.38-.39a.53.53,0,0,0-.38-.19c.09-.88,1.15-1.16,1.54-2,4-3.67,3.09-9.76,7.14-13,1.06-.19,2.41.39,3.18-.57-.19-2.61-3.28-3.77-4.53-5.89-.63-1.8-2.17-3.08-2.85-4.79l-1.15-.07" fill="#fff"/></svg>