<svg xmlns="http://www.w3.org/2000/svg" xmlns:xlink="http://www.w3.org/1999/xlink" width="600" height="390" viewBox="0 0 600 390"><defs><clipPath id="a"><polygon points="39.87 354.18 39.87 35.96 556.97 95.63 437.64 195.07 556.97 294.52 39.87 354.18" fill="#fff" stroke="#50d6cc" stroke-miterlimit="10"/></clipPath></defs><title>flag-ohio-dimensions</title><polygon points="39.87 354.18 39.87 35.96 556.97 95.63 437.64 195.07 556.97 294.52 39.87 354.18" fill="#fff"/><polygon points="39.87 354.18 39.87 35.96 556.97 95.63 437.64 195.07 556.97 294.52 39.87 354.18" fill="none" stroke="#50d6cc" stroke-miterlimit="10"/><polygon points="39.87 354.18 39.87 35.96 556.97 95.63 437.64 195.07 556.97 294.52 39.87 354.18" fill="#fff"/><g clip-path="url(#a)"><polygon points="39.41 75.69 37.52 29.48 567.68 92.06 523.53 131.47 39.41 75.69" fill="#fff"/><polygon points="39.41 75.69 37.52 29.48 567.68 92.06 523.53 131.47 39.41 75.69" fill="none" stroke="#50d6cc" stroke-miterlimit="10"/><polygon points="39.41 361.99 39.41 314.72 520.98 259.66 563.17 296.75 39.41 361.99" fill="#fff"/><polygon points="39.41 361.99 39.41 314.72 520.98 259.66 563.17 296.75 39.41 361.99" fill="none" stroke="#50d6cc" stroke-miterlimit="10"/><polygon points="39.41 216.96 39.41 175.05 462.44 175.37 465.29 215.18 39.41 216.96" fill="#fff"/><polygon points="39.41 216.96 39.41 175.05 462.44 175.37 465.29 215.18 39.41 216.96" fill="none" stroke="#50d6cc" stroke-miterlimit="10"/></g><polygon points="39.87 354.18 39.87 35.96 556.97 95.63 437.64 195.07 556.97 294.52 39.87 354.18" fill="none" stroke="#50d6cc" stroke-miterlimit="10"/><path d="M39.87,36V354.18L358.08,195.07Z" fill="#fff" stroke="#50d6cc" stroke-miterlimit="10"/><circle cx="138.2" cy="195.07" r="59.67" fill="#fff" stroke="#50d6cc" stroke-miterlimit="10"/><circle cx="138.2" cy="195.07" r="39.78" fill="#fff" stroke="#50d6cc" stroke-miterlimit="10"/><polygon points="300.04 197.87 308.63 195.07 300.04 192.28 300.04 183.25 294.74 190.56 286.14 187.77 291.45 195.07 286.14 202.38 294.74 199.59 300.04 206.9 300.04 197.87" fill="#fff" stroke="#50d6cc" stroke-miterlimit="10"/><polygon points="220.49 192.28 220.49 183.25 215.18 190.56 206.59 187.77 211.9 195.07 206.59 202.38 215.18 199.59 220.49 206.9 220.49 197.87 229.08 195.07 220.49 192.28" fill="#fff" stroke="#50d6cc" stroke-miterlimit="10"/><polygon points="256.56 162.96 252.55 171.05 243.61 169.74 250.07 176.05 246.06 184.15 254.06 179.95 260.52 186.27 259.01 177.36 267.01 173.17 258.07 171.86 256.56 162.96" fill="#fff" stroke="#50d6cc" stroke-miterlimit="10"/><polygon points="259.01 212.78 260.52 203.88 254.06 210.19 246.06 206 250.07 214.1 243.61 220.41 252.55 219.1 256.56 227.19 258.07 218.29 267.01 216.98 259.01 212.78" fill="#fff" stroke="#50d6cc" stroke-miterlimit="10"/><polygon points="176.67 261.91 175.32 252.98 171.16 260.99 162.25 259.51 168.59 265.95 164.43 273.96 172.5 269.92 178.84 276.36 177.5 267.43 185.57 263.39 176.67 261.91" fill="#fff" stroke="#50d6cc" stroke-miterlimit="10"/><polygon points="139.25 272.18 142.43 263.72 134.89 268.7 127.83 263.07 130.23 271.77 122.69 276.75 131.71 277.15 134.12 285.86 137.29 277.4 146.31 277.81 139.25 272.18" fill="#fff" stroke="#50d6cc" stroke-miterlimit="10"/><polygon points="99.45 257.77 96.03 249.41 93.89 258.18 84.88 258.86 92.56 263.61 90.42 272.38 97.31 266.54 105 271.29 101.57 262.93 108.46 257.09 99.45 257.77" fill="#fff" stroke="#50d6cc" stroke-miterlimit="10"/><polygon points="95.57 300.24 90.79 292.57 90.15 301.58 81.39 303.75 89.75 307.15 89.11 316.16 94.93 309.25 103.3 312.64 98.52 304.97 104.33 298.06 95.57 300.24" fill="#fff" stroke="#50d6cc" stroke-miterlimit="10"/><polygon points="63.21 280.24 61.23 271.42 57.65 279.71 48.66 278.87 55.44 284.84 51.85 293.13 59.62 288.53 66.4 294.5 64.43 285.68 72.2 281.08 63.21 280.24" fill="#fff" stroke="#50d6cc" stroke-miterlimit="10"/><polygon points="67.69 237.58 72.09 245.47 73.16 236.5 82.03 234.76 73.83 230.96 74.91 222 68.77 228.62 60.57 224.82 64.97 232.71 58.83 239.33 67.69 237.58" fill="#fff" stroke="#50d6cc" stroke-miterlimit="10"/><polygon points="55.91 206.9 61.22 199.59 69.81 202.38 64.5 195.07 69.81 187.77 61.22 190.56 55.91 183.25 55.91 192.28 47.32 195.07 55.91 197.87 55.91 206.9" fill="#fff" stroke="#50d6cc" stroke-miterlimit="10"/><polygon points="178.84 113.79 172.5 120.22 164.43 116.19 168.59 124.2 162.25 130.64 171.16 129.16 175.32 137.17 176.67 128.24 185.57 126.76 177.5 122.72 178.84 113.79" fill="#fff" stroke="#50d6cc" stroke-miterlimit="10"/><polygon points="134.12 104.29 131.71 113 122.69 113.4 130.23 118.38 127.83 127.08 134.89 121.45 142.43 126.42 139.25 117.97 146.31 112.34 137.29 112.74 134.12 104.29" fill="#fff" stroke="#50d6cc" stroke-miterlimit="10"/><polygon points="105 118.86 97.31 123.61 90.42 117.77 92.56 126.54 84.88 131.29 93.89 131.97 96.03 140.74 99.45 132.38 108.46 133.06 101.57 127.22 105 118.86" fill="#fff" stroke="#50d6cc" stroke-miterlimit="10"/><polygon points="90.15 88.57 90.79 97.58 95.57 89.91 104.33 92.08 98.52 85.17 103.3 77.51 94.93 80.9 89.11 73.99 89.75 83 81.39 86.39 90.15 88.57" fill="#fff" stroke="#50d6cc" stroke-miterlimit="10"/><polygon points="57.65 110.43 61.23 118.72 63.21 109.91 72.2 109.07 64.43 104.47 66.4 95.65 59.62 101.62 51.85 97.02 55.44 105.31 48.66 111.28 57.65 110.43" fill="#fff" stroke="#50d6cc" stroke-miterlimit="10"/><polygon points="73.16 153.64 72.09 144.68 67.69 152.56 58.83 150.82 64.97 157.44 60.57 165.33 68.77 161.53 74.91 168.15 73.83 159.19 82.03 155.39 73.16 153.64" fill="#fff" stroke="#50d6cc" stroke-miterlimit="10"/><line x1="4.35" y1="224.35" x2="4.35" y2="226.85" fill="none" stroke="#a3a3a3" stroke-linecap="round" stroke-linejoin="round"/><line x1="4.35" y1="231.84" x2="4.35" y2="349.19" fill="none" stroke="#a3a3a3" stroke-linecap="round" stroke-linejoin="round" stroke-dasharray="4.99 4.99"/><polyline points="4.35 351.68 4.35 354.18 6.85 354.18" fill="none" stroke="#a3a3a3" stroke-linecap="round" stroke-linejoin="round"/><line x1="11.67" y1="354.18" x2="28.55" y2="354.18" fill="none" stroke="#a3a3a3" stroke-linecap="round" stroke-linejoin="round" stroke-dasharray="4.82 4.82"/><line x1="30.97" y1="354.18" x2="33.47" y2="354.18" fill="none" stroke="#a3a3a3" stroke-linecap="round" stroke-linejoin="round"/><line x1="33.47" y1="35.24" x2="30.97" y2="35.24" fill="none" stroke="#a3a3a3" stroke-linecap="round" stroke-linejoin="round"/><line x1="26.14" y1="35.24" x2="9.26" y2="35.24" fill="none" stroke="#a3a3a3" stroke-linecap="round" stroke-linejoin="round" stroke-dasharray="4.82 4.82"/><polyline points="6.85 35.24 4.35 35.24 4.35 37.74" fill="none" stroke="#a3a3a3" stroke-linecap="round" stroke-linejoin="round"/><line x1="4.35" y1="42.76" x2="4.35" y2="160.79" fill="none" stroke="#a3a3a3" stroke-linecap="round" stroke-linejoin="round" stroke-dasharray="5.02 5.02"/><line x1="4.35" y1="163.3" x2="4.35" y2="165.8" fill="none" stroke="#a3a3a3" stroke-linecap="round" stroke-linejoin="round"/><line x1="267.01" y1="9.68" x2="264.51" y2="9.68" fill="none" stroke="#a3a3a3" stroke-linecap="round" stroke-linejoin="round"/><line x1="259.58" y1="9.68" x2="45.33" y2="9.68" fill="none" stroke="#a3a3a3" stroke-linecap="round" stroke-linejoin="round" stroke-dasharray="4.93 4.93"/><polyline points="42.87 9.68 40.37 9.68 40.37 12.18" fill="none" stroke="#a3a3a3" stroke-linecap="round" stroke-linejoin="round"/><line x1="40.37" y1="17.04" x2="40.37" y2="24.32" fill="none" stroke="#a3a3a3" stroke-linecap="round" stroke-linejoin="round" stroke-dasharray="4.86 4.86"/><line x1="40.37" y1="26.75" x2="40.37" y2="29.25" fill="none" stroke="#a3a3a3" stroke-linecap="round" stroke-linejoin="round"/><line x1="557.47" y1="29.25" x2="557.47" y2="26.75" fill="none" stroke="#a3a3a3" stroke-linecap="round" stroke-linejoin="round"/><line x1="557.47" y1="21.9" x2="557.47" y2="14.61" fill="none" stroke="#a3a3a3" stroke-linecap="round" stroke-linejoin="round" stroke-dasharray="4.86 4.86"/><polyline points="557.47 12.18 557.47 9.68 554.97 9.68" fill="none" stroke="#a3a3a3" stroke-linecap="round" stroke-linejoin="round"/><line x1="550.06" y1="9.68" x2="316.77" y2="9.68" fill="none" stroke="#a3a3a3" stroke-linecap="round" stroke-linejoin="round" stroke-dasharray="4.91 4.91"/><line x1="314.32" y1="9.68" x2="311.82" y2="9.68" fill="none" stroke="#a3a3a3" stroke-linecap="round" stroke-linejoin="round"/><line x1="213.92" y1="379.02" x2="216.42" y2="379.02" fill="none" stroke="#a3a3a3" stroke-linecap="round" stroke-linejoin="round"/><line x1="221.57" y1="379.02" x2="353.01" y2="379.02" fill="none" stroke="#a3a3a3" stroke-linecap="round" stroke-linejoin="round" stroke-dasharray="5.15 5.15"/><polyline points="355.58 379.02 358.08 379.02 358.08 376.52" fill="none" stroke="#a3a3a3" stroke-linecap="round" stroke-linejoin="round"/><line x1="358.08" y1="371.45" x2="358.08" y2="191.3" fill="none" stroke="#a3a3a3" stroke-linecap="round" stroke-linejoin="round" stroke-dasharray="5.07 5.07"/><line x1="358.08" y1="188.77" x2="358.08" y2="186.27" fill="none" stroke="#a3a3a3" stroke-linecap="round" stroke-linejoin="round"/><g opacity="0.46"><line x1="40.37" y1="34.97" x2="41.37" y2="34.97" fill="none" stroke="#a3a3a3" stroke-linecap="round" stroke-linejoin="round"/><line x1="46.35" y1="34.97" x2="553.48" y2="34.97" fill="none" stroke="#a3a3a3" stroke-linecap="round" stroke-linejoin="round" stroke-dasharray="1.99 4.99"/><polyline points="555.97 34.97 556.97 34.97 556.97 35.97" fill="none" stroke="#a3a3a3" stroke-linecap="round" stroke-linejoin="round"/><line x1="556.97" y1="40.94" x2="556.97" y2="351.53" fill="none" stroke="#a3a3a3" stroke-linecap="round" stroke-linejoin="round" stroke-dasharray="1.99 4.97"/><polyline points="556.97 354.01 556.97 355.01 555.97 355.01" fill="none" stroke="#a3a3a3" stroke-linecap="round" stroke-linejoin="round"/><line x1="550.99" y1="355.01" x2="43.86" y2="355.01" fill="none" stroke="#a3a3a3" stroke-linecap="round" stroke-linejoin="round" stroke-dasharray="1.99 4.99"/><line x1="41.37" y1="355.01" x2="40.37" y2="355.01" fill="none" stroke="#a3a3a3" stroke-linecap="round" stroke-linejoin="round"/></g><line x1="416.3" y1="379.02" x2="418.8" y2="379.02" fill="none" stroke="#a3a3a3" stroke-linecap="round" stroke-linejoin="round"/><line x1="424.31" y1="379.02" x2="432.58" y2="379.02" fill="none" stroke="#a3a3a3" stroke-linecap="round" stroke-linejoin="round" stroke-dasharray="5.51 5.51"/><polyline points="435.34 379.02 437.84 379.02 437.84 376.52" fill="none" stroke="#a3a3a3" stroke-linecap="round" stroke-linejoin="round"/><line x1="437.84" y1="371.45" x2="437.84" y2="191.3" fill="none" stroke="#a3a3a3" stroke-linecap="round" stroke-linejoin="round" stroke-dasharray="5.07 5.07"/><line x1="437.84" y1="188.77" x2="437.84" y2="186.27" fill="none" stroke="#a3a3a3" stroke-linecap="round" stroke-linejoin="round"/><line x1="514.05" y1="379.02" x2="516.55" y2="379.02" fill="none" stroke="#a3a3a3" stroke-linecap="round" stroke-linejoin="round"/><line x1="521.97" y1="379.02" x2="551.76" y2="379.02" fill="none" stroke="#a3a3a3" stroke-linecap="round" stroke-linejoin="round" stroke-dasharray="5.42 5.42"/><polyline points="554.47 379.02 556.97 379.02 556.97 376.52" fill="none" stroke="#a3a3a3" stroke-linecap="round" stroke-linejoin="round"/><line x1="556.97" y1="371.73" x2="556.97" y2="287.86" fill="none" stroke="#a3a3a3" stroke-linecap="round" stroke-linejoin="round" stroke-dasharray="4.79 4.79"/><line x1="556.97" y1="285.46" x2="556.97" y2="282.96" fill="none" stroke="#a3a3a3" stroke-linecap="round" stroke-linejoin="round"/><line x1="40.37" y1="359.46" x2="40.37" y2="361.96" fill="none" stroke="#a3a3a3" stroke-linecap="round" stroke-linejoin="round"/><line x1="40.37" y1="366.81" x2="40.37" y2="374.1" fill="none" stroke="#a3a3a3" stroke-linecap="round" stroke-linejoin="round" stroke-dasharray="4.86 4.86"/><polyline points="40.37 376.52 40.37 379.02 42.87 379.02" fill="none" stroke="#a3a3a3" stroke-linecap="round" stroke-linejoin="round"/><line x1="47.81" y1="379.02" x2="164.13" y2="379.02" fill="none" stroke="#a3a3a3" stroke-linecap="round" stroke-linejoin="round" stroke-dasharray="4.95 4.95"/><line x1="166.6" y1="379.02" x2="169.1" y2="379.02" fill="none" stroke="#a3a3a3" stroke-linecap="round" stroke-linejoin="round"/><path d="M4.11,199.27c-1.77,0-2.76-.92-2.51-2.69l0-.24c.23-1.61,1-2,2.35-2.89l-.14-.07a2.22,2.22,0,0,1-1.26-2.51l0-.25a3.32,3.32,0,0,1,1.69-2.45,3.55,3.55,0,0,1,2.14-.68c1.77,0,2.55.92,2.3,2.69l0,.25c-.21,1.45-.85,1.82-2.23,2.76l.34.19a2.32,2.32,0,0,1,1.25,2.51l0,.25a3.31,3.31,0,0,1-1.72,2.46A3.65,3.65,0,0,1,4.11,199.27Zm.73-.86c1.25,0,1.71-.52,1.87-1.74l.06-.39a1.58,1.58,0,0,0-.94-1.78l-1.26-.71A2.39,2.39,0,0,0,3,195.89l0,.39C2.73,197.7,3.47,198.41,4.84,198.41Zm1.06-5.56a2.21,2.21,0,0,0,1.48-2l.06-.39c.19-1.41-.36-2.12-1.7-2.12-1.15,0-1.59.5-1.77,1.73l-.05.39a1.55,1.55,0,0,0,.94,1.79Z" fill="#727272"/><path d="M190.28,384.17c-1.77,0-2.76-.92-2.51-2.69l0-.25c.23-1.61,1-1.94,2.35-2.88l-.14-.07a2.24,2.24,0,0,1-1.26-2.51l0-.25a3.32,3.32,0,0,1,1.7-2.46,3.55,3.55,0,0,1,2.13-.67c1.77,0,2.55.92,2.3,2.69l0,.25c-.21,1.45-.85,1.82-2.23,2.75l.34.2a2.29,2.29,0,0,1,1.25,2.51l0,.25a3.3,3.3,0,0,1-1.72,2.46A3.65,3.65,0,0,1,190.28,384.17Zm.73-.87c1.25,0,1.71-.51,1.87-1.73l.06-.39a1.59,1.59,0,0,0-.94-1.79l-1.26-.7a2.38,2.38,0,0,0-1.59,2.1l-.05.39C188.9,382.59,189.65,383.3,191,383.3Zm1.06-5.55a2.19,2.19,0,0,0,1.48-2l.06-.39c.19-1.42-.36-2.12-1.7-2.12-1.15,0-1.59.49-1.77,1.73l0,.39a1.56,1.56,0,0,0,.94,1.79Z" fill="#727272"/><path d="M401.08,384h-6.15l0-.07.29-1.12,0,0c1.06-.73,2.08-1.45,3.25-2.41,1-.78,1.45-1.34,1.54-1.94l0-.13c.12-.9-.52-1.46-1.56-1.46a3.41,3.41,0,0,0-2.18.63l-.19-.16.72-1.31,0,0a5.08,5.08,0,0,1,2-.34c1.84,0,2.81.94,2.62,2.25l0,.12c-.11.8-.65,1.36-2.62,2.89a21.1,21.1,0,0,0-2.19,1.91h3.06a2.65,2.65,0,0,0,2-.57l.19.12-.76,1.63Z" fill="#727272"/><path d="M495.36,387.63H494l0,0,.34-.76c.21-.46.32-.58.55-.58s1.27.05,2.1.05a2,2,0,0,0,1.43-.46,1.91,1.91,0,0,0,.89-1.56l.05-.39c.19-1.38-.64-1.92-1.93-1.92a7.16,7.16,0,0,0-1.24.1l-.14-.16.52-1.06v0c2.27-.14,3-1.07,3.17-2.12l0-.23c.16-1-.44-1.62-1.66-1.62a2.87,2.87,0,0,0-2,.63l-.19-.16.72-1.31,0,0a3.81,3.81,0,0,1,1.86-.34c2.17,0,2.95,1.06,2.72,2.55l0,.23c-.21,1.38-.92,1.68-2.49,2.48,1.73.26,2.25,1.34,2.09,2.49l-.06.39c-.14,1.06-1,1.75-2,2.51A5.1,5.1,0,0,1,495.36,387.63Z" fill="#727272"/><path d="M283.51,12.1l1.93-.09c.21-1,.86-5.69.92-6.76l-1.75.06,0,0,.16-.55L288,4.19l.07.06c-.49,3-.92,6.42-1.09,7.76l1.89.09.09.53v0h-5.52Z" fill="#727272"/><path d="M290.28,16.29h-1.39l0,0,.33-.76c.22-.45.32-.58.55-.58s1.28.05,2.11.05a2,2,0,0,0,1.43-.46,1.86,1.86,0,0,0,.88-1.55l.06-.39c.19-1.38-.64-1.93-1.93-1.93a7.15,7.15,0,0,0-1.24.11l-.14-.16.51-1.06,0,0c2.26-.14,3-1.08,3.17-2.12l0-.23c.16-1.05-.44-1.63-1.66-1.63a2.83,2.83,0,0,0-2,.64L290.8,6l.72-1.31,0,0a4,4,0,0,1,1.85-.33c2.18,0,3,1.06,2.73,2.54l0,.23c-.21,1.38-.92,1.68-2.49,2.48a2.11,2.11,0,0,1,2.09,2.49l-.06.39c-.14,1.06-1,1.75-2.05,2.51A5.07,5.07,0,0,1,290.28,16.29Z" fill="#727272"/><line x1="357.58" y1="379.03" x2="384.83" y2="379.03" fill="none" stroke="#a3a3a3" stroke-linecap="round" stroke-linejoin="round" stroke-dasharray="5 5"/><line x1="437.84" y1="379.03" x2="480.82" y2="379.03" fill="none" stroke="#a3a3a3" stroke-linecap="round" stroke-linejoin="round" stroke-dasharray="5 5"/><polyline points="573.75 34.97 590.52 34.97 590.52 53.7" fill="none" stroke="#a3a3a3" stroke-linecap="round" stroke-linejoin="round" stroke-dasharray="5 5"/><polyline points="573.75 95.65 590.52 95.65 590.52 76.92" fill="none" stroke="#a3a3a3" stroke-linecap="round" stroke-linejoin="round" stroke-dasharray="5 5"/><path d="M584.77,66.51l1.31-.06c.14-.7.58-3.86.62-4.58l-1.19,0,0,0,.11-.37,2.2-.36.05,0c-.33,2-.62,4.36-.74,5.27l1.28.06.06.36v0h-3.74Z" fill="#727272"/><path d="M589.56,66.42c0-.54.19-.76.75-.76.34,0,.53.13.53.43s-.12.87-.79.87C589.71,67,589.56,66.78,589.56,66.42Z" fill="#727272"/><path d="M592,69.35h-.81l0,0,.23-.52c.15-.32.22-.4.37-.4s.78,0,1.3,0a1.44,1.44,0,0,0,1-.3,1.62,1.62,0,0,0,.73-1.24l0-.34c.17-1.18-.74-1.41-2.58-1.56v0l.91-3.6,0,0h2.34a1,1,0,0,0,.8-.23l.15.11-.52,1h0c-.33,0-.64,0-1.24,0h-1.25l-.49,2c2,.22,3.07.57,2.85,2.12l0,.26a3.09,3.09,0,0,1-1.52,1.92A3.43,3.43,0,0,1,592,69.35Z" fill="#727272"/><line x1="590.52" y1="295.88" x2="590.52" y2="312.61" fill="none" stroke="#a3a3a3" stroke-linecap="round" stroke-linejoin="round" stroke-dasharray="5 5"/><polyline points="573.75 354.56 590.52 354.56 590.52 335.83" fill="none" stroke="#a3a3a3" stroke-linecap="round" stroke-linejoin="round" stroke-dasharray="5 5"/><path d="M584.77,325.42l1.31-.06c.14-.69.58-3.86.62-4.58l-1.19,0,0,0,.11-.37,2.2-.36.05,0c-.33,2-.62,4.35-.74,5.26l1.28.06.06.36v0h-3.74Z" fill="#727272"/><path d="M589.56,325.34c0-.54.19-.77.75-.77.34,0,.53.13.53.43s-.12.88-.79.88C589.71,325.88,589.56,325.7,589.56,325.34Z" fill="#727272"/><path d="M592,328.27h-.81l0,0,.23-.51c.15-.33.22-.4.37-.4l1.3,0a1.39,1.39,0,0,0,1-.3,1.61,1.61,0,0,0,.73-1.23l0-.35c.17-1.17-.74-1.4-2.58-1.56v0l.91-3.6,0,0h2.34a1,1,0,0,0,.8-.23l.15.11-.52,1h0c-.33,0-.64,0-1.24,0h-1.25l-.49,1.94c2,.23,3.07.58,2.85,2.12l0,.27a3.15,3.15,0,0,1-1.52,1.92A3.48,3.48,0,0,1,592,328.27Z" fill="#727272"/><line x1="590.52" y1="97.64" x2="590.52" y2="134.46" fill="none" stroke="#a3a3a3" stroke-linecap="round" stroke-linejoin="round" stroke-dasharray="5 5"/><polyline points="573.75 195.76 590.52 195.76 590.52 157.68" fill="none" stroke="#a3a3a3" stroke-linecap="round" stroke-linejoin="round" stroke-dasharray="5 5"/><path d="M588.42,147.66h-4.18l0,0,.19-.76v0c.72-.5,1.42-1,2.21-1.64s1-.91,1-1.32v-.08c.09-.61-.34-1-1-1a2.29,2.29,0,0,0-1.48.43l-.13-.11.49-.89,0,0a3.55,3.55,0,0,1,1.34-.23c1.25,0,1.91.64,1.78,1.52l0,.09c-.07.54-.44.92-1.77,2a15.59,15.59,0,0,0-1.49,1.3h2.08a1.74,1.74,0,0,0,1.36-.39l.13.09-.51,1.1Z" fill="#727272"/><path d="M589.89,147.18c0-.54.2-.76.76-.76.33,0,.53.13.53.43s-.12.87-.8.87C590.05,147.72,589.89,147.54,589.89,147.18Z" fill="#727272"/><path d="M592.32,150.11h-.82v0l.23-.52c.14-.32.21-.4.37-.4s.78,0,1.29,0a1.47,1.47,0,0,0,1-.3,1.62,1.62,0,0,0,.73-1.24l0-.34c.16-1.18-.75-1.41-2.58-1.56l0,0,.92-3.6,0,0h2.34a1,1,0,0,0,.8-.23l.16.11-.53,1h0c-.34,0-.65,0-1.25,0h-1.25l-.49,1.94c2,.23,3.07.58,2.86,2.13l0,.26a3.1,3.1,0,0,1-1.51,1.92A3.45,3.45,0,0,1,592.32,150.11Z" fill="#727272"/><line x1="590.52" y1="195.76" x2="590.52" y2="232.58" fill="none" stroke="#a3a3a3" stroke-linecap="round" stroke-linejoin="round" stroke-dasharray="5 5"/><polyline points="573.75 293.88 590.52 293.88 590.52 255.8" fill="none" stroke="#a3a3a3" stroke-linecap="round" stroke-linejoin="round" stroke-dasharray="5 5"/><path d="M588.42,245.78h-4.18l0,0,.19-.76v0c.72-.5,1.42-1,2.21-1.63s1-.92,1-1.32v-.09c.09-.61-.34-1-1-1a2.29,2.29,0,0,0-1.48.43l-.13-.11.49-.89,0,0a3.55,3.55,0,0,1,1.34-.23c1.25,0,1.91.64,1.78,1.52l0,.09c-.07.54-.44.92-1.77,1.95a15.59,15.59,0,0,0-1.49,1.3h2.08a1.74,1.74,0,0,0,1.36-.39l.13.09-.51,1.1Z" fill="#727272"/><path d="M589.89,245.3c0-.54.2-.76.76-.76.33,0,.53.13.53.43s-.12.87-.8.87C590.05,245.84,589.89,245.66,589.89,245.3Z" fill="#727272"/><path d="M592.32,248.23h-.82v0l.23-.52c.14-.32.21-.4.37-.4s.78,0,1.29,0a1.47,1.47,0,0,0,1-.3,1.62,1.62,0,0,0,.73-1.24l0-.34c.16-1.18-.75-1.41-2.58-1.56l0,0,.92-3.6,0,0h2.34c.46,0,.64-.07.8-.23l.16.11-.53,1h0c-.34,0-.65,0-1.25,0h-1.25l-.49,1.95c2,.22,3.07.57,2.86,2.12l0,.26a3.08,3.08,0,0,1-1.51,1.92A3.45,3.45,0,0,1,592.32,248.23Z" fill="#727272"/><line x1="253.41" y1="290.37" x2="257.21" y2="329.21" fill="none" stroke="#a3a3a3" stroke-linecap="round" stroke-linejoin="round" stroke-dasharray="5 5"/><path d="M261.07,311.55l1.3-.19c.07-.71.21-3.9.17-4.62l-1.17.15,0,0,.07-.38,2.16-.58.05,0c-.13,2-.2,4.39-.22,5.31l1.28-.07.09.36v0l-3.73.36Z" fill="#727272"/><path d="M154.91,194.6l1.3-.06c.15-.7.59-3.87.63-4.59l-1.19,0,0,0,.1-.38,2.21-.36.05,0c-.34,2-.63,4.35-.75,5.27l1.29.06.06.36v0h-3.74Z" fill="#727272"/><path d="M178.7,174.13c0-.54.2-.77.76-.77.34,0,.53.14.53.44s-.12.87-.79.87C178.86,174.67,178.7,174.49,178.7,174.13Z" fill="#727272"/><path d="M181.13,177.06h-.82v0l.23-.51c.14-.33.22-.4.37-.4s.78,0,1.3,0a1.46,1.46,0,0,0,1-.3,1.62,1.62,0,0,0,.73-1.24l0-.35c.17-1.17-.75-1.4-2.58-1.56v0l.91-3.6,0,0h2.34a1.06,1.06,0,0,0,.81-.22l.15.1-.52,1,0,0c-.33,0-.65,0-1.25,0h-1.24l-.49,1.94c2,.23,3.07.58,2.85,2.13l0,.26a3.07,3.07,0,0,1-1.51,1.92A3.45,3.45,0,0,1,181.13,177.06Z" fill="#727272"/><path d="M193,162.48c0-.54.19-.77.75-.77.34,0,.53.13.53.43s-.12.88-.79.88C193.17,163,193,162.84,193,162.48Z" fill="#727272"/><path d="M195.44,165.4h-.81l0,0,.23-.52c.15-.32.22-.39.37-.39l1.3,0a1.39,1.39,0,0,0,1-.3,1.61,1.61,0,0,0,.73-1.23l0-.35c.17-1.18-.74-1.4-2.58-1.56v0l.91-3.59,0,0H199a1,1,0,0,0,.81-.23l.15.11-.52,1h0c-.33,0-.64,0-1.24,0h-1.25l-.49,1.94c2,.23,3.07.57,2.85,2.12l0,.26a3.09,3.09,0,0,1-1.52,1.92A3.43,3.43,0,0,1,195.44,165.4Z" fill="#727272"/><path d="M208.66,149.88c0-.54.19-.77.76-.77.33,0,.53.14.53.43s-.12.88-.8.88C208.82,150.42,208.66,150.24,208.66,149.88Z" fill="#727272"/><path d="M211.09,152.81h-.82v0l.23-.51c.14-.33.21-.4.37-.4s.78,0,1.29,0a1.47,1.47,0,0,0,1-.3,1.68,1.68,0,0,0,.73-1.24l0-.35c.16-1.17-.75-1.4-2.58-1.56l0,0,.92-3.6,0,0h2.34a1,1,0,0,0,.8-.22l.16.1-.53,1,0,0c-.34,0-.65,0-1.25,0h-1.25L212,147.6c2,.23,3.07.58,2.86,2.12l0,.27a3.14,3.14,0,0,1-1.51,1.92A3.45,3.45,0,0,1,211.09,152.81Z" fill="#727272"/><path d="M271.82,206.5l1.3-.06c.15-.7.59-3.86.63-4.58l-1.19,0,0,0,.11-.37,2.21-.36,0,0c-.34,2-.63,4.35-.75,5.26l1.29.06.06.36v0h-3.75Z" fill="#727272"/><line x1="138.2" y1="195.07" x2="214.11" y2="133.33" fill="none" stroke="#a3a3a3" stroke-linecap="round" stroke-linejoin="round" stroke-dasharray="5 5"/><circle cx="138.2" cy="195.07" r="77.1" fill="none" stroke="#a3a3a3" stroke-linecap="round" stroke-linejoin="round" stroke-dasharray="2 5" opacity="0.46"/><circle cx="138.2" cy="196.04" r="98.46" fill="none" stroke="#a3a3a3" stroke-linecap="round" stroke-linejoin="round" stroke-dasharray="2 5" opacity="0.46"/><circle cx="138.2" cy="194.35" r="117.85" fill="none" stroke="#a3a3a3" stroke-linecap="round" stroke-linejoin="round" stroke-dasharray="2 5" opacity="0.46"/><path d="M268.51,102.08a158.13,158.13,0,0,1-6,187.19" fill="none" stroke="#a3a3a3" stroke-linecap="round" stroke-linejoin="round" stroke-dasharray="2 5" opacity="0.46"/><polyline points="39.87 35.96 138.2 195.07 132.31 69.77" fill="none" stroke="#a3a3a3" stroke-linecap="round" stroke-linejoin="round" stroke-dasharray="2 5" opacity="0.46"/><polyline points="198.97 73.99 138.2 195.07 358.08 195.07" fill="none" stroke="#a3a3a3" stroke-linecap="round" stroke-linejoin="round" stroke-dasharray="2 5" opacity="0.46"/><polyline points="185.57 288.35 138.2 195.07 133.26 316.16" fill="none" stroke="#a3a3a3" stroke-linecap="round" stroke-linejoin="round" stroke-dasharray="2 5" opacity="0.46"/><polyline points="40.37 353.93 138.2 195.07 29.84 255.62" fill="none" stroke="#a3a3a3" stroke-linecap="round" stroke-linejoin="round" stroke-dasharray="2 5" opacity="0.46"/><polyline points="32.26 196.03 138.2 195.07 32.26 135.41" fill="none" stroke="#a3a3a3" stroke-linecap="round" stroke-linejoin="round" stroke-dasharray="2 5" opacity="0.46"/><line x1="296.29" y1="194.88" x2="309.39" y2="200.81" fill="none" stroke="#a3a3a3" stroke-linecap="round" stroke-linejoin="round"/><path d="M309.63,205.16c0-.54.19-.76.76-.76.33,0,.53.13.53.43s-.13.87-.8.87C309.79,205.7,309.63,205.52,309.63,205.16Z" fill="#727272"/><path d="M312.09,208.09h-.95v0l.23-.52c.14-.31.22-.4.37-.4s.87,0,1.43,0a1.41,1.41,0,0,0,1-.31,1.31,1.31,0,0,0,.6-1.06l0-.26c.13-.94-.43-1.31-1.31-1.31a5.71,5.71,0,0,0-.84.07l-.1-.1.35-.72v0c1.54-.09,2-.73,2.15-1.43l0-.16c.11-.71-.3-1.1-1.12-1.1a1.93,1.93,0,0,0-1.36.43l-.13-.11.49-.89,0,0a2.68,2.68,0,0,1,1.26-.23c1.48,0,2,.72,1.85,1.73l0,.15c-.15.94-.63,1.14-1.69,1.68,1.17.18,1.52.91,1.41,1.69l0,.27c-.1.72-.69,1.18-1.39,1.7A3.45,3.45,0,0,1,312.09,208.09Z" fill="#727272"/><path d="M316.87,205.25l1.31-.06c.14-.7.58-3.86.62-4.58l-1.19,0,0,0,.11-.37,2.2-.36.05,0c-.33,2-.62,4.36-.74,5.27l1.28.06.06.36v0h-3.74Z" fill="#727272"/><path d="M325.41,205.64h-4.17l0,0,.19-.76,0,0c.71-.5,1.41-1,2.2-1.64s1-.91,1.05-1.32v-.08c.08-.61-.35-1-1.06-1a2.24,2.24,0,0,0-1.47.43l-.13-.11.49-.89,0,0a3.55,3.55,0,0,1,1.34-.23c1.25,0,1.91.64,1.78,1.52v.09c-.07.54-.45.92-1.78,1.95a15.59,15.59,0,0,0-1.49,1.3h2.08a1.77,1.77,0,0,0,1.37-.39l.13.09-.52,1.1Z" fill="#727272"/><path d="M326.42,208.09h-.81l0,0,.23-.52c.14-.32.22-.4.37-.4s.78,0,1.3,0a1.46,1.46,0,0,0,1-.3,1.62,1.62,0,0,0,.73-1.24l.05-.34c.17-1.18-.75-1.41-2.58-1.56v0l.91-3.6,0,0h2.33a1.06,1.06,0,0,0,.81-.23l.15.11-.52,1h0c-.33,0-.64,0-1.25,0h-1.24l-.49,1.94c2,.23,3.07.58,2.85,2.13l0,.26a3.07,3.07,0,0,1-1.51,1.92A3.43,3.43,0,0,1,326.42,208.09Z" fill="#727272"/><circle cx="296.29" cy="194.99" r="14.22" fill="none" stroke="#a3a3a3" stroke-linecap="round" stroke-linejoin="round" stroke-dasharray="2 5" opacity="0.46"/></svg>