<svg xmlns="http://www.w3.org/2000/svg" width="600" height="400" viewBox="0 0 600 400"><path d="M0 400h600V0H0z" fill="#002a86"/><path d="M262.4 105.55a29.19 29.19 0 00-15.59 5.87c.51 1.23 1.44 1.11 2.47.8l.31-.39a7.29 7.29 0 002.47-1.14.83.83 0 01.2-.22h.08c.67-.4 1.91-.24 2.5-.81a1.17 1.17 0 00.31-.56c4.21-2.58 8.31-1.85 13.66-1.44v1c-3.6-.72-10.19-1.23-13.28 1.86a14.49 14.49 0 0011.34 3.58l3.08-1.33c1.54 6.06 8.13 8.73 13.17 10.69a8.6 8.6 0 001.14-3.69c-1.24-1.45-3.41-1.46-4.34-3.11a6.62 6.62 0 015.06 2.58 4.43 4.43 0 01-1 4.22 1.32 1.32 0 001.59.25h.05l7.23-5.78.08-.06a1.08 1.08 0 011.44.67l.23-.2c2.36 3 6.16 3.81 8.63 6.48l-.3.41v.09c-.51 0-1.2-.71-1.8-1-2.47-2.16-5.45-3.3-7.92-5.48-2.16 2.68-5.17 3.61-7.64 6-4.83-.22-9.45-3.2-13.47-6.28a14.66 14.66 0 01-2.55-4.42c-1-.1-2 .93-3 1-3.91-.21-8.94-.53-12-4.22-2.88.51-6 4.73-8.75 1.14h-.5c-9.68 9.56-23 15.52-30.78 26.64 1.65 2.26 4.13-.82 6.08-1.45 2.68-2.26 6.9-3.5 9.48-6.89l.19-.91h-.11c-.4-.17-1.08 0-1.44-.16v-.16-.08a1 1 0 010-.17v-.08c.51-.77 1.53-.58 1.92-1a.17.17 0 010-.06.43.43 0 000-.11c3.29-2 7.31-3.74 9.78-6.62l4.42-3.69h.11c.16.07.37.11.5.17h.06v.12a.55.55 0 010 .16c-5 3.82-8.54 8.33-14.3 10.39v1.22c1.34.31 2.47-1.1 3.91-1.41 2.78-1.75 5.36-3.92 8.34-5.25a1.62 1.62 0 01.3 1.14 13.93 13.93 0 01-2.78 1.52l-.3.31.17.19a.65.65 0 01-.14 0h-.23a3 3 0 00-.94.42v.33l-.19-.22c-.83 1.44-2.56 2-4 2.78-1 .31-1.89 1.12-2.81 1.33a.75.75 0 00-.33-.33c-.16-.08-.34-.14-.48-.2h-.11a.47.47 0 01-.14-.17v-.08c-1.57 5.1-7.23 5.93-10.92 9v.06a1.45 1.45 0 00.95 1.58h1.67a134 134 0 0012.52-9.36 3 3 0 011.81-.61.46.46 0 01.22.14v.2c-.27.64-1.43.78-1.8 1.25a62.77 62.77 0 01-11.12 8.55.27.27 0 010 .09v.36a3 3 0 00.78.39c4.53-.61 7.32-4.92 10.92-7 3.5-2.88 6.38-5.34 9.47-8.33.2.19.58.31.69.5a.88.88 0 01.14.31v.08l-.09.09c-.12.09-.32.17-.44.27a.41.41 0 00-.05.09v.11a1 1 0 00.05.2c-3 1.64-5.15 4.51-7.83 6.47-2.16 1.75-4.92 3.61-7 5.55 1.75 1.65 3.89-.82 6.05-.72a5.73 5.73 0 013.2-3.19l.3.41a19.07 19.07 0 00-2.16 2.89 2.82 2.82 0 003.08-1.25c4.32-3.08 5-8.74 9.47-11.52.82 2-2.06 2.06-2.16 3.91a15.36 15.36 0 00-2.78 4.64l-.2-.22-1.55 2.05a2.91 2.91 0 002.28 1.14c2.26-2.15 3.18-4.71 5.55-7.08a1.16 1.16 0 01.42.22V131.18a1.65 1.65 0 010 .42 7.8 7.8 0 00-2.39 3.39c2.67 1.22 3.39-2.58 4.83-3.92a21.46 21.46 0 013.31-6.06.57.57 0 00.16.11 3.17 3.17 0 01.37.17l.08.08a.94.94 0 000 .09v.06h-.17a23.39 23.39 0 00-3 6h.05c.35.2.62.83 1 1h.3l.19-.14.06-.06.14-.16c.71-.92 1.34-2.12 2.05-2.95h.06a.76.76 0 01.11.14.13.13 0 000 .05 2.08 2.08 0 01.06.83v.14c-.11.51-.73 1-.94 1.42a.11.11 0 000 .06v1.2a.11.11 0 000 .06 1.19 1.19 0 00.44.42 4.15 4.15 0 003-2.67.84.84 0 01.31.28v.08c.28.84-.93 2.33-.91 3a.4.4 0 000 .11 3.18 3.18 0 001.47-.25.52.52 0 00.19-.17l.06-.08c.08-.16.14-.36.22-.5a.42.42 0 01.22-.14.87.87 0 01.28 0 .93.93 0 01.28.23l.08.11a.7.7 0 010 .25 1.07 1.07 0 01-.19.61 1.36 1.36 0 01-.22.25c1.13 1.43 3 1 4.11 2.47l.92-1.53h.52a3.59 3.59 0 010 .47v.06h.06v.05l-.14.11c-.22.25-.28.59-.47.81a.53.53 0 01-.14.11l-.08.06c.21.56.46.79.72.83a.69.69 0 00.25 0c.35-.07.72-.32 1-.39h.28a.62.62 0 01.14.14 2 2 0 01.17.75 2.69 2.69 0 00.91.67 1.34 1.34 0 00.64.05c.56-.47.87-1.52 1.61-1.64h.23c.1 1-.32 2.27.3 3.09a.78.78 0 00.53.05l.14-.05a2.92 2.92 0 01.61-.31.66.66 0 01.28 0 1.43 1.43 0 000 .33.11.11 0 000 .06V141l.06.09a3.23 3.23 0 00.53.27l1.28.64a18.73 18.73 0 001.52-5.53 3.34 3.34 0 00.89-1.33 1.92 1.92 0 000-.22v-.11-.12-.08a.26.26 0 000-.08v-.06c-.51-1.16-3.44-1.39-4.14-2.61-4.22-2.26-7.82-6.79-11.11-10.39a.57.57 0 01-.11-.11c-.46-.52-.34-1.27-.81-1.75-2.47 3.91-7.19 2.59-11 2.59-3.3-1-7.73-3.4-8.86-7.73l.22-1.33a.8.8 0 01.22 0h.31v.08c0 .02 0 0 0 0 .12.38 0 1 .05 1.42a.11.11 0 010 .06l.06.06c.68.48.63 1.63 1.33 1.83h.11a18.62 18.62 0 011.84-2.09c1.54 1.66-3.08 2.9-.31 4.14l2-2.58.81.72a6.65 6.65 0 00-1.53 2.59 10.13 10.13 0 011.83 1.11c.31-1.85 1.45-3.3 2.48-4.84 1.13 1.14-.94 2.49-1.14 3.92-.16.24-.5.44-.64.69v.12c3 .1 6.57 1.86 8.11-2.25a.73.73 0 01.31.25l.06.08v.14a1 1 0 010 .17 3.24 3.24 0 01-.22.88l-.92.73c2.67 1.12 3.2-2.17 4.95-3.39.72.71.62 2 1.14 3 4.62 4.84 8.52 10.41 14.8 12.67a16.37 16.37 0 002.36-4.84 6.35 6.35 0 014.34-.61 9.14 9.14 0 013.27 3.59 20 20 0 01-.3 7c1.44.72 3.71.3 5.36-.42-.21-2.67-2.39-7.19 1.11-8.83a15.17 15.17 0 015.67-.23c.62-2.88-.73-6.17-1.86-8.64a1.22 1.22 0 01.19-1.19.92.92 0 01.25-.19c.66-.35 1.82-.23 2.44-.59l.12-.08c5.86-1.33 12.86-3.59 15-9.86h.39c-.31 6.27-7.51 8.42-12.25 10.16-1.75.52-3.68.53-5.22 1.56a9.13 9.13 0 001.11 3.31c2.78-.11 6.3-2.48 9-4 .72 0 1.43-.73 1.84-1.14 3.5-.83 5.75-5.33 9.36-5.33 1.13.11 2.27 2 3.61 1.44a6.89 6.89 0 007.19-2.28.69.69 0 01.14-.22c.35-.35 1.12-.28 1.72-.28a27 27 0 007.2 4.2 3.75 3.75 0 01.92-.09h.16a1.59 1.59 0 00.25-.17c-6-4.72-11.92-9.25-19.64-9.44-8.33-2.07-11.95 10.37-20.39 8.52-1.95.1-5.13 0-6.16-2-1.85 1.85-4.72 3.38-7.5 2.25-1.75-1.33-3.6-2-5.25-3.39-1.75 1.24-3.59 3-6.06 2.06-6.28-1.76-10.91-8.32-17.8-8.12.91.76.79.75.67.75zm13.27 8.53c1.13.41 2.56 1.23 3 2.36a1.19 1.19 0 01-.36.09H277.87c-.71-.23-1.3-1.12-2-1.5a1.51 1.51 0 01-.28-.75v-.08z" fill="#ffea0f"/><path d="M326.56 138.47a1.5 1.5 0 00-.44.2c-4 3.7-9.26 6.37-13.89 8.33a47.09 47.09 0 01-12 2.25v.08a.84.84 0 00-.06.14v.64a1 1 0 01-.06.22.93.93 0 01-.31.33l.2.2c-1.24 1.75-3.6 1-5.25.94-1.79-.81-5.38.72-6.75-.91a2.27 2.27 0 01-.45-.95l-.72-.92c-2.64-.67-5.54-.9-7.94-2.25l-2.25-.66c-1.41-.53-3.31-1-3-3.06h-.45c-.38.16-.61.63-.92.78H271.83a.57.57 0 01-.13-.08l-.06-.06c-.65-.74-.65-2-1.56-2.52a1.38 1.38 0 00-.3-.14c-.21.63-.21 1.35-.72 1.86a13.19 13.19 0 01-4.42-3.09 1.5 1.5 0 00-.28.62 3.56 3.56 0 01-.14 1.25c-1.85-.63-1.72-2.91-4-2.81a4.13 4.13 0 00-.22 1.86l-.16.11a.65.65 0 01-.17.08.51.51 0 01-.17 0h-.19c-.81-.14-1.68-1.33-2.67-1.55a1.45 1.45 0 00-.3 0l-.2-.2c-.72.81.1 1.53-.72 2.25-1.34-.63-2.78-1.95-4.22-.91.1 1.54.42 2.66-.81 3.89a1.38 1.38 0 00.53.33H251.28c.65-.22 1.12-1.35 1.78-1.64.88-.07 1.6-1.08 2.42-1.33a1.19 1.19 0 011 .19 1.47 1.47 0 010 1c-.27.66-1 1.14-1.28 1.75v.11a.26.26 0 000 .08 2.08 2.08 0 001.72.34h.14l.08-.05c.8-.64.88-2.45 1.58-3.22l.06-.06.14-.11.08-.06h.06l.11-.06a2.5 2.5 0 012 .56v.05l.05.11a1 1 0 01.06.22c.13.81-.66 1.55-.72 2.09a.21.21 0 000 .11v.14l.06.08.13.11a2.29 2.29 0 00.62.22c.82-.93 1.35-2.16 2.69-2.47.41.52.72 1.34.31 1.86-.11.16-.26.26-.34.39a.13.13 0 010 .05v.25c2 1.23 2.86-2.88 5.33-1.13.1 1.13-.31 1.86.31 2.58 1.33-.32 2.57-1.74 4.11-.92a.55.55 0 01.14.09c.52.58.78 2.31 1.47 2.75.32.14.75 0 1.31-.53 2 0 3.6 1.86 5.56.61 1.33-.5 2.49-.13 4.3 3.06l27.72.83c4.38-3.91 9.84-5 14.78-5l.28-.22.08-.09v-.13c-5.35-1.75-8.64 1.53-13.89 1.63a10.19 10.19 0 00-.61-.94v-.06a.81.81 0 000-.11v-.14c3.91-1.33 6.9-4.74 11.53-4.64a13.4 13.4 0 005.78-2.55 4.8 4.8 0 00-3.2-.23c-1.64 1-3.81 3.31-5.55 1.87.5-1.65 2.76-2 3.69-3.31v-.14l-.09-.08h-.56zm-17.75 12.17a2.1 2.1 0 01.72.05h.09a1.18 1.18 0 01.19.11.93.93 0 01.14.14 1.05 1.05 0 01.22.45 3.33 3.33 0 01-2.41-.12l-.14-.11v-.06a.86.86 0 01-.13-.36 6.32 6.32 0 001.32-.1zm-5.33 0h.39l.09.09.05.05a1.46 1.46 0 01.14.28v.06a.87.87 0 01-.12.14c-.44.37-1.38.1-2 .2l-.19-.22H302.01c.36-.13.89-.54 1.33-.67h.11zM294.67 99.75a7.88 7.88 0 00-2.72.53c-3.09.92-3.38 4.62-3.69 7.61-.21 1.21-1.1 2.34-1.23 3.36l.2-.17h.08a1 1 0 01.67.14.91.91 0 01.17.17v.11a4.28 4.28 0 002.11.78 1.29 1.29 0 00.25-.06.8.8 0 00.16-.08l.12-.08a1.84 1.84 0 00.55-.87.82.82 0 01.75.12.79.79 0 01.17.19c-.19.58 0 1.32-.42 1.75l-.08.08c0 .06 0 .13.05.17a.34.34 0 01.06.06l.08.08H292.17l.48.11h.16a.44.44 0 01.11.08s.05 0 .06.06c2.58.82 3.89-1.13 5.75-2.37.41-2.16-2.37-4.62-1.14-7.19 1.14-1.54 2.58-.63 4.33-1.14a3.17 3.17 0 00.48.78l.14.14a.88.88 0 00.83.22 3.24 3.24 0 00-1.14-3.72 3.33 3.33 0 00-3.28.53 1.18 1.18 0 01-.69.44h-.09a.19.19 0 01-.08 0h-.06l-.08-.06c-.37-.39-.61-1.23-1-1.48a1 1 0 01-.22.06 2 2 0 01-1.09-.28l.2-.19a9.42 9.42 0 00-1.17.12zm.17 1.94c.48-.12 1.05.47 1.44.86.21.72-.63 1-.94 1.34a1.57 1.57 0 01-.92-1.86 1.27 1.27 0 01.14-.17h.05zM338.45 114.38c2.68 1.13 5.15 3.5 8.34 2.78 5 3.19 10.49 7.62 15.74 10.18 2.47 2.88 6.38 4 8.33 7.21-6-4.33-12.34-6.18-18.31-10.7-2.37-.83-4.84.1-6.89-1.45-3.3-1.33-5.87-4.62-9.06-6.37-.51-.92-1.34-1.85-.93-2.88 1.45-.82 1.55 1.13 2.78 1.24M325.49 115c-.51 7.82-9.56 12.75-14.81 17.59-1.24.2-2.16 1.44-3.7 1.24a25.24 25.24 0 01-2.16-9.05c5.76-1.55 10.69-5.56 15.84-8.35a7.65 7.65 0 012.77-2.35 2.16 2.16 0 012.06.92" fill="#ffea0f"/><path d="M340.1 120.35c-1.24 1.45-2.68 1.13-4.43.92.21-.62-.51-.62-.51-1.13-1.13.31-2.16 2.57-3.5.93-2.15-.72-2.46 2.16-4.52.72L325 122c-.72 2.57 2.47.31 3.3 1.34 1.54 1.44 2.47-3.08 4.11-.41 1.24.41 2-.72 2.78-.93.62 1.34 1.85.52 3.09.72.51-.1.91-.51 1.53-.31a14.58 14.58 0 005.76 6.49c.72-1.65-1.75-2.68-2.67-3.71-1-1.23-2.47-3-2.16-4.11l-.41-.42c.3.11.62-.4.92.21l.21-.21-.21.21c2.88 1.34 6.69 5.15 9.47 3.5a.52.52 0 01-.21.41c3.4-.41 5.66 3.29 8.75 4.22 2.37 1.64 4.83 2.78 7.41 4.52 2.46 1.13 4.11 2 5.34 4.63 0 .72 0 1.75-.72 2l-.71-.11c-4.63-3.49-9.16-7-13.89-9.87-.82.41.1 1.12.31 1.54 4.11 3 8.85 5.76 12.45 9.05-.42.72-.93 2.16-2.06 1.23-3.4-.61-6.59-3.38-9.47-5.55-2.88-3.7-7.2-5.45-9.25-9.56-.31.19-.72.19-.93.51v.61c5.35 4.84 10.18 11.43 16.67 14.41 0 .42.1.93-.31 1.13-1.43-.92-3-2.06-4.63-1.85-1 1.44-2.88.42-4.12.21-2.46-2.78-6.17-5.67-8.12-9-.31-.1-.52.21-.72.42.72 2.57 4.22 5.25 6.07 7.61-.51.41-.82 1.44-1.44 1l-3.4-3.29a.39.39 0 01-.72 0c-3-2.77-5.35-5.24-6.89-8.84a.87.87 0 00-.93.31c1.34 4.21 4.53 6.69 7.41 10-.31.21-.1.52-.1.83-2.67-1-4.42-3.91-7.09-4.63-.52-2.78-2.57-4.52-3.09-7.11-.41-.09-.51.21-.82.42.31 2.57 2.57 4.63 2.68 7 .1 0 .2.11.3.2-2 0-3-2.15-4.83-3.18a14.36 14.36 0 00-1.24-5.34h-.62c-.1 1.64 1.14 3.9.42 5.34-.93-.61-1.44-2.68-3-2.37-1.23 2.26-4.94.83-5.76 3.3l.21.21h-.31c0-.63 0-1.14-.62-1.44-.92.72-.41 2.26-1.43 3.08-.72-.61-2-.1-1.85-1.44-1.65.1-.31 2.16-1.55 2.78-.82-.2-.51-2.27-1.85-1.44l-.1 2.57c-.72-.21-1.85-.41-2.47.2-.52.41-.52 1-.72 1.65-.62-.1-1.13-1-1.85-.41-.72.41-.52 2.06-1.65 1.54.21-.92-1-1.13-.92-1.86-.21-1.73-1.24-3.59-.62-5 5.45-.92 8.85-5.86 12.86-9.26 3.91-2.68 5-6.28 6.28-10.19a10.26 10.26 0 007.6-.92c.52 2.78 3.81 3.6 5.66 5.76M291.64 132.38c-.1 5.25-1.23 10.19-1.85 15h-1.13c.2-.92.41-2.27-.21-3-1.75.32.52 5-3 3.29-.93-.61.41-1.75-1-1.85-.2.42-.62.92-.2 1.35a5.85 5.85 0 01-2.26-.43c.21-1.64 2.68-3.18 1.54-4.83-1.13 1.24-2.47 2.89-2.47 4.54h-.92c1.85-3.81.92-8 3-11.73l-.2-.21.61-.3a6.39 6.39 0 01.93-2.79 2.81 2.81 0 011.85-1.85.62.62 0 001-.61c2.06.1 3.4 1.75 4.32 3.39M300.65 130.3h-2c-1 .41-1.15 1.54-1.25 2.36 1.23 5 .43 10.2 2 15a1.81 1.81 0 00.19.25 1 1 0 00.17.14.11.11 0 01.06 0l.14.05c.63.18 1.37-.3 2-.3l-.19-.73c.08-.95-.89-2.35-.47-3.16a1.1 1.1 0 01.19-.25 1.54 1.54 0 01.59-.28c.82 1.44.7 3.08.91 4.61l5.78-1.53c-.62-1-.33-2.57-.94-3.69a1.21 1.21 0 01-.17-.31v-.36a.41.41 0 01.05-.09l.06-.05a1.8 1.8 0 01.2-.11c-2.58-3.5-.94-8-3.92-11.33a20.78 20.78 0 00-3.4-.22zm4.88 14.12c.83.41.71 1.54.92 2.36l-.14.08a.51.51 0 01-.17 0h-.33c-.16-.62-.7-1.37-.58-2a.43.43 0 010-.11v-.09l.11-.16a1.52 1.52 0 01.19-.08zM297 140.1c.11 3.19.21 6.79 2.06 9.47.31.72-.51 1.12-.72 1.54-1.34.61-2.36-1.54-3.7-.82.1-.62.51-1.65 0-2.16-.52.2-1.14.72-1.14 1.23v1.14H292c-.51-.93.51-2.58-.93-3.29.31-2.07.31-4.84.83-7.41 1.53.93 3.91-.32 5.13.3M289.07 150.7v-1.85c.62.2.93-.41 1.44-.52l.2 2.37h-1.64" fill="#ffea0f"/><path d="M240 152.59s-3.34-6.26-7.72-6.77-6.86-.36-9.94 1.44-8.89 5.41-12.18 17.58-3.6 18.86-2.57 26.5c0 0 4.12 30.6 20.06 52.47s29.15 32.4 38.32 37.55c7.85 4.39 30.36 12.6 30.36 12.6s28.54-6.95 50.41-30.1S371.86 232 378 217.06s6.51-26.49 5.48-35-4.36-25.72-12.34-31.13-12.86-4.62-16.72-3.08-7.2 5.66-7.2 5.66z" fill="none" stroke="#ffea0f" stroke-width="3.09"/><path d="M276.37 160.64l-.11.05-.11.06a.61.61 0 00-.28.39c-.15.79.83 2.22.83 2.22l1.53 24.69-2.39-.16-.53-7.89-3.75.33v6.36h-3.78l-2.58 2.39-.5-7.39 5.31-.33-.5-2.22-5.2.52-1.16-12.52h-1.89l.36 22.63-4.64-.69-3.25-15.25-1.39.17-.67.66-3.77-.33v5.14l4.44.69 2.25 10.11a3.88 3.88 0 00-1.08.45l-.09.05a.76.76 0 00-.08.11V191.27a16.12 16.12 0 002.06 2.75l9.77-.83 1.39-1.56 1.7 1.36 3.28.2 1.19-1.73 2.39 1.36s6.18-1.88 8.75-1.88 47.14 1.19 47.14 1.19l-1.53 2.42a2 2 0 001.72 1.72c1.55.16 27.78.14 27.78.14l-1.56 4.47.58 3.12-3.08 4.3 2.91.17-4.3 6.14 2.75.36-2.75 2.75 3.94-.2v9.62l2.06-.17v-3.45h2.75l-.17 3.62h2.75v-5.31l1.53.17v5.5h1.89l.86-15.11 2.39 1.55-.34-4.11 1-.17s-2.42-4-2.42-5.66-.16-3.78-.16-3.78l1.89.86 1.19 2.06-.83 2.22 2.05-.86-.35 15.5-2.39 3.25 2.23-1 .52 1.23 2.56-5v-13.79l.69-4.27 2.75-.34.17-1.36-2.58-1.55 2.75-1.53-2.06-2.09-.36-4.27 2.58-2.23-2.58-.86-.67-4.27 1.7-1.23s-1.36-2.21-1.7-3.05a21.38 21.38 0 01-.69-2.59l3.44-1.19a56.08 56.08 0 00-6.36-4.81c-2.3-1.31-6.36-3-7.28-3.69l-.08-.08c-.68-.69-2.75-2.92-2.75-2.92a5.14 5.14 0 00-2.69-.14l-.14.08h-.06c-1 .94-12.33 10.14-12.84 10.94-.34.69-1.37 4.32-1.89 5.17s-2.23 3.23-3.08 4.44a9.27 9.27 0 00-1.19 2.23 3.28 3.28 0 001 .52h.33c.51-.16 2.75-1 3.61-.69a3.46 3.46 0 011.36 1h-2.22c-1.37 0-4.11 1.37-5.14 2.22a20.26 20.26 0 01-3.25 1.89l-.7-.34 4.81-3.44c-.11-.09-1-.78-1.5-.53h-.06c-.51.33-3.59 1.7-5 2.39a10.94 10.94 0 00-2.55 1.89v.47c-.26-.44-4.5-7.5-10.81-7.67s-10.55 7.24-10.8 7.7l-13-2.06.36 1.57-7.53-.53 3.75-1.19.36.69 2.23-.69-12-3.08-1.2 3.08-3.28-.33-2.72-24.7a3.28 3.28 0 00.14-2.05v-.06l-.08-.11-.08-.08-.11-.09a1.42 1.42 0 00-.48-.16h-.55zm92.64 9c.17.08 1.2.5 1.83.81s.67 1.38.67 2.91a8.9 8.9 0 01-.34 2.56l1.2 2.08 1.19-2.25h.86l-2.05 4.14.11.09h.06a1.74 1.74 0 00.78.14h.22c.61.2.78 1.2.8 1.33s-.16 2.42-.16 4.31A2.19 2.19 0 01374 187a2.09 2.09 0 01-.22.28 1.55 1.55 0 01-.31.23 1.78 1.78 0 01-.61.19h-.05a9 9 0 001.16 1.06c.69.5.84 2 .84 5.8s-2.41 4.59-2.56 4.64l-2.58-5.14 2.05-1-2.72-5.17 2.72-1.36a18.31 18.31 0 00-1.69-2.75c-1-1.37.17-4.28.17-4.28a3.13 3.13 0 00.16-2.56 2.39 2.39 0 01.34-2.39 7.15 7.15 0 01-.17-2.39 1.66 1.66 0 000-.22v-.09a5.34 5.34 0 00-1.53-2.24zm-2.34.83l-.8 1.36 1.53 1.7s-.6 2.93-.23 4v.11c.52.85 2.4 1.9 1 5.33s-1.56 5-1.39 6.34a18.68 18.68 0 010 3.25l-.84-.17-.52-3.08-.5-1.2a37.32 37.32 0 00.5-4.3 14.86 14.86 0 00-1-3.92 54.19 54.19 0 00-6.5 1.53c-1 .5-3.45 1.39-3.45 1.39l-.33-1.06s7.44-2.7 8.06-3.08a4.84 4.84 0 011.89-.34l1-4.11S364 173 364 172.47v-.08a11.71 11.71 0 012.67-1.95zm-7.8 13.34h.53l.06.05a1 1 0 01.11.2 2.91 2.91 0 01.14 1.16l-1.22 2.59.69.66 2.39 1.22.86-3.77 1-.5a14.5 14.5 0 01.36 2.22 25 25 0 01-1.72 5 2.65 2.65 0 00.33 2.72l-.5 1.89h-.86v-1a2.64 2.64 0 00-.53-1.88l-.12-.11c-.6-.47-1.4-.06-1.89 0h-.14a7.63 7.63 0 01-2.06-1 4.6 4.6 0 00-1.19.5H355c-.55 0-1.4-.87-1.86-1.77a21.79 21.79 0 01-1-3.78l-.87.36-.86-.86 3.61-2.92.17 1.36-1 1.2a17.62 17.62 0 00.34 2.75 2.75 2.75 0 002.05 2.22l1.56-1.19 1.19 1.72 2.39.33.86-2.22s-3.94-1.73-4.8-2.75a1.56 1.56 0 01-.23-.36 3 3 0 01.92-2.89 6.07 6.07 0 011.28-1.14l.14-.06zm8.19 10.47l-.16 2.55-1 2.75-.36-.66-.5-3.78zm-5.33 5l1 2.06-.84 2.22-1.22.86v-2.92zm3.94 4.47l1.56.34s.17 2.07.17 2.75a28.18 28.18 0 01-1.2 3.94l-1.2-2.14zm-4.77 2.56l.83 1.39-.67 2.55-1-.16v-2.92zm.66 5.5l.7 1.53-.53.86-1.73-.2zm2.92 2.05l1.72.34-.86 5.5-.86-.2zm-4 2.92l2.23.7.19.66-2.58 2.56-.7-.31-.16-2.78z" fill="#ffea0f"/><path d="M280.67 192.75a8.77 8.77 0 00-4 2.19 1.14 1.14 0 01-.11.11l-.06.06c-1.39 1.58.38 6.32 1.2 9.94.86 3.78 7.55 13.56 7.55 13.56l3.25 6.17a7 7 0 00-1.36 1.55 15 15 0 00-1.55 8.06c.34 3.94 4 5.47 5.5 6.33s5.14.33 5.14.33l1.19 1-21.08-1 1.53-6 1.22-2.72s.66 4.09.83 4.78a.6.6 0 00.06.11 1 1 0 00.08.14l.05.05.06.06.19.14a1.41 1.41 0 00.95.16h.19l.09-.08c.34-.51.5-2.75.5-5.67s.17-10.81 0-12.86a2.6 2.6 0 00-2.05-2.39l-5.31-.33a6.63 6.63 0 00-.16-1.56l-.06-.09a8.07 8.07 0 00-3-1.41 85.5 85.5 0 00-10.11-.84c-2.05 0-7.89 1-12.53.84s-12.33 1.55-12.33 1.55l-3.08-2.55-1.73 1.36-2.25.16.7 2.92s-1.35 6.69-1.7 7.72v.11a1.33 1.33 0 000 .28 4.67 4.67 0 002.28 2.83 8 8 0 002.91.5l1.67-1.64a2.44 2.44 0 00-.14.81 4.72 4.72 0 00.53 1.69 10.77 10.77 0 003.22.7c.86-.18 3.08-.53 3.08-.53s1.54 3.6 2.22 5.14-.16 6.36-.16 6.36a12.33 12.33 0 00-3.42 1l-.11.11v.28l.05.11v.11a5.69 5.69 0 003.47 1.11c1.89 0 7.21.33 11.5.33s12.67-.35 16.44-.53 8.08-.66 12.36-.66 14.57.66 17.14.66 11.16.7 13.56.7 12.51.19 14.91.36 15.78 1.69 17 1.53a2 2 0 00.55-.17 1.22 1.22 0 00.28-.17l.06-.05.05-.06.08-.11.09-.16.05-.11V245l-3.94-1.36s-7.59.33-8.23.28l.87-.09c4.11-.35 7.69-4.11 8.55-6.16s.33-6.53.33-6.53a24 24 0 002.75.33 44.87 44.87 0 014.81 0 4.52 4.52 0 003.61-1.36 15.28 15.28 0 011.89-1.36l-5.67-.53.86-3.25.34 2.92 1.89-.53-.17-7.53-.53-.36-2.05 2.25.69.5-1 .7-1.15-2.09-2.42 4.45h1.22l-.52 2.58h-3.42s.16-3.44.33-6.69 5.48-14.23 7.36-16.12a5.31 5.31 0 001.56-5.13v-.06l-.05-.08-.11-.11c-.91-.75-3.94-1.45-5.61-1.45-1.89 0-3.79 1.05-5.5.36a9.2 9.2 0 00-6.09.62h-.06a.91.91 0 01-.16.11 7.4 7.4 0 01-6.14-.47c-2.4-1.37-4.82-.52-6.53-.17a5.55 5.55 0 01-5-1.19c-1.72-1.38-4.45-.51-5.14 0h-.11a5.83 5.83 0 01-4.67-.58c-1.55-1-2.58-.69-6-.36s-3.27-.51-5.33-1.36-7 .87-9.78 1.05-2.92-.35-5.83-2.58a4.33 4.33 0 00-2.81-1h-.42zm-46.77 27.58a.31.31 0 01.11 0v1.31l-.08.14-.06.05a1.56 1.56 0 01-.25.17 2.64 2.64 0 01-.61.19 1.1 1.1 0 01-.33-.19l-.12-.11a.85.85 0 01-.13-.25.66.66 0 010-.47 2.16 2.16 0 011.47-.84zm6.36 1.72h.16a1.25 1.25 0 01.53.12h.08a3.12 3.12 0 01-.69 1.36 1.35 1.35 0 01-.28.23l-.14.05h-.14a.45.45 0 01-.14-.06h-.11s-.33-1.21.36-1.56a1.59 1.59 0 01.37-.14zm103.47 1.53l.36 4.61s-1.21-2.05-2.58-2.55-3.08-.7-7.2-.7-6.54 4.34-6.69 4.61l-.86-.33 1-4.44-22.77.69a18.41 18.41 0 013.75 2.22c1.71 1.37 3.41 5 3.41 5l-.5.69 8.75.17s-.68 3.24 0 4.61a32.89 32.89 0 002.06 3.28h-14.73s2.74-3.11 3.08-4.31.86-3.75.86-3.75a7 7 0 01-1-1.89c-.35-1-1.55-2.24-3.09-3.61-1.63-1.35-9.75-2-9.75-2l-1.72-1zM316 225.64l.7 1v1.69l-1.2.19v-1.88zm20.58.86l.87.83-.7 2.92-.5-.17zm-89.86.17l.86 1.88-.86 10.7c-.15-.87-1.36-7.76-1.86-8.45a16.52 16.52 0 01-1.55-2.92zm44.59 0l3.44.66-1.89 1.56-2.05-1.2zm32.25 0l1.19.33-.69 2.75-.67-1.89zm11.14 0l.52 3.25-1.55.33-1-3.08zm-3.78.86l1.19 2.39-.33.69-2.22-1zm-31.2.16l1.53.17-.33 3.25-2.22-1.89zm39.61 0l.87 1-1.39 1.89-.67-.33zm-35.66.34l1.53 1.39-1 2.38h-1l-.17-.86zm-33.45.86l.53 2.39 3.58 2.08-1.52 7-6 .16zm19.23.53l3.08 1-.36.5-3.25-.86zm25.19 0l4.44.16.2 1h-4.47zm-17.14 1l1.5 1.38-.86 1.37-1.7-.17zm31.72.17l2.39 1.53.17 1.22-2.39.83zm-78.72.5l4.11 3.25v6l-5-.53zm91.22.17l-.16 1.22-2.39.67-.2-1.7zm-36 .19h1l.17 2.56-2.06.16-.33-.83zm-17.33.33l3.44.7-3.44.5zm47.5.67h.39l.11.05a1.17 1.17 0 01.36.31l.08.11a1.42 1.42 0 01.17.72 1.63 1.63 0 010 .31 1.65 1.65 0 01-.19.47l-.06.08-.11.12-.06.05-.08.06a1 1 0 01-.42.11 1 1 0 01-.44-.11l-.08-.06-.06-.05-.11-.12-.06-.08a1.65 1.65 0 01-.19-.47 1.63 1.63 0 010-.31 1.59 1.59 0 01.22-.8 1.17 1.17 0 01.36-.31l.11-.05zm-69.61.2l-3.28 7.9-3.78.17a11.53 11.53 0 01-.86-2.22c-.17-.85 0-5.67 0-5.67zm34.92 1.16h.38a.59.59 0 01.14.06.64.64 0 01.14.08 1 1 0 01.2.22v.06a.13.13 0 010 .05V234.75s0 .09-.05.12l-.01.13-.05.05-.14.12-.11.05h-.35a.82.82 0 01-.42-.25.64.64 0 01-.08-.14v-.06a.13.13 0 000-.05v-.11-.06-.36-.05c0-.05.06-.09.09-.11a.38.38 0 01.14-.11h.05zm-8.87.53l.37.86-2.92 1.56-.86-1.36zm47 0l1.7.19-.17.87-1.53-.2zm-43 .19h2.58l.17 1-1.53 1.7zm27.94.34h1.06l-.2 1.39-.86.66zm7.39.16l.34 1-2.23 1.56-.69-2.06zm-26.91.37l2.38.5-.5 1.36-2.22-.5zm33.08.86l1 2.91-1.89.84-.34-3.42zm-44.58.16l.69.67-.69 1.72-1.7-.69zm9.61.86h.86l.5 1.89-1.2.5zm-2.39.17l1.36 1-.17 1.36-2.22-.17zm32.05 1l-.16 2.05-1.36-.5zm1.89.69l.86.34v1.69h-1.55z" fill="#ffea0f"/><path d="M283.55 208.32s-2.4-4.29-2.57-6 .85-5.31 3.25-2.91 3.09 3.94 2.92 5a21.84 21.84 0 00-.17 2.74m2.57-8.23s2.57 6.52 3.6 9.08a26.33 26.33 0 011.37 6m3.61-.86l-1-9.94m12 12.51l.52-8.91m10.45 5l.52-5.48m8.74 7.71l1-8.74m9.09 10.28l2.74-8m-45.95 8a18 18 0 013.77 1c.86.51 2.06.68 2.06 1.54v2.56m0-2.56s.17-1.89 2.57-1.72 3.95 0 4.12 2 .17 2.75.17 2.75m2.23-.16s-.69-3.61 1.89-3.61 5.14.18 5.31 1.38l.34 2.39m6.69 0s0-3.77 2.57-3.59m8.57-1s-3.26.51-3.08 2.23A5.64 5.64 0 00334 221m5-.36s.86-2.91 2.06-3.25 2.75-.69 2.75-.69m-55.39.35l3.09-1.38" fill="none" stroke="#002a86" stroke-linecap="round" stroke-width="1.03"/><path d="M348.71 233.86h1.89m2-.17l9.78-2.06M349.22 237l2.58-.17m-5.8 2.52l5.31-1m.17 2.23s4.8 1.19 5.66.68" fill="none" stroke="#ffea0f" stroke-linecap="round" stroke-width="1.03"/><path d="M289.21 218.79l3.08-1.37m-2.61 2.9l3.09-1.38m-2.06 2.92l3.09-1.37m-2.57 2.89l3.08-1.36M238.11 217.4a58.7 58.7 0 017.37-1.54c1.55 0 3.09 1 3.61.85s2.4-.68 3.76-1 10.63.69 10.63.69m10.64.34l-2.23.17m-22.12 1.9s-1.71.68-1.37 1.54.86 2.23.51 2.74-1.71 1.88-.68 2.4a8.45 8.45 0 001.88.68m1.21-2.74s-.52-2.39.68-2.74a6.55 6.55 0 012.4-.17m2.6 4.08l2 5.83" fill="none" stroke="#002a86" stroke-linecap="round" stroke-width="1.03"/><path d="M223.87 161.33l-1.2.2-.16.83-2.92 1.36 2.92.2v1.36l-2.23 1.89-1.72 3.77-.16 3.95-7.4 6.83 8.41 9.78 24.59.5.67-2.59 1.72-2.22.17-4.64.86.2.16-.89h-4.44l-.53 2.41 1.36.34-1.19 1.88-1.89.5.53-9.77 2.39-.67-.17-1.56-5.31-.33.34 12.5-4.45-.17-.19-5.83 2.75.33V173l-2.56-.36v-2.22l2.06.19-.17-5.17-1.72-.16-.36-2.39h-1.86l-.36 3.61-2.06 2.22-.33 1.53 2.55.36v1.89l-4.77-.36v5h-1.56l.17-8.58 2.75-2-3.95-.89zm-1.53 16.81l.69 9.41-2.05-.16.17-9.09zM218.9 180v6.66L217 185l1.37-4.81zm10.8 0l2.06.16v7.53h-7.2v-3.19l1 .14-.17.86 4-.17zm-14.7 1.72l-.2 1.56-1-1z" fill="#ffea0f"/><path d="M333.1 186.19l10.46-4.29m-11.66 2.92l13.89-7.37 31.38-15.78m-1.37-4.28l-44.24 25.88M370 151.72l-39.61 29.84M353 149.67l-23.67 32.23 34.47-33.6m-19.21 6l-17.49 26.93m8.06-27.1l-9.94 25.54m4.8-25.88l-5.83 25.88m.17-25.72L322.13 179m-3.26-25l.86 25.05m-8.06-24.87l6 24.34M300.18 154l15.61 24.87-10.12-24.69m-12.86-.18l20.75 26.41m-27.27-26.57l25.56 28.46m-32.76-28.46l31.38 29.14m-42-29.14l41.67 28.29m-52.3-28.46l51.61 29.65m-85.05-35.66l84.2 36.7m-90.71-32.75l88.48 35.67m-92.77-29.67l92.25 31.21m-94.47-26.59l85.56 24.36M210 168.87l9.09 2.23m35.67 7.9l18.17 5.47m-64.81 5.67l11.14.35m24.18 0l10.46.68" fill="none" stroke="#ffea0f" stroke-width="2.06"/><path d="M217.54 193.73s-1.72-1.36-2.57-1.19-3.09.86-3.09.86a10.43 10.43 0 002.57.86 8.47 8.47 0 003.09-.53M217.64 197.32s-1.71-1.38-2.57-1.2-3.07.88-3.07.88a10.15 10.15 0 002.57.85 8.62 8.62 0 003.09-.51" fill="#ffea0f" stroke="#ffea0f" stroke-width=".89"/><path d="M222.68 197.34s-1.71-1.38-2.57-1.2-3.11.86-3.11.86a10.15 10.15 0 002.57.85 8.18 8.18 0 003.09-.51M218.91 200.42s-1.72-1.37-2.57-1.19-3.09.85-3.09.85a10 10 0 002.57.86 8.32 8.32 0 003.09-.52" fill="#ffea0f" stroke="#ffea0f" stroke-width=".89"/><path d="M222.7 195.63s-1.71-1.37-2.57-1.21-3.08.85-3.08.85a10.25 10.25 0 002.57.87 8.32 8.32 0 003.08-.51M228.68 195.11s-1.71-1.38-2.57-1.2-3.09.86-3.09.86a10 10 0 002.57.86 8.32 8.32 0 003.09-.52M228.68 198s-1.71-1.38-2.57-1.21-3.09.86-3.09.86a10 10 0 002.57.86 8.39 8.39 0 003.09-.51M234.85 195s-1.71-1.38-2.57-1.2-3.09.85-3.09.85a10.3 10.3 0 002.58.85 8.18 8.18 0 003.08-.5M228 200.12s-1.71-1.36-2.57-1.2-3.09.86-3.09.86a10.43 10.43 0 002.57.86 8.32 8.32 0 003.09-.52M234.92 200.81s-1.71-1.36-2.57-1.2-3.09.86-3.09.86a10.43 10.43 0 002.57.86 8.54 8.54 0 003.09-.52M232.62 203.86s-1.71-1.37-2.57-1.2-3.08.84-3.08.84a10.25 10.25 0 002.57.87 8.32 8.32 0 003.08-.51M237.62 196.84s-1.72-1.37-2.57-1.19-3.09.86-3.09.86a10.15 10.15 0 002.57.85 8.32 8.32 0 003.09-.52M241.54 198s-1.71-1.38-2.57-1.21-3.09.86-3.09.86a10 10 0 002.57.86 8.39 8.39 0 003.09-.51M244.45 196.14s-1.71-1.37-2.57-1.2-3.08.86-3.08.86a9.73 9.73 0 002.57.85 8.32 8.32 0 003.08-.51M252 194.42s-1.71-1.37-2.57-1.19-3.09.85-3.09.85a10 10 0 002.57.86 8.32 8.32 0 003.09-.52M251.14 197.34s-1.71-1.38-2.57-1.2-3.09.86-3.09.86a10.3 10.3 0 002.58.85 8.11 8.11 0 003.08-.51M257.32 197.5s-1.72-1.36-2.57-1.19-3.09.86-3.09.86a10.43 10.43 0 002.57.86 8.47 8.47 0 003.09-.53M247 201.63s-1.72-1.37-2.58-1.2-3.08.84-3.08.84a10.25 10.25 0 002.57.87 8.39 8.39 0 003.09-.51M252.34 203.34s-1.71-1.38-2.57-1.2-3.09.86-3.09.86a10.58 10.58 0 002.58.86 8.25 8.25 0 003.08-.52M260.83 202.77s-1.72-1.38-2.57-1.2-3.09.84-3.09.84a10 10 0 002.57.86 8.24 8.24 0 003.09-.5" fill="#ffea0f" stroke="#ffea0f" stroke-width=".89"/><path d="M221.65 231.63l9.94.52-2.4 1.71 3.6-2.23 10.46-.34" fill="#ffea0f" stroke="#ffea0f" stroke-width="2.06"/><path d="M240 235.74s-1.72-1.37-2.58-1.19-3.08.85-3.08.85a10.25 10.25 0 002.57.87 8.47 8.47 0 003.09-.53M241 238.15s-1.72-1.37-2.58-1.2-3.08.86-3.08.86a9.73 9.73 0 002.57.85 8.39 8.39 0 003.09-.51M234.85 240.89s-1.71-1.38-2.57-1.2-3.09.86-3.09.86a10.58 10.58 0 002.58.86 8.25 8.25 0 003.08-.52M242.74 248.27s-1.71-1.38-2.57-1.2-3.09.85-3.09.85a10 10 0 002.57.86 8.39 8.39 0 003.09-.51" fill="#ffea0f" stroke="#ffea0f" stroke-width=".89"/><path d="M253.24 254.22s3.43-.68 5.49-.85 2.75.17 4.8 1.2.51 1.36.68 3.42-4.45 2.75-8.4 3.09-2.57-3.09-2.4-7.38-1-3.59-4.46-3.59-8.74 2.91-8.74 2.91l4.63 2.4-.51 3.09 8.4-1" fill="none" stroke="#ffea0f" stroke-linecap="round" stroke-width="2.06"/><path d="M347.72 255.25s-5.31-4.28-8.74-4.8-6-.52-5.49 3.09a51 51 0 001.16 5.87 17.25 17.25 0 013.47-.22 7.89 7.89 0 014.11 1l.35-3.93zm-87.45-7.55s-1.71 7.2 6.35 6.87 60.19-.18 60.19-.18 3.77-.51 3.6-3.77 1.7-5.65-9.09-6.17-55.73-.52-55.73-.52-5.66-.51-5.32 3.77z" fill="none" stroke="#ffea0f" stroke-width="2.06"/><path d="M325.73 254.78s.12 4 2.74 5.14c5.49 2.41 7.89-.17 7.89-.17m-3.26-7.2l-2.91.68" fill="none" stroke="#ffea0f" stroke-linecap="round" stroke-width="2.06"/><path d="M287.23 255.19l2.22 3.75-3.94-1.69-1 1.53 2.55 2.58-4.27-.69-1.7 3.61 8.39 1.36-.86 6-7.72-.7-2.72-7.69-2.59.33 1.72 7.56-9.77-.2 2.75 9.28h1.89l-1.56-6.53 7.72.53.86 3.25-4.64-1 .34 2.92 8.25 2.58 1.36 4.11a27.43 27.43 0 007 1.7c4.28.52 15.94-.5 15.94-.5l-.53-3.78a21.31 21.31 0 013.61-1.89c2.4-1 5-7.53 5-7.53l2.58-1-2.92-1.2 4.28-6.19 7.39-.17v-1.72l-7.89-.17-2.97 1.84 1.89-3.08 6.5-.7.17-1.36-7.89-.19-9.08 11-2.22-.36.33-5.84 2.75.7-1.2-1.72 2.23-.67-1.2-1 1-1.89-5.14-1 2.39-2.75-2.06-1.19-3.41 2.92.83-2.92h-6.33l-.34 2.58-1-2.75h-2.92l-.17 2.39-.86-2.22zm-.7 18.7l.34 1.72-3.09 2.72-1.72-4.28z" fill="#ffea0f"/><path d="M288.59 280.22L286.7 283m7.2 1.88l1-1.88m3.94 2.57l.52-1.89M292 271.47h7.71m4.63 3.1l-4.11 6.17h5.65" fill="none" stroke="#002a86" stroke-linecap="round" stroke-width="2.06"/><path d="M269.52 247.6h-2v-1.16h5.85v1.16h-2.05v4.78h-1.81v-4.78" fill="#ffea0f" stroke="#ffea0f" stroke-width=".89"/><path d="M274.07 252.38v-5.94h1.82v2.35h2.21v-2.35h1.8v5.94h-1.8v-2.44h-2.22v2.44h-1.81M281.14 252.38v-5.94h5v1.16h-3.17v1.22h2.92V250h-2.92v1.27h3.17v1.14h-5M296.45 246.44v3.76c0 1.65-1.47 2.3-3.11 2.3s-3.11-.64-3.12-2.3v-3.76H292v3.68a1.31 1.31 0 002.62 0v-3.68h1.8M297.69 246.44h2.53l2.19 4.42v-4.41h1.62v5.94h-2.5l-2.21-4.55v4.55h-1.63v-5.94M305.21 252.37h1.86v-5.92h-1.86zM308.05 249.41c0-1.95 1.21-3.09 3.38-3.09s3.38 1.14 3.38 3.09-1.22 3.1-3.38 3.1-3.38-1.14-3.38-3.1zm3.38-1.95c-1.23 0-1.48 1-1.48 2s.25 1.92 1.48 1.92 1.48-1 1.48-1.92-.25-2-1.48-2M315.78 246.44h2.53l2.19 4.42v-4.41h1.63v5.94h-2.51l-2.21-4.55v4.55h-1.63v-5.94M198.21 186.53l1.74 2.73 2.72.35-1.82 2.39.45 3.06-2.8-1.36-3 1 .68-2.72-1.88-2.43 2.78-.35 1.16-2.73M198.16 174.54l1.74 2.73 2.72.35-1.82 2.38.45 3.06-2.8-1.36-3 1 .68-2.72-1.88-2.43 2.78-.35 1.16-2.73M201.77 161.16l1.4 2.94 2.65.67-2.1 2.17.07 3.11-2.61-1.69-3.18.64 1-2.62-1.58-2.64h2.81l1.48-2.59M206.09 148.83l1.39 2.94 2.65.66-2.1 2.19.07 3.09-2.61-1.71-3.14.63 1-2.62-1.58-2.64h2.81l1.49-2.58M199.05 198l1.78 2.73 2.72.29-1.79 2.44.49 3.07-2.82-1.33-3 1.07.65-2.73-1.93-2.4 2.79-.37 1.12-2.77M200.52 210.39l1.78 2.72 2.72.31-1.79 2.44.49 3.06-2.81-1.32-3 1.06.65-2.73-1.92-2.39 2.78-.38 1.12-2.77M204.6 221.72l1.91 2.64 2.73.18-1.67 2.53.64 3-2.87-1.18-3 1.2.52-2.76-2-2.3 2.77-.5 1-2.83M208.6 232.07l1.91 2.63 2.73.17-1.67 2.54.64 3-2.87-1.18-3 1.2.52-2.76-2-2.3 2.76-.51 1-2.81M214.77 242.87l1.91 2.63 2.73.18-1.66 2.52.63 3-2.87-1.17-3 1.19.52-2.75-2-2.31 2.76-.51 1-2.81M221.46 253.16l1.91 2.64 2.73.16-1.66 2.54.63 3-2.87-1.18-3 1.19.52-2.76-2-2.29 2.75-.52 1-2.81M229 262.42l1.91 2.64 2.73.17-1.64 2.52.63 3-2.87-1.18-3 1.21.52-2.77-2-2.3 2.76-.51 1-2.81M238.44 271.16l1.91 2.64 2.73.17-1.67 2.53.63 3-2.87-1.18-3 1.2.53-2.76-2-2.3 2.76-.52 1-2.81M249.08 277.83l1.68 2.78 2.71.4-1.88 2.38.38 3.07-2.76-1.41-3.06.94.75-2.7-1.83-2.46 2.79-.28 1.22-2.72M258.59 284.76l1.68 2.78 2.71.4-1.88 2.38.38 3.07-2.77-1.39-3 .95.75-2.71-1.83-2.46 2.79-.28 1.22-2.71M269.39 290.93l1.68 2.78 2.71.4-1.88 2.39.38 3.07-2.76-1.42-3.06.94.75-2.7-1.83-2.47 2.79-.27 1.21-2.72M282.25 294.7l1.68 2.78 2.7.4-1.87 2.39.38 3.07-2.76-1.42-3.06.95.75-2.71-1.84-2.47 2.8-.27 1.21-2.72M295.45 297.1l1.68 2.79 2.71.4-1.84 2.37.38 3.07-2.77-1.41-3.06.94.75-2.7-1.83-2.46 2.79-.27 1.22-2.73M228.13 364.32h11.2v-39.47h-11.2zM262.26 344.6c-4.81-.68-6.48-3.74-6.48-8.89 0-8 6.42-10.29 12.93-10.29 7.07 0 12.44 2.2 12.44 10.29 0 4.87-1.24 8.33-5.54 8.94v.29c5.55.56 8.62 5.24 8.62 11.35 0 9.28-9.13 10-16.6 10-6.84 0-14.6-2.86-14.6-11 0-6.16 3.57-9.75 9.23-10.48zm12.5 8.94c0-3.73-2.71-5.38-6.05-5.38s-6 1.65-6 5.38 2.71 5.37 6 5.37 6.05-1.64 6.05-5.37zm-11.31-17c0 3.05 2.14 4.86 5.26 4.86s5.26-1.81 5.26-4.86-2.15-4.87-5.26-4.87-5.26 1.81-5.26 4.87M299 353.89c1 .69 4.37 2.74 7.21 2.74 3.9 0 5.13-1.13 5.13-4.46 0-3.61-1.7-6.18-3.42-6-2 .16-6.92.91-7.2 2.95l-6.18-2.4 3.89-20.18h21.86v7.35l-13.74-.25-1.37 6.18c.34-1 .67-.35 4.8-.35 7.63 0 12.34 4.71 12.34 12 0 9.12-5.46 14.07-14.4 14.07-8.26 0-10.63-2.74-12.35-3.43l3.43-8.23M339.79 357c.06 1.3 7.06.5 8.23.34 2.4-.34 5.61-2.17 5.83-7.2-2.2 2.77-5.38 2.52-8.91 2.05-5.15-.69-9.95-5.39-9.95-13 0-9.45 5.28-13.54 13.88-13.76 11.49-.29 16 10.11 15.62 22-.18 5.44-2.54 11.52-4.8 13.73a18.25 18.25 0 01-11.84 5.12c-6.93.65-11.15-1.35-11.15-1.35zm8.91-24.24c-3.79 0-6.11 2.31-6.11 5.88 0 4.06 2.6 5.88 6.11 5.88a5.88 5.88 0 006.11-5.88c0-3.79-2.44-5.88-6.11-5.88M90.82 60.42l-5.66 4.63S81.82 61.7 78.73 62s-6.41 4 .52 8.49c7.2 4.63 8.43 10.48 8.23 15.18a10.77 10.77 0 01-10.29 10.24c-8 .26-15.95-4.89-15.95-4.89l4.63-7.45 8.49 3.6s4.11 0 3.34-4.38-8.6-12.37-10.54-15.94c-3.09-5.66 3.86-14.4 9-13.88 7.68.76 10.29 1.8 11.57 3.34s3.09 4.11 3.09 4.11M96.22 55.27v9.52l9.26-.76.26 30.08 9.51-1-.25-29.86 8.23-1.55-.52-8.47-26.49 2.06M150.23 50.14l-12.33 1-8.75 41.16 9.52-.28 2.33-6.38 10.53-1 2.06 4.36 8.47-1.8zM144.84 62L150 76.89l-8.5 1.28zM163.35 47.3v8.75l10.55-1.28.51 31.37 11.31-1.8-.25-30.87 7.46-2.31v-9l-29.58 5.14M201.42 40.62l1 39.6 24.69-3.6-.52-8.23-14.4 1.54.25-6.68L218.9 62l-.25-7.45-5.66.26-.52-8L227.65 44l-.77-8.24-25.46 4.9M268.81 33.67c-8.49.35-17.25 5.4-16.22 18.52 1.49 19 9 24.17 17.75 24.17s15.71-11.82 15.19-22.11-4.37-21.1-16.72-20.58zm.28 7.72h.5c7.2.26 7.19 8.23 7.19 12.86s-1 12.59-8.22 12.33-6.95-8-7.72-13.36c-.75-5.22 3.77-11.54 8.25-11.83zM312.53 34.7l-20.83-.52-.26 40.65h10V57.6h4.63l-.26-7.72-4.63-.26v-8l11.58.25-.26-7.2M352.84 37.33c-8.38.17-17 5-16.53 17.89.75 19 8.07 24.5 16.81 24.83s16.11-11.2 16-21.5-3.53-21.25-15.89-21.22zm.31 7.72h.55c7.18.55 6.88 8.52 6.7 13.14s-1.54 12.55-8.73 12-6.6-8.24-7.16-13.67c-.51-5.19 4.16-11.3 8.64-11.47zM377.45 40.28a9.58 9.58 0 00-1.39.08l-1 43.19 8.23 1.56.52-9.78 14.14 13.11 1.53-9-7.22-7.44s10-5.42 9.77-11.58-1.8-13.64-10.8-17.23a37 37 0 00-13.78-2.91zm8.95 11a10.52 10.52 0 014.58.86c3.34 1.54 2.31 7.71 1.28 10.81s-9 3.58-9 3.58l.52-14.91a12.08 12.08 0 012.62-.29zM411.55 48.59L409 88.45l21.35 4.64.51-8.75-11.31-3.59.25-6.44h5.92l.26-8.48-5.41-1v-6.97l10.29 1.28.51-7.72-19.8-2.82M466.08 65.05l-6.18 4.63s-3.6-6.68-10-3.09-6.43 10.29-5.41 14.91 2.36 9.18 6.69 9.79c7.46 1 5.66-3.61 5.66-3.61l-4.63-.51-.26-8.49 13.89.78s.49 15-3.08 17.75c-4.38 3.34-14.54 6-20.84-.27-5.4-5.4-7.41-12.93-6.42-21.08.62-5.13 3.08-13.64 8-16.21s10.8-3.34 13.88-2 8.75 7.46 8.75 7.46M488.26 61.44c-8.5.35-17.23 5.42-16.2 18.53 1.49 19 9 24.17 17.75 24.17S505.49 92.32 505 82s-4.4-21.07-16.74-20.56zm.33 7.73a3.23 3.23 0 01.44 0c7.2.26 7.2 8.22 7.2 12.86s-1 12.59-8.22 12.33-6.95-8-7.73-13.36c-.74-5.24 3.81-11.59 8.31-11.83zM511.35 63l.51 39.86 8.75-.26.25-17 11.32 15.43H542l-1.29-40.64-9 .77 1 21.09-14.94-19.51-6.43.26M392.08 187.55l-1.74 2.75-2.72.34 1.82 2.42-.44 3.06 2.79-1.35 3 1-.69-2.72 1.89-2.42-2.79-.34-1.16-2.74M392.13 175.56l-1.74 2.75-2.72.34 1.82 2.42-.44 3.06 2.79-1.35 3 1-.68-2.72 1.88-2.42-2.78-.34-1.16-2.74M388.52 162.18l-1.39 2.95-2.66.67 2.11 2.17-.07 3.11 2.6-1.7 3.14.64-1-2.62 1.57-2.63H390l-1.49-2.6M384.21 149.86l-1.39 2.93-2.66.67 2.1 2.19-.06 3.09 2.6-1.69 3.14.64-1-2.62 1.58-2.64h-2.8l-1.49-2.58M391.25 199.07l-1.78 2.72-2.72.3 1.78 2.45-.53 3.06 2.82-1.32 3 1.05-.65-2.72 1.92-2.41-2.78-.36-1.12-2.77M389.78 211.42l-1.78 2.72-2.72.3 1.79 2.45-.49 3.06 2.81-1.32 3 1.06-.66-2.72 1.92-2.41-2.77-.37-1.12-2.77M385.69 222.76l-1.91 2.63-2.73.17 1.67 2.53-.63 3 2.86-1.18 3 1.2-.52-2.76 2-2.3-2.76-.51-1-2.81M381.69 233.1l-1.91 2.63-2.73.17 1.67 2.53-.63 3 2.86-1.18 3 1.2-.52-2.75 2-2.31-2.76-.51-1-2.81M375.52 243.9l-1.91 2.64-2.73.17 1.66 2.52-.63 3 2.87-1.19 3 1.2-.52-2.75 2-2.3-2.75-.52-1-2.81M368.83 254.19l-1.91 2.64-2.73.17 1.67 2.53-.63 3 2.87-1.19 3 1.2-.52-2.76 2-2.3-2.76-.5-1-2.82M361.29 263.46l-1.91 2.63-2.73.17 1.66 2.53-.63 3 2.87-1.18 3 1.2-.52-2.76 2-2.29-2.75-.52-1-2.8M351.86 272.19l-1.86 2.64-2.73.18 1.67 2.52-.64 3 2.87-1.19 3 1.21-.52-2.76 2-2.31-2.76-.5-1-2.82M341.22 278.86l-1.68 2.78-2.71.41 1.87 2.37-.38 3.07 2.76-1.41 3.06.94-.75-2.7 1.84-2.46-2.79-.28-1.22-2.72M331.71 285.78l-1.71 2.79-2.71.4 1.87 2.38-.38 3.07 2.77-1.41 3.05.94-.74-2.71 1.83-2.46-2.79-.27-1.22-2.72M320.91 292l-1.68 2.8-2.71.39 1.87 2.37-.39 3.04 2.76-1.43 3.06.95-.75-2.7 1.84-2.47-2.79-.27-1.21-2.68M308 295.72l-1.68 2.8-2.7.39 1.87 2.39-.38 3.07 2.76-1.43 3.06.95-.75-2.71 1.84-2.45-2.8-.29-1.22-2.72" fill="#ffea0f"/></svg>