<svg xmlns="http://www.w3.org/2000/svg" width="600" height="400"><path fill="#fff" d="M0 0h600v400H0z"/><path d="M278.76 285.91c43.72-24.07 70.73-87.17 62.89-169.77H215.87c-7.84 82.6 19.18 145.7 62.89 169.77" fill="#1f2c5c"/><path d="M239.67 123.07L243 133l10.45.1-8.4 6.25 3.14 10-8.5-6.11-8.51 6.11 3.14-10-8.4-6.25 10.45-.1 3.32-10" fill="#fff"/><path d="M363 227l.21-.47c.87-2.12.46-1.11-.21.47" fill="#31319c"/><path d="M366.74 153.79a4.31 4.31 0 00-1.79.64l-2.77 4.29c-.12-2.66 1.11-5.84 2.77-9.27.4-.8.81-1.62 1.24-2.44 3.58-6.93-1.24-8.87-1.24-8.87v.26l-12.85 1.81c-9.07 9.55-5.26 26.8-1.65 49 2.88 17.71 3.64 20.47 1 32v.07l-3.59-.89a8.31 8.31 0 00-5.64 6.63c-3.7 18.68-3.42 27.12-19.24 43-16.77 16.85-29.69 15.78-34.37 15.78S286 292 286 292v.06a60.37 60.37 0 01-7.45.33 56.21 56.21 0 01-7.07-.33V292s2-6.25-2.67-6.25-22-1.38-34.09-16-16.68-23.88-17.57-28.37a16.17 16.17 0 003.27-.82c1.37-.55 3.3-4 1.37-10.51s-3.84-9.41-7.28-8.59l-2.61.7-.05.08c-3.9-6.29-5.67-16.4-3-33 3.5-22.22 7.43-39.44-1.64-49l-13.15-1.86v-.21s-4.54 1.25-1.86 6.65 2.48 5.38.62 9.75-.66 7.24 2.84 9.72c0 0-3.05-4.12 1.49-7.65l2.67 4.16.19-.32c-.29 5.6-1.32 13.38-3.68 25.85-4.75 24.9 1.77 41.29 8.38 44.41l3.43-1a15.5 15.5 0 011.92 7.32l.14.09-4 1.3s-1.65 3.88-.55 6.91a80.68 80.68 0 0019.24 32.39c13.74 13.82 24.22 19.71 41.52 20.27v3.8c0 3 6 3.31 12 3.32h.41c6.18 0 12.37-.31 12.37-3.32V298c17.3-.56 29-6.22 42.34-20.42 15.26-16.18 19.24-36.11 20.89-46.89v-.13a13.92 13.92 0 003.27.95c1.64.26 2.82.86 4.92-3.64.2-.51.44-1.09.71-1.75 5.5-13.28-.27-39.85-.27-39.85a232.33 232.33 0 01-3.51-23.21c.5.25 4.07 2 5.85.93s2.48-2.62.82-5.11-.54-4.29.55-5.12" fill="#1f2c5c"/><path d="M278.76 305.15c-6 0-12.37-.28-12.37-3.32V289.1c0 3 6.33 3.32 12.37 3.32m-7.22-.38s2-6.26-2.67-6.26-22-1.39-34.09-16.06-16.77-24.07-17.6-28.49-1.38-6.1.83-6.65l-11.83 3.88s-1.65 3.88-.55 6.92a80.86 80.86 0 0019.25 32.37c13.74 13.83 24.22 19.72 41.55 20.27m0-8.69c0-1.35.91-2.06 2.3-.95 1.93 1.5 3.2.71 3-.7m-54.54-46.32a16.77 16.77 0 003.3-.83c1.37-.55 3.29-4 1.37-10.51s-3.85-9.41-7.29-8.58l-2.61.69m-3.85 7.62a15.61 15.61 0 011.93 7.31m-5.36-6.35l11.82-3.32c-6.81-5.4-11.14-16-7.63-38.19s7.43-39.44-1.65-49L194 138.35s3.91 1.87 5.15 9.34 1.85 13.7-2.89 38.61 1.79 41.29 8.39 44.41zM194 138.14s-4.54 1.25-1.86 6.64 2.47 5.39.61 9.76-.65 7.24 2.85 9.72c0 0-3.05-4.12 1.48-7.65l2.69 4.16m17.89 73.82s3.29-.91 1.8 2.34a8.69 8.69 0 00-.77 1.56c-.57 1.3.77 2.64 1.91 1.86m-4.29-13c1.76-.52 2.87-1.72.52-2.54-2.52-.89-2.43-3.21-1.18-3.53m63.1 83.83c6 0 12.37-.28 12.37-3.32V289.1c0 3-6.33 3.32-12.37 3.32M291.1 298c17.32-.56 29-6.22 42.38-20.42 15.26-16.19 19.24-36.1 20.89-46.9 1-5.81 2.61-8 4.54-7.62l-11-2.75a8.31 8.31 0 00-5.63 6.63c-3.71 18.68-3.42 27.13-19.25 43-16.77 16.84-29.69 15.78-34.37 15.78S286 292 286 292m5.16-2.7c0-1.36-.91-2.07-2.3-1-1.93 1.51-3.2.71-3-.7m68.56-57.11a14.39 14.39 0 003.3 1c1.79.28 3 1 5.5-5s-5.36 12.86.13-.41-.35-39.78-.35-39.78c-4.74-24.91-4.12-31.14-2.89-38.61s5.16-9.34 5.16-9.34l-13.2 1.87c-9.07 9.54-5.26 26.79-1.65 49 2.88 17.71 3.64 20.48 1 32m13.47-83s4.82 1.94 1.25 8.86-6.33 13.15-1.25 16.6m-5.49-.55s4 2.08 5.91 1 2.48-2.63.83-5.12-.56-4.29.54-5.11c0 0-3.57.27-4.54 5m-3.84 64.33c2.34.56 2.34 3.19.69 4.58s-2.48 3.45-.55 4" fill="none" stroke="#fff" stroke-width="1.23"/><path d="M253.64 164.19c.17.22.29.54.2.71a6.82 6.82 0 01-1.81-.47c-.24 0-.49-.24-.69 0s-.09.57-.46.41a1.17 1.17 0 01.17-1 2 2 0 011.73 0 .84.84 0 01.86.37M253.1 165.31a.88.88 0 01.78.79l-.12.21c-1-.67-2.19 0-3.18 0a.67.67 0 010-.67 2.29 2.29 0 012.19-.31h.33M253.92 167.22v.5a2.81 2.81 0 00-1.86-.34l-1.4.49c-.25-.13-.16-.46-.16-.66.45-.49 1.11-.41 1.65-.61.7 0 1.44 0 1.81.62M252.59 169a1.65 1.65 0 01-.71.62c-.24 0-.36-.21-.45-.41.26-.29.71-.24 1.08-.37l.08.16M305.58 173.17c-.71 3.11-1.8 6.21-2.68 9.32-.29.5-.3 1.16-.63 1.61-.8 3-1.76 5.93-2.72 8.87-.7-1.17.3-2.12.47-3.2.29-1.36.79-2.52 1.05-3.93.7-1.48.79-3 1.58-4.6.6-2.15 1.18-4.26 1.85-6.29.29-.62.33-1.2.58-1.87.17 0 .41-.07.49.09M304.22 174.4a1.09 1.09 0 01-.41-1.2l.46-1a2.54 2.54 0 010 2.23M305.56 177.11c-.2.13-.33.37-.58.45.5-1.44.47-3.44 1.8-4.46a36.69 36.69 0 01-1.22 4M304 175.19c-.42.83-.55 1.74-.92 2.57-.62-1 .05-2.15.42-3.19.17.24.83.17.5.62M302.67 179.51c-.29 0-.25-.33-.41-.46a1.28 1.28 0 01.29-1.25c.83.41.2 1.12.12 1.71M305.27 178.07c-.17.71-.14 1.66-1 1.86a15.08 15.08 0 01.55-2.12c.16 0 .24.33.45.26M276 126.35a14.48 14.48 0 01.07 2c-.61-.7-1.26-2.13-2.25-2.88-.17.08-.13.33-.05.43a9.81 9.81 0 011.23 1.86 1.59 1.59 0 01-1.39-2.57 2.13 2.13 0 012.39 1.17M278.21 131.71c0 .16.08.2.12.28.16-.07.33-.45.42-.73a3.15 3.15 0 01.05-.92 3.25 3.25 0 01-.1 2.74c-.54-.71-.78-1.62-1.27-2.33s-.9-1.54-1.22-2.29h.08a2.22 2.22 0 00.34-1.83 5.74 5.74 0 011.58 5M275.86 132.44a7.88 7.88 0 011 2.79c0 .08-.08.16-.17.13a40.34 40.34 0 00-5.11-7.63c-.25 0-.25.3-.16.43a28.36 28.36 0 014.7 8c-.29.33-.66-.13-1-.26-.16-.87-1.27-.92-1.51-1.75.36-.28 1.07 0 1.23-.41-.24-.28-.65-.15-1-.28-1.24.15-1.32-1.22-1.85-2a2.2 2.2 0 00-.12-.37c.46 0 1.11.47 1.52 0-.94-.45-2.38-1-2.33-2.25a1.34 1.34 0 01.21-1.36c2.26.34 3.53 3.13 4.59 5" fill="#e6a300"/><path d="M274.88 128.25c.79-.33.83.87 1.23 1.26v.15l-1.56-.46c-.29-.41-.78-.62-.78-1.08.37 0 .74.13 1.11.13M277.54 132.32c-.49-.58-1.6-.25-1.68-1.13a1.84 1.84 0 011.68 1.13M278.2 134.07c0 .21-.29.21-.46.17-.45-.46-1-.88-1-1.55a2.15 2.15 0 011.48 1.38M274.64 144.18a1 1 0 01.09.66 4.15 4.15 0 01-.16-1.9 11.17 11.17 0 01.07 1.24M256 145.25a3.49 3.49 0 00.15 2.49c0 1.49.32 2.78.27 4.23h-.16c-.12-1.36-.15-2.65-.4-4.15l-.12-.08-.29.28c-.39 3-.9 6.56-1.12 9.34l.08.08a30.55 30.55 0 00-.3 4.24c.33.15.7.41.7.82.07.87-.26 1.66-.15 2.38.62.86 1.48 1.78 1.19 2.81-.5.29-.54 1.33-1.32 1-.5-.57.41-1.12-.16-1.78-.15-.49.41-1 0-1.5a1.31 1.31 0 000-1.27 1.86 1.86 0 00-1.49-1l-.24-.26c.22-2.12.56-4.11.86-6.26.55-3.35.89-6.39 1.69-9.74.09-.41-.4-.67-.16-1s.66-.38.67-.87h.12V145c.29-.08.13.17.25.3M286.13 147c-.13 1.53.89 2.79 1.22 4.19.41.5.24 1.2.36 1.78-.32-1.7-1.59-3.12-1.58-4.9 0-.08-.12 0-.2-.08-.25.16-.09.41-.18.62-.24-.54 0-1.07 0-1.66l.09-1.45c.36.5.11 1 .27 1.5M274.68 152.06a21.59 21.59 0 01-.42 2.45 9.3 9.3 0 01.68-5 8.24 8.24 0 00.22-1.08 12.07 12.07 0 00-.28-2.37v-.36a8.48 8.48 0 01-.24 6.38M285.66 148.85l.13.2-.13-.2M285.83 149.17c.13.8.08 1.66.65 2.21a7.18 7.18 0 01.53 1.74c-.2-1-1-1.5-1-2.49a4.3 4.3 0 01-.32-1.5c0 .09.12 0 .16 0M284.66 152.57l-.05.2-.2-.07c-.12-.22.21-.47.25-.13M284 152.86c.08.12 0 .49-.21.41a.19.19 0 01-.25-.17c0-.2.26-.29.46-.24M283.29 153.52c0 .16-.16.16-.24.29s-.21-.09-.25-.21a.25.25 0 11.49-.08M287.2 153.79l-.11-.41.11.28v.13M284.9 153.52c.09.13 0 .21-.12.3a.22.22 0 11.12-.3M284.24 153.93c-.12.13 0 .3-.17.37s-.24-.12-.32-.24a.35.35 0 01.49-.13M281.84 154.54c-.24.13-.45-.21-.74-.12 0-.54.62 0 .74.12M283.33 154.51c.13.09 0 .22-.08.24s-.17 0-.21-.16.34-.37.29-.08M282.59 154.75v.39a.38.38 0 01-.37-.14c0-.25.21-.49.42-.25M275.87 155.31l-.42.25c-.08 0 0-.17 0-.25a.32.32 0 01.46 0M268.16 180.91c.16-.25.08-.67.25-.95l-.13.95h-.12M268 181.57c-.08-.17 0-.37.13-.58a.89.89 0 01-.13.58M292.64 183c-.05.4-.58.4-.87.56-3.1.41-5.58 2.22-8.84 2.07-.16.17 0 .33.17.38 1.19.25 2.14-.37 3.21-.27.21-.21.37 0 .62-.13a19.11 19.11 0 015.69-1.38.79.79 0 01.29.54 15.27 15.27 0 01-1.9.28c-1.11.28-2 1-3.06 1.31a22.4 22.4 0 01-5.81.72 1.69 1.69 0 00-.49-.13c.24-.16.7.17.86-.24-.32-.34-1-.17-1.48-.14-1.93.79-3.62-.43-5.43-.73a7.92 7.92 0 01-3.34-.43c-.08-.07-.16-.28 0-.37a6.87 6.87 0 014.54 0 8 8 0 004.62.63c1.23-.31 2.71-.19 3.87-.47.08-.12-.09-.16-.12-.26a17.14 17.14 0 00-4.12.2 9.11 9.11 0 01-4.08-.69h-.17c-.24-.07-.57-.21-.81-.28a7.51 7.51 0 00-3.38.1h-.46a1.61 1.61 0 000-1.08c.53-.37 1.28.1 1.94 0s1 .39 1.52.26c2.63.77 4.9.27 7.66.49-.66.13-1.44.16-2.15.33.09.07.08.2.21.2.58-.12 1.27.21 1.94.1s1.31-.2 2-.25c.32-.2.82-.07 1.19-.15v.12c2.43.68 3.84-1.43 6-1.51l.21.26M294 190.33c-.7-.21-.45-1-.69-1.62.49.38.53 1.13.69 1.62M294 192.44c-.21-.08-.08-.25-.08-.45.16 0 0 .3.08.45M295 194.44a3.28 3.28 0 01-.19-1.16c.37.3.11.87.19 1.16M275.88 194.88a1.91 1.91 0 01-.08-1.08 1.13 1.13 0 01.08 1.08M286.87 197.64a5.86 5.86 0 01-.34 2.82h-.25a19 19 0 01.34-3 .2.2 0 01.25.17M296.87 201.46a24.2 24.2 0 01-1.34 4.72c-1.3 4.15-2.6 8.26-3.9 12.39-.87-.08 0-.75-.16-1.16a14.46 14.46 0 00.67-2.28 2.52 2.52 0 00.25-.49c.3-1.38.8-2.53 1.09-3.77.54-1.41 1.09-3.32 1.51-4.85.2-.08 0-.21.13-.33.33-1.28.88-2.52 1.25-3.77.13-.21.25-.41.5-.45M296.68 204.78h.05l-.01.21h-.04v-.21M296.72 205.11c0 1 .24 2.32.16 3.24.08-.46-.37-.92-.2-1.41a4.5 4.5 0 010-1.83h.08M295.22 210.24c0-.24-.16-.61 0-.82.08.25.2.62 0 .82M295.92 210h.04l-.01.38h-.03V210M296.87 210.83c0-.2-.05-.45.08-.57l-.08.57M295.87 211.17l.04-.29v.24l-.04.04M296.93 213a1 1 0 01-.11-.95c0-.21-.13-.62.08-.83.37.59-.13 1.21 0 1.78M268.65 214.22c-.17.05-.2-.15-.16-.21s.12.13.16.21M277.66 217.51c.21.45-.08.86-.33 1.2-.29.12-.25-.25-.29-.34 0-.33.21-.86.62-.86M291.84 219.28l.12.16c-.12.34-.86.21-.58.71a3.23 3.23 0 01.86.87 10.48 10.48 0 01-2 2.6l-.37.29a11.81 11.81 0 01-.49-2 4.94 4.94 0 00-.24-1.66c.42-.24 1-.16 1.53-.37a.65.65 0 00.05-.5c-.09-.11-.37-.21-.29-.45.53-.08.9.21 1.4.34M286 249.41a8 8 0 003.08 1.55 2.31 2.31 0 00-.91 1.32c-.12.13-.29 0-.41.08-1.11-1-2.3-1.92-2.87-3.42.29-.69.82.22 1.11.47" fill="#e6a300"/><path d="M291.92 251.39c1.28 1.09 2.42 2.67 2 4.53a3.23 3.23 0 01-.18 2.32c-1.16.87-2.22-.3-3.33-.47a4.59 4.59 0 01-2.42-3c-.33-.46-.41-1.08-.78-1.49-.61-1-3-.93-2-2.62 1 .83 1.76 1.92 3 2.54.66 0 .45-1 .95-1.24a6.33 6.33 0 001.47 2.41c.46.62 1 1.17 1.85.93a1 1 0 00.46-1c-.2-.86-1.07-1.28-1.48-2.07.13 0 .22 0 .26-.16.08-.46-.25-.75-.54-1.12a1.59 1.59 0 00-.94-.42c.45-.33.46-1 .79-1.45.16.83 1 1.37.85 2.32M276.14 250.73c0 .21.21 0 .29.17a1.57 1.57 0 01-.95.54 3.69 3.69 0 01-3.26.35c-.29-.33-.2-.74-.28-1.12.28.33.94.05 1.36 0 .16-.29.49 0 .7-.2.74.05 1.44.18 2.14.26M271.64 251.63l.33.66a2.09 2.09 0 00-1.65 1.27c-.5-1 .54-1.94.95-2.85.33.08.17.62.37.92M278.08 251.4c.11.84-.84 1-1.25 1.49a5.52 5.52 0 01-3.22 1c-.45-.34-.24-.79-.65-1.09v-.2a9.42 9.42 0 003.04-.6 10.33 10.33 0 001.36-.83c.25 0 .58-.07.71.25" fill="#e6a300"/><path d="M290 251.21c0 1.41 1.31 2.13 1.8 3.33-.5 0-.46-.58-.83-.83a3.06 3.06 0 01-1.1-2.5h.13M291.26 252c-.25.18-.13.3-.17.5-.41-.32-.36-.86-.49-1.33.37.1.54.55.66.83M272.17 252.92l-.05-.5.09.2-.04.3M270.76 256c-.42 0-.46.57-.87.56.41-.45.91-1.07 1.28-1.56a3.81 3.81 0 001-1.87 4.84 4.84 0 01-1.37 2.87M271.26 253.4l.04.01v.2h-.04v-.21" fill="#e6a300"/><path d="M273.48 254.54a11.77 11.77 0 003.72-.86c-.09.54-1.36.28-.79.95l.82-.2c-.9.82-2.18 1.15-3.14 2-1 1-1.87 2.81-3.47 2.88l-1.12.37v.25c.45.24.87-.21 1.36-.17a2.93 2.93 0 01-1.16.67c-.58.28-1.4.74-1.93.31a12.85 12.85 0 01-.57-3.11c.22-2 2.45-2.14 3.07-3.84a.3.3 0 01.25.25v.29c-.34.87-2.69 1.35-1.37 2.56a1 1 0 001 .25 5.7 5.7 0 002.54-3.59 1.52 1.52 0 00.78 1" fill="#e6a300"/><path d="M269.64 255.88c.17-.16.37-.46.58-.52 0 .32-.41.32-.58.52M266.09 172.68a2 2 0 00-1.66.45c.21.51.83.87 1.2 1.37-.05.21.33.5-.05.59a16.68 16.68 0 00-2.66-2.13c-1.44-1-3.51-.6-4.74-2.1a39 39 0 01-.43-4.41c-.27-2.06-.47-4.23-.66-6.3 0-2.32-.43-5-.54-7.34 0-.21-.12-.54-.33-.62 0 .21-.08.53.16.57 0 .05-.08.13-.16.13a5 5 0 01.16.74c-.08 1 .16 2 .16 2.87.28 1.28.1 2.61.27 3.77.23 1.74.26 3.57.5 5.48 0 .88.16 1.58.2 2.24s.28 1.58-.13 2.12c-.75-.34-.95-1.13-1.36-1.71h-.2c-.13.74-.54 1.36 0 2.07.16.42.49.71.61 1.13-.08.07-.16 0-.24 0-.58-.42-.83-1.4-1.57-1.29a1.11 1.11 0 00-.41.7.73.73 0 01-.7 0c-.41-.46-.28-1-.24-1.62.12-.25.45-.13.58-.28s0-.34-.08-.47c-.49-.37-.78-.95-1.6-.75-.58.37-1.65.25-1.74 1a3.51 3.51 0 001.43 1.88c-.18 2.33-.3 4.35-.27 6.72-.58 8.18-.17 16.06.13 23.94.59 5.41 1 11 1.81 16.15 1.16 7.22 2.61 14.16 4.39 21a177.61 177.61 0 006.25 18.75c-.66 1 .66.53.74 1.44.12 0 .25.1.33-.07.05-1-.61-1.79-.4-2.82-.34-5.19-.77-10.05-1.2-15.28-.2-2-.39-4.23-.46-6.22-.24-2.87-.43-5.57-.74-8.38-.35-6.52-1.14-13-1.48-19.47-.23-2.15-.35-4.07-.46-6.22-.28-1-.11-2.08-.36-3.11-.42-4.53-.61-8.64-1-13.21l-.12-.12c0-2.2-.31-4.2-.34-6.35l.07-.13a8.12 8.12 0 004.19 2.93c1 .5 1.52 1.7 3 1.46.78-.24.91-1.11 1.4-1.69.09-.16 0-.49.3-.49.17-.21.37-.46.33-.71-.54.5-.71 1.25-1.24 1.82-.05-.08-.17-.13-.21-.29.13-1.33 1.08-2.31 1.67-3.47a4.61 4.61 0 00-2.05-4.29zm-7.09 14.4a65.68 65.68 0 00.58 6.73c-.21 1.37.28 2.73.27 4.14a3.67 3.67 0 01.08 1c.11 2.34.51 4.78.58 7 .17.46 0 1 .17 1.49a1.38 1.38 0 00.11.92c-.08.74.12 1.32 0 1.94.21.3 0 .88.12 1.25a16.2 16.2 0 01.23 3.2c.32 1.74.19 3.52.47 5.39-.09 1.42.39 2.87.35 4.11.24.17-.08.41.07.62a9.71 9.71 0 01.16 1.58c0 1.45.32 2.53.27 4.07.28 1.62.15 3.36.47 4.86-.17 1.7.27 2.82.27 4.47.27 3.37.46 6.35.73 9.56a7 7 0 01.2 1.65c.12.79.19 1.79.27 2.7 0 .49.16 1 0 1.41a10.67 10.67 0 01-.9-2.37c-1.14-3.07-1.95-6.28-2.92-9.43-.41-1.24-.64-2.54-.93-3.82a4.72 4.72 0 01-.41-1.42 50 50 0 01-1.68-8.42c-.37-.67 0-1.25-.45-2-.24-.53.13-1.12-.28-1.61a90.56 90.56 0 01-1.33-13.1c0-.58.58-1 .33-1.61-.35-3.62-.62-7.57-.85-11.33-.36-1.54.1-3.29-.8-4.66a17.3 17.3 0 01-.55-3.69 141.72 141.72 0 01-.27-20.21c.4-.09.65.12 1 .17 1.19 1.58 2.46 3.2 3.69 4.66.19 2.37.59 4.73.58 7.14.36 1.2 0 2.32.35 3.57zM285.32 154.19a.4.4 0 00.12-.1zM284.93 148.53s.01.01 0 0zM284.24 137c-.28-.32-.73-.62-.86-1 0-.13.13-.08.21-.13.86.34 1.19 1.34 1.76 2a17.62 17.62 0 01.54 6.61c0 .28-.13.74 0 .95h.08a3.6 3.6 0 00-.07-.91 12.44 12.44 0 00.18-3.69c0-2.37-.8-4.91-2.94-6.12-.2-.17-.49-.17-.66-.29-.49.08-.82-.37-1.36-.21-.53-.22-1.15.45-1.4-.22a2.47 2.47 0 00-.23-1.7c0 .54-.5.95-.75 1.36 0 .25.37.38.53.51-.13.5-.62.41-1 .61a9.94 9.94 0 00-3.71 8.11l.34-2.15.25-.25c.33.43-.13 1-.13 1.41a12.12 12.12 0 00.76 5.36 4.91 4.91 0 01.06 4.07c-.3 1.28-1.13 2.6-.89 3.89l.29-.82c.21-.25.21-.71.59-.75v-.25c.37-.61.65.33 1 .34l.05-.08c.05-.08-.08-.38-.33-.29a.73.73 0 01-.33-.76c.09-.17.34-.28.46-.2s.45.34.37.59l.53.08c-.54 0-.45-.62-.86-.83a.53.53 0 010-.83.86.86 0 01.33 0 1.29 1.29 0 00.73.75c-.12.54.58.3.66.54 0 .58 1 .09 1 .75.13-.24.42-.08.62-.11a1 1 0 01.25.36l.2-.16a.5.5 0 01.58.05.41.41 0 00.54-.17c.41-.16.53.25.69.46.13-.33-.07-.91.34-1.2-.16-.62 0-1.61-.73-2a3.53 3.53 0 01-2.72-.64c-.49-.08-1.11-.5-1.56-.08a2 2 0 01-.91 1.07c-.33-.58.09-1.66-.32-2.2a29.54 29.54 0 01-1-5.19c-.07-2.33-.14-5.35 2-7 .28.24-.13.45 0 .7.57 0 .9-.53 1.32-.86.12 1.16 1.07-.08 1.64.38s.49-.58 1.16-.41c.45.49 1.15.38 1.68.63a3.39 3.39 0 011.89 2.62c.44 2.73-.28 5.63-.21 8.21 0 .21-.23.45 0 .61.29-1.27.05-2.32.43-3.59.04-2.65.47-5.64-1.09-7.93z" fill="#e6a300"/><path d="M298.77 175.07c0 .29-.17.16-.29.25a3.08 3.08 0 01-1.23-2.7c.08-.05.13-.2.29-.2.45.57.24 1.61.94 2.11-.93-3.16-1.12-6.39-1.76-9.67-1.19-2.92-1.83-6.12-3.42-8.9-.33-1.2-1.56-1.42-2.64-1.63-.16-.17-.49-.08-.61-.25h-.5c-.12-.33-.49 0-.7-.26-1-.58-.7.75-1.27 1.08-.21-.13 0-.58-.29-.58v.16a3.49 3.49 0 01-.55 2.45l-.12-.09a3.67 3.67 0 00-.07-2.94 7.42 7.42 0 01-1.62-5.31.09.09 0 01-.08 0c0 1.7-.34 3.4.81 4.94.09.18-.09.43-.22.56.2-.08.47-.26.63 0-.21.54.41.3.53.54.37.42 0 .71-.13 1h.08c.08.47 0 .67-.29.92l.25.2a.56.56 0 01-.25.71.51.51 0 01-.62-.12.64.64 0 01.25-1c-.66-.29.08-.83-.12-1.25-.42.08-.62.83-.91 1.2-.28.37-.29.62-.58 1-.33.67-1.2.42-1.65.91-.17.17-.25.41-.54.46-.13-.05 0-.26-.12-.34-.29.29-.37.66-.62.91l-.13-.16c.05-.84.67-1.58.43-2.41.33-.41 0-1 .08-1.45-.37.41-.74 0-1.15-.12a.62.62 0 01-.58.16c-.32-.13-.32-.42-.32-.71a1.21 1.21 0 01.37-.25c.25-.16.49.16.7.26 0-.06.21-.06.13-.21a.68.68 0 01-.54-.54c-.16.16-.25.49-.58.41a.68.68 0 01-.37-.75.63.63 0 01-.49.5.92.92 0 01-.49-.64.88.88 0 00-.33.13s-.08 0 0-.13h-.25v.34a.65.65 0 01.5-.17.63.63 0 01.32.59c.25 0 .42-.25.71-.08a1 1 0 01.28.58.45.45 0 01-.58.37c-.29-.05-.41-.34-.49-.54a1.07 1.07 0 01-.62.07.46.46 0 01-.28-.57h-.41c.65.92 1.89 1.75 2.45 2.83-.45.36-.65-.54-1.23-.3a1.67 1.67 0 00.49 1c1.07.14 1.52 1.18 2 2l-.08.22c-.57 0-.53-.67-.78-1-.36-.71-1.19-.64-1.68-1.14a12.62 12.62 0 00-1.3-2.53v.2l-.16.21-.5-.42c-.12.09-.24.25-.37.25l.33.29a.51.51 0 01-.16.75.54.54 0 01-.74 0l.07.32.62-.11a.68.68 0 01.45.79c-.13.24-.33.54-.66.33-.53-.14-.15-1-.78-.92-.16-.67-.86-1-.85-1.67-.62-.17-.45-.91-.74-1.33a21.78 21.78 0 01-2.56.81 3.2 3.2 0 00-1.85.5 8.26 8.26 0 00-1.7 2.51 6.13 6.13 0 00-.93 4.15 13.57 13.57 0 01-.64 3.86c-.49 1-.09 2-.46 3 0 1.29-1 2.2-1.05 3.57.33.07.5-.3.74-.41.46-.17 1.08-.58 1.33.08a.77.77 0 01.65.26c.07.66.94.49 1 1.16.28 1.74.89 3.37.55 5.22a2.87 2.87 0 00-.17 1.16v-.11c.84-1.75.31-4.11.28-6l.12-.32c.37.32.16.86.29 1.36.61 1.45.11 2.91.22 4.19a13 13 0 00.15-4.93c0-1-.53-1.92-.35-2.86h.16c.39 2 1.5 3.9.87 6.06-.12.24-.21.45 0 .66.75-1.46.3-3.15-.06-4.65-.24-.67.13-1.58-.28-2.2-.11-1.87-1.09-3.69-.84-5.61.58 1.18.24 2.7 1.27 3.78 0-.32.08-.66.13-1a12.89 12.89 0 00-.36-2.49c-.2-2.11-1.84-3.75-1.41-6h.08c.4 1.37.52 2.9 1.46 3.95.08 0 .17.05.2 0-.52-2.49-1.78-5-1.15-7.69h.16a13.25 13.25 0 01.07 1.78c.41 1.13.2 2 .6 3.11.25.39 0 1.13.54 1.25a3.66 3.66 0 01.54-1.36c.24.28-.05.5 0 .75-.29.74-.1 1.87-.31 2.65-.17 1.66.11 3.61 0 5.35a53.46 53.46 0 01.24 9.67c.2 1.08-.22 1.9.36 2.74.32.08.57.33.94.29.46-.24-.08-.83.25-1.24.58.21.78 1.29 1.48 1.17.13-.54-.32-.83 0-1.29.45.29.28.88.61 1.29.2.21.41.46.7.33-.4-2.73.8-5.34.2-8.08.08-.34-.36-.62 0-.92.41.09.41.63.53 1l-.05 3c0 1.4-.64 3.47.22 4.9 0 .07 0 .33.2.28-.12-.58-.2-1.07-.31-1.74a13.65 13.65 0 01.38-3.19c0-.12.12 0 .21 0 0 1.82-.32 4.2 1.12 5.48a13.66 13.66 0 013.13 0c.78-.28.14-1.4.76-1.86.28.54-.17 1.29.31 1.66a15.57 15.57 0 012.23.35c.29-.34.05-.92.42-1.16a2 2 0 00.48 1.16c2.07.25 1.87-2 2.53-3.17.13-1 .84-1.71.64-2.7a5.55 5.55 0 00.05-1.58c.53-.45-.12-1.29.46-1.66a16 16 0 01.06 4.08c-.47.91-.14 1.86-.68 2.69 0 .45-.45.91 0 1.36.41-.09 1.06.38 1.19-.2a.43.43 0 01.66-.29c.33-.24-.12-.66.17-.95.91 0 .09-1 .7-1.2a3.61 3.61 0 00-.27-2.28c0-.29-.37-.75 0-1a6.38 6.38 0 011 2.55 8.37 8.37 0 01-.47 3.18 1.79 1.79 0 001.16-1.07c-.1-3.57-1.9-6.94-1.76-10.45.13-.88-.16-1.55.3-2.34.54-.07.17.42.33.67a7.48 7.48 0 001.12 5.53c.13-.21 0-.55 0-.83-.78-1.21-.6-2.82-.89-4.19-.4-1.92.47-3.91.61-5.94a23.26 23.26 0 00.15-5.59c0-.41-.2-.92 0-1.25.07-.13.24 0 .32.08.12 1.38.52 2.5.56 3.78-.31 2.44-1 4.93-.86 7.39a6.73 6.73 0 00.3-1.51c.08-1.44.66-2.68.46-4.26.09-.08.17-.2.29-.16a6 6 0 01.12 2.15 37.65 37.65 0 00-.77 5.64 5.34 5.34 0 00.36 2.69c.45-1.52 0-3.27.27-4.67.53.54.19 1.65.43 2.32a17.16 17.16 0 010 5.81c.2 1.37-.85 3.11-.48 4.72a.28.28 0 00.37.26c.62-1.46 1-3.15 2.29-4.27.37-.13.83-.45 1.23-.12a4 4 0 012.67 2.51 5.25 5.25 0 00-1.19-3.72zM276 158.34a.62.62 0 01.25-.59.67.67 0 01.65.46c-.12.17.08.42-.2.58a.67.67 0 01-.7-.45zm.44 1.28c-.16-.24.09-.49.21-.75a.72.72 0 01.66.47c0 .28 0 .62-.25.69a.62.62 0 01-.64-.41zm.49 1.17c0-.2 0-.46.25-.54s.7.05.7.38-.16.45-.29.58a.74.74 0 01-.68-.42zm1.43 1.54c-.2-.09-.61 0-.65-.34 0-.2 0-.46.17-.62a.54.54 0 01.74.46c-.07.17-.03.46-.28.5zm.9.87c-.28 0-.57 0-.65-.37s0-.46.21-.54c.41-.21.2.42.57.29.11.29.02.42-.15.62zm3.22.6c-.33.08-.41-.12-.66-.21-.2.16-.21.5-.54.46a.72.72 0 01-.69-.51c-.21.29-.46.25-.75.21a.72.72 0 01-.2-.54c0-.25.29-.16.41-.33.46 0 .49 1 1 .33.42-.28.74.55 1-.12a.45.45 0 11.45.71zm3.53-4.63a.54.54 0 01-.21.5c-.13 0-.25 0-.29.12s.24.54 0 .8-.46.07-.29.28c-.21.29.2.83-.42.91h-.33c-.08.16.16.29.08.54a.68.68 0 01-.74.29c0 .29-.08.62-.33.7s-.42.08-.62-.08c0-.26 0-.59.25-.76 1.11.47.2-1.2 1.36-.74a1.19 1.19 0 01-.08-.74c.21-.16.46-.08.63-.24-.08-.26-.29-.55 0-.76l.41-.24a1 1 0 01-.12-.82l.46-.25a.88.88 0 01-.25-.79c.25-.25.82-.17.87.21.14.58-1.06.49-.39 1.07z" fill="#e6a300"/><path d="M298.93 193c-.47-4.25 1.6-7.88.88-12.2a1.8 1.8 0 00-.24-.66v1.68c-.13.43.12 1.29-.38 1.42-.15-.91-.15-2-.35-2.95-.45-.92-.31-2.37-1.55-2.66-.87-.21-1.41.53-1.82 1a5.36 5.36 0 00-1.17 2.73c.11 1.53.89 2.9 1 4.32a10.38 10.38 0 01.28 1.67c-.1 2.52.39 4.8.05 7-.13 1-.55 2.16-.68 3.2a.3.3 0 01-.25.11c-.16-1.28-.23-2.77-.47-4.15l-.21-.29c.16 1-.09 2.08 0 3l-.25.25c-.2-.62-.12-1.36-.32-2 0-1.23-.93-2.36-1.17-3.7-.74 0-.57-.91-.94-1.37-.2-.17-.49-.21-.57-.45-.53-.39-1.16 0-1.65 0-.25.13-.58.16-.79.29-.16 0-.5.24-.53-.13.37-.45.95-.45 1.32-.86a3.09 3.09 0 00-.82.11 16 16 0 01-6.44.51c-.9-.13-1.68-.34-2.68-.42-.2-.3-.32 0-.57-.25l.08-.09c1.11.05 2.18 0 3.34.11 3.59.39 7-1.63 10.72-.83a.5.5 0 00.29-.46c-.4-.45-1.15-.42-1.81-.42-.49.2-1.27.08-1.73.29-.5-.17-.66.33-1.15.15-.26.34-.75 0-1 .28-1.07 0-2.06.25-3.17.16-1.65.4-3.46-.22-5 .05-2.06-.18-3.75-.6-5.77-.81-.4-.09-.82-.34-1.19 0-.05.25 0 .46.24.5 1.32.14 2.56.59 3.91.64.66.55-.37 1.25-.46 1.86a16.33 16.33 0 01-.05 2.42c-.17.28 0 .52-.21.74-.44-1.38-.27-3.12-.72-4.53-.2-.07-.69-.17-.58.17-.49.57-.33 1.44-.34 2.19 0 .13 0 .29-.24.2a7 7 0 01-.24-1.69c-.08-.46.09-1.41-.66-1.29-1.74 1.49-1.21 3.85-1.76 5.63a32.8 32.8 0 01-1.52 7.84c-.17 1.49-.91 3.06-.92 4.43a10.74 10.74 0 01-.19 3.94l-.05 1.2.24-.08a9.21 9.21 0 01.28 3c.5-1.12-.57-2.79.39-3.77.45.33.12 1.07.11 1.48.13 0 .21.09.29.17.48 2.54 0 4 .46 6.48.41 1.82 1.09 3.86.71 5.81-.05 1.45.89 2.62 1.38 3.91 0 .58.33.92-.17 1.36-.4-.08-.16-.49-.24-.79a4.13 4.13 0 00-.32-.74 7.31 7.31 0 000 2.52c.09.26-.12.5-.21.75a23.38 23.38 0 001.11 9.05c.12.13 0 .38.16.49s.25.55 0 .76-.33-.22-.49-.25c.07 2.28.93 3.9.75 6.26a2.44 2.44 0 01-.3 1 3.94 3.94 0 01-.91 1.57 1.44 1.44 0 00.82.3c1.29-.66 2.73-.2 4 0a4 4 0 001.82.16 6.29 6.29 0 00-.7-1.74 6 6 0 00-1.56-1c0-.13.05-.21.09-.3a1 1 0 01.74.09c.16 0 .49.18.46-.12a13.78 13.78 0 00-.41-2.62c-.29 0-.66.46-.86 0-.08-.16.12-.2.21-.33 1.57-.41 1.08-2.31 1.25-3.48-.37.21-.21.87-.7.78-.25-.24-.17-.53-.12-.82 1.83-3.72 1.6-7.67 1.05-11.78-.55.67-.14 1.54-.51 2.16-.09.08-.29.12-.33 0a7.13 7.13 0 01.09-1.9c1.71-3 1.07-7 1.78-10.45.26-1.28-.27-2.37.27-3.49-.57-1.12.5-1.94.22-3.06 0-.08 0-.29-.2-.25s0 .13 0 .2a11.21 11.21 0 01-1.21 3.25c.08.06.17.06.2.11s0 .42 0 .5c-.29.34-.29 1.08-.91.87-.24-.42.34-.71.34-1.12-.25 0-.54.41-.75 0s.09-.54.17-.77c-.16-.06-.37-.1-.41-.3.37-.67.92-1.49.51-2.33.08-.28.45-.32.5-.61a.66.66 0 01-.95-.05c-.21-.54-.74-.71-.9-1.24.37-.33-.12-1 .41-1.25.33.34.17.79.24 1.2.58.26.05-.86.47-1.12.81.26-.05 1.17.73 1.42.37-.16 0-.95.3-1.32.52.29.39 1 .48 1.53.33-.24.17-.87.33-1.24.13-.12.25-.12.38.05s-.34 1.19.27 1.4c.21-.37.09-.87.26-1.24.79-.25.08 1 .49 1.29.57-.17 0-1 .62-1.2.45.37 0 1.08.15 1.44h.17c.21-.34 0-1.13.34-1.46.61.26.28 1.2.32 1.58l.16.16c.5-.28-.2-1.45.58-1.56.41.45 0 1 .2 1.57.08.09.16.2.28.17.34-.58-.2-1.13.26-1.66.7.13.12.67.32 1.16.13.12 0 .42.29.42.17-.16.08-.5.05-.75s-.12-.91.41-.91c.45.46-.13 1.07.32 1.58h.29c0-.67-.32-1.33.17-1.79.54 0 .21.54.29.92s.07.71.48.62c.29-.53-.32-1.16.18-1.65.58.12.2 1 .53 1.41 0 .62-.79.78-1.16 1.11v.08c-.16.17-.4.2-.53.5.2 1.37-.05 2.53.6 3.78l.08-.17c.26-.65-.32-1.53.51-1.75.29.35.07 1 0 1.38a44 44 0 00.16 8.79 27.6 27.6 0 01.68 5c-.08 0-.13.17-.21.17a24.13 24.13 0 00-.76-3.2 2.77 2.77 0 00-.25 1.7 20 20 0 00.16 7.3c.11 3.52.63 6.6-.37 10 .08.66-.71.85-.51 1.49a4.39 4.39 0 001.86-.74c.25-.05.83-.13.74.25-.7.37-1.32.66-2 1 .12.54.73.67 1 1.13.94.5 1.89 1.5 3.17 1 .66-.33.71-1.06.79-1.65-.37-.33-.95-.17-1.4-.33a3.17 3.17 0 01-3 .23c0-.08 0-.2.05-.25 1.44.46 2.3-.85 3.7-.6a2.68 2.68 0 01.62.25h.28a9.1 9.1 0 01-.48-1.2c-.32-.62.33-1.08.21-1.57-.54.36-.75 1.15-1.48 1v-.25c2.19-1.48 1.46-4.39 2.13-6.67.22-2.66 1.46-5.09 1.56-7.79a1.44 1.44 0 00.34-.66c-.2-1.36.38-2.82-.11-4.27-.33 0-.37.42-.57.53l-.17-.11c-.16-.92.46-1.62.88-2.37-.42 0-.5.54-.71.71-.16.36-.45.49-.7.74 0-.09-.12-.13-.08-.26a14.94 14.94 0 011.79-3.06 9.59 9.59 0 01-1.16.82c-.08-.08-.21-.16-.12-.28a10.68 10.68 0 002.09-6.14c-.16-1.41.76-2.72.06-4.06l-.13.13c-.38 1.25-1 2.82-1.34 4.1 0 .79-1 1.49-.13 2.07a.61.61 0 01-.29.79c-.21.29.08.37.24.58a.88.88 0 01.08 1.12c-1.12 1.08-1.7 2.35-2.94 3.14a1.62 1.62 0 01-.49-1.5 16.65 16.65 0 01-.56-3.28c.21-.54.79-.5 1.28-.57 0-.26-.25-.42-.16-.75s.54-.34.87-.37c.54-1.83 1.13-3.65 1.63-5.47.46-.62 0-1.08-.24-1.66a.78.78 0 00-.57-.21c-.25 0-.33-.29-.33-.54.49-.37 0-1.28.5-1.61.33.28.29 1 .41 1.41.53-.32 0-1 .37-1.41.75 0 .21 1.12.58 1.55a2.73 2.73 0 00.17-1.51c.12-.2.25 0 .45-.15.46-1.29.84-2.65 1.26-4l-.37-.29c-.2-1.87.59-3.74.31-5.68l.13-.09a1.18 1.18 0 01.32.83c.53.51.33 1.37.49 2 .37.08.45-.29.66-.49 0-.13.08-.38 0-.5 0-1.09-1.1-2-.4-3 .42.55.17 1.38.57 1.88.16 1.08 1 1.79.73 2.86 1.28-.29.42-1.74.87-2.65.66-.08.13.75.46 1 .36-.17.2-.79.33-1.21s.45-.12.7-.36c-.08-.71.67-1 .71-1.7-.11-1.61-.97-2.91-1.37-4.33zm-26.09 17.57c-.13.17-.21.38-.46.3l-.25-.26c-.2.41-.7.29-1 .5a.27.27 0 01-.41 0s-.12-.12-.2-.07c-.17.2-.13.49-.42.57-.45-.16-.24-.87-.2-1.28.08-.13.13-.3.25-.33s.33.12.33.33a.14.14 0 000 .08c.24-.08.13-.41.33-.58.49.42 1-.82 1.32.09.08-.12.08-.37.29-.42.67.07.29.72.42 1.09zm.73 0a.44.44 0 01-.37.16c-.24-.33-.08-.86 0-1.25l.21-.12a1.57 1.57 0 01.16 1.2zm.75-.07H274c-.05-.37-.16-.76.13-1.08.36.15.1.69.19 1.07zm.74 0a1.18 1.18 0 01.05-1.17c.41.16.24.66.28 1-.09.24-.21.15-.33.2zm12.28.8c-.08.09-.2 0-.33 0a2.25 2.25 0 01-.24-1.49c.08 0 .17-.13.25-.17.24.33.16.7.24 1.12.04.24.2.4.08.57zm.86-.16c-.45 0-.45-.42-.61-.71a1.9 1.9 0 01.21-1c.25-.08.33.16.37.28-.08.54.33 1.05.03 1.46zm.88-.28a.23.23 0 01-.42 0c0-.5-.37-1.28.13-1.73.37.53.25 1 .29 1.7zm-1.34-6.48a6 6 0 00-.29 2.4c-.05.12-.17.29-.34.29-.45-.26-.12-.92-.28-1.29 0-1.08-.36-1.7-.44-2.73l.21-.17c.29.13.2.7.62.54a26.35 26.35 0 00.91-3.31c.63-1.82.48-3.86.73-5.77h.22c.14 3.66-.7 6.79-1.34 10.07zm2.24 6.22a.46.46 0 01-.41.17c0-.62-.24-1.16.09-1.82.37.49.2 1.12.32 1.65zm.9 0c-.2-.08-.33.13-.45 0l-.11-1.37a.44.44 0 01.41-.25c.29.29 0 .88.2 1 0 .24-.05.37-.05.62z" fill="#e6a300"/><path d="M268.61 213.77s-.08.08-.12 0c-.25-.42.09-1-.07-1.37v-.71c.41.64-.22 1.37.15 2M253.64 164.19c.17.22.29.54.2.71a6.82 6.82 0 01-1.81-.47c-.24 0-.49-.24-.69 0s-.09.57-.46.41a1.17 1.17 0 01.17-1 2 2 0 011.73 0 .84.84 0 01.86.37z" fill="#e6a300"/><path d="M253.64 164.19c.17.22.29.54.2.71a6.82 6.82 0 01-1.81-.47c-.24 0-.49-.24-.69 0s-.09.57-.46.41a1.17 1.17 0 01.17-1 2 2 0 011.73 0 .84.84 0 01.86.37z" fill="none" stroke="#1f2c5c" stroke-miterlimit="10" stroke-width=".26"/><path d="M253.1 165.31a.88.88 0 01.78.79l-.12.21c-1-.67-2.19 0-3.18 0a.67.67 0 010-.67 2.29 2.29 0 012.19-.31h.33z" fill="#e6a300"/><path d="M253.1 165.31a.88.88 0 01.78.79l-.12.21c-1-.67-2.19 0-3.18 0a.67.67 0 010-.67 2.29 2.29 0 012.19-.31h.33z" fill="none" stroke="#1f2c5c" stroke-miterlimit="10" stroke-width=".26"/><path d="M253.92 167.22v.5a2.81 2.81 0 00-1.86-.34l-1.4.49c-.25-.13-.16-.46-.16-.66.45-.49 1.11-.41 1.65-.61.66-.04 1.4-.04 1.77.62z" fill="#e6a300"/><path d="M253.92 167.22v.5a2.81 2.81 0 00-1.86-.34l-1.4.49c-.25-.13-.16-.46-.16-.66.45-.49 1.11-.41 1.65-.61.66-.04 1.4-.04 1.77.62zm-1.33 1.78a1.65 1.65 0 01-.71.62c-.24 0-.36-.21-.45-.42.26-.28.71-.23 1.08-.37z" fill="none" stroke="#1f2c5c" stroke-miterlimit="10" stroke-width=".26"/><path d="M305.58 173.17c-.71 3.11-1.8 6.21-2.68 9.32-.29.5-.3 1.16-.63 1.61-.8 3-1.76 5.93-2.72 8.87-.7-1.17.3-2.12.47-3.2.29-1.36.79-2.52 1.05-3.93.7-1.48.79-3 1.58-4.6.6-2.15 1.18-4.26 1.85-6.29.29-.62.33-1.2.58-1.87.17 0 .41-.07.49.09zM291.84 219.28l.12.16c-.12.34-.86.21-.58.71a3.23 3.23 0 01.86.87 10.48 10.48 0 01-2 2.6l-.37.29a11.81 11.81 0 01-.49-2 4.94 4.94 0 00-.24-1.66c.42-.24 1-.16 1.53-.37a.65.65 0 00.05-.5c-.09-.11-.37-.21-.29-.45.53-.08.9.21 1.4.34zM286 249.41a8 8 0 003.09 1.55 2.25 2.25 0 00-.92 1.32c-.12.13-.29 0-.41.08-1.11-1-2.3-1.92-2.87-3.42.29-.69.82.22 1.11.47zm5.89 2c1.27 1.09 2.41 2.67 2 4.53a3.23 3.23 0 01-.17 2.32c-1.16.87-2.23-.3-3.34-.47a4.62 4.62 0 01-2.42-3c-.32-.46-.4-1.08-.77-1.49-.61-1-3-.93-2-2.62 1 .83 1.76 1.92 3 2.54.66 0 .46-1 .95-1.24a6.35 6.35 0 001.48 2.41c.45.62 1 1.17 1.84.93a1 1 0 00.47-1c-.21-.86-1.07-1.28-1.48-2.07.12 0 .21 0 .25-.16.08-.46-.25-.75-.53-1.12a1.64 1.64 0 00-1-.42c.45-.33.46-1 .79-1.45.16.83 1 1.37.86 2.32zm-15.79-.66c0 .21.21 0 .29.17a1.53 1.53 0 01-.95.53 3.66 3.66 0 01-3.26.36c-.29-.33-.2-.74-.28-1.12.28.33.94.05 1.36 0 .16-.29.49 0 .7-.2.74 0 1.44.18 2.14.26zm-4.5.89l.33.67a2.07 2.07 0 00-1.65 1.27c-.5-1 .54-1.95 1-2.85.33.08.16.62.36.91zm6.44-.22c.12.84-.83 1-1.25 1.49a5.6 5.6 0 01-3.22 1c-.45-.34-.24-.79-.65-1.09v-.2A9.42 9.42 0 00276 252a11.12 11.12 0 001.37-.83c.24 0 .57-.07.7.25zm11.91-.19c0 1.41 1.31 2.13 1.8 3.33-.5 0-.45-.58-.82-.83a3 3 0 01-1.1-2.5h.17zm1.27.83c-.25.18-.12.3-.16.5-.41-.32-.37-.86-.49-1.33.43.08.57.53.69.77zm-19.08.88l-.05-.5.09.2v.3zm-1.42 3.1c-.42 0-.46.58-.87.56.41-.45.91-1.07 1.28-1.56a3.81 3.81 0 001-1.87 4.84 4.84 0 01-1.37 2.87zm.5-2.63v.2zm2.23 1.15a11.71 11.71 0 003.71-.86c-.09.54-1.36.28-.79.95l.82-.2c-.9.82-2.18 1.15-3.14 2-1 1-1.87 2.81-3.47 2.88l-1.12.37v.25c.45.24.87-.21 1.36-.17a3 3 0 01-1.15.67c-.58.28-1.41.74-1.94.31a12.85 12.85 0 01-.57-3.11c.22-2 2.45-2.14 3.07-3.84a.3.3 0 01.25.25v.29c-.34.87-2.69 1.35-1.37 2.56a1 1 0 001 .25 5.66 5.66 0 002.54-3.59 1.55 1.55 0 00.78 1zm-3.84 1.34c.16-.16.37-.46.58-.53-.01.31-.38.31-.54.51zm34.57-81.48a1.1 1.1 0 01-.41-1.2l.46-1a2.52 2.52 0 010 2.24zm1.34 2.7c-.2.13-.33.38-.57.46.5-1.45.46-3.45 1.79-4.47a36 36 0 01-1.22 4zM304 175.2c-.42.82-.55 1.73-.92 2.56-.62-1 .05-2.15.42-3.19.17.24.83.17.5.63zM284.6 139.46a4.44 4.44 0 00-1-1.05c-1.94-1-4-.39-6.06-.19-.71.16-.83 1-1.13 1.45a4.58 4.58 0 00.81 4.65l-.05 1.82h-.25a9 9 0 01.86 2.08c.81 1.75 2.8.34 4.15.93.91-.28 1.25-1.27 1.79-2a3.75 3.75 0 00-.15-2.81c1.34-1.2 1.27-3.1 1.03-4.88zm-7.92 1.61c.75-1.11 2.14-.07 3-.6.41.09.2.75.36 1-.16.36-.2.78-.66.9a2.9 2.9 0 01-2.1-.5c.02-.5-1.1-.13-.6-.8zm4.26 6.16a.24.24 0 01-.07.26 1.16 1.16 0 01-.24.18 1 1 0 01-.34 0 .55.55 0 00-.37.07.22.22 0 01-.26-.07.94.94 0 01-.15-.28.56.56 0 010-.23 1.2 1.2 0 000-.19c.09 0 .17.1.26.15a.58.58 0 00.34.11 1.22 1.22 0 00.6-.06.66.66 0 00.23 0 .35.35 0 000 .06zm.56-.53a4.68 4.68 0 00-.84 0h-1.57a3.59 3.59 0 00-.81.1c-.25-.25.25-.32.37-.41a2.66 2.66 0 01.74-.12h-.07.13a.78.78 0 01.56.14h.16c.22 0 .47 0 .54-.18h.94l.48.15a1 1 0 00.28.12s.12 0 .17.08zm1.39-4.52c-.57.54-1.44-.42-1.77.46s.86 1.24 1.23 2a2.6 2.6 0 01.57 1.45c-.66 0-.57-1.45-1.48-1.09a1.64 1.64 0 01-1.36.42c-.37-.26-.87-.22-1.2-.59-.49.16-.62.74-1 1h-.17c-.08-.49.33-.73.59-1.07.41-.16.49-.53.87-.7.12.13.08.42.32.55.5-.13 1.07.5 1.44-.17 0-1.32-.93-2.73-.22-4.06.2 0 .2.33.45.29.7.09 1.2-.33 1.94-.19a6 6 0 011.15.67.47.47 0 01-.25.45c-.82-.24-.36.75-1.11.58z" fill="#e6a300"/><path d="M286.77 197.48l.09 2.1-.39.92h-.31l.35-2.8zM277.52 217.47l.18.35-.44.88-.17-.13v-.48zM252.41 168.88l-.13.47-.46.33-.4-.6z" fill="#1f2c5c" fill-rule="evenodd"/><path d="M351 234.86a.42.42 0 01.1-.3 1.91 1.91 0 00.18-.77 2.13 2.13 0 01.17-.77 1 1 0 00.1-.53 1 1 0 01.09-.54 3.41 3.41 0 00.18-1.1c.07-1 .07-1-.18-1.31a4.44 4.44 0 00-1.44-.8c-.13 0-.06.41.1.54a.47.47 0 01.16.29c0 .08 0 .15.08.15s.17.15.27.33a3.81 3.81 0 01.07 2.19l-.2.41c-.09.19-.87.29-.87.11s-.15-.11-.32-.11a.56.56 0 01-.39-.11.75.75 0 00-.47-.11 1.35 1.35 0 01-.66-.18c-.21-.14-.24-.24-.19-.59a.82.82 0 01.74-.83c.38-.1.48-.33.2-.46l-.4-.2a1.37 1.37 0 00-.51-.13.47.47 0 01-.34-.11c0-.06-.25-.1-.49-.1s-.45 0-.48.1 0 .11 0 .11.13.09.17.19a2.91 2.91 0 00.27.52c.24.36.29.7.12.7s-.11.13-.11.28 0 .27-.53.27a1.13 1.13 0 01-.61-.11c0-.06-.18-.11-.33-.11a1.64 1.64 0 01-.94-.42c-.25-.2-.24-.63 0-1.17s.35-.56 1.24-1.31c.39-.33.37-.57 0-.57a.57.57 0 00-.39.1.51.51 0 01-.36.11c-.5 0-.78.13-.78.33a.36.36 0 01-.11.27.46.46 0 00-.11.33c0 .15 0 .27-.09.27s-.13.36-.18.81a2.73 2.73 0 01-.17.88c-.06 0-.1.24-.1.46a1 1 0 01-.1.51 2.61 2.61 0 00-.17.79c-.09.79 0 .87.52.35a1 1 0 011.24-.22 4.43 4.43 0 00.93.17 1.59 1.59 0 01.73.15 2.1 2.1 0 00.81.17 2.73 2.73 0 01.88.17c0 .06.25.1.48.1s.45 0 .48.1a.89.89 0 00.45.15c.51.09.7.25.7.61s.23.62.41.37a.87.87 0 00.13-.43zm-7.24 6a.66.66 0 00-.14-.44 3.19 3.19 0 01-.65-1.36c0-.44.24-.53 1.32-.45a4.71 4.71 0 011.11.17 4.23 4.23 0 001 .18 3 3 0 011 .17.61.61 0 00.38.09 1.21 1.21 0 01.51.11 2.5 2.5 0 00.57.16.8.8 0 01.65.79c0 .18.27.18.42 0a2.83 2.83 0 00.19-.93 2.45 2.45 0 01.17-.84 1.06 1.06 0 00.09-.54c0-.35 0-.48-.16-.48a.29.29 0 00-.22.1 1.88 1.88 0 01-.93.44.32.32 0 01-.26-.11.81.81 0 00-.49-.11c-.23 0-.44-.05-.46-.11a5.27 5.27 0 00-1.47-.18 7.63 7.63 0 01-1.44-.14c0-.05-.25-.12-.56-.16-1.13-.15-1.16-.64-.08-1.68.46-.45.74-.8.69-.88a3.05 3.05 0 00-1.76.18c-.34.16-.35.18-.35.85a1.59 1.59 0 01-.11.76 1 1 0 00-.11.55 1 1 0 01-.09.53 1.76 1.76 0 00-.17.69 4.52 4.52 0 01-.35 1.19l-.29.56.32.31a3.28 3.28 0 001 .68.77.77 0 01.31.22.24.24 0 00.25.08c.13 0 .18-.14.16-.4zm1.32 4.22a3.5 3.5 0 00-.51-.28c-.11 0-.19-.11-.19-.16s-.07-.09-.15-.09-.67-.52-.58-.62a4.33 4.33 0 011-.12 4 4 0 001-.14.32.32 0 01.31.06c.17.13.19.24.12.72-.12.87-.37 1-1 .63zm2.84 3.29a.89.89 0 00.15-.42c0-.13.05-.25.11-.27a2.2 2.2 0 00.18-.88c.08-.95 0-1-.56-.57-.23.18-.39.24-.43.17a.34.34 0 00-.28-.12c-.41 0-.57-.31-.49-1a3.23 3.23 0 01.17-.76 2.85 2.85 0 00.16-.58c0-.34.11-.41.31-.41a.68.68 0 00.37-.12c.19-.2.79.11.79.41a.36.36 0 00.59.25 1.23 1.23 0 00.23-.63 2 2 0 01.16-.62 3.34 3.34 0 00.17-.84c.07-.69.06-.73-.16-.73s-.25 0-.28.1c-.18.28-.83.47-1.77.52a2.87 2.87 0 00-1 .15 1.58 1.58 0 01-.75.1 2.11 2.11 0 00-.81.09 7 7 0 01-1.52.17c-1.74.09-2.13.22-2.13.74 0 .36.26.73.5.73.09 0 .15 0 .15.09a.94.94 0 00.35.29l.62.41a6 6 0 00.61.35 1.59 1.59 0 01.48.32.43.43 0 00.25.17 1.77 1.77 0 01.5.31 6.27 6.27 0 00.92.57 4.53 4.53 0 011.4.9 1 1 0 01.41.65c0 .16 0 .29.11.29s.11.07.11.16.21.21.39 0zm-7.25 4.2c.08-.13.1-.26.05-.3a3.55 3.55 0 01-.69-1.78V250h.59a1.33 1.33 0 01.66.1 1.35 1.35 0 00.61.18 1.61 1.61 0 01.6.16c0 .06.19.1.37.1a.56.56 0 01.37.1 1.28 1.28 0 00.58.18 2.47 2.47 0 01.62.15 1.46 1.46 0 00.44.15 1.79 1.79 0 011.51 1.21c.07.21.08.21.28-.05a2 2 0 00.28-.7 3.4 3.4 0 01.15-.6 3.62 3.62 0 00.38-1.12c.06-.35 0-.41-.14-.41a.88.88 0 00-.45.27c-.26.28-.8.38-.92.17a1.47 1.47 0 00-.58-.17 2 2 0 01-.62-.16 2.47 2.47 0 00-.62-.15 1.19 1.19 0 01-.58-.18.56.56 0 00-.38-.1.56.56 0 01-.37-.1 1 1 0 00-.45-.17 2.85 2.85 0 01-.58-.16 2.89 2.89 0 00-.49-.18 1 1 0 01-.43-.28 1.08 1.08 0 01.31-1.11c.8-.44 1.39-1.12 1-1.17a6.4 6.4 0 00-1.79.15 1.21 1.21 0 00-.14.7 1.17 1.17 0 01-.08.58c-.12 0-.36.57-.43 1.05a1.72 1.72 0 01-.14.52 2.26 2.26 0 00-.15.58 1.73 1.73 0 01-.43 1 1.14 1.14 0 00-.14.49c-.05.37 0 .47.33.83a1.94 1.94 0 00.47.41.88.88 0 01.35.27c.32.33.45.34.64 0zm-2.44 4.86c-.73-.37-1.13-.68-1.13-.88a5.19 5.19 0 01.93-1.69 1.25 1.25 0 011.65.05.84.84 0 01.35.81c0 .69-.69 2.1-1 2.06a6 6 0 01-.79-.35zm4.83 3.59a6 6 0 00.45-1.06.88.88 0 01.16-.37c.35-.45 0-.87-.38-.44-.19.24-1 .21-1.49-.05a2 2 0 00-.54-.22c-.08 0-.14 0-.14-.08s-.16-.15-.35-.23a3.11 3.11 0 01-.54-.31c-.28-.24 0-.57.42-.57.19 0 .38-.05.41-.11a1.48 1.48 0 01.71-.11 1.66 1.66 0 00.7-.09 3.94 3.94 0 011.11-.17 2.58 2.58 0 001.25-.25c.45-.41 1-2 .65-2a1 1 0 00-.34.27.82.82 0 01-.56.27.55.55 0 00-.36.1 3.67 3.67 0 01-1.12.17 5.75 5.75 0 00-1.31.2c-.44.22-.61 0-.65-.86 0-1.08-.43-1.75-1.11-1.93-.15-.05-.38-.13-.51-.19s-.34-.07-.71.1a2.2 2.2 0 00-.62.4.47.47 0 01-.29.17.25.25 0 00-.22.19 3.53 3.53 0 01-.43.62 2.5 2.5 0 00-.42.74c0 .16-.12.29-.18.29s-.09.09-.09.19a3.39 3.39 0 01-.33.85 3.43 3.43 0 00-.32.8.78.78 0 01-.22.39 1.59 1.59 0 00-.28.68c-.06.38 0 .46.1.46s.18 0 .18-.08.64-.46.88-.46.21 0 .21.1.15.13.34.17a2.84 2.84 0 01.68.29 4.46 4.46 0 00.52.27c.11 0 .19.11.19.16s.1.09.22.09a1.78 1.78 0 01.62.22 2.11 2.11 0 00.54.22.19.19 0 01.16.08 8.14 8.14 0 001.56.79c.19 0 .49.49.49.81s.19.65.38.49a7.11 7.11 0 00.58-1zm-4.21 7a2.85 2.85 0 01.44-.71 3.14 3.14 0 00.3-.51 2.33 2.33 0 01.41-.59 2.49 2.49 0 00.39-.63 2.9 2.9 0 01.47-.71c.49-.46.4-1-.3-1.92a1.65 1.65 0 01-.31-.51c0-.07-.1-.12-.22-.12s-.21.07-.21.37a.68.68 0 00.1.44 3.62 3.62 0 010 1.73.9.9 0 00-.17.39c0 .18-.11.32-.17.32a.12.12 0 00-.1.13c0 .24-.36.53-.64.52a1.33 1.33 0 01-.55-.15l-.44-.24a1.91 1.91 0 01-.38-.28c-.12-.11-.38-.32-.57-.47-.38-.31-.46-.69-.19-.92a.4.4 0 00.16-.25.87.87 0 01.24-.36c.19-.21.35-.26.81-.26s.58 0 .58-.11a2.37 2.37 0 00-.77-.79c-.08 0-.35-.19-.58-.34a1.73 1.73 0 00-.7-.27c-.22 0-.24 0-.18.29s.12.32.18.34.12.46-.25 1.1c-.05.09-.14.28-.2.42s-.16.24-.4.18a1.5 1.5 0 01-.53-.28.71.71 0 00-.35-.21 1.91 1.91 0 01-.56-.39c-.5-.45-.56-.82-.2-1.2a3.46 3.46 0 00.35-.49 1.43 1.43 0 01.56-.47 4.09 4.09 0 00.48-.28 1.38 1.38 0 01.48-.14 1.25 1.25 0 00.54-.17c.16-.17-.13-.44-.47-.44a.68.68 0 01-.4-.12 1.09 1.09 0 00-.59-.08c-.43 0-.48.07-.72.52a2.44 2.44 0 01-.37.55c-.12.07-.24.28-.59.94a2.16 2.16 0 01-.33.48.38.38 0 00-.15.23 1.49 1.49 0 01-.28.45c-.15.18-.31.39-.36.46a1.27 1.27 0 00-.18.37 1.43 1.43 0 01-.28.47c-.11.12-.17.25-.14.3s.44.11.58-.07c.3-.35.86-.14 2.35.87a3.24 3.24 0 01.37.28.93.93 0 00.22.14 4.6 4.6 0 011 .64l.51.41a1.54 1.54 0 00.4.17 1.74 1.74 0 01.66.48c.39.43.49.83.26 1.06s-.09.17 0 .31.18.14.52-.24a3.89 3.89 0 00.46-.64zm-8.65 1.68a1.57 1.57 0 00-.56-.43.29.29 0 01-.22-.19 1.1 1.1 0 00-.22-.37c-.13-.16-.13-.22.05-.49a2.32 2.32 0 011.7-1.23c.36 0 .49.07.85.45.59.64.56 1-.13 1.89-.15.19-.34.44-.43.57-.24.35-.56.29-1-.2zm3.43 2.85a.5.5 0 01-.25-.2.32.32 0 00-.23-.15 2.37 2.37 0 01-.66-.54 2.45 2.45 0 00-.68-.55c-.08 0-.14-.12-.14-.28s.18-.47.62-.92c.62-.63.64-.64 1.26-.64a1.17 1.17 0 011.11.45c.47.43.49.47.49 1.07 0 .42-.06.67-.17.76a.41.41 0 00-.16.26c0 .18-.55.68-.81.75a.69.69 0 01-.38 0zm-.07 1.79c.4-.43 1-1 1.27-1.33a2.83 2.83 0 00.53-.66 1.21 1.21 0 01.33-.42 1.14 1.14 0 00.32-.42.81.81 0 01.24-.31c.21-.18.25-.32.25-1a2 2 0 00-.13-.94.47.47 0 01-.14-.31.8.8 0 00-.3-.44 2 2 0 00-1.78-.56h-.85v-.49a1.75 1.75 0 00-.14-.73c-.26-.48-.77-.95-1-.95s-.25-.05-.25-.11-.17-.11-.38-.11-.38 0-.38.11-.17.13-.39.17-.64.35-1.79 1.55a15.92 15.92 0 00-1.41 1.6 1.49 1.49 0 01-.38.48 1.29 1.29 0 00-.38.58c0 .18.06.2.41.13a1.37 1.37 0 00.54-.19c.1-.07.14-.07.14 0s.1.13.23.13a3.89 3.89 0 011.18.86 7.7 7.7 0 001.05.87 2.06 2.06 0 01.53.44 2 2 0 00.52.43 5.2 5.2 0 011.24 1.3c.1.18.11.3 0 .37s-.14.72 0 .72a3.66 3.66 0 00.88-.79zm-2.64 2.94c1.14-1.19 1.3-1.5.75-1.5-.18 0-.33.05-.33.11s-.13.11-.29.11-.46-.16-.86-.55a4.45 4.45 0 00-.81-.68 1 1 0 01-.4-.43c-.08-.16-.2-.29-.28-.29a7.88 7.88 0 01-1.21-1.09l-1.11-.96v-.65c0-.4 0-.65-.09-.65a11.35 11.35 0 00-2.27 2.37c0 .2 0 .22.6.16l.6-.06 1.38 1.37a14.28 14.28 0 001.5 1.37 4.42 4.42 0 01.8.7l.69.7-.06.55c-.09.95 0 .92 1.34-.45zM324.7 283a1 1 0 01.35-.27 6.92 6.92 0 00.95-.87 6.43 6.43 0 01.94-.87 1.9 1.9 0 00.53-.44 1.66 1.66 0 01.55-.43.65.65 0 00.32-.22c.15-.17.18-.32.12-.72a1.69 1.69 0 00-.17-.62 2.13 2.13 0 01-.18-.56c-.1-.54-.32-.79-.57-.63s-.19.3-.21.81a3.62 3.62 0 01-1.07 2.35c-.69.7-.9.65-1.93-.44l-1.33-1.45a3.46 3.46 0 01-.61-.82 1.88 1.88 0 00-.42-.6c-.67-.65-.89-1.24-.59-1.53a.32.32 0 00.06-.3c-.08-.18-.4-.23-.4-.06s-.07.11-.14.11a1.92 1.92 0 00-.62.49 2.4 2.4 0 01-.59.49 2.38 2.38 0 00-.93 1 .36.36 0 00.55.34c.39-.24.73-.15 1.24.34a2.44 2.44 0 01.49.58 4 4 0 00.59.69 2.83 2.83 0 01.6.72 3 3 0 00.54.72 4.57 4.57 0 01.55.67 2.35 2.35 0 00.38.53c.22.25.34.47.27.49s-.11.15-.11.3-.05.26-.11.26-.13.2 0 .37.57 0 1-.42zm-12.81 2c-.1-.12-.1-.2 0-.36s.09-.27-.15-.59-.39-1-.18-1 .11-.07.11-.16a.16.16 0 01.16-.16c.09 0 .16-.05.16-.1s.15-.14.33-.18a.64.64 0 00.38-.17 1 1 0 01.53-.1.88.88 0 01.78.34c.28.28.32.41.32.95 0 .72-.25 1.1-.73 1.1a.52.52 0 00-.35.1 1.82 1.82 0 01-1 .45.53.53 0 01-.37-.16zm2.05 3.44a11.21 11.21 0 01-.88-1.55 1.74 1.74 0 00-.33-.52c-.23-.1-.05-.43.29-.56s.38-.19.38-.23.15-.11.33-.15a.9.9 0 00.39-.17c0-.06.29-.1.57-.1a1 1 0 01.95.43c.42.44.43.46.43 1.23s-.09 1-.49 1.19l-.64.35c-.57.32-.78.34-1 .08zm-1.08 2a.71.71 0 01.33-.16 2.47 2.47 0 00.59-.32 5.56 5.56 0 01.77-.44 3.37 3.37 0 00.65-.39 1.57 1.57 0 01.49-.27.87.87 0 00.33-.18 2.19 2.19 0 01.54-.34 1.91 1.91 0 00.92-1.05 3.7 3.7 0 01.17-.35 2.33 2.33 0 00-.44-2.09.35.35 0 01-.09-.28c0-.07 0-.16-.13-.21l-.41-.21a1.58 1.58 0 00-.58-.15h-.32v-1c0-.95 0-1.05-.26-1.32a2.08 2.08 0 00-1.7-.64 5.71 5.71 0 00-2 .85 8.29 8.29 0 01-.73.44 1 1 0 00-.41.28c0 .05-.13.12-.3.16a2.3 2.3 0 00-.64.33 1.39 1.39 0 01-.45.27.72.72 0 00-.3.22c-.18.21-.18.23 0 .4s.23.16.37.07.66.05.9.34c.11.13.1.16 0 .16s-.23.15 0 .33a.45.45 0 01.17.27 1 1 0 00.26.46 1.79 1.79 0 01.34.61c0 .16.11.29.16.29s.12.14.16.32a.89.89 0 00.26.46.94.94 0 01.28.41 1.57 1.57 0 00.27.49c.51.58.71 1.52.38 1.79a.45.45 0 00-.09.58c.09.08.5 0 .58-.14zm-5.67 2.43l.25-.07-.07-3.82-.08-3.81.24-.3a.84.84 0 01.45-.3.19.19 0 00.21-.21c0-.29-.16-.36-.46-.21l-.45.23a2.87 2.87 0 01-.79.16c-.32 0-.58.1-.58.15s-.15.11-.32.15a.74.74 0 00-.39.18c-.09.14.15.42.36.42a.86.86 0 01.43.24c.2.19.25.35.25.86a1.38 1.38 0 00.11.69 12.78 12.78 0 010 3c-.09.09-1.12-.9-1.12-1.07a3.25 3.25 0 00-.65-.76 3.43 3.43 0 01-.65-.77c0-.07-.13-.22-.28-.33s-.38-.83-.16-1c.06 0 .11-.21.11-.38s-.05-.32-.25-.32a.85.85 0 00-.46.16.88.88 0 01-.46.16c-.13 0-.24 0-.24.1s-.15.14-.33.18a3.12 3.12 0 00-.63.22 1.16 1.16 0 01-.43.15c-.2 0-.16.45.06.61a.73.73 0 00.37.15 5.9 5.9 0 011.5 1.4 3.3 3.3 0 00.5.57 3.46 3.46 0 01.57.66 18.34 18.34 0 001.36 1.55c1.3 1.38 1.41 1.45 2 1.3zm-9.75 2.73c.1-.13.39-.17 1.26-.17a5.42 5.42 0 001.32-.1l.69-.33c.68-.3 1.51-1.19 1.51-1.6a.74.74 0 01.13-.44c.09-.1.09-.19 0-.38a3.42 3.42 0 01-.19-.59 1.85 1.85 0 00-1.17-1.12.62.62 0 01-.38-.13 3.15 3.15 0 00-1.19-.17 5 5 0 01-1.16-.14 1.82 1.82 0 00-.75-.1c-.69 0-1.47-.28-1.48-.52a.12.12 0 00-.11-.13c-.18 0-.12-.58.08-.82a1.62 1.62 0 011.16-.6c.21 0 .41 0 .44-.1a.46.46 0 01.33-.11c.15 0 .27 0 .27.11s.22.1.5.1a1.27 1.27 0 01.84.27c.45.35.87.44 1 .25s-.07-.69-.74-1.41l-.52-.57-.31.28c-.29.27-.41.29-1.45.34a3.11 3.11 0 00-1.65.34 4 4 0 00-1.32 1.19c-.2.31-.26 1.6-.07 1.6a.12.12 0 01.11.13 2 2 0 00.83.84.13.13 0 01.14.11c0 .06.12.11.25.11a.65.65 0 01.37.11 6.6 6.6 0 001.59.18 6.43 6.43 0 011.49.16c0 .05.21.09.48.09a1 1 0 01.64.17.55.55 0 00.28.16.15.15 0 01.12.16c0 .09.05.16.11.16s.12.61-.06.76a.47.47 0 00-.16.26c0 .13-.76.51-1 .51a.29.29 0 00-.22.1 3.5 3.5 0 01-1.74 0 .29.29 0 00-.23-.1 2.65 2.65 0 01-1.13-.54c0-.12-.41-.23-.6-.15s-.22.58-.05.58a.13.13 0 01.11.14.84.84 0 00.27.4.89.89 0 01.27.36c0 .4.83.66 1.09.35zM350 162.43c.3-.38.46-.4 3.24-.45s2.93 0 3.23.31c.57.66.76.46.76-.78s-.17-1.54-.6-.89c-.28.44-.32.44-2.75.44a10.86 10.86 0 01-2.47-.14 28.15 28.15 0 014.64-2c.69-.25 1-.47 1-.64a5.11 5.11 0 00-1.64-1c-2.27-1-3.79-1.8-3.79-2s.37-.1.83 0 1.51.15 2.33.22c1.29.1 1.53.17 1.9.57s.46.41.59.2a7.24 7.24 0 00.08-2.64 2.13 2.13 0 00-.51.26c-.34.23-.67.24-2.06.1-.92-.1-2.2-.18-2.84-.18-1.07 0-1.22-.05-1.55-.48-.54-.67-.74-.33-.68 1.1v1.22l1.88.8c2 .86 2.86 1.35 2.72 1.57a17.29 17.29 0 01-2.39 1 6.87 6.87 0 00-2.49 1.2 3 3 0 00-.09 1.34c.05.55.09 1.06.1 1.14 0 .23.21.14.54-.27zm1.88 8.86c.49-.07 1.82-.19 2.95-.26 1.87-.12 2.09-.1 2.43.2l.38.34-.11-2.56c-.07-1.41-.17-2.74-.23-2.95s-.37-.48-1-.68a2.17 2.17 0 00-1-.19c-.06.05.15.31.46.56a3.24 3.24 0 011.17 2.3c.15 1.16-.17 1.46-1.72 1.6-1.07.1-1.17.08-1.44-.31a1.73 1.73 0 01.06-2c.65-.59.46-.85-.53-.75s-1.21.2-.82.63a4.09 4.09 0 01.5 2.54 3.39 3.39 0 01-1.21.26c-1.33.12-1.52-.08-1.54-1.61a2.29 2.29 0 01.39-1.69c.23-.3.37-.6.32-.65s-1.16.31-1.32.59a33.32 33.32 0 00.43 5.35l.1.43.39-.5a1.79 1.79 0 011.29-.64zm1.47 10a2.69 2.69 0 00-.71-.92c-.66-.64-.91-1.35-.56-1.57.08 0 1.36-.27 2.85-.48 2.54-.38 2.73-.39 3.21-.11s.51.27.5 0a13.93 13.93 0 00-.41-2.45s-.26.11-.49.34-.79.47-2.54.72c-1.16.17-2.43.33-2.82.35-.7 0-.71 0-.76-.64a2.31 2.31 0 01.4-1.45c.54-.92.35-1-.81-.42-.6.3-.7.43-.61.75a37.59 37.59 0 01.71 5.12c-.12.31.21.57 1 .79s1.06.24 1.06 0zm.17 8.62c.19-.48.42-.56 3.54-1.24 2.35-.51 2.87-.54 3.17-.18a.72.72 0 00.4.27c.2 0 .18-.11-.53-3.44l-.48-2.3-.7-.23a3.21 3.21 0 00-1.06-.17c-.31.05-.27.12.29.49a3 3 0 011.36 2.28c.19.88.18 1-.15 1.32a3.76 3.76 0 01-2.67.34 2.74 2.74 0 01-.28-1.06c-.09-.76-.05-.94.29-1.25s.32-.4.19-.48a3.83 3.83 0 00-2 .31c-.34.18-.34.18 0 .32a1.86 1.86 0 011 1.75l.05.79-1.05.21c-1.38.27-1.61.14-1.75-1a3.54 3.54 0 01.28-2.19c.32-.68.08-.8-.63-.32-.52.36-.65.55-.58.84s.22 1.26.37 2.33c.27 1.85.56 3.09.73 3.09a1.05 1.05 0 00.24-.44zm1.24 5.92c0-.35.57-.7 1.46-.89 4.46-1 4.95-1.05 5.16-.71s.44.17.44-.31a3.87 3.87 0 00-.68-2.12c-.11 0-.2.06-.2.21 0 .39-.43.55-3.26 1.16s-3 .63-3.36.17c-.18-.19-.39-.29-.46-.22a8.5 8.5 0 00.47 2.72c.13.2.43.2.43 0zm1.22 8.76c.11-.29.86-.74 2.68-1.63 3.6-1.76 3.95-1.95 4-2.26s-.61-1-1.21-1a38.32 38.32 0 01-5.23-1.24 3.42 3.42 0 01-.9-.57c-.24-.22-.46-.31-.54-.21a6.1 6.1 0 00.18 2.47c.07.06.36-.07.66-.29l.55-.4 1.72.32c2.53.49 2.55.58.29 1.75-1 .55-2 1-2 1a1 1 0 01-.41-.28c-.45-.44-.66-.13-.55.78.21 1.64.29 2 .46 2s.24-.18.32-.41zm1.69 6.95a2.08 2.08 0 01-1.78-2.34c.22-1.18 1-1.56 3.25-1.57a5.52 5.52 0 012.38.3c1.58.75 1.2 3.11-.57 3.6a9.2 9.2 0 01-3.27 0zm3.81 1.18a3.22 3.22 0 001.6-3.25 17 17 0 01.05-3.72c.18-1.35-.05-1.45-.5-.21a2.3 2.3 0 01-.55 1 1.52 1.52 0 01-.81-.22 6.29 6.29 0 00-3.44-.27 4.41 4.41 0 00-2.54 2.43 3.62 3.62 0 001.86 4.23 5.65 5.65 0 004.33 0zM215.05 251.39a2.45 2.45 0 01-.48-.72 1.64 1.64 0 00-.11-.44c-.1-.27.4-.62 1.5-1 .72-.27 1.2.31 1.2 1.44s-.23 1.33-1 1.33a1.27 1.27 0 01-1.07-.57zm2.18 2.06a1.89 1.89 0 001.07-1.91c0-1.13-1.78-5.31-2.24-5.31-.08 0-.22.27-.31.6-.15.54-.4.72-2.65 1.85-2.46 1.23-3.25 1.45-3.67 1s-.42.45.15 1.69 1 1.65 1.14.8c0-.41.27-.63 1.17-1.11a6.53 6.53 0 011.33-.6c.12 0 .49.5.81 1.11 1 1.81 1.9 2.35 3.2 1.85zm.35 9c.82-.14.93-.59.18-.77-1.18-.28-2.63-1.66-2.63-2.51 0-.21.85-.84 2.45-1.82 2.33-1.43 2.49-1.49 3.26-1.38s.8.08.68-.22a13.69 13.69 0 00-1.81-2.65c-.08 0-.14.24-.14.55 0 .49-.19.67-1.81 1.72-3.09 2-3.56 2.26-3.95 2s-.92-.27-.77.11a50 50 0 003.07 5.08.71.71 0 00.5.07c.15 0 .59-.13 1-.19zm4.65 2.57c-.18-.27-.24-.53-.15-.62a4.28 4.28 0 011.65-.54 3.93 3.93 0 01-1 1.63c-.1 0-.31-.21-.48-.47zm.11 5.06c0-.39.59-1.54 1.95-3.77 1.06-1.77 1.94-3.29 1.94-3.38 0-.44-.57-.64-1.26-.44l-1.7.47-2.92.87a6.3 6.3 0 01-2.41.47c-.64-.17-.67-.16-.74 0s1.62 2.29 1.82 2.16.13-.3.07-.54c-.12-.48.34-.89 1.24-1.12.4-.09.58 0 1.06.59.7.85.75 1.58.15 2.18a.94.94 0 01-.93.34c-.27-.05-.49 0-.49 0 0 .46 1.83 2.92 2.06 2.78a1.07 1.07 0 00.16-.68zm6.43 5.29c.87-.54.36-.94-.78-.62a1.64 1.64 0 01-1.47-.1 2.09 2.09 0 01-1.22-1.89c0-1 1.7-3.09 3.13-3.83.7-.36.83-.36 1.63 0a2.87 2.87 0 011.35 2.51c0 .84.26.89.64.15s.37-1.41.09-1.59a3.73 3.73 0 01-.63-.82 4.07 4.07 0 00-2.86-1.67c-2.24 0-4.81 2.8-4.6 5s2.95 3.97 4.72 2.84zm2.12 4.12c-.07-.57.18-.9 2.59-3.41 1.52-1.59 1.69-1.72 2.2-1.61.86.19.68-.28-.55-1.45s-1.59-1.32-1.42-.43c.11.58 0 .74-1.93 2.84s-2.07 2.23-2.69 2.15c-.91-.12-.83.2.37 1.49 1 1.13 1.53 1.27 1.43.42zm5.91 4.4c-.93-.39-1.69-1-1.69-1.34 0-.53 3.47-5 3.88-5a2.6 2.6 0 011.11.71 1.68 1.68 0 01.75 1.61 4.86 4.86 0 01-1.8 3.27c-.94.92-1.48 1.1-2.25.78zm2.74.77a5.08 5.08 0 002.38-2.68 2.22 2.22 0 00.25-1.93 4.75 4.75 0 00-.87-1.72c-.81-1-3.52-3-4-3-.3 0-.33.05-.16.22.56.56 0 1.65-1.91 3.87-.4.46-.91 1.09-1.13 1.39a1.09 1.09 0 01-1 .55c-.34 0-.65.11-.69.21s.46.6 1.1 1.09 1.41 1.16 1.72 1.47a2.58 2.58 0 002.37 1 3.84 3.84 0 002-.44zm4.18.79l-.45-.27c-.14-.13.6-.81.88-.81a1.2 1.2 0 00.62-.31c.46-.42.59-.22.26.42a6.49 6.49 0 00-.37.86c-.11.37-.41.41-.94.11zm2.18 5.28c.07-.06 0-.27-.07-.46a18.63 18.63 0 01.72-5.83 2.89 2.89 0 00.29-1.5c0-1.69-.21-1.69-2.13 0a13.68 13.68 0 01-1.91 1.47 8.82 8.82 0 00-1.44 1.08c-1 .86-1.55 1.19-1.93 1.13-1-.18-.6.36.75 1.13a2.65 2.65 0 001.07.44c.08-.05.09-.34 0-.65s0-.67.41-1.1c.64-.67.82-.68 1.76-.08s1 .79.79 1.7c-.13.57-.27.73-.76.88-.33.09-.59.22-.59.29a17.88 17.88 0 002.79 1.66.4.4 0 00.22-.12zm10.1 3.43a1.51 1.51 0 00-.22-.56c-.26-.4-.19-.63 1.18-4.17.55-1.42.84-1.93 1.18-2.09.71-.32.37-.69-1-1L256 286l-.56.7a20.11 20.11 0 01-2.63 3c-.16.06-.19-.58-.12-2.39l.1-2.47-1-.5a8.62 8.62 0 00-1.16-.51c-.29 0-.59.66-.44.94a4.94 4.94 0 01-.49 2.13c-.35 1-.78 2.25-1 2.75a2.14 2.14 0 01-.83 1.21c-.73.41-.56.76.56 1.13s1.35.23 1-.45c-.17-.32-.11-.68.34-2a15.29 15.29 0 011.19-3.09 14.42 14.42 0 010 3c-.12 2.87-.1 3.17.2 3.42s.21.46 2.7-2.72c1.52-1.94 2-2.44 1.76-1.8-.07.2-.34 1-.58 1.88-.54 1.88-.94 2.66-1.4 2.78a.38.38 0 00-.12.73c.73.47 2.54.78 2.54.43zM269.75 65.22c-.54-.06-1.37.08-1.15.85-.18 1 1.24 1.51 1.25 2.27-.93 1.1-1.06 3-2.61 3.47-.94.71-1.45-1.26-2.42-1-.61.66-1.09 1.46-1.64 2.16 0 1.67-1.87 2.39-3 3.3-2.18 1.48-4.55 2.83-6 5.08-1 1.39-2.49 2.52-3.1 4.15.29 1.81 1.78 3.17 2.85 4.6a39.37 39.37 0 009.53 8.44c1 .82 2.41 1.33 3.19 2.43.08.92-1.29 1.14-2 1-2.35-.78-4.93-1.24-7.26-.13-1.11.65-2.23-.49-3.4-.48-1.7-.24-3.94-.25-5 1.33a2 2 0 00.51 2.68c1.64 1.37 4 1.24 6 1.15a11 11 0 004.1-1.42c1.72.17 3.11 1.73 4.94 1.43 1.64.22 3.06-.92 4.52-1.24a9.48 9.48 0 005.42 1.19c1.22-.06 2.3-.93 3.45-1.08 2.37 1.07 5.21 1.76 7.65.5 1.27-.85 2.58.32 3.9.47 2 .63 4.08-.12 6-.84a6.35 6.35 0 005.15.76c1.44-.63 2.24-2.79.87-3.86-2.56-1.76-6-1.31-8.75-.43-1.39.74-2.62-.82-4.07-.68a14.12 14.12 0 00-5.74.65 1.31 1.31 0 01-1.84-1.15c0-2-1.36-3.49-2.2-5.17-1.12-1.32-3-1.49-4.34-2.57-.74-.43-1.44-1.2-2.08-1.54-.81 1.28-2.56.72-3.47-.13s-2.06-1.22-2.91-2.1c-.65-.61-1.91-.41-2.11-1.49-.37-.9-1.58-1-1.91-1.93.38-1.13 1.57-1.86 2.29-2.8 1.18-1.31 2.47-2.58 3.68-3.88.73-.39 1.68 0 2.3-.71.61-.42 1.73-1.11 1-1.95s.31-1.78 1.17-1.74c1.26 0 2.88-.52 3.8.63.63.62 1.26-.32 1.46-.85.82-.49 1.57.62 2.25 1 7.14 5.52 14 11.43 20.55 17.59 2.43 2.51 4.62 5.22 7 7.83 2.43 2.83 4.72 5.78 6.92 8.8a39.87 39.87 0 00-4.32-8.76c-1.85-2.45-3.71-4.9-5.63-7.31a168.57 168.57 0 00-21.95-20.1c-.75-.74-1.93-1.26-2.33-2.27 0-.85 1.3-1.87.24-2.53-.67-.23-1.57.27-2.12-.43-1.61-1.43-3.3-3.25-5.66-3-1 0-1.92-.08-2.88-.06z" fill="#e6a300"/><path d="M313.71 109.32a124.88 124.88 0 00-10-12.29 15.23 15.23 0 01-1.71-2c0-.7-14.88-13.77-20.81-18.29-3.18-2.42-3.43-2.54-3.43-1.68 0 .46-.81 1-1.3.82a1.57 1.57 0 01-.68-.57c-.27-.42-.37-.44-2.09-.38s-1.82.09-2.16.55-.37.48.06.94a1 1 0 01-.22 1.62 7.53 7.53 0 00-1.05.77 1.28 1.28 0 01-1.34.44c-.73-.11-1 0-1.85 1.37a3.36 3.36 0 01-.87.77 5.08 5.08 0 00-1.16 1.25 9.59 9.59 0 01-1.69 1.8c-1.14.93-1.41 1.51-.8 1.73a3.15 3.15 0 011.72 1.64c.2.58.29.65.88.65s.8.15 1.42.84a2.33 2.33 0 001.15.84 2.06 2.06 0 011 .68c1.19 1.25 2.58 1.54 3.27.68l.4-.5 1.07 1a15.05 15.05 0 004.48 2.47c.74.26 1.18.81 1.94 2.44a13 13 0 00.88 1.58 2.65 2.65 0 01.48 1.78c0 1 0 1.09.54 1.35s.64.23 1.91-.22a8.2 8.2 0 013.43-.5 6.51 6.51 0 013.33.52l1.28.53 1.68-.51a16.1 16.1 0 013-.61c2.41-.17 5.05.7 5.79 1.92.95 1.55-.21 3.58-2.29 4a4.85 4.85 0 01-3.48-.54c-.89-.45-1-.47-1.58-.25-2.13.86-3 1-4.54.8a12.16 12.16 0 01-2.61-.64l-1.1-.44-1.2.54a8.28 8.28 0 01-2.14.63 11 11 0 01-4.48-.86c-1-.48-.95-.48-2.37.15a6.82 6.82 0 01-6.3-.17l-1.21-.56-1.17.57a6.07 6.07 0 01-6.36 0 9.25 9.25 0 00-1.61-.73 2.71 2.71 0 00-.86.43 7.92 7.92 0 01-4.75 1.13c-2.42 0-4.13-.46-5.09-1.4a2.4 2.4 0 01.17-3.6 6 6 0 013.23-1 11.69 11.69 0 013.63.83c.47.24.59.22 1.52-.24a5.22 5.22 0 013-.5 6.49 6.49 0 013.19.51c1.21.5 1.26.5 2 .21.42-.17.77-.4.77-.51a3.26 3.26 0 00-1.06-.86c-3.39-2.1-7.14-4.75-7.14-5a9.3 9.3 0 00-1.43-1.34c-2.28-2-6-6.71-6.22-7.91-.16-.85.06-1.28 1.35-2.69.64-.69 1.69-2 2.35-2.85a8.65 8.65 0 012.66-2.46l3-1.92c2.27-1.47 2.82-2 2.77-2.76a.86.86 0 01.38-.9 3.34 3.34 0 00.8-1.09c.51-1.07 1-1.14 1.95-.25l.68.67.76-.3a1.27 1.27 0 001-1 6.36 6.36 0 01.68-1.39 4.36 4.36 0 00.47-.77 2.92 2.92 0 00-.58-.6c-.77-.69-1-2-.39-2.53.31-.28.55-.32 1.19-.23a9.56 9.56 0 001.45.11c2.92-.09 2.85-.1 4.11.56a11.78 11.78 0 012.47 1.9c1.24 1.24 1.27 1.26 1.71 1s.88-.21 1.49.45c.34.39.34.41-.15 1.34a5.26 5.26 0 00-.49 1.19c0 .13.32.45.7.71.95.62 6.21 4.8 8.62 6.85 2.07 1.74 4.09 3.59 8.65 7.91 3 2.79 7.7 7.89 7.62 8.16a45.45 45.45 0 003.72 4.82c1.54 1.85 4.81 8.25 5 9.86.11.79-.32.62-1-.4zm-1.5-3.9a41.85 41.85 0 00-5.33-7.8 23.47 23.47 0 01-1.9-2.54c-.46-1.2-7.75-8.39-14.07-13.88-1.85-1.6-3-2.56-7.46-6.15-.72-.58-1.89-1.46-2.61-1.94l-1.29-.89-.44.51a1.35 1.35 0 00-.38.8 22.52 22.52 0 003 2.61c4.3 3.34 7.18 5.77 13.68 11.5A95.75 95.75 0 01303.1 95a17.86 17.86 0 001.72 2 93.09 93.09 0 016.74 8 9.29 9.29 0 001.21 1.55 4.14 4.14 0 00-.56-1.26zm-56.07.53c1.26-.3 2.69-1.06 2.69-1.43s-2.33-1.93-3.64-2.45a7.62 7.62 0 00-4.69-.1c-1.41.63-1.88 2-1 2.85 1.17 1.17 4.23 1.69 6.63 1.13zm18.73.06a.56.56 0 01.43-.19 2.64 2.64 0 001-.39l.64-.39-.73-.65-1.3-1.16a9.59 9.59 0 00-1.49-1 8.94 8.94 0 00-5.78-.31c-.62.2-1.15.47-1.17.61-.06.3 3 2.39 4.31 3a12.45 12.45 0 003.7.71.5.5 0 00.43-.16zm18.69-.37c.44-.19.79-.43.79-.53 0-.34-3.06-2.53-4.17-3a8.62 8.62 0 00-5.34-.25c-.56.19-1 .47-1.07.62s2.08 1.86 3.31 2.5c2 1.05 5 1.34 6.48.65zM275 101.52c0-.36 2.1-.77 3.61-.7s1.51.06 1.68-.43.17-.57-1.25-3.17a9 9 0 00-.94-1.45c-.14-.11-1-.61-2-1.1s-2-1-2.26-1.23l-.52-.34.11.82a2.17 2.17 0 01-.18 1.37 2.81 2.81 0 00-.3 1 6 6 0 01-.28 1.4c-.48 1.59-.3 3.43.34 3.43a3.24 3.24 0 01.88.35c.62.34 1.11.34 1.11 0zm-4.29-1.08c0-.31-.75-1.12-1.43-1.54s-.54-.7.32-.25c.32.17.63.26.68.21a2.37 2.37 0 00-.5-1c-1-1.41-1.28-2.32-1.14-3.27l.12-.84.25.59a1.35 1.35 0 01.14.77c-.25.4 1.85 2.65 2.47 2.65s1.28-3.24 1-4.15c-.16-.56-.24-.61-1-.66-1.56-.08-2.07-.25-2.78-.89a6.08 6.08 0 00-1.37-.92 3.33 3.33 0 01-1.17-.93c-.54-.71-1-.84-1.14-.35-.08.2 0 .43.38.67.7.51.92 1 .68 1.45s-.7.47-1.27.08-.56-.9 0-.74.47-.39-.23-1.11a5.14 5.14 0 01-.94-1.58 2.26 2.26 0 00-.94-1.32c-1.1-.68-1.45-.29-.58.65.38.41.43.56.24.78s-.27.23-.57-.08a6.5 6.5 0 01-.64-3.45 2.93 2.93 0 011-1.07 6.52 6.52 0 002.3-2.28 9.24 9.24 0 00.55-1 1.43 1.43 0 00-.65 0c-.43.07-.66 0-.66-.11a.24.24 0 01.25-.21 3.92 3.92 0 001.07-.53 2.39 2.39 0 011.05-.45c.24.08 1.35-1 1.36-1.36a4 4 0 00-.82-1l-.82-.8-.53.38c-.42.3-.91.4-2.3.47-1 0-1.52.06-1.22 0a7 7 0 002.85-.91l.67-.45-1.55-1.55-1.12.94a32.48 32.48 0 01-3.36 2.26c-2.5 1.48-3.3 2.18-4.47 3.93a20.1 20.1 0 01-1.89 2.44c-1.27 1.33-1.46 1.79-1 2.48a41.2 41.2 0 004.95 6.07l2.59 2.43a45.41 45.41 0 006.43 4.41l1.11.61-.85-.82a16.75 16.75 0 01-1.61-1.94 18.77 18.77 0 00-1.62-1.91c-.83-.85-.73-1 .55-.6.52.15.92.55 2 2a12.53 12.53 0 003.39 3.55c.66.39 1.68.53 1.68.23zm-12-11.52c-.29-.29-.1-1.33.37-2 .58-.85.81-.61.27.28-.28.46-.33.72-.19 1.06.23.61-.07 1.06-.45.68zm-.87-1.81c0-.91 1.35-2 2.46-2 .31 0 .24.08-.29.27-.91.32-1.43.8-1.43 1.3s-.31.85-.6.85c-.08 0-.14-.2-.14-.44zm9.69 13c0-.05-.08-.14-.18-.2s-.19 0-.19.08a.19.19 0 00.19.2c.07.04.15 0 .15-.04zM270 78c.19-.26.22-.44.09-.48s-.92.49-.92.75.55.14.83-.27zm-.56-1.06a.63.63 0 00.48-.66c0-.68-.66-.62-1 .08s-.36.92.54.58zm-1.39-.61a2.92 2.92 0 00.37-.75c0-.3-.51-.12-.92.32s-.4.51-.2.75.33.37.75-.32zm-.67-1.19a.76.76 0 00.1-1.11c-.27-.16-.49.08-.65.71s0 .61.55.4zm3.86-.76c.3-.48.48-.6.7-.5a7.7 7.7 0 001.73.21c1.38.07 1.45 0 2.11-.53a5 5 0 001-1.14c.25-.48.24-.61-.09-1.37-.21-.46-.45-.83-.55-.83-.32 0-.62.54-.58 1.06.05.83 0 .92-.46 1.13s-.54.13-1.06-.25a2.4 2.4 0 00-2.33-.26l-.5.19.12-.87c.13-1-.13-2.22-.52-2.37-.55-.21-1.6 1.48-1.6 2.57 0 .6-.05.66-.51.67-1.32 0-1.22.48.48 2.09 1.25 1.19 1.48 1.21 2.1.2zm6 0a11 11 0 011.39-2.38c1.49-2 1.8-2.51 1.64-2.77s-.45-.17-.8.61a4.09 4.09 0 01-.77 1.17l-.43.37.13-.78c.17-1-.15-1.61-1.5-3a8.93 8.93 0 00-3.9-2.12c-.49-.09-.69 0-1.15.45a2.92 2.92 0 01-.65.55 2.27 2.27 0 01-.56-.47c-.53-.52-1.32-.61-1.49-.17a2 2 0 00.58 1.44c.45.25 1.17.3 1.34.09 1.1-1.38 1.28-1.53 1.94-1.51a7.21 7.21 0 013.79 2.2c1.33 1.28 1.57 1.88 1.12 2.83a3.21 3.21 0 00-.31 1.14 4.23 4.23 0 01-.64 1.51c-.64 1-.69 1.59-.13 1.48.16 0 .35-.32.41-.65zm-11.11-.05c.34-.67.1-.88-.47-.41-.27.22-.38.45-.31.65.18.46.46.38.78-.24zm-1.66-1.42a.91.91 0 000-.56c-.17-.17-.94.61-.81.82.23.38.66.24.78-.26zm1.36 0c.28-.2.37-.36.24-.49s-.52-.06-.78.43 0 .46.54.06zm9.17-2.4a3 3 0 01.83-1.06c.44-.33.53-.48.37-.67q-.5-.61-1.41.36c-.83.87-1.07 1.4-.79 1.73s.71.31 1-.36zm2.35-.3a.33.33 0 00-.28-.37c-.32 0-.33 0-.17.45s.45.36.45-.08zm-3.19-1.07c.86-1 .95-1.46.35-1.65-.34-.1-.55 0-1.12.67a2.23 2.23 0 00-.71 1.33c0 .82.6.68 1.48-.35zm-1.39-1c.55-.72.59-1.09.17-1.44-.26-.22-.38-.16-.93.49-.77.9-.84 1.58-.17 1.58a1.31 1.31 0 00.93-.63z" fill="#1f2c5c"/><path d="M295.26 101.49c-1.22.29-2.61 1-2.61 1.38s2.26 1.87 3.52 2.38a7.55 7.55 0 004.55.09c1.37-.61 1.82-1.9 1-2.76-1.13-1.13-4.1-1.64-6.42-1.09zm-17.81 0a.54.54 0 01-.42.18 2.59 2.59 0 00-.93.39l-.62.38.71.62c.39.35 1 .85 1.26 1.13a10.2 10.2 0 001.44 1 8.67 8.67 0 005.6.31c.6-.2 1.11-.46 1.14-.6.05-.29-2.89-2.31-4.18-2.88a12.27 12.27 0 00-3.58-.68.47.47 0 00-.42.15zm-19.2.3c-.42.19-.76.43-.76.52 0 .33 3 2.45 4 2.89a8.23 8.23 0 005.17.25c.55-.19 1-.46 1-.6s-2-1.8-3.21-2.43c-2-1-4.8-1.3-6.28-.63z" fill="#1f2c5c"/><path d="M203.72 156.22a3.57 3.57 0 01-.78-1 6.93 6.93 0 01-.23-2.79 4 4 0 011.62-.27l1.47-.07v1.15c.05 1 0 1.19-.32 1.46a1.15 1.15 0 00-.38.47c0 .17 1 .19 1.85 0l.59-.12-.4-.31a1.93 1.93 0 01-.58-1.2c-.24-1.29-.12-1.51.93-1.65s1.63 0 1.78.57a4.27 4.27 0 01-.47 2.81c-.56.79-.34 1 .55.57s.81-.27.54-3.58a10.83 10.83 0 00-.35-2.36c-.09-.1-.34-.05-.6.11a11.45 11.45 0 01-3.35.49l-2.92.22-.9-.85.13 2.48c.17 3.45.23 3.7 1 4.09a2.93 2.93 0 001 .32c.31 0 .28-.08-.24-.57zm6.22 8c0-1.2-.19-1.49-.55-.82-.18.34-.39.37-2.22.37a7.08 7.08 0 01-2-.15 17.38 17.38 0 012.38-1.58 14.51 14.51 0 002.49-1.7 7.12 7.12 0 000-2.64c-.08 0-.25.16-.37.36s-.43.37-3.35.37-3.14 0-3.5-.4c-.2-.22-.43-.34-.5-.28a4.56 4.56 0 00-.19 1.23c-.08 1.18.18 1.48.64.74.21-.34.43-.37 2.89-.37a13.68 13.68 0 012.74.15c.05.08-.17.35-.49.61a26.88 26.88 0 01-3.17 2 10.59 10.59 0 00-1.39.83c-1.28.83-1.62 1.39-1 1.64a31.34 31.34 0 003.42.11c3.07 0 3.13 0 3.52.45.22.24.46.4.54.35a3.33 3.33 0 00.14-1.27zm-5.26 8.36a8.42 8.42 0 001.34-2.16c.93-2 1.41-2.6 1.95-2.6 1.23 0 1.11 2.45-.18 3.88-.37.4-.61.79-.54.85a2 2 0 001-.15c.77-.24.88-.33.89-.82a8 8 0 01.23-1.27c.48-1.7.09-3.44-.84-3.79a2.64 2.64 0 00-2.15.26 10.73 10.73 0 00-1.85 3.33c-.41 1-.8 1.39-1.41 1.39-.76 0-1.08-.44-1.08-1.49a3.58 3.58 0 011.17-2.8c.8-.8.86-1.1.16-.93-1.42.35-1.43.36-1.45.91a6.12 6.12 0 01-.32 1.42 4.42 4.42 0 000 3.07 2.09 2.09 0 003.12.9zm2.62 8.42c.32-.08.43-.32.59-1.33.1-.67.33-2 .5-2.94a7.05 7.05 0 00.19-1.82c-.06-.06-.26 0-.45.19-.38.35-1.38.31-4.41-.18-2.13-.34-2.22-.37-2.36-.91-.27-1.07-.46-.48-1.18 3.51-.38 2.11-.33 2.31.77 2.87.92.47 1.11.33.47-.34a2.75 2.75 0 01-.61-1.1 4 4 0 01.44-2.6c.3-.35.4-.35 1.6-.15l1.29.22v.74c0 1.17-.24 1.74-.74 2s-.31.44 1 .62c1 .13 1.19 0 .64-.39-.33-.25-.4-1.23-.16-2.21.13-.49.16-.5 1.12-.4 1.47.15 1.75.36 1.75 1.29a3.67 3.67 0 01-1.32 2.49c-.68.48-.17.76.89.47zm-4.05 9.17a2.13 2.13 0 01-.3-1.39v-1h.87a7 7 0 011.31.12c.4.11.43.19.35 1a2.66 2.66 0 01-.42 1.27 1.37 1.37 0 01-1.81 0zm2.05 1.36a3.75 3.75 0 00.7-1.53 23.84 23.84 0 00.7-4.43c-.06-.07-.31.06-.54.28-.54.5-.93.5-4 0-2-.36-2.54-.51-2.82-.85-.48-.6-.69-.27-.82 1.32l-.11 1.36.41-.36c.37-.33.51-.34 1.79-.16a5.58 5.58 0 011.54.36 4.11 4.11 0 010 1.49 2.85 2.85 0 00.16 2 1.73 1.73 0 003 .52zm-.48 7.84a37.75 37.75 0 00.63-6c-.08-.21-.2-.17-.56.2a1 1 0 01-.88.37c-.23-.05-1.5-.18-2.81-.29-2.84-.24-3-.28-3.13-.74-.07-.2-.18-.36-.26-.36a49.93 49.93 0 00-.76 5.91c0 .33 1.13 1.08 1.61 1.08.25 0 .23-.07-.09-.41a3.87 3.87 0 01-.66-3.09l.17-1 1.46.06a3.45 3.45 0 011.61.27 2.32 2.32 0 010 1.05 1.77 1.77 0 01-.66 1.32c-.64.55-.6.59 1 .81.9.13 1.12 0 .6-.47a3.22 3.22 0 01-.05-2.53 3.27 3.27 0 012.36.34c.37.58 0 2.08-.66 2.9a1.93 1.93 0 00-.46.82c0 .23.12.25.69.09a3.45 3.45 0 00.82-.3zm-.1 8.38c.16-.16.17-.76 0-2.25a20.45 20.45 0 01-.07-3l.11-1-.91-.32a8 8 0 00-1-.32c-.27 0-.08.46.43 1a1.83 1.83 0 01.56 1.26c0 .78 0 .78-3.39.9-2.51.08-2.56.08-3-.36a2.14 2.14 0 00-.53-.45 8.22 8.22 0 00-.08 1.57 5 5 0 00.12 1.56 2 2 0 00.55-.46l.43-.47 6 .1v.7a2.77 2.77 0 01-.5 1.37c-.26.37-.43.73-.38.82s1.34-.3 1.66-.64zm-5.72 5.1c.22 0 1-.18 1.6-.28s1.82-.33 2.57-.48c1.32-.26 1.39-.26 1.88.1.66.49.71.48.71-.16 0-1.35-.65-3.13-.88-2.43-.16.48-.63.73-1.56.85-.53.07-1.26.19-1.61.27s-1.25.26-2 .39c-1.32.23-1.35.22-1.82-.21l-.48-.45.13 1a15.65 15.65 0 00.32 1.74l.18.73.27-.5a1.22 1.22 0 01.67-.59zm7.94 7.75l.73-.61-.71-2.47c-.39-1.35-.73-2.66-.76-2.9-.07-.61-.22-.7-1.3-.85s-1.42.14-.43.64 1.52 1.51 1.09 1.92a31.12 31.12 0 01-5.6 1.76 1 1 0 01-.65-.27c-.63-.77-.66.11-.06 2 .32 1 .51 1.09.77.33.16-.47.37-.6 1.63-1a17 17 0 014.55-1c.4.15.37 1.13-.07 2.05-.55 1.18-.27 1.31.81.39z" fill="#e6a300"/></svg>