<?xml version="1.0" encoding="utf-8"?>
<!-- Generator: Adobe Illustrator 23.0.1, SVG Export Plug-In . SVG Version: 6.00 Build 0)  -->
<svg version="1.1" id="Layer_1" xmlns="http://www.w3.org/2000/svg" xmlns:xlink="http://www.w3.org/1999/xlink" x="0px" y="0px"
	 viewBox="0 0 600 381.8" style="enable-background:new 0 0 600 381.8;" xml:space="preserve">
<style type="text/css">
	.st0{fill:#FFFFFF;}
	.st1{fill:#002868;}
	.st2{fill:#BF0A30;}
	.st3{fill:#FFD90F;}
</style>
<g>
	<path class="st0" d="M0-0.9h600v383.6H0V-0.9z"/>
	<path class="st1" d="M177.1,117.1h423v29.5h-423L177.1,117.1z"/>
	<path class="st1" d="M177.1-0.9h423v29.5h-423L177.1-0.9z"/>
	<g>
		<path class="st2" d="M0-0.9h206.6v206.6H0L0-0.9z"/>
		<path class="st2" d="M186.9,176.2H600v29.5H186.9L186.9,176.2z"/>
		<path class="st2" d="M186.9,58.1H600v29.5H186.9L186.9,58.1z"/>
		<path class="st2" d="M0,294.2h600v29.5H0L0,294.2z"/>
	</g>
	<path class="st1" d="M0,353.2h600v29.5H0L0,353.2z"/>
	<path class="st1" d="M0,235.2h600v29.5H0L0,235.2z"/>
	<path class="st3" d="M147.8,169l-44.8-33l-44.7,33.1l17.5-52.8L30.6,84.1l55.6,0.3l16.7-53l16.9,53l55.6-0.5l-45.2,32.4L147.8,169z
		"/>
</g>
</svg>
