<svg xmlns="http://www.w3.org/2000/svg" width="600" height="315.79"><path fill="#bf0a30" d="M0 0h600v315.79H0z"/><path fill="#fff" d="M0 24.29h600v24.29H0zM0 72.87h600v24.29H0zM0 121.46h600v24.29H0zM0 170.04h600v24.29H0zM0 218.62h600v24.29H0zM0 267.21h600v24.29H0z"/><path fill="#002664" d="M0 0h239.99v170.03H0z"/><path fill="#fff" d="M20.27 22.4l-2.18 6.71 5.71-4.15 5.72 4.15-2.19-6.71 5.72-4.15h-7.06l-2.19-6.71-2.18 6.71h-7.06l5.71 4.15zM52.34 22.4l-2.18 6.71 5.71-4.15 5.71 4.15-2.18-6.71 5.71-4.15h-7.06l-2.18-6.71-2.18 6.71h-7.06l5.71 4.15zM84.4 22.4l-2.18 6.71 5.71-4.15 5.71 4.15-2.18-6.71 5.71-4.15h-7.06l-2.18-6.71-2.18 6.71h-7.06l5.71 4.15zM116.47 22.4l-2.19 6.71 5.72-4.15 5.71 4.15-2.18-6.71 5.71-4.15h-7.06L120 11.54l-2.19 6.71h-7.06l5.72 4.15zM148.53 22.4l-2.18 6.71 5.71-4.15 5.71 4.15-2.18-6.71 5.71-4.15h-7.06l-2.18-6.71-2.18 6.71h-7.06l5.71 4.15zM180.59 22.4l-2.18 6.71 5.71-4.15 5.71 4.15-2.18-6.71 5.71-4.15h-7.06l-2.18-6.71-2.18 6.71h-7.06l5.71 4.15zM212.66 22.4l-2.19 6.71 5.72-4.15 5.71 4.15-2.18-6.71 5.71-4.15h-7.06l-2.18-6.71-2.19 6.71h-7.06l5.72 4.15zM18.09 61l5.71-4.15L29.52 61l-2.19-6.72 5.72-4.15h-7.06l-2.19-6.71-2.18 6.71h-7.06l5.71 4.15L18.09 61zM50.16 61l5.71-4.15L61.58 61l-2.18-6.72 5.71-4.15h-7.06l-2.18-6.71-2.18 6.71h-7.06l5.71 4.15L50.16 61zM82.22 61l5.71-4.15L93.64 61l-2.18-6.72 5.71-4.15h-7.06l-2.18-6.71-2.18 6.71h-7.06l5.71 4.15L82.22 61zM114.28 61l5.72-4.15 5.71 4.15-2.18-6.72 5.71-4.15h-7.06L120 43.42l-2.19 6.71h-7.06l5.72 4.15-2.19 6.72zM146.35 61l5.71-4.15 5.71 4.15-2.18-6.72 5.71-4.15h-7.06l-2.18-6.71-2.18 6.71h-7.06l5.71 4.15-2.18 6.72zM178.41 61l5.71-4.15 5.71 4.15-2.18-6.72 5.71-4.15h-7.06l-2.18-6.71-2.18 6.71h-7.06l5.71 4.15-2.18 6.72zM216.19 43.42L214 50.13h-7.06l5.72 4.15-2.19 6.72 5.72-4.15L221.9 61l-2.18-6.72 5.71-4.15h-7.06l-2.18-6.71zM43.37 86.16l5.71-4.15h-7.06l-2.18-6.71-2.18 6.71H30.6l5.71 4.15-2.18 6.72 5.71-4.15 5.71 4.15-2.18-6.72zM75.43 86.16l5.71-4.15h-7.06L71.9 75.3l-2.18 6.71h-7.06l5.71 4.15-2.18 6.72 5.71-4.15 5.71 4.15-2.18-6.72zM107.49 86.16l5.71-4.15h-7.06l-2.18-6.71-2.18 6.71h-7.06l5.71 4.15-2.18 6.72 5.71-4.15 5.71 4.15-2.18-6.72zM139.56 86.16l5.71-4.15h-7.06l-2.18-6.71-2.18 6.71h-7.06l5.71 4.15-2.18 6.72 5.71-4.15 5.71 4.15-2.18-6.72zM171.62 86.16l5.71-4.15h-7.06l-2.18-6.71-2.18 6.71h-7.06l5.71 4.15-2.18 6.72 5.71-4.15 5.71 4.15-2.18-6.72zM203.68 86.16l5.72-4.15h-7.06l-2.19-6.71-2.18 6.71h-7.06l5.71 4.15-2.18 6.72 5.71-4.15 5.72 4.15-2.19-6.72zM23.8 107.18l-2.18 6.72h-7.06l5.71 4.15-2.18 6.71 5.71-4.15 5.72 4.15-2.19-6.71 5.72-4.15h-7.06l-2.19-6.72zM55.87 107.18l-2.18 6.72h-7.06l5.71 4.15-2.18 6.71 5.71-4.15 5.71 4.15-2.18-6.71 5.71-4.15h-7.06l-2.18-6.72zM87.93 107.18l-2.18 6.72h-7.06l5.71 4.15-2.18 6.71 5.71-4.15 5.71 4.15-2.18-6.71 5.71-4.15h-7.06l-2.18-6.72zM120 107.18l-2.19 6.72h-7.06l5.72 4.15-2.19 6.71 5.72-4.15 5.71 4.15-2.18-6.71 5.71-4.15h-7.06l-2.18-6.72zM152.06 107.18l-2.18 6.72h-7.06l5.71 4.15-2.18 6.71 5.71-4.15 5.71 4.15-2.18-6.71 5.71-4.15h-7.06l-2.18-6.72zM184.12 107.18l-2.18 6.72h-7.06l5.71 4.15-2.18 6.71 5.71-4.15 5.71 4.15-2.18-6.71 5.71-4.15h-7.06l-2.18-6.72zM216.19 107.18L214 113.9h-7.06l5.72 4.15-2.19 6.71 5.72-4.15 5.71 4.15-2.18-6.71 5.71-4.15h-7.06l-2.18-6.72zM25.99 145.78l-2.19-6.72-2.18 6.72h-7.06l5.71 4.15-2.18 6.71 5.71-4.15 5.72 4.15-2.19-6.71 5.72-4.15h-7.06zM58.05 145.78l-2.18-6.72-2.18 6.72h-7.06l5.71 4.15-2.18 6.71 5.71-4.15 5.71 4.15-2.18-6.71 5.71-4.15h-7.06zM90.11 145.78l-2.18-6.72-2.18 6.72h-7.06l5.71 4.15-2.18 6.71 5.71-4.15 5.71 4.15-2.18-6.71 5.71-4.15h-7.06zM122.18 145.78l-2.18-6.72-2.19 6.72h-7.06l5.72 4.15-2.19 6.71 5.72-4.15 5.71 4.15-2.18-6.71 5.71-4.15h-7.06zM154.24 145.78l-2.18-6.72-2.18 6.72h-7.06l5.71 4.15-2.18 6.71 5.71-4.15 5.71 4.15-2.18-6.71 5.71-4.15h-7.06zM186.3 145.78l-2.18-6.72-2.18 6.72h-7.06l5.71 4.15-2.18 6.71 5.71-4.15 5.71 4.15-2.18-6.71 5.71-4.15h-7.06zM218.37 145.78l-2.18-6.72-2.19 6.72h-7.06l5.72 4.15-2.19 6.71 5.72-4.15 5.71 4.15-2.18-6.71 5.71-4.15h-7.06z"/></svg>