<svg xmlns="http://www.w3.org/2000/svg" width="900" height="600" viewBox="0 0 900 600"><title>blueArtboard 1</title><path d="M0,0H900V135.16H0Z" fill="#002868"/><path d="M.12,120h900V240H.12Z" fill="#e77021"/><path d="M0,0V443.83L900,421.3V240H354.91V0Z" fill="#bf0a30" fill-rule="evenodd"/><path d="M355,221.56H0V203.07H355Zm0-184.63H0V18.44H355Zm0,36.92H0V55.37H355Zm0,36.93H0V92.3H355Zm0,36.92H0V129.22H355Zm0,36.93H0V166.15H355Z" fill="#fff" fill-rule="evenodd"/><path d="M0,0V129.26H183.88V0Z" fill="#002868" fill-rule="evenodd"/><path d="M163.21,20.49l1.7-5.15,1.7,5.15h5.44l-4.42,3.17,1.7,5.14-4.42-3.17-4.42,3.17,1.7-5.14-4.42-3.17Zm-24.23,0,1.7-5.15,1.67,5.15h5.44l-4.39,3.17,1.67,5.14-4.39-3.17-4.42,3.17,1.66-5.14-4.38-3.17Zm-24.26,0,1.7-5.15,1.7,5.15h5.44l-4.42,3.17,1.7,5.14-4.42-3.17L112,28.8l1.7-5.14-4.42-3.17Zm-24.23,0,1.7-5.15,1.67,5.15H99.3l-4.39,3.17,1.67,5.14-4.39-3.17L87.77,28.8l1.66-5.14-4.38-3.17Zm-24.26,0,1.7-5.15,1.7,5.15h5.44l-4.42,3.17,1.7,5.14-4.42-3.17L63.51,28.8l1.7-5.14-4.43-3.17ZM42,20.49l1.7-5.15,1.7,5.15h5.45l-4.39,3.17,1.67,5.14-4.43-3.17L39.28,28.8l1.66-5.14-4.38-3.17Zm-24.19,0,1.67-5.15,1.7,5.15h5.44l-4.42,3.17,1.7,5.14-4.42-3.17L15,28.8l1.7-5.14-4.42-3.17ZM151.11,48.83l1.67-5.14,1.7,5.14h5.44L155.5,52l1.7,5.14L152.78,54l-4.39,3.18L150.06,52l-4.39-3.18Zm-24.26,0,1.7-5.14,1.66,5.14h5.48L131.27,52l1.67,5.14L128.55,54l-4.42,3.18,1.7-5.14-4.42-3.18Zm-24.23,0,1.67-5.14,1.7,5.14h5.44L107,52l1.7,5.14L104.29,54,99.9,57.15,101.57,52l-4.43-3.18Zm-24.26,0,1.7-5.14,1.66,5.14H87.2L82.78,52l1.66,5.14L80.06,54l-4.42,3.18L77.34,52l-4.42-3.18Zm-24.23,0,1.67-5.14,1.7,5.14h5.44L58.52,52l1.7,5.14L55.8,54l-4.39,3.18L53.07,52l-4.42-3.18Zm-24.26,0,1.7-5.14,1.66,5.14h5.48L34.29,52,36,57.15,31.57,54l-4.42,3.18L28.85,52l-4.42-3.18ZM163.21,77.22l1.7-5.14,1.7,5.14h5.44l-4.42,3.17,1.7,5.14-4.42-3.17-4.42,3.17,1.7-5.14-4.42-3.17Zm-24.23,0,1.7-5.14,1.67,5.14h5.44l-4.39,3.17,1.67,5.14-4.39-3.17-4.42,3.17,1.66-5.14-4.38-3.17Zm-24.26,0,1.7-5.14,1.7,5.14h5.44l-4.42,3.17,1.7,5.14-4.42-3.17L112,85.53l1.7-5.14-4.42-3.17Zm-24.23,0,1.7-5.14,1.67,5.14H99.3l-4.39,3.17,1.67,5.14-4.39-3.17-4.42,3.17,1.66-5.14-4.38-3.17Zm-24.26,0,1.7-5.14,1.7,5.14h5.44l-4.42,3.17,1.7,5.14-4.42-3.17-4.42,3.17,1.7-5.14-4.43-3.17ZM42,77.22l1.7-5.14,1.7,5.14h5.45l-4.39,3.17,1.67,5.14-4.43-3.17-4.38,3.17,1.66-5.14-4.38-3.17Zm-24.19,0,1.67-5.14,1.7,5.14h5.44l-4.42,3.17,1.7,5.14-4.42-3.17L15,85.53l1.7-5.14-4.42-3.17Zm145.44,28.34,1.7-5.14,1.7,5.14h5.44l-4.42,3.21,1.7,5.14-4.42-3.21-4.42,3.21,1.7-5.14-4.42-3.21Zm-24.23,0,1.7-5.14,1.67,5.14h5.44l-4.39,3.21,1.67,5.14-4.39-3.21-4.42,3.21,1.66-5.14-4.38-3.21Zm-24.26,0,1.7-5.14,1.7,5.14h5.44l-4.42,3.21,1.7,5.14-4.42-3.21L112,113.91l1.7-5.14-4.42-3.21Zm-24.23,0,1.7-5.14,1.67,5.14H99.3l-4.39,3.21,1.67,5.14-4.39-3.21-4.42,3.21,1.66-5.14-4.38-3.21Zm-24.26,0,1.7-5.14,1.7,5.14h5.44l-4.42,3.21,1.7,5.14-4.42-3.21-4.42,3.21,1.7-5.14-4.43-3.21Zm-24.27,0,1.7-5.14,1.7,5.14h5.45l-4.39,3.21,1.67,5.14-4.43-3.21-4.38,3.21,1.66-5.14-4.38-3.21Zm-24.19,0,1.67-5.14,1.7,5.14h5.44l-4.42,3.21,1.7,5.14-4.42-3.21L15,113.91l1.7-5.14-4.42-3.21Z" fill="#fff" fill-rule="evenodd"/><rect x="0.01" y="432.64" width="900.02" height="167.36" fill="#00bb4a"/><path d="M.12,360h900V480H.12Z" fill="#fff"/><path d="M470.6,220.12a8.38,8.38,0,0,0-.64,1.62,1.6,1.6,0,0,0,0,.31,10.91,10.91,0,0,0,.64-1.93Z" fill="#fff" opacity="0.6" style="isolation:isolate"/><path d="M395,140.6c23.7-8.39,39.76-3.18,56.69.83l.65,55.56L395,173.56Zm463.82,0c-23.66-8.39-39.72-3.18-56.65.83L801.5,197l57.29-23.43Z" fill="#fff"/><path d="M426.57,127c-12.89-.15-26.2,4.39-33.41,12.21-3.9,4.27-3.86,3.59-1.55,24.83l3.78,36.17c1.24,12.06,2.07,18.18,2.57,19.39,1,2.31,5.17,6,8.8,7.9,5.48,2.76,8.81,3.4,18.11,3.4,14.74.08,23.35-2.42,47.69-13.72,23.89-11.07,31.83-13.34,46.87-13.34,11.94,0,17.73,1.47,32.47,8.2,18.67,8.58,21.43,9.79,26.57,11.72a136.92,136.92,0,0,0,38.59,8.05c1.66.15,4.72.15,8.2.11,4.91.12,9.52.12,11.71,0a137.25,137.25,0,0,0,38.55-8.12c5.18-1.89,7.94-3.1,26.61-11.68,14.74-6.77,20.49-8.2,32.51-8.2,15,0,22.94,2.26,46.82,13.34,24.34,11.34,33,13.79,47.7,13.72,9.26,0,12.63-.65,18.14-3.4a22,22,0,0,0,8.73-7.94c.53-1.14,1.33-7.3,2.57-19.35,1-9.72,2.73-26,3.82-36.17,2.31-21.24,2.35-20.56-1.55-24.83-9.64-10.44-30.08-15-46-10.4-8.69,2.57-13,6.5-13,12.06,0,4.16,2.76,7.56,8.43,10.47,7.56,3.82,18.06,5.82,25.06,4.8,7.44-1.14,11.56-3.67,11.56-7.15a3.53,3.53,0,0,0-1.32-3c-1.82-1.81-4.84-2-12.25-.75-11,1.85-16.25,1.24-19.12-2.2-2.42-2.91-.61-3.78,8.35-4,12.85-.38,23.89,2.42,29.1,7.25,4.73,4.46,3.22,10.85-3.44,14.25a29.65,29.65,0,0,1-14.24,2.8c-10.36,0-13.5-1-33-10.85-16.1-8.12-22.53-10.92-30.77-13.3a103.26,103.26,0,0,0-35.6-4.16c-18.44.38-27.1,2.42-53.14,12.28-24.94,9.45-34.2,11.8-51.29,12.93l-2.49.15-4-.23c-17.08-1.13-26.34-3.47-51.28-12.92-26-9.87-34.7-11.87-53.14-12.29a103.34,103.34,0,0,0-35.61,4.16c-8.24,2.38-14.66,5.18-30.76,13.31-19.5,9.82-22.68,10.88-33,10.88a29.69,29.69,0,0,1-14.25-2.83c-6.65-3.41-8.2-9.83-3.44-14.25,5.18-4.84,16.26-7.6,29.11-7.26,8.95.23,10.77,1.1,8.31,4-2.83,3.4-8.05,4-19.12,2.19-7.37-1.21-10.4-1-12.21.76a3.53,3.53,0,0,0-1.32,3c0,3.48,4.12,6,11.56,7.14,7,1.06,17.46-1,25-4.8,5.67-2.87,8.43-6.31,8.43-10.47,0-5.52-4.23-9.48-12.93-12.05A47.11,47.11,0,0,0,426.57,127Z"/><path d="M516,139.65a105.27,105.27,0,0,0-14.64.61c-4,.56-7.93,1.27-11.82,2.22a123.54,123.54,0,0,0-23.72,8.91c-8.42,4-16.54,8.69-25.1,12.41a51,51,0,0,1-18.81,4.35,41.93,41.93,0,0,1-15-1.84,20.75,20.75,0,0,1-6.65-3.56,18.21,18.21,0,0,1-2.73-2.82,17.4,17.4,0,0,1-1-1.5c-.17-.26-.5-1.17-.83-1.28,0,0,.25,2.66.28,2.88.22,2,.44,4,.65,6q1.08,10.08,2.13,20.17.93,8.89,1.87,17.8l1.11,10.51c.09.91.12,1.86.29,2.76s1,1.38,1.59,2c7.7,8,20.68,7.81,30.86,6.34s19.51-5.27,28.74-9.39c11.47-5.12,22.73-11,34.86-14.44a72.72,72.72,0,0,1,29.1-2.64c10.69,1.4,20.61,5.69,30.33,10.16,8.28,3.8,16.49,7.82,25.13,10.76a136.32,136.32,0,0,0,21.71,5.45,103.08,103.08,0,0,0,11.49,1.32c3.05.15,6.09,0,9.14.08,4.68.07,9.38.21,14.05,0a96.32,96.32,0,0,0,11.49-1.38,142.94,142.94,0,0,0,36.88-11.7c7.45-3.47,14.85-7.16,22.54-10a78.16,78.16,0,0,1,17.65-4.6,65.22,65.22,0,0,1,16.1.11c9.78,1.2,19,4.33,28.06,8.17,11.9,5.06,23.36,11.27,35.69,15.26,9.58,3.1,20.35,4.88,30.33,3,5-.94,9.7-2.86,13.27-6.57.59-.61,1.32-1.05,1.41-1.91l.31-2.92L855,192.78q1.42-13.58,2.86-27.15c.2-1.86.4-3.73.61-5.59,0-.23.26-2.81.29-2.82-.39.09-.82,1.22-1,1.52a18.36,18.36,0,0,1-1.45,2,18.14,18.14,0,0,1-3.6,3.23,23.78,23.78,0,0,1-8.31,3.34,49.54,49.54,0,0,1-19.82.09c-9.17-1.79-17.56-6.59-25.77-10.81-11.24-5.76-22.63-11.39-35-14.26-2.68-.62-5.4-1.13-8.12-1.57a91.91,91.91,0,0,0-11.12-.89c-7.67-.26-15.58-.31-23.18.86-10.28,1.6-20.12,4.67-29.89,8.19-12.62,4.56-25.08,9.78-38.14,13a108.64,108.64,0,0,1-29.47,2.92,113.61,113.61,0,0,1-29.06-4.69c-13.33-4-26.12-9.46-39.28-13.87-9.16-3.07-18.81-5.73-28.49-6.32-3.68-.22-7.37-.27-11.06-.27Z" fill="#fff"/><path d="M467.27,205.19l-20.61,7.7-3,1.11-5.95-16-4.13-11.11-1.43-3.83c-.11-.28-.76-1.45-.65-1.75s.69-.29.85-.35l2.89-1.09,4.68-1.76,8.59,23.07,1.23,3.31,15.16-5.67ZM496.07,192l-20.5,8.23-2.93,1.18-9.78-24.38-2.37-5.88c-.12-.31-1-1.83-.83-2.14s.92-.37,1.09-.44l2.48-1,7.38-3,12.46-5,1.85,4.67c.09.23.75,1.42.65,1.64s-.67.27-.79.32L474,170.56,470.45,172l1,2.43.72,1.77c.12.29.25,1,.49,1.21s.4.05.82-.12l2.64-1.06,7.22-2.91c.56-.23,3-1.57,3.44-1.22.25.21.41,1,.53,1.33l.82,2,1.12,2.76L479.86,182,477.2,183a7.37,7.37,0,0,0-1.74.7c-.3.24-.22,0-.12.43a17.66,17.66,0,0,0,1,2.4l2.12,5.28,8.76-3.52,5.19-2.09c.19-.08.9-.51,1.11-.45s.35.69.44.92Zm28.61-29.94-10.35.36c-.77,0-.52.28-.5,1l.15,4.32.45,13.44.19,5.83.08,2.1a4.34,4.34,0,0,1,0,1.19c-.12.34.11.15-.34.25a17.36,17.36,0,0,1-3,.12l-5.67.21-.83-24.62-.12-3.54-7.58.27-2,.07c-.22,0-1,.16-1.18,0s-.17-2.11-.19-2.58l-.17-4.15,27-.92,3.81-.13ZM583,196.54a13.59,13.59,0,0,1-5.67,6.81,13,13,0,0,1-8.74,1c-5.81-1.12-13-4.59-15-10.63-1.34-4,.18-7.84,1.74-11.53l4.4-10.4,3.34-7.91L570.3,167c.19.08,1,.28,1.09.46s0,.11,0,.26a9.94,9.94,0,0,1-1,2.36l-7,16.49c-1.28,3-2.36,6.66.73,9,2,1.5,5.28,2.66,7.62,1.29a9,9,0,0,0,3.25-4.38c2.18-5.09,4.33-10.2,6.49-15.3l1.45-3.4c.08-.19.34-1.13.53-1.2s.85.37,1,.43l2.13.9,4.36,1.84.79.34L584.09,194ZM620.19,207c-1.25,7.38-9,9.71-15.57,9.14a33.36,33.36,0,0,1-11.36-3c-.9-.43-1.79-.89-2.65-1.38-.37-.2-1.24-.52-1.31-.91a7.6,7.6,0,0,1,.36-2.19l.53-3.25a9.3,9.3,0,0,1,.41-2.43c.14-.29-.09-.13.19-.22.63-.23,1.19.52,1.53.86a20.51,20.51,0,0,0,4.59,3.48c3.17,1.78,7.56,3.35,11.25,2.47,1.62-.39,3.11-1.71,2.55-3.55-.42-1.41-2-2.25-3.22-2.78-4.86-2-11.49-3.43-13.8-8.73a10.1,10.1,0,0,1,1.14-9.72c2.07-2.71,5.61-4.07,8.89-4.48a27.31,27.31,0,0,1,12,1.55,37.22,37.22,0,0,1,5.64,2.38c.31.18.93.4,1,.71a2.68,2.68,0,0,1-.14.83l-1,6.08c-.1.62.07,1-.62.86s-.85-.5-1.33-.95A19.23,19.23,0,0,0,617,190c-3.32-2.25-7.84-3.95-11.89-3-1.68.37-3.22,1.81-2.55,3.67.5,1.37,2.28,2,3.5,2.53,4.87,2.06,11.45,3.52,13.68,8.9A9.07,9.07,0,0,1,620.19,207Zm58.47-.56-4.34.94-3.09.67c-.32.07-1.3.47-1.62.35s-.56-.88-.71-1.12l-1.62-2.65a21.87,21.87,0,0,0-1.39-2.27c-.29-.35-.1-.26-.53-.23a33.63,33.63,0,0,0-4.91,1.07l-6,1.31c-.27.06-1.15.09-1.35.29s-.14.91-.17,1.17a57.06,57.06,0,0,1-.69,5.84c-.12.52-.08.42-.66.54l-2.93.63-5.3,1.13,2.16-15.45,2.82-20.18c0-.24,0-1,.17-1.19s1-.21,1.16-.25l2.55-.56,5.43-1.2c.66-.14.79-.35,1.17.08a15.63,15.63,0,0,1,1.31,2.06l2.3,3.59,6.22,9.74,9.83,15.41Zm-16.44-10.21L655.38,185l-1.51,13.15Zm48.11-5.14-12.78,5.67-7.93,3.52a10.56,10.56,0,0,1-2,.9c-.41.07-.12.17-.37-.13a7.07,7.07,0,0,1-.74-1.66l-1.27-2.87-3.66-8.25-7.2-16.23c-.21-.47-1.3-2.27-1.05-2.65s1-.45,1.24-.56l2-.91,4.09-1.83.73-.32,9.11,20.5,1.91,4.31c.33.73.2,1,.94.65l11.58-5.12c.74-.33,1.48-.67,2.22-1,.49-.21.41-.24.64.27ZM745,169.66a19.35,19.35,0,0,1-1.36,11.8,15.7,15.7,0,0,1-7.35,7.18c-6.82,3.27-16,3.24-21.6-2.29a18.6,18.6,0,0,1-4.94-9.61,20.9,20.9,0,0,1,.64-12.08c3-7.24,10.69-10.46,18.12-10.38a16.17,16.17,0,0,1,11.27,4.43A19.4,19.4,0,0,1,745,169.66Zm-10.35,10.62c2.21-3.71,1.62-8.82.22-12.73-1.46-4.08-4.91-7.21-9.48-6.47s-6.8,4.71-7,9c-.15,4.06.9,8.86,3.89,11.8A8,8,0,0,0,734.64,180.28ZM779.88,200l-7.54-2.65c-.58-.2-.59-.13-.73-.66-.2-.83-.37-1.66-.55-2.49l-4.27-19-1.24-5.51-6.87,19.78-1,2.85-3.42-1.19-2.62-.92c-.35-.12-1.35-.27-1.6-.56s0-.43.12-.79l.91-2.64,6.76-19.45,2.81-8.1a6.35,6.35,0,0,1,.65-1.85c.27-.29.84.1,1.28.25l4.89,1.69,2.36.81a7.42,7.42,0,0,1,1.48.52c.35.23.32.53.43,1l.83,3.51,2.49,10.54c.6,2.55,1.1,5.15,1.81,7.67,0,.13.07.27.1.41l5.75-16.52.82-2.38,4.08,1.42,2.63.92c.16.06,1,.23,1.08.38s-.43,1.23-.5,1.44L789.59,172l-7.65,22Zm32,14.59-20.67-7.8-3-1.12,4.16-11L799.14,177l1.52-4,11.61,4.41,8.08,3.07,2.78,1.05c.18.07,1,.25,1.11.42s-.24.66-.28.76l-.8,2.12-1.29,3.44-15.23-5.78-1.59,4.25c-.08.21-.62,1.21-.53,1.42s.69.25.8.3l10.08,3.77,3.26,1.22-2.39,6.35-14.13-5.37-3.06,8.09,15.23,5.74Z" fill="#002868"/></svg>