<svg xmlns="http://www.w3.org/2000/svg" width="600" height="315.79"><path fill="#bf0a30" d="M0 0h600v315.79H0z"/><path fill="#fff" d="M0 24.29h600v24.29H0zM0 72.87h600v24.29H0zM0 121.46h600v24.29H0zM0 170.04h600v24.29H0zM0 218.62h600v24.29H0zM0 267.21h600v24.29H0z"/><path fill="#002868" fill-rule="evenodd" d="M0 170.04h240.22V0H0v170.04z"/><path fill="#fff" fill-rule="evenodd" d="M217.95 13.86l2.2 6.76h7.11l-5.75 4.18 2.2 6.77-5.76-4.19-5.75 4.19 2.2-6.77-5.76-4.18h7.11l2.2-6.76zM189.93 13.86l2.2 6.76h7.11l-5.75 4.18 2.2 6.77-5.76-4.19-5.75 4.19 2.2-6.77-5.76-4.18h7.11l2.2-6.76zM161.91 13.86l2.2 6.76h7.11l-5.75 4.18 2.2 6.77-5.76-4.19-5.75 4.19 2.19-6.77-5.75-4.18h7.11l2.2-6.76zM133.89 13.86l2.2 6.76h7.11l-5.75 4.18 2.2 6.77-5.76-4.19-5.75 4.19 2.2-6.77-5.76-4.18h7.11l2.2-6.76zM105.87 13.86l2.2 6.76h7.11l-5.75 4.18 2.2 6.77-5.76-4.19-5.75 4.19 2.19-6.77-5.75-4.18h7.11l2.2-6.76zM77.85 13.86l2.2 6.76h7.11l-5.75 4.18 2.2 6.77-5.76-4.19-5.75 4.19 2.19-6.77-5.75-4.18h7.11l2.2-6.76zM49.83 13.86l2.2 6.76h7.11l-5.75 4.18 2.2 6.77-5.76-4.19-5.75 4.19 2.19-6.77-5.75-4.18h7.11l2.2-6.76zM217.95 107.32l2.2 6.76h7.11l-5.75 4.18 2.2 6.77-5.76-4.18-5.75 4.18 2.2-6.77-5.76-4.18h7.11l2.2-6.76zM189.93 107.32l2.2 6.76h7.11l-5.75 4.18 2.2 6.77-5.76-4.18-5.75 4.18 2.2-6.77-5.76-4.18h7.11l2.2-6.76zM161.91 107.32l2.2 6.76h7.11l-5.75 4.18 2.2 6.77-5.76-4.18-5.75 4.18 2.19-6.77-5.75-4.18h7.11l2.2-6.76zM133.89 107.32l2.2 6.76h7.11l-5.75 4.18 2.2 6.77-5.76-4.18-5.75 4.18 2.2-6.77-5.76-4.18h7.11l2.2-6.76zM105.87 107.32l2.2 6.76h7.11l-5.75 4.18 2.2 6.77-5.76-4.18-5.75 4.18 2.19-6.77-5.75-4.18h7.11l2.2-6.76zM77.85 107.32l2.2 6.76h7.11l-5.75 4.18 2.2 6.77-5.76-4.18-5.75 4.18 2.19-6.77-5.75-4.18h7.11l2.2-6.76zM49.83 107.32l2.2 6.76h7.11l-5.75 4.18 2.2 6.77-5.76-4.18-5.75 4.18 2.19-6.77-5.75-4.18h7.11l2.2-6.76zM21.81 107.32l2.2 6.76h7.11l-5.75 4.18 2.19 6.77-5.75-4.18-5.75 4.18 2.19-6.77-5.75-4.18h7.11l2.2-6.76zM217.95 76.16l2.2 6.77h7.11l-5.75 4.18 2.2 6.76-5.76-4.18-5.75 4.18 2.2-6.76-5.76-4.18h7.11l2.2-6.77zM189.93 76.16l2.2 6.77h7.11l-5.75 4.18 2.2 6.76-5.76-4.18-5.75 4.18 2.2-6.76-5.76-4.18h7.11l2.2-6.77zM161.91 76.16l2.2 6.77h7.11l-5.75 4.18 2.2 6.76-5.76-4.18-5.75 4.18 2.19-6.76-5.75-4.18h7.11l2.2-6.77zM133.89 76.16l2.2 6.77h7.11l-5.75 4.18 2.2 6.76-5.76-4.18-5.75 4.18 2.2-6.76-5.76-4.18h7.11l2.2-6.77zM105.87 76.16l2.2 6.77h7.11l-5.75 4.18 2.2 6.76-5.76-4.18-5.75 4.18 2.19-6.76-5.75-4.18h7.11l2.2-6.77zM77.85 76.16l2.2 6.77h7.11l-5.75 4.18 2.2 6.76-5.76-4.18-5.75 4.18 2.19-6.76-5.75-4.18h7.11l2.2-6.77zM49.83 76.16l2.2 6.77h7.11l-5.75 4.18 2.2 6.76-5.76-4.18-5.75 4.18 2.19-6.76-5.75-4.18h7.11l2.2-6.77zM217.95 45.01l2.2 6.76h7.11l-5.75 4.18 2.2 6.77-5.76-4.18-5.75 4.18 2.2-6.77-5.76-4.18h7.11l2.2-6.76zM189.93 45.01l2.2 6.76h7.11l-5.75 4.18 2.2 6.77-5.76-4.18-5.75 4.18 2.2-6.77-5.76-4.18h7.11l2.2-6.76zM161.91 45.01l2.2 6.76h7.11l-5.75 4.18 2.2 6.77-5.76-4.18-5.75 4.18 2.19-6.77-5.75-4.18h7.11l2.2-6.76zM133.89 45.01l2.2 6.76h7.11l-5.75 4.18 2.2 6.77-5.76-4.18-5.75 4.18 2.2-6.77-5.76-4.18h7.11l2.2-6.76zM105.87 45.01l2.2 6.76h7.11l-5.75 4.18 2.2 6.77-5.76-4.18-5.75 4.18 2.19-6.77-5.75-4.18h7.11l2.2-6.76zM77.85 45.01l2.2 6.76h7.11l-5.75 4.18 2.2 6.77-5.76-4.18-5.75 4.18 2.19-6.77-5.75-4.18h7.11l2.2-6.76zM49.83 45.01l2.2 6.76h7.11l-5.75 4.18 2.2 6.77-5.76-4.18-5.75 4.18 2.19-6.77-5.75-4.18h7.11l2.2-6.76zM21.81 45.01l2.2 6.76h7.11l-5.75 4.18 2.19 6.77-5.75-4.18-5.75 4.18 2.19-6.77-5.75-4.18h7.11l2.2-6.76zM217.95 138.47l2.2 6.77h7.11l-5.75 4.18 2.2 6.76-5.76-4.18-5.75 4.18 2.2-6.76-5.76-4.18h7.11l2.2-6.77zM189.93 138.47l2.2 6.77h7.11l-5.75 4.18 2.2 6.76-5.76-4.18-5.75 4.18 2.2-6.76-5.76-4.18h7.11l2.2-6.77zM161.91 138.47l2.2 6.77h7.11l-5.75 4.18 2.2 6.76-5.76-4.18-5.75 4.18 2.19-6.76-5.75-4.18h7.11l2.2-6.77zM133.89 138.47l2.2 6.77h7.11l-5.75 4.18 2.2 6.76-5.76-4.18-5.75 4.18 2.2-6.76-5.76-4.18h7.11l2.2-6.77zM105.87 138.47l2.2 6.77h7.11l-5.75 4.18 2.2 6.76-5.76-4.18-5.75 4.18 2.19-6.76-5.75-4.18h7.11l2.2-6.77zM77.85 138.47l2.2 6.77h7.11l-5.75 4.18 2.2 6.76-5.76-4.18-5.75 4.18 2.19-6.76-5.75-4.18h7.11l2.2-6.77zM49.83 138.47l2.2 6.77h7.11l-5.75 4.18 2.2 6.76-5.76-4.18-5.75 4.18 2.19-6.76-5.75-4.18h7.11l2.2-6.77z"/></svg>