<svg xmlns="http://www.w3.org/2000/svg" width="300" height="300" viewBox="0 0 300 300"><title>flag-west-virginia-icon-motto</title><path d="M1.5,168.5l7.18-11.9-7-11.37a70.24,70.24,0,0,1,10.14.63c6.08.8,18.83,3.41,18.83,3.41s-8.83-6.28-8.47-10.83,2.71-9.17,1.42-17.25c0,0,5.33-6.23,22.66-2.29S75,128.53,89.93,137.57c0,0,4.37-4.68,5.72-9.27s4.29-7.22,9.92-5.41,20.53,8.38,32.86,14.54,29.87,15.12,29.87,15.12,1.94-2.1,1.19-9.13,4.79-7.75,11.84-8.49,33.81-1.68,44.87-3.59,19.47-7.24,26-9.49,15.5-5.11,16.79,3,2.26,7,2.26,7,9.35-6.88,23.15-2.84l-7.86,6.35s6.3,6.86,9.49,11.31c0,0-9.65-1.68-22.05,5.81s-29.21,17.2-26.38-3.1c0,0-27.5,9-32.52,9.72s-10.67,1.35-10.67,1.35-5.67,8.82-7.51,13.94-3.18,10.2-9.79,9.43-37.19-8.3-52.77-19.87c-7.3,8.3-3.72,23.87-13,18.63s-45.86-25.21-51.58-29a65.5,65.5,0,0,0-11.81-6.18s2.79,8,.94,13.14-.08,12.14-4.61,12.81c-6.85,1-17.09-.17-29.39-2.52C13.64,168.59,11.06,167.16,1.5,168.5Z" fill="none" stroke="#000" stroke-width="1.4"/><path d="M22.27,140.44c9.53-2.31,18.18-.6,35.64,6.86" fill="none" stroke="#000" stroke-width="1.4"/><path d="M30.68,149.27s24.43,6.42,26.66-2.21" fill="none" stroke="#000" stroke-width="1.4"/><path d="M134.31,163.88s-21.15-12.44-33-19.6-11.36-6.71-11.36-6.71" fill="none" stroke="#000" stroke-width="1.4"/><path d="M168.3,152.55s23.81,15.37,34.71,8.89c4-2.17,2.8-6.65-7.85-7.8s-24.93-5.47-25.67-12.54" fill="none" stroke="#000" stroke-width="1.4"/><path d="M247.57,149.31s12-5.52,18.46-7.74,15.12-1,5.69,3.85-13.88,7.55-16.85,9.69-6.37,5.76-2.32,6.16" fill="none" stroke="#000" stroke-width="1.4"/><path d="M275.59,141.27a76.71,76.71,0,0,1-5.08-10.09" fill="none" stroke="#000" stroke-width="1.4"/><path d="M46.28,137.43l-2.5-.49,2.09-10.71h0l-4.48,10.23L38.72,136l-.23-11.16h-.05L36.35,135.5,33.87,135l2.48-12.81,3.92.77.34,10.54,0,0,4.25-9.64,3.89.75-2.52,12.83"/><path d="M77.56,137.51l2.22,1.29-6.53,11.3-2.37-1.37,0-10.7,0,0-4.65,8.07L64,144.78l6.52-11.32L73,134.89l0,10.47,0,0,4.54-7.88"/><path d="M82.08,155.12l-2.37-1.34L85,144.4l-3.43-2,1.13-2,9.25,5.22-1.13,2-3.44-2-5.28,9.39"/><path d="M113.47,157.76l2.22,1.24-6.36,11.37-2.39-1.3-.09-10.74h0l-4.54,8.13-2.21-1.25,6.36-11.4,2.5,1.39.1,10.46,0,0,4.42-7.93"/><path d="M106.31,138.63c-.31.64-.64,2,1.47,3.12,1.12.6,2.56,1,3.19-.21.48-.9-.26-1.6-1.32-2.53l-1.09-.95c-1.65-1.41-3.23-2.78-1.89-5.32.69-1.29,2.56-3.2,6.31-1.22,3.55,1.86,3.28,4.68,2.55,6.08l-2.32-1.21c.22-.53.64-1.84-1.45-3-.91-.47-2.19-.71-2.74.33a1.39,1.39,0,0,0,.59,1.84l2.46,2.18c1.37,1.2,2.46,2.61,1.39,4.68-1.83,3.47-5.53,1.94-6.55,1.4-4.22-2.23-3.67-5-2.91-6.46l2.31,1.21"/><path d="M129.36,143.55l-6.05-3.38L122,142.58l5.57,3.09-1.13,2-5.55-3.1-1.63,3,6.32,3.51-1.11,2-8.67-4.82,6.35-11.42,8.39,4.67-1.13,2"/><path d="M140,161.41l-2.25-1.18,5.07-9.65,0,0-7.23,8.55-2.37-1.23,3-10.79h0l-5,9.66-2.26-1.18L134.85,144l3.53,1.85L135.7,156l0,0,6.84-8,3.49,1.81L140,161.41"/><path d="M172.18,163.78l-6.39-2.68-1.07,2.52,5.88,2.48-.9,2.13-5.87-2.47-1.31,3.11,6.68,2.81-.9,2.13L159.18,170l5-12,8.86,3.7-.9,2.14"/><path d="M200.22,149.94l6.47-.41.15,2.35-9.19.61-.88-13,2.73-.17.72,10.64"/><path d="M213.17,151.38l-2.72.23-1-13,2.71-.23,1,13"/><path d="M240.55,136.36,233.81,138l.64,2.64,6.18-1.47.54,2.27L235,142.91l.78,3.28,7-1.7.54,2.27-9.63,2.3-3-12.69,9.33-2.24.54,2.23"/><path d="M264.31,137.29l-2.59.87-4.13-12.37,2.59-.86,4.13,12.36"/><path d="M60.15,128.24c-1.6-.64-6.11-1.62-8.39,4S53.42,140.35,55,141s6.1,1.67,8.39-4S61.74,128.87,60.15,128.24Zm.73,7.72c-1.37,3.37-3.62,3.47-5,2.9s-3-2.17-1.6-5.55,3.62-3.47,5-2.9S62.23,132.55,60.88,136Z"/><path d="M96.66,148.33l-10.44,9.1,2.51,1.4L90.84,157l4.21,2.31-.59,2.78L97,163.48l2.37-13.64ZM95.47,157l-2.9-1.63,4-3.69,0,0Z"/><path d="M156.16,154.41,150.72,152l-5.36,11.93,2.49,1.07,1.93-4.27,2.86,1.29a4,4,0,0,0,5.49-2.08C159.19,157.53,158.46,155.42,156.16,154.41Zm-.46,4.23a1.78,1.78,0,0,1-2.69,1l-2.3-1.07,1.56-3.46,2,.85C155.8,156.7,156.22,157.49,155.7,158.64Z"/><path d="M228.08,146a3,3,0,0,0-2.35-2.9,2.61,2.61,0,0,0,1.29-2.83c-.16-1.35-1.19-3.26-4.37-2.87l-6.31.7,1.46,13,5.5-.63c2.66-.3,3.32-.84,4-1.63A3.67,3.67,0,0,0,228.08,146Zm-8.88-6,3.11-.36c1.22-.12,2,.13,2.14,1.19s-.69,1.51-1.75,1.64l-3.18.36Zm4.28,8.12-3.32.38-.39-3.48,3.46-.38c1-.13,2,.2,2.12,1.34C225.49,147.33,224.81,148,223.48,148.13Z"/><path d="M258.34,139.2c-.62,0-.82-.37-1.64-2.1-1-2.2-1.74-2.32-2.92-2.3a3.07,3.07,0,0,0,.5-3.66c-.47-1-2.16-3.07-5.29-1.6l-6,2.84,5.59,11.8,2.42-1.13-2.19-4.62,2.55-1.2c1.82-.87,2.22-.3,3,1.3a9.53,9.53,0,0,0,1.39,2.27l2.73-1.3Zm-7.56-4.14h0l-2.87,1.37-1.51-3.12,3.09-1.47a1.63,1.63,0,0,1,2.45.74C252.48,133.72,252.07,134.49,250.78,135.06Z"/><path d="M115.4,173.75,113,172.44l6.35-11.4,2.38,1.34-6.34,11.37"/><path d="M183.91,165.88l-6.18-2.33-4.57,12.24,2.5.93,1.79-4.78,2.63,1c1.89.7,1.76,1.4,1.13,3.07a9.13,9.13,0,0,0-.66,2.57l2.84,1.07.12-.33c-.48-.41-.31-.87.37-2.64.85-2.27.44-2.85-.39-3.68a3.13,3.13,0,0,0,3-2.19C186.85,169.73,187.16,167.09,183.91,165.88Zm-.09,4.21c-.46,1.21-1.28,1.42-2.61.92l-3-1.11,1.22-3.28,3.19,1.21A1.64,1.64,0,0,1,183.82,170.09Z"/></svg>