<svg xmlns="http://www.w3.org/2000/svg" width="600" height="315.79"><path fill="#bf0a30" d="M0 0h600v315.79H0z"/><path fill="#fff" d="M0 24.29h600v24.29H0zM0 72.87h600v24.29H0zM0 121.46h600v24.29H0zM0 170.04h600v24.29H0zM0 218.62h600v24.29H0zM0 267.21h600v24.29H0z"/><path fill="#002664" d="M0 0h239.79v169.89H0z"/><path fill="#fff" d="M101.43 78.94l11.41 8.3-4.36 13.41 11.41-8.29 11.42 8.29-4.36-13.41 11.41-8.3h-14.11l-4.36-13.41-4.36 13.41h-14.1zM122.07 126.78h7.06l-5.71-4.15 2.18-6.71-5.71 4.15-5.7-4.15 2.18 6.71-5.71 4.15h7.05l2.18 6.7 2.18-6.7zM121.76 53.5l6.53-2.66 4.55 5.39-.51-7.03 6.53-2.66-6.85-1.69-.51-7.04-3.72 6-6.85-1.69 4.55 5.39-3.72 5.99zM143.18 58.65l1.52 6.89 2.82-6.47 7.02.68-5.28-4.68 2.81-6.46-6.07 3.57-5.28-4.67 1.52 6.88-6.08 3.58 7.02.68zM158.23 68.07l-2.5-6.59-1.85 6.8-7.05.34 5.9 3.87-1.85 6.8 5.5-4.41 5.9 3.86-2.5-6.59 5.5-4.42-7.05.34zM161.16 92.15l6.92-1.36-6.4-2.97.85-7-4.8 5.16-6.4-2.97 3.43 6.17-4.8 5.16 6.92-1.35 3.43 6.16.85-7zM149.08 116.3l4-5.8 6.76 2.01-4.28-5.6 4.01-5.8-6.66 2.34-4.28-5.61.17 7.05-6.65 2.34 6.76 2.02.17 7.05zM147.51 117.69l-6.98-1.02-1.19-6.95-3.12 6.32-6.98-1.02 5.05 4.93-3.13 6.32 6.25-3.27 5.05 4.92-1.19-6.95 6.24-3.28zM127.62 13.61l-3.2 6.29 6.28-3.21 4.99 4.99-1.1-6.97 6.28-3.2-6.97-1.1-1.1-6.97-3.2 6.29-6.97-1.11 4.99 4.99zM151.26 23.38l3.21 6.28 1.1-6.97 6.97-1.1-6.29-3.2 1.1-6.97-4.98 4.99-6.29-3.2 3.2 6.28-4.98 4.99 6.96-1.1zM168.07 31.78l-6.28 3.2 6.96 1.1 1.11 6.97 3.2-6.29 6.97 1.11-4.99-4.99 3.2-6.28-6.28 3.2-4.99-4.99 1.1 6.97zM182.14 49.27l-6.96 1.1 6.28 3.2-1.1 6.97 4.99-4.99 6.28 3.2-3.2-6.28 4.99-4.99-6.97 1.11-3.2-6.29-1.11 6.97zM193.32 63.97l-3.2 6.28-6.96-1.1 4.98 4.98-3.2 6.29 6.28-3.2 4.99 4.98-1.1-6.96 6.28-3.2-6.96-1.11-1.11-6.96zM195.11 94.65l1.1-6.97-4.99 4.99-6.28-3.2 3.2 6.28-4.98 4.99 6.96-1.1 3.2 6.28 1.11-6.96 6.96-1.11-6.28-3.2zM188.43 117.42l3.2-6.29-6.28 3.21-4.99-4.99 1.1 6.96-6.28 3.21 6.96 1.1 1.11 6.97 3.2-6.29 6.97 1.11-4.99-4.99zM173.06 133.12l-3.2-6.28-1.11 6.97-6.96 1.1 6.28 3.2-1.1 6.97 4.99-4.99 6.28 3.2-3.2-6.28 4.99-4.99-6.97 1.1zM155.57 147.2l-1.1-6.97-3.21 6.28-6.96-1.1 4.98 4.99-3.2 6.28 6.29-3.2 4.98 4.99-1.1-6.97 6.29-3.2-6.97-1.1zM134.59 155.17l1.1-6.96-4.99 4.98-6.28-3.2 3.2 6.29-4.99 4.98 6.97-1.1 3.2 6.28 1.1-6.96 6.97-1.1-6.28-3.21zM229.24 8.38l-6.75 2.06-4.05-5.77-.12 7.05-6.74 2.06 6.67 2.3-.13 7.05 4.25-5.63 6.67 2.29-4.05-5.78 4.25-5.63zM223 154.48l4.05-5.77-6.67 2.29-4.25-5.63.13 7.05-6.67 2.3 6.74 2.06.13 7.05 4.04-5.78 6.75 2.07-4.25-5.64zM112 43.81l-3.72-6-.51 7.04-6.85 1.69 6.53 2.66-.51 7.03 4.55-5.39 6.53 2.66-3.72-5.99 4.55-5.39-6.85 1.69zM97.55 54.39l1.52-6.88-5.28 4.67-6.08-3.57 2.82 6.46-5.28 4.68 7.02-.68 2.81 6.47 1.53-6.89 7.02-.68-6.08-3.58zM85.91 68.28l-1.86-6.8-2.5 6.59-7.04-.34 5.5 4.42-2.51 6.59 5.91-3.86 5.5 4.41-1.86-6.8 5.9-3.87-7.04-.34zM78.63 92.15l.85 7 3.43-6.16 6.92 1.35-4.8-5.16 3.42-6.17-6.39 2.97-4.81-5.16.85 7-6.39 2.97 6.92 1.36zM86.7 110.5l4.01 5.8.17-7.05 6.76-2.02-6.66-2.34.18-7.05-4.29 5.61-6.65-2.34 4.01 5.8-4.29 5.6 6.76-2.01zM102.38 123l6.24 3.27-3.12-6.32 5.05-4.93-6.98 1.02-3.13-6.32-1.19 6.95-6.98 1.02 6.25 3.28-1.19 6.95 5.05-4.92zM105.2 14.71l-1.11 6.97 4.99-4.99 6.29 3.21-3.2-6.29 4.98-4.99-6.96 1.11-3.21-6.29-1.1 6.97-6.97 1.1 6.29 3.2zM84.22 22.69l1.1 6.97 3.2-6.28 6.97 1.1-4.99-4.99 3.2-6.28-6.28 3.2-4.99-4.99 1.1 6.97-6.28 3.2 6.97 1.1zM66.72 36.76l3.21 6.29 1.1-6.97 6.97-1.1-6.29-3.2 1.11-6.97-4.99 4.99-6.29-3.2 3.21 6.28-4.99 4.99 6.96-1.11zM51.36 52.47l-3.21 6.28 6.29-3.2 4.99 4.99-1.11-6.97 6.29-3.2-6.97-1.1-1.1-6.97-3.2 6.29-6.97-1.11 4.99 4.99zM44.68 75.24l-1.11 6.96 4.99-4.98 6.28 3.2-3.2-6.29 4.99-4.98-6.97 1.1-3.2-6.28-1.1 6.96-6.97 1.11 6.29 3.2zM46.46 105.92l3.2-6.28 6.97 1.1-4.99-4.99 3.2-6.28-6.28 3.2-4.99-4.99 1.11 6.97-6.29 3.2 6.97 1.11 1.1 6.96zM57.64 120.62l6.97-1.1-6.29-3.21 1.11-6.96-4.99 4.99-6.28-3.21 3.2 6.29-4.99 4.99 6.97-1.11 3.2 6.29 1.1-6.97zM71.71 138.11l6.29-3.2-6.97-1.1-1.1-6.97-3.21 6.28-6.96-1.1 4.99 4.99-3.21 6.28 6.29-3.2 4.99 4.99-1.11-6.97zM88.52 146.51l-3.2-6.28-1.1 6.97-6.97 1.1 6.28 3.2-1.1 6.97 4.99-4.99 6.28 3.2-3.2-6.28 4.99-4.99-6.97 1.1zM112.17 156.28l3.2-6.29-6.29 3.2-4.99-4.98 1.11 6.96-6.29 3.21 6.97 1.1 1.1 6.96 3.21-6.28 6.96 1.1-4.98-4.98zM17.42 17.5l4.24 5.63-.12-7.05 6.67-2.3-6.75-2.06-.12-7.05-4.05 5.77-6.74-2.06 4.24 5.63-4.04 5.78 6.67-2.29zM23.53 152.42l.12-7.05-4.24 5.63-6.67-2.29 4.04 5.77-4.24 5.64 6.74-2.07 4.05 5.78.12-7.05 6.75-2.06-6.67-2.3z"/></svg>