<svg xmlns="http://www.w3.org/2000/svg" width="274" height="300" viewBox="0 0 274 300"><title>flag-american-samoa-icon-uatogi</title><path d="M155.22,160.06a34.63,34.63,0,0,0-4.87,1.34s-3.21,1.18-1.11,2.22S157.25,159.74,155.22,160.06Z"/><path d="M154.94,145.34c-2.74.63-.58,3.35-.58,3.35.55.93,4.46,6.92,4,3.94S157.68,144.72,154.94,145.34Z"/><path d="M154.69,156.9c-2.15.16-.15.86.28,1.12s1.45,1,2-.17S154.69,156.9,154.69,156.9Z"/><path d="M98.9,155.67s.06,8.9,5.11,11.58l9.07-.46a9.26,9.26,0,0,0,4.43-7.34l24.89,0s.33,13.76,11.74,6.83c12.77-7.77,13.68-7.39,15.47-8.17h0c.6-.31,1.18-.65,1.77-1a10.64,10.64,0,0,1-1.59-4,23.76,23.76,0,0,1,.14-5.9,6.89,6.89,0,0,0-1.8-.85s0,0,0,0a46.3,46.3,0,0,1-12.33-6c-6.21-4.4-9.6-5.43-12.86,3.47l-25.55-.57s.25-7.15-7-7.7l-5.73-.31s-5,1.84-5.79,9.36c0,0-19.55-.32-40.33-12.78,0,0-19.91,10.48-57.58,14.58,0,0,24.29,3.6,55.3,19.48C56.29,165.87,71.52,156.08,98.9,155.67Zm70.1-.18c.27,1.74-2,2.54-2,2.54a78,78,0,0,0-11.22,6c-11.22,8-11.68-3.44-11.68-3.44,5.9-1.41,5.9-1.91,4.93-2.38l9.11-2.88c1.29,1.48,3.32,3.68,6,1.29,3.27-2.93-.27-1.53-1.08-1s-1.29,1.09-2.92-.9c-.14-.16,3.57-1.27,3.57-1.27a10.72,10.72,0,0,0,3.12.4C169.18,153.46,169,155.49,169,155.49ZM145.9,140.8c2.79-3.75,3.37-3,8.13,0A125.87,125.87,0,0,0,166,147.44c1,.37,2.39.74,2.39,3.39s.49,3.44-3.62.12a15.49,15.49,0,0,0-3.92-2.7c-3.69-1.17.88.83,2.2,2.7,1.11,1.59,2,1.42-.91,2.15s-12.82,4.06-18.17,6C143.92,159.13,143.1,144.55,145.9,140.8Zm-41.56,24.92s-3.12-3.2-3.45-6.89c0,0-.09-1,3.08-.87s3.58-.3,4.36,1.54a36.43,36.43,0,0,0,3.24,6Zm5.72-5.74,1.22-2.1c1,2.66,2.31.7,2.31.7l2.75.06C113.68,170.36,110.71,162,110.06,160Zm10.27-15.55a44.94,44.94,0,0,0-.21,10.52h.74a39.12,39.12,0,0,1,.13-10.52h3.82a35.32,35.32,0,0,0-.08,10.52h.78a34.26,34.26,0,0,1,0-10.52h3.82a44.37,44.37,0,0,0,0,10.46l.83,0a48.68,48.68,0,0,1,0-10.48h3.46a59.68,59.68,0,0,0-.09,10.55h.66a66.35,66.35,0,0,1,.12-10.55h3.5a57.61,57.61,0,0,0,0,10.5h.7a60.79,60.79,0,0,1,0-10.49h4.23a124.38,124.38,0,0,0-.08,13.6l-29.8-.56c-1.77-5-.37-13-.37-13H116a45.85,45.85,0,0,0-.16,10.52h.78a35.93,35.93,0,0,1,.16-10.52Zm-4-.83-3.21-.06c-.61-1.17-2.17-2-2.38,7.38a40.25,40.25,0,0,0,.33,6.26l-1.22,2.1a26.38,26.38,0,0,1-.79-5.25c-.33-4.8-.53-8.76,2.18-14.83S116.34,143.6,116.34,143.6Zm-11.1-7.35a47.69,47.69,0,0,1,6.33.52s-5.09,6.06-3.74,18.09c0,0,.54,1.94-3.78,1.94s-4.11-2.22-4.11-2.22C98.79,137.75,105.24,136.25,105.24,136.25ZM28.61,152.66c-3.7-1.79-20.16-6-20.16-6,32.92-4.68,50.14-13.16,50.14-13.15,19.24,11.69,40.2,12.3,40.2,12.3-.2,2-.26,4.66-.26,4.66-29.84-2.46-39.12,5.49-39.12,5.49A93.6,93.6,0,0,0,22,147.75C29.49,149.9,28.61,152.66,28.61,152.66Zm30.89,4.66c6.53-4.34,17.38-5.54,17.38-5.54,13.44-.09,19.61,3.23,19.61,3.23-2.59-.32-9,.32-15.23,1.29S77.89,158,72.2,157s-15.85,7.57-15.85,7.57c-8.32-4.9-22.44-10-22.44-10C46.92,150.3,59.5,157.32,59.5,157.32Z"/><path d="M266.82,150.46l-55.46-1.54s-1.56-.08-2.86-.07c-2.05,0-39.07-.61-39.49-.68,0,.35,0,.7,0,1l96.64,2.15c-2.53,2.14-2.53,5.84-2.53,6.13l-93.35-3c0,.17,0,.35,0,.53l37.7,1.4h0l21.55.62h0l34.16,1a5.7,5.7,0,0,0,1.2,2.71s-26.1-.6-50.93-1.74c-22.33-1-43.64-2.59-44-2.6,0,.32,0,.65,0,1,3-.05,45.44,2.57,45.92,2.72l50.89,1.21s4.19-.24,4.11-5.35S267.48,150.53,266.82,150.46Zm-1.5,9.63a4.64,4.64,0,0,1-1.13-3.63s.25-3.33,2.1-4.44c1-.61,2.36-.25,2.94,2.44C270.07,158.28,266.82,161.54,265.32,160.09Z"/></svg>