<svg xmlns="http://www.w3.org/2000/svg" width="600" height="315.79"><path fill="#bf0a30" d="M0 0h600v315.79H0z"/><path fill="#fff" d="M0 24.29h600v24.29H0zM0 72.87h600v24.29H0zM0 121.46h600v24.29H0zM0 170.04h600v24.29H0zM0 218.62h600v24.29H0zM0 267.21h600v24.29H0z"/><path d="M240.22 170V0H0v170z" fill="#002868" fill-rule="evenodd"/><path d="M205.86 101.59H213l2.2-6.76 2.2 6.76h7.11l-5.75 4.18 2.2 6.77-5.76-4.18-5.75 4.18 2.2-6.77zM174.22 101.59h7.12l2.2-6.76 2.19 6.76h7.11l-5.75 4.18 2.2 6.77-5.75-4.18-5.76 4.18 2.2-6.77zM142.59 101.59h7.11l2.2-6.76 2.19 6.76h7.12l-5.76 4.18 2.2 6.77-5.75-4.18-5.76 4.18 2.2-6.77zM111 101.59h7.11l2.2-6.76 2.2 6.76h7.11l-5.75 4.18 2.19 6.77-5.75-4.18-5.75 4.18 2.19-6.77zM79.31 101.59h7.11l2.2-6.76 2.2 6.76h7.11l-5.75 4.18 2.2 6.77-5.76-4.18-5.75 4.18 2.2-6.77zM47.67 101.59h7.12L57 94.83l2.2 6.76h7.11l-5.75 4.18 2.2 6.77-5.76-4.18-5.75 4.18 2.2-6.77zM16 101.59h7.11l2.2-6.76 2.19 6.76h7.12l-5.76 4.18 2.2 6.77-5.75-4.18-5.76 4.18 2.2-6.77zM205.86 138.92H213l2.2-6.76 2.2 6.76h7.11l-5.75 4.18 2.2 6.77-5.76-4.18-5.75 4.18 2.2-6.77zM174.22 138.92h7.12l2.2-6.76 2.19 6.76h7.11l-5.75 4.18 2.2 6.77-5.75-4.18-5.76 4.18 2.2-6.77zM142.59 138.92h7.11l2.2-6.76 2.19 6.76h7.12l-5.76 4.18 2.2 6.77-5.75-4.18-5.76 4.18 2.2-6.77zM111 138.92h7.11l2.2-6.76 2.2 6.76h7.11l-5.75 4.18 2.19 6.77-5.75-4.18-5.75 4.18 2.19-6.77zM79.31 138.92h7.11l2.2-6.76 2.2 6.76h7.11l-5.75 4.18 2.2 6.77-5.76-4.18-5.75 4.18 2.2-6.77zM47.67 138.92h7.12l2.21-6.76 2.2 6.76h7.11l-5.75 4.18 2.2 6.77-5.76-4.18-5.75 4.18 2.2-6.77zM16 138.92h7.11l2.2-6.76 2.19 6.76h7.12l-5.72 4.18 2.2 6.77-5.75-4.18-5.76 4.18 2.2-6.77zM190 64.26h7.12l2.19-6.76 2.2 6.76h7.11l-5.75 4.19 2.2 6.76-5.72-4.21-5.75 4.18 2.2-6.76zM150.5 64.26h7.11l2.2-6.76 2.19 6.76h7.12l-5.76 4.19 2.2 6.76-5.75-4.21-5.76 4.18 2.2-6.76zM111 64.26h7.11l2.2-6.76 2.2 6.76h7.11l-5.75 4.19 2.13 6.76-5.74-4.21-5.75 4.18 2.19-6.76zM71.4 64.26h7.11l2.2-6.76 2.2 6.76H90l-5.75 4.19 2.2 6.76L80.71 71 75 75.21l2.2-6.76zM31.86 64.26H39l2.2-6.76 2.19 6.76h7.12l-5.76 4.19 2.2 6.76L41.17 71l-5.76 4.18 2.2-6.76zM201.12 26.94h7.12l2.2-6.77 2.19 6.77h7.12L214 31.12l2.2 6.76-5.75-4.18-5.76 4.18 2.2-6.76zM165.05 26.94h7.12l2.19-6.77 2.2 6.77h7.12l-5.76 4.18 2.2 6.76-5.76-4.18-5.75 4.18 2.2-6.76zM129 26.94h7.12l2.2-6.77 2.19 6.77h7.12l-5.76 4.18 2.2 6.76-5.77-4.18-5.76 4.18 2.2-6.76zM92.91 26.94H100l2.19-6.77 2.2 6.77h7.11l-5.75 4.18 2.2 6.76-5.76-4.18-5.75 4.18 2.2-6.76zM56.84 26.94H64l2.19-6.77 2.2 6.77h7.11l-5.75 4.18 2.2 6.76-5.8-4.18-5.75 4.18 2.2-6.76zM20.77 26.94h7.12l2.19-6.77 2.2 6.77h7.11l-5.75 4.18 2.2 6.76-5.76-4.18-5.75 4.18 2.2-6.76z" fill="#fff" fill-rule="evenodd"/></svg>