<svg xmlns="http://www.w3.org/2000/svg" width="300" height="300"><path d="M38.24 139.59v1.12c-.37.2-.37 0-.56-.36.19 0-.19-1.12.56-.76zM36.16 137c.38-.19.76.94.19 1.3a.72.72 0 00-.57-.18zM30.46 144.08c-.38.19-.58.55-.94.39l-.2-.39c.2-.17 0-.56.56-.56.2 0 .78 0 .58.56zM74.52 138.28v-.74h.57c.38.36-.19.56-.57.74zM65.41 138.46h-.76v-.92c.38 0 .76.19.76.36zM12.23 185l.38-.56a.72.72 0 01.19.56c-.19 0-.57.2-.57 0zM13 187.43h-.38v-.74l.38.18c-.2 0 0 .38 0 .56zM36.35 181.1l.19-.38.19.18-.38.2zM37.86 184.84c-.37 0-.37-.4-.56-.57l.56-.75zM176.31 229.87c.38-.19.19.2.38.36l-.38.39c-.38 0-.38-.55 0-.75zM154.09 224.27q.28 0 0 .54l-.38.38c-.56-.19.2-.72.38-.92zM145.54 236.42c0 .18-.56.56-.75.74 0-.18-.2-.18-.38-.18.59-.18.38-.93 1.13-.56zM142.69 230.43c.2-.2.38-.36.58-.2.38.56-.38.56-.38.76-.38-.2-.2-.37-.2-.56zM141 232.49c0 .17.18.17.37.37.19 0-.37.19-.57.19zM126 231.18c.19 0 .38.2.19.36h-.38zM124.28 234.19c.57 0 .57.55.57.92l-.19.38a.92.92 0 01-.38-1.3zM98.64 232.3c0-.2-.19-.2-.37-.2v-.56H99c.21.4-.17.56-.36.76zM89.15 226.14c.56-.19.18.56.38.76 0 .36-.38.72-.76.36-.58-.36.38-.76.38-1.12zM88.39 229.51H89v.72c-.43 0-1-.36-.61-.72zM83.83 231.18l-.19-.39h.38l-.19.39zM81.35 228.2a.66.66 0 011 .56v.36c-.2.19-.58-.19-1-.36zM79.84 232.1c.19.2.38.2.38.56-.19 0-.38.2-.57.2zM71.86 226.34c.19.16 0 .56-.38.72-.38 0 .2-.72.38-.72zM61.22 226.9l-.37-.56c.57-.75.15.36.37.56zM185.16 190.28c.19-.27.08-.82.08-1h.56c.29.59-.26.84-.64 1zM195.5 177.9l-.2-.75c.2 0 .38.2.58.38.18.37-.2.18-.38.37zM263.48 151.92a2 2 0 01-1 .2l-.56-.75c.61 0 1.37 0 1.56.55zM207.84 151.92l-.38.4-.39-.4h.77zM161.5 172.5c.38-.2.57 0 .76.36l-.57.56a.63.63 0 01-.19-.92zM152.57 175.28v.2c-.38.2-.56-.36-.56-.56.56 0 .56.2.56.36zM93.14 149.12h.94c0 .39 0 .75-.38.55a.4.4 0 01-.56-.55zM41.67 182.77v.2h-.38c0-.2.38-.2.38-.2zM77.18 202.76h-.38c0-.17.18-.92.56-.55 0 .38.2.79-.18.55zM130.92 186.5a1 1 0 01-.75-.36c0-.56 1-.38 1.33-.2a.51.51 0 01-.58.56zM174.61 185.38v-.74l.38.56c-.2 0-.2 0-.38.18zM198 179.23h-.38a1.16 1.16 0 01.2-1.33c.33.19.33 1.1.18 1.33zM205.18 186.5h-.38c.19-.36-.19-.74.38-.92zM204.04 175.84l.38-.36v.36h-.38zM211.26 165.2v-.55h.38c-.2.17.19.72-.38.55zM225.69 162.78l-.76.56c-.38 0-.19-.56 0-.75zM127.23 169.23h-.19.08s.07.02.11 0zM31.71 175v.22c.08-.07.13-.15.21-.22zM128.26 168.72c-.69-.16-.62.29-1 .51.41 0 .83-.07 1.22-.12zM204.76 226.87h-.41zM72.47 220.65a.7.7 0 01.48.15 2.05 2.05 0 00.07-.34c-.18.19-.55 0-.55.19zM73 220.8v.08h.08zM108 134c-.94-.2 0 .94-.75.74v.09a.72.72 0 01.39-.09.47.47 0 01.36-.74z"/><path d="M107.25 134.79a.53.53 0 00-.16.37.35.35 0 00.16-.37zM194.54 65.57c-.56 1.12-2.27.56-3.41.92.18-1.11 2.27-1.86 3.41-.92M187.32 67.8v-.16s.38-.2.38.16M170.8 71c-1.7.56-2.65 2.23-4.74 2-.76-1.48 1.13-1.29 1.51-2.23 1.15.19 2.29-.56 3.23.19M176.69 77.16c.38.74 1.33.18 1.71.74 3.24 0 6.46-.56 9.3.56 1.72 1.31 4.37 1.12 6.84 1.31-.18 2.07 2.47 1.51 3.8 1.87 2.08.74 4.93-.56 6.82 1.3 2.85-.74 5.89 1.87 8.36-.18.95.55 1.72-1.12 2.28.38-.76 1.11-2.66-.2-3.6 1.11-1.71-.36-4.37 1.12-5.52-.94-1.14-.37-2.28.94-3-.17-3.41-.94-7.23.17-10.06-1.68-.39-1.31-1.52-1.31-2.46-1.69a2.3 2.3 0 01-2.48.38 2.07 2.07 0 00-2.47-.38c-.18.38-.37.76-.94.56-.19-.72-.38-1.67-1-1.87a20.36 20.36 0 01-5.89.39c-.38-2.64-2.09.36-3.41-1.11.38-.58 1.14-.4 1.7-.58M225.31 83.33l.37.37c-.18.75-1.32 1-1.32 1.87.38.38.95 0 1.52.19.76-1.51 2.47-2.06 4.37-2.06-.2 1.11 1.14.55 1.5.55a1.5 1.5 0 011.72 0c.18.4.18 1 .56.76 0 1.11 1.14.36 1.52.75-.19.36.39.72.58.72C237.64 87 238 85 239 85c.19 1.11-1.14 1.87-.37 2.81-1.34 0-3.24.36-4-.76-2.66 0-5.71-3-7.41.56-1.15 0-2.28.95-3.61.75.57-2.8-2.84-.55-3.8-1.89.38-.91 3.23-1.31 1.71-3-1.13.2-2.47 0-3 .75-.38 0-.58 0-.76-.19.56-.75.38-1.86 1.52-2 1.7.92 4 .92 6.07 1.29M168.33 83.7c-1.32-.17-3 1.11-4-.17a5.62 5.62 0 014 .17M242.6 85c.18.56-.58.56-1.14.56l-.77-1.12c.57 0 2.29-.56 1.91.56M255.13 87.42c1.33-1.66 3 1.34 4-.36h.37c-.19 1.14-1.89 2.07-2.85 2.62a1.37 1.37 0 01-.94-.37c0-.38.38-.55.18-.94-.94-.36-2.84.39-3.79-.55-1.91.38-4-.4-5.32 1.11-.38.2-.55 0-.93-.36-.39-1.31 1.32-.75 1.51-1.69 1.14.54 2.08-.74 3.41-.56 1.33.56 2.65.38 4.37 1.1M244.49 87.62l-.57-.56h.57v.56M230.81 93.81c-1.52.16-2.84 2-4.37.36a1.56 1.56 0 01-1.89-.36v-.2a9.1 9.1 0 005.13-1.87c-.19 1.31 2.28.75 1.13 2.07M231.2 98.47c0 .37-.39.93.38.93l.18.38c-.37 1.12-1.71.74-2.84.74l-.38-.18c0-1.11 1-1.5 1.71-2l.95.18M284 110.06c0 1.12-1.33 1.12-2.09 1.31h-.76c0-.56 1.14-1 1.71-1.11.57.36.57-.56 1.14-.2M289.5 111.37c-.18 1.3-1.9 2.22-1.14 3.73a1.62 1.62 0 001.9-.94c.76-.93.19-2.43.95-3.35v5h-.38a5.11 5.11 0 000 1.7c-1.9.72-1.9-1.51-3.8-.56a3.06 3.06 0 01-.38-1.87c.38-.38.38-.94.57-1.53-.57-.56-1-.16-1.51-.16-.2-.94 1.7-1.87 2.65-2.81.38.19.76.19 1.14.75M278.67 111.93l-.56.56c-1.72-.76-3.62 0-5.13.36-.38 1.13-1.33 1.52-2.09 2.07-1.52-.38-4 .38-5.31-.55-1.52.55-3.05 1.31-4.57.93-.38.38-.55.74-.94.74-.19-1.12.77-2.25 1.89-2.81.76.2 1.52 1.14 2.48.93.36-.73 1.32-.37 1.7-.73l1.71.73c1.71-.57 4.18-.37 5.31-1.67 1 .38.58-.93 1.33-.93 1.34-.94 3.42-1.12 4.18.37M284.75 114.37c-.38 2-3.79 2.23-4.17 4.85-.76.92-2.29.2-3.24.56-.57-.76-.57-2.07-1.71-2.07-1.88-.16-2.84 2.07-4.74 1.31-.76.94-2.28.76-3.23 1.68 0-1.87-2.85 0-2.28-2l-.94-.56c1.14-.55 1.32-1.87 2.84-2.06.76.75-1.14 2.06.57 2.43 2.84-.56 5.32-.56 7.78-2 1.33.17 2.09-.75 3-1.12 1.16.17.39 2.43 2.29 1.87a13.45 13.45 0 013.8-2.81M240.32 117.71a5 5 0 01-3.23 1.87c-1.34-.56.18-2-1.14-2.43-.39 1.71-1.72 1.87-3.23 2.07.56-1.31 3.23-1.51 4.17-3 1.34.37 2.66.18 3.43 1.48M245.82 117.15c-.57.56-.19.76-.95.95s-1-.55-1.52-.95c.57-.36 1.52.2 2.47 0M249 117.15c-.18 1.12-1.32.56-2.08.95l-.19-.19a2.43 2.43 0 012.27-.76M264.44 118.47c-.58.19-.2.75-.39 1.11 0 .2.19.2.39.2-.39 1.67-2.09 0-2.85 1.49l-.58-.75c.76-.74 1.9-1.1 2.47-2h1M257.6 119.22c-.38.56-1 1.3-1.9.94a2.45 2.45 0 00-2.47-.56c-.94 1.48-2.27.18-3.22 1.12-.38-.2-.58-.2-.38-.56 1.88-.56 5.5-2.25 8-.94M261.39 119.22a5.32 5.32 0 01-2.09.94c0-.38 0-1.3.76-1.14.39 0 .95-.16 1.33.2M248.29 120.34c-.19 1.11-1.52 1.11-2.47 1.67l-.38-.56c.57-.73 1.9-1.67 2.85-1.11M237.65 120.34c-.18.38 0 1.11-.18 1.3.76.75 1.7 0 2.27.75-1 1.48-3 .75-4.18 2.07-.76-.4-.19-1.51-.38-2.07 1.33-.2 1.33-1.87 2.47-2M167.77 122.75a10.74 10.74 0 00-3.41.39c-.2-.55.18-1 .94-1.11l2.47.16v.56M280.58 123.14a5.47 5.47 0 00-1.52 3.73c1.7-.36 1.52 3.18 3 .95 2.47-.19 3.61-2.43 5.88-2.81.19-.37.76-.75.56-1.31v4.12c-.18 0-.37-.19-.56 0v.36c-.38.2-1.52-.17-1.14.76v.36c-.95 0-2.27 0-2.85-.56a7 7 0 00-4.93 2.45c.19.92-1.15 1.11 0 1.86.76 1.5-1.91 2.42 0 3.37 1.9-.39 4.35.56 5.69-.39v1.87h-.38c-.38.56-.19 1.12-.19 1.69-.19 0-.38-.19-.57.17v.39c-.75.18-.37-.75-.75-1-1.13-.36-1.52-1.49-3-1.1a10.14 10.14 0 01-4.57.92c-.18-.38-.37-.56-.56-.92-.77.18-1.15 1.66-2.09 1.1 0-.36-.58-.56-1-.36-1.13 1.87-4.17-.94-5.31 1.31-2.09.56-5.12-.19-6.08 2-.55-.17-.38-1.68-1.33-.76l-1.32 1.33c-1.7-.74 0-2.43 0-3.36a8 8 0 01.94-3c.58-.16 0 1.32.2 1.87a1.26 1.26 0 00-.2 1.14c.38.73 1.72-.38 1.33.93.76.56 1.34-.57 2.1-.93.76-.76 2.08-.76 2.84-1.5 0-.36.76-.36 1.15-.56.56.2 1.32.56 1.89.2 1.32-1.31 3.4-.2 4.74-1.51.94.56 1.71-1.87 2.09-.36.57.72 1.32-.2 1.9-.2 1.14-1.49 1.14-3.56 2.08-5.06 0-.36.2-.91-.19-1.11-1-.18-1 1.11-1.89.38-.19-1.11 1.14-1.86.94-3-.19 0-.56 0-.56.18-.94 1.12-2.66 1.87-2.84 3.74-.95.74-2.28-.37-3.42 0 0-.75.19-1.31.94-1.31a1.74 1.74 0 002.09-.18c1.52-1.49 1.33-3.73 4-3.73 1.52-.75 1.7-2.8 2.85-2.8v.55M227.21 124.06c.38 1.14-1.71 1.14-1.15 1.89 0-.75 0-2.61 1.15-1.89M215.25 125.57c-.38.74-1.14.38-1.72.38-.18-.56 1.34-.75 1.72-.38"/><path d="M253.23 131.35c.56 1.34 1.52.2 2.09-.16 1.14-1.87 2.66-1.87 4.18-3.18.55.75-.58 2.23.94 2 1.51-.37 3.6 1.3 4.93-.37 2.09-.18 4-1.67 5.88-2.79l.2.37a14.22 14.22 0 01-2.09 3c-3-.56-4.37 2.45-7.41 1.51-1.71 2.25-1.89-1.51-4-.4-1.89.56-3.6 2.81-5.69 1.89-.19-.94.37-1.89 0-2.81-.76-.19-.57.76-1.14 1.12-.76.56-2.28.75-2.47 1.69h-1.32c0-.75.56-1.33 1.32-1.89 3.23-.16 4.36-3.9 5.7-6-.2 1.87-.76 3.93-1.14 6M174.41 135.47c.2 0 .38-.16.58 0-1.72 1.12-2.47 2.81-4.19 4.29.38 1.31-1.14 1.87-2.08 2.62.38-1.31 2.08-3.34 1.52-4.65-1-.19-.2.37-.58.55-.76.56-1.52 1.87-2.47 2.23 1.34 2.07-1.32 2.45-2.28 3.57h-1.14c-.76-1.5 1.72-1.7 1.9-3 1.14-.74 1.52-2 2.47-3a2.26 2.26 0 011.52-1.87c0 .19-.19.19-.38.36l.58.75c.76-1.11 1.88-1.31 2.27-2.62 1.34-.36.77 1.87 2.28.75M183.91 138.48c1.14-.56 2.65.16 4-.2 1.14.56 2.65-.18 3.61-.74h.18l-.38.38h.2a8.18 8.18 0 01-6.84 2.23c-1.33-.75-3.41 1.87-3.41-.75a1.21 1.21 0 00-1.14.95c.56 1.3-1 2-1.71 2.41-1 .2-2.48.4-3-.55.56-1.3 1.7-3 3-3.37a.83.83 0 000 1.12c1.14-.17 1.71-1.12 2.47-1.86.18-.74-.38-.93-.38-1.12.38-.17 1.14-.56.94-.75 1.32.19.75 2.25 2.46 2.25M174.79 140.35c.2 1.11-.95 1.48-1.71 1.86H171c.38-.94 1.89-2.06 1.89-3.37.38-.2.94.75 1.72.56l.18.93M150.49 140.71h-.57l.37-.36a.5.5 0 01.2.36M252.65 140.91a.88.88 0 01-.37 1.11c-.57.17-.95-.19-1.32-.56 0-.19-.2-.55.18-.75.38.36 1 .2 1.51.2M154.09 141.46c-.57.37-.38.92-.94.75a.6.6 0 01.94-.75M162.26 142.21c-.19 1.31-.76 2.62-2.47 1.87a.84.84 0 00-1.33-.37l-.94.37c-.38-.76 1.51-1.7 1.89-2.62 1 .19 2.28 0 2.85.75M144.59 142.76c-2.83.76-3.6 3.57-5.31 5.24-.95 0-.95-1.12-1.33-1.67-.94 0-.19 1.11-.94 1.31 0-.95-1.14-1.51-1.34-2.25.2-1.87 2.85-.18 3.24-2 .56-.39 1.51-.19 1.51.56 0 .17.2.17.38.36 1.52-.75 2.28-3 4.19-2.44l-.4.93M274.31 141.83c-.57.38-.39 1.13-1.33.93.56-.38.76-1.11 1.33-.93M72.24 143.52H71.1c0-.2-.19-.2-.19-.36.38-.2 1.52-.58 1.33.36M75.85 146.69c-.38.37-.38.95-1.14.75-.57-.38-.19-1.11-.19-1.67.57-.56 2.09-.2 1.33.92M172.52 146.33c-.38-.2-.76.55-1.14-.2l1.14.2M147.64 146.69c0 .95-1.33 1.87-.58 2.82 2.1.16 1.52-3.38 3.81-2.07 1.7.76 0 2.43-.2 3.55-.38.38-.76.93-1.33.77-.76-.39.39-2.81-.94-1.89a2 2 0 01-1.72.94c-.38-.56-1.14-.19-.93-.94-1.53-.36-2.29 1.69-3.8 1.5-.57 2.42-3.61-.56-3.61 2.06-.19.36-.57.36-1 .36-.37-1.31 1-2.42 2.08-3.17 1.34 0 2.86-.19 3.62-1.5 1.9.19 1.14-3 2.85-2.62a.73.73 0 001.14-.17c.18 0 .36.17.56.36M169.66 146.88c-.56.56-.94 0-1.51.56l-.2-.38c.38-.37 1.34-.73 1.71-.18M167.19 147.44c-1.32.56-2.83 1.48-4.17 1.48.38-1.12 3-1.48 4.17-1.48M19.83 147.8c.18 2.07-2.1 2.43-2.85 4-.76-.77-.19-1.14 0-1.89a19 19 0 002.85-2.07M13.75 154.35a3.74 3.74 0 01.37 2.06c-.37 1-1.13 2.23-.37 3.54.75 1.13 2.28.75 3.23.94-.57.39-1.52.39-2.08 1.14-.39.56.18 1.29-.58 1.68-.57.16-.38-.56-.76-.56-.2-1.12-1-.56-1.14-1.67a1.46 1.46 0 00-1.53-.4l-.19.4c.19.92 1.9.72 1.72 1.67a5.43 5.43 0 00-4.94 2.42A25.41 25.41 0 019 162.4c.75-1.12.95-3 3-2.63 1.32-.74.38-2.25 1.32-3.17a5.34 5.34 0 01-.38-5c-.94-.94 0-1.69 0-2.61l1.34-.56a5 5 0 00-.58 6M125.42 149.87a1 1 0 01-.76.36c-.38-.72 0-1.11.56-1.48-.18.37.77.76.2 1.12M154.09 149.87c0 .56-.38.75-.76.94 0-.38-.38-.19-.38-.38a1.19 1.19 0 011.14-.56M129 151.18c0 .74 0 1.86-1 2.06-.18.19-.56 0-.76.19-1.14-1.11 1-1.11.76-2.25h1M126 152.68a6.1 6.1 0 01-1.53 1.67c0-.36-.94-.73-.18-1.11.56-.18.94-.76 1.71-.56M134.15 153.24a1.46 1.46 0 01-1.51 1.31c-1 .56-1.72-.37-2.67-.37.39-1.31 3.05-1.12 4.18-.94M62.94 158.47c-1 .19-1.52 1.12-2.66.75-.57-.39 0-.94 0-1.7.19-.72 1.52 0 2.08-.56 0-1.11-.56-2.59.58-3.34.76 1.49 0 3.18 0 4.85M119.15 155.11c0 .55-.38.74-.76 1.11-.19 0-.37-.18-.57-.37 0-.56.76-1.3 1.33-.74M122.76 155.11c0 .18-.2.74-.38.74 0-.19-.19-.74.38-.74M139.47 159.39c-.76.76-.19 1.89-.95 2.45-.57-.2-1.14.19-1.51-.36.18-.78 1.51-1.33 1.89-2.09h.57M141 161.08c-.19-.38-.57-.19-.38-.55-.19-.94.57-.76.95-1.12l.75.56-1.32 1.11M143.83 160c0 .36-.18.36-.38.56l-.94-.38a1.54 1.54 0 011.32-.18M63.31 160.89c1.34 1.89-.57 3.76-1.33 5.43-.18.56-.56 1.31-1.32.92-1.51-1.67 1.52-2.79 1.32-4.65-1.14-.56-.56 1.5-1.89.75A4 4 0 0162 160c.76-.2 1.14.73 1.33.92M136.05 161.48c-.58 1.47-3 .55-3.23 2.41a.56.56 0 01-.76-.55c-.55-1.31.76-1.5.95-2.45.38 0 .76 1.14 1.71.39.19-.39.39-.75.95-.56 0 .36.2.36.38.76M40 165c-.38.36-.38.75-1 1h-.56c-.38-1.15 1.14-1.69 1.14-2.62.75.17.57 1.11.38 1.67M46.42 164.27c-.2 1.3-1.14 1.66-1.14 3-.38.2-1 0-1.53 0a4.52 4.52 0 011.71-3.53c.38.18 1 0 1 .56M58.57 166.32l-.38.36c-1.14-.56-.58-1.48 0-2.23.18 0 .76-.56 1 0-.57.75 0 1.31-.57 1.87M119.34 165.2h-1c0-.19 0-.75.57-.75h.38v.75M135.87 168.19l.18-.2h1.33l-1.51.2M134.53 168.55c-1.33.2-2.85.77-4 .2 1.52.18 2.66-.93 4-.2M130.17 168.75c-.38-.18-.58.38-.58.57l-.56-.39c.18-.55.76 0 1.14-.18M74.15 171H74a2 2 0 011.33-1.87c.38.56-.76 1.31-1.13 1.87M75.85 175.28c-.19 1.32-1.71.2-1.9 1.32a2.07 2.07 0 01-1 .19c1.9-1.51-2.83-4.29 1.33-4.29 1.14.55 1 1.86 1.52 2.78M70.54 174l-.2-.16h.38l-.18.16M65 174.36c.18.17-.2.56-.38.92h-.58c-.18-.55.2-1.31 1-.92M70.16 174.36c0 .17.38 1.12-.38 1.32 0 .16-.58 0-.76.16-.2-.72.38-1.67 1.14-1.48M72.05 177.53l-.57.56.38-2.25c.19 0 .57 1.12.19 1.69M247.72 183.69c0 .75.38 1.31-.37 1.87-.76-.73-1.34-.73-.58-1.48.19-.19.57-.19.95-.39M100.92 200c-.2 2-3.23 2.24-1.9 4.65-.19 3-4.18 0-4.18 3.2-.57.37-.93 1.12-1.71 1.31-.77-.39 0-.94.19-1.5.58-.19.38-1.12.76-1.7a53.25 53.25 0 012.65-5.59 6.65 6.65 0 014-1.12l.2.75M154.47 201.65c-1.32 3.17-3.22 6.54-4 9.9-.39.37-.76 1.12-1.33.37-.58-.93 1.9-2 0-2.42a39 39 0 01-2.47 4.84c0-.92-.57-2-1.52-2-.18-.56 1.14-1.87.58-2.81.18-.56.18-1.48-.76-1.48 1.14-1.14 2.27.72 3.41-.39-.38-.17.19.75-.76.75-.37.75-.75 1.31 0 2.06a22.41 22.41 0 006.45-9l.38.2M101.87 203.15c-.57.17-.77 1.67-1.71.73 0-.73.38-1.29 1.14-1.12.18.2.57.2.57.39M180.12 204.62s-.38.39-.76.2l.76-1.5c.56.2 0 .94 0 1.3M141 204.26c-.19 0-.19.2-.19.36.57 1.12 2.47-1.66 1.51.56-1.14.2-1.14 1.7-2.27 1.89a21.67 21.67 0 00-2.85 5c-.76.37-.76-.56-1.14-.74 1.14-1.68.95-4.86 3.41-5.24.38-.36 0-.95.2-1.31h-.2c-.18-.92 1-1.12 1.53-.56M127.51 205c-.38 2.06-1.52 3.73-2.29 5.8a3.88 3.88 0 01-1.51.74c-.76-1.5 1.9-1.86 2.09-3.55.57-.93.57-2.43 1.71-3M153.71 209.13a1 1 0 01-.76.37c.38-.76 0-2 1.14-2.43-.18-.56.38-.74.57-1.5-.19 1.5-.75 2.06-.95 3.56M180.68 206.13s.2.94-.38.94c-.38.37-.56-.19-.94-.19a.87.87 0 00.38-.73c.38-.94.38.36.94 0M171 208.19a1.81 1.81 0 01-1.33 1.5c-1.34 0-.19-1.31-.57-2.06 1-1.12 1.52-.17 1.9.56M172.52 208.38v.56c-.38-.2-.76.19-1-.36s.76-.56 1-.2M228.54 210.05a7 7 0 00-.19 2.81h-.95c-.19-.55.75-.94 0-1.31-.76-.18-.57.76-.94.93.37.56-.38.94-.38 1.3h-.38c.56-.36.18-.92 0-1.47h-.56c.75-.76 2.27-2.06 1.51-3.37v-.2c.94.2.94 1.14 1.89 1.31M175.55 210.61c-1.32 0-.94 2.06-2.47 2.25l-.38.56c.58-1.51 2.29-3 3.23-3.92.2.36 0 .75-.38 1.11M142.89 210.81c-1.14.36-.38 2.61-1.89 2.05.37-.75.75-2.05 1.89-2.05M185.81 212.86h-1.32v-.55h.56l-.19.17c.19.19.19.19.38.19.38-.19-.38-1.12.57-.75v.94M166.82 213.42c-.19.92-1.52.92-1.52 2.07-.38-.56.57-1.87 1.52-2.07M203.85 215.65c-.57 1.14-2.09 1.7-2.84 2.09a3.67 3.67 0 012.09-1.74c.38-.16.18-.54.76-.36M83.26 216.79c-.38.75-1.91 0-1.91 1.11.2-.72.58-1.67 1.34-1.87.38 0 1 .4.57.76M175.37 217.18c-1 .92-2.67.92-3.43 1.86.58-.94 1.9-2.25 3.43-1.86M205 217.35c-.57 1.11-1.71 3.18-3.23 3.73 1-1.67 1.14-3.54 3.23-3.73M186.18 218.1c-.56.94-.94 2.23-2.27 2.81.38-1.14 1.33-1.7 1.89-2.81h.38M79.08 222.58c0-1.5 1.14-2.43 1.71-3.73a6.27 6.27 0 01-1.71 3.73M168.15 220.15c-1 .38-1.72.93-2.85.56 1.89.56 1.33-1.67 2.85-.56M145 240.34c-1.33 1.12-3.61 1.68-4.76 3.17h-1.89c1.33-1.49 2.28-1.69 4-2.41a2.77 2.77 0 002.09-1.32h.56v.56M291.19 106.32v-1.13c-1.13.77-2.66-.92-4.36-.17-.76-2.07-.2-3.92-1.52-5.79-3.05.36-6.84-1.68-8.54 1.67-1.9 0-2.66 1.87-4.18 2.43-1.89-2-.19-5.42-2.09-7.27a6.2 6.2 0 00-3.23.36c-2.08-.36-4.17-1.12-4.75-3-2.47-.74-4.75.92-7 .74-1.33.94-2.08 2.44-3.21 3.74.19.93-.77 1.49-1.52 1.87-5.13.18-1-4.12-1.9-6.53-2.85-.76-6.64 0-9.87-.56-1 .19-.76 1.48-1.14 1.86-.95 3.56 2.84-.38 3.41 2.43-.17 2.25.58 5.79-1.33 7.65 1.53 2.25 4.19-1.48 5.51 1.11 0 1 0 1.89-1.14 2.45-2.28.92-5.51-.2-7 1.87a.2.2 0 01.2.2l9.12.16c.94-.92 2.08-.19 3.22-.92 1.14.56 0 2 .56 3s1.52.54 2.28.54c2.85.57 4.37-2.61 7.22-.93 3 0 5.7-.92 8.54-1.12.58-.17.58-.72.38-1.12a7.22 7.22 0 01-4-.36c0-1.69-.36-3.18.39-4.87 2.09-.19 4.56-.19 6.45-.36.76.55.38 1.69.38 2.42a2.6 2.6 0 002.85.38c2.47.74 5.32.18 8 0 1.88-1.33 4.16 1.48 5.49-.93 2.28-.76 3 2 5.13 1.11v-.73a8.8 8.8 0 01-2.35-.2zm-45.75-7.65a1.73 1.73 0 01-1.9.17c-.19-.17-.19-.75.2-.75.56.2 1.51-.36 1.7.56zm5.9 11.39h-.22s-.09.08-.16 0h.16c0-.07.1-.2.22-.2-.58 0 0-.72-.38-.92-1.34-1.67-3.81.92-4.19-1.31.2-.75.2-1.67 1.14-1.89 1.13.78 3.42-.16 3.8 1.33.76.93 0 2.43-.37 2.99zm7-12.53c1.13-.73 1.51.38 2.09 1.12 0 .36-.39.36-.58.73-.95-.17-1.89-.17-2.47-.93-.38-.72.62-.72.98-.92zm-4 13.47c-.58-.19-.2-.38-.2-.74a.86.86 0 011.33-.76c-.15.56-.15 1.87-1.1 1.5zm3.23-7.49c-1.33-.38-2.47.76-3.8 0 0-.74-1.14-1.86-.38-2.61a2.61 2.61 0 001.33.36 5.45 5.45 0 013.79-.56c.03.95.61 2.63-.91 2.81zm1.89 6c-.19-.75 1.34-.75 1.9-.56.03.91-1.11.36-1.87.55zm1.72-8.6l.38-.92c.18.17.18.56.18.92-.15.19-.35-.01-.53-.01zm1.14-5.24c-.38-.19-.58-1.11.18-.94.03.38.23.74-.15.93zm3.23 6.36c-.2.36-.38 0-.77-.2 0-.36.2-.17.57-.56a.7.7 0 00.58.2c.21.35-.17.35-.35.53zm3.22-.56c-.19 0-.38-.36 0-.56.19-.2.19 0 .37 0 .03.35-.14.35-.34.55zm8.17 3.73a.58.58 0 01-.76-.17c.18-.39.56-1.14 1.14-.75.21.54-.32.54-.32.91zM21.72 137c1.14-2.26-2.47-2.26-2.65-4.29-.76.37-.58 1.67-.2 2.59-1.14 2.06-.19 4.12-1.14 6h.2a1 1 0 01.56 1.49c-.76.56-2.46 1.68-2.08 3.37a2 2 0 01-1.91 1.67l.2.38c.56-.18 1.13-.18 1.33-.74 1.52-.19.57-2.81 1.7-3.92 1.72.56 2.1-1.14 3.43-1.14-.19-.19.18-.92-.39-.75-.56-.36-1.32-.92-1.14-1.48a5.65 5.65 0 012.09-3.18zm-2.47.92c-.18-.36-.18-1.11.2-1.29.38.18 1.14-.19.95.37.19.54-.77.54-1.15.9zM90.1 150.49h1.15v-1.09H90.1z"/><path d="M293.65 90.22a25.52 25.52 0 01-.18-5.43c-1.34.56-2.86.2-4.18.2-.77-.95-2.47 0-3.23-1.31-.19-.76.76-.76.57-1.32-.57.38-.38-.55-.76-.55.38-.19-.19-1.12.76-.94 2.09-.36 3.23 2.25 5.5 1.31 1-.18 1.34.56 1.34 1.3v-5.6h-.2c-.19.39 0 .76-.19 1a9.47 9.47 0 01-3.41-.75c.94-.75 2.28-.36 3.22-.36V73.6c0 .36-.94 0-1.32.36-3.23-1.86-7.22-.56-10.83-.56-1.52-1.11-4.17 0-5.88-.94.19-.17 0-.92.57-1.11 3.22.94 5.31-1.68 8.73-.74a3.13 3.13 0 011.14 1.49c1.15-.93.39-3 2.27-3.18.76.75.19 2.81 1.52 3.18 1.13-.37.57-1.49.76-2 .75.18.95 1.3 1.33 2 .94.19.76-.56 1.52-.56.18 0 .18 0 .18.19h.2v-1.87h-.57c-1.33.17-.39-1.5-.76-2.06-.94.18-.19-1.31-.57-1.13L290 68c-.57 0-1-.37-1.33-.93 1-1.69 1.14-3.55 2.1-5a4 4 0 00-2.77-3.62c-.95-.19-.39.95-.57 1.5 1.14 1.68-.76 3.37-.94 5.24a3.84 3.84 0 01-.57 3.53c-2.28.56-.39-2.81-2.28-3.36-.2-1.68-.38-3.35.95-4.65 0-1.12.57-2.82.19-3.56a.79.79 0 00-1.14.55c-1.33-.19-2.09 2.25-3.79 1.5-.76 2.25 1.52 4.48.76 6.71-.58.4-.76 1.51-1.72 1.32-.57 0-.57-.74-.76-1.12-.38-.36-1.14.2-1.71.2-2.47-2.81 1.33-5.6-.19-8.42-1.14 0-1.33 2.06-2.47.73-.37-1.47-2.65-.36-3-.55-.57 2.8 2.27 4.12 1.7 6.73.2 0 .57.19.76 0 2.85 1.11 1 3.74 1.33 5.79-.57.94-1.52.94-2.65.94-1.33-.74 1.51-1.5-.2-2.25 0-.56-.18-1.5.2-2-1.14 0-1 1.69-1.72 2.44l-.76-.39c0-1.48-1.7-2.79-1.33-4.84-1.69-1.87 1-4.12-.75-5.8-1.53-.38-1.72 1.31-2.66 2.07-.76.56-1.33-.56-1.89-.2 0 2.25 3 3.56 1.89 6.35-.76.94-.76 2.62-2.47 2.42-1.7.58-.38-1.67-1.14-2-4.55-.94-.38-5-.95-8h-3c-.75 1.51-1.32-.56-2.47 0 .57 1.31-.55 4.87 2.29 4.87.76.73.18 1.68.18 2.6-.94.38-.56-.74-1.32-.92l-.95.92c-.75.94-1.13-.36-1.89-.36-.57-1.51-2.47-3.18-1.33-5-.56-2.43-3-.56-4.17-1.68L247 60c.56 1.12.38 2.81 1.7 3.37l.76-.94c1.34-.17.38 1.3 1.34 1.69 0 .56 0 1.48-.58 1.68-.38-.39-.56-.39-.94-.76-1.13.76-1.13 2.06-1 3.73 1-.55 1.91.56 2.67 1.14 2.28.93 3-1.52 4.75-2.08a20.81 20.81 0 001.52 2.08c-.38.57-1.52-.19-1.52.73.38.76.38 2.45 1.7 2.45 1.72.56 4 0 5.51.72.76.56 1.71 0 2.47-.16 1.14.36 2.47-.76 3.41.36.58 0 1.34.19 1.52-.56 2.66-.56 5.31.56 8 1.12 1.71-.76 4 .36 5.88.19.58-.95 1.91-.56 2.67-.75.76.39 2.28 0 2.47 1-7.79 2.59-16.15-1-24.31.16-1.9-.92-4.17-.36-6.27-.55a2.78 2.78 0 01-2.27 1c-1.33-1.71-4.37-.4-6.08-1.71-.38-.36 1.13-.56.19-.72l.19-.39-.58-.17c-.75-.56-1.69-1.13-1.51-2.25-1.71-1.51-1.71-3.92-2.66-6 1.52-1.48-1.34-1.48-1.7-2.59-.76 1.29.37 2.42.18 3.73-1 1.11-3 .55-4.56.37-2.08-1.51.57-4.3-2.28-5-1.51 1.5-.38 4.09-2.08 5.6-.57 0-1.15.36-1.7 0a3.28 3.28 0 01-1-2.81c-.18-1.49-1.13-2.43-.75-4.49.38-1.12 1.51-1.12 2.65-1.31a6.27 6.27 0 01.59-.65c0-.35-.25-.51-.62-.56-2.08.52-4.39 0-6.25.68.2.94 1.71.55 2.28.94-2.65.17-2.08 3.54-4.93 3.72a1.09 1.09 0 01-.58-1.1c.57-1.31 1-2.62 2.29-3-4-1.31-6.84 2.06-10.26.94-2.67 2.07-6.46.76-9.49 1.51-3.43 2.23-7.6 1.48-11.41 2.78-1.7.57-4.17-.92-5.3.95-6.65.56-12.72 2.61-19.56 2.43-3 .18-5.13 1.3-8.17.92-2.85 1.85-6.27 1.13-9.49 2.25-1.52 1.13-4.56 1-6.46 2.25 0 1.11-1.52 1.67-.76 3 2.27.76 3.8 1.86 6.46 2.06 1.9 1.11 4.17 1.5 6.26 2.62 3-.39 5.33.56 8 1.3 2.28.18 4.17 1.49 6.27 1.49.56 1.13 2.64.18 2.84 1.3-1.14.75-2.67-.36-3.61.56a.41.41 0 01-.38-.36c-1.14.55-2.86.16-3.61.16 0 .76 1.13.39 1.51.57.77-.37 2.1.38 3.23 0 1.14.94 1.9-.57 3 .55 1.33-.73 3 0 4.57 0a1.8 1.8 0 011.7-.55c2.09 1.86 5.7.55 8 2 5.32 0 10.25 1.34 15.57 1.89 1.72.73 4.38.17 5.71 1.86-1.72.93-4.19.18-5.71.93.95.56 2.1-.19 3.22 0 2.85.75 6.65-.19 8 3 3.8 1 4 5.43 4.55 8.6-.76 2.25-2.85 2.81-4.74 3.56-.58.39-1.14-.19-1.71-.56-.76.37-.57 1.68-.76 2.24-1.32 1.88-3.61 2.25-5.88 3-.57 0-1.33-.56-1.9 0-.19.56.38.92.2 1.48 0 .39-.39.56-.77.39-1.52 1.86-2.85 2.05-5.13 3-.76.2-1.89-.72-2.46.2-1.53-.36-1.33 2-3 1.87-.75 0-.94-.93-.94-1.67h-.18c-1 .55 0 1.47-.19 2.23-.38.55-.38 1.67-1.33 1.67-.56 0-.95-.73-.56-1.12a4.26 4.26 0 01-2.67-.37c-2.08 1.68-5.13 1.31-7.79 1.51-1.89.17-2.47 3.73-4.94 2.79a3.11 3.11 0 01-.93-1.31c-1.71-1.12-3.61-.36-5.13.38-.19 1.49-1.71 0-2.47.37h.2a2.3 2.3 0 010 2.45c.38.92 1.7.72 2.08.55 1.33-.75.38-2.83 1.88-3.39a3.13 3.13 0 012.47.56c.38.57-.94.75 0 1.31a2.76 2.76 0 012.85 1c.19.74-.57 1.3-1 1.49a5.17 5.17 0 01-2.84-.55c-1.32.55-3.8-.76-4 1.49-.37.56-1.13 1.3-1.89.74-1.53 2.43-3.43-.74-5.32.38-.58-.74.76-2.06 1.33-2.42-.95-.58-.57-1.5-1.33-1.89-.2.76.18.94-.58 1.31-1.7.58-.56 2.06-1.51 3-1.7.56.19 2.05-1.33 3-1.71-.75-2.08 1.32-3.8.76.21-.56-.75-1-.17-1.51-.38-.56-1.15-.56-1.91-.56a.8.8 0 01-.76-.74c1.14-.73 1.14-.37 2.29-.73 1.9 1.29 3.23-.4 4.55-1.32h-.95c-1.52.92-3.22.56-4.93.92a2.76 2.76 0 01-1.72 1.13c0 1.86 1.52.74 2.47 1.86 0 .56-.37.75-.57 1.33-.76.18-.94.75-1.9.93-.55.19-1.88.38-1.88-.75-2.09.38-3.42 0-5.31 0l.19.75c-1.16.56-2.29 1.3-3.62 1.12l.38-1.32-1.89-.36c-.76.56-1 .75-.58 1.68-.18.18-.38.74-.94.38-1.33-.56-1.14-1.87-1.33-3-1.14 1-3 1.14-4.56 1.51-.57 1.3-1.89.19-2.85.56v-.37s-.74-.94-1.12-.94c-.58.19 0 .55-.2.94 0 .55.58.37.94.37a1.05 1.05 0 011.14 1.3c-.38 1.11-1.52.56-2.28.92-1.14-.17-1.89-3.15-3.22-1.12-.38 0-.76.2-1.14-.16-.37-.56-1-.76-.37-1.5-.71 0-1.26.63-1.94.57.22.17.25 1 .42 1.48-.2.17-.38.17-.76.17-1-.36.18-.92-.38-1.48-1.71-.18-2.47-1.89-3.8-2.63a5 5 0 00-2.47.94l-2.84-.2c-1.15 0-2.85.22-3 .78 1.33.56 3.06-.38 4 .93 1 .36.76-.76 1.52-.93.95 1.31 2.28 2.42 2.28 3.9-.19.56 0 1.31-.76 1.51a2.67 2.67 0 01-2.09.36c-1.9.38-1-1.87-2.67-1.67.2-.56 1-1.12.2-1.68-1.13.56-2.27 1.68-3.79 1.68-.56-.2-.75-.95-.94-1.51a.77.77 0 00.21-.46 4.65 4.65 0 00-.59.29 5.48 5.48 0 01-.2 3.91 3.65 3.65 0 012.09-1.29c.76.37.38 1.31.76 1.87.75.55.57 1.87.57 2.81h.75c.76-.58 1-2.08 2.1-2.45.76.75 0 1.87-.38 2.62a6.53 6.53 0 00-3.61 2.25.41.41 0 01-.38-.39c-3.79.75-2.09-4.11-2.67-4.86a2.91 2.91 0 00-.55.75c1.71 3.55-2.27 6-2.47 9.71 1.71 1.33.57-2.22 2.09-3 .56-1.5 2.47-.75 3.61-1.87.38 0 .76-.19 1.14 0 .93 4.1-4 .56-4.56 3.93-.38 1.87-1 3.36-3 4.29-1 .39-1.89-.17-2.85-.55.19 1.3-1.52 1.69-2.65 1.3-.76.39-.38 1.11-.58 1.67 0 .39.38 1.51 1.14 1.14a.41.41 0 00.38-.38c0-.76.57-.92 1.15-1.32 3 2.43 3.41-1.86 6.45-1.47 1.7 1.11.74 2.79.94 4.28 1 1.31 2.09-.18 3.23.37.76-.19-.2-.55-.2-.93-2.27 0-.76-2.61-1.13-3.72.19-.56.57-.94.37-1.7.2-.36.58-.92 1.14-.73.76 1.11-1.13 1.31-.38 2.23.58.75 1-.36 1.52-.36 1.34 1.67-1.52 1.48-1.89 2.43 1.13 1.3 2.47-.2 3.8-.4 1.7-.72.76-3 1.89-4.28.38 0 .77.38 1.14.56 1.14.93-.38 1.69-.76 2.05 1.52.75.19 2.43-.38 2.62.57.73 1.14.37 1.9 0a2.34 2.34 0 00-.18-1.87c.94-.94.94-2.42 1.7-3.94a.69.69 0 01.57.19c-.38 1.14 2.27 0 1.32 1.88 1.13-.18 2.29-.57 3.42-.74.94-1.14-.76-2.45.94-3.2-.18-1.28-1.32-.36-1.9-.92.38-1.31 2.11-1.51 2.66-2.43 1.71-.19-.56 2 1.53 1.48.57 0 0-.72.38-1.11.56-.17.38-1.29 1.32-1.12a24.67 24.67 0 01.19 3.74c0 .56-.75 1.86.19 2 .58-.94 1.52-1.49 1.52-2.8 1.33-.92.77-3 2.09-4.1.19-.37.56 0 1 0a5.17 5.17 0 01-.39 2.42 1.24 1.24 0 001.71-.56c1.91-.92 0-3.72 2.28-4.67 1.33-.94.57 1.31 1.9.55.57-.92 2.08-.92 2.66-1.85a5.81 5.81 0 013.61.18c2.09.37 2.47-1.69 3.41-2.81.58-.18 1.72-.56 2.09.2.38 2.23-1.9 3.54-3.23 4.48.58 1.12 3.05.56 4.37.56.95-.94 1.33-3 2.27-4.12 2.47-.17 1-2 2.1-3.17 2.47-1.12.37 1.87 2.09 1.87 2.09 0 2.66-1.87 3.61-3.35.56-.56 1.32 0 1.51.56 3 1.3 2.48-2.45 4.55-2.82 1.15.75-.75 1.7-.18 2.06a3.72 3.72 0 002.09 0c.94-.55 2.09-1.13 3-1.69l-.56-.37c0-.56-.76-.94 0-1.3.37-.37.75.36 1.12.36 2.67-1.67.39 2.81 2.67 2.25 1.15-1.69 3.8 0 4.56-2 1.51-.38 4-.38 4.74 1.11 1.9-.37 3.23-2.62 5.33-1.11 1.7-.56 4 1.3 4.17-1.51a.7.7 0 01.95.19c.57.37 2.1 1.68 3.42.76 1.7 1.67 3.23-.76 4.73-1.31a6.86 6.86 0 005.89-2.24c-.94-.19-.94.56-1.88.56-1.53-.38-2.66.36-4 .74-1 .94-2.66.18-4 .55-1.52.39-.76-1.86-2.28-1.31-1.89.56-3.23-.92-5.12 0-1.34-2.42-2.86.94-4.57.76-1.14 0-.18-1.12 0-1.68 1.91-.39 2.1-2.62 3.43-3.56 1.32-.19 3.41-.56 3.79 1.3 1.71.37 2.67-.56 3.79-1.1a7.94 7.94 0 007.41-3.38c1.89-.19 2.27 1.7 3.79 2.25 1.14.93 1.33-.74 2.09-.94 3-1.87 1.52 2.61 4 1.87 1.32-3 4.75.36 6.27-2.79 1.14-.39 1.51.92 2.65.92.2.36-.38.36-.18.56-.38 2.23 1.7.95 2.85 1.31 1.7-.75 4.17-.95 4.93-2.81-.56-.56-1.71.38-2.47.75-1.9 0-2.85-2-4.75-2 0-.94 1.33-1.69.76-2.61-.38-.39-.76 0-.95.16-.76 2.81-4.18 2.45-6.26 3.18a10.17 10.17 0 01-3.43.19c.95-2 3.43-2.61 4.19-4.67 1.89.19 2.85-1 4.55-1.11.58-.2.38-1 .2-1.31.18-.2.38-.56.76-.37.94 3.17 3.23-.75 4.93 1.48a5.44 5.44 0 004.94-2.23 2.14 2.14 0 00-2.09.56c-.76 0-1.52.75-1.9-.2-.38-3-2.65.76-4.36-.36 0-.94-1.34-1.69-.58-2.81h-.55c-1.34-.36-1.15 1.31-1.34 1.87-1.89 1.14-1.7 4.12-4.74 2.81l.19-1.51c.57-2.23 2.85-3.73 4.36-5.4.18-1.33.18-3.2.94-4.12.2-3-1.51-5.24-3-7.67a6.74 6.74 0 00-3.42-1.68c-2.47-4.49-7.6-4.65-11.77-6.54-2.47-.2-3.43-2.06-5.89-1.5-2.08-1.87-4.75.56-7 0-1.72-1.67-4.93-1.31-7.6-1.49-2.08-1.86-5.31-.38-7-2.25-4.37-.16-9.12-.72-12.73-2.79-.38-.57.19-1.13.38-1.69-1.52-.74-4 1.12-4.56-.74-2.09 2-4.36-.56-6.46-.93-2.09-.19-4.17 0-5.69-1.12 0-1.86 2.48-1.5 3.6-2.42 4.56-1 9.11-1.7 13.86-2.8 1.91-.2 4.18-1.15 5.32.36a5.52 5.52 0 002.66-.56c1.71.56 3.61-1.87 5.32-.75.19.75-.38.75-.57 1.11.57.2 1.14.76 2.09.56 1.52-1.12 3.41.77 4.37-1.12l-.58-.92c-1.32-.55-2.08.76-2.85 0 .38-1 1.72.17 1.72-1 2.47 0 5.32.4 7-1.3 2.47.19 4.37-1.48 7.42-.93a5.38 5.38 0 013.79-.36 4.35 4.35 0 01.94 3c-1.52 1.31-3.79 1.47-5.5 2.41-2.47.2-4.94 1.31-7.22 1a2.06 2.06 0 01-2.09.36c-1.52 1.7-4.55 1-6.46 1.32-3 1.85-6.45-.2-9.5 1.67.4.38-.18.58.4.75l6.44 1.5c2.86.92 7.41-1.5 8.74 2 2.1-.17 4.37-.92 6.45 0 2.46 3 6.26.19 9.3 1.52a2 2 0 011.33 1.68c3.23-.4 5.88-3.2 9.87-1.87 2.1.75 5.13 0 6.65 2.42 2.66-.55 5.13 1.86 7.22-.55 2.28 0 4.18-.76 6.07.36 3.43 0 7 .19 9.12 2.81 0 .75.38 1.87.76 2 .95-.16 1.71 1 2.46.2-.37-3.17 3.43-1.68 4.75-3.17 1.71.94 4.18.55 6.08.74 1.14.75-.2 2.23 1.32 2.43.77 0 .39-.94.39-1.5-.19-.73.76-.56 1.14-.56 1.52.75.56 1.89 1.32 3-.94 1.1-2.46 1.49-3.41 2.41.56.56 1.14-.16 1.71 0 1.52 1.51 3.42-.92 4.93.4 3.61-.56 5.89 1.67 9.31.55.19.56 1.14.17 1.14.92 1.52-.55 2.08.56 3 1.31.56-.93 1.89-.37 2.83-1.11.39.18.39.74.39 1.3.75.37 1.32-.38 2.09-.38 1.14 1.31 3.59.94 4.93.56.38 1.31 1.71.38 2.47 1.31v-.56c-.19-.37.38-.37.56-.37v-.36c.2-.2.38 0 .58-.2v-.36c0-.38 0-.94.56-.56v-1.5zm-11.94-25.4c1.14 1.31-.57 3 .39 4.29-1 .58-.76-.55-1.14-.93a4.12 4.12 0 01.75-3.36zm-4.36 3.74c.38-.18.56.18.76.18v.18c-.38.38-.38 0-.76-.18zm-26.59-.76c-.76-.16-.38-1.31-.58-1.87.58.2.82 1.12.58 1.87zm6.64-6.71h-.18c-.2-.36.38-.94.56-.56s-.18.36-.38.56zm5.7 11c0 .18-.38.18-.57 0a.83.83 0 010-1.12c.57.03.95.78.57 1.15zm2.28-6a.84.84 0 011.14-.75 4.9 4.9 0 01.2 1.87l-.76.55c-.58-.12-.76-1.07-.58-1.63zm2.47 5.62c-1 .17-1.71.93-2.85.37-.38-.2-.2-1-.2-1.31.77-.36 2.1.56 2.1-.76v-1.07c.57-.2.57.36 1 .75-.05.56.71 1.5-.05 2.06zM106.62 151h-1c-.38-.92.38-1.32.56-1.87 1 .19 2.85-.56 2.85.75-.33.74-1.65.55-2.41 1.12zm7.59.19a2.43 2.43 0 01.38-1.67c0 .35.19 1.29-.38 1.66zm4-2.06c-.76-.76.76-1.48.57-2.24.37.55-.2 1.47-.58 2.23zM115 145c-1.14.19-2.08-1.29-3 0l-.57-.17c.39-1.12 1.71-1 2.47-1.87 1.52-.58 2.67-.94 2.84-2.61.37 0 .2-.76.76-.56a1.49 1.49 0 00.58 1.87.66.66 0 01.93.56c-.24 1.86-2.51 2.22-4.01 2.78zm4.94 5.43a2.13 2.13 0 01.38-2.07c.57-.16.38.76 1.14.56zm5.13-5c-.38-.56 0-1.31.18-1.68.39-.39-.37-.75.39-.55a3.09 3.09 0 01-.64 2.19zm9.11-9.36c-1 .39-1.14-.56-1.14-1.11-.19-.56.19-.92.57-1.32a4.35 4.35 0 011.71.4c-.03.88-.98 1.27-1.17 1.96zm3.23.39c-.57.17-.75-.39-1.13-.55 0-.56.56-.76 1.13-.76zm1.52 1.31V137c.38.19.57.19.57.56a.7.7 0 00-.6.17zm5.89-.75c-.38-.19-.76-.19-1-.56 0-.95 1.71-1.31 1.91-.37.17.69-.57.7-.94.91zm7.22.56l-.38-.2c-.38-.36.18-1.11.94-.92a1.15 1.15 0 01-.6 1.08zm17.09-6.93h-.38c.38-.18.38-1.31.94-.56-.03.15-.21.71-.59.52zm12.34-4.1c0-.2-.19-.36-.38-.56.76-.36.38-1.11 1.14-1.49.19.38.75.38 1 .93-.46.14-.84 1.44-1.79 1.08zm2.66-3.92a4.7 4.7 0 01-2.28-.2c-.38-1.31 1.14-.92 1.33-1.87a2.79 2.79 0 011.71.75c.16.69-.6.69-.79 1.28zm13.86-1.7c-.57-.55.57-.55.77-.73-.03.32-.61.52-.76.69zm6.46-3.92a.72.72 0 01-.57-.18c.19-1.11 1.33-1.31 1.9-2.05h.56a6.85 6.85 0 01-1.92 2.22zm5.7-1.87c-.2 0-.2-.18-.38-.36l.38-.95a.68.68 0 00.56.19c-.21.36.17 1.08-.59 1.08zm2.46-2.61c-.94-.38 0-1.68.77-1.12a2.43 2.43 0 01-.8 1.08zm1.91-2.23c.38-.56.76-1.12 1.52-.56-.2.36-.58 1.28-1 .72-.37.16-.37-.04-.55-.2zm1.51 5.59c-.38.56-.95.19-1.33.38-.18-.93 1-1.49 1.52-2.25.2-.19.2-.55.57-.55.55.91-.4 1.63-.79 2.38zm-1.16-1.89c-.38-.38-.2-1.49.18-2a10.33 10.33 0 012.47-1.12c-.18 1.61-2.09 1.79-2.65 3.12zm-24.5-42.42c.18.19-.2.36-.2.56-.38-.2-.76 0-.76-.37-.18-.58.76-.77.96-.21zM189.23 74l-.38-.36c.38-.56 1.32-.39 1.9-.2-.2.56-.96.56-1.52.56zM257 76.79c.2.55-.37.55-.76.55-.18-.18-.38 0-.56-.18.2-.56.96-.16 1.32-.37zm-8.73-3.56v.19h-1.22c.44-.11.78-.64 1.24-.19zm.38 1.68l.37.56c-1.32 1.67-3.41.36-4.93.16l-.19-.74c1.73-.35 3.25 1.32 4.77.02zm-5.89-8.22a1.38 1.38 0 01.38 1 1.24 1.24 0 01-1.7.16c-.75-1.16.96-.6 1.34-1.16zm-4.93-1.31c.56-.17.18.39.56.55-.76.56.76 2.07-.76 2.25-.36-.93.22-1.69.22-2.8zm-6.65-1.31c.19.56.76.39.56 1.12l-1.13.74a3.47 3.47 0 01.59-1.86zm-2.47-.17c.56-.56-1.33-1.87.38-1.87l.76 2.43a1.35 1.35 0 01-1.52 1.31h-.95c-.38-1.31.78-1.31 1.35-1.87zm1.14 7.66c0 .19-.2.19-.38.19h-.38v-.38a1.12 1.12 0 00.78.19zM225.31 65a1 1 0 01-.38.76c-.94.16-.94-1-.57-1.31.57-.93.76.18.95.55zm-1.9-6.37c.57 0 2.47-.72 1.71.78-.38.73-1.33.36-1.71.17zm-4.37 1c.58.19 1.9-.75 2.47.38a11.32 11.32 0 011.49 3.51c-.19.55-.19 1.11-.56 1.3-1.72 0-4 .37-4.57-1.3 1.55-1.12-1.49-3.52 1.13-3.93zm-2.28 6.34a3.26 3.26 0 01.19 1.32c-.76-.04-.36-.8-.19-1.36zm1 4.12v-.94c1.13.39 2.28-.37 3.21-.37.2-1.49-2.66-.38-1.88-2.41.94-.56 2.08-1 2.84 0-.2.36.57 3 1.51.92 1.71-.56 2.85 1.11 4.56.75.57 0 .57.92 1.32.74.2 1-.56 1.51-1.32 1.87a19 19 0 01-6.46.2c-.76 0-.18-.56 0-.76.76-.55 2.1.2 2.66-.94-.18-.75-1.14-.55-1.52-.37-.18.37-.56.56-.38 1-.76-.58-1.71-.19-2.47 0 0 .56-.75.92-.38 1.31-.93.37-2.06.73-3-.19.33-.29 1.28-.09 1.28-.85zm-4.2-8a3.79 3.79 0 01-2.47 0l-.18-.38c.73-.82 2.62-.62 2.62.29zm-6.46.18c.77-.56 1.33-.18 2.28-.18a1.12 1.12 0 001.53.93c.38-.37.56-.2 1-.2a2.47 2.47 0 002.28.56c.38-.18.17-.36.17-.56.58.2.58 1.14.38 1.7a6.59 6.59 0 01-3.22.92c-1.7 0-4.18 2.26-5.13 0-.84-1.54.87-1.92.68-3.23zm-1.7 4.48h.38c0 .36.38 1.49-.38 1.49zm-3 3.36c-.37.56-1.32 0-1.9 0l-.56-.55c.68-1.92 2.06-.45 2.39.49zm.95 1.32c.57.19 1.33-.18 1.33.38-.57 1.11-2.85.37-3.23 1.67h-1.51c.11-2.11 2.58-1.18 3.34-2.11zm-9.12 3a9.75 9.75 0 014 0c-.38.19-1.33 0-1.71.56l.19.74a2.77 2.77 0 01-2.55-1.38zM211.64 76c-1.14 1.12-1.72 2.42-3.61 2.25-1.14-.39-2.28-1.13-3.79-1-1.52-.74-3.24 0-5-.55-.37-.94-.94-.38-1.71-.75 3-2.06 6.08.75 9.49-.39 2.1-.16 4 .56 6.09-.16-.11.6-.9.6-1.47.6zm2.65.75l1-.56.76.37zm3.54.06c1.09-.13 1.83-.76 3.11-1.18 2.09.93 4.75-.74 7 .56-.38.93-1.91.73-2.85 1.11-2.9 1.33-4.85-.13-7.26-.45zm11.66 2c-1.14 1.12-4 .36-5.32.56.76-1.12 2.67-.56 4-1.31.56.04 1.5-.16 1.32.79zm.76-3c-.76-1.31-1.9-.56-3-1.12-2.85-1.31-6.28-.19-9.5-.56-2.09-1.31-5.89.56-7.6-2 .56-.37 1.71 0 2.28-1a14.33 14.33 0 00-4.93-.56c-.2-1.11.38-2 .56-3.17a47.69 47.69 0 015.13-.75c-.19 1.49 1.89 1.87 2.47 2.81 1 2.25-2.28.75-2.1 2.06h-.37c.37 1.3 2.27 0 3 1.12 3.23-.2 6.66.36 10.45.18V73c1.9.75 4.75-.75 5.7 1.5-1.34-.15-.34 2.27-2.09 1.35zm1.51-5.24c.19-.92 2.85-.92 1.33-2.23l-1.33.73c-.56-.55 0-1.31 0-1.86 1.33.39 3.79-.17 4.18.93-.39.56.19.93.57 1.32a3.53 3.53 0 001.51-.39c1.71.94 4.37 2.08 6.45 1.5.38-.36.76-.72.56-1.31-.38 0-.56-.36-.76-.56.38-.74 0-1.3 1-1.49 1.14.93.57 2.8.57 3.75-1.15 3.17-4.94.56-6.83 2.62-1.52.17-2.28-1.32-3.81-1.5a3.25 3.25 0 00-3.44-1.47zm1.9 3.37c.38-.92 2.09-.36 2.86-.36-.2.92-1.72.55-2.48.73-.04-.14-.18-.14-.38-.31zM235 78.1l-.38-.58a2.16 2.16 0 012.09 0c-.19.58-1.15.58-1.71.58zm23.92 1.67l.58 1.12c-.76 1-1.9 0-2.85-.18-.76-.94-1.71-.38-2.66-.38-1.89 1.31-4.19 1.31-6.46 1.31-.18-1.87-2.66-.73-3.61-2-1.9.16-4-.56-5.89-.4-.94-.36.38-1.31-.56-1.67a8.39 8.39 0 016.45-.38l.19-.37c.57 1.11 1.9.37 2.66.95 4.37 1.31 8.74 1.11 13.49 1.11zm29.08-.16h-.38l.38-.4zm-23-3.2c2.28 1.13 4.56-.92 6.65.19 1.89-.75 3.61.19 5.32.74 3.79-.38 7.6.4 11.2.4-3 .72-6.27.36-9.3 1.47-2.85 1.32-3.79-2.42-6.84-.92-2.08-1.88-4.75.76-7-1.33zm19 7.29c-.57 0-1.14-.17-1.52-.17.37-.39.94.17 1.52.17zm-7.6-3c-.94.93-2.47.37-3.41 1.51h-4.75c0-1.87-2.09-.76-2.85-2.06v-.37a5.8 5.8 0 004.94-.18 31.94 31.94 0 016.06 1.11zm-15 .93c0-.56.2-.73.76-.56.2.56 1 .56 1.33.38l1.32.18c-.95.37-2.46-.17-3.42.01zm7.22 5.62c-1.33-.76-3.81.94-4.57-1.14-.18-.92.58-1.47.76-2 1.34 2.79 3.62-.2 5.52.92a4.09 4.09 0 01-1.72 2.23zm2.66.94c-.57-.38-.38-1.32-.57-1.88.94-1.67 2.09-.56 3.61-1.12.38.19.38.75.38 1.12-1.54.19-1.16 3.18-3.43 1.89zm4.36-.77c-.37.19-.56-.37-.37-.55s.37.18.37.18zm3.62 2.25l.18-.55.39.55zm.18-2.06c-.56.2-.56-.19-.76-.56v-.55c.58 0 1.15-.18 1.15.38-.01.38-.01.94-.4.74zm-4.36-4.84c.38-.94 1.9-.2 2.66-.76a6.11 6.11 0 003.61-.38c0 .2 0 .2.18.38-2.1.37-4.18 1.32-6.46.77zm9.92 7.47a1.47 1.47 0 01-.77.19l.77-2.61c-1.33-.2-2.1 1.11-3.43.55-.37-1.31.76-1.69 1.72-2.05.37.18.94 0 1.51.18.38.38-.38.76.38 1.12.95 0 1.71-1.5 2.66-.56-.24 1.87-2.13 2.07-2.84 3.18zm7.2 0h-.94c-.2-.37.19-1.31-.38-1.31-1.14.2-.76 1.87-2.09 1.31-1.33-1.11.76-2 1.33-2.81 1.9-.55 1.14 2.08 2.84 1.7.33.74-.61.74-.81 1.11z"/><path d="M258.74 68.18l-.2-.18h.2v.18zM32.55 174.17l-.38.36.38-.36M244.88 190.94zM243.92 191.7c1 .46.47-.61.93-.76a.7.7 0 01-.35-.16z"/><path d="M250.18 191.73a3.66 3.66 0 00-1.32 0c-.38-.19-.19-.92-.19-1.47 1-.94.75-3 1.9-4.12l-1.33.36c-1-.36.19-.94 0-1.12v-.79l-.95 1.31c.58 2.61-.37 5.24-1.51 7.47-.56.18-.38-.36-.76-.73.76-.39.38-1.14.76-1.7-.18-1.48 1.13-1.87.57-3.36h-.57c0 1.48-1.31 2.42-1.88 3.34a.7.7 0 01.36 0c1.14 1.12-.57 1.87-.95 2.79-.76-.2-.18-1.11 0-1.5-1.7 0-1.52 2.62-2.84 3.17-.56-.36-.18-.92 0-1.31 1.39-.84.42-2.78 1.25-4.09h-.32a4.69 4.69 0 00-2.46 3.17c-.55.92-1.12 1.68-1.88 1.87-.76-1.31.57-2.61.76-3.92h.18v-.36c-.56 0 0 .74-.56.92-.94 0-1.15 1.69-2.09.75-.19-.2-.37-.56-.19-.75a20.88 20.88 0 00-1.52 2.25l-.57-.4c-.76-.74-.19-1.3 0-1.85-.38-.37-.38-1.12-1.14-1.12-.94-.36-1.33-1.31-2.09-1.67a.58.58 0 00-.18.36c-.57.56-1.33.19-1.89 0-.58.56.18 1.51 0 2.43.18 1.13-1.33 1.13-1.52 1.85l.76.4c-1 .75-1.53 1.67-2.85 1.67a.82.82 0 01-.58-.56 2.26 2.26 0 011.9-1.51 1.33 1.33 0 01-1.14-.54c-.39-.37-.19-.56-.19-.93-1.89.56-.19 3.54-2.47 3.92a1 1 0 01-.94-.56c-.37-.74.57-1.3.77-1.86-.77-.55-.58-1.86-1.91-1.5.57 0 .77.75.95 1.11-.58.56-.39 1.7-1.33 1.87-1.14-.56-.19-2.23-.19-3-.75 0-.37.93-1.13.75 0 .56-1 .92 0 1.31.75 2-1.14 2.23-1.72 3.93-.19.36-.76.18-1.14-.2a4.15 4.15 0 01.38-1.5c.76-.93-.76-1.11-.76-1.31a1.57 1.57 0 00-.57 1.5c-.57 0-.76.95-1.52.56-.38-.19-1.13-.19-.94-.94-1.52-.36-2.46 1.49-3.6 2.44-.58.37-1.14-.19-1.52-.37 0 .56-.95.37-.77 1.13-1.32 0-2.08 2-3.41 1.3.2-.38-.56-.94 0-1.3-.76-.2-1 .92-1.72 1.1-2.27 0-3.79 2.07-5.88 2.23.38-.74 0-1.3-.38-1.85-.94.74-1.89-.56-2.27.74a3.42 3.42 0 00.76 3.54c.95-.36 2.09-.16 2.85-.92 1.89.36 2.84-1.31 4.55-1.51.77.2.57.95.2 1.51 1.33.76 1.33-.75 2.09-1.11 3-.2 5.12-3.18 8.34-1.87.76-.38 1-.94 1.32-1.7.39-.16 1-.36 1.33.2 1.9-1.12 3.05.74 4.94.36 2.27-1.29 4.38-3 7.22-2.59 1 .16 1.52 1.11 2.47 1.11 1.32-2.06 3.23 0 4.93-.75 1.52-.75 1.14-1.69 1.14-3a2.73 2.73 0 011.53-1.48 11.1 11.1 0 01-.76 4.84l.76.39c.38-.39.76-1 1.14-1.33 1.14 0 .56 1.7 1.14 2.25.74 0 1.12 1.14.93 1.5l.19-.56c1-.36 1.14.76 1.34.93V201a.7.7 0 01.56-.18v-.38c.38-.18.76 0 1.14-.18v-.37c0-.37 0-.92.58-.55v-.57c.18-.19.76 0 1.14 0v-.36c0-.38.37-.2.54-.2v-.36c0-.38.2-.2.4-.2v-.38a.75.75 0 01.56-.16v-.4a.81.81 0 01.58-.16v-.39c.18-.17.37 0 .56-.17v-.39c.19-.17.38 0 .58-.17v-.39c0-.16 0-.92.55-.56v-.36c0-.36.37-.19.57-.19v-.37c0-.36.38-.19.56-.19v-.36c0-.2.38-.2.38-.2v-.36a.7.7 0 01.58-.2c-.2-.32-.97.24-.59-.52zm-20.13 4.68h-.38V196h.58a.57.57 0 01-.2.41zm.58-4.48c0 .36-.58.2-1 .2-.37-.95.38-1.51.76-2.25a1.21 1.21 0 01.24 2.05zm12 7.29l-.38-.36c.76-.2.18-1.14.94-1.31-.03.56-.03 1.31-.59 1.67zm3.79-2.63H246a.42.42 0 01.57-.56c.2-.03.01.38-.18.56zM157.14 207.07c-1.72.56-1.72 2.25-2.1 3.74.2 0 .38 0 .38.18a4.3 4.3 0 004-3c-.96-.17-1.15-.92-2.28-.92zm.18 2.23a.92.92 0 01-.56-.36c.18-.36 0-.75.75-.75.38.39-.19.75-.19 1.11z"/><path d="M280.35 145.55c-1.71 0-3.6 1.31-5.31 0-3 .93-6.45.93-9.69.93v.19h.2c.56.19.18.75.38.93-2.67-.74-5.13 1.86-8 1.3-.58-.74.76-1.3 1.14-1.86 0-.18.18-.56 0-.56-1.52-.37-1.52 1.5-2.1 2.25a7 7 0 01-3.41 1.48c-1.33 0-1.52-1.11-1.89-2.23-1 0-1.14 1.87-2.29 2.43-.94.36-1.32-1.12-2.08-.2-2.29.56-1.91-2.23-2.67-3.54.19-1.86-1.31-3.53-.76-5.23a5.68 5.68 0 012.67-.75c1.51-1.87-2.28-1.12-2.1-3.17a3.32 3.32 0 00-3.79-1.49c-1.32-.74-.36-1.86-.76-2.61-.94-.38-1.13.92-2.27.56-.94 0-.38-1.31-1.14-1.7-1.71 1.33-2.85 3.19-4.93 3.75a1.79 1.79 0 01-1.91-1.11c-.38-1.31-.56-2.83-.94-4.11-1.14-1.51-4-.4-5.5-1-.2-.76-1.14-1.87-.57-2.79a3.21 3.21 0 00-3.42-.38c-2.65.18-1.33 2.8-2.28 4.48-.57 1.89-3.42.94-4.56 2.44.19 2-2.46.75-3 2.42.76 3.37-2.85 4.66-3.8 7.66-2.46.39-3.23-1.87-5.31-2.25-.57-1.31 1.14-3.54-.76-3.54-2.66.2.38 2.06-.76 3.37-.18 1.5-2.08.73-3.22 1.11-1.52 0-.76-1.69-2.09-2.05-.2 0-.57-.2-.76 0 .38 1.3 1.89 2.44 1.51 3.75-.38.73-.95 1.47-1.71 1.29-3 2.25-5.88-1.29-9.12-.18-2.65-.18-5.11 2.23-7.78 1.12v.36c.57.39 1.14 1.51 2.27 1.11.4.4 1.16.59 1 1.32-.38.39-.76.95-1.33.75-1.7 1.31-4 .2-5.89.94-1.89-2.81-1.7 1.51-3.79 1.11-1.33 1.7-3.61 2.43-5.13 3.74l1.52.19c.2.93-.76.75-.95 1.31-.38 2.79-2.45 5.6-4.17 7.66-.19.75.38 1.11.57 1.67-.2 1.31-1.71.95-2.29 1.7l.2.36-.2.2a5.48 5.48 0 01-1.7-1.15c-.57-3-1.52-5.6.38-8.57 1.32-.39.75 1.67 1.89 1.86l.76-1.3c-.57-2.43 1.14-4.32 2.85-5.43-.19-.56.94-.37.57-.92-.19 0-.56-.56-.76-.2-.38-.2-1.14-.36-1.14-.92.38-1.5 2.47-1.33 2.66-2.81l-.19-.19c-1.9 1.67-3.23 3.75-5.89 4.67a7.83 7.83 0 00-6.65 3.37c-1.9.18-2.28 2.43-3.79 3.17 0 .37.57.37.57.75a6.69 6.69 0 01-.2 3.93c-.75 2-3.22 2.43-5.31 2.43.58.36 1.53.16 1.71 1.11a.91.91 0 01-1.32.56c-2.67 1.69-6.28.56-9.12 2-2.46-1.49-4.17 1.48-6.45.92-.76-.16-1.71-.92-1.33-1.66s1.27-1.07 2.2-1.17l-.29-.14c-2.85.94-5.7-.75-8.36.38l.18.37h-.18l.56.56a1.52 1.52 0 01-.56 1.5c-.76 0-2.29.36-2.85-.94 0-.56 1.14-.76.95-1.31h-.19c-.2 0-.38 0-.38-.18-3 1.31-5.33.56-8.16-.38-4 .38-7.22-1.51-9.69-3.74a42.16 42.16 0 01-2.27-4.5c-.21-2.59-2.28-4.29-2.66-6.91a5.61 5.61 0 012.28-1.28c0-1.14-.38-3.2.38-4.32 1.32 0 2.27-1.11 3.78-.94.38-.55 1.71-.73 1-1.87a9.47 9.47 0 00-3.24-.72c-2.66.36-1.51-3.2-3.78-3.37-2.48-.75-4.38 1.68-6.84 1.68-1-2.43-4.94-.76-5.13-3.74 1.52-2.61-1.52-3.56-2.47-5.6a4.48 4.48 0 011.38-2.46 1.83 1.83 0 00-.57-.84 9 9 0 00-1-.26c-1.91-.56-2.67-2.61-5-2.42-1.32 1.12-2.47-.95-4-.95-1.32 1.14-2.65-.56-4 .39-.94 1.31.58 2.42.76 3.17a3.62 3.62 0 01-1.52-.38c-.38-1.31-2.09 0-2.27-1.31l.12.18c.38-2.43-2.27-1.51-3-2.82a1.85 1.85 0 00-2.84.75c-1 .76-2.09-.18-3-.36v.18h.2c.39.74 1.72 1.1 2.28 2-.38.2-.56.92-1.14.76a1.92 1.92 0 00-.76 2.41c.19 2.43-2.66 2.43-2.66 4.68 1.52 3.18-3.23 3.92-2.27 7.11.18.36 0 1.3.56 1.3.57-1.5.38-3.17 1.52-4.67.56-.56 1.32 0 1.88 0 1 .92 0 2.05.2 3.17 1.71.94 1.13 3.37 1.13 5-1.13 2-2.09-.73-3.41-.56-1.33-.36-.19-1.31-1-2-.94.36-1.52 1.67-3 1.3-1.51-.58-1.33-2.25-2.27-3.37-1.91-3.55 3.42-1.89 4-4.3 0-1.32 0-2.79-.92-3.74-3.62.19-1.52-3.93-2.66-5.6-1.52-.56-2.67.56-4.37 0a4 4 0 01-1-3.17c-1.34-1-2.66-.56-4-1 .19.57.38 1.31.95 1.51 3.61-.37 2.28 3.17 4.37 4.48.76 0 1.32 0 1.52-.76a1 1 0 01.76.38c-.38.38.18.18.18.55a24.58 24.58 0 01-2.09 2.26c-.58-.18-1.32 0-1.7-.74h-.57v.36c1.32 0 .57 1.51 1.32 2.23-.56.56-.56 1.51-1.51 1.32s-1-1.12-1.9-1.87c-.57-.56 0-1.3 0-2-1-.18-1.9 1.12-2.47 0-.58-.75-.38-2.25.38-2.45-1.34-.36-1.34 1.87-2.66.76-.38-2.25.94-2.43 1.9-4.12.38-.36-.38-1.3.57-1.3-1.15-.38-1.15 1.13-2.09 1.13-2.66-2.06-5.32.73-8-1-2.09-.18-1.71 2.43-2.85 3.37-.38.37-1.32-.19-1.52.56 3 1.67 2.28-1.7 4-3 1-.36 1.52.56 2.47.2.57.75 2.1.39 2.1 1.51-2.47.72-1 4.48-4.38 3.72l1.91.56c2.83.56 1.32-2.61 2.47-3.73.94 0 1.7-.55 2.46 0-.76 1.68 1 2.81.76 4.29-1 3.17-3.22-.72-4.37.94-.18.56-1 1.31-.38 1.87.95.17.58-1.12 1.53-.94.56 0 .93.38.76 1.11a1.67 1.67 0 01-2.29 1.7c-.38.56.19 1.11-.38 1.48-.39 0-.94.19-1.32 0 .18 1.13-1.34 1.31-1.15 2.44h1.33c1 .2.76 1.31 1.52 1.87 0 .92.38 2.42-.38 3.17-1.71-1.31-2.83 1.31-4.93.76-1.52.36-.57 1.28-.38 2 .57.94-.57 2.25-1.52 2.61-.37 1.51.57 3.37-.76 4.68-1.14-.94-1.52-2.61-1.71-4.1-1.33-.94-1.71.93-2.65 1.29a2.5 2.5 0 00.18 2.06c2.28 0 1.33 2.26 3 2.82.38.72.95.92.38 1.86-1.9 1.5-2.46 3.73-3 6.15-.95.95-2.65-.36-3 1.14.38 2.23-2.67 1.31-3 2.78-2.09 3.37-1.15-2-3.23-1.3-1.53 0-2.09 1.3-3.22 1.86-.76-.72-1-2-1.52-2.79L1.37 172h.38c.19 1.51 0 3.19.19 4.88h1.32c.58-2.25 2.67-1.69 4.37-1.87.94-1.31 2.46-.2 3.22-1.5a31.82 31.82 0 003.61-1.87c.76-.19.58.92.58 1.3h.75a7.1 7.1 0 012.46-4.3 8.68 8.68 0 011.15 2.25c1-.92 2.84.36 3.6-1.31.38.19.2.56.38.95 0 .36.58.16.76.56 1.91-1.32 1.91-3.95 3.79-5.06a3.67 3.67 0 00-.94-1.68c-1.51-.19.2 1.3-1.14 1.5s-2.28-.75-3.23-1.14c0-.55-.18-1.11.2-1.67.94-1.11 3-.18 3-2.25.58-.73 1.52-.18 2.28-.18 0 .76.19 1.51.95 1.68 2.08.57 2.08-1.86 3.23-3-.38 2.42-.58 4.67-2.1 7.1-1.32-.2.38-1.5-.38-2.06-.36.38-1.12 1.14-1.12 1.5-.2 1.51-1.34 2.81-1 4.12 1.14 0 2.1.75 2.48-.75.94-2.25 1.51-5.6 3.21-7.1 1.14 1.3-1.12 2.61-.74 3.73l.93-1.12c1.52.76.19 1.68.37 2.63 0 1.47-1.89.54-1.51 2l2.09-.39c1.9-.56 1.14-3.37 1.52-4.29.38-.19.75.18.95.56.19.2.38 0 .57-.19l-.19-.17c.38-.58 1.14-.75.94-1.51a4.13 4.13 0 002.09-2.81c.76-.36.58.95 1.34.95 1.14-1.33 2.08-2.81 3-3.92.2 0 .58-.2.58 0 .18.56-.2.92-.38 1.3-1.53 2.25-3.8 5-2.85 7.66.75.37.18-.75.94-.75a10.26 10.26 0 013-5.79c-.2 1.69 1.89 1.5 2.46 2.25-.76 2.42-2.84 4.49-3 6.91.76-.56 1.34-1.86 2.09-2.42.38-.2.57.17.95.36.75-.75 2.85-.56 2.85-2.23.19-.95 1-1.51 1.33-2.25a4.22 4.22 0 011.7-2.62c.38 1.5-.38 2.44-.76 3.92-.56 1.31-2.84 2.43-1.7 4.12.94 0 .94-.94 1.32-1.69 1.15-.73 1.53-2.43 2.09-3.55.37-.18.37.2.57.2.18 1.67-1.9 2.62-1.34 4.3 3-.56 2.66-3.74 4.37-5.43.58-1.12-.76-1.12-1.33-2.06-3.22.38-1.7-3.18-3.79-4.1a5.24 5.24 0 011.33-3.92 1.25 1.25 0 011.32.36c0 .39.38 1.31-.38 1.69a2.87 2.87 0 001.72 1.31 6.61 6.61 0 002.47-4.31c-1.52-2.06 1.7-1.86 1.89-2.81-.57-2.23-3-2.79-4.94-3.54-2.08-.55-.56-2.26-.76-3.73.2-1.14 1.71-.94 2.67-.75 1.14.56-.38 1.3.38 1.68 1.13.18 2.84 1.13 3.79-.2a1.94 1.94 0 011 .2c1.13 1.88.93 3.55.55 5.78-1.13.75-2.27 1.51-2.64 2.62.19.75.94.36 1.13.36 0 .39.2.94 0 1.34 1.14.75 2.27-.56 2.85-1.51.76-.94 1.71 0 2.28.56.37-.19 1.51.17 1.33-.75 1.51 2.45-1.9 3.93.37 6 0 1 .57 2.23-.37 3-1.14-.56-1.53-1.68-2.29-2.43-.94-.36-.38.92-1.32.56-2.28 2.42.94 6-2.66 7.85.38 1-1.53 1.87-.2 2.62.77.56 1.34-.2 2.1-.39 0-1.86 2.66-.36 2.47-2.42.57-1.67 3.42-.18 3.22-2.43 1.14-.92.58-2.81 1.9-2.81-.37 2.81-1.9 5.43-1.9 8.23l.38-.18c.58-1.87 1.91-3 2.47-4.86a.67.67 0 01.94.18c-.19.56.38.94.56 1.69 1.14.74 1.72-.75 2.28-1.13a1.21 1.21 0 001.53.75v.38h1.32c.76.56 1.52 1.32 1.14 2.43.57.73.2 2.42.57 3.17a13.32 13.32 0 00-.19 3.93c1.15 1.11-.56 1.87 0 3.34-.18.39-.76 1-1.32.76-2.85-2.23-2.47 2.44-5.33 1.49a2 2 0 01-1.13-2c-1.14-.2-1.14 1.69-2.28 1.89-.38.16-1.34.36-1.14-.39-2.09.39-4 1.31-6.08 1.67a3.3 3.3 0 01-.93-2.23 2 2 0 00-1.72.56l.57 1.5c-.57.36-.95 1.12-1.71 1.12-.19-.2-.57-.39-.57-.76 1-.92-1.14-1.67-.19-2.8-.57 0-1 .19-1.51.19a3.47 3.47 0 01-.4-1.51c-.75-.19-1.31.38-1.89.76-.75.92-.56 2.25-.75 3.17-.38 1.11-1.32 1.67-2.09 2.62-1.32.92-1.32-1.67-2.66-.19-.56-.18-.56-.56-.94-1.12.76-1.48-.2-2.43 0-3.92-2.09-.2-1 2.44-1.91 3.56.58 1.5-.56 2.61-1.51 3.53a3 3 0 01-2.28-.36c-.19-1.31 1.52-1.12 1.89-1.87l-2.85.37c-1.32-.56.39-1.67.2-2.43-1.52-.36-2.09 1.5-3.41 1.12 1.32-2.79 3.6-5.24 4.55-7.85-.95.38-1.33 1.12-1.89 1.86-1.71 1.31-2.46 3.56-4.18 4.87-.94-.55.77-1.31-.38-1.86-.56-1.88-1.89.19-2.84.55-2.47.93-.19 3.37-2.28 4.66-.38 0-.76.2-.94 0l.18-1.29c-1.32-1.14.19-2.25-.18-3.37a25.63 25.63 0 00-2.47 3.37c-1.13-.38-.58-1.5-.58-2.44a5.46 5.46 0 001-2.23c.36-1.06 1.66-2.27 1.51-3.34a12.71 12.71 0 00-2.64 4.46c-.76 1.69-.76 3.92-2.47 5.42-.38.18-1.14.36-1.34 0-.18-2.06 1.53-3.56 2.85-5.24a8.06 8.06 0 011.14-2.61c0-.39.2-.56 0-.75-.38 0-.76-.2-1.14 0-.94 2.23-2.27 4.12-3 6.54-1.14.19-.58 3.37-2.28 1.5-2.08.18-.19-3-.95-4.29a1.58 1.58 0 00-.95.17c-.76-.92-.56-2.25-.56-3.37-1.14 1.68-1 3.93-.2 6-1.13.94-2.27 0-3.6 1.12-1.9 1.3-3-1.49-4.94-.93-1.32-.56-.37-2.06-.95-3-.56.18.2 2.61-1.52 2.43-.56-.38-.37-1.13-.75-1.5-.57-.55-.57-1.49-1.51-1.31l-.09.9c.57.6 1.07 1.25 1.64 1.87s1.44 1.44 2.12 2.2c1.3 1.44 2.7 2.84 3.21 4.77a.9.9 0 010 .23c.74-.58.19-2.6 1.7-1.85a4.58 4.58 0 01-.76 2.25c-.36 0-.9 0-.94-.35a1.73 1.73 0 010 .39c.74.64 1.49 1.26 2.18 1.95v-.05c1-1.49 3-.74 4.75-.94 1.33-1.31 4-.55 5.88-.75 1.14 1 3.05.56 4.57.75.18.76-.76.94-.95 1.5-2.86 1.31-5.13-.38-8.16.37-1.66-1.64-2.31.44-3.71.87 0 0 .06.06.08.11a9.75 9.75 0 001.4 2.15c0-.06 0-.15-.07-.15.77-1.12 1.91-1.12 3.23-.92 4-.56 7.79-.75 11.39-.94.38-.37 1.15-.18 1.34-.56 2.27-.17 4-1.49 6.08-1.67 1.32-1.87 2.65-1.51 4.93-1.51.76-.16.95-.72 1.52-.16.38.72-.38 1.3-.76 1.67-1.26 0-2 1-3 1.24a.57.57 0 01.49.43c-.39.75-1.53.38-1.91 1.12a57.13 57.13 0 00-11.2 2.61c-1.33.38-2.85-.75-3.42.75-2.21.73-4.25-.27-6.79.17.73.74 1.46 1.45 2.07 2.09.34 0 .68.23.55.52h.37a.78.78 0 010 .4c.23.2.45.43.69.63a2.66 2.66 0 01-.46-.7 4 4 0 013.61-.76c.76 1.5 2.28.36 3.61.92a1 1 0 01-1 1.31c-1.81.17-4.47.61-5.76-.73a23.39 23.39 0 013.32 3.28 5.3 5.3 0 011.37.12v.18c3.41-.92 7.22-1.11 10.63-1.86 1.14.75 2.85.56 3.43 1.5.18.56-.39.36-.77.36-2.46 2.07-5.89 1.69-8.54 3a4.89 4.89 0 01-1.67.29 20 20 0 002.49 2.78c1.2.05 2.4.32 3-.65 2.86-.75 5.72-1.31 8.55-1.87a2.81 2.81 0 001.52-2 1.35 1.35 0 00-1.14.56c-.57 0-1.14.36-1.5-.2-.38-1.11.37-1.11 1.12-1.87-.38.2-.57 0-.75-.18l.37-.74c1.33-.38 2.28.18 3.24.36 3-1.67 7.2-1.67 10.43-2.81 1.14-.55 3.43-.16 3.62-1.85.19-1.49 1.89-.93 3-1.3a5.61 5.61 0 002.47-.94c2.09-.94 3.8.94 4.94 2.06-.19 1.87-2.47.92-3.61 1.67-1.33-1.11-1.89.56-2.85.92-1.89-.16-2.85 1.31-4.36 1.87-1.9-1.87-4 .94-5.89 0-1.71.38-3.61-.17-5.32.38-.76 1.32-2.84 1.12-3.41 2.63a2 2 0 00.75.94c.77.17 1.52 1.11.58 1.86-3-.57-2.47 3.35-5.51 2.43-1.52 0-1.15 2.78-3 1.86l-.18-2.43c-.75.57-1.89.18-2.85 0v.91c.17.08.34.13.5.21h.08v.07c1 .59 2 1.41 3 2l.91.55a.83.83 0 01.44.19v.07l.49.29c.33-.11.71.06.66.47l.15.12h.23c.11 0 .14.15.15.31l.25.19c1.24-.29 1-2.73 2.43-2.39.57.94-.18 1.69-.56 2.45 2.86.92 2.28-3.2 4.74-3.76.39.19.77.75 1.32.56.77-.19.77-.76 1.15-1.12 2.46-.19 2.66-2.81 4.37-4.29l-.58-.55c-.56.55-1.33 0-1.88.36.37.39.75.95.17 1.31-1.68-.2-2.46 2.43-4.35 1.67-1.14-.55.18-1.67 0-2.42.75-1.68 2.84-1.48 4.17-2.42a38 38 0 009.12-1.51c3.41-1.31 6.84-1.11 10.63-1.5.18 0 .38.39.38.56a5.44 5.44 0 00-4.08 3.33c-.77.38-1.34-.36-1.72-.56-2.09.56-4.18-.36-6.26.2-.75 1.49-2.67 0-3.79.74-.19 2.43 2.27.56 3.41 1.12-.76.55-1.53 1.87-2.66 1.5-1.91.73-2.27 2.42-2.83 3.91-.4 1.69-2.1 1.5-2.86 2.81-3.42-.56-1.33 3.36-2.47 4.66-.26-.63-.86-.5-1.45-.4 7.45 6.27 19 8.61 27.63 12a86.77 86.77 0 008.32 2.7v-.44a27.66 27.66 0 001.9-2.42c.32.94-.33 2.15-1.11 3.08 2.43.67 4.88 1.3 7.31 2 .31-.83 1.45-1.22 1.78-1.86.37 0 .56-.18.94-.38v-.38c1.33-.36 1.51 1.14 2.85.38 2.5-.33 3.39-3.1 4.34-4.79-.56 1.52 1 3.61-1.31 4.41-.18 1.5-2.08 2.25-1.89 4.12a5.39 5.39 0 00-.61.27 63.54 63.54 0 016.41 2.44h.3v.12c.14.06.29.11.43.18s.05 0 .09.06h9l-.2-.93c2.47-1.48 5.32-4.66 8-5.78 1-1.86 3.61-1.3 4.37-3.75.57 0 1.33-.36 1.51.39-.75.75-.75 1.67-1.89 2.23-1.9-.17-2.66 2.44-4.37 2.81-1.14 2.06-4.55 1.31-4.17 4.48.38 0 .94 0 1.14-.38 1.69-.92 4.17-1.68 4.93-3.35.75-.2 1.51-1.67 2.47-.75.76-.19 1.71-.19 2.09-.75.94 0 1.14-.56 2.08-.73.2.17.57.36.38.73a55.28 55.28 0 01-7.4 3.55c.38.18.38.74.94.56 2.85-.94 7-.18 7.78-3.17 1.14 0 .58 1.12 1.34 1.67 3.41-1.11 6.45-1.31 9.87-2.05.56-.37 1.13-1.12 1.89-.73 0 2-2.46 2.23-2.65 3.9h1.14V241c1.51-.92 2.66-2.07 4-2.79.56-.2 1.13 0 .94.56-1.15 1.31-2.66 2.41-4 4.12-1.32.92-2.28-.22-3.6.52h8v-.36c.58-.38 1.53-.16 2.09-.16.38-1 2.27-.39 3.41-.59v-.3a1.41 1.41 0 011-.2c.57-.92 2.27-.36 3.41-.56v-.36c.58-.19 1.34 0 2.09-.19v-.37a5.51 5.51 0 011.72 0c.27-.78 1.19-.65 2.11-.56a5.74 5.74 0 00.37 1.13c9-3.57 18.71-5.2 27.71-9 10.09-4.28 20.94-8 28.51-16.22a5 5 0 00-1.9 0v-.07c-.56-1.32 0-1.87 1-2.63-.57 0-1 0-1 .56-1.72.2-1.72 2.45-3 3 0 .19.2.55-.18.55a1.43 1.43 0 00.34-.06 6.14 6.14 0 00-.84.85 8.62 8.62 0 01-.83-1.15c-1.09.36-.64 1.57-1.1 2.48a32.53 32.53 0 00-3.2 1.75.79.79 0 01-.46-.3c.19-1.87 2.09-3.38 3.24-4.88.94-.56.94-1.87 2.08-2 1-3 5.5-1.7 5.7-4.88-1.51 0-3 .92-3.6.76l1.52.16c-.94 1.71-2.65 1.71-3.79 3.18-.2.38-.2.76-.76.56a11.38 11.38 0 01-3.43 3.37c0-2.43 2.29-3.93 3.61-5.42l-1.71-.18c-2.28 1.31-3.22 3.54-4.74 5.6-2.1.75-1.91 3.56-3.43 4.87a3.53 3.53 0 011.33.17c-.13.7.34 1.18.3 1.69-.59.43-1.18.87-1.79 1.28a1 1 0 01-.64-.33c.57-2.07-1.52-.39-2.28-1.51-.2-1.3.76-2.41 1.52-3.36 1.33-.37 1.33-2.06 1.9-2.79-.57-2.08 1.33-2.81 1-4.5h-.38c-.57 2.05-2.47 3.17-3.8 4.12.76 0 .76-.76 1.53-.76.56 1.7-1.34 3.37-1.72 4.88-.57.36-.38 1.3-.57 1.85-.95.92-1.14 2.26-2.09 3-.57 0-1.13.92-1.71.18-.38.38-1.34.38-1.14 1.3-.38.19-.95.93-1.5.37-.38-1.31.56-2.25 1.5-3A2.53 2.53 0 01201 222c-.76-.17-.38.38-1 .76-.37-.2-.37.18-.75.18-.76-1.86.38-3.36 1.33-4.86-1.9.18-2.09 2.81-3.23 3.92-1.34.76-1.71 3-3.42 3.75a.91.91 0 01-1.13-.38c.94-1.87.75-3.37 1.89-5 1.32-1.87 2.66-4.3 4.17-6.55-1.33 1.31-2.47 3-3.79 4.12-.2-.19-.38-.19-.57-.38-.57.74 0 1.14.37 1.69a1.94 1.94 0 01-1.89.92c.57 1-1.52 1.51-.19 2.24a4.49 4.49 0 01-1.15 3.2c-.18-.2-.55-.4-.38-.76h-.55v.15c-.37.76-.95 1.88-2.09 1.88-.76-.38-.95-1.14-.56-1.5-.4-.2-1.16.2-1.72-.2a3.49 3.49 0 011.32-2.23c1.15 0 1.15-2.05 2.29-1.69.18.2.18.56.56.39a2.24 2.24 0 00.2-1.51c.93-1.31-1.14-2.42.18-3.92.76-.94 1.52.75 2.28.2 1.7-2.07-1.15-.76-1.7-2.26-.39 1.88-2.49 3-3.61 4.11l.56.38c.56 1.13-.38 2.05-1.14 2.61-.38.2-.94.2-1.14-.17.19-.19.57-.75.38-1h-.38c.19.56-.76 1.32-1.14 1.87-.18.76.2.76.2 1.5-2.85.56-1.33 3.18-2.85 4.68-.76-.38-1.52.17-2.09-.38.38-1.12.2-2.05.57-3.35a3.32 3.32 0 001.9-2.45c-1 1.5-2.27-.36-3.41 1.12-.58-1.31 1.14-2.23 1.14-3.54.18-1.5 1.68-2.62 1.31-3.93-.19.38-1.13.76-.77 1.5 0 1.31-1.51.93-2.27 1.49-.2 2.81-1.52 4.86-2.28 7.29a3.76 3.76 0 01-2.85 1.87c-1-.56-.18-1.49-.38-2.43-1.52 1.12-2.28 3.73-4.55 4.68l-.39-.39c.39-1.31-1.32-2.06-.94-3.35 1.51-1.69 3.41-2.81 5.13-4.31-.39-.19-.58-.55-1.14-.55-.77.19-1 .36-1.14 1.31a.74.74 0 01-1.14 0c-.2-.76.76-.39.76-.76-.38 0-.76-.19-1 0 0 .2 0 .37.2.37a47.19 47.19 0 00-3.61 4.87.76.76 0 01-.76-.37c.94-1.12.38-3.19 2.08-3.57H166c-.38 1.32-1.71 1.32-2.09 2.63-1.15.19-1.53 1.31-2.65 1.49-.38-.18-.38-.38-.38-.55 1.71-.75 1.89-2.42 2.09-4.11.37-.95 1.7-.95 1.88-1.51-1.33-.56-.37.95-1.51.75-1.34-2.06 1.33-3.54 1.33-5.59-1.7 1.11-2.47 4.28-3 6.35-.94.92-.94 2.81-2.83 2.61-.39 0-.95-.2-.77-.75h-.56v.17c-.2.58-1 .58-1.34.38l.38-3.36c1-1.31 1.72-2.79 3.05-3.73 1.32 2.25-2.29 3.73-1.71 6.17 1.32-2.64 3.6-5.43 4-8.24-.76.59-2.27 1-2.27 1.7-1.34 0-2.1 1.11-3.43.93l.76.94a6.44 6.44 0 01-1.52 2.42c-.76.76-1.14 1.86-2.66 1.86.19.39.19.93.57 1.13a1 1 0 01-.76.38A19.12 19.12 0 00151 228l1.52.18a2.07 2.07 0 01-.38 2.05 1 1 0 01-1.52 0c.38-.55-.57-1.3.38-1.49-.56-.56-1.52.38-2.09-.18-.94-.94 0-2.25.2-3.17a16.5 16.5 0 00-2.48 2.79c-2.47 2.61-.56-2.62-3.41-.92-.57 0-.74-1-.94-1.51a11.76 11.76 0 00.37-5h-.18v.56h-.19l-.19 3.17c-.37 1.12-1.52 1.31-1.33 2.79a2.42 2.42 0 01-1.71 1.87c-1.32-1.87-1.7.95-2.84 1.13-1.91-.38.38-1.88-1.33-2.44a1.72 1.72 0 00-2.28 1.14c-1.33 1.48-3.05.36-4.37 1.48-.76-.75-2.09-.2-2.09-1.48a16.76 16.76 0 012.85-3.56c.18-1.51 2.09-1.69 2.66-2.81h-.76c-2.47 1.88-4.56 4.5-7 6.54-.95-.92.76-1.67 1.14-2.43 1.14-.36 1.14-.92 1.72-1.86-.38-1.69 1.7-1.5 2.27-2.25h-.95v.38c-.55.56-1.9.37-2.84.18a5.81 5.81 0 00-1.32 3.19c-1.33 1.48-1 3.9-3.05 4.85-2.08-2.62 1.91-4.49 1.34-7.3-1.72.95-2.28 3.37-4.18 3.93-.57-.56.19-1.12 0-1.86-1.13 0-1.33 1.5-2.27 2.05-1 0-.39-1.31-1.34-1.67.95-1.87-1.51-1.5-1.89-3-.58-.56.76-1.68-.38-1.86a.67.67 0 01-.95-.2c-1-.18-1.34.2-1.51.94-4.37.56.76 4.48-1.9 6.55A10.48 10.48 0 00103 230c-.76-.39-.19-.95-.19-1.31 1.13-1.51 1.51-3.18 2.85-4.3-.58-.19-1.34.54-1.9 0 0-.38.18-.38.38-.58-1.33.39-1.9 1.89-3.43 1.7.2-1.12-.94-2.06-.76-3.17-.76.92-2.08 1.31-2.65 2.42-1 .94-2.27-.95-2.09.94-1.33.2-2.46 1.12-4 .76-.94-.4-.94-1.53-1.14-2.45a37.38 37.38 0 014.75-6.35c-1.33-.56-1 1.5-2.28 1.11a1.2 1.2 0 00-.38 1.12c-.19.56-.58 1.31-1.33 1.11-1.89-1.67 1.15-3.15 1.72-4.64-2.49 1.3-1.73-2.07-3.61-2.07-.58 0-1.14 0-1.14.18l.19.18c1.51.2 1.13 2.07 1.13 3.38-.38 1.66-2.67.74-3 1.3 1 0 1.16 1.31 2.09 2.07-.38 1.11.57 1.67 1 2.41-.57 1.31-2.29.56-3.43.76-1.31-.2.58-1.5-.56-2.06a1.7 1.7 0 01-1.5.73c-.38-.17-.76-.17-.58-.73-2.28 0-2.65 3.17-5.13 2.61a1.42 1.42 0 00-.38 1.68c-.37.56-.19 1.67-1.33 1.31-.76-.93-.18-2.07-.18-2.79.56-.75.38-1.69.94-2.25.19-.56 0-1.31.38-1.87 1.53-.56.57-2.25 1.53-3.37h-1.2l.19.56-.57.2c.77 0 .19.56.57.92-.38.56-.57 1.49-1.51 1.67l.56.56c-.38 0-.56.74-.94.18-1.52.56-.58 2.07-.76 3.38 0 .56-.58.74-.76.56 0-.2-.2-.56 0-.76-.38-.37-.76 0-1.33 0-1.56-.84-.61-2.78-.28-4.25-1.07.52-1.46.54-2.38 1.07-1.13-.38-1.13 1.49-1.88.76a2.67 2.67 0 01-.2-1.14c-1-2-.76 1.5-2.09 1.14-.19-.2-.76-.38-.57-.76-.95-.18-.95 1.32-2.09 1.32-.58-.94-1.89.93-2.47-.56 1-1.5 1.9-3.73 3.23-5h-.18c-2.29-.56-3.81 1.67-4.75 3.34-.75.76-.38 2.81-1.9 2.81.2-.94 0-2.81.76-3.56.19-1.11-1.32-.72-1.14-1.67a2.61 2.61 0 011.53-1.86c1.88-.76.75-1.87 1.51-3.38 2.84-2 6.07-4.48 10.25-3.92 2.09 1.51 3.23-1.68 4.37-1.86 3.23-2.25 2.66 2.45 3.61 3 1.32-2.06 4-1.7 6.07-2.44.38-.93 1.52-1.51 1.72-2.23a8.71 8.71 0 00-3 1.49c-1.15-.19-3 .36-4-.56.38-1.33-1-1.49-.76-2.8a.81.81 0 01.76-.76c1.14-.74 2.08.37 2.46.76 1.15-.2 2.66 0 2.85 1.31 1.52-.58 2.67-1.7 4.56-1.14.17 1.14-1 1.5-1.33 2.08-.19.37-.19.92-.76.73.38.94 1.14-.56 1.9-.36 1-.57 1.52-1.31 2.64-1.87.39 1.67-1.51 2.23-1.69 3.73 2.85-.76 3.23-4.12 4.56-6.35 1.51-1.3 1.31-3.93 3.41-5.06.18-.92-1-.76-1.52-1.12.58-.56.76-1.67 1.7-1.5.59.39 2.66-.37 2.28 1.14.21 1.12-1.32.92-1.88 1.48l.94.39c.58-.39 1.53 0 2.08-1 2.29.56 4.75-1.12 6.66.36-.58 2.64-3.61 1.15-5.51 2.09-.38.73-1.14 1.31-1.14 2.23 2.48.75 3.43-1.12 5.52-1.31 1.32.55 4.35-.92 4.35 1.11a31.09 31.09 0 01-8.15 2.07 1.81 1.81 0 00-1.32 2.23 3.93 3.93 0 003.78-.37c2.47 1.31 2.65-2.42 5.31-2.24.77.93 1.15-.38 2.09-.18 0-.37.2-.75.58-.56.76-.56 1.52-1.51 2.28-2.06 1.89 0 2.85-1.86 4.36-1.86l-.95.74c0 3.37 2.67-.2 4.19 1.12 0-.75.56-.92.94-1.32a42.24 42.24 0 012.84-5.78c1.72-3-2.46-1.67-3.22-2.79a13.57 13.57 0 00-2.46 3.35 2.45 2.45 0 01-2.85 1.3c-.58.37-.38 1.12-1.34 1.12a1.46 1.46 0 01-.37-.92c1.9-2.81 2.27-6.54 4.74-9 2.66-1.11 4.76 1.3 7.23.94.76.2 1.9-.56 2.27.56 2.1 0 4 .93 6.09.93 2.46 2.63 6.45 1 8.92 3.55-.19.39-.38 1.12-.95.76-1.52.36-3 1.67-4.56.75-2.47 1.11-4.75-.2-7-.56-1.9.2-3.23-.95-4.95-.56-2.46 1.48-1.89 4.65-3.61 6.34 1 .57 1 1.87 1.91 2.07.94-1.31 2.84-1.31 4.37-2.25.38-2.25 3.41-1.12 4.55-3a14.25 14.25 0 012.66.74c-.19.94-1.7 1.69-1.7 2.43 2.27 1.51 3-2.05 5.3-1.69.57.59-.18.77-.38 1.15-.37.36 0 .74.2 1.11 2.45 1.12 3.4-2.06 5.12-2.44.76.38.18 1.33.38 1.87 1.14.2.94-1.1 2.27-.74 1.9-1.69 2.47-4.12 5.32-4.48a1.74 1.74 0 00-.38 1.67c.19-.19.38.19.57 0 1.33-1.87 4.37-1.11 5.88-3 .58.17.2.75.38 1.11.58.2 1-.19 1.52-.55a8.34 8.34 0 007.6-2.81c1 1.13 1.34 2.25 2.28 3.36 1.53.37 2.47-.75 3.42-1.49 1.52-.93.94 1.49 2.46.94 1.33-.56.95-1.87 2.09-2.43 1.89-.19 2.09-2.06 3.42-2.61a2.67 2.67 0 00-.38-1.32 6.27 6.27 0 001.7-5.22c0-.76 1-.93 1.34-1.12.38-.39.38-1.14 1.14-.95.75.76.37 2.07.37 2.81-.95.56-.38 1.68-.76 2.63-.57-.56 0-1.15-.19-1.51-.38-.2.19-.92-.76-.76-1.33 1.51-1.33 4.32-1.14 6.55l-1.32-.19c-1 1.13-1.72 2.08-2.67 3 .19.56.95.56 1.52.36 2.28 1.31 2.85-1.48 4.36-2.23a2 2 0 00-.56-1.86c.38-.59.18-1.31.76-2.06l.2.17c.56.38.56 0 1.14-.17a8.25 8.25 0 011.32-3.57c1-1.1 2.09-3.53 1.13-5.4a2.51 2.51 0 011.34-1.69c1.14.2 2.27-.75 3 .2.76 1.67-1.52 1.11-1.89 2.23-.18 2.8-3.23 3.19-3.42 5.81-1.14.72-.57 1.86-1.14 2.59.19 1.14-1.12 1.7-1 2.81 1.15 1.5 1.73-.19 2.66-.38a2.24 2.24 0 001.33-2.23c-.38-1.51 1.71-.76 1.89-1.67.2 1.11 1.72 2.05 1 3.36.18 1.48-1.14.56-1.9.92a2.58 2.58 0 00-1.53 2.45 2 2 0 01-1.89.92c1 .19 2.66.36 3.42-.36-1.91-2.26 2.08-.95 1.52-3l1.32.94a2.46 2.46 0 002.29-.19c0-2.62-1-4.48-1.91-6.9.58-.2-.17-.76.39-.95 1.14 1.5 4.17 2.42 2.66 4.87-.58 2.25 2.85.92 2.45 3 1.54.39 1.54-1.31 2.48-1.67 2.47.73 2.27-2.45 3.42-3.36l.94.36a12.25 12.25 0 002.47-4.3 1.75 1.75 0 011.89.2l-1.89 2.62c-.37.56.2 2.59-1.51 2-1 1.5-3 2.26-2.85 4.51.38.17.95.36 1.14 0-.94-2.25 2.64-1.52 2.47-3.57.75 0 1.33-1.3 2.46-1.3.18.19.38.19.18.36 1.71.2 2.66-1.31 3.81-.91a.67.67 0 01-.2.55l.58.36c1.89-1.11 2.83-3.54 4-5.23 1-1.12 1.72-2.61 3.05-2.81a20.59 20.59 0 01-2.66 4.12c-.57 1.69-2.66 1.69-2.85 3.56.38.36.18.56.76.75 1.89-1.7 3-4.31 5.31-6a1.9 1.9 0 011.72.74c.76.37.95 0 1.71-.19.38-1.86 2.65-.75 3.41-1.86 2.09 2.05-1.9 2.42-2.47 3.92l.57.56c2.66-.56 3.62-3.73 6.46-4.48 1.7 1.11-1.52 1.11-.4 2.62h.77c1.9-2.45 2.84-5.43 5.31-7.3l.2.19c.38 1.32-.76 1.48-1 2.43.37 2.59-3.42 4.11-2.1 6.71 3.43-1.11 5.71-3.73 8.74-6.15 2.09-.2 1.9 2.42 3.81 2.61 1.13 1.12 1.51-1.5 2.65-.94 0 .94-.76 1.69-.2 2.25a11.27 11.27 0 014.58-4.74 2.94 2.94 0 003.61-.74c.38 0 0 .38 0 .55 1.14-.17 0 1.3 1.14.94v-.36c0-.39.18-1 .57-.75v-.38a.71.71 0 01.57-.18v-.38c0-.37 0-.93.56-.74v-.38c.19-.17.38 0 .56-.17 0-.4-.18-1.14.2-1.5h.38v-.37c0-.38.38-.19.56-.19V171c-.18-.38 0-.94.58-.77v-.35c0-.18.38-.18.38-.18v-.37c0-.39.17-.94.55-.78v-.36c.2-.2.38 0 .58 0 0-.36.18-.74 0-.74a7.86 7.86 0 01-4.57 1.1c-1.7.95-3.42-1.86-4.75.2-2.27.19-4.55 1.13-6.44-.2-.57-.36-.19-1.3 0-1.86 1.34-1.11 3-.75 4.37-1.31 2.47.95 4.94-1.48 6.83.2 1.53.56 1.14-1.51 2.46-1.51 1.89 3 2.27-1.12 4-1.12.38.19.49.4.49.62.55-.79 1.09-1.59 1.66-2.38-3.37 1.4-7.1.5-10.66.34-.75-.2-.75-.95-.19-1.53.76-.18 2.27.56 2.27-.56 2.67.2 5.33.56 7.42-1.48.76 0 1.52-.19 2.09.37.36 1.23-.92 1.5-.76 2.61.24-.33.46-.68.69-1 0-.2.08-.32.25-.35.48-.7 1-1.39 1.44-2.11 1.72-2.7 4-6.69 4.33-9.95a1.69 1.69 0 01.21-.69 1.75 1.75 0 01-.13-1.29zm-226-7.65a3.27 3.27 0 01-.57-2.43c.76-.36 1 .2 1.14.95zm-7.35-.73c.57-.75.57.17 1.14.37l-.38 1.1c-.58-.54-1.16-.54-.76-1.47zm-15.57 2.42c-.37-2.42 1.14-3.56 2.28-5 1-.39.56.76 1 1.12.76 1.87-2.09 3-.39 4.29a4.68 4.68 0 01-1.13 2.8c-.95-.18-.95-2-2.08-.74-.58-.19-1.34.17-1.72-.56-.45-1.71 1.45-.99 2.02-1.91zm-9.69 25.78a1.84 1.84 0 01-1.71.39c-1.32-1.11-.56-2.42-.19-3.56.38-.72 1.72-1.12 1.14-2.23 1.34-.38 1 1.31 1.34 2.06-.02 1.31-1.55 2.24-.6 3.34zm14.82-10.82c.19.74-1.52.74-.95 1.86.37.37.76.55.57 1.11a7.72 7.72 0 01-3.61 0l.38-1.11c-1.14-1.3-4 1.67-3.41-1.68.36-.18 1.32-.18.94-.94-.19-.19-.58-.55-.94-.19-1.34 1.51-1.72 3.92-3.81 5h-.56c-.76-1.48.76-3 .56-4.29-2.46.56-1.14 3.93-3.41 4.48-1.13-.75 0-1.87 0-2.61 1.14-1.29 1.7-3.35 3.61-3.74-.38-.92-1.7-1.28-1.13-2.41 1.32-1.12 1.32 1.3 2.28 1.3a2.76 2.76 0 002.66.75c.74-.94.74-2.25.94-3.37.18-.95-1.34-2.25-.38-3.18.56 0 1.14-1.1 1.32-.18a3.14 3.14 0 00-.19 1.3c2.28.95 2.28-2.61 4.94-2.42.57.56-1.32 2.42.57 1.86a1.78 1.78 0 01.76 2.07c-.38.55-1.33.92-.76 1.67.38.75 2.08.75 1.52 2l-.2 1.68c-.58.28-1.91-.27-1.72 1.04zm3.42 6c0-.2-.19-.2-.19-.38-.38-.38-2.47 0-1.91-1.32 1.34-.73 1.91.56 2.47 1.12a.61.61 0 00.2.36zm9.11 4.67l-.58.37v-.75c0-.55.76-1.48 1.16-2a1.64 1.64 0 011.7-1.3c-.37 1.46-1.54 2.17-2.3 3.66zM52.3 154c-2.09-.75-3.41 1.12-4.75 2.23a3.82 3.82 0 01-2.65-3c.76-.76.56-2.25 1.51-2.81a9.12 9.12 0 015.89 1.89c.19.56.57 1.31 0 1.69zm4.56-7.86c.57 0 .76.93.57 1.31-.38.36-.38.92-1 .92-.52-.93.43-1.49.43-2.24zM80 141.07l-.19.2c-1.14-.36-1-2.63-2.48-3l.2-.74c2.12.2 1.93 2.06 2.47 3.54zm-5.51-11.39c.76-.74 2.08.56 3.22.56.58.37.77.93 1.15 1.67a2.65 2.65 0 01-1.71 2.45c-1.14.19-2.66-1.3-3.41.19.75 1.12-.39 2.6-1 3.73-.38.18-1.33 0-1.14-.74 1.32-1.12 0-3 1.9-3.74-1.26-1.89 1.78-2.05 1.02-4.12zm-7-1.3c.76 1.12 1.33-.75 2.28-.37 1.15-.38 1.53.56 2.86.17.18.56.94 1.5.94 2.25-1.14.56-2.09-.19-3.23.18-.19.56 1.33.94 1.71 1.5a6.61 6.61 0 01-1.89 4.12c-.58 0-1.34-.2-1.72.36 0 .19 0 .21.18.36-.09.05-.26.13-.37 0 .39-.39-.37-.56-.19-1.11 1.52-.4.58-2.07 1-3-.2-1.11.76-1.51 1.14-2.25-.8-.91-3.28-.35-2.71-2.21zm1.91 9.72a2 2 0 01-1.33 2.05c-.76.36-.76-.75-.76-.94.37-.57.37-1.67 1.14-1.87.37 0 .95.39.95.76zm-5-4.5c-.75 1 .38 2.82-1.13 2.82-1.14-.39-1-2.06-2.1-2.26.2 1.31 1.34 3 1.14 4.68-1.89.18-3.79-.94-5.69-1.11-.2-.39-.57-.94-.2-1.5.58-1.31 4 0 2.47-2.23-.76-.56-.37-1.51-.37-1.89.19 0 .37 0 .37-.2v-.36c-.95 0-1.14 1.14-1.89 1.69-.2.36.56 1.87-.58 1.31h-.55c.93-1.49-2.47-4.31.93-4.5 2.09-.55 0-4.66 2.85-3.18A3 3 0 0061.8 128c.56 1.29-.38 2-1.52 2.6-.57-.18-.57.56-1 .74a2.46 2.46 0 002.27.76c.38-.76 1.52-.76 2.1-.56l.57 1.12c.38-.37.56-1.68 1.7-1.12.58.75 3 .18 2.1 2-1.29-.12-2.43.82-3.57.06zm1.19 2.4c-.19-.56.38-.92.57-1.28.57-.2.57.36.77.72l-.2.95c-.38.4-.94.03-1.14-.39zm6.27 21.13c-1.14-2-.38-4.29 0-6.54a1.54 1.54 0 011.71-.75 4.64 4.64 0 001.14 3.16c-.71 1.55-.38 4.16-2.85 4.16zm4.94-8.6c-1.33.75-2.85-.2-4.17-.2-.39-1.3-2.09-1.11-2.85-2-.38.55 0 1.87-1.14 2-.56-.56.18-2.79-1.7-2.59-1-1.69 1.5-2.45 1.32-3.56.56.17.76-.19 1.33 0 .75-.56-.18-2.06.94-2.42.39.72.57 1.86 1.52 2a7.33 7.33 0 002.66.38c1-.56 1.33-2.81 3-1.86-2.28 1.67 1.9 2.81-.38 4.28 2.13 1.19-.33 2.69-.53 4zm2.28 14.78a2.18 2.18 0 00-1.14 0c1-.94.76-2.81 2.47-2.64a3.31 3.31 0 01-1.33 2.67zM17 184.44l.37-.36a1.4 1.4 0 01.2 1.86c0 .2-.2 0-.38 0-.78-.36-.02-.74-.19-1.5zm.57 5.62c-.2 0-.76 0-.76-.36.38-.75.57-1.33 1.52-1.14.36.56.17 1.7-.78 1.5zm3.58-2.23H20v-2.18h1.15zM204 224.64c.39-.39.95-.19 1.33-.78a2 2 0 011.32.59 2.72 2.72 0 01-.37 1.3h.78a7.51 7.51 0 01-2.77 1c-.5-.59-.81-1.59-.29-2.11zm-11 3c.37.56.18.95 0 1.5-.38.37-.38.95-1.14.95a3 3 0 011.14-2.47zm-8.54-.56h.56a3.1 3.1 0 01-.76 2.81l-.38.18c-.73-.95.41-2.07.61-3.01zm-4.75-2.59a3.38 3.38 0 01-.58 1.48h-.38c-.35-.38.03-1.89.99-1.5zm-1.34 4.29l.38-.39c.58.2 1 1.5.58 2.25l-.58.56c-1.3-.41-.35-1.51-.35-2.44zm-7 .75c.56 0 1.32-.2 1.14.56.38 1.31-1 1.67-1.52 2.42h-.38c.19-1.13-.19-2.44.77-3zm-7 8.77h.94v.56c-1.52.75-2.28 2.62-4.18 2.26a7.82 7.82 0 013.23-2.84zm-2.48-9.52a3 3 0 01-.57 1.67c-.38-.2-.76.56-.95-.2.18-.56.18-1.88 1.51-1.49zm-7.79-1.86c.38-.76 1.71-1.12 2.09-.4-.56.94.58 2.62-1.14 2.62-.38-.19-.2-.75-.2-.92-.19-.4-.95-.58-.76-1.32zm0 14.74a22.37 22.37 0 015.32-3.92l.19.2a22.68 22.68 0 01-4.94 4.48c-.38-.21-.96-.02-.58-.78zm-11.77-3.72c0-.94 1.51-1.5 1.71-.56-.2.17-.76.92-1.14.92s-.77-.02-.58-.38zm-26.58-9c.56.56.18 1.3 0 2.25H115a2 2 0 01.74-2.26zm2.08 9.35h.38c-1.71 1.31-2.28 5.79-5.31 4.29a.47.47 0 01-.2-.75 48 48 0 005.12-3.55zm-8.16-14.39c.94.38.75 1.7 1.7 2.45-.19 1.28-.19 2.78-1.7 3.35-1-1.12.94-3.19-.58-4.5-.01-.56-.2-1.31.57-1.31zm-1.72 15c1.14-1.12 1.33-2.78 3.24-3.35l1.33-1.3c0 .54.75.74 1.13.74 0 1.68-1.89 2.8-2.66 4.3.57 1.11-.57 2 0 3-.94-.19-2.66.75-3.42-.57.37-1.02-.57-1.94.37-2.88zm-10.64-13.15c.2-.36.58-1.28 1.14-.56 0 .56-.19 1.31-.94 1.12-.58.19 0-.56-.2-.56zm-4.37 1.15c-.18.54 1 .72.58 1.86-.2-.19-.38.17-.58-.19-.76-.57 0-1.31-.38-1.67zm-10.06-1.31c1.33.16 2.08-1.7 2.47.16l-.77 1.51a.79.79 0 01-1.31 0c-.58-.36-1.16-1.26-.39-1.67zm-18-.2c.38 0 1-.2 1 .36-.58.75-.2 2.45-1.52 2.45-.09-.76-.66-2.2.47-2.81zm-9.11-2.25c-.94.19-.38-.76-.76-1.12 0-.56.2-1.49.95-1.67.57.36.76 1.11 1 2a.84.84 0 01-1.24.79zm67-26.37c.19.2.38 1.34-.38 1.51-.39-.37.37-.95.37-1.51zm4.56 1.51c-.19 0 0-.37-.19-.56.94-.17.76-1.31 1.52-.95a2.56 2.56 0 01-1.34 1.51zm137.49-26.72l1.33-.93c.19.75-1.14 1.11-1.33 1.48-.2 0-.01-.37-.01-.55zm-.37 1.11c0 1.14-1.15 1.69-1.72 2.25a2.36 2.36 0 011.71-2.25zm2.27-22c.19.75-.37.94-.75.94a.85.85 0 01-1.16-.75c.39-.43 1.19-.05 1.9-.24zm-22.79 4.49a21.59 21.59 0 002.28-1.87c2.66-.2 4.93-1.12 8-.76a5.12 5.12 0 013.61-.56c.2 1.12-1.7 1.32-2.65 1.87-3.42.76-7 .94-10.45 1.87-1.9-.37-3.22.94-4.94.56-.19-.93.76-.93 1.34-1.49a3.62 3.62 0 002.8.33zm-4.55-12c2.27.55 1.32 2.23 2.09 3.91.17.74-.38 1.13-.77 1.68-.76 0-1.7.17-2.08-.55-.2-.56.18-1.32-.38-1.87h-1.14c-.01-1.5 1.51-2.25 2.27-3.17zm-7 5.4c1.14 0 1.71-1.12 2.84-.56.38.95 1.9 1.31 1.9 2.23-1.91.76-4.37 1.69-6.28.76-.79-1.12.93-1.68 1.5-2.43zm-10.68-13.84c-.57 1.15 1.15 1.87 0 2.62-.76.39-1.32-.17-1.71-.55-.19-.92-.75-2.63.38-2.79.76-.4.96.36 1.33.72zm-2.85-4.67l.76.19c.38.56.76-.19 1.32-.19.2.19 0 .56 0 .75-.18.75-1.13.55-1.7.75a1 1 0 01-.38-1.5zm1.33 18.9c.95-.75 1.51-2.07 2.47-2.45.19.75-.19 1.7.57 1.86.76 0 1.14 1.71 2.08.76 1.14-1.87 0-4.65 1.72-6.36 1.33.2 2.47-.18 3.61 0 1.33 1.87-2.28 1.51-1.52 2.81 0 .93.94.93 1.32 1.49-.76 2.25-2.84 3.93-3.41 6.18-2.28.55-4.93 2.23-7.22 1.11-1 .38-.76-.56-1-1.11 0-.56 1-1.5 0-1.87-.75.37-.75 1.31-1.71.95-.18-.95-1.7-.56-1.13-1.7.57.75 1.72 0 2.08-.75.05-1.12 1.57-.36 2.14-.87zm-6.64-9.16c.76-.75 1.52-2.43 3.05-1.87.36-.19.18-.94.94-1.11.76.17.76 1.29.38 1.86a6 6 0 00-3.79 3.57c-1 1.31-2.47 2.82-4.37 2.42l-.38-.55c1.7-1.53 1.89-3.76 4.17-4.32zm-3.42.92c.19.75-.57.94-1 1.31l-.38-.19c.04-.74 1-.74 1.38-1.12zm-2.85 4.86c-.2.93-1.33.56-1.9.93l-.19-.37a1.51 1.51 0 012.09-.56zm-2.85 4.5c-.19.55.19 1.11-.57 1.3s-.76-.38-.95-.75c-.19-.75.95-.75 1.52-.55zm-5.51-6.91c.2.72-.56.72-.95.92-.38 0-.75-.17-.75-.56a.88.88 0 011.7-.36zm-29.81 17.35c.94-2.43-1.91-7.27 3-7.64 1.33.37 1.7-1 3.23-.55l.18-.56c4.57 0 9.69-1.69 13.68.56 1.52-.56 3.61-.4 5.13-1.12h.76c.18.72-.76 1.48.38 1.86.93.18 2.46-.19 2.84.73-.76.94-2.28.2-2.84 1.12 1.14 2.25 5.12-.56 5.49 2.45-1.7 1.28-3.78.72-5.88 1.47-1.9.94-4.36 1.68-6.45.76-.95 0-.56 2-1.9.92.19-1.12 1.72-.56 2.1-1.48 2.27.92 1.14-2.07 3.41-1.51.19 0 .76-.56.38-.92a19.81 19.81 0 00-6.65-.19c-.76-1.86-2.85-.75-4.18-1.86l-.57.18c.57.56.38 1.49.57 2.43-1.32.92-.76 3-2.66 3.54-.18 2.81-3.79 2.25-5.88 3.19-2.1-.55-3.8 1.48-5.51.74-.16-1.48 1.37-2.63 1.37-4.12zm16.33 7.12a25.15 25.15 0 01-6.07 6.54l-1.53-.36c-.19-.76.75-.76.57-1.31 1.14-.56 1.33-2.26 2.47-3a2.56 2.56 0 011.52-1.86c.19 1.12-.38 1.3-.76 2.06 1.14.19 1.71-1.5 2.28-2.25 1-.92 1.14-3.17 2.28-3.55v2.1c-.95.12 0 1.24-.76 1.63zm-17.66-12c-.76 1.5-2.28 3.37-4 3.57.58-2.04 2.29-2.6 4-3.54zm-4.37 24.13c.95 0 1.9-.19 2.27.55.2 1.68-1.71 1.49-2.47 1.68-.37 0-.75 0-.94-.36.19-.73 1.14-1.29 1.14-1.84zm-4.18-8.41h.78c0 1.12-.58 2.43-.38 3.54-.76.56-1.91-.56-2.67.36-1.53-2.75 3.41-1.08 2.27-3.87zm.77 9.34c-.38.18-.77 0-1.14-.38a3.81 3.81 0 011.14-1.89c.18.58.56 1.74.01 2.3zm-3.05-11.59c.2-.2.95-.56 1.33-.2.38 1.12-.38 2.07-.38 3-.19.17-.57 0-.95 0a3 3 0 010-2.77zm.38 11.21c-.38.76.19 1.32-.56 1.68-.58 0-1.14-.19-1.14-.92 0-.91.94-2.22 1.7-.73zm-4.37-9c0 .56.38.56.2 1.12-1.14.17-1.14-1.32-1.52-1.87.76-.87.76.44 1.37.8zm-1.9 9c1.34-.74 1.72.76 1.52 1.68v.39c-.76.16-1.52.16-1.9-.39a2.47 2.47 0 01.38-1.65zM149 169.69c1.71-.37.2 1.31 1.14 1.67.2.56-.37 1.29-.94.73-.62-.35-.42-1.65-.2-2.4zm-5.93 1.31c1.72.36 4.19-1.31 4.57.94-1.9.92-4.19 0-6.27 1.29-.76-.18-1.71 0-2.28-.73.57-1.7 3.04-.2 3.98-1.5zm-9.68 2.05c1.14 0 2.66-.75 3.62.2.37.92-.76 1.11-1.14 1.67a14.49 14.49 0 01-5.71-.56c0-1.67 2.47 0 3.23-1.31zm-12-3c.19-.38 1.52-.56 1.33.56-1 .55-1.52 2-2.67 1.31-.14-.92.24-2.23 1.38-1.85zm1.71 4.29c2.47-.55 4.17.92 6.45.56l-.38.56c-2.28.56-4.93 2.61-7.4.92-1.14-.72-2.47 3.2-2.85 0-.13-2.38 3.08-1.26 4.22-2.02zm-14.62-3.73c.76 0 .56 1.11.56 1.48-.76.39-1.52.19-1.52-.55-.52-1.1.8-.16 1-.91zm-3.81-.39v1.14a1.86 1.86 0 01-2.27-.94c.42-.91 1.6-.18 2.31-.18zm-1.51 4.49c-.57.55-.57 1-1.32.75-1-2.43-3.24 0-4.57-1.51-.57.95-1.14 2.07-2.66 1.31-1.51-.36-.57-2.23-.57-3.34a7.61 7.61 0 01.38-1.7c1.71-.92 2.85.76 4.56.76 1.74 1.13 3.27 1.88 4.22 3.75zm-12.87-32.5c.75.17 1.71 0 2.08.75 0 1.12-.57 1.51-1.14 2.23a2.7 2.7 0 01-2.08-.16c-.15-1.12 1.14-1.87 1.14-2.82zm-33.81 42.63c1.71.72 3.23-1 4.94-1a22.38 22.38 0 0112.15-.84c-.19.92-.76 1.3-1.52 1.87-1.51-.2-3.23-.4-4.36.16-.2.56-.2 1.31-.76 1.31-1.52-1.47-4 1.89-5.89-.37-2.27-.56-4.36 3.74-6.07.56-.18-1.15.94-1.15 1.51-1.69zM46 188.37c-2.09 0-4.19 1.11-6.27 1.87-.77-.36-.38-.92-.94-1.31-.2-.73.17-1.12.94-1.12 3.6-.2 7.4.75 10.82-.75l-.19-.19c.19.19 1.52-1.29 2.47-.18-.57 1.12-2.08-.19-2.84 1.12a.73.73 0 01.18.56c-.91 1.31-2.99 0-4.17 0zm27.53 7.1c-3.61 0-7 2.81-10.63.75-1.33 0-1.51 1.31-2.66 1.69-1.9.37-5.12-.74-6.45.93-2.09 1.12-4.17-.18-6.26.74a7 7 0 00-2.66-1.11c-1.15.93-.76 2.79-2.67 2.62l-.38-.2.38-.36c-.18 0-.38-1.11-.94-.95-1-.36-1.9 1.68-2.29 0h-2.62v-.16c-1.32-.76-3.61.72-4.75-.76 2.28.18 4.19-1.49 6.27-.55 2.47-.2 4.37-1.34 6.84-1.5.38-1.12 1.72 0 2.47-.76a36.77 36.77 0 017.82-.75c2.47.2 4-1.67 6.83-.92 2.28-1.69 5.32-1.69 8-2.25a4.27 4.27 0 003.41-.56c1 0 2.66-.56 3.23.56a3.83 3.83 0 01-2.9 3.54zm6.27-.17c-1.32.36-2.84.73-3.42 2.23.19.56-.56.56-.94.75l-.56-.56c.38-1.11 1.52-1.5 1.7-3A2.44 2.44 0 0078 193.6c.58-1.47 1.72-3 2.47-4.48l-.37-.75c-3.61-1.12-5.33 2.25-8.94 1.33-1.7.72-4.75-1.33-5.5 1.28-1.9.2-3.61 1.31-5.31.2-1.33.75-2.85 2.06-4.37.95-1.71.55-3.61 2.41-5.32.72 2.85-2.23 7-2 10.63-3.35a60.17 60.17 0 008.56-2.44c2.27.75 4-.75 6.07-.75 1.51-.17 3.42-.93 4.75-.17 1.52.55 1.14-2.62 2.67-.94-.38.94-1.33 1.86-1 3-.79 2.42-3.44 4.29-2.5 7.1zm10.67-2.3c-3.21 1.49-.38 4.5-1.13 7.11-1 .37-1.33 1.31-2.08 1.87-1.34-.75.56-2.43-.4-3.17-1.7.92-3.41-.56-5.13-.2 0-.17-.37-.55 0-.75 1-1.86 4.19-.94 5.89-1.3a3.24 3.24 0 00-.56-3c-.94.92-2.48.37-3.42 0 0 0-.37-1.11.38-.95.94-.36 1.14-3 2.66-1.47-.2.73.38 1.67.58 2.23.36-3 1.13-6.35.18-9.36-.38-1.1 1.51-1.1.76-2.22-1.34-.37-2.1-2.06-3.24-2.06a24.19 24.19 0 00-.94 3.36H82.9c-.58-4.3-.2-7.85-.2-12.13a3.92 3.92 0 00-.38-3.56c.2 0 .2-.2.38-.2.76-5.21-2.09-12 3.41-15.12 1.9-1.33-.76-2.25.94-3.76.2-.72-.57-.72-.94-.92a1.35 1.35 0 01-1.51-.94c.57-.55 2.27-.37 3.22-.17.57.73 1.51.36 2.27.73v.38c-.76.36-2.28.76-2.47 1.87-.56 1.48.95 2.43.58 3.73-.19 1.87-2.85.75-3.42 2.62 1.14 3.54-1.71 6.34-1.33 9.53a15.86 15.86 0 01.2 6c.76.76 2.08.56 2.65 1.7 1 3.18 3.23 5.59 3.42 8.78.19.55 1 1.11.37 1.86-2.08.94 0 3.18-.56 4.67.19 1.52 1.7 3 .94 4.84zm0-28.21c-.76-.93 0-3.54-1.9-3.16a9.89 9.89 0 000 4.66c-.37.56-1.14.2-1.51.75 0 1.48 1 2.81.2 4.29-1-.36-2.68-.18-2.68-1.67h-.37c.19-1.12.57-2.25.19-3 .56-1.11.19-2 .76-3 1.14.38.76 2.24 2.1 2.41 1.13-2.59-2.67-6-.4-9a6 6 0 013.61-3.73c1.33 1.3.76 3.37 1.53 5 2.66 3.17.76 8.21 5.89 9.16.18.75 2.83.92 1.89 1.86-3.23-1.17-8.55-.04-9.31-4.54zm11.41 20.76c-1.54 0-2.67-1.5-4.57-1.14-.2 0-.2-.36-.2-.55 1.72-.37 3.61-.92 5.52-1.48l1.14.16a3.86 3.86 0 01-1.89 3.04zm3.79 9.52c-1-.56-2.28.93-2.85-.56-.19-.55.57-.36.76-.94 1 0 2.09-.36 2.65.56a2.34 2.34 0 01-.56.97zm5.51-2.81a5.14 5.14 0 01-3.42 0 2.53 2.53 0 011.32-2.41c-1.7-.38-4 1.3-5.31-.38-.37-.55-.76-1.3-.19-1.89a16.91 16.91 0 015.32-.74 11.36 11.36 0 01-.2 2.45c.76.56 1.52-.37 2.28.36a12.87 12.87 0 01.2 2.64zm7.4-7.29h-2.28c0-1.11 2.09-.36 1.72-1.67-.76-.18-1.52-1.12-2.48-.92-1 .72-1.71 1.67-3.23 1.48a.93.93 0 001.14 1.11c1 .2 1.72-.36 2.47.2-1 .74-3-.36-3 1.11.38.19.76.75 1.32.19 1.33.18 3-.19 4 .37-.19.74-1.52.56-2.1.94-.75 1.12-1.32 3.73-3.22 3.17-2.09-2.44-2.28-5.42-4.17-7.65-1.14-.2-3.41 2.59-4 .17 0-.73 1.52-1.11 1.14-2.23-2.84-2.62-5.69 1.12-8.74 0-2.46.19-1.14 3.37-1.7 4.65.56 1 .56 2.25 1.89 2.62 1.51 0 2.84-1.31 4.57-.37.55.37.55 1.51.38 2.07-.58 1.11-2.29.56-3.24 1.49-1.51.18-3.23-.55-4.56 0-.18 1.48-1.32 3.16.58 3.74-.2.73-.76 1.48-1.52 1.28-.58 0-1.33 0-1.52-.55a8.63 8.63 0 011.14-3.55c.76-3.36 3-6.17 1.52-9.34-.2-1.48-1.52-2.79-.38-4.3 2.84.76 4.93-1.3 7.6-.94 1.13-.17 2.08-.92 3.4-.36 1.33 1.12.76 3.17 2.47 3.93l.38-.18c-1.52-1.69.38-4.68-2.47-5.62 0-.56-.38-.94 0-1.5 1 .19.56-.92 1.52-.92 1.14.17 2.85-.19 3.61.75.38.92 0 1.29-.76 1.87-.2.36-.94 0-1.14.72.38.56 1.14 0 1.52.39.56.92-.76.73-1.14 1.3 0 1.68 1.7 2.25 1.89 3.94.19.17.58.36.76-.2-.18-.75 0-1.31.76-1.47 1.33.36 2.66 1.11 3.81 0 .75-.56 0-1.51 0-2.27-1.34-1.49-3.43.76-4.57-1.3.2-.75 0-1.67.76-2.06a10.27 10.27 0 001.89.56c.19-1.31-.94-1.86-.56-3.35 4.37 2.43 4.18 8.22 7.4 12.32-.58.99-1.91.05-2.86.41zm4.56 0a.62.62 0 01-.2-.56c.39 0 1-.73 1.34 0 .38.97-.95.43-1.14.59zm6.45-1.11c-.76-.18-1.14-.18-1.52-1.12-.18-.56.58-.75 1.14-.75 1.15.75 2.85-1.3 3.81.55-.38 1.73-2.29.98-3.43 1.35zm2.09-3.55c-1.5 1.87-5.49-2.25-5.49 1.87-1.72.92-3-.55-4.75-.55-.38-.56-.38-.56 0-1.14a8.9 8.9 0 003.79-1.51c1.9.39 3.22-1.11 5.13-.72 1.9-1.69 4.17.16 5.69-1.69a2.35 2.35 0 012.47-.92c.76.92 1.71-.2 2.66 0 2.47-.2 4.37.55 6.46-.76.94 0 2.66-.19 2.46 1.31a3 3 0 01-1.32 2c-1.52-.18-3.61.56-4.37-.92-.2-.37-.76-.2-1.14 0-1 2.25-4 .18-5.32 2.44-2.28-1.07-4.37.07-6.27.62zm7.22 5.6c-.57 0-1.14-.56-.76-1.1.57-.76 1.33 0 1.52.54 0 .41-.38.41-.76.59zm3 .93c-.57-.37-.19-.56 0-.93.57-.18.95.2 1.33.56a1.19 1.19 0 01-1.29.4zm4.74 7.49a.67.67 0 01-.56-.2c-.19-.73.94-1.11 1.14-.36-.16.23-.16.59-.54.59zm2.48-5.24h-1.33v-.75c2.09 0 4.36-.92 5.88.95-.9.39-3.37 1.13-4.51-.17zm32.66-6.55c-.94-.16-2.28 0-2.84-.55 1.7.19 3.41-3.37 4.74-.75a2.28 2.28 0 01-1.86 1.33zm20.22-6.86c.18 1.1-1.15 2.77-.2 3.72-.19 1.12-1.14 1.87-1.14 3-.2.18-.38.56-.76.38 0-2.05 1.52-3.76 1.14-5.62l.38-.17c.19-.2-.38-.56-.76-.2 0 .57-.57.93-1 1.12-.75 0-.75-.92-.93-1.5.38-.72-.38-2.23 1.14-2.23.93 0 2.08.56 2.44-.36.02.54.4 1.46-.31 1.86zm5.88 3.55c-.77 1.29-1.15 2.6-1.9 3.74-.18.35.15 1.21-.52 1.26-.18.3-.52.49 0 0 .11-.18.16-.39 0-.54.19-.72.94-1.67.38-2.59-.57-.56-1.52-.56-1.9-1.12a10 10 0 011.52-2.81c1.14-.39 1.32 1.48 2.47.56.29.36-.09.92-.09 1.5zm3.42-9.15c-.76 0-1.14-1-1.14-1.7.56-1.31 1.52.17 1.9.94-.06.56-.62.56-.8.76zm1.72.14c0-.93 1.32-1.47.19-2.23.38-1.5-.57-3.17 1.12-4.1A11 11 0 00213 162c-2.46.37-3.8 3-6.65 2.79-1.32.55-.19 3.17-2.46 2.81a2.32 2.32 0 00-1.72.56c-.37.72 1 1.5-.18 2-1.33-.17-3.05-2.42-4.38-.73-2.84 1.67-6.83 2.07-8 5.41.56.38.37.94 1.13.75.19.55.19 1.67-.76 1.67a1.42 1.42 0 01-1.33-.92c0-.56.38-1.5-.56-1.67-.56-.39-1.15.36-1.15.73 0 .56.58.94.19 1.3-1.71 1-3.79 2.07-5.69 1.12-1.33.75-3.22 1.33-4.36 2.64-1.7.18-2.84 1.31-4.18 2.23-1.51 1.12.76 3.73-1.51 4.68 0 .56 0 .92-.58 1.3-.94-.74-1.14-2.45-2.28-3 1.14 2.25-1.89 2-2.27 3.92-1.72 2.44-4.57.38-7.22.74-1 1.12-2.85 2.63-4 2.63l.37-.38c-1.51-.55-3.21.74-4.36-.55a1 1 0 01.58-1.14 3.28 3.28 0 002.65-.56 1.34 1.34 0 011.9-.72c.37.36.95.17 1.33.17l.38-.56c-1.52-1.12-4.19-1.3-5.89-2.42-2.09 0-3.23-1.87-5.32-1.87-3-.95-6.27-1.5-9.3-3.17v-.56c3-.55 6.07-.75 8.92.75 1.72.37 3.61 1.67 5.51 1.29 2.09 1.87 4.75 1.87 7.4 2.05 3-1.86 7-2.61 10.07-4.64.19-2.27-1.71-3.57-2.66-5.44.76-2.42-1.71-3.92 0-6.15.38 0 .55 0 .76-.38-.19-.2 0-.76-.57-.95 1.14-2.43 4.18-2 6.46-2.43l.55-.55c.57 0 .77.75 1 1.11 1 .19 1.33-1.48 2.66-1.11a2.72 2.72 0 012.47-.75c1 1.3-.76 1.69-.94 2.61-1 1.31-1 3.93-3.23 3.54-1.14 1.7-.57 4.51-2.28 5.62a.71.71 0 00-.18-.56c-1.14.37-.58 2.07-1 3 .2.38.58.74 1 .38a14 14 0 014.16-1.69c.2-1.48 3 .39 2.47-1.68 2.28-.75 3.61-2.23 5.7-3a3.76 3.76 0 012.85-1.3c1.52-.92 2.28-2.81 3.22-4.32a3.66 3.66 0 00-1.32 0c-.38.76-2.09.95-2.47 1.87-.76.2 0-.56-.2-.73 2.67-1.5-.75-3.17 1-5.23a24.73 24.73 0 017-2.44 7.44 7.44 0 017.59.74c.38.59-.38 1.51.58 1.89 3.61-.56 7.21-1.89 9.68-4.31 1.52.2 2.27-.56 3.41-1.31.39.2.77-.36 1-.56 2.84.2 5.33-1.11 7.78-1.48.38-1.13 1.53-.19 2.28-.75a5.67 5.67 0 014.37-1.11c.76-.94 2.28-.39 2.84-1.5 1.71.74 2.09-1.14 3.61-.95.76-.56 2.85-.56 3.05.58-.38.55.75.75.18 1.31-1.14.56-2.47-2.61-3.41.19-2.66.56-5.51 1.31-8.36 1.86-1.51.18-3.41.56-4 2.43-.76 0-.76-.75-1.33-.75-1.89 1.11-4.75 0-6.07 2.06a8.39 8.39 0 00-3.79 1.68c.56 2.25 1.88 4.3 1.88 6.53-.93.2-1.32-.36-1.7-1.31 0-.17-.38-.17-.38 0-.18.75-.94 1.51-.18 2.26l.75.92a2.13 2.13 0 00-1.32 2.25c-.64.06-1.19.06-1.19-.52zm26.76-8.94h-1.33a.4.4 0 00-.38-.39c.16-.36 1.67-.56 1.67.39zm-3.42.56c-1.14.19-2.08 1.67-3.22.94-.19-1.89 1.52-2.63 2.85-3.55l.94.16c-.41.61.16 1.89-.61 2.45zm-2.66-4.32c-1.7-1.67-3.79 1.71-4.93-.92 1.9-.75 4.37-.38 6.07-1.49.95.18 1.91-.18 2.67.55.14 2.06-2.71.94-3.85 1.86zm-1.9 3.18a4.21 4.21 0 01-3.6 2.25c-.76 0-1.14-.36-.76-1.11.34-1.84 2.81-.76 4.32-1.14zm-13.1 20.4c.2 0 .2.17.38.17-.38.75-1.7.56-2.28 1.5-1.13 0-1.89.92-2.65 1.31.94-2.06 3.23-3.18 4.37-5.23.56-.76 1.13.16 1.7.75-.61.56-1.94.56-1.56 1.5zm5.13-7.68c-.19 0-.38 0-.57.39a20.42 20.42 0 01-1.33-3.57c1-2.25-1.71-3.72-.95-6.35.39 1.12 2.09.38 2.28 1.48-.57 2.07-.95 3.76.19 5.63a2.78 2.78 0 01.34 2.42zm4.37 4.87c.76-1.51 1.51-3.17 3.23-3.73a12.58 12.58 0 01-3.27 3.73zm4-4.68c.57-.36.95-.94 1.71-.94-.25.75-1.19.75-1.76.94zm1.51 3.54c-.18-1.11 1.52-1.31 2.48-2a3.79 3.79 0 01-2.53 2zm2.48-4.65a11.74 11.74 0 01-2.85 2.42c0 .17-.19-1.31.75-.95-.18-.72 1.52-.92.2-1.47.13-.76 4.5-2.81 1.85 0zm-1.34-5.62c-1.14 1.87-4-.76-4.17 1.67a10.41 10.41 0 00-4.75.94c.18.75-.56.95-.94 1.31-.76-1.11.38-2.42.57-3.56 1.71-.72 3.6-1.12 5.5-1.87 2.27.39 3.79-1.86 5.88-1.1 2.28 0 5.51-.93 7.23.93-.39.56-.2 1.87-1.34 1.68-2.9-1.68-4.98 2.44-8.03 0zm6.08 14.78l-.56-.2c.36-1.3 1.7-1.67 2.46-2.81a4.61 4.61 0 01-1.95 3.01zm7-6.18c-.38.75-1.32.92-2.09 1.3-.57-.38.19-.74.19-1.1.55-.4 2.26-1.68 1.88-.2zm-.38-5.6c-1.9-.39-2.85 1.68-4.75.92a1.81 1.81 0 01-2.09.76c-.56-1.12-2.46-.2-2.66-1.32 1.52-.16 2.1-1.11 3.81-1.11 1.32-1.31 3.41-.38 4.93-1.31a6.2 6.2 0 013.23.37c-.4.74-1.73 1.13-2.49 1.69zm2.65-1.33c.77-.17 1-.92 1.91-.36a.83.83 0 01-1 1.13c-.73.37-.35-.57-.93-.77zm5.52 4.7c1.32-.75 2.46-2.06 4-2.25l.18.38c-1.51-.38-1.33.92-1.71 1.67 0 .56.76 1.12.38 1.87-1.32-1.31-2.66-.75-4.18-.56-.19.76-1.14.37-1.51.56-.57-.19-1.72-.38-1.89-.94.9-.93 3.01-.73 4.71-.73zm-.57-8.8c-1 .2-2.66-1.5-3.24.37-2.27-.37-5.12 1.86-6.83 0-.19-.73.37-.93.57-1.48 2.47.37 3.79-1.12 6.08-.94 2.66-.56 4.37 1.31 7 1.31-.73.38-2.46.18-3.6.74zm12.34-8.21c-1.53 1.13-4.16 1.3-6.05 1.85-1.9.39-3.41-2.23-5.31-.36-.58-.2-.76.36-1.14.75-.39 2-3.42 1.3-5.13 1.68-.18.36-.37.93-.76.93-1.32-.19-3-.93-4.36-.19-1.52-.74-3-1.66-4.75-.94a.85.85 0 01-.94-.56c.18-1.29 2.27-.36 3-1.29a5.7 5.7 0 003.8-.74c2.46.55 3.8-1.51 6.45-.76.76-1.49 3.05 0 4.18-1.31 1.7-.36 3.59.56 4.93-.92 2.26.36 3.79 2 6.05 1.86zm8.36-.58c-1.14.38-1.71-1.31-2.67-.37-1.32.18-2.84 2.23-4 .37 0-1.31 1.15-1.67 1.72-2.42 1.51.55 2.47-1.12 3.61-1.32.95.56 3-.55 3 1.12a3.59 3.59 0 01-1.68 2.62zM225.12 208.74h.01-.01z"/></svg>