<svg xmlns="http://www.w3.org/2000/svg" width="150" height="300" viewBox="0 0 150 300"><title>blueflag-florida-icon-palmetto</title><path d="M87.57,43.31c1.33,3.45-3.68,9.54-1.28,2.78-.11-5.57-3.22,3.64-4.38,5C80.08,53,73,53.09,79,55c2.77,1.25,8.21-3.58,9-1.41-2.82,2.68-7.72,2.07-10.54,2.91C77.51,59,77.69,67,76.13,60c-.85-4.49-2.7,6.57-3.51-.23-2-7.8-5.06,4.7-4.82,7.38,2.78,1.25,3.42-7.22,3.64-1,.38.82,4-2.71,2.1.94-2.28,4.53,6.17.56,7.38-1.56,3.31,2.61.08-6.15,3.94-3.35-3.27-4.57,8.51-4,2.59-2.15-5.09.81,4.4,6.34,3.65.46,1.06-2.05.05-5.09,3.06-4.85-1.18-5.93-6.49-4.9-10.63-3.09-2.62.25,5.47-3.89,7.34-3,4.35-.13,8.33,8.19,9.64,3.67,2.19,1.87,6.81,3.34,2.77-.55-1.46-1.72-9.68-6.16-3.16-6.07,2.94,1.41,6.48,2.83,2.57-.83-1.24-2.24-3.77-1.33-5.85-1.49-3.52,1.36-7.2-2.68-9.36-2.35Z" fill="none" stroke="#000" stroke-linecap="round" stroke-linejoin="round" stroke-width="1.5"/><path d="M69.27,43.53c-3.45,2-5.55,11.79-9.48,9.27-.59-3.62-1.64-4.1-3.13-.95-3.84-3.9-9.6,3.13-14.6-.41-4.7.81,6,4.9,8.46,3.67,3.92,0-4,2.31.78,2.35,4-.34,13-4.14,9.71,3.32-.85,4.07,4.91.8,5.49-1.63,3.64-4.16,6.42-.65,7.27,2.58,1.16-4.12,1.3-9.33,6.63-9.67,2-2.49,3.74-4.63-1-3.22-3.79,1.35-4.14-.75-4.08-3.31-3.72.23-5.07,11-7.06,9-.1-2.38-3.48.68-1.61-3.25C66.77,49.35,78.09,37,69.27,43.53Z" fill="none" stroke="#000" stroke-linecap="round" stroke-linejoin="round" stroke-width="1.5"/><path d="M70.05,65.7c-1.81,2.63-7.3,4.55-2.55,8,1.76,2.66-.22,3.16-1.43,1.73.68,2.68-1.72,10.12-3.09,4.31,2-2.3,2.65-6.93-1.76-5.2-3.48-4.68-3.58,7.34-6.41,9.16-2.13,2.84-3.21,5.38-2.24.29,1.45-2.56,2.76-9.32-1-3.8-4.18,1.25-5.21,9.42-7,10.19-1-6.69,3.47-13.38,8.8-16.81,3.32-3.06-6.38.4-8,1.77-2.81,3.89-4,9.11-6.84,13.22-.08-1-.48-6.38-2.38-1.13C35,90.69,28.64,97.57,31.66,99c1.63-1.87,5-4.44,2.87-.09-.93,2.82-.31,8.19,1.59,2.51,1.5-3.37,2.21-3.65,1.84.19.94,5.47,0,10.63-1.07,16,4.92-3.75,3.61-11,6.9-15.84,2.86-.49-1.27,8.34.12,11.21.24,3.46,1.89,2.55,1.49-.34,3.83.2,2.38-9.07,4.78-12.14,2.29-2.26,5.88-8,7.92-7.44,4,1-.55,11.68-2.35,8.81,0-9.26-6.45,8.35-1.28,5,5-2,6.87,8,.9,3.58-6.69-5.9-2.62,5.67-.31,8.07,0,2.47.46,11.41-3.14,7.15C48.68,130.2,45.81,137,50.6,141.7c2.46,1.13-.17-6.33,3.29-2.52,1.27,2.11,6.25,7.61,3.21,2-3.77-4.43.81-6-.08-11.21.4-3.06,1.29-11.77,2.28-4.12,1.47,6.66,1.1,13.6,2,20.37,1.23,20.65.32,41.41-1.32,62,1.3,6.58-7.17.74-9.2,4.59,1.56,3.74,9.53-.06,8.82,4.63-.74,3.07,1.08,8.58-2.09,9.58-7.07.37,4.29,5.5,1.18,9.33-.53,1.63-.21,9.75-2.41,6.1-3.63-4.7-10.09-9.9-15.42-4.21-6.54,2.81-7.46,9.48-4.45,15.49-.17,3.07,6.74,6.07,5.06,4.38-5.27-1.65-4.1-7.19.86-7.86-3.31,2.42,0,5.28,2.47,4.79,1.51-5,4.12,4.1,3.88-1.35,2.14,2.29,2.33.52,1.21-1.1,4.72,1.86-3-4,2.72-1.39,6,2.53-6.57,10.67-6.11,3.17-.52.44-3.73,6.23.48,4.19,2.49-1.15,7.1.47,7.88-3,1.06-3.67,3.14-3.56,1.85.57-2.53,6.15,8.8,4.19,12.72,4.43,2.64,0,4.69-.33,3-2.48,1.71,1.14,10.28,3.77,5.29-.44,3.27-2.81,10.63,1.84,15.46-.28,2.18-.54,9.21,3.83,3.15,3.21-5.57-.84-11.41-1.59-15.14,2.95-5.26-.61-11.45-3.47-16,.62-6.11-.61-12.41.39-18.6,0-5.45-1.6-11.78,2.11-16.37-2-5.47-.82-10.39,1.41-15.68,2.06-2.33,1.34-8-1.49-8.52.9.07,4,.19,8.1,5.45,5.62,6.14-1.93,12.58.85,18.59-1,5.87-1.09,11.91-1.11,17.92-1.54,6.68-1.06,13.19,2.1,19.71.81,2.66.45,9.06-.81,4.34-3.48,4.94-1.86,11.81,2,16.91-1.11,2.57-5.74,8.78,1.68,13.17-1.85,6.54-.82,13-.46,19.51-.8,3.75-1.66,7.34,1.26,10.89.88,4-1.45,8.32-1.51,12.32-2.65-2.38-3.93-10.57-.3-14.87-3.22a107.06,107.06,0,0,1-19.11-1.33c-3.69,1.11-6.32-1.69-7.94-2.68-6.64,2.54-13.89.34-20.79.9-4.91,1.25.38-2.91-.74-5.15-1.1,2-6.42,8.07-5.6,2.19-2.49,5.24-6.48,2.38-5.57-2.46,0-6.2-.81-12.62.74-18.65-.67-4-3.39-13.17,3.11-13.05,5.15-1-1.7-4.22-4.2-3.07-1.07-14.35-.79-28.81-.38-43.19.94-8.74.25-17.53.47-26.28,2.32,1.84-.42-11.55,2.08-4.83.43,2.29,1.33,13.56,1.92,6.14-.51-2.71.71-11.05,1.62-3.94.75,2.22-.21,11,1.77,9.67-.35-2.59.94-7.86,2.39-2.58,1.66.43-1.6-10.77,1.57-3.92,1.63-2.19-1.9-10.87-1.08-15.55,2.07.77,1.81,10.82,4,12.06-.27-3.65-1.42-11.38,1.66-5.27.26-6.18-1.56-12.37-2.22-18.54-2.07-3.86,3.35.57.75-3.54C82,109,83.11,99.53,76.13,99.39c-1.08,2.89-4.94,4.15-4,7.62-.4,6.31,1.65,12.51,1.06,18.81-1.6-.78-3.36-4.4-2.53.34.68,3-2.4,6.81-1.8,1.35.43-2.62-2.44-13.59-3.2-6.31-1-2.15-2.46-8.22-4-2.74-3.48,2.22.68-6.87.7-8.92.4-2.79.17-5.58-1.85-6.15.26-3.53,2.28-8.88,2.24-2.72,1.46,7.75,3.37-4.49,3.75-6.83-.34-2.62,2.24-8.46,2.18-2.5,1.77,5,2.22-7,1.89-9.22-.64-5.88,6.14,2.56,3.8-3.79-2.53-4.13-.92-9.64-1-13-2.32,3.87-1.65-1.33-2.9-.81ZM63,86.88c2,4.94-3.64,4.14-1.84-.32A2.6,2.6,0,0,1,63,86.88Zm17.28,22.78c.22,4.19,3.51,11.2.38,13.59a24.94,24.94,0,0,1-3-13.77c-3.67,2.59-.52-7.91.69-7.78C79.46,104.21,79.74,107,80.32,109.66ZM49.18,238.9c3.49,2.92-1.21,5.35-3.77,2.82-1.51,1.58-1.64,4.92-4.25,3.51-3.5.54,1.08,6.79-4.35,5.5-.45-2.3-2.17-5.9.59-7.37,1.89-4.16,7.81,4.26,4.46-1.3C39.69,238.23,47.29,236.56,49.18,238.9Zm5.54,4.9c3.13,3.28-1,8.84-3.38,5.66,4.12,0-.31-1.48,1.63-2.58-.74-2.08-7.45-.62-2.78-2.75C51.41,242.3,53.36,241.61,54.72,243.8Zm49.72,14.59c7,1.47-2,3-4,.48C96.19,257.3,103.75,257.86,104.44,258.39Z" fill="none" stroke="#000" stroke-linecap="round" stroke-linejoin="round" stroke-width="1.5"/><path d="M38.52,70.16c-6.14.41-7.72,6.83-13.34,8.23-3.61.66-6.18,3-1,2.06,3.4-.57-3,3.43-3,4.94-1.41,2.15-3.84,8.32.66,4.39,3.9-4.21.87,6.75,4.2,1.48,6.08-4.65.27,10.75,4.07,3.81,2-5.45-1.94-12,2.89-16.8,3.2-1.06,8-6.78,7.48-8.6l-.93.17Z" fill="none" stroke="#000" stroke-linecap="round" stroke-linejoin="round" stroke-width="1.5"/><path d="M81.75,70.16c-3.88,2.3,2.46,8.24-1.21,11.36-2.14-2,0-9.5-2.69-9.15-.8,5.73,1.79,11.23,1.9,16.94,2.15,0,4.86-.65,4,2.45C82.7,97,87.18,97.16,89,93c4-4.49,7.57,9.52,10.53,5.47-2.3-1.89-5.42-8.79-.3-4.87,2.73.63,7,7.09,4.22.77-2.24-2.19-5-5.92.09-3.35-2-2.52-5.59-7.33-7.85-8,1.24,6.4-2-2.81-4.37-.65-1.54-4-1.32,7.06-2.35,1-2.41-3.51,1.91-10.07-2.71-11.31-2.09,4.08,1.32,14.58-1,15.41-.18-3.74-3.66-4-2-7.87C81.06,77.43,87.09,68.27,81.75,70.16Z" fill="none" stroke="#000" stroke-linecap="round" stroke-linejoin="round" stroke-width="1.5"/><path d="M74,29.19c-9.7.93-19.59,1.59-29,4.29-.69,2.16,4.56,10.48-.67,6.39-1.35-5-4.23-6.79-9-3.93-4,2-16.44,2.09-9.32,8.27,2.45,1.39,6.49,9.93,1.51,5.09-3.09-1.52-6-9.43-8.91-7.07.81,2.31,7.78,11,1.9,5.28-3.94-4.07-4.89.08-1.12,2.47,2.65,2.77,9.47,4.14,10.27,6.86-5.37.81-11.16-5.4-15.71-.29.11,2.78,7.25-1.12,9.78,2C30.18,61.27,37.41,59,44,61.2c2,0-.4-4.68,2.76-1.57,2.37,4.83,10.31,2.83,10,9.91.88,4.74,2.2-4.49,3.36,1,.79,3.27,4-.12,5.18,4,4.83,4.37,1.91-2.32.19-4.39.68-3.46.89-9.32,1.75-11.82-1.75,2.64-2.94,3.75-5.13,4.2-3.18.79,2.69-9.14-3.56-6.49-1.6.26-11.06,2.55-8.18,0,3.59-2.27-6.59,0-7.93-2.86-2.27-1.1-3-1.88-.21-2.44-.72-3.69,2.45-4.07,1.57.07,2.42,5.11,14.08-3.84,5.14.1-.41-1,4.6-2.91-.45-3.81-2.54-1.33-13.7-3.44-4.79-3.15,3-.64,6.51,3,6.86.08,2,1.59,8.74,7.54,4.62,1.62-3.05-1.83-.27-5.59.39-8.1-.5-4.39,7.87,8,6.61,1.54-2.08-1.53-4.57-6.71-.43-4,2.08-3.38,5.64,7.41.75,7C63,46.2,64,49.8,59.9,52.77,64.43,54.64,66,44.19,70.45,42.6,76,40.87,74.3,29.69,81,32.68c-.59,3.69-4.65,7.55-4.5,10.81C82,40.32,86.84,36.06,91.8,32.1c3.4-2.74,2.38-4.05-1.33-3.36C85,28.74,79.46,28.91,74,29.19Zm14.12,1.86c-.35,3.33-6.52,5.34-2.41.68C86.35,30.56,89.48,27.42,88.09,31.05ZM73,34.13c.25,1.44-3.16-1.54-2.71,2.38-1.57,5.54-4.69-3,.19-3.44A1.44,1.44,0,0,1,73,34.13Zm-44.1,8.32c1.7,2.11,3.06,3.85.28,1-1.81-.93-4.88-6.31-1.17-2.13l.44.54Zm8-1.13c3.09,5-8.37-1.78-1-.59Z" fill="none" stroke="#000" stroke-linecap="round" stroke-linejoin="round" stroke-width="1.5"/><path d="M109,57.08c-5,.85-10.84,0-15.34,2.6,2.36,5.88-2.39,12.11,4,16.24,1.92,1.85,4.07,10.76.09,4.64-.14-3.13-2.85-4.26-2.4-.76-1.45-2-3.07-10.28-5.94-7,1.12,3.28,5.73,3.56,1.53,5.66,1.46,1.83,6.24,10.47,4.45,3.35,1.83,2.67,8.69,7.41,7.56,9.1-6.64-3.21,3.83,5.24,1.25,6.72-.91-3-10.92-8.43-6.75-2.3,3.08,2.76,2.39,5.64-1.3,2.24-2.31-3.07-5.36-8.83-8.45-3C83,99.85,84.76,90.21,83,89.13c-4.27,1.3-3.32-2.83-3.92-5.86-2.62-3-1-10.22-3.91-11.2-5.56.28,2.44,9.67-1.56,8.88-4.65-4.57-1.9,6.31-3,8.83-.87,4.09-2.15,4.78-2,.53-1.7-4.56-2.89,7.22-2.21,8,2.47-4.75,3.16,7.64,5.16.59,3.17-6.56,2.32,4-1.21,4.94-1.77,3.66-.2,9.6-.41,12.5-2.8-4-.29-11.54-3.2-14.07-1.06,3.25-.63,11.44-2.14,11.89-1-2.65,1.94-10.12-1.13-10-.32,5-3.61,10.4-2.52,15.13,1.89-4.44,3.5-3.55,4.34,1,1.53,1.67.51-6.38,1.89-1.18,1,3,4.26,4.89,6.06,6.63.5-6.9-1.6-13.7-1-20.62,1.25-2.78,4.81-8.82,8.07-4.21,5,4.35,1.86,9.93,4.56,15-3.73-2.37.67,6.45.2,8.55-.4,3,4.92,12,3,4.31-.12-4.13-2.28-12.64.3-14.12,3.24,3,0,11.8,2.94,12.77.76-4.35,1.52-2.42,3.21,0,1.42-2.52-1.92-9.56,1.89-5.9,0-2.77-2.43-8.65,1.57-4.36.74-1.66-.73-9.09.67-3.93,1.29,5.5,2.4.83,1.76-1.92,1.26,3.36,3.76,4,1.73-.6-.89-2.73-1.14-5.75.81-1.5,5.23,5-1.32-6.67-1.39-9.35.47-4.32,3.95,5.61,4.78,7.46,2.87,5.46-.18-7.75,1.63-3.87.91,2,4.29,7.18,2.73,1.86.27-3.1-4.76-11.06,1.42-5.86,3.89,2.92,2.33.07.15-1.94,3,1.07,4.82.88,1.61-1.66-3.63-2-5.36-12.12-.1-5.37,2,1.59,6,8.4,4.18,1.71-1-1.62-5.47-8.14-.67-4.52,1.45,2.18,4.52,3.46,2.07-.41-2.33-5.57-9.9-5.53-13.28-9.64,5-1.32,9.45,5.51,14.88,1.88-4.38-1.17-10-3.1-13.57-7-2.14-1.89-7.38-8.9-4.72-1.82,1.76,5-7.74-2.45-2.71-2.86-.73-4.84,12.44-2,5.17.67,4.12,3.44,9.4,8.09,14.81,8.49-2.77-1.46-5.92-4.39-1-1.71,7.56,3.56-3.07-4.77.18-4.72,3.22.7,6.7-.07,1.38-2-5.6-1.61-1.29-3.31,1.08-5.58-3.52-.49-8.82,1.16-7.22-2.33-3.57-1.19-12.45,4.64-12.92.25a35.16,35.16,0,0,1,16.66-.59C118.33,58,111.14,56.83,109,57.08ZM107.62,91c.8,4.16-5.2-4.73-.67-.8Zm-16.76,4c-1.46,2.1-5.55,5.31-1.82,8.9,1.69,3.13,2.54,8.47-.83,3.16-1.15-4-8-5.89-1.59-9.44C87.38,96.46,91,90.49,90.86,94.94Zm7.8,8.7c.69,1.35,2.12,9.46-.65,5.63-2.17-2.41-5-8.28-.35-5.19C97,102.25,97.8,101.12,98.66,103.64Z" fill="none" stroke="#000" stroke-linecap="round" stroke-linejoin="round" stroke-width="1.5"/><path d="M23.29,60.64c-5.67,1.18-12.55.34-16.43,5.61,2.23.5,10.87-3.19,9.57-1.29-2.91-.36-11.95,4.87-4.35,3.25,3-.77,6.42-3.19,8.14.61,2.92-.94,8.27-.9,3.38,2.34a51.13,51.13,0,0,0-9-.35c1.59-2,3.18-5-.41-2.19-3,3.09-8,5.69-10.4,8.27,6.6.71-7.25,4.48-.32,4.49,3.23-.75,2.18,4.49,5.13.46,1.4,1.52-7.42,6.44-.37,3.79,3.09-1.87,5.24-.31,1.65,1.82-2.94,1.9-3.23,4.32.73,2.41,1.36-.27-2.56,2.92,0,3.85-1,2.78-.45,7,1.25,2.18,1.15-2.82,4-4.71,1.76-.39-1,2.92-4.17,10.12-1.66,11.1.51-3.32,4.37-3.34,2.7-6.73,4.23-7.91.74,7.08,4.72,8.77.21-1.91-.11-7.22,1.57-2.26.94,6,1.49-4.88,1.25-6.63-.07-3.79.76-3,1.95-.57.43-2.88.59-9.66-1.06-10.25-2.83,1.92-6.52,3.95-3.17-.68-.41-3.22,8.83-9.13,1.83-7.66-4.59.38,5.7-3,7.4-4.15,2.61-4.7,7.69-6.18,12.71-7.14-3,5.32-8.87,7.73-10.48,13.7-2.34,4.42,1.69,10.49-2.78,14.19.77-1.76.53-10.25-1.38-5,.78,4.81-4.75,11.15-3.33,14.12.41,2.29-2.43,12.39.84,5.9,1.4,4.86,1.44-.76,2.71-2,2.41,5.15-5.86,10.12-2.69,14.66,1.22,3.1-4.12,8.77-1.53,11,2-6.05,2.87,11.23,4.43,3.46.22-6,3.24,12.78,4.25,4.76-.45-5.61,2.62,3.69,2-1.6-.47-5.66,3.17,7.05,2.42-.35.28-2.18-.92-10.6.87-9.4,1.38,6.16,2.22-4.29.66-6-1-7.21,6,3.29,2.51,5.89-1,5-2.33,10.46-1.07,15.34,1.48-3.67,1.45-10.5,4-12.44.93,2.91,3.56,10.75,4,5.5,4.75,4.28-1.72-8.29,1.79-10.56,2.91-2.43,1.09-5.21.59-8.3.43-3.53,2.84,5.61,4.6,4.56,3.09-6.33-1.42-11.44-2.84-17.08,1-4.14,9.65,6.47,7.39-1.53-2.55-2.41-8.26,1.36-6.11-5,2.14-4.7-.61-4.34-3.3-1.8-.27,5.22-2.37,10.39-4.19,14.17-3.93-3,1.27-11.72-1.27-14-2.75,5-4.46,11.08-2.94,16.51-1,3.91-2-6.52-3.52-.49-.7-4,2.09-10.78.47-16-.07-6.31-4.65,8-3.72-.38.41-2.94,2.13-7.36-1.71-3-3.39,4.5-1.56-3,.13-4.7,4.16-4.92,3.37-11.75,7.31-16.77C41.27,70.34,55.91,73.1,51.19,66c-3.49-.36-8.8,3.73-13.59,3.4-2.53.31-12.93,5.65-7.21.3,5.19-.1,10.46-4.08,16.29-4.34,4.41-2-6.3-1-7.79-.69-1.81.75-12.85.19-5.63-.43,2.83.34,11.34-1.61,4-2.61-6-1.89-8.94,5.55-14.75,3-6-.75,1-1,3-2.26C32,60,25.84,59.7,23.29,60.64ZM16.36,76.57c-2.64,2.41-5.35,1-.74-.15l.55,0Zm19.06,35.91c-1.15,3.67-.39,14.37-2.75,13.73.57-1.91-2.74-7.78,1.07-7,.9-2.71-.93-7.78,1.43-10.91C35.87,102.13,36.53,111.48,35.42,112.48Zm9.18,8c-1.46,7.33-2.28-3-1.68-5.31C43.24,110,45.64,119.74,44.6,120.45Zm-16.76,2.64c-3.47,3.29,2.61-7.22.52-.59Z" fill="none" stroke="#000" stroke-linecap="round" stroke-linejoin="round" stroke-width="1.5"/><path d="M89.39,65.05c-2.65-.2-7.16.67-3.63,4.14,2.77.13,6,4.3,5.5-1.27C92.82,66.27,92,62.84,89.39,65.05Z" fill="none" stroke="#000" stroke-linecap="round" stroke-linejoin="round" stroke-width="1.5"/></svg>