<svg xmlns="http://www.w3.org/2000/svg" width="300" height="300" viewBox="0 0 300 300"><path d="M126.78 79.66s-.88-7.91 5.44-8.67c6.58-.79 9.84.6 9.84.6l3 5.8-1 3.91-4.08 1.87s.7-6-4.81-6.13c-1.39 0-2.21.52-4.42.17s-3.47 2.09-3.97 2.45z" fill="none" stroke="#000" stroke-miterlimit="10" stroke-width="1.5"/><path d="M171.24 99.23c-1 1.22-4.71 1.64-4.71 1.64a19.42 19.42 0 015.54 7.22c1.67 4.25-44.88 0-44.88 0a12.41 12.41 0 003.39-4.16 4.09 4.09 0 01-4.12-1.27s1.53.5 3.55-2.55c0 0 3-3.83 5.08-4.85 0 0-1 .6-3.3-.68 0 0 4-.51 5.48-7.39a10.1 10.1 0 011.78-3.74c1.53-2.21 1.21.43 4-3 0 0 1.29-2.41.16-3.88s-2.34-.93-4.7-2.35-3.42-2.21-2.61-4.39a2.87 2.87 0 013.2-1.84c.29 0 .45-1.9 3-3.2s9.44-.74 10.46-.17a13.1 13.1 0 017.58 7.9c2.42 6.12-.65 8.41 5.94 17.64a10.83 10.83 0 01-4.33.06s3.49 6.12 9.49 9.01z" fill="#fff" stroke="#000" stroke-miterlimit="10" stroke-width="1.5"/><path d="M142.43 73.42c-5.36-.26-3.3-5.37-3.3-5.37M151.75 74.12a5.31 5.31 0 01-1.75-1.51c-1.12-1.49-3.63-2.21-5-.81 0 0-1.38 1.53-2.59 1.62a6.85 6.85 0 012.32 1.29A4 4 0 00148.1 76c1.41-.19 1.64-.94 2.3-1.38a3.41 3.41 0 011.35-.5zM186.64 150.52s5 4.08 9.2 0a5.41 5.41 0 005.08 1.44c3.39-.59 4-2.37 4.28-3.39 0 0 2.93 1.71 5.41.35a4.2 4.2 0 002.47-3.38s4.3.84 6.51-2.07.86-5.81-.32-6.15c0 0 4.65 1.22 5.91-2.77a4.58 4.58 0 00-1.34-5.16s9.8 0 13.82-3.11c0 0 3.33-2.1 1.34-4.31 0 0 8.82-1.41 11-4.93a3 3 0 00.65-2.66 1.09 1.09 0 00-1-1s10.06-1.55 13-4.87a3.76 3.76 0 00.69-3.57 3.34 3.34 0 00-.39-.9s9.16-1.93 13.68-6a4.94 4.94 0 001.26-5.44s15.3-4.19 11.75-10.93c0 0 7.16-2.32 4.9-8.78 0 0 5.92-3 3.33-7.76-2.47-4.55-10 .8-19 3.28 0 0-24.31 7.66-36.28 9.69l-34 50.64-19.85 7.65z" fill="none" stroke="#000" stroke-miterlimit="10" stroke-width="1.5"/><path d="M186.4 113.22s3.19-2.39 8.88.43c0 0 1.91 1.31 3.42-.13a3.06 3.06 0 00-.36-4.72c-4.23-3.14-5.81-12.57.65-16.48 0 0 9.36-5.55 43.67-14.28 0 0 2.88-.8 4.41-.42a4.27 4.27 0 013.09 3.11s1.54 4.36-3.63 6.86a38.56 38.56 0 01-4.73 1.76 3.39 3.39 0 013.77 2c1.07 2.49-.49 5-5.33 6.68a27.45 27.45 0 01-3.17 1s4.14 1.19 2.15 4.53c0 0-1.78 3.52-8 4.14 0 0 4.68.51 1.37 5 0 0-1.45 2.44-6 3.35 0 0 3.47.11 1.72 3.22s-5.86 4.88-9.91 5.16a17.23 17.23 0 01-3.73-.23s3.85 1.93 1.59 5.16c0 0-1.67 2.29-5.84 2.18 0 0 1.09 3.6-2 5a4.33 4.33 0 01-4.36-.64s.81 3.87-2.66 5.23a5.83 5.83 0 01-4.32 0s-2 4.41-9 1.31-1.68-29.22-1.68-29.22z" fill="#fff" stroke="#000" stroke-miterlimit="10" stroke-width="1.5"/><path d="M294.51 72.86s-11 6.39-45.36 12.77" fill="none" stroke="#000" stroke-width="1.5"/><path d="M97.6 185.75s-4.09 7-9 7.14c0 0-8.51-1-10.92 1.19-1.67 1.55-3.38 2.83-4.08 6.8s1.34 4.81 1.82 5a2.44 2.44 0 003.18 2.1s.16 2.94 5.11 1.52 7-1 8-5.89 1.86-4.84 2.74-5.43c1.18-.8 3.41-1.55 5.06-2.5 1.48-.85 7.15-3.73 9.09-4S110 185 110 185h-5l-2.42-3.57z" fill="#fff" stroke="#000" stroke-miterlimit="10" stroke-width="1.5"/><path d="M289.61 81.64s-29.84 9.74-43.73 10.93M277.86 92.57a321.13 321.13 0 01-38 9M262.92 104s-19.77 4.75-29.22 5.54" fill="none" stroke="#000" stroke-width="1.5"/><path d="M249.65 113.36s-16.73 3.49-21 3.91M239 122s-12.21 1.86-17.06 1.76M223.84 129.39s-4.94-.23-7.31-.62M219.26 137.32a29.28 29.28 0 01-6.66-2.72M213.08 145.54a9.64 9.64 0 01-4.79-4.65M205.2 148.57s-2.5-2.24-2.66-4.73M195.84 150.52s.94-.81.3-4.32M197.05 141.05a5.13 5.13 0 00.32-2.59M113.35 150.52s-5 4.08-9.2 0a5.4 5.4 0 01-5.08 1.48c-3.39-.59-3.95-2.37-4.27-3.39 0 0-2.94 1.71-5.41.36a4.22 4.22 0 01-2.47-3.39s-4.31.84-6.51-2.07-.86-5.81.32-6.15c0 0-4.65 1.22-5.92-2.77a4.6 4.6 0 011.35-5.16s-9.8 0-13.82-3.11c0 0-3.34-2.1-1.35-4.31 0 0-8.82-1.41-11-4.93a3 3 0 01-.65-2.66 1.09 1.09 0 011-1s-10.06-1.55-13-4.87a4 4 0 01-.31-4.47s-9.15-1.93-13.67-6a5 5 0 01-1.27-5.44s-15.26-4.26-11.71-11c0 0-7.15-2.32-4.89-8.78 0 0-5.92-3-3.34-7.76 2.47-4.55 10.06.8 19 3.28 0 0 24.31 7.66 36.28 9.69l34 50.64 19.84 7.65zM214.69 90.76s-5.64 2.27-7.53 5.38-.64 6.15 0 7.88c.33.88 4.31 8.55-.37 14.1" fill="none" stroke="#000" stroke-miterlimit="10" stroke-width="1.5"/><path d="M113.59 113.22s-3.18-2.39-8.87.43c0 0-1.92 1.31-3.42-.13a3.06 3.06 0 01.35-4.72c4.24-3.14 5.81-12.57-.64-16.48 0 0-9.36-5.55-43.68-14.28 0 0-2.87-.8-4.4-.42a4.25 4.25 0 00-3.09 3.11s-1.54 4.36 3.62 6.86a38.32 38.32 0 004.74 1.76 3.39 3.39 0 00-3.77 2c-1.07 2.49.49 5 5.33 6.68a26.67 26.67 0 003.17 1s-4.14 1.19-2.15 4.53c0 0 1.77 3.52 8 4.14 0 0-4.68.51-1.37 5 0 0 1.45 2.44 6 3.35 0 0-3.47.11-1.72 3.23s5.86 4.87 9.91 5.15a17.13 17.13 0 003.72-.23s-3.84 1.93-1.58 5.16c0 0 1.66 2.29 5.83 2.18 0 0-1.08 3.6 2 5a4.33 4.33 0 004.36-.64s-.81 3.87 2.66 5.23a5.8 5.8 0 004.31 0s2 4.41 9 1.31 1.69-29.22 1.69-29.22z" fill="#fff" stroke="#000" stroke-miterlimit="10" stroke-width="1.5"/><path d="M214.61 124.15l-2-.65M226.53 116a41.3 41.3 0 01-6.67.7M231.18 107.7s-4 .39-7.67.34M237.07 99a69 69 0 01-8.77 1.19M241.8 89.35a108.84 108.84 0 01-12.26 2.71M217.92 96.2s5.06 4.7-1 9.06c0 0 2.53 4-2.53 8.1" fill="none" stroke="#000" stroke-miterlimit="10" stroke-width="1.5"/><path d="M114 153.37s-1 5.53-9.2 12.49c0 0-6.3 5.56-6.14 12s-1.13 7.25-3.6 9.46c0 0 5.11.4 7.58-3 0 0-.1 5.66-.86 6.17 0 0 1.61.11 3.93-2.43a10.42 10.42 0 012.69-2 12.65 12.65 0 00-.32 7.53 3.33 3.33 0 012.36-2s3.61-.73 5-5.95c0 0 .92-3.45 6.57-6.51 0 0 6.4-2.41 6.23-5.57S114 153.37 114 153.37z" fill="#fff" stroke="#000" stroke-miterlimit="10" stroke-width="1.5"/><path d="M215.72 115.32s.75 7.56-8.5 7.56c0 0 1.77 6.74-7.16 6.51 0 0-1 5.38-7.47 4.31" fill="none" stroke="#000" stroke-miterlimit="10" stroke-width="1.5"/><path d="M202.41 185.75s4.09 7 9 7.14c0 0 8.52-1 10.92 1.19 1.68 1.55 3.39 2.83 4.09 6.8s-1.35 4.81-1.83 5a2.43 2.43 0 01-3.17 2.1s-.16 2.94-5.11 1.52-7-1-8-5.89-1.86-4.84-2.75-5.43c-1.18-.8-3.4-1.55-5-2.5-1.48-.85-7.15-3.73-9.09-4S190 185 190 185h5l2.42-3.57z" fill="#fff" stroke="#000" stroke-linecap="round" stroke-linejoin="round" stroke-width="1.5"/><path d="M186 153.37s1 5.53 9.19 12.49c0 0 6.3 5.56 6.14 12s1.13 7.25 3.61 9.46c0 0-5.11.4-7.59-3 0 0 .11 5.66.86 6.17 0 0-1.6.11-3.92-2.43a10.42 10.42 0 00-2.69-2 12.74 12.74 0 01.32 7.53 3.36 3.36 0 00-2.37-2s-3.6-.73-5-5.95c0 0-.91-3.45-6.56-6.51 0 0-6.4-2.41-6.24-5.57S186 153.37 186 153.37z" fill="#fff" stroke="#000" stroke-miterlimit="10" stroke-width="1.5"/><path d="M206.8 192.89a16.64 16.64 0 004.64 0M220.37 196.85s4.47-.68 4.25 9M217.68 199.06s4-.51 3.77 8.9" fill="none" stroke="#000" stroke-miterlimit="10" stroke-width="1.5"/><path d="M178.74 176.41a6.56 6.56 0 013.28 1.92c1.35 1.53 3.93 1.25 3.93 1.25a6.66 6.66 0 01-1.88-4c-.49-2.83-2-3.68-2-3.68M186.64 169.25a6.65 6.65 0 013.28 1.92c1.35 1.53 3.93 1.25 3.93 1.25a6.6 6.6 0 01-1.88-4c-.49-2.84-2.05-3.69-2.05-3.69M188 180.24a5.81 5.81 0 012.87 1.68c1.17 1.34 3.43 1.09 3.43 1.09a5.83 5.83 0 01-1.65-3.46 4.39 4.39 0 00-1.78-3.21" fill="none" stroke="#000" stroke-width="1.5"/><path d="M156.33 224.67s1.47 6.47 6.56 5.94c0 0 3.61-.34 3.34-6.34 0 0 5.32 2.83 6.18-4.19 0 0 4.84 1.13 4.79-5.44 0 0 4.52.79 4-5 0 0 4.89 1.3 4.89-4.19 0 0 11.46-1.9-12.42-23.68l-21.3 12.69z" fill="#fff" stroke="#000" stroke-linecap="round" stroke-linejoin="round" stroke-width="1.5"/><path d="M154 195.63s3.55 3.15 6.08-1.55c0 0 3.44-.17 4-2.78a3.88 3.88 0 003.34-2.94s3.81-.4 3.71-3.63c0 0 6.94-.53 0-8.39s-18.72 13-18.72 13z" fill="#fff" stroke="#000" stroke-linecap="round" stroke-linejoin="round" stroke-width="1.5"/><path d="M166.23 224.27s-.54-11.39-10.41-27.7M172.41 220.08s1.53-6.57-12.37-26c0 0 1.61-4.65-3.33-7.62M177.2 214.64s.43-7.11-13.18-23.34c0 0 1.2-4.19-3.73-7.53M181.18 209.6s-.51-7.2-13.82-21.24c0 0 .66-4.31-4.11-7M186.07 205.41s-1-8.22-15-20.68c0 0 .48-3.23-4.2-6.51" fill="none" stroke="#000" stroke-miterlimit="10" stroke-width="1.5"/><path d="M143.68 224.67s-1.47 6.47-6.57 5.94c0 0-3.6-.34-3.33-6.34 0 0-5.33 2.83-6.19-4.19 0 0-4.84 1.13-4.78-5.44 0 0-4.52.79-4-5 0 0-4.9 1.3-4.9-4.19 0 0-11.45-1.9 12.43-23.68l21.3 12.69z" fill="#fff" stroke="#000" stroke-linecap="round" stroke-linejoin="round" stroke-width="1.5"/><path d="M146 195.63s-3.55 3.15-6.08-1.55c0 0-3.44-.17-4-2.78a3.87 3.87 0 01-3.33-2.94s-3.82-.4-3.71-3.63c0 0-6.94-.53 0-8.39s18.72 13 18.72 13z" fill="#fff" stroke="#000" stroke-linecap="round" stroke-linejoin="round" stroke-width="1.5"/><path d="M133.78 224.27s.54-11.39 10.4-27.7M127.59 220.08s-1.53-6.57 12.37-26c0 0-1.61-4.65 3.34-7.62" fill="none" stroke="#000" stroke-miterlimit="10" stroke-width="1.5"/><path d="M150 193.68c3.44 0 7.34 21.5 6.33 34.45-.37 4.7-2.89 8.54-6.33 8.54s-6-3.84-6.33-8.54c-1-12.95 2.89-34.45 6.33-34.45" fill="#fff" stroke="#000" stroke-linecap="round" stroke-linejoin="round" stroke-width="1.5"/><path d="M122.81 214.64s-.43-7.11 13.17-23.34c0 0-1.2-4.19 3.73-7.53M118.83 209.6s.51-7.2 13.82-21.24c0 0-.67-4.31 4.1-7" fill="none" stroke="#000" stroke-miterlimit="10" stroke-width="1.5"/><ellipse cx="150" cy="193.51" rx="4.76" ry="7.05" fill="#fff" stroke="#000" stroke-linecap="round" stroke-linejoin="round" stroke-width="1.5"/><path d="M113.93 205.41s1-8.22 15-20.68c0 0-.49-3.23 4.19-6.51" fill="none" stroke="#000" stroke-miterlimit="10" stroke-width="1.5"/><path d="M150 192s40.39-17.89 40.49-59.29h-81C109.62 174.08 150 192 150 192z" fill="#fff" stroke="#000" stroke-miterlimit="10" stroke-width="1.5"/><path fill="none" stroke="#000" stroke-miterlimit="10" stroke-width="1.5" d="M128.2 132.68h6.23M115.75 132.68h6.23M140.66 132.68h6.23"/><path d="M115.75 132.68v26.45a66.69 66.69 0 006.23 10v-36.45zM128.2 132.68v43.6s3.9 3.82 6.23 5.66v-49.26zM140.66 132.68v53.9s4.44 2.87 6.23 3.81v-57.71z" fill="#fff" stroke="#000" stroke-linecap="round" stroke-linejoin="round" stroke-width="1.5"/><path fill="none" stroke="#000" stroke-width="1.5" d="M115.75 132.68h6.23M128.2 132.68h6.23M140.66 132.68h6.23"/><path d="M184.26 132.68v26.45a66.69 66.69 0 01-6.23 10v-36.45zM171.8 132.68v43.6s-3.89 3.82-6.23 5.66v-49.26zM159.35 132.68v53.9s-4.45 2.87-6.23 3.81v-57.71z" fill="#fff" stroke="#000" stroke-linecap="round" stroke-linejoin="round" stroke-width="1.5"/><path d="M10.38 81.64s29.84 9.74 43.74 10.93M22.13 92.57a321.61 321.61 0 0038 9M37.07 104s19.78 4.75 29.22 5.54" fill="none" stroke="#000" stroke-width="1.5"/><path d="M50.34 113.36s16.73 3.49 21 3.91M61 122s12.21 1.86 17.07 1.76M76.16 129.39s4.94-.23 7.31-.62M80.73 137.32a29.28 29.28 0 006.67-2.72M86.92 145.54a9.64 9.64 0 004.78-4.65M94.8 148.57s2.5-2.24 2.66-4.73M104.15 150.52s-.93-.81-.29-4.32M102.94 141.05a5.26 5.26 0 01-.32-2.59M85.3 90.76S91 93 92.83 96.14s.65 6.15 0 7.88c-.32.88-4.3 8.55.38 14.1M85.38 124.15l2-.65M73.47 116a41.3 41.3 0 006.67.7M68.82 107.7s4 .39 7.66.34M62.93 99a69 69 0 008.77 1.19M58.2 89.35a108.84 108.84 0 0012.26 2.71M82.08 96.2s-5.06 4.7 1 9.06c0 0-2.53 4 2.53 8.1M84.28 115.32s-.75 7.56 8.5 7.56c0 0-1.78 6.74 7.15 6.51 0 0 1 5.38 7.48 4.31M93.19 192.89a16.64 16.64 0 01-4.64 0M79.62 196.85s-4.46-.68-4.25 9M82.31 199.06s-4-.51-3.76 8.9" fill="none" stroke="#000" stroke-miterlimit="10" stroke-width="1.5"/><path d="M121.26 176.41a6.6 6.6 0 00-3.28 1.92c-1.34 1.53-3.92 1.25-3.92 1.25a6.73 6.73 0 001.88-4c.48-2.83 2-3.68 2-3.68M113.36 169.25a6.69 6.69 0 00-3.28 1.92c-1.34 1.53-3.92 1.25-3.92 1.25a6.67 6.67 0 001.88-4c.48-2.84 2-3.69 2-3.69M112 180.24a5.8 5.8 0 00-2.86 1.68 4.43 4.43 0 01-3.43 1.09 5.79 5.79 0 001.64-3.46 4.42 4.42 0 011.79-3.21" fill="none" stroke="#000" stroke-width="1.5"/><path d="M190.49 102.6s-19.82 10.4-40.49-.85c-20.67 11.22-40.48.85-40.48.85v30.08h81V102.6z" fill="#fff" stroke="#000" stroke-miterlimit="10" stroke-width="1.5"/><path d="M5 72.56s11 6.38 45.36 12.76" fill="none" stroke="#000" stroke-width="1.5"/></svg>