<svg xmlns="http://www.w3.org/2000/svg" width="600" height="330" viewBox="0 0 600 330"><title>flag-american-samoa-dimensions</title><path d="M64.7,150.41,598.61,16.93v267Z" fill="#fff" stroke="#50d6cc" stroke-linecap="round" stroke-linejoin="round" stroke-width="0.99"/><path d="M30.53.91H598.61v299H30.53Z" fill="#fff" stroke="#50d6cc" stroke-linecap="round" stroke-linejoin="round" stroke-width="0.99"/><path d="M30.53,150.41,598.61.91v299Z" fill="#fff" stroke="#50d6cc" stroke-linecap="round" stroke-linejoin="round" stroke-width="0.99"/><path d="M91.39,150.41,598.61,16.93v267Z" fill="#fff" stroke="#50d6cc" stroke-linecap="round" stroke-linejoin="round" stroke-width="0.99"/><path d="M554.85,109c-.55.38-1.05.78-1.5,1.16,1.71.41,2.62-.87,3.55-1.27.53-.23.37-.63.12-.94C556.28,108.18,557.33,107.23,554.85,109Z" fill="#50d6cc"/><path d="M468.26,116.55c.52,0,.82-.43,1-.69s.44-.94.37-2.6-2.52-2.22-2.52-2.22c-4.26,2.22-5.42,1.66-6.71,1.28a3.87,3.87,0,0,0-3.64.59,1.69,1.69,0,0,0-.21,2c.24-1.15,2.56-1.71,3.82-1.48s2.35,1.22-1.3,2.65-9.54,1.73-9.54,1.73c1.6,1.64,7,.72,7,.72,1.77,1,.78,3.16.78,3.16,3.07-1.76.55-4.11.55-4.11a12.47,12.47,0,0,0,4.56-1.6c3.14.84,1.87,4.41,1.87,4.41a7.67,7.67,0,0,0,2.12-2.91C467.11,116.37,467.75,116.5,468.26,116.55Zm-2-3.9c1.49-.89,2.32,1,2.35,1.45s-.81,1.81-1.15.86-1.71-1.37-1.71-1.37C465.54,113.51,464.79,113.54,466.27,112.65ZM463,115.17s-1.19-1.31.37-1.45,3.65,1,3.24,2S464.38,116.63,463,115.17Z" fill="#50d6cc"/><path d="M523.65,113.62c1.53-.41,4.6-1.07,4-1.86s-2.62.16-4.39,1.45C523.28,113.21,522.12,114,523.65,113.62Z" fill="#50d6cc"/><path d="M440.06,157.55c.34,0,.85-.18.92-.41s-.58-.48-.92-.41h0s-.92.13-.75.49S439.72,157.52,440.06,157.55Z" fill="#50d6cc"/><path d="M437.1,216.15c.25-2.2.21-2.47,0-2.93,0,0-.38.22-.37,1.07a6.58,6.58,0,0,1-.18,1.79,14.18,14.18,0,0,0-1.5-2.16s.36-1.9-.23-2.72a1.38,1.38,0,0,0-1.84-.61c-.93.35-1.64,1.22,1.51,3.8a7.67,7.67,0,0,1,2,3,3.86,3.86,0,0,0,2.45,2.52S436.85,218.34,437.1,216.15Zm-2.67-2.46s-2.82-2.22-1-2.65C433.42,211,434.7,210.83,434.43,213.69Z" fill="#50d6cc"/><path d="M484.17,222.92c-7.29-2.72-10.15-2.27-10.15-2.27,5.08,2,5.45,1.1,11.08,3.58,6.37,2.8,10.48.66,10.48.66C494.49,225,491.46,225.65,484.17,222.92Z" fill="#50d6cc"/><path d="M483.71,180.66a19.1,19.1,0,0,0-2.69.74s-1.77.65-.61,1.22S484.84,180.48,483.71,180.66Z" fill="#50d6cc"/><path d="M445.71,217.38a6.51,6.51,0,0,0-3.1-3c-1.77-.79-1.84-1.4-1.84-1.4h-.06c-3.43,2.36-1.3,4.7-1.3,4.7,2.8,3.25,9,1.95,9,1.95A4.37,4.37,0,0,1,445.71,217.38Zm-5.38.42c-2.1-2,.22-3.88.22-3.88.31.33.5.52,2.13,1.27s1.6,1.48,2.35,2.6a5.47,5.47,0,0,0,1.6,1.61C445.22,219.45,442.25,219.61,440.33,217.8Z" fill="#50d6cc"/><path d="M483.56,172.53c-1.52.34-.32,1.85-.32,1.85.3.51,2.47,3.82,2.21,2.17S485.08,172.18,483.56,172.53Z" fill="#50d6cc"/><path d="M483.42,178.91c-1.19.09-.08.47.16.62s.8.58,1.1-.1S483.42,178.91,483.42,178.91Z" fill="#50d6cc"/><path d="M444.39,205.79c1.31,2,1.18,2.08,1,2.89,0,0-3.56-1.88-2.31-4.94a9.27,9.27,0,0,1,2.06-2.62c1.37-1.26.55.27,3.32-1.31a11.9,11.9,0,0,0,3.36-3.08,14.5,14.5,0,0,1-2,1.08s-3.2.57-4.49,1.93-4,3.73-3.11,6.36a4.78,4.78,0,0,1-3.93-3.72s-5.93,7.31,6.51,10.71a29,29,0,0,0,4.37.76,6.62,6.62,0,0,1,.95-3.43,4.83,4.83,0,0,0,.2-4.37c-.25-.54-.4-.34.72-1.28,1.38-1.16-.53-2.63,1.74-4.66a15.45,15.45,0,0,0,1.84-1.81s-2.41,1.29-4,1.94S443.07,203.82,444.39,205.79Zm4.53-7.17a3.66,3.66,0,0,1-3,1.48A6.35,6.35,0,0,1,448.92,198.62Zm2.55,2a2.28,2.28,0,0,0-.62,1.22c0,.25,0,.55-.05,1.1,0,.18,0,.39-.08.64-.23,1.47-1.44,1.4-1.55,1.9a.17.17,0,0,0,0,.1s0,0,0,0a1.59,1.59,0,0,0,.33.64,2.3,2.3,0,0,1,.46,1.25,8,8,0,0,1-1.07,3.72,5.79,5.79,0,0,0-.57,1.92v0h0c-9.81-1.3-10.78-5.45-10.55-7.67a4.79,4.79,0,0,1,.37-1.46,5.32,5.32,0,0,0,4.32,2.63,6.21,6.21,0,0,0,3,2.75,2.08,2.08,0,0,0,.71-1.1v0a1.53,1.53,0,0,0,0-.3c0-1-1.09-1.93-1.09-2.92a1.51,1.51,0,0,1,.41-1c1.64-1.88,5.93-3.44,5.93-3.44Z" fill="#50d6cc"/><path d="M505.94,222c-5.11-.66,2.38-2.75-5-2.07s-8.28.59-6.54-.5-1.75-.5-5-.31a77.63,77.63,0,0,1-11.44-.41C493.55,228.3,505.94,222,505.94,222Zm-13.05-2.32s-5,2.42,7.56,1.29c0,0,2.8-.3,2.46.13s-.55.77.81,1.17c0,0-9.33,4.19-23.12-2.47C480.6,219.78,488.57,220.52,492.89,219.66Z" fill="#50d6cc"/><path d="M481.21,216.41h0Z" fill="#50d6cc"/><path d="M473,218.64c5.07-2.32,7.65-2.28,8.24-2.23-1-.12.41.42-5.35-2-6-2.5-9.47.38-9.47.38a5.26,5.26,0,0,0-.78-2.05c-1,1.59-2.73,2.67-6.75,2.79s-7.39-2.79-7.39-2.79C451.34,220.45,467,221.38,473,218.64Zm-7.77-4a4.36,4.36,0,0,1,.88,1.51s4.36-4.21,12.17.33c0,0-1-.11-4.64,1.48-4.78,2.06-16.76,3.41-20.64-3C453,215,459.44,218.89,465.2,214.63Z" fill="#50d6cc"/><path d="M507,171.3c-.15.08,0,.33-.54.27s-.51.31-.51.31h0c.12.31.83.43,1.29.26C508.49,171.7,507.16,171.23,507,171.3Z" fill="#50d6cc"/><path d="M470.94,136.26s-4,.3-4.87,2.46c-.21.1-.59-.06-.61-.06a5.11,5.11,0,0,1-1.83-.41s.1,2.34,0,3.47a19.76,19.76,0,0,0-2.78-.82,3.67,3.67,0,0,1-.76.94,6.41,6.41,0,0,1-1.67-2.09s-1.77,1.61-2.45,2.3a7.18,7.18,0,0,0-2.83-1.23,19.74,19.74,0,0,1,2.59,2.42,11.56,11.56,0,0,0,2.39-2.21,5.22,5.22,0,0,1,1.84,2.21,3.07,3.07,0,0,0,1.15-1.58,8.78,8.78,0,0,1,3.2,1.3,11.82,11.82,0,0,0,0-3.77s.62.05,1.33.18l1.27.35.1,0S466.09,138.22,470.94,136.26Z" fill="#50d6cc"/><path d="M587,96.51c-1.74-1.27-2.32-1.58-3.07-1.75,0,0-.68-2.48-7.49-3a9.2,9.2,0,0,0-6.54-.46,11.93,11.93,0,0,0-7.26.36,45.65,45.65,0,0,0-10.93,5c-2.83,1.94-5.65,4-7.73,2.22,0,0,7.56-3.34,9.74-8.21,0,0-7.26,2.12-8.18,1.38,0,0-.27-.31,5-2.27S560,84.4,561,80c0,0-11.27,5.13-15.33,4.59,0,0,5.83-4.46,5-6.73,0,0-4.53,3.19-5.21,2.47s1.5-2.44,2.73-3.23,2.65-2.55,1.16-3.88c0,0,10.25-6,11.27-11.4a6.64,6.64,0,0,1-2.55.92s5.48-4.36,4.63-9.3a3.92,3.92,0,0,1-2.08,1.22s3.07-4.77-.31-7.67c0,0-9.19,6.42-11.17,7.49a7,7,0,0,0-.65-1.86,6.74,6.74,0,0,0,3.58-6.35S540,53.5,536.66,56.59a7.87,7.87,0,0,0-.27-3.47s-20.2,16.5-40.7,23.69a5.69,5.69,0,0,0-.75-3.17,55.52,55.52,0,0,1-11.11,6.17c-7.49,3.32-8.45,4.75-8.58,4.85a10.54,10.54,0,0,0-1.37-2.4S474,84.81,461,90.47s-20.58,19-10.08,21.47c0,0-7.82,6.12-5.83,14.68a3.9,3.9,0,0,0,3,3s2.7,1.15,6.61-2.27,8.11-3.62,8.62-3.41a19.62,19.62,0,0,0-2.42,2.85,1,1,0,0,1-.37-.38,25.35,25.35,0,0,0-3.24,4.92s-1.46-.43-1.5-3.11c0,0-6.75,8.72-11.58,14-3.95,4.33-7.8,7.29-7.86,11-.09,5.52-.93,5.45-1.77,7,0,0-2.27,3.4,0,5.3s6.72,1.29,8.18,0c0,0,8.9-4.89,10-8.9,0,0,2.09.4,5.81-3.2a46.09,46.09,0,0,1,9.54-6.66,15.61,15.61,0,0,1,8.54-2.11,13.7,13.7,0,0,1,4.63.54,5.76,5.76,0,0,0,.91-1.29s2.82.48,3.18.95c0,0,.36-1.08,0-1.36,0,0,3.72.68,2.63-.47,0,0,4.46-.48,5,.34s3.54-3.07,3.82-.48a19.91,19.91,0,0,0,4,9.71,8.4,8.4,0,0,0,3.59,3.48c2.54,1.29,2.18,1.16-2.09,11.36,0,0-10-1.43-11.38,5.63a25.48,25.48,0,0,1-6.81-3.34c-3.43-2.43-5.31-3-7.11,1.92l-14.12-.31a4.08,4.08,0,0,0-3.85-4.26l-3.16-.17s-2.8,1-3.2,5.17a49.44,49.44,0,0,1-22.28-7.06s-11,5.79-31.82,8.06c0,0,13.42,2,30.56,10.76,0,0,8.41-5.41,23.54-5.64,0,0,0,4.92,2.82,6.4l5-.25a5.12,5.12,0,0,0,2.45-4.06l13.75,0s.19,7.6,6.49,3.77c7.05-4.29,7.56-4.08,8.55-4.51a8.23,8.23,0,0,0,2.52,1.55c.81.1,2.42,0,3.37,1.07a25.85,25.85,0,0,1-9.47,4.57c-5.38,1.22-6.27,3.49-7.53,5.38,0,0-19.52,2.65-21.87,3.16a8.43,8.43,0,0,1-6.1-.44c-3.33-1.5-7.08,1.41-7.52,1.74,0,0-2.15-1.43-3.27-.28s-1.13,1-2.83,1.09-3.29,1.12-3.49,2.72c-.13,1.09-7.72,2.57-5,7.15,0,0,.5.38-1.19,2-1.95,1.9,0,5.51,2.14,6.78a9,9,0,0,1,4,3.95c1.6,2.48,4,5,9.23,4,0,0,6.1,6.73,13.05,3.62a11.37,11.37,0,0,0,2.18.4,11.54,11.54,0,0,0,10.42,2.86s3.17-1.15,4.36.08c0,0,3.08,1.86,2.08,3.31-1.3,1.89.07,2.68.82,3.34a2.42,2.42,0,0,1,0-2.09c.58-.92.95-1,1-1.86,0,0,.14,2.11,1.91,2.22a1.15,1.15,0,0,1-.51-1.43c.27-1.07-.45-1.71-2-3.24a1.08,1.08,0,0,1,1-.84s2.83,3.08,12.47,1.76,12.91.76,12.8,3.47-3.5,1.4-3.64,4c0,0,1.91-1.61,3.24-1.35a2.36,2.36,0,0,0,2.86,2.06s-2.86-1.55-.85-2.7c0,0,5.45-2.52,1.46-6.78a10.68,10.68,0,0,1,7.73,1.78c4.09,2.65,6,2.09,7.16,3.21,0,0,.24-1.17-1.94-2.83,0,0,4.7.77,5.41-1.17,0,0-3.95,1.74-9.64-3.59a8.61,8.61,0,0,1,4.94-1.86c2.83,0,8.86,1.3,6.06,4.41a3,3,0,0,0,2.46-2.65,5.34,5.34,0,0,1,2.89,2.26,2.16,2.16,0,0,0-1.33-2.88c-2.14-.81-1.63,0-4.39-1.27-2-.91-3.54-1.68-4.21-2.1a12,12,0,0,0-5-1s2.58-4,5.62-.15c0,0,2-1.22-.11-2.68,0,0,1-1,4.33-1.17,0,0-2-1.68-6-.89a26.1,26.1,0,0,1-5.08.81,20.57,20.57,0,0,0-5.07,1s0-1,2.38-1.81,11.55-2.73,4-7a2.87,2.87,0,0,1-.31,2.6,6.08,6.08,0,0,0-3.3-2,10.46,10.46,0,0,1-.1,3.19s-9.17-3.9-11.11-4.11-4.6-.36-12.06,1.17c0,0-3.74.68-1-1.14,0,0,1.36-.65,1.53-1.69a7.41,7.41,0,0,1-2.94,1,2,2,0,0,1-.41-2,2.23,2.23,0,0,0-1.43,1.83c-.19,1.43-1.14,2-3.92,1a40.72,40.72,0,0,0-8.84-2.11,19.35,19.35,0,0,0-9,1.55c-3.74,1.8-7.1,3.45-8.94,1.46s1.83-2.47,1.65-5.33a5.5,5.5,0,0,0-2.06-4.4s2.33-2.29,1.55-3.28a5.22,5.22,0,0,1,1.73-1l21.64-2.25s-.18,2.59,2,3.5,3.77,1.4,6.36.28c0,0,2,2.14,6-.58,0,0,3.27.34,4.32-.38s3.09-1.93,2.86-3.87c0,0,2.86.17,3.59-1.87l34.29-3.74s4.86-.41,4-3-2.82-2.65-4.63-2.48-35.25,5.1-35.25,5.1-5.72.58-3.68-2.75,3.36-2.15,4.64,1.7a19.08,19.08,0,0,0,3.13-3.13s5.68,3.77,6.09.27-.1-1.84,1.4-2.62,1.37-1.56,1.37-1.56l28.47.68s2.32-.14,2.27-3-1.58-3-2-3l-26-.65s-.78-.24-.46-.71,1.05-.51,3.05-.11a24.19,24.19,0,0,1-.37-6.69,15.08,15.08,0,0,0,4.77-5.17,2.49,2.49,0,0,1,1.73,2.18s3.22-3.23,3.9-6c0,0,.14-1.77,2.77-.44a60.46,60.46,0,0,1,.37-7.45s.13-2.31,3.86.27a3.45,3.45,0,0,0-.09-2.6c-.64-1.29-1-1.56,1.11-2.26s5-3,5.74-5a30.79,30.79,0,0,1-4.45,0s4-4.81,2.89-7.85c0,0-2.11-.79-5.61,1.34,0,0-1.84-.82.82-2.58,0,0-4.16,1.19-6.91,0s-3.31-1-.16-3.05a69.83,69.83,0,0,0,9.54-8.21s2.68.75,7.95-3.58,2.93-.65,7.36-2.84a5.27,5.27,0,0,1,1.91-.51s5.42,0,15.95,0,12.23-4.64,12.23-5.38a3.38,3.38,0,0,1,.37-1.89,2.89,2.89,0,0,0,1-2.47C588.64,101.74,588.75,97.79,587,96.51ZM442.85,178.58c-3.44.54-1.86.93-5,.36s-8.76,4.18-8.76,4.18a95,95,0,0,0-12.4-5.53c7.19-2.32,14.14,1.55,14.14,1.55,3.61-2.39,9.61-3.06,9.61-3.06,7.42-.05,10.83,1.79,10.83,1.79A42.82,42.82,0,0,0,442.85,178.58Zm9.54-3.24c-16.48-1.36-21.61,3-21.61,3a51.56,51.56,0,0,0-20.66-4.52c4.13,1.19,3.64,2.71,3.64,2.71-2-1-11.14-3.33-11.14-3.33,18.19-2.59,27.71-7.27,27.71-7.27a50.56,50.56,0,0,0,22.21,6.8C452.42,173.89,452.39,175.34,452.39,175.34Zm9.84-3.78-1.77,0c-.34-.65-1.2-1.11-1.31,4.08a21.72,21.72,0,0,0,.18,3.45l-.68,1.16a14.27,14.27,0,0,1-.43-2.9,14.75,14.75,0,0,1,1.2-8.19C460.94,165.72,462.23,171.56,462.23,171.56Zm-9.06,6.07c-.63-9.3,2.93-10.13,2.93-10.13a27.05,27.05,0,0,1,3.5.29s-2.82,3.35-2.07,10c0,0,.3,1.07-2.09,1.07S453.17,177.63,453.17,177.63Zm2.43,6.15a7.28,7.28,0,0,1-1.9-3.8s-.05-.53,1.7-.48,2-.17,2.41.85a19.42,19.42,0,0,0,1.79,3.31Zm3.16-3.17.68-1.16c.55,1.47,1.27.39,1.27.39l1.52,0C460.77,186.35,459.12,181.74,458.76,180.61Zm18-1.08-16.47-.3c-1-2.75-.2-7.2-.2-7.21H462a25.29,25.29,0,0,0-.09,5.81h.43a19.86,19.86,0,0,1,.09-5.81h2a24.49,24.49,0,0,0-.12,5.81h.41a21.69,21.69,0,0,1,.07-5.81h2.11a19.39,19.39,0,0,0,0,5.81h.43a18.88,18.88,0,0,1,0-5.81h2.11a25,25,0,0,0,0,5.78h.46a26.66,26.66,0,0,1,0-5.79h1.91a33.06,33.06,0,0,0-.05,5.83h.37a36.31,36.31,0,0,1,.07-5.83h1.93a31.76,31.76,0,0,0,0,5.8h.38a33.55,33.55,0,0,1,0-5.8h2.34A67.46,67.46,0,0,0,476.75,179.53Zm1.81-9.51c1.55-2.08,1.87-1.67,4.5,0a69.81,69.81,0,0,0,6.59,3.67,1.64,1.64,0,0,1,1.31,1.87c0,1.46.27,1.9-2,.06a9,9,0,0,0-2.16-1.49c-2-.65.48.46,1.21,1.49.62.88,1.09.79-.5,1.19s-7.08,2.25-10,3.34C477.47,180.15,477,172.09,478.56,170Zm12.77,8.11c.15,1-1.13,1.4-1.13,1.4a42.6,42.6,0,0,0-6.2,3.3c-6.2,4.44-6.45-1.9-6.45-1.9,3.26-.78,3.26-1.06,2.72-1.32l5-1.59c.71.82,1.83,2,3.31.71,1.8-1.62-.16-.84-.6-.52s-.71.6-1.62-.5a13.61,13.61,0,0,1,2-.7,6,6,0,0,0,1.72.22C491.43,177,491.33,178.13,491.33,178.13Zm-15.91,52.36a23.13,23.13,0,0,0-4.91-1.86c-2.86-.72-2.45-2.58-2.45-2.58a8,8,0,0,1-4.56.13,8.52,8.52,0,0,1-4.06-2.57c6.17.69,4.64-1.71,4.64-1.71,3.44.33,4.36-.56,4.36-.56.78,1,2.82,1.07,2.82,1.07-2.55,1.65-.51,1.76.21,1.65s4.56-1,6.47.44,2.79.43,6.16,1.6a24.11,24.11,0,0,0,5.86,1.33c-3.61,2.12-10.25.41-13.18-.31a19.29,19.29,0,0,0-5-.61C475.62,229.29,475.42,230.49,475.42,230.49ZM502,232c-3-1.53-6.1-1-8-.65a2.18,2.18,0,0,1-2.5-1.11c1.2-.76,5-1,5-1C502.5,229.49,502,232,502,232ZM524.45,219a4.15,4.15,0,0,0-2.16.7,7.34,7.34,0,0,0-2.64-.4C523.45,218,524.45,219,524.45,219Zm-9.73-6.19a5.7,5.7,0,0,1,2.12,1.58c-.5.8-2.17.88-2.17.88A6,6,0,0,0,514.72,212.78Zm-57.34-15.24c-1.07.47-2.07.46-1.43,1.29s.18,1.26-1.68,3.18a4.61,4.61,0,0,1,2.13,3.28c.11,2.05,0,2.45-1.36,3.87a2.15,2.15,0,0,0,.7,3.61c1.27.57,3.37,1.15,7.61-1.18a18.34,18.34,0,0,1,12.15-2c3,.71,7.81,3,9.88,2.12s2.27.14,2.63.46.89.73,4.93-.12,8.38-1.6,11.84-.15,5.69,2.48,8.1,3.3,5.47-.29,5.63-2.72c0,0,2.41,1.49.75,2.61s-4.91,3.51-12.4-.32c0,0-.14.53.84,1.14,0,0-.89,1.51-4-.34s-7.34-2.91-11.47-.46c0,0,2.45-.29,7.15,2.18s6.61,1.16,9.06-1.15a23.86,23.86,0,0,0,4.54,1.5,28.56,28.56,0,0,0-4.7,2.32s.68.86,3.21.37,3.22-.9,4.49-.6c0,0-1.22,1.48-5.43,2.08a7.2,7.2,0,0,0,5.07-1.16c2.66-1.7,5.68-1.25,6.31,0a7,7,0,0,0-4.52.88c-1.91,1.32-3.56,1.18-5.25,1.19a3.94,3.94,0,0,0-2.38.53,9.17,9.17,0,0,0,3,.17c2.14-.12,8.87-.59,10.61,2.2a21,21,0,0,0-5.74,0,10.47,10.47,0,0,1-4.72-.11s.14,1,4.16.95a3.51,3.51,0,0,1-3,1s1.28,1.47,6.37,4.59a9.34,9.34,0,0,1-2.45-.13,1.33,1.33,0,0,0,.51.7c.36.2,1.94,1.16,2,1.73a13,13,0,0,1-4.62-2,10.8,10.8,0,0,0-5.09-2.32,23,23,0,0,0-5.86-.13s4.36,2.87,2.13,5.42a4.72,4.72,0,0,0-2.33-3.16,3.29,3.29,0,0,1,0,1.95,8.47,8.47,0,0,0-2-1.68s.52-2.76-3.68-3.5c0,0-5.83-.81-8.52,1a3,3,0,0,0,1.16,1.32,5.46,5.46,0,0,1-2.42-.12c-.58-.39-.71-.9-1.53-.87,0,0,.2,1.1-.44,1.55a5,5,0,0,1-4.43-1.36,1.13,1.13,0,0,1,0,1.08,20.2,20.2,0,0,1-3.85-2.24s-1.6.51-2,1.68a1.31,1.31,0,0,1-1.16-1,7.33,7.33,0,0,0-2.62-3.18s.41-.16,5.72,1.09,9,1,11.07,0,3.31-.76,3.82-.58c0,0-.44-.86-3.17-.52s-5.59-1.26-7.46-1.63a17.76,17.76,0,0,0-2.76-.4,3.58,3.58,0,0,1-2.68-1.07s-1-1.25-5.88-.33c0,0-3.7.67,1.17-1.68,0,0-3.66.77-4.67-1.36,0,0-.8,1.81-5.63.66,0,0,3.37,2.72-3.43,2,0,0-.71.15-3.3-1.91,0,0-1.33-1,1-.27a3,3,0,0,0,1.79.2,19.75,19.75,0,0,0-3-1,9.73,9.73,0,0,1-5.16-3.57,6.55,6.55,0,0,0,3.92,4.52,25.51,25.51,0,0,1,4.28,2.73s2.43,3.6,8.43,2.9c0,0,.61,2,5,3.08,0,0-6.83,1.72-9.57-.41s-1.89-2.24-3-2.2-1.89,0-2.09-.38-.21-.59.68-.52a7.38,7.38,0,0,0,1.88.06c.41-.1.53-.65-1.4-.58s-8.2-.72-12.2-4.65c0,0,2,4.35,8.63,5a7.15,7.15,0,0,1,1.84.31s.32,1-1.47,1.27-5.87.88-10.29-4a13.66,13.66,0,0,0-4.57-3.26s1.76,1.43,2.59,2.17,1.05.94-.7.94a6.71,6.71,0,0,1-6.34-3.23,23,23,0,0,0-2.82-3.59c-1.24-1-4.24-1.94-4.42-6.16,0,0-.11-.42,1.07-1.61s1.13-2,.75-2.75-1.17-2.18,3.18-4.73c.29-.17,1.5-.93,1.84-.46.46.64-.29,1.47-1.94,3.12s-1.18,2.9-1.18,2.9a6.12,6.12,0,0,1,1.35-1.93,2.69,2.69,0,0,1,0,1.6,1.83,1.83,0,0,0,.39,1.36,3,3,0,0,0,.19-2.65c-.36-1.1.05-1.38,1.21-2.54s.52-2.12.52-2.12a1.46,1.46,0,0,1-.11-1.56c.52-.92,2-1.31,3-1.4a3.64,3.64,0,0,0,2.31-.85c.41-.44,1-1.6,3.28.18,0,0,3.8-3.67,7.9-1.78a8.48,8.48,0,0,0,3.84.58.81.81,0,0,1,.86.52C458,197,458.44,197.06,457.38,197.54Zm49,19.64s-1.57,2.24-5.28.43-4.7-2.15-6.85-2.62a10.12,10.12,0,0,1,7,.25C504.61,216.82,504.1,217,506.35,217.18Zm45.44-115.64c2.42,1.63,3.58,2.7,4.29,2.93,0,0-.1,2.22-3.85.64a4.21,4.21,0,0,1-.2,2.11,11.52,11.52,0,0,0-3-1.32,3.63,3.63,0,0,1-.78,1.32,9.45,9.45,0,0,0-3.54-2.19,4.69,4.69,0,0,1-.72,1.15,8.68,8.68,0,0,0-3.54-1.12s.3,1.22,0,1.7c0,0-4.26-3.33-8-2.9,0,0,1.84,2.68,3,4,0,0-7.66-.61-6.4-4.74s-.11-3.09,4.9-3.06,9.57,0,9.57,0S549.37,99.91,551.79,101.54ZM527.6,99.92a2.83,2.83,0,0,1-2.21,0c-1.09-.53-.75-2.87,1.87-4.27s7.39-3.5,9.81-3.8c0,0-.34,3-7.87,5.58C529.2,97.43,529.68,99,527.6,99.92Zm31-17.63c-.65,1.76-3.68,4.94-11.11,7.52s-9.91,5.68-9.91,5.68c4-2.37,13.86-3.28,13.86-3.28-7.22,8.51-21.22,7.16-21.22,7.16a2.76,2.76,0,0,0,0-1.43c6.55-1.4,8.89-7.7,8.89-7.7-1.19,1.1-4.56,1.38-4.56,1.38,1.6-.74,7.59-5.1,8.45-5.58a3.59,3.59,0,0,1,1.73-.46C549.25,85.58,558.64,82.29,558.64,82.29Zm-9.85-2.12c-1.29,3-16.45,11.91-21.32,14.46s-3.61,4.81-3.65,5.73.68.74-2.55,3.34-5,2.3-5.35,3.06,1,.59,3.3-.74,5.08-4.79,8.11-5.25.09,3.91-5.55,6.63-2.18.87-5.49,3.72a24.65,24.65,0,0,1-8.38,4.23,22.4,22.4,0,0,1,4-3.57c1.5-1.12.41-1.17,0-.86s-3.44,2.49-4.33,1.88,0-1.33,0-1.33c2-1.87,8.59-6.83,8.63-7.58a3.23,3.23,0,0,1,1.46-3c1.05-.81,6.81-6.37,7.86-7.62s.86-.89,2.46-1.43,4.73-2.55,10.56-6.86S548.79,80.17,548.79,80.17ZM530.6,110.31c3.34,2.54-3.81,4.48-5.79,4.66a4.79,4.79,0,0,0-2.45.61c11.41,3.42-1.19,5.59-2.21,5.69s-1.07,1.31-1.88.28.44-2,.44-2,1-.84,3.82-.74-.65-.82-1.94-.56-1.13-.87-1.88-2.22,4.5-4.26,4.26-5.05-1.94,2.73-4.43,1.92-.37-2.38,1.09-3.19,8.11-5.25,8.11-5.25,1.81,1.19-.44,3.64C524.49,111.17,527.26,107.76,530.6,110.31Zm28-46.77c-1.15,3.32-4.76,6.12-10.28,9.18s-3.31,1.84-8.62,6.61-14,9.07-15.19,9.89-2.39,1.3-3.17,2.88-4.16,4.05-4.84,4.66-1.57,1.66-2.93,1,.16-1.77.16-1.77,5.46-5.22,7.13-6.59,15.4-11.07,18-13.26,2.59-3.14,3.34-3.93,2.18-.87,3.21-1.3,6.09-3.62,8.34-5.07A24.3,24.3,0,0,1,558.6,63.54Zm-51.42,42.79c-2.74,2.29-4,2.16-4.78,1.53s1.05-1.92,1.05-1.92c.27-.21,3.92-1.57,3.73-4.89s5.19-3,5.19-3C516.57,98.32,509.93,104,507.18,106.33Zm54.46-51c.77,4.55-12.31,12.37-15,13.94s-3.81,1.46-5,2.24-1.41,2.21-2.77,3.53-11.45,8.61-14.67,10.78-14.36,13-17.17,12.76a8.45,8.45,0,0,0-4.32.63c.64-2.14,4.32-4.69,8-7.71s5.5-5.44,7.72-6.83,14.72-10,19.21-13.84S561.64,55.32,561.64,55.32Zm-1.1-4.72c1.41,5-11,11.08-14.21,13.22s-7.13,4.56-9.22,6.39-16.72,12.07-21.12,15-2,1.63-3.82,3.81-9.49,7.47-9.49,7.47c-.48-1.76-4.09-1.39-4.09-1.39,1.55-1.22,8.68-7.14,12.36-10.33s11.31-7.62,14.71-9.9,10.4-7.65,11.22-8.66,5.4-4.29,7.49-5.92,3-.88,5-2.21S560.54,50.6,560.54,50.6ZM491.05,104a62,62,0,0,0,7.06-4.93c.58-.71-1,0-1.77-.38s1.66-4.13,4.73-2.14-7.8,11.22-7.8,11.22C494.6,106.07,491.05,104,491.05,104Zm0-8.14c.17-2.27,4.12-1.79,5-.63,1.87,2.52-5.21,8.54-5.32,7.52s-2.48-1.74-2.48-1.74c.51-.35,3.38-1.61,5.07-3.74C494.6,95.64,490.88,98.14,491.05,95.87Zm-1.32-1.12c-.55-.71-2.37-.74-2.37-.74,1.45-1.78,9.6-6.63,12.92-8.5s6.35-3.67,7.49-5a8.08,8.08,0,0,1,4-2.41c1.13-.28.9,0,4-1.94s.5-1.73,4.77-3.84,9.4-6.19,12.72-9.18,3,.07,6.31-3.5a40,40,0,0,1,8.27-6.43c1,3.5-5.14,7.55-7.59,9.15s-5.31,4.59-8.72,7.24-6.63,4.21-11.76,8-7.27,3.78-8.59,6-14.48,11.15-14.48,11.15A5.4,5.4,0,0,0,489.73,94.75ZM551,54.19c3.34-2.14,8.35-5.26,9-6,0,0,1.19,1.35-1.43,3s-7.73,5-8.35,5.53a10.22,10.22,0,0,1-4,1.89A15.37,15.37,0,0,1,551,54.19Zm-.37-5.81c.07,1.5-.82,2.55-2.69,3.64a83.68,83.68,0,0,0-9.78,7.87c-2.15,2.13-3.87.92-4.36.47s.31-.94.31-.94A112.75,112.75,0,0,1,550.63,48.38ZM495.79,79.12c.37-1.73.1-1.45,3.75-3a145.38,145.38,0,0,0,16.59-8.26c4.66-2.88,11.75-7.52,13.21-8.64s5-3.62,6.46-4.79a3.14,3.14,0,0,1-.87,3.31c-1.57,1.35-7.6,5.59-8.59,6.25s-6.54,4.38-8.24,5.33-5.93,3.08-7.42,4.33-1.31,1.63-8,4.9-7,3.59-6.79,3.85,3.2-1,4.63-1.89,6.92-3.34,8.55-4.64a60.55,60.55,0,0,1,5.59-4c1.19-.67,11.07-6.58,13.9-8.67s3.61-2.78,4.22-2.42,1.6.38.34,1.58a84.8,84.8,0,0,1-6.81,5.73c-1.53,1-6.33,3.88-7.66,4.57s-1.84,2-2.59,2.5a16.33,16.33,0,0,1-5.59,2.7c-2.66.61-3.13,2.6-4.87,3.72s-14.1,7.78-14.47,8.11c0,0,.74-.77.2-2.55h0a2.14,2.14,0,0,1,.54-2.53C493.13,83.61,495.41,80.86,495.79,79.12ZM478.42,83.3c.87-.53,15.5-7.44,15.5-7.44.23.89-.38,2.14-2.12,3.39s-3.91,3-4.73,4.49-4.05,2.42-4.29,2.5a23,23,0,0,0-2.63.81,4,4,0,0,1-4.12-.51C474.7,85.29,478.42,83.3,478.42,83.3Zm-16.87,40c-2.54.4-4.9,1.41-8.15,4.19s-6.8,1.86-7.52-1.25a10.81,10.81,0,0,1-.29-4.2s1.84-11,12.12-11.78c9-.7,11.88.42,13.67,1s6.18,1.87,4.48,3.28-2.68,1.16-2.68,1.16,2-2.19.18-2.57-1.95.72-2.2,1.63a4.7,4.7,0,0,1-1.25,2.74,1.6,1.6,0,0,0-2.2-.14c-1.3.92-.19,1,.34.8s1.2-.42,1.06.38-.86,2.17-3,3.29A9.62,9.62,0,0,1,461.55,123.33Zm3.41.11c2.45-1.59,3.51-1.61,4.71-3.81s1.18-2.8,4.11-3.41,3.68-1.84,3.68-1.84c3.13,1.43,2.25,7.91,1.19,7.35a4.72,4.72,0,0,0-2.4-.41c0,1,0,1.89,0,1.89a5.31,5.31,0,0,1-3.29-2.68c-1.84,2.24-.17,5.51-.17,5.51a18.72,18.72,0,0,1-3.5-.44,9.43,9.43,0,0,1,.34,3.16c-.34,0,.13.26-1.57-.33s-.75,2.86-.75,2.86a13,13,0,0,0-5.35,1.2,5.88,5.88,0,0,0-1.08-4A13.4,13.4,0,0,1,465,123.44Zm-29.53,41.91c-1.84-1.12-.85-3.67-.45-4.28a14.89,14.89,0,0,0,1.71-3.7c.17-1-.07-.94.92-1.22s7-1,8.68-.41-.47.92-3.1,2.19a6.28,6.28,0,0,1-4.73.46c.78,2.14,5.89-.15,7.22-.79s1.57-.89,1.16.61-2,2-5.62,3.8.41,3.49.41,3.49A6.77,6.77,0,0,1,435.43,165.35Zm11-5.61a34.7,34.7,0,0,1-5,4.87s-1.91-.92.24-2.09S446.09,160.23,446.4,159.74Zm5.58-3.29c-.48,2.55-5.49,5.74-7.26,7.17s-2.52,1.07-2.52,1.07.45-.38,3.1-2.86,2.62-4.26,2.56-4.71-.75-1.89.88-2.63S452.46,153.9,452,156.45Zm18-11.32a20.52,20.52,0,0,0-5.27,2.83s-.39-.18-.42-1.35a3.54,3.54,0,0,1-1.32,2c-1.19,1-4.06,3.11-5.11,4.18s-3,3.19-5.15,3.08a1.7,1.7,0,0,0-1.09-2.14A4.41,4.41,0,0,0,447,155s-5.58.08-7.36.33c0,0,1.26-2,2.42-2s5.83.69,6.24-2.5-3-2.34-1.71-4.23,1-1.81,1-2a4.32,4.32,0,0,0-1.66,2.27,8.42,8.42,0,0,1-3.17,4.58,3.93,3.93,0,0,1-1.22,1.11,10.2,10.2,0,0,0-1.88,1.71,7,7,0,0,0-.75,1.14s-1,.14-1.91.34a14.14,14.14,0,0,1,.35-3.41h0a3.92,3.92,0,0,1,1.09-2.75v0a5.44,5.44,0,0,1,.73-.93c2.06-2.07,11-11.32,14.5-16,0,0,.21-.17.16-.21a12.81,12.81,0,0,0,1.08-1.62,4,4,0,0,1,1.57,3,22.48,22.48,0,0,1,3.47-4.61,5.44,5.44,0,0,1,1.12,4.17,16.65,16.65,0,0,1,7.12-1.5s-1.6,1.88-1.67,3c0,0,6-.66,9.13-.15,0,0-8.24,4.61-5.92,5a15.32,15.32,0,0,0,4.73,0,12.53,12.53,0,0,1-6.81,3.22s5.31-.08,6.37,1.12A40.27,40.27,0,0,0,470,145.13Zm-24.28,5.47c-.21-.34-1.19-.34.4-2.14a2.14,2.14,0,0,1,1,.6c.38.44,2.18,4.28-4.68,3.85,0,0,.18-.64,1.82-.91S446,150.94,445.75,150.6Zm49.32-10.1c-4.49,1.93-3.06-.11-11.89,2.32s-8.07.38-10.42-.28,7.73-4.29.95-3.32.62-3.21,3.68-4.54-2.35.82,1.67-2.11,4.23-1.43,4.57-.62-.24,1.84.54.87,1.4-.81,2,.67,3-1.87,3-1.87c2.29,3.37,3.31,1.48,3.31,1.48,2.11-2.7,1.09.77.75,1.3s-2.12,3,.28,1.46,2.82-1,3.16-.23.58.43,2.76-1.18-.07,3.11,2.69.84,2-.15,2,.39-.51,1.63,1.5.4,2.39-.53,3,.13,2.29-.56,2.93-.84,1.71-1.1,1.67,0,0,1.1.82.61,1.46-.12,1.26.67-.2.76.34.79,4.5-.67,1.53.89,4.26-.18,1.3,2.19.78,1.66,2.52,1.73,3.51,1.61,2,1.87-.48.79,1.05,1,.55.92-1.49,1.51-1.57,1.07-.07,1.53-1,1.91-2.49,1.91-1.53,1.07-.48,1.94,1.33,1.81-.44,1.35-1.63.64-1.12,1.36.75,1.52,0,2-1.77,4.46.34,5.11a2.59,2.59,0,0,1,2,2.44c-.41-.67-1.87-.8-1.87-.8a9.64,9.64,0,0,1-.61,4.77c-4.5-2.19-4.94-8.33-4.94-8.33-1.13,1.12-3.24,3.16-3.24,3.16-1.36-3.16,2.35-3.62,2.38-6.48s2.29-4.49,3.1-5.2a16.5,16.5,0,0,0,2.66-3.57c1.36-2.06.21-.28-4.56-.76s-9.88-3.45-11-4.69,3.85-1.41-2.18-1.28S499.57,138.56,495.07,140.5Zm12.17,18.37c.88-2.39-.69-3-2.42-4.2s-3.27-3.47-5.08-7.07-1.22-5.58-1.19-5.68.85-1.71,2.66,1,8.75,4.51,12.26,5.1,1.19,2,.27,2.91-3,1.91-3.06,4.87-.72,2.83-1.44,3.59-1.7,1.63-.74,3.49.1,2.17-1.16,4.11-3.82.51-3.82.51C504.82,165.55,506.35,161.27,507.24,158.87Zm-2.55,9.51c2.13.78,3.05-.7,4.62-3.24a10.3,10.3,0,0,1,3-3.37c.44.33,1.51,3.91.24,4.25s.05.87-.22,1.42-.75.3-1.44.41.92.71.19,1.46a1.94,1.94,0,0,1-2.37,0,3.78,3.78,0,0,0-3.15-.05c-1.15.56-1.3,0-1.61-.08s.4.45,0,.8-.61.26-1,0-.7-.42-.21.07.76.3.47.59-.58.1-1.49.1-1.79.39,0,.32.41,1,.25,1.2-1.2.15-1.2.15c-1.88,0-1.23.19-1.23.19,2.05.41,2.08,0,1.83.75a1,1,0,0,1-1,.72,7.38,7.38,0,0,1-3.17-.14c-.63-.18-.33-1.07-.33-1.07s.08-.28.65-.28c.88,0,.71-.5.23-.55s-.49-.24-.49-.24c-.24-.87.34-.74,1.16-.71s.31-.49.07-.5-.36-.19-.22-.39.13-.32,1.46-.35-1-.25-.21-.7A4.82,4.82,0,0,1,504.69,168.38Zm7.62,5.08c.73-.36.78,0,1.14.37s.83.62-.3.63-3.57,0-3.57,0-1.65.14-.82-.53.72-1.48.29-1.53,0,.41-.29.73a1.91,1.91,0,0,1-1.41.6c-.58,0-1.09.41-.17.75s-.1.55-.58.53-2.77.18-.44.46-.21.21,1.5,1.19c1.89,1.08.53,3.38-.19,3.58,0,0-.78.43.21.31s1.53-.26.83.28-2.09,2.32-4,.95c0,0-.88-.42.7-.5s-1.29-.41-1.77-.73-2.3-2.18-1.16-2,.74-.44.05-.68-.81-1.29-.05-1.06a8.92,8.92,0,0,0,2.29.63c.61,0,.44-.28-.87-.69s-1.86-.47-1.55-1.58,1.73.43,1.39-.4-1.58-.42-.92-1.52.82-.62,1.13-.48.79,0-.07-.61c-.55-.41.05-1,.2-1.1s2.94-2.76,5.4-.89a27.2,27.2,0,0,1,2.73,2.19s.29.24-.38.83S511.57,173.81,512.31,173.46Zm-11.37,1.74c-.08.42-1.21.61-2.48.59s-2-.16-2-.58a1.76,1.76,0,0,1,.2-.87c.08-.19.42-.12.92.09a7,7,0,0,0,2.76,0C501.33,174.28,501,174.77,500.94,175.2Zm-5.19-1.56c-.25,1-1.16.41-1.44.47s-.34.45.54.49.65.63.65.63c0,1.06-.65.86-.93.8s-.55.11-.3.24c.67.32,1.1.12,1.15.63s-.05.48-.78.24-.59.09-.48.14,1.17.35,1.39.82a11.24,11.24,0,0,1,.48,1.59c.31,1.34-1.21,1-1.21,1-2.63-.78-3.05-3.85-3.05-3.85a10.17,10.17,0,0,1,.93-6c.24-.36,1.32-2.14,5-2.69s.92,1.11.43,1.45-1,1.38-1.85,1.26-1.44.21-.73.3c1.48.21.61.49.52,1.12s-1.17-.21-1.37.34S496,172.57,495.75,173.64ZM497.2,176a8,8,0,0,0,2.8-.07c1.2-.3,1,.13,1,.7s-.75.71-1.14.78a10.59,10.59,0,0,1-2.7,0,1.06,1.06,0,0,1-.94-1.09C496.23,175.72,497.05,176,497.2,176Zm-.84,2.52c-.25-.86.14-1,.6-.87a8.73,8.73,0,0,0,2.85.1c1-.18,1,.27,1,.27.18.71-.22.78-.22.78a10.47,10.47,0,0,1-3.51.14C496.43,178.89,496.36,178.52,496.36,178.52Zm.12,1.18c-.12-.5.35-.55.92-.48a12.93,12.93,0,0,0,2.94,0h0a1,1,0,0,1,1.08.37c.61,1.24-.78.8-1.56,1.72s-.79.73-1.88.41S496.48,179.7,496.48,179.7Zm-36.15,17.72s-1.54.26-1.67-.81c0,0-.31-.82,1.43-1.07s24.44-3.5,24.44-3.5,1.21,0,1.38.79-.14,1.5-5.62,2.14S460.33,197.42,460.33,197.42Zm34.17-4.71A17.27,17.27,0,0,0,491,193c.24-.73-.92-2-.92-2A3.56,3.56,0,0,1,494.5,192.71Zm-1.58-2.18s.31-.58,1.9-.68a3.47,3.47,0,0,1,2.39.85c-2.06.82-2.06,1.63-2.06,1.63A4.2,4.2,0,0,0,492.92,190.53Zm-2.8,2.65c-.9,0-.53-.28-.7-.85a1.86,1.86,0,0,0-.67-1l.94-.15S491.27,193.15,490.12,193.18Zm-1.14-.24a8.07,8.07,0,0,0-2.51.34s.38-1.24-1.71-1.7a3.21,3.21,0,0,1,2.66-.34C489.18,191.63,489,192.79,489,192.94Zm-4.9,6.38a3.76,3.76,0,0,1-3.27-3.69c0-.37.72-.35,1.59-.48,2.14-.31,1.51.07,1.7.67a1.32,1.32,0,0,0,1.53.93c.28-.08.13-.36-.64-1.53-.36-.55.65-1.1,1.75-1.56a4.5,4.5,0,0,1,2.24-.26c1.41.26.43,3.61.21,4C488.34,199.12,487.25,199.78,484.08,199.32Zm9.88-.84a4.86,4.86,0,0,1-4.21,1.11c-1.08-.46-.95-.31-.11-1.58a4.7,4.7,0,0,0,.73-4c-.14-.36.25-.66.8-.77a11.32,11.32,0,0,1,3.24-.12C496.08,193.35,496,196.89,494,198.48Zm2.43,0c-1.48.12-.82-.69-.82-.69,1.49-2.77.3-4.27.3-4.27a1.45,1.45,0,0,1-.3-.75c0-.9,1.56-1.54,2-1.68a1.16,1.16,0,0,1,1,.25c2.92,1.88,1.8,2.3,1.44,2.4s-1.07.63-.21.58,1,.44,1,.44C501.16,196.73,497.86,198.31,496.39,198.43Zm7.5-9c4.65-.71,31.59-4.78,34-5,2.68-.27,3.71-.63,4.59,1.53,1,2.45-3.68,2.49-3.68,2.49l-32.11,3.64c-1.57.18-1.93-.42-1.93-.42a11.26,11.26,0,0,0-1.18-1.65S503.19,189.52,503.89,189.42Zm-2.23-.14a3.92,3.92,0,0,1,2.55,2.66c.7,1.67-1.83,2.2-2.44,2.26s-.41-.61-.4-1.11-2.31-2.16-2.31-2.16c-.59-.31.13-.75.13-.75C500.19,189.43,500.49,188.87,501.66,189.28Zm-1.41-.33a6.42,6.42,0,0,0-2.23,1.6,6,6,0,0,0-2.06-1A4.17,4.17,0,0,1,500.25,189Zm.27-4.56a5.51,5.51,0,0,0-1.84,3.36,1.94,1.94,0,0,1-1.75-.28,3.92,3.92,0,0,0-1.35-.76c0,.35.38.76.38.76,2,1.4.87.79,0,1.51s-2.25.28-3,.86-.75.46-1.35.41a2.9,2.9,0,0,0-2,.44,3.72,3.72,0,0,1-2.47.09,2.32,2.32,0,0,0-2.48.35,3.51,3.51,0,0,1-2.45.91c-1.06.17-.5-.53-.5-.53,1.91-3.15,4.64-4,7.6-4.55s8.06-3.91,8.63-4.31,2.3,0,3.33,0S502.26,182.79,500.52,184.39ZM502,182c-.27.46-.73.3-1.6.25s-.24-.5-.24-.5c1.19-1,1.72-1.33,2.5-.68S502.31,181.51,502,182Zm11.43.12a16.5,16.5,0,0,0-.19,2.09c.38,4-5.75-.36-5.75-.36a14,14,0,0,1-2.61,2.79h0a10.21,10.21,0,0,0-2.11-3.18c-.6-.57-.57-.72.16-1.24a1.2,1.2,0,0,1,1.44.1c1.7.91,3.52-.14,4.41-1.09s1.48-.83,1.48-.83l5.72.17C515.69,182.32,513.47,182.1,513.47,182.1ZM508.72,180s.46-.3.62-1.48l3.26.09h0l11.9.35h0l18.87.55A3.15,3.15,0,0,0,544,181Zm38-2.46c.46,2.12-1.34,3.91-2.17,3.11a2.56,2.56,0,0,1-.62-2s.14-1.84,1.16-2.45C545.64,175.88,546.38,176.07,546.71,177.56Zm-2-1.71a4.71,4.71,0,0,0-1.4,3.39l-34-1c.05-.54,0-.84-.71-1.69-.9-1,.1-1.55.1-1.55Zm-26.66-1.22-3.35-.13a20.68,20.68,0,0,0-3.61-3.63s-.7-.31.65-1.38a4.39,4.39,0,0,0,1.78-2.74c.06-.52-.08-1.34.43-.71s4,3.76,4.48,2.83a6.82,6.82,0,0,0,.66-1.65c.09-.28.21-1.15.7-.24s.84.67.85,3a13.71,13.71,0,0,0,.45,3.16S516.72,171.75,518.08,174.63Zm15.62-42.1a22.35,22.35,0,0,1-5.83,1.28c-3.09.2-4.64.78-5.25,1.26a5.45,5.45,0,0,1,2.22,2.49,8,8,0,0,1,3,.14,1.92,1.92,0,0,0,.72,2.24c1.25.79,2.11,1.07,1.18,2.15s1.43.61.09,2.12-1.7,2.28-1.74,3.5.29,1.41-.91,1.53.2,1.46-.34,3.06S523,153.73,523.1,158a13.38,13.38,0,0,1,2.93-3.93c2-1.83,2.06-2,2-3.11s-.14-.85.93-1.68-.48-1.61.59-2.8.14-1,1.39-2.16-1.1-1.36.18-2.6-3.07-2.65-1.82-3.45,3.41-1.91-3.86-1.79c0,0,1.75-2.89,7.88-2.26,0,0-1.61,1.14-1.75,2.26a6.5,6.5,0,0,0,1.14.46,4.39,4.39,0,0,1-1.41,1.82s3.25,1.82,3.77,2.89c0,0-2,.61-2.48,1.48a5.74,5.74,0,0,1,1.16,2.26s-2.2-.27-2.5,1.37-.95.53-.95,1.5.07,1.36-.7,1.51-.14,1,0,1.52a7.27,7.27,0,0,1,.27,2.17,9,9,0,0,0-1.64.17s.35,2.36-1,2.7.7.82-.71,1.07-1.22.34-3,3.44c0,0,1.48-.83,3-1.84s-.11-.69,2.41-3.18,2.06-2.66,1.86-3.92a3.94,3.94,0,0,1,.66-3.47c.91-1.19,1.2-2.55,4.43-2.38,0,0-1-2.14-2.14-2.7a7.7,7.7,0,0,1,3.18-1.22,17,17,0,0,0-4.36-3.39,20.34,20.34,0,0,0,3-3.06,6.33,6.33,0,0,1-2,0s.41-1,2.58-2.41a3.7,3.7,0,0,1,1.12,2.29s3.72-2.14,5.83-1.9c0,0,1.07,2.68-4.11,7.71a29.4,29.4,0,0,0,4.57.12s-.77,2.48-4.66,3.95.84,3.17-3.13,2.87-2.75,1.07-2.64,3.09a42.87,42.87,0,0,1,.16,4.66s-3.18-1-3.11,2-1.63,3.72-2,4a7.74,7.74,0,0,0-2.32-1.31,18.91,18.91,0,0,1-5.16,5.94,2.74,2.74,0,0,1-1.07-2.13,1.76,1.76,0,0,1,1.07.63s2.75-3.11-.53-4.23-1.65-4.1-.54-4.11,1.31-.33.37-1.57-.87-1.29,1-1.61,1.61-.72.78-1.18a5.78,5.78,0,0,1-1.46-1.2S525.68,149,524,148s0-.78,1.52-1.87,1.73-1.29,2-1.72a10.23,10.23,0,0,1-2.61-.07s1.31-.64,0-1.71-1.86-2-4-1.55-1.41-.2-.59-1.07.43-1.36-1-1.58a4.47,4.47,0,0,1,1.29-2s-2.84.2-3.79-.29A3,3,0,0,0,518,134.4a9.73,9.73,0,0,1-3.54.33s1.16-1,1.16-1.89a16.91,16.91,0,0,0-5,2,1.12,1.12,0,0,1-.61-.44c-.27-.37-.48-.75-4.27.46a5,5,0,0,1,1.34-2.36c.91-.68.77-2-5.13,1.65a4.43,4.43,0,0,1-1.46-2.25,11.73,11.73,0,0,1-2.24,2.42s-.82.34-.72-.81-.58-.33-1.19,0-1,1.15-.72-1.17-.81-2.81-.81-2.81-1.84,2.6-2.9,2.88a18.53,18.53,0,0,1-2.62-3.13c-.68-1.25-.68-1.71-1.37.45s-1.53,2.35-1.53,2.35-1.16-1-1.29-1.53a2,2,0,0,1-.58.84,4.77,4.77,0,0,1-1-2.93s-6.34,3.49-7.12,5.61a53.05,53.05,0,0,0-8.48.1,5.82,5.82,0,0,1,2.18-2.9,1.86,1.86,0,0,1-1.63-1.79,6.45,6.45,0,0,0,2,0c.78-.2-1.09-2.47.88-2.52s3.24.94,2.35-1.68-.47-2.63-.47-2.63,3.44,2,4,1.53-.44-1.6,2.63-1.09,2.21-1.25,3.4-1.33,1.84.77,1.09-4.79,3.72,2.75.68-5.64a7.12,7.12,0,0,0-2.58-3.62s-.41,1.84-2.47.22-6.12-2.19-4.42-3.47,2.51-3,2-4.05c0,0-2,2.1-5.5.6-2.76-1.19-3.34,1-6.16.35,0,0,.05-.72,2.43-2.6s-1.38.63-2.86,1-1.91.06,1.23-2.36,9-6.46,8.52-9.92c-.24,1.42-5.32,5.5-6.1,6s-1.06.15-2,2.09-5.32,3.08-5.32,3.08a2.59,2.59,0,0,1,.72,1.33,8.53,8.53,0,0,0-6.17.56c0-.53-.12-2.69,3.61-3.21s4.39-2.88,4.39-2.88c4.12-.89,7.5-5.33,7.5-5.33-6.3,5.23-10,4.59-10,4.59.68.51.55,2.12-1.05,2.6s-1.23-.66-4.09,1.22S454,103,454,103c3-2.4,5-2.32,7.9-2.53s1.87,3.42,1.87,3.42a10.25,10.25,0,0,1,9-1.58,5.76,5.76,0,0,0,3,.43c-.48,1.17-1.91,1.4-3,1.79s-2.32.38-.51.89a21.1,21.1,0,0,1,6.88,3.46c2.66,2,2.89,1.23,2.93,1.08s.34-1.66,1.56,1.4-.81,1.4-1.39,1.17-1.57-.71-.68.38,1.56,4.29,1.77,5.71-.34,1.38-.79,1.1-.54-.71-.71,1.15-2.11,1-2.11,1c1.91-4.06-.07-6.45-.68-7.12s-3.92-4.3-13.63-5.17-13.69,1.63-13.69,1.63c-5.66-1.58-6.13-5.2-1.5-11.45s11-8.33,16.72-11.11,7-4.46,7-4.46c.51.53.65,1.86,1.33,2.88h0s1.49,1.85,5.31.51,6.71-1.84,7.87-3.83,4.19-4,5-4.43,1.84-.74.64,1.15a16.53,16.53,0,0,1-8.45,7.31c-5.31,2.19-7.35,3.8-8.31,4.95s-5.79,3.72-2.65,3.29,8.58.07,6-.67-5.45.46-3.1-1.68,2.76-2.85,6.16-4.28,7.19-4.69,6.81-1.23-6.71,7.17-8.27,8.29-1,.94-1,1.4a2.29,2.29,0,0,1-.88,1.84c-.65.43-.45.92-.27,1.88s-.18,1.36.3,1.51,1,.23,1.09.92.5.77,1.42.7,1.49,0,1.56.55.94,1.26,1-.37.7-2-1-1.2-2,.48-2-.3-.16-.59-.85-.66-.94-1,.3-1.69,1.23,0,2.78-1.28,1.55-1.64,1.79-2.24-2.22,1.74-3.39,2.28-.87-.37-.67-1.71S485.64,95,487,95s4.38.76,3.07,2.6-5,4-3.42,4.18,1.85-.46,2.77.36.07,2.47-.35,3.35a6.57,6.57,0,0,1-1.71,2.19s-1.68-3-1.63-.62-.36,3.24,0,3.33a21.21,21.21,0,0,0,2.82,1.36c.6,0-3.23,1.8-1.63,1.91s4.14-.7,5-2.36c0,0-3.25-.79-4.56-2,0,0,3.8-.89,2.74-4.55,0,0,3.78,1,2.15,2.74s-2.62,1.45-1.21,1.94a12.65,12.65,0,0,1,2.11.89s1,.48.41,1.27-.58,2-.1,2,2.07-.77.73-1.58,1.53-.68.31-1.37a8.14,8.14,0,0,1-1.88-1.18c-.32-.33,15.4-9.55,7.46-6.1,0,0,1.65-3.58,4-3.59s2.49,1.82,1.18,3.21-2.17,3.56-5.25,4.07c0,0,4.41,2.16-.8,5.68,0,0-1.13.54-.72.93s3.5-1.36,3.93-2.35a4.41,4.41,0,0,1,2.27-2.32c1.18-.58,7-4.54,8.74-7.53s2.23-3.1,5.63-5.83,2.82-2.2,3.25-2.86a5.22,5.22,0,0,1,2.18-2.63c1.57-.89,7.65-4.27,9.56-5.65s5.82-3.91,7.5-6.05,6.2-4.87,7.33-4.37-.11,2.11-2.77,4.13-9.24,7.35-10.31,8.16-6.65,4.9-8.74,5.17-1.86,1-3.11,2.36-4.14,4.22-5.11,5-3.3,2.38-3.43,3.5.41,1.26-1.46,3-7.31,5.71-9.28,6.34c0,0,3.49,1.16,1.4,3.52s-2,2-2.11,2.17c0,0,5.31-.78,1.55,3.35,0,0-.73,1.19.95,0a2.54,2.54,0,0,0,.82-3.4,13.3,13.3,0,0,1,6.06-1.8c3.25,0,3.13-.27.23-1.11,0,0,2.06-2.51,3.81-1.27s1.18,2-.66,2.94-4.56,1.39-6.58,2.52c0,0,3.84.74,5.9-.82s2.16-.78,2.43-.51.5.78-.41,2.09-1,1.38-.95,1.67-.07,1.19-1.93,1.49-2.7,1.09-2.07,2,.66,3.08-.93,2.88-1.16-1.47-1.77-2-1.47-1.26-4.25.19-3-.27-2.86-1.17c0,0-1.79,1.56-3.29.11s-.14-2,.73-2.73,4.38-2.26,2.27-2-5.27.41-6-1.22,1.57-1.45,1.93-1.3,1.86,1.36,1.91-.22,2.38-1.75,1.59-2.07-1.91.68-2.23,1.07a4.09,4.09,0,0,0-4.26-1.53c-2.64.75.84.44,1.54.56s.29,1.43-2.07,3.55-1.29,1.48.46,1.48,6,0,3.54,2.06-3.5,3.06-4.79,2.7.16-1.21.72-1.56.91-1-.31-.53-1.66.55-2.64-1.19-.57-1.22-.16-2.36,1.37-2.35.23-1.92-1,.46-.93-.85a1.6,1.6,0,0,0-1.3-1.6,2.81,2.81,0,0,1,.05,2.14c-.5.83-.52,1.12.3,1.34s1.58.92.47,1.69-1,.66-.27,1.12,1.72,1,.63,2.05-.18.75.37.75,1.78.46,1.8,1.52-.08,1.3,1.7.32,5.31-.87,5.26.51-.45,1.72,1.43.54,2.73,1.11,4,0,2.12-2.17,3.61-.29,1,2.46-.79,3.79.89.31,2.27-.4a11.12,11.12,0,0,1,7.49-.21c2.23,1,2.87.77,4.5.09s2.48-.84,5,.81A9.69,9.69,0,0,0,533.7,132.53Zm20.13-18.68c-2,.46-2.08-.79-3.61,1.07a14.12,14.12,0,0,1-6.61,4.11c-2.25.58-1.43-.64-3.3,1.31s-3.14,0-3.14,0a6.05,6.05,0,0,1-1.19,3.45c-.48.64-1.91,2.45-2,1.28a2.72,2.72,0,0,0-1.16-1.81c0,.92-.89,2.78-2.76,4.64s-1.77-.13-1.64-.31.51-.81-.44-1.43-3.06-1-1.8-.15.44,1.15-.24,1.66-1.4,1.25-3.24-.23-3.92-.77-1.87-.15.24,3-1.6,1.83a4.72,4.72,0,0,0-2.93-1c-2.52.39-5.15.56-3.24-.28s.89-1.83.79-3.29,2.07-.89,2.62-1.09.34-.77,1.6-.95,1.29.33,1.7.16.1-1.18,2-.59.92,2,.71,2.45-1.63,1.48-.1,1.14,5.42-3.69,5.42-3.69c1.56,1,1.36,1.81,1.36,1.81a7,7,0,0,0,3.61-4.57,4.17,4.17,0,0,1,1.4,1.38,12.48,12.48,0,0,0,3.27-2.88,5.84,5.84,0,0,1,1.77,1.17,11.1,11.1,0,0,0,2.21-2,1.55,1.55,0,0,0,1,.59c1.3-.59,3.55-3.44,3.55-3.44,1.29.89,1,.61,3.06-.21,1.15-.44,1.21-1,1-1.46a1.13,1.13,0,0,1-.32,0c-.9-.32-2,2.28-3.19,1s-1.23-.69-2.08.64a19.9,19.9,0,0,1-2.18,2.67,6.1,6.1,0,0,1-1.17-.89,12.34,12.34,0,0,1-1.69,2.14,6.28,6.28,0,0,0-1.95-1.6,20.7,20.7,0,0,1-3,2.9,6.71,6.71,0,0,0-2.25-1.43,6.19,6.19,0,0,1-2.45,4.44,3.73,3.73,0,0,0-1.94-1.56,11.74,11.74,0,0,1-3.64,3.37,2.53,2.53,0,0,0-1.16-2.73s10.29-1.58,2.52-5.5c0,0,9.23-1.92,7-4.87s-4.3-2.3-4.62-2.25,2-1.71,2.58-1.48,8,3.09,6.13.64-1.74-2.29-2-3c0,0,2.46,0,6.17,3.62a3.12,3.12,0,0,0,.68-2.29,11.65,11.65,0,0,1,3.47,1.53,2.57,2.57,0,0,0,.28-1.43,9.67,9.67,0,0,1,3.06,2.52,4,4,0,0,0,1.23-2,10.64,10.64,0,0,1,2.86,1.66,3.27,3.27,0,0,0,.48-2.42s3.78,1.12,4.29-1.23c0,0,3.33.72,1.73,2,.68.49.52.82,1.06.34s.65.41.28,1.91S555.81,113.39,553.83,113.85Zm33.37-9.94c-.84,1.23-1.35.84-2.25,1.26s-.84.6-.6.85,1.2-.18,2.44-1,.66.41-.19,1a2.68,2.68,0,0,0-1,1.86c-.27,3-3.24,3.19-5.52,3.92s-13.15.54-15,.49-.34-.49,1.05-1.2-.13-.79-1.05-.25-2.12.94-3.51,1.7-3,.18-2-1.14a5.47,5.47,0,0,0,1.47-4c0-1.94-2-2.65-3.92-3.16s-3.24-2-5.89-3.8.2-2.58.2-2.58a10.55,10.55,0,0,0,2.07-1.22A16.81,16.81,0,0,1,558.29,94c1.23-.26-.36.29,3.12-1.31a14.17,14.17,0,0,1,7.49-1.14c.59.1-3.26,1.49-6.79,2.5a3.36,3.36,0,0,1-.77,0c-2.72.11-.67.48-1.65.84a5.65,5.65,0,0,0-2.49,1.47,23.46,23.46,0,0,1,5.41-1.84c2.84-.61,1.34-.31,4.86-1.7s3.2-1.14,4.29-1.31a6.68,6.68,0,0,1,3.16.36c.63.29-2.32,1.89-8.09,3.62s-7.06,4.35-7.06,4.35c1.86-1.14,3.36-1.72,6.16-3.16a16.22,16.22,0,0,1,5.45-1.9c.68-.07,1.06-.33,3.42-1.38s2.64-.8,3.66-.58a16.18,16.18,0,0,1,4.13,2c1.5.91-13.14,7.24-13.14,7.24,3.79-.09,10.12-3.18,12.42-5.1s2.5-1.77,4.27,0S585.5,98.72,583,100s-1,1.67-7.45,3.81-5.63,0-8.29,2.28-3.66.52-3.66.52c-.45.31-.63,2.55,2,1.11a19.87,19.87,0,0,1,6.58-2.47c2.46-.5,3.84-1.05,5.66-1.47s5.74-3.12,7.73-4.17,1.53.74,1.07,1.34.48.94.93,1.41S588,102.67,587.2,103.91Z" fill="#50d6cc"/><polygon points="465.89 138.65 465.88 138.66 465.88 138.66 465.88 138.65 465.89 138.65" fill="#50d6cc"/><path d="M495.79,227.31a6.44,6.44,0,0,1,5-.16c4.56,1.69,11.1-.15,11.1-.15-5.45-.38-6-2.37-10.29-2.37S495.79,227.31,495.79,227.31Zm10-1.06a14,14,0,0,0,2.59.9,11.46,11.46,0,0,1-6.13,0,22.14,22.14,0,0,0-4-.94A9.26,9.26,0,0,1,505.8,226.25Z" fill="#50d6cc"/><polyline points="24.44 1.26 8.34 1.26 8.34 136.2" fill="none" stroke="#a3a3a3" stroke-linecap="round" stroke-linejoin="round" stroke-dasharray="5 5"/><polyline points="22.61 300.09 8.34 300.09 8.34 163.92" fill="none" stroke="#a3a3a3" stroke-linecap="round" stroke-linejoin="round" stroke-dasharray="5 5"/><path d="M4.93,156.49H3.74v-9.14L1.62,148l-.28-.66,2.77-1.45h.82Z"/><path d="M16,151.36c0,3.63-1.81,5.3-3.35,5.3s-3.44-2-3.44-5.4,1.74-5.45,3.42-5.45S16,147.74,16,151.36Zm-3.38-4.51c-1,0-2.3,1.49-2.3,4.2a8.14,8.14,0,0,0,.24,2l3.73-4.83C13.81,147.29,13.18,146.85,12.6,146.85Zm-1.67,7.28c.46.93,1.12,1.45,1.74,1.45.94,0,2.22-1.13,2.22-4.09a9.38,9.38,0,0,0-.23-2.13Z"/><path d="M305.77,328.64h-1.18v-9.13l-2.13.63-.28-.66L305,318h.82Z"/><path d="M310.53,327.84l.83-.91c.18.11.13.3.27.41a2.39,2.39,0,0,0,1.28.38,2.22,2.22,0,0,0,2.09-1.45,7.25,7.25,0,0,0,.43-2.63,2.64,2.64,0,0,1-2.18,1.15,3.08,3.08,0,0,1-2.91-3.35,3.24,3.24,0,0,1,3-3.5,3.06,3.06,0,0,1,2.87,2.29,9.14,9.14,0,0,1,.37,3,8.48,8.48,0,0,1-.46,3.14,3.53,3.53,0,0,1-3.28,2.47A3.35,3.35,0,0,1,310.53,327.84Zm4.85-5.39c.18-2.13-.82-3.46-2-3.46-1,0-1.85.86-1.85,2.4s.92,2.36,1.87,2.36A2.47,2.47,0,0,0,315.38,322.45Z"/><polyline points="30.59 308.45 30.59 323.47 295.32 323.47" fill="none" stroke="#a3a3a3" stroke-linecap="round" stroke-linejoin="round" stroke-dasharray="5 5"/><polyline points="598.61 308.45 598.61 323.47 324.37 323.47" fill="none" stroke="#a3a3a3" stroke-linecap="round" stroke-linejoin="round" stroke-dasharray="5 5"/></svg>