<?xml version="1.0" encoding="UTF-8"?><svg xmlns="http://www.w3.org/2000/svg" id="Layer_3" width="500" height="300" data-name="Layer 3" viewBox="0 0 500 300"><defs><clipPath id="clippath"><rect width="100" height="100" x="534.93" fill="none" stroke-width="0" rx="14.44" ry="14.44"/></clipPath></defs><g stroke-width="0"><path fill="#071d49" d="M0 0h500v175.24H0z"/><path fill="#fff" d="m450 92.26-25 14.45-75-43.31-24.99 14.43L250 34.53l-75.01 43.3L150 63.4l-75 43.31-25-14.45-50 28.88V300h500V121.14l-50-28.88z"/><path fill="#071d49" d="M336.6 200V100L250 50l-86.61 50v100L250 250l86.6-50z"/><path fill="#ffb81d" d="m250 59.07-78.75 45.47v90.93L250 240.94l78.75-45.47v-90.93L250 59.07Zm75 134.24-75 43.31-75-43.31v-86.6l75-43.31 75 43.31v86.6Z"/><g fill="#ffb81d"><path d="M277.12 104.94h-54.21c-1.04 0-1.57-1.28-.82-2 7.89-7.56 17.44-12.47 27.89-12.47s20.1 4.92 27.94 12.47c.75.72.24 2-.82 2h.01ZM289.53 124.33h-79.06c-1.56 0-2.56-1.65-1.85-3.03a74.96 74.96 0 0 1 5.17-8.57 6.713 6.713 0 0 1 5.53-2.87h61.39c2.21 0 4.28 1.08 5.53 2.89 1.89 2.72 3.61 5.58 5.14 8.56.71 1.37-.29 3.03-1.85 3.03ZM296.68 143.71h-93.36c-1.36 0-2.35-1.28-2.01-2.58.79-3.06 1.6-5.94 2.44-8.49a4.96 4.96 0 0 1 4.72-3.4h83.07a4.98 4.98 0 0 1 4.72 3.4c.85 2.54 1.67 5.43 2.44 8.49.33 1.31-.67 2.58-2.01 2.58h-.01ZM300.89 163.1H199.13a2.07 2.07 0 0 1-2.04-2.46c.5-2.62 1.03-5.35 1.6-8.07a4.976 4.976 0 0 1 4.86-3.94h92.93c2.36 0 4.39 1.65 4.86 3.94.57 2.72 1.1 5.43 1.6 8.07.24 1.28-.74 2.46-2.04 2.46ZM259.68 182.47c-1.15 0-2.08-.93-2.08-2.07 0-2.1-.85-3.99-2.22-5.36s-3.28-2.22-5.37-2.22c-4.19 0-7.6 3.39-7.6 7.57 0 1.14-.93 2.07-2.08 2.07h-44.49c-1.28 0-2.25-1.12-2.06-2.38.28-1.82.71-4.58 1.26-7.94.4-2.39 2.47-4.14 4.9-4.14h100.12c2.43 0 4.5 1.75 4.9 4.14.56 3.36.99 6.13 1.26 7.94.19 1.25-.78 2.38-2.06 2.38h-44.5Z"/></g><path fill="#aa0200" d="M500 207.74V300H0v-92.26h150l100 57.73 100-57.73h150z"/><path fill="#fff" d="m250 195.24 3.1 9.55h10.04l-8.13 5.9 3.12 9.55-8.13-5.91-8.13 5.91 3.1-9.55-8.11-5.9h10.03l3.11-9.55z"/></g><g stroke-width="0" clip-path="url(#clippath)"><path fill="#071d49" d="M496.17-1.76h177.52v62.22H496.17z"/><path fill="#fff" d="m655.94 31-8.87 5.13-26.63-15.38-8.87 5.13-26.64-15.38-26.63 15.38-8.87-5.13-26.63 15.38-8.88-5.13-17.75 10.25v63.51h177.52V41.25L655.94 31z"/><path fill="#aa0200" d="M673.69 72v32.76H496.17V72h53.26l35.5 20.5L620.44 72h53.25z"/></g></svg>