<svg xmlns="http://www.w3.org/2000/svg" width="600" height="400" viewBox="0 0 600 400"><path d="M0 400h600V0H0z" fill="#ab0635"/><path d="M0 400h600V133.33H0z" fill="#fff"/><path d="M0 400h600V266.67H0z" fill="#004b8d"/><path d="M410.36 170.43a114.26 114.26 0 11-220.72 59.16 114.26 114.26 0 01220.72-59.16z" fill="#004b8d" fill-rule="evenodd"/><path d="M299.73 283.22a84.45 84.45 0 10-84.44-84.44 84.45 84.45 0 0084.44 84.44" fill="#fff"/><path d="M280.06 250.16a3.27 3.27 0 01.14-.33h.4a3.14 3.14 0 01-.08.4M373.71 285.48c-.74.33-1.08 1.27-1.88 1.07.73-.07 1.2-.81 1.88-1.07"/><path d="M299.68 150.78c4.67.57 4.67-3.71 6.42-3.71s2.62 3.42 5.63 2.76c3.6-.8 3.3-3.91 5.44-3.91 1.46 0 1.94 2.2 4.47 2.39s3.11-2.48 4.66-2.48c1.37 0 1.85.86 4.57 3.24 1.52 1.06 3.79 1.14 6.41-1.43a2.79 2.79 0 014.38.28c.77 1.24 1.13 3 3.11 3.81 1.45.57 2.71-.95 4.46-1.23s4.51 3.26 6.42 1.52c1.36-1.24 2.42-2.57.67-4.86l-.24-.25a77.39 77.39 0 00-112.6 0l-.24.25c-1.75 2.29-.69 3.62.68 4.86 1.91 1.74 4.66-1.81 6.41-1.52s3 1.8 4.47 1.23c2-.77 2.33-2.57 3.11-3.81a2.78 2.78 0 014.37-.28c2.62 2.57 4.89 2.49 6.41 1.43 2.72-2.38 3.21-3.24 4.57-3.24 1.55 0 2.14 2.67 4.66 2.47s3-2.38 4.47-2.38c2.14 0 1.84 3.11 5.44 3.91 3 .66 3.89-2.76 5.64-2.76s1.74 4.28 6.41 3.71h-.2" fill="#0083a9"/><path d="M296.75 147.77l1.16-3.51-3-2.16h3.76l1.16-3.5 1.16 3.5h3.76l-3 2.16 1.16 3.51-3-2.17-3 2.17M297.64 138.07l.81-2.43-2.11-1.5h2.6l.81-2.43.8 2.43h2.61l-2.11 1.5.8 2.43-2.1-1.5-2.11 1.5M308.34 147l1.3-2.21-1.74-1.9 2.55.53 1.3-2.21.27 2.54 2.55.53-2.38 1 .27 2.53-1.74-1.89-2.38 1M306.07 138.44l1.15-2.29-1.87-1.78 2.57.36 1.15-2.29.45 2.51 2.57.36-2.3 1.2.45 2.51-1.87-1.77-2.3 1.19M314.47 139.89l1.46-2.1-1.59-2 2.5.71 1.46-2.11.08 2.55 2.5.71-2.45.87.08 2.55-1.59-2-2.45.86M322.47 142.56l1.76-1.88-1.29-2.22 2.37 1 1.75-1.89-.28 2.54 2.37 1.05-2.55.52-.28 2.54-1.3-2.22-2.55.51M330.13 146.25l2-1.63-1-2.37 2.2 1.36 2-1.62-.64 2.47 2.19 1.37-2.59.16-.65 2.47-1-2.37-2.6.16M302.15 130.13l1-2.37-2-1.63 2.6.17 1-2.37.64 2.47 2.6.17-2.21 1.36.64 2.47-2-1.63-2.2 1.36M311.34 130.94l1.28-2.23-1.76-1.88 2.55.51 1.29-2.22.29 2.54 2.55.51-2.37 1.06.29 2.53-1.75-1.88-2.37 1.06M320.29 133.15l1.58-2-1.48-2.1 2.46.85 1.58-2-.06 2.55 2.45.85-2.49.73-.06 2.55-1.48-2.1-2.5.73M328.91 136.48l1.85-1.81-1.18-2.27 2.32 1.16 1.84-1.8-.41 2.52 2.32 1.17-2.58.39-.41 2.52-1.18-2.28-2.57.4M337.05 140.86l2.08-1.53-.85-2.42 2.14 1.47 2.08-1.54-.76 2.44 2.13 1.46h-2.6l-.76 2.44-.85-2.41h-2.61M344.37 146.38l2.28-1.24-.51-2.5 1.91 1.73 2.27-1.25-1.09 2.32 1.91 1.73-2.58-.3-1.09 2.32-.51-2.5-2.59-.31M291.2 146.89l-1.31-2.21 1.75-1.89-2.55.53-1.3-2.21-.27 2.53-2.55.53 2.38 1-.28 2.54 1.75-1.89 2.38 1M293.47 138.36l-1.14-2.29 1.87-1.77-2.58.36-1.15-2.3-.44 2.52-2.58.36 2.3 1.19-.45 2.57 1.87-1.78 2.3 1.19M285.05 139.85l-1.46-2.11 1.6-2-2.51.71-1.46-2.1-.08 2.55-2.5.71 2.45.86L281 141l1.59-2 2.45.86M277 142.47l-1.75-1.89 1.29-2.22-2.37 1-1.76-1.89.29 2.54-2.37 1.05 2.55.52.28 2.54 1.29-2.22 2.55.51M269.43 146.17l-2-1.63 1-2.38-2.2 1.37-2-1.62.65 2.47-2.2 1.37 2.6.16.65 2.47 1-2.37 2.6.16M297.5 130.08l-1-2.37 2-1.63-2.59.16-1-2.37-.64 2.47-2.6.17 2.2 1.36-.64 2.48 2-1.63 2.21 1.36M288.24 130.94l-1.24-2.23 1.76-1.88-2.56.51-1.28-2.22-.29 2.54-2.55.51 2.37 1.06-.29 2.53 1.75-1.88 2.37 1.06M279.24 133.09l-1.58-2 1.48-2.1-2.46.84-1.58-2 .06 2.56-2.46.84 2.5.73.06 2.56 1.48-2.1 2.5.73M270.54 136.45l-1.85-1.79 1.18-2.28-2.32 1.16-1.85-1.8.42 2.52-2.32 1.17 2.57.39.42 2.52 1.17-2.28 2.57.39M262.59 140.91l-2.07-1.53.85-2.42-2.14 1.47-2.08-1.54.76 2.44-2.13 1.46 2.6.05.76 2.44.85-2.41h2.6M255.19 146.47l-2.27-1.25.51-2.5-1.92 1.73-2.27-1.25 1.09 2.32-1.91 1.73L251 147l1.09 2.32.51-2.5 2.59-.3" fill="#fff"/><path d="M277.38 268.4c.36.11.32.35.33.58 0 1.12.12 2.08.24 3.07.69-.74 1.35-1.59 2-2.49.18-.23.23-.29.57-.2l1.26.39c.16.05.35.16.29.36a.21.21 0 01-.21.16c-.38 0-.43.12-.51.38-.23.77-.57 2.29-1 3.57-.07.23-.1.34 0 .47s.2.2.16.34-.28.19-.44.14l-1.41-.43c-.16-.05-.35-.16-.29-.36s.14-.15.26-.17.27-.14.34-.4c.35-1.13.6-2.19.87-3.25-.72.93-1.38 1.78-2.14 2.66-.26.29-.31.36-.65.26s-.41-.15-.45-.48c-.18-1.12-.3-2.21-.38-3.45-.4 1.1-.79 2.19-1.07 3.11-.08.26 0 .38.23.57a.24.24 0 01.11.3c-.07.22-.34.14-.61.06l-.64-.19c-.21-.06-.47-.15-.4-.37s.12-.18.26-.19c.29 0 .34-.11.42-.37.31-1 1.2-3.47 1.25-3.67s-.08-.26-.24-.37-.26-.17-.2-.34.31-.19.5-.13l1.44.44M285 271.66c.09-.48.13-.65.67-.55a2.05 2.05 0 011.5 2.65 2 2 0 01-2.3 1.84c-.58-.11-.55-.31-.45-.85l.58-3.09m-1.18-1.46c-.17 0-.39 0-.43.19s0 .21.18.3.15.19.09.48l-.68 3.63c-.05.27-.09.39-.3.44s-.21.06-.24.19.16.3.32.33l2.46.47a3 3 0 002.3-.36 3 3 0 001.15-1.91 2.66 2.66 0 00-.59-2.33 3.34 3.34 0 00-2.07-1l-2.19-.42M295.83 272.53a4.85 4.85 0 010 .85.29.29 0 01-.35.27c-.2 0-.29-.22-.34-.42a1.42 1.42 0 00-1.23-1.07c-1.11-.1-1.87.89-2 2.16-.06.65 0 2.33 1.61 2.47 1.08.09 1.48-.8 1.88-.77a.29.29 0 01.25.3c0 .48-1.1 1.25-2.47 1.12a2.89 2.89 0 01-2.79-3.1 3.16 3.16 0 013.45-2.76 3.45 3.45 0 011.75.67.53.53 0 01.23.28M302.73 272.57a4.71 4.71 0 01.08.85.3.3 0 01-.33.3c-.2 0-.31-.19-.38-.39a1.42 1.42 0 00-1.33-.95c-1.1 0-1.77 1.06-1.76 2.34 0 .66.21 2.32 1.83 2.31 1.08 0 1.4-.94 1.81-.94a.28.28 0 01.27.27c0 .48-1 1.34-2.35 1.35a2.89 2.89 0 01-3.07-2.83 3.14 3.14 0 013.18-3.06 3.22 3.22 0 011.79.49.51.51 0 01.26.26M309.61 272a4.46 4.46 0 01.15.84.29.29 0 01-.29.33c-.21 0-.32-.16-.42-.35a1.39 1.39 0 00-1.41-.82c-1.1.11-1.66 1.22-1.53 2.49.06.66.42 2.29 2 2.13 1.08-.11 1.31-1.07 1.71-1.11a.28.28 0 01.29.25c.05.47-.84 1.43-2.21 1.56a2.89 2.89 0 01-3.32-2.52 3.15 3.15 0 012.87-3.36 3.33 3.33 0 011.84.33.53.53 0 01.28.23M312.38 276.61c-.17 0-.41.05-.45-.17s.08-.24.19-.33a1 1 0 00.39-.59 14.89 14.89 0 01.91-2 11.69 11.69 0 01-1.81-1.71.6.6 0 00-.34-.24c-.13 0-.27-.07-.31-.23a.24.24 0 01.2-.29l1.63-.33c.16 0 .38-.05.42.17s-.2.28-.17.41.4.53 1.32 1.27c.54-1.11.69-1.39.65-1.58s-.41-.12-.46-.39.15-.25.29-.28l.86-.17c.29-.06.5-.09.55.15s-.08.24-.19.34a.48.48 0 00-.2.25 13.57 13.57 0 01-1 2.06 15 15 0 012.05 1.83.8.8 0 00.46.3.28.28 0 01.26.21c0 .24-.21.3-.39.33l-1.7.34a.28.28 0 01-.27-.22c0-.21.23-.28.21-.38s-.41-.53-1.55-1.46c-.55 1.14-.7 1.47-.64 1.78s.39.18.43.41-.06.21-.17.26l-1.15.23M319.44 275.1c-.16 0-.4.09-.46-.13s0-.24.16-.34a1 1 0 00.33-.62 14.51 14.51 0 01.73-2.05 11.57 11.57 0 01-2-1.53.63.63 0 00-.36-.21c-.14 0-.28-.05-.33-.2a.26.26 0 01.17-.31l1.59-.47c.16 0 .37-.09.44.12s-.17.3-.14.42.45.5 1.44 1.15c.44-1.16.55-1.46.5-1.64s-.42-.08-.5-.35.12-.26.27-.3l.84-.25c.27-.08.48-.14.55.1s-.05.25-.15.35a.5.5 0 00-.17.27 14.36 14.36 0 01-.83 2.15 14.26 14.26 0 012.21 1.63.83.83 0 00.49.25c.13 0 .24.06.27.19s-.18.31-.35.36l-1.66.5a.29.29 0 01-.29-.19c-.06-.21.2-.3.17-.4s-.45-.5-1.68-1.31c-.43 1.19-.55 1.53-.46 1.83s.4.15.46.37 0 .22-.15.28l-1.12.33"/><path d="M266.5 251.69S282.42 262 299.67 262s32-8.63 32-8.63 4.76 4 4.61 5.65c0 0-11.75 11.75-37.19 11.46s-37.79-13.25-37.79-13.25l5.21-5.5" fill="#c3a204" stroke="#000" stroke-width=".89"/><path d="M270.18 257.4c.18-.33.32-.39.64-.22a.81.81 0 01.33 1.18c-.36.68-1.15.58-1.69.39l.72-1.35m-.95 1.8c1.73.85 2.62.29 2.95-.34s.33-1.3-.91-2l-1.61-.86c-.12-.05-.28-.09-.36.07s-.05.17.05.28.06.17-.06.4l-1.47 2.76c-.11.21-.17.29-.33.28s-.18 0-.23.11 0 .27.15.33l1.06.57c.12.06.28.1.36-.06s0-.17-.09-.31-.07-.23 0-.41l.46-.86M273.82 263c-.85-.36-.6-1.58-.28-2.33.43-1 1.18-1.63 1.87-1.33.86.38.63 1.56.3 2.32s-1 1.72-1.89 1.34zm-.22.45a2.4 2.4 0 003.17-1.36 2.34 2.34 0 10-3.17 1.36M279.47 261.51c.12-.36.26-.43.59-.32a.81.81 0 01.52 1.11c-.25.74-1 .76-1.61.66l.5-1.45zm-.66 1.92c1.85.58 2.64-.12 2.87-.79s.11-1.34-1.22-1.8l-1.72-.59c-.12 0-.29-.05-.34.12a.2.2 0 00.09.27c.12.08.09.16 0 .41l-1 3c-.08.21-.12.31-.29.33s-.17 0-.2.14.07.26.2.3l1.14.4c.12 0 .29.05.34-.12s0-.17-.14-.29-.1-.22 0-.42l.32-.92M284.11 262c.13 0 .27.12.23.28s-.11.15-.22.17-.24.12-.31.33c-.15.47-.39 1.24-.58 2-.31 1.21.13 1.58.66 1.71s1.09 0 1.4-1.2c.19-.74.29-1.41.46-2.14 0-.15 0-.18-.13-.3a.22.22 0 01-.1-.24c.06-.2.25-.16.39-.12l.5.13c.14 0 .33.09.28.29a.22.22 0 01-.2.17c-.16 0-.22 0-.27.23-.1.4-.24 1.31-.45 2.11-.4 1.54-1.25 1.76-2.29 1.49s-1.69-.85-1.27-2.46c.18-.7.49-1.59.57-1.91s.09-.33 0-.41-.15-.14-.12-.26a.25.25 0 01.34-.14l1.14.29M287.68 263.67c0-.23.05-.27-.06-.38s-.16-.15-.14-.29.14-.18.32-.15l1.1.2c.19 0 .28.09.25.24s-.09.17-.23.23-.14.1-.19.34l-.54 3c-.06.38 0 .39.35.47h.21a.89.89 0 00.88-.18c.11-.1.28-.27.43-.24a.21.21 0 01.17.25 2.13 2.13 0 01-.23.56c-.12.26-.17.28-.43.23l-2.61-.46c-.18 0-.27-.1-.25-.25s.1-.16.23-.23.15-.1.19-.34l.55-3.08M291.69 264.32c0-.25 0-.34-.09-.4s-.16-.12-.15-.24.19-.2.31-.19l1.12.13c.13 0 .28.08.26.26a.18.18 0 01-.14.16c-.19.09-.22.18-.24.4l-.36 3.11c0 .2 0 .31.08.39s.17.14.16.25-.18.2-.31.19l-1.11-.13c-.13 0-.29-.08-.27-.25s.09-.15.17-.19.19-.15.21-.38l.36-3.11M298.24 268.26a.83.83 0 00.9-.76c0-1.16-2.52-.27-2.54-2.2a1.58 1.58 0 011.74-1.51 2.59 2.59 0 011.3.33.33.33 0 01.16.19 2.32 2.32 0 01.05.59c0 .15-.07.27-.22.27-.31 0-.27-.93-1.24-.93a.69.69 0 00-.73.64c0 1.18 2.5.31 2.51 2.21a1.72 1.72 0 01-1.88 1.68c-1.45 0-1.83-.85-1.83-1.13a.32.32 0 01.29-.36c.15 0 .2 0 .46.46a1.17 1.17 0 001 .52M302.36 263.72c.13 0 .29 0 .3.19s-.05.18-.15.23-.19.2-.19.41c0 .5 0 1.31.09 2.07.09 1.24.62 1.45 1.17 1.41s1-.38.94-1.59c0-.76-.17-1.43-.25-2.18 0-.15-.07-.17-.22-.23s-.16-.08-.17-.2.19-.23.33-.24h.51c.15 0 .35 0 .37.19s-.06.17-.14.22-.19.11-.18.3c0 .41.19 1.32.25 2.14.12 1.6-.62 2.08-1.69 2.15s-1.87-.25-2-1.92c-.05-.72 0-1.66-.06-2s0-.34-.17-.37-.18-.09-.19-.21.14-.24.27-.25l1.18-.09M307.36 264.21c-.05-.38 0-.51.39-.55a.81.81 0 01.95.77c.1.76-.6 1.14-1.15 1.29l-.19-1.51zm.26 2c1.91-.3 2.31-1.28 2.22-2s-.49-1.25-1.89-1.07l-1.8.23c-.13 0-.28.09-.26.26s.06.17.2.2.16.11.19.37l.4 3.1c0 .22 0 .33-.11.42s-.13.1-.12.22.19.2.32.19L308 268c.13 0 .28-.08.26-.26s-.08-.14-.26-.19-.19-.16-.21-.36l-.13-1M311.87 263.6c-.06-.36-.07-.56.41-.65a.76.76 0 011 .63c.15.75-.62 1.14-1.16 1.26l-.24-1.24m.34 1.73c.23-.08.43-.15.56-.21a4.27 4.27 0 011 1.36c0 .18-.22.21-.18.4s.25.17.39.15l1.13-.22c.11 0 .3-.07.27-.25s-.09-.12-.18-.16a.64.64 0 01-.35-.34 4.92 4.92 0 00-1.1-1.41 1.46 1.46 0 00.63-1.42 1.08 1.08 0 00-.71-.84 2 2 0 00-1 0l-2.05.39c-.13 0-.27.1-.24.28s.07.16.21.18.16.1.21.35l.59 3.08c0 .22.05.33-.09.42s-.13.12-.1.23.19.19.32.17l1.1-.21c.13 0 .27-.1.24-.28s-.09-.14-.23-.19-.15-.15-.19-.35l-.22-1.14M317.29 265c.17.66.25.69 1 .49a.89.89 0 00.73-.53c.06-.14.14-.36.29-.4a.23.23 0 01.26.16 2.48 2.48 0 010 .61c0 .28 0 .32-.3.39l-2.79.72c-.12 0-.29 0-.33-.14s0-.17.09-.24.11-.21.06-.43l-.79-3c-.06-.25-.08-.34-.23-.34s-.19-.06-.22-.17.1-.25.22-.29l2.66-.69c.17 0 .28-.06.34 0a1.67 1.67 0 01.25.58c0 .15 0 .29-.13.33s-.22-.05-.32-.13c-.28-.21-.41-.22-1-.06s-.58.29-.54.42l.3 1.15.86-.22c.4-.11.28-.32.47-.37s.27.23.32.38.16.53-.06.59-.21-.19-.6-.09l-.83.28.29 1.09M320.56 260.38c.27-.1.36.09.48.25.56.75 1.06 1.38 1.6 2 .07-.84.06-1.74.06-2.69 0-.23 0-.31.25-.39l.95-.34c.12 0 .29 0 .34.12a.16.16 0 01-.05.21c-.22.19-.2.28-.12.49.22.65.74 1.86 1.11 2.93.06.19.1.29.24.32s.21 0 .25.15-.07.27-.2.31l-1.05.37c-.13 0-.29.05-.35-.12s0-.17.07-.24.1-.22 0-.43c-.33-.95-.68-1.8-1-2.66v2.85c0 .32 0 .39-.27.48s-.32.09-.51-.11c-.64-.69-1.22-1.39-1.86-2.21.28.94.56 1.88.83 2.65.07.22.16.28.4.29a.2.2 0 01.21.15c.07.19-.13.26-.34.33l-.48.17c-.15.05-.35.12-.42-.07a.2.2 0 01.07-.25c.16-.16.16-.24.09-.45-.29-.83-.93-3-1-3.13s-.17-.15-.32-.15-.24 0-.29-.14.1-.27.25-.32l1.08-.38M326.91 260.84a15.71 15.71 0 01-.14-1.85 10.66 10.66 0 011.33 1.29l-1.19.56m1.57-.15a4 4 0 01.67.8c.06.14-.18.22-.09.41s.3.1.42 0l.9-.42c.13-.06.26-.16.18-.33a.19.19 0 00-.19-.12.33.33 0 01-.24-.12 30.19 30.19 0 00-3-3c-.2-.16-.22-.18-.49-.06s-.33.17-.34.43a21.15 21.15 0 00.36 4.22.32.32 0 01-.07.26.26.26 0 000 .24c.09.19.24.13.4.05l.44-.2c.17-.08.34-.17.25-.35s-.35 0-.47-.29a2.75 2.75 0 01-.17-.89l1.49-.71"/><path d="M332.26 264a10.19 10.19 0 004.36-3.87c1.69-2.77 5.16-7.24 7.24-7.83h-.3s7.64-.2 11.11 1.29-.49 1.78-1.19 2-3.77.1-5.55 1.29-8.33 12.1-12.4 12.2c0 0 .59-1 1-1.69s.4-3.87 2.18-5.06a8.64 8.64 0 01-6.44 1.69z" fill="#c3a204" stroke="#000" stroke-width=".89"/><path d="M327.2 252.58s.89-6.39 13.78-8.43c9.77-1.54 16.27 2.09 16.67 2.68a6.2 6.2 0 01.29 3.87c-.39 1.09-.69 3.67-1.88 4.06 0 0 0-.87-1.88-1.39a29.21 29.21 0 00-10.62-1.08c-5.25.51-9.47 1-11.7 5-.89 1.58-.3 2-.3 2a19.54 19.54 0 01-3.07-3.18 8.12 8.12 0 01-1.29-3.47z" fill="#c3a204" stroke="#000" stroke-width=".89"/><path d="M335.93 253.58s1.58 3.56.49 5a1.34 1.34 0 00-2-.89c-1.49.79-2.09 1.89-2.68 1.19s.2-2.38 1.69-3.57a23.47 23.47 0 012.5-1.73z" fill="#c3a204" stroke="#000" stroke-width=".89"/><path d="M328.61 252.39c-.17-.18-.2-.2-.34-.19s-.2 0-.31-.07-.07-.2.05-.32l.7-.7c.12-.12.21-.15.32 0s.09.17.07.31 0 .16.18.33l2.18 2.18c.27.28.33.22.55 0l.14-.14a.75.75 0 00.29-.76c0-.14-.07-.36 0-.46a.21.21 0 01.29 0 2.76 2.76 0 01.34.5c.14.25.13.29 0 .46l-1.67 1.66c-.11.12-.21.15-.32 0s-.08-.17-.07-.31 0-.16-.18-.33l-2.21-2.21"/><path d="M333.71 251.73c.32.6.39.61 1 .27a.74.74 0 00.5-.64c0-.15 0-.37.15-.44a.21.21 0 01.27.1 2.79 2.79 0 01.18.58c.07.27.05.31-.16.43l-2.25 1.22a.22.22 0 01-.33-.07.23.23 0 010-.24c.09-.13 0-.23-.06-.43l-1.5-2.75c-.12-.22-.17-.3-.29-.28a.19.19 0 01-.25-.12.23.23 0 01.12-.32l2.15-1.16c.14-.08.22-.11.29-.07a1.94 1.94 0 01.38.5c.07.13.08.27 0 .34s-.2 0-.31-.06c-.3-.15-.42-.14-.9.13s-.43.39-.37.5l.57 1.05.7-.37c.32-.18.16-.37.31-.45s.3.16.38.31.29.47.1.57-.23-.14-.54 0l-.69.38.54 1"/><path d="M336.12 251.81c-.11 0-.27.05-.32-.13s0-.2.11-.28a.83.83 0 00.21-.49 12.07 12.07 0 01.47-1.66 9.79 9.79 0 01-1.38-1.42.6.6 0 00-.25-.2c-.1 0-.2 0-.23-.19a.19.19 0 01.11-.24l1.09-.28c.11 0 .25 0 .3.13s-.11.24-.08.34.31.45 1 1.06c.28-.93.36-1.17.32-1.33s-.29-.1-.35-.32.08-.21.18-.24l.58-.15c.18 0 .33-.08.38.13a.29.29 0 01-.1.28.34.34 0 00-.12.21 11.43 11.43 0 01-.53 1.73 13 13 0 011.55 1.52c.15.16.19.2.34.24a.25.25 0 01.19.18c.05.2-.12.25-.23.28l-1.14.29a.23.23 0 01-.2-.18c0-.17.13-.23.11-.32s-.32-.44-1.18-1.21c-.28 1-.36 1.24-.29 1.49s.28.15.33.35a.18.18 0 01-.1.22l-.77.19M342.43 249.59c0 .68.07.72.78.73a.77.77 0 00.79-.32c.08-.12.2-.31.34-.31a.21.21 0 01.19.21 2.44 2.44 0 01-.11.6c-.07.27-.11.3-.35.3h-2.56a.22.22 0 01-.25-.22.21.21 0 01.13-.21c.13-.07.14-.18.14-.4v-3.13c0-.26 0-.35-.12-.39a.19.19 0 01-.16-.22c0-.18.14-.22.26-.23h2.44c.16 0 .25 0 .29.08a1.76 1.76 0 01.09.62c0 .15-.05.28-.18.28s-.18-.09-.25-.19c-.2-.28-.3-.32-.85-.32s-.57.14-.57.27v1.2h.79c.37 0 .32-.24.49-.24s.19.28.19.44 0 .55-.18.55-.14-.22-.49-.22h-.79v1.14M346.19 250.48a.77.77 0 00.85-.72c.06-1.15-2.22-.41-2.12-2.33a1.49 1.49 0 011.64-1.41 2.21 2.21 0 011.14.4.41.41 0 01.13.2 3.87 3.87 0 010 .59c0 .16-.08.26-.21.26-.28 0-.19-.94-1-1a.63.63 0 00-.69.59c-.07 1.18 2.2.45 2.09 2.35a1.63 1.63 0 01-1.77 1.57c-1.28-.07-1.57-1-1.56-1.23s.13-.36.28-.35.18.05.39.49a1 1 0 00.87.58M349.7 247.2c0-.27 0-.35-.17-.38-.59-.06-.69.47-.93.45s-.16-.12-.14-.27 0-.14.09-.37c.1-.39.15-.39.38-.36l2.67.3c.23 0 .28 0 .3.44v.38c0 .07-.07.24-.2.22s-.21-.57-.81-.63c-.2 0-.21.06-.24.33l-.35 3.1c0 .2 0 .3.07.39s.15.13.14.24a.23.23 0 01-.28.2l-1-.12c-.12 0-.25-.07-.23-.24s.07-.15.15-.19.17-.16.19-.39l.35-3.1M353.68 251.42c-.8-.18-.74-1.42-.56-2.21.25-1.05.82-1.83 1.47-1.68.81.19.77 1.39.58 2.2s-.67 1.88-1.49 1.69zm-.13.48a2.29 2.29 0 002.62-2 2.12 2.12 0 10-2.62 2"/><path d="M267.19 263.59s-2.68 1.69-7-.69c0 0 1.19 4.06 2.38 4.76a8 8 0 01-5.06-2.38c-2.48-2.38-4.36-6.25-6-7.34s-6.35-1.49-7.93-3.08-1.09-3.27-1.09-4.26-1.19-3.37-.4-4.07 4-2.67 13.39-1.88 13.09 3.87 13.49 4.17-.2 2.87-.5 3.86-.3 4.27-1.09 4.46-5.35-.09-5.75.2a4.6 4.6 0 01.49-3.37s1.29-1 5.26 3.17c0 0-2.38-4-11.11-4.95s-11.5 1.58-11.5 1.58 1.39-2.48 11.5-1.58a33.39 33.39 0 012.68 4.26 14.78 14.78 0 003.37 5 16.69 16.69 0 004.86 2.18z" fill="#c3a204" stroke="#000" stroke-width=".89"/><path d="M248.23 250.62a.82.82 0 00.77-.9c-.19-1.14-2.53.13-2.85-1.77a1.58 1.58 0 011.49-1.76 2.56 2.56 0 011.34.12.28.28 0 01.18.16 2.89 2.89 0 01.14.58c0 .15 0 .27-.17.3-.31.05-.42-.88-1.37-.72a.68.68 0 00-.63.75c.2 1.16 2.52-.09 2.83 1.79a1.73 1.73 0 01-1.59 2c-1.43.24-1.94-.56-2-.84a.33.33 0 01.22-.4c.16 0 .21 0 .54.39a1.15 1.15 0 001.09.35M251.44 248.63a16.89 16.89 0 01.68-1.73 12.16 12.16 0 01.64 1.74h-1.32m1.48.55a3.93 3.93 0 01.26 1c0 .15-.25.12-.25.33s.22.21.35.21h1c.14 0 .3 0 .3-.22a.2.2 0 00-.11-.19.36.36 0 01-.17-.21 29.58 29.58 0 00-1.45-4c-.11-.24-.12-.26-.42-.26s-.37 0-.48.23a20.91 20.91 0 00-1.5 4 .35.35 0 01-.18.2c-.06.06-.12.11-.12.2s.15.22.33.22h.52c.19 0 .39 0 .39-.21s-.31-.18-.31-.47a3.17 3.17 0 01.23-.87h1.65M255.36 246.89c0-.24 0-.28-.08-.38s-.18-.14-.16-.28.13-.19.31-.16l1.11.13c.19 0 .28.08.27.23s-.09.18-.22.24-.14.11-.17.35l-.37 3.06c-.05.39 0 .4.36.46h.22a.89.89 0 00.87-.22c.11-.11.26-.28.42-.27a.22.22 0 01.18.24 2.21 2.21 0 01-.2.58c-.11.26-.16.28-.42.25l-2.63-.32c-.19 0-.28-.08-.26-.23s.09-.17.22-.24.14-.11.16-.35l.39-3.11M260.4 246.8c.14 0 .28.11.24.27s-.1.16-.21.18-.24.13-.29.34c-.14.48-.34 1.26-.51 2-.26 1.21.19 1.57.73 1.68s1.09-.07 1.35-1.26c.16-.74.24-1.42.38-2.15 0-.16 0-.19-.15-.29s-.13-.13-.1-.24.24-.17.38-.14l.5.11c.15 0 .34.08.3.28s-.11.15-.2.18-.21 0-.25.24c-.09.4-.19 1.31-.37 2.12-.34 1.56-1.19 1.81-2.23 1.58s-1.73-.77-1.37-2.41c.15-.7.43-1.6.5-1.93s.07-.33-.05-.4-.15-.14-.13-.26.21-.18.33-.16l1.15.25M264 252.35a.84.84 0 001.13-.38c.42-1.07-2.25-1.19-1.54-3a1.56 1.56 0 012.17-.75 2.67 2.67 0 011.09.79.32.32 0 01.08.23 2.7 2.7 0 01-.18.57c-.06.14-.16.22-.3.16-.3-.11.09-1-.81-1.31a.7.7 0 00-.92.32c-.43 1.1 2.21 1.22 1.51 3a1.73 1.73 0 01-2.37.86c-1.35-.53-1.38-1.48-1.28-1.74a.34.34 0 01.4-.23c.15.06.18.11.27.61a1.13 1.13 0 00.75.86"/><path d="M299.73 260.06A44.07 44.07 0 10255.66 216a44.07 44.07 0 0044.07 44.06z" fill="#c3a204" stroke="#000" stroke-width=".6"/><path d="M299.73 258.29a42.3 42.3 0 10-42.3-42.3 42.3 42.3 0 0042.3 42.3z" fill="none" stroke="#000" stroke-width=".6"/><path d="M277.93 250.39a.36.36 0 01-.15-.53.38.38 0 01.42-.19c.31 0 .41-.09.63-.39.51-.69 1.33-1.82 2.06-2.92 1.2-1.79.82-2.56.16-3s-1.55-.41-2.72 1.34c-.73 1.09-1.3 2.13-2 3.21-.14.23-.09.31 0 .53a.38.38 0 010 .43c-.2.3-.45.14-.62 0l-.62-.41c-.17-.12-.4-.29-.2-.59a.38.38 0 01.38-.18c.25 0 .34 0 .52-.25.39-.6 1.16-2 2-3.17 1.54-2.29 2.87-2.29 4.15-1.43s1.84 2 .23 4.44c-.69 1-1.68 2.33-2 2.8s-.33.49-.21.66a.34.34 0 010 .46.38.38 0 01-.56.1l-1.41-.94M274.16 245.34c-.59.6-.62.73-.5 1a.39.39 0 01-.05.51c-.26.26-.45.09-.61-.07l-.83-.81c-.22-.22-.26-.27-.19-.65a37.37 37.37 0 011.52-5.32l-2.67 2.72c-.3.29-.32.42-.22.75a.36.36 0 01-.11.42c-.24.24-.42.07-.66-.16l-.53-.52c-.2-.2-.4-.41-.16-.65a.36.36 0 01.41-.12c.36.1.43.1.75-.23l4.31-4.37c.49-.5.58-.56.94-.2.14.14.26.25.19.44-.28.85-1.3 4.13-1.91 6.6l3.32-3.37c.3-.3.32-.44.22-.75a.36.36 0 01.11-.42c.24-.24.45 0 .66.16l.52.51c.21.2.41.41.17.66a.35.35 0 01-.41.11c-.33-.09-.45-.08-.76.23l-3.51 3.57M269.1 240.58c-.35.27-.48.37-.41.56a.35.35 0 01-.15.44.37.37 0 01-.56-.1l-1-1.27a.37.37 0 01.05-.57.33.33 0 01.35-.06c.3.1.44 0 .75-.22l4.28-3.3c.28-.21.43-.32.42-.54s0-.33.14-.46a.37.37 0 01.56.1l1 1.27a.37.37 0 01-.06.56.34.34 0 01-.4 0c-.24-.1-.39 0-.7.24l-4.28 3.3M266.21 236.46c-.4.24-.52.32-.35.61.49.83 1.33.41 1.52.74.11.18 0 .33-.23.46a4.66 4.66 0 01-.59.26c-.65.27-.7.2-.89-.13l-2.19-3.75c-.19-.32-.23-.4.32-.83a4.85 4.85 0 01.52-.39c.22-.14.41-.15.51 0 .2.34-.58.86-.09 1.7.16.28.29.21.69 0l4.66-2.72c.3-.18.46-.27.48-.48s0-.33.2-.44a.37.37 0 01.54.17l.82 1.39a.37.37 0 01-.12.55.37.37 0 01-.42 0c-.21-.12-.38-.05-.72.15l-4.66 2.72M267.66 228.76c1.09-.41 1.13-.53.73-1.62a1.16 1.16 0 00-.95-.92c-.24-.06-.63-.12-.7-.33a.34.34 0 01.24-.41 4.07 4.07 0 011-.19c.48-.07.55 0 .68.34l1.47 3.88a.39.39 0 01-.62.45c-.19-.17-.37-.12-.74 0l-5.06 1.91c-.41.16-.56.21-.55.42a.33.33 0 01-.27.37.37.37 0 01-.51-.25l-1.38-3.69c-.09-.23-.12-.38 0-.48a3.45 3.45 0 01.95-.51c.24-.09.49-.09.56.11s-.05.32-.18.49c-.32.47-.34.65 0 1.48s.55.78.76.7l1.94-.73-.46-1.2c-.21-.56-.57-.33-.67-.6s.36-.45.63-.55.87-.38 1-.06-.29.35-.09.89l.45 1.19 1.83-.69M261.62 224.11c-.7.13-.95.17-1.06-.42-.25-1.43 1.22-2.41 3-2.72s3.34.11 3.59 1.5c.11.64-.19.7-1 .84l-4.54.8m-1.46 1.89a.37.37 0 00.45.34.35.35 0 00.34-.32c0-.2.19-.23.62-.3l5.32-.95c.39-.07.57-.09.73.11a.38.38 0 00.38.15.37.37 0 00.31-.48l-.48-2.7a2.85 2.85 0 00-1.54-2.16 5.24 5.24 0 00-3.16-.31 4.45 4.45 0 00-2.94 1.65 3.07 3.07 0 00-.46 2.56l.43 2.41M259.08 212.82c0-.21.1-.42.45-.37a.39.39 0 01.31.25c.1.2.17.25.43.29a26 26 0 005.34-.24 16.62 16.62 0 00-4.61-1.45c-.7-.09-.79 0-1 .11a.38.38 0 01-.36.15c-.33 0-.34-.27-.31-.47l.2-1.52c0-.21.12-.38.45-.33s.19.45.73.52a22.74 22.74 0 005.42-.45 20.81 20.81 0 00-4.91-1.64c-.77-.11-.61.48-1.12.41-.35 0-.32-.32-.28-.65l.1-.74c0-.18.1-.4.41-.36a.5.5 0 01.31.19.81.81 0 00.57.37 26.33 26.33 0 016.61 2.42c.22.17.22.37.19.64-.06.45-.14.53-.66.66a26.1 26.1 0 01-3.88.57 18.1 18.1 0 013.79 1.58.53.53 0 01.28.65c-.08.6-.31.62-1.12.77a29.92 29.92 0 01-6.19.36.75.75 0 00-.61.15.52.52 0 01-.41.13c-.37 0-.35-.29-.3-.64l.19-1.37M267 205c1.1.39 1.21.32 1.6-.76a1.16 1.16 0 00-.13-1.32c-.14-.2-.4-.49-.32-.7a.33.33 0 01.45-.16 4.29 4.29 0 01.91.52c.41.26.43.34.3.7l-1.39 3.9a.37.37 0 01-.5.27.38.38 0 01-.26-.32c0-.25-.2-.33-.58-.46l-5.08-1.79c-.42-.15-.56-.2-.69 0a.34.34 0 01-.45.11.36.36 0 01-.22-.52l1.36-3.77c.09-.24.15-.37.28-.39a3.4 3.4 0 011.06.22c.25.09.44.25.36.45s-.25.21-.45.26c-.55.14-.68.27-1 1.11s-.09 1 .13 1l1.95.7.42-1.21c.21-.57-.22-.62-.12-.89s.57-.12.83 0 .91.28.8.6-.45.07-.64.61l-.43 1.21 1.81.63M272.18 197.54a1.28 1.28 0 00-.35-1.82c-1.65-1.11-2.45 2.73-5.2.86a2.5 2.5 0 01-.73-3.53 3.4 3.4 0 011.53-1.23.55.55 0 01.4 0 5.64 5.64 0 01.88.52c.22.15.33.34.21.52-.26.38-1.55-.58-2.33.57a1.05 1.05 0 00.31 1.49c1.69 1.15 2.49-2.66 5.2-.82a2.74 2.74 0 01.9 3.9 2.36 2.36 0 01-3.12 1.07c-.26-.18-.42-.49-.28-.7s.22-.2 1.05-.1a1.61 1.61 0 001.57-.7M270.83 189.4c-.33-.32-.45-.41-.68-.18-.66.7 0 1.39-.3 1.68-.14.14-.31.08-.5-.1a5.65 5.65 0 01-.41-.5c-.45-.55-.39-.61-.12-.89l3-3.13c.27-.28.32-.34.89.08a4 4 0 01.52.39c.19.18.26.35.12.5s-1-.33-1.66.37c-.23.24-.13.35.21.67l3.89 3.73c.25.24.38.37.6.32s.32-.06.47.08a.37.37 0 010 .57l-1.12 1.16a.39.39 0 01-.67-.36c.07-.25-.05-.38-.34-.66l-3.89-3.73M277.4 187.67c-.43-1.1-.72-2-1-3a23.54 23.54 0 012.53 1.86l-1.53 1.12m2.27-.51a8.53 8.53 0 011.33 1.18c.16.21-.16.39.05.68s.47.1.63 0l1.16-.85a.36.36 0 00.12-.56.36.36 0 00-.33-.17.6.6 0 01-.41-.14 58.34 58.34 0 00-5.75-4.28c-.37-.23-.4-.26-.75 0s-.42.34-.32.75a41.58 41.58 0 002.34 6.8.61.61 0 010 .44.44.44 0 00.05.38c.22.3.41.17.62 0l.59-.37c.22-.16.44-.33.23-.62s-.53 0-.83-.38a5.75 5.75 0 01-.63-1.42l1.92-1.4"/><path d="M280.92 181.9c-.36-.75-.47-.82-.78-.81s-.35 0-.46-.22.07-.46.27-.56l1.05-.5c.28-.13.34-.15.67 0a39 39 0 014.53 3.27l-1.63-3.44c-.18-.38-.3-.44-.64-.46a.35.35 0 01-.35-.25c-.14-.3.07-.42.37-.56l.67-.32c.26-.12.52-.24.67.07a.37.37 0 010 .43c-.22.3-.24.37 0 .78l2.64 5.55c.3.63.32.73-.14 1-.18.08-.32.15-.48 0-.7-.55-3.43-2.63-5.55-4l2 4.28c.18.37.31.44.63.46a.36.36 0 01.36.24c.14.31-.1.44-.37.57l-.67.32c-.26.12-.52.23-.67-.07a.35.35 0 010-.43c.2-.27.23-.39 0-.78l-2.15-4.53M289 178.55c-.17-.69-.24-1 .35-1.09 1.41-.36 2.49 1 2.92 2.77s.13 3.34-1.25 3.69c-.62.15-.71-.14-.9-.91l-1.12-4.46m-2-1.34a.37.37 0 00-.31.48.33.33 0 00.34.3c.2 0 .24.18.35.6l1.32 5.25c.09.38.12.56-.06.73a.37.37 0 00-.12.4.37.37 0 00.5.26l2.65-.66a2.84 2.84 0 002-1.7 5.24 5.24 0 00.09-3.17 4.49 4.49 0 00-1.86-2.82 3 3 0 00-2.58-.27l-2.37.6M313.25 179.44c.26-.66.36-.9.92-.67 1.35.55 1.39 2.32.71 4s-1.88 2.73-3.19 2.23c-.59-.25-.48-.53-.19-1.27l1.75-4.26m-.79-2.24a.38.38 0 00-.53.2.33.33 0 00.09.45c.15.14.09.29-.08.7l-2 5c-.15.37-.23.52-.48.56s-.26 0-.33.24a.36.36 0 00.24.51l2.53 1a2.84 2.84 0 002.66-.15 5.23 5.23 0 001.94-2.5 4.47 4.47 0 00.18-3.37 3 3 0 00-1.92-1.75l-2.26-.93M319 181.74c.22-.38.3-.52.17-.67a.34.34 0 010-.46.36.36 0 01.55-.12l1.39.82a.36.36 0 01.16.54.31.31 0 01-.3.18c-.32 0-.41.15-.62.49l-2.74 4.66c-.18.3-.27.46-.18.65s.13.31 0 .48a.36.36 0 01-.55.12l-1.39-.82a.36.36 0 01-.16-.54.37.37 0 01.36-.19c.25 0 .36-.14.56-.49l2.74-4.65M324 183.24c.15.12.4.33.18.62s-.58-.06-.89.33a21.36 21.36 0 00-2.29 5.41 24.31 24.31 0 004.51-3.4c.39-.49-.18-.74.14-1.15s.45-.09.6 0l.76.6c.14.11.34.32.13.58a.56.56 0 01-.38.21 1.13 1.13 0 00-.68.35 43 43 0 01-5.42 3.81c-.5.32-.66.28-1 0s-.41-.44-.25-1.07a23.84 23.84 0 012.54-6.33c.3-.54 0-.62.19-.91s.51-.09.67 0l1.09.87M327.42 188.13c.32-.31.43-.42.34-.61a.34.34 0 01.1-.44.36.36 0 01.57 0l1.12 1.15a.38.38 0 010 .57.34.34 0 01-.35.1c-.31-.06-.43 0-.72.31l-3.87 3.79c-.26.25-.39.37-.35.59s.05.33-.1.47a.36.36 0 01-.56 0l-1.12-1.15a.37.37 0 010-.57.36.36 0 01.4-.09c.24.07.38 0 .66-.32l3.89-3.75M330.6 192.22c.57-.41.78-.57 1.14-.08.85 1.19-.05 2.7-1.5 3.75s-3.06 1.34-3.89.19c-.37-.52-.13-.71.51-1.17l3.74-2.69m.52-2.32a.37.37 0 00-.56-.11.34.34 0 00-.16.43c.06.2-.07.29-.43.55l-4.39 3.15c-.32.24-.48.33-.71.22a.35.35 0 00-.4 0 .36.36 0 00-.07.56l1.6 2.3a2.83 2.83 0 002.33 1.28 5.13 5.13 0 003-1.09 4.45 4.45 0 001.94-2.76 3 3 0 00-.69-2.5l-1.43-2M330.7 200.76c-1.05.5-1.08.62-.6 1.67a1.19 1.19 0 001 .85c.24 0 .63.07.72.27a.35.35 0 01-.21.44 4.41 4.41 0 01-1 .26c-.47.11-.54.06-.7-.28l-1.77-3.75a.39.39 0 01.58-.5c.21.14.38.09.73-.09l4.89-2.29c.4-.19.55-.26.52-.47a.35.35 0 01.24-.39.38.38 0 01.53.21l1.68 3.59c.11.23.15.37.08.48a4 4 0 01-.91.59c-.24.1-.48.13-.57-.08s0-.32.14-.49c.29-.5.29-.68-.09-1.49s-.6-.73-.81-.63l-1.87.88.55 1.16c.25.54.59.28.71.54s-.32.48-.58.6-.84.45-1 .14.26-.37 0-.89l-.55-1.16-1.77.83M337.09 204.92c.69-.18.94-.24 1.09.34.37 1.41-1 2.5-2.75 3s-3.34.15-3.69-1.23c-.16-.62.13-.7.9-.9l4.45-1.16zm1.32-2a.37.37 0 00-.48-.31.34.34 0 00-.3.35c0 .2-.17.24-.6.35l-5.23 1.36c-.38.1-.56.13-.74 0a.35.35 0 00-.39-.12.37.37 0 00-.27.5l.69 2.65a2.87 2.87 0 001.71 2 5.25 5.25 0 003.17.06 4.48 4.48 0 002.8-1.88 3 3 0 00.26-2.58l-.62-2.37M340.51 216c0 .2-.07.42-.42.4a.41.41 0 01-.34-.23c-.11-.19-.18-.23-.45-.25a26.06 26.06 0 00-5.31.65 16.86 16.86 0 004.75 1.09c.7 0 .79 0 1-.19a.42.42 0 01.35-.18c.34 0 .36.25.35.44l-.09 1.54c0 .21-.09.38-.42.36s-.22-.43-.76-.46a22.6 22.6 0 00-5.38.87 21.13 21.13 0 005 1.25c.78.05.57-.52 1.08-.49.35 0 .35.29.33.63l-.05.74c0 .18-.06.41-.37.4a.54.54 0 01-.33-.18.81.81 0 00-.59-.32 25.61 25.61 0 01-6.78-1.91c-.24-.14-.25-.34-.23-.61 0-.46.09-.54.6-.71a25.24 25.24 0 013.82-.87 18 18 0 01-3.9-1.29c-.31-.15-.34-.31-.33-.62 0-.6.27-.64 1.06-.85a29.75 29.75 0 016.14-.84.81.81 0 00.6-.2.48.48 0 01.39-.15c.38 0 .37.25.35.61l-.07 1.37M333.21 224.38c-1.13-.3-1.23-.22-1.54.89a1.21 1.21 0 00.23 1.31c.17.18.44.46.38.67a.34.34 0 01-.43.2 4.37 4.37 0 01-1-.45c-.43-.23-.46-.31-.36-.68l1.08-4a.37.37 0 01.48-.3.35.35 0 01.28.3c.07.24.24.3.62.41l5.22 1.4c.42.12.58.15.69 0a.34.34 0 01.44-.15.37.37 0 01.26.5l-1 3.83c-.06.24-.12.37-.25.41a3.39 3.39 0 01-1.07-.14c-.25-.07-.45-.21-.39-.42s.23-.23.43-.29c.54-.19.66-.33.89-1.19s0-.95-.21-1l-2-.53-.33 1.23c-.16.58.27.61.19.88s-.55.16-.82.08-.93-.2-.84-.53.43-.11.59-.66l.33-1.24-1.89-.51M329.53 232.11c-.32-.18-.45-.25-.62-.17a.57.57 0 01-.52.05.37.37 0 01-.13-.55L329 230a.37.37 0 01.54-.17.38.38 0 01.21.36c0 .25.15.35.49.55l4.72 2.64c.38.21.52.28.67.15a.34.34 0 01.46 0 .36.36 0 01.13.55l-1.79 3.21c-.14.25-.23.39-.35.44s-.78-.19-1.06-.32-.57-.26-.44-.5.27-.16.45-.17a1.37 1.37 0 001.3-.92c.4-.72.33-.81-.33-1.18l-1.66-.93-.61 1.08c-.29.52.12.64 0 .9s-.47.07-.83-.13-.82-.47-.68-.72.45 0 .73-.5l.61-1.08-2.05-1.15M328.63 237.56a30.19 30.19 0 011.73 2.63 22 22 0 01-2.92-1.15l1.19-1.48m-2.06 1.08a9.54 9.54 0 01-1.6-.79c-.2-.17.07-.42-.21-.65s-.49 0-.61.18l-.9 1.11a.36.36 0 000 .58.34.34 0 00.35.08.59.59 0 01.44 0 56.65 56.65 0 006.66 2.65c.41.13.46.15.73-.18s.31-.43.11-.81a41.21 41.21 0 00-4-6 .59.59 0 01-.12-.43.45.45 0 00-.15-.35c-.29-.23-.44-.06-.6.14l-.44.54c-.17.21-.34.43-.07.65s.52-.15.91.16a5.35 5.35 0 011 1.21l-1.49 1.84"/><path d="M327.18 244.14c.28.31.33.36.56.35s.34 0 .51.17.12.35-.09.53l-1.2 1.07c-.21.17-.37.21-.54 0a.51.51 0 01-.1-.53c0-.23 0-.28-.29-.59l-3.53-4c-.45-.51-.53-.43-.92-.13l-.23.21a1.18 1.18 0 00-.53 1.22c0 .24.12.62-.05.77a.36.36 0 01-.48-.07 4.88 4.88 0 01-.54-.9c-.23-.43-.21-.51.08-.76l2.85-2.52c.2-.18.36-.22.53 0a.51.51 0 01.1.53c0 .23 0 .28.29.59l3.58 4M322.68 247.92c.22.35.26.41.49.44s.35 0 .48.24.07.36-.16.51l-1.35.87c-.23.15-.39.16-.54 0a.52.52 0 010-.54c.07-.22 0-.28-.2-.63l-2.9-4.46c-.36-.56-.46-.5-.88-.26l-.27.17a1.19 1.19 0 00-.7 1.13c0 .24 0 .63-.17.75a.36.36 0 01-.46-.15 4.75 4.75 0 01-.4-1c-.17-.46-.13-.53.19-.74l3.19-2.07c.23-.15.39-.16.53.05s.1.32 0 .54 0 .28.2.63l2.94 4.53"/><path d="M269 215.24a30.79 30.79 0 0130-30l.07.44v29.6H269" fill="#004b8d" stroke="#000" stroke-width=".89"/><path d="M299 246.77a30.79 30.79 0 01-30-30h30v29.6l-.07.44" fill="#ce1126" stroke="#000" stroke-width=".89"/><path d="M281.72 227.59a9.26 9.26 0 002.48 1 8.89 8.89 0 002.13-.3 7.34 7.34 0 00.5 1.84c.25.29.3 2 .64 2.23a4.27 4.27 0 002.33.25.41.41 0 00-.09-.75.79.79 0 01-.55-.49 2.86 2.86 0 010-1.44 5 5 0 011.09-1.49c.6-.59.79-1.49 1.69-1.69a3.48 3.48 0 012-.14c.7.23 1.59 0 2.13.19a.68.68 0 00.7-1.09c-.8-.89-.75-1.48-1.39-2.28a1.34 1.34 0 00-1.34-.59s.15-.8-.3-.8a1.35 1.35 0 00-.84.5l-1.14.2s-.45-1.14-3.62-1.14c-1.55 0-3.72.84-5.11 1s-2.43-.89-4.36 1c-1.19 1.16-1.63 2.47-1.54 4.62a2.65 2.65 0 01-.64 2.08c-.3.34 0 .7.34 1 .85.79 1.94.74 2.18.44s-.14-.49-.39-.69-.3-.25-.2-.55 1-.1 1.83-1a16.28 16.28 0 001.44-1.88" fill="#fff"/><path d="M281.72 227.59a9.26 9.26 0 002.48 1 8.89 8.89 0 002.13-.3 7.34 7.34 0 00.5 1.84c.25.29.3 2 .64 2.23a4.27 4.27 0 002.33.25.41.41 0 00-.09-.75.79.79 0 01-.55-.49 2.86 2.86 0 010-1.44 5 5 0 011.09-1.49c.6-.59.79-1.49 1.69-1.69a3.48 3.48 0 012-.14c.7.23 1.59 0 2.13.19a.68.68 0 00.7-1.09c-.8-.89-.75-1.48-1.39-2.28a1.34 1.34 0 00-1.34-.59s.15-.8-.3-.8a1.35 1.35 0 00-.84.5l-1.14.2s-.45-1.14-3.62-1.14c-1.55 0-3.72.84-5.11 1s-2.43-.89-4.36 1c-1.19 1.16-1.63 2.47-1.54 4.62a2.65 2.65 0 01-.64 2.08c-.3.34 0 .7.34 1 .85.79 1.94.74 2.18.44s-.14-.49-.39-.69-.3-.25-.2-.55 1-.1 1.83-1a16.28 16.28 0 001.44-1.88z" fill="none"/><path d="M291.34 227.09a23 23 0 011.49 1.94c.2.39.89 2.08.1 2-1-.06-1.09-1.29-1.19-1.49a3.25 3.25 0 00-1.88-.64 4.69 4.69 0 01.69-.9 6.34 6.34 0 00.79-.94" fill="#fff"/><path d="M291.34 227.09a23 23 0 011.49 1.94c.2.39.89 2.08.1 2-1-.06-1.09-1.29-1.19-1.49a3.25 3.25 0 00-1.88-.64 4.69 4.69 0 01.69-.9 6.34 6.34 0 00.79-.94z" fill="none"/><path d="M295.38 222.7s.07-.74-.51-.44-.38.59-.38.59l.77.37.15-.39v-.13" fill="#fff"/><path d="M295.38 222.7s.07-.74-.51-.44-.38.59-.38.59l.77.37.15-.39v-.13" fill="none"/><path d="M280.78 228.78a4.42 4.42 0 01.79 1.79c.06.77.75.69 1.34.69s1.34 0 1.34-.45-.4-.59-.74-.64-.34-.23-.39-.42.69-.62.78-1.27a7.89 7.89 0 01-2.18-.89s-.3.4-.59.74a3.14 3.14 0 00-.35.45" fill="#fff"/><path d="M280.78 228.78a4.42 4.42 0 01.79 1.79c.06.77.75.69 1.34.69s1.34 0 1.34-.45-.4-.59-.74-.64-.34-.23-.39-.42.69-.62.78-1.27a7.89 7.89 0 01-2.18-.89s-.3.4-.59.74a3.14 3.14 0 00-.35.45z" fill="none"/><path d="M300.53 246.68a30.8 30.8 0 000-61.58l.05.34V246.68" fill="#fff" stroke="#000" stroke-width=".89"/><path d="M292.09 197.78a6.94 6.94 0 11-10.89.22l.15-.15a4.34 4.34 0 00-.79 2.46c0 2.78 2.76 5 6.17 5s6.17-2.25 6.17-5a4.34 4.34 0 00-.83-2.52" fill="#fff"/><path d="M292.09 197.78a6.94 6.94 0 11-10.89.22l.15-.15a4.34 4.34 0 00-.79 2.46c0 2.78 2.76 5 6.17 5s6.17-2.25 6.17-5a4.34 4.34 0 00-.83-2.52" fill="none"/><path d="M302 246.63a8.54 8.54 0 014.47.8c2.18 1.09 6.25 4.26 10.21 4.76s7.14.54 7.91.14l-.24.22c-3.87 2.38-9.11 5.6-20.37 7.31l-4.46.21 2.68-12a1.94 1.94 0 00-.2-1.39z" fill="#c3a204" stroke="#000" stroke-width=".89"/><path d="M286.48 243.46a2 2 0 012.63-1.09c2 .59 11.26 2.92 11.26 2.92s2.43.25 1.54 3.92l-2.18 10.43s-.8 2.12-2.49 1.72c0 0-3.37-.54-6.64-1.34s-6.4-1.78-6.4-1.78a2.51 2.51 0 01-1.24-2.93l3.52-11.85" fill="#c3a204" stroke="#000" stroke-width=".89"/><path d="M288 245.1s0-1 2.13-.45l8.73 2.28s1.19.39.74 2l-2.23 9.43a1 1 0 01-1.34.79s-2-.3-4.81-1-5.45-1.48-5.45-1.48a1.47 1.47 0 01-.6-1.49c.2-1 0-.3 0-.3l2.83-9.78" fill="none" stroke="#000" stroke-width=".89"/><path d="M292.85 254.44c.9.23 1.77-.45 2.06-1.61s-.11-2.38-1-2.6a2.24 2.24 0 00-1 4.21"/><path d="M293.08 251.29l-5.85-1.78a1.17 1.17 0 00-1.69.79c-.39 1.39 1.14 1.39 1.14 1.39l6 1.84s1 .41 1.39-.85-.99-1.39-.99-1.39z" fill="#c3a204" stroke="#000" stroke-width=".89"/><path d="M252.32 157.07s-.9-2.28-2.58-2-3.38 1.09-4 2.67l-.3.7a21.89 21.89 0 01-2 1.39c-1 .59-2.28.49-2.88 1.09a47 47 0 00-3.67 3.76c-2.08 2.48-5.15 4.07-6.15 5.76a28.15 28.15 0 00-2.77 8.73c-.1 2.18.39 6.54.2 8.63a38.38 38.38 0 01-2.48 11 34.63 34.63 0 00-1.89 8c0 1.78-.4 8.53.79 11.31s2.88 4.85 3.48 6.14a38.66 38.66 0 011.78 6.85c.3 1.88 2.38 4.06 3.08 5.05s1.78 3.28 2.38 4.07a4.85 4.85 0 011.09 1.89c.09.59-.4 3.67 2.08 4.06a24.6 24.6 0 013.37.7 6.38 6.38 0 011.79-1.39c.89-.4 2.56-1.11 11.1-.89a22.46 22.46 0 016 .79s.5-1.49-.19-2.09-2.38-2.67-3.57-2.67h-.3a15.71 15.71 0 001.39-7 28.93 28.93 0 00-.42-4.2s-1.93-4.87-2.09-13.45c-.07-4 2.28-14 2.28-14a7.34 7.34 0 002.51 1.83 4.14 4.14 0 003-1.09 3.74 3.74 0 00.9-3.77 19.08 19.08 0 00-1.9-6.4s2.48-5 9.72-10.91 12.93-7.19 12.93-7.19 1.33-1.7.44-2.49a3.68 3.68 0 00-3.17-1.2 7.82 7.82 0 00-2.28.8c-.4.1-2.18-.2-2.88.1s-3.27.79-4 1.19-2 1.68-2.87 2.08-5.75 1.29-6.35 2.28c0 0-4.24-.84-5.23-2.13a4.5 4.5 0 001.49-2.08 4.66 4.66 0 002.15-.55 8.3 8.3 0 002.19-3.47c.29-1.29-.5-1.49-.5-1.49l-2.18-2.38a5.12 5.12 0 00-1.29-3.57 19.46 19.46 0 00-2.88-2.18s0-2.08-1.29-2.68a2.45 2.45 0 00-3.17.7l-.89-.3"/><path d="M256.08 188.61a29 29 0 01-4.16-1.19c-1.79-.6-3.27-2.68-5.36-2.38-.89 0-1 1.59-3.27.6-.55-.24-.3-.6-.3-.9a2.22 2.22 0 003-.89c.29-.89-1.19-1.79-1.49-2.68 0-.3.89-.3 1.19-.3a18 18 0 011.49 2.38 13.65 13.65 0 005.35 3 25.06 25.06 0 006.25 1.79c1.79 0 2.59 3.68 3.47 3.37 1.69-.6 4-6 7.24-8.43 2.68-2.09 5.36-3.57 7.74-6 0-.3 0-1.19.59-1.49.3.59.9.3 1.19.3.6-.3 1.49-.3 1.79-.6 1.19-1.19 3.57-.29 3.27-1.78 0-.6-.27-2-1.19-1.79a48.36 48.36 0 01-6.25 1.19c-2.09.22-3.86 1.49-5.65 2.38-3.27 1.49-6.25 2.68-8.92 5.06-.3-.89.89-2.08 0-2.08-2.09-.6-6-1.69-4.77-3.28 2.19-2.87 2.68-3.57 1.49-3.86a7.07 7.07 0 00-1.78 0c0-.3-.3-.9.29-.9 1.79-.3 3.87.9 5.36-.3 0-.29-1.19 0-1.19-.59 0-.3.59-.3.89-.3 0 .3 0 .6.3.6.3-.3.89-.6.59-1.19-.89-1.49-3.27-1.79-3.86-3.57h.62c.3 0 .3-.3.3-.6-1.19-3.57-5.06-4.75-8.33-6-.3 0-.9.9-1.19.6-.3-.6.29-1.79-.3-2.38-.6.59 0 1.78-.3 2.38-.3 0-1.19 0-1.49.59h-.89c-.3 0-.59-.29-.3-.59.6-.3 1.19-.6.9-1.49 0-.3-.3-.3-.6-.3-1.49.89-1.19 2.09-.59 3.27-1.79-.88-3 .9-4.76 1.49-.3 0-1.23 0-1.39.3-2.48 3.67-6.25 6.35-8.73 8.63-1.52 1.4-2.18 5.75-3 8.63 0 0 .3 3.27.3 5.06 2.68 5.35 6 10.11 11.31 13.09 3 .49 4.26-.5 13.39-.2.59 0 1.49-2.48 1.78-1.89.6 3.28 2.38 5.36 4.76 6.26.3.29 1.79.29 1.49-.9.3 0 .89.3 1.19-.3a4.27 4.27 0 00-.89-3.27c-1.19-2.38-2.08-4.76-3.27-7.44-.6-1.19-2.09-.89-3.28-1.19" fill="#9a4a23"/><path d="M253.41 198.43c-4.51 0-8.93 1.49-13.39 0-4.76-1.79-7.44-6.94-10.12-11.41-.79 8.63-4.36 14.28-4.46 19.54-.06 3-.3 6.75.29 9.42a5.73 5.73 0 001.19 3.57c2.68 3.87 4.47 7.14 4.76 12.2.11 1.81 2.09 3 3 4.47s1.19 3.57 2.68 4.76c.29 0 .89.59 1.48.29a2.54 2.54 0 012.09-.59c-.9 1.19-2.68.59-3.57 1.78a2.17 2.17 0 001.19 2.38 9.41 9.41 0 008 0c2.08-1.19-.89-2.08-.89-3.86 0 0 .59 0 .59.29s0 .6-.3.6c1.49.59 3 1.78 3.87 2.08 3 .3 9.72.8 9.23-.59-.9-1.19-2.38-1.49-3.57-2.09-1.19-.29-2.09.9-3.28.6v-.6c1.49-.29 3.28-.59 3.87-2.08.3-1.49.89-2.68.6-4.16 0-3.57-.3-7.44-2.38-10.72-1.79 1.49-3.87 2.68-5.06 4.77-.6 1.48-.3 3-.6 4.46a5.19 5.19 0 01-1.49 2.08c-.29.59.3 1.79 0 2.38-.59.6 0 2.08-1.48 2.38 0-1.19.59-2.08.89-3.27s-.89-2.38-.6-3.57c.3 0 .9.59 1.19.3 2.09-3.87-.59-7.15-3-10.12 2.08-.3 2.68 3.57 4.46 3.27 2.68-.3 4.47-3 5.66-5.35a22.42 22.42 0 00.5-6.25c.6-5.36.6-8.07 1.89-13.33.29-1.19-2.39-3.63-3.29-3.63" fill="#9a4a23"/><path d="M254.6 173.73h.59v.9c-.59.29-1.49.89-1.78 0 0-.3.89-.3 1.19-.9M251.62 173.44c-.59.59-1.19 0-1.79.29 0-.29 0-.59.3-.59.6-.3.9.59 1.49.3M248.05 171.05v.6h-.89c-.3-.6-.6-1.49-.3-1.79.89-.29.3 1.19 1.19 1.19M246.56 167.78v.89c-.3.3-.59 0-.59-.29-.3-1.79-.9-3.57 0-5.36.29-.3.59 0 .59.3a22.16 22.16 0 000 4.46M254.3 163c1.22 0 2.38.3 2.68 1.19 0 .6-.6.2-1.69 0-.89-.59-1.88.3-1.88-.89 0-.3.59-.3.89-.3"/><path d="M254.6 157.66c-1 .48.29.6.29.9 1.49.59 1.49.2 1-.7-.21-.36-.7-.49-1.29-.2" fill="#c3a204"/><path d="M254.6 157.66c-1 .48.29.6.29.9 1.49.59 1.49.2 1-.7-.21-.36-.7-.49-1.29-.2z" fill="none" stroke="#000" stroke-width=".89"/><path d="M255.74 165.73c.42 0 .77-.5.77-1.12s-.35-1.12-.77-1.12-.78.5-.78 1.12.35 1.12.78 1.12M341 158.36a8 8 0 012.68-.4s.7-1.69 3.28-.89 3.67 1.88 3.56 4.26a20.11 20.11 0 014.07 2.48c2 1.59 2.18 3.18 3.47 4.47s5.85 5.35 7.24 8 3.27 7.34 3.37 11.51a26.82 26.82 0 001.1 7.83c.49 1.69 3.46 6 4.25 11.51a31.08 31.08 0 01-1 14c-1.19 3.47-3.27 3.77-4.47 6.15l-.49 1.19a9.62 9.62 0 01-.7 2.48c-.39.59-2.47 4.17-3.37 4.86 0 0-1.09 4.46-2.28 6.05a8.69 8.69 0 01-2.08 2.08c-.3.3-.2 2.08-1.09 2.48a2.4 2.4 0 01-1.69.1 17.58 17.58 0 00-8.92-2.68c-5.46-.2-6.95.3-6.95.3a1.38 1.38 0 01.2-1.49c.6-.89 1.79-2.58 3.17-2.58 0 0-2.18-6-2.08-8.92s.15-4.18.15-4.18a79.19 79.19 0 001.14-11.89s-.89.2-1.09.69a2.15 2.15 0 01-2 1.29 3.35 3.35 0 01-2.78-2.78c-.1-1.58-.89-3.37.49-5.75s2.78-2.88 3.77-5.16c0 0-1.75-6.09-7.9-15S314 174.28 314 174.28a1.17 1.17 0 01-.09-1.64c.69-1 1.19-1.89 2.18-2.08s1.19-.2 1.78.1 1.49 1.68 2.18 2 2.09.59 2.88 1 .89.79 1.29 1a30.23 30.23 0 013.37.69 26.33 26.33 0 015.56 3.47c.89.89 3.07 1.59 3.17 2.38 0 0 1.69-.4 2.68-.7a5.9 5.9 0 01-.5-3.47 11.48 11.48 0 01-2.87-1.19 27 27 0 01-3.87-.1c-.7-.2-3.67-2.18-4.27-3.37s.6-2 1-2.48 2.29-2.18 2.29-2.18.19-1.39.39-2.68 3.87-4.26 3.87-4.26 0-2.48.6-2.88a3.91 3.91 0 012.57-.69c.8.2 2.19.2 2.38 1.09"/><path d="M337.91 181.77c-1.23 0-1.49 1.18-2.68 1.18a2.72 2.72 0 00-.89-2.08c-3.57-2.08-6.55-4.76-10.71-5.65a18.06 18.06 0 01-3.57-1.49c-.89-.59-1.79-1.78-2.68-2.38-1.19-.59-2.08.6-2.68 1.49 0 .3-.38 1-.08 1a1.07 1.07 0 01.89-.3 7.29 7.29 0 004.76 2.38c.29 0 1 .81 1.57 1.11s.63-.73 1.49-.3c0 .3-.39 1-.39 1.28 6.85 4.75 12.2 10.11 16.07 17 1.49-1.79.69-4.26 1-6a8.31 8.31 0 00-.29-5.36 2.68 2.68 0 00-.9-2.08c-.29 0-.59.3-.89.3" fill="#9a4a23"/><path d="M337.91 181.77c-1.23 0-1.49 1.18-2.68 1.18a2.72 2.72 0 00-.89-2.08c-3.57-2.08-6.55-4.76-10.71-5.65a18.06 18.06 0 01-3.57-1.49c-.89-.59-1.79-1.78-2.68-2.38-1.19-.59-2.08.6-2.68 1.49 0 .3-.38 1-.08 1a1.07 1.07 0 01.89-.3 7.29 7.29 0 004.76 2.38c.29 0 1 .81 1.57 1.11s.63-.73 1.49-.3c0 .3-.39 1-.39 1.28 6.85 4.75 12.2 10.11 16.07 17 1.49-1.79.69-4.26 1-6a8.31 8.31 0 00-.29-5.36 2.68 2.68 0 00-.9-2.08c-.29 0-.59.3-.89.3z" fill="none" stroke="#000" stroke-width=".07"/><path d="M340.29 159.45h-1.79a.9.9 0 01.3-.59c0-.3 0-.6-.3-.6a3.93 3.93 0 00-2.08.3c-.82.46-.49 2.18.1 2.18.6.29 1.69-.7 2.58-.7-1.49 1.2-2.38 2.68-4.17 3.28 0-.3 0-.9-.29-.9a5.86 5.86 0 00-2.68 5.06c0 1.19-2.38 2.38-3.27 3.87a.87.87 0 00.59 1.19c.6 0 1.06-1.4 1.49-.89s-.3.89-.6 1.19c0 .3 0 .6.3.6 1.49 0 2.68-.6 4.17-.6.69 1.29-2 .6-2.58 1.49 5-.1 4.76 1.39 7.44 1.09 1.78 0 4.06-1.09 5.85-2.28 0 3.76-6.25 1.1-5.36 4.67.3 1.19 2.08 1.19 3.28.89.29-.29.89-.21 1.48-.21-.89 1.79-4.16.6-3.87 1.49 0 4.17.22 8.63-.08 13.09 0 1.19-1.19 2.38-.6 3.57.6 1.79.9 4.17 2.38 5.06 2.38-2.68 6.13-5.06 7-8.33.89-2.38-.09-4.76.51-7.14.59-3.28 3.87-3.87 5.95-5.66a3 3 0 011.19-1.48c.3 0 .3.59.3.89-2.38 2.08-5.06 3.57-6.25 6.55a10.75 10.75 0 000 6.84c0 .6 1.19-.3 2.08 0a1.09 1.09 0 01.3.89c-.6.89-1.79 0-2.38.3-3.27 2.38-5.36 5.65-8 8.63v.89c-2.39 3-6 5.66-5.06 9.82.29 1.49 1.78 1.19 3 1.19.3 0 .3-.59.3-.89 1.49-.6 2.08-2.08 3.57-2.38 2.08-.3 4.16.3 5.95-.89 5.06-3 10.41-6.55 13.09-12.2h.87c.3 3.57-3.27 5.65-5.65 7.73-2.08 2.68-5.06 4.47-8 6.25-.6.3-1.49.3-2.38.6a8.31 8.31 0 01-2.68 0c-.3.29-1 .59-1.28.89-.59 3-.89 6.54 1.49 8.63 1.19 1.78 2.29 3.57 4.67 4.16 2.68-2.68 7-4.16 9.7-6.84-1.49 3.86-6.55 4.46-8.33 8a9.38 9.38 0 00-.89 2.68c-.6 2.38-1.19 5.06-.3 7.44.3.59.89.89.89 1.78.59 1.79 3.28.89 3.87 2.68-2.08.3-4.46-2.08-5.95.59 2.08 1.2 4.46.9 6.54 2.09.6.29.9-.3 1.19-.6V244a17.61 17.61 0 005.06-9.22c0-.3.89-.6 1.19-1.2a35.73 35.73 0 002.68-5.94c1.19-2.68 3.87-4.76 4.76-7.44 1.19-2.68 1.19-5.65 1.19-8.63.59-5.36-2.68-10.12-4.17-15.18-1.48-4.46-1.19-8.92-2.08-13.68a20.32 20.32 0 00-6.89-10.71 55.34 55.34 0 01-5.36-6.25 8.66 8.66 0 00-4.46-2.68c-.6 0-.6 1.19-1.19.89-.3-.59.3-1.78-.3-2.38h-.59c-.3-.3 0-.59.3-.59l.29.29a1.11 1.11 0 000-1.78s-1.43-1.25-1.43-.95c-.89.59-.05-.24-.95.95v1.19h-.59c.69-2.58-3.28-1.19-5.06-1.19" fill="#9a4a23"/><path d="M348.32 226.69c-1.34-1.34-3.06-2.76-3.65-4.55-2.87 4.56-1.11 9.91-.21 15 .29.89.89 1.78 1.19 2.68s2.08 1.19 1.78 1.78c-.59 1.19-1.78-1.19-3-.59-.9.29-2.09.89-1.79 1.49.3 2.08 3.57.89 5.65 1.18.6.3.6-.88 1.19-1.48s2.09-.9 1.79-1.49c-1.49-3.57-1.19-7.14-.89-11 0-.89-1.19-2.08-2.09-3" fill="#9a4a23"/><path d="M348.32 226.69c-1.34-1.34-3.06-2.76-3.65-4.55-2.87 4.56-1.11 9.91-.21 15 .29.89.89 1.78 1.19 2.68s2.08 1.19 1.78 1.78c-.59 1.19-1.78-1.19-3-.59-.9.29-2.09.89-1.79 1.49.3 2.08 3.57.89 5.65 1.18.6.3.6-.88 1.19-1.48s2.09-.9 1.79-1.49c-1.49-3.57-1.19-7.14-.89-11 0-.89-1.19-2.08-2.09-3h0z" fill="none" stroke="#000" stroke-width=".15"/><path d="M336.32 166.69c-.91.23-1.09.5-1.39.2 0-1.49 2.09-1.19 3.28-1.49.29 1.29-.7 1-1.89 1.29M346.24 165.4v-1.49c.3-.29.6 0 .6.3 0 1.19.59 3-.9 3.57-.29-.89.3-1.49.3-2.38M337.91 173.44c.38.18 0 .59-.3.59-.59 0-1.49 0-1.78-.89 0-.3 0-.6.29-.6.6 0 1.19.6 1.79.9M354.87 177.9c.21-.21.3 0 .6 0-.3.59.09 1.49-1.49.89l.89-.89"/><path d="M336.37 168.17a1 1 0 10-.91-1 .94.94 0 00.91 1M334.09 166a.35.35 0 00.35-.35.35.35 0 00-.7 0 .35.35 0 00.35.35M310.68 160.57s1.34 2.3 3.05 1.48.82-1.63.82-1.63-1.41-1.12-1.26-1.94.52-1.49 2.15-1.11a.35.35 0 00.15-.38 6.1 6.1 0 01-.3-1.33c0-.38-.37-2.61 1.27-2.61a2 2 0 011.63 1c.3.52.23.22.23.22s.89-1.41 1.64-1.27 1 .6 1.33 1.79.67 2.38.38 3a14.12 14.12 0 001.19-2.68 8 8 0 011.26-2.46 4.35 4.35 0 012.6-1.86 4.78 4.78 0 01.08 3s1.11-1.79 2.23-1.49 1.11.89 1.11.89a1.48 1.48 0 011.27-.82c1-.07 1.86-.14 2.16.23 0 0 2.45.37 3.05 0s1.63-1 1.71-1.49 0-1.49.52-1.41 1 1.33 1 1.93a9.17 9.17 0 01-.52 2 5.64 5.64 0 011.11 1.78c.08.6.15 1.71-1.19 1.34s-1.48 0-1.63.23c0 0-3.13-.3-3.72.89s-.15 1.41.15 1.86-.17.95-.9 1.26c-1 .45-.74 1.49-1.86 2a2.48 2.48 0 01-1.86.22 31.2 31.2 0 01-4.9 3.57 7.71 7.71 0 01-3.05.6s0 .38-1.05 1a5.53 5.53 0 01-2.3.22 1.8 1.8 0 01-1 1.19c-.75.28-4.84.9-10.34-3.72a27 27 0 012.38-4 13.13 13.13 0 011.41-1.57"/><path d="M307.56 164.51s.3 1.71 4.16 3.57c2.83 1.36 4.77.74 5.06.44a3.45 3.45 0 00.53-1.18s2.08.59 2.52.14a1 1 0 00.23-1 6.19 6.19 0 004.38-.52c1.94-1.19 4.69-3.42 5.21-4.39 0 0 .6 1 1.34.75s.22-1.94.22-1.94 1.94.23 1.94-.37-.75-1.63-.08-2.45a4.41 4.41 0 013-1.27c1.19-.15 2.9-.89 3.5-.59a7.57 7.57 0 01-1.34-1.71c-.15-.53 1-1.27.74-2.23 0 0-1.71 1.7-3.05 1.78s-1.49-.15-1.93.07a5.75 5.75 0 00-2.68 2.31s.3-2.08 1.34-2.68c0 0-1.5-.38-2.09.67-.37.67-.89 1-1.11.45s.15-1.19-.22-1-2.09 1.93-3 2.23-.44-1-.52-1.41a6.68 6.68 0 01.22-1.57 2.16 2.16 0 00-1.48 1.42c-.3 1.11-1.49 4.61-2.53 4.91s-1.12-.38-1.12-1.12-.22-3.57-.89-3.64-1.41 2.3-1.41 2.3-1.12-2.75-1.79-2.53-.59 1.56-.15 2.23a3.46 3.46 0 01.3 2.38s-2.08-.52-2.16-.14 1.76 2 1.19 3.12c-.67 1.26-2.38 3.94-6.17.22l-2.16 2.83" fill="#228a43"/><path d="M289.71 161.38a7.8 7.8 0 01-3.43 1.44c-1.53.05-2.06-.29-2.28-.74-.54-1.14 2-1.42 1.34-2.68s-1.68-.59-2.48-1c-.59-.3.1-1.54 0-2.13s.05-2.33-.49-2.58-1.94.94-2.09 1.39c0 0-1.43-2.58-3.17-1.89a2.86 2.86 0 01.45 1.54c-.1.74-.85 1.74-.89 2.43s-.3 1.24 0 1.53a2 2 0 01-.9-2.08 5 5 0 00-1.73-4.06 3.28 3.28 0 00-2.43-.65s.74 2.73.24 3.08a28.45 28.45 0 00-2.82-2.53 2.29 2.29 0 00-1.89-.4s-.1.94.15 1.24c0 0-1.59-.54-2.08.45a5.69 5.69 0 00-1.74-.55 4.52 4.52 0 00-2.23.25s-1.09-.74-1-1.39a5.79 5.79 0 00-.05-1.24 2 2 0 00-2.72 1.94c-.35 2.72 1.28 3.27 1.23 3.27a5.29 5.29 0 00.5 2.43c.45.54 2 1.83 2.83 1.83 0 0-.2-1.73.79-1.53s1.39.64 1.24 1-1.14 1.65-.74 2.23c.74 1.09 1.64.51 2 .74s-.08.81.49 1.34c.85.8 2.63-.1 3.28.45a16.48 16.48 0 003.17 2.38 10.13 10.13 0 004.51 1.44 1 1 0 00.75 1.29 7.32 7.32 0 002.72-.05s-.08.45.8.64c2.87.62 6.49-.5 9.27-2.18l2.88-1.74-2-2.77c-.74-1-1.48-2.14-1.48-2.14"/><path d="M290.25 162.13s-3.77 2.57-6.05 1.83a2.14 2.14 0 01-1.34-3.17c.2-.3 1.17-.82 1-1s-1.63 1.09-2.33.4a1.49 1.49 0 01-.24-1.94 3.07 3.07 0 00.44-2.83c-.54-1.19 0-.15 0-.15s-1.43.9-1.58 1.94c0 0-.7-2.53-1.59-2.73a4.63 4.63 0 01-.25 2.08c-.3.4-1.24 1.54.05 3.58 0 0-2.08.59-2.92-1.05s-.85-6.15-2.68-6c0 0 .92 2.89.05 3.48-.45.29-1 .19-2-1a7.08 7.08 0 00-2.33-2.08s.7 1.34.3 1.49-2.48-.94-2.73-.2c0 0 1.59 1.79 1.59 2.63s-.26 1.35-.5 1.29c-.59-.15-.19-.9-.39-1.49a5 5 0 00-2.78-2.53 9.87 9.87 0 00-2.63-.1c-.64.05-2.48-.89-2.58-2 0 0-1.09 1.93 1.44 3.42 0 0-.35 2 .35 2.28s1.09-.64 1.88-.79a2.25 2.25 0 011.84.64c.54.4 1.34 1 1.29 1.79s-1 1.14-.9 1.39a3.8 3.8 0 002.53.34h.15s-.64 1.39-.2 1.64a1.6 1.6 0 002.14-.8 7.85 7.85 0 003.62 3.63c2.52 1.14 3.77 1.29 5.5.89 0 0 .4-.05.5.14s-.88.89-.65 1.25c.55.84 2.58-.45 2.83-.2s-.2.84.2 1.09 2.08.3 4.46-.4a27.66 27.66 0 006.94-3.17l-1.29-1.89-1.14-1.63" fill="#228a43"/><path d="M299.73 181c-2.31 0-4-1.79-5.63-3s-4.65-1.48-6.14-2.3-2.83-1.49-2.83-2.53.6-.75.6-.75A1.48 1.48 0 01286 171c.52-.82 1.49-.22 1.49-.22s.37-.67.59-1 1-.07 1-.07a1.93 1.93 0 01.6-.75c.37-.22 1.71-.14 2.08-.3s1-.29 1-1.11a7.21 7.21 0 00-1.63-4.09c-1.05-1.19-2.46-3.13-2.46-3.13a3.32 3.32 0 01-.22-2.38 3.59 3.59 0 01.44-1.56 5 5 0 011.19-.52 50.3 50.3 0 013.28-4.09 13.23 13.23 0 013.64-2.08c-.07-.37 1.36-1.64 2.7-1.64s2.77 1.27 2.69 1.64a13.38 13.38 0 013.65 2.08 49.5 49.5 0 013.27 4.09 4.84 4.84 0 011.19.52 3.58 3.58 0 01.5 1.61c.07.6.3 1.72-.22 2.38 0 0-1.42 1.94-2.46 3.13a7.09 7.09 0 00-1.64 4.09c.08.82.67 1 1 1.11s1.72.08 2.09.3a1.87 1.87 0 01.59.75s.82-.23 1 .07a10.78 10.78 0 01.6 1s1-.6 1.49.22a1.48 1.48 0 01.22 1.41s.59-.29.59.75-1.33 1.71-2.82 2.53-4.09 1-5.73 2.23-3 3-6 3"/><path d="M299.73 181c-2.31 0-4-1.79-5.63-3s-4.65-1.48-6.14-2.3-2.83-1.49-2.83-2.53.6-.75.6-.75A1.48 1.48 0 01286 171c.52-.82 1.49-.22 1.49-.22s.37-.67.59-1 1-.07 1-.07a1.93 1.93 0 01.6-.75c.37-.22 1.71-.14 2.08-.3s1-.29 1-1.11a7.21 7.21 0 00-1.63-4.09c-1.05-1.19-2.46-3.13-2.46-3.13a3.32 3.32 0 01-.22-2.38 3.59 3.59 0 01.44-1.56 5 5 0 011.19-.52 50.3 50.3 0 013.28-4.09 13.23 13.23 0 013.64-2.08c-.07-.37 1.36-1.64 2.7-1.64s2.77 1.27 2.69 1.64a13.38 13.38 0 013.65 2.08 49.5 49.5 0 013.27 4.09 4.84 4.84 0 011.19.52 3.58 3.58 0 01.5 1.61c.07.6.3 1.72-.22 2.38 0 0-1.42 1.94-2.46 3.13a7.09 7.09 0 00-1.64 4.09c.08.82.67 1 1 1.11s1.72.08 2.09.3a1.87 1.87 0 01.59.75s.82-.23 1 .07a10.78 10.78 0 01.6 1s1-.6 1.49.22a1.48 1.48 0 01.22 1.41s.59-.29.59.75-1.33 1.71-2.82 2.53-4.09 1-5.73 2.23-3 3-6 3z" fill="none" stroke="#000" stroke-width=".07"/><path d="M299.73 153.35c-1.93 0-4.82 1.56-5.71 1.86a24 24 0 01-2.6.6s2.71-2.83 3.75-3.87a6.21 6.21 0 012.83-1.34 4.79 4.79 0 011.73-.75c.82-.07 1.21.53 1.73.75a6.21 6.21 0 012.83 1.34c1 1 3.42 3.57 3.42 3.57a8.59 8.59 0 01-2.23-.3c-.9-.3-3.82-1.86-5.75-1.86M299.73 174c-1 0-2-.89-3.37-1.18a26.55 26.55 0 01-3.94-1.57c-.37-.14-1.56-.67-1-1.19s1.12.45 2.45-1.41-2-6.1-2-6.1 1.86.74 3.49 1.56a16.19 16.19 0 004.41 1.12 16.19 16.19 0 004.41-1.12c1.63-.82 3.49-1.56 3.49-1.56s-3.34 4.24-2 6.1 1.94.89 2.46 1.41-.67 1.05-1 1.19a26.55 26.55 0 01-3.94 1.57c-1.34.29-2.4 1.18-3.37 1.18" fill="#c3a204"/><path d="M299.73 175.89c-1 0-2.33-1.49-2.92-1.71s-2.23-.6-3.35-1a19.31 19.31 0 01-3.79-2.3c-.22-.23.07-.6.37-.67l.07.22a19.9 19.9 0 003.8 2.31c1.11.37 2.75.74 3.35 1s1.43 1.42 2.47 1.42 1.88-1.2 2.47-1.42 2.23-.59 3.35-1a19.45 19.45 0 003.79-2.31l.08-.22c.29.07.59.44.37.67a19.31 19.31 0 01-3.79 2.3c-1.12.37-2.76.74-3.35 1s-1.88 1.71-2.92 1.71" fill="#c3a204"/><path d="M299.73 178.57c-2.33 0-2.62-.9-4.71-2.16a15.59 15.59 0 00-4-1.64c-.52-.22-2.9-1.86-3.27-2a.76.76 0 01-.38-1.27c.52-.67 1.49-.22 1.49-.22a16 16 0 006.92 3.35c2.49.59 2.32 1.93 4 1.93s1.47-1.34 4-1.93a16 16 0 006.92-3.35s1-.45 1.49.22a.76.76 0 01-.38 1.27c-.37.14-2.75 1.78-3.27 2a15.74 15.74 0 00-4 1.64c-2.08 1.26-2.38 2.16-4.7 2.16" fill="#c3a204"/><path d="M299.73 180.05a9.22 9.22 0 01-1.8-.29 42.14 42.14 0 01-4.1-2.61 18.51 18.51 0 00-3.49-1.41c-.82-.37-3.8-2.45-4.17-2.6s0-.52.23-.3a20.76 20.76 0 004.09 2.45 19.62 19.62 0 013.49 1.35 44.82 44.82 0 004.1 2.45 6.42 6.42 0 001.65.22 6.52 6.52 0 001.66-.22 47.53 47.53 0 004.09-2.45 19.62 19.62 0 013.49-1.35 20.76 20.76 0 004.09-2.45c.23-.22.6.15.23.3s-3.35 2.23-4.17 2.6a18.51 18.51 0 00-3.49 1.41 42.14 42.14 0 01-4.1 2.61 9.11 9.11 0 01-1.8.29" fill="#c3a204"/><path d="M304.73 163.84s-.59 1.56-.81 2.23-.45 1.64.07 1.64.37-.9.74-1.49a13.49 13.49 0 00.89-2.75l-.89.37M302.05 152.09a10.9 10.9 0 012.16 2.3c.22.37.75.15.6-.15a10.2 10.2 0 00-1.94-2.45c-.89-.75-2.45-1.49-2.53-1.19s.75.67 1.71 1.49"/><path d="M299.73 164a12.51 12.51 0 01-5.3-1.57 25.69 25.69 0 01-4.61-2.45 5.21 5.21 0 01-.3-1.49s-.07-1.71.89-1.71a24.24 24.24 0 003.87-.74c1.42-.3 3.67-1.79 5.45-1.79s4 1.49 5.45 1.79a25.41 25.41 0 003.87.74c1 0 .89 1.71.89 1.71a4.88 4.88 0 01-.3 1.49 25.69 25.69 0 01-4.61 2.45 12.51 12.51 0 01-5.3 1.57" fill="#c3a204"/><path d="M298.71 155.51l1-.3 1 .3v7.29l-1 .29-1-.29v-7.29M302.8 156.25l1.34.52v5l-1.34.74v-6.25M305.62 157.14l1.34.52v2.83l-1.34.6v-4M307.93 157.81l1 .08v1.49l-1 .59v-2.16zM296.55 156.25l-1.34.52v5l1.34.74v-6.25M293.72 157.14l-1.34.52v2.83l1.34.6v-4M291.42 157.81l-1 .08v1.49l1 .59v-2.16z" fill="none" stroke="#000" stroke-width=".6"/><path d="M322 225.35l.3-.58h-.43v-.08c0-.08-.31-.29-.44-.4a4 4 0 01-.5-.59.91.91 0 01-.09-.54c0-.15-.23-.27-.56-.49s-.61.07-1.07-.12c-.19-.08-.28-.16-.31-.23v1.83a1.51 1.51 0 01-.29.66 2 2 0 00.4.3.78.78 0 00.45 0 .15.15 0 000 .06c.06.3.48.28.48.28h.63l.36-.13a.85.85 0 00.31-.08c.15.17.55 0 .55 0z" fill="#ba8748"/><path d="M323.7 226.2l-.59-.44s-.34-.32-.4-.3-.63-.12-.9-.12c0 0-.4.17-.55 0a.85.85 0 01-.31.08s-.29.23-.36.13-.21.08-.25 0-.33.08-.38 0-.42 0-.48-.28 0-.06 0-.06a.91.91 0 01-.46 0 2 2 0 01-.4-.3 1.51 1.51 0 00.29-.66v-2s-.15.23.32.42.73-.09 1.07.12.58.34.56.49a.91.91 0 00.09.54 4 4 0 00.5.59c.13.11.44.32.44.4v.08l.82-.08s.21 0 .27-.06-.1-.55.11-.72a1 1 0 01.86-.08l.19.23s.25-.21.4-.19.41.46.5.53.48.37.33.58-.39.34-.56.19c0 0 .25.44 0 .65a.4.4 0 01-.48 0s.15.12 0 .35-.36.15-.59-.06z" fill="none" stroke="#000" stroke-linecap="round" stroke-linejoin="round" stroke-width=".15"/><path d="M321.85 224.73v.08l.82-.08s.21 0 .27-.06-.1-.55.11-.72a1 1 0 01.86-.08l.18.23s.26-.21.4-.19.42.46.51.52.48.38.33.59-.4.34-.56.19c0 0 .25.44 0 .65a.4.4 0 01-.49 0s.16.13 0 .36-.35.15-.58-.06l-.59-.44s-.34-.32-.4-.3-.63-.12-.9-.12c0 0-.4.16-.55 0" fill="#c3a204" stroke="#000" stroke-linecap="round" stroke-linejoin="round" stroke-width=".15"/><path d="M311.94 224.08c0-.23-.08-1.36-.11-1.76 0 .08-.11.18-.33.27-.46.19-1 .3-1 .45s-.46.5-.54.63.16.43 0 .53-.6.33-.6.41-.21.16-.39.22l.18.69a1.18 1.18 0 00.21-.18.86.86 0 00.32.08s.29.23.35.13.21.08.26 0 .33.08.37 0 .86.23.92-.06a.15.15 0 000-.06.78.78 0 00.45 0 1.56 1.56 0 00.38-.41 1.35 1.35 0 01-.47-.94z" fill="#ba8748"/><path d="M308.39 226.72l.5-.47s0-.32.08-.3-.19-.33.08-.33a1.25 1.25 0 00.37-.28.86.86 0 00.32.08s.29.23.36.13.21.08.25 0 .33.08.38 0 .85.23.91-.06 0-.06 0-.06a.91.91 0 00.46 0 1.56 1.56 0 00.38-.41 1.35 1.35 0 01-.54-.88c0-.28-.12-1.91-.12-1.91s.14.23-.32.42-1 .3-1 .45-.46.5-.54.63.16.43 0 .53-.6.33-.6.41-.56.34-.62.26a.46.46 0 00-.17-.43 1 1 0 00-.85-.08l-.19.23s-.26-.21-.4-.19-.42.46-.51.52-.48.38-.33.59.4.34.56.19c0 0-.25.44 0 .65a.4.4 0 00.49 0s-.16.12 0 .36a1.05 1.05 0 001 0z" fill="none" stroke="#000" stroke-width=".15"/><path d="M309.42 224.61c0 .09-.56.34-.62.25a.45.45 0 00-.17-.42 1 1 0 00-.85-.08l-.19.23s-.26-.21-.4-.19-.42.46-.51.52-.48.38-.33.59.4.34.56.19c0 0-.25.44 0 .65a.4.4 0 00.49 0s-.16.13 0 .36a1.05 1.05 0 001 0l.5-.47s0-.32.08-.3-.19-.33.08-.33a1.25 1.25 0 00.37-.28" fill="#c3a204" stroke="#000" stroke-width=".15"/><path d="M327.92 218.49l-3.05 5.8" fill="none" stroke="#000" stroke-linecap="round" stroke-linejoin="round" stroke-width=".21"/><path d="M325.08 221.14l-.5 2.79" fill="none" stroke="#000" stroke-width=".21"/><path d="M325.63 220.59l-1 3.38m1.81-4.34l-1.72 4.47m1.8-3.84l-1.68 4m3.72-5.37l-3.56 5.44m2.45-4.33l-2.51 4.2m2.22-2.7l-2 2.89 3.45-4.27m-1.72 2.95l-1.66 1.47m2.2-2.25l-2.31 2.23 3.55-3.61" fill="none" stroke="#000" stroke-linecap="round" stroke-linejoin="round" stroke-width=".21"/><path d="M326.91 218.64a6.49 6.49 0 01-.86 1s.34 0 .45.09a1.85 1.85 0 01.23.28 3.18 3.18 0 01.18-1.34zM325.9 219.43a6.07 6.07 0 01-.66 1.1 1 1 0 01.46 0 1.91 1.91 0 01.28.23 3 3 0 01-.08-1.34z" fill="#fff" stroke="#000" stroke-linecap="round" stroke-linejoin="round" stroke-width=".15"/><path d="M325.35 220a6.07 6.07 0 01-.66 1.1 1 1 0 01.46 0 1.91 1.91 0 01.28.23 3.2 3.2 0 01-.08-1.35zM328.45 217.48a6.56 6.56 0 01-.92.9 1 1 0 01.44.12 1.5 1.5 0 01.21.3 3.22 3.22 0 01.27-1.33zM328 219a6.56 6.56 0 01-.92.9.91.91 0 01.44.13 1.75 1.75 0 01.21.29A3.17 3.17 0 01328 219zM327.68 220.51a6 6 0 01-.92.9s.34 0 .44.13a1.28 1.28 0 01.21.29 3.17 3.17 0 01.27-1.32zM327.08 219.23a6.23 6.23 0 01-.93.9s.34 0 .44.13a1.28 1.28 0 01.21.29 3.09 3.09 0 01.28-1.32zM329.22 217.84a6.17 6.17 0 01-.93.91 1 1 0 01.44.12 1.5 1.5 0 01.21.3 3.15 3.15 0 01.28-1.33zM329.2 219.19a6 6 0 01-1.07.73 1 1 0 01.42.2 1.76 1.76 0 01.15.32 3.1 3.1 0 01.5-1.25zM329.3 220.07a5.87 5.87 0 01-1.06.73s.33.08.41.2a1.44 1.44 0 01.16.32 3.17 3.17 0 01.49-1.25zM328.27 221.58a6 6 0 01-1.13.62s.32.11.39.24a2.12 2.12 0 01.13.34 3 3 0 01.61-1.2z" fill="#fff" stroke="#000" stroke-linecap="round" stroke-linejoin="round" stroke-width=".15"/><path d="M327.68 222.28a6.71 6.71 0 01-1.14.61s.31.11.38.24a1.74 1.74 0 01.12.34 3.21 3.21 0 01.64-1.19zM315.93 226.33a15.57 15.57 0 00.09 2.37 6.74 6.74 0 00.69 1.81 3.6 3.6 0 00.16-2c-.17-1-.6-2.47-.6-2.47l-.34.29" fill="#fff" stroke="#000" stroke-linecap="round" stroke-linejoin="round" stroke-width=".15"/><path d="M316.31 226.17a10.6 10.6 0 00.4 2.49c.32.72.87 1.48 1 1.4a6.23 6.23 0 00-.26-2.22 5.55 5.55 0 00-.94-1.8c-.1-.06-.2.13-.2.13z" fill="#fff" stroke="#000" stroke-linecap="round" stroke-linejoin="round" stroke-width=".15"/><path d="M316.59 226a15 15 0 00.71 1.84c.37.77 1.15 1.43 1.26 1.34a3.7 3.7 0 00-.4-1.81 3.9 3.9 0 00-1.19-1.51c-.18-.07-.38.14-.38.14z" fill="#fff" stroke="#000" stroke-linecap="round" stroke-linejoin="round" stroke-width=".15"/><path d="M317 225.83a10.82 10.82 0 001.23 2.12 1.51 1.51 0 001.18.55 5.66 5.66 0 00-.76-1.87 3.37 3.37 0 00-1.15-1.17 1.1 1.1 0 00-.67.08l.17.29M313.75 225.48a3.56 3.56 0 00-1 .88c-.47.6-1.13 1.86-.91 2.19a3.65 3.65 0 001.57-1.15 8.46 8.46 0 00.73-1.8l-.4-.12" fill="#fff" stroke="#000" stroke-linecap="round" stroke-linejoin="round" stroke-width=".15"/><path d="M314.16 225.78a10.1 10.1 0 00-1.11 1.45 3.19 3.19 0 00-.54 2.21 5 5 0 001.48-1.77 12.63 12.63 0 00.6-1.74l-.38-.15h0" fill="#fff" stroke="#000" stroke-linecap="round" stroke-linejoin="round" stroke-width=".15"/><path d="M314.59 225.93a6.89 6.89 0 00-.88 1.63 3.93 3.93 0 00-.33 2.33c.15.07.91-.81 1.07-1.36s.5-2.3.52-2.41-.38-.19-.38-.19z" fill="#fff" stroke="#000" stroke-linecap="round" stroke-linejoin="round" stroke-width=".15"/><path d="M314.92 226s-.3 1.15-.47 1.88a6.52 6.52 0 000 2.39c.11 0 .58-.33.72-1.28s.35-2.75.35-2.75l-.57-.24" fill="#fff" stroke="#000" stroke-linecap="round" stroke-linejoin="round" stroke-width=".15"/><path d="M315.39 226.36a8.23 8.23 0 00-.25 1.95c0 1.21.05 2.24.24 2.25s.63-.36.66-2.19a8.44 8.44 0 00-.1-2.17l-.55.16" fill="#fff" stroke="#000" stroke-linecap="round" stroke-linejoin="round" stroke-width=".15"/><path d="M313.71 225.48v.33l.35-.05.08.38.47-.11s.1.45.19.5.45-.14.45-.19 0 .33.24.35.28-.36.28-.36.38.22.45.19.11-.43.11-.43a1.44 1.44 0 00.61 0c.14-.08.19-.54.19-.54s.57-.15.57-.21-.15-.21-.19-.29-4 0-4 0-.29.19-.22.3.38.16.38.16z" fill="#ba8748" stroke="#000" stroke-linecap="round" stroke-linejoin="round" stroke-width=".15"/><path d="M313.77 225.05v.35s.29 0 .38-.06l.08.36.49-.19.11.39.34-.09.35.23.2-.38.58.13.05-.34h.4l.09-.2h.27v-.22z" fill="none" stroke="#000" stroke-linecap="round" stroke-linejoin="round" stroke-width=".15"/><path d="M308 210.7a15.06 15.06 0 00-2.05-1.39 7.84 7.84 0 00-3-.78 5.28 5.28 0 002.27 1.85c1.38.63 2.2 1.14 2.42 1.17a4.5 4.5 0 01.82.34 5.08 5.08 0 01-.41-.78 1.08 1.08 0 010-.41z" fill="#ba8748" stroke="#000" stroke-linecap="round" stroke-linejoin="round" stroke-width=".15"/><path d="M307.17 211.38l-1.57-.84c-.39-.2-1.45-.61-1.64-.45s.11.48.48.77a12.46 12.46 0 001.36.72c.24.14.78.39.78.39l.59-.59" fill="#ba8748" stroke="#000" stroke-linecap="round" stroke-linejoin="round" stroke-width=".15"/><path d="M307.16 212.24a6.17 6.17 0 00-1.83-.94c-.59-.07-.75-.08-.82 0s.17.47.43.68a3.78 3.78 0 001.45.61c.31.11 1.34.55 1.34.55l-.57-.91" fill="#ba8748" stroke="#000" stroke-linecap="round" stroke-linejoin="round" stroke-width=".15"/><path d="M308.42 211.89s-1.54-.64-1.89-.47-.3.19-.3.19a1.07 1.07 0 00.47.46 5.82 5.82 0 001.17.36l1 .19a4.13 4.13 0 00-.45-.73z" fill="#ba8748" stroke="#000" stroke-linecap="round" stroke-linejoin="round" stroke-width=".15"/><path d="M308.87 212.62a3.89 3.89 0 00-1.93-.24c-.62.24.66.57 1.12.71s1.18.27 1.3.3.19-.38.19-.38l-.68-.39M307.68 213.17a12.28 12.28 0 00-1.59-.65c-.33 0-.62-.06-.72.07s.23.52.59.77a7.89 7.89 0 001.45.67c.27.1.88.23.88.23v-.95l-.61-.14" fill="#ba8748" stroke="#000" stroke-linecap="round" stroke-linejoin="round" stroke-width=".15"/><path d="M309.57 213.39a9.83 9.83 0 00-1.5-.43c-.45 0-.86.08-.85.23a1.53 1.53 0 001 .61l1.44.2-.12-.61M308.13 214.32a7.27 7.27 0 00-1.93-.82c-.57 0-.69-.11-.74 0s-.06.34.38.64a7.62 7.62 0 001.6.68 5.65 5.65 0 00.93.17l-.24-.69" fill="#ba8748" stroke="#000" stroke-linecap="round" stroke-linejoin="round" stroke-width=".15"/><path d="M308.12 215a9.45 9.45 0 00-1.13-.46c-.34-.07-1.33-.23-1.42-.07s.08.47.39.59a7.56 7.56 0 001.55.42l.81.08-.2-.56" fill="#ba8748" stroke="#000" stroke-linecap="round" stroke-linejoin="round" stroke-width=".15"/><path d="M308.21 215.58a9.4 9.4 0 00-1.81-.44c-.53 0-.88.05-.86.22s.39.49 1 .55l1.76.19-.08-.52" fill="#ba8748" stroke="#000" stroke-linecap="round" stroke-linejoin="round" stroke-width=".15"/><path d="M308.29 216.1s-.75-.17-1.24-.22-1.42.26-1.39.45.37.35.82.38a4.6 4.6 0 001.67-.09.33.33 0 00.14-.52z" fill="#ba8748" stroke="#000" stroke-linecap="round" stroke-linejoin="round" stroke-width=".15"/><path d="M308.4 216.66a6.84 6.84 0 00-1.45.1 1.59 1.59 0 00-.91.56c0 .13.66.29 1 .27a7.38 7.38 0 001.28-.33v-.6" fill="#ba8748" stroke="#000" stroke-linecap="round" stroke-linejoin="round" stroke-width=".15"/><path d="M308.58 217.15a4.49 4.49 0 00-1.28.3c-.57.25-.9.79-.8.94s1.05 0 1.24-.09a3.91 3.91 0 001.1-.88l-.26-.27" fill="#ba8748" stroke="#000" stroke-linecap="round" stroke-linejoin="round" stroke-width=".15"/><path d="M308.65 217.81a6.81 6.81 0 00-1.27.48c-.32.2-.79.69-.65.89s.87 0 1 0a5.22 5.22 0 001.18-.76c.14-.22-.22-.58-.22-.58" fill="#ba8748" stroke="#000" stroke-linecap="round" stroke-linejoin="round" stroke-width=".15"/><path d="M308.73 218.27a5.49 5.49 0 00-1 1c-.14.3-.31.57-.17.71s.89-.24 1-.35a2.38 2.38 0 00.65-.9l-.48-.42" fill="#ba8748" stroke="#000" stroke-linecap="round" stroke-linejoin="round" stroke-width=".15"/><path d="M309.35 218.73a7.63 7.63 0 00-1.09.94c-.25.33-.36.72-.2.9s.69-.24.85-.33a8.37 8.37 0 001-1.14l-.52-.37" fill="#ba8748" stroke="#000" stroke-linecap="round" stroke-linejoin="round" stroke-width=".15"/><path d="M309.87 219.1a8.48 8.48 0 00-.76.81c-.19.26-.64 1-.47 1.16s.46 0 .58-.08a9.4 9.4 0 001.07-1.3.45.45 0 00-.42-.59zM310.48 219.56a6.4 6.4 0 00-.75 1 1.26 1.26 0 00-.16.86c.06.08.72-.11.9-.42s.61-.91.67-1.12-.28-.55-.66-.33z" fill="#ba8748" stroke="#000" stroke-linecap="round" stroke-linejoin="round" stroke-width=".15"/><path d="M311.14 220a4.33 4.33 0 00-.53.6 1.5 1.5 0 00-.27 1.35c.13.11.64-.23.77-.52a13.62 13.62 0 00.61-1.22c0-.08-.11-.54-.53-.23h-.05" fill="#ba8748" stroke="#000" stroke-linecap="round" stroke-linejoin="round" stroke-width=".15"/><path d="M311.9 220.21a1.7 1.7 0 00-.51.58 3.13 3.13 0 00-.28 1.24c.08.11.68 0 .77-.31v-1.51M309.77 214a3.6 3.6 0 00-1.84-.12c-.55.26-.49.36-.49.36a2.31 2.31 0 00.69.33h1.33l.31-.59" fill="#ba8748" stroke="#000" stroke-linecap="round" stroke-linejoin="round" stroke-width=".15"/><path d="M309.46 214.59a9.14 9.14 0 00-1.23.12c-.38.09-.57.36-.55.43a1.68 1.68 0 00.71.2h.28l.61-.09.18-.69" fill="#ba8748" stroke="#000" stroke-linecap="round" stroke-linejoin="round" stroke-width=".15"/><path d="M309.28 215.28a2.28 2.28 0 00-.89.06c-.29.12-.62.3-.62.38s.33.26.57.25.93-.08.93-.08v-.61" fill="#ba8748" stroke="#000" stroke-linecap="round" stroke-linejoin="round" stroke-width=".15"/><path d="M309.25 215.78l-.71.24c-.39.14-.77.48-.7.61s.52.09.72.07a3.25 3.25 0 00.86-.32 3.63 3.63 0 00-.17-.6z" fill="#ba8748" stroke="#000" stroke-linecap="round" stroke-linejoin="round" stroke-width=".15"/><path d="M309.36 216.43s-.6 0-.8.27-.43.5-.39.58.39.11.5.08.68-.19.77-.48a.43.43 0 00-.08-.45z" fill="#ba8748" stroke="#000" stroke-linecap="round" stroke-linejoin="round" stroke-width=".15"/><path d="M309.44 216.88a2.39 2.39 0 00-.69.49.85.85 0 00-.24.57c0 .09.44.06.65-.14s.6-.54.58-.7-.25-.22-.25-.22h-.05" fill="#ba8748" stroke="#000" stroke-linecap="round" stroke-linejoin="round" stroke-width=".15"/><path d="M309.61 217.12a4.2 4.2 0 00-.58.79c-.09.25-.28.66-.23.67s.61-.09.66-.25a6.25 6.25 0 01.56-.85l-.41-.36" fill="#ba8748" stroke="#000" stroke-linecap="round" stroke-linejoin="round" stroke-width=".15"/><path d="M309.93 217.62a4.67 4.67 0 00-.6.73 4 4 0 00-.08.6 2.07 2.07 0 00.62-.26 5.24 5.24 0 00.56-.81l-.5-.26M310.43 218s-.45.6-.61.79a1.11 1.11 0 00-.11.8.7.7 0 00.56-.2l.6-.89-.39-.51h-.05" fill="#ba8748" stroke="#000" stroke-linecap="round" stroke-linejoin="round" stroke-width=".15"/><path d="M310.87 218.47a1.59 1.59 0 00-.53.48 1.94 1.94 0 00-.19.85 2.26 2.26 0 00.57-.23 6.68 6.68 0 00.64-.89c.07-.21-.49-.21-.49-.21z" fill="#ba8748" stroke="#000" stroke-linecap="round" stroke-linejoin="round" stroke-width=".15"/><path d="M311.33 218.77a3.21 3.21 0 00-.61.8 2 2 0 00-.08.51 1.34 1.34 0 00.52-.22 5.66 5.66 0 00.53-1c0-.12-.36-.14-.36-.14z" fill="#ba8748" stroke="#000" stroke-linecap="round" stroke-linejoin="round" stroke-width=".15"/><path d="M311.69 218.91a3 3 0 00-.45.85c-.16.48.06.63.06.63s.49-.29.55-.56v-.93h-.16" fill="#ba8748" stroke="#000" stroke-linecap="round" stroke-linejoin="round" stroke-width=".15"/><path d="M311.79 217.75h-.19a3.38 3.38 0 01-.63-.47c-.07-.13-.35-.22-.35-.22s-.25-.57-.35-.6.1-.25.1-.48a5 5 0 00.06-1c-.06-.09 0-.09 0-.09s.47-.25.5-.6a1.32 1.32 0 00-.4-1.45c-.66-.66-2.07-1.92-2.52-2.3a.78.78 0 000 .54 9.53 9.53 0 001.32 2s.06.28.09.44a3.18 3.18 0 00.2.47.65.65 0 00-.26.44.92.92 0 00.06.38s-.31.22-.28.47.13.32.13.32a1.92 1.92 0 000 .5 1.18 1.18 0 00.12.35s-.15.44 0 .57a2 2 0 01.32.25 1.14 1.14 0 00.31.47 1.83 1.83 0 00.35.19s-.1.16.19.31.25.35.53.44.25.29.54.35.25-.09.25-.09l-.09-1.23z" fill="#ba8748" stroke="#000" stroke-linecap="round" stroke-linejoin="round" stroke-width=".15"/><path d="M312.45 202.42a.4.4 0 01.25-.32c.25-.12.25 0 .25 0a1.81 1.81 0 01.54-.31.88.88 0 01.37 0s-.09-.22.32-.25.5.19.5.19.29-.16.41-.13a.94.94 0 01.19.06.57.57 0 01.44-.16.82.82 0 01.54.23 1.82 1.82 0 01.5-.1c.22 0 .25.16.25.16s.44 0 .57.13a4.82 4.82 0 01.34.43.54.54 0 01.54 0c.22.18.44.22.41.41a2 2 0 000 .25s.41-.13.59 0a1 1 0 01.48 1s.32 0 .59.45a.81.81 0 01-.12 1.1 1 1 0 01.38.66 1.75 1.75 0 01-.22.75 2.71 2.71 0 01-.06 1.17 1.06 1.06 0 01-.48.5s.07.44-.15.63a4.27 4.27 0 01-.48.35.62.62 0 01-.12.5c-.19.31-.41.31-.41.31s-.19.32-.35.38a1.17 1.17 0 01-.4.07 1 1 0 01-.35.41c-.25.15-.38 0-.38 0a2.29 2.29 0 01-.53.23 1.81 1.81 0 01-.48-.19 2.35 2.35 0 01-.6.44 1.34 1.34 0 01-1 0c-.19-.16-.19-.26-.19-.26s-.19-.12-.22-.09a1.43 1.43 0 01-.79.13c-.22-.1-.66-.32-.75-.7 0 0-.51.07-.73-.15a1.88 1.88 0 01-.34-.48s-.45-.21-.63-.31a1 1 0 01-.32-1s-.28 0-.56-.56a1.2 1.2 0 010-1.1 1.15 1.15 0 01-.32-.79 2.54 2.54 0 01.6-1.07s-.22-.19-.16-.73.79-1 .79-1a1.09 1.09 0 01.19-.76c.25-.28.82-.57 1.07-.47z" fill="none" stroke="#000" stroke-linecap="round" stroke-linejoin="round" stroke-width=".15"/><path d="M315 203a.55.55 0 00.6.29c.47 0 .56-.16.56-.16a1 1 0 001.07.19s.13.47.35.6a2.1 2.1 0 00.63.16s-.19.53.5.6a1.34 1.34 0 00.09.69 1.56 1.56 0 00.35.5.5.5 0 00-.41.6 1.26 1.26 0 00.38.72.78.78 0 00-.19.44 1.35 1.35 0 000 .41 1.91 1.91 0 00-.47.48c-.35.4-.19.56-.19.56a.64.64 0 00-.47.19c-.26.22-.26.31-.26.31a1.28 1.28 0 00-.59.1.7.7 0 00-.38.35s-.22 0-.25.12-.16.35-.16.35a.76.76 0 00-.75-.38 1.09 1.09 0 00-.76.25s-.16-.47-.44-.47a3.91 3.91 0 00-.76.13s.19-.26-.15-.57a1.28 1.28 0 00-.79-.32.91.91 0 00-.13-.53.74.74 0 00-.37-.32 1.82 1.82 0 00-.07-.5.45.45 0 00-.16-.25.33.33 0 00.13-.38 1.65 1.65 0 00-.19-.35.33.33 0 00.13-.34 5 5 0 00-.19-.72 1 1 0 00.6-.63 1.85 1.85 0 00.06-.76s.47 0 .63-.16a2.07 2.07 0 00.28-.53s.41.12.54-.16a3.3 3.3 0 00.69-.12 2 2 0 00.54-.39" fill="#fff"/><path d="M315 203a.55.55 0 00.6.29c.47 0 .56-.16.56-.16a1 1 0 001.07.19s.13.47.35.6a2.1 2.1 0 00.63.16s-.19.53.5.6a1.34 1.34 0 00.09.69 1.56 1.56 0 00.35.5.5.5 0 00-.41.6 1.26 1.26 0 00.38.72.78.78 0 00-.19.44 1.35 1.35 0 000 .41 1.91 1.91 0 00-.47.48c-.35.4-.19.56-.19.56a.64.64 0 00-.47.19c-.26.22-.26.31-.26.31a1.28 1.28 0 00-.59.1.7.7 0 00-.38.35s-.22 0-.25.12-.16.35-.16.35a.76.76 0 00-.75-.38 1.09 1.09 0 00-.76.25s-.16-.47-.44-.47a3.91 3.91 0 00-.76.13s.19-.26-.15-.57a1.28 1.28 0 00-.79-.32.91.91 0 00-.13-.53.74.74 0 00-.37-.32 1.82 1.82 0 00-.07-.5.45.45 0 00-.16-.25.33.33 0 00.13-.38 1.65 1.65 0 00-.19-.35.33.33 0 00.13-.34 5 5 0 00-.19-.72 1 1 0 00.6-.63 1.85 1.85 0 00.06-.76s.47 0 .63-.16a2.07 2.07 0 00.28-.53s.41.12.54-.16a3.3 3.3 0 00.69-.12 2 2 0 00.54-.39h0zM315.41 203.81v-.51" fill="none" stroke="#000" stroke-linecap="round" stroke-linejoin="round" stroke-width=".15"/><path d="M314.67 203.91l-.15-.55" fill="#fff"/><path d="M314.67 203.91l-.15-.55" fill="none" stroke="#000" stroke-linecap="round" stroke-linejoin="round" stroke-width=".15"/><path d="M314 204.2l-.33-.57" fill="#fff"/><path d="M314 204.2l-.33-.57" fill="none" stroke="#000" stroke-linecap="round" stroke-linejoin="round" stroke-width=".15"/><path d="M313.39 204.65l-.45-.45" fill="#fff"/><path d="M313.39 204.65l-.45-.45" fill="none" stroke="#000" stroke-linecap="round" stroke-linejoin="round" stroke-width=".15"/><path d="M312.93 205.24l-.65-.38" fill="#fff"/><path d="M312.93 205.24l-.65-.38" fill="none" stroke="#000" stroke-linecap="round" stroke-linejoin="round" stroke-width=".15"/><path d="M312.65 205.93l-.91-.25" fill="#fff"/><path d="M312.65 205.93l-.91-.25M312.55 206.67h-.75" fill="none" stroke="#000" stroke-linecap="round" stroke-linejoin="round" stroke-width=".15"/><path d="M312.65 207.41l-.83.22" fill="#fff"/><path d="M312.65 207.41l-.83.22" fill="none" stroke="#000" stroke-linecap="round" stroke-linejoin="round" stroke-width=".15"/><path d="M312.93 208.1l-.68.39" fill="#fff"/><path d="M312.93 208.1l-.68.39" fill="none" stroke="#000" stroke-linecap="round" stroke-linejoin="round" stroke-width=".15"/><path d="M313.39 208.69l-.54.54" fill="#fff"/><path d="M313.39 208.69l-.54.54" fill="none" stroke="#000" stroke-linecap="round" stroke-linejoin="round" stroke-width=".15"/><path d="M314 209.14l-.52.9" fill="#fff"/><path d="M314 209.14l-.52.9" fill="none" stroke="#000" stroke-linecap="round" stroke-linejoin="round" stroke-width=".15"/><path d="M314.67 209.43l-.19.7" fill="#fff"/><path d="M314.67 209.43l-.19.7M315.41 209.53v.6" fill="none" stroke="#000" stroke-linecap="round" stroke-linejoin="round" stroke-width=".15"/><path d="M316.15 209.43l.18.68" fill="#fff"/><path d="M316.15 209.43l.18.68" fill="none" stroke="#000" stroke-linecap="round" stroke-linejoin="round" stroke-width=".15"/><path d="M316.84 209.14l.28.48" fill="#fff"/><path d="M316.84 209.14l.28.48" fill="none" stroke="#000" stroke-linecap="round" stroke-linejoin="round" stroke-width=".15"/><path d="M317.43 208.69l.49.49" fill="#fff"/><path d="M317.43 208.69l.49.49" fill="none" stroke="#000" stroke-linecap="round" stroke-linejoin="round" stroke-width=".15"/><path d="M317.88 208.1l.62.35" fill="#fff"/><path d="M317.88 208.1l.62.35" fill="none" stroke="#000" stroke-linecap="round" stroke-linejoin="round" stroke-width=".15"/><path d="M318.17 207.41l.74.19" fill="#fff"/><path d="M318.17 207.41l.74.19M318.26 206.67h.5" fill="none" stroke="#000" stroke-linecap="round" stroke-linejoin="round" stroke-width=".15"/><path d="M318.17 205.93l.79-.22" fill="#fff"/><path d="M318.17 205.93l.79-.22" fill="none" stroke="#000" stroke-linecap="round" stroke-linejoin="round" stroke-width=".15"/><path d="M317.88 205.24l.79-.46" fill="#fff"/><path d="M317.88 205.24l.79-.46" fill="none" stroke="#000" stroke-linecap="round" stroke-linejoin="round" stroke-width=".15"/><path d="M317.43 204.65l.6-.6" fill="#fff"/><path d="M317.43 204.65l.6-.6" fill="none" stroke="#000" stroke-linecap="round" stroke-linejoin="round" stroke-width=".15"/><path d="M316.84 204.2l.41-.72" fill="#fff"/><path d="M316.84 204.2l.41-.72" fill="none" stroke="#000" stroke-linecap="round" stroke-linejoin="round" stroke-width=".15"/><path d="M316.15 203.91l.17-.64" fill="#fff"/><path d="M316.15 203.91l.17-.64" fill="none" stroke="#000" stroke-linecap="round" stroke-linejoin="round" stroke-width=".15"/><path d="M318.22 207a.49.49 0 00.18-.38.47.47 0 00-.18-.37.46.46 0 00.05-.36.45.45 0 00-.27-.31.48.48 0 000-.42.46.46 0 00-.3-.22.49.49 0 00-.53-.53.11.11 0 000-.05.49.49 0 00-.22-.29.47.47 0 00-.37 0 .51.51 0 00-.29-.23.52.52 0 00-.37.05.51.51 0 00-.75 0 .46.46 0 00-.41-.08.49.49 0 00-.29.22v.05h-.05a.5.5 0 00-.36.05.47.47 0 00-.23.34h-.05a.48.48 0 00-.34.14.47.47 0 00-.14.33.46.46 0 00-.3.23.49.49 0 000 .41.48.48 0 00-.26.31.47.47 0 00.07.4.49.49 0 00-.18.38.47.47 0 00.18.37.52.52 0 00-.08.41.65.65 0 01.3.72.47.47 0 00.34.23v.05a2.35 2.35 0 01.76.82.52.52 0 00.37.05.49.49 0 00.31.27.46.46 0 00.4-.07.52.52 0 00.38.17.47.47 0 00.37-.18.44.44 0 00.4.08.5.5 0 00.32-.26.48.48 0 00.37-.05.46.46 0 00.23-.34.48.48 0 00.39-.13.52.52 0 00.14-.35.46.46 0 00.3-.23.5.5 0 00.05-.36.48.48 0 00.23-.29.54.54 0 00-.05-.37z" fill="#0083a9"/><path d="M315.19 207l.09-.26-.22-.16h.27l.08-.25.08.25h.26l-.21.16.08.26-.21-.16-.22.16M315.17 205l.08-.25-.21-.16h.27l.08-.25.08.25h.26l-.21.16.08.25-.21-.16-.22.16M315.26 209l.08-.25-.22-.16h.27l.08-.25.08.25h.27l-.22.16.08.25-.21-.16-.21.16M313.41 205.91l.08-.25-.21-.16h.26l.08-.25.09.25h.29l-.21.16.08.25-.22-.15-.21.15M314.59 205.91l.08-.25-.22-.16h.27l.08-.25.08.25h.27l-.22.16.08.25-.21-.15-.21.15M315.76 205.91l.08-.25-.21-.16h.26l.08-.25.09.25h.26l-.21.16.08.25-.22-.15-.21.15M316.94 205.91l.08-.25-.22-.16h.27l.08-.25.08.25h.27l-.22.16.08.25-.21-.15-.21.15M313.41 208l.08-.25-.21-.16h.26l.08-.25.09.25h.29l-.21.16.08.25-.22-.16-.21.16M314.59 208l.08-.25-.22-.16h.27l.08-.25.08.25h.27l-.22.16.08.25-.21-.16-.21.16M315.76 208l.08-.25-.21-.16h.26l.08-.25.09.25h.26l-.21.16.08.25-.22-.16-.21.16M316.94 208l.08-.25-.22-.16h.27l.08-.25.08.25h.27l-.22.16.08.25-.21-.16-.21.16M316.43 207l.08-.25-.21-.16h.26l.08-.25.09.25h.27l-.21.16.08.25-.22-.16-.21.16M314 207l.09-.25-.22-.16h.27l.08-.25.08.25h.27l-.22.16.08.25-.21-.16-.22.16" fill="#fff"/><path d="M317.75 216.43l-.13-.52h0a8.05 8.05 0 01-.33-1.58 3.47 3.47 0 00.07-1 1.2 1.2 0 00-.81-1 5.19 5.19 0 00-1.48-.15c-.4 0-.41.22-.41.22l-.68.07a.92.92 0 00-.76.4c-.22.28.3.88.3.88a.34.34 0 010-.38 5 5 0 011.15.39 1.08 1.08 0 01.32.32c.17.24 0 .82 0 .82a6.05 6.05 0 00-1.26 1.13" fill="none" stroke="#000" stroke-linecap="round" stroke-linejoin="round" stroke-width=".15"/><path d="M315 212.89a.65.65 0 01.51-.1 2.12 2.12 0 011.1.5m-1.36-.47c0 .21-.06.55.32.63s.44-.28.47-.44-.24-.19-.41-.22a1 1 0 00-.38 0z" fill="none" stroke="#000" stroke-linecap="round" stroke-linejoin="round" stroke-width=".15"/><path d="M315.31 212.84s0 .3.11.36a.25.25 0 00.33 0 .57.57 0 00.11-.27l-.22-.1a.63.63 0 00-.23 0"/><path d="M317.47 215.14s.27.4.39.4a.28.28 0 00.19-.06s.05.11-.05.41-.18.41-.26.32a4.48 4.48 0 00-.18-.6 1.52 1.52 0 01-.09-.47z" fill="#c3a204" stroke="#000" stroke-linecap="round" stroke-linejoin="round" stroke-width=".15"/><path d="M317.82 216.35s.92-.3 1-.6 0-.74.19-.9a1.73 1.73 0 00.52-1.1c-.07-.83-1-.08-1.12-.5s.56-.74.8-1a5.9 5.9 0 011.37-1.1 9.14 9.14 0 011.72-.85c.52-.17 1.16-.32 1.27-.51a3.17 3.17 0 000-1.05s0 .11-.3.16a7.52 7.52 0 00-3.1 1 7.12 7.12 0 00-2.52 2.31.42.42 0 00.06.47c.12.11.65.54.73.65s.14.14.44.11.45 0 .3.28-.6.29-.85.77a1.71 1.71 0 00-.24 1 1.76 1.76 0 01-.23.93z" fill="#c3a204" stroke="#000" stroke-linecap="round" stroke-linejoin="round" stroke-width=".15"/><path d="M319 212.46a2.86 2.86 0 01.48 1.13s0-.11-.2-.25-.66.13-.85-.05 0-.43.13-.55l.42-.33v.05M322.33 209s-.06-.49-.26-.6-.05-.19-.05-.19 0 .22.53.26.93-.16 1 0-.06.29-.61.41-.59.08-.59.08z" fill="#c3a204" stroke="#000" stroke-linecap="round" stroke-linejoin="round" stroke-width=".15"/><path d="M322 208.09a4.44 4.44 0 01.85-.6c.41-.21 1.15-.6 1.27-.89s.35-.63 0-.75a.18.18 0 01.16.14c.05.14 0 .71.14 1.1s.35.43.33.65-.34.56-.75.85a4.91 4.91 0 00-.47.34v-.47s-.07-.16-.18-.11a3 3 0 01-.91 0c-.38 0-.53-.15-.42-.3z" fill="#c3a204" stroke="#000" stroke-linecap="round" stroke-linejoin="round" stroke-width=".15"/><path d="M323.94 206.79c.76-.7.2-.94.2-.94a.93.93 0 00-.64.11c-.43.19-.27.52-.06.5a1.09 1.09 0 00.42-.17l.08.5" fill="#c3a204" stroke="#000" stroke-linecap="round" stroke-linejoin="round" stroke-width=".15"/><path d="M323.21 206.3a2.23 2.23 0 01.35.73 1.55 1.55 0 00.38-.24l-.08-.5s-.49.35-.65 0z" fill="#c3a204" stroke="#000" stroke-linecap="round" stroke-linejoin="round" stroke-width=".15"/><path d="M315.69 213.09v-.1h-.1v.1h.1" fill="#fff"/><path d="M313.18 213s-.32-.06-.36.43a8.32 8.32 0 01-.11 1c-.08.36-.31.66-.44.57a.7.7 0 00.4 0c.24 0 .37-.11.41-.2a4.27 4.27 0 00.3-.78 3.7 3.7 0 01.08-.39s-.23-.32-.27-.4V213" fill="#c3a204" stroke="#000" stroke-linecap="round" stroke-linejoin="round" stroke-width=".15"/><path d="M312.26 213.17c-.07.14-.73-.09-.83-.12a.11.11 0 00-.11 0s.05-.11.37-.25l.33-.14s.3.35.24.46" fill="#fff"/><path d="M312.26 213.17c-.07.14-.73-.09-.83-.12a.11.11 0 00-.11 0s.05-.11.37-.25l.33-.14s.3.35.24.46" fill="#c3a204" stroke="#000" stroke-linecap="round" stroke-linejoin="round" stroke-width=".15"/><path d="M312.26 213.17c.07-.13-.48-.8-.86-1.14a9 9 0 00-1.93-1.24 12.82 12.82 0 00-1.94-.6c-.19 0-.3-.13-.21-.46a7.09 7.09 0 00.05-.75c0-.1.06-.2.35-.3 0 0-.27.14 0 .18a10.44 10.44 0 012 .47 9 9 0 011.78 1 11.73 11.73 0 011.28 1.14 4 4 0 01.52.74s.06.1-.15.22a2.32 2.32 0 00-.49.43c-.14.12-.4.3-.4.3z" fill="#c3a204" stroke="#000" stroke-linecap="round" stroke-linejoin="round" stroke-width=".15"/><path d="M306.43 206.45a.81.81 0 00.23.52 2.46 2.46 0 001.14.57c.3.08.94.33 1 .6s-.54.4-.95.5l-.16.06s-.21 0-.24.1a1.23 1.23 0 01-.08.18 1.8 1.8 0 01-1-.47c-.39-.41-.47-.57-.34-.76a2.27 2.27 0 00.24-.38 3.44 3.44 0 00.17-.92zM312.25 214.86a.11.11 0 00.13.07c.4-.54.34-.71.34-.71l-.37-.39c-.14-.15-.39-.49-.5-.62s-.32-.23-.49-.16h0a.66.66 0 000 .55 1.81 1.81 0 00.67.89.57.57 0 01.25.38v-.06" fill="#c3a204" stroke="#000" stroke-linecap="round" stroke-linejoin="round" stroke-width=".15"/><path d="M308.8 208.14s-.3.75-.19.86-.67-.08-.75-.11-.33-.1-.27-.14a4.49 4.49 0 01.52-.18c.25-.1.69-.2.69-.43zM306.43 206.45s0-.53.23-.58.74.07.81.42 0 .59-.14.64a.37.37 0 00-.29.31 1 1 0 01-.42-.33 1.68 1.68 0 01-.19-.46z" fill="#c3a204" stroke="#000" stroke-linecap="round" stroke-linejoin="round" stroke-width=".15"/><path d="M306.75 207a3.42 3.42 0 010-.72 1.17 1.17 0 00.21.45.73.73 0 00.31.18s-.24.08-.23.3a.75.75 0 01-.29-.21z" fill="none" stroke="#000" stroke-linecap="round" stroke-linejoin="round" stroke-width=".15"/><path d="M306.74 206.34s.24-.11.33 0a.22.22 0 01.06.22s-.27-.07-.23.14a1.85 1.85 0 01-.16-.34z" fill="none" stroke="#000" stroke-linecap="round" stroke-linejoin="round" stroke-width=".15"/><path d="M313.77 216a7.46 7.46 0 00-.83 1.07h5.14l-.33-.64-.09.44-.35-.09-.31.22-.36-.3-.51.3-.36-.26-.33.23-.17-.31-.48.14-.2-.25-.35.11-.12-.3s-.27.09-.33 0 0-.38 0-.38zM318.92 219.28s.42.86.67 1.35.22 1.23 0 1.35-.48 0-.7-.64v-2.06" fill="#ba8748" stroke="#000" stroke-linecap="round" stroke-linejoin="round" stroke-width=".15"/><path d="M319.78 219.39a4.75 4.75 0 01.68 1.05 1.58 1.58 0 010 1.23c-.08.06-.6-.14-.94-.93a5.66 5.66 0 01-.43-1.38l.52-.27.19.3z" fill="#ba8748" stroke="#000" stroke-linecap="round" stroke-linejoin="round" stroke-width=".15"/><path d="M320.33 219.15s.4.69.63 1 .55 1.15.4 1.25-.58-.24-1-.95a9.9 9.9 0 01-.63-1.15l.63-.17" fill="#ba8748" stroke="#000" stroke-linecap="round" stroke-linejoin="round" stroke-width=".15"/><path d="M320.93 219a6.36 6.36 0 01.77.66c.26.29.66 1.23.49 1.39s-.83-.35-1.07-.6a11.81 11.81 0 01-.8-1.23c-.08-.12.35-.45.61-.22z" fill="#ba8748" stroke="#000" stroke-linecap="round" stroke-linejoin="round" stroke-width=".15"/><path d="M321.63 218.68a4.27 4.27 0 01.92.72c.27.33.48.88.37 1s-.89-.26-1.14-.53-.83-1-.83-1l.39-.48.29.21" fill="#ba8748" stroke="#000" stroke-linecap="round" stroke-linejoin="round" stroke-width=".15"/><path d="M321.56 217.8a14.18 14.18 0 011.36.89c.34.3.63.78.53.93s-.56.11-.87-.07a11.53 11.53 0 01-1.05-1v-.78" fill="#ba8748" stroke="#000" stroke-linecap="round" stroke-linejoin="round" stroke-width=".15"/><path d="M322.16 217.65a3.16 3.16 0 011.13.27c.35.22.84.74.74.88a1.42 1.42 0 01-1.3-.06 8 8 0 01-.89-.68l.26-.42h.06" fill="#ba8748" stroke="#000" stroke-linecap="round" stroke-linejoin="round" stroke-width=".15"/><path d="M322.41 217.48a4.72 4.72 0 011.15-.14c.47 0 1 .38 1 .6s-.44.27-1 .17a4.81 4.81 0 01-1.39-.46c-.08-.07.14-.25.25-.17z" fill="#ba8748" stroke="#000" stroke-linecap="round" stroke-linejoin="round" stroke-width=".15"/><path d="M322.54 217a9.49 9.49 0 011.84-.36c.28.06.52.22.49.37s-.46.45-1 .46-1.44.14-1.63 0 .11-.36.29-.42z" fill="#ba8748" stroke="#000" stroke-linecap="round" stroke-linejoin="round" stroke-width=".15"/><path d="M322.6 216.38s1.06-.41 1.48-.52 1.1 0 1.1.2-.5.43-.77.51a5.7 5.7 0 01-1.87.41c-.41-.11-.08-.51.06-.6z" fill="#ba8748" stroke="#000" stroke-linecap="round" stroke-linejoin="round" stroke-width=".15"/><path d="M322.29 215.64a15.82 15.82 0 011.79-.6 1.9 1.9 0 011.24.11c.05.08-.31.46-1.05.71s-1.53.42-1.53.42l-.45-.64" fill="#ba8748" stroke="#000" stroke-linecap="round" stroke-linejoin="round" stroke-width=".15"/><path d="M322.33 214.9s.88-.36 1.39-.53 1.42-.39 1.67-.15-.24.5-1.18.85a13.91 13.91 0 01-1.37.45l-.51-.62" fill="#ba8748" stroke="#000" stroke-linecap="round" stroke-linejoin="round" stroke-width=".15"/><path d="M322.08 214.17l1.64-.7c.53-.22 1.51-.26 1.62 0s-.72.53-1.13.7a9.94 9.94 0 01-1.81.72c-.13-.06-.51-.45-.32-.69zM323.07 210.34a11.5 11.5 0 011.89-1.28 9.16 9.16 0 012.8-.9c.1.16-.88 1.19-2.14 2a19.11 19.11 0 01-2.91 1.47l.36-1.29" fill="#ba8748" stroke="#000" stroke-linecap="round" stroke-linejoin="round" stroke-width=".15"/><path d="M323.58 211.33a5.15 5.15 0 011.46-1.12c.73-.3 1.75-.58 1.86-.39s-.87.93-1.51 1.25a11.7 11.7 0 01-2 1.05c-.33 0 .22-.79.22-.79z" fill="#ba8748" stroke="#000" stroke-linecap="round" stroke-linejoin="round" stroke-width=".15"/><path d="M322.37 212.53s2.15-1.17 2.45-1.28 1.21-.43 1.35-.19-.7.69-1.14.91a23 23 0 01-2.53 1.17c-.35.05-.13-.61-.13-.61z" fill="#ba8748" stroke="#000" stroke-linecap="round" stroke-linejoin="round" stroke-width=".15"/><path d="M322.16 213.27a19.3 19.3 0 012-.79c.29-.09 1-.22 1.1 0s-.11.45-.69.77a6 6 0 01-1.61.57c-.51.1-.77-.51-.77-.51zM318.93 218.41v.86s.23.61.42.55.15-.63.1-.8l-.2-.84-.3.23" fill="#ba8748" stroke="#000" stroke-linecap="round" stroke-linejoin="round" stroke-width=".15"/><path d="M319.23 218.18a1.65 1.65 0 00.14.78c.19.37.63.9.76.84s.13-.76-.08-1.1-.4-.69-.4-.69l-.42.17" fill="#ba8748" stroke="#000" stroke-linecap="round" stroke-linejoin="round" stroke-width=".15"/><path d="M319.72 218.06a1.41 1.41 0 00.16.73c.17.23.72.76.83.69s0-.86-.09-1l-.6-.66-.3.2" fill="#ba8748" stroke="#000" stroke-linecap="round" stroke-linejoin="round" stroke-width=".15"/><path d="M320.07 217.88a4.22 4.22 0 00.55.85c.16.09.55.4.67.32s.08-.29-.17-.62-.69-.89-.85-.89-.2.34-.2.34z" fill="#ba8748" stroke="#000" stroke-linecap="round" stroke-linejoin="round" stroke-width=".15"/><path d="M320.43 217.61a3.89 3.89 0 00.6.77c.28.25.75.35.81.27s-.2-.6-.37-.77-.77-.62-.77-.62l-.27.35" fill="#ba8748" stroke="#000" stroke-linecap="round" stroke-linejoin="round" stroke-width=".15"/><path d="M320.7 217.26a3 3 0 00.59.6c.37.27.9.41 1 .28s-.25-.58-.53-.86a2.54 2.54 0 00-.76-.48l-.25.42h0" fill="#ba8748" stroke="#000" stroke-linecap="round" stroke-linejoin="round" stroke-width=".15"/><path d="M320.87 217a4.53 4.53 0 00.85.66 1.16 1.16 0 00.82 0 1.81 1.81 0 00-.63-.74 4.26 4.26 0 00-.79-.31l-.25.38" fill="#ba8748" stroke="#000" stroke-linecap="round" stroke-linejoin="round" stroke-width=".15"/><path d="M321.26 216.54a4 4 0 00.66.47c.32.16.89.19.92.11s-.41-.61-.63-.71l-.22-.09-.68-.08v.25h0" fill="#ba8748" stroke="#000" stroke-linecap="round" stroke-linejoin="round" stroke-width=".15"/><path d="M321.39 216.36a8.11 8.11 0 00.93.18c.19 0 .63 0 .64-.18a.73.73 0 00-.66-.55 10.48 10.48 0 00-1.05 0l.14.57" fill="#ba8748" stroke="#000" stroke-linecap="round" stroke-linejoin="round" stroke-width=".15"/><path d="M321.44 215.83h1.13c.25 0 .55-.2.53-.33s-.36-.39-.89-.36-1.06.09-1.06.09l.29.6" fill="#ba8748" stroke="#000" stroke-linecap="round" stroke-linejoin="round" stroke-width=".15"/><path d="M321.29 215.25a12.05 12.05 0 001.28 0c.16 0 .55-.26.52-.42s-.51-.28-.9-.3a3.91 3.91 0 00-.9.1l-.23.37.23.29M321.29 214.59a7.72 7.72 0 001.07-.26c.38-.14.68-.38.68-.53s-.64-.28-1-.19-1.04.39-1.04.39l.28.56" fill="#ba8748" stroke="#000" stroke-linecap="round" stroke-linejoin="round" stroke-width=".15"/><path d="M321.06 213.94s1.12-.27 1.26-.35.83-.4.83-.53-.38-.27-1-.13a8.38 8.38 0 00-1.14.33l.07.68M321.33 213.11a9.76 9.76 0 001.54-.52c.38-.22 1.18-1.19 1.12-1.34s-.65-.07-.92.06-1.49 1.09-1.49 1.09l-.25.71" fill="#ba8748" stroke="#000" stroke-linecap="round" stroke-linejoin="round" stroke-width=".15"/><path d="M322.63 210.94a4.07 4.07 0 01.86-.54c.27-.09.92-.24 1-.09s-.46.67-1 1a8.65 8.65 0 01-1.52.77c-.31.09.68-1.13.68-1.13z" fill="#ba8748" stroke="#000" stroke-linecap="round" stroke-linejoin="round" stroke-width=".15"/><path d="M318.92 217.65s.31-.11.41 0a2.37 2.37 0 01.42-.49c.16-.09.69-.6.84-.66s.07-.53 0-.63a2.21 2.21 0 01-.33-.79c0-.22-.05-.41-.05-.41a.39.39 0 01-.23-.26 2.4 2.4 0 01.12-1 14.9 14.9 0 011.23-1.48 15.23 15.23 0 011.46-1.39c.11 0 .6-.47.27.14a7.62 7.62 0 01-1.24 1.7s-.17.63-.32.7l-.31.15a.48.48 0 01.14.43.55.55 0 01-.17.39s.37.16.31.47a1.24 1.24 0 01-.19.49.51.51 0 01.18.35v.36a1.18 1.18 0 01.14.64c-.06.27-.31.66-.61.66 0 0 .06.38-.16.54a.52.52 0 01-.41.11s0 .33-.14.39-.5.16-.57.08a1.14 1.14 0 01-.31.24 2.68 2.68 0 01-.43 0v-.76h0z" fill="#ba8748" stroke="#000" stroke-linecap="round" stroke-linejoin="round" stroke-width=".15"/><path d="M324 224.31a.47.47 0 01.42-.36.49.49 0 01.44.27c.09.11.21.28.32.32s.29.31.21.46-.34.36-.49.31-.35-.29-.54-.29-.3-.1-.42-.29.06-.42.06-.42zM323.25 225.65s.2-.3.42-.16.57.25.65.38.22.36.17.46a.45.45 0 01-.61.16 1.65 1.65 0 01-.64-.34.33.33 0 010-.5z" fill="#c3a204" stroke="#000" stroke-linecap="round" stroke-linejoin="round" stroke-width=".15"/><path d="M324 224.92a1.33 1.33 0 01.61.23.5.5 0 01.23.63c-.08.17-.61.12-.67.08a3.21 3.21 0 01-.46-.46.28.28 0 010-.4.57.57 0 01.25-.08z" fill="#c3a204" stroke="#000" stroke-linecap="round" stroke-linejoin="round" stroke-width=".15"/><path d="M323.55 224.79c-.17 0-.19-.42-.19-.42s.11.32.34.32a.18.18 0 00.17-.15" fill="none" stroke="#000" stroke-linecap="round" stroke-linejoin="round" stroke-width=".15"/><path d="M323.74 224.19a.38.38 0 01.5-.06c.29.17.49.37.35.51s-.21-.06-.44-.17a1.33 1.33 0 00-.47-.1v-.22M323.49 224.94s.4 0 .52.12.28.23.17.34a.39.39 0 01-.46 0c-.09-.11-.3-.44-.3-.44M323 225.55a2.47 2.47 0 01.69.23c.14.11.25.19.15.3s-.19.1-.48-.08a.83.83 0 01-.36-.45"/><path d="M307.69 224.8a.47.47 0 00-.42-.36.49.49 0 00-.44.27 1.06 1.06 0 01-.31.32c-.11 0-.3.31-.21.46s.33.36.48.31.36-.29.54-.29.3-.1.42-.29-.06-.42-.06-.42zM308.43 226.13s-.2-.29-.41-.16-.58.26-.66.39-.22.37-.16.46a.45.45 0 00.6.16 1.65 1.65 0 00.64-.34.35.35 0 000-.51z" fill="#c3a204" stroke="#000" stroke-linecap="round" stroke-linejoin="round" stroke-width=".15"/><path d="M307.67 225.41a1.33 1.33 0 00-.61.23.5.5 0 00-.23.62c.08.17.61.13.67.09a2.42 2.42 0 00.46-.46.28.28 0 000-.4.57.57 0 00-.25-.08z" fill="#c3a204" stroke="#000" stroke-linecap="round" stroke-linejoin="round" stroke-width=".15"/><path d="M308.13 225.28c.17 0 .19-.42.19-.42s-.11.32-.34.32a.17.17 0 01-.16-.15" fill="none" stroke="#000" stroke-linecap="round" stroke-linejoin="round" stroke-width=".15"/><path d="M307.94 224.68a.38.38 0 00-.5-.06c-.29.17-.48.37-.35.5s.21-.05.44-.16a1.33 1.33 0 01.47-.1v-.22M308.2 225.43s-.4 0-.53.12-.27.23-.17.34a.39.39 0 00.46 0c.09-.11.3-.44.3-.44M308.66 226a2.74 2.74 0 00-.69.22c-.14.12-.25.2-.15.31s.19.1.48-.09a.79.79 0 00.36-.44"/><path d="M308.23 225.15a12.27 12.27 0 011.07 1.19 5.54 5.54 0 01.44 1.36c.16.44.16.88.41 1 0 0-1.16-.09-1.07-.69a3.72 3.72 0 00.19-.88c-.06-.66-.76-1.23-1.52-1.88-.15-.14.48-.07.48-.07zM302.75 224a1.13 1.13 0 00.67-.12 1.77 1.77 0 01.82-.36 1.94 1.94 0 011.05.21s-.21.59-.61.65a2.49 2.49 0 01-1.19 0c-.3-.13-.44-.36-.74-.36z" fill="#439639" stroke="#000" stroke-width=".15"/><path d="M303.19 225.32s.7-.38.72-.49v-.1s.08-.34.75-.61a2.35 2.35 0 011.58-.06 2.69 2.69 0 01-1 .9 9.11 9.11 0 01-1.34.27 2.72 2.72 0 01-.72.09zM304.6 226.74a3.39 3.39 0 00.17-.65 1 1 0 01.16-.69 1.38 1.38 0 01.95-.59 1.28 1.28 0 00.54-.08l-.48.88a2.79 2.79 0 01-.84.78c-.14.08-.5.35-.5.35zM304.32 222.19s-.54-.65-1-.63-1.45-.08-1.45-.08a2.32 2.32 0 01.8.4 1.45 1.45 0 00.61.48 5.2 5.2 0 001-.17z" fill="#439639" stroke="#000" stroke-width=".15"/><path d="M302.21 222.77a2.38 2.38 0 00.5-.22c.08-.09.29-.4.48-.44a2 2 0 011.09.16 3.49 3.49 0 01.74.67 2.05 2.05 0 00-.67.2 1.52 1.52 0 01-1.2-.07 1.23 1.23 0 00-.94-.3zM304.77 221.67a.27.27 0 10-.29-.27.28.28 0 00.29.27z" fill="#439639" stroke="#000" stroke-width=".15"/><path d="M303.93 222.56a.27.27 0 10-.29-.27.28.28 0 00.29.27zM303.84 223.61a.27.27 0 10-.29-.27.28.28 0 00.29.27zM304.66 223.57a.28.28 0 00.29-.27.29.29 0 00-.58 0 .28.28 0 00.29.27zM307.12 224.41a.28.28 0 00.29-.27.29.29 0 00-.58 0 .28.28 0 00.29.27zM305.52 224.68a.27.27 0 10-.29-.27.28.28 0 00.29.27zM303.28 217l-.11.86c0 .32-.29.49-.1.93s-.05.6.54 1c0 0 .48-.72.36-1s-.08-.82-.32-.86-.29-.55-.37-1z" fill="#439639" stroke="#000" stroke-width=".15"/><path d="M304 220a4.71 4.71 0 01.13-1.55c.18-.23.44-.36.5-.55a1.59 1.59 0 01.29-.44 2.75 2.75 0 01.09 1.12 2.81 2.81 0 01-1 1.42zM301.7 218.93s.46.3.63.45.63.1.95.33a1.6 1.6 0 01.42 1.11s-.69.14-1-.08a2.44 2.44 0 01-.61-1c-.08-.14-.42-.8-.42-.8zM304.22 221.45s-.25-.82 0-1.15.73-.67.79-.82.3-.52.3-.52.27 1.13 0 1.51-.73.38-.88.65a1.17 1.17 0 01-.23.33zM306.05 220.59a5.06 5.06 0 01-.47.78c-.21.25-.31.31-.31.59a3.51 3.51 0 00.25 1.23 1.31 1.31 0 01.17.49 7.08 7.08 0 00.5-1.51 9.89 9.89 0 00-.14-1.58zM306.78 221.06s.4 0 .46.39-.06.72 0 .87a1.91 1.91 0 010 1.15 2.77 2.77 0 01-.5.54 4.5 4.5 0 01-.42-1.17c0-.38.54-1.11.56-1.26s.17-.29-.06-.52z" fill="#439639" stroke="#000" stroke-width=".15"/><path d="M308.38 221.7s-.17.66-.19.8a1.19 1.19 0 01-.3.72 2.08 2.08 0 01-.9.35s-.25-1-.06-1.11.35-.06.61-.19a8 8 0 00.84-.57zM305.52 227.43a3.4 3.4 0 00-.1-.73c-.09-.21-.25-.71-.11-.92s.48-.8.88-.93.07-.06.07-.06a3.56 3.56 0 01.08 1.34c-.12.48-.82 1-.82 1.3zM303.61 219.71a4.49 4.49 0 01.15.95 2 2 0 00.36 1.13.36.36 0 01.16.23s-.14 0 .06.25.45.32.61.74a1.72 1.72 0 00.34.63 7.17 7.17 0 001.47 1.09l.17-.15s-.34-.23-.95-.71-.86-.8-.92-1.1-.53-.6-.55-.81a.54.54 0 01.05-.32s-.07.13-.13.13-.21-.32-.21-.32-.13-.65-.15-.82a4.06 4.06 0 01-.07-.63 7.06 7.06 0 000 .91 7.93 7.93 0 00-.36-1.16z" fill="#439639" stroke="#000" stroke-width=".15"/><path d="M305.65 224.11a.27.27 0 00.29-.26.29.29 0 00-.58 0 .27.27 0 00.29.26zM306.3 224.85a.27.27 0 10-.29-.27.28.28 0 00.29.27zM306.61 224a.28.28 0 00.29-.27.29.29 0 00-.58 0 .28.28 0 00.29.27zM306.07 223.57a.28.28 0 00.29-.27.29.29 0 00-.58 0 .28.28 0 00.29.27zM305.12 222.64a.27.27 0 10-.29-.26.28.28 0 00.29.26zM303.63 221.71a.34.34 0 100-.68.34.34 0 000 .68zM304 220.21a.27.27 0 10-.29-.27.28.28 0 00.29.27z" fill="#439639" stroke="#000" stroke-width=".15"/><path d="M306 223.57a1.45 1.45 0 00.26.65c.21.26.4.24.4.24a1 1 0 01-.15-.51" fill="none" stroke="#000" stroke-width=".15"/><path d="M322.08 226.18l.46.08.49-.46-1.56 1.62-.52-.11m.86-1l.5.09-.17.18-.54-.06m-.19.17l.61.13.29.4m-1.09-.34l.63.15-.17.19-.61-.13m.66.84l-.24-.48-.16.17m.35-.4l.27.54m-.1-.73l.29.4m0-.85l.28.43m.16-.19l-.21-.38.24-.17.16.42m-.9 1.28h.29l.17.38m.13-.15l-.11-.42h-.29m-.06-.25h.5l.13.4m-.19-.65h.25l.1.38m-.25-.67h.36l.08.33m-.19-.58h.26l.14.31m-.31-.69l.27-.32m.21.07l-.42.52m.55-.4l-.32.47m-.67 2l.59-.11.12-.27-.58.13m.12-.32h.57v-.21h-.48m.08-.23l.53-.06.1-.25h-.42m.44-.21l.27-.82m-.62.86l.37-.94m.38.23l-.82 2.26-.06.28m.32-.34l.73-2.2v.25l-.59 2 .26.32m.06-.44l-.17-.25v-.27l.21.25m.06-.32l-.16-.23.06-.25.19.27m.06-.31l-.17-.26v-.2l.27.16m-2.14.59l-.17.25m1.45.67l-.06.23" fill="none" stroke="#000" stroke-linecap="round" stroke-linejoin="round" stroke-width=".21"/><path d="M318.91 219.67v4.51a.93.93 0 01-1 .8H316s-.63.06-.63.63c0-.48-.62-.63-.62-.63H313a1 1 0 01-1.07-.8v-4.51z" fill="#fff" stroke="#000" stroke-linecap="round" stroke-linejoin="round" stroke-width=".19"/><path d="M312.42 219.73v5.13a.62.62 0 00.25.1h.29v-5.26M313.5 225h.5v-5.25h-.54zM315.12 219.73v5.41a2 2 0 00-.31-.14 1 1 0 00-.23 0v-5.25M318.33 219.73v5.13a.62.62 0 01-.25.1h-.29v-5.26M316.71 225h.54v-5.25h-.54z" fill="#ab0635"/><path d="M314.86 213.83c.17.09.37.3.5.06s-.27-.34-.41-.49-.25-.11-.2-.33c.14-.67-.19-.69-.19-.69h.11l-.68.08a.92.92 0 00-.76.4c-.22.28.3.88.3.88a.33.33 0 010-.38 5 5 0 011.15.39h.06l.12.06" fill="#c3a204" stroke="#000" stroke-width=".15"/><path d="M315.63 219.73v5.41a2 2 0 01.31-.14 1 1 0 01.23 0v-5.25" fill="#ab0635"/><path d="M311.61 217.06a.44.44 0 01.24.36v2.31h7.08v-2.31a.44.44 0 01.24-.36h-7.56" fill="#004b8d" stroke="#000" stroke-linecap="round" stroke-linejoin="round" stroke-width=".13"/><path d="M314 213.25s.16 0 .08.45-.44.54-.44 1.5a1.54 1.54 0 00.18.76l.61-.64a.39.39 0 01-.08-.29c0-.21.33-.79.35-1s.06-.51 0-.57l-.35-.11a1.35 1.35 0 00-.35-.06z" fill="#c3a204" stroke="#000" stroke-linecap="round" stroke-linejoin="round" stroke-width=".15"/><path d="M313.49 213.33a.9.9 0 01.83 0 1.22 1.22 0 01.82.5" fill="none" stroke="#000" stroke-linecap="round" stroke-linejoin="round" stroke-width=".15"/><path d="M314.12 212.7s.44 0 .36.2-.11.06-.16 0" fill="none" stroke="#000" stroke-linecap="round" stroke-width=".15"/><path d="M300 88.52l2.84 8.73H312l-7.42 5.4 2.83 8.73L300 106l-7.43 5.4 2.84-8.73-7.41-5.42h9.17l2.83-8.73zM328.85 92.32l.48 9.17 8.87 2.37-8.57 3.29.48 9.17-5.78-7.14-8.56 3.29 5-7.69-5.77-7.14 8.86 2.38 5-7.7zM355.74 103.46l-1.91 9 7.95 4.58-9.13 1-1.91 9-3.74-8.46-9.13 1 6.82-6.14L341 105l7.95 4.59 6.82-6.14zM378.83 121.17l-4.17 8.18 6.49 6.49-9.07-1.43-4.16 8.17-1.44-9.06-9.06-1.44 8.17-4.16-1.43-9.07 6.49 6.49 8.18-4.17zM407.68 171.15l-7.7 5 2.38 8.86-7.14-5.77-7.69 5 3.29-8.56-7.14-5.78 9.17.48 3.29-8.57 2.37 8.87 9.17.48zM411.48 200l-8.73 2.84V212l-5.4-7.42-8.73 2.83L394 200l-5.4-7.42 8.73 2.83 5.4-7.42v9.17l8.73 2.84zM407.68 228.85l-9.17.48-2.37 8.87-3.29-8.57-9.17.48 7.14-5.78-3.29-8.56 7.69 5 7.14-5.77-2.36 8.85 7.7 5zM396.54 144.26l-6.14 6.82L395 159l-8.38-3.73-6.15 6.82 1-9.13-8.47-3.7 9-1.91 1-9.13 4.58 7.95 9-1.91zM396.54 255.74l-9-1.91-4.54 7.95-1-9.13-9-1.91 8.38-3.73-1-9.13 6.15 6.82L395 241l-4.59 7.95 6.14 6.82zM378.83 278.83l-8.18-4.17-6.49 6.49 1.43-9.07-8.17-4.16 9.06-1.44 1.44-9.06 4.16 8.17 9.07-1.43-6.49 6.49 4.17 8.18zM355.74 296.54l-6.82-6.14L341 295l3.73-8.38-6.82-6.15 9.13 1 3.73-8.38 1.91 9 9.13 1-7.95 4.58 1.91 9zM328.85 307.68l-5-7.7-8.85 2.38 5.77-7.14-5-7.69 8.56 3.29 5.78-7.14-.48 9.17 8.57 3.29-8.87 2.37-.48 9.17zM271.15 307.68l-.48-9.17-8.87-2.37 8.57-3.29-.48-9.17 5.78 7.14 8.56-3.29-5 7.69 5.77 7.14-8.85-2.36-5 7.7zM244.26 296.54l1.91-9-7.95-4.54 9.13-1 1.91-9 3.73 8.38 9.13-1-6.82 6.15L259 295l-7.95-4.59-6.82 6.14zM221.17 278.83l4.17-8.18-6.49-6.49 9.07 1.43 4.16-8.17 1.44 9.06 9.06 1.44-8.17 4.16 1.43 9.07-6.49-6.49-8.18 4.17zM300 311.48l-2.84-8.73H288l7.42-5.4-2.83-8.72L300 294l7.43-5.39-2.84 8.72 7.42 5.4h-9.17l-2.84 8.75zM203.46 255.74l6.14-6.82L205 241l8.38 3.73 6.15-6.82-1 9.13 8.38 3.73-9 1.91-1 9.13-4.58-7.95-9 1.91zM192.32 228.85l7.7-5-2.38-8.85 7.14 5.77 7.69-5-3.29 8.56 7.14 5.78-9.17-.48-3.29 8.57-2.37-8.87-9.17-.48zM188.52 200l8.73-2.84V188l5.4 7.42 8.72-2.83L206 200l5.39 7.43-8.72-2.84-5.4 7.42v-9.17l-8.75-2.84zM192.32 171.15l9.17-.48 2.37-8.87 3.29 8.57 9.17-.48-7.14 5.78 3.29 8.56-7.69-5-7.14 5.77 2.38-8.86-7.7-5zM221.17 121.17l8.18 4.17 6.49-6.49-1.43 9.07 8.17 4.16-9.06 1.44-1.44 9.06-4.16-8.17-9.07 1.43 6.49-6.49-4.17-8.18zM244.26 103.46l6.82 6.14L259 105l-3.73 8.38 6.82 6.15-9.13-1-3.7 8.47-1.91-9-9.13-1 7.95-4.58-1.91-9zM271.15 92.32l5 7.7 8.85-2.38-5.77 7.14 5 7.69-8.56-3.29-5.78 7.14.48-9.17-8.57-3.29 8.87-2.37.48-9.17zM203.46 144.26l9 1.91 4.58-7.95 1 9.13 9 1.91-8.46 3.74 1 9.13-6.15-6.82L205 159l4.59-7.95-6.14-6.82z" fill="#fff" fill-rule="evenodd"/></svg>