<svg xmlns="http://www.w3.org/2000/svg" width="600.02" height="400"><path d="M0 0h600.25v400H0z" fill="#ef3340" fill-rule="evenodd"/><path d="M18.18 18.18h563.89v363.64H18.18z" fill="#00205b" fill-rule="evenodd"/><path d="M300.22 92.47s-65.89 49-65.89 106.83 65.89 108.23 65.89 108.23 65.47-46.25 65.47-108.23-65.47-106.83-65.47-106.83z" fill="#ef3340" fill-rule="evenodd"/><path d="M300.2 104.33s-58.62 43.67-58.62 95.05 58.62 96.29 58.62 96.29 58.24-41.15 58.24-96.29-58.24-95-58.24-95z" fill="#0072ce" fill-rule="evenodd"/><path d="M355.87 219.58a10.23 10.23 0 01-2.15 1.1 25.57 25.57 0 01-3.19.95A68.16 68.16 0 01342 223c-3.21.33-6.73.55-10.36.69s-7.38.21-11.06.22c-7.35 0-14.4-.18-19.61-.39s-8.59-.4-8.59-.4l-3 7.68 62.89.08a96.48 96.48 0 003.59-11.26z" fill="#382e2c" fill-rule="evenodd"/><path d="M352.28 230.84l-104-.13c15.4 37 51.88 65 51.88 65s37.14-26.25 52.12-64.87z" fill="#00205b" fill-rule="evenodd"/><path d="M259.38 251.31a17.87 17.87 0 017.9 2c4.38 2.29 6.91 2.28 11.63 2.35 4.93.08 8.8 3.7 14.13 3.86 9.82.27 13.95 5.15 6.32 5.14-3.61 0-11.34-2.42-15.08-1.91-5.68.57-9 1-13.17 4.35a172.69 172.69 0 01-11.73-15.79zm19.43 24.48c2.44-1.67 4.11-3 6.48-3 4.59-.14 6.15-3 11.46-3 6 1.11 14.21-.72 19-1.78 8.49-2 4.46-7.9-.68-10.06-4.16-1.78-11.95-.09-16.78-1.85-3.66-1.43-.64-3.71 1.32-4.19s4.12.29 6.59.69a63.23 63.23 0 0013.8-.6c8-1.23 7.67-3.58 11.54-3.63a12.31 12.31 0 006.89-2.34c2.26-1.51 4.61-4.6 7.35-4.48l1.61.07c-16.89 32.65-47.22 54.09-47.22 54.09a196.07 196.07 0 01-21.36-19.92z" fill="#fce300" fill-rule="evenodd"/><path d="M317.63 251.87c1.05 4 2.16 5.43 6.42 6.47s10.63-3 6.65-7c-3.79-3.69-7.78-4.63-11.18-8-5.26-5.22-12.49-16-15.92-26.21-3.76-11.15-3.1-42.55-2.93-58.45 0-.19.45-.3.5-.37.25-.36.48.11.1-2.22-.1-.6-.57-1.22-.57-1.82 0-1.08-3.72 1.17-4.71 3.1-.22.44.72 1.69.72 1.94.12 15.26-1.52 45.38 2.54 59 2.5 8.44 7.08 15 11.22 21 2.53 3.92 6.08 8.09 7.16 12.56z" fill="#382e2c" fill-rule="evenodd"/><path d="M271.18 207.2l-.42-.06a8.07 8.07 0 01-3.69-1.46 7.32 7.32 0 01-2.72-4.9 14.33 14.33 0 010-2.7 8.67 8.67 0 011.72-4.12 7 7 0 011-1 6.91 6.91 0 012.57-1.19 8.13 8.13 0 011.93-.25 8 8 0 012.86.38 5.32 5.32 0 012.7 1.84 7.25 7.25 0 011.07 2.42.6.6 0 01-.37.68c-.09 0-.54.17-1 .3-.92.24-1.05.25-1.26.08s-.18-.21-.3-.58a7.37 7.37 0 00-.31-.71 1.93 1.93 0 00-.48-.7 2 2 0 00-.69-.48 4.74 4.74 0 00-2.68-.39 4.55 4.55 0 00-2 .77 5.31 5.31 0 00-1.68 4.49c.08 2.68 1.22 4.16 3.57 4.63a6.79 6.79 0 001.91 0 7.72 7.72 0 002.31-.9l.21-.13v-1.71h-3.7l-.12-.08a1.34 1.34 0 01-.2-.21c-.08-.11-.08-.13-.08-1.13s0-1 .09-1.14a1 1 0 01.2-.2l.12-.08h6.34l.11.08a1.1 1.1 0 01.21.22l.08.14v2.62c0 2.8 0 2.91-.17 3.12a4.48 4.48 0 01-.49.39 9.87 9.87 0 01-4.73 1.95 15.65 15.65 0 01-1.91.01zM287.77 207.34a5.93 5.93 0 01-3.83-1.51 5.61 5.61 0 01-1.54-3.77c-.06-.5-.07-1-.06-5.13 0-4.42 0-4.58.08-4.72a.69.69 0 01.19-.23l.13-.1h1.09c1.05 0 1.1 0 1.25.07a.65.65 0 01.25.21l.08.13V197c0 4.18 0 4.79.07 5.12a2.43 2.43 0 00.68 1.58 2.66 2.66 0 002 .72 4.41 4.41 0 002.08-.34c.62-.31.9-.78 1.12-1.88.08-.41.08-.47.11-5.15 0-5.3 0-4.86.29-5.07l.13-.1h1.14c1.26 0 1.22 0 1.43.26l.1.14v4.25a49.33 49.33 0 01-.13 6 5 5 0 01-1.9 3.63 4.15 4.15 0 01-.88.56 6 6 0 01-1.92.57 16.71 16.71 0 01-1.96.05zM302.62 207.11a.71.71 0 01-.24-.17.54.54 0 01-.18-.56c.07-.27 5.44-14.13 5.53-14.24s.21-.23 1.47-.23 1.31 0 1.48.23 1.38 3.29 3 7.18c2.51 6.17 2.88 7.08 2.88 7.24a.58.58 0 01-.28.5c-.12.08-.12.08-1.38.07h-1.3l-.14-.1c-.17-.14-.17-.12-1-2.25-.38-1-.69-1.8-.72-1.83s-.18-.07-2.52-.07-2.49 0-2.52.06l-.7 1.92c-.37 1-.71 1.91-.75 2a1.19 1.19 0 01-.19.2c-.11.08-.13.08-1.25.08zm8.05-7.1c-.06-.15-1.39-3.71-1.43-3.8s0 0-.06 0-1.42 3.83-1.44 3.86.66 0 1.48 0h1.5zM322.05 207.09a.6.6 0 01-.37-.39v-14.43l.09-.13c.19-.25.18-.24 1.9-.24 1.43 0 1.55 0 1.67.07a.7.7 0 01.2.18c0 .06.85 2.41 1.78 5.22s1.71 5.11 1.72 5.11.81-2.28 1.77-5.07c1.1-3.17 1.79-5.13 1.85-5.22.19-.28.18-.27 1.75-.27 1.35 0 1.41 0 1.54.08a.73.73 0 01.22.21l.09.13v7.18c0 6.77 0 7.19-.08 7.3a1 1 0 01-.2.22l-.13.1h-1.1c-1.09 0-1.1 0-1.21-.08a.76.76 0 01-.2-.2l-.09-.12v-8.24l-.25.5c-.11.3-.76 2.17-1.45 4.15-1.21 3.47-1.26 3.62-1.41 3.76a.53.53 0 01-.26.17h-1c-.86 0-.91 0-1.06-.09a.69.69 0 01-.24-.2c0-.06-.71-2-1.49-4.29s-1.42-4.18-1.44-4.18 0 1.86 0 4.14c0 4.64 0 4.3-.28 4.49l-.15.1H322.08z" fill="#fff"/><path d="M271.08 206.56a7 7 0 01-4.54-2.24 7.2 7.2 0 01-1.59-3.84 12.61 12.61 0 010-2.13 8 8 0 011.78-4.2c1.58-1.79 4.85-2.51 7.51-1.65a4.67 4.67 0 013.24 3.31 3 3 0 01.13.46s-1.45.41-1.55.43-.1 0-.19-.33a3.91 3.91 0 00-1.11-1.77 5 5 0 00-4-.82 4.59 4.59 0 00-2.65 1.37 5.93 5.93 0 00-1.37 3.92 6.4 6.4 0 00.93 3.91c1.11 1.67 3.69 2.42 6 1.73a7.84 7.84 0 002.1-1l.26-.18v-2.65h-4.15v-1.62h5.94v5.17l-.33.24a9.73 9.73 0 01-4.11 1.83 12.08 12.08 0 01-2.3.06zM287.53 206.69a5.18 5.18 0 01-3.14-1.3 4.6 4.6 0 01-1.27-2.66c-.14-.85-.15-1.29-.14-5.82v-4.44h1.82v4.74c0 5 0 4.95.19 5.71a2.78 2.78 0 002 2 5.92 5.92 0 002.87 0 2.51 2.51 0 002-2c.23-.87.23-.79.25-5.8v-4.62H294V201.63c-.16 2.17-.72 3.35-2 4.24a5.32 5.32 0 01-2 .76 18.33 18.33 0 01-2.47.06zM302.9 206.3c0-.12 1.26-3.26 2.69-7l2.63-6.77h2l2.83 6.93 2.85 7c0 .06 0 .07-1 .07h-1l-.18-.46c-.1-.25-.46-1.21-.8-2.11l-.63-1.64h-6l-.77 2.11-.77 2.12h-1.93zm8.7-5.58s-.41-1.12-.89-2.41-1-2.77-1.21-3.31-.33-1-.34-1a4.23 4.23 0 00-.15.52 27 27 0 01-1.31 3.91c-.45 1.22-.84 2.24-.85 2.28s.1.07 2.37.07 2.4 0 2.38-.06zM322.29 199.5v-7h2.74l1.86 5.58c1 3.06 1.91 5.77 2 6a2.27 2.27 0 00.15.42s.23-.68.51-1.48 1.2-3.49 2.06-6l1.57-4.53h2.46v14h-1.74v-5.88-5.84c0 .02-.88 2.47-1.91 5.43s-1.95 5.6-2 5.84l-.16.44h-1.64l-2-5.92c-1.1-3.26-2-6-2-6v11.93h-1.74z" fill="#ef3340"/><path d="M261.52 154.21a5.69 5.69 0 01.22 1.93c.22.13 3.73-3 3.73-2.85 0 .66.08 2 .08 2s3.64-3.45 3.79-3.09a11.13 11.13 0 010 2.41s2.41-2.66 2.86-3.14.26.43.3 1.68c0 .23 4-2.91 4.2-3 .51-.11.67 1.63.64 2.07s3.65-2.1 3.49-1.78l.27 1.86c1-.14 3.47-1.05 4.93-.81.47.07.45.31 0 .48-7.07 2.86-12.51 7.17-15.67 13.18-1.08 2.05-1.41 3.83-1.13 4.28 0 0 1.27-2.73 2.71-3.16.19-.05.32 1.75.51 1.65a22.53 22.53 0 011.87-3.75c.21-.27.56 1.44.78 1.18a10.11 10.11 0 011.67-3.11c.16-.18.44 1.74.62 1.58 1.14-1.06 2.22-3.7 2.65-3.9s.35 2.2.63 2c0 0 1.63-3.28 2.61-3.87.63-.38.6 1.79.6 1.79a36.06 36.06 0 003.26-4.14c.3-.41.14 2.68.46 2.8s3.09-2.37 3.39-2.42.43.72-.09 1.33l-3.31 3.81c.63.12.88-.06 1.34.07 1.35.35-2.54 2.59-2.48 3 0 0 1.88 0 1.25.33-.45.26-2.94 3.46-2.94 3.34s1.25 0 1.24.39c0 .66-2.06 4.08-2.08 4.06s1.1-.15 1.27.19c.3.62-2.11 3.38-1.64 3.85.06.07 1.38 0 2 .15.28.06 1.07 5 .87 4.82a47.41 47.41 0 011.39-6.05c.33-.85 1.38 1.28 1.47 1.09a27.53 27.53 0 01-.07-4.4c0-.38.8.4.79 0a10.76 10.76 0 01.08-2.54c.13-.62.77 1.11 1 .64 0 0-.78-3-.45-3.84.21-.55.74 1.35 1.08 1.42a8.63 8.63 0 01.17-2.92l1.09 1.16c.23-.37.19-4 .41-4.34s1.31 1.36 1.48 1.11-.48-2.93-.34-3.14 1.44.75 1.47.73c.5-.51.48-1.78.7-2.25.57-1.27 3.84-1.44 4.22-.53a3.69 3.69 0 010 1.69 6.52 6.52 0 001.65 0 18.49 18.49 0 00-.08 3.15c0 .22 1.63-.06 1.65.16.15 1.56-.21 1.7-.21 1.7s1.09-.16 1.11 0a4.35 4.35 0 01-.61 2.57c-.07.13 1.54-.12 1.56 0a11.24 11.24 0 010 3.74c0 .13 1.58-1.17 1.6-1 .24 1.38 0 2.88.11 4.32 0 .33 1.06-1 1.15-.61s-.23 3.12-.07 3.28a7.87 7.87 0 011.85.06 4.53 4.53 0 011.1 3.48c.37-.27.23-2.94-.14-5.39-.05-.25 1.31-.15 1.27-.39a5.07 5.07 0 01-2-3.38c-.11-.53 1.43-.42 1.43-.42-.43-1-1.18-1.17-1.81-2.11-.21-.31 1.59-.45 1.59-.54 0-.94-1.52-1.38-2.3-2.36-.34-.41 1.64-.43 1.64-.43-.58-.81-2.5-1.16-3.47-2.23-.53-.58 1.94-1.15 1.91-1.25-.27-.86-2.6-1.12-3.72-2.09-.24-.2 1.47-.87 1.47-.87-.18-.37-3.89-2.81-2-2.58.8.09 2.41 1.23 2.54 1a5.31 5.31 0 01.1-1.59c.62-.65 2.76 2.74 3.49 2.6 0 0 .27-2.42.6-2.49.78-.15 1.74 3.53 2.51 3.53.1 0 .16-2.12.56-2.24s1 2.38 1.53 2.94.53-2 .84-1.5c.53.76.65 2.35 1.37 3 .47.46.55-2.18 1.07-1.83s.46 1.78 1.14 2.45c.32.32.54-1.74.91-1.44s.54 2.79.89 3.18 1-1.32 1.43-1 .25 2.39.56 2.86c.63 1 1-1.17 1.38-.84s.93 2.73 1.19 2.93c.59.44.91-1.14 1.36-.92s1 3.38 1.24 3.3.61-7.35-2.2-10.43c-4.58-5-12.78-7.92-19.47-8 0 0 3.36-.67 3.45-1.23.18-1.11 1.85-1 3-.72.21 0 .1-2 .13-2a5.79 5.79 0 013 1.19c.31.19-.63-2-.3-1.82 1.28.74 2.7 1 3.56 1.85.23.24-.26-1.69-.26-1.69.64-.15 1.9.77 2.39 1.63.24.42 0-2.25.18-1.78 0 0 2.22.76 2.47 1.69 0 0 .18-1.69.48-1.6.89.23 1.67 1.74 2.37 2 0 0-.29-1.52-.06-1.46a16.82 16.82 0 013.49 1.46c-.94-2.37-4.53-4.84-10.83-5.51a35.54 35.54 0 00-9.83.62c-3.27.75-5.84 1.18-5.32.67 2.16-2.12 5.65-2.37 6.61-2.86.68-.35-2.32-1.51-1.72-1.68s3.27-.36 3.27-.36c.58-.45-1.95-1.34-1.57-2 .76-1.32 5.22-.12 5.61-.62.12-.17-1.92-1.38-1.84-1.56.33-.67 4.31.5 4.4-.09 0 0-1.21-.89-2.07-1.63-.1-.09 3.56-1.07 3.56-1.07a6 6 0 00-1.47-.79c-.76-.3 3.21-1.33 3.21-1.33-5-2.3-18.11 4.24-20.7 11-.67 1.62-.69-.14-.55-1.51a20 20 0 00.16-4.13c-.05-.4-1.07 1.07-1.14.68-.26-1.44.51-3 .16-4.63-.12-.54-1.47 1.59-1.65 1.05-.49-1.48.37-3.56 0-5.6-.14-.79-1.42 1.71-1.85 1s-.28-3.9-.52-4.36-1.33 1.47-1.42 1.12c-1.55-5.62.5-6.32-2.46-3.15-.11.11-.77-3.32-.88-3.21-1.22 2.61-3.21-1.85-3.89-1.44-.51.32 1.39 2 1.41 2.82 0 .37-1.75.4-1.75.4 0 .64 3.34 2.44 3.45 3.14s-2.34.44-2.34.44c.08.79 2.83 1.53 3 2.37.09.46-1.29.56-1.24 1 .07.72 2.66 2.13 2.74 2.87.06.5-1.65.71-1.69 1.19s3.44 2.49 3.44 3c0 .76-1.39.37-2 .76-.89.54 2.85 2.72 3 3.34s-1.5.07-1.55.56c-.07.66 1.83 1.64 2.27 2.76s0 1.39-.64.95c-1.25-.88-6.31-6.25-7.65-7.69a15.6 15.6 0 00-9.93-4.54c-.42.12 2.14 1.93 2.16 2.59 0 .17-1.15.42-1.1.47a11.84 11.84 0 002.91 1.55l-.63 1.13c.15.34 1.19.43 2.86 1 0 0-1.25.78-1.16.85a9.74 9.74 0 002.61 1.23l-1.69.57c-.1.32 3.8 1.89 3.8 1.89a12.18 12.18 0 00-1.17 1.1 18.18 18.18 0 003.17 1s-2 .7-2 .71c.75.75 2.83 1 3.31 2.24 0 0 .28.71-.54.57a34.37 34.37 0 00-17.93-2.64c-9.91 1.29-17.46 9.91-17.33 10.76.01.14 3.55-2.4 3.93-1.88z" fill="#009639" fill-rule="evenodd"/><ellipse cx="297.4" cy="154.83" rx="2.1" ry="2.22" transform="rotate(-33.12 297.394 154.83)" fill="#382e2c"/><ellipse cx="300.89" cy="156.83" rx="2.54" ry="2.39" transform="rotate(-56.88 300.884 156.834)" fill="#382e2c"/><ellipse cx="298.05" cy="158.82" rx="2.71" ry="2.55" transform="rotate(-56.88 298.057 158.813)" fill="#382e2c"/><path d="M278.44 239.48h3.16v2.36h-3.16z" fill-rule="evenodd"/><path d="M262.65 241s20.74 1.58 33.46-1.15c0 0 1.06.72-.47 2.51s-5.42 2.18-7.55 2.56a5.3 5.3 0 00-.48 1.75c.05.6 1.35.53 2 .4l.64-.12s-.3 2.23-8.15 2.53c-2.58.1-11.07.28-12.87-2.24a9.65 9.65 0 002 0c.41-.12.11-1.74 0-2s-5.5 0-8.32-2.6a3.58 3.58 0 01-1-1.82l.74.18zm10.81 4.35a58 58 0 0012.2 0 3.52 3.52 0 01-.12 1.7c-.3.47-7.84.83-11.64.17-.61-.22-.63-.94-.44-1.87z" fill="#382e2c" fill-rule="evenodd"/><path d="M265.54 240s7.69-8.18 5.33-25.25c0 0 8 2.07 16.19 13.85 0 0 2.39 2.4 5.19 10.93z" fill="#fdf9ff" fill-rule="evenodd"/></svg>