<svg xmlns="http://www.w3.org/2000/svg" xmlns:xlink="http://www.w3.org/1999/xlink" width="1200" height="600" viewBox="0 0 1200 600"><defs><clipPath id="a"><rect width="583.33" height="333.75" fill="none"/></clipPath></defs><title>Artboard 1</title><rect width="1200" height="600" fill="#00247d"/><rect width="1200" height="66.67" fill="#cf142b"/><rect y="66.67" width="1200" height="66.67" fill="#fff"/><rect y="200" width="1200" height="66.67" fill="#cf142b"/><rect y="266.67" width="1200" height="66.67" fill="#fff"/><rect y="400" width="1200" height="66.67" fill="#cf142b"/><rect y="466.67" width="1200" height="66.67" fill="#fff"/><g clip-path="url(#a)"><rect width="583.33" height="333.75" fill="#00237d"/><rect x="236.11" y="-10.11" width="111.11" height="368.44" fill="#fff"/><polygon points="600.46 28.06 600.46 -9.77 532.14 -9.77 -8.29 299.23 -8.29 338.51 57.48 338.51 600.46 28.06" fill="#fff"/><polygon points="-6.38 -3.6 -6.38 35.69 529.34 341.93 597.66 341.93 597.66 304.11 59.39 -3.6 -6.38 -3.6" fill="#fff"/><polygon points="-4.23 336.6 39.96 336.6 307.86 183.48 297 164.43 -4.23 336.6" fill="#cf142b"/><polygon points="301.01 147.61 290.15 166.66 596.92 341.92 597.87 317.2 301.01 147.61" fill="#cf142b"/><polygon points="-8.46 21.25 281.5 187.05 292.36 168 -8.46 -4.02 -8.46 21.25" fill="#cf142b"/><polygon points="545.79 -3.09 244.28 169.31 255.15 188.36 588.71 -2.36 545.79 -3.09" fill="#cf142b"/><rect x="274.54" y="-186.56" width="22.41" height="619.15" transform="translate(408.75 -162.73) rotate(90)" fill="#fff"/><rect x="274.54" y="-97.39" width="22.41" height="619.15" transform="translate(497.93 -73.56) rotate(90)" fill="#fff"/><rect x="252.36" y="-141.98" width="66.77" height="619.15" transform="translate(453.34 -118.15) rotate(90)" fill="#cf142b"/><rect x="258.31" y="-10.11" width="66.69" height="368.44" fill="#cf142b"/></g></svg>