<svg xmlns="http://www.w3.org/2000/svg" width="300" height="300"><path fill="#fff" stroke="#000" stroke-linecap="round" stroke-linejoin="round" stroke-width="2" fill-rule="evenodd" d="M295.48 139.45v30.14l-33.47 11.07.43-52.79 33.04 11.58zM32.89 131.3l-1.28 46.78L3.5 162.63l-.43-17.58 29.82-13.75z"/><path d="M3.29 151.05c-1.72-22.74 6.86-34.32 13.71-34.32s247.57-.86 261.3 0 17.16 14.16 17.16 21.45v24.46s-1.39-13.24-29.71-14.95-11 5.94-118.74 5.08-105.1-5.07-121.41-6.36-20.6.35-22.31 4.64z" fill="#fff" stroke="#000" stroke-linecap="round" stroke-linejoin="round" stroke-width="2" fill-rule="evenodd"/><path d="M263.1 121.93a6.2 6.2 0 015.88 3.35 14.92 14.92 0 011.4 7.09 17.08 17.08 0 01-1.27 7.06 6.22 6.22 0 01-6 4 6 6 0 01-5.61-3.27 15 15 0 01-1.54-7.34 18.17 18.17 0 01.92-6.12c1.15-3.18 3.24-4.77 6.24-4.77m0 19.1a3.75 3.75 0 003.26-1.81c.8-1.21 1.21-3.46 1.21-6.75a16.48 16.48 0 00-.88-5.86 3.33 3.33 0 00-3.4-2.31 3.58 3.58 0 00-3.41 2.19 15.15 15.15 0 00-1.07 6.43 15.77 15.77 0 00.69 5.15c.7 2 1.9 3 3.6 3zM242.33 137.8a3.34 3.34 0 001.68 3 3.76 3.76 0 001.81.44 4.07 4.07 0 003.22-1.57q1.32-1.58 1.88-6.38a4.92 4.92 0 01-2.18 2 6.88 6.88 0 01-2.77.55 6.29 6.29 0 01-4.8-1.88 6.9 6.9 0 01-1.75-4.86 7.77 7.77 0 011.74-5 6.2 6.2 0 015.13-2.16 6.3 6.3 0 016.31 4.06 14.39 14.39 0 011 5.67 18.69 18.69 0 01-1.16 6.81c-1.27 3.29-3.44 4.94-6.49 4.94a6.29 6.29 0 01-4.66-1.61 5.49 5.49 0 01-1.59-4h2.66m4-4.3a4.49 4.49 0 002.85-1 4.37 4.37 0 001.3-3.61 4.55 4.55 0 00-1.17-3.43 4 4 0 00-3-1.14 3.86 3.86 0 00-3.07 1.3 5 5 0 00-1.13 3.45 5 5 0 001 3.25 3.88 3.88 0 003.18 1.17zM229.84 130.69a3.72 3.72 0 002.72-1 3.18 3.18 0 001-2.32 3 3 0 00-.94-2.15 3.77 3.77 0 00-2.85-1 3.45 3.45 0 00-2.74 1 3.37 3.37 0 00-.85 2.29 2.72 2.72 0 001.09 2.31 4.16 4.16 0 002.59.83m.16 10.37a4.65 4.65 0 003-1 3.59 3.59 0 001.21-3A3.81 3.81 0 00233 134a4.77 4.77 0 00-3.19-1 4.42 4.42 0 00-3.08 1.08 3.79 3.79 0 00-1.19 3 4.05 4.05 0 001.09 2.83 4.37 4.37 0 003.37 1.19m-3.74-9.36a5.2 5.2 0 01-1.71-1.09 4.13 4.13 0 01-1.15-3 5.46 5.46 0 011.69-4 6.54 6.54 0 014.81-1.68 6.66 6.66 0 014.72 1.59 5.15 5.15 0 01.72 6.87 6 6 0 01-1.73 1.35 6.49 6.49 0 012 1.37 5.31 5.31 0 011.39 3.8 6.51 6.51 0 01-1.86 4.69 7 7 0 01-5.25 1.91 8.16 8.16 0 01-5.17-1.65 5.79 5.79 0 01-2.1-4.82 5.36 5.36 0 013.59-5.28zM207.9 128.05v-2a10.68 10.68 0 004-.92c.76-.44 1.31-1.46 1.69-3.08h2.07v20.84h-2.8v-14.84zM83.26 137.28a3.34 3.34 0 001.68 3 3.76 3.76 0 001.81.44 4.07 4.07 0 003.25-1.56q1.32-1.57 1.88-6.38a4.83 4.83 0 01-2.18 1.95 6.89 6.89 0 01-2.77.56 6.27 6.27 0 01-4.79-1.88 6.86 6.86 0 01-1.76-4.86 7.75 7.75 0 011.74-5 6.2 6.2 0 015.13-2.16 6.3 6.3 0 016.31 4.12 14.39 14.39 0 011 5.67 18.69 18.69 0 01-1.22 6.82c-1.27 3.29-3.44 4.94-6.49 4.94a6.29 6.29 0 01-4.66-1.61 5.49 5.49 0 01-1.59-4h2.66m4-4.3a4.49 4.49 0 002.85-1 4.37 4.37 0 001.3-3.61 4.59 4.59 0 00-1.17-3.44 4 4 0 00-3-1.13 3.86 3.86 0 00-3.07 1.3 5.85 5.85 0 00-.13 6.7 3.88 3.88 0 003.17 1.2zM71.38 121.31q3.51 0 4.88 1.82a6.08 6.08 0 011.39 3.75h-2.6a4.91 4.91 0 00-.74-1.95 3.35 3.35 0 00-2.88-1.31 4 4 0 00-3.51 2 11.72 11.72 0 00-1.45 5.83 5.76 5.76 0 012.28-2 6.57 6.57 0 012.81-.59 6.85 6.85 0 014.59 1.68 6.27 6.27 0 012 5 7.62 7.62 0 01-1.86 5 6.55 6.55 0 01-5.29 2.32 6.79 6.79 0 01-5.07-2.22q-2.15-2.23-2.14-7.51a20.28 20.28 0 011-6.62q1.83-5.2 6.68-5.2m-.19 19.21a3.6 3.6 0 003.1-1.38 5.44 5.44 0 001-3.31 5.61 5.61 0 00-.92-3.05 3.64 3.64 0 00-3.35-1.46 4.39 4.39 0 00-3 1.12 4.28 4.28 0 00-1.27 3.39 5 5 0 001.16 3.35 4.08 4.08 0 003.23 1.34zM54.11 130.17a3.71 3.71 0 002.71-1 3.17 3.17 0 001-2.33 3.05 3.05 0 00-.93-2.14 3.75 3.75 0 00-2.85-1 3.44 3.44 0 00-2.75 1 3.4 3.4 0 00-.85 2.29 2.76 2.76 0 001.1 2.31 4.18 4.18 0 002.59.83m.15 10.36a4.6 4.6 0 003-1 3.57 3.57 0 001.21-3 3.8 3.8 0 00-1.24-3.08 4.76 4.76 0 00-3.18-1.05 4.44 4.44 0 00-3.07 1.19 3.79 3.79 0 00-1.18 3 4.09 4.09 0 001.08 2.83 4.37 4.37 0 003.37 1.18m-3.74-9.35a5.31 5.31 0 01-1.7-1.09 4.12 4.12 0 01-1.16-3 5.49 5.49 0 011.69-4 6.57 6.57 0 014.81-1.68 6.66 6.66 0 014.72 1.59 5.15 5.15 0 01.72 6.87 6.14 6.14 0 01-1.73 1.34 6.55 6.55 0 012.05 1.38 5.25 5.25 0 011.39 3.8 6.53 6.53 0 01-1.87 4.58 7 7 0 01-5.24 1.91 8.19 8.19 0 01-5.21-1.63 5.79 5.79 0 01-2.1-4.82 5.53 5.53 0 01.91-3.2 5.64 5.64 0 012.68-2.08zM32.18 127.51v-2a10.63 10.63 0 004-.92c.76-.44 1.32-1.47 1.68-3.08h2.08v20.84H37.1v-14.84z" fill-rule="evenodd"/></svg>