<svg version="1.1" id="Layer_1" xmlns="http://www.w3.org/2000/svg" x="0" y="0" viewBox="0 0 600 381.8" xml:space="preserve"><style>.st1{fill:#002868}.st2{fill:#bf0a30}</style><path d="M0-.9h600v383.6H0V-.9z" fill="#fff"/><path class="st1" d="M177.1 117.1h423v29.5h-423v-29.5zM177.1-.9h423v29.5h-423V-.9z"/><path class="st2" d="M0-.9h206.6v206.6H0V-.9z"/><path class="st2" d="M186.9 176.2H600v29.5H186.9v-29.5zM186.9 58.1H600v29.5H186.9V58.1zM0 294.2h600v29.5H0v-29.5z"/><path class="st1" d="M0 353.2h600v29.5H0v-29.5zM0 235.2h600v29.5H0v-29.5z"/><path d="M147.8 169L103 136l-44.7 33.1 17.5-52.8-45.2-32.2 55.6.3 16.7-53 16.9 53 55.6-.5-45.2 32.4 17.6 52.7z" fill="#ffd90f"/></svg>