<?xml version="1.0" encoding="utf-8"?>
<!-- Generator: Adobe Illustrator 23.0.1, SVG Export Plug-In . SVG Version: 6.00 Build 0)  -->
<svg version="1.1"
	 id="svg2" text-rendering="auto" color-rendering="auto" image-rendering="auto" shape-rendering="auto" inkscape:output_extension="org.inkscape.output.svg.inkscape" inkscape:version="0.48.1 " sodipodi:docname="ZZ1.svg" sodipodi:version="0.32" xmlns:cc="http://creativecommons.org/ns#" xmlns:dc="http://purl.org/dc/elements/1.1/" xmlns:inkscape="http://www.inkscape.org/namespaces/inkscape" xmlns:rdf="http://www.w3.org/1999/02/22-rdf-syntax-ns#" xmlns:sodipodi="http://sodipodi.sourceforge.net/DTD/sodipodi-0.dtd" xmlns:svg="http://www.w3.org/2000/svg"
	 xmlns="http://www.w3.org/2000/svg" xmlns:xlink="http://www.w3.org/1999/xlink" x="0px" y="0px" viewBox="0 0 600 400"
	 style="enable-background:new 0 0 600 400;" xml:space="preserve">
<style type="text/css">
	.st0{fill-rule:evenodd;clip-rule:evenodd;fill:#003271;}
	.st1{fill-rule:evenodd;clip-rule:evenodd;fill:#FEC500;stroke:#FEC500;stroke-width:0.6422;stroke-miterlimit:10;}
	
		.st2{fill-rule:evenodd;clip-rule:evenodd;fill:#FEC500;stroke:#FEC500;stroke-width:0.6422;stroke-linecap:square;stroke-miterlimit:10;}
	.st3{fill-rule:evenodd;clip-rule:evenodd;fill:#FEC500;stroke:#003271;stroke-width:0.6422;stroke-miterlimit:10;}
	
		.st4{fill-rule:evenodd;clip-rule:evenodd;fill:#FEC500;stroke:#003271;stroke-width:0.8027;stroke-linecap:square;stroke-miterlimit:10;}
	.st5{fill-rule:evenodd;clip-rule:evenodd;fill:#FEC500;}
</style>
<sodipodi:namedview  bordercolor="#666666" borderopacity="1.0" fit-margin-bottom="0" fit-margin-left="0" fit-margin-right="0" fit-margin-top="0" gridtolerance="10.0" guidetolerance="10.0" id="base" inkscape:current-layer="g12512" inkscape:cx="497.50094" inkscape:cy="152.47181" inkscape:pageopacity="0.0" inkscape:pageshadow="2" inkscape:window-height="1004" inkscape:window-maximized="1" inkscape:window-width="1280" inkscape:window-x="-8" inkscape:window-y="-8" inkscape:zoom="1" objecttolerance="10.0" pagecolor="#ffffff" showgrid="false">
	</sodipodi:namedview>
<defs>
	
	
		<inkscape:perspective  id="perspective1434" inkscape:persp3d-origin="400 : 178.66667 : 1" inkscape:vp_x="0 : 268 : 1" inkscape:vp_y="0 : 1000 : 0" inkscape:vp_z="800 : 268 : 1" sodipodi:type="inkscape:persp3d">
		</inkscape:perspective>
	
		<inkscape:perspective  id="perspective3748" inkscape:persp3d-origin="0.5 : 0.33333333 : 1" inkscape:vp_x="0 : 0.5 : 1" inkscape:vp_y="0 : 1000 : 0" inkscape:vp_z="1 : 0.5 : 1" sodipodi:type="inkscape:persp3d">
		</inkscape:perspective>
	
		<inkscape:perspective  id="perspective3775" inkscape:persp3d-origin="0.5 : 0.33333333 : 1" inkscape:vp_x="0 : 0.5 : 1" inkscape:vp_y="0 : 1000 : 0" inkscape:vp_z="1 : 0.5 : 1" sodipodi:type="inkscape:persp3d">
		</inkscape:perspective>
</defs>
<path id="path8" inkscape:connector-curvature="0" d="M-4758.5,4090.8L-4758.5,4090.8L-4758.5,4090.8L-4758.5,4090.8"/>
<g id="g12512" transform="matrix(1.7599473,0,0,1.7599473,-204.1733,-223.29722)">
	<path id="rect607" inkscape:connector-curvature="0" class="st0" d="M116,126.9h340.9v227.3H116L116,126.9z"/>
	<path id="path630" inkscape:connector-curvature="0" sodipodi:nodetypes="ccccccccccccccccccccccccccc" class="st1" d="
		M284.4,203.3c0,0-0.5,62.9-0.5,67.5c0,4.6,0,10.9-4.9,9.7c-4.9-1.1-11-1.1-19.7-7.4c-8.8-6.3-8.8-7.4-8.8-7.4l8.2-2.9
		c0,0-8.2-1.7-13.7-5.7c-5.5-4-9.9-7.4-9.9-7.4s-0.5,8.6,2.2,14.9c2.7,6.3,8.2,12,8.2,12V269c0,0,7.7,7.4,10.4,9.2
		c2.7,1.7,13.7,6.3,18.1,9.2c4.4,2.9,13.1,10.9,13.1,10.9s7.7-9.2,13.1-11.4c5.5-2.3,12.6-5.7,15.9-8c3.3-2.3,12.1-10.9,12.1-10.9
		v9.7c0,0,6-7.4,7.7-12.6c1.6-5.1,2.2-14.3,2.2-14.3s-4.4,3.4-8.2,5.1c-3.8,1.7-14.8,6.3-14.8,6.3l8.8,2.3c0,0-14.2,11.4-19.2,13.7
		c-4.9,2.3-15.3,3.4-15.3-2.3s0.5-72.7,0.5-72.7L284.4,203.3L284.4,203.3z"/>
	<rect id="rect631" x="284.9" y="182.1" class="st2" width="3.8" height="17.2"/>
	<path id="path629" inkscape:connector-curvature="0" class="st3" d="M257.5,199.3c0,0,15.3-3.4,29.6-3.4c14.2,0,29,3.4,29,3.4v6.3
		c0,0-19.7,2.9-31.2,2.9c-11.5,0-27.9-3.4-27.9-3.4L257.5,199.3L257.5,199.3z"/>
	<path id="path640" inkscape:connector-curvature="0" class="st4" d="M292.6,196.4c0,3.8-2.6,6.9-5.8,6.9c-3.2,0-5.8-3.1-5.8-6.9
		c0-3.8,2.6-6.9,5.8-6.9C290,189.5,292.6,192.6,292.6,196.4z M295.3,196.1c0,5.2-3.9,9.4-8.8,9.4c-4.8,0-8.8-4.2-8.8-9.4
		c0-5.2,3.9-9.4,8.8-9.4C291.4,186.7,295.3,190.9,295.3,196.1z"/>
	<path id="polygon616" inkscape:connector-curvature="0" class="st5" d="M286.5,143.5l3.9,9.5l10.4,1l-8,6.6l2.3,10l-8.9-5.5l-9,5.2
		l2.6-10l-7.9-6.8l10.4-0.7L286.5,143.5z"/>
	<path id="polygon617" inkscape:connector-curvature="0" class="st5" d="M332.6,154.8l-1.4,10.2l8.6,6l-10.2,1.7l-3,9.8l-5-9.2
		l-10.4,0l7.2-7.4l-3.4-9.8l9.4,4.6L332.6,154.8z"/>
	<path id="polygon618" inkscape:connector-curvature="0" class="st5" d="M366.6,185.7l-5.7,8.6l5.1,9.1l-10-2.9l-7,7.6l-0.5-10.4
		l-9.4-4.5l9.7-3.5l1.1-10.3l6.5,8.2L366.6,185.7z"/>
	<path id="polygon619" inkscape:connector-curvature="0" class="st5" d="M382.7,230.8l-8.9,5.1l0.4,10.5l-7.6-7.1l-9.6,3.6l4.3-9.5
		l-6.3-8.3l10.2,1.3l5.7-8.7l2,10.3L382.7,230.8z"/>
	<path id="polygon620" inkscape:connector-curvature="0" class="st5" d="M378,277.7l-10.3,0.4l-4.5,9.5l-3.4-9.8l-10.2-1.3l8.2-6.5
		l-1.8-10.3l8.5,5.8l9.1-5.1l-2.9,10.1L378,277.7z"/>
	<path id="polygon621" inkscape:connector-curvature="0" class="st5" d="M240.2,154.7l7.7,6.8l9.8-3.7l-4.3,9.4l6.5,8l-10.4-1
		l-5.8,8.7l-2.1-10.1l-10-2.6l9.1-5.2L240.2,154.7z"/>
	<path id="polygon622" inkscape:connector-curvature="0" class="st5" d="M310.7,309.8l0.1,10.3l9.4,4.7l-9.9,3.2l-1.5,10.2l-6.3-8.3
		l-10.3,1.6l6-8.3l-4.8-9.2l10,3.2L310.7,309.8z"/>
	<path id="polygon623" inkscape:connector-curvature="0" class="st5" d="M221.6,180.5l0.8,10.3l9.7,4l-9.6,3.9l-0.8,10.2l-6.8-7.9
		l-10.2,2.3l5.4-8.7l-5.5-8.8l10.2,2.5L221.6,180.5z"/>
	<path id="polygon624" inkscape:connector-curvature="0" class="st5" d="M200.6,217.6l5.6,8.6l10.4-1.1l-6.6,8l4.2,9.4l-9.7-3.7
		l-7.8,6.9l0.6-10.3l-9-5.2l10.1-2.7L200.6,217.6z"/>
	<path id="polygon625" inkscape:connector-curvature="0" class="st5" d="M198.9,259.9l9.1,4.8l8.6-6l-1.9,10.2l8.2,6.2l-10.3,1.5
		l-3.5,9.8l-4.4-9.3l-10.4-0.1l7.6-7.2L198.9,259.9z"/>
	<path id="polygon626" inkscape:connector-curvature="0" class="st5" d="M232.5,289.6l2.8,9.9l10.3,2.1l-8.7,5.6l1.1,10.2l-8.2-6.4
		l-9.5,4.2l3.7-9.6l-7-7.6l10.5,0.5L232.5,289.6z"/>
	<path id="polygon627" inkscape:connector-curvature="0" class="st5" d="M277,314.1l-4.7,9.1l6,8.6l-10.2-1.9l-6.1,8.2l-1.6-10.3
		l-9.8-3.5l9.2-4.5l0.1-10.4l7.3,7.5L277,314.1z"/>
	<path id="polygon628" inkscape:connector-curvature="0" class="st5" d="M339.6,290.1l5.2,8.9l10.5-0.5l-7,7.6l3.7,9.6l-9.5-4.2
		l-8.2,6.5l1.1-10.2l-8.7-5.6l10.2-2.2L339.6,290.1z"/>
</g>
</svg>
