<svg xmlns="http://www.w3.org/2000/svg" width="600" height="400" viewBox="0 0 600 400"><path fill="#bf0a30" d="M0 0h600v400H0z"/><path fill="#fff" d="M30 30h540v340H30z"/><path fill="#002868" d="M45 45h510v310H45z"/><path d="M201.32 230.14c-2-9.94-8.28-18.22-10.27-18.88s-5.63-1.66-5.63-1.66a4.86 4.86 0 001.32-5.63c-1.32-3.64-7.28-13.57-7.61-19.2s1.32-12.92 0-17.55-6.29-8.61-6.63-17.23 13.91-20.53 22.19-20.86 15.9 2.65 20.53 2.32 10.27-6.29 13.91-7.62 5.3.67 7.62-.33 21.19-16.56 40.07-16.56 33.12 7 37.42 7 12.26-2 18.22 0 13.24 10.93 21.85 13.24 58.29 11.26 63.92 20.21 9.27 21.85 9.27 28.14-1.66 23.19-1.66 26.5 1.66 7.61 1 11.92-2.65 6-2.65 6-1.33-7.29-1.66-11.59 2.65-16.23 2.32-23.18-3.31-15.57-3.31-15.57-2 9.94-3.64 16.23-6.63 24.18-6.63 34.44 3 25.17 3 25.17-8.28 14.24-8.94 19.87-2 18.88-1.65 20.53-2-.66-2.65 1.33a12.28 12.28 0 00-.33 4.63l-7.62-.66a16.76 16.76 0 011.65-5.63c1.33-2.32 3.32-4 3-6.95s.33-15.9.33-15.9-5.63 9.6-7.29 13.25-1.66 8.28-2.32 9.93-2 1.66-2.65 3.64-1.65 2-1.65 2l-6 .33s11.59-28.48 12.25-35.76-7.29-22.19-8.94-27.16-1.66-8.94-3.31-10.93-7.29-4.3-9.28-3.31-12.87 11.17-15.22 14.15a114.26 114.26 0 01-8.28 8.61s-13.25-7.28-20.2-8.94-24.17-3-24.17-3 1.32 25.5.66 29.47-4 5.3-4 8v8.28c0 2-5.29 2.65-6.62 4.31s0 3-1.65 5.29-4 1.66-5 3-.33 9.28-.33 9.28l-13.25-.33s5.3-10.93 5-17.22-5.61-15.62-6.61-20.56-4-12.58-7.94-12.58a15.79 15.79 0 00-7.29 2s1-16.56-4.64-23.52-19.2-6.29-23.51-5.29-8.94 7.28-10.6 7.94-3 0-5.62 1-6 3.64-8.28 5.63z" fill="#fff" fill-rule="evenodd"/><path d="M261.52 128c0-2.73 2.35-2 4.61-3a25.7 25.7 0 004.23-2.54l.1 7.05h-8.66l-.28-1.5z" fill="#fff" stroke="#002868" stroke-linejoin="bevel" stroke-width=".6" fill-rule="evenodd"/><path d="M298.86 134.76c-2.35 1.41-2.91.1-4.42-1.32s-6-4.7-6-4.7l12 2-1.6 4z" fill="#fff" stroke="#002868" stroke-width=".6" fill-rule="evenodd"/><path d="M261.53 127.57c-.29 2.71-.1 4.67 1.3 6s2.54.84 3.58.66 13.64-5.27 17.5-5.27 9.12.19 12 2.91c1.31 1.23 2.63 2.17 2.44 2.92s4.71-2.63 4.61-4.8-6.86-6.49-14.11-7.52S272 127.24 265 127.8c-2.51.24-3.47.61-3.47-.23z" fill="#fff" stroke="#002868" stroke-linejoin="bevel" stroke-width=".6" fill-rule="evenodd"/><path d="M298.65 130.64a.64.64 0 00.18.94c.22.18.58.35.8.07s0-.49-.14-.7a2.91 2.91 0 01-.5-.72.7.7 0 01.67-.83 1.2 1.2 0 011.09.84.73.73 0 01-.17.67l-.26-.2a.68.68 0 00.11-.33.82.82 0 00-.73-.68.37.37 0 00-.35.47 3.92 3.92 0 00.51.7.7.7 0 01.08.95c-.37.46-.92.3-1.32 0a.91.91 0 01-.23-1.35l.26.2zM298.94 128.66l-.18.25-.71-.51-1.33 1.87-.29-.21 1.33-1.86-.72-.51.18-.25 1.72 1.22zM294.11 126.08l.32.15-.45.98 1.23.56.45-.98.32.15-1.08 2.37-.32-.15.5-1.11-1.23-.56-.5 1.1-.33-.14 1.09-2.37zM291.46 125.42a1.38 1.38 0 01.58.29 1 1 0 01.29.81l-.34-.09a.67.67 0 00-.15-.46.89.89 0 00-.46-.25.78.78 0 00-.66.11 1.16 1.16 0 00-.44.72 1.28 1.28 0 000 .78.76.76 0 00.57.45.8.8 0 00.61-.06.78.78 0 00.39-.58l-.78-.2.07-.28 1.1.28-.34 1.35-.22-.06v-.34a1.36 1.36 0 01-.37.18 1.16 1.16 0 01-.61 0 1.1 1.1 0 01-.69-.48 1.38 1.38 0 01-.1-1.09 1.5 1.5 0 01.6-.92 1.12 1.12 0 01.95-.16zM288.61 124.97l.35.04-.26 2.58-.36-.03.27-2.59zM286.61 126a.65.65 0 00.39-.07.42.42 0 00.17-.35.38.38 0 00-.18-.39.59.59 0 00-.29-.07h-.86v.89h.81m-1.1-1.25l1.2.07a1.06 1.06 0 01.48.11.62.62 0 01.34.63.71.71 0 01-.12.38.69.69 0 01-.28.22.47.47 0 01.29.51v.32a1.28 1.28 0 000 .22.24.24 0 00.11.17h-.43a.2.2 0 010-.09.93.93 0 010-.2v-.44a.34.34 0 00-.17-.35.73.73 0 00-.31-.06h-.8l-.06 1.12h-.35l.14-2.6zM275.46 126.52l.34-.08.48 2.25 1.29-.28.06.3-1.63.35-.54-2.54zM273.91 128.66l-.68-1-.1 1.22.78-.22m-1-1.33l.39-.1 1.59 2.26-.37.1-.46-.68-1 .27-.06.82-.35.1.26-2.77zM269.71 128.55l.33 1.58a.94.94 0 00.2.44.56.56 0 00.57.17.65.65 0 00.54-.43 1 1 0 000-.45l-.33-1.58.35-.07.3 1.43a1.78 1.78 0 010 .75.93.93 0 01-.79.64.9.9 0 01-1-.28 1.6 1.6 0 01-.27-.69l-.3-1.43.35-.08zM263.43 130.58l1.8-.58.1.3-1.48.48.25.75 1.36-.44.09.29-1.36.44.27.84 1.5-.49.1.3-1.83.59-.8-2.48zM269.16 131.47l-.12.25-.46-.19a1.41 1.41 0 01-.62.34 1.16 1.16 0 01-1-.14 1.46 1.46 0 01-.53-.86 1.5 1.5 0 010-.94 1.17 1.17 0 01.84-.72 1.21 1.21 0 011.1.17 1.68 1.68 0 01.38 1.91l.41.18m-1 0a.3.3 0 00.14-.1l-.33-.14.12-.26.39.17a1.3 1.3 0 00.06-.89 1.09 1.09 0 00-.42-.65.83.83 0 00-.71-.11.9.9 0 00-.58.43 1.23 1.23 0 000 .86 1.12 1.12 0 00.42.66 1 1 0 00.94 0z" fill="#002868" fill-rule="evenodd"/><path d="M295.35 192.71a21 21 0 01-2.77-2.63c-.56-.84-2.09-3.48-2.09-3.48l3.89-4s2.92 3.61 2.92 4.3a56.4 56.4 0 01-1.95 5.83zM295.91 173.13s-4.86-4-5.28-5a22.58 22.58 0 01-.55-4.44l2.36-.56a14.52 14.52 0 002.22 1.53 8.78 8.78 0 003.06.84l-1.81 7.63zM299.28 138.29s-.07-1.6-.1-2.33-1.05-1.66-1.05-1.66-1.21 1.18-1.28 1.63-.09 2.64-.09 2.64l2.52-.28z" fill="#fff" stroke="#002868" stroke-width=".6" fill-rule="evenodd"/><path fill="#fff" stroke="#002868" stroke-width=".6" fill-rule="evenodd" d="M301.16 194.43l-.87-46.77-5.02.18-.7 46.94 6.59-.35z"/><path d="M296.26 194.88l.44-48.73m-.44 48.73zM295.37 194.88l.09-48.73m-.09 48.73zM298.92 195.14l.36-49.17m-.36 49.17zM297.59 195.06c-.09-.45.36-49.18.36-49.18m-.36 49.18zM300.43 195.23l.09-49.35m-.09 49.35z" fill="none" stroke="#002868" stroke-width=".6"/><path fill="#fff" stroke="#002868" stroke-width=".6" fill-rule="evenodd" d="M302.2 197.89v-2.94l-.87-.69h-6.24l-1.55.86.34 3.12 8.32-.35zM300.97 140.77l-.93-1.46 1.85-1.63-7.49-.13 1.63 1.76-.74 1.43 5.68.03z"/><path d="M300.34 145.39L299 144s3-2.87 3.44-2.87.67.67 1.11.64.71-.23.71-.7-.45-.7-1.12-.67l-9.81-.13c-.71 0-.93.45-.9.8a.91.91 0 00.93.67c.41 0 .54-.71 1-.67s2.35 2.67 2.35 2.86l-1.59 1.53h5.27zM301.49 146.89c1.36 1.52 2.27 2.48 2.2 4.86s-3.41 6.29-6 8.58-7.11 4-7.11 6 .4 2.23.89 2.87A6.64 6.64 0 01289 164c0-3.34 2.77-6.95 6-8.89s7.08-4.58 7.08-6a4 4 0 00-.53-2.22zM300.81 167.85c.05 1.37 0 2.51.1 3.62.12 1.31-4 4-5.69 5.69s-5.84 3.47-6.11 6 2.18 4.83 2.76 5.78c-.63-1.32.8-2.86 2.45-4.2 1.45-1.17 4.58-2.91 6.17-4.63s3.34-4.45 3.34-7.09-1.77-4.72-3-5.14z" fill="#fff" stroke="#002868" stroke-width=".6" fill-rule="evenodd"/><path fill="#fff" stroke="#002868" stroke-width=".6" fill-rule="evenodd" d="M302.03 146.49l-1.75 1.29-5.08.16-1.69-1.4 1.69-1.15h5.14l1.69 1.1zM277.5 134c-3.59.57-4.45 5.17-4.45 5.17s1.58.29 1.58 1.72.14 3.16.14 3.16l3.16-3.45-.43-6.6z"/><path d="M273.34 139a9 9 0 00-1.87 2.88s-1.72-3.88-1.29-4.74 1.58-1.87 1.44-2.73-.87-1-1.73-.86-.86 5-.86 6.32.29 3.58 1 4.45 1.29 2.15 2 2.29 2.72-2.87 2.72-2.87.29-2.87-.14-3.59a3.66 3.66 0 00-1.27-1.15zM286.69 135.31c4.74 2.73 4.16 6.46 4 7.75a8.3 8.3 0 000 2.16 30.06 30.06 0 012.87 3.3c.86 1.29 3.3 5 3.3 5l-.86.86a36.88 36.88 0 01-5-4.3c-1.43-1.72-7.75-12.06-7.75-12.06l3.45-2.73z" fill="#fff" stroke="#002868" stroke-width=".6" fill-rule="evenodd"/><path d="M274.77 183l-3.58-50.56m3.58 50.56z" fill="none" stroke="#002868" stroke-width=".6"/><path d="M287.22 182.15h-12.43c0-.35 1.69-42 1.69-44.31s-.34-4.06.15-4.6 4.84-.39 5.82 0 4 1.32 4.2 1.86-.58 3.77-.58 4.89 1.27 4.16 1.17 5.72 1.28 17.68 1.28 18.76c0 1.33-1.09-.68-1.59-.05s1.73 17.09.29 17.74z" fill="#fff" stroke="#002868" stroke-width=".6" fill-rule="evenodd"/><path d="M280.05 129.52s-.14 3.08-.14 3.91a3.42 3.42 0 002.24 2.39c.88.15 1.81-.83 1.72-2.2s-.54-1.17-.54-2.78a12.39 12.39 0 00-.3-2.79l-3 1.47z" fill="#fff" stroke="#002868" stroke-width=".6" fill-rule="evenodd"/><path d="M279.42 125.85a14.53 14.53 0 00-.05 4.16c.14.53.14 2 1 2.15s2.35-1.76 2.79-2.59a7.91 7.91 0 00.64-1.86l-2.35-3.43zM279.51 130.74l1.32-.1m-1.32.1zM280.88 127.76h1m-1 0z" fill="#fff" stroke="#002868" stroke-width=".6" fill-rule="evenodd"/><path d="M279.17 125.9a2 2 0 011.81-2.69c1.66.05 3.47 2.44 3.47 3.67s-.34 2.34-.63 2.34-1.67-3.86-2.79-3.91-1.03.69-1.86.59zM282.35 140.27c-2.49 4.9-4.4 6.61-5.28 6.66a14.43 14.43 0 01-2-.1l.5 10.15 7.14.18m-.35-16.89z" fill="#fff" stroke="#002868" stroke-width=".6" fill-rule="evenodd"/><path d="M284.5 140.42a27.19 27.19 0 01-10 14.77l.93 15.08 7.41-7.35m1.63-22.5z" fill="#fff" stroke="#002868" stroke-width=".6" fill-rule="evenodd"/><path d="M283.28 147.71c-2 15.65-8.9 13.15-8.9 13.15l.38 13.87c5.76-1.38 6.19-6 6.19-6a3.74 3.74 0 003.44-.86c1.44-1.44.15-6.17.58-8.33a37.94 37.94 0 00.57-4.45m-2.26-7.41z" fill="#fff" stroke="#002868" stroke-width=".6" fill-rule="evenodd"/><path d="M285 148.81c-.58 2.44-1.15 7.6-1.15 7.6m1.15-7.6zM276.93 156.7c2.44-1.15 5.45-8.9 5.45-8.9m-5.45 8.9zM283.1 162.44a12.14 12.14 0 00.14 3.74m-.14-3.74zM283.24 172.78c.15-3.59-.29-4-.29-4m.29 4zM284.25 138.61a10.82 10.82 0 001-4m-1 4zM287.41 164.31A19.41 19.41 0 01285 163m2.44 1.29z" fill="none" stroke="#002868" stroke-width=".6"/><path d="M267.22 193a21.21 21.21 0 002.78-2.6c.56-.83 2.08-3.47 2.08-3.47l-3.88-4s-2.92 3.61-2.92 4.31a57.44 57.44 0 001.94 5.83zM266.67 173.46s4.86-4 5.28-5a22.58 22.58 0 00.55-4.44l-2.36-.56a15.39 15.39 0 01-2.22 1.53 8.91 8.91 0 01-3.06.83l1.81 7.64zM263.3 138.61s.07-1.59.1-2.32 1.05-1.66 1.05-1.66 1.21 1.18 1.27 1.62.1 2.65.1 2.65z" fill="#fff" stroke="#002868" stroke-width=".6" fill-rule="evenodd"/><path fill="#fff" stroke="#002868" stroke-width=".6" fill-rule="evenodd" d="M261.42 194.75l.87-46.76 5.02.17.69 46.94-6.58-.35z"/><path d="M266.32 195.2l-.44-48.73m.44 48.73zM267.21 195.2l-.09-48.73m.09 48.73zM263.66 195.47l-.36-49.18m.36 49.18zM265 195.38c.09-.44-.36-49.17-.36-49.17m.36 49.17zM262.15 195.56l-.09-49.35m.09 49.35z" fill="none" stroke="#002868" stroke-width=".6"/><path fill="#fff" stroke="#002868" stroke-width=".6" fill-rule="evenodd" d="M260.38 198.22v-2.95l.87-.69h6.23l1.56.87-.34 3.11-8.32-.34zM261.61 141.1l.93-1.47-1.85-1.62 7.49-.13-1.63 1.75.74 1.44-5.68.03z"/><path d="M262.25 145.62l1.37-1.34s-3-2.86-3.44-2.86-.67.67-1.11.63-.71-.22-.71-.7.45-.7 1.12-.67l9.81-.12c.71 0 .93.44.9.79a.91.91 0 01-.93.67c-.41 0-.54-.7-1-.67s-2.36 2.68-2.36 2.87l1.59 1.53-5.26-.13zM261.18 147.29c-1.36 1.66-2.32 2.43-2.29 4.78 0 2.5 3.41 6.3 6 8.59s7.11 4 7.11 6-.4 2.23-.89 2.86a6.62 6.62 0 002.54-5.23c0-3.33-2.78-6.94-6-8.88s-7.08-4.59-7.08-6a3.88 3.88 0 01.62-2.14zM261.77 168.18c0 1.36 0 2.5-.1 3.61-.12 1.31 4 4 5.69 5.7s5.84 3.47 6.11 6-2.18 4.82-2.76 5.77c.63-1.32-.8-2.86-2.45-4.19-1.45-1.18-4.58-2.91-6.17-4.64s-3.34-4.44-3.34-7.08 1.77-4.73 3-5.14z" fill="#fff" stroke="#002868" stroke-width=".6" fill-rule="evenodd"/><path fill="#fff" stroke="#002868" stroke-width=".6" fill-rule="evenodd" d="M260.55 146.82l1.75 1.29 5.08.16 1.69-1.4-1.69-1.15h-5.14l-1.69 1.1z"/><path d="M272 162l.2.18-.64.72 1.36-.08.27.24-1.14.05-.15 1.44-.26-.23.14-1.2h-.44l-.45.52-.2-.18L272 162m-.81-.79a.85.85 0 01.3.53.66.66 0 01-.13.49l-.19-.17a.6.6 0 00.07-.34.55.55 0 00-.21-.33.6.6 0 00-.49-.16.93.93 0 00-.55.35 1 1 0 00-.25.53.57.57 0 00.22.48.53.53 0 00.49.13.88.88 0 00.3-.16l.19.18a.87.87 0 01-.52.24.9.9 0 01-.93-.77 1.08 1.08 0 01.33-.85 1.13 1.13 0 01.65-.38.87.87 0 01.72.23m-1.59-1.37a.87.87 0 01.35.76 1 1 0 01-.29.63 1.17 1.17 0 01-.66.4.86.86 0 01-.79-.24.89.89 0 01-.34-.7 1.18 1.18 0 01.32-.7 1.09 1.09 0 01.6-.38.84.84 0 01.81.23m-1.21 1.4a.59.59 0 00.55.15 1.07 1.07 0 00.51-.34.81.81 0 00.23-.54.6.6 0 00-.23-.49.65.65 0 00-.51-.17.88.88 0 00-.56.34 1 1 0 00-.24.52.64.64 0 00.25.53m.35-2.09l-.16.17-.49-.44-1.16 1.31-.2-.18 1.15-1.31-.5-.44.16-.17 1.2 1.06m-3.18-1a.47.47 0 00.1.72 1.58 1.58 0 00.24.15.3.3 0 00.37-.07.24.24 0 00.08-.24.89.89 0 00-.16-.3l-.16-.22a1 1 0 01-.19-.34.4.4 0 01.1-.4.54.54 0 01.43-.21.75.75 0 01.5.22.88.88 0 01.3.46.53.53 0 01-.16.5l-.18-.16a.55.55 0 00.09-.24.48.48 0 00-.21-.39.41.41 0 00-.32-.15.29.29 0 00-.23.1.23.23 0 00-.05.24 1.9 1.9 0 00.2.32l.16.23a.84.84 0 01.15.3.45.45 0 01-.12.42.51.51 0 01-.49.2 1.15 1.15 0 01-.51-.27.82.82 0 01-.31-.52.61.61 0 01.19-.51l.18.16M265 155.76l1.07 1-.16.18-.88-.78-.4.45.82.72-.15.17-.82-.72-.44.5.9.8-.16.17-1.09-1 1.31-1.47M263.71 154.64l-.69 1.64 1.54-.89.22.2-1.85 1-.21-.19.77-2 .22.2m-.64-.57l.2.18-1.31 1.48-.2-.18 1.31-1.48m-1.21-1.03l.2.18-1.15 1.3.75.66-.16.18-.94-.84 1.3-1.48zM268.12 180.3l.24.21-.31 1.85 1.06-1.19.19.17-1.3 1.47-.23-.19.31-1.87-1.08 1.19-.2-.16 1.31-1.48M267.59 179.8l.2.18-1.31 1.48-.2-.18 1.31-1.48m-1.45.28l.36-.85-.82.44.46.41m.45-1.17l.22.21-.77 1.95-.22-.2.24-.57-.58-.52-.55.3-.21-.18 1.87-1M264.78 178.51a.5.5 0 00.27.14.3.3 0 00.26-.13.31.31 0 00.08-.32.66.66 0 00-.14-.17l-.49-.44-.45.51.47.41m-.07-1.27l.69.61a.86.86 0 01.23.3.47.47 0 01-.1.53.49.49 0 01-.25.17.61.61 0 01-.27 0 .41.41 0 01.05.21.56.56 0 01-.12.23l-.17.2a1 1 0 00-.09.14.17.17 0 000 .15l-.25-.22v-.06l.1-.13.2-.25a.3.3 0 00.07-.29.64.64 0 00-.16-.19l-.46-.4-.56.63-.2-.18 1.31-1.48m-.94-.89a.91.91 0 01.29.4.69.69 0 01-.09.64l-.19-.18a.43.43 0 000-.36.62.62 0 00-.22-.33.58.58 0 00-.48-.15.91.91 0 00-.55.33 1 1 0 00-.26.53.58.58 0 00.23.5.63.63 0 00.43.18.65.65 0 00.47-.26l-.46-.41.15-.16.65.57-.7.79-.13-.11.12-.23a1.06 1.06 0 01-.32 0 .89.89 0 01-.4-.22.85.85 0 01-.3-.57 1.26 1.26 0 011-1.18.84.84 0 01.68.23m0 0M298 156.53a.59.59 0 00.25.18.55.55 0 00.52-.14.86.86 0 00.21-.22.33.33 0 000-.41.3.3 0 00-.24-.13 1.08 1.08 0 00-.34.11l-.27.12a1.16 1.16 0 01-.41.13.42.42 0 01-.4-.19.59.59 0 01-.12-.49.8.8 0 01.33-.49 1 1 0 01.55-.21.6.6 0 01.5.26l-.22.17a.6.6 0 00-.23-.16.59.59 0 00-.46.14.53.53 0 00-.22.31.32.32 0 00.06.27.25.25 0 00.24.1 2.12 2.12 0 00.38-.14l.28-.13a1.13 1.13 0 01.34-.1.6.6 0 01.53.78 1.1 1.1 0 01-.38.48.89.89 0 01-.62.22.72.72 0 01-.51-.3l.22-.16M295.42 156.68l1.23-.94.16.2-1 .77.39.52.94-.72.15.2-.94.71.44.57 1-.78.16.2-1.25 1-1.29-1.68m-1.65 1.27l.27-.21 1.9.72-1-1.37.21-.16 1.29 1.69-.25.19-1.91-.7 1 1.36-.22.17-1.29-1.69m-.6.5l.23-.18 1.29 1.69-.23.18-1.29-1.69m-2.03 1.5l.33-.25 1.57 1-.6-1.79.32-.25 1.29 1.69-.22.17-.76-1-.13-.17-.19-.26.61 1.79-.23.17-1.57-1 .14.19.15.18.76 1-.22.17-1.25-1.64zM293.55 180.25l.23-.17 1.13 1.48.86-.65.15.2-1.08.83-1.29-1.69m-.6.46l.23-.18 1.29 1.69-.23.18-1.24-1.69M291.81 181.54a1 1 0 01.88-.22 1.24 1.24 0 01.61.45 1.26 1.26 0 01.28.77 1.06 1.06 0 01-1.22 1 1.21 1.21 0 01-.68-.48 1.18 1.18 0 01-.28-.71.94.94 0 01.41-.81m1.19 1.56a.59.59 0 00.27-.55 1.13 1.13 0 00-.25-.6.86.86 0 00-.52-.36.67.67 0 00-.56.15.67.67 0 00-.29.5 1 1 0 00.24.66 1 1 0 00.5.36.65.65 0 00.61-.16m-1.22-1.56" fill="#002868" fill-rule="evenodd"/><path d="M242.44 197.2l79.41.12-8.47 12.47s-32.12 11.76-33.53 11.53-33.76-11.77-33.76-11.77l-3.65-12.35z" fill="#fff" stroke="#002868" stroke-width=".6" fill-rule="evenodd"/><path fill="#fff" stroke="#002868" stroke-width=".6" fill-rule="evenodd" d="M272.44 184.26v17.77l1.76-.47v-17.53l-1.76.23zM288.44 184.03l.35 18h1.76l-.23-18h-1.88z"/><path fill="#fff" stroke="#002868" stroke-width=".6" fill-rule="evenodd" d="M270.79 201.67l.12 3.06h20.82l-.12-3.06h-20.82z"/><path fill="#fff" stroke="#002868" stroke-width=".6" fill-rule="evenodd" d="M269.73 203.44v2.82l22.82.12-.11-2.94h-22.71zM298.05 211.16v5.08l-3.84-.35.05-6.06 3.79 1.33zM267.9 210.23l-.15 5.37-3.4-1.78.39-3.3 3.16-.29z"/><path d="M264.5 212.49c-.2-2.61.79-3.94 1.57-3.94s28.44-.1 30 0a2.27 2.27 0 012 2.47v2.8s-.16-1.52-3.41-1.71-1.27.68-13.63.58-12.08-.58-13.95-.73-2.36 0-2.56.53z" fill="#fff" stroke="#002868" stroke-width=".6" fill-rule="evenodd"/><path d="M294.34 209.15a.71.71 0 01.67.38 1.71 1.71 0 01.16.82 2.07 2.07 0 01-.14.81.73.73 0 01-.7.46.7.7 0 01-.64-.38 1.69 1.69 0 01-.18-.84 2.06 2.06 0 01.11-.7.72.72 0 01.72-.55m0 2.19a.46.46 0 00.38-.2 1.56 1.56 0 00.14-.78 2.06 2.06 0 00-.1-.67.39.39 0 00-.4-.27.44.44 0 00-.39.25 1.81 1.81 0 00-.12.74 1.86 1.86 0 00.08.59.43.43 0 00.41.34zM292 211a.39.39 0 00.19.35.46.46 0 00.21.05.46.46 0 00.37-.18 1.6 1.6 0 00.22-.73.58.58 0 01-.25.22.87.87 0 01-.32.06.72.72 0 01-.55-.21.77.77 0 01-.2-.56.87.87 0 01.2-.58.72.72 0 01.59-.24.71.71 0 01.72.47 1.73 1.73 0 01.11.65 2.09 2.09 0 01-.13.78.78.78 0 01-.75.57.72.72 0 01-.53-.18.67.67 0 01-.19-.47h.31m.46-.49a.52.52 0 00.33-.12.5.5 0 00.15-.41.54.54 0 00-.14-.4.45.45 0 00-.34-.13.44.44 0 00-.35.15.57.57 0 00-.13.4.6.6 0 00.11.37.47.47 0 00.32.11zM290.52 210.16a.45.45 0 00.31-.11.4.4 0 00.11-.27.38.38 0 00-.11-.25.44.44 0 00-.32-.11.37.37 0 00-.42.38.29.29 0 00.13.26.49.49 0 00.3.1m0 1.19a.51.51 0 00.35-.12.42.42 0 00.14-.34.45.45 0 00-.14-.35.57.57 0 00-.37-.12.51.51 0 00-.35.12.46.46 0 00-.14.34.44.44 0 00.13.33.49.49 0 00.38.14m-.43-1.08a.69.69 0 01-.19-.12.48.48 0 01-.13-.35.6.6 0 01.19-.46.74.74 0 01.55-.2.73.73 0 01.54.19.53.53 0 01.2.42.57.57 0 01-.11.36.67.67 0 01-.2.16.59.59 0 01.23.16.57.57 0 01.16.43.76.76 0 01-.21.54.78.78 0 01-.6.22.94.94 0 01-.6-.19.66.66 0 01-.24-.55.65.65 0 01.11-.37.73.73 0 01.3-.24zM288 209.85v-.23a1.16 1.16 0 00.45-.11.52.52 0 00.2-.35h.23v2.39h-.32v-1.7zM273.68 210.91a.4.4 0 00.2.35.45.45 0 00.57-.13 1.49 1.49 0 00.22-.73.58.58 0 01-.25.22.87.87 0 01-.32.06.74.74 0 01-.55-.21.82.82 0 01-.2-.56.87.87 0 01.2-.58.72.72 0 01.59-.24.71.71 0 01.72.47 1.55 1.55 0 01.11.65 2.09 2.09 0 01-.13.78.77.77 0 01-.75.57.72.72 0 01-.53-.18.66.66 0 01-.18-.47h.3m.46-.49a.52.52 0 00.33-.12.5.5 0 00.15-.41.54.54 0 00-.14-.4.5.5 0 00-.69 0 .62.62 0 00-.13.4.55.55 0 00.12.37.43.43 0 00.36.14zM272.32 209.08a.66.66 0 01.56.21.74.74 0 01.16.43h-.3a.61.61 0 00-.09-.23.37.37 0 00-.33-.15.45.45 0 00-.4.24 1.42 1.42 0 00-.17.67.67.67 0 01.25-.25.66.66 0 01.32-.07.79.79 0 01.53.2.7.7 0 01.22.57.88.88 0 01-.21.58.83.83 0 01-1.19 0 1.2 1.2 0 01-.25-.86 2.35 2.35 0 01.11-.76.78.78 0 01.77-.6m0 2.2a.41.41 0 00.35-.15.64.64 0 00.12-.38.62.62 0 00-.1-.35.41.41 0 00-.39-.17.48.48 0 00-.34.13.47.47 0 00-.15.39.56.56 0 00.14.38.45.45 0 00.37.15zM270.33 210.1a.46.46 0 00.32-.11.4.4 0 00.11-.27.38.38 0 00-.11-.25.45.45 0 00-.33-.11.4.4 0 00-.31.11.38.38 0 00-.1.27.29.29 0 00.13.26.48.48 0 00.29.1m0 1.19a.51.51 0 00.35-.12.42.42 0 00.14-.34.45.45 0 00-.14-.35.57.57 0 00-.37-.12.51.51 0 00-.35.12.46.46 0 00-.14.34.48.48 0 00.12.33.53.53 0 00.39.14m-.43-1.08a.57.57 0 01-.19-.12.48.48 0 01-.14-.35.61.61 0 01.2-.46.74.74 0 01.55-.2.73.73 0 01.54.19.56.56 0 01.2.42.58.58 0 01-.31.52.67.67 0 01.23.16.57.57 0 01.16.43.76.76 0 01-.21.54.78.78 0 01-.6.22.92.92 0 01-.6-.19.66.66 0 01-.24-.55.64.64 0 01.1-.37.76.76 0 01.31-.24zM267.82 209.79v-.23a1.16 1.16 0 00.45-.11.55.55 0 00.2-.35h.23v2.39h-.32v-1.7z" fill="#002868" fill-rule="evenodd"/><path fill="#fff" stroke="#002868" stroke-width=".6" fill-rule="evenodd" d="M248.79 205.32l65.06.35-1.06 2.47-61.06.12-2.94-2.94zM271.26 183.56l.12 1.29h4.11l.12-1.41-4.35.12zM287.49 183.44l.12 1.41h3.53l.12-1.41h-3.77zM272.44 181.56l-.12 1.88h17.65v-1.77l-17.53-.11zM283.38 191.2c-.24-1.29-.83-7-2.83-7.17a2.5 2.5 0 00-2.58 1.53s2.82.35 2.58 1.53-1.41 4.11-2 4.47 3.77-.24 4.83-.36z"/><path fill="#fff" stroke="#002868" stroke-width=".6" fill-rule="evenodd" d="M279.38 190.61l-.47 8 5.64.12-.23-7.76-4.94-.36z"/><path d="M274.2 196.7a45.19 45.19 0 01.24-6.32c.23-1.41 1.06-2.35 2.47-2.24s3.88 2.71 3.88 2.71 3.76-3.41 5.18-3.29a3.37 3.37 0 012.59 2.93c0 1 .13 6.27.13 6.27s-2.94-3.32-3.9-3.68-2.47-.47-2.47-.47l-.23 6.4h-1.3s-.12-3.06-.24-4.24a8.12 8.12 0 00-.58-2.23 12.62 12.62 0 00-2.83 1.88c-.85.77-2.94 2.32-2.94 2.32z" fill="#fff" stroke="#002868" stroke-width=".6" fill-rule="evenodd"/><path d="M274.32 197.16h14.12v5.88c-.11 5.18-7.14 12.48-7.14 12.48s-7.1-6.71-7.1-12.71.12-5.65.12-5.65z" fill="#fff" stroke="#002868" stroke-width=".6" fill-rule="evenodd"/><path fill="#002868" fill-rule="evenodd" d="M276.3 203.97v5.3l1 1.56v-6.86h-1zM278.5 203.97l.02 8.49.98 1.18v-9.67h-1zM280.7 203.97v11l.6.59.6-.66v-10.93h-1.2zM283.1 203.97l.01 9.53.99-1.25-.01-8.28h-.99zM285.29 203.97l.02 6.61.98-1.54v-5.07h-1zM274.3 203.97h1v3.16l-1-3.16zM287.3 203.97l.01 3.18 1.07-3.18h-1.08z"/><path fill="#fff" stroke="#002868" stroke-width=".6" fill-rule="evenodd" d="M274.2 197.05l14.24.15v5.6l-14.24.05v-5.8z"/><path d="M281.33 197.7l.59 1.81h1.91l-1.55 1.13.59 1.81-1.54-1.12-1.55 1.12.59-1.81-1.54-1.13h1.91l.59-1.81z" fill="#002868" fill-rule="evenodd"/><path fill="#fff" stroke="#002868" stroke-width=".6" fill-rule="evenodd" d="M317 194.12l.49-19.16h1.32l-.16 19.33-1.65-.17z"/><path d="M319 165.37v5.29c0 1.49-2.32 3.64-2.15 4.79s1.65 1 2.15.66 3.14-4.79 3.14-7.43.33-6.61-.33-6.78-3 2.48-3 2.48l.17 1zM308.24 190.82s-.33 6.28-.33 7.93-.17 3.47-1.32 4.46-2.15.66-2.48 1.32a1 1 0 00.16 1.16l7.44-.16s-.33-5.95-.17-8.1 1.65-5.45.83-6.11-3.47-.67-4.13-.5z" fill="#fff" stroke="#002868" stroke-width=".6" fill-rule="evenodd"/><path d="M300.47 189s4 3.14 3.8 4.3-2 2.48-1.32 3.14 1.16.49 1.16.49l5.45-5-6.28-5.13-2.81 2.2zM313.36 191.48s1.65 2.32 3.8 2.32 5-6 5-6-1 8.09-4.79 7.93-4-2.65-4-4.3zM312.7 171.49c1-.83 1.32-5.62 1.32-5.62l1.49-2.81s2.48 2.81 3.63 2.65 2.81-.17 2.81-1.16.5-2.48-.33-3.31a76.13 76.13 0 00-5.95-4.79c-.82-.49-9.41-1.48-10.07-1.48s-3.31 1.65-3.64 3.13a66.89 66.89 0 00-1 7.77c0 1.32.14 3.33.14 3.33l2.5-1.68.83 2.32 8.26 1.65z" fill="#fff" stroke="#002868" stroke-width=".6" fill-rule="evenodd"/><path d="M303.94 155.63c1.82 2 2.32 7.1 2.32 7.1s.49-2.81 1.81-3.8 4.46-1.16 4.46-2.64-3.47-2-4.46-2a6.65 6.65 0 00-4.13 1.33z" fill="#fff" stroke="#002868" stroke-width=".6" fill-rule="evenodd"/><path d="M306.26 154.8c0 1.65.66 2.31 1.48 2.48s2.81-.83 2.65-1.65-4.13-.83-4.13-.83z" fill="#fff" stroke="#002868" stroke-width=".6" fill-rule="evenodd"/><path d="M306.92 154.63s0 2 1 1.82 1.82-2.15 1.82-2.15l-2.81.33z" fill="#fff" stroke="#002868" stroke-width=".6" fill-rule="evenodd"/><path d="M306.33 146.79a10.17 10.17 0 01-.36 2.75 5.53 5.53 0 00-.86 1.72c-.06.49.55.43.55.43s-.12 2.27-.18 2.7 1 .06 1.41.8.43 1.78.67 1.59a19.23 19.23 0 001.66-1.65c.49-.56 1.22-.13 1.41-.86S311 148 311 148l-4.67-1.22zM310.22 191c-1.82.16-2.48-.17-2.64-1s-.17-6.11-.5-7.93a8.74 8.74 0 00-.82-2.64s-4.3 3.14-4.3 4.63a4 4 0 001.32 2.64l-2.64 2.3s-5.45-3.14-5.45-4.95 5.61-7.93 6.61-9.26 1.32-5.12 2.31-5.28 7.1.33 8.09 1.15 3.14 4.46 3 6.78-1 2-1.16 2.81 0 1.48-.16 2.64-1 .33-1 1.32.33 5.29-.17 6.12-.83.66-2.48.66z" fill="#fff" stroke="#002868" stroke-width=".6" fill-rule="evenodd"/><path d="M307.08 145.05c-1.15 1-1.82 1.32-1.49 2s3 .83 3.31 1.66a4.32 4.32 0 010 2.14l1.32-.33v3.8s3.31-2.64 3-5.28-3.64-3-4.63-3.14a1.92 1.92 0 01-1.49-.83zM300.94 169.48c.06.86.24 5.4-.07 6.07s-.85 1.78-.12 2.64 1.6 1.22 2 .55-.12-3.8.31-5.58.49-5 .19-5.4-2.15-.24-2.27 1.72z" fill="#fff" stroke="#002868" stroke-width=".6" fill-rule="evenodd"/><path d="M306.27 179.41a8.56 8.56 0 01-.86-3.92m.86 3.92zM303.7 167.82l.06-6.56m-.06 6.56zM314.06 165.92a12.61 12.61 0 01-1.29-1.1c-.3-.37-.67-.92-.67-.92m2 2zM317.86 165.25c-.06-3.13 3.93-3.75 3.93-3.75m-3.93 3.75zM305.54 152.8l1 .06m-1-.06zM306.09 149l1.41 1.23m-1.41-1.23z" fill="none" stroke="#002868" stroke-width=".6"/><path d="M250.25 150.16s-.52-1.94-.06-2.33 3.36-2.46 4.2-2.4 2.46 2.46 2.46 2.46l-6.6 2.27zM251.9 156.26s-10.7 7.85-10.82 9.87 4.76 7.85 4.76 7.85l2-1.91a18.35 18.35 0 00-.71-2.73 13 13 0 00-1.55-2.74s.24.12 1.43-.35a10.85 10.85 0 002-1.07 8.28 8.28 0 00.24 3.68c.59 1.31 2.49 4.52 2.49 4.52l7-.47s.24-9.28.12-11.42-2.74-6.18-2.74-6.18l-4.28.95zM253.57 191.69s2.85 2 3.92 3a11.59 11.59 0 011.43 1.43l.11 1.08h-3l-3.03-3.6.6-1.91z" fill="#fff" stroke="#002868" stroke-width=".6" fill-rule="evenodd"/><path d="M252.19 156.06c-.13.52 2.92 2.34 3.75 3.29a21.68 21.68 0 002.62 2.26 7.18 7.18 0 00-.95-3.57c-1.07-2-.62-2.34-1.09-2.46s-4.79-.18-4.33.48zM251.19 174.69a86.59 86.59 0 00-2.14 14.15 52.1 52.1 0 001.31 12.6l4.52-.59v-7.49s8.44-8.68 8.44-10-4.64-7.61-4.4-8.44a4.34 4.34 0 00-.12-2l-7.61 1.78z" fill="#fff" stroke="#002868" stroke-width=".6" fill-rule="evenodd"/><path d="M255 188.13s1.22-3.8 1.58-4.87a11.26 11.26 0 00.47-1.9s1.4 1.18 1.28 1.89-1.78-.24-3.33 4.88z" fill="#fff" stroke="#002868" stroke-width=".6" fill-rule="evenodd"/><path d="M248.24 190.92a41.85 41.85 0 00-.38-4.59 27.47 27.47 0 01-1.23-6.28 8.16 8.16 0 011.87-5.63 7.82 7.82 0 012.91-2.39s1.43 0 3.56-.07 4.08-.19 4.08-.19L259 174a20.88 20.88 0 01-4.46.78 20.59 20.59 0 01-3.62-.39s-3 2.85-2.85 5.57.91 6.66.84 7.76a20.18 20.18 0 01-.65 3.17z" fill="#002868" stroke="#002868" stroke-width=".6" fill-rule="evenodd"/><path d="M251.73 156.33a23.49 23.49 0 01.05-4 41.85 41.85 0 011.31-4.05l4.16-.12-.11 5.59-.84-.12.36 1.91a9.2 9.2 0 01-2.74.83 8.62 8.62 0 01-2.19 0z" fill="#fff" stroke="#002868" stroke-width=".6" fill-rule="evenodd"/><path d="M252.54 152c-2.61.6-4 1.75-4.8.92s.95-3.33 4.76-4.88 7.37-.71 7.61 0-1.67 2-2.62 2.14-2.73 0-3.45.48a10.57 10.57 0 00-1.5 1.34z" fill="#fff" stroke="#002868" stroke-width=".6" fill-rule="evenodd"/><path d="M251.68 155c-1.47.07-1.76-1.38-1.08-2.4s2-3 3.56-3.45 2.86 0 3 .84a2.43 2.43 0 010 1.5s-2.19-1.71-3.14-.79-.95 2.74-1.66 3.57c-.23.35-.3.71-.7.73zM250.24 172.31a2.56 2.56 0 012.38-2.5c.45 0 1.19 2.26 1.19 3.81s-1 4.64-1.79 4.76-.59-4-.59-4h-1zM250.48 201.32l-.12 4.28 9.27-.23a1.34 1.34 0 00-.35-1.31c-.6-.6-3.22-.83-3.69-1.67a5.85 5.85 0 01-.6-1.3l-4.51.23z" fill="#fff" stroke="#002868" stroke-width=".6" fill-rule="evenodd"/><path d="M254.52 156.24a13.57 13.57 0 014 4.66 3.52 3.52 0 01.13.71m-4.08-5.37z" fill="none" stroke="#002868" stroke-width=".6"/><path d="M245.2 173.26a2.77 2.77 0 012.46-1.75s2.27 1.16 2.2 1.75-1.81-.07-1.94.32 1 1.62.39 2.2-2.53-1.16-3.11-2.52z" fill="#fff" stroke="#002868" stroke-width=".6" fill-rule="evenodd"/><path d="M256.48 154.59l-.73-.1m1 .13z" fill="#fff" stroke="#002868" stroke-width=".6"/><path d="M254.91 193.38a31 31 0 01.13-5.56m-.13 5.56z" fill="none" stroke="#002868" stroke-width=".6"/><path d="M256.33 151.94a.65.65 0 10-.64.61.63.63 0 00.64-.61z" fill="#002868" fill-rule="evenodd"/><path d="M257 181.34a20.85 20.85 0 00.13-4.85m-.13 4.85z" fill="none" stroke="#002868" stroke-width=".6"/><path d="M340.92 168.21a59.65 59.65 0 11-59.65-59.56 59.62 59.62 0 0159.65 59.56zm-11.86-.21a47.79 47.79 0 11-47.79-48 47.89 47.89 0 0147.79 48z" fill="#fff" stroke="#002868" stroke-width=".6" fill-rule="evenodd"/><path d="M296.57 112.53a3.62 3.62 0 011.49 1 2.53 2.53 0 01.54 2.27l-.89-.32a1.71 1.71 0 00-.28-1.31 2.46 2.46 0 00-1.17-.81 2.13 2.13 0 00-1.81.12 3.2 3.2 0 00-1.39 1.83 3.58 3.58 0 00-.19 2.13 2 2 0 001.43 1.36 2.32 2.32 0 001.68 0 2.3 2.3 0 001.22-1.47l-2.08-.76.28-.75 2.92 1.07-1.32 3.54-.58-.21.1-.94a3.7 3.7 0 01-1.07.4 3.15 3.15 0 01-1.63-.22 3.11 3.11 0 01-1.75-1.51 3.83 3.83 0 010-3 4 4 0 011.88-2.33 3 3 0 012.57-.12zM249.79 120.42l.99-.54 5.89 3.34-2.74-5.05.8-.43 3.38 6.22-.94.52-5.93-3.31 2.74 5.04-.81.44-3.38-6.23zM244.49 124.55l.72-.66 4.76 5.25-.72.65-4.76-5.24zM234.84 134.27l.84-1.08 6 2.07-3.5-5.26.83-1.07 5.59 4.35-.6.72-3.3-2.57-.56-.45-.84-.67 3.47 5.27-.58.75-6-2.07.17.14.64.48.62.46 3.3 2.57-.56.73-5.59-4.36zM230.28 141.57a3.27 3.27 0 012.23-2 4 4 0 012.48.33 4.23 4.23 0 012.09 1.81 3.18 3.18 0 010 3 3.25 3.25 0 01-2 1.92 4.6 4.6 0 01-4.71-2 3.11 3.11 0 01-.1-3m6.1 2.6a2 2 0 00-.09-2 3.81 3.81 0 00-1.68-1.37 3 3 0 00-2.11-.22 2.27 2.27 0 00-1.42 1.33 2.35 2.35 0 000 1.94 3.16 3.16 0 001.75 1.54 3.28 3.28 0 002.06.26 2.27 2.27 0 001.52-1.44zM226.19 154.45l.25-1.09 3.79-1.2-2.85-2.76.26-1.1 3.5 3.58 2.78.66-.22.94-2.78-.66-4.73 1.63zM224.17 166.21l5.82-1.06-5.68-1.87.05-1.04 5.84-1.33-5.7-1.61.06-1.05 6.98 2.2-.05 1.01-5.94 1.35 5.78 1.93-.04 1-7.17 1.51.05-1.04zM226.82 185.17l-1.4-4.71.84-.24 1.12 3.79 2.06-.61-.98-3.34.8-.24.99 3.34 3.09-.92.27.92-6.79 2.01zM230 193.39a3.25 3.25 0 01-.73-2.94 3.86 3.86 0 011.48-2 4.17 4.17 0 012.58-1 3.59 3.59 0 013.33 4.09 4.06 4.06 0 01-1.58 2.26 4.24 4.24 0 01-2.39.93 3.09 3.09 0 01-2.69-1.35m5.2-4.11a2 2 0 00-1.83-.9 3.87 3.87 0 00-2 .82 3 3 0 00-1.2 1.74 2.21 2.21 0 00.48 1.88 2.34 2.34 0 001.7 1 3.15 3.15 0 002.18-.81 3.21 3.21 0 001.22-1.67 2.27 2.27 0 00-.54-2zM241.4 208.97l-3.39-3.89.65-.57 2.78 3.19 1.62-1.42-2.57-2.95.62-.53 2.57 2.95 1.81-1.58-2.82-3.25.63-.55 3.44 3.95-5.34 4.65zM244.4 211.98l.47-.7 1.98 1.35 3.51-5.16.8.54-3.51 5.16 1.98 1.35-.48.69-4.75-3.23zM254.7 213.93l-.56 3.26 2.51-2.2-1.95-1.06m-.62 4.42l-1-.52 1.14-7.45.92.51-.39 2.2 2.46 1.35 1.69-1.5.87.48-5.74 4.93zM259.55 221.23l.27-.8 2.26.77 2.01-5.91.92.32-2.01 5.91 2.26.76-.27.8-5.44-1.85zM272.4 219.87a1.89 1.89 0 00-.13-1 1.85 1.85 0 00-1.55-1 3 3 0 00-1 0 1.1 1.1 0 00-1 .92 1 1 0 00.23.88 3.78 3.78 0 001.06.59l.92.37a4.46 4.46 0 011.24.67 1.47 1.47 0 01.46 1.41 2.06 2.06 0 01-.9 1.45 2.67 2.67 0 01-2 .31 3.29 3.29 0 01-1.78-.83 1.93 1.93 0 01-.5-1.82l.89.14a1.72 1.72 0 00.17.91 1.79 1.79 0 001.38.78 1.69 1.69 0 001.26-.16 1.12 1.12 0 00.5-.76.83.83 0 00-.31-.82 6.5 6.5 0 00-1.21-.58l-.94-.38a3.14 3.14 0 01-1-.62 1.69 1.69 0 01-.44-1.53 1.82 1.82 0 011.12-1.53 3.83 3.83 0 012-.18 2.93 2.93 0 011.93 1 2.25 2.25 0 01.44 1.91l-.89-.14zM292.67 224.21l-5.09.91-.15-.86 4.16-.74-.38-2.12-3.85.69-.14-.81 3.85-.69-.43-2.36-4.23.76-.15-.83 5.16-.93 1.25 6.98zM304.02 220.78l-.92.31-.92-2.78-3.5 1.15.92 2.78-.92.31-2.22-6.73.92-.3 1.04 3.14 3.5-1.15-1.04-3.15.92-.3 2.22 6.72zM309.02 218.23l-.45-.72 2.02-1.27-3.32-5.28.82-.52 3.32 5.28 2.03-1.27.44.72-4.86 3.06zM325.98 204.22l-3.26 3.67-.65-.57 2.62-2.96-1.61-1.43-2.3 2.61-.64-.56 2.31-2.61-2.41-2.13.63-.72 5.31 4.7zM330.64 198.73a3.25 3.25 0 01-2.75 1.28 3.87 3.87 0 01-2.27-1.07 4.21 4.21 0 01-1.44-2.35 3.16 3.16 0 01.87-2.83 3.21 3.21 0 012.51-1.21 4 4 0 012.52 1.12 4.14 4.14 0 011.37 2.16 3.09 3.09 0 01-.81 2.9m-5-4.32a2 2 0 00-.53 2 3.89 3.89 0 001.18 1.82 3 3 0 001.95.84 2.25 2.25 0 001.75-.83 2.35 2.35 0 00.62-1.85 3.2 3.2 0 00-1.2-2 3.28 3.28 0 00-1.88-.87 2.23 2.23 0 00-1.89.91zM337.46 179.91l-.25.93-6.02-1.67-.96 3.46-.81-.23 1.21-4.38 6.83 1.89zM334.3 173.43l3.24-.69-3-1.52-.27 2.21m4.34-1.06l-.13 1.07-7.34 1.7.12-1 2.2-.45.34-2.78-2-1 .12-1 6.71 3.51zM337.98 160.67l.39 5.15-.87.06-.31-4.21-2.15.16.29 3.9-.81.06-.29-3.9-2.4.18.32 4.29-.84.06-.39-5.22 7.06-.53zM331.25 152.1a2 2 0 00-.83.6 1.9 1.9 0 00-.09 1.82 3.51 3.51 0 00.48.88 1.1 1.1 0 001.3.44.92.92 0 00.65-.62 3.7 3.7 0 000-1.22l-.12-1a4.44 4.44 0 010-1.41 1.5 1.5 0 011-1.09 2.09 2.09 0 011.7.09 2.65 2.65 0 011.21 1.55 3.27 3.27 0 01.14 2 2 2 0 01-1.35 1.32l-.31-.85a1.48 1.48 0 00.73-2.17 1.69 1.69 0 00-.75-1 1.16 1.16 0 00-.91-.07.81.81 0 00-.56.67 5.87 5.87 0 00.07 1.34l.13 1a3 3 0 01-.05 1.2 1.68 1.68 0 01-1.13 1.13 1.81 1.81 0 01-1.87-.24 3.83 3.83 0 01-1.15-1.69 3 3 0 01-.07-2.18 2.28 2.28 0 011.46-1.31l.31.85zM330.8 139.67l-.72.43-1.24-2.04-5.34 3.23-.5-.83 5.34-3.23-1.24-2.04.72-.44 2.98 4.92zM320.85 133.41l1.75-2.81-3.15 1.09 1.4 1.72m2.25-3.86l.68.84-3.88 6.47-.66-.82 1.19-1.89-1.76-2.15-2.13.75-.62-.77 7.18-2.4zM313.38 120.89l4.11 3.14-.53.69-3.36-2.57-1.31 1.71 3.11 2.38-.5.65-3.11-2.38-1.46 1.91 3.42 2.61-.51.67-4.16-3.18 4.3-5.63zM263.08 113.69a3.69 3.69 0 011.77 0 2.5 2.5 0 011.72 1.57l-.92.24a1.7 1.7 0 00-1-.92 2.43 2.43 0 00-1.42 0 2.18 2.18 0 00-1.43 1.12 3.2 3.2 0 00-.11 2.3 3.44 3.44 0 001 1.86 2 2 0 001.94.33 2.07 2.07 0 001.59-2.83l-2.15.54-.19-.77 3-.76.93 3.68-.6.15-.45-.83a3.87 3.87 0 01-.65.93 3.28 3.28 0 01-1.47.74 3.15 3.15 0 01-2.3-.27 3.86 3.86 0 01-1.65-2.48 4.08 4.08 0 01.25-3 3.08 3.08 0 012.06-1.55zM305.35 120.06a1.93 1.93 0 001.07.26 1.1 1.1 0 00.8-.68 1 1 0 000-1.17 1.73 1.73 0 00-.62-.5l-2.08-1.08-1.13 2.11 2 1m-1.39-4.29l2.91 1.52a3.4 3.4 0 011.07.83 1.68 1.68 0 01.11 2 2 2 0 01-.72.8 1.86 1.86 0 01-1 .23 1.53 1.53 0 01.35.68 1.56 1.56 0 01-.21.9l-.41.86a2.74 2.74 0 00-.22.57.62.62 0 00.07.53l-.07.14-1-.55a.75.75 0 010-.24 5.53 5.53 0 01.21-.52l.5-1.08a1 1 0 000-1.06 2.39 2.39 0 00-.71-.52l-1.93-1-1.41 2.69-.85-.44 3.28-6.28z" fill="#002868" fill-rule="evenodd"/></svg>