<svg xmlns="http://www.w3.org/2000/svg" width="600" height="400" viewBox="0 0 600 400"><path d="M0 400h600V0H0z" fill="#0072ce"/><path d="M389.82 157.64l.39-.41c-.35-1-1.48-.62-2.32-.72l-2-4.35c-.4-.84.22-1.41.62-2 .1-.53.66-1.37-.13-1.77a1.48 1.48 0 00-2 .64c-1.52 1.4-1.69-.44-2.21-1.71l-1.17-1.48a5.14 5.14 0 00-1.54-3.64c1.09-6.06-1.1-11.43-1.42-17.08 0-2.15-1.15-4-1.05-6 .11 0 .22-.05.28.12.51-.17.56-.69.5-1.14a8.43 8.43 0 00-3.08-3.55l-.17-.73c.17-.45-.4-.68-.35-1.12.4-.29 1.08.22 1.36-.41.38-2.15-2-3.49-3.59-4.44 0-1.13-.8-1.93-.92-2.93-2.41-4.35-4.59-8.8-7.83-12.8 3.59-3.36 6.91-7.17 10.9-10.65 1-1.2 2.36-2.28 2.52-4a8.61 8.61 0 00-1.81-3.43l.79-.74a7.21 7.21 0 001.61-1.55c-.52-1-1.77-1.79-2.46-2.64a5.82 5.82 0 00-2.35 2.34c-.57-.51-1.15-1.53-2.05-1.8a3.13 3.13 0 00-2.83.64c-2.9 3-6.24 5.25-8.7 8.63l-.92.37c-1.76-1-2 1.31-3.15 1.77-.63-1.47-2.77-.32-3.35-2.12l.12-.12c.66-.46.43-1.18 0-1.7A6.42 6.42 0 00348 77l-.56-.91c-.35-.64-1.34-1-1.73-1.69-4.6-3.07-8.92-6.1-13.91-8.16a77.65 77.65 0 00-17.64-5.49l.06-.11a1.53 1.53 0 00.22-1.31c-.52-.89-1.42 0-2.15 0-1.19 1-3.22.64-4.75.77.5-.63 1.29-1.42 1-2.38a13.53 13.53 0 00-5.19 1.95c-2.83-.26-5.22-.22-8-.23-6.73 1.06-13.86 1.89-20.23 4.2-.79.12-3.63 1.09-3.63 1.09-.17-.79-.95-.54-1.57-.94-2.15.8-2.13 3.57-4.45 4.1a29.65 29.65 0 00-2.46-4.57c-1.08-1.64-2.74-3.66-4.83-3.25a1.06 1.06 0 00-.16 1.14 28 28 0 012.41 9.28l-1 .74c-.31.3-.58.74-1 .45.13-7.41-3.08-13.51-6.74-19.36a4 4 0 00-2.33-1.62c1.67 4.74.45 9 1.28 13.74.06.16.4.44 0 .61a28.51 28.51 0 01-1.95-4.28 9.16 9.16 0 00-3.59-3.31c-2.26-1-3.8-3-5.9-4.38-.83-.17-1.52-1.21-2.26-1.35h-1.14l-.18 1a10.89 10.89 0 01.19 1.31c2.79 4.17 7.06 7.19 8.73 12-1-.11-1.76-1.12-2.95-1-.28 0-.33.35-.28.57.75 2 2.18 3.78 2.76 5.71-4.94-2.53-3.46-9.22-8.12-12.07-.68-.28-1.2-1.68-2-1.22a35.1 35.1 0 011.38 4.17 19.9 19.9 0 01.7 3.17l-.17-.23c-1.7-.39-2.89-1.91-4.6-2.18l-.33.28c3.07 2.93 4.73 6.59 6.79 10 1.44 3.78 2.94 7.62 6.3 10.48-.51.66-1.15 1.2-1.61 1.8l-1.25 1.26a23.87 23.87 0 00-2.85-1.6c-.62-.22-.62.51-.61.91l2 3-.87.62a.76.76 0 01-.08.11l-.53.54c-3.73 5.09-6.78 9.78-8.68 15.67-.63-.12-1.59-.62-1.93 0-1.07 1.32-.3 2.64.51 3.9l-.7 1.24a3 3 0 00-1.08-1.19c-2.37 1.21-.26 3.58-.19 5.21a69.36 69.36 0 00-3.87 16.16c-1.06 1.25-2.52 2.49-3.14 4.14l.12.11a4.5 4.5 0 00-.61 1.77c-.67.85-2.2.45-3.45.69-.84.23-.38 1.08-.49 1.64.63 1.14 1.81.34 2.83.72l.73.1c-.09 1.93-2.31 1.61-3.54 2.13s-3 .24-4 1.16c.45.15.63.67.91 1 .35 1.19-1.12 1.58-1.62 2.54.07 2.28 0 4.14.16 6.46.5.39.11.85-.11 1.3a52.39 52.39 0 00-.35 6.74c-.12.62.56.33.79.67v6.34c.23.51.73.22 1 .5-.71 2.94.61 6.17.17 9.39.23.39.69.29.91.56-.27 1.13-1 2.22-1 3.29-.2 3.11-.75 6.57-.67 9.67l.23.23c.17.17.34-.06.51 0-.06.17.06.35-.11.45-.88 3.58.83 6.91.17 10.7.35.63 1.31.39 1.93.39a4.36 4.36 0 01-1.23 1.93c-1.68 2.26-.14 4.41-.64 7l.8.39c0 .39-.39.58-.39 1 .35 1.58.42 3.89 1.95 5.14.86.1.79-.91 1.24-1.43a12.29 12.29 0 01.77-2.66c2.26-1.77 2-4.09 2.11-6.69-.35-1.75 1.06-3.23 1.16-5.1-.24-2 1.21-3.51 1.49-5.44-.63-2 1.16-3.29 1-5.09-1.77-2.76 1.21-5.39-.22-8.16 1.35-.91.78-2.26 1.17-3.57 1.06-2.09-1.33-3.26.47-5.2 1.4-1.82-.43-5.37 2.5-6.52l1 1.12.11-.12.4.4a83.74 83.74 0 005.92 13.54c2.18 4.4 5.48 8.39 8.23 12.56-2 2.12-4.11 4.5-6.3 6.44-1.54-2.3-2.18-5.19-4.18-7.39l-.11.12-.23-.22a3.89 3.89 0 00-4.07 1.15A7.2 7.2 0 00224 201c-1.28 3.23 3 4.56 4.29 6.3.62.51 1.86.55 1.87 1.41-2.51 4.48-7.25 7.5-10.56 11.37-2.19 3-6.7 5.71-7.13 9.73a.89.89 0 001.31.67c7.83-5.25 14.07-12.25 21.38-19.1.34-.23.4.51.68.11a2.1 2.1 0 001.75.39 4.77 4.77 0 00-.41-2.32c2.36-2.5 5.74-5 8.49-7.47-.2 2-1.15 3.86-1.76 5.78-.67 1.14-1.92 1.26-2.88 1.9-1 .28-1.76-.56-2.54-.21-.85.91-.16 2.2.13 3.17-.51.67-1.3-.11-1.92.29-1.53.75-.89 2.55-1.33 3.79a2.41 2.41 0 001.47 1 14.54 14.54 0 01-.72 2.66c-.39.85-1.52 1.36-1.51 2.43.69 1.87-.37 3.64-.25 5.5l.4.62a7.33 7.33 0 001.81-.24c.24 1.3-1.06 1.76-1.91 2.28-1.17 2.21-.41 5.09-.74 7.41-.16 1.24-.21 3.06.42 3.79-.11.91-1.07 1.92-.38 2.83.13 1.7.82 4.13.43 5.94 0 1-.6 3.06.54 3.61 0 2.33.54 4.08.32 6.34 1.31 1-.32 2.38.25 3.44.12.52.52.75.91 1a6.75 6.75 0 00.54 5.43c-.1 1.69.87 3.22 1.44 4.74.85-.34.85-1.47 1.12-2.2a8.12 8.12 0 001.71-7.88c2-1.54 1.16-4.2 1-6.24 1-1.63.77-3.46.7-5.37.95-1.54.78-2.72.48-4.42 1.35-2 .65-4.36 1.71-6.52.5-.91-.69-1.8.16-2.66 1.12-.29 1.12-1.64.88-2.43-.58-2.55.31-5 0-7.75a19.51 19.51 0 001.5-4.48c.5-1.36-.53-2.71-.31-4.08.46-.46.5-1.81 1.63-1.31.8 0 .62-1 .51-1.42-.75-1.58.89-2.55.48-4-.81-2.26-3-4-3.6-6.36.49-1.6 1-3.18 1.49-4.82a3.07 3.07 0 01.55.58l.45.87a3.28 3.28 0 00-.36.81c1 2.87 4.36.53 5.67 3.12a1.22 1.22 0 00-.27.91c.23 1.36 1.71 1.8 2.79 2.13 1 .51 2-.69 2.55.61 3.29 1.73 6.42 4.37 9.76 6.1v.22c-.05.17-.27.06-.5.11-.11.68-.9 1.2-1.4 1.65-1.19-.32-2.28-1.07-3.69-.94-.05.41.23.57.12 1a2.89 2.89 0 001.53 1.3 5.07 5.07 0 003.06-.3 23.78 23.78 0 01-1 2.44 9.1 9.1 0 01-6.48 3.89 7.39 7.39 0 01-.21 1.92c.12.73.69.91 1.25 1.13.29.5 0 1.12-.1 1.52-.16 1.36-.71 3 .93 3.79.17.89-.61 1.42-.49 2.32.06.62.68.78 1 1.12.11.23-.11.34-.16.52.4 2-.54 4.07 1.22 5.59-1.41 1.08.24 2.76-.54 4-.05.62.85.33.68 1-.61.69-.43 1.71-.49 2.67 1.43 1.34-.43 3.16-.36 4.86a10.58 10.58 0 01.67 7.86c-.05.68.8.4 1 .62.05.17-.12.17-.23.28 0 2.15-1.22 4.25-.47 6.51 1.16 4 .06 9.17 3 12.54a2 2 0 001.23-.91 33 33 0 002.38-8.5c1.58-1.37 1.62-3.46 1.88-5.23 0-2.75.82-5.42.8-8.3 1.23-3.19 2.39-7.26.84-10.6a1.43 1.43 0 01-.74-1c.78-1.76 1.55-4.43.46-6.45-.28-.57.29-.34.62-.52a1.24 1.24 0 00.73-1c.11-.62.28-1.14-.24-1.64-1.14-2.87 1.21-5.44.69-8.2-2.22-2.2.31-4.88-.67-7.59-.63-1.12-1.93-.27-2.84-.77-2.32-1.11-.36-3.78-.54-5.47l.91.15c3.12 2.35 7.2 2.44 10.88 3.44.46.28 1.31.27 1.37 1a2.11 2.11 0 001.81.89c1.24.16 2.08-1.6 3.16-.86.85-.18.91.73 1.43 1.23 1.13.73 2.65 0 3.78-.65l.47 1.42c-.23 1.53-.13 3.09-.26 4.58l-.17.22c-1.25-.27-2.21-1.44-3.07-2.4-1.13.34-1.18 1.36-1.85 2.15-.05.79.86 1.64 1.48 2.2a1.49 1.49 0 01-.73.24c-1.07.74-2.83.17-3.68 1.21.07 2.08-.25 3.79.38 5.7.52.52 1.08-.06 1.59-.17a7.12 7.12 0 01.35 2.71c-3.16 1.09-.76 3.9-1.6 6-.61 1.69 1.42 1.23 2.05 1.34-.62 1.19.19 3.39-1.79 4-.51.4-.33 1.07-.33 1.76.06.9 1.19.78 1.65 1.06a43 43 0 00-1.09 6.07c0 .62.62.66.91 1a7.83 7.83 0 00-.15 3.45c-1.29 1.43-1.05 3.75-.7 5.11.06.33.28.22.51.38-.16.17-.05.51-.1.74-.5 1.65-1.28 3.23.36 4.57a36 36 0 00-.86 5.79c.4 2.2 1.78 4.35.84 6.73-.55 3.51 1.45 6.66 1.47 10.29 1.53 0 1.63-1.82 2.24-3 .67-2.1 1.56-4 1.66-6.35-.07-2.71 1.44-5 2.61-7.37.84-1.32.61-3 .48-4.47.84-1.25.89-2.95 1.11-4.36 0-.51-.52-.85-.24-1.36 1.45-2.56 1.38-6 1.58-9.06 1.12-2 .82-4.71 1-6.92 1.11-3.06 1-6.39 1.36-9.57-.12-1-1.6-2.25.09-2.89.33-1.86 1.11-4.18.07-6l1-1.23c.27-.75-.41-1.31-.64-1.93a16.38 16.38 0 01-3-4.34c-.57-.78-1.64-.1-2.15-.73.15-2.19.09-3.44.07-5.76l-.23-.45c2.38-.13 5-.15 7.07-.44a56.34 56.34 0 0020.75-3.36c.51.79 1.58.28 2.21.38a21.22 21.22 0 01-.49 3.69c-.11.16-.39.28-.28.56-1.46 1-1.59-1.46-2.78-1.79a3.76 3.76 0 00-1.29 2c-.22.79-1.18 1.88-.26 2.55-.62.51-1.41.46-2 .75-.91.34-.73 1.08-.62 1.82s.92.78 1.2 1.12c-.45.51-1.24.18-1.69.69-.39 2.26.08 4 .54 6.1.12.73 1 1.75-.21 2-.84 1-.54 2.44-.14 3.4.56.17 1-.23 1.53.17a12.54 12.54 0 00-1.12 2c-.32 3.72.95 7.51 1 11.24l1.3.11c-.49 1.36-1.45 2.49-1.38 4.08a13.16 13.16 0 01.68 9 23.26 23.26 0 01.42 3.39c.11.62.56.11.9.39l.14 3.84c.17 1 0 2.39.92 2.88l-.28.4a67.84 67.84 0 00-.23 8.26c-.05.51.35 1.19.91.91a3.15 3.15 0 001.91-2.45 8.15 8.15 0 01.61-2.77l-.12-.12c1.8-1.77 2.07-4.31 2.28-6.18a68.48 68.48 0 011.81-8.9c-.42-3.79 1.48-7.3.61-11 1.29-1.31.76-3 1.84-4.42.32-1.64-.48-3.39.36-5 .21-1.53-.81-2.71-.93-4 .72-2.33-1.72-3.89-1.68-6 1.07-.69 2.77 0 3.45-1.27.16-.79-.3-1.52-.41-2.31a2.62 2.62 0 011.12-.46c1.41-.3 0-1.49.61-2.05l-.22.23-1.66-2.25c-.4-.62.39-1.13.1-1.69a17.61 17.61 0 01-3.38-6.61c-1.76-.83-1.32-3.1-1.27-4.41 2.38 1 5.33 1 7.76 1.2 3.17-.35 5 3.09 8.27 2 .85.11 2-.57 3.05-.63.8 1.52 1.61 3 2.46 4.56a1.14 1.14 0 01-.39.23 13.2 13.2 0 01-.43 4 1.64 1.64 0 001 2.13c-1 1.09-.76 2.78-1.21 4.2.06.68.74 0 1.13.4-2 1.47-1 4.47-2.39 6.29-.39.85.18 1.53.52 2.14-1.11 2.16-.19 4.42.83 6.34a4 4 0 00-.76 3.44c1.31 1.52-.72 2.62-.48 4.2a7 7 0 01-.81 6.4c-1 1.42.64 2.54.36 3.9-.78 2 1 3.61.43 5.65a1.26 1.26 0 001.82 1.24 3 3 0 001.23-2.67c-1.15-2.65 3.14-4 2.5-6.81 0-2.87 2.12-4.82 2.5-7.59a3.4 3.4 0 001.39-3.36c-1.26-2.81 1.27-5 1.25-7.52-.37-2.45.93-4.13 1.17-6.4l.12-1a48.67 48.67 0 013.9 5.57c1.2 2 3.08 3.77 3.95 5.92.28.11.28-.23.39-.34 1.72 2.48 4.38 3.59 6.77 4.87 1.06-1-.36-2.49-.65-3.67-.12-.62-.8-1.12-.75-1.63-.34-.8-1.3-1.64-1.42-2.32a2.62 2.62 0 00-1.54-1.45c-1.6-2.71-2.58-5.65-4.35-8.29-1.32-2.55-3.32-4.91-4-7.62l1.13-.62a9.34 9.34 0 00-.94-4.82 8.21 8.21 0 01-.86-1.8c.51.28 1 .84 1.53.9a3.49 3.49 0 001.43-2.3c.34-1.3-1.08-2.15-1.82-3.16a7.82 7.82 0 011.63-.12c1.13-.51 1.12-1.81 1.51-2.85-.06-.67-.68-1-.92-1.62 2.42-3-2.22-4.29-2.81-7.11.45-.46.73-.41 1.41-.41 1.41 0 .78-1.93 1.23-2.84-.07-1.24-1.54-1.46-2.05-2.48-2.79-2.58.24-5.77-.46-9 2.46-1.43 2.25-4.05 1.76-6.62l.62-.37c.09.56.2 1.13.3 1.72a1 1 0 001.25.55c.95-.85.92-2.37.68-3.8l.61-.48a30.19 30.19 0 002.22-4.16c.65-1.63 1.31-3.24 2-4.86l.21.57c-.18 1.78.51 3.73.38 5.52 0 .72.91.66 1.42.78l-1 1.3c-1.46 2.05 0 4.14-1.2 6.13.8 2-1.79 4.36.15 6.05-.34.39-.91.68-1 1.19-.39 1.08.64 1.86 1.15 2.65a5.41 5.41 0 01-.78 1.53c-.95 1.53.08 3-.08 4.59a3.19 3.19 0 00-.88 3.29c1.76 1.57.08 3.72.82 5.64-2 2.68.72 5.38.84 8.15h.35c1.12-1.37 2.58-2.8 2.91-4.6 1.24-1.42 1.62-3.24 2.74-4.78 1.82 1-.68-.73.56-1.25-.58-2.31 1.67-3.69 1-5.78.21-3 1.78-5.37 2.95-8 .2-3.11 1.82-6.34 2-9.46 2-2.33 2-5.44 2.43-8.39-.47-2.88.76-5.54.45-8.66 2.71-2.56-.25-6 1.25-9.06-.53-2.42.76-5.2.29-7.16zm-168-15.31a11.22 11.22 0 00-1.65-1 16.53 16.53 0 011.33-4.89l.64-.28c-.05 2.1-.2 4.08-.32 6.17zm125.37 77c-3 0-5.15-1.89-7.41-3.57l.7-.57c1.56-.89 3-2.16 4.63-2.52l2.25 5.75c.28.23-.17.35.23.52 0 .22-.29.33-.4.38zm3.7-6.12c-.48-1-1.16-2.24-1.67-3.53l.88-1c1.15-1 2.66-1.72 3.74-2.61-.21 2.52-1.84 4.79-2.95 7.13z"/><path d="M372.2 204.08a3.48 3.48 0 00.08 1.15c1.47.39 3.28.38 4.18-1a6.51 6.51 0 00.21-1.69 32 32 0 00-3.2 1.14l-1.27.44M380.07 204.93a5.27 5.27 0 01-.68-2.45c.17 0 .34 0 .45.16 1 .56 1.07-.8 1.58-1.2 1.08 1.07-.56 2-.66 3.12a4.45 4.45 0 01-.2.8l-.48-.43M384.68 191.87a47.57 47.57 0 01-1.81 6.9l-.23-.22c-.85-1-.92-3.17-2.56-3 0 1.17.07 2.82-.77 3.9-.74-.23-.29-1.41-1.14-1.47a9 9 0 01-4.15 2l-1.06.39c-.37-.42-.83-.83-.77-1.4s.56-1 1.06-1.26a14.24 14.24 0 004.91-1.27c1.07-1.2 2.36-2 2.8-3.47l1.26.9c1.23.29 1.34-1.24 1.79-2.19l.67.21" fill="#9a3b26"/><path d="M373.08 200.5a1 1 0 01.19 1.28 4.28 4.28 0 00-1 2l1.21-.55c1.1-.66 2.42-.72 3.61-1.17a5.47 5.47 0 01-.38 3c-1.36.52-2.48 1.14-4 .59-.22.45 0 .9-.1 1.47-.34 1-1.46 1.76-1 3l1.52-1.54c1.47 1.35 2.88.15 4.58.08.4 0 .57.79 1 .39.61-1.08 1.63-1.54 1.51-2.78 0-.13.09-.27.14-.4l-.64-.61a3.79 3.79 0 01-.89-3.22c.74-.35 1 .51 1.53.38a11.18 11.18 0 011-1.93c.69.1.3 1.65 1.09 1 0-.23-.06-.51.22-.62a6.55 6.55 0 00.21-1.64c-1.19-.56-1.48-2.08-2.17-3.15-.56.73.17 1.25-.21 2-.39.62-.38 1.63-1.29 1.76-.51.05-.68-.51-.85-.85 0-.11-.12-.17-.18-.28-1.43.65-2.61 1.55-4.16 1.57l-.93.24" fill="#efe8c7"/><path d="M360.65 242a13.91 13.91 0 00-1.9-1.68 6.83 6.83 0 001.15 3.61l-.5.13c.23.26.34.68.74.84a10 10 0 00.37-1.69l.14-1.21M298.64 268.66a.53.53 0 00-.2-.09c-.11.23-.11.62-.5.63-.57.12-.51-.51-.91-.72-.5 1 .52 2 .75 2.93a4.32 4.32 0 01.19 2.37l-.4.29c-.06-.17-.28-.05-.39-.12-.11.91-.16 1.93-.21 2.89-.28.69-.91.24-1.3.06a1.11 1.11 0 00-.63-.5l-.11.11a15.58 15.58 0 002.57 3.38c.83-1.58 1.39-3.74.7-5.44 1.38-1.25 1.1-3.31 1.47-5.07l-1-.72" fill="#9a3b26"/><path d="M218.36 139.82v-1.83a12.66 12.66 0 00-3.28.41c-.17.28-.06.74-.11 1 .8.9 1.93 0 2.89.43h.47" fill="#efe8c7"/><path d="M380.44 150.55a5.41 5.41 0 01-.54-1 10.27 10.27 0 00-2.18-3.78c-.51 0-1-1.07-1.65-1.12-.34.06-.79-.1-1 .35.3 1.3 1.43 2.31 2.06 3.55 1 1.4 1.33 3.21 2.92 4.34.51-.12.28-.8.16-1.14s-.45-.51-.4-.9c.43 0 .5.57.82.76l-.17-1M228.47 110.27a6.57 6.57 0 01.55 1c.86.84.58 1.52.19 2.54a5.1 5.1 0 01-1.53-2.35l.79-1.19M248.75 203.7c-.7-.85-1.52-1.7-2.29-2.53a5.62 5.62 0 001.46-1.25 44.85 44.85 0 004.16 3.88 9.22 9.22 0 01-2.71.3l-.62-.4" fill="#9a3b26"/><path d="M368 186.14c-.12-.6-.26-1.18-.36-1.64 4.8-9.65 7.34-20 9.37-30.62a28.72 28.72 0 01.71-3.28c2.55 1.85.71 4.29.78 6.73-1 4.58-1.81 9.06-3.59 13.15-.22 1.08-1.12 2.43-1.23 3.29-2.08 3.88-3 8.32-5.26 12l-.42.35M371.91 112.67a18.25 18.25 0 012.2 1.19l-.07-.78h.15c-.18-.57.06-1.39-.87-1.46a10.49 10.49 0 00-2.33-1.29 1.8 1.8 0 00.36 1.31l.56 1" fill="#9a3b26"/><path d="M358.34 79.62c2.73 4.32 2.05 9.9 2.24 14.27 4.78-5.12 9.79-9.84 14.68-14.74.67-.91 1.23-1.71.71-2.89l-.23-.17-.11.11c-.58-2.6-3.25-4-4.79-6.19a2.33 2.33 0 00-2.27-.1c-3.12 2.77-6.88 5.61-9.51 9.16l-.72.55M375.23 72.73c.43-.5 1.18-.78 1.39-1.46a11.64 11.64 0 00-2.05-1.91 6.15 6.15 0 00-1.8 2.16c.54.56 1.15 1.17 1.72 1.84l.74-.63" fill="#efe8c7"/><path d="M344.92 78.24a2.1 2.1 0 00-.33.26c-.06 0-.12-.07-.12-.17-.06 0-.06.1-.17.1v1.09c1.64.49 4.07-.77 4.59 1.44-.45.23-.39.62-.5 1 .63 1.41 1.92.16 3.05.27l2.16 1.52-.11.51a46.16 46.16 0 00-5.27 4.74c-.79.69-1.75 1.83-3.05 1.21-.46-.15 0-.5 0-.79-.23-1.47.49-2.77-.19-4.18a17.3 17.3 0 00-5.32-.59 12 12 0 00-.5 2 17.48 17.48 0 01-.71 3h-4.47c-.62 1.42-.44 3.4-.48 4.87.34.28 1.13.56 1.53.28.57.45 2.09 0 2.77.43.18 1.13-.43 2.78.42 3.45-8.54 8.76-17.77 17.31-26.08 26.31h-.34c-.42-2.38-.49-5.61-.74-7.81-.51-.33-.06-1.36-1-1.12-1.24 1.43-1.57 3.18-2.41 4.82-1.28 2.27-1.27 4.82-1.47 7.42-.16.8.4 1.58-.15 2.27-.45-6.84-.78-14.14-5.45-19.55-.46-.55-.69-1-1.42-1.12a1.43 1.43 0 00-.39 1.25c2.06 3.66 1 8.37-.15 12.11-.18-2-.08-3.9-.14-5.71.35-5.32-1.88-10.18-4.57-14.41-.51-.33-1.19-.71-1.75-.32-.34.34.17.79.11 1.24a76.4 76.4 0 01-.56 17.6 80.28 80.28 0 001.63 8.14c.07 1.13.42 2.15-.14 3.16-.39-.27-.74-.89-1.14-1.22-1-2-2.85-3.89-4-6 1.18-2.16 2.12-4.43 3.13-6.64 1.87-8.21.39-18.21-2.71-26.12-.86-1.36-1.5-3.5-3.42-3.66-.51.23-.28.86-.39 1.13 2.35 5.31-1.29 10.7.72 16.3.09 5.37 1.77 11.19-.11 16.8-.18.11-.34.41-.62.29a5.86 5.86 0 01-2.25-5.87 14 14 0 002.39-6.74c-.1-6 .37-12.63-4.47-17.41-1.48-.67-2.51-2.42-4.09-2.62a13.44 13.44 0 00-.29 6.84 14.84 14.84 0 012.83 10.56l-1.86-1.4c-1.14-.16-2.2 1-2.94 1.71a33 33 0 01-1.83-3.32 1.94 1.94 0 01.78-1.25c1.39-5.16 3.28-10.09 1.43-15.57-.63-1.64 1.64-.52 2.14-1.54l.19-5.61c-1.47-.66-3.29-.71-4.7-1.09-.35-1.42.09-3.12 0-4.58a10.56 10.56 0 00-5-1.28 11.54 11.54 0 00-.53-3.39c0-.39-.57-1.06 0-1.29.4.5.12.9.63 1.29C269 71.06 269 68.9 270.3 68a67.51 67.51 0 0111.57-3.42c6.32-.76 12.8-1.92 18.62-2l.71.09a2.2 2.2 0 00-.15 1.67c1.82.61 2.7-2.34 4.74-1.9.4.22.44-.16 1.42.41 1.08 0-.11 1 .75 1.43 1.24.34 2-1 3-1.37.57.33 1.3.22 1.81.62 3.57.42 6.53 2.22 9.93 3 7.4 3.51 15.23 6.14 22 11.11l.22.61" fill="#b3995d"/><path d="M347.51 76.51c-9.51-8.17-21.66-13.39-33.77-15.64l-2.36 1.88c2.1 1.12 4.7.88 6.75 2.11 7.87 2.1 15.08 5.85 22.35 9.53 1.43.77 3.51 2.33 4.92 3.32l2.11-1.2M339.1 214.92c-.25-.18-.5-.35-.77-.51l1.06-.88c1.65-.82 3.16-2 4.74-2.91a7.78 7.78 0 01.63 1.14c-1.49 1.06-3.17 1.89-4.55 2.86l-1.11.3M326.38 219.72l-.07.55a3.18 3.18 0 00-.33.87 66.27 66.27 0 01-8.08 2.38c-4.35 1.15-9.44.74-13.74 1.33-2.6 0-6 .49-8.65.05l2.13-1.87c3.51.37 6.73-.21 10.3-.36 6.35-.8 12-.33 17.77-2.76l.67-.19" fill="#9a3b26"/><path d="M346.11 165.81a1.82 1.82 0 01-.74.22c-2.83-.1-4.68 2.62-6.08 4.5-2.13 3.76-2.89 8.11-5.87 11.41-.51-1.19-1.65-2.13-1.83-3.55a18 18 0 003.76-4.77c3.59-5.06 2.18-11.79 2.6-17.73.55-2.5.93-5.1.18-7.47-.23-.29-.12-1-.74-.79.06.34-.39.51-.51.8-7.32 5.3-4.09 15.08-7.27 22.33-.83 1.72-.48 3.57-.86 5.33a44.88 44.88 0 00-3.54-3.77l-.06-.5 2.52-4.16a62.19 62.19 0 003.4-8.91c.81-5 3.22-9.52 3.13-14.55-.41-2.09-.2-4.47-2-6a16.14 16.14 0 01-3.92 5.06c-4 3.53-6.57 8.7-4.38 14.17l-.22.63c-.28-.06-.34-.5-.68-.34-2.38.36-3.54 3.19-4 5.35a5.36 5.36 0 01-1.43-3.67 15 15 0 003.5-10.44c-.37-4.35-1.76-8.69-2.41-13.22 4.45-3.59 7.65-7.23 11.64-11.44l17-16.3c2.86-2.9 5.79-5.58 8.82-8.32a45.33 45.33 0 00-1.48 6.92c0 1.63 1.26 3 1.56 4.68a14.23 14.23 0 00-.33 10.58 17.62 17.62 0 00-1.19 8.9c-2.07 2.84-1.14 6.51-.33 9.79-1.68 2.66-1 6.68-.16 9.67-1.29 2-2.64 4.21-2.51 6.7.07 1.69 2.17 3.15.77 4.8-.44 1.3.41 2.43.42 3.55a2.91 2.91 0 00-1 2.45c0 .91.8 1.75.52 2.55-.84.9-.55 2.26-.09 3.28a2.26 2.26 0 00-.78 1.13 2.69 2.69 0 00.69 2.32 10.22 10.22 0 00.13 3.45c.34.45.85-.17 1-.52-.18-.68.84-1.08.38-1.7a12.62 12.62 0 00.43-3.79 7.7 7.7 0 00.53-4.08l.23.23.4-.46.08-4.64.39-.11a3.58 3.58 0 00.73-1.65 12 12 0 00.59-5.49l.56-.51c.21-2.1 1.22-3.18 1-5.33a9 9 0 00-.41-2.15c-.24-1.18-.81-2.31.48-3.23l-.11-.11c1.23-1.88.82-3.79.92-5.6a8.65 8.65 0 001-3.35c-.45-1.07.79-1.47.5-2.55 2.92-3.08 2.38-7.25 2-10.93 2.24-3.3 1.25-7.36.72-10.92a24.18 24.18 0 001.74-11.61 13.32 13.32 0 01-.58-1.81 31.51 31.51 0 013.78 6.86l-.17.22c-.12-.16-.29-.1-.46-.1-.39.17-.05.62-.27.79a4.05 4.05 0 002.67 2.14 6 6 0 00.57 1.65l.23.84a5.43 5.43 0 01-1.64-.73.69.69 0 00-.9.11c0 2.72 3.07 2.53 4.44 4.73 2.59 7.23 3.1 15.14 3.26 23.12h-.56c-.9 1.41.64 2.65 1.43 3.71-.33.35.29 1.3-.5 1.14-.05-.05-.11-.11-.11-.17-.63-.21-1.36-.5-1.81.18-.27 2 1.77 3.22 2.35 5-2 11.83-4.66 23.69-9.85 34.29l-.63-.78a1.23 1.23 0 00-.79-.35 8.05 8.05 0 00-.4 3l-.77.43-.06-.32-.4-.56c-.68-.63-1.07.16-1.52.51-.62-.22.44-1.25-.62-1.13-1.7 1.54-3.49 3.53-3.93 5.8.24 2-1.05 4.3-2 6-.83-5.66 4.41-9.69 2.34-15-.58-1.63-.93-2.81-1.56-4.34-.28-.52-.23-1.36-.8-1.52.13 3.21-1.71 6.4-3.62 9.19-.78 1.92-1.9 3.68-2.73 5.61l-.18-.39a124.17 124.17 0 011.05-21.85 11.12 11.12 0 00-.54-4.64 12.36 12.36 0 00-2.77 2.15l-1.34.22M307.48 155.44a6.32 6.32 0 00-3.31.94c-2 1.15-.49 2.83-.42 4.36-1.13-.26-2.66-.09-4.08-.54a45.78 45.78 0 00-5-.81c.44-.86 1.35-1.36 1.85-2.17l.26-.64a8.27 8.27 0 001.82-1.18c2-2 5.71-1.05 7.86-.83a2.14 2.14 0 01.84.42l.16.45" fill="#b3995d"/><path d="M328.57 208.69a32.44 32.44 0 015.64-1.34 7.47 7.47 0 010 3.33 24.34 24.34 0 01-5.77-.18v-.53l.16-1.28" fill="#9a3b26"/><path d="M273.58 115.2a29 29 0 00-5.32-8.71c-1.86.8-3.61 2.62-5.47 3.54-7.22 2-13.14-3-20.49-1.74-.5-.27-1 .19-1.3-.39.5-1.07 1.91-2.1 2.92-3 .73-.63 1.75-.46 2.54-.92-2.22-2.82-2.31-7-5.77-8.86-.11-.5-.57-1.06-.29-1.52a1.2 1.2 0 011.41-.29c5.49.65 7.56 6.63 12.11 8.87 2.15.49 4.47.13 6.51.68 2.27.27 4.2 1.91 6.63 1.26-.86-2.25-2.58-5.12-5.35-5.33a38.91 38.91 0 00-10.31-1.47c-.11-.28-.85-.27-1.3-.45a20.13 20.13 0 01-8-6.1l-1 .86c-.55 1-1.43 1.87-1.94 2.88-3.25 4.72-6.78 9.5-8.45 14.93.18 1.64 1.38 3.16.94 4.69-.34-.45-1.13-.55-1.42-1.22l-.9 1.41a6.19 6.19 0 011 3.5c-.22.23-.45.51-.79.41l-1-.73-.45.51c-1.05 3.69-2.76 11.73-2.76 11.73-.9 9.22-.89 18.39 1.42 27a45.27 45.27 0 01.95 6.22c.91 1 2.67 1.29 2.73 2.75-.56.69-1.35.53-2.09.59 0 .67.35 1.29.07 2 1.37 1.07 3.07 1.46 4.1 2.81.34.62-.45 1-.9 1.25H231c.23 1.25 1.2 2.54 1.55 3.73A106 106 0 00244 194.45l3.65-3.87 18.21-18.79c.26-.22 0-.35.28-.63.68-.06 1.08.5 1.64.62-.17-1.13-.64-2.82.21-4 3.66-3.2 7.2-6.67 10.74-10.15a9.65 9.65 0 01-2.05-1.62c.62-.58 1.47-.86 2-1.31-1.64.06-3.67.75-5.32.19-1.41-.55-2.32-.49-3.69-1.16-.39.17-.67-.28-.9-.44v-.4c1-.29 1.74-1.14 2.76-1.54-2.16-.84-5.05-2-4.95-4.84-.23-.5.33-.63.62-.74 2.14-.13 5.21 1.83 7.63.35 3.45-.81 8.15-.16 11.42-2.79-4.36.31-8.7 2.32-12.84 2.23-2.77-.84-5.89-1.37-8.28-3.46a8.93 8.93 0 01-3.81-2.69c3.66-3.13 7.53.64 11.72-.18 2.76-.53 4.9-2.69 7.62-2.37 3-.58 6.74 1.65 9.16-1.19-.45-.39-.58-1.12-1.08-1.35.1-.63-.64-1.24-1-1.69a4.1 4.1 0 00-2.22-1.74 5.34 5.34 0 00-2.93 1.15c-1.74 1.08-3.54 2.45-5.4 3.37-1.7.52-3.9 1.21-5.78.66-3.56-.88-7.25-1.93-9.81-4.69-1.37-1.8-2.23-3.83-3.6-5.58-.17-.45.27-.68.39-.85 1.35-.46 2.38.84 3.57.71 3.4 1.5 6.87 4.15 10.94 2.87 2.59-1.2 5.65-.6 8.19-2l-2.09-2.46c-2.21.64-3.72 2-6 2.35-5.08 1.68-8.23-3.68-13.54-2.23-1.13-.44-2.72-.38-3.86-1.1-1.47-.22-2.26-1-3.68-1.28a4.35 4.35 0 01-2.27-2.48c-.63-.27-.52-1.06-1.15-1.51h.12a25 25 0 00-2.68-2.77c.39-.9 1.52-.4 2.26-.51a33.14 33.14 0 016.12 2.1c2 .61 4-.08 6.23.86a14.31 14.31 0 016 2.91 12.61 12.61 0 002.56.6c0-.51-.52-.95-.64-1.52a5.56 5.56 0 01.32-3.16 11.08 11.08 0 014.89.08l-.08-1.16" fill="#b3995d"/><path d="M327 219.49c.65.19 1.29.39 1.91.62a2.59 2.59 0 01-2.26 1.54c-.44-.43 0-.79.1-1.18l.25-1M364.92 186.77c.06.33.13.65.19 1l.69-.07c-.08-.42-.14-.84-.19-1.26l-.62.49M241.42 86.82l2 1.21a18 18 0 012.63-3.29 18.59 18.59 0 00-1.87-1 10.75 10.75 0 01-1.75 2l-1 1.07M301.43 62.17c.2-.34.42-.68.61-1a12.66 12.66 0 001.06-1.41 38.29 38.29 0 00-9.85.06c-6.95 1-13.51 2-19.83 4.36a5.57 5.57 0 00-2.1.85 6.4 6.4 0 01-.82 2.45c1.7-.4 3.45-1.25 5.25-1.67 5.93-2 11.42-2.12 17.69-3.17 2.23.1 4.78-.5 7.18-.46h.81" fill="#9a3b26"/><path d="M259.51 71a.71.71 0 01.37-.23"/><path d="M258.56 75.31c-.15 1.56-.41 3.14-.54 4.71a5.69 5.69 0 00.92 1.8c-.19-2.84 1.94-4.87 1.59-7.66-.23.07-.44.36-.65.59l-1.32.56" fill="#b3995d"/><path d="M308 58.08c-.73 1.58-2.64 2.67-3.76 4.09-1.13.46-1.69 1.54-2.82 2 .05-1.93 1.56-3.63 3.14-4.9a13.77 13.77 0 013.44-1.19M314 59.06c.3 1.3-1.29 1.7-1.79 2.43-1.29.87-2.65 1.66-3.89 2.41-.06-.45.34-1 .62-1.48a8.67 8.67 0 015.06-3.36M310.06 60.33l-1.87 2.11-1.39-.07a5.6 5.6 0 01-1.42-.31l1.8-1.94c.8.13 1.86 0 2.88.21M268.25 69.77a2.84 2.84 0 01-.78 1 6.54 6.54 0 012.78-6.77c1.71 2.08-1.45 3.74-2 5.73" fill="#9a3b26"/><path d="M244.92 66.35c.91 1.47 2.67 2 3.75 3.2s2.9 2.58 2.92 4.45a5.26 5.26 0 01-2.27-1.28c-1.37-1.07-3.35-.61-4.6-2-.81-1.87-2.06-3.56-2.75-5.48 1 .22 1.87 1 2.95 1.12" fill="#1d5c42"/><path d="M266.83 67.62c-.45.56-.22 1.53-.73 2-.12-.45-.18-.91-.29-1.35.4-.13.56-.69 1-.69M271.47 76.36c0 1.81-.44 3.11 0 4.76 1.64.21 3.4.26 4.71 1.09l-.2 4.87c-.45.46-1.24.06-1.75.35a24.88 24.88 0 00-3.66-6.2c-.34 0-.62-.39-1-.1-1.06 2.77.71 5.64.05 8.54-.27 2-.71 4-.36 5.82a9.42 9.42 0 01-2.14-.2c2.51-5.4 3-13-.69-18.22a5.64 5.64 0 01.55-1.92 10.54 10.54 0 014.43 1.21" fill="#9a3b26"/><path d="M249.07 78.43l-.73.79-2.45-2.12.11-.1a11.7 11.7 0 003.07 1.39" fill="#1691ff"/><path d="M351.43 78.06c-2.15 1.36-4.18 1.32-6.44 1.06h-.18c.22-.85 1.41-1.15 2.14-1.72a5.2 5.2 0 014.47.15v.51M251.51 79.94c-.22.29-.5.8-.9.68l-1.88-1.17c.79-1.64 1.93.21 2.78.49M351.55 79.58c-1 0-2 1.71-2.77.25.73-.64 1.81-.41 2.54-1-.23.06 0 .57.23.79" fill="#9a3b26"/><path d="M309.17 80.36v5.21a5.65 5.65 0 013.23.88c.68.85.12 2.15.13 3.17-.56.79.13 2.94-1.68 2.44-1 .07-1.76-.49-2.77-.26-.38 2.83-.31 5.82-1.19 8.44-1.47 1.08-3.34.36-5.1.14-1.58-.27-.41-2.2-.58-2.94.38-1.92 0-4.07.24-6.23-1.3-.44-3.11.19-4.08-.76a37.6 37.6 0 01.36-5.44c1.47-1.47 5.22 1.11 4.91-2.24.17-1.07 0-2.48.49-3.56 2 .56 4 .48 6 1.15"/><path d="M356.59 97.89a.78.78 0 01-.28.34c-.11.62-.67 1-1.18 1.41-10.63 10.08-21.94 20.57-31.6 30.88a65.52 65.52 0 01-4.95 4.61c-1-3.27-1.07-7.18-3.91-9.36-.22 0-.39 0-.51.23.87 2.82-.69 5.65-.56 8.71.4 2-.71 4-.58 5.94l-1.13.69c1.95-5.1 1-10.07 0-15.28l.11-.51c9.5-9.85 18.9-18.73 28.62-28.36 4.22-3.94 8.44-8.43 12.88-12.42 0 4.31 2.24 7.83 3.62 11.48l-.54 1.64M357.49 90.42a13.49 13.49 0 01-.95-8.32 20 20 0 011.46 9.33l-.48-1" fill="#efe8c7"/><path d="M356.83 90.88a16 16 0 01-1.19-8.27c.17-.56.5-1.19 1.19-.91.85.62.85 1.51 1.25 2.32.54 4 1.08 8.19-.14 12.22l-.51 2.08c-.12.23-.35.47-.49.68-.89 3.41-3.06 7.79-.44 11.11l.39.1c.12.17-.11.29 0 .4a39.48 39.48 0 012.46 4.91 48.75 48.75 0 003.5 8.12c1.79-3.69.86-7.3-.06-10.91-3.42-3.73-4.47-8.46-5.69-13.1.11-.17.1-.51.39-.51 1 3 1.85 6.27 3.12 9.26.85 1.46 2.05 2.76 2.91 4.22a22.48 22.48 0 001.48-10.08c-.64-2.88-2.7-6.32-5.93-7 .11-.18.34-.12.51-.12l.1-.91c.37-4.69.51-9.62-1.22-14-.39-.45-.74-1.59-1.53-1.18-.67 1.19-2.08 1.48-2.53 2.85a16.79 16.79 0 001.71 9.43 20.64 20.64 0 011.31 3.5h.11c.23-.39 0-1.06.22-1.35.06-.45.1-.91.15-1.37l-1.07-1.55" fill="#773141"/><path d="M308.55 80.71c.35 1.46-.2 3.67.15 5.15.46.45 1.25 0 1.81.32l1.53.62a12 12 0 01-.59 4.64c-1.3.4-3.06-.78-4.07.25a46.15 46.15 0 01-1 8.43c-.9.52-2 0-2.93.14a3.58 3.58 0 01-1.82-.62 67 67 0 00.34-8.82c-1-.39-1.81-.1-2.83-.21l-1-.17a17.2 17.2 0 01.36-5.21c1.64-.57 2.6.11 4.24-.41.73-1.48.32-3.35.7-4.93l5.1.82" fill="#9a3b26"/><path d="M254.47 81.73a13.84 13.84 0 01-2.84-.77c.78-1.42 1.93.38 2.84.77" fill="#b3995d"/><path d="M353.65 80.42a1.2 1.2 0 01.46.68 7.12 7.12 0 01-2.66.52c-.91-.05-1.75.64-2.54.24 0-.28.27-.51.5-.74.57.23.62-.39 1-.51a5.18 5.18 0 013.22-.19M353.61 83c-.51 0-.85-.44-1.25-.66a3.37 3.37 0 001.41-.41 1.67 1.67 0 00-.16 1.07" fill="#9a3b26"/><path d="M263.2 85.62a2.55 2.55 0 011.36.64 40 40 0 01-.47 6c-.91-1-1.08-2.43-1.94-3.55a6.61 6.61 0 01.21-3.14l.84.05" fill="#b3995d"/><path d="M263.21 85.07c.41.07.85.35 1.3.27a21.61 21.61 0 00-.87-2.65 16.13 16.13 0 00-1.07 2.31l.64.12" fill="#9a3b26"/><path d="M257 87c1.16 2.82 3.26 5.19 4.47 8-2.66-.43-4-3.37-6.64-3.81-3.69-.71-7.65-1.19-11-3.09.51-1.14 1.75-2 2.53-2.9 3.4.94 7 2 10.59 1.8" fill="#b3995d"/><path d="M344.35 85.22l.39.4a46 46 0 01-.19 4.81 1.65 1.65 0 001.53.39 78.27 78.27 0 01-7.76 7.69v-3.68c-1.36-.62-2.65 0-4.18-.48a12.5 12.5 0 01.19-4.12c1.25-.24 3.34.3 4.75-.16.56-1.64.61-3.4 1.1-5 1.59-.13 2.72.49 4.2.13M239.82 89.17c-1.61 1.84-2.79 2.93-3.39 4.11-3.14 4-4.92 8.4-6.87 12.88a22.68 22.68 0 001 2.55c2.17-6.46 6.33-11.73 11-18.31l-1.79-1.23" fill="#9a3b26"/><path d="M360.8 94.19a1.65 1.65 0 00-.49 1.46 5.72 5.72 0 013.07 2.07l-2.26-2.64-.32-.89" fill="#d1b881"/><path d="M361.13 93.88a5.92 5.92 0 001.71-1.63h.16a105 105 0 017.6 12.79l.86 2.31c-3.39.35-3-3.77-4.72-5.57a48.9 48.9 0 00-5.25-7l-.37-.91" fill="#9a3b26"/><path d="M269.44 96.51c.13 2 2 4 .44 5.89-1-2-4-3.71-3-6.49.8.4 1.81.1 2.55.6" fill="#b3995d"/><path d="M229.39 106.74c.81 2.19 1.28 4.57 2.08 6.71-1.76-1.4-2.74-3.6-3.94-5.46a1.89 1.89 0 01.61-2 1.25 1.25 0 011.25.79M375.24 111.22c-.06.23.17.58-.17.69-2.16-1-3.86-2.3-6-3.07-.34-.34-.8-.73-.85-1.24 2.88 0 5.66 1 7 3.62M227.56 112.47c.8 1.73 2.45 3.2 2.41 5.18a5.29 5.29 0 01-3.19-3.32c.23-.17-.29-.22-.29-.22-.17-1.24-1.54-2.43-.47-3.68 1.07.17 1 1.36 1.54 2" fill="#9a3b26"/><path d="M362.07 123.65c.4.5-.22 1.08.47 1.52.3 3.12.61 6.68-1.42 9.18a27 27 0 00-1.1-4.52c-1-4.52-4.46-8.18-4.5-13a24.28 24.28 0 011.1-5.22c2.29 3.84 3 8.24 5.45 12" fill="#773141"/><path d="M377.43 118.34c-3.11 0-4.43-3.82-7.27-4.53-.28-.45-1.08-.78-.91-1.36 3.22.77 7 2.56 8.18 5.89M227.82 117.15c-1.89 6.42-3.71 13.44-3.55 20a50.12 50.12 0 00.46 11.59c.27 4.75 2 8.88 2.59 13.86-.92-1.14-3.52-.82-3-2.76-1.39-5.36-1.14-10-1.79-15.26l.1-1 .06.11s-.13-2.77-.08-4c.42-4.53-.35-10.18 1.31-15.11a57 57 0 012.59-9.24c.29.61.92 1.06 1.32 1.79" fill="#9a3b26"/><path d="M376.82 120.28c1.39 4.4 1.14 10 2.36 14.35 0 2.21.48 4.64 0 6.73-.57-.79-1.81-.67-2.05-1.63-.32-5.7-.53-11.82-1.92-17.18-.13-1.92-.93-3.51-1.39-5.32.69 1.3 3.46.94 3 3" fill="#9a3b26"/><path d="M272.76 119.41a7.43 7.43 0 011.41.11c.74.27 1.76.55 2.05 1.4-.68-.11-.91-.79-1.65-.78-1.3-.33-3.06-.72-4.24-.09-.23-.12-.12-.34-.12-.5.28.1.28-.23.4-.35.51.27 1.8-.07 2.15.21"/><path d="M360.34 135.37l-.28.29a12.13 12.13 0 01-.43 4.07c-.81-3.26-3.54-5.58-4.3-8.91-.18-2.66-.32-5.87.74-8.49a32 32 0 014.27 13" fill="#773141"/><path d="M300 136.33c-.68.51-.78 1.19-1.52 1.48a23.82 23.82 0 01-2.16-2.53c0-2.77.92-5.21 1.59-7.65l.39-1.64a52.4 52.4 0 001.7 10.34" fill="#b3995d"/><path d="M226.33 167.58c1.62 1.4 3.87 2 5.62 3.41.06.18.29.29.18.52-.4.57-1.19.29-1.7.24-1.54-.85-3.06-1.12-4.09-2.64 0-.25.18-.59.18-.86l-.19-.67" fill="#9a3b26"/><path d="M305.64 145.91l-1.49-1.35c.9-1.59 0-3.5.42-5.26.32-2.78 1.27-5.33 1.48-8.16.76 4.64.91 10.35-.41 14.77" fill="#efe8c7"/><path d="M359.08 141.38c0 1.7.08 3.61-.82 5.1-2.12-4.23-5.49-8.68-3.77-13.73a1.43 1.43 0 01.45-1.13c.76 3.5 4.28 6 4.14 9.76" fill="#773141"/><path d="M300.14 136.83c.07 1.25.53 2.26.65 3.51-.46-.91-1.88-1.46-1.77-2.48.34-.28.79-.79 1.12-1" fill="#efe8c7"/><path d="M379.23 142.55c1.13.62 1.25 2 1.43 3.16 0 .29-.33.68-.16.91-1.2-1.87-3.76-3.82-4.57-6.09l.12-.27c1.07.66 2.72.88 3.18 2.29" fill="#9a3b26"/><path d="M294.68 141.4c-.22.45-.78.74-1 1.19 0-.4.45-1 .39-1.63.34-.07.4.26.62.44M314.67 148.82c-.12-.13-.28-.25-.36-.35a3.8 3.8 0 00-3.39 1.37 3.9 3.9 0 00-.78 2.21c-.4-.85-1.25-1.69-1.77-2.6.33-1.75 2.08-3.06 2.35-4.71.56-1.18 1-2.71 2.41-3.4.5 2.75 1.76 4.48 1.85 7.43h-.31" fill="#b3995d"/><path d="M357.64 146.76c-.78 2.05.65 4 .49 6.11.07 1.47-.49 2.32-.71 3.69h-.11c-1.84-4.8-4.71-10.22-2.76-15.49 1 2 2.12 3.78 3.09 5.69" fill="#773141"/><path d="M379.26 147c-.18-1.17-2.1-1.5-1.55-2.92.63 1 2.27 1.79 1.55 2.92" fill="#9a3b26"/><path d="M271.6 151.22c-.06-1-2-.89-2.84-1.85a3.41 3.41 0 01-1.66-2.81c2.15-.41 3.86 1.05 6.12.63a19.11 19.11 0 015.71-1.11c-2.65 1.32-4.68 3.37-7.33 5.14" fill="#1d5c42"/><path d="M301.47 149.05c-5 0-8.41 3.33-12.93 4.61a17 17 0 01-6.28.44 6.13 6.13 0 001.69-1.87 19.1 19.1 0 012.67-1.51 51.47 51.47 0 006.82-.48c2.08-1.15 4.4-1.79 6.49-3l1.54 1.8" fill="#efe8c7"/><path d="M356.63 156.67l-.23.17c.3 2.65.44 5.32-.68 7.59-1.21-2.65-2.81-5.19-3.51-8.07-.07-2.15 1.11-3.8 2-5.62.87 1.87 1.61 4 2.42 5.93" fill="#773141"/><path d="M314 149.29c-.22-.19-.46-.36-.73-.2a2.88 2.88 0 00-2.25 1.76c-.34.46-.11 1-.39 1.31.58 1.52 2 2.65 3 3.94.68-.68.39-1.53.72-2.44a8.87 8.87 0 00.69-3.76zm-.69 5.8c-.56-.28-.51-1.25-1-1.8-.17-.46-.13-1.42.61-1.26-.73 1.02.8 2.09.41 3.06z" fill="#1d5c42"/><path d="M280.11 154.39a8.18 8.18 0 003.16-1.72c-1 .8-1.8 1.88-3.16 1.72" fill="#b3995d"/><path d="M296.31 156.86c-1.24.57-1.68 3.32-3.32 2.14l-1.25-.1a28.31 28.31 0 014.57-2" fill="#efe8c7"/><path d="M311.83 158.89a11.18 11.18 0 01-2-.22v-.28c.68.17 1.47 0 2 .5"/><path d="M230.05 165.23c.11.58-.51.46-.79.69-2.09-.38-4.93-.81-5.45-3.41a1.89 1.89 0 01-.07-.8l.4-.23a31.83 31.83 0 015.91 3.75" fill="#9a3b26"/><path d="M355.32 165c-.16 0-.28.23-.39.35v1.81c-1-1.75-2.69-4-1.79-6.2a34 34 0 002.17 4" fill="#773141"/><path d="M322.61 163c-.5 1-.5 2.55-1.4 3.58l-.17-.34a5.77 5.77 0 00.67-1.59c0-.57-.18-1.86.9-1.65"/><path d="M212.34 165.63c-.05.46 0 1 .52 1.13l1.24-.12c0 .84-.78 1.2-1.34 1.76-.46 0-.91.34-1.42.08-.4-1-.13-2.61-.25-4 .51.34 1 .5 1.25 1.12M349 208.65a4.58 4.58 0 01-.15-.49 1.48 1.48 0 01.21-.3l1.37-1.2c.42-.43 1-.79 1.18-1.18l.11.11a15.17 15.17 0 002.41-3.07c.82 3-2.55 3.68-4.4 5.24l-.73.89" fill="#9a3b26"/><path d="M346.28 203.25a16.73 16.73 0 00-1.08-2.3c1.64-.92 3.44-2.12 4.11-4.11a17.59 17.59 0 01-1.15 6.51c0 .53-.51.9-.8 1.28l-1.08-1.36" fill="#b3995d"/><path d="M227.9 166.28l.24 1.8a3.45 3.45 0 01-1.93-1.4v-1c.68-.11 1.08.57 1.7.62" fill="#9a3b26"/><path d="M354.68 170.21c-.06.17-.12-.45-.46-.29a4.48 4.48 0 000 1.71c-1-1.63-2.63-4.12-1.11-6.1a6.86 6.86 0 011.56 4.68" fill="#773141"/><path d="M271.87 175.59c.54.88 1.27 2 2.45 1.76 5.86-3.38 10.13-9 15-13.86a8.18 8.18 0 011 .52c3.63.75 6.69 3.17 10.21 4.39 4.53.32 8.52-2.87 12-5.67 1.24-.29 2.1 1.17 2.89 2 .07.45 1.14.95.18 1.3-1.08-.67-2.42 0-3.56-.2-.68 0-.91.85-.79 1.36a8.5 8.5 0 003.05 4.61l-.73.49-1.88.38c-3.23-.21-6.52-1.43-9.69-2.37a13.09 13.09 0 00-2.67-1c-3-.16-6.34-.59-9.05.21a2.91 2.91 0 00.3 2.16c2.78 2.13 6 3.12 8.8 5 3.18 2.14 6-.09 9.05-.85l5.94-.15a5.09 5.09 0 012 .27 6.21 6.21 0 005.23-1.12l1.52 1.52c-.66-.3-1.48 0-2.39 0-1.07.28-2.71.18-3.73.53-.73.4-1.69.23-2.37.69-3.39.7-5.75 3.21-9.32 3.46-2.48.4-4.81-1.27-7.24-.08.13 2.1 1.61 3.39 3.09 4.68 2.16 1.52 5.6 1 7.64 0h.11a8.45 8.45 0 012.49-1.34l-.27 1.26a11.16 11.16 0 01-8.81 5c-.91.06-1.64.86-2.54.53 0-1.58.26-3.79-.26-5.21-.46-.15-1-.5-1.53-.21-1.53-.73-2.82.08-4.29.54.46.79.07 2.14 0 3.16-1.41.69-2.83 0-4.29.66-.06.67-.45 1.3-.28 1.92a8.91 8.91 0 000 4.59c.45.45 1-.12 1.52.21.68.05 1.08-.12 1.59.1-.21 2.77-.36 5.32-.35 7.92a18.89 18.89 0 006.12.47c.6-2.32.48-4.8.69-7l4.35-.88c.72-.8.26-2.61.37-3.57l.22-.28a19.09 19.09 0 006-.16c-1.41 1.15-3 2.12-4.45 3.09l.4.85a2.61 2.61 0 002.55.26l.11.11a11.89 11.89 0 012.77-.75c-.39 1-1.46 1.42-1.85 2.44.58 1.35 2.38.89 3.57.83a13.84 13.84 0 017.12-.38 59.66 59.66 0 018.4 2.94 15.6 15.6 0 01-4.47.82 30 30 0 01-10.3-.55l-.22.22c.12 1.69 1.43 3.22 2.46 4.68 2.05 2.08 4.43 1.84 7.08 1.65a15.54 15.54 0 005-.72l.13 1a4.22 4.22 0 000 .94 23.31 23.31 0 006.62.35 11.25 11.25 0 00.37-3.79c.4-.63 1.19.05 1.7-.18 2.55.94 6.05-.21 7.15 3.13-1.92 1.2-3.6 2.51-5.58 3.59l.11.05a1.62 1.62 0 00.28-.11l-1 .1a7.85 7.85 0 00-4.29-1.14c-2.22-.83-5.15-.14-7.36.22-3.61 1.09-6.46-1.83-9.85-1a1.32 1.32 0 00-.72 1.36c2.07 4 6.5 4.71 10.6 5.77l-.62.18a40.92 40.92 0 01-6.66 1.84c-6.78.44-14 1.44-20.58 1.66l-.4-.28c.5-1 1.24-1.87 1.22-3.06-.45-.23-.62-1-1.24-.73-1.52 1.13-2.3 3.18-3.93 4.09a19.84 19.84 0 00-2.55-.65c.67-1.26 3.49-2.17 2.17-3.92-.11-.18-.45 0-.56-.17-.5 0-1 0-1.24.63-1.63.63-2.3 2.11-3.65 3.08-.17.23-.52-.11-.63-.22-9.12-1.63-17.13-6.12-25.08-10.76-1.25-.61-.12-1.42-.35-2.42-.86-1.53-2-.45-3.06-.39-.9.68-1.53-.72-2.16-1.12.28-.39.68-.39 1-.79a2.68 2.68 0 00-.13-1.86c-1.64-.62-3.45-.38-5-.54a46.3 46.3 0 00-3.3-3.27l-.11.12-.69-1c2.71-2.67 5.8-5.25 8.26-8.08.14 3.1-.07 5.7-.05 8.82l.46.5c1.47-.29 3.62 0 5.09-.42.55-2.33.48-4.36.85-6.75 1.08-1 2.89 0 4.25-.3l.07-6.86c-1-1.34-4.18 1.16-3.58-1.66 2.42-2.51 5.8-4.91 7.93-7.7.79-.79-.63-1.4-.75-2.13a4.4 4.4 0 00.37-.38l.53.91" fill="#b3995d"/><path d="M271.64 174.35a3.74 3.74 0 01.62-.55 5.68 5.68 0 00-1.55-2.43c-.79.06-1.35 1.31-2.08.81a4 4 0 01-.65-3.62 5.61 5.61 0 014.09 2.52c.58 1.87 2.68 3.37 2.18 5.48.18 0 .29-.23.4-.35.1-2.32-1.66-3.84-2.47-5.76-.86-1.47-2.56-2-3.92-2.4 3.77-3.42 7.31-6.9 11-10.37 1.76 1.28 3.34 1.17 5.28 2-.18.17-.46.35-.51.63a1.66 1.66 0 00.75 2.09 11.48 11.48 0 014.19 1.09 146.06 146.06 0 01-11.25 11.28c-1.34 1-2.41 2.18-4.05 2.07a4.3 4.3 0 01-1.41-1.28l-.59-1.21" fill="#efe8c7"/><path d="M311.69 185.16c-1.37 3.4-5.21 5.18-8.65 5.58-.68.29-1.42.23-2 .69.64 1.31 2.05 1.34 3 1.85 3.51.37 7.52 0 9.88-2.95 2.25-1.54 4.91-3.26 5.68-6a53.4 53.4 0 01-7.37 0l-.46.91" fill="#1d5c42"/><path d="M294 144.29c.83 0 1.49.42 2.37 0 .39-.23 1-.41.89-1a20.45 20.45 0 00-3.19-3.26l-.28.34c-.76 5-5.77 9.08-10 11.31-3.82 3-9.76 4.09-14.08 1.57 2.82-2 5.86-4.39 8.85-6.39 2.87-1.49 6.66-1.29 8.91-3.91-.68-.28-1.41.07-2.15.07-.34 0-.79.45-1.07 0v-.06a51 51 0 01-9.94 2.16c-1.7 0-2.71-.72-4.36-.87a26.8 26.8 0 01-8-4.71c2.36-1.93 5.65-.37 8.15.12 3.4 1.05 5.7-1.45 8.64-2.26 3.78-.64 8.33 1.31 11.31-1h-.11l.33-.46a11.88 11.88 0 00-3.71-5.06c-.79-.17-1.7-.5-2.43 0-4.46 2.13-8.55 7.08-14.06 4.45-3.23-.26-5.79-2.11-8.18-4.3-1.25-1.8-2.34-3.67-3.48-5.52l.4-.18c2.82.49 5.32 1.89 7.87 3.18 4.71 2.46 7.81-.5 11.71-.75 1.14-.24 2.77-.3 3-1.55l-2-2.37c-2.38 0-4.06 2.13-6.44 2.42-3.38 1.27-6.62-1.63-9.57-2.45a24.73 24.73 0 01-9.18-1.38c-3.39-.44-4.49-4-6.55-6.29-.23-.4-.9-.57-1-1 2.09-.51 3.8.71 5.61 1.28 2 1.17 4.59 1.1 6.91 1.19 3.91.15 6.08 3.81 9.92 4 .73-.68 1.14.51 1.82.39 1.08.62 2.15.27 3.39.49a.3.3 0 00.17-.52c-1.81.12-3.68.08-5.1-1.49-.8-.9-.46-2-.52-3.16 1-1.54 3.33-.47 4.91-.55 1.81.44 2.39 2.36 3.47 3.49.28 0 .23.34.51.05-.17-.67-1-1-1.25-1.68a4.71 4.71 0 00-2.19-1.89l-.28-1.14c-1-3.52-3.23-6.58-5.42-9.48-.73-.28-1.18.62-1.86.75-3.82 4.82-10.34 3.06-15.32 1.9-3.18-1.56-6.4-.19-9.91-1a20.36 20.36 0 012.64-2.45c1.25-.17 2.54-1.42 3.74-.52.27-.29-.07-.52-.18-.68a10.79 10.79 0 015.09-1.17c-1.87-.6-4 .2-5.6 1-2.45-2.3-2.25-5.88-5-7.9-.57-.56-1.71-1.23-1.32-2.13 5.26 0 7.56 5.6 11.54 8.18 2 1.23 4.59 1 7 1.25 2.55.44 4.87 1.55 7.42 1.71.63.11.85-.57.73-1a11.3 11.3 0 00-3.71-5.06c-2-.38-3.86-1.28-5.89-1.5-4.76.09-9.12-.73-12.48-3.87-1.42-1.35-2.9-2.93-4.33-4.56a10 10 0 01-2.61-2.3c-.12-.39-.69-.84-.35-1.24 2.27 1.34 4.43 2.91 6.76 4 2.09.9 4.53 1.06 6.75 1.84 3.56-.09 6 2.55 8.85 4.29l1 .1a1.1 1.1 0 00.45-1c-1.49-2.7-3.32-5.18-4.64-7.94-2.55-.38-5.32-.31-7.65-1.14-4.19-.76-7.66-4.09-9.55-7.92-1.73-5.08-4.7-9.58-8-14l.12-.11c1.19 1.06 3.12 1 4.26 2.4a18.12 18.12 0 007 10c.79.4 1.7.72 2.05 1.68a15.53 15.53 0 008.85 4.76c.52 0 1 1.18 1.36.27-1.26-2.25-4-2.92-5.85-4.32 0 0-.23-.28-.4-.22l-5.84-2.56c-5.86-4-7-11-8.94-17a12.33 12.33 0 012 1.92c.28.16-.22.72.28.38 2.68 2.53 2.14 6.6 4.87 9.25 1.82 1.85 4.37 1.84 6.64 2.73 1 .79 2.22 1.85 3.57 1.4 0-3.06-3.31-5.13-5.47-6.82-2.39-2-3.09-5.35-5.31-7.77-1.72-2.31-4.9-4.2-5.42-7.09l.88-.73a41.36 41.36 0 015.18 3.82c2.27 1.67 5.33 2.62 6.59 5.38 1.16 4.06 4.29 7.38 5.45 11.46 1.26 1.62 0 3.45.43 5.2.17.45.41 1.52 1 1.22a4.69 4.69 0 00-.52-1c.09-2.94 0-5.54-1.46-8.09-3.94-5.45-1.84-11.86-3.18-18.2-.17-.21-.17-.33 0-.62A33.58 33.58 0 01258 70c1.21 4.28-2 8.79.92 12.44.29.4.35 1.47.92 1.3-1.49-3.16.81-5.78 1.24-8.66.31-4.88-.35-10.36-2.64-14.65 0-.56.73-.56 1.13-.4 3.3 2.41 5 6 6 9.75.35 1.58 1.09 3.28 1 5.14-1 4-3.4 7.16-4.85 10.95-1.11 3.08 1.45 5 2.2 7.52.23.45 0 1 .23 1.24.88-3.9 2.15-8.61 0-12.56.21-1.58 1.62-3 2.12-4.6 3.54 5.29 2.74 13 .12 18.34-1 3 2 4.74 3.21 7.05h.73a4.41 4.41 0 00.89-2.66 16.69 16.69 0 01-.91-10c.89-3-.83-5.66-.12-8.65 1.09.84 1.43 2.3 2.35 3.37 2.34 3.72 2.43 9.33 1.61 13.51-.89 2.16-.47 4.81-2.22 6.64-.33 1.53 1.15 2.77 1.67 4.17l.51.22.14 4.14c.12 1.13 1.87 1 1.26 2.48a1.21 1.21 0 001.53.5c-1.08-1.52-.48-4.19-.66-5.94l-.34-.28c.24 2-.37 4 .55 5.71l-.17.18c-1-.52-.41-2.15-1.77-2.55 0-1.29-.42-3.1-.14-4.24s1.52-1.36 2.36-1.76c4.09 1.55.43 4.75.84 7.41h.23c.05-.34.27-.8.16-1.07a16.93 16.93 0 00.77-11.33c-.13-3-3.76-4.83-2.59-8.12a8.21 8.21 0 01.48-2.9l2.68 2c5.23 4 4.88 11 5.08 16.6.25 3.12-1.38 5.67-2.71 8.29 0 2.42.93 5.08 3.2 6 .74-.12-.18-.62.51-.85.88-3.68 1.7-7.87.71-11.77.08-5-1.59-10.17-.27-15.4.55-2.48-.65-4.57-.55-6.84a3.63 3.63 0 011.42 1.36c4 7 5 16.49 4.52 24.3-.15 4-2.05 7.2-3.67 10.49.74 2 2.62 3.49 3.6 5.4.68.73 1 2.32 2.44 2.09 1.23-3.47-1-6.4-1-9.68-1-3.1.47-6.91.56-9.84-.36-3.4.24-7.87-.57-10.69.22-.13.34.16.56.1 2.8 3 3.33 6.94 4.77 10.55-.08 4.7.62 9.51-.7 14.27-.66 2.44-1.61 5.1-1.6 7.41l5.36 6.09.28-.18c-.42-4.57-2.09-8.41-2.4-12.94-1.1-4.57 1.48-8.1 1.45-12.63 0-2-1-3.61-1.06-5.42 2.4 3 4.52 6.2 5.21 10a37.1 37.1 0 01-.38 18.45c-.61 1.93.48 4.18-.53 6 .74.62 1 1.07 1.82 1.8-.17.12 0 .33-.11.51.23.11.34-.12.39-.18a25.24 25.24 0 001.17-13.47c-.24-1-.53-2.54.2-3.45h-.11c-.75-1.74 0-3.4 0-5.49a27.48 27.48 0 013.4-7.65l.23.38c-.18 7.26 3 14.76 1.32 21.38-.48 3.86-2.38 7.32-4.11 10.84a11.49 11.49 0 002.06 2.7l.11-.11c.68 1.75 2.17 3.09 3.42 4.56.5 0 .67-.28 1-.57.49-2.56 1.38-4.93 1.14-7.37 0-3.78-3-7.27-1.37-11.07-.36-3.34.86-7.25.83-10.82a10.76 10.76 0 011.15 1.64c1.55 4.12 2.14 8.64 3.31 12.87 1.28 6.45 2.63 13.11-2.49 18.18.23.51.29 1.13.58 1.64.17 1.13 1.31 2.15 1.77 3.32.4.4.74 1.19 1.31 1.29 0-.84-1.14-1.52-1-2.59.79-1.7.71-3.79 2.75-4.82a1.79 1.79 0 011.52.1 21.47 21.47 0 00-.58 6.23c1.31 1.92-1.67 2.83-1.1 4.58.67-1.64 2.36-2.72 1.84-4.7-.7-2.77.75-5.49.23-8.48-3-7.12 5-11.87 8.26-17a13.56 13.56 0 011 8.43c-1.83 6.51-2.91 13.37-6 19.39-.72 1.92-2.52 3.46-2.79 5.51l3.48 4c.39-.12.68.51 1 0 0-4 1.65-7.59 2.47-11.34.47-5.93.55-12.38 6-16.45a9.78 9.78 0 01.31 4.08c-1.6 7.48 1.34 15.78-3.93 22-.85 1.19-1.51 2.67-2.81 3.36-.39.62.18 1.12.3 1.75a11.74 11.74 0 011.54 2.82c1.58-.24 2-1.83 2.75-3 2.63-4.78 3.43-12.65 10.5-13.31l.35.26a13.56 13.56 0 00-2.44 10.22c-2 3.4-5.22 6.31-9 7.13.34.27.17.84.23 1.29a12.92 12.92 0 002.34 3.32c.8 1.53-.88 3-.25 4.54a4.56 4.56 0 00-2-.73 10.7 10.7 0 00-2.8-3.94c-1.31-1.64-3.23-.49-4.69-.08-4.23 2.63-8.34 5.94-13.31 7.1-2.77.59-5.37 1.91-8.19 1.92-.29-.05-.69-.34-.63-.61 6.48-3.84 12-10.33 19.67-11.85 1.42-.23 3 0 4.18-.64-.23-1-1-1.64-1.37-2.54h-.4v.27c-2.76 1.6-6.16 1.62-9.44 2-2.93.92-6.57-1.15-9.27 1.07a10.3 10.3 0 01-7.24.44c-1.36-1.06-3.69-2.3-3.36-4.27.62-.12 1.19-.18 1.8-.31a12.68 12.68 0 0010.69-1.48 22.13 22.13 0 017.45-2.52c1.84.19 3.34-.69 5.25-.37l-1.92-2.18c-1.48.68-3 1.44-4.69 1.25-2.22-1-5 .14-7.82-.35-3.1.2-5.86 2.87-8.86 1.48-2.74-1.74-5.63-3-8.41-4.53-.79-.51-1.71-1.3-1.6-2.32.9-1 2.77-.35 3.73-.53 5.09-.7 8.78 2.1 13.26 2.87 1.91.28 4.26 1 6.06.21l1.26-.33a13.93 13.93 0 002.36 1.35 1.37 1.37 0 01.23-.4 9.11 9.11 0 003.05-.53v-.22c-1.08-.45-2.26.52-3.57.37a8.27 8.27 0 01-5.24-6.42 6.89 6.89 0 012.94-.42 4.14 4.14 0 012.95 1.84c.34.68 1.25 1.52.63 2.2a4.26 4.26 0 00-2.66-.88 12.14 12.14 0 013.52 2.24c0-.06.06-.17.17-.11.17-.22-.17-.67.33-.74-.74-1.3-1.2-2.87-2.51-3.83.11-.23.28 0 .46 0-.23-.51-.24-1.42-1-1.42-.68-.9-1.54-1.62-2.33-2.52-.63-.23-1.25-.56-1.93-.22-3.65 3.09-8 6.68-13 5.07-3.63-2.3-7.71-3.63-11.74-5a10.86 10.86 0 01-3.06-.79 1.25 1.25 0 01.49-1.75c4.07-1.94 8.09.07 12.34.15 3.91.87 8.44 1.64 12.12.84.62-.41 1.92-.36 1.85-1.27-.73.35-1.52.63-2.25 1-1.36-.1-3.45.65-4.47-.18-.46-1-1.08-1.92-.81-3.06a4 4 0 014.06-1.66c.06.11.29.23.18.38a8.33 8.33 0 013.29 2.14c-.06-.12.11-.17.16-.28-.11-.45-.51-.57-.8-.9-.73-.51-1.8-.68-2.15-1.47l-.68-.9a2.71 2.71 0 00-1.36-.66c-2.27 0-4-.94-6.12 0a81.4 81.4 0 01-9.24 4.64 17.32 17.32 0 00-5.89.55c-2.78-.66-5.55-1.38-7.77-3.12 2.71-1.82 5.87-1.28 9-1.46 4.58-.66 8.4-3.34 12.7-4.79a30.17 30.17 0 003.34-.41 15 15 0 00-2.06-2.65c-1.76-.27-2.93 1.49-4.57 1.73-2.37 1.77-4.46 1.32-7.12 1.51-.51-.1-.9.52-1.3 0l1.91-1.53a42.25 42.25 0 003-3.3 8.7 8.7 0 01.5-1l1.2.05" fill="#1d5c42"/><path d="M293 143.9a8 8 0 012-2.23 6.82 6.82 0 011.76 1.8l-.39.35c-.8.51-1.67 0-2.44 0l-.91.11" fill="#efe8c7"/><path d="M223.47 171.67c0 1.53.25 3.17-.77 4.3a7.74 7.74 0 01-1-3.15c.22.28.34.67.68.79 1.3-.75.44-2.66 1.5-3.7.23.62-.27 1.2-.38 1.76M230.44 172.42c2.35 6.21 6 12 9.33 17.6l.11-.12 3.43 4.79c.23.68-.84 1.14-1.24 1.7a87.21 87.21 0 01-13.91-25 17.46 17.46 0 012.28 1.06" fill="#9a3b26"/><path d="M353.74 174.17a3.42 3.42 0 01-1.1-3.55l.17-.06c.46 1.13 1.72 2.36.93 3.61M269.93 172.51l.62-.51 1.14 1.63c-.45.33-1.52 1-1.23 1.7s1.36 1.35.41 2c-7.26 6.56-14.07 13-21 20.11-4.22 3.49-8.55 7.41-12.77 10.89a21 21 0 01-1.33-4.57c2.31-1.83 4-4.44 6.47-6.15 7.47-8.66 16.24-16.85 24.16-25.51l.39-.21c1.18.4 2 1.78 3.17.59M353.59 177.17c-.51.06-1-.72-1.36-1.11a2.47 2.47 0 01.21-2.27 3.08 3.08 0 011.15 3.38M353.26 178.59a4 4 0 00-.39 1.3 10.57 10.57 0 01-.18-2.31c.56 0 .4.68.57 1" fill="#773141"/><path d="M343 187.09c-1.87.07-3.56.13-4.57 1.56-.28-.16-.29-.85-.74-.9-.52-.74-.86-1.58-1.43-2.32.67-.46-.35-.72-.24-1.24a11.13 11.13 0 004.8-2.57 14.61 14.61 0 003.31-3.59c.08 3.34.61 6.23-1.13 9.06" fill="#b3995d"/><path d="M225.58 166.79c.73-2-2.05-2.2-2.29-4-.34-.56-.29-1.7.5-1.93-1.44-4.69-1.08-9-1.62-13.74-1-1.57.87-4.7-1.61-5.25-.4-.33-.45.12-.74.29 0-2.14.15-4.7 1.51-6.48l.78-.77c0-1.09 0-2.2.08-3.34-1.13 1.18-2.43 2.55-2.7 4.26-1.28 3.06-.46 7.24-1.06 10.3-.67 2 .14 4.47-.58 6.62a3.54 3.54 0 01-2.25 2.06c-.52-.79.79-.86 1.12-1.43a7.89 7.89 0 00.59-5.32l-1 1.25c-.28.34-.45-.16-.74-.22a10.12 10.12 0 002-2.73c0-1.75.82-3.79.59-4.93-1.69 1.71-4.35 1.39-6.49 2.2a2.39 2.39 0 01.52 1.75c-3.27 1.66-.93 4.93-1.59 7.65.12 1 1.3.55 1.87 1.11 0 1-1.24.24-1.74.59a17.14 17.14 0 00-.24 7.07c.22 0 .28-.23.5-.35.06.12.23.17.17.34l2.38-.35c.05.11.28.22.17.39-.79.34-1.75.24-2.54.53.06.51-.56 1.81.52 1.75.63.33 1.47.95 1.25 1.8.52.61 1-.24 1.65-.07.4.57-.11 1 0 1.58-1 .74-1.46 2.27-2.76 1.66.13 3.28.54 6 .57 9.4.5.27 1.24-.19 1.64.38-.28.51-.63.17-.91.39-.55 1.71-1.28 3.36-1.09 5.34l1-.24c1 .73.19 2.42.71 3.45a5.67 5.67 0 002.46-2.34c1.13-.51.52 1 1.09 1.41.79 0 .73-1 1.35-1.14.17.16.06.45.11.62.69.05.8.9 1.43 1.24.39-.12.45-.58.67-.85.23-.07.34.16.51.22v-1.25c-1.2-1.57 1.85-2.1.82-3.74.78-1.81-.25-3.34.08-5.21-.75-1.57-1.78-3.71-1.05-5.47.9-.12.85 1.4 1.08 1.52-.13-2.09 1.34-3.23 1.95-5 .17-.28.45.05.57.15l-.16 1.88h.11a1.76 1.76 0 00.5-2c.11-.12.22-.28.39-.23l.12-.51zm-8.33-11.65a.29.29 0 01.51.16c-.16.79.07 1.86-.6 2.37-.16-.78.21-1.67.09-2.53zm.43 5.76v2c-.22.11-.28.27-.51.22-.04-.62-.28-1.98.51-2.22zm-1.46 9.41a12.56 12.56 0 001.34-2.56c.74.11.12.85.4 1.2a13.43 13.43 0 001.44 3.65l-.28.35a12.37 12.37 0 01-1.67-4c-.33.5-.45 1.52-1.23 1.36zm2.58 14a.29.29 0 01-.23.12c-.45-.39-.23-1.13-.74-1.41-.4.57-.73 1.41-1.29 1.71.72-1.42 2-2.8 1.61-4.6l.39-1c0 1.47-.77 3.62.26 5.2zm.88-3.74l-.23.17a35.43 35.43 0 00-1.32-4.17c-.57.16-.62.84-.9 1.25l.07 2.31h-.17c-.88-1.76.51-3.06 1-4.64a3.59 3.59 0 01.13-1.54 3.16 3.16 0 01-.13 1.54c.21 1.71 1.52 3.19 1.53 5.08zm.52-16.24c-.57-.45-.75-1.24-1.26-1.81-.33 1.42-.38 2.61-1.28 3.81-.11.28-.45.11-.62 0 2.14-2.22.76-5.77 2.1-8.17.29 1.7-1.22 3.75.94 5.1.11.35.46.74.12 1.08zm1.2-16.3c-.29-.4-.47-1-.92-1.3-.16 1-1.06 2.33-.09 3.06a2.73 2.73 0 01.4 1.63c-.57-.33-.63-1.07-1-1.52-.11.35-.16.85-.5 1h-.17c.27-2.49 1-4.46 1.26-6.85l.22-.17c0 .12.18.05.29.05-.11.91-.5 2.28.41 2.78 0 .44.46.72.52 1.12-.14.17-.25.31-.42.17z" fill="#efe8c7"/><path d="M329 184c-1.57.41-3.56-.09-5 .82-1.75 0-3.38 1.5-5.19 2 .45-.8 1.23-1.6 1.23-2.45.73-.4 1.92-.06 2.82-.29a16 16 0 005.43-1.4L329 184" fill="#b3995d"/><path d="M366.88 184.79l-.11.11a6 6 0 01.76 4.69.36.36 0 01-.5.29c-.92-1.86-.88-4.35-.89-6.5a2.05 2.05 0 01.74 1.41M213 185.1l.25 3.22c1.25.1 2.37-1.2 3.1-2.23.35 1 .8 2 0 2.95-.62.79-1.58 1-2.31 1.54-1 0-1.41 1.08-2.31 1.43a23.83 23.83 0 01.35-6.91c.28 0 .62-.46.9 0M263.91 186.69c1.13.16 2.21-.29 2.94.1l-.07 6.21c-1.41.47-3.4-1-4.35.55a47.26 47.26 0 01-.7 6.51c-1.58.12-3.11.19-4.58.2-.07-2.83.13-6.29.17-9.06l-.12-.11 6.08-5.81c.34.44-.33 1.31.63 1.41M385.86 188.68v.06a9.2 9.2 0 01-2.06-4c.69 1.3 3.41 2.35 2.06 3.89M299 186.25c.3 2 0 3.56.15 5.42.12.22.4.17.63.17 1-.57 1.13.95 2 1.23l1 .27c-.1 1.41.24 2.6-.31 3.79a13.45 13.45 0 00-4.46.82c-.11 2.28-.09 4.54-.36 6.85a19.5 19.5 0 01-5.1-.19 39.39 39.39 0 01.35-8l-.23-.17-3.11-.09a11.68 11.68 0 01.36-6.12c1.41-.12 2.66.15 4-.25l.22-.17.38-3.28c1.41-.86 2.83-.14 4.46-.25M364 185.65c.47 2.66 2.42 6.67-.45 8.67-.24-2.21-.09-4.76-.72-7-.35-.74.43-1.93 1.17-1.71" fill="#9a3b26"/><path d="M221 194.5c-1.13 1.36.13 3.44-1 4.69.17.23-.23.46-.28.74l.12.06a.32.32 0 00-.23.11c-.12-.73-1.47-.62-1-1.62-1.53-1.52-.47-3.4-.65-5.27l-.29-.33c-.56.91 0 2.26-.77 3.05.18 1.13-.84 2-.94 3.18 1 .1.67-1.36 1.23-1.92a15.49 15.49 0 011 2.24c-.44.86-.38 1.87-.77 2.72l-.74-.68c-.9.64-.44 1.88-.6 2.62-.79 1-.88 3-2.81 2.39-.23.12-.57.12-.73.4.11.84 1 .05 1.34.22a2.31 2.31 0 001.59-.52 10.12 10.12 0 01.95-1.53c.34.73.46 1.86 1.43 2.08-.33 1.7 0 3.45-.37 5.21.24 1.42-2.24 2.27-2 3.92-.45.16 0 .67-.44.9a15.75 15.75 0 01-.82-4.41c1.23-1.19 2.46-2.95 1.78-4.88-1 .36-1.07 1.54-2.08 1.66-.23-.34-.35-.9-.86-.9-.45.17-.22.68-.5 1a4.33 4.33 0 01.21-3.16c1.46-.69 1.23-2.73 2.18-3.82.1-1 .78-2.09-.19-2.54a17.62 17.62 0 00-1.56-5.08c-.62-.1-.79.46-1.12.86.1-1-.76-2.6.26-3.51l1.45-1.43.17.23a8.53 8.53 0 002.88-1.95 10 10 0 01.92 3.06c.17.17.57-.06.63-.35-.13-1.13-.76-2.31-1-3.56.68-.11.78-.85 1-1.3.81 2.59.94 5 2.59 7.4" fill="#efe8c7"/><path d="M221.28 192.68a1.92 1.92 0 010 1.14 23.68 23.68 0 01-2.08-6.44c.4.33.86 1.23 1.42.62l.4-.41.11.11.27-.51c-.32 1.7-1 3.63-.13 5.49" fill="#9a3b26"/><path d="M217.68 187.38a.7.7 0 01-.22.41v-.4h.22" fill="#efe8c7"/><path d="M333 189.54a5.08 5.08 0 00-2.55.29 1.84 1.84 0 00-1 .24c-.16 1-.27 2.59-.37 4-1.7.12-3.45 0-5 .93v1.14c-2.71.41-4.75-.71-7.36-.58.57-.4 1.47-.41 2-1a56.28 56.28 0 006.54-3.73c.79-.34 1.52-1.31 2.54-1.54 1.3-.73 2.2-1.42 3.73-1 .45.56 1 .78 1.42 1.36" fill="#b3995d"/><path d="M334.45 191.56c-.85.79-2.77 1.6-2.14 3.12.12.28.52.51.52.85-2.55 0-5.48 1.72-8.14.56a1 1 0 01.89-1.36c1.3 0 2.72-.36 3.85-.08.78-1.54.32-2.49.6-4.08 1.36 0 4.17-1.67 4.42 1" fill="#9a3b26"/><path d="M389.25 161a10.43 10.43 0 000-4.2c-.63-.11-1.19-.22-1.59.23a15.73 15.73 0 00-1.37-3.15c-.29-1-1.08-1.86-.92-3 .39-.8 1.34-1.71.71-2.55-1.13 0-1.8 1.87-3 1.25 0 2.72.22 6.45.29 9.17.11.29.45.1.73.16.29.74 1.09 1.47.7 2.26-.57-.57-.69-1.52-1.32-2.13-.1 1.52.37 3.21-.36 4.46-.32-5-.41-10.29-.61-14.66-.1-.52-.74-.93-.71-1.47l-.83-.77-.5.34c.79.51.52 1.58.58 2.43-.62-.17-.41-1.24-.58-1.81l-.63-.84c-.61 1.39.39 2.49.86 3.71l.37 1.51c.68 2.42 1.32 5.86-.64 7.84h-.33c.16-.9.89-1.81 1-2.88a7.58 7.58 0 00-.42-4.07c-.44.67-1.47.22-1.18 1.36-.84 7.92-3.45 15.06-6.3 22.17l.17 1.2a4.69 4.69 0 00.18 1.27c.07 1.42.19 3.4.31 4.47.35.57 1 .22 1.53.34-.61 1.13-1.62 2.15-1.78 3.45-.22 1.53.52 3.29-.6 4.7.69 2-1.73 4 .44 5.61 2.2-.31 4.91-.66 6.09-3.1 1.29-.35.43-2.1.77-2.89h.33c0 .91-.21 1.75.92 1.64.28.21.62.39.91.61.59-.65.66-2 1.38-2.23h.95c.17-.61.35-1.23.58-1.85 0-.74-.85-1.13-1-1.81-.58-1.47-1.43-2.87-1.55-4.39.56-.18.45.51.62.73 1 1.12 2.22 2 3.19 3 .55-2 .2-4 .86-5.95-.91-2.53.87-5.21.35-7.81.33-1 1.63-1.76 1.11-2.95-1.2-3.67.93-6.12.29-9.4zm-5.81 3.31c-.1 1.23.76 2.59-.26 3.44v-3.44zm-2.27 8.22c-.45.17-.73.62-1.24.45.45-.67 1.24-.85 1.8-1.36.46.17-.33.67-.56.86zm.51-8.84c-.39.51-.89 1.25-1.57 1.43a2.38 2.38 0 011.57-1.48zm-.48 4.19a1.92 1.92 0 01-1.8 1.2c.6-.34 1.18-1.08 1.8-1.25zm-5.72 25.5c0-.22.28-.12.4-.12v.12c.67 0 1.35-.58 2.15-.52-.8.24-1.75 1.03-2.55.47zm2.91-5.62a7 7 0 011.4-2.27 3.61 3.61 0 01-1.4 2.22zm.52 2.09c-.18-.84.78-1.7 1.34-2.21a8.82 8.82 0 01-1.34 2.16zm2.19-11h-1c.51-.4 1.36-.47 1.81-1.15.32.54-.41.88-.81 1.11zm1.44 3.45h-.29c.17-.51 0-1.3.51-1.65a2.91 2.91 0 01-.22 1.61zm.75-6.63c-.34 1.12.36 2.66-.37 3.56l-.17-.16c0-1.08-.25-2.72.54-3.4zm.1-2.16l-.19-2.42a.65.65 0 01.51.22c.12.63.29 1.69-.32 2.16zm1.83-14.51a25.51 25.51 0 01-1.72-4c.56-.23.68.51.9.79.07 1.21 1.15 2.06.82 3.21zm1.43 11.3c-.06-.22 0-.56.28-.45a9.4 9.4 0 01.75 2.66c-.74-.24-.8-1.38-1.03-2.17zm1.89-5.6c-.23-.4-.8-.63-.91-1a1 1 0 011.19.57c-.17.24 0 .52-.28.47z" fill="#efe8c7"/><path d="M212.82 195.9c.35 1.58 1 2.94 1.27 4.59 1 .43.18 1.63.13 2.42-.51.28-1.18.91-1.75.52a22 22 0 00-.55-6.45 1.88 1.88 0 01.9-1.08" fill="#9a3b26"/><path d="M231.9 197.82l2.47 5.36a21.25 21.25 0 00-4.23 3.31c0 .27-.45.5-.1.79-.06.11-.23.11-.35.11-1.7-2-6.13-3.52-5.13-6.7a7.45 7.45 0 015.07-4.5c1.07-.12 1.64.9 2.27 1.63" fill="#773141"/><path d="M357.35 225.59c-1.43-2.71-3.31-5.42-4.24-8.13 2.36-3.91 5.67-7 7.4-11.25 3.13-6.41 2.4-13.81 1.57-20.65-1.18 1.36-2.7 2.73-3.14 4.49.2 4.35-3.58 7.65-4 11.62a18.84 18.84 0 01-3.38 11.45c-.39.34 0 1.24-.79 1.14-.86-2-2.12-3.9-2.47-6.1a1.62 1.62 0 01.45-.71l1.35-1.16 2.53-2.46c3.37-4 2.48-9.86 4.38-14.4 2.63-3.68 1.13-8.48-.36-12.27-.59 4.87-4.53 8.4-5.92 12.94-1 2.78-.7 5.66-.79 8.55-.21 2.31-.76 5.21-2.67 6.86l-1.54-1.92a11.51 11.51 0 01-1.26-3 5.65 5.65 0 011.63-.91 7.6 7.6 0 003.3-6.76 100 100 0 01-.26-13.63c-.2-4.92 1.46-10.19.81-14.89l-1.41 1.31c-6.58 5.3-2 14.78-4.44 21.42.74 1.58-.21 3.4.71 5 .57 1.85-.83 3-1.9 4.2-.17.1-.28-.12-.39-.17.21-1.14 1.34-1.77 1.68-2.78.15-1.81-.71-3.79-.72-5.72-1.35.58-2.83-.26-4 .77-.29.34-1.24.91-.73 1.42a3.81 3.81 0 00-.37 4.07c.63.67 1.71 1.52 1.94 2.53-.12.06-.28.29-.39.12a24.09 24.09 0 01-2.17-2.65c-1.25 0-1.42-1.46-2.78-.77-.56.28-.79-.22-1.07-.45-.4.51-1.25 1-1 1.76 1.13 1.19 2.28 3.09 4.37 2.64.28.11.68.5.4.79a2.08 2.08 0 01-1.92-.27l-.12.1c-.9-.22-1.47-1.23-2.44-1.61l-3.28.69c-2.76 1.15-5.2-.53-8.14 0-2.84.07-5.67-1.43-8.33-.29-1.91 0-2.41 1.83-3.65 3 1 .91 2.55.11 3.79-.07 5.2-1.11 9.86 1.07 14.34 2.73 3.33-.36 7.92.41 11-1.48a27.94 27.94 0 012.06 3c.12.56 1 1.47 0 1.81-1.93-.61-3.69-1.56-5.5-2.28s-3.67.36-5.43-.08c-5 1.17-10.86 1.88-16.18.73.06.91.8 1.57 1.15 2.43 1.83 3.54 5.62 2.95 9 2.87 3.78-.25 7-1.91 10.56-2.6 1.19.32 2.43 0 3.68.36 2.21.6 4.87.42 6.13 3a19.51 19.51 0 011.14 2 61.47 61.47 0 012.82 6.94l-.22.39c-4.36 0-7.83-2.61-11.24-5.24l-3.28-.66c-2.79-1.45-5.72.21-8.66.23-3.17.52-5.39-1.67-8.44-1.14-.68.07-.73.86-.5 1.31 1.6 2.31 3.93 3.31 6.25 4.14 3.11.21 5.72 1.55 8.67 2.21 3.18 1.05 6.4.24 9.57 1.35 2.56 2.14 6.58 1.83 9.29.34l.39.28c-.1.67-.51.06-.79.51 5.95 9.75 11.78 19.51 18.69 28.85.39-1.25 1.91-1.76 2.93-2-3.72-8.3-9.14-15.84-13.67-23.85zm-18.12-29.19c-.56.22-1.41-.5-2.2-.37v-.4c.73.27 1.69.21 2.2.77zm1.35-1.15h-.22a6 6 0 01.59-3.34 20.2 20.2 0 01-.37 3.34z" fill="#1d5c42"/><path d="M219.41 200.73a26.81 26.81 0 01-1.43 5.84h-.17a6.76 6.76 0 01-1-3.9 1 1 0 001.4-.68l.39-2c.39.05.51.51.85.73" fill="#9a3b26"/><path d="M338.75 201.38a13.29 13.29 0 011.89 3.26 9.6 9.6 0 01-3.4-1.61c-.8-.17-1.53-.51-2.33-.61 1.19-.07 2.71-1.09 3.84-1" fill="#b3995d"/><path d="M333 202.43a3.7 3.7 0 01-1.8.13c.5-.35 1.18 0 1.8-.13M330.22 202.45c-.29.4-.8 0-1.25.23.28-.39.85-.11 1.25-.23" fill="#9a3b26"/><path d="M235.74 206.34a9.93 9.93 0 01.82 3.22c.39.22.4 1 .52 1.52-.57-.11-1.36 0-1.53-.67a12.53 12.53 0 01-5-2.85c.49-1.93 2.7-2.68 4.16-3.88.68.63.74 1.75 1 2.66" fill="#773141"/><path d="M257.29 205.29c.35.9-.38 1.13-1 1.43-2.32.51-5.66.93-7.31-1.09a1.17 1.17 0 01.28-1c2.43-.08 5.54-.66 7.86.18l.17.5M256.29 207.51c.29.39.8.44.91.89a4.55 4.55 0 01-2 .35c-.23-.56-.91-.56-1.31-1l2.54-.64c-.17.06 0 .28-.11.4M261.39 208.83a2.09 2.09 0 01-1.11 1.93 6.37 6.37 0 01-5-.08 1.67 1.67 0 01-.91-1.29c2.55.49 4.29-1.33 6.62-1.06l.39.5" fill="#9a3b26"/><path d="M234.41 210.93c-7 6.44-13.15 13.6-21 19-.39-.22-.34-.84-.34-1.35l1-1.7c4.6-5.24 9.38-9.74 14.16-14.69a12.62 12.62 0 002.35-3.58c1.26.89 2.62 1.51 3.86 2.35" fill="#773141"/><path d="M212.76 212.76c-.74-.16-.41-1.46-.36-1.91.51-.18.28-.85.62-1.2a1 1 0 001.25.56l1-.91a4 4 0 01-2.52 3.46M378.94 211.54a2.49 2.49 0 00-2.56-1.52 27 27 0 00-3.95 1.83c-.12-.45-.46-.95-.4-1.41.62-.17.78-1 1.29-1.31 1.42 1.18 2.72.32 4.19 0a1.42 1.42 0 001.24.5 4.08 4.08 0 001-1c0 .84.08 2.37-.82 2.95M269.47 215.57a61.17 61.17 0 0017.58 6.51c-.61.79-1.63.91-2.13 1.77.05-.18-.18-.68-.52-.63-3.74-1-8-1-11-3.37l.11-.13a19.25 19.25 0 01-3.91-1.6c-3.52-1.62-6.76-4.59-10.34-6.44a4.74 4.74 0 002-1.15c2.5 2.26 5.51 3.36 8.23 5" fill="#9a3b26"/><path d="M216.49 212.57a.42.42 0 01-.51.17l-.4-1.07c.56-.39.63.57.91.9"/><path d="M378.88 212.15a2.94 2.94 0 01-.1 2.1 4.29 4.29 0 00-2 2 1.29 1.29 0 00-1.25-.73l-.11.12c-.06-.11 1-2.39-.92-1.75a1.47 1.47 0 00-.5-.89c-.51-.11-.73.3-1.19.3a2.25 2.25 0 00-.11-.79c1.52-.81 2.86-1.77 4.68-1.68.62.28.8 1.13 1.53 1.35" fill="#efe8c7"/><path d="M214.71 218l-.22.86c-1.31-1.13-1.21-3-1.61-4.57.05-.4.11-.91.56-1a12.56 12.56 0 001.27 4.74M375 214.5c-.05 1.53-1.81 1.47-2.43 2.56l.12.11-.34.18a4.05 4.05 0 000-2.83c-.06-1 1-.29 1.47-.75 0 .57.69 1.13 1.2.73" fill="#9a3b26"/><path d="M374.41 220.21c-.46-1.12.15-2.32-.93-3.15l1.41-1c-.78 1.53 2.74 3.2-.48 4.18" fill="#efe8c7"/><path d="M376.65 216.92l.62-.18a4.56 4.56 0 01-.83 1.82c-.13-.85-1.26-1.41-.7-2.43.46.12.46.68.91.79M373.2 217.8c.69.83-.15 2.59 1.16 3a2.2 2.2 0 001-.85h.28c-.27 1.48-1.57 2.56-2.24 3.93-.24-2-2.06-4-1.22-6.1.28.45.67 0 1 0M293.26 219c-1.29 1.65-2.93 3.19-4.38 5-.85.35-1.64 1.15-2.72.7l-.51-.51a52.74 52.74 0 006.08-5c.17-.12.79-.18.51-.52a2.55 2.55 0 011 .39M298.36 219.58c-.44 2.82-3 5.16-5.68 5.91-.29 0-.79-.05-.8-.38a11.94 11.94 0 004.11-3.26c.68-.86 1.12-2 2.14-2.5l.23.23" fill="#9a3b26"/><path d="M268.31 220c.69 1.35-1.12 1-1.63 1.59a3 3 0 01-2.32-.55 1.45 1.45 0 01-.35-1.14c1.58-.29 3.12 1.91 4.3.1" fill="#efe8c7"/><path d="M322.75 262.07a8.26 8.26 0 01.84.91.78.78 0 001.19.1c.45-.28.73-.63 1.35-.51-.09 2.43-3.2 4-2.33 6.46.28.28.85.73 1.36.39l1.4-1.54c.07 2.61-1.78 4.48-3.52 6.25-.88-4 1-7.81-1.09-11.64a5.14 5.14 0 01.12-.9l.68.48M293.57 223.06c-1.13.62-2.37 1.89-3.73.93l1.18-1.43a12.65 12.65 0 002.55.5" fill="#9a3b26"/><path d="M365.56 217.38a1.89 1.89 0 01.67-1.58c.45-.74-.29-1.36-.52-1.87-1-1.46-3-2.24-2.86-4.23.45-.73 1.7-.69 2.26-.86l-.11-.1c2-3-2.17-3.5-2.59-6a23.41 23.41 0 01-1.22 3.69h.34a20.07 20.07 0 01-2 7.77.55.55 0 01-.53-.2 19.24 19.24 0 001.88-6.9c-1.67 3.85-4.87 6.87-7.06 10.51l.29 1.12c2.8 4.86 5.83 9.65 8.64 14.44.33-.29.73-.29 1.13-.47a9.49 9.49 0 00-1.45-5.36c-.34-.5-1-1.29-.41-1.81a4.69 4.69 0 011.93 1.07c.85-.18.79-1.31 1.23-1.94.51-1.24-1.25-1.57-1.65-2.53-.93-2.26 2-.13 2.42-1.82.3-1.07.87-2.2-.39-2.93zm-4.95-4.61h.39a22.08 22.08 0 01-1.22 4.37h-.28c.5-1.42.44-3.05 1.11-4.37zm-2 12c-.35-.63 0-1.47.15-2.15l.6-2.95h.23a21 21 0 01-.82 5c-.12 0-.18.07-.17.12zm1.31 1.92a.36.36 0 01-.23.11c-.4-.56-.07-1.36.1-1.93.62.3.11 1.39.12 1.84zm1.29-.64h-.39c.83-2.9.36-6.28.79-9.57.11-.12.22-.28.39-.17-.44 3.08.15 6.87-.8 9.76z" fill="#efe8c7"/><path d="M349.93 261.21c.87 1.94 0 4.26-1 6-.39.52.23.57.52.79 2-.13 1.91-2.56 3.43-3.47.79-.12 1.19.56 1.76.89 1.17-1.54-.93-2.65-.93-4.19-.06.06-.11.18-.23.12-.4.34-.79 1.25-1.63 1a5.62 5.62 0 01-1.45-1l-.5-.17" fill="#9a3b26"/><path d="M349.85 260.56a.4.4 0 00-.14-.35c2.49-.3 2.69-3.3 4-5 .06-.38.39-.9.11-1.29s-.74-.21-1-.11-.51 1-1 .75l-1.14-1c.33-.29.22-.74.33-1 2.38-.42 3.43-2.86 4.22-4.73-1-.84-1.81 1.26-2.33-.32-.28-.56-.29-1.24-.8-1.69-1-.45-2.14 1.42-2.49-.21a16.68 16.68 0 007.32-5.31c0-.51.39-1 .1-1.47-1.08-1.24-2.08 1.08-3.16 1.49-1.24.51-2.19 1.54-3.32 2.11.22-1.53-.25-3.11 1.5-4.15a.58.58 0 00-.51-.72H351c.27-1.31 0-2.89 1.16-3.86.11-1.08-1.7-.67-1.15-1.86a11.37 11.37 0 00.43-4.35c2.74 4.1 5.15 8.33 7.89 12.44-.11.23-1-1-1.3 0a6.44 6.44 0 001.33 3.95c-.52-.27-1-1-1.71-1.06-1.52.8-.16 2.32 0 3.44.63.52.81 1.42 1.6 1.7-.05.74.23 1.53-.16 2-.91-1.24-1.26-3.11-2.79-3.72a8.35 8.35 0 00.13 3.74 9.67 9.67 0 001.66 3.5 6.73 6.73 0 00-.19 4.24c-1.31-1.35-1.77-3.11-2.69-4.68-.17-.05-.28.11-.4.23l.12.38-.51.23a5.78 5.78 0 002 6.39 9.53 9.53 0 01-.89 3.29c-.85-.89-.8-2.26-1.66-3.15-.9 0-1 1.13-1.8 1.3a6.19 6.19 0 01-1.36-1l-.89-.22" fill="#efe8c7"/><path d="M356.43 240a13.13 13.13 0 01-6.87 5c.32-2.59 3.2-3.35 5.06-4.61l1.69-1.53c.45.28.06.91.12 1.12M271.51 242c.86 1.53.7 3.67 2.57 4.46a9.39 9.39 0 01-.59 4.53c-.4.05-.5.56-.28.9l.18.17c-1 .23-1.15-1.92-2.67-1.29-.08-3.16.53-5.66.56-8.77h.23M235.38 246.57a2.46 2.46 0 001.53-.92c-.17 1.09-1.41 2.34-.5 3.24a4.07 4.07 0 002.2-1 10.54 10.54 0 01-.26 3c-1.3.8-1.8 2.43-3.32 2.9-.14-3.39.24-6.28-.68-9.56.45.73.24 1.87 1 2.43M359.75 245.94a2.19 2.19 0 00-.33 1.47c-.8-1.12-1.94-2.36-1.67-3.89.86.56 1.93 1.52 2 2.42" fill="#9a3b26"/><path d="M303.45 237.88c-.69-1.69-2.84-2.75-3.08-4.68-.35-.95-1.37-.67-2.16-.88a14.77 14.77 0 00-.48 3.05c-.33 1.53.12 2.6.41 4a9.71 9.71 0 011.78 3l-.4.23c-.64-1.92-2.5-3.38-2.41-5.59-.58-2.59 1.5-4.7.8-7.46.1-1-.24-2.56-.14-3.74.06-.17.34-.11.28-.34-.63-.08-1.3-.09-1.93-.19v1c-.18 1.7.11 3.78-.21 5.13-1.65.41-2.72-1-3.69-2.12a5.66 5.66 0 00-1.24 1.77c0 1 1.2 1.62 1.66 2.41-1.47.41-3.05.92-4.46 1.16-.5 1.08-.26 3-.2 4.09.4.38 0 1.06.46 1.51.68.28.9-.57 1.53-.52a21.79 21.79 0 01.41 3.23 22.24 22.24 0 00-1.85 1.65l.36 5.31c1.48.27 2.77-.81 3.73-1.88a2 2 0 01-1.18 1.64c-1.18.12-.62 1.25-.89 1.81.58 2.32-2.64 2.34-1.84 4.6.4.56 1.07.5 1.65.61a36.4 36.4 0 00-1.09 6.63 1.13 1.13 0 001 .33c-.67 1.19-.38 2.55-.37 4 1.25 1.39 3.28-.31 4.3 1.15a32 32 0 01-3.76 3.94c-.79-.18-.68.67-.78 1.13 1.14 2.2 3-.3 4.63-.26.46.85-.27 1.53-.49 2.27a10.35 10.35 0 01-3.44 2c-.84 1.38-.72 2.78-1 4.37a2.64 2.64 0 011.88 1.22c.18 1.7 1 3.63.71 5.38a.9.9 0 01-1.19.29l-.34-.17c-.45.63-.32 1.65-.5 2.21l1-.8c1 1.19.25 3.23 1.05 4.58 1.17-2.05 2-5.16 1.19-7.36a2.85 2.85 0 01.16-3.06c1 .44 1.13 1.69 2.15 2 1-1.37 2.14-2.73 2.24-4.49-.19-2.49-2.91-3.66-3.32-6.08.51-.35.9.21 1.36.32 0 .17.17.28.28.4s.29-.12.4-.23l.09-2.94c.23-.23.51 0 .74.1.67-1.08-.36-2.82-.88-4.06-.11-.46-.35-1.35.34-1.53.5-.18.62.33 1 .61.51-.28-.23-1.3.56-1.13a5.89 5.89 0 01.68.85l.79-.25c-.06-1.44.78-3-.64-4.06-.35-1.37-1-2.6-1.44-3.9l.15-.37v.09a3.13 3.13 0 001 .27l.22-.17c-.29-1.92-.76-4.23-.43-5.93a4.12 4.12 0 011.31 1.74 12.31 12.31 0 001 2.43c.33-.63.1-1.14.61-1.76a41.57 41.57 0 01.74-7.42c-.06-1-1.08-1.64-.7-2.66 1.47-1.13 1.4-3.68 1.16-5.37-.12-.51-.69-1.13-.18-1.65.45-.43 1.64-.67.9-1.46zm-13.08 6.19c-.29-.45.27-.58.5-.91a1.86 1.86 0 011.18-.35 11.16 11.16 0 01-1.68 1.26zm4.51-9.81l.91-1c.28.06.22.4.39.4l-.28.33c.69.52 0 1.37.18 1.93-.77 2.09 0 4.41-.63 6.74h-.4c.38-2.44-.14-5.38.75-7.87l-.12-.5-.51.62c-.17-.27-.4-.27-.29-.65zm-.77 37.06l-.4-.05c.22-.79 1-1.37 1.4-2.06a12.74 12.74 0 00.08-4.17c.63.33.41 1.4.58 2.13.3 1.7-1.1 3.12-1.66 4.15zm1.63-10.32c-.06.11-.17.11-.29.11a1.69 1.69 0 01-.12-1.47c.57.18.18.92.41 1.36zm-.42-3.4c-.46-.39 0-1.19.1-1.7h.28a2.66 2.66 0 01-.38 1.66zm1.08-6.63a7.17 7.17 0 01-1.38 3.58h-.34c0-.73.61-1.19.83-1.82a17 17 0 00.59-5.32c.9.92.02 2.45.3 3.52zm.28 6.46h.32c.17.86.84 1.61.91 2.42a2.79 2.79 0 01-1.23-2.46zm2-9.93c-.56-.22-.79-1-1.08-1.52a5.09 5.09 0 01.37-3.56l.17.22c-.21 1.53-.49 3.23.66 4.47.2.07.02.24-.1.35zm3-1.54a2.44 2.44 0 01-1.13-.79l.11-.33a5.55 5.55 0 011.19.83z" fill="#efe8c7"/><path d="M352.52 248c.29.84 1.24.45 1.81.32a6.08 6.08 0 01-3.54 3.71c-.63-1.19-1.83-2.48-.93-3.91a2.45 2.45 0 00.27-1.41 7.64 7.64 0 001.53-.51l.86 1.8" fill="#9a3b26"/><path d="M329.27 249.19v.46c-.73-.4-.51-1.36-.69-2.14l.11-.53a5.42 5.42 0 01.58 2.21"/><path d="M266.24 249.43c-.57.35-1.24.18-1.81.51-.57-.33.16-1.29-.24-1.91a7.89 7.89 0 003.56-.54c.74 1.19-.72 1.6-1.51 1.94M358.93 250.75l-.49 2.05a10.13 10.13 0 01-1.57-5.48 18.68 18.68 0 002.06 3.43M333.35 250.64c.4.91-.6 1.93-.26 2.82-.74-1.22-1.88-2.25-2.17-3.65.34.1.62.61.9.39.11-.12.29-.23.23-.4.28.33.5-.12.79-.12.23.34.06.84.51 1" fill="#9a3b26"/><path d="M371.49 250.28c.23.39.29.85.68 1.18.85-.69.8.8 1.43.95a18 18 0 012.52 5.48c-2.67-1.51-5.68-3.08-7.28-5.68-.34-.67.27-1.4.9-1.64s1.06-.63 1.74-.29" fill="#1d5c42"/><path d="M323.68 251.27c-.11.84-1.46 1.87-.38 2.55l1.53.1c.46 1.8-.94 3.06-2.18 4-.22 0-.57.51-.74 0 .22-1.81-.36-3.34-.31-5.09 1 .1 1-1.53 2.08-1.54M268.17 251.73a9.92 9.92 0 01-2.81 2.17c-.34-.22-.79-.22-1-.61v-.79a7 7 0 003.84-.77M357.8 258.69a2.17 2.17 0 01-.51 1.13 2.92 2.92 0 01-1.65-1.51c-.8-1.58-.64-2.54-.54-4.36.3 1.82 1.72 3.21 2.7 4.74M352.45 255.15l.73-.79v.64c-1.13 1.49-1.62 3.3-3 4.61h-.29c1.8-1.66-.64-3.51.59-5.44.68.22 1 1.52 1.93 1M237.15 257.25l.5-.51c.12 1.08.08 2.66-1.05 3.35-.23-.12-.51.23-.73.34.33-1.47-.25-3.33-.32-5 .74.5.13 2.89 1.6 1.85M300.76 258.76a15 15 0 01-.7 5.84c-.41-1.47-1.26-2.65-1.67-4.07.68.11 1 .22 1.36-.34-.07-1.64-.76-3.22-.66-4.86a27.8 27.8 0 001.67 3.43M242.07 257.9c-.89 1 0 1.93-.32 3a10.18 10.18 0 01-1.44-3.55c.29-.06.52.22.74 0a1.78 1.78 0 00.39-1.35 2.47 2.47 0 01.63 1.91M273.05 262.8l-.2 3.68h-.05c-.64-2.1-2.12-4.23-1.69-6.28.63.68-.09 2.05 1 2.43 1-.46.56-1.42.78-2.15l-.14-3.57c.58 1.82 1.73 4.18.26 5.89" fill="#9a3b26"/><path d="M248.83 216.61c1.62-3.13-2.36-5.2-3-8-.34-.84.73-1.7.49-2.66 0-.51.39-1 .39-1.59a6.8 6.8 0 00.5-1.36c-.11-.45-.62-.83-1-1.12-.78 2.5-1 5.27-3.24 7.1-1.3.35-2.71 1.48-4.12.59a3.07 3.07 0 00.41 2.88 2.21 2.21 0 01-2.26.64c-1.07.57-.95 2-1.11 3.23a1.4 1.4 0 001.11.68c.56.18 1.19.57 1.25 1.18-.51.63-.62-.5-1-.5-.28 1.65-.55 3.23-2 4.32.86 2-.71 4.08-.19 6.34.68.22 1.3-.41 1.92-.53a4 4 0 010 1.81c-.28 1.09-1.64.75-2 1.77-.61 2-.32 3.91-.31 5.77a12.39 12.39 0 00-.08 4.07l1-.68c.5-.45.5-1.52 1.28-1.37.29.58-.5.91-.61 1.42-1.3.52-1.17 1.82-1.67 2.79l.39.11a4.7 4.7 0 01.69 2.32c.62-.29.79-1 1.52-1 1.42.78-.38 2.43-.37 3.39 1-.06 1.91-2 2.77-.75.06 1.47.07 3.11-1.11 4.19-1 .46-1.57 1.94-2.75 2.33.29 1 1.14 1.65 1.26 2.66.39-.39.55-1 1.12-1.14.56-1.13 1.06-2 1.68-3.07.28.07.4.4.46.63a8.2 8.2 0 01-1.85 2.66c.4.68.12 1.42.24 2.16-.34 1.19-.84 2.83-2.36 3.06.91.51.4 1.31.86 2 .34.11.45-.23.79-.12 1.54 1.06-.83 2.72.54 4.07.22-.23.56-.46.84-.24-.06-.61-.4-1.63-.12-2.19s.16-.69.79-.75.68 1.13 1.24.9l-.11-.12.62-.57a4.26 4.26 0 00.15-2.77l-.51.23c-.74-1.52-1.88-2.88-1.73-4.79.34-.51.8.15 1.13 0a10.82 10.82 0 00-.12-2.32c1.24-.69 1.14 1.24 1.82 1.8.11-.86-.07-1.81 0-2.77 2.13-1.6-.83-3.9 1.19-5.5-.51-2.6 1.73-4.82.75-7.24.06-.86 1.07-1 1.41-1.6 0-2.09-.93-3.9 0-5.82-1.44-3.33 1.77-5.61 1.47-9.07-.47-1.69-1-3.27.59-4.59.45-.11.91.39 1.36-.22a6.13 6.13 0 01-.41-2.65zm-9 44.36c-.62.18-.4-1.35-1-.79.28.23-.06.4-.11.63h-.29a7.74 7.74 0 01.61-3.06c.45.22.23.51.29 1 .15.76.78 1.65.5 2.25zm-1.42-18c-.11-.45.51-1.23.61-1.92 0-.33.06-.85.51-.85a3.07 3.07 0 01-1.12 2.8zm2.2-2.16c.11.34.29 1-.39 1h-.17c.55-1.81.37-4 1.26-5.73h.23c-.54 1.52-.21 3.21-.93 4.74zm-.1-15.27c.22-.07.28.1.45.22l-.49 2.72c-1.13-.38.05-1.91.04-2.93zm1.07 8c-.23.23-.46.11-.51-.17v-4.69c.17 0 .22-.19.45-.12a36.74 36.74 0 01.06 5.02zm-.58-11.45c-.34.41-.56 1-1.07 1.2a1.76 1.76 0 01-1-.06c.29-.46 1.42-.68 1.52-1.53a9.58 9.58 0 00.22-2.15l-.74.51c-.11-.11-.11-.34-.28-.39a3.63 3.63 0 001.39-3.52c-.45-.16-.68.46-1-.27.11-.46.73-.23 1-.41l1.34-1.13c.35.67-.44.9-.72 1.42.1 2.36-.46 3.95-.66 6.33zm1.38 3.68c-.57-.91-.3-2.21-.25-3.18l.34-.4c.57 1-.33 2.32.41 3.35a.62.62 0 01-.5.23zm1.76-7.15l-.28-.61c-.57.38-.17 1.75-.84 1.91l-.17-.39a23.53 23.53 0 011-4.58c.63.39.07 1.18.13 1.8s.72 1.25.16 1.87zM335.75 236.15c-.35-1.7-2.84-2.81-1.78-4.69 0-.5-.52-.72-.63-1.18-2.11-1.52-1.67-4.23-3.27-6a44.73 44.73 0 01.43 5.09c-2 2 1.83 3 .83 4.92-.06.23-.4.5-.63.27.39-1.53-1.26-2.47-1.44-3.94 1.23-3.29-.15-6.28-.17-9.45l-.39.4a35.24 35.24 0 01-.49 4c-.83 1.46.37 3.11.15 4.86-.11.56.4 1.24-.11 1.65-.17-.07-.28-.07-.39-.18-.18-1.7 0-3.51-.54-5l-.4.34c-1.35.18-1.59-1.46-2.45-2l-1.22 2.72c-.62.86.57.86.91 1.24 0 .18-.17.29-.28.39-1.13 0-2 .81-3 .93v.34c-.33 1.19.85 1.3 1.53 1.69a2.82 2.82 0 01-2.13 1.37 15.55 15.55 0 00.65 5.49c.12.73 1.14 1.41.3 2.14a2.1 2.1 0 00-1 2c-.44 1.82 1.42.62 2.05 1.4-2.08 2-1.1 5.11-.75 7.64a6.5 6.5 0 011.29-1.64c.63-.12 1.47-1 1.93-.17a23 23 0 01-1 2.32c.52.33 1.36.16 1.76.49 1 3.22-2.46 4.09-3 6.87l.11.05a3.66 3.66 0 00-.28.56l1 .57a4.65 4.65 0 001 1.24c.61-.4 1.35-1.14 2.25-.75.81 2.14-1.67 3.13-2 5 0 .57-.39 1.59.3 1.86l2-2.27c.45-.06.4.4.5.61-.26 1.32-.31 2.95-1.27 4-.16 1.18-1.12 1.7-1.9 2.79l.17.16c.11.29-.17.4-.05.63l.05-.12c1.07-.52 1 .95 1.54 1.46.79-.91 2.14-.75 2.75-1.77.95-2.1-.47-4.3-.26-6.61.23-.18.34-.41.62-.3.85 1 .75 2.37 1.77 3.34a11 11 0 00.1-1.82c-.17.06-.22.29-.44.17a25.47 25.47 0 01-1.85-4.68 6.36 6.36 0 01.1-2.94c.22-.07.34.11.51.22.46 1.53 1.49 2.87 1.84 4.45h.11c.73-1.3.26-3.39.36-4.69a1.83 1.83 0 01.5-2c-.12-2.08 1.9-3.85 1-5.77-.16.07-.27.29-.5.07a13.92 13.92 0 01-2.69-5.08l.22-.29c.69-.05.91.56 1.25.9.11-.29-.17-.34.06-.62.39-.23.79.22 1 .51.17-.12.05-.4.05-.57a.43.43 0 01.51-.34c-.57-.91-.29-1.59 0-2.56a20.54 20.54 0 01-2.07-5c.33-.62 1.07-.17 1.46-.51a4.27 4.27 0 001.81-.31c1-.79-.24-1.8-.13-2.75.15-1.09 1.29-.3 1.74-1.15zm-8.15-.7h.17c-.33 2.66.26 5.27.39 8.09h-.51c-.01-2.54-1-5.65-.05-8.09zm-1.12 19.3h-.23c1.34-2.26 1.22-5 1.31-7.47-.39.62-.38 1.81-1.23 1.76-.12-.45.39-.91.5-1.41.5-1 .2-2.16.89-2.89l-.16 2.37h.51c-.49 2.6.43 5.82-1.59 7.64zm1.3 9.06c-.22.05-.28-.12-.45-.23.21-1.75 0-3.33.19-5.09h.28c-.15 1.98.42 3.61-.02 5.32zm.46-8.27a5.77 5.77 0 01-.13-2.82h.28c-.05.89.61 2.28-.15 2.82zm1.12-10.42l-.17-.16c-.3-2.22-.88-4.59-.39-6.85a.59.59 0 01.62-.41c.29.29-.22.46-.22.74-.38 2.38.48 4.3.38 6.62-.11-.06-.17.06-.22.06zm3.88-12.64l-.17.39c-1-.44-1.14-1.52-1.43-2.42l.17-.4c.63.68.63 1.76 1.43 2.43z" fill="#efe8c7"/><path d="M266.32 262.44l.34.23a9.58 9.58 0 012.09-1.66 13.08 13.08 0 01-3.19 5.34v-.1l-.85-.12a13.89 13.89 0 00-.32-7.13c.9 1 1.93 2 1.94 3.44M236.68 263.54h1a4.35 4.35 0 00.42 4.17 1.25 1.25 0 01.51-.11 5.18 5.18 0 00-.49 3.17c1.87.33.24 2.43.65 3.67-1.48-1.57-.53-4-1.9-5.7-.47-1.35 1-3.34-.66-4.46 0-.68-.45-1 0-1.64.12.33.17.68.52.9M330.87 268.53a25 25 0 01-1.68-5.08 16.87 16.87 0 011.68 5.08M240.74 270.25a26.68 26.68 0 00-.76-3.06c0-.79-.57-1.68-.24-2.66 1.48 1.36 1.67 3.9 1 5.72" fill="#9a3b26"/><path d="M354 269.4c-.16 2.09-3 3-2.4 5.22l-1.81-.14c-1-1.31-.14-3.3-.55-4.82l-.45-1.3c.8.79 1.52-.29 2.37-.24 1.58-.52 1.27-4.7 3.33-2.17l-.49 3.45M275.43 235.28c.55-1.59-1-2.71-.94-4.13.22-1.58.78-3.28.26-4.91-1.25-.12-2.61-.05-3.35-1.12l.29 1.63c.12.63.69 1.36.36 1.93-.34 0-.23-.34-.52-.51a26 26 0 01-.76-5.08c.73-.85.21-1.88.77-2.83 0-.8-1.41-.73-2-1.41-.29.11-.17.57-.56.52.63 1.69-.61 3.12-1.11 4.58a8 8 0 01-6.59 4.12L261 230c.28.56 1 .5 1.36 1.12 0 1.47-.49 2.44-.31 4 1.75.67.63 2.31.53 3.44.34.63.79.62 1.25 1.25-.39-.06-.05.39-.39.51.41 1.92-.65 4.07 1.33 5.36l-.72 1.53.23.23c1.35-.24 2.49 0 3.67-.65.68.39.35 1.48.3 2.15-.34.79-1.24.92-1.81 1.15-1.3.29-1.69.52-1.91 1.71 1.7.32 3.17-.59 4.63-1.17l.23.34c-.78 1.81-2.75 3-4.45 3.76a10.33 10.33 0 00-.82 3.57 5 5 0 012.57 3.55c.56-1.08 1.75-1.15 2.53-1.94l.34.33a14.46 14.46 0 01-3.86 6.83c-.28.51-.1 1.35-.55 1.74-.78 1.88-.31 5 .33 6.8l.39-.41c.28-.21.62 0 .85.23a39.47 39.47 0 011.11 5.88c.73-.79.67-1.93 1.23-2.84.28-.62.1-1.47.49-2a1.6 1.6 0 01.8 1.18v-.91c1.47-1.7 1.79-3.92 2-6.13 1.11-3.67-2.47-7-1.88-10.67 0-.28.34-.74.74-.63a5 5 0 01.91 2.48l.14-4.91a1.77 1.77 0 01.33-1.31c1.14.9 1.32 2.7 1.67 4.18a17.67 17.67 0 00.25-5.32c.27-2.26-2.61-.83-3-2.93-.4-.22-1.13.29-1.42-.32-.35-2.89.54-4.81.35-7.42-.12-1.13.67-2 .6-2.94-.8-2.21-.31-5.32-.38-7.36l.22-.28.17.17c.19 2.72-.25 5.37.51 8.09 1.42 1.23 1.09 3.32 2.35 4.56-.12-.61-.69-1.12-.3-1.75l1-.12c1.18-.91-.13-2.09-.13-3.17-.22-2.06 1.19-3.71.95-5.68zm-6.19 24.09h-.16a10.12 10.12 0 00-.24-2.15c-.29.29-.16.85-.68.86a14.38 14.38 0 00.88-3.47h.29c-.33 1.71.24 3.06-.09 4.76zm-1.37-28.63c-.23-.72.84-1.08 1.29-1.53-.12-1.18-.18-2.14-.3-3.22-.4.17-.45.45-.73.8-.12-.56.67-1.32 1.12-1.71a11.56 11.56 0 00.31 4.63c-.62-.1-1.29.58-1.69 1.03zm1.13 10.41h.28a5.83 5.83 0 01-.78 1.81c-.33-.62.41-1.13.5-1.81zm0 3.57a25 25 0 01.27-2.78h.11a5.7 5.7 0 01-.38 2.78zm-.42-3.8h-.22c-.12-.57.5-.8.61-1.31 0-1.75.71-3.56.13-5.2.29.16.29.62.46.9a10.51 10.51 0 01-1 5.61zm-.43 29.66c-.46-.56.39-.85.5-1.42a7.82 7.82 0 01.38-2 3.73 3.73 0 01-.9 3.42zm2.69-38.9a4.29 4.29 0 01-.41-2.53c.34.62.18 1.64.52 2.43zM240.23 271.27l-.61.9c-.23-.56.5-1.64-.63-1.8l-.12.12a2.42 2.42 0 010-1.53 7.92 7.92 0 01.5-1.54c.57 1.19.19 2.61.87 3.85" fill="#efe8c7"/><path d="M293.47 268.73c-1.35 1.24-2.3 3-4.17 3.46-.46-1 0-2.14 0-3.28l.62-.9c1.13.95 2.26.27 3.57.72M330.43 271.09h.22c-.54 2.43-.87 4.58-1.59 7 .22-1.09-1.43-2.83.31-3.46.56-1.75.1-3.11 0-4.93.29.51.47 1.47 1.09 1.42M292 276.65a26.1 26.1 0 00-2.43 1c-.85-.84-.07-2.14 0-3.28.4.22.63.73 1.19 1 1-.07 1.81-.75 2.77-1l.11-.17a3.08 3.08 0 01-1.62 2.45M351.17 275l-.12.11.51.1a2.27 2.27 0 01-.89 2.16c-1.13.41-.63-.89-1-1.34l.11-1.09c.56.06 1 .28 1.42.06M266.29 275.57c.81 2.26.09 4.47 1.52 6.33.45.22.67-.35.89-.63a28.77 28.77 0 001.11-3.46c.41 2-.71 3.85-1 5.83-.34.63-.51 1.53-1.24 1.82-2.05-2.64-1.56-6-2.1-9.27.4-.05.34-.61.79-.62M325.2 276.32c.12.18.4.34.51.23l-.11.11c.79.5 1.12-.75 1.81-.75.18 2.1-1.17 3.86-2.52 5.51h-.51a40.43 40.43 0 01-.32-5.77l.63-.34a8.7 8.7 0 01.51 1" fill="#9a3b26"/><path d="M328.89 278.84a11.32 11.32 0 01-1.09 6c-.91-.4-1.47.68-2.37.68-.29-.67.21-1.81-.81-2 .11-1.24 1-1.86 1.79-2.84a6.13 6.13 0 001.51-3.9c.46.56.35 1.58 1 2.13" fill="#efe8c7"/><path d="M290.62 283.51c.29 1.74 1.15 3.66.71 5.36-1 .18-1-.55-1.08-1.29-.46-1.52-1.32-3-.88-4.81.62-.27.85.51 1.25.74M325.43 286.34c.23-.34.51-.29.74-.46l-.12-.05c.57.38.74-.52 1.24-.47-1.51 1.72-.13 5.09-2.73 5.85a37.79 37.79 0 01.07-7.13c.4.67-.5 2 .8 2.26M295.51 287l.33-.35c-1.85 2.63-.92 6.18-2.32 9.08-.32 1.75-1.28 3.29-1.88 4.94-.24-.75-.24-1.94-.53-2.78-.35-2-1.44-4.06-1.06-6.38a2.88 2.88 0 00.62-.74c.28.33.28 1 .4 1.4a5.8 5.8 0 00.64 3.28 2.17 2.17 0 001.13-1.14c.77-2.43 1.88-5.55.51-8.15v-1c.8.5 1 2 2.17 1.86M260 71.16c-.38.38-1 .6-1.41 1.1a14.75 14.75 0 010 2.21h.81c.29-.37.82-.58 1.2-1v-2.46l-.59.19a1.06 1.06 0 00.22-.33" fill="#9a3b26"/><path d="M174.15 314.55a42.38 42.38 0 015.57.28 12.89 12.89 0 013.54.91 9.91 9.91 0 016 7.56 87.37 87.37 0 01.1 16.67q-1 5.89-5.62 8.06a16 16 0 01-4.27 1.19 46.54 46.54 0 01-6.45.36 38.23 38.23 0 01-6.3-.41 11.41 11.41 0 01-4-1.46 10.21 10.21 0 01-4.8-7.16 39.49 39.49 0 01-.38-6.65q0-8.7.91-12 1.26-4.51 6.65-6.42 2.63-.93 9.05-1m-.27 7.94a13.14 13.14 0 00-4.4.48 3.21 3.21 0 00-2 2.35 37.49 37.49 0 00-.43 7.26q0 5.31.6 6.93a2.84 2.84 0 001.75 1.7 15.51 15.51 0 004.37.43 10.86 10.86 0 004-.51 3.35 3.35 0 001.75-2q.67-1.73.68-7.46c0-2.38 0-4-.13-4.86a7.05 7.05 0 00-.5-2.25 2.81 2.81 0 00-1.7-1.64 13 13 0 00-4-.46m29.46-7.69v13.08h2.78L215 314.8h11.13L214 331.75l13.17 17.57h-11.36l-9.61-13.6h-2.86v13.6h-9.28V314.8h9.28m35.61 0v26.58h14.52v7.94h-23.8V314.8H239m38.26 28.58H264.8l-1.67 5.94h-9.61l10.37-34.52h14l10.49 34.52H279l-1.77-5.94m-1.84-6.7l-4.35-15-4.23 15h8.58m46.05-21.88v34.52h-9.28v-13.58h-12v13.58h-9.28V314.8h9.28v13h12v-13h9.28m21.07-.25a42.21 42.21 0 015.56.28 12.89 12.89 0 013.54.91 9.91 9.91 0 016 7.56 55.44 55.44 0 01.46 8.95 54 54 0 01-.36 7.72q-1 5.89-5.61 8.06a16 16 0 01-4.28 1.19 46.54 46.54 0 01-6.45.36 38 38 0 01-6.29-.41 11.26 11.26 0 01-4-1.46 10.22 10.22 0 01-4.81-7.16 40.61 40.61 0 01-.38-6.65q0-8.7.91-12 1.28-4.51 6.65-6.42 2.64-.93 9.06-1m-.28 7.94a13.18 13.18 0 00-4.4.48 3.23 3.23 0 00-2 2.35 37.49 37.49 0 00-.43 7.26q0 5.31.61 6.93a2.82 2.82 0 001.74 1.7 15.6 15.6 0 004.38.43 10.8 10.8 0 004-.51 3.35 3.35 0 001.75-2q.67-1.73.68-7.46 0-3.57-.12-4.86a7 7 0 00-.51-2.25 2.79 2.79 0 00-1.69-1.64 13 13 0 00-4-.46m62.92-7.69v34.52H396V339c0-2.55.17-6.57.45-12.09l.23-4h-.3l-1.22 3.95-1.16 3.88-2.61 7.86-3.56 10.72h-8l-3.64-10.74q-2.69-8-5.14-15.71h-.3l.23 4q.5 8.66.53 12.09v10.34h-9.11v-34.5h14.44l3.24 9.89q1.41 4.35 3.52 11.81h.35l.78-2.93q1.21-4.6 2.51-8.83l3.13-9.94h14.77m26.15 28.58h-12.42l-1.67 5.94h-9.61L418 314.8h14l10.49 34.52h-9.41l-1.77-5.94m-1.84-6.7l-4.35-15-4.23 15h8.58" fill="#fff"/></svg>