<svg xmlns="http://www.w3.org/2000/svg" width="270" height="300" viewBox="0 0 270 300"><path d="M28.9 69.64c-3 1.2-7.18 2-8 5.2.2 1.2 2.4 1.4 4.19 1-.2-2.2.4-3 3.2-2.4-.4-1.2.4-2.4.59-3.8zM234.33 69.64c3 1.2 7.18 2 8 5.2-.2 1.2-2.4 1.4-4.19 1 .2-2.2-.4-3-3.2-2.4.4-1.2-.4-2.4-.59-3.8zM147.49 173.66c2.59.81 6.58 1.81 7.18 4.61 0 1.2-2 1.2-3.79 1 .2-2-.4-2.8-3-2.4.4-1-.39-2.2-.39-3.2h0z" fill="#fff" stroke="#000" stroke-linecap="round" stroke-linejoin="round" stroke-width="2"/><path d="M69.63 132.05a20.39 20.39 0 00-2.8-7.4c0 .4-1.59.8-1.59.4a22.62 22.62 0 012.59 6.6 8.23 8.23 0 001.6.6h0l.2-.2zm2-70a20.39 20.39 0 00-2.8-7.4c0 .4-1.6.8-1.6.4a22.65 22.65 0 012.6 6.6 8.23 8.23 0 001.6.6h0l.2-.2zM19.52 82.44a20.39 20.39 0 012.8-7.4c0 .4 1.59.8 1.59.4A22.9 22.9 0 0021.32 82a8.23 8.23 0 01-1.6.6h0l-.2-.2z" fill="#fff" stroke="#000" stroke-linecap="round" stroke-linejoin="round" stroke-width="2"/><path d="M68.43 128.45a6.75 6.75 0 012.4.8c1.59 1.6 4.79 5 4.79 7.21 0-1.61 1.8-6 .2-7.41-1-1.4-6.19-1.6-7.39-.6zm0 .8c-1 0-2 1.2-2.59 2.2-1 2.6-2.8 7.81-1.8 10.41-.8-2.2-4.79-6-4-8.61.8-2 6.39-4.8 8.38-4zm-.6-1.8a4.31 4.31 0 00-2.19 2.4c-1 2.4-3.2 7.61-1.8 10.41-1-2.2-4.79-6-4.19-8.81.6-2.2 6.59-4.8 8.18-4zm2.6-69a6.69 6.69 0 012.39.8c1.6 1.6 4.79 5 4.79 7.21 0-1.6 1.8-6 .2-7.41-1-1.4-6.18-1.6-7.38-.6zm0 .8c-1 0-2 1.2-2.6 2.2C66.83 64 65 69.24 66 71.84c-.8-2.2-4.79-6-4-8.61.8-2 6.39-4.8 8.39-4zm-.6-1.8a4.33 4.33 0 00-2.2 2.4c-1 2.4-3.19 7.61-1.79 10.41-1-2.2-4.79-6-4.2-8.81.6-2.2 6.59-4.8 8.19-4zM20.72 78.84a6.75 6.75 0 00-2.4.8c-1.59 1.6-4.79 5-4.79 7.2 0-1.6-1.79-6-.2-7.4 1-1.4 6.19-1.6 7.39-.6zm0 .8c1 0 2 1.2 2.6 2.2 1 2.6 2.79 7.8 1.79 10.4.8-2.2 4.79-6 4-8.6-.79-2-6.38-4.8-8.38-4zm.6-1.8a4.28 4.28 0 012.19 2.4c1 2.4 3.2 7.6 1.8 10.4 1-2.2 4.79-6 4.19-8.8-.6-2.2-6.58-4.8-8.18-4z" fill="#fff" stroke="#000" stroke-linecap="round" stroke-linejoin="round"/><path d="M67.83 127.65a4.81 4.81 0 00-2.59 1.6c-1.2 1.6-3.4 5.6-2 7.21-1-1.61-5.59-4.21-4.79-6 .8-1.4 7.39-3.4 9.38-2.8zm-.2.2a4.18 4.18 0 012.6 2.6c1 2.2 3 7.61 1.8 10.21 1-2 4.79-5.81 4.19-8.61-.8-2-6.59-5-8.59-4.2zm2.2-70.22a4.84 4.84 0 00-2.6 1.6c-1.19 1.6-3.39 5.61-2 7.21-1-1.6-5.59-4.21-4.79-6 .8-1.4 7.38-3.4 9.38-2.8zm-.2.2a4.15 4.15 0 012.59 2.6c1 2.2 3 7.61 1.8 10.21 1-2 4.79-5.8 4.19-8.61-.79-2-6.58-5-8.58-4.2zM21.32 78a4.81 4.81 0 012.59 1.6c1.2 1.6 3.4 5.6 2 7.2 1-1.6 5.59-4.2 4.79-6-.8-1.4-7.38-3.4-9.38-2.8zm.2.2a4.18 4.18 0 00-2.6 2.6c-1 2.2-3 7.6-1.79 10.2-1-2-4.79-5.8-4.2-8.6.8-2 6.59-5 8.59-4.2z" fill="#fff" stroke="#000" stroke-linecap="round" stroke-linejoin="round"/><path d="M194.2 132.05a20.56 20.56 0 012.79-7.4c0 .4 1.6.8 1.6.4a22.62 22.62 0 00-2.59 6.6 8.23 8.23 0 01-1.6.6h0l-.2-.2zm-2-70a20.39 20.39 0 012.8-7.4c0 .4 1.59.8 1.59.4a22.9 22.9 0 00-2.59 6.6 8.23 8.23 0 01-1.6.6h0l-.2-.2zm52.11 20.41a20.39 20.39 0 00-2.8-7.4c0 .4-1.6.8-1.6.4a22.65 22.65 0 012.6 6.6 8.23 8.23 0 001.6.6h0l.2-.2z" fill="#fff" stroke="#000" stroke-linecap="round" stroke-linejoin="round" stroke-width="2"/><path d="M195.4 128.45a6.75 6.75 0 00-2.4.8c-1.6 1.6-4.79 5-4.79 7.21 0-1.61-1.8-6-.2-7.41 1-1.4 6.19-1.6 7.39-.6zm0 .8c1 0 2 1.2 2.59 2.2 1 2.6 2.8 7.81 1.8 10.41.8-2.2 4.79-6 4-8.61-.8-2-6.39-4.8-8.38-4zm.6-1.8a4.34 4.34 0 012.19 2.4c1 2.4 3.2 7.61 1.8 10.41 1-2.2 4.79-6 4.19-8.81-.6-2.2-6.59-4.8-8.18-4zm-2.6-69a6.62 6.62 0 00-2.39.8c-1.6 1.6-4.8 5-4.8 7.21 0-1.6-1.79-6-.2-7.41 1-1.4 6.19-1.6 7.39-.6zm0 .8c1 0 2 1.2 2.6 2.2 1 2.6 2.79 7.81 1.79 10.41.8-2.2 4.79-6 4-8.61-.8-2-6.39-4.8-8.39-4zm.6-1.8a4.33 4.33 0 012.2 2.4c1 2.4 3.19 7.61 1.79 10.41 1-2.2 4.79-6 4.19-8.81-.59-2.2-6.58-4.8-8.18-4zm49.11 21.41a6.62 6.62 0 012.39.8c1.6 1.6 4.8 5 4.8 7.2 0-1.6 1.79-6 .2-7.4-1-1.4-6.19-1.6-7.39-.6zm0 .8c-1 0-2 1.2-2.6 2.2-1 2.6-2.79 7.8-1.79 10.4-.8-2.2-4.79-6-4-8.6.8-2 6.39-4.8 8.39-4zm-.6-1.8a4.33 4.33 0 00-2.2 2.4c-1 2.4-3.19 7.6-1.79 10.4-1-2.2-4.79-6-4.19-8.8.59-2.2 6.58-4.8 8.18-4z" fill="#fff" stroke="#000" stroke-linecap="round" stroke-linejoin="round"/><path d="M196 127.65a4.85 4.85 0 012.59 1.6c1.2 1.6 3.39 5.6 2 7.21 1-1.61 5.59-4.21 4.79-6-.8-1.4-7.39-3.4-9.38-2.8zm.2.2a4.18 4.18 0 00-2.6 2.6c-1 2.2-3 7.61-1.8 10.21-1-2-4.79-5.81-4.19-8.61.8-2 6.59-5 8.59-4.2zM194 57.63a4.77 4.77 0 012.59 1.6c1.2 1.6 3.4 5.61 2 7.21 1-1.6 5.59-4.21 4.79-6-.8-1.4-7.38-3.4-9.38-2.8zm.2.2a4.18 4.18 0 00-2.6 2.6c-1 2.2-3 7.61-1.79 10.21-1-2-4.79-5.8-4.19-8.61.79-2 6.58-5 8.58-4.2zM242.51 78a4.84 4.84 0 00-2.6 1.6c-1.19 1.6-3.39 5.6-2 7.2-1-1.6-5.59-4.2-4.79-6 .8-1.4 7.38-3.4 9.38-2.8zm-.2.2a4.18 4.18 0 012.6 2.6c1 2.2 3 7.6 1.79 10.2 1-2 4.79-5.8 4.19-8.6-.79-2-6.58-5-8.58-4.2z" fill="#fff" stroke="#000" stroke-linecap="round" stroke-linejoin="round"/><path d="M107 234.68a20.39 20.39 0 012.8-7.4c0 .4 1.59.8 1.59.4a22.62 22.62 0 00-2.59 6.6 8.23 8.23 0 01-1.6.6h0l-.2-.2zm-2-70a20.39 20.39 0 012.8-7.4c0 .4 1.6.8 1.6.4a22.65 22.65 0 00-2.6 6.6 8.23 8.23 0 01-1.6.6h0l-.2-.2zm52.11 20.41a20.39 20.39 0 00-2.8-7.4c0 .4-1.59.8-1.59.4a22.9 22.9 0 012.59 6.6 8.23 8.23 0 001.6.6h0l.2-.2z" fill="#fff" stroke="#000" stroke-linecap="round" stroke-linejoin="round" stroke-width="2"/><path d="M108.16 231.08a6.75 6.75 0 00-2.4.8c-1.59 1.6-4.79 5-4.79 7.2 0-1.6-1.8-6-.2-7.4 1-1.4 6.19-1.6 7.39-.6zm0 .8c1 0 2 1.2 2.59 2.2 1 2.6 2.8 7.8 1.8 10.4.8-2.2 4.79-6 4-8.6-.8-2-6.39-4.8-8.38-4zm.6-1.8a4.31 4.31 0 012.19 2.4c1 2.4 3.2 7.6 1.8 10.4 1-2.2 4.79-6 4.19-8.8-.6-2.2-6.59-4.8-8.18-4zm-2.6-69a6.69 6.69 0 00-2.39.8c-1.6 1.6-4.79 5-4.79 7.2 0-1.6-1.8-6-.2-7.4 1-1.4 6.18-1.6 7.38-.6zm0 .8c1 0 2 1.2 2.6 2.2 1 2.6 2.79 7.8 1.79 10.41.8-2.2 4.8-6 4-8.61-.8-2-6.39-4.8-8.39-4zm.6-1.8a4.33 4.33 0 012.2 2.4c1 2.4 3.19 7.6 1.79 10.4 1-2.2 4.79-6 4.2-8.8-.6-2.2-6.59-4.8-8.19-4zm49.11 21.41a6.75 6.75 0 012.4.8c1.59 1.6 4.79 5 4.79 7.2 0-1.6 1.79-6 .2-7.4-1-1.4-6.19-1.6-7.39-.6zm0 .8c-1 0-2 1.2-2.59 2.2-1 2.6-2.8 7.8-1.8 10.4-.8-2.2-4.79-6-4-8.6.79-2 6.38-4.8 8.38-4zm-.6-1.8a4.31 4.31 0 00-2.19 2.4c-1 2.4-3.2 7.6-1.8 10.4-1-2.2-4.79-6-4.19-8.8.6-2.2 6.58-4.8 8.18-4z" fill="#fff" stroke="#000" stroke-linecap="round" stroke-linejoin="round"/><path d="M108.76 230.28a4.81 4.81 0 012.59 1.6c1.2 1.6 3.4 5.6 2 7.2 1-1.6 5.59-4.2 4.79-6-.8-1.4-7.39-3.4-9.38-2.8zm.2.2a4.18 4.18 0 00-2.6 2.6c-1 2.2-3 7.6-1.79 10.2-1-2-4.8-5.8-4.2-8.6.8-2 6.59-5 8.59-4.2zm-2.2-70.22a4.84 4.84 0 012.6 1.6c1.19 1.6 3.39 5.6 2 7.2 1-1.6 5.59-4.2 4.79-6-.79-1.4-7.38-3.4-9.38-2.8zm.2.2a4.15 4.15 0 00-2.59 2.6c-1 2.2-3 7.6-1.8 10.21-1-2-4.79-5.81-4.19-8.61.79-2 6.58-5 8.58-4.2zm48.31 20.21a4.81 4.81 0 00-2.59 1.6c-1.2 1.6-3.4 5.6-2 7.2-1-1.6-5.59-4.2-4.79-6 .8-1.4 7.39-3.4 9.38-2.8zm-.2.2a4.18 4.18 0 012.6 2.6c1 2.2 3 7.6 1.79 10.2 1-2 4.79-5.8 4.2-8.6-.8-2-6.59-5-8.59-4.2z" fill="#fff" stroke="#000" stroke-linecap="round" stroke-linejoin="round"/><path d="M73.42 132.25c1.4-2.2 3.4-2.6 5.19-1.6a3.34 3.34 0 01.4 5.4 3.49 3.49 0 01-.6 6.81c2.8 1.4 2.8 6-1 6.6a3.87 3.87 0 01-1.6 6 2.9 2.9 0 01-2 3 3.26 3.26 0 01-.6 4 3.75 3.75 0 01-1.79 2.4 3.47 3.47 0 01-3.4 2.6 3.37 3.37 0 01-3.39-3.4c-2.8-1.6-2.2-4.6 0-6-3-1.2-3.39-4.4-1.4-5.8a3.84 3.84 0 01-.8-2.4 3.17 3.17 0 01-1.39-4.2 3.48 3.48 0 01-2.2-5.6 3.49 3.49 0 01.8-6 3.43 3.43 0 016.19-2.4 3.25 3.25 0 013.79 1 3.58 3.58 0 013.79-.4zm2-70c1.4-2.2 3.39-2.6 5.19-1.6A3.34 3.34 0 0181 66c3.59 1.21 3.19 6.41-.6 6.81 2.79 1.4 2.79 6-1 6.6a3.86 3.86 0 01-1.6 6 2.89 2.89 0 01-2 3 3.26 3.26 0 01-.6 4 3.73 3.73 0 01-1.8 2.4 3.46 3.46 0 01-3.4 2.63A3.36 3.36 0 0166.64 94c-2.8-1.6-2.2-4.6 0-6-3-1.2-3.4-4.4-1.4-5.8a3.84 3.84 0 01-.8-2.4 3.16 3.16 0 01-1.4-4.2 3.48 3.48 0 01-2.19-5.6 3.49 3.49 0 01.79-6 3.43 3.43 0 016.19-2.4 3.26 3.26 0 013.8 1 3.57 3.57 0 013.79-.4zM15.73 82.64c-1.4-2.2-3.39-2.6-5.19-1.6a3.34 3.34 0 00-.4 5.4 3.48 3.48 0 00.6 6.8c-2.8 1.4-2.8 6 1 6.6a3.87 3.87 0 001.59 6 2.9 2.9 0 002 3 3.26 3.26 0 00.6 4 3.73 3.73 0 001.8 2.4 3.45 3.45 0 003.39 2.6 3.36 3.36 0 003.39-3.4c2.8-1.6 2.2-4.6 0-6 3-1.2 3.4-4.4 1.4-5.8a3.87 3.87 0 00.8-2.41 3.17 3.17 0 001.4-4.2 3.48 3.48 0 002.19-5.6 3.48 3.48 0 00-.8-6A3.42 3.42 0 0023.32 82a3.26 3.26 0 00-3.8 1 3.58 3.58 0 00-3.79-.4zM190.41 132.25c-1.4-2.2-3.4-2.6-5.19-1.6a3.34 3.34 0 00-.4 5.4 3.49 3.49 0 00.6 6.81c-2.8 1.4-2.8 6 1 6.6a3.87 3.87 0 001.6 6 2.9 2.9 0 002 3 3.26 3.26 0 00.6 4 3.71 3.71 0 001.79 2.4 3.47 3.47 0 003.4 2.6 3.37 3.37 0 003.39-3.4c2.79-1.6 2.2-4.6 0-6 3-1.2 3.39-4.4 1.4-5.8a3.84 3.84 0 00.8-2.4 3.17 3.17 0 001.39-4.2 3.48 3.48 0 002.2-5.6 3.49 3.49 0 00-.8-6 3.43 3.43 0 00-6.19-2.4 3.25 3.25 0 00-3.79 1 3.58 3.58 0 00-3.79-.4zm-2-70c-1.4-2.2-3.39-2.6-5.19-1.6a3.34 3.34 0 00-.4 5.4c-3.59 1.21-3.19 6.41.6 6.81-2.8 1.4-2.8 6 1 6.6a3.86 3.86 0 001.59 6 2.9 2.9 0 002 3 3.26 3.26 0 00.6 4 3.73 3.73 0 001.8 2.4 3.46 3.46 0 003.39 2.6 3.36 3.36 0 003.39-3.4c2.8-1.6 2.2-4.6 0-6 3-1.2 3.4-4.4 1.4-5.8a3.84 3.84 0 00.8-2.4 3.16 3.16 0 001.4-4.2A3.48 3.48 0 00203 70a3.49 3.49 0 00-.8-6 3.42 3.42 0 00-6.18-2.4 3.26 3.26 0 00-3.8 1 3.58 3.58 0 00-3.79-.4zm59.69 20.39c1.4-2.2 3.39-2.6 5.19-1.6a3.34 3.34 0 01.4 5.4 3.48 3.48 0 01-.6 6.8c2.8 1.4 2.8 6-1 6.6a3.87 3.87 0 01-1.59 6 2.91 2.91 0 01-2 3 3.26 3.26 0 01-.6 4 3.73 3.73 0 01-1.8 2.4 3.46 3.46 0 01-3.39 2.6 3.36 3.36 0 01-3.39-3.4c-2.8-1.6-2.2-4.6 0-6-3-1.2-3.4-4.4-1.4-5.8a3.87 3.87 0 01-.8-2.41 3.16 3.16 0 01-1.4-4.2 3.48 3.48 0 01-2.19-5.6 3.48 3.48 0 01.8-6 3.42 3.42 0 016.18-2.4 3.26 3.26 0 013.8 1 3.58 3.58 0 013.79-.4z" fill="#fff" stroke="#000" stroke-linecap="round" stroke-linejoin="round" stroke-width="2"/><path d="M66.83 160.26c-.79 3 1.4 6 3.8 5.4a3.58 3.58 0 01-6.19-1.6c-.6-1 .4-3.4 2.39-3.8zm2.4-2.6c-.8 2.6 2 4.8 4.39 4.4a3.67 3.67 0 01-6.19-1.4 2 2 0 011.8-3zm2.2-5.6c-.8 2.8 1.39 5.8 3.79 5.2a3.53 3.53 0 01-6.19-1.4 2.85 2.85 0 012.4-3.8zm-6.43-5.6c-1 2.8 1.4 5.8 3.79 5.2-1.8 2.4-5.39 1.6-6.39-1.4a3.17 3.17 0 012.6-3.8zm4.39-2.6c-.8 3 1.4 6 4 5.2a3.72 3.72 0 01-6.39-1.2c-.59-1.2.4-3.6 2.4-4zm-5.79-3.6a3.2 3.2 0 003.79 4.4c-1.79 2.4-5.39 1.6-6.38-1.4-.4-1.2.39-2.6 2.59-3zm9.78-.2c-1 2.8 1.4 5.6 3.8 5.2a3.7 3.7 0 01-6.39-1.4 3.1 3.1 0 012.59-3.8zm-5.38-3.8c-.8 3 .4 5.4 2.8 5-1.6 2.2-4.39 1.8-5.19-1a3.29 3.29 0 012.39-4zm-8.18-2.21c-.8 3 1.4 6 4 5.41a3.75 3.75 0 01-6.39-1.4c-.6-1.2.4-3.61 2.4-4zm2-3.6c-.79 3 1.4 5.81 3.8 5.41a3.53 3.53 0 01-6.19-1.41 3 3 0 012.39-4zm9.19 1.6c-.8 2.8 1.39 5.81 3.79 5.41-1.6 2.2-5.39 1.4-6.19-1.41a3.15 3.15 0 012.4-4zm4.79-1.8c-1 3 1.4 5.8 3.79 5.4a3.53 3.53 0 01-6.19-1.4 3.08 3.08 0 012.4-4zm-7-40c-.8 3 1.4 6 3.79 5.4A3.57 3.57 0 0166.44 94c-.6-1 .39-3.4 2.39-3.8zm2.4-2.6c-.8 2.6 2 4.8 4.39 4.4a3.67 3.67 0 01-6.19-1.4 2 2 0 011.8-3zM73.42 82c-.8 2.8 1.4 5.8 3.8 5.2A3.53 3.53 0 0171 85.84 2.85 2.85 0 0173.42 82zM67 76.44c-1 2.8 1.4 5.8 3.8 5.2-1.8 2.4-5.39 1.6-6.39-1.4a3.17 3.17 0 012.59-3.8zm4.4-2.6c-.8 3 1.39 6 4 5.2a3.72 3.72 0 01-6.4-1.2c-.6-1.2.4-3.6 2.4-4zm-5.79-3.6c-1 3 1.39 5 3.79 4.4-1.77 2.36-5.4 1.6-6.4-1.4-.4-1.2.4-2.6 2.6-3zm9.78-.2c-1 2.8 1.4 5.6 3.79 5.2a3.7 3.7 0 01-6.39-1.4 3.1 3.1 0 012.6-3.8zM70 66.23c-.8 3 .4 5.41 2.79 5-1.59 2.2-4.39 1.8-5.19-1a3.31 3.31 0 012.4-4zM61.84 64c-.79 3 1.4 6 4 5.41A3.75 3.75 0 0159.45 68c-.6-1.2.4-3.61 2.39-4zm2-3.6c-.8 3 1.4 5.8 3.79 5.41a3.53 3.53 0 01-6.19-1.41 3 3 0 012.4-4zM73 62c-.8 2.81 1.4 5.81 3.8 5.41-1.6 2.2-5.39 1.4-6.19-1.41A3.15 3.15 0 0173 62zm4.79-1.8c-1 3 1.4 5.8 3.8 5.4a3.52 3.52 0 01-6.19-1.39 3.09 3.09 0 012.39-4zm-55.47 50.45c.8 3-1.4 6-3.8 5.4a3.58 3.58 0 006.19-1.6c.6-1-.4-3.4-2.39-3.8zm-2.4-2.6c.8 2.6-2 4.8-4.39 4.4a3.67 3.67 0 006.19-1.4 2 2 0 00-1.8-3zm-2.19-5.6c.79 2.8-1.4 5.8-3.8 5.2a3.53 3.53 0 006.19-1.4 2.85 2.85 0 00-2.39-3.8zm6.38-5.61c1 2.8-1.39 5.81-3.79 5.2 1.8 2.41 5.39 1.61 6.39-1.39a3.18 3.18 0 00-2.6-3.81zm-4.39-2.6c.8 3-1.4 6-4 5.2a3.71 3.71 0 006.39-1.2c.6-1.2-.4-3.6-2.4-4zm5.79-3.6A3.2 3.2 0 0121.72 95c1.79 2.4 5.39 1.6 6.39-1.4.4-1.2-.4-2.6-2.6-3zm-9.78-.2c1 2.8-1.4 5.6-3.79 5.2a3.69 3.69 0 006.38-1.4 3.09 3.09 0 00-2.59-3.8zm5.39-3.8c.8 3-.4 5.4-2.8 5 1.6 2.2 4.4 1.8 5.19-1a3.29 3.29 0 00-2.39-4zm8.18-2.2c.8 3-1.39 6-4 5.4a3.75 3.75 0 006.39-1.4c.6-1.2-.4-3.6-2.4-4zm-2-3.6c.8 3-1.4 5.8-3.8 5.4a3.53 3.53 0 006.19-1.4 3 3 0 00-2.39-4zm-9.19 1.6c.8 2.8-1.39 5.8-3.79 5.4 1.6 2.2 5.39 1.4 6.19-1.4a3.15 3.15 0 00-2.4-4zm-4.79-1.8c1 3-1.39 5.8-3.79 5.4a3.53 3.53 0 006.19-1.4 3.08 3.08 0 00-2.4-4zM197 160.26c.8 3-1.39 6-3.79 5.4a3.58 3.58 0 006.19-1.6c.6-1-.4-3.4-2.4-3.8zm-2.39-2.6c.8 2.6-2 4.8-4.39 4.4a3.67 3.67 0 006.19-1.4 2 2 0 00-1.8-3zm-2.2-5.6c.8 2.8-1.39 5.8-3.79 5.2a3.53 3.53 0 006.19-1.4 2.85 2.85 0 00-2.4-3.8zm6.39-5.6c1 2.8-1.4 5.8-3.79 5.2 1.79 2.4 5.39 1.6 6.39-1.4a3.17 3.17 0 00-2.6-3.8zm-4.39-2.6c.8 3-1.4 6-4 5.2a3.71 3.71 0 006.38-1.2c.6-1.2-.39-3.6-2.39-4zm5.79-3.6a3.2 3.2 0 01-3.79 4.4c1.79 2.4 5.39 1.6 6.38-1.4.4-1.2-.4-2.6-2.59-3zm-9.78-.2c1 2.8-1.4 5.6-3.8 5.2a3.7 3.7 0 006.39-1.4 3.1 3.1 0 00-2.59-3.8zm5.39-3.8c.79 3-.4 5.4-2.8 5 1.6 2.2 4.39 1.8 5.19-1a3.29 3.29 0 00-2.39-4zm8.18-2.21c.8 3-1.4 6-4 5.41a3.75 3.75 0 006.39-1.4c.6-1.2-.4-3.61-2.4-4zm-2-3.6c.8 3-1.39 5.81-3.79 5.41a3.53 3.53 0 006.19-1.41 3 3 0 00-2.4-4zm-9.18 1.6c.8 2.8-1.4 5.81-3.79 5.41 1.6 2.2 5.39 1.4 6.19-1.41a3.15 3.15 0 00-2.4-4zm-4.79-1.8c1 3-1.4 5.8-3.79 5.4a3.53 3.53 0 006.19-1.4 3.08 3.08 0 00-2.4-4zm7-40c.8 3-1.4 6-3.8 5.4a3.58 3.58 0 006.19-1.6c.6-1-.4-3.4-2.39-3.8zm-2.4-2.6c.8 2.6-2 4.8-4.39 4.4a3.67 3.67 0 006.19-1.4 2 2 0 00-1.8-3zM190.41 82c.79 2.8-1.4 5.8-3.8 5.2a3.53 3.53 0 006.19-1.4 2.85 2.85 0 00-2.39-3.8zm6.38-5.6c1 2.8-1.39 5.8-3.79 5.2 1.8 2.4 5.39 1.6 6.39-1.4a3.17 3.17 0 00-2.6-3.8zm-4.39-2.6c.8 3-1.39 6-4 5.2a3.72 3.72 0 006.39-1.2c.6-1.2-.4-3.6-2.4-4zm5.79-3.6a3.2 3.2 0 01-3.79 4.4c1.8 2.4 5.39 1.6 6.39-1.4.4-1.2-.4-2.6-2.6-3zm-9.78-.2c1 2.8-1.4 5.6-3.79 5.2a3.7 3.7 0 006.39-1.4 3.1 3.1 0 00-2.6-3.8zm5.39-3.8c.8 3-.4 5.4-2.79 5 1.59 2.2 4.39 1.8 5.19-1a3.32 3.32 0 00-2.4-4h0zM202 64c.79 3-1.4 6-4 5.41a3.75 3.75 0 006.39-1.4c.6-1.2-.4-3.61-2.39-4zm-2-3.6c.8 3-1.4 5.81-3.79 5.41a3.52 3.52 0 006.18-1.41 3 3 0 00-2.39-4zm-9.19 1.6c.79 2.81-1.4 5.81-3.8 5.41 1.6 2.2 5.39 1.4 6.19-1.41a3.15 3.15 0 00-2.39-4zm-4.8-1.8c1 3-1.39 5.8-3.79 5.4a3.52 3.52 0 006.19-1.39 3.09 3.09 0 00-2.4-4zm55.5 50.42c-.8 3 1.4 6 3.79 5.4a3.57 3.57 0 01-6.18-1.6c-.6-1 .4-3.4 2.39-3.8zm2.4-2.6c-.8 2.6 2 4.8 4.39 4.4a3.67 3.67 0 01-6.19-1.4 2 2 0 011.8-3zm2.19-5.6c-.8 2.8 1.4 5.8 3.8 5.2a3.53 3.53 0 01-6.19-1.4 2.85 2.85 0 012.39-3.8zm-6.38-5.61c-1 2.8 1.39 5.81 3.79 5.2-1.8 2.41-5.39 1.61-6.39-1.39a3.18 3.18 0 012.6-3.81zm4.39-2.6c-.8 3 1.39 6 4 5.2a3.71 3.71 0 01-6.39-1.2c-.6-1.2.4-3.6 2.4-4zm-5.79-3.6a3.2 3.2 0 003.79 4.4c-1.8 2.4-5.39 1.6-6.39-1.4-.4-1.2.4-2.6 2.6-3zm9.78-.2c-1 2.8 1.4 5.6 3.79 5.2a3.7 3.7 0 01-6.39-1.4 3.1 3.1 0 012.6-3.8zm-5.39-3.8c-.8 3 .4 5.4 2.79 5-1.59 2.2-4.39 1.8-5.19-1a3.29 3.29 0 012.4-4zm-8.19-2.2c-.79 3 1.4 6 4 5.4a3.75 3.75 0 01-6.39-1.4c-.6-1.2.4-3.6 2.39-4zm2-3.6c-.8 3 1.4 5.8 3.79 5.4a3.52 3.52 0 01-6.18-1.4 3 3 0 012.39-4zm9.18 1.6c-.79 2.8 1.4 5.8 3.8 5.4-1.6 2.2-5.39 1.4-6.19-1.4a3.15 3.15 0 012.39-4zm4.8-1.8c-1 3 1.39 5.8 3.79 5.4a3.53 3.53 0 01-6.19-1.4 3.08 3.08 0 012.4-4z" fill="#fff" stroke="#000" stroke-linecap="round" stroke-linejoin="round"/><path d="M120.34 272.49c1.19-3.8 4-4 4-9.4h0v-114h0a2.9 2.9 0 013-2.8h0c1.6 0 3.4 1.2 3.4 2.8v114c1.59 5.4-1 8.4 3.59 8.6 11.78.8 24.55 1.6 35.53 4.8 1.2 1 1 2 0 3H95.78a3.62 3.62 0 011.4-4.41c12.18-3.6 22.76-1 23.16-2.6zm85-93.42c1.4-4.2 4.39-4.4 4.39-10.21h0v-126h0a3 3 0 013.19-3h0a3.52 3.52 0 013.6 3.2q0 62.72.2 125.83c1.59 5.81-1.4 9.21 3.59 9.41 12.78.8 26.75 1.6 38.33 5.2 1.4 1 1 2.2 0 3.4h-79.81a4.27 4.27 0 011.59-5c13.18-4 24.36-1 25-2.8zm-147.73 0c-1.4-4.2-4.39-4.4-4.39-10.21h0v-126h0a3 3 0 00-3.19-3h0a3.16 3.16 0 00-3.2 3.2q0 62.72-.2 125.83c-1.59 5.81 1 9.21-3.59 9.41-12.78.8-26.75 1.6-38.33 5.2-1.4 1-1 2.2 0 3.4H84.2a4.27 4.27 0 00-1.59-5c-13.18-4-24.36-1-25-2.8z" fill="#fff" stroke="#000" stroke-linecap="round" stroke-linejoin="round" stroke-width="2"/><path d="M116.54 147.86c1.6 3 3.2 4.4 6.79 4.4 4.79 0 12 3.4 15 6.2a33.45 33.45 0 019.58 16.21c.6 3.2.2 6.4-1.79 8.2-4.59 4.2-10.18 6.8-15 10.2-5 3.4-10.19 7.6-13.18 13.6-2.2 4.21-1.2 9.41.8 13.21 3.79 7.2 11.58 13.2 17.77 20.2 1.19 1.2 4.79-.2 5.39 1.8 3 8.81 1 16.41 2.79 25.61 1 5.6 8.59 5.6 12 7.2-6.79-.4-14.37-.8-20.36-3.6a6.1 6.1 0 002.39-5.4c0-6.4-2.59-16-6-19.2-5-5.21-11.38-11.41-16.17-16.81-3.79-4-5.79-6.6-6.58-11.2-1.4-6.8 1-12.41 4.79-18.21 5-7.6 15.17-11.6 22.55-16.4 1.8-1.2 4.2-6 4.2-9.6-.2-5.61-5.79-11.81-8.59-12.41-3.59-.6-11.38.2-15-.8-1.2-.4-.2-2-2-2-2-.2-3.39 1.2-4.19 3.2.2-1.6-2.19-2.4-4.59-1.8 2.8-3.6 6-5 10.38-5.6.4-2.2-1.8-4.4-3.79-5.8 2 .8 2.79.4 2.79-1.2zm84.65-106.63c1.79 3.2 3.39 4.8 7.18 4.8 5.19 0 13.18 4 16.37 6.8a40.35 40.35 0 0110.18 18c.6 3.4.2 7-2 9-4.79 4.6-10.78 7.6-16 11.2-5.39 3.8-11.18 8.4-14.38 15-2.19 4.6-1.19 10.4 1 14.6 4.19 8 12.38 14.6 19 22.21 1.39 1.6 5.19 0 6 2.2 3.19 9.6 1 18 2.79 28.21 1.2 6.2 9.58 6.2 13.18 7.8-7.39-.4-15.57-.8-22.16-3.8a7 7 0 002.79-6c0-7.2-3-17.8-6.39-21.4-5.59-5.6-12.37-12.4-17.56-18.41-4.2-4.4-6.19-7.2-7.19-12.2-1.4-7.6 1.2-13.8 5.39-20.21 5.19-8.4 16.17-12.8 24.16-18 2-1.4 4.59-6.8 4.39-10.6 0-6.2-6-13.21-9-13.61-4-.8-12.37 0-16.37-1-1.19-.4-.2-2.2-2.19-2.2-2-.2-3.4 1.4-4.39 3.4.2-1.6-2.4-2.4-5-1.8 3-4.2 6.58-5.6 11.17-6.4.4-2.2-2-4.8-4.19-6.2 2.2.8 3.2.4 3.2-1.4zm-138.95 0c-1.79 3.2-3.39 4.8-7.18 4.8-5.19 0-13.18 4-16.37 6.8a40.25 40.25 0 00-10.18 18c-.6 3.4-.2 7 2 9 4.79 4.6 10.78 7.6 16 11.2 5.39 3.8 11.18 8.4 14.38 15 2.19 4.6 1.19 10.4-1 14.6-4.19 8-12.38 14.6-19 22.21-1.39 1.6-5.19 0-6 2.2-3.19 9.6-1 18-2.79 28.21-1.2 6.2-9.58 6.2-13.18 7.8 7.39-.4 15.57-.8 22.16-3.8a7 7 0 01-2.79-6c0-7.2 3-17.8 6.39-21.4 5.59-5.6 12.37-12.4 17.56-18.41 3.8-4.4 5.79-7.2 6.79-12.2 1.4-7.6-1.2-13.8-5-20.21-5.19-8.4-16.17-12.8-24.16-18-2-1.4-4.59-6.8-4.39-10.6 0-6.2 6-13.21 9-13.61 4-.8 12.37 0 16.37-1 1.19-.4.2-2.2 2.19-2.2 1.6-.2 3 1.4 4 3.4-.2-1.6 2.4-2.4 5-1.8-3-4.2-6.59-5.6-10.78-6.4-.4-2.2 2-4.8 3.79-6.2-1.8.8-2.8.4-2.8-1.4z" fill="#fff" stroke="#000" stroke-linecap="round" stroke-linejoin="round" stroke-width="2"/><path d="M103.17 234.88c-1.4-2.2-3.4-2.6-5.19-1.6a3.34 3.34 0 00-.4 5.4 3.49 3.49 0 00.6 6.81c-2.8 1.4-2.8 6 1 6.6a3.87 3.87 0 001.6 6 2.9 2.9 0 002 3 3.26 3.26 0 00.6 4 3.75 3.75 0 001.79 2.4 3.47 3.47 0 003.4 2.6 3.37 3.37 0 003.39-3.4c2.8-1.6 2.2-4.6 0-6 3-1.2 3.4-4.4 1.4-5.8a3.84 3.84 0 00.8-2.4 3.17 3.17 0 001.39-4.2 3.48 3.48 0 002.2-5.61 3.48 3.48 0 00-.8-6 3.43 3.43 0 00-6.19-2.4 3.25 3.25 0 00-3.79 1 3.58 3.58 0 00-3.79-.4zm-2-70c-1.4-2.2-3.39-2.6-5.19-1.6a3.34 3.34 0 00-.4 5.4c-3.59 1.2-3.19 6.41.6 6.81-2.79 1.4-2.79 6 1 6.6a3.86 3.86 0 001.6 6 2.89 2.89 0 002 3 3.26 3.26 0 00.6 4 3.73 3.73 0 001.8 2.4 3.46 3.46 0 003.39 2.6 3.37 3.37 0 003.4-3.4c2.79-1.6 2.19-4.6 0-6 3-1.2 3.39-4.4 1.39-5.8a3.84 3.84 0 00.8-2.4 3.16 3.16 0 001.4-4.2 3.48 3.48 0 002.19-5.6 3.49 3.49 0 00-.79-6 3.43 3.43 0 00-6.19-2.4 3.26 3.26 0 00-3.8 1 3.57 3.57 0 00-3.79-.4zm59.69 20.41c1.4-2.2 3.39-2.6 5.19-1.6a3.34 3.34 0 01.4 5.4 3.48 3.48 0 01-.6 6.8c2.8 1.4 2.8 6-1 6.6a3.88 3.88 0 01-1.59 6 2.9 2.9 0 01-2 3 3.26 3.26 0 01-.6 4 3.73 3.73 0 01-1.8 2.4 3.45 3.45 0 01-3.39 2.6 3.36 3.36 0 01-3.39-3.4c-2.8-1.6-2.2-4.6 0-6-3-1.2-3.4-4.41-1.4-5.81a3.84 3.84 0 01-.8-2.4 3.17 3.17 0 01-1.4-4.2 3.48 3.48 0 01-2.19-5.6 3.48 3.48 0 01.8-6 3.43 3.43 0 016.19-2.4 3.25 3.25 0 013.79 1 3.58 3.58 0 013.79-.4z" fill="#fff" stroke="#000" stroke-linecap="round" stroke-linejoin="round" stroke-width="2"/><path d="M109.76 262.8c.79 3-1.4 6-3.8 5.41a3.58 3.58 0 006.19-1.6c.6-1-.4-3.41-2.39-3.81zm-2.4-2.6c.8 2.6-2 4.81-4.39 4.41a3.67 3.67 0 006.19-1.41 2 2 0 00-1.8-3zm-2.2-5.6c.8 2.8-1.39 5.8-3.79 5.2a3.53 3.53 0 006.19-1.4 2.85 2.85 0 00-2.4-3.8zm6.39-5.6c1 2.8-1.4 5.8-3.79 5.2 1.8 2.4 5.39 1.6 6.39-1.4a3.17 3.17 0 00-2.6-3.8zm-4.39-2.6c.8 3-1.4 6-4 5.2a3.72 3.72 0 006.39-1.2c.59-1.2-.4-3.6-2.4-4zm5.79-3.6a3.2 3.2 0 01-3.79 4.4c1.79 2.4 5.39 1.6 6.38-1.4.4-1.2-.39-2.6-2.59-3zm-9.78-.2c1 2.8-1.4 5.6-3.8 5.2a3.7 3.7 0 006.39-1.4 3.1 3.1 0 00-2.59-3.8zm5.39-3.8c.8 3-.4 5.4-2.8 5 1.6 2.2 4.39 1.8 5.19-1a3.3 3.3 0 00-2.39-4zm8.18-2.2c.8 3-1.39 6-4 5.4a3.75 3.75 0 006.39-1.4c.6-1.2-.4-3.6-2.4-4zm-2-3.6c.79 3-1.4 5.8-3.8 5.4a3.53 3.53 0 006.19-1.4 3 3 0 00-2.39-4zm-9.19 1.6c.8 2.8-1.39 5.8-3.79 5.4 1.6 2.2 5.39 1.4 6.19-1.4a3.15 3.15 0 00-2.4-4zm-4.79-1.8c1 3-1.4 5.8-3.79 5.4a3.53 3.53 0 006.19-1.4 3.08 3.08 0 00-2.4-4zm7-40c.8 3-1.4 6-3.79 5.4a3.57 3.57 0 006.18-1.6c.6-1-.39-3.4-2.39-3.8zm-2.4-2.6c.8 2.6-2 4.8-4.39 4.4a3.67 3.67 0 006.19-1.4 2 2 0 00-1.8-3zm-2.19-5.61c.8 2.8-1.4 5.81-3.8 5.21a3.53 3.53 0 006.19-1.41 2.85 2.85 0 00-2.39-3.8zm6.39-5.6c1 2.8-1.4 5.8-3.8 5.2 1.8 2.4 5.39 1.6 6.39-1.4a3.17 3.17 0 00-2.59-3.8zm-4.4-2.6c.8 3-1.39 6-4 5.2a3.72 3.72 0 006.39-1.2c.6-1.2-.4-3.6-2.4-4zm5.79-3.6c1 3-1.39 5-3.79 4.4 1.8 2.4 5.39 1.6 6.39-1.4.4-1.2-.4-2.6-2.6-3zm-9.78-.2c1 2.8-1.4 5.6-3.79 5.2a3.7 3.7 0 006.39-1.4 3.1 3.1 0 00-2.6-3.8zm5.39-3.8c.8 3-.4 5.4-2.79 5 1.59 2.2 4.39 1.8 5.19-1a3.29 3.29 0 00-2.4-4zm8.19-2.2c.79 3-1.4 6-4 5.4a3.75 3.75 0 006.39-1.4c.6-1.2-.4-3.6-2.39-4zm-2-3.6c.8 3-1.4 5.8-3.79 5.4a3.53 3.53 0 006.19-1.4 3 3 0 00-2.4-4zm-9.18 1.6c.8 2.8-1.4 5.8-3.8 5.4 1.6 2.2 5.39 1.4 6.19-1.4a3.15 3.15 0 00-2.39-4zm-4.79-1.8c1 3-1.4 5.8-3.8 5.4a3.53 3.53 0 006.19-1.4 3.08 3.08 0 00-2.39-4zm55.49 50.41c-.8 3 1.4 6 3.8 5.4a3.58 3.58 0 01-6.19-1.6c-.6-1 .4-3.4 2.39-3.8zm2.4-2.6c-.8 2.6 2 4.8 4.39 4.4a3.67 3.67 0 01-6.19-1.4 2 2 0 011.8-3zm2.19-5.6c-.79 2.8 1.4 5.8 3.8 5.2a3.53 3.53 0 01-6.19-1.4 2.85 2.85 0 012.39-3.8zm-6.38-5.6c-1 2.8 1.39 5.8 3.79 5.2-1.8 2.4-5.39 1.6-6.39-1.4a3.17 3.17 0 012.6-3.8zm4.39-2.6c-.8 3 1.4 6 4 5.2a3.72 3.72 0 01-6.39-1.2c-.6-1.2.4-3.6 2.4-4zm-5.79-3.6a3.2 3.2 0 003.79 4.4c-1.79 2.4-5.39 1.6-6.39-1.4-.4-1.2.4-2.6 2.6-3zm9.78-.2c-1 2.8 1.4 5.6 3.79 5.2a3.69 3.69 0 01-6.38-1.4 3.1 3.1 0 012.59-3.8zm-5.39-3.81c-.8 3 .4 5.41 2.8 5-1.6 2.2-4.4 1.8-5.19-1a3.3 3.3 0 012.39-4zm-8.18-2.2c-.8 3 1.39 6 4 5.41a3.75 3.75 0 01-6.39-1.41c-.6-1.19.4-3.6 2.4-4zm2-3.6c-.8 3 1.4 5.8 3.8 5.4a3.53 3.53 0 01-6.19-1.4 3 3 0 012.39-4zm9.19 1.6c-.8 2.8 1.39 5.81 3.79 5.41-1.6 2.2-5.39 1.4-6.19-1.41a3.15 3.15 0 012.4-4zm4.79-1.8c-1 3 1.39 5.8 3.79 5.4a3.52 3.52 0 01-6.19-1.4 3.08 3.08 0 012.4-4z" fill="#fff" stroke="#000" stroke-linecap="round" stroke-linejoin="round"/><path d="M56.05 47.23c2.4-2.8 5.39-4.6 8.19-3.8-3.19-4.6-6-16.21-4.19-22 1 2.6 1.59 3.2 3.39 2.8.4-2.4 2.8-3.4 4.79-4a5.59 5.59 0 01.4 6c.8-1.8 3.2-2.8 4.79-.6a7 7 0 01-.6 9c3.6 1.4 9-1 10.78-7.21 2 2 2 2.8.8 5.21 2.2-1.8 6-.6 8.59 1.8 0 3-2.8 7-5.19 7 1.79.2 2.79 1.4 3 4-5-2-9-.8-12.78 2.4 4.4 1.4 5.19 3.4 6 5.8-.2 2.2-2.19 3-3.79 3 2 0 3 1.4 3.19 4.2-2 1.2-3.79.4-5.59-.8-1.19 1.4-.59 2.4-.39 4.81-5.79-1.81-10.19-11-12-17.81-3-1-5.79.4-8 3.4-1 1.2-2.59-1.6-1.4-3.2zm-18.76 7.6c-1-3-3.19-5.6-6.19-5.4 4.39-3.4 10.58-12.8 10.38-18.2-1.6 2-2.19 2.2-3.79 1.4.4-2.41-1.2-3.8-2.8-5a5.33 5.33 0 00-2.39 5.21 2.47 2.47 0 00-4-2 6.81 6.81 0 00-2.2 8.2c-3.59.2-7.79-3.4-7.39-9.4-2.39 1-2.79 1.6-2.19 4.2-1.4-2.2-5.39-2.2-8.19-1-1 3 .2 7.2 2.4 7.8-1.6-.2-2.8.4-3.79 2.6 5-.2 8 1.8 10.58 6-4.2-.2-5.79 1.2-7 3.2-.4 2.2 1 3.2 2.59 4-1.79-.6-3.19 0-4.19 2.4 1.4 1.8 3.2 1.6 5.19 1 .6 1.6-.2 2.4-1.2 4.41 6 .19 12.38-6.81 16-12.21 3 0 5 2 6.19 5.4.4 1.2 2.6-.8 2-2.6zm6.79 89a10 10 0 00-9.39-1.8c3.2-5 5.19-16.21 2.4-20.81-.6 2.4-1.4 2.8-3.39 3-.8-2-3.4-2.6-5.59-2.8a4.5 4.5 0 000 5.8 3.26 3.26 0 00-5.39.2c-1.2 2.2-2 5.6 1.39 8.2a9.45 9.45 0 01-12.57-4.6c-2.2 2.2-2.2 3-.2 5-2.8-1.2-7 .81-9.58 3.21.39 3 3.59 6 6.58 5.6a4 4 0 00-3.19 4.2c5.39-2.8 9.78-2.6 14.57-.2-4.59 2-5.59 4-5.79 6.4.4 2 2.4 2.2 4.59 2-2.19.4-3.39 1.8-3.19 4.4 2.2.8 4.19-.2 6.19-2 1.2 1.2.8 2.2.6 4.8 6.59-3 10.38-12.2 11.58-19 3.39-1.4 6.38-.6 9.38 1.8 1.2.8 2.79-2.2 1-3.4zm20.76-29.41c2.59 1.4 5.79 2.4 8 .8-1.59 5-1.39 15.4 1.8 19.8 0-2.4.4-2.8 2.2-3 1 2 3.19 2.2 5 2.2a4.39 4.39 0 00-.8-5.2 2.49 2.49 0 004.39-.6c.6-2.2.6-5.6-2.59-7.6 2.59-2 8-1.4 11 3.4 1.2-2 1.4-2.6-.39-4.4 2.39 1 5.59-1 7-3.6-.6-2.8-3.79-5.4-6.19-4.8 1.6-.6 2.2-1.6 1.8-3.8-4 2.6-7.59 2.6-11.78.8 3.4-2 3.8-4 3.6-6.41-.6-1.8-2.4-1.8-4.2-1.59 1.8-.4 2.6-1.61 2.2-4.41a4.15 4.15 0 00-4.59 2.2c-1.8-1-1.6-2-1.8-4.2-4.79 3.2-6.19 12-6.19 18.21-2.39 1.6-5.39 1-8-.8-1.2-1.2-1.8 1.8-.4 3zm57.49 38.81c-2.19-2.6-5-4.2-7.58-3.4 3-4.2 5.59-14.81 3.79-20-.8 2.4-1.4 2.8-3 2.6-.59-2.2-2.59-3.2-4.39-3.8a5 5 0 00-.4 5.6c-.79-1.6-3-2.6-4.39-.6a6.39 6.39 0 00.4 8.21c-3.39 1.2-8.38-1-10-6.61-1.8 1.8-2 2.6-.6 4.81-2-1.6-5.79-.6-8 1.6 0 2.6 2.39 6.4 4.79 6.4-1.8.2-2.6 1.2-2.8 3.6 4.59-1.8 8.19-.8 11.78 2.2-4 1.2-4.79 3-5.59 5.2.2 2 2 2.6 3.59 2.8-1.79-.2-2.79 1.2-3 3.6 1.8 1.2 3.39.6 5.19-.6 1 1.2.6 2.2.2 4.4 5.59-1.6 9.58-10 11.38-16.2 2.59-1 5.19.4 7.38 3 .8 1.2 2.4-1.4 1.2-2.8zm17.37 6.8c1-2.6 3-5 5.79-4.8-4-3.2-9.78-11.6-9.78-16.6 1.59 1.8 2.19 2 3.59 1.4-.4-2.21 1.2-3.6 2.8-4.61a4.67 4.67 0 012 4.81c.2-1.8 1.8-3.21 3.79-1.8a5.88 5.88 0 012 7.4c3.4.2 7.19-3.2 6.79-8.61 2.39 1 2.59 1.41 2.19 3.81 1.2-2 4.8-2 7.39-.8 1 2.6 0 6.4-2.19 7 1.59-.2 2.79.4 3.59 2.4-4.59-.2-7.39 1.6-9.78 5.4 4-.2 5.19 1 6.38 3 .4 1.8-.79 2.8-2.39 3.4 1.6-.4 3 .2 4 2.4-1.4 1.4-3 1.4-4.79.8-.6 1.4 0 2.2 1 4-5.39.2-11.38-6.2-14.77-11-2.8 0-4.6 1.8-5.59 4.8-.4 1.2-2.6-.8-2-2.4zm-6.39 80.82c2.6-1.8 5.79-2.8 8.79-1.6-3-4.6-4.8-14.8-2.2-19 .6 2.2 1.2 2.6 3 2.8.8-1.8 3.2-2.4 5.39-2.6a4.18 4.18 0 010 5.2 2.9 2.9 0 014.8.2 5.22 5.22 0 01-1.2 7.6c3.59 1.6 9.38.8 11.58-4.2 2.19 2 2.19 2.6.4 4.4 2.59-1 6.38.8 8.78 3-.4 2.8-3.39 5.4-6.19 5 2 .6 3 1.6 3 3.81a14.78 14.78 0 00-13.58-.21c4.39 1.81 5.19 3.61 5.59 5.81-.4 1.8-2.4 2-4.39 2a3.19 3.19 0 013 3.8c-2 .8-3.79 0-5.59-1.6-1.39 1-1 1.8-.8 4.2-6-2.8-9.38-11-10.58-17.21-3.19-1.2-6-.6-8.78 1.61-1 .79-2.4-2-1-3zm-19.16-26.8c-2.4 1.4-5.39 2.4-7.39.8 1.4 4.6 1.4 14-1.6 18-.2-2.2-.4-2.6-2-2.8-1 1.8-3 2-4.79 2a4.15 4.15 0 01.79-4.6 2.3 2.3 0 01-4-.6 5.94 5.94 0 012.4-7c-2.6-1.8-7.39-1.2-10.18 3.2-1.2-1.8-1.2-2.4.4-4-2.2 1-5.19-1-6.59-3.4.6-2.4 3.59-4.8 5.79-4.2-1.4-.6-2.2-1.6-1.6-3.6 3.59 2.4 7 2.4 10.78.79-3.19-1.8-3.59-3.6-3.39-5.6.8-1.8 2.19-1.8 4-1.6-1.8-.4-2.4-1.6-2.2-4a4 4 0 014.4 2c1.59-.8 1.59-1.8 1.59-3.8 4.39 2.8 5.79 10.8 5.79 16.41 2.2 1.6 5 1 7.59-.6 1-1 1.4 1.6.2 2.6zm93.22-166.82c-2.39-2.8-5.39-4.6-8.18-3.8 3.19-4.6 6-16.21 4.19-22-1 2.6-1.59 3.2-3.39 2.8-.4-2.4-2.8-3.4-4.79-4a5.59 5.59 0 00-.4 6c-.8-1.8-3.2-2.8-4.79-.6a7 7 0 00.6 9c-3.6 1.4-9-1-10.78-7.21-2 2-2 2.8-.8 5.21-2.2-1.8-6-.6-8.59 1.8 0 3 2.8 7 5.19 7-1.79.2-2.79 1.4-3 4 5-2 9-.8 12.78 2.4-4.4 1.4-5.19 3.4-6 5.8.2 2.2 2.19 3 3.79 3-2 0-3 1.4-3.19 4.2 2 1.2 3.79.4 5.59-.8 1.19 1.4.59 2.4.39 4.81C191.8 63 196.2 53.83 198 47c3-1 5.79.4 8 3.4 1 1.2 2.59-1.6 1.4-3.2h0zm18.77 7.6c1-3 3.19-5.6 6.19-5.4-4.39-3.4-10.58-12.8-10.38-18.2 1.6 2 2.19 2.2 3.79 1.4-.4-2.41 1.2-3.8 2.8-5a5.33 5.33 0 012.39 5.21 2.47 2.47 0 014-2 6.81 6.81 0 012.2 8.2c3.59.2 7.79-3.4 7.39-9.4 2.39 1 2.79 1.6 2.19 4.2 1.4-2.2 5.39-2.2 8.19-1 1 3-.2 7.2-2.4 7.8 1.6-.2 2.8.4 3.79 2.6-5-.2-8 1.8-10.58 6 4.2-.2 5.79 1.2 7 3.2.4 2.2-1 3.2-2.59 4 1.79-.6 3.19 0 4.19 2.4-1.4 1.8-3.2 1.6-5.19 1-.6 1.6.2 2.4 1.2 4.41-6 .19-12.38-6.81-16-12.21-3 0-5 2-6.19 5.4-.4 1.2-2.6-.8-2-2.6zm-6.79 89a10 10 0 019.39-1.8c-3.2-5-5.19-16.21-2.4-20.81.6 2.4 1.4 2.8 3.39 3 .8-2 3.4-2.6 5.59-2.8a4.5 4.5 0 010 5.8 3.26 3.26 0 015.39.2c1.2 2.2 2 5.6-1.39 8.2a9.45 9.45 0 0012.57-4.6c2.2 2.2 2.2 3 .2 5 2.8-1.2 7 .81 9.58 3.21-.39 3-3.59 6-6.58 5.6a4 4 0 013.19 4.2c-5.39-2.8-9.78-2.6-14.57-.2 4.59 2 5.59 4 5.79 6.4-.4 2-2.4 2.2-4.59 2 2.19.4 3.39 1.8 3.19 4.4-2.2.8-4.19-.2-6.19-2-1.2 1.2-.8 2.2-.6 4.8-6.59-3-10.38-12.2-11.58-19-3.39-1.4-6.38-.6-9.38 1.8-1.2.8-2.79-2.2-1-3.4zm-20.76-29.41c-2.59 1.4-5.79 2.4-8 .8 1.59 5 1.39 15.4-1.8 19.8 0-2.4-.4-2.8-2.2-3-1 2-3.19 2.2-5 2.2a4.39 4.39 0 01.8-5.2 2.49 2.49 0 01-4.39-.6c-.6-2.2-.6-5.6 2.59-7.6-2.59-2-8-1.4-11 3.4-1.19-2-1.39-2.6.4-4.4-2.39 1-5.59-1-7-3.6.6-2.8 3.79-5.4 6.19-4.8-1.6-.6-2.2-1.6-1.8-3.8 4 2.6 7.58 2.6 11.78.8-3.4-2-3.8-4-3.6-6.41.6-1.8 2.4-1.8 4.2-1.59-1.8-.4-2.6-1.61-2.2-4.41a4.15 4.15 0 014.59 2.2c1.8-1 1.6-2 1.8-4.2 4.79 3.2 6.19 12 6.19 18.21 2.39 1.6 5.39 1 8-.8 1.2-1.2 1.8 1.8.4 3z" fill="#fff" stroke="#000" stroke-linecap="round" stroke-linejoin="round" stroke-width="2"/></svg>