<svg xmlns="http://www.w3.org/2000/svg" width="230" height="300"><path d="M114 43.7l26.39 81.21h85.37l-69.08 50.18 26.39 81.21L114 206.11 44.92 256.3l26.39-81.21-69.08-50.18H87.6L114 43.7z" fill="#fff" stroke="#000" stroke-linecap="round" stroke-linejoin="round" stroke-width="2" fill-rule="evenodd"/><path d="M92.38 161.67l5.34 11.17a17.13 17.13 0 001.89 3.38 2.32 2.32 0 001.34.71v.75h-9.44v-.75a2.39 2.39 0 001.45-.48 1.27 1.27 0 00.33-.89 1.83 1.83 0 00-.1-.64 20.89 20.89 0 00-1-2.26l-2.83-5.9-3 5.1a8.35 8.35 0 00-1.28 3.14 1.9 1.9 0 00.34 1.09 1.94 1.94 0 001 .72 4 4 0 001.22.12v.75h-7.42v-.75a3.87 3.87 0 002-1 20.13 20.13 0 002.67-3.87l3.85-6.61-4.93-10.2c-.81-1.68-1.27-2.62-1.39-2.8a3.16 3.16 0 00-.75-1 2.52 2.52 0 00-1-.42v-.75h9.61v.75h-.49a1.47 1.47 0 00-1.15.37 1.37 1.37 0 00-.33.94 2.46 2.46 0 00.1.76l1 2.1 2.4 5.15 2-3.52a9.8 9.8 0 001.57-3.81 2.44 2.44 0 00-.22-1 1.66 1.66 0 00-.64-.72 2.42 2.42 0 00-1.29-.26v-.75h7.13v.75a3.08 3.08 0 00-1.36.29 3.84 3.84 0 00-1.1 1c-.24.32-.86 1.32-1.85 3zM119.61 168.09l-.72 9.59h-17.2v-.75h.64a2.09 2.09 0 001.36-.42 1.78 1.78 0 00.57-1 11.83 11.83 0 00.16-2.54V155a12.69 12.69 0 00-.16-2.61 1.85 1.85 0 00-.64-.92 2 2 0 00-1.29-.39h-.64v-.75H112v.75h-.85a2.06 2.06 0 00-1.35.42 1.85 1.85 0 00-.59 1 11.71 11.71 0 00-.16 2.53v17.4a12.61 12.61 0 00.17 2.67 1.43 1.43 0 00.68.86 4.85 4.85 0 001.72.18h1.62a4.19 4.19 0 002.57-.77 6.05 6.05 0 001.78-2.42 24.61 24.61 0 001.42-4.87zM131.37 176.93v.75h-10.13v-.75h.64a2.07 2.07 0 001.36-.42 1.78 1.78 0 00.57-1A11.17 11.17 0 00124 173v-18a12 12 0 00-.16-2.61 1.83 1.83 0 00-.63-.92 2 2 0 00-1.3-.39h-.64v-.75h10.13v.75h-.65a2.06 2.06 0 00-1.35.42 1.92 1.92 0 00-.59 1 12 12 0 00-.15 2.53v18a12.08 12.08 0 00.16 2.62 1.91 1.91 0 00.64.92 2 2 0 001.29.39zM152.86 150.37v.75a3.14 3.14 0 00-1.88 1.59 28.69 28.69 0 00-1.79 4.73l-6.67 20.86h-.47l-6.64-21.71a33.8 33.8 0 00-1.61-4.59 2 2 0 00-1.53-.86v-.75h9.28v.75h-.31a2.49 2.49 0 00-1.72.44 1.15 1.15 0 00-.33.89 3.67 3.67 0 00.12.85c.07.33.33 1.21.77 2.65l4.13 13.59 3.82-12.1c.46-1.46.74-2.44.85-2.94a6.63 6.63 0 00.15-1.27 2.44 2.44 0 00-.22-1.07 1.64 1.64 0 00-.68-.7 3.28 3.28 0 00-1.62-.34v-.75z"/></svg>