<svg xmlns="http://www.w3.org/2000/svg" width="281.48" height="300.9" viewBox="0 0 281.48 300.9"><title>flag-michigan-icon-eagle</title><path d="M104.72,107.38S116.53,89.67,109.51,83s-8.13-5.92-8.13-5.92a4.63,4.63,0,0,1-1.47-3.7,16.35,16.35,0,0,0-5.54.36c-3.33.74-3.7-2.19-2.21-7S98.8,57.89,108,61.59c0,0,4.75-4.29,12.56-1.48,9.23,3.33,17.36,7.4,22.17,20s5.9,13.31,8.5,17c1.39,2,4.58,6.81,7.25,10.9l-.23.14s-.37,1.51.74,4.47a17.5,17.5,0,0,1,1.1,5.53l-2.59.36a30.61,30.61,0,0,1-1.1,4.79c-.73,2.23,1.1,5.19,1.1,5.19L152.37,124l-1.1,6.25-5.54-3.68-1.85,5.54-4.07-3.69-2.59,3.69-4.43-2.22-2.58,5.56-4.05-5.2-3.69,5.2-2.59-5.56-.75,1.47-2.21-3.31-2.58,6.27s-1.85-4.79-4.44-5.17-3.33-.36-4.43-1.1-1.1-5.92-1.1-5.92l-3.69,1.1L104.37,107l.36.36" fill="#fff" stroke="#000" stroke-linecap="round" stroke-linejoin="round" stroke-width="1.5"/><path d="M171.59,174.65c7.76,7.76,24.38,16.25,15.89,19.21,0,0-4.08.74-6.66-1.83s.37,1.06.37,1.06,0,3-2.58,3.7c0,0-5.55-10.68-7-22.14" fill="#fff" stroke="#000" stroke-linecap="round" stroke-linejoin="round" stroke-width="1.5"/><path d="M145,200.11c-3.69,0-11.09.62-11.09-7.35,0-3-1.85-3.69,1.48-4.82s2.58-4,5.54,1.49c0,0,4.42,5.89,4.07,10.68" fill="#fff" stroke="#000" stroke-linecap="round" stroke-linejoin="round" stroke-width="1.5"/><path d="M2.37,212.69c-2.59-41,8.13-104.17,44-138.16,31-26.26,44-12.94,40.63-.39-4.79,17,5.19,24,17.75,33.24,0,0,11.8-17.71,4.78-24.36s-8.13-5.92-8.13-5.92a4.63,4.63,0,0,1-1.47-3.7,16.9,16.9,0,0,0-5.53.39c-3.33.74-3.7-2.22-2.21-7S98.8,57.92,108,61.59c0,0,4.75-4.29,12.56-1.48,9.23,3.33,17.36,7.4,22.17,20s5.89,13.31,8.49,17,11.45,17.34,11.45,17.34S181.35,99.62,170.09,93c-14.38-8.49-17.36-28.44,1.49-27.35s46.91,11.11,59.12,25.87,45.06,49.53,34,126L259.14,206l-1.48,6.66s-2.59-3.68-4.05-11.08-3-15.14-3-15.14L247.71,195s-3.34-5.53-4.44-15.51l-2.6,1.1s-4.79-6.27-8.86-20.68l-4.05,5.92L220.37,158l-1.85,5.53s-5.54,1.1-10.71-6.65-1.11,0-1.11,0l-3.33,7s-5.17-1.85-6.64-5.55l-4.43,3.35-5.55-9.62L184.91,158s-6.66-4.82-7.4-7l-2.21,7.75-5.53-4.43M2.37,212.69l5.9-11.81,2.6,2.93,5.53-11.45L19,194.22s9.24-8.85,11.09-16.27.38,1.12.38,1.12l2.21,3.34s2.22,1.46,4.43-2.6,9.24-17,9.24-17-1.11,7,3,8.52c0,0,4.78-1.49,8.85-8.85l2.95,4.43s7-3,8.51-7l1.84,5.89s7.38-5.16,10.72-10.31l3.32,7.38a20.45,20.45,0,0,0,7-7.76l8.13,5.89s-3.7,5.2,1.85,11.83c-.74,4.42,0,12.58,0,12.58s-.74,3.29-1.48,6.66-1.48,6.25-1.11,10.32,1.85,7.75,6.28,8.49,5.91,1.85,10.72,2.59,8.49-.36,12.56-1.46,5.53-5.2,5.17-8.16-.74-2.2-.74-7.37-1.84-9.24,1.85-9.24,4.44-1.47,7,4.42,2.58,4.43,2.58,10.73,0,10.34,3.69,11.08,1.85,1.47,8.49,1.09,7.77-.36,12.2-.72a9.34,9.34,0,0,0,8.49-6.27c1.11-3.32.74-4.79.38-7.75s1.11,1.1-1.49-5.18a103.7,103.7,0,0,1-5.91-22.16c-.72-5.92-1.85-11.84-1.47-17.76M8.27,200.52c1.85-3.34,3.34-44,13.32-65.78M16,192.36c1.47-3.7,4.06-39.15,12.56-52.82m2.59,36.21C32.66,165.4,33,159.1,38.94,145.1m7,18.44,3-10.69m8.87,9.62L60,156.91M259.16,206s-.75-14.41-2.59-25.86-3.33-15.87-3.33-15.87m-3,22.9s-.74-10.35-2.22-19.58a89.22,89.22,0,0,0-4.8-17.37m.36,29.2s-3.32-19.94-7.75-33.62m-4.07,14.41c-1.85-6.65-6.65-19.2-6.65-19.2m-4.43,16.6-4.43-13.28m-10.36,9.95L203,147.67M104.34,107l-3.69,16.24,3.69-1.07s0,5.16,1.12,5.89,1.84.74,4.43,1.1,4.43,5.2,4.43,5.2l2.57-6.3,2.21,3.34.75-1.47,2.59,5.53,3.69-5.17,4.06,5.17,2.59-5.53,4.43,2.19,2.57-3.69,4.07,3.69,1.85-5.53,5.55,3.7,1.09-6.28,5.17,4.42s-1.83-3-1.1-5.16a31.41,31.41,0,0,0,1.1-4.79l2.59-.39a17.63,17.63,0,0,0-1.1-5.53c-1.11-2.94-.74-4.44-.74-4.44" fill="none" stroke="#000" stroke-linecap="round" stroke-linejoin="round" stroke-width="1.5"/><path d="M99.91,73s4.81-.74,12.19,3M34.89,126.22c0,4.09-.74,10,8.13-1.83m-5.55-10.72c0,4.06-.74,10,8.13-1.86m-.74,14.8c0,4-.75,10,8.12-1.85m3.34-6.29c0,4.06-.76,10,8.13-1.84m-12.57-4.82c0,4.09-.73,10,8.13-1.83M46.34,96.66c0,4.09-.74,10,8.13-1.83m-.38,42.11c0,4.1-.74,10,8.13-1.84m4.43-24c0,4.1-.73,10,8.13-1.83m-3.32,17.37c0,4-.73,10,8.13-1.85m-7,17.37c0,4.06-.74,10,8.13-1.86m5.92-8.49c0,4.06-.74,10,8.13-1.83m-38.42-2.23c0,4.06-.76,9.95,8.13-1.83m-29.94-22.2c0,4.09-.74,10,8.13-1.83M26.76,118.11c0,4.08-.74,10,8.13-1.84m13.3-29.2c0,4.06-.74,10,8.13-1.86m174.39,41c0,4.09.74,10-8.13-1.83m5.53-10.72c0,4.06.75,10-8.11-1.86m.73,14.8c0,4,.74,10-8.13-1.85m-3.32-6.29c0,4.06.74,10-8.13-1.84m12.56-4.82c0,4.09.74,10-8.13-1.83m13.66-13.32c0,4.09.76,10-8.13-1.83m.38,42.11c0,4.1.74,10-8.13-1.84m-4.43-24c0,4.1.73,10-8.13-1.83m3.32,17.37c0,4,.75,10-8.12-1.85m7,17.37c0,4.06.74,10-8.13-1.86M179,131.78c0,4.06.75,10-8.13-1.83m38.44-2.23c0,4.06.74,9.95-8.13-1.83m29.92-22.2c0,4.09.74,10-8.13-1.83m15.89,16.25c0,4.08.75,10-8.12-1.84M217.4,87.07c0,4.06.75,10-8.12-1.86m-37.69,89.44c7.76,7.76,24.38,16.25,15.89,19.21,0,0-4.08.74-6.66-1.83s.37,1.06.37,1.06,0,3-2.58,3.7M145,200.11c-3.69,0-8.88.41-11.09-7.35m-21.07,19.77s3.34,1.27-5.17,6.63-14,5.54-14,10.34.92,5,.92,5a42.61,42.61,0,0,1,5.17,0c2.59.18,5.36.74,6.66.18s3.32,2.22,6.45,1.49a34,34,0,0,0,6.47-2.4,15.45,15.45,0,0,0,2.59.91c2.77.92,1.66.73,5.54,0s6.47-1.48,6.47-1.48,4.61-5.51-1.47-9.21-8.69-4.26-9.62-5-1.66-3.14-2-5m35.65.37s3.14,2.4-3.51,6.29-11.09,2.39-11.63,7.92c-.48,4.71.92,6.1.92,6.1a45.8,45.8,0,0,1,5.36-.74s1.09-.36,2.58-3.13,5.91-6.28,5.91-6.28,1.85-.94.56,4.26,2,6.81,2,6.81l4.08-.36s.34-3.32.53-5.15a47.37,47.37,0,0,0,0-5.38s.74-.36,2.58,1.48,2.23,2.22,3.33,5.56.92,2.93,1.66,2.93a44.83,44.83,0,0,0,4.44-.91s4.61-5.19.55-8.15-10.52-5-13.11-10.68" fill="none" stroke="#000" stroke-linecap="round" stroke-linejoin="round" stroke-width="1.5"/><path d="M122.91,219l33-.59m9.7-.2,10.26-.16v7.76m-5.56,7.87-7.47.1m-5.82.11-9.43.2m-5.8.09-11.09.19M99.36,223.87v-4.44l8-.14M111,216a62,62,0,0,1-6.66-3c-1.84-1.1-6.28-1.84-6.28-1.84a10.71,10.71,0,0,0,.13-2.09,3.9,3.9,0,0,0,.38-1.63,3.77,3.77,0,0,0-1.16-2.73,14.14,14.14,0,0,0-2.31-4.26c-4.06-5.17-5.54-4.8-12.92-6.66a53.85,53.85,0,0,1-12.57-4.79s-1.45,5.15,6.29,8.11a152.68,152.68,0,0,1,15.88,7.39s-.74,3-5.91,2.6a14.79,14.79,0,0,1-3.09-.52,3.3,3.3,0,0,0,.26-1.34,3.82,3.82,0,0,0-7.4-1.33,32.4,32.4,0,0,1-6-3.84c-4.07-3.32-11.45-7-17.71-7,0,0,2.93,2.23,7.74,5.92,1.7,1.3,3.62,2.85,5.41,4.29a3.8,3.8,0,0,0-3.7,3.81,5.83,5.83,0,0,0,.09.84c-2.53-.47-3.19-1.34-5.43-2.7a3.56,3.56,0,0,0,.07-.71,3.82,3.82,0,0,0-7-2.16c-.83-.09-1.91-.2-3.47-.41a54.9,54.9,0,0,0-11.81,0,11.44,11.44,0,0,0,4.43,2.57c2.57.77,5.89,0,6.64,3.33a8.3,8.3,0,0,1,0,3.95,2.08,2.08,0,0,0-.42,0,4.1,4.1,0,0,0,.16-1,3.83,3.83,0,1,0-7.65,0,3.49,3.49,0,0,0,.25,1.32,3.91,3.91,0,0,0-1.59-.34,3.82,3.82,0,1,0,3.82,3.82,3.42,3.42,0,0,0-.24-1.3,4.6,4.6,0,0,0,1.59.33,6.16,6.16,0,0,0,.76-.06,3.52,3.52,0,0,0-.16,1,3.81,3.81,0,0,0,3.5,3.79c-.26,1.62-1.37,1.45-4.46,3.25-4.45,2.6-12.94,9.62-12.94,9.62s6.28-1.86,10.71-3,8.13-2.24,9.6-6.3A29.9,29.9,0,0,1,53,214.93a15.41,15.41,0,0,1,1.41-1.07,3.83,3.83,0,1,0,7.6.66,3.48,3.48,0,0,0-.2-1.15c1.28.59,2.28,1.18,2.28,1.18s.38,5.92-3.32,9.62-11.45,8.49-11.45,8.49,7.75,1.1,12.18-2.22,4.06-5.16,6.29-9.23,4-4.82,4-4.82.75,0,2.05-.09a4,4,0,0,0-.33,1.56,3.84,3.84,0,0,0,3.83,3.83,3.47,3.47,0,0,0,.79-.08,12,12,0,0,1-1.53,1.07,50.59,50.59,0,0,0-10.35,8.85s3.7,2.6,10-2.57,7.77-8.49,11.09-10,7.39-.37,7.39-.37-1.11,4.8-7.77,8.48a41.83,41.83,0,0,0-11.07,9.26,24.73,24.73,0,0,0,8.86-2.6c4-2.2,8.85-5.16,8.85-5.16m7.41-37-4.43-3a20,20,0,0,0,2.94,10.73M176.44,227l20.71-5,.52,1.78,6.14-5.11-7.92-1,.47,1.64-20.57,5m.77,8.64,29.2,7-.35,1.83,7.81-1.77-6.64-4.44-.32,1.68-29-7m-.09-.08,37.81-.42.11,1.69,7.12-3.67-7.54-2.61.12,1.8-37.68.45" fill="none" stroke="#000" stroke-linecap="round" stroke-linejoin="round" stroke-width="1.5"/><path d="M99.91,73s4.81-.74,12.19,3" fill="none" stroke="#000" stroke-linecap="round" stroke-linejoin="round" stroke-width="1.5"/><path d="M108,61.41a76.86,76.86,0,0,1,14.77,7.73c6.85,4.46.93,3.52-1.09,1.86s-3.34-1.47-3.34-1.47-2.77,2.93-4.43-.72.37-2.78-1.66-4.1-5.36-3.12-5.36-3.12l1.11-.18"/><path d="M102.87,232.47c0-4.07-.37-5.93,1.47-7.59s3-3.32,2,1.5-1.85,6.81-.92,7.93l-3-.18.37-1.66"/><path d="M117.83,233.76c.74-.72,1.66-1.85.74-4.42s-2.21-5.56-1.3-6.09,1.48-.94,2,2.19,0,6.47,2,8.49l-1.85-.74-1.66.57"/></svg>