<svg xmlns="http://www.w3.org/2000/svg" width="600" height="410" viewBox="0 0 600 410"><title>flag-south-carolina-dimensions</title><rect x="47.14" y="4.29" width="549.45" height="366.3" fill="#fff" stroke="#50d6cc" stroke-linecap="round" stroke-linejoin="round"/><path d="M77.56,72.67c-15.5,51.65,46.8,93.39,89.23,55.94,44.5-46.73-5.16-109.84-56.73-89.69,37.64-6.47,60.08,37,34.77,64.15C120.38,128.05,75.8,111.63,77.56,72.67Z" fill="none" stroke="#50d6cc" stroke-linecap="round" stroke-linejoin="round" fill-rule="evenodd"/><path d="M349.38,66.27c-2,.92-3.43,3.59-4.26,5.69-2,5.89-4,11.76-6,17.63-1,2.65-2,5.33-3.08,8-1.92-.25.76-3.53.61-4.93.63-2.88,2-5.69,2.16-8.62-.48-2.2.05-5-1-6.84-1.63,3.76-3.69,7.36-5.1,11.2-1.05,4.61-2.47,9.14-3.06,13.84a40,40,0,0,1-1.57,7.18c-2-.18-1.43-3.62-2.58-5-1-3.31-3.14-6.17-4.65-9.28-.78-.77-2.56-6.18-2.52-3.17-.18,2.18-.33,4.36-.53,6.54q-6.5-12.15-13-24.29c.35,2.63,0,5.46.95,8,2.1,4.54,4,9.16,6,13.74-1.05,1-1.27-.66-1.8-1.33q-6-10.62-12-21.24c-1.62,1.14-.5,3.24-.71,4.88.67,2.3,2.19,4.36,3.23,6.54,1.9,3.55,3.85,7.08,5.8,10.59-1.4,1.54-2.16-2.82-3.16-3.8-3.63-6.29-7.22-12.6-10.95-18.83A2.67,2.67,0,0,0,290.24,76a5.49,5.49,0,0,0,1.31,4.21q4.21,7.29,8.47,14.54c-1,1.12-1.26-.51-1.81-1.16L284.55,72c-1.11-.5-2.67-1.83-2.32.38-.53,2.76,2.48,4.7,3.46,7.09,4.05,6.26,8.22,12.56,12.25,18.76-.84,1.14-1.23-.32-1.77-.94l-7.68-10.88c-.95-.25-2.18-.87-1.82.68-.06,1-.33,2,.51,2.76,4.09,6.14,8.26,12.25,12.31,18.41,1.31,2.69,2.5,5.45,3.89,8.08q3.5,3.61,7,7.22c-1.68,1.35-3.38-2.94-5.05-3.71-1.77-2-4.15-3.59-5.15-6.13-1.21-1.9-1.91-4.17-3.78-5.56-2.08-1.55-3.67-4.39-6.07-5.09-.78,1.71-.15,5.57,2.18,6.9.23.64,3.5,2.83,1.71,2.38a42.56,42.56,0,0,1-10.12-2.83c-2,1.91,4.76,3.44,1,4.22-2.74,0-4.85-2.44-7.35-3.36-6.24-3.42-12.63-6.56-19-9.68l-4-1.2c-.37,2.31,3.24,3,4.44,4.59,4.84,2.61,9.8,5.09,14.64,7.71-.15,1.46-1.47.36-2.35.22l-27.22-8.77c-1.52-.36-1.25.44-.64,1.47.15,1.19,1.34,1.25,2.26,1.59,7.12,2.39,14.24,4.8,21.36,7.18.28,1.12.52,2.25.76,3.38-1.62-1.33-3.21-2.85-5.43-3-4.64-1.15-9.42-.17-14.12-.12-2.51-.6-2.84,1.43-.34,1.86,2,1.56,4.6.68,6.94.81l11.39-.37c.67,2.16-3.71.71-3.88,2.47-.44,2.08,3.5,2.08,4.92,1.66,2.17,0,3.68-3.18,5.52-2.64-.48,2.07-4.1,2.53-4.51,4.67s4.09,1.51,5.35.59c1.45-1.21,4-3,4.1.21.42,2.93,4.3,1.79,6.4,2.78,3.76.58,7.61.81,11.33,1.43,3.56,1.62,7.13,3.22,10.68,4.84-.73,2-3.86-1-5.48-.92-2.69-.75-5.17-2.28-8-2.3a25,25,0,0,0-7.43-.12c-7.51.63-15,1.14-22.53,1.84-7,1.18-14,2.31-20.95,3.46-1.78.55-5.63,1.59-1.94,2.31,7.92-.38,15.83-1,23.74-1.64.57,1.38-1.13.91-2,1.13l-19.73,2c-2,1.5-4.73,2.33-5.83,4.78.31,3.48,4.68.29,6.84.53a121.73,121.73,0,0,0,16.85-3.62c1.63.13,5.72-2.79,6-.69-6.21,1.91-12.43,3.85-18.68,5.58l-4,.94c-.39,3.2,4.46,1.33,6.43,1.84,4.34-1,8.48-2.77,12.77-4,2.29-.19,5.76-2.87,7.42-1.77-1.48,1.5-4.9,2.3-7,3.54-4.41,1.93-8.89,3.71-13.2,5.9-2.83,2.87,3,2.61,4.45,1.12,4.6-2.11,9.14-4.33,13.67-6.61,1.11.92-.52,1.36-1.1,2a61.2,61.2,0,0,1-7.93,5.67c-1.11.89-2.92,1.2-3.14,2.83,2.51,1.43,4.92-.3,7.17-1.43q8.83-5.72,17.84-11.18c2.59-1.16,5.25-2.16,7.88-3.22,1,1-.65,1.32-1.28,1.92-2.89,1.93-5.79,3.85-8.68,5.8-3.15,3.26-6,6.85-9.73,9.5a40.75,40.75,0,0,0-4.89,4.36c-2.72,2.74-5.54,5.38-8.24,8.15-.84,2.79-2.64,5.42-2.44,8.41,0,3.23-.33,6.49,0,9.69.34,1.33,1.1,4.37,1.36,1.34.15-1.39,1.11-6.18,2.13-2.82.57,1.26,1.13,5,1.79,4.39,1-2,1.17-4.67,2.74-6.15,1.41.82,2.52,2.85,3.86.52,1.7-2,1.45-5,2.29-7.36q1.1-4.69,2.2-9.38c1.33-.39,1,1.23,1.35,2q.63,2.9,1.28,5.79c2.9-1.27,1.72-5.2,2.65-7.68.19-1.87.78-6.77,2.78-3,1.18,2.82,4.44-.43,4.34-2.48.66-3.25,1.3-6.5,2-9.75.87,1.56,1.78,3.09,2.67,4.64,3-.15,4.08-3.19,6.05-5a65.09,65.09,0,0,1,5.32-5.56c2.23-1.15,4.33-2.7,6.63-3.69,2.25,2.08-1.14,4.88-2.42,6.66-2.85,3.52-6.36,6.42-9.34,9.83-1.18,1.36-3,2.5-2.53,4.52,1.5.66,3.06,1.27,4.57,2a66.45,66.45,0,0,0-6.83,3.5c-2,1.76-4.22,3.32-6.36,5-.57,1.54-.94,3.29,1.35,2.65,1.63-.28,6,.41,2.57,2-3.25,2.13-7,3.46-10.23,5.56-.89,1.19-3.28,3.06-.37,3,1.95-.28,4.86-3.24,6.31-1.74-2.05,2.26-4.7,4.44-6.94,6.7-1.14.88-3.67,3.33-2.17,4,3.54-1.69,6-4.88,9.06-7.31,1.06-1.69,3.91-3.18,3,.1-3.51,4.37-6.9,8.87-10.51,13.12.36,4.27,3.11-1.23,4.46-2.37,2.11-2.49,4.07-5.16,6.83-7,1-.21,3.48-3.81,3.62-2.34-.07,1.22.31,2.59-.73,3.54-2.18,2.94-3.64,6.31-5.43,9.49-.29,1.37-.6,5.32,1.39,3.45,2.36-4.4,5.24-8.52,7.1-13.18,1.91-4,3.19-8.3,4.79-12.4,1.34-2,2-1.32,1.81.77.22,1.95.14,6.13,1.48,6.42,2.45-5.59,5.53-10.88,8.14-16.39.9-2.69,2-5.33,3.09-8,1.4-.14.76,1.38.9,2.27a41.53,41.53,0,0,1-.14,5.36c-1.52,4.36-2.65,8.85-4.77,13-1.28,2.65-3.09,5-4.33,7.71-1.25,1.62-.79,1.63.61.68,2.48-1.14,4.14-3.26,5.86-5.29,2.7-2.16.7,2.76.07,3.81-1.47,4.16-2.42,8.53-4.08,12.64,0,1.25-.45,4.11,1.14,1.92,3-2.33,4.06-6.06,5.84-9.25,1.09,1.58,3.12,2.5,4.11.55-.17-2.46-1.3-5-.2-7.39a102.63,102.63,0,0,0,2.61-12c.3-2.45.46-4.94.77-7.38,1.36-.71.79,1.46.9,2.28v5.62c1.34.15,3.79-2.22,4.49-.67-1.35,1.16-3.41,1.88-4.64,3.14l-.15,4.7q2.49-1.53,5-3c1.18.83-.39,1.4-.92,2.09l-4.11,3.83-.07,3.32c1.16-.37,2.33-.7,3.49-1.08.95,1.08-.69,1.32-1.37,1.89s-2.5.83-2.25,2.18c-.09,3.37-.21,6.75-.35,10.12.61-1.2,2.76-4.11,2.45-4.27-.71,1.38-3.27,1.47-1.53,0,.73-.88,4.69-3.7,3.29-.88-1.36,2-2.55,4.58-4,6.19-.4,0-.89,2.85.34,2.28,1,.7,4.18,1,2,2.23a36.26,36.26,0,0,0-2.89,2.77c.06,2.82-.65,7.53-.1,9.17.84-1.17,3.58-3.29,3-3.84-1.16.55-4.69.29-2.22-.61,1.5-.57,5.7-.73,3,1.64-1.43,2.55-4.84,3.35-4.19,6.14,0,2.05-.83,3.31,1.69,2.93,2.88-.25,3.08,2.56.48,3.33-1.79,1-3.35,1-2.27,3.34.56,1.55,4.4,2.6,3.44,4.22-.15-1.82-.56.7-1.55-1.13-1.22-1-2.8-3.29-2.28-.21l-.69,17.61c1.21-.37,3.36,1.32,3.38,2.11-1.25,1.16-4.23-3.9-3.46.1,0,1.81-.43,5.14-.06,6,.6-.5,1.55.94,2.29,1.19l2.53,1.75c-.47,1.43-1.45,0-2.24-.42l-2.79-1.93c.22,2.39-.83,6.78.13,8,1.1.81,4,3.13,3.89,4.43-1.42.38-3.46-3.85-4.35-3.61-.14,3.56-.27,7.13-.4,10.69,1.48.5,4.5,2.43,5.28,3.65-1.34,1.14-4.18-3.09-5.34-2.55-.21,2.88,0,5.82-.45,8.67-.55,2.06,5.15,1.55,3.92,3.67-2.1-.7-5-3.7-5,.18-.45,3.1-3.27,6.26-1.07,9.2.84,2.38,3.55,3.39,5.58,4.61,2.39-.38,4.69-1.56,7.18-1.66,3.67-.57,7.41-.77,11.07-1.36,1.55-1.13,3.46-2.2,1.13-3.64-1.85-2.28-1.41-5.53-2.49-8.12,0-2.1-.44-3-2.29-1.5-1.45.29-3.71,3.39-4.53,1.46,2.17-1.05,4.14-2.42,6.34-3.44a71.56,71.56,0,0,1-.74-8.27c-1.74,1.12-4.3,3.45-6,3.13.68-1.56,4-2.24,5.42-3.87,1,0,.35-1.47.53-2.33q0-3.61-.07-7.21a10,10,0,0,1-6,3.5c-1.81-1.58,2.76-1,3.35-2.36,1.1-1.24,3.12-2,2.58-3.94L334,266.9c-1.41.94-4,4.31-5.37,2.91,1.48-1.32,4.68-2.58,5.35-4.55l-.09-8.27a11,11,0,0,1-6.07,4.07c-1.21,1.34-3.68.15-1.22-.52s4.82-1.66,6.31-3.84c1.36-.73.9-2,.95-3.36l-.06-5.9c-2.87,2.55-5.46,5.36-8.3,7.93-1.5-1.58,2.78-3,3.39-4.51,1.41-1.7,3.81-3.34,4.9-4.8l-.06-6.43c-1.09,1-2.86,2.29-.62,1.08,1,1.13-.76,1.25-1.5,1.74l-3,1.42c-1.06-2,3.42-3,4.32-4.71,1.21.29.76-.85.82-2,0-1.5,0-3-.05-4.49-1.5,2.72-4.48,1.14-6.86.65-1.76-.15-.11-.68.62-1.12q2.83-1.52,5.66-3c1.07,1.08-.69,1.28-1.4,1.81l-3.35,1.77c2.1,1.17,4.66.42,5.3-1.61,0-3.59-.1-7.13-.27-10.72-1.65,1.66-2.6,3.47-4.66,4.21,1-.44,4.93.14,2.26.83-1.53.31-6.63.5-3.06-1.44a9.78,9.78,0,0,0,4.17-3.58c1.38-.79,1.36-1.33,1.18-3q-.15-3.31-.28-6.63c-.84,1-4.4,3.85-3.49,3.84,1.06-.67,5.24-.86,2.76.34-1.6-.1-5,2.12-5.61.18,2.22-1.28,3.85-3.27,5.71-5,1.09.14.37-1.45.51-2.44q-.4-10-.8-19.91c-1.05.92-5.42,4.46-3.82.95,1.07-1.23,2.16-3.38,3.35-3.79.78-.4.07-1.85.25-2.67.18-2-1.06-3.76-1.66-5.63-.05-.76-1.47-2.09-.26-2.32,1.32,1.13,1.95,4.17,3,6,1.63,3.77,3.49,7.46,4.92,11.3a46.46,46.46,0,0,1,1.75,9.71c.82-.3,2.34.19,2.28-1.08.19-1.25,1.09-2.53.3-3.73-3.57-9.71-7.63-19.23-11.4-28.87.89-.93,1.19.34,1.54,1.1,2.2,4.37,3.63,9.08,5.46,13.62,1.86,4.92,3.81,9.82,6,14.58,3.44-2,.6-5.59.11-8.5-1.6-5.32-3.78-10.46-5.64-15.69-.55-.94-1.76-1.37-2.56-2.11L332.12,168c1-1.83,3.12,1.39,4.61,1.55,2.56,2.7,3.19-1.45,5.46-1.92.64,2.33-3.68,4.22-1.38,6.92,1.66,5.65,3.14,11.36,5.34,16.84.36,1,.73,2,1.09,3-.74,1.06.31,5.63,1.83,4.45.52-2.46,2.09-4.9.75-7.39-2-7.51-4.66-14.81-6.93-22.23,0-2.7,1.72,1.15,1.91,2.32,2.61,7.09,5.43,14.11,7.74,21.3-.49,2.12-.47,6.58,2.28,4.06.13-2.82.35-5.71-.83-8.37-2.38-6.35-4.28-12.89-6.4-19.33-1.22,1.31-3.5,0-3.85-1.41.4-3.2-2.24-3.11-4.63-2.9-1-.11,1.82-1.6,2.16-2.15,1.29-.71,4-2.88,1.39-3.46-.85-.39-1.69-.79-2.54-1.17a37.68,37.68,0,0,1,4.25-6.21c1-1.89.25-5.27-1.75-6.41-1.46-.8-1.29-2.64-1.87-4-.76-.8,0-2.35.61-1.19.38,1.3.75,2.6,1.13,3.9a5.74,5.74,0,0,1,3.16,5.53c1,2.27-1.64,3.65-2.61,5.36-.58.84-1.06,1.75-1.61,2.61,1.22.58,2.46,1.1,3.67,1.71.25,2.29-3.7,3.8-3.41,4.59,3.83-1,1.5,4.31,4.4,4.75,1,0,1.84-1,2.77-1.39,1.66.31-.7,1.09-.31,1.83,3.1,8.42,6.28,16.84,9.22,25.3-.28,3.06,2.64,3.46,4.45,4.72.25,1.63,1,4.73,2.75,4.07.08-4.37.35-8.75.36-13.1.25-1.49-2.28-5.1-.21-5.28,1.17,3.41,2.71,6.74,3.51,10.25.56,2.28-.56,6,2.71,6.32,1.44.59.33-4.65,1.87-3.22l2.56,2c3.46.09.89-3.71,1-5.64-1.09-2.71-2.12-5.45-3.21-8.16,1.62-.67-.86.23-.4-1.49-.37-2.68-2.1-4.69-3.65-6.79-.66-1.41-.62-3.09-1.85-1.08-1.46,1.21-.82,3.21.21,4.49,1.67,2.58,1.5,6,3.59,8.33.92,1.51,2.15,3,1.83,4.89.08.86.15,2.57-.92,1.74-.15-1.45.39-3-.52-4.19-1.1-2.17-2.69-3.53-3.13-6s-1.84-4.55-2.88-6.78c.23-.54-3.44.3-3.16-.85,1-.14.84-.59,2.56-.21a3.58,3.58,0,0,0,.42-4.56c-1.73-3.88-4.4-7.28-6.34-11-.49-2.45.49-5.48-1.87-7.19-2.43-2.37-3.66-5.56-5-8.6-1.56-2.18-4.11-3.46-5.92-5.44-1,.32-4.72.43-2.87-.68,2.55-1,4.31.43,5.93,2.16,1.85,1.44,3.82,2.93,4.44,5.29a22.35,22.35,0,0,0,4.8,7.43c1.88,1.77.91,4.6,1.41,6.87,2.32,4.21,5.42,8,7,12.63-.33,2,.56-.64,1.51-.41-.09-2.27.7-5.34-.77-7.45-1.53-2.85-3.32-5.6-4.7-8.51-1-2.07-2.15-4.67-3.22-6.94a49.56,49.56,0,0,0-4.32-7.34c1.55-1.62,2.35,3,3.55,3.84,2.7,4.78,4.4,10,7.35,14.69.86,2,2.69,3.83,3.07,6,.3,1.3-.51,5.5.54,5.15.52-1,1.06-2,1.58-3,.84-.4,2.5-.15,2.71-1.07.29-2.83-2.56-4.89-2.85-7.67a38.19,38.19,0,0,0-4.21-10.74c-2-4.44-5-8.39-6.59-13-.42-2.71,1.77.75,1.81,2,1.56,3.54,3.83,6.72,5.44,10.25a42.3,42.3,0,0,1,3.84,8.94,26,26,0,0,0,3.35,8.32c.27,1.19,0,2.12,1,2.23.47,1.09-1.81.54-.91,2.21.26,1.05-.27,5-1.05,2.75.07-1.85.94-4.87-1.71-3.45-.71.61-1,1.78-1.52,2.6-.45,1.12-2.12,1-1,2.62,1.49,2.22,3.47,4.19,3.85,6.95.32,2.46,2.36,4.12,3.6,6.25,1.34,1.38,2.91,5.59,4.26,4.84.6-2.62-1.7-4.37-2.54-6.64-1.8-3.85-3.43-7.78-5.15-11.67,1.39,1,3.17,1.6,4,3.25,3.2,4.26,6.34,8.56,9.62,12.75,3.45,1.65,1.33-2.64.28-4-2.62-5.3-6.22-10-9.32-15.06-.67-.69-2.83-4-.82-3l10.63,13.11c1.19.81,3.35,1.49,2.63-.54-3-5.55-6.9-10.58-10.28-15.92-3.53-5-6.54-10.4-9.71-15.67,1.67-1.35,3.86,2,5.72,2.48a37.54,37.54,0,0,1,8.06,6.05c4.11,3.57,8.06,7.35,12.32,10.72,2.13,1.16,3.79,3.2,6.07,4,0-.77-2.33-3.66-1.34-3.64a39.15,39.15,0,0,1,6.88,2.78c1.48.73,6.12,2.48,3.8-.55-.74-1.51-4.27-2.33-3.69-4,.65-.36,1.72.75,2.53,1a15.87,15.87,0,0,0,6.09,1.93c3.13-.14,1.16-3.4-.95-3.42-4.84-2.58-9.65-5.23-14.47-7.85,1-2,4.27,1.19,6.16,1.08,1.1-.35,5.14.49,3.73-1.42-.6-.74-1.84-.76-2.7-1.21-6.6-2.39-13.22-4.75-19.82-7.16-2.81-1.9-5.67-3.74-8.5-5.6.43-1.74,3.27.5,4.68.32a28.6,28.6,0,0,0,7.52,1.15c1.65,0,5.1.46,5.7.19-1.09-.59-5.9-2-3.15-2.74,1.37-.08,5.71-.17,2-.31-2.62-.27-5.36-.18-7.89-.87.33-.94,1.64-.59,3.35-.41,1.86.64,5.65-.45,6.38,1.11,1.85.6,5.1-.16,7.49,0,3.3-.29,6.93.17,10-.65,1.08-1.68,4.31-2.22,4.25-4.4-.22-2-.24-4.11-.57-6.1-.69-.75-.84-2.27-2-2.34a51,51,0,0,1-9.05-2.43c-6.15-.15-12.33-.09-18.46-.46-2-.13-4.36,1.67-6.64,1.55-3.53.35-7.13.06-10.55,1.15-1.32,1-3.16-.45-1-.72a29.66,29.66,0,0,1,8.06-1.13,21.72,21.72,0,0,0,8.18-1.44c1.58-1.08,1.93.75,2.24-1.24,1.45-.55,6.1-.17,5-1.69-5.73.19-11.46.26-17.19.36-2.06-.2-4.69,1.07-6.73,2.06-2.39,1-.42-1.46,1.06-1.53,2.54-1.5,5.69-1.13,8.16-2.76,3.85-1.8,7.47-4.07,11.22-6,1-.86,3.69-2.21.82-2.49-2.25-.52-4.66.78-7,.81-3.08.54,0-2.14,1.16-2.66,3.59-1.85,7.11-3.87,10.54-6,1.09-.83,4.31-1.4,3.28-2.79-2.92,1-5.8,2.37-8.79,3.18-1,.24-5.58.81-3.32-1,4.39-2.91,8.72-5.91,13.07-8.87,1.46-2,.4-2-1.34-1.2-2,.61-3.52,2.26-5.4,3.22-.64,1.13-4.26,2.09-2.34.13,1.95-1.69,3.85-3.44,5.88-5,1-1.43,2.08-4.83-.71-3.23-1.8.95-4.11,1.09-5.36,2.84-2.21,2.3-4.47,4.58-6.65,6.89-1.6-1.5,2.53-3.15,3-4.74,1.8-2,3.69-4,5.3-6.25.34-1.81.42-3.08-1.41-1.82l-2.67,1.15c.27,1.86-3.68,3.8-4.93,5.65-2.12,1.8-5,2.57-6.87,4.72-1.49-1.59,2.61-2.8,3.67-3.73,3-1.45,5-4.19,7.39-6.39-2.62.53-5.65.43-7.19,3-4,3.78-7.84,7.7-11.91,11.37-5,3.44-10,6.81-15.1,10-2.33.94-5.64.17-6.74,3-1.95,2.73-4.25,5.18-6.42,7.74a10,10,0,0,1,6.65,1c2,.71,3.74,2.11,5.68,3-.43,1.93-3.09,3.39-5.18,3-1.31,0-2.5-.93-3.76-1.31.13-1.51,1.41-.29,2.27-.08a4.26,4.26,0,0,0,5.21-.94c-.65-1.33-4.09-2.67-6.08-3.41-1.81-1.09-3.88-.34-5.85-.32-2.32.53.65-1.53,1-2.33a103.15,103.15,0,0,0,7.26-9c-.16-2.33,2.43-4,3.29-6.13,2.54-3.74,3.84-8.14,5.79-12.2.83-1.7.4-3.68.61-5.51-.06-1,.29-2.08,0-3-1.81,3.32-3.66,6.64-5.4,10-2.13.12-.22-3.26.4-4.14,1.64-3.32,3.49-6.58,5-9.92.05-1.4.09-2.79.14-4.19-1.38-1.2-2.08,2.89-3.18,3.86-2.4,4-4.62,8.13-7.12,12-.25,1.33-2.9,2.29-1.84.41,3.58-6.58,7.26-13.14,10.93-19.65,1.47-2.62,1-5.67,1.21-8.54-1.42-2.24-2.4,1.2-3.54,2.09-1.45,1.8-2,4.16-3.09,6.19-1.81,3.92-3.68,7.82-5.52,11.72-2.05-.84,1.19-3.91,1.21-5.63q2.64-6.83,5.27-13.66c-.88-1.82-2.85,3-3.78,4.1-1.67,3.74-3.61,7.35-5.46,11-2-.86,1.2-3.9,1.12-5.55.95-2.77,2.21-5.51,3.14-8.23C349.22,69,350.68,66.32,349.38,66.27Zm12.68,49.6c.45,1.82-2.29,2.64-3.41,4-1.42.53-6.48,1.77-4.3,2.91l4.32-2.28c1.84,1.74,4.63,3.61,4.41,6.28-1.75.44-1-3.43-3.09-3.79-1-1.66-2.17-1.23-3.46-.32-1,.55-2.08,1.07-3.09,1.65-1.72-2.35.19-4.24,2.66-4.52s3.88-2.5,5.73-3.91l.05,0Zm13,5.07c.17,2-3.44,1.15-4.41,2.89-1.57.76-3.17,3.1-4.57,3.08-1.55-.31,1.86-1.81,2.41-2.65C370.5,122.68,372.5,121.23,375.1,120.94Zm16.74,8C391.44,129.34,391.72,129.26,391.84,129Zm-47.27,2c2.14.81,4.41,1.32,6.23,2.8,2.34.82,2.45,3.5,3.13,5.52.06,1.3-1.06,5.45-2.24,4.56.47-1.91,2.17-4.26.74-6.45-.19-2.4-2.69-3.06-4.37-4.22l-3.82-1.35Zm60.24.23c4.35.18,8.73.37,13.05.79.48.51-.87.54-.67.8-5.6-.25-11.19-.93-16.79-.47-2.62-.33-4.92,1.67-7.57,1.1-1.42.28-4.67-.48-2.45-1.06a14,14,0,0,0,7.51-.78C400.14,131.16,402.52,131.44,404.81,131.19Zm-6.68,3.64a88.9,88.9,0,0,0,13.53,1c2.86.16,6.21-.13,8.77.33-.42,1.9-4.42.06-6.12.63a100,100,0,0,1-15.08-.88C398.27,135.92,398,135.77,398.13,134.83Zm4.86,5c1.85,1.92,4.49,2.27,7.15,1.84,3.13-.2,6.33.64,9.37-.52,2.63-.25-.2,1.48-1.58,1.31-3.06.64-6.2-.21-9.29.18-2.48.88-4.5-1.21-6.28-1.67a7.17,7.17,0,0,1-4.28.84h-6.47c-.44-1.44,1.22-.78,2.08-.92,2.15,0,4.32,0,6.47,0A16,16,0,0,1,403,139.86Zm-88.11,2.93c2.25.92-1.82,3.15-1.16,4.61.1,1.53.28,2.62,1,.5.33-1,.63-2,1-3a4.28,4.28,0,0,0,3.83,2.35c.73,1.26,1.09,4.13,1.86,1.48a18.33,18.33,0,0,1,2.29-4.06c1.66,1-.23,4.33.25,6.06-.14,2.73.44,5.46.06,8.19.23,1.63-1.37,5.78,1.52,3.8,1-.47,1.13-1.88,1.75-2.77,1.1-2.15.69-4.76,1.42-7,2.14-.55.19,6,2.27,3.9.6-2.21-1-4.06-1.21-6.5V146c1.43-.43.78,1.22.92,2.08a10.26,10.26,0,0,0,.83,5.07c2.37,1.28,2-3.13,3.87-4,2.05-.82.9-5.1,3-4.64a10.51,10.51,0,0,1-3.48,6.62c-.74,1.26-1.09,4.29-3.22,3.06,1.55,1.59-.21,4.92-2.12,4.36-.43-1.41-.46-3.06-.69-.65-.06,2-1.47,3.61-2.19,5.42-1.75,1-4.87,2-3.73-1.23a57.46,57.46,0,0,0,0-10.41c0-1.14.58-4.71,0-4-.8,1.62-1.56,3.27-2.36,4.89-1-1.48-.6-5-3-4.63-1.3-.26-1.76-1.81-2.08.3-.57.62-1.29,4.1-2.33,2.53-.25-1.92-.09-4.89-2.28-2.56-.4-1.55-.78-3.12-1.17-4.68,1.29-.78,1.06,1,1.4,1.79-.07,2.65,2.76.07,3.09-1.3ZM351,154.47c2.46,5,5.06,9.9,7.7,14.8,1.42,3.47,3.14,6.87,3.74,10.61-.56,1.77,3.63,4.18,1.58,4.65-2.26-1.77-2.49-4.57-3.11-7.15a72.45,72.45,0,0,0-6-13.2c-1.7-3-3.15-6.17-4.73-9.25Zm-5,5.44c2.34.27-2.14,2.71.78,3,1.51.25,1.12,2.38,2.5,2.74,3.45.2-.38,5.11,3.17,4.39,1.7,1.34-.09,4.81,2.58,5.69,2.22,1.07,1.59,3.7,2.63,5.52.24,1.39,1,1.18,2,.49.71-.47,2.15-1.21,1.88.1-1.25.62-2.51,1.24-3.75,1.87a16.89,16.89,0,0,1-2.1-6.11c-1.95-1.47-3.72-3.11-3.42-5.79.47-2.06-3.46,0-2.42-2.55,1.36-2.63-1.68-2.3-2.31-4.06-.17-1.78-2.83-1.49-3-3C345,161.38,345.55,160.68,346,159.91Zm-14.09,25.42c-.38,1.15-4.07,4.59-1.34,2.41,1.41-.85,1.61-.29,1.35-2.19v-.22Zm-.55,8.18c2.67.46-3.31,3-2,3.09.78-.57,2.45-.5,1.59.49L327,198.28c-1-2.07,3.28-3.1,4.28-4.72Zm.28,8.83c2.19.07-1.2,2.28-1.82,3.23-2.39,1.94,2.84-1.93,2.42,0-1,.7-4.63,3-5.89,1.72C327.92,205.5,330.17,204.33,331.64,202.34Zm-13.14,7.91c-.12,1.68-.44,3.8,1.18,1.7C321.48,210.85,319.49,210.9,318.5,210.25Zm-.78,20.39c0,1.59-.64,4.1,1.45,2.12,1.54-.67,2.7-1.88.21-1.86Zm-.4,17.29c1.39.85,4.95,1.06,4.86,2.64-1-.15-4.68-1-4.86-2.2ZM311,306.17c-5.45.15-10.91,0-16.34.16-2.35,1.5-5.07,2.48-6.9,4.65-1.39,1.95,2.33,3.62,4.25,3.19,1,.64,4.41-.62,3.82,1.2-.9,2.61-3.84,3.07-5.78,4.65-1.2,2.49,1.64,5.58,3.78,3.2,1.26-1.2,2.35-1.34,3.25.15,1.48,1.16-1,4.29,2.21,4.12,2.12-1.07,4-2.94,6-4.35,1.32-1.69,3.46-3.57,4.3-.38,1.94,1.66,4.37,1.25,6.69,1.1,2.85-.1,6-.48,7.62-3.17,2.67-1.27,5.2,1.33,6.55,3.41,1.79,1.18,4.79,1.34,3.88-1.65-.71-2-.1-4,2.25-2.77,2.58.5,4.58,2.45,7.05,3.13-.15-1.88-.17-5.42,2.43-3a22.35,22.35,0,0,0,7.16,3.84c.09-1.11-.2-2.32.16-3.37,1.71-1.75,5.13,3.4,4.38-.53.36-1.34-1.49-4.32.39-4.12a38.82,38.82,0,0,0,8.11,2.35c-1.83-3.05-5.11-4.73-7.9-6.78a21.2,21.2,0,0,0-8.49-1.95c-3.18-.29-6.44-.16-9.58-.62-1.34-1-1.12-.11-.88.18-1.87,2.69-5.23,2.17-8.06,2.67a45.28,45.28,0,0,0-11.73,2.19c-2.6.34-4.9-2-6.78-3.55A26.79,26.79,0,0,1,311,306.17Z" fill="none" stroke="#50d6cc" stroke-linecap="round" stroke-linejoin="round" fill-rule="evenodd"/><line x1="22.91" y1="197.04" x2="22.91" y2="199.54" fill="none" stroke="#a3a3a3" stroke-linecap="round" stroke-linejoin="round"/><line x1="22.91" y1="204.67" x2="22.91" y2="366.18" fill="none" stroke="#a3a3a3" stroke-linecap="round" stroke-linejoin="round" stroke-dasharray="5.13 5.13"/><polyline points="22.91 368.74 22.91 371.24 25.41 371.24" fill="none" stroke="#a3a3a3" stroke-linecap="round" stroke-linejoin="round"/><line x1="28.27" y1="371.24" x2="32.55" y2="371.24" fill="none" stroke="#a3a3a3" stroke-linecap="round" stroke-linejoin="round" stroke-dasharray="2.86 2.86"/><line x1="33.98" y1="371.24" x2="36.48" y2="371.24" fill="none" stroke="#a3a3a3" stroke-linecap="round" stroke-linejoin="round"/><line x1="36.48" y1="4.29" x2="33.98" y2="4.29" fill="none" stroke="#a3a3a3" stroke-linecap="round" stroke-linejoin="round"/><line x1="31.12" y1="4.29" x2="26.84" y2="4.29" fill="none" stroke="#a3a3a3" stroke-linecap="round" stroke-linejoin="round" stroke-dasharray="2.86 2.86"/><polyline points="25.41 4.29 22.91 4.29 22.91 6.79" fill="none" stroke="#a3a3a3" stroke-linecap="round" stroke-linejoin="round"/><line x1="22.91" y1="11.96" x2="22.91" y2="133.41" fill="none" stroke="#a3a3a3" stroke-linecap="round" stroke-linejoin="round" stroke-dasharray="5.17 5.17"/><line x1="22.91" y1="135.99" x2="22.91" y2="138.49" fill="none" stroke="#a3a3a3" stroke-linecap="round" stroke-linejoin="round"/><line x1="356.8" y1="394.64" x2="359.3" y2="394.64" fill="none" stroke="#a3a3a3" stroke-linecap="round" stroke-linejoin="round"/><line x1="364.28" y1="394.64" x2="591.1" y2="394.64" fill="none" stroke="#a3a3a3" stroke-linecap="round" stroke-linejoin="round" stroke-dasharray="4.98 4.98"/><polyline points="593.59 394.64 596.09 394.64 596.09 392.14" fill="none" stroke="#a3a3a3" stroke-linecap="round" stroke-linejoin="round"/><line x1="596.09" y1="389.28" x2="596.09" y2="385" fill="none" stroke="#a3a3a3" stroke-linecap="round" stroke-linejoin="round" stroke-dasharray="2.86 2.86"/><line x1="596.09" y1="383.57" x2="596.09" y2="381.07" fill="none" stroke="#a3a3a3" stroke-linecap="round" stroke-linejoin="round"/><path d="M7.1,175.91l-.43-.36c.41-.6.57-.79.82-2.59l.16-1.15H6.27c-1.06,0-2.25,0-2.92,0l0,0-.26-1.19,0-.05,5.41-6.78h0l1.7-.5,0,0c-.16.88-.31,1.91-.44,2.81l-.62,4.44h.37a1.51,1.51,0,0,0,1.19-.34l.23.16-.74,1.47,0,0c-.37,0-.76-.06-1.18-.07l-.23,1.62c-.13.91-.11,1-.52,1.44A14.54,14.54,0,0,1,7.1,175.91Zm.72-5.34.48-3.45c.13-.89.23-1.84.3-2.48-2.81,3.58-4,5.13-4.42,5.86.66,0,1.38.07,2.16.07Z" fill="#727272"/><path d="M16.83,176.65l-1.19-1.25,1.44-10.24H15.66l.11-.73h1.41l.18-1.25a3.83,3.83,0,0,1,1.45-2.78c.9-1,1.22-1.22,2.21-1.22h1.13l0,0-.23.62c-.18.46-.25.53-.43.53s-.74,0-1.2,0c-1,0-1.27.39-1.45,1.59l-.35,2.51h2.21v.73H18.4l-.78,5.53c-.23,1.59-.42,3.29-.54,4.53l.51.78h0Z" fill="#727272"/><path d="M23.64,172c-2.18,0-3-.87-2.74-2.84l.23-1.66A3.74,3.74,0,0,1,23,164.68a3.4,3.4,0,0,1,2-.6c1.36,0,2.05.63,2.05,1.8a9.65,9.65,0,0,1-.26,1.77l-1.28.69H22.29l-.07.5c-.23,1.62.5,2.15,2.09,2.15a4.5,4.5,0,0,0,2.62-.85h0v.22A3.68,3.68,0,0,1,23.64,172Zm-1.24-4.39h3.24a8.87,8.87,0,0,0,.19-1.42c0-.83-.49-1.25-1.57-1.25s-1.56.58-1.72,1.7Z" fill="#727272"/><path d="M31,172c-2.17,0-3-.87-2.74-2.84l.23-1.66a3.74,3.74,0,0,1,1.91-2.79,3.4,3.4,0,0,1,2-.6c1.37,0,2.06.63,2.06,1.8a9,9,0,0,1-.27,1.77l-1.27.69H29.62l-.07.5c-.23,1.62.49,2.15,2.08,2.15a4.48,4.48,0,0,0,2.62-.85h0v.22A3.7,3.7,0,0,1,31,172Zm-1.24-4.39H33a7.85,7.85,0,0,0,.19-1.42c0-.83-.49-1.25-1.57-1.25s-1.56.58-1.71,1.7Z" fill="#727272"/><path d="M38,171.93c-1.41,0-2-.53-1.82-1.88l.75-4.89H35.49l.11-.73H37l.34-2.25,1.32-.19,0,0-.37,2.42h2.36v.73H38.25l-.73,4.72c-.1.71.18,1,1.26,1a3.41,3.41,0,0,0,1.45-.36h0l0,.16A3,3,0,0,1,38,171.93Z" fill="#727272"/><path d="M297.15,399.89c-1.8,0-2.78-1-2.47-3.25l.19-1.45a8.29,8.29,0,0,1,2.07-5,5.71,5.71,0,0,1,3.43-2.12l.05,0,.13.77c.05.34,0,.41-.29.5-.95.34-2.07.25-2.81,1.11-.42.5-.62.87-.94,3a3.52,3.52,0,0,1,2.55-1,2.11,2.11,0,0,1,2.26,2.6l-.15,1.17a3.58,3.58,0,0,1-1.77,2.86A4.2,4.2,0,0,1,297.15,399.89Zm.78-.92c1.24,0,1.54-.5,1.75-2l.19-1.37c.23-1.6-.31-2.16-1.55-2.16a2.19,2.19,0,0,0-1.93.86l-.28,2C295.86,398.12,296.53,399,297.93,399Z" fill="#727272"/><path d="M307.18,404.58,306,403.32l1.43-10.24H306l.11-.72h1.42l.17-1.26a3.89,3.89,0,0,1,1.45-2.78c.9-.95,1.22-1.22,2.21-1.22h1.14v0l-.23.62c-.17.46-.24.53-.42.53s-.74,0-1.2,0c-1.05,0-1.28.39-1.45,1.59l-.36,2.52h2.21v.72h-2.31l-.78,5.54c-.23,1.59-.43,3.28-.55,4.52l.51.78v0Z" fill="#727272"/><path d="M314,399.89c-2.17,0-3-.87-2.74-2.83l.23-1.66a3.75,3.75,0,0,1,1.91-2.8,3.4,3.4,0,0,1,2-.6c1.37,0,2,.64,2,1.81a8.77,8.77,0,0,1-.26,1.76l-1.27.69h-3.22l-.07.5c-.23,1.63.49,2.16,2.08,2.16a4.55,4.55,0,0,0,2.62-.85h0v.21A3.7,3.7,0,0,1,314,399.89Zm-1.24-4.39H316a7.87,7.87,0,0,0,.19-1.41c0-.83-.49-1.26-1.57-1.26s-1.56.59-1.72,1.7Z" fill="#727272"/><path d="M321.31,399.89c-2.17,0-3-.87-2.74-2.83l.23-1.66a3.75,3.75,0,0,1,1.91-2.8,3.43,3.43,0,0,1,2-.6c1.36,0,2.05.64,2.05,1.81a8.9,8.9,0,0,1-.27,1.76l-1.27.69H320l-.07.5c-.23,1.63.49,2.16,2.09,2.16a4.55,4.55,0,0,0,2.61-.85h0v.21A3.69,3.69,0,0,1,321.31,399.89Zm-1.23-4.39h3.23a8,8,0,0,0,.2-1.41c0-.83-.5-1.26-1.58-1.26s-1.55.59-1.71,1.7Z" fill="#727272"/><path d="M328.34,399.85c-1.42,0-2-.53-1.82-1.87l.74-4.9h-1.42l.11-.72h1.43l.34-2.25,1.33-.2,0,0-.37,2.43h2.37v.72H328.6l-.72,4.72c-.11.71.17,1,1.25,1a3.37,3.37,0,0,0,1.45-.35h0l0,.16A3,3,0,0,1,328.34,399.85Z" fill="#727272"/><line x1="47.02" y1="381.07" x2="47.02" y2="383.57" fill="none" stroke="#a3a3a3" stroke-linecap="round" stroke-linejoin="round"/><line x1="47.02" y1="386.43" x2="47.02" y2="390.71" fill="none" stroke="#a3a3a3" stroke-linecap="round" stroke-linejoin="round" stroke-dasharray="2.86 2.86"/><polyline points="47.02 392.14 47.02 394.64 49.52 394.64" fill="none" stroke="#a3a3a3" stroke-linecap="round" stroke-linejoin="round"/><line x1="54.6" y1="394.64" x2="265.39" y2="394.64" fill="none" stroke="#a3a3a3" stroke-linecap="round" stroke-linejoin="round" stroke-dasharray="5.08 5.08"/><line x1="267.93" y1="394.64" x2="270.43" y2="394.64" fill="none" stroke="#a3a3a3" stroke-linecap="round" stroke-linejoin="round"/></svg>