<svg xmlns="http://www.w3.org/2000/svg" width="600" height="400"><path fill="#002868" d="M0 0h600v400H0z"/><path d="M103.23 249.84v-14.05h6.32v-70.28h-6.32v-14.06h19l31.63 67.47v-53.41h-6.36v-14.06h25.3v14.06h-6.32v84.33h-12.65l-31.63-67.46v53.41h6.33v14.05zm75.9 0v-14.05h6.33v-70.28h-6.33v-14.06h56.93v21.09h-12.65v-7h-25.3v28.11h12.65v-7h12.65v28.05h-12.65v-7h-12.65v28.11h25.3v-7h12.65v21.08zm63.26-98.39h25.3v14.06h-6.33L274 221.73l12.65-56.22h-6.32v-14.06h25.3v14.06h-6.33l-19 84.33h-12.61l-19-84.33h-6.32zm58.3 98.39v-14.05H307l19-84.34h12.65l19 84.34h6.33v14.05h-25.3v-14.05H345l-3.16-14.06h-19l-3.17 14.06H326v14.05zm31.62-70.27L326 207.68h12.65zm38 70.27v-14.05h6.32v-70.28h-6.32v-14.06h46.8l10.12 11.25v75.9l-10.12 11.24zm19-14.05h19.21l6.09-5.77v-58.75l-6.09-5.76h-19.28zm44.28 14.05v-14.05h6.33l19-84.34h12.65l19 84.34h6.32v14.05h-25.3v-14.05h6.33l-3.17-14.06h-19l-3.16 14.06h6.32v14.05zm31.63-70.27l-6.33 28.11h12.65zM157.12 47.49c-19.47-3-30.12-8.29-30.12-15.33 0-6.26 4.64-10 22.7-10h29.77l.19 12.61a84.75 84.75 0 00-8-5.5c-3.21-1.82-10.54-2.82-17.17-2.82-7.54 0-12.38.78-12.34 2.88s12.56 3.84 20.22 4.87" fill="silver"/><path d="M162.39 34.21c19.47 3 19.85 12.19 19.85 17s-4.12 12.34-18.11 12.28h-36l-.19-14.67s4 5.61 7.25 7.43 13.44 2.4 20.07 2.4c7.55 0 13-3 13-5.81s-3.5-4.36-11.17-5.4M206.98 27.34l4.41-5.17h-23.57l4.41 5.17v31.02l-4.41 5.18h23.57l-4.41-5.18V27.34zM239.45 27.34l4.41-5.17h-23.57l4.41 5.17v31.02l-4.41 5.18h53.84V45.93l-8.91 10.53-25.77-.09V27.34zM323.69 22.17l4.4 5.34-17.38 24.21-17.38-24.21 4.4-5.34h-27.71l7.38 5.34 23.62 36.03h11.01l23.62-36.03 7.38-5.34h-19.34zM366.52 29.34l25.77-.09 8.9 10.53V22.17h-53.83l4.41 5.17v31.02l-4.41 5.18h53.83V45.93l-8.9 10.53-25.77-.09V43.72l12.03-.02 3.95 4.67V32.73l-3.95 4.68-12.03-.03v-8.04zM463 57.52c-4.78 0-7.58-5.69-9-9.76 13.69-3.49 12.22-25.59-3.85-25.59h-42.06l4.41 5.17v31l-4.41 5.18h23.56l-4.4-5.18v-10.1h13.84c.8 5.6 3.52 15.3 12.81 15.3h9c7.36 0 10.13-12.12 10.13-12.12a10.88 10.88 0 01-10.03 6.1zm-35.75-15.46V30.92h13.44c9.95 0 10.09 11.14 0 11.14z" fill="silver"/><path fill="#ffa300" d="M322.96 341.14l4.41-5.18h-23.56l4.4 5.18v31.02l-4.4 5.17h53.83v-17.61l-8.91 10.53-25.77-.09v-29.02zM398.21 377.33c29.56 0 28.9-41.37.29-41.37h-30.92l4.4 5.18v31l-4.4 5.17zm-13.32-7v-25.61h11.56c9.95 0 10.09 25.57 0 25.57zM268.53 336c-15.71 0-28.44 5.84-28.44 20.69s12.73 20.68 28.44 20.68S297 372.14 297 356.65 284.23 336 268.53 336zM280 361.89a11.52 11.52 0 11-23 0V351.4a11.52 11.52 0 0123 0zM209.15 355.29l4.4 5.17v2.14c0 6.29-3 8-8.33 8s-8.47-2.42-8.47-8.75V351.4a11.55 11.55 0 0111.52-11.51v-.05c2.18-.07 8.16.07 11.82 3.48a27.16 27.16 0 016.47 10.25V336h-19.13c-15.32.21-27.6 6.1-27.6 20.68 0 14.84 12.73 20.68 28.44 20.68 13.67 0 20-4.24 20-7.93v-8.94l4.4-5.17z"/><path d="M77.09 219.43l-16.64-12.16-16.63 12.18 6.39-19.62-16.69-12.09h20.59l6.31-19.65 6.34 19.64 20.59-.06-16.68 12.15zM556.22 219.43l-16.64-12.16L523 219.45l6.4-19.62-16.7-12.09h20.59l6.31-19.65 6.34 19.64 20.59-.06-16.73 12.15zM326.48 100.79l-8-5.79-7.95 5.8 3.06-9.35-8-5.76h9.84l3-9.37 3 9.37h9.84l-8 5.77zM289.45 100.79l-8-5.79-7.95 5.8 3.06-9.35-8-5.76h9.84l3-9.37 3 9.37h9.84l-8 5.77zM252.42 100.79L244.47 95l-7.95 5.8 3-9.35-8-5.76h9.85l3-9.37 3 9.37h9.84l-8 5.77zM215.39 100.79L207.44 95l-7.95 5.8 3.06-9.35-8-5.76h9.84l3-9.37 3 9.37h9.85l-8 5.77zM178.37 100.79l-8-5.79-7.95 5.8 3.06-9.35-8-5.76h9.84l3-9.37 3 9.37h9.84l-8 5.77zM437.56 100.79l-8-5.79-8 5.8 3.06-9.35-8-5.76h9.84l3-9.37 3 9.37h9.84l-8 5.77zM400.53 100.79l-8-5.79-7.94 5.8 3.05-9.35-8-5.76h9.85l3-9.37 3 9.37h9.84l-8 5.77zM363.5 100.79L355.55 95l-7.95 5.8 3.06-9.35-8-5.76h9.84l3-9.37 3 9.37h9.85l-8 5.77zM326.48 318.83l-8-5.8-7.95 5.81 3.06-9.35-8-5.77h9.84l3-9.37 3 9.37h9.84l-8 5.77zM289.45 318.83l-8-5.8-7.95 5.81 3.06-9.35-8-5.77h9.84l3-9.37 3 9.37h9.84l-8 5.77zM252.42 318.83l-7.95-5.8-7.95 5.81 3-9.35-8-5.77h9.85l3-9.37 3 9.37h9.84l-8 5.77zM215.39 318.83l-7.95-5.8-7.95 5.81 3.06-9.35-8-5.77h9.84l3-9.37 3 9.37h9.85l-8 5.77zM178.37 318.83l-8-5.8-7.95 5.81 3.06-9.35-8-5.77h9.84l3-9.37 3 9.37h9.84l-8 5.77zM437.56 318.83l-8-5.8-8 5.81 3.06-9.35-8-5.77h9.84l3-9.37 3 9.37h9.84l-8 5.77zM400.53 318.83l-8-5.8-7.94 5.81 3.05-9.35-8-5.77h9.85l3-9.37 3 9.37h9.84l-8 5.77zM363.5 318.83l-7.95-5.8-7.95 5.81 3.06-9.35-8-5.77h9.84l3-9.37 3 9.37h9.85l-8 5.77z" fill="silver"/><path d="M308 137.06l-7.95-5.8-7.95 5.81 3.06-9.35-8-5.77H297l3-9.37 3 9.36h9.85l-8 5.77zM271 137.06l-8-5.8-7.95 5.81 3.06-9.35-8-5.77h9.84l3-9.37 3 9.36h9.84l-8 5.77zM234 137.06l-8-5.8-7.94 5.81 3.05-9.35-8-5.77h9.85l3-9.37 3 9.36h9.84l-8 5.77zM196.93 137.06l-8-5.8-7.93 5.81 3.05-9.35-8-5.77h9.85l3-9.37 3 9.36h9.85l-8 5.77zM159.9 137.06l-8-5.8-7.9 5.81 3.06-9.35-8-5.77h9.84l3-9.37 3 9.36h9.85l-8 5.77zM419.1 137.06l-8-5.8-7.95 5.81 3.06-9.35-8-5.77h9.84l3-9.37 3 9.36h9.84l-8 5.77zM382.07 137.06l-8-5.8-7.95 5.81 3.06-9.35-8-5.77h9.84l3-9.37 3 9.36h9.84l-8 5.77zM456 137.06l-8-5.8-7.94 5.81 3.05-9.35-8-5.77h9.85l3-9.37 3 9.36h9.84l-8 5.77zM345 137.06l-8-5.8-7.95 5.81 3.05-9.35-8-5.77h9.85l3-9.37 3 9.36h9.85l-8 5.77zM308 284.81l-7.94-5.81-7.95 5.8 3.06-9.35-8-5.76H297l3-9.37 3 9.37h9.85l-8 5.77zM271 284.81l-8-5.81-7.95 5.8 3.06-9.35-8-5.76H260l3-9.37 3 9.37h9.84l-8 5.77zM234 284.81l-8-5.81-7.94 5.8 3.05-9.35-8-5.76H223l3-9.37 3 9.37h9.84l-8 5.77zM196.93 284.81L189 279l-7.95 5.8 3.05-9.35-8-5.76h9.9l3-9.37 3 9.37h9.85l-8 5.77zM159.9 284.81L152 279l-7.95 5.8 3.06-9.35-8-5.76h9.84l3-9.37 3 9.37h9.85l-8 5.77zM419.1 284.81l-8-5.79-7.95 5.8 3.06-9.35-8-5.76h9.84l3-9.37 3 9.37h9.84l-8 5.77zM382.07 284.81l-8-5.79-7.95 5.8 3.06-9.35-8-5.76h9.84l3-9.37 3 9.37h9.84l-8 5.77zM456 284.81l-8-5.79-7.94 5.8 3.05-9.35-8-5.76H445l3-9.37 3 9.37h9.84l-8 5.77zM345 284.81l-8-5.79-7.95 5.8 3.05-9.35-8-5.76h9.85l3-9.37 3 9.37h9.85l-8 5.77z" fill="#ffa300"/></svg>