<svg xmlns="http://www.w3.org/2000/svg" width="1200" height="800"><path fill="#fff" d="M0 0h1200v800H0z"/><path fill="#002868" d="M0 0h1160L600 800H0z"/><path fill="#BF0A30" d="M0 0h600L40 800H0z"/><path fill="#002868" d="M999.711 526.98c0 8.604 5.624 9.356 13.052 9.356h14.065v8.88h-71.08v-8.88h12.674c7.452 0 13.147-.703 13.147-9.356v-87.23c0-5.802-4.059-6.195-8.975-6.195h-18.142v-8.153c13.919-.777 29.83-3.688 40.171-13.876h5.088V526.98zm67.857-45.922c7.713-10.687 18.542-17.952 32.048-17.952 23.13 0 36.22 17.375 36.22 39.443 0 25.5-16.857 45.922-43.237 45.922-34.053 0-45.48-34.223-45.48-62.767 0-22.06 5.057-39.918 15.17-53.634 12.944-17.459 41.672-29.004 60.747-14.096 7.179 5.57 11.966 18.24 4.994 25.82-4.194 4.626-11.658 4.778-16.056.38-4.112-4.11-3.844-9.693-1.201-14.474 1.327-2.435 1.99-3.793 1.99-4.078 0-4.7-8.58-5.563-11.756-5.563-10.684 0-18.901 5.247-24.653 15.74-5.721 10.493-8.66 25.568-8.786 45.259zm1.295 24.525c0 14.902 4.976 34.355 23.357 34.355 18.404 0 23.895-18.304 23.895-33.597 0-14.498-4.802-31.667-22.315-31.667-17.176 0-24.937 15.659-24.937 30.91z"/><path fill="gold" d="M261.092 631.394l-26.15-45.293-13.278 7.667-5.328-9.228 35.519-20.507 5.328 9.228-13.24 7.644 26.149 45.293-9 5.196zm28.117-16.233l-31.477-54.521 9-5.197 12.386 21.453 17.708-10.224-12.386-21.452 9.038-5.219 31.477 54.521-9.037 5.218-13.764-23.839-17.708 10.224 13.764 23.839-9 5.197zm45.077-26.026l-31.478-54.52 33.182-19.158 5.328 9.228-24.18 13.962 6.976 12.085 22.469-12.972 5.298 9.177-22.468 12.972 8.568 14.84 24.994-14.431 5.307 9.19-33.996 19.627zm70.4-40.645l-47.433-45.308 9.786-5.65 34.598 33.83-12.37-46.665 9.597-5.54 15.495 63.749-9.672 5.584zm12.903-43.349c-8.01-13.872-10.782-31.807 5.214-41.04 15.676-9.053 30.137 2.124 37.96 15.675 7.889 13.664 10.315 31.62-5.375 40.677-15.608 9.01-29.88-1.6-37.799-15.312zm9.08-5.732c4.49 7.777 13.485 17.299 23.288 11.638 9.94-5.738 5.839-18.297 1.33-26.105-4.593-7.957-13.05-17.209-23.016-11.458-10.037 5.796-6.227 17.914-1.603 25.925zm57.114 3.415l-31.221-54.078 9-5.196 25.915 44.887 22.457-12.965 5.305 9.19-31.456 18.162zm6.35-76.36l9-5.198 17.048 29.527c2.652 4.595 4.477 7.519 5.505 8.77 3.482 4.26 8.34 5.257 13.133 2.49 3.617-2.088 5.782-5.53 4.752-9.768-.464-1.916-2.267-5.598-5.404-11.03l-17.413-30.161 9.037-5.218 16.535 28.637c4.22 7.312 6.883 12.833 7.985 16.529 2.564 8.687-2.455 16.026-9.796 20.263-7.281 4.204-15.152 5.61-22.13.015-2.933-2.352-6.748-7.613-11.46-15.776l-16.791-29.08zm76.732 28.392l-31.477-54.521 8.785-5.072 39.31 25.845-21.019-36.405 8.404-4.852 31.478 54.521-9.076 5.24-38.529-25.164 20.528 35.556-8.404 4.852zm55.042-31.778l-26.15-45.293-13.278 7.666-5.328-9.228 35.519-20.507 5.328 9.228-13.24 7.644 26.149 45.293-9 5.197zm28.117-16.234l-31.477-54.521 33.182-19.158 5.328 9.228-24.182 13.962 6.978 12.085 22.468-12.972 5.298 9.177-22.468 12.972 8.568 14.84 24.994-14.43 5.306 9.19-33.995 19.627zm41.65-24.046l-31.478-54.521 33.182-19.158 5.328 9.228-24.182 13.962 6.978 12.085 22.468-12.972 5.298 9.177-22.468 12.972 8.568 14.84 24.994-14.431 5.306 9.191-33.995 19.627zm41.649-24.046l-31.478-54.521 19.003-10.972c6.384-3.685 12.463-6.558 19.34-2.415 6.148 3.691 10.939 12.403 9.91 19.6-.555 3.788-2.516 7.105-5.893 9.934 6.805.701 12.072 4.025 17.72 7.677l11.561 7.508-10.738 6.2-13.404-8.087c-3.402-2.064-9.008-6.427-13.413-5.965-2.4.278-4.683 1.891-6.75 3.084l13.142 22.76-9 5.197zm-9.17-36.665c4.415-2.548 10.817-5.2 14.202-8.91 4.254-4.67-1.394-14.098-7.553-12.82-4.633.948-10.422 5.478-14.629 7.906l7.98 13.824zm59.075-15.793l8.201-6.14c5.014 6.398 10.278 8.012 15.788 4.832 4.467-2.579 7.308-7.6 4.477-12.504-1.402-2.43-3.584-3.56-6.376-3.393-6.787.406-13.454 3.876-20.353 2.948-11.976-1.506-19.92-16.579-13.21-26.986 4.415-6.745 14.584-11.734 22.544-9.73 4.6 1.134 8.52 4.32 11.751 9.532l-8.748 5.693c-3.559-4.576-7.49-6.187-12.74-3.156-3.276 1.892-6.826 5.705-4.518 9.701 2.75 4.764 10.054 2.337 14.1 1.322 6.875-1.691 13.935-2.914 20.107 1.406 6.64 4.666 10.645 13.906 8.944 21.883-1.06 4.91-4.685 9.153-10.879 12.729-10.955 6.325-20.66 3.618-29.088-8.137zm64.226-13.436l-26.15-45.293-13.278 7.667-5.328-9.228 35.518-20.507 5.328 9.228-13.24 7.644 26.15 45.293-9 5.196zm63.825-36.85l-9.812 5.665-11.064-10.131-17.847 10.305 3.471 14.515-9.596 5.54-14.073-64.57 9.558-5.518 49.363 44.195zm-29.068-11.973l-17.826-16.687 5.627 23.73 12.2-7.043zm39.337 6.045l-26.15-45.293-13.278 7.666-5.328-9.228 35.518-20.506 5.328 9.228-13.24 7.644 26.15 45.293-9 5.196zm28.117-16.233l-31.477-54.521 33.182-19.158 5.327 9.228-24.181 13.96 6.978 12.086 22.468-12.972 5.298 9.177-22.468 12.972 8.568 14.84 24.994-14.43 5.306 9.19-33.995 19.628z"/></svg>