<svg xmlns="http://www.w3.org/2000/svg" width="600" height="408" viewBox="0 0 600 408"><title>flag-michigan-dimensions</title><path d="M51.06,367.18H598V2.29H51.06Z" fill="#fff" stroke="#50d6cc" stroke-linecap="round" stroke-linejoin="round"/><path d="M295.23,243.93c3.68,0,5.06-.92,7.36-.92a20.23,20.23,0,0,0,6.88-.92c3.22-.92,12.42-1.83,8.28-.46s-2.76,1.84,3.67,1.38,10.58-.92,10.12-2.3.15-.45-3.53-.15-4-.3-4-.3a4.13,4.13,0,0,1,3.68-1.24,27.08,27.08,0,0,0,7.51-.45c1.37-.31,2.91,1.38,1.22,1.69s-.76,1.37.46,1.52,2.15,3.07-5.06,2.61-9.49.31-14.4.46-10.88.31-8.27-.46,4-1.22-2-.3-5.2.16-9.95.45-7.2.31-7.2.31l5.21-.91" fill="#50d6cc"/><path d="M336.41,235.26c-3.68.35,5-.56,6.79-.75s5.79-.76,2.29.12-3.32.94-.33.87a27.6,27.6,0,0,0,5.1-.58c.27,0,1.91,0,1.91,0s2.1.05-3.25.76-9.5,1-7.73.6,5.6-.83,1.18-.64-5.46,0-3.68-.27-.49-.29-2.28-.1" fill="#50d6cc"/><path d="M362.34,231.84s2.45.3-2.3.11-6.43-.11-6.43-.11-1.84-.09,2,.4,8.58,1,4.75,1.2-5.67.59-4.44.79a7.71,7.71,0,0,0,3.06-.11,9.61,9.61,0,0,1,2.45,0l1.23.21v2s.76.1-2.76.1-8.73.2-6.13.29,3.68.09,5.36.09h3.67" fill="#50d6cc"/><path d="M327.25,227.69c1.38,0,5.52.45,3.68.45s-2.61.46.31.62,5.35.15,5.35.15l-5.66.45s-3.68,0-2.91-.3-1.38-.76-1.38-.76l-1.07-.77,1.68.15" fill="#50d6cc"/><path d="M345.79,246.69c5.82-.17,4.6-.62,11.34-1.85s.61-2.45-3.52-3.21,6.89-1.37,5.67-1.68-8.43.31-13,.31-.91,2.75,3.83,3.21-5.36,1.06-10.11,1.23c0,0,2,.91-7.66,1.37s-16.55.61-12.41,1.22,20.53.78,9.19,1.84-14.71.47-17,.92-7.05,1.07-7.05,1.07,5.52,1.38,6,1.38-1.53-.61,5.37-.61a134.71,134.71,0,0,0,17-1.08c5.52-.6,14.55-1.83,9.2-2.29s-8.74-1.23-4.45-1.23a48.59,48.59,0,0,0,7.66-.6" fill="#50d6cc"/><path d="M313.47,82.58s4.89-7.34,2-10.1S312.08,70,312.08,70a1.93,1.93,0,0,1-.61-1.53,6.76,6.76,0,0,0-2.3.15c-1.38.3-1.53-.91-.91-2.9s2.75-3.68,6.58-2.15a5.22,5.22,0,0,1,5.21-.61c3.83,1.37,7.2,3.06,9.2,8.27s2.44,5.52,3.52,7c.58.82,1.9,2.83,3,4.52l-.1.06a3.52,3.52,0,0,0,.31,1.85,7.39,7.39,0,0,1,.45,2.3l-1.07.15a13.27,13.27,0,0,1-.45,2,3.09,3.09,0,0,0,.45,2.15l-2.14-1.83-.46,2.59-2.3-1.52-.76,2.3L328,91.31,327,92.85l-1.84-.92L324,94.23l-1.68-2.16-1.53,2.16-1.08-2.3-.31.61-.91-1.38-1.08,2.6s-.76-2-1.83-2.14-1.39-.15-1.84-.46-.46-2.45-.46-2.45l-1.53.45,1.53-6.73.15.15" fill="#fff"/><path d="M341.2,110.48c3.21,3.21,10.11,6.73,6.59,8a3.42,3.42,0,0,1-2.77-.76c-1.07-1.08.16.44.16.44a1.63,1.63,0,0,1-1.07,1.54,31.54,31.54,0,0,1-2.91-9.18" fill="#fff"/><path d="M330.17,121c-1.54,0-4.6.26-4.6-3,0-1.24-.77-1.54.61-2s1.07-1.68,2.3.61c0,0,1.83,2.45,1.69,4.43" fill="#fff"/><path d="M308.37,200.72l-.11-.15h0l.13.14" fill="#fff"/><path d="M308.41,205.93v-.31a11.1,11.1,0,0,0-.77-3.22,2.26,2.26,0,0,1,.14-1l-.45.74.93,2.45.15,1.38" fill="#fff"/><path d="M316,226.35h1.5c-.13-2.26-.24-3.58-.24-3.58s-.71,2-1.26,3.57" fill="#fff"/><path d="M313.62,220.49c.3-2.76.61-2.16.46-3.52a14.63,14.63,0,0,1-.16-2.16c-.15-2.6-.61-3.21-.61-3.21a20.66,20.66,0,0,1-3.37-.3,1.91,1.91,0,0,1-1.53-1.84V207.6a12,12,0,0,1-4.45,4c-3.67,2.14-4,4.29-1.53,4.29s1.84-1.23,4.9,1.23,2.76,2.14-3.06.91-4.28-1.22-6.75-.61-4,.91-1.83,1.84,4,1.83,1.53,2.46a31.84,31.84,0,0,1-4.75.76c2.46,1.53,3.22,2.14,4.91,2.45s1.68,0,3.52.76.92.93,2.91.78,3.52-.63,4.75-.17l4,0c.35-1.57.8-3.85,1-5.83" fill="none" stroke="#50d6cc" stroke-width="0.55"/><path d="M358.82,200.57c-3.07.91-4.6,1.23-5.52-1.23s-4.6-1.53-6.13-.91a15.16,15.16,0,0,1-4.59.91c-.92,0-4.29-2.14-2.45-2.76s.91-4.9-4.29-3.06-9.19,1.23-5.52,2.76,5.82,4,1.54,5.2-5.82,2.76-7.36,3.07-1.23.92-3.06-1.84-2.76-4.9-5.52-2.76-2.14,4-3.37,4.9a4,4,0,0,1-2.14.93l-1.05-3.39c.2.8.49,2,.58,2.61a9.08,9.08,0,0,0,.47,1.69l.46,1.69,1.68-.16a6.89,6.89,0,0,0,.92-1.23c.45-.76,1.37.16,1.37.16s.31-.3.15-1.07-.45-.61.16-2.14.61-1.38,2.14-1.84,1.84.3,2.46,1.37-.16,1.53-.16,2.46a2.34,2.34,0,0,1-.61,1.53,5.17,5.17,0,0,1,1.53,2.29,2.59,2.59,0,0,0,.46,1.38,9.68,9.68,0,0,0,3.22.62,28.54,28.54,0,0,1,3.68.31l-.31,1.06a4.56,4.56,0,0,1-1.38.3c-.61,0-1.22.61-2.76.78a14,14,0,0,1-2.76,0l-.61,2.44a19.78,19.78,0,0,0,.15,2.45c.1.61.47,4.24.71,7.28l41.79.23V199a15.22,15.22,0,0,1-3.88,1.53" fill="none" stroke="#50d6cc" stroke-width="0.55"/><path d="M347.9,226.59a5,5,0,0,0,1.24-3.3,5,5,0,1,0-9,3.07" fill="#fff" stroke="#50d6cc" stroke-linecap="round" stroke-linejoin="round" stroke-width="0.73"/><path d="M326.54,224.42h11.38v-1.19H326.54Z" fill="#50d6cc"/><path d="M337.88,222l-10-1.21-.11.92,10,1.2.11-.91" fill="#50d6cc"/><path d="M338.16,220.78l-10.52-4.66-.37.85,10.52,4.65.37-.84" fill="#50d6cc"/><path d="M338.9,219.61l-8.63-5.14-.47.78,8.64,5.14.46-.78" fill="#50d6cc"/><path d="M339.66,218.58l-8.77-9.66-.68.62L339,219.2l.67-.62" fill="#50d6cc"/><path d="M340.83,217.81l-5.82-8.2-.75.53,5.81,8.21.76-.54" fill="#50d6cc"/><path d="M341.93,217.18l-4.78-14.39-.87.29,4.78,14.39.87-.29" fill="#50d6cc"/><path d="M343.3,217l-2-9.87-.91.2,2,9.84.9-.19" fill="#50d6cc"/><path d="M344.57,216.82,346,201.73l-.91-.1-1.45,15.1.91.09" fill="#50d6cc"/><path d="M345.92,217.15l2.16-9.81-.9-.2L345,217l.9.18" fill="#50d6cc"/><path d="M347.13,217.56l7.44-13.23-.8-.44-7.44,13.22.8.45" fill="#50d6cc"/><path d="M348.22,218.41l5.95-8.09-.74-.56-5.94,8.11.73.54" fill="#50d6cc"/><path d="M349.17,219.27l12.15-9.07-.55-.74-12.15,9.08.55.73" fill="#50d6cc"/><path d="M349.83,220.5l8.72-5-.46-.8-8.72,5,.46.81" fill="#50d6cc"/><path d="M350.35,221.66l10.23-2.34-.2-.89-10.24,2.34.21.89" fill="#50d6cc"/><path d="M350.45,223.05l10-1.05-.1-.92-10,1,.1.93" fill="#50d6cc"/><path d="M350.46,224.32l9.31,1.8.18-.89-9.32-1.81-.17.9" fill="#50d6cc"/><path d="M236.7,106.79c2.45-.15,3.68-1.37,5.82-.61a12.51,12.51,0,0,1,4.91,2.91c1.67,1.54.91.76.91.76s-2-.76-2.75.16-3.53,1.07-4.45,0-.61-1.53-1.83-1.84a20.87,20.87,0,0,1-3.53-.76c-1.68-.62-1.68-.77-1.68-.77l4,.62c1.07.14,1.84-.17,2.6.76s.46.77,1.08.3,1.07-1.23,1.53-.92,1.68.16,1.22,1.23-.31,1.07-.31,1.07a3.75,3.75,0,0,1,1.23-.45,6.07,6.07,0,0,1,1.07-.16s-3.06-1.53-3.83-2a4.54,4.54,0,0,0-3.06-.45c-1.53.15-2.91.15-2.91.15" fill="#50d6cc"/><path d="M261.52,112.16c-1.38-.31-1.38.31-2.91.91s-2.45.93-2.45.93a3.11,3.11,0,0,0,2.3.6,18.76,18.76,0,0,1,3.67-.92l-.61-1.53" fill="#50d6cc"/><path d="M219.08,103.88c2-.91,1.69-1.07,4.29-.61s4,.3,5.35,2.15-2.59,1.54-3.67.91-5.82-1.53-6.43-2.45" fill="#50d6cc"/><path d="M397,117c-2.76,3.9-5.6.85-3.22-1.84a4.78,4.78,0,0,1,1.84-1.42,10.16,10.16,0,0,1,3.45-1.1s-3,1-4,2.24-.18,1.14-.41,2-.11.81.58.28.8.06,1.26-.91,1,.11.52.74" fill="#50d6cc"/><path d="M406.78,110.78c2-1.38,3.37-2.46,4.59-2.76a4.72,4.72,0,0,1,3.22.3,11.83,11.83,0,0,1,1.53.77l-2.6-.3s-.92,3.68-2.3.46l-2.3.76-2.14.77" fill="#50d6cc"/><path d="M422,109.25a3.87,3.87,0,0,1,2.44-1.38c1.84-.46,2.15-1.08,3.38-.78s3.52.78,3.52.78a7.68,7.68,0,0,1-4.6,1.38H422" fill="#50d6cc"/><path d="M314.84,63.52a31.31,31.31,0,0,1,6.13,3.2c2.84,1.85.38,1.46-.46.77a2,2,0,0,0-1.38-.61s-1.15,1.22-1.84-.3.16-1.15-.69-1.7-2.22-1.29-2.22-1.29l.46-.07" fill="#50d6cc"/><path d="M312.7,134.45c0-1.68-.16-2.46.61-3.15s1.23-1.37.84.63-.76,2.82-.38,3.29l-1.23-.08.16-.69" fill="#50d6cc"/><path d="M318.9,135a1.5,1.5,0,0,0,.31-1.83c-.38-1.08-.92-2.31-.54-2.53s.62-.39.84.91,0,2.68.85,3.52l-.77-.31-.69.24" fill="#50d6cc"/><path d="M309.17,135.45l.77,1.14.61-1.21" fill="#50d6cc"/><path d="M315.61,135.9a3.34,3.34,0,0,1,.84,1.54c.31,1.07.31.61.31.61s.3-.77.45-1.07a6.35,6.35,0,0,0,.31-1l-1.92-.08" fill="#50d6cc"/><path d="M322.5,135.51a12.44,12.44,0,0,1,.77,1.71,2.36,2.36,0,0,1,.46-.78,3.39,3.39,0,0,0,.53-1.3l-1.52.24" fill="#50d6cc"/><path d="M329.09,135.29c-.15.39.38,1.69.38,1.69l1-1.69h-1.38" fill="#50d6cc"/><path d="M335.68,135.83l1.15,1.52.54-1.75-1.69.23" fill="#50d6cc"/><path d="M340.51,135.38l1.07,1.67a3.28,3.28,0,0,0,.38-.61c.31-.54.69-1.45.69-1.45l-2.14.39" fill="#50d6cc"/><path d="M327.1,211.6l.77-4.45.45.16-.61,4.44" fill="#50d6cc"/><path d="M326.64,213.44,325,226.62l-.77,1.38-.62.3.47.46-.91,3.36,1.21.31.62-4a10.09,10.09,0,0,0,.91-2.3c.31-1.23,1.38-12.86,1.38-12.86" fill="#50d6cc"/><path d="M311.47,233.35s1.68-.91,2.76-.15-.15,1.23-.76,1.23-2-1.08-2-1.08" fill="#50d6cc"/><path d="M322.35,232.75l.31.45a7.85,7.85,0,0,1-2,.15,3.69,3.69,0,0,1-2.45-.91" fill="#50d6cc"/><path d="M272.71,265.29l-1.23-2.74L267.74,266l1-1-6.89-.68a21.14,21.14,0,0,1,3.9,1.15,12.5,12.5,0,0,1,1.36,1.11l-.29.26,5.91-1.54" fill="#50d6cc"/><path d="M208.05,279.7c1.84.24,5.51-.23,6.2-.69l-.92,3.91-1.38.46-3.9-3.68" fill="#50d6cc"/><path d="M386.63,268.2l.22-.91-4.13-3.44-1.84,2.52,5.75,1.83" fill="#50d6cc"/><path d="M432.83,274l3.44,2.06-.92,1.39L432.59,276l.24,5.52-1.15-4.6-1.39-.69,2.54-2.29" fill="#50d6cc"/><path d="M246.76,278.53a.91.91,0,0,0,1.73.58c.23-.7-.29-1.11-.76-1.46a2.59,2.59,0,0,1-.93-1,1.92,1.92,0,0,1,2.41-2.62,2,2,0,0,1,1.28,2.45l-1.23-.39a.74.74,0,0,0-.5-.92.66.66,0,0,0-.86.47c-.17.47.21.79.55,1.05a4.09,4.09,0,0,1,1.06,1,1.84,1.84,0,0,1,.2,1.7,2.17,2.17,0,0,1-2.77,1.34,2.14,2.14,0,0,1-1.44-2.65l1.26.4" fill="#50d6cc"/><path d="M252.35,275.24l1.2.38-2.11,6.46-1.2-.39,2.11-6.45" fill="#50d6cc"/><path d="M262.4,285.77a2.68,2.68,0,0,1-1.52-1,3.76,3.76,0,0,1-2-.09,3.57,3.57,0,0,1-2.39-4.44,3.43,3.43,0,0,1,1.72-2.09,3.65,3.65,0,0,1,5.17,4.27,3.18,3.18,0,0,1-1.44,1.85,1.61,1.61,0,0,0,.63.4l.19.06-.34,1.07" fill="#50d6cc"/><path d="M266.69,279.8l-1.21,4.06a1.9,1.9,0,0,0-.14.91,1,1,0,0,0,.69.82,1.08,1.08,0,0,0,1-.21,1.84,1.84,0,0,0,.47-.93l1.21-4.05,1.21.36-1.22,4.06a2.67,2.67,0,0,1-1,1.61,2.47,2.47,0,0,1-2,.33,2.52,2.52,0,0,1-1.43-1.29,2.66,2.66,0,0,1,0-2l1.22-4.05,1.2.36" fill="#50d6cc"/><path d="M274.61,282.13l3,.8-.31,1.17-1.95-.51-.4,1.51,1.84.49-.31,1.18-1.85-.49-.4,1.51,1.95.51-.32,1.18-3.16-.84.46-1.7-1.74-.45-1.48,1.42-1.41-.38,6.08-5.4" fill="#50d6cc"/><path d="M279.57,283.34l1.92.41a2.69,2.69,0,0,1,1.61.84,2.18,2.18,0,0,1,.42,1.81,2.42,2.42,0,0,1-.86,1.33,2.19,2.19,0,0,1-1.32.37l1.27,2.84-1.52-.32-1.19-2.92-.54,2.54-1.24-.27,1.45-6.64" fill="#50d6cc"/><path d="M285,284.46l1.24.24-1.21,6.68-1.24-.22,1.21-6.7" fill="#50d6cc"/><path d="M287.91,289.92a.87.87,0,0,0,.82,1,.85.85,0,0,0,1-.73c.1-.74-.48-1-1-1.29a2.66,2.66,0,0,1-1.08-.79,1.91,1.91,0,0,1,1.92-3,2,2,0,0,1,1.69,2.2l-1.29-.19a.74.74,0,0,0-.65-.82.67.67,0,0,0-.77.62c-.08.49.35.75.73.94a4.1,4.1,0,0,1,1.22.8,1.84,1.84,0,0,1,.49,1.64,2.2,2.2,0,0,1-4.37-.56l1.3.19" fill="#50d6cc"/><path d="M295,292.72l.54-6.77,1.59.13a3,3,0,0,1,1.8.5,2.08,2.08,0,0,1,.76,1.78,2.16,2.16,0,0,1-.94,1.66,3.07,3.07,0,0,1-2,.25l-.24,0-.21,2.57-1.25-.1" fill="#50d6cc"/><path d="M301,286.36l3.64.18-.06,1.22-2.39-.12-.07,1.56,2.28.12-.06,1.22-2.28-.12-.09,1.56,2.39.12-.06,1.22-3.65-.19.35-6.78" fill="#50d6cc"/><path d="M306,286.61l1.42,0,2.68,5,.15-5,1.26,0-.21,6.78-1.39,0-2.7-5-.15,4.94-1.26,0,.2-6.79" fill="#50d6cc"/><path d="M313.13,286.79l1.26,0-.13,6.78-1.26,0,.13-6.79" fill="#50d6cc"/><path d="M316,286.85h1.42l2.77,5,.05-5h1.26l-.07,6.79-1.4,0-2.79-5-.06,5-1.26,0,.08-6.79" fill="#50d6cc"/><path d="M323.93,291.81a.91.91,0,0,0,1.82,0c0-.75-.61-1-1.18-1.16a2.49,2.49,0,0,1-1.16-.63,1.9,1.9,0,0,1-.53-1.31,2,2,0,0,1,2-1.92,2,2,0,0,1,2,1.94h-1.3a.73.73,0,0,0-.76-.71.66.66,0,0,0-.67.71c0,.5.44.69.85.84a3.62,3.62,0,0,1,1.31.63,1.81,1.81,0,0,1,.71,1.54,2.2,2.2,0,0,1-4.4.05h1.32" fill="#50d6cc"/><path d="M329.46,286.93l.06,4.23a1.92,1.92,0,0,0,.14.92,1,1,0,0,0,.9.58,1.11,1.11,0,0,0,.85-.5,1.81,1.81,0,0,0,.17-1l-.06-4.23h1.26l.06,4.23a2.73,2.73,0,0,1-.47,1.85,2.46,2.46,0,0,1-1.79.9,2.44,2.44,0,0,1-1.75-.8,2.64,2.64,0,0,1-.58-1.89l-.05-4.24h1.26" fill="#50d6cc"/><path d="M334.37,286.84l1.25,0,.19,5.57,2.08-.07,0,1.22-3.33.12-.23-6.79" fill="#50d6cc"/><path d="M341,286.56l1-.06,3.24,6.61-1.38.08-.83-1.71-2.41.15-.65,1.79-1.38.07,2.43-6.93" fill="#50d6cc"/><path d="M345.72,286.27l1.71-.17,2.3,5,1.35-5.35,1.7-.15.63,6.76-1.25.12-.46-5.07-1.28,5.24-1.07.09-2.22-4.9.48,5.06-1.26.12-.63-6.76" fill="#50d6cc"/><path d="M359.28,284.73l1-.14,3.83,6.31-1.38.2-1-1.63-2.38.35-.49,1.84-1.37.21,1.8-7.14" fill="#50d6cc"/><path d="M364,284l1.69-.32,2.77,4.75.83-5.45,1.68-.32,1.27,6.69-1.23.22-1-5-.76,5.33-1,.21-2.68-4.67.95,5-1.23.25L364,284" fill="#50d6cc"/><path d="M379.13,287.73,379,287a3.14,3.14,0,0,1-1.92,1.39,3.53,3.53,0,0,1-1.67-6.86,3,3,0,0,1,2.33.35l-.18-.75,3.16-.77.3,1.18-2,.48.37,1.52,1.86-.45.29,1.18-1.86.45.38,1.52,1.95-.48.3,1.19-3.17.78" fill="#50d6cc"/><path d="M382,280l1.36-.4,4.12,4L386,278.76l1.21-.36,1.93,6.51-1.34.4-4.14-3.93,1.41,4.74-1.2.36L382,280" fill="#50d6cc"/><path d="M390.87,277.2l.93-.31,4.88,5.52-1.31.44-1.26-1.42-2.28.76-.15,1.91-1.32.45.51-7.35" fill="#50d6cc"/><path d="M395.39,275.66l1.6-.61,3.55,4.2-.12-5.51,1.59-.61,2.42,6.34-1.17.46-1.82-4.76.17,5.39-1,.38-3.45-4.14,1.82,4.76-1.18.44-2.42-6.34" fill="#50d6cc"/><path d="M253.05,300.72c.19-1.08.29-2.39-.88-3.18-1.37-.9-2.69.18-3.53,1.45-1,1.53-1.54,3.38-.12,4.31,1.07.71,2.22.07,3.18-.47l1.18,1.38a4.46,4.46,0,0,1-5.48-.08c-2.51-1.65-3.61-4.26-1.85-6.93s4.59-2.66,6.79-1.22a3.16,3.16,0,0,1,1.36,1.61l.36-.26,1,.69-.39,3.32-1.66-.61" fill="#50d6cc"/><path d="M256.41,308.23l.38.22c.71.4,1.24.65,1.63-.07l2.52-4.43c.4-.7-.08-1-.78-1.43l-.37-.21.58-1,5.89,3.34-.59,1-.37-.21c-.71-.39-1.23-.62-1.63.08l-2.52,4.42c-.39.71.07,1,.78,1.44l.38.22-.59,1-5.89-3.35.58-1" fill="#50d6cc"/><path d="M267.21,314.23l.4.16c.74.33,1.29.52,1.61-.23l2-4.68c.33-.73-.18-1-.93-1.34l-.39-.17.47-1.09,5.94,2.58c2.87,1.24,4,3.3,3.47,4.48s-1.88,1.52-3.35,1.18l.47,2.28a1.83,1.83,0,0,0,1.34,1.63l.53.22-.47,1.09-4.09-1.78-.77-4.44-.68-.28-.68,1.56c-.33.75.15,1,.79,1.29l.42.18-.47,1.08-6.1-2.63.47-1.09" fill="#50d6cc"/><path d="M293.25,318.7c-.15-1.09-.47-2.38-1.83-2.76-1.58-.42-2.49,1-2.9,2.48-.47,1.78-.4,3.69,1.23,4.14,1.26.34,2.14-.63,2.88-1.44l1.55.94A4.45,4.45,0,0,1,289,323.7c-2.9-.79-4.77-2.92-3.93-6s3.52-4,6.06-3.28a3.1,3.1,0,0,1,1.79,1.07l.27-.35,1.2.33.68,3.28-1.78-.05" fill="#50d6cc"/><path d="M306.15,317.53,306,318.7l-.41-.05c-.64-.08-1,0-1,.49l-.61,4.73c-.11,1,.43,1.59,1.61,1.74s1.85-.26,2-1.45l.58-4.56c0-.46-.16-.64-.76-.72l-.68-.09.15-1.17,5.11.66-.15,1.17-.57-.07c-.77-.09-1,0-1.06.49l-.63,4.9c-.27,2.08-2.36,2.32-4.51,2.05-4.1-.53-4.36-2.12-4.15-3.74l.54-4.33c.06-.45-.25-.66-1.05-.76l-.41-.05.15-1.18,6,.77" fill="#50d6cc"/><path d="M316.59,326.62H317c.81,0,1.39-.06,1.38-.87l0-5.11c0-.8-.59-.85-1.4-.84h-.43v-1.19l5.82,0,2.13,5h0l2.05-5.07,5.76-.05v1.18h-.42c-.81,0-1.39.07-1.38.88l0,5.08c0,.82.58.87,1.39.86h.43v1.18l-6.35.05,0-1.17h.49c.79,0,1.13-.12,1.12-.66l0-5.27h0l-2.93,7.13h-1.22l-3.07-7.14h0l.05,5.33c0,.55.34.65,1.13.65H322v1.16l-5.37.05v-1.18" fill="#50d6cc"/><path d="M337.9,324.24l1.42-.72a6.45,6.45,0,0,0,4.43,1.41c1-.15,1.64-.69,1.58-1.08-.09-.58-.69-.72-1.95-.92l-3.37-.56a2.65,2.65,0,0,1-2.39-1.92c-.24-1.54,1.36-3.07,3.58-3.42a5.88,5.88,0,0,1,2.26.11l0-.3,1.25-.2,1.91,2.29-1.44.74a4.67,4.67,0,0,0-3.66-1.37c-.9.14-1.32.61-1.25,1.06s1.08.73,2.11.91l3.19.49c1.4.21,2.24.87,2.4,2,.26,1.62-1.61,3.13-3.94,3.49a6.67,6.67,0,0,1-2.61-.11l0,.35-1.46.24-2.06-2.46" fill="#50d6cc"/><path d="M353.85,323l.42-.12c.79-.21,1.32-.41,1.11-1.2L354,316.79c-.21-.78-.78-.68-1.56-.46l-.42.11-.31-1.14,6.07-1.66c2.53-.7,5.23-.52,5.76,1.4s-2.37,3.3-4.86,4l-.77.21.46,1.64c.21.79.78.7,1.56.48l.68-.2.31,1.15-6.8,1.85-.31-1.13" fill="#50d6cc"/><path d="M370.1,318.21l.4-.14c.76-.29,1.28-.54,1-1.3L369.71,312c-.28-.76-.84-.61-1.59-.33l-.41.15-.41-1.11,6.34-2.36.42,1.11-.41.14c-.76.28-1.28.54-1,1.3l1.78,4.77c.29.76.85.61,1.61.33l.4-.15.41,1.09-6.34,2.38-.41-1.1" fill="#50d6cc"/><path d="M387.26,305.9c-.83-.71-1.92-1.48-3.19-.87-1.47.7-1.22,2.39-.56,3.76.79,1.66,2.1,3.06,3.63,2.33,1.17-.56,1.2-1.88,1.23-3l1.79-.3a4.45,4.45,0,0,1-2.88,4.66c-2.7,1.31-5.51.91-6.89-2s.06-5.32,2.43-6.46a3.16,3.16,0,0,1,2.08-.34l0-.44,1.11-.54,2.65,2-1.37,1.11" fill="#50d6cc"/><path d="M395.77,306.65l.36-.25c.67-.44,1.11-.8.66-1.48L394,300.7c-.46-.67-1-.4-1.64.06L392,301l-.66-1,7.93-5.35,2.94,1.08L401.1,297c-1.61-.69-3.16-.07-4.71,1l-.33.22,1.53,2.26.61-.41c.55-.38.72-.74.38-1.24l-.21-.3,1.38-.93,2.09,3.1-1.37.93-.22-.33c-.31-.46-.64-.66-1.34-.18l-.61.41,1.58,2.34.51-.34c2-1.32,2.6-2.2,2.87-4.24l1.54-.55-.05,3.27-8.32,5.62-.66-1" fill="#50d6cc"/><path d="M270,51.87l4.48-1.56.52,1.5-2.94,1,.67,1.91,2.81-1,.52,1.5-2.81,1,.66,1.92,2.94-1,.52,1.51-4.48,1.55L270,51.87" fill="#50d6cc"/><path d="M286.46,55.89l-2.22-8.55,2-.53a4,4,0,0,1,2.43-.14,2.7,2.7,0,0,1,1.69,1.86,2.85,2.85,0,0,1-.45,2.45,4.15,4.15,0,0,1-2.41,1.18l-.31.07.84,3.24-1.58.42" fill="#50d6cc"/><path d="M291.46,45.53l1.6-.36,1.54,7.08,2.64-.57.33,1.55-4.23.93-1.88-8.64" fill="#50d6cc"/><path d="M299,44l.93,5.44a2.6,2.6,0,0,0,.37,1.15,1.3,1.3,0,0,0,1.27.55,1.36,1.36,0,0,0,1-.81,2.38,2.38,0,0,0,0-1.35l-.92-5.42,1.62-.28.92,5.42a3.55,3.55,0,0,1-.23,2.47,3,3,0,0,1-4.53.86,3.43,3.43,0,0,1-1.11-2.31l-.93-5.44L299,44" fill="#50d6cc"/><path d="M305.81,42.9l2.54-.28a3.51,3.51,0,0,1,2.36.34A3,3,0,0,1,312,45a3.15,3.15,0,0,1-.5,2A2.88,2.88,0,0,1,310,48l2.75,3-2,.22-2.69-3.09.38,3.36-1.62.19-1-8.78" fill="#50d6cc"/><path d="M313.45,42.11l1.63-.12.66,8.81-1.64.12-.65-8.81" fill="#50d6cc"/><path d="M317.54,41.82l1.6,0a5.15,5.15,0,0,1,2.37.26,2.3,2.3,0,0,1,1.3,1.94,1.85,1.85,0,0,1-.91,1.72,2.13,2.13,0,0,1,1.57,2.08,2.54,2.54,0,0,1-1,2.14,4.15,4.15,0,0,1-2.42.66l-2.21.08-.29-8.83" fill="#50d6cc"/><path d="M327,41.68l-.14,5.49a2.46,2.46,0,0,0,.14,1.21,1.29,1.29,0,0,0,1.15.78,1.34,1.34,0,0,0,1.12-.59,2.5,2.5,0,0,0,.28-1.32l.14-5.51,1.64,0-.15,5.51a3.47,3.47,0,0,1-.71,2.38,3.16,3.16,0,0,1-2.37,1.07,3.12,3.12,0,0,1-2.22-1.12,3.38,3.38,0,0,1-.66-2.48l.15-5.51,1.63,0" fill="#50d6cc"/><path d="M334.38,48.36a1.13,1.13,0,0,0,1.14,1.2,1.11,1.11,0,0,0,1.23-1c.08-1-.71-1.33-1.41-1.62a3.21,3.21,0,0,1-1.46-.94,2.53,2.53,0,0,1-.56-1.74,2.59,2.59,0,0,1,5.17.42l-1.68-.14a1,1,0,0,0-.91-1,.86.86,0,0,0-.94.86c-.07.64.51.94,1,1.16a5.12,5.12,0,0,1,1.65.95,2.38,2.38,0,0,1,.76,2.07,2.86,2.86,0,0,1-5.71-.36l1.7.14" fill="#50d6cc"/><path d="M350.41,44l-1,5.41a2.49,2.49,0,0,0-.06,1.21,1.35,1.35,0,0,0,1,1,1.33,1.33,0,0,0,1.2-.4,2.39,2.39,0,0,0,.49-1.27l1-5.41,1.6.32-1,5.4a3.56,3.56,0,0,1-1.09,2.23,3.13,3.13,0,0,1-2.51.68,3.17,3.17,0,0,1-2-1.49,3.34,3.34,0,0,1-.24-2.54l1-5.41,1.61.31" fill="#50d6cc"/><path d="M357.16,45.37l1.78.45,2,7.16,1.58-6.26,1.59.4-2.16,8.56-1.76-.45-2-7.13-1.58,6.22-1.59-.4,2.17-8.55" fill="#50d6cc"/><path d="M368.09,48.31l-1.64,5.27a2.52,2.52,0,0,0-.2,1.18,1.34,1.34,0,0,0,.9,1.07,1.36,1.36,0,0,0,1.25-.27,2.34,2.34,0,0,0,.61-1.19l1.63-5.26,1.57.49-1.63,5.25a3.59,3.59,0,0,1-1.33,2.09,2.93,2.93,0,0,1-4.41-1.3,3.39,3.39,0,0,1,0-2.56l1.63-5.26,1.57.49" fill="#50d6cc"/><path d="M374.62,50.37l2.09.77-.12,7.15,4.59-5.5,2.09.77-3.06,8.29-1.54-.57,2.3-6.21-4.44,5.42-1.3-.48.16-7-2.3,6.21-1.54-.57,3.07-8.28" fill="#50d6cc"/><path d="M286.5,176.88H287c.83,0,1.42-.06,1.42-1.23v-8.5c-1.54.2-2.08,1.06-3.2,2.82l-1.58-.6,1.95-3.91h9l1.82,3.75-1.49.77c-.83-1.36-1.65-2.52-3.3-2.83v8.5c0,1.17.6,1.23,1.42,1.23h.54v1.7h-7.1v-1.7" fill="none" stroke="#50d6cc" stroke-width="0.55"/><path d="M303.06,165.44v1.71h-.42c-.66,0-1,.2-1,.87v6.81c0,1.39.64,2.18,1.86,2.18s1.83-.71,1.83-2.42V168c0-.66-.24-.88-.86-.88h-.7v-1.71h5.26v1.71h-.59c-.79,0-1,.24-1,.88v7.08c0,3-2.1,3.71-4.31,3.71-4.22,0-4.68-2.23-4.68-4.57V168c0-.64-.35-.88-1.17-.88h-.42v-1.71h6.19" fill="none" stroke="#50d6cc" stroke-width="0.55"/><path d="M310.2,176.88h.44c.83,0,1.41-.06,1.41-1.23v-7.27c0-1.16-.58-1.23-1.41-1.23h-.44v-1.69H320l1.87,3.64-1.63.66c-1-2.11-2.63-2.61-4.54-2.61h-.41v3.9H316c.69,0,1-.29,1-1.17v-.53h1.69v5.36H317v-.58c0-.79-.16-1.29-1-1.29h-.75v4h.63c2.42,0,3.45-.51,4.85-2.73l1.62.59-1.91,3.84H310.2v-1.7" fill="none" stroke="#50d6cc" stroke-width="0.55"/><path d="M323.45,176.88h.44c.83,0,1.41-.06,1.41-1.23v-7.27c0-1.16-.58-1.23-1.41-1.23h-.44v-1.69h5c2.74,0,5.79.39,5.82,3.45,0,1.64-1.06,2.7-3.42,2.92v0c2.69,0,4.21,1.51,4.26,3,0,3.49-3.09,3.72-5.72,3.72h-6v-1.69" fill="none" stroke="#50d6cc" stroke-width="0.55"/><path d="M342.55,165.21c3.89,0,5.49,3.38,5.49,6.8s-1.6,6.81-5.49,6.81c-3.07,0-5.48-2.24-5.48-6.81s2.41-6.8,5.48-6.8" fill="none" stroke="#50d6cc" stroke-width="0.55"/><path d="M349.63,176.88h.44c.83,0,1.42-.06,1.42-1.23v-7.27c0-1.16-.59-1.23-1.42-1.23h-.44v-1.69h6.6c3.2,0,5.07,2.06,5.07,3.89a3.42,3.42,0,0,1-2.66,3.45l1.37,2.73c.49,1,.81,1.35,1.91,1.35h.59v1.7H358l-2.51-5.37h-.76v2.44c0,1.17.55,1.23,1.27,1.23h.46v1.69h-6.78v-1.69" fill="none" stroke="#50d6cc" stroke-width="0.55"/><path d="M261.18,283.25a2.11,2.11,0,0,0,1-1.23,2.36,2.36,0,0,0-1.51-3,2.41,2.41,0,0,0-1.84.19,2.26,2.26,0,0,0-1.1,1.25l-.09.36.08,1.09a2.36,2.36,0,0,0,1.66,1.57,1.66,1.66,0,0,0,.8,0l1-.29" fill="#fff"/><path d="M273.46,285.76l.45-1.68-1.46,1.41,1,.27" fill="#fff"/><path d="M280.79,286.91a1.46,1.46,0,0,0,1-.06,1,1,0,0,0,.46-.66.92.92,0,0,0-.19-.81,1.38,1.38,0,0,0-.87-.44l-.68-.14-.43,2,.68.14" fill="#fff"/><path d="M296.81,289.06a3.16,3.16,0,0,0,1,0,.86.86,0,0,0,.68-.78.83.83,0,0,0-.58-.86,3.32,3.32,0,0,0-.94-.12l-.22,0-.15,1.77.24,0" fill="#fff"/><path d="M342.39,290.29l-.84-2-.61,2.11,1.45-.1" fill="#fff"/><path d="M374.09,285.51a2.21,2.21,0,1,0,4.28-1.06,2.26,2.26,0,0,0-2.69-1.72,2.22,2.22,0,0,0-1.59,2.78" fill="#fff"/><path d="M393.25,280.43l-1.35-1.72,0,2.19,1.38-.47" fill="#fff"/><path d="M273.79,312.9c1.14.49,2.56.85,3-.25s-.69-1.84-2-2.43l-.36-.16-1.14,2.63.51.21" fill="#fff"/><path d="M357.62,318l.66-.17c1.12-.31,2.22-.92,1.94-2s-1.84-1-3-.71l-.32.09.74,2.75" fill="#fff"/><path d="M361.05,288.34l-1-1.93-.42,2.14,1.44-.21" fill="#fff"/><path d="M287.09,50.63a4.31,4.31,0,0,0,1.2-.43,1.09,1.09,0,0,0,.5-1.25,1.06,1.06,0,0,0-1.08-.79,4.47,4.47,0,0,0-1.2.23l-.29.07.58,2.24.29-.07" fill="#fff"/><path d="M308.81,46.8a1.9,1.9,0,0,0,1.25-.51,1.35,1.35,0,0,0,.29-1,1.2,1.2,0,0,0-.58-.92,1.76,1.76,0,0,0-1.25-.16l-.9.1.29,2.59.9-.09" fill="#fff"/><path d="M320.1,49a2.33,2.33,0,0,0,1.34-.35,1,1,0,0,0-.22-1.76,2.55,2.55,0,0,0-1.16-.14l-.72,0,.07,2.25.69,0" fill="#fff"/><path d="M319.6,45.15a2.93,2.93,0,0,0,1.11-.16.9.9,0,0,0,.47-.83.84.84,0,0,0-.57-.76,2.78,2.78,0,0,0-1.08,0l-.3,0,.06,1.79h.3" fill="#fff"/><path d="M328.87,170.94a1.84,1.84,0,0,0,2-1.74,1.82,1.82,0,0,0-2.07-1.87h-.3v3.61h.37" fill="none" stroke="#50d6cc" stroke-width="0.55"/><path d="M328.87,176.88c1.69,0,2.61-.78,2.61-1.95,0-1.54-1.56-2.1-2.55-2.1h-.43v4h.37" fill="none" stroke="#50d6cc" stroke-width="0.55"/><path d="M342.55,177c1.58,0,2-2.74,2-4.95s-.39-5-2-5-1.95,2.75-1.95,5S341,177,342.55,177" fill="none" stroke="#50d6cc" stroke-width="0.55"/><path d="M355.25,171.41c1.27,0,2.75-.32,2.75-2s-1.41-2-2.91-2h-.41v4.08h.57" fill="none" stroke="#50d6cc" stroke-width="0.55"/><path d="M213.56,277.18s.92.3.61,2.46-1.22,4.58-3.06,3-3.37-3.67-4.6-4.58-1.53-.92-1.22-3.68,1.53-12.87,0-15.63a14.31,14.31,0,0,1-1.53-8.58c.3-2.76-.92-4,.61-5.51s6.13-5.83,6.13-13.18a24.59,24.59,0,0,0-4.29-13.17s-3.07,2.44-2.45-1.54-1.23-11.95,7-20.52,16.25-13.49,17.78-16.87,3.68-11.63,3.68-11.63l-1.84.91s.3-2.76.61-4a26.69,26.69,0,0,0,.92-6.43c0-2.76-.92-9.82-.92-9.82l-2.14,1.23V146a2.55,2.55,0,0,0-1.23-2.15c-1.23-.61-2.15-1.23-1.84-2.76a10.87,10.87,0,0,0,0-3.37l-2.45,1.53a33,33,0,0,0,1.22-13.17c-.91-6.75-.61-12.56.62-15.63,0,0-8-1.22-9.5-7a15.38,15.38,0,0,1,4.29-2.76c2.75-1.21,7.35-1.21,11.95,2.15l1-.53-7-4.83a26.72,26.72,0,0,1-5.4-4.71s-19.19,2.64-22.52-3.68c0,0,10.57,4.36,12.75-3.91l-6.32-4.24s12.87,6.32,14.36-11.73c0,0,1.61,3.11.46,9s4.6,12.29,4.6,12.29a9.5,9.5,0,0,0,.8-3.9s.81-.7,2.07,4.48c0,0,6.67-3.1,6.09-16.32,0,0,1-2.64,1,.92s.57,8-3.56,15.63a2.59,2.59,0,0,0,.79,3.32c.81.47,1.61.93,1.84-.1a13.77,13.77,0,0,0,0-6.21c-.69-2.42-.11-1.61.46-.92s2.3,1.84,2.3,6.66c0,1.15-.35,2,1.73.47a17,17,0,0,0,4.59-5.63c1.26-2.19,1.72-2.07.69.57s-2.3,5.51-.58,4.48,8.51-5.74,10.46-9.42,2.41-3,1.38-.12-1.26,4.25-3.45,6.33S248,92.87,250.44,92s7.35-2.64,9.19-6.1,3-4.82,2.3-2.4-1.72,4.24-.11,3.9,7.24-2.64,9.76-6.32a20.35,20.35,0,0,1-10.45,11.61c-8.16,3.79-11.38,4.24-11.38,4.24s5.74.47,6.89.81,3,1,.12,1.27-10.69-.24-11.95.23-2.41,1.84-1.15,2.63,7.47,3.8,9.65,5.52a14.9,14.9,0,0,0,5.4,2.76c1.26.34,3.44,1.15,3.68,3.67s.57,2.41-.12,3.46-.57,4-3.56,4.36-4.82,0-5.63.91a5.06,5.06,0,0,0-.92,1.27M211.26,81.7c-.57-2.4,0-4,.46-2.29a6,6,0,0,0,.69,2M252,123.42s4.36,5.06,6.66,7.58,2.76,2.53,3.9,6,2.76,4.13,3.91,5.52,4.59,7.58,4.59,7.58,5.06-1.84,9.66-3.22S291,141.8,293.54,142s3.45.23,4.6,3.91,1.6,5.5,1.6,5.5m-22.52,13.12c-1.15,1.14-3,2.3-3.21,3.45s-.92,4.83-.92,4.83l9.42,3.89M282.36,215c-2.08.35-5.7-1.43-5.14-4.46.69-3.67,1.15-5.05-.22-6.67s-.93-2-.46-7.34,2.07-11.72-1.38-11.95-3.91-.22-4.36,2.29-5.06,11.72-9.2,15.4a111.06,111.06,0,0,0-8.5,8.74s4.82,3.67,1.38,13.32-6,14.25-3.68,20a35,35,0,0,0,7.82,12.42c3.44,3.67,3.68,4.35,6.66,4.59s5.75-.24,6.89,3m-5.29,2.31s0-1.39-3.21-1.84-5.06-1.61-8.51-6.21-3.67-4.82-7.12-6.43-4.83-3-6-4.6-1.38-3.22,0-9.42,3-6-2.52-9.66-8-5.28-8-5.28-4.6,12-12.42,19.08-8.27,5.75-9,13.33-1.61,14.93.46,17.69a16.48,16.48,0,0,0,3.45,3.67m57.91-92.61a23.28,23.28,0,0,1-4.82-1.84c-1.39-.92-2.54-1.15-5.53-.92s-8.73-3.22-8.73-3.22m20.23-5.74s-7.36-2.76-8.51-4.15-4.13-5.05-4.13-5.05M271,149.86s.92,1.14,1.84,5.28,2.07,6,1.84,8.27a13.94,13.94,0,0,1-.69,3.44m-42.52,56.32s1.61-7.12,1.38-11a14.18,14.18,0,0,1,1.61-7.12" fill="none" stroke="#50d6cc" stroke-width="0.55"/><path d="M253.1,211a40.73,40.73,0,0,1-4.37,4.13c-1.15.69-2.07,3.21-6.21,4.36A53.23,53.23,0,0,0,235.4,222M210.8,84.88a15.78,15.78,0,0,1,5.83,4.45s-4,.46-3.22-2.61m13.48,4.14s-1.68,1.53-2.91-.15m8.12,4.13s3.07.46,4.45,1.53,4.74,4.75,4.74,4.75m7.82-9a40.94,40.94,0,0,0-5.06,3c-1.22,1.08-2.45.77-1.83,3.08a7.36,7.36,0,0,0,1.07,2.76m18.84,16.08s-2.45.76-4.28,1.23a7.41,7.41,0,0,0-3.23,1.83,4.73,4.73,0,0,1-2.91.15m104,31.88c.31-4.45,2-9.5,6.44-9.5s4.44.46,7.2,2.3,9.5,5.67,14.55,8.73c0,0,3.83-3.22,4-4.6s2-3.06,3.36-5.05,1.53-2.31,1.69-3.37-1.23-1.53-.92-3.38-.31-1.53,2.3-4.12,8-8.29,8.73-10.13,0-2.13-1.38-1.53-1.53,1.53-2.29,2a4.25,4.25,0,0,1-4.14-.75c-.92-1.08-4.91-1.08-5.52-3.69s-1.22-6.74,3.06-8.74,6.9-1.83,11.81-2.14a6.16,6.16,0,0,0,4.44-2,26.53,26.53,0,0,1,5.21-3.37s-19.16,2.45-27.43-8.11c-1.84-2.31-2.07-4.83,0-2.54s6.9,3.92,6.9,3.92-.69-3.69.46-2.77,6,6.44,20,5.29c.46-3.9-2.3-6.44-13.79-8s-12.18-6.21-13.33-8.26-.69-3.46,1.84-.93,9.65,5.52,9.65,5.52a15.77,15.77,0,0,1-1.37-5.28c0-2.3-.47-3,2.06-.47s7.13,6.67,9.19,6.9,5.29,2.07,3.45-2.52-2.76-9-1.61-12.42,1.39-3.21,1.61.23,3.91,10.11,7.36,6.9,3.9-2.76,5.05-2.07a2.63,2.63,0,0,0,3.9-.91c1.15-1.84,1.84-3,1.84-3s-.23,6.43,6.44.69c2.76,2.31,4.59,2.76,6.2-.92s2.53-1.84,1.38,1.15-9,9.43-14.71,12.64-5.28,5.06-5.28,5.06,5.05-1.83,7.35-3,4.83-2.07,2.53.45-2.07,3.91,1.61,1.39,7.12-5.76,6-3-.24,3.45,2.75.69,1.84-2.07,3.22-3.67,5.51-2.76,2.29,1.6-11,12.65-20.68,13.79c-3.45.23-5.28,2.76-.45,2.76A20.63,20.63,0,0,1,437.4,106s.46,3.91-7.35,6.2c3,12.87,1.37,9.43,0,15.87a50.51,50.51,0,0,0-1.15,11.48l-2.3-.23a42.24,42.24,0,0,0-.22,7.36l-1.84.46s-.69.46,1.84,8.5l-1.84,1.14s-.24,1.39,1.84,5.52c0,0-3.22,5.51-1.84,10.58,0,0-2.76-2.07-1.61,2.3m-.22,0s1.38,8.05,9.88,15.86,13.1,12.86,13.1,18.61c.23,2.54-1.83,2.3-1.83,2.3a96.71,96.71,0,0,1-3.68,9.43c-2.3,5-4.14,6-1.38,13.79s3.45,5.74,2.07,14a94,94,0,0,0-1.61,20c.23,6-.23,4.58-1.6,5.51s-2.76,3.91-3.45,5.29a18.08,18.08,0,0,0-.92,2.07l-1.84-6.67s2.76-2.29,3.45-8.5,2.53-18.84-4.83-29.18-9.88-11.27-9.88-20v-4.13s-10,6.76-12.87,17.24c-1.15,4.14-.23,6.21.23,8.27s1.15,1.61-1.61,5.75c0,0-6.67,7.12-8.51,11s-2.76,8-5.74,8-2-.12-3,1.16l-1.83,2.29-4.6-2.52s.92-1.84,5.06-4.14,10.28-9.94,11.49-17.92c1.84-12.19-3.68-21.15-1.15-28.73s5.51-9.66,5.51-9.66-15.62-9-18.61-13.32-2.07-1.62-2.07-1.62l.23,2.76a23.47,23.47,0,0,1-3.45-7.35c-.91-3.9,0-7.13-3-6.66s-4.6-.47-5.52,4.59-.46,16.32.23,16.55,1.61,3.45-1.61,3.91c.69,4.14.92,9.19-1.84,10.57m1.6-44.35,6-2.53-2.75-2.52m2.75,2.29,6.21-2.07s.23-3.22.92-4.15-.23-1.36,1.38-3,3.44-1.83,5.05-3,2.76-2.07,2.76-2.07" fill="none" stroke="#50d6cc" stroke-width="0.55"/><path d="M384.79,155.83a10.94,10.94,0,0,1,1.15-3.68m1.84-2.53s1.15,2.07,3.21.22m1.84-9.88s.46,1.16,2.53-1.13a35.88,35.88,0,0,0,3-3.69m-20.45,43s11-2.06,14.94-3a32.25,32.25,0,0,1,4.6-.91M420,213.52a12.59,12.59,0,0,0-1.15-6.44m-24.36-84.82a2.64,2.64,0,0,0,3.45-.22c1.6-1.61,3.22-3.67,7.12-2.76m24.9-7.27a8.4,8.4,0,0,0-2.76,0c-2.45.14-4.13.14-4.13.14m-152,14.1c-1.07-17,3.37-43.2,18.23-57.3,12.87-10.88,18.24-5.36,16.86-.16-2,7,2.15,10,7.36,13.79,0,0,4.89-7.34,2-10.1S312.08,70,312.08,70a1.93,1.93,0,0,1-.61-1.53,7,7,0,0,0-2.3.16c-1.38.3-1.53-.92-.91-2.91s2.75-3.67,6.58-2.15a5.22,5.22,0,0,1,5.21-.61c3.83,1.37,7.2,3.06,9.2,8.27s2.44,5.52,3.52,7,4.75,7.19,4.75,7.19,7.73-6.13,3.06-8.88c-6-3.52-7.2-11.79.61-11.34S360.65,69.88,365.71,76s18.69,20.54,14.1,52.24l-2.3-4.75-.62,2.76a13,13,0,0,1-1.68-4.59c-.61-3.07-1.23-6.28-1.23-6.28l-1.22,3.52a17.15,17.15,0,0,1-1.84-6.43l-1.07.45s-2-2.6-3.68-8.57l-1.68,2.45-3.06-3.22-.77,2.3s-2.3.45-4.44-2.76-.46,0-.46,0L354.38,106s-2.15-.77-2.76-2.3l-1.83,1.39-2.3-4-.77,2.45s-2.76-2-3.07-2.91l-.91,3.22-2.3-1.84M271,126.25l2.45-4.9,1.08,1.22,2.29-4.75,1.07.77s3.83-3.67,4.6-6.75.15.47.15.47l.92,1.38s.92.61,1.84-1.07l3.83-7.06s-.46,2.92,1.23,3.53c0,0,2-.61,3.67-3.67l1.22,1.84s2.92-1.23,3.53-2.91l.76,2.44a20.08,20.08,0,0,0,4.45-4.28l1.37,3.06a8.38,8.38,0,0,0,2.91-3.21l3.38,2.44s-1.54,2.16.76,4.9a28.22,28.22,0,0,0,0,5.22s-.3,1.37-.61,2.76a12.38,12.38,0,0,0-.46,4.28c.15,1.69.77,3.22,2.6,3.52s2.45.77,4.45,1.08a11.75,11.75,0,0,0,5.21-.61,3.1,3.1,0,0,0,2.14-3.38,12.53,12.53,0,0,1-.3-3.06c0-2.15-.77-3.83.76-3.83s1.84-.61,2.91,1.83,1.08,1.84,1.08,4.45,0,4.29,1.52,4.6.77.61,3.52.45,3.23-.15,5.06-.3a3.87,3.87,0,0,0,3.52-2.6,5.73,5.73,0,0,0,.16-3.21c-.16-1.23.46.45-.62-2.15a43.44,43.44,0,0,1-2.45-9.19,40.62,40.62,0,0,1-.61-7.36m-66.94,19c.77-1.38,1.38-18.23,5.52-27.27m-2.3,23.89c.61-1.53,1.68-16.24,5.21-21.91m1.07,15c.61-4.29.77-6.9,3.22-12.71m2.91,7.65,1.23-4.44m3.67,4,.93-2.3m82.58,20.37s-.31-6-1.07-10.73a49.1,49.1,0,0,0-1.38-6.58m-1.23,9.5s-.3-4.29-.92-8.12a36.69,36.69,0,0,0-2-7.2m.15,12.11a118.85,118.85,0,0,0-3.21-14m-1.69,6c-.77-2.76-2.76-8-2.76-8m-1.83,6.88-1.84-5.51m-4.3,4.13-1.22-2.76M313.31,82.43l-1.53,6.73,1.53-.44s0,2.14.46,2.44.77.31,1.84.46,1.84,2.16,1.84,2.16l1.06-2.62.92,1.39.31-.61,1.07,2.29,1.54-2.14L324,94.23l1.07-2.29,1.84.91L328,91.31l1.68,1.54.77-2.3,2.3,1.54.46-2.61,2.14,1.83a3.1,3.1,0,0,1-.46-2.13,13.11,13.11,0,0,0,.46-2l1.07-.16a7.44,7.44,0,0,0-.45-2.3,3.48,3.48,0,0,1-.31-1.84" fill="none" stroke="#50d6cc" stroke-width="0.55"/><path d="M311.47,68.34a9.25,9.25,0,0,1,5.06,1.22m-32,20.83c0,1.7-.31,4.15,3.37-.76m-2.3-4.44c0,1.68-.31,4.14,3.37-.77m-.31,6.13c0,1.68-.31,4.14,3.37-.76m1.38-2.61c0,1.68-.31,4.13,3.37-.76m-5.21-2c0,1.69-.3,4.13,3.38-.76m-5.68-5.53c0,1.7-.3,4.15,3.38-.76m-.16,17.47c0,1.7-.3,4.14,3.37-.76m1.84-10c0,1.7-.3,4.14,3.37-.76m-1.38,7.2c0,1.68-.3,4.14,3.38-.76M300.13,97c0,1.68-.31,4.13,3.37-.77M306,92.7c0,1.68-.31,4.14,3.37-.76M293.39,91c0,1.68-.31,4.12,3.37-.77m-12.41-9.2c0,1.7-.3,4.14,3.37-.76M281.13,87c0,1.69-.3,4.13,3.38-.76M290,74.16c0,1.68-.3,4.14,3.37-.77m72.32,17c0,1.7.31,4.15-3.37-.76m2.3-4.44c0,1.68.31,4.14-3.37-.77m.31,6.13c0,1.68.3,4.14-3.38-.76m-1.37-2.61c0,1.68.3,4.13-3.37-.76m5.21-2c0,1.69.3,4.13-3.38-.76M361,78.13c0,1.7.31,4.15-3.37-.76m.15,17.47c0,1.7.31,4.14-3.37-.76m-1.84-10c0,1.7.31,4.14-3.37-.76m1.38,7.2c0,1.68.31,4.14-3.37-.76m2.91,7.2c0,1.68.31,4.13-3.37-.77m-2.45-3.52c0,1.68.31,4.14-3.37-.76M356.83,91c0,1.68.3,4.12-3.37-.77m12.4-9.2c0,1.7.31,4.14-3.37-.76M369.08,87c0,1.69.31,4.13-3.37-.76m-5.52-12.11c0,1.68.31,4.14-3.36-.77M341.2,110.48c3.21,3.21,10.11,6.73,6.59,8a3.42,3.42,0,0,1-2.77-.76c-1.07-1.08.16.44.16.44a1.63,1.63,0,0,1-1.07,1.54M330.17,121c-1.54,0-3.69.17-4.6-3m-8.74,8.19s1.38.53-2.14,2.75-5.82,2.3-5.82,4.29.38,2.07.38,2.07a18.76,18.76,0,0,1,2.14,0,8.45,8.45,0,0,0,2.76.07c.54-.22,1.38.93,2.68.62a13.88,13.88,0,0,0,2.68-1,7.11,7.11,0,0,0,1.08.37c1.15.39.68.31,2.3,0s2.68-.61,2.68-.61,1.91-2.28-.61-3.82-3.61-1.76-4-2.07a4.28,4.28,0,0,1-.84-2.07m14.79.16s1.3,1-1.46,2.6-4.6,1-4.83,3.29c-.19,1.95.39,2.52.39,2.52a19.74,19.74,0,0,1,2.22-.3s.45-.15,1.07-1.3a11.8,11.8,0,0,1,2.45-2.6s.77-.39.23,1.76.84,2.83.84,2.83l1.69-.15s.14-1.38.22-2.14a19.35,19.35,0,0,0,0-2.23s.31-.15,1.07.61a4.22,4.22,0,0,1,1.38,2.31c.46,1.36.39,1.21.69,1.21s1.85-.37,1.85-.37,1.91-2.15.22-3.38-4.36-2.06-5.43-4.43M261.83,61.82s-1.61-3.91-2.53-6-3.45-4.14,2.07-6.44,14.94-3.22,14.25-9.18M257.69,52.86c1.15,2.52,2.07,1.84,5.29.46s10.11-4.6,14.93-6.2m46.66,6c20.23,0,42.06,5,58.61,13.78,0,0,1.61,0,2.76-2.3s1.61-2.52,1.61-2.52,9.19,8,13.78,9.65a24.67,24.67,0,0,1-2.07-9.42l11-3.22c-8-3.67-17.92-9.88-23-15.4S374,36.09,373.06,40.92,371,47.34,371,47.34s-19.3-7.58-46.42-7.58-46.42,7.58-46.42,7.58-1.15-1.6-2.08-6.42-9.19-2.76-14.24,2.75-14.94,11.71-23,15.4l11,3.22a24.67,24.67,0,0,1-2.07,9.42c4.59-1.61,13.78-9.65,13.78-9.65s.46.23,1.61,2.52,2.76,2.3,2.76,2.3c16.55-8.74,38.38-13.78,58.61-13.78Z" fill="none" stroke="#50d6cc" stroke-width="0.55"/><path d="M387.31,61.82s1.62-3.91,2.54-6,3.44-4.14-2.07-6.44-14.95-3.22-14.25-9.18m17.92,12.63c-1.15,2.52-2.06,1.84-5.29.46s-10.1-4.6-14.93-6.2M321,128.87l13.67-.24m4-.09,4.25-.06v3.21M340.65,135l-3.09,0m-2.42.05-3.91.08m-2.4,0-4.6.08m-13-4.36v-1.84l3.33-.06m1.5-1.36a26.4,26.4,0,0,1-2.76-1.22,10.27,10.27,0,0,0-2.6-.76,5.1,5.1,0,0,0,.05-.87,1.69,1.69,0,0,0,.15-.68,1.55,1.55,0,0,0-.47-1.13,6.47,6.47,0,0,0-1-1.77c-1.69-2.14-2.3-2-5.36-2.76a22.21,22.21,0,0,1-5.21-2s-.61,2.14,2.6,3.37a63,63,0,0,1,6.59,3.07s-.31,1.22-2.45,1.07a6,6,0,0,1-1.28-.21,1.51,1.51,0,0,0,.11-.56,1.58,1.58,0,0,0-3.07-.55,13.45,13.45,0,0,1-2.5-1.59,13.16,13.16,0,0,0-7.35-2.91s1.22.92,3.21,2.45c.71.54,1.5,1.18,2.25,1.78a1.58,1.58,0,0,0-1.54,1.58,2.21,2.21,0,0,0,0,.35,5.67,5.67,0,0,1-2.25-1.12,1.59,1.59,0,0,0-2.88-1.19l-1.44-.17a22.26,22.26,0,0,0-4.9,0,4.85,4.85,0,0,0,1.84,1.07c1.07.31,2.44,0,2.75,1.37a3.48,3.48,0,0,1,0,1.64.55.55,0,0,0-.18,0,1.68,1.68,0,0,0,.07-.44,1.59,1.59,0,0,0-3.18,0,1.38,1.38,0,0,0,.11.55,1.66,1.66,0,0,0-.66-.14,1.59,1.59,0,1,0,1.58,1.58,1.37,1.37,0,0,0-.1-.54,1.86,1.86,0,0,0,.66.14l.32,0a1.48,1.48,0,0,0-.07.42,1.59,1.59,0,0,0,1.45,1.58c-.11.67-.57.6-1.85,1.34a60.47,60.47,0,0,0-5.36,4s2.6-.77,4.44-1.22,3.37-.93,4-2.62a12.25,12.25,0,0,1,2.14-3.36,6,6,0,0,1,.59-.44,1.24,1.24,0,0,0,0,.27,1.59,1.59,0,1,0,3.18,0,1.36,1.36,0,0,0-.09-.48c.54.25.95.49.95.49a5.75,5.75,0,0,1-1.38,4,34.86,34.86,0,0,1-4.75,3.52s3.22.46,5.06-.92,1.68-2.14,2.6-3.83,1.68-2,1.68-2,.32,0,.85,0a1.56,1.56,0,0,0-.13.64,1.59,1.59,0,0,0,1.58,1.59,1.16,1.16,0,0,0,.33,0,4.63,4.63,0,0,1-.63.44,21.06,21.06,0,0,0-4.3,3.68s1.54,1.07,4.14-1.07,3.22-3.52,4.6-4.14a5.25,5.25,0,0,1,3.07-.15,6.18,6.18,0,0,1-3.22,3.52,17.26,17.26,0,0,0-4.6,3.84,10.28,10.28,0,0,0,3.68-1.08c1.68-.91,3.67-2.14,3.67-2.14m3.07-15.34-1.84-1.22a8.35,8.35,0,0,0,1.23,4.45m31.89,11.46,8.59-2.09.21.74,2.55-2.12-3.28-.4.19.68-8.53,2.06m.32,3.58,12.11,2.89-.15.76,3.24-.74-2.75-1.84-.13.7-12.05-2.89m0,0,15.68-.17.05.7,2.95-1.52L359,131.41l0,.75-15.62.19M324.8,256.56s-26-7-32.17-8.52-5.73-4.32-5.73-7.57V185.1h75.8v55.37c0,3.25.46,6-5.72,7.57s-32.17,8.52-32.17,8.52M318.6,271s7.12-2.38,5-6.35,0-4.6,1.54-4.6" fill="none" stroke="#50d6cc" stroke-width="0.55"/><path d="M310.71,265.29s1.53-5.58,5.21-3.13,3.37,3.76.29,6.52m26.14-4.83.23-2.92c7.35.61,11.64,0,18.07-4-12.25,4-19.3-.62-19.3-.62s13.48-3.68,18.39-4.89,8-2.46,8-8.89V180.65c0-19.6,7.35-17.46,7.35-17.46l-8-12.87c-20.23,7.05-24.52-5.83-42-5.83s-21.75,12.88-42,5.83l-8,12.87s7.35-2.14,7.35,17.46v61.91c0,6.43,3.06,7.66,8,8.89s18.38,4.89,18.38,4.89-7.05,4.59-19.31.62c6.44,4,10.73,4.59,18.08,4l.31,3.15m25.75,4.21c-3.07-2.76-3.07-3.67.61-6.13s5.06,2.76,5.06,2.76M325.11,260c1.53,0,3.67.62,1.53,4.6s4.44,6.21,4.44,6.21M287,221.09a8.32,8.32,0,0,1,5.51,1.39c2.46,1.53,3.22,2.14,4.91,2.44s1.67,0,3.52.77.91.93,2.91.76,3.52-.61,4.75-.15,3.52,1.08,3.52,1.08m9.51,2.61a10,10,0,0,0,2.75.76c2.3.46.46-.46,3.07,0s2.3.77,4.28,1.52a27.74,27.74,0,0,0,3.23,1.08s1.52.16-2.46.92a47.66,47.66,0,0,0-6.89,1.84,110.1,110.1,0,0,1-11.95,1.54c-4.91.45-7.66.3-11.65.91s-6,.15-8.58.62-6.58,1.07-6.58,1.07m75.53-13.78H321m-3.62,0h-1.55m-3.45,0h-3.58m2.66,6.88c1.23-.6,1.84-.76,2.91.16,0,0,.92-4.28,1.07-5.21s1.84-5.52,1.84-5.52.16,1.84.3,4.91-.45,4.43,1.53,4.9a6.06,6.06,0,0,0,3.23,0s-1.23-.32-1.23-2.45-.77-10.12-.92-11a20,20,0,0,1-.15-2.46l.61-2.44a14,14,0,0,0,2.76,0c1.53-.16,2.14-.77,2.75-.77a4.53,4.53,0,0,0,1.39-.31l.3-1.06a28.29,28.29,0,0,0-3.67-.31,9.78,9.78,0,0,1-3.23-.62,2.6,2.6,0,0,1-.45-1.38,5.17,5.17,0,0,0-1.53-2.29,2.34,2.34,0,0,0,.61-1.53c0-.92.76-1.38.15-2.46s-.91-1.84-2.45-1.37-1.53.31-2.14,1.84-.31,1.37-.16,2.14a1.21,1.21,0,0,1-.15,1.08s-.92-.93-1.37-.17a6.71,6.71,0,0,1-.93,1.23l-1.68.15-.46-1.68a8.68,8.68,0,0,1-.46-1.68c-.16-.92-.77-3.38-.77-3.38l-1.07-1.22a5.53,5.53,0,0,0-.45,2,11.23,11.23,0,0,1,.76,3.2v3.84a1.91,1.91,0,0,0,1.53,1.84,20.66,20.66,0,0,0,3.37.3s.46.61.61,3.21a14.3,14.3,0,0,0,.16,2.16c.15,1.38-.16.76-.46,3.52a65.71,65.71,0,0,1-1.38,7.34C311.93,229.06,311.47,233.35,311.47,233.35Zm3.83-4.9,2.3.78M304,269c5.75,4.6,8.16,4.26,14.6,13-3-7.81-3.68-9.65-7.82-13.1,6.9,4.83,9,4.83,14,12.87-11.26-33.55-57-15.62-69.18-10.57,15.86-3.68,27.81,1.15,34,8.74,0,0-2.76-7.36-5.52-10.57,10.57,6.43,10.34,5.74,15.86,11.72,0,0-3.9-9.43-4.6-11.27,8.28,2.3,14.48,11.72,14.48,11.72A74.09,74.09,0,0,0,304,269Zm41.6,0c-5.74,4.6-8.16,4.26-14.59,13,3-7.81,3.67-9.65,7.81-13.1-6.89,4.83-9,4.83-14,12.87,11.27-33.55,57-15.62,69.18-10.57-15.86-3.68-27.81,1.15-34,8.74,0,0,2.76-7.36,5.51-10.57-10.57,6.43-10.34,5.74-15.86,11.72,0,0,3.91-9.43,4.6-11.27-8.27,2.3-14.48,11.72-14.48,11.72A74.09,74.09,0,0,1,345.6,269Zm86.45,8.78c-8.27-6.44-11.33-15.63-32.78-7.66-26.36,9.79-42.9,13.79-74.47,13.18-31.56.61-48.11-3.37-74.46-13.18s-27.27,1.83-35.54,8.28m218.79,3.67c-8.89-4-11.95-7.36-24.51-2.14s-29.73,16.54-84.28,16.85c-54.55-.3-75.08-11.34-87.64-16.55s-15.63-1.83-24.51,2.15" fill="none" stroke="#50d6cc" stroke-width="0.55"/><path d="M405.09,281.47c-15.63,12.56-36.77,32.64-80.29,31.4-43.52,1.24-68-18.53-83.66-31.1m191.22,0C406,306,380.88,330.65,324.8,331.26c-57.61-.3-84.58-25-110.93-49.18m97.6-213.74a9.25,9.25,0,0,1,5.06,1.22" fill="none" stroke="#50d6cc" stroke-width="0.55"/><line x1="21.87" y1="234.54" x2="21.87" y2="237.04" fill="none" stroke="#a3a3a3" stroke-linecap="round" stroke-linejoin="round"/><line x1="21.87" y1="242.12" x2="21.87" y2="361.47" fill="none" stroke="#a3a3a3" stroke-linecap="round" stroke-linejoin="round" stroke-dasharray="5.08 5.08"/><polyline points="21.87 364.01 21.87 366.51 24.37 366.51" fill="none" stroke="#a3a3a3" stroke-linecap="round" stroke-linejoin="round"/><line x1="27.22" y1="366.51" x2="31.51" y2="366.51" fill="none" stroke="#a3a3a3" stroke-linecap="round" stroke-linejoin="round" stroke-dasharray="2.86 2.86"/><line x1="32.93" y1="366.51" x2="35.43" y2="366.51" fill="none" stroke="#a3a3a3" stroke-linecap="round" stroke-linejoin="round"/><line x1="35.43" y1="2.74" x2="32.93" y2="2.74" fill="none" stroke="#a3a3a3" stroke-linecap="round" stroke-linejoin="round"/><line x1="30.08" y1="2.74" x2="25.79" y2="2.74" fill="none" stroke="#a3a3a3" stroke-linecap="round" stroke-linejoin="round" stroke-dasharray="2.86 2.86"/><polyline points="24.37 2.74 21.87 2.74 21.87 5.24" fill="none" stroke="#a3a3a3" stroke-linecap="round" stroke-linejoin="round"/><line x1="21.87" y1="10.13" x2="21.87" y2="164.2" fill="none" stroke="#a3a3a3" stroke-linecap="round" stroke-linejoin="round" stroke-dasharray="4.89 4.89"/><line x1="21.87" y1="166.65" x2="21.87" y2="169.15" fill="none" stroke="#a3a3a3" stroke-linecap="round" stroke-linejoin="round"/><line x1="358.79" y1="392.52" x2="361.29" y2="392.52" fill="none" stroke="#a3a3a3" stroke-linecap="round" stroke-linejoin="round"/><line x1="366.27" y1="392.52" x2="593.01" y2="392.52" fill="none" stroke="#a3a3a3" stroke-linecap="round" stroke-linejoin="round" stroke-dasharray="4.98 4.98"/><polyline points="595.5 392.52 598 392.52 598 390.02" fill="none" stroke="#a3a3a3" stroke-linecap="round" stroke-linejoin="round"/><line x1="598" y1="387.16" x2="598" y2="382.88" fill="none" stroke="#a3a3a3" stroke-linecap="round" stroke-linejoin="round" stroke-dasharray="2.86 2.86"/><line x1="598" y1="381.45" x2="598" y2="378.95" fill="none" stroke="#a3a3a3" stroke-linecap="round" stroke-linejoin="round"/><line x1="49.48" y1="378.95" x2="49.48" y2="381.45" fill="none" stroke="#a3a3a3" stroke-linecap="round" stroke-linejoin="round"/><line x1="49.48" y1="384.31" x2="49.48" y2="388.59" fill="none" stroke="#a3a3a3" stroke-linecap="round" stroke-linejoin="round" stroke-dasharray="2.86 2.86"/><polyline points="49.48 390.02 49.48 392.52 51.98 392.52" fill="none" stroke="#a3a3a3" stroke-linecap="round" stroke-linejoin="round"/><line x1="56.93" y1="392.52" x2="282.48" y2="392.52" fill="none" stroke="#a3a3a3" stroke-linecap="round" stroke-linejoin="round" stroke-dasharray="4.96 4.96"/><line x1="284.96" y1="392.52" x2="287.46" y2="392.52" fill="none" stroke="#a3a3a3" stroke-linecap="round" stroke-linejoin="round"/><path d="M6.05,208.85l-.42-.35a4.6,4.6,0,0,0,.81-2.6l.16-1.15H5.22c-1.06,0-2.25,0-2.92,0l0,0L2,203.57l0-.06,5.41-6.77,0,0,1.69-.49.06,0c-.16.89-.32,1.91-.44,2.81l-.62,4.44h.37c.67,0,.94-.1,1.18-.33l.23.16L9.2,204.8l0,0L8,204.75l-.23,1.63c-.12.9-.11,1-.51,1.43A15.06,15.06,0,0,1,6.05,208.85Zm.73-5.34.47-3.45c.13-.88.23-1.83.3-2.47-2.81,3.57-4,5.13-4.42,5.85.66,0,1.38.07,2.16.07Z" fill="#727272"/><path d="M15.78,209.6l-1.18-1.26L16,198.1H14.61l.11-.72h1.42l.17-1.26a3.89,3.89,0,0,1,1.45-2.78c.9-1,1.22-1.22,2.21-1.22H21.1l0,0-.23.62c-.17.46-.25.53-.42.53s-.75,0-1.21,0c-1,0-1.27.39-1.45,1.6l-.35,2.51h2.21v.72H17.35l-.77,5.54c-.23,1.59-.43,3.29-.55,4.52l.51.78v0Z" fill="#727272"/><path d="M22.59,204.91c-2.17,0-3-.87-2.74-2.83l.23-1.66a3.77,3.77,0,0,1,1.91-2.8,3.4,3.4,0,0,1,2-.6c1.36,0,2.05.64,2.05,1.81a8.67,8.67,0,0,1-.26,1.76l-1.27.69H21.25l-.07.5c-.23,1.63.49,2.16,2.08,2.16a4.55,4.55,0,0,0,2.62-.85h0v.21A3.7,3.7,0,0,1,22.59,204.91Zm-1.24-4.39h3.24a7.76,7.76,0,0,0,.19-1.41c0-.83-.49-1.26-1.57-1.26s-1.56.59-1.72,1.7Z" fill="#727272"/><path d="M29.92,204.91c-2.18,0-3-.87-2.75-2.83l.23-1.66a3.8,3.8,0,0,1,1.91-2.8,3.43,3.43,0,0,1,2-.6c1.36,0,2,.64,2,1.81a8.8,8.8,0,0,1-.27,1.76l-1.27.69H28.57l-.07.5c-.23,1.63.5,2.16,2.09,2.16a4.52,4.52,0,0,0,2.61-.85h0v.21A3.68,3.68,0,0,1,29.92,204.91Zm-1.24-4.39h3.23a7.89,7.89,0,0,0,.2-1.41c0-.83-.5-1.26-1.58-1.26s-1.55.59-1.71,1.7Z" fill="#727272"/><path d="M36.94,204.88c-1.42,0-2-.54-1.82-1.88l.74-4.9H34.44l.11-.72H36l.34-2.25,1.32-.19h0l-.37,2.43h2.37v.72H37.2l-.72,4.72c-.11.71.17,1,1.25,1a3.37,3.37,0,0,0,1.45-.35h0l0,.16A3,3,0,0,1,36.94,204.88Z" fill="#727272"/><path d="M308.59,397.77c-1.81,0-2.78-1-2.48-3.25l.19-1.45a8.38,8.38,0,0,1,2.07-5A5.76,5.76,0,0,1,311.8,386l.06,0,.12.78c.06.33,0,.4-.28.49-1,.34-2.07.25-2.81,1.12-.43.49-.62.86-.94,3a3.47,3.47,0,0,1,2.55-1,2.12,2.12,0,0,1,2.26,2.6l-.16,1.17a3.61,3.61,0,0,1-1.77,2.87A4.22,4.22,0,0,1,308.59,397.77Zm.77-.92c1.24,0,1.54-.49,1.76-1.94l.19-1.38c.23-1.59-.32-2.16-1.56-2.16a2.15,2.15,0,0,0-1.92.87l-.29,2C307.3,396,308,396.85,309.36,396.85Z" fill="#727272"/><path d="M318.62,402.46l-1.19-1.26L318.86,391h-1.41l.11-.72H319l.18-1.26a3.82,3.82,0,0,1,1.45-2.78c.9-.95,1.22-1.21,2.21-1.21h1.13l0,0-.23.62c-.18.46-.25.53-.43.53s-.74,0-1.2,0c-1,0-1.27.39-1.45,1.6l-.35,2.51h2.21V391h-2.32l-.78,5.54c-.23,1.59-.42,3.29-.55,4.53l.52.77v0Z" fill="#727272"/><path d="M325.43,397.77c-2.18,0-3-.86-2.74-2.83l.23-1.66a3.74,3.74,0,0,1,1.91-2.79,3.34,3.34,0,0,1,2-.61c1.36,0,2,.64,2,1.81a9,9,0,0,1-.27,1.77l-1.27.69h-3.22l-.07.49c-.23,1.63.5,2.16,2.09,2.16a4.58,4.58,0,0,0,2.62-.85h0v.21A3.68,3.68,0,0,1,325.43,397.77Zm-1.24-4.38h3.24a9,9,0,0,0,.19-1.42c0-.83-.5-1.26-1.57-1.26s-1.56.59-1.72,1.7Z" fill="#727272"/><path d="M332.75,397.77c-2.18,0-3-.86-2.74-2.83l.23-1.66a3.74,3.74,0,0,1,1.91-2.79,3.34,3.34,0,0,1,2-.61c1.36,0,2.05.64,2.05,1.81a8.85,8.85,0,0,1-.26,1.77l-1.28.69h-3.21l-.07.49c-.23,1.63.49,2.16,2.08,2.16A4.55,4.55,0,0,0,336,396h0v.21A3.7,3.7,0,0,1,332.75,397.77Zm-1.24-4.38h3.24a9,9,0,0,0,.19-1.42c0-.83-.49-1.26-1.57-1.26s-1.56.59-1.72,1.7Z" fill="#727272"/><path d="M339.77,397.74c-1.41,0-2-.54-1.82-1.88l.74-4.9h-1.41l.11-.72h1.43l.33-2.25,1.33-.19h0l-.38,2.43h2.37V391H340l-.73,4.72c-.1.71.18,1,1.26,1a3.4,3.4,0,0,0,1.45-.35h0l0,.16A3,3,0,0,1,339.77,397.74Z" fill="#727272"/></svg>