<svg xmlns="http://www.w3.org/2000/svg" width="120" height="300" viewBox="0 0 120 300"><title>flag-virginia-icon-virtus</title><path d="M118.52,241.39c-2.23-1.64-1.12-4.06-3.35-5.77-1-.94-2.68.17-3.62-1-1.73-3.11-4.48-5.34-7.15-7.66,0-.35.08-.7.13-1v0a2.91,2.91,0,0,1,.33-1.81c.4-1.88.93-3.68,1.28-5.75,3.27-8.19,4.82-18.42,5.16-27.05.09-4-.85-7.83-.94-11.88,1.38-4.48.6-9.64.6-14.29,1.21-4-2-6.46-3.27-9.57a37.91,37.91,0,0,1-3.27-5.16c1.12-2.59,0-5.16.34-7.92l2.67-4.65c.61-4.74,2.93-9.91,3.36-15,1.55-6,1-12.84-3.7-17.05.77-11.28,4-24.19,5.85-35.84-.43-2.66.35-5.5-1.2-7.56-.69-2.76-3.62-2.15-5.43-2.51a11.37,11.37,0,0,0-4.3,6.65c-1.09,7-2.1,13.89-3.12,20.82l-.8-.42A1.35,1.35,0,0,1,98,86c-1.47-2.59-2.07-5.6-3.88-8a27.09,27.09,0,0,0-13.35-9.48c-3-2.77-6.72-2.41-10.42-3.61l.35-2L71,60.67a3.88,3.88,0,0,0,4.14-2.54c.43-.78-.6-1.9-.17-2.52V55.2a7.4,7.4,0,0,1,1.3-4.65A6.59,6.59,0,0,1,74.71,46l1.55-.45c1.36-1,2.66-1.79,2.58-3.7-.78-3.1-3.71-5.58-5.26-8-.52-1-2.24-1.9-1.55-3a76.5,76.5,0,0,1-5.6-8.94,8.82,8.82,0,0,0-8.52-3.11c-2.33.78-4.66.25-6.29,2.16.17.07.43-.1.6.16-3,3.28-6.71,5.68-7.14,10.07-1,5.94.34,12.32,6,15.86,1.29.08.68,1.55,1.29,2.32a3.23,3.23,0,0,0-1.56,2.31A4.15,4.15,0,0,0,51.27,55c2,.43,1.73,3,3.53,3.88.36,1.8-.94,3.09-2.14,4.21-2.67,2.42-5.95.78-9.31,1.73-5.85-1.39-8.86,4.21-13.17,6.8-2.67,1.37-4.9,2.76-7.58,4.13-.7-7.39-.05-16.22,0-24l1.22-3.07a7.53,7.53,0,0,0,1.26-1.1c.95-1.9-.34-4-1.29-5.6,1.81-.95,0-2.85.17-4.06,0-.67-1.62-.75-.6-1.54-.07-.34.17-.85-.35-1,.09-.6-.08-.77.18-1.29-.68-2.57-3.87-2.57-6.2-3.11-1.8.88-2.06,3.29-2.75,5-.94,1.83-3.19,2.6-3.1,4.92.17,5.34-.43,10.76-5,13.53C6.07,60.19,3.4,65,2.63,70.26,0,76.28,1.24,83.35,1.84,89c.27,2.59,2.25,4.14,4.48,4.82,1.3.61,2.85.17,4.22-.17,1.21.17,2.41-1.37,3.87-1-.68,11.79-1.11,24.9-2.06,37.21.52,13.42-.43,26.78-.77,39.69.09,8.1-1.29,17.4-1.55,26l-.19,1.36c1,6.81-.43,13.36-.78,20.67-1,2.43-.15,5.58-.49,8.26a.8.8,0,0,1,.09.36c0,.87,0,1.75.05,2.62h0l.11,1.78a92.78,92.78,0,0,0-.17,18.26c-.51,1.28.17,3.36.61,4.65-1.81.59-2.76,2.57-4.48,3.6-2.75,4.06.43,8.46.94,12.5A3.57,3.57,0,0,0,6,270.84c2.07,3.1,1.18,7.46,3.84,10.51h.7c2.58-2.91,3.1-7.14,4.9-10.67.07,0,.88-1.8,1.15-2.31a22.86,22.86,0,0,0,1.74-5.83c-.1-1.34-.22-2.67-.19-4a4.53,4.53,0,0,0-1.2-2.88,1.5,1.5,0,0,1-1-.84h0c-.78-.1-.52-.86-.78-1.39.17-.86-.6-3.18.43-4.14-.26-1.88.43-4-.77-6.09.69-7.77.43-15.26,1.37-23.26l.06,0a2.58,2.58,0,0,1,0-.48h0a106.62,106.62,0,0,0,1-24.63l-.34-.34.32-5.23a.78.78,0,0,1-.08-.35c0-.56,0-1.12.07-1.68a.39.39,0,0,1-.15,0c.7-8.52,1.81-15.49,2.07-23.24.34-11,.43-24,1.63-35.05-.17-13.7,1.64-26.37,1.46-39.11.18-1.64,2.25-1,3.19-1.81,2.74-.94,5.82-1.12,8.17-2.55h-.27c.33-.14.65-.3,1-.45a6.49,6.49,0,0,1-.7.46l1.73,0a102.72,102.72,0,0,0-1.37,13.35c1,1.55,2.93,1.82,3.87,3.36a3.56,3.56,0,0,1-.86,2.06c-.77-.69-.51-2.23-1.46-2.84l-.26.34c.6,1.37-.08,3.35.6,4.82,2.68,1.3,1.64,4.75,4.48,5.43,2.16.86,3.79-.78,5.17-2.06l.43.52A2.31,2.31,0,0,0,47,112v0l-1.13,2.88a7.14,7.14,0,0,1-1.12,1.88c-2,5.84-6.2,11.28-6.46,17.47-1,2.24-1.2,4.84-1.55,7.33a70.62,70.62,0,0,1-.52,10.16c.52,13-2.57,24-4.3,36.43l-.11-.07a3.73,3.73,0,0,1-.32.84c.07,3.32-1.7,6.19-1.11,9.29,2.41,2.59,6.2,2.86,9.47,2.67,1.72,3.88,4.56,7.41,4.3,12a75.59,75.59,0,0,0,.62,11.46l.14,1.65a47.1,47.1,0,0,1,.18,6.53c.34,7.49,5.42,13,7.15,19.89.09,2.23-1.81,3.79-.78,5.85.16,1.59-1.13,3.17-1.74,4.82a.76.76,0,0,1-.11.34h0l0,.09h0a11.36,11.36,0,0,1-1.39,2c-.58.91-1.28,2-.74,2.78.86.52.09,1.28.6,1.72l-.12,0a7.22,7.22,0,0,1,.29.82c.46.4.85,1.37,1.56,1.37,1.2,0,2.15.76,2.93-.43,1.2.34,2.66,1.29,3.87.24a6.93,6.93,0,0,0,2.82.36c.62-.08,1-.9,1.44-1.53h0c1.21-1.75-.88-4.14.42-5.46h0l.11,0a3,3,0,0,1,1-1.15,3.63,3.63,0,0,0,.22-2.72c-2.59-2,.43-4.48-.77-7l.28-.28c-.14-.84-.32-1.67-.5-2.51-.12-.27-.24-.54-.39-.82a1.63,1.63,0,0,0,.11-.42,29.16,29.16,0,0,1-1.14-9,27.42,27.42,0,0,1-.14-5,.69.69,0,0,1,0-.36c.08-.69.11-1.38.19-2.07,0-1.26,1.36-2.41,1-3.77a14.07,14.07,0,0,0,1.37-5c.6-6.88-3-14.11-1-21.18a12.14,12.14,0,0,0,7.22-1.89l.17.17a21.69,21.69,0,0,1,4-1.2,10.2,10.2,0,0,0,4.31-.17c3.35-4.82,10.08-4.48,12.14-10.42,2-2.42.86-6,4.48-7.24,0,.68.51,1.2.77,1.81h0c-.6,4.65-3.27,9.13-2.49,14.12,2.55,7.56,2.11,15.11,1.77,22.37,0,0,0,0,0,.07,0,.72,0,1.44,0,2.16s0,1.3.09,1.93c.52,4.15-3.88,8.45.16,11.89,4,1.47,9,2.5,12.06,6.2,1.55.35,3.45.79,4.22,2.5,1.64.78,2.76,1.28,4.48.35-.17-1.47,1.89-.35,2.5-1.56C117.58,243.88,119.13,243,118.52,241.39ZM15.32,75.49c-1.91-5.33-.14-10.28.72-15.38l.54,1.73C16.44,66.41,15.91,70.64,15.32,75.49ZM45.4,204.43a30.25,30.25,0,0,1-.76,3.79c-.87-2.42-2.67-4.74-3.62-7.14,1.89-.36,3.44,1.2,5.25,1.37h0Zm48.5-84.75c-.37,3.06-1.19,6.43-1.57,9.61h0l-1.42-1.11c.23-.7.2-1.62.66-2.13a9.2,9.2,0,0,0-3.7-8.52c-.78-1.9,1-3.62.61-5.43-1.55-1.12-.87-3.27-1.12-4.82-.67-2.57-2.9-1.25-4.62-1.73l.46-3c1.25-2.75,2.3-5.58,3.3-8.48,1.86,4.29,4.8,8.3,7.63,12.13l1.56,2.38C95.11,112.29,94.52,116,93.9,119.68Z" stroke="#000" stroke-miterlimit="10"/><path d="M47.22,203.14A20.11,20.11,0,0,0,47,198l4.49-1.29c2.58.77,5.14-.35,7.55.94-.69.76-.43,2-1.38,2.67.17.27.17.69.61.95.86-.88,1.37-3.2,1.71-3,.6,3.87.08,8.08-.16,12,.51,6.28,3.52,13.17.59,19.37-3.78,8.51.6,19,.6,28.07-1.63,2.41,3.36,5.59-.6,7.23-1.28,1.73.52,3.62-.26,5.35.09,1.45-1.54.35-2.23.86l-4.13-.1c-.44-.69.17-1.28-.78-1.54-.6.44-.09.85-.52,1.54a7.36,7.36,0,0,0-2.32-.34c-.26-.76,2.59-1.89.52-2.31l-1.55,1.89c-.27-.09-.27-.78,0-1.3,0-.69,1.28-1.12.6-1.8-.6-.27-.78.42-1.21.78V268h-.17c.17-2.4,2.67-3.86,3.27-6.45,2.07-1.89-.34-4.39,1.2-6.37l.35-2c.86.94-.6,2.57,1.2,2.33,0-6.56-5.85-10.95-7-17.06-2.15-5.77-1-11.63-2.15-17.41-.42-5.16-.68-10.24.78-15.16l1.2-2.74" fill="#fff"/><path d="M69.81,62.75c.06,2.24-1,4.27-1.49,6.38,1.38-.52,1.12-2.5,2-3.53,1.12-.09,2,.6,3.1.6,3.62-.08,6,2.83,9.22,4,7.47,1.94,12.8,9.73,14.83,16.83l1.14,2.13c-.86,5.83-1.7,11.65-2.61,17.51l-.87,0C90.28,100.9,88,94,83.83,87.9c-.18,2.06,2,3.78,2.32,5.68-1.2,2.93-2.5,6-3.7,9l-1.31,1.8c-2.44-2-5.33-2.72-7.74-4.73C65.22,88.77,57.73,77.9,49.12,67.15c-.52-.69.25-1.21-.35-1.74,2.42-.68,4.39-1.19,6.2-3.43,1.12,1,1.73,2.75,3.44,2.94.35-3.55-1.28-7.43,1-10.69.78-1.37-1.2-1.56-1.81-2.32-1-2.33,2.16,0,2.59-1.38a22.84,22.84,0,0,0,1.82-3l.24-2.78c2.06-1.29,4.82-1.21,7.23-1.21-1.64.7-2.85,1.9-4.73,1.39C66,46.13,67.53,48.21,69.51,48v-.18c-.59-1.28,1-2.57,1.91-3.09-.61-.44-1,.26-1.55.52-.43-.69.42-1.55.94-2.16,1.64-.34,3.44-.78,4.91.27A1,1,0,0,1,76,44l-2.28,1.55a8.5,8.5,0,0,0,1.72,5.17,2.46,2.46,0,0,1-2.15.77c-.34-.34-.78-.52-.78-.94-.25,0-.52-.09-.68.17-.18.59.51.77.77,1.21.51.07,1.12.68,1.46.17.17,0,.44-.1.6.17-.08,1.37-1.89,1.37-2.67,1.81l.52.52c.44-.08,1,.07,1.38-.18,1,1.2-1.12,1.2-1.38,2,.52.42,1.55-.26,2,.69.09.42-.17.68-.17,1-1.89,4-6.11.26-9.3.78-1.12-.44-2.75-.86-3.1-2.32-.26.16-.08.59-.26.77.26.94,1.64,1.38,2.41,2.06a29.92,29.92,0,0,1,5.12,1l.59,2.34" fill="#fff"/><path d="M61.5,45.84c-.71,1.11-1.12,2.39-2.61,2.44-2.41.69-6.29-.07-7.23,3.28a3.26,3.26,0,0,0,0,3.09l.6.44c-.08-1.2-.95-2.15.17-3.36-1.2,2.85,2.5,4.12,3.1,6.45a2.09,2.09,0,0,1,.77,2.51c-.51,1.2.69,2.49,1.39,3.53-.43-3.36-.52-7.25,1-10.51-.52-.52-1.64-.77-2-1.73-.09-.69-.52-1.45.34-1.79a7.15,7.15,0,0,0,2.32.08c1-.91,1.4-2.2,2.22-3.12l-.12-1.31" fill="#fff"/><path d="M22.11,48.67l-.56-.6c-2.25,2-2.68,4.91-5,6.89l.6,9.08v3.4H17c-1.55,19.72-2.59,38.4-3.19,57.87C13,133,13.27,142.12,13,149.6c.34,6.63-.78,13.36-.52,19.74.34,8.77-2.32,20.74-1.38,30.82.09,10.85-2.06,22.48-1.71,32.29v11.12a25.41,25.41,0,0,0,4.38.17l.43-.61c.26-8.7.69-16.7,1.38-24.63a113.72,113.72,0,0,0,1-21.7l-.43-.7c0-9.2,1.63-18.5,2.15-27.37.35-5.17.52-13.7.43-20.5.69-9.91,1.9-19.74,1.38-29.63l.34-.43c.43-9,1-20.4,1.21-28.68,1-10-.51-17.22.17-26.35.39-3.41-.06-8,.35-12l0-2.44" fill="#fff"/><path d="M101,131.63c2.31-8.59,3.76-15.94,5.69-24.86A14.37,14.37,0,0,1,111,115.2c.34,8.18-3.35,15.25-4.47,23.08-3.62,2.58-2.16,7.23-2.5,10.85-.18.6-.69,1-.43,1.73-1.47,3-4.74,2.06-7.15,2.92-1.73,3.89-5.86,3.7-9.13,4-.86-.41-.34-1.37-.52-2.06.69-1.81,2.5-.17,3.44-1.71.43-3.27,5-5.77,2.59-9.3-.26-.43-.6.17-.86.17l.09.18a50,50,0,0,1-5.26,5.76c-1-4.32,2.59-7.33,5.6-9.82l.17.17c.6-.76,1.55-.76,2.33-1.2a9,9,0,0,0,5-6.53l1.23-1.85" fill="#fff"/><path d="M100.46,131.45c5.68-19,6.42-38,11.27-57.23a25.6,25.6,0,0,0-.17-11.11c-.61-2-2.67-2.52-4.48-2.67-1.3,0-2,1.2-2.67,2.14C101.48,68,102,75,100.45,80.75c-1.64,15.33-4.66,30.83-7,46.17a7.44,7.44,0,0,0-.56,2.32l-.07,1-1.66,1c-2,1.21-4.32,1.05-6.75,1.05a7.76,7.76,0,0,0,.18,4c2.35,1.88,5.61-1.37,6.92,2l.52,2,.13-.13s-.17.44.94,0c2.94-1.26,5.47-3.25,6.14-6.41l1.2-2.13" fill="#fff"/><path d="M91.61,129.93l-1.51-1.65c.56-1.87,1.35-4,.52-6.1-1.28-2.92-5.67-4.65-2.75-8.1.77-1.54-.86-2.66-1.89-3.53a112.92,112.92,0,0,1-10.68-3.86c-3.19-1.54-7.84-3.45-7.76-7.92-.51-3.19-2.58-6-3.44-9.3l.34-.34C60,81.55,54.11,74.91,48.77,67.58c-.26-.42-1-1.15-.86-1.59a21.88,21.88,0,0,0-9.46.05l-.52.44c.52,8.85-1.82,16.7-2.76,25.31.26,2.74-2.24,7.22,1.55,8.69a10.23,10.23,0,0,1,1.72,1l.25-.43c1.72-11.37,1.47-22.57,2.85-33.85,0-.17.25-.08.43-.08l.34.25c-1.29,10.25-1.2,21.11-2.5,32-.43,2.07-.52,4.3-2.66,5.6-.35.09-.69-.43-1,.19.35,2.13,2.67,3.42,3.1,5.5.87.77,1.82,1.72,3,1.11,1-.77,2.67-1.81,2.76-3.26,1.12-.34-.09-1.12-.18-1.73-3.7-3.19-1.64-8.35-1.55-12.65l.35-.35c1,3.7-1.8,8.86,1.38,12.14,1,.68.77,2,2,2.4,1.89.7,4.05.1,6.2.54.35.24.17.59.17.93-2.23-1-4.73-.08-7.15-.77-.6.43.17,1.2.52,1.64,1.38,1.8,3.27,1.11,5.08,1.28.17.44.52.78.17,1.2-1-.76-2.51-.56-3.84-.75l-1.84,2.89c-1,2.63-2.74,5.13-3.62,7.78-3.88,7-5.43,15.32-5.25,23.25-.61,6.2-.78,13.25-1.12,19.29-1,7.4-2.68,15.32-3.53,22.56-.42,3.53-1.89,6.19-1.54,9.81,3.27,3,7.57-.5,11-.34,4.47,0,8.6-3.09,13-1.72,7.58,1.9,15.34-1.2,22.66-3.19,3.52-1.55,7.75-3.34,9.73-7s3.36-7.67,5.25-11.36c.35-3.53-.35-8.2,2.33-11.11,2.49-3.7,7.32-1.56,10.85-1.3,1.38.17,2.58,1.38,3.61,2.15,1.13-5.16-3.87-8.7-5.59-13.18-.6.17-.26.61-.52.95-1.9,3.7-7.14.35-8.53,4.65-2.22,1.9-5.42,1.72-8.35,1.9a3.73,3.73,0,0,1-.59-3.11A2.65,2.65,0,0,1,88,154a1.29,1.29,0,0,0,1.55-.51c.44-2.74,3.88-4.82,2.76-7.58a51.64,51.64,0,0,1-5.42,5.87c-.52.41-1.12-.18-1.12-.79-1-4.46,2.61-7.69,5.41-10.11l-.48-2.13a10.24,10.24,0,0,0-1.31-1.53c-1.64.34-3.45.68-5,0a6.34,6.34,0,0,1-.59-5.43c2.14-.42,5.24.35,7.14-1.2l.63-.61" fill="#fff"/><path d="M32.68,85.74l.56-.23"/><path d="M35.41,84.07c.69-4.35,1.45-8.71,1.9-13.39L37.14,67c-.77-.07-1.46,1-2.32,1.55-3.79,2.93-7.63,5.7-11.95,7.14l-.34-.34v1.09a86.35,86.35,0,0,1,0,11.6l.06.4c3.28-1.62,6.75-1.86,10.09-3.11l2.73-1.23" fill="#fff"/><path d="M64.62,20.9c2.41,3.27,3.78,7,6.46,10.08-3.45-2.16-7.41.16-10.69,1.29-4.56,2.67-4.12,7.75-6.62,11.44,0,.35-.09.69.25.95,2.76-3.44,2-8.43,6.12-11.19l.09.16c.6-1.11,1.89-.93,2.84-1.7a8.56,8.56,0,0,1,7.92.16c2.24,3.7,6.89,6.46,7,11.11l-1.29,1.3a1.85,1.85,0,0,0-1-2.16c-3.7-1.12-6.63.86-10.59.42-1.38,1.05-3.62.44-4.48,2.33-1.64-.35-2,1.63-3.44,2.15-1.3.53-2.77.69-4,1.3-1.62-4.14-6.88-5.78-7.31-10.42A16.68,16.68,0,0,1,53,21.06c.43-.51,1.21-.16,1.55-.95L54.36,20c3.11-.35,7.59-1.55,10.26.95" fill="#fff"/><path d="M22.15,33.63c-1.46-.16-4-.67-5.16,1a7.13,7.13,0,0,1-3.7,3.89c.51.78,1.12.25,1.72.17,2.58-1.12,2.75-6,6.63-4.3-.34,1.29,1.29,1,.95,2.32-2.24.86-5,1.38-7,3.09-.17.19-.43.36-.43.61.95,1.39,1.46-.95,2.41-.95a48.14,48.14,0,0,1,5.17-1.72c.43,1.22,1,2.52.6,3.88a9.93,9.93,0,0,0-4.47.69c1.55,1.29,4.47-.87,5.08,1.64a4.83,4.83,0,0,1,.34,3.09l-1.38,1.12c-.69-.68-1.46-1.47-2.33-.95-2.23,1.9-2.66,4.65-4.56,6.38-1.2.09-2.5-1.46-3.7-1.12a4.08,4.08,0,0,0,2.93,2.24c.51,3-.78,6.46-1.21,9.74C12.43,69.72,15.35,75,13.89,80.4c.17.35.43.17.6.17.69-.85.35-2.15.69-3.27.09,4.57-.86,9.73-.95,14.13a11.38,11.38,0,0,1-7.31,1.72c-1.38-.61-2.84-1.12-3.7-2.67A90,90,0,0,1,1.84,78.77C2.7,70.24,6,63,6.92,54.4c4.74-2.93,5.51-9,5-13.79.43-1.12.43-3.26,2.15-2.92,1.72-1.9,1.29-4.91,3.53-6.2,1.54.68,3.61.26,4.55,2.14" fill="#fff"/><path d="M69.09,45.45c.09.24-.17.42-.34.59,0-.25,0-.69.34-.59" fill="#fff"/><path d="M59,47.26h-.43a6,6,0,0,1,1.64-1.73c.34.77-.61,1.29-1.21,1.73" fill="#fff"/><path d="M68.15,47l-1-1h.69l.26,1" fill="#fff"/><path d="M74.69,101.85c3.71.78,5.94,5.26,10.34,4.48.78.08,1.12.77,1.55,1.37v2.15h-.43v-.07c-5.43-2.42-11.46-3.19-16.11-7.15-2.07-4.22-2.75-9-5.17-13,2.85,4,5.6,8.79,9.82,12.23" fill="#fff"/><path d="M109.74,165.84c.52,5.09,1,10-.51,14.48.35,2.75,1.21,5.5,1.12,8.36a81.82,81.82,0,0,1-4.66,28.15c-.59,3.7-3.26,8.45-1.54,12.31.43.17.43-.34.6-.51a.45.45,0,0,1-.17-.25l.17-.19c4,1.82,4.74,8,9.65,7.92a14.84,14.84,0,0,1,1.81,2.94,4.51,4.51,0,0,0-2.58,0c.42,1.12,2.14,1,3.18,1.73,1,.16.69,1.2,1,1.8a21.08,21.08,0,0,0-2-1c-.34.87-1.11-.51-1.28.61.69.51,1.28,1.54,2.32,1.38.07.34.35.51.51.77-.34.52-.94.6-1.37.77H116c-.09-1-1.47-1.72-2.16-2.67-.77-.69-1.12-1.46-2.32-1.37-.09,1,1,2.32,2.07,2.93.77-.17.77.76,1.2,1.11-.43.26-.86-.17-1.2-.43l-.52-.51.17-.17a10.43,10.43,0,0,1-1.38-.43c-.34,1.29,1.73,1.54,1.81,2.93-3.45,1-3.53-4-7-3.28-3.18-3.7-7.66-4.65-11.88-6a4,4,0,0,1-1.54-2.52c.6-3.34,1.88-7.22,1.79-11.26.18,0,0-.6-.08-.79.52-8.18.6-16.61-1.89-25-.17-4.14,2-8,2.67-12.22,0,0-.17-1.73-.69-1.73-.77-.68.35-1.63-.25-2.48-1.46-2.59.25-6.13-1-8.63a13.25,13.25,0,0,1,1.38-8.26A12.31,12.31,0,0,1,98.73,162c4,.61,9.21-.42,11,3.88" fill="#fff"/><path d="M91.4,183.67c-1.81,1.81-1.63,4.48-2.92,6.55-1.73,3.11-4.31,5.94-7.93,6.46l-4,3.61c-5.68-1.11-9.21,3.11-14.55,2.93-.17.09-.26.44-.43.34-1-2,.07-3.87-.71-5.76A93.46,93.46,0,0,0,74,195.32s6.25-2.31,8.84-3.7,5.75-3.49,6.27-6.42c0,0,2.6-5.69,4-8.6-.69,2.23,2.42,6.55-1.72,7.07" fill="#fff"/><path d="M46.44,201.5c-2.15-.25-3.87-2.06-6.2-1.37-1.46-.61-3.87-.1-4.91-.44,3.36,0,6.34-1.45,10-1.45l.86-.09" fill="#fff"/><path d="M14.23,244.3a9.51,9.51,0,0,1,.33,4.48c-.6,1.3-2.82.17-4,.34a6,6,0,0,0-1.2-.51c.17-1.2-.35-3.09-.17-4.48a12,12,0,0,0,5,.17" fill="#fff"/><path d="M13.46,250.08c1.29,1.37-.26,4.56,2.15,5.86a9.56,9.56,0,0,0,.95.94c2.84,8.61-3.36,15.16-5.43,22.91-.6.17,0,.86-.6.78-1.2-1.38-1.55-3.36-2.07-5.26-1.38-4.47-2.58-9.31-4-14a6.08,6.08,0,0,1,2.06-5c.95-.42,1.81-1.8,3.1-2,1.55-1.28-.34-3.18-.17-4.65,1.38,0,2.67.69,4.05.35" fill="#fff"/><path d="M62.46,71.79c-1.12-.59-1.72.44-2.66-.34l-2.33-1.88c-1.12-.27-2.67-.69-3.53-.27,2.24,0,4,1.56,5.68,2.76C60.48,72.23,61.78,72.57,62.46,71.79Z"/><path d="M72,72.57a21.41,21.41,0,0,1,9.31-1.46l.17-.78-1.38-.08c-2.32.42-4.91.17-6.8,1.54-1.55.78-3.45-.34-4.83.27C69.52,72.91,70.65,72.4,72,72.57Z"/><path d="M64,71.62c.61.27,1.73.86,2.16,0a10.16,10.16,0,0,1-2.5-.76C63.24,71.11,63.85,71.36,64,71.62Z"/><path d="M80.39,88.55c1.18,2.79,2.2,5.85,1.39,7.57-.6,1.29-3.24,1.84-4.3,2.82,2.06.38,4.4-1.19,5.15-2.28s.5-3.73-.43-6.68l-1-1.82Z"/><path d="M80.26,94.4h0c-.43-.78-1.47-.61-2-.34.26.44,0,1.2.78,1.37C79.4,95.26,80.86,95.34,80.26,94.4Z"/><path d="M94.33,130.19c-.43.18-1.29-.6-1.21.35,1.9.76,4.23.34,6.21.93a1.63,1.63,0,0,0-.18-.76C97.69,129.93,95.88,131.06,94.33,130.19Z"/><path d="M97.35,149.13c-2.68.27-3.45,3.11-4.57,4.92a5,5,0,0,1-2.41,1.71c-.78.78-2.07.44-3,1a1.28,1.28,0,0,0,.34.59c1.12-.25,2.15,0,3.27-.77,3.54-1.12,2.93-5.68,6.46-6.79h0Z"/><path d="M96.57,170.33h0c-.08-.7.69-1.29.43-2-1.29,1.12-1.46,3.18-1.12,5,.43.85.52,2.24,1.55,2.39C96.92,174.11,95.88,172.22,96.57,170.33Z"/><path d="M104.93,168.51h0Z"/><path d="M104.92,168.52c-1.46.43-.6,2.16-.6,3.36.34.78,1,1.88,1.81,1.54C105.1,172.06,104.33,170.16,104.92,168.52Z"/><path d="M47.05,123.81l-.26.35c-.43,7.06-2.93,13.45-2.15,20.76a8.34,8.34,0,0,0,.86,3.7l.34-.25C44,140.79,46.62,131.82,47.05,123.81Z"/><path d="M63.5,103.57c2.33,4.57,7.92,4.4,10.85,8.19.25-.26.17-.78.17-1.13-2.5-2.32-5.6-3.35-8.35-5.08-4.39-5.24-5.35-12.14-7.58-18.17-2.67-3.53-4.05-7.57-6.72-11.11h0c-1-1.3-1.72-3.18-3.1-3.87,1.29,2.42,3,5.09,4.48,7.41C58.68,87,59.62,95.83,63.5,103.57Z"/><path d="M46.19,94.27c3.7.52,5.34,4.74,7.22,7.41,2.15,4.14,7.06,2.84,10.43,4.65l.77-.34c-.77-.86-2.5-.69-3.62-1.38-4.48.43-7.4-3.71-9.29-7.14-1.46-3.27-5-2.86-7-5.69h0C42.66,87,44.29,82,44,76.71l-.43.59C43.77,82.75,41.27,90.14,46.19,94.27Z"/><path d="M59.19,110c2.33,2.24,5.6.18,8.18.78,1.3.34,1.47,1.81,2.15,2.49v-1.2c-1.46-3.61-5.51-.95-8.18-1.71v0C60.57,110.21,59.79,109.26,59.19,110Z"/><path d="M81.93,115.48a11.76,11.76,0,0,0-4.48-2.16c-.35.76.6.42.78.93,5.25.86,4.81,7.32,9.3,9.3.86,1,1.89,2.52,1.29,3.89a.43.43,0,0,0-.34-.18v.35a1,1,0,0,0,1.11-.17c.52-1.39-.34-2.6-.77-3.7-3.71-1.83-4.22-5.69-6.89-8.26Z"/><path d="M51.44,119.51c.09,2.84-1.46,5.33-1.12,7.93a27.43,27.43,0,0,0,1.38-13.7h-.26Z"/><path d="M67.12,179.63c-1.21-5.25.6-11.2-1.56-16.28-2.41-3.78-6.11-7.49-5.6-12.24a70,70,0,0,0-3.61-24.8c.6-2,.17-4.55.95-6.36.68,3.1.34,6.28,1.11,8.86,1.12,7.24,2.76,14.31,7,20.32.6.78-.17,2.42,1.21,2.6l1.11,6.36h.77c-.08-1.2-.6-1.89-.34-3.09.43,1.29,1.3,2.49.94,3.87.36.44.52,1.71,1.39,1.12a25.29,25.29,0,0,0-1.55-5.25c-2.5-3.63-1.55-8.2-2-12.41h-.17a17.55,17.55,0,0,0-.35,5.09l-.25.35a16.76,16.76,0,0,1-.61-3.46c-.85-2.66-.77-5.33-1.89-7.75l-.34.34c.34,3.11,1.29,6.46,1.55,9.56-1.3-2.05-2.07-4.3-3.36-6.35C59.8,132.6,58.07,125.19,57.9,117h-.43c0,.24.09.59-.17.78l-.6-3.88h-.43a36.11,36.11,0,0,1-.7,11.36c1,7.84,4.66,15.68,3.45,23.26-.43,5.24,2,10.5,5.6,14.71,2.84,4.83.34,10,1.55,15.16,1.12,3.11.43,8,4.82,8.71l.26-.76C67.54,186.36,68.24,181.78,67.12,179.63Z"/><path d="M80.12,125.11h.26c.34-2.25,1.29-4.23,1.89-6.38h-.43C80.81,120.71,79.86,123.05,80.12,125.11Z"/><path d="M84.25,122.79c-.85.17-.42,1-.6,1.71.18.88-1,2.59.35,3.11A31.1,31.1,0,0,0,84.25,122.79Z"/><path d="M72.2,131.74c1.28-.27,2.92-1.12,3.27-2.5l-2.84,1.9c-1.55.77-2.84-.52-3.71-1.72-.17-.61-.25-1.57-1-1.72.18,1.2.27,2.33,1.3,3.09A3.39,3.39,0,0,0,72.2,131.74Z"/><path d="M72.2,159c0-2.5-.86-5.16-.34-7.31.77.77-.09,1.8.16,2.49.35.17.52.52.78,0-.17-3.79.86-7.14,1.55-10.5,1.9-4.05,5.43-6,7.58-9.91a51.59,51.59,0,0,0-7.75,8.35C72.89,145,73,148.62,72,151.45l-.24-.95c.16-3.42,1.27-7.14,2-10.23l-.18-.16a28.9,28.9,0,0,0-2,6.53,37.84,37.84,0,0,0,0,12.83c1,5.42-.17,10.33.94,15.51.69,1,.86,3.18,2.33,2.84C70.22,171.37,74.69,166,72.2,159Z"/><path d="M78.74,148.62h.43a27.52,27.52,0,0,1,5.08-9.3l-.08-.09C81.5,141.47,78.92,145.1,78.74,148.62Z"/><path d="M88.48,141.82l-.44-.44c-2.5.19-3.53,2.51-5,4.13l.18.19c-2,3.61-4.3,7.06-5.42,11-.87,2-1,4.65-1.73,6.37.35.69-.68,1.55.35,1.8l.25-.25c-.17-.52.52-1.13-.17-1.29l.52-.26c.78-7.06,4.82-13.52,8.7-19.73a7,7,0,0,1,2.76-1.54Z"/><path d="M40.59,146.64l-.52-.94c-.51,1.64.43,3.26.52,5,.17,9.29-.35,15.33-.52,25l.52.54c.6-3,.09-6.38.43-9.66l.34-.42a20.4,20.4,0,0,1,.61,3.26c-1.12,7.5-.43,14.3-.18,21.79.26.17.43-.09.61-.25.08-6.82-.78-15.33.17-22.23C41,161.19,42,154,40.59,146.64Z"/><path d="M53.94,172.05a158.51,158.51,0,0,1-2.5-24.8h0c-.25-.35-.09-1.22-.77-1.05,0,5.17.52,9.39.77,14,1,6.38,2.07,13.62,2.92,20.15l.44-.07a20.44,20.44,0,0,0-.26-4.06C54.36,175,54.2,173.25,53.94,172.05Z"/><path d="M83,157.93c-2.92,4.73-1.8,11.36-6.62,15.07v.42c4.82-2.57,4.64-8.17,6-12.4,0-1.29,1.29-2.5,1.55-3.35C83.74,157.49,83.4,157.84,83,157.93Z"/><polygon points="91.14 159.48 91.14 159.47 91.14 159.47 91.14 159.48"/><path d="M89.42,170.66c.77-2.92.35-5.58,1-8.86a13.71,13.71,0,0,0,.77-2.32c-2.92,2.84-1.55,7.58-2.32,11.37C89.07,170.93,89.16,170.66,89.42,170.66Z"/><path d="M50.92,188.32c-1.29-4.48-3.62-9.64-4-14.56-.52-.41.43-1.88-.77-1.71-.44,6.19,2.75,11.18,4.3,16.78Z"/><path d="M51.1,199.18A44.15,44.15,0,0,1,54,204.34h.34c0-1.89-1.8-3.35-2.49-5.16Z"/><path d="M49.55,205.56a19.06,19.06,0,0,0,2.49,3.1c.26-.09.09-.44.18-.61C51.27,207.18,50.92,205.29,49.55,205.56Z"/><polygon points="58.24 205.98 58.24 205.98 58.25 205.98 58.24 205.98"/><path d="M56.35,209.08c.17.34.43.17.69.17.17-1.12,1.46-2.07,1.21-3.27C57,206.41,56.86,208.05,56.35,209.08Z"/><path d="M12.94,258.86c-.35,1.56-.43,3.71-1.63,5-.61-2.67-1.47-5.45-1.9-7.93-.17-.17,0-.7-.43-.43-.69,3,1.63,5.59,1.38,8.36.09.59.77.59,1.2.76,1.73-1.38,1.73-4,1.9-5.95C13.38,259,13.11,258.86,12.94,258.86Z"/><path d="M95.88,229.4c-.26-.6.09-2-.78-1.8,0,1.12-.08,3,1.3,4,.34.09.86.59,1,0A3.33,3.33,0,0,1,95.88,229.4Z"/><path d="M113.71,236.9v.43c.51-.07,1,.86,1.29.17C114.83,237,114.31,236.82,113.71,236.9Z"/><path d="M107.14,61.55h0v0Z"/><path d="M105.9,61.39h0v0Z"/><path d="M105.91,64.8c.21-1.17,1.36-2.73,0-3.4.3,1.71-.78,3.45-2,4.61C104.57,66.48,105.44,65.52,105.91,64.8Z"/><path d="M107.15,61.55c.56,1.65-.24,3.53-1.29,4.88.77.35,1.47-.74,1.83-1.52C107.71,63.72,108.6,62,107.15,61.55Z"/><path d="M110.59,62.12v0h0Z"/><path d="M110.58,62.14c-1.46.43-.6,2.16-.6,3.35.34.78,1,1.89,1.81,1.54C110.76,65.67,110,63.77,110.58,62.14Z"/><path d="M109.64,62v0h0Z"/><path d="M109.63,62c-1.51.14-1,2-1.23,3.17.19.84.65,2,1.48,1.86C109.13,65.52,108.74,63.51,109.63,62Z"/></svg>