<svg xmlns="http://www.w3.org/2000/svg" width="559.09" height="300"><path d="M0 0h559.09v300H0z" fill="#ef3340" fill-rule="evenodd"/><path d="M13.64 13.64h531.81v272.72H13.64z" fill="#00205b" fill-rule="evenodd"/><path d="M279.7 69.35s-49.42 36.77-49.42 80.13 49.42 81.17 49.42 81.17 49.11-34.69 49.11-81.17-49.11-80.13-49.11-80.13z" fill="#ef3340" fill-rule="evenodd"/><path d="M279.69 78.25s-44 32.71-44 71.28 44 72.22 44 72.22 43.68-30.86 43.68-72.22-43.68-71.28-43.68-71.28z" fill="#0072ce" fill-rule="evenodd"/><path d="M321.44 164.69a8.59 8.59 0 01-1.61.82 21.8 21.8 0 01-2.4.72 50.84 50.84 0 01-6.37 1c-2.41.25-5 .41-7.77.52s-5.54.15-8.29.16c-5.52 0-10.8-.14-14.71-.29s-6.45-.3-6.45-.3l-2.26 5.76 47.16.06a70.32 70.32 0 002.7-8.44z" fill="#382e2c" fill-rule="evenodd"/><path d="M318.74 173.13l-78-.1c11.56 27.78 38.92 48.72 38.92 48.72s27.85-19.66 39.08-48.62z" fill="#00205b" fill-rule="evenodd"/><path d="M249.07 188.48A13.35 13.35 0 01255 190c3.28 1.72 5.18 1.71 8.72 1.76 3.7.06 6.6 2.78 10.6 2.89 7.37.21 10.46 3.86 4.73 3.86-2.7 0-8.5-1.82-11.3-1.44-4.26.44-6.73.76-9.88 3.27a128.43 128.43 0 01-8.8-11.86zm14.57 18.36c1.83-1.25 3.09-2.22 4.86-2.28 3.45-.1 4.62-2.23 8.6-2.23 4.53.83 10.66-.54 14.25-1.34 6.37-1.47 3.35-5.92-.51-7.54-3.12-1.33-9-.07-12.59-1.39-2.74-1.07-.48-2.78 1-3.14s3.08.22 4.94.52a47.54 47.54 0 0010.37-.47c6-.92 5.76-2.68 8.65-2.72a9.23 9.23 0 005.17-1.76c1.7-1.13 3.46-3.45 5.51-3.36l1.21.05c-12.67 24.49-35.41 40.57-35.41 40.57a146.85 146.85 0 01-16.05-14.91z" fill="#fce300" fill-rule="evenodd"/><path d="M292.76 188.9c.79 3 1.62 4.07 4.81 4.85s8-2.28 5-5.25c-2.84-2.77-5.84-3.48-8.38-6a56.68 56.68 0 01-11.94-19.65c-2.82-8.37-2.33-31.92-2.2-43.84 0-.14.34-.22.38-.28.18-.26.36.08.07-1.66-.07-.45-.43-.92-.43-1.37 0-.81-2.79.88-3.53 2.33-.17.33.54 1.27.54 1.45.09 11.44-1.14 34 1.9 44.27 1.88 6.33 5.31 11.22 8.42 15.74 1.85 2.93 4.6 6.06 5.36 9.41z" fill="#382e2c" fill-rule="evenodd"/><path d="M257.92 155.4h-.31a6.07 6.07 0 01-2.77-1.1 5.48 5.48 0 01-2-3.68 10.49 10.49 0 010-2 6.43 6.43 0 011.29-3.09 5.51 5.51 0 01.78-.75 5.27 5.27 0 011.93-.89 6.86 6.86 0 013.59.1 4 4 0 012 1.38 5.29 5.29 0 01.79 1.81.44.44 0 01-.27.51c-.07 0-.4.13-.75.22-.69.19-.79.19-.94.06s-.14-.15-.23-.43a4.26 4.26 0 00-.23-.53 1.65 1.65 0 00-.36-.53 1.55 1.55 0 00-.52-.36 3.5 3.5 0 00-2-.29 3.4 3.4 0 00-1.54.58 4 4 0 00-1.26 3.36c.06 2 .92 3.13 2.68 3.48a4.89 4.89 0 001.43 0 5.68 5.68 0 001.73-.68l.16-.09v-1.29h-2.77l-.09-.06a.71.71 0 01-.15-.15c-.06-.09-.06-.1-.06-.86s0-.76.06-.85l.15-.15.09-.06h4.76l.09.06a1.17 1.17 0 01.15.16l.06.11v2c0 2.1 0 2.19-.12 2.34a4.52 4.52 0 01-.36.3 7.48 7.48 0 01-3.55 1.46 11.82 11.82 0 01-1.46-.09zM270.36 155.5a4.44 4.44 0 01-2.87-1.12 4.27 4.27 0 01-1.16-2.83v-3.85a23.69 23.69 0 01.06-3.54.65.65 0 01.15-.18l.09-.07H268.39a.56.56 0 01.18.16l.06.1v3.56c0 3.13 0 3.58.06 3.83a1.79 1.79 0 00.5 1.19 2 2 0 001.52.54 3.22 3.22 0 001.57-.26c.46-.22.68-.58.83-1.4a29.52 29.52 0 00.09-3.87c0-4 0-3.64.22-3.8l.1-.08h.85c1 0 .92 0 1.07.2l.08.1v3.19a36.49 36.49 0 01-.1 4.47 3.81 3.81 0 01-1.43 2.73 3.46 3.46 0 01-.66.42 4.36 4.36 0 01-1.43.42 10.89 10.89 0 01-1.54.09zM281.5 155.33a.56.56 0 01-.18-.13.4.4 0 01-.13-.42c.05-.2 4.08-10.59 4.14-10.67s.17-.18 1.11-.18 1 0 1.11.18 1 2.47 2.22 5.38c1.88 4.63 2.15 5.31 2.15 5.43a.42.42 0 01-.2.37c-.09.06-.09.06-1 .06h-.94l-.11-.08c-.13-.1-.13-.09-.74-1.69-.27-.72-.51-1.34-.53-1.37s-.14-.05-1.89-.05a8.17 8.17 0 00-1.89 0l-.53 1.45c-.28.76-.53 1.43-.56 1.48a1 1 0 01-.14.15c-.09.06-.1.06-.94.06zm6-5.32c0-.12-1-2.79-1.07-2.85s-1.07 2.86-1.09 2.89.5 0 1.11 0h1.12zM296.07 155.32a.52.52 0 01-.28-.3V144.21l.07-.1c.15-.19.14-.19 1.43-.18h1.25a.64.64 0 01.15.13s.63 1.81 1.33 3.92 1.29 3.83 1.3 3.83.6-1.71 1.32-3.8c.83-2.38 1.35-3.85 1.39-3.92s.13-.2 1.32-.2c1 0 1.05 0 1.14.06a.61.61 0 01.17.15l.07.11v5.38c0 5.08 0 5.39-.06 5.47a.47.47 0 01-.15.17l-.1.07h-.82c-.81 0-.82 0-.91-.06a.71.71 0 01-.15-.15l-.06-.09v-6.18l-.14.41-1.09 3.11a15.29 15.29 0 01-1.05 2.82.48.48 0 01-.2.13h-.77c-.64 0-.68 0-.79-.07a.54.54 0 01-.18-.14c0-.05-.54-1.5-1.12-3.22s-1.07-3.14-1.08-3.14 0 1.4 0 3.11c0 3.48 0 3.22-.2 3.37l-.11.07h-1.62z" fill="#fff"/><path d="M257.85 154.92a5.25 5.25 0 01-3.41-1.68 5.47 5.47 0 01-1.19-2.88 9.49 9.49 0 010-1.6 6.06 6.06 0 011.33-3.15 5.66 5.66 0 015.64-1.24 3.55 3.55 0 012.43 2.49 2.38 2.38 0 01.09.35s-1.08.3-1.16.31-.07 0-.14-.24a2.88 2.88 0 00-.84-1.33 3.74 3.74 0 00-3-.62 3.42 3.42 0 00-2 1 4.47 4.47 0 00-1 2.94 4.74 4.74 0 00.7 2.93 4.1 4.1 0 004.49 1.31 5.87 5.87 0 001.57-.76l.2-.14v-2h-3.11v-1.21h4.45v3.87l-.24.18a7.22 7.22 0 01-3.08 1.37 8.54 8.54 0 01-1.73.1zM270.18 155a3.88 3.88 0 01-2.35-1 3.34 3.34 0 01-.95-2 26.16 26.16 0 01-.11-4.37v-3.33h1.36v3.55c0 3.77 0 3.71.15 4.28a2 2 0 001.5 1.49 4.46 4.46 0 002.15 0 1.87 1.87 0 001.51-1.51c.18-.65.18-.59.19-4.35v-3.46H275v6.85a3.61 3.61 0 01-1.52 3.17 4 4 0 01-1.5.58 14.94 14.94 0 01-1.8.1zM281.71 154.72l2-5.24 2-5.08h1.48l2.11 5.2c1.17 2.86 2.13 5.23 2.14 5.25s0 .06-.75.06h-.78l-.13-.34c-.07-.2-.35-.91-.61-1.59l-.47-1.23h-4.44l-.58 1.59-.57 1.58h-1.45zm6.53-4.18l-.67-1.8c-.36-1-.77-2.09-.9-2.49s-.25-.74-.26-.75a1.87 1.87 0 00-.11.39 22.18 22.18 0 01-1 2.93c-.35.91-.64 1.68-.65 1.71s.08.05 1.78.06 1.82 0 1.81-.05zM296.26 149.63v-5.25h2.06l1.39 4.18c.76 2.3 1.43 4.33 1.48 4.5a1.36 1.36 0 00.12.31l.38-1.1c.2-.6.9-2.62 1.54-4.49l1.18-3.39h1.85v10.5h-1.31v-4.41-4.38c0 .01-.66 1.85-1.43 4.08l-1.52 4.37-.12.33h-1.23l-1.5-4.44c-.82-2.44-1.51-4.46-1.52-4.49s0 2 0 4.44v4.49h-1.3z" fill="#ef3340"/><path d="M250.67 115.66a4.24 4.24 0 01.18 1.45c.16.09 2.79-2.24 2.79-2.14 0 .49.06 1.51.06 1.51s2.73-2.59 2.84-2.32a8.18 8.18 0 010 1.81l2.15-2.36c.24-.26.2.32.22 1.26 0 .17 3-2.19 3.16-2.23.38-.08.5 1.23.48 1.55s2.74-1.57 2.61-1.33l.21 1.39c.77-.1 2.6-.78 3.7-.61.35.06.33.24 0 .37-5.31 2.14-9.38 5.38-11.76 9.88-.81 1.54-1.06 2.88-.84 3.21 0 0 .95-2 2-2.37.15 0 .24 1.32.39 1.24a17 17 0 011.4-2.81c.16-.21.42 1.08.59.89a7.43 7.43 0 011.25-2.34c.12-.13.33 1.3.46 1.18.86-.79 1.67-2.77 2-2.92s.26 1.65.48 1.49c0 0 1.22-2.45 1.95-2.9.47-.29.45 1.34.45 1.34a26.94 26.94 0 002.45-3.1c.22-.31.1 2 .34 2.1s2.32-1.78 2.54-1.82.33.54-.06 1l-2.49 2.86c.48.09.67 0 1 0 1 .26-1.91 1.94-1.86 2.25 0 0 1.41 0 .94.25s-2.2 2.6-2.2 2.51.93 0 .93.29a15.66 15.66 0 01-1.57 3c-.08-.08.83-.11.95.15.23.46-1.58 2.54-1.23 2.89.05 0 1 0 1.47.11a13.78 13.78 0 01.66 3.62 34.52 34.52 0 011-4.54c.24-.64 1 1 1.1.82a22.1 22.1 0 01-.05-3.3c0-.29.6.3.59 0a8 8 0 01.06-1.9c.1-.46.58.83.77.48a8.52 8.52 0 01-.34-2.88c.16-.41.55 1 .81 1.07a6.54 6.54 0 01.13-2.2l.81.88c.18-.28.15-3 .31-3.26s1 1 1.11.83-.36-2.19-.25-2.35 1.08.56 1.1.54c.38-.38.36-1.33.52-1.68.43-1 2.88-1.08 3.17-.4a2.71 2.71 0 010 1.27 4.68 4.68 0 001.24 0 13 13 0 00-.06 2.36c0 .17 1.22 0 1.24.13.11 1.16-.16 1.27-.16 1.27s.82-.12.83 0a3.15 3.15 0 01-.46 1.93c0 .09 1.16-.09 1.18 0a8.91 8.91 0 010 2.8c0 .1 1.18-.87 1.2-.77.18 1 0 2.16.08 3.24 0 .25.79-.74.86-.46s-.17 2.35-.05 2.46a6.08 6.08 0 011.39 0 3.38 3.38 0 01.82 2.61c.28-.2.18-2.21-.11-4 0-.19 1-.12 1-.3a3.78 3.78 0 01-1.48-2.53c-.08-.4 1.07-.32 1.07-.32-.32-.73-.88-.87-1.35-1.58-.16-.23 1.19-.33 1.19-.4 0-.7-1.14-1-1.73-1.77-.25-.31 1.23-.33 1.23-.33-.43-.6-1.87-.87-2.6-1.67-.4-.43 1.46-.86 1.43-.94-.2-.64-1.94-.84-2.79-1.56-.17-.15 1.1-.66 1.1-.66-.12-.27-2.91-2.1-1.49-1.93.59.07 1.81.92 1.9.79a4 4 0 01.08-1.2c.46-.48 2.07 2.06 2.62 2 0 0 .2-1.82.44-1.87.59-.11 1.31 2.65 1.89 2.65.07 0 .12-1.6.42-1.69s.71 1.79 1.14 2.21.4-1.47.64-1.12c.39.57.48 1.75 1 2.28.35.34.42-1.64.81-1.38s.34 1.34.85 1.84c.24.24.4-1.31.68-1.08s.41 2.09.67 2.39.72-1 1.07-.78.19 1.8.42 2.15c.48.72.73-.88 1-.63s.69 2 .89 2.19c.44.34.68-.85 1-.69s.73 2.54.93 2.48.46-5.51-1.65-7.82c-3.43-3.77-9.58-5.94-14.6-6 0 0 2.52-.5 2.59-.92.13-.83 1.38-.73 2.26-.54.15 0 .07-1.47.09-1.48a4.32 4.32 0 012.22.9c.24.14-.47-1.51-.22-1.37 1 .56 2 .72 2.67 1.39.17.18-.19-1.27-.19-1.27.48-.11 1.42.58 1.79 1.22.18.32 0-1.68.13-1.33 0 0 1.67.57 1.85 1.27 0 0 .14-1.27.36-1.2.67.17 1.26 1.3 1.78 1.46 0 0-.21-1.13 0-1.09a13.27 13.27 0 012.74 1.17c-.71-1.77-3.4-3.62-8.12-4.12a26.54 26.54 0 00-7.38.46c-2.45.56-4.38.89-4 .5 1.61-1.58 4.23-1.78 4.95-2.15.51-.26-1.74-1.13-1.29-1.25s2.45-.27 2.45-.27c.44-.34-1.46-1-1.18-1.5.57-1 3.92-.09 4.21-.47.09-.12-1.44-1-1.38-1.16.25-.51 3.23.37 3.3-.07 0 0-.9-.68-1.55-1.23-.07-.07 2.67-.8 2.67-.8a4.26 4.26 0 00-1.1-.59c-.58-.23 2.41-1 2.41-1-3.78-1.73-13.58 3.18-15.53 8.27-.5 1.22-.52-.1-.41-1.13a15.58 15.58 0 00.12-3.1c0-.3-.8.8-.86.51-.19-1.08.39-2.27.12-3.47-.09-.4-1.1 1.19-1.23.79-.38-1.11.27-2.67 0-4.2-.1-.6-1.06 1.28-1.39.74s-.21-2.92-.38-3.26-1 1.1-1.08.84c-1.16-4.22.39-4.74-1.84-2.37-.08.09-.57-2.49-.66-2.4-.91 2-2.4-1.39-2.91-1.08s1 1.53 1.05 2.11c0 .28-1.31.3-1.31.3 0 .48 2.51 1.83 2.59 2.36s-1.75.33-1.75.33c.05.59 2.12 1.15 2.23 1.77.06.35-1 .43-.93.78.05.53 2 1.6 2.05 2.15.05.38-1.23.53-1.27.89s2.58 1.87 2.58 2.28c0 .57-1 .27-1.51.56-.67.41 2.14 2 2.26 2.51s-1.12 0-1.17.42 1.38 1.23 1.71 2.07 0 1-.48.71c-.94-.66-4.73-4.69-5.74-5.76a11.71 11.71 0 00-7.45-3.41c-.31.09 1.61 1.45 1.62 1.94 0 .13-.86.32-.82.35a9 9 0 002.18 1.17l-.47.85c.11.25.89.31 2.14.73 0 0-.94.58-.87.63a7.39 7.39 0 002 .92l-1.27.43c-.08.24 2.85 1.42 2.85 1.42a8.44 8.44 0 00-.87.82 13.16 13.16 0 002.37.73s-1.52.52-1.51.53c.57.56 2.12.74 2.49 1.67 0 0 .21.54-.4.43a25.93 25.93 0 00-13.45-2c-7.44 1-13.1 7.43-13 8.08-.05.02 2.6-1.89 2.88-1.5z" fill="#009639" fill-rule="evenodd"/><ellipse cx="277.59" cy="116.12" rx="1.57" ry="1.67" transform="rotate(-33.12 277.589 116.126)" fill="#382e2c"/><ellipse cx="280.2" cy="117.63" rx="1.9" ry="1.79" transform="rotate(-56.88 280.201 117.621)" fill="#382e2c"/><ellipse cx="278.08" cy="119.11" rx="2.03" ry="1.92" transform="rotate(-56.88 278.08 119.111)" fill="#382e2c"/><path d="M263.37 179.61h2.36v1.77h-2.36z" fill-rule="evenodd"/><path d="M251.53 180.75s15.55 1.18 25.09-.87c0 0 .8.55-.35 1.89s-4.07 1.63-5.67 1.92a4 4 0 00-.35 1.31c0 .45 1 .4 1.49.3l.48-.09s-.23 1.68-6.11 1.9c-1.94.08-8.31.21-9.66-1.68a7.14 7.14 0 001.48 0c.3-.09.08-1.31 0-1.48s-4.13 0-6.24-2a2.72 2.72 0 01-.77-1.36zm8.1 3.26a43.52 43.52 0 009.15 0 2.73 2.73 0 01-.09 1.28c-.22.35-5.87.62-8.72.13-.46-.15-.48-.71-.34-1.42z" fill="#382e2c" fill-rule="evenodd"/><path d="M253.69 180s5.77-6.13 4-18.93c0 0 6 1.55 12.15 10.39 0 0 1.78 1.79 3.89 8.19z" fill="#fdf9ff" fill-rule="evenodd"/></svg>