<svg xmlns="http://www.w3.org/2000/svg" width="286" height="300" viewBox="0 0 286 300"><title>flag-alaska-icon-dipper</title><path d="M17.57,53.79l-3-9.15-1.49,4.58c-.3.93-.71,4-1.48,4.57s-4,0-4.82,0H2l3.89,2.83c.8.58,3.56,1.9,3.9,2.83S8.56,63.22,8.3,64L6.81,68.6l3.9-2.82C11.5,65.2,13.62,63,14.6,63s3.2,2.32,3.89,2.83l3.9,2.82L20.9,64c-.3-.93-1.76-3.63-1.49-4.58s3.21-2.33,3.9-2.83l3.89-2.83Z" fill="none" stroke="#000" stroke-linecap="round" stroke-linejoin="round" stroke-width="2"/><path d="M88.94,80.29l-3-9.16-1.49,4.58c-.3.93-.71,4-1.49,4.58s-4,0-4.81,0H73.37l3.89,2.83c.8.57,3.56,1.9,3.9,2.83s-1.23,3.76-1.49,4.57L78.18,95.1l3.9-2.83c.79-.57,2.9-2.79,3.89-2.83s3.2,2.33,3.89,2.83l3.9,2.83-1.49-4.58c-.3-.93-1.76-3.63-1.49-4.57s3.2-2.33,3.89-2.83l3.9-2.83Z" fill="none" stroke="#000" stroke-linecap="round" stroke-linejoin="round" stroke-width="2"/><path d="M124.41,118.32l-3-9.15L120,113.75c-.3.93-.71,4-1.49,4.57s-3.95,0-4.81,0h-4.81l3.89,2.83c.8.58,3.56,1.91,3.9,2.83s-1.23,3.77-1.49,4.58l-1.49,4.58,3.9-2.83c.79-.58,2.9-2.8,3.89-2.83s3.2,2.33,3.89,2.83l3.9,2.83-1.49-4.58c-.3-.93-1.76-3.63-1.49-4.58s3.21-2.33,3.9-2.83l3.89-2.83Z" fill="none" stroke="#000" stroke-linecap="round" stroke-linejoin="round" stroke-width="2"/><path d="M157.34,148.91l-1.49,4.58c-.3.93-.71,4-1.49,4.58s-4,0-4.81,0h-4.81l3.89,2.83c.79.57,3.56,1.9,3.89,2.83s-1.22,3.76-1.48,4.57l-1.49,4.58,3.89-2.83c.8-.57,2.91-2.79,3.9-2.83s3.2,2.33,3.89,2.83l3.89,2.83-1.48-4.58c-.31-.93-1.76-3.63-1.49-4.57s3.2-2.33,3.89-2.83l3.9-2.83h-4.82c-1,0-4,.55-4.81,0s-1.22-3.77-1.49-4.58Z" fill="none" stroke="#000" stroke-linecap="round" stroke-linejoin="round" stroke-width="2"/><path d="M269,201.76l7.79-5.66H272c-1,0-4,.56-4.81,0s-1.22-3.76-1.49-4.57L264.18,187l-1.49,4.58c-.3.93-.71,4-1.49,4.57s-4,0-4.81,0h-4.81l3.89,2.83c.79.58,3.56,1.9,3.89,2.83s-1.22,3.77-1.48,4.58l-1.49,4.58,3.89-2.83c.8-.58,2.91-2.8,3.9-2.83s3.2,2.33,3.89,2.83l3.89,2.83Z" fill="none" stroke="#000" stroke-linecap="round" stroke-linejoin="round" stroke-width="2"/><path d="M155.61,214.05l-3-9.15-1.49,4.58c-.3.93-.71,4-1.49,4.57s-4,0-4.81,0H140l3.89,2.83c.79.58,3.56,1.9,3.89,2.83s-1.22,3.77-1.48,4.58l-1.49,4.57,3.89-2.82c.8-.58,2.91-2.8,3.9-2.83s3.2,2.32,3.89,2.83l3.89,2.82-1.48-4.57c-.31-.93-1.76-3.63-1.49-4.58s3.2-2.33,3.89-2.83l3.9-2.83Z" fill="none" stroke="#000" stroke-linecap="round" stroke-linejoin="round" stroke-width="2"/><path d="M236,240.55l-3-9.16L231.49,236c-.3.93-.71,4-1.48,4.58s-4,0-4.82,0h-4.81l3.89,2.83c.8.57,3.56,1.9,3.9,2.83s-1.23,3.76-1.49,4.57l-1.49,4.58,3.9-2.83c.79-.57,2.91-2.79,3.89-2.83s3.2,2.33,3.89,2.83l3.9,2.83-1.49-4.58c-.3-.93-1.76-3.63-1.49-4.57s3.21-2.33,3.9-2.83l3.89-2.83Z" fill="none" stroke="#000" stroke-linecap="round" stroke-linejoin="round" stroke-width="2"/></svg>