<svg xmlns="http://www.w3.org/2000/svg" width="600" height="400" viewBox="0 0 600 400"><path fill="#fff" d="M-.24-.13h599.85v400.2H-.24z"/><path fill="#b71234" d="M0 333.33h599.61v66.73H0zM100 50c1.36 4.19 6 20.17 6.73 20.73s17.4 0 21.8 0c-3.53 2.58-17.34 11.91-17.63 12.81s5.37 16.55 6.73 20.73C114.07 101.69 101 91.46 100 91.46s-14.07 10.23-17.63 12.81c1.36-4.18 7-19.83 6.73-20.73S75 73.31 71.47 70.73c4.4 0 21 .56 21.8 0S98.64 54.19 100 50z"/><path d="M112 276.67c-2.84 0-5.77-.38-8.29 1.25a8.41 8.41 0 00-3.65 6c-.43 3.07-.11 6.34-.08 9.44 0 2.78-.24 5.62 0 8.39.46 5.35 4.1 8.18 9.31 8.46 4.57.24 9.22-1.54 10.49-6.33.38-1.44.94-3.27-.6-3.91-.75-.32-4.32-.44-5 .12-1.54 1.36.56 3.26-2.32 4-1.85.47-4.93.46-5.77-1.54s-.13-5.42-.13-7.5-.21-4.27-.27-6.42c-.1-4.19 1.23-7.18 6-6a2.93 2.93 0 012.15 1.4c.42 1-.51 2.12.46 2.75a21.7 21.7 0 005.58-.11c1.06-1-.5-5-1-5.92a8.06 8.06 0 00-6.88-4.08zm18.67 0L122 310c1.25 0 4.7.64 5.72-.1.81-.58.79-2 1-3s.2-2.55 1.27-3.06 2.94.14 4 .14 3.07-.66 4-.14 1.06 2 1.27 3.06c.15.79.13 2.29.75 2.87 1 .94 4.68.21 5.94.21-2-7.72-4.26-15.42-6-23.21-.59-2.64-.76-7.46-2.59-9.57-1.21-1.45-4.85-.53-6.69-.53zm.46 21.33l2.87-11.08 2.87 11.08zM154 276.67c-1.52 0-3.57-.7-5-.09s-1 .8-1 2.36c-.15 4.72.05 9.45.05 14.17 0 4 .18 8.06-.1 12.06a13.62 13.62 0 00-.12 3.82c.31 1.29.83 1.22 2.14 1.2 3.46-.07 6.93-.33 10.41-.17 1.44.07 3.21.51 4.63.05s1.12-.58 1.08-2.25c0-.9.48-2.71 0-3.46s-2.05-.63-2.9-.63c-2.35 0-5.64 1-8 .5-1.63-.38-1.17-1.23-1.14-2.86.05-2.56 0-5.12 0-7.68zM168 276.67c1.75 0 5.2-1.07 6.19.68.49.85 0 2.8 0 3.73-.14 1.71-.15 3.4-.15 5.12v14.06c0 1.68-.05 3.37.05 5.05.06 1.07.59 2.91.16 3.95-.56 1.39-3.68 1.16-5.06.91-2.29-.41-1.26-2.91-1.16-4.86.41-9.5-.03-19.13-.03-28.64zM178 310c1.53 0 3.07.4 4.6.27 1.74-.14 1.7-.85 1.68-2.51s-.28-3.5-.28-5.27c0-1.27-.77-5.41.32-6.36s5.36-.13 6.47-.13c1.26 0 4.28.69 5.11-.31.64-.78.38-3.45.24-4.35-.31-1.93-1.61-1.47-3.46-1.4-2.15.08-4.3.06-6.45.13s-2.4-.11-2.43-2.23c0-1-.25-4.12.41-4.91.82-1 4.11-.21 5.26-.13 1.37.1 5.23.85 6.3-.23.87-.87.41-3.12.26-4.24-.25-1.93-.61-1.73-2.41-1.67-3.18.09-6.37 0-9.55 0-1.43 0-5.5-.77-6.1.67-.4 1 0 3.27 0 4.28V310zM212 276.67c-4.4 0-9.24 0-11.23 4.73-1.82 4.35-.87 10.52-.86 15.14 0 4.35-.38 9.45 3.75 12.18 3.19 2.1 9 2.09 12.27.25 6.12-3.42 4-13.08 4.12-18.85s-.51-13.45-8.05-13.45zm2 25.33c0 2.85-6.35 2.77-7.58 1s-.56-5.38-.53-7.35v-9.33c0-2.52.77-3.53 3.3-3.64 1.55-.06 3.66-.22 4.51 1.33 1.12 2 .27 5.82.27 8.07zm22-25.33c-2.28 0-4.58.07-6.86-.08-1-.07-4.29-.84-5.06.08-.43.5-.09 2.69-.08 3.24v15.32c0 2.57.08 5.16-.06 7.73-.1 1.85-.5 3.91-.15 5.76.28 1.48.79 1.43 2.22 1.48 1 .05 3.42.41 4.12-.45s0-3.67-.09-4.71a37.13 37.13 0 01-.11-7.67c.33-2.13 1.55-1.49 3.46-1.39s3.9-.28 4.54 2 .15 5.54 0 8c-.06 1.29-.64 3.44.68 4.08a9.71 9.71 0 004.79 0c1.17-.58.56-2.84.56-4.15 0-3.26.62-7-.33-10.18-.3-1-1.13-1.88-1.15-2.87 0-1.25 1.2-2.73 1.43-4 1.02-5.43-1.5-12.19-7.91-12.19zm2 11.33c0 2.27-3.65 2.31-5.18 2.24-.44 0-2.36 0-2.72-.39-.51-.56-.15-3.25-.14-3.89 0-.88-.28-2.51.3-3.14.75-.83 3.12-.26 4.06-.19 3.62.28 3.68 2.13 3.68 5.37zM262 295.71l-5.71-13.6c-.57-1.35-1.06-4-2-5.09-.83-1-2.42-.57-3.56-.48-.61 0-2.06-.15-2.52.23-.79.66-.18 4.35-.18 5.16v14c0 4 0 8.06-.09 12.08 0 1.54-.19 1.66 1.18 2a11 11 0 003.19.24c1.22 0 1.48.08 1.86-.95.32-.84-.12-2.51-.14-3.42-.09-5 0-10 0-14.93l5.71 13.6c.57 1.34 1.06 4 2 5.09.83 1 2.42.57 3.56.48.61 0 2.06.14 2.52-.23.79-.66.18-4.35.18-5.17v-14c0-4 0-8.06.09-12.09 0-1.53.19-1.65-1.18-2.05a11.34 11.34 0 00-3.19-.23c-1.22 0-1.48-.09-1.86.95-.32.84.12 2.51.14 3.41.09 5.04 0 10.02 0 15zM272 276.67c1.75 0 5.2-1.07 6.19.68.49.85 0 2.8 0 3.73-.14 1.71-.15 3.4-.15 5.12v14.06c0 1.68-.05 3.37.05 5.05.06 1.07.59 2.91.16 3.95-.56 1.39-3.68 1.16-5.06.91-2.29-.41-1.26-2.91-1.16-4.86.41-9.5-.03-19.13-.03-28.64zM288.67 276.67L280 310c1.25 0 4.7.64 5.72-.1.81-.58.79-2 1-3s.2-2.55 1.27-3.06 2.94.14 4 .14 3.07-.66 4-.14 1.06 2 1.27 3.06c.15.79.13 2.29.75 2.87 1 .94 4.68.21 5.94.21-2-7.72-4.26-15.42-6-23.21-.59-2.64-.76-7.46-2.59-9.57-1.21-1.45-4.85-.53-6.69-.53zm.46 21.33l2.87-11.08 2.87 11.08zM344 276.67c-2.28 0-4.58.07-6.86-.08-1-.07-4.29-.84-5.06.08-.43.5-.09 2.69-.08 3.24v15.32c0 2.57.08 5.16-.06 7.73-.1 1.85-.5 3.91-.15 5.76.28 1.48.79 1.43 2.22 1.48 1 .05 3.42.41 4.12-.45s0-3.67-.09-4.71a37.13 37.13 0 01-.11-7.67c.33-2.13 1.55-1.49 3.46-1.39s3.9-.28 4.54 2 .15 5.54 0 8c-.06 1.29-.64 3.44.68 4.08a9.71 9.71 0 004.79 0c1.17-.58.56-2.84.56-4.15 0-3.26.62-7-.33-10.18-.3-1-1.13-1.88-1.15-2.87 0-1.25 1.2-2.73 1.43-4 1.02-5.43-1.5-12.19-7.91-12.19zm2 11.33c0 2.27-3.65 2.31-5.18 2.24-.44 0-2.36 0-2.72-.39-.51-.56-.15-3.25-.14-3.89 0-.88-.28-2.51.3-3.14.75-.83 3.12-.26 4.06-.19 3.62.28 3.68 2.13 3.68 5.37zM356 276.67v24.1c0 2.24-1.25 6.9.14 8.79 1 1.39 5.56.44 7.27.44 2.7 0 5.4.15 8.1.16 2.87 0 2.77-1 2.6-3.65s-.12-2.55-3-2.73a39.88 39.88 0 00-4.89.11c-.89.05-3.53.58-4.23-.19-.91-1 0-3.89 0-5.13 0-2.87-.05-2.72 2.83-2.59 1.68.08 3.37 0 5.06 0 .9 0 2.43.48 3.26.17 1.49-.55 1.1-2.46 1.05-4-.07-2.15-.2-2.31-2.39-2.23-2.73.1-5.5.2-8.23.2-2.46 0-1.54-1.8-1.59-3.77-.06-2.14-1-3.69 1.59-3.74 2.94-.05 5.9.25 8.83.21 2.59 0 1.75-2.25 1.63-4.34-.09-1.52-.18-1.83-1.75-2.06a18.51 18.51 0 00-3.78.23c-4.14.22-8.36.02-12.5.02zM390 276.67h-6.54c-1.11 0-4.17-.64-5.1.08-.59.45-.36 1.42-.36 2.09V299.78c0 2 .05 4 0 5.94 0 .93-.64 3.42.13 4.18.55.56 5 .72 5.6.23s.29-2.19.27-3c-.05-2.14.09-4.3 0-6.44-.06-1.05-.58-2.76-.13-3.76.7-1.54 3.23-.84 4.68-.84 3.47 0 6.66-.92 8.42-4.16 3.03-5.68.3-15.26-6.97-15.26zm2 11.33c0 2.27-3.65 2.31-5.18 2.24-.44 0-2.36 0-2.72-.39-.51-.56-.15-3.25-.14-3.89 0-.88-.28-2.51.3-3.14.75-.83 3.12-.26 4.06-.19 3.62.28 3.68 2.13 3.68 5.37zm24 14c0 1.79-2.53 2.2-3.87 2.26-2.28.11-4-.45-4.2-3-.5-6.55 0-13.42.07-20 0-1.34.71-4.11-.7-4.77-.82-.38-4.45-.38-5.16.21-.95.78-.29 3.47-.22 4.54.19 3.06.08 6.15.08 9.21 0 4.87-1.37 11 1.1 15.5 2 3.61 6.56 4.73 10.39 4.19s7.56-2.83 8.39-6.83c.63-3.07.32-6.47.23-9.59-.11-3.71-.11-7.42-.11-11.14 0-2.69 1.14-6.06-2.28-6.18-2-.07-3.69-.35-3.85 1.8-.25 3.43.13 7.09.13 10.54zm22-25.33h-7.22c-.83 0-3.56-.57-4.29 0-1.05.78-.6 3.85-.62 5-.05 2.5 0 5 0 7.51.07 4.57.12 9.15.12 13.73 0 1.82-.18 3.74 0 5.55.11 1.45.17 1.43 1.68 1.55 4.52.37 10.62.89 14.7-1.45a7.47 7.47 0 003.63-5.86 21.87 21.87 0 000-5.6c-.21-1.47-1.38-2.85-1.4-4.21 0-1 .88-2.23 1.13-3.17a10.85 10.85 0 00.34-2.83 14.48 14.48 0 00-.74-4.89 7.5 7.5 0 00-7.33-5.33zm2 25.33c0 2.31-5.42 2.86-7 2.15-2-.88-1.12-4.46-1-6.24.08-1.35-.21-1.43.89-1.91s3.32-.22 4.49 0c3.21.6 2.62 3.36 2.62 6zm0-14c0 2.27-3.65 2.31-5.18 2.24-.44 0-2.36 0-2.72-.39-.51-.56-.15-3.25-.14-3.89 0-.88-.28-2.51.3-3.14.75-.83 3.12-.26 4.06-.19 3.62.28 3.68 2.13 3.68 5.37zM456 276.67c-1.52 0-3.57-.7-5-.09s-1 .8-1 2.36c-.15 4.72.05 9.45.05 14.17 0 4 .18 8.06-.1 12.06a13.62 13.62 0 00-.12 3.82c.31 1.29.83 1.22 2.14 1.2 3.46-.07 6.93-.33 10.41-.17 1.44.07 3.21.51 4.63.05s1.12-.58 1.08-2.25c0-.9.48-2.71 0-3.46s-2.05-.63-2.9-.63c-2.35 0-5.64 1-8 .5-1.63-.38-1.17-1.23-1.14-2.86.05-2.56 0-5.12 0-7.68zM470 276.67c1.75 0 5.2-1.07 6.19.68.49.85 0 2.8 0 3.73-.14 1.71-.15 3.4-.15 5.12v14.06c0 1.68-.05 3.37.05 5.05.06 1.07.59 2.91.16 3.95-.56 1.39-3.68 1.16-5.06.91-2.29-.41-1.26-2.91-1.16-4.86.41-9.5-.03-19.13-.03-28.64zM500 286.67c0-4.05-1.55-8-5.62-9.39-3.65-1.27-9-.88-11.95 1.85-3.89 3.62-2.48 10.81-2.45 15.52 0 4.21-.81 10 2.58 13.24 3 2.9 8.49 3 12.18 1.47a8.22 8.22 0 004.55-4.08c.64-1.42 1.57-4.54-.06-5.3a9 9 0 00-4.52-.15c-1.67.75.05 2.65-1.62 3.8-1.19.81-4.65.76-5.87.05-2.14-1.24-1.55-5.29-1.47-7.36.13-3.47-.13-7.08.16-10.52.25-2.91 1.86-3.23 4.48-3.16 1.32 0 2.91-.07 3.51 1.39.31.77-.39 2 .16 2.64.94 1.09 4.71 0 5.94 0zM483.33 249.09c-.13-1.65-3-1.92-4.12-2.63a25.07 25.07 0 00-3.26-2.14 8.92 8.92 0 01-3-1.8 16.74 16.74 0 00-2.36-1.67c-.7-.5-.64-1.13-1.18-1.69-1-1-1.61-.25-2.77-.18-1.43.09-1.76-.47-2.73-1.49-.42-.43-1-1.26-1.52-1.51a14 14 0 00-2.39-.41c-.52-.11-.85-.45-1.42-.41s-.89.63-1.35.66a4.65 4.65 0 01-1.75-.38c-.82-.45-.42-.78-1-1.5-.39-.45-.58.3-1.15-.32-.3-.34-.29-1.65-.63-1.8-.79-.32-1.18 1.24-1.95 1.19-.14 0 .08-.91-.34-.86s-.5.59-.84.73c-1 .4-1 1-1.24-.15-.17-.74.88-1.53-.1-2.26-.74-.57-1.08.4-1.71.69-.38.18-.65-.19-.82-.12-.5.22-.88.88-1.44.94-1.23.14-.42-.32-.78-1.31-.27-.71-.8-1.07-1-1.81-.16-.53.11-2-.67-2.1s-.62 1.36-1.45 1.3-.69-1.48-1.48-1.21c-1.29.45.48 3-.49 3.62-.69.46-1.52-.74-1.91-1.14-.21-.22-.66-.21-.85-.48-.32-.43 0-1.31-.26-1.63-.76-.95-.61-.19-1.59.12a1.73 1.73 0 01-1.28.07c-.26 0-.78-.85-1-.71-.58.33-.35 1.13-1 1.44a12.94 12.94 0 01-2.81.25 69 69 0 01-8.61-.66c-6.12-.48-12.35-.53-18.42-1.42a26.11 26.11 0 01-3.26-.65c-.52-.15-1.64-1-2.06-1-.58 0-1.08.56-1.74.52-.3 0-.61-.39-.9-.47s-.71.12-.89 0c-.68-.29-1-.91-1.88-.91s-1.55.75-2.57.51c-.83-.2-1.3-1-2.07-1.36s-1.3.2-1.82-.87a3 3 0 01-1.4.77 6.55 6.55 0 00-.92.21c-.36.17-.6.8-1 1-2 1.07-2.08-.25-2.53-1.67-1.63 2-2.8-1.52-3.89-1.29-.4.08-.59 1-1.12 1.13s-.82-.46-1.43-.36-1 1.17-1.65 1.17c-1.13 0-.42-.71-.85-1.22-1-1.19-1.7.28-2.8 1.14a3 3 0 00-.46-1.56c-.84.4-.38.85-1.32.85-.37 0-.89-.56-1.28-.57-1.06 0-2.62 1.61-3.82 1.9-4.41 1-9.24 1.2-13.74 1.64s-9.06.7-13.6 1c-2.82.18-8.07 1.12-10.4-1-.89-.83-.48-1.88-1.22-2.79-.91-1.12-2.25-.59-3.43-.09-1 .42-1.8 1.51-2.71 1.83-1.59.56-4.57-.18-6.25-.26-4.24-.21-8.47-.52-12.72-.47a20.82 20.82 0 01-3.06-.07 17.76 17.76 0 01-2.27-.76c-1.13-.3-2.48.08-2.8-1.34a9.31 9.31 0 01-2.81.76 21.74 21.74 0 01-2.57.45c-.05 0-2.32-1.07-2-.79-.15-.15-.42-1-.51-1-1-.58-.09.07-1-.08.57.09-1.63-.09-1-.3-.64.2-.68.55-1.24.77a21.69 21.69 0 00-2.39.67c-.6.3-.26 1-1.25 1.17-1.51.3-.72-.55-1.66-.92-1.6-.64-4.21 2.72-6.06.53-.41-.48.1-1.42-.09-1.63-.46-.49-.88.27-1.22.26a.9.9 0 01-.89.5.79.79 0 01-.11-.66s-.4-.51-.63-.55c.05 0-1.16.81-1.2.84a15.2 15.2 0 01-4.87 1c-4 .47-7.79.54-11.77 1.41-8 1.76-16 3.79-24.07 5.58-4 .88-7.93 1.73-11.88 2.63-3.21.74-6.21 2.27-9.48 1.19-1.34-.44-2.49-1.18-3.88-1.23a25 25 0 00-4.22.37c-.22 0-1 .39-1.2.28s-.47-.86-.34-.8c-.36-.18.09-.76-.79-.53-.36.1-.57.88-.9 1.07-1 .58-1.27-.28-2.3-.12s-1.13 1.28-2 1.6c-.55.2-1-.28-1.53-.1-.67.24-.69.76-1.17 1.2-1.63 1.47-1.7.29-3.18.2-.53 0-1 .58-1.49.5s-1-.85-1.62-1.05-2.33-.36-2.75.33c-.63 1 .9 1.23-.48 2.43a12.5 12.5 0 01-5.25 2.1 6.26 6.26 0 01-1.56.16c-.85-.06-1.27-.61-2-.74-1.54-.27-1.28 1.21-2.55 1.4-1 .15-.92-.85-1.7-1.27-.46-.26-.67.38-.69.37a3.53 3.53 0 01-.77-1c-1-.15-.87 1.37-1.67 1.3s-.23-2.31-1.26-1.85c-.85.39-.12 2.13-.76 2.59s-1.91-1-1.8-1.17a12.78 12.78 0 01-2 3.16c-.46.42-1.15 1.11-1.87.78-.46-.22-.43-1.41-.84-1.45-.69-.06-.68 1.24-1.28 1.7-.92.68-2.25.6-2.6-.54-1 .85-.76 1.49-2.11 2.1-1 .47-2.13 1.19-3.19 1.6s-2.22.18-3.39.57a15.9 15.9 0 01-4.48 1.24 30 30 0 00-8.5 2.26c-.74.29-2.57.61-2.94 1.35-.74 1.48 1.22 1.62 2.13 1.69 6.19.46 12.48-.15 18.7.22 6.59.38 13.15.38 19.72 1s13.2-.25 19.75-.78c6.94-.57 13.88-.92 20.85-.81s13.85.71 20.78 1 13.64.36 20.43 1c6.4.59 12.63 1.26 19 .91 7-.38 14-.53 21-.93 14-.82 28-2 42-3a407.44 407.44 0 0141.49-1.28c13.78.42 27.61 1.5 41.39 1.55 7.78 0 15.55.77 23.33.64s15.65-.46 23.45-1.08a187.91 187.91 0 0122.76-.41c2.25.08 9.95 1.52 9.51-2.54z" fill="#584528"/><path d="M470.15 243.48c-1.13-.11-1.68-1.25-2.66-1.67-1.39-.58-2.73-.25-4.09-1.11-2.09-1.32-3-2.37-5.67-2.31-1.26 0-2.47.28-3.61-.41s-1.47-1.82-2.66-2.22c-2.2-.73-4.4 1.22-5.92-1.43-.78 2-2.81 1.23-3.8-.13-.35-.48-.46-1.81-1.1-2-.9-.28-1.11.76-1.71 1-2.1.95-3.12-1.21-4.76-2.14-2.09-1.2-4.49-.15-6.75 0-5.26.24-10.71-.84-16-1.14a152.38 152.38 0 01-17.44-2 64.21 64.21 0 01-7.95-1.42 8 8 0 00-2.78-.72c-1.09.06-1.8.82-2.79 1.14-2.14.71-3.38-.44-5.22-1.32s-3.6-.58-5.53-.07-3.58 1.13-5.4.49c-.81-.28-1.3-.84-2.19-.8a20.28 20.28 0 00-2.72.85 124.63 124.63 0 01-17 2.24c-5 .38-10.05.66-15.06.71-3.47 0-8.56-.22-9.86-4.2-2.2 2.24-5 2.14-7.91 2-3.81-.21-7.62-.51-11.44-.7-1.79-.09-3.57-.15-5.36-.16-1.15 0-2.76.43-3.88.22s-1.17-.8-2.35-1.18c-1.62-.5-3.53.18-5.19.09s-2.83-1.24-4.38-1.38-2.54 1.07-3.87 1.55-2.9.13-4.39.22c-1.91.11-3.31.33-5.18-.36-3.17-1.17-5.92-.35-9.19 0-4 .41-8 1-11.93 1.8-7.26 1.44-14.4 3.37-21.62 5-3.41.76-6.85 1.39-10.25 2.18s-6.76 2-10.25 2a19.42 19.42 0 01-4.59-.95 11.86 11.86 0 00-4.6 0c-1.63.21-3.25 0-4.88.14a14 14 0 00-5.13 1.94 6.87 6.87 0 01-3.53 1.26c-1.3 0-2.63-.9-3.93-.48s-1.91 1.58-2.9 2.23a12.48 12.48 0 01-5.39 1.72c-1.72.18-3.29 0-4.95.52-1.82.57-2.64.24-4.45 0-3.6-.58-6 2.34-9.17 3.3-1.62.48-3.33.55-5 1a36.77 36.77 0 00-4.81 2.24c-.76.34-5.82.94-5.9 1.83 0 0 27.13 1.47 29.83 1.54 11.43.27 22.78-1.84 34.21-1.83 12.83 0 25.68 1.07 38.48 1.8 6.62.37 13.23 1.15 19.87 1.3 6.43.15 12.88-.18 19.31-.49 13.07-.64 26.12-1.6 39.16-2.61s26-2.18 39.09-2.28 26.06.52 39.07 1.07c14.69.61 29.46 1.53 44.16 1.15s29.32-2.46 44-1.47c-2.24-2.5-6.31-2.48-8.09-5.55z" fill="#008542"/><path d="M288.4 243.33c-.32.16-.32-.13-.32-.32 0 .46-1.95-.51-2.18-.74s-.74.55-.63-.39c0-.27 1.05-.92 1.29-.81-1-.47-1.18 0-2.11-.08a14 14 0 00-1.93-.1c-.4.08-.3.77-.78.69s-.58-1-1.25-1c.09.87-.29 1.05-.65.38-.2-.37.28-1.75-.43-1.86-.29 0-.21 1.34-.55 1.16-.76-.41.11-.77-.2-1.25-.86-1.33-.5.42-1 1.1-.17.23-.67.27-.79.43s-.75 1.11-.83 1.14c-1.23.5-.73-1.3-1.81-.86-.57.23.33 1.12.06 1.45-.67.82-.67-.14-1-.08s-2.08.61-2 1.11c0-.08.35-.52 0-.52s-.7 1.57-.8 1.57c.87-.89 3.53-.26 4.72-.33a36.66 36.66 0 015.62.36c.4.03 8.4.11 7.57-1.05zm-45.66-.08a5.56 5.56 0 00-1.36-1.05c-.39-.12-1.55.36-1.8.12-.48-.45 1-.72-.23-.93-.53-.1-.69.94-1.3.55 0 0 .25-1.23-.23-1.39s-.69 1.4-1.08 1.6c-.64.33-1.34-.32-2-.06-.46.19-.65.9-1.09 1.16s-1.44.07-1-.2c-.17.14-.33.29-.48.44.9-.29-1.19 1.82-1.19 1 0 .86.91-.52.79.76.1.24 6.35-.6 6.85-.65 1.08-.09 2.15-.18 3.22-.29.31 0 .48.2.75.13a4.42 4.42 0 001.17-.84q-.51-.14-1.02-.35zm23.59-7.64c-.93 0-.91-.89-1.08-.92-.89-.15-1.41 1-2.52.39-.94-.49-.22-1.16-1.49-1.1-.17 0-.3.51-.68.61-.14 0-1.73.1-1.8.07s-.08-1.39-1-1.33c-.17 0-.78.95-1 1.08s-2.22.22-2.22.63a5.44 5.44 0 00.17.78s-1.73.35-1.45 1 4-.3 4.55-.34c.32 0 4.8-.46 5-.2-.05.87 2.32.08 2.8-.12.39-.1 1.87.58.72-.55zM456.6 245.23c-.94-.27-.85-1.47-1.86-1.63-.46-.08-.65.36-1 .36s-.84-.37-1-.37c-.42 0-.46.45-.83.45s-.72-.25-1.08-.22-.7.24-1.18.26c-.3 0-.18-.91-.61-.76s-1 2.06-.62 2.33c.17.13 1.51-.32 1.9-.3.53.03 6.12 1.13 6.28-.12zm-247.16 0a4.27 4.27 0 01-.45-.6 1.51 1.51 0 01-.7.13c-.15-.07-1.56-.35-1.32-.71 0-.06 1.24 0 1-.24-.45-.35-1.11.27-1.52.2a4.72 4.72 0 01-.85-.07c-.28-.11.09-.93-.36-1-.84-.15-.86 2-.86 2.3-1.1.08-.47-.54-1-1-.28-.26-2.15 2-2.09 0a5.34 5.34 0 01-.35 1.26c-.11.1-1.17.62-1.17.7 0 .28 2.83.51 3.25.51.18 0 1.15-.33 1.37-.37l1.39-.17c.66-.17 4.87.63 3.66-.94zm-15.22-2c-1.22 0-.49 0-.65-.43.18.5-4.43-1.65-4.75-1.73-.13 0 .21.64.11.64-.66 0-1.26-.22-1.93-.2-.32-.26 1-.52.59-.82 0 0-1.64 0-1.78.1-.54.26-.61 1.05-1.2 1.41a25.15 25.15 0 01-5.15.47c.12.6 1 .18 1.22.64s-.33.66-.37.55a.52.52 0 00.25.69c.11.08 1.5.32 1.5.14-1.55-.62 1.56-.49 2.12-.51a47 47 0 014.88-.2 24.74 24.74 0 004.12.21c.61-.12 2.71-1.1 1.04-1zm-24 1.42a1.46 1.46 0 010-.52s-.16 0-.29.3c-.25-.29-1.74-1.17-1.06-.37-.38.73-1.12-.85-1.34-.85a3 3 0 01-.55.78c-.68.53-1.23 0-1.86.08-.22 0-1.24.37-1.59.22-.21 2.26 1.76 1.7 3.35 1.59.63-.08 3.85-.27 3.35-1.27zM315 241c-.78-.43 0-.22-.1-.76 0-.05-2.54.55-2.89.25-.94-.77.77-1.71-1.18-2 .23 0-.88 1.79-1.38 1.2-.09-.11.93-1.71-.14-1.93.21 0-2.37 1.08-2 .41-.25.89-4 2.59-3.55.49 0 0-1-.18-.88-.28a1.59 1.59 0 00-.19 1c-.32.36-.66.7-1 1 .68 1-.87.24-.87 1 0 1.2 6.9.43 7.84.32.38-.05.58-.38.9-.39s.71.28 1.06.25c.55-.06 1.34 0 1.24.11.33-.48 3.91.21 3.14-.67zm121 2c0 .59-1.54-.89-1.78-1-.48-.22-1 0-1.43-.27s-.62-1.19-.92-1.19c-.08.53-.31.58-.7.18a.81.81 0 01-.39.64c-.53 0-.21-1.34-.34-1.45s-1.14.53-1.52.42c-.09 0-1.11-1.39-1.15-1.15-.21 1.2.27 1.35-1.22 1.38-.25 0-.25-.39-.76-.35-.31 0-1.26.54-.32.59-.39-.19-.27.48-.48.4s-.65-1-.72-.87-.4 1.7 0 1.7c-.27-.46-.64 0-.51 0-.43-.25-3.58 1.57-3.68 1.19.25 1 3.46.38 4 .35.32 0 .61.27.9.26s.51-.31.78-.31a33.68 33.68 0 014.38.07c-.19.92 3.12.16 4 .17.33 0 1.67.25 2 0 .51-.51.11-.76-.14-.82zM396.09 238.47c-.31-.13.3-.44-.06-.58s-1.52.73-.44-.53c.07.11-1.33.46-1.28.47-1.33-.34.12-.18-.4-.64.07.06-1.34-1.63-1.34-1.12a3.42 3.42 0 01.47.53c-.3-.61-1.74 0-2.28-.34s-.55-1.19-1-1.33c-.93-.28-.23.16-.77.41s-.93.88-1.53.8-.51-.8-1.08-.91c-1.68-.3-.3.56-.44 1s-2.27.25-2.27.67.88 0 .9.28c0 .85-2-.1-2.13.67 0 .18 6.08.51 6.64.52s7.09.85 7.26.36c-.26-.03-.34-.13-.25-.26zm-24.28 3c-1.4.13.08-.27-.54-.4-.41-.09-.72.33-1.17.19-1.76-.54-.18-.48-.16-1.07-.67-.06-.73-.29-.17-.68-.17-.37-1.45.85-1.86.62-.76-.43.7-.82 0-1.38a11.87 11.87 0 00-1.59 0c-.3 0-.67.16-1 0s-.27-1.07-.92-1c-.2 0-.19.9-.6.94s-.88-.44-1.34-.4v.48c-.56.18-.48-1.19-.77-1.4.56.4-3.95 2.2-3.95 1.54 0 .53 1.13.73 1.28 1.2-.2-.61-3.83.15-3.25 1.69-.07-.2 6.46-.66 5.65.25.14-.82 5.05.09 5.84.14s5.17-.19 4.55-.68zm-26.16-.34a18.72 18.72 0 00-5.7-.46s-4-.27-3.84-.37a.26.26 0 00.07.36h-1.55c.53 0-.13.75-.19.79a8.21 8.21 0 01-1.72.14s-1.4 1.48-1.55.44c.25 1.73 4.57.67 6 .57s2.9-.26 4.34-.23a8.07 8.07 0 004.37-.94.27.27 0 00-.23-.26zM333.79 195.65a.63.63 0 010-.23.28.28 0 000 .23zM390.69 212.57h-.16c.1 0 .14.01.16 0z" fill="#584528"/><path d="M431.46 216c-1.49-3.36-3.89-6-5.55-9.19-2.29-4.43-2.59-9.83-3.32-14.65-.55-3.64-.48-7.31-1-10.93-.45-3.29-1.63-6.58-2.2-9.89-.28-1.66-1.2-3-1.75-4.58s-.85-3.12-1.32-4.67c-.57-1.92-1-2.48-.26-4.29a5.73 5.73 0 00.36-4.21c-1.66-6.23-7.27-12-11.6-16.6s-8-9.21-13.34-12.51a51.07 51.07 0 00-7.61-4.14c-1-.42-1.91-1-2.9-1.42-.18-.07-.28-.28-.71-.44-1-.37-2.19-.63-3.23-1-7.2-2.79-14.45-5.09-22.21-5.77-16.22-1.41-31.73 6.32-47.88 5.16a28.24 28.24 0 01-5.33-.8 24.49 24.49 0 01-3.74-1.74c-.2-.09-1.47-.33-1.62-.45s-.85-1.12-.49-.9a25.77 25.77 0 00-2.74-1.25c-1.35-.58-1.83-1.22-3.37-1.62-.17 0-1.45-.34-1.41-.32h-.43c-.47.17-.65 0-.53-.61-.85-.33-1.89-.16-2.79-.49 0-.14-.09-.28-.14-.42.06-.43-.14-.54-.58-.34a11 11 0 00-1.6-.35 40.56 40.56 0 00-8.09-.37c-.79 0-1.63.07-2.42 0-.19 0-.7-.5-.7-.5a10.64 10.64 0 00-1.33.57 29.3 29.3 0 01-3.14.45A41.37 41.37 0 00257 110c-2.81 1.19-6.56 3-8.85 5-4.61 4-11.06 6.78-16.69 9.1-4 1.64-8.81 3.62-12.42 6.61-.57.47-1.34.85-1.87 1.32-.63 0-.86.17-.72.49a.42.42 0 010 .43c-.28.2-.86.27-1.22.52-.61.44-.9 1.3-1.58 1.75-2.61 1.78-3-1.93-5.73-2.26-3.59-.44-4.34 3.11-6 5.32-2.29 3-5.43 1.37-8-.28-1.54-1-2.27-1.22-3.64.27a10.15 10.15 0 00-2.08 4.51c-.35 1.4 0 2.67-.19 4-.29 1.8-2.09 2.94-3.15 4.3a45.88 45.88 0 00-5.36 8.92c-.62 1.36-.46 1.75.21 3 .35.63 1.33 1.59.54 1.57 0 5.67-5.84 9.8-9 14a8.51 8.51 0 01-2.34 2.33c-.78.48-2.1.7-2.11 1.87 0 1 1.21 1.82 2.08 2a6.15 6.15 0 001.81.08 1.63 1.63 0 01-.87.28c.05.09.66.49.19.54 0 0-.36-.47-.36-.38-.06 2.13 4.45 3.06 5.84 3.22s2.23 0 3.32.71c.41.25 1.59 1.82 2 1.11.52-.92-1.1-1 .16-2.07.78-.65 2.18-.72 3.08-1.4.67-.5 2.39-2.46 3.41-1.71.81.59-.53 2-1 2.35.74.23-.81 1.06-1.1 1.5-.68 1-.57 1.24-.27 2.36.06.19 1.37 1.36-.14 1-.25-.07-1.4-1.68-1.51-1.58a4.84 4.84 0 010 1.47c-.11-.05-1.57-1-1.67-.74 0 .06.78 1.9.8 2.22.08 1.14-.31 2 .56 3 1.73 2 5.85 1.67 8.06 1 3-.84 5.19-3.21 8.31-3.77 2-.36 4.74-.49 5.58 1.69-.29-.74 1.7.24 2 .54.64.74.3 0 .46 1 0 .07-.33 1.44-.17 1.44.59 0 .25-1.16.68-1.16s-.06.8.29.85a4.93 4.93 0 01.38-1.12 2.87 2.87 0 01.48.85c1.08 0 .47-1.42.73-1.8.85-1.26.32.66 1.08.49.5-1.71.88-2 .4-3.63.39-.06 1.41 1.06 1.53 1.58 0-.59-.36-1.35 0-1.85.51-.76.38 1.4.62 1.4 1.37 0 .15-2.48.85-2.42.22 0 .52 1.2.78.58s-.6-1.38-.61-1.85c-.05-2.26 1.42 1.27 1.55 1 .25-.53-.82-1.67-.26-2.1s.71 1.44 1.24 1.54a8.87 8.87 0 00-.3-2.24c-.18-.7-.94.65-.42-1.19.37.29 1.12 2.16 1.66 2s-.48-1.16.08-1.4c.72-.1.45 1.43.9 1.27a12.75 12.75 0 00-.22-2.16c-.36.23-.63.16-.79-.19a1.85 1.85 0 011.59.13c.6.6-.19.52.18 1.07s-.51.44.26.81c-.19-.09.81-.36.11-.44a7.1 7.1 0 00.88-.53c.19-.49.42-.63.69-.43a.87.87 0 00.5.15c.33-.25-.74-1.72.33-1.52.5.09.15 1.17.39 1.17.81 0 .08-1.48.46-1.78.93-.7.41.92 1 .92.41 0 .23-1.23.39-1.45s.77-.31.9-.42c1.26-1.06 2.46-.82 3.72-1.41.44-.21.58-.86 1.08-1.09s1.23.18 1.8 0 .79-.59 1.26-.67c.29 0 .62.28.91.22s.65-.06.92-.14a10.2 10.2 0 01.95-.79.68.68 0 01.67.16c.18-.06 1.35-.51 1.48-.52.69-.1 1.1.2 1.75.17 1 0 2.93-1.84 3.78-.23.37.7-1 2.55 0 2.86-1 .75-1 2.45-1.31 3.52-.49 1.61-1.14 3.11-1.5 4.77a57.52 57.52 0 01-3.16 10.64c-3 7-9.48 11.35-13.23 17.86-1.55 2.69-2.75 5.69-6 6.66s-6.43.44-9.55 2a18.19 18.19 0 00-4.16 2.6c-.87.83-1.15 1.7-2.18 2.3-1.28.74-1.48.63-2.13 1.89a13.71 13.71 0 01-1 2.23c.7 0 1.46-.88 2-1.18a11.88 11.88 0 013.41-1.12c.49.45-2.79 2.52-2.88 3.05 0-.29 3.64-1.11 4-1.22s1.32-.53 1.75-.35c1 .46.23.48 0 1.09-.14.41-1.1 1-.37 1.38.36.19 1.89-.69 2.27-.76 2.63-.49 5 1.42 7.69 1 1.29-.19 2.42-1 3.7-1.18 1.47-.22 3.14 0 4.64-.05 2.53-.16 4.78.84 6.86-.95 1.55-1.35 3.18-1.61 4.84-2.74a10.62 10.62 0 001-.8c-.25.1.23-.39.31-.44s.37.73.7.54a10.07 10.07 0 00.83-1.13c-.06.07.53 0 .59 0 .27-.17.31-1 .46-1.23 1.13.85.44-.22 1.15-.34.21 0 1.06.28.93.53.41-.77.56-1.64 1-2.4.42 1.35.51 0 .95-.14a8.68 8.68 0 001.19-.5 24 24 0 004.05-3.79 16.22 16.22 0 011.53-1.16c.27-.24.2-.82.54-1.09s.86-.17 1.18-.42a9.29 9.29 0 001.28-1.22 10.75 10.75 0 011.83-1.19c.63-.46 1.15-1.14 1.79-1.63.87-.65 1.89-.81 2.68-1.64s1.47-1.62 2.37-2.49c.4-.4 1-.55 1.33-1s.36-.81.88-1.25a14.21 14.21 0 013.19-1.73c.38-.19-.39-1.12-.28-1.41-.06.15 1.35-.84 1.22-.74 1.49-1.19 2-2.58 3.08-4.07s2.13-4 3.69-5.27c1.84-1.47 2.89.28 3.92 2 .38.62.61 1.88 1.09 2.36l1.07.14a9.51 9.51 0 01.85 1.05c1.3 1.27 2.67 1.88 3.72 3.16a13.42 13.42 0 003.75 3.68c1.95 1.17 3.27 2.74 5 4.19-.39-.33.24.74.45.94.63.59 1.45.71 2 1.4 2.33 2.71-.22 3.67-2.57 3.72-5.19.11-9.79 4-12.25 8.4.32.39 2.5-1.92 2.65-1s-2.55 1.59-2.55 2.56c0-.13 2.85-1.19 3.08-.75.32.59-2.55 1.33-2.21 1.7.52.57 1.65-1 2.07-.45a1.14 1.14 0 01-.3.75c.16.13 1.65-.85 1.82-.91a7.72 7.72 0 012.4-.11 48.62 48.62 0 006.6-.49 30.34 30.34 0 015.64.09c.75.05 1.5 0 2.23 0 .52 0 1 .31 1.43.21s.75-.63 1.19-.78c.6-.2 1 .17 1.72-.09a7.87 7.87 0 003.39-2.44c1-1.32.78-2.75 1.6-4a17.31 17.31 0 001.2-2l.35-.32c.52 0 .64-.33.36-.85a19.78 19.78 0 002.16-4 .58.58 0 00.51-.4 4.22 4.22 0 01-.18-.45 4.93 4.93 0 00.1-.87c.23-1.63.86-2.44.12-4.21-.55-1.3-1.11-2.49-1.59-3.8-1.27-3.49-3.23-6.79-4.57-10.27a14.81 14.81 0 01-.89-2.63c-.14-.87.42-2.23.57-.68.25.25 2.54.11 3.17.15s1.17 0 1.76 0c.28 0 1.29.21.83.23.62 0 1.23-.19 1.84-.25l.38.38a2.49 2.49 0 01.69-.4 7.46 7.46 0 012.19-.14 2.35 2.35 0 001.42.64 20.91 20.91 0 012.15-.14c.14 0 .8.4 1 .44.33.09.13.4.51.44s.69-.52 1-.57c0 .17-.43 1.44-.07 1.44.6 0 .32-1.23.92-1.29.8-.08-.34 1.11.09 1.4.76.51 1.06-4.37 1.57-.51.29.23 1-1.29 1.17-1.29.66 0 .26.75.15 1.28.33-.76 2.84-2.2 3.33-.6.08.26-1.58 5.55-1.21 5.48.86-.15.36.66.36 1.17s-.14 1-.15 1.45.44 0 .44.25c0 .73-.68 1.38-.73 2.16a24.18 24.18 0 00.62 3.53c.2 1.92.66 3.81.75 5.73.08 1.45 0 2.9.11 4.35 0 .57-.14 3 .65 2.65.55.3-.76 2.72-1.11 3-1.43 1.24-4.8.55-6.53.63a20 20 0 00-9.74 3c-1.28.77-4.93 2.48-5.11 4.2-.15 1.49 1.39-.94 1.43-.94 1.34 0-.82 2.13-.7 2.65.72-.61 1.75-1.84 2.85-1.39-.11.34-1.3 1.66-1.11 2s1.79-1.62 1.91-1.8c.76.78.59 1.36-.13 2.11.34.5 4.6-2.78 2.65.55 0 .07 1.4-.31 1.4-.82.37.49 2.45 1.1 3.11 1.32a12.12 12.12 0 004.69.21c2.62-.19 4.57.2 7.09-.24 3.71-.65 7.59-.14 11.26-.89 1.05-.21 2.16-1 3.18-1.13.1 0 1.22.86 1.22.25-2.45-.75 6.73-10.14 7.34-11 .95-1.32 2.2-4.16 4-4.95.18-.08 1.15-.08 1 .06.26-.18.39-.57.67-.78 0 0 1.29-1.19 1.24-1.13.22-.24-.18-1 .1-1.23s1 .85 1.91 0c.4-.38.17-1 .34-1.2.43-.56.46-.19.91-.56a17.16 17.16 0 002.06-1.63c.6-.67.85-1.5 1.69-2s1.4-.07 2.29-.77 1.83-2 2.94-2.65c.35-.2 1-.28 1.25-.45s.29-.67.63-.93c.64-.48 2.49-1.85 3.14-1.09.1.12.36 2.09.57 1.91-.06.06.45 1.1.38 1.31a.12.12 0 01-.12-.08c.13.15.37.52.57.59.75.27 1 2.37 1.85 3.28.27.29.59.44.83.7-.14-.15.94.83.84.88.38.13.86.06 1.16.24s.45.78.79 1a12.67 12.67 0 003.89 2c.32.06.84-.36 1.06-.28s.2.64.44.75a22 22 0 002.31.84c2.57.76 4.87 1.65 7.64 1.76s4.61.33 6.56 2.33c.86.87 1.35 1.25.34 2.54a5 5 0 01-3.34 1.51c-2.94.43-5.66.64-8.13 2.55.76-.61 1.21-1.63 2.12-2-1.53.71-2.55 2.44-3.81 3.53s-3 2-2.94 3.86c1.24 0 1.5-2 2.93-1.94a19.56 19.56 0 01-1.61 3.24c.31 0 2.74-2.2 3-1.24.21.75-1.42 1.31-1.62 1.92-.07.23 2.51-.67 2.78-.71 1.82-.29 3.46.64 5.2.94 1.92.34 3.87-.09 5.8-.16.6 0 3.88.57 4.28.27-.62.47.42.08.78-.15.07.79 1.6-.58 2-.81.73-.42 1.43-.83 2.13-1.31 1.74-1.22 3.42-2.44 5.24-3.54.77-.47 1.47-1 2.21-1.52.28-.19.72.14.9-.07.45-.55.36-2.11.54-2.78-.66-3.4-.6-6.12-2.03-9.34z" fill="#584528"/><path d="M212.84 194.67a.83.83 0 010 .22.23.23 0 000-.22z" fill="#584528"/><path d="M192.47 164.14c-.83-.52-1.12 1.76-.22 1.5.25-.07.49-1.34.22-1.5zm2.76 1.47s-.07-.9-.09-1c0 .27-2.66 2.51-2.41 2.78.71.75 2.44-1.08 2.5-1.78z" fill="#fff"/><path d="M192.22 166c-1.74-.53-.15-1.39-.2-2.27-.06-1.12-.65-.89-1.39 0s-1 2.11.12 2.75c.5.34 2.56.37 1.47-.48zm216.53 66c0-.63-3.58 1.4-3.77 1.63.95-.32 3.96-.39 3.77-1.63zM209 238.09a27.86 27.86 0 014.67-1c-.82-2.27-3.82.03-4.67 1zm114.4-8.2c-1.49.24-3.42.67-4 2.29a13.82 13.82 0 014.59-1.53 4.83 4.83 0 00-.62-.76zm-118.16 7.23a14.12 14.12 0 013.16-1.33c-1.19-1.19-2.48.02-3.19 1.33zm-.2-3.79a3.54 3.54 0 00-2.78 1.55c.85 0 2.89-.73 2.74-1.55zM206 234.27a3.55 3.55 0 00-2.95 1.34 12.83 12.83 0 013.26-.84zm115.81-5.69a3.74 3.74 0 00-3.16 2.2 15.92 15.92 0 013.74-1.62zm85.4 2.19v-.38c-1.47.31-3.45.59-4.25 2.06.77-.18 4.32-.52 4.25-1.68zm-3-1.38c-.68-.58-2 .82-2.19 1.38a17.34 17.34 0 012.58-1c-.42-.07-.55-.18-.44-.38zM324.89 230.87c-1.1.52-2.53.87-3.05 2.11 1.13-.49 2.29-.93 3.45-1.33a3.59 3.59 0 00-.4-.78zM324.26 233.75c1.31.1 2.62-.32 3.9.16.45-1.97-3.08-.91-3.9-.16z" fill="#fff"/><path d="M194.83 183.26c-2.34-.23-4.89-.66-5.85 1.79a9.48 9.48 0 01-1.41 3c-.53.67-1.62 1.6-.91 2.48 1 1.29 3.35-.3 4.08-1.12s2.19-4 3.11-2.92c.39-.04 1.15-2.8.98-3.23z" fill="#b71234"/><path d="M218.8 183.12c1.18.47.22-1.71-.08-2.09-.59-.54-.58 1.82.08 2.09zM203.91 184.67c.62-.7-.69-2.22-1.16-2.2-.93.05.25 2.47 1.16 2.2zM201.27 186.29c-1.49.07-.32-.82-.11-1.28s.9-1.59.39-2.34c-.68-1-.82.08-.8.39s-1 1-.86.7c-.3.76-.17 3.67 1 3.91.2.05.25-.6.35-.56-.23-.09 1.31.27.9.35.93-.18.92-.31.51-1.61.16-1.27-1.16.43-1.38.44zM196.56 174.47c-1.31.36-1.09-.66-1.42-1.43a3.27 3.27 0 00-2.06-2.09c-2.11-.75-2.68 2-4.67 2.31-.85.13-1.61-.44-2.43-.42-.36 0-.74.38-1.28.55-1.72.53-.86 0-1.33-1.06a8.89 8.89 0 01-1-1.18c-.6 0-3.94 4.64-4.52 5.2-1.5 1.47-4.48 5.68.05 3.74.59-.26 3.24-2.86 3.89-1.71.4.71-1 1.46-.57 2.25.59 1.07 3.32.53 4.31.63.82.08.52-.2 1.37.2-.15-.07 1.38 1.45 1.28 1-.4-1.75-.48-.78 1.06-1.16.9-.23.76-.89 1.83-.68.24 0 1.39 1 1.58.82.74-.69-1.83-1.37-.85-2.26.68-.62 1.38.66 2.2-.3.57-.68.24-.63.08-1.3-.32-1.33-1.22-.67.27-1.68.63-.43 2.21-.35 2.54-.66a.72.72 0 00-.33-.77zM205.17 187.59c-.81 1.57-.21-2.08-.17-1.72-.14-1.27-1.16 0-1.32.73s.12 2.26.87 2.59c.91.39.84-1.34.88-1.75-.05.17-.14.23-.26.15zM205.43 187.44v-.09s.01.03 0 .09zM170.1 181.12c-.5-.24-2.64 1.25-2 1.69s2.72-1.33 2-1.69zM240.84 164.05c.36.49 0 3 1 2 1.41-1.35-1.74-4.29-2-5.55-.11-.4-.66-1.41-1.15-1.42-.84 0-.31 1-.27 1.48-1 .16-1.09-1.28-1.4-1.87-.46.43.06 1.22-.37 1.58-.1.09-.92-.53-1-.58.38 1.65-1.47 1.32-2.34 1.86s-.66 1.55-1.47 2.24c-1.26 1.06-.62-.13-1.46-.63-1.28-.77-.53 1.18-.16 1.91.27.52 2.71 6.83 3.3 6.13.25-.29-.91-2.23.14-1.85.31.11.83 1.8 1.12 1.6.74-.52-.87-2.13-.18-2.37s.44.86.71.89c.72.08 1.36-1.57 1.22-2 .9.13 3.29 1.9 2.7-.32.69 0 1 1.62 1.51.39a6.5 6.5 0 00-.36-1.63c-.07-.49-.72-3.47.46-1.86zM195.54 163.66c-.26.91.6.37.78.89.48 1.38-.9 2.68-2.18 3.2a5.64 5.64 0 01-2.28.22 15.22 15.22 0 01-2.5.36c-.29-.07-1.2-.55-1.28-.86-.2-.89.38-.19.77-.46.08 0-1.08-2.24-1.59-2.26-1.53-.07-.39 1.36-.35 2.09.08 1.48-.51 1.5 1.22 2.51.24.14 2.41 1.18 2.41.84s-.75-.51-.71-.92c.06-.69 2.07.29 2.16.3.53.08.56-.28 1.21-.09.32.09.77 1.05 1.15.85s-.33-.83-.27-.86c.9-.46.39 0 1 .22 0 0 1.16-1.07 1.25-1.21.53-.78.14-.39.36-1.07.43-1.35.68-1.89 0-3.19.11-.48-.99-1.14-1.15-.56zM191.47 144.67a7 7 0 002.87-1.88c.73-1.06.67-1-.6-1.81s-1.62-1.08-2.21.3c-.28.65-.99 3.1-.06 3.39zM205.58 137.37a4.9 4.9 0 001.58.72 8.36 8.36 0 001.24 0c.79.57.25 1.71.82 2.32.28.3 1 .3 1.36.35a12.25 12.25 0 001.59 0c.07 0 .23.57.35.53.77-.22.84-3.56.48-3.61-.84-.1-.75 1.18-1.69 0-.31-.4-.39-1.07-.65-1.4-.11-.14-.9-.76-1.15-1-.76-.68-.69-.51-1.48-.68a7.24 7.24 0 00-1.56-.15c-.29.07-2 1.12-1.4 1.26s.27 1.35.51 1.66zM307.75 200.7a1 1 0 01.22 0 .54.54 0 00-.22 0zM308.14 208.71a11.66 11.66 0 01-1.43-4.59 1.54 1.54 0 01-.15-.9.94.94 0 01.83-.55s.23-.89.14-.72-.44-1.1.07-1.24c-.4 0-.86.27-1.19.14-.77-.31-.15-.08-.65-.48-.32-.27-.38-2.43-1.31-.42-.09.2.68 3.6-.81 2.63-.81-.53.08-2-.44-2.64-.33-.42-1.22-.94-1.69-.48-.73.69.28 1.22.4 1.75.32 1.51-.44 1.79-1.35.49-.57-.82-.3-1.84-1.44-1.1a2.15 2.15 0 00-.53 1.74c.07.49.92 1.22.9 1.55-.05.68-.73.78-.76.89-.19.8.31 1.54.15 2.33 0 .18-.53.41-.62.8s-.54 2-.07 2.38c-.19-.15 1.1-1.85 1.67-1.69.81.22.63 2.46.65 3 4.07-1.42.94 1.39 1.43 3s1.47-.11 2.53.05c1.8.28 1.09 2.78 2.25 3.26.62.26 2-1.36 2.4-2 .2-.29 1.74-2.83 1.93-1 0 .27-1.88 1.85-.57 1.81 1.83-.06 1.42-3.58 1.14-4.49-.78-1.46-2.62-2-3.48-3.52zM205.33 167.75c1.15 1.15 1.28-1 0-.8-.66.1-.33.49 0 .8zM307.6 200.71zM297.17 207.27c1 .22.58-.9.37-1.44.02-.83-1.76 1.17-.37 1.44zM169.45 183.37a.53.53 0 00-.7 0c-.28 1.34 2.9.63.7 0zM182.8 165.83c-.87-1.23-2.12 2.75-2.48 3.34-.52.84-4.28 4.33-3 5.38 1.03 0 6.33-7.55 5.48-8.72zM408.81 191.64c0-.52 1.84-.1.12-1.12-.77 0-.12.95-.12 1.12zM192.87 187.57c-.3.32-3.11 5.57-3.35 5.37.38.33 1.44-.37 1.74-.58.91-.64.69-.9.87-1.72a4.08 4.08 0 01.49-1.62c.23-.43 1.21-1.1.25-1.45z" fill="#bd8a5e"/><path d="M226.12 170.82c-.13-.71-.75-1.27-.92-1.94-.09-.35.6-.27.41-.73-.27-.64-1.5-1.2-2-1.75a7.12 7.12 0 01-1.55-2.74c-.16-.59.07-1.41-.09-1.89-.33-1-1.1-1.08-1.67-1.87-.36-.5-.35-1.25-.77-1.7-.62-.66-1.19-.47-1.9-.79-.91-.41-.88-.54-1.34-1.51-.38-.8-.72-2.56-1.45-3.05-1.47-1-.3 1.35-.32 2a6.44 6.44 0 01-1 2.62c-2.32 1-3-1.64-4.77-2.37-2-.82-.24.39-.88.7-1.17.56-1.48-1.2-2.73-.88-.09-.91 1.46-.44 1.88-1-.44-.47-2.09-.13-2-1 2 .28-.75-4.58 3-2.9 1 .47 1.22 1.07 2.43.74 1.9-.51 1.27-1.39.09-2-2.19-1.23-4.77-2.42-5.57-5-.22-.7-.22-1.39-.49-2.09s-.6-.82-.54-1.52 1.29-2.92-.3-1.66a5.23 5.23 0 00-1.12 3.3c.1 1.56 1.39 3 .9 4.6-.08.25-.74 1.58-1.17 1.53-1.21-.12-.25-.82-.4-1.3s-.6-.61-.65-1a8.83 8.83 0 01.12-1.41c-.69-1.67-1 .18-1.18.91s-.84 2.54-1.74 2.83c-2.34.76.74-5-.67-4.79-.52.06-.53 1.51-1.23 1.61s-.39-1.26-1-1.07c-.35.12-.36 1.58-.48 1.92s-.25 1.05-.69 1.35c-.25.17-.75 0-.83.05-.26.18-.15-.38-.52 0s-.21.66-.32 1c-.21.65 0 1.7-.67 2.16-.86.59-.81-.9-1.6.63-.14.28.27 2-.6 1.45-.42-.27.14-1.23-.18-1.51a18 18 0 00-.64 3c-.23 1.34-1.11 1.91-1.45 3.1a4.08 4.08 0 00.32 2.91 20 20 0 002.91 1.19c-.12 0 .41-1 .52-1.11.35-.27.65.36.83.27.67-.33 0-1.83.13-2.27.37-1.09.89-.32 1.25-1 .59-1.07.38-2.6.6-3.85.11-.67.88-2.14 1.58-2.33 2.16-.61 0 1.84-.09 2.41-.17 1 .62 2.13.69 3.13 0 .43.47 1.28-.19 1.54-.37.14-.46-.71-.62-.68-.7.14-.75-.17-.45 1.07.15.62.51.37.5 1.06 0-.24-1.35.19-.76.68.42.34 2.55 0 1.21 1.51-.7.77-1-.13-1.5-.14-.27 0-.8.14-1 .12-2-.18-3 .47-.41 1.2 1.35.38 2.56.55 3.59-.32-.22.19.43-.79.48-.83a5 5 0 011.1-.83c1-.56 2.6-1.08 3.6-.3.57.45 1.33 2.22.63 2.89a7.39 7.39 0 01-1.08-.84c-.78 1.88 3.54 3.53 4.77 3.78 1.06.22 2.07-.1 2.79.81 1 1.31-.55 1.14-.56 1.09.21 1.07 1.24 2.05.57 3.12-.81 1.31-1 .38-1.71-.2s-1.28-1.79-1.36-.1a15.41 15.41 0 00.41 2c.67 3.66-.66.07-1.41 1.16-.27.39 1 1.93.34 2.26-.38.21-1.57-1.31-1.76-1.46-1.77-1.4-3.44-.42-1.11 1.41a5.46 5.46 0 001.74.91c.46.2 1.42.45 1.59.91.47 1.22-.53.67-1 .63-1.12-.09-1.09-.52-1.79-1s-3.55-2.89-4.4-1.6c.27-.41 2.05 3.18 2.29 3.48 1.16 1.41 1.72-.16 2.74.52.49.33.06 1 .29 1.39.69 1.16.4.27.86.23s.65-.6 1.39-.37c.37.11 1.56 1.39 1 1.8s-1.34-.91-2 .22c-.27.5.7 1.33 1 2s.27 2.44.87 3 1.57.38 1.51-.75c0-.51-2.11-3-1.17-3.7s1.64 1 1.82 1.5c.38 1.09.45 1.86 1.76 1.82.41 0 .47.67.86-.1.25-.51-.65-1.32-.25-1.84.6-.77.55.27 1 .36.77.19 0 .32.9.22 1.67-.19.71-1 .95-2.07.63-2.68 1.18 1.64 2.1 1.57 2.74-.21-1.65-5.36 2.31-5.31.82 0 2.49-.53 3-.12.23.2.47 2.8 1.22 1.63.48-.74-1-2.54-1.07-3.3s.44-1.43.45-2.21c0-.61-.49-1.25-.44-1.86.14-1.6.8-.46 1.15.58.14.44.45 4.34 1.52 4.05.44-.12.1-2.54.12-2.91s.36-.66.37-1-.43-.68-.39-1c.28-2.93.94 1.25 2.28.68.24-.1-.94-1.79-1-1.93-.1-.92.38-.88.21-1.81zm-23-23.47c.86-.94 2.18 1 2.51 1.52a13.56 13.56 0 00-1.5-.79c-.13-.08-1.22-.45-.97-.73zm3 33.35c-.38.44-1.94-.14-1-1s1.38.18 1.05 1zM228 150c0-1.42.68-2.95 1.27-.74.14.51-.13 5 1 4.68.64-.15-.06-2.31.62-2.4s.68 2.09 1.18 2.32c.21.1-1.17-5.49-.51-5.82s1.55 2.93 2 2.6-.82-2.26-.36-2.86c.7-.9.68.43 1.12.37s.84-.52 1.13-.72c.08-.05.39.23.62 0s.19-.51.35-.68a5.56 5.56 0 00.92-1.35c.72-1.75-.28-1.48 1.46-2.16s1.08-.43.33-2.09c-.4-.86-.07-1.34-1-2.05-.46-.37-2-.67-2.21-.93-1.64-2 7-7.54 3.9-10.56-1.46 1-.48 5.07-2.66 5.28.1-.73-.33-2.38-1-2.74-1.67-.86-.83.93-1.51 1.57s-.83-.68-1.64.16c-.49.52-.09 2.13-1 2.28s-.82-1.6-1.67-1.34c-.65.2-.16 1.77-1.08 2a19.3 19.3 0 00-1.94-.79c-.72-.78 1-3.34-.49-3.94.09 0-.38 4.81-.47 5.24a8.22 8.22 0 00-.34 2.24c0 .38.46 1.36.23 1.71-1.4 2.12-1.24-5.69-2.48-3.25-.47.92 1.26 2.06-.21 2.41-.42.1-.63-1.61-1.1.43-.32 1.35.45 3 .32 4.34-.07.83-1.94 4.24-1.28 4.85-.15-.14 2.11-1.42 2.27-1.44 1.8-.32 1.17 1 1.41 2.7a5.68 5.68 0 00.7 2.15c.23.17.33-.27.41-.24a1.43 1.43 0 01.91 0c.17.09-.52.94-.21 1 1.01.31 1.01-1.74 1.01-2.23zM419.66 208.74c.67-.81 2.78 2 2.88 1.94.33-.36-1.35-2.77-1.75-3s-1 .44-1.36 0c-.77-.89 1.07-.8 1.14-1 .48-1.19-3-1.32-2.38-2.68.27-.6 2.49.5 1.49-.62s-2.4.9-2.65-.24.61-1 1.18-1.52c.12-.11.71-.87.75-.89.5-.26 1 .52 1.15-.32 0-.32-1.06-1.35-1.31-1.48s-.43-.55-.64-.49c-.48.11 0 .87-.15 1-.27.23-.12.34-.49.59s-.73 0-1 .24c-.28-.63-.32-1.6-.53-2.25a1.5 1.5 0 01-.71-1 .85.85 0 01.36-.69c0-.45.62 0 .32-.63-.46-.93-1 .07-1.33-.38-.77-.94.71-1.68 1.7-1.28.27.11 2 2.16 2.07 2 .47-.75-.47-3.24-1.15-3.75.07.05-1.54-.17-1.51-.57-.15 1.56-1.58.31-2.62-.35-.42-.26-3-.93-1.74-1.6-1.9-1.5-.73 3.17-.54 3.68.83 2.19.05 2.11-1.05.4-.34-.54-1.69-3.51-1.79-1.35 0 1 2.58 3.63.95 4.33-.9.39-.44-1.87-.74-2.07-.66-.46-.64.58-.78.56-1.43-.26-.21-1.63-1.22-2.39-1.18-.89-.83 1.48-.53 2.13s2.62 3.33 1 3.19c-.52 0-1.27-1-1.53-1.41-.7-1.08-.25-.58-.09-2-.75-.48-2.2 1.34-2.2 1.91 0 1.28 1.67 1.54 1.32 3 0-.26-1.52 1.53-.95 1.14-.44.3-.23 1-1 .4-.59-.45-.08-1.77-.15-2.35a1.94 1.94 0 00-.51-1.44c-.77-.7-.56-.27-.88.23-.07.1.15.59.09.78s-.57.33-.63.53a4.29 4.29 0 00.08 3 21.64 21.64 0 011.1 2.64c.21 1.11-.11 1.6.54 2.38.25.29.49-.33.89.63.1.25-.27 2.18.53 2s.36-2.62.65-3.11c.78-1.31.68-.14.68.64 0 .62-.35 1.3-.08 1.93.64 1.46.65-.11.82 0s.46.81.69.88.61-.2.76-.16 1.51.3 1.31.4c.58-.29.38-3 1.24-1.58.34.57-.41 3.23.84 3.06 0-1 .14-4 1.09-1.92.25.56-.34 1.84.76 1.42.15-.06-.33-2.39.66-2s-.11 2.42 1.22 2.81c1.61.48 1.25-.92 1.67-1.87 1.69-3.74 1.12 2.88 1.8 3.24.18.1.36-2 1-1.78s.3 1.79.42 2.18c.47 1.54 0 .59 1.06 0a7 7 0 012.26-.16c.46-.36.24-.91.61-1.29-.02-.53-4.17-2.38-3.09-3.64z" fill="#bd8a5e"/><path d="M203.94 170.21c.89.86 1.26-1.14-.14-1.3-.91-.1-.59.8.14 1.3zM285 167.7a.14.14 0 00-.11 0zM302.82 188.43a1.25 1.25 0 00-.26.64c.08-.02.17-.27.26-.64zM294.59 161.91v-.1zM323.67 182.44v-.19c-.02.09-.03.16 0 .19zM323.45 166.42a.8.8 0 01-.05.19.48.48 0 00.05-.19zM330.43 176.5a.6.6 0 00.05.16s-.03-.11-.05-.16zM330.33 175.67a2 2 0 00.1.83 3.77 3.77 0 00-.1-.83zM294.62 161.81a.57.57 0 010-.14.47.47 0 000 .14zM257.56 122.53a.5.5 0 01.11-.19.5.5 0 00-.11.19zM358.25 193.11c-.26.44.42 1.83.51 2.3 0-.24-.08-2.84.38-2.78s.91 2.32.68 2.65a20.54 20.54 0 00.27-4c1.46.89-.74 3.75.56 4.79-.22-.18.62-2.89.68-3.25.32-1.84-.38-3.35-.38-5.16.3-.28 1 2.7 1.31 2.7.86 0-.38-4.11-.12-4.59.55-1 1.13 3 1.29 3.34.87 1.87.88.17.66-1-.1-.51-1.62-4.3-1.26-4.62.77-.69 3.53 9.63 2.91 9.63 1.19 0-.75-12-.36-12.47 0 0 2.3 6.7 2.41 6.66.62-.2.23-1.72.19-2.08a21.29 21.29 0 01.2-3.11c0-1-1.23-3.49 0-4.13-.24.12 1.47 3.79 1.6 4.19l.06-1.54.12-1c-.08.12.46 1.12.51 1.32a8.11 8.11 0 00.32-3.21c-.07-.63-.63-1.78-.44-2.37.52-1.57.65 1.18.79 1.13.69-.94.54 3.4.52 3.91s-.44 5.08.32 5.21c1.84.32-.51-8.95.83-9.84 0 0 .33 3.5.34 3.79 0 .53-.21 3.14.7 2.1.74-.86.09-3.72 0-4.7a31.49 31.49 0 010-7.13c.3 2.85.55 5.71.7 8.57 0 .58-.14 3.44.83 2.58 1.34-1.19-.26-6.37-.27-8.18a27.74 27.74 0 01.18-4.37c.05-.37.48-2.43.89-1.09.08.26-1.26 3.53.51 2.7 1-.49.09-2.89.5-3.75-.27.57.82 6 1 5.91.74-.26.17-5.58-.2-6.24a8.3 8.3 0 01.66 3.85c.41-1 .9-2.35 1.2-3.05a5.9 5.9 0 00.26-3.19c.16.43.32 1.77.82 2-.13-.06.52-4.32.56-4.77 0 .7-.19 5.2.7 5 .42-.11 1.06-4.89.88-5 1.21.66.61 4.26.7 5.39.06.7 1.16 4.32.8 4.71 1-1.12.39-2.73.11-4-.1-.43-.93-3-.59-3.34.07-.07.33.33.41.32 1.35-.08-1-4.59-.09-5.16 0 0 1.39 4.28 1.48.54 0-1.34-.23-2.61.65-3.93.45-.25.42 2.27 1 2.09.21-.07-.12-2-.06-2 .83.15 1 3.62 1.35 4.31 1 1.86 1.34 1 1-.47a10.17 10.17 0 01-.6-2.29c0-1 .71-1.91.63-2.8s-.68-1.37-.83-2.23c0-.21.11-1.86.26-1.77a3.27 3.27 0 01.55 1.59c.43-1.05.69 1.63.72 1.91.17 1.45.25 2.92.38 4.38.06.71.08 3.12 1.14 1.52.92-1.38-.85-2.84-.92-4.18 0-.16 1 .79 1.07.74.35-.65-1.4-7.9-1.44-7.9.39 0 1 1.72 1.08 1.67 1-.63-.22-3.54-.33-4.27.8 2.32 2.87 3.87 3.9 6.08.75 1.61.68 4.43 1.81 5.72-.23-.13-.56-4.8-.94-5.59s-3-6-2-6.6c.53-.35 3.56 5.84 1.86 5.17-.22.13.69 1.23 1.3.34.37-.52-.55-2.29-.7-2.8s-1.39-4.31-.87-4.83c.32-.28 3.41 7.49 3.95 7.64 1.15.31-.79-3.43-1-4-.33-.77-2.41-4.57-1.48-5.39.28-.24.87 2.47.9 2.59s1.57 4.3 1.75 4.08c1.1-1.32-1.28-5.33-1.69-6.64-.13-.43-.37-2.86-.66-3a5.31 5.31 0 011 1.61c-.06-.66-.21-2-.07-2s3.34 7.87 3.72 7.63c1.33-.86-1-5-1.49-5.95-.75-1.42-1.61-2.8-2.38-4.22a7.47 7.47 0 00-1.32-2.09c-.3-.26-1.26-.2-1.35-.68.06.31 1 2.06.62 2.26 0 0-2.28-4.14-2.05-4.56a3.7 3.7 0 00.06 1.84c-.38-.38-1.47-3.9-2.15-3.62s1.15 2.46.68 2.83-1.23-2.22-1.33-2.59-.59-3.16-1.53-2c-.5.63 1.44 2.28.91 2.78-.22.21-1.49-2.77-2.09-2.29-.79.63 1.51 2.71.86 3.52a49 49 0 00-2.4-4.56c.5 1.17.56 5 1.4 5.18-1.38-.24-1.15-3.17-2.15-4a2.37 2.37 0 01-1.12.06c-.65-.36-.95-1.47-1.72-1.61.32.06 1.48 3.44 1.68 3.92-.85-.47-1.39-1.4-2.27-1.81a6.18 6.18 0 00-.91-.5 1 1 0 00-.33.36c-.41-.18-1.91-1.83-2.33-1.57-1.1.68 2.52 2.2 2.72 2.32a6.26 6.26 0 012.62 4.62c0-.33-2.32-4.1-2.69-4-1.13.39 3.21 5.26 2.7 6.3.12-.23-2.22-3.41-2.49-3.82-.93-1.44-2.78-4.17-4.46-4.81a6.12 6.12 0 00.2 1.76c.45.84 1.49 1.07 2.12 1.77s1.41 3.37 2 3.87c-.74-.58-2.6-4.53-3.17-3.91-.33.36 2.15 5.06 2.63 5.06-.88 0-2.51-3.33-2.89-2.54-.55 1.16 2.79 3.61 3.5 4.42.4.45 2.81 3.27.95 3-1-.13-2-3.1-3.09-2.85-.33.07 1.06 2.1 1 2.29s-1.3-.95-1.45-.76c-.7.91 1.77 2.36 1.77 3.29 0-.12-.93-.47-.93-.45-.22.5.08.47.22 1 .22.86 1.77 1.93 1.14 3 .25-.42-1.93-4.12-2.21-4.65a14.87 14.87 0 00-2.26-3.19c-.24-.26-1.17-1-1.65-1.5a3.79 3.79 0 00-.29-.45c-.81-1.11-2.08-2 .69-.74 3.05 1.35.84-2.57-.05-2.79 1.24.31 2.3 2.07 1.6-.48-.11-.4-1.38-3.23-2.08-2.06-.18.29 1.7 2.53.37 1.71-.77-.47-1.63-2.88-1.55-3.74 0 .25 1.25 1.16 1.47 1.41a8.86 8.86 0 00-1.71-3.53c-.15-.22-1.74-2-1.62-2.33a16.13 16.13 0 00.68 2.9c-.9 0-.7-2.13-1.48-1.76-1 .48.52 3.68.63 4.34-.28-.55-1.27-4.73-2.18-4.39-.73.27.44 2.84.13 3.41a20.31 20.31 0 00-1.52-3.46c-1.76-1.44-.7 1.38-.41 2.16.49 1.27.62 2.39-.56.61-.8-1.19-.81-3.81-2-4.6-1.48 1.28-.35-.64-1.58-.81-.6-.08 1 2.72 1.23 3.09.39.76 1.07 3.3 2 3.74-2-.62 1.43 1.62.89 2.45-.32.5-2.15-2.62-2.45-1.61-.19.67 2.16 2.28 1.66 2.87-.69.82-3.52-5.41-4.36-4.74s4.45 5.37 4 6.6-1.85-1.94-2.25-.52c-.24.86 1.39 2.39 1.94 3.32-.49-.59-2.12-1.51-2.05-1.72a33.22 33.22 0 003.2 5.81c-.94-.4-.85-1.6-1.5-2.09a3.48 3.48 0 01-1.4.25c-.93 1.64 2.51 3.86 2.32 5.59-.29 2.62-1.13-2-1.46-2.08-.05 0-.29.77-.51.43a4.56 4.56 0 01-.36-1.68c-.21-1-.38-2.49-1.45-3 .48.22 1.12 6.76 1.76 6.46.1-.2.21-.39.31-.58.55-.44.14 3.63.35 3.79.43.33.92-.46.74-.62 1.47 1.34 1.19 4.34 1.55 6.16.15.74.41 3.78 1 4.62-.19-.22-.46-.54-.65-.35s.19 1.64.45 1.76c.52.25.16.09.64-.27a4.3 4.3 0 00.7-2.82c.08.52.86.91 1 1.46l-.33.32a.69.69 0 00.18 1c.07.85 1 4.06-.74 4.12-.39 0 1.37-3.81.07-3.95-1.59-.18-.39 3.88-1.9 1.23-.43-.76-2.05-4.19-1.56-1.25.15.9 2.57 4.05 1.26 4.79.88-.52-2.72-6.24-1.84-2 .17.78 1.69 2.81 1.15 3.57s-1.25-2.07-1.34-1.95.59 2.62.2 2.62c0 0-1.66-3.48-1.79-3.69-1.11-1.8-.54-4.07-1.61-5.87-.86 2.12.22 4.71.5 6.85.95-.94 3.33 4.71 2.48 5-.37.11-2-4.13-2.22-4-1 .89 1.25 3.51.43 4.76.5-.77-1.24-4.69-1.87-3.74-.49.74 1.77 4.66 1.31 5s-1.55-3.31-2.46-2.86 2.43 3.32 1.6 4c.1-.09-2.1-2.27-2-2.43 0 .41 1.55 3.17 1.09 3.39s-1.93-4.14-2.09-4.55c-1-2.57-2.93-4.92-2.93-7.78 1.28-.51.3 3.2 1.8 2.22.32.55.57 3.64 1.31 3.68 1.06.05-.25-3.29-.39-3.81s-1.09-2.85-.79-3.24 2.7 5.22 3 5.77c1.14-.48-.77-4.47-.74-5.28.1-3.08.66 1.15 1.18 1.44-.06 0 0-3.47-.06-3.9s-.46-4.27-.49-4.28c.54.16.72 1.39.91 1.78.58 1.24 1.45 2.32 2 3.58a21.47 21.47 0 00-.94-5.62c-.09-.39-.28-2.47-.33-2.5 1 .6 1.31 2.7 1.63 3.69.67 2.07.32 3.87.48 6 .51-1.3 1.27-2.43 1.17-3.86-.07-1.05-1.21-2.39-1-3.4-.07.3 1.59 2.67 1.79 3.3.77-2.32-1.45-3.81-2.16-5.76a17.53 17.53 0 01-.47-4.53c0-.57-.1-3.51-1-2.58-1.09 1.14 1.3 3.79-.05 4.79a22 22 0 01-1.23-3.5c-1.71.28.73 4.25.21 5.2-.46-.31-.26-1.95-.92-1.65-.3.13-.15 1.67-.19 2-.44 2.71-.94.22-1.07-1.13-.26-2.79-1.28-1.34-1.05.65.16 1.38 1.79 4.18.9 5.43a16.07 16.07 0 01-1.35-3.4c-.16-.81.09-2-.68-2.62-.91 1.2.15 3.23.43 4.51a32 32 0 00.45 3.2c-.43-.21-2.45-5.88-2.33-6.25-.79 2.51 1.17 5.24 1.35 7.73-.54-.48-1.81-5.07-2.36-5s-.18 7-.27 7.8c-.3-.77-1.82-3.42-1.28-4.18-1.09 1.53-.59 4.22-.59 6-.16.11-.51-1.4-.6-1.34a1.36 1.36 0 00-.35 1.08c-.35-1.27-.8-2.39-1.38-1.49-1 1.61 2.62 6.28 1.24 7.5-.08.07-2.36-6-2.08-6-2 .28 2.09 6.9 1 7.86.86-.75-3.17-5.39-2.54-6.46-.72 1.22.24 2.44.53 3.57.2.82 0 2.64.4 3.67-.69-1.45-1.54-4.83-2.18-4.16-1.06 1.1 2.15 5.31.63 6.21a1.63 1.63 0 01-.43-.51 8.12 8.12 0 01-.68 4.16c-.14.16-.35-2.73-.45-2.84 1.3 2.28-.82-3.34-.32-3.75-.43.35-.92 4.8-.75 5.94-.1-.44-.19-1.24-.49-1.24-.52 0 .93 6.83 1.47 7.78-.23-.64.94-3.12.9-4.19.2 1.21.79 5.46 1.19 5.21.84-.52-.12-3.24-.14-3.93a2.46 2.46 0 01.29-1.59c.23-.36.66.46.82.41 1-.28-1.07-3.69-.86-4.21.54-1.39 1 2.19 1.34 2.36.57.31.34-.61.93.62a10.82 10.82 0 01.41 1.83c.14.58 1.05 4.05 1.47 1.88.2-1-.93-2.76-1.25-3.78-.24-.79-1.45-3.58-.88-4.34a31.66 31.66 0 012.2 3.94 18.73 18.73 0 011.31 2.8c0 .14.53.89.45 1.06-.24.49-1.26 0-1.21-.07-.9 1.31-.37 2.57-.23 4 0-.45-2-1.88-1.81-2.2-.5.85 1.56 2.84 1 3.38.19-.17-3.35-5.21-3.28-5.31-.81 1.18 3.88 5.9 2.81 6.76-.18.15-1.78-1.88-2-2.32.08.66 1.28 2.45.76 3s-1.84-1.13-1.82-1.2c-.32.89 1.12 1.48 1 2.31-.21 1.05-.57.3-1.35.14a7 7 0 00.08 1.5c-.1 0-1.64-3.63-1.68-3.57-.29.49 1.4 5.35 1.31 5.36-.28 0-.93-1.2-1.33-2.22.45 1.53 1.11 3.86.46 3.88s-.46-1.48-1.15-1.49c-.94 0-.21 1.36-.08 1.82.67 2.48-.52 1.61-.52-.33 0 .23-.62 1.08-.55 1.24-.31-.69-1-8.93-.26-8.9-2.26-.09-.49 8.41-.35 9.64 0 .36.52 3.48.06 3.45-.7 0-.81-3-.85-3.38-.19-1.73-.19-3.51-.51-5.23-.12-.7-.22-2.08-.84-1s.2 3.82.34 4.92c.1.78.88 3.5.29 4.19-.15.17-1.83-4.41-1.83-4.41-.7 0 .27 3.59-.14 4 .15-.15-.52-1.43-.65-1.31-.37.36-.57 3-.15 3.3-.92-.71-.44-2.91-1.48-.4-.13.32-1.29 4.23-1.23 4.24 1 0 .64-2.65 1.69-2.62.1 0-1.57 3.59-1.37 3.84a1.79 1.79 0 00.4-.09 4.33 4.33 0 00-.31 2.51c.57 1.68.29.28 1.39.1.07 0-.82 2.06-.78 2.32.23 1.51.69 0 1.12-.44 0 .05.33 2.75.31 3.13a54.17 54.17 0 01-1 5.64c0-.16 1.68-4.05 2-4.72-.18.82-.16 6.2-.39 6.13.32.1 2.13-5.77 1.74-6.44.19.34.4 4.06.15 4.22.66-.42-.17-3.61.69-3.61.24 0-.81 8.58-.87 9.44-.38 4.91 1.95-.46 1.16-1.9.41.66.21 2 .29 2.69.33-1 2.15-6.57.68-7.42.26.15-.2 2.75-.51 2.92.48-.28-1-5 .7-4.7.92.14 0 4.14.94 4.42 1.4.42-.33-7.74-.46-8.55 0-.12-.42-7.87-.33-7.85.58.13 1.17 6.15 1.45 6 .94-.44 0-3.21.15-4 .55-2.19.44 1.17.75 1.15 1.14-1.13.26 1.95 1.08 2.28 1.47.61 1.24-2.47.62-2.46s.37 2.75-.52 1.85a6.06 6.06 0 01-.51-3.78c1.36-2.89 1.53 4.92 2 5.11 1.53.59.78-5.71 1-5.85-.27.16-.44 1.32-.2 1.52-.57-.48-1.68-4.71-.4-4.66.17 0 2.34 3 2.36 2.93.09-.33-1.59-6.19-1.92-6.37 1.94 1.05 2.58 6.62 2.64 8.47.13 4-1-1.46-1.36-1.51s.88 8.45.51 8.66a15.81 15.81 0 00.77-4.51c.32.29-.11 5.74.89 4.34.81-1.13-1.44-5.3-.12-6.08.22-.13.65 3.58.72 3.93 0-1.57.28-3.33-.19-4.85-.21-.67-.58-1.23-.73-1.92a22.57 22.57 0 01-.3-4.09c2.23 1.63-.37-5.58-.32-5.6 1.77-.77 1.82 6.75 1.84 7.5.07 2.84.77 5.63.73 8.46 0 1-.44 3 .12 3.82.81 1.19.6-.95.62-1.67a36.19 36.19 0 00-.15-4.54c-.06-.64-.71-7.45-.64-7.45.51 0 .6 1.31.72 2.17 0-.76.33-1.78.29-2.37a4.84 4.84 0 00-.35-1.67c-.08-.18-.42.26-.48.16-.25-.36-.2-4.17-.26-4.18.86.06.9 2.4 1.91 1.43.61-.54-.38-2.32.09-3.13zM388.89 155l-.28.8c-.9-.08-1.93-4.41-1.66-5.31.44-1.45.69-.34.9.56.12.56-.05 1.18.1 1.73.19.68 1.05 1.45.94 2.22zm-.95-6c-.25.53-.36-.64-.13-.69s.12.57.13.69zm-.27-3.88c.05-.12.11-.24.16-.35a.66.66 0 01.47.6c-.19.39-.52-.19-.63-.29zm.54-1.27c2 .72 1.29 2.11 1.65 4.05.08.45 1.22 3.24 1.18 3.29-.78.7-1.82-3.12-1.63-3.16-.86.95-.49-1.44-.6-2s-.91-2.23-.6-2.22zm-.32-10.6c-.38.35-1.56-3.17-1.56-3.6.54-.04 1.49 3.17 1.56 3.56zm-1.63 21.49c-.6-.14-.79-1.5-.76-1.91.25-1.09 1.35 2.02.76 1.87zM382 136.23c.63-.14 1.48 1.12 1.59 1.56-.32 0-1.88-1.26-1.59-1.56zm1.35 22.18c-.16-.27-.55-1.53-.18-1.8.02.01 1.13 1.39.22 1.8zm1.76-1c-.61.4-1.24-3.63-.86-3.63s.36 1 .36 1.14c.01.4 1.01 2.17.54 2.48zm-.59-8.57l-.16.41c-.57-.06-.41-2.05-.44-2.05.57-.01.67 1.29.64 1.63zm-2.89-8.22c.56.11 2.92 3.57 2.46 4-.09.2-2.32-3.49-2.42-4.01zm.35 16.45c.11.31 1 3.2.51 3.2 0-.38-.12-.5-.28-.37a8.69 8.69 0 01-.21-2.84zm-1.19 1.05c.78-.14.17 1.58 0 1.75-.6.35-.08-1.61.04-1.76zm-8.46 15.7c-.12.78-.08-2.16-.06-2.14a4.19 4.19 0 01.1 2.13zm.38-8.14l-.12.61c.07-.18-.52-2.67-.42-2.65.7.1.66 1.55.58 2.03zm3.06-5.44a5 5 0 01-.13 1.35c-.28 0-.4-6-1.14-4.54.12-.53-1.4-2.25.18-1.65.23-.23-1-1.45-1-1.75s1.08.56 1.11.59a4.3 4.3 0 01.74 1.94 13.49 13.49 0 01.28 4.05zm-2.37-14.34c.05-.07 2.32 3.81 1.53 3.85-.58.02-1.36-3.28-1.49-3.86zm.93-.16c-.13-.42-1.58-5.38-1.13-5.53 1.07-.36 1.07 3.45 1.16 3.86.4 1.86 1.86 3.51 1.79 5.48.06-.13-1.75-3.73-1.78-3.82zm3.3 13.85c-.07.23-.13-1.28-.11-1.35.04.42.32.81.15 1.34zm0-6.25c-.15-.46-.37-.81 0-1.14 1.06-.11.21 1.64.04 1.13zm.61 9.51a2.18 2.18 0 01.05-1.26c.25.34-.06 1.16-.01 1.25zm1.05-4.21c-.73 0-.23-2.68-.25-2.69.63.17.58 2.31.29 2.68zm.07-6.59c-.69-.11-.65-1.22-.46-1.58.64-.21 1.21 1.68.5 1.53zm-5.13-19.79c.37.08 1 .47 1.08.89.06.08-1.22-.26-1.04-.9zm1.48 5.81a.72.72 0 00.2-.3c.77 1.53 2.29 2.87 2.88 4.41a25.62 25.62 0 01.9 4.31c-.42 0-1.35-3.81-2.21-3 0 0 .53 2.27.57 2.28-1.48-.58-1.59-4-2.15-5.31-.41-.94-1.82-4.6-3-4.76 1.24.15 1.9 1.77 2.85 2.36zm-2.38.46c1.19 0 4.84 8.45 3.94 9.25-.31.28-1.67-3.48-1.8-3.86a18.37 18.37 0 00-1.2-3c-.28-.49-1.55-1.73-1.38-2.36a.42.42 0 01.48-.04zm-.81 2.48c0-.05.86.95.61 1.19-.49.48-.6-1.1-.57-1.2zm.71 14.87c-.43 0-1-1.3-.66-1.6s.8 1.29.7 1.59zm-.79-10.5c-.64-.05-1.53-2-1.52-2.35.68-.03 2.44 2.41 1.56 2.34zm-2.19-.62c1.18.37 2.73 5.92 2.73 5.92-.7-.01-2.84-5.68-2.69-5.93zm2 7.95c-.09-.13-.17-.26-.25-.39s-.71-1.68-.27-1.68.97 1.97.52 2.06zm-4.38-10.45c.77 0 .33 2.11.26 2.62-.23-.78-.74-1.94-.26-2.63zm1.8 16.62l.07.06zm-.15-4.76c-.11-.47-1.59-5.92-1.63-5.92 1.8 0 2.15 8 2.52 8-.62.02-.82-1.68-.89-2.09zm1-1.84v.11c.15-1.08-.33-5-1.13-5.29-.3-.12-.2 1.09-.59 1-.65-.19-.22-2.45-.3-2.47 1.83.84 3.67 4.9 2.04 6.64zm.61 1.56s.64 1.49.73 1.72 0 .87.25 1.2.82.16 1.1.44 2 4.46.9 4.16c.24.06-.61-1-.57-1a4.42 4.42 0 01-1-1c-.77-1.26-1.69-4.05-1.39-5.53zm-1.44 10c.52 0-.12 2.51-.27 2.7-.64.03.18-2.46.29-2.67zm-.44 10.16c.33 0 .09 1.08.08 1.11-.14.56-.33-1.11-.08-1.11zm-1.19-6c.29.08 1 1.31.25 1.31-.54.02-.37-1.31-.25-1.31zm-1.54 9.73c.23.06.79 1.46.47 1.59s-.37 0-.32-.15-.31-1.46-.15-1.42zm-15.94-5.66a1.77 1.77 0 00.17.2.92.92 0 01-.17-.18zm-10.91 35.45a2.83 2.83 0 01-.68.92c.24-.48.06-2 .95-2a1 1 0 01-.27 1.1zm1.2-.1c-.12.42-.34-1-.08-1.13s.05 1.25.08 1.15zm.88 1.83c-.3.41-.18-3.38.27-3.38s-.18 3.2-.27 3.4zm2.46-4.33v1.25c0-.01-.21-1.23 0-1.23zm-1 2.39c.18-.18-.05-1.54 0-1.87s.74-3.41.68-3.44c.19 1.33.31 4.31-.72 5.33zm1.24 1.94a31.63 31.63 0 01-.6 4c-.18-1.16-1.06-4.94.54-5.52a9.1 9.1 0 01.02 1.54zm.26 4.44a5 5 0 01-.09-1.36 2.25 2.25 0 01.05 1.38zm1.54-10.19a3.16 3.16 0 01-.19-2.1c.4-.47.88 2.79.15 2.12zm2.87-3.48a5 5 0 01.55 2.4c-.32.76-.82-2.55-.59-2.42zm3.59-1.33c-.24.22-.76-.91-.5-1.17s.67 1 .46 1.19zm8-9.38c-.48.44-.83-.83-.57-.81s.77.56.53.83zM360 170c.59 1.76 1.87 3.37 2.12 5.22-.23.19-1.38-2.35-1.83-2.31s.41 2.63.67 3.73c-.33-.6-1.37-1.37-1.6-2 .07.53.23 1.39-.14 1.39s-.86-2.94-.71-3.3c.58-1.45.73.43 1.16-.11s-1-5.88-1.27-6c1.05.38 1.29 2.46 1.6 3.38zm-4-4a3.79 3.79 0 01-.19-1.06c.07.39.13.75.19 1.06zm-.69-2.89a4.91 4.91 0 01-.29-1.26 10.33 10.33 0 01.29 1.3zm-1.31 2.35c-.05.07-.1 0-.16-.1a.47.47 0 00.16.1zm3.14 12.17c-.43-1.45.16-6-1.49-6.74.16.07.75 9.49.75 9.84 0 0-1-3.37-1.42-3.32-.25 0-.28 1.41-.14 1.55-.65-1.31-1.72-4.15-1.38-5.63.5-2.18.77 1.85 1.35 2-.16-.05-.17-8.48-.76-8.36.6-.06 1.14 2.16 1.32 2.43.37.57 2.14 2.13 1.76 3 .31-.67-.1-1.46-.13-2.13-.05-1 .19-2 .14-3 .67 1.44 2.35 9.73-.01 10.36zm.93 11.87c.47 0 1 1.82.64 1.93a1.31 1.31 0 01-.55-.89.94.94 0 01-.1-1.04z" fill="#bd8a5e"/><path d="M347.57 190.91a9.42 9.42 0 01-.33-1.27 3.14 3.14 0 00.33 1.27zM350.65 185.58v-.08a.17.17 0 000 .08zM338.77 154.6s1 1.58 1.08 1.75c-.35-1.33.18-3.26-.6-4.46-.07-.1-1.77-.47-1.24-1.18.4-.22.73-.05 1 .5.8-1 .27-.35 1.13-.27a9.4 9.4 0 011.13.51c.17-.69-1-3.22-.35-3.62.9-.54 1.36 3.24 1.39 3.52.09.59.14 3.57 1.11 3.53.66 0 .18-.92.07-1.4s-.58-1.08-.52-1.65c.09-.82.52 0 .67-.35s-1.24-4.11.24-1.79c.46.73.75 2.7 1 .8a47.14 47.14 0 00-1.91-7.57 22.12 22.12 0 012 2.67 18.39 18.39 0 00-.09-2.3 13.57 13.57 0 000-3.07c0-.12.38-.17.22-.47s-.63.17-.77.06c-.59-.44-2.18-1.73-1.77-2.65.2-.46 2 1.66 2.2 1.82a8.16 8.16 0 012 2.75c-.19-1.19.54-3.44-.42-4.41-.3-.3-.39.57-.66.38a6.72 6.72 0 01-1.63-2.26c-.39-.66-3.35-4.11-3.35-4.59 0 1.43 1.66 2.41 1.76 3.8.15 2.13-1.16.78-1.68-.34-.64-1.42-1.1-8-3.74-8.1a23.13 23.13 0 001.41 3c.46 1 .52 3.34 1.34 4-.08-.06-.92-1-1-.86-.17.39 2.28 5.46 2.43 5.48-.68-.11-1-1.07-1.26-1.6 0 .29.16 1.2-.12 1.43s-1.89-7.44-2.1-7.9c-.32-.69-4.38-7.25-4.09-7.51-1.11 1 3.79 7.43 2.44 7.81-.78.21-2.18-4-2.48-4.65a10.61 10.61 0 00-2-2.82c-.27-.27-1.6-1.12-1.6-1.48.4 1.83 3.15 3.24 3 5.21s-1.27-.22-1.64-.91c-.2-.39-1.19-3-1.92-2.47s1.07 2.59.88 3.21c-.1.32-2-2.87-2.08-3-.19-.38-1.79-4-2.38-3.65s1.8 3.23.81 3.25c-.45 0-1.8-3.23-2-3-.72.88.78 2.75.17 3.6-.23.33-2.88-4.2-1.72.43-.71-.76-1.33-1.94-2.24-.89-.39 0-.17-1.62-.89-1.5-.49.08-.05 1.67 0 1.93.2 2.42-.62 1.43-1.87.12.1.42.66 1.71.29 2.12.15-.16-2.18-2.62-2-3.28.13-.49 1.36.42.36-.9-.55-.72-1.07-.77-1.42-.31-.62.79-.09 4.14-.68 4.53-.3.21-1.3-1.69-1.2-1.77a3.2 3.2 0 00-.66 1.33c-.48-.48-2-4-2.78-3.45s.12 3.66.12 4.38c-.72-.73-1.45-1.45-2.19-2.17 0 .36.85 2.86.59 3.07.05 0-3.61-1.73-3.6-1.49 0 .48 1.31 2.62.12 2.06s-1.3-3.26-1.8-4.21c-2.28-4.34-.82 1.45-.45 1.27-.4.2-.88-.73-1.13-.91.17.12.6 2-.32 1.46-.38-.21-1.05-2.62-1.07-2.61-.29.12-1 2-.7 2.19-.11-.09 0-.19-.62-.32.31.06 1.06 5.43 1 5.43-.73 0-3-5.77-2.61-6-.84.48-.33 4.36-1.37 3.18a5.18 5.18 0 01-.15-2.66c.29-1.16 0-1.17.74-.48-.18-.17-.28-1.31-.41-1.58-.23-.45-.92 0-.88.08-.42-.73.8-2.94.76-3.72 0-.36-.43-.57-.42-1s1.33-.78.81-1.44c-.17-.22-3 3.67-4 3.06.21.13 2.28-4 2.23-4-.81 0-1 1.4-1.56 1.73-.2.11-1.61.34-1.25-.14a8.74 8.74 0 01-2.79 2.35c-.85.52-.54 1.15-1.21.24-.44-.58.15-3.71.22-3.73s1.88-.57 1.85-.64c-.21-.5-2.7 0-3.17-.19s-1-1.32-1.54-.73a2.4 2.4 0 00.2-.84c0 .33-2.05.92-2.39 1.12-1.05.65-.8 1.27-1.54 2-1.09 1-.66-.21-1.14-.87-.18-.25-.06-.88-.54-.93-.64-.06-.33.77-.69.9-2.54.94 1.34-1.85 0-2.32-.73-.25-1.95 2.7-2.51 2.37s.76-2-.35-1.53c-.39.17-.52 1.54-1 1.54-.7 0 1.15-3.94 1.49-3.91-1.49-.25-2.34 3.69-3 4.55a12.11 12.11 0 01-.63-1.19c-.29.53-.31 1.19-1.1 1.17.4 0-1.11-1.3-1.07-1.06-.13-.79 2.1-1.46 2.08-2.3 0-1.38-1.32 0-1.78.57a8.83 8.83 0 00-1.65 3.54c-.75 2.46-1.78 2.16-3.34.4-.09.65-1.25 6.69-1.74 6.52-1.9-.66 2.85-9.19 2.75-9.9 0 .23-1.58 1.38-1.74 1.58-.84 1.05-.18 1.8-.74 2.88-.17.33-.62-.51-.69-.43-.47.56-1.77 6-1.8 2a10 10 0 01-.88 1.7c.14.29 1.51 4.42-.22 3.59-.64-.31.22-2.07-.11-2.68a20 20 0 01-1.38 3c-1.05.54-2.38-1.74-2.28-2.83-.21 1.43 1.28 5.37.7 5.62-1.45.65-1.06-5.19-1.5-5.7.32.36-.9 7.15-.64 7.15-.8 0-.08-2.3-1.15-2.59-1.4-.38-.27 1.7-.59 2.44-.57 1.36-.79.12-.89-.82-.17-1.42.16-2.88 0-4.3-.41-3.19-.93 1-.85 2.11 0 .55.78 6.64.46 6.64s-.41-1-.45-1.56c-.06.39-1-.27-1.12-.26.16 0-.13-.54-.1-.54-.61 0-.82.72-1 1.2-.11.15-.6-1.19-.6-1.2-.59.4.27 2.55-.18 3.15-1 1.31-.19-1.12-1.13-1.12-.2 0 .82 3.47.22 3.3-.1 0-1.57-2.95-2.05-2.44-.23.24 1 1.69 1.08 2 .57 1.47.27 3.29.51 4.83.21 1.29 1.15 3.64 1.38 5.5.05-.38.16-.68.41-.68s1.27 5.55 1.47 6.06c0-.36-.18-3.68.58-3.2s-.39 3.39.61 3.39c.59 0-.15-3.27.89-3.41s.45 2.25.38 2.88c-.09.82-.16 2.92.78 1.19.49-.91-.85-3.6.36-4.14.06 0 .53 3.58.69 4.56.09-.47.92-1.36 1.16-.91-.2-1-.73-2.84 0-3 .9-.16.89 3.07 1.13 3.5 1.34 2.38.66-2.45 1.31-2.45 1.56 0-.8 5.15 1.38 5 .52 0-.31-1.07-.36-1.18-.24-.54 1.74.87 1.77.91a16 16 0 011.49 2.24c.77 1.3 1.45 2.64 2.2 3.94.47.81 1.54 2 1.55 3 0 2.3-1.31-.73-1.61-1.35-1.29-2.58-2.56-5.7-4.89-7.53a24.13 24.13 0 002.21 4.47c.47.85 2.13 2.93 2 3.87s-.56.3-.58 1.44c0 .08 1.18 2.6.54 2.51s-1.66-3.72-2-2.78c-.14.34 1 4.82.94 4.81-1.52-.28-.94-5.28-2.52-5 .22 0 1 4.39.92 4.8-.35 2.83-.64-1.55-1.53-.94-.59.41.08 1.94 0 2.53-.27 1.31-.09.34-.61-.11-1.93-1.68-2.9-4.42-5.09-5.82.1.06.43 1.27.56 1.55.52 1 1.22 2 1.74 3 .34.68 1.69 3.17.43 2.7-.57-.21-1.72-3.36-1.77-1 0 1.06 1.48 1.83 1.15 2.94-.46 1.51-.63-.42-1-.42s-2.31 5.23-1.93 5.47a3.48 3.48 0 01-1.05-1.94c-.06-.66.59-1.09.57-1.46s-2.23-3-2.91-2.93c.59-.07 3 6.3 1.46 6.25-.81 0-1.22-1.84-1.82-1-.91 1.21 2 3.88 1.38 5.42 0-.09-1.11-1.69-1.53-1.19 0 0 .88 3.49 0 3.12s-1-2.12-1.08.07c0 .33 1.09 3.5.47 3.5s-1.46-3.9-2.48-3.76a25.73 25.73 0 011.23 5.36c-.52.91-.72-.23-1-.93a35.38 35.38 0 00-1.26-3.63c.29 2.16 1.09 4.46.66 6.66 0-.07-.59-.15-.66.1s.71.34.66.51-.35.43-.39.63-.59 1.29-.54 1.29c-1.12 0-.92-4.17-2-4.17.33 0 .71 5 .48 5-.69 0-.26-2-1.23-.35-.44.74.91 3.23.15 3.61-.26.13-1.15-1.63-1.17-1.6-.25.33.14 1.08.09 1.41a9 9 0 01-.41 1.06 14.6 14.6 0 00-.66 4.11 10.67 10.67 0 01-.55 3.75c-.08.22-.41.07-.5.58a11.84 11.84 0 00.17 1.26c.12.89.69 4.69-1 3-1.14-1.1-.48-3.91-2-4.75a8.67 8.67 0 01.92 3.47c-1.15 1-1.24-2.3-1.9-2.21s.1 2.33.19 2.76c.06.28.46 1.29.21 1.53-.51.48-.84-.74-.79-.76-.71.3-.78 3.71-1.76 1.84-.28-.53.11-1.34-.09-1.91-.15-.41-1-.95-1.09-1.31.28 2 1.8 4.91-1.36 3.51.21.09-.24 3.27-.68 3.45s-2.86-1.21-3.21-1.81c.39 1 3.19 4.08 3.82 5.35-.14-1.23-.18-4.31.68-3.81 1.08.62-.29 2.8.08 3.71-.26-.64 1-3.21 1.66-3.3 1.12-.14 1 2.25 1.13 3.06.67 3.88.48-2.95.68-3.14s.81.39 1 .34c.54-.11-.39-.85.64-.63s1.64 5 2 5.85c-.08-1.08-1-4.07.05-4.86.17-.13.64 2.25.65 2.46 0 .51-.6 3.15-.51 3.16 1.8.17.88-3.9.84-4.82 0-.21-.23-1.93.25-1.95 1-.05.32 1.94.91 2.29a15.29 15.29 0 01.19-2.63c1-.82.76 1.2 1.29 1 .1 0 .22-3.54.54-3.36a12.34 12.34 0 01.7 3.5c.47-.27.55-4.54 1.39-4.56s.53.33 1.06-.48c.26-.4-.11-1.86.66-1.86.44 0 .35 2.5.48 2.78a12.23 12.23 0 01.45-2.36s1 1.84.71 2.19c.53-.55.28-1.94.49-2.62.05-.2.1-1 .37-1.16.56-.23.28.57.62.65.81.2.49.83.63-.7 0-.16-.32-2.48.08-2.48a.31.31 0 01.2.08c-.05-.89.54-2.36-.39-3s-.17 1.12-.06.91c-.48.91-.33-.16-1.28-.05-.15 0 0 1.63-.65 1.74-.87.16-1.07-1.72-1.26-2.25.13 1 1.15 3.11.63 4-.41.71-1.16-.16-1.68.38s.08 1.13-.11 1.56c-.76 1.7-.51-.16-.79-1-.67-1.9-1.05.4-.87.59 0 0-.53-.81-.53-.8-.06.21-.95 2.76-.93 2.8a5.66 5.66 0 00-.39-1s-.48.61-.58.49c-.26-.34-.22-.63-.34-1s-.23-2.35.37-2.45c.16 0 .53.94.48 1 .22-.16.27-2.15 0-2.18s-.59.66-.77.79-.13-1.24 0-1.43c.22-.34 1.32 0 1.32-.57 0-.15-.54-.82-.63-1.13a6.26 6.26 0 01-.06-1.56c0-.33-.1-2.62.39-2.77a52.08 52.08 0 001.06 6.61 29.44 29.44 0 01.51-5.64c1.62 0-.2 6.26.85 7-.25-.17.41-4.91.45-5.41a17.27 17.27 0 01.19-2.59c.3-1.4.48-1.57 1.48-.77.46.37.41 1.81.89.15.21-.73-.75-2.39-.07-2.92s.89 4.24 2.39-.28c2.29 3.08.54-1.74 1.38-2.14s1.94 2.34 2.5 2.84c.47 0-.52-2.54-.4-2.79.27-.52 2-1.05 2.15-.35.63-.13-1.81-3.25-1.59-3.78.79-1.86 2.34 2.76 2.59 2.76 1 0-1.36-4.83 1.19-4 .7.23.76 1.31 1.52.36.21-.26.05-1.1.05-1.39s-.25-3.33.24-3.33c.33 0 4.46 9.49 4 10.15 0 0-1.33-.33-1.69 0s-.15 1.25-.3 1.68c-.47 1.28-.57.77-1-.45s-.33-2.77-.74-4.09-1-1.66-.87 0 1.52 2.9.7 4.83c-.3.71-1.37 2.15-2.34 1.68-.71-.35-.33-1.3-.65-1.84-1.47-2.4.32 3.32.22 3.51s-.9-.31-.88-.36c-.29.73.22 1.92-.75 2.32-.16.07-1.33.28-1.15-.28a7.37 7.37 0 000 4.06c-.06-.21.72-.95.85-1.09.28-.32.58-1.65 1.15-.29.54-.47.27-3.39.74-3.39s1.12 3.5 1.09 3.53c.65-.5-.28-3.48.35-3.41s.54 2.51 1.2 1.09c.17-.35-1.33-3.16-.47-3.18.65 0 .59 2.47 1.08 2.68a8.84 8.84 0 01-.1-2.68c.15-.15 2.88 3.85 2.51 4.23.75-.77-2-4.77-.3-5 .48-.06 1 3.9.95 3.91 1.46-.79.1-3.45.14-4.63.07-2.87.65 0 1 .19.62-2.18.66.53 1.3-.83.12-.25-.72-1.57-.23-1.79.31 0 .44.2.42.56.44.18.19-.87 1.06-.13.43.36.15 1.9.89 2 .25 0-.36-2.53-.33-2.8a10.63 10.63 0 00.94-2.43 20.82 20.82 0 011.46 3.27c.62-1.41-1.33-3-.5-4.37 1-1.71.61.69 1.46.68.46 0-.39-4.46.26-4.46.21.21 1.69 2.83 1.77 2.76.68-.56-.26-2-.48-2.59 0-.07-.75-2.39-.24-2.13s.42 1.6.82 1.6-.6-2.67-.06-2.86 1.48 2.88 2.11 1.5c.42-.91-.9-2.22-.49-3.3.28-.74.89-.82.9-1.86 0-.48-.12-1.82-.71-2-.41-.12.59 3.6-.82 2.36-.42 2.7-1-.43-2.27.39a14.2 14.2 0 00-1.26 3.27c-.07.32.75 1.25-.15 1.05-.65-.14-.53-1.69-1.19-1.69.6 0-1.5 6.24-1.58 6.24-.68 0-.62-1.54-1.07-1.51-1.08.08.84 5-.2 3.82s-.83-3.63-1.88-5c-1.54-2-.43 1-.07 1.84.18.47 1.83 4.37 1 4.6s-3.14-4.49-3.34-5c-.41-1.08-1.76-5.08-1.1-6.17.06-.1 1.45 3.69 2.12 3.5 1.78-.51-.18-4.31.07-5.28.34-1.34 1.15.9 1.35 1.38.28.63 1 3.53 1.77 3.7-.08 0-2.43-7.24-2.2-7.39s1.47 1.69 1.42 1.72c.75-.41-.35-3.08.73-2.17.18.16 1.09 3.41 1.24 3.28.54-.47.22-.94.95-1.19 0 0 1.05.59 1.05.53 0-.73-3.36-3.94-2.86-4.36s2.23 2.29 3.31 1.37c.69-.59-1.06-2.17 0-2.66 1.4-.64 2.49 3.71 3.62 4-.7-.21-1.29-3.67-1.55-4.42-1.3-3.76 1-.82.85-.59.73-1.11-2.41-5.46-1.72-5.83 1-.55 2.56 4.79 3.46 5.06 1.14.34 0-1-.28-1.55-.6-1.13-.79-2.34-1.32-3.48-2-4.33 1.94 1.33 2 1.21.61-.92-1.45-2.2-1.07-3s1.77 1.55 2.42 1.25c-.31.14-2.92-4.57-2.07-5.36.35-.31 1.17.53 1.61-.08.32-.45-.3-.86-.31-1.22 0-1.08-.16-2 1.12-1 .5.35 1.11 2.5 1.88 2.35.46-.09-.54-1.31-.63-1.43-.24-.35-3.43-4.16-3.69-3.9.92-.92 3.27 2.44 4.16 2.54.12 0-2-3.22-2-3.41 0-.72 1.06-.15.66-1.1-.22-.53-1.91-.65-1.93-1.4 0-.54 1.61.36 1.86.17 1-.73-.29-2.12-.76-2.74 1.19 4.25-2.24-1.17-1.56-2.45s1.14 1.29 1.48 1.79c.21.3 3.24 2.72 3.4 2.55s-1.23-2.93-.14-2.68c.59.13.88 3.62 1.63 3.26.15-.07-.56-5.49-.22-5.38 1.14.33.85 3.08 1.44 3.93a34 34 0 012.72 3.07c.87-.27-.75-2.59-1-2.93s-.76-.77-.8-1.09c-.17-1.48.7.12.94 0 .44-.28-1.74-3.53-1.94-4-1.25-2.73.88-1.06.77-.66.05-.17-.39-1.5 0-1.5 1.62 0 1.46 4.36 2 5.37-.07-1 .66-1.77.4-2.82s-1-1.58-1.45-2.4c-.29-.56-1-2.09 0-2.31.85-.18 3.8 3.52 2 3.32-.76.29 3.39 3.85 3.31 2.86s-1.62-1.73-1.87-2.73c-.4-1.57.34-.23 1-.33 1-.16.67-.59-.1-1.44s-1.74-2.27-2.74-3.22c.55-1.08 1.73.64 2-1a49.26 49.26 0 013.39 4c.27.43 1.22 1.73.72 2.31-.71.83-1.69-.28-1.78 1.37 0 1.09 2.43 4.61 1.8 2 0-.18-1.09-1.94-.66-2.1s1.85 1.62 1.68 2.08c.36-1-.61-2.39-.12-3.3.67-1.27.61.5 1.2.93a13.3 13.3 0 01-.49-2c0-.07 1.25.13 1.32-.06.17-.39-.32-.74-.4-1.05-.13-.53-1.17-1.93 0-1.07 1.37 1 2.22 3.56 2.87 5.11.21.52.76 2.51 1.37 2.67.89.24-.51-2.42-.6-2.63-.59-1.35-1.38-2.76-1.89-4.13-.42-1.11-.75-1.17.21-1.1 0 0 1.55 1.78 1 .11-.33-1-1.35-.86-2.07-1.39-1.56-1.16.1-3 1.5-2.61.48.15.55.93.94 1.11 1.06.46.14 0 .75-.3.21-.09-.35-.85.46-.6s.45 1.12.64 1.66a27 27 0 011.33 3.38c.09.43.59 2.94.94 1.76.09.87 3.7 1.46 2.71 2.66.34-.42-2-.18-1.47.07-.48-.22-1.46-.94-1.33-1.57 0 .16.05 1.22-.33 1.12-.54-.13-2.41-7-3-6.39s1.17 4.3 1.4 4.76c.35.69 2.51 4.74.95 3.73-.94.3 1.27 3.57.42 3.92-.42.18-1.23-1.67-1.17-2-.12.55.65 4-.17 4.07-.48 0-1.75-5.11-2-2.74-.1 1.07 1.1 2 .91 3.17-.05.33-1.65 2.26-1.37 2.4-1.46-.72 1.1-6.18-1.53-6.92.58.16.74 5.51.31 6 .11-.11-.49-.61-1.06.17-.41.56-.05 1.44-.17 2.06-.4 1.94-1.26.74-1.07-.28-.09.39-.21 1-.6 1 .11 0 .74-6.71-.47-7.35.44.23.26 3.77-.18 4s-.5-1.53-.5-1.73c-.07.34-.12 1.63-.57 1.72-.28.06-.95-4-.3-4.28 0 0 .42 1.24.44 1.22 1.47-1-.42-3.74-1.08-4.69 0 1.6-.38 3.12-.44 4.64 0 .65.59 2.61-.5 2-.76-.42-2.08-6.88-3-5.51-.19.28 3.34 9.06 2.11 9.06-.39 0-1.29-2.79-1.13-3.21-.61 1.6-1.07-2.91-1.91-1.33s1.13 3.52 1 5c-.17 1.82-1.1-.73-1.38-1.38-.13-.32-1.92-4.46-2.25-4.16.39 2.15 1.87 4 2 6.21.19 2.71-1.36.7-1.69 1.36-.16.33 2.53 3.84.89 3.13.45.34 1.55 2.84 1.12 3.26.08-.07-2-3.38-1.67-.88.26 2 2.15 1.62 1 3.85-1.38 2.6.8 2.16 1.46 4.49.3 1-.19 1.35-.41 2.3-.33 1.42.19 3 .36 4.45.18-.55.62-3.3 1.36-3.3.2 0-.11 4.74.59 4.84-.08 0 .52-4.9 1-5.3-.5.47.55 6.83.79 6.81.54-.06.09-2.24.11-2.5.11-2 .39-.56.74-1s.33-1.86 1-2c.19 0-.6 4.23-.2 4.52 1.31.95 1.05-3.54 1.75-3.52.53 0 .05 5.64 1.11 4.87.62-.45-.06-3.37.08-4.23.28-1.79.68-1.53.75 0 0 .63-.41 3.8.61 4s.42-2.83.43-3.34.3-3.48 1.12-2.1c.61 1.05-1.42 3.53-.13 4.48-.44-.32 1.1-4.49 1.16-4.46 1.33.65-1.35 5.38-.26 5.77.38.13 2.12-5.86 2.41-5.54 1.08 1.23-1.85 3.74-1 4.87 1.18 1.52 2-2.54 2.13-3 1.21-3.76.88 1.49.44 3.39.27-.36.67-.49.7.12 0-.27.37-1.11.4-1.5.06-.69-.43-1.83-.12-2.47.76-1.58 1 .58 1 1.37 0 .51-.72 3.49-.19 3.77.95.5.92-3 .92-3.37s-.3-3.6.64-3.3c.62.2.42 3.18.55 3.71 1.18 4.89 3-3.54 3.2-3.46 1.51.75.34 4.28.06 5.44.09-.37 2.47-6.07 2.6-6a10.87 10.87 0 01-.62 4c.74-.43 1.23-4.12 2.23-3.87s-1.13 3.43-1.3 4a12.79 12.79 0 002.42-4c.1-.24 1-3.08 1.06-3.08.65 0 .09 3.2.54 3.62.83.78.38-3.08.39-3.37.05-1.32.6-2.34.88-.51.06.36-.33 4.08.11 4.08s.31-1.2.55-1.48c.36-.44.91-.53 1.27-1a26.65 26.65 0 011.46-2.69c.3.37-.13 1.38-.06 1.84 0 .15.45.86.51 1.16.13.66-.62 2.67 0 3.13s1.25-5.53 1.95-5.93a31.07 31.07 0 00-.27 3.61c.26-1 3.54-4.91 3.15-5.42 1 1.26-1.56 2.76-1.09 3.5.83 1.29 1.95-3.11 2-3.34.26-.72.81-2.16 1.52-1.38.55.6-1.14 5.33-.6 5.43s1.58-5.53 1.45-5.59a.39.39 0 01.2.22c.09-1.19.79-2.8.78-3.71-.13.47-.41 3-1.15 3-.59 0 .31-1-.29-1s-.14 1.23-.86 1c-.31-.11-.2-1.58-.2-1.78 0-.9.57-3.82-.27-4.46a38.84 38.84 0 01-1.4 6.23c-.7 0-.15-3-.42-3.46a3.93 3.93 0 01-.51 1.93c-.53.6-1.18-3.24-1.15-3.15-.63-2.11-.87.27-1 1.3 0 .42 0 3.56-.8 3.35-.6-.16-.41-3.4-.42-3.92-.13.87.11 4.3-1 4.64-.73.23-.34-1.72-.3-2.12.14-1.6.46-3.19.55-4.79.12-2.24-1.17-4.26-1-6.4.22.65 2.52 3.31 2.51 4.19.12-.92-.24-4.74.1-4.66s1.53 4.78 1.23 5.16c.8-1 .21-3.48-.12-4.6-.24-.83-1.54-2.46-1.34-3.21.56-2.06 1.6 3.51 2.51 1.08.47-1.23-1.11-2.64-1.18-3.82s0-1.15.81-.26c.49.51 2.09 5.64 1.52 5.64 1.34 0-.39-5.82-.48-6.62-.19-1.75.87-2.3 1.12-.41.1.8-.45 2.69.66 3.27-.25-.14-.19-2.87.51-2.75 1.18.2.36 3 1 3.4s.93-5.71.89-5.73c.76.89.08 2.64.66 3.63 1.06 1.83.33-.63.8-.63.79 0 1 3.42 1.1 4 0-1 .51-5.31 1.11-2.27.17.9-1.15 4.61-.17 4.94 1.14.37.29-2.41.32-2.58.3-1.86.52 0 1.15-.53 1.39-1.09-1.45-4.67 0-5.5a39.29 39.29 0 011.14 4.05 20.16 20.16 0 000 2.58c.19.71 1 2 1.2.32a8 8 0 01.71-6.42zm3.31-8.83a.76.76 0 01.63.77c1.39 4.54-1.71-.24-.63-.77zm-.75-6.88c.86 0 3.41 3.49 2.52 4-.37.21-1.15-1.2-1.35-1.43-.38-.43-.77-.09-1.12-1-.16-.46-.38-1.18-.05-1.57zm-.75 2.67c.64-.25 1 2.29.58 2.68-.22.23-.81-2.17-.58-2.68zm-91 1c-1.11 0-1.15-5-.6-5.44.15-.12 1.02 4.76.58 5.48zm1-3c-.24-.22-.46-1.85.13-1.85.29.04.89 2.49-.15 1.89zm.55-5c-.7 0-1-2.44-.28-2.33.97.21.55 2.03.26 2.39zm2.72 3.52c-.21.19-1.44-2.83-.68-3.17s.83 2.93.66 3.23zm-16.5 76c-.45 0-.46-1.74.06-1.74s.38 1.79-.08 1.79zm3.88-2.78c-.7 0-.42-2.76 0-2.62.77.45.33 2.13-.02 2.67zm.66-6.08c0 .06-.17 1.21-.39 1s-.63-2.69-.07-2.76.57 1.43.44 1.81zm11.55-23.44c-.45 0-2.24-2.08-1.77-2.35s2.51 1.75 1.75 2.4zm10.16 2.1c-.31 0-.71-.69-.79-.91-1.43-3.38 2.42.86.77.96zm13-26.72c-.54-.2-.7-.4-.68-.92.73-.69 1.21 1.19.63.97zm3.1-37.69a.6.6 0 01.08.88c-1 .47-.06-.93-.13-.83zm-.46-2.91c.55.08.08 2.15-.44 2-.8-.05-.25-1.92.39-1.95zm-1.94 2.06c.89 0 0 1 0 1s-.93-.95-.05-.95zm-.75-2.08c.54 0 .51 2-.14 1.6s-.24-1.23.09-1.55zm-.39 4.16c.75 0 .26 1.33 0 1.56-.61.36-.3-1.26-.05-1.51zm-1.9-3.42c.51-1.15 1.34-.4 1 .64-.38 1.32-1.72.52-1.05-.59zm0 4.15c.7 0 .13 1.11 0 1.21-.58.36-.26-.97-.05-1.16zm-.75 17.19c0 1.44-1.29-.27-1.08-.24s.99-.65 1.03.29zm-1.59-19.59c0-.49.28-1.85 1.07-1.65.58.15.24.77.18 1.38 0 .36-.35 3.71-.8 3.67-.74 0-.51-2.81-.5-3.35zm.32 4.92c-.28.64-.34-1 0-.69-.06.28-.05.51-.05.74zm-1.4-2.83c.63-1.15 1 1.52.14 1.9s-.35-1.59-.19-1.85zm-.85-3c.48-.14-.52 4.23-1 4-.88-.32.53-3.63.95-3.93zm-2.17 5.39c.57 0 .51 2.77 0 2.77-.93.07-.24-2.49-.05-2.7zm-.83 19.25c-.52-.25.31-2 .47-2 .64.18.38 2.52-.52 2.07zm-.9-20.16c.12-.47-.08-2.9.54-3.07.28-.08.78 2.4.7 2.68-.33.95-1.93 1.89-1.33.46zm0 30.66a.86.86 0 01-.49-.66c-2.22-5.21 2.01.22.4.73zm-.86-9.13c.47-.75 1.16-.45 1 .47-.31 1.96-1.66.57-1.06-.4zm1.2-3c-.79.42-.69-2.3-.6-2.76l.34-.62c.02-.01.83 3.08.2 3.4zm-1.16-8.86c.79-.22 1 3.06.31 3.17s-.83-3.06-.37-3.15zm-.92-5l.62-.46a2.41 2.41 0 01-.46 1.58c-1.01.47-.69-.74-.22-1.14zm-.62-5.44c.8 0-.43 2.58-.74 2.28s.01-2.3.68-2.3zm-.84 10.75c.4-.45.68-2.5 1.25-2.62.76-.15-.91 3.67-1 3.77-1.34 2.18-1.34-.08-.31-1.17zm-1.6-6.58c.44 0 .5.69.23.69s-.75-.69-.23-.69zm-.35 1.37c.51 0 .53 1.38 0 1.38-.74 0-.22-1.24 0-1.38zm-5.46 10.24c-.43 1.57-1.52.36-.7-.68.65-.83.98-.2.7.68zm.87-.15a17.76 17.76 0 00-1-4.35c0 .61.29 2.42-.39 2.77.34-.18-1.2-3.61-.37-4.07s1.43 1.7 1.62 2.07c.69 1.39 1.98 2.4.14 3.58zm2.67 5.19c-.58 0-1.06-1.86-.46-2s1.07 1.58.44 2zm3 11.09c-.33.38-1.13-1.73-1.14-1.74-1.4-3.9 2.03.67 1.12 1.74zm-.41-11.31c.13-.75.22-1 .05-1.45 0 0-.56.19-.65 0-.29-.76.36-1.5.15-2.27.15.56-1.69.64-2 .42-.55-.47-.21-1.91-.23-2.54-.17.56-1.16 3.74-1.43 1.83-.1-.74.53-1.44.41-2.27a15.7 15.7 0 00-1-2.38c-.15-.42-1.06-4 0-3.31.4.25.11 2.86.54 2.86.91 0 .23-5.55 1.16-1.64.74 3.14.4-2.21 1.15-2.21s-.14 4.64.89 4.53c.24 0 .27-6.78 1.64-6.07 1 .52-1.09 5.69-.91 6.55s.7.68 1.14 1.52c.18.34 0 3.48.35 3.49 1.25 0 .15-5 1-5.6-.11.08 1.18 5.07 1.31 5.56.18.73.82 1.77.75 2.49-.2 2.24-.39-.09-1.15.32-1 .51-.31 3.8-1.28 4-1.23.21.75-7.7.7-8.24-.39 1.58-.7 3.55-1.77 4.85-.23-.2-1.43 2.63-.85-.44zm1.5 10.38c-.39-.36-.37-1.52.24-1.41.8.14.38 1.99-.27 1.41zm2.17 3.25c-.85.29.09 2.54-1.06.56a9.19 9.19 0 01-.4-2.89c.65-.03 1.93 2.27 1.43 2.33zm.42-2.31c.75-.1 1.67 2.21 1.23 2.71s-1.87-2.56-1.26-2.71zm1.77 5.54c-.32 0-1.45-.9-1.07-1.27.68-.52 1.81 1.33 1.04 1.27zm-.27-9.46a.74.74 0 01.12-1c.5 0 1.93 3.78 1.62 4.21-.83 1.15-1.66-2.79-1.77-3.21zm2.41 27.4l-.12.37c-.17.23-1.17-1.81-.59-1.68.34.08.76.96.68 1.31zm.38-2.08l-.12.37c-.18.23-1.17-1.8-.6-1.69.35.08.73.97.73 1.32zm0-2.5c-1.09-1.2-.19-2.24.73-.67.56 1.02-.05 1.71-.72.67zm-.44-24.28c.91-.37.28 1.81 0 1.13-.2-.5-.37-.82-.03-1.13zm2.56 4.28c-.41.19-.87-1.91-.89-2-1.47-6.21 2.65 1.18.86 2zm.44-4.48c-.39-.06-.36-1-.53-1.18s-.59-.36-.47-.18c-.31-.46-.48-1.8-.92-2.48.7 1.08-1 3.7-1.15.38 0-.52 0-5.23.61-5.23.41 0 1.4 2.54 1.44 3 0 .19-.61.12-.54.76a5.08 5.08 0 00.89 1.58c1-1.42.49-2.18-.08-3.57-.3-.73-1-2 .2-1.35.58.31 2.57 5 2 5.46 0 0-.8-.32-.9-.33 0 .34-.48 1.05-.52 1.56-.01.09.21 1.63-.06 1.58zm2.12 4.53c-.78 0-1.48-3.85-1.09-4.4-.08.08 2.42 4.38 1.06 4.4zm1.4-5.64c-.88-.15.17 1.91-.79 1.79-.49-.07-.65-2-1.16-1.87-.35.09-.9 1.74-1 0-.09-1.32.47-.49 1-1.29 1.1-1.65-1.45-4.35-.76-5.25.31-.4 1.2 0 1.55.36 1 .9.3 1.23.37 2.31 0 .65 1.93 3.89.72 3.95zm.46-2.79c-.95-1.26.62-.84 1.11 0 .13.22.68 2.43.19 2.44s-1.12-2.03-1.33-2.44zm3.17 7.12c-.64 2.18-1.91-2.09-2-2.69-.06-.35-.35-1.34.07-1.47s1.15 3.31 1.1 3.38a18.43 18.43 0 011-1.63c.78.17-.11 2.02-.2 2.41zm1-32.85c0-1 .66-.2.74-.24s-.77 1.18-.77.24zm.89 3.52c0 .11-.22 1.21-.48 1.07-.52-.26-.28-2 .38-2a.73.73 0 01.07.93zm.85-4.83l-.49.37c-.41 0 .16-1.23.21-1.32.39-.65.84.43.25.95zm12.07 2.31c1.39-2.46.08 2.36-.52 1a1.58 1.58 0 01.49-1zm-2.69 2.13c-.2.19-.66-1.42.32-1.25.64.1-.14 1.09-.35 1.25zm-.31-2.75c.63-.32.55.36.38.68-.47.83-1.6-.31-.41-.68zm-1.33 2c.29-.2.57.71.22.84-.59.24-.27-.76-.25-.84zm-.59 9.67c1.29.44.07-.84.65-1.24 1.37-.94 1.86 3.81 1.94 4.3.63 3.58-2 1.61-3.33.08-.19-.21-1.39-1.4-1.2-1.75.67-1.22 2 1.26 2.29 1.5 1.1.81 1.59.39.81-.79-.29-.38-2.7-2.16-1.19-2.1zm-.54-2.54c0 .8-2.11-.42-2.18-.93-.15-.92 2.13.23 2.13.93zm-1.69-6.92c.63-.94 1.09.24.84.81s-1.15-.29-.87-.81zm-3.36-1.59a18.46 18.46 0 01-.44-3.15 11.07 11.07 0 01-.42-1.54c.65-1 1 .61 1.15.77.6.7-.16.5.7.76.47.14 1.3-.67 1.78-.29.69.55-.46.81-.79 1.06s-.74.18-1 .45c-.54.48-.59 1.4-.98 1.94zm.81 3.33c-.51 0-.53-1.37 0-1.37.69 0 .29 1.14 0 1.37zm1.34-4.66c1-.34.33 2.09-.3 2s.07-1.84.3-2zm1.16 6c3.4 0-1.44 1.81-1.34.42.03-.41 1.28-.43 1.34-.42zm-.89 16c-.87-1.27.42-1.32.91-.31s-.41 1.1-.91.31zm5.89 4.14c-.65 0-3.07-2.62-2.66-3.22.09-.13 4.35 2.61 2.66 3.22zm.49-2.9c-.22.22-.82-.94-.74-.8-.73-1.28-2.41 1-3.5-1-.32-.55-.15-1.51-.28-2 0 0-.42-1.61-.58-1.38a2 2 0 01.87-.31c-.34.08-1.23-1.3-1-1.58s2 1.15 2.31 1.36c.67.6 4.27 4.36 2.92 5.71zm.13-4c.48-.35 1.17.69 1.13 1-.69 1.02-1.52-.68-1.13-.97zm1.07-14c-.72.22-.13-1.12.4-1.25s-.12 1.16-.4 1.28zm1.24 2.94q.13.52-.57.6c-.73.01-.02-1.14.57-.57zm.2 12.75c-.86 0 0-1.36.13-1s.37.68-.13 1.03zm3.23-5.21c1.22-.09 0 .81 0 .7 0 .13-1.22-.74 0-.63zm-.56-1.67c0 2-2.81.7-.11-.29.19.23.23.33.11.32zm-.59-2.35c.83-.1 0 1.14-.58 1.17-.85.07.17-1.08.58-1.14zm-.25 5.72c-.12.15-.81-.56-.85-.62-1.58-1.55 2.06-.74.85.65zm2.92 4.19c-.93-1-2.41-.83-2.55-2.57-.11-1.49.32-1 1.54-1.13.29 0 2.93-.67 1.75.43-.55.51-1.75 0-2.39.13.96-.22 3.1 4.32 1.65 3.17zm.36 1.07c.19-1.07 1.31.65 1.26 1.25-.35.95-1.34-.75-1.26-1.22zm2.51-8.55c-.66.38-1.86-3.24-1.37-3.31.73.03 1.43 2.85 1.37 3.34zm.36 5.76a1.15 1.15 0 01-.11.66c-2.16-.6-.12-2.01.11-.63zm-1.11 2.76a1.26 1.26 0 01-.64-1.28c1-.82 1 1.58.64 1.31zm.58 3.2c-1.35-1.36.1-1.81.86-.51.56 1 .05 1.68-.86.54zm-.08-15.55a4.26 4.26 0 00-.69-1.1c-.27-.24-.92 0-.73.12-.94-.77-.53-1.6.59-1.32.8.2 1.67 1.84 2 2.52 1.25 2.56-.25 1.33-1.17-.19zm.24-3.6c.58 0 1.44 2.64 1.41 3.19-.14.4-2.92-3.1-1.41-3.16zm-7.24 40.93c-.88 0 .17-1 .17-.91-.06.56.45.52-.17.94zm1.43.73a1.17 1.17 0 01-.45-.81c-.13-.58-.82-4.06.09-3.57.59.35.96 4.37.36 4.41zm1.13-2.14c-.32 0 0-4.17.48-4.17.94.03.15 3.92-.48 4.2zm.86 3.29c-.81.45 0-1.05 0-.85 0 .57.94-.25 0 .88zm1.52-3.52c0 .05-2-4.75-1-5.33.61-.19 1.18 4.9 1 5.36zm.62-3.64c0-.3-.61-3.92 0-4 1.19-.01.9 10.2 0 4.03zm2-3.07c-.18-.5-2-4.77-.74-4.07 1 .56.56 3.17.78 4.14zm.32-4.17c0-.06-.77-1.8-.35-1.85 1.41-.16 2.04 5.87.31 1.88zm4.5 31.67a4.07 4.07 0 01-.75 1.91s-.54-3.38.64-3.38c.39.1.16 1.22.07 1.48zm4.1-21.23c-1.07 1-.47-1.1-.16-.7s.42.16.12.73zm1.42 7.61c-.6 0-.53-2.77 0-2.77.78.03.16 2.58-.04 2.8zM318.1 127c-.6.47-1.65-2.16-1.71-2.61.53-.2 2.29 2.13 1.71 2.61zm-2.91 46.37c-.36.2-.61-1.88-.16-2 .97-.37.31 1.75.16 1.96zm.77 2.61c-.95-.15.06-1.35.15-1.23a.83.83 0 01-.11 1.19zm2.23-3.63c-.85.48.59 5.2-.68 3.32-.4-.6-.29-1.63-.56-2.33-.44-1.12-1.39-1.84-1.14-3 .06-.27.82-.21.83-.39 0-.59-.61-.87-.82-1.36a4.74 4.74 0 01-.51-2.58c.48-1.21.69.79.93 1 1.19 1.17.52-.59 1.29-.4.39.09.73 2.19.8 2.47.28 1.04.61 2.24-.14 3.23zm2.77-5.74c.27 0 .38 10.06-1.29 10.06-.13 0-.65-5.86-.69-6.33a10.26 10.26 0 01-.14-3.21 21.61 21.61 0 00.87-3.32c.68-.04.9 2.36 1.29 2.76zm1.45-4.74c-.67.39-.86-1.19-.55-1.45.56-.5.78 1.09.55 1.41zm6-7.58a4.49 4.49 0 01-.16-3.54c.89-.04.6 3.25.16 3.5zm1.53-1.23c0 .19 0 1.75-.38 1.75-.56 0-.55-3.48.07-3.48.44-.04.37 1.4.31 1.67zm3.19 2.44c-.47 0-1.08-3.07-.67-3.42.54-.53.95 2.92.67 3.38zm4.2-14.63c.7-.38 2 2.49 2.06 2.88-.14.36-2.67-2.57-2.06-2.92zm1.4-1s.76 1.33.43 1.52c-1.02.54-2.98-5.71-.43-1.58zm-2.82-2.39c-1 0-.48-1.48.15-.83s.27.55-.15.77zm.76-3.07c.57-.46 1.43 2 .6 2-.49-.02-.96-1.73-.6-2.06zm.81 20.9c-.27-.24-.47-2.9.08-2.9s.98 2.81-.08 2.84zM357.09 203.51a.64.64 0 00.06.14.59.59 0 01-.06-.14zM357.09 203.51a3.43 3.43 0 01-.09-.51 1.25 1.25 0 00.09.51zM389.78 151.78l-.06.15s.05-.08.06-.15zM359.32 174.2a.59.59 0 000 .39 1.19 1.19 0 010-.39z" fill="#bd8a5e"/><path d="M244.5 208a.3.3 0 00.05.16.6.6 0 01-.05-.16zM387 126.09c.06 0 .17.14.31.35-.13-.2-.23-.34-.31-.35zM347.17 183.28a.26.26 0 00.07.11.52.52 0 01-.07-.11zM398.59 140.43a.67.67 0 000-.37 2.62 2.62 0 010 .37zM249.6 146.16c-.08.62 0 1.48-.09 1.71a3.79 3.79 0 00.09-1.71zM256.93 151.9a3.49 3.49 0 01.07.51 1.08 1.08 0 00-.07-.51zM252.58 131.68zM252.58 131.68v-.2a1 1 0 010 .2zM255.81 153v-.21a.28.28 0 000 .21zM251.31 208.37a.93.93 0 00.1.39c-.04-.15 0-.3-.1-.39zM231.52 222.46c0-.1 0-.27-.11-.48.04.35.08.55.11.48zM227.59 216.63a.65.65 0 010-.13.18.18 0 000 .13zM251.41 208.76a.4.4 0 00.09.17 1.4 1.4 0 01-.09-.17zM257.52 122.74a.41.41 0 010-.16.41.41 0 000 .16zM257.55 122.58zM368.71 197.25c0-.59 0-1.53-.71-1.13s-.13 2.42-.61 3.06c.55-.74-1.17-5.6-1.57-5.36-.94.58 1.08 4.85.19 5.91-1.33 1.58-.32-4-1-4 0 0-1.05 6.45-1.11 7.12 0-.56.31-3.84-.51-3.94-.49-.06-.36 3.69-.89 4s.43-3.32-.62-2.69c-.66.39-.1 2.53-.25 3.16a4.91 4.91 0 01-2.31 3.26c-.11 0-.08-.58-.47-.33-.79.51-.88 1.71-1 2.53s-.14 6 .29 5.68c1.43-.91-.83-5.36.75-6.24.33-.18.14 3.93.21 4.11.71 1.94.95-.42.82-1.37-.06-.42-.86-3.43.32-2.77.65.37.23 3.49.9 3.49.51 0 .84-5.52 1.06-6.08 0 .11 0 1.91.34 1.8.94-.35 0-3.37.93-3.37.63 0-.41 3.54 1 2.52.85-.64-.07-4.93.89-4.93.52 0-.26 2.47.29 2.75 1.46.76 1.42-3.45 1.48-4 0 .94-.24 4.85 1 3.79 1.67-1.34.46-5.35.58-6.97zM363.33 164.73c0-.3 0-.89-.42-.92-.5.34-.18 1.81.42.92zM400.58 182.26a6.53 6.53 0 01-.13-2.49 4.41 4.41 0 00.13 2.49zM404.81 170a2.62 2.62 0 000 .62c.01-.27-.01-.51 0-.62z" fill="#bd8a5e"/><path d="M399.89 174.05c1.06.25.7 3.35.56 5.72.15-.93.39-1.88.46-2.54 0-.21.11-.7.2-1.24-.15 2.51-.38 5.9.69 6.63-.17-.11 1.74-5.84 1.82-6.74.07-.67.63-4.9.05-5.29 1 .67-.49 6.22.92 6s.39-4.21.23-6c0 .2-.05.38-.16.44a8.45 8.45 0 01-.43-2.43s.42-.7.55-.9a2.53 2.53 0 000-1c.32.89.8 6.77 1.58 6.74 1.44-.05-1.08-6 0-6.54-.22.09.82 2.27.76 2.32 1.2-1 .52-3.89.56-5.25 0-.46.34-1.91.39-2.94.28 2.37 0 5 .86 7.2.46 1.15.68 1.29.74-.31.09-2.35-1.13-4.27.3-6.58.28 0 .26 5.11 1.08 3.91.46-.68-.46-6.21-1.19-6.54-1.05-.47-.29 1.59-.64 2-.72.75-.44-1.73-.41-2 .53-4.6-.9.18-.88.19-2.2-.61-.28 3.94-1.55 5 .78-.65 0-3.61-.06-4.45s-1.21-6-.74-6.25a.94.94 0 00.52.11c.34-.09-.43-1-.76-.74a4.15 4.15 0 00-.63 2c-.21 2 .9 3.73 1.11 5.67-.08-.72-1.08-1.28-1.18 0 .23-.87-1.15-.49-1.4-.14-.49.66.12 2.27.21 3 .11 1 .85 4.72-.21 5.31.44-.25-.17-5.1-.31-5.62a24.79 24.79 0 01-.83-4.06c-.05-.56-.22-2.21-.91-1.21-.82 1.2.66 5.2.94 6.44.8 3.43 0 6.89.28 10.38a25.55 25.55 0 01-.58-7.89 13.58 13.58 0 00-.39-3.65c-.07-.29-1.33-3.62-1.52-3.43-.65.69.75 5.38.79 6.2 0 .48-.23 5.14-.46 5s.07-4.28-1.21-3.69c-.53.24-.53 4.29-.58 4.82-.19 2.24.61 4.08.8 6.28.11 1.24-1.3 6.44-.19 7.09-.37-.22.62-6.32.59-7.2a32.89 32.89 0 01.23-3.82zm5.4-11.68a12.4 12.4 0 010 1.42 3.77 3.77 0 010-1.42zm-1.14 0c.08-.07 1.36 3.5.58 3.5-.6.05-.63-2.93-.58-3.45zM403 174.52c0 .11.28 1.77 0 1.73s0-1.48 0-1.73zm-.75 1.4c0 .1.25 1.76 0 1.7s-.05-1.71.04-1.7z" fill="#bd8a5e"/><path d="M404.78 167.68c.06-.09.04-.08 0 0zM404.81 170v-.11c0-.03.01.02 0 .11zM397.88 183.42a9.14 9.14 0 00.56-7.36c-.27-.71-.35-7.75-.48-7.75s-.35.21-.4.47c-.07-1.61-1.3-4.08-1.18-.39 0 1.42 1.43 6.31.39 7.38.13-.13-.64-4.08-1-4.19a15.07 15.07 0 01-.56 4.52c.43-.42-1.26-5.07-1.43-5.51 0 1.09.49 8.75-.69 9 0 0-1.18-6.35-1.12-6.4-.5.4-.38 2.43-.4 2.91v2.95a4.87 4.87 0 00-.44-1.94c-.52-.93-.33-1-.79 0s.37 4.21-.55 4.8c.23-.15-1.12-5.24-.48-5.46-1.21.41-.69 4-.71 4.94-.17-1-.34-2.08-.52-3.12 0 .79.28 5.4-1.1 5.27.17 0 .86-6.54-.82-4.64-.51.58-.19 7.18-.79 7.18-.22 0-.36-9-.6-9-.74.19-.88 5.38-1.13 5.31-.55-.16-.2-4.19-1.18-4.61-.14-.06.55 4.07.44 5 0-.36-.61-.72-1 .39-.3.86.25 2-.12 2.84.38-.83-.55-2.09-.78-2.89a8.14 8.14 0 00-.32-1.73c-.17-.32-1-.43-.88-.89-.3 1.11.3 2.3.06 3.44-.09.44-.35.68-.46 1.21-.06.32.23 4-.11 4s-.76-5.54-1-5.41c-.77.38.65 4.39-.21 4.39-.64 0-.16-2.49-.63-2.57-1.43-.26 0 2.59 0 2.84.52 3.34-1.3-1.32-1.32-1.32-.36 0 .45 2.42 0 2.63-.25.1-.67-3.5-1.23-1.1-.07.31.68 4.12.68 4.12-.38-.1-1.64-4.32-1.52-4.45-.6.66.33 2.82.1 3.65-.5 1.79-.67-.35-1.08-1.12-.18-.35-.79 2.81-.92 2.72-.36-.24 0-1.08-.35-1.3-.69-.41-.51 4.52-.82 4.77-.94.76-.14-2.68-.31-3.31-.5-1.9-1-.5-1.14.67a28.85 28.85 0 00.14 5.8c.1 1.11-.06 3.91.68 4.82.85 1.07.65-1.62.65-2.22s-.52-4.64.51-4.67c.65 0 .19 4.12 1.1 4.16.56 0 0-7 .66-7.75a11.27 11.27 0 00.38 3.85c-.28-.25.89-1.8 1-2.12s0-1.21.25-1.36c.6-.32.42.62.89.73.24 0 .37-.76.47-1.3 0 1.17 1.35 3.17.83 3.76.34-.39 1-2.19.71-2.65.43.63 0 1.46.45 2.1-.27-.41 1.08-6 1.39-6.06-.07 0-.27 4.53.19 4.69 1 .35.18-3.76.5-4.33 1.08-1.9.4 2.82 1.12 2.9 1.31.14.18-3.88 1-4.25-.35.17 1.94 5.51 1.46 5.94.47-.42.33-1.12.28-1.76.26.72 1.39.65 1.39-.05a4.05 4.05 0 00.51-1.1 1.77 1.77 0 00.08-.33v.77c0 .81-.09 3.1 1 1.77.71-.84.42-3.24.38-4.3 0-.25.06-4.55.46-4.15.68.69-.46 2.71.37 3.39 1 .85.48-1.78.72-2.23.8-1.54.82 1.44.75 2.22-.14 1.35-1.43 4.17-.72 5.38-.08-.14 1.21-2.7 1.32-3.12a15.2 15.2 0 00.41-4.15c.14.93.38 1.69.85 1.91 0 0 .84-2.61.63-2.95.36.57-.35 1.58.12 2 .18.18 1.18.14 1.14-.09.43 2.64 1.23-1.54 1.28-2.3.08-1.29-.15-2.58 0-3.85.05-.39.74-2.14.54-2.49.73 1.3 0 4.42.17 6 1.67-.71 2.07-1.33 1.89-3.16-.11-1.22-1.16-3.5-.28-4.61-.32.43.63 3.54.67 4.22zm-17.21 4.69c-.08-.19-.63-2.78-.15-2.78s.22 2.55.15 2.78zm2.3-5.31a.33.33 0 010 .13.2.2 0 00.03-.13zm-.46 5.9c-.34-.79.64-2 .87-2.78l-.05.62c-.06.39-.2 3.6-.82 2.16zm2 2.61a8.61 8.61 0 01-.08-2 4.37 4.37 0 01.07 2zm1.79-2.11v-1.26c.01.42 0 .84-.01 1.26zm4.36-4.74v.74c.02-.2 0-.5-.01-.74zm1-4.3c0 .62.05 1.23.05 1.84-.03-.5-.02-1.15-.03-1.84zm1.55 5.59c-.09.65-.13-1.95-.06-2.27a6.67 6.67 0 01.08 2.27zm.88 2.19c-.64.36-.09-1.27.24-1.5s-.12 1.38-.22 1.5zm2.31-2.31c-.21.3 0-4.64.19-4.57a9.3 9.3 0 01-.17 4.57z" fill="#bd8a5e"/></svg>