<svg xmlns="http://www.w3.org/2000/svg" width="236" height="300"><path fill="none" stroke="#000" stroke-linecap="round" stroke-linejoin="round" stroke-width="2" d="M84.47 184.14l-7.28 10.6M105.04 202.02l3.98-7.28M124.27 204.68l2-7.28M97.74 150.28h29.85M145.49 162.25l-15.92 23.87h21.89"/><path d="M78.59 86.64l8.61 14.53-15.28-6.57-4 5.92 9.91 10-16.58-2.69-6.57 14 32.51 5.28-3.34 23.25-29.92-2.69-10.54-29.82-10 1.29 6.67 29.28-37.88-.75 10.65 36h7.32l-6-25.3 29.85 2L47.37 173l-18-4 1.29 11.3 32 10 5.27 15.93s10.62 4.58 27.23 6.57 61.84-1.95 61.84-1.95l-2-14.64a82.07 82.07 0 0114-7.32c9.3-4 19.26-29.17 19.26-29.17l10-4-11.31-4.63 16.58-24 28.63-.65v-6.67l-30.57-.65-11.3 7.32 7.32-11.95 25.19-2.69.64-5.27-30.57-.75-35.27 42.64L149 147l1.3-22.6 10.65 2.69-4.63-6.68 8.61-2.58-4.62-4 4-7.32-19.91-4 9.25-10.66-8-4.63-13.24 11.3 3.23-11.3H111.1l-1.3 10-4-10.65H94.52l-.65 9.25-3.33-8.61zm-2.69 72.44l1.29 6.67-12 10.55-6.67-16.58z" fill="none" stroke="#000" stroke-linecap="round" stroke-linejoin="round" stroke-width="2"/></svg>