<svg xmlns="http://www.w3.org/2000/svg" width="300" height="300" viewBox="0 0 300 300"><path d="M294 177.56c-1.28-13.91-1.67-26.65-4.49-39.16-1.87-8.7-6.25-16.35-9.55-24.58-.39-.95-4.57-7.51-8.86-14l-.21.13a.71.71 0 01-.94.59l-1 .95c-6.79.13-10.77 7.38-17.57 7.7-9.18 3.91-22.12-.23-29.74 8.12-6 1.73-13 4.87-19.3 2.8-11.06-.36-18.83 10.37-30.22 11-8-1-15.17 3.59-23.08 4.84-13-.51-26.73.56-36.71 8.91a15.17 15.17 0 00-5.35-8.55c-3.62-6.49 0-15.35-7.68-20-4.9-1.6-7.14 5-11.87 4.86-2.07 2.54-4.45 4.58-6.82 7.1-4.57-5.86-7.4-13-13.71-17.75-2.2-4.43-.6-11.53-6.76-13.61l-2.14.61c-5.08 5-9.21 11.66-14.28 17-1.42.32-3.47-2.07-3.94-3.81-1.09-3.49-2.18-8.54-6.77-9-1.41-2.4-3.49-5.49-4.92-7.85a10.43 10.43 0 01-.78-1.57 46 46 0 00-4.23 6.22C12.14 118.1 2.8 139.88 1 162.64c.17.67.16 6.4.24 13.27.67 0 1.35-.06 2 0v-.22a133.55 133.55 0 0117.86-.89c.31 3-3.8 3.15-4.29 6-.8 3.8 2.19 7.44 4.88 9.66 1.1 1.43 4.27-.29 5.69 1.45l.31-.33a1.15 1.15 0 01.15 1.76c-3.8-.17-8.71.14-11.55 2a4.22 4.22 0 00-1.75 5.37l1.11 1.12.31-.32c2.52 1.43 5.37-.14 7.9.34 1.74.47 2.22-.46 3.48-.31a8.82 8.82 0 015.37-1.09c-2 1.42-4.59 3.3-5.39 6a4.9 4.9 0 001.73 5.39c.63 1.26 3.47.95 2.21 2.84-2.21 1-4.9 1.57-6.33 3.78a3.73 3.73 0 002.35 4.28c3.64-.46 6.48.49 10.27 1.14.95-.48 3.64-.16 5.06-.63 1.27-1.43 2.38-3.78 1.13-5.69-.94-1.26-1.41-2.54-3.16-2.85-.94.47-2.37.31-3.64.29 2.06-.93 4.75-1.09 6.34-3.45 1.74-3.15-.78-6-1.24-9h6.95c-2.06 2-2.23 4.09-2.08 6.78.63 2.52 4.58 2.86 4.26 6a5.23 5.23 0 00-4.28 2.19 3.67 3.67 0 002.11 3.16c3.64-.64 9.17 1.77 12.49 0 .64-3-3-3.19-3.94-4.91a4.31 4.31 0 004.26-2.77 19.92 19.92 0 01-.9-10.44c.93.16 1.57-.62 2.52-.32.78 3.81-4.13 7.42 0 10.6 1.1 1.11 2.69 1 2.84 2.84a1.52 1.52 0 01-1.12 1.9 1.89 1.89 0 00-1.88 1c-.32 1.56 1.1 2.21 2.21 3 3 1.91 7.73 1.14 11 0a3.36 3.36 0 002.08-2.58 4.74 4.74 0 00-2.83-3.16 2.66 2.66 0 01-2.06-.48 4.92 4.92 0 003.49-2.83c-1.89-3.49-.13-6.18-2.34-9.51 4.11 0 7.73 3.52 12.32 1.77 5.7-2.5 9.8 1.47 15.65-1.05 6.94 3.66 13.28-2.18 20.39 1.8 3.95.16 5.07-2.84 8.85-1.71 1.11-.94 2.06-2 1.76-3.63-4.74-4.14-12.17-1.62-17.39-4.31a16.09 16.09 0 01-6.48-1c-.3-.65.18-2.39 1.43-2.21 2.38-.64 6-1.09 7.44-3.79-2.4-3.91 2.16-6.32 1.44-9.38l3.24.18a39 39 0 017.19 1.64c6.81 2.4 14.24.52 19.12 7.49 6.63 2.71 12.94 6.53 20.37 7.33 2.6.84 5.39 2.66 8.28 3l2.53.91a22.51 22.51 0 012.57.18c.72.31 6.09 1.87 6.73 2.3l2 .1a.93.93 0 00-.05.1c1.16.07 6.49 2.68 7.4 3.35a7 7 0 011.69 1.55 28.53 28.53 0 014.26 6.17c.28 5.7-7.93 6.47-7 12a11.68 11.68 0 00-3.65 2.82c-.17 2-.48 4.1-2.07 5.69a2.74 2.74 0 001.74 2.21h.94c0 1.27 1.58.18 2.21 1 5.07-1.09 9.65.51 14.87-2 6.33 1.29 10.75 3.2 17.05 4.63 1.11 1.27 3.81.8 5.06 2.86v.73l-1.57.55c-.48.17-.94.45-1.25.13l-.64.64c-2.38.61-5.21-1.77-7.27 1.88.93 3.95-5.7 2.5-2.86 6.62 2.66 5.53 9.16.82 12.78 4 .95.48 3.79 1.75 5.38.8v.31a21.94 21.94 0 007.91-1.38c4.73 1.28 10.11.82 14.54 2.57l.63-1.41a2.08 2.08 0 00.66.53.79.79 0 01.63-.14 25.57 25.57 0 013.8.65 190.45 190.45 0 0017.67-33.2c5.13-15.08 9.39-32.3 8.88-48.74zm-2-4.41s-10.92-.49-12.23.55-14.76 1.32-19.49 0-29.25 1.05-34.79.78-14.48 2.64-23.71 2.11-35 0-36.88 1.06-27.25.37-27.25.37c-2.95-2.5-5.84-5.2-9.45-6.16-1.26-2.7-1.88-5.08-4.88-6.51-3.33-1.41-8.07-1.28-8.2-6.34l-1.1-1.43c.48-1.24 3.62.5 4.25-1.4 2.69-.78 5.21 1.43 7.9 2.08 6.17-.92 13.62-4.39 19.44-.25 3.63.62 7.44-2 11.71-1.86 11.54 2.23 23.56-2 35.73-.54 6 1.12 12-2.18 18 .68 10.44-.93 21.35-.39 33-1.64 8.06-.46 16.75 2.1 25 .07l13.91.36c.63 0 1.1 1 1.74.17.47-.17 3.64.17 6-.46.42 5.99.96 12.21 1.3 18.36zM176.59 154s1.78-4.93 2.37-5.33 11.86-8.31 17.59-9.3 8.94.16 13.84-.58c5.33-.78 19.75 1.18 19.75 1.18s-1 3.56-2.36 3.56-7.12-3.17-12.46-1.77c-4.78 1.24-8.69 0-13.24.18s-9.68 2-12.44 4.55a46.1 46.1 0 00-5.73 7.12zm113.83-1.59v.64c-8.23.12-15.5-.53-23.55.24-7.76 1.57-15.66-1.62-24.19-.07-9.16 0-19.77.91-29.09 1.35-2.85-.17-3.63-1-6.32-1.45-6.62 1.07-14 .2-20.79.13l-.64-.08a26.72 26.72 0 016.06-7.26c3.7-2.9 6.77-1.82 12.3-2.42a77.4 77.4 0 0112.25-.59c6.72 0 7.71-.19 10.08 1.58s4.94-3.74 5.53-4.77-5.73-1.74-10.59-2.23-21 .26-24.18.24-11.27 4.79-12.65 5.79-5.93 3.15-6.72 3.75-2.77 6.93-2.77 6.93c-6 .82-11.65 1.37-17.75-.13-4.89-1.13-9.81 4.54-14.21.57-7.27-3-14.25 4.57-21.5 0-3.09-.75-5.5 1-8 1.09l-2-1.76-.39-2.64 4.37-2.69c3.61-2.88 7.79-6.06 11.87-7.42 4.9.5 9-.91 13.12-1.07 6.64 1.61 10.76-1.7 16.61-1.38 2.37-.13 8.18 1.72 8.18 2 6.81-3.14 14.58 3.27 20.44-1.63 1.29-9.16-8.7-.51-12.33-4.31 4.26-1.57 9.34-.59 13.77-2.79a8.58 8.58 0 016-4.57c1.89.63 5.37 0 6.78-.61 7.76-2.66 12.63 6.2 20.23 3.53l.63-.63.48.64a35.82 35.82 0 0110.58 2.24c4 .32 5.86-.29 9.65-1.08-.62-2.05 1.59-4.1-.78-5.38l-3.14-1c-1.57-1.43-3.48-.47-4.26-.47h-3.14c0 .32-2.69.47-2.52 0-2.06.3-2.85-1-4.59 0l-1.42-1.11c1.26-.94 2.38-2 3.8-2.35 5.7.32 9.66-4.72 15-4.55 1.89.17 4.27.17 6-1.09 4.58-.28 8.54-1.85 12.49-1.37a11 11 0 003.48-1.42c2.25-3.14 5.68-4 8.87-5.45l3.05-.24c8.03 14.07 14.79 28.81 15.9 45.29zm-76-30.58c8.07-.62 13-9.45 21.37-8.16 10.12-1.4 21.35-2.15 29.11-9.41a40.42 40.42 0 015.91-2.64l2.18 3.77c-2.57 2.21-5.57 1.72-9.21 5.52-1.74 2.67-10.92 2.49-10.92 2.49-2 1.58-7.58 1.89-7.58 1.89-1.1.3-2.53.93-3.79.3a26.09 26.09 0 00-10.44 3.76c-3.53-.25-6.41 2.12-9.49 2.78l-3.85.16c-.22-.16-2.62-.3-2.32.33-.15-.31-.63-.31-.94-.31zm-59.06 14.53c7.92-5.22 17.87-1.23 26-5.63 9-3.61 16.79-11.8 28.16-8.13 1.25-.32 6 .9 7.89.88l3.12.51h-.08a11.93 11.93 0 002.41 1.17 6.3 6.3 0 003 0c5.52 3.64 11.39-2.51 15.48 3.21a2.9 2.9 0 01-1.43 2.36 8 8 0 01-2 0c-3.28 2.37-6.79 0-6.79 0-.8.33-2.22-.93-2.85 0l-1.41-.32c-.17-.16-3.15-1.43-3.15-1.43-.78-.3-1.58.79-2.21-.63 0 .63-.95 0-.95 0-.47.15-1.73 0-1.43.94-1.11 2.05-2.05.15-2.19.15l-1.43.31c-.15-1.11-3-.32-3.47-1.43-.63-1.59-5.53-2.08-5.69-2.22.16-.17-2.37-.19-2.21-.34 0 0-7.58 1.08-8 1.4-2.21-1.59-8.69 1.53-7.9 2.18-2.7 3.46-7.44 3.44-11.7 3.77-4.43 1.09-5.28 0-8.44 1.92 5.3 1.11 8.89 2.81 10.48 1.4 2.37 1.26 5.38-2.36 6.79.64-.16 3-3.79 2.35-5.38 2.83-3.79-.8-7-2.08-10.9-1.14-1.75.78-1.86 1-3.76.21.16-.16-2.22-.28-2.37-.6 0 0-8.25-.9-12.05.34-3.63-.49-6.32 2-9 .28a59.64 59.64 0 01-11.21.77c-3-.49-13.8 6-16.08 8.49l-3.32.89-.23-1.54c11.94-12.15 30.73-7.82 44.33-11.24zM98.44 117.7c6.31 3.34 2.81 11.1 6.28 16.3.62 4.61 5.2 6.82 5.81 11.4.63.33 0 .81-.15 1.11-4.72-5.51-8.81-11.51-9.38-18.84-.55-2.37-1.34-5.21-3.66-6.61l-2.22-1.6c1.08-.6 2.22-1.16 3.32-1.76zm-39-19.38c6.94 3.66 1.7 12.33 8.49 16.31 5.52 3.64 6.93 10 11.19 14.42-.33.93.3 1.41.46 2h1a15.48 15.48 0 01.84-1.36l1.2 2.51c1.39 3.07 3.28 6.34 5 9.47 4.27 4.14 1.23 11.87 6.76 15.06 4.59.32 9 4.29 10.41 8.56-5.86-1.12-7.89-8.39-14.21-8.58-1.89-1.41-.78-4.1-1.56-6 .19-9.95-12.76-13.63-14-23.12.34-8.36-9.77-12.2-14.33-18.7-1.42-1.13-1.53-3-2-4.57l-1.28-3.59zm-11.12 17.19v-4.06l7.76-9.17.85 2.59a6.48 6.48 0 01.59 2.58c3.94 6.82 13.26 11 15.61 18.71-1 10.91 12.91 13.47 13.52 23.43 1.1 2.84-.18 6.95 3.45 8.86 6.17-.92 8 8.24 13.57 8.26.94 0 1.73 2.68 3.16 1.43a.91.91 0 01.31.64c-2.38 1.41-3.47-2.85-6-.33a74.05 74.05 0 00-9.31-3.19c-7.89-6.81-18.16-7.79-27.31-11.13a28.09 28.09 0 00-3.93-9.19c-7.09-5.86-5.49-15.35-11.33-21.68a11.75 11.75 0 01-.94-7.75zm-21.5-20.07c2.2 3 3.86 8.62 8.74 9.11 2.21 3.81 1.88 9 6.61 11.57.8-.63 1.74-.33 2.85-.78L47 113l-.3 2.25c-2.72 8.49 7 15 7.24 23.68 3.63 5.2 8 10 8.49 16.3 1.27.47 3.16 1.43 4.58 1.44 2.37 1.57 6.33 2.85 9.17 2.24l-.32.3c2.85.8 5.22 2.7 8.53 3.18 1.58 1.59 3.95 1.44 5 3.49 2.68 3.33 12.48 1 9.15 7.31v2.68h-1c-4-2.7-5-9.33-10.72-9.52-1.42-.79-3.8 1.57-5.38.3-3.92-7.12-11.82-7.78-18.47-7.17l-.64.63v-.31c-1.27.63-4.74-1.59-4.58.79-1.42.3-1.42-2.7-2.85-.8 1.43 2.37 4.9 3.8 5.2 6.82-3.79-1.29-6.15-5.72-10.58-5.41-3.31-1.75-3-6.49-7.09-7.13-2.69-.18-4.74-1-7.59-.67a17.21 17.21 0 00-5.69 1.74 3 3 0 01-1.49.92l-2.25.27c4.45-3.14 9.13-7.24 14.82-4.8l6.14 4.29c3.49.17 7.28-.46 10.91-.59a1 1 0 001.43.78c.95-1.59-.63-3.65-.94-5.39 1.15-11.53-14.82-13.94-15.26-24.7-.78-3 1-8.22-3.6-8.55-1.1-1.91-1.42-4.43-2.83-6.34-4.11-3.9-6-5.7-9.93-8.87-.79-.48-1.13-2.45-1.27-3.55 1.36-.48.99-2.06 1.94-3.17zm57.77 95.68a4 4 0 00-1.22-.89c-1.89.32-2.68-1.25-3-2.84.49-4.6-6.14-7.76-.91-11.87 5.38-.14 4.14-11.21 10.29-6.29a60.22 60.22 0 005.35 6.8c-.17 3.49 4.41 7.14 0 10a4.28 4.28 0 01-2.86 3.79 4.54 4.54 0 00-2.13.5zm3.26 3.12l-2.38.08a6.24 6.24 0 00-.29-2.2l3.72-.12c.48 1.41-.35 1.83-1.05 2.24zm-4.17.1a9.33 9.33 0 01-4.74.77c1.42-.94.79-2.68 1.43-3.94.78 1.42 4.25.33 3.31 3.17zm-12.82-.82a3.56 3.56 0 00-.3-1.27c-.47-.48-.14-1.59-1.1-1.74a13 13 0 00-1.09-5.38 13.15 13.15 0 013.49-4.26l4.43-.62c2 3.8 3 9.17 1.7 12.82-1 .73-2.44 1-3.53 1.51zm2.59 1.81a2.17 2.17 0 00-.52 1.19l-2.71-.46a4.17 4.17 0 00.54-1.31zm-40.68-3.83c1.91-3.15 5.22.8 7.13-2.51 1.11-.78 1.89.17 2.06 1.11-.64 1-1.28 2.06-.65 3.17a2.87 2.87 0 002.52 1.43v1.11c-3.47-1.13-9.16.44-11.06-4.31zm.38 2.6l-3.29-.35c.44-.89.53-1.84 2.16-1.63a5.5 5.5 0 001.13 2zm9.32-17.88c.31-.95 1.42.78 1.42-.48 11.69-.6 23.39-1.19 33.67-.53-.48 1.58-1.59 2-2.39 3.47-2.52.14-5.53.14-6.8 3-.31.63-.48 1.41-1.11 1.74-3.32-1.13-6-4.62-9.64-3.67-2.05.47-3.17 4.11-5.53 3.16-1.58-1.91-2.21-3.5-4.74-4.14a9.51 9.51 0 00-4.59 1.73c.8-1.44-.14-2.87-.29-4.28zm.91 15.15c-.61-3-.3-5.52-.29-8.38 1.11-1 2.06-2.21 3.32-2.52 2.84.33 3.62 3.95 6.31 4.61a2.91 2.91 0 01-2.07 3.47c-1.12 1.59 1.26 3.64-.8 5.06-1.42.78-3-.65-3.65 1.41-.28-1.9-4.72-.66-2.82-3.65zm9 2.25c1.11-1.43-1.1-3.47 1-4.57 1.73 1.25-1.44 5.2 1.56 6.31a2.68 2.68 0 011 .19l-2.08.44a24.17 24.17 0 01-6.25.44c.5-2.19 4.13-.11 4.78-2.81zm2.84-.78a2.88 2.88 0 000-3.79c-1.74-.64 0-3-.45-4.74 1.42-1.26 2.53-3.16 4.43-2.83 2.84 1.1 7.26 2.87 8.36 6.19.46 3-5.55 2-2.87 6-1.73 1.27-4.26.94-5.69 2.22-.77-1.46-3.3-1.64-3.77-3.05zm8.64 3.7a3.39 3.39 0 002.73-2.25c.48-1.26-1.1-2.69 1-3.17 1.42.18.62 2.22 1.58 3.17-1.17 2-3 2.28-5.27 2.25a3.78 3.78 0 01-1.53 0zm31.84-6.76l1.75-3.78c4.27 2.06.46 7.6 5.83 7.45-.8 2.22-3.65 1.41-5.07 2-2.84-.48-4.74-1.91-7.74-1.44-.47-3.14 3.81-2.01 5.24-4.23zm2.3-10.89c-.63-.15-.63-1.26-.31-1.58.16.3.79 0 .64.48-.06.3.11.93-.33 1.1zm-87.21-21c1.74-.93 3.17.65 4.74.8C11.68 162 8.2 162 3.3 163c-2.3-5.89 4.76-3.8 7.45-5.08zm-6 15.31c-.32.31-.64.79-1.12.63-1.1-2.36-.61-6.31-.29-9.16 5.54-1.41 11.07-1.39 14.72-6.13-4.26-3.17-9.8-1.62-14.38-.35 2.18-20.84 9.82-40.09 19.68-58.25-.33 3.79 5.05 4.27 6 7.92 7.11 1.3 4.55 10.13 10.72 12 1.25 3.49-.18 7.76 2.18 11.08 2.5 6.81 12 9.21 13.7 16.48-.32 2.06.31 3.8.45 5.7-5 .63-11.54 1.86-15.32-3.36-2.36-.48-5.36-1.75-7.59 0-3.71.56-6.52 3.46-9.39 6l-1.55 1.35 3.69.25 1.87-.3c2-.38 4.08-1.42 6.15-1.9 3.79.18 7-.76 9.65 2.08 1.86 7.6 10.41 4.46 13.72 10.47 2.05.48 4.26 2.87 6.17 1.13-.16-1.11-1.42-.93-2.21-1.43a6.34 6.34 0 00-2.36-5.69c7.6-.61 15.66-2.16 20.22 5.76.63 1.41 2.53.94 3.78 1.41-2.87 8.23-13.75 2.36-19.13 4.23l-20.56 1.2-1.43.79c-.47-.79-1.41-2.06-2.52-2.22-3.3 1.29-3.86-2.39-5.7-3.66l-3.37-2.62a10.64 10.64 0 01-1.66.25c-3.17.15-1.91 5.22-5.39 4.56l-1.74 1.43c-6.01.27-11.86-.07-17.08.38zm22.08 16.36c-1.89-.19-4.11.29-5.36-1.45s-3.47-4.27-2.51-6.79c.32-3 5.38-3.31 4.28-6.63 1.11-3.17 5.38-2.35 5.39-6.15a3.27 3.27 0 011.47-.75l2.58 1.93c1.37 1.15 2.12 3.13 3.37 4.51 1.89 1.27 4.75-.45 5.06 2.87-2.08 4.26 3.13 8.69-1.94 11.37-5.31-2.35-7.86 5.38-12.43 1.12zm10.48 27.16a15.84 15.84 0 014-.07c.64 1.25 2 2.52 1.1 4.25-4.74 3-9-1.6-14.22.27-.95-.47-1.9-1.58-1.1-2.68 1.07-1.06 3.21-1.43 4.72-2.29zm-1.91-1.05l-2.9.05a2.67 2.67 0 001-2.07l1.86-.2c-.8.55-.99 1.16-.05 2.25zm6.15-5.67c-.41 1.82-3.17 2.29-5.08 2.93l-3.42-.32c-1.37-1-2.94-1.95-3.83-3.43a7.19 7.19 0 013.5-6.47c1.59-2.54 7.28-3 7.9 1.45a7.14 7.14 0 01.93 5.84zm17.51 9.52c-3.32-.32-7-.32-10.11-1.12.7-.8 1.91-.91 2.87-1.28l4.61.63a7.74 7.74 0 002.63 1.8zm-5.91-5.5l2.5.09a1.49 1.49 0 00-.21 1.14 3.49 3.49 0 00.32 1.47l-3.08-.13a2 2 0 00.55-1.34 3.85 3.85 0 00-.08-1.2zm5.76-.8c-.36.46-1.57.23-2.46.43l-3.86-.94c-1.81-3-6.55-4.87-2.49-8.54 1.58-.46 2.69-2 4.59-2v.63c1 .3 2.21-.94 3.32 0 2 2.38-1.45 6.33 1.71 8.55-.01.79.15 1.9-.76 1.9zm16.12 4.94c.79-.33 1.27.47 1.74.78-1.43 2.69-5.38.78-8.23 1.73a6.44 6.44 0 01-2.53-1.11 4 4 0 001.69-1.54l5.78-.39c.53.25 1.06.37 1.55.56zM68.29 215h2.84a2.49 2.49 0 00.94 1.82l-3.79.07a2.78 2.78 0 00.01-1.89zm6.8-2.81a13.9 13.9 0 00-2.86 1.27l-4.43.36c-1.67-2.58-6.43-3.77-3-7.35.48-1.41 0-4.11 2.38-3.95 2.38-.64 4.12.79 6 1.75 1.46 2.22.5 5.73 1.91 7.92zm44.17-13.81c3.63 1.73 9.17.5 12.8 2.88-1.9 1.41-6.32 1.7-8.85 1.85-6.33-3.81-13 1.7-20.08-1.48-5.86 1.89-11.86-1.12-18 1.38-3 1.89-7.73-4.6-11.68-1.14-1.74-1.74-5.06-1.9-7.11-1.43 0 .94-1.12.62-1.59.94-.16-.32 0-.48.16-.65-1.57-1.72-4-.15-5.85-.33h-1.78c.32-.63-.63-1-.94-1.43-1.27 1.27-1.89.33-3.32 1.42-.64.63-1.43 0-2.06-.31l-9.65.3v.62c-2.21-1.91-4.73-1-7.42-2.07 0-1.11-1.41-.16-1.89-.79-5.38 1.88-9.65 2.18-15.49 1.84-.81-.46-.64-2.06-.16-2.85a23.39 23.39 0 0112.81-2.48l5.14.39c2.89 1.8 7.44 1.12 10.5 2.2v-.48h1.11c-.32.48.31.8.47 1.1a40.72 40.72 0 007.89-.37l2.72-1.2c.87.88 1.42 2.14 3.13 2.25 3 .48 6.33-.77 9-1.23l4.72.25c1.1.41 2.71-.72 4.13-.24 2.49-.55 5.1.38 6.77-1.31l2.87.24c5.53-2.37 9.63 3.34 15.17.66l5.46-.33a35.37 35.37 0 0011.02 1.8zM104 195.79l1.71-1.69c.47-.49.63.94.46 1.72zm12.8-11.64v5.38c-2.85 1.42-7.44.93-8.87 4.25-.46-3.95-8.38-.34-6.77-6.36-.79-1.56-4.11-2.21-2-4.43-1.42-1.73 1.27-3.45 1.74-4.88 1.13-2.52-1.09-5.06 1-7.74.31-.78 1.59-.62 2.21-.14a2.67 2.67 0 003.48.79c1.42-1.41 3-2.52 4.74-.79.47 1.91 2.36 3 3.46 4.45.51 2.98 4.45 6.47.96 9.47zm6.22-6l-3.67-.25a76.53 76.53 0 00-5.36-8.58 4.39 4.39 0 00-4.89-1.91l-.16.16c-3-5.36-7.55-11.87-14.19-12.52-2.67-2.69-1.87-6.8-3.13-10-2.73-4.28-4.74-8.9-7.3-13.14l-1.67-3.8c2.89-3.42 6.81-5.72 10.79-7.78l2.56 2.21a5.39 5.39 0 012.39 2.61c-.18 10 7.22 16.77 11 25.17a9.69 9.69 0 00.53 4.36l1.2 2.45c4.89 2.07 2.81 10.91 9.62 9 .94.64 2.36 1.11 3.47 1.75 1.1 3.31 3.45 7 7.57 7.76 2.67 1.75 4.24 3.33 6.93 5.09-4.79-.73-10.42-2.67-15.71-2.62zm20.83 4a19 19 0 01-4-2.64c.36 0 5.56 0 7.08.25s15.81-.26 18.18-.53 7.91-1 10.54-1.31 16.86-.53 20.81-.26 7.65 0 11.07 0 15.82-1.6 17.92-1.85 26.09-1.06 29.77-1.31 8.69.52 10.53 1.58 13.71-.27 16.08-1.33 9.48-.25 9.48-.25a2 2 0 01-.78 2.36c-1.32.8-8.7 1.06-11.33 1.84s-10 2.37-13.16 1.34-8.7-1.34-14-1.34a15.17 15.17 0 00-10.28 4c-1.31 1.34-13.17-.25-14.74-1s-17.13.78-22.4.25-7.62 3.05-9.72 4.67-17.13-1.62-20.81-2.62-14 .25-16.08 2.09-7.11.54-8.16 0-4.21-3.16-6.05-3.94zm53.11 53.16l-2.06-.8c2.38-2.21.67-6.95 4.62-7.73 1.73-.63 1.11-3 1.75-4.58 2.06-1.42 4.91-3.63 5.39-6.16.62 6 4.08 11.56 5.64 17.56-5.43 1.88-10.02 1.08-15.39 1.71zm27 18.56c-.8-.78-1.9-1.43-1.43-2.84a3.71 3.71 0 002.86-2c.16-1.13.32-2.84 1.91-3s4.13.22 5.77-.5l2-.37c1.09 3.58 4.72 6.53 7.41 8.2 1.43-.31 1.42 1.91 2.84 2.06-7.84 4.18-14.15-3.26-21.42-1.55zm64.29-42.82a150.82 150.82 0 01-21.47 46.42c-2.36-1.9-4.75.46-6.8-1.45l-.47.48c-5.37-.8-12.48 0-17-5.11-3-1.74-6.15-4.76-5.67-8.55-5.52-6.34-14.68-6.2-21.95-9.24a4 4 0 01-1.73-3.95c-4.39-7.43-3.28-17.05-10.34-23.41a4.36 4.36 0 00-1.49-.85c-.79-.33-5.8-3.43-6.66-3.61 0 0-.07-.05-.11-.06l-.14.05-2.83-.32.22-.17c-1-.14-7.77-3-8.71-3.11l-.11.1-3.72-.47c-9.16-4.19-19.8-5.52-28.27-10.22 0 0 4 1.4 5 1.14s8.44-3.17 10.55-3.17 10.27 0 12.9 1 7.43 1 10.54 1.57a10.08 10.08 0 008.69-2.36 10.22 10.22 0 017.37-2.37c3.42.27 14.64-1.26 19-.79 2.38.28 3.69 1.34 7.91 1.59s9.76.52 11.07-.78 5.26-3.42 11.33-2.9c4 .34 10 .79 13.69 1.31s9-1.58 13.44-1.85c2.5-.14 9.81-2.63 9.81-2.63.31 11.71-.25 23.29-4.11 33.71z"/><path d="M72.12 91.86c1.27-1.41 1.59-.78 2.86-2.34L76.55 92c-1.43 4.25-4.74-.33-7.6 1.24-2.37 2.21-5.38 2.35-8.22 1.57 0 0-.48.15-.31 0-3.48-1.29-6.17-1-9.49.59-2.21-.47-4.26-2.54-6.48-1.13-1.73.79-3 .32-4.89.79.47-1.89 3-2.52 4.59-3.31l.31.16c2.21-.46 5.22-4.74 7.74-1.07 1.43-.31 2.86-1.74 4.43-.79 1.1 3.17 3.64 1.11 5.53.5.8-1.27 2.22-1 3.33-.48l.94.8A24.27 24.27 0 0069 89.18c.94 1.25 1.1 3.47 3.16 2.68M115.73 45.52a10.26 10.26 0 00-5.93 1.18 3.87 3.87 0 01-1.35.21c-1.22.58-1.22 2.35-.82 3.54.39 1.38 2 1.77 3.16 2.17a5.31 5.31 0 003.56 0c1-.19 1.77-1.38 2.76-1.57 3-1 5.93-.6 8.9-.2 1.57 0 3.34.59 4.54 0a32.21 32.21 0 013-1.38c1.37-.6 3 .2 4.32.37a18.44 18.44 0 012.85-.46 1.34 1.34 0 001.74.17 12.21 12.21 0 013.14-.08.61.61 0 01.18.41c.8.59.61-1.38 1.74.32.05-.14.26-.32 0 0a15.67 15.67 0 012.43-.14c.59 0 .4-.78 1.06-1 .71-.41 1.51-.59 2.3-1 1-.6 2.57-.39 3.85-.07.68.07.68-.72 1.12-1a8.6 8.6 0 012.93.24c.4.19 0 .6-.07.72s.47.27.66.27a1.34 1.34 0 00.75 1.16c2 .22 4.39.8 5.53-1.25.45-.11 1.24-.11 1.58-.16a5 5 0 002.43.44 1.11 1.11 0 00-.37-.75 13 13 0 013.72.75c3 1.19 6.14 2.57 9.3 2a2.86 2.86 0 002-2c0-.8.2-1.59-.19-2.18a4 4 0 00-4.55-2.42c-.24-.06-.44-.67-.64-.67a29.79 29.79 0 01-7.43-.62c-.08 0-.08-.55-.15-.47-2.11-.48-4.08-1.09-6.26-.68-2 .6-3.36 2-5.33 2.58-2 .39-3.55-.81-5.48-1.15s-3.4 1-4.59 2.05c-.39.29-1.58.47-1.77-.1-.2-.79-1-1-1.59-1.2a5.09 5.09 0 00-4.06.31c-.48.09-1.07-.31-1.74-.15a4.69 4.69 0 00-1.33-2.71c-1.77-1-3.75-.59-5.52-.78-.41 0-.6.6-1.06 1.12a4.56 4.56 0 01-2.37 1.11c.28.16.06.16 0 0a7.85 7.85 0 01-5.07 1.55 31.67 31.67 0 01-4.58.18c-2.54-.79-5.49-.79-7.27 1.39M114 60.53c-1.38 0-3-.59-4 .4-.78.6 0 1.58.31 2.11a9.94 9.94 0 003.64.85 8.17 8.17 0 009.3 3.17c1.19-.39 1.77-2.37 3.34-2.54 3-.24 5.74.55 8.7 1 3 .59 6.13.78 8.68-.91 1.4-.66 2.58.72 4 1.11.4.21 0 1 .77 1 1.8.22 3.38 0 5.16.42 1.59.19 2.77.58 4.34.19a6.81 6.81 0 002.2-1.38c.38-.19 1.16.2 1.56 0a1.87 1.87 0 012.39.19c.19-.77.78-.38 1.37-.58v-.39c2.57.59 5.34-.19 7.9.59a6.68 6.68 0 004.35 0c1.18-.39 2.18-2 1.38-3-1.18-1.58-3.55-.78-5.34-1.38-1.38-.2-3 .39-4.26 0a25.44 25.44 0 00-3.26-1.38c-1.38-.59-2.38-2-3.56-2.37-1.77-.6-3.94-.78-5.37.87.23.12 0 .12 0 0a5 5 0 01-4.3.51 6.11 6.11 0 00-3.44-.53 1.37 1.37 0 00-1.3.14c-.59.2-1 1.18-1.78 1a2.14 2.14 0 00-2.17-.2c-.4.2-1 .59-.91.47-1.85.53-3.23 1.71-5 1.1-.2-.18-.2-.39-.37-.64s-.82.07-1-.34c-1-1.77-3.17-1.57-4.67-1.57-.08 0-.28.39 0 0-1.65.39-3 .78-4.23.19-1.38-.6-3-1.38-4.35-.78-.19 0-1.19.39-.59 1a2.75 2.75 0 01-2.22-.16c-1.54-.48-3.32-.89-4.71.11-1 .59-2.57.59-2.16 2-.19 0-.19-.19-.4-.19M183.11 74.17c-2-1.18-4.73-1.38-6.12.41-1.18 1.57-1.59 4.73.59 5.53a3.5 3.5 0 001.38.19c2.17.39 4.55.78 6.13-1.2 0-.18.2-.78-.2-1.17 1.78 0 3.56-.39 5.14.19 1.19.39 2 1.77 3.16 2 .78.2 1.18.77 2 .77a7.48 7.48 0 002.17 0 11.19 11.19 0 012.77-1.58 4.44 4.44 0 013.17 0c1.38.41 2.95 1 4.34 1.38a2.86 2.86 0 003-.78 2.81 2.81 0 011.36-.41 2.58 2.58 0 01.06-.72 9.64 9.64 0 001.91.32c.4.19.78.59 1.18.79 1 .39 2 0 3 .19a3.1 3.1 0 003.75-1c.59-.4 1.38-.6 2-1a2.48 2.48 0 012 .2 2.78 2.78 0 002.16 0c.39 0 .39-.78.81-.9 2-.29 3.93.31 5.71-.29 2-.6 3.55-3.55 2-4.94-1.58-1.58-4.15-1.17-6.33 0-.39.21-.59-.18-1-.15-.16 0-.16.54-.31.47-1.83.07-3.6.07-5.37 0a7 7 0 01-4.91 0 8.6 8.6 0 00-2.8-.09c-.19 0-.4-.41-.66-.39-2.1.39-3.88 2.55-6.05 1.57a6 6 0 01-2-1.39c-.19 0-.39.21-.51.1-1.66-1.27-3.83-.89-5.61-.49-.2 0-.79.78-1.19 1a15.79 15.79 0 01-9.09-1.15 2.84 2.84 0 00-2 .31 8.13 8.13 0 01-2.56.07c-1.19.2-1.78 1.19-3 1.59M235.09 88.41c-2-.21-4-1.39-5.53-.39-1.38 1 0 2.75 1.18 3.74a26.12 26.12 0 003.36 1.59 13.25 13.25 0 005.54 0c.78-.19 1.78-.6 1.78-1.78h1.18c1.77 0 3.55-.59 5.32 0a3.64 3.64 0 011.22.17c1 .8 2.14 1.8 2.94 1 1.77-1.18 1-3.17.59-4.94-.19-1-1.78-.79-2.77-.79-.19 0-.59-.38-.75-.32a4.86 4.86 0 01-4.19.53c-2.57-.78-5.53-1.77-7.89.18-.2.21-.79 0-1.18 0M229.44 97.42c.33.3-.08-.32 0 0-.08-.32-.08.07 0 0-2.46.07-5 .46-7.19-.14a4.88 4.88 0 00-3.36-.39c-.4 0-.79.21-1.38.21 0 .18 0 .57.08.44-.48.13-.48-.05-.31.31-1.55-.36-2.73.42-3.72-.18-1.19-.59-2.56-1.58-3.75-1-.19 0-.59.57-.75.82a4.75 4.75 0 01-3.2 0c-2.18-.58-4.35.2-6.32 1.18a2.79 2.79 0 01-2.18.2c-.79-.39-1.38-1-2.05-1.38-1.7-.39-3.29.39-5.07.92-1.18.26-2.56.26-3.16-.92a.79.79 0 01.32-.51c-2.5-.07-6.84-.67-7.24 2.69 0 .79 1 1.56 1.21 1.88a29.61 29.61 0 0010.9 2.56c-.26-.31-.06.09 0 0a3.91 3.91 0 002.22-1 5.49 5.49 0 012.26-.13 11.86 11.86 0 007.71 2c.79-2 3-1 4.57-1.47a1 1 0 01.31.95 1.72 1.72 0 011.58.16 17.8 17.8 0 004.39-.23c0-.2-.19-.4-.13-.55.54.15 1.13-.45 1.74 0v-.65a8.07 8.07 0 014.61.34 6.67 6.67 0 001.42 0c.49-.14 1.08-.73 1.42-.46s1 .12 1.42.48a4.81 4.81 0 003.77-.16c2-1.18 1-3.76 1-5.74 0-.18-.39.41-1.09-.25M179.16 110.93a8.8 8.8 0 00-3.95.8c-1.58.58-3.16.18-4.73 1.17-.79.58-2.18.19-3.36.19.39.59-.2 1.38 0 2a4.12 4.12 0 003 2.16 19.68 19.68 0 005.73-.18c.78 0 .78-1.2 1.37-1.79 1.19-1.18 2.58-.39 3.95-.58 2.18 3.35 6.33 1.77 9.49 2.37 1.19-1.38 3.17-2.37 3.17-4.55a7.19 7.19 0 01-1.54.07c-1.23-.87-2.21-1.86-3.6-1.26-2 .59-4.54 1.58-6.32.59-1 1-1.38-.59-2.57-.59M76.89 86.16l7.43-3.29 10.66 28-7.11 4.23-11-28.95M91.22 77.54l8 33 7.44-2.2-7.13-33.19-8.31 2.37M111.38 72.82l-1.18 35.93 6.72 2.16L119 73.47l-7.6-.65M118.5 112.72l2.37 5.53L140 93.54l-3.76-6.9-17.79 26.08M122.79 121.23l1 5.11 25.1-12.45-.18-7.92-26 15.26M124.23 129.3v5.52l25.1-6.71-.4-6.52-24.7 7.71" fill="none" stroke="#000" stroke-linecap="round" stroke-linejoin="round" stroke-width="1.49"/><path d="M275.37 157.15l.47.33.32-.33h-.79zM272.07 164.85a2.41 2.41 0 01-.54-1.59 6.24 6.24 0 00.1-.88.6.6 0 01-.08.08c.12-1.2.51-2.47.51-3.29-.63.64-.79.64-1.1 1.43l.31.15c-.95.65-.64 1.43-.63 2.06a1.21 1.21 0 00-.29 1.65 2.55 2.55 0 00-.14 1.55c-1.19.94.05 2.3.58 2.72A6.41 6.41 0 00270 171a3.64 3.64 0 00.81-.45c-.15 1-1.25 2.54-1.25 3.64 2.15-.84 2.12-2.86 2.05-4.61.8-1.38.39-3.36.46-4.73zm-.79 2.54a4.31 4.31 0 01-.13-2 1 1 0 00.3.21c.77.68-.17 1.16-.17 1.79z"/><path d="M270.34 171.34l-.32-.3-.47.32.79-.02zM260.11 156.58c0 1.1 1.1 2.69 1.26 3.64 0 .63.95 1.11.15 1.74h-.06a6 6 0 00.13-1.1c-.62.64-.78.64-1.1 1.43l.31.16c-.94.63-.63 1.41-.63 2.06-1.41 1.11.64 2.84.8 2.84.79.64-.15 1.11-.15 1.76-.16.94-1.27 2.52-1.26 3.63 2.21-.88 2.11-3 2-4.78.13.14.29.28.53.52 0-1.43-1.25-4.28 0-5.69-.09-1.94.91-5.09-1.98-6.21zM259.62 156.27l.47.31.31-.31h-.78zM254.58 170.44l-.32-.3-.48.3h.8zM241.57 165.66c-.16-1.91.8-5.06-2-6.19l.29-.29H239l.47.32a4.49 4.49 0 00.48 1.67 2.43 2.43 0 00-.78 1.12l.32.16c-1 .62-.64 1.41-.64 2.06-1.41 1.1.63 2.84.8 2.84.78.64-.16 1.11-.16 1.74-.15.94-1.26 2.52-1.25 3.65a3.29 3.29 0 002-3.33 1.83 1.83 0 00.4.38l-.31.15c.32.78.47.78 1.11 1.41.11-1.44-1.14-4.28.13-5.69zm-1.63.19c-.43-1.21.07-2.91.28-4.17a6.31 6.31 0 01.54 1.45c0 .62 1 1.09.16 1.72a3 3 0 00-.98 1zM234 173.36l-.32-.31-.47.31h.79zM235.73 166.87c-1.26-1.42 0-4.27 0-5.7-.62.64-.78.64-1.1 1.42l.32.15c-1 .65-.64 1.43-.63 2.08-1.42 1.11.63 2.85.79 2.85.79.63-.15 1.11-.15 1.74-.16 1-1.27 2.53-1.26 3.64 2.83-1.12 1.87-4.27 2.03-6.18zM249.08 155.47l.48.32.31-.3-.79-.02zM245.78 163.17c-1.27-1.41 0-4.26 0-5.69-.64.63-.78.63-1.11 1.42l.32.16c-.94.64-.63 1.41-.63 2.07a1.42 1.42 0 00-.37.42.91.91 0 000-.17c-1.26-1.43 0-4.27 0-5.7-.63.64-.78.64-1.1 1.43l.31.15c-.94.64-.63 1.43-.63 2.06-1.41 1.1.64 2.86.8 2.85.79.62-.16 1.12-.15 1.73-.17.95-1.26 2.54-1.26 3.65 2.28-.89 2.12-3.11 2-4.93a3.2 3.2 0 001.15 1.35c.8.63-.15 1.11-.15 1.74-.16.95-1.25 2.54-1.25 3.64 2.87-1.12 1.91-4.27 2.07-6.18zM244.04 169.66l-.31-.31-.47.31h.78zM228.8 156.73l.47.33.31-.33h-.78zM223.76 170.92l-.32-.31-.47.33.79-.02zM212.19 174.39l-.31-.3-.47.32.78-.02zM208.45 169.18c0-1.43-1.26-4.27 0-5.71-.15-1.89.81-5.05-2-6.16 0 1.11 1.1 2.69 1.26 3.64 0 .61 1 1.11.15 1.74-.15 0-2.21 1.74-.79 2.84 0 .64-.32 1.42.63 2.07l-.32.15c.28.78.43.78 1.07 1.43zM205.94 157l.47.31.31-.31h-.78zM202.63 164.69c-1.26-1.42 0-4.27 0-5.7-.64.64-.79.64-1.11 1.43l.31.16c-.94.63-.63 1.41-.63 2.06-1.41 1.11.64 2.85.81 2.85.78.63-.16 1.11-.16 1.74-.16 1-1.26 2.52-1.26 3.62l-.47.33h.79l-.3-.31c2.82-1.13 1.87-4.27 2.02-6.18zM196.48 166.64a1.07 1.07 0 00.19.18 1.11 1.11 0 00-.19-.18zM195.06 161.28l.47.3.32-.3h-.79z"/><path d="M195.55 161.58a3.31 3.31 0 00.18.93h-.66l.47.3.22-.22c0 .14.1.27.16.41a3.17 3.17 0 00-.37-.17c0 .78 1.06 2.78 1.44 4.14a.44.44 0 01-.28-.14c.62.81-1.26 1.7-.84 2.61a1.19 1.19 0 00.31 1.61c0 .64-.32 1.43.62 2.06l-.31.15c.32.8.47.8 1.11 1.43a8 8 0 00-.21-1.43 2.13 2.13 0 01.22.21c0-.81-.39-2.08-.5-3.29a2.21 2.21 0 01.5-1.17 9.6 9.6 0 010-1.2 1.48 1.48 0 000-.21v-1.31c.07-1.81.11-3.85-2.06-4.71zM190.03 175.45l-.31-.31-.48.31h.79zM191.77 169c-1.27-1.43 0-4.28 0-5.71-.63.65-.79.65-1.1 1.43l.31.15c-1 .66-.63 1.43-.63 2.07-1.42 1.11.63 2.84.8 2.84.78.63-.16 1.13-.16 1.74-.15.95-1.25 2.54-1.25 3.64 2.83-1.16 1.87-4.29 2.03-6.16zM185.25 157.06l.47.32.32-.32h-.79zM180.21 171.25l-.31-.31-.47.31h.78zM174.35 161.99l.47.31.31-.31h-.78zM169.32 176.18l-.32-.3-.48.3h.8zM166.13 157.31l.47.3.31-.3h-.78zM168.65 163.8c-.16-1.9.8-5-2.05-6.17 0 1.11 1.09 2.7 1.25 3.65 0 .63.94 1.12.15 1.74-.16 0-.31-.14-.47-.31 1.26 1-1.74 2.05-.32 3.17 0 .63-.32 1.42.62 2.06l-.31.15c.32.79.47.79 1.11 1.42 0-1.44-1.25-4.3.02-5.71zM158.45 165.23l.47.3.32-.3h-.79zM155.36 165.38a4.79 4.79 0 00-.91 1c0-1.42-.38-2.8-2.06-3.46 0 1.11 1.1 2.69 1.26 3.65 0 .34.29.64.41 1a1.36 1.36 0 00-.14.65.68.68 0 01-.12.12c-.15 0-2.21 1.74-.79 2.85 0 .62-.32 1.41.63 2l-.32.17a2.73 2.73 0 00.93 1.25 7.81 7.81 0 00-.9 2.61c2.84-1.13 1.88-4.26 2-6.17 0 0 0-.07-.07-.1h.43l-.32-.31-.21.14c-.89-1.46.19-4.05.18-5.4zm-.78 1.58l-.13.1a.76.76 0 000-.15zm0 6.65a3.62 3.62 0 01-.23.71 18.13 18.13 0 01-.48-3.87c.45.61 1.11 1.2.39 1.73.16-.15.32-.31.47-.31.8.63-.14 1.13-.14 1.74zM153.64 177.56l-.31-.31-.47.33.78-.02zM149.54 158.35c0 1.1 1.1 2.69 1.25 3.64 0 .61 1 1.11.16 1.74-.16 0-2.21 1.74-.79 2.85 0 .63-.32 1.41.63 2.06l-.32.15c.32.78.47.78 1.11 1.44 0-1.44-1.25-4.3 0-5.72-.16-1.89.8-5.04-2.04-6.16zM149.05 158.04l.47.31.31-.31h-.78zM145.75 165.74c-1.26-1.41 0-4.27 0-5.7-.63.64-.78.64-1.1 1.43l.31.15a1.45 1.45 0 00-.66 1.52 3.45 3.45 0 00-.91-.52 5.79 5.79 0 00.66 2.09 7.28 7.28 0 01.59 1.54 1 1 0 00.14.47l-.12.11.13-.11c.23.42.58.8 0 1.27-.16 0-2.17 1.7-.82 2.81a3.15 3.15 0 00-.25 1.09l.21-.1a1.32 1.32 0 00.67 1.1l-.31.16c.31.79.47.79 1.09 1.43 0-.83-.39-2.12-.5-3.35 1.37-1.4.74-3.81.87-5.39z"/><path d="M144.02 172.23l-.32-.32-.48.32h.8zM140 157c0 1.11 1.1 2.7 1.26 3.65 0 .61.94 1.09.16 1.73-.17 0-2.22 1.72-.8 2.83 0 .65-.32 1.43.63 2.07l-.31.16c.31.79.47.79 1.1 1.42 0-1.43-1.25-4.28 0-5.69-.2-1.91.75-5.06-2.04-6.17zM139.47 156.68l.47.32.32-.32h-.79zM134.43 170.85l-.31-.3-.47.3h.78zM135.52 157.31l.47.3.32-.3h-.79zM130.49 171.5l-.31-.31-.48.31h.79zM132.22 165c-1.26-1.43 0-4.28 0-5.71-.64.65-.79.65-1.11 1.43l.31.15c-.94.65-.62 1.43-.62 2.06-1.42 1.11.63 2.85.8 2.85.78.63-.17 1.13-.16 1.74-.16.95-1.26 2.54-1.26 3.64 2.82-1.07 1.89-4.24 2.04-6.16zM151.9 162.62l.47.33.32-.33h-.79zM146.87 176.81l-.32-.32-.47.32h.79zM148.6 170.32c-1.26-1.41 0-4.26 0-5.69-.64.63-.79.63-1.11 1.43l.31.16c-.94.63-.63 1.41-.63 2-1.41 1.13.64 2.86.8 2.86.79.63-.16 1.11-.15 1.74-.17.94-1.26 2.52-1.26 3.63 2.85-1.07 1.89-4.22 2.04-6.13zM142.88 162.31l.47.31.32-.31h-.79z"/><path d="M139.58 170c-1.27-1.43 0-4.28 0-5.71-.64.65-.79.65-1.11 1.43l.32.15c-1 .65-.63 1.43-.63 2.07a1.25 1.25 0 00-.27.31c-.29-1.48-.79-3.39.18-4.47-.16-1.9.8-5-2-6.17 0 1.11 1.1 2.7 1.26 3.65 0 .63.94 1.12.15 1.74a3 3 0 00-1.24 1.65v-.29c-1.26-1.41 0-4.26 0-5.69-.64.64-.79.64-1.11 1.43l.31.16c-.94.62-.62 1.41-.62 2.05-1.43 1.11.63 2.85.79 2.85.79.63-.16 1.11-.16 1.76-.15.93-1.25 2.52-1.25 3.63 2.49-1 2.07-3.53 2-5.42a1.17 1.17 0 00.45.73c0 .63-.32 1.42.63 2.06l-.31.15a2.37 2.37 0 00.77 1.11 3 3 0 001.24 1.62c.78.63-.17 1.11-.16 1.74-.15 1-1.25 2.53-1.25 3.64 2.81-1.12 1.85-4.27 2.01-6.18zM137.85 176.5l-.32-.32-.47.32h.79zM161.27 157.13a8.73 8.73 0 001 2.78 2.41 2.41 0 00-.53.86l.32.15c-.95.65-.64 1.43-.63 2.06-.65.51-.37 1 0 1.51a1.2 1.2 0 00.49.88c0 .2 0 .43-.05.65a.68.68 0 01-.12.12l.12-.11a1.46 1.46 0 00.34 1.09.91.91 0 00-.14.45 24.63 24.63 0 01-1 2.61c.08-1.75.11-3.77-2-4.63 0 1.13 1.09 2.72 1.26 3.65 0 .64.94 1.11.15 1.74-.16 0-2.21 1.74-.8 2.85 0 .64-.31 1.43.63 2l-.31.16c.32.8.47.8 1.1 1.43 0-1.43-1.24-4.27 0-5.69a1.62 1.62 0 010-.22h.11l-.12-.12v-.27a3.09 3.09 0 001.84-2.61l.5.48c0-.76-.35-1.92-.49-3a8.83 8.83 0 010-.9l-.05-.09a2.47 2.47 0 01.55-1.65c-.29-1.93.67-5.08-2.17-6.18zm1.39 5.36a1.27 1.27 0 00-.39.29 15.16 15.16 0 01.28-1.79c.17.52.8.95.11 1.5zM160.78 156.79l.47.32.31-.32h-.78zM157.48 164.48c-1.26-1.42 0-4.26 0-5.69-.63.65-.78.65-1.09 1.43l.3.16c-.94.64-.63 1.43-.63 2.06-1.41 1.1.64 2.84.81 2.84.78.63-.16 1.11-.16 1.74-.16.94-1.26 2.53-1.26 3.64 2.83-1.12 1.87-4.25 2.03-6.18zM169.75 162.85l.47.3.32-.3h-.79zM166.46 170.55c-1.27-1.43 0-4.27 0-5.7-.64.64-.79.64-1.11 1.42l.32.15c-1 .63-.63 1.43-.63 2.06-1.42 1.11.63 2.84.79 2.84.79.66-.16 1.11-.16 1.77-.15.93-1.25 2.52-1.25 3.64 2.84-1.12 1.88-4.3 2.04-6.18zM164.71 177.02l-.31-.29-.47.31.78-.02zM179.66 162.74c-.16-1.91.8-5.06-2-6.18 0 1.1 1.1 2.69 1.26 3.64 0 .61.95 1.09.16 1.72-.16 0-2.22 1.74-.8 2.84 0 .66-.32 1.44.63 2.07l-.31.17c.31.78.47.78 1.1 1.41-.06-1.41-1.31-4.25-.04-5.67zM177.13 156.25l.47.33.32-.33h-.79z"/><path d="M173.83 164c-1.27-1.41 0-4.27 0-5.69-.63.64-.79.64-1.11 1.42l.31.15c-.94.64-.62 1.43-.62 2.06-1.42 1.12 1.59 2.21.32 3.17.17-.17.31-.3.48-.3.78.61-.16 1.1-.16 1.73a9.44 9.44 0 01-.77 1.94c.05-1.87.41-4.31-2-5.28a3.7 3.7 0 00.33 1.32 2.26 2.26 0 00-.61.95l.3.17c-.94.63-.63 1.41-.63 2.06-1.41 1.11 1.6 2.22.33 3.15a.91.91 0 01.41-.28 1.13 1.13 0 00.34.69c-.11.33-.43.65-.43 1-.16 1-1.26 2.54-1.26 3.65a3.07 3.07 0 002-2.82 1.86 1.86 0 00.43.4l-.31.15c.31.79.47.79 1.1 1.43 0-1.11-.74-3.08-.48-4.58h.31l-.25-.25v-.1c2.74-1.14 1.81-4.29 1.97-6.14zm-3 5.36c-.59-1.11-.19-2.76.07-4.09a7.83 7.83 0 01.6 1.58c0 .63.93 1.11.16 1.73a2.85 2.85 0 00-.85.73zM181.4 162.85c0-1.35.54-2.86.54-3.79-.64.64-.79.64-1.11 1.41l.31.18c-.94.63-.62 1.41-.62 2-1.42 1.13.63 2.86.8 2.86.78.62-.17 1.11-.16 1.74-.16 1-1.26 2.53-1.26 3.65 2.85-1.1 1.89-4.26 2-6.16a2.71 2.71 0 01-.55-1.89l.44.3.32-.32z"/><path d="M181.86 163.17c0 1.11 1.1 2.69 1.26 3.64 0 .63.94 1.11.15 1.74-.15 0-2.21 1.74-.79 2.84 0 .64-.32 1.42.63 2.07l-.32.15c.32.78.47.78 1.11 1.43 0-1.43-1.25-4.27 0-5.7-.16-1.9.79-5.05-2.04-6.17zM178.06 170.57c-1.26-1.43 0-4.27 0-5.7-.64.64-.79.64-1.11 1.41l.31.18a1.57 1.57 0 00-.35.32c.06-1.72 0-3.65-2.06-4.47 0 1.12 1.1 2.71 1.26 3.64 0 .64.95 1.11.15 1.75-.15 0-2.21 1.73-.79 2.84 0 .65-.32 1.43.63 2.06l-.32.16c.33.79.47.79 1.11 1.43 0-1.11-.73-3.07-.48-4.55.38.72 1.4 1.41.57 2 .16-.17.31-.31.48-.31.78.62-.17 1.11-.16 1.74-.16.94-1.26 2.52-1.26 3.65 2.83-1.11 1.87-4.27 2.02-6.15zM176.33 177.04l-.32-.29-.47.3.79-.01zM191.91 156.27l.47.31.31-.31h-.78zM192.39 156.58c0 1.1 1.1 2.69 1.25 3.64 0 .63 1 1.11.16 1.74-.16 0-2.21 1.73-.79 2.84 0 .65-.32 1.44.62 2.07l-.31.16c.32.79.47.79 1.11 1.42 0-1.43-1.25-4.28 0-5.69-.15-1.91.81-5.06-2.04-6.18zM186.86 170.44l-.31-.3-.47.3h.78z"/><path d="M188.6 164c-1.26-1.41 0-4.27 0-5.71a4 4 0 00-1 1.15 2.92 2.92 0 00-1.88-2c0 1.11 1.1 2.68 1.26 3.64a1 1 0 00.16.49v.39a1.21 1.21 0 00-.42.62l-.09-.08a.34.34 0 01.09.08 1.28 1.28 0 00.07.92c-.42.68-1.42 1.41-.48 2.15 0 .65-.32 1.43.63 2.06l-.31.17a2.64 2.64 0 00.36.67 4.57 4.57 0 00-.47 1.65c2.88-1.2 1.92-4.33 2.08-6.2zm-.8-4.12l-.07.06v-.1zm0 6.64a4.82 4.82 0 01-.32.95 6.56 6.56 0 01-.11-3.16 1.94 1.94 0 00.58.49c.8.58-.14 1.07-.14 1.69zM204.4 157c0 1.1 1.1 2.69 1.26 3.64 0 .63.94 1.11.15 1.74-.16 0-2.22 1.73-.79 2.84 0 .64-.32 1.41.62 2.07l-.31.15c.32.78.47.78 1.11 1.43 0-1.43-1.25-4.28 0-5.71-.15-1.9.81-5.05-2.04-6.16zM203.92 156.68l.48.31.31-.31h-.79zM198.88 170.85l-.31-.3-.47.3h.78zM200.62 164.36c-1.27-1.41 0-4.26 0-5.69-.63.64-.78.64-1.1 1.41l.32.18c-.95.62-.64 1.41-.63 2.05-1.42 1.11.63 2.85.79 2.85.79.63-.16 1.11-.16 1.74-.15.95-1.25 2.54-1.25 3.65 2.83-1.13 1.88-4.28 2.03-6.19zM210.18 168.19c-1.27-1.43 0-4.27 0-5.7-.63.64-.79.64-1.1 1.43l.31.15c-1 .65-.63 1.44-.62 2.06-1.42 1.11.62 2.85.79 2.85.79.63-.16 1.11-.16 1.73-.15 1-1.25 2.54-1.25 3.65 2.85-1.13 1.85-4.27 2.03-6.17zM208.44 174.66l-.31-.3-.47.3h.78zM220.28 156.13l.47.31.31-.31h-.78zM220.76 156.44c0 1.1 1.1 2.69 1.25 3.62 0 .66.95 1.13.15 1.77-.16 0-2.21 1.73-.79 2.84 0 .64-.32 1.43.63 2.06l-.32.15c.32.81.47.81 1.11 1.43 0-1.43-1.25-4.27 0-5.69-.15-1.9.81-5.06-2.03-6.18zM217 163.83c-1.26-1.41 0-4.27 0-5.7-.62.64-.78.64-1.09 1.43l.31.15c-.95.65-.64 1.44-.63 2.06-1.33 1.06 1.22 2.08.52 3a.44.44 0 01.27-.14c.79.63-.15 1.11-.15 1.73a10.16 10.16 0 01-.77 2c.06-1.76.36-4-1.62-5.09a5.84 5.84 0 00.13-1l-.5.49h-.52l.32.21a2.35 2.35 0 00-.41.73l.31.15c-1 .64-.62 1.43-.62 2.06-1.42 1.12.63 2.87.79 2.87.79.61-.16 1.1-.16 1.71-.15.95-1.25 2.54-1.25 3.65a3.12 3.12 0 002-2.9.2.2 0 00.06.07c0 .63-.32 1.42.63 2l-.32.18c.32.77.47.77 1.1 1.41 0-1.12-.74-3.1-.47-4.59h.31l-.25-.24v-.1c2.76-1.16 1.83-4.25 2.01-6.14zm-3 5.39a11.26 11.26 0 010-1.3c-.82-.92-.58-2.44-.31-3.79a20.7 20.7 0 011 2.53c0 .63.95 1.12.16 1.74a2.9 2.9 0 00-.92.82z"/><path d="M216.06 164.76a1.62 1.62 0 00-.2.18 1.2 1.2 0 00.2-.18zM225 163.05a1.22 1.22 0 000 .26 2.56 2.56 0 010-.27l.31-.31H225c0-1.39.53-3 .53-4-.63.64-.78.64-1.1 1.43l.31.16c-.95.64-.63 1.43-.63 2-1.42 1.11.64 2.85.8 2.85.79.63-.16 1.11-.16 1.73-.16 1-1.26 2.54-1.26 3.65 2.67-1.05 2-3.9 2-5.83a9.22 9.22 0 01.75 1.9c0 .63 1 1.12.16 1.74-.16 0-2.22 1.74-.79 2.86 0 .63-.32 1.41.62 2l-.31.18c.32.77.47.77 1.11 1.41 0-1.43-1.25-4.28 0-5.7-.15-1.8.81-4.95-2.03-6.06zM218.22 173.56l-.31-.31-.48.31h.79zM220 167.07a2.39 2.39 0 01-.21-.34 33 33 0 00-.06-3.68 9.22 9.22 0 00.25-1.65c-.27.27-.45.42-.59.57a3 3 0 00-1.63-1.42l.3-.31h-.79l.47.32a9.28 9.28 0 001 2.85c-.37.54-.18 1.13-.18 1.64-.8.62-.49 1.43-.05 2-.43.55-.89 1.12-.16 1.7 0 .6-.25 1.32.47 1.93l-.12.28a6.19 6.19 0 00-.74 2.24 3 3 0 001.48-1.14l.34.32a5 5 0 00-.09-.8c.56-1.37.16-3.22.31-4.51zm-.55-1.84a.46.46 0 010 .26.602.602 0 01-.05-.26zm-.14 2.59h.06c.64.53.13 1-.08 1.43a5.08 5.08 0 01-.03-1.43zM235.04 156.13l.48.31.32-.29-.8-.02zM235.54 156.45c0 1.12 1.1 2.71 1.26 3.64 0 .64.94 1.13.15 1.75-.16 0-2.21 1.73-.8 2.86 0 .62-.31 1.41.63 2l-.31.17c.32.79.47.79 1.1 1.41 0-1.43-1.24-4.27 0-5.69-.16-1.85.8-5.01-2.03-6.14zM230 170.34l-.31-.32-.47.32h.78zM231.75 163.85a2 2 0 01-.44-.89c0-.73.06-1.61 0-2.47a16.45 16.45 0 00.37-2.34c-.31.31-.51.48-.66.65a2.92 2.92 0 00-1.78-1.74c0 1 .82 2.27 1.15 3.23a2.89 2.89 0 00-.11 1.5 1.14 1.14 0 00-.42 1.37c-.47.6-.84 1.45 0 2.1 0 .65-.32 1.43.63 2.06l-.31.18c.07.15.12.27.18.37a5.88 5.88 0 00-.69 2.15 3 3 0 001.51-1.2s.06.05.09.09a1.64 1.64 0 000-.22c.83-1.44.36-3.47.48-4.84zm-.81 2.52a.53.53 0 010 .12 7 7 0 01-.11-2.07 1 1 0 00.3.21c.75.63-.19 1.11-.19 1.74zM247 160.54c0 1.12 1.1 2.71 1.26 3.64 0 .64.94 1.13.15 1.75-.16 0-2.21 1.73-.8 2.86 0 .63-.31 1.41.63 2l-.32.17c.33.78.48.78 1.11 1.42 0-1.43-1.24-4.29 0-5.7-.15-1.87.81-5.03-2.03-6.14zM246.51 160.22l.48.31.31-.31h-.79zM255.84 156.45c0 1.13 1.09 2.72 1.25 3.65 0 .64.94 1.12.16 1.74a3 3 0 00-1.24 1.62c-.68-1.51.3-3.92.3-5.2-.63.65-.79.65-1.1 1.44l.3.15c-.94.64-.63 1.43-.63 2.05-1.41 1.13.64 2.87.81 2.87.78.61-.16 1.1-.16 1.72-.16.95-1.26 2.54-1.26 3.65 2.57-1 2-3.7 2-5.61a1.15 1.15 0 00.14.17c0 .63-.32 1.42.63 2.05l-.31.17c.31.78.47.78 1.1 1.41 0-1.43-1.25-4.27 0-5.69-.11-1.9.85-5.06-1.99-6.19zM255.35 156.15l.48.3.31-.28-.79-.02zM252.06 163.85a2.57 2.57 0 01-.55-1.73.83.83 0 01.09-.16v-1.1a24 24 0 00.44-2.7l-.44.43a3.11 3.11 0 00-2-2.8c0 1.11 1.1 2.7 1.26 3.63a1.05 1.05 0 00.18.53 1.32 1.32 0 00-.42 1l-.07-.07.07.07c0 .31.05.61.05.89a1.21 1.21 0 00-.45.7c-.37.49-.65 1 0 1.51 0 .63-.32 1.42.63 2l-.31.18a2.24 2.24 0 00.54.87 9.66 9.66 0 00-1 2.92c2.78-1.11 1.82-4.26 1.98-6.17zm-.71 2.18a14.57 14.57 0 01-.26-1.63 1.2 1.2 0 00.32.23c.64.52.16.93-.06 1.37zM250.31 170.34l-.31-.31-.47.31h.78zM263.38 161.28l.47.31.32-.31h-.79zM263.87 161.59c0 1.1 1.1 2.68 1.26 3.64 0 .63.95 1.11.16 1.74-.16 0-2.22 1.73-.8 2.84 0 .63-.31 1.41.63 2.06l-.31.16c.32.78.47.78 1.1 1.43 0-1.43-1.24-4.28 0-5.71-.16-1.89.8-5.04-2.04-6.16zM259.86 173.02l-.32-.31-.48.31h.8zM272.2 155.93c0 1.11 1.1 2.69 1.25 3.65 0 .63.95 1.11.16 1.73-.16 0-2.21 1.74-.8 2.85 0 .64-.31 1.43.63 2.06l-.31.17c.32.79.47.79 1.1 1.41 0-1.43-1.25-4.27 0-5.68-.15-1.93.77-5.12-2.03-6.19zM271.7 155.61l.48.3.31-.3h-.79zM269.05 162.35c-1.27-1.42 0-4.26 0-5.69-.64.63-.79.63-1.11 1.41l.32.18c-.95.62-.63 1.41-.63 2-1.42 1.12.63 2.86.79 2.86.8.62-.16 1.11-.16 1.74-.15.94-1.25 2.52-1.25 3.63 2.84-1.07 1.88-4.22 2.04-6.13zM267.3 168.82l-.31-.3-.47.3h.78zM277.93 161.35c0-1.55-.22-3.14-2.07-3.87a5.52 5.52 0 00.64 2h-.73l.48.32.27-.28c.07.17.14.33.22.49-.15-.08-.31-.16-.48-.23a9.74 9.74 0 001.06 3c-.15 0-2.2 1.74-.79 2.85 0 .3-.07.64 0 1a1.12 1.12 0 00.4 1.31v.06c0 .64-.31 1.41.63 2l-.31.17c.31.78.47.78 1.1 1.41a17.23 17.23 0 00-.38-2.37 7.62 7.62 0 00-.15-1.11 2.91 2.91 0 01.54-2.2c-.19-1.22.23-3.13-.43-4.55zm-.29 3.84a1 1 0 00-.29.21 3 3 0 01.33-1.38c.23.38.49.74-.04 1.17zM269.9 174.57l-.31-.32-.47.34.78-.02zM286.48 155.63l.47.32.32-.32h-.79zM287 156c0 1.11 1.1 2.67 1.26 3.63 0 .62.94 1.1.16 1.73-.17 0-2.22 1.74-.8 2.85 0 .64-.32 1.43.63 2.06l-.31.15c.31.8.47.8 1.09 1.43 0-1.43-1.24-4.27 0-5.69-.18-1.96.78-5.1-2.03-6.16zM283.18 163.33c-1.27-1.44 0-4.27 0-5.7-.64.63-.79.63-1.11 1.41l.31.18c-.94.63-.62 1.41-.62 2a1.08 1.08 0 00-.33.39c0-1.64-.11-3.38-2.07-4.15 0 1.1 1.1 2.7 1.26 3.65 0 .62.94 1.1.15 1.73-.15 0-2.21 1.74-.79 2.86 0 .61-.32 1.4.63 2l-.32.16a2.74 2.74 0 00.91 1.24 1.82 1.82 0 000 .32c2.8-1.04 1.8-4.21 1.98-6.09zm-.8 2.53c-.12.72-.79 1.82-1.1 2.8-.23-1.53-1-3.77.09-5v-1a3.19 3.19 0 001.17 1.39c.78.69-.17 1.18-.16 1.81zM281.44 169.81l-.31-.31-.47.31h.78zM238.59 173.03l-.31-.3-.48.3h.79zM242.25 167.85l-.32-.3-.47.3h.79zM284.35 172.18l-.31-.32-.48.32h.79zM286.09 165.69c-1.27-1.41 0-4.26 0-5.69-.63.63-.78.63-1.1 1.42l.32.16c-1 .64-.64 1.42-.63 2.07-1.42 1.11.63 2.83.79 2.83.79.64-.15 1.12-.15 1.73-.16.95-1.26 2.54-1.26 3.65 2.83-1.13 1.87-4.28 2.03-6.17z"/><path d="M278.85 157.19l.47.31.31-.31h-.78zM277.53 183.68l.25.38.07-.07-.32-.31z"/><path d="M276.91 183.53h-.16v1.1h.17a2.47 2.47 0 001.17-.12l-.3-.45-.56.57c-.48-.32-.17-.8-.32-1.1zM278.25 184.46h-.17l.08.12zM278.32 184.31l-.07.15c.18-.08.24-.14.07-.15zM273.26 184.62c.31-.18.47.14.63.32l-.32.16h1.89c1.26 0 .47-.79.63-1.42-.62.47-1.57.47-1.73 1.26-.17-.32-.64-.5-.47-.95-.75.59-1.35-.06-1.94.76.56.25 1.3.72 1.31-.13z"/><path d="M271.83 184.92c0-.07.08-.11.12-.17a1.34 1.34 0 00-.43-.13zM257 186.46c.95-.48 1.9-1.42 2.84-.79a10.73 10.73 0 001.57-1.09c-1.24 0-3.45 1.37-4.62 1.68zM256.19 186.3a1.1 1.1 0 00.58 0l-.26-.27zM261.57 184.56c0-.08-.06-.06-.17 0zM254.44 186.3v-.63a7.32 7.32 0 01-2.52-1.11l-.32.47c-.15 0-.3-.33-.47-.16 0 .16 0 .62-.31.78a5 5 0 01-1.26.72l.14.07c1.42-.79 2.69-1.57 4.74-.14zM249.39 186.28a2.6 2.6 0 01-.45.28 6.36 6.36 0 00.62-.19zM231.66 193l.31-.3c-.13.08-.26.13-.4.2l.09.12zM231.57 192.93l-.38-.53c-2.7.63-5.54-.19-6.66 1.4 2.24-.15 4.89.26 7.04-.87zM236.52 201.9a.61.61 0 00-.2.19 2.19 2.19 0 00.63 0c-.13-.16-.25-.27-.43-.19zM235.58 201.58l-.48.46c-.31 0-.31-.46-.3-.78l-.32.32c-.16-.47-.63-1.41-1.41-1.13-1.27 1.43.93.5 1.41 1.91.31.33 1.42.63 1.42-.3a.83.83 0 01.31.63 1.19 1.19 0 01.11-.6 2.71 2.71 0 01-.9-.21zM237.33 202.69c-.47.45-.13.31 0 0z"/><path d="M240.15 202.06c-.15 0-.3-.16-.3-.46-1.1-.34-1.89.29-2.9.46a1.36 1.36 0 00.36.32.26.26 0 010 .31.84.84 0 01.62.32v-.95h1.42v.32zM225.45 204.08c1.91-.15 5.06.8 6.17-2-1.1 0-2.69 1.11-3.63 1.27-.63 0-1.11.93-1.74.15a.83.83 0 01.31-.48c-.95 1.28-2-1.74-3.16-.33-.64 0-1.42-.32-2.06.64l-.16-.31a2.4 2.4 0 00-1.08.74c-2.34.26-4.59-.16-5.56 1.22 2.23-.15 4.88.25 7-.88l-.16-.22c1.43-.34 3.09-.67 4.07.2zM231.94 201.56l-.32.46.32.33v-.79zM245.34 215.5c-1.1 1.43-2.53.95-3.79.3.31.33.95.65.95 1.13-2.69 2-5.53-2.86-7.75-.34-1.58.63-4.27.93-5.69-.8l.31-.33c-.46-1.74-2.36-.16-2.53-.33-2.84.95-3.48.63-6 2.35a9.84 9.84 0 003.64-1.24c1.89.17 4-2.21 4.59 1 2.21 1.91 5.22 0 7.12-.61 2.36 2.06 5.2 1.13 7.9.66.32-1.57 3.16-.48 2.38-2.36-.47-.22-.81.26-1.13.57zM263.98 224.42h.01-.01zM240.7 238.99h.01-.01zM243.24 238.37c-.64.63-1 0-1.59.62-.28-.08-.17.22-.21.44a.58.58 0 01.21-.12c1.11.48 1.42-.94 1.59-.94zM241.44 239.43a.27.27 0 00-.1.18.27.27 0 00.1-.18zM241.34 240.09a1.92 1.92 0 010-.48.44.44 0 01-.32 0 .9.9 0 01-.32-.65c-3 .95-2.82-3.48-6-3.17-1.91 0-4.75 1.25-6.18.59 1.58 2.54 3.17-.76 5.06.52 2.88-2.03 5.06 4.28 7.76 3.19zM261.08 240.06c.48-.31 1.43-.31 1.27-1.09h-2.25a3.3 3.3 0 01.51.48.93.93 0 01-.69.22 1 1 0 01.06.39z"/><path d="M259.92 239.67c-.08-.19-.24-.13-.42-.07a1.23 1.23 0 00.42.07zM259.51 239h.59a.49.49 0 00-.59 0zM268.51 188.05h-.16v1.13h.17a2.61 2.61 0 001.17-.12l-.3-.46-.56.57c-.48-.32-.16-.79-.32-1.12z"/><path d="M269.85 189l-.17.06.08.12zM269.13 188.23l.25.37.07-.07-.32-.3zM269.93 188.85l-.08.15c.15-.08.25-.15.08-.15zM263.44 189.47c0-.07.08-.11.12-.17a1.17 1.17 0 00-.43-.14zM248.11 190.55l-.32.3a1.1 1.1 0 00.58 0zM251.42 190.23a11 11 0 001.55-1.09c-1.25 0-3.45 1.36-4.6 1.67l.21.21c.95-.47 1.9-1.43 2.84-.79zM253.17 189.12c0-.09-.08-.07-.2 0h.2zM241 190.83a3.62 3.62 0 01-.41.27l.58-.19z"/><path d="M246 190.85v-.63a7.65 7.65 0 01-2.51-1.1l-.31.45c-.17 0-.33-.31-.48-.15 0 .15 0 .63-.32.79a4.82 4.82 0 01-1.25.7l.14.07c1.46-.77 2.73-1.56 4.73-.13zM229.6 192.21c3.17-2.08 8.06.56 11-1.11a11.69 11.69 0 01-3.86.2c-2.68-1.59-6 .45-9.17.61.43.46 1.43.15 2.03.3zM223.26 197.58l.3-.31c-.12.08-.26.14-.39.21l.09.11zM223.17 197.48l-.38-.51c-2.7.61-5.54-.2-6.66 1.37 2.24-.12 4.87.27 7.04-.86zM228.56 206.62c-.13-.14-.26-.25-.43-.17a.43.43 0 00-.21.21 2.69 2.69 0 00.64-.04z"/><path d="M213.7 208c1.37-.1 3.39.35 4.84-.45a4 4 0 003.48-.75 16.67 16.67 0 014.26.23 1.22 1.22 0 00.75.16l.36.1a3.9 3.9 0 001.3.19 4.43 4.43 0 00.65-.09 1.1 1.1 0 01.18.14v-.19a5.13 5.13 0 001.42-.67v.23l.78-.31c-.1 0-.19-.11-.25-.27a5.71 5.71 0 012.83-1.29h.06l-.24.25a3.87 3.87 0 00.56 0 1.22 1.22 0 01.19.12c1.29-.11 3.12.28 4.53-.31a1.79 1.79 0 01.42.25c1.72-.14 4.46.63 5.8-1.35a3.57 3.57 0 00.3-.55h.2l.17.18v-.21h.08l-.08-.06v-.5l-.27.4h-.1a.71.71 0 00-.09.07 2.61 2.61 0 00-.46.08 3.43 3.43 0 01-.56-.16l.17-.33-.48.47c-.31 0-.31-.47-.31-.78l-.32.31c-.16-.48-.63-1.42-1.4-1.1-1.28 1.41.93.47 1.4 1.88a1 1 0 00.25.17 9 9 0 01-1.79.7c-.63 0-1.1.95-1.74.16 0-.16.16-.32.32-.46a.62.62 0 01-.66.29 3.16 3.16 0 00.78-1.18 4.91 4.91 0 00-1.83.55c-.47-.35-1-.59-1.46 0-.64 0-1.42-.32-2.06.61l-.16-.3a3.29 3.29 0 00-.5.25c-.7-.39-1.46-1.48-2.22-.5-.63 0-1.42-.33-2 .61l-.16-.31c-.8.32-.8.47-1.43 1.11.79 0 2-.37 3.2-.5a5.41 5.41 0 00-.74 1l-.5.19c-.95-.15-1.69.36-2.61.52l.21.2a5.86 5.86 0 01-.94.08.63.63 0 01.09-.24 2.71 2.71 0 01-.9-.21l.16-.32-.48.47c-.31 0-.31-.47-.3-.77l-.31.3c-.17-.48-.64-1.43-1.42-1.11-.5.56-.45.75-.19.87a16.11 16.11 0 01-5.63 1.49 3 3 0 001-1.39c-1.12 0-2.71 1.09-3.65 1.25-.62 0-1.1.95-1.74.15a.86.86 0 01.32-.46c-.95 1.26-2.05-1.76-3.16-.33-.64 0-1.42-.32-2.06.64l-.16-.32c-.79.32-.79.47-1.42 1.1 1.46 0 4.3-1.22 5.72 0zm31.64-4.65zm-9.26 1.67l.58-.11a.72.72 0 01-.58.14zm-6.53 1.55h.19l-.19.06zm-1.83.3h-.27a.9.9 0 00.05-.3 2.1 2.1 0 01.22.33z"/><path d="M220.18 205.51l-.3.48.3.31v-.79zM266.84 215.25a2.41 2.41 0 01-.34.37 1.73 1.73 0 001.31-.42 3.21 3.21 0 00-.81.37zM257.35 215.07h-2.53c-2.67-3.64-6.78-.48-10.25-.66 3.31.65 7.27-2.82 9.48 1.14 1.89.63 3.79-.62 5.37-1.09a4 4 0 014.25 1.11 2.15 2.15 0 002.83.07c-1.53-.12-3.18-1.8-3.77-1.8-1.89-.84-3.63.45-5.38 1.23zM218.29 222.84c2.2 1.9 5.21 0 7.12-.62a3.81 3.81 0 00.58.41 3.26 3.26 0 00-2.6 1c1.55-.1 3.31.07 5-.2h.65a9.59 9.59 0 01-5 .72 4 4 0 004.27-.48 16.05 16.05 0 015.37.51c3.47 1.11 4.75-2.84 7.75-2.19.32-1.43-.95.14-.95-1.11a3.23 3.23 0 00-2.52 1.89c-1.71.71-4.05 1.64-6.11.32l1.45-.27c.31-1.58 3.15-.48 2.38-2.37-.48-.15-.8.33-1.12.63-1.1 1.43-2.53 1-3.79.31.31.33.95.65.95 1.12a3.48 3.48 0 01-.36.22c-.06-.06-.13-.09-.19-.15-.21.08-.44.16-.67.26l.31-.33c-.13.08-.27.14-.4.21l.09.12-.43.17h-.2a5.44 5.44 0 00.54-.27l-.38-.51a12.35 12.35 0 01-1.79.23c-1.53-.72-3-1.71-4.27-.27-1.58.64-4.27.94-5.69-.79l.31-.33c-.46-1.75-2.36-.16-2.53-.33-2.84.94-3.48.61-6 2.35a10.23 10.23 0 003.64-1.25c1.9.16 3.96-2.17 4.59 1zM253.05 230.88c-1.9.77-4.59 1.87-6.79-.19-1.75.63-4.43 2-7.13 1.57a4 4 0 004.27-.48 16.29 16.29 0 015.37.5c3.48 1.11 4.75-2.83 7.75-2.18.32-1.42-.93.1-.94-1.11a3.19 3.19 0 00-2.53 1.89zM255.58 229zM259.05 230.4c-.31-.78-.31 0-.78-.62l-.32.93c.32-.14.94.17 1.1-.31zM251.32 248.73a.29.29 0 00-.11.18.25.25 0 00.11-.18zM253.11 247.66c-.63.65-1 0-1.58.63-.28-.08-.18.22-.21.44a.78.78 0 01.21-.12c1.1.48 1.47-.95 1.58-.95zM258.65 248.16a1.85 1.85 0 00.41.07c-.06-.17-.24-.12-.41-.07zM263.13 199.49l-.32.46.31.32.01-.78zM254.58 200.58c-.64 0-1.42-.33-2.06.61l-.16-.31c-.79.32-.79.48-1.43 1.11 1.43 0 4.29-1.24 5.7 0 1.9-.16 5.05.8 6.17-2-1.12 0-2.7 1.11-3.64 1.25-.63 0-1.12 1-1.74.16 0-.16.15-.3.31-.48-.94 1.24-2.04-1.76-3.15-.34zM254.43 195.52l.31-.33a2.52 2.52 0 01-.4.21zM247.3 196.29c2.24-.15 4.89.24 7-.89l-.38-.51c-2.66.61-5.5-.19-6.62 1.4zM262.93 204.54c-.15 0-.31-.15-.31-.48-1.08-.32-1.88.31-2.89.48a1.69 1.69 0 00.35.31.29.29 0 010 .33.8.8 0 01.62.31v-1h1.42v.31z"/><path d="M260.1 205.18c-.47.44-.1.26 0 0zM259.3 204.38a.51.51 0 00-.21.2 2.65 2.65 0 00.64 0c-.13-.18-.26-.29-.43-.2zM258.35 204.05l-.48.48c-.31 0-.31-.48-.3-.79l-.31.31c-.17-.47-.64-1.42-1.42-1.11-1.27 1.42 1 .48 1.41 1.89.31.33 1.42.66 1.42-.29a.8.8 0 01.31.62 1.1 1.1 0 01.11-.58 2.94 2.94 0 01-.9-.2zM246.18 205.12c-.64 0-1.42-.32-2.06.64l-.16-.33c-.78.33-.79.48-1.43 1.11 1.43 0 4.29-1.25 5.7 0 1.91-.16 5.06.79 6.17-2.05-1.11 0-2.69 1.09-3.62 1.25-.64 0-1.13 1-1.75.15 0-.15.15-.31.31-.46-.95 1.28-2.04-1.74-3.16-.31zM254.4 204.51h.01-.01zM254.72 204.03l-.31.48.31.3v-.78zM212.85 187.07c-.63 0-1.42-.31-2 .62l-.16-.3c-.79.32-.79.46-1.43 1.11 1.43 0 4.28-1.24 5.69 0 1.91-.14 5.06.81 6.18-2-1.11 0-2.7 1.09-3.64 1.24-.63 0-1.11.94-1.73.16 0-.16.15-.31.31-.48-1 1.25-2.07-1.75-3.22-.35z"/><path d="M221.39 185.99l-.31.48.31.31v-.79zM214.81 183.71c-2.69.64-5.53-.17-6.65 1.42 2.24-.15 4.89.25 7-.88zM210.21 202.25c-2.68.64-5.53-.16-6.64 1.42 2.23-.14 4.88.25 7-.88zM196.68 194.18c-2.69.64-5.53-.17-6.65 1.42 2.23-.15 4.89.25 7-.88zM215.29 184.35l.31-.31c-.13.08-.26.14-.4.21l.09.11zM220.93 193.71a.26.26 0 010 .31.9.9 0 01.62.3v-.93H223v.3l.78-.3c-.15 0-.3-.17-.3-.48-1.09-.33-1.89.3-2.89.47a1.37 1.37 0 00.34.33z"/><path d="M221 194c-.52.46-.18.28 0 0zM220.58 193.38c-.13-.14-.26-.25-.43-.16a.51.51 0 00-.21.2 2.69 2.69 0 00.64-.04zM218.72 193.37c-.31 0-.31-.48-.31-.78l-.31.3c-.16-.48-.63-1.41-1.41-1.11-1.27 1.42.94.48 1.41 1.9.31.32 1.42.64 1.42-.31a.87.87 0 01.31.63 1.1 1.1 0 01.11-.58 2.94 2.94 0 01-.9-.2l.16-.33zM215.25 193.37c-1.11 0-2.7 1.09-3.64 1.24-.63 0-1.12.95-1.74.16 0-.16.15-.31.31-.46-.95 1.26-2-1.74-3.16-.32-.64 0-1.42-.33-2.06.62l-.16-.32c-.79.32-.79.48-1.43 1.11 1.43 0 4.29-1.24 5.7 0 1.93-.15 5.07.8 6.18-2.03zM203.56 190.43c-1.12 0-2.71 1.09-3.64 1.24-.64 0-1.13.94-1.74.16 0-.16.14-.31.3-.46-.94 1.26-2-1.74-3.16-.33-.63 0-1.42-.32-2.05.63l-.16-.32c-.79.32-.79.48-1.43 1.11 1.43 0 4.28-1.24 5.69 0 1.92-.15 5.07.8 6.19-2.03zM215.57 192.88l-.31.47.31.31v-.78zM230.65 228c-.63 0-1.42-.32-2.06.63l-.16-.31c-.78.31-.78.46-1.42 1.09 1.43 0 4.27-1.24 5.69 0 1.91-.16 5.06.79 6.18-2-1.11 0-2.7 1.09-3.65 1.27-.63 0-1.1.93-1.74.14 0-.16.16-.32.31-.47-.94 1.2-2.04-1.79-3.15-.35zM239.2 226.88l-.31.47.31.31v-.78zM234.42 231.46l-.47.48c-.31 0-.31-.5-.31-.8l-.31.3c-.17-.47-.63-1.41-1.42-1.11-1.27 1.42 1 .48 1.42 1.9.31.32 1.41.64 1.42-.29a.83.83 0 01.3.63 1.15 1.15 0 01.12-.6 2.71 2.71 0 01-.9-.21zM239 231.94c-.15 0-.3-.16-.3-.48-1.09-.33-1.89.3-2.89.47a1.61 1.61 0 00.36.33.26.26 0 010 .31.89.89 0 01.61.3v-.93h1.42v.3z"/><path d="M236.18 232.57c-.47.43-.13.25 0 0zM235.37 231.78a.52.52 0 00-.2.19 2.6 2.6 0 00.63 0c-.13-.17-.26-.27-.43-.19zM230.06 231.21c-1.11 0-2.7 1.11-3.64 1.25-.63 0-1.1 1-1.74.16 0-.16.16-.3.31-.48-1 1.28-2-1.73-3.16-.3-.63 0-1.42-.33-2.06.61l-.16-.31c-.78.32-.78.48-1.42 1.11 1.43 0 4.28-1.24 5.7 0 1.9-.15 5.11.8 6.17-2.04zM230.37 230.73l-.31.46.31.32v-.78zM263.28 215.5l-.31.46.31.32v-.78zM254.9 211.22a2.93 2.93 0 01-.39.21l.08.1z"/><path d="M254.12 210.9c-2.69.63-5.52-.18-6.64 1.39-.23 0-.44 0-.44-.51a3.27 3.27 0 00-2.54 1.9c-1.89.78-4.57 1.87-6.79-.2-1.74.64-4.43 2.05-7.12 1.56a3.92 3.92 0 004.27-.47 16.56 16.56 0 015.37.5c3.47 1.11 4.75-2.82 7.75-2.2.09-.36.06-.52 0-.59 2.13-.07 4.55.2 6.55-.85zM258.5 220.06l-.47.48c-.31 0-.31-.48-.31-.79l-.31.3c-.17-.47-.63-1.42-1.41-1.1-1.28 1.42.94.46 1.41 1.9.31.32 1.42.64 1.42-.31a.91.91 0 01.31.63 1.27 1.27 0 01.1-.59 2.41 2.41 0 01-.89-.2zM259.45 220.38a.58.58 0 00-.21.2 2.33 2.33 0 00.65 0c-.14-.17-.26-.28-.44-.2zM254.88 220.04l-.32.48.32.31v-.79zM246.34 221.13c-.64 0-1.42-.32-2.06.64l-.17-.31c-.78.31-.78.46-1.42 1.09 1.43 0 4.27-1.24 5.7 0 1.9-.15 5.05.81 6.17-2-1.12 0-2.69 1.11-3.65 1.27-.61 0-1.09.93-1.73.14 0-.16.16-.32.31-.47-.95 1.23-2.05-1.77-3.15-.36zM230.03 208.6h.01-.01zM230.34 208.12l-.3.48.3.31v-.79zM221.65 204.13l.32-.3c-.13.08-.27.14-.4.21l.08.11zM227.32 213.82c-.46.43-.13.26 0 0zM225.57 212.69l-.47.47c-.31 0-.31-.47-.31-.78l-.31.3c-.16-.46-.63-1.4-1.41-1.1-1.28 1.42.94.47 1.41 1.9.31.32 1.41.64 1.41-.32a.87.87 0 01.32.66 1.1 1.1 0 01.11-.61 2.5 2.5 0 01-.91-.2zM226.52 213a.45.45 0 00-.2.18 2.28 2.28 0 00.64 0c-.14-.18-.26-.25-.44-.18z"/><path d="M230.15 213.18c-.16 0-.31-.15-.31-.47-1.09-.33-1.88.29-2.88.47a1.12 1.12 0 00.35.3.28.28 0 010 .34.78.78 0 01.61.3v-.94h1.42v.3zM214.15 215.07c1.9-.15 5 .8 6.17-2-1.12 0-2.7 1.11-3.65 1.26-.62 0-1.1 1-1.73.16 0-.16.16-.31.31-.48-.95 1.28-2-1.74-3.16-.31-.64 0-1.43-.32-2.06.61l-.16-.3c-.78.32-.79.48-1.42 1.1 1.44-.06 4.28-1.29 5.7-.04zM220.63 212.55l-.3.46.3.33v-.79zM278.68 229.35v-.79l-.32.48.32.31z"/><path d="M273.41 230.75c1.79-.72 3-2.56 5.18-2.12.32-1.4-.93.13-.94-1.09a3.18 3.18 0 00-2.53 1.88 19.33 19.33 0 01-2 .7l.13-.14a.62.62 0 01-.14.14 5.12 5.12 0 01-.56.15c-.77-.21-1.61-1.69-2.45-.62a4.69 4.69 0 00-1.24 0 5.41 5.41 0 01-.58-.43c-1.74.64-4.43 2.05-7.11 1.57a3.92 3.92 0 004.26-.47 12.93 12.93 0 011.81 0 10.16 10.16 0 00-.79.77c.8 0 2-.38 3.22-.5a10.49 10.49 0 011.13.26 4.21 4.21 0 001.25.2l.1.05c1.9-.15 5.06.82 6.17-2-1.11 0-2.69 1.09-3.64 1.24-.44-.06-.83.5-1.27.41zM270.3 224.29c-.13.08-.26.14-.4.21l.09.11zM278.17 233.16c-1.08-.32-1.88.3-2.88.47a1.47 1.47 0 00.35.31.26.26 0 010 .31.84.84 0 01.62.32v-.95h1.42v.32l.78-.32c-.13 0-.29-.15-.29-.46zM274.86 233.47a.49.49 0 00-.21.19 2.26 2.26 0 00.64 0c-.13-.17-.29-.28-.43-.19z"/><path d="M275.66 234.25c-.47.45-.13.26 0 0zM273.91 233.14l-.48.46c-.31 0-.31-.46-.31-.78l-.31.32c-.16-.47-.63-1.43-1.41-1.12-1.27 1.44.94.48 1.41 1.91.31.32 1.42.63 1.42-.33a.92.92 0 01.31.65 1.12 1.12 0 01.11-.59 2.94 2.94 0 01-.9-.2zM270.29 233.11l-.32.48.32.3v-.78z"/><path d="M264.77 234.67c-.19.05-.37.11-.56.15-.78-.21-1.62-1.7-2.47-.62a4.43 4.43 0 00-1.26 0 4.12 4.12 0 01-.56-.4c-1.74.62-4.43 2-7.11 1.54a4 4 0 004.26-.45 11.54 11.54 0 011.82 0 7.26 7.26 0 00-.8.77c.81 0 2.07-.38 3.27-.49.39.07.76.15 1.09.24a3.66 3.66 0 001.22.2s.08 0 .12.08c1.9-.17 5.06.8 6.17-2.05-1.11 0-2.69 1.1-3.64 1.26-.49 0-.88.55-1.33.44 1.79-.72 3.06-2.57 5.19-2.11.32-1.41-.92.13-.94-1.09-1.27 0-2.05 1.09-2.53 1.87a19.08 19.08 0 01-2 .71l.13-.14a.89.89 0 01-.07.09zM249.78 198.34l-.3.48.3.31v-.79zM243.3 200.86c1.91-.14 5.06.81 6.18-2-1.12 0-2.7 1.09-3.64 1.24-.63 0-1.12.94-1.74.16 0-.16.15-.31.32-.48-.95 1.28-2-1.72-3.17-.32-.64 0-1.42-.31-2.06.62l-.15-.3c-.8.32-.8.46-1.43 1.11 1.39-.04 4.28-1.28 5.69-.03zM246.76 203.71a.25.25 0 010 .32.86.86 0 01.62.31v-1h1.42v.31l.79-.31c-.16 0-.31-.15-.31-.47-1.09-.33-1.88.3-2.88.47a1.3 1.3 0 00.36.37z"/><path d="M246.77 204c-.46.48-.13.29 0 0zM241.39 202.9l-.31.45.31.32v-.77zM279.15 199.52c0-.16.15-.3.31-.48-.95 1.28-2-1.72-3.17-.32-.63 0-1.42-.31-2.05.63l-.16-.31c-.79.32-.79.46-1.43 1.11 1.34 0 3.92-1.06 5.4-.16l-.24.35.32.32V200a1.53 1.53 0 01.21.14c1.91-.15 5.06.8 6.18-2-1.13 0-2.69 1.09-3.64 1.23-.63-.01-1.11.94-1.73.15zM284.52 198.13h.01-.01zM284.84 197.65l-.31.48.3.3.01-.78zM276.15 193.68l.31-.31c-.13.08-.27.14-.4.21l.09.11zM280.07 202.21l-.48.48c-.31 0-.3-.48-.3-.79l-.32.31c-.15-.47-.63-1.43-1.41-1.1-1.27 1.41.94.47 1.4 1.88.32.32 1.43.66 1.43-.3a.87.87 0 01.31.64 1.12 1.12 0 01.11-.59 2.94 2.94 0 01-.9-.2zM281.81 203.34c-.46.44-.13.26 0 0z"/><path d="M284.65 202.7c-.16 0-.31-.14-.31-.48-1.09-.32-1.89.31-2.89.48a1.47 1.47 0 00.35.31.27.27 0 010 .33.75.75 0 01.62.31v-1h1.43v.35zM281 202.54a.55.55 0 00-.2.2 2.65 2.65 0 00.64 0c-.12-.18-.25-.29-.44-.2zM276.12 202.67c-1.12 0-2.7 1.09-3.64 1.25-.62 0-1.11 1-1.73.14 0-.14.16-.3.3-.45-.94 1.26-2-1.76-3.15-.32-.64 0-1.43-.33-2.06.63l-.16-.33c-.78.33-.78.47-1.43 1.11 1.42 0 4.27-1.25 5.7 0 1.9-.14 5.05.81 6.17-2.03zM276.12 202.67h.01-.01zM276.43 202.2l-.3.47.3.3v-.77zM283.88 191.3c0-.18.16-.32.32-.48-.95 1.27-2.05-1.74-3.16-.33-.64 0-1.42-.3-2.06.63l-.16-.3c-.79.32-.79.48-1.43 1.1 1.43 0 4.28-1.26 5.7 0 1.9-.17 5.06.8 6.17-2.05-1.11 0-2.69 1.11-3.64 1.27-.62 0-1.1.93-1.74.16zM289.26 189.88l.32.33v-.81l-.32.48zM280.89 185.44l.32-.31c-.13.08-.27.14-.4.21l.08.11zM273.77 186.22c2.24-.15 4.88.25 7-.88l-.39-.54c-2.66.64-5.49-.17-6.61 1.42zM284.81 194l-.47.48c-.32 0-.32-.48-.32-.78l-.31.3c-.15-.48-.62-1.41-1.41-1.12-1.28 1.43.95.49 1.42 1.91.31.32 1.41.64 1.41-.31a.82.82 0 01.31.63 1.07 1.07 0 01.12-.59 2.76 2.76 0 01-.91-.21zM285.76 194.31a.41.41 0 00-.2.19 3.25 3.25 0 00.63 0c-.13-.17-.26-.28-.43-.19zM289.07 194c-1.09-.33-1.88.3-2.88.47a1.53 1.53 0 00.35.32.25.25 0 010 .31.82.82 0 01.61.31v-.93h1.42v.31l.79-.31c-.14 0-.29-.17-.29-.48z"/><path d="M286.56 195.1c-.47.45-.13.25 0 0zM275.48 195.84c0-.16.16-.3.32-.48-.95 1.28-2.05-1.72-3.16-.32-.64 0-1.42-.31-2.06.63l-.16-.31c-.79.32-.79.46-1.43 1.11 1.44 0 4.28-1.24 5.7 0 1.9-.15 5.06.8 6.17-2.05-1.1 0-2.69 1.1-3.64 1.24-.63.02-1.1.97-1.74.18zM281.18 194.75v-.78l-.31.47.31.31zM281.68 216.77l-.31.48.31.31v-.79zM273.3 212.5c-.12.08-.26.13-.39.2l.08.1zM279.84 223.08a.55.55 0 00-.2.2 3.35 3.35 0 00.64 0c-.13-.17-.28-.28-.44-.2zM278.9 222.77l-.48.46c-.31 0-.31-.46-.3-.78l-.33.32c-.15-.47-.62-1.41-1.4-1.1-1.27 1.41.93.48 1.4 1.89.32.32 1.43.65 1.43-.31a.85.85 0 01.31.63 1.12 1.12 0 01.11-.58 2.94 2.94 0 01-.9-.2zM283.17 222.77c-1.09-.33-1.89.3-2.89.48a1.3 1.3 0 00.35.31.26.26 0 010 .32.87.87 0 01.63.31v-1h1.42v.31l.78-.31c-.14.06-.3-.11-.29-.42z"/><path d="M280.64 223.88c-.46.43-.13.25 0 0zM273.28 221.34l-.32.46.31.33.01-.79zM268.48 223.87l.06.06v-.05c1.71.07 3.61 0 4.42-2.06-1.11 0-2.69 1.11-3.64 1.26a1.63 1.63 0 00-.77.32v-.23l-.22.33a.61.61 0 01-.75-.26c0-.18.16-.31.32-.48-.95 1.27-2-1.74-3.17-.31-.64 0-1.42-.32-2.06.61l-.07-.14c.2-1.2-1 .2-1-1a3.22 3.22 0 00-2.52 1.9c-1.9.78-4.58 1.89-6.8-.17-1.74.63-4.43 2-7.12 1.56a4 4 0 004.27-.45 15.73 15.73 0 015.37.47 3.72 3.72 0 001.84.14l-.31.32c1.39 0 4.13-1.17 5.58-.05a8.32 8.32 0 00-.49.71c-1.9.79-4.59 1.88-6.79-.16-.42.15-.88.34-1.39.54a1.29 1.29 0 010-.24 2.5 2.5 0 00-1.79.88 8.45 8.45 0 01-3.92.36 3.87 3.87 0 003.7-.1 6.44 6.44 0 00-.52.76c-1.9.77-4.58 1.86-6.8-.2-1.74.63-4.43 2-7.11 1.57a3.94 3.94 0 004.26-.46 15.53 15.53 0 015.37.5c3.47 1.11 4.75-2.85 7.76-2.2a2.51 2.51 0 000-.32 14.78 14.78 0 012.94.49c2.73.86 4.1-1.37 6-2.07a8.07 8.07 0 003.43-.29l-.27.79c.33-.15 1 .17 1.11-.31-.29-.74-.31-.11-.7-.54a7.66 7.66 0 003.13-.79l-.38-.52a10.59 10.59 0 01-1.57.22l.18-.34zm-10.54 1zm8.18-.57a8.29 8.29 0 00-2.12.29v-.16a2.15 2.15 0 00-.85.18 3.35 3.35 0 00-.45.27c-.83.06-1.75-1.81-2.68-.63-.31 0-.66-.07-1 0a5.07 5.07 0 013.08-1.26 5.13 5.13 0 00-1 .89c1.43 0 4.28-1.25 5.7 0a3.24 3.24 0 01.45 0c-.38.12-.76.25-1.13.41zM172 188.29a2.32 2.32 0 011.31.53c1.9-.15 5.06.8 6.17-2-1.11 0-2.69 1.11-3.64 1.27-.63 0-1.1.93-1.74.14 0-.14.16-.32.32-.48-.52.7-1.08.13-1.67-.31V187l-.16.23c-.44-.3-.89-.46-1.34.11-.64 0-1.42-.3-2.06.64l-.17-.32c-.78.34-.78.47-1.42 1.11a12.61 12.61 0 002-.32 4.12 4.12 0 01-.84.28c-.63 0-1.11.93-1.74.15 0-.17.16-.33.32-.48-1 1.28-2.05-1.74-3.17-.33-.64 0-1.42-.32-2.06.64l-.15-.31c-.79.31-.8.48-1.43 1.09 1.43 0 4.27-1.24 5.69 0 1.7-.09 4.39.65 5.78-1.2zM181.68 194.84l-.48.47c-.31 0-.31-.47-.31-.78l-.31.3c-.16-.48-.63-1.42-1.42-1.1-1.27 1.39 1 .46 1.43 1.89.3.32 1.41.63 1.42-.31a.86.86 0 01.29.63 1.08 1.08 0 01.12-.59 2.71 2.71 0 01-.9-.21zM183.42 196c-.42.39-.13.22 0 0zM185.94 194.85c-1.09-.34-1.88.3-2.89.47a1.56 1.56 0 00.36.32.26.26 0 010 .32.8.8 0 01.62.31v-1h1.41v.33l.79-.31c-.13.04-.29-.13-.29-.44z"/><path d="M182.63 195.16a.49.49 0 00-.21.19 2.19 2.19 0 00.63 0c-.13-.17-.26-.28-.42-.19zM180 190.12c-1.12 0-2.7 1.09-3.65 1.24-.62 0-1.11.94-1.73.16 0-.16.15-.31.3-.48-.94 1.28-2.05-1.74-3.15-.33-.64 0-1.43-.3-2.06.65l-.17-.32c-.78.32-.78.48-1.42 1.1 1.43 0 4.28-1.23 5.7 0 1.91-.14 5.06.8 6.18-2.02zM180.31 189.6l-.3.5.3.31v-.81zM188 190.15a.56.56 0 00-.21.19 2.33 2.33 0 00.65 0c-.19-.17-.32-.28-.44-.19zM187 189.83l-.48.45c-.31 0-.31-.45-.31-.78l-.31.33c-.15-.48-.63-1.43-1.42-1.12-1.27 1.43 1 .47 1.42 1.9.31.33 1.42.63 1.42-.31a.82.82 0 01.31.64 1.17 1.17 0 01.11-.6 2.45 2.45 0 01-.9-.2zM203.81 188a1.25 1.25 0 01.1-.58 2.89 2.89 0 01-.89-.2l.16-.32-.48.47c-.31 0-.31-.47-.31-.78l-.32.31c-.15-.48-.62-1.43-1.41-1.13-1.27 1.43.94.48 1.41 1.91.32.32 1.43.65 1.43-.31a.85.85 0 01.31.63zM204.91 187.67a.25.25 0 010 .31.84.84 0 01.62.32v-1H207v.33l.77-.33c-.14 0-.3-.15-.29-.46-1.09-.33-1.89.3-2.88.48a1.26 1.26 0 00.31.35zM204.57 187.36c-.14-.15-.27-.27-.45-.17a.51.51 0 00-.21.2 3.57 3.57 0 00.66-.03zM204.93 188c-.47.43-.13.24 0 0zM226.27 186.09c-.13-.14-.26-.25-.44-.17a.5.5 0 00-.2.21 2.69 2.69 0 00.64-.04zM223.79 186.39c.31.32 1.41.64 1.42-.31a.83.83 0 01.31.63 1.1 1.1 0 01.11-.58 2.76 2.76 0 01-.91-.21l.17-.3-.48.48c-.3 0-.3-.5-.3-.8l-.32.3c-.16-.47-.63-1.41-1.42-1.11-1.27 1.42.95.51 1.42 1.9z"/><path d="M226.63 186.4a.29.29 0 010 .32.84.84 0 01.61.31v-.93h1.43v.3l.78-.3c-.16 0-.3-.18-.3-.48-1.09-.33-1.89.3-2.89.47a1.52 1.52 0 00.37.31z"/><path d="M226.64 186.72c-.47.45-.13.28 0 0zM286.49 181.15l-.3.48.3.31v-.79zM280 183.68c1.9-.15 5.06.8 6.18-2-1.12 0-2.7 1.11-3.65 1.27-.63 0-1.12.93-1.74.15a.75.75 0 01.32-.48c-1 1.26-2.06-1.74-3.17-.33-.63 0-1.42-.32-2.06.64l-.16-.32c-.79.32-.79.47-1.42 1.1 1.44-.03 4.28-1.29 5.7-.03zM244.81 208.65l-.31.47.3.32.01-.79z"/><path d="M236.26 209.74c-.62 0-1.42-.3-2.06.63l-.15-.31c-.79.33-.79.47-1.42 1.11 1.42 0 4.27-1.26 5.68 0 1.68-.15 4.33.58 5.7-1.2a16.05 16.05 0 014.62.54c3.47 1.1 4.74-2.85 7.75-2.2.32-1.4-.93.12-.94-1.09a3.23 3.23 0 00-2.54 1.87c-1.89.78-4.57 1.89-6.79-.17-.54.2-1.19.47-1.89.73a3.28 3.28 0 00.27-.53c-1.11 0-2.7 1.09-3.64 1.27a1.1 1.1 0 00-.55.19 6.73 6.73 0 01-1.18-.07.84.84 0 01.3-.45c-.94 1.26-2.04-1.73-3.16-.32zM268.62 243.25a.44.44 0 01.12-.27c-.9.68-1.93-1.85-3-.51-.64 0-1.42-.33-2.06.61l-.16-.31c-.79.32-.79.48-1.43 1.11 1.43 0 4.28-1.27 5.7 0 1.91-.16 5.06.8 6.17-2.05-1.11 0-2.69 1.11-3.63 1.26-.6 0-1.09.91-1.71.16zM274.31 242.16v-.78l-.32.45.32.33z"/><path d="M268.93 242.79l-.19.19a.85.85 0 00.19-.19zM248.73 191.03v.01l.01-.01h-.01zM241.28 196.71c.31-1.42-.93.11-.95-1.1a3.24 3.24 0 00-2.53 1.88c-1.89.77-4.58 1.87-6.8-.18-1.74.62-4.43 2-7.11 1.57a4 4 0 004.26-.47 15.69 15.69 0 015.37.48c3.48 1.11 4.75-2.83 7.76-2.18zM240.33 195.59zM229 188.38l-.15-.33c-.79.33-.8.48-1.43 1.11 1.43 0 4.27-1.24 5.69 0 1.9-.15 5.06.8 6.18-2h-.26l.32-.1-.06.08.3.3V187c3-.69 6.86.93 9.31-.44a10.93 10.93 0 01-3.82.18c-2.68-1.6-6 .47-9.17.6.38.38 1.07.27 1.65.29a9.94 9.94 0 01-1.92.75c-.63 0-1.12.94-1.74.15 0-.15.16-.3.31-.46-.94 1.26-2-1.74-3.16-.32-.59-.02-1.38-.33-2.05.63zM260.33 181.74h-.01.01zM254.15 183.78c1.9-.15 5.06.8 6.18-2-1.11 0-2.69 1.09-3.64 1.24-.63 0-1.11.94-1.74.15 0-.15.15-.3.32-.48-1 1.29-2.06-1.71-3.17-.32-.64 0-1.42-.3-2.06.63l-.16-.31c-.79.33-.79.47-1.42 1.11 1.43-.04 4.28-1.28 5.69-.02zM260.65 181.26l-.32.48.32.3v-.78zM280.79 190.12c.32-1.42-.93.1-.94-1.11a3.25 3.25 0 00-2.53 1.89c-1.9.77-4.58 1.87-6.8-.19-1.74.63-4.43 2-7.12 1.57a4 4 0 004.27-.48 16.29 16.29 0 015.37.5c3.47 1.12 4.75-2.83 7.75-2.18zM279.84 189zM262.12 195.26c-1.74.63-4.43 2.05-7.11 1.57a4 4 0 004.26-.46 15.94 15.94 0 015.37.47c3.48 1.11 4.75-2.82 7.76-2.19v-.26a8.23 8.23 0 003.63-.81l-.38-.53c-2.7.63-5.54-.19-6.65 1.39h.64a5.75 5.75 0 00-.74 1c-1.9.78-4.56 1.88-6.78-.18zM270.76 184.62l-.32.48.32.3v-.78z"/><path d="M260.15 186.32L260 186c-.78.32-.78.48-1.42 1.11 1.43 0 4.28-1.25 5.7 0 .9-.08 2.08.09 3.19 0-.09.13-.17.27-.24.39-1.91.78-4.59 1.87-6.8-.18-1.74.64-4.43 2-7.12 1.56a3.82 3.82 0 002.23.38v.31c.79.5 2.21 1.13 2.53 1.29h.78a1.17 1.17 0 00.61.29 8.25 8.25 0 00-.63.89c-1.9.79-4.59 1.9-6.8-.18-1.55.57-3.85 1.75-6.24 1.66 1.2-.81 2.3-1.75 3.89-1.41.32-1.41-.94.16-.94-1.1a3.23 3.23 0 00-2.53 1.89c-1.9.78-4.58 1.89-6.8-.17-1.74.63-4.43 2-7.11 1.55a3.86 3.86 0 002.14.39 1.71 1.71 0 00-.45.44c2.23-.15 4.88.25 7-.88l-.13-.16.32.06-.19.1.08.11.19-.18c.22 0 .44.1.63.16a4 4 0 003.61-.64 4 4 0 003.64-.69 15.73 15.73 0 015.37.48c3.47 1.1 4.75-2.85 7.75-2.19.31-1.43-1 .14-.94-1.11a2.77 2.77 0 00-.3 0c.14-.16.25-.28.32-.28a7.22 7.22 0 01-3 .64v-.33l-.31.33-.64-.65a4.09 4.09 0 00-1.62-.68 4.52 4.52 0 001.76-.81 16.54 16.54 0 015.37.5 4.16 4.16 0 00.79.17l-.16.19c.56.26 1.29.71 1.3-.14.32-.15.47.16.63.31l-.32.17h1.9c1.26 0 .47-.79.63-1.41-.62.48-1.57.46-1.73 1.26-.12-.24-.39-.39-.48-.63 1.8-.71 3.07-2.56 5.2-2.12.25-1.14-.52-.35-.82-.67a3.3 3.3 0 00.57-1 7.09 7.09 0 00-2.55.85 2.92 2.92 0 01-1.12.06v-.3l-.31.3-.64-.63c-.47-.46-1.26-.48-1.89-.78v.48c.78.45 2.21 1.09 2.53 1.25h.34c-.63 0-1.1 1-1.74.18 0-.18.16-.32.32-.5-1 1.28-2.05-1.72-3.17-.3-.6.08-1.38-.25-2.03.69zm-24.07 7.82a4 4 0 00.47-.29 15 15 0 013.1.06c-1.27.15-2.52.09-3.57.23zM287.23 204.24c-1.27 0-2.05 1.09-2.53 1.87-1.9.79-4.59 1.89-6.79-.19-1.75.65-4.43 2.07-7.13 1.57a4 4 0 004.28-.46 16.31 16.31 0 015.37.49c3.47 1.11 4.74-2.84 7.74-2.19.32-1.4-.95.17-.94-1.09zM272.44 201.75c0-.17.15-.32.31-.48-.95 1.27-2.05-1.73-3.16-.32-.64 0-1.42-.3-2.06.63l-.16-.32c-.79.32-.79.48-1.43 1.1 1.43 0 4.29-1.23 5.7 0 1.91-.16 5.06.82 6.17-2-1.11 0-2.69 1.09-3.63 1.26-.63-.04-1.12.92-1.74.13zM285.19 211.43zM285.19 211.44a3.22 3.22 0 00-2.53 1.9c-1.9.78-4.59 1.89-6.79-.2a29.85 29.85 0 01-4.27 1.48 4 4 0 00.62-.46 8.84 8.84 0 00-3.4.56h-.08.05c-.27.11-.54.21-.84.36l-.14.11a5.07 5.07 0 011.86-.16 4.09 4.09 0 003.34-.79 16.8 16.8 0 015.37.48c3.48 1.13 4.75-2.82 7.75-2.18.31-1.39-.93.14-.94-1.1zM264.93 219.61c-.59.21-1.3.51-2.07.8a.62.62 0 01-.09-.33c-1.09-.33-1.88.3-2.88.47a1 1 0 00.35.31.25.25 0 010 .26 7.06 7.06 0 01-2.47 0 3.81 3.81 0 002.93.23l.13.11v-.15a5 5 0 001.2-.64h.23v.18l.54-.21a17 17 0 014.6.53c3.21 1 4.54-2.23 7.08-2.26a2.06 2.06 0 01.67.39c1.9-.17 5.06.8 6.17-2-1.12 0-2.69 1.11-3.65 1.27-.63 0-1.1.93-1.74.14 0-.14.16-.32.31-.47-1 1.26-2-1.74-3.16-.33-.63 0-1.42-.32-2.06.64l-.16-.31c-.78.31-.78.46-1.42 1.09.73 0 1.84-.32 2.93-.46a6.13 6.13 0 00-.69 1c-1.86.69-4.54 1.79-6.75-.26zm-4.06 1.39v-.48h1.42v.06c-.45.18-.93.32-1.42.42zM273.55 208.96l-.32.48.32.3v-.78z"/><path d="M272.05 209.72a2.38 2.38 0 00-.92-.46c-1.58-.67-3.06.12-4.52.85-.52-.4-1.06-.76-1.6-.06-.57 0-1.27-.26-1.86.37-2.67-3.49-6.75-.41-10.18-.57 3.21.61 7-2.61 9.26.79a6.51 6.51 0 00-.87.82 13.46 13.46 0 002.08-.33 4.84 4.84 0 001.51-.21 2.88 2.88 0 012.08.54 9.3 9.3 0 01-4.65.59 4 4 0 004.28-.45 16.31 16.31 0 015.37.49l.41.1c-2.67.58-5.47-.17-6.57 1.38 2.23-.12 4.89.27 7-.87l-.36-.49c1.94.37 3.18-.88 4.54-1.72 1.19-.07 2.21.32 3.53-.89h-.81c.07-.89-1 .31-1-.85a3.06 3.06 0 00-2.43 1.74 1.27 1.27 0 01-.13.11.53.53 0 01.12 0v.06l-.24.09a1 1 0 00.16-.12 3.43 3.43 0 00-.82.37l-.16-.31a2.35 2.35 0 01-.33.37 1.85 1.85 0 00.41 0c-.24.1-.5.18-.76.26a2 2 0 00.35-.24 5 5 0 01-2.1-.87 3.5 3.5 0 00.42-.77 3.53 3.53 0 00-1.21.28zm-4.2 1.11c0-.15.16-.3.32-.48-.43.59-.9.28-1.38-.1.35-.14.69-.28 1-.38a3.63 3.63 0 013.15.31 6.92 6.92 0 01-1.26.47 2.31 2.31 0 01-.19-.14c-.42.15-.9.35-1.41.55a1 1 0 01-.23-.23zm3.08.55A3.34 3.34 0 00272 211a2.36 2.36 0 001.51.56 4.72 4.72 0 01-2.58-.18zM255.43 207.22zM247 211.77zM216.47 210.28c-1.74.64-4.43 2.05-7.12 1.56a3.94 3.94 0 004.27-.47 16.29 16.29 0 015.37.5c2.06.66 3.35-.46 4.68-1.34a1.86 1.86 0 01.19.11c1.89-.15 5 .8 6.17-2-1.12 0-2.69 1.09-3.64 1.25-.62 0-1.1.93-1.73.15a.14.14 0 010-.06 3.22 3.22 0 012.06-.27c.32-1.41-.94.16-.94-1.11a2.55 2.55 0 00-1.93 1c-.66-.43-1.36-1.31-2.06-.43-.64 0-1.42-.3-2.06.64l-.16-.31c-.79.33-.79.48-1.42 1.1 1.27 0 3.68-1 5.19-.29l-.09.14c-1.88.79-4.56 1.9-6.78-.17zM225.1 199.64l-.31.47.31.31v-.78zM214.5 201.36l-.15-.3c-.8.3-.8.45-1.43 1.09 1.43 0 4.28-1.25 5.69 0 1.91-.15 5.06.8 6.18-2-1.11 0-2.7 1.11-3.63 1.27-.64 0-1.13.93-1.75.15a.73.73 0 01.31-.47c-.94 1.25-2-1.75-3.16-.33-.64-.04-1.42-.37-2.06.59zM195.86 198.55l-.15-.31c-.8.31-.8.46-1.43 1.09 1.43 0 4.28-1.24 5.69 0 1.91-.16 5.06.8 6.18-2-1.11 0-2.7 1.11-3.63 1.27-.64 0-1.13.93-1.75.14 0-.16.15-.32.31-.47-.94 1.26-2-1.74-3.16-.32-.64-.03-1.42-.36-2.06.6zM240.49 220.95h.01-.01zM229.52 225.45zM222.72 228.75c3.48 1.12 4.75-2.83 7.75-2.18.31-1.43-.93.11-.95-1.1a3.2 3.2 0 00-2.52 1.88c-1.9.77-4.59 1.88-6.79-.18-1.76.63-4.44 2-7.13 1.57a4 4 0 004.27-.46 16 16 0 015.37.47zM224.09 216.82l-.31.47.3.32.01-.79zM215.54 217.9c-.64 0-1.42-.31-2.06.63l-.15-.31c-.79.33-.79.46-1.43 1.11 1.43 0 4.28-1.24 5.7 0 1.9-.14 5.05.81 6.17-2-1.11 0-2.7 1.1-3.64 1.26-.64 0-1.13.93-1.75.15 0-.15.15-.31.32-.48-.94 1.24-2.04-1.76-3.16-.36zM261.63 221.88h.01-.01zM253.24 226.45zM252.23 218h.01-.01zM244 218.59c-.64 0-1.42-.3-2.06.64l-.16-.3c-.78.32-.78.45-1.42 1.1 1.42 0 4.28-1.24 5.7 0 1.9-.16 5.05.8 6.17-2-1.11 0-2.69 1.09-3.63 1.25-.64 0-1.11.93-1.75.15 0-.15.16-.31.32-.47-.96 1.24-2.05-1.78-3.17-.37z"/><path d="M252.55 217.78c1.44-.28 3.21-.68 4.24.24 1.9-.16 5 .8 6.17-2-1.11 0-2.7 1.11-3.65 1.26-.63 0-1.1.94-1.74.15 0-.17.16-.3.31-.48-.95 1.29-2-1.73-3.15-.3-.64 0-1.43-.32-2.06.61l-.17-.31c-.78.31-.78.48-1.42 1.09a5.86 5.86 0 001.27-.16l-.12.18.31.31zM277.65 227.53zM269.25 232.07zM263.29 244.78zM253.76 239.48h.01-.01zM241.58 242.27h1.11c-.18.16-.35.35-.68.69.8 0 2-.38 3.22-.5a11.41 11.41 0 011.73.37 3.81 3.81 0 001.8.14c1.86.06 4.19.33 5.12-2a10.72 10.72 0 00-3 1 5.76 5.76 0 013.26-1.43l-.24.38.31.3v-.67a2.22 2.22 0 01.51.06c.15-.69-.07-.68-.33-.62l.54-.54c1.59.31 2.22-.93 3.64.32a.75.75 0 01.31-.62c.15.59.41.55.63.47-.35-.11-.63-.34-.63-.65-1.78-.59-4.38-1-4.82 1.05-.16 0-.29-.12-.29-.52a3.22 3.22 0 00-2.52 1.9 13.66 13.66 0 01-2.73.88 1.05 1.05 0 01.31-.44c-1 1.26-2.06-1.74-3.16-.33-.27 0-.57-.05-.87 0a3 3 0 01-.35-.27c-1.75.64-4.44 2-7.12 1.57a3.89 3.89 0 004.25-.54zM253.88 240.9h.01-.01zM272.11 245.72h.01-.01zM272.11 245.72a3.21 3.21 0 00-2.52 1.89c-1.9.78-4.59 1.87-6.8-.19-.4.14-.85.33-1.34.52a.58.58 0 000-.4H260c1.36-.83 2.52-2 4.27-1.65.32-1.4-.93.14-.94-1.09a3.22 3.22 0 00-2.53 1.88 13.76 13.76 0 01-2.74.89 7.21 7.21 0 00-3.25-.45 4.63 4.63 0 01-.79-.59 21.29 21.29 0 01-5.18 1.61c-1.34-.86-1.85-3.24-4.2-3-1.9 0-4.75 1.26-6.17.62 1.58 2.54 3.16-.79 5.06.49 1.7-1.22 3.16.54 4.64 1.93a7 7 0 01-1.28-.09 4 4 0 001.64.41c.88.78 1.77 1.33 2.73.94a2 2 0 010-.49.44.44 0 01-.32 0 .92.92 0 01-.31-.65 2.29 2.29 0 01-1.13.1 4.64 4.64 0 001.65-.76 12.44 12.44 0 012.54 0 2.05 2.05 0 00-.55 1.34l1-.95a3.28 3.28 0 001.57-.11c.3.06.6.12.86.2a4.15 4.15 0 001.15.2s.05 0 .07.05 0 0 0-.05a3.38 3.38 0 00.72-.09.78.78 0 00.22 0 4.35 4.35 0 00.92-.38l.22.23a1 1 0 01-.69.22 1.07 1.07 0 01.06.4h.4a8.45 8.45 0 01-3.85.36 3.92 3.92 0 004.1-.36h.46a1.91 1.91 0 01.32-.15 16.13 16.13 0 014.76.54c3.47 1.11 4.74-2.84 7.75-2.19.19-1.49-1.07.1-1.07-1.18zM263.71 250.26a3.22 3.22 0 00-2.52 1.9c-1.9.78-4.59 1.87-6.79-.19-1.76.65-4.44 2-7.13 1.56a3.93 3.93 0 004.26-.45 16 16 0 015.38.49c3.48 1.11 4.74-2.85 7.75-2.2.34-1.43-.95.16-.95-1.11zM263.71 250.26h.01-.01zM263.01 241.34l-.31.46.31.33v-.79z"/><path d="M254.47 242.41c-.63 0-1.42-.3-2.05.63l-.17-.32c-.79.32-.79.48-1.42 1.11 1.43 0 4.27-1.25 5.69 0 1.9-.15 5.06.82 6.18-2-1.11 0-2.7 1.11-3.65 1.26-.63 0-1.1.94-1.73.16 0-.18.15-.31.31-.48-.95 1.23-2.05-1.77-3.16-.36zM189.37 191.18v-.88h1.42v.32l.78-.32c-.15 0-.3-.15-.3-.45-1.09-.34-1.89.29-2.88.46a1.26 1.26 0 00.34.31v.07a3.31 3.31 0 00-2.44 1.88c-1.9.78-4.58 1.87-6.79-.18-1.74.62-4.44 2-7.13 1.56a4 4 0 004.27-.46 15.75 15.75 0 015.36.51c3.47 1.11 4.76-2.84 7.75-2.2.25-.8-.08-.68-.38-.62zm-.47-.2a.76.76 0 01.39.22c-.17.02-.29 0-.39-.2zM179.75 186.3l-.31.46.31.32v-.78z"/></svg>