<?xml version="1.0" encoding="utf-8"?>
<!-- Generator: Adobe Illustrator 16.0.0, SVG Export Plug-In . SVG Version: 6.00 Build 0)  -->
<!DOCTYPE svg PUBLIC "-//W3C//DTD SVG 1.1//EN" "http://www.w3.org/Graphics/SVG/1.1/DTD/svg11.dtd">
<svg version="1.1" id="Layer_1" xmlns="http://www.w3.org/2000/svg" xmlns:xlink="http://www.w3.org/1999/xlink" x="0px" y="0px"
	 width="600px" height="361.88px" viewBox="0 0 600 361.88" enable-background="new 0 0 600 361.88" xml:space="preserve">
<rect fill="#00427B" width="600" height="361.88"/>
<g id="path390">
	<path fill="none" stroke="#D9CE3E" stroke-width="2" d="M483.894,137.272"/>
</g>
<g>
	<g id="path260">
		<path fill="#CCCCCC" stroke="#000000" d="M388.952,218.794c0.02,0.962,0.039,5.011-0.798,7.229l-0.183,0.055
			c-1.236-1.64-2.17-3.84-3.856-5.095c0,0-0.095-0.418-2.639-0.971c-3.668-0.257-8.902,12.024-10.809,11.707
			c-0.83-0.139-1.447-0.427-1.829-0.86c-0.5-0.567-0.599-1.39-0.238-2.463c2.384-3.167,3.783-11.491,3.813-14.243
			c0.032-2.753-1.746-11.236-2.697-15.192c-0.835-3.45,2.008-4.002,2.744-4.091C383.313,199.944,380.717,208.618,388.952,218.794
			L388.952,218.794z"/>
	</g>
	<g id="path262">
		<path fill="#B3B3B3" stroke="#000000" d="M370.668,231.721c1.906,0.316,7.141-11.964,10.809-11.708
			c2.544,0.553,2.639,0.972,2.639,0.972l-0.5,0.906c0,0-3.048,6.405-9.474,14.702l-5.379-5.662l0.075-0.069
			C369.221,231.293,369.838,231.581,370.668,231.721L370.668,231.721z"/>
	</g>
	<g id="path264">
		<path fill="#FFFFFF" stroke="#000000" d="M373.53,194.85c8.583,2.688,10.287-5.081,14.781-4.434
			c9.186,2.197,5.244,19.625,23.524,27.378c-8.582-1.903-12.397-2.374-16.53-6.649c-1.75,3.167,2.064,10.763,6.839,18.516
			c-6.303-3.743-10.38-7.389-13.191-10.869c-8.236-10.173-5.641-18.847-16.492-23.919c-0.013-0.009-0.031-0.014-0.047-0.022H373.53
			L373.53,194.85z"/>
	</g>
	<g id="path266">
		<path fill="#B3B3B3" stroke="#000000" d="M228.128,233.585c-5.878-8.961-8.278-15.879-8.278-15.879l-0.5-0.906
			c0,0,0.095-0.416,2.64-0.971c3.67-0.257,8.898,12.024,10.809,11.71c0.737-0.122,1.307-0.363,1.694-0.723l0.075,0.068l-6.243,6.573
			L228.128,233.585z"/>
	</g>
	<g id="path268">
		<path fill="#CCCCCC" stroke="#000000" d="M234.865,224.214c0.389,1.162,0.243,2.031-0.373,2.603
			c-0.388,0.359-0.957,0.601-1.694,0.723c-1.91,0.314-7.139-11.967-10.809-11.71c-2.545,0.555-2.64,0.973-2.64,0.973
			c-1.685,1.254-2.619,3.455-3.854,5.094l-0.183-0.055c-0.837-2.214-0.817-6.252-0.8-7.225c8.241-10.176,5.64-18.85,16.49-23.927
			c0.738,0.091,3.583,0.644,2.746,4.092c-0.951,3.958-2.736,12.44-2.697,15.192C231.083,212.723,232.479,221.048,234.865,224.214z"
			/>
	</g>
	<g id="path270">
		<path fill="#FFFFFF" stroke="#000000" d="M219.85,217.706c0,0,2.4,6.918,8.277,15.878c10.8,16.484,33.346,39.891,74.289,39.891
			c36.696,0,59.913-21.633,71.726-36.882c6.427-8.297,9.474-14.703,9.474-14.703l0.5-0.906c1.686,1.255,2.619,3.455,3.857,5.095
			c0.344,0.455,0.713,0.869,1.136,1.211c2.543,2.058,8.736,3.568,8.739,7.599c-9.65,19.524-47.965,56.758-94.491,56.758
			c-56.957,0-88.086-41.418-97.738-60.941c0.006-4.03,6.198-5.541,8.74-7.6c0.417-0.339,0.79-0.753,1.137-1.21
			c1.235-1.64,2.17-3.841,3.856-5.095L219.85,217.706L219.85,217.706z"/>
	</g>
	<g id="path272">
		<path fill="#FFFFFF" stroke="#000000" d="M231.003,190.689c-10.851,5.075-8.249,13.75-16.49,23.926
			c-2.812,3.474-6.886,7.12-13.188,10.863c4.771-7.754,8.585-15.35,6.835-18.515c-4.133,4.271-7.947,4.746-16.529,6.649
			c18.279-7.756,14.34-25.183,23.523-27.381c4.495-0.646,6.2,7.122,14.781,4.435h1.117
			C231.038,190.677,231.018,190.681,231.003,190.689L231.003,190.689z"/>
	</g>
	<g id="path274">
		<path d="M230.073,243.097l2.521,2.496l-1.15,9.907l3.771-3.77c0.372-0.373,0.564-0.777,0.576-1.209
			c0.01-0.438-0.167-0.86-0.532-1.274l0.507-0.509l2.97,2.943l-0.508,0.51c-0.457-0.367-0.878-0.539-1.26-0.514
			c-0.382,0.024-0.772,0.233-1.17,0.631l-6.314,6.313l-0.633-0.629l1.373-11.338l-4.418,4.417c-0.506,0.505-0.758,0.988-0.757,1.449
			s0.175,0.861,0.517,1.205l0.137,0.134l-0.51,0.51l-3.274-3.247l0.508-0.509l0.225,0.223c0.321,0.32,0.718,0.458,1.193,0.421
			c0.475-0.037,0.911-0.256,1.312-0.657l5.222-5.219c0.08-0.568-0.068-1.042-0.448-1.417l-0.36-0.358L230.073,243.097
			L230.073,243.097z"/>
	</g>
	<g id="path276">
		<path d="M238.857,251.627l4.486,3.769l-0.469,0.55l-0.809-0.679c-0.172-0.146-0.328-0.219-0.465-0.215
			c-0.136,0.002-0.263,0.07-0.376,0.202L235.509,262c-0.134,0.159-0.188,0.307-0.162,0.44c0.034,0.178,0.151,0.351,0.352,0.518
			l0.722,0.606l-0.468,0.552l-4.487-3.769l0.468-0.55l0.689,0.575c0.236,0.199,0.438,0.301,0.602,0.303
			c0.164,0.004,0.311-0.071,0.44-0.225l5.65-6.671c0.14-0.164,0.2-0.323,0.176-0.477c-0.021-0.152-0.127-0.311-0.317-0.472
			l-0.783-0.656L238.857,251.627L238.857,251.627z"/>
	</g>
	<g id="path278">
		<path d="M243.157,256.257l0.418-0.582l4.777,3.407l-0.418,0.58l-0.806-0.573c-0.23-0.164-0.424-0.237-0.579-0.215
			c-0.156,0.023-0.305,0.131-0.447,0.328l-4.968,6.906c-0.203,0.281-0.286,0.493-0.255,0.632c0.033,0.139,0.214,0.327,0.541,0.561
			l1.344,0.959c0.498,0.355,1.137,0.451,1.909,0.286s1.648-0.685,2.626-1.559l0.569,0.405l-2.771,3.408l-8.199-5.845l0.417-0.581
			l0.816,0.582c0.182,0.128,0.351,0.18,0.51,0.152c0.158-0.024,0.298-0.122,0.418-0.29l5.108-7.103
			c0.124-0.171,0.167-0.329,0.127-0.476c-0.038-0.145-0.174-0.297-0.404-0.461L243.157,256.257L243.157,256.257z"/>
	</g>
	<g id="path280">
		<path d="M268.954,271.065l1.058-0.668l0.502,0.208l-1.444,3.672l-0.643-0.264c0.101-1.186-0.049-2.165-0.451-2.94
			c-0.4-0.775-0.974-1.314-1.722-1.621c-0.635-0.261-1.226-0.3-1.767-0.121c-0.543,0.181-0.913,0.513-1.112,0.992
			c-0.119,0.286-0.146,0.58-0.087,0.883c0.057,0.3,0.227,0.609,0.509,0.921c0.279,0.313,0.823,0.742,1.624,1.285
			c0.937,0.636,1.564,1.122,1.887,1.454c0.508,0.53,0.824,1.088,0.946,1.669c0.125,0.581,0.051,1.196-0.219,1.849
			c-0.403,0.974-1.062,1.612-1.978,1.915c-1.102,0.363-2.253,0.302-3.454-0.192c-1.104-0.455-1.955-1.251-2.552-2.393l-1.271,0.696
			l-0.525-0.216l1.619-3.907l0.629,0.258c-0.299,2.488,0.51,4.128,2.426,4.915c0.785,0.32,1.469,0.392,2.054,0.211
			c0.583-0.182,0.986-0.54,1.209-1.076c0.156-0.378,0.19-0.729,0.105-1.063c-0.087-0.333-0.295-0.661-0.632-0.981
			c-0.185-0.177-0.672-0.535-1.465-1.076c-1.062-0.736-1.786-1.346-2.174-1.823c-0.387-0.479-0.614-0.964-0.685-1.459
			c-0.069-0.493,0.014-1.026,0.249-1.597c0.398-0.961,1.047-1.61,1.946-1.949c0.899-0.341,1.895-0.285,2.984,0.163
			C267.57,269.237,268.381,269.99,268.954,271.065L268.954,271.065z"/>
	</g>
	<g id="path282">
		<path d="M271.466,271.057l5.602,1.753l-0.215,0.683l-1.012-0.315c-0.218-0.068-0.39-0.074-0.517-0.021
			c-0.126,0.056-0.213,0.166-0.268,0.333l-2.664,8.439c-0.064,0.197-0.055,0.353,0.022,0.47c0.099,0.149,0.273,0.263,0.524,0.341
			l0.903,0.282l-0.216,0.684l-5.604-1.753l0.217-0.683l0.856,0.268c0.295,0.092,0.521,0.108,0.672,0.046
			c0.151-0.059,0.257-0.186,0.318-0.375l2.637-8.343c0.065-0.205,0.058-0.376-0.022-0.511c-0.08-0.132-0.238-0.237-0.476-0.31
			l-0.977-0.305L271.466,271.057L271.466,271.057z"/>
	</g>
	<g id="path284">
		<path d="M277.067,272.978l3.467,0.716l4.489,8.926l1.09-5.211c0.106-0.515,0.049-0.957-0.179-1.327
			c-0.226-0.369-0.603-0.628-1.134-0.774l0.147-0.698l4.085,0.848l-0.147,0.697c-0.585-0.061-1.032,0.026-1.338,0.256
			c-0.308,0.226-0.518,0.615-0.633,1.165l-1.822,8.719l-0.87-0.181l-5.094-10.243l-1.276,6.102c-0.146,0.7-0.092,1.244,0.163,1.629
			c0.255,0.386,0.618,0.628,1.095,0.728l0.19,0.039l-0.146,0.698l-4.508-0.937l0.146-0.698l0.31,0.067
			c0.444,0.089,0.854-0.008,1.229-0.299c0.376-0.286,0.619-0.707,0.735-1.258l1.505-7.194c-0.24-0.538-0.623-0.861-1.146-0.971
			l-0.501-0.104L277.067,272.978L277.067,272.978z"/>
	</g>
	<g id="path286">
		<path d="M288.652,275.347l9.95,0.841l-0.119,3.998l-0.686-0.059c-0.079-0.952-0.222-1.646-0.426-2.079
			c-0.204-0.438-0.493-0.771-0.862-1.01c-0.372-0.239-0.869-0.384-1.499-0.438l-1.56-0.131c-0.242-0.021-0.42,0.013-0.536,0.099
			c-0.117,0.086-0.183,0.212-0.194,0.383l-0.337,3.95l0.533,0.045c0.615,0.053,1.108-0.083,1.477-0.403
			c0.369-0.32,0.615-0.863,0.745-1.635l0.686,0.06l-0.45,5.302l-0.687-0.06c0.029-0.883-0.113-1.517-0.424-1.906
			c-0.312-0.388-0.809-0.611-1.497-0.67l-0.442-0.035l-0.357,4.202c-0.016,0.184,0.026,0.318,0.126,0.405
			c0.159,0.127,0.389,0.204,0.698,0.23l1.376,0.115c0.944,0.08,1.741-0.155,2.39-0.704c0.649-0.552,1.098-1.424,1.345-2.626
			l0.687,0.06l-0.529,4.312l-10.375-0.874l0.06-0.711l1.027,0.087c0.232,0.02,0.413-0.023,0.543-0.131s0.205-0.261,0.222-0.46
			l0.747-8.761c0.016-0.183-0.032-0.325-0.146-0.421c-0.113-0.099-0.328-0.161-0.642-0.187l-0.902-0.076L288.652,275.347
			L288.652,275.347z"/>
	</g>
	<g id="path288">
		<path d="M311.656,275.938l3.516-0.535l7.331,6.806l-0.808-5.257c-0.079-0.52-0.289-0.914-0.633-1.182
			c-0.34-0.269-0.785-0.378-1.331-0.332l-0.109-0.712l4.13-0.629l0.108,0.712c-0.569,0.148-0.958,0.386-1.163,0.705
			c-0.209,0.32-0.27,0.757-0.186,1.312l1.353,8.807l-0.886,0.133l-8.358-7.831l0.943,6.157c0.109,0.708,0.35,1.195,0.724,1.468
			c0.373,0.273,0.801,0.373,1.277,0.3l0.193-0.03l0.107,0.713l-4.567,0.695l-0.107-0.711l0.314-0.05
			c0.451-0.068,0.803-0.304,1.055-0.707c0.252-0.4,0.337-0.878,0.249-1.438l-1.115-7.264c-0.414-0.415-0.888-0.581-1.421-0.499
			l-0.509,0.078L311.656,275.938L311.656,275.938z"/>
	</g>
	<g id="path290">
		<path d="M323.208,274.222l5.544-1.59l0.198,0.684l-1.127,0.322c-0.159,0.046-0.267,0.134-0.326,0.267
			c-0.059,0.131-0.057,0.305,0.007,0.524l1.755,6.068c0.247,0.856,0.667,1.447,1.255,1.774c0.588,0.325,1.283,0.376,2.089,0.145
			c0.589-0.17,1.089-0.449,1.496-0.84c0.298-0.29,0.497-0.681,0.599-1.175c0.1-0.494,0.056-1.069-0.133-1.722l-1.349-4.659
			c-0.169-0.592-0.434-0.999-0.784-1.221c-0.353-0.221-0.752-0.266-1.201-0.138l-0.163,0.048l-0.198-0.683l4.203-1.207l0.195,0.683
			l-0.29,0.085c-0.438,0.126-0.723,0.388-0.857,0.78c-0.132,0.396-0.129,0.833,0.01,1.319l1.462,5.049
			c0.324,1.124,0.21,2.134-0.347,3.034c-0.561,0.904-1.503,1.547-2.828,1.925c-0.947,0.271-1.817,0.354-2.606,0.245
			c-0.792-0.105-1.406-0.362-1.842-0.765c-0.436-0.401-0.769-1.003-1.002-1.805l-1.781-6.164c-0.085-0.287-0.195-0.468-0.336-0.542
			c-0.14-0.074-0.35-0.071-0.632,0.01l-0.811,0.231L323.208,274.222L323.208,274.222z"/>
	</g>
	<g id="path292">
		<path d="M334.395,271.153l4.205-1.9l5.575,5.972l-0.831-8.114l4.299-1.944l0.299,0.653l-0.938,0.424
			c-0.23,0.104-0.371,0.22-0.419,0.34c-0.049,0.126-0.026,0.292,0.068,0.495l3.622,7.942c0.091,0.201,0.202,0.318,0.33,0.351
			c0.193,0.049,0.41,0.017,0.651-0.09l0.83-0.377l0.298,0.654l-5.312,2.398l-0.297-0.653l1.001-0.453
			c0.185-0.083,0.302-0.198,0.351-0.343c0.049-0.147,0.032-0.314-0.05-0.496l-3.878-8.502l1.108,11.246l-0.619,0.279l-7.779-8.333
			l3.465,7.596c0.198,0.436,0.499,0.729,0.904,0.884c0.405,0.155,0.884,0.141,1.433-0.042l0.299,0.654l-3.874,1.749l-0.299-0.652
			c0.471-0.263,0.771-0.606,0.905-1.03c0.135-0.42,0.095-0.861-0.114-1.325l-3.065-6.719c-0.128-0.286-0.264-0.455-0.406-0.503
			c-0.144-0.048-0.354-0.009-0.637,0.119l-0.827,0.373L334.395,271.153L334.395,271.153z"/>
	</g>
	<g id="path294">
		<path d="M347.357,265.032l5.031-3.006l0.372,0.617l-0.908,0.542c-0.193,0.117-0.313,0.24-0.354,0.369
			c-0.041,0.13-0.018,0.271,0.071,0.42l4.565,7.577c0.106,0.176,0.229,0.274,0.365,0.292c0.179,0.028,0.381-0.027,0.606-0.162
			l0.81-0.482l0.371,0.616l-5.032,3.007l-0.372-0.618l0.77-0.46c0.266-0.158,0.428-0.313,0.482-0.467s0.03-0.316-0.073-0.487
			l-4.513-7.492c-0.112-0.185-0.244-0.291-0.396-0.319c-0.155-0.029-0.336,0.021-0.549,0.147l-0.877,0.522L347.357,265.032
			L347.357,265.032z"/>
	</g>
	<g id="path296">
		<path d="M352.516,262.137l2.856-2.118l9.672,2.584l-3.189-4.265c-0.316-0.421-0.688-0.668-1.117-0.745
			c-0.431-0.076-0.88,0.035-1.345,0.336l-0.429-0.573l3.358-2.487l0.428,0.572c-0.432,0.396-0.664,0.784-0.696,1.166
			c-0.032,0.378,0.121,0.793,0.457,1.245l5.341,7.142l-0.712,0.527l-11.07-3.016l3.74,5.002c0.43,0.571,0.872,0.892,1.334,0.96
			c0.458,0.066,0.884-0.047,1.273-0.336l0.157-0.115l0.428,0.573l-3.712,2.751l-0.431-0.571l0.254-0.188
			c0.365-0.271,0.563-0.643,0.597-1.113c0.032-0.473-0.121-0.938-0.46-1.389l-4.418-5.908c-0.553-0.162-1.044-0.084-1.475,0.236
			l-0.411,0.304L352.516,262.137L352.516,262.137z"/>
	</g>
	<g id="path298">
		<path d="M361.998,255.062l7.244-6.845l2.917,2.739l-0.497,0.47c-0.768-0.571-1.379-0.925-1.838-1.061
			c-0.461-0.134-0.904-0.142-1.33-0.023c-0.425,0.12-0.864,0.396-1.324,0.827l-1.138,1.074c-0.178,0.168-0.271,0.321-0.284,0.467
			c-0.014,0.144,0.04,0.276,0.155,0.398l2.736,2.87l0.386-0.366c0.447-0.421,0.673-0.874,0.676-1.36
			c0.002-0.485-0.241-1.032-0.732-1.637l0.504-0.477l3.669,3.851l-0.504,0.474c-0.643-0.607-1.212-0.923-1.71-0.952
			c-0.494-0.026-0.993,0.192-1.489,0.665l-0.323,0.304l2.921,3.063c0.129,0.134,0.257,0.191,0.392,0.174
			c0.195-0.031,0.408-0.152,0.634-0.365l1.001-0.947c0.687-0.647,1.04-1.396,1.06-2.243c0.019-0.847-0.34-1.762-1.071-2.741
			l0.502-0.474l2.88,3.268l-7.543,7.127l-0.497-0.522l0.746-0.706c0.168-0.158,0.256-0.321,0.263-0.492
			c0.005-0.167-0.06-0.325-0.198-0.472l-6.069-6.364c-0.128-0.137-0.267-0.192-0.416-0.173c-0.147,0.019-0.336,0.137-0.564,0.354
			l-0.655,0.619L361.998,255.062L361.998,255.062z"/>
	</g>
	<g id="path300">
		<path fill="#FFFFFF" stroke="#000000" d="M300.567,270.733c0-24.137-47.856-0.017-47.856-50.221
			c0-8.366,5.837-16.715,5.837-25.082c0-16.734-12.142-29.303-12.142-29.303l16.344-16.716c0,0,18.69,13.678,37.817,0
			c21.014,13.678,37.819,0,37.819,0l16.809,16.734c0,0-12.606,12.551-12.606,29.285c0,8.367,6.304,16.733,6.304,25.102
			c0,50.201-47.858,26.583-47.858,50.185"/>
	</g>
	<g id="polygon302">
		<polygon fill="#FFFFFF" points="320.104,180.572 315.061,180.617 315.051,179.828 321.784,170.977 325.828,179.293 
			328.252,179.023 333.639,187.604 333.578,187.679 327.714,183.123 322.979,183.732 		"/>
	</g>
	<g id="polygon304">
		<polygon fill="#FFFFFF" points="314.07,180.627 308.473,178.07 305.815,183.593 303.117,174.764 300.157,176.229 292.238,170.377 
			291.883,170.015 299.424,162.665 305.353,169.903 305.621,173.125 311.55,175.537 315.051,179.828 315.061,180.617 		"/>
	</g>
	<g id="path306">
		<path fill="#FFFFFF" d="M287.41,174.368l2.68,3.022c-0.41-0.308-4.562-3.253-4.447,2.705c-0.581,2.225-8.485-3.319-11.763-3.485
			c-2.572-0.131-6.294,2.096-7.765,3.058l6.911-9.766l3.772,0.538l4.038-3.486L287.41,174.368L287.41,174.368z"/>
	</g>
	<g id="path308">
		<path fill="#00427B" d="M333.578,187.678l0.061-0.073l5.086,2.782c-0.237,1.656-0.375,3.344-0.375,5.039
			c0,0.229,0.006,0.461,0.016,0.688h-75.673c0.01-0.226,0.019-0.459,0.019-0.688c0-3.165-0.467-6.293-1.2-9.26l4.596-6.493
			c0.006,0,0.006-0.005,0.009-0.005c1.47-0.962,5.192-3.189,7.765-3.058c3.278,0.166,11.182,5.713,11.763,3.485
			c-0.113-5.958,4.037-3.013,4.447-2.705l-2.68-3.021l4.473-4.356l0.355,0.362l7.919,5.852l2.96-1.464l2.698,8.828l2.656-5.521
			l5.597,2.557l0.989-0.012l5.045-0.046l2.875,3.161l4.735-0.608L333.578,187.678L333.578,187.678z"/>
	</g>
	<g id="path310">
		<path fill="#D72E39" d="M266.106,179.677l-4.596,6.494c-2.754-11.146-9.305-20.025-9.305-20.025l10.505-10.459
			c0,0,20.654,12.31,37.819,0c18.847,12.31,37.819,0,37.819,0l10.506,10.459c0,0-8.271,11.203-10.133,24.247l-5.085-2.784
			l-5.388-8.581l-2.422,0.27l-4.044-8.316l-6.733,8.85l-3.502-4.29l-5.928-2.413l-0.269-3.221l-5.927-7.238l-7.542,7.349
			l-4.474,4.356l-6.571-7.414l-4.039,3.486l-3.772-0.539l-6.91,9.766C266.111,179.672,266.111,179.677,266.106,179.677
			L266.106,179.677z"/>
	</g>
	<g id="path312">
		<path d="M339.249,196.816H262.11l0.035-0.732c0.01-0.218,0.017-0.436,0.016-0.65c0-14.661-10.265-28.734-10.37-28.875
			l-0.355-0.482l11.317-11.266l0.469,0.278c0.091,0.053,9.156,5.371,20.027,5.371c6.356,0,12.084-1.795,17.023-5.337l0.391-0.281
			l0.402,0.264c5.444,3.552,11.432,5.354,17.797,5.354c0.003,0,0.003,0,0.003,0c10.871,0,19.17-5.302,19.253-5.356l0.476-0.309
			l11.333,11.282l-0.357,0.482c-0.103,0.141-10.368,14.226-10.368,28.872c0,0.218,0.007,0.438,0.016,0.658L339.249,196.816z
			 M263.563,195.421H337.8c0.004-13.724,8.423-26.528,10.291-29.199l-9.695-9.653c-1.975,1.168-9.638,5.284-19.53,5.285
			c0,0-0.001,0-0.003,0c-6.486,0-12.595-1.792-18.163-5.325c-5.092,3.534-10.961,5.325-17.45,5.325
			c-9.958,0-18.219-4.17-20.27-5.298l-9.708,9.667C255.139,168.893,263.56,181.697,263.563,195.421z"/>
	</g>
	<g id="path314">
		<path fill="#FFD700" d="M262.403,199.875c-1.557,6.659-5.726,14.352-5.726,20.397c0,44.593,34.813,25.087,44.143,39.823
			c9.659-14.964,44.102,4.77,44.102-39.823c0-6.045-4.173-13.738-5.729-20.397h-76.787H262.403z"/>
		<path d="M300.816,261.395l-0.588-0.925c-3.133-4.947-9.543-5.859-16.33-6.824c-6.602-0.938-13.427-1.907-18.81-6.379
			c-6.132-5.092-9.112-13.922-9.112-26.994c0-3.84,1.623-8.31,3.192-12.632c0.965-2.654,1.962-5.398,2.551-7.924l0.127-0.538h77.903
			l0.126,0.538c0.591,2.526,1.588,5.271,2.553,7.926c1.568,4.322,3.193,8.791,3.193,12.63c0,29.335-14.691,31.421-27.652,33.259
			c-6.84,0.971-13.297,1.888-16.56,6.943L300.816,261.395z M262.953,200.572c-0.616,2.449-1.555,5.035-2.466,7.542
			c-1.53,4.211-3.109,8.563-3.109,12.158c0,12.634,2.814,21.113,8.607,25.922c5.077,4.218,11.703,5.159,18.109,6.071
			c6.735,0.956,13.118,1.863,16.73,6.612c3.726-4.852,10.158-5.763,16.945-6.727c6.364-0.903,12.941-1.837,17.958-6.032
			c5.714-4.782,8.492-13.236,8.492-25.847c0-3.596-1.581-7.946-3.109-12.156c-0.912-2.508-1.852-5.095-2.468-7.544H262.953z"/>
	</g>
	<g id="polyline316">
		<polygon points="262.168,186.667 261.022,185.864 272.854,169.157 276.734,169.707 281.056,165.977 293.643,180.175 
			292.592,181.097 280.925,167.936 277.169,171.177 273.504,170.657 		"/>
	</g>
	<g id="polyline318">
		<polygon points="338.843,191.165 333.295,188.132 333.199,187.979 328.044,179.765 325.567,180.041 321.805,172.306 
			315.225,180.956 311.273,176.115 305.111,173.608 304.827,170.18 299.52,163.698 288.055,174.869 287.075,173.872 
			299.637,161.632 306.188,169.635 306.438,172.64 312.134,174.959 315.187,178.698 322.07,169.649 326.396,178.546 
			328.766,178.281 334.29,187.084 339.517,189.944 		"/>
	</g>
	<g id="path320">
		<path d="M284.946,181.09c-1.125,0-2.862-0.781-5.341-1.941c-2.11-0.986-4.292-2.009-5.592-2.076
			c-3.068-0.147-8.054,3.366-8.103,3.401l-0.544-0.756c0.215-0.153,5.294-3.745,8.695-3.573c1.483,0.076,3.747,1.138,5.939,2.163
			c2.026,0.948,4.55,2.129,5.245,1.803c0.039-0.018,0.064-0.037,0.085-0.083c-0.028-2.081,0.466-3.388,1.468-3.886
			c1.576-0.779,3.679,0.836,3.768,0.906l-0.577,0.732c-0.476-0.371-1.906-1.238-2.773-0.806c-0.655,0.326-0.983,1.402-0.95,3.113
			l0.001,0.064l-0.017,0.062c-0.088,0.338-0.297,0.595-0.606,0.739C285.445,181.045,285.213,181.09,284.946,181.09z"/>
	</g>
	<g id="polyline322">
		<polygon points="333.58,188.151 327.734,183.609 322.952,184.229 320.052,181.038 314.123,181.093 308.85,178.684 305.872,184.87 
			302.985,175.43 300.262,176.772 292.114,170.756 292.671,170.008 300.361,175.687 303.558,174.11 306.066,182.314 
			308.404,177.458 314.324,180.161 320.463,180.104 323.315,183.245 328.002,182.637 334.154,187.419 		"/>
	</g>
	<g id="path324">
		<path fill="#FFFFFF" d="M260.647,167.364c0,0,0.113-3.821,2.82-2.304c2.428-3.878,6.04-0.73,6.04-0.73s4.006-1.798,4.515,0.73
			c3.387-0.506,3.273,2.247,3.273,2.247L260.647,167.364L260.647,167.364z"/>
		<path d="M260.166,167.83l0.015-0.48c0.034-1.155,0.524-3.11,2.146-3.11c0.306,0,0.634,0.074,0.981,0.222
			c0.859-1.196,1.93-1.802,3.188-1.802c1.392,0,2.598,0.771,3.086,1.136c0.484-0.188,1.546-0.55,2.551-0.55
			c1.118,0,1.895,0.46,2.227,1.307c1.165-0.098,2.052,0.173,2.655,0.799c0.785,0.815,0.749,1.929,0.747,1.976l-0.018,0.444
			L260.166,167.83z M262.326,165.168c-0.783,0-1.063,1.078-1.162,1.729l15.613-0.053c-0.059-0.26-0.184-0.589-0.441-0.855
			c-0.452-0.462-1.219-0.622-2.244-0.469l-0.438,0.065l-0.088-0.434c-0.084-0.42-0.325-0.977-1.433-0.977
			c-1.125,0-2.421,0.573-2.433,0.579l-0.273,0.122l-0.226-0.195c-0.012-0.011-1.277-1.09-2.705-1.09
			c-1.033,0-1.918,0.577-2.631,1.716l-0.236,0.377l-0.388-0.218C262.889,165.268,262.581,165.168,262.326,165.168z"/>
	</g>
	<g id="path326">
		<path fill="#FFFFFF" d="M305.961,167.252l16.592,0.112c0,0,0-3.651-3.839-2.359c-1.185-3.54-4.402-0.45-4.402-0.45
			s-2.651-3.765-5.136,0.056C306.693,163.319,305.961,167.252,305.961,167.252z"/>
		<path d="M323.019,167.833l-17.618-0.12l0.102-0.545c0.024-0.134,0.636-3.281,2.727-3.281c0.253,0,0.516,0.049,0.782,0.145
			c0.776-1.06,1.658-1.597,2.623-1.597c1.243,0,2.249,0.913,2.738,1.459c0.521-0.409,1.5-1.052,2.492-1.052
			c0.671,0,1.555,0.289,2.13,1.594c0.432-0.114,0.835-0.172,1.204-0.172c2.232,0,2.82,2.029,2.82,3.101V167.833z M306.563,166.791
			l15.478,0.105c-0.113-0.646-0.503-1.703-1.843-1.703c-0.389,0-0.838,0.084-1.334,0.252l-0.445,0.149l-0.146-0.442
			c-0.464-1.381-1.175-1.381-1.408-1.381c-0.872,0-1.903,0.808-2.229,1.119l-0.391,0.376l-0.313-0.442
			c-0.011-0.015-1.052-1.459-2.297-1.459c-0.725,0-1.418,0.504-2.064,1.5l-0.232,0.355l-0.377-0.196
			c-0.265-0.138-0.511-0.208-0.731-0.208C307.317,164.815,306.796,166.05,306.563,166.791z"/>
	</g>
	<g id="path328">
		<path fill="#FFFFFF" d="M324.021,170.06c0,0,1.126-4.101,3.385-2.248c0.112-1.909,2.821-4.551,5.531-1.741
			c2.145-3.147,4.345,0.899,3.666,1.573c2.539-3.371,3.557,0,3.387,0.224c3.217-0.45,2.538,2.247,2.538,2.247L324.021,170.06z"/>
		<path d="M342.895,170.581l-19.486-0.059l0.162-0.585c0.087-0.314,0.896-3.071,2.703-3.071c0.267,0,0.536,0.063,0.805,0.187
			c0.428-1.376,1.772-2.672,3.392-2.672c0.827,0,1.651,0.342,2.411,0.995c0.542-0.634,1.135-0.954,1.77-0.954
			c0.795,0,1.584,0.542,2.112,1.449c0.104,0.178,0.199,0.378,0.276,0.583c0.552-0.517,1.076-0.766,1.592-0.766
			c0.639,0,1.213,0.411,1.571,1.127c0.038,0.074,0.142,0.293,0.21,0.545c1.023-0.055,1.754,0.21,2.204,0.785
			c0.667,0.85,0.38,2.032,0.366,2.083L342.895,170.581z M324.673,169.597l17.448,0.052c0.012-0.275-0.021-0.655-0.244-0.935
			c-0.298-0.379-0.925-0.511-1.822-0.385l-1.113,0.155l0.59-0.783c-0.034-0.188-0.175-0.603-0.442-0.868
			c-0.144-0.145-0.294-0.215-0.458-0.215c-0.241,0-0.769,0.158-1.585,1.216c-0.033,0.05-0.069,0.097-0.111,0.138l-0.704-0.607
			l0.027-0.036c0.031-0.12-0.033-0.6-0.402-1.15c-0.348-0.518-0.799-0.827-1.205-0.827c-0.545,0-1.022,0.533-1.328,0.979
			l-0.323,0.475l-0.399-0.414c-0.693-0.718-1.409-1.082-2.13-1.082c-1.471,0-2.538,1.522-2.597,2.529l-0.053,0.914l-0.712-0.583
			c-0.302-0.249-0.583-0.375-0.835-0.375C325.559,167.795,324.98,168.833,324.673,169.597z"/>
	</g>
	<g id="path330">
		<path fill="#93652F" d="M317.906,248.85c-0.942,0.937-2.379,1.023-3.211,0.193l-33.472-33.323
			c-0.832-0.827-0.747-2.259,0.192-3.195c0.941-0.936,2.378-1.021,3.21-0.191l33.474,33.322
			C318.932,246.484,318.844,247.916,317.906,248.85z"/>
		<path d="M316.121,250.078c-0.676,0-1.299-0.251-1.756-0.706l-33.473-33.323c-1.013-1.008-0.925-2.737,0.195-3.853
			c0.572-0.57,1.343-0.898,2.111-0.898c0.677,0,1.3,0.251,1.758,0.706l33.471,33.323c0.499,0.495,0.749,1.175,0.705,1.914
			c-0.044,0.719-0.363,1.405-0.897,1.938C317.66,249.75,316.891,250.078,316.121,250.078z M283.199,212.228
			c-0.522,0-1.051,0.228-1.451,0.626c-0.756,0.753-0.844,1.891-0.194,2.538l33.472,33.323c0.281,0.28,0.67,0.433,1.096,0.433
			c0.525,0,1.054-0.228,1.454-0.625c0.373-0.373,0.596-0.847,0.625-1.337c0.029-0.469-0.125-0.896-0.432-1.2l-33.472-33.323
			C284.017,212.382,283.626,212.228,283.199,212.228z"/>
	</g>
	<g id="path332">
		<path fill="#93652F" d="M323.18,212.527c0.941,0.936,1.026,2.368,0.193,3.195l-33.471,33.324
			c-0.832,0.828-2.269,0.741-3.208-0.195c-0.941-0.934-1.028-2.363-0.196-3.192l33.473-33.324
			C320.803,211.505,322.24,211.592,323.18,212.527L323.18,212.527z"/>
		<path d="M288.476,250.081c-0.769,0-1.539-0.328-2.112-0.899c-0.535-0.532-0.853-1.22-0.896-1.938
			c-0.046-0.737,0.203-1.419,0.703-1.914l33.47-33.323c0.458-0.455,1.081-0.705,1.759-0.705c0.769,0,1.539,0.328,2.111,0.897
			c1.12,1.116,1.207,2.844,0.194,3.854l-33.472,33.321C289.776,249.83,289.151,250.081,288.476,250.081z M321.398,212.231
			c-0.429,0-0.816,0.153-1.097,0.433l-33.472,33.322c-0.308,0.307-0.461,0.732-0.432,1.202c0.029,0.489,0.252,0.963,0.626,1.336
			c0.399,0.398,0.929,0.626,1.451,0.626c0.427,0,0.816-0.153,1.097-0.434l33.472-33.322c0.65-0.646,0.563-1.786-0.194-2.538
			C322.45,212.458,321.921,212.231,321.398,212.231z"/>
	</g>
	<g id="path334">
		<path fill="#FFFFFF" d="M329.133,223.943c-1.878,1.871-4.689,2.109-6.276,0.529l-11.744-11.693
			c-1.586-1.578-1.35-4.376,0.532-6.248c1.879-1.87,4.689-2.109,6.275-0.528l11.744,11.692
			C331.251,219.273,331.014,222.074,329.133,223.943z"/>
		<path d="M325.511,225.983c-1.158,0-2.22-0.421-2.983-1.183l-11.744-11.692c-0.867-0.861-1.283-2.063-1.17-3.382
			c0.11-1.289,0.713-2.541,1.701-3.525c1.092-1.085,2.533-1.709,3.954-1.709c1.156,0,2.217,0.419,2.98,1.182l11.746,11.693
			c0.866,0.86,1.28,2.063,1.169,3.383c-0.109,1.289-0.714,2.541-1.701,3.522C328.371,225.359,326.932,225.983,325.511,225.983z
			 M315.269,205.422c-1.176,0-2.375,0.523-3.294,1.438c-0.831,0.825-1.341,1.872-1.432,2.943c-0.088,1.043,0.231,1.983,0.899,2.649
			l11.745,11.693c0.59,0.584,1.413,0.906,2.323,0.906c1.175,0,2.375-0.522,3.292-1.438c0.832-0.826,1.34-1.872,1.43-2.944
			c0.09-1.042-0.229-1.981-0.898-2.646l-11.744-11.693C317.001,205.744,316.178,205.422,315.269,205.422z"/>
	</g>
	<g id="path336">
		<path fill="#FFFFFF" d="M269.851,227.834c7.719,0.096,0,0.191,7.908,0.096c1.907-14.517,8.96-4.27,9.721-5.313
			c0.572-2.189,1.907-3.7,4.098-4.366c0.476-0.948-8.387-10.437,10.292-15.846C291.959,202.124,273.376,210.663,269.851,227.834
			L269.851,227.834z"/>
		<path d="M274.053,228.434c-0.238,0-0.38,0-0.495-0.046c-0.204-0.021-0.983-0.053-3.713-0.087l-0.564-0.007l0.112-0.553
			c3.411-16.616,21.082-25.808,31.992-25.808c0.168,0,0.335,0.005,0.498,0.008l0.117,0.911c-6.046,1.751-9.781,4.109-11.101,7.007
			c-1.27,2.79-0.035,5.429,0.703,7.007c0.383,0.818,0.574,1.229,0.393,1.594l-0.09,0.179l-0.192,0.057
			c-1.963,0.597-3.236,1.955-3.782,4.038l-0.021,0.086l-0.053,0.07c-0.127,0.173-0.317,0.268-0.538,0.268l0,0
			c-0.414,0-0.888-0.349-1.604-0.875c-1-0.735-2.37-1.745-3.628-1.745c-1.916,0-3.216,2.508-3.864,7.453l-0.053,0.399l-0.406,0.006
			C275.445,228.422,274.469,228.434,274.053,228.434z M273.857,227.504c0.203,0.002,0.981-0.005,3.494-0.034
			c0.752-5.288,2.304-7.861,4.736-7.861c1.565,0,3.078,1.114,4.184,1.928c0.29,0.213,0.632,0.466,0.86,0.6
			c0.643-2.08,1.961-3.49,3.926-4.203c-0.074-0.188-0.195-0.448-0.301-0.673c-0.754-1.609-2.157-4.604-0.709-7.784
			c1.165-2.558,3.969-4.702,8.349-6.396c-10.438,1.423-24.708,9.938-27.971,24.299C272.851,227.408,273.576,227.43,273.857,227.504z
			"/>
	</g>
	<g id="line338">
		
			<rect x="294.123" y="115.761" transform="matrix(0.9313 0.3643 -0.3643 0.9313 66.456 -119.9052)" fill="#D9CE3E" width="113.962" height="0.93"/>
	</g>
	<g id="line340">
		<polygon fill="#D9CE3E" points="390.932,120.595 299.086,96.794 299.323,95.895 391.166,119.694 		"/>
	</g>
	<g id="line342">
		
			<rect x="294.817" y="99.508" transform="matrix(0.9997 0.0254 -0.0254 0.9997 2.6498 -8.4787)" fill="#D9CE3E" width="79.917" height="0.929"/>
	</g>
	<g id="line344">
		
			<rect x="331.541" y="61.87" transform="matrix(0.0651 0.9979 -0.9979 0.0651 405.5204 -242.1805)" fill="#D9CE3E" width="0.93" height="66.914"/>
	</g>
	<g id="line346">
		
			<rect x="327.17" y="63.536" transform="matrix(0.1829 0.9831 -0.9831 0.1829 358.0168 -247.0618)" fill="#D9CE3E" width="0.929" height="56.613"/>
	</g>
	<g id="line348">
		<polygon fill="#D9CE3E" points="299.37,97.648 299.039,96.779 343.068,80.23 343.397,81.101 		"/>
	</g>
	<g id="line350">
		<polygon fill="#D9CE3E" points="300.924,97.018 300.401,96.247 331.599,75.348 332.121,76.119 		"/>
	</g>
	<g id="line352">
		<polygon fill="#D9CE3E" points="301.525,92.067 300.962,91.326 323.707,74.2 324.27,74.942 		"/>
	</g>
	<g id="line354">
		<polygon fill="#D9CE3E" points="303.063,89.671 302.34,89.083 315.46,73.115 316.183,73.703 		"/>
	</g>
	<g id="line356">
		<polygon fill="#D9CE3E" points="301.094,93.033 300.229,92.684 308.975,71.204 309.839,71.553 		"/>
	</g>
	<g id="line358">
		
			<rect x="301.654" y="71.311" transform="matrix(0.9936 0.113 -0.113 0.9936 11.1437 -33.6047)" fill="#D9CE3E" width="0.934" height="20.452"/>
	</g>
	<g id="line360">
		<polygon fill="#D9CE3E" points="301.101,92.449 292.646,71.262 293.513,70.918 301.968,92.106 		"/>
	</g>
	<g id="line362">
		<polygon fill="#D9CE3E" points="299.083,94.53 287.421,73.049 288.242,72.607 299.904,94.087 		"/>
	</g>
	<g id="line364">
		<polygon fill="#D9CE3E" points="299.7,100.681 280.165,73.976 280.919,73.429 300.455,100.133 		"/>
	</g>
	<g id="line366">
		<polygon fill="#D9CE3E" points="300.675,99.617 268.888,75.812 269.449,75.069 301.236,98.874 		"/>
	</g>
	<g id="line368">
		<polygon fill="#D9CE3E" points="301.623,101.406 257.594,79.921 258.004,79.086 302.034,100.571 		"/>
	</g>
	<g id="line370">
		
			<rect x="245.361" y="91.38" transform="matrix(0.9722 0.2341 -0.2341 0.9722 29.1002 -61.4267)" fill="#D9CE3E" width="55.785" height="0.929"/>
	</g>
	<g id="line372">
		
			<rect x="232.869" y="95.006" transform="matrix(0.9957 0.0924 -0.0924 0.9957 9.9676 -24.3059)" fill="#D9CE3E" width="69.107" height="0.929"/>
	</g>
	<g id="line374">
		
			<rect x="261.707" y="61.204" transform="matrix(0.0799 0.9968 -0.9968 0.0799 342.1851 -168.1467)" fill="#D9CE3E" width="0.929" height="80.146"/>
	</g>
	<g id="line376">
		
			<rect x="253.254" y="61.204" transform="matrix(0.2435 0.9699 -0.9699 0.2435 297.3401 -163.8678)" fill="#D9CE3E" width="0.93" height="94.95"/>
	</g>
	<g id="line378">
		<polygon fill="#D9CE3E" points="201.387,132.196 201.083,131.316 299.637,97.644 299.94,98.522 		"/>
	</g>
	<g id="line380">
		<polygon fill="#D9CE3E" points="194.428,146.986 194.044,146.137 299.014,99.114 299.396,99.961 		"/>
	</g>
	<g id="line382">
		<polygon fill="#D9CE3E" points="188.644,164.959 188.165,164.161 298.381,98.558 298.86,99.355 		"/>
	</g>
	<g id="line384">
		<polygon fill="#D9CE3E" points="198.302,173.354 197.751,172.603 304.176,95.096 304.729,95.846 		"/>
	</g>
	<g id="line386">
		<polygon fill="#D9CE3E" points="400.359,181.743 314.926,105.108 315.551,104.417 400.984,181.053 		"/>
	</g>
	<g id="path388">
		<path fill="none" stroke="#D9CE3E" stroke-width="2" d="M300.371,93.152"/>
	</g>
	<g id="line392">
		
			<rect x="287.857" y="125.776" transform="matrix(0.8611 0.5084 -0.5084 0.8611 112.8848 -160.7496)" fill="#D9CE3E" width="125.619" height="0.93"/>
	</g>
	<g id="line394">
		<polygon fill="#D9CE3E" points="404.265,146.981 295.798,95.891 296.197,95.051 404.663,146.142 		"/>
	</g>
	<g id="line396">
		<polygon fill="#D9CE3E" points="398.642,166.676 349.075,129.81 349.634,129.064 399.201,165.931 		"/>
	</g>
	<g id="polygon398">
		<polygon fill="#FFFFFF" points="276.65,111.369 301.702,111.369 322.871,111.369 299.761,71.625 		"/>
		<path d="M324.087,112.067h-48.653l24.327-41.833L324.087,112.067z M277.863,110.672h43.795l-21.897-37.655L277.863,110.672z"/>
	</g>
	<g id="polygon400">
		<path d="M315.279,107.65H284.24l15.521-26.489L315.279,107.65z M285.866,106.722h27.789l-13.895-23.715L285.866,106.722z"/>
	</g>
	<g id="path402">
		<path fill="#FFD700" d="M305.461,98.265c0.383,0.33,0.744,0.684,1.083,1.046c-0.162,0.544-1.475,4.443-6.081,4.443
			c-4.533,0-5.241-4.434-5.331-5.192c0.459-0.451,0.948-0.869,1.483-1.227l0.035,0.056c0,0,0.892,4.638,4.067,4.638
			s4.699-3.708,4.699-3.708L305.461,98.265z"/>
	</g>
	<g id="path404">
		<path d="M305.461,98.265l-0.044,0.056c0,0-1.524,3.708-4.699,3.708c-3.176,0-4.067-4.638-4.067-4.638l-0.035-0.056
			c1.119-0.762,2.414-1.27,3.973-1.27C302.446,96.154,304.088,97.075,305.461,98.265L305.461,98.265z"/>
	</g>
	<g id="path406">
		<path d="M310.896,103.965c-0.009-0.015-0.032-0.064-0.067-0.142c-1.214-2.617-5.58-11.128-10.729-10.71
			c-3.712,0.297-5.883,3.265-7.05,5.702c-1.041,2.177-4.299,3.631-4.438,3.692l-0.188-0.425c0.031-0.015,3.237-1.446,4.205-3.466
			c1.221-2.548,3.5-5.651,7.435-5.966c5.389-0.434,9.855,8.124,11.151,10.899l0.017-0.007l0.055,0.145
			c0.019,0.05,0.031,0.084,0.037,0.102L310.896,103.965z"/>
	</g>
	<g id="path408">
		<path d="M289.023,104.387v-0.466c1.281,0,2.414-1.395,3.727-3.01c0.687-0.844,1.396-1.717,2.217-2.517
			c0.516-0.505,1.013-0.916,1.516-1.253c1.291-0.879,2.636-1.308,4.104-1.308c1.708,0.081,3.396,0.84,5.026,2.255
			c0.366,0.314,0.725,0.662,1.1,1.063c1.652,1.771,2.768,3.75,3.169,4.518c0.131,0.245,0.197,0.39,0.197,0.39l-0.427,0.19
			c-0.003-0.005-0.063-0.138-0.185-0.362c-0.395-0.754-1.482-2.689-3.096-4.418c-0.363-0.388-0.712-0.725-1.065-1.029
			c-1.551-1.346-3.143-2.066-4.729-2.142c-1.362,0-2.617,0.402-3.831,1.229c-0.48,0.322-0.956,0.714-1.451,1.201
			c-0.802,0.78-1.504,1.643-2.182,2.477C291.726,102.912,290.526,104.387,289.023,104.387z"/>
	</g>
	<g id="path410">
		<path d="M300.465,103.986c-4.698,0-5.458-4.496-5.563-5.397c-0.006-0.074-0.009-0.107-0.009-0.11l0.462-0.056
			c0,0,0.006,0.042,0.012,0.124c0.095,0.822,0.796,4.976,5.098,4.976c4.458,0,5.727-3.84,5.856-4.277l0.015-0.056l0.454,0.112
			l-0.021,0.075C306.629,99.849,305.262,103.986,300.465,103.986z"/>
	</g>
	<g id="path412">
		<path d="M300.715,102.262c-3.33,0-4.257-4.63-4.296-4.827l0.459-0.087c0.01,0.044,0.893,4.45,3.837,4.45
			c2.983,0,4.47-3.529,4.483-3.565l0.433,0.177C305.565,98.566,304.01,102.262,300.715,102.262z"/>
	</g>
	<g id="path414">
		<path d="M299.943,105.583c-0.804,0-4.65-0.197-7.419-3.808l0.371-0.281c2.935,3.827,7.129,3.625,7.171,3.623l0.028,0.464
			C300.09,105.581,300.037,105.583,299.943,105.583z"/>
	</g>
	<g id="path416">
		<path d="M293.222,105.693c-0.688,0-1.759-0.321-2.742-1.949l0.399-0.24c1.384,2.29,2.816,1.662,2.876,1.634l0.201,0.42
			C293.949,105.561,293.663,105.693,293.222,105.693z"/>
	</g>
	<g id="path418">
		<path d="M305.668,105.439c-0.155,0-0.321-0.031-0.476-0.125c-0.148-0.09-0.265-0.223-0.351-0.397
			c-0.048,0.056-0.103,0.106-0.162,0.154c-0.699,0.545-1.935,0.251-1.987,0.238l0.111-0.451c0.295,0.071,1.155,0.184,1.587-0.154
			c0.191-0.149,0.285-0.374,0.285-0.685h0.466c0,0.472,0.103,0.782,0.293,0.897c0.248,0.15,0.632-0.037,0.635-0.04l0.094-0.048
			l0.097,0.038c0.008,0.002,0.222,0.076,0.364-0.054c0.122-0.112,0.363-0.534-0.035-2.06l0.431-0.171
			c0.991,1.787,1.683,2.087,1.93,2.134l0.535-1.258l0.272,0.103l1.073,0.375l-0.155,0.438l-0.934-0.327l-0.465,1.093l-0.105,0.032
			c-0.151,0.044-0.851,0.146-1.906-1.321c0.051,0.636-0.061,1.068-0.331,1.31c-0.239,0.213-0.543,0.214-0.738,0.17
			C306.084,105.375,305.887,105.439,305.668,105.439z"/>
	</g>
	<g id="path420">
		<path fill="#FFFFFF" d="M300.928,97.172c0.861,0.718,1.117,1.602,1.018,3.301c-0.101,1.698,1.735-1.299,1.27-2.935
			C303.068,97.248,300.065,96.456,300.928,97.172z"/>
	</g>
	<g id="path422">
		<path fill="#00427B" d="M385.011,112.717l1.606-0.656l-1.223-1.246c-4.194-4.278-10.582-6.732-17.521-6.732
			c-6.94,0-13.329,2.454-17.522,6.732l-1.223,1.246l1.604,0.656c8.297,3.383,12.909,8.681,13.42,15.371h-5.82
			c-0.149-0.363-0.347-0.685-0.588-0.953c0.265-0.522,0.418-1.133,0.418-1.787c0-0.838-0.245-1.639-0.696-2.255
			c-0.262-0.357-0.582-0.637-0.936-0.827c0.114-0.374,0.184-0.774,0.184-1.193c0-1.889-1.005-2.574-2.54-2.574l-1.08-0.795
			c-0.729-1.015-2.803-3.533-5.939-4.403c-1.805-0.769-4.717-1.231-8.435,0.832l-0.146,0.081l-0.116,0.119l-3.307,3.372h-10.762
			l-3.307-3.372l-0.117-0.119l-0.145-0.08c-3.746-2.077-6.673-1.596-8.486-0.81c-2.925,0.84-4.913,3.086-5.742,4.185v-1.137
			c0-2.835-2.699-4.317-5.365-4.317s-5.366,1.482-5.366,4.317v1.133c-0.835-1.113-2.843-3.386-5.794-4.203
			c-1.805-0.768-4.715-1.229-8.431,0.832l-0.147,0.081l-0.118,0.119l-3.305,3.372h-10.762l-3.308-3.372l-0.115-0.119l-0.146-0.081
			c-3.745-2.077-5.728-0.532-7.542,0.254c-3.845,1.105-7.023,3.588-7.117,3.74l-0.046,0.076c-0.779,0.588-2.358,1.008-2.358,2.238
			c0,0.383,0.344,3.329,0.344,4.91c0,0.5-1.377,0.869-1.196,1.288c-0.599,0.274-1.088,0.787-1.384,1.449h-10.841
			c-1.993,0-3.617,1.755-3.617,3.915s1.624,3.916,3.617,3.916h11.242c0.275,0.346,0.61,0.613,0.983,0.787
			c-0.182,0.419-0.287,0.891-0.287,1.393c0,1.31,0.702,2.432,1.692,2.894c-0.179,0.42-0.283,0.891-0.283,1.389
			c0,1.076,0.479,2.062,1.257,2.628c0.497,0.523,1.123,0.813,1.779,0.813h3.033c1.36,0.765,6.505,3.222,11.495,0h16.352
			c4.992,3.223,10.135,0.765,11.496,0h4.119c0.883,1.363,2.65,2.208,4.746,2.209c2.103,0,3.87-0.846,4.754-2.209h4.12
			c1.359,0.764,6.506,3.221,11.496,0h16.352c4.993,3.224,10.135,0.765,11.495,0h4.032c1.537,0,2.739-1.48,2.739-3.369
			c0-0.516-0.093-1.009-0.264-1.453c0.748-0.596,1.235-1.627,1.235-2.824c0-0.419-0.069-0.821-0.188-1.196
			c0.437-0.231,0.813-0.594,1.099-1.062h4.897c-0.185,0.485-0.317,0.766-0.32,0.771l-0.251,0.518
			c-0.001,0.001,0.251,0.518,0.251,0.518l4.18,8.522l1.02,2.08l1.021-2.08l4.179-8.522l0.255-0.519l-0.255-0.519
			c-0.004-0.009-0.391-0.818-0.772-2.139c0.553,0,1.151,0.124,1.556,0.4c0.313,0.214,0.356,0.417,0.356,0.588v0.66
			c0,0.002,0.557,0.34,0.557,0.34c0.648,0.396,0.648,0.396,8.163-3.73l1.975-1.083l-2.022-0.988l-7.041-3.437l-1.631-0.797v1.846
			c0,0.119,0,0.438-0.58,0.715c-0.695,0.334-1.558,0.322-2.087,0.185C371.577,124.042,374.051,117.188,385.011,112.717
			L385.011,112.717z"/>
	</g>
	<g id="path424">
		<path fill="#FFFFFF" d="M356.213,131.51c0.703-0.229,1.228-1.068,1.228-2.075c0-1.155-0.69-2.091-1.549-2.134
			c0.627-0.29,1.077-1.079,1.077-2.017c0-1.184-0.714-2.143-1.595-2.143h-0.887c0.609-0.297,1.048-1.081,1.048-2.008
			c0-1.183-0.709-2.143-1.584-2.143H251.598c-0.875,0-1.584,0.959-1.584,2.143s0.709,2.142,1.584,2.142h0.185
			c-0.615,0.298-1.058,1.081-1.058,2.009c0,0.937,0.449,1.724,1.072,2.015c-0.864,0.035-1.561,0.974-1.561,2.136
			c0,1.078,0.6,1.962,1.378,2.112c-0.657,0.269-1.138,1.075-1.138,2.04c0,0.929,0.444,1.712,1.063,2.008h-0.191
			c-0.88,0-1.595,0.959-1.595,2.144c0,0.963,0.477,1.769,1.129,2.038c-0.77,0.146-1.363,1.032-1.363,2.113
			c0,1.183,0.707,2.143,1.583,2.143h102.354c0.876,0,1.583-0.96,1.583-2.143c0-0.929-0.438-1.712-1.048-2.009h0.412
			c0.882,0,1.596-0.959,1.596-2.142c0-0.929-0.442-1.712-1.06-2.009h0.896c0.886,0,1.605-0.959,1.605-2.143
			c0-1.008-0.522-1.849-1.227-2.077H356.213z"/>
		<path d="M353.457,144.496H251.103c-1.131,0-2.052-1.169-2.052-2.607c0-0.919,0.368-1.729,0.941-2.191
			c-0.438-0.482-0.705-1.189-0.705-1.959c0-1.077,0.519-2.003,1.257-2.401c-0.338-0.466-0.534-1.083-0.534-1.75
			c0-0.771,0.269-1.479,0.711-1.962c-0.58-0.463-0.95-1.273-0.95-2.189c0-0.999,0.439-1.863,1.097-2.299
			c-0.384-0.476-0.608-1.133-0.608-1.852c0-0.668,0.196-1.286,0.532-1.753c-0.731-0.398-1.245-1.323-1.245-2.398
			c0-1.437,0.921-2.607,2.052-2.607h102.354c1.131,0,2.051,1.17,2.051,2.607c0,0.579-0.146,1.121-0.403,1.559
			c1.03,0.141,1.838,1.25,1.838,2.592c0,0.723-0.229,1.385-0.618,1.861c0.651,0.439,1.088,1.3,1.088,2.29
			c0,0.834-0.314,1.594-0.82,2.074c0.506,0.48,0.821,1.241,0.821,2.077c0,1.342-0.81,2.451-1.848,2.592
			c0.26,0.438,0.407,0.979,0.407,1.56c0,1.159-0.603,2.144-1.432,2.481c0.301,0.456,0.473,1.04,0.473,1.669
			C355.508,143.326,354.588,144.496,353.457,144.496z M251.349,136.06c-0.611,0-1.128,0.769-1.128,1.679
			c0,0.742,0.347,1.404,0.842,1.608l1.443,0.597l-1.536,0.29c-0.552,0.104-0.984,0.832-0.984,1.656c0,0.909,0.513,1.678,1.117,1.678
			h102.354c0.605,0,1.117-0.769,1.117-1.678c0-0.724-0.316-1.362-0.786-1.591l0.204-0.882h0.412c0.612,0,1.129-0.769,1.129-1.678
			c0-0.722-0.32-1.361-0.795-1.591l0.202-0.882h0.896c0.617,0,1.138-0.769,1.138-1.678c0-0.777-0.381-1.465-0.904-1.635l-1.358-0.44
			l1.357-0.443c0.524-0.171,0.905-0.858,0.905-1.633c0-0.891-0.497-1.639-1.104-1.67l-0.175-0.885
			c0.475-0.22,0.808-0.877,0.808-1.596c0-0.909-0.517-1.678-1.128-1.678h-0.887l-0.206-0.882c0.464-0.226,0.788-0.881,0.788-1.591
			c0-0.909-0.513-1.678-1.118-1.678H251.598c-0.606,0-1.118,0.769-1.118,1.678c0,0.91,0.512,1.678,1.118,1.678h0.185l0.204,0.882
			c-0.475,0.231-0.794,0.87-0.794,1.591c0,0.717,0.33,1.372,0.805,1.594l-0.181,0.885c-0.614,0.025-1.114,0.775-1.114,1.672
			c0,0.834,0.431,1.545,1.001,1.655l1.534,0.295l-1.446,0.592c-0.499,0.204-0.849,0.866-0.849,1.609c0,0.722,0.322,1.36,0.8,1.589
			l-0.202,0.884H251.349z"/>
	</g>
	<g id="path426">
		<path fill="#906627" d="M375.188,128.196l7.001,3.337c0,0-7.001,3.753-7.001,3.646c0-2.62-5.271-2.62-5.271-0.874v-5.237
			C369.918,130.814,375.188,130.814,375.188,128.196L375.188,128.196z"/>
		<path d="M375,135.646l-0.279-0.273v-0.194c0-1.286-1.678-1.625-2.565-1.625c-0.976,0-1.771,0.337-1.771,0.752h-0.934v-5.237h0.934
			c0,0.415,0.795,0.752,1.771,0.752c0.682,0,1.344-0.161,1.816-0.439c0.497-0.294,0.749-0.693,0.749-1.185v-0.738l8.497,4.051
			l-0.808,0.434c-6.904,3.703-7.07,3.703-7.217,3.703H375z M372.155,132.624c1.452,0,3,0.593,3.401,1.878
			c1.073-0.539,3.612-1.882,5.602-2.945l-5.609-2.675c-0.173,0.524-0.549,0.973-1.102,1.298c-0.619,0.367-1.435,0.569-2.292,0.569
			l0,0c-0.701,0-1.311-0.134-1.771-0.368v2.611C370.845,132.758,371.454,132.624,372.155,132.624z"/>
	</g>
	<g id="path428">
		<path fill="#93652F" d="M370.926,131.747c0,1.477-1.103,2.672-2.465,2.672H234.252c-1.361,0-2.463-1.195-2.463-2.672
			c0-1.476,1.102-2.673,2.463-2.673h134.206c1.361,0,2.464,1.197,2.464,2.673H370.926z"/>
		<path d="M368.461,134.885H234.252c-1.617,0-2.932-1.408-2.932-3.138c0-1.73,1.314-3.137,2.932-3.137h134.206
			c1.468,0,2.688,1.163,2.898,2.673h0.032l0.004,0.464C371.393,133.477,370.078,134.885,368.461,134.885z M234.252,129.539
			c-1.102,0-1.997,0.991-1.997,2.208c0,1.218,0.896,2.208,1.997,2.208h134.209c1.066,0,1.94-0.929,1.994-2.092v-0.116
			c0-1.217-0.896-2.208-1.997-2.208H234.252z"/>
	</g>
	<g id="path430">
		<path fill="#CCCCCC" d="M363.6,136.795l4.154,8.275l4.155-8.275c0,0-8.313-16.547,12.466-24.82
			c-8.311-8.274-24.932-8.274-33.242,0C371.909,120.248,363.6,136.795,363.6,136.795z"/>
		<path d="M367.754,145.85l-4.545-9.054l0.077-0.156c0.032-0.063,3.139-6.402,0.603-13.033c-1.851-4.836-6.186-8.641-12.885-11.309
			l-0.495-0.196l0.376-0.374c4.025-4.009,10.174-6.308,16.869-6.308c6.693,0,12.842,2.299,16.868,6.308l0.376,0.374l-0.493,0.196
			c-6.704,2.669-11.04,6.477-12.887,11.316c-2.535,6.639,0.573,12.962,0.604,13.025l0.078,0.155L367.754,145.85z M363.989,136.792
			l3.765,7.499l3.766-7.499c-0.495-1.064-3.002-7.019-0.558-13.424c1.874-4.908,6.174-8.779,12.784-11.514
			c-3.898-3.651-9.691-5.735-15.992-5.735s-12.093,2.084-15.992,5.735c6.61,2.735,10.909,6.607,12.784,11.514
			C366.992,129.773,364.483,135.728,363.989,136.792z"/>
	</g>
	<g id="path432">
		<path d="M368.461,134.885H234.252c-1.617,0-2.932-1.408-2.932-3.138c0-1.73,1.314-3.137,2.932-3.137h134.206
			c1.468,0,2.688,1.163,2.898,2.673h0.032l0.004,0.464C371.393,133.477,370.078,134.885,368.461,134.885z M234.252,129.539
			c-1.102,0-1.997,0.991-1.997,2.208c0,1.218,0.896,2.208,1.997,2.208h134.209c1.066,0,1.94-0.929,1.994-2.092v-0.116
			c0-1.217-0.896-2.208-1.997-2.208H234.252z"/>
	</g>
	<g id="path434">
		<path fill="#FFFFFF" d="M352.072,121.032c0,1.049-0.69,1.9-1.537,1.9h-99.41c-0.85,0-1.539-0.851-1.539-1.9
			c0-1.05,0.689-1.901,1.539-1.901h99.41C351.382,119.131,352.072,119.983,352.072,121.032z"/>
		<path d="M350.535,123.397h-99.41c-1.105,0-2.005-1.061-2.005-2.365s0.899-2.365,2.005-2.365h99.41
			c1.104,0,2.004,1.061,2.004,2.365S351.639,123.397,350.535,123.397z M251.125,119.597c-0.58,0-1.072,0.658-1.072,1.436
			c0,0.778,0.492,1.436,1.072,1.436h99.41c0.58,0,1.07-0.658,1.07-1.436c0-0.778-0.49-1.436-1.07-1.436H251.125z"/>
	</g>
	<g id="path436">
		<path fill="#FFFFFF" d="M350.438,125.193c0,1.049-0.691,1.9-1.549,1.9H248.804c-0.854,0-1.548-0.851-1.548-1.9
			c0-1.05,0.693-1.901,1.548-1.901h100.085c0.857,0,1.552,0.851,1.552,1.901H350.438z"/>
		<path d="M348.889,127.558H248.804c-1.111,0-2.016-1.061-2.016-2.365c0-1.305,0.904-2.366,2.016-2.366h100.085
			c0.558,0,1.076,0.259,1.459,0.729c0.361,0.442,0.558,1.023,0.558,1.637C350.904,126.498,350,127.558,348.889,127.558z
			 M248.804,123.758c-0.596,0-1.08,0.644-1.08,1.436c0,0.791,0.484,1.435,1.08,1.435h100.085c0.598,0,1.084-0.644,1.084-1.435
			c0-0.401-0.125-0.774-0.35-1.051c-0.203-0.248-0.462-0.385-0.733-0.385H248.804z"/>
	</g>
	<g id="path438">
		<path fill="#FFFFFF" d="M349.973,129.349c0,1.049-0.701,1.9-1.563,1.9H247.417c-0.864,0-1.563-0.851-1.563-1.9
			c0-1.05,0.699-1.901,1.563-1.901h100.992c0.862,0,1.562,0.852,1.562,1.901H349.973z"/>
		<path d="M348.409,131.714H247.417c-1.12,0-2.031-1.061-2.031-2.365c0-1.304,0.911-2.365,2.031-2.365h100.992
			c1.119,0,2.028,1.061,2.028,2.365c0,0.614-0.198,1.197-0.563,1.639C349.489,131.456,348.969,131.714,348.409,131.714z
			 M247.417,127.914c-0.605,0-1.097,0.644-1.097,1.435s0.491,1.436,1.097,1.436h100.992c0.604,0,1.095-0.644,1.095-1.436
			c-0.001-0.791-0.492-1.435-1.095-1.435H247.417z"/>
	</g>
	<g id="path440">
		<path fill="#FFFFFF" d="M349.738,133.504c0,1.05-0.698,1.9-1.56,1.9H247.41c-0.86,0-1.559-0.852-1.559-1.9
			c0-1.049,0.698-1.901,1.559-1.901h100.769C349.04,131.604,349.738,132.456,349.738,133.504L349.738,133.504z"/>
		<path d="M348.179,135.87H247.41c-1.117,0-2.025-1.062-2.025-2.366c0-1.304,0.908-2.365,2.025-2.365h100.769
			c1.116,0,2.025,1.061,2.025,2.365C350.204,134.808,349.295,135.87,348.179,135.87z M247.41,132.069
			c-0.602,0-1.092,0.644-1.092,1.435c0,0.792,0.49,1.436,1.092,1.436h100.769c0.603,0,1.093-0.645,1.093-1.436
			c0-0.791-0.49-1.435-1.093-1.435H247.41z"/>
	</g>
	<g id="path442">
		<path fill="#FFFFFF" d="M350.438,137.66c0,1.05-0.691,1.9-1.549,1.9H248.804c-0.854,0-1.548-0.851-1.548-1.9
			c0-1.049,0.693-1.9,1.548-1.9h100.085c0.857,0,1.552,0.851,1.552,1.9H350.438z"/>
		<path d="M348.889,140.025H248.804c-1.111,0-2.016-1.062-2.016-2.366c0-1.304,0.904-2.365,2.016-2.365h100.085
			c1.111,0,2.017,1.061,2.017,2.365C350.904,138.964,350,140.025,348.889,140.025z M248.804,136.225c-0.596,0-1.08,0.645-1.08,1.435
			c0,0.792,0.484,1.436,1.08,1.436h100.085c0.598,0,1.084-0.644,1.084-1.436c0-0.401-0.125-0.774-0.35-1.05
			c-0.203-0.249-0.462-0.385-0.734-0.385H248.804z"/>
	</g>
	<g id="path444">
		<path fill="#FFFFFF" d="M351.138,141.82c0,1.05-0.688,1.9-1.538,1.9h-99.407c-0.851,0-1.539-0.851-1.539-1.9
			s0.688-1.901,1.539-1.901H349.6C350.449,139.919,351.138,140.771,351.138,141.82z"/>
		<path d="M349.6,144.186h-99.407c-1.106,0-2.008-1.062-2.008-2.366c0-1.305,0.901-2.365,2.008-2.365H349.6
			c1.105,0,2.006,1.061,2.006,2.365C351.605,143.125,350.705,144.186,349.6,144.186z M250.192,140.384
			c-0.583,0-1.072,0.658-1.072,1.436s0.489,1.436,1.072,1.436H349.6c0.582,0,1.071-0.658,1.071-1.436s-0.489-1.436-1.071-1.436
			H250.192z"/>
	</g>
	<g id="path446">
		<path d="M283.876,115.72c7.125-4.21,11.752,3.157,11.752,3.157l-15.083,0.188L283.876,115.72L283.876,115.72z"/>
	</g>
	<g id="path448">
		<path d="M262.426,115.72c-7.168-4.21-11.824,3.156-11.824,3.156l15.176,0.188L262.426,115.72L262.426,115.72z"/>
	</g>
	<g id="path450">
		<path fill="#CCCCCC" d="M292.417,144.005l-28.743-28.615c-6.45-3.494-10.055,1.133-10.055,1.133l26.939,26.726
			C286.059,148.066,292.417,144.005,292.417,144.005z"/>
		<path d="M286.687,146.07L286.687,146.07c-2.397,0-4.563-0.832-6.437-2.472l-27.253-27.036l0.253-0.324
			c0.084-0.107,2.082-2.618,5.777-2.618c1.563,0,3.203,0.458,4.87,1.362l0.107,0.08l29.151,29.022l-0.487,0.312
			C292.562,144.465,290.011,146.07,286.687,146.07z M254.264,116.507l26.625,26.413c1.676,1.466,3.634,2.22,5.798,2.22
			c2.221,0,4.095-0.799,4.963-1.242l-28.258-28.131c-1.509-0.809-2.978-1.217-4.364-1.217
			C256.514,114.55,254.881,115.893,254.264,116.507z"/>
	</g>
	<g id="path452">
		<path d="M340.634,115.72c7.124-4.21,11.75,3.157,11.75,3.157l-15.082,0.188L340.634,115.72z"/>
	</g>
	<g id="path454">
		<path d="M319.184,115.72c-7.168-4.21-11.823,3.157-11.823,3.157l15.176,0.188L319.184,115.72z"/>
	</g>
	<g id="path456">
		<path fill="#CCCCCC" d="M349.172,144.005l-28.741-28.615c-6.45-3.494-10.055,1.133-10.055,1.133l26.938,26.726
			C342.817,148.066,349.172,144.005,349.172,144.005z"/>
		<path d="M343.442,146.07L343.442,146.07c-2.396,0-4.563-0.832-6.436-2.472l-27.251-27.036l0.252-0.324
			c0.083-0.107,2.082-2.618,5.777-2.618c1.563,0,3.2,0.458,4.869,1.362l0.108,0.08l29.149,29.022l-0.487,0.312
			C349.318,144.464,346.767,146.07,343.442,146.07z M311.024,116.508l26.62,26.412c1.678,1.466,3.635,2.22,5.798,2.22
			c2.223,0,4.098-0.799,4.964-1.242l-28.257-28.131c-1.51-0.809-2.978-1.217-4.364-1.217
			C313.285,114.55,311.644,115.894,311.024,116.508z"/>
	</g>
	<g id="path458">
		<path fill="#00427B" d="M310.569,144.005l28.742-28.615c6.449-3.494,10.055,1.133,10.055,1.133l-26.939,26.726
			C316.925,148.066,310.569,144.005,310.569,144.005z"/>
		<path d="M316.299,146.07c-3.324,0-5.874-1.605-5.981-1.674l-0.487-0.312l29.258-29.102c1.669-0.904,3.307-1.362,4.87-1.362
			c3.695,0,5.693,2.511,5.777,2.618l0.253,0.324l-27.231,27.015C320.862,145.238,318.697,146.07,316.299,146.07z M311.338,143.898
			c0.869,0.442,2.747,1.242,4.961,1.242c2.164,0,4.121-0.754,5.819-2.24l26.603-26.392c-0.621-0.614-2.265-1.958-4.763-1.958
			c-1.388,0-2.856,0.408-4.364,1.217L311.338,143.898z"/>
	</g>
	<g id="path460">
		<path fill="#CCCCCC" d="M297.29,143.117V116.57c0-4.084,8.404-4.084,8.404,0v26.547
			C305.694,147.201,297.29,147.201,297.29,143.117z"/>
		<path d="M301.492,146.645c-2.247,0-4.669-1.104-4.669-3.527V116.57c0-2.424,2.422-3.528,4.669-3.528
			c2.248,0,4.67,1.104,4.67,3.528v26.547C306.162,145.541,303.74,146.645,301.492,146.645z M301.492,113.972
			c-1.799,0-3.733,0.813-3.733,2.599v26.547c0,1.785,1.935,2.598,3.733,2.598s3.735-0.813,3.735-2.598V116.57
			C305.228,114.785,303.291,113.972,301.492,113.972z"/>
	</g>
	<g id="path462">
		<path d="M319.991,141.151l0.684-0.3c0.267,0.419,0.393,0.796,0.372,1.133c-0.02,0.337-0.161,0.635-0.422,0.896
			c-0.327,0.326-0.721,0.466-1.178,0.417c-0.525-0.057-1.038-0.331-1.532-0.825c-0.522-0.521-0.815-1.047-0.876-1.577
			c-0.051-0.461,0.098-0.864,0.443-1.209c0.281-0.281,0.615-0.42,0.998-0.417c0.273,0.001,0.575,0.105,0.91,0.311l-0.355,0.647
			c-0.2-0.134-0.393-0.197-0.577-0.191c-0.183,0.008-0.341,0.076-0.472,0.204c-0.185,0.185-0.256,0.417-0.211,0.695
			c0.046,0.277,0.253,0.602,0.626,0.972c0.386,0.385,0.716,0.602,0.995,0.649c0.277,0.049,0.508-0.018,0.691-0.2
			c0.133-0.134,0.197-0.301,0.19-0.502C320.271,141.654,320.175,141.42,319.991,141.151L319.991,141.151z"/>
	</g>
	<g id="path464">
		<path d="M320.426,139.952c-0.365-0.365-0.615-0.718-0.743-1.062c-0.126-0.343-0.161-0.659-0.104-0.949
			c0.06-0.289,0.213-0.556,0.46-0.804c0.361-0.358,0.792-0.515,1.294-0.466c0.503,0.047,1.009,0.324,1.516,0.831
			c0.515,0.512,0.796,1.031,0.846,1.557c0.044,0.465-0.114,0.877-0.477,1.237c-0.365,0.363-0.779,0.524-1.244,0.482
			C321.445,140.728,320.93,140.454,320.426,139.952L320.426,139.952z M320.93,139.407c0.353,0.351,0.685,0.547,0.994,0.59
			c0.312,0.043,0.564-0.034,0.765-0.231c0.199-0.2,0.276-0.45,0.231-0.755c-0.044-0.304-0.246-0.636-0.609-0.998
			c-0.355-0.354-0.683-0.552-0.98-0.594c-0.3-0.042-0.549,0.039-0.756,0.245c-0.206,0.205-0.289,0.458-0.246,0.758
			C320.368,138.72,320.572,139.049,320.93,139.407L320.93,139.407z"/>
	</g>
	<g id="path466">
		<path d="M324.796,138.627l-3.073-3.059l0.497-0.494l3.081,1.018l-2.051-2.043l0.473-0.472l3.072,3.058l-0.513,0.51l-3.015-0.986
			l2.002,1.994L324.796,138.627L324.796,138.627z"/>
	</g>
	<g id="path468">
		<path d="M326.202,135.233l0.438-0.554c0.447,0.334,0.825,0.348,1.135,0.04c0.151-0.152,0.234-0.312,0.24-0.479
			c0.009-0.167-0.047-0.31-0.166-0.428c-0.068-0.068-0.144-0.113-0.223-0.131c-0.079-0.017-0.166-0.01-0.261,0.02
			c-0.095,0.032-0.3,0.13-0.614,0.298c-0.282,0.15-0.514,0.237-0.688,0.26c-0.179,0.024-0.359,0.003-0.544-0.062
			c-0.184-0.064-0.348-0.169-0.492-0.312c-0.166-0.167-0.28-0.354-0.336-0.563c-0.06-0.21-0.056-0.416,0.01-0.617
			c0.067-0.202,0.198-0.401,0.395-0.597c0.298-0.295,0.61-0.446,0.935-0.453c0.327-0.006,0.646,0.135,0.953,0.422l-0.479,0.533
			c-0.187-0.141-0.35-0.207-0.489-0.199c-0.141,0.008-0.279,0.081-0.417,0.218c-0.138,0.136-0.214,0.27-0.23,0.4
			c-0.019,0.129,0.016,0.238,0.101,0.321c0.084,0.083,0.186,0.12,0.311,0.11c0.125-0.01,0.342-0.101,0.652-0.272
			c0.329-0.18,0.593-0.286,0.788-0.318c0.193-0.032,0.387-0.013,0.575,0.055c0.19,0.069,0.377,0.195,0.562,0.379
			c0.266,0.266,0.408,0.57,0.427,0.915c0.015,0.344-0.148,0.689-0.499,1.037C327.665,135.87,326.971,135.862,326.202,135.233
			L326.202,135.233z"/>
	</g>
	<g id="path470">
		<path d="M330.242,133.202l-2.554-2.54l-0.749,0.745l-0.521-0.519l2.002-1.993l0.521,0.519l-0.746,0.743l2.551,2.54
			L330.242,133.202L330.242,133.202z"/>
	</g>
	<g id="path472">
		<path d="M331.81,131.64l-3.074-3.059l0.511-0.505l3.07,3.059L331.81,131.64z"/>
	</g>
	<g id="path474">
		<path d="M333.368,130.088l-2.552-2.54l-0.749,0.745l-0.521-0.519l2.002-1.993l0.521,0.519l-0.747,0.743l2.553,2.54
			L333.368,130.088L333.368,130.088z"/>
	</g>
	<g id="path476">
		<path d="M331.879,125.453l0.508-0.506l1.663,1.656c0.259,0.257,0.434,0.417,0.522,0.484c0.16,0.112,0.318,0.164,0.477,0.152
			c0.157-0.01,0.305-0.084,0.444-0.222c0.118-0.117,0.187-0.238,0.207-0.364c0.023-0.125,0-0.249-0.064-0.368
			c-0.066-0.12-0.252-0.332-0.557-0.636l-1.699-1.691l0.507-0.505l1.614,1.606c0.412,0.41,0.688,0.728,0.827,0.956
			c0.139,0.226,0.188,0.474,0.148,0.741c-0.04,0.266-0.188,0.526-0.439,0.777c-0.263,0.262-0.517,0.419-0.758,0.472
			s-0.48,0.028-0.717-0.077c-0.237-0.105-0.587-0.386-1.046-0.842L331.879,125.453L331.879,125.453z"/>
	</g>
	<g id="path478">
		<path d="M338.062,125.417l-2.552-2.54l-0.75,0.745l-0.519-0.518l2.001-1.994l0.52,0.519l-0.745,0.743l2.55,2.54L338.062,125.417
			L338.062,125.417z"/>
	</g>
	<g id="path480">
		<path d="M339.63,123.858l-3.072-3.058l0.509-0.506l3.07,3.058L339.63,123.858z"/>
	</g>
	<g id="path482">
		<path d="M339.003,121.46c-0.365-0.364-0.612-0.718-0.742-1.062c-0.128-0.343-0.163-0.659-0.104-0.948
			c0.06-0.29,0.213-0.558,0.461-0.805c0.36-0.359,0.789-0.514,1.293-0.466c0.504,0.048,1.008,0.325,1.516,0.831
			c0.515,0.512,0.795,1.031,0.843,1.558c0.046,0.464-0.112,0.876-0.473,1.237c-0.365,0.363-0.779,0.523-1.243,0.481
			C340.023,122.237,339.507,121.962,339.003,121.46L339.003,121.46z M339.51,120.916c0.352,0.351,0.683,0.548,0.993,0.591
			c0.312,0.042,0.564-0.035,0.763-0.232c0.2-0.199,0.278-0.449,0.234-0.754c-0.048-0.305-0.247-0.638-0.612-0.999
			c-0.356-0.354-0.683-0.551-0.981-0.593c-0.298-0.043-0.549,0.039-0.755,0.244c-0.205,0.206-0.289,0.458-0.246,0.758
			C338.948,120.229,339.149,120.558,339.51,120.916L339.51,120.916z"/>
	</g>
	<g id="path484">
		<path d="M343.37,120.131l-3.073-3.059l0.496-0.494l3.08,1.018l-2.052-2.042l0.475-0.474l3.073,3.06l-0.513,0.51l-3.016-0.986
			l2.004,1.994L343.37,120.131L343.37,120.131z"/>
	</g>
	<g id="path486">
		<path fill="#D72E39" d="M253.813,144.005l28.741-28.615c6.451-3.494,10.056,1.133,10.056,1.133l-26.938,26.726
			C260.169,148.066,253.813,144.005,253.813,144.005z"/>
		<path d="M259.541,146.07c-3.323,0-5.874-1.605-5.98-1.674l-0.488-0.312l29.26-29.102c1.668-0.904,3.307-1.362,4.869-1.362
			c3.696,0,5.694,2.511,5.777,2.618l0.253,0.324L266,143.578C264.105,145.238,261.939,146.07,259.541,146.07z M254.58,143.898
			c0.869,0.442,2.749,1.242,4.961,1.242c2.164,0,4.124-0.754,5.821-2.24l26.6-26.392c-0.619-0.614-2.261-1.958-4.761-1.958
			c-1.389,0-2.854,0.408-4.365,1.217L254.58,143.898z"/>
	</g>
	<g id="path488">
		<path d="M267.025,133.774l0.509-0.506l1.662,1.656c0.258,0.257,0.434,0.418,0.523,0.484c0.158,0.112,0.316,0.164,0.476,0.153
			c0.158-0.01,0.306-0.084,0.444-0.223c0.117-0.116,0.187-0.238,0.209-0.364c0.021-0.125,0-0.249-0.066-0.368
			c-0.065-0.12-0.252-0.332-0.557-0.636l-1.698-1.69l0.508-0.506l1.613,1.605c0.412,0.41,0.687,0.728,0.828,0.956
			c0.139,0.227,0.188,0.473,0.147,0.741c-0.042,0.267-0.187,0.526-0.439,0.777c-0.264,0.263-0.517,0.418-0.758,0.472
			c-0.24,0.053-0.48,0.027-0.718-0.077c-0.238-0.105-0.587-0.386-1.045-0.843L267.025,133.774L267.025,133.774z"/>
	</g>
	<g id="path490">
		<path d="M272.712,134.23l-3.072-3.059l0.497-0.494l3.082,1.018l-2.055-2.043l0.476-0.473l3.073,3.059l-0.514,0.509l-3.015-0.987
			l2.003,1.995L272.712,134.23z"/>
	</g>
	<g id="path492">
		<path d="M275.294,131.663l-3.071-3.058l0.508-0.506l3.071,3.059L275.294,131.663z"/>
	</g>
	<g id="path494">
		<path d="M274.734,129.2c-0.365-0.364-0.613-0.718-0.742-1.062c-0.127-0.343-0.163-0.658-0.104-0.949
			c0.059-0.289,0.213-0.557,0.461-0.805c0.36-0.358,0.791-0.513,1.292-0.465c0.503,0.048,1.01,0.324,1.517,0.83
			c0.515,0.512,0.795,1.031,0.845,1.558c0.046,0.465-0.115,0.876-0.475,1.237c-0.364,0.362-0.78,0.523-1.243,0.482
			C275.755,129.977,275.237,129.702,274.734,129.2z M275.238,128.655c0.354,0.351,0.686,0.548,0.996,0.59
			c0.311,0.043,0.564-0.034,0.763-0.232c0.197-0.198,0.277-0.45,0.232-0.753c-0.045-0.306-0.248-0.638-0.611-0.999
			c-0.355-0.354-0.682-0.552-0.98-0.595c-0.296-0.042-0.548,0.04-0.755,0.245c-0.206,0.206-0.289,0.458-0.247,0.757
			C274.678,127.968,274.879,128.297,275.238,128.655L275.238,128.655z"/>
	</g>
	<g id="path496">
		<path d="M279.165,127.81l-3.071-3.059l0.495-0.492l3.08,1.017l-2.052-2.042l0.477-0.474l3.071,3.059l-0.513,0.51l-3.017-0.987
			l2.006,1.995L279.165,127.81L279.165,127.81z"/>
	</g>
	<g id="path498">
		<path d="M303.557,132.51v0.775l-0.982,0.308v1.422l0.982,0.293v0.761l-4.346-1.375v-0.763L303.557,132.51L303.557,132.51z
			 M301.837,133.825l-1.612,0.492l1.612,0.479V133.825L301.837,133.825z"/>
	</g>
	<g id="path500">
		<path d="M303.557,132.031h-4.346v-0.697l2.902-1.449h-2.902v-0.668h4.346v0.721l-2.834,1.425h2.834V132.031z"/>
	</g>
	<g id="path502">
		<path d="M299.208,128.377v-1.306c0-0.33,0.039-0.579,0.112-0.747c0.073-0.167,0.198-0.322,0.375-0.464
			c0.176-0.142,0.402-0.252,0.684-0.333c0.282-0.082,0.632-0.121,1.048-0.121c0.376,0,0.701,0.042,0.978,0.127
			c0.278,0.083,0.498,0.19,0.66,0.32c0.164,0.129,0.283,0.286,0.365,0.47c0.083,0.184,0.125,0.419,0.125,0.708v1.344
			L299.208,128.377L299.208,128.377z M299.945,127.662h2.871v-0.535c0-0.229-0.021-0.396-0.065-0.498
			c-0.044-0.103-0.108-0.186-0.198-0.253c-0.088-0.065-0.224-0.12-0.416-0.163c-0.188-0.043-0.438-0.065-0.747-0.065
			c-0.32,0-0.573,0.022-0.761,0.066c-0.186,0.044-0.331,0.113-0.438,0.207c-0.107,0.092-0.177,0.206-0.211,0.338
			c-0.026,0.1-0.037,0.293-0.037,0.579v0.323L299.945,127.662L299.945,127.662z"/>
	</g>
</g>
</svg>
