<svg version="1.1" id="Layer_1" xmlns="http://www.w3.org/2000/svg" xmlns:xlink="http://www.w3.org/1999/xlink" x="0" y="0" viewBox="0 0 600 300" xml:space="preserve"><style>.st0{fill:#cf142b}.st3{fill:#fff}</style><path class="st0" d="M0 0h600v300H0z"/><path fill="#00247d" d="M0 0h288.7v160.4H0z"/><defs><path id="SVGID_1_" d="M0 0h288.7v160.4H0z"/></defs><clipPath id="SVGID_2_"><use xlink:href="#SVGID_1_" overflow="visible"/></clipPath><g clip-path="url(#SVGID_2_)"><path d="M0 0l288.7 160.4m0-160.4L0 160.4"/><path class="st3" d="M282.6 171.3L144.3 94.5 6.1 171.3l-12.2-21.9 124.7-69.2L-6.1 10.9 6.1-10.9l138.2 76.8 138.3-76.8 12.2 21.8-124.7 69.3 124.7 69.2z"/></g><path class="st3" d="M169.4 160.4h-50v-55.2H0v-50h119.4V0h50v55.2h119.3v50H169.4z"/><path class="st0" d="M159.4 160.7h-30V95.2H0v-30h129.4V0h30v65.2h129.9v30H159.4z"/></svg>