<svg xmlns="http://www.w3.org/2000/svg" width="300" height="300" viewBox="0 0 300 300"><path d="M238.93 204.76c0-.74-.16-1.44-1.07-1.55s-1.12.49-1.39 1c-.74 1.44-1 3.1-2.72 4.91 0-3.26-.11-5.82 0-8.33s-.75-5 1.71-6.83a.88.88 0 000-1.39 1.23 1.23 0 00-1.44-.32c-1.18.59-2.46 1.07-3.58 1.71a4 4 0 01-3.79.48c1.76-3.26 3.68-6.41 3.9-10.14 0-.81.37-1.93-.8-2.25-.91-.26-1.39.59-1.82 1.23-1.17 1.76-2.35 3.47-3.52 5.23-.11-2.67-2.46-5.34-1.39-7.1.38-1.46 1.33-2.69 1.49-4.27.2-2-.26-4-.31-6a.48.48 0 01.06-.24 2.73 2.73 0 010-.41 3.87 3.87 0 00-1.07-2.61c-2.3-2.3-2.13-4.66-1.31-7v-.47a9.36 9.36 0 00-1.06-3.71 29.72 29.72 0 00-2.79-5.12 3.32 3.32 0 01-1.39-3.53c.48-4.38-2.14-7.53-5.34-10-1.26-1-2-1.85-1.88-3.08a4.44 4.44 0 01-.34-1.37l-.09-.22a1.22 1.22 0 01-.2-.34 16.4 16.4 0 00-7.85-9l-.08-.06a8.23 8.23 0 01-3.56-3.3c-.93-1.51-1.68-3.12-2.68-4.59l-.09-.12c-.77-1-1.56-2-2.39-2.89a20.27 20.27 0 00-8.34-3.67 11.07 11.07 0 01-2.95-.83 5.1 5.1 0 01-2.26-1.44 2.57 2.57 0 01-.7-.55c-5.4-4.33-11.64-6.68-18.16-8.49a2.76 2.76 0 00-2.06-1.1 9.05 9.05 0 01-3.36-.85 2.73 2.73 0 00-1.6 0 1.89 1.89 0 00-1.23 1.6.91.91 0 00.37.69 33.36 33.36 0 005.61 1.5c8 1.92 15.59 4.7 21.57 10.68a3.11 3.11 0 001 .69 28 28 0 002.77.91c5.45 2 9.83 5 11.16 11a2.39 2.39 0 00.86 1.28c4.16 2.24 8 4.86 9.87 9.5.54 1.12.11 2.3.22 3.47 0 .11.1.27.16.38a8.19 8.19 0 00.58.64 19.14 19.14 0 015.08 5.07c.9 1.49 1.92 3 1.06 4.75-.9 1.87-2.83 1.12-4.32 1.28-1 .06-2 0-2.94 0-22.9 0-45.86-.05-68.81 0-16.77 0-33.48.16-50.19 0-3.52-.05-7 0-10.52 0-2.56.11-5.07.06-7.63.06a5 5 0 00-1.34 0c-1.54-.22-3.63.9-4.59-1s.27-3.58 1.18-5.23a15.38 15.38 0 012.04-2.42c1.07-1.22 2.61-1.92 3.52-3.25a4.41 4.41 0 00.32-1.12 9.77 9.77 0 012.3-6.09c2.08-2.83 5-4.48 8-6a2.39 2.39 0 00.86-1.28c1.39-6.46 6-9.51 11.85-11.38a20.56 20.56 0 002.62-.69 2.93 2.93 0 00.58-.53 11.94 11.94 0 012.46-2.41c7-5.5 15.21-8.06 23.81-9.71 1.28-.43 2.56-.22 3.84-.48a12.92 12.92 0 012.89-.27c5.92-.16 11.85 0 17.78.11.69-.22.8-.75.8-1.39a2.14 2.14 0 00-1.18-1.6.74.74 0 00-.75 0c-.74 1.07-1.81.48-2.66.43a91.21 91.21 0 00-13.83.05c-12.9 1.16-25.1 4.27-35.14 13.7a.5.5 0 01-.46.44 17.52 17.52 0 00-10.71 4.68 14.75 14.75 0 00-3.47 5.07c-.48 1.28-.57 2.48-1.67 3.39-1.26 1-3 1.61-4.43 2.48a13.89 13.89 0 00-4.5 4.16c-1.11 1.77-1 3.23-1.15 5.17a4.32 4.32 0 01-1 2.84.51.51 0 01-.21.14c-1.06 1.23-2.6 2.17-3.66 3.37s-2.18 2.69-2.23 4.35c0 1.36.82 2.62.75 4-.1 2-2 3.43-3.07 4.92-2.11 2.9-3.13 6.26-.69 9.23a.5.5 0 01.19.46.46.46 0 01-.08.25c-1 2.15-2.43 4.1-3 6.49a6.2 6.2 0 00.81 4.82 5.23 5.23 0 01.89 1.82c.15 1.38-1.12 2.6-1.88 3.6-1.59 2.08-3.1 4-3.8 6.55a8.1 8.1 0 003 7.28c-1.66.69-2.57-.06-3.42-1.29-2.19-3.2-4.43-6.4-6.67-9.61-.54-.74-1-2-2.19-1.49s-.75 1.6-.64 2.56c.48 3.58 2.18 6.68 4 9.83a4 4 0 01-3.63-.43 9.58 9.58 0 00-2.35-1.23c-1-.37-2-1.44-2.88-.32s.42 1.87 1.12 2.62 1.6 1.7 2.45 2.45A2.68 2.68 0 0139.2 200c-.1 1.87 0 3.74-.05 5.6 0 .48.43 1.55-.64 1.29-1.66-.38-1.87 1.33-3 1.81a18.44 18.44 0 00-1.13-2.46c-.64-1.06-.58-3.2-2.24-2.83-1.87.43-1.07 2.62-.75 3.69a40.59 40.59 0 011.07 15.43 14 14 0 00.38 2.88c.16 1.55 1 2.56 2.61 2.35s2.24-1.44 2-3.1a7 7 0 010-3.52c1.28 1.39 2.4 2.67 3.57 3.84.7.7 1.61 1.5 2.57 1.07 2.24-1 1.81.54 1.81 1.71 0 5.5.06 11.05-.05 16.55 0 1.76.53 2.3 2.29 2.24 4.81-.1 9.61 0 14.42 0a2.56 2.56 0 002.51-1.39A17.13 17.13 0 0068 233.22a105.25 105.25 0 010-10.95c0-.64-.43-1.44.42-1.92 3 2.3 5.88 4.59 8.87 6.84 2.66 2 4 1.28 4.64-2a11.44 11.44 0 00-.53-1.39 24.78 24.78 0 00-3.79-3.31 278.56 278.56 0 01-7.53-6.3c-.75-.64-2.19-1.66-.32-2.62l.22-.09a2 2 0 01.1-.39c.42-1.17 1.55-.37 2.29-.58 3.53-.81 5.56.8 6.94 4 1.29 2.83 3.1 5.44 4.17 8.32 0 .43-.06.81-.06 1.23-1.13-.92-2.26-1.86-3.39-2.79.3.61.6 1.22.89 1.83.64.59.69 1.6 1.44 2.14.69 1.76 1.44 3.84 3.89 2.88 2.62-1 1.77-3.1 1-5a14.55 14.55 0 00-.7-1.71c-1.7-3.47-3.41-6.94-5.17-10.41 4.59-.54 4.53-.54 5.44 3.68.7 3.31 1.55 6.57 2.35 9.82.37 1.44 1.71 3 2.67 2.19 2.08-1.81 4.27-.1 6.19-.85.8-.32 1.07-.11 1.44.53a2.32 2.32 0 002.94 1.18 2.88 2.88 0 001.92-2.62c.7-3.9 1.39-7.85 2.25-11.75.21-.8-.22-2.34 1.12-2.29s.8 1.49.85 2.35c.27 3.68.43 7.42.64 11.16.11 1.87.91 3.09 2.94 2.93s2.4-1.49 2.29-3.25c-.26-3.9-.42-7.8-.74-11.7-.11-1.44.37-1.65 1.6-1.65s1.65.16 1.49 1.6a52.56 52.56 0 00-.42 12c.16 1.76.9 3 2.77 2.88s2.46-1.49 2.35-3.25a50.53 50.53 0 01.32-9.83c.48-3.68.43-3.68 4.22-3-.48 4-1 8-1.44 11.91-.22 2.13 1 3.52 2.77 3.25s2.25-1.55 2.41-3c.42-3.52 1-7 1.22-10.57.16-2.56 2-1.6 3.26-1.82 1.71-.32 1.55.8 1.55 1.92 0 3.58.05 7.11.05 10.68 0 1.92.54 3.42 2.78 3.37s2.51-1.66 2.51-3.42c-.06-2.83-.11-5.71-.11-8.54-.05-4.33 0-4.33 4.59-3.85-1.07 3.74-2.08 7.53-3.15 11.27-.53 1.87-1 3.73 1.39 4.43s3-1 3.58-2.88c1-3.85 2.24-7.64 3.15-11.54.42-1.92 1.71-1.28 2.83-1.44 1.49-.21 1.39.8 1.49 1.82.32 2.88.7 5.82 1.07 8.7.27 2.3.43 4.86 3.9 4.32.58-.05.69.43 1 .81a2.34 2.34 0 002.72 1.12 2.8 2.8 0 002.08-2.51c.32-2 .75-4 1.18-6a7.65 7.65 0 01.42 3c0 4 .06 4.06 4.17 4.32.27 0 .53.27.85.43 2.3 1.12 3.53.64 4.38-1.87 1-2.94 1.87-5.87 2.78-8.86 1.71-5.66 1.71-5.61 7.58-5.39 1.65.1 1.81.48 1 1.86a87.77 87.77 0 00-5.34 11c-.64 1.66-1.12 3.31.91 4.38s2.94-.27 3.85-1.71c.64-.75.69-1.76 1.38-2.51a13.48 13.48 0 001.23-2c-.16 1.13-1 1.71-1.44 2.51a2.19 2.19 0 00-.27 2.57c1.28 1.92 2.78 1.81 4.49.48 3.79-3 7.63-5.93 11.32-8.81 1.12 6.51 1.12 13 1.17 19.43 0 3.26 2.62 5.5 4.06 8.22.37.64 1.12.38 1.71.38 4.91.05 9.77-.06 14.68.05 1.65 0 2.19-.53 2.13-2.14-.1-4.37.32-8.75-.16-13.08-.53-4.53 1.61-7.15 5.08-9.5v1.6c-.11 1.87-.75 4.17 2 4.33s2.51-2.25 2.73-4.06v-.27c-.32-5.82-.22-11.58 1.38-17.24a5.48 5.48 0 000-1.52zM69.31 151.64c-3.57-.21-5.07 1.92-6.4 4.49s-1.34 5.07.74 7.36a3.42 3.42 0 01-.88.58c2.58-.15 5.19.15 7.77.12a.85.85 0 01.64.59c-1.23 1.86-3.15 1-4.75 1.06-3.79.27-5.34 1.44-6.14 4.91a5 5 0 00.32 3.31c.38.86 1.12 1.71 0 2.62h-.15c3.57-.07 7.1-.07 10.67 0a2.16 2.16 0 011.66.7c-3.47 1-7 .16-10.57.85-.7.16-1.34 0-1.93.64-2.66 2.94-3.2 10.25-.9 13.46.16.32.37.64.53 1-5.82.22-8-2.45-6.67-8.27a18.17 18.17 0 014-7.69 2.74 2.74 0 011-.6 3.92 3.92 0 01-1.15-.36c-2.56-1.82-3.15-3.47-2-6.25a14 14 0 014.22-5.6 13.41 13.41 0 011.84-.39 3.88 3.88 0 01-1.36-.58c-2.56-1.76-3.1-3.25-2.13-6 1.65-4.7 4.69-6.83 9.66-6.83 4.59 0 9.23.05 13.83.1a.44.44 0 010 .27c-3.89.19-7.9.73-11.85.51zm27.07 71.17c-1.55-4.06-2-7.74-2.83-11.32-.21-1 .43-1 1.07-1h4.75c-.96 4.04-1.92 7.83-2.99 12.32zm68.55-10.63c-.32 1.93-.69 3.85-1.07 5.72-.16.42-.26.9-.9.58-.22-2.13-.48-4.21-.7-6.35 0-.53-.64-1.33.32-1.55a4 4 0 012.09 0c.8.27.33 1.07.26 1.6zm10.2 7.37h-.53c0-2.67-.06-5.28.05-8 0-1.28.11-1.28 3.15-.86-.91 2.99-1.8 5.93-2.67 8.86zm22.87-1.07c-1-1-.85-2.24-1.12-3.36-.91-3.79-.22-4.64 3.58-4.64h5.71a2.48 2.48 0 00.27.69z"/><ellipse cx="20.78" cy="73.88" rx="3.2" ry="3.04" transform="rotate(-52.98 20.771 73.877)" fill="#fff" stroke="#000" stroke-miterlimit="10" stroke-width=".05"/><path d="M17.88 74.27c-.52.14-.65.89-.35 1.71a2.74 2.74 0 00.21.42c.87 2.19 5.91 5.66 3.18 3.46-1.53-1.27-1.78-2.17-1.71-2.71.37-.24.44-.91.18-1.63s-1-1.38-1.51-1.25zM23.11 71.9c-.49.21-.48 1 0 1.9a2.3 2.3 0 00.74.87 1.05 1.05 0 00.6.23c.49.32 1.1 1.13 1.07 3.16-.05 3.25.5-2-.53-4.31a2.91 2.91 0 00-.27-.8c-.45-.8-1.18-1.27-1.61-1.05z"/><path d="M18.56 74.72c-.19 0-.21.38-.09.66s.35.54.54.51.21-.38.09-.66-.35-.54-.54-.51M23 72.68c.14-.06.42.11.58.41s.2.65.06.71-.42-.11-.58-.41-.22-.61-.06-.71" fill="#fff"/><path d="M16 69.46s-5.29-1.16-5.41-.29 1.76 3.6 5.4 2.59" fill="#fff" stroke="#000" stroke-miterlimit="10" stroke-width=".27"/><path d="M18 73.74s-10.36 2-10.87-.9 4.85-3.57 10.55-.73" fill="#fff"/><path d="M21.42 67.53s2.66-4.68 3.44-4.19 1.46 3.76-1.71 5.76" fill="#fff" stroke="#000" stroke-miterlimit="10" stroke-width=".27"/><path d="M23.22 71.89s8.42-6.37 6.59-8.67-5.92 1.22-7.65 7.32" fill="#fff"/><path d="M23 69.54s-2.9-1.93-6.53 2.31c0 0-3.3-5.49-.7-10 0 0 5.62.62 7.23 7.72" fill="#fff" stroke="#000" stroke-miterlimit="10" stroke-width=".05"/><path d="M18 62.6l-.66-.32s-1-.3-2.3 1.14c0 0-.24 1-.23 1.07A3.76 3.76 0 0118 62.6zM19.89 63.89c-.64-.11-2.88-.25-5.12 2.4l.12 1.2s2.57-3 5.67-2.92M21.44 65.74a7.15 7.15 0 00-6.1 3.58l.33.89s2.44-4.49 6.58-2.92z" stroke="#000" stroke-miterlimit="10" stroke-width=".05"/><path d="M13.93 58.32s1.77 3.31 1.54 4l.86-.4c-.17 0-.74-.52-2.38-3.61"/><ellipse cx="19.61" cy="70.97" rx="3.84" ry="3.68" transform="rotate(-52.98 19.604 70.965)" fill="#fff" stroke="#000" stroke-miterlimit="10" stroke-width=".05"/><path d="M22.16 70.54c1.73-6.1 5.86-9.6 7.65-7.32s-6.59 8.67-6.59 8.67a1.48 1.48 0 01-.9.39M18 73.74s-10.36 2-10.87-.9 4.85-3.57 10.55-.73" fill="none" stroke="#000" stroke-miterlimit="10" stroke-width=".27"/><path d="M87.6 150.06H76.92a33.12 33.12 0 00-8 0h-1.13c-1.18-.64-1.07-1.71-.86-2.77.64-3.47 2.73-6.14 5-8.65a3 3 0 012.46-.91c4.54.21 9-.69 13.56-.59.85 0 1.65.06 2.51 0 .69 0 1.33-.16 2-.16a6.54 6.54 0 003.63-.26 16.15 16.15 0 012.77-.16h93.75c1.5 0 3.05-.06 4.54.05a3.71 3.71 0 011 .21 11.7 11.7 0 015.82 6.62c1 2.57.37 3.47-2.25 3.74a7.53 7.53 0 01-1.06 0c-9.08-.26-18.1.32-27.18.64-17.56.59-35.13 1.23-52.69 1.66-10.09.21-20.18.43-30.33.37a9 9 0 00-2.93.16" fill="#fff"/><path d="M251.26 217.47c-.27.43-.59 1-1 1.6-1.28 2-2.94 3.68-3.21 6.25-.1 1.28-1.38 1.87-2.67 1.6a2.36 2.36 0 01-1.92-2.78c.32-2.61 4.7-7.52 7.16-8.11 1-.16 1.65.27 1.65 1.44M31.89 224.2c0 1.49-.54 2.45-1.87 2.72-1.17.21-2.4-.21-2.56-1.34-.38-2.93-2.25-4.91-3.79-7.15-.43-.64-1-1.28-.22-2.08s1.34-.27 1.93.05a13 13 0 016.51 7.8"/><path d="M189.7 226c.38-.91.7-1.76 1.07-2.67.43-.05.7 0 .48.54a3.92 3.92 0 00-.64 2.67 7.24 7.24 0 00-.91-.54" fill="#fdfefd"/><path d="M234.39 197.13c0 3.2 0 6.41.11 9.61.05 1.55-.38 2.4-2.08 2.19a10 10 0 00-1.34 0H46.2c-2.67 0-3.69-.59-3.42-3.36s.11-5.66.16-8.54c1-.65 2.08-.43 3.1-.43h185.25c1.07 0 2.14-.22 3.1.48" fill="#fff" stroke="#000" stroke-linecap="round" stroke-linejoin="round" stroke-width=".67"/><path d="M132.42 183.89a13.42 13.42 0 00-1.55 6.89 4.51 4.51 0 01-2.46 1 17.61 17.61 0 01-3.68.37c-15.59-.27-31.18.75-46.82.53-6.09 0-12.23.43-18.37.16-2.19-.74-2.4-2.72-2.51-4.53a15.39 15.39 0 012-8.39c1.28-2.45 3.74-2.4 6-2.61 2.62-.27 5.28.32 7.9-.43 2.67-.27 5.34-.11 8.06-.16h124.14a15.66 15.66 0 014.49.27c3.2 2.77 4.11 6.51 4.27 10.46.05 2-1.55 2.94-4.27 3-7 .11-14-.16-21 .22-9.66.48-19.32.32-29 .53-3.09 0-6.19.59-9.29.48-3.41-.11-3.47-.11-3.84-3.52 0-1.5-.8-2.78-1.28-4.17a2.64 2.64 0 012.4-.91 315.06 315.06 0 0035.56-1.38 714.87 714.87 0 00-90.23 0 261.88 261.88 0 0027.41 1.3q4.41-.07 8.81 0c1.18.05 2.4-.11 3.26.91M208.66 158.05c-.7-2.94-1.55-5.87-4.65-7.32H103.59c-3.9 0-7.8 0-11.69.11-1.28.42-2.62.1-3.9.1h-6.78c-3.9 0-7.74.16-11.64.27-4.59.11-7.31 2.35-8.11 6.83-.38 2.3 0 4.38 2.13 5.82a3.87 3.87 0 001.39.32c3 .11 5.93 0 8.92.06 4.43-.11 8.8.21 13.18-.16a10.68 10.68 0 013.69-.38c6.56-.05 13.08-.05 19.64-.26 9.56-.32 19.12-1 28.67-.75 5.18.11 10.31-.53 15.43-.59 1 0 14.1.28 17-.78a7.17 7.17 0 002.62.3c10.2.06 20.39-.69 30.59-.75a6.92 6.92 0 002.35-.37c1.2-.42 1.92-1.22 1.58-2.45zm-55.31-2.67c-16.71.85-33.37 0-50-.64-.21 0-.26.11-.16.21.22.27-.37 0 0-.21a153.18 153.18 0 0115.75-1.12c11.53-.11 23.12 0 34.65-.06 6-.32 11.9.64 17.88 1-3.47.06-6.88.7-10.36.86a2.1 2.1 0 00-.66.31c-2.87-.2-6.59-.28-7.1-.35z" fill="#fff"/><path d="M213.14 231.08c0-3.73.06-7.47 0-11.15-.05-1.77.37-2.57 2.35-2.51 3.63.16 7.26.1 10.89 0 1.55-.06 2.24.37 2.19 2.08q-.09 11.44 0 22.9c0 1.76-.7 2.3-2.4 2.3-3.64-.06-7.27-.11-10.9 0-1.65.05-2.18-.54-2.13-2.14.11-3.84 0-7.69 0-11.48" fill="#fff" stroke="#000" stroke-linecap="round" stroke-linejoin="round" stroke-width=".67"/><path d="M126.71 97.24a72.77 72.77 0 0121.3.27 1.09 1.09 0 01.32.8 1.73 1.73 0 01-1.34 1.6c-3.73-.16-7.42-.32-11.15-.27a40.84 40.84 0 00-10.47 1.76c6.78 1.55 13.62.7 20.45 1 2.19 0 4.48.48 6.25-1.44a1.25 1.25 0 01.85-.26.67.67 0 00.11.16c.1 0 .1-.06.1-.22s0-.16-.16-.21a1.38 1.38 0 010-.64 1 1 0 01.8-.8c4.44.74 8.07 3.09 11.8 5.34.59.37 1.28 1 1.07 1.7-.27.91-1.23.91-2 1-4.43.59-8.86.75-13.29 1-10.2.64-20.4 1.12-30.54 1.77-3.26.21-6.57-.06-9.77.8a41 41 0 01-8.86-.06c-1.28-.69-.54-1.44-.06-2.13a11.23 11.23 0 012.78-2.46 55.22 55.22 0 0118.42-8.06c1.07-.37 2.35.05 3.42-.64" fill="#fff"/><path d="M64.19 231v11.48c0 1.54-.38 2.24-2.08 2.24-3.63-.11-7.32-.06-11 0-1.44.05-2.08-.43-2-2q.09-11.61 0-23.22c0-1.44.38-2.08 1.92-2.08q5.61.15 11.22 0c1.6-.06 1.92.69 1.92 2.08v11.48" fill="#fff" stroke="#000" stroke-linecap="round" stroke-linejoin="round" stroke-width=".67"/><path d="M146.51 188.05c.32 2.19 1.44 2.89 3.74 2.73 10.3-.75 20.61-.16 30.91-.75 8.7-.48 17.41.16 26.06-.64 1.38-.11 2.77.53 4.21.1s2-.85 1.87-2.56c-.32-3.47-1.76-6.46-3.36-9.45a15.73 15.73 0 0110.25-.16 15.93 15.93 0 014.54 9.4c.58 4.16-1.6 6.67-5.82 6.67H150c-4.22 0-3.37.54-3.63-3.47a10.92 10.92 0 01.1-1.87M87.63 150.09a1.92 1.92 0 011.49-.42c8.38-.22 16.82-.38 25.2-.59 12.28-.32 24.56-.59 36.89-1.12q16.57-.65 33.16-1.12c5.92-.16 11.85-.43 17.77-.43 1.93 0 2-.64 1.39-2.24a14.22 14.22 0 00-5.39-6.73c3-1.44 6.09-1.12 9.13-.21 3.47 1.87 6.25 4.37 7.53 8.22 1.12 3.26 0 4.7-3.26 4.7H90a17.49 17.49 0 01-2.4-.06"/><path d="M218 164.45a13.21 13.21 0 014.43 5.5c1.18 2.94.75 4.38-1.81 6.41-1.34.69-2.78.48-4.22.48H90.51c-2.51-.16-5.13.37-7.58-.37-.43-.7.16-1 .64-1.18a5.61 5.61 0 012.61-.32c11.75.38 23.44-.37 35.19-.64 12.86-.32 25.78-.16 38.65-1.07a84.12 84.12 0 0011 0 37.47 37.47 0 005-.26c6.09 0 12.18-.11 18.32-.06 4.59 0 9.18-.58 13.77-.58 2.4 0 2.94-.91 2.19-3.26a10.74 10.74 0 00-1.34-2.56c-.42-.7-1.28-1.39-.32-2.3 3.15-.53 6.3-.8 9.4.21M197.13 124c4.69 1.81 8.43 4.69 10.19 9.61a4.38 4.38 0 01-.16 3.2v-.05c-3.2.69-6.46.16-9.71.32h-99c-6 .42-11.91.1-17.88.42-1.82.11-3.69.38-5.45-.37a.71.71 0 01-.32-.85c1-.86 2.13-.75 3.26-.75 3.2-.05 6.4-.11 9.61 0 10.67.32 21.3-.48 31.92-.7 12-.21 24-.64 35.93-1s23.92-1 35.93-1c1 0 2.14.21 2.67-.81s-.32-2-1-2.82a23.11 23.11 0 00-3.2-3.21c-.64-.53-1.6-.91-1.34-2.08a12.38 12.38 0 018.55.11M132.42 183.89c-14.15-.06-28.35.16-42.87-1.66 5.5-3.41 87-3.63 96.47-.32a65.78 65.78 0 01-13.67 1.44c-4.53.16-9 .59-13.56.54s-9.07.05-13.61.11c-.16-.06-.27-.06-.43-.11a2.64 2.64 0 01-1.65-1.55c-3.85-2.56-6.68-2.14-10.68 1.55"/><path d="M182.12 110.69a18.12 18.12 0 0112.66 7.53 8.11 8.11 0 011.7 4.65 2.83 2.83 0 01-2.24.58c-28.19.48-56.32.11-84.51.22a5 5 0 01-2.62-.43c-.37-1.92 1.23-1.55 2.08-1.55 4.54 0 9-.48 13.57-.59 13.4-.32 26.8-1 40.2-1.49 5.76-.21 11.53-.48 17.29-.7.75 0 1.77.27 2.14-.58s-.48-1.44-1-2a11.77 11.77 0 00-9.61-4.27c-14.58.1-29.15-.11-43.73-.06-1.22 0-2.5.22-3.57-.64a.67.67 0 01.21-.9 5.58 5.58 0 013.1-.48h50.5a6.79 6.79 0 013.79.74"/><path d="M111.12 110.05c3.09-1 6.3-.37 9.45-.8 4.53-.64 9.18-.43 13.77-.69 10.62-.7 21.25-1.44 32.57-2.19a50.64 50.64 0 00-13.51-6.78 1.13 1.13 0 01-.43-1.18c.22-.42.43-.8 1-.53 8.86 1.55 17.4 3.9 24.72 9.56a8.07 8.07 0 012.77 2.77c-.91.54-1.92.27-2.88.27h-50.56c-4.59.06-9.18.64-13.77.43-1.07-.11-2.3.16-3.15-.91M90.35 176.41h130.27c-.16.32-.32.59-.48.91l-10.25.16c-1.18 0-2.3-.11-3.48-.11H84.48c-1.23 0-2.51-.05-3.74-.1.32-1.07 1.07-.8 1.92-.8a33.52 33.52 0 007.69-.06M59.44 192.38c23.81-.7 47.62-.59 71.43-1.6.16 1.44.53 2.72-1.87 2.72q-34.52-.17-69-.11c-.37-.27-1-.37-.53-1"/><path d="M207.22 212.5a3.7 3.7 0 01-1.5 4.17c-3.74 3-7.31 6.19-11.26 8.91-.64.43-1.5 1.55-2.25.43-.58-.85.48-1.44 1.07-1.81a2.69 2.69 0 001-3.63c-.54-1.39-.8-2.89-1.39-5-1.6 3.36-3 6.19-4.33 9-.37.85-.48 2.24-1.76 1.87-1.55-.43-.8-1.66-.48-2.67 1.44-4.43 4.17-8.22 6-12.49.53-1.18 1.5-.75 2.3-.7 1.33.11.37 1 .42 1.6a27.81 27.81 0 001.5 7.53c.53 1.76 1.39.7 2.13.11 2.78-2.4 5.61-4.81 8.55-7.32" fill="#fff" stroke="#000" stroke-linecap="round" stroke-linejoin="round" stroke-width=".67"/><path d="M81.33 123c1.44-.06 2.88-.11 4.32-.11 3.68-1.55 7.47-.64 11.21-.54a77.46 77.46 0 0012.71.75c24.93.22 49.86.11 74.8.16.85 0 2.18-.85 2.66.8-1 .91-2.29.8-3.52.8-12.44 0-24.88.06-37.32 0-12.28-.11-24.56.11-36.78 0-1.5 0-3 .32-4.33-.85l-24.18-.16a3 3 0 01.43-.85"/><path d="M40.91 209c1 2.35 2.83 1.45 4.22 1.45 1.71 0 2.35.37 2.24 2.18-.16 3 0 6 0 9.24-5.66-3.84-7.8-8-6.41-12.87" fill="#f9f9f9"/><path d="M187 123.93c-1-.8-2-.42-3.09-.42q-42 0-84.09-.06c-1 0-2.14.38-3.1-.42 3.37-1.55 6.73-1.29 10.09-.16 2.67 0 5.34.1 8 0h81.63c.21.37.43.74.64 1.12-2.88.05-5.71.1-8.59.1a1 1 0 01-1.5-.16"/><path d="M38.56 211.65c-.48 3.36 2 5.34 3.69 7.63a29.39 29.39 0 003.15 3.26c.48.48.9 1 .32 1.6s-1.18.11-1.61-.26a29.33 29.33 0 01-5.87-6.73c-1.49 2.24-.16 4.32-.32 6.35-.05.86.7 2.35-.69 2.4s-1.28-1.44-1.34-2.45c0-2.46-.32-5 .38-7.42a7 7 0 00-.43-4.17c-.48-1.49-1.28-2.93-1-4.64 1.65.85.85 3.58 3.15 3.9.48-.16.75-.06.53.53M236.53 216.72c-2.14 2.72-3.63 5.18-6 6.84a2.34 2.34 0 01.48-2.94c1.45-1.82 2.67-3.74 4.17-5.5 1.17-1.39.53-2.83.59-4.27 2.45 1.12 1.92-1.34 2.72-2.24a6.54 6.54 0 011.39-1.76 26.79 26.79 0 01-1 4.05 11.16 11.16 0 00-.38 7.21 12.33 12.33 0 01-.11 6.09c-.21.69.06 1.87-1.17 1.76s-.69-1.18-.69-1.92v-7.32" fill="#fff" stroke="#000" stroke-linecap="round" stroke-linejoin="round" stroke-width=".67"/><path d="M101 110.21c.11 0 .27-.1.38-.16h9.71c4.92.06 9.77.11 14.69.11h55.73c.22.21.43.37.64.59h-57.63c-2.78 1.39-5.77.85-8.54.59-4.86-.54-9.67-.22-14.53-.38-.42-.16-.58-.37-.48-.8"/><path d="M78.71 210.8c1.55-.54 2.62-.38 3.36.9a79.36 79.36 0 016.2 12.66c.26.8.58 1.6-.43 2-.85.37-1.39-.16-1.66-.86a86.74 86.74 0 00-7.47-14.73M121.58 210.53c.8 0 1.34.21 1.18 1.07-.81 3.84-.32 7.74-.49 11.64 0 .9 0 2.18-1.38 2.13-1.12-.05-1.18-1.17-1.18-2a67.63 67.63 0 01.48-11.37c.16-1 .43-1.55 1.39-1.44M168.78 212.18c-.8 4.11-1.61 8.39-2.41 12.6-.1.59-.48 1.23-1.28 1.12a1.26 1.26 0 01-1.07-1.54c.81-4.27 1.66-8.49 2.51-12.76.16-.91.7-1.18 1.55-1s.7.86.7 1.6M176.25 225.8a1.15 1.15 0 01-1.07-1.5c1.23-4.32 2.57-8.65 3.9-13 .27-.85 1-.91 1.76-.8 1 .21.64.85.48 1.44-1.28 4.16-2.61 8.28-3.95 12.44-.11.64-.32 1.23-1.12 1.39M107.38 212c-.8 4.22-1.55 8.22-2.35 12.23-.16.74-.37 1.76-1.44 1.6-1.23-.16-1.07-1.28-.91-2.14.7-3.84 1.44-7.69 2.19-11.48.16-.85.43-1.81 1.66-1.65s.85 1 .85 1.44M114.91 220.41v3.73c0 .64-.16 1.28-1 1.34a1 1 0 01-1.18-1.07l-1-12.65c0-.75.32-1.12 1.07-1.18 1-.05 1.39.43 1.44 1.39.16 2.78.37 5.61.59 8.44M145.66 223.18c1.12-3.9 2.24-7.79 3.31-11.74.32-1.07 1.12-1.07 1.87-.91 1.07.21.48.91.37 1.44-1.07 3.84-2.13 7.64-3.26 11.48-.21.8-.53 1.6-1.54 1.39s-.86-.86-.75-1.66M90.78 210.53c1.12-.11 1.38.69 1.49 1.49a85.62 85.62 0 002.51 11.06c.27 1 .11 1.65-.75 1.92-1 .26-1.33-.64-1.55-1.39-.9-3.84-1.76-7.74-2.61-11.59-.16-.69-.16-1.44.91-1.49M128.15 221.31c.37-3 .8-6.08 1.17-9.13.11-1 .48-1.7 1.66-1.6s.9 1.07.8 1.82c-.43 3-.8 6.14-1.28 9.18-.16 1.07.37 3-1.55 2.72-1.76-.26-.59-1.92-.8-3M103 211.7c-1 4-1.92 7.64-2.88 11.32-.21.8-.54 1.6-1.6 1.28-.91-.26-.8-1.12-.64-1.81.85-3.63 1.76-7.21 2.67-10.84.21-1 .9-1.23 1.81-1.12s.64.85.64 1.17M70.27 215.23c4 3.31 7.75 6.35 11.48 9.45.43.37.75.85.43 1.39-.43.69-1.07.48-1.6.05-3.31-2.56-6.57-5.13-9.82-7.69-.91-.75-.86-1.71-.49-3.2M162.1 222.59a1.07 1.07 0 01-.85 1.39 1.1 1.1 0 01-1.34-1 66.9 66.9 0 01-1.33-11.32c0-.74.37-1.17 1.12-1.12a1 1 0 011.07 1c.43 3.69.91 7.37 1.33 11.05M173.05 217.74c.1 1.76.21 3.52.21 5.34 0 .85 0 2-1.33 1.86s-1-1.06-1-1.81v-10.68c0-.85-.16-1.92 1.23-1.81 1.22.1 1 1.06 1 1.81v5.34s0 0 0 0M141.6 217.47v5.87c0 .75 0 1.5-1 1.55s-1.18-.59-1.18-1.39v-11.69c0-.69.16-1.23 1-1.28s1.17.59 1.17 1.33v5.61z" fill="#fff" stroke="#000" stroke-linecap="round" stroke-linejoin="round" stroke-width=".67"/><path d="M57.14 176.47l3.9-.16a3.87 3.87 0 012.72-.8c5.45-.06 10.84-.06 16.28 0a3.78 3.78 0 012.78.74c2.51.06 5 .11 7.53.11-2 1-4.17.27-6.25.48-1.12.16-2.29-.32-3.36.37l-7.9.16H57.25a6.46 6.46 0 00-.11-.9"/><path d="M230.12 218.75v-6.83c0-.7-.11-1.6 1-1.39s2.35-.8 3 .75a3.27 3.27 0 01-.48 3.47c-1 1.33-2 2.72-3 4.05a1.91 1.91 0 01-.53-.05" fill="#fcfcfc"/><path d="M50 194.25c-3.15.42-5.93-3.31-6.41-9 2.09 3 4.22 5.92 6.41 9M224.35 194.35c2.25-3.25 4.33-6.19 6.46-9.29.59 4-3.15 9.51-6.46 9.29" fill="#fff" stroke="#000" stroke-linecap="round" stroke-linejoin="round" stroke-width=".67"/><path d="M101 110.53c7.84.06 15.64.11 23.49.22v.42a17.79 17.79 0 01-10.68.43c-2.24-.8-4.54-.43-6.83-.43H93.42c.75-.64 1.76-.42 2.61-.58a16.92 16.92 0 014.92-.06M71.08 164.67c-3.9 0-7.8 0-11.75-.11.16-.32.32-.64.48-1l3.84-.16c.38.05.75.1 1.07.16 3 .42 6.14 0 9.24.21h11c.74 0 1.81-.53 2.24.64-1.92 1.6-4.17.7-6.25.91-1.12-.11-2.24-.05-3.36-.05h-3.31c-1.12.05-2.24.21-3.2-.59M197.61 136.85h9.55a1.39 1.39 0 01.11.48c-3 .05-6.09.16-9.13.21l-.48-.16c-.16-.1-.21-.21-.16-.32s.05-.16.11-.16"/><path d="M101 110.53h-4.89a4.24 4.24 0 00.16-.53c1.61 0 3.15.11 4.76.21v.32M207.16 136.8c.06-1.07.11-2.14.16-3.15a2.25 2.25 0 01-.16 3.15"/><path d="M249.82 217.36c-1.28 2.83-3.68 4.65-3.79 7.58a1.08 1.08 0 01-1.6.86c-.91-.43-.91-1.12-.59-2a11.63 11.63 0 016-6.41" fill="#fff"/><path d="M25.11 218.11c2.83.85 4.32 2.94 5.34 5.45.32.8.37 1.92-.8 2.18s-1.18-.74-1.34-1.54c-.48-2.35-2.13-4.06-3.2-6.09" fill="#fff" stroke="#000" stroke-linecap="round" stroke-linejoin="round" stroke-width=".67"/><path d="M211.75 150.73c-2.61 0-5.17.06-7.74.06a17.37 17.37 0 013.63 6.08c.86 2.73.59 3.26-2.35 3.31-10.67.27-21.41.48-32.08.7-1.12.05-3.33-.31-3.4-.1-11.28.85-36.38 1-46.95 1.54-11.32.59-22.69.48-34 .69a2.32 2.32 0 00-1.76.43c1.07 1.12 2.46.85 3.79.75h64.76c.91 0 12 0 15-.26a1.87 1.87 0 00.32.15 3.54 3.54 0 001.06.16c14.74 0 29.42.11 44.15-.21a3 3 0 001.77-.48 4.38 4.38 0 002.51-3.79c.16-4.17-4.6-9.03-8.71-9.03z"/><path d="M218 163.6c-15.86 0-31.72 0-47.57-.11h-66.04c-5.77 0-11.53-.05-17.3-.05-4.43.05-8.86.16-13.24.16-.11 0-.16.05-.21.16s0 .16.21.21c4.43.32 8.86-.37 13.3.48 1.22 1.34 2.93 1 4.48 1 21.52 0 43-.11 64.44-.06l17.56.16h31.13c1.23-.05 2.51.11 3.52-.8 3.21-.1 6.46-.16 9.72-.21v-.94zM153.88 152.92c-17.35.06-34.7-.85-52 1.76a300.62 300.62 0 0052 1.39c.37.54 1 .48 1.55.59.8-.59 4-.64 5-.59a54 54 0 0013.4-1.44 89 89 0 00-19.86-1.71"/><path d="M73.8 163.65a1 1 0 000 .38c-3-.16-6.08.59-9.13-.43 3 0 6 0 9.08.05M168.88 141.28a339.69 339.69 0 01-62.57.06c5.5-2.51 54.19-2.67 62.57-.06M197.61 136.85v.48c-17.46 0-35 .06-52.43.06-15.64 0-31.23-.06-46.88-.06a1.57 1.57 0 000-.48q49.73-.07 99.36 0M146.35 103.17c-7.79 0-15.59.64-23.27-1.45 7.9-3.25 16.07-3.25 24.29-2.24a.74.74 0 01.26.54 3.09 3.09 0 01-.16 1.22 4.88 4.88 0 00-.69 1.39 2.49 2.49 0 01-.43.54"/><path d="M146.35 103.17a1.35 1.35 0 01.06-.49c.48-.42.58-1.06 1-1.49.05-.37-.64-.75 0-1.12a1.3 1.3 0 011-.43c1.07.27 1.87 1.39 3.15 1a1 1 0 01.85.58c.38.86 0 1.34-.85 1.5a18.62 18.62 0 01-5.13.43"/><path d="M187 123.93l1.55.16a16.34 16.34 0 016.94 7.16c.69 1.39.27 1.92-1.12 2.13a10.28 10.28 0 01-1.82.22c-10.41.21-20.76.26-31.17.64-12.5.48-25 .64-37.48 1.12-16.34.64-32.68 1-49 1a11 11 0 0110.57-11.21c6-.16 12-.43 18-.7A6.59 6.59 0 00105 124h47.89c11.37-.05 22.74-.05 34.11-.11M113.84 111.6c3.58-.16 7.15-.27 10.68-.43 15.91 0 31.82.11 47.73 0 5.23 0 8.59 2.67 11.37 6.62.91 1.28.64 1.93-1 2-3.26 0-6.57.27-9.83.43-7.68.42-15.43.32-23.11.69-9.88.48-19.81.69-29.69 1.23-4.38.21-8.86-.38-13.18.8l-10.09.16c-3.69 0-7.43-.11-11.11-.11a13.38 13.38 0 0112.81-10.62c5.13-.22 10.25-.54 15.38-.75" fill="#fff"/><path d="M74.28 165h-3.2v-.32h3.2c.16.11.21.16.16.27a.15.15 0 01-.16.1" fill="#fdeace"/><path d="M74.28 165v-.37h3.2c.16.11.22.21.16.27s-.1.1-.21.1a27.58 27.58 0 01-3.15 0" fill="#fdd7a0"/><path d="M77.48 165.1v-.43h3.21c-1 .85-2.14.32-3.21.43" fill="#fbc370"/><path d="M173.05 169.42c.37 0 .74.05 1.07.05.32.75 1.17 1.23 1 2.19a29 29 0 00-2.08-2.24" fill="#d08f34"/><path d="M170.38 168.35c.53 0 1.23.22 1.55-.48 1.17-.05 1.17.75 1.12 1.6-1-.1-2.19.22-2.67-1.12" fill="#a8a79e"/><path d="M110.48 127.46a224.71 224.71 0 0154.24-.06 222.2 222.2 0 01-54.24.06M115.17 113.68a226.86 226.86 0 0147.84-.26c-4.11 2.56-40.57 2.77-47.84.26"/><path d="M153.24 97.88a1.29 1.29 0 01-1-.11" fill="none" stroke="#000" stroke-miterlimit="10" stroke-width=".27"/><path d="M211.49 170.38a10.2 10.2 0 00-3.21-5.71l-35.45-.16c-1 0-4.09-.26-4.48 0h-8.6c-.9 0-1.76-.05-2.67-.05-23.33 0-46.6-.06-69.93-.06-2.14.11-4.28.17-6.36.22-1.12.43-2.29.11-3.41.21h-3.1a12.67 12.67 0 00-3.15.16l-4.75.16c-4.11.06-6.36 2.14-6.94 6.2-.27 2 1.06 3.25 1.65 4.85h21.78a3.21 3.21 0 012.3-.42c12.71.32 25.36-.75 38.07-.59 2 0 4.05-.05 6-.21 9.56-.7 19.11 0 28.67-.75.87-.1 9.26.05 12.75-.39 0 0 6.41.42 7.11.23a14.43 14.43 0 014.75-.38c8.86.16 17.67-.42 26.53-.53 2.22.05 2.65-1.02 2.44-2.78z" fill="#fff"/><path d="M178.28 168.35c-1.25-.8-17.6-2-19.7-2.12h-18.69c-13.66-.06-27.33 0-40.95 1.12a3.38 3.38 0 00-2.67 1.12c4.86 1.49 9.61 1.28 14.21 1.39 12.33.37 24.71 1 37.05.58a47.05 47.05 0 008.43-.84l15.28-.18a10.76 10.76 0 005.82-.47c1-.15 1.6-.35 1.22-.6z"/><path d="M145.61 193.82h-1s2.35-11.91-6.4-11.69c0 0 9-2.3 7.37 11.69" fill="#fff"/><ellipse cx="62.13" cy="31.22" rx="3.2" ry="3.04" transform="rotate(-87.01 62.13 31.212)" fill="#fff" stroke="#000" stroke-miterlimit="10" stroke-width=".05"/><path d="M59.94 33.17c-.35.4 0 1.1.67 1.6A1.86 1.86 0 0061 35c1.94 1.33 8.06 1.39 4.57 1.09-2-.19-2.69-.8-2.93-1.29.17-.41-.15-1-.77-1.45s-1.58-.59-1.93-.18zM63 28.28c-.29.44.18 1.1 1 1.58a2.59 2.59 0 001.1.31 1.14 1.14 0 00.62-.15c.59 0 1.55.32 2.66 2 1.78 2.71-.72-2-2.86-3.28a2.5 2.5 0 00-.67-.5c-.8-.42-1.67-.4-1.85.04z"/><path d="M60.76 33.16c-.14.14 0 .43.29.59s.6.26.73.12 0-.43-.29-.59-.6-.26-.73-.12M63.31 29c.08-.12.41-.14.71 0s.53.43.45.56-.41.14-.71 0-.52-.38-.45-.56" fill="#fff"/><path d="M55.67 30.25s-5 2-4.65 2.78 3.48 2 5.93-.87" fill="#fff" stroke="#000" stroke-miterlimit="10" stroke-width=".27"/><path d="M59.73 32.67s-7.49 7.42-9.52 5.33 2-5.66 8.34-6.5" fill="#fff"/><path d="M59.11 25.59s-.42-5.36.5-5.39 3.32 2.3 1.81 5.73" fill="#fff" stroke="#000" stroke-miterlimit="10" stroke-width=".27"/><path d="M63 28.2s3.4-10 .6-10.87-4.22 4.32-2.24 10.34" fill="#fff"/><path d="M61.52 26.4S58 26.42 57.4 32c0 0-5.81-2.71-6.2-7.92 0 0 5-2.63 10.32 2.36" fill="#fff" stroke="#000" stroke-miterlimit="10" stroke-width=".05"/><path d="M53.53 23.41l-.73.11s-1 .32-1.27 2.23c0 0 .34.92.41 1a3.77 3.77 0 011.59-3.34zM55.8 23.43c-.59.27-2.53 1.41-2.91 4.86l.79.93s.42-3.95 3-5.6M58.12 24.1a7.17 7.17 0 00-3 6.38l.77.55s-.49-5.08 3.82-6.1z" stroke="#000" stroke-miterlimit="10" stroke-width=".05"/><path d="M47.74 22.15s3.32 1.76 3.53 2.48l.49-.82s-.91 0-4-1.66"/><ellipse cx="59.53" cy="29.46" rx="3.84" ry="3.68" transform="rotate(-87.01 59.532 29.466)" fill="#fff" stroke="#000" stroke-miterlimit="10" stroke-width=".05"/><path d="M61.4 27.67c-2-6-.51-11.24 2.24-10.34S63 28.2 63 28.2a1.49 1.49 0 01-.53.82M59.73 32.67s-7.49 7.42-9.52 5.33 2-5.66 8.34-6.5" fill="none" stroke="#000" stroke-miterlimit="10" stroke-width=".27"/><ellipse cx="238.24" cy="28.07" rx="3.04" ry="3.2" transform="rotate(-74.35 238.223 28.07)" fill="#fff" stroke="#000" stroke-miterlimit="10" stroke-width=".05"/><path d="M236.82 25.51c-.32-.43-1.07-.28-1.72.29a2.51 2.51 0 00-.31.35c-1.72 1.61-3.12 7.57-2.07 4.23.63-1.89 1.37-2.45 1.91-2.58.36.25 1 .08 1.58-.43s.92-1.43.61-1.86zM240.93 29.51c-.37-.38-1.12-.07-1.77.67a2.6 2.6 0 00-.55 1 1.11 1.11 0 000 .63c-.12.58-.65 1.44-2.56 2.16-3 1.13 2.07-.27 3.83-2.07a3.17 3.17 0 00.64-.54c.61-.67.78-1.52.41-1.85z"/><path d="M236.65 26.31c-.11-.17-.43-.06-.65.15s-.38.53-.27.69.42.06.64-.15.38-.53.28-.69M240.18 29.72c.1.1 0 .42-.17.69s-.54.42-.65.31 0-.43.17-.69.49-.42.65-.31" fill="#fff"/><path d="M240.6 22s-.84-5.35-1.69-5.15-2.71 3-.46 6" fill="#fff" stroke="#000" stroke-miterlimit="10" stroke-width=".27"/><path d="M237.35 25.41s-5.59-8.94-3.12-10.46 5.09 3.22 4.52 9.57" fill="#fff"/><path d="M244.39 26.35s5.33.77 5.15 1.67-3 2.74-6 .51" fill="#fff" stroke="#000" stroke-miterlimit="10" stroke-width=".27"/><path d="M241 29.62s9 5.51 10.48 3-3.3-5.07-9.61-4.45" fill="#fff"/><path d="M243.08 28.53s.74-3.41-4.53-5.24c0 0 3.92-5.08 9.08-4.32 0 .06 1.48 5.47-4.55 9.56" fill="#fff" stroke="#000" stroke-miterlimit="10" stroke-width=".05"/><path d="M247.74 21.39v-.74s-.08-1.06-1.89-1.72c0 0-1 .12-1.09.17a3.77 3.77 0 012.98 2.29zM247.22 23.59c-.13-.63-.82-2.76-4.1-3.89l-1.08.56s3.76 1.28 4.79 4.21M246.06 25.71a7.16 7.16 0 00-5.56-4.37l-.7.63s5.06.64 5.11 5.07z" stroke="#000" stroke-miterlimit="10" stroke-width=".05"/><path d="M250.24 16s-2.44 2.85-3.19 2.89l.69.66s.22-.88 2.5-3.53"/><ellipse cx="240.52" cy="25.91" rx="3.68" ry="3.84" transform="rotate(-74.35 240.504 25.926)" fill="#fff" stroke="#000" stroke-miterlimit="10" stroke-width=".05"/><path d="M241.85 28.14c6.31-.62 11.08 2 9.61 4.45s-10.48-3-10.48-3a1.48 1.48 0 01-.68-.7M237.35 25.41s-5.59-8.94-3.12-10.46 5.09 3.22 4.52 9.57" fill="none" stroke="#000" stroke-miterlimit="10" stroke-width=".27"/><ellipse cx="149.7" cy="99.41" rx="3.2" ry="3.04" transform="rotate(-22.46 149.697 99.401)" fill="#fff" stroke="#000" stroke-miterlimit="10" stroke-width=".05"/><path d="M147 98.27c-.52-.14-1 .44-1.17 1.29a3.83 3.83 0 000 .47c-.36 2.33 2.21 7.88 1 4.6-.67-1.87-.43-2.77-.09-3.2.44 0 .84-.56 1-1.32s-.23-1.69-.74-1.84zM152.71 98.88c-.53-.07-.93.64-1 1.63a2.32 2.32 0 00.19 1.12 1.13 1.13 0 00.4.49c.26.54.38 1.54-.68 3.28-1.69 2.77 1.46-1.49 1.74-4a2.6 2.6 0 00.16-.82c.07-.89-.32-1.67-.81-1.7z"/><path d="M147.36 99c-.19-.07-.38.21-.42.51s0 .65.21.72.38-.22.42-.52 0-.65-.21-.71M152.24 99.51c.15 0 .3.31.29.65s-.16.66-.31.64-.3-.31-.29-.65.12-.63.31-.64" fill="#fff"/><path d="M147.8 93.16s-4-3.69-4.51-3-.31 4 3.33 5" fill="#fff" stroke="#000" stroke-miterlimit="10" stroke-width=".27"/><path d="M147.36 97.86s-9.92-3.57-8.91-6.3 6-.6 9.46 4.74" fill="#fff"/><path d="M153.48 94.27s4.66-2.69 5.09-1.87-.65 4-4.4 4.09" fill="#fff" stroke="#000" stroke-miterlimit="10" stroke-width=".27"/><path d="M152.81 98.94s10.49-1.22 10.08-4.14-5.72-1.94-10.31 2.43" fill="#fff"/><path d="M153.79 96.78s-1.52-3.13-6.79-1.33c0 0-.06-6.4 4.48-9 0 0 4.53 3.38 2.31 10.32" fill="#fff" stroke="#000" stroke-miterlimit="10" stroke-width=".05"/><path d="M153.05 88.29l-.41-.61s-.73-.78-2.56-.19a10.7 10.7 0 00-.74.81 3.73 3.73 0 013.71-.01zM154 90.35c-.49-.42-2.35-1.68-5.63-.54l-.5 1.11s3.75-1.32 6.36.35M154.4 92.73a7.17 7.17 0 00-7.08 0l-.16.93s4.38-2.63 7.15.83z" stroke="#000" stroke-miterlimit="10" stroke-width=".05"/><path d="M151.7 82.52s-.16 3.75-.72 4.25l1 .09s-.37-.82-.22-4.32"/><ellipse cx="150.16" cy="96.31" rx="3.84" ry="3.68" transform="rotate(-22.46 150.156 96.299)" fill="#fff" stroke="#000" stroke-miterlimit="10" stroke-width=".05"/><path d="M152.58 97.23c4.59-4.37 9.93-5.3 10.31-2.43s-10.08 4.14-10.08 4.14a1.52 1.52 0 01-1-.13M147.36 97.86s-9.92-3.57-8.91-6.3 6-.6 9.46 4.74" fill="none" stroke="#000" stroke-miterlimit="10" stroke-width=".27"/><ellipse cx="264.37" cy="191" rx="3.04" ry="3.2" fill="#fff" stroke="#000" stroke-miterlimit="10" stroke-width=".05"/><path d="M266.45 188.94c.33-.42 0-1.1-.74-1.57a2.06 2.06 0 00-.42-.21c-2-1.23-8.13-1-4.63-.86 2 .1 2.73.67 3 1.14-.15.42.19 1 .84 1.41s1.62.51 1.95.09zM263.7 194c.27-.46-.23-1.1-1.12-1.53a2.54 2.54 0 00-1.12-.25 1.08 1.08 0 00-.61.18c-.59 0-1.57-.25-2.77-1.89-1.91-2.61.82 1.92 3 3.14a3 3 0 00.69.46c.85.37 1.72.31 1.93-.11z"/><path d="M265.64 189c.13-.15-.06-.43-.32-.58s-.61-.22-.74-.08.06.43.32.58.61.22.74.08M263.31 193.31c-.08.13-.4.16-.72 0s-.55-.41-.47-.54.4-.16.71 0 .54.36.48.54" fill="#fff"/><path d="M270.87 191.63s4.93-2.24 4.5-3-3.57-1.81-5.87 1.18" fill="#fff" stroke="#000" stroke-miterlimit="10" stroke-width=".27"/><path d="M266.69 189.43s7.1-7.8 9.23-5.82-1.73 5.76-8 6.92" fill="#fff"/><path d="M267.68 196.46s.69 5.33-.22 5.41-3.44-2.12-2.11-5.63" fill="#fff" stroke="#000" stroke-miterlimit="10" stroke-width=".27"/><path d="M263.61 194.05s-2.88 10.16 0 10.9 4-4.54 1.7-10.45" fill="#fff"/><path d="M265.23 195.78s3.48-.21 3.83-5.77c0 0 5.94 2.4 6.6 7.59-.06 0-4.87 2.89-10.43-1.82" fill="#fff" stroke="#000" stroke-miterlimit="10" stroke-width=".05"/><path d="M273.36 198.35l.72-.15s1-.37 1.15-2.29c0 0-.38-.9-.46-1a3.73 3.73 0 01-1.41 3.44zM271.1 198.44c.57-.3 2.44-1.53 2.64-5l-.83-.89s-.22 4-2.76 5.74M268.74 197.9a7.18 7.18 0 002.72-6.54l-.8-.5s.75 5-3.5 6.28z" stroke="#000" stroke-miterlimit="10" stroke-width=".05"/><path d="M279.2 199.31s-3.4-1.59-3.64-2.29l-.45.84s.9 0 4.07 1.45"/><ellipse cx="267.06" cy="192.61" rx="3.68" ry="3.84" fill="#fff" stroke="#000" stroke-miterlimit="10" stroke-width=".05"/><path d="M265.28 194.5c2.28 5.91 1.09 11.2-1.7 10.45s0-10.9 0-10.9a1.5 1.5 0 01.5-.84M266.69 189.43s7.1-7.8 9.23-5.82-1.73 5.76-8 6.92" fill="none" stroke="#000" stroke-miterlimit="10" stroke-width=".27"/><ellipse cx="158.13" cy="167.81" rx="3.04" ry="3.2" transform="rotate(-71.16 158.12 167.798)" fill="#fff" stroke="#000" stroke-miterlimit="10" stroke-width=".05"/><path d="M156.85 165.17c-.29-.45-1-.34-1.72.2a2.67 2.67 0 00-.34.33c-1.81 1.51-3.54 7.38-2.3 4.11.73-1.86 1.51-2.38 2-2.48.34.28 1 .14 1.6-.34s1.05-1.37.76-1.82zM160.74 169.4c-.35-.4-1.12-.13-1.81.57a2.53 2.53 0 00-.6 1 1.18 1.18 0 000 .64c-.15.57-.73 1.4-2.67 2-3.1 1 2.08-.15 3.94-1.85a3 3 0 00.66-.5c.61-.68.83-1.52.48-1.86z"/><path d="M156.64 166c-.1-.17-.43-.08-.65.11s-.41.51-.32.68.43.08.65-.12.41-.5.32-.67M160 169.56c.1.11 0 .43-.2.68s-.56.39-.66.28 0-.43.2-.69.51-.39.66-.27" fill="#fff"/><path d="M160.83 161.86s-.54-5.39-1.41-5.24-2.87 2.8-.78 5.94" fill="#fff" stroke="#000" stroke-miterlimit="10" stroke-width=".27"/><path d="M157.39 165.1s-5.09-9.23-2.53-10.61 4.9 3.49 4 9.8" fill="#fff"/><path d="M164.36 166.44s5.28 1.06 5.06 1.95-3.12 2.57-6 .18" fill="#fff" stroke="#000" stroke-miterlimit="10" stroke-width=".27"/><path d="M160.78 169.51s8.69 6 10.3 3.54-3-5.23-9.34-5" fill="#fff"/><path d="M162.94 168.53s.92-3.36-4.23-5.48c0 0 4.19-4.85 9.31-3.8 0 .05 1.17 5.54-5.08 9.28" fill="#fff" stroke="#000" stroke-miterlimit="10" stroke-width=".05"/><path d="M168 161.67l.09-.73s0-1.07-1.79-1.83c0 0-1 .07-1.1.11a3.75 3.75 0 012.8 2.45zM167.35 163.84c-.1-.64-.67-2.81-3.88-4.12l-1.11.5s3.68 1.49 4.55 4.47M166.07 165.89a7.16 7.16 0 00-5.31-4.68l-.73.59s5 .92 4.82 5.35z" stroke="#000" stroke-miterlimit="10" stroke-width=".05"/><path d="M170.78 156.44s-2.6 2.71-3.35 2.72l.65.69s.27-.86 2.69-3.39"/><ellipse cx="160.53" cy="165.78" rx="3.68" ry="3.84" transform="rotate(-71.16 160.514 165.781)" fill="#fff" stroke="#000" stroke-miterlimit="10" stroke-width=".05"/><path d="M161.74 168.08c6.33-.26 10.95 2.57 9.34 5s-10.3-3.54-10.3-3.54a1.53 1.53 0 01-.64-.74M157.39 165.1s-5.09-9.23-2.53-10.61 4.9 3.49 4 9.8" fill="none" stroke="#000" stroke-miterlimit="10" stroke-width=".27"/><ellipse cx="32.22" cy="242.55" rx="3.04" ry="3.2" transform="rotate(-74.1 32.211 242.536)" fill="#fff" stroke="#000" stroke-miterlimit="10" stroke-width=".05"/><path d="M33.63 245.11c.32.44 1.07.29 1.72-.29a2 2 0 00.31-.34c1.73-1.6 3.16-7.55 2.09-4.22-.64 1.89-1.38 2.45-1.92 2.58-.36-.26-1-.09-1.58.42s-.93 1.42-.62 1.85zM29.54 241.09c.37.38 1.12.07 1.77-.66a2.36 2.36 0 00.55-1 1.06 1.06 0 000-.64c.13-.58.67-1.44 2.57-2.14 3-1.13-2.07.26-3.84 2.05a2.63 2.63 0 00-.64.54c-.6.67-.78 1.52-.41 1.85z"/><path d="M33.81 244.32c.1.16.42.06.64-.15s.38-.53.28-.69-.43-.06-.64.15-.39.52-.28.69M30.29 240.89c-.11-.11-.05-.43.17-.69s.54-.42.65-.31 0 .43-.17.69-.49.42-.65.31" fill="#fff"/><path d="M29.83 248.63s.82 5.35 1.68 5.15 2.72-2.94.47-6" fill="#fff" stroke="#000" stroke-miterlimit="10" stroke-width=".27"/><path d="M33.1 245.21s5.55 9 3.07 10.47-5.07-3.24-4.48-9.58" fill="#fff"/><path d="M26.07 244.23s-5.33-.78-5.15-1.69 3-2.72 6-.48" fill="#fff" stroke="#000" stroke-miterlimit="10" stroke-width=".27"/><path d="M29.49 241s-9-5.55-10.47-3 3.28 5.08 9.59 4.49" fill="#fff"/><path d="M27.39 242.07s-.76 3.4 4.5 5.26c0 0-3.94 5-9.1 4.27 0 0-1.46-5.47 4.6-9.53" fill="#fff" stroke="#000" stroke-miterlimit="10" stroke-width=".05"/><path d="M22.69 249.19l-.05.73s.08 1.06 1.88 1.73c0 0 1-.12 1.09-.17a3.75 3.75 0 01-2.92-2.29zM23.22 247c.13.63.81 2.77 4.08 3.92l1.08-.56s-3.75-1.3-4.77-4.23M24.39 244.87a7.18 7.18 0 005.54 4.4l.7-.63s-5.06-.66-5.08-5.09z" stroke="#000" stroke-miterlimit="10" stroke-width=".05"/><path d="M20.17 254.54s2.46-2.84 3.2-2.88l-.68-.66s-.22.88-2.51 3.52"/><ellipse cx="29.93" cy="244.69" rx="3.68" ry="3.84" transform="rotate(-74.1 29.928 244.68)" fill="#fff" stroke="#000" stroke-miterlimit="10" stroke-width=".05"/><path d="M28.61 242.46c-6.31.59-11.07-2-9.59-4.49s10.47 3 10.47 3a1.58 1.58 0 01.68.71M33.1 245.21s5.55 9 3.07 10.47-5.07-3.24-4.48-9.58" fill="none" stroke="#000" stroke-miterlimit="10" stroke-width=".27"/></svg>