<svg xmlns="http://www.w3.org/2000/svg" width="300" height="300" viewBox="0 0 300 300"><title>flag-oregon-icon-eagle</title><path d="M151.85,103.65l0,0h-.06l-.05,0-.1.06a.12.12,0,0,0-.05,0l-.06,0a2.12,2.12,0,0,0-.26.31,2.94,2.94,0,0,0,1.72,3.5c.58-.59,2.17-1.16,1.78-2.51-.74-.73-1.82-1.84-2.72-1.61Z"/><polygon points="79.22 173.98 79.22 173.98 79.4 174.17 79.22 173.98"/><path d="M181.94,176.23l-.07.07Z"/><path d="M169.21,195.93l-.16-.15-.05-.06-.05-.05-.11,0-.15-.05-.16,0h-.31l-.05,0-.21.05c-.84.24-1.81,1-2.5,1.25a1,1,0,0,1-.16,0s0,0-.05,0h-.11l.37.42c1.16-.19,2.92.33,3.75-.36a1.83,1.83,0,0,0,.21-.26l.05-.06a.47.47,0,0,0,0-.1,2.29,2.29,0,0,0-.26-.52Z"/><path d="M179.74,195.62l-.15-.05a4,4,0,0,0-1.36-.11,10.75,10.75,0,0,1-2.66.16,1.56,1.56,0,0,0,.26.68.47.47,0,0,1,0,.1.34.34,0,0,1,.06.06,1.79,1.79,0,0,0,.26.2l.05.06c1.1.72,3.26.62,4.53.2a2.15,2.15,0,0,0-.41-.83l-.26-.26A2.22,2.22,0,0,0,179.74,195.62Z"/><path d="M181.7,176.49l0-.05Z"/><path d="M171.66,184.2a2.2,2.2,0,0,0-.21.32l0,.15a1.6,1.6,0,0,0-.05.21c-.23,1.19.8,2.59,1.09,3.75h.63a1.12,1.12,0,0,0,.31,0,1,1,0,0,0,.26-.15l.05-.06.06-.05.05,0s0,0,0-.05c-.39-1.54-.17-3.65-1.72-4.43A2.73,2.73,0,0,0,171.66,184.2Z"/><path d="M294.7,165.27h0c-11.2-8.12-23.18-11.61-34.38-20.08-4.44-1.56-9.08.19-12.93-2.73-6.19-2.5-11-8.68-17-12-1-1.72-2.51-3.46-1.74-5.4,2.71-1.54,2.9,2.12,5.22,2.33v0c5,2.12,9.64,6.55,15.6,5.23a.66.66,0,0,1,.06-.2c-1.38-1-2.91-2.14-2.9-2.15l.11,0-.11,0a.34.34,0,0,1-.1,0l-.1.05a7.4,7.4,0,0,0-1.72.16c-4.63-2.13-9.45-4.2-13.51-7.87-1.14,0-2.58-.15-3.23.52a1.11,1.11,0,0,0-.26.42c-3.1,4.23-8.87,5.43-13.51,4.27-2.51,1-4.65-2.5-6.77-2.71-6.77,0-11,8.46-17.57,10-.77.78-2.09,2.14-3.44,2.14-5,2.91-11.63,7.36-16.85,7.56-.77-1.94-2.08-3.89-2.08-6.21,2.89-1.93,6.52-1.95,9.8-2.92,8.89-3.28,22.41-7.31,23-19.08h-.73c-4.05,11.77-17.19,16-28.2,18.51l-.21.16c-1.16.67-3.35.45-4.59,1.09a2.4,2.4,0,0,0-.47.37,2.26,2.26,0,0,0-.36,2.24c2.12,4.63,4.65,10.8,3.49,16.21a28.54,28.54,0,0,0-10.64.42c-6.56,3.08-2.47,11.58-2.08,16.58-3.09,1.35-7.36,2.13-10.06.78.77-4.24,1.34-8.7.57-13.14a17.05,17.05,0,0,0-6.15-6.72c-3.09-.37-5.43-.4-8.14,1.15-.77,3.28-2.7,6.37-4.43,9.07-11.78-4.25-19.1-14.69-27.79-23.78-1-1.74-.78-4.23-2.14-5.58-3.28,2.31-4.27,8.48-9.28,6.36L90.79,139a5.76,5.76,0,0,0,.42-1.67,1.67,1.67,0,0,0,0-.31,2.38,2.38,0,0,0,0-.26,1.53,1.53,0,0,0-.11-.16,1.61,1.61,0,0,0-.57-.47c-2.9,7.73-9.63,4.42-15.22,4.22a.34.34,0,0,1,0-.1.34.34,0,0,1,0-.1s0-.05.05-.06,0-.08,0-.1,0,0,0-.05c.27-.48.89-.86,1.2-1.31.38-2.69,4.26-5.22,2.14-7.35-1.94,2.9-4.06,5.6-4.64,9.07-1-.95-2.28-1.32-3.44-2.08a12.43,12.43,0,0,1,2.86-4.85l-1.51-1.36-3.7,4.85c-5.21-2.33,3.48-4.65.57-7.76a35.2,35.2,0,0,0-3.44,3.91l-.21-.06c-1.31-.37-1.21-2.52-2.5-3.44l-.1-.1-.06-.05,0-.11s0,0,0-.05,0,0,0-.05l-.05-.11a.47.47,0,0,1,0-.1c-.2-.78.12-2-.11-2.66v0s-.05,0-.05,0,0-.13,0-.16L62,126l0-.06-.05,0a1,1,0,0,0-.21-.1l-.15,0-.21-.06a2.94,2.94,0,0,0-.42,0l-.42,2.51c2.12,8.12,10.45,12.55,16.63,14.49,7.15,0,16,2.49,20.65-4.85.89.89.66,2.31,1.51,3.29l.21.21c6.19,6.74,12.94,15.25,20.86,19.49,0,0,0,0,0,.06,1.32,2.28,6.81,2.71,7.77,4.9l0,.1.05.16a.85.85,0,0,1,0,.16,1.46,1.46,0,0,1,.05.2,1.6,1.6,0,0,1-.05.21,3.19,3.19,0,0,1-.05.42,6.57,6.57,0,0,1-1.67,2.5c-.1,3.5-1.66,7-2.79,10.16v0l.06,0a6.09,6.09,0,0,1,2.61,1c.87-5.12.88-10.36,3.54-15.14l-.38-.39,1.15-.57c-.19-1.57,1-3.49,1.74-5.23A5.24,5.24,0,0,1,136,156a1.17,1.17,0,0,0,1.93-1.15c3.86.19,6.37,3.28,8.1,6.36v0h0c-.19,9.85-2.31,19.11-3.47,28.2h-2.12c.38-1.74.77-4.26-.39-5.61-3.29.59,1,9.46-5.6,6.17-1.74-1.15.77-3.28-1.93-3.47-.38.78-1.16,1.73-.38,2.52a11.25,11.25,0,0,1-4.25-.79c.4-3.08,5-6,2.9-9.07-2.12,2.33-4.64,5.42-4.64,8.51h-1.73c.12-.25.22-.5.33-.75a.76.76,0,0,0-.11.14,9.51,9.51,0,0,0-1,2c4.15,1.83,8.91,2.3,13.29,3.42l1.35,1.72a4.34,4.34,0,0,0,.84,1.78c2.57,3.06,9.3.2,12.67,1.72,3.09.19,7.53,1.51,9.85-1.78l-.37-.36a1.74,1.74,0,0,0,.58-.63,1.63,1.63,0,0,0,.1-.41c0-.32,0-.67,0-1,0-.05,0-.15,0-.2a2,2,0,0,1,.11-.26,1,1,0,0,1,0-.16l.05,0a86.87,86.87,0,0,0,17.33-2.74h0a14.25,14.25,0,0,1-1.2-2l-.06-.23h0l-10.84,2.87c-.39-2.87-.18-5.95-1.72-8.66a2.89,2.89,0,0,0-1.1.53,1.64,1.64,0,0,0-.36.47c-.78,1.53,1,4.15.88,5.94l.37,1.35c-1.28,0-2.68.92-3.86.58a2,2,0,0,1-.26-.11l-.11,0a.47.47,0,0,1-.1-.05,3.56,3.56,0,0,1-.31-.26,3.08,3.08,0,0,1-.37-.47c-2.89-9.07-1.39-18.75-3.7-28.21.19-1.54.42-3.67,2.35-4.43,1.51,0,2.71,0,3.75,0a38.22,38.22,0,0,1,6.67.42c5.6,6.17,2.52,14.69,7.36,21.27a2.12,2.12,0,0,0-.37.21l-.05.05,0,.05-.11.11a1.3,1.3,0,0,0-.1.15s-.05,0-.05.05,0,0,0,.06l-.06.1s0,0,0,0,0,.05,0,.05v.21a.41.41,0,0,1,0,.11s0,0,0,.05l.06.1a2.06,2.06,0,0,0,.31.58c.08.14.13.3.2.45a16.58,16.58,0,0,1,2.4-2.34l.06-.05h0a.32.32,0,0,1-.09,0c.38-1.72-1.93-2.11-1.74-3.48-.38-3.27-2.32-6.75-1.15-9.44,10.23-1.74,16.6-11,24.13-17.39,7.34-5,9.46-11.78,11.78-19.12,4.83,1.55,10,.37,14.28-1.74,1,5.22,7.15,6.76,10.62,10.82h0c-2.32,2.72-5,2.13-8.31,1.74.39-1.17-1-1.17-1-2.13-2.12.59-4.06,4.83-6.57,1.74-4-1.35-4.62,4.06-8.49,1.35l-4,.39c-1.35,4.82,4.63.57,6.19,2.5,2.89,2.71,4.63-5.78,7.71-.76,2.33.76,3.68-1.35,5.22-1.74,1.16,2.5,3.47,1,5.8,1.35,1-.2,1.72-1,2.88-.59,1.93,5,6.17,9.09,10.81,12.19,1.35-3.1-3.28-5-5-7-1.93-2.31-4.63-5.6-4-7.73l-.76-.78c.56.2,1.15-.76,1.72.39,5.41,2.52,12.55,9.66,17.77,6.57a1,1,0,0,1-.39.77c6.38-.77,10.62,6.17,16.42,7.92,4.44,3.08,9.08,5.21,13.9,8.49,3.72,1.7,6.43,3,8.56,6.08A12,12,0,0,0,294.7,165.27ZM141.18,195.59V192.1c1.16.38,1.74-.76,2.7-1l.38,4.46Zm18.73-2.13c.58,1.35-1,2.11-1.35,2.89-2.52,1.15-4.44-2.89-6.95-1.54.19-1.15,1-3.1,0-4.06-1,.38-2.13,1.35-2.13,2.32v2.13h-2.89c-1-1.74,1-4.84-1.73-6.18.58-3.87.58-9.08,1.54-13.9,2.89,1.74,7.34-.59,9.64.57C156.24,181.66,156.43,188.43,159.91,193.46Zm21.82-31.88c-2.32.39-4,2.71-6.95,2.34a47.41,47.41,0,0,1-4-17c10.8-2.91,20.07-10.44,29.72-15.67a14.18,14.18,0,0,1,5.22-4.41,4.08,4.08,0,0,1,3.86,1.72C208.57,143.24,191.58,152.51,181.73,161.58Z"/><path d="M69.17,166.39c.59-2.49,2.74-4.59,4.47-6.33a2.42,2.42,0,0,0,0-.78s0,0,0-.05v-.11l0-.1V159l0-.05-.06-.06a.47.47,0,0,0,0-.1,2.23,2.23,0,0,0-.78-.42,52.79,52.79,0,0,0-6.21,8.16,26.67,26.67,0,0,0,2.67.21A.56.56,0,0,1,69.17,166.39Z"/><path d="M85.84,148.91a.41.41,0,0,0,0-.11,1.42,1.42,0,0,0,0-.16s-.05,0-.05,0,0,0,0-.05l0,0-.06-.05a1.17,1.17,0,0,0-.15-.16,7,7,0,0,0-.68-.31,2.4,2.4,0,0,1-.31-.21l-.06,0c-2.51,2.89-4.65,7.32-6.2,11.36a10.2,10.2,0,0,0-1.58,2.09,1.53,1.53,0,0,0,1.53.42,9.26,9.26,0,0,0,1.4-.49.6.6,0,0,1,.1-.25h-.1c1.17-4,3.31-7.53,5.64-11.21,0,0,0,0,0,0s0,0,0-.05l0-.05,0,0,.05-.06a1.31,1.31,0,0,1,.32-.1h0l.05-.05h0v-.05l0-.06V149S85.85,148.94,85.84,148.91Z"/><path d="M225,163.6l-.14-.1a26.91,26.91,0,0,0-2.33-10h-1.16c-.18,3,2,7.13.86,9.84v0a2.92,2.92,0,0,0,.94.45,3,3,0,0,0,1.8-.11S225,163.62,225,163.6Z"/><path d="M255.11,176.69h0L251.26,173a.73.73,0,0,1-1.35,0c-5.59-5.19-10-9.83-12.93-16.59a1.63,1.63,0,0,0-1.74.59c2.51,7.9,8.5,12.54,13.9,18.71-.57.38-.2,1-.19,1.54v-.06A6,6,0,0,0,255.11,176.69Z"/><path d="M233.39,169.11a.71.71,0,0,1,.21.11l.06,0a4.09,4.09,0,0,0,2.55-.52c-.19-.06-.38-.15-.57-.2-1-5.21-4.83-8.49-5.8-13.33-.77-.18-1,.39-1.54.78.58,4.82,4.81,8.69,5,13.1Z"/><path d="M293.11,174.72c-8.33-6.31-16.52-12.58-25.05-17.76-1.55.76.19,2.1.58,2.89,7.72,5.59,16.61,10.81,23.37,17-.17.29-.35.65-.55,1h0a5,5,0,0,0,1.65-2.87A2.25,2.25,0,0,1,293.11,174.72Z"/><path d="M264.59,177.92c-4.58-4.9-10.87-10-14.29-15.77-.58-.18-1,.39-1.35.78,1.35,4.84,7.92,9.86,11.39,14.3a5.69,5.69,0,0,0-.91,1.07h0a10.24,10.24,0,0,1,5.11-.35Z"/><path d="M270.37,168.72c-5.4-6.94-13.51-10.22-17.37-17.95-.59.37-1.36.37-1.75,1v1.15c10.05,9.09,19.12,21.46,31.3,27,0,.31,0,.65,0,1h0a1.15,1.15,0,0,0,.28-.39c.38-.89.73-1.79,1.05-2.69h0C279.1,175.7,274.56,171.88,270.37,168.72Z"/><path d="M20.51,176.28c0-.05,0-.1,0-.16,7.53-4.83,14.29-9.49,20.86-16.06.7-.88,2.88-1.13,3.39-2.34,0,0,0-.05,0-.06a.47.47,0,0,1,.05-.1.34.34,0,0,1,0-.1v-.11s0,0,0,0l-.05-.05a.88.88,0,0,0-.42-.26c-.88-.22-2.46.54-3.39,1.14a249.15,249.15,0,0,1-23.33,17.45,12.47,12.47,0,0,0,2.89,1v0C20.5,176.5,20.51,176.37,20.51,176.28Z"/><path d="M33.08,155.74a.88.88,0,0,0,.05.15,1,1,0,0,0,.26.31l0,.06.11.05.1.05c.26.11.6.22.89.37a1.37,1.37,0,0,1,.62.62c1.74-.4,3.34-1.92,5.27-2.5,2.7-1.53,6-2.51,7.51-5.22l.36.42v-.62a5.7,5.7,0,0,1,1.78-.79h.41c.08,0,.17,0,.26,0l-.31-.36.57-.57a26,26,0,0,0,5.22-2.87,3,3,0,0,0-.58-2.14c-5.59,2.5-10.42,6.57-15.64,9.85-2.7.6-4.84,3.24-7.35,2.66v-2.29c10.81-3.87,17.39-12.34,26.85-19.5a1,1,0,0,0,.05-.31.43.43,0,0,0,0-.16s0,0,0,0a.54.54,0,0,0-.05-.11l0,0-.05-.05,0-.05-.11,0c-.25-.12-.64-.19-.94-.32l-.1-.05-.11-.05-.05,0-.1-.06L49.66,139c-4.64,5.4-12.18,8.73-18.35,12.41a.34.34,0,0,0,0,.1c0,.06,0,.16-.06.21a.31.31,0,0,1-.05.1.54.54,0,0,1-.05.11l0,0L31,152c-.72.8-2.63.44-3.59,1.88a.86.86,0,0,0,0,.16,2.87,2.87,0,0,0,.05.31s0,.12,0,.16l.05.1s0,0,0,.05l.05.11.06,0s0,0,.05.05l.1.11.05.05.06.05c.68.36,1.95,0,2.71.31l.1.05.11.06.05.05.05,0-.36,1.72c-4.83,6.37-12.76,8.69-17.78,12.93-2.37.76-5.15,3.43-7.66,4.09h0c1.61.27,3.4-.51,4.93-1,.85-.2,1.7-.45,2.54-.72C19.54,166.86,30.14,165.31,33.08,155.74Z"/><path d="M46.16,164.7c5-3.67,9.12-9,14.71-12.15a1.6,1.6,0,0,1-.11-.36V152l.06,0s0-.05,0-.05a.44.44,0,0,1,.1-.16l0-.05a9,9,0,0,1,.84-.52A.75.75,0,0,0,62,151a.24.24,0,0,0,0-.1s0,0,0-.06l.06-.05v-.15a2,2,0,0,0-.26-.58s0,0,0-.05c-.22-.35-.94-.58-1.31-.94-5.79,5.62-11.21,10.25-17.78,15.64-4,2.31-7.55,6.13-11.53,9.07a2,2,0,0,0,.35.31l.08,0a1.66,1.66,0,0,0,.3.22,13.24,13.24,0,0,1,1.19.75C37,171.46,42.12,168,46.16,164.7Z"/><path d="M137.68,120.29l0-.05Z"/><path d="M138.81,117.73v0Z"/><path d="M160.83,123.44c-.24-.42-.48-.84-.7-1.26a.57.57,0,0,0-.38.24.41.41,0,0,1-.24.15h0c-3.48,2.32-6,6-10.79,4.43l-.1-.11c-.06,0-.15-.12-.21-.15l-.16-.06-.16,0c-.27-.08-.61-.13-.88-.21l-.16-.05a1.4,1.4,0,0,1-.16-.1.47.47,0,0,0-.1,0l-.16-.16-.1-.11a1.25,1.25,0,0,1-.1-.31l.15-.15c.71-.81.43-2.21.78-3.29a1.83,1.83,0,0,0-.31-.36,1.53,1.53,0,0,0-1.41-.21,3.36,3.36,0,0,1-1,1.61,1.06,1.06,0,0,1-.21.16l-.31.16a3.94,3.94,0,0,1-.47.1c-1.22.12-2.71-.76-4-1.46,0-.06,0-.15-.05-.21l-.06,0,0-.1-.05-.06a1.82,1.82,0,0,0-.31-.31,1.94,1.94,0,0,0-1.25-.26h-.16l-.36.31,0,0a.45.45,0,0,1-.38.17l-.33.51c3.08,2.5,6.54,3.84,9.81,6.33,5.19,2.11,10.55-.72,14-4.17A6.61,6.61,0,0,0,160.83,123.44Z"/><path d="M139.09,117.06l.09-.21Z"/><path d="M83.64,111.88h0Z"/><path d="M116,126.85s0,.05,0,.05h0s0,0,0,.06l-.06.05s0,0,0,0,0,0,0,0,0,0,0,0a3,3,0,0,0,.53,1.41c1.27.71,2.38,2.38,3.7,2.82l.26.05a2.38,2.38,0,0,0,.26.05c.09,0,.22,0,.31-.05a2.16,2.16,0,0,0,.68-.16c-.77-2.13-3.46-3.67-5.58-4.43Z"/><path d="M76.51,120.85c5.8,6.94,15.24,7.54,22.57,7.93,1.94-.19,3.7-2.13,5.64-1.93.77,3.08,3.06,5.79,4.79,8.29,7.54,5.79,16.22,11.38,25.29,11.78,4.63-4.44,10.28-6.18,14.34-11.21,4.63,4.08,10.22,6.23,14.86,10.28,1.12.54,2.42,1.79,3.38,1.87l-.1-.15.57-.79c-4.63-5-11.78-6.54-16.21-12.14l-.42.36a2,2,0,0,0-2.71-1.25l-.16.1L134.8,144.84l-.11,0a2.49,2.49,0,0,1-3-.47,8.37,8.37,0,0,0,1.78-7.92c-1.94-3.1-6.22-4.65-9.49-4.85,1.73,3.09,5.82,3.12,8.13,5.84a16.11,16.11,0,0,1-2.14,6.93c-9.45-3.68-21.82-8.7-24.71-20.07l-5.79,2.5a27.23,27.23,0,0,1-21.27-6.72c5.8-5.81,18.16-4.85,24.92-3.5V114.7c-10-.76-17.73-2.13-25.65,2.71a2.17,2.17,0,0,1-.57,1c-1.12,1.07-3.45.76-4.7,1.51l-.15.1a1.86,1.86,0,0,0-.37.42c-1.55.78-3.29,2.14-4.64,2.14l-.57.73c-1.93.57-3.68.81-4.64-1.51l0,0A13.16,13.16,0,0,0,59.48,123h.61C65.3,129.74,71.1,121.82,76.51,120.85Z"/><path d="M139.38,116.27a2.09,2.09,0,0,1,.08-.23A2.09,2.09,0,0,0,139.38,116.27Z"/><path d="M50.44,167.78c-2.13.56-5.41,3.69-6,6v.12L47,174c1-1.93,2.71-3.67,4-5.4Z"/><path d="M70.51,150c-7,4.31-9,12.29-14.09,18.21A9.3,9.3,0,0,0,58,169.55l0,0,0,0,2.92-3.86.36.42a28.64,28.64,0,0,1,5.22-8.71C66.64,153.87,72.05,153.67,70.51,150Z"/><path d="M295,169.53a12,12,0,0,0-.64-4.13c-1.05-3.58-11-8.11-15.65-13.53-9.1-4.44-18.53-11.88-27.37-17.7h0s-5.07-3.73-5-3.74l.1-.05c.14-.07-21.92-17.67-36.39-18-15.65-3.88-22.43,19.47-38.27,16-2.61.13-6.39.07-9-1.37a1.92,1.92,0,0,0-.22-.39,30.62,30.62,0,0,1-3.26-5.44,1.65,1.65,0,0,0-.06-.32c-.63-3.58-4.08-7.53-2.11-11.61,2.13-2.89,4.85-1.18,8.13-2.14a5,5,0,0,0,.89,1.46,2.13,2.13,0,0,0,.26.26,1.67,1.67,0,0,0,1.56.42,6.09,6.09,0,0,0-2.14-7c-2.12-.76-4.8-.36-6.15,1a2.26,2.26,0,0,1-1.3.84h-.16l-.1,0-.16-.06-.1,0-.06,0a1.43,1.43,0,0,1-.15-.11.12.12,0,0,1-.05,0c-.7-.73-1.15-2.3-1.83-2.76a2.32,2.32,0,0,1-.42.1,3.66,3.66,0,0,1-2-.52l.37-.36a20.64,20.64,0,0,0-2.25-.06,14.78,14.78,0,0,0-5.11,1c-5.79,1.74-6.35,8.68-6.93,14.28-.34,2-1.71,4-2.17,5.69l-.86,1.33-.05,0c-3.28,2.32-6.73,5.57-11.36,3.86C113,122.91,104.34,110.59,91.41,111c-.23,0-.45,0-.68,0-9.53.53-21.29,4.59-29.21,11a13.88,13.88,0,0,0-2.42,1.18h-.33c-18.16,18-43.09,29.14-57.77,50a3.23,3.23,0,0,0,3.77,1.37c1.61.28,3.39-.51,4.92-1,.86-.2,1.7-.45,2.54-.72l0,0-.05.1a2.71,2.71,0,0,0,1.77,3h3.13l.19-.13a12.27,12.27,0,0,0,2.88,1v0a.67.67,0,0,0,.06.15l0,.11.05.1.05,0,.06.06a5.7,5.7,0,0,0,1.46.73,19.41,19.41,0,0,0,9-4,2.59,2.59,0,0,0,.35.31l.08,0a1.33,1.33,0,0,0,.3.23c.41.23.81.48,1.2.74l0,0c3,2.83,6.63-.8,10.32-1.3a1.65,1.65,0,0,0,.32,0l3.24.08v0a5.32,5.32,0,0,0,5.79-2.35A20.42,20.42,0,0,0,56,168.34a8.94,8.94,0,0,0,1.68,1.46,5.39,5.39,0,0,0,4.12,2,30.8,30.8,0,0,0,4.22-5.13,26.9,26.9,0,0,0,3.58.23c3.35.89,4.92-2.77,6.63-5.58a1.51,1.51,0,0,0,1.53.42,8.5,8.5,0,0,0,1.67-.6c.6.43,1.1,1.5,1.72,1.85h0l.05.06s0,0,0,0,0,0,.06,0l.1,0h.16l.1,0s0,0,0,0l.11-.06h0a1.89,1.89,0,0,0,.36-.26l.11-.1c.08-.08.18-.21.26-.31,1.33-1.74,2.53-4,3.86-5.53,0,0,.08,0,.1.05l0,.05a1.6,1.6,0,0,1,.21.26s0,.09.06.11,0,0,0,.05a4.24,4.24,0,0,1,.1,1.56V159a.66.66,0,0,1,0,.15c-.21,1-1.38,1.83-1.77,2.66a1.09,1.09,0,0,1-.06.11.47.47,0,0,1,0,.1.41.41,0,0,1,0,.11,1.6,1.6,0,0,0,0,.21s0,.08,0,.1a.34.34,0,0,1,0,.1s0,.08,0,.11a.53.53,0,0,0,.06.1,2.1,2.1,0,0,0,.83.78c2.51-.78,4.86-2.3,5.63-5a1.56,1.56,0,0,1,.58.52l.05.05s0,.12,0,.16c.53,1.57-1.74,4.37-1.72,5.58a.74.74,0,0,0,0,.21s0,0,0,.05l0,0s0,.05,0,.05,0,0,.06,0,0,0,0,0l0,.06H91l0,.05h.06a5.73,5.73,0,0,0,2.76-.47l0-.05a1.25,1.25,0,0,0,.37-.31l.1-.16c.16-.3.26-.68.42-.94l.05,0a.69.69,0,0,1,.42-.26,1.13,1.13,0,0,1,.52,0,1.58,1.58,0,0,1,.52.41c0,.06.13.15.16.21a1.58,1.58,0,0,1,.1.47,2.19,2.19,0,0,1-.36,1.15,2.75,2.75,0,0,1-.42.47c2.13,2.69,5.59,1.94,7.72,4.64.58-1,1.13-1.91,1.72-2.87h1s0,0,0,0a8.22,8.22,0,0,1,0,.89.34.34,0,0,0,0,.1s0,0,.05.06v0l0,.05,0,.05a.54.54,0,0,0,.11,0s0,.09,0,.11a1.83,1.83,0,0,0-.26.21c-.42.46-.54,1.1-.89,1.51a1.83,1.83,0,0,1-.26.21l-.16.1h0c.39,1.06.86,1.5,1.36,1.57a2,2,0,0,0,.47-.06c.64-.14,1.34-.6,1.87-.73,0,0,.08,0,.11-.05h.15l.16.05.1.06a.8.8,0,0,1,.26.26,3.55,3.55,0,0,1,.32,1.41,5,5,0,0,0,1.72,1.25,2.75,2.75,0,0,0,1.2.1c1-.89,1.63-2.85,3-3.08h.42c.19,1.95-.59,4.25.57,5.79a1.56,1.56,0,0,0,1,.11l.26-.11A7.24,7.24,0,0,1,119,177a1.51,1.51,0,0,1,.52,0,2.9,2.9,0,0,0,0,.62s0,.08,0,.11,0,.08,0,.1l0,.11.06.1,0,.05a.86.86,0,0,0,.1.16l.05,0a5.94,5.94,0,0,0,1,.52l.06.06,2.4,1.19a1.46,1.46,0,0,1,.07-.19l.07,0a6.1,6.1,0,0,1,2.61,1.05,25.84,25.84,0,0,1-1.73,6.11l-.11.15a9.53,9.53,0,0,0-1,2c-.55-.25-1.1-.51-1.62-.8l-4.23-1.25c-2.64-1-6.2-1.89-5.58-5.74h-.62l-.11.05H111c-.72.3-1.14,1.19-1.72,1.46l-.05,0h-.11l0,.06h-.21l-.1-.06h-.11l-.1,0-.1-.05-.11,0-.26-.16a.94.94,0,0,1-.1-.1c-1.23-1.4-1.22-3.73-2.92-4.75a4.42,4.42,0,0,0-.58-.26c-.39,1.18-.38,2.53-1.35,3.5-2.9-1.55-6.17-3.1-8.29-5.79a2.61,2.61,0,0,0-.52,1.14,7.43,7.43,0,0,1-.26,2.35c-3.48-1.18-3.25-5.45-7.51-5.26-.56,1-.42,2.71-.42,3.49l0,0a1.88,1.88,0,0,1-.31.21,3.18,3.18,0,0,1-.32.16l-.31.05h-.26a.33.33,0,0,0-.1,0c-1.52-.26-3.16-2.5-5-2.92a2.75,2.75,0,0,0-.57,0l-.37-.37c-1.35,1.52.19,2.87-1.35,4.22-2.52-1.18-5.23-3.66-7.93-1.72.19,2.9.79,5-1.51,7.3a2.45,2.45,0,0,0,1,.63h.52l.16-.05c1.21-.41,2.1-2.54,3.33-3.08,1.66-.14,3-2,4.54-2.5a2.24,2.24,0,0,1,2,.36,2.69,2.69,0,0,1,.05,1.93c-.5,1.25-1.9,2.13-2.39,3.29l-.11.2v.06l-.05.15c1.45.8,2.5.91,3.23.63l.16,0,.1-.06.16-.1,0-.05c1.51-1.21,1.65-4.59,3-6.05l.11-.1a1.71,1.71,0,0,1,.26-.21l.15-.11.11-.05.21-.1c.82-.27,2,0,3.7,1l0,.1.11.21a3.63,3.63,0,0,1,.1.42c.24,1.51-1.23,2.9-1.36,3.91v.31a1,1,0,0,0,.06.16l.05.05.1.16,0,0,.26.21a4.25,4.25,0,0,0,1.15.42c1.54-1.75,2.55-4,5.06-4.64.77,1,1.35,2.51.57,3.49-.2.3-.48.49-.62.73l0,.1v.05l-.06.06v.26a.88.88,0,0,0,.06.1s0,.05,0,.05a.54.54,0,0,0,0,.11l0,.05c3.66,2.3,5.38-5.42,10-2.14.19,2.13-.59,3.5.57,4.85,2.51-.59,4.83-3.27,7.72-1.72a2.63,2.63,0,0,1,.26.16l0,0c1,1.08,1.47,4.34,2.77,5.16l.1.05c.59.26,1.4.07,2.45-1,3.67,0,6.75,3.48,10.43,1.15,2.51-.95,4.69-.25,8.08,5.73l52,1.57c8.21-7.34,18.47-9.44,27.74-9.44l0-.05c.17-.15.38-.3.52-.42l.16-.15.05-.06v-.26c-10-3.28-16.22,2.89-26.07,3.08-.25-.64-.89-1.24-1.14-1.77l-.06-.11s0,0,0-.05,0-.15,0-.21v-.1s0-.11,0-.16l0,0s0,0,0-.05c7.34-2.51,13-8.9,21.64-8.71a25.08,25.08,0,0,0,10.85-4.8,9,9,0,0,0-6-.41c-3.08,1.93-7.15,6.19-10.43,3.49.95-3.08,5.2-3.7,6.94-6.2,0-.05,0-.12-.06-.16a.54.54,0,0,0,0-.11l-.05,0a1.14,1.14,0,0,0-.16-.15l-.05-.06,0-.05-.1,0-.16-.05-.21,0a1.47,1.47,0,0,0-.21,0h-.05a.43.43,0,0,0-.16,0s0,0,0,0-.05,0-.05,0,0,0-.05,0a2.6,2.6,0,0,0-.84.36c-7.52,7-17.38,12-26.07,15.64-1.67.55-3.38,1-5.11,1.49a14.83,14.83,0,0,1-1.2-2l-.06-.24h0s0,0,0-.06a4.56,4.56,0,0,1-.13-.53,1.33,1.33,0,0,0-.35-.65c-.45-1.65-.38-3.62-1.07-5.25a16.6,16.6,0,0,1,2.41-2.33l0,0c2,.84,1.66-2.16,3-2.92,1.35-1.17,2.32.58,3.48.78.37-1.18.37-2.34,1.34-3.12,1.16-1.13,3.28-.76,4.63-.37l.19-4.82c2.52-1.55,1.94,2.32,3.48,2.71,2.32-1.17-.19-5,2.9-5.22-.2,2.51,2.12,1.55,3.47,2.7,1.93-1.54,1-4.44,2.7-5.79,1.16.57,1.16,1.53,1.16,2.7h.58l-.39-.39c1.54-4.63,8.5-1.94,10.81-6.18,2.9-.58,3.86,3.29,5.61,4.44a1.34,1.34,0,0,1,.07-.18,2.8,2.8,0,0,0,1,.46,3.1,3.1,0,0,0,1.9-.14c3.33,2,5.26,5.84,8.85,5.84l-.25-.23a4.12,4.12,0,0,0,2.58-.53c4.69,1.6,7.91,6.65,12.72,8.51v-.08a6,6,0,0,0,6.16-.47l2.53,2.46c.76.51,1.27-.14,1.8-.86a10.28,10.28,0,0,1,5.18-.33q.48.51.93,1c2.32.39,5.81,2.3,7.72-.39,3.1-.39,6,1.73,8.7,3.47a1.19,1.19,0,0,0,.59-1.17,1.26,1.26,0,0,0,.28-.39c.39-.89.73-1.79,1.05-2.7a19.4,19.4,0,0,0,4.25,1.35c1.66,1.36,2.61,0,3.32-1.29a5,5,0,0,0,1.7-3.1l1,.73,1.34.2c1.35-.39,1.35-2.33,1.35-3.68A16.74,16.74,0,0,0,295,169.53Zm-71.39-8.77Z" fill="none" stroke="#000" stroke-linecap="round" stroke-linejoin="round" stroke-width="2"/></svg>