<svg xmlns="http://www.w3.org/2000/svg" width="1200" height="600" viewbox="0 0 1200 600"><defs><clipPath id="a"><path fill="none" d="M0 0h583.33v333.75H0z"/></clipPath></defs><path fill="#00247d" d="M0 0h1200v600H0z"/><path fill="#cf142b" d="M0 0h1200v66.67H0z"/><path fill="#fff" d="M0 66.67h1200v66.67H0z"/><path fill="#cf142b" d="M0 200h1200v66.67H0z"/><path fill="#fff" d="M0 266.67h1200v66.67H0z"/><path fill="#cf142b" d="M0 400h1200v66.67H0z"/><path fill="#fff" d="M0 466.67h1200v66.67H0z"/><g clip-path="url(#a)"><path fill="#00237d" d="M0 0h583.33v333.75H0z"/><path fill="#fff" d="M236.11-10.11h111.11v368.44H236.11z"/><path fill="#fff" d="M600.46 28.06V-9.77h-68.32l-540.43 309v39.28h65.77L600.46 28.06z"/><path fill="#fff" d="M-6.38-3.6v39.29l535.72 306.24h68.32v-37.82L59.39-3.6H-6.38z"/><path fill="#cf142b" d="M-4.23 336.6h44.19l267.9-153.12L297 164.43-4.23 336.6z"/><path fill="#cf142b" d="M301.01 147.61l-10.86 19.05 306.77 175.26.95-24.72-296.86-169.59zM-8.46 21.25l289.96 165.8L292.36 168-8.46-4.02v25.27z"/><path fill="#cf142b" d="M545.79-3.09l-301.51 172.4 10.87 19.05L588.71-2.36l-42.92-.73z"/><path fill="#fff" d="M595.31 111.81v22.41H-23.84v-22.41zm.01 89.17v22.41H-23.83v-22.41z"/><path fill="#cf142b" d="M595.32 134.21v66.77H-23.83v-66.77z"/><path fill="#cf142b" d="M258.31-10.11H325v368.44h-66.69z"/></g></svg>
