<svg xmlns="http://www.w3.org/2000/svg" width="600" height="315.79"><path fill="#bf0a30" d="M0 0h600v315.79H0z"/><path fill="#fff" d="M0 24.29h600v24.29H0zM0 72.87h600v24.29H0zM0 121.46h600v24.29H0zM0 170.04h600v24.29H0zM0 218.62h600v24.29H0zM0 267.21h600v24.29H0z"/><path d="M0 0v170h239.92V0z" fill="#002868" fill-rule="evenodd"/><path d="M206.58 31.12l-5.75-4.18h7.11l2.2-6.77 2.19 6.77h7.12l-5.76 4.18 2.2 6.76-5.75-4.18-5.76 4.18zM170.51 31.12l-5.75-4.18h7.11l2.2-6.77 2.19 6.77h7.12l-5.76 4.18 2.2 6.76-5.75-4.18-5.76 4.18zM134.44 31.12l-5.75-4.18h7.11l2.2-6.77 2.19 6.77h7.12l-5.76 4.18 2.2 6.76L138 33.7l-5.76 4.18zM98.37 31.12l-5.76-4.18h7.12l2.19-6.77 2.2 6.77h7.11l-5.75 4.18 2.2 6.76-5.76-4.18-5.75 4.18zM62.3 31.12l-5.75-4.18h7.11l2.19-6.77 2.2 6.77h7.12l-5.76 4.18 2.2 6.76-5.76-4.18-5.75 4.18zM26.23 31.12l-5.76-4.18h7.12l2.19-6.77L32 26.94h7.11l-5.75 4.18 2.2 6.76-5.78-4.18L24 37.88zM206.58 68.45l-5.75-4.18h7.11l2.2-6.77 2.19 6.77h7.12l-5.76 4.18 2.2 6.76-5.75-4.21-5.76 4.18zM170.51 68.45l-5.75-4.18h7.11l2.2-6.77 2.19 6.77h7.12l-5.76 4.18 2.2 6.76-5.75-4.21-5.76 4.18zM134.44 68.45l-5.75-4.18h7.11l2.2-6.77 2.19 6.77h7.12l-5.76 4.18 2.2 6.76L138 71l-5.76 4.18zM98.37 68.45l-5.76-4.18h7.12l2.19-6.77 2.2 6.77h7.11l-5.75 4.18 2.2 6.76-5.76-4.21-5.75 4.18zM62.3 68.45l-5.75-4.18h7.11l2.19-6.77 2.2 6.77h7.12l-5.76 4.18 2.2 6.76L65.85 71l-5.75 4.21zM26.23 68.45l-5.76-4.18h7.12l2.19-6.77L32 64.27h7.11l-5.75 4.18 2.2 6.76L29.78 71 24 75.21zM206.58 105.77l-5.75-4.18h7.11l2.2-6.76 2.19 6.76h7.12l-5.76 4.18 2.2 6.77-5.75-4.18-5.76 4.18zM170.51 105.77l-5.75-4.18h7.11l2.2-6.76 2.19 6.76h7.12l-5.76 4.18 2.2 6.77-5.75-4.18-5.76 4.18zM134.44 105.77l-5.75-4.18h7.11l2.2-6.76 2.19 6.76h7.12l-5.76 4.18 2.2 6.77-5.75-4.18-5.76 4.18zM98.37 105.77l-5.76-4.18h7.12l2.19-6.76 2.2 6.76h7.11l-5.75 4.18 2.2 6.77-5.76-4.18-5.75 4.18zM62.3 105.77l-5.75-4.18h7.11l2.19-6.76 2.2 6.76h7.12l-5.76 4.18 2.2 6.77-5.76-4.18-5.75 4.18zM26.23 105.77l-5.76-4.18h7.12l2.19-6.76 2.2 6.76h7.11l-5.75 4.18 2.2 6.77-5.76-4.18-5.78 4.18zM206.58 143.1l-5.75-4.18h7.11l2.2-6.76 2.19 6.76h7.12l-5.76 4.18 2.2 6.77-5.75-4.18-5.76 4.18zM170.51 143.1l-5.75-4.18h7.11l2.2-6.76 2.19 6.76h7.12l-5.76 4.18 2.2 6.77-5.75-4.18-5.76 4.18zM134.44 143.1l-5.75-4.18h7.11l2.2-6.76 2.19 6.76h7.12l-5.76 4.18 2.2 6.77-5.75-4.18-5.76 4.18zM98.37 143.1l-5.76-4.18h7.12l2.19-6.76 2.2 6.76h7.11l-5.75 4.18 2.2 6.77-5.76-4.18-5.75 4.18zM62.3 143.1l-5.75-4.18h7.11l2.19-6.76 2.2 6.76h7.12l-5.76 4.18 2.2 6.77-5.76-4.18-5.75 4.18zM26.23 143.1l-5.76-4.18h7.12l2.19-6.76 2.2 6.76h7.11l-5.75 4.18 2.2 6.77-5.76-4.18-5.78 4.18z" fill="#fff" fill-rule="evenodd"/></svg>