<svg xmlns="http://www.w3.org/2000/svg" width="600" height="315.79" viewBox="0 0 600 315.79"><path fill="#bf0a30" d="M0 0h600v315.79H0z"/><path fill="#fff" d="M0 24.29h600v24.29H0zM0 72.87h600v24.29H0zM0 121.46h600v24.29H0zM0 170.04h600v24.29H0zM0 218.62h600v24.29H0zM0 267.21h600v24.29H0z"/><path fill="#002664" d="M0 0h240v170.04H0z"/><path fill="#fff" d="M120 7.96l-2.18 6.72h-7.07l5.72 4.15-2.19 6.72L120 21.4l5.72 4.15-2.19-6.72 5.72-4.15h-7.07L120 7.96zM120 30.38l-2.18 6.72h-7.07l5.72 4.15-2.19 6.72 5.72-4.15 5.72 4.15-2.19-6.72 5.72-4.15h-7.07L120 30.38zM120 52.8l-2.18 6.72h-7.07l5.72 4.15-2.19 6.72 5.72-4.15 5.72 4.15-2.19-6.72 5.72-4.15h-7.07L120 52.8zM120 75.22l-2.18 6.72h-7.07l5.72 4.15-2.19 6.73 5.72-4.16 5.72 4.16-2.19-6.73 5.72-4.15h-7.07L120 75.22zM120 97.64l-2.18 6.72h-7.07l5.72 4.16-2.19 6.72 5.72-4.16 5.72 4.16-2.19-6.72 5.72-4.16h-7.07L120 97.64zM120 120.06l-2.18 6.72h-7.07l5.72 4.16-2.19 6.72 5.72-4.16 5.72 4.16-2.19-6.72 5.72-4.16h-7.07l-2.18-6.72zM122.18 149.21l-2.18-6.73-2.18 6.73h-7.07l5.72 4.15-2.19 6.72 5.72-4.15 5.72 4.15-2.19-6.72 5.72-4.15h-7.07zM150.85 30.38l-2.18 6.72h-7.07l5.72 4.15-2.18 6.72 5.71-4.15 5.72 4.15-2.18-6.72 5.71-4.15h-7.06l-2.19-6.72zM150.85 52.8l-2.18 6.72h-7.07l5.72 4.15-2.18 6.72 5.71-4.15 5.72 4.15-2.18-6.72 5.71-4.15h-7.06l-2.19-6.72zM150.85 75.22l-2.18 6.72h-7.07l5.72 4.15-2.18 6.73 5.71-4.16 5.72 4.16-2.18-6.73 5.71-4.15h-7.06l-2.19-6.72zM150.85 97.64l-2.18 6.72h-7.07l5.72 4.16-2.18 6.72 5.71-4.16 5.72 4.16-2.18-6.72 5.71-4.16h-7.06l-2.19-6.72zM153.04 126.78l-2.19-6.72-2.18 6.72h-7.07l5.72 4.16-2.18 6.72 5.71-4.16 5.72 4.16-2.18-6.72 5.71-4.16h-7.06zM181.71 52.8l-2.19 6.72h-7.06l5.71 4.15-2.18 6.72 5.72-4.15 5.71 4.15-2.18-6.72 5.72-4.15h-7.07l-2.18-6.72zM181.71 75.22l-2.19 6.72h-7.06l5.71 4.15-2.18 6.73 5.72-4.16 5.71 4.16-2.18-6.73 5.72-4.15h-7.07l-2.18-6.72zM183.89 104.36l-2.18-6.72-2.19 6.72h-7.06l5.71 4.16-2.18 6.72 5.72-4.16 5.71 4.16-2.18-6.72 5.72-4.16h-7.07zM212.59 52.8l-2.18 6.72h-7.07l5.72 4.15-2.19 6.72 5.72-4.15 5.72 4.15-2.19-6.72 5.72-4.15h-7.07l-2.18-6.72zM209.06 41.25l-2.19 6.72 5.72-4.15 5.72 4.15-2.19-6.72 5.72-4.15h-7.07l-2.18-6.72-2.18 6.72h-7.07l5.72 4.15zM212.59 75.22l-2.18 6.72h-7.07l5.72 4.15-2.19 6.73 5.72-4.16 5.72 4.16-2.19-6.73 5.72-4.15h-7.07l-2.18-6.72zM212.59 97.64l-2.18 6.72h-7.07l5.72 4.16-2.19 6.72 5.72-4.16 5.72 4.16-2.19-6.72 5.72-4.16h-7.07l-2.18-6.72zM214.77 126.78l-2.18-6.72-2.18 6.72h-7.07l5.72 4.16-2.19 6.72 5.72-4.16 5.72 4.16-2.19-6.72 5.72-4.16h-7.07zM89.15 30.38l-2.19 6.72H79.9l5.71 4.15-2.18 6.72 5.72-4.15 5.71 4.15-2.18-6.72 5.72-4.15h-7.07l-2.18-6.72zM89.15 52.8l-2.19 6.72H79.9l5.71 4.15-2.18 6.72 5.72-4.15 5.71 4.15-2.18-6.72 5.72-4.15h-7.07l-2.18-6.72zM89.15 75.22l-2.19 6.72H79.9l5.71 4.15-2.18 6.73 5.72-4.16 5.71 4.16-2.18-6.73 5.72-4.15h-7.07l-2.18-6.72zM89.15 97.64l-2.19 6.72H79.9l5.71 4.16-2.18 6.72 5.72-4.16 5.71 4.16-2.18-6.72 5.72-4.16h-7.07l-2.18-6.72zM91.33 126.78l-2.18-6.72-2.19 6.72H79.9l5.71 4.16-2.18 6.72 5.72-4.16 5.71 4.16-2.18-6.72 5.72-4.16h-7.07zM58.3 52.8l-2.19 6.72h-7.07l5.72 4.15-2.18 6.72 5.72-4.15 5.71 4.15-2.18-6.72 5.72-4.15h-7.07L58.3 52.8zM58.3 75.22l-2.19 6.72h-7.07l5.72 4.15-2.18 6.73 5.72-4.16 5.71 4.16-2.18-6.73 5.72-4.15h-7.07l-2.18-6.72zM60.48 104.36l-2.18-6.72-2.19 6.72h-7.07l5.72 4.16-2.18 6.72 5.72-4.16 5.71 4.16-2.18-6.72 5.72-4.16h-7.07zM27.41 52.8l-2.18 6.72h-7.07l5.72 4.15-2.19 6.72 5.72-4.15 5.72 4.15-2.19-6.72 5.72-4.15h-7.07l-2.18-6.72zM27.41 30.38l-2.18 6.72h-7.07l5.72 4.15-2.19 6.72 5.72-4.15 5.72 4.15-2.19-6.72 5.72-4.15h-7.07l-2.18-6.72zM27.41 75.22l-2.18 6.72h-7.07l5.72 4.15-2.19 6.73 5.72-4.16 5.72 4.16-2.19-6.73 5.72-4.15h-7.07l-2.18-6.72zM27.41 97.64l-2.18 6.72h-7.07l5.72 4.16-2.19 6.72 5.72-4.16 5.72 4.16-2.19-6.72 5.72-4.16h-7.07l-2.18-6.72zM29.59 126.78l-2.18-6.72-2.18 6.72h-7.07l5.72 4.16-2.19 6.72 5.72-4.16 5.72 4.16-2.19-6.72 5.72-4.16h-7.07z"/></svg>