<svg xmlns="http://www.w3.org/2000/svg" width="600" height="315.79" viewBox="0 0 600 315.79"><path fill="#bf0a30" d="M0 0h600v315.79H0z"/><path fill="#fff" d="M0 24.29h600v24.29H0zM0 72.87h600v24.29H0zM0 121.46h600v24.29H0zM0 170.04h600v24.29H0zM0 218.62h600v24.29H0zM0 267.21h600v24.29H0z"/><path d="M0 0v170h240.22V0z" fill="#002868" fill-rule="evenodd"/><path d="M205.86 20.62H213l2.2-6.76 2.2 6.76h7.11l-5.75 4.18 2.2 6.77-5.76-4.18-5.75 4.18 2.2-6.77zM205.86 145.24H213l2.2-6.77 2.2 6.77h7.11l-5.75 4.18 2.2 6.76-5.79-4.18-5.75 4.18 2.2-6.76zM174.22 20.62h7.12l2.19-6.76 2.2 6.76h7.11l-5.75 4.18 2.2 6.77-5.76-4.18-5.75 4.18L180 24.8zM142.59 20.62h7.11l2.2-6.76 2.19 6.76h7.12l-5.76 4.18 2.2 6.77-5.75-4.18-5.76 4.18 2.2-6.77zM111 20.62h7.11l2.2-6.76 2.2 6.76h7.11l-5.75 4.18 2.13 6.77-5.75-4.18-5.75 4.18 2.19-6.77zM79.31 20.62h7.11l2.2-6.76 2.2 6.76h7.11l-5.75 4.18 2.2 6.77-5.76-4.18-5.75 4.18 2.2-6.77zM47.67 20.62h7.12L57 13.86l2.2 6.76h7.11l-5.77 4.18 2.2 6.77L57 27.39l-5.75 4.18 2.2-6.77zM16 20.62h7.11l2.2-6.76 2.19 6.76h7.12L28.9 24.8l2.2 6.77-5.75-4.18-5.76 4.18 2.2-6.77zM190 82.93h7.12l2.19-6.77 2.2 6.77h7.11l-5.75 4.18 2.2 6.77-5.76-4.19-5.75 4.19 2.2-6.77zM158.41 82.93h7.11l2.2-6.77 2.19 6.77H177l-5.76 4.18 2.2 6.77-5.75-4.19-5.69 4.19 2.2-6.77zM126.77 82.93h7.11l2.2-6.77 2.2 6.77h7.11l-5.76 4.18 2.2 6.77-5.75-4.19-5.76 4.19 2.2-6.77zM95.13 82.93h7.11l2.2-6.77 2.2 6.77h7.11L108 87.11l2.19 6.77-5.75-4.19-5.75 4.19 2.19-6.77zM63.49 82.93h7.11l2.2-6.77 2.2 6.77h7.11l-5.75 4.18 2.2 6.77-5.76-4.19-5.75 4.19 2.2-6.77zM31.86 82.93H39l2.2-6.77 2.19 6.77h7.12l-5.76 4.18 2.2 6.77-5.75-4.19-5.76 4.19 2.2-6.77zM190 51.78h7.12l2.23-6.78 2.2 6.77h7.11L202.91 56l2.2 6.76-5.76-4.18-5.75 4.18 2.2-6.76zM158.41 51.78h7.11l2.2-6.77 2.19 6.77H177L171.27 56l2.2 6.76-5.75-4.18-5.72 4.14 2.2-6.76zM126.77 51.78h7.11l2.2-6.77 2.2 6.77h7.11L139.63 56l2.2 6.76-5.75-4.18-5.76 4.18 2.2-6.76zM95.13 51.78h7.11l2.2-6.77 2.2 6.77h7.11L108 56l2.19 6.76-5.75-4.18-5.75 4.18 2.19-6.76zM63.49 51.78h7.11L72.8 45l2.2 6.78h7.11L76.36 56l2.2 6.76-5.76-4.22-5.75 4.18 2.2-6.72zM31.86 51.78H39L41.17 45l2.19 6.77h7.12L44.72 56l2.2 6.76-5.75-4.18-5.76 4.18 2.2-6.76zM190 114.08h7.12l2.19-6.76 2.2 6.76h7.11l-5.75 4.18 2.2 6.77-5.76-4.18-5.71 4.15 2.2-6.77zM158.41 114.08h7.11l2.2-6.76 2.19 6.76H177l-5.76 4.18 2.2 6.77-5.75-4.18L162 125l2.2-6.77zM126.77 114.08h7.11l2.2-6.76 2.2 6.76h7.11l-5.76 4.18 2.2 6.77-5.75-4.18-5.76 4.15 2.2-6.77zM95.13 114.08h7.11l2.2-6.76 2.2 6.76h7.11l-5.75 4.18 2.19 6.77-5.75-4.18-5.75 4.15 2.19-6.77zM63.49 114.08h7.11l2.2-6.76 2.2 6.76h7.11l-5.75 4.18 2.2 6.77-5.76-4.18-5.75 4.15 2.2-6.77zM31.86 114.08H39l2.2-6.76 2.19 6.76h7.12l-5.76 4.18 2.2 6.77-5.75-4.18-5.79 4.15 2.2-6.77zM174.22 145.24h7.12l2.19-6.77 2.2 6.77h7.11l-5.75 4.18 2.2 6.76-5.76-4.18-5.75 4.18 2.2-6.76zM142.59 145.24h7.11l2.2-6.77 2.19 6.77h7.12l-5.76 4.18 2.2 6.76-5.75-4.18-5.76 4.18 2.2-6.76zM111 145.24h7.11l2.2-6.77 2.2 6.77h7.11l-5.75 4.18 2.19 6.76-5.8-4.18-5.75 4.18 2.19-6.76zM79.31 145.24h7.11l2.2-6.77 2.2 6.77h7.11l-5.75 4.18 2.2 6.76-5.76-4.18-5.75 4.18 2.2-6.76zM47.67 145.24h7.12l2.21-6.77 2.2 6.77h7.11l-5.75 4.18 2.2 6.76L57 152l-5.75 4.18 2.2-6.76zM16 145.24h7.11l2.2-6.77 2.19 6.77h7.12l-5.76 4.18 2.2 6.76-5.71-4.18-5.76 4.18 2.2-6.76z" fill="#fff" fill-rule="evenodd"/></svg>