<svg xmlns="http://www.w3.org/2000/svg" width="600" height="400" viewBox="0 0 600 400"><path fill="#0071bc" d="M0 0h600v400H0z"/><path d="M336.92 292.94S348.18 281 359 283.3c3.24-12.56 15.48-13.53 15.48-13.53s-1.19-13.86 14.5-16.89c.44-9.42 10-17.21 10-17.21s-1.95-14.62 8-18c-6.06-11.59 2.06-20 2-20.25s-10.28-18.29-1.19-23.49c-9.63-8.12-6.49-17.32-6.49-17.32s-10.5-2.71-6.72-15.27c-8.66-1.51-10.39-15.48-10.39-15.48s-13.31 2.71-14.94-8.87c-8.77 1.4-9.74-7.26-9.85-7.26s-17.43 4.66-20.89-8.44c-6.72 3.46-9.64-2.71-9.64-2.71s-9.63 4.76-15.37-4.44c-11.48 7.15-17.87-.32-17.87-.32s-15 10-20 2.27c-8.88 9-16.78 5.09-16.78 5.09s-6.72 11.91-17.54 8.88c-2.49 11-14.94 11.26-14.94 11.26s1.3 9.74-13.64 12.34c-1.95 11.47-9.75 13.42-9.75 13.42s.76 11.15-6.28 14.72c2.49 6.28-4 14-4 14s6.93 8.66-2.49 18.4c9.09 2.39 2.49 18.08 2.49 18.08s12.56 5.63 4.65 16c9 2.92 6.18 10.07 6.28 14.29 5.74 2.6 10.83 1.3 8.34 12.88 17.65 2 9.31 11.69 9.31 11.69s8.23.33 5 6.82c15.05-.32 17.21 11.26 17.21 11.26s14-3.68 15.81 1.73-6.06 41.9-6.06 41.9a30.58 30.58 0 01-20.57-9.42c-20.57-.54-16-14.07-16.35-14.07s-6.82 2.49-10.18-8.77c-13.75 2.81-13.31-8.77-13.42-8.88s-6.17-2.81-3.9-8.55c-14.18 1.3-13.1-12.56-13.1-12.56a6.17 6.17 0 01-3.79-7c-1.84-.65-14.4-.86-7.9-17.43-12-7.25-4.55-15.59-4.55-15.59s-16.56-8.55-3.79-18.4c-9.52-14.07.76-21.11.76-21.11s-13.21-13.42.22-22.95c-2.17-20.35 10-25.23 10-25.23s-6.39-16.56 10.93-23.49c1.09-16.78 13.21-17.21 13.21-17.21s.33-13.32 19.38-12c3.68-11.91 16.67-9.53 16.67-9.53s4-14.39 21.65-7.47c9-17.53 22.3-8.55 22.3-8.55s8.45-5.52 12.67-3.79c5.36-9.21 16.78-.35 24.16 1.43 2.67-1 12.22-8.25 19.58.85 9.74-6.39 18.08 5.08 18.08 5.08s13.42-6.82 19.7 8.77c28.47-2.59 24.36 16 24.36 16s22.41-5.09 17.54 17.21C427.1 107.6 425 121 425 121s12.89 9.74 7.26 18.51c11.47.54 7.25 11.59 7.25 11.59s8.77 3.35 1.52 17c16.78 13.43 3.24 26.74 3.14 26.64s9 10.82.75 23.38c2.49 19.92-7.57 25-7.57 25S440 256 428.72 259.7c-.21 15.16-14.5 17-14.5 17s3.79 6.58-10.4 13.51c-.55 10.14-15.37 11-15.37 11s-1.41 18.62-20.24 13.64c-4.57 14.94-26.63 10.5-27.07 10.28s-4.22-32-4.22-32.15z" fill="#fff" stroke="#000" stroke-width="1.24"/><path d="M363.22 308.6s-1.67 3.21 5 6M376.59 301s7.45-1.8 12.47 0M398.82 282.25c0 .13-1 3.34 4.89 8M403.06 273.9a20.36 20.36 0 0011.7 3.08M359 283.28s.26 8.48-4.11 12.47M373.63 270.17s7.2 1.8 13.11-1.16M419.77 257.71s1.54 2.18 9.51 1.8M388.67 252.69c.26.13 9.38 3.09 15.17.39M406.91 217.73s.39-.51 3.22 9.38M414 189.85s-.38 5.27-4.62 7.58M441.1 168.26s-6.17 5-5 7.06M410.39 164.65s3.21 5.4-2.06 9.13M394.84 141.53s5.53-.26 8 4.49M406.4 106.57c0 .13 1.16 1.16-1 3.34M367 107.08a18.1 18.1 0 012.44 10.28M384 91.4a37.22 37.22 0 005.66-2.05M365 73c-.13 0-1.67 5.78 1.16 7.83M358 99.37c0 6.17 4.88 4.63 1.54 10.54M346 94.23c-.13 0-7.71 5.91-7.71 6.94M326.21 91a9.31 9.31 0 012.44 7.58M299.73 87.16c-.13.26-2.7 5.78-4.5 6.81M276.35 87.29c.13 0 2.57 5.14-.65 8.87M234.71 108.63c.13.25 6.55 1.28 6.55 1.28M218.64 123.53c.13-.13 7.84-2.44 7.84-2.44M206.18 133.17c.25 0 5.39.9 6.68.26M202.57 137.92s1.67.9.26 9.51M177.52 115.31l3.08 4.62M167 139.08c0-.13 3.09 4.63 7.2 5.53M191.27 163.24c.12 0 5-1 5.78-1.54M189.08 180.72a6.76 6.76 0 013.86-5.4M183.81 188.69c0 .13 3.73 4.76 6.3 5.4M181.63 197.56c.38-.13 4.37-3.6 9-3.34M180.34 209.51s.13 4 11.95 3M181.5 223.52c0-.13 3.47-8 10.54-10.93M191 233.54s1-3.34 6.94-5.65M197.56 246.78s4.24-3.47 5.78-4M202.84 257.06s2.57 2.7 9-1.93M171.86 259.25c.77-.13 10.15-2.32 13.37 2.57M175.59 267s9.89-1.29 11.18-.26M210.93 269s-1.29 2.69 10.92-1.8M226.09 273.9c-2.18 3.73.52 6.68-2.31 8.35M189 279c.39-.26 4.5-1.67 3.86-7.58M192.68 287.9c.52-.12 7.33-3.08 8.74-1.54M206.05 296.52s.9-6 2.83-6.68M216.33 305.64s5.65-.13 8.1-1.92M227.25 285.21c.13.13 5.27 2.83 16.19.13M231.36 309.76s1.54 7.84 1.41 9.63M384.42 125.84h4.25M316.83 88.45s-1.67 4.88-3.86 6.17M271 60.69a10.34 10.34 0 01-2 7.31M247.82 69.43c0 .13 1 4.37-5.79 5.78" fill="none" stroke="#000" stroke-width="1.24"/><path d="M339.41 310.91S403.61 292.77 423 214c-11.25 80.88-81.5 106.51-81.5 106.51l-2.08-9.59z" fill="#f7df73" stroke="#000" stroke-linejoin="round" stroke-width="1.54" fill-rule="evenodd"/><path d="M255.27 309.2s-63.61-18.46-82.82-98.66C183.61 292.86 253.21 319 253.21 319l2.06-9.76z" fill="#f7df73" stroke="#000" stroke-linejoin="round" stroke-width="1.55" fill-rule="evenodd"/><path d="M346 315.82c2 0 6.89-5.44 9.71-6.06s3.13-3.45-.11-3.55-6.05 3.65-6.05 3.65a12.71 12.71 0 01-5.75 2.72c-2.92.31-1 4 2.2 3.24zM359.67 305.79s-2-.73 3.14-2.72 4.8-4.28 6.47-5.22 5.22-3.44 6-2-3.75 4.39-4.8 4.7-6.16 5-7.62 5.43a3.74 3.74 0 01-3.14-.21zM248.75 314.2c-2 0-6.83-5.53-9.63-6.17s-3.1-3.5.11-3.61 6 3.72 6 3.72 2.79 2.45 5.69 2.76 1 4-2.17 3.3zM235.19 304s2-.75-3.1-2.77-4.76-4.36-6.42-5.31-5.17-3.51-5.9-2 3.73 4.46 4.76 4.78 6.11 5.1 7.56 5.53a3.65 3.65 0 003.1-.21z" fill="#8c1800"/><path d="M383 288.24s-6.68 3.87-5.74 4.81 6.89-3.66 7-3.76 2.5-3-1.26-1.05z" fill="#8c1800" stroke="#8c1800" stroke-width="1.54"/><path d="M212.11 286.14s6.63 3.93 5.7 4.89-6.83-3.73-6.94-3.83-2.48-3.08 1.24-1.06z" fill="#8c1800" stroke="#8c1800" stroke-width="1.55"/><path d="M392.89 278.43c-4.39 4.91-4.39 4.8-4.39 4.8" fill="none" stroke="#8c1800" stroke-linecap="round" stroke-width="2.01"/><path d="M399.46 270.39l-4.17 5.12" fill="none" stroke="#8c1800" stroke-linecap="round" stroke-width="1.85"/><path d="M406.05 259.94l-4.7 7.52" fill="none" stroke="#8c1800" stroke-linecap="round" stroke-width="1.7"/><path d="M411.58 249.29l-3.86 7.71M414.09 243.65l-1.26 2.72" fill="none" stroke="#8c1800" stroke-linecap="round" stroke-width="1.54"/><path d="M416.91 236.24l-1.05 3.24" fill="none" stroke="#8c1800" stroke-linecap="round" stroke-width=".93"/><path d="M202.29 276.14c4.34 5 4.34 4.89 4.34 4.89" fill="none" stroke="#8c1800" stroke-linecap="round" stroke-width="2.02"/><path d="M195.77 268l4.14 5.2" fill="none" stroke="#8c1800" stroke-linecap="round" stroke-width="1.86"/><path d="M189.25 257.32l4.65 7.68" fill="none" stroke="#8c1800" stroke-linecap="round" stroke-width="1.71"/><path d="M183.76 246.48l3.83 7.87M181.28 240.74l1.24 2.76" fill="none" stroke="#8c1800" stroke-linecap="round" stroke-width="1.55"/><path d="M178.49 233.19l1 3.3" fill="none" stroke="#8c1800" stroke-linecap="round" stroke-width=".93"/><path d="M200.1 114.27a12 12 0 013.9 10.26c-.89 6.17-4.45 14.74-3.73 21.13a46.19 46.19 0 01.27 7.15s-4.28-6.08-4.33-12.58 4.63-12.67 4.63-17.46a62.8 62.8 0 00-.74-8.5zM197.77 116.1s-6.2 5.92-7 11.66c-.59 3-.82 16.76-.89 22.89-.14 1.88-.92 9.29-1.08 12s4.55-4.6 4.82-10.55c-.15-6.16-.15-19.13.48-21.08.56-2.5.43-5.27 1.3-7.79 1.14-3.48 2.41-7.06 2.36-7.12z" fill="#217900" stroke="#000" stroke-linejoin="round" stroke-width="1.24"/><path d="M157.22 155.5s4.2 5.81 4.95 9.15 2.16 9.9 4 12.59 12.27 17.65 12.81 23.9c.1 4.09-4.31 11.08-10.88 11.19-4.09-.11-14.63-2.8-15.06-11.84s3.22-9.26 3.65-14.75.54-30.13.54-30.24z" fill="none" stroke="#6b18b5" stroke-linejoin="round" stroke-width="1.24"/><path d="M229.34 76.35a22 22 0 00-7.69 2.12c-2.59 1.6-7 3.9-10.05 8.16-7.81 6.08-19.55 8.92-23.25 14-2.22 3.44-2.08 11.71 3.47 15.22 3.55 2 14 5.21 19-2.29s2.05-9.59 4.53-14.5c4.1-11.27 13.91-22.59 14-22.68zM334.76 65.37a21.83 21.83 0 00-6.87-4.05c-3-.75-7.87-.42-13-.92-9.8-1.38-19.9-8.47-26.11-7.61-4 .8-9.86 6.65-8.51 13.08 1 4 5.44 12 14.35 10.4s8.84-3.52 14.1-5.16a48 48 0 0126-5.74zM439.32 167c.73-1.68-.61-4.82-1.57-8.5-.93-2.91-2.32-7.41-5.71-11.41-4-9-3.34-21.43-7.36-26.24-2.81-3-10.87-4.83-15.6-.28-2.83 3-8.42 12.3-2.35 19s8.71 4.19 12.88 7.78c9.95 6.68 14.83 18.4 19.71 19.63zM435.75 245.94c1.36-1.88 3.79-5.51 3.51-8.53-.23-2.39 1.09-9.64 1.24-12.81.9-9.85 7.06-17.85 5.39-26.41-1-4-6.81-9.64-13.16-8-3.92 1.2-12.63 6-10.62 14.82s4.86 8.68 6.75 13.85c5.42 10.72 1.95 23.42 6.89 27.08z" fill="none" stroke="#6b18b5" stroke-linejoin="round" stroke-width=".64"/><path d="M294.76 57.57c0-1.39-1.56-2.51-3.49-2.51s-3.49 1.12-3.49 2.51 1.56 2.52 3.49 2.52 3.49-1.09 3.49-2.52zM296.26 63.43c0-1.33-1.61-2.41-3.6-2.41s-3.59 1.08-3.59 2.41 1.61 2.42 3.59 2.42 3.6-1.08 3.6-2.42zM300.73 56.5s-4.11 3.08-2.42 4.31 6.37-2.67 6.37-2.67zM421.53 127.08a2.53 2.53 0 00-1.08-2.13 1.93 1.93 0 00-2.16 0 2.63 2.63 0 000 4.25 1.93 1.93 0 002.16 0 2.53 2.53 0 001.08-2.12zM420 121.19a2.28 2.28 0 10-2.25 2.65 2.47 2.47 0 002.25-2.65zM421 133.15c0-.75-.4-1.37-.88-1.37s-.88.62-.88 1.37.39 1.38.88 1.38.88-.62.88-1.38zM424.67 122.47c0-.87-.4-1.57-.89-1.57s-.88.7-.88 1.57.4 1.57.88 1.57.89-.7.89-1.57zM414.76 123.55c0-.7-.39-1.27-.88-1.27s-.88.57-.88 1.27.39 1.27.88 1.27.88-.57.88-1.27zM416.33 132a1.87 1.87 0 10-1.86 2.06 2 2 0 001.86-2.06zM411.43 128.25a1.58 1.58 0 10-1.57 1.76 1.67 1.67 0 001.57-1.76zM410.65 123.26A1.49 1.49 0 00410 122a1.3 1.3 0 00-1.37 0 1.54 1.54 0 000 2.55 1.3 1.3 0 001.37 0 1.48 1.48 0 00.65-1.29zM433 148.67c-2-2.67-5.26-3.8-7.24-2.51s-1.93 4.49.1 7.16 5.26 3.8 7.24 2.51 1.9-4.49-.1-7.16zM438.75 198c.39-3.28-1.21-6.16-3.57-6.45s-4.6 2.15-5 5.43 1.21 6.16 3.57 6.45 4.6-2.19 5-5.43zM440 226.66c.67-3.23-.67-6.25-3-6.73s-4.77 1.74-5.44 5 .67 6.25 3 6.73 4.77-1.74 5.44-5zM445.49 199.8a2 2 0 10-2 2.35 2.18 2.18 0 002-2.35zM440.69 205.19l-4 4.56s-3.77.1-3.58 1.32 5.2 4.9 5.15 6.37 3.33-.34 3.33-.34 2.7-8.18 2.7-8.23-.15-5.69-1.62-5.59-1.87 1.81-2 1.91zM176.36 203.39a1.91 1.91 0 10-1.91 1.91 1.91 1.91 0 001.91-1.91zM178.17 197.55a1.92 1.92 0 10-1.91 2 2 2 0 001.91-2zM162.46 169.75c-.72-1.61-2.21-2.5-3.34-2s-1.45 2.21-.74 3.82 2.22 2.5 3.34 2 1.46-2.21.74-3.82zM167.2 187.07c-1-2.09-3-3.25-4.58-2.6s-2 2.87-1 4.95 3 3.25 4.58 2.6 1.99-2.87 1-4.95zM172.28 199.76c.32-2.6-.76-5-2.41-5.34s-3.24 1.49-3.56 4.09.76 5 2.41 5.34 3.28-1.48 3.56-4.09zM164.13 201.62c1-2.41.64-5-.85-5.79s-3.53.53-4.55 2.95-.64 5 .85 5.79 3.53-.57 4.55-2.95z" fill="#6b18b5"/><path d="M160.42 196.16a2.13 2.13 0 10-2.12 2.23 2.18 2.18 0 002.12-2.23zM158.72 190.64a1.91 1.91 0 10-1.91 2 2 2 0 001.91-2zM160.52 180c0-1.88-.83-3.4-1.85-3.4s-1.86 1.52-1.86 3.4.83 3.4 1.86 3.4 1.85-1.51 1.85-3.4zM166.25 179.19c.24-1.86-.38-3.48-1.4-3.61s-2 1.26-2.29 3.12.38 3.48 1.39 3.62 2.05-1.26 2.3-3.13zM207 97.86c.76-2.64 0-5.29-1.75-5.92s-3.73 1-4.49 3.63 0 5.28 1.75 5.91 3.75-.99 4.49-3.62zM199.28 109.59c2.27-1.93 3.24-4.6 2.17-6s-3.79-.9-6.06 1-3.24 4.61-2.17 6 3.78.93 6.06-1zM194.76 103.08c2.24-1.66 3.2-4 2.14-5.13s-3.74-.77-6 .89-3.2 4-2.14 5.12 3.75.78 6-.88zM212.17 91.62c1.52-1.16 2.16-2.76 1.45-3.57s-2.53-.54-4 .61-2.16 2.76-1.45 3.58 2.49.54 4-.62z" fill="#6b18b5"/><path d="M203.1 102.72c1-1.6 1.1-3.33.15-3.85s-2.56.34-3.59 1.94-1.11 3.32-.16 3.85 2.56-.34 3.6-1.94zM216.19 95.86c1.63-1.37 2.27-3.19 1.42-4.06s-2.85-.46-4.48.91-2.26 3.19-1.42 4.06 2.86.46 4.48-.91zM192.52 111.86c1.53-.08 2.68-.84 2.57-1.7s-1.42-1.49-3-1.41-2.67.83-2.56 1.69 1.42 1.49 2.94 1.42zM221.18 87.36c1-1.6 1.11-3.33.16-3.85s-2.56.34-3.6 1.94-1.1 3.32-.15 3.85 2.56-.3 3.59-1.94z" fill="#6b18b5"/><path d="M334 96.79s8-3.7 10.32-10.6-6.95-7-8.17-4.77 1 7.65.46 9.09-3.85 4.93-2.61 6.28z" fill="#ffd200" stroke="#ef8a10" stroke-width="1.24"/><path d="M262.84 99.31s5.21-7.15 3.86-14.29-9.46-2.7-9.46-.19 4.63 6.18 4.82 7.72-1 6.18.78 6.76zM248.74 103.55s5.21-7.14 3.86-14.28-9.46-2.7-9.46-.19 4.64 6.17 4.83 7.72-1 6.18.77 6.75zM233.1 108.38s5.22-7.14 3.87-14.28-9.46-2.7-9.46-.19 4.63 6.17 4.82 7.72-1 6.18.77 6.75zM222.1 119.39s5.21-7.15 3.86-14.29-9.46-2.7-9.46-.19 4.64 6.18 4.83 7.72-1 6.18.77 6.76zM210.52 130s5.21-7.15 3.86-14.29-9.46-2.7-9.46-.19 4.63 6.18 4.83 7.72-1 6.18.77 6.76z" fill="#ffd200" stroke="#ef8a10" stroke-width="1.54"/><path d="M237.15 68.15s-7 5.48-7.56 12.72 8.38 5.15 9 2.73-2.8-7.2-2.57-8.74 2.59-5.69 1.08-6.71zM260.31 61s-6.94 5.48-7.56 12.73 8.39 5.14 9.06 2.73-2.8-7.2-2.57-8.74 2.59-5.72 1.07-6.72zM174 123.54s1.46 8.72 7.52 12.75 8.54-4.88 6.74-6.63-7.65-1-8.89-2-3.75-5-5.37-4.17zM162.41 153.15s.08 8.85 5.42 13.78 9.21-3.47 7.71-5.49-7.4-2.2-8.48-3.32-2.9-5.54-4.64-5zM189.11 186.23s-3.16-8.26-9.89-11-7.41 6.46-5.31 7.83 7.71-.53 9.11.15 4.66 4.17 6.09 3zM183.56 171.93s5.35-7 4.14-14.2-9.4-2.89-9.45-.38 4.51 6.27 4.67 7.81-1.08 6.16.64 6.77zM350.41 103.93s8-3.7 10.32-10.6-7-7-8.17-4.77 1 7.65.46 9.1-3.85 4.92-2.61 6.27zM374.69 116.05s4.73-7.48 2.9-14.51-9.62-2.07-9.45.44 5 5.85 5.33 7.38-.55 6.23 1.22 6.69zM441 184.85s-3.17-8.26-9.9-11-7.41 6.47-5.3 7.83 7.7-.53 9.1.15 4.67 4.16 6.1 3zM408.56 190s.18-8.84 5.58-13.7 9.17 3.58 7.65 5.58-7.43 2.11-8.52 3.22-3 5.5-4.71 4.9zM403.34 96.22s-8.27-3.14-14.8 0-.11 9.84 2.31 9.18 4.74-6.1 6.18-6.7 6.21-.7 6.31-2.53zM384.42 80.39s-8.26-3.14-14.79 0-.11 9.84 2.31 9.18 4.73-6.1 6.17-6.7 6.21-.7 6.31-2.53zM356.21 65.3s-7 5.39-7.72 12.62 8.32 5.25 9 2.84-2.71-7.23-2.46-8.76 2.66-5.66 1.16-6.7zM337.85 60.88s-3.2 8.24-.05 14.79 9.83.18 9.19-2.25-6.07-4.77-6.66-6.21-.65-6.22-2.48-6.33zM285.73 92.65s5.72-6.75 4.89-14-9.24-3.38-9.42-.88 4.17 6.5 4.25 8-1.41 6.09.28 6.8z" fill="#ffd200" stroke="#ef8a10" stroke-width="1.24"/><path d="M428.75 189.21a8.32 8.32 0 00-3.27-6 3.68 3.68 0 00-5 .62 9.21 9.21 0 001.56 12.54 3.71 3.71 0 005-.63 8.36 8.36 0 001.7-6.58z" fill="#de2010" stroke="#000" stroke-width="1.52"/><path d="M427.68 176.16a8.32 8.32 0 00-3.27-6 3.69 3.69 0 00-5 .62 9.22 9.22 0 001.59 12.58 3.7 3.7 0 005-.63 8.28 8.28 0 001.7-6.57z" fill="#de2010" stroke="#000" stroke-width="1.52"/><path d="M425 162.21a8.34 8.34 0 00-3.78-5.65 3.7 3.7 0 00-4.9 1.06A9.24 9.24 0 00419 170a3.71 3.71 0 004.91-1.06 8.33 8.33 0 001.11-6.7z" fill="#de2010" stroke="#000" stroke-width="1.52"/><path d="M420.2 147.64a8.31 8.31 0 00-5.1-4.5 3.7 3.7 0 00-4.47 2.27 9.21 9.21 0 005.73 11.26 3.7 3.7 0 004.47-2.27 8.33 8.33 0 00-.63-6.76z" fill="#de2010" stroke="#000" stroke-width="1.52"/><path d="M415 135.94a8.33 8.33 0 00-5.09-4.49 3.69 3.69 0 00-4.47 2.27 9.23 9.23 0 005.75 11.28 3.69 3.69 0 004.47-2.27 8.36 8.36 0 00-.66-6.79z" fill="#de2010" stroke="#000" stroke-width="1.52"/><path d="M407.69 124.19a8.3 8.3 0 00-5.46-4 3.7 3.7 0 00-4.26 2.64 9.22 9.22 0 006.66 10.74 3.71 3.71 0 004.26-2.64 8.35 8.35 0 00-1.2-6.74z" fill="#de2010" stroke="#000" stroke-width="1.52"/><path d="M399.52 112.86a8.32 8.32 0 00-5.82-3.5 3.69 3.69 0 00-4 3 9.21 9.21 0 007.67 10 3.69 3.69 0 004-3 8.34 8.34 0 00-1.85-6.5z" fill="#de2010" stroke="#000" stroke-width="1.52"/><path d="M389.78 102.3a8.32 8.32 0 00-6.27-2.63 3.72 3.72 0 00-3.51 3.59 9.24 9.24 0 009 8.83 3.71 3.71 0 003.51-3.59 8.34 8.34 0 00-2.77-6.2z" fill="#de2010" stroke="#000" stroke-width="1.52"/><path d="M378.81 92.58a8.34 8.34 0 00-6.49-2 3.71 3.71 0 00-3.16 3.89 9.21 9.21 0 009.82 8 3.7 3.7 0 003.16-3.89 8.36 8.36 0 00-3.33-6z" fill="#de2010" stroke="#000" stroke-width="1.52"/><path d="M367.18 84.82a8.33 8.33 0 00-6.73-.93 3.7 3.7 0 00-2.45 4.36 9.23 9.23 0 0011 6.22 3.7 3.7 0 002.47-4.36 8.33 8.33 0 00-4.29-5.29z" fill="#de2010" stroke="#000" stroke-width="1.52"/><path d="M354.18 77.93a8.33 8.33 0 00-6.79-.31 3.7 3.7 0 00-2.06 4.57 9.22 9.22 0 0011.52 5.19 3.71 3.71 0 002.06-4.57 8.35 8.35 0 00-4.73-4.88z" fill="#de2010" stroke="#000" stroke-width="1.52"/><path d="M341.42 72.8a8.34 8.34 0 00-6.8.14 3.71 3.71 0 00-1.75 4.7 9.24 9.24 0 0011.85 4.41 3.69 3.69 0 001.74-4.7 8.29 8.29 0 00-5.04-4.55z" fill="#de2010" stroke="#000" stroke-width="1.52"/><path d="M328.45 68.73a8.33 8.33 0 00-6.76.66 3.71 3.71 0 00-1.39 4.82 9.23 9.23 0 0012.15 3.49 3.7 3.7 0 001.38-4.82 8.31 8.31 0 00-5.38-4.15z" fill="#de2010" stroke="#000" stroke-width="1.52"/><path d="M314.18 66.3a8.31 8.31 0 00-6.58 1.7 3.7 3.7 0 00-.63 5 9.21 9.21 0 0012.54 1.58 3.69 3.69 0 00.63-5 8.32 8.32 0 00-5.96-3.28z" fill="#de2010" stroke="#000" stroke-width="1.52"/><path d="M300.1 65.5a8.32 8.32 0 00-6.42 2.25 3.71 3.71 0 00-.2 5 9.25 9.25 0 0012.63.51 3.71 3.71 0 00.2-5 8.29 8.29 0 00-6.21-2.76z" fill="#de2010" stroke="#000" stroke-width="1.52"/><path d="M287.19 66a8.3 8.3 0 00-6.41 2.25 3.68 3.68 0 00-.2 5 9.21 9.21 0 0012.62.51 3.7 3.7 0 00.2-5 8.32 8.32 0 00-6.21-2.76z" fill="#de2010" stroke="#000" stroke-width="1.52"/><path d="M272.06 67.75a8.35 8.35 0 00-5.6 3.85 3.7 3.7 0 001.12 4.88 9.21 9.21 0 0012.32-2.81 3.71 3.71 0 00-1.12-4.89 8.35 8.35 0 00-6.72-1.03z" fill="#de2010" stroke="#000" stroke-width="1.52"/><path d="M258.3 71.2a8.28 8.28 0 00-5.3 4.3 3.68 3.68 0 001.51 4.77 9.22 9.22 0 0012.05-3.82 3.71 3.71 0 00-1.52-4.78 8.35 8.35 0 00-6.74-.47z" fill="#de2010" stroke="#000" stroke-width="1.52"/><path d="M245.75 76.57a8.35 8.35 0 00-4.72 4.9 3.7 3.7 0 002.08 4.53 9.21 9.21 0 0011.5-5.23 3.7 3.7 0 00-2.08-4.56 8.32 8.32 0 00-6.78.36z" fill="#de2010" stroke="#000" stroke-width="1.52"/><path d="M233.23 83a8.35 8.35 0 00-4.29 5.28 3.71 3.71 0 002.46 4.37 9.22 9.22 0 0011-6.19 3.71 3.71 0 00-2.4-4.38 8.32 8.32 0 00-6.77.92z" fill="#de2010" stroke="#000" stroke-width="1.52"/><path d="M221.38 91a8.32 8.32 0 00-3.68 5.71 3.7 3.7 0 002.91 4.08 9.22 9.22 0 0010.28-7.36 3.69 3.69 0 00-2.89-4.04 8.3 8.3 0 00-6.62 1.61z" fill="#de2010" stroke="#000" stroke-width="1.52"/><path d="M210.42 99.33a8.34 8.34 0 00-3.19 6 3.69 3.69 0 003.25 3.81 9.23 9.23 0 009.62-8.14 3.7 3.7 0 00-3.25-3.82 8.34 8.34 0 00-6.43 2.15z" fill="#de2010" stroke="#000" stroke-width="1.52"/><path d="M200.74 109.44a8.37 8.37 0 00-2.75 6.22 3.7 3.7 0 003.52 3.57 9.22 9.22 0 009-8.86 3.7 3.7 0 00-3.51-3.57 8.36 8.36 0 00-6.26 2.64z" fill="#de2010" stroke="#000" stroke-width="1.52"/><path d="M192.41 120.68a8.34 8.34 0 00-2.22 6.43 3.7 3.7 0 003.8 3.26 9.22 9.22 0 008.24-9.58 3.71 3.71 0 00-3.81-3.27 8.35 8.35 0 00-6.01 3.16z" fill="#de2010" stroke="#000" stroke-width="1.52"/><path d="M184.79 132.19a8.32 8.32 0 00-1.52 6.62 3.7 3.7 0 004.13 2.85 9.23 9.23 0 007.16-10.41 3.7 3.7 0 00-4.13-2.85 8.36 8.36 0 00-5.64 3.79z" fill="#de2010" stroke="#000" stroke-width="1.52"/><path d="M178.44 145.24a8.33 8.33 0 00-.36 6.78 3.71 3.71 0 004.56 2.09 9.22 9.22 0 005.27-11.48 3.7 3.7 0 00-4.56-2.09 8.36 8.36 0 00-4.91 4.7z" fill="#de2010" stroke="#000" stroke-width="1.52"/><path d="M173.42 158.87a8.32 8.32 0 00.26 6.79 3.69 3.69 0 004.72 1.67 9.22 9.22 0 004.21-11.92 3.71 3.71 0 00-4.73-1.67 8.32 8.32 0 00-4.46 5.13z" fill="#de2010" stroke="#000" stroke-width="1.52"/><path d="M169.06 184.68a5.82 5.82 0 001.9 5.23 4.4 4.4 0 005 .37 6.41 6.41 0 003.07-4.86 5.8 5.8 0 00-1.91-5.23 4.4 4.4 0 00-5-.37 6.38 6.38 0 00-3.07 4.86z" fill="#de2010" stroke="#000" stroke-width="1.36"/><path d="M170.22 172.63a8.35 8.35 0 001 6.72 3.71 3.71 0 004.89 1.11 9.21 9.21 0 002.89-12.32 3.71 3.71 0 00-4.89-1.11 8.32 8.32 0 00-3.89 5.6z" fill="#de2010" stroke="#000" stroke-width="1.52"/><path d="M418.35 166.46c1.58-1.7 3.06-2.18 4.93-1.56-.66-4.49-2.08-6-3.81-5.47s-2.51 2.85-1.12 7zM420.77 180c1.71-1.58 3.22-2 5-1.19-.32-4.52-1.62-6.14-3.39-5.73s-2.71 2.65-1.65 6.92zM415 154.11c1.1-2 2.41-2.88 4.38-2.76-1.78-4.17-3.54-5.28-5.07-4.32s-1.71 3.39.69 7.08zM409 141.8c1.1-2.05 2.41-2.89 4.37-2.76-1.77-4.17-3.53-5.28-5.06-4.32s-1.71 3.39.69 7.08zM394.57 119.25c.76-2.2 1.92-3.24 3.88-3.43-2.43-3.83-4.34-4.64-5.7-3.45s-1.14 3.62 1.82 6.88zM385.13 109.42c.68-2.23 1.79-3.31 3.74-3.57-2.56-3.74-4.5-4.48-5.82-3.23s-1 3.66 2.08 6.8zM365.3 92.68c0-2.33.69-3.7 2.46-4.55-3.59-2.76-5.67-2.87-6.53-1.28s.17 3.79 4.07 5.83zM375.62 100.42c.36-2.3 1.31-3.52 3.21-4.06-3.06-3.34-5.09-3.8-6.21-2.39s-.49 3.76 3 6.45zM353.52 86.18c-.28-2.31.3-3.75 2-4.78-3.85-2.38-5.93-2.27-6.63-.6s.57 3.75 4.66 5.38zM341.48 80.92c-.61-2.24-.24-3.75 1.27-5-4.15-1.8-6.19-1.4-6.64.36s1.09 3.63 5.37 4.65zM328.51 76.91c-.79-2.19-.55-3.72.84-5.11-4.29-1.44-6.29-.86-6.59.92s1.4 3.53 5.75 4.19zM315.77 74.44c-.95-2.12-.82-3.67.47-5.15-4.38-1.13-6.33-.41-6.51 1.39s1.65 3.42 6 3.76zM302.28 73.41c-1.17-2-1.2-3.57-.07-5.18-4.48-.66-6.34.25-6.33 2.06s2 3.23 6.4 3.12zM275.87 75.4c-1.62-1.67-2-3.17-1.31-5-4.51.43-6.1 1.77-5.65 3.53s2.72 2.65 7 1.48zM288.87 73.68c-1.38-1.87-1.58-3.41-.62-5.13-4.53-.18-6.28.93-6.07 2.73s2.33 3 6.69 2.4zM263.11 78.15c-1.84-1.42-2.46-2.85-2-4.76-4.4 1.07-5.79 2.63-5.09 4.3s3.07 2.23 7.1.46zM238.69 89.38c-2.08-1-3-2.33-2.89-4.29-4.11 1.89-5.18 3.68-4.17 5.18s3.43 1.61 7.06-.89zM250.46 83.37c-1.93-1.29-2.65-2.67-2.34-4.62-4.32 1.38-5.59 3-4.77 4.64s3.21 2 7.11 0zM216.78 104.64c-2.25-.59-3.38-1.67-3.72-3.6-3.63 2.71-4.3 4.68-3 5.94s3.7.86 6.72-2.34zM227.23 96.08c-2.2-.76-3.23-1.92-3.42-3.88-3.84 2.42-4.65 4.33-3.46 5.69s3.65 1.11 6.88-1.81zM207.49 113.79c-2.29-.39-3.51-1.35-4-3.25-3.37 3-3.85 5-2.44 6.19s3.75.52 6.47-2.94zM199.16 124.58c-2.31-.17-3.61-1-4.3-2.86-3.08 3.32-3.38 5.38-1.88 6.38s3.79.18 6.18-3.52zM192.2 135.63c-2.31.19-3.73-.46-4.69-2.17-2.54 3.75-2.51 5.83-.87 6.6s3.77-.41 5.56-4.43zM186.09 147.43c-2.28.48-3.76 0-4.94-1.55-2 4.05-1.74 6.11 0 6.66s3.69-.9 5-5.11zM181.2 159.53c-2.17.83-3.71.62-5.12-.75-1.36 4.32-.75 6.31 1 6.58s3.5-1.47 4.08-5.83zM177.92 173c-2.11 1-3.66.87-5.16-.4-1.07 4.4-.32 6.34 1.48 6.49s3.4-1.7 3.68-6.09zM176.58 184.25c-2 1.05-3.53 1.17-5.15.38-.59 3.58.36 5 2.16 4.87s3.18-1.78 3-5.25zM403.64 130.83c.79-2.19 2-3.21 3.92-3.37-2.36-3.86-4.26-4.71-5.64-3.53s-1.19 3.6 1.72 6.9zM422.25 193.69c1.71-1.57 3.22-1.94 5-1.18-.32-4.52-1.62-6.15-3.38-5.74s-2.72 2.65-1.66 6.92z" fill="#ffe300"/><path d="M393.81 135.93s4.72-7.48 2.89-14.52-9.62-2.06-9.45.44 5 5.86 5.33 7.39-.55 6.22 1.23 6.69z" fill="#ffd200" stroke="#ef8a10" stroke-width=".64"/><path d="M404.51 120.13c-.05 0-5.12 5.06-4.24 11.23s4.79 13.77 4.08 20.16a78.27 78.27 0 01-1.87 10.63s5.94-6.77 6-13.27-4.08-15-4.08-19.83.22-9 .11-8.92zM413.93 140.84s-4 2.92-3.58 9.64 7.33 19.05 7.33 19.05 5.07 10.41 4.9 13.11.94-2.59.44-8.54-8.15-19-8.15-19a13.73 13.73 0 01-1.49-7.16c.17-4.46.61-7 .55-7z" fill="#217900" stroke="#000" stroke-linejoin="round" stroke-width="1.24"/><path d="M303.61 73.75s17 .66 17.13 11.68a71.37 71.37 0 01-.61 8.64c3.36-1.81 5.62-6.88 5.18-10.13.05-11.18-15.2-18.84-21.7-10.19z" fill="#217900" stroke="#000" stroke-linejoin="round" stroke-width="1.54"/><path d="M292.82 73.26s13.71-2.87 13.82 8.15-4.35 12.78-4.35 12.78 10.52-2.26 10.58-13.44-13.55-16.14-20.05-7.49zM426 199.48c.32 4.94 5.15 9.68 3.26 18.3-2.42 9.78-10.94 33-9.46 37.12-2.53-3.47-2.11-6.73-2.32-11.57s7.05-22.82 7.68-28.92a140.85 140.85 0 01.84-14.93z" fill="#217900" stroke="#000" stroke-linejoin="round" stroke-width="1.54"/><path d="M426 199.59s7.89 10 7.47 17.88-4.84 17.13-3.37 21.24c-2.52-3.47-3.15-5.68-3.36-10.52s3.89-10.2 3.05-15.46-3.9-13.14-3.79-13.14zM167.7 201.79c-.31 5-4 9.36-2.1 18 2.42 9.78 11 22.19 9.67 36.39 2.53-3.47 3.26-7.36 3.47-12.2s-9.57-21.14-10.2-27.24a140.85 140.85 0 00-.84-14.93z" fill="#217900" stroke="#000" stroke-linejoin="round" stroke-width="1.54"/><path d="M167.7 201.9s-7.67 9.68-7.25 17.56c.1 5.26 9.78 27.24 8.3 31.34 2.53-3.47 3.26-3.05 3.16-8.31-2.84-13.46-7.89-22.08-7-27.34s2.95-13.25 2.84-13.25z" fill="#217900" stroke="#000" stroke-linejoin="round" stroke-width="1.54"/><path d="M316.85 107.13s13.7.86 14.37 8.72a18.5 18.5 0 01-3.22 12.64s1.73 17-11.69 21.95c-14.37 1.72-36.89.38-36.89.38s-6.61 1.63-9.29-12.07a227 227 0 01-3.45-23.38s1.34-7.67 11-8.15 39.09.1 39.19-.09z" fill="#8c8a8c" stroke="#000" stroke-width="1.24"/><path d="M327.86 128.4s-7.38 9.2-6.61 12.93" fill="none" stroke="#000" stroke-linecap="round" stroke-width="1.24"/><path d="M318 150c1.83 1.54 3.55 3.26 3.93 8.92s.77 11.3.77 11.3l9.58 86.24 8.43 62.38.58 9.67s-2 7.1-7.67 7.67c-4.12 8.62-26.44 11.12-28.65 11-2-.1-9.1-3.07-13.41-2.68s-11.79 3.25-15.14 2.78-10.92-3.07-12.26-8.53c-9.39-3-10.93-10.16-10.93-10.16l10.16-72.15 9.87-91.22s1.15-12.17 6-14c5.08-.48 31.34.48 38.71-1.24z" fill="#8c8a8c" stroke="#000" stroke-width="1.24"/><path d="M266.25 274.81l-2 63.81M328.24 283.24l5.66 52.6" fill="none" stroke="#000" stroke-width="1.24"/><path d="M298.84 113.44L318 172.25h61.83l-50 36.35 19.1 58.81-50-36.35-50 36.35 19.1-58.81-50-36.35h61.83z" fill="#fff" stroke="#000" stroke-linejoin="round" stroke-width="1.29"/></svg>