<svg xmlns="http://www.w3.org/2000/svg" width="650" height="400" viewBox="0 0 650 400"><title>flag-massachusetts-dimensions</title><line x1="22.49" y1="196.9" x2="22.49" y2="199.4" fill="none" stroke="#a3a3a3" stroke-linecap="round" stroke-linejoin="round"/><line x1="22.49" y1="204.31" x2="22.49" y2="359.14" fill="none" stroke="#a3a3a3" stroke-linecap="round" stroke-linejoin="round" stroke-dasharray="4.92 4.92"/><polyline points="22.49 361.6 22.49 364.1 24.99 364.1" fill="none" stroke="#a3a3a3" stroke-linecap="round" stroke-linejoin="round"/><line x1="27.85" y1="364.1" x2="32.13" y2="364.1" fill="none" stroke="#a3a3a3" stroke-linecap="round" stroke-linejoin="round" stroke-dasharray="2.86 2.86"/><line x1="33.56" y1="364.1" x2="36.06" y2="364.1" fill="none" stroke="#a3a3a3" stroke-linecap="round" stroke-linejoin="round"/><line x1="36.06" y1="3.68" x2="33.56" y2="3.68" fill="none" stroke="#a3a3a3" stroke-linecap="round" stroke-linejoin="round"/><line x1="30.7" y1="3.68" x2="26.42" y2="3.68" fill="none" stroke="#a3a3a3" stroke-linecap="round" stroke-linejoin="round" stroke-dasharray="2.86 2.86"/><polyline points="24.99 3.68 22.49 3.68 22.49 6.18" fill="none" stroke="#a3a3a3" stroke-linecap="round" stroke-linejoin="round"/><line x1="22.49" y1="11.35" x2="22.49" y2="132.8" fill="none" stroke="#a3a3a3" stroke-linecap="round" stroke-linejoin="round" stroke-dasharray="5.17 5.17"/><line x1="22.49" y1="135.39" x2="22.49" y2="137.89" fill="none" stroke="#a3a3a3" stroke-linecap="round" stroke-linejoin="round"/><line x1="383.29" y1="387.53" x2="385.79" y2="387.53" fill="none" stroke="#a3a3a3" stroke-linecap="round" stroke-linejoin="round"/><line x1="390.86" y1="387.53" x2="642.22" y2="387.53" fill="none" stroke="#a3a3a3" stroke-linecap="round" stroke-linejoin="round" stroke-dasharray="5.08 5.08"/><polyline points="644.76 387.53 647.26 387.53 647.26 385.03" fill="none" stroke="#a3a3a3" stroke-linecap="round" stroke-linejoin="round"/><line x1="647.26" y1="382.18" x2="647.26" y2="377.89" fill="none" stroke="#a3a3a3" stroke-linecap="round" stroke-linejoin="round" stroke-dasharray="2.86 2.86"/><line x1="647.26" y1="376.47" x2="647.26" y2="373.97" fill="none" stroke="#a3a3a3" stroke-linecap="round" stroke-linejoin="round"/><line x1="47.26" y1="373.97" x2="47.26" y2="376.47" fill="none" stroke="#a3a3a3" stroke-linecap="round" stroke-linejoin="round"/><line x1="47.26" y1="379.32" x2="47.26" y2="383.61" fill="none" stroke="#a3a3a3" stroke-linecap="round" stroke-linejoin="round" stroke-dasharray="2.86 2.86"/><polyline points="47.26 385.03 47.26 387.53 49.76 387.53" fill="none" stroke="#a3a3a3" stroke-linecap="round" stroke-linejoin="round"/><line x1="54.82" y1="387.53" x2="295.05" y2="387.53" fill="none" stroke="#a3a3a3" stroke-linecap="round" stroke-linejoin="round" stroke-dasharray="5.06 5.06"/><line x1="297.58" y1="387.53" x2="300.08" y2="387.53" fill="none" stroke="#a3a3a3" stroke-linecap="round" stroke-linejoin="round"/><path d="M4.61,174.83H3.21l0,0,.34-.76c.21-.46.32-.58.55-.58s1.27.05,2.1.05A2,2,0,0,0,7.61,173a1.91,1.91,0,0,0,.89-1.55l.05-.39c.2-1.38-.64-1.93-1.93-1.93a7,7,0,0,0-1.23.1l-.15-.16.52-1.06h0c2.27-.15,3-1.08,3.17-2.13l0-.23c.16-1-.45-1.62-1.67-1.62a2.89,2.89,0,0,0-2,.63l-.19-.16.72-1.3,0,0a3.94,3.94,0,0,1,1.86-.34c2.17,0,2.95,1.07,2.72,2.55l0,.23c-.22,1.38-.92,1.68-2.5,2.48,1.74.26,2.25,1.34,2.09,2.49l0,.39c-.15,1.06-1,1.75-2.06,2.51A5.06,5.06,0,0,1,4.61,174.83Z" fill="#727272"/><path d="M16.41,176.05l-1.19-1.26,1.43-10.24H15.24l.1-.72h1.42l.18-1.26a3.82,3.82,0,0,1,1.45-2.78c.9-.95,1.22-1.22,2.21-1.22h1.13l0,0-.23.62c-.18.46-.25.53-.43.53s-.74,0-1.2,0c-1,0-1.27.39-1.45,1.6l-.35,2.51H20.3v.72H18l-.78,5.54c-.23,1.59-.42,3.29-.55,4.52l.52.78v0Z" fill="#727272"/><path d="M23.22,171.36c-2.18,0-3-.87-2.75-2.83l.23-1.66a3.8,3.8,0,0,1,1.91-2.8,3.45,3.45,0,0,1,2-.6c1.36,0,2.05.64,2.05,1.81a9,9,0,0,1-.27,1.77l-1.27.69H21.87l-.07.49c-.23,1.63.5,2.16,2.09,2.16a4.58,4.58,0,0,0,2.62-.85h0v.21A3.68,3.68,0,0,1,23.22,171.36ZM22,167h3.23a8.11,8.11,0,0,0,.2-1.42c0-.83-.5-1.26-1.57-1.26s-1.56.59-1.72,1.7Z" fill="#727272"/><path d="M30.54,171.36c-2.18,0-3-.87-2.74-2.83l.23-1.66a3.77,3.77,0,0,1,1.91-2.8,3.4,3.4,0,0,1,2-.6c1.36,0,2.05.64,2.05,1.81a8.85,8.85,0,0,1-.26,1.77l-1.28.69H29.19l-.07.49c-.23,1.63.5,2.16,2.09,2.16a4.55,4.55,0,0,0,2.62-.85h0v.21A3.71,3.71,0,0,1,30.54,171.36ZM29.3,167h3.24a9,9,0,0,0,.19-1.42c0-.83-.49-1.26-1.57-1.26s-1.56.59-1.72,1.7Z" fill="#727272"/><path d="M37.56,171.33c-1.41,0-2-.54-1.82-1.88l.74-4.9H35.07l.11-.72h1.43l.33-2.25,1.33-.19h0l-.37,2.43H40.3v.72H37.83l-.73,4.72c-.1.71.18,1,1.26,1a3.4,3.4,0,0,0,1.45-.35h0l0,.16A3,3,0,0,1,37.56,171.33Z" fill="#727272"/><path d="M328.16,396.25H327v0l.33-.77c.21-.47.32-.58.55-.58s1.15,0,1.91,0a2,2,0,0,0,1.43-.45,2.35,2.35,0,0,0,1.08-1.82l.07-.51c.25-1.73-1.09-2.07-3.8-2.3l0-.05,1.35-5.31.05-.05h3.45a1.48,1.48,0,0,0,1.18-.34l.23.16-.78,1.51h0c-.5,0-1-.05-1.84-.05h-1.84l-.72,2.87c2.91.33,4.52.84,4.2,3.13l-.05.39c-.16,1.18-1.11,2-2.23,2.82A5.06,5.06,0,0,1,328.16,396.25Z" fill="#727272"/><path d="M339.83,397.47l-1.18-1.25L340.08,386h-1.42l.11-.73h1.41l.18-1.25a3.87,3.87,0,0,1,1.45-2.78c.9-1,1.22-1.22,2.21-1.22h1.13l0,0-.23.62c-.18.46-.25.53-.42.53s-.75,0-1.21,0c-1,0-1.27.39-1.45,1.59l-.35,2.51h2.21V386H341.4l-.77,5.53c-.23,1.59-.43,3.29-.55,4.53l.51.78h0Z" fill="#727272"/><path d="M346.64,392.78c-2.17,0-3-.86-2.74-2.83l.23-1.66A3.74,3.74,0,0,1,346,385.5a3.4,3.4,0,0,1,2-.6c1.36,0,2.05.63,2.05,1.8a8.85,8.85,0,0,1-.26,1.77l-1.28.69H345.3l-.07.49c-.23,1.63.49,2.16,2.08,2.16a4.48,4.48,0,0,0,2.62-.85h0v.22A3.7,3.7,0,0,1,346.64,392.78Zm-1.24-4.38h3.24a7.85,7.85,0,0,0,.19-1.42c0-.83-.49-1.25-1.57-1.25s-1.56.58-1.72,1.7Z" fill="#727272"/><path d="M354,392.78c-2.17,0-3-.86-2.74-2.83l.23-1.66a3.74,3.74,0,0,1,1.91-2.79,3.43,3.43,0,0,1,2-.6c1.36,0,2.05.63,2.05,1.8a9,9,0,0,1-.27,1.77l-1.27.69h-3.22l-.07.49c-.23,1.63.49,2.16,2.09,2.16a4.47,4.47,0,0,0,2.61-.85h0v.22A3.68,3.68,0,0,1,354,392.78Zm-1.23-4.38H356a8,8,0,0,0,.2-1.42c0-.83-.5-1.25-1.58-1.25s-1.55.58-1.71,1.7Z" fill="#727272"/><path d="M361,392.75c-1.42,0-2-.53-1.82-1.88l.74-4.89h-1.42l.11-.73H360l.34-2.25,1.32-.19,0,0-.37,2.42h2.37V386h-2.48l-.72,4.72c-.11.7.17,1,1.25,1a3.38,3.38,0,0,0,1.45-.36h0l0,.16A3,3,0,0,1,361,392.75Z" fill="#727272"/><rect x="47.26" y="3.68" width="600" height="360" fill="#fff" stroke="#50d6cc" stroke-miterlimit="10"/><path d="M344,262.77c39.34-21.66,63.66-78.45,56.6-152.79H287.44c-7.05,74.34,17.26,131.13,56.6,152.79" fill="none" stroke="#50d6cc" stroke-miterlimit="10"/><path d="M308.86,116.21l3,9,9.4.09-7.56,5.62,2.83,9-7.65-5.5-7.66,5.5,2.83-9-7.56-5.62,9.4-.09,3-9Z" fill="#fff" stroke="#50d6cc" stroke-miterlimit="10"/><path d="M419.82,209.78c.07-.14.13-.29.19-.43.79-1.9.41-1-.19.43" fill="#31319c"/><path d="M344,280.08c-5.44,0-11.13-.25-11.13-3V265.64c0,2.74,5.69,3,11.13,3m-6.49-.34s1.79-5.64-2.41-5.64-19.8-1.25-30.69-14.45-15.09-21.66-15.83-25.64-1.24-5.49.74-6l-10.64,3.49s-1.49,3.49-.49,6.23a72.55,72.55,0,0,0,17.32,29.14c12.37,12.45,21.8,17.74,37.39,18.24m0-7.82c0-1.22.82-1.86,2.07-.86,1.73,1.36,2.88.64,2.72-.63m-49.08-41.68a15.29,15.29,0,0,0,3-.75c1.24-.5,3-3.61,1.24-9.46s-3.46-8.47-6.56-7.73l-2.35.63m-3.46,6.85a14,14,0,0,1,1.73,6.59m-4.82-5.72,10.64-3c-6.13-4.86-10-14.38-6.87-34.37s6.68-35.49-1.48-44.08L267.77,130s3.53,1.68,4.64,8.4,1.67,12.33-2.6,34.75,1.61,37.16,7.55,40Zm-9.59-83.31s-4.09,1.12-1.67,6,2.23,4.86.55,8.78-.59,6.52,2.57,8.76a4.85,4.85,0,0,1,1.33-6.89l2.41,3.74m16.11,66.45s3-.82,1.62,2.1a8,8,0,0,0-.69,1.4c-.52,1.17.69,2.38,1.71,1.68m-3.85-11.67c1.57-.47,2.58-1.54.46-2.29s-2.18-2.89-1.06-3.17m56.79,75.44c5.44,0,11.13-.24,11.13-3V265.64c0,2.74-5.69,3-11.13,3m11.1,5.05c15.59-.51,26.1-5.6,38.14-18.38,13.73-14.57,17.32-32.49,18.8-42.21.87-5.23,2.35-7.22,4.09-6.86l-9.9-2.47a7.46,7.46,0,0,0-5.07,6c-3.34,16.82-3.08,24.42-17.32,38.73-15.1,15.16-26.73,14.2-30.94,14.2s-2.41,5.64-2.41,5.64m4.64-2.44c0-1.21-.82-1.86-2.07-.86-1.73,1.36-2.88.64-2.72-.63m61.7-51.4a13.07,13.07,0,0,0,3,.88c1.61.25,2.72.87,4.95-4.49s-4.83,11.58.12-.37-.25-35.86-.25-35.86c-4.27-22.42-3.71-28-2.59-34.75s4.63-8.4,4.63-8.4l-11.87,1.68c-8.17,8.59-4.74,24.11-1.49,44.08,2.6,15.94,3.28,18.43.93,28.77m12.13-74.72s4.33,1.74,1.11,8-5.69,11.83-1.11,14.94m-4.95-.49s3.59,1.87,5.32.87,2.23-2.37.74-4.61-.49-3.86.49-4.6c0,0-3.21.25-4.08,4.48m-3.46,57.89c2.1.51,2.1,2.87.62,4.12s-2.23,3.11-.5,3.61" fill="none" stroke="#50d6cc" stroke-width="1.1"/><path d="M321.44,153.22a.81.81,0,0,1,.18.64,6.12,6.12,0,0,1-1.63-.42c-.23,0-.45-.22-.63,0s-.08.52-.41.37a1,1,0,0,1,.15-.9,1.92,1.92,0,0,1,1.56,0,.8.8,0,0,1,.78.34" fill="#50d6cc"/><path d="M321,154.23a.8.8,0,0,1,.7.71l-.11.19c-.89-.6-2,0-2.86,0a.59.59,0,0,1,0-.6,2,2,0,0,1,2-.28h.3" fill="#50d6cc"/><path d="M321.68,156l0,.45a2.59,2.59,0,0,0-1.68-.31l-1.26.44c-.22-.11-.14-.41-.14-.59.41-.45,1-.37,1.48-.55s1.3,0,1.63.56" fill="#50d6cc"/><path d="M368.18,161.3c-.64,2.8-1.62,5.6-2.42,8.39-.26.45-.26,1-.56,1.45-.72,2.72-1.58,5.33-2.45,8-.63-1.06.27-1.91.42-2.88.27-1.23.72-2.28.94-3.54.64-1.34.72-2.72,1.43-4.14.54-1.94,1.06-3.84,1.67-5.66.26-.56.29-1.09.52-1.69.15,0,.37-.06.44.08" fill="#50d6cc"/><path d="M367,162.41a1,1,0,0,1-.37-1.08l.42-.93a2.29,2.29,0,0,1-.05,2" fill="#50d6cc"/><path d="M368.16,164.85c-.18.11-.3.33-.52.4.45-1.29.42-3.09,1.62-4a36.26,36.26,0,0,1-1.1,3.61" fill="#50d6cc"/><path d="M366.76,163.13c-.37.74-.49,1.55-.83,2.3-.55-.93.05-1.93.39-2.87.15.22.74.16.44.57" fill="#50d6cc"/><path d="M365.56,167c-.27,0-.23-.3-.37-.41a1.17,1.17,0,0,1,.26-1.13c.74.37.18,1,.11,1.54" fill="#50d6cc"/><path d="M367.9,165.71c-.16.64-.12,1.49-.9,1.67a13.65,13.65,0,0,1,.49-1.9c.15,0,.22.3.41.23" fill="#50d6cc"/><path d="M341.56,119.17a13,13,0,0,1,.07,1.79,14.9,14.9,0,0,0-2-2.6c-.15.08-.11.3,0,.39a8.88,8.88,0,0,1,1.11,1.68,2.32,2.32,0,0,1-1.49-.94,2.38,2.38,0,0,1,.24-1.38,1.9,1.9,0,0,1,2.14,1.06" fill="#50d6cc"/><path d="M343.54,124c0,.14.08.18.12.25s.29-.41.37-.66a2.9,2.9,0,0,1,0-.83,3,3,0,0,1-.09,2.48c-.48-.64-.7-1.47-1.14-2.11s-.81-1.38-1.1-2.06c0,0,0,0,.07,0a1.92,1.92,0,0,0,.31-1.64,5.12,5.12,0,0,1,1.42,4.53" fill="#50d6cc"/><path d="M341.43,124.65a6.83,6.83,0,0,1,.87,2.51c0,.07-.07.15-.15.11a35.91,35.91,0,0,0-4.6-6.86c-.22,0-.22.27-.15.38a25.45,25.45,0,0,1,4.23,7.18c-.26.3-.59-.11-.88-.22-.15-.79-1.15-.83-1.37-1.58.33-.26,1,0,1.12-.37-.22-.26-.59-.14-.89-.26-1.11.14-1.18-1.09-1.66-1.76a1.64,1.64,0,0,0-.11-.34c.41,0,1,.42,1.37,0-.85-.41-2.15-.86-2.1-2a1.22,1.22,0,0,1,.19-1.23c2,.31,3.17,2.82,4.13,4.46" fill="#50d6cc"/><path d="M340.55,120.87c.71-.29.74.79,1.11,1.14v.14l-1.41-.42c-.26-.37-.7-.56-.7-1,.34,0,.67.11,1,.11" fill="#50d6cc"/><path d="M342.94,124.54c-.44-.52-1.44-.23-1.51-1a1.65,1.65,0,0,1,1.51,1" fill="#50d6cc"/><path d="M343.54,126.12c0,.18-.26.18-.42.15-.4-.41-.88-.8-.92-1.4a2,2,0,0,1,1.34,1.25" fill="#50d6cc"/><path d="M340.34,135.21a1,1,0,0,1,.07.6,3.92,3.92,0,0,1-.14-1.72c.07.49,0,.71.07,1.12" fill="#50d6cc"/><path d="M323.52,136.17a3.17,3.17,0,0,0,.14,2.25c0,1.34.28,2.5.24,3.81h-.15c-.11-1.23-.13-2.39-.35-3.74l-.11-.07-.27.25c-.34,2.69-.8,5.9-1,8.4l.07.08a27.44,27.44,0,0,0-.27,3.81c.29.14.63.37.63.74.06.79-.24,1.49-.13,2.14.55.78,1.33,1.6,1.06,2.53-.44.26-.48,1.2-1.19.93-.44-.52.38-1-.14-1.6-.14-.44.38-.89,0-1.35a1.2,1.2,0,0,0,0-1.15,1.66,1.66,0,0,0-1.34-.86l-.22-.23c.2-1.91.5-3.7.77-5.64.5-3,.81-5.75,1.53-8.77.08-.37-.37-.6-.14-.89s.59-.33.6-.78h.11v-.11c.26-.08.11.15.22.26" fill="#50d6cc"/><path d="M350.68,137.73c-.12,1.38.8,2.51,1.09,3.77.37.46.22,1.08.33,1.61-.29-1.53-1.44-2.81-1.43-4.41,0-.08-.11,0-.18-.08-.23.15-.08.37-.15.56-.22-.48,0-1,0-1.49l.08-1.31c.32.46.1.89.25,1.35" fill="#50d6cc"/><path d="M340.37,142.31c-.08.78-.23,1.45-.38,2.2a8.34,8.34,0,0,1,.61-4.52,6.92,6.92,0,0,0,.2-1,10.42,10.42,0,0,0-.26-2.13l0-.33a7.63,7.63,0,0,1-.21,5.75" fill="#50d6cc"/><polyline points="350.25 139.42 350.37 139.59 350.25 139.42" fill="#50d6cc"/><path d="M350.4,139.71c.12.71.07,1.49.59,2a6.06,6.06,0,0,1,.47,1.57c-.18-.89-.88-1.35-.91-2.24a3.82,3.82,0,0,1-.29-1.35c0,.07.11,0,.14,0" fill="#50d6cc"/><path d="M349.35,142.76l0,.18-.18-.06c-.11-.2.19-.42.22-.12" fill="#50d6cc"/><path d="M348.76,143c.07.11,0,.45-.19.37a.16.16,0,0,1-.22-.15c0-.18.22-.26.41-.22" fill="#50d6cc"/><path d="M348.12,143.62c0,.14-.15.14-.22.26s-.19-.08-.23-.19.38-.41.45-.07" fill="#50d6cc"/><polyline points="351.64 143.86 351.54 143.49 351.64 143.74 351.64 143.86" fill="#50d6cc"/><path d="M349.57,143.62c.08.11,0,.19-.11.27a.21.21,0,0,1-.26-.19.2.2,0,0,1,.37-.08" fill="#50d6cc"/><path d="M349,144c-.11.12,0,.27-.15.33s-.22-.11-.29-.21A.3.3,0,0,1,349,144" fill="#50d6cc"/><path d="M346.82,144.54c-.23.12-.41-.19-.67-.11,0-.49.55,0,.67.11" fill="#50d6cc"/><path d="M348.16,144.51c.11.08,0,.2-.08.22s-.15,0-.18-.15.29-.33.26-.07" fill="#50d6cc"/><path d="M347.48,144.73l0,.35a.37.37,0,0,1-.34-.13c0-.22.19-.44.37-.22" fill="#50d6cc"/><path d="M341.44,145.23l-.38.22c-.07,0,0-.15,0-.22a.29.29,0,0,1,.42,0" fill="#50d6cc"/><path d="M334.5,168.27c.15-.22.07-.6.22-.86l-.11.86h-.11" fill="#50d6cc"/><path d="M334.38,168.86c-.07-.15,0-.33.12-.52a.76.76,0,0,1-.12.52" fill="#50d6cc"/><path d="M356.53,170.17c0,.36-.52.36-.79.52-2.78.36-5,2-7.95,1.86-.14.15,0,.3.15.34,1.08.23,1.93-.33,2.89-.25.19-.18.34,0,.56-.11a17.36,17.36,0,0,1,5.13-1.25.75.75,0,0,1,.26.49,14.42,14.42,0,0,1-1.71.26c-1,.24-1.79.88-2.75,1.17a20.34,20.34,0,0,1-5.24.65,1.8,1.8,0,0,0-.44-.12c.22-.14.63.16.78-.22-.29-.3-.89-.15-1.33-.12-1.75.71-3.26-.39-4.89-.65a7.19,7.19,0,0,1-3-.39c-.07-.07-.15-.26,0-.33a6.14,6.14,0,0,1,4.08-.05,7.21,7.21,0,0,0,4.15.57c1.12-.28,2.45-.17,3.49-.43.07-.1-.08-.14-.11-.23a15.3,15.3,0,0,0-3.71.18,8.32,8.32,0,0,1-3.67-.62h-.15l-.73-.26a6.88,6.88,0,0,0-3,.09h-.41a1.55,1.55,0,0,0,0-1c.48-.33,1.15.08,1.74,0s.89.34,1.37.22c2.37.7,4.41.25,6.9.45-.59.12-1.3.14-1.94.29.08.07.07.19.19.19.52-.11,1.15.19,1.74.08s1.19-.18,1.82-.22c.3-.18.74-.06,1.08-.14v.11c2.18.61,3.45-1.28,5.42-1.35l.19.23" fill="#50d6cc"/><path d="M357.76,176.75c-.64-.19-.41-.86-.63-1.46.45.34.48,1,.63,1.46" fill="#50d6cc"/><path d="M357.78,178.65c-.18-.08-.07-.23-.07-.41.15,0,0,.27.07.41" fill="#50d6cc"/><path d="M358.62,180.45a3.12,3.12,0,0,1-.17-1c.33.27.1.79.17,1" fill="#50d6cc"/><path d="M341.45,180.84a1.67,1.67,0,0,1-.07-1,1,1,0,0,1,.07,1" fill="#50d6cc"/><path d="M351.34,183.33a5.29,5.29,0,0,1-.31,2.53h-.22a15.29,15.29,0,0,1,.31-2.68.18.18,0,0,1,.22.15" fill="#50d6cc"/><path d="M360.34,186.77a21.6,21.6,0,0,1-1.21,4.24c-1.17,3.74-2.34,7.43-3.51,11.16-.78-.08,0-.68-.14-1a14.1,14.1,0,0,0,.61-2.05,3.11,3.11,0,0,0,.22-.45c.26-1.23.71-2.27,1-3.39.49-1.27,1-3,1.36-4.36.18-.08,0-.19.11-.3.3-1.15.79-2.27,1.13-3.39.11-.19.23-.37.45-.41" fill="#50d6cc"/><polyline points="360.17 189.76 360.21 189.76 360.2 189.94 360.17 189.94 360.17 189.76" fill="#50d6cc"/><path d="M360.21,190.05c0,.93.21,2.09.13,2.92.08-.42-.32-.83-.18-1.27a4.16,4.16,0,0,1,0-1.65h.07" fill="#50d6cc"/><path d="M358.85,194.67c0-.22-.14-.55,0-.74.07.23.18.56,0,.74" fill="#50d6cc"/><polyline points="359.48 194.45 359.52 194.45 359.51 194.79 359.48 194.79 359.48 194.45" fill="#50d6cc"/><path d="M360.34,195.2c0-.18,0-.41.07-.51l-.07.51" fill="#50d6cc"/><polyline points="359.44 195.51 359.47 195.24 359.47 195.46 359.44 195.5" fill="#50d6cc"/><path d="M360.4,197.11a.86.86,0,0,1-.11-.86c0-.19-.11-.56.08-.75.33.53-.12,1.09,0,1.61" fill="#50d6cc"/><path d="M334.94,198.25c-.15,0-.18-.14-.14-.19s.11.12.14.19" fill="#50d6cc"/><path d="M343.05,201.21c.19.41-.08.78-.3,1.08-.26.1-.22-.23-.26-.3,0-.3.19-.78.56-.78" fill="#50d6cc"/><path d="M355.81,202.8l.11.14c-.11.31-.78.19-.52.64a3.2,3.2,0,0,1,.77.79,9.49,9.49,0,0,1-1.78,2.34l-.34.26a10.19,10.19,0,0,1-.44-1.79,4.48,4.48,0,0,0-.22-1.49c.38-.22.93-.15,1.38-.34a.62.62,0,0,0,0-.45c-.07-.1-.33-.18-.26-.4.48-.08.81.18,1.26.3" fill="#50d6cc"/><path d="M350.59,229.92a7.08,7.08,0,0,0,2.78,1.39,2.06,2.06,0,0,0-.82,1.19c-.11.12-.26,0-.38.08a8.75,8.75,0,0,1-2.58-3.08c.26-.63.74.2,1,.42" fill="#50d6cc"/><path d="M355.89,231.7a4.28,4.28,0,0,1,1.79,4.08,3,3,0,0,1-.15,2.09c-1,.78-2-.28-3-.43a4.17,4.17,0,0,1-2.18-2.7c-.29-.41-.36-1-.69-1.33-.55-.91-2.67-.84-1.77-2.37a15.28,15.28,0,0,0,2.7,2.29c.59,0,.41-.89.86-1.11a5.56,5.56,0,0,0,1.32,2.16c.41.56.89,1.06,1.66.84.26-.23.52-.48.42-.9-.18-.78-1-1.16-1.33-1.87.11,0,.19,0,.23-.15.07-.41-.23-.67-.48-1s-.49-.39-.85-.39c.4-.29.41-.85.71-1.29.14.74.92,1.23.77,2.08" fill="#50d6cc"/><path d="M341.68,231.11c0,.19.19,0,.26.15a1.37,1.37,0,0,1-.85.48,3.29,3.29,0,0,1-2.94.32c-.25-.3-.18-.67-.25-1,.26.3.85,0,1.22,0,.15-.26.45,0,.63-.18.67,0,1.3.15,1.93.23" fill="#50d6cc"/><path d="M337.63,231.91l.3.6a1.87,1.87,0,0,0-1.49,1.15c-.44-.9.49-1.76.86-2.57.3.08.15.56.33.82" fill="#50d6cc"/><path d="M343.42,231.71c.11.76-.75.94-1.12,1.35a5,5,0,0,1-2.9.92c-.4-.31-.21-.71-.58-1v-.18a8.48,8.48,0,0,0,2.75-.59,9.23,9.23,0,0,0,1.22-.74c.22,0,.52-.07.63.22" fill="#50d6cc"/><path d="M354.14,231.54c0,1.27,1.19,1.91,1.62,3-.44,0-.4-.52-.74-.74a2.75,2.75,0,0,1-1-2.25h.12" fill="#50d6cc"/><path d="M355.29,232.29c-.23.16-.11.27-.15.45-.37-.29-.33-.78-.44-1.2.33.09.48.5.59.75" fill="#50d6cc"/><polyline points="338.11 233.08 338.07 232.63 338.15 232.81 338.11 233.08" fill="#50d6cc"/><path d="M336.84,235.87c-.37,0-.41.52-.79.51.38-.41.82-1,1.16-1.41a3.47,3.47,0,0,0,.86-1.68,4.35,4.35,0,0,1-1.23,2.58" fill="#50d6cc"/><polyline points="337.29 233.51 337.33 233.52 337.33 233.7 337.29 233.7 337.29 233.51" fill="#50d6cc"/><path d="M339.29,234.53a10.81,10.81,0,0,0,3.34-.76c-.07.48-1.22.24-.7.85l.74-.18c-.82.74-2,1-2.83,1.78-.93.92-1.68,2.53-3.13,2.59l-1,.33v.23c.4.22.77-.19,1.22-.15a2.63,2.63,0,0,1-1,.6c-.52.25-1.27.66-1.74.28a11.27,11.27,0,0,1-.51-2.8c.19-1.75,2.2-1.93,2.76-3.46a.28.28,0,0,1,.22.23v.26c-.3.78-2.42,1.22-1.23,2.3a.86.86,0,0,0,.92.23,5.1,5.1,0,0,0,2.28-3.23,1.42,1.42,0,0,0,.7.89" fill="#50d6cc"/><path d="M335.84,235.74c.15-.14.33-.41.52-.47,0,.29-.37.29-.52.47" fill="#50d6cc"/><path d="M349.94,144.23s.06,0,.11-.09h0Z" fill="#50d6cc"/><path d="M349.59,139.13h0v0h0Z" fill="#50d6cc"/><path d="M349,128.71c-.25-.29-.66-.56-.77-.89,0-.12.11-.08.19-.12.77.31,1.06,1.21,1.58,1.8a16,16,0,0,1,.49,5.94c0,.26-.12.67,0,.86l.08,0a3.41,3.41,0,0,0-.07-.82,10.66,10.66,0,0,0,.16-3.32c0-2.13-.72-4.41-2.64-5.5-.18-.15-.45-.15-.6-.27-.44.08-.73-.33-1.22-.19-.48-.19-1,.41-1.26-.19h0a2.22,2.22,0,0,0-.21-1.53c0,.49-.45.86-.67,1.22,0,.23.33.35.48.46-.12.45-.56.37-.94.55a9,9,0,0,0-3.33,7.3l.31-1.94.22-.21c.3.37-.12.85-.12,1.26a11.11,11.11,0,0,0,.68,4.83,4.36,4.36,0,0,1,.06,3.65c-.27,1.16-1,2.35-.8,3.51l.26-.74c.19-.23.19-.64.53-.67v-.23c.33-.55.59.3.92.31,0,0,0,0,0-.07s-.07-.35-.29-.27a.65.65,0,0,1-.3-.68c.08-.15.3-.25.41-.18s.41.31.33.53l.49.07c-.49,0-.41-.56-.78-.75a.46.46,0,0,1,0-.74.66.66,0,0,1,.29,0,1.19,1.19,0,0,0,.67.67c-.12.49.52.27.59.49,0,.52.89.07.88.67.12-.22.38-.07.56-.1a.79.79,0,0,1,.22.33l.19-.15a.42.42,0,0,1,.51.05.37.37,0,0,0,.49-.16c.37-.14.48.23.62.42.12-.3-.06-.82.31-1.08-.14-.56,0-1.45-.66-1.79a3.21,3.21,0,0,1-2.45-.58c-.44-.07-1-.45-1.4-.07a1.75,1.75,0,0,1-.82,1c-.3-.52.08-1.5-.29-2a27.51,27.51,0,0,1-.87-4.67c-.06-2.1-.12-4.82,1.78-6.26.25.21-.11.4,0,.62.52,0,.82-.47,1.19-.77.11,1,1-.07,1.48.34s.44-.52,1-.37c.4.45,1,.34,1.52.57a3.06,3.06,0,0,1,1.69,2.36c.4,2.46-.24,5.07-.18,7.39,0,.19-.21.4,0,.55.27-1.15.05-2.09.39-3.24C350,133.5,350.37,130.81,349,128.71Z" fill="#50d6cc"/><path d="M362.05,163c0,.26-.15.14-.26.22a2.78,2.78,0,0,1-1.11-2.43c.08,0,.11-.19.26-.19.41.52.22,1.46.85,1.91-.84-2.84-1-5.75-1.59-8.71-1.06-2.62-1.64-5.5-3.08-8-.29-1.07-1.4-1.27-2.37-1.46-.14-.15-.44-.08-.55-.23l-.45,0c-.1-.3-.44,0-.62-.23-.93-.53-.64.67-1.16,1-.18-.12,0-.52-.25-.52v.14a3.14,3.14,0,0,1-.49,2.2l-.12-.08a3.26,3.26,0,0,0-.06-2.65,6.63,6.63,0,0,1-1.46-4.77.09.09,0,0,1-.06,0c0,1.53-.31,3.06.72,4.45.08.16-.08.38-.2.51.18-.08.42-.24.57,0-.19.48.36.27.48.48.33.38,0,.64-.12.89,0,0,0,0,.07,0,.07.42,0,.6-.26.83l.22.18a.5.5,0,0,1-.22.64.46.46,0,0,1-.56-.11.57.57,0,0,1,.23-.86c-.6-.27.07-.75-.11-1.12-.38.07-.56.74-.82,1.07l0,0c-.26.33-.27.56-.53.86-.3.6-1.07.37-1.48.81-.15.16-.23.37-.49.41s0-.23-.1-.3c-.27.26-.34.6-.57.82l-.11-.15c0-.75.6-1.41.38-2.16.3-.38,0-.86.08-1.3-.33.36-.66-.05-1-.12a.54.54,0,0,1-.51.14c-.3-.11-.3-.37-.3-.63a1.06,1.06,0,0,1,.33-.22c.23-.15.45.14.64.23,0-.05.18-.05.11-.19a.6.6,0,0,1-.48-.49c-.15.15-.23.45-.52.37a.6.6,0,0,1-.33-.67c-.08.22-.19.41-.45.45a.84.84,0,0,1-.44-.58.64.64,0,0,0-.29.12s-.08,0,0-.12h-.22v.31a.55.55,0,0,1,.44-.15.6.6,0,0,1,.3.53c.22,0,.37-.23.63-.08a.93.93,0,0,1,.25.52c-.08.26-.26.41-.52.33s-.36-.3-.44-.48a1,1,0,0,1-.56.07.42.42,0,0,1-.25-.52l-.37,0c.59.82,1.7,1.57,2.21,2.54-.41.33-.59-.48-1.11-.27a1.51,1.51,0,0,0,.44.9c1,.12,1.36,1.05,1.77,1.76l-.08.19c-.52,0-.48-.59-.7-.9-.33-.63-1.07-.57-1.51-1a11.55,11.55,0,0,0-1.18-2.29c0,.07,0,.16,0,.18l-.15.19L342,145c-.11.07-.22.22-.33.22l.29.26a.44.44,0,0,1-.14.67.48.48,0,0,1-.67,0l.07.29.56-.1a.61.61,0,0,1,.4.71c-.11.22-.3.49-.59.3-.48-.13-.14-.87-.7-.83-.15-.6-.78-.87-.77-1.5-.56-.15-.41-.82-.66-1.2a20,20,0,0,1-2.31.73,2.94,2.94,0,0,0-1.67.45,7.53,7.53,0,0,0-1.53,2.26,5.53,5.53,0,0,0-.83,3.73,11.85,11.85,0,0,1-.58,3.47c-.44.93-.08,1.84-.41,2.69,0,1.16-.9,2-.94,3.21.29.07.44-.26.66-.37.41-.15,1-.52,1.19.08a.71.71,0,0,1,.59.22c.07.6.85.45.92,1.05.25,1.57.8,3,.5,4.7a2.49,2.49,0,0,0-.16,1.05h0V167h0c.75-1.58.28-3.7.25-5.39l.11-.29c.34.29.15.78.26,1.23.55,1.31.1,2.62.2,3.77a11.65,11.65,0,0,0,.13-4.44c0-.9-.47-1.72-.32-2.57h.15c.36,1.82,1.35,3.51.79,5.45-.11.22-.19.41,0,.6.68-1.31.28-2.84-.05-4.19-.22-.6.12-1.42-.25-2-.1-1.68-1-3.32-.75-5,.52,1,.21,2.43,1.13,3.4.05-.3.08-.6.12-.89a12,12,0,0,0-.32-2.25c-.18-1.9-1.66-3.37-1.27-5.38h.07c.37,1.24.47,2.62,1.32,3.56.07,0,.15,0,.18,0-.47-2.24-1.61-4.52-1-6.92l.14,0a10.9,10.9,0,0,1,.07,1.61c.37,1,.18,1.79.54,2.8.22.34,0,1,.48,1.12a3.52,3.52,0,0,1,.49-1.22c.22.25,0,.45,0,.67-.26.67-.08,1.68-.27,2.39-.15,1.49.1,3.25,0,4.81a48.37,48.37,0,0,1,.22,8.71c.17,1-.2,1.7.32,2.46.29.07.52.3.84.26.42-.21-.06-.75.23-1.12.52.19.7,1.17,1.33,1.06.12-.49-.29-.75,0-1.16.41.26.26.79.56,1.16.18.19.36.42.62.3-.36-2.46.73-4.81.19-7.28.07-.3-.33-.56,0-.82.37.07.36.56.47.86l0,2.69c0,1.26-.58,3.12.2,4.41,0,.07,0,.3.18.26-.11-.53-.18-1-.29-1.58a12.51,12.51,0,0,1,.35-2.86c0-.12.11,0,.18,0,0,1.64-.27,3.78,1,4.94a11.57,11.57,0,0,1,2.82,0c.7-.26.12-1.27.67-1.68.26.49-.15,1.16.29,1.5a12.91,12.91,0,0,1,2,.31c.26-.31,0-.83.38-1.05a1.72,1.72,0,0,0,.44,1.05c1.86.22,1.68-1.83,2.27-2.86.12-.87.75-1.53.57-2.43a4.49,4.49,0,0,0,.05-1.42c.48-.41-.11-1.16.41-1.49a14.21,14.21,0,0,1,.06,3.67c-.42.82-.12,1.67-.61,2.42,0,.41-.41.82,0,1.23.37-.08,1,.34,1.08-.18a.38.38,0,0,1,.59-.26c.3-.22-.11-.6.15-.86.81,0,.08-.9.63-1.08a3.31,3.31,0,0,0-.24-2c0-.27-.34-.68,0-.87a5.81,5.81,0,0,1,.89,2.3,7.87,7.87,0,0,1-.43,2.86,1.65,1.65,0,0,0,1.05-1c-.1-3.22-1.71-6.25-1.59-9.41.12-.79-.14-1.39.27-2.1.48-.07.15.38.3.6a6.65,6.65,0,0,0,1,5c.11-.19,0-.49,0-.74-.7-1.09-.54-2.54-.8-3.77-.36-1.73.43-3.52.55-5.35a20.67,20.67,0,0,0,.13-5c0-.37-.18-.83,0-1.12.07-.12.22,0,.3.07.1,1.24.47,2.25.5,3.4-.28,2.2-.91,4.44-.78,6.65a5.88,5.88,0,0,0,.27-1.35c.08-1.3.6-2.42.42-3.84.08-.08.15-.18.26-.14a5.22,5.22,0,0,1,.1,1.93,34.68,34.68,0,0,0-.68,5.08,4.73,4.73,0,0,0,.32,2.42c.41-1.37,0-2.94.24-4.21.48.49.17,1.49.39,2.09a15.81,15.81,0,0,1,0,5.23c.18,1.23-.76,2.8-.43,4.25a.24.24,0,0,0,.33.23c.56-1.31.87-2.83,2.06-3.84.33-.11.75-.41,1.11-.1a3.6,3.6,0,0,1,2.4,2.25A4.7,4.7,0,0,0,362.05,163ZM341.54,148a.56.56,0,0,1,.22-.52.59.59,0,0,1,.59.41c-.11.15.07.38-.19.52A.59.59,0,0,1,341.54,148Zm.39,1.16c-.14-.22.08-.45.19-.68a.67.67,0,0,1,.6.42h0c0,.26,0,.56-.23.63A.57.57,0,0,1,341.93,149.11Zm.45,1c0-.18,0-.41.22-.49s.63.05.63.34-.15.41-.26.53A.67.67,0,0,1,342.38,150.16Zm1.28,1.39c-.18-.08-.55,0-.58-.31,0-.18,0-.41.15-.56a.48.48,0,0,1,.66.42C343.85,151.21,343.89,151.51,343.66,151.55Zm.82.78c-.26,0-.52,0-.59-.33s0-.42.18-.48c.38-.19.19.37.52.25h0A.45.45,0,0,1,344.48,152.33Zm2.89.54c-.3.07-.37-.11-.59-.19-.19.14-.19.45-.49.41a.66.66,0,0,1-.63-.46c-.18.27-.41.23-.67.19a.69.69,0,0,1-.18-.48c0-.22.26-.15.38-.29.4,0,.44.93.89.29.37-.25.66.49.89-.1.14-.16.4-.12.62,0A.56.56,0,0,1,347.37,152.87Zm3.17-4.16c0,.19,0,.37-.18.44s-.22,0-.26.12.22.48,0,.71-.41.07-.26.25h0c-.19.26.19.75-.38.82h-.29c-.07.15.15.26.07.49a.61.61,0,0,1-.67.26c0,.26-.07.56-.29.63s-.38.08-.56-.07c0-.23,0-.53.23-.68,1,.42.18-1.09,1.22-.67a1.11,1.11,0,0,1-.07-.67c.19-.15.41-.07.56-.22-.07-.23-.26-.48,0-.68l.37-.21a.92.92,0,0,1-.11-.74l.41-.23a.79.79,0,0,1-.22-.71c.23-.22.74-.15.78.19h0C351,148.26,350,148.18,350.54,148.71Z" fill="#50d6cc"/><path d="M334.91,197.84s-.08.08-.11,0c-.23-.38.08-.89-.07-1.24l0-.63c.37.57-.2,1.23.14,1.83" fill="#50d6cc"/><path d="M321.44,153.22a.81.81,0,0,1,.18.64,6.12,6.12,0,0,1-1.63-.42c-.23,0-.45-.22-.63,0s-.08.52-.41.37a1,1,0,0,1,.15-.9,1.92,1.92,0,0,1,1.56,0,.8.8,0,0,1,.78.34Z" fill="#50d6cc"/><path d="M321,154.23a.8.8,0,0,1,.7.71l-.11.19c-.89-.6-2,0-2.86,0a.59.59,0,0,1,0-.6,2,2,0,0,1,2-.28h.3Z" fill="#50d6cc"/><path d="M321.68,156l0,.45a2.59,2.59,0,0,0-1.68-.31l-1.26.44c-.22-.11-.14-.41-.14-.59.41-.45,1-.37,1.48-.55S321.35,155.35,321.68,156Z" fill="#50d6cc"/><path d="M332.64,160.87h0a1.76,1.76,0,0,0-1.49.4c.18.45.74.78,1.07,1.23,0,.19.3.45,0,.53a15.37,15.37,0,0,0-2.4-1.91c-1.3-.91-3.15-.55-4.26-1.9a31.63,31.63,0,0,1-.38-4c-.25-1.86-.43-3.81-.6-5.67,0-2.09-.39-4.48-.49-6.61h0c0-.19-.11-.49-.29-.56,0,.19-.08.48.14.52,0,0-.07.11-.15.11a3.92,3.92,0,0,1,.15.67c-.08.86.14,1.76.14,2.58.25,1.15.1,2.35.24,3.39.21,1.57.24,3.21.46,4.94,0,.78.14,1.42.18,2s.25,1.43-.13,1.91c-.66-.31-.85-1-1.21-1.54h-.19c-.11.67-.48,1.23,0,1.86.15.38.44.64.55,1-.07.06-.15,0-.22,0-.52-.38-.74-1.27-1.41-1.16a1,1,0,0,0-.37.62.62.62,0,0,1-.63,0c-.37-.41-.25-.93-.21-1.45.11-.23.4-.11.51-.25s0-.31-.07-.42c-.44-.34-.7-.86-1.44-.68-.52.33-1.48.22-1.56.92a3.18,3.18,0,0,0,1.29,1.69c-.16,2.09-.27,3.92-.25,6.05a198.23,198.23,0,0,0,.12,21.55c.53,4.86.95,9.86,1.63,14.53,1,6.5,2.35,12.74,3.95,18.87a162.13,162.13,0,0,0,5.63,16.88c-.6.92.59.48.66,1.29.12,0,.23.09.3-.06,0-.89-.55-1.61-.36-2.54-.31-4.67-.69-9-1.08-13.75-.18-1.75-.35-3.81-.42-5.6-.21-2.58-.38-5-.66-7.54-.31-5.87-1-11.73-1.33-17.53-.21-1.93-.32-3.66-.42-5.59-.25-.94-.1-1.88-.32-2.81-.38-4.07-.55-7.77-.93-11.88l-.12-.11c0-2-.28-3.78-.3-5.72l.07-.11a7.18,7.18,0,0,0,3.77,2.63c.92.46,1.37,1.54,2.67,1.32.7-.22.82-1,1.26-1.52.08-.15,0-.44.27-.44a1,1,0,0,0,.3-.64c-.49.45-.64,1.12-1.12,1.63,0-.06-.15-.11-.19-.25.12-1.2,1-2.08,1.5-3.13A4.12,4.12,0,0,0,332.64,160.87Zm-12.79-2.8c-.22,0-.33-.18-.4-.37.22-.26.63-.22,1-.33l.08.15A1.56,1.56,0,0,1,319.85,158.07Zm6.38,15.76h0a59.05,59.05,0,0,0,.52,6c-.18,1.23.25,2.46.25,3.73a3.34,3.34,0,0,1,.07.89c.1,2.1.46,4.3.52,6.28.15.41,0,.86.15,1.34a1.24,1.24,0,0,0,.1.83c-.07.66.11,1.19,0,1.75.19.26,0,.79.11,1.12a15.27,15.27,0,0,1,.21,2.88c.28,1.56.17,3.17.42,4.85-.08,1.28.35,2.58.31,3.7.22.15-.07.37.07.56a7.83,7.83,0,0,1,.14,1.41c0,1.32.29,2.29.24,3.67.26,1.46.14,3,.42,4.38a35.7,35.7,0,0,0,.25,4c.24,3,.41,5.71.66,8.6a6.91,6.91,0,0,1,.18,1.49c.1.7.17,1.61.24,2.43,0,.44.14.86,0,1.27a9.77,9.77,0,0,1-.81-2.14c-1-2.76-1.75-5.64-2.63-8.48a33.33,33.33,0,0,1-.83-3.45,3.66,3.66,0,0,1-.37-1.27,45.22,45.22,0,0,1-1.52-7.58c-.33-.6,0-1.12-.4-1.76-.22-.48.12-1-.25-1.45a82.62,82.62,0,0,1-1.17-11.77c0-.52.53-.9.3-1.45-.31-3.26-.55-6.81-.76-10.2-.33-1.39.09-3-.72-4.19a15.84,15.84,0,0,1-.5-3.33,129.5,129.5,0,0,1-.24-18.18c.36-.08.59.11.88.15h0c1.07,1.42,2.22,2.88,3.32,4.2.17,2.13.54,4.25.52,6.42C326.24,171.69,325.94,172.7,326.23,173.83Z" fill="#50d6cc"/><path d="M368.18,161.3c-.64,2.8-1.62,5.6-2.42,8.39-.26.45-.26,1-.56,1.45-.72,2.72-1.58,5.33-2.45,8-.63-1.06.27-1.91.42-2.88.27-1.23.72-2.28.94-3.54.64-1.34.72-2.72,1.43-4.14.54-1.94,1.06-3.84,1.67-5.66.26-.56.29-1.09.52-1.69.15,0,.37-.06.44.08Z" fill="#50d6cc"/><path d="M355.81,202.8l.11.14c-.11.31-.78.19-.52.64a3.2,3.2,0,0,1,.77.79,9.49,9.49,0,0,1-1.78,2.34l-.34.26a10.19,10.19,0,0,1-.44-1.79,4.48,4.48,0,0,0-.22-1.49c.38-.22.93-.15,1.38-.34a.62.62,0,0,0,0-.45c-.07-.1-.33-.18-.26-.4.48-.08.81.18,1.26.3Zm-5.22,27.12a7.28,7.28,0,0,0,2.78,1.39,2.06,2.06,0,0,0-.82,1.19c-.11.12-.26,0-.37.08a8.67,8.67,0,0,1-2.59-3.08c.26-.63.74.2,1,.42Zm5.3,1.78a4.26,4.26,0,0,1,1.8,4.08,2.92,2.92,0,0,1-.16,2.09c-1,.78-2-.28-3-.43a4.14,4.14,0,0,1-2.18-2.7c-.29-.41-.36-1-.7-1.33-.55-.91-2.67-.84-1.77-2.37a16,16,0,0,0,2.7,2.29c.6,0,.41-.89.86-1.11a5.68,5.68,0,0,0,1.32,2.16c.41.56.89,1.06,1.67.84.26-.23.52-.48.41-.9-.18-.78-1-1.16-1.33-1.87.11,0,.19,0,.23-.15.07-.41-.22-.67-.48-1a1.45,1.45,0,0,0-.85-.39c.41-.29.41-.85.71-1.29.15.74.92,1.23.77,2.08Zm-14.21-.6c0,.19.19,0,.26.16a1.37,1.37,0,0,1-.85.48,3.29,3.29,0,0,1-2.94.32c-.25-.3-.18-.67-.25-1,.26.3.85,0,1.22,0,.15-.27.45,0,.64-.19.66,0,1.29.16,1.92.23Zm-4,.81.29.6a1.91,1.91,0,0,0-1.49,1.14c-.44-.89.49-1.75.87-2.56.29.07.14.56.33.82Zm5.79-.2c.1.76-.75.94-1.12,1.35a5.08,5.08,0,0,1-2.9.92c-.41-.31-.22-.72-.59-1v-.18a8.43,8.43,0,0,0,2.75-.59,10,10,0,0,0,1.23-.74c.21,0,.51-.07.63.22Zm10.72-.17c0,1.27,1.18,1.91,1.62,3-.45,0-.41-.52-.74-.74a2.71,2.71,0,0,1-1-2.25h.11Zm1.14.75c-.22.16-.11.27-.15.45-.37-.29-.33-.78-.44-1.2C355,231.63,355.19,232,355.29,232.29Zm-17.18.79,0-.45.08.18,0,.27Zm-1.27,2.79c-.37,0-.41.52-.78.51.37-.41.82-1,1.15-1.41a3.57,3.57,0,0,0,.87-1.68,4.42,4.42,0,0,1-1.24,2.58Zm.45-2.36h0v.18h0Zm2,1a10.54,10.54,0,0,0,3.34-.77c-.07.49-1.22.25-.7.86l.74-.18c-.82.74-2,1-2.83,1.78-.93.92-1.68,2.53-3.13,2.59l-1,.33v.23c.4.22.78-.19,1.22-.15a2.76,2.76,0,0,1-1,.6c-.52.25-1.27.66-1.74.28a11.27,11.27,0,0,1-.51-2.8c.19-1.75,2.2-1.93,2.76-3.46a.3.3,0,0,1,.23.23v.26c-.3.78-2.42,1.22-1.23,2.3a.86.86,0,0,0,.92.23,5.1,5.1,0,0,0,2.28-3.23,1.42,1.42,0,0,0,.7.89Zm-3.45,1.21c.15-.14.33-.41.52-.47C336.32,235.56,336,235.56,335.84,235.74ZM367,162.41a1,1,0,0,1-.36-1.08l.41-.93a2.26,2.26,0,0,1-.05,2Zm1.21,2.43c-.18.12-.29.34-.52.41.45-1.3.42-3.1,1.62-4a32.45,32.45,0,0,1-1.1,3.61Zm-1.4-1.71c-.37.74-.49,1.55-.83,2.3-.55-.93.05-1.93.39-2.87.15.22.74.16.44.57Z" fill="#50d6cc"/><path d="M344.62,137.13h0Z" fill="#50d6cc"/><path d="M349.3,131a3.78,3.78,0,0,0-.93-.94c-1.74-.9-3.55-.35-5.45-.17-.63.14-.74.86-1,1.3a4.12,4.12,0,0,0,.73,4.19l-.05,1.64-.23,0a7.94,7.94,0,0,1,.78,1.88c.73,1.57,2.52.3,3.74.83.82-.25,1.12-1.15,1.61-1.82a3.39,3.39,0,0,0-.14-2.54C349.58,134.28,349.51,132.57,349.3,131Zm-7.13,1.46c.67-1,1.93-.07,2.67-.54.37.07.18.67.33.85-.15.34-.19.71-.6.82a2.53,2.53,0,0,1-1.88-.46C342.72,132.69,341.72,133,342.17,132.42ZM346,138a.22.22,0,0,1-.06.24,1.4,1.4,0,0,1-.22.17,1,1,0,0,1-.31,0,.56.56,0,0,0-.33.06.2.2,0,0,1-.13,0,.2.2,0,0,1-.1-.07.75.75,0,0,1-.13-.25h0a.47.47,0,0,1,0-.21v-.17l.23.13a.55.55,0,0,0,.31.11h0a1.26,1.26,0,0,0,.55-.06.37.37,0,0,0,.2-.05h0a.13.13,0,0,1,0,.05Zm.51-.47a4.78,4.78,0,0,0-.76,0h-1.41a3.47,3.47,0,0,0-.73.09c-.23-.22.22-.29.33-.37a3.06,3.06,0,0,1,.66-.1l-.06,0c.1,0,.11,0,.08,0h0a.76.76,0,0,1,.51.13l.14,0h.05c.08,0,.05,0,0,0,.19,0,.38,0,.44-.16h.84l.44.14s0,0,0,0a.78.78,0,0,0,.26.1c0,.05.1,0,.14.08Zm1.25-4.07c-.52.49-1.29-.38-1.6.41s.77,1.13,1.11,1.84a2.3,2.3,0,0,1,.51,1.3c-.59,0-.51-1.3-1.33-1a1.46,1.46,0,0,1-1.23.37c-.33-.23-.77-.19-1.07-.52-.44.14-.56.66-.93.92l-.15,0c-.08-.44.3-.66.52-1,.38-.14.45-.47.79-.62.11.11.07.38.29.49.45-.11,1,.45,1.3-.15,0-1.19-.84-2.46-.2-3.66.18,0,.18.3.4.27.64.07,1.08-.3,1.75-.17a4.86,4.86,0,0,1,1,.6.42.42,0,0,1-.22.4C348,132.68,348.43,133.57,347.76,133.41Z" fill="#50d6cc"/><path d="M351.25,183.19l.08,1.88-.35.83h-.28l.32-2.52Z" fill="#50d6cc" fill-rule="evenodd"/><path d="M362.19,179.17c-.42-3.83,1.44-7.09.8-11a1.66,1.66,0,0,0-.22-.6l0,1.52c-.12.38.1,1.16-.34,1.28-.14-.82-.14-1.8-.32-2.66h0c-.41-.83-.29-2.13-1.4-2.4-.78-.19-1.27.49-1.64.88a4.93,4.93,0,0,0-1.05,2.47c.1,1.37.81,2.61.91,3.88a8.5,8.5,0,0,1,.25,1.51c-.08,2.26.35,4.32,0,6.26-.12.9-.5,1.94-.61,2.88a.3.3,0,0,1-.23.1c-.14-1.16-.21-2.5-.42-3.74l-.19-.26c.14.94-.08,1.87,0,2.7l-.23.22c-.18-.56-.1-1.23-.29-1.76,0-1.11-.84-2.12-1-3.33-.67,0-.52-.82-.84-1.23-.19-.15-.45-.19-.52-.41-.48-.34-1,0-1.49,0-.22.11-.52.14-.7.25s-.45.22-.49-.11c.34-.41.86-.41,1.2-.78a2.27,2.27,0,0,0-.75.11,14.56,14.56,0,0,1-5.79.45c-.81-.12-1.52-.31-2.41-.38-.18-.27-.29,0-.52-.23l.08-.07c1,0,2,0,3,.09,3.23.35,6.32-1.46,9.65-.74a.47.47,0,0,0,.27-.41c-.37-.41-1-.38-1.63-.38-.45.18-1.15.07-1.56.26-.45-.15-.6.29-1,.14-.23.29-.67,0-.9.25-1,0-1.85.22-2.85.14-1.49.36-3.12-.2-4.49.05-1.86-.17-3.38-.54-5.2-.73-.36-.08-.73-.31-1.06,0-.05.22,0,.41.21.45,1.19.13,2.3.53,3.52.58.59.49-.34,1.12-.41,1.67a14.43,14.43,0,0,1-.05,2.18c-.15.25,0,.47-.18.66-.41-1.23-.25-2.8-.65-4.07-.19-.07-.63-.16-.52.15-.45.51-.3,1.3-.31,2,0,.11,0,.26-.22.18a6.21,6.21,0,0,1-.22-1.53c-.07-.41.08-1.26-.59-1.16-1.56,1.34-1.09,3.46-1.58,5.07a30,30,0,0,1-1.37,7.05c-.15,1.34-.82,2.76-.83,4a9.44,9.44,0,0,1-.17,3.54h0l-.05,1.09.23-.08a8.24,8.24,0,0,1,.24,2.69c.45-1-.51-2.51.36-3.39.4.3.1,1,.1,1.34.11,0,.18.08.26.15.43,2.28,0,3.62.41,5.83.36,1.64,1,3.48.64,5.23,0,1.3.8,2.36,1.24,3.52,0,.52.3.82-.15,1.22-.37-.07-.15-.44-.22-.71a3.39,3.39,0,0,0-.29-.67,6.61,6.61,0,0,0,0,2.27c.08.23-.11.45-.18.68a20.9,20.9,0,0,0,1,8.15c.11.11,0,.34.15.44s.22.49,0,.68-.3-.2-.45-.23c.06,2.06.84,3.51.68,5.64a2.27,2.27,0,0,1-.27.89,3.5,3.5,0,0,1-.82,1.42,1.26,1.26,0,0,0,.74.27c1.16-.59,2.45-.18,3.64,0a3.37,3.37,0,0,0,1.63.15,5.72,5.72,0,0,0-.62-1.56,5.44,5.44,0,0,0-1.41-.9c0-.12,0-.19.08-.27a.88.88,0,0,1,.66.08c.15,0,.45.16.42-.11a12.78,12.78,0,0,0-.37-2.36c-.26,0-.59.41-.78,0-.07-.15.12-.18.19-.29,1.41-.37,1-2.09,1.13-3.14-.34.19-.19.78-.63.71-.23-.22-.15-.49-.11-.74,1.65-3.36,1.44-6.91.94-10.61-.49.61-.12,1.39-.45,1.94-.08.08-.26.11-.3,0a6.47,6.47,0,0,1,.08-1.7c1.54-2.72,1-6.31,1.61-9.41.23-1.15-.25-2.13.24-3.14-.52-1,.44-1.75.2-2.75,0-.08,0-.27-.19-.23s0,.12,0,.18a10.11,10.11,0,0,1-1.09,2.92c.07.06.15.06.18.1s0,.38,0,.45c-.27.3-.27,1-.82.79-.22-.39.3-.64.3-1-.23,0-.49.37-.67,0s.08-.49.15-.7c-.14,0-.33-.09-.37-.27.34-.6.82-1.34.46-2.09.08-.26.41-.29.45-.55a.6.6,0,0,1-.86,0c-.18-.49-.66-.64-.81-1.12.34-.3-.11-.94.38-1.12.29.3.14.71.21,1.08.52.23.05-.78.42-1,.74.23,0,1.05.66,1.28.33-.14,0-.86.27-1.19.47.27.35.89.43,1.38.3-.22.16-.78.3-1.11.11-.12.23-.12.34,0s-.31,1.07.25,1.26c.19-.34.07-.78.23-1.12.71-.22.07.9.44,1.16.52-.15,0-.9.56-1.08.4.33,0,1,.14,1.3h.15c.18-.3,0-1,.3-1.31.55.23.25,1.08.29,1.43l.15.14c.44-.26-.19-1.3.52-1.41.36.41,0,.93.17,1.42.08.07.15.18.26.15.3-.52-.18-1,.23-1.49.63.11.11.6.29,1,.11.11,0,.38.26.38.15-.15.08-.45,0-.68.11-.22-.11-.82.38-.82.4.42-.12,1,.28,1.43.08,0,.19,0,.26,0,0-.6-.29-1.2.16-1.61.48,0,.18.49.25.83s.07.63.44.56c.26-.48-.29-1.05.16-1.49.52.11.18.93.48,1.27,0,.56-.72.7-1.05,1l0,.08c-.15.15-.37.18-.49.45.18,1.23,0,2.28.54,3.4l.08-.15c.23-.59-.29-1.38.45-1.57.26.31.07.94,0,1.23a38.42,38.42,0,0,0,.14,7.92,23.77,23.77,0,0,1,.6,4.52c-.07,0-.11.15-.18.15a21.62,21.62,0,0,0-.69-2.88,2.59,2.59,0,0,0-.22,1.54,17.76,17.76,0,0,0,.15,6.57c.09,3.16.56,5.94-.34,9,.07.6-.64.77-.46,1.34a4,4,0,0,0,1.68-.67c.22,0,.74-.12.66.23-.63.33-1.19.59-1.82.88.11.49.66.61.92,1,.85.45,1.7,1.35,2.85.9.6-.29.64-1,.71-1.49-.33-.29-.85-.15-1.25-.29a2.86,2.86,0,0,1-2.71.21c0-.08,0-.19,0-.23,1.29.42,2.07-.77,3.33-.54a2.33,2.33,0,0,1,.56.22h.25a9.72,9.72,0,0,1-.43-1.08c-.29-.56.3-1,.19-1.41-.49.33-.67,1-1.34.88v-.22c2-1.34,1.32-3.95,1.92-6,.2-2.39,1.32-4.59,1.41-7a1.26,1.26,0,0,0,.3-.6c-.18-1.23.35-2.54-.09-3.84-.3,0-.34.37-.52.47l-.15-.1c-.14-.82.41-1.45.79-2.13-.37,0-.45.49-.63.64-.15.33-.41.45-.64.67,0-.08-.1-.12-.07-.23a13.63,13.63,0,0,1,1.61-2.76,7.48,7.48,0,0,1-1.05.74c-.07-.07-.18-.15-.1-.25a9.68,9.68,0,0,0,1.88-5.53c-.14-1.26.68-2.45.06-3.65l-.12.11c-.34,1.13-.87,2.54-1.21,3.69,0,.71-.93,1.34-.11,1.87a.55.55,0,0,1-.27.71c-.18.26.08.33.22.51a.8.8,0,0,1,.07,1c-1,1-1.53,2.12-2.65,2.83a1.45,1.45,0,0,1-.43-1.34,15.14,15.14,0,0,1-.51-3c.19-.48.71-.45,1.15-.51,0-.23-.22-.38-.14-.68s.48-.3.78-.33c.49-1.64,1-3.29,1.47-4.92.41-.56,0-1-.22-1.49a.63.63,0,0,0-.51-.19c-.23,0-.3-.27-.3-.49.45-.34,0-1.16.46-1.45.29.25.25.85.36,1.27.48-.29,0-.9.34-1.27.67,0,.18,1,.51,1.39a2.45,2.45,0,0,0,.16-1.35c.11-.18.22,0,.4-.14.42-1.16.76-2.39,1.13-3.58l-.33-.26c-.17-1.69.54-3.37.29-5.12l.11-.07c.22.15.26.49.29.74.48.46.29,1.24.44,1.77.33.07.41-.27.59-.45s.08-.34,0-.45c0-1-1-1.83-.35-2.73.37.49.15,1.24.51,1.69.14,1,.92,1.61.66,2.57,1.15-.25.37-1.56.78-2.38.6-.08.11.67.41.9.33-.15.19-.71.3-1.09s.41-.11.63-.33c-.07-.63.6-.92.64-1.52C363.33,181.6,362.56,180.43,362.19,179.17ZM338.71,195c-.11.16-.19.35-.41.27l-.23-.23c-.18.37-.62.26-.89.45a.25.25,0,0,1-.37-.05s-.11-.1-.18-.06-.11.44-.37.52c-.41-.15-.22-.79-.18-1.16.07-.12.11-.27.22-.3s.29.11.29.3a.1.1,0,0,0,0,.07c.22-.07.12-.37.3-.52.44.38.93-.74,1.19.08.07-.11.07-.33.26-.37C338.94,194.06,338.6,194.65,338.71,195Zm.66,0a.43.43,0,0,1-.33.14c-.22-.3-.07-.78,0-1.12l.18-.12A1.43,1.43,0,0,1,339.37,195Zm.67-.07h-.3c0-.33-.14-.68.12-1C340.19,194.06,340,194.55,340,194.89Zm2.5,6.84.39-.55.16.31-.4.79-.15-.12Zm-1.83-6.8a1.05,1.05,0,0,1,0-1.05c.38.14.23.59.26.93C340.93,195,340.82,194.88,340.71,194.93Zm11.05.72c-.07.07-.18,0-.29,0a2,2,0,0,1-.22-1.35c.07,0,.15-.12.22-.15.22.3.15.63.22,1C351.73,195.35,351.87,195.5,351.76,195.65Zm.78-.14c-.4,0-.4-.38-.55-.65a1.68,1.68,0,0,1,.19-.92c.22-.08.29.14.33.25C352.43,194.68,352.8,195.14,352.54,195.51Zm.41-.23c0-.45-.33-1.15.12-1.56.33.48.22.93.25,1.53A.2.2,0,0,1,353,195.28Zm-.83-5.86a5.69,5.69,0,0,0-.26,2.16.37.37,0,0,1-.3.26c-.41-.23-.11-.83-.26-1.16,0-1-.32-1.53-.39-2.46l.18-.15c.27.11.19.63.56.48a24.89,24.89,0,0,0,.83-3c.56-1.64.42-3.48.65-5.2l.19,0h0C353.45,183.63,352.7,186.47,352.12,189.42Zm1.65,5.75c0-.56-.22-1,.08-1.64.33.44.18,1,.29,1.49A.4.4,0,0,1,353.77,195.17ZM355,195c-.18-.07-.3.12-.4,0l-.11-1.24a.4.4,0,0,1,.37-.22c.26.26,0,.79.18.93S355,194.77,355,195Z" fill="#50d6cc"/><path d="M409,216.83a.39.39,0,0,1,.09-.28,1.84,1.84,0,0,0,.16-.69,2.19,2.19,0,0,1,.15-.69.87.87,0,0,0,.09-.48.84.84,0,0,1,.09-.48,3.41,3.41,0,0,0,.16-1c.06-.9.06-.95-.17-1.18a3.91,3.91,0,0,0-1.29-.72c-.12,0-.06.37.08.49a.36.36,0,0,1,.15.25c0,.08,0,.14.07.14s.16.13.25.3a3.48,3.48,0,0,1,.06,2,4.05,4.05,0,0,0-.18.37c-.08.16-.78.26-.78.1s-.13-.1-.29-.1a.52.52,0,0,1-.35-.1c0-.06-.22-.1-.42-.1a1.24,1.24,0,0,1-.6-.16c-.19-.13-.22-.22-.17-.53a.75.75,0,0,1,.66-.75c.35-.09.44-.3.19-.42l-.37-.18a1.2,1.2,0,0,0-.46-.11.4.4,0,0,1-.3-.1.73.73,0,0,0-.44-.1.75.75,0,0,0-.44.1c0,.06,0,.1,0,.1s.11.08.15.17a2.44,2.44,0,0,0,.25.46c.2.33.26.64.1.64s-.1.11-.1.24,0,.25-.48.25c-.26,0-.51,0-.54-.1a.44.44,0,0,0-.3-.1,1.44,1.44,0,0,1-.85-.38c-.23-.18-.22-.56,0-1s.31-.51,1.11-1.18c.35-.3.34-.51,0-.51a.51.51,0,0,0-.34.09.45.45,0,0,1-.33.1c-.45,0-.7.11-.7.3a.29.29,0,0,1-.1.24.42.42,0,0,0-.1.3c0,.13,0,.24-.08.24a1.68,1.68,0,0,0-.16.73,2.44,2.44,0,0,1-.15.79.69.69,0,0,0-.09.42.94.94,0,0,1-.09.46,2.13,2.13,0,0,0-.16.7c-.08.71,0,.79.47.32a.94.94,0,0,1,1.12-.2,3.33,3.33,0,0,0,.83.15,1.74,1.74,0,0,1,.66.14,2,2,0,0,0,.73.15,2.26,2.26,0,0,1,.79.16.75.75,0,0,0,.44.09c.2,0,.4,0,.43.08a.8.8,0,0,0,.4.14c.46.08.63.23.63.55s.2.56.37.34a.89.89,0,0,0,.12-.39Zm-6.52,5.44a.59.59,0,0,0-.12-.4,2.9,2.9,0,0,1-.59-1.22c0-.4.22-.47,1.19-.4a3.7,3.7,0,0,1,1,.15,3.43,3.43,0,0,0,.91.16,3.09,3.09,0,0,1,.86.15.51.51,0,0,0,.34.09,1.17,1.17,0,0,1,.46.09,2.19,2.19,0,0,0,.52.15.71.71,0,0,1,.58.71c0,.16.24.16.38,0a2.39,2.39,0,0,0,.17-.83,2.24,2.24,0,0,1,.15-.76c.05,0,.08-.24.08-.48s0-.44-.14-.44a.26.26,0,0,0-.19.1,1.81,1.81,0,0,1-.85.39.28.28,0,0,1-.23-.1.77.77,0,0,0-.44-.09c-.21,0-.39-.05-.41-.1a4.38,4.38,0,0,0-1.33-.16,6.13,6.13,0,0,1-1.29-.14,1.14,1.14,0,0,0-.5-.13c-1-.14-1.05-.58-.08-1.52.42-.41.67-.72.62-.79s-1.14,0-1.58.16-.32.16-.32.77a1.45,1.45,0,0,1-.1.69.84.84,0,0,0-.1.48c0,.24,0,.46-.08.48a1.63,1.63,0,0,0-.15.62A3.67,3.67,0,0,1,401,221l-.25.51.28.28a2.8,2.8,0,0,0,.88.61.72.72,0,0,1,.28.2.23.23,0,0,0,.23.07c.11,0,.16-.12.14-.36Zm1.19,3.8a2.44,2.44,0,0,0-.46-.25c-.1,0-.17-.1-.17-.15s-.06-.08-.13-.08-.61-.47-.52-.56a4.26,4.26,0,0,1,.87-.11,3.48,3.48,0,0,0,.9-.12.27.27,0,0,1,.28.06c.15.11.17.2.11.64-.11.78-.33.92-.88.57Zm2.56,3a.72.72,0,0,0,.13-.38c0-.12,0-.23.1-.24a2.19,2.19,0,0,0,.16-.79c.07-.86,0-.91-.5-.51-.21.15-.35.21-.39.14a.36.36,0,0,0-.25-.1c-.37,0-.51-.28-.44-.86a3.38,3.38,0,0,1,.15-.69,2,2,0,0,0,.14-.53c.05-.29.1-.36.28-.36a.54.54,0,0,0,.33-.11c.18-.18.71.1.71.37a.34.34,0,0,0,.54.23,1.12,1.12,0,0,0,.2-.57,2,2,0,0,1,.15-.56,2.72,2.72,0,0,0,.15-.76c.06-.62.06-.65-.14-.65a.35.35,0,0,0-.26.09c-.15.25-.74.42-1.59.47a2.3,2.3,0,0,0-.9.13c0,.05-.31.09-.68.09a1.85,1.85,0,0,0-.73.08,6.43,6.43,0,0,1-1.37.15c-1.56.08-1.91.21-1.91.67s.23.66.45.66c.07,0,.13,0,.13.07s.14.17.32.27l.56.37a4.69,4.69,0,0,0,.55.31,1.69,1.69,0,0,1,.42.29.39.39,0,0,0,.23.16,1.64,1.64,0,0,1,.45.27,5.59,5.59,0,0,0,.83.52,4.27,4.27,0,0,1,1.26.8.94.94,0,0,1,.37.6c0,.14,0,.25.09.25s.1.07.1.15.2.18.36,0Zm-6.53,3.78c.07-.12.09-.24.05-.27a3.23,3.23,0,0,1-.62-1.6v-.47h.53a1.18,1.18,0,0,1,.59.1,1.32,1.32,0,0,0,.55.16,1.2,1.2,0,0,1,.54.15.51.51,0,0,0,.33.08c.15,0,.31,0,.34.1a1.09,1.09,0,0,0,.52.15,2.28,2.28,0,0,1,.56.14,1.49,1.49,0,0,0,.39.14,1.6,1.6,0,0,1,1.36,1.09c.06.18.07.18.25-.05a1.7,1.7,0,0,0,.25-.63,2.86,2.86,0,0,1,.14-.54,3.44,3.44,0,0,0,.34-1c.05-.31,0-.36-.12-.36a.74.74,0,0,0-.41.24c-.23.25-.72.33-.83.15a1.24,1.24,0,0,0-.52-.16,1.8,1.8,0,0,1-.56-.14,2.15,2.15,0,0,0-.56-.14,1,1,0,0,1-.52-.16.49.49,0,0,0-.34-.09.55.55,0,0,1-.33-.08.91.91,0,0,0-.41-.16,2.48,2.48,0,0,1-.52-.14,2.54,2.54,0,0,0-.44-.17.73.73,0,0,1-.38-.25,1,1,0,0,1,.27-1c.72-.39,1.25-1,.91-1a5.57,5.57,0,0,0-1.61.14,1.08,1.08,0,0,0-.13.62c0,.29,0,.53-.07.53s-.32.51-.39.94a1.7,1.7,0,0,1-.12.48,1.85,1.85,0,0,0-.14.51,1.55,1.55,0,0,1-.38.91.87.87,0,0,0-.13.44c0,.34,0,.43.29.75a1.8,1.8,0,0,0,.43.37.9.9,0,0,1,.32.24c.28.3.4.31.57,0Zm-2.2,4.37c-.65-.33-1-.61-1-.79a4.54,4.54,0,0,1,.84-1.52,1.13,1.13,0,0,1,1.48,0,.77.77,0,0,1,.32.74c0,.62-.63,1.88-.92,1.85a5.27,5.27,0,0,1-.71-.32Zm4.35,3.23a5.84,5.84,0,0,0,.41-.95.68.68,0,0,1,.15-.33c.31-.41,0-.79-.35-.4-.18.22-.91.19-1.34,0a1.9,1.9,0,0,0-.49-.19c-.07,0-.12,0-.12-.07s-.15-.14-.32-.21a2.66,2.66,0,0,1-.49-.28c-.24-.22,0-.52.38-.52a.61.61,0,0,0,.38-.09,1.21,1.21,0,0,1,.63-.1,1.59,1.59,0,0,0,.63-.08,3.24,3.24,0,0,1,1-.15,2.36,2.36,0,0,0,1.13-.23c.4-.37.87-1.79.58-1.79a1,1,0,0,0-.31.24.75.75,0,0,1-.5.25.45.45,0,0,0-.32.09,3.34,3.34,0,0,1-1,.15,5,5,0,0,0-1.18.18c-.4.19-.55,0-.58-.77,0-1-.39-1.58-1-1.75a2.29,2.29,0,0,1-.46-.17c-.17-.08-.31-.06-.64.1a2.19,2.19,0,0,0-.56.35.41.41,0,0,1-.26.16.23.23,0,0,0-.2.17,3.67,3.67,0,0,1-.38.56,2.29,2.29,0,0,0-.39.66c0,.15-.1.27-.15.27s-.09.08-.09.17a3.08,3.08,0,0,1-.29.76,3.64,3.64,0,0,0-.3.72.64.64,0,0,1-.19.35,1.37,1.37,0,0,0-.25.62c-.06.34,0,.41.09.41s.16,0,.16-.07.58-.42.79-.42.19,0,.19.09.14.12.31.16a2.62,2.62,0,0,1,.61.25,3.76,3.76,0,0,0,.47.25c.09,0,.17.09.17.14s.09.09.2.09a1.83,1.83,0,0,1,.56.19,1.66,1.66,0,0,0,.48.2c.06,0,.13,0,.14.07a7.44,7.44,0,0,0,1.41.71c.17,0,.44.44.44.73s.17.58.34.44a5.59,5.59,0,0,0,.52-.91Zm-3.79,6.34a2.37,2.37,0,0,1,.4-.64,2.44,2.44,0,0,0,.27-.45,2.46,2.46,0,0,1,.36-.54,1.74,1.74,0,0,0,.36-.57,2.72,2.72,0,0,1,.42-.64c.44-.41.36-.9-.27-1.72a1.78,1.78,0,0,1-.28-.46c0-.06-.08-.11-.19-.11s-.2.06-.2.33a.62.62,0,0,0,.1.4,3.43,3.43,0,0,1,0,1.56.76.76,0,0,0-.16.35c0,.16-.1.29-.15.29a.1.1,0,0,0-.09.11.62.62,0,0,1-.58.47,1.18,1.18,0,0,1-.5-.14c-.13-.08-.31-.17-.39-.21a1.93,1.93,0,0,1-.34-.25l-.51-.43c-.35-.27-.42-.62-.17-.82a.39.39,0,0,0,.14-.23.9.9,0,0,1,.22-.33c.17-.18.31-.22.73-.22s.52-.05.52-.1a2.05,2.05,0,0,0-.7-.72l-.52-.3a1.59,1.59,0,0,0-.62-.25c-.21,0-.23,0-.17.27a.57.57,0,0,0,.16.3c.18.07.11.41-.22,1,0,.08-.13.25-.18.38s-.15.22-.37.16a1.34,1.34,0,0,1-.47-.25.64.64,0,0,0-.31-.19,1.65,1.65,0,0,1-.51-.35c-.45-.41-.51-.74-.18-1.08a2.44,2.44,0,0,0,.32-.44,1.28,1.28,0,0,1,.5-.42,2.56,2.56,0,0,0,.43-.26,1.35,1.35,0,0,1,.44-.12,1.1,1.1,0,0,0,.48-.16c.14-.15-.11-.4-.42-.4a.57.57,0,0,1-.36-.1.91.91,0,0,0-.53-.07c-.39,0-.44.06-.65.46a1.9,1.9,0,0,1-.34.5c-.1.07-.21.25-.52.85a1.83,1.83,0,0,1-.3.42.38.38,0,0,0-.14.21,1.16,1.16,0,0,1-.25.41l-.33.41a1.61,1.61,0,0,0-.15.34,1.45,1.45,0,0,1-.26.42c-.1.1-.15.23-.13.27s.4.1.53-.06c.27-.32.78-.13,2.11.78l.34.25a.67.67,0,0,0,.19.13,4,4,0,0,1,.88.58l.46.36a1,1,0,0,0,.36.15,1.93,1.93,0,0,1,.59.44c.36.39.44.75.24.95s-.08.16,0,.28.16.13.46-.22a3,3,0,0,0,.42-.57Zm-7.78,1.51a1.57,1.57,0,0,0-.51-.39.23.23,0,0,1-.19-.17,1.17,1.17,0,0,0-.2-.33c-.12-.14-.12-.2,0-.44a2.08,2.08,0,0,1,1.53-1.11c.33,0,.45.06.76.41.54.57.51.93-.11,1.7l-.39.51c-.21.32-.5.26-.93-.18Zm3.08,2.57a.45.45,0,0,1-.22-.19.31.31,0,0,0-.2-.13,2.18,2.18,0,0,1-.61-.49,2.06,2.06,0,0,0-.6-.49c-.07,0-.13-.11-.13-.25s.17-.43.56-.83c.56-.57.57-.57,1.13-.58a1.05,1.05,0,0,1,1,.41c.42.38.44.42.44,1,0,.38,0,.6-.15.69a.36.36,0,0,0-.14.23c0,.16-.5.61-.74.67a.65.65,0,0,1-.34,0Zm-.06,1.61c.36-.39.88-.93,1.14-1.2a2.44,2.44,0,0,0,.48-.59,1.06,1.06,0,0,1,.3-.38,1.17,1.17,0,0,0,.29-.38s.1-.17.22-.28.21-.28.22-.91a1.65,1.65,0,0,0-.12-.84.46.46,0,0,1-.12-.28.76.76,0,0,0-.27-.4,1.85,1.85,0,0,0-1.61-.51l-.76,0v-.44a1.85,1.85,0,0,0-.12-.66c-.24-.43-.7-.86-.93-.86s-.22,0-.22-.09-.16-.1-.35-.1-.34,0-.34.09-.15.12-.34.16-.58.31-1.61,1.39a14,14,0,0,0-1.27,1.44,1.39,1.39,0,0,1-.34.44,1.09,1.09,0,0,0-.35.52c0,.16.05.18.37.12a1.68,1.68,0,0,0,.49-.17q.12-.1.12,0c0,.07.09.11.21.11a3.5,3.5,0,0,1,1.06.79,6.65,6.65,0,0,0,.95.78,1.67,1.67,0,0,1,.47.39,1.9,1.9,0,0,0,.47.39,4.62,4.62,0,0,1,1.12,1.16c.09.17.09.27,0,.34s-.12.65,0,.65a3.28,3.28,0,0,0,.79-.71ZM391,255.08c1-1.07,1.17-1.34.68-1.34-.16,0-.29,0-.29.1s-.12.09-.27.09-.41-.14-.77-.5a5,5,0,0,0-.73-.61.88.88,0,0,1-.36-.38c-.07-.15-.18-.27-.25-.27a7.14,7.14,0,0,1-1.09-1l-1-1,0-.58c0-.36,0-.58-.08-.58a10.11,10.11,0,0,0-2.05,2.13c0,.18,0,.19.54.14l.54,0,1.25,1.23a13.37,13.37,0,0,0,1.34,1.24,3.88,3.88,0,0,1,.72.62l.62.63-.05.5c-.08.86,0,.82,1.2-.41Zm-5.58,5.06a1,1,0,0,1,.32-.24,6.19,6.19,0,0,0,.85-.79,5.78,5.78,0,0,1,.85-.78,1.53,1.53,0,0,0,.48-.39,1.7,1.7,0,0,1,.49-.39.64.64,0,0,0,.29-.19c.14-.16.16-.29.11-.65a1.57,1.57,0,0,0-.15-.57,1.53,1.53,0,0,1-.16-.49c-.09-.49-.3-.72-.52-.58s-.17.28-.19.73a3.22,3.22,0,0,1-1,2.12c-.62.63-.81.59-1.74-.4-.42-.44-1-1-1.22-1.3a2.94,2.94,0,0,1-.55-.73,1.73,1.73,0,0,0-.38-.54c-.6-.59-.8-1.11-.53-1.38a.28.28,0,0,0,.05-.27c-.06-.16-.36-.21-.36-.05a.11.11,0,0,1-.12.1,1.7,1.7,0,0,0-.56.44,2.25,2.25,0,0,1-.53.44,2.1,2.1,0,0,0-.84.88.34.34,0,0,0,.5.31c.35-.22.66-.14,1.11.31a1.89,1.89,0,0,1,.44.51,3.11,3.11,0,0,0,.54.63,2.59,2.59,0,0,1,.54.64,2.56,2.56,0,0,0,.49.66,3.45,3.45,0,0,1,.49.6,2.07,2.07,0,0,0,.34.47c.19.23.3.42.25.44s-.11.14-.11.27,0,.24-.09.24-.13.18,0,.33.5,0,.85-.38Zm-11.52,1.77c-.09-.11-.09-.19,0-.33s.08-.24-.14-.53-.35-.86-.16-.86.1-.07.1-.15a.14.14,0,0,1,.14-.14c.08,0,.15,0,.15-.09s.13-.12.29-.16a.68.68,0,0,0,.35-.15.82.82,0,0,1,.47-.09.76.76,0,0,1,.7.3c.25.26.29.37.29.85,0,.65-.22,1-.65,1a.45.45,0,0,0-.32.09,1.63,1.63,0,0,1-.89.4.5.5,0,0,1-.33-.14Zm1.85,3.09a9.15,9.15,0,0,1-.8-1.39,1.46,1.46,0,0,0-.3-.47c-.2-.09-.05-.38.27-.51s.34-.16.34-.2.13-.1.29-.14a.77.77,0,0,0,.35-.15,1,1,0,0,1,.52-.09c.41,0,.5,0,.85.39s.39.41.39,1.11-.08.9-.44,1.07l-.58.31c-.51.29-.7.3-.89.07Zm-1,1.83a1,1,0,0,1,.29-.14,2.05,2.05,0,0,0,.54-.29,4.46,4.46,0,0,1,.69-.39,2.67,2.67,0,0,0,.58-.35,1.58,1.58,0,0,1,.44-.24.72.72,0,0,0,.31-.17,1.81,1.81,0,0,1,.48-.3,1.7,1.7,0,0,0,.83-.95c0-.08.1-.22.15-.32a2.13,2.13,0,0,0-.39-1.87.4.4,0,0,1-.09-.25.18.18,0,0,0-.11-.19l-.37-.19a1.31,1.31,0,0,0-.5-.11h-.28v-.92c0-.86,0-.94-.23-1.18a1.84,1.84,0,0,0-1.53-.58,5,5,0,0,0-1.84.76,6,6,0,0,1-.66.39c-.21.11-.37.22-.37.26s-.12.1-.27.14a2,2,0,0,0-.58.3,1.16,1.16,0,0,1-.4.24.62.62,0,0,0-.27.2c-.17.19-.17.21,0,.37s.2.14.33.06.59,0,.81.3.09.15,0,.15-.2.13,0,.29a.42.42,0,0,1,.15.25,1,1,0,0,0,.23.41,1.78,1.78,0,0,1,.31.54c0,.15.1.27.14.27s.11.13.15.29a.74.74,0,0,0,.23.41.81.81,0,0,1,.25.37,1.29,1.29,0,0,0,.25.44c.45.52.63,1.37.34,1.61a.42.42,0,0,0-.08.53c.07.07.45,0,.52-.14Zm-5.1,2.19.22-.06-.06-3.43-.07-3.44.22-.26a.66.66,0,0,1,.4-.27.17.17,0,0,0,.19-.19c0-.26-.15-.33-.41-.19l-.41.2a2.89,2.89,0,0,1-.71.15c-.29,0-.52.09-.52.13s-.14.11-.3.14a.81.81,0,0,0-.35.16c-.08.13.14.38.33.38a.7.7,0,0,1,.38.21c.19.18.23.31.23.78a1.16,1.16,0,0,0,.1.62,11.77,11.77,0,0,1,0,2.72c-.08.08-1-.8-1-1a3,3,0,0,0-.59-.68,2.85,2.85,0,0,1-.58-.7c0-.06-.11-.19-.25-.29s-.35-.75-.14-.87a.53.53,0,0,0,.09-.35c0-.23,0-.29-.22-.29a.82.82,0,0,0-.42.15.78.78,0,0,1-.41.14c-.12,0-.22.05-.22.1s-.13.12-.3.15a2.69,2.69,0,0,0-.56.21,1.3,1.3,0,0,1-.38.13c-.19,0-.15.4,0,.55a.78.78,0,0,0,.33.14,5.2,5.2,0,0,1,1.35,1.25,2.47,2.47,0,0,0,.45.51,2.77,2.77,0,0,1,.51.6c0,.09.59.71,1.22,1.39,1.17,1.25,1.28,1.31,1.81,1.17Zm-8.78,2.46c.1-.12.36-.15,1.14-.15a5,5,0,0,0,1.18-.09l.63-.3c.6-.27,1.35-1.07,1.35-1.44a.63.63,0,0,1,.12-.4c.08-.08.09-.17,0-.33a3.13,3.13,0,0,1-.17-.54,1.67,1.67,0,0,0-1.05-1,.55.55,0,0,1-.34-.12,2.88,2.88,0,0,0-1.07-.16,3.75,3.75,0,0,1-1.05-.13,2,2,0,0,0-.68-.08c-.61,0-1.32-.25-1.33-.47a.11.11,0,0,0-.1-.12c-.16,0-.1-.52.08-.73a1.45,1.45,0,0,1,1-.54c.18,0,.37,0,.4-.1a.42.42,0,0,1,.3-.1c.13,0,.24.05.24.1s.2.1.44.1a1.14,1.14,0,0,1,.76.24c.41.31.78.4.93.22s-.07-.62-.67-1.27l-.47-.51-.28.26c-.25.23-.36.26-1.3.3a2.68,2.68,0,0,0-1.48.31,3.44,3.44,0,0,0-1.19,1.07c-.18.28-.24,1.43-.07,1.43a.11.11,0,0,1,.1.12,1.72,1.72,0,0,0,.75.76.12.12,0,0,1,.13.1s.1.1.22.1a.5.5,0,0,1,.33.1,6.49,6.49,0,0,0,1.44.16,5.78,5.78,0,0,1,1.33.14s.2.09.44.09a1,1,0,0,1,.58.14.49.49,0,0,0,.25.15c.05,0,.1.07.1.15s.05.14.1.14.11.55-.05.69a.38.38,0,0,0-.15.23c0,.12-.68.45-.92.45a.26.26,0,0,0-.2.1,1.94,1.94,0,0,1-.78.1,1.9,1.9,0,0,1-.78-.1.3.3,0,0,0-.21-.1,2.37,2.37,0,0,1-1-.48c0-.11-.37-.2-.54-.14s-.19.52,0,.52a.12.12,0,0,1,.1.13.76.76,0,0,0,.24.36.9.9,0,0,1,.24.33c0,.36.75.59,1,.31Z" fill="#50d6cc"/><path d="M408.19,151.64c.27-.34.41-.36,2.92-.41s2.64,0,2.91.28c.5.59.68.41.68-.7s-.16-1.38-.54-.8c-.26.39-.29.4-2.48.4a8.81,8.81,0,0,1-2.22-.14,26.46,26.46,0,0,1,4.18-1.77c.62-.23.9-.42.87-.58a4.38,4.38,0,0,0-1.48-.87,15.08,15.08,0,0,1-3.41-1.78c0-.08.34-.1.75-.05l2.09.2c1.17.09,1.39.15,1.72.51s.41.37.53.18a6.69,6.69,0,0,0,.07-2.38,1.82,1.82,0,0,0-.45.24c-.31.21-.61.22-1.87.09-.82-.09-2-.16-2.55-.16-1,0-1.1-.05-1.4-.43-.48-.61-.66-.31-.61,1l.05,1.09,1.69.72c1.82.78,2.58,1.22,2.45,1.42a15.24,15.24,0,0,1-2.15.88,6.5,6.5,0,0,0-2.25,1.07,3,3,0,0,0-.08,1.22c.05.49.09.95.1,1s.18.12.48-.24Zm1.69,8c.45-.07,1.64-.18,2.66-.25,1.68-.1,1.88-.08,2.19.19l.34.3-.1-2.3c-.06-1.27-.15-2.46-.2-2.66s-.34-.43-.89-.61a2.09,2.09,0,0,0-.88-.17c-.05,0,.14.28.42.51a2.86,2.86,0,0,1,1.05,2.07c.14,1-.15,1.31-1.55,1.44-1,.09-1.05.07-1.29-.28a1.57,1.57,0,0,1,.05-1.81c.58-.53.42-.77-.48-.68s-1.08.19-.73.57a3.68,3.68,0,0,1,.45,2.29,3,3,0,0,1-1.09.23c-1.19.11-1.37-.07-1.39-1.45a2.07,2.07,0,0,1,.36-1.52c.2-.27.33-.54.28-.59s-1,.28-1.18.54a29.32,29.32,0,0,0,.38,4.81l.09.38.35-.44a1.59,1.59,0,0,1,1.16-.57Zm1.33,9a2.6,2.6,0,0,0-.64-.83c-.59-.58-.82-1.21-.5-1.41.07,0,1.22-.24,2.56-.44,2.28-.33,2.45-.34,2.88-.09s.46.24.46,0a12.77,12.77,0,0,0-.37-2.21s-.24.1-.45.31-.7.42-2.28.65c-1,.15-2.19.29-2.54.31-.62,0-.63,0-.68-.57A2.1,2.1,0,0,1,410,163c.49-.83.32-.91-.73-.38-.54.28-.63.39-.54.68a33.57,33.57,0,0,1,.63,4.61c-.11.27.19.51.88.71s1,.22,1,0Zm.15,7.76c.17-.43.37-.51,3.18-1.12,2.12-.46,2.59-.49,2.86-.16a.65.65,0,0,0,.36.24c.18,0,.17-.09-.47-3.1l-.44-2.06-.63-.21a2.75,2.75,0,0,0-1-.15c-.28,0-.25.1.25.44a2.68,2.68,0,0,1,1.23,2c.17.79.16.89-.13,1.18a3.36,3.36,0,0,1-2.41.31,2.72,2.72,0,0,1-.25-.95c-.08-.69,0-.84.26-1.12s.29-.36.17-.44a3.57,3.57,0,0,0-1.83.28c-.3.16-.3.17,0,.29a1.64,1.64,0,0,1,.87,1.57l.05.72-.95.18c-1.23.25-1.44.13-1.56-.93a3.21,3.21,0,0,1,.24-2c.29-.6.08-.71-.56-.28-.47.32-.59.49-.53.76s.2,1.13.34,2.09a7.63,7.63,0,0,0,.65,2.78s.14-.17.22-.39Zm1.12,5.33c0-.32.51-.63,1.31-.81,4-.88,4.46-.94,4.65-.63s.39.15.39-.28a3.53,3.53,0,0,0-.61-1.91c-.1,0-.18,0-.18.19,0,.35-.39.49-2.94,1s-2.65.57-3,.16c-.16-.18-.35-.27-.41-.2a7.45,7.45,0,0,0,.42,2.44c.12.19.39.19.39,0Zm1.1,7.88c.1-.26.77-.67,2.4-1.47,3.25-1.58,3.56-1.76,3.62-2s-.55-.9-1.09-.9a35,35,0,0,1-4.71-1.12,2.77,2.77,0,0,1-.81-.51c-.21-.2-.41-.28-.49-.19a5.25,5.25,0,0,0,.17,2.22c.06.06.32-.06.59-.26l.49-.36,1.55.29c2.28.44,2.29.52.26,1.58a19.87,19.87,0,0,1-1.83.89.89.89,0,0,1-.37-.25c-.39-.39-.59-.12-.49.7.19,1.48.26,1.78.41,1.78s.22-.17.3-.37Zm1.52,6.26a1.88,1.88,0,0,1-1.61-2.11c.2-1.06.91-1.41,2.93-1.41a5,5,0,0,1,2.14.26,1.76,1.76,0,0,1-.51,3.25,8.59,8.59,0,0,1-2.95,0Zm3.42,1.06A2.87,2.87,0,0,0,420,194a15.58,15.58,0,0,1,.05-3.35c.17-1.21-.05-1.3-.45-.18a2.1,2.1,0,0,1-.49.88,1.23,1.23,0,0,1-.73-.19,5.65,5.65,0,0,0-3.1-.25,4,4,0,0,0-2.29,2.19,3.27,3.27,0,0,0,1.67,3.81,5.12,5.12,0,0,0,3.9,0Z" fill="#50d6cc"/><path d="M286.7,231.71a2.21,2.21,0,0,1-.43-.66,1.3,1.3,0,0,0-.1-.39c-.09-.25.36-.56,1.35-.94.64-.25,1.08.28,1.08,1.3s-.2,1.2-.93,1.2a1.16,1.16,0,0,1-1-.51Zm2,1.85a1.71,1.71,0,0,0,1-1.72c0-1-1.61-4.78-2-4.78-.07,0-.19.24-.28.54-.13.49-.36.65-2.39,1.66-2.21,1.11-2.92,1.31-3.3.93s-.37.41.14,1.52.93,1.49,1,.72c0-.37.25-.57,1.05-1a6.29,6.29,0,0,1,1.2-.54c.11,0,.44.45.74,1,.86,1.63,1.7,2.12,2.87,1.67Zm.32,8.08c.74-.13.84-.54.16-.7-1.06-.25-2.37-1.49-2.37-2.25,0-.19.77-.76,2.21-1.64,2.1-1.29,2.24-1.35,2.93-1.25s.72.08.62-.19a12.55,12.55,0,0,0-1.64-2.39c-.07,0-.12.22-.12.49,0,.45-.18.61-1.63,1.56-2.78,1.81-3.2,2-3.55,1.81s-.83-.25-.7.09a45.66,45.66,0,0,0,2.77,4.58.65.65,0,0,0,.44.06,8.66,8.66,0,0,1,.88-.17Zm4.18,2.31c-.16-.24-.22-.48-.13-.56a3.63,3.63,0,0,1,1.49-.48,3.63,3.63,0,0,1-.93,1.47c-.08,0-.28-.19-.43-.43Zm.1,4.56c0-.36.54-1.39,1.75-3.4,1-1.59,1.75-3,1.75-3,0-.39-.51-.57-1.13-.4l-1.53.43c-.51.14-1.69.49-2.63.78a5.49,5.49,0,0,1-2.16.42c-.58-.15-.61-.14-.67,0s1.46,2.06,1.64,1.95a.56.56,0,0,0,.06-.49c-.11-.43.3-.81,1.11-1,.37-.09.52,0,1,.53.63.76.67,1.42.13,2a.85.85,0,0,1-.83.31c-.25-.05-.44,0-.44,0,0,.41,1.64,2.62,1.85,2.49a.94.94,0,0,0,.14-.6Zm5.79,4.75c.78-.48.32-.84-.7-.56a1.47,1.47,0,0,1-1.33-.08,1.89,1.89,0,0,1-1.09-1.71c0-.9,1.53-2.78,2.81-3.44.63-.33.75-.33,1.47,0a2.55,2.55,0,0,1,1.21,2.26c0,.75.24.8.58.13s.34-1.27.09-1.43a3.3,3.3,0,0,1-.58-.74,3.68,3.68,0,0,0-2.57-1.5c-2,0-4.33,2.52-4.14,4.52S297.42,254.28,299.05,253.26ZM301,257c-.07-.52.16-.82,2.33-3.08,1.37-1.43,1.52-1.54,2-1.44.77.17.61-.25-.5-1.31s-1.43-1.18-1.28-.39c.1.53,0,.67-1.73,2.56s-1.87,2-2.42,1.93c-.82-.11-.75.18.33,1.34s1.38,1.15,1.29.39Zm5.32,4c-.84-.36-1.52-.9-1.52-1.21,0-.48,3.12-4.53,3.49-4.53a2.36,2.36,0,0,1,1,.64,1.52,1.52,0,0,1,.67,1.45,4.36,4.36,0,0,1-1.61,2.94c-.86.83-1.34,1-2,.71Zm2.46.68a4.54,4.54,0,0,0,2.15-2.4,2,2,0,0,0,.22-1.74,4.28,4.28,0,0,0-.78-1.55,12.57,12.57,0,0,0-3.63-2.73c-.27,0-.3.05-.14.2.5.51,0,1.48-1.72,3.48-.37.42-.82,1-1,1.25a1,1,0,0,1-.9.5c-.31,0-.59.1-.62.19s.41.54,1,1,1.26,1.05,1.54,1.33a2.38,2.38,0,0,0,2.14.9,3.53,3.53,0,0,0,1.77-.41Zm3.76.72-.4-.25c-.13-.11.54-.72.79-.72a1.09,1.09,0,0,0,.56-.28c.42-.38.53-.2.23.38a6.78,6.78,0,0,0-.33.77c-.1.33-.37.36-.85.1Zm2,4.75c.06-.06,0-.25-.06-.42a16.81,16.81,0,0,1,.64-5.25,2.48,2.48,0,0,0,.26-1.34c0-1.52-.19-1.53-1.91,0a14,14,0,0,1-1.72,1.33,7.08,7.08,0,0,0-1.3,1c-.89.78-1.39,1.07-1.73,1-.86-.15-.54.33.67,1a2.28,2.28,0,0,0,1,.39c.07,0,.08-.3,0-.58s0-.6.37-1c.57-.6.73-.61,1.58-.07s.9.72.71,1.53c-.12.51-.24.66-.68.79s-.54.2-.54.26a16.46,16.46,0,0,0,2.51,1.49.29.29,0,0,0,.21-.1Zm9.11,3.1a1.27,1.27,0,0,0-.21-.5c-.23-.36-.17-.57,1.07-3.75.49-1.28.75-1.74,1.06-1.88.64-.29.33-.62-.88-.95l-1.11-.3-.51.63a18.18,18.18,0,0,1-2.36,2.71c-.14.05-.17-.53-.1-2.16l.08-2.22-.92-.45a6.88,6.88,0,0,0-1.05-.45c-.26,0-.53.58-.4.84a4.19,4.19,0,0,1-.43,1.92L317,266.1a2,2,0,0,1-.74,1.09c-.66.37-.51.68.49,1s1.22.2.9-.41c-.16-.29-.1-.61.3-1.77a13.62,13.62,0,0,1,1.08-2.79,14.43,14.43,0,0,1,0,2.71c-.11,2.58-.1,2.85.17,3.07s.2.42,2.44-2.44c1.36-1.75,1.8-2.2,1.58-1.62-.07.18-.3.94-.52,1.69-.49,1.69-.85,2.39-1.26,2.5a.35.35,0,0,0-.11.66c.66.42,2.29.7,2.29.38Z" fill="#50d6cc"/><path d="M375.5,103.84a112.75,112.75,0,0,0-9-11.06A13.76,13.76,0,0,1,365,91c0-.63-13.39-12.4-18.73-16.46-2.87-2.18-3.09-2.29-3.09-1.51,0,.41-.73.87-1.17.73a1.39,1.39,0,0,1-.61-.51c-.25-.38-.33-.4-1.88-.34s-1.64.07-2,.49-.33.44.06.85a.88.88,0,0,1-.2,1.46,7,7,0,0,0-.95.69,1.17,1.17,0,0,1-1.2.4c-.66-.11-.86,0-1.67,1.22a2.84,2.84,0,0,1-.78.7,4.29,4.29,0,0,0-1,1.13,9.41,9.41,0,0,1-1.53,1.62c-1,.83-1.26,1.36-.72,1.55a2.87,2.87,0,0,1,1.56,1.48c.17.52.25.59.79.59s.71.12,1.27.75a2.12,2.12,0,0,0,1,.76,1.9,1.9,0,0,1,.93.6c1.08,1.13,2.33,1.39,2.94.62l.37-.45,1,.86a13.39,13.39,0,0,0,4,2.24c.67.24,1.06.73,1.74,2.2a11.36,11.36,0,0,0,.8,1.43,2.33,2.33,0,0,1,.43,1.59c0,.89,0,1,.48,1.21s.58.22,1.72-.19a7.56,7.56,0,0,1,3.09-.45,5.81,5.81,0,0,1,3,.47l1.15.48,1.51-.46a14,14,0,0,1,2.66-.55c2.17-.16,4.55.63,5.21,1.72.86,1.4-.18,3.23-2.06,3.63a4.42,4.42,0,0,1-3.13-.48c-.8-.41-.93-.43-1.42-.23a6.86,6.86,0,0,1-4.08.73,11.7,11.7,0,0,1-2.35-.58l-1-.4-1.08.48a7.68,7.68,0,0,1-1.93.58,10.2,10.2,0,0,1-4-.78c-.88-.43-.85-.44-2.12.14a6.18,6.18,0,0,1-5.68-.16l-1.08-.51-1.06.52a5.45,5.45,0,0,1-5.72,0,9,9,0,0,0-1.46-.66,2.65,2.65,0,0,0-.76.39,7.18,7.18,0,0,1-4.28,1c-2.18,0-3.72-.41-4.58-1.26a2.17,2.17,0,0,1,.15-3.25,5.47,5.47,0,0,1,2.91-.93,10.58,10.58,0,0,1,3.26.75c.43.22.54.2,1.38-.21a4.55,4.55,0,0,1,2.67-.45,5.79,5.79,0,0,1,2.87.45c1.08.45,1.13.45,1.81.19.38-.15.69-.36.69-.46a2.87,2.87,0,0,0-.95-.77c-3.06-1.89-6.43-4.27-6.43-4.54a9,9,0,0,0-1.2-1.15c-2.06-1.79-5.4-6-5.61-7.12-.14-.76.05-1.15,1.22-2.42.57-.63,1.52-1.78,2.11-2.56a8.05,8.05,0,0,1,2.37-2.27l2.67-1.73c2-1.32,2.54-1.81,2.49-2.48a.77.77,0,0,1,.34-.81,3.08,3.08,0,0,0,.72-1c.46-1,.93-1,1.75-.23l.62.6.68-.27a1.16,1.16,0,0,0,.88-.9,5.14,5.14,0,0,1,.61-1.25,4.73,4.73,0,0,0,.42-.69,2.86,2.86,0,0,0-.52-.55,1.69,1.69,0,0,1-.35-2.27c.27-.25.49-.29,1.07-.2a8.75,8.75,0,0,0,1.31.09c2.62-.08,2.56-.09,3.69.5a10.89,10.89,0,0,1,2.23,1.72c1.11,1.12,1.14,1.13,1.54.87s.79-.18,1.33.42c.31.34.31.36-.13,1.2a4.68,4.68,0,0,0-.44,1.07c0,.12.28.4.63.63.85.57,5.59,4.33,7.76,6.17,1.86,1.57,3.68,3.24,7.78,7.12,2.65,2.51,6.94,7.1,6.86,7.35a41.06,41.06,0,0,0,3.34,4.33c1.4,1.67,4.33,7.43,4.54,8.88.1.71-.29.56-.9-.36Zm-1.35-3.51a38,38,0,0,0-4.8-7A19.54,19.54,0,0,1,367.64,91c-.42-1.07-7-7.55-12.67-12.49-1.66-1.44-2.7-2.31-6.71-5.54-.65-.52-1.7-1.3-2.34-1.74l-1.17-.8-.4.46a1.27,1.27,0,0,0-.34.72A21.27,21.27,0,0,0,346.75,74c3.87,3,6.47,5.19,12.31,10.35A83.87,83.87,0,0,1,365.94,91a17.29,17.29,0,0,0,1.56,1.85,87.4,87.4,0,0,1,6.06,7.23,7.77,7.77,0,0,0,1.09,1.4,3.93,3.93,0,0,0-.5-1.13Zm-50.47.47c1.14-.26,2.42-1,2.42-1.28s-2.1-1.74-3.27-2.21a6.94,6.94,0,0,0-4.22-.09c-1.27.57-1.69,1.77-.9,2.57,1.06,1,3.82,1.52,6,1Zm16.86.06a.49.49,0,0,1,.38-.17,2.46,2.46,0,0,0,.87-.35l.58-.36-.66-.58c-.37-.32-.9-.79-1.17-1a7.71,7.71,0,0,0-1.35-.93,8,8,0,0,0-5.2-.29c-.55.18-1,.43-1.05.56s2.68,2.14,3.88,2.67a11.58,11.58,0,0,0,3.33.64.47.47,0,0,0,.39-.15Zm16.82-.33c.39-.18.72-.39.72-.48,0-.31-2.76-2.28-3.76-2.69a7.71,7.71,0,0,0-4.8-.23c-.51.18-.95.43-1,.56a10.55,10.55,0,0,0,3,2.25c1.82,1,4.46,1.21,5.83.59Zm-16.74-3.71c0-.32,1.89-.69,3.25-.63s1.36,0,1.51-.39.15-.51-1.13-2.85a6.87,6.87,0,0,0-.84-1.3c-.13-.11-.94-.55-1.8-1s-1.78-.94-2-1.1l-.46-.31.1.74a1.89,1.89,0,0,1-.17,1.23,2.57,2.57,0,0,0-.26.94,6.25,6.25,0,0,1-.25,1.26c-.44,1.43-.28,3.09.3,3.09a2.81,2.81,0,0,1,.79.31c.56.31,1,.31,1,0Zm-3.86-1c0-.28-.68-1-1.29-1.39s-.49-.63.29-.23c.29.16.57.24.61.19s-.15-.43-.44-.85a4.13,4.13,0,0,1-1-2.95l.11-.75.23.53a1.14,1.14,0,0,1,.12.7c-.22.36,1.67,2.38,2.23,2.38s1.15-2.92.92-3.73c-.14-.51-.21-.56-.91-.6a3.23,3.23,0,0,1-2.49-.8,5.59,5.59,0,0,0-1.24-.83,3,3,0,0,1-1.05-.84c-.49-.64-.86-.75-1-.31-.07.18,0,.38.34.6.63.46.83.89.61,1.3s-.63.43-1.13.08-.51-.81,0-.66.42-.35-.21-1a4.68,4.68,0,0,1-.85-1.43,2.06,2.06,0,0,0-.84-1.19c-1-.6-1.31-.25-.53.59.35.37.39.51.23.7s-.25.2-.52-.07a6,6,0,0,1-.58-3.1,2.64,2.64,0,0,1,.9-1,5.82,5.82,0,0,0,2.07-2,8.41,8.41,0,0,0,.5-.87s-.27,0-.59,0-.59,0-.59-.09a.2.2,0,0,1,.22-.19,3.51,3.51,0,0,0,1-.48,2.26,2.26,0,0,1,.95-.41c.21.08,1.2-.92,1.21-1.22a3.08,3.08,0,0,0-.73-.9l-.74-.72-.48.34c-.37.27-.82.36-2.07.43-.88,0-1.37,0-1.09,0a6.24,6.24,0,0,0,2.56-.82l.6-.4-1.39-1.4-1,.85a30.37,30.37,0,0,1-3,2,9.85,9.85,0,0,0-4,3.54,18.3,18.3,0,0,1-1.7,2.09c-1.14,1.19-1.31,1.61-.9,2.24a37.88,37.88,0,0,0,4.45,5.46l2.33,2.18a41.32,41.32,0,0,0,5.79,4l1,.55-.77-.74a14.34,14.34,0,0,1-1.45-1.75,16,16,0,0,0-1.38-1.71c-.75-.77-.65-.87.49-.54.47.13.84.49,1.82,1.82a11.22,11.22,0,0,0,3.05,3.19c.59.35,1.51.48,1.51.21ZM326,85.48c-.25-.26-.08-1.2.34-1.82s.73-.55.24.26a1,1,0,0,0-.17,1c.21.55-.06.95-.41.61Zm-.78-1.63c0-.82,1.22-1.8,2.22-1.78.28,0,.21.07-.26.24-.82.29-1.29.72-1.29,1.17s-.28.77-.53.77c-.08,0-.14-.18-.14-.4Zm8.73,11.73s-.08-.12-.17-.17-.17,0-.17.07a.18.18,0,0,0,.17.18C333.83,95.66,333.91,95.63,333.91,95.58Zm2.26-19.93c.17-.24.2-.4.08-.44s-.83.45-.83.67.49.13.75-.23Zm-.51-1a.56.56,0,0,0,.43-.58c0-.61-.59-.57-.92.07s-.32.82.49.51Zm-1.25-.55a2.65,2.65,0,0,0,.34-.67c0-.26-.47-.1-.84.29s-.35.46-.17.67.29.34.67-.29Zm-.6-1.06a.69.69,0,0,0,.08-1c-.24-.15-.44.07-.58.64s0,.55.5.36Zm3.47-.68c.27-.43.43-.55.63-.45a7.88,7.88,0,0,0,1.56.19c1.24.06,1.3,0,1.9-.48a4.73,4.73,0,0,0,.86-1c.23-.43.22-.55-.08-1.23-.19-.41-.41-.75-.49-.75-.29,0-.56.48-.53,1,.05.74,0,.82-.41,1s-.49.12-1-.22a2.17,2.17,0,0,0-2.1-.24l-.45.18.11-.79c.12-.89-.12-2-.47-2.13s-1.44,1.33-1.44,2.31c0,.54-.05.6-.46.6-1.19,0-1.1.43.43,1.89,1.12,1.07,1.33,1.09,1.89.18Zm5.37,0a9,9,0,0,1,1.28-2.1c1.34-1.8,1.61-2.26,1.47-2.49s-.4-.16-.72.54a3.42,3.42,0,0,1-.7,1l-.38.34.12-.7c.15-.9-.14-1.45-1.36-2.66a8,8,0,0,0-3.54-2c-.44-.08-.62,0-1,.4a2.72,2.72,0,0,1-.59.5,2.08,2.08,0,0,1-.51-.42c-.47-.47-1.18-.55-1.34-.15a1.84,1.84,0,0,0,.53,1.29c.4.23,1.05.27,1.2.08,1-1.24,1.16-1.37,1.75-1.35a6.38,6.38,0,0,1,3.41,2c1.2,1.15,1.41,1.69,1,2.54a2.8,2.8,0,0,0-.28,1,3.71,3.71,0,0,1-.58,1.35c-.57.9-.62,1.43-.12,1.34.15,0,.32-.29.38-.58Zm-10,0c.32-.6.1-.79-.42-.37-.24.2-.34.41-.28.59.16.41.42.33.7-.22Zm-1.48-1.28c0-.23.07-.46,0-.5s-.85.54-.73.74.59.21.71-.24Zm1.21,0c.26-.18.34-.32.22-.44s-.47,0-.7.39,0,.42.48,0Zm8.32-2.14a2.7,2.7,0,0,1,.75-1c.4-.29.47-.43.33-.6-.3-.36-.71-.26-1.26.32-.75.79-1,1.27-.72,1.57s.64.27.9-.33Zm2.11-.27c0-.19-.11-.34-.25-.34s-.29,0-.15.41.4.33.4-.07Zm-2.86-1c.77-.9.85-1.3.31-1.48-.3-.09-.49,0-1,.6a2,2,0,0,0-.63,1.2c0,.74.53.61,1.33-.32Zm-1.26-.94c.5-.65.54-1,.16-1.3s-.35-.14-.84.44c-.69.82-.76,1.43-.16,1.43a1.17,1.17,0,0,0,.84-.57Z" fill="#50d6cc"/><path d="M276.5,146.05a3.35,3.35,0,0,1-.69-.89,6.24,6.24,0,0,1-.22-2.51,3.49,3.49,0,0,1,1.46-.25l1.33-.06,0,1c.05.87,0,1.08-.29,1.32a1.05,1.05,0,0,0-.33.42c0,.16.92.17,1.65,0l.54-.1-.37-.28a1.85,1.85,0,0,1-.52-1.09c-.21-1.16-.11-1.35.85-1.48s1.46,0,1.59.51a3.81,3.81,0,0,1-.42,2.53c-.5.71-.31.92.49.51s.74-.24.49-3.21a10,10,0,0,0-.31-2.13c-.09-.09-.31,0-.54.1a10.52,10.52,0,0,1-3,.44l-2.62.2-.81-.77.11,2.24c.15,3.1.21,3.33.9,3.68a2.73,2.73,0,0,0,.91.29c.28,0,.25-.08-.22-.52Zm5.6,7.22c0-1.08-.17-1.34-.49-.74-.16.3-.35.33-2,.33a6.49,6.49,0,0,1-1.81-.13,14.67,14.67,0,0,1,2.14-1.42,12.93,12.93,0,0,0,2.23-1.54,6.33,6.33,0,0,0,0-2.37c-.07,0-.22.14-.33.33s-.39.33-3,.33-2.82,0-3.14-.36-.39-.31-.45-.25a3.85,3.85,0,0,0-.18,1.1c-.07,1.07.17,1.33.58.67.19-.31.39-.33,2.6-.33a12.68,12.68,0,0,1,2.47.13c.05.07-.15.32-.44.54a23,23,0,0,1-2.86,1.81,13,13,0,0,0-1.24.74c-1.16.75-1.46,1.26-.89,1.48a26.58,26.58,0,0,0,3.08.1c2.77,0,2.82,0,3.17.4.2.22.41.37.49.32a3.09,3.09,0,0,0,.12-1.14Zm-4.73,7.52a7.55,7.55,0,0,0,1.21-1.94c.83-1.77,1.27-2.34,1.75-2.34,1.11,0,1,2.2-.17,3.49-.32.36-.54.71-.48.76a1.82,1.82,0,0,0,.89-.13c.7-.22.79-.3.81-.73a6.42,6.42,0,0,1,.2-1.16c.43-1.52.09-3.09-.75-3.41a2.42,2.42,0,0,0-1.94.24,9.57,9.57,0,0,0-1.67,3c-.37.9-.72,1.25-1.26,1.25s-1-.4-1-1.34A3.2,3.2,0,0,1,276,156c.72-.73.77-1,.14-.84-1.28.32-1.28.32-1.3.82a5.75,5.75,0,0,1-.29,1.28,4,4,0,0,0,0,2.76,1.88,1.88,0,0,0,2.81.81Zm2.35,7.55c.3-.08.39-.29.53-1.2.1-.61.3-1.8.45-2.65a6.47,6.47,0,0,0,.18-1.64c-.06-.06-.24,0-.4.17-.35.32-1.25.28-4-.16-1.92-.3-2-.33-2.12-.82-.24-1-.42-.43-1.06,3.16-.34,1.9-.3,2.08.69,2.58.83.43,1,.3.42-.31a2.28,2.28,0,0,1-.54-1,3.66,3.66,0,0,1,.39-2.35c.27-.3.36-.31,1.44-.13l1.16.2v.66c0,1.06-.21,1.57-.66,1.78s-.28.4.89.55c.89.12,1.07,0,.57-.35-.3-.22-.36-1.1-.14-2,.11-.44.15-.45,1-.36,1.32.13,1.58.32,1.58,1.16a3.31,3.31,0,0,1-1.19,2.24c-.61.43-.16.68.79.43Zm-3.64,8.24a1.9,1.9,0,0,1-.27-1.24v-.94h.78a5.67,5.67,0,0,1,1.18.11c.36.09.39.17.32.91a2.45,2.45,0,0,1-.38,1.14,1.23,1.23,0,0,1-1.63,0Zm1.84,1.23a3.34,3.34,0,0,0,.67-1.36,20.73,20.73,0,0,0,.63-4c-.05-.06-.27.06-.48.25-.49.46-.84.45-3.59,0-1.83-.32-2.29-.46-2.53-.77-.44-.54-.62-.24-.74,1.19l-.1,1.23.37-.33c.33-.29.46-.3,1.61-.14a5.43,5.43,0,0,1,1.38.32,3.73,3.73,0,0,1,0,1.35c-.14,1-.12,1.28.15,1.82a1.55,1.55,0,0,0,2.66.47Zm-.43,7.05a33.7,33.7,0,0,0,.57-5.41c-.07-.19-.18-.15-.5.17a.88.88,0,0,1-.8.34c-.2,0-1.34-.16-2.53-.26-2.55-.22-2.68-.25-2.82-.67-.05-.18-.15-.32-.22-.32a44.1,44.1,0,0,0-.69,5.32c0,.3,1,1,1.45,1,.23,0,.21-.06-.08-.37a3.48,3.48,0,0,1-.59-2.78l.15-.91,1.31.05a3.08,3.08,0,0,1,1.45.25,2,2,0,0,1,0,.95,1.62,1.62,0,0,1-.6,1.18c-.57.5-.54.53.89.73.82.12,1,0,.54-.42a1.45,1.45,0,1,1,2.08-2,2.83,2.83,0,0,1-.59,2.62,1.67,1.67,0,0,0-.41.73c0,.22.1.23.62.09a2.64,2.64,0,0,0,.73-.28Zm-.08,7.55c.13-.15.14-.69,0-2a17.71,17.71,0,0,1-.06-2.74l.09-.91-.81-.29a7.85,7.85,0,0,0-.92-.29c-.24,0-.06.41.4.94a1.64,1.64,0,0,1,.5,1.14c0,.7,0,.69-3.05.8-2.26.08-2.3.07-2.7-.32a2.22,2.22,0,0,0-.47-.4,5.84,5.84,0,0,0-.08,1.4,4.64,4.64,0,0,0,.11,1.41,1.79,1.79,0,0,0,.49-.42l.39-.41,5.39.09,0,.62a2.38,2.38,0,0,1-.45,1.23c-.23.34-.39.67-.34.74s1.21-.27,1.5-.57Zm-5.2,4.61c.2-.05.85-.16,1.44-.26s1.64-.29,2.31-.43c1.19-.23,1.25-.23,1.69.1.6.44.64.43.64-.15,0-1.22-.58-2.82-.79-2.19-.14.43-.56.66-1.4.77-.48.06-1.13.17-1.45.24s-1.12.23-1.79.35c-1.18.21-1.21.2-1.63-.19l-.43-.4.11.91c.07.5.2,1.21.29,1.57l.17.66.23-.45a1.1,1.1,0,0,1,.61-.53Zm7.15,7,.65-.56-.63-2.22c-.35-1.22-.66-2.4-.69-2.61-.06-.55-.19-.64-1.17-.76s-1.28.12-.39.57,1.37,1.36,1,1.73a28.33,28.33,0,0,1-5,1.59.91.91,0,0,1-.59-.25c-.57-.7-.6.1-.06,1.78.3.91.46,1,.7.3.15-.42.34-.54,1.46-.89a15.62,15.62,0,0,1,4.11-.89c.35.14.32,1-.07,1.85-.5,1.06-.25,1.18.73.36Z" fill="#50d6cc"/></svg>