<svg xmlns="http://www.w3.org/2000/svg" width="200" height="300"><path d="M194 160s-10-5.31-17.63-.23-7 1.94-12.74 1.94-12.71-1.94-16.53-1.94-14.61 3.83-19.71 3.83-5.72 0-12.72-2.57-6.36-.6-10.81 1.29-8.27 0-14.64 3.8S78.38 168 78.38 168s5.1-1.93.64-6.41-2.54-7.59-2.54-7.59-6.37-9.51 0-7.62 7 5.73 15.26 7a158.22 158.22 0 0019.72 1.28h13.38M134.4 112.68c-10.19 1.27-11.45 0-13.36 5.13s-2.53 8.89-3.81 10.78 5.07 1.92 5.07 1.92 5.09 1.26 9.54-3.81a69 69 0 019.55-8.89M60.62 121s3.8 5.09 1.88 8.27c5.74 0 5.1-1.91 11.47 2.55s13.36 1.29 13.36 1.29 14-5.75 12.07-12.11-4.45-12.07 1.92-12.7 5.68 3.1 5.68 3.1 6.37-2.52 11.47-2.52a30.87 30.87 0 008.89-1.28M2.07 150.85c9.54-5.07 16.55-9.5 22.91-8.89s10.81 5.09 14.63 2.54a23.54 23.54 0 018.9-3.15s8.92 2.54 10.19.61 3.79-5.75 3.79-5.75-7.61-3.79-10.16-4.44-3.83-2.55 1.27-3.77 1.28-6.38 1.28-6.38" fill="none" stroke="#000" stroke-linecap="round" stroke-linejoin="round" stroke-width="1.5"/><path d="M124.79 154.71s3.82-5.75-5.73-6.38-12.08-3.17-20.35-1.92-14 1.27-14-2.52 4.46-5.09 8.27-2.54 4.46-.64 8.91.61 5.72 1.26 8.92-1.25 3.17-3.19 8.25-2.55 6.37 0-1.26-3.19-8.28-1.28-4.46-7.66 2.54-10.13-3.17-9.5-5.73 3.14-8.28 7.62 5.08 7-5.07 9.54-21 .64-25.45.64-4.45-1.29-7.62 4.44-3.19 5.08-13.36 6.39-10.18 3.81-7.63 5.68-.63 2.56-5.09 2.56A86.87 86.87 0 0025 156c-4.45.64-1.28 4.47-1.28 4.47s6.37 1.91-2.54 2.55-22.89 7-12.09 7.62 17.81.61 19.73 3.16 4.45 6.38 4.45 6.38M147.13 201.47l1.84.92-6.37.63 8.29 1.92-5.1 1.92 8.9.63-7.62 1.89 12.74.62-12.74 3.17 12.07-.62M194.63 196.04l-40.23 1.4M41.94 217.84l1.4-2.07-9.53-1.28 11.44-1.9-10.8-1.28 8.26-1.89-8.9-1.25 7-1.95-7-1.89 10.82-1.28-12.74-1.24L51 199.87s3.17-2.52-9.54-2.52-39.96-1.92-39.96-1.92" fill="none" stroke="#000" stroke-linecap="round" stroke-linejoin="round" stroke-width="1.5"/><path d="M91.33 82.54c.82-1.67 1.28-1.86 3.24-1.77s2.12-.7 3.44-.63a1.53 1.53 0 011.49 1.16s-.9-1.09-2.25.08a5.66 5.66 0 01-4.49 1l-1.63.82.2-.67M111.48 82.54c-.83-1.67-1.27-1.86-3.23-1.77s-2.12-.7-3.43-.63a1.53 1.53 0 00-1.52 1.16 1.5 1.5 0 012.25.08 5.71 5.71 0 004.51 1l1.63.82-.2-.67M98.15 88.33a11 11 0 003.35.2c1-.2 1.91-.2 2.54-.33s1.25 0 .16.46a7.22 7.22 0 01-2.56 1A6.46 6.46 0 0199.1 89c-.62-.33-.95-.95-.47-.8M96.87 92.16c2.55-.15 2.22 0 4-.15a42.87 42.87 0 014.44 0l.4.73a12.69 12.69 0 01-1.66.05 40.89 40.89 0 00-4.29 0 16 16 0 01-3.15 0l.27-.58M104 95.05c-1.44 0-2.71-.67-3.82-.67s-2.07 1.14-.8 1M97.6 86.47s-2.7 2.67-3.19 3.14-.16.34-.16 1.94-1 1.88-1 1.88 2.06-5.24 3.83-6.84M104.59 86.47l3.17 3.14c.47.51.16.34.16 1.94s1 1.88 1 1.88-2.06-5.24-3.81-6.84" stroke="#000" stroke-linecap="round" stroke-linejoin="round" stroke-width=".5"/><path d="M43.16 121.79c4.56-2.27 8.17-4.34 11.85-8.25h-1.47a61.33 61.33 0 01-23.51 10l-1.41-1.2c5.45-6 13.22-8.75 19.41-13.65l.4-2.08-1.12-.21-6.14 1.74-8.17.66-.3-.71 3.38-2c.62-1.27-1.84-.66-2.61-1.54l-.27-1 8.8-3.74.43-1.21c-1.16-.91-3.37.89-4.43-.89.83-1.44 3.13-1.47 5.41-2-.16-.28 1.44.84 1.1-.58 2.07-.53 5-1 5.35-3.32-1.77-.47-3.64.08-5.64-.13-4.85-2.15 2.37-1.67 1.64-3.94-4.05-.73-8.15 0-12.64-.13-3.24-.22-8 .51-9.55-2 2.48-.88 5.61-2.17 8.1-2.3-.8.09-3.06-1.1-3.36-1.9l12-.7 10.2-2.08c1-1-.57-1.89-.91-2.29-5.38-1.86-11.42-4.62-17.6-6.88-1.16-.81-3.08-1.79-2.82-3.31 4.57-.55 8.47 3.23 12.67 2.62 4.54-.37 10.08 3.45 15 2.1-.13-.71-.4-1.59-1.41-1.41-7.22-5.07-14.95-9.1-21.33-14-.24-1.36 1.22-.72 1.47-1.16l-.39-.93L26.84 48l1.16-.94c9.42.78 16.5 6.35 25.52 10 .63.24 1.15-1 .53-1.44A74.44 74.44 0 0143.45 48c2-3.24-2.83-4-2.55-6.73l.87-.07c9 5.06 18.74 13.24 28.43 16.86l1.3-.73c-7-8.31-14.85-13.66-22-22 .11-.92-1.85-2.19-.25-2.79l8 5.34.11-1.88c6.15 3.65 11.51 9.94 17.25 13-3.44-4.7-4.61-9.78-8.44-14.42l-1.27-3.43c1.79-.88-.76-1.83-.15-3.07.36-.76 1.12.27 1.7.25l14.18 17.05 1.14-.82-.53-1.31c.44-.55-.38-1-.75-1-1.75-4.12-3.68-6.81-5.07-10.9 1.56-1 1.93 2.7 3.49 1.42-.57-1.87 1.36-1.16 1.79-2.37.26-1.54-1.79-4.72-.43-6.78 1.28-.24 1.88 1.46 2.37 2.08a42 42 0 008.58 16.68c2.39 1.68 1.43 4.45 4.43 5.15 3.12-2.23 2.64-6.72 5.17-9.8a3.88 3.88 0 013.41 2.29l2.34-1.38 2.11 1.85c.85-.08 1.9-2.5 3-1.15.72 3.13-.38 6.48-1 9.79l.56.92.6-.31 8.94-20.91 1.41-1.59.8.58-2.37 8.75c.8.67 1.64-.88 2.3.06-1.71 3.36 1.71.1 2.47 1.13.15 4.81-2.49 8.93-.83 12.29 1.57.67 3.87-.28 4.89-1.68A160.41 160.41 0 01138 34.86h1.45C137.2 41 134 46.2 132.32 51.72c.85.73.76-1.86 2.18-1.71l.92-1.34a34.41 34.41 0 019.11-8.13c.61-1.27 2.36-2.36 3.83-3.42 1.85.48.69 2.27.91 2.88l.87-.07c1.63.9 0 2.29.5 3.42.94.18 2.59-1.83 3.9-1.34v1.34L149 50.53l-.62.44-3.14 3.48-4.14 6.43.45 1.13c4.57-4.23 9.2-5.36 13.39-9.51l2.66-1.73 1.78-.38c.4 2.53 2.61 2.5.88 4.29l1.7.19.78.76c-3.57 2-6 5.52-9.81 6.54-3.73 2.56-7.39 2.56-9.81 5.66l.51 1.28.45-.49c5.1-1.16 9.58-2.64 15.26-3.86 1.53-1.74 3.16-1.56 5-2s1.17 1.44 1 2.5c.55.33 3.49-.3 2.87 2L167 68.67l1.5 1.2c-1.88 2.21-4.55 4-6.4 4.32a76.23 76.23 0 00-13.42 3.46l-.1.95 3.3-.16c5.25.09 11.73-3.07 17.83-2.57.88 1.62 1.26 1.65 2.47 3l-1.32 1.58c.56 1 3.41 1.13 2.28 2.84-8.22.63-13.93 1-20.92 1.89l-1.9 1.52 1.17 1.51.84.22c5.78-1.1 11.15.72 17.45 1.88l-.06 1.69c-.65 1.57 1.37 1.4 1.87 2.21l-1.7 1.53c-.79 2.12 2 .7 1.45 2.55l-3.94 1-16.29-1.05-1.64.84c2.4 1 4.89 3.81 7.15 4 4.27 3.91 10.89 5.1 15.88 8.42.69.94 1.81 1.16 1.53 1.9l.66 1.81c-.09 0-1.58.4-2.05-.42-7-1.62-12.67-3.57-19.45-5.54l.47.82c1.68 1.39-1 1.51-1.12 2.46a47.89 47.89 0 0018.72 10.67c3.87.61 5.71 4.89 9.44 5.1l1.21 2.06" fill="none" stroke="#000" stroke-linecap="round" stroke-linejoin="round" stroke-width="1.5"/><path d="M108.69 100.48A17.3 17.3 0 00117.43 86a16.19 16.19 0 10-19.6 15.81M27.84 236c1.94-1 8.92-4.39 14.87-4.94 7-.6 8.9 1.93 14.64 1.26s24.18-5.7 24.18-5.7c9.53-4.46-5.1-5.74-5.1-5.74l-7-.64s-1.27-.63-7-4.44-7-1.91-14 .64c-.38.18-2.33.9-2.55 1l-1.86.69c-.2 0-1 .49-1.18.52s-.8-.75-.83-.75a29.41 29.41 0 00-3.69-.83c-4.46-.6-11.47 4.48-11.47 4.48s-1.27 1.91-8.24 0-5.74-3.19-16.55-3.19l-.3.2m0-37.09l.25-.62H33.1m44.84 0h50.51m4 0h6.2m9.07 0h45.8l.87.65M98.15 276.35c29.14-16.87 87.82-50.57 95.15-54.62.5-.28.84-.54 1.09-.7l-1.54-.82s-8.91.64-7.63-5.72-5.07 1.28-5.07 1.28-4.47-.66-13.37-6.38-5.73 2.52-5.73 2.52a25.15 25.15 0 01-5.2 2.13h0a.07.07 0 00-.07 0c-.13 0-2.85.66-3.08.66-3.8 0-12.62 3.54-12.62 3.54s-3.16 2.52-7.61 0-10.19-5.07-15.91-4.44-8.9 8.91-8.9 8.91-3.17 2.55.63 6.35-1.28 2.55-7 3.8-7 0-12.09 0c-14 .65-29.89 6.36-15.27 8.27s39.45 1.29 46.45 1.92-3.83 6.38-18.45 6.38-28.63-1.25-29.93-3.8-10.14-5.73-12-2.52-12.07 3.8-12.07 3.8M32.39 190l2.61 4.77h36.28a18.09 18.09 0 005.24-4.77c-7.15 1.61-32.45 1.16-36.75 1.16A23.1 23.1 0 0132.4 190zm.46.22L26.18 189l7.39-7.61m40.09.72c.23 3.32-1 3.57-1.69 5.73l-2 2.61m9-8.12l3.81 4.78-6.26 2.89m-24.11-33.17v5.24m-.41 4.74l-.29 1.19m.24 9.3l-.49 3.57m0 6.21l.25 3.82m-10.5-23.62v-5.5m.25 13.61v3.33M67 163.26v4.06m0 3.82v1.68m-.5 6.18v2.84m0 6.68l.24 2.17M36 178.76l2.15-2.86m30.54 12.17l.95 2.4M57 186.15l-2.66 4.79m5-11l-6.67 11.28m4.77-14.62l-2.38 4.55m4.05 7.39c2.87-4.05 1.67-6.66 1.67-6.66l13.12-.29 2.85 7.92a9.48 9.48 0 01-4.55-1.19l-13.09.22-2.6 2.56m3.07-11.39c4.3-1.41 12.17-.2 12.17-.2s1.92-2.64.23-6.7l-12.87-.93s2.6 1.43.44 7.85h0zm2.63-9.05l7.86.71s1.44-1.92 1-3.57l-8.59-.49s.41.69-.28 3.36zm11.46 5.48l1.18 6.47 4.07-.27-3.84-6.2zM57 186.41v-4.78l-15.75-2.11s1.43 1.89 0 8.58zM44.79 179a12 12 0 001.44-10.73l14.3.46s-1.65.23-2.37 4.06l-.73 3.82zm13.59-10.7c-5.48-1.18-11.93-1.91-11.93-1.91l.24-4.29 10 .73a10.69 10.69 0 011.67 5.47zm-12.64 7.85l-9.3-.72a13.36 13.36 0 00-1.2-8.31l10.5 1.18m-5 11.22l-7.39-.3c1.19 6 1.65 6.48 0 9.58l7.39-1.19V191" fill="none" stroke="#000" stroke-linecap="round" stroke-linejoin="round" stroke-width="1.5"/><path d="M132.42 201.43h20.51s2.53-1.41 1.58-4.94c0 0-14.79 1.46-23.53 1.12 0 0-.48 1.29 1.42 3.82zm.81-3.82l-12.42-4.91m16.19 4.76v-32.6m1.44 8v23.82l19.27-3.68m-3.82.83c-8.27-10.19-8.1-24.15-8.1-24.15m-10 26.54c-2.71-7.8-4.46-17.82-2.07-23.39 0 0-8.12 11.31-11.61 20l13.69 3.34v0zM133.37 173l3.65-7m.5 7.61l9.87-4.93m47-35c0 27.14.05 79.22.05 84v3.34c-.25.13-.58.37-1.08.67-7.33 4.08-66 37.78-95.15 54.63H98c-29.17-16.84-87.85-50.54-95.18-54.62-.5-.27-.84-.51-1.09-.67v-3.34c0-4.75.12-55.68.07-83.07A29.6 29.6 0 019 129.9c5.08-2.56 7-3.83 10.81-1.28a34.56 34.56 0 007.62 3.8s5.1-3.2 9.56-6.38 3.17-5.09 8.9-3.8 19.71-2.54 24.81-5.09 7.62.66 12.08-5.07 4.45-5.12 10.82-7.64a13.78 13.78 0 004.24-2.65c2.25-2 3.41-3.54 9.11-1.81 8.26 2.55 12.71 1.28 24.8 10.84s19.73 12.73 24.81 17.8a67.17 67.17 0 0010.19 8.3s5.08-1.95 10.17-4.47 7-4.44 10.82-1.92a21 21 0 006.61 3.13zm-27.61 3.26s7.66 6.3 12.11 8.82 15.49 5.11 15.49 5.11" fill="none" stroke="#000" stroke-linecap="round" stroke-linejoin="round" stroke-width="1.5"/></svg>