<svg xmlns="http://www.w3.org/2000/svg" width="600" height="400" viewbox="0 0 600 400"><path fill="#bf0a30" d="M0 0h600v400H0z"/><path fill="#fff" d="M0 133.33h600v133.33H0z"/><path fill="#002868" d="M0 0h266.67v266.67H0z"/><path fill="#fff" d="M137.72 42.4l-4.39-13.51-4.39 13.51h-14.21l11.5 8.35-4.39 13.52 11.49-8.36 11.5 8.36-4.39-13.52 11.49-8.35h-14.21zm64.61 45l13.69 3.78-8.86-11.11 7.83-11.86-13.3 5-8.86-11.11.64 14.19-13.3 4.99 13.69 3.78.64 14.2 7.83-11.86zm18.68 70.45l14.15-1.28-12.2-7.28 3.16-13.85-10.7 9.34-12.19-7.28 5.58 13.06-10.7 9.35 14.15-1.28 5.59 13.07 3.16-13.85zm-45.45 46.8l-1.9-14.08-6.74 12.52-13.98-2.54 9.82 10.27-6.73 12.51 12.8-6.17 9.82 10.28-1.91-14.09 12.8-6.16-13.98-2.54zm-75.82-1.56l-6.73-12.52-1.91 14.08-13.98 2.54 12.8 6.16-1.9 14.09 9.81-10.28 12.81 6.17-6.74-12.51 9.82-10.27-13.98 2.54zm-41.89-52.53l5.59-13.06-12.2 7.28-10.7-9.34 3.16 13.85-12.19 7.28 14.15 1.28 3.16 13.85 5.58-13.07 14.16 1.28-10.71-9.35zM86.5 81.28l-13.3-4.99.64-14.19-8.86 11.11-13.31-5 7.83 11.86-8.86 11.11 13.7-3.78 7.83 11.86.63-14.2 13.7-3.78z"/></svg>
