<svg xmlns="http://www.w3.org/2000/svg" width="600" height="360" viewBox="0 0 600 360"><title>flag-massachusetts</title><rect width="600" height="360" fill="#fff"/><path d="M299.42,259.09c39.34-21.67,63.65-78.45,56.6-152.79H242.81c-7.05,74.34,17.26,131.12,56.61,152.79" fill="#1f2c5c"/><path d="M264.23,112.53l3,9,9.4.08-7.55,5.63,2.83,9-7.66-5.5-7.66,5.5,2.83-9-7.56-5.63,9.4-.08,3-9" fill="#fff"/><path d="M375.2,206.1l.18-.43c.79-1.9.41-1-.18.43" fill="#31319c"/><path d="M378.6,140.18a3.76,3.76,0,0,0-1.61.58l-2.5,3.85c-.11-2.39,1-5.25,2.5-8.33.35-.72.73-1.47,1.11-2.21,3.22-6.23-1.11-8-1.11-8v.22L365.42,128c-8.17,8.59-4.74,24.12-1.49,44.09,2.6,15.94,3.28,18.42.93,28.76l0,.07-3.23-.81a7.49,7.49,0,0,0-5.08,6c-3.33,16.81-3.07,24.41-17.31,38.72-15.09,15.16-26.73,14.2-30.93,14.2s-2.42,5.63-2.42,5.63l0,.05a54.87,54.87,0,0,1-6.71.3,50.92,50.92,0,0,1-6.36-.3l0-.05s1.79-5.63-2.41-5.63-19.79-1.24-30.68-14.45C249,231.45,244.82,223,244,219a14.47,14.47,0,0,0,3-.74c1.24-.49,3-3.61,1.24-9.45s-3.46-8.48-6.56-7.73l-2.35.63,0,.07c-3.51-5.67-5.11-14.76-2.75-29.71,3.16-20,6.69-35.5-1.48-44.09l-11.82-1.68,0-.19s-4.09,1.13-1.68,6,2.23,4.84.56,8.77-.59,6.52,2.56,8.75c0,0-2.75-3.7,1.34-6.88l2.4,3.74.17-.29c-.26,5-1.18,12.05-3.31,23.26-4.27,22.42,1.6,37.17,7.54,40l3.09-.88a14,14,0,0,1,1.73,6.6l.12.07-3.58,1.17s-1.49,3.49-.49,6.23a72.42,72.42,0,0,0,17.32,29.14c12.36,12.44,21.79,17.74,37.36,18.25v3.42c0,2.67,5.43,3,10.76,3h.37c5.56,0,11.14-.27,11.14-3V270c15.57-.51,26.07-5.6,38.1-18.38,13.73-14.56,17.32-32.5,18.8-42.2,0,0,0-.08,0-.12a13,13,0,0,0,2.94.86c1.48.23,2.54.77,4.43-3.28.18-.46.39-1,.64-1.58,4.95-11.94-.24-35.86-.24-35.86a207.31,207.31,0,0,1-3.16-20.89c.45.22,3.66,1.77,5.26.84s2.23-2.36.74-4.6-.49-3.86.5-4.61" fill="#1f2c5c"/><path d="M299.42,276.4c-5.45,0-11.14-.25-11.14-3V262c0,2.74,5.69,3,11.14,3m-6.5-.35s1.79-5.63-2.41-5.63-19.79-1.25-30.68-14.45S244.74,222.85,244,218.87s-1.24-5.48.75-6l-10.65,3.49s-1.48,3.49-.49,6.23a72.61,72.61,0,0,0,17.32,29.13c12.37,12.45,21.8,17.75,37.39,18.25m0-7.82c0-1.22.82-1.86,2.07-.86,1.74,1.36,2.88.64,2.72-.63M244,219a15.49,15.49,0,0,0,3-.75c1.23-.5,3-3.62,1.23-9.46s-3.46-8.47-6.56-7.73l-2.34.63m-3.47,6.85a14,14,0,0,1,1.73,6.59m-4.82-5.72,10.64-3c-6.13-4.86-10-14.38-6.87-34.37S243.19,136.56,235,128l-11.88-1.68s3.53,1.68,4.64,8.4,1.67,12.33-2.6,34.75,1.61,37.16,7.55,40Zm-9.59-83.31s-4.08,1.12-1.67,6,2.23,4.86.56,8.78-.6,6.52,2.56,8.75c0,0-2.75-3.71,1.33-6.88l2.42,3.74m16.1,66.44s3-.81,1.62,2.11a8.51,8.51,0,0,0-.69,1.4c-.52,1.17.69,2.38,1.72,1.68m-3.86-11.67c1.58-.47,2.58-1.55.46-2.29-2.27-.8-2.18-2.89-1.06-3.18m56.79,75.45c5.44,0,11.14-.25,11.14-3V262c0,2.74-5.7,3-11.14,3m11.1,5.05c15.59-.51,26.1-5.6,38.14-18.38,13.73-14.57,17.32-32.5,18.8-42.21.87-5.23,2.35-7.22,4.09-6.86l-9.9-2.48a7.49,7.49,0,0,0-5.07,6c-3.34,16.82-3.08,24.42-17.32,38.73-15.09,15.16-26.73,14.2-30.93,14.2s-2.42,5.63-2.42,5.63m4.65-2.43c0-1.22-.82-1.86-2.08-.86-1.73,1.36-2.88.64-2.72-.63m61.7-51.4a13.27,13.27,0,0,0,3,.88c1.61.25,2.72.86,4.95-4.49s-4.82,11.58.12-.37-.25-35.86-.25-35.86c-4.26-22.42-3.7-28-2.59-34.75s4.64-8.4,4.64-8.4L365.42,128c-8.17,8.59-4.74,24.11-1.49,44.08,2.6,15.94,3.28,18.43.93,28.76M377,126.1s4.33,1.74,1.12,8S372.41,145.9,377,149m-4.95-.5s3.59,1.88,5.32.88,2.23-2.37.75-4.61-.5-3.86.48-4.6c0,0-3.21.25-4.08,4.47m-3.46,57.9c2.1.51,2.1,2.87.62,4.12s-2.22,3.11-.49,3.61" fill="none" stroke="#fff" stroke-width="1.1"/><path d="M276.81,149.54c.14.2.26.49.18.64a6.12,6.12,0,0,1-1.63-.42c-.22,0-.45-.22-.63,0s-.08.52-.41.37a1.07,1.07,0,0,1,.15-.9,1.89,1.89,0,0,1,1.56,0,.8.8,0,0,1,.78.34" fill="#e6a300"/><path d="M276.32,150.55a.78.78,0,0,1,.7.71l-.11.19c-.89-.61-2,0-2.86,0a.57.57,0,0,1,0-.59,2.09,2.09,0,0,1,2-.29h.29" fill="#e6a300"/><path d="M277.06,152.27l0,.45a2.56,2.56,0,0,0-1.67-.31l-1.27.44c-.22-.11-.14-.41-.14-.59.41-.45,1-.37,1.49-.55s1.29,0,1.63.56" fill="#e6a300"/><path d="M275.86,153.84a1.64,1.64,0,0,1-.64.55c-.22,0-.32-.18-.4-.37.23-.26.63-.22,1-.33l.07.15" fill="#e6a300"/><path d="M323.55,157.62c-.64,2.8-1.62,5.59-2.41,8.39-.26.45-.27,1-.56,1.45-.72,2.72-1.59,5.33-2.46,8-.62-1.06.27-1.92.42-2.89.27-1.22.72-2.27.95-3.53.63-1.34.72-2.73,1.43-4.14.53-1.94,1.05-3.84,1.66-5.66.26-.56.29-1.09.52-1.69.15,0,.37-.07.44.08" fill="#e6a300"/><path d="M322.32,158.73a1,1,0,0,1-.36-1.08l.41-.93a2.26,2.26,0,0,1-.05,2" fill="#e6a300"/><path d="M323.53,161.16c-.18.12-.29.34-.52.41.45-1.3.42-3.1,1.62-4a32.45,32.45,0,0,1-1.1,3.61" fill="#e6a300"/><path d="M322.14,159.44c-.38.74-.5,1.56-.83,2.31-.56-.93,0-1.94.38-2.87.15.22.74.16.45.56" fill="#e6a300"/><path d="M320.93,163.32c-.26,0-.22-.29-.37-.41a1.18,1.18,0,0,1,.26-1.12c.75.37.19,1,.11,1.53" fill="#e6a300"/><path d="M323.27,162c-.16.64-.12,1.49-.9,1.67a14.79,14.79,0,0,1,.49-1.9c.15,0,.22.3.41.23" fill="#e6a300"/><path d="M296.94,115.48a15.1,15.1,0,0,1,.06,1.8,14.9,14.9,0,0,0-2-2.6c-.14.08-.11.3,0,.39a9.14,9.14,0,0,1,1.11,1.67,1.43,1.43,0,0,1-1.25-2.31,1.93,1.93,0,0,1,2.15,1" fill="#e6a300"/><path d="M298.92,120.31c0,.14.07.18.11.25s.29-.41.37-.66a3.3,3.3,0,0,1,0-.83,2.93,2.93,0,0,1-.08,2.47c-.49-.63-.7-1.46-1.14-2.1s-.82-1.38-1.11-2.06c0,0,0,0,.08,0a2,2,0,0,0,.3-1.64,5.16,5.16,0,0,1,1.43,4.53" fill="#e6a300"/><path d="M296.8,121a7.06,7.06,0,0,1,.88,2.5c0,.08-.08.15-.15.12a36.38,36.38,0,0,0-4.6-6.86c-.23,0-.23.26-.15.38a25.69,25.69,0,0,1,4.23,7.18c-.26.3-.59-.11-.89-.23-.15-.78-1.14-.82-1.36-1.57.33-.26,1,0,1.11-.37-.22-.26-.59-.14-.89-.26-1.11.14-1.18-1.09-1.66-1.76a1.64,1.64,0,0,0-.11-.34c.41,0,1,.42,1.37,0-.85-.41-2.14-.86-2.1-2a1.22,1.22,0,0,1,.19-1.23c2,.31,3.18,2.82,4.13,4.46" fill="#e6a300"/><path d="M295.92,117.19c.71-.29.74.79,1.11,1.13v.15l-1.41-.42c-.26-.37-.7-.56-.7-1,.34,0,.67.11,1,.11" fill="#e6a300"/><path d="M298.32,120.86c-.44-.52-1.45-.23-1.52-1a1.66,1.66,0,0,1,1.52,1" fill="#e6a300"/><path d="M298.91,122.44c0,.18-.26.18-.41.14-.41-.41-.89-.79-.93-1.39a1.93,1.93,0,0,1,1.34,1.25" fill="#e6a300"/><path d="M295.71,131.53a.9.9,0,0,1,.07.6,3.92,3.92,0,0,1-.14-1.72c.07.49,0,.71.07,1.12" fill="#e6a300"/><path d="M278.9,132.49a3.08,3.08,0,0,0,.13,2.24c0,1.34.29,2.51.24,3.81h-.15c-.1-1.22-.13-2.38-.35-3.73l-.11-.07-.26.25c-.35,2.69-.81,5.9-1,8.4l.08.07a26,26,0,0,0-.28,3.82c.29.14.63.37.63.74.06.78-.23,1.49-.13,2.14.56.78,1.33,1.6,1.06,2.53-.44.26-.48,1.2-1.18.93-.45-.52.37-1-.14-1.61-.14-.44.37-.89,0-1.34a1.18,1.18,0,0,0,0-1.15,1.67,1.67,0,0,0-1.34-.87l-.21-.22c.19-1.92.5-3.7.77-5.64.49-3,.8-5.75,1.52-8.77.08-.37-.36-.6-.14-.89s.59-.34.6-.78h.11v-.11c.26-.08.11.15.22.26" fill="#e6a300"/><path d="M306.05,134.05c-.12,1.37.8,2.51,1.09,3.77.37.46.22,1.08.33,1.6-.29-1.52-1.43-2.8-1.42-4.4,0-.08-.12,0-.19-.08-.22.14-.07.37-.15.56-.22-.48,0-1,0-1.49l.08-1.31c.32.45.1.89.25,1.35" fill="#e6a300"/><path d="M295.74,138.62a19.59,19.59,0,0,1-.38,2.21,8.43,8.43,0,0,1,.61-4.52,6.92,6.92,0,0,0,.2-1,11,11,0,0,0-.25-2.13l0-.33a7.65,7.65,0,0,1-.22,5.74" fill="#e6a300"/><polyline points="305.63 135.74 305.74 135.91 305.63 135.74" fill="#e6a300"/><path d="M305.78,136c.11.72.06,1.5.58,2a6.41,6.41,0,0,1,.48,1.57c-.18-.9-.89-1.35-.92-2.24a4.05,4.05,0,0,1-.29-1.36c0,.08.11,0,.15,0" fill="#e6a300"/><path d="M304.72,139.08l0,.18-.18-.06c-.11-.2.19-.42.22-.12" fill="#e6a300"/><path d="M304.13,139.34c.07.11,0,.45-.19.37a.16.16,0,0,1-.22-.15c0-.18.23-.26.41-.22" fill="#e6a300"/><path d="M303.49,139.94c0,.14-.15.14-.22.26s-.19-.08-.22-.19a.22.22,0,1,1,.44-.07" fill="#e6a300"/><polyline points="307.01 140.18 306.91 139.81 307.01 140.06 307.01 140.18" fill="#e6a300"/><path d="M304.94,139.94c.08.11,0,.19-.11.27a.21.21,0,0,1-.26-.19.2.2,0,0,1,.37-.08" fill="#e6a300"/><path d="M304.34,140.31c-.11.12,0,.27-.15.33s-.22-.11-.29-.21a.3.3,0,0,1,.44-.12" fill="#e6a300"/><path d="M302.19,140.86c-.22.11-.41-.19-.67-.12.05-.48.56,0,.67.12" fill="#e6a300"/><path d="M303.53,140.83c.11.08,0,.19-.08.22s-.15,0-.18-.15.3-.33.26-.07" fill="#e6a300"/><path d="M302.86,141.05l0,.34a.34.34,0,0,1-.33-.12c0-.22.18-.45.37-.22" fill="#e6a300"/><path d="M296.81,141.54l-.37.23c-.08,0,0-.15,0-.23a.29.29,0,0,1,.41,0" fill="#e6a300"/><path d="M289.87,164.58c.15-.22.08-.6.23-.85l-.12.85h-.11" fill="#e6a300"/><path d="M289.75,165.18c-.07-.15,0-.33.12-.52a.76.76,0,0,1-.12.52" fill="#e6a300"/><path d="M311.9,166.49c0,.36-.52.36-.78.51-2.79.37-5,2-7.95,1.87-.15.15,0,.29.15.34,1.07.22,1.92-.33,2.89-.25.18-.19.33,0,.56-.11a17.22,17.22,0,0,1,5.12-1.25.75.75,0,0,1,.26.49,14.39,14.39,0,0,1-1.71.25c-1,.25-1.79.88-2.75,1.18a20.28,20.28,0,0,1-5.24.65,1.69,1.69,0,0,0-.44-.12c.22-.14.63.16.78-.22-.29-.3-.89-.15-1.33-.12-1.74.71-3.26-.39-4.89-.66a7.19,7.19,0,0,1-3-.38c-.07-.07-.14-.26,0-.34a6.21,6.21,0,0,1,4.08,0,7.33,7.33,0,0,0,4.16.57c1.11-.29,2.44-.17,3.48-.43.08-.1-.07-.14-.11-.23a15.33,15.33,0,0,0-3.71.18,8.27,8.27,0,0,1-3.66-.62h-.15c-.23-.07-.52-.19-.74-.26a6.74,6.74,0,0,0-3,.09h-.41a1.48,1.48,0,0,0,0-1c.48-.33,1.15.09,1.74,0s.89.35,1.37.23c2.37.7,4.41.25,6.9.45-.59.11-1.3.14-1.93.29.07.07.07.19.18.19.52-.11,1.15.19,1.74.08s1.19-.18,1.82-.22c.3-.18.74-.06,1.08-.14v.11c2.18.61,3.45-1.29,5.42-1.35l.19.22" fill="#e6a300"/><path d="M313.13,173.06c-.63-.19-.41-.86-.63-1.45.45.34.48,1,.63,1.45" fill="#e6a300"/><path d="M313.16,175c-.19-.08-.08-.23-.08-.41.15,0,0,.27.08.41" fill="#e6a300"/><path d="M314,176.76a2.84,2.84,0,0,1-.18-1c.33.27.1.79.18,1" fill="#e6a300"/><path d="M296.82,177.16a1.7,1.7,0,0,1-.07-1,1,1,0,0,1,.07,1" fill="#e6a300"/><path d="M306.71,179.64a5.21,5.21,0,0,1-.31,2.54h-.22a17.6,17.6,0,0,1,.31-2.69.18.18,0,0,1,.22.15" fill="#e6a300"/><path d="M315.71,183.08a21.5,21.5,0,0,1-1.21,4.25c-1.17,3.74-2.34,7.43-3.51,11.15-.77-.07,0-.67-.14-1a13.86,13.86,0,0,0,.61-2.06,3,3,0,0,0,.22-.44c.27-1.23.72-2.27,1-3.39.49-1.27,1-3,1.36-4.36.18-.08,0-.19.11-.3.31-1.16.8-2.27,1.13-3.39.11-.19.23-.37.45-.41" fill="#e6a300"/><polyline points="315.54 186.07 315.58 186.07 315.58 186.26 315.54 186.26 315.54 186.07" fill="#e6a300"/><path d="M315.58,186.37c0,.93.21,2.09.14,2.91.07-.41-.33-.82-.18-1.26a4,4,0,0,1,0-1.65h.07" fill="#e6a300"/><path d="M314.22,191c0-.21-.14-.54,0-.73.07.22.18.56,0,.73" fill="#e6a300"/><polyline points="314.85 190.77 314.89 190.77 314.89 191.11 314.85 191.11 314.85 190.77" fill="#e6a300"/><path d="M315.71,191.52c0-.18,0-.41.07-.52l-.07.52" fill="#e6a300"/><polyline points="314.81 191.82 314.85 191.56 314.85 191.78 314.81 191.82" fill="#e6a300"/><path d="M315.77,193.43a.88.88,0,0,1-.11-.86c0-.19-.11-.56.08-.75.33.53-.12,1.09,0,1.61" fill="#e6a300"/><path d="M290.31,194.57c-.15,0-.18-.14-.14-.19s.11.12.14.19" fill="#e6a300"/><path d="M298.42,197.52a1.06,1.06,0,0,1-.29,1.08c-.27.11-.23-.22-.27-.3,0-.29.19-.78.56-.78" fill="#e6a300"/><path d="M311.18,199.12l.11.14c-.11.31-.78.19-.52.64a3.08,3.08,0,0,1,.78.79,10,10,0,0,1-1.79,2.34l-.34.26a10.09,10.09,0,0,1-.44-1.8,4.69,4.69,0,0,0-.21-1.48c.37-.22.92-.15,1.37-.34a.62.62,0,0,0,0-.45c-.07-.1-.33-.19-.25-.41.47-.07.81.19,1.25.31" fill="#e6a300"/><path d="M306,226.24a7.28,7.28,0,0,0,2.78,1.39,2.06,2.06,0,0,0-.82,1.19c-.11.11-.26,0-.37.08a8.67,8.67,0,0,1-2.59-3.08c.26-.63.74.2,1,.42" fill="#e6a300"/><path d="M311.26,228a4.26,4.26,0,0,1,1.8,4.08,3,3,0,0,1-.16,2.09c-1,.78-2-.28-3-.43a4.11,4.11,0,0,1-2.18-2.7c-.29-.41-.37-1-.7-1.34-.55-.9-2.67-.83-1.77-2.36a16,16,0,0,0,2.7,2.29c.59,0,.41-.89.86-1.11a5.84,5.84,0,0,0,1.32,2.16c.41.56.89,1.06,1.67.84.26-.23.52-.49.41-.91-.18-.77-1-1.15-1.33-1.86.11,0,.19,0,.23-.15.07-.41-.23-.67-.48-1a1.44,1.44,0,0,0-.85-.38c.41-.29.41-.85.71-1.3.15.75.92,1.24.77,2.09" fill="#e6a300"/><path d="M297.05,227.42c0,.19.19,0,.26.16a1.37,1.37,0,0,1-.85.48,3.29,3.29,0,0,1-2.94.32c-.25-.3-.18-.67-.25-1,.26.3.85,0,1.22,0,.15-.27.45,0,.64-.19.67,0,1.29.16,1.92.23" fill="#e6a300"/><path d="M293,228.23l.3.6a1.88,1.88,0,0,0-1.49,1.14c-.44-.89.49-1.75.87-2.56.29.07.14.56.32.82" fill="#e6a300"/><path d="M298.8,228c.1.76-.75.94-1.12,1.34a5,5,0,0,1-2.9.92c-.41-.3-.22-.71-.59-1v-.19a8.17,8.17,0,0,0,2.75-.58,9,9,0,0,0,1.23-.75c.21,0,.51-.06.63.23" fill="#e6a300"/><path d="M309.52,227.86c0,1.26,1.18,1.91,1.62,3-.45,0-.41-.52-.74-.74a2.73,2.73,0,0,1-1-2.25h.11" fill="#e6a300"/><path d="M310.66,228.61c-.22.15-.11.26-.15.44-.37-.29-.33-.77-.44-1.19.33.09.48.5.59.75" fill="#e6a300"/><polyline points="293.48 229.4 293.44 228.95 293.52 229.13 293.48 229.4" fill="#e6a300"/><path d="M292.21,232.18c-.37,0-.41.52-.78.51.37-.4.82-1,1.15-1.4a3.56,3.56,0,0,0,.87-1.69,4.36,4.36,0,0,1-1.24,2.58" fill="#e6a300"/><polyline points="292.66 229.82 292.7 229.84 292.7 230.02 292.66 230.02 292.66 229.82" fill="#e6a300"/><path d="M294.66,230.85a10.54,10.54,0,0,0,3.34-.77c-.07.49-1.22.25-.7.86l.74-.18c-.82.74-2,1-2.83,1.77-.93.93-1.68,2.53-3.13,2.6l-1,.33v.23c.41.21.78-.19,1.22-.16a2.52,2.52,0,0,1-1,.6c-.52.26-1.26.67-1.74.29a11.35,11.35,0,0,1-.51-2.8c.19-1.75,2.2-1.93,2.76-3.46.12,0,.19.07.23.23v.26c-.3.78-2.41,1.22-1.23,2.3a.86.86,0,0,0,.92.23A5.06,5.06,0,0,0,294,230a1.4,1.4,0,0,0,.71.89" fill="#e6a300"/><path d="M291.21,232.06c.15-.14.33-.41.52-.47,0,.29-.37.29-.52.47" fill="#e6a300"/><path d="M288,157.18c-.6-.19-1,.15-1.49.4.18.46.74.79,1.07,1.24,0,.19.3.45,0,.53a14.55,14.55,0,0,0-2.4-1.92c-1.29-.9-3.15-.54-4.26-1.89a35.91,35.91,0,0,1-.38-4c-.25-1.86-.43-3.81-.6-5.67,0-2.09-.39-4.48-.49-6.62h0c0-.18-.12-.48-.3-.55,0,.18-.08.48.15.51,0,0-.08.12-.15.12a4.91,4.91,0,0,1,.14.66c-.07.87.14,1.76.14,2.59.25,1.15.1,2.35.24,3.39.22,1.57.25,3.21.46,4.93,0,.79.14,1.43.18,2s.25,1.42-.12,1.91c-.67-.31-.85-1-1.22-1.54h-.18c-.12.66-.49,1.22,0,1.86.14.38.43.64.55,1-.08.06-.15,0-.23,0-.52-.38-.74-1.27-1.4-1.17a1,1,0,0,0-.37.63.64.64,0,0,1-.64,0c-.37-.41-.25-.93-.21-1.45.11-.23.41-.12.52-.26s0-.3-.07-.42c-.44-.33-.71-.85-1.44-.67-.53.33-1.49.22-1.57.92a3.31,3.31,0,0,0,1.29,1.69c-.16,2.09-.27,3.92-.25,6a200.79,200.79,0,0,0,.12,21.55c.53,4.87,1,9.86,1.64,14.54,1,6.5,2.34,12.74,3.94,18.87a163.54,163.54,0,0,0,5.63,16.87c-.59.93.59.48.67,1.3.11,0,.22.09.29-.06,0-.9-.54-1.62-.36-2.54-.3-4.68-.69-9-1.08-13.75-.17-1.76-.35-3.81-.41-5.6-.22-2.58-.39-5-.67-7.55-.31-5.86-1-11.72-1.33-17.52-.21-1.93-.32-3.66-.42-5.6-.25-.93-.1-1.87-.31-2.8-.39-4.07-.56-7.77-.94-11.88l-.11-.11c0-2-.28-3.78-.31-5.72l.07-.11a7.22,7.22,0,0,0,3.77,2.63c.93.46,1.37,1.54,2.67,1.32.7-.22.82-1,1.26-1.52.08-.15,0-.45.27-.45.15-.19.33-.4.3-.63-.49.44-.64,1.12-1.12,1.63,0-.07-.15-.11-.19-.26.12-1.19,1-2.07,1.5-3.12a4.13,4.13,0,0,0-1.84-3.86Zm-6.41,13a55.84,55.84,0,0,0,.53,6.05c-.19,1.24.24,2.46.24,3.74a3.34,3.34,0,0,1,.07.89c.1,2.1.46,4.29.52,6.28.15.41,0,.86.15,1.34a1.19,1.19,0,0,0,.11.83c-.08.66.1,1.18,0,1.74.18.27,0,.79.1,1.12a14.59,14.59,0,0,1,.21,2.88c.28,1.57.17,3.18.42,4.86-.08,1.27.36,2.58.31,3.7.22.15-.07.37.07.56a7.83,7.83,0,0,1,.14,1.41c0,1.31.29,2.28.25,3.67.25,1.45.13,3,.42,4.37-.16,1.53.24,2.54.24,4,.24,3,.41,5.71.66,8.6a6.83,6.83,0,0,1,.18,1.49c.11.7.17,1.61.24,2.42,0,.45.15.87,0,1.28a9.77,9.77,0,0,1-.81-2.14c-1-2.77-1.75-5.65-2.63-8.49-.37-1.12-.57-2.28-.83-3.44a4.23,4.23,0,0,1-.37-1.27,44.42,44.42,0,0,1-1.51-7.58c-.34-.6,0-1.12-.41-1.76-.21-.48.12-1-.25-1.45a81.34,81.34,0,0,1-1.16-11.77c0-.53.52-.9.3-1.46-.32-3.25-.56-6.8-.77-10.19-.33-1.39.09-3-.72-4.19a16.62,16.62,0,0,1-.5-3.33,129.5,129.5,0,0,1-.24-18.18c.37-.08.59.11.88.15h0c1.07,1.42,2.22,2.88,3.33,4.19.17,2.13.53,4.26.51,6.43.33,1.08,0,2.09.32,3.21Z" fill="#e6a300"/><path d="M305.32,140.54a.35.35,0,0,0,.1-.09l0,0Z" fill="#e6a300"/><path d="M305,135.45h0v0h0A0,0,0,0,1,305,135.45Z" fill="#e6a300"/><path d="M304.35,125c-.26-.3-.67-.56-.78-.89,0-.12.11-.08.19-.12.77.3,1.07,1.2,1.58,1.8a16,16,0,0,1,.49,5.94c0,.26-.11.67,0,.86l.07,0a3.37,3.37,0,0,0-.07-.82,11,11,0,0,0,.17-3.32c0-2.13-.72-4.41-2.65-5.5-.18-.16-.44-.16-.59-.27-.45.08-.74-.33-1.23-.19-.47-.19-1,.41-1.26-.19h0a2.17,2.17,0,0,0-.21-1.53c0,.48-.45.85-.67,1.22,0,.23.33.35.48.46-.12.45-.56.37-.93.55a8.93,8.93,0,0,0-3.34,7.3l.31-1.94.22-.22c.3.38-.12.86-.12,1.27a11.19,11.19,0,0,0,.68,4.82,4.34,4.34,0,0,1,.06,3.66c-.26,1.16-1,2.35-.8,3.51l.26-.75c.19-.22.19-.63.53-.67v-.22c.34-.56.59.3.93.31,0,0,0,0,0-.08s-.07-.34-.29-.26a.63.63,0,0,1-.29-.68c.08-.15.3-.25.41-.18s.4.31.33.52l.48.08c-.49,0-.41-.56-.77-.75a.46.46,0,0,1,0-.74.83.83,0,0,1,.29,0,1.18,1.18,0,0,0,.67.68c-.11.49.52.27.59.49,0,.52.89.07.88.67.12-.22.38-.07.56-.1a.79.79,0,0,1,.22.33l.19-.15a.46.46,0,0,1,.52,0,.35.35,0,0,0,.48-.15c.37-.14.48.23.63.42.11-.3-.07-.83.3-1.08-.14-.56,0-1.46-.66-1.8a3.16,3.16,0,0,1-2.45-.57c-.44-.07-1-.45-1.4-.07a1.79,1.79,0,0,1-.82,1c-.29-.53.08-1.5-.29-2a26.49,26.49,0,0,1-.86-4.68c-.07-2.09-.13-4.81,1.77-6.26.26.22-.11.41,0,.63.52,0,.82-.48,1.19-.77.11,1,1-.08,1.48.34s.44-.52,1-.37c.41.44,1,.34,1.52.57a3,3,0,0,1,1.69,2.36c.4,2.46-.24,5.07-.18,7.39,0,.19-.21.4,0,.55.26-1.15,0-2.09.38-3.24C305.36,129.82,305.75,127.13,304.35,125Z" fill="#e6a300"/><path d="M317.42,159.34c0,.25-.15.14-.26.21a2.75,2.75,0,0,1-1.1-2.43c.07,0,.11-.18.26-.18.4.52.21,1.46.84,1.9-.84-2.84-1-5.75-1.59-8.7-1.06-2.63-1.64-5.5-3.08-8-.29-1.08-1.4-1.28-2.36-1.47-.15-.15-.45-.07-.56-.22l-.44,0c-.11-.29-.45,0-.63-.23-.93-.52-.63.68-1.15,1-.19-.11,0-.52-.26-.52v.14a3.15,3.15,0,0,1-.49,2.21l-.11-.08a3.3,3.3,0,0,0-.07-2.65,6.62,6.62,0,0,1-1.45-4.77.15.15,0,0,1-.07,0c0,1.53-.31,3.06.72,4.45.08.16-.08.38-.2.5.18-.07.43-.24.57,0-.19.48.37.26.48.48.33.38,0,.64-.12.89,0,0,0,0,.07,0a.69.69,0,0,1-.26.83l.23.18a.52.52,0,0,1-.23.64.46.46,0,0,1-.56-.11.57.57,0,0,1,.23-.86c-.59-.27.07-.75-.11-1.13-.37.07-.56.75-.82,1.08l0,0c-.26.33-.26.56-.52.86-.3.59-1.08.37-1.49.81-.15.15-.22.37-.48.41s0-.23-.11-.31c-.26.27-.34.6-.56.83l-.11-.15c0-.75.6-1.42.38-2.16.29-.38,0-.86.08-1.31-.34.37-.67,0-1-.11a.57.57,0,0,1-.52.14c-.3-.12-.3-.37-.3-.64.11-.07.19-.18.34-.21s.44.14.63.22c0,0,.18,0,.11-.19a.58.58,0,0,1-.48-.48c-.15.14-.22.44-.52.37A.6.6,0,0,1,300,140a.55.55,0,0,1-.44.44.76.76,0,0,1-.44-.57.63.63,0,0,0-.3.12s-.08,0,0-.12h-.22v.31A.56.56,0,0,1,299,140a.58.58,0,0,1,.3.54c.22,0,.37-.23.63-.08a.92.92,0,0,1,.26.52c-.08.26-.26.41-.52.33s-.37-.3-.45-.48a1,1,0,0,1-.55.07.43.43,0,0,1-.26-.52l-.37,0c.59.82,1.7,1.57,2.21,2.54-.41.33-.59-.49-1.11-.27a1.51,1.51,0,0,0,.44.9c1,.12,1.37,1.05,1.77,1.76l-.08.19c-.51,0-.47-.6-.7-.9-.33-.64-1.07-.57-1.51-1a11.18,11.18,0,0,0-1.17-2.28c0,.07,0,.15,0,.18l-.15.19-.44-.38c-.11.08-.22.23-.34.23l.3.26a.45.45,0,0,1-.15.67.48.48,0,0,1-.67,0l.07.29.56-.1a.62.62,0,0,1,.41.71c-.12.22-.31.48-.6.29-.48-.12-.14-.86-.7-.82-.14-.6-.77-.87-.77-1.51-.55-.15-.4-.81-.66-1.19a20.48,20.48,0,0,1-2.3.73,3,3,0,0,0-1.68.44,7.7,7.7,0,0,0-1.53,2.27,5.53,5.53,0,0,0-.83,3.73,12.18,12.18,0,0,1-.57,3.47c-.45.93-.09,1.83-.42,2.69,0,1.16-.9,2-.94,3.21.29.06.44-.27.67-.37.41-.15,1-.52,1.18.07a.69.69,0,0,1,.59.23c.07.6.85.45.92,1,.25,1.57.8,3,.5,4.7a2.47,2.47,0,0,0-.16,1h0v-.1h0c.75-1.57.28-3.69.26-5.38l.11-.29c.33.29.14.78.25,1.23.55,1.3.1,2.62.21,3.77a12.07,12.07,0,0,0,.13-4.44c0-.91-.48-1.72-.32-2.57H291c.36,1.82,1.36,3.51.79,5.45-.11.22-.19.41,0,.6.67-1.32.27-2.84-.06-4.19-.21-.6.12-1.42-.24-2-.11-1.68-1-3.32-.76-5.05.52,1.06.21,2.44,1.14,3.4,0-.29.07-.59.11-.89a11.2,11.2,0,0,0-.32-2.24c-.17-1.9-1.65-3.37-1.27-5.38h.07c.37,1.24.47,2.61,1.32,3.56.07,0,.15,0,.18,0-.47-2.25-1.61-4.53-1-6.92l.15,0a10.8,10.8,0,0,1,.06,1.6c.37,1,.18,1.8.54,2.81.23.34,0,1,.48,1.12a3.44,3.44,0,0,1,.49-1.22c.22.25,0,.44,0,.67-.26.66-.09,1.68-.28,2.39-.15,1.48.1,3.25,0,4.81a48.34,48.34,0,0,1,.22,8.71c.18,1-.2,1.7.32,2.46.29.07.52.3.85.26.41-.22-.07-.75.22-1.12.52.19.71,1.17,1.33,1.06.12-.49-.29-.75.05-1.16.4.26.25.79.55,1.16.18.19.36.41.63.3-.36-2.46.72-4.81.18-7.28.07-.3-.33-.56,0-.83.37.08.37.57.48.87l-.05,2.69c0,1.26-.58,3.12.2,4.41,0,.06,0,.29.18.25-.1-.52-.18-1-.28-1.57a12.43,12.43,0,0,1,.34-2.86c0-.12.11,0,.19,0,0,1.64-.28,3.78,1,4.93a12.1,12.1,0,0,1,2.82,0c.7-.25.12-1.26.68-1.67.25.49-.16,1.16.28,1.49a12.68,12.68,0,0,1,2,.32c.26-.31.05-.83.38-1.05a1.81,1.81,0,0,0,.44,1.05c1.86.22,1.68-1.83,2.28-2.86.11-.87.75-1.53.57-2.43a4.8,4.8,0,0,0,0-1.42c.48-.41-.1-1.16.42-1.49a14.11,14.11,0,0,1,0,3.66c-.42.82-.12,1.68-.61,2.43,0,.41-.41.82,0,1.22.37-.07,1,.34,1.08-.18a.38.38,0,0,1,.59-.25c.3-.22-.11-.6.15-.86.82,0,.08-.9.64-1.08a3.23,3.23,0,0,0-.25-2.05c0-.27-.33-.68,0-.87a6,6,0,0,1,.88,2.29,7.67,7.67,0,0,1-.42,2.87,1.65,1.65,0,0,0,1-1c-.09-3.22-1.71-6.25-1.59-9.41.12-.8-.14-1.39.27-2.1.49-.07.15.38.3.59a6.71,6.71,0,0,0,1,5c.12-.19,0-.49,0-.75-.7-1.08-.54-2.53-.8-3.77-.36-1.72.43-3.51.55-5.34a20.67,20.67,0,0,0,.13-5c0-.37-.18-.83,0-1.13.08-.11.23,0,.3.08.11,1.24.47,2.24.5,3.4-.28,2.2-.91,4.44-.77,6.65a5.93,5.93,0,0,0,.26-1.36c.08-1.3.6-2.41.42-3.83.08-.08.16-.18.26-.15a5.27,5.27,0,0,1,.11,1.94,33.2,33.2,0,0,0-.69,5.07,4.88,4.88,0,0,0,.32,2.43c.41-1.37,0-2.95.24-4.21.48.48.17,1.49.4,2.09a15.49,15.49,0,0,1,0,5.22c.18,1.24-.76,2.81-.43,4.26a.25.25,0,0,0,.33.23c.56-1.31.87-2.83,2.06-3.84.34-.12.75-.41,1.11-.11a3.67,3.67,0,0,1,2.41,2.26A4.75,4.75,0,0,0,317.42,159.34Zm-20.51-15.07a.58.58,0,0,1,.22-.52.59.59,0,0,1,.59.41c-.11.15.08.38-.18.52A.6.6,0,0,1,296.91,144.27Zm.4,1.16c-.15-.22.07-.45.19-.68a.65.65,0,0,1,.59.42h0c0,.26,0,.56-.23.63A.55.55,0,0,1,297.31,145.43Zm.44,1c0-.18,0-.41.23-.49s.62,0,.62.34-.15.41-.26.53A.67.67,0,0,1,297.75,146.48Zm1.29,1.38c-.18-.07-.56,0-.59-.3s0-.41.15-.56a.48.48,0,0,1,.66.42C299.23,147.53,299.26,147.83,299,147.86Zm.81.79c-.26,0-.52,0-.59-.33s0-.42.19-.49c.37-.19.18.37.51.26h0A.45.45,0,0,1,299.85,148.65Zm2.89.54c-.3.07-.37-.11-.59-.19-.18.14-.19.45-.49.41A.65.65,0,0,1,301,149c-.19.27-.41.23-.68.19a.63.63,0,0,1-.17-.48c0-.23.26-.15.37-.3.41,0,.44.94.89.3.37-.26.66.49.89-.11.14-.15.41-.11.63,0A.56.56,0,0,1,302.74,149.19Zm3.18-4.17a.47.47,0,0,1-.19.45c-.12,0-.22,0-.26.11s.22.49,0,.72-.42.06-.27.25h0c-.18.26.19.75-.37.82h-.29c-.08.15.14.26.07.49a.61.61,0,0,1-.67.25c0,.27-.07.56-.3.64s-.37.07-.56-.08c0-.23,0-.52.23-.67,1,.41.18-1.09,1.23-.67a1,1,0,0,1-.07-.67c.18-.15.41-.07.56-.22-.08-.23-.27-.49,0-.68l.37-.22a.88.88,0,0,1-.1-.74l.4-.22a.79.79,0,0,1-.21-.71c.22-.22.73-.15.77.18h0C306.4,144.58,305.33,144.5,305.92,145Z" fill="#e6a300"/><path d="M317.57,175.48c-.43-3.82,1.43-7.08.79-11a1.49,1.49,0,0,0-.22-.6l0,1.52c-.12.38.11,1.16-.34,1.27-.14-.81-.14-1.79-.32-2.65h0c-.41-.83-.28-2.14-1.4-2.4-.77-.19-1.26.48-1.64.88a4.79,4.79,0,0,0-1,2.46c.1,1.38.8,2.62.9,3.89a9.55,9.55,0,0,1,.26,1.5c-.09,2.27.34,4.32,0,6.26-.12.91-.49,1.95-.61,2.89a.28.28,0,0,1-.22.1c-.15-1.16-.21-2.5-.43-3.74l-.19-.26c.15.94-.08,1.87,0,2.69l-.22.22c-.19-.55-.11-1.22-.29-1.75,0-1.11-.84-2.13-1.06-3.33-.67,0-.51-.82-.84-1.23-.19-.16-.45-.19-.52-.41-.48-.35-1,0-1.48,0-.23.12-.53.15-.71.26-.15,0-.45.22-.48-.11.34-.41.85-.41,1.19-.78a2.52,2.52,0,0,0-.74.1,14.4,14.4,0,0,1-5.79.46c-.82-.12-1.52-.31-2.42-.38-.18-.27-.29,0-.51-.23l.07-.08c1,0,2,0,3,.1,3.22.35,6.31-1.46,9.65-.74a.47.47,0,0,0,.26-.41c-.37-.41-1-.38-1.63-.38-.45.18-1.15.06-1.56.25-.45-.15-.6.3-1,.14-.23.3-.67,0-.89.25-1,0-1.86.22-2.86.14-1.49.37-3.11-.19-4.49.05-1.85-.16-3.37-.54-5.19-.73-.37-.07-.74-.3-1.07,0,0,.22,0,.41.21.45,1.19.12,2.3.53,3.53.58.59.49-.34,1.12-.42,1.67a14.43,14.43,0,0,1-.05,2.18c-.15.25,0,.47-.18.66-.4-1.24-.25-2.8-.65-4.08-.18-.06-.63-.15-.52.16-.45.51-.3,1.3-.31,2,0,.12,0,.26-.22.18a6.55,6.55,0,0,1-.22-1.52c-.07-.41.08-1.27-.59-1.16-1.56,1.34-1.09,3.46-1.58,5.07a29.45,29.45,0,0,1-1.37,7.05c-.15,1.34-.82,2.75-.83,4a9.44,9.44,0,0,1-.17,3.54h0l0,1.09.22-.08a8.51,8.51,0,0,1,.25,2.69c.44-1-.51-2.51.35-3.39.4.3.1,1,.1,1.34.11,0,.18.07.26.15.43,2.28,0,3.62.41,5.83.37,1.64,1,3.47.64,5.23,0,1.3.8,2.35,1.24,3.52,0,.52.3.82-.15,1.22-.36-.08-.15-.44-.22-.71a2.89,2.89,0,0,0-.29-.67,6.59,6.59,0,0,0,0,2.27c.07.23-.11.45-.19.68a21,21,0,0,0,1,8.14c.11.11,0,.34.15.45s.22.49,0,.67-.3-.19-.45-.22c.07,2.06.84,3.51.68,5.64a2.11,2.11,0,0,1-.27.89,3.39,3.39,0,0,1-.82,1.42,1.28,1.28,0,0,0,.74.26c1.16-.59,2.45-.17,3.64,0a3.5,3.5,0,0,0,1.63.15,5.59,5.59,0,0,0-.62-1.56,5.48,5.48,0,0,0-1.41-.91c0-.11.05-.19.08-.26a.86.86,0,0,1,.67.07c.15,0,.44.16.41-.1a12.78,12.78,0,0,0-.36-2.36c-.26,0-.6.41-.78,0-.08-.15.11-.18.18-.3,1.42-.36,1-2.08,1.13-3.13-.33.19-.19.78-.63.7-.23-.21-.15-.48-.11-.74,1.65-3.35,1.44-6.9.95-10.6-.49.6-.13,1.39-.46,1.94-.08.08-.26.11-.3,0a6.55,6.55,0,0,1,.08-1.71c1.54-2.72,1-6.31,1.61-9.41.23-1.14-.25-2.12.24-3.13-.52-1,.45-1.75.2-2.76,0-.07,0-.26-.18-.22s0,.11,0,.18a10.56,10.56,0,0,1-1.1,2.92c.08.06.15.06.19.1s0,.38,0,.45c-.26.3-.26,1-.82.78-.22-.38.3-.63.3-1-.22,0-.48.37-.67,0s.08-.49.15-.7c-.14-.05-.33-.09-.37-.27.34-.6.83-1.34.46-2.09.08-.26.41-.3.45-.55a.61.61,0,0,1-.86,0c-.18-.49-.66-.64-.81-1.12.34-.3-.1-.94.38-1.13.29.31.15.72.22,1.09.51.23,0-.78.41-1,.74.23,0,1.05.67,1.28.32-.15,0-.86.26-1.19.47.26.36.89.43,1.38.3-.22.16-.79.31-1.12.11-.11.22-.11.33,0s-.3,1.08.25,1.27c.19-.34.08-.79.23-1.12.71-.23.07.9.44,1.16.52-.15,0-.9.56-1.08.41.33,0,1,.14,1.3h.15c.18-.3,0-1,.3-1.31.55.23.25,1.08.29,1.43l.15.14c.44-.26-.19-1.31.52-1.41.37.41,0,.93.18,1.42.07.07.14.18.25.15.3-.52-.18-1,.24-1.49.62.11.1.6.28,1,.12.11,0,.37.26.37s.08-.44,0-.67-.11-.82.37-.82c.4.42-.12,1,.29,1.42.07,0,.18,0,.25,0,.05-.6-.28-1.2.16-1.61.48,0,.19.48.26.83s.06.63.44.55c.26-.48-.29-1,.15-1.48.52.11.18.93.48,1.26,0,.56-.71.71-1,1l0,.08c-.15.15-.37.18-.48.45.18,1.23-.05,2.27.54,3.4l.07-.15c.23-.59-.28-1.38.46-1.57.25.3.06.94,0,1.23a39.89,39.89,0,0,0,.14,7.92,24.52,24.52,0,0,1,.61,4.52c-.07,0-.11.15-.19.15a20.18,20.18,0,0,0-.69-2.88,2.63,2.63,0,0,0-.22,1.53,17.75,17.75,0,0,0,.15,6.57c.1,3.17.56,5.94-.34,9,.07.6-.63.78-.45,1.35a4,4,0,0,0,1.67-.67c.23,0,.74-.12.66.23-.63.33-1.19.59-1.81.88.1.49.66.6.91,1,.85.44,1.7,1.35,2.86.9.6-.29.63-1,.71-1.49-.34-.29-.86-.15-1.26-.29a2.91,2.91,0,0,1-2.71.21c0-.08,0-.19,0-.23,1.3.42,2.08-.77,3.34-.54a2.26,2.26,0,0,1,.55.22h.26a7.36,7.36,0,0,1-.43-1.08c-.3-.56.29-1,.18-1.41-.48.33-.67,1-1.33.88v-.22c2-1.34,1.31-3.95,1.92-6,.19-2.4,1.31-4.59,1.4-7a1.26,1.26,0,0,0,.3-.6c-.18-1.23.35-2.54-.09-3.84-.3,0-.33.37-.52.47l-.15-.1c-.14-.83.41-1.45.79-2.13-.37,0-.45.49-.63.64-.15.33-.41.44-.63.66,0-.07-.11-.11-.08-.22a13.63,13.63,0,0,1,1.61-2.76,9.15,9.15,0,0,1-1,.74c-.08-.08-.19-.15-.11-.26a9.58,9.58,0,0,0,1.88-5.52c-.14-1.27.68-2.45.06-3.66l-.12.12c-.34,1.12-.86,2.54-1.2,3.69,0,.71-.93,1.34-.12,1.86a.55.55,0,0,1-.26.71c-.19.27.07.33.21.52a.78.78,0,0,1,.07,1c-1,1-1.52,2.12-2.64,2.83a1.44,1.44,0,0,1-.44-1.35,14.91,14.91,0,0,1-.51-2.95c.19-.49.71-.45,1.16-.52,0-.23-.23-.38-.15-.67s.48-.3.78-.33c.49-1.65,1-3.29,1.47-4.93.41-.56,0-1-.21-1.49a.68.68,0,0,0-.52-.18c-.22,0-.3-.27-.3-.49.45-.34,0-1.16.46-1.45.29.25.25.85.36,1.27.48-.29,0-.9.34-1.27.67,0,.18,1,.52,1.39a2.46,2.46,0,0,0,.15-1.35c.11-.19.22,0,.41-.15.41-1.15.75-2.38,1.13-3.58l-.34-.25c-.17-1.69.54-3.37.29-5.12l.11-.07c.22.15.26.48.3.74.47.46.29,1.24.43,1.77.33.06.41-.27.6-.45,0-.11.07-.34,0-.45,0-1-1-1.83-.36-2.73.38.49.15,1.24.51,1.69.15,1,.92,1.6.66,2.57,1.15-.26.37-1.56.79-2.38.59-.08.11.67.4.9.34-.15.19-.71.3-1.09s.41-.11.64-.33c-.08-.64.59-.93.63-1.52C318.7,177.92,317.93,176.75,317.57,175.48ZM294.08,191.3c-.11.15-.19.34-.41.27l-.22-.23c-.19.37-.63.26-.89.45a.26.26,0,0,1-.38,0s-.11-.1-.17-.07c-.15.18-.12.45-.38.52-.41-.15-.22-.78-.18-1.15.07-.12.11-.27.22-.3s.3.11.3.3a.11.11,0,0,0,0,.07c.22-.07.12-.37.3-.52.45.38.93-.74,1.19.08.07-.11.07-.34.26-.38C294.31,190.38,294,191,294.08,191.3Zm.66,0a.42.42,0,0,1-.33.14c-.22-.3-.07-.78,0-1.13l.19-.11A1.47,1.47,0,0,1,294.74,191.28Zm.67-.07h-.29c0-.33-.15-.68.11-1C295.57,190.38,295.34,190.87,295.41,191.21Zm.67,0a1.05,1.05,0,0,1,.05-1.05c.37.14.22.59.25.93C296.3,191.28,296.19,191.2,296.08,191.25Zm11.05.71c-.07.08-.18,0-.29,0a2.13,2.13,0,0,1-.22-1.34c.07,0,.15-.12.22-.15.23.3.15.63.22,1h0C307.1,191.67,307.24,191.81,307.13,192Zm.78-.13c-.4,0-.4-.38-.55-.65a1.68,1.68,0,0,1,.19-.92c.22-.08.3.14.33.25h0C307.81,191,308.18,191.46,307.91,191.83Zm.79-.26a.21.21,0,0,1-.38,0c0-.45-.33-1.15.12-1.56.33.48.22.93.26,1.53Zm-1.2-5.84a5.56,5.56,0,0,0-.27,2.17.37.37,0,0,1-.3.26c-.41-.23-.11-.83-.26-1.16,0-1-.32-1.53-.39-2.46l.19-.15c.26.11.18.63.55.48a24.89,24.89,0,0,0,.83-3c.56-1.64.43-3.48.66-5.2l.19,0h0C308.83,180,308.07,182.79,307.5,185.73Zm2,5.61a.43.43,0,0,1-.37.15c0-.56-.22-1.05.08-1.64.34.44.18,1,.29,1.49Zm.81,0c-.18-.08-.29.11-.4,0l-.11-1.23a.42.42,0,0,1,.37-.22c.26.26,0,.79.18.93S310.32,191.08,310.32,191.31Z" fill="#e6a300"/><path d="M290.28,194.16s-.08.08-.11,0c-.22-.38.08-.89-.07-1.24l0-.63c.37.57-.19,1.23.14,1.83" fill="#e6a300"/><path d="M276.81,149.54c.14.2.26.49.18.64a6.12,6.12,0,0,1-1.63-.42c-.22,0-.45-.22-.63,0s-.08.52-.41.37a1.07,1.07,0,0,1,.15-.9,1.89,1.89,0,0,1,1.56,0,.8.8,0,0,1,.78.34Z" fill="#e6a300"/><path d="M276.81,149.54c.14.2.26.49.18.64a6.12,6.12,0,0,1-1.63-.42c-.22,0-.45-.22-.63,0s-.08.52-.41.37a1.07,1.07,0,0,1,.15-.9,1.89,1.89,0,0,1,1.56,0,.8.8,0,0,1,.78.34Z" fill="none" stroke="#1f2c5c" stroke-miterlimit="10" stroke-width="0.24"/><path d="M276.32,150.55a.78.78,0,0,1,.7.71l-.11.19c-.89-.61-2,0-2.86,0a.57.57,0,0,1,0-.59,2.09,2.09,0,0,1,2-.29Z" fill="#e6a300"/><path d="M276.32,150.55a.78.78,0,0,1,.7.71l-.11.19c-.89-.61-2,0-2.86,0a.57.57,0,0,1,0-.59,2.09,2.09,0,0,1,2-.29Z" fill="none" stroke="#1f2c5c" stroke-miterlimit="10" stroke-width="0.24"/><path d="M277.06,152.27l0,.45a2.56,2.56,0,0,0-1.67-.31l-1.27.44c-.22-.11-.14-.41-.14-.59.41-.45,1-.37,1.49-.55S276.72,151.67,277.06,152.27Z" fill="#e6a300"/><path d="M277.06,152.27l0,.45a2.56,2.56,0,0,0-1.67-.31l-1.27.44c-.22-.11-.14-.41-.14-.59.41-.45,1-.37,1.49-.55S276.72,151.67,277.06,152.27Zm-1.2,1.56a1.52,1.52,0,0,1-.64.56c-.22,0-.32-.19-.4-.37.23-.26.63-.22,1-.34Z" fill="none" stroke="#1f2c5c" stroke-miterlimit="10" stroke-width="0.24"/><path d="M323.55,157.62c-.64,2.8-1.62,5.59-2.41,8.39-.26.45-.27,1-.56,1.45-.72,2.72-1.59,5.33-2.46,8-.62-1.06.27-1.92.42-2.89.27-1.22.72-2.27.95-3.53.63-1.34.72-2.73,1.43-4.14.53-1.94,1.05-3.84,1.66-5.66.26-.56.29-1.09.52-1.69.15,0,.37-.07.44.08Z" fill="#e6a300"/><path d="M311.18,199.12l.11.14c-.11.31-.78.19-.52.64a3.08,3.08,0,0,1,.78.79,10,10,0,0,1-1.79,2.34l-.34.26a10.09,10.09,0,0,1-.44-1.8,4.69,4.69,0,0,0-.21-1.48c.37-.22.92-.15,1.37-.34a.62.62,0,0,0,0-.45c-.07-.1-.33-.19-.25-.41.47-.07.81.19,1.25.31ZM306,226.23a7.13,7.13,0,0,0,2.77,1.4,2.07,2.07,0,0,0-.82,1.19c-.11.11-.26,0-.37.07a8.51,8.51,0,0,1-2.58-3.07c.26-.63.74.2,1,.41Zm5.29,1.79a4.26,4.26,0,0,1,1.8,4.08,2.93,2.93,0,0,1-.16,2.09c-1,.78-2-.28-3-.43a4.17,4.17,0,0,1-2.18-2.7c-.29-.41-.36-1-.7-1.34-.55-.9-2.66-.83-1.76-2.36a15.58,15.58,0,0,0,2.69,2.29c.6,0,.41-.89.86-1.11a5.73,5.73,0,0,0,1.33,2.16c.41.56.88,1.06,1.66.84a.9.9,0,0,0,.42-.91c-.19-.77-1-1.15-1.33-1.86.11,0,.19,0,.22-.15.07-.41-.22-.67-.48-1a1.44,1.44,0,0,0-.85-.38c.41-.29.41-.85.71-1.3.15.75.92,1.24.77,2.09Zm-14.21-.6c0,.19.19,0,.27.16a1.42,1.42,0,0,1-.86.48,3.32,3.32,0,0,1-2.94.32c-.25-.3-.17-.67-.25-1,.26.3.85,0,1.23,0,.15-.26.44,0,.63-.18.67,0,1.3.16,1.92.23Zm-4,.81.29.6a1.84,1.84,0,0,0-1.48,1.14c-.45-.89.48-1.75.86-2.57.29.08.14.57.33.83Zm5.79-.2c.11.76-.75.94-1.12,1.34a5,5,0,0,1-2.9.92c-.41-.3-.22-.71-.59-1v-.19a8.17,8.17,0,0,0,2.75-.58,9,9,0,0,0,1.23-.75c.22,0,.52-.06.63.23Zm10.72-.17c0,1.27,1.18,1.91,1.62,3-.45,0-.41-.52-.74-.74a2.73,2.73,0,0,1-1-2.25h.11Zm1.14.75c-.22.15-.11.26-.15.45-.36-.29-.33-.78-.43-1.2C310.41,228,310.56,228.36,310.66,228.61Zm-17.17.78,0-.44.07.18,0,.26Zm-1.28,2.79c-.37,0-.41.52-.78.51.37-.4.82-1,1.15-1.4a3.57,3.57,0,0,0,.87-1.68,4.31,4.31,0,0,1-1.24,2.57Zm.45-2.36,0,0V230h0Zm2,1a10.6,10.6,0,0,0,3.34-.77c-.08.49-1.23.25-.71.86l.74-.18c-.82.74-2,1-2.83,1.77-.93.93-1.68,2.53-3.12,2.6l-1,.33v.23c.41.21.78-.19,1.22-.16a2.46,2.46,0,0,1-1,.6c-.52.26-1.26.67-1.74.29a11.83,11.83,0,0,1-.51-2.8c.2-1.75,2.2-1.93,2.77-3.46a.28.28,0,0,1,.22.23v.26c-.3.78-2.41,1.22-1.23,2.3a.87.87,0,0,0,.92.23A5.14,5.14,0,0,0,294,230a1.36,1.36,0,0,0,.7.89Zm-3.46,1.21c.15-.14.33-.41.52-.47C291.69,231.88,291.36,231.88,291.21,232.06Zm31.12-73.33a1,1,0,0,1-.37-1.08l.41-.94a2.28,2.28,0,0,1,0,2Zm1.21,2.43c-.19.12-.3.34-.52.41.45-1.3.42-3.1,1.61-4a33,33,0,0,1-1.09,3.61Zm-1.4-1.72c-.38.74-.5,1.56-.83,2.31-.56-.93,0-1.94.38-2.87.15.22.74.16.45.56Z" fill="#e6a300"/><path d="M300,133.45Z" fill="#e6a300"/><path d="M304.67,127.28a3.92,3.92,0,0,0-.92-.94c-1.74-.9-3.56-.35-5.45-.17-.64.14-.75.86-1,1.3a4.11,4.11,0,0,0,.73,4.18L298,133.3l-.22,0a8.28,8.28,0,0,1,.77,1.87c.73,1.57,2.52.31,3.74.84.82-.26,1.12-1.15,1.61-1.82a3.39,3.39,0,0,0-.14-2.54C305,130.6,304.89,128.88,304.67,127.28Zm-7.13,1.45c.67-1,1.93-.06,2.67-.53.38.07.19.67.33.85-.15.33-.19.71-.59.82a2.6,2.6,0,0,1-1.89-.46C298.1,129,297.09,129.33,297.54,128.73Zm3.83,5.54a.22.22,0,0,1-.06.24,1.4,1.4,0,0,1-.22.17,1,1,0,0,1-.3,0,.52.52,0,0,0-.34.06.17.17,0,0,1-.12,0,.17.17,0,0,1-.1-.07.69.69,0,0,1-.14-.25h0a.42.42,0,0,1,0-.2,1,1,0,0,0,0-.17h0a1.34,1.34,0,0,1,.23.13.55.55,0,0,0,.31.11h0a1.24,1.24,0,0,0,.54-.06.37.37,0,0,0,.2-.05h0a.18.18,0,0,1,0,.06Zm.51-.47a3.74,3.74,0,0,0-.75,0h-1.42a3.56,3.56,0,0,0-.73.09c-.23-.22.23-.28.33-.36a2.53,2.53,0,0,1,.67-.11l-.06,0h0c.09,0,.1,0,.07,0h0a.7.7,0,0,1,.51.14l.15,0c.19,0,.41,0,.48-.16H302l.44.14v0a1.17,1.17,0,0,0,.25.11s.1,0,.15.07Zm1.25-4.07c-.52.49-1.29-.38-1.6.41s.78,1.12,1.11,1.84a2.3,2.3,0,0,1,.51,1.3c-.59,0-.51-1.3-1.33-1a1.48,1.48,0,0,1-1.22.37c-.34-.23-.78-.19-1.08-.53-.44.15-.56.67-.93.93l-.15,0c-.07-.45.3-.67.53-1,.37-.14.44-.48.78-.63.11.12.07.38.29.5.45-.12,1,.44,1.3-.16,0-1.18-.84-2.46-.2-3.65.18,0,.18.29.4.26.64.08,1.08-.29,1.75-.17a5,5,0,0,1,1,.6.44.44,0,0,1-.22.41C303.39,129,303.8,129.88,303.13,129.73Z" fill="#e6a300"/><path d="M306.62,179.5l.08,1.89-.35.82h-.28l.32-2.51Z" fill="#1f2c5c" fill-rule="evenodd"/><path d="M298.3,197.5l.16.31-.39.79-.16-.12v-.43Z" fill="#1f2c5c" fill-rule="evenodd"/><path d="M275.7,153.76l-.12.42-.41.3-.36-.54Z" fill="#1f2c5c" fill-rule="evenodd"/><path d="M364.41,213.14a.36.36,0,0,1,.09-.27,1.84,1.84,0,0,0,.16-.69,1.84,1.84,0,0,1,.16-.69,1,1,0,0,0,.08-.48.89.89,0,0,1,.09-.49,3.33,3.33,0,0,0,.16-1c.07-.89.06-.94-.16-1.18a4.14,4.14,0,0,0-1.3-.72c-.12,0-.06.37.09.49a.42.42,0,0,1,.14.26c0,.07,0,.13.08.13a.81.81,0,0,1,.24.31,3.48,3.48,0,0,1,.06,2l-.18.36c-.08.17-.78.27-.78.11s-.13-.11-.29-.11a.55.55,0,0,1-.35-.09c0-.06-.22-.1-.42-.1a1.17,1.17,0,0,1-.59-.16c-.19-.14-.22-.22-.18-.54a.74.74,0,0,1,.67-.74c.34-.09.43-.3.18-.42l-.37-.18a1.19,1.19,0,0,0-.45-.11.4.4,0,0,1-.3-.1.78.78,0,0,0-.44-.1.73.73,0,0,0-.44.1s0,.1,0,.1.12.07.15.17a2.44,2.44,0,0,0,.25.46c.21.32.26.64.1.64s-.09.11-.09.24,0,.25-.49.25a1,1,0,0,1-.54-.1.42.42,0,0,0-.3-.1,1.46,1.46,0,0,1-.85-.38c-.22-.18-.22-.56,0-1.05s.31-.51,1.11-1.18c.36-.3.34-.52,0-.52a.52.52,0,0,0-.35.1.46.46,0,0,1-.32.1c-.45,0-.71.11-.71.3a.3.3,0,0,1-.1.24.41.41,0,0,0-.09.3c0,.13,0,.23-.09.23a1.61,1.61,0,0,0-.15.74,2.24,2.24,0,0,1-.16.78.71.71,0,0,0-.09.43.87.87,0,0,1-.09.45,2.22,2.22,0,0,0-.16.71c-.08.71,0,.79.48.32a.94.94,0,0,1,1.11-.21,2.9,2.9,0,0,0,.83.16,1.49,1.49,0,0,1,.66.14,2,2,0,0,0,.74.15,2.35,2.35,0,0,1,.78.15.75.75,0,0,0,.44.09.71.71,0,0,1,.43.09.91.91,0,0,0,.41.14c.45.07.62.22.62.55s.21.55.37.33a.75.75,0,0,0,.12-.39Zm-6.51,5.45a.64.64,0,0,0-.13-.4,2.88,2.88,0,0,1-.59-1.23c0-.39.22-.47,1.19-.4a4,4,0,0,1,1,.16,4,4,0,0,0,.92.16,2.51,2.51,0,0,1,.86.15.49.49,0,0,0,.34.09,1.21,1.21,0,0,1,.46.09,2,2,0,0,0,.51.15.71.71,0,0,1,.58.7c0,.17.24.17.38,0a2.45,2.45,0,0,0,.17-.83,2.55,2.55,0,0,1,.15-.76.87.87,0,0,0,.09-.48c0-.32,0-.44-.14-.44a.25.25,0,0,0-.2.09,1.69,1.69,0,0,1-.85.4.28.28,0,0,1-.23-.1.73.73,0,0,0-.44-.1c-.21,0-.39,0-.41-.1a5.27,5.27,0,0,0-1.33-.16,5.78,5.78,0,0,1-1.29-.13s-.23-.1-.5-.14c-1-.13-1.05-.57-.08-1.51.42-.41.67-.72.63-.79s-1.15,0-1.59.16-.32.16-.32.77a1.37,1.37,0,0,1-.1.68.94.94,0,0,0-.09.49.84.84,0,0,1-.09.48,1.86,1.86,0,0,0-.15.62,3.67,3.67,0,0,1-.32,1.07l-.25.51.28.27a2.92,2.92,0,0,0,.88.61.72.72,0,0,1,.28.2.23.23,0,0,0,.23.08c.12,0,.16-.13.15-.36Zm1.19,3.8a2.46,2.46,0,0,0-.47-.25c-.09,0-.17-.1-.17-.15s-.06-.09-.13-.09-.61-.46-.52-.55a4.39,4.39,0,0,1,.87-.11,3.48,3.48,0,0,0,.9-.12.28.28,0,0,1,.28,0c.16.12.17.21.11.65-.1.78-.32.92-.87.57Zm2.55,3a.75.75,0,0,0,.13-.38.29.29,0,0,1,.1-.25,1.88,1.88,0,0,0,.16-.79c.07-.86,0-.9-.5-.51-.2.16-.35.22-.39.15a.32.32,0,0,0-.24-.1c-.38,0-.52-.28-.45-.86a3.71,3.71,0,0,1,.15-.7,2.23,2.23,0,0,0,.15-.52c0-.3.1-.36.28-.36a.54.54,0,0,0,.33-.11c.17-.18.71.1.71.37a.32.32,0,0,0,.53.22,1.16,1.16,0,0,0,.21-.57,1.72,1.72,0,0,1,.14-.55,2.72,2.72,0,0,0,.15-.76c.07-.62.06-.66-.13-.66a.33.33,0,0,0-.26.09c-.16.26-.74.43-1.6.48a2.35,2.35,0,0,0-.9.13c0,.05-.31.08-.68.08a1.77,1.77,0,0,0-.73.09,7.14,7.14,0,0,1-1.37.15c-1.56.08-1.91.2-1.91.67,0,.32.23.66.45.66s.13,0,.13.07.15.16.32.27l.56.37a5.67,5.67,0,0,0,.55.31,1.59,1.59,0,0,1,.43.29.37.37,0,0,0,.22.15,1.63,1.63,0,0,1,.45.28,6.53,6.53,0,0,0,.83.51,4.05,4.05,0,0,1,1.26.81.88.88,0,0,1,.37.59c0,.14,0,.26.1.26s.09.06.09.14.2.19.36,0Zm-6.53,3.77c.07-.11.1-.23.05-.26a3.23,3.23,0,0,1-.62-1.61v-.46h.53c.29,0,.56,0,.59.1a1.32,1.32,0,0,0,.55.16,1.16,1.16,0,0,1,.54.15.55.55,0,0,0,.33.08.49.49,0,0,1,.34.09,1.1,1.1,0,0,0,.52.16,2.15,2.15,0,0,1,.56.14,1.49,1.49,0,0,0,.39.14,1.63,1.63,0,0,1,1.37,1.08c.06.19.07.19.24,0a1.44,1.44,0,0,0,.25-.63,2.93,2.93,0,0,1,.14-.53,3.17,3.17,0,0,0,.34-1c.06-.31,0-.37-.12-.37a.71.71,0,0,0-.41.25c-.23.24-.72.33-.83.15a1.18,1.18,0,0,0-.52-.16,2.28,2.28,0,0,1-.56-.14,2,2,0,0,0-.56-.14,1.24,1.24,0,0,1-.52-.16.48.48,0,0,0-.33-.09.49.49,0,0,1-.34-.09,1,1,0,0,0-.41-.15,2.28,2.28,0,0,1-.51-.15l-.45-.16a.84.84,0,0,1-.38-.25,1,1,0,0,1,.28-1c.71-.39,1.24-1,.9-1.05a5.6,5.6,0,0,0-1.61.14,1.08,1.08,0,0,0-.12.62c0,.29,0,.53-.08.53s-.32.51-.38.94a1.44,1.44,0,0,1-.13.47,2.08,2.08,0,0,0-.14.52,1.58,1.58,0,0,1-.38.91.94.94,0,0,0-.13.44c0,.33,0,.43.3.75a1.5,1.5,0,0,0,.43.36.93.93,0,0,1,.31.25c.28.3.4.31.57,0Zm-2.2,4.38c-.65-.33-1-.61-1-.79a4.76,4.76,0,0,1,.84-1.53,1.14,1.14,0,0,1,1.48,0,.75.75,0,0,1,.32.73c0,.62-.63,1.89-.92,1.86a5.27,5.27,0,0,1-.71-.32Zm4.35,3.23a5.3,5.3,0,0,0,.41-.95.68.68,0,0,1,.15-.33c.31-.41,0-.79-.35-.4-.17.21-.9.19-1.34-.05a1.58,1.58,0,0,0-.49-.19c-.07,0-.12,0-.12-.08s-.15-.13-.32-.21a2.1,2.1,0,0,1-.48-.28c-.25-.21,0-.51.38-.51.17,0,.34,0,.37-.1a1.38,1.38,0,0,1,.63-.09,1.35,1.35,0,0,0,.63-.09,4.1,4.1,0,0,1,1-.15,2.28,2.28,0,0,0,1.13-.22c.41-.37.87-1.79.58-1.79a1,1,0,0,0-.31.24.71.71,0,0,1-.5.25.47.47,0,0,0-.32.09,4.12,4.12,0,0,1-1,.15,5.25,5.25,0,0,0-1.18.17c-.4.2-.55,0-.58-.77,0-1-.39-1.57-1-1.74a3.61,3.61,0,0,1-.46-.17c-.17-.08-.3-.06-.64.09a2.59,2.59,0,0,0-.55.36.41.41,0,0,1-.27.16.23.23,0,0,0-.2.17,4.25,4.25,0,0,1-.38.56,2.16,2.16,0,0,0-.39.66c0,.15-.1.27-.15.27s-.09.07-.09.17a3.23,3.23,0,0,1-.29.76,3.37,3.37,0,0,0-.29.72.76.76,0,0,1-.19.35,1.32,1.32,0,0,0-.26.61c-.06.35,0,.42.09.42s.16,0,.16-.08.58-.41.79-.41.19,0,.19.09.14.12.31.16a2.25,2.25,0,0,1,.61.25,3,3,0,0,0,.47.24c.1,0,.17.1.17.15s.09.09.2.09a1.53,1.53,0,0,1,.56.19,1.78,1.78,0,0,0,.48.2.18.18,0,0,1,.15.07,7.06,7.06,0,0,0,1.4.71c.17,0,.44.44.44.73s.17.58.34.44a4.89,4.89,0,0,0,.52-.91Zm-3.79,6.34a2.65,2.65,0,0,1,.4-.64,3.24,3.24,0,0,0,.28-.46,2,2,0,0,1,.36-.53,2.11,2.11,0,0,0,.35-.57,3.08,3.08,0,0,1,.42-.64c.44-.41.36-.91-.27-1.72a1.52,1.52,0,0,1-.27-.47c0-.06-.09-.11-.2-.11s-.2.07-.2.34a.65.65,0,0,0,.1.4,3.29,3.29,0,0,1,0,1.56.63.63,0,0,0-.15.34c0,.17-.11.3-.16.3a.1.1,0,0,0-.09.11c0,.21-.32.47-.58.47a1.14,1.14,0,0,1-.49-.14l-.39-.21a2.63,2.63,0,0,1-.35-.25c-.1-.1-.33-.29-.51-.43-.34-.28-.42-.62-.17-.82a.41.41,0,0,0,.15-.23.77.77,0,0,1,.21-.33c.17-.18.31-.23.73-.23s.52,0,.52-.1a2.18,2.18,0,0,0-.69-.71c-.08,0-.31-.17-.53-.31a1.58,1.58,0,0,0-.62-.24c-.2,0-.22,0-.17.26a.57.57,0,0,0,.16.31c.19.06.11.41-.22,1l-.18.38c-.08.19-.14.22-.36.16a1.33,1.33,0,0,1-.47-.25.66.66,0,0,0-.32-.19,1.68,1.68,0,0,1-.51-.36c-.45-.4-.5-.73-.18-1.07a2.36,2.36,0,0,0,.32-.45,1.19,1.19,0,0,1,.5-.41,3.52,3.52,0,0,0,.44-.26,1,1,0,0,1,.43-.12,1.18,1.18,0,0,0,.48-.16c.15-.15-.11-.4-.42-.4a.59.59,0,0,1-.36-.1,1,1,0,0,0-.53-.08c-.39,0-.44.07-.65.47a2.27,2.27,0,0,1-.33.5c-.11.07-.22.25-.53.84a1.72,1.72,0,0,1-.3.43.35.35,0,0,0-.14.21,1.26,1.26,0,0,1-.24.41c-.14.16-.29.35-.33.41a1.27,1.27,0,0,0-.16.33,1.56,1.56,0,0,1-.25.43c-.1.1-.16.23-.13.27s.39.1.52-.06c.27-.32.78-.13,2.12.78a3.22,3.22,0,0,1,.33.25.62.62,0,0,0,.19.12,4.59,4.59,0,0,1,.88.59l.46.36a1,1,0,0,0,.36.15,1.78,1.78,0,0,1,.59.44c.36.38.45.74.24,1s-.08.15,0,.28.17.12.47-.22a3.22,3.22,0,0,0,.41-.57Zm-7.78,1.51a1.57,1.57,0,0,0-.51-.39c-.07,0-.15-.08-.19-.17a1,1,0,0,0-.2-.33c-.12-.15-.11-.2,0-.44a2.08,2.08,0,0,1,1.54-1.11c.32,0,.44.06.76.4.53.58.5.94-.12,1.71-.13.16-.3.4-.38.51-.22.31-.51.26-.94-.18Zm3.08,2.57a.51.51,0,0,1-.22-.19.27.27,0,0,0-.2-.13,2.06,2.06,0,0,1-.6-.49,2.18,2.18,0,0,0-.61-.49c-.07,0-.13-.11-.13-.25s.17-.43.57-.83c.55-.57.56-.58,1.12-.58a1.06,1.06,0,0,1,1,.4c.43.39.44.43.44,1,0,.38-.05.6-.14.68a.38.38,0,0,0-.15.24c0,.16-.49.61-.73.67a.69.69,0,0,1-.35,0Zm0,1.61c.36-.39.87-.93,1.14-1.2a2.7,2.7,0,0,0,.48-.6,1.07,1.07,0,0,1,.29-.37,1.17,1.17,0,0,0,.29-.38.64.64,0,0,1,.22-.28c.19-.16.22-.29.22-.91a1.65,1.65,0,0,0-.12-.84.46.46,0,0,1-.12-.28.76.76,0,0,0-.27-.4,1.83,1.83,0,0,0-1.6-.51l-.77,0v-.44a1.62,1.62,0,0,0-.12-.66c-.24-.43-.7-.86-.93-.86s-.22,0-.22-.1-.15-.09-.34-.09-.34,0-.34.09-.16.12-.35.16-.58.31-1.61,1.39A12.9,12.9,0,0,0,343.3,244a1.34,1.34,0,0,1-.34.44,1.08,1.08,0,0,0-.34.51c0,.17,0,.18.36.12a1.24,1.24,0,0,0,.49-.17c.09-.07.12-.06.12,0s.1.11.21.11a3.58,3.58,0,0,1,1.06.78,7.13,7.13,0,0,0,.95.79,1.67,1.67,0,0,1,.47.39,1.9,1.9,0,0,0,.47.39,4.62,4.62,0,0,1,1.12,1.16c.09.16.1.27,0,.34s-.13.65,0,.65a3.73,3.73,0,0,0,.79-.71Zm-2.38,2.64c1-1.07,1.16-1.35.67-1.35-.16,0-.29,0-.29.1s-.12.1-.26.1-.42-.14-.78-.5a4.09,4.09,0,0,0-.73-.61,1,1,0,0,1-.36-.38c-.07-.15-.18-.27-.25-.27a7.7,7.7,0,0,1-1.09-1l-1-1,0-.58c0-.37,0-.59-.08-.59a10.11,10.11,0,0,0-2.05,2.13c0,.19,0,.2.54.15l.54-.06,1.25,1.24a13.81,13.81,0,0,0,1.34,1.23,3.79,3.79,0,0,1,.72.63l.62.63,0,.49c-.09.86,0,.83,1.2-.4Zm-5.58,5.06a.78.78,0,0,1,.32-.25,5.78,5.78,0,0,0,.85-.78,5.27,5.27,0,0,1,.85-.78,1.9,1.9,0,0,0,.47-.39,1.52,1.52,0,0,1,.49-.39.56.56,0,0,0,.29-.2c.14-.15.16-.28.11-.65a1.56,1.56,0,0,0-.15-.56,1.52,1.52,0,0,1-.16-.5c-.09-.48-.29-.71-.52-.57s-.16.28-.18.73a3.23,3.23,0,0,1-1,2.11c-.62.64-.81.6-1.74-.39l-1.22-1.3a2.84,2.84,0,0,1-.54-.73,1.79,1.79,0,0,0-.38-.54c-.6-.59-.81-1.12-.54-1.38a.27.27,0,0,0,.05-.27c-.06-.17-.35-.21-.35-.05s-.06.09-.13.09a1.86,1.86,0,0,0-.56.44,1.85,1.85,0,0,1-.53.44,2.19,2.19,0,0,0-.84.89.34.34,0,0,0,.5.31c.35-.22.66-.14,1.12.3a2.29,2.29,0,0,1,.44.52,3.05,3.05,0,0,0,.53.62,2.56,2.56,0,0,1,.54.65,2.42,2.42,0,0,0,.49.65,3.75,3.75,0,0,1,.49.61,2.33,2.33,0,0,0,.34.47c.2.22.31.42.25.44s-.1.14-.1.27-.05.24-.1.24-.12.17,0,.33.51,0,.86-.38Zm-11.53,1.76c-.09-.1-.09-.18,0-.32s.08-.25-.14-.53-.35-.86-.16-.86.1-.07.1-.15a.15.15,0,0,1,.15-.15c.08,0,.14,0,.14-.09s.13-.12.29-.15a.71.71,0,0,0,.35-.16.85.85,0,0,1,.47-.09.81.81,0,0,1,.71.3c.25.26.28.38.28.86,0,.65-.22,1-.65,1a.46.46,0,0,0-.32.1,1.7,1.7,0,0,1-.89.39.46.46,0,0,1-.33-.14Zm1.85,3.1a9.15,9.15,0,0,1-.8-1.39,2.11,2.11,0,0,0-.29-.48c-.21-.08-.05-.38.26-.5s.34-.17.34-.21.13-.1.3-.13a.71.71,0,0,0,.34-.16,1,1,0,0,1,.52-.09c.41,0,.51.05.85.4s.39.41.39,1.11-.08.89-.44,1.07a6.36,6.36,0,0,0-.58.31c-.51.29-.7.3-.89.07Zm-1,1.83a.75.75,0,0,1,.3-.14,2.42,2.42,0,0,0,.54-.29,4.34,4.34,0,0,1,.68-.39,3.67,3.67,0,0,0,.59-.35,1.2,1.2,0,0,1,.44-.25.68.68,0,0,0,.3-.16,2,2,0,0,1,.48-.31,1.68,1.68,0,0,0,.83-.94l.15-.32a2.09,2.09,0,0,0-.39-1.88.3.3,0,0,1-.08-.24.2.2,0,0,0-.12-.19l-.37-.19a1.31,1.31,0,0,0-.5-.11h-.28v-.92c0-.86,0-.94-.23-1.19a1.82,1.82,0,0,0-1.53-.57,4.84,4.84,0,0,0-1.84.76,6.76,6.76,0,0,1-.66.39c-.2.1-.37.22-.37.26s-.12.1-.27.14a2,2,0,0,0-.58.3,1.36,1.36,0,0,1-.4.24.62.62,0,0,0-.27.2c-.17.18-.17.21,0,.36s.21.14.33.07.59,0,.81.3.09.14,0,.14-.2.14,0,.3a.4.4,0,0,1,.15.25,1.08,1.08,0,0,0,.24.41,1.73,1.73,0,0,1,.3.54c0,.15.1.26.15.26s.1.14.14.3a.69.69,0,0,0,.24.41.93.93,0,0,1,.25.37,1.58,1.58,0,0,0,.24.44c.45.52.64,1.37.34,1.61a.41.41,0,0,0-.08.52c.08.08.45,0,.52-.13Zm-5.1,2.19.22-.06-.06-3.43-.07-3.44.22-.27a.74.74,0,0,1,.4-.27.17.17,0,0,0,.19-.19c0-.26-.14-.32-.41-.18l-.41.2a2.89,2.89,0,0,1-.71.15c-.29,0-.52.09-.52.13s-.13.1-.29.14a.67.67,0,0,0-.35.16c-.08.12.14.38.33.38a.77.77,0,0,1,.38.21c.18.17.22.31.22.78a1.28,1.28,0,0,0,.1.62,11.23,11.23,0,0,1,0,2.72c-.08.08-1-.81-1-1a3.11,3.11,0,0,0-.58-.69,2.78,2.78,0,0,1-.59-.69c0-.06-.11-.19-.25-.29s-.34-.75-.14-.87a.54.54,0,0,0,.1-.35c0-.24-.05-.29-.23-.29a.86.86,0,0,0-.42.15.84.84,0,0,1-.41.14c-.12,0-.21.05-.21.1s-.14.11-.3.15a3.49,3.49,0,0,0-.57.2,1.05,1.05,0,0,1-.38.14c-.18,0-.15.4.05.55a.65.65,0,0,0,.33.13,5.25,5.25,0,0,1,1.35,1.26,2.87,2.87,0,0,0,.45.51,3.29,3.29,0,0,1,.52.6,14.54,14.54,0,0,0,1.22,1.39c1.17,1.24,1.27,1.31,1.8,1.17Zm-8.78,2.46c.1-.12.36-.15,1.14-.15a5.17,5.17,0,0,0,1.19-.09c.09-.05.37-.19.62-.3.61-.27,1.35-1.07,1.35-1.44a.7.7,0,0,1,.12-.4c.09-.08.09-.17,0-.33a2.63,2.63,0,0,1-.17-.54,1.7,1.7,0,0,0-1.06-1,.57.57,0,0,1-.34-.11,2.88,2.88,0,0,0-1.07-.16,3.75,3.75,0,0,1-1.05-.13,1.65,1.65,0,0,0-.67-.09c-.62,0-1.33-.24-1.33-.46,0-.07,0-.12-.1-.12s-.11-.52.07-.73a1.45,1.45,0,0,1,1-.54.62.62,0,0,0,.4-.1.42.42,0,0,1,.3-.1c.13,0,.24.05.24.1s.2.1.44.1a1.11,1.11,0,0,1,.76.23c.41.32.78.41.93.23s-.06-.62-.66-1.27l-.48-.51-.27.26c-.26.23-.37.26-1.31.3a2.82,2.82,0,0,0-1.48.3,3.56,3.56,0,0,0-1.19,1.08c-.18.28-.23,1.43-.06,1.43s.09.05.09.12a1.74,1.74,0,0,0,.76.76c.07,0,.12,0,.12.1s.1.1.23.1a.49.49,0,0,1,.32.1,6.6,6.6,0,0,0,1.44.16,5.93,5.93,0,0,1,1.34.14s.19.08.43.08a.94.94,0,0,1,.58.15.49.49,0,0,0,.25.15c.06,0,.1.06.1.14s.05.15.1.15.12.55-.05.68a.41.41,0,0,0-.14.24c0,.12-.69.45-.93.45a.26.26,0,0,0-.2.1,3.43,3.43,0,0,1-1.56,0,.25.25,0,0,0-.21-.1,2.32,2.32,0,0,1-1-.48c0-.11-.38-.21-.55-.14s-.19.52,0,.52a.12.12,0,0,1,.1.13.81.81,0,0,0,.24.36.79.79,0,0,1,.25.33c0,.36.74.59,1,.31Z" fill="#e6a300"/><path d="M363.56,148c.28-.34.41-.36,2.92-.41s2.64,0,2.91.28c.51.59.68.41.68-.7s-.16-1.38-.54-.8c-.25.39-.29.39-2.48.39a9.12,9.12,0,0,1-2.22-.13,26.46,26.46,0,0,1,4.18-1.77c.62-.23.91-.43.87-.58a4.41,4.41,0,0,0-1.47-.87,15,15,0,0,1-3.42-1.78c0-.08.34-.1.76-.05s1.35.14,2.09.19c1.16.09,1.38.16,1.71.52s.41.37.53.18a6.26,6.26,0,0,0,.07-2.38,1.82,1.82,0,0,0-.45.24c-.31.2-.61.22-1.86.08-.83-.08-2-.15-2.56-.16-1,0-1.09,0-1.39-.42-.48-.61-.67-.31-.62,1l.05,1.09,1.69.72c1.82.77,2.58,1.21,2.45,1.42a15.24,15.24,0,0,1-2.15.88,6.39,6.39,0,0,0-2.24,1.07,3,3,0,0,0-.09,1.22c0,.49.09.95.1,1,0,.22.19.13.48-.23Zm1.7,8c.44-.07,1.64-.18,2.65-.24,1.69-.1,1.88-.08,2.19.19l.34.3-.1-2.31c-.06-1.26-.15-2.46-.2-2.65s-.33-.43-.89-.61a1.89,1.89,0,0,0-.87-.17c-.05,0,.13.28.41.51a2.86,2.86,0,0,1,1,2.07c.14,1-.15,1.3-1.55,1.43-1,.09-1.05.07-1.29-.27a1.57,1.57,0,0,1,.06-1.82c.58-.52.41-.76-.48-.67s-1.09.18-.74.57a3.6,3.6,0,0,1,.45,2.28,2.89,2.89,0,0,1-1.09.24c-1.19.11-1.37-.08-1.39-1.45a2.07,2.07,0,0,1,.36-1.52c.21-.28.33-.54.28-.59s-1,.28-1.18.54a29.31,29.31,0,0,0,.39,4.8l.08.39.36-.44a1.56,1.56,0,0,1,1.16-.58Zm1.32,9a2.49,2.49,0,0,0-.64-.83c-.59-.58-.82-1.21-.5-1.41.07-.05,1.22-.24,2.56-.44,2.28-.34,2.46-.34,2.89-.09s.46.24.46,0A13.49,13.49,0,0,0,371,160s-.24.1-.44.31-.71.42-2.28.65c-1.05.15-2.19.29-2.54.31-.63,0-.64,0-.69-.57a2.1,2.1,0,0,1,.36-1.31c.49-.83.32-.92-.73-.38-.53.27-.63.39-.54.67a33.69,33.69,0,0,1,.63,4.62c-.11.27.19.51.89.71s.95.22.95,0Zm.16,7.76c.16-.44.37-.51,3.17-1.12,2.12-.46,2.59-.49,2.87-.16a.63.63,0,0,0,.35.24c.18,0,.17-.09-.47-3.1l-.44-2.06-.63-.21a3,3,0,0,0-.95-.16c-.28.05-.24.11.26.44a2.75,2.75,0,0,1,1.23,2.06c.16.79.15.89-.14,1.18a3.36,3.36,0,0,1-2.41.31,2.63,2.63,0,0,1-.24-.95c-.08-.69,0-.84.25-1.12s.29-.37.17-.44a3.53,3.53,0,0,0-1.82.28c-.31.16-.31.16,0,.29a1.68,1.68,0,0,1,.87,1.57l0,.71-.94.19c-1.24.25-1.45.13-1.57-.93a3.28,3.28,0,0,1,.24-2c.29-.61.08-.71-.56-.28-.47.32-.59.49-.53.76s.2,1.13.34,2.09c.24,1.67.5,2.78.66,2.78s.13-.18.22-.39Zm1.11,5.32c0-.31.51-.62,1.31-.8,4-.88,4.46-.94,4.65-.64s.4.16.39-.27a3.57,3.57,0,0,0-.61-1.92c-.1,0-.18.06-.18.2,0,.35-.38.49-2.94,1s-2.65.57-3,.16c-.16-.18-.35-.27-.41-.2a7.77,7.77,0,0,0,.42,2.44c.12.19.39.18.39,0Zm1.1,7.89c.1-.26.77-.67,2.41-1.47,3.24-1.58,3.55-1.76,3.61-2s-.55-.9-1.09-.9a35.31,35.31,0,0,1-4.71-1.12,3.2,3.2,0,0,1-.8-.51c-.22-.2-.42-.28-.5-.19a5.42,5.42,0,0,0,.17,2.22c.06.06.32-.06.59-.26l.49-.36,1.55.29c2.28.44,2.3.52.27,1.58-.94.49-1.77.89-1.83.89a.79.79,0,0,1-.37-.25c-.4-.4-.6-.12-.49.7.18,1.48.25,1.77.41,1.77s.21-.16.29-.36Zm1.52,6.25a1.87,1.87,0,0,1-1.61-2.1c.2-1.07.91-1.41,2.93-1.42a5,5,0,0,1,2.14.27,1.75,1.75,0,0,1-.51,3.24,8.12,8.12,0,0,1-2.95,0Zm3.42,1.07a2.9,2.9,0,0,0,1.45-2.93,14.92,14.92,0,0,1,.05-3.35c.16-1.22-.06-1.3-.46-.19a2.09,2.09,0,0,1-.49.89,1.33,1.33,0,0,1-.73-.19,5.55,5.55,0,0,0-3.1-.25,4,4,0,0,0-2.29,2.19,3.26,3.26,0,0,0,1.68,3.81,5.09,5.09,0,0,0,3.89,0Z" fill="#e6a300"/><path d="M242.07,228a2.3,2.3,0,0,1-.43-.65,1.24,1.24,0,0,0-.1-.39c-.09-.25.36-.57,1.35-.94.65-.25,1.08.28,1.08,1.3s-.2,1.2-.93,1.2a1.16,1.16,0,0,1-1-.52Zm2,1.86a1.71,1.71,0,0,0,1-1.73c0-1-1.61-4.78-2-4.78-.07,0-.19.25-.27.54-.14.49-.37.66-2.39,1.67-2.22,1.11-2.92,1.31-3.3.93s-.38.4.13,1.52.94,1.49,1,.71c.05-.36.25-.56,1.06-1a5.93,5.93,0,0,1,1.19-.54c.11,0,.44.45.74,1,.87,1.63,1.7,2.11,2.88,1.67Zm.31,8.07c.74-.12.84-.53.16-.69-1.06-.25-2.37-1.49-2.37-2.26,0-.18.77-.75,2.21-1.63,2.1-1.29,2.24-1.35,2.94-1.25s.72.08.61-.2a12,12,0,0,0-1.64-2.38c-.07,0-.12.22-.12.49,0,.44-.17.61-1.63,1.56-2.78,1.81-3.2,2-3.55,1.8s-.83-.24-.7.1a46.82,46.82,0,0,0,2.77,4.58.66.66,0,0,0,.44.05l.88-.17Zm4.18,2.32c-.16-.25-.21-.48-.13-.56a3.63,3.63,0,0,1,1.49-.48,3.63,3.63,0,0,1-.93,1.47c-.08,0-.27-.2-.43-.43Zm.11,4.56c0-.36.53-1.4,1.75-3.4,1-1.59,1.74-3,1.74-3,0-.39-.51-.58-1.12-.4l-1.54.43c-.5.14-1.69.49-2.63.78a5.64,5.64,0,0,1-2.16.42c-.58-.15-.6-.15-.67,0s1.46,2.06,1.64,1.94.11-.27.06-.49c-.11-.43.31-.8,1.11-1,.37-.09.53,0,1,.53.63.76.68,1.42.13,2a.85.85,0,0,1-.83.31c-.24,0-.44,0-.44,0,0,.41,1.64,2.62,1.85,2.49a.93.93,0,0,0,.15-.6Zm5.79,4.75c.77-.48.32-.85-.71-.56a1.45,1.45,0,0,1-1.32-.09,1.87,1.87,0,0,1-1.1-1.7c0-.91,1.53-2.78,2.82-3.44.62-.33.74-.33,1.47,0a2.57,2.57,0,0,1,1.2,2.26c0,.75.24.8.59.13s.33-1.27.08-1.43a3.36,3.36,0,0,1-.57-.74,3.68,3.68,0,0,0-2.58-1.5c-2,0-4.33,2.52-4.13,4.52S252.79,250.6,254.43,249.58Zm1.9,3.71c-.06-.51.16-.81,2.33-3.07,1.37-1.43,1.53-1.54,2-1.45.77.17.61-.24-.5-1.3s-1.42-1.19-1.28-.39c.1.52,0,.66-1.73,2.56s-1.86,2-2.42,1.93c-.82-.11-.74.18.33,1.34s1.38,1.15,1.29.38Zm5.32,4c-.84-.35-1.52-.89-1.52-1.21,0-.48,3.12-4.52,3.49-4.52a2.36,2.36,0,0,1,1,.64c.6.58.67.72.67,1.44a4.36,4.36,0,0,1-1.61,3c-.85.82-1.34,1-2,.7Zm2.46.69a4.58,4.58,0,0,0,2.15-2.4,2,2,0,0,0,.22-1.74,4.28,4.28,0,0,0-.78-1.55,12.44,12.44,0,0,0-3.63-2.73c-.27,0-.3,0-.14.2.5.51,0,1.48-1.72,3.48-.36.42-.82,1-1,1.25a1,1,0,0,1-.91.5c-.31,0-.58.09-.62.19s.42.53,1,1,1.27,1,1.55,1.32a2.33,2.33,0,0,0,2.13.9,3.4,3.4,0,0,0,1.77-.4Zm3.76.71-.4-.24c-.13-.11.54-.73.79-.73a1.07,1.07,0,0,0,.56-.27c.42-.38.53-.2.23.38a6.78,6.78,0,0,0-.33.77c-.1.33-.37.36-.85.09Zm2,4.76c.06-.06,0-.25-.06-.42a16.78,16.78,0,0,1,.64-5.25,2.53,2.53,0,0,0,.26-1.35c0-1.51-.19-1.52-1.91,0a12.56,12.56,0,0,1-1.72,1.32,7.83,7.83,0,0,0-1.29,1c-.89.78-1.4,1.08-1.74,1-.86-.16-.54.33.67,1a2.28,2.28,0,0,0,1,.39c.07,0,.09-.3,0-.58s0-.6.37-1c.57-.6.73-.61,1.59-.07s.9.71.71,1.53c-.12.51-.25.66-.69.79s-.53.2-.53.26a16,16,0,0,0,2.51,1.49.34.34,0,0,0,.2-.1Zm9.11,3.1a1.27,1.27,0,0,0-.21-.5c-.22-.36-.16-.57,1.07-3.76.5-1.27.76-1.73,1.06-1.87.64-.29.33-.62-.88-.95l-1.11-.3-.5.63a19.24,19.24,0,0,1-2.37,2.71c-.14,0-.17-.53-.1-2.16l.09-2.22-.93-.45a7.46,7.46,0,0,0-1.05-.46c-.25,0-.53.59-.39.85a4.38,4.38,0,0,1-.44,1.91c-.32.91-.71,2-.86,2.48a2,2,0,0,1-.75,1.08c-.66.37-.5.69.5,1s1.21.2.89-.41c-.16-.29-.1-.62.3-1.77a14.46,14.46,0,0,1,1.08-2.79,14.38,14.38,0,0,1,0,2.71c-.11,2.58-.09,2.85.17,3.07s.2.42,2.44-2.45c1.36-1.74,1.81-2.2,1.58-1.61-.07.17-.3.93-.52,1.69-.49,1.69-.84,2.39-1.26,2.5a.35.35,0,0,0-.11.66c.66.42,2.29.69,2.29.38Z" fill="#e6a300"/><path d="M291.3,60.46c-.48-.05-1.23.08-1,.77-.16.9,1.11,1.36,1.12,2.05-.84,1-.95,2.66-2.35,3.11-.84.65-1.3-1.13-2.18-.89-.54.59-1,1.31-1.47,1.94,0,1.5-1.68,2.16-2.68,3-2,1.33-4.09,2.55-5.43,4.57-.9,1.26-2.25,2.27-2.8,3.74.27,1.63,1.6,2.85,2.56,4.14a35.7,35.7,0,0,0,8.58,7.59c.92.75,2.18,1.2,2.87,2.19.08.83-1.15,1-1.78.87-2.12-.71-4.44-1.12-6.54-.12-1,.59-2-.45-3.06-.44-1.53-.21-3.54-.22-4.49,1.2a1.83,1.83,0,0,0,.46,2.41c1.47,1.24,3.59,1.12,5.4,1a10,10,0,0,0,3.69-1.27c1.55.14,2.79,1.55,4.44,1.28,1.48.2,2.76-.83,4.07-1.12a8.63,8.63,0,0,0,4.88,1.08c1.1-.06,2.08-.84,3.11-1,2.13,1,4.68,1.58,6.88.44,1.14-.76,2.32.29,3.51.43,1.81.57,3.67-.11,5.38-.76a5.69,5.69,0,0,0,4.64.68c1.3-.57,2-2.5.78-3.47-2.31-1.58-5.36-1.18-7.87-.38-1.26.65-2.36-.75-3.67-.62a12.7,12.7,0,0,0-5.16.59,1.18,1.18,0,0,1-1.66-1c0-1.75-1.23-3.14-2-4.65-1-1.19-2.71-1.34-3.91-2.31-.66-.39-1.29-1.08-1.86-1.39-.74,1.15-2.31.64-3.13-.12s-1.85-1.09-2.62-1.89c-.58-.55-1.72-.37-1.9-1.34-.33-.81-1.42-.94-1.72-1.74.34-1,1.41-1.67,2.06-2.51,1.07-1.18,2.23-2.32,3.31-3.5.66-.35,1.52,0,2.08-.64.55-.38,1.55-1,.87-1.75s.28-1.6,1.06-1.57c1.12,0,2.58-.46,3.41.57.56.56,1.14-.29,1.32-.77.74-.44,1.41.56,2,.86,6.42,5,12.57,10.29,18.5,15.83,2.19,2.26,4.16,4.7,6.25,7,2.19,2.55,4.25,5.2,6.23,7.92a36.41,36.41,0,0,0-3.89-7.89c-1.67-2.21-3.34-4.41-5.06-6.57A151.91,151.91,0,0,0,302.78,68c-.68-.66-1.74-1.13-2.09-2,0-.77,1.16-1.69.2-2.28-.6-.2-1.4.24-1.9-.39-1.44-1.28-3-2.92-5.09-2.73-.87,0-1.73-.07-2.6-.06Z" fill="#e6a300"/><path d="M330.87,100.16a111.59,111.59,0,0,0-9-11.06,12.82,12.82,0,0,1-1.53-1.79c0-.62-13.39-12.39-18.73-16.45-2.86-2.18-3.09-2.29-3.09-1.52,0,.42-.73.88-1.17.74a1.44,1.44,0,0,1-.61-.51c-.25-.38-.33-.4-1.88-.35s-1.64.08-2,.5-.32.43.06.85a.87.87,0,0,1-.2,1.45,7.22,7.22,0,0,0-.94.7,1.17,1.17,0,0,1-1.21.39c-.65-.1-.86,0-1.66,1.23a3.07,3.07,0,0,1-.79.7,4.39,4.39,0,0,0-1,1.12,8.41,8.41,0,0,1-1.53,1.62c-1,.84-1.26,1.36-.71,1.56a2.84,2.84,0,0,1,1.55,1.47c.17.53.26.59.79.59s.71.13,1.28.76a2.14,2.14,0,0,0,1,.75,2,2,0,0,1,.94.61c1.07,1.13,2.32,1.39,2.94.62l.36-.45,1,.86a13.21,13.21,0,0,0,4,2.24c.67.24,1.06.73,1.74,2.2a12,12,0,0,0,.8,1.42,2.37,2.37,0,0,1,.43,1.6c0,.89,0,1,.48,1.21s.58.21,1.72-.19a7.23,7.23,0,0,1,3.09-.45,5.81,5.81,0,0,1,3,.47l1.15.48,1.51-.47a14.76,14.76,0,0,1,2.66-.54c2.17-.16,4.55.63,5.22,1.72.85,1.4-.19,3.23-2.07,3.63a4.39,4.39,0,0,1-3.12-.48c-.81-.41-.94-.43-1.43-.23a6.77,6.77,0,0,1-4.08.72,11.06,11.06,0,0,1-2.35-.58l-1-.4-1.08.49a7.45,7.45,0,0,1-1.93.57,9.8,9.8,0,0,1-4-.78c-.89-.43-.85-.43-2.13.14a6.17,6.17,0,0,1-5.68-.15l-1.08-.51-1.05.52a5.49,5.49,0,0,1-5.73,0,8.57,8.57,0,0,0-1.45-.66,2.42,2.42,0,0,0-.77.39,7.16,7.16,0,0,1-4.28,1c-2.17,0-3.71-.42-4.58-1.26a2.18,2.18,0,0,1,.15-3.25,5.44,5.44,0,0,1,2.91-.93,10.58,10.58,0,0,1,3.26.74c.43.23.54.21,1.38-.21a4.63,4.63,0,0,1,2.67-.45,5.78,5.78,0,0,1,2.87.46c1.09.45,1.13.45,1.81.19.38-.16.69-.36.69-.46a2.87,2.87,0,0,0-.95-.77c-3.05-1.89-6.43-4.28-6.43-4.54a9.42,9.42,0,0,0-1.2-1.16c-2.06-1.78-5.4-6-5.6-7.12-.15-.76.05-1.14,1.21-2.42.58-.62,1.52-1.77,2.11-2.55A7.92,7.92,0,0,1,280,71.92l2.67-1.73c2-1.32,2.54-1.81,2.49-2.48a.8.8,0,0,1,.34-.81,2.89,2.89,0,0,0,.72-1c.46-1,.94-1,1.76-.22l.61.6.69-.27a1.16,1.16,0,0,0,.87-.9,5.34,5.34,0,0,1,.61-1.25,4.11,4.11,0,0,0,.42-.7,3.35,3.35,0,0,0-.52-.54,1.72,1.72,0,0,1-.35-2.28c.28-.24.5-.28,1.07-.2a9,9,0,0,0,1.31.1c2.62-.08,2.56-.09,3.69.5a10.54,10.54,0,0,1,2.23,1.72c1.11,1.11,1.14,1.13,1.54.87s.79-.19,1.33.41c.32.35.31.37-.12,1.21a4.41,4.41,0,0,0-.45,1.07c0,.12.29.4.63.63.85.57,5.59,4.33,7.76,6.17,1.86,1.57,3.68,3.23,7.79,7.12,2.65,2.51,6.93,7.1,6.86,7.35a40.64,40.64,0,0,0,3.34,4.33c1.39,1.67,4.33,7.42,4.53,8.88.1.71-.29.55-.9-.36Zm-1.35-3.52a37.82,37.82,0,0,0-4.8-7A23.15,23.15,0,0,1,323,87.34c-.41-1.08-7-7.55-12.67-12.49-1.65-1.44-2.7-2.31-6.71-5.54-.64-.52-1.7-1.31-2.34-1.74l-1.17-.8-.39.45a1.17,1.17,0,0,0-.34.73,20.8,20.8,0,0,0,2.73,2.35c3.87,3,6.47,5.18,12.32,10.35a85.65,85.65,0,0,1,6.88,6.65,14.93,14.93,0,0,0,1.55,1.84,86.88,86.88,0,0,1,6.06,7.24,7.54,7.54,0,0,0,1.1,1.4,4.27,4.27,0,0,0-.51-1.14Zm-50.46.48c1.13-.27,2.42-1,2.42-1.28s-2.11-1.74-3.28-2.21a6.94,6.94,0,0,0-4.22-.09c-1.27.57-1.69,1.77-.89,2.56,1.05,1.06,3.81,1.53,6,1Zm16.85.06a.51.51,0,0,1,.39-.17,2.5,2.5,0,0,0,.86-.35l.58-.36-.66-.58c-.37-.32-.89-.79-1.17-1a9.36,9.36,0,0,0-1.34-.93,8,8,0,0,0-5.21-.28,2.29,2.29,0,0,0-1.05.55c-.05.27,2.68,2.15,3.88,2.68a11.65,11.65,0,0,0,3.33.63.44.44,0,0,0,.39-.14Zm16.82-.33c.4-.18.72-.4.72-.48,0-.31-2.76-2.28-3.76-2.69a7.71,7.71,0,0,0-4.8-.23c-.51.18-.94.43-1,.56a10.74,10.74,0,0,0,3,2.25c1.82.94,4.47,1.21,5.83.59ZM296,93.14c0-.33,1.89-.7,3.25-.64s1.36.06,1.52-.38.15-.51-1.14-2.85a6.87,6.87,0,0,0-.84-1.3,17,17,0,0,0-1.8-1c-.87-.44-1.78-.94-2-1.1l-.47-.31.1.73a2,2,0,0,1-.16,1.24,2.41,2.41,0,0,0-.27.94,5.72,5.72,0,0,1-.25,1.26c-.44,1.42-.27,3.09.3,3.09a2.81,2.81,0,0,1,.79.31c.57.3,1,.31,1,0Zm-3.86-1c0-.28-.68-1-1.29-1.39s-.48-.63.29-.23c.29.15.57.24.62.19a2.42,2.42,0,0,0-.45-.86,4,4,0,0,1-1-2.94l.11-.75.22.53a1.24,1.24,0,0,1,.13.69c-.23.36,1.66,2.38,2.22,2.38s1.16-2.91.92-3.72c-.14-.51-.21-.56-.9-.6a3.3,3.3,0,0,1-2.5-.8,5.37,5.37,0,0,0-1.24-.83,3.2,3.2,0,0,1-1.05-.84c-.49-.64-.86-.75-1-.31-.07.18,0,.38.34.6.64.46.84.89.62,1.3s-.63.43-1.14.08-.51-.81,0-.67.42-.35-.21-1a4.74,4.74,0,0,1-.85-1.42,2,2,0,0,0-.84-1.19c-1-.61-1.3-.25-.53.59.35.37.39.5.23.7s-.25.2-.52-.07a6.07,6.07,0,0,1-.58-3.11,2.71,2.71,0,0,1,.9-1,5.81,5.81,0,0,0,2.07-2.05,6.49,6.49,0,0,0,.5-.88,1.54,1.54,0,0,0-.59,0c-.38.06-.59,0-.59-.1a.21.21,0,0,1,.22-.19,3.38,3.38,0,0,0,1-.47,2.26,2.26,0,0,1,.95-.41c.21.07,1.21-.93,1.22-1.22a3.26,3.26,0,0,0-.74-.9l-.74-.72-.47.34a3.79,3.79,0,0,1-2.08.43c-.87,0-1.37,0-1.09,0a6.29,6.29,0,0,0,2.57-.82l.59-.41-1.39-1.39-1,.85a30.37,30.37,0,0,1-3,2,9.84,9.84,0,0,0-4,3.54,18.19,18.19,0,0,1-1.69,2.09c-1.15,1.19-1.32,1.6-.91,2.23A38.71,38.71,0,0,0,279.74,85l2.33,2.18a40.35,40.35,0,0,0,5.78,4l1,.56-.77-.74a14.34,14.34,0,0,1-1.45-1.75,14.86,14.86,0,0,0-1.38-1.71c-.74-.77-.65-.87.5-.55.47.14.83.5,1.81,1.83A11.35,11.35,0,0,0,290.62,92c.59.35,1.51.48,1.51.21ZM281.34,81.79c-.26-.25-.09-1.19.33-1.81.53-.77.74-.55.25.25-.25.42-.3.65-.18,1,.21.55-.06,1-.4.6Zm-.79-1.62c0-.82,1.22-1.8,2.22-1.78.28,0,.21.07-.26.24-.82.29-1.29.72-1.29,1.17s-.28.76-.53.76c-.08,0-.14-.17-.14-.39Zm8.73,11.73s-.07-.12-.17-.18-.17,0-.17.08a.18.18,0,0,0,.17.18C289.21,92,289.28,91.94,289.28,91.9ZM291.54,72c.17-.24.2-.39.08-.43s-.83.44-.83.67.49.13.75-.24ZM291,71a.55.55,0,0,0,.43-.59c0-.61-.59-.56-.92.08s-.32.82.49.51Zm-1.24-.55a2.86,2.86,0,0,0,.33-.67c0-.27-.46-.11-.83.29s-.36.46-.18.67.29.34.68-.29Zm-.61-1.06a.69.69,0,0,0,.09-1c-.24-.15-.44.07-.58.64s0,.55.49.36Zm3.47-.68c.27-.44.43-.55.64-.46a7.13,7.13,0,0,0,1.55.19c1.24.06,1.3,0,1.9-.48a4,4,0,0,0,.86-1c.23-.44.22-.55-.08-1.23-.18-.42-.4-.75-.49-.75-.29,0-.56.48-.53,1,.05.75,0,.83-.41,1s-.49.12-.95-.22a2.16,2.16,0,0,0-2.1-.24l-.45.17.11-.78c.12-.89-.12-2-.47-2.13s-1.44,1.33-1.44,2.31c0,.54,0,.59-.46.6-1.19,0-1.09.43.43,1.88,1.13,1.07,1.33,1.09,1.89.19Zm5.37,0a9.21,9.21,0,0,1,1.28-2.09c1.34-1.8,1.62-2.27,1.47-2.5s-.4-.15-.72.55a3.54,3.54,0,0,1-.7,1l-.38.34.12-.7c.15-.9-.13-1.46-1.35-2.66a8.09,8.09,0,0,0-3.54-2c-.44-.08-.63,0-1,.4a2.49,2.49,0,0,1-.59.5,2.12,2.12,0,0,1-.5-.42c-.48-.47-1.19-.56-1.34-.16a1.8,1.8,0,0,0,.52,1.3c.4.23,1.05.27,1.2.08,1-1.24,1.16-1.37,1.75-1.35a6.35,6.35,0,0,1,3.41,2c1.2,1.15,1.41,1.69,1,2.54a3,3,0,0,0-.28,1,3.54,3.54,0,0,1-.58,1.35c-.57.9-.62,1.43-.12,1.33.15,0,.32-.29.38-.58Zm-10,0c.31-.6.09-.79-.43-.37-.24.19-.34.41-.27.58.16.42.41.34.7-.21Zm-1.49-1.28a.92.92,0,0,0,0-.51c-.16-.15-.86.55-.74.74.21.34.6.22.71-.23Zm1.22,0c.25-.18.33-.33.22-.44s-.47-.06-.71.38,0,.42.49.06Zm8.31-2.15a2.75,2.75,0,0,1,.75-1c.4-.29.48-.43.33-.6-.3-.36-.71-.26-1.26.32-.75.79-1,1.26-.72,1.56s.65.28.9-.33Zm2.12-.26a.31.31,0,0,0-.26-.34c-.28,0-.29,0-.15.41s.41.33.41-.07Zm-2.87-1c.77-.9.86-1.31.31-1.48-.3-.09-.49,0-1,.6a2,2,0,0,0-.64,1.2c0,.74.53.61,1.33-.32Zm-1.25-.94c.49-.65.53-1,.15-1.3s-.34-.14-.84.44c-.69.82-.75,1.42-.15,1.42a1.15,1.15,0,0,0,.84-.56Z" fill="#1f2c5c"/><path d="M314.26,93.11c-1.1.26-2.35.92-2.35,1.24s2,1.69,3.18,2.14a6.75,6.75,0,0,0,4.09.09c1.23-.55,1.64-1.71.86-2.49-1-1-3.69-1.47-5.78-1Zm-16,0a.47.47,0,0,1-.37.17,2.3,2.3,0,0,0-.84.34l-.56.34.64.57,1.13,1a8.59,8.59,0,0,0,1.3.9,7.79,7.79,0,0,0,5,.28c.54-.18,1-.42,1-.54s-2.59-2.08-3.76-2.59a11,11,0,0,0-3.22-.62.46.46,0,0,0-.38.14ZM281,93.37c-.38.18-.69.38-.69.47a13.7,13.7,0,0,0,3.64,2.6,7.53,7.53,0,0,0,4.65.23c.49-.17.91-.42.93-.54a10.06,10.06,0,0,0-2.88-2.19c-1.77-.91-4.33-1.17-5.65-.57Z" fill="#1f2c5c"/><path d="M231.87,142.37a3.37,3.37,0,0,1-.69-.9A6.18,6.18,0,0,1,231,139a3.38,3.38,0,0,1,1.45-.25l1.33-.06.05,1c0,.87,0,1.08-.29,1.32a1,1,0,0,0-.34.42c0,.16.92.17,1.66,0l.53-.11-.36-.27a1.74,1.74,0,0,1-.52-1.09c-.22-1.16-.11-1.35.84-1.49s1.47,0,1.6.52a4,4,0,0,1-.42,2.53c-.51.71-.31.92.49.51s.73-.24.48-3.22a9.89,9.89,0,0,0-.31-2.12c-.08-.09-.31-.05-.54.1a10.9,10.9,0,0,1-3,.44l-2.63.19-.81-.76.11,2.23c.15,3.11.21,3.33.9,3.68a2.73,2.73,0,0,0,.91.29c.29,0,.26-.07-.22-.51Zm5.61,7.21c0-1.08-.18-1.33-.5-.73-.16.3-.35.33-2,.33a6.55,6.55,0,0,1-1.81-.13,13.8,13.8,0,0,1,2.14-1.42,12.93,12.93,0,0,0,2.23-1.54,6.41,6.41,0,0,0,0-2.38c-.07,0-.22.15-.34.33s-.38.34-3,.34-2.83,0-3.15-.37c-.18-.19-.38-.31-.44-.24a3.16,3.16,0,0,0-.18,1.1c-.07,1.06.16,1.33.58.67.19-.31.38-.34,2.59-.34a11.64,11.64,0,0,1,2.48.14c0,.07-.16.32-.45.54a24.3,24.3,0,0,1-2.85,1.81,9.81,9.81,0,0,0-1.25.74c-1.15.75-1.46,1.26-.89,1.48a29.36,29.36,0,0,0,3.08.1c2.77,0,2.82,0,3.17.4.2.22.42.36.49.32a3,3,0,0,0,.13-1.15Zm-4.74,7.53a7.47,7.47,0,0,0,1.21-2c.84-1.76,1.27-2.34,1.76-2.34,1.1,0,1,2.21-.17,3.5-.33.36-.55.7-.49.76a1.82,1.82,0,0,0,.89-.13c.7-.22.79-.3.81-.74a5.65,5.65,0,0,1,.21-1.15c.43-1.52.08-3.09-.76-3.41a2.43,2.43,0,0,0-1.94.24,9.49,9.49,0,0,0-1.66,3c-.37.9-.73,1.25-1.27,1.25-.69,0-1-.4-1-1.34a3.24,3.24,0,0,1,1.06-2.53c.72-.72.77-1,.14-.83-1.28.32-1.28.32-1.3.82a5.68,5.68,0,0,1-.29,1.27,4,4,0,0,0,0,2.77,1.88,1.88,0,0,0,2.81.81Zm2.36,7.54c.29-.08.38-.29.53-1.2.09-.6.3-1.79.45-2.64a6.21,6.21,0,0,0,.17-1.64c-.05-.06-.23,0-.4.17-.35.31-1.25.28-4-.16-1.91-.3-2-.34-2.12-.82-.24-1-.42-.44-1.06,3.16-.34,1.9-.29,2.08.69,2.58s1,.3.42-.31a2.39,2.39,0,0,1-.54-1,3.6,3.6,0,0,1,.4-2.35c.26-.31.35-.31,1.44-.13l1.16.2,0,.66c0,1.06-.21,1.57-.66,1.78s-.28.4.89.55c.89.12,1.07,0,.58-.35-.3-.22-.37-1.1-.14-2,.11-.43.14-.44,1-.36,1.32.14,1.58.33,1.58,1.17a3.26,3.26,0,0,1-1.19,2.23c-.61.44-.15.69.8.43Zm-3.65,8.25a2,2,0,0,1-.27-1.24v-.94H232a5.83,5.83,0,0,1,1.18.11c.35.09.38.17.31.91a2.26,2.26,0,0,1-.38,1.13,1.22,1.22,0,0,1-1.63,0Zm1.85,1.23a3.43,3.43,0,0,0,.66-1.37,22.08,22.08,0,0,0,.64-4c-.06-.06-.28.05-.49.25-.48.46-.84.45-3.59,0-1.83-.33-2.28-.46-2.53-.77-.44-.54-.62-.24-.74,1.19l-.09,1.22.36-.32c.33-.29.46-.3,1.61-.14a5,5,0,0,1,1.38.32,3.44,3.44,0,0,1,0,1.34c-.13,1-.12,1.29.15,1.83a1.56,1.56,0,0,0,2.67.47Zm-.43,7.05a35,35,0,0,0,.57-5.42c-.07-.18-.19-.14-.51.18a.89.89,0,0,1-.79.34c-.21-.05-1.35-.17-2.53-.27-2.56-.21-2.69-.24-2.82-.66-.06-.18-.16-.33-.23-.33a44.3,44.3,0,0,0-.69,5.33c0,.3,1,1,1.46,1,.22,0,.2-.06-.09-.37a3.49,3.49,0,0,1-.59-2.78l.15-.91,1.32.05a3.06,3.06,0,0,1,1.44.25,1.86,1.86,0,0,1,0,.94,1.63,1.63,0,0,1-.6,1.19c-.57.5-.53.53.9.73.81.11,1,0,.53-.43a2.93,2.93,0,0,1,0-2.27,3,3,0,0,1,2.13.3,2.85,2.85,0,0,1-.6,2.61,1.8,1.8,0,0,0-.41.74c0,.21.1.23.62.09a3.16,3.16,0,0,0,.74-.28Zm-.09,7.55c.14-.15.15-.69,0-2a20.51,20.51,0,0,1-.06-2.73l.09-.91-.81-.29a8.7,8.7,0,0,0-.91-.29c-.24,0-.07.41.39.94a1.64,1.64,0,0,1,.5,1.13c0,.7,0,.7-3,.81-2.26.07-2.3.07-2.7-.33a2.22,2.22,0,0,0-.47-.4,6.66,6.66,0,0,0-.08,1.41,4.64,4.64,0,0,0,.11,1.41,1.65,1.65,0,0,0,.49-.42l.39-.42,5.39.09,0,.63a2.32,2.32,0,0,1-.45,1.23c-.23.33-.39.66-.34.74s1.21-.27,1.5-.57Zm-5.2,4.61c.2-.05.85-.16,1.45-.26s1.63-.29,2.31-.43c1.18-.24,1.25-.23,1.69.09.59.44.64.43.64-.15,0-1.21-.59-2.82-.8-2.18-.14.43-.56.66-1.4.76-.48.07-1.13.18-1.45.25s-1.12.23-1.78.34c-1.18.21-1.21.21-1.64-.18l-.43-.4.12.91a15.62,15.62,0,0,0,.28,1.57l.17.66.24-.45a1.08,1.08,0,0,1,.6-.53Zm7.15,7,.65-.55-.63-2.22c-.35-1.22-.66-2.4-.68-2.61-.07-.55-.2-.64-1.17-.77s-1.28.13-.39.58,1.36,1.36,1,1.72a27.53,27.53,0,0,1-5,1.59.82.82,0,0,1-.58-.25c-.58-.69-.61.11-.06,1.79.29.9.45,1,.69.3.15-.43.34-.54,1.47-.89a15.08,15.08,0,0,1,4.1-.89c.35.13.32,1-.07,1.84-.5,1.07-.25,1.19.73.36Z" fill="#e6a300"/></svg>