<svg xmlns="http://www.w3.org/2000/svg" width="600" height="315.79" viewBox="0 0 600 315.79"><path d="M0 315.79h600V0H0z" fill="#006"/><path d="M307.85 252.41a6.3 6.3 0 01.54 1.37 5.82 5.82 0 00.82 1.42 9.06 9.06 0 002.14 2.14 6.67 6.67 0 001.29.75 17.49 17.49 0 013.87 2.72c.14-2.12-1.37-3.79-1.64-4.51a27.35 27.35 0 01-4.92-3.89 8.77 8.77 0 01-1.23-3.24 11.54 11.54 0 00-1.21-3.36 19.16 19.16 0 014.59-.7c4.14.1 3.69 3.6 6.54 7.17.9 1.12 1.12.79 1.16 1.4a9.77 9.77 0 003 1.14c1 .22 2.75.25 3.34.82h.8l-1.67-1.21a13.39 13.39 0 01-1.72-1.36c-3.67-3.33-4.63-7.81-9.74-8.4.71-.46 4.59-.83 5.35-.9 1.89-.17 2.74 1.4 3.38 2.78 1.17 2.48.39 4.37.73 5.1a10.27 10.27 0 003.37 2.7l-1.15-7.5c-.39-1.13-2.34-2.59-3.29-3.22-1.28-.84-.88-.26-1.13-.87 4.48.56 2.45-.62 4.86 2.12 2 2.27 5.09 2.35 8.11 2.62 4.05.35 5.92 3.39 9.74 4.6l-3.06-3.7c-3.22-3.23-5.13-1.52-8.94-4.58-1.73-1.39-2.68-1.13-4.9-1.78 4.13-.49 3.46-.9 6.37 1 6.34 4.1 10.44 2.28 17.06 1.43a32.84 32.84 0 003.73-.34l-.36-.29c-1.14-.53-4.11-.67-5.26-.73-4.95-.29-6.7-2.17-10.49-2.86-1.64-.3-4.48-.38-5.82.26l4.81 1.43a17.17 17.17 0 002.14.93c.69.25 2.05.34 2.45.57l-5.72-1.4a9.05 9.05 0 00-2.89-.87c-1.92-.26-1.42 0-2.16-.59l-.6-.37 4.93-.87c1.68-.31 2.84-1.08 4.43-1.41 4.31-.89 5.67.3 9.19 1.64a15.32 15.32 0 0014-1.21 7 7 0 013.2-1.07l.57-.1c.55-.17.26-.07.54-.27l-7.19-.06c-.74 0-2.25.55-3.1.67-3.25.49-6.29-1.08-9.28-2-5.66-1.74-10.34 2.22-11.95 2.43 3.41-5.24 2.45-4.14 4.67-9.63a22.77 22.77 0 001.31-3.42c-2.41 2.26-3 3.67-4.54 6.16-.91 1.42-.46.33-1.07 2.36a11.25 11.25 0 01-2.31 4.71 9.2 9.2 0 01-4.92 2l.24-.93-1.86.79a2.29 2.29 0 01-1.55 1 15.28 15.28 0 01-4.37.78c1.09-.46 8.26-3.37 8.94-3.75a12.51 12.51 0 002.39-1.88 15.56 15.56 0 003.58-5l3.24-5a32.88 32.88 0 00-6.23 4.25c-1.57 1.43-.93 1.37-2.72 2.58a30.59 30.59 0 01-3.29 1.85c-7.25 3.72-6.38 5.77-8.54 7.2a8.79 8.79 0 01-4.15 1.13l.53-.65c.24-.22.34-.31.54-.47a17.12 17.12 0 013.46-2.54c6.56-4.23 5.51-12.39 6.61-15.47a4.14 4.14 0 00.39-1.5l-1.74 3.91c-1.46 3.37-5.21 6.91-7 9.57-.8 1.17-1.41 2.25-2.12 3.53-1.43 2.6-2.79 3.86-6.45 4.52a12.21 12.21 0 00-4.22 1.24l2.23.46 1.39 6.65zM273.49 240.38a30.26 30.26 0 003.12 2.06l1 .82c-3.37 1.7-5.49 1.7-8.33 6.66a15 15 0 01-3.63 4.76 18.76 18.76 0 00-2.32 2.48l-.08 1.29c2-.4 8.29-3.73 9.87-5.53a30.94 30.94 0 003-4.73l3.69-4-5.12 2.38a4.9 4.9 0 011.75-1.65c1.07-.62 3.51-1.76 4.69-1 .39.25-.3.19.81.31l3.25.45a11.18 11.18 0 01-1.77 1.44 11.46 11.46 0 00-1.84 1.58 18 18 0 00-1.52 1.91c-.92 1.43-.09.53-1.43 2.07l5.15-6.47c-1.44.2-5.11 1.8-6.28 3.54-1.44 2.12-.42 6.5-5.37 9.86a2.52 2.52 0 00-.95.82c.38-.07 4.61-1.89 5.07-2.17a10.86 10.86 0 002.05-1.54 14.38 14.38 0 011.9-1.92c.09-.45 1.46-2.87 1.85-3.75 1.29-2.9 2.38-5.31 6.41-4.93 1.91.18 1.79.55 4.14-.94l-3.64-.89c-1.82-.93-3-6.65-4.48-8.53a23.28 23.28 0 01-1.91-2.54c-1.77-2.9-2.48-7.45-4.63-8.52l1 6.15a11.1 11.1 0 001.22 5.8 9.81 9.81 0 003.2 4c1.39 1 3 2 3.33 3.87-4 .12-1.71.19-4.6-.38-1.92-.39-2.31.11-4.09-.87a8.6 8.6 0 01-4.22-5.81l1.76 2.79c.42.54 1.48 2.05 2.21 2.1l-2-4.52c-1.24-3.4-.11-8.47-3.18-13.59-.4-.67-.82-1.5-1.55-1.71l1 4.65c.34 3.34-1 5.37 0 10.26a9.29 9.29 0 001.29 3.5 1 1 0 01.15.49z" fill="#396f4a" fill-rule="evenodd"/><path d="M214.82 193l-1 .73-1-.42c-1.63.72-.37.94-3.12.44-.65 1.89-.25 1.4-1.58 2.13l.22 1.19c-.4.33-.44.16-.76.58a9.85 9.85 0 00-1.39 3c-.8 1.64-.24 2 .6 4.45.76-.14.58-.12 1.11-.54l-.25-.68s.08-.13.09-.11.06-.07.07-.1l.56-.89c.39.14.24 0 .49.37a8.68 8.68 0 013.68-4.7l7.3-.95c0-.05.08-.18.09-.15.14.31.06 0 .28-.59.89.48-.14.64 1.93.34-.74 2.17.47 1.72 1.81 1.84l.28.05a.37.37 0 01.11 0 .27.27 0 01.11.05 23.12 23.12 0 011.55 2.55h.51c.75-.75.48-.75.57-1.88A21.59 21.59 0 01228 197c.21-1.16-.49-.74 2-1.93l.14-.75c1.61-.43.69-.41 1.63-.74 1.11-.38.36.25 1.74-.86 0 0 .1 0 .11.08l.38.29c.67.31.66-.51 2 .73l.27.25c.82.82.54.7 2.26 0 0-1.39-1.21-1.42-2.18-2.3s-3-.85-3.73-1l-1.56-.55a5.81 5.81 0 01-1.11 1.44l-.08.09-2.39 2.53c-.33-.63-.23-1.15-.83-1.52s-1.24-.25-1.51-1.08c-.21-.66.49-2.8 1.12-3.71 2.09-3 2.85-2.38 6.7-2.4l.43-.83a7.26 7.26 0 00-2.92-.41c-.86.23.25.43-2.64.59.4-.69.28-.33.86-.71.43-.28.06-.31 1-.52a9.51 9.51 0 014.81.36 2 2 0 00-.84-1.37 4.38 4.38 0 00-3.23-1.45c-2.83 0-1.72.32-2.5.69-1 .48.44-.6-1.11.61l-.1.07-.63.24c-.39.19-.42.37-.54.77-.3 1.1 0 .29-.43 1-.26.41-.24.46-.52.85-.83 1.16.26.13-1.09 1.69l.52 1.2-1 1c-1.21.66-1.53-.48-2.13 1.48-.07.23-.05.2-.16.5-.39 1.09-1.67 1.39-2.18 2-.3.59.29 1.25.64 1.58l.75 1.46c-.69-.13-.15 0-.85-.67-1-1-.57-.9-1.15-1.59-.72-.88-2-.82-3.2-1.1zM213 167.9c-1.27.36 0 .28-2.13.67-.16.7.14-.22-.06.26a15.25 15.25 0 01-1.43 2.13c-.46-.16-2.32-1.65-4.62-1.54l-1.92.06c-.8 1.05-1.82.67-2.68 2.23s-1.16-.73-1 3.77h1c1-1.09-.21-.17 1.27-.91.68-.34-.29-.36 1.12-.29.08-.89-.07-.53.33-.87l.7-.46c0 1.71-.06 1.21-1.82 2.48 1 .36 2.41-1.35 4.19-1.14l4.42 1.23c0 1.37-.18 2 .31 2.27l1.23.49c.83.34.87.17 1.68-.07a1.25 1.25 0 01.89-.44c1.44 0 1.78.85 2.17.9l1.45-.07a2.45 2.45 0 010-.54c.12-.51.14-.3.57-.66 1-.83 2.15-1.31 2.55-1.89.91-1.32-.07.18 1.3-1.26l.81-.64c-.38-.81-1-.92-2-.93-3.19-.23-2-1.13-3.85 1.28l-1.54-1.4-.86.51 1.2-1.23 1.06 1.05.65-.63a9.22 9.22 0 00-1.07-2.63c.59-.22.73.13 1 .77l.54 1.53a4.63 4.63 0 012.63.07l2.51.43c.61-.91-.17-2.29-.82-3l-.19-.18-.08-.09c-.74-1 .63-.68-1.69-.81-1.16-.07-.33-.58-1.41-.49-4.74.39-3.47-.6-6.07-2a10.35 10.35 0 00-2.56-.51c-.57-.16-.27-.17-.91-.44-.61.76-1.18 0-2 1.35l-1 2.34c.15.18.25.26.38.43l.44.66c1.56-.1 1-.38 3.17-1.35l.8-.55.09-.09c.29-.26-.05-.45.72-.34.53.09.39.2.54.52z" fill="#edb200" fill-rule="evenodd"/><path d="M359.36 236.49a8.49 8.49 0 01-3.4-3.23c-1.89-2.76-2.63-2.2-3.8-2.86a3.54 3.54 0 001.48-.72c1.66-1.15 1.22-.22 3.33-.39a2.77 2.77 0 011.89.22c1.37.78 2.14 2.52 3.31 3.36l1.52.8c-.4-1.11-.8 0-2.46-3.95a3.93 3.93 0 00-3.61-2.59c-1.2 0-3.6.26-4.29.86L352 229.1a6.09 6.09 0 01-1.36.88c.6-2.75 1.61-8.26 2.35-10.49.66-2 2.88-8.21 2.68-10.27l-1.59 2.95c-1.7 3-4 5-5.06 8.64-1.31 4.75 2.31 7.14-1.5 10.83a8.52 8.52 0 01-2.82 1.72l1.49-5.12a24.49 24.49 0 001.74-4.76c.55-2.23.25-3.71.31-5.9 0-.87.25-5.48.1-5.78-1.49 2.39-2.3 3.25-2.9 6.12-.12.54-.39 8.11-.35 8.7l1.85-5.07-1.46 6.86c-.48 1.31-2.31 4.8-2.07 6.1l7.86-.53c1.36 2.5 1.07 2.88 2.89 3.12 1.48.19 4.2.16 5.15-.61z" fill="#396d4c" fill-rule="evenodd"/><path d="M246.83 227c-4.42-.79-5 .82-7 2.29a5.7 5.7 0 01-3.51 1.32L233 232c4 .54 4.22.53 7.26-.25s5.41-5.59 9.77-1.15c-.7.21-.35.13-.86.46a9.7 9.7 0 00-2.68 1.78l-2.29 3.76c1.67.22.86.54 2.93-1.58a9.72 9.72 0 012.87-1.92 5.36 5.36 0 014.06-.27c2.09.84 2.25-.48 4 .8-.85.54-2.2-.61-5.44.69-1.8.72-2.5 1.71-4.24 2.43l-10.66-1.39c.28.41.54.44 1 .69l2.22 1.54a25.77 25.77 0 003.3 2.18 10.22 10.22 0 003.39.32c2.6-.23 3.33-1.3 5-2.28.82-.47 1.56-.93 2.39-1.38a13.59 13.59 0 011.3-.6c.33-.12.31-.08.64-.18l.75-.36a10.68 10.68 0 00-3.42-.47c1.87-1.32 5.39.58 7.14 1.34l-.16-.42a4.88 4.88 0 00-2.14-1.67c-2.49-1.11-1.84-6.86-1.91-8.83-.11-2.64-.85-3.58-1.65-5.74-1-2.68-.72-1.28-1.18-2.42a14 14 0 01-.45-1.43l-.44-1.16c0-.07-.06-.07-.09-.1l.09 2.4c.22.75.15-.08.23.92a2.86 2.86 0 00.17 1 31.12 31.12 0 01.92 3.91 20.42 20.42 0 01-.23 4.28 29.64 29.64 0 00.21 4.4l-4-.89-1.8-1.97c-1.43-2.16-.6-1-2.19-1.43z" fill="#396d4b" fill-rule="evenodd"/><path d="M210.6 164.35c.26-1.44-.37-1-1.46-1.72l1.78.56c1 0-.62-.42 1.7.11 0 0 .53-.05-.17-1l-1-1a8.64 8.64 0 00-1.79-1.25v-1a23.75 23.75 0 013 2.13l.11.41a14.06 14.06 0 00.88 1.64l1.33.22c.33-.41.2-.43.41-.77.38-.57.21-.19.83-.52.88-.48-.19-.2 1.65-1.07a25.73 25.73 0 00.24-3.38c.25-2.27.23-2.18-.73-2.8.13-.71.47-.92-.77-2.31l-1.76-1.55c-.27.54 0 .2-.58.8l-.1-1.26c-.7-.4-.89-.27-1.17-.94-1.39.37-.75 1.48-1.78 2.54-1.7 1.75-.51 1.83-.67 2.72 0 .23-.47.4-.71.52l.07 1.21c-.22.09-.22 0-.64-.09l-.11 1.83c-1.41-.1-2.05-.78-3.08-1.57a1.64 1.64 0 00-1.37.76 10.1 10.1 0 00-1.18-.12c-.72-.15-.24-.33-.91-.49l-1.23 1.3c-2.91 0-.62.07-2.47.63-1.58.47-1.3.82-1.95 3.43.42.13.83-.14 1.33-.45 1.31-.82.31.11 3-1.14l1.55-.69c.5.25 1 .26 2.66 1l.93.42c-.95.58-2.52-.73-4.26-.4-.51.1.22.13-1.2.51h-.1l-2.17 1.12c1.34-.24.61-.45 3.11-.62a16.68 16.68 0 013.47.12 7.78 7.78 0 012.76.87 7.33 7.33 0 011.19.7c.66.51.43.7 1.48.58zM388.06 177.65a5.09 5.09 0 001.17-.36 1.08 1.08 0 00.54-.49l.06-.11.18-.34 1.76-1.06v-1c1.25-.12.5 0 1.1-.77l.6-1.43c.2-.22 4.57-2.88 7.17.14l1.54 1.89c1.54-.76.71-3.6.36-5-.39-1.54-2.16-1.8-3.46-2.84l-.5.43-.68-.49c-.64.41.19-.09-.42.44s-.4 0-.86.53.37-.51-.13.21-.67.35-1.57.81-.1.28-1.07.76l.45 1c1.65.11 1.49-1.06 2.29 0-.14.09 0 0-.36.2-1.62.71-1.29-.11-3.15 1.69.15-2.15.34-1.51-.62-3-.42-.65-.29-.47-1.07-1 0 0-.09 0-.1.06l-.58.27c-.67-.32-.55-.59-1.15-.61a2.31 2.31 0 00-2.5 2.95c-.43.49-.25.51-.7 0a14.58 14.58 0 01-.89-2.82 5.62 5.62 0 01-1.48-1.18c-1.16-1.31-.36-1.5-3.15-2-1.51-.27-.58.17-2.11-.62l-.69.57-3.18-.82c-.09.16-.21.43-.29.55-.56.83-.57 0-.12 2.31 1.11.08.66.13 1.43-.33s.49-.06 1.31-.05c1.06 0 .06-.3 1.43-.06l1.48-.12c.9 1.73-.13-.78 1.42 1.7h1c0 1.46-.21 1.1 1.47 1.61 0 1.54-.08.71.39 1.66l.06.12.06.11a7.75 7.75 0 00.49 1.2 3.64 3.64 0 01.31.56l.39 1.33 1.61-.23s-.08-.11-.1-.08l-.44-.42c-.68-.88-.1-1.76.55-2.37-.21 1.66.31 1.83.81 2.71.92 1.67.17.65 1.74 1.88l-2.06-1-1.84.84.59 1.42h1.28l.28.57z" fill="#edb200" fill-rule="evenodd"/><path d="M263.69 236.78c-3-.4-6.26 1.72-8.16 3.47-5.19 4.8-6.19 3.81-13 6.72.2.16-.29.17.59.3l6.63-.29c5.46-.57 6.22-2.43 10.3-5.44.8-.59 1.42-1 2.34-1.59a11.73 11.73 0 012.9-1.16 5 5 0 00-3 .17c-1.71.52-1.75 1-2.71.69a6.87 6.87 0 017.09-1l1.86 1-.76-6.54c.09.12.18 0 .18.79 0 1.62-.18 2.93 1.07 4.76.37.54.77.81 1.17 1.31l1.65-.11-2.17-1.86a10.33 10.33 0 01-.09-3.8c.46-3.46.83-3.61-.53-6.69-1.56-3.54-3.06-4.44-5.08-7.24a7 7 0 01-.78-1.28c-.1-.23-.16-.47-.26-.74l-.22-.49c0-.06 0-.07-.07-.11l1.51 4.66a15.81 15.81 0 012.19 4.15 18.83 18.83 0 01.66 5.92 14.8 14.8 0 00.11 3.06 14.83 14.83 0 01.46 2.55 27.44 27.44 0 00-3.87-1.29z" fill="#396f4a" fill-rule="evenodd"/><path d="M224.55 206.55a3.28 3.28 0 01-2.49.58l4.43.85c-.26.29-.09.25-1.1.44-1.57.3-1.76.84-2.67 1.58l-.49.42c1.44-.07 1.77-1 3.2-1.3l4 .24 4.68 6.57c-.93-.09-4-.66-4.49-.43l.18.1c1 .16 2.6.37 3.52.62a3.31 3.31 0 012.37 1.52c-.55.51-.15.6-.82.74.31.29.08.25.77.39a2.52 2.52 0 00.87 0c.73 0 .93.21.94 1 .49-.11 0-.14.64.17l.91.51a12.25 12.25 0 01-1.46.13 11.66 11.66 0 01-1.47.34l-.16.37h.7c.72-.1 0-.05.58-.28 1.47-.58 2.47.64 3.38 1.38a1.73 1.73 0 01.55.67c-2.75.23-3 1.12-4.08 1.38l-4.39.75s.07 0 .08.08.84.42 1 .51c2 1 3 1.91 6.41-.25l2.23-1.4c2.49 1.56 1 1.74 3.27 2.24.14 0 .61.17.7.18 1.53.16.53.22.87-.33-2.41-5.87 3.71-6.21 2.39-13.08-.86 1.27-.73 3.74-2.71 6-2.77 3.12-1.94 3.61-1.82 6-2.07-1.61-3.68-2.1-2.36-5.42.39-1 2.85-4.12-.36-5.73L242 218a7.63 7.63 0 00-1 3.68l-1.33-3.22a5.11 5.11 0 00-.32-4.24l-.7 5.24c-.92-.72-1.37-.8-1.31-2.3l-.46-.11-.34.47-1.08-1.24a17.06 17.06 0 01-1.61-2c-.88-1.65-.35-3.18 0-4.79a4.41 4.41 0 00-.73.57c-.3.28-.08.16-.31.3s0 .24-.23 0c-.39.77.71.33.21 2.35a7.49 7.49 0 01-2.22-2.57c-1.06-1.54-.46-2.34-.59-4.21l-.6 1.34a.86.86 0 01-.21.34l-1.12-1.45c-1.16-1.62.24-4 .24-6.65l-.29.25v-.25c-.32.35-.87 4.11-1 4.91a9.19 9.19 0 01-1.62-2.67 2.21 2.21 0 001-.13H226a23.12 23.12 0 00-1.55-2.55c.07 1.61.4 2.28-1 2.2l-4.64-.53a1.67 1.67 0 001.72 1.19c.62.21.34 1 2.1.61a1.53 1.53 0 011.32.07l.24.1h.13c1.21.41.65.55 1.93 2.22l1.68 2.54a23.26 23.26 0 01-3.39-1zM281.42 255.34c2 0 3.51-.92 5-1.49a23.94 23.94 0 012.51-1.73l2.6-1.51 5.31-2.91a34.5 34.5 0 015.82-2.54c4.73-1.33 3-2.62 7.24-5.27.87-.56 1.66-1 2.6-1.51a11.87 11.87 0 002.39-1.72c4.17-3.69 1.79-5.09 6.73-11.93.27-.38.53-.76.78-1.07l-4.07 4.63a13.3 13.3 0 01-4.06 4.67c-2.68 1.8-5.7 3-7.68 5.5a21.13 21.13 0 00-1.45 2.82c-1.32 2.45-2.38 2.58-5.09 3.82a82.37 82.37 0 00-11.47 5.9c-1.58 1-4.15 2.37-6.45 2.27l-.71 2z" fill="#396d4b" fill-rule="evenodd"/><path d="M214.87 188.45l1.24-.36c.95-.67 1.37-.82.62-2.67a7.17 7.17 0 00-1.95-2.35 6.74 6.74 0 00-2.84-1.19c-.72-.08-1.13-.75-3-1.15-.5-.1-1.48-.45-1.57-.45a11.34 11.34 0 01-1.64.28c-.76-.05-.78-.22-1.27.21-1.83 1.59-2.42 0-3.61 1.36l-1.49 1.76c-1.2 1.19-1.21.28-1.34 2.17s1.08.52 2.58 0l.42-1.39c.26 0 0-.16.75.19l-.77 1.62c1.9-.41 2.19-1.67 7.42-.42 3.46.82 5 2.12 6.46 2.42zM214.07 178.49a3.33 3.33 0 000 1.57 1 1 0 00.35.49l.21.13c.23.19.11 0 .26.24.34.52-.22.27.26 1a6.14 6.14 0 00.89.82 4.14 4.14 0 012.18.14c1.07.68.5 1.15.51 2.14s-.07 2.44.92 2.6c.42-.77.63-.64.77-1.67-.29-1.22-.27-2 .82-2.48.18.31.26-.28.09.49l-.52 1.7c1-.56 1.52-1.7 2.49-3.14a16.67 16.67 0 015.41-5.54c1.89-1 2-.44 2.47-1.66.16-.39 0-.34.64-.72-.87-1.56.25-1.43-2.69-1.73-.83-.08-.16-.16-1.13.15-1.77.55-1.09-.37-2.15.67l-1-.43c-.43.71-.06.57-.25 1.12l-.27.41c-.53.75-.36.4-.67.72a.34.34 0 00-.08.09l-.14.2c-.56.62-.2 0-1.06.68l.56 1.58c-.38.25-.35.13-.7.32-1.21.64-.63 0-1.66 1.78-.72 0-.69-.14-.89.28-.11.22.15.25-.66.71l.39 1.39-1.14-.13.28-2.83c-.29-.24.38-.15-.38-.2-.37 0-.42.31-1.26.11l-.25-.08c-1.51-.44-.53-.36-1.25-.82-.32-.21-.78 0-1.31-.07z" fill="#edb200" fill-rule="evenodd"/><path d="M370.13 206.05a9.78 9.78 0 01-.51 2.73c.36.25.21 2.58.12 3.13-.21 1.26-1.94 3.68-2.74 4.58-1.3 1.47-1.09 1.64-1.81 1.72l.54-2 .72-.16-.71-.07-.12-1.16-.12.33c-.26 1 0-.44-.12.77a6.2 6.2 0 01-.2 1 16.24 16.24 0 01-.62 1.58 2.66 2.66 0 01-.91 1.32c-.61.53-.51.62-1 1.25a6.61 6.61 0 01-2.41 2.21c-1.43.43-.5-.06-2.11 1.3a1.52 1.52 0 01-.77.45l-.76-4.59c-.44-.7-1.6-3-2.3-3.46l.34 4.73c.8 4.15-.23 4.37.39 5.33.49-.37.43-.23.63-.8 1-2.69.71-2.44-.28-4.92A4.06 4.06 0 01355 220c0-.52-.09 0 .17-.38.91 2 1.89 3.45 1.55 5.46a7.36 7.36 0 01-.29.93c-.17.61-.32.63.21.79.55-.17 1-.25 1.54-.46 3.43-1.29 5.32 1.28 9.32-2 1.29-1-.23-.43 2.62-1.9-1.54-.2-2.85.54-4.14.87l-4.78.3c.21-.33 0-.09.26-.34l1.14-.93a15.78 15.78 0 011.4-1.14c1.13-.81 2-.84 3.53-1.62l-2 .23c.31-.76 4.71-5.1 5.73-5.78.84-.56 2.39-.65 2.87-1.07-.66-.08-.33 0-.47-.27l-2.94 1.07a7.42 7.42 0 011.33-2 2.17 2.17 0 00.22.15l.26.22a1.71 1.71 0 01.65-1.44c.72-.74.37-.21 1.08-.67-.9.17-.57 0-1.18-.35l-2.53 2.57c.22-3.12.33-1.43.91-2.94.3-.77-.13-1.19 0-1.92 0-.2.16-.56.19-.82.09-.62 0-.64-.07-.75l-1 1.15-.38-.87z" fill="#396d4b" fill-rule="evenodd"/><path d="M384 191.21l-.67 1.32c.91-.05.59-.52 1.45-.7.5-.11-.26.14.31-.05l1.1-.76c1.14.65 1 .35 1.54-.35l.68.42.53-.52 1.17.32c.32 1 .45.43 1.05.79a2.66 2.66 0 011.13 1.2c.5 1.31.25.07.11 3.28l.75.3-.27 1.79-1.6.84.57 1.78c1.09 0 .39.6 1.51.84l1.9-.24a7.18 7.18 0 01.81-1.75c.67-1.18.28-.53 0-1.63-.16-.7.54-.58-.62-2.78l.45-.7-.56-2.24c-.11-.66 0 .14 0-.48 0-.46-.09-.31-.14-.9a2.88 2.88 0 00-.65-1.66c-2.72-2-1-.27-3.39-1.41-.63-.3-.72-.16-1.91-.31-1.69 1.39-1.31-.14-2.4 1.09l-1 1.06-1-.42c-.09.21-.23.69-.35.89-.35.61-.29.12-.52 1zM389.2 159.74c.71.61.69.52 1.77.22a5.51 5.51 0 011.29-1.55 6.56 6.56 0 001.28-1.75l-.31-.89c.43-.06 1.43.22 1.19-1.87l-.49-2.61-1.56-.3c.93-1.81-1.32-.66-2.05-2.07-.7.14-1.42.41-1.49 1.32-.05.55 0 .91-1.14 1.55-1 .53-.8 0-1.52 2.07-1 3 2.28 4.6 3 5.88z" fill="#edb200" fill-rule="evenodd"/><path d="M295.15 244.28a4.81 4.81 0 00-2.95.45 11 11 0 00-2.21 1.39l-2.37 4.65a30 30 0 002.75-1.69c.52-.5.52-2.46 1.17-3.29s2.56-.39 3.76-.29l3.37-.64c-1.46-.64-2.07-.16-2.75-4.77-1.06-7.21-1.95-6.81-6.93-11.9a12.3 12.3 0 00-1.95-1.93c.39 3.36 2.69 6.62 4.24 8.87 1.66 2.4 2 4.34 2.88 6.88.28.8.76 1.43 1 2.27z" fill="#396d4b" fill-rule="evenodd"/><path d="M377.46 220.65c-.14-.43.25 0-.23-.45a9.79 9.79 0 00-1.66-.72c-1.63-.65-.07-.3-2.25-.87l.68-1 1.2 1 1.25-.13c.88.79-.43.83 2.13.84l.08 1c.52.11.13-.05.85.28l-.2 1 1.38.52a5 5 0 01-1.33 4.05l-.31-1c-.14.94.33 2.26 1.26 2 .57-.19.3-.58.7-1 .75-.76.36.63 1.31-.94.21-.34.16-.08.33-.47a12.1 12.1 0 00.36-1.44c.18-1 .15-.49-.15-1.27-.16-.42-.28-.88-.42-1.29-.39-1.14.12-.92-1.23-2.2-.48-.44-.5-.15-.92-.79-1.06-1.62-.87-.47-2-1l-3.75-1.55c-.49.14-.08.13-.79.27a6.61 6.61 0 01-.83.08 12.81 12.81 0 00-3 .73c-1.51.63-.4 0-1.92 1.75v.1a.28.28 0 00.05.11l.17.76c.73-.62.5-.55 1-1.16.77 0 .46.13.82.21.91.2-.54-.4 2.39.15-.56.83-.12.33-.82.31a6 6 0 00-2.89 1c1.94-.22 6-.27 7.77.66.59.3.3.33.93.4zM383.31 160.58c.42.64.6.3 1.32 1.23l1.11 1.5a4.87 4.87 0 01-1.16 1.24c-.07 1.19.67 1.77 1 2.76h.22a5.16 5.16 0 002.58-.78l.05-1.3.3-1.81c-.16-.43.26-1 .11-1.91a4.17 4.17 0 00-1-1.81c-.33-.46-1-.91-1.32-1.42s-.08-.54-.55-.8c-1-.54.06.55-1.72-.86-.89-.71-1.13-.29-2-.74a5.87 5.87 0 00-1.8-.4 10.15 10.15 0 00-3.18.93c-.17.31-.23.65-.67.86-.71.33-.17-.21-1.18.42l.66 1.63.51-.69c.81.14.41.35 1.23.07a6.65 6.65 0 012.4-.36c.57.08.28.34 1-.08.32.24.24.18.52.62l.68-.42c1.45 1.28.75 1 2.9 1.26.82 2.06.67 1.75 2.66 3.13l-1.11.72c-.38-.59.05-.33-.49-.84-.3-.28-.55-.27-.81-.55s-.11-.1-.26-.46c-.31-.76.07-.07-.41-.79l-.25-.5-1.36.11zM365.62 214.84l.12 1.16.71.07c.95-.47.47-.62 1.05-1.45.84-1.22.86-3.11 1.4-3.92s.36-1.12.72-1.93a9.64 9.64 0 00.51-2.72c-.59-1.62-.19-3.8-2.68-6.69a1.76 1.76 0 00-1.46-.72 10.45 10.45 0 01-2.08-.39l-3.59.09a1.42 1.42 0 00-.15.78l2.25.68.85-.42c.79.92.38.59 1.48 1.24v1.37l-.84.56c1.36 1.22.28 1 1.59 1.88-.36-1.73-1.17-1.06.51-2.77-.05 1-.37.94.42 1.76.34.36.36.24.45.92a7.09 7.09 0 00.12 1.21c.29.94.66.6.46 2.2l-.69 2.12a5.65 5.65 0 01.22 2 2.87 2.87 0 01-.76 1.76l.17-2.5c-1.1 3.17-.46 2.42-.81 3.67z" fill="#edb200" fill-rule="evenodd"/><path d="M270.2 240.46l-1.22.39a8.85 8.85 0 00-3.34 1.64c-1.55 1.1-3.46 3.59-4.79 5.13a9.23 9.23 0 01-1.74 1.68c-1.94 1.46-2 1.29-4.47 2.11 3.66.1 8.82-1.8 10.81-4 .29-.32.5-.5.85-.85s.47-.63.85-1a17.26 17.26 0 012-1.8l5.56-1.62c-.43-.9-.83-.62-1.21-1.73l-1.08-.3c-.82.26.36.18-.83.42a3.56 3.56 0 01-1.35 0z" fill="#396f4a" fill-rule="evenodd"/><path d="M221.42 160.16c-2.3-.51-2.15-.18-2.57.45a5.81 5.81 0 01-1.24 1.32c-.71.34-.19-.05-.8.58a13.2 13.2 0 00-1.29 1.32c-.18.42.33 2.64 1.73 1.34l1.7-.86.25-1 .65.44s.06-.12.08-.09.06-.08.07-.09c.41-.35.35-.18.67-.38l.09-.07a1 1 0 01.31-.19c.51-.26.13.09.83-.62h1.71c1.28 1.41.34-.69 2.06 1.72-2.38-.31-2.38-1-4.9-.36-1 .25-.52.4-1.53.87s-.44.64-1.92 1.35a2.17 2.17 0 01-.62.19l-.62.27.64 1.17c.65-.21.54-.31.94-.78 3.55-4.11 8.4-1.34 8.48-1.35l.58-.26c-.1-.67-.56.27-.41-1.4.51-.1 1 .79 1.53 1.61h.93c.29-.65-.07-.27.45-1.39.65-1.37-1.23-1.89-2.08-2.64l-1.48-1.19c-.52.08-.41.16-1 .06H224.37a17.7 17.7 0 01-2.34-.6l-.65.65zM373.2 205.38l.52.05c.34-1.12.34-.3 0-1.52s-.39-1.15-.14-1.58l1 1.75.49-.71-1.33-1.37c.31-1.37.22-2.46.7-3.2.35-.53.29-.47.91-.63-1 2.25-.4 1-.62 2.59-.16 1.1-.15 1.6.94 1.89.81.22.44.08 1-.07.79-.21.68.05 1.42-.12.92-.21.25-.28 1-.57.54-.22.56 0 1.13-.34v-1c-.3-.3-.33-1.17-.52-1.59a6.3 6.3 0 00-2-1.67c-1.2-.42-1.57.07-2.69.55a2.76 2.76 0 01-1.59-1.73c-.52-1.21-.64-.95-1.18-1.38a3.68 3.68 0 00-3.05-1c-1.13.08-1.43.64-2 1.33.45.08 2.43 0 3.52.76.36.26.35.5.66.87 1 1.14.6.2 1.15 1.91l.89 2c-.26-.11-.33-.34-.56-.61l-.88-.63c0-.89.11-.83-.24-1.5l-.32-.57c-.26-.27.22-.23-.81-.16l.8 1.64h-.8c0 .7.62 1.46 1.2 2.72.12-.19.22.42 0-1l-.13-1.12c1.64 2.75.36 3.35 1.48 6zM367.93 182.47a2.31 2.31 0 001 2.26c1 .08.57 0 1.15-.23a3.66 3.66 0 011.19-.07l2.57-.19c.45.34.82.31 1.58.43l.09 1c1.41.45 1.8 2.31 2.28 2.83l.19.16c-.5.85.09.92.43 1.66.22.47.37 1.15.63 1.75.14.3.51 3.57.62 4.32 1.47-.49.67-.86 1-3a15.77 15.77 0 00-.58-3.84c-.32-1.86-.23-3.41-1.14-4.68-.57-.79-.75-1.49-2.12-1.5-.22-1.34-1-1.41-2.54-2l-.35.8s-.05-.13-.06-.1 0-.09-.06-.11c-.85-1.21-2.87-.47-4.35-.12-1.1.27-.16 0-.67.37a6.08 6.08 0 01-.82.32zM237.48 219.81c0-.75-.21-1-.94-1a2.52 2.52 0 01-.87 0c-.69-.14-.46-.1-.77-.39-.6 0-1.24.18-2 .16-1.85 2.81-.75 1.11-2.69 1.76-.87.29-.26.24-1.15.56l-.63.25-.12.06c-.79.39-.88 1.06-2 2.46l.54 1.54c-.44.67-.75.37-.82 1.2-.53 2.5-.89.53.26 3.16.47 1.07-.36.58-.14 1.66l2.08 2.9c.36-.2.69-.63 1.86-1.34a14.87 14.87 0 01-.21-6.27 8.64 8.64 0 011.14-2.45 16.23 16.23 0 011.66-2c-1.18.33-.79.58-1.6 1.36-1 1-.44 0-1 1.23a5 5 0 00-.8 2.77l-.54 2.63c-.65-.24-.54-.38-1-1.81l1-.14a8.12 8.12 0 01-.13-3.61l1.28-1.06a5 5 0 001.6-2.52c2.51-.35 2.44-1.19 4.42-1 .88.09 1 .28 1.56-.17zM211.08 208c0 .93.13.64-.21 1.31-1.08 2.15.39.67-1.33 3.57h1.85l-.25-1.14.83-.29c1.12-3.05 1-.56 1.2-3l1.28.3v-1.08l.61.23.34-.58c.78.33.53.17 2.23-1.11 1 .54.68.63 2.39-.84l.69.52c.61-.24.23-.29.73-.43 1.46-.23 1.29.06 2 .68l.51-.77 1 .83 1.07-.46a1.2 1.2 0 00-.46-1c-1.32-1.52-2.61-.27-4.54-1.29a7.1 7.1 0 00-3.31-.5c-.36.13-.27.29-.91.41s-.52-.15-1.29.27-.05.18-1 .38-.59.14-1.19.69l-.09.08c-1.61 1.42-.11 1-1.26 2.51-.42.54-.2.41-.93.62zM388.8 183.66h.65c2.54-.92 1.86-1 5.15-1.33 2.27-.26 3.64.3 5.74.89-.12-1.12.05-.7-.87-1l-.84-.87c1.09-.28.11.07.64.11 1 .06-.45-.79 2.12.34l-.51.84 1.11 1 .69-.58a4 4 0 00-.69-2.68c-.61-.92-1-1-2.25-1.17s-1.44-.64-2.39-1.05-.45 0-1.33 0c-.27 0-1.08-.25-1.25-.27-.65.36-.2.27-.73.43s.13-.17-.5.07c-.37.13-.17.17-.53.27a3.6 3.6 0 01-.81.06c-1.51.14-1.88.57-2.23 1.35l-1.23-.23.14 1.2c-2.59 1-1.9.63-1.84 1.65s-.05-.16-.19 1c1.48-.56 1.07-.17 1.54-1.69l1.24.05.19-.2.09-.09H391c1.46-1.12.95-.83 2.23-.86l.51-.66.43.45a2.61 2.61 0 00.42.4l.69-.83 1 .09h.11c.28.1.12.12.57.43a2.73 2.73 0 00.51.26l1.19-.94c-.08.75 0 .78-.29 1l-.11.07-.32.22c-1 .57-1.28 0-2.16-.25l-.65.62c-3.56-.51-2-.15-3.44.56-.87.43-1-.25-1.86.18-.63.31-.91.5-1 1.15zM231.66 214.31l-.22-.17c-.62-.45-.49-1.11-1.06-1.46l-1.81.28-4.81-.17c-.92 1.64.28-.27-1.52 1.71-2.43 2.67-1.13.56-3.08 2.38-.71.66-.41.51-.71.85l-.77.69.62 1.54a5 5 0 01-1.72.81c0 3-1 1.44 1 4.07l.61-.68c.62-.65.17.05.41-.75v-.13a27.51 27.51 0 00.92-2.65c.23-1.15.06-.26.44-.84s-.22 0 1-1.51l1.33-.12a5.16 5.16 0 00.18-.88c.32-.88 0-.18.69-.48l1.1-1.28a3.44 3.44 0 00.66 0c.6-.16.22-.29.89-.52 1.49-.51 1.08.26 2.31-1 0 0 .11 0 .14.08s.22.13.26.15c.37.15 0 .08.51.12l2.21.29c.71-.14.12.06.39-.28zM380.71 200.28c.41.95.67.34 1.22 0 1 .46.55.33 1.33.37.57 0-.16.13.51 0 .49-.09-.19-.05.92-.22.48-.07.16 0 .66-.32 1.53.62 1.78.91 3.17.54l.89 1.84c.41.59 0-.25.42.56a5 5 0 011.49 1.46l.14 2.73 2.07-.18c.06-2.79-.34-2.75-.95-3.8a5.85 5.85 0 01-.85-2.14 14.54 14.54 0 01-1.23-1.42c-.56-.58-.92-.5-1.42-1.15-1-1.22-2.05-1-3.77-1.08l-.47.84c-1.31-.25-.56-.69-2 .22-.62.38-.7.21-1.11.43a3.82 3.82 0 01-1 .58v.68zM391.08 163.64l.45.26.38-.2c.49-1.1 2.56-2.3 4.39-2.44l5.31 1.59 1.5-.88c.18-1.26-.79-2-1.59-3-1.1-1.39-2.72-.54-3.28-.66-.73-.14-.38-.43-1.6-.22a5.32 5.32 0 01-1.74.29c-1.29 0-1.95 1-2.7 1.85l1.35.07.47 1.09-1.77.84.12-.94c-.93 0-1 .13-1.36.83s-.25 0-.48 1.35l.55.18zM376.62 209.08c-1.19 0-.77-.11-1.36.46-.8.79-.15-.48-1.05.44-.71.46-.36-.07-1.08.67a1.71 1.71 0 00-.65 1.44c1 0 .38.1 1-.26s-.12 0 .46-.26l1.07-.27h.12c.91-.05.11-.29 1.18 0 .36-.52.48-.68 1.25-.49a4.14 4.14 0 011.39.49l.1.08c.42.31-.18.13.36.26s1.17-.42 1.79 1.32l1.44.13c-.18 2.76.67.25.09 4.44 0 0-.12 0-.14.06-.08.24 0 0-.55.28l2.25.78c.17-.61.08-1.34.23-2 .24-.94.56-.63.06-1.75-.64-1.41.05-2-.77-3.52-.46-.88-2.86-2-3.56-2.14-1.73-.29-.39-1.21-2.4 0-.69-.22-.32-.27-1.2-.22zM232.67 210.39c.24.23 0 .14.23 0s0 0 .31-.3a4.41 4.41 0 01.73-.57l1.23-2.46c-.4.86-1 1-1.36 1.55l-.46.76-.38-1c.55-1.09.47-.87 1-1.25l.1-.07.18-.16c.78-.74.66-.78.91-1.84a3.3 3.3 0 01.43-.06c.52-.14.12.06.47-.21.59-.46 1.49-1.71 2.34-1.74h.35c.53-.13 0-.1.77-.29.55-.13.31 0 .82-.2.71-.32-.11-.2.79-.21s.22 0 .72-.13c.72-.16 0-.11.75.18l1.63-.09-.19.72c-4.11-.4-1.32.23-3.33.31a3.63 3.63 0 00-1.49.15c-.93.29-.31 0-1.44 1.15-.21.21-.25.29-.46.51 1.13-.44.91-1.08 4-1.42l4.9-.42s.27-.13.23-.64c-.15-1.89-3.67-2.73-6.37-1.92-.52.16-.39.26-.76.44s-1.14 0-1.62.28l-1.8 2.13a4.35 4.35 0 00-2.75 2.06c-.32.59-.75.79-.76 1.55 0 1 .44.45-.54 1.55a7.91 7.91 0 00.82 1.72z" fill="#edb200" fill-rule="evenodd"/><path d="M261.54 235.57c.49.35.24.19.54.67l1.91-.06a11.83 11.83 0 01-.58-2.69c-.06-2.37.89-5.77.9-8.57a2.54 2.54 0 00-.9-2.31 5.91 5.91 0 01-1.37-4.78c.25-1.24.49-.84.54-2.42l-.68 10c-.2 1.74-.58 3.47-.77 5.19-.52 4.58.37 3.3.41 4.97z" fill="#396f4a" fill-rule="evenodd"/><path d="M238.48 208.67l-1-.13c-1.07 1.45-1.29 1.22-1.62 2.45-.29 1.06 0 .8-.11 1.59a7 7 0 00-.2 1.94l1.05.15c-.11-2.13-.28-1 1-2.17s1-1.34.95-2.49c.8.09.82.29 1.6.13l1.65-.43c1.14 1.06.62 1.71 2.84 1.42l.27 1c-1.49-.13-.87-.38-1.8-.14 1.21.81 2.21.67 3.7.7.35-2.43-1.17-3-2.58-4-1.14-.85-1.21-.46-2.59-.55l-2.62-.43-.49 1zM382.63 191.21l.05.31a1.26 1.26 0 00.64-.45l.59-.67a3 3 0 01.9-1.78l-.16-2.46-.54-3.63c-.15-.42-.37-.44-.61-.76-.84-1.13.21-1.28-3.78-1.34l-.39.9c2.22.82 1.43.94 2.47 1.78l.33.23c0 1-.27.81-.42 1.64l.7 1.27c-.11.79-.34.29-.17 1.05.38 1.8.05 1.66.41 2.68.15.41.35.86-.02 1.23z" fill="#edb200" fill-rule="evenodd"/><path d="M216.11 188.09l-1.24.36.66.71a15.32 15.32 0 01-2.21 1.7l4.78-.15c-.53.2-1.56 0-2.29.22l-1.74 1 .51.27a5.67 5.67 0 004.42-1.34c.8-.67 1.05-.56 1.51-1.23 1.32-1.9 2.24-1.67 3-4a1.79 1.79 0 00-.29.31s-.21.3-.22.31a7.42 7.42 0 01-2.09 1.22c-.24-.56.28-.16-.47-1.59-.14 1-.35.9-.77 1.67a3.06 3.06 0 01.11 2.33 33.2 33.2 0 01-1.93-5.41c-.29-1-.15-1.12.39-1.66a4.14 4.14 0 00-2.18-.14c1.38 1.69 1.11 2.72 1.48 3.81l1.5 4.09c-1-.22-.53-.49-1.68-1.17s-.36-.41-.81-.95c-.2-.24 0 .21-.4-.4z" fill="#396d4b" fill-rule="evenodd"/><path d="M252.09 230c-.18-4.49 2.23-6 2.07-7.18l-.54-2.86c-.4.21-.14 0-.57.39-2.22 1.87-3.85 4.88-3.12 7.93a2.53 2.53 0 00.74 1.28c.52.56.45.49 1.42.44z" fill="#396f4a" fill-rule="evenodd"/><path d="M332.09 221.19l-1.53 2.52c-1.6 2.73-2.7 9.15-2.19 9.75.3.36 1.85-1 2.34-1.39 1.2-1 .47-4.54.78-7.48.12-1.15.51-2.21.6-3.4zM388.06 177.65c.12.59-.13.49-1.34 1.47a1.86 1.86 0 01-.27-.3c-.45-.63-.21-.74-.64-1.28l-.35 1.93-.83.25h.72c.23.38.27.34.26.7a11.41 11.41 0 01-.47 1.6c-.05.67.34-.17.05.67s-.34-.49-.24 1.85l-.3 1.65.16 2.46c.53-.72.75-2.61 3.95-4.44l.69-.54h-.65a15.81 15.81 0 00-1.71 1.07c-.62.49-.7.9-1.41 1.15l1.82-6c.34-.62 3.67-2 4.35-3.31l-1.93.83.09-1-.18.34-.06.11a1.08 1.08 0 01-.54.49 5.09 5.09 0 01-1.17.36z" fill="#396d4b" fill-rule="evenodd"/><path d="M391.05 165c0 .32-.06.24-.47.62l-1.08.65-.18.65s.08 0 .1.07l.21.13c2.1 1.15.82-.75 3.6 1.16l.55-.31a4.54 4.54 0 012.2-.67c.12-.62.46-.76.22-1.47-.55-1.6-3.53-1.86-4.32-1.8-.55.13-.73.34-.83 1z" fill="#edb200" fill-rule="evenodd"/><path d="M360.36 222.53c1.8-.18 1.15-4.86 1.1-5.92l.68 4c2.1-.85-.1-7.81-.54-9.44-1.15 1.08-1.54 4.12-1.37 5.54a21.58 21.58 0 01.57 2.75 13.6 13.6 0 01-.44 3.08z" fill="#396d4b" fill-rule="evenodd"/><path d="M337.65 226.43l2.56-1.1c.23-.17.36-.28.58-.47s.11-.06.28-.24l.29-.4a4.31 4.31 0 00.91-1.47l1.78-7.2a17.69 17.69 0 00-1.54 2.65c-1.17 2-4.7 6.45-4.86 8.23z" fill="#396f4a" fill-rule="evenodd"/><path d="M384.63 179.72l.83-.25.35-1.93-.75-2c-1.07-.28.07.07-1.36.46l-1.06.42c.24.23-.16.22.86.22v.81l.73.11c0 1.37.35 1.93-1 .48l-1.12-1.04c0-.83 0-.82.47-1.23l1-.82c-.41-.85-2.51-1-2.55-1l-2.61 1.68 1.77.19-.79 1.12c3.3.94 2-.24 5 3.24.26-.33 0 .07.18-.46z" fill="#edb200" fill-rule="evenodd"/><path d="M286.9 254.09c-.54 2.88-2 6.18-3.11 9.07a38.32 38.32 0 013.71-4.81 14.13 14.13 0 002.59-5.13c.3-1.23.1-.7-.19-.87a10.82 10.82 0 01-3 1.74z" fill="#396f4a" fill-rule="evenodd"/><path d="M213 167.9c.26.64-.32 0 1.13.9-3.52 1.76-1.36.92-2.38 2.18 0 0-.15.12-.18.15l-.1.08c-1.19 1.2-.11.89-2.1 2.2l-2.22-1-.84.36-.72-.57-.48.66a2.24 2.24 0 01-.46 0h-.42c-.39.65 0 1 .71 1 1.14 0-.12-.49 1.54-.33a7.15 7.15 0 011.89.17c.43.19.1.23 1.37.85 1.11-1 1.14-1.42 2-3l.73-.22c.16-2 .12-.71 1.47-1.3s.32-.67 2.35-.2c-.05-1.28-.46-.69-1.16-1.3l-1.44-1.06-.66.4z" fill="#006" fill-rule="evenodd"/><path d="M284.31 233.76c.6-1.91-.67-7.39-1-9.6-1 1.07-.77 3.69-.79 5.4s-.28 1.12.44 2.46a7.69 7.69 0 001.39 1.74z" fill="#396d4b" fill-rule="evenodd"/><path d="M381.24 204.86c.09-.79 3.88-1.37 4.87 1.34.24.64 0 .59.32 1.08l.77.47c.29-.51.53-.78.51-1.3a4.06 4.06 0 00-.62-1.56c-1.55-1.85-1-1.6-2.59-1.92-1.59 0-1.44.34-2.74.37s-1.09.27-1.21.38a3.15 3.15 0 01-.86.57l1.55.57z" fill="#edb200" fill-rule="evenodd"/><path d="M229.82 201c-.45 2-.46.45-.76 1.84s-.59.55.2 1.82c.2-.33.46-2.32 1.44-3.1.53-.42.3 0 1.05-.52s.6-.26 2.25-.1c-.63.25-2.81.86-3 1.42v.13l-.45 1.45c1.8-2 .42-1.5 4.94-2.45.31-2-1.86-2.55-3.25-1.72-.64.39-.3.11-.87.28-1 .27-.15 0-.73.53a2.8 2.8 0 01-.75.42z" fill="#eab002" fill-rule="evenodd"/><path d="M315.06 256.1c.52 0 1 .18 1.49.21h.7c.83-.23.38.08.54-.48-.56-.05-.69-.21-1-.69-.16-.27-.46-.83-.58-1.07l-3.62-1.23c-1.11-.52-2-1.74-2.67-1.82 1.37 3.28 3.71 3 5.11 5.1z" fill="#396d4b" fill-rule="evenodd"/><path d="M229.56 175.1c-1.41.28-.74.42-1.33.43-1.89.05-1-.34-2.57.74l-.13 1.08s-.1 0-.13.06-1.07.32-1.49 1.25c-.15.32.22.32-.44.74l-.11.06-.23.11-.1 1a4.6 4.6 0 01-.44.15c-.73.37.11.26-1.4.34.13.57.32.7.33 1.21s-.36.06.26 1c.53-.66.19-.67.59-1.42.18-.35 1.88-1.92 2.19-2.27.48-.54 1.58-2.48 3.16-3.34l3-1.37-.83-.71-.34.86z" fill="#006" fill-rule="evenodd"/><path d="M365.48 211.57c.87-3.7-1.14-2.45-3.53-4.32l-1.55-1.34c.54 3.12 3.12 4 4.37 5 .51.45.23.38.71.66z" fill="#396d4b" fill-rule="evenodd"/><path d="M280.53 242.3c-1.17-2.39-1.17-1.17-.44-5 .08.17.1.05.12.42A5.24 5.24 0 01280 239c-.22 1.65 1 2.17 2.63 3.49a4 4 0 01-1.38-1.26c-.17-1.44 1.3-1.52-.41-3.53-.64-.76-.39-.36-.81-1.41-.33.11-.52-.22-1 1.23a5.71 5.71 0 00-.12 1.94c.06 1.13.39 2.63 1.63 2.82z" fill="#396d4c" fill-rule="evenodd"/><path d="M373.61 212.69c.14.24-.19.19.47.27 2.49-.43 6.65-.25 7.5 2.58l.21.81v.14l.1.27c.16-.14.21.08.34-.57a5.19 5.19 0 00-.38-2.14 6.11 6.11 0 01-2.1-1.36 8.8 8.8 0 00-2.31-1.24c-2.59 1-2.24.21-3.24.62-.79.33 0 .09-.63.62z" fill="#edb200" fill-rule="evenodd"/><path d="M208.82 202.59l.68-2.38c.25-.86.45-1.15 1.53-1.73 4.71-2.48 2.73-2.25 8.53-1.74-.21-.38 0-.13-.25-.37A2.28 2.28 0 00218 196c-.88-.06-.33-.09-.77-.15a8.18 8.18 0 00-1.13.08c-1.11.05.08-.37-1.19 0l-1.42.47c-.33.16-.55.33-.92.48a7.43 7.43 0 00-2.46 1.3c-.27.27-.41.84-.8 1.4-.52.76-1.34 2.22-.52 3.05z" fill="#006" fill-rule="evenodd"/><path d="M300.92 246.49c.54.47 1.73.81 2.95 1.56l2.73 1.78-.1-2c-2.21-.99-3.77-2.83-5.58-1.34z" fill="#396d4b" fill-rule="evenodd"/><path d="M375.17 167.35c4.33-.56 6.34 1.26 8.22 5 1 2 .22 1 1.75 2.66-.31-1.47-.43-2-1.48-2.74-.18-1.76-.05-.09-.69-1.88-.21-.61.11-.06-.41-.64-1.9-2.12-1.09-.64-2-1.8-.63-.83-.91-1.4-2.11-1.2-1.4.23-2.61-.34-3.32.65z" fill="#e9ae03" fill-rule="evenodd"/><path d="M202.21 185c.82.45 3.26-.7 4.21-.89l4 1.28c0-.39.15-.61-.11-1s-1.41-.56-1.72-.63l-.65-.13h-.1l-1.39-.45a3.92 3.92 0 01-1.81.69l-1.71.28c-.59.14-1.12-.15-.76.82z" fill="#006" fill-rule="evenodd"/><path d="M375.94 208.6c.34-.34 1.18-.5 1.74-1.1.77-.82.54-.83 1.54-1.23l.31-.12-.64-.05v-.47c-.93.19.15-.1-1.3.91a5.16 5.16 0 01-1.51.7 11.78 11.78 0 00-1.72.52c-.55.32-.67.67-1.33.91l.7-3.24-.52-.05-.59 3.88c.55-.26.36-.46 1.23-.64a13.23 13.23 0 012.1 0z" fill="#386a4e" fill-rule="evenodd"/><path d="M376.28 203.93c-.5-.36 0-.15-.51-.37-.16.29-.15 1.22-.41 1.78l-1 1.82c.93-.28.3-.31.86-.69s.95-.13 1.52-.23l1.6-1.76-1.53.55c.28-1.43 2.83-1.4 3.94-2.52-.56-.26-1.53.26-2.27.69-1.25.72-.19 0-2.24.73z" fill="#396d4c" fill-rule="evenodd"/><path d="M373.83 186.25c.69 1.63 2.65.08 5.06 10.15-.06-.45-.21-1.09-.26-1.44-.11-.69.05-1.31 0-2a13.27 13.27 0 00-1.1-2.81c-1.27-3.54-.2-1-1.79-3.18a5.65 5.65 0 00-1.44-1.55 2.41 2.41 0 00-.43.8z" fill="#e4ac05" fill-rule="evenodd"/><path d="M338.88 237.25c.82.42 2.92-.91 6.59-.29l6.31 1.32c-.34-.45-2.25-.91-2.83-1.09a15.73 15.73 0 00-7-.88 11.21 11.21 0 00-3.07.94z" fill="#006" fill-rule="evenodd"/><path d="M228.12 199.54v.25l.29-.25a7 7 0 012.73-4.42c2.21-1.29 3.43-.52 5.65.22-.22-.52-.39-.53-1-.87-3.3-1.8-4.23.11-5.5 1-.36.25-.93.4-1.23.84a29.74 29.74 0 00-.9 3.25z" fill="#e6ad05" fill-rule="evenodd"/><path d="M388.74 163.47l-.3 1.8 1 .19c1-1.17.23-.12.58-3 .12-1 .15-.48-.38-1.86 1.22-.2.86 1 1.3-.65-1.08.3-1.06.39-1.77-.22l.26 4.14c-.41-.12-.35-.13-.72-.41z" fill="#386a4e" fill-rule="evenodd"/><path d="M318.43 243.09a14.72 14.72 0 002.9-1.92 21.08 21.08 0 013.06-1.72l6.1-3.6a2.57 2.57 0 00-.83.49c-1.19.83-4.27 1.92-5.72 2.65s-4.94 3.01-5.51 4.1zM210.77 185.74a11.05 11.05 0 012.7.73c.92.37 1.49 1.12 2.47.8 0-.65-1.06-1.15-1.57-1.38a4.87 4.87 0 01-.56-.28c-.74-.48.07-.38-1.84-.38-.19-.26-.06 0-.2-.35l-.14-.32a5.72 5.72 0 00-.86 1.18zM305.11 243.29c1.76-.66 1.58-2.75 5.47-5.33l1.94-1.48c-.63.26-1.59.67-2.35 1.06a6.78 6.78 0 00-1.94 1.67 27.87 27.87 0 00-3.12 4.08z" fill="#006" fill-rule="evenodd"/><path d="M382.68 191.52l-.05-.31c-.48-.27-.52-.3-.64-.89-.43-.33-.27-.28-.53-.64-.41.1-.65-.13-.34 1.11l.24 3a2.46 2.46 0 00.23 1.56c1.22-.29.35-.89-.08-3.41-.14-.81-.16-.66.08-1.23l.59 1.46c.41 1 0 .78.68 1.67.02-1.32-.56-1.3-.18-2.32z" fill="#386a4e" fill-rule="evenodd"/><path d="M384.67 202.26c.82.12 2.15.12 2.74.6.52-.06.57.46.52-.5 0-.63-.7-.47-2.24-.9a9.5 9.5 0 00-3.28.36c.27.52 0 .33.85.41h1.41zM384.16 193.3c-.06.5.22.3.72.26 2.75-1.09.42-1.06 5-.87-.9-1.83-2.1-.87-2.74-.74a4.16 4.16 0 00-2.06.7l-.22.13c-.42.29-.29.38-.73.52z" fill="#eab002" fill-rule="evenodd"/><path d="M211.34 164.51l.21.12.12.05a6.75 6.75 0 012.64 1.1l1.07.48c0-3.25-3.49-2.27-4-1.75z" fill="#edb200" fill-rule="evenodd"/><path d="M227 185.56a5.33 5.33 0 00-1.56 2l-.26.45c-.5.91-.14.48-1.41 1.45l.63 1.33c.65-.62.95-2.15 1.67-3.08a10.76 10.76 0 001.26-2.35l-.16-.89c-.12.25 0-.18-.15.42a5 5 0 000 .67zM225.76 195.49a3 3 0 01.15 1.77c-.16.36-.53.28-.31 1.18l.23.54c.95-.33.17 0 1-2 .25-.61.09-1 .46-2.46-1.2-.08-.88.3-1.14.63l-.17.18-.11.07-.12.07zM311.5 243.51c.14.1-.35.76 1.26-.29a13.89 13.89 0 001.18-.88c2.15-1.62 3.93-4.28 5.69-6.47-.91.45-3.07 3.23-3.79 4.1a15.24 15.24 0 01-4.34 3.54z" fill="#006" fill-rule="evenodd"/><path d="M380.49 205.21c-.91-.1-1-.21-1.61.42v.47l.64.05c1.74-1.14 4.35-.05 5.88.46-.22-1.12 0-.26-2.37-1.78a8 8 0 01-2 .6c-.84 0-.49-.13-.55-.22zM383.31 160.58c-.16-.24 0-.06-.24-.29-.57-.56-.26-.14-.8-1.07-1.58.41-1.22-.39-3.17 0a16.31 16.31 0 00-2.68.63 33.3 33.3 0 003.63-.07 18.62 18.62 0 013.26.76z" fill="#e6ad05" fill-rule="evenodd"/><path d="M363.12 239l4.64-.27c.82-.05.83.06 1.5-.3-2.65 0-1.87-.2-3.33-.6-.63-.18-.15-.2-.81.06l-.74.33a2.19 2.19 0 00-1.26.78z" fill="#386a4e" fill-rule="evenodd"/><path d="M215 209.42l-1.11.09a32.9 32.9 0 01-1.84 2.91 5.9 5.9 0 001.25-1.11 9.19 9.19 0 011.39-1.17c1.14-1 1.63-1.14 2.81-2.16-.58-.38-.69 0-1.38.35-1.21.71-.41.38-1.12 1.09z" fill="#eab002" fill-rule="evenodd"/><path d="M255.76 219.07a10.51 10.51 0 00-.07-5.57c-.14 1-.24 2.25-.47 3.17a2.05 2.05 0 00.54 2.4z" fill="#386a4e" fill-rule="evenodd"/><path d="M222.06 207.13a3.28 3.28 0 002.49-.58s-4.2-.2-5 .26c-1 .57-.66.2-1.44.66.49.24 2.67-.32 4-.34z" fill="#e9ae03" fill-rule="evenodd"/><path d="M363.75 202.15c0-1.45.15-1-.58-2.07h-2.67a3.08 3.08 0 001.58 1c.74.32 1 .7 1.67 1z" fill="#eab002" fill-rule="evenodd"/><path d="M329.06 258.05c-.83-.34-.92-.93-1.47-1.38a5.53 5.53 0 00-2-.74l-.54.17c.73.31 1.84 1.17 2.69 1.65a6.07 6.07 0 012.33 1.9c-.38-.87-.69-.77-1-1.6zM381.36 196.58c3.17-.61 2.57-.46 4.9-2.18-.95.26-1.52.75-2.51 1s-2.09.14-2.39 1.19z" fill="#386a4e" fill-rule="evenodd"/><path d="M324.33 242.21l6.32 2.81a18.67 18.67 0 01-2.78-1.8c-.64-.39-2.76-1.55-3.54-1.01z" fill="#006" fill-rule="evenodd"/><path d="M352.52 213.62a3.66 3.66 0 001-3.06l-.49-.84a12.73 12.73 0 00-.51 3.9z" fill="#386a4e" fill-rule="evenodd"/><path d="M390.46 193c.29.78.92 1.17 1.11 1.84a10.16 10.16 0 01.15 1.48c0 .89-.23.63.14 1.43.64-.34.5-.15.28-1a4.76 4.76 0 01-.1-1.46l-.7-2.39-.88.11z" fill="#e6ad05" fill-rule="evenodd"/><path d="M222.88 218.3c2-1.07.24-.62 4.11-2.21-1.05-.4-.59-.4-1.85.1-.87.35-.1 0-.75.61s-1.24.4-1.51 1.5z" fill="#ce9b0e" fill-rule="evenodd"/><path d="M389.46 203.15c-.31-.13-.29-.22-.69-.19-.87.06-.37.06-.55.34 1.48.45 2 2 2.72 3.6.19-1.2-.14-1.18-.51-2.07l-1-1.68z" fill="#e4ac05" fill-rule="evenodd"/><path d="M378.38 221.53l.9 3.35.7-1.66a8.85 8.85 0 01-.81-.84 2.82 2.82 0 00-.79-.85z" fill="#ce9b0e" fill-rule="evenodd"/><path d="M214.54 155.07a3.26 3.26 0 001.21-.79l-.07-1.36c-1.06.14-1.26.94-1.14 2.15zM212 158.87l1.09-.64-.06-1.76c-1.03.4-1.15 1.02-1.03 2.4z" fill="#006" fill-rule="evenodd"/><path d="M238.7 212.21c1.17-1.15 2-1 4-.68l-1.12-.89c-1.69.15-2.33.25-2.88 1.57z" fill="#dea90a" fill-rule="evenodd"/><path d="M219.85 222.54l2.19-3.21c-1 .18-1.23.29-1.54 1.09a5.9 5.9 0 00-.65 2.12z" fill="#dba50b" fill-rule="evenodd"/><path d="M396.52 160.06l-.12.51a12.77 12.77 0 002.77-.19l-.81-.87c-.58.19-.38.22-.81.43-.64.3-.24.11-1 .12zM215.45 159.49c.38-.09.21-.15 1.07-.72l1-.94-.23-1.23s-.06.05-.06.12a1.29 1.29 0 01-.12.26c-.61 1.62-1.09.77-1.64 2.51zM208.87 162.68a6.79 6.79 0 00-.79-1.29c-.49 0-1.73.22-.92.87z" fill="#006" fill-rule="evenodd"/><path d="M369.87 185.39l.28.14 2 .24v-1c-.92.43-1.66-.16-2.23.6z" fill="#eab002" fill-rule="evenodd"/><path d="M401.76 171.87a6.06 6.06 0 00-2-1.81c-.07.48-.31.21.63 1.28.43.44.61.74 1.37.53zM224.75 197.37l-.55.51c.49.28.77 0 1.14-.17v-1.39h-1.06c.31.71.39.28.48 1.06z" fill="#006" fill-rule="evenodd"/><path d="M381.46 189.68c.26.36.1.31.53.64a12 12 0 01-.31-2.81c-.06-.46-.08-.37-.43-.86-.05.08-.3 0-.16.75.06.31.19.36.27.61a6.59 6.59 0 01.1 1.67z" fill="#b48c24" fill-rule="evenodd"/><path fill="#386a4e" fill-rule="evenodd" d="M241.92 239.28l-2.97 1.89 3.57-1.44-.6-.45z"/><path d="M280.64 254c-.11.26-.23.6-.36 1 .25.64-.16.1.45.34a3.5 3.5 0 00.66-2.21 1.88 1.88 0 00-.75.91z" fill="#396f4a" fill-rule="evenodd"/><path d="M207.9 204.56s.09-.16.11-.12.09-.09.11-.12c.32-.3.23-.2.77-.45v-.73c-.25-.32-.1-.22-.49-.36l-.56.89s-.07.13-.07.1-.06.07-.09.1l.25.69zM223.29 193.47c.13.52.29.57.38 1.07.14.83-.2.15.28 1.46.16-.18.21.16.28-.67a5.08 5.08 0 000-.87c-.11-.62-.24-.91-.89-1z" fill="#006" fill-rule="evenodd"/><path d="M384.88 193.56c-.5 0-.79.24-.72-.26 0 0-.1 0-.12.12-.16.64-.09.08-.2.22s-.21.3-.29.4l-.68.85c.66.07.69.11 1.76-1 .24-.21.05-.01.25-.33z" fill="#386a4e" fill-rule="evenodd"/><path d="M397.4 170.22a3.62 3.62 0 002.13-.75l-.48-.5c-.64.19-.24.17-.81.56s-.3-.06-.84.69z" fill="#006" fill-rule="evenodd"/><path d="M372.49 185.73l.32-.16s.06 0 .07.1.07.08.09.1l.3.33.42-1.17-1-.25c-.24.32-.35.32-.2 1.05z" fill="#e9ae03" fill-rule="evenodd"/><path d="M380.89 184.84l.29-1.16c-.74-.43-.17.18-1.28-1a4.41 4.41 0 001 2.18z" fill="#e6ad05" fill-rule="evenodd"/><path d="M237.34 205.06c-1.5.06-1.45.44-1.86 1.65.7-.37.36-.18.85-.72.31-.33.67-.61 1.01-.93z" fill="#dea90a" fill-rule="evenodd"/><path d="M318.48 255.65c0-.48.19-.45-.42-1.09l-.37-.37-.4.18c.28.7.49 1.11 1.19 1.28z" fill="#396f4a" fill-rule="evenodd"/><path d="M394.41 161.25c.72-.18 1.18-.18 1.59-.9l-.72-.27a5 5 0 00-.87 1.17z" fill="#006" fill-rule="evenodd"/><path d="M237.39 213.37c-.18 1.45-.4 1 0 1.84l.8-2.31c-.38.28-.38.23-.75.47z" fill="#dea90a" fill-rule="evenodd"/><path d="M391.05 165c.1-.63.28-.84.83-1v-.32l-.38.2-.44-.26c-.19 1-.42.16-.74 1.33h.71z" fill="#386a4e" fill-rule="evenodd"/><path d="M399.39 160.74l1.14.54-.12-1.21c-.33.05-.33-.08-.79.37-.24.24-.09.1-.23.3z" fill="#006" fill-rule="evenodd"/><path d="M370.37 196.79v-.45l-1.85-.66c.2.64 0 .18.85.69.47.28.43.45 1 .42z" fill="#e4ac05" fill-rule="evenodd"/><path d="M235.94 221.33l.16-.37a5.46 5.46 0 00-1.38.21c-.73.17-.67 0-1 .47z" fill="#b58c1b" fill-rule="evenodd"/><path d="M381 198.66l.87-.2.3-1.15c-.49.29-.3.24-.68.6s-.49.15-.49.75z" fill="#386a4e" fill-rule="evenodd"/><path d="M229.83 215.6l-.18-.1c-1.2.1-1.29-.64-2.15.48l2.33-.38z" fill="#bb9223" fill-rule="evenodd"/><path d="M366.35 208.69c.08-.13 0 .05.18-.37.23-.65.16-.53-.33-1.32a1.89 1.89 0 00.15 1.69z" fill="#e4ac05" fill-rule="evenodd"/><path d="M236.93 217l.46.11c-.07-.63 0-1.18-.26-1.58-.36.47-.13.8-.2 1.47z" fill="#d6a429" fill-rule="evenodd"/><path d="M223.29 193.47l-.13-.57c-.64.11-.78.26-1 .9zM390.28 153.32l.65.14c.35.06.13.1.63-.08-.16-.38 0-.1-.35-.26h-.06c-1.11-.58-.64 0-.87.22zM380.81 176.35c.38.28.15.41 1-.2-1.22-.55-.87.08-1 .2z" fill="#006" fill-rule="evenodd"/><path d="M378.38 221.53c-.05-.66 0-.19-.24-.41l-.33-.19a.46.46 0 01.07.14l.15.24c.3.29.04.03.35.22z" fill="#a68333" fill-rule="evenodd"/><path d="M231.66 214.31l.11-.35c-.81-.14-.07-.05-.33.18l.22.17z" fill="#8a7244" fill-rule="evenodd"/><path d="M377.81 220.93l-.35-.28c-.1.31-.19.26.12.32h.23z" fill="#c89919" fill-rule="evenodd"/><path d="M302.08 219a65.72 65.72 0 10-65.76-65.72A65.67 65.67 0 00302.08 219" fill="#e6ad05"/><path d="M263.43 197.52l.87.7c.7.7 1.75-.17 2.62-1.05 1.4-1.57.88-2.27.53-2.62l-1.05-.7-3 3.67M280.74 208l1.05.35c1 .35 1.75-.7 2.1-1.75.88-2.1.18-2.45-.35-2.62l-1.22-.53-1.58 4.55M294 211.5l1.22.18c1.05 0 1.57-1.23 1.57-2.27.35-2.28-.52-2.45-1.05-2.63h-1.22l-.52 4.72M288.61 102.09l1.23-.17c1.05-.35 1.05-1.57.7-2.8-.53-2.1-1.4-2.1-1.93-1.92l-1.05.17 1.05 4.72M337.94 114.33l.87.87c.7.7 1.75 0 2.63-.87 1.39-1.58 1.05-2.27.52-2.62l-.7-.88-3.32 3.5M330.07 103.32l-1.93 2.09 1.23.88.87-2.97h-.17zM327.62 201.19l.7 2.97 1.4-.7-2.1-2.27z" fill="#fff"/><path d="M302.08 216.92a63.53 63.53 0 10-63.49-63.62 63.65 63.65 0 0063.49 63.62" fill="#fff"/><path d="M299.28 107.34a3.63 3.63 0 00-3.67-2.28c-3.15 0-5.25.7-5.77 3.33-.7 2.44 0 2.62 0 2.62a20.1 20.1 0 00-.35 3.84c.17.88 2.1 1.57 2.1 1.57s.7-.17 1.22-1.74c.53-1.4 1.05-2.1 1.4-3.15s.7-2.45 1.4-2.8a15.2 15.2 0 012.62-1l1-.35" fill="#fdb83c"/><path d="M291.94 191.05l1.75 1.75c1.22 1.23 1.74 2.1 2.79 2.62 1 .35 3 1.4 1.93 2.45-1.05 1.22-3 .7-5.07.18s-4.38-1.4-4.9-1.58-.53-.7-.53-2.79c.18-2.1 0-3.85-.7-8.39-.87-4.72-1.22-8.22-.52-12.24a21.51 21.51 0 00.7-5.77l-1.92-.87s.17-5.59.52-9.61c.52-4.2.35-5.25-.17-6.29-.7-1.23-1.23-5.25.34-6.64a6.31 6.31 0 002.28-3.15 21.42 21.42 0 01-1.05-4.89 4.81 4.81 0 00-1.4-3.67 5.61 5.61 0 01-.87-4.37c.52-1.75 1.39-5.6 2.79-7.17a25.61 25.61 0 003.33-4s-2.45-.87-1.75-3.15c.35-1.39.52-2.44.52-2.44s-.35-2.1.18-3a3.09 3.09 0 011.22-1.05l2.28.35s-1.4 3.67-1.05 4.37 1.57 0 1.57 0l-.87 3.32a2 2 0 00-1.23 2.79c.53 1.4 2.1 1.93 3.85 3 .35.18.7-1.39.87-1.57.53-.17.88 1 .88 1s1.57 1.92 3 3.85a14.87 14.87 0 004.37 3.14l3.68-1.05s-1.58 3.32-3.33 3.67c-1.74.18-8-1.22-8-1.22l-2.1-2.45s-3.5-1.4-4.2-1a7.67 7.67 0 00-1.57.88l1.22.7-1 1.4.18.69.87.35-1 1h2.1l3.67 1.05s2.45 2.1 3.85 2.45a3.6 3.6 0 011.93.87s.35 5.42 0 6.82c-.53 1.57 0 3.84.52 7.86.53 4.2.7 14.51.7 14.51l-1.22 3.15a10.52 10.52 0 01-.35 6.11c-1.4 3-1.4 4.55-2.1 8-.88 3.5-2.45 7.17-1.4 8.92.87 1.74 5.42 4 5.42 4s-.87 1.74-1.75 1.92a15.49 15.49 0 01-4-.7l-2.1-1.57-2.27-2.45a39.66 39.66 0 00.7-6.64c0-3.15.35-8.74 1.22-10.49.87-1.92 1.57-3.67 1.22-4.37a10.42 10.42 0 01-.17-1.75l-2.45.35a34.67 34.67 0 00-1.4 7.69c0 3.85-.17 9.79 0 11.19 0 1.22.18 3.84.18 3.84" fill="#d88f28"/><path d="M315.9 114.5s.7-.52-.7-1.4c-1.4-.7-1.92-.17-2.45-2.27a20.84 20.84 0 01-.87-3.32L310 107s1.75-1.58 2.8-1.58c.88 0 3.85.18 4.55 1.75a8.22 8.22 0 01.7 4.37c0 1.22 1.05.35.17 1.92-1.05 1.58-1.05 2.1-1.05 2.1l-1.22-1M302.61 194a16 16 0 002.62-.53c1.22-.52 1.75-.7 1.75-.7s1.57-.52 1.92 0c.18.53 1.58 1.4 1.58 1.4s.35.7-1.58 1.4c-1.75.87-3.67 2.1-1.92 2.45 1.92.34 2.27.87 4.9.17a19.58 19.58 0 014.54-.87A7.2 7.2 0 00318 197l-.18-3.15s-2.1 1.05-2.45 1.92a5.52 5.52 0 00-.35 1.4h-.52s.35-2.45-.17-3.14c-.7-.53-2.1-2.1-3-1.23-.7.7-1.4 2.62-3.15 2.62s-3.49-.35-4-.35-1.57-1-1.57-1M286 150.86s-2.1-3-.87-4.72 2.79-4.2 2.79-4.2l2.28.18s-1.23-.7-.18 1.57c1.23 2.27 1.75 2.62 3 2.1a5.55 5.55 0 002.1-2.1l1.92 1.92a5.07 5.07 0 01-2.62 1.93c-1.75.69-2.63.87-3.5.17a14.61 14.61 0 00-1.75-.87s-1.58 3.14-3.15 4" fill="#68613e"/><path fill="#68613e" d="M288.26 140.19l1.58 1.93 4.55-.18-1.75-2.1-4.38.35zM296.31 135.82l1.05-2.62.52.18-.7 3.49-.7-.7-.17-.35z"/><path fill="#21205f" d="M316.42 115.55l-3.14 2.62-.53-.7-.52.18-1.93 3.67 7-4.37h.87l-1.75-1.4z"/><path d="M296 117.3a4.31 4.31 0 00-1.57-2.27 1.8 1.8 0 00-1.4-.35s.7-2.1 1.4-3.67c.87-1.4.87-2.1 1.74-2.45a7.11 7.11 0 012.63-.52s.7 2.27.35 2.62c-.35.52.35 2.44.35 2.44a6.56 6.56 0 01-.53 1.4c-.52 1 0 3.67-.7 3.15a4 4 0 00-2.27-.35M315.37 114.5s-3.32 1-4 1.92a3.07 3.07 0 01-.87.88s-1.58-.53-1.23-1.22l.35-.88-1.22-1.75.52-2.62.18-3 2.45-.35.87 3.32.53 1.92 1.74-.35.7 2.1M296.66 128.83s-.88-3-3-3.14a13.86 13.86 0 00-4 .35l.88.7-.88.87.18 1.22.87.35-.87.88h1.92l2.1.7 2.27.17.53-2.1M301.38 141.77l.18-2.27 1.4-.7s-.53-.88.7-1.05a14.73 14.73 0 013.67-.18l.17 3.32-1.4.53-.87 1.92-.7.7-1.92-.7-.18-.87-1.43.53.35-1.57" fill="#fbd9e1"/><path d="M310.13 193.68l-3-1.93s1.75-1.39.88-8.56c-1-7.17-1.4-24.47-.88-30.41.7-5.94.53-18.7.53-18.7a11.08 11.08 0 01-5.77.35 17.12 17.12 0 01-5.43-2.28l1-3.32s2.45.18 4.55.53l3.15.52 3.67-3.14 1.05-4.37.53-.88 7.17-4.19s3.67.52 2.8 11.18c-.7 10.84-.7 15 .17 21.68a43.52 43.52 0 01-.17 16.6c-1.23 5.24-2.1 7.34-1.93 14.51a119.31 119.31 0 010 12.41l-2.45.87s.53-5.42.53-9.09-.18-11.88-.35-13.46a12.51 12.51 0 01.35-3.67l-1.23-1.57s.18 7 .35 11.71c.18 4.89.35 10.66-.35 12.93a11.45 11.45 0 00-.7 2.63s-1.92-2.28-2.79-1.4a3.89 3.89 0 01-1.75 1.05" fill="#2b3636"/><path d="M314.15 197s1.92-6.82 1.75-9.27c-.18-2.62-.7-15.38-.7-16.95v-3.85l.87-.17s.7 9.44.7 14a110.73 110.73 0 01-.52 12.59c-.53 1.57-1.23 3.84-1.23 3.84l-.87-.17" fill="#bce6fb"/><path d="M311.35 106.11c-.17.53.7.7.35 1.4a4.41 4.41 0 01-2.62.53c-.18-1.4 1.05-2.1 2.27-1.93M314.85 106.11c-.18.35.17.88-.18 1a13.92 13.92 0 01-2.62.7c0-.35-.17-.87 0-1.22a7.27 7.27 0 012.8-.53M294.21 106.29c0 .52 0 1.22-.7 1v.52a8.29 8.29 0 01-2.1.18c0-.53 0-.88.35-1.05.35-.53 1.58.17 1.58-.7h.87M299.81 107.51c.17.35.17 1-.35 1.22h-.88v-1.39l1.23.17M293.34 108.91c0 .35 0 .87-.18 1h-.87c-.35-.7.17-1.4 1-1M317.12 110a1.68 1.68 0 01-.17 1.57v.7h-1.75v-1c.52.18.7-.35.7-.7l.17-1.22c.35.17 1.4-.18 1.05.7M295.43 110.66c-.17.52.18 1.57-.69 1.4a.67.67 0 00-.53.17c0 .17.18.17.18.17-.35 0-.88.18-1.23-.17-.35 0-.17.35-.17.7h-1.23a4.07 4.07 0 01.53-1.75h1.92a.64.64 0 01-.17-.52 3.61 3.61 0 011.39 0M293.86 113.28c0 .35.18.87-.35 1h-.7v-1.18l1.05.18M292.29 114.85l-1.23-.17a1.09 1.09 0 01.35-1.23h.88v1.4M316.6 113.45c.17.7-.7 1 0 1.4h.87a3 3 0 01.18 1.75h-1c0-.18.17-.52 0-.7-.35.52-.7.52-1.23.52-.52-.17-.17-1.22-.35-1.74.53-.18-.17-1.05.35-1.23h1.23M293 116.42c-.18.18-.7-.17-.88.18.18.35.53 1.05 1.05 1.22 1-.17.35 1.05.53 1.58-.18 0-.35 0-.18.35-1.22.52-1.05-1-2.1-.53 0-.17-.17-.17-.17-.35-.35 0-.18.53-.35.53h-1.05c.17-.35-.18-1.05.35-1.05a3.12 3.12 0 00.52-2.1h.18v-.7c.87.53 1.22-.7 2.1-.17v1M297 117.3c0 .7.17 1.22.52 1.4v.87h-1.22c0-.7-.7-.7-.53-1.4-.69 0-.87-.7-.69-1.22.87-.35 1 .7 1.92.35M312.4 117.82c0 .18-.17.35 0 .35 0 .53 0 1.4.7 1 0 .35.18.87-.17 1h-.88c-.17-.52.18-1-.35-1.22h-.7v-1.23h1.4M298.23 119.75c0 .87 1 1 .53 1.92-.7.17-.18 1-.35 1.75h-1.05c0-.53-.35-1-.18-1.58 0 0 .18 0 .18-.17v-1.92h.87M311.18 120.79a1.92 1.92 0 01-.35 1.4h-1.05c0-.87.35-2.1 1.4-1.4M317.3 124.11v.18c0 .17 0 .17.17.17a4.12 4.12 0 01-1.22 2.8h-.88v-.17c0 .17-.52.17-.87.17-.35-.87.35-1.4.87-1.75.7-.35.7-2.09 1.93-1.4M302.61 125.69c-.18.7 0 1.4-.18 2.1 0 .52-.7.34-1.05.34l-.17-2.62c0 .18.17 0 .17-.17a1.68 1.68 0 011.23.35M298.58 128.13h-1.22a5 5 0 01.35-1.57h.87v1.57M286.34 128h.52c0 1-.7 1.92-.87 3-.17.35-.35.88-1.22.7 0-.35-.18-.17-.35-.35a2 2 0 01-.35-1.75c0-.35 1.75-.17.52-.35-.17-.87.53-1.22.53-1.92h1l.18.7M297.53 128.49v1.04h-1.22v-1.04h1.22z" fill="#010101"/><path d="M327.44 62.59l-3.15 11a1.36 1.36 0 00-.17.7c.17.18.17.35.52.35h.36a.89.89 0 00.35-.7l3.15-11a1.28 1.28 0 00.18-.7 1.55 1.55 0 00-.53-.35c-.17 0-.35 0-.35.18-.17 0-.35.17-.35.52" fill="#232364"/><path d="M291.41 129.53c0 .35-.35.35-.52.53h-.7c0-.53-.35-1.23.17-1.23s1.23 0 1.05.7M297 130.23a1.88 1.88 0 01-.35 1.4c-.35.18-1.05.18-1.23-.17-.69-1.23.88-1.4 1.58-1.23M320.62 131.46h-1.05c0-.35-.17-1.05.18-1.23h1.05l-.18 1.23M287.21 130.93c0 .35.35.7-.17 1h-.88c-.17-.87.35-1.4 1-1M293 132.68c.17 0 1.05-.18 1.05.17v.88c-.53.17-1.4-.18-1.23.35-.52 0-1.22.17-1.22-.53l-.18-.87c.35.17.35-.35.53-.35.35 0 1.05-.18 1.05.35M287.91 132.33c.18.35 0 .52.18.52h.35v1.05c0-.17-.18 0-.18 0v.18H287a5.06 5.06 0 01-.53-1.75h1.4M295.78 132.85c.18.35-.17.7-.17 1.05-.18 0-.87.18-.87-.17-.35-.88.35-1 1-.88M310.48 134.43c.17.35-.18.7-.18 1-.17.34-.7.17-.87 0-.53-.35-.18-1 0-1.4.35 0 .87 0 1.05.35M289.84 135.13c.35 0 .35.17.52.17v1c-.52 0-1.05.17-1.4-.35-.17.35 0 .7 0 1.05h-1.22v-1c.7.17.52-.52.52-1.05.18 0 .7.18.53-.35.52 0 1 0 1 .53M291.76 137.22a9.49 9.49 0 00.88 1.4c1.05 0 .52 1.22 1.05 1.75-.35.7.52.87.7 1.4.7-.35.52.52 1.22.17.87-.17.87 1.05 1.75.53a2.75 2.75 0 002.45.52l.17.35c.35 0 0-.7.53-.7-.18-.52.35-.87.35-1.4a1.78 1.78 0 011.75.53v.7c-.18 0 0 .52-.18.7h-.87V143c-.18 0-.35 0-.35.18v1c-1-.35-1.23.53-2.28.18-.17.17-.52 0-.87.17 0-.35-.53-.17-.7-.17 0 0-.35.17-.18.35h-1.57v-.53c-.18-.17-.52.18-.7.35v.88h-1.22c-.18-1.05 1.05-1.75.35-2.62H293c0-.7-.18-1-.18-1.75-.17 0-.35-.18-.52 0 0-.35.17-.88-.18-1-.52 0-1.05 1-1.75.35l.18-1.4c.17 0 .52.18.7 0-.35-.35-.35-.87-.88-1.22a.17.17 0 01-.17.17v-1.4c.7.18 1.57-.17 1.57.7M297.18 136.7c.18.7-.17 1.05-.17 1.75H296c0-.7.35-1.23.17-1.75h1.05M319.92 139.67v1.57c-.17 0-.52-.17-.52 0-.18-.35-.53.18-.7.18-.35 0-.7.17-1.05 0v-2.1c1.05-.17 1.22.52 2.27.35" fill="#010101"/><path d="M289.66 140.54c0 .53.53.35.88.53v.35h.7c0 .35.17.52 0 .52.35.18.17.7.17.88-.52.17 0 1-.87 1v.7h-1.4c-.18-1.05 0-1.92-.18-2.79-.17-.18-.52 0-.87 0a2 2 0 010-1.75 2.44 2.44 0 011.57.52M308.38 141.24c-.35-.17-.7 0-1.05 0v-1.05h1.05v1.05M307 141.07a2.33 2.33 0 01-.35 1.57h-.7c-.18.35 0 .87-.35 1.05h-.87v-1.05h1c.18-.52 0-1 .18-1.57H307M308.38 142.64a7.23 7.23 0 010 1.92h-1.05v-1.92h1.05M289.66 145.61l1 .18c.18.52-.35.87-.17 1.4a6 6 0 01-1.75 0v-.35a.56.56 0 01-.35.17 2.32 2.32 0 01.17-1.57c.35.17.88-.18 1.05.17M297.36 151.55c0 .7.7 1 .17 1.93A21.5 21.5 0 01297 157h-1.23c-.35-1.05.7-1.92.35-2.79 0-1.05-.7-3.32 1.23-2.63M297 160.82c.17.35-.18.7-.35 1.05h-1.23c0-.35-.17-.88.18-1.05h1.4M286.51 161.87l-.17 2.09h-1.22c0-.87.35-1.39.35-2.27.35 0 .87-.17 1 .18M297.88 163.79a4.89 4.89 0 001.58 0c.35.17.52 0 .7-.18v-.35c.7.18 1-.52 1.57-.34 0-.18 0-.18.18-.35h.87c-.17 1 0 2.44-.17 3.67-.35.35-1.4.35-1.05 1.22-1.23 0-2.28.52-3.68.52-.17-.7.53-1.57 0-2.27-.52.18 0 .53-.35.88v1.57c-.52 0-.7.17-1.22 0 0-.35 0-1-.53-1-.52.17-.17.87-.35 1.22-.69-.17-1.39.53-2.44.35v-1.22h.7l.17-1.75-.17-.17h-.18v-.88h.35c.18-.52-.35-1.57.53-1.22h.7a3.34 3.34 0 000 2.27.53.53 0 00.17-.7l1.57-.17c0 .17 0 .17.18.17h.17v-.7l-.52-.17c-.35-.7.17-1 .17-1.75h1.05v1.4M290.89 163.79a41.26 41.26 0 000 4.72c-.88.35-1.58-.7-2.1.35v.7a1.37 1.37 0 00-.88.17c.18.18.53 0 .88 0-.18.53 0 .88-.18 1.4-.17 0-.7 0-.87-.18 0 .18-.18.18-.18.35h.18c0 .35.17.88-.18.88-.17.35-.35.35-.52.52h-.7c-.18-.7.17-1.4.17-1.92.53-.17 1.4.18 1.23-.7l-.88-.17a12.8 12.8 0 01.18-2.45.34.34 0 00-.53-.18v-1l1.4-.18c.18.35-.35 1.05.35 1.05h.7c0 .17 0 .17.18.17.35.18.35-.35.35-.35a18.89 18.89 0 01.35-3.32c.35 0 1.05-.17 1.05.18M292.64 164.84c-.18.52.35 1.22-.18 1.4v2.62l-1.22-.18a27.7 27.7 0 00.17-3.84h1.23M286.16 166.93c-.34 0-1 0-1-.34v-.88h1v1.22M316.07 166.76c.53.17.18.7.18 1.05H315a4.19 4.19 0 01.18-1.57c.52 0 .87 0 .87.52M296.48 169.21c-.52 1 1 1.22.7 2.27v.7c-.35 0-.87-.18-1.05.35v.7l-1.22-.18c0-1.22.7-2.62.52-4 .35.18.7-.17 1.05.18M319.75 171.3l-.18 2.1a1.65 1.65 0 01-1.57 0c0-.17-.18 0-.35 0-.18-.87.35-1.4.35-2.1a6 6 0 011.75 0M288.26 173.4c-.17.53 0 1-.17 1.57-.88-.52-1 .88-2.1.35a6 6 0 000-1.74c.87 0 1.4-.35 2.27-.18M292.29 174.8h-.88c-.17-.35 0-.87 0-1.22h.88v1.22M319.4 176.2c.17.52-.18 1.05-.18 1.57h-1.05c0-.87 0-1.92 1.23-1.57M286.86 176.9c.18.17-.35.7.18.7 0 .35-.18.87.17 1h.18a2.36 2.36 0 01-.35 1.58c.35 0-.18 1.22.52 1.05v.87l-.17.17c0 .53 0 .7-.35 1.05h-.7a27.68 27.68 0 01-.35-3.84c-.18-.53 0-1.4-.35-2.1-.17-.87.87-.35 1.22-.52M319.22 181.44h-1.05c0-.52-.17-.87 0-1.22h1.05v1.22M287.91 183.54c.18.87.7 2.1 0 2.8-1.22.52-.87-.7-1.22-1.23.17-.52-.35-.87-.18-1.57h1.4M319.05 184.76H318c0-.35-.18-.7.17-1h.88v1M294 186.86v.7h-1v-1.05c.35 0 1.05-.35 1.05.35M317.47 187.73h-.87a2.88 2.88 0 01-.18-1.22h1.05v1.22M288.79 187.21c-.35.7.7 1 .35 1.92-.53 0-1.93.53-1.75-.52.17-.35-.18-.88 0-1.4h1.4M318.87 188.08c.18.35 0 .88 0 1.23h-1.05c0-.7.18-1.4 1.05-1.23M293.34 189.13c-.18.53 0 .7 0 1.05a4.06 4.06 0 01-1.4.35l-.18-1.4h1.58M289.14 191.05h-1.23c0-.52-.35-.87-.17-1.57h1.4v1.57M308.73 189.83c-.18.53.17.87-.35 1.22h-.7c0-.69 0-1.57 1.05-1.22M292.81 190.88c-.35.7.35.87 0 1.57h-2.27v-1.22c.35 0 .17-.18.17-.35h2.1M288.79 191.93c.17.35-.18.7 0 1v.17h-1.05a2.65 2.65 0 01.17-1.22h.88M309.08 196.47c-.7-.17-1.23.35-1.93.18-.17-.35 0-.88 0-1.23h2.1l-.17 1.05M315.55 197h.35v1.22h-2.1c0-.52-.17-1.05.18-1.22h1.57M308 198.22c0 .17.17.52-.18.52a.18.18 0 01.18.18v.17a4.32 4.32 0 01-2.1-.35v-.87c.87-.35 1.57.35 2.1.35M312.23 197.87a.92.92 0 01-.7 1.22h-.7c0-.35-.18-.87.17-1.22h1.23" fill="#010101"/><path d="M266.4 191.93l1.92 1.75c1.58 1.22.53 3.14-.35 4.19-1.05 1.22-3 2.62-4.37 1.4l-1.92-1.57 4.72-5.77M272.35 196.82l-4.2 5.94-1.05-.7 4.2-6.11 1.05.87zM276.72 199.44l1.05.7-5.42 5.25-.88-.53 1.93-7.34 1.22.7-1.75 5.42 3.85-4.2zM280.04 201.19l-3.15 6.64-1.04-.52 3.14-6.64 1.05.52zM281.62 201.89l2.45.87c1.92.7 1.57 2.8 1.05 4.2s-1.75 3.32-3.5 2.8l-2.45-1 2.45-6.82M287.91 208.36l-.35 1.74 3.15.88-.35 1.22-4.37-1.05 1.75-7.16 4.2 1.05-.18 1.22-3.15-.7-.35 1.57 2.8.53-.35 1.4-2.8-.7zM293.51 205.39l2.62.17c2.1.35 2.1 2.45 2.1 3.85-.35 1.57-1.05 3.67-3 3.49l-2.45-.35.7-7.16M302.43 206.08l1.23-.17c1 4 1.22 4.54 1.39 5.42 0-.88.18-1.57.53-5.42l1.22-.17c1.05 4 1.05 4.36 1.23 5.24.17-.7.17-1.22.7-5.42H310l-1.22 7.34-1.05.18c-.88-3.5-1.05-4.2-1.4-5.6-.18 1.4-.18 1.93-.53 5.77h-1l-2.28-7.17M313.1 209.06l.35 1.74 3.32-.52.18 1.22-4.37.88-1.58-7.17 4.37-.87.18 1.22-2.97.7.17 1.57 2.97-.7.18 1.23-2.8.7zM324.3 204.34l.52 1.22-2.45.88 1.23 2.97-1.23.34-2.62-6.81 3.85-1.57.52 1.22-2.8 1.05.7 1.57 2.28-.87zM329.02 206.96l-1.05.52-1.75-7.34 1.22-.7 5.43 5.42-1.23.7-1.05-1.22-1.92 1.05.35 1.57zM330.42 197.69l1.05-.69 3.32 4.89 2.45-1.57.87 1.05-3.5 2.44-4.19-6.12zM334.96 194.55l.88-.87 4.02 4.54 2.1-1.92.87 1.05-3.14 2.62-4.73-5.42zM266.05 112.75c1.22 1.4 1.22 2.63.18 3.67a1.8 1.8 0 01-1.93.7c-.7 0-1.05-.35-1.57-.87l-3.5-3.5.87-.87 3.33 3.32c.7.7 1.4.7 1.75.35.7-.52.52-1.22 0-1.75l-3.5-3.49 1.05-.88 3.32 3.32M266.93 108.73l3.14 4.02-1.05.7-4.37-5.76 1.05-.88 4.9 2.8-2.97-4.2.87-.69 4.37 5.94-.87.7-5.07-2.8v.17zM271.65 102.79l3.85 6.29-1.05.7-3.85-6.29 1.05-.7zM279.17 106.99l-1.05.52-2.8-5.42-1.57.88-.53-1.23 4.2-2.09.7 1.22-1.57.7 2.62 5.42zM282.14 102.27l.53 1.75 3.14-1.05.36 1.22-4.03 1.4-2.62-6.82 4.02-1.57.53 1.22-2.98 1.23.53 1.39 2.62-1.04.53 1.22-2.63 1.05zM296.31 94.58l1.4-.18c.87 4 .87 4.55 1.05 5.42.17-.87.17-1.57.7-5.42h1.22c.88 4 .88 4.37 1.05 5.25.18-.7.18-1.23.88-5.42h1.22l-1.4 7.51h-1.22c-.7-3.67-.88-4.37-1-5.76-.18 1.39-.18 1.92-.7 5.76h-1.23l-1.92-7.16M306.98 98.77l-.18 1.75 3.15.35-.17 1.4-4.38-.53.7-7.34 4.38.53-.18 1.22-3.15-.35-.17 1.57 2.97.35-.17 1.23-2.8-.18zM315.9 101.22a1 1 0 00.87 1.4c.53.17 1.23.17 1.4-.53.18-.52-.17-.87-.87-1.22l-.53-.35a2.07 2.07 0 01-1.22-2.62c.35-.7 1.05-2.1 2.8-1.4a2 2 0 011.57 2.8l-1.05-.3a1.14 1.14 0 00-.87-1.4c-.53 0-1.05 0-1.23.7-.17.52.18.7.35.87l1.23.88a1.81 1.81 0 011 2.27 2.47 2.47 0 01-4.73-1.4l1.23.35M322.55 105.94l-1.23-.53 2.28-5.59-1.58-.7.53-1.22 4.37 1.92-.53 1.22-1.57-.7-2.27 5.6zM326.04 107.51l-1.05-.52 5.43-5.42 1.22.7-1.75 7.34-1.22-.53.35-1.57-1.93-1.05-1.05 1.05zM334.96 106.81l-3.14 4.2-.88-.53 4.37-5.94 1.05.7-1.22 5.59 3.15-4.19.87.7-4.37 5.94-1.05-.7 1.22-5.77zM341.26 109.08l1.75 1.75c1.57 1.4.35 3.15-.7 4.2-1.05 1.22-3 2.44-4.37 1.22l-1.75-1.92 5.07-5.25" fill="#21205f"/><path fill="none" stroke="#010101" stroke-width=".98" d="M298.93 164.31v-.17h0v.17z"/><path d="M299.46 107.34c.17-.35-.53-1.4-1.23-1.58-2.1-.52-4.37-1.05-6.64.53-1.23.7-1.58 2.1-1.93 3.32-.17.52 0 1.57.7 1.4a4.52 4.52 0 001.23-2.8" fill="none" stroke="#010101" stroke-width=".54"/><path d="M290.36 111a5.78 5.78 0 00-.52 5.07l.87.52M289.84 111.88c0-.35.35-.7-.18-1.22M316.07 106.46l.35.18c.18.35.35.17.53.35a7 7 0 01.7 5.24 1.17 1.17 0 01.52 1.4l-1.05 1.4M317.65 112.23h-.88M316.07 106.46H315l.18-.7c-1.05-.17-3-.52-4.2.35M315.2 105.76c.35.18.87.35.87.7M294.91 105.94l-1.05.35M311.88 107.16h-.18M296.13 108.21l-.7.35c0 .17-.17.52.18.52M295.43 109.08c-.17.53-.69.7-1 1.4M295.09 109.43c-.18-.17-.18-.35-.53-.35M295.26 109.08l.17-.52M296.13 108.21a1.36 1.36 0 00-.17-.7M298.06 107.86l-.18.53M298.06 107.86l.7-.17M293 108.73c.17-.34.7-.52.52-.87M312.05 108.73c.18.35.53.35.88.18M312.58 109.08c-.88.35 0 1.23-.35 1.93l.52.52.53-.17a3.07 3.07 0 01.17-1.4M312.75 111.53l.35 1c0 .17.35-.18.53-.18.35.18.52.18.7 0v.18M313.28 112.58c-.18-.18-.35.52-.35.7M312.93 113.1l.17-.52M312.23 109.43l.17-.35M312.05 108.73c0-.34-.17-.69.18-.87M308.9 110.83h1.58M309.6 111.01l.18.87M309.6 111h-.52a7.73 7.73 0 00-.88 2.62c1.05 0 .7 1.75 1.58 1.4-.18.87-1 1.74.17 2.44l.53-.17.17-.53c1.4-1 2.8-1.22 4.37-1.74M310.48 117.3l.52.35M309.78 115.03l-.7-.35M308.38 112.4c0-.69.87-1.39.35-1.92l.52-2.27M298.93 111.18c0 1.22 1.05 1.75.88 2.62l-.88.7c.18.35-.17.7-.35 1 0 1 .35 1.92-.7 2.27l-.7-.17" fill="none" stroke="#010101" stroke-width=".54"/><path d="M298.58 115.55h-.52c-.53-.7.17-1.22.35-1.75M298.23 114.15l.7.35M298.58 111.36a2.91 2.91 0 01-.7.52M298.58 111.36l-1.22-.35M298.58 111.36c.88-.88.53-1.75.53-2.63M316.77 109.08v.18M290.71 113.1c.7-1 .7-2.44 1.4-3.32M292.81 110.13l-.35 1.23M295.61 110.66h-.18M314.85 111.18l.35.18M316.77 112.23v.17M314.67 113.63l-.52.17M314.67 113.63c.7-.18.7-.7.88-1.4-.35.52-.18 1.92-.88 1.4M294.21 112.93l-.17-.53M291.94 112.93l-.18.35M292.81 112.93v.52M309.6 113.1v.18M292.46 113.45h.35M295.96 113.63l.52.52M294.39 115.38l1.04 1.74M294.39 115.38l-1.05-.35c-.35-.18-.35.35-.88.17l-.17-.35c.35 0 .52.35 1 .18l-.18-.88M293.34 115.03l1.05.35M291.06 114.85v.7M313.63 118c.7 0 1.39-1 1.92-1.4" fill="none" stroke="#010101" stroke-width=".54"/><path d="M313.63 118l-.18 1.57h.35c1.22-.87 2.8-1.75 4-2.62l.88 1c1.75 3.84 3 8.39 1.4 12.41M313.28 118.17c0-.17-.35.35-.88.35M312.75 117.47a12.65 12.65 0 012.27-1.39M313.1 117.3l.53.7M294.91 117.47a3 3 0 01-1.92-1M295.09 118.87c-.18-.52-.88-.35-1.4-.7M296.66 119.57c0 .52-.7 1.05-.53 1.57l1.23 1M295.96 120.79l-2.27-1.57M310.48 120.62a6 6 0 01.52-1.4M289.66 119.22l-.17.35c-3 2.1-3 4.89-4 7.69M289.49 119.57l.17-.35M291.76 119.22l.18.35M290.54 119.22l.17.53M297.71 119.57v.18M292.99 119.57l2.1 2.8M312.4 120.09l-1.05.88M317 121.49c0 .88.52 1.93 0 2.28" fill="none" stroke="#010101" stroke-width=".54"/><path d="M317 121.49a2 2 0 00-1.58-1c-2.79.7-5.07 3.5-5.77 5.07-1.22.88-.87 1-1.22 1.93l-2.8 2.27c-.18.35-.35.52 0 1M305.4 130.06c-.17-.35-.52-.18-.87 0l-.17.7M304.53 130.06c-2.1-.7-4.72 0-6.3-1.23l-.87.18M298.23 128.83v-.52M301.21 129.18v-.7M305.05 129.88l.53-.17M308.38 126.21a8.93 8.93 0 00-3.5 1.58v.52M304.88 127.79l-2.27-1.75" fill="none" stroke="#010101" stroke-width=".54"/><path d="M308.73 126.39v-.53l1-3.67h.35c-.7.53-.7 1.93-1.23 3l.7.35.45-.54M310.3 124.46a7.57 7.57 0 012.28-2.44M301.56 125.16a26.12 26.12 0 01-2.63-3.49M286.86 127.79c.53-1.75.53-3.15 1.58-4.9M297.36 123.77c.35 1.74-.88 3-.88 4.54a2.15 2.15 0 00-1.57-1.92c-.52.35-.35-.35-.7-.53-1.75-.35-3.32-.87-4.55.18v.35a4.11 4.11 0 001.93.35c-.53.35-1.58 0-2.1 1.22v.52l1.75-.52" fill="none" stroke="#010101" stroke-width=".54"/><path fill="none" stroke="#010101" stroke-width=".98" d="M289.49 128.49l.17.34.35.35"/><path fill="none" stroke="#010101" stroke-width=".54" d="M290.36 127.09v-.35"/><path fill="none" stroke="#010101" stroke-width=".98" d="M294.21 125.86h.35l.35.53"/><path fill="none" stroke="#010101" stroke-width=".54" d="M295.96 127.09l.52.17M296.83 126.91c.18-.7-.7-1.22-.7-1.92M296.66 125.86l.17.18M297.18 123.77a1.12 1.12 0 01-.87-.88M298.06 126.39c.35-.35 0-.88.17-1.58v-1.39M319.05 131.11l.35.17c-.53 0-.7 1.75-.88 2.27l.7.53a.88.88 0 00.88-1.05l.17-1.57M319.92 134.08c-.17 1.92-.17 3.14-.35 5.42"/><path fill="none" stroke="#010101" stroke-width=".98" d="M319.57 137.4l-1.05.35-.7 1.4v-.18l-1.4.87"/><path fill="none" stroke="#010101" stroke-width=".54" d="M317.82 138.97l.18-.52M318.52 137.75c-1-.88-1.92.87-2.45 1.05"/><path fill="none" stroke="#010101" stroke-width=".98" d="M318 137.4l.52-1.4-.35-.53-.7.35-2.1 2.45"/><path d="M318.17 135.48c.53-.18.7-1.4.35-1.93l-.52.18-1.93 2.44M318 133.73l.7-.88M319.05 131.63c-.18-1.4.35-3.15 0-4.72l-.7-3.32M300.51 127.26a4.19 4.19 0 00-1.05-2.62M314.15 127.61c-1.22.7-3.67 1.75-4.72 2.45" fill="none" stroke="#010101" stroke-width=".54"/><path d="M313.45 128c.53-.7.53-.17 1.05-.7l-.35.35M312.23 131.81l-.35.52M311.88 131.81l-.35.34-4 2.28c.18 1.92 0 3.49.18 5.94M307.5 137.4c-1.22-.18-1.75.17-2.79 0-.88.52-1.58.35-2.1 1.4 0 .7.52 1.22 1.05.87.17-.87.7-.7 1.22-.87.7.7 1.57.7 1.57 1.74v.53" fill="none" stroke="#010101" stroke-width=".54"/><path d="M302.61 138.8c-.18-.18-.7 0-1.23.17l-.17 2.27M301.21 140.54c-.53-.52-1 .53-1.75.18l-.88.7" fill="none" stroke="#010101" stroke-width=".54"/><path d="M299.11 141.07v-.35a12.91 12.91 0 01-3.5.35M299.11 140.72h.35M301.21 140.54l.17-1.57c-.52-.35-1.92-.17-2.1-.87l-2.1-.88M299.28 138.1a15.58 15.58 0 001.23-1.75" fill="none" stroke="#010101" stroke-width=".54"/><path d="M300.51 138.8l.87.17-.17-.52a30.57 30.57 0 00.17-3.85l-3.15-1a10.61 10.61 0 00-.87 3.15M298.23 133.55c-.17-.7-.7 0-.7-.35a13.72 13.72 0 00-1 3.5c.18-1-.87-1.57-1.22-3M296.31 135.65l.35-.17" fill="none" stroke="#010101" stroke-width=".54"/><path d="M297.18 133.38c0-.35-.7-1-1.05-.88l.18-.52.17.52M297.18 133.03l1.05.52" fill="none" stroke="#010101" stroke-width=".54"/><path fill="none" stroke="#010101" stroke-width=".98" d="M301.38 134.6l3.5.35.18-.35-1.23-1.05"/><path d="M305.05 134.6c.88.35 2.1-.17 2.45-.17M311.53 132.15c1.4-.52 3-3.14 4.19-4.36l-3.49 4M297.53 128.31h-.17M296.48 129.18l-.35.88M297.18 129.18l-.35.88M288.26 130.06l-.52 2.27M289.84 130.58c1.05.35 1.57-.35 2.27 0a5 5 0 003.15.35h0c-.52 0-.52 1.22-.52 1.4l.35.35" fill="none" stroke="#010101" stroke-width=".54"/><path d="M294.74 132.33l-.35-.18c0 .53-.35 1 .17 1.23-.17 0-.35.17-.52 0l.17-.35M294.39 132.15l.35-.34M289.84 130.58c-.18-.17 0-.52 0-.52" fill="none" stroke="#010101" stroke-width=".54"/><path fill="none" stroke="#010101" stroke-width=".98" d="M286.86 130.76v-.35l.18.35h-.18"/><path d="M288.79 133.2c.52 0 1.4.53 1.57-.52v-1.05M290.19 133.03h1.4M289.49 133.38c-.53.35-.18.7-.53.87M289 133.9c-.87-.52.18-1.92 0-2.79M292.11 131.63v.52M285.99 132.33l.17-.35M285.99 132.33l.7.35" fill="none" stroke="#010101" stroke-width=".54"/><path fill="none" stroke="#010101" stroke-width=".98" d="M285.99 132.33h-.35l-.35-.7"/><path fill="none" stroke="#010101" stroke-width=".54" d="M286.86 131.98l-.17.7M308 132.33a5.7 5.7 0 01-2.45-.35M293.51 132.33v.17M294.74 136.52a30.24 30.24 0 01-2.28-2.44M287.91 138.8a2.46 2.46 0 001.58.52c.35-.87-.88-1.4-.88-2.27"/><path fill="none" stroke="#010101" stroke-width=".98" d="M289.49 138.45h.52v-.7l-.35-.35"/><path fill="none" stroke="#010101" stroke-width=".54" d="M290.01 138.45l.35.35"/><path fill="none" stroke="#010101" stroke-width=".98" d="M289.49 138.62v.7l.7.52"/><path d="M289.49 139.32a1.93 1.93 0 01-1.05-.17v.85M288.44 139.5c-1.23-1.58-.7-3.68-1.23-5.25M287.91 134.25l.35.7M305.05 134.6l.53.18" fill="none" stroke="#010101" stroke-width=".54"/><path fill="none" stroke="#010101" stroke-width=".98" d="M318.52 136l1.05-.18.18.35h-1.05"/><path fill="none" stroke="#010101" stroke-width=".54" d="M290.19 136.52h.17M310 138.45h-.35c-.52-.35-.35-.7 0-1 .7 0 .53.52.35 1M296.66 138.1v.52M296.31 139.84a5.58 5.58 0 01-3-.52M290.89 140.54l-.35.53M309.43 140.89c.35 3.67.52 8.39 1.4 12.24 1.05 4.37 2.62 9.61 4.72 13.28"/><path fill="none" stroke="#010101" stroke-width=".98" d="M309.43 140.89h-.88v-.35l.88.35"/><path d="M292.29 140.72c-.35.17-.88.52-.88.7" fill="none" stroke="#010101" stroke-width=".54"/><path fill="none" stroke="#010101" stroke-width=".98" d="M307.5 142.47v-1.23h-.52.52"/><path fill="none" stroke="#010101" stroke-width=".54" d="M320.97 162.22l-1.57 9.08M321 162.22c.7-7.34-.52-14.16-1.4-21.33M290.54 141.07l.35.52M317.82 147a28.72 28.72 0 010-5.42M289 142.47l-.7-.18c-2.62 2.1-3.67 4.55-3.14 7.69.35.53.52.88.87.88a4.85 4.85 0 003-3.15l-.7-.18-2.1 1.93M288.26 147.54l.18-.53M288.96 147.71v-.35M286 150.86c.52 3.49 0 7.16-.17 10.66M288.26 142.29h0v-.52M304.71 143l-.7-.17c0 .35-.18 1 .52 1.22l.7-.53"/><path fill="none" stroke="#010101" stroke-width=".98" d="M303.66 143.69l-.53-.18-.35-.35"/><path d="M303 143.34l.17-.87-.35-.35c.35.7 1.23.52 1.93.87M305.4 142.29l.18.35M292.29 142.64l.17.53" fill="none" stroke="#010101" stroke-width=".54"/><path fill="none" stroke="#010101" stroke-width=".98" d="M292.29 142.64l-.88-.17 1.4.17"/><path fill="none" stroke="#010101" stroke-width=".54" d="M318.7 159.07l.17 8.91M318.7 159.07c0-6.12.87-10.31-.18-16.08M302.26 153.3h.17l-.17.7c.17 2.62.35 5.77.35 8.39M302.26 153.3a75.94 75.94 0 00-1.23-9.09M289.14 144.39v1.05M290.54 145.26c.87.7 2.27.35 2.8.35a3.7 3.7 0 00.35 2.1c.7 0 1.74.17 1.74-.35.18-.87-.69-1.22-.69-1.75"/><path d="M295.43 147h1.05c.35-.52.7-.7.35-1.75l-.52.18c-.7-.18-.35-.53-.53-.53M296.83 145.09v.35M296.48 147.01v4.37" fill="none" stroke="#010101" stroke-width=".54"/><path fill="none" stroke="#010101" stroke-width=".98" d="M296.48 147.01l-1.04.35-.53 3.32"/><path fill="none" stroke="#010101" stroke-width=".54" d="M295.26 148.23l-.17-.52M294 147.88a3.26 3.26 0 01-3.68-.52"/><path fill="none" stroke="#010101" stroke-width=".98" d="M291.94 148.06l.17-2.27-.52-.18M290.54 145.79v-.53l-.18-1.05"/><path d="M298.23 148.41c-.87.52-.52 1.92-1.05 3M298.23 148.41l.35-3.85M307.5 145.09l.7-.18 1.05 11.71 2.8 22.9c.18 3 .18 5.94.18 9.09.35.7.87.35 1.57 1.4" fill="none" stroke="#010101" stroke-width=".54"/><path d="M312.75 189.13c-1.05.88-.52 2.62-1.05 3.67.35.35.88-.17 1.23 0a4.31 4.31 0 011.57 1.92h.17c2.1-9.43.53-17.12.7-26.74M314.67 194.72c.35.35-.34.18-.17.7l-.17 1.4M311.7 192.8c-.35.88-2.1 1.4-1.92 2.62l.87.53M309.78 195.42h-.53" fill="none" stroke="#010101" stroke-width=".54"/><path d="M310.13 194.37c-.53-.52-1.05-1.74-1.75-1.39l-.53.35c-.35.17-.7-.35-.87-.53-.35.18-1.4 0-1.05.7l.7.7M305.93 193.5a4.24 4.24 0 00-3.15.7v.52c.53.7.88.53 1.23.7l.17.18 2.8.17" fill="none" stroke="#010101" stroke-width=".54"/><path d="M304 195.42c-1.05-.87-1.58.53-2.63.7h-2.8c-.35.18.53.53.35.88.18.87-1.05 1.39-1.75 1.57a6.53 6.53 0 01-3.14-.35c-.7-.52-1.75-.52-2.1-.87-1.58-.7-3.33-.18-4.2-1.4a6.66 6.66 0 01.35-2.8M288.61 196.3l.35-.7" fill="none" stroke="#010101" stroke-width=".54"/><path fill="none" stroke="#010101" stroke-width=".98" d="M288.96 196.65l.53.17h.17l.18-.52M289.66 196.82l.88.18.17-.53"/><path fill="none" stroke="#010101" stroke-width=".54" d="M291.94 197.35l.17.17M293.34 197.87v-.35M293.34 197.87c.17.18 1.05-.35.7.35M298.58 196.3a5.69 5.69 0 01-2.8.52 33.52 33.52 0 00-5.94-1.92l-.7-.53-.18-1.22"/><path fill="none" stroke="#010101" stroke-width=".98" d="M298.58 196.3l-.52-.53-2.62-1.05-.53.35"/><path d="M295.43 194.72c-.52-1.22-1.57-1.57-2.79-2.44M298.06 195.77l.52.35M302.78 195.07v-.87l-2.1-.7c0-.7-.7-.7-1.05-1.05l-2.27-2.45-.53.17M297.36 190l-.18-.88c-1.05 0-1.75.88-2.62.88" fill="none" stroke="#010101" stroke-width=".54"/><path d="M297.18 189.13l-.17-1.22c-.35-.53-1.05.52-1.58.17l-.69-.35-.53.7.53.53-1.75.17.17-1 1 .35" fill="none" stroke="#010101" stroke-width=".54"/><path d="M294.74 187.73c-.53-.52-.53.18-.53-.52a16.87 16.87 0 002.8.7 8.58 8.58 0 00.52-2.62 1.09 1.09 0 00-1 0" fill="none" stroke="#010101" stroke-width=".54"/><path d="M297.53 185.29a4 4 0 00.53-2.45l-1.05.35M298.06 182.84c.7-.7.52-1.4.87-2.1-.35-.17-.7.18-1.05.35M298.93 180.74a36.4 36.4 0 001.23-6.64 9.76 9.76 0 001.22-6.47M307 192.8a3.13 3.13 0 00.7-1.57M307.5 191.93l.88 1.05M310.13 194.37l.52-.34M312.23 189.48v-.87M307.5 145.09c-.52 13.81-1.22 24.82.35 37.23a39.16 39.16 0 01.53 7.51h-.18M307.5 145.09v-.53M298.23 153.65a47.64 47.64 0 001.58-7.51M287.91 153.3l-.17 5.6M298.58 154.7l-1.75 5.94M294.21 162c0-1.22.88-2.45 1.22-4.19l.35-.7M296.66 156.8l-.7 4.02M298.41 159.42l-1.05 2.8M287 166.06c.35-1.4 0-3.67.35-5.07M287.74 166.06a15.3 15.3 0 00.52-4.19M295.43 162.04l-.52 1.22" fill="none" stroke="#010101" stroke-width=".54"/><path fill="none" stroke="#010101" stroke-width=".98" d="M296.48 164.66l-.69-.17-.18.35"/><path fill="none" stroke="#010101" stroke-width=".54" d="M295.78 164.49l.53-2.45M298.58 162.74l-.17 1.22M290.19 162.74v1.05M288.96 163.26l-.17 3.85M293.51 163.79c0 .35-.17.7 0 1.05a6.64 6.64 0 00-.17 2.62M293.51 163.79v-.35M292.29 164.84c.17-.53.35-1.23-.53-1.23l-.17 1M298.06 163.79l.35.17M285.29 163.96v1.75M286.16 163.96l-.17 1.75M286.51 166.93h0M297.88 167.81h-.35M318.35 171.48l-.35-.87h-.35c-.7.69-.53 1.74-1 2.09.17 2.8-.35 4.9.17 7.34a4.83 4.83 0 001.58-2.27M316.77 180c0 .88-.35 2.27.35 2.8l1.05-1.4M317.12 182.84c-.7.52-.35 2.8-.35 3.67M316.77 183.36v-.87"/><path d="M316.6 172.7c0-.7-.53-1.92-.35-2.79 0-.53.35-1.4 0-2.1.87 1.22 1.05 1.75 1.75 2.8M296.13 168.16a1 1 0 00-.35 1.05" fill="none" stroke="#010101" stroke-width=".54"/><path fill="none" stroke="#010101" stroke-width=".98" d="M295.61 168.68v-.52h.52"/><path d="M293 168.51c-.18.17-.53 0-.7 0M292.11 173.05v.35h-.35c1.05-1.22 1.23-3.32 1.58-4.72M288.44 169.56v.17M287.21 169.73l-.35 1.05M287.91 173.23c0-.35.53-.88.18-1.4l.17-.88-.17.88M297.18 172.18h.35M286.34 173.58c.17-.18.17-.53.35-1.05M293.69 178.99l.7.35M293.69 179c-.35.18-.18 1-.18 1.23l.88.52" fill="none" stroke="#010101" stroke-width=".54"/><path d="M293.51 180.22c-.17.17 0 .7 0 1.22l.7.35M293.51 181.44c-.52.35 0 .87-.17 1.92l.87.18M293.34 183.36c-.18.18.17 1.23.17 1.58l.7.35M293.51 184.94c-.17.52-.35 1.05.35 1.22" fill="none" stroke="#010101" stroke-width=".54"/><path d="M293.51 186c-.17.17.18.52-.17.52V186M293.69 179a15.39 15.39 0 011.22-5.76M297.36 173.75c-.53 0-.7-.17-1.23-.52M319.22 174.1v-.35" fill="none" stroke="#010101" stroke-width=".54"/><path fill="none" stroke="#010101" stroke-width=".98" d="M319.22 174.1l-.35 2.1h-.17M319.22 174.1l-.7-.17-.87 2.97"/><path d="M318.52 173.93c-.17-.18 0-.18 0 0M291.94 189.13a131.21 131.21 0 01.17-14.33M287.74 178.47v.17M287.74 178.47c0-.35.17-.52-.18-.87l-.52.17c.35-.52.87-.35.7-1.4-.18-.17-.53.18-.7.53" fill="none" stroke="#010101" stroke-width=".54"/><path fill="none" stroke="#010101" stroke-width=".98" d="M287.21 176.55l.53-.18v-1.4 2.98"/><path fill="none" stroke="#010101" stroke-width=".54" d="M286.51 175.15l-.35 1.57M319.05 177.77l-.35 2.45M287.39 180.22l.17-.53M287.91 181.44l-.17.18M318.52 183.71c.18-.7.18-1.39.35-2.27l-.17 2.27h-.18M287.91 183.01l-.17.35M318 184.94l-.53 1.57M318.52 188.08a9.24 9.24 0 00.18-3.14M287.39 186.51h.17M288.61 186.51l-.17.52M315.9 195.07c.35.18.87-.35 1.22-.87a48.7 48.7 0 01.88-4.89M317.12 194.2l.88-.2a14.17 14.17 0 00.7-4.72M318 194c.35 1.22-.18 2.09-.18 3.32a2.52 2.52 0 01-1.75.52"/><path fill="none" stroke="#010101" stroke-width=".98" d="M316.95 197.69v-.52l-.88.18"/><path fill="none" stroke="#010101" stroke-width=".54" d="M316.95 197.17l.87-.35M315.9 195.07l-.7 1.75M315.9 195.07l1.05-7.34M293.34 190.01l.87.69"/><path fill="none" stroke="#010101" stroke-width=".98" d="M292.29 190.71v-.18h.17l-.17.18"/><path fill="none" stroke="#010101" stroke-width=".54" d="M288.79 191.75l.17-.52"/><path fill="none" stroke="#010101" stroke-width=".98" d="M288.79 191.75h-.53l-.17-.7"/><path fill="none" stroke="#010101" stroke-width=".54" d="M290.36 192.45h.18M301.73 194.9c-1.22.7-3-.7-4.72-.53M309.25 196.3l.88.35M305.93 197.7v.52M305.75 198.05c.35-.18.7-1.58 1.4-1.4M312.23 198.39c.17-.69.87 0 1-.69l.35.17-1.4.52M309.78 198.92a.81.81 0 00.87 0M309.78 198.92l-1.58.17"/><path fill="none" stroke="#010101" stroke-width=".98" d="M309.78 198.92v-.35l-1.58-.18"/><path d="M309.78 198.57c.35-.35.52 0 1.05-.35" fill="none" stroke="#010101" stroke-width=".54"/><path d="M294.39 206.61l1.39.17c.53 0 .88.18 1.05.88a2.35 2.35 0 01.35 1.57 8.12 8.12 0 01-.52 1.57 1.54 1.54 0 01-1.57.88l-1.23-.18.53-4.89M282.32 203.46l1.05.35a1.57 1.57 0 011.05 1.23 2.58 2.58 0 01-.18 1.57 3.78 3.78 0 01-.87 1.4 1.36 1.36 0 01-1.75.35l-1.05-.35 1.75-4.55M266.4 193.68l.87.69a1.1 1.1 0 01.53 1.4 3.16 3.16 0 01-.7 1.58c-.35.35-.87.87-1.22.87a1.18 1.18 0 01-1.75-.17l-.88-.7 3.15-3.67M341.09 110.83l1.05.7c.35.53.52.7.35 1.4 0 .52-.53 1-.88 1.57a5.48 5.48 0 01-1.22.88 1.32 1.32 0 01-1.75-.35l-.88-.88 3.33-3.32M327.79 105.59l2.28-2.27-.7 3.14-1.58-.87zM328.32 204.16l-.7-3.14 2.45 2.44-1.75.7z" fill="#fff"/><path d="M286.16 96.33l2.45-.53c1.93-.52 2.8 1.4 3.15 2.8s.53 3.84-1.4 4.37l-2.45.52-1.75-7.16" fill="#21205f"/><path d="M287.39 97.37l1.22-.35a1.11 1.11 0 011.4.35 3.45 3.45 0 01.88 1.58 2.48 2.48 0 010 1.57c0 .7-.53 1-1.23 1.22l-1.05.35-1.22-4.72" fill="#fff"/><path d="M286.16 96.33l2.45-.53c1.93-.52 2.8 1.4 3.15 2.8s.53 3.84-1.4 4.37l-2.45.52-1.75-7.16" fill="#21205f"/><path d="M287.39 97.37l1.22-.35a1.11 1.11 0 011.4.35 3.45 3.45 0 01.88 1.58 2.48 2.48 0 010 1.57c0 .7-.53 1-1.23 1.22l-1.05.35-1.22-4.72" fill="#fff"/><path d="M204.48 126.21l8.05 1.92c.17 0 .17.18.17.18v.17l-.17.18-.7-.18a13.33 13.33 0 00-3.67-.52 9.17 9.17 0 00-3.5.52 1 1 0 00-.53.88c-.17.17 0 .52.18.7a3.68 3.68 0 00.87.52l17.49 4.2q.79.25 1.05 0l.53-.53a1.65 1.65 0 00-.35-1.22 2.33 2.33 0 00-1.05-1.22 10.69 10.69 0 00-3.5-1.58l-2.27-.52a.18.18 0 01-.18-.18v-.17h.35l2.1.52c2.27.53 3.67 1.23 4.55 2.27a2.61 2.61 0 01.7 2.45 2.76 2.76 0 01-1 1.4 3.93 3.93 0 01-2.28.7 32.14 32.14 0 01-6.64-.7l-2.45-.7a20.24 20.24 0 01-4.9-1.75 8.55 8.55 0 01-3.32-2.27 2.53 2.53 0 01-.35-1.92c.17-.7.87-1.23 2.1-1.57l-1.23-1.4v-.18zM215.85 118.52l4.9 1.75a11.22 11.22 0 015.77 3.5 4 4 0 01.53 2.79 3.55 3.55 0 01-1.4 1.4 5.08 5.08 0 01-2.45.52 17.18 17.18 0 01-4.9-.87l-5.6-2.1c-2.79-.87-4.54-2.09-5.42-3.49a2.5 2.5 0 01-.52-2.62 2.76 2.76 0 01.7-1.23 8.64 8.64 0 011.22-.7c.53 0 1-.17 1.75-.17a8.76 8.76 0 012.1.17c1.22.35 2.45.7 3.32 1zm8.57 8.22a6.23 6.23 0 001.58.17c.35-.17.52-.17.7-.52a1.28 1.28 0 00-.18-.7 2.35 2.35 0 00-.7-.53l-17-6.11a1.45 1.45 0 00-1.23 0c-.35 0-.35.17-.52.35 0 .35 0 .52.17.69a1.62 1.62 0 001.05.7zM210.43 111.71l-.52.69h-.35c0-.17 0-.17.17-.17l1.75-3.32 11.89 4.72-10.49-7.52 1.75-3.32v-.17h.17v.17c.18 0 0 0 0 .18l-.35.7 18 9.43.52-.87h.18l.17.17-2.27 4v.18h-.18v-.35l.35-.7-17.31-8.91 16.09 11a.54.54 0 00.35.17v.21l-.35.87h-.53l-18-7 15.74 8a8 8 0 001.05.35.64.64 0 00.53-.18l.34-.52c.18-.17.18-.17.18 0h.17v.18l-1.21 2.3h-.17v-.35c0-.35 0-.53-.18-.7a1.82 1.82 0 00-.87-.7l-16.62-8.56zM217.43 98.6l-.35.7-.18.17h-.17v-.35L219 96l11.19 6.46-9.44-8.91 2.27-3v-.18h.18l.17.18-.17.17-.53.7 16.62 11.89.52-.7h.19c.17.17.17.17 0 .17l-2.62 3.67a.18.18 0 01-.18.18v-.18h-.2v-.17l.7-.7-15.9-11.35 14.34 13.28c.18.18.18.18.18.35l-.53.87c-.17 0-.17 0-.52-.17L218.65 99 233 109.43c.53.18.7.35.88.35.35.18.52 0 .7-.17l.52-.35h.18v.35l-1.58 1.92h-.17v-.35c.17-.35.17-.52 0-.7a3.15 3.15 0 00-.7-.87l-15.39-11zM236.84 87.41l3.85 3.5a11.36 11.36 0 013.67 5.42 2.58 2.58 0 01-.52 2.79 3.36 3.36 0 01-1.75.88 6.15 6.15 0 01-2.45-.53 16.17 16.17 0 01-4.2-2.79l-4.37-4.2q-3.15-2.88-3.67-5.24a3 3 0 01.7-2.8 3.88 3.88 0 011-.7 3.52 3.52 0 011.4-.17c.53.17 1.05.35 1.75.52.7.35 1.23.7 1.93 1a11.25 11.25 0 012.62 2.27zm4.55 10.84a4.31 4.31 0 001.4.87c.35 0 .52 0 .7-.17a1.09 1.09 0 00.17-.7c0-.35-.17-.53-.35-.88l-13.12-12.23a1.87 1.87 0 00-1.22-.52c-.17 0-.52 0-.52.17-.18.18-.35.35-.18.52a1.91 1.91 0 00.53 1.23l12.59 11.71zM239.46 76.4a.91.91 0 00-.7-.52c-.17-.18-.34 0-.69 0l-.35.35h-.18l-.17-.18a.17.17 0 01.17-.17l1.92-1.58h.18v.18l-.18.17c0 .35-.17.53-.17.7a4 4 0 01.52.88l12.6 14.68-1.75 1.4-15-12.24 11.19 13.11c.35.35.7.52.88.7h.52l.52-.35h.18a.17.17 0 01.17.17.17.17 0 00-.17.18L247 95.45h-.18v-.35c.18-.35.35-.52.18-.7 0-.35-.18-.52-.53-1.05L234.22 79l-.53.53h-.17c-.18 0-.18 0-.18-.18h.18l2.8-2.44 12.06 10-8.92-10.51zM243.14 71.86l-.7.35a.18.18 0 01-.18-.18v-.17l3.68-2.27h.35v.17h-.18l-.52.52 8.57 11.19-5.6-11.54-.87-1-.53.35h-.35v-.18l.18-.17 3.67-2.28h.17V67l-.7.35 8.75 11.19-5.6-11.19a.64.64 0 00-.17-.35 2.49 2.49 0 00-.53-.7c-.17 0-.35-.17-.52 0l-.35.18c-.18 0-.18 0-.18-.18-.17 0-.17-.17 0-.17l1.93-1.22h.17V65a1.36 1.36 0 00-.35.7 4.3 4.3 0 00.35 1.4l7.7 15.73a4.62 4.62 0 01.52 1.4v.17l-.85.6c-.18.17-.35.17-.35 0l-1.05-1.23-10.17-12.61 7.35 14.68a10 10 0 01.52 1.22c0 .18 0 .18-.17.35l-.87.53h-.18c-.17 0-.35-.35-.87-.88l-12.07-15.2zM257.65 63.12l-.69.52-.18-.17c-.17 0-.17-.18 0-.18L264 60l3.32 7.17-.17.17h-.18a.56.56 0 00-.17-.35 13.46 13.46 0 00-2.45-3.67 5.2 5.2 0 00-2.1-1.74c-.35-.18-.7 0-1.05.17l-.87.35 4.2 8.91a1.77 1.77 0 00.7-1.22 4.58 4.58 0 00-.7-3.15l-.35-1v-.17h.35l4.19 9.44v.35h-.17l-.18-.18-.35-.87a5.38 5.38 0 00-2.09-2.62c-.35-.35-.88-.53-1.05-.35a.17.17 0 00-.18.17v.35l4 8.92.35-.18a2.11 2.11 0 00.88-.87 2.89 2.89 0 00.35-1.75 11.28 11.28 0 00-.18-2.45 18.51 18.51 0 00-.87-3.14l-.35-.7v-.35h.12l.18.17 3.5 7.87-7.35 3.14c0 .18 0 .18-.17.18v-.35h.17l.7-.35-8.4-18.7zM270.25 58.05l1.4-.52 8.74 18.7.53-.18c.17 0 .17 0 .35.18 0 0-.18 0-.18.17l-4 1.22h-.18v-.17a.17.17 0 01.18-.17l.52-.18-1.61-3.67-2.45.87.53 2.1v.35a1.8 1.8 0 00.52.87 1 1 0 00.7.18h.35v.35l-2.45.7h-.17v-.18l.17-.17.53-.53v-1.74l-3.5-18.18zm1.22 5.07l2.1 10.88 2.28-.87zM278.47 55.78l-.88.17a.17.17 0 01-.17-.17v-.18l4.72-.87h.18v.17h-.18l-.87.35 4 19.93.73-.18a3.68 3.68 0 00.87-.52 3.27 3.27 0 00.7-1.75 23.93 23.93 0 00.18-3.67 23.49 23.49 0 00-.18-2.45v-.35h.35l1.58 8.39-7.7 1.58h-.17a.18.18 0 00-.18-.18l.18-.17.87-.18zM290.36 53.68H290a.38.38 0 00-.35.35 1.35 1.35 0 00-.52 1.22 14 14 0 00-.53 4 24.57 24.57 0 00-.17 2.8v.7c-.18 0-.18 0-.18-.18-.17 0-.17 0-.17-.17l-.88-8.74 9.1-.87.87 8.74v.17H297c0 .17-.18 0-.18 0V61c-.17-.52-.35-1.4-.7-2.8a27.67 27.67 0 00-1.39-3.67 2.75 2.75 0 00-.7-1c0-.18-.18-.18-.35-.18h-.53l2.1 20.27h1.05c.17 0 .17 0 .17.18l-.17.17-5.07.53a.18.18 0 01-.18-.18v-.17h.18l1.22-.18-2.1-20.27zM300.16 73.26l.52-20.26h-.87l-.18-.17a.18.18 0 01.18-.18H304l.17.18c0 .17 0 .17-.17.17h-.53l-.17 9.61h1.74l.35-9.43h-.69a.18.18 0 00-.18-.18c0-.17.18-.17.18-.17h4.37l.17.17c0 .18 0 .18-.17.18h-.88l-.52 20.27.87.17h.18v.18c0 .17-.18.17-.18.17l-4.19-.17h-.18v-.35h.7l.17-10.49h-1.74l-.3 10.47h.7l.17.17c-.17 0-.17 0-.17.18l-4.38-.18c-.17 0-.17 0-.17-.17l.17-.17zM323.94 63.29l-1 5.07a11.85 11.85 0 01-2.63 6.12 3.06 3.06 0 01-2.8 1 3.22 3.22 0 01-1.57-1A5.11 5.11 0 01315 72a15.79 15.79 0 01.18-4.89l1.22-5.94c.53-2.8 1.4-4.72 2.63-6a2.86 2.86 0 012.62-.87c.35.17.88.35 1.23.52a7.26 7.26 0 01.87 1.23 4.47 4.47 0 01.35 1.74 8.76 8.76 0 01.17 2.1 18.79 18.79 0 01-.35 3.32zm-7 9.79a4 4 0 00.17 1.57c0 .35.18.35.53.53a.62.62 0 00.52-.18c.35-.17.35-.52.53-.87l3.5-17.65a2.54 2.54 0 00-.18-1.23c0-.17-.17-.35-.52-.35-.18-.17-.35 0-.53.18a1 1 0 00-.52 1.05zM329.37 56.83l-.7-.35a.18.18 0 01-.18-.18s.18 0 .18-.17l7.33 2.44-2.27 7.34c0 .18 0 .18-.18.18-.17 0-.17 0-.17-.18a.56.56 0 01.17-.35c.18-1 .35-2.44.53-3.67a12.2 12.2 0 00-.18-3 1.32 1.32 0 00-.35-.7c-.17-.17-.52-.17-.87-.35l-.52-.17-3 9.44a1.91 1.91 0 001.23-.53 5.31 5.31 0 001.75-3.14l.35-.7v-.18h.17v.18c.18 0 .18 0 0 .17l-3.15 10c0 .17-.17.17-.17 0-.18 0-.18 0 0-.18l.35-1a5.52 5.52 0 00.17-3.32c-.17-.52-.35-.87-.87-.87l-3 9.61.88.18v.34h-.18l-4.37-1.39h-.17v-.35h.17l.88.35 6.12-19.4zM344.76 62.59l-.7-.52h-.18v-.18c.18 0 .18 0 .18-.17a.17.17 0 01.17.17l4 2.1s.17.18 0 .18l-.18.17-.7-.52-4.72 9.09 6.3-5.42a2.32 2.32 0 00.87-1c.18-.18.35-.53.18-.7a.61.61 0 00-.18-.52l-.52-.35v-.18h.17c0-.17 0-.17.18 0l3 1.57c.17.18 0 .18 0 .18v.17l-.7-.35a2.16 2.16 0 00-1.05.18c-.35.35-1.05.7-1.92 1.57l-3 2.45-3.15 14 .53.35h.17V85a.17.17 0 00-.17.17h-.18L339.34 83l-.18-.17c.18-.18.18-.18.35-.18l.7.35 2.28-9.78-4.55 8.56.7.52h.17v.18a.17.17 0 00-.17.17l-.18-.17-4-2.1v-.17h.17l.7.35 9.45-18zM356.48 69.06l-.88-.52v-.35h.18l6.64 4.54-4.37 6.47h-.35V79a.54.54 0 01.18-.35 16.89 16.89 0 001.92-4 5.21 5.21 0 00.35-2.62 1.15 1.15 0 00-.7-.87l-.7-.53-5.6 8a1.73 1.73 0 001.58.18 5.59 5.59 0 002.27-2.23l.7-.88c.18-.17.18 0 .18 0v.18l-5.95 8.56h-.17v-.17l.52-.88a4.81 4.81 0 001.22-3.14c0-.53 0-.88-.35-1 0 0-.17-.18-.17 0 0 0-.18 0-.18.17l-5.59 8 .35.18a2.58 2.58 0 001.22.35 3.29 3.29 0 001.75-.7c.53-.35 1.23-.88 1.92-1.4.88-1 1.58-1.75 2.1-2.45l.53-.7h.17a.18.18 0 01.18.18L350.36 90l-6.48-4.54-.17-.18h.17v-.17c.18 0 .18 0 .18.17l.7.35 11.72-16.6zM368.9 80.25a1.4 1.4 0 00.35-.7c.17-.18 0-.53 0-.7l-.53-.35c0-.18 0-.18.18-.18v-.17a.17.17 0 01.17.17L371 79.9v.17l-.18.18s0-.18-.17-.18c-.35 0-.53-.17-.88 0-.17 0-.35.18-.7.53l-12.59 14.5-1.75-1.4 10-16.77L353.33 90a1.61 1.61 0 00-.53.88c0 .35 0 .52.18.7l.35.52v.18H353l-1.75-1.75h-.17c0-.18 0-.18.17-.18h.35a1 1 0 00.7.18c.17-.18.52-.35.87-.7l12.23-14.3-.53-.53v-.17h.18l2.8 2.27-8.05 13.63 9.1-10.48zM375.19 84.62l-.17-.18a.67.67 0 00-.53-.17 2.65 2.65 0 00-1.4.35 22.61 22.61 0 00-3.49 1.92 11.1 11.1 0 00-2.28 1.75l-.35.17h-.17a.17.17 0 01-.18-.17.18.18 0 00.18-.18l6.47-5.94 6.12 6.64-6.47 5.94a.18.18 0 01-.18.18h-.17v-.18c0-.17 0-.17.17-.17l.35-.35c.35-.35 1.05-1.23 1.93-2.27q1.31-1.84 2.1-3.15a2.51 2.51 0 00.35-1.22v-.53l-.35-.17-15.05 13.63.7.87v.18h-.17l-3.5-3.85v-.17a.18.18 0 01.18-.18v.18l.87.87 15-13.8zM381.84 92.48l-.53-.7c0-.17 0-.17.18-.17h.17l2.63 3.67v.17h-.35l-.35-.7-15.74 11.19c-.35.35-.53.52-.53.87-.17.18 0 .53.18.88a1.84 1.84 0 001.57.87 3.81 3.81 0 002.45-.87l12.59-8.92c.53-.52.88-.7 1.05-1A1.36 1.36 0 00385 97v-.5h.17l1.4 1.92v.18h-.17c-.18 0-.18 0-.18-.18-.17 0-.35-.17-.52-.17a9.51 9.51 0 00-1.4.7l-13 9.26a3.35 3.35 0 01-2.44.7 4.2 4.2 0 01-2.1-1.57 3.8 3.8 0 01-.88-2.8 4.26 4.26 0 011.93-2.1l14-10zM392 107.34l-7.34 4c0 .17-.18.17-.18.17a.17.17 0 00-.17-.17v-.18a.17.17 0 00.17-.17l.7-.35a16 16 0 002.8-1.93 9.37 9.37 0 002.28-3c0-.35 0-.7-.18-.87-.17-.35-.35-.35-.52-.52a2.54 2.54 0 00-1.05.34l-15.75 8.74c-.35.18-.7.53-.7.7-.17.35-.17.53 0 .7a1.85 1.85 0 001 .88 5 5 0 001.58.17 10.47 10.47 0 003.67-1.4l1.93-1c.17-.17.17-.17.35-.17v.35l-.18.17-1.92 1c-1.93 1.05-3.5 1.57-4.9 1.4a2.83 2.83 0 01-2.1-1.4 2 2 0 01-.17-1.75 3.48 3.48 0 011.22-1.92 19.93 19.93 0 015.42-4l2.1-1.22a24.2 24.2 0 014.9-2.1 8.07 8.07 0 013.85-.52 2.77 2.77 0 011.57 1.22c.35.52.17 1.4-.35 2.45l1.75.35zM393.38 111.53l-.35-.87v-.18h.18c.17 0 .17 0 .17.18l1.75 4.19s0 .18-.17.18h-.18l-.35-.88L385 118h8.39a3.31 3.31 0 001.4-.18l.53-.52a.67.67 0 00.17-.53l-.17-.52c0-.17 0-.17.17-.17h.18v.17l1.4 3.15c0 .17-.18.17-.18.17h-.17l-.35-.52a1 1 0 00-.88-.53 8.82 8.82 0 00-2.45-.17h-3.67l-11.54 8.74.17.52v.17h-.35l-1.75-4.19a.17.17 0 00.18-.17h.17l.35.87 8.05-6.12-8.92 3.67.17.88c.18 0 .18 0 0 .17h-.17l-1.73-4.37v-.17c.17 0 .17 0 .17.17l.35.7 18.89-7.69zM388.66 128.48l9.27-4.89v-.52c-.17-.18 0-.18 0-.18v-.17c.18 0 .18 0 .18.17l1.22 4.37v.18H399l-.17-1-8.75 4.54 7.7-.35c.17 0 .52-.17.7-.17a1.34 1.34 0 00.87-.35.64.64 0 00.18-.53V129s0-.18.17-.18l.17.18.53 2.27s.17.18 0 .18a.18.18 0 01-.18-.18 2.16 2.16 0 00-1.92-.35l-8.92.35-9.62 2.62.18 1v.18h-.18l-.17-.18-1.23-4.89v-.18h.35l.18 1.23 9.79-2.63z" fill="#e6ad05"/></svg>