<svg xmlns="http://www.w3.org/2000/svg" width="300" height="300" viewBox="0 0 300 300"><title>flag-north-dakota-icon-rays</title><path d="M291.65,175.61c-.41.23-6.53,3.6-13.62,7.4s-14.59,7.93-16.7,9.14-6,3.31-8.68,4.73c-4.36,2.24-4.83,2.57-4.53,3s1.19.05,9.51-4.43c5.07-2.73,10.87-5.91,12.92-7.1s6.86-3.78,10.7-5.77c12.2-6.38,11.79-6.15,11.45-6.85S292.36,175.13,291.65,175.61Z"/><path d="M147.78,112.12v28.53h1.42V83.58h-1.42Z"/><path d="M144.57,95.85c0,3,.29,14.39.54,25.27.51,19.65.51,19.82,1.08,19.82h.6l-.37-15.11c-.2-8.32-.43-19.7-.51-25.3-.17-10.1-.17-10.13-.8-10.13S144.51,90.45,144.57,95.85Z"/><path d="M151.39,90.6c-.12.08-.2,3.83-.2,8.29s-.2,14.25-.43,21.75-.42,15.13-.42,17V141l.79-.09.77-.09.31-11.78c.17-6.47.4-17.83.51-25.21l.2-13.4h-.68A1.36,1.36,0,0,0,151.39,90.6Z"/><path d="M90.26,93.83c-.57.2-.46.63,3,9.94,2,5.37,4.75,12.81,6,16.58s4.12,11.42,6.19,17c3.21,8.71,3.86,10.22,4.29,10.13s.45-.25.34-.56-1-2.79-2-5.6-3.6-10-5.82-16-4.91-13.43-6-16.47-2.73-7.72-3.72-10.39C91,94,90.8,93.61,90.26,93.83Z"/><path d="M205.79,95.14c-.85,2.07-7.44,19.87-9.32,25.21-1,3-3.69,10.28-5.87,16.27s-3.95,10.9-3.86,11a1.92,1.92,0,0,0,.79.2c.77.08,1-.4,5.14-12.13,4-11.18,5.34-14.87,8.72-23.85,4.71-12.6,6.19-17.17,5.7-17.49C206.44,94,206.27,94,205.79,95.14Z"/><path d="M141.31,98.83c.11,1.53.39,8.35.65,15.13s.57,13.94.71,15.9.28,5.26.28,7.3c0,3.72,0,3.78.66,3.78s.62-.06.56-3.33c0-1.84-.25-6.47-.51-10.3s-.48-9.71-.56-13.06-.32-8.83-.49-12.16c-.31-5.79-.37-6-.91-6S141.11,96.16,141.31,98.83Z"/><path d="M154.74,96.42c-.17.62-.68,11.35-.88,18.25-.09,3.58-.34,9.4-.57,12.92s-.4,7.95-.4,9.88V141l.8-.09.76-.09.17-5.82c.12-3.18.29-6.53.37-7.38s.37-6.9.6-13.37.51-13.2.59-15l.2-3.18h-.76A1.05,1.05,0,0,0,154.74,96.42Z"/><path d="M95.65,98.86c-.31.2.6,3,7.38,22.77,1.79,5.22,4.49,13,5.94,17.35,2.5,7.27,2.72,7.81,3.26,7.61s.54-.32-.57-3.3c-.62-1.67-3.2-9.25-5.76-16.83-8.35-24.88-9.37-27.83-9.65-27.83A1.33,1.33,0,0,0,95.65,98.86Z"/><path d="M200.45,99.26c-.09.19-1.11,3.18-2.24,6.61s-3.61,10.54-5.4,15.76c-7.41,21.61-8.54,25-8.37,25.1a1.67,1.67,0,0,0,.79.23c.6.08.82-.4,3.07-6.88,1.33-3.83,4.09-12.06,6.16-18.31s4.63-13.83,5.71-16.84,1.87-5.5,1.81-5.56C201.56,99,200.56,98.91,200.45,99.26Z"/><path d="M89.09,101.21c-.57.2-.14,1.34,8.69,23.77,8,20.24,9.34,23.51,9.77,23.4s.45-.29.39-.46-.79-2-1.61-4-2.42-6.25-3.55-9.37-4.57-12-7.58-19.62C90,101.81,89.66,101,89.09,101.21Z"/><path d="M139.18,117.85c.65,9.2,1.19,18.15,1.22,19.88,0,3.12,0,3.21.65,3.21s.63-.09.57-2.62c-.06-1.44-.63-10.39-1.28-19.9-1.19-16.78-1.22-17.23-1.79-17.23S138,101.27,139.18,117.85Z"/><path d="M157.89,101.53c-.23.76-2.47,34.27-2.44,36.77,0,2.35.05,2.61.56,2.78a1.55,1.55,0,0,0,.86,0,9.69,9.69,0,0,0,.28-3.21c0-1.67.51-10.14,1.14-18.8s1.13-16.24,1.13-16.83c0-.94-.08-1-.71-1C158.31,101.19,157.94,101.36,157.89,101.53Z"/><path d="M206.87,102.66c-1.88,4.46-18,45.69-17.86,45.8a1.92,1.92,0,0,0,.79.2c.65.08,1-.8,7.87-18.09,9.22-23.39,11.1-28.5,10.56-28.84S207.41,101.41,206.87,102.66Z"/><path d="M100.9,103.09c-.51.11.37,3.21,4.52,16.13,3.23,10.1,7.38,23.14,7.89,25,.63,2.07.51,1.93,1.19,1.73.51-.17.49-.42-.93-5.08-.83-2.67-2.39-7.69-3.5-11.13-3.86-12.07-7.43-23.31-7.92-25a6.39,6.39,0,0,0-.65-1.76C101.41,103,101.16,103,100.9,103.09Z"/><path d="M195.37,103.4c-.06.11-.66,2-1.31,4.17s-2.19,7.1-3.41,10.94c-2.89,9-7.49,23.53-8.15,25.64-.42,1.44-.42,1.7-.08,1.93,1,.65,1.25.14,4.15-9.4s5.11-16.58,8.54-27a47.17,47.17,0,0,0,1.68-5.88C196.59,103.46,195.51,103.17,195.37,103.4Z"/><path d="M136.17,118.85c.57,7.24,1.28,15.22,1.56,17.74.48,4.35.54,4.63,1.11,4.63h.59l-.48-4.06c-.26-2.21-1-10.19-1.56-17.75-1-13.23-1.11-13.68-1.68-13.68S135.15,105.79,136.17,118.85Z"/><path d="M160.73,106.07c-.06.2-.6,6.45-1.17,13.86s-1.22,14.87-1.44,16.58c-.6,4.54-.57,4.77.36,4.65l.8-.08.45-3.83c.57-4.49,2.67-30.9,2.5-31.07C161.83,105.81,160.81,105.73,160.73,106.07Z"/><path d="M105.67,106.81c-.28.06-.45.28-.37.48s.54,1.87,1,3.72,2.61,9.11,4.71,16.16c5.76,19.45,5.31,18,5.91,18,.34,0,.45-.15.34-.43s-.6-2.13-1.17-4.17-3-10.57-5.48-18.83C106.75,108.6,106.13,106.72,105.67,106.81Z"/><path d="M190.57,107.35c-.09.14-.54,1.76-1,3.63-.85,3.21-7.58,26.1-9.26,31.46-.79,2.53-.76,2.9.31,3.1.49.08.94-1.22,4.6-13.55,4.55-15.22,6.9-23.56,6.9-24.33,0-.34-.22-.51-.68-.51S190.63,107.23,190.57,107.35Z"/><path d="M88,107.77c-.56.26-.17,1.31,8,21,4.72,11.38,8.64,20.72,8.72,20.72a1.68,1.68,0,0,0,.57-.36c.4-.29-.65-3-8.09-21C89.06,108.74,88.52,107.55,88,107.77Z"/><path d="M207.86,109.51c-.37.82-4.2,10.08-8.55,20.58-7.78,18.83-8.23,20.07-6.9,19.56.34-.11,17.3-40.51,17.27-41.11,0-.11-.26-.26-.6-.34S208.4,108.28,207.86,109.51Z"/><path d="M110,110.19c-.43.11-.4.39.23,2.86.37,1.51,1.16,4.49,1.78,6.59s1.51,5.43,2,7.36,1.37,5.19,2,7.24,1.45,5.19,1.88,7a34.34,34.34,0,0,0,.88,3.35c0,.06.31,0,.62-.06.51-.17.51-.28-.28-2.95-.46-1.5-1.65-6-2.64-10s-2.39-9.23-3.07-11.64-1.56-5.65-1.93-7.19a14.57,14.57,0,0,0-.8-2.72A6.41,6.41,0,0,0,110,110.19Z"/><path d="M132.62,113.59c.2,2,.54,5.11.79,6.9s.51,4.23.6,5.4.43,3.92.71,6.1.62,5.23.74,6.76c.17,2.61.22,2.78.79,2.7.34-.06.57-.23.57-.37s-.14-1.45-.26-2.84-.42-4.29-.7-6.39-.6-4.85-.71-6.1-.43-4.06-.71-6.25-.63-5.22-.74-6.76c-.17-2.58-.23-2.75-.8-2.75h-.62Z"/><path d="M163.6,110.19a24.83,24.83,0,0,0-.35,2.92c-.08,1.48-.42,4.43-.71,6.53s-.59,4.86-.71,6.11-.42,4.06-.71,6.24-.62,5.23-.73,6.76l-.2,2.81.82-.11.82-.09.32-3.55c.2-2,.54-5,.76-6.67s.54-4.09.63-5.25.42-3.92.71-6.11c.74-5.5,1-9.51.62-9.51a2.41,2.41,0,0,1-.71-.17C163.94,110,163.68,110.05,163.6,110.19Z"/><path d="M186.25,110.61c-.05.2-.45,1.71-.85,3.35s-1.19,4.46-1.7,6.25-1.37,4.86-1.85,6.79-1.36,5.19-2,7.24c-2,7-2.72,10.13-2.27,10.42.91.59,1.22.11,2.1-3.44.51-2,1.31-4.88,1.79-6.53s1.28-4.57,1.76-6.5,1.36-5.2,2-7.24a99.15,99.15,0,0,0,2.56-10.22C187.36,110.36,186.37,110.27,186.25,110.61Z"/><path d="M114,113.31c-.39.09-.37.48.34,3.29.43,1.76,1.62,6.51,2.65,10.57s2.3,9.48,2.89,12.06S121,144,121,144s.31,0,.59-.05c.51-.17.49-.49-.82-6.08-.74-3.24-2-8.23-2.67-11.13s-1.79-7.13-2.36-9.43a31.93,31.93,0,0,0-1.16-4.17Z"/><path d="M86.71,113.68c-.51.28.28,2.24,5.14,12.78,1.5,3.23,3.32,7.44,9.54,21.86,1,2.27.82,2.07,1.47,1.87s.48-.37-.85-3.52c-2.38-5.56-5.17-11.84-7.81-17.66-1.39-3-3.49-7.81-4.65-10.56s-2.16-5-2.25-5A2.2,2.2,0,0,0,86.71,113.68Z"/><path d="M182.28,113.74c-.06.19-.43,1.64-.83,3.2s-1.13,4.58-1.7,6.68c-1,3.69-4.29,17.66-4.63,19.47-.11.69,0,.94.37,1.08a.75.75,0,0,0,.71,0c.34-.35,2.3-8,4.2-16.27,1-4.15,2.13-9,2.62-10.74a20.49,20.49,0,0,0,.79-3.29C183.39,113.48,182.39,113.4,182.28,113.74Z"/><path d="M129.72,114.45a26.32,26.32,0,0,1,.31,2.64c.12,1.16.43,3.66.71,5.53s.6,4.23.71,5.26.43,3.49.71,5.53.63,4.74.74,6c.17,2,.29,2.36.68,2.36a1,1,0,0,0,.6-.14,74.44,74.44,0,0,0-1-9.23c-.23-1.48-.49-3.52-.6-4.54s-.43-3.52-.71-5.54-.62-4.74-.74-6c-.2-2.21-.23-2.33-.88-2.33S129.61,114.08,129.72,114.45Z"/><path d="M208.54,116.41c-.62,1.33-1.13,2.49-1.13,2.55s-1.17,2.61-2.59,5.71-4.09,9.14-5.93,13.43-3.75,8.69-4.23,9.74c-1,2.3-1.08,2.64-.32,2.84s.63.25,2.56-4.35c.82-2,2.07-4.71,2.78-6.1s2.53-5.51,4.09-9.09c7.44-17.32,7.18-16.64,6.73-16.92a1.78,1.78,0,0,0-.62-.26A10.1,10.1,0,0,0,208.54,116.41Z"/><path d="M166.15,114.45a15.82,15.82,0,0,0-.34,2.49c-.09,1.25-.43,3.81-.71,5.68s-.6,4.23-.71,5.26-.43,3.49-.71,5.53-.62,4.74-.74,6.05l-.2,2.39.83-.12.82-.08.31-3c.17-1.65.51-4.26.77-5.83s.51-3.66.62-4.68.43-3.52.71-5.54.63-4.74.74-6l.2-2.33H167C166.6,114.25,166.21,114.33,166.15,114.45Z"/><path d="M117.94,116.15c-.37.08-.28.85.77,5.71.65,3.06,1.56,7.12,2,9s1.28,5.45,1.79,7.95.94,4.57,1,4.6a1.44,1.44,0,0,0,.6-.09c.57-.14.57-.17-.06-3-.34-1.59-1.05-4.68-1.59-6.87s-1.61-7-2.38-10.7-1.45-6.73-1.53-6.73S118.19,116.06,117.94,116.15Z"/><path d="M178.3,116.58c-.08.19-.59,2.52-1.13,5.19s-1.45,6.56-2,8.66-1.39,5.85-1.9,8.32c-.8,3.83-.88,4.54-.52,4.77,1,.65,1.23.2,2.42-5.42.65-3,1.56-7.07,2-8.95s1.28-5.42,1.79-7.89c.8-3.83.88-4.54.51-4.77C179,116.15,178.44,116.18,178.3,116.58Z"/><path d="M127.28,118.08c-.17.2.43,4.57,1.31,9.57.42,2.3.93,5.48,1.13,7.1.94,6.73,1.08,7.32,1.73,7.32h.63l-.82-4.48c-.43-2.45-1-5.94-1.23-7.73s-.59-4.23-.82-5.39-.51-3.12-.62-4.35c-.15-1.78-.29-2.18-.69-2.18A1.18,1.18,0,0,0,127.28,118.08Z"/><path d="M168.71,118.42a17.55,17.55,0,0,0-.32,2.07c-.11,1-.56,4-1,6.53s-1,5.71-1.13,7-.52,3.52-.77,5a16.5,16.5,0,0,0-.34,2.92,2.3,2.3,0,0,0,.82.2c.8.08.85-.14,1.56-5.31.26-1.87.88-5.85,1.42-8.8s1-6.39,1.17-7.61l.2-2.19h-.74C169.16,118.22,168.76,118.31,168.71,118.42Z"/><path d="M85.4,119.1c-.31.31,1.79,5.2,4.94,11.47.8,1.56,2,4.12,2.64,5.68s2,4.43,3,6.39,2.27,4.69,2.84,6.1,1.14,2.59,1.17,2.65.31,0,.65-.2c.62-.34,1.36,1.42-7-16.5-1.64-3.52-4-8.52-5.16-11.13A33.1,33.1,0,0,0,86,118.79,1.07,1.07,0,0,0,85.4,119.1Z"/><path d="M121.77,119c-.57.08-.57.08-.08,2.84.28,1.5.82,4.09,1.22,5.73s1.16,5.77,1.76,9.14c1,6,1.11,6.19,1.76,6.19s.62-.11.51-.51c-.09-.25-.54-2.64-1-5.25s-1-5.56-1.31-6.53-.85-4-1.36-6.73C122.43,119.27,122.34,118.93,121.77,119Z"/><path d="M174.67,119.27a16.53,16.53,0,0,0-.48,2.36c-.2,1.16-.71,3.66-1.14,5.54s-1.28,6.13-1.87,9.45c-.88,5.14-1,6.11-.66,6.33,1,.6,1.17,0,2.7-8.12.54-3,1.36-7,1.82-8.94,1.13-4.91,1.3-6.25.82-6.56S174.84,119,174.67,119.27Z"/><path d="M209.79,121.54c-.57,1.23-2.27,4.83-3.8,8s-3.16,6.64-3.55,7.67-1.54,3.37-2.47,5.25a85.45,85.45,0,0,0-3.92,8.69c0,.14.25.37.57.54.51.25.65.08,1.59-1.76.59-1.14,2.24-4.63,3.66-7.76,4.51-9.73,8.83-19,9.65-20.64s.88-1.76-.08-2.07C210.87,119.33,210.7,119.53,209.79,121.54Z"/><path d="M125,122.06c-.17.17.4,3.91,1,6.81.23,1.08.51,2.61.6,3.41s.45,2.55.74,4,.62,3.41.74,4.43c.17,1.73.22,1.85.79,1.76l.62-.14L129,140c-.28-1.28-.71-3.61-1-5.17C126.2,123.11,125.78,121.32,125,122.06Z"/><path d="M171,122.4a9.79,9.79,0,0,0-.34,1.93c-.12.93-.37,2.47-.57,3.4s-.54,2.67-.71,3.84-.57,3.26-.85,4.68-.63,3.44-.74,4.49l-.2,2,.82-.12c.77-.08.83-.2,1-1.64.11-.86.45-2.84.76-4.4s.66-3.41.74-4.12.43-2.44.71-3.83.63-3.41.74-4.49l.2-1.9h-.74C171.43,122.2,171,122.28,171,122.4Z"/><path d="M38.92,123.19c-.42.34.68,1.76,10.53,13.54,6,7.22,12.67,15.08,14.74,17.44,2.9,3.35,7.16,8.54,10.79,13.14.06.06.28-.05.51-.22s-.17-1.08-3.18-4.8c-4.51-5.6-9.88-12-14.71-17.55-2-2.36-5.31-6.27-7.24-8.66s-5.19-6.36-7.24-8.8C39.83,123.36,39.35,122.88,38.92,123.19Z"/><path d="M84.41,124c-.4.31.37,2,6.53,14.45C97,150.7,98,152.52,98.43,152.29s.17-.93-2.24-5.9S85.06,123.87,84.92,123.7,84.63,123.79,84.41,124Z"/><path d="M255.9,125.38c-.85,1-5.82,6.9-11,13.14s-11.15,13.29-13.23,15.65c-4.51,5.19-10.62,12.75-10.62,13.14,0,.17.23.43.54.57.63.34.83.12,4.29-4.23,3.27-4.09,10-12.18,15.33-18.31,5.11-5.91,10.28-12.07,14.46-17.27,2.38-3,2.83-3.71,2.58-4.06a1.4,1.4,0,0,0-.57-.39A8.88,8.88,0,0,0,255.9,125.38Z"/><path d="M205,138.3c-3.83,7.75-6.93,14.11-6.9,14.11l.74.4c.65.36.71.28,3.27-5.12,1.44-3,4.57-9.37,7-14.11,4-8,4.32-8.69,3.86-9a2.32,2.32,0,0,0-.73-.37C212,124.18,208.8,130.52,205,138.3Z"/><path d="M45.76,126.09c-.39.39-.11.82,2.87,4.31,1.85,2.13,4.71,5.65,6.45,7.84s4.2,5.31,5.56,7,5.57,7,9.4,11.81c6.19,7.89,7,8.8,7.44,8.49s.17-.8-2.87-4.6c-8.49-10.74-17.77-22.29-24.39-30.36C46.62,126.14,46.16,125.69,45.76,126.09Z"/><path d="M247.35,130.2c-1.78,2.08-4.68,5.63-6.47,7.9s-4.85,6.1-6.81,8.52-6.16,7.69-9.32,11.72c-5.33,6.79-5.73,7.38-5.31,7.81.57.6.6.57,4.49-4.37,6.73-8.55,14.68-18.4,17.94-22.26,3.72-4.4,9.83-12,9.83-12.33,0-.08-.26-.28-.57-.45C250.65,126.48,250.22,126.88,247.35,130.2Z"/><path d="M52.15,128.33c-.59.4-.45.62,5,7.44,3.09,3.86,9.23,11.81,13.66,17.66s8.12,10.7,8.17,10.76.26-.06.49-.28-1.71-3.1-13.18-18.2C53.2,128.5,52.72,127.93,52.15,128.33Z"/><path d="M83.13,128.76c-.2.19,1.05,2.81,4.26,8.85,2.5,4.72,5.36,10.25,6.39,12.33,1.59,3.15,2,3.69,2.35,3.49s0-1.22-3.4-7.75c-6.59-12.75-9-17.24-9.12-17.24A1,1,0,0,0,83.13,128.76Z"/><path d="M238.72,135.74c-3.09,3.86-9.25,11.81-13.68,17.63-7.73,10.22-8,10.62-7.55,11.13.28.32.62.49.73.4s2.64-3.29,5.57-7.15,6.78-8.86,8.6-11.13c4-5,13.15-17.07,13-17.15a5.66,5.66,0,0,1-.57-.43C244.4,128.73,243.72,129.47,238.72,135.74Z"/><path d="M212.72,129.64c-1.48,2.41-12.53,23.79-12.36,23.93l.69.37c.59.31.85-.11,5.59-9.11,5.45-10.34,8-15.28,7.81-15.39a4.4,4.4,0,0,0-.71-.26C213.28,129,213,129.15,212.72,129.64Z"/><path d="M57.86,130.23c-.57.26-.4.54,2.72,4.74,1.82,2.47,5.48,7.44,8.13,11.08,12.15,16.61,12.23,16.69,12.72,16.44s.08-.8-1.88-3.61c-1.28-1.82-3.55-4.91-5-6.87s-3.61-4.83-4.66-6.39-3-4.17-4.29-5.82-3.4-4.51-4.71-6.42C58.71,130.29,58.4,130,57.86,130.23Z"/><path d="M40.37,130.63c-.4.4.25,1.22,6.16,7.86,3.61,4.07,8.09,9.2,10,11.39s6.41,7.38,10.1,11.56c6.14,6.9,6.76,7.52,7.16,7.09s.17-.73-2.9-4c-1.84-2-6.33-7.1-10-11.38s-8.12-9.4-9.94-11.36-4.86-5.37-6.73-7.55C41.16,130.63,40.77,130.26,40.37,130.63Z"/><path d="M235.32,134.89l-8.18,11.16c-2.64,3.63-6.47,8.83-8.49,11.55-3.41,4.63-3.63,5-3.15,5.37.28.2.62.31.74.23.39-.23,5.36-6.82,7.52-9.91,1.08-1.56,3.07-4.29,4.43-6s3.46-4.63,4.68-6.39,3.27-4.57,4.6-6.24l2.39-3.1-.6-.57-.57-.59Z"/><path d="M249.37,138.44c-3.66,4.12-8.15,9.25-10,11.44s-6.39,7.35-10,11.47c-6.25,7-6.62,7.53-6.11,7.89s.74.2,3.21-2.38c1.45-1.53,4.52-5,6.82-7.61s7.09-8.15,10.67-12.21c11.78-13.32,13.32-15.13,12.92-15.61-.2-.23-.45-.43-.6-.43S253,134.35,249.37,138.44Z"/><path d="M63.06,131.91c-.4.22-.09.79,2.27,4.29,1.5,2.21,3.74,5.42,5,7.15l4,5.57c1,1.33,3.29,4.68,5.16,7.41,2.9,4.23,3.47,4.94,3.87,4.68.56-.34.11-1-7.84-12.41C63.82,132,63.57,131.62,63.06,131.91Z"/><path d="M230.43,136.31c-1.56,2.3-3.86,5.59-5.11,7.32-3.18,4.38-5.19,7.22-9,12.75-3,4.43-3.26,4.83-2.81,5.17a1.05,1.05,0,0,0,.71.26c.2-.12,1.31-1.68,11-15.45,4.6-6.56,9.22-13.4,9.08-13.49l-.57-.39C233.36,132.13,233,132.59,230.43,136.31Z"/><path d="M67.91,133.3c-.37.23-.2.65,1.31,3,1,1.5,2.55,3.83,3.49,5.16,1.76,2.45,5.39,7.93,9.74,14.68,2.18,3.38,2.47,3.69,3,3.44s.14-.94-6.31-10.68C69.67,134.63,68.51,133,67.91,133.3Z"/><path d="M82.11,133.3c-.43.25-.37.45.71,2,.65,1,3.29,5.71,5.9,10.59,4.4,8.29,4.74,8.81,5.31,8.55s.57-.34-.88-2.73c-.82-1.33-2.35-4.11-3.43-6.13s-2.67-5-3.58-6.53-2-3.58-2.41-4.48C82.87,132.87,82.87,132.87,82.11,133.3Z"/><path d="M212.69,135.88c-.83,1.31-3.47,6.05-5.85,10.57-4.06,7.63-4.32,8.23-3.84,8.57a1.07,1.07,0,0,0,.71.26c.37-.23,3.47-5.65,6.25-10.94,1.45-2.72,3.27-6.1,4-7.46,1.17-2,1.37-2.56,1.08-2.9s-.45-.43-.59-.43A11.45,11.45,0,0,0,212.69,135.88Z"/><path d="M226.83,136c-.88,1.4-2,3-2.42,3.64-1,1.45-8.32,12.32-11.16,16.72-1.93,3-2.15,3.44-1.78,3.81.22.22.54.34.71.22.34-.19,17.37-25.61,17.37-25.92,0-.11-.25-.4-.57-.59C228.44,133.58,228.3,133.72,226.83,136Z"/><path d="M72.51,134.75c-.48.34-.34.59,6.93,11.72,1.62,2.5,3.32,5.17,3.77,6s1.54,2.47,2.39,3.72c1.31,1.9,1.67,2.27,2.07,2.07s1,.48-6.76-11.61c-1.84-2.9-4.31-6.82-5.5-8.72s-2.22-3.47-2.3-3.47A2.08,2.08,0,0,0,72.51,134.75Z"/><path d="M221.63,138.44l-4.94,7.61c-1.5,2.27-3.12,4.82-3.63,5.68s-1.68,2.69-2.62,4.08c-1.61,2.39-1.67,2.56-1.19,2.9a2.06,2.06,0,0,0,.77.4,5.89,5.89,0,0,0,1.28-1.65c.56-.88,2-3.09,3.2-4.88s2.67-4.09,3.27-5.11,1.93-3.13,3-4.69a62,62,0,0,0,4.26-7c0-.08-.26-.31-.57-.48C223.93,135,223.67,135.26,221.63,138.44Z"/><path d="M77.17,136.14c-.66.23-.63.28.85,2.72.85,1.37,2.1,3.38,2.81,4.49s1.7,2.81,2.21,3.83a28,28,0,0,0,1.74,3c.45.63,1.61,2.5,2.61,4.15C89,157,89.21,157.32,89.66,157s.4-.54-.88-2.73c-1.45-2.44-3.78-6.21-6.93-11.18-1-1.57-2.3-3.81-2.92-5C77.9,136.08,77.73,135.91,77.17,136.14Z"/><path d="M218.54,137.67c-.43.74-1.65,2.7-2.7,4.35s-2.41,3.91-3,5a39.68,39.68,0,0,1-2.08,3.55c-.56.85-1.7,2.7-2.52,4.06-1.42,2.39-1.48,2.53-1,2.9.31.2.63.28.77.17s1.19-1.76,5.42-8.69c1.08-1.73,2.67-4.29,3.58-5.68a44,44,0,0,0,3.41-6.22c0-.08-.26-.28-.57-.45C219.39,136.42,219.25,136.54,218.54,137.67Z"/><path d="M41.5,137.19c-.36.42,0,1,4.24,5.45,7.55,8,19.05,20.59,22.45,24.45,2.84,3.23,3.18,3.55,3.58,3.18s-.14-1.08-5.45-6.87c-3.21-3.53-7.67-8.47-9.85-11s-4.32-4.8-4.66-5.11-2.72-2.82-5.28-5.6C42.36,137.22,41.87,136.79,41.5,137.19Z"/><path d="M81.4,137.76c-.26.17.08,1,1.33,3.21.91,1.61,2.64,4.68,3.81,6.78,3.63,6.5,4.77,8.24,5.33,7.92s.29-.62-1.3-3.43c-1-1.76-2.59-4.49-3.55-6.05s-2.5-4.15-3.38-5.74a24.49,24.49,0,0,0-1.73-2.92A1.57,1.57,0,0,0,81.4,137.76Z"/><path d="M250.28,142.44c-8.52,9.14-19.19,20.79-22.43,24.42-2.87,3.29-3.15,3.69-2.76,4.09a.76.76,0,0,0,.74.25c.17-.11,4.91-5.22,10.54-11.33s12.32-13.37,14.9-16.12c4.6-4.91,5.06-5.62,4-6.05C255,137.61,253.18,139.35,250.28,142.44Z"/><path d="M213.45,140.62c-.91,1.4-2.67,4.38-3.89,6.62s-2.81,5-3.52,6.27c-1.16,2.08-1.25,2.28-.79,2.7.62.63.85.34,2.89-3.35.88-1.64,2.42-4.23,3.35-5.73,1.74-2.76,4.72-8,4.72-8.29,0-.09-.26-.29-.57-.46C215.13,138.1,214.9,138.32,213.45,140.62Z"/><path d="M42.36,143.12c-.46.46-.17.8,5.11,6.19,6.16,6.22,18.08,18.6,20.55,21.3,1.4,1.53,1.59,1.67,2,1.28s.11-.77-3.86-4.83c-2.36-2.41-8-8.38-12.61-13.2s-8.83-9.35-9.51-10C42.92,142.7,42.81,142.67,42.36,143.12Z"/><path d="M248.41,149.26c-5.29,5.36-17.1,17.6-20.56,21.29-1.45,1.56-1.51,1.68-1,2.13s.79.17,6.16-5.34c11.53-11.84,21.83-22.68,21.83-22.94a1,1,0,0,0-.37-.57C254.17,143.58,252.81,144.8,248.41,149.26Z"/><path d="M43.12,148.52c-.48.34.49,1.39,12.16,13.06s12.69,12.61,13,12.07-.79-1.71-12.15-13.07S43.61,148.15,43.12,148.52Z"/><path d="M240.65,161.49c-11.61,11.62-12.55,12.64-12,12.92s1.71-.79,13.06-12.15c10.71-10.7,12.41-12.52,12.13-12.92-.2-.25-.4-.45-.46-.45S247.58,154.57,240.65,161.49Z"/><path d="M43.66,153.69c-.31.51.29,1.16,6.53,7,3.78,3.55,8.89,8.43,11.33,10.87,4.32,4.23,4.49,4.4,5,3.89s.34-.68-4-4.8C60,168.28,55,163.37,51.3,159.73s-6.79-6.58-7-6.58A1.07,1.07,0,0,0,43.66,153.69Z"/><path d="M245.17,161.12C241,165,235.91,169.93,233.81,172c-3.46,3.43-3.8,3.83-3.41,4.23s1.08-.17,7.27-6.13c3.75-3.64,8.86-8.52,11.36-10.88,3.63-3.41,4.51-4.4,4.32-4.77s-.34-.45-.46-.42S249.31,157.23,245.17,161.12Z"/><path d="M44.15,158.4c-.46.54.36,1.45,5,5.48,1.74,1.5,4.86,4.34,7,6.3s4.83,4.46,6,5.51c2.1,1.87,2.24,1.93,2.7,1.48s.31-.66-2.5-3.35c-1.65-1.57-4.46-4.15-6.25-5.71s-5-4.52-7.13-6.5A37.58,37.58,0,0,0,44.77,158,1.18,1.18,0,0,0,44.15,158.4Z"/><path d="M251.1,159.85c-.51.56-2.35,2.24-4.09,3.74s-4.85,4.35-6.95,6.31-4.89,4.48-6.16,5.59c-2.16,1.9-2.27,2-1.82,2.47s.57.37,1.48-.57c.54-.56,2.38-2.24,4.08-3.74s4.86-4.35,7-6.31,4.88-4.48,6.13-5.59c1.82-1.59,2.25-2.1,2.05-2.47C252.41,158.63,252.21,158.68,251.1,159.85Z"/><path d="M44.88,163.06c-.48.53-.37.65,3.16,3.63,2,1.67,5.22,4.54,7.18,6.33s4.43,4,5.51,5c1.87,1.62,2,1.68,2.35,1.14s.23-.74-2.38-3.21c-1.53-1.48-5.14-4.69-8-7.16s-5.62-4.88-6.07-5.36C45.59,162.37,45.51,162.35,44.88,163.06Z"/><path d="M247.58,166.83c-2.18,1.88-5.36,4.69-7.1,6.3s-4,3.67-5.14,4.63c-1.84,1.56-2,1.76-1.59,2.16s.6.31,2.3-1.14c1-.88,3-2.72,4.43-4.06s4.69-4.25,7.3-6.47c4.32-3.6,4.69-4,4.26-4.4S251.16,163.76,247.58,166.83Z"/><path d="M41,167.6c-.25.48,0,.79,1.62,2.21,1.08.91,2.75,2.27,3.78,3.07s3.43,2.75,5.39,4.4,4.49,3.72,5.62,4.54c2,1.42,2.13,1.48,2.56,1s.4-.57-.94-1.79c-.76-.71-4.23-3.5-7.66-6.14s-7-5.53-8-6.36a16.76,16.76,0,0,0-1.91-1.5C41.39,167.06,41.19,167.31,41,167.6Z"/><path d="M45.54,167.51c-.32.4-.23.6.73,1.45.63.54,2,1.79,3.13,2.75,3.29,2.93,11.44,9.55,11.75,9.55s.43-.26.6-.54c.31-.6.37-.54-7.41-6.9-1.65-1.37-3.18-2.67-3.41-3a47.47,47.47,0,0,0-4.88-3.8C46,167.06,45.74,167.26,45.54,167.51Z"/><path d="M36.28,167.91c-.31.48-.14.71,1.7,2.21,1.11.91,5.11,3.95,8.86,6.73s7.75,5.82,8.89,6.76l2.1,1.71.57-.57.57-.57-3-2.27c-3.23-2.5-6.81-5.25-12.15-9.43a77.84,77.84,0,0,0-7.15-5.14A1.55,1.55,0,0,0,36.28,167.91Z"/><path d="M31.45,168.17c-.42.65-.62.48,4.89,4.43,2.35,1.67,6,4.37,8.09,5.93s5.68,4.23,7.92,5.85c3.81,2.72,4.12,2.89,4.46,2.41.2-.28.31-.62.23-.76-.32-.49-24.79-18.4-25.16-18.4C31.82,167.63,31.62,167.88,31.45,168.17Z"/><path d="M.7,168.45a1.2,1.2,0,0,0-.17.85,47.5,47.5,0,0,0,4.06,2.47c2.16,1.22,6.36,3.64,9.32,5.37s7.69,4.48,10.5,6.1,7.21,4.18,9.8,5.68,7.1,4.15,10,5.82c5.05,2.9,5.37,3,5.74,2.53a1.26,1.26,0,0,0,.31-.82,14.86,14.86,0,0,0-2.76-1.82c-1.47-.83-5.42-3.13-8.77-5.08s-8.66-5-11.78-6.82-7.78-4.48-10.37-6c-5.82-3.43-14.68-8.49-15.19-8.69C1.21,167.94.87,168.14.7,168.45Z"/><path d="M20.92,168.48a3.32,3.32,0,0,0-.34.71c0,.08,2,1.45,4.34,3s5.09,3.43,6,4.11,3.58,2.42,5.88,3.87,7,4.54,10.42,6.9c5.85,3.94,6.3,4.2,6.76,3.77s.4-.57.11-.91-3.63-2.64-7.64-5.31-8.06-5.45-9-6.1-3.49-2.36-5.67-3.72-5.37-3.49-7.13-4.71-3.21-2.19-3.27-2.19A2.1,2.1,0,0,0,20.92,168.48Z"/><path d="M26.34,168.48c-.34.51,0,.76,3.84,3.38,2.3,1.56,5.59,3.86,7.29,5.11,4.38,3.18,7.21,5.19,12.75,9,4.43,3,4.83,3.26,5.17,2.81.2-.28.31-.6.25-.71s-1.67-1.31-15.44-11c-5.34-3.77-13.26-9.14-13.43-9.14A1.55,1.55,0,0,0,26.34,168.48Z"/><path d="M248.29,170.07c-1.79,1.56-12.43,10.42-13.31,11.1-.06,0,.05.26.25.48.28.37.65.2,2.5-1.22,2.1-1.62,5.93-4.8,11.39-9.45,2.32-2,2.49-2.19,2.07-2.59S250.48,168.17,248.29,170.07Z"/><path d="M254,169.1c-.71.63-2.36,2-3.69,3s-4,3.21-6,4.88-4.52,3.7-5.71,4.58c-2,1.36-2.13,1.59-1.82,2s.54.4,2.33-1c1-.86,2.75-2.22,3.78-3.1s3.57-2.89,5.68-4.54,4.68-3.69,5.73-4.57c1.73-1.51,1.85-1.68,1.42-2.05S255.13,168.08,254,169.1Z"/><path d="M8.09,168.73c-.37.71-1.2.17,13.77,9.17,6.87,4.15,14.42,8.75,16.75,10.23s6.07,3.74,8.32,5.05c3.86,2.21,4.09,2.33,4.46,1.82s.31-.63,0-.88-4.23-2.7-9-5.57-10.25-6.24-12.21-7.49C24.78,177.59,9,168.19,8.57,168.19,8.46,168.19,8.26,168.45,8.09,168.73Z"/><path d="M14.93,168.73c-.29.51-.09.74,2.3,2.36,1.45,1,5.39,3.49,8.74,5.62,7.44,4.74,14.71,9.4,21.27,13.66,4.66,3,4.94,3.18,5.31,2.67a1.81,1.81,0,0,0,.4-.77c0-.31-5.6-4-14.34-9.45-12.95-8.07-16.64-10.4-19.68-12.41C15.41,168.05,15.3,168,14.93,168.73Z"/><path d="M259.08,169.1c-.54.49-4.51,3.5-8.8,6.7s-8.77,6.62-9.94,7.56l-2.24,1.78c-.06,0,.06.26.23.49s1.42-.37,7.07-4.6c5.28-3.92,10.87-8.26,15.36-11.9.08-.06-.06-.28-.29-.48C260.13,168.28,259.93,168.36,259.08,169.1Z"/><path d="M260.64,171.66c-2.33,1.7-6.36,4.68-8.94,6.59s-6.36,4.71-8.41,6.19c-3,2.18-3.69,2.78-3.49,3.15s1.93-.74,10.14-6.68c7.78-5.62,13.88-10.1,15.64-11.49.09-.06-.05-.26-.28-.49S264.25,169,260.64,171.66Z"/><path d="M266,171.52c-2.19,1.47-5.37,3.72-7.1,5l-5.57,4c-1.33,1-4.68,3.29-7.41,5.17-4.23,2.89-4.94,3.46-4.68,3.86.34.57,1.05.11,12.41-7.84,16.81-11.78,17-12,16.66-12.44S269.47,169.16,266,171.52Z"/><path d="M292.87,170.41c-1.48.85-5.45,3.15-8.8,5.11s-9.37,5.45-13.35,7.72-9,5.2-11.07,6.45l-8.52,4.91c-2.58,1.45-4.71,2.67-4.77,2.73s0,.31.2.65c.31.54.54.42,5.08-2.16,2.61-1.5,6.84-4,9.43-5.48s7.38-4.29,10.65-6.19,8.46-4.85,11.5-6.64,7.24-4.21,9.28-5.37a39.1,39.1,0,0,0,3.78-2.27,2.33,2.33,0,0,0-.34-.6C295.59,168.88,295.25,169,292.87,170.41Z"/><path d="M270.58,172.37c-5,3.35-10.59,7.07-13.69,9.06-1,.59-4.59,3-8.09,5.39-5.73,3.86-6.33,4.34-6.1,4.88s.76.23,7.15-4c9-6,20-13.46,23.43-15.76,1.47-1,2.72-1.87,2.78-1.9s-.28-1-.48-1S273.25,170.55,270.58,172.37Z"/><path d="M279.24,170.55c-1.16.8-5.05,3.32-8.66,5.62-8.72,5.54-15.56,9.94-21.69,13.92-4.23,2.75-5,3.35-4.8,3.74s.6.26,2.87-1.27c1.45-1,5.36-3.5,8.71-5.63s8.18-5.22,10.74-6.87,7.09-4.51,10.13-6.36a49.49,49.49,0,0,0,5.54-3.69,1.14,1.14,0,0,0-.34-.62C281.45,169.19,280.77,169.5,279.24,170.55Z"/><path d="M287.47,169.61c-.39.26-6.33,3.89-13.2,8s-14.14,8.58-16.18,9.88-5.82,3.58-8.41,5.11c-4.23,2.44-4.68,2.78-4.37,3.21s1.19,0,9.26-4.85c4.91-3,10.53-6.39,12.52-7.67s6.64-4.09,10.36-6.25c11.84-6.93,11.44-6.67,11.07-7.35S288.16,169.1,287.47,169.61Z"/><path d="M6.67,175.86a1.08,1.08,0,0,0-.15.82c.15.26,7.3,4.23,13.35,7.44,1.56.83,4.57,2.47,6.67,3.67,5.28,3,13.89,7.75,18.29,10.07,3.43,1.82,3.69,1.91,4,1.42.59-.79,1.5-.17-8.83-6-3.12-1.76-9.71-5.34-14.62-7.95s-11-6-13.52-7.41-4.63-2.67-4.74-2.67S6.84,175.55,6.67,175.86Z"/><path d="M12.37,182.93c-.37.68-.28.77,3.1,2.44,1.47.74,4.88,2.53,7.52,4,6.93,3.74,24.28,12.72,24.39,12.6.51-.59.68-1.36.37-1.61s-5.31-2.82-11.41-5.88S23.67,188,21.71,186.93c-3.8-2-8.68-4.54-8.91-4.54S12.52,182.65,12.37,182.93Z"/><path d="M282.08,184.32l-6.39,3.41c-2.5,1.33-9.6,5.05-15.81,8.29-9.06,4.71-11.19,5.93-11,6.27s1.59-.25,7.86-3.37c4.18-2.08,9.46-4.8,11.73-6s6.82-3.58,10.08-5.26,6-3.09,6.08-3.15a1.45,1.45,0,0,0-.29-.59C284,183.38,283.84,183.41,282.08,184.32Z"/><path d="M17.74,189.18a4,4,0,0,0-.28.73c0,.2,28.67,14.46,28.76,14.32s.2-.4.4-.74c.34-.6-.06-.83-14-7.73-7.89-3.91-14.4-7.12-14.45-7.12S17.91,188.89,17.74,189.18Z"/><path d="M264.14,197c-12.55,6.25-14.37,7.22-14.06,7.61s2.16-.45,14.76-6.7c12.84-6.36,14.4-7.18,14.06-7.58S277,190.6,264.14,197Z"/><path d="M22.71,195.17a1.29,1.29,0,0,0,0,.82,20.34,20.34,0,0,0,2.64,1.31c1.36.59,4.46,2,6.9,3.18,4.86,2.35,12.46,5.76,12.81,5.76.14,0,.36-.25.53-.57.29-.51,0-.68-2.75-2.07-1.7-.85-4.46-2.16-6.19-2.9s-5.37-2.41-8.15-3.72-5.14-2.38-5.28-2.38S22.82,194.86,22.71,195.17Z"/><path d="M270.15,197.27c-1.78.82-5.67,2.64-8.66,4.06s-6.53,3-8,3.63-2.58,1.14-2.64,1.17,0,.31.2.65c.32.54.37.54,2.53-.43,1.19-.53,3.41-1.61,4.88-2.38s4.77-2.27,7.3-3.38c3.83-1.65,7.95-3.58,8.26-3.86.14-.11-.28-1-.48-1S271.94,196.45,270.15,197.27Z"/><path d="M27.39,200.56c-.25.51-.08.66,1.91,1.68,1.22.59,4.45,2,7.18,3.15s5.45,2.3,6,2.58c1.36.68,1.82.68,2-.05.15-.49,0-.69-1.16-1.17-.74-.31-3.18-1.42-5.45-2.5a105.41,105.41,0,0,0-10-4.26C27.79,200,27.56,200.25,27.39,200.56Z"/><path d="M266.89,201.9c-1.08.56-4.34,2-7.24,3.21-4.46,1.87-7.21,3.06-7.61,3.29-.06.06,0,.31.06.62.17.51.54.43,5.08-1.5,2.7-1.11,6.36-2.76,8.15-3.64a26.5,26.5,0,0,1,3.6-1.61c.4,0,.43-.17.15-.88C268.91,201,268.62,201,266.89,201.9Z"/><path d="M31.79,205.42c-.25.79-.08.93,2.62,1.93,1.27.48,2.84,1.11,3.46,1.42,1.85.93,4.94,2,5.34,1.9,1.28-.51-.46-1.7-4.69-3.29-1.19-.43-3-1.2-4-1.68C32.31,204.65,32,204.62,31.79,205.42Z"/><path d="M261.64,207.06c-1.48.6-3.21,1.34-3.84,1.65s-2,.85-3,1.22c-2.24.8-2.1.68-1.73,1.36s.31.57,1.76,0a25.7,25.7,0,0,0,2.36-1c.48-.25,2.44-1.05,4.31-1.76,3.24-1.25,3.44-1.33,3.21-2-.14-.34-.28-.62-.31-.59S263.11,206.5,261.64,207.06Z"/><path d="M35.77,209.93c-.2.68,0,1.14.57,1.14a23.46,23.46,0,0,1,3.12,1.16,19.15,19.15,0,0,0,2.81,1.08,2.67,2.67,0,0,0,.29-.74c.22-.74-.46-1.16-4-2.41C35.91,209.22,36,209.22,35.77,209.93Z"/><path d="M258.94,211c-3.38,1.22-5.14,2.13-5,2.67.09.37.26.45.57.34l1.34-.51c.48-.17,1.84-.71,3-1.19,1.93-.8,2.16-1,1.85-1.37S260.25,210.59,258.94,211Z"/><path d="M39.35,214.08c-.26.59-.23.74.34.93,1.62.63,1.9.66,2,.2,0-.25,0-.59.05-.76s-.42-.51-1-.71C39.72,213.42,39.66,213.42,39.35,214.08Z"/><path d="M255.79,215c-1,.31-1.17.51-1,.93.17.66.14.66,1.53.23,1.16-.34,1.19-.37.88-1.11C257,214.62,256.81,214.62,255.79,215Z"/></svg>