<svg xmlns="http://www.w3.org/2000/svg" width="600" height="315.79" viewBox="0 0 600 315.79"><path fill="#bf0a30" d="M0 0h600v315.79H0z"/><path fill="#fff" d="M0 24.29h600v24.29H0zM0 72.87h600v24.29H0zM0 121.46h600v24.29H0zM0 170.04h600v24.29H0zM0 218.62h600v24.29H0zM0 267.21h600v24.29H0z"/><path d="M0 0v170h240.22V0z" fill="#002868" fill-rule="evenodd"/><path d="M209.42 37.88l2.2-6.76-5.76-4.18H213l2.2-6.77 2.2 6.77h7.11l-5.75 4.18 2.2 6.76-5.76-4.18zM177.78 37.88l2.2-6.76-5.76-4.18h7.12l2.19-6.77 2.2 6.77h7.11l-5.75 4.18 2.2 6.76-5.76-4.18zM146.14 37.88l2.2-6.76-5.75-4.18h7.11l2.2-6.77 2.19 6.77h7.12l-5.76 4.18 2.2 6.76-5.75-4.18zM114.51 37.88l2.19-6.76-5.7-4.18h7.11l2.2-6.77 2.2 6.77h7.11l-5.75 4.18 2.13 6.76-5.75-4.18zM82.87 37.88l2.2-6.76-5.76-4.18h7.11l2.2-6.77 2.2 6.77h7.11l-5.75 4.18 2.2 6.76-5.76-4.18zM51.23 37.88l2.2-6.76-5.76-4.18h7.12L57 20.17l2.2 6.77h7.11l-5.75 4.18 2.2 6.76L57 33.7zM19.59 37.88l2.2-6.76L16 26.94h7.11l2.2-6.77 2.19 6.77h7.12l-5.72 4.18 2.2 6.76-5.75-4.18zM209.42 75.21l2.2-6.76-5.76-4.19H213l2.2-6.76 2.2 6.76h7.11l-5.75 4.19 2.2 6.76-5.79-4.21zM177.78 75.21l2.2-6.76-5.76-4.19h7.12l2.19-6.76 2.2 6.76h7.11l-5.75 4.19 2.2 6.76-5.76-4.21zM146.14 75.21l2.2-6.76-5.75-4.19h7.11l2.2-6.76 2.19 6.76h7.12l-5.76 4.19 2.2 6.76L151.9 71zM114.51 75.21l2.19-6.76-5.7-4.19h7.11l2.2-6.76 2.2 6.76h7.11l-5.75 4.19 2.13 6.76-5.74-4.21zM82.87 75.21l2.2-6.76-5.76-4.19h7.11l2.2-6.76 2.2 6.76h7.11l-5.75 4.19 2.2 6.76L88.62 71zM51.23 75.21l2.2-6.76-5.76-4.19h7.12L57 57.5l2.2 6.76h7.11l-5.75 4.19 2.2 6.76L57 71zM19.59 75.21l2.2-6.76L16 64.26h7.11l2.2-6.76 2.19 6.76h7.12l-5.72 4.19 2.2 6.76L25.35 71zM209.42 112.54l2.2-6.77-5.76-4.18H213l2.2-6.76 2.2 6.76h7.11l-5.75 4.18 2.2 6.77-5.76-4.18zM177.78 112.54l2.2-6.77-5.76-4.18h7.12l2.19-6.76 2.2 6.76h7.11l-5.75 4.18 2.2 6.77-5.76-4.18zM146.14 112.54l2.2-6.77-5.75-4.18h7.11l2.2-6.76 2.19 6.76h7.12l-5.76 4.18 2.2 6.77-5.75-4.18zM114.51 112.54l2.19-6.77-5.7-4.18h7.11l2.2-6.76 2.2 6.76h7.11l-5.75 4.18 2.19 6.77-5.75-4.18zM82.87 112.54l2.2-6.77-5.76-4.18h7.11l2.2-6.76 2.2 6.76h7.11l-5.75 4.18 2.2 6.77-5.76-4.18zM51.23 112.54l2.2-6.77-5.76-4.18h7.12L57 94.83l2.2 6.76h7.11l-5.75 4.18 2.2 6.77-5.76-4.18zM19.59 112.54l2.2-6.77-5.79-4.18h7.11l2.2-6.76 2.19 6.76h7.12l-5.76 4.18 2.2 6.77-5.75-4.18zM209.42 149.87l2.2-6.77-5.76-4.18H213l2.2-6.76 2.2 6.76h7.11l-5.75 4.18 2.2 6.77-5.76-4.18zM177.78 149.87l2.2-6.77-5.76-4.18h7.12l2.19-6.76 2.2 6.76h7.11l-5.75 4.18 2.2 6.77-5.76-4.18zM146.14 149.87l2.2-6.77-5.75-4.18h7.11l2.2-6.76 2.19 6.76h7.12l-5.76 4.18 2.2 6.77-5.75-4.18zM114.51 149.87l2.19-6.77-5.7-4.18h7.11l2.2-6.76 2.2 6.76h7.11l-5.75 4.18 2.19 6.77-5.75-4.18zM82.87 149.87l2.2-6.77-5.76-4.18h7.11l2.2-6.76 2.2 6.76h7.11l-5.75 4.18 2.2 6.77-5.76-4.18zM51.23 149.87l2.2-6.77-5.76-4.18h7.12l2.21-6.76 2.2 6.76h7.11l-5.75 4.18 2.2 6.77-5.76-4.18zM19.59 149.87l2.2-6.77-5.79-4.18h7.11l2.2-6.76 2.19 6.76h7.12l-5.72 4.18 2.2 6.77-5.75-4.18z" fill="#fff" fill-rule="evenodd"/></svg>