<svg xmlns="http://www.w3.org/2000/svg" width="170" height="300" viewBox="0 0 170 300"><path d="M2.49 52.34c0-10.8 9.31-7.82 18.26-11.92a101.09 101.09 0 0016.76-10.06l.38 27.94H3.6l-1.11-6zM150.41 79.17c-9.31 5.59-11.55.37-17.51-5.21s-23.85-18.64-23.85-18.64l47.7 7.83-6.34 16z" fill="#fff" stroke="#000" stroke-linecap="round" stroke-linejoin="round" stroke-width="2" fill-rule="evenodd"/><path d="M2.54 50.69C1.4 61.41 2.13 69.17 7.7 74.33s10.06 3.35 14.16 2.61 54-20.87 69.31-20.87 36.15.74 47.69 11.55c5.2 4.87 10.44 8.57 9.69 11.55s18.63-10.43 18.26-19-27.2-25.71-55.89-29.81-67 19-94.65 21.24c-9.92.94-13.74 2.4-13.73-.91z" fill="#fff" stroke="#000" stroke-linecap="round" stroke-linejoin="round" stroke-width="2" fill-rule="evenodd"/><path d="M149.57 62.86c-1 1.36-.59 2.67.69 3.7.88.71 2.33 1.39 3.21.3s.1-1.93-.57-2.79a10.22 10.22 0 01-2-2.86c-.53-1.66 1.06-3.18 2.63-3.29 1.86-.13 3.82 1.64 4.32 3.36a2.81 2.81 0 01-.69 2.65l-1-.82a2.68 2.68 0 00.45-1.27 3.18 3.18 0 00-2.89-2.7 1.44 1.44 0 00-1.37 1.86 13.82 13.82 0 002 2.77c.93 1.18 1.34 2.48.3 3.77-1.47 1.82-3.64 1.16-5.22-.12-1.74-1.41-2.43-3.53-.9-5.38l1 .82zM150.73 54.99l-.71 1-2.83-2-5.25 7.4-1.16-.82 5.25-7.4-2.83-2.01.71-1 6.82 4.83zM131.57 44.79l1.27.59-1.76 3.87 4.87 2.23 1.77-3.87 1.28.58-4.29 9.37-1.28-.59 2-4.38-4.87-2.23-2 4.38-1.29-.58 4.3-9.37zM121.1 42.17a5.16 5.16 0 012.3 1.16 3.65 3.65 0 011.12 3.2l-1.34-.34a2.54 2.54 0 00-.6-1.85 3.61 3.61 0 00-1.81-1 3.14 3.14 0 00-2.61.44 4.65 4.65 0 00-1.73 2.86 5.15 5.15 0 000 3.1 3 3 0 002.27 1.76 3.34 3.34 0 002.43-.21 3.39 3.39 0 001.6-2.29l-3.13-.8.29-1.12 4.38 1.12-1.36 5.34-.86-.22v-1.38a5.35 5.35 0 01-1.49.74 4.78 4.78 0 01-2.39-.07 4.62 4.62 0 01-2.76-1.93 5.63 5.63 0 01-.38-4.31 5.82 5.82 0 012.37-3.64 4.45 4.45 0 013.7-.56zM109.8 40.39l1.4.14-1.05 10.25-1.4-.14 1.05-10.25zM101.87 44.52a2.66 2.66 0 001.57-.31 1.61 1.61 0 00.65-1.38 1.51 1.51 0 00-.72-1.54 2.47 2.47 0 00-1.13-.27l-3.4-.19-.19 3.52 3.22.17m-4.36-5l4.76.26a4.6 4.6 0 011.92.45 2.42 2.42 0 011.32 2.5 2.54 2.54 0 01-1.58 2.38 2.15 2.15 0 01.87.7 2.27 2.27 0 01.27 1.31v1.38a4.92 4.92 0 000 .88.9.9 0 00.42.66v.23l-1.71-.1a1 1 0 01-.1-.34 5.9 5.9 0 010-.82v-1.68a1.46 1.46 0 00-.68-1.39 3.07 3.07 0 00-1.24-.26l-3.17-.17-.24 4.41-1.35-.08.56-10.28zM57.7 46.52l1.37-.29 1.89 8.87 5.1-1.08.25 1.2-6.46 1.37-2.15-10.07zM51.59 55l-2.7-4-.42 4.82 3.12-.82m-3.8-5.27l1.52-.41 6.3 9-1.48.39L52.32 56l-3.93 1.06-.28 3.27-1.38.38 1.06-11zM34.94 54.58l1.29 6.23a3.79 3.79 0 00.77 1.75 2.23 2.23 0 002.29.67 2.47 2.47 0 002.11-1.68 3.82 3.82 0 000-1.81l-1.3-6.23 1.39-.29 1.18 5.66a6.59 6.59 0 01.09 3 3.61 3.61 0 01-3.09 2.55 3.6 3.6 0 01-3.85-1.11 6.65 6.65 0 01-1.09-2.76l-1.18-5.66 1.39-.29zM10.05 62.62l7.15-2.31.39 1.2-5.85 1.89.96 2.98 5.41-1.75.36 1.13-5.41 1.75 1.08 3.32 5.95-1.92.38 1.17-7.24 2.34-3.18-9.8zM32.77 66.15l-.47 1-1.85-.77A5.52 5.52 0 0128 67.73a4.7 4.7 0 01-4-.56A6.7 6.7 0 0122 60a4.48 4.48 0 013.32-2.84 4.74 4.74 0 014.36.67A5.68 5.68 0 0131.5 61a6 6 0 01-.38 4.44l1.65.71m-4.14.07a1.76 1.76 0 00.58-.4l-1.32-.57.46-1 1.57.67a5 5 0 00.2-3.53 4.33 4.33 0 00-1.66-2.59 3.24 3.24 0 00-2.79-.41 3.4 3.4 0 00-2.29 1.7 4.72 4.72 0 00-.11 3.41 4.37 4.37 0 001.65 2.62 3.88 3.88 0 003.71.11z" fill-rule="evenodd"/><path d="M65.8 76.24c-14.22 2.27-17.63 20.47-17.63 20.47s6.26 1.14 6.26 6.82S55 116 55 116l12.51-13.65-1.71-26.11z" fill="#fff" stroke="#000" stroke-linecap="round" stroke-linejoin="round" stroke-width="2" fill-rule="evenodd"/><path d="M49.31 96.14a35 35 0 00-7.4 11.37s-6.82-15.35-5.11-18.76 6.25-7.39 5.68-10.81-3.41-4-6.82-3.41-3.41 19.9-3.41 25 1.14 14.22 4 17.63 5.12 8.53 8 9.09S55 114.9 55 114.9s1.14-11.37-.57-14.21a14.1 14.1 0 00-5.12-4.55zM102.19 81.35c18.76 10.81 16.49 25.59 15.92 30.71a34.09 34.09 0 000 8.53s8 8 11.37 13.08 13.08 19.9 13.08 19.9l-3.42 3.43s-14.21-10.24-19.9-17.06-30.7-47.76-30.7-47.76l13.65-10.81z" fill="#fff" stroke="#000" stroke-linecap="round" stroke-linejoin="round" stroke-width="2" fill-rule="evenodd"/><path d="M55 270.13L40.78 69.85M55 270.13z" fill="none" stroke="#000" stroke-linecap="round" stroke-linejoin="round" stroke-width="2"/><path d="M104.29 266.87l-49.22-.05c0-1.35 6.69-166.39 6.69-175.49s-1.36-16.08.58-18.21 19.18-1.55 23 0 15.69 5.23 16.66 7.36-2.32 14.91-2.32 19.37 5 16.46 4.64 22.66 5 70 5 74.29c0 5.26-4.31-2.7-6.26-.18-2.34 3 6.82 67.69 1.13 70.25z" fill="#fff" stroke="#000" stroke-linecap="round" stroke-linejoin="round" stroke-width="2" fill-rule="evenodd"/><path d="M75.9 58.4s-.58 12.2-.58 15.49 5.42 8.91 8.91 9.5 7.17-3.3 6.78-8.72-2.13-4.65-2.13-11a50.36 50.36 0 00-1.16-11L75.9 58.4z" fill="#fff" stroke="#000" stroke-linecap="round" stroke-linejoin="round" stroke-width="2" fill-rule="evenodd"/><path d="M73.38 43.87c-1 5.42-.77 14.33-.19 16.47s.58 7.94 4.06 8.52 9.3-7 11-10.27a30.27 30.27 0 002.51-7.36l-9.24-13.56zM73.77 63.24l5.23-.39m-5.23.39zM79.19 51.42h4.07m-4.07 0z" fill="#fff" stroke="#000" stroke-linecap="round" stroke-linejoin="round" stroke-width="2" fill-rule="evenodd"/><path d="M72.41 44.06c-1.74-3.68.59-10.84 7.17-10.65s13.75 9.69 13.75 14.53-1.33 9.29-2.51 9.29-6.59-15.3-11-15.49-4.11 2.52-7.41 2.32zM85 101c-9.88 19.37-17.43 26.15-20.92 26.35a52.27 52.27 0 01-7.94-.39l2 40.19 28.26.75M85 101z" fill="#fff" stroke="#000" stroke-linecap="round" stroke-linejoin="round" stroke-width="2" fill-rule="evenodd"/><path d="M93.53 101.59C83.84 139.94 54 160.09 54 160.09l3.7 59.71 29.34-29.1m6.48-89.11z" fill="#fff" stroke="#000" stroke-linecap="round" stroke-linejoin="round" stroke-width="2" fill-rule="evenodd"/><path d="M88.69 130.46c-8 62-35.26 52.1-35.26 52.1l1.51 54.94c22.8-5.47 24.51-23.66 24.51-23.66s8 2.27 13.64-3.41.57-24.45 2.28-33a153 153 0 002.27-17.63m-9-29.36z" fill="#fff" stroke="#000" stroke-linecap="round" stroke-linejoin="round" stroke-width="2" fill-rule="evenodd"/><path d="M95.36 134.8c-2.27 9.67-4.54 30.14-4.54 30.14m4.54-30.14zM63.52 166.08c9.66-4.55 21.6-35.26 21.6-35.26m-21.6 35.26zM88 188.82c-1.13 6.25.57 14.78.57 14.78M88 188.82zM88.54 229.76c.56-14.22-1.14-15.92-1.14-15.92m1.14 15.92zM92.52 94.43c3.41-5.68 4-15.92 4-15.92m-4 15.92zM105 196.21a74.24 74.24 0 01-9.67-5.12m9.67 5.12z" fill="none" stroke="#000" stroke-linecap="round" stroke-linejoin="round" stroke-width="2"/></svg>