<svg xmlns="http://www.w3.org/2000/svg" width="300" height="300" viewBox="0 0 300 300"><title>flag-iowa-icon-eagle</title><path d="M179.16,96.74c-5.75,0-13,.51-18,3.74-4,2.58-8.52,7.34-9.63,12.11-1.53,6.54.86,13.53.33,20.18-.15,1.78-.4,5.44-1.93,6.72-.9.76-2.13.35-3.21.27a34.25,34.25,0,0,0-4.75.05c-2.33.15-4.65.47-7,.76s-2.24.53-3.14-1.67a42.93,42.93,0,0,1-2.79-8.33c-.73-3.82-.92-7.42-2.54-11-2.78-6.22-9.07-9.15-15.05-11.72A36.39,36.39,0,0,0,95,105c-1.87.08-22,1-21.79,3,.11,1.4,7.65,1.31,8.53,1.31,2.16,0,4.32-.28,6.46-.47H84.64c-1.15,0-6.4.44-7.16-.66-.45-.65,7.75-2,8.2-2.08A70.85,70.85,0,0,1,98,105.81,41.62,41.62,0,0,1,121,114.47c2.86,2.27,4.65,5.73,5.75,9.15,1.31,4.08.93,8.33,2.38,12.37a34.35,34.35,0,0,0,2.48,5.41c.77,1.36,3.09,3.92,2.8,5.57s-2.27,1.19-3.26.34c-.53-.46-.82-1.63-1.7-1.45a1.11,1.11,0,0,0-.64,1.72,3.88,3.88,0,0,1,1.38.56,4.6,4.6,0,0,1,.94,2.67c-.07,1.61-2,2.75-1.47,4.29.31.89,1.21,1.51,1.51,2.56a16.51,16.51,0,0,1,.53,4.15c0,1.66.35,5.43-1.09,6.68-.57.49-1.35.16-2.12.84s-1.33,2-2.28,2.28-.76-.43-1.36-.57c-1.31-.29-2.11,1.43-3.69,1-.88-.22-1.22-1-2.26-.93-.08,0-2.82.78-2.85.81-1.51,1.11.47,6.11,1.15,7.7,1.32,3.13,3.42,7.2,7,8.24a32.74,32.74,0,0,0,4.09.4A27,27,0,0,1,134,190c5.8,2.33,10.86,6.64,17,8.13,4.2,1,8.5,1.63,12.76,2.32,2.15.34,13.1,1.9,10.74,5.9a5.83,5.83,0,0,1,2.77-1.44c-.92-.33-3.83-4.59-2.81-5.11,1.92-1,2.75,4.49,3.26,4.31,1.95-.68-2.28-5.26-2.89-5.65s-6.57-3.58-6.54-3.62c-.79,1,4.85,5,5.12,6.17.18.71.37.61-.39.59-.93,0-2.66-1.19-3.56-1.49-3.25-1.08-6.63-1.61-9.74-3.13-.65-.32-6.31-4-6.05-4.43-.73,1.1,5.55,6.09.5,3.64a7.09,7.09,0,0,0-2.81-.94c-.37,0-.72.28-1.09.2-1.49-.32-2.61-2-3.51-3.1-.56-.69-1.89-3.46-2.64-3.73-1.33-.46.8,2.81.14,3.09-1.11.48-3.83-7.11-3.71-7.23-.51.51.29,2-.38,2.48s-.86-1.27-.92-1.71c-.11-.67.21-3-.56-3.45-1.13-.63-.48,1.63-1.1,1.64-2.24,0,1.76-7.88,2-8.22a20.39,20.39,0,0,1,8.78-6.93c7.17-2.89,9.85,5.48,14.41,9.11,2.74,2.17,6,4,8.06,7,1.16,1.68,3.23,6-.28,5.92-2.7,0-4.26-2.13-6-3.78-.69-.65-3.94-4.17-5-3.9-.17,0,.53.86-.12.9-.34,0-1.84-1.25-1.88-1.07-.23,1.14,1.47,2.44,2.19,3,1.13.81,1,.68,1.4,2.1.81,2.72,3.65,2.59,5.87,3.36.92.32,6.32,0,6.42.9s-4.44,1.08-4.52,1c.83,1.1,3.08.74,4.25.81a5.43,5.43,0,0,1,3.91,1.73,9.25,9.25,0,0,1,2.43,4.5c.13.59.47,4,0,4.26,1.74-.77,1-5.12.57-6.3-.85-2.63-2.46-3.58-4.34-5.26-1.57-1.39-1.53-3.68-2-5.58a10.75,10.75,0,0,0-3.15-5.19c-4-3.75-9.37-6.2-12-11.21-2.81-5.4-3.91-11.61-7-16.8-.84-1.39-3.32-3.51-2.35-4.93.68-1,2.37-1.41,3.29-2.19a20.93,20.93,0,0,1,2.05-1.73,10,10,0,0,0,4-5.06,14.3,14.3,0,0,1,.62-2.44c.09-.2.49,0,.62-.22a4.35,4.35,0,0,0,.36-1.73c.09-1-.27-2.55.29-3.5.27-.45,1.85-.58,1.39-1.27s-2.61,0-2.89.6c-.47,1,.81,2.79.78,3.9,0,2-.26.07-1.36.94-.62.49-.24,2.79-.62,3.52-.56,1.07-1.58,1.54-2.26,2.62-1.13,1.8-2.92,2.85-4.67,4.1-1.35,1-3.69,2.25-2.82,4,.47.93,1.5,1.73,2,2.68a32.88,32.88,0,0,1,2.08,4.46c.8,2,1.43,4.05,2,6.11a14.94,14.94,0,0,1,1,3.66c0,.06-2.61-.71-2.8-.74a6.94,6.94,0,0,0-3.29.29,21.76,21.76,0,0,0-7.27,4.53,22.56,22.56,0,0,0-6.53,10c-.3-1.27-.45-3.42-1.2-4.5-.32-.45-1-.67-1.07-.84a5.28,5.28,0,0,1-.71-3c-.13-5,1.79-10.41.61-15.42-.26-1.09-1.65-2.13-1.7-3.1s1.76-3.36,2.63-3.84c1.49-.81,4-.8,5.67-1,.79-.11,6.1-.16,6.39-.71.68-1.27-2.31-.85-.06-2.67a28.25,28.25,0,0,0,4.25-3.47c2.38-2.82,3.07-6.47,3.2-10.06.2-5.38-1.1-10.66-1-16,.09-4.26,2.2-7.4,4.86-10.59,5.42-6.48,12.49-7.66,20.57-8a50.56,50.56,0,0,1,14.28,1.55c9.29,2.25,18.37,5.48,27.42,8.53,5.1,1.72,10.22,3.39,15.27,5.26.53.19,4.39,1.22,4.4,2.11,0,2.12-8.19-.29-9-.5a127,127,0,0,1-13.46-5c-2.73-1.09-5.55-1-8.43-1.22s-5.63-1.18-8.51-1.57c-3-.4-6.09.14-9.13-.27a41.24,41.24,0,0,0-4.55-.67c-.37,0-4.07.46-3.78.88.46.65,5,.36,6,.41,3.24.17,6.48.26,9.7.6,5,.53,9.87,1.61,14.91,2,3.65.32,6.61,2,10,3.27a118.89,118.89,0,0,0,11.38,3.54c1.57.39,8.74.58,6-2.13-1.12-1.1-3.52-1.63-4.94-2.17-9.47-3.62-19.18-6.72-28.83-9.83C197.54,99.83,188.46,96.74,179.16,96.74Zm-.7,8.5c-2.13,0,0,1.94.57,2.52s1.26.88,1.12,1.87c-.05.4-1.15,1.3-.56,1.58,1.68.82,1-2.34.67-2.85-.88-1.49-2.31-1.49-1.22-2.94C179.24,105.15,177.85,105.23,178.46,105.24Zm-5,1c-2.86,0,6.23,7.75,1.23,6.4-2.21-.6-4.12-3.51-6.35-3.64-2.7-.17.11,2.65.81,3.4,1.12,1.18,2.84,2.92.18,2.7-.84-.07-4.52-1.44-5.27-.68-.44.45.62,3,.84,3.4,1.95,3.64.16-2.74.26-2.82s3.51.82,4,.83c1,0,2.46.17,2.74-.94s-2-2.62-2.53-3.48c-.44-.7-1-1.08,0-.92,1.8.29,5.19,5.12,7.15,3.16s-3.42-6.21-3.06-6.47,2.22.82,2.22.82A2.72,2.72,0,0,0,173.46,106.19ZM71.09,109.6c-6.63.76-13.36,1.81-20,2.65-1.07.13-18.25,2.07-15.19,5.52,1,1.11,5.29.29,6.48.19a113.76,113.76,0,0,0,11.6-1.7c1.68-.33,19.48-4.81,19.57-4.62-.31-.66-2.48-.12-3-.65C70.69,111.13,71.73,110.12,71.09,109.6Zm20.24-.22c-.35,0-3,0-3,.65s4.17.18,4.46.24c1,.21,1.48,1.2,2,1.11a.94.94,0,0,0,.49-1.74C94.49,109,92.2,109.34,91.33,109.38Zm79.33-1.11c.61.57,3,3.42,3.74,3.26C174.73,111.45,171.17,108.63,170.66,108.27Zm15.34.2c-.65,0-2.44.3-2,1.13s4.16,1.66,5.12,2c3.77,1.41,7.51,2.89,11.21,4.5,5.91,2.57,11.42,6.32,17.41,8.63,1.79.69,3.43,0,2-1.94-.89-1.22-2.64-2-3.91-2.76-2.55-1.42-5.23-2.64-7.89-3.83-4.4-2-8.84-3.91-13.35-5.62A27.09,27.09,0,0,0,186,108.47Zm-85,2.27c-.4,0-2.71.42-2.67,1a19.3,19.3,0,0,0,2.75,1.42,18.55,18.55,0,0,1,3.37,1.17c1.11.56,2.7.48,3.75,1.12.59.36,1.25,2.43,1.89,1.83,1.38-1.3-3.33-3.37-4-3.75-1.08-.64-3.06-.46-4-1.25C101.5,111.72,102.2,110.78,101,110.74Zm-22.08.87c-3,.24-6.19,1.44-9.15,2.16-4.06,1-8.16,1.89-12.22,2.88-2.34.57-5.12,1-7.25,2.21-1.25.7-2,1.66,0,2.31,1.3.43,2.93,0,4.21-.28,3.32-.74,6.57-1.82,9.83-2.79,1.45-.43,17.87-4.62,17.71-5.6A22.1,22.1,0,0,0,78.94,111.61Zm118-2.59c-1.27.08-.24.78,0,1a10.5,10.5,0,0,0,2.88,1.33l5.47,2.38c3.66,1.62,7.29,3.34,10.82,5.22,2.51,1.33,6.47,4.42,9.51,3.9,4.61-.8-5.56-6.08-6.25-6.45-3.77-2-7.68-4.16-11.81-5.3-1.49-.41-3-.53-4.53-.83C201.06,109.91,198.91,108.91,196.89,109ZM88.55,113c-6.19.28-12.64,2.83-18.47,4.7-.89.28-13,3.09-8.67,5.57,2.34,1.32,6.46-1.37,8.59-2.16,3.14-1.18,6.39-2,9.56-3.13q3.18-1.11,6.33-2.34A16.29,16.29,0,0,0,89.73,114C91.05,113,90.14,112.84,88.55,113Zm76.85-1.49c-1.06.12,2.34,3,3.48,2.35C168.94,113.78,166.22,111.37,165.4,111.46Zm17.59-.18c-2.92,0,3.46,3,3.9,3.19,3.5,1.46,7,2.94,10.43,4.52,3.7,1.69,7.34,3.5,11,5.19.43.2,6.79,3.38,6.32,1-.2-1-3.56-2.41-4.33-2.83-2.78-1.52-5.64-2.91-8.52-4.22-3.1-1.4-6.26-2.59-9.45-3.75C189.47,113.31,186.12,111.48,183,111.28Zm30.56.08s2.74,2,3.14,2.25c2.57,1.47,5.22,2.78,7.79,4.27s5,2.72,8,1.64c1.28-.48,1.24-.58.26-1.3-1.76-1.31-4.72-1.81-6.79-2.48-2.57-.84-5.15-1.67-7.66-2.66-1.54-.61-3-1.6-4.72-1.72Zm-118.87,2.9c-3.14.31-6.38,1.82-9.34,2.81-4,1.33-8,2.55-12,3.71-1.9.54-8.67,3.75-3.09,4.17a13.18,13.18,0,0,0,5.34-.86c5.17-1.66,10.26-3.65,15.27-5.74,1.22-.51,4.08-1.2,4.94-2.26.19-.23.51-.21.52-.49C96.32,115.76,94.82,114.24,94.68,114.26Zm-61.39,1.47c-3.23.19-6.68,1.59-9.76,2.49-4.89,1.44-9.77,3-14.6,4.59-1.74.58-3.48,1.17-5.19,1.84-.93.36-3,.79-1.68,1.93s5.95.12,7.53-.15a66.07,66.07,0,0,0,9.33-2.85,103.45,103.45,0,0,1,11.87-3.21c.52-.1,4-.47,4-1.35s-3.32-.9-3.25-1C31.84,117.38,34.78,116.61,33.29,115.73Zm69.21-.27a16,16,0,0,0-4.42,1.25c-2.87,1-5.7,2.07-8.52,3.17-5.24,2.05-10.56,3.91-15.5,6.59.93.82,1.86,2,3.16,2.13,1.81.24,4-1.13,5.56-1.85,4.14-2,8.16-4.13,12.35-6,.72-.32,9.17-3.28,9.12-3.49-.11-.5-2.3,0-2.56-.26S103.88,116.21,102.5,115.46ZM179,113.67c-1.36.11.24,1.06.59,1.25,1,.57,2.24,1,3.32,1.45,3.17,1.49,6.29,3.1,9.38,4.73,1.49.79,15.67,9.54,16.2,5.91.24-1.62-5-3.63-6.13-4.2-4.23-2.13-8.57-4-13-5.82C186.27,115.74,182.38,113.65,179,113.67Zm-3.61,2.07c-3,0-.23,1.37.9,1.94,2.59,1.29,5.13,2.66,7.65,4.09,3.22,1.82,6.37,3.78,9.62,5.53,1.37.74,4,2.65,5.49,1.46,2.72-2.22-7.24-6.42-8.44-7C186.12,119.39,180.52,116,175.35,115.74Zm-132,3.57c-3.33-.19-7.12,1-10.31,1.73a105.73,105.73,0,0,0-12.51,3.33c-1.92.66-3.83,1.39-5.7,2.17-.93.39-3.7,1.11-4.2,2.14-.9,1.84,3.42,1.69,4.37,1.65,8.19-.39,15.79-3.91,23.47-6.4,1.52-.49,8.07-1.46,8.63-3.07s-1.4-.58-2.11-.59c-.95,0-.63,0-1-.31S44.45,119.36,43.34,119.31Zm69.84-1.42c-.71.47.11.6-.19,1.17s-1,.09-.93.74,3.25,2.33,3.51,1.88C115.4,122,113.32,118,113.18,117.89Zm-8.23,1c-4.72.16-9.65,3-13.8,5-1.41.67-9.56,3.81-9,5.85.62,2.36,4.69.72,5.84.23,3.62-1.53,7-3.66,10.6-5.15,1.79-.74,3.63-1.3,5.47-1.91.56-.19,2.46-.53,2.82-1.17A2.06,2.06,0,0,0,105,118.86Zm64-1.21c-1.84.08-1.92,1.23-.53,2.18a13.4,13.4,0,0,0,1.91.78c2.52,1.15,5,2.47,7.39,3.79,2.09,1.14,13.62,9.32,14.95,6,1-2.42-6.54-5.63-7.77-6.32C180.14,121.38,174.73,117.46,169,117.65ZM57.83,121.51c-3.07.24-5.8,2.29-8.81,2.63-2.16.25-.28-1.8-.1-1.81-4.39.28-9.09,2.43-13.18,3.88-2.54.9-5.08,1.83-7.56,2.87-.95.4-3.83,1.18-4.23,2.33-.74,2.11,5.28,1.47,6.34,1.24a79.79,79.79,0,0,0,10.39-3.5c4-1.48,8.1-2.91,12.11-4.46a30.68,30.68,0,0,0,4.39-1.81C57.61,122.63,59.41,121.53,57.83,121.51Zm105.5-2.32c-1.54.19.22,2.17.27,2.78.09,1,.25.86-.83,1.2-.62.2-2.23-.13-2.38.84s1.77,1.53,1.67,2.56-1.26,0-1.67,1.07c-.11.3,0,1.24.39,1.4.73.31.37-.41,1-.63,1.07-.35,1.51.39,1.46-1.22,0-.68-1.85-2.91-1.66-3.21.33-.52,2.12.7,2.78-.09.94-1.13-.79-3-.93-3.92-.12-.81,2.82,1.71,2.43.12C165.68,119.33,164,119.16,163.33,119.19Zm75.66-.92c-.44,0-3.48,0-3.59.86-.08.62,2.21,1.27,2.54,1.4,2,.8,4,1.57,6.05,2.36,4,1.55,8,3,12,4.37,9.15,3.21,18.43,6,27.44,9.61,2.56,1,5.11,2.08,7.68,3.07.92.36,3.73,2,4.71,1.13,1.75-1.56-5.84-5-6.7-5.48A134,134,0,0,0,269.57,127c-4.91-1.71-9.86-3.35-14.81-5S244.41,118.26,239,118.27Zm-122.68,3.64c-.16,0,.14.61.11.75-.13.59-.52.2-.79.61-.42.63-1.12,1.19.35,1.63C118.15,125.54,117,121.78,116.31,121.91Zm-6.11.46c-2.29.08-5,1.27-7.21,1.93a53.39,53.39,0,0,0-8.9,3.74c-1.69.88-6,2.46-6.64,4.5-.43,1.35.58,1.78,1.73,1.74,1.83-.05,3.86-1.21,5.46-2,2.8-1.37,5.42-3.05,8.24-4.38a31.9,31.9,0,0,1,3.78-1.55c1-.32,2.46-.32,3.33-.93S111.53,122.79,110.2,122.37Zm57.08-1.29c-2.53-.06,2.09,3.79,2.29,3.93,2.15,1.5,4.36,2.93,6.53,4.39s4.43,3.37,7,3.95c2.13.49,4.11-.33,2.26-2.48-2.4-2.8-6.7-4.48-9.89-6.13C172.92,123.44,170.08,121.62,167.28,121.08Zm-108,2.75c-3.78,0-8.08,2.54-11.51,3.88a52.37,52.37,0,0,0-7.92,3.41c-2.65,1.6-.46,2.7,1.74,2.46,2.94-.33,5.9-1.68,8.63-2.7,4.08-1.53,8.18-3.08,12.16-4.86.58-.26,3.37-1.19,2.5-1.67s-2.74.65-3.51.57C60.24,124.82,60.25,123.81,59.31,123.83ZM233.51,121c-1.08.09-5.91,1-4.65,2.54.34.42,2.17.64,2.69.81,1.62.53,3.21,1.14,4.8,1.76,1.85.71,3.7,1.41,5.56,2.08,8.39,3,16.85,5.91,25.29,8.81,5.53,1.9,11.25,4.38,17.08,5.23,1,.14,4.3.54,3.66-1.39-.49-1.47-4.31-2.52-5.47-3-5-2-10.18-3.7-15.31-5.41-6.91-2.3-13.8-4.63-20.64-7.14-2.56-.93-5.07-2-7.61-3C237.22,121.65,235.37,120.82,233.51,121ZM67,125.83a16,16,0,0,0-4.64,1.5c-3.82,1.47-7.64,3-11.38,4.62-1,.43-4.3,1.43-4.74,2.68-.73,2.12,3.75,1.31,4.82,1.14,4-.65,7.81-2.52,11.55-4,2.39-.95,4.8-1.89,7.13-3,.48-.22,2.45-.86,2.62-1.48C72.58,126.53,67.88,126.21,67,125.83Zm51.33-.7c.08,0-.6,1.8-.58,1.91.19,1.22,2.23,1.66,2.24,3.06s-1.09,1.34-.24,2.72c.43.69,1.29,1,1.67,1.74s.12,1,.25,1.74-.13,1.07.39,1.8,1.31.56,1.48,1.4c.2,1-1.63,2.05-.69,3.34.32.43,1,.21,1.27.52s0,.9.19,1.37c.94,2.35,1.92-.6,1.75-.76-.33-.33-.61.59-1-.18s.18-1.78-.32-2.39c-.28-.34-1.08.11-1.18-.16-.22-.67.19-.37.24-1.12s.47-.74.06-1.56c-.3-.61-1.61-.83-1.65-1.59-.08-1.68,2.06-1.08.75-2.6-.7-.8-2.74-1.41-2.66-2.69.11-1.84,2.29-.87.68-2.69-.71-.79-2.33-.94-2-2.09.09-.38,1.08-.3,1-.91S118.74,125.16,118.34,125.13Zm-4.45.94a24,24,0,0,0-12.1,3.47c-1.28.79-3.81,2.53-4.07,4.14s1.52,1.67,2.82,1.26,2-1.52,3.07-2.21a22.61,22.61,0,0,1,5.82-2.45c1.06-.29,5.8-.63,6.21-1.71.51-1.35-1.77.24-2.31-.63-.24-.38,1.37-1.22,1.35-1.66C114.67,126,114,126.06,113.89,126.07Zm52.67-.85c-4.83-.22,2.2,5.94,2.94,6.6,1.8,1.61,6.49,8,9.56,6C183.08,135.21,169.38,125.53,166.56,125.22Zm58-.86c-1.58,0-2.91.16-1.38,1.4,1.79,1.44,4.8,2.07,6.93,2.93,4.93,2,9.82,4.08,14.75,6.09,7.76,3.17,15.56,6.52,23.57,9,1.89.58,7.5,2.52,8.53.09.61-1.42-1-2.27-2-2.77-3.4-1.74-7.28-2.76-10.88-4q-7.67-2.57-15.28-5.24c-4.14-1.45-8.31-2.89-12.4-4.49C232.54,125.92,228.69,124.49,224.53,124.36ZM74.26,129.1c-2.49.06-5.06,1.24-7.35,2.09a59,59,0,0,0-8.33,3.48c-2.39,1.34-2.22,3,.65,2.53,6-.86,12.15-3.11,17.72-5.29.64-.24,3.42-1,2.66-1.69-.54-.45-2.6.46-3.23.23C75.38,130.1,75.46,129.06,74.26,129.1Zm145.39-2.77c-4.06-.13.92,2.09,2,2.68,2.69,1.44,5.41,2.86,8.19,4.12,6.77,3.07,13.5,6.27,20.28,9.34,3.19,1.44,6.73,3.24,10.33,3,1.18-.08,2.69-.07,1.92-1.37-.38-.65-1.8-1.16-2.43-1.48-1.82-.93-3.71-1.73-5.59-2.52-4.83-2.05-9.72-4-14.56-6-4-1.67-7.95-3.51-12-5.15C225.3,127.9,222.44,126.51,219.65,126.33Zm-4.8,1.2c-2.51-.13-.24,1.58.57,2.19a99.34,99.34,0,0,0,9.05,5.88c3.56,2.09,7.18,4.09,10.91,5.87,1.9.91,4.86,2.71,7.1,2.23,1.78-.38,1.94-1.58.63-2.67-2.76-2.3-6.7-3.86-10-5.28s-6.57-2.9-9.77-4.56C220.77,129.83,217.86,127.83,214.85,127.53Zm-98.29,2.64a31.47,31.47,0,0,0-9.72,2.24c-1.57.57-6.8,4.1-3.42,5.67,1,.47,3.15-.53,4.07-.84,1.94-.66,3.81-1.48,5.77-2.08a12.87,12.87,0,0,0,2.64-.73c1-.65.61-.61,1-1.57S118.45,129.94,116.56,130.17Zm94.24-1.33c-.94,0,3.09,3.5,3.5,3.84,1.89,1.57,3.75,3.16,5.6,4.77,2.95,2.56,6.63,6.65,10.94,6.24,1.95-.19,2.76-1.09,1.13-2.34-2.66-2-6.09-3.4-9-5.18s-5.77-3.86-8.75-5.65A10.79,10.79,0,0,0,210.8,128.84Zm-46.65,1.42c-3.2.44,3.18,7.3,3.73,7.87,1.1,1.14,4.24,5.21,6.32,3.85C177.73,139.66,166.88,129.88,164.15,130.26Zm39.41-.9c-.48,0,.78,1,1,1.16,1.09,1,2.22,1.95,3.33,2.91q3.12,2.69,6.17,5.45c.78.7,9.83,8.58,9.66,4.64-.07-1.81-3.71-4.29-4.85-5.3-2.11-1.89-4.26-3.75-6.55-5.44C209.54,130.75,207,129.38,203.56,129.36Zm-122,3c-4.49.26-9.45,2.33-13.51,4.12-.65.28-2.28.78-2.39,1.67-.24,1.79,3,1.82,4.08,1.74,4.71-.37,10.08-2.48,14.18-4.7.82-.44,1.8-.72,1-1.3-.55-.41-1.46,0-2-.56C82.45,133,83,132.15,81.51,132.4ZM200,130c-.39,0-3,.16-3.12.8,0,.33.94,1.05,1.16,1.26,2,2,4.2,3.76,6.33,5.6,1.09.94,9.66,9,10.18,4.65.24-2-3.68-4.65-4.85-5.68C207.38,134.6,203.51,129.82,200,130Zm-5.4,1.56c-.46,0,1.93,4.37,2.08,4.63.85,1.49,1.47,3.06,2.25,4.57a5.82,5.82,0,0,0,4.65,3.15c1.27.15,2.43,0,2.31-1.51-.19-2.36-4.47-5.39-6.1-6.84S196.51,132.3,194.6,131.57ZM94.44,134.11c-2.19.28-4.56,1-6.74,1.5a40.76,40.76,0,0,0-6.55,2.14c-1.18.47-9.82,4-5,5.36,1.51.41,3.54-.48,4.92-1,3.21-1.1,6.35-2.47,9.45-3.85.72-.33,4.71-1.62,4.91-2.57.1-.45-.15-.18-.16-.39,0,.75-.89-1.38-.57-.76C94.42,134,95.12,134.62,94.44,134.11ZM191,132.49c-1,0-2,.09-3,.15a53.19,53.19,0,0,1,5.57,9.35c.34.83,1.43,3.4-.07,1.93-1.7-1.65-2.46-4.87-3.84-6.85-1.13-1.64-2-2.57-4.06-2.41-.66.05-3,.26-3.31,1s.62,1.69,1,2.21a61.12,61.12,0,0,1,5,7.35c.35.68,2.63,4.87,1.84,5.59,0,0-2.27-4.15-2.53-4.6a33.26,33.26,0,0,0-4.27-6c-.88-1-1.56-1.84-2.77-1.61s-2.79,1.49-4,2c1.32,1.59,11,14.23,9,14.9-.22.07-4.29-7.15-4.71-7.78-.88-1.3-3-5.42-4.86-5.12-1.24.2-2.67,1.91-2.45,3,.29,1.4,2.58,3.21,3.45,4.24a48.48,48.48,0,0,1,3.63,4.69c.84,1.27,1.45,3.75,2.59,4.67,1.44,1.18,2.67-.41,4.19-1.18a6.28,6.28,0,0,0,2-1.16c.76-.77.88-1.92,1.61-2.66,1-1.05,2.18-1.11,3-2.59s.38-2.89,1.7-4.08,3-1.4,3-3.37a12.42,12.42,0,0,0-1.45-4.39C196.11,137.4,194.11,132.38,191,132.49Zm-29.2,1.45a10.5,10.5,0,0,0-.43,3.38c.34,1.84,2.43,3.25,3.67,4.49,1.07,1.07,6.09,8.25,6.8,3.66.4-2.58-4-5.7-5.48-7.18Zm-43.22,1.41c-3,0-6.37,1.3-9.1,2.43-2.06.86-6.17,3.83-2.65,5.86,1.61.93,2.78-.12,4.13-1a27.38,27.38,0,0,1,5.19-2.6c1.23-.48,2.64-.79,3.24-2.07C119.82,137.09,120,135.27,118.6,135.35Zm-20,1.18a11.41,11.41,0,0,0-3.79,1.28c-2.58,1.06-5.13,2.19-7.63,3.4-1,.46-6.09,2.41-4.58,4.09,1.77,2,9.3-1.68,11-2.44s6.06-2.18,6.83-4c1-2.29-2.08.11-3-.52C97.3,138.26,99.08,137,98.57,136.53Zm26.56.18c-2.26,0,1.63,2,1.63.62C126.76,136.92,125.45,136.72,125.13,136.71ZM103,139.66c-3,.17-4.71,4.65-.92,4C104.05,143.37,105.5,139.52,103,139.66Zm17.17.36c-2.4.14-12.58,4-10.32,7.8,1.4,2.35,5.65-1.76,7-2.59,1-.6,3-1.31,3.73-2.22C121,142.53,121.54,139.94,120.21,140Zm40.24-.3c-1,.06-1.12,1.87-.94,2.61.3,1.2,1.56,2.42,2.33,3.3,1,1.14,5.46,7.21,6.84,5.33C171,147.83,163.08,140.43,160.45,139.72ZM147,141.25c.65.12-.72,2-1.23,1.79C145,142.66,146.53,141.33,147,141.25Zm-2.78.1c1.1-.06.32,1.56-.56,1.3S143.66,141.43,144.18,141.35Zm-46.67,1.21c-1.51.17-9.33,3.85-5.36,5.08,1.72.53,4.56-.22,6-1.1.88-.52,1.12-.48,1-1.37A12.65,12.65,0,0,0,97.51,142.56Zm41.66-.92c.78,0,.06,1.37-.36,1.39C138.13,143.06,138.8,141.78,139.17,141.64Zm-3.8.46c1,.14.79,1.43.23,1.12S134.77,142.49,135.37,142.1Zm-29.84,2.69c-1.35,0-3.33.88-3.26,2.5.07,2,2.63,1.83,4,1.56C109.52,148.18,108.59,144.92,105.53,144.79Zm38.32-.69c.8,0,.75,1.35,0,1.37S143.1,144.15,143.85,144.1Zm-6,.36.58,0c.35.11-1.89,1.93-2.06,1.23S137.31,144.53,137.84,144.46Zm20.09-.36c-3.32-.16.09,4.54.64,5.28.77,1,4.76,6.88,6.54,5.25C167.74,152.23,160.17,144.61,157.93,144.1Zm-36.37.92a11.44,11.44,0,0,0-7,3c-1.1,1-2.27,3.77.13,3.93,1.82.12,4.31-2.81,5.83-3.64.8-.44,2.66-.86,2.74-2C123.29,145.43,122.3,145,121.56,145Zm19.15-.45c1,0,0,2.14-.85,1.32C139.37,145.41,140.29,144.68,140.71,144.57Zm-51.88,1.67c-1.8-.26-3.11,3.33-1.61,3.81C88,150.29,89.11,146.84,88.83,146.24Zm38.79-.89c-1-.08-2.15,2-.73,1.59C127.54,146.76,128,145.84,127.62,145.35Zm-27,1.47c-1.09.26-2.91,3-2.64,4.18.47,1.95,3.22,1.64,4.59,1.09.3-.13,1.82-.72,1.64-1.31-.11-.38-1.6-.25-1.95-.43C100.72,149.53,101.22,148.07,100.62,146.82Zm53.18.32c-4.08.5,1.56,5.67,2.48,6.76.76.88,4.42,5.84,6,4.74C164.62,157,156.23,147.09,153.8,147.14Zm-29.42,1.14c-1.43.09-10.61,4.44-6.73,6.13,1.72.75,4.17-1.88,5.16-2.88C123.12,151.22,126.24,148.16,124.38,148.28Zm-33.33,1.15c-2.46.09-2.6,2.15-2.94,4.3-.25,1.55-.13,5.14,1.55,6,1.1.59,1-.09,1.16-1.21a8.07,8.07,0,0,1,1.11-2.81c.54-1,.73-2,1.19-3,.35-.74,1.84-2.31,1.82-3.18C94.94,149.28,91.16,149.42,91.05,149.43Zm81.27-1.15c-4.83.64,1.44,6.66,2.43,8s4.25,8,6.58,6.66C185.19,160.79,175.45,148.22,172.32,148.28Zm-63.08,1.5c-2.9.2-5.48,6.27-5.66,8.65-.12,1.45-.17,3.9.72,5.17.69,1,2.83,1.75,3.86.74.8-.79.35-3.26.53-4.32a18.14,18.14,0,0,1,1.7-5.33c.58-1.07,2.08-2.24,1.59-3.61S110.43,150.09,109.24,149.78Zm17.59.1c-1.72.06-6.3,4.55-4.73,6C125,158.6,128,150.1,126.83,149.88Zm23.73-.47c.06,0,1.11,2.52,1.26,2.77.84,1.5,1.74,3,2.57,4.46.57,1.05,2.69,6.34,4.44,4.79C161.4,159.17,152.2,150.58,150.56,149.41Zm-21.71,1.72c-1.45.09-2.62,4-1.15,3.74C128.5,154.71,130.72,151.05,128.85,151.13Zm-33.06,1.08c-2.21.16-3.35,5.95-3.57,7.46a13.28,13.28,0,0,0,.21,5.14c.13.54,1.12,4.1,1.9,4.05.6,0,1.25-5.39,1.36-5.85a22.79,22.79,0,0,1,2.1-5.6c.44-.8,1.35-1.8,1.16-2.56C98.72,153.93,96.52,152.33,95.79,152.21Zm17.91.57c-2.71,0-4,6.88-4,8.76,0,1.41,1.22,8.17,3.63,5.7.88-.9.5-2.83.53-3.91a26.3,26.3,0,0,1,.89-5.57C115.17,156.09,116.54,153,113.7,152.78Zm55.18.11c-6.35.37,6,17.91,8.39,13.88,1.29-2.19-1.88-6.93-3-8.65S171.21,153,168.88,152.89Zm-66.61,1.85c-3.35.19-5.52,7.67-5.93,10.13a11.26,11.26,0,0,0,.39,5.73c.36,1,2.16,4.83,3.48,4.75-.08,0,1.6-10.31,1.82-12C102.31,161.07,103.31,156.86,102.27,154.74Zm15.11,1.16c-3.33.2-3.2,13.47-.33,14.27,1,.29,2.13-1.33,2.42-2,.66-1.65.27-3.87.41-5.6.13-1.53,1-3.67.61-5.13-.56-2.22-1.33.19-1.9-.42S118.41,155.83,117.38,155.9ZM128.26,157c-2.36.27-2.61,4.39-2.8,6.09-.11,1-.76,7.05,1.32,6.42,1.36-.42,1.16-4.51,1.23-5.46a44.22,44.22,0,0,1,.57-5.27C128.73,158.08,129.32,157.15,128.26,157Zm-3.88.54c-3.23,0-3.31,3.07-3.51,5.65-.12,1.61-.75,5.27.25,6.74,1.73,2.53,2.89-2.73,3.09-3.88.37-2.12.42-4.29.85-6.41C125.22,158.86,125.94,157.24,124.38,157.55Zm5.84.33c-1.5.08-1.62,8-.37,8.69,1,.6.86-2.19.88-2.84C130.76,162.1,131,159.39,130.22,157.88Zm35.63-.28c-1.53,1.39-3.66,2.48-2.51,4.6,1,1.86,2.35,3.52,3.4,5.36.64,1.11,1.07,2.84,2.52,3,3.34.4,1.07-5.85.47-7.19A30.28,30.28,0,0,0,165.85,157.6Zm19.41,3.22c-.53.6-1,1.21-1.59,1.79-.2.23-2.79,2.08-2.8,2.2-.19,1.23,8.25,3.9,9.32,4.41a47.41,47.41,0,0,1,10.18,6.61c1.54,1.32,3,2.77,4.48,4.12.69.62,2.11,2.45,2,.42,0-1.29-1.78-2.82-2.55-3.67a89.81,89.81,0,0,0-6.65-6.44A99,99,0,0,0,185.26,160.82Zm-25.12,1.4c-1.23.15,1.93,5.64,2.22,6.16.49.84,1.9,3.85,3.32,3C168.13,170,162.1,162.53,160.14,162.22Zm-2.67,1.58c-1,.06,1.35,3.35,1.64,4s1.68,4.62,2.39,2.64C162,169.21,158.89,163.72,157.47,163.8Zm-54.09,1.55c-1.42.21-1.73,4.5-1.73,5.53a11.73,11.73,0,0,0,1.56,6c.93,1.6,2.72,3.69,4.51,4.36s1.19-.25.74-1.72a17.08,17.08,0,0,1-.86-6.76c.13-1.52,1.35-4.41.84-5.88-.4-1.13-.11-.27-1-.54s-1.78-.13-2.65-.44A5.83,5.83,0,0,0,103.38,165.35Zm6.34,3c-1.77,0,.15,9.4.47,10.41a9.14,9.14,0,0,0,2.7,4.51c.66.53,4.14,2.4,5,1.59.49-.49-1.82-4.78-2-5.33a19.92,19.92,0,0,1-1.41-7.19c0-1.13.24-2.36-.78-2.82-.39-.18-1.31.2-1.87,0C111,169.23,110.53,168.51,109.72,168.33Zm19.34,1.23c.76,0,.49,3.52-.09,3.35S128.32,169.61,129.06,169.56Zm53.26-.32c-1.07,0-1.11.37-1.65.72,0,0-1.18.82-1.22.87-.28.31,3.88,1.52,4.1,1.57,1.06.23,3.23.92,4.17.12C190.32,170.28,183.58,169.22,182.32,169.24ZM124,172.17c.52,0,.58,1.7-.14,1.66S123.66,172.35,124,172.17Zm50.64-1c-2.57.19,1.13,2.2,1.59,2.46,1.29.72,3.07,2.09,4.62,1.52a3.57,3.57,0,0,0,1.39-1.14c.24-.85-.06-.61-.94-.92C179.43,172.43,176.67,171.14,174.68,171.17Zm16.6.14c2.79,2.43,5.44,5,8,7.63,1.13,1.15,3.55,4.36,5.37,4.54,1.08.1,1.07-.23.71-1.1-.42-1-2.14-2.17-2.94-2.89q-2.27-2-4.67-3.93A47.24,47.24,0,0,0,191.28,171.31Zm-21.25.95c-.82.06,2,3.2,2.35,3.46.77.63,4.8,2.42,4.73.39C177.05,174.62,171.28,172.4,170,172.26Zm-43.27,1.53c.85,0,.83,2.74,0,2.74S126,173.84,126.76,173.79Zm63.93-.54c.79,1,1.57,2,2.36,3a28.48,28.48,0,0,1-3.55-.8c-.1,0-1.15-.55-1.35-.45.48-.24,11.31,14.18,13.09,9.52.63-1.65-3.4-5.26-4.38-6.29A28.48,28.48,0,0,0,190.69,173.25Zm-22.44.93c-1.21,0-.92,2.49-.51,3.12.54.83,2.76,1.62,3.58.8C172.42,177,169.56,174.41,168.25,174.18Zm-44.5,2.52c.91,0,1.47,3.42.17,2.37C123.35,178.61,122.94,177,123.75,176.7Zm62.62-.84s.32,1.72-.09,1.9c-.7.33-1.07-1.23-1.88-1.19-.4,0,10.72,12.8,11.27,9,.15-1.08-3.58-4.23-4.25-4.94C190,179,188.29,176.88,186.37,175.86Zm-56.78,2.59c.83,0,1.86,3,1.09,3.27S128.8,178.5,129.59,178.45Zm52.11-.74c-1.76.1,3.16,5.3,3.41,5.59.45.52,5.82,6.33,5.18,2.51-.28-1.68-3-3.77-4.13-4.85S183.38,178,181.7,177.71ZM179.23,179c.2-.11,2.84,5.91,3,6.39.42,1.06.35,2.26,1.6,2.7A1.56,1.56,0,0,0,186,187c.14-1.33-2.3-3.9-3-4.8C182,181,180.8,179.49,179.23,179Zm.56,1.95c-.75.05-.8,1.39,0,1.37S180.59,180.9,179.79,180.94Zm-54.39,1.39c.62.06,2,3.27.66,2.73A2.23,2.23,0,0,1,125.4,182.33Zm2.35.27c1,0,2.66,2.93.94,2.44C127.81,184.78,126.94,183.21,127.75,182.6Zm49.3-.57c-.49.08,1,2.9.7,2.91-1.26.05-2.57-1.77-1.55.56.39.87,3.22,4.56,4.13,2.34C180.88,186.53,178.13,182.69,177.05,182Zm-44.69,2.71c.38.35,3,2.53,2.59,2.9S132.64,185.1,132.36,184.74Zm30.1,1.45s.56,1.51.7,1.71,2.12.5.6,1.33S160.91,187.16,162.46,186.19Zm-13.82,5.47c-.06,0,1,3.14,2.13,2.51C151.2,193.94,148.94,191.52,148.64,191.66Z"/></svg>