<svg xmlns="http://www.w3.org/2000/svg" width="236" height="300" viewBox="0 0 236 300"><path d="M186.46 257.25c0-.37-.67-2.64-1.43-5-3-9.36-24.44-76.25-24.32-76.57.19-.49 69-50.39 69.07-50.64a.57.57 0 00-.18-.67c-.19-.12-58.82-.45-68.43-.47-18.31 0-18.54 0-18.75-1.11 0-.27-24.15-73.91-25.64-78.35-.75-2.2-1.25-2.78-1.79-2-.31.42-26.6 80.71-27.25 80.95-.29.1-86 .08-86.25.3a.57.57 0 00-.09.58c.14.37 69.72 51.83 69.72 52.3 0 .24-26.54 80.42-26.54 80.74 0 1.21.55.9 7.9-4.39 2.12-1.53 61.37-44.16 61.81-44.37.77-.37.84-.36 1.85.3s64.6 46 67.54 48c2.06 1.33 2.85 1.46 2.78.4z" fill="none" stroke="#000" stroke-width="1.4"/></svg>