<svg xmlns="http://www.w3.org/2000/svg" width="600" height="400" viewBox="0 0 600 400"><title>flag-maine-1901</title><path d="M600,400H0V0H600ZM138.87,79.26l-.23-1c-1.87-.16-3.75-.42-5.63-.46-5.47-.11-10.94-.22-16.4-.17-3.32,0-5.08-1.3-6-4.59-1.42-5.27-3.29-10.42-5-15.61-.65-2-1.35-4-2-5.95a9.16,9.16,0,0,0-2.37,4c-2,6-4,12-5.84,18-.88,2.88-2.58,4.12-5.53,4s-6.17,0-9.25,0H68.25l-.36,1.09c1.09,1,2.12,2,3.27,2.87,4.55,3.51,9,7.11,13.73,10.4,2.64,1.86,3.29,3.88,2.2,6.82-1.94,5.26-3.76,10.56-5.57,15.87-.82,2.37-1.5,4.79-2.24,7.19a109.72,109.72,0,0,0,13.39-8.56c10.4-7.43,10.37-7.4,20.59.19,4.17,3.1,8.49,6,12.73,9a153.86,153.86,0,0,0-6.72-22c-1.55-4-.67-6.41,2.87-8.78C127.89,87.74,133.31,83.4,138.87,79.26Z" fill="#fbf49b"/><path d="M138.87,79.26c-5.56,4.14-11,8.48-16.73,12.33-3.54,2.37-4.42,4.78-2.87,8.78a153.86,153.86,0,0,1,6.72,22c-4.24-3-8.56-5.9-12.73-9-10.22-7.59-10.19-7.62-20.59-.19a109.72,109.72,0,0,1-13.39,8.56c.74-2.4,1.42-4.82,2.24-7.19,1.81-5.31,3.63-10.61,5.57-15.87,1.09-2.94.44-5-2.2-6.82C80.2,88.61,75.71,85,71.16,81.5,70,80.62,69,79.59,67.89,78.63l.36-1.09H80.64c3.08,0,6.17-.09,9.25,0s4.65-1.15,5.53-4c1.83-6,3.87-12,5.84-18a9.16,9.16,0,0,1,2.37-4c.68,2,1.38,3.95,2,5.95,1.7,5.19,3.57,10.34,5,15.61.88,3.29,2.64,4.63,6,4.59,5.46,0,10.93.06,16.4.17,1.88,0,3.76.3,5.63.46Z" fill="#0067b1"/><path d="M358.69,322.81c-3.42-1.71-6.92-3.92-10.57-4.32-4.94-.54-10.05.37-15.09.75-10.07.75-16.79-6.67-16.58-14.88a146.84,146.84,0,0,0-.61-19.34c-.82-7.68,2-12.72,9.08-15.58,2.49-1,3.21-3.21,1.66-5-.88-1-3.34-1.2-5-1-1.47.19-2.8,1.45-4.67,2.5-.33-2.79-.84-4.87-.75-6.92.09-2.21.16-4.79,1.29-6.52,1.41-2.14,3.76-3.77,6-5.21a7,7,0,0,1,4.14-.57c3.48.32,7,1.18,10.41,1.33-.1-8.32-34.08-43.35-71.45-8.12a29,29,0,0,1,10.44,3.6c4.39,2.65,8.79,3.27,13.49,3.76,1.39.15,2.8.21,4.18.45,5.06.87,6.39,2.34,6.72,7.52q.25,4,.24,8c0,4.9-1,5.56-5.76,4.9-1.15-.16-3.33.38-3.47,1a6.36,6.36,0,0,0,.59,4.52c.73,1.18,2.73,1.51,3.66,2.64,1.68,2,4.12,4.32,4.22,6.59.37,8.25.66,16.64-.45,24.79-1,7.76-5.23,13.11-13.87,11.13a36.37,36.37,0,0,0-13.32-.34,14.66,14.66,0,0,0-11.63,9c1.63-.3,2.92-1.32,4.35-1.61,4.45-.88,9.18-2.69,13.4-1.93,7.91,1.44,15.49,4.92,23.21,1.74,1.41,3.53,2.67,6.45,3.72,9.44.56,1.57,1.25,3.36,1,4.89-.4,2.22-1.08,4.91-2.63,6.27s-4.4,1.5-6.65,2.16c2.86,3.37,5.3,4,9.05,2.41,7.17-3.07,11-10.55,10.14-19.92-.15-1.69-.21-3.39-.35-5.66,7.1,3.35,13.53,4,20.32,1.77,7.57-2.5,15.25-6.14,23.4-.55C360.12,324.85,359.67,323.3,358.69,322.81ZM298.76,242.1c-2.1-.07-4.16-1-6.24-1.56l0-1.48c2.1-.57,4.19-1.48,6.32-1.58,1,0,2,1.46,3,2.27C300.86,240.59,299.78,242.14,298.76,242.1Zm16.52.3c-.75-1.05,0-3.18.08-4.82l7.3,3.19C319.46,243.32,317.45,245.44,315.28,242.4Z" fill="#581f00"/><path d="M298.34,193.2c-1.85.58-3.75,1-5.75,1.49,18.46,16.5,44.65.17,43.86-6-.66-5.12-25.14-19.63-34-20.79-19.56-2.56-57.42,3.41-56.81,3.73,3.65,1.93,8.31,2.3,11.45,4.75,6.23,4.84,13.24,6.44,20.69,7.28,3.29.37,6.57.82,9.77,1.23-.1,5.51.78,6,5.68,4.68a8.7,8.7,0,0,1,5.44.28C300.53,190.69,300.43,192.54,298.34,193.2Zm29.87-4c.26,5-6.4,8.47-12.61,7.13L315,195Zm-9.58-3.79c.07.43.15.85.23,1.28l-6.7,1.8c-.15-.77-.29-1.54-.44-2.31Z" fill="#581f00"/><path d="M307.82,160.13c7,1.25,16.35,1.68,20.27-5.55,2.76-5.09,4.24-13.53-.38-16.89-24.78-18-34,5.74-32.09,5.94,4.41.45,6.55,3.86,5.42,8.48C300.53,151.93,302.48,159.18,307.82,160.13Zm-.61-25.29a34.57,34.57,0,0,1,4.14,4.71c.44.69-.31,2.13-.52,3.22-1.11-.38-2.8-.45-3.21-1.2a32,32,0,0,1-1.9-5.9Z" fill="#581f00"/><path d="M308.74,89.81c-.25.22-12.71,6.56-10.12,10.69,1.57,2.51,5.86,11.2,6.93,12.31a2.2,2.2,0,0,0,.18.14c1.94.2,15.32-5.27,17.3-7.53C323.59,104.09,314.41,84.9,308.74,89.81Zm3.07,17.79c-.69-1-2.05-2.09-1.91-2.94.2-1.23,1.5-2.28,2.32-3.41l4,3.2Z" fill="#581f00"/><path d="M407.48,195.77c-5.29,1.65-10.84-1.31-16.13,1.39-2.42,1.23-5.51,1.07-8.23,1.81a21,21,0,0,0-4,2.15c-1.47-4,.84-5.08,3.22-6,5.25-2,10.55-3.86,14.32-8.43,3.56-4.33,3.58-5.54-.24-9.59a4.91,4.91,0,0,1-.85-1.41c-2.19-5-4.16-5.68-9.06-3.57-1.54.67-3.81,1.42-5,.78-4.31-2.27-7.74-1.24-11.25,1.52-.93.72-2.45.69-3.7,1l-.58-1.32a14.15,14.15,0,0,1,3-2.4c4.52-1.84,9.07-3.64,13.71-5.13,5.45-1.76,12.31-3.56,13.12-9.22.93-6.59,3.31-12.66,4.37-19.06.67-4.08-1.74-5.06-5.47-3.18-3.32,1.68-6.84,4.11-10.3,4.17-7.74.13-12.9,7.65-20.84,6.5-.37,0-.81.75-1.3,1-3.25,1.73-6.5,3.47-9.8,5.1-.57.29-1.38,0-2.05.15-2.24.4-4.45.92-6.69,1.24a20.26,20.26,0,0,1-3.39-.06c.33-1.11.33-2.85,1-3.21a39.37,39.37,0,0,1,9.18-3.74c7.47-1.63,14.88-3.44,20.75-8.57,2.52-2.21,5.28-5.28,5.82-8.34.76-4.22.8-8.48,2.92-12.44.84-1.58.06-3.6-2.08-2.54-2.89,1.42-5.37,1.78-8.37.45-.82-.36-2.69.64-3.55,1.53-2,2.06-3.21,2.35-5.23-.26a9,9,0,0,0-12.4-2.37c-2.64,1.57-5,2.56-8.21,1.93-1.51-.29-3.65.62-4.93,1.68-2.65,2.2-4.89,2.47-8-.95,2.64-.81,4.73-1.42,6.81-2.08,9.43-3,18.47-6.52,24.75-14.94,2.72-3.64,2.36-6.71-.26-10.77-3.64,5.09-8.05,2.75-12.5,1.64a20.1,20.1,0,0,1,4.49-2.69c2.81-1.4,2.95-3.65.76-5.3-2.44-1.84-5.28-4.88-8.57-.8-.35.44-1.4.33-2.37.52.17-.81.12-1.32.35-1.56,2.24-2.39,1.76-4.64.12-7.2-1.86-2.89-3.93-1.1-5.93-.61-3.67.9-7.31,1.94-11,2.92-.2-.46-.39-.92-.58-1.37l3.84-2.08c2.91-1.57,6-2.91,8.63-4.86.89-.66,1.19-3.09.76-4.37-1.79-5.38-7.74-5.65-11.45-8.74a1.29,1.29,0,0,0-1.21,0c-3.55,2.44-5.2-.3-7.25-2.44-2.73-2.85-6.16-3.15-8-.35-2.92,4.5-6.5,6.34-11.94,5.83-4.25-.39-6.29,3.32-4.91,7.41a4.16,4.16,0,0,1-.41,3.18c-2.46,3.74-1.3,6.68,3.24,8.07a23.31,23.31,0,0,1,6.43,2.68c.65.44.47,3.7,0,3.9-2,.78-4.95,1.91-6.27,1-3.41-2.32-6.17-5.45-10.21-1.27-3.55-2.8-6,.22-8.88,1.54-3.73,1.71-4.31,2.91-1,5.35,4.12,3,8.84,5.23,13.25,7.87,1.58.95,3,2.16,4.5,3.24a37.82,37.82,0,0,1-3.35,3.35c-2.61,2.06-2.65,3.74.08,5.54a12.38,12.38,0,0,1,2.51,1.48c.55.61,1.13,2.08.84,2.4a3.57,3.57,0,0,1-2.74,1.22,4.63,4.63,0,0,1-2.47-2c-4.69-6.77-12.09-6.55-19-7.07-1.13-.09-2.59,2.4-3.62,3.89-.46.67-.24,1.8-.33,2.72l-.84-1Q258,113.85,252.46,117a18,18,0,0,1-4.28,2.12c-1.38.32-2.94-.1-4.83-.21a18.79,18.79,0,0,0,1,3.1c7.78,13.94,29.53,24.44,45.25,21.93a23,23,0,0,1,5.83-.45,8.15,8.15,0,0,1,1.39.27c1.14-1.27,1.79-3.13,3.72-3.09,1.55,0,3.1,1.08,4.38,2a21.94,21.94,0,0,0,1.57-3.73c-.34-1.14-.61-2.31-.95-3.45l1.48-.83a35.35,35.35,0,0,1,4.15,4.71c.43.69-.32,2.13-.53,3.22l-.26-.08a9.54,9.54,0,0,0,.27,4.09c.75,2.19,2.11,4.06,2.72,6.31a.86.86,0,0,1-.59,1c-4.61,1.38-7.92-.95-11.83-2.61,0,.2,0,.39-.09.59a8.19,8.19,0,0,1-1.49-.54c-5.16-3.1-6.47-2.52-7.52,3.24-.11.57-.6,1.38-1.06,1.49a2,2,0,0,1-1.79-.63,11.7,11.7,0,0,1-1.11-2.69c-2-5.27-5.79-6.36-10.59-3.41-1.26.77-3.69,1.32-4.65.64-7.35-5.13-13.76-4.84-19.78,1.45-1.44-.67-2.95-1.35-4.45-2.06-9.27-4.33-9.27-4.33-11.76,4.86l-12.45-.64-.85,1.62c2.09,2.24,3.87,4.92,6.33,6.63a156.58,156.58,0,0,0,15.79,9.59c2.78,1.47,6.15,2,9,3.31,3.72.36,6.76,2,10.24,3.2,4.52,1.53,9.26,1.06,13.94.83,3.11-.16,6.56-.67,9.66-.17,2.54.4,4.51,1.83,6.58,3.25,3.29,2.26,6.33,3.68,9.39.4,1-1,2.08-2.49,3.63-2.67a3.19,3.19,0,0,1,3.19,1.92,7.89,7.89,0,0,1,.28,2.32,10.71,10.71,0,0,0,.52,2l6.55-.73c0,.25.09.51.14.76a34,34,0,0,1,5.05-1c1.59-.15,4.85-1,6.18.55.93,1,.47,2.41-.5,3.28a4.69,4.69,0,0,1-1.31.78c-.22,4.55-6.16,7.62-12,6.67a10.68,10.68,0,0,1-6.45,0c-2.38-.86-4.24-2.41-6.8-2.89a24.25,24.25,0,0,0-5.11-.2c-3.06.92-6.24,1.55-9.89,2.43-.56-8-6.5-9.68-12.75-8.26-4.22.95-5.88-.63-8.31-3-4.74-4.67-11.16-4.23-15.72,1-1-.85-1.93-2-3.12-2.51-2.37-1-5-2.45-7.34-2.27-6,.48-12,1.76-19,2.88,1.48,3.15,2.48,6,4.08,8.53,5.09,8,13,11.45,21.93,13.38a40.86,40.86,0,0,1,7.91,2.65c.79.35,1.07,1.87,1.59,2.85a11.92,11.92,0,0,1-3,.33c-4.82-.68-9.6-1.73-14.43-2.17a24.16,24.16,0,0,0-9,.67c-5.81,1.8-9.51,2.38-15.55,1.25-.21,0-.48.24-1.19.61a13.48,13.48,0,0,0,1.65,2.57c2.61,2.55,5.24,5.08,8,7.46,11.25,9.66,23.21,17.51,38.91,17.84a31.18,31.18,0,0,1,8,1.24c3.53-.08,7,.79,10.54.61,3.84-.2,7.6-1.41,11.38-2.15v-.21c2.11-.58,4.2-1.48,6.32-1.58a1.25,1.25,0,0,1,.61.15,11.67,11.67,0,0,1,3.49-.76,2.19,2.19,0,0,1,.77-.85,7.22,7.22,0,0,1,4.19-.84c2.42,0,6.55.27,8.72,2a7.75,7.75,0,0,1,2.27,1,12.79,12.79,0,0,0,2.76,1.56,11.18,11.18,0,0,1,4.59-1.82,5.51,5.51,0,0,1,5.05,2.64c.84,1.69-.67,3-1.81,4.15-.67.64-1.34,1.33-2,2h.11c4.12.37,8.25,1.54,12.33,1.33,7.39-.37,14.22-4.89,22-3.29a6.05,6.05,0,0,0,2.84-.67c7.81-2.74,15.67-5.34,23.37-8.32,6.8-2.64,12.24-6.76,13.71-14.62.29-1.54,1.48-2.95,2.43-4.31,3.56-5.14,7.37-10.12,10.68-15.41,1.06-1.68.85-4.15,1.31-6.77C412.64,195,409.94,195,407.48,195.77Zm-95.82-88.33c-.09-.13-.2-.27-.31-.41a6.65,6.65,0,0,1-3.64,1.36c-1.65.16-1.88-.22-2.27-1.83a9.9,9.9,0,0,0-2.26-4.92c-.89-.93-2.26-1.52-3-2.56-1.08-1.44-.35-2.94,1.36-3.48,2.61-.83,4.07,2.4,6.36,2.07,2.45-.35,3.57-3.78,6.33-4,1.65-.14,3.76,1,3.71,2.95,0,.92-.58,1.36-1.14,2.07-1,1.26-2,2.54-2.88,3.86l2.21,1.76Zm4.85,16.5c-.58-6,1.75-7.87,8.34-5.39Z" fill="#006226"/><path d="M287.3,201.57c-1.43-.55-2.48-.46-3.37-1.93a6.77,6.77,0,0,1-.58-1.92c-.37-1.49-1-3.22-3.13-3s-3.83,3-5.57-.14c-.3-.53-.13-1.68-.48-2.07-1.64-1.84-1.72.43-2.68,1-.69.39-1.07.93-2,1-2.72.21-4.32-3.36-6.12-5.36-.32,2.93-.51,7-3.66,7.7-3.91.82-3.28-4.1-4.36-6.44-.54.81-1.24,4.19-1.89,5s-1.65,1.11-2.16,1.89c-1.14,1.74-.15,1.26,1.51,1.05a.83.83,0,0,1,.81.62c.25,1.25.13,3,1.68,3.51.44.14,1.59-.36,2.14-.27a3.17,3.17,0,0,1,2.36,1.58c.76,1.44-.17,3.18.05,4.66.53,3.48,3.24-.85,4.2-2.28,1.4-2.09,3-4.21,5.7-4.3a5.45,5.45,0,0,1,3.34,1c.42.31.67.76,1.05,1.09s.49,1,.87,1.25c.91.58,3-.06,3.83-.48,2.06-1.07,3.68-3.23,5.8-.76a7.21,7.21,0,0,1,.85,1.6,6.17,6.17,0,0,0,.87,1.74c.42.43,2.67,1.51,3.33,1.12.82-.49,1.1-2.25,1.1-3.09C290.83,202.92,289.41,202.37,287.3,201.57Z" fill="#003a15" opacity="0.87"/><path d="M322.44,207.05c.78-.45.43-3.19,1.27-4.16,1.13-1.3,3.06-1.41,4.62-1.74a11.79,11.79,0,0,0,3.86-1.16q3.39-1.44-.63-4.15l-1.23.16c-2.15-.25-5-.87-7.26-.56a12.89,12.89,0,0,1-5.31.91,9.71,9.71,0,0,0-.85,1.82.84.84,0,0,1-.17,1.65l-2.52,1.82c1.64.5,2.9,1.24,1.76,3.3-2,3.5-5.76,3.31-8.93,2.17,0,3.46.53,7.72-4.14,7.33-2.21-.19-4.49-1.62-6.71-.5-1.13.57-1.86,1.84-2.93,2.53-2.62,1.68-5.17.52-7.89-.21a4,4,0,0,1-2.56,2.9,10.75,10.75,0,0,1-3.25.2c-2.19.07-2.09-.07-3.1,1.5-1.15,1.8-1.92,2-3.2,3.38-.31.31-.31,1.08-.68,1.49a4.85,4.85,0,0,1-3,1.18c-2.68.26-5.29-1-8-.82a10.63,10.63,0,0,0-3.42.54c-.66.31-2.27,1.13-1.28,2.35.22.26,1.93.22,2.21.24a30.52,30.52,0,0,1,5.74.28,22.85,22.85,0,0,0,6,.74,14.69,14.69,0,0,1,3.5-.13c1.74.33,1.86,1.2,2.8,2.47a9.22,9.22,0,0,0,3.66,2.11c1.81.6.95-.09,2.17-.16.31,0,.57-.2.91-.2,1,0,2.35,1,3.32,1.19a9.79,9.79,0,0,0,6-1,21.73,21.73,0,0,1,3.44-1.88c1.4-.45,1.33.38,3.36-.61,1.61-.79,2.64-1.67,4.64-1.65,2.45,0,4.33,1.24,6.06-1.73.33-.56.33-1.36.66-2,.84-1.57,2.23-2.19,3.77-2.93a13.89,13.89,0,0,0,2.84-1.4c2.39-2,.83-3.36-.25-5.26-.72-1.26-1.42-2.34-.84-3.85a3.92,3.92,0,0,1,2.36-2.11c1.45-.63,4.56-.57,2.92-2.9A.86.86,0,0,1,322.44,207.05Z" fill="#003a15" opacity="0.87"/><path d="M329.53,185.2a1.7,1.7,0,0,1,.34.26,1.92,1.92,0,0,1,.48,1.53c1.47.37,3.07.53,4-.87a.87.87,0,0,1,1.16-.3,10.91,10.91,0,0,0,1.45.75c1.06-2.66-.74-5.35,0-8.07.47-1.67,1.37-1.83,2.62-2.65s1.45-1.35,2.05-3.08a6,6,0,0,1,.87-2c1.39-1.83,4-2.18,6.09-2.72,3.89-1,4.81-2.52,5.92-6.37a3.94,3.94,0,0,1,2.26-2.94c4.17-2.18,10.76-1.34,15.28-1.32a32.29,32.29,0,0,0,11.16-1.77c1.78-.1,2.53-1.06,2.26-2.89.14-.72.29-1.45.43-2.17,0,0-2,1.9-1.83,1.75a14.46,14.46,0,0,1-2.84,1.95,3.54,3.54,0,0,1-3.12.44c-.95-.28-1.84-1.28-2.91-1.6a21,21,0,0,0-6.08-.59,22.89,22.89,0,0,0-5.76.94c-1.91.57-2.87,2-4.5,2.82-2.24,1.1-4.52-.1-6.91.72-1.28.45-2,1.24-3.44,1.54a19.23,19.23,0,0,1-4.08.21,69.72,69.72,0,0,1-8.18-.46c-1.82-.28-1.81-.73-2.8-2s-2-1.54-2.9-2.56c-1.08-1.24-1.23-4.37-4.22-2.13-.41.31-.75,1.29-1.1,1.74-1.27,1.63-3.11,2.47-3.4,4.74-.14,1.15.06,2.25-.12,3.43a.85.85,0,0,1-1.24.51l0,0c-1.07,1.82-2.52,2.11-4.52,1.57-.09,1.55-.16,3.42-1.26,4.39-.74.65-2.33.91-3.2,1.23-2.5.92-5.33.75-7.77,1.71-2,.78-1.8,3.05-3.64,3.5-1,.24-1.47-.5-2.34-.65-1.67-.29.37,1.15,1.37,1.53a6.27,6.27,0,0,0,1.38.14c.53,0,1,.42,1.54.46,3.19.21,1.36-.73,3.23-1.48a5.64,5.64,0,0,1,1.85-.59c2.78-.16,4.4,2.92,6.4,4.37.77.56,2,2,2.81,2.45.15.27.31.54.47.8,1.42-.44,2.09-1.27,2-2.5a11.07,11.07,0,0,0,.12-2.51.86.86,0,0,1,1.07-.81c1.05.43,2.11,1.4,3.12,1.74,1.59.52,3.42-.1,5,.23a4,4,0,0,1,3.07,2.35C332.15,182,331.06,183.78,329.53,185.2Z" fill="#003a15" opacity="0.87"/><path d="M396.81,142.93a9.92,9.92,0,0,1-2,2.48c-2.07,1.94-.8-3.93-3.05,3.84-.21.72.05,1.73-.17,2.51-.41,1.4-2.9,3.69-1.56,5.11a.87.87,0,0,1,.1,1.06c2-.14,3.87-1.13,5.8-1.45.93-5.79,2.87-11.2,4-16.82C398.32,140.22,397.76,141.34,396.81,142.93Z" fill="#003a15" opacity="0.87"/><path d="M385.84,178.55c-2.51.76-4.47.29-6.9-.58-1.44-.52-4.66-2.13-6.08-1.16s-.57,1.46-1.29,2.58c-.86,1.32-1.38,1.17-2.58,2-.5.14-1,.3-1.49.47.13,1.31.64,1.67,1.52,1.1.87,0,2.49-1.25,3.32-1.66a5.28,5.28,0,0,1,3.55-.68c3.37.2,7.26.42,10.61-.44,1.9-.49,3.59-2,5.64-1.6s4.58,3.21,7,4c.37-1.65-.51-3.06-2.77-5.46a4.65,4.65,0,0,1-.85-1.4c-1.92-4.38-3.68-5.45-7.38-4.22-1.74,1.59-3.2,3.46-1.83,5.86A.85.85,0,0,1,385.84,178.55Z" fill="#003a15" opacity="0.87"/><path d="M244.25,155.24a.76.76,0,0,1-.78,1c-.65,0-2.26-.46-2.82-.14-1.51.84.17,1.16.57,1.41.79.48,1.42.41,1.87,1.39s0,1.32-.07,2.11c0,.49-.6.61-.34,1.18a6.57,6.57,0,0,0,3.64.81,3.42,3.42,0,0,0,1.31-3.93.86.86,0,0,1,.59-1c2.09-.37,5.53,1.66,6.72-.23-1.84-.23-3.66,0-5.5-.31S246.06,156,244.25,155.24Z" fill="#003a15" opacity="0.87"/><path d="M268,153.65a.87.87,0,0,1-.43,0c-.38-.07-5.07-.66-4,.58.31.35,2.07.26,2.58.33,2.54.38,5.52,2.53,7.73-.21a.84.84,0,0,1,1.19,0c1,1.17,3.27,4.3,5,4.38.13,0,.16,0,.17,0s0-.06.31-.19a2.73,2.73,0,0,0,1.19-2.43l-1.35-.56C276.55,152.31,272.14,154.57,268,153.65Z" fill="#003a15" opacity="0.87"/><path d="M293.18,157.22a13.27,13.27,0,0,0,1.66-2.46c.51-.74,1.71-1.25,1.79-2.23a4.4,4.4,0,0,0-1.41-3c-1.85-.18-2.64,1.37-3.32,5.08a2.1,2.1,0,0,1-1,1.49,2.05,2.05,0,0,1-1.2-.2v1.16a.78.78,0,0,1,0,.22C290.82,157.75,292.12,158.18,293.18,157.22Z" fill="#003a15" opacity="0.87"/><path d="M264.54,109.67c-.09.61,0,1.33-.08,2l-.64-.71c-.1.12-.21.25-.34.38-.75.76-1.21.44-1.88,1.49-1,1.5-.07.74-.43,2a5.05,5.05,0,0,1-1.72,2.68c2.48-1.06,5.1-2.15,6.78-.46,1,1,.42,1.33.42,2.46,0,2.32,1.19,2.85,1.87,4.87a5.36,5.36,0,0,1-.64,4.49c-.95,1.21-2.24.56-3.16,1.29-.76.61-.25,2.24-.82,3.08a4.33,4.33,0,0,1-2.14,1.37c1.36,1.08,3,2.28,4.44,2.46,4.75.55,3.08-3,3.85-5.12a3.61,3.61,0,0,1,1.21-1.78c.23-.2,1-.19,1.11-.38.49-.69.39-2.1.48-2.89.06-.49.5-1,1.07-.81a6,6,0,0,1,3.7,3.67A34.94,34.94,0,0,1,278.7,133a6.91,6.91,0,0,0,.78,2.11c1,1.15.47.73,1.65,0,1.74-1.12,2.27-1.94,4.42-2.29,4.21-.69,5.29-3.59,8-6.3.9-.9,2.4-1.61,3.05-2.7.36-.6,1.2-3.15,1-3.77-.68-2.4-3.91-2.44-5.76-1.33S290,121,289.68,123c-.29,1.57-.87,2.88-2.55,3.43-.45.15-1,0-1.4.16l-1-.17-1.86,1.66a4,4,0,0,0-.46.92.86.86,0,0,1-1.46,0,10.41,10.41,0,0,1-1.05-2.72,7.51,7.51,0,0,0-3-3.76c-.46-.23-1.28-.21-1.8-.41-.73-.27-2.48-1-2.49-2s.68-1.17,1.45-1.42a7.11,7.11,0,0,1,2.68,0c.88.11,2.48.94,1.84-.2-1.49-2.65-7.1.09-9.24-2.5-1.49-1.81-.88-4.23.56-5.84l-1.27,0a.85.85,0,0,1-.73-1.26c.77-1.23,1.48-2.18,3-2.42a5.56,5.56,0,0,1,1.95.19l1.78.53a4,4,0,0,0,1.49-1.44c-2.54-.39-5.19-.48-7.77-.68-1-.08-2.39,2.1-3.4,3.6C264.82,109,264.68,109.33,264.54,109.67Z" fill="#003a15" opacity="0.87"/><path d="M295.31,110.33c.56,2.2,1.21-.27,1.45-1.18a26.86,26.86,0,0,0,.68-4.28c.3-3.39-.18-6-3.69-7.29-2.51-1-5.94-2.94-8.6-2.4,1,.55,2,1.09,2.91,1.67.64.38,1.25.81,1.85,1.25a.9.9,0,0,1,.24,0c4.94.47,4.11,3.91,2.32,7.18a5.57,5.57,0,0,1,2.62,1.84C295.76,108.25,295,109.23,295.31,110.33Z" fill="#003a15" opacity="0.87"/><path d="M285.4,87.2c2.16,1.07,4.77-.07,7,1.39l.06,0-.06,0c.15.14,1.75,1.31,1.48,1.27.79.11,2.14-1.44,2.76-1.82a4.63,4.63,0,0,1,2.77-1c1.12,0,1.68.67,2.64,1,2.06.83,3.33.27,5.06-1a.84.84,0,0,1,1.15.3c.22.44.43,1.78.64,2.07-.24,1.34.48,1.57,2.14.7a9.22,9.22,0,0,0,.65-1.09A10.39,10.39,0,0,0,313.41,82c-.26-1.58-1.18-2.8-.13-4.31.5-.73,3-1.48,3.17-2.46a.73.73,0,0,1-.55-.77c0-.15,0-.3,0-.45a.69.69,0,0,1,0-.25c0-1.78-.13-3.38-2.47-4.23a.85.85,0,0,1-.2-1.54,5.79,5.79,0,0,1,3.18-1c.66,0,1.38.23,2,.15,2-.21,5-2.55,3.06-4.4-1.34-1.29-3.5-1.42-4.81-2.84-1.79-1.95-1.57-6.45-5.1-4,0,0-.77,1.14-.86,1.26-.73,1-2.19,1-2,2.73a.85.85,0,0,1-.62.81,13.19,13.19,0,0,0-2.94.65C301.93,63,304.05,63,303,64.53a8.66,8.66,0,0,1-2.18,2.26c-.28.21-2.12,1.27-2.17,1.58s.19.06.79.28a10.66,10.66,0,0,0,2.77.08c2.19.07,5.64.27,5.74,2.75,4.81.29,1.07,5.67-.05,8.17-1.41,3.14-4.68,3.81-7.79,3.1-1.87.7-4.11,1.35-5.2.61C292.82,82,291,80.28,289,80.07a17.07,17.07,0,0,0-2.43,2.53C285.42,83.94,282.79,85.91,285.4,87.2Z" fill="#003a15" opacity="0.87"/><path d="M360.66,93.62c-1.78,1.79-4.16,2.2-7,2.4-3.74.26-4.95,4-9,4-1,0-6.77-.39-3.88,1.67,1,.72,4,.18,5.2.13a29.16,29.16,0,0,1,4.28-.13c1.59.17,3.22,1.35,4.81,1.92a31.85,31.85,0,0,0,3.76-4.21A7.79,7.79,0,0,0,360.66,93.62Z" fill="#003a15" opacity="0.87"/><path d="M331,107.08c2.28-.93,3.39-4.49.12-4.64a.85.85,0,0,1-.84-.84L328.84,100a.69.69,0,0,1-.94-.08h-2.35a.8.8,0,0,1-.51-.18c-1.19.7-.72,2.25-1.51,3.89a7,7,0,0,1-2.34,2.42c-1.09.88-2.18,1.32-2.95,2.64-.43.72-.59,1.74-1.06,2.47a5,5,0,0,1-2.79,2.27,13,13,0,0,1-4.27.48c-1.15,0-2.68-.23-3.11,1.4-.07.26.59,1.68.63,2.14.34,3.8-2.82,6.46-5,9.23a12.71,12.71,0,0,1,2.39.2c.69.16,1.3.69,1.92.85,5.47,1.4,4.53-2,3.75-5.09-.66-2.57-1.41-5.24,1.15-6.92,2-1.34,4.18-1.55,6.06-3.35a10,10,0,0,1,2.9-2.11c2.27-1,4.93-1.23,7.29-2.09C329,107.85,330,107.47,331,107.08Z" fill="#003a15" opacity="0.87"/><path d="M325.93,86.37a.75.75,0,0,1-.31-.06.72.72,0,0,1-.27.06h-.27a19.11,19.11,0,0,1-2.22,2.11c-.51.47-1.38,1.1-1.61,1.78s.52,1,1.19,1.18c1.69.42,3.27-1.09,4.09-2.41C327.22,87.9,327.79,86.29,325.93,86.37Z" fill="#003a15" opacity="0.87"/><path d="M341.92,129.89c2.05.49,3.88,5.29,5.07,1,.68-2.43-.71-5.53-.86-8A.86.86,0,0,1,347,122a15.89,15.89,0,0,1,4.9,1.31c2.08.86,3.33,1.65,5.74,1.08.87-.21,1.59-.85,2.53-.83,1.1,0,1.59.74,2.68.64,1.37-.12,2.24-1.39,3.67-1.43,2.91-.1,1.58,3,2.53,3.23.63.16,1.19-1.27,1.3-1.8.55-2.64-1.35-2.14-4-2.82-1.86-.48-5.9-1.67-6.89.73a.87.87,0,0,1-1,.59c-1.92-.71-3.43-2.15-5.29-2.85-1.18-.45-5.15-.32-6.78,0-2,.45-1.7-.68-3.28,2.53-.23.47-.11,1-.43,1.46a3.11,3.11,0,0,1-2.61,1.6c-.92.08-1.64-.5-2.49-.59-2-.2-3.41.42-5.23,1a5.94,5.94,0,0,1-3.75,0c-2.85-1-3.49-4.07-5.55-5.74a.67.67,0,0,1-.12,1c-2.41,2-2.12,3-1.59,5.85.06.32.42.64.5,1,.33,1.65-1.09,2.45-2,3.53a11,11,0,0,0,1.9,0,.84.84,0,0,1,.81,1.06c-.45,1.36-1.08,2.62-1.6,3.95,2.1.46,4.24.66,6.37,1a.8.8,0,0,1,.59.59c.14.73.26,1.44.41,2.15.8-2.23,1.24-5.3,3.42-5.72,1.17-.22,2.61.84,3.41,1.47s3,2.73,3.54.67c.13-.51-.66-1.64-.72-2.24C337.71,132.1,339.28,129.26,341.92,129.89Z" fill="#003a15" opacity="0.87"/><path d="M360.75,194.08a.82.82,0,0,1-.68-1.28c-1.44-.23-3.09-.4-4.34.37-.51.32-1.58,1.39-1.29,2.08.18.43,1.24.48,1.62.53a9,9,0,0,0,3.62-.23,2.9,2.9,0,0,0,1.22-.86c.12-.13.5-.49.47-.69C361.4,194.23,361,194.07,360.75,194.08Z" fill="#003a15" opacity="0.87"/><path d="M353,237.13c.69-2.11,1.35-5.17,2.81-6.92,2.22-2.65,4.86-1.24,5.65,1.64.83,3.05-.62,8.06,4.34,7.51a28.2,28.2,0,0,1,4.12-.59,4.46,4.46,0,0,0,2.8-.37c1.7-.8,2.86-2.6,4.53-3.5,1.16-.62,2.13-.44,3.27-.86a5.5,5.5,0,0,0,3.1-3.26c.12-.37-.27-.89-.12-1.3.3-.78,1.56-2.82,1-3.5a.86.86,0,0,1,.6-1.44c2.72-.29,7.33,1.74,7.4-2.67,0-1.34-1.26-2.72-.33-4.08.77-1.13,3.08-1.93,4.06-2.78,1.43-1.25,2.81-2.49,4.27-3.68-.91-.48-1.81-.92-2.09-2-.57-2.26,2.18-4.5,1.94-6.84-.15-1.42-.77-2.42-2.62-1.74-1.6.58-1,1.38-1.91,1.77-.27.13-.35.41-.7.45s-.72-.22-1.17-.24c-1,0-2.16-1.24-3.29-.45-.16.11-.12.78-.24.94a11.73,11.73,0,0,1-2.24,2.71c-2,1.59-2,1.44-2.53,3.42a5.74,5.74,0,0,1-.77,1.92c-1,1.4-2.46,1.77-3.91,2.41s-1.66-.69-2.27,2.09a10,10,0,0,0,.06,2.5c.13,2.88.13,3.74-2.41,4.55a8.9,8.9,0,0,1-3.81.77c-2.49-.21-2.84-.86-5.9.66-.5.24-.84.71-1.38.92-2.46,1-11.51-4-9.07-6.77.65-.73,1.87-.56,2.72-.51,2.4.15,3.75,1,6-.68s3.49-4.1,5.47-5.86c.58-.52,1.22-1,1.78-1.5.88-.83,3.32-3.33,1.86-4.71a.73.73,0,0,1-.18-.9,13.13,13.13,0,0,0-1.21-.7c-2.11-1.08-3.71-.45-5.68.74-1.2.74-1.63,1.58-3.23,1.79-1.77.22-3.3-.67-5-1.08-2.38-.58-3.22-.05-5.12.61-3.12,1.09-6.4-.45-9.34.83-2.32,1-8.93,2.51-6.46,5.92a.85.85,0,0,1-.3,1.15l-.89.71c1.83,1.08,4.46,2.64,2.12,4.52-1.21,1-3.25.6-4.64.52a15.75,15.75,0,0,0-2.9-.18c-.91.12-5.79,3.24-3.45,4.84A.85.85,0,0,1,328,225c.2,1.31.59,1.52,1.15.63.36-.4.7-.8,1-1.22a12.39,12.39,0,0,1,2.13-2.21,4.11,4.11,0,0,1,3.61-.73c2.13.65,2,2.42,4.54.5,1.23-.93,1.65-2.12,3.47-1.54,2.59.83,1.78,3.71.45,5.31a7.45,7.45,0,0,1-5.07,2.46c-.49.06-4.34-.44-4.07.58.11.42,1.52.59,1.88.67,2.77.65,13.65-1,13.23,4.11-.28,3.32-4.84,3.21-7.21,3.32s-4-.36-4.34,1.89c-.26,1.61-.15,2.5-.81,3.36,2.24.56,5-.83,6.82.92.95.92,1,2.32,1,3.72,2.1-.55,4.19-1.2,6.3-1.72C353,242.89,352.19,239.45,353,237.13Z" fill="#003a15" opacity="0.87"/><path d="M350.26,175.56c-.93-.28-2.13-1.27-3.12-.67s-.18,1.47.08,2.18.46,1.74.76,2.59c.44,1.29,1.29,1.2,2.4.59a9.47,9.47,0,0,0,4.43-5.59C353.35,175.35,352,176.11,350.26,175.56Z" fill="#003a15" opacity="0.87"/><path d="M245.76,185.66c-.69.08-.92-.58-.73-1.1a.83.83,0,0,1-.83.31c-.82-.16-2,1.47-2.82,1.86a26.85,26.85,0,0,1-3.67,1.12c-1.41.44-2.08.71-2,2.33.08,1.79,1.4,5.17,3.78,4,.84-.39,1.44-1.4,2.18-1.95a6.92,6.92,0,0,1,2.45-1c2-.61,2.57-.76,2.79-2.76C247,187.64,247.11,185.52,245.76,185.66Z" fill="#003a15" opacity="0.87"/></svg>