<svg xmlns="http://www.w3.org/2000/svg" width="600" height="400" viewBox="0 0 600 400"><title>flag-maryland</title><rect width="300" height="200"/><path d="M0,200V33.33L50,66.67V200h50V0h50V200h50V0h50V200h50V166.67L50,0V66.67L250,200Z" fill="#eaab00"/><rect x="300" width="300" height="200" fill="#fff"/><path d="M450,0H600V100H300V200H450Z" fill="#981e32"/><path d="M450,186a12.8,12.8,0,0,0,12.8-12.8v-6.4h12.4a12.8,12.8,0,1,0,0-25.6H462.8V112.8h79.6v12.4a12.8,12.8,0,1,0,25.6,0V112.8h11.2A12.8,12.8,0,0,0,592,100H450Z" fill="#981e32"/><path d="M450,186a12.8,12.8,0,0,1-12.8-12.8v-6.4H424.8a12.8,12.8,0,1,1,0-25.6h12.4V112.8H357.6v12.4a12.8,12.8,0,0,1-25.6,0V112.8H320.8A12.8,12.8,0,0,1,308,100H450Z" fill="#fff"/><path d="M450,14a12.8,12.8,0,0,1,12.8,12.8v6.4h12.4a12.8,12.8,0,1,1,0,25.6H462.8V87.2h79.6V74.8a12.8,12.8,0,1,1,25.6,0V87.2h11.2A12.8,12.8,0,0,1,592,100H450Z" fill="#fff"/><path d="M450,14a12.8,12.8,0,0,0-12.8,12.8v6.4H424.8a12.8,12.8,0,0,0,0,25.6h12.4V87.2H357.6V74.8a12.8,12.8,0,0,0-25.6,0V87.2H320.8A12.8,12.8,0,0,0,308,100H450Z" fill="#981e32"/><rect y="200" width="300" height="200" fill="#fff"/><path d="M150,200H300V300H0V400H150Z" fill="#981e32"/><path d="M150,386a12.8,12.8,0,0,0,12.8-12.8v-6.4h12.4a12.8,12.8,0,1,0,0-25.6H162.8V312.8h79.6v12.4a12.8,12.8,0,0,0,25.6,0V312.8h11.2A12.8,12.8,0,0,0,292,300H150Z" fill="#981e32"/><path d="M150,386a12.8,12.8,0,0,1-12.8-12.8v-6.4H124.8a12.8,12.8,0,1,1,0-25.6h12.4V312.8H57.6v12.4a12.8,12.8,0,1,1-25.6,0V312.8H20.8A12.8,12.8,0,0,1,8,300H150Z" fill="#fff"/><path d="M150,214a12.8,12.8,0,0,1,12.8,12.8v6.4h12.4a12.8,12.8,0,0,1,0,25.6H162.8v28.4h79.6V274.8a12.8,12.8,0,1,1,25.6,0v12.4h11.2A12.8,12.8,0,0,1,292,300H150Z" fill="#fff"/><path d="M150,214a12.8,12.8,0,0,0-12.8,12.8v6.4H124.8a12.8,12.8,0,1,0,0,25.6h12.4v28.4H57.6V274.8a12.8,12.8,0,0,0-25.6,0v12.4H20.8A12.8,12.8,0,0,0,8,300H150Z" fill="#981e32"/><rect x="300" y="200" width="300" height="200"/><path d="M300,400V233.33l50,33.34V400h50V200h50V400h50V200h50V400h50V366.67L350,200v66.67L550,400Z" fill="#eaab00"/></svg>