<svg xmlns="http://www.w3.org/2000/svg" width="300" height="300" viewBox="0 0 300 300"><title>flag-vermont-icon-motto</title><path d="M27.14,167.1c-1.47,1.37-3.56,1.7-7,1.09A62.72,62.72,0,0,0,8,167.05c-5.61.1-10.91-1.81-6.18-2.22a3.34,3.34,0,0,0,2.51-1.16c.67-.95,1-1,7.29-.7,3.62.16,7.19.43,7.92.6,1.12.27,1.33.16,1.33-.68A1.5,1.5,0,0,1,22,161.53c1.19-.39,15.78-.3,16.44.11s.41-.62-.44-1.39c-1.21-1.09-8.28-1.57-12-.81a33,33,0,0,1-12.35,0,38.24,38.24,0,0,0-6.18-.56c-1.5.05-2.55-.13-2.55-.42s.45-.51,1-.51a5.92,5.92,0,0,0,2.62-1.24c2-1.52,3.4-1.67,7.76-.83,3.76.73,6,.55,8.44-.65,1.34-.67,2.63-.75,8-.52,3.5.16,7,.43,7.74.61l1.38.33-1-1.88A18.33,18.33,0,0,0,35.73,148c-2.27-1.28,1.37-3.55,10.35-6.45,6.87-2.22,9.45-2.58,20.6-2.85a125.09,125.09,0,0,1,20,.79c5.41.58,10.37,1.25,11,1.5,1.44.54,1.54,0,.22-1.22a3.13,3.13,0,0,1-1-1.31c12.73-9.41,50.9-9.36,70.75-7.83,14.51,1.24,31,5.25,32.71,7.94.18.28-.26,1.27-1,2.19l-1.28,1.67h1.23c19.07-3.66,37.29-3.2,47.46.66,6.59,1.91,11.45,5.15,11.45,6.66a2.18,2.18,0,0,1-.9,1.5c-1.07.74-3,3.81-2.72,4.28.11.18,1.79,0,3.73-.3,5-.9,13.33-.87,15.1.05,2.16,1.13,4.6,1.3,8.29.59,4.37-.84,5.77-.69,7.76.83a6,6,0,0,0,2.63,1.24c.55,0,1,.23,1,.51s-1,.47-2.55.42a38,38,0,0,0-6.17.56,33.09,33.09,0,0,1-12.36,0c-3.72-.76-10.79-.28-12,.81-.86.77-1.2,1.86-.45,1.39s15.25-.5,16.44-.11a1.5,1.5,0,0,1,1.09,1.36c0,.84.21,1,1.33.68.73-.17,4.3-.44,7.92-.6,6.28-.28,6.62-.25,7.29.7a3.36,3.36,0,0,0,2.51,1.16c4.74.41-.56,2.32-6.18,2.22A62.79,62.79,0,0,0,278,168.19c-3.46.61-5.55.28-7-1.09-.94-.88-1.44-1-3.6-.68-1.37.19-3.92.43-5.65.54a42.3,42.3,0,0,0-5.33.69c-8.64,2-17.29,2.93-20,2.24a8.47,8.47,0,0,1-2.71-1.56c-2-1.72-2-3.85,0-5.8s3.6-5,2.9-5.7c-22.51-1.69-31.2,2.08-59.22,4.23-3-.06-5.52-1.63-5.93-3.66-.25-1.25,0-1.87,1.32-3.51a12.35,12.35,0,0,0,3-6l-5.45-.8c-18-1.52-29.45-1.86-43.59-.4-4.07.46-4.65.46-4.37,1.16,1,1.44,1.38,3.37,2.53,4.8,1,1.15,1.31,4.05.6,5-.87,1.19-3.72,1.75-8.83,1.74-4.34,0-6.21-.2-15.51-1.65-2.67-.42-5.69-.86-6.72-1-9.54-2.23-20.81-2.48-30.52-1.4-2.33.29-2.35.3-2.05,1.81a7.9,7.9,0,0,0,2,3.18,15,15,0,0,1,2.39,3c.59,1.15.56,1.52-.3,3.26s-1.13,2-4,2.47C44.07,171.4,37.77,164.85,27.14,167.1Zm226-.44c5.91-1.27,15.33-2.25,18.32-1.9,1.86.21,2.35.1,2.82-.65.32-.51.47-1,.34-1.14s-10.68-.19-15.83,0c-1.39.05-1.72-.12-1.84-1-.2-1.37,1.53-2.95,4-3.64a39.32,39.32,0,0,1,7.17-.59c2.87,0,5.21-.2,5.21-.37s-.69-.56-1.53-.85c-2.5-.87-8.75-.65-16.4.59-1.51.25-1.94.93-1.95,3.15a5.91,5.91,0,0,1-.86,3.38c-1,1.26-1.94,1.34-10.35.8a35.6,35.6,0,0,0-6.43,0c-1.67.42-1.63,2,.09,3S246.67,168.05,253.15,166.66ZM63.28,166.2c1.49-1.4,1.54-2.22.17-2.95s-5-.4-11.56.89c-2.49.49-7.13-.33-7.78-1.39-.28-1.88-1.33-3.45-1.9-5,0-.89-1.59-1.19-8.27-1.57-5.28-.3-9.18.2-9.18,1.19,0,.18,2.35.35,5.21.38a39.23,39.23,0,0,1,7.17.59c2.47.69,4.2,2.26,4,3.64-.12.86-.45,1-1.84,1-5.15-.2-15.64-.21-15.83,0s0,.63.34,1.14c.47.75,1,.86,2.82.65,2.52-.29,12.67.62,16.12,1.45a56.19,56.19,0,0,0,14.11,1.25c4.71-.11,5.33-.23,6.42-1.26Zm-39,.08a5,5,0,0,1-1.37-.75A4.59,4.59,0,0,0,20.7,165c-.83,0-4.29-.22-7.69-.44-9.29-.59-7.7.39,2.42,1.5,7.61.84,11,.94,8.82.27Zm267-1.7c0-.29-2.25-.32-6.18-.07-3.4.22-6.88.42-7.73.44a3.86,3.86,0,0,0-2.16.65,2.14,2.14,0,0,1-1.26.6c-.36,0-.55.16-.43.36C273.84,167.09,291.27,165.15,291.27,164.58ZM251,162.22c.23-1.23-5.19-3.8-9.93-4.71-1.9-.36-2-.31-2.33.85a9.61,9.61,0,0,1-1.28,2.6l-1,1.36,2.82,0a35.05,35.05,0,0,1,5,.43c3.53.65,6.5.39,6.69-.57Zm-194.82-.68a22.74,22.74,0,0,0,5-1.11,4.47,4.47,0,0,0-.73-1.23,3.64,3.64,0,0,1-.71-1.79c0-1.34-.58-1.4-4.4-.47-4.69,1.15-8.8,3.21-8.59,4.31.16.8,2.27,1.49,3.78,1.24Zm-33.08-3.07c0-.52-.69-.72-2.66-.77a48.24,48.24,0,0,1-5.78-.61,10.17,10.17,0,0,0-3.81-.15c-.48.27,0,.49,1.42.7,1.16.17,3.42.62,5,1C20.79,159.51,23.06,159.44,23.06,158.47Zm162.33.23c2.93-.37,7.36-1,9.84-1.42a284.58,284.58,0,0,1,33-2.68,52.43,52.43,0,0,1,21,4c2.28,1,2.15,1,2.54-.56a24.39,24.39,0,0,1,3.78-7.28c1.24-1.33,1-1.7-3-3.84a45.38,45.38,0,0,0-17.06-5c-6.85-.74-18.3-.62-23.64.24-2.53.4-6.74,1-9.34,1.4a21.58,21.58,0,0,0-5.42,1.23,17.13,17.13,0,0,0-2,4.28,21.83,21.83,0,0,1-2,4.44c-.49.54-2.53.76-8.79,1-6.67.21-8.37.41-9.45,1.12-1.83,1.2-1.6,2.31.64,3.2,1.63.65,3.64.61,9.92-.17Zm97.59-.54a17.71,17.71,0,0,1,3.69-.7c1.11,0,1.27-.12.69-.46s-1.95-.24-3.88.09a47.81,47.81,0,0,1-5.64.61c-2.72.08-3.34.35-2.79,1.24.41.67,4.48.27,7.93-.78Zm-201-4.58c9.6.73,10.14.79,13.72,1.43,10.24,1.81,16.18,2.55,20.44,2.55,5.67,0,7.69-.47,7.9-1.86.37-2.51-3.86-3.31-10.56-2a24.76,24.76,0,0,1-6,.66c-1.43-.36-3.16-2.1-3.16-3.18,0-.93-3.12-7.54-3.73-7.92a95.62,95.62,0,0,0-11.53-2l-6.79-.73a128,128,0,0,0-21.42,0c-7.82.65-18.54,3.66-21.68,6.08-.92.72-.91.77.57,2.06s4.57,6.61,5.16,9l.33,1.35,1.24-1a18.42,18.42,0,0,1,3.88-2c10.26-3,21.92-3.17,31.68-2.47Zm102.73-.7c4.9.25,6.23.17,7-.4s.85-.75-1-1.66S178,148,177.46,148.53a8.77,8.77,0,0,0-.81,1.81c-.32.86-.73,1.93-.93,2.39-.31.73-.17.77,1.27.34A33.8,33.8,0,0,1,184.67,152.88Zm-71.23-1a32.65,32.65,0,0,1,5.45-.71c2.45,0,2.58-.18,1.8-2.23-.46-1.21-.65-1.28-2.54-1a35,35,0,0,0-9.39,3.08C106.19,152.71,108.11,153.07,113.44,151.9Zm-1.57-4c13.59-4,31.16-4.76,58.41-2.52,7.34.61,19.53,2.82,21.75,3.95.67.34,1.15-.27,2.81-3.58a44.71,44.71,0,0,1,2.62-4.73c1.46-1.71,1.36-1.95-1.4-3.21-4.57-2.09-16.61-4.65-24.72-5.25-31.33-2.31-59.92-.09-69.43,5.39l-2.08,1.19,1.11,1.32a42.51,42.51,0,0,1,3.29,5.71l2.18,4.39,1.1-.85A18,18,0,0,1,111.87,147.88Z"/><path d="M188.82,156.39c-1.16-.09-1.24-.19-.73-.87.24-.31.69-.45,1.51-.45,1.28,0,1.38.13.73.89-.34.39-.69.49-1.51.43ZM48.7,154.85c-.21-.4-.65-1.45-1-2.33s-1.07-2.61-1.63-3.82c-.95-2-1-2.23-.57-2.46A44.51,44.51,0,0,1,51,144.51a4.89,4.89,0,0,1,.64,1.42,5.59,5.59,0,0,1-1.9.93c-1.7.62-1.89.75-1.74,1.23.28,1,.54,1,1.9.45a7.52,7.52,0,0,1,1.35-.48,9.41,9.41,0,0,1,.64,1.7c0,.12-.51.42-1.14.66a4.75,4.75,0,0,0-1.26.62,7.09,7.09,0,0,0,.75,2.09l.86,1.91-.78.27C49.18,155.69,49.12,155.67,48.7,154.85Zm145.36.07a1.34,1.34,0,0,1,.36-.95,11.09,11.09,0,0,0,1.15-2.81l.77-2.53-.14,3.27c-.07,1.8-.16,3.29-.19,3.32a9.91,9.91,0,0,1-1,.21C194.1,155.59,194.06,155.57,194.06,154.92Zm3.32-2.31c.4-1.49,1-3.65,1.26-4.8l.53-2.08h1.07c1,0,1.08.06,1.08.6a10.41,10.41,0,0,0,1.08,3.27c.1.11.5-.74.91-1.9l.72-2.1,1.08-.08c.59,0,1.07,0,1.07.09s-.62,1.94-1.39,4.11a37.34,37.34,0,0,0-1.39,4.52c0,.47-.14.58-.72.58s-.77-.13-1.55-2.31c-.91-2.55-1-2.54-1.62.17a15.59,15.59,0,0,1-.6,2,2.51,2.51,0,0,1-1.22.43l-1.05.16Zm7,1.72c0-.17.65-2.35,1.44-4.84l1.44-4.52h2.31c2.52,0,3,.26,3.64,1.85,1,2.64-1.23,6.44-4.23,7.22-1.71.45-4.6.63-4.6.29Zm5-2.69a3.64,3.64,0,0,0,1.87-4c-.22-.6-.36-.66-1.32-.59s-1.08.08-1.63,1.63a21.59,21.59,0,0,0-.72,2.47c-.16.82-.12.9.39.9a4.31,4.31,0,0,0,1.41-.4Zm28.58,1.6c-.38-.28-.3-.59.84-3.33.69-1.66,1.25-3.1,1.25-3.2s-.34-.26-.75-.35c-.95-.21-1-.31-.71-1.35.19-.71.32-.83.78-.72.3.08,1.69.38,3.08.68s2.56.58,2.61.63a2.5,2.5,0,0,1-.2,1c-.29.88-.3.89-1.49.75l-1.19-.14-1.34,3.18c-1.14,2.73-1.42,3.19-1.9,3.19a1.84,1.84,0,0,1-1-.32ZM54.25,149.05a32.07,32.07,0,0,1-1.35-4.76c.1-.51,2.56-1.35,4.12-1.41a3.79,3.79,0,0,1,3.23,1.57c.47.79.59,2.67.18,2.92s-.23,1,1.15,2.74L63,151.92l-.71.16c-1.4.31-1.58.22-2.87-1.41s-1.29-1.62-2-1.36c-.42.15-.71.4-.65.55a12.52,12.52,0,0,1,.86,3.09,3.29,3.29,0,0,1-1,.27l-.89.14ZM57.59,147c1.15-.52,1.33-1,.65-1.66-.32-.32-.71-.39-1.53-.3a3.87,3.87,0,0,0-1.26.28c-.25.25.43,2.18.76,2.17a5.91,5.91,0,0,0,1.38-.49ZM100,153.07a17.28,17.28,0,0,1-.31-2.92,24.22,24.22,0,0,0-.22-2.65,12.16,12.16,0,0,0-1,.93l-.93.93-.88-.93a5.67,5.67,0,0,0-1-.93,11.81,11.81,0,0,0,0,2.59l.09,2.58-1,0a3.72,3.72,0,0,1-1-.13c0-.05-.16-2.23-.25-4.83L93.25,143h.62c.45,0,1,.43,1.95,1.52A7.55,7.55,0,0,0,97.37,146,8.23,8.23,0,0,0,99,144.72a6.69,6.69,0,0,1,1.72-1.27c.43,0,.83,2.84.91,6.57l.07,3.16-.8.08C100.5,153.3,100.06,153.22,100,153.07Zm118-.2a3,3,0,0,1-1.91-2.13c-.23-.84-.14-1.32.7-3.81l.95-2.84,1.08-.08c.59,0,1.07,0,1.07.07s-.4,1.31-.89,2.73c-1.09,3.11-1.08,3.81,0,3.92.72.07.9-.06,1.67-1.2a20.39,20.39,0,0,0,1.71-3.55l.84-2.26,1.1-.16a3.83,3.83,0,0,1,1.18-.07c.19.24-2.42,6.29-3.17,7.35-1.2,1.7-2.77,2.42-4.38,2ZM87.4,152.15a4.45,4.45,0,0,1-1.33-1.62c-.55-1.08-.63-1.58-.63-3.72,0-3.66.92-5.07,3.12-4.75,2.46.36,3.34,1.69,3.57,5.38.13,2.09.09,2.46-.39,3.31A3.14,3.14,0,0,1,87.4,152.15ZM89.76,150c.47-.48.52-.77.44-2.8s-.16-2.33-.64-2.72a1.2,1.2,0,0,0-2,.33,12.33,12.33,0,0,0,.11,4.38c.26.69.89,1.34,1.3,1.34a1.92,1.92,0,0,0,.74-.53Zm134.9,0c.57-1.43,1.35-3.45,1.73-4.49l.7-1.9,1.14-.07c1.05-.07,1.13,0,1.13.53a11.89,11.89,0,0,0,1.06,3.53c.1.11.53-.69,1-1.77.78-2,.78-2,1.7-1.94a3,3,0,0,1,1,.16,45.66,45.66,0,0,1-2.55,6.7,8.94,8.94,0,0,0-.62,1.6c0,.14-.31.23-.68.18-.72-.08-.8-.25-1.74-3.58-.23-.81-.51-1.38-.63-1.26a21,21,0,0,0-1.09,2.49l-.87,2.27-1.15.08-1.14.08Zm8.35,2.37c-.26-.17,0-1.08,1.22-4.11.85-2.14,1.63-4,1.73-4.09a2,2,0,0,1,1.11,0l.92.2-1.6,4c-1.52,3.85-1.63,4.05-2.33,4.11a2.08,2.08,0,0,1-1.05-.15Zm-168.72-1c-.1-.26-.77-2.41-1.47-4.77l-1.28-4.29.72-.16c.4-.09,1.68-.24,2.84-.34l2.12-.18.26,1a2.32,2.32,0,0,1,.13,1.08,7.75,7.75,0,0,1-1.77.24c-2,.12-2.09.63-.18.75,1.2.07,1.29.12,1.44.85.23,1.19.22,1.22-.86,1.22s-1.13,0-.73,1.66l.29,1.12h1.61c1.51,0,1.64,0,1.87.65a1.48,1.48,0,0,1,.13.85,6.68,6.68,0,0,1-2,.35,19,19,0,0,0-2.41.31C64.63,151.8,64.43,151.72,64.29,151.38Zm15.28,0c-1.69-.12-1.47.35-2.21-4.75-.28-1.94-.57-3.79-.64-4.1-.13-.56-.08-.57,2-.57,2.72,0,3.61.39,4.66,2a7.77,7.77,0,0,1,1,5.39C83.85,151.15,82.78,151.59,79.57,151.36Zm2.68-2.49a5.65,5.65,0,0,0,0-2.61,2.93,2.93,0,0,0-2.34-2.3c-.89,0-.9,0-.53,2.16.14.83.32,1.87.39,2.32.13.78.19.82,1.23.82.77,0,1.15-.12,1.25-.39ZM71,150.64a4.26,4.26,0,0,1-.24-1.19,15.27,15.27,0,0,0-.47-2.32c-.26-1-.61-2.41-.78-3.17s-.37-1.59-.43-1.83c-.11-.4.12-.44,2.54-.44h2.67v2H73.06c-1,0-1.26.09-1.26.38s.29.38,1.11.38H74l.09,1c.1,1,.08,1-.68,1a2.08,2.08,0,0,0-.93.14,3.13,3.13,0,0,0,.16,1.32l.3,1.19,1.76.12,1.75.13.08,1,.08.95H74c-2.63,0-2.67,0-2.92-.65ZM110.87,142c-3.1-3.86-3.12-3.91-1.56-4.18.71-.13.89,0,2.87,2.5a25.92,25.92,0,0,0,2.19,2.55,23.29,23.29,0,0,0,.48-2.47c.22-1.32.46-2.76.53-3.21.12-.7.28-.85,1.16-1.09a3.92,3.92,0,0,1,1.1-.2c0,.05-.28,2.21-.71,4.8-.69,4.2-.84,4.74-1.3,4.86-1.51.41-1.67.29-4.76-3.56Zm69.83,3.23c-.3-.19-.29-.64.08-3,.25-1.51.46-3,.48-3.22,0-.48-.1-.55-2.17-1-.59-.14-.69-.29-.69-1a1.66,1.66,0,0,1,.22-1,80.11,80.11,0,0,1,8.3,1.5c.64.15.77,1,.25,1.71-.28.37-.47.38-1.95.06a9.18,9.18,0,0,0-1.71-.27s-.29,1.38-.55,3a25.87,25.87,0,0,1-.64,3.2C182.12,145.53,181.18,145.55,180.7,145.25Zm-59.93-1.59a40.46,40.46,0,0,0-.58-4.63c-.44-2.78-.5-3.91-.21-3.91.11,0,1.44-.22,3-.48s2.8-.46,2.82-.44a7.71,7.71,0,0,1,.21,1l.17.92-1.62.28a19.32,19.32,0,0,1-2,.28.41.41,0,0,0-.42.41c0,.24.14.35.34.27A12.63,12.63,0,0,1,124,137c1.32-.2,1.63,0,1.64,1.17,0,.6-.12.67-1.55.94a13.55,13.55,0,0,0-1.62.36,12.56,12.56,0,0,0,.47,2.63,19.06,19.06,0,0,0,2.44-.29,14,14,0,0,1,2.55-.24c.26.16.45,1.37.23,1.51a28.79,28.79,0,0,1-2.93.5l-3.57.52C120.9,144.22,120.8,144.17,120.77,143.66Zm51.88-.65c-.4-.52-1.46-2-2.35-3.22l-1.63-2.27-.17,1.26c-.09.7-.18,1.83-.19,2.53,0,1.71-.25,2-1.38,1.79l-.9-.17.13-1.44c.43-4.72.54-6.49.42-7s-.05-.5.85-.35c.54.09,1.11.17,1.26.17a16,16,0,0,1,2.27,2.78,20.17,20.17,0,0,0,2.19,2.78c.1,0,.19-.55.19-1.23a21.88,21.88,0,0,1,.17-2.43l.16-1.19.88.14a4.35,4.35,0,0,1,1,.24c.05.06,0,2-.2,4.31L175,144h-.82c-.65,0-1-.2-1.56-1Zm-15.44.33a5.39,5.39,0,0,1-3-2.46,6.25,6.25,0,0,1-.36-2.25,4.05,4.05,0,0,1,.81-2.83,5.44,5.44,0,0,1,7.77-1.28c2,1.66,2,5.76,0,7.88-.89.95-3.66,1.45-5.26.94Zm3.52-2.42a3.46,3.46,0,0,0,.44-4.72c-.65-.69-2.58-.8-3.72-.21a3,3,0,0,0-.8,4.71,2.25,2.25,0,0,0,2,.73A3.32,3.32,0,0,0,160.73,140.92ZM130.05,140c-.09-1.63-.23-3.66-.31-4.51l-.15-1.54,3.29-.18c2.67-.14,3.43-.11,4,.2,1.61.83,1.87,2.87.59,4.48l-.8,1,.92,1.65.92,1.64h-.76a3.74,3.74,0,0,0-1.14.15c-.28.1-.6-.28-1.17-1.39l-.77-1.54h-2.52v3h-1.95Zm5.76-2.82c.52-.43.52-1.19,0-1.38a8.17,8.17,0,0,0-2.15,0l-1.74.16v.83c0,.67.11.85.57.91a6.75,6.75,0,0,0,3.32-.53Zm5.2.86v-4.67h1c.89,0,1.11.15,2.42,1.64a8.5,8.5,0,0,0,1.68,1.64,9.45,9.45,0,0,0,1.78-1.64c1.45-1.54,1.61-1.64,2.67-1.64h1.12l-.15,2.84c-.35,6.48-.36,6.51-1.11,6.5-1.31,0-1.37-.18-1.18-3.31l.18-2.87-1.69,1.64L146,139.79l-1.31-1.45a9.07,9.07,0,0,0-1.5-1.46,11.69,11.69,0,0,0-.19,2.91v2.91h-2Z"/><path d="M245.31,155c-.3-.2-.54-.47-.54-.59a14.2,14.2,0,0,1,1.14-2.09l1.13-1.86-.42-2.17a9.84,9.84,0,0,1-.29-2.3c.17-.16,1.67.45,1.89.76a5.77,5.77,0,0,1,.33,1.41,3,3,0,0,0,.36,1.29,2.74,2.74,0,0,0,1.28-.4l1.08-.52,1,.62,1,.62-2.17,1-2.53,1.2a7.32,7.32,0,0,0-1.33,1.78,5.44,5.44,0,0,1-1.23,1.61,2.07,2.07,0,0,1-.79-.38Z"/></svg>