<svg xmlns="http://www.w3.org/2000/svg" xmlns:xlink="http://www.w3.org/1999/xlink" width="600" height="400" viewBox="0 0 600 400"><defs><clipPath id="a"><rect width="262.33" height="262.33" fill="none"/></clipPath></defs><title>flag-mississippi</title><rect width="600" height="400" fill="#bf0a30"/><g clip-path="url(#a)"><polygon points="241.54 278.78 130.08 167.32 18.62 278.78 -18.62 241.54 92.84 130.08 -18.62 18.62 18.62 -18.62 130.08 92.84 241.54 -18.62 278.78 18.62 167.32 130.08 278.78 241.54 241.54 278.78" fill="#fff"/><polygon points="246.49 273.83 130.08 157.42 13.67 273.83 -13.67 246.49 102.74 130.08 -13.67 13.67 13.67 -13.67 130.08 102.74 246.49 -13.67 273.83 13.67 157.42 130.08 273.83 246.49 246.49 273.83" fill="#002868"/><polygon points="26.02 13.01 23.1 22 13.64 22 21.29 27.55 18.37 36.54 26.02 30.98 33.66 36.54 30.74 27.55 38.39 22 28.94 22 26.02 13.01" fill="#fff"/><polygon points="60.7 47.7 57.78 56.69 48.33 56.69 55.98 62.24 53.06 71.23 60.7 65.67 68.35 71.23 65.43 62.24 73.08 56.69 63.63 56.69 60.7 47.7" fill="#fff"/><polygon points="95.39 82.39 92.47 91.37 83.02 91.37 90.67 96.93 87.75 105.92 95.39 100.36 103.04 105.92 100.12 96.93 107.76 91.37 98.31 91.37 95.39 82.39" fill="#fff"/><polygon points="167.69 160.75 164.77 151.76 161.85 160.75 152.4 160.75 160.04 166.31 157.12 175.29 164.77 169.74 172.42 175.29 169.5 166.31 177.14 160.75 167.69 160.75" fill="#fff"/><polygon points="202.38 195.44 199.46 186.45 196.54 195.44 187.09 195.44 194.73 200.99 191.81 209.98 199.46 204.43 207.1 209.98 204.18 200.99 211.83 195.44 202.38 195.44" fill="#fff"/><polygon points="237.07 230.13 234.15 221.14 231.23 230.13 221.78 230.13 229.42 235.68 226.5 244.67 234.15 239.12 241.79 244.67 238.87 235.68 246.52 230.13 237.07 230.13" fill="#fff"/><polygon points="226.5 36.54 234.15 30.98 241.79 36.54 238.87 27.55 246.52 22 237.07 22 234.15 13.01 231.23 22 221.78 22 229.42 27.55 226.5 36.54" fill="#fff"/><polygon points="199.46 47.7 196.54 56.69 187.09 56.69 194.73 62.24 191.81 71.23 199.46 65.67 207.1 71.23 204.18 62.24 211.83 56.69 202.38 56.69 199.46 47.7" fill="#fff"/><polygon points="164.77 82.39 161.85 91.37 152.4 91.37 160.04 96.93 157.12 105.92 164.77 100.36 172.42 105.92 169.5 96.93 177.14 91.37 167.69 91.37 164.77 82.39" fill="#fff"/><polygon points="98.31 160.75 95.39 151.76 92.47 160.75 83.02 160.75 90.67 166.31 87.75 175.29 95.39 169.74 103.04 175.29 100.12 166.31 107.76 160.75 98.31 160.75" fill="#fff"/><polygon points="63.63 195.44 60.7 186.45 57.78 195.44 48.33 195.44 55.98 200.99 53.06 209.98 60.7 204.43 68.35 209.98 65.43 200.99 73.08 195.44 63.63 195.44" fill="#fff"/><polygon points="28.94 230.13 26.02 221.14 23.1 230.13 13.64 230.13 21.29 235.68 18.37 244.67 26.02 239.12 33.66 244.67 30.74 235.68 38.39 230.13 28.94 230.13" fill="#fff"/><polygon points="133 126.06 130.08 117.07 127.16 126.06 117.71 126.06 125.36 131.62 122.44 140.6 130.08 135.05 137.73 140.6 134.81 131.62 142.45 126.06 133 126.06" fill="#fff"/></g><path d="M260.16,0H600V266.67H0v-6.51H260.16Z" fill="#fff"/><rect x="266.67" width="333.33" height="133.33" fill="#002868"/></svg>