<svg xmlns="http://www.w3.org/2000/svg" width="300" height="300" viewBox="0 0 300 300"><title>flag-kansas-icon-boat</title><path d="M263.53,145.58C244.07,145,224,144.46,204,144.11A60.72,60.72,0,0,1,202.08,132a83.34,83.34,0,0,0-1.51-11.13l-.14-.6-.49-.38c-1.75-1.35-1.53-2.69-.91-5.35.51-2.21,1.14-5-.36-7.37-2.12-5.67-7-5.78-10.94-5.87-2.41-.06-4.68-.11-5.93-1.35l-.4-.3c-6.79-3.65-14.41-2.17-21.79-.73-1.86.36-3.74.72-5.61,1l-.46.07-.36.29a3.46,3.46,0,0,1-1.91.26c-1.29,0-3.31-.07-4.64,1.59-5.43-1.69-10.38-1.3-15.59-.9-2.51.2-5,.42-7.9.38-8.89-5.18-18.43-4.66-27.67-4.15a76.15,76.15,0,0,1-12.63,0c-4.5-.59-10.88-.67-14.66.49-6.77-1.5-13.56-.36-20.13.75-3,.5-5.88,1-8.59,1.18l-1.68.11,0,1.07-.48-.23-.21,2.48a9.1,9.1,0,0,0,1.27,6.35l.3.47.51.21c5.53,2.22,11.4.52,16.58-1l1.61-.51c3.49-1.93,6.54-.53,10.08,1.11,2.6,1.19,5.26,2.43,8.17,2.12,5.45,1.94,10.82.41,16-1.06,6.89-2,12.84-3.64,18.63,2.12l.64.4a9.58,9.58,0,0,0,4.14.34c1.39-.1,2.15-.13,2.82.43l.47.27c3.58,1.39,7.11,1.31,10.52,1.24,4.16-.09,8.13-.18,12.13,2.66,2.21,1.06,4.93.73,7.56.41,4.71-.58,6.88-.53,7.94,2.31l3.28-.16a3.66,3.66,0,0,0,.1-.56c.42.15.86.3,1.31.44a13.76,13.76,0,0,1,1.49.53l.23,2a104.58,104.58,0,0,1,.28,13.32c-.06,2.48-.11,5-.07,7.41L.51,144.71v3.44l166.19-.53-.06-1.77c-.1-2.94,0-6,0-9a116.87,116.87,0,0,0-.19-12.72l.28-.38.37-.44,0-.59c.15-3.5-3-4.5-4.9-5.1a13.12,13.12,0,0,1-1.57-.56l-.71-.16-.61-1.62-1.83,1.46c-2.62-2.1-6.39-1.64-9.36-1.28-2.14.26-4.35.53-5.39.06-4.67-3.35-9.37-3.25-14-3.15-3.13.07-6.1.13-9-.92a6.92,6.92,0,0,0-5-1,8,8,0,0,1-2.41-.06c-7.13-6.81-14.85-4.62-21.68-2.68-5,1.42-9.75,2.76-14.27,1l-.44-.17-.46.07c-2,.34-4.27-.7-6.65-1.79-3.64-1.68-8.17-3.76-12.83-1.14l-1.25.37c-4.68,1.35-9.51,2.75-13.81,1.28a4.87,4.87,0,0,1-.54-2.57,1.83,1.83,0,0,0,.37-.41l.55-.54,0-.66c2.33-.25,4.72-.65,7.23-1.07,6.39-1.07,13-2.18,19.24-.68l.5.12.49-.18c3-1.08,9.1-1.06,13.57-.48a79.06,79.06,0,0,0,13.24,0c8.86-.49,18-1,26.11,3.9l.39.24h.47c3.08,0,5.94-.17,8.68-.38,5.49-.43,10.24-.8,15.53,1.17l1.65.62.58-1.66c.26-.75.43-.85,2.12-.82a6.45,6.45,0,0,0,3.72-.72c1.8-.28,3.59-.63,5.36-1,7-1.36,13.63-2.65,19.3.29,2.22,2,5.33,2.1,8.08,2.16,4,.09,6.56.32,7.94,3.93.91,1.5.53,3.16.08,5.09-.56,2.45-1.33,5.75,1.67,8.44a84.28,84.28,0,0,1,1.31,10.11c.43,4.71.87,9.58,2.46,14.12l.4,1.13,1.2,0c20.34.35,40.87.93,60.72,1.5q16.35.47,33,.89v-3.44Q279.84,146.06,263.53,145.58Z"/><path d="M56.57,107.34c7.31-4,13.19,4,19.28,3,11.88,4.62,24.35-9.68,35.68,1.6,2.71,1,5.29-.75,7.49,1.06,7.56,2.94,15.38-1.35,22.77,4,4.62,2.22,13.71-3.44,16.37,3.66.23-.85-.34-1.86.43-2.48.31.83,1.09.52,1.37.52,2.15,1,5.6,1.11,5.47,4-.25.31-.51.85-.77.62.8,7.15,0,15.18.26,22.64H164v2.5h1.12l1,6.3-13.27,5s-5.32-4-8.31-4.34-14.95,1.32-16.63,2.33-2,2.32-3.3,1.29-9.32-1.6-11-1.29-10.3,1.65-10.3,1.65-27.6.67-32.22,2-2.32,5.06-2.32,5.06l-2.35,4.93-10,2.32-2.66,2,20,2.32,12,2.61,112.69,2.68,17,1.32,23.59-3.33-5.31-.67-9.3,1-1.34-3s1.34-4.34,3-5.63,5-6.33,7-12.31,2.32-7.31,2.32-7.31-8.62.64-11.62,2-16,1.37-17.94-.31-1-6-1-6h0a11.21,11.21,0,0,0-1.58-3.22h-.42c-2.68-7.61-1.94-16.13-3.85-24.6-4.93-3.79,1-8.83-1.83-13.48-2.94-7.87-12.31-2.47-16.47-6.6-7.87-4.24-17.06-1-26.33.46-2.07,1.65-5.6-.85-6.82,2.61-8.36-3.12-15.46-.75-24.78-.9-12.81-7.75-27.78-2.71-40-4.13-4.55-.6-11-.65-14.36.56-9.65-2.32-19.9,1.24-28.68,1.86l.08,1.55c-.26.26-.26.57-.8.31-.18,2.12-.13,3.49,1,5.29C45.26,110.9,51.3,108.84,56.57,107.34Z"/><path d="M126.51,162.48a33.9,33.9,0,0,1,10.12,9.19c6.32-2.37,14.09-.56,22.07-.85,22.12,1.06,43.86-1.08,61.83-12.11l-1.11-1.06c-5.81,1.32-13.84,7.47-19.18-.61-1.55-5.56.33-12.5-2.51-17.2l-.67-18.3c-2.45-1.27-4.83-.91-7.72,0l.18,19.13c-3.72.44-10.87,1.75-15.13,1.39-1.29-5.83,1.6-13.91-1.8-19.9a2.05,2.05,0,0,0-2.35.9l-1.86,0-1,1.11c.91,10.85-2.11,22.18,2.25,32.38-5.5,1.8-11.62,2.55-16.55,5.39-3.74-.1-6-4.05-9.73-3.9-5.84.47-12-.59-16.09,3.54l-.72.85" fill="#fff"/><path d="M195.32,117.25c.35-.94,1.12-3,0-4.71l2.29.25-.42-2.46a8.61,8.61,0,0,0-4.73-6.58l-.46-.22-.49,0c-5,.43-9.84-.84-15.72-4.12-5.81-1.65-10.24-.08-14.53,1.44-3.61,1.28-7,2.5-11.37,1.84l-3,1.87c-6-1.57-12.1-1.16-18.07-.7-1.86.14-3.72.28-5.6.36-8.81-5.22-19-4.53-28.77-3.87-6.62.44-13.44.9-19.9-.4l-.33-.07-.34,0a5.5,5.5,0,0,1-2-.21,6.43,6.43,0,0,0-3.32-.12,126.77,126.77,0,0,0-28.7,3.48l-1.35.3-.12,1.38C38.11,108,41,108.47,42,108.64l.71.13.82,1,1.12-1a7.25,7.25,0,0,1,.87.15c1,.24,3.57.82,4.91-1.42a77.49,77.49,0,0,1,14.21-2.18c5.33,3.83,11.63,3.78,17.26,3.73a55.83,55.83,0,0,1,6.16.16l.45,0,.42-.16a35.77,35.77,0,0,1,16.26-1.94c3.49,3,7.66,3.58,11.71,4.18a27.34,27.34,0,0,1,7.19,1.72l.7.31.72-.26c4.71-1.73,8.92-.13,13.38,1.55,4.72,1.79,10,3.8,15.76,1.08a9.82,9.82,0,0,0,1.18.69,3.35,3.35,0,0,1,.43.23,1.3,1.3,0,0,1-.28-1.56l3,2.29a.61.61,0,0,1,.46-.21,2.23,2.23,0,0,1,1,.22l2.55,1.36a5.32,5.32,0,0,0,2,1.22,4.73,4.73,0,0,0,4.61-.18,3.8,3.8,0,0,0,.38-.29l1.21-1,.24.15,1.63-1.86-.19-.93c-.34-1.81-.93-4.84-3.9-5.59l-1.06-.27,0-.79c2.32.67,5,.32,7.64,0,4.34-.58,7.38-.8,9.33,1.34a13.11,13.11,0,0,0,2,3.21c1.69,2.21,1.93,2.87,1.36,3.7l1,2.86a10.06,10.06,0,0,0,3,.44l.52,0a6.1,6.1,0,0,0,2.9.74l.93-3.57a9.65,9.65,0,0,0-1.26-.52A1.43,1.43,0,0,1,195.32,117.25Zm-28.74-6.73a19.23,19.23,0,0,0-2-.91c.22.07.42,0,.64.13l1.3.19Z" fill="#fff"/><path d="M231.86,155.87c-7.31,4.24-5.83,14.85-13.17,18.57-.44,2.16-.93,3.48.75,5.29-24.73.67-47.45-1.65-71.07-.26l-8.54-.75c.74-1.6-1.48-3.66-2-5l-.08-1.58c23.7-.1,47.78,3.54,70-5.78,9.06-.1,15.69-7.51,24.11-10.51" fill="#fff"/><path d="M103.27,161.42c-2.32,2-6.53,3.75-8,6.66-6.87,1.86-16.27-.41-23.44-.69-2.3-4.13,4.1-3.59,6.48-4.49,9.83.15,13.78-1.58,25-1.42" fill="#fff"/><path d="M112.82,161.09c1.45,3.12-.28,6.4-.18,9.58l-7.43-6.92a64.17,64.17,0,0,1,7.61-2.66" fill="#fff"/><path d="M124.39,164.65c-1.76,2.43-6.77,4-9.3,7.51l1.4,1.27,10.89-7.57c2.74,2,6.56,4.55,7.46,8-5.34-1.16-10.94-1.47-15.92.85,3.58,3.08,8-.62,11.69-.46a3.39,3.39,0,0,0,3.77,1.47l1-1.11a8.25,8.25,0,0,1,1.49,4.23c-11.17-.95-23.95.06-33.63-2.53-2.61.42-5.84-.28-8.5-.69.49,0,.21-.8.18-1.37,3.67-1.21,8.78.21,13.07.88a2.11,2.11,0,0,0,2,2.29c2.68,1,5.24-2.29,7.2.83.54,0,1.6.18,1.83-.62-.9-2.92-5.68-3-4-7.05a19.63,19.63,0,0,0,1-9.08c3.46-.11,5.94,1.62,8.36,3.17" fill="#fff"/><path d="M111.38,172.58c-4.13,3.07-8.88-2.87-14.41-1.32,2-2.71,4.91-4.44,6.4-6.89l8,8.21" fill="#fff"/><path d="M93.46,170.05c-.75,1.36-4.49.95-3.59,3.89,0,.5,3.69-1.21,2.45,1.45-10.32.9-17-.39-26.92-1.34,4,.33,4-6.07,8.39-3.8,2-2.22,7.18-.25,10.64-.41,3.71.16,5.34,1.11,9,.21" fill="#fff"/><path d="M187.25,115.19l.34,23.44-10.33,2c-1.29-6.35-.8-14.9-3.15-20.63.13-3.74-.54-7.23-3.82-9.47,3.15-1.17,9.83-2,14-3.52l3.85,6.69" fill="#fff"/><path d="M37.88,156.13c.8.26,1.83-.36,2.4.47-1.81,1.91-4,.64-6,2.06-6.82,2.92-12.21-6.45-18.38-.1-4.21,1.21-6.92,0-10.92-.65,5.57,0,11.77,1.66,17.19-2.48,5.6.06,10,5.14,15.75.7"/><path d="M56,164.26c-4.1,4.13-11-3.33-16.44,1.4L25,166.72c.77-1.11,2.6-1.66,4.75-1.5,8.36,3.66,14.37-6.92,21.53-.78l4.77-.18"/><path d="M261.31,158.25c9.71,3.38,18.1-7.31,27.6-2.07,5.83.57,15.52,2.64,21.17-2.66.8.24,2.12-.31,2.66.44l.51-.54c-2,2-4.2,1.45-6.5,3.67-.54,0-1.63-.44-1.83.62-.75,1.91-3.18.38-4.21,1.49-1.4-2.11-3.44.37-5.35-.9-11.12-5.94-21.14,3.49-33.48,1-3.51-1.22-5.45-3.28-8.41-4.49,2.94.15,5.39,2.16,7.84,3.43"/><path d="M313.18,167.23a1.4,1.4,0,0,0,.49-1.06c2.17,1,4,.86,7.2.75a1.69,1.69,0,0,0,.57.8l.75-.85c.26.26.8.26.57.75-5.29,1-12.57-1.34-17.27,1.16l.57.57c-2.84,2.71-7.1,2.87-10.85,2.27-1.68-2.32-4.26-1.16-6.45-1.68l-1.37-1.49c-.54.23-.46,1.05-.46,1.6-.29-.8-1.35-.49-1.89-.44l-1,1.06c-1.34-.47-.31-1,0-1.58,7.64-1.86,15.88,5,22.57-1.37,1.75-2.17,5-1.24,6.6-.49"/></svg>