<svg xmlns="http://www.w3.org/2000/svg" width="308.6" height="300" viewBox="0 0 308.6 300"><path d="M274.87 123.52s-17.56 16-34.74 18.32-44.24 10.37-44.24 10.37-.71 24.71.13 26.85 1.37 2.71 3.84 2.8a193.82 193.82 0 0048.73-4.63c27.73-6.45 54.94-23.14 54.94-23.14-6.34-2.61-21.68-4.9-31.58-7.36zm-51.42 38.16c1.88 5-27.8 9.65-27.43 17.38M30.16 123.52s17.56 16 34.74 18.32 44.24 10.37 44.24 10.37.72 24.71-.12 26.85-1.38 2.71-3.85 2.8a193.82 193.82 0 01-48.73-4.63C28.71 170.78 1.5 154.09 1.5 154.09c6.34-2.61 21.68-4.9 31.58-7.36zm51.42 38.16c-1.88 5 27.8 9.65 27.44 17.38" fill="none" stroke="#000" stroke-linecap="round" stroke-linejoin="round" stroke-width="2"/><path d="M86.42 160.64a4.68 4.68 0 00-4.84 1v-42.77s1.86-1.68 5.09-.26c11.41 5 40.81 15.06 65.85 15.06s54.44-10.09 65.84-15.06c3.24-1.42 5.09.25 5.09.25v42.82a4.66 4.66 0 00-4.84-1c-12.15 3.77-43.94 13.16-66.09 13.16s-53.94-9.39-66.1-13.15z" fill="#fff" stroke="#000" stroke-linecap="round" stroke-linejoin="round" stroke-width="2"/><path d="M193 149v-14.14l10.17-2.75 10.19-2.76V135l-6.64 1.79-6.64 1.81v5.66l5-1.35 5-1.37v5.67L205 148.6l-5.07 1.4v5.56l6.71-1.82 6.72-1.83v5.68l-10.19 2.76-10.17 2.74V149zm-19.68.63c2.41-.78 3.57-2.11 3.15-3.6s-2.59-2-6.45-1.8l-1.65.1v6.08l2.11-.28a23.94 23.94 0 002.83-.5zm-11.74 3.86v-14.17l4.61-.4c5.69-.49 7.59-.47 10.13 0 4.38.9 6.81 3.26 7.06 6.87a6.76 6.76 0 01-2.54 5.93c-2.16 1.88-5.18 3-10 3.81l-2.32.37v10.94l-3.47.35-3.47.35v-14.08zm-22.91 8.64a5.77 5.77 0 002.17-3.43c.79-3.08.58-8.27-.44-10.79s-3.14-3.29-5-2c-1.63 1.12-2.31 3.67-2.16 8.14.15 4.85 1 7.4 2.84 8.2a3 3 0 002.63-.16zm-3.45 5.79a10.55 10.55 0 01-7.53-5.67c-1.27-2.53-1.68-4.7-1.68-8.72s.43-6.28 1.65-8.71c1.86-3.66 5.79-5.52 10.86-5.07 5.45.48 8.62 3.59 9.62 9.47a36.28 36.28 0 01.08 7.82c-.7 5.54-3 9-6.8 10.36a13.2 13.2 0 01-6.2.5zM92 143.45v-14.11l3.48.85 3.47.85v11.34l4.21 1 4.2 1v-11.26l3.54.88 3.55.86v28.23l-3.55-.88-3.54-.87V150l-4.2-1-4.21-1v11.35l-3.47-.86-3.48-.92v-14.11z"/></svg>