<svg xmlns="http://www.w3.org/2000/svg" width="600" height="315.79" viewBox="0 0 600 315.79"><path d="M0 0h600v315.79H0z" fill="#bf0a30"/><path d="M0 24.29h600v24.29H0zM0 72.87h600v24.3H0zM0 121.46h600v24.29H0zM0 170h600v24.29H0zM0 218.62h600v24.3H0zM0 267.21h600v24.29H0z" fill="#fff"/><path d="M0 0h240v170H0z" fill="#002868"/><path fill="#fff" d="M39.35 24.29l-2.18 6.72h-7.06l5.71 4.15-2.18 6.71 5.71-4.15 5.71 4.15-2.18-6.71 5.71-4.15h-7.06l-2.18-6.72zM39.35 75.3l-2.18 6.72h-7.06l5.71 4.15-2.18 6.71 5.71-4.15 5.71 4.15-2.18-6.71 5.71-4.15h-7.06l-2.18-6.72zM41.53 133.03l-2.18-6.71-2.18 6.71h-7.06l5.71 4.15-2.18 6.71 5.71-4.15 5.71 4.15-2.18-6.71 5.71-4.15h-7.06zM79.68 49.8l-2.18 6.71h-7.06l5.71 4.15-2.18 6.72 5.71-4.15 5.71 4.15-2.18-6.72 5.71-4.15h-7.06l-2.18-6.71zM81.86 107.52l-2.18-6.71-2.18 6.71h-7.06l5.71 4.15-2.18 6.72 5.71-4.15 5.71 4.15-2.18-6.72 5.71-4.15h-7.06zM120 24.29l-2.18 6.72h-7.06l5.71 4.15-2.18 6.71 5.71-4.15 5.71 4.15-2.18-6.71 5.71-4.15h-7.06L120 24.29zM120 75.3l-2.18 6.72h-7.06l5.71 4.15-2.18 6.71 5.71-4.15 5.71 4.15-2.18-6.71 5.71-4.15h-7.06L120 75.3zM122.18 133.03l-2.18-6.71-2.18 6.71h-7.06l5.71 4.15-2.18 6.71 5.71-4.15 5.71 4.15-2.18-6.71 5.71-4.15h-7.06zM160.32 49.8l-2.18 6.71h-7.06l5.71 4.15-2.18 6.72 5.71-4.15 5.71 4.15-2.18-6.72 5.71-4.15h-7.06l-2.18-6.71zM162.5 107.52l-2.18-6.71-2.18 6.71h-7.06l5.71 4.15-2.18 6.72 5.71-4.15 5.71 4.15-2.18-6.72 5.71-4.15h-7.06zM197.12 35.16l-2.18 6.71 5.71-4.15 5.71 4.15-2.18-6.71 5.71-4.15h-7.06l-2.18-6.72-2.18 6.72h-7.06l5.71 4.15zM200.65 75.3l-2.18 6.72h-7.06l5.71 4.15-2.18 6.71 5.71-4.15 5.71 4.15-2.18-6.71 5.71-4.15h-7.06l-2.18-6.72zM202.83 133.03l-2.18-6.71-2.18 6.71h-7.06l5.71 4.15-2.18 6.71 5.71-4.15 5.71 4.15-2.18-6.71 5.71-4.15h-7.06z"/></svg>