<svg xmlns="http://www.w3.org/2000/svg" width="286" height="300" viewBox="0 0 286 300"><title>flag-florida-icon-saltire</title><path d="M2.31,242.7H277.16c.66,0,2.2.3,2.79,0,.95-.48.46-2.69.46-3.92V59.12c0-1.81.31-1.82-1.45-1.82H5.49c-1.14,0-2.74-.39-3.18.43s0,2.84,0,3.67V242.7Z" fill="none" stroke="#000" stroke-linecap="round" stroke-linejoin="round" stroke-width="2"/><path d="M188.5,158.63l-12.65-8.43,43.6-29,33.33-22.21,17-11.35c3.13-2.09,6.85-4,9.69-6.45.85-.75.59-.26.81-1.36.53-2.61,0-5.86,0-8.51l0-10.38c0-1,.35-2.93-.28-3.4-1-.71-5.19,0-6.35,0l-10.42-.05-10.42-.06c-1.92,0-4.34-.43-6.22,0-1.58.33-3.14,1.81-4.49,2.72l-12.67,8.44L193.42,92.53l-48.23,32.14c-.74.49-2.91,2.56-3.83,2.55-.27,0-.83-.57-1.06-.7-2.66-1.64-5.22-3.49-7.82-5.22l-30.89-20.58L39.49,59.34c-1.09-.73-2.22-1.78-3.48-2-1.88-.39-4.3,0-6.21,0l-10.71.06L8.5,57.46c-1.09,0-5-.63-5.9,0-.63.47-.28,2.44-.27,3.4l0,10.65,0,4.8c0,1-.31,2.65,0,3.65.26.81,0,.34.53,1,1.58,1.82,4.79,3.19,6.79,4.52L39.49,105.3,103,147.62l3.88,2.58-47.4,31.58-56,37.32c-2,1.31-1.16,3.16-1.16,5.55v14.92c0,.48-.31,2.49,0,2.88s2.09.17,2.72.17l8.84,0,19.88.05c2,0,2.91.22,4.51-.85l7.78-5.18,30.19-20.11,61.4-40.91c.74-.49,2.81-2.47,3.73-2.45s3.2,2.14,4,2.67l8.41,5.6,17.46,11.64,63.12,42.05,9.8,6.53c1.8,1.2,2.62,1,4.92,1l20.24-.05,8.46,0c.82,0,2.22.26,2.57-.29s0-2.22,0-2.76V224.19c0-2.73.69-3.86-1.44-5.28l-23.35-15.56-63.16-42.09Z" fill="none" stroke="#000" stroke-linecap="round" stroke-linejoin="round" stroke-width="2"/></svg>