<svg version="1.1" id="Layer_1" xmlns="http://www.w3.org/2000/svg" x="0" y="0" viewBox="0 0 600 400" xml:space="preserve"><style>.st1{fill-rule:evenodd;clip-rule:evenodd;fill:#a00}</style><path d="M125 366.6h600v400H125v-400z" fill-rule="evenodd" clip-rule="evenodd" fill="#fff" transform="translate(-125 -366.648)"/><path class="st1" d="M262.7 511.4L219 479.9 175.7 512l16.5-51.3-43.9-31.3 53.9-.2 16.2-51.4 16.9 51.2 53.9-.5-43.5 31.9 17 51z" transform="translate(-125 -366.648)"/><path d="M403 484.5c-3.2-.7-1.8-3.2 2-3.7 4.1-.5 4.8-3 4.1-15.9-.3-5.5-.1-10.2.5-10.6 1.3-.8-2.2-7.8-4.9-10-5.9-4.7-11.4-6.5-18.9-6.2-4.2.2-8.2-.1-8.9-.5s-1.5-.3-1.7.3c-.4 1.1-11.6-1.2-14.4-2.9-1.3-.8 3.2-10.4 5-10.4.6 0 1.1-.8 1.1-1.8s.5-1.8 1-1.8c1.4 0 18-16.1 18.3-17.6.1-.7.9-1.2 1.7-1.2s2.2-.8 3-1.8c1.3-1.6 1.5-1.6 2.2.2.5 1.3 2.2 2 4.6 2 2.1 0 6.9.6 10.6 1.2 3.7.7 7.2.8 7.9.3 1.5-1.1 2.1-1.2 15.2-2 18.2-1.1 30.2-1 31.8.4.9.7 6.3 1.6 11.9 2 9.1.6 22.6 1.9 26.1 2.5 5.1.8 14.2 5.5 18.3 9.4 2.7 2.6 5.5 4.7 6.3 4.7 2.6 0 3.9 4 1.8 5.6-1.1.8-2 3.1-2.1 5.2-.1 2.1-.5 4.1-.9 4.5-.4.4-.3 2 .3 3.4.6 1.5.5 3.6-.1 4.7-.7 1.3-.7 2.1 0 2.1.6 0 1.2 2.3 1.3 5.2-.7 21.6-.5 1.8 1.9 17.5 2 13.1-4 13.4-9.7 14.9-7.5 1.9-9.1 1.7-9.1-1.1 0-1.3.8-2.4 1.8-2.4 4.1 0 5.7-12.5 2.3-17.7-2.8-4.3-4.6-3-4.3 3.2.5 9.3.3 10.6-2 14.7-2 3.7-2.8 4.1-8.5 4.4-6.2.4-8.6-1.4-4.2-3.1 1.2-.4 2.4-1.3 2.8-1.8 1.5-2.2 1-10.6-.7-13.9-1-1.9-1.8-4.2-1.8-5 0-.9-.5-1.3-1.2-.9-.6.4-1.5-.7-2-2.4-.8-3-1-3.1-8.8-2.5-4.8.3-8.6.1-9.6-.7-1.2-1-1.6-.8-1.6.7 0 1.6-.5 1.8-2.2.8-1.5-.8-2.7-.8-3.5.1-.9.9-2.4.7-5-.7-2.2-1.1-3.8-1.4-3.8-.7 0 1.5-9.7.3-11.5-1.4-.6-.6-2.6-1.1-4.4-1.1-2.8 0-3.2.4-2.6 3.2.4 2.1.2 2.9-.7 2.4-1.3-.8-1.4 1.2-.2 3.5 1.1 2.1.4 10.8-1.1 13.6-.8 1.5-1.5 3.5-1.5 4.5 0 2.1-4.5 5.6-7.3 5.6-4.1 0-5-1.8-3.1-5.7 1.8-3.7 1.4-15-.6-15-1.2 0-4.9 9.8-4.9 13 0 1.4-.8 3.3-1.9 4.1-1.9 1.7-10.6 3.3-14.1 2.6z" fill="#d45500" transform="translate(-125 -366.648)"/><path class="st1" d="M125 711.4h600v55.3H125v-55.3z" transform="translate(-125 -366.648)"/><path d="M180.7 528l.5 7.7h-.5c-.7-2.3-1.7-3.9-2.9-5-1.3-1-2.8-1.5-4.6-1.5-1.5 0-2.8.4-4.1 1.1-1.2.8-2.2 2-2.9 3.6-.7 1.7-1 3.7-1 6.2 0 2 .3 3.8 1 5.3s1.6 2.6 3 3.4c1.3.8 2.8 1.2 4.5 1.2 1.5 0 2.8-.3 3.9-.9 1.1-.6 2.3-1.9 3.7-3.7l.5.3c-1.1 2-2.4 3.5-4 4.4-1.5.9-3.3 1.4-5.4 1.4-3.7 0-6.6-1.4-8.7-4.2-1.5-2.1-2.3-4.5-2.3-7.3 0-2.2.5-4.3 1.5-6.2 1-1.9 2.4-3.3 4.2-4.4 1.8-1 3.7-1.6 5.8-1.6 1.6 0 3.2.4 4.8 1.2.5.2.8.4 1 .4.3 0 .6-.1.8-.3.3-.3.5-.7.6-1.2l.6.1zm17.8 15.5h-8.7l-1.5 3.6c-.4.9-.6 1.5-.6 2 0 .3.2.6.5.9.3.3 1 .4 2.1.5v.6h-7.1v-.6c.9-.2 1.6-.4 1.8-.6.6-.5 1.2-1.6 1.9-3.2l7.9-18.5h.6l7.8 18.7c.6 1.5 1.2 2.5 1.7 2.9.5.4 1.2.7 2.2.8v.6h-8.9v-.6c.9 0 1.5-.2 1.8-.4.3-.3.5-.6.5-.9 0-.5-.2-1.3-.7-2.3l-1.3-3.5zm-.4-1.3l-3.8-9.1-3.9 9.1h7.7zm29 2.6l.5.1-1.9 6.1h-17.5v-.6h.8c1 0 1.6-.3 2-.9.2-.4.3-1.2.3-2.5v-14.5c0-1.4-.2-2.3-.5-2.6-.4-.5-1.1-.7-1.9-.7h-.8v-.6h10.2v.6c-1.2 0-2 .1-2.5.3-.5.2-.8.5-1 .9-.2.4-.3 1.2-.3 2.5V547c0 .9.1 1.6.3 1.9.1.2.3.4.6.5.3.1 1.1.2 2.6.2h1.6c1.7 0 2.9-.1 3.6-.4.7-.3 1.3-.7 1.9-1.4.8-.6 1.4-1.6 2-3zm11.8 5.6v.6h-9.7v-.6h.8c.9 0 1.6-.3 2-.8.3-.4.4-1.2.4-2.6v-14.6c0-1.1-.1-1.9-.2-2.3-.1-.3-.3-.5-.7-.7-.5-.3-1-.4-1.5-.4h-.8v-.6h9.7v.6h-.8c-.9 0-1.6.3-2 .8-.3.4-.4 1.2-.4 2.6V547c0 1.1.1 1.9.2 2.3.1.3.3.5.7.7.5.3 1 .4 1.5.4h.8zm7.8-20.7v8.9h4.1c.9 0 1.6-.2 2.1-.6.4-.4.7-1.2.9-2.5h.6v7.6h-.6c0-.9-.1-1.5-.3-1.9-.2-.4-.5-.7-.9-.9-.4-.2-1-.3-1.7-.3h-4.1v7.1c0 1.1.1 1.9.2 2.3.1.3.3.5.7.7.5.3 1 .4 1.5.4h.8v.6h-9.7v-.6h.8c.9 0 1.6-.3 2-.8.3-.4.4-1.2.4-2.6v-14.6c0-1.1-.1-1.9-.2-2.3-.1-.3-.3-.5-.7-.7-.5-.3-1-.4-1.5-.4h-.8v-.6h16.8l.2 5h-.6c-.3-1.1-.6-1.8-1-2.3s-.9-.9-1.4-1.1c-.6-.2-1.4-.3-2.6-.3l-5-.1zm24.4-1.7c2.9 0 5.5 1.1 7.6 3.3 2.1 2.2 3.2 5 3.2 8.3 0 3.4-1.1 6.3-3.2 8.5-2.2 2.3-4.8 3.4-7.8 3.4-3.1 0-5.7-1.1-7.8-3.3-2.1-2.2-3.2-5.1-3.2-8.6 0-3.6 1.2-6.5 3.7-8.8 2.1-1.8 4.6-2.8 7.5-2.8zm-.3 1.2c-2 0-3.6.7-4.9 2.2-1.5 1.9-2.3 4.6-2.3 8.2 0 3.7.8 6.5 2.4 8.5 1.2 1.5 2.8 2.3 4.8 2.3 2.1 0 3.9-.8 5.2-2.5s2.1-4.3 2.1-7.8c0-3.9-.8-6.7-2.3-8.6-1.1-1.6-2.8-2.3-5-2.3zm35.5 21.8h-6l-7.6-10.5h-2.4v6.5c0 1.4.2 2.3.5 2.6.4.5 1.1.7 1.9.7h.9v.6h-9.7v-.6h.8c1 0 1.6-.3 2-.9.2-.3.3-1.2.3-2.4v-14.6c0-1.4-.2-2.3-.5-2.6-.4-.5-1.1-.7-1.9-.7h-.8v-.6h8.2c2.4 0 4.2.2 5.3.5 1.1.3 2.1 1 2.9 1.9s1.2 2.1 1.2 3.3c0 1.4-.5 2.6-1.4 3.6-.9 1-2.3 1.7-4.2 2.2l4.7 6.5c1.1 1.5 2 2.5 2.7 3 .8.5 1.8.8 3 .9v.6zm-16-11.6h.9c2.1 0 3.8-.5 4.9-1.4 1.1-.9 1.6-2.1 1.6-3.6 0-1.4-.4-2.6-1.3-3.4-.9-.9-2-1.3-3.5-1.3-.6 0-1.5.1-2.6.3v9.4zm15.3-10.9h6.1l13.8 16.9v-13c0-1.4-.2-2.2-.5-2.6-.4-.5-1.1-.7-1.9-.7h-.8v-.6h7.8v.6h-.8c-1 0-1.6.3-2 .9-.2.4-.4 1.2-.4 2.4v19h-.6l-14.9-18.1v13.9c0 1.4.1 2.2.4 2.6.4.5 1.1.7 1.9.7h.8v.6h-7.8v-.6h.8c1 0 1.6-.3 2-.9.2-.4.4-1.2.4-2.4v-15.7c-.7-.8-1.1-1.3-1.5-1.5-.3-.2-.8-.5-1.5-.7-.3-.1-.8-.1-1.5-.1v-.7zm35.5 21.9v.6h-9.7v-.6h.8c.9 0 1.6-.3 2-.8.3-.4.4-1.2.4-2.6v-14.6c0-1.1-.1-1.9-.2-2.3-.1-.3-.3-.5-.7-.7-.5-.3-1-.4-1.5-.4h-.8v-.6h9.7v.6h-.8c-.9 0-1.6.3-2 .8-.3.4-.4 1.2-.4 2.6V547c0 1.1.1 1.9.2 2.3.1.3.3.5.7.7.5.3 1 .4 1.5.4h.8zm16.5-6.9h-8.7l-1.5 3.6c-.4.9-.6 1.5-.6 2 0 .3.2.6.5.9.3.3 1 .4 2.1.5v.6h-7.1v-.6c.9-.2 1.6-.4 1.8-.6.6-.5 1.2-1.6 1.9-3.2l7.9-18.5h.6l7.8 18.7c.6 1.5 1.2 2.5 1.7 2.9.5.4 1.2.7 2.2.8v.6h-8.9v-.6c.9 0 1.5-.2 1.8-.4.3-.3.5-.6.5-.9 0-.5-.2-1.3-.7-2.3l-1.3-3.5zm-.5-1.3l-3.8-9.1-3.9 9.1h7.7zm41 8.8h-6l-7.6-10.5h-2.4v6.5c0 1.4.2 2.3.5 2.6.4.5 1.1.7 1.9.7h.9v.6h-9.7v-.6h.8c1 0 1.6-.3 2-.9.2-.3.3-1.2.3-2.4v-14.6c0-1.4-.2-2.3-.5-2.6-.4-.5-1.1-.7-1.9-.7h-.8v-.6h8.2c2.4 0 4.2.2 5.3.5 1.1.3 2.1 1 2.9 1.9.8.9 1.2 2.1 1.2 3.3 0 1.4-.5 2.6-1.4 3.6-.9 1-2.3 1.7-4.2 2.2l4.7 6.5c1.1 1.5 2 2.5 2.7 3 .8.5 1.8.8 3 .9v.6zm-16-11.6h.9c2.1 0 3.8-.5 4.9-1.4s1.6-2.1 1.6-3.6c0-1.4-.4-2.6-1.3-3.4-.9-.9-2-1.3-3.5-1.3-.6 0-1.5.1-2.6.3v9.4zm22.9-9.7v8.9h5c1.3 0 2.1-.2 2.6-.6.6-.5.9-1.4 1-2.7h.6v7.8h-.6c-.2-1.1-.3-1.8-.5-2.1-.2-.4-.5-.7-1-.9-.5-.2-1.2-.3-2.1-.3h-5v7.4c0 1 0 1.6.1 1.8.1.2.2.4.5.5s.6.2 1.3.2h3.8c1.3 0 2.2-.1 2.8-.3.6-.2 1.1-.5 1.7-1 .7-.7 1.4-1.7 2.1-3.1h.7l-1.9 5.7h-17.4v-.6h.8c.5 0 1-.1 1.5-.4.4-.2.6-.4.7-.8.1-.4.2-1.1.2-2.2v-14.6c0-1.4-.1-2.3-.4-2.6-.4-.4-1.1-.7-2-.7h-.8v-.6h17.4l.2 4.9h-.6c-.2-1.2-.5-2-.8-2.4-.3-.4-.7-.8-1.3-1-.4-.2-1.2-.2-2.3-.2H405zm20.6 10.8v6.6c0 1.4.2 2.3.5 2.6.4.5 1.1.7 1.9.7h.9v.6h-9.7v-.6h.8c1 0 1.6-.3 2-.9.2-.3.3-1.2.3-2.4v-14.6c0-1.4-.1-2.3-.4-2.6-.4-.5-1.1-.7-1.9-.7h-.8v-.6h8.3c2 0 3.6.2 4.8.6 1.2.4 2.1 1.1 2.9 2.1.8 1 1.2 2.2 1.2 3.5 0 1.8-.6 3.3-1.8 4.5-1.2 1.2-2.9 1.7-5.1 1.7-.5 0-1.1 0-1.8-.1-.7-.2-1.4-.3-2.1-.4zm0-1c.6.1 1.1.2 1.6.2.5.1.8.1 1.2.1 1.2 0 2.1-.4 3-1.3.8-.9 1.3-2 1.3-3.5 0-1-.2-1.9-.6-2.7-.4-.8-1-1.5-1.7-1.9-.7-.4-1.6-.6-2.5-.6-.6 0-1.3.1-2.2.3v9.4zm28.2-10.4v-.6h8v.6h-.8c-.9 0-1.6.4-2 1.1-.2.3-.3 1.1-.3 2.4v9.1c0 2.3-.2 4-.7 5.3-.4 1.2-1.3 2.3-2.6 3.2-1.3.9-3.1 1.3-5.4 1.3-2.5 0-4.3-.4-5.6-1.3-1.3-.9-2.2-2-2.7-3.4-.4-1-.5-2.8-.5-5.6v-8.8c0-1.4-.2-2.3-.6-2.7-.4-.4-1-.6-1.9-.6h-.8v-.6h9.7v.6h-.9c-.9 0-1.6.3-2 .9-.3.4-.4 1.2-.4 2.5v9.8c0 .9.1 1.9.2 3 .2 1.1.5 2 .9 2.6.4.6 1 1.2 1.8 1.6.8.4 1.8.6 2.9.6 1.5 0 2.8-.3 4-1 1.2-.6 2-1.5 2.4-2.5.4-1 .6-2.7.6-5.1v-9.1c0-1.4-.2-2.3-.5-2.6-.4-.5-1.1-.7-1.9-.7h-.9zm24.1 10.4c1.6.3 2.7.9 3.5 1.6 1.1 1 1.6 2.3 1.6 3.7 0 1.1-.4 2.2-1.1 3.2-.7 1-1.7 1.8-2.9 2.2-1.2.5-3.1.7-5.7.7h-10.6v-.6h.8c.9 0 1.6-.3 2-.9.3-.4.4-1.2.4-2.5v-14.6c0-1.4-.2-2.3-.5-2.6-.4-.5-1.1-.7-1.9-.7h-.8v-.6h9.7c1.8 0 3.3.1 4.4.4 1.7.4 2.9 1.1 3.8 2.1.9 1 1.3 2.2 1.3 3.5 0 1.1-.3 2.1-1 3-.6 1-1.6 1.7-3 2.1zm-8.7-.9c.4.1.9.1 1.4.2.5 0 1.1.1 1.7.1 1.6 0 2.8-.2 3.6-.5.8-.3 1.4-.9 1.9-1.6.4-.7.6-1.5.6-2.4 0-1.3-.5-2.4-1.6-3.4-1.1-.9-2.6-1.4-4.7-1.4-1.1 0-2.1.1-3 .4v8.6zm0 10.8c1.3.3 2.6.4 3.8.4 2 0 3.5-.5 4.6-1.4 1.1-.9 1.6-2 1.6-3.3 0-.9-.2-1.7-.7-2.5-.5-.8-1.3-1.4-2.3-1.9-1.1-.5-2.4-.7-4-.7h-1.8c-.5 0-.9.1-1.2.1v9.3zm35.2-4.6l.5.1-1.9 6.1h-17.5v-.6h.8c1 0 1.6-.3 2-.9.2-.4.3-1.2.3-2.5v-14.5c0-1.4-.2-2.3-.5-2.6-.4-.5-1.1-.7-1.9-.7h-.8v-.6h10.2v.6c-1.2 0-2 .1-2.5.3-.5.2-.8.5-1 .9s-.3 1.2-.3 2.5V547c0 .9.1 1.6.3 1.9.1.2.3.4.6.5.3.1 1.1.2 2.6.2h1.6c1.7 0 2.9-.1 3.6-.4.7-.3 1.3-.7 1.9-1.4.9-.6 1.5-1.6 2-3zm11.8 5.6v.6h-9.7v-.6h.8c.9 0 1.6-.3 2-.8.3-.4.4-1.2.4-2.6v-14.6c0-1.1-.1-1.9-.2-2.3-.1-.3-.3-.5-.7-.7-.5-.3-1-.4-1.5-.4h-.8v-.6h9.7v.6h-.8c-.9 0-1.6.3-2 .8-.3.4-.4 1.2-.4 2.6V547c0 1.1.1 1.9.2 2.3.1.3.3.5.7.7.5.3 1 .4 1.5.4h.8zm21.4-22.4l.5 7.7h-.5c-.7-2.3-1.7-3.9-2.9-5-1.3-1-2.8-1.5-4.6-1.5-1.5 0-2.8.4-4.1 1.1s-2.2 2-2.9 3.6-1 3.7-1 6.2c0 2 .3 3.8 1 5.3s1.6 2.6 3 3.4c1.3.8 2.8 1.2 4.5 1.2 1.5 0 2.8-.3 3.9-.9s2.3-1.9 3.7-3.7l.5.3c-1.1 2-2.4 3.5-4 4.4-1.5.9-3.3 1.4-5.4 1.4-3.7 0-6.6-1.4-8.7-4.2-1.5-2.1-2.3-4.5-2.3-7.3 0-2.2.5-4.3 1.5-6.2 1-1.9 2.4-3.3 4.2-4.4 1.8-1 3.7-1.6 5.8-1.6 1.6 0 3.2.4 4.8 1.2.5.2.8.4 1 .4.3 0 .6-.1.8-.3.3-.3.5-.7.6-1.2h.6z" transform="translate(-125 -366.648)"/></svg>