<svg xmlns="http://www.w3.org/2000/svg" width="286" height="300" viewBox="0 0 286 300"><title>flag-alaska-icon-star</title><path d="M162,168.39l62.73-45.58,8.82-6.41H148.76c-.72,0-2.83.38-3.48,0-1.17-.67-1.93-5.4-2.34-6.68l-14-43L117.78,32.29,93.82,106l-2.25,6.9c-.22.69-.51,2.81-1.07,3.32-1,.89-5.74.15-7.08.15H2L64.73,162l5.87,4.27c.58.42,2.51,1.35,2.82,2,.54,1.23-1.62,5.51-2,6.78l-14,43.06L46.22,252.51,109,206.93l5.88-4.26c.58-.43,2.06-2,2.81-2,1.34-.14,4.74,3.24,5.82,4l36.63,26.61,29.24,21.25-24-73.75Z" fill="none" stroke="#000" stroke-linecap="round" stroke-linejoin="round" stroke-width="2"/></svg>