<svg xmlns="http://www.w3.org/2000/svg" width="600" height="378.32" viewBox="0 0 600 378.32"><title>flag-arizona-dimensions</title><rect x="49.11" y="4.09" width="501.48" height="334.31" fill="#fff" stroke="#50d6cc" stroke-linecap="round" stroke-linejoin="round"/><line x1="49.11" y1="121.93" x2="216.66" y2="150.34" fill="none" stroke="#50d6cc" stroke-linecap="round" stroke-linejoin="round"/><line x1="244.66" y1="171.24" x2="49.11" y2="171.24" fill="none" stroke="#50d6cc" stroke-linecap="round" stroke-linejoin="round"/><line x1="49.11" y1="63.43" x2="257.55" y2="149.97" fill="none" stroke="#50d6cc" stroke-linecap="round" stroke-linejoin="round"/><line x1="277.77" y1="149.92" x2="96.71" y2="4.09" fill="none" stroke="#50d6cc" stroke-linecap="round" stroke-linejoin="round"/><line x1="167.08" y1="4.09" x2="284.74" y2="148.66" fill="none" stroke="#50d6cc" stroke-linecap="round" stroke-linejoin="round"/><line x1="289.6" y1="134.38" x2="224.17" y2="4.09" fill="none" stroke="#50d6cc" stroke-linecap="round" stroke-linejoin="round"/><line x1="333.91" y1="4.09" x2="312.85" y2="113.43" fill="none" stroke="#50d6cc" stroke-linecap="round" stroke-linejoin="round"/><line x1="296.34" y1="113.5" x2="275.45" y2="4.09" fill="none" stroke="#50d6cc" stroke-linecap="round" stroke-linejoin="round"/><line x1="550.58" y1="64.3" x2="346.4" y2="150.03" fill="none" stroke="#50d6cc" stroke-linecap="round" stroke-linejoin="round"/><line x1="333.25" y1="149.71" x2="515.49" y2="4.09" fill="none" stroke="#50d6cc" stroke-linecap="round" stroke-linejoin="round"/><line x1="550.58" y1="122.37" x2="389.98" y2="149.84" fill="none" stroke="#50d6cc" stroke-linecap="round" stroke-linejoin="round"/><line x1="364.64" y1="171.24" x2="550.58" y2="171.24" fill="none" stroke="#50d6cc" stroke-linecap="round" stroke-linejoin="round"/><line x1="386.05" y1="4.09" x2="319.61" y2="133.8" fill="none" stroke="#50d6cc" stroke-linecap="round" stroke-linejoin="round"/><line x1="325.54" y1="149.92" x2="444.58" y2="4.09" fill="none" stroke="#50d6cc" stroke-linecap="round" stroke-linejoin="round"/><polygon points="338.45 190.56 393.39 150.03 325 150.03 304.49 88.24 284.55 150.03 215.6 150.03 271.41 190.76 250.55 255.39 304.96 215.26 359.96 255.39 338.45 190.56" fill="none" stroke="#50d6cc" stroke-linecap="round" stroke-linejoin="round"/><line x1="18.79" y1="189.16" x2="18.79" y2="191.66" fill="none" stroke="#a3a3a3" stroke-linecap="round" stroke-linejoin="round"/><line x1="18.79" y1="196.59" x2="18.79" y2="332.21" fill="none" stroke="#a3a3a3" stroke-linecap="round" stroke-linejoin="round" stroke-dasharray="4.93 4.93"/><polyline points="18.79 334.68 18.79 337.18 21.29 337.18" fill="none" stroke="#a3a3a3" stroke-linecap="round" stroke-linejoin="round"/><line x1="25.65" y1="337.18" x2="32.18" y2="337.18" fill="none" stroke="#a3a3a3" stroke-linecap="round" stroke-linejoin="round" stroke-dasharray="4.36 4.36"/><line x1="34.36" y1="337.18" x2="36.86" y2="337.18" fill="none" stroke="#a3a3a3" stroke-linecap="round" stroke-linejoin="round"/><line x1="36.86" y1="4.09" x2="34.36" y2="4.09" fill="none" stroke="#a3a3a3" stroke-linecap="round" stroke-linejoin="round"/><line x1="30" y1="4.09" x2="23.47" y2="4.09" fill="none" stroke="#a3a3a3" stroke-linecap="round" stroke-linejoin="round" stroke-dasharray="4.36 4.36"/><polyline points="21.29 4.08 18.79 4.08 18.79 6.58" fill="none" stroke="#a3a3a3" stroke-linecap="round" stroke-linejoin="round"/><line x1="18.79" y1="11.47" x2="18.79" y2="145.71" fill="none" stroke="#a3a3a3" stroke-linecap="round" stroke-linejoin="round" stroke-dasharray="4.88 4.88"/><line x1="18.79" y1="148.15" x2="18.79" y2="150.65" fill="none" stroke="#a3a3a3" stroke-linecap="round" stroke-linejoin="round"/><line x1="338.43" y1="363.34" x2="340.93" y2="363.34" fill="none" stroke="#a3a3a3" stroke-linecap="round" stroke-linejoin="round"/><line x1="345.98" y1="363.34" x2="545.6" y2="363.34" fill="none" stroke="#a3a3a3" stroke-linecap="round" stroke-linejoin="round" stroke-dasharray="5.05 5.05"/><polyline points="548.12 363.34 550.62 363.34 550.62 360.84" fill="none" stroke="#a3a3a3" stroke-linecap="round" stroke-linejoin="round"/><line x1="550.62" y1="357.98" x2="550.62" y2="353.7" fill="none" stroke="#a3a3a3" stroke-linecap="round" stroke-linejoin="round" stroke-dasharray="2.86 2.86"/><line x1="550.62" y1="352.27" x2="550.62" y2="349.77" fill="none" stroke="#a3a3a3" stroke-linecap="round" stroke-linejoin="round"/><line x1="581.44" y1="24.12" x2="581.44" y2="21.62" fill="none" stroke="#a3a3a3" stroke-linecap="round" stroke-linejoin="round"/><line x1="581.44" y1="16.54" x2="581.44" y2="8.91" fill="none" stroke="#a3a3a3" stroke-linecap="round" stroke-linejoin="round" stroke-dasharray="5.08 5.08"/><polyline points="581.45 6.37 581.45 3.87 578.95 3.87" fill="none" stroke="#a3a3a3" stroke-linecap="round" stroke-linejoin="round"/><line x1="572.7" y1="3.87" x2="563.34" y2="3.87" fill="none" stroke="#a3a3a3" stroke-linecap="round" stroke-linejoin="round" stroke-dasharray="6.24 6.24"/><line x1="560.22" y1="3.87" x2="557.72" y2="3.87" fill="none" stroke="#a3a3a3" stroke-linecap="round" stroke-linejoin="round"/><line x1="581.44" y1="150.03" x2="581.44" y2="147.53" fill="none" stroke="#a3a3a3" stroke-linecap="round" stroke-linejoin="round"/><line x1="581.44" y1="142.33" x2="581.44" y2="92.93" fill="none" stroke="#a3a3a3" stroke-linecap="round" stroke-linejoin="round" stroke-dasharray="5.2 5.2"/><polyline points="581.45 90.33 581.45 87.83 578.95 87.83" fill="none" stroke="#a3a3a3" stroke-linecap="round" stroke-linejoin="round"/><line x1="573.91" y1="87.83" x2="304.28" y2="87.83" fill="none" stroke="#a3a3a3" stroke-linecap="round" stroke-linejoin="round" stroke-dasharray="5.04 5.04"/><line x1="301.76" y1="87.83" x2="299.26" y2="87.83" fill="none" stroke="#a3a3a3" stroke-linecap="round" stroke-linejoin="round"/><line x1="581.44" y1="196.93" x2="581.44" y2="199.43" fill="none" stroke="#a3a3a3" stroke-linecap="round" stroke-linejoin="round"/><line x1="581.44" y1="204.38" x2="581.44" y2="251.42" fill="none" stroke="#a3a3a3" stroke-linecap="round" stroke-linejoin="round" stroke-dasharray="4.95 4.95"/><polyline points="581.45 253.89 581.45 256.39 578.95 256.39" fill="none" stroke="#a3a3a3" stroke-linecap="round" stroke-linejoin="round"/><line x1="573.91" y1="256.39" x2="304.28" y2="256.39" fill="none" stroke="#a3a3a3" stroke-linecap="round" stroke-linejoin="round" stroke-dasharray="5.04 5.04"/><line x1="301.76" y1="256.39" x2="299.26" y2="256.39" fill="none" stroke="#a3a3a3" stroke-linecap="round" stroke-linejoin="round"/><line x1="581.44" y1="319.28" x2="581.44" y2="321.78" fill="none" stroke="#a3a3a3" stroke-linecap="round" stroke-linejoin="round"/><line x1="581.44" y1="326.47" x2="581.44" y2="333.51" fill="none" stroke="#a3a3a3" stroke-linecap="round" stroke-linejoin="round" stroke-dasharray="4.69 4.69"/><polyline points="581.45 335.85 581.45 338.35 578.95 338.35" fill="none" stroke="#a3a3a3" stroke-linecap="round" stroke-linejoin="round"/><line x1="572.7" y1="338.35" x2="563.34" y2="338.35" fill="none" stroke="#a3a3a3" stroke-linecap="round" stroke-linejoin="round" stroke-dasharray="6.24 6.24"/><line x1="560.22" y1="338.35" x2="557.72" y2="338.35" fill="none" stroke="#a3a3a3" stroke-linecap="round" stroke-linejoin="round"/><line x1="48.9" y1="349.77" x2="48.9" y2="352.27" fill="none" stroke="#a3a3a3" stroke-linecap="round" stroke-linejoin="round"/><line x1="48.9" y1="355.13" x2="48.9" y2="359.41" fill="none" stroke="#a3a3a3" stroke-linecap="round" stroke-linejoin="round" stroke-dasharray="2.86 2.86"/><polyline points="48.9 360.84 48.9 363.34 51.4 363.34" fill="none" stroke="#a3a3a3" stroke-linecap="round" stroke-linejoin="round"/><line x1="56.36" y1="363.34" x2="262.12" y2="363.34" fill="none" stroke="#a3a3a3" stroke-linecap="round" stroke-linejoin="round" stroke-dasharray="4.96 4.96"/><line x1="264.6" y1="363.34" x2="267.1" y2="363.34" fill="none" stroke="#a3a3a3" stroke-linecap="round" stroke-linejoin="round"/><path d="M8.11,165.83v6.63H9.48v1.06H8.11v2.92H6.88V173.5H2.61v-.88l4.5-6.79Zm-4.33,6.63H6.89v-4.74Z"/><path d="M27,166.09l-.55,1.13c-.06,0-.13,0-.14-.14s0-.12,0-.2a2,2,0,0,0-1.69-.89,1.75,1.75,0,0,0-1.57.86,3.36,3.36,0,0,0-.28,1.68v.6h2.54v1H22.72v6.34H21.55V170.1H19.86v-1h1.69v-.76a3.61,3.61,0,0,1,.42-2,3.24,3.24,0,0,1,5-.29Z"/><path d="M31.82,166.37c.06.18-.06.28-.09.46-.08.43-.2,1.83-.2,1.83h2.54v1H31.51c-.09,1-.14,2-.14,3a11.49,11.49,0,0,0,.05,1.49,1.27,1.27,0,0,0,1.3,1.26,3.07,3.07,0,0,0,1.74-.71l.38,1a4.31,4.31,0,0,1-2.48.86,2.07,2.07,0,0,1-1.77-.82,3.54,3.54,0,0,1-.45-2.12c0-1.32.05-2.64.16-4H28.48v-1h1.85l.15-2.09Z"/><path d="M568,170.78a3,3,0,0,1,3.07,3,4.71,4.71,0,0,1-1.86,3.33,14.21,14.21,0,0,0-2.88,3.31h4.44a.22.22,0,0,0,.18-.07.23.23,0,0,1,.23-.07v1.18h-6.22v-.74a12.68,12.68,0,0,1,3.08-3.95c.77-.69,1.85-1.62,1.85-2.91a2,2,0,0,0-2-2,2.22,2.22,0,0,0-1.81,1c-.09.15,0,.25-.15.4l-.86-.69A3.44,3.44,0,0,1,568,170.78Z"/><path d="M588.9,171.1l-.56,1.13c-.05,0-.13,0-.14-.14a.3.3,0,0,0,0-.2,2,2,0,0,0-1.7-.89,1.74,1.74,0,0,0-1.56.86,3.34,3.34,0,0,0-.28,1.68v.6h2.53v1h-2.53v6.33h-1.18v-6.33h-1.68v-1h1.68v-.76a3.53,3.53,0,0,1,.43-2,3.24,3.24,0,0,1,5-.29Z"/><path d="M593.72,171.38c.06.17-.06.28-.1.46-.08.43-.2,1.83-.2,1.83H596v1h-2.55c-.1,1-.15,2-.15,3a11.66,11.66,0,0,0,0,1.49,1.28,1.28,0,0,0,1.31,1.26,3.07,3.07,0,0,0,1.74-.71l.38,1a4.36,4.36,0,0,1-2.48.86,2.08,2.08,0,0,1-1.77-.82,3.55,3.55,0,0,1-.46-2.12c0-1.32.05-2.64.16-4h-1.82l0-1h1.85l.14-2.08Z"/><path d="M569.29,304.41h-1.18v-9.14l-2.13.63-.28-.66,2.77-1.45h.82Z"/><path d="M589.42,294.05l-.56,1.13c-.05,0-.13,0-.14-.14a.3.3,0,0,0,0-.2A2.06,2.06,0,0,0,587,294a1.74,1.74,0,0,0-1.56.86,3.36,3.36,0,0,0-.28,1.68v.6h2.53v1h-2.53v6.34H584v-6.34h-1.68v-1H584v-.76a3.53,3.53,0,0,1,.43-2,3.24,3.24,0,0,1,5-.29Z"/><path d="M594.24,294.33c.06.18-.06.28-.1.46-.08.43-.2,1.83-.2,1.83h2.54v1h-2.55c-.1,1-.15,2-.15,3a11.49,11.49,0,0,0,.05,1.49,1.28,1.28,0,0,0,1.31,1.26,3.07,3.07,0,0,0,1.74-.71l.38,1a4.36,4.36,0,0,1-2.48.86,2.06,2.06,0,0,1-1.77-.82,3.55,3.55,0,0,1-.46-2.12c0-1.32.05-2.64.16-4h-1.82l0-1h1.85l.14-2.09Z"/><path d="M568.77,49.64h-1.18V40.5l-2.13.63-.28-.66L568,39h.82Z"/><path d="M588.9,39.28l-.56,1.13a.14.14,0,0,1-.14-.14.29.29,0,0,0,0-.2,2,2,0,0,0-1.7-.89,1.72,1.72,0,0,0-1.56.86,3.32,3.32,0,0,0-.28,1.67v.61h2.53v1h-2.53v6.34h-1.18V43.28h-1.68v-1h1.68v-.77a3.5,3.5,0,0,1,.43-2,3.24,3.24,0,0,1,5-.29Z"/><path d="M593.72,39.56c.06.17-.06.28-.1.46-.08.43-.2,1.83-.2,1.83H596v1h-2.55c-.1,1-.15,2-.15,3a11.84,11.84,0,0,0,0,1.49,1.28,1.28,0,0,0,1.31,1.25,3.07,3.07,0,0,0,1.74-.71l.38,1a4.37,4.37,0,0,1-2.48.87,2.07,2.07,0,0,1-1.77-.83,3.5,3.5,0,0,1-.46-2.11c0-1.32.05-2.64.16-4h-1.82l0-1h1.85l.14-2.08Z"/><path d="M294.7,358.71l-.83.91c-.15-.12-.15-.28-.25-.38a1.89,1.89,0,0,0-1.24-.45c-.76,0-2.5.48-2.57,4.1a2.61,2.61,0,0,1,2.25-1.28c1.49,0,2.9,1.27,2.9,3.47s-1.41,3.54-3,3.54a3,3,0,0,1-2.5-1.4,6.49,6.49,0,0,1-.8-3.59,10.15,10.15,0,0,1,.45-3.26,3.53,3.53,0,0,1,3.28-2.63A3.36,3.36,0,0,1,294.7,358.71Zm-4.83,5.37c-.14,2,.83,3.49,2.12,3.49.9,0,1.81-.77,1.81-2.43,0-1.82-1-2.49-1.85-2.49A2.54,2.54,0,0,0,289.87,364.08Z"/><path d="M312.71,358.11l-.56,1.13a.14.14,0,0,1-.14-.15.31.31,0,0,0,0-.2,2.06,2.06,0,0,0-1.7-.89,1.74,1.74,0,0,0-1.56.86,3.36,3.36,0,0,0-.28,1.68v.6H311v1h-2.53v6.34h-1.18v-6.34h-1.68v-1h1.68v-.76a3.48,3.48,0,0,1,.43-2,3.22,3.22,0,0,1,5-.29Z"/><path d="M317.53,358.39c.06.17-.07.27-.1.45-.08.44-.2,1.83-.2,1.83h2.54v1h-2.55q-.15,1.51-.15,3a12,12,0,0,0,.05,1.5,1.28,1.28,0,0,0,1.31,1.25,3.07,3.07,0,0,0,1.74-.71l.38,1a4.37,4.37,0,0,1-2.48.87,2.07,2.07,0,0,1-1.77-.83,3.54,3.54,0,0,1-.46-2.11c0-1.32.05-2.64.16-4h-1.82l0-1H316l.15-2.08Z"/><line x1="581.44" y1="280.18" x2="581.44" y2="229.85" fill="none" stroke="#a3a3a3" stroke-linecap="round" stroke-linejoin="round" stroke-dasharray="5 5"/><line x1="581.44" y1="91.23" x2="581.44" y2="63.49" fill="none" stroke="#a3a3a3" stroke-linecap="round" stroke-linejoin="round" stroke-dasharray="5 5"/></svg>