<?xml version="1.0" encoding="UTF-8" standalone="no"?>
<!-- Created with Inkscape (http://www.inkscape.org/) -->
<svg
   xmlns:dc="http://purl.org/dc/elements/1.1/"
   xmlns:cc="http://creativecommons.org/ns#"
   xmlns:rdf="http://www.w3.org/1999/02/22-rdf-syntax-ns#"
   xmlns:svg="http://www.w3.org/2000/svg"
   xmlns="http://www.w3.org/2000/svg"
   xmlns:sodipodi="http://sodipodi.sourceforge.net/DTD/sodipodi-0.dtd"
   xmlns:inkscape="http://www.inkscape.org/namespaces/inkscape"
   version="1.0"
   width="449.99997"
   height="300"
   id="svg548"
   sodipodi:version="0.32"
   inkscape:version="0.46"
   sodipodi:docname="Flag_of_Arkansas_(1923).svg"
   inkscape:output_extension="org.inkscape.output.svg.inkscape"
   inkscape:export-filename="C:\Documents and Settings\Zach\My Documents\ar stuff\ar-3x5.png"
   inkscape:export-xdpi="90"
   inkscape:export-ydpi="90">
  <metadata
     id="metadata2424">
    <rdf:RDF>
      <cc:Work
         rdf:about="">
        <dc:format>image/svg+xml</dc:format>
        <dc:type
           rdf:resource="http://purl.org/dc/dcmitype/StillImage" />
      </cc:Work>
    </rdf:RDF>
  </metadata>
  <sodipodi:namedview
     inkscape:window-height="667"
     inkscape:window-width="778"
     inkscape:pageshadow="2"
     inkscape:pageopacity="0.0"
     guidetolerance="10.0"
     gridtolerance="10.0"
     objecttolerance="10.0"
     borderopacity="1.0"
     bordercolor="#666666"
     pagecolor="#ffffff"
     id="base"
     showgrid="false"
     inkscape:zoom="0.93566975"
     inkscape:cx="224.99998"
     inkscape:cy="67.163227"
     inkscape:window-x="93"
     inkscape:window-y="-11"
     inkscape:current-layer="svg548"
     showguides="true"
     inkscape:guide-bbox="true" />
  <defs
     id="defs550">
    <inkscape:perspective
       sodipodi:type="inkscape:persp3d"
       inkscape:vp_x="0 : 150 : 1"
       inkscape:vp_y="0 : 1000 : 0"
       inkscape:vp_z="449.99997 : 150 : 1"
       inkscape:persp3d-origin="224.99998 : 100 : 1"
       id="perspective2426" />
  </defs>
  <rect
     width="449.99997"
     height="300"
     x="0"
     y="2.5477191e-14"
     id="rect552"
     style="font-size:12px;fill:#bf0a30;fill-opacity:1;fill-rule:evenodd;stroke-width:1pt" />
  <path
     d="M 37.49998,148.84088 L 224.22459,275 L 412.49999,148.59512 L 224.22459,24.999999 L 37.49998,148.84088 z"
     id="path558"
     style="fill:#002868;fill-opacity:1;fill-rule:evenodd;stroke:none;stroke-width:3.14457989;stroke-linecap:butt;stroke-linejoin:miter;stroke-dasharray:none;stroke-opacity:1" />
  <path
     d="M 83.99998,149.12834 L 224.41689,244 L 365.99999,148.94353 L 224.41689,56 L 83.99998,149.12834 z"
     id="path2508"
     style="fill:#ffffff;fill-opacity:1;fill-rule:evenodd;stroke:none;stroke-width:3.14457989;stroke-linecap:butt;stroke-linejoin:miter;stroke-dasharray:none;stroke-opacity:1" />
  <path
     d="M 229.48396,49.981066 L 223.96299,45.981502 L 218.45203,50 L 220.54659,43.508953 L 215.02499,39.505124 L 221.84047,39.493001 L 223.9389,33 L 226.0565,39.483554 L 232.87499,39.474488 L 227.36831,43.49367 L 229.48396,49.981066 z"
     id="polygon560"
     style="font-size:12px;fill:#ffffff;fill-opacity:1;fill-rule:evenodd;stroke:none;stroke-width:0.625;stroke-dasharray:none;stroke-dashoffset:5;stroke-opacity:1" />
  <path
     d="M 274.83195,200 L 264.86746,192.91887 L 254.89151,199.99364 L 258.70138,188.54128 L 248.73573,181.45263 L 261.05489,181.4558 L 264.87175,170 L 268.67541,181.45432 L 281,181.4629 L 271.03179,188.5389 L 274.83195,200 z"
     id="path2419"
     style="font-size:12px;fill:#002868;fill-opacity:1;fill-rule:evenodd;stroke:none;stroke-width:0.625;stroke-dasharray:none;stroke-dashoffset:5;stroke-opacity:1" />
  <path
     d="M 82.01893,135.60897 L 86.0185,130.088 L 82,124.57704 L 88.49104,126.6716 L 92.49487,121.15 L 92.50699,127.96548 L 99.000004,130.0639 L 92.51644,132.18151 L 92.52551,139 L 88.50633,133.49332 L 82.01893,135.60897 z"
     id="path3256"
     style="font-size:12px;fill:#ffffff;fill-opacity:1;fill-rule:evenodd;stroke:none;stroke-width:0.625;stroke-dasharray:none;stroke-dashoffset:5;stroke-opacity:1" />
  <path
     d="M 109.01893,117.60897 L 113.0185,112.088 L 109,106.57704 L 115.49104,108.6716 L 119.49487,103.15 L 119.50699,109.96548 L 126,112.0639 L 119.51644,114.18151 L 119.52551,121 L 115.50633,115.49332 L 109.01893,117.60897 z"
     id="path3254"
     style="font-size:12px;fill:#ffffff;fill-opacity:1;fill-rule:evenodd;stroke:none;stroke-width:0.625;stroke-dasharray:none;stroke-dashoffset:5;stroke-opacity:1" />
  <path
     d="M 190.01893,64.60897 L 194.0185,59.088 L 190,53.57704 L 196.49104,55.6716 L 200.49487,50.15 L 200.50699,56.96548 L 207,59.0639 L 200.51644,61.18151 L 200.52551,68 L 196.50633,62.49332 L 190.01893,64.60897 z"
     id="path3445"
     style="font-size:12px;fill:#ffffff;fill-opacity:1;fill-rule:evenodd;stroke:none;stroke-width:0.625;stroke-dasharray:none;stroke-dashoffset:5;stroke-opacity:1" />
  <path
     d="M 163.01893,82.60897 L 167.0185,77.088 L 163,71.57704 L 169.49104,73.6716 L 173.49487,68.15 L 173.50699,74.96548 L 180,77.0639 L 173.51644,79.18151 L 173.52551,86 L 169.50633,80.49332 L 163.01893,82.60897 z"
     id="path3447"
     style="font-size:12px;fill:#ffffff;fill-opacity:1;fill-rule:evenodd;stroke:none;stroke-width:0.625;stroke-dasharray:none;stroke-dashoffset:5;stroke-opacity:1" />
  <path
     d="M 136.01893,99.60897 L 140.0185,94.088 L 136,88.57704 L 142.49104,90.6716 L 146.49487,85.15 L 146.50699,91.96548 L 153,94.0639 L 146.51644,96.18151 L 146.52551,103 L 142.50633,97.49332 L 136.01893,99.60897 z"
     id="path3451"
     style="font-size:12px;fill:#ffffff;fill-opacity:1;fill-rule:evenodd;stroke:none;stroke-width:0.625;stroke-dasharray:none;stroke-dashoffset:5;stroke-opacity:1" />
  <path
     d="M 82.01893,135.60897 L 86.0185,130.088 L 82,124.57704 L 88.49104,126.6716 L 92.49487,121.15 L 92.50699,127.96548 L 99.000004,130.0639 L 92.51644,132.18151 L 92.52551,139 L 88.50633,133.49332 L 82.01893,135.60897 z"
     id="path3481"
     style="font-size:12px;fill:#ffffff;fill-opacity:1;fill-rule:evenodd;stroke:none;stroke-width:0.625;stroke-dasharray:none;stroke-dashoffset:5;stroke-opacity:1" />
  <path
     d="M 340.45883,117.60897 L 336.45926,112.088 L 340.47776,106.57704 L 333.98672,108.6716 L 329.98289,103.15 L 329.97077,109.96548 L 323.47776,112.0639 L 329.96132,114.18151 L 329.95225,121 L 333.97143,115.49332 L 340.45883,117.60897 z"
     id="path3533"
     style="font-size:12px;fill:#ffffff;fill-opacity:1;fill-rule:evenodd;stroke:none;stroke-width:0.625;stroke-dasharray:none;stroke-dashoffset:5;stroke-opacity:1" />
  <path
     d="M 259.45883,64.60897 L 255.45926,59.088 L 259.47776,53.57704 L 252.98672,55.6716 L 248.98289,50.15 L 248.97077,56.96548 L 242.47776,59.0639 L 248.96132,61.18151 L 248.95225,68 L 252.97143,62.49332 L 259.45883,64.60897 z"
     id="path3535"
     style="font-size:12px;fill:#ffffff;fill-opacity:1;fill-rule:evenodd;stroke:none;stroke-width:0.625;stroke-dasharray:none;stroke-dashoffset:5;stroke-opacity:1" />
  <path
     d="M 286.45883,82.60897 L 282.45926,77.088 L 286.47776,71.57704 L 279.98672,73.6716 L 275.98289,68.15 L 275.97077,74.96548 L 269.47776,77.0639 L 275.96132,79.18151 L 275.95225,86 L 279.97143,80.49332 L 286.45883,82.60897 z"
     id="path3537"
     style="font-size:12px;fill:#ffffff;fill-opacity:1;fill-rule:evenodd;stroke:none;stroke-width:0.625;stroke-dasharray:none;stroke-dashoffset:5;stroke-opacity:1" />
  <path
     d="M 313.45883,99.60897 L 309.45926,94.088 L 313.47776,88.57704 L 306.98672,90.6716 L 302.98289,85.15 L 302.97077,91.96548 L 296.47776,94.0639 L 302.96132,96.18151 L 302.95225,103 L 306.97143,97.49332 L 313.45883,99.60897 z"
     id="path3539"
     style="font-size:12px;fill:#ffffff;fill-opacity:1;fill-rule:evenodd;stroke:none;stroke-width:0.625;stroke-dasharray:none;stroke-dashoffset:5;stroke-opacity:1" />
  <path
     d="M 367.45883,135.60897 L 363.45926,130.088 L 367.47776,124.57704 L 360.98672,126.6716 L 356.98289,121.15 L 356.97077,127.96548 L 350.47776,130.0639 L 356.96132,132.18151 L 356.95225,139 L 360.97143,133.49332 L 367.45883,135.60897 z"
     id="path3541"
     style="font-size:12px;fill:#ffffff;fill-opacity:1;fill-rule:evenodd;stroke:none;stroke-width:0.625;stroke-dasharray:none;stroke-dashoffset:5;stroke-opacity:1" />
  <path
     d="M 71.98107,144.46603 L 67.9815,149.987 L 72,155.49796 L 65.50896,153.4034 L 61.50513,158.925 L 61.49301,152.10952 L 55,150.0111 L 61.48356,147.89349 L 61.47449,141.075 L 65.49367,146.58168 L 71.98107,144.46603 z"
     id="path3214"
     style="font-size:12px;fill:#ffffff;fill-opacity:1;fill-rule:evenodd;stroke:none;stroke-width:0.625;stroke-dasharray:none;stroke-dashoffset:5;stroke-opacity:1" />
  <path
     d="M 95.98107,161.54103 L 91.9815,167.062 L 96,172.57296 L 89.50896,170.4784 L 85.50513,176 L 85.49301,169.18452 L 79,167.0861 L 85.48356,164.96849 L 85.47449,158.15 L 89.49367,163.65668 L 95.98107,161.54103 z"
     id="path3281"
     style="font-size:12px;fill:#ffffff;fill-opacity:1;fill-rule:evenodd;stroke:none;stroke-width:0.625;stroke-dasharray:none;stroke-dashoffset:5;stroke-opacity:1" />
  <path
     d="M 167.98107,210.54103 L 163.9815,216.062 L 168,221.57296 L 161.50896,219.4784 L 157.50513,225 L 157.49301,218.18452 L 151,216.0861 L 157.48356,213.96849 L 157.47449,207.15 L 161.49367,212.65668 L 167.98107,210.54103 z"
     id="path3631"
     style="font-size:12px;fill:#ffffff;fill-opacity:1;fill-rule:evenodd;stroke:none;stroke-width:0.625;stroke-dasharray:none;stroke-dashoffset:5;stroke-opacity:1" />
  <path
     d="M 143.98107,193.54103 L 139.9815,199.062 L 144,204.57296 L 137.50896,202.4784 L 133.50513,208 L 133.49301,201.18452 L 127,199.0861 L 133.48356,196.96849 L 133.47449,190.15 L 137.49367,195.65668 L 143.98107,193.54103 z"
     id="path3633"
     style="font-size:12px;fill:#ffffff;fill-opacity:1;fill-rule:evenodd;stroke:none;stroke-width:0.625;stroke-dasharray:none;stroke-dashoffset:5;stroke-opacity:1" />
  <path
     d="M 119.98107,177.54103 L 115.9815,183.062 L 120,188.57296 L 113.50896,186.4784 L 109.50513,192 L 109.49301,185.18452 L 103,183.0861 L 109.48356,180.96849 L 109.47449,174.15 L 113.49367,179.65668 L 119.98107,177.54103 z"
     id="path3639"
     style="font-size:12px;fill:#ffffff;fill-opacity:1;fill-rule:evenodd;stroke:none;stroke-width:0.625;stroke-dasharray:none;stroke-dashoffset:5;stroke-opacity:1" />
  <path
     d="M 191.98107,226.54103 L 187.9815,232.062 L 192,237.57296 L 185.50896,235.4784 L 181.50513,241 L 181.49301,234.18452 L 175,232.0861 L 181.48356,229.96849 L 181.47449,223.15 L 185.49367,228.65668 L 191.98107,226.54103 z"
     id="path3649"
     style="font-size:12px;fill:#ffffff;fill-opacity:1;fill-rule:evenodd;stroke:none;stroke-width:0.625;stroke-dasharray:none;stroke-dashoffset:5;stroke-opacity:1" />
  <path
     d="M 215.98107,243.54103 L 211.9815,249.062 L 216,254.57296 L 209.50896,252.4784 L 205.50513,258 L 205.49301,251.18452 L 199,249.0861 L 205.48356,246.96849 L 205.47449,240.15 L 209.49367,245.65668 L 215.98107,243.54103 z"
     id="path3655"
     style="font-size:12px;fill:#ffffff;fill-opacity:1;fill-rule:evenodd;stroke:none;stroke-width:0.625;stroke-dasharray:none;stroke-dashoffset:5;stroke-opacity:1" />
  <path
     d="M 377.01893,144.46603 L 381.0185,149.987 L 377,155.49796 L 383.49104,153.4034 L 387.49487,158.925 L 387.50699,152.10952 L 394,150.0111 L 387.51644,147.89349 L 387.52551,141.075 L 383.50633,146.58168 L 377.01893,144.46603 z"
     id="path3543"
     style="font-size:12px;fill:#ffffff;fill-opacity:1;fill-rule:evenodd;stroke:none;stroke-width:0.625;stroke-dasharray:none;stroke-dashoffset:5;stroke-opacity:1" />
  <path
     d="M 353.01893,161.54103 L 357.0185,167.062 L 353,172.57296 L 359.49104,170.4784 L 363.49487,176 L 363.50699,169.18452 L 370,167.0861 L 363.51644,164.96849 L 363.52551,158.15 L 359.50633,163.65668 L 353.01893,161.54103 z"
     id="path3682"
     style="font-size:12px;fill:#ffffff;fill-opacity:1;fill-rule:evenodd;stroke:none;stroke-width:0.625;stroke-dasharray:none;stroke-dashoffset:5;stroke-opacity:1" />
  <path
     d="M 281.01893,210.54103 L 285.0185,216.062 L 281,221.57296 L 287.49104,219.4784 L 291.49487,225 L 291.50699,218.18452 L 298,216.0861 L 291.51644,213.96849 L 291.52551,207.15 L 287.50633,212.65668 L 281.01893,210.54103 z"
     id="path3686"
     style="font-size:12px;fill:#ffffff;fill-opacity:1;fill-rule:evenodd;stroke:none;stroke-width:0.625;stroke-dasharray:none;stroke-dashoffset:5;stroke-opacity:1" />
  <path
     d="M 305.01893,193.54103 L 309.0185,199.062 L 305,204.57296 L 311.49104,202.4784 L 315.49487,208 L 315.50699,201.18452 L 322,199.0861 L 315.51644,196.96849 L 315.52551,190.15 L 311.50633,195.65668 L 305.01893,193.54103 z"
     id="path3688"
     style="font-size:12px;fill:#ffffff;fill-opacity:1;fill-rule:evenodd;stroke:none;stroke-width:0.625;stroke-dasharray:none;stroke-dashoffset:5;stroke-opacity:1" />
  <path
     d="M 329.01893,177.54103 L 333.0185,183.062 L 329,188.57296 L 335.49104,186.4784 L 339.49487,192 L 339.50699,185.18452 L 346,183.0861 L 339.51644,180.96849 L 339.52551,174.15 L 335.50633,179.65668 L 329.01893,177.54103 z"
     id="path3690"
     style="font-size:12px;fill:#ffffff;fill-opacity:1;fill-rule:evenodd;stroke:none;stroke-width:0.625;stroke-dasharray:none;stroke-dashoffset:5;stroke-opacity:1" />
  <path
     d="M 257.01893,226.54103 L 261.0185,232.062 L 257,237.57296 L 263.49104,235.4784 L 267.49487,241 L 267.50699,234.18452 L 274,232.0861 L 267.51644,229.96849 L 267.52551,223.15 L 263.50633,228.65668 L 257.01893,226.54103 z"
     id="path3692"
     style="font-size:12px;fill:#ffffff;fill-opacity:1;fill-rule:evenodd;stroke:none;stroke-width:0.625;stroke-dasharray:none;stroke-dashoffset:5;stroke-opacity:1" />
  <path
     d="M 233.01893,243.54103 L 237.0185,249.062 L 233,254.57296 L 239.49104,252.4784 L 243.49487,258 L 243.50699,251.18452 L 250,249.0861 L 243.51644,246.96849 L 243.52551,240.15 L 239.50633,245.65668 L 233.01893,243.54103 z"
     id="path3694"
     style="font-size:12px;fill:#ffffff;fill-opacity:1;fill-rule:evenodd;stroke:none;stroke-width:0.625;stroke-dasharray:none;stroke-dashoffset:5;stroke-opacity:1" />
  <path
     style="font-size:28px;font-style:normal;font-variant:normal;font-weight:bold;font-stretch:normal;text-align:start;line-height:125%;writing-mode:lr-tb;text-anchor:start;fill:#002868;fill-opacity:1;stroke:none;stroke-width:1px;stroke-linecap:butt;stroke-linejoin:miter;stroke-opacity:1;font-family:Helvetica LT Std;-inkscape-font-specification:Helvetica LT Std Bold"
     d="M 148.17531,156.23578 L 156.01008,156.23578 L 157.37008,160.61142 L 162.1892,160.61142 L 154.70921,139.38363 L 149.59444,139.38363 L 142.02575,160.61142 L 146.69705,160.61142 L 148.17531,156.23578 z M 152.07791,144.17318 L 152.13705,144.17318 L 154.76834,152.56969 L 149.35792,152.56969 L 152.07791,144.17318 z M 165.04714,160.61142 L 169.39322,160.61142 L 169.39322,152.30361 L 173.97582,152.30361 C 175.5557,152.29007 176.54243,152.59804 176.93603,153.22752 C 177.32961,153.85702 177.49591,154.88933 177.43495,156.32447 C 177.43616,157.39744 177.47805,158.25976 177.5606,158.91142 C 177.64312,159.56309 177.75892,160.12976 177.90799,160.61142 L 182.81581,160.61142 L 182.81581,160.04968 C 182.36246,159.91233 182.08651,159.55139 181.98798,158.96686 C 181.88941,158.38233 181.84999,157.334 181.86972,155.82186 C 181.86662,153.91245 181.63626,152.61651 181.17864,151.93404 C 180.72097,151.25159 180.05453,150.75391 179.17929,150.441 C 180.23438,150.06591 181.04373,149.42656 181.60733,148.52296 C 182.1709,147.61939 182.45546,146.57352 182.46103,145.38536 C 182.48309,144.73421 182.32395,143.94398 181.9836,143.01467 C 181.64322,142.08539 180.98914,141.25793 180.02135,140.53229 C 179.05353,139.80668 177.63952,139.4238 175.7793,139.38363 L 165.04714,139.38363 L 165.04714,160.61142 z M 169.39322,148.72622 L 169.39322,143.04971 L 174.92191,143.04971 C 176.1895,143.09531 177.03211,143.41806 177.44973,144.01797 C 177.86732,144.61791 178.05949,145.22153 178.02625,145.82883 C 178.02747,146.86794 177.74413,147.61323 177.17625,148.0647 C 176.60834,148.5162 175.74849,148.7367 174.59669,148.72622 L 169.39322,148.72622 z M 191.17287,153.42708 L 193.24243,151.29839 L 199.8059,160.61142 L 205.51197,160.61142 L 196.34677,148.07579 L 205.00937,139.38363 L 199.27373,139.38363 L 191.17287,148.01666 L 191.17287,139.38363 L 186.73809,139.38363 L 186.73809,160.61142 L 191.17287,160.61142 L 191.17287,153.42708 z M 212.27251,156.23578 L 220.10729,156.23578 L 221.46728,160.61142 L 226.2864,160.61142 L 218.80641,139.38363 L 213.69164,139.38363 L 206.12296,160.61142 L 210.79425,160.61142 L 212.27251,156.23578 z M 216.17512,144.17318 L 216.23424,144.17318 L 218.86554,152.56969 L 213.45512,152.56969 L 216.17512,144.17318 z M 242.09388,154.16621 L 242.03476,154.16621 L 233.60868,139.38363 L 228.93739,139.38363 L 228.93739,160.61142 L 233.0765,160.61142 L 233.0765,145.47405 L 233.13563,145.47405 L 241.79824,160.61142 L 246.23301,160.61142 L 246.23301,139.38363 L 242.09388,139.38363 L 242.09388,154.16621 z M 249.41616,154.07752 C 249.38477,154.9935 249.59538,155.99652 250.04798,157.0866 C 250.50058,158.17668 251.38352,159.12057 252.6968,159.91828 C 254.01007,160.71599 255.94203,161.13429 258.49267,161.17316 C 259.18233,161.20565 260.18134,161.07826 261.4897,160.791 C 262.79804,160.50375 264.00291,159.86171 265.10432,158.86489 C 266.20569,157.86807 266.79079,156.32156 266.85962,154.22534 C 266.80909,152.36336 266.24488,151.02431 265.16701,150.20818 C 264.08909,149.39206 262.80055,148.8291 261.30137,148.51927 L 256.12746,147.24796 C 255.64578,147.16852 255.16042,146.98004 254.67137,146.68253 C 254.18231,146.38504 253.91869,145.83439 253.88051,145.03058 C 253.92915,144.08389 254.33444,143.41991 255.09637,143.03862 C 255.85828,142.65737 256.68487,142.47382 257.57615,142.48797 C 259.44429,142.5619 260.63798,142.97581 261.15723,143.72971 C 261.67646,144.48363 261.93146,145.13407 261.92223,145.68101 L 266.17962,145.68101 C 266.18854,144.77728 265.95056,143.79907 265.46567,142.74639 C 264.98075,141.69374 264.13613,140.78562 262.93182,140.02201 C 261.72749,139.25845 260.05067,138.85841 257.90137,138.82189 C 255.63196,138.85878 253.90623,139.24823 252.72418,139.99026 C 251.54211,140.73233 250.74276,141.60578 250.32611,142.61061 C 249.90946,143.61548 249.71455,144.53054 249.74138,145.35579 C 249.80789,147.60953 250.50268,149.13337 251.82572,149.92731 C 253.14876,150.72126 254.70093,151.27684 256.48223,151.59404 L 258.75876,152.12622 C 259.90193,152.36521 260.82337,152.66333 261.5231,153.02056 C 262.2228,153.37782 262.5825,153.9568 262.60223,154.75752 C 262.54863,155.85513 262.07189,156.59426 261.17202,156.97491 C 260.27211,157.35556 259.27059,157.53295 258.16745,157.50708 C 256.2876,157.4381 255.05818,157.01433 254.4792,156.23578 C 253.90021,155.45723 253.63166,154.73781 253.67355,154.07752 L 249.41616,154.07752 z M 274.75285,156.23578 L 282.58762,156.23578 L 283.94762,160.61142 L 288.76674,160.61142 L 281.28675,139.38363 L 276.17197,139.38363 L 268.60329,160.61142 L 273.27459,160.61142 L 274.75285,156.23578 z M 278.65545,144.17318 L 278.71458,144.17318 L 281.34588,152.56969 L 275.93545,152.56969 L 278.65545,144.17318 z M 290.53076,154.07752 C 290.49937,154.9935 290.70998,155.99652 291.16258,157.0866 C 291.61518,158.17668 292.49812,159.12057 293.8114,159.91828 C 295.12467,160.71599 297.05663,161.13429 299.60727,161.17316 C 300.29693,161.20565 301.29594,161.07826 302.6043,160.791 C 303.91264,160.50375 305.11751,159.86171 306.21892,158.86489 C 307.32029,157.86807 307.90539,156.32156 307.97422,154.22534 C 307.92369,152.36336 307.35949,151.02431 306.28161,150.20818 C 305.20369,149.39206 303.91515,148.8291 302.41597,148.51927 L 297.24206,147.24796 C 296.76038,147.16852 296.27502,146.98004 295.78597,146.68253 C 295.29691,146.38504 295.03329,145.83439 294.99511,145.03058 C 295.04375,144.08389 295.44904,143.41991 296.21097,143.03862 C 296.97288,142.65737 297.79947,142.47382 298.69075,142.48797 C 300.55889,142.5619 301.75258,142.97581 302.27183,143.72971 C 302.79106,144.48363 303.04606,145.13407 303.03683,145.68101 L 307.29422,145.68101 C 307.30314,144.77728 307.06516,143.79907 306.58027,142.74639 C 306.09535,141.69374 305.25073,140.78562 304.04642,140.02201 C 302.84209,139.25845 301.16527,138.85841 299.01597,138.82189 C 296.74656,138.85878 295.02083,139.24823 293.83878,139.99026 C 292.65671,140.73233 291.85736,141.60578 291.44071,142.61061 C 291.02406,143.61548 290.82915,144.53054 290.85598,145.35579 C 290.92249,147.60953 291.61728,149.13337 292.94032,149.92731 C 294.26336,150.72126 295.81553,151.27684 297.59683,151.59404 L 299.87336,152.12622 C 301.01653,152.36521 301.93798,152.66333 302.6377,153.02056 C 303.3374,153.37782 303.6971,153.9568 303.71683,154.75752 C 303.66323,155.85513 303.18649,156.59426 302.28662,156.97491 C 301.38672,157.35556 300.38519,157.53295 299.28205,157.50708 C 297.4022,157.4381 296.17278,157.01433 295.5938,156.23578 C 295.01481,155.45723 294.74626,154.73781 294.78815,154.07752 L 290.53076,154.07752 z"
     id="flowRoot2413" />
  <path
     d="M 194.09622,200 L 184.13173,192.91888 L 174.15578,199.99365 L 177.96565,188.54129 L 168,181.45265 L 180.31916,181.4558 L 184.13602,170 L 187.93968,181.45432 L 200.26427,181.46291 L 190.29606,188.5389 L 194.09622,200 z"
     id="path2421"
     style="font-size:12px;fill:#002868;fill-opacity:1;fill-rule:evenodd;stroke:none;stroke-width:0.625;stroke-dasharray:none;stroke-dashoffset:5;stroke-opacity:1" />
  <path
     style="font-size:12px;fill:#002868;fill-opacity:1;fill-rule:evenodd;stroke:none;stroke-width:0.625;stroke-dasharray:none;stroke-dashoffset:5;stroke-opacity:1"
     id="path2446"
     d="M 254.90378,130 L 264.86827,122.91888 L 274.84422,129.99365 L 271.03435,118.54129 L 281,111.45265 L 268.68084,111.4558 L 264.86398,100 L 261.06032,111.45432 L 248.73573,111.46291 L 258.70394,118.5389 L 254.90378,130 z" />
  <path
     d="M 174.16805,130 L 184.13254,122.91887 L 194.10849,129.99364 L 190.29862,118.54128 L 200.26427,111.45263 L 187.94511,111.4558 L 184.12825,100 L 180.32459,111.45432 L 168,111.4629 L 177.96821,118.5389 L 174.16805,130 z"
     id="path2448"
     style="font-size:12px;fill:#002868;fill-opacity:1;fill-rule:evenodd;stroke:none;stroke-width:0.625;stroke-dasharray:none;stroke-dashoffset:5;stroke-opacity:1" />
</svg>
