<svg xmlns="http://www.w3.org/2000/svg" width="300" height="300" viewBox="0 0 300 300"><path d="M9.06 131.68a4.89 4.89 0 0 0 2.24 1.13c.41 0 1-.41 1.63-1.23l7.54-9.78c.61-.82.92-1.43.82-1.94s-.61-1.12-1.63-1.94l.3-.4 7.14 5.6-.31.41a5 5 0 0 0-2.24-1.12c-.51 0-1 .41-1.63 1.22l-7.54 9.79a2.86 2.86 0 0 0-.82 1.93 6.68 6.68 0 0 0 1.63 1.94l-.3.41-7.14-5.61zM18.11 138.76a4.12 4.12 0 0 0 2.49.72c.52-.1 1.24-.82 2.07-2.07l6.84-10.36-.1-.62a2.85 2.85 0 0 0-.52-1.35 2.76 2.76 0 0 0-1.14-.93l.31-.42 4.46 2.9 2.59 17.93 5.18-7.77c.83-1.24 1.24-2.28 1-2.9a4.14 4.14 0 0 0-1.55-1.76l.31-.42 6.11 4-.31.42c-1-.52-1.86-.83-2.38-.62s-1.24.83-2.07 2.07L33.24 150l-.41-.31-3-20.52-6.11 9c-.83 1.24-1.25 2.28-1 2.9a4.63 4.63 0 0 0 1.45 1.76l-.31.41-6.11-4zM69.56 146.77c1 .77 1.64 1.2 1.75 1.31a2 2 0 0 0 1 .22 2.86 2.86 0 0 0 .76-.44l.65.33-2.29 5.88-.65-.33a9.33 9.33 0 0 0-.65-3.81 7 7 0 0 0-3.92-3.7 8.15 8.15 0 0 0-6-.22c-2.07.65-3.7 2.51-5 5.55a8.15 8.15 0 0 0 4.14 11.33 7.87 7.87 0 0 0 1.3.43l1.53.33a3.29 3.29 0 0 0 1.52 0 .91.91 0 0 0 .55-.54l1.85-4.36c.43-1.09.54-1.74.33-2.18a4.53 4.53 0 0 0-2-1.41l.21-.55 7.73 3.27-.21.54a3.9 3.9 0 0 0-1.64-.32c-.54.11-1 .65-1.41 1.52L66.84 165c-.11.32-1.2.32-3.16.11a16.82 16.82 0 0 1-5.33-1.42 13.1 13.1 0 0 1-6.43-5.55 8.61 8.61 0 0 1-.32-8.28 9.72 9.72 0 0 1 5.4-5.37 11.42 11.42 0 0 1 9 .32 9.18 9.18 0 0 1 3.48 2zM79.64 153.23a10.68 10.68 0 0 1 7.7-.31 10.53 10.53 0 0 1 6.11 4.64 10.08 10.08 0 0 1-4.53 14.13 11 11 0 0 1-7.59.21 10.64 10.64 0 0 1-6.33-4.85 9.32 9.32 0 0 1-.74-7.7 9.49 9.49 0 0 1 5.38-6.12zm-2 14.13a6 6 0 0 0 4 3.48 6.66 6.66 0 0 0 5.27-.63c1.69-1 3-2.85 3.91-5.8s1-5.38.1-7.07A6.48 6.48 0 0 0 87 154a6.61 6.61 0 0 0-5.27.63c-1.69 1-3 3-3.9 5.8s-.93 5.14-.19 6.93zM94.86 175.63a4.93 4.93 0 0 0 2.37-.11c.44-.22.76-.86 1-1.94l2.58-12.84c.22-1.08.22-1.73-.1-2.16a4.07 4.07 0 0 0-2.16-1l.11-.54 8.63 1.73a18 18 0 0 1 7.12 2.8c3.34 2.27 4.53 5.4 3.77 9.39a9.12 9.12 0 0 1-1.83 3.88 8.23 8.23 0 0 1-3.56 2.7 10 10 0 0 1-2.81.76 18 18 0 0 1-6.14-.44L95 176.17zm6.58.54a3.05 3.05 0 0 0 1.51.54 13 13 0 0 0 6.48-.11c2.69-.86 4.42-3 5.07-6.26a8.25 8.25 0 0 0-1.73-7.33 12.32 12.32 0 0 0-6.58-3.35 4.12 4.12 0 0 0-1.51-.11c-.33.11-.43.33-.54.87l-2.91 14.67a1.12 1.12 0 0 0 .21 1.08zM137.43 163.4v.6c-.66 0-1.1.11-1.43.11a.88.88 0 0 0-.77.93.92.92 0 0 0 .11.58 7.39 7.39 0 0 1 .22.81l4.74 11.94 3.53-8.81-1.55-3.82a2.67 2.67 0 0 0-1.32-1.4 5 5 0 0 0-1.54-.23v-.58h8.93v.58c-.88 0-1.43.12-1.77.12a1.07 1.07 0 0 0-.77 1c0 .23 0 .35.11.47s.11.46.33.81l4.75 11.84 3.68-10.51a5.2 5.2 0 0 0 .44-1.62c0-.24.11-.47.11-.7a1.34 1.34 0 0 0-.88-1.27 4 4 0 0 0-1.44-.24v-.58l6.64-.05v.62a7.14 7.14 0 0 0-1.32.35c-.55.35-.51.71-.84 1.41l-3.53 9.39-1.32 3.59-2.1 5.68h-.55l-1.43-3.59-3.86-9.74-5.18 13.33h-.56l-2.42-6.49-2.76-7.42a35.7 35.7 0 0 0-2.42-5.57 2.8 2.8 0 0 0-2.1-1.15v-.58zM160.89 182a5.63 5.63 0 0 0 2.53-.84c.36-.32.49-1 .36-2.1l-1.56-12.61c-.13-1-.37-1.68-.85-1.89s-.49-.29-.49-.57l-.12-.52 17-1.64.6 4.1-1 .1a4.14 4.14 0 0 0-1.69-2.31c-.6-.31-2-.31-4.22-.1l-4.95.52c-.48 0-.84.11-1 .32s-.12.42-.12.73l.85 6.3 5.55-.52c1.57-.11 2.54-.42 2.9-.84a4.3 4.3 0 0 0 .72-2.31l.85-.11.84 6.62-.84.11a4.27 4.27 0 0 0-1.33-2.11 4.92 4.92 0 0 0-3-.21l-5.55.53.84 7a1.09 1.09 0 0 0 .85.94 22.05 22.05 0 0 0 4.1-.21 16.4 16.4 0 0 0 5.31-1.15 6.34 6.34 0 0 0 2.78-3.36l1-.11-1.09 4.94-19.55 1.89zM190.55 160.51l19.6-4.54 1.68 4.44-.84.2a5.59 5.59 0 0 0-2.51-2.42c-.72-.31-2.15-.2-4.18.3l-1.92.41 4.43 13.54c.35 1 .71 1.61 1.19 1.71a7.82 7.82 0 0 0 2.87-.2l.12.51-10.16 2.32-.12-.5a5.93 5.93 0 0 0 2.63-1.22 2.87 2.87 0 0 0-.12-2.22l-4.3-13.24-1.92.4a8.74 8.74 0 0 0-3.71 1.51 3.89 3.89 0 0 0-.72 3.14l-.83.2zM218.16 171.74c1-.52 1.77-.93 1.87-1.35s0-1.14-.42-2.28l-4.36-11.42a2.65 2.65 0 0 0-1.14-1.66 3.69 3.69 0 0 0-2.28.2l-.21-.51 8.1-3.12a17.37 17.37 0 0 1 4.46-1c2.39-.1 3.95.83 4.78 2.81a3.55 3.55 0 0 1-.31 3.53 10.5 10.5 0 0 1-3.33 2.9l8.62 4.47a5.17 5.17 0 0 0 1.46.52 4.51 4.51 0 0 0 1.55-.21l.21.52-4.67 1.76-10.38-5.4-1.25.52 2 5.19c.42.94.73 1.56 1.25 1.67a5.79 5.79 0 0 0 2.39-.32l.2.52-8.09 3.12zm6.54-13a3.54 3.54 0 0 0 1.14-4.15 3.46 3.46 0 0 0-3.32-2.39 10.09 10.09 0 0 0-3.11.63c-.83.31-1.35.52-1.46.72a1.15 1.15 0 0 0 0 .83l2.5 6.54a13 13 0 0 0 4.25-2.18zM239.09 143.5l.22.54a5.13 5.13 0 0 0-1.92 1.6 2.65 2.65 0 0 0 .43 2L242 156a6.51 6.51 0 0 0 2.24 2.88c1.49 1 3.3 1 5.43-.11 2.35-1.17 3.62-2.66 3.62-4.47a9.15 9.15 0 0 0-1.17-4.05l-3.41-6.72c-.74-1.38-1.38-2.23-1.91-2.34a3.82 3.82 0 0 0-2.46.43l-.21-.54 6.61-3.3.21.53c-1.06.64-1.7 1.28-1.81 1.82a5.48 5.48 0 0 0 .75 2.87l3.4 6.71a9.52 9.52 0 0 1 1.18 4.69c-.22 2.45-1.92 4.37-5 6s-5.65 1.7-7.67.43a8.57 8.57 0 0 1-2.88-3.41l-4-8.1a2.66 2.66 0 0 0-1.38-1.6 5 5 0 0 0-2.35.53l-.21-.53zM260.41 147.65a9.71 9.71 0 0 0 3.61 1.61 7.76 7.76 0 0 0 5.58-.75 4.54 4.54 0 0 0 2-2.15 2.81 2.81 0 0 0-.35-2.68 3.64 3.64 0 0 0-2.44-1.51 26.14 26.14 0 0 0-4.07 0l-3.49.11a10.13 10.13 0 0 1-2.68-.21 5.25 5.25 0 0 1-3-1.83 4.45 4.45 0 0 1-.58-4 6.74 6.74 0 0 1 3.14-3.54 8.33 8.33 0 0 1 2.68-1 13.23 13.23 0 0 0 1.86-.54c.35-.22.58-.43.58-.65a2.57 2.57 0 0 0-.11-.85l.58-.33 4.19 4.94-.7.43a7.25 7.25 0 0 0-4.54-1.93 8.31 8.31 0 0 0-3.84.86 3.92 3.92 0 0 0-1.74 1.82 2 2 0 0 0 .23 2.15A3.35 3.35 0 0 0 259 139a13.12 13.12 0 0 0 3.15.22l3.49-.22a16.54 16.54 0 0 1 5 .33 4.7 4.7 0 0 1 3.14 6.22 7.36 7.36 0 0 1-3.61 3.86 9.6 9.6 0 0 1-3.14 1.18 19.44 19.44 0 0 0-2 .54c-.34.22-.58.43-.58.64a1.69 1.69 0 0 0 .12.76l-.7.42-4.42-4.72zM268 127.78l14.91-11.17 3.18 3.94-.66.44a6.52 6.52 0 0 0-3.07-1.64c-.77 0-1.86.55-3.4 1.64l-1.43 1.1 9.21 12.16c.66.87 1.32 1.31 1.76 1.31a6.91 6.91 0 0 0 2.41-1.09l.33.43-7.67 5.81-.33-.44a4.94 4.94 0 0 0 1.75-2.08c.11-.44-.22-1.2-1-2.19l-9-11.94-1.53 1.1A6.84 6.84 0 0 0 271 128a5.54 5.54 0 0 0 .65 3.4l-.65.44z"/></svg>