<svg xmlns="http://www.w3.org/2000/svg" width="600" height="432" viewBox="0 0 600 432"><title>flag-alaska-dimensions</title><rect x="48.68" y="3.1" width="549.26" height="387.9" stroke-width="0.92" stroke="#50d6cc" stroke-linecap="round" stroke-linejoin="round" fill="#fff"/><polygon points="505.2 76.08 517.05 67.47 502.4 67.47 497.87 53.53 493.34 67.47 478.69 67.47 490.54 76.08 486.01 90.02 497.87 81.41 509.72 90.02 505.2 76.08" fill="#fff" stroke="#50d6cc" stroke-linecap="round" stroke-linejoin="round" stroke-width="0.92"/><polygon points="140.21 152.99 137.51 144.69 134.81 152.99 126.08 152.99 133.14 158.13 130.44 166.44 137.51 161.3 144.58 166.44 141.88 158.13 148.95 152.99 140.21 152.99" fill="#fff" stroke="#50d6cc" stroke-linecap="round" stroke-linejoin="round" stroke-width="0.92"/><polygon points="204.99 177.04 202.29 168.74 199.59 177.04 190.85 177.04 197.92 182.18 195.22 190.49 202.29 185.35 209.36 190.49 206.66 182.18 213.73 177.04 204.99 177.04" fill="#fff" stroke="#50d6cc" stroke-linecap="round" stroke-linejoin="round" stroke-width="0.92"/><polygon points="237.19 211.57 234.49 203.26 231.79 211.57 223.05 211.57 230.12 216.7 227.42 225.01 234.49 219.88 241.55 225.01 238.85 216.7 245.92 211.57 237.19 211.57" fill="#fff" stroke="#50d6cc" stroke-linecap="round" stroke-linejoin="round" stroke-width="0.92"/><polygon points="267.07 239.33 264.37 247.64 255.63 247.64 262.7 252.78 260 261.08 267.07 255.95 274.14 261.08 271.44 252.78 278.5 247.64 269.77 247.64 267.07 239.33" fill="#fff" stroke="#50d6cc" stroke-linecap="round" stroke-linejoin="round" stroke-width="0.92"/><polygon points="368.41 287.3 375.48 282.16 366.74 282.16 364.04 273.86 361.34 282.16 352.61 282.16 359.68 287.3 356.98 295.61 364.04 290.47 371.11 295.61 368.41 287.3" fill="#fff" stroke="#50d6cc" stroke-linecap="round" stroke-linejoin="round" stroke-width="0.92"/><polygon points="265.5 298.46 262.8 290.15 260.1 298.46 251.37 298.46 258.43 303.59 255.73 311.9 262.8 306.76 269.87 311.9 267.17 303.59 274.24 298.46 265.5 298.46" fill="#fff" stroke="#50d6cc" stroke-linecap="round" stroke-linejoin="round" stroke-width="0.92"/><polygon points="338.43 322.51 335.73 314.2 333.03 322.51 324.29 322.51 331.36 327.64 328.66 335.95 335.73 330.81 342.8 335.95 340.1 327.64 347.16 322.51 338.43 322.51" fill="#fff" stroke="#50d6cc" stroke-linecap="round" stroke-linejoin="round" stroke-width="0.92"/><line x1="497.66" y1="52.73" x2="500.45" y2="52.73" fill="none" stroke="#a3a3a3" stroke-linecap="round" stroke-linejoin="round"/><line x1="506.51" y1="52.73" x2="551.93" y2="52.73" fill="none" stroke="#a3a3a3" stroke-linecap="round" stroke-linejoin="round" stroke-dasharray="6.06 6.06"/><polyline points="554.96 52.73 557.75 52.73 557.75 57.41" fill="none" stroke="#a3a3a3" stroke-linecap="round" stroke-linejoin="round"/><line x1="497.66" y1="90.02" x2="500.45" y2="90.02" fill="none" stroke="#a3a3a3" stroke-linecap="round" stroke-linejoin="round"/><line x1="506.51" y1="90.02" x2="551.93" y2="90.02" fill="none" stroke="#a3a3a3" stroke-linecap="round" stroke-linejoin="round" stroke-dasharray="6.06 6.06"/><polyline points="554.96 90.02 557.75 90.02 557.75 85.34" fill="none" stroke="#a3a3a3" stroke-linecap="round" stroke-linejoin="round"/><line x1="12.01" y1="195.86" x2="12.01" y2="198.36" fill="none" stroke="#a3a3a3" stroke-linecap="round" stroke-linejoin="round"/><line x1="12.01" y1="203.23" x2="12.01" y2="386.06" fill="none" stroke="#a3a3a3" stroke-linecap="round" stroke-linejoin="round" stroke-dasharray="4.88 4.88"/><polyline points="12.01 388.5 12.01 391 14.51 391" fill="none" stroke="#a3a3a3" stroke-linecap="round" stroke-linejoin="round"/><line x1="19.33" y1="391" x2="36.21" y2="391" fill="none" stroke="#a3a3a3" stroke-linecap="round" stroke-linejoin="round" stroke-dasharray="4.82 4.82"/><line x1="38.62" y1="391" x2="41.12" y2="391" fill="none" stroke="#a3a3a3" stroke-linecap="round" stroke-linejoin="round"/><line x1="41.12" y1="3.1" x2="38.62" y2="3.1" fill="none" stroke="#a3a3a3" stroke-linecap="round" stroke-linejoin="round"/><line x1="33.8" y1="3.1" x2="16.92" y2="3.1" fill="none" stroke="#a3a3a3" stroke-linecap="round" stroke-linejoin="round" stroke-dasharray="4.82 4.82"/><polyline points="14.51 3.1 12.01 3.1 12.01 5.6" fill="none" stroke="#a3a3a3" stroke-linecap="round" stroke-linejoin="round"/><line x1="12.01" y1="10.77" x2="12.01" y2="132.23" fill="none" stroke="#a3a3a3" stroke-linecap="round" stroke-linejoin="round" stroke-dasharray="5.17 5.17"/><line x1="12.01" y1="134.81" x2="12.01" y2="137.31" fill="none" stroke="#a3a3a3" stroke-linecap="round" stroke-linejoin="round"/><line x1="356.66" y1="417.24" x2="359.16" y2="417.24" fill="none" stroke="#a3a3a3" stroke-linecap="round" stroke-linejoin="round"/><line x1="364.18" y1="417.24" x2="592.93" y2="417.24" fill="none" stroke="#a3a3a3" stroke-linecap="round" stroke-linejoin="round" stroke-dasharray="5.03 5.03"/><polyline points="595.45 417.24 597.95 417.24 597.95 414.74" fill="none" stroke="#a3a3a3" stroke-linecap="round" stroke-linejoin="round"/><line x1="597.95" y1="409.89" x2="597.95" y2="402.6" fill="none" stroke="#a3a3a3" stroke-linecap="round" stroke-linejoin="round" stroke-dasharray="4.86 4.86"/><line x1="597.95" y1="400.17" x2="597.95" y2="397.67" fill="none" stroke="#a3a3a3" stroke-linecap="round" stroke-linejoin="round"/><line x1="48.88" y1="397.67" x2="48.88" y2="400.17" fill="none" stroke="#a3a3a3" stroke-linecap="round" stroke-linejoin="round"/><line x1="48.88" y1="405.03" x2="48.88" y2="412.31" fill="none" stroke="#a3a3a3" stroke-linecap="round" stroke-linejoin="round" stroke-dasharray="4.86 4.86"/><polyline points="48.88 414.74 48.88 417.24 51.38 417.24" fill="none" stroke="#a3a3a3" stroke-linecap="round" stroke-linejoin="round"/><line x1="56.28" y1="417.24" x2="269.34" y2="417.24" fill="none" stroke="#a3a3a3" stroke-linecap="round" stroke-linejoin="round" stroke-dasharray="4.9 4.9"/><line x1="271.79" y1="417.24" x2="274.29" y2="417.24" fill="none" stroke="#a3a3a3" stroke-linecap="round" stroke-linejoin="round"/><path d="M2,170.06,4,170c.21-1,.87-5.7.92-6.76l-1.75,0,0,0,.16-.55,3.26-.53.07,0c-.5,3-.92,6.42-1.1,7.77l1.89.09.09.53v0H1.94Z" fill="#727272"/><path d="M9.09,169.93c0-.79.28-1.13,1.11-1.13.5,0,.78.19.78.64s-.18,1.29-1.17,1.29C9.32,170.73,9.09,170.46,9.09,169.93Z" fill="#727272"/><path d="M13.23,167.72l.25-1.77a3.88,3.88,0,0,1,2-2.93,4.23,4.23,0,0,1,2.26-.75c2,0,2.85,1,2.55,3.08L20,167.12a4,4,0,0,1-2,2.94,4.25,4.25,0,0,1-2.25.72C13.78,170.78,12.93,169.84,13.23,167.72Zm5.27.09.3-2.18c.25-1.78-.3-2.44-1.88-2.44-1.23,0-1.73.52-1.94,2.06l-.3,2.19c-.25,1.77.32,2.42,1.89,2.42C17.81,169.86,18.29,169.33,18.5,167.81Z" fill="#727272"/><path d="M21.93,167.72l.25-1.77a3.88,3.88,0,0,1,2-2.93,4.27,4.27,0,0,1,2.27-.75c2,0,2.84,1,2.54,3.08l-.25,1.77a3.94,3.94,0,0,1-2,2.94,4.22,4.22,0,0,1-2.24.72C22.48,170.78,21.63,169.84,21.93,167.72Zm5.27.09.3-2.18c.25-1.78-.3-2.44-1.87-2.44-1.24,0-1.74.52-1.95,2.06l-.3,2.19c-.25,1.77.32,2.42,1.89,2.42C26.51,169.86,27,169.33,27.2,167.81Z" fill="#727272"/><path d="M299.8,421.77l1.92-.09c.22-1,.87-5.69.92-6.76l-1.75.06,0,0,.16-.55,3.25-.53.07.06c-.49,3-.92,6.42-1.1,7.76l1.9.09.09.53v.05h-5.52Z" fill="#727272"/><path d="M306.85,421.64c0-.79.29-1.13,1.12-1.13.49,0,.78.2.78.64s-.18,1.29-1.17,1.29C307.08,422.44,306.85,422.17,306.85,421.64Z" fill="#727272"/><path d="M314.23,426.44l-.42-.36c.4-.6.56-.79.81-2.6l.16-1.15H313.4c-1.06,0-2.25,0-2.92,0l0,0-.27-1.18,0,0,5.41-6.78,0,0,1.69-.49.06,0c-.16.89-.32,1.91-.45,2.82l-.62,4.44h.38a1.49,1.49,0,0,0,1.18-.34l.23.16-.74,1.47h0l-1.18-.07-.23,1.63c-.13.9-.11,1-.52,1.43A12.42,12.42,0,0,1,314.23,426.44Zm.72-5.34.48-3.45c.13-.89.23-1.84.3-2.48-2.81,3.57-4,5.13-4.42,5.86.66,0,1.38.07,2.16.07Z" fill="#727272"/><path d="M319.2,421.77l1.93-.09c.21-1,.87-5.69.92-6.76l-1.75.06,0,0,.16-.55,3.26-.53.07.06c-.5,3-.92,6.42-1.1,7.76l1.89.09.09.53v.05h-5.52Z" fill="#727272"/><path d="M328.91,422.49c-1.8,0-2.77-1-2.47-3.25l.19-1.45a8.26,8.26,0,0,1,2.07-5,5.72,5.72,0,0,1,3.43-2.13l.05,0,.13.78c.05.33,0,.41-.28.49-1,.34-2.07.25-2.82,1.12-.42.49-.62.86-.93,3a3.48,3.48,0,0,1,2.54-1,2.11,2.11,0,0,1,2.27,2.6l-.16,1.16a3.59,3.59,0,0,1-1.77,2.87A4.25,4.25,0,0,1,328.91,422.49Zm.78-.92c1.24,0,1.54-.49,1.75-1.94l.2-1.38c.23-1.59-.32-2.16-1.56-2.16a2.21,2.21,0,0,0-1.93.87l-.28,2C327.62,420.72,328.29,421.57,329.69,421.57Z" fill="#727272"/><path d="M548.37,74.7c0-.54.19-.77.75-.77.34,0,.53.14.53.44s-.12.87-.79.87C548.52,75.24,548.37,75.06,548.37,74.7Z" fill="#727272"/><path d="M550.85,74.79l1.31-.07c.14-.69.59-3.86.62-4.58l-1.19,0,0,0,.11-.38,2.21-.36,0,0c-.33,2-.62,4.35-.74,5.26l1.28.07.06.35v0h-3.74Z" fill="#727272"/><path d="M555.74,73.2l.16-1.2a2.66,2.66,0,0,1,1.33-2,3,3,0,0,1,1.54-.5c1.35,0,1.93.65,1.73,2.08l-.17,1.2a2.73,2.73,0,0,1-1.33,2,3,3,0,0,1-1.53.49C556.11,75.28,555.53,74.64,555.74,73.2Zm3.57.06.2-1.47c.17-1.21-.2-1.66-1.27-1.66-.84,0-1.17.35-1.32,1.39l-.2,1.49c-.17,1.2.21,1.64,1.28,1.64C558.84,74.65,559.16,74.29,559.31,73.26Z" fill="#727272"/><path d="M563.71,78l-.28-.24A3.13,3.13,0,0,0,564,76l.11-.78h-.94l-2,0,0,0-.18-.8v0l3.67-4.59,0,0,1.15-.33,0,0c-.11.6-.22,1.3-.3,1.91l-.42,3h.25a1,1,0,0,0,.81-.23l.15.11-.5,1h0c-.25,0-.51,0-.8,0l-.15,1.1c-.09.61-.08.7-.35,1A8.63,8.63,0,0,1,563.71,78Zm.49-3.62.33-2.34c.08-.6.16-1.25.2-1.68-1.9,2.42-2.68,3.48-3,4,.45,0,.94,0,1.47,0Z" fill="#727272"/><line x1="364.02" y1="272.85" x2="366.82" y2="272.85" fill="none" stroke="#a3a3a3" stroke-linecap="round" stroke-linejoin="round"/><line x1="372.54" y1="272.85" x2="415.46" y2="272.85" fill="none" stroke="#a3a3a3" stroke-linecap="round" stroke-linejoin="round" stroke-dasharray="5.72 5.72"/><line x1="418.32" y1="272.85" x2="421.12" y2="272.85" fill="none" stroke="#a3a3a3" stroke-linecap="round" stroke-linejoin="round"/><line x1="364.02" y1="295.61" x2="366.82" y2="295.61" fill="none" stroke="#a3a3a3" stroke-linecap="round" stroke-linejoin="round"/><line x1="372.54" y1="295.61" x2="415.46" y2="295.61" fill="none" stroke="#a3a3a3" stroke-linecap="round" stroke-linejoin="round" stroke-dasharray="5.72 5.72"/><line x1="418.32" y1="295.61" x2="421.12" y2="295.61" fill="none" stroke="#a3a3a3" stroke-linecap="round" stroke-linejoin="round"/><path d="M411.54,288.24c0-.54.19-.77.76-.77.33,0,.52.14.52.44s-.12.87-.79.87C411.7,288.78,411.54,288.6,411.54,288.24Z" fill="#727272"/><path d="M414.35,286.74l.17-1.2a2.61,2.61,0,0,1,1.33-2,2.9,2.9,0,0,1,1.53-.5c1.36,0,1.93.65,1.73,2.09l-.17,1.19a2.7,2.7,0,0,1-1.33,2,2.85,2.85,0,0,1-1.52.49C414.72,288.82,414.14,288.18,414.35,286.74Zm3.57.06.21-1.47c.16-1.21-.21-1.66-1.27-1.66-.84,0-1.18.35-1.32,1.39l-.21,1.49c-.17,1.2.22,1.64,1.29,1.64C417.46,288.19,417.78,287.83,417.92,286.8Z" fill="#727272"/><path d="M422,288.82c-1.22,0-1.88-.7-1.67-2.21l.13-1a5.61,5.61,0,0,1,1.4-3.36,3.85,3.85,0,0,1,2.33-1.44l0,0,.09.53c0,.23,0,.28-.19.34-.65.23-1.41.17-1.91.75-.29.34-.42.59-.64,2a2.37,2.37,0,0,1,1.73-.67,1.44,1.44,0,0,1,1.54,1.76l-.11.79a2.45,2.45,0,0,1-1.2,1.95A2.86,2.86,0,0,1,422,288.82Zm.53-.63c.84,0,1-.33,1.19-1.32l.13-.93c.16-1.08-.21-1.46-1.05-1.46a1.48,1.48,0,0,0-1.31.58l-.19,1.36C421.14,287.62,421.59,288.19,422.54,288.19Z" fill="#727272"/><path d="M429.39,288.72h-4.17l0-.05.19-.75v0c.72-.49,1.42-1,2.21-1.63s1-.91,1-1.32v-.08c.09-.61-.35-1-1.05-1a2.29,2.29,0,0,0-1.48.44l-.13-.11.49-.89,0,0a3.37,3.37,0,0,1,1.34-.23c1.25,0,1.91.63,1.77,1.52v.09c-.07.54-.44.92-1.77,1.95a15.59,15.59,0,0,0-1.49,1.3h2.07a1.76,1.76,0,0,0,1.37-.39l.13.09-.51,1.1Z" fill="#727272"/><polyline points="103.97 156.82 137.51 156.82 137.51 345.39" fill="none" stroke="#a3a3a3" stroke-linecap="round" stroke-linejoin="round" stroke-dasharray="5 5"/><line x1="48.91" y1="156.82" x2="73.33" y2="156.82" fill="none" stroke="#a3a3a3" stroke-linecap="round" stroke-linejoin="round" stroke-dasharray="5 5"/><line x1="137.51" y1="369.23" x2="137.51" y2="391" fill="none" stroke="#a3a3a3" stroke-linecap="round" stroke-linejoin="round" stroke-dasharray="5 5"/><path d="M128,359.62c0-.54.19-.77.75-.77.34,0,.53.13.53.43s-.12.87-.79.87C128.16,360.15,128,360,128,359.62Z" fill="#727272"/><path d="M132.34,360.19c-1.22,0-1.88-.69-1.68-2.21l.13-1a5.58,5.58,0,0,1,1.41-3.36,3.85,3.85,0,0,1,2.32-1.44l0,0,.08.52c0,.23,0,.28-.19.34-.65.23-1.4.17-1.91.76-.29.33-.42.58-.63,2a2.39,2.39,0,0,1,1.72-.67,1.44,1.44,0,0,1,1.54,1.76l-.11.8a2.42,2.42,0,0,1-1.2,1.94A2.85,2.85,0,0,1,132.34,360.19Zm.53-.62c.84,0,1-.34,1.18-1.32l.14-.94c.15-1.08-.22-1.46-1.06-1.46a1.5,1.5,0,0,0-1.31.59l-.19,1.35C131.46,359,131.92,359.57,132.87,359.57Z" fill="#727272"/><path d="M136.3,358.12l.17-1.2a2.59,2.59,0,0,1,1.33-2,2.91,2.91,0,0,1,1.53-.51c1.36,0,1.93.65,1.73,2.09l-.17,1.2a2.67,2.67,0,0,1-1.33,2,2.85,2.85,0,0,1-1.52.49C136.67,360.19,136.1,359.55,136.3,358.12Zm3.57.06.21-1.48c.16-1.21-.21-1.65-1.27-1.65-.84,0-1.18.34-1.32,1.39l-.21,1.48c-.16,1.2.22,1.65,1.29,1.65C139.41,359.57,139.73,359.21,139.87,358.18Z" fill="#727272"/><path d="M144.28,362.87l-.29-.25c.28-.4.38-.53.55-1.76l.11-.78h-.94c-.72,0-1.52,0-2,0l0,0-.18-.8v0l3.67-4.59h0l1.15-.34,0,0c-.1.6-.21,1.29-.3,1.9l-.42,3H146a1,1,0,0,0,.8-.22l.16.1-.51,1h0l-.81-.05-.15,1.11c-.08.61-.07.69-.35,1A9.92,9.92,0,0,1,144.28,362.87Zm.49-3.63.32-2.34c.09-.6.16-1.24.21-1.67-1.91,2.42-2.69,3.47-3,4,.44,0,.93,0,1.46,0Z" fill="#727272"/><path d="M79.61,158.87c0-.54.19-.77.75-.77.34,0,.53.13.53.43s-.12.88-.79.88C79.76,159.41,79.61,159.23,79.61,158.87Z" fill="#727272"/><path d="M86.07,159.35H81.9l0,0,.19-.76v0c.72-.49,1.41-1,2.21-1.63s1-.91,1-1.32v-.09c.09-.61-.35-1-1-1a2.27,2.27,0,0,0-1.48.43l-.13-.11.49-.88,0,0a3.57,3.57,0,0,1,1.35-.23c1.24,0,1.9.64,1.77,1.53v.08c-.07.54-.44.92-1.77,2A15.5,15.5,0,0,0,83,158.53h2.07c.87,0,1.19-.2,1.37-.38l.13.08-.51,1.1Z" fill="#727272"/><path d="M91.18,159.35H87l0,0,.19-.76v0c.72-.49,1.42-1,2.21-1.63s1-.91,1-1.32v-.09c.09-.61-.34-1-1-1a2.29,2.29,0,0,0-1.48.43l-.13-.11.49-.88,0,0a3.55,3.55,0,0,1,1.34-.23c1.25,0,1.91.64,1.78,1.53l0,.08c-.07.54-.44.92-1.77,2a15.5,15.5,0,0,0-1.49,1.29h2.08c.86,0,1.18-.2,1.36-.38l.13.08-.51,1.1Z" fill="#727272"/><path d="M93.09,161.79h-.86v0l.23-.52c.13-.3.24-.37.43-.37l1.05,0a1.64,1.64,0,0,0,1.14-.28c.33-.24.52-.54.65-1.57l.14-1.08a2.23,2.23,0,0,1-1.75.85,1.42,1.42,0,0,1-1.51-1.77l.12-.89a2.66,2.66,0,0,1,1.33-2,3,3,0,0,1,1.54-.51c1.21,0,1.74.77,1.56,2.09l-.34,2.39A4,4,0,0,1,95.29,161,2.92,2.92,0,0,1,93.09,161.79ZM96,156.84l.13-.91c.16-1.07-.19-1.63-1.1-1.63s-1.19.35-1.33,1.39l-.14,1c-.16,1.1.21,1.47,1,1.47A1.44,1.44,0,0,0,96,156.84Z" fill="#727272"/><polyline points="103.97 180.31 202.29 180.31 202.29 345.39" fill="none" stroke="#a3a3a3" stroke-linecap="round" stroke-linejoin="round" stroke-dasharray="5 5"/><line x1="48.91" y1="180.31" x2="73.33" y2="180.31" fill="none" stroke="#a3a3a3" stroke-linecap="round" stroke-linejoin="round" stroke-dasharray="5 5"/><path d="M79.45,180.74c0-.54.19-.76.76-.76.33,0,.52.13.52.43s-.12.87-.79.87C79.61,181.28,79.45,181.1,79.45,180.74Z" fill="#727272"/><path d="M81.91,183.67H81v0l.23-.52c.14-.31.21-.4.37-.4s.86,0,1.43,0a1.41,1.41,0,0,0,1-.31,1.31,1.31,0,0,0,.6-1.06l0-.26c.13-.94-.44-1.31-1.31-1.31a5.6,5.6,0,0,0-.84.07l-.1-.1.35-.72v0c1.54-.09,2-.73,2.15-1.44l0-.15c.11-.71-.3-1.1-1.12-1.1a1.93,1.93,0,0,0-1.36.43l-.13-.11.49-.89,0,0a2.68,2.68,0,0,1,1.26-.23c1.48,0,2,.72,1.85,1.73l0,.15c-.15.94-.63,1.14-1.69,1.68,1.17.18,1.52.91,1.41,1.69l0,.27c-.09.72-.68,1.18-1.39,1.7A3.43,3.43,0,0,1,81.91,183.67Z" fill="#727272"/><path d="M87.53,183.67h-.87v0l.23-.52c.13-.3.24-.37.43-.37l1.06,0a1.71,1.71,0,0,0,1.14-.27c.32-.24.51-.54.64-1.58l.15-1.07a2.29,2.29,0,0,1-1.75.85A1.43,1.43,0,0,1,87,178.93l.12-.89a2.65,2.65,0,0,1,1.34-2,2.9,2.9,0,0,1,1.53-.5c1.21,0,1.74.77,1.56,2.09L91.24,180a4,4,0,0,1-1.52,2.82A2.87,2.87,0,0,1,87.53,183.67Zm2.93-4.95.14-.92c.15-1.06-.2-1.63-1.11-1.63s-1.18.35-1.33,1.39l-.14,1c-.16,1.11.21,1.48,1,1.48A1.44,1.44,0,0,0,90.46,178.72Z" fill="#727272"/><path d="M94.58,181.32c-1.22,0-1.88-.7-1.68-2.21l.13-1a5.64,5.64,0,0,1,1.41-3.36,3.87,3.87,0,0,1,2.32-1.44l0,0,.08.52c0,.23,0,.28-.19.34-.65.23-1.4.17-1.9.75-.29.34-.42.59-.64,2a2.37,2.37,0,0,1,1.73-.67,1.43,1.43,0,0,1,1.53,1.76l-.11.79a2.43,2.43,0,0,1-1.2,2A2.85,2.85,0,0,1,94.58,181.32Zm.53-.62c.84,0,1-.34,1.19-1.32l.13-.94c.15-1.08-.22-1.46-1.06-1.46a1.5,1.5,0,0,0-1.3.58l-.2,1.36C93.71,180.12,94.16,180.7,95.11,180.7Z" fill="#727272"/><line x1="202.29" y1="369.23" x2="202.29" y2="391" fill="none" stroke="#a3a3a3" stroke-linecap="round" stroke-linejoin="round" stroke-dasharray="5 5"/><path d="M193.49,359.58c0-.54.19-.77.75-.77.34,0,.53.14.53.44s-.12.87-.79.87C193.64,360.12,193.49,359.94,193.49,359.58Z" fill="#727272"/><path d="M195.91,362.51h-.81l0,0,.23-.51c.15-.33.22-.4.37-.4s.78,0,1.3,0a1.44,1.44,0,0,0,1-.3,1.65,1.65,0,0,0,.73-1.24l0-.35c.17-1.17-.74-1.4-2.58-1.56v0l.91-3.6,0,0h2.34a1,1,0,0,0,.8-.22l.16.1-.53,1,0,0c-.33,0-.64,0-1.24,0h-1.25l-.49,1.94c2,.23,3.07.58,2.85,2.12l0,.27a3.12,3.12,0,0,1-1.52,1.92A3.41,3.41,0,0,1,195.91,362.51Z" fill="#727272"/><path d="M203.12,362.83l-.29-.24a3,3,0,0,0,.56-1.76l.1-.78h-.93l-2,0,0,0-.18-.8v0l3.67-4.59,0,0,1.15-.33,0,0c-.11.6-.22,1.3-.3,1.91l-.42,3h.25c.46,0,.64-.07.8-.23l.16.11-.5,1,0,0c-.25,0-.51,0-.8-.05l-.16,1.1c-.08.61-.07.7-.34,1A8.63,8.63,0,0,1,203.12,362.83Zm.49-3.62.33-2.34c.08-.6.15-1.25.2-1.68-1.91,2.42-2.68,3.48-3,4,.45,0,.94,0,1.47,0Z" fill="#727272"/><path d="M210.48,360.06H206.3l0-.05.19-.75v0c.72-.49,1.42-1,2.21-1.63s1-.91,1-1.32l0-.08c.08-.61-.35-1-1.06-1a2.3,2.3,0,0,0-1.47.43l-.14-.1.5-.89,0,0a3.37,3.37,0,0,1,1.34-.23c1.25,0,1.91.63,1.78,1.52V356c-.08.53-.45.92-1.78,1.95a15.59,15.59,0,0,0-1.49,1.3h2.08a1.77,1.77,0,0,0,1.37-.39l.13.09-.52,1.1Z" fill="#727272"/><polyline points="103.97 215.54 234.49 215.54 234.49 345.39" fill="none" stroke="#a3a3a3" stroke-linecap="round" stroke-linejoin="round" stroke-dasharray="5 5"/><line x1="48.91" y1="215.54" x2="73.33" y2="215.54" fill="none" stroke="#a3a3a3" stroke-linecap="round" stroke-linejoin="round" stroke-dasharray="5 5"/><path d="M79.53,216c0-.54.2-.77.76-.77.34,0,.53.13.53.43s-.12.88-.79.88C79.69,216.51,79.53,216.33,79.53,216Z" fill="#727272"/><path d="M84.54,219.22l-.29-.24c.28-.41.38-.54.55-1.76l.11-.78H84l-2,0,0,0-.18-.81v0l3.67-4.6h0l1.15-.33,0,0c-.1.6-.21,1.3-.3,1.91l-.42,3h.26a1,1,0,0,0,.8-.23l.16.11-.51,1h0l-.81,0-.15,1.1c-.09.61-.07.7-.35,1A8.24,8.24,0,0,1,84.54,219.22ZM85,215.6l.32-2.34c.09-.6.16-1.25.21-1.68-1.91,2.42-2.69,3.48-3,4,.44,0,.93,0,1.46,0Z" fill="#727272"/><path d="M88.08,219.23h0l-.64-.61v0c1.51-1.44,2.41-3.13,4-6.84H89a1,1,0,0,0-.82.26l-.16-.1.55-1.06h0c.33,0,.64,0,1.24,0h.65a17.16,17.16,0,0,0,1.75-.06l.1.12C89.93,216.27,89.34,217.74,88.08,219.23Z" fill="#727272"/><path d="M93.17,218.89H92.3v0l.23-.51c.13-.3.24-.38.43-.38L94,218a1.65,1.65,0,0,0,1.14-.28c.32-.24.51-.54.64-1.57l.15-1.08a2.23,2.23,0,0,1-1.75.85,1.41,1.41,0,0,1-1.51-1.77l.12-.89a2.61,2.61,0,0,1,1.33-2,2.9,2.9,0,0,1,1.53-.5c1.21,0,1.74.76,1.56,2.08l-.33,2.39a4,4,0,0,1-1.53,2.82A2.9,2.9,0,0,1,93.17,218.89Zm2.93-4.95.14-.91c.15-1.07-.19-1.63-1.11-1.63s-1.18.35-1.33,1.39l-.14,1c-.16,1.1.21,1.48,1,1.48A1.43,1.43,0,0,0,96.1,213.94Z" fill="#727272"/><line x1="234.49" y1="369.23" x2="234.49" y2="391" fill="none" stroke="#a3a3a3" stroke-linecap="round" stroke-linejoin="round" stroke-dasharray="5 5"/><path d="M225.83,359.58c0-.54.2-.77.76-.77.34,0,.53.14.53.44s-.12.87-.79.87C226,360.12,225.83,359.94,225.83,359.58Z" fill="#727272"/><path d="M230.84,362.83l-.29-.24a3.13,3.13,0,0,0,.55-1.76l.11-.78h-.94l-2,0,0,0-.18-.8v0l3.67-4.59,0,0,1.15-.33,0,0c-.1.6-.21,1.3-.3,1.91l-.42,3h.25a1,1,0,0,0,.81-.23l.15.11-.5,1,0,0c-.26,0-.52,0-.81-.05l-.15,1.1c-.09.61-.07.7-.35,1A7.06,7.06,0,0,1,230.84,362.83Zm.49-3.62.32-2.34c.09-.6.16-1.25.21-1.68-1.91,2.42-2.69,3.48-3,4,.44,0,.93,0,1.46,0Z" fill="#727272"/><path d="M234.21,362.51h-.82v0l.23-.51c.14-.33.22-.4.37-.4s.78,0,1.3,0a1.46,1.46,0,0,0,1-.3,1.65,1.65,0,0,0,.73-1.24l.05-.35c.17-1.17-.75-1.4-2.58-1.56v0l.91-3.6,0,0h2.34a1.06,1.06,0,0,0,.81-.22l.15.1-.53,1,0,0c-.33,0-.65,0-1.25,0h-1.24l-.5,1.94c2,.23,3.08.58,2.86,2.12l0,.27a3.1,3.1,0,0,1-1.51,1.92A3.45,3.45,0,0,1,234.21,362.51Z" fill="#727272"/><path d="M239,362.51h-.95v0l.23-.51c.14-.31.21-.4.37-.4s.86,0,1.42,0a1.44,1.44,0,0,0,1-.31,1.34,1.34,0,0,0,.6-1.06l0-.26c.13-.94-.43-1.31-1.31-1.31a4.61,4.61,0,0,0-.84.07l-.09-.11.35-.72h0c1.53-.09,2-.73,2.15-1.44l0-.15c.11-.71-.3-1.11-1.13-1.11a2,2,0,0,0-1.35.43l-.14-.1.5-.89,0,0a2.56,2.56,0,0,1,1.26-.23c1.47,0,2,.72,1.85,1.72l0,.16c-.14.94-.62,1.14-1.69,1.68,1.18.18,1.53.91,1.42,1.69l0,.26c-.09.72-.68,1.19-1.39,1.71A3.45,3.45,0,0,1,239,362.51Z" fill="#727272"/><polyline points="103.97 251.11 267.07 251.11 267.07 357.91" fill="none" stroke="#a3a3a3" stroke-linecap="round" stroke-linejoin="round"/><line x1="48.91" y1="251.11" x2="73.33" y2="251.11" fill="none" stroke="#a3a3a3" stroke-linecap="round" stroke-linejoin="round"/><path d="M80,251.54c0-.54.19-.77.75-.77.34,0,.53.13.53.43s-.12.88-.79.88C80.19,252.08,80,251.9,80,251.54Z" fill="#727272"/><path d="M82.46,254.47h-.81v0l.22-.51c.15-.33.22-.4.37-.4l1.3,0a1.39,1.39,0,0,0,1-.3,1.59,1.59,0,0,0,.73-1.23l0-.35c.17-1.17-.74-1.4-2.58-1.56v0l.91-3.6,0,0H86a1,1,0,0,0,.8-.23l.16.11-.53,1h0c-.34,0-.65,0-1.25,0H83.89l-.49,1.94c2,.23,3.07.58,2.85,2.12l0,.27a3.16,3.16,0,0,1-1.51,1.92A3.5,3.5,0,0,1,82.46,254.47Z" fill="#727272"/><path d="M89.3,252.11c-1.22,0-1.88-.69-1.68-2.2l.13-1a5.61,5.61,0,0,1,1.41-3.35,3.83,3.83,0,0,1,2.32-1.44l0,0,.08.53c0,.23,0,.27-.19.34-.65.22-1.4.16-1.9.75-.29.34-.42.59-.64,2a2.37,2.37,0,0,1,1.73-.67,1.43,1.43,0,0,1,1.53,1.76l-.11.79a2.4,2.4,0,0,1-1.2,1.94A2.85,2.85,0,0,1,89.3,252.11Zm.53-.62c.84,0,1-.33,1.19-1.32l.13-.93c.15-1.08-.22-1.47-1.06-1.47a1.48,1.48,0,0,0-1.3.59l-.2,1.36C88.43,250.92,88.88,251.49,89.83,251.49Z" fill="#727272"/><path d="M92.79,254.47h-.94v0l.22-.51c.15-.32.22-.4.37-.4s.87,0,1.43,0a1.37,1.37,0,0,0,1-.32,1.25,1.25,0,0,0,.6-1.05l0-.26c.13-.94-.43-1.31-1.31-1.31a4.61,4.61,0,0,0-.84.07l-.09-.11.34-.72h0c1.53-.1,2-.73,2.14-1.44l0-.15c.1-.71-.3-1.11-1.13-1.11a2,2,0,0,0-1.36.43l-.13-.1.49-.89,0,0a2.68,2.68,0,0,1,1.26-.22c1.47,0,2,.72,1.84,1.72l0,.16c-.14.93-.62,1.14-1.69,1.68,1.17.18,1.52.91,1.41,1.69l0,.26c-.1.72-.69,1.19-1.39,1.71A3.5,3.5,0,0,1,92.79,254.47Z" fill="#727272"/><line x1="267.07" y1="376.14" x2="267.07" y2="391" fill="none" stroke="#a3a3a3" stroke-linecap="round" stroke-linejoin="round"/><path d="M266.86,366.49c0-.54.19-.77.75-.77.34,0,.53.13.53.43s-.12.88-.79.88C267,367,266.86,366.85,266.86,366.49Z" fill="#727272"/><path d="M269.32,369.41h-.95v0l.22-.52c.15-.31.22-.39.38-.39s.86,0,1.42,0a1.39,1.39,0,0,0,1-.31,1.27,1.27,0,0,0,.59-1.05l0-.27c.13-.93-.43-1.3-1.31-1.3a4.61,4.61,0,0,0-.84.07l-.09-.11.35-.72h0c1.53-.1,2-.73,2.14-1.44l0-.16c.11-.7-.3-1.1-1.13-1.1a1.92,1.92,0,0,0-1.35.43l-.14-.11.5-.88,0,0a2.68,2.68,0,0,1,1.26-.23c1.47,0,2,.72,1.85,1.73l0,.16c-.14.93-.62,1.14-1.69,1.68,1.18.18,1.52.91,1.42,1.69l0,.26c-.1.72-.68,1.19-1.39,1.7A3.45,3.45,0,0,1,269.32,369.41Z" fill="#727272"/><path d="M276.24,367.06c-1.22,0-1.88-.69-1.68-2.2l.13-1a5.52,5.52,0,0,1,1.41-3.35,3.8,3.8,0,0,1,2.32-1.44l0,0,.08.53c0,.22,0,.27-.19.33-.65.23-1.4.17-1.91.76-.28.33-.42.59-.63,2a2.36,2.36,0,0,1,1.72-.68,1.44,1.44,0,0,1,1.54,1.77l-.11.79a2.42,2.42,0,0,1-1.2,1.94A2.85,2.85,0,0,1,276.24,367.06Zm.53-.62c.84,0,1-.34,1.18-1.32l.14-.93c.15-1.09-.22-1.47-1.06-1.47a1.5,1.5,0,0,0-1.31.59l-.19,1.35C275.36,365.86,275.82,366.44,276.77,366.44Z" fill="#727272"/><path d="M280.2,365l.17-1.2a2.63,2.63,0,0,1,1.33-2,2.91,2.91,0,0,1,1.53-.51c1.36,0,1.93.65,1.73,2.09l-.17,1.2a2.64,2.64,0,0,1-1.33,2,2.85,2.85,0,0,1-1.52.49C280.57,367.06,280,366.43,280.2,365Zm3.57.06.21-1.48c.17-1.21-.21-1.65-1.27-1.65-.84,0-1.18.35-1.32,1.39l-.21,1.49c-.16,1.2.22,1.64,1.29,1.64C283.31,366.44,283.63,366.08,283.77,365.05Z" fill="#727272"/><polyline points="103.97 284.73 364.71 284.73 364.71 345.39" fill="none" stroke="#a3a3a3" stroke-linecap="round" stroke-linejoin="round" stroke-dasharray="5 5"/><line x1="48.91" y1="284.73" x2="73.33" y2="284.73" fill="none" stroke="#a3a3a3" stroke-linecap="round" stroke-linejoin="round" stroke-dasharray="5 5"/><path d="M80.25,285.16c0-.54.19-.77.75-.77.34,0,.53.14.53.44s-.12.87-.79.87C80.4,285.7,80.25,285.52,80.25,285.16Z" fill="#727272"/><path d="M84.59,285.74c-1.2,0-1.87-.63-1.7-1.83l0-.16c.16-1.1.67-1.32,1.6-2l-.1-.05a1.51,1.51,0,0,1-.85-1.7l0-.17a2.26,2.26,0,0,1,1.16-1.66,2.43,2.43,0,0,1,1.45-.46c1.2,0,1.72.62,1.56,1.82l0,.17c-.14,1-.57,1.24-1.51,1.87l.23.13a1.57,1.57,0,0,1,.85,1.71l0,.16a2.25,2.25,0,0,1-1.17,1.67A2.44,2.44,0,0,1,84.59,285.74Zm.49-.59c.85,0,1.17-.35,1.27-1.18l0-.26a1.07,1.07,0,0,0-.63-1.21L84.9,282a1.61,1.61,0,0,0-1.08,1.43l0,.26C83.66,284.67,84.16,285.15,85.08,285.15Zm.72-3.77a1.49,1.49,0,0,0,1-1.34l0-.26c.13-1-.24-1.44-1.15-1.44s-1.08.33-1.2,1.17l0,.27A1.06,1.06,0,0,0,85.1,281Z" fill="#727272"/><path d="M88,285.25l1.31-.07c.14-.69.58-3.86.62-4.58l-1.19,0,0,0,.11-.38,2.2-.36,0,0c-.34,2-.62,4.35-.74,5.26l1.28.07.06.35v0H87.93Z" fill="#727272"/><path d="M92.58,288.09h-.94v0l.22-.51c.15-.31.22-.4.37-.4s.87,0,1.43,0a1.41,1.41,0,0,0,1-.31,1.29,1.29,0,0,0,.6-1.06l0-.26c.13-.94-.43-1.31-1.31-1.31a4.61,4.61,0,0,0-.84.07l-.09-.11.34-.72h0c1.53-.09,2-.73,2.14-1.44l0-.15c.1-.71-.3-1.11-1.13-1.11a2,2,0,0,0-1.36.43l-.13-.1.49-.89,0,0a2.53,2.53,0,0,1,1.26-.23c1.47,0,2,.72,1.84,1.72l0,.16c-.14.94-.62,1.14-1.69,1.68,1.17.18,1.52.91,1.41,1.69l0,.26c-.1.72-.69,1.19-1.39,1.71A3.45,3.45,0,0,1,92.58,288.09Z" fill="#727272"/><line x1="364.71" y1="369.23" x2="364.71" y2="391" fill="none" stroke="#a3a3a3" stroke-linecap="round" stroke-linejoin="round" stroke-dasharray="5 5"/><path d="M356.68,359.58c0-.54.2-.77.76-.77.33,0,.53.14.53.44s-.12.87-.79.87C356.84,360.12,356.68,359.94,356.68,359.58Z" fill="#727272"/><path d="M363.15,360.06H359l0-.05.19-.75,0,0c.71-.49,1.41-1,2.2-1.63s1-.91,1.05-1.32v-.08c.08-.61-.35-1-1.06-1a2.3,2.3,0,0,0-1.47.43l-.13-.1.49-.89,0,0a3.37,3.37,0,0,1,1.34-.23c1.25,0,1.91.63,1.78,1.52V356c-.08.53-.45.92-1.78,1.95a15.59,15.59,0,0,0-1.49,1.3h2.08a1.77,1.77,0,0,0,1.37-.39l.13.09-.52,1.1Z" fill="#727272"/><path d="M364.45,362.84h0l-.64-.61v0c1.51-1.44,2.41-3.13,4-6.84h-2.5a1,1,0,0,0-.83.26l-.15-.1.55-1.06h0c.34,0,.65,0,1.25,0h.65c.77,0,1.24,0,1.75-.06l.1.12C366.29,359.88,365.71,361.36,364.45,362.84Z" fill="#727272"/><path d="M368.81,359.67l1.31-.07c.15-.69.59-3.86.63-4.58l-1.19,0,0,0,.11-.38,2.21-.36,0,0c-.34,2-.63,4.35-.75,5.26l1.29.07.06.35v0h-3.75Z" fill="#727272"/><polyline points="103.97 325.52 335.73 325.52 335.73 345.39" fill="none" stroke="#a3a3a3" stroke-linecap="round" stroke-linejoin="round" stroke-dasharray="5 5"/><line x1="48.91" y1="325.52" x2="73.33" y2="325.52" fill="none" stroke="#a3a3a3" stroke-linecap="round" stroke-linejoin="round" stroke-dasharray="5 5"/><path d="M79.76,326c0-.54.19-.76.75-.76.34,0,.53.13.53.43s-.12.87-.79.87C79.91,326.49,79.76,326.31,79.76,326Z" fill="#727272"/><path d="M82.05,329.22h0l-.64-.62v0c1.51-1.44,2.41-3.13,4-6.84h-2.5a1,1,0,0,0-.82.27l-.16-.11.55-1.06h0c.33,0,.64,0,1.24,0h.65a17.16,17.16,0,0,0,1.75-.06l.1.12C83.9,326.25,83.31,327.73,82.05,329.22Z" fill="#727272"/><path d="M88.7,329.2l-.29-.24A3.1,3.1,0,0,0,89,327.2l.11-.78h-.94l-2,0,0,0-.18-.8v0L89.63,321h0l1.16-.34,0,0c-.11.6-.21,1.3-.3,1.91l-.42,3h.25a1,1,0,0,0,.81-.23l.15.11-.5,1h0c-.26,0-.52,0-.81-.05l-.15,1.1c-.09.62-.08.7-.35,1A10.25,10.25,0,0,1,88.7,329.2Zm.49-3.62.32-2.34c.08-.6.16-1.24.21-1.68-1.91,2.43-2.69,3.48-3,4,.44,0,.93.05,1.46.05Z" fill="#727272"/><path d="M92.33,324.45l.17-1.2a2.65,2.65,0,0,1,1.33-2,2.93,2.93,0,0,1,1.54-.5c1.35,0,1.93.65,1.72,2.09l-.16,1.2a2.7,2.7,0,0,1-1.34,2,2.85,2.85,0,0,1-1.52.49C92.7,326.53,92.13,325.89,92.33,324.45Zm3.58.06.2-1.47c.17-1.21-.2-1.66-1.27-1.66-.84,0-1.18.35-1.32,1.39l-.2,1.49c-.17,1.2.21,1.65,1.28,1.65C95.44,325.91,95.76,325.55,95.91,324.51Z" fill="#727272"/><line x1="335.73" y1="369.23" x2="335.73" y2="391" fill="none" stroke="#a3a3a3" stroke-linecap="round" stroke-linejoin="round" stroke-dasharray="5 5"/><path d="M327.51,359.58c0-.54.2-.77.76-.77.33,0,.53.14.53.44s-.12.87-.79.87C327.67,360.12,327.51,359.94,327.51,359.58Z" fill="#727272"/><path d="M330,359.67l1.3-.07c.15-.69.59-3.86.63-4.58l-1.19,0,0,0,.1-.38,2.21-.36.05,0c-.34,2-.62,4.35-.74,5.26l1.28.07.06.35v0h-3.74Z" fill="#727272"/><path d="M336.58,360.16c-1.22,0-1.88-.7-1.67-2.21l.13-1a5.55,5.55,0,0,1,1.4-3.36,3.85,3.85,0,0,1,2.33-1.44l0,0,.09.53c0,.23,0,.28-.19.34-.65.22-1.41.17-1.91.75-.29.34-.42.59-.64,2a2.37,2.37,0,0,1,1.73-.67,1.44,1.44,0,0,1,1.54,1.76l-.11.79a2.48,2.48,0,0,1-1.2,1.95A2.86,2.86,0,0,1,336.58,360.16Zm.53-.63c.84,0,1.05-.33,1.19-1.32l.13-.93c.16-1.08-.21-1.47-1.05-1.47a1.49,1.49,0,0,0-1.31.59l-.19,1.36C335.71,359,336.16,359.53,337.11,359.53Z" fill="#727272"/><path d="M340.21,362.84h0l-.64-.61v0c1.51-1.44,2.41-3.13,4-6.84h-2.5c-.46,0-.63.07-.82.27l-.16-.11.55-1.06h0c.33,0,.64,0,1.24,0h.65c.77,0,1.24,0,1.75-.06l.1.12C342.06,359.88,341.47,361.36,340.21,362.84Z" fill="#727272"/><polyline points="103.97 301.02 261.86 301.02 261.86 336.85" fill="none" stroke="#a3a3a3" stroke-linecap="round" stroke-linejoin="round" stroke-dasharray="5 5"/><line x1="48.91" y1="301.02" x2="73.33" y2="301.02" fill="none" stroke="#a3a3a3" stroke-linecap="round" stroke-linejoin="round" stroke-dasharray="5 5"/><path d="M80.28,301.45c0-.54.2-.76.76-.76.34,0,.53.13.53.43s-.12.87-.79.87C80.44,302,80.28,301.81,80.28,301.45Z" fill="#727272"/><path d="M82.71,304.38h-.82v0l.23-.51c.14-.32.22-.4.37-.4s.78,0,1.3,0a1.46,1.46,0,0,0,1-.3,1.62,1.62,0,0,0,.73-1.24l0-.35c.17-1.17-.75-1.4-2.58-1.56v0l.91-3.6,0,0h2.34a1.06,1.06,0,0,0,.81-.22l.15.1-.53,1,0,0c-.33,0-.65,0-1.25,0H84.14l-.5,1.94c2,.23,3.08.58,2.86,2.13l0,.26A3.1,3.1,0,0,1,85,303.48,3.45,3.45,0,0,1,82.71,304.38Z" fill="#727272"/><path d="M87.4,304.38h-.81l0,0,.23-.51c.14-.32.22-.4.37-.4s.78,0,1.3,0a1.44,1.44,0,0,0,1-.3,1.62,1.62,0,0,0,.73-1.24l0-.35c.17-1.17-.75-1.4-2.58-1.56v0l.91-3.6,0,0h2.33a1.06,1.06,0,0,0,.81-.22l.15.1-.52,1,0,0c-.33,0-.64,0-1.24,0H88.83l-.49,1.94c2,.23,3.07.58,2.85,2.13l0,.26a3.07,3.07,0,0,1-1.51,1.92A3.43,3.43,0,0,1,87.4,304.38Z" fill="#727272"/><path d="M96.07,301.93H91.9l0-.05.19-.75v0c.72-.49,1.42-1,2.21-1.63s1-.91,1-1.32v-.08c.09-.61-.34-1-1-1a2.29,2.29,0,0,0-1.48.44l-.13-.11.49-.89,0,0a3.37,3.37,0,0,1,1.34-.23c1.25,0,1.91.63,1.77,1.52v.09c-.07.54-.44.92-1.77,1.95a15.59,15.59,0,0,0-1.49,1.3h2.08a1.74,1.74,0,0,0,1.36-.39l.13.09-.51,1.1Z" fill="#727272"/><line x1="261.86" y1="356.91" x2="261.86" y2="391" fill="none" stroke="#a3a3a3" stroke-linecap="round" stroke-linejoin="round" stroke-dasharray="5 5"/><path d="M246.82,347.26c0-.54.2-.77.76-.77.34,0,.53.14.53.44s-.12.87-.79.87C247,347.8,246.82,347.62,246.82,347.26Z" fill="#727272"/><path d="M253.29,347.74h-4.17l0-.05.19-.75,0,0c.72-.49,1.41-1,2.2-1.63s1-.91,1.05-1.32v-.08c.08-.61-.35-1-1.06-1a2.24,2.24,0,0,0-1.47.44l-.13-.11.49-.89,0,0a3.38,3.38,0,0,1,1.35-.23c1.24,0,1.9.63,1.77,1.52v.09c-.07.53-.45.92-1.78,1.95a14.33,14.33,0,0,0-1.48,1.3h2.07a1.77,1.77,0,0,0,1.37-.39l.13.09-.52,1.1Z" fill="#727272"/><path d="M258.4,347.74h-4.17l0-.05.19-.75v0c.72-.49,1.41-1,2.21-1.63s1-.91,1-1.32v-.08c.09-.61-.35-1-1.05-1a2.27,2.27,0,0,0-1.48.44l-.13-.11.49-.89,0,0a3.38,3.38,0,0,1,1.35-.23c1.24,0,1.9.63,1.77,1.52v.09c-.07.53-.44.92-1.77,1.95a15.59,15.59,0,0,0-1.49,1.3h2.07a1.76,1.76,0,0,0,1.37-.39l.13.09-.51,1.1Z" fill="#727272"/><path d="M260.31,350.19h-.86v0l.22-.51c.14-.3.24-.37.44-.37l1,0a1.65,1.65,0,0,0,1.14-.28c.32-.24.52-.54.65-1.57l.14-1.08a2.24,2.24,0,0,1-1.75.86,1.42,1.42,0,0,1-1.51-1.78l.12-.89a2.63,2.63,0,0,1,1.33-2,2.93,2.93,0,0,1,1.54-.5c1.21,0,1.74.77,1.56,2.09l-.34,2.38a4,4,0,0,1-1.52,2.82A2.93,2.93,0,0,1,260.31,350.19Zm2.94-5,.13-.91c.16-1.06-.19-1.63-1.1-1.63s-1.19.35-1.33,1.39l-.15,1c-.15,1.11.22,1.48,1.06,1.48A1.44,1.44,0,0,0,263.25,345.23Z" fill="#727272"/><line x1="497.87" y1="242.46" x2="497.87" y2="391" fill="none" stroke="#a3a3a3" stroke-linecap="round" stroke-linejoin="round" stroke-dasharray="5 5"/><polyline points="286.95 74.21 497.87 74.21 497.87 216.13" fill="none" stroke="#a3a3a3" stroke-linecap="round" stroke-linejoin="round" stroke-dasharray="5 5"/><line x1="48.68" y1="74.21" x2="250.33" y2="74.21" fill="none" stroke="#a3a3a3" stroke-linecap="round" stroke-linejoin="round" stroke-dasharray="5 5"/><path d="M257.85,76.6l1.31-.06c.14-.7.59-3.86.62-4.58l-1.18,0,0,0,.11-.37,2.21-.36.05,0c-.34,2-.63,4.35-.75,5.26l1.29.06,0,.36v0h-3.74Z" fill="#727272"/><path d="M262.64,76.52c0-.54.19-.77.76-.77.33,0,.52.13.52.43s-.12.88-.79.88C262.8,77.06,262.64,76.88,262.64,76.52Z" fill="#727272"/><path d="M265.12,76.6l1.31-.06c.15-.7.59-3.86.63-4.58l-1.19,0,0,0,.11-.37,2.21-.36,0,0c-.34,2-.63,4.35-.75,5.26l1.29.06.06.36v0h-3.75Z" fill="#727272"/><path d="M269.57,79.44h-.82v0l.23-.52c.14-.32.21-.39.37-.39l1.29,0a1.38,1.38,0,0,0,1-.3,1.62,1.62,0,0,0,.74-1.23l0-.35c.17-1.18-.74-1.4-2.58-1.56v0l.91-3.59,0,0h2.34a1,1,0,0,0,.8-.23l.16.11-.53,1h0c-.34,0-.65,0-1.25,0H271l-.49,1.95c2,.23,3.07.57,2.86,2.12l0,.26a3.11,3.11,0,0,1-1.51,1.92A3.45,3.45,0,0,1,269.57,79.44Z" fill="#727272"/><path d="M276.18,77.09c-1.2,0-1.88-.62-1.71-1.82l0-.17c.15-1.09.67-1.32,1.59-1.95L276,73.1a1.52,1.52,0,0,1-.86-1.7l0-.17a2.22,2.22,0,0,1,1.15-1.67,2.43,2.43,0,0,1,1.45-.46c1.2,0,1.73.63,1.56,1.83l0,.17c-.15,1-.58,1.23-1.52,1.87l.23.13a1.54,1.54,0,0,1,.85,1.7l0,.17a2.27,2.27,0,0,1-1.16,1.67A2.46,2.46,0,0,1,276.18,77.09Zm.49-.59c.85,0,1.16-.34,1.27-1.17l0-.26a1.07,1.07,0,0,0-.63-1.22l-.85-.48a1.63,1.63,0,0,0-1.08,1.43l0,.27C275.24,76,275.74,76.5,276.67,76.5Zm.72-3.76a1.49,1.49,0,0,0,1-1.34l0-.27c.13-1-.24-1.44-1.15-1.44s-1.08.34-1.2,1.18l0,.26a1.06,1.06,0,0,0,.64,1.21Z" fill="#727272"/><path d="M489.35,232.48c0-.54.19-.77.75-.77.34,0,.53.13.53.43s-.12.88-.79.88C489.5,233,489.35,232.84,489.35,232.48Z" fill="#727272"/><path d="M493.69,233.05c-1.2,0-1.87-.62-1.7-1.82l0-.17c.16-1.09.67-1.32,1.6-1.95l-.1-.05a1.52,1.52,0,0,1-.85-1.7l0-.17a2.27,2.27,0,0,1,1.15-1.67,2.44,2.44,0,0,1,1.46-.46c1.2,0,1.72.63,1.56,1.83l0,.17c-.14,1-.57,1.23-1.51,1.87l.23.13a1.55,1.55,0,0,1,.85,1.7l0,.17a2.28,2.28,0,0,1-1.17,1.67A2.46,2.46,0,0,1,493.69,233.05Zm.49-.59c.85,0,1.17-.34,1.27-1.17l0-.26a1.08,1.08,0,0,0-.64-1.22l-.85-.48a1.63,1.63,0,0,0-1.08,1.43l0,.27C492.76,232,493.26,232.46,494.18,232.46Zm.72-3.76a1.5,1.5,0,0,0,1-1.34l0-.27c.13-1-.24-1.44-1.16-1.44s-1.08.34-1.19,1.18l0,.26a1.05,1.05,0,0,0,.64,1.21Z" fill="#727272"/><path d="M497.09,232.56l1.3-.06c.15-.69.59-3.86.63-4.58l-1.19,0,0,0,.1-.37,2.21-.36.05,0c-.34,2-.62,4.35-.74,5.26l1.28.06.06.36v0H497Z" fill="#727272"/><path d="M503.51,233.05c-1.2,0-1.87-.62-1.71-1.82l0-.17c.15-1.09.67-1.32,1.59-1.95l-.09-.05a1.5,1.5,0,0,1-.85-1.7l0-.17a2.22,2.22,0,0,1,1.15-1.67,2.43,2.43,0,0,1,1.45-.46c1.2,0,1.73.63,1.56,1.83l0,.17c-.15,1-.58,1.23-1.51,1.87l.22.13a1.54,1.54,0,0,1,.85,1.7l0,.17A2.27,2.27,0,0,1,505,232.6,2.46,2.46,0,0,1,503.51,233.05Zm.49-.59c.85,0,1.16-.34,1.27-1.17l0-.26a1.09,1.09,0,0,0-.64-1.22l-.85-.48a1.63,1.63,0,0,0-1.08,1.43l0,.27C502.57,232,503.07,232.46,504,232.46Zm.72-3.76a1.51,1.51,0,0,0,1-1.34l0-.27c.13-1-.24-1.44-1.15-1.44s-1.08.34-1.2,1.18l0,.26a1.05,1.05,0,0,0,.64,1.21Z" fill="#727272"/></svg>