<svg xmlns="http://www.w3.org/2000/svg" width="600" height="400" viewBox="0 0 600 400"><title>flag-michigan</title><path d="M0,400.54H600V.25H0Z" fill="#00287e"/><path d="M283.82,245.78h50.93c1.45,0,6,.83,7.13-.34v13.15c0,2,.31,4.37-.21,6.35-1.24,4.68-8.86,5.22-12.85,6.26l-17.49,4.64-7.27,1.94a17.52,17.52,0,0,1-3.64,1c-2.45.05-5.59-1.43-7.94-2.06L275,272.06l-7.41-1.94c-2.44-.63-5.37-1-7.27-2.78a5.08,5.08,0,0,1-1.55-3.06c-.09-.55-.45-3-.09-3.4.58-.65,4.36-.68,5.44-.86,3.68-.61,7.39-.47,11.08-.95,4.88-.64,9.8-.72,14.69-1.2,3.91-.38,8-.56,11.83-1.69,1.2-.36,10-2.55,9.93-2.71-.11-.49-5.2-2-5.94-2.26-2.69-1.08-5.2-.45-7.95-1.17-2.21-.58-4.57-.7-6.78-1.33-2.5-.7-5-1.92-7.54-2.74" fill="#9ed9ff"/><path d="M300.63,282.57c2.2,0,3,1.34,2.42,3.4-.72,2.56-2,4,.28,6.25.64.61,2.9,2.45,3.91,2.28.82-.15,2.19-2.21,2.8-2.84-1.14-1-2.91-2.41-2.24-4.11a6.79,6.79,0,0,1,4.73-3.26c2.19,0,3.38,2.53,3.9,4.34,1-.46,2.6-.81,3.06-1.73.37-.74-.19-2,.25-2.72.07-.12-.06-.5.05-.59a15.82,15.82,0,0,1,2.77.18,28.9,28.9,0,0,0,17.06-4.54c-6.48,2.1-15,3-21.18-.68,7.52-2.05,15.3-3.62,22.69-6.07,4.78-1.59,6.19-4.87,6.22-9.73,0-3.11,0-6.22,0-9.33v-50c0-5.63-.29-11.35.61-16.92.54-3.34,2.41-11.24,7.46-10.16l-4.52-7.3c-.94-1.52-3.06-6.54-4.69-6.67-1.31-.1-3.46,1.07-4.8,1.36a34.26,34.26,0,0,1-3.91.64,28,28,0,0,1-8-.29c-4.45-.83-8.51-2.83-12.65-4.57-9.7-4.09-19.76-4.87-29.72-1.13-4,1.52-7.86,3.55-12,4.83a29.82,29.82,0,0,1-15.35.52c-.94-.21-4.4-1.84-5.27-1.51-.21.08-.41.75-.57.92a31.27,31.27,0,0,0-2.78,4.5l-5.38,8.7c3.79-.81,5.92,4,6.73,6.82,1.55,5.44,1.33,11.22,1.33,16.82v61.3c0,3.68-.07,7.7,3.39,9.92,3.92,2.51,9.81,3.1,14.26,4.29q5.64,1.5,11.26,3c-6.16,3.72-14.69,2.78-21.18.68a29,29,0,0,0,17.07,4.54c1,0,2.39-.49,2.8.21s-.12,2.12.27,2.92,2,1.28,3.06,1.73c.78-2.74,2.68-5.37,5.71-3.69,1.92,1.07,3.87,2.65,2.43,4.81-.42.62-1.93,1.58-1.87,2.15s1.3,1.59,1.62,1.9c1,.93.66.94,2,.4a9.13,9.13,0,0,0,4-3c1.49-2.29-.37-3.61-.69-5.9-.26-1.84.81-2.72,2.59-2.72-.07-.84.15-2.75-.3-3.45-.32-.49-.21-.21-.84-.55-1.81-1-4.52-1.21-6.51-1.74q-10.59-2.82-21.2-5.63c-2.56-.67-5.17-1.23-7.7-2-4.13-1.27-5.36-3.46-5.35-7.56V204.91c0-.9-.45-3.25,0-4.07s2.62-.44,3.85-.44h75.57c.77,0,2.53-.35,3.24,0,1.05.51.49,3.34.49,4.67v53.08c0,1.33,0,2.66,0,4,0,3.89-1.53,5.89-5.36,7.06-6.14,1.88-12.48,3.26-18.69,4.91l-10.46,2.79c-1.77.47-4.92.67-6.44,1.72-1.12.77-.42,2.44-.29,3.95" fill="#006fff"/><path d="M267.86,264.93c2.56,0,4.93-.79,7.45-1a50.47,50.47,0,0,0,8.37-1.08c.83-.19,10-1.83,10-1s-5.47,1.16-2.89,2.21c1.61.66,4.66-.05,6.29-.16,2.42-.18,4.87-.32,7.25-.73.61-.11,5.27-1.54,2.8-2.55-.29-.11-1.36.36-1.69.42a19.54,19.54,0,0,1-3.5.3,4.5,4.5,0,0,1-2.52-.42c1.73-1.88,4.2-1.23,6.46-1.25,1.47,0,6.5-1.48,7.57-.09s-.82.79-1.26,1.72,1,.92,1.52,1.33c.78.59,1,1.14.24,1.94-1.54,1.62-5.64.89-7.49.8a67.61,67.61,0,0,0-8.54.19c-1.61.13-15.52,1-15.5.24,0-.15,3.16-1.18,3.13-1.21-.51-.63-4.93.59-5.65.68a35.16,35.16,0,0,1-6,.31c-3.94-.13-7.87.35-11.81.38l5.72-1" fill="#006fff"/><path d="M313,255.43c-.32,0-.65.08-1,.08,1.94,0,3.94-.43,5.87-.63,1.26-.14,5.71-1.32,6.6-.64-.54-.41-3.9,1.73-4.36,1.4.59.43,10.58-1,10.61-.51,0,.3-11.61,2.15-12.94,1.55a14,14,0,0,0,4-.83c-.31.35-3.9.06-4.49.07-.17,0-2.72-.12-2.7-.15a7.54,7.54,0,0,1,1.6-.41c-.5-.4-2.65,0-3.2.07" fill="#006fff"/><path d="M341.48,251.68c.1,0,.66,0,.69.13-.13-.37-7.56-.15-8.44-.15a16,16,0,0,1-2.32,0c.28.56,4.3.63,4.81.69s4.51.25,4.63.8c-.09-.39-6.68,1.15-6.83,1,1.23,1.34,5.19-.64,6.89.09,1.12.47.76-.06.91,1.24,0,.33-.15.91.07,1.11-.6-.54-10.58.6-10.59.34,0,.33,9.83.17,10.67.17" fill="#006fff"/><path d="M303,247.13c.9,0,3.85.83,4.53.45,0,0-2.43.1-2.28.36.64,1.13,6.58.51,8,.52-.38,0-9.58.81-9.52.25a3.15,3.15,0,0,0,.3-.24s-2.64-1.36-2.87-1.52l1.85.16" fill="#006fff"/><path d="M323.32,268a52.57,52.57,0,0,0,9.76-1.5c.79-.17,5.85-.61,5.95-1.66s-2.73-1.47-3.41-1.63-4.46-.46-4.63-1,.85-.52,1.28-.62c.8-.17,5.62-.19,6-.9,0,0-4.43-.09-4.76-.07-3,.12-5.95.27-8.93.33-1.77,0-4.38.38-1.78,2a11.8,11.8,0,0,0,4.38,1.41c.43.07,1.95,0,2.25.38.05.06-4.25.63-4.47.65q-4,.3-8,.43c.64,1.05-4.95,1.29-5.51,1.33-1.31.1-17.67.05-17.86,1.16-.06.37,15.8,1.43,15.74,1.67-.19.86-6.84.93-7.4,1-3.55.28-7.1.45-10.66.49a110.06,110.06,0,0,0-12.64,1.41c2,.5,4.91,1.53,6.63,1.34,5.11-.55,10.49-.45,15.71-.82a145.47,145.47,0,0,0,18.27-2.17c1.2-.24,3.28-.37,1.4-1.1-.52-.2-7.93-.56-7.84-1.23.05-.35,9.23-.66,10.54-.88" fill="#006fff"/><path d="M286.18,126.26l-2-1.35a9.13,9.13,0,0,0,1.34,4.88" fill="#35b336"/><path d="M290.72,137.36a41.53,41.53,0,0,1-5.05-2c-1.12-.62-.6-.05-.69-1.49a7,7,0,0,0-1.49-3.55c-2.59-3.51-7.94-3.2-11.6-5.21-.53,2.66,2.79,3.63,4.62,4.41,1.2.52,4,1.26,4.83,2.31.55.69.87.21,0,1.11-.45.47-1.48.44-2,.41-1.66-.07-.77-.34-1.36-1.19-.48-.69-.55-1.41-1.67-1.4s-1.25.95-2,.94c-1.29,0-3.37-2.34-4.52-3a12.59,12.59,0,0,0-5.9-1.76c2,1.53,4,3.06,6,4.64a1.79,1.79,0,0,0-1.65,2.12,4,4,0,0,1-1.81-.81c-.57-.52-.34-.53-.69-1.09-.94-1.46-1.17-1.29-2.74-1.05a6,6,0,0,1-1.51.29c-.8,0-1.61-.18-2.43-.2a25.78,25.78,0,0,0-3.4.14c1.26,1.17,2.49.85,3.84,1.49.75.35,2.24,2.76,1,3,.76-3-4.4-2.57-3.3.13a1.75,1.75,0,0,0-2,2.82c1.24,1.23,3.57-.11,2.86-1.83a2,2,0,0,0,1.07.12,1.76,1.76,0,0,0,1.52,2.2c-.17,1.09-3.46,2.4-4.36,3.07-1.21.89-2.39,1.83-3.55,2.78,2.41-.71,5.76-1,7.83-2.45s2.23-4.48,4.4-5.94c-.56,2.77,4.29,2.47,3.36-.22,4.33,2-3.9,7.66-5.68,8.78,2.52.31,5.25-.15,6.88-2.29,1.4-1.82,1.62-5,4.3-5.16a1.77,1.77,0,0,0,1.95,2.42,42.33,42.33,0,0,0-5.4,4.51c2.42,1.28,5.07-1.52,6.6-3,1.91-1.92,3.37-3.54,6.34-2.82-1.15,3.69-6.16,5.18-8.57,8.07,3-.3,5.54-2,8.06-3.53" fill="#35b336"/><path d="M258.78,239.89c3.63,0,5.7,1.54,8.79,3.21,2.28,1.23,5,1.35,7.42,2.27,2.61,1,5.38-.39,8.12.45a43.94,43.94,0,0,1,6,2.08c2.23,1.06,4.59,1.19,7,1.67,1.67.33,3.26,1,5,1a13.68,13.68,0,0,1,6,1.27c.53.23,4.45,1.1,4.56,1.59,0,.12-9.07,2.48-10.36,2.83-4.73,1.32-10,1.5-14.86,1.88-9.35.74-18.6,1.31-27.87,2.73l.16-21" fill="#35b336"/><path d="M277.48,292.45c2.47,2,5.2,3.54,7.72,5.43a41.09,41.09,0,0,1,8.29,8.82c-2.11-5.52-3.94-10.51-8.57-14.37,2.78,1.95,5.8,3.61,8.45,5.74a32.91,32.91,0,0,1,6.93,8.38c-9.1-27.11-40.52-23.6-62.4-16.59-4.57,1.46-9.06,3.15-13.49,5,13-3,28.39-1.32,37.31,9.59-1.51-4-3.26-8.34-6.05-11.6,6.45,3.92,12.26,7.29,17.4,12.86-1.7-4.11-3.48-8.2-5.05-12.36,6.56,1.82,12.15,7.33,15.89,12.86a68.63,68.63,0,0,0-6.43-13.75" fill="#35b336"/><path d="M323.11,292.45c-2.46,2-5.19,3.54-7.72,5.43a41.34,41.34,0,0,0-8.29,8.82c2.11-5.52,3.94-10.51,8.58-14.37-2.78,1.95-5.8,3.61-8.45,5.74a32.91,32.91,0,0,0-6.93,8.38c9.1-27.11,40.52-23.6,62.4-16.59,4.57,1.46,9.06,3.15,13.49,5-12.95-3-28.4-1.32-37.32,9.59,1.52-4,3.26-8.34,6.05-11.6-6.44,3.92-12.25,7.29-17.39,12.86,1.7-4.11,3.47-8.2,5-12.36-6.55,1.82-12.15,7.33-15.88,12.86a69.15,69.15,0,0,1,6.42-13.75" fill="#35b336"/><path d="M175.74,87c-.08-.35-.63-3.9.32-3.06.52.46.58,2,.95,2.69" fill="#86473f"/><path d="M253.91,195.52c0-3.81-.1-20.86-8.07-19.17l7-11.26a10.64,10.64,0,0,1,1.34-2.17c1-1,1.15-.4,3,.13A32.67,32.67,0,0,0,270,164.36c1-.12,2.58,0,2.78-1s-.88-3.1-1.16-4c-1-3.29-1.7-6.13-5.61-6.13-3.44,0-6.92,2.38-10,3.71-4.2,1.83-8.68,3-13,4.49-.55.2-1.4.69-1.83.45-.7-.41-1.38-2.44-1.79-3.15a36.57,36.57,0,0,0-4.91-6.77c-2.42-2.58-2.67-6.22-5-8.86-2.44-2.8-5-5.5-7.42-8.3-1-1.17-2-1.73-.47-3,1.28-1,3.26-.76,4.8-.87,3.38-.25,4.63-2.22,5.52-5.29a5.94,5.94,0,0,0-3.7-7.31c-3.46-1.25-6.12-3.2-9.27-5-1.51-.87-8.53-3.41-8.19-5.48.47-2.84,7.27-1.81,9-1.79s3.63.11,5.43,0,2.85-.53.74-1.28c-2.46-.87-5.43-.81-8-1A44.14,44.14,0,0,0,233,97.55a22,22,0,0,0,8.91-11.32c-2.14,3.11-5.92,5.31-9.42,6.54-5.14,1.8.37-4.94-1-5.22-.8-.15-2.37,3.51-2.66,4a11.4,11.4,0,0,1-3.53,3.62,25.76,25.76,0,0,1-4.44,2.26c-.94.38-2.9,1.57-3.9,1.41.09,0,2.24-2.29,2.52-2.59a12,12,0,0,0,2.39-4.07c.32-.86,2.51-7.14.15-3.66A33.48,33.48,0,0,1,215.59,96c-1,.84-4.68,4.54-6.16,4.43-2.47-.19,2.6-6.47,1.47-7.27a80,80,0,0,1-6.4,7.79c-1.31,1-1.56,1.26-1.91-.06-.41-1.58,0-3.26-.61-4.88-.21-.56-1.81-3.74-2.66-3.65.35,0,1,7.59.26,8.59-.94,1.34-2.59,0-3-1.29-.65-1.89,1.19-4.15,1.9-5.84a27.29,27.29,0,0,0,2.14-9c0-.63.3-6.4-.26-6.47-1.5-.2-.86,4.56-.93,5.46a22.53,22.53,0,0,1-2.1,8.23,11.52,11.52,0,0,1-4.51,5.15c-.13-.54-1-5-2.11-4.94,0,0-.75,3.66-1,4.31-2.5-2.9-4.71-6.64-5.13-10.5-.48-4.31,1.51-8.61-.41-12.83-.46,5.47-2.25,12.6-8.5,13.86a12,12,0,0,1-7.26-1l5.39,3.63c1.06.71,1.35.6,1.34,1.68s-1.49,2.76-2.38,3.43c-3.17,2.39-8,1.55-11.42.2,1.64,3.1,6,3.89,9.15,4.29a57.54,57.54,0,0,0,11.81.12,14.16,14.16,0,0,1,3.34-.32c.74.16.81.43,1.48,1.11,3.64,3.69,8.31,6.37,12.55,9.3-1.41,1.33-3.25-.84-4.66-1.44a13.9,13.9,0,0,0-5.72-1.15,11.68,11.68,0,0,0-5.51,1.65c-.67.38-2.76,1.36-3,2.18-.77,2.25,4.05,5.4,5.58,6.16a17.84,17.84,0,0,0,4.82,1.59c-2.1,5.27-1.29,11.68-.67,17.15a35.16,35.16,0,0,1-1.34,14.45l2.68-1.69c.22,1.47-.31,3.07,0,4.46.34,1.89,2.37,1.88,3.13,3.44s.29,3.69.29,5.22l2.35-1.35a99.47,99.47,0,0,1,1,10c.12,4.13-1.2,8.07-1.66,12.14l2-1c-1.14,4.33-2,9.54-4.38,13.39-1.33,2.19-3.58,3.87-5.49,5.51-3.09,2.64-6.21,5.22-9.19,8C173.56,214,168.6,220,167.88,228.7a57.17,57.17,0,0,0-.42,7.27c.09,2,1.38,2,2.77.9a25.43,25.43,0,0,1,4.67,15.37,18.48,18.48,0,0,1-3.22,9.5c-1.13,1.66-3.43,3.19-4.16,5-.43,1.08,0,2.32.06,3.43.08,2-.28,3.91,0,5.9.39,3,2.15,5.48,2.39,8.53a52.37,52.37,0,0,1-.24,8.85c-.17,2-1.15,5.36-.56,7.29.36,1.16,1.5,1.69,2.35,2.5,1.37,1.31,2.66,3.63,4.42,4.38,2.72,1.17,4.31-5,2.37-6.24l.5-.26c-5.35-4-5.42-9.24-5-15.38.36-5.19-.29-12.64,3.7-16.65,2.34-2.35,5.07-4.3,7.45-6.6a47.16,47.16,0,0,0,6.95-8.66,67.91,67.91,0,0,0,6.06-11.7c1.64,1.05,3.27,2.12,4.9,3.19,2.24,1.49,6.85,3.42,8,6.12.84,2-.8,5.11-1.25,7.09-.64,2.77-1.79,6.52-.59,9.32s4.14,4.56,6.7,5.83a17.54,17.54,0,0,1,6.81,5.35c2.3,3,4.54,6.71,8.24,8.12,1.7.65,5.56.37,6.06,2.63,1-.41,5.43-1.62,5.75-2.49.5-1.36-2.33-2.72-3.28-3-1.75-.45-3.63-.11-5.39-.47-3.28-.67-5.7-4.3-7.75-6.68a39.88,39.88,0,0,1-6.59-10.92c-3.27-7.91,1.11-15.37,3.65-22.85,1.51-4.44,2.61-11.11-1.51-14.63,5-5.7,11-10.34,14.93-16.86a38.28,38.28,0,0,0,4.37-9.15c.3-1,.27-2.24,1.28-2.84a6.39,6.39,0,0,1,4.52.09c2.8,1.6,1.22,7.6.92,10.05-.32,2.71-1.66,7.14-.56,9.77.44,1.07,1.4,1.73,1.66,2.91.41,1.85-.55,3.72-.65,5.53a4.1,4.1,0,0,0,2.07,4,5.69,5.69,0,0,0,2.2.81c1.74.25,1.53-.42,1.53-2V195.52" fill="#86473f"/><path d="M414.76,108.27c7-.83,13.27-5,18.19-9.93a29.46,29.46,0,0,0,5.21-6.26c1.33-2.4-.4-2.75-2.27-1.51-1.34.9-2.07,2.47-3.19,3.61-1.46,1.49-5.65,5.4-4.45.84.29-1.1.75-1.49-.47-1.31s-3,2.08-4,2.81c-.63.47-6.57,4.87-5,1.48.32-.68,2.74-2.69,2-3.3s-3.26,1.08-3.82,1.35c-2.55,1.18-5.18,2.18-7.82,3.15.07-3.73,7.26-6.31,9.78-8a64.51,64.51,0,0,0,8.29-6.62c1.81-1.72,3.89-3.69,4.31-6.28.11-.64.4-1.92-.5-1.94S429,80,428.47,80.52a2.59,2.59,0,0,1-2.74.83c-.76-.19-1.27-.81-2-1.09a11.22,11.22,0,0,1-.94-.73c-.46.4-.95.79-1.45,1.15-2.66,1.87-5.66,1.93-5.61-1.91-1.18,2-2.45,5.4-5.28,4.73-2.4-.56-2.48-1.53-4.84.32s-4.07,3.63-6.68.92a12.56,12.56,0,0,1-3.15-7.45c-.06-.53,0-2.66-.71-2.33s-1.35,3.68-1.46,4.53C393,84,395,87.76,396.16,92c1.56,5.69-7.65.16-9.23-1.13-.77-.62-6.5-6.59-7.16-6.16-.48.32,0,3.32.12,3.75a17.67,17.67,0,0,0,1.35,4.23,61.07,61.07,0,0,1-7-3.48A45,45,0,0,1,370,85.93c-1.12-.84-2.18-1.29-1.83.53.85,4.44,5.21,7.6,9.16,8.9,4.45,1.46,9.21,1.56,13.72,2.83,2.34.66,5.29,1.6,6.67,3.79a4.25,4.25,0,0,1,.74,2.31c0,.88.16.87-.54,1.24-.95.52-3.17.15-4.26.13a30.57,30.57,0,0,1-10.79-1.92,21.46,21.46,0,0,1-5.56-3.32c-1.95-1.57-1.64.5-1.32,2.3a25.75,25.75,0,0,1-5.11-2.36c-1.06-.66-4.92-4.77-3.77-1.34,1.55,4.64,7.54,7.76,11.82,9.23a45.12,45.12,0,0,0,19.59,1.86,33.81,33.81,0,0,0-6.07,4c-3,2.49-6.83,1.84-10.5,2.26-3.27.37-7.8,1.32-9.76,4.24a8.82,8.82,0,0,0-.47,7.59c1,2.26,4,2.68,5.95,3.75,1.19.64,2.42,1.45,3.88,1s2-2.09,3.48-2.5c3.36-.93,0,3.63-.73,4.59-2.12,2.62-4.47,5.07-6.84,7.48-1.71,1.76-3.46,3.11-3.34,5.74.06,1.25,1,2.12,1,3.32a5.7,5.7,0,0,1-1.34,3c-1.1,1.64-2.59,3.06-3.57,4.77a22.31,22.31,0,0,1-1.66,3.27,11.89,11.89,0,0,1-2.61,2.64c-1.29.81-1.53.17-3-.7-3.52-2.1-7.06-4.14-10.57-6.26-2.07-1.26-4.14-3.13-6.41-4-2.46-.93-6.17-.94-8.25.82a8.73,8.73,0,0,0-2.34,3.65c-.43,1.13-1.53,3.88-1.08,5.07.91,2.4,9.48-1.08,11.42-1.31,1.55-.19.6-.47,1.49.46a15.69,15.69,0,0,1,1.52,2.45l6.72,10.86a4.31,4.31,0,0,0-3.39.94,42.68,42.68,0,0,1,3.48,3.11c-1.92.81-4.85,1.41-6.44,2.72-2.16,1.78-1.69,9.17-1.71,11.89-.11,12.24,0,24.48,0,36.71,2.86-1.65,2.47-6.33,2.19-9.08q-.09-.81-.21-1.62c-.38-.71-.19-1,.57-.95.41-.4.94-.35,1.33-.87a2.74,2.74,0,0,0,.21-2.71,11.79,11.79,0,0,1-1.08-3.95,77.52,77.52,0,0,1-.15-9.27c.18-4.79.53-11.71,7.16-10.57,2.83.48,2.17,5.23,2.68,7.36a23.55,23.55,0,0,0,3.78,8.06c-.06-.7-.68-3.83-.05-3.85.84,0,2.4,3.08,3,3.76a30,30,0,0,0,4,3.41,144.29,144.29,0,0,0,15.48,10.05c-3.47,2.75-5.76,8.31-6.53,12.49-1.22,6.63,1.47,13.62,2,20.22.68,8.38-1.2,16.18-6.35,22.92a25,25,0,0,1-6.52,6.13c-2,1.26-4.26,2.47-5.55,4.54,1.06.58,3.69,2.75,4.83,2.65s2.23-3.14,3.81-3.64,2.71.25,4.11-1.13,1.92-3.12,2.6-4.73a36.71,36.71,0,0,1,5.18-8.76c2.13-2.7,7.76-7.2,7.64-11-.08-2.54-1.44-4.82-1.26-7.5.24-3.83,2-7.63,4-10.84a39.83,39.83,0,0,1,10.67-11.28c0,4.1-.35,8.45,1.17,12.35,2.21,5.72,7.21,10.23,10.47,15.33,4.11,6.4,5.44,14,5.27,21.52-.13,5.41-.22,12.25-3.2,16.93-1,1.61-1.47,1.29-1,3.14l1.62,5.86a31.4,31.4,0,0,1,3-6,7.76,7.76,0,0,1,2-2.19c.29-.2.8-.21,1-.47,1-1,.55-3.21.52-4.46-.07-3-.12-5.94.05-8.91.37-6.48,2.1-12.84,2.41-19.29.21-4.3-2.61-8.4-3.75-12.43-1.39-4.91-.1-7.76,2-12.14,1.36-2.86,2.53-5.84,3.6-8.83a7.68,7.68,0,0,1,.67-2c.24-.28.54,0,.85-.28,3.07-2.79,0-8.4-2-11.22-3.94-5.55-9.51-9.54-14-14.57-3.35-3.73-6.57-8.5-7.71-13.47-.31-1.33-.75-5.49,1.78-3.5a15,15,0,0,1,.89-9.17,12.42,12.42,0,0,0,1-2.24c.11-.93-.94-2.38-1.29-3.38-.27-.77-.91-2.2-.5-2.94.3-.56,1.62-.61,1.89-1.19s-1.16-3.93-1.35-4.69c-.25-1-1.13-3.13-.75-4.15.31-.85.17-.1,1.1-.74.24-.17.82,0,1-.26s-.06-2.08-.06-2.48c0-1.38.05-2.77.17-4.16.17-2,.75-1.36,2.67-1.16A45.56,45.56,0,0,1,416.89,134a9.88,9.88,0,0,0,.72-3.64,23.77,23.77,0,0,0-.53-3.94c-.23-1.21-1.81-5.2-1.31-6,.26-.44,2.77-1,3.34-1.26a13.25,13.25,0,0,0,1.79-1,7.27,7.27,0,0,0,2.48-2.66c.5-1,.57-1.38,0-2-.72-.89-3.54-1.3-4.58-1.54-2-.45-4.14-.2-6.14-.63-3.69-.79.28-2.8,2.08-2.92" fill="#86473f"/><path d="M317.44,109.28l2.53,2,1-3.52c.43,1.3,2.31,2.41,3.37,3.18l.83-2.69,2.52,4.37,2-1.51c.26.65,1.86,2.55,2.78,2.43.53-.07.71-.9,1-1.5.2-.43.75-1.22.72-1.66,0-.13-.74-1.5-.64-1.5.56,0,1.91,2.58,2.36,3,.67.66,1.92,1.67,2.95,1.57,1.26-.12,1.18-1.31,1.58-2.52l3.37,3.53,1.84-2.68a37.1,37.1,0,0,0,3.16,8c.68,1.21.7,1.63,2.05.9a19.07,19.07,0,0,0,2,7l1.34-3.86c.75,3.9,1,8.51,3.19,11.93l.67-3,2.52,5.21c2.62-18.06.21-36.67-10.85-51.59-4.14-5.58-8.61-10.14-15-13.12-4-1.83-23.45-9.39-22.44.7a9.44,9.44,0,0,0,2.77,5.37c1.33,1.37,3.88,2.16,4.16,4.26.39,2.88-3,5.86-5,7.49-.64-1-1.28-1.95-1.91-2.93a4.76,4.76,0,0,0,.37,2.56c.11.41.57,1.44.35,1.85s-.29-.15-.58.28c-.09.13-.49,0-.61.19a5.25,5.25,0,0,0-.26,1.31,3.75,3.75,0,0,0,.28,3.12l-2.35-2-.5,2.85-2.52-1.68-.84,2.53-1.86-1.69c-1.29,1.86-1.2,1.68-3.19.68l-1.18,2.52-1.83-2.36-1.69,2.36-1.17-2.52c-.07.23-.27.43-.34.67l-1-1.52-1.18,2.86c-.82-2-1.6-1.76-3.27-2.54-1.28-.59-1.25-1.63-1.26-3l-1.68.5c.26-1.12,1.34-7.28,1.85-7.23-2.94-2.16-6.43-4.42-7.92-7.9-1.41-3.29.26-6,.07-9.26-.31-5.59-6.52-5-10.26-3.4-15.78,7-23.26,26.31-26.47,42a100.67,100.67,0,0,0-2,26.43l2.69-5.38,1.18,1.35,2.51-5.21c1.67,1.19,1.87.23,3.17-1.34a19,19,0,0,0,2.27-3.28c.51-1,.56-2.45,1.17-3.3-1.1,1.53.68,4.74,2.55,2.56s3.07-5.53,4.46-8.09c-.15,1.06-.14,3.73,1.37,3.86s3.49-3.09,4-4c.4.61.95,1.87,1.55,1.92,1.15.1,3.32-2.17,3.66-3.1l.84,2.69a18.78,18.78,0,0,0,4.87-4.7l1.52,3.35a8.86,8.86,0,0,0,3.19-3.52c.88.64,1.83,1.23,2.67,1.93,1.24,1,.69.31.64,1.6-.08,2.16,1,3.6,1.12,5.55a42.41,42.41,0,0,1,.09,4.78c-.22,3.18-3.19,9,.72,11.17,3.08,1.7,10,2.75,12.87.13,1.27-1.17,1-2.62.85-4.13-.15-1.28-.93-4.59-.3-5.71a2.53,2.53,0,0,1,2.94-.64c1.13.6,2.06,3.28,2.33,4.51.71,3.17-1.11,6.93,3.09,7.77,2.47.49,8.11.48,10.31-1,3.16-2.05,1.92-6,.88-8.7-2-5.31-3.45-11.78-3.09-17.47" fill="#86473f"/><path d="M285.43,146c0-1.93-.15-3.92,0-5.84.11-1.52-.27-.94.89-1.23a22.35,22.35,0,0,1,4.33-.08l7-.12,22.6-.41c0,1.94.14,3.93,0,5.85-.12,1.52.26.94-.9,1.23a21.58,21.58,0,0,1-4.33.07l-7,.13-22.59.4" fill="#86473f"/><path d="M291.55,135.77c1.88,1.75-7.11,5.12-8.05,6.17s-1.13,3.15-.06,3.81c.81.5,3.59.09,4.62.2s1.58.39,2.53.55c1.43.24,2.46-1,3.74-1a7.74,7.74,0,0,1,1.63.43c1.36.26,4.25,0,5.29-.92,2-1.82-.55-4-2-4.76-2.08-1.14-3.55-1.25-4.05-3.83" fill="#ffef6f"/><path d="M311.39,136.6c2.2,2.38-5.38,4-6.3,5-.67.74-1.2,3.58-.17,4.23a12.33,12.33,0,0,0,2.48-.36c.72-.41,1-1.33,1.5-1.95.34-.45,1.88-2.51,2.54-2.31s-.51,3.58.4,4.52c.52.54,1.87.9,2.42.27s.28-3.83.23-4.7c2.76.24,2.2,6.64,5.51,4.07,1.54-1.2,1-3-.32-4-1.95-1.44-4.35-2.1-5.43-4.5" fill="#ffef6f"/><path d="M320.49,142.36,326,141c.88-.21,4.15-1.71,4.14-.13l2.79-2.33-3.6-.43c.13.21.1.52.21.74l-9.35,2.26" fill="#ffef6f"/><path d="M320.55,145.06l7.44,1.77c1,.24,6.45.74,5.68,2.23l3.55-.81-3-2c0,.25-.14.52-.14.77l-13.22-3.18" fill="#ffef6f"/><path d="M320.8,143.78l9.42-.1,5.78-.07c.82,0,2.29-.49,2.05.75l3.24-1.67-3.43-1.19c.09.25,0,.57.05.82l-17.13.21" fill="#ffef6f"/><path d="M341.88,245.94V203.88c0-.5.36-3,0-3.45-.13-.13-.62,0-.82,0-2-.53-4.87,0-6.92,0H258.72l.06,39.49c4.88,0,7.88,3.59,12.5,4.36,1.72.28,3.13,1.2,4.75,1.58,1.89.44,4.47-.38,6.46-.24,3.06.23,6.2,0,9.27.06l39.33.23,10.78.06" fill="#ffef6f"/><path d="M285.68,253.33c1.2-.59,2.12-.74,3.19.17a86.92,86.92,0,0,1,3.19-11.76c.22,2.77.1,5.59.36,8.35s2.82,3.09,5.19,2.41c-2-.87-1.44-4.86-1.58-6.65-.2-2.67-.47-5.32-.75-8-.13-1.23-.52-4.68.63-5.52.37-.28,2.37.05,2.87,0a19.16,19.16,0,0,0,2.61-.78c1.21-.33,2.17,0,2.27-1.56-1.81-.27-6.35.35-7.63-1.09a15.07,15.07,0,0,1-1.34-3.14c-.6-1.42-.79-.37-.17-2.16.86-2.45-.38-6.09-3.55-4.22a3.49,3.49,0,0,0-1.55,2.51c-.14.89.39,1.9-.05,2.72-1.22-1.36-1.92.82-2.94,1.2-1.59.6-1.55-.36-1.89-1.58-.72-2.55-.81-5-2.56-7-.86,2.14.18,3.53.34,5.71.1,1.41-.37,3.18,0,4.55a2.22,2.22,0,0,0,1.63,1.68c.91.34,2.78-.18,3.54.33,1,.64.8,3.3.88,4.39.46,6.46-2,13-2.73,19.47" fill="#86473f"/><path d="M222,228.8c-1,.93-4.55,3.31-4.62,4.5,0,.7,1.14,2.32,1.38,3a20.57,20.57,0,0,1,1.11,6.82c0,5.83-3.56,11-3.17,16.82.12,1.95.71,4.18,2.27,5.48-1.46-6.4.39-13.54,2.7-19.49,1.29-3.35,3.28-7.2,3.19-10.9-.07-2.43-1.57-4.29-2.86-6.24" fill="#b37535"/><path d="M168.85,280.58c2.53-4.06,3.1-11-.67-14.46-1.71,1.71-.89,4.34-.81,6.68a15.55,15.55,0,0,0,1.15,6.43" fill="#b37535"/><path d="M175.91,260.06c1.63-6.49,1-13.06,1.8-19.65.58-4.9,1.34-9.73,1.74-14.66.27-3.28.09-7.48,1.6-10.52,2.55-5.15,11.55,2.91,12.8,6,1.41,3.54.27,7.61-.82,11.09a67.15,67.15,0,0,1-5.22,12,111.89,111.89,0,0,1-8.18,12.2c-.59.83-3.7,5.72-3.38,2.16" fill="#b37535"/><path d="M175.91,234.51c3.19-5.31,1.74-11.63,3.06-17.39a9.92,9.92,0,0,1,4.44-6.42c.79-.52,4.19-2,4.55-3-.17.49-3,.85-3.33,1a15.48,15.48,0,0,0-8.76,7.62c-2.56,5.07-2.83,12.46-2,18,.35,2.27,1,1.9,2,.25" fill="#b37535"/><path d="M205.5,185.42c-2.2,6.05-4.53,12.1-6.22,18.31-.8,2.93-1.86,6.56-.91,9.59a7,7,0,0,0,7.89,4.49c6.18-1.22,9.83-8.76,12.19-13.88a83,83,0,0,0,5.13-14.53c.3-1.18.32-2.89,1.65-3.36,2.27-.79,6.46,1.89,8.56,2.71,4.69,1.82,9.39,3.49,14.22,4.86,3.74,1.06,4.1,4.59,4.22,8.08.16,5.29-1,10.17-1.46,15.35-.22,2.61.3,5.28.35,7.89,0,2.31-.4,6.37,2.45,7.22l-.17-20.78-.12-14.23c0-1.21.63-5-.07-6-.47-.7-3.18-1.27-3.93-1.58-2.49-1-5-2-7.45-3.1-3.51-1.51-7.1-2.36-8.63-6.08-2.35-5.73-3.76-11.85-5.83-17.7a68,68,0,0,0-11.3-20c-2.75-3.45-5.67-6.78-8.22-10.39-1.86-2.64-5.22-6.86-5.23-10.31,0-2.88,3-.71,4.25.17,3.39,2.38,6.43,5,10.73,5.45-1.07-1-2.12-2-3.12-3-.75-.76-3.44-3-3.35-4s1.81-.93,2.78-.48c1.75.81.68,1.79,1.38,3s6.63,2.86,5.6.67c-.59-1.28-2.82-1.84-3.59-3.32a6.18,6.18,0,0,1-.71-2.63,17.7,17.7,0,0,1,4.39,1.46,13.2,13.2,0,0,1,2.94,2.09c.27.25,1,1.37,1.38,1.44,1.09.24,4.31-2.1,5.41-2.64-3.18-1.34-6.77-.68-10-2.11-2.7-1.18-4.46-3.53-7.11-4.79-3.8-1.81-8.18-1-11.77,1-.64.36-1.34,1.23-2,1.49a7.61,7.61,0,0,1-2.39,0c.25.42,1,1.28,1,1.72s-1.27,1.84-1.47,2.35c-.32.87-1.07,6.11,1.17,4,1.5,3.12,2.12,8.61,1.05,11.85a18.64,18.64,0,0,0-.71,10c.43-1.32,1-2.4,1.58-.53.77,2.55-.17,5.58.31,8.21.87,4.81,5.36,8.37,5.17,13.49l-3.37-3.36c1.94,1.07,1.08,4.65.71,6.26-.6,2.7-2.25,6.12.36,7.87.38.25.72.14,1.11.7.89,1.29-1.2,3.86-.33,4.6,1.43,1.19,3.51-3.06,1.51,2.42" fill="#b37535"/><path d="M182,111.13c5.73-3.64,12.54-3.2,16.14,3-2.33,1.08-5.75,2.67-8.33,1.86s-5.44-3.31-7.81-4.89" fill="#b37535"/><path d="M166.5,97.35c4.47,0,8.36-.82,9.41-5.71-.08,1.25.53,3.25-.42,4.25-1.63,1.73-6.93,1.29-9,1.46" fill="#b37535"/><path d="M175.58,88.61s-.44,0-.5-.08,4.51-2.12,4.86-2.31A8.92,8.92,0,0,0,182.87,84a30.84,30.84,0,0,0,1.44-2.93c.48.36-1.76,5.35-2.3,6-1.49,1.79-4.33,1.55-6.43,1.55" fill="#b37535"/><path d="M414.93,249c-3.28-5.15-5.36-9.78-5.61-15.89a59.59,59.59,0,0,0-1.05-9,8.63,8.63,0,0,1,1.07-6.5c2.35-3.67,8.71-5.45,11.6-1.46,1.76,2.43,2.42,6.56,3.07,9.47a18.34,18.34,0,0,1-.39,9.72,97.71,97.71,0,0,1-5.12,12.15c-.8,1.68-2,4-3.57,1.56" fill="#b37535"/><path d="M404.51,229.14c-1.63-1.21-3.71.05-5,1.18-2.3,2-3.67,4.86-5.31,7.39-1.29,2-2.78,3.8-4.07,5.77-2.47,3.77-2.32,8.39-2.1,12.75,0,1-.19,4.79.61,5.55.52.5,1.85.07,2.75,0a30.39,30.39,0,0,1-1.13-8c.06-3.64,2-7.12,3.83-10.17,2.31-3.87,5.41-6.64,8.63-9.71,2-2,2.13-2,1.78-4.74" fill="#b37535"/><path d="M380,189.13A25.92,25.92,0,0,0,383.51,200c1.87,3.12,4.45,5.29,7.3,7.49,2.31,1.8,4.73,3.93,7.46,5.08s6.81-.72,6.82-4c0-3-2.18-6.42-3.37-9.09a97.5,97.5,0,0,1-4-10c-1.48-4.65-.94-9.65-.94-14.47l2.35,3.71-.33-10.77,2,1.35a67.44,67.44,0,0,1-1.35-13.45l2.35,2.36c-.23-1.87-.5-3.74-.84-5.59-.17-.92-1.93-5.61-1.56-6.22-.34.55,2.44,1.86,2.74,2.05.75-5.52.92-11.95,2.88-17.12,1.1-2.92,1.21-6.15,1.66-9.21.11-.72.12-2.49.67-2.91s2.56-.23,3.16-.31a23.56,23.56,0,0,0,5.32-1.19,32.58,32.58,0,0,0,6.14-3.2c-5.08-3.15-9.75-1.45-15,0-.7.19-2,.79-2.79.62-.39-.08-1.08-.91-1.41-1.14a8.35,8.35,0,0,0-3.35-1.48c-3.33-.51-5.88,2.6-8.56,4.11s-5.51,1.57-8.64,1.72c-2.55.12-5.32.29-6.94,2.5-1.28,1.75-3.45,5.36-.34,6.39a7.11,7.11,0,0,1,.79-3.57c1-1.58,3.42-1.9,5.12-2.43,3-1,6.2-.64,9.1-2,2.22-1,4-2.9,6.58-3.12.7-.06,4.4-.35,4.91.3.93,1.2-1.74,4.15-2.57,4.9a8.22,8.22,0,0,1-3.42,1.88c4.26,1.31-1.65,7.59-3.1,8.89-2.4,2.15-4.11,5-6,7.59l4.37-1L383,149.8l4-1.35-3.7,3.37,2,.67c-2.24,2.7-5.13,5.4-6.62,8.53a26.66,26.66,0,0,1-6.39,8.13,32.05,32.05,0,0,0-4.22,5.66c-4.32,6.27-12.05,8-18.92,10.15-1.67.52-1.56.47-1.85,2.16a62,62,0,0,0-.7,9.43c-.1,7,.36,14.09.38,21.14a5,5,0,0,0,.89-2.22,43.38,43.38,0,0,0,.79-11c-.17-5.62-2.07-13.94,4.61-16.54,4-1.56,8.55-2.19,12.69-3.34a52.92,52.92,0,0,1,11.27-2.22c1.07-.05,7.34-.61,6.5,1.69-.55,1.5-4.71,2.58-6.16,3,1.48-1.56,2.25.83,2.35,2" fill="#b37535"/><path d="M335.6,164.58c-.13-4.61,1.58-8.84,7-7.76,2.9.59,6,4,7.72,6.17,1.55,2,2.86,4.9,1.41,7.32L349,165.75c-.6-1-1.28-2.88-2.32-3.11-1.56-.34-4.58.8-6.13,1.08l-4.91.86" fill="#b37535"/><path d="M390.39,95.67a16.38,16.38,0,0,1,5.11.74c2.29.79,2.76,2.18,3.35,4.37.66,2.45,1.12,5,1.71,7.42.39,1.66,1.1,1.87,2.92,2.3,2.71.65,4.37-.46,6.27-2.22a23.88,23.88,0,0,1,6-3.69c3.59-1.74,7.25-3.33,10.91-4.89a2.13,2.13,0,0,1-1.49-1.09c-.38-1.14,1.1-1.58,1.15-2.26-.13,1.89-3.16,2.78-4.44,3.36a16.39,16.39,0,0,1-4.41,1.63c-1.81.22-2.64-.89-1.22-2.31l-3.43.94c-1,.28-2.79,1.16-3.85,1-3.79-.42,1.06-6,2.23-7-6.77-1.83-6.27,8.29-6,12.43-1,0-2.24.26-2.73-.34s-.29-2.12-.39-2.76c-.21-1.36-.43-2.72-.75-4a82.1,82.1,0,0,0-3.19-9.66c.51,2,.91,5.11-1.43,6-1.84.74-4.4.31-6.3,0" fill="#b37535"/><path d="M368.88,85.92A28.48,28.48,0,0,0,375.27,92c2.46,1.48,5.58,2,8.4,2.34l-4-9.41.67,6.72c-3.81-1.48-8.32-3-11.43-5.71" fill="#b37535"/><path d="M367.19,97.35a70.79,70.79,0,0,0,8.41,4.71V99a26.17,26.17,0,0,0,10.14,5.8c4,1.29,8.24.59,12.38.25-.6,1.5-.38,1.46-1.78,1.67a33.87,33.87,0,0,1-6.67-.23,24.68,24.68,0,0,1-12.39-3.8c.26.61,1.15,2,.82,2.46-.68,1-3.69-.88-4.43-1.36a61.44,61.44,0,0,1-6.81-5.46" fill="#b37535"/><path d="M286.35,253c.44-2.43.89-4.87,1.41-7.29.71-3.29,2.25-7.17,1.73-10.45-.24-1.6-.49-3.2-.74-4.79s.13-2,1.08-3.35,1-1.66,1.56,0a19.17,19.17,0,0,1,.51,3l2.34-4c1.11.5-1.73,4.25-2.22,5.17-.9,1.66.15,4.21-.55,6.2-.3.82-.79.67-.72,1.72,0,.37.56.43.58.86.08,1.63-1.45,4.05-1.89,5.63-.52,1.86-.92,3.74-1.37,5.61-.36,1.49-.21,1.51-1.72,1.7" fill="#b37535"/><path d="M294.25,252c.61-3.87-1.59-8.08-.34-12.1-.66,1.54.37,3.68.62,5.23.39,2.37.23,5,1.22,7.21l-1.51-.33" fill="#b37535"/><path d="M294.41,222.06c-1,0-2-1.11-2.71-.69s.06,3.26.61,3.56a1.53,1.53,0,0,0,1.94-.67c.64-.83.39-1.17.16-2.2" fill="#b37535"/><path d="M291.06,235.36a5.8,5.8,0,0,0,3.35.15l-2,.68c.32,0,.67,0,1,0l-2.68,1.67" fill="#b37535"/><path d="M282.31,222.4c1,.87.84,2,1.08,3.23a9.2,9.2,0,0,0,1.44,3.32c-3.4,1.09-2.59-4.61-2.52-6.55" fill="#b37535"/><path d="M287.86,87.93c2.53-3.9,5-8.84.8-12.33-.63-.54-1.61-.93-2.19-1.45-.36-.33-.66-1.53-.85-1.68-.82-.63-2.52.71-3.36.12-1.06-.76-.27-3,.19-3.87,1.78-3.33,4.68-1.42,7.26-1.87,1.5-.26,2.28-1,4-.76a15.79,15.79,0,0,1,4.86,1.82c6,3.2,6.51,9.63,10.07,14.78q1.39,2,2.75,4.08c.91,1.37.89,2.33,1.31,4,.71,2.76.15,1.13-.83,2.31-.83,1-.6,3.43,0,4.43l-2.35-2-.5,2.85-2.52-1.68-.84,2.53-1.85-1.69c-1.3,1.86-1.2,1.68-3.2.68l-1.17,2.52-1.84-2.36-1.68,2.36-1.18-2.52c-.06.23-.26.43-.34.67l-1-1.51-1.17,2.85c-.83-2-1.6-1.76-3.28-2.54-1.29-.59-1.24-1.61-1.25-3l-1.69.5c.26-1.12,1.34-7.28,1.85-7.23" fill="#fff"/><path d="M318.29,118.54c2.16,2.16,6.49,3.95,7.88,6.71s-3.54,2.56-4.17.79c.33.93,1.32,2-.52,2.57a31.49,31.49,0,0,1-3.19-10.07" fill="#fff"/><path d="M306.18,130.12c-1.3,0-2.91.12-4-.76-.89-.73-1.77-3.46-1.1-4.41a9.63,9.63,0,0,1,1.82-1c.74,0,.65.19,1.2,1,1,1.46,2.2,3.41,2.06,5.25" fill="#fff"/><path d="M282.27,217.54h0" fill="#fff"/><path d="M282.31,223.25c0-1.69-1.16-3.38-.69-5-1,.95.55,3.66.69,5" fill="#fff"/><path d="M290.68,245.65h1.64c-.07-1.31-.16-2.62-.26-3.92-.47,1.3-.94,2.6-1.38,3.91" fill="#fff"/><path d="M288,239.22c.29-2.63,1.15-6.26,0-8.83-.73-1.62-1.8-.72-3.6-1.18-2.33-.6-2.11-2.07-2.11-4.13-1.51,2.59-4.25,3.65-6.47,5.46-1.85,1.51-2.68,3.79.52,3.61a9.82,9.82,0,0,1,2.14-.28c1.17.21,2.24,1.33,3.14,2,1.15.93,2.37,1.52.45,1.52-4,0-7.66-2.63-11.71-1.58-.67.17-3.23.41-3.07,1.37s3.08,1.15,3.56,1.94c1.15,1.94-4.51,2.11-6,2.23a18.91,18.91,0,0,0,7.25,2.93,23.79,23.79,0,0,1,3.27,1.26,7.62,7.62,0,0,0,3.46,0,51.1,51.1,0,0,1,6.43,0c1.37,0,1.25.25,1.84-.77.76-1.34.78-4.14.95-5.62" fill="#fff"/><path d="M337.61,217.37c-1.32.4-3.21,1.17-4.57.52s-1.38-2.59-2.85-3.31c-3.07-1.49-6.76,1.5-9.89,1.42a4.32,4.32,0,0,1-3.16-1.41c-1.11-1.44-.12-1,.57-2,1.59-2.44-1.92-3.61-3.73-3.35-.94.13-9.17,2-9.09,2.66.18,1.51,8.16,2.35,5.17,5.55-1.22,1.29-4.12,1.57-5.71,2.29-1.29.57-2.5,1.38-3.83,1.86-3.39,1.21-3.77-2.28-5.71-4.51-1.49-1.72-2.93-1.52-4.62-.06-1.53,1.32-1.69,2.88-2.76,4.41-.63.9-2.27,2-3,1.34-.59-.55-.8-2.59-1.05-3.39.36,1.49.65,3,1.05,4.46.14.48.27,1.77.58,2,1.8,1.55,2.81-3.13,4.38-1.28.49-.81-.12-1.62,0-2.46a3.75,3.75,0,0,1,1.62-2.76c3.17-2,4.38,1.83,3.55,4.22-.61,1.79-.46.72.16,2.16a14.86,14.86,0,0,0,1.35,3.13c1.27,1.43,5.85.83,7.62,1.09-.09,1.56-1.05,1.23-2.26,1.57-.74.21-1.4.56-2.16.7s-2.81-.23-3.33.09c-1.31.81-.71,4.79-.57,6,.2,1.74-.13,6.66,1.12,7.32.78.41,2.9,0,3.78,0l32.15.18,9.49.05V215.68a18.69,18.69,0,0,1-4.27,1.68" fill="#fff"/><path d="M300.3,308.13c-22.27.44-43.84-1.85-65.1-8.65-10.45-3.34-20.87-8.66-31.87-9.78-6.2-.63-11.64.84-16.09,5.26a109.12,109.12,0,0,0-11.08,12.48c.78-.35,1.59-1,2.34-.72s1.46,1.32,2,1.79L185,312.6q4.4,4,8.88,7.87a216.31,216.31,0,0,0,18.84,14.64,142.11,142.11,0,0,0,48.59,21.41c39.51,9,83.43,4.41,117.87-17.79a195.54,195.54,0,0,0,21.55-16.37c3.37-2.9,6.67-5.87,10-8.87l4.79-4.4a16.21,16.21,0,0,1,2.63-2.42c1.19-.63,1.42-.2,2.83.44-1.13-1.94-2.07-4.11-3.7-5.64-2.07-1.94-4.18-3.89-6.31-5.75a20.61,20.61,0,0,0-17.2-5.17c-10.24,1.35-20,6.35-29.85,9.41a175.24,175.24,0,0,1-27.12,6.32,221.56,221.56,0,0,1-36.41,1.85v14.8c25.92-.15,52.72-2.14,77.05-11.78,3.5-1.39,6.93-2.93,10.35-4.49-7.69,6.22-15.28,12.56-23.72,17.77a106.4,106.4,0,0,1-35.93,14.05,126.33,126.33,0,0,1-24.24,2.15c-8.64,0-17.21,0-25.79-1.18a119.92,119.92,0,0,1-39.91-12.67c-10.47-5.49-19.9-12.54-29.09-19.93,19.14,8.24,39.12,12.71,59.86,14.63,10.44,1,20.93,1.39,31.42,1.45v-14.8" fill="#fff"/><path d="M325.64,245.92a5.52,5.52,0,1,0-8.54-.26" fill="#ffb935"/><path d="M302.2,243.53h7.34c.38,0,6.94.47,5.15-1.31-.24-.23-1.85,0-2.17,0h-4.9a26.81,26.81,0,0,0-4.39,0C302.19,242.41,302,242,302.2,243.53Z" fill="#ffb935"/><path d="M314.65,240.9l-11-1.32c-.8,1.78,4.23,1.53,5.36,1.66s5.94,1.58,5.6-.34" fill="#ffb935"/><path d="M315,239.54l-11.54-5.11c-.88,1,0,1.13.86,1.49l4.51,2c1,.45,6,3.61,6.17,1.63" fill="#ffb935"/><path d="M315.77,238.26l-9.47-5.65c-1.43,1.27,2.62,2.73,3.51,3.26l5.45,3.25a4.75,4.75,0,0,0,.51-.86" fill="#ffb935"/><path d="M316.6,237.13,307,226.53c-1.25.58-.41,1.05.19,1.71l3.32,3.66,5.37,5.91a4,4,0,0,0,.74-.68" fill="#ffb935"/><path d="M317.88,236.28l-3.67-5.17c-.61-.86-2.39-4.77-3.54-3.25l6.38,9a4.15,4.15,0,0,0,.83-.59" fill="#ffb935"/><path d="M319.09,235.59l-2.88-8.68-1.82-5.46c-.28-.84-.3-2.24-1.5-1.33l5.24,15.79a3.74,3.74,0,0,0,1-.32" fill="#ffb935"/><path d="M320.59,235.35l-2.19-10.82c-1.92-.19-.27,3.77-.06,4.8l1.27,6.21a4,4,0,0,0,1-.21" fill="#ffb935"/><path d="M322,235.2l.88-9.11.55-5.73c.09-.88.63-2.17-.83-1.82l-.88,9.11-.55,5.73c-.08.88-.63,2.17.83,1.82" fill="#ffb935"/><path d="M323.46,235.56l2.37-10.76a2.79,2.79,0,0,0-1-.22l-2.37,10.78a3.8,3.8,0,0,0,1,.2" fill="#ffb935"/><path d="M324.8,236,333,221.5c-1.07-1.2-1.45.54-1.91,1.34L328,228.26l-3.05,5.42c-.45.81-1.72,2-.14,2.33" fill="#ffb935"/><path d="M326,236.94l3.75-5.1c.64-.86,3.79-3.76,2-4.38l-6.53,8.88a4.25,4.25,0,0,0,.81.6" fill="#ffb935"/><path d="M327,237.89l13.32-10c-.47-1.42-1.26-.32-2,.23l-4.61,3.44-7.33,5.48a4.09,4.09,0,0,0,.61.81" fill="#ffb935"/><path d="M327.75,239.24l5.5-3.16c.92-.53,5-1.92,3.57-3.21l-5.5,3.15c-.93.53-5,1.9-3.57,3.22" fill="#ffb935"/><path d="M328.32,240.5l11.23-2.57c.15-1.89-4-.11-5,.13l-6.43,1.47a3.81,3.81,0,0,0,.22,1" fill="#ffb935"/><path d="M328.43,242l6.31-.66c.37,0,6.05-.22,4.56-1.5-.66-.56-5.17.54-6,.63-1.09.11-5.63-.28-4.84,1.53" fill="#ffb935"/><path d="M328.44,243.43l10.22,2c.91-1.67-3.07-1.61-4.1-1.81l-5.93-1.15a4.23,4.23,0,0,0-.19,1" fill="#ffb935"/><path d="M300.05,55.59A143.53,143.53,0,0,1,357.48,67.4c2,.89,4,2.19,6.08,2.9,1.28.45,1.84.36,2.91-.77.63-.67,1.49-3.67,2.44-3.9.56-.14.07,0,.77.26.91.36,1.92,1.61,2.68,2.23q1.74,1.41,3.51,2.74c2.57,1.93,5.32,4.08,8.38,5.15a26.23,26.23,0,0,1-1.95-6.6c-.13-.83-.69-3.23-.2-3.77.27-.3,1.43-.42,1.78-.52l10.2-3c-8.44-3.86-17-8.86-23.67-15.34-3-2.87-5.72-5.7-9.8-7-2.56-.81-6.09-1.1-7.24,1.9-.46,1.2-.8,6.94-2.39,7.54-.36.14-1.8-.63-2.15-.75a132.57,132.57,0,0,0-15.94-4.21,164.16,164.16,0,0,0-59.54-1.14,148.15,148.15,0,0,0-19.42,4.49c-1.15.36-3.1,1.49-4.3,1.43-1,0-1-.54-1.45-1.83-1.2-3.19-.78-7.71-5.13-8-4.16-.26-8.45,2.59-11.27,5.38A89,89,0,0,1,206,62.15l10.21,3c.29.08,1.57.26,1.77.52.47.58-.07,3-.19,3.77a26.65,26.65,0,0,1-1.95,6.6c3-1.07,5.81-3.22,8.37-5.15q1.78-1.33,3.51-2.74c.76-.62,1.78-1.87,2.69-2.23.7-.28.21-.4.77-.26,1,.23,1.77,3.19,2.43,3.9,1.08,1.13,1.64,1.22,2.92.77,2.07-.71,4.06-2,6.07-2.9A143.62,143.62,0,0,1,300,55.59" fill="#ef1439"/><path d="M203.65,114.49c2.9-.18,4.69-1.41,7.59-.2,1.75.74,4.29,2.15,5.36,3.76-.47-.7-2.15-.57-2.77-.35-1.64.58-3,1.9-4.9.67-.7-.46-.84-1.34-1.42-1.84a4.84,4.84,0,0,0-2.47-.78,11.31,11.31,0,0,1-4.25-1.42c1.3.2,2.61.46,3.91.61a16,16,0,0,1,1.73.13c.87.23,1.38,1.12,2,1.32,1,.29,1.45-1.44,2.8-1.07,1.5.41.86,1.17.62,2.37a5.8,5.8,0,0,1,2.52-.67c-1.36-.68-2.68-1.49-4.06-2.11-2.17-1-4.37-.44-6.69-.42"/><path d="M230.88,120.38c-1.79-.39-4.19,1.42-5.89,2,2.21,1.59,4.22-.35,6.56-.35l-.67-1.68"/><path d="M184.32,111.3c2.47-1.13,4.25-.85,7-.32,1.12.22,5.28,1.78,3.45,3.34-1.18,1-3.78-.34-5-.77-1.55-.55-4.95-.78-5.94-2.25"/><path d="M379.47,125.67c-1.33,1.88-5.3,3.14-4.37-.55.67-2.65,4.27-3.94,6.64-4.24a11.88,11.88,0,0,0-3.77,1.87c-.27.23-2.09,3.21-1.15,3.53s1.91-1.71,2.45-1.85.25,1.17.2,1.24"/><path d="M390.23,118.87c3.5-2.43,6.11-4.32,10.25-1.85-.58-.07-2.39-.59-2.87-.3-.74.46-.19,2.23-1.64,1.77-.61-.2-.58-1.08-1.12-1.22s-1.43.47-1.88.62l-2.74,1"/><path d="M406.87,117.19a11.47,11.47,0,0,1,5-2.33c1.66-.31,3.58.48,5.22.81-2.89,2.12-6.88,1.52-10.25,1.52"/><path d="M289.37,67a35.78,35.78,0,0,1,6.72,3.51c2.63,1.82.78,1.27-.81.64-1.42-.56-2.54.55-3.35-1.13-.26-.55-.1-1-.46-1.41a10,10,0,0,0-2.6-1.53l.5-.08"/><path d="M287,144.84c0-.16.37-5.2,1.67-4.2,1,.79-1.43,3.91-.49,5l-1.35-.07a3.81,3.81,0,0,1,.17-.76"/><path d="M293.83,145.43c1.2-1.18-1.13-4.42-.11-4.86s1,4.26,1.7,4.93a1.4,1.4,0,0,0-1.59-.07"/><path d="M283.15,145.93l.84,1.26.67-1.34"/><path d="M290.21,146.43c.5.5.76,2.22,1.22,2.46,0,0,.83-2.14.88-2.37l-2.1-.09"/><path d="M297.78,146a10.48,10.48,0,0,1,.84,1.87,7.52,7.52,0,0,0,1.08-2.27l-1.67.25"/><path d="M305,145.76c-.19.51.22,1.37.42,1.85l1.1-1.85H305"/><path d="M312.24,146.35,313.5,148l.58-1.92-1.84.25"/><path d="M317.53,145.85l1.18,1.84a12.1,12.1,0,0,0,1.17-2.26l-2.35.42"/><path d="M302.82,229.47l.84-4.88c1.06.24,0,4.06-.17,5"/><path d="M302.32,231.48l-1.2,9.37c-.2,1.54,0,6.4-2.17,6.94,1.1.63-.23,3.22-.49,4.2l1.33.33c.52-3.36,1.69-6.42,2.08-9.78.42-3.74.77-7.48,1.12-11.22"/><path d="M285.68,253.33c.73-.37,4.35-.71,3.27.82-.78,1.1-2.61-.31-3.27-.82"/><path d="M297.61,252.67l.34.5c-1.66.3-3.54.33-4.88-.84"/><path d="M243.15,288.37l-1.34-3-4.11,3.76,1.08-1.08-7.56-.74c2.23.48,4,.91,5.76,2.47l-.31.29,6.48-1.69"/><path d="M172.22,304.18c1.8.23,5.2.3,6.8-.76-.3,1.28-.33,5.13-2.44,4.77-1.29-.22-3.35-3.06-4.36-4"/><path d="M368.12,291.57c1-1.55-3.23-3.9-4.28-4.79l-2,2.78,6.3,2"/><path d="M418.8,297.88l3.78,2.26c-.64,1-.6,1.31-1.49,1.29-.71,0-1.88-1-2.54-1.29l.25,6.06c-.31-1.27-.6-2.55-.95-3.81s-.48-1.32-1.83-2l2.78-2.52"/><path d="M214.68,302.9c-.39,1.16,1.45,1.75,1.91.63s-1.72-2-2-3c-.87-3.6,5.26-3.08,4.15.2a6.56,6.56,0,0,1-1.14-.36c-.38-.23-.15-1-.76-1.08-2.54-.44.89,2.88,1,3.07,1.56,4-5.81,4-4.53.13l1.37.45"/><path d="M220.82,299.28l1.31.43-1.5,4.59c-.59,1.81-.22,2.68-2.13,2.06l2.32-7.08"/><path d="M231.85,310.84a7.3,7.3,0,0,1-1.21-.63,4.75,4.75,0,0,0-1.19-.39c-1.22-.29-2.17-.27-3.12-1.22a3.92,3.92,0,0,1,.25-5.75c4.09-3.34,9.25,3.57,4.73,6.31.77.82,1.23.31.54,1.68"/><path d="M236.55,304.29c-.34,1.14-.72,2.29-1,3.44s-.36,4.33,1.52,2.44c.69-.69.91-2.63,1.17-3.51.47-1.59.19-1.82,1.83-1.32-.58,2-2.37,9.86-5.78,5.77-1.14-1.37-.22-3.26.23-4.74.54-1.8.17-2.65,2.06-2.08"/><path d="M245.23,306.84l3.3.88c-.26,2.63-2.17-.43-2.7,1.55s2.65.23,1.46,2.66c-1.94-.51-1.95-.85-2.47,1.12l2.14.56c-.44,2.14-2.07.84-3.81.38l.49-1.87c-1.39-.36-1.5-.6-2.54.12-1.24.84-.91,1-2.53.53l6.67-5.93"/><path d="M250.68,308.17c1,.22,2.51.3,3.37.92a2.39,2.39,0,0,1-1.43,4.31l1.39,3.11c-2.21-.47-2.11-1.46-3-3.55l-.6,2.78c-1.93-.42-1.19-1-.79-2.86l1-4.72"/><path d="M256.66,309.4c1,.19,1.09,0,1.28.7s-.45,2.51-.58,3.22-.14,2.7-.58,3.22-.42.39-1.44.21l1.32-7.35"/><path d="M259.83,315.39c-.18,1.21,1.74,1.46,2,.27s-2-1.68-2.45-2.64c-1.48-3.4,4.65-3.94,4.12-.51a5.89,5.89,0,0,1-1.19-.17c-.42-.16-.31-.94-.94-.93-2.58,0,1.38,2.68,1.49,2.85,2.21,3.68-5,4.95-4.44.92l1.42.21"/><path d="M267.62,318.46l.6-7.43c1.14.1,2.79,0,3.72.7,1.75,1.4.59,3.75-1.3,4.07-1.58.27-1.38-.44-1.53,1.36-.12,1.5,0,1.42-1.49,1.3"/><path d="M274.15,311.49l4,.19-.07,1.34-2.62-.14c-.11,2.22.28,1.74,2.43,1.85.18,1.75-.32,1.07-1.59,1.25s-1,.12-1.08,1.67l2.62.14c.09,1.5,0,1-1,1.28a12.44,12.44,0,0,1-3-.16l.39-7.44"/><path d="M279.7,311.75c1.69.06,1.6.15,2.39,1.64l2.1,3.94.11-3.78c.05-1.6-.24-1.67,1.43-1.62,0,1.35.52,6.81-.38,7.44-1.77,1.24-3.78-4.53-4.33-5.55l-.12,3.77c0,1.6.24,1.66-1.43,1.62l.23-7.46"/><path d="M287.49,312c2,0,1.37.76,1.34,2.64l-.09,4.83c-2,0-1.37-.77-1.33-2.65l.08-4.82"/><path d="M290.66,312c1.71,0,1.61.1,2.43,1.58l2.17,3.92,0-3.78c0-1.61-.27-1.67,1.4-1.65l-.08,7.45c-1.69,0-1.59-.12-2.41-1.59L292,314.06l-.06,5.43c-2,0-1.38-.75-1.35-2.64l.05-4.83"/><path d="M299.34,317.46c0,1.21,1.91,1.2,2,0s-2.25-1.42-2.79-2.3c-1.92-3.15,4.05-4.54,4-1.08a5.22,5.22,0,0,1-1.31,0c-.47-.14-.36-1-1.21-.67-1.81.79,2,2.21,2.35,2.74,2.13,3.28-4.52,5.28-4.5,1.28h1.45"/><path d="M305.41,312.11c0,1.06-.61,6.31,1.21,6.28s1.06-5.21,1.05-6.31c1.9,0,1.39.47,1.41,2.31,0,1.57.43,3.81-1,4.85-4.4,3.13-4-5.08-4-7.12h1.38"/><path d="M310.79,312l1.38-.05.21,6.11,2.28-.08c.22,2.18-1.82,1.4-3.61,1.46l-.26-7.44"/><path d="M318,311.7c1.91-.74,3.91,5.72,4.64,7.19-1.61.09-1,.07-2-.85s-.16-.92-1.77-.86-.85.05-1.68,1.06-.26,1-1.88,1.07L318,311.7"/><path d="M323.25,311.38c1.8-.17,1.76-.42,2.5,1.18l1.9,4.13c.31-1.23.73-7.17,3-6,1.06.54.87,5.9,1,7.39-1.67.15-1.38.05-1.53-1.58l-.36-3.86c-.31,1.29-.64,5.68-2,5.8s-2.48-4.12-3-5.33l.51,5.56c-2,.18-1.44-.61-1.61-2.48l-.45-4.81"/><path d="M338.12,309.7c1.84-.89,4.42,5.36,5.27,6.76-1.6.23-1,.16-2.05-.67s-.25-.91-1.85-.7-.84.12-1.57,1.2-.18,1-1.77,1.24l2-7.83"/><path d="M343.29,308.92c1.77-.34,1.72-.58,2.6.94l2.29,3.92c.19-1.26,0-7.22,2.45-6.27,1.1.43,1.42,5.8,1.7,7.27-1.64.3-1.36.17-1.67-1.43l-.73-3.8c-.19,1.3-.09,5.7-1.42,6s-2.86-3.87-3.51-5l.73,3.81c.3,1.59.62,1.61-1,1.94l-1.4-7.32"/><path d="M359.9,313a5.72,5.72,0,0,0-.2-.79c-1.46,3.06-6,1.39-6.68-1.34s2.58-6.4,5.3-4.28c-.68-1.19,1-1.1,1.79-1.31,1.39-.34,1.52-.58,1.8.94-2,.49-2.23.16-1.74,2.19l2-.5c.73,1.64-.35,1.46-1.72,1.8.35,1.37,0,1.46,1.23,1.46,1.45,0,1.23-.71,1.65,1l-3.47.84"/><path d="M363,304.46c1.62-.47,1.56-.36,2.77.81l3.24,3.09L368,304.74c-.46-1.54-.75-1.51.85-2l2.13,7.15c-1.62.47-1.56.35-2.77-.8L364.91,306l1.08,3.61c.45,1.53.75,1.5-.85,2L363,304.46"/><path d="M372.77,301.43c1.66-1.21,5.29,4.49,6.38,5.72-1.53.52-1,.34-2.13-.3s-.4-.84-1.94-.36-.8.27-1.33,1.47,0,1-1.53,1.53l.55-8.06"/><path d="M377.73,299.75c1.69-.65,1.59-.88,2.72.46l2.94,3.47c0-1.59-.16-3.19-.11-4.78,0-.37-.16-1,0-1.29A6.07,6.07,0,0,1,385,297c.67.33,1.44,3.78,1.71,4.48.66,1.75,1.5,2.22-.36,2.95l-2-5.22c.05,1.31.9,5.64-.35,6.12s-3.49-3.32-4.33-4.33l2,5.22c-1.85.68-1.56-.21-2.23-2l-1.72-4.5"/><path d="M221.58,327.24c.26-1.46.1-3.46-1.7-3.81-2-.38-3.64,2.16-4,3.78-.5,2.1.75,3.67,3,3,1.69-.55,1.39-.47,2.56.9-4,3.15-10.33-1.9-8.65-6.49,1.43-3.91,7.76-5.17,9.55-.77,2.08-1.53,1.18,3.48,1.1,4.12l-1.82-.67"/><path d="M225.28,335.48c2.26,1.76,3.2-1.61,4.12-3.22.4-.71,1.16-1.57.82-2.37-.48-1.13-1.93-.56-.61-2l6.47,3.65c-.56,1.79-.74.46-1.77.56s-1.27.76-1.79,1.67a22.1,22.1,0,0,0-1.76,3.09c-.14.4-.55.66-.43,1.17s1.24.73,1.31,1.1c.43,2.36-2.91-.17-3.53-.52-.77-.44-2.39-1-2.94-1.67s-.56-.42.11-1.43"/><path d="M237.12,342.06c2.32,1.15,2.54-.84,3.32-2.65s2.11-3.41-.35-4.22c.53-1.43.63-1.14,1.93-.58,1.52.66,3,1.3,4.56,2s3.36,1.56,4.12,3.2c1.13,2.42-1.22,3.76-3.45,3.24.43,2,.41,3.72,2.58,4.53a5,5,0,0,1-.52,1.2c-1.39-.6-3.86-1.15-4.56-2.37-.53-.92-.16-5.66-1.71-4.32a3.47,3.47,0,0,0-.56,1.27c-.06,1.28.75.7,1.1,1.51a.73.73,0,0,1-.69,1.11c-1,.06-2.79-1.2-3.69-1.58l-2.6-1.13c.17-.39.32-.81.52-1.19"/><path d="M265.68,347c-.22-1.64-1.27-3.72-3.31-3-1.63.59-2.29,3.31-2.14,4.83.19,2.08,1.89,3.09,3.71,1.84,1.51-1,1.12-1,2.77,0-2.65,4-9.95,1.67-10.25-2.95-.28-4.38,5.58-8,8.82-4.25,1.54-2.07,2.22,2.92,2.36,3.57l-2-.05"/><path d="M279.84,345.68c.17,1.9-.57.59-1.39,1.3-.6.51-.51,1.74-.61,2.51-.23,1.83-1.31,5.55,2,5.09,2.09-.3,1.8-3.54,2-5.17.1-.77.37-1.51-.13-2.12-.67-.83-1.75.41-1.11-1.51l3.84.49c.52.07,3,.19,1.61,1.51-.47.45-1.23-.4-1.79.46a4.72,4.72,0,0,0-.18,1.4,29.47,29.47,0,0,1-.51,4c-1.07,3.76-9.06,3-9.54-.84-.26-2,2.11-6.57-1-6.65a4.73,4.73,0,0,1,.16-1.3l6.61.85"/><path d="M291.29,355.64c2.88.17,2-3.16,1.95-5.25a4.67,4.67,0,0,0,0-1.24c-.35-.95-.56-.52-1.22-1s-.54.37-.79-.44c-.16-.5,0-.71.21-.87.53-.4,5.67-.37,6.18,0,1.12.76,1.7,4.3,2.37,5.5.48-1.2,1.21-4.85,2.24-5.57.48-.33,2.32,0,2.88,0l3.44,0a6.18,6.18,0,0,1,0,1.29c-1.6-.1-1.84.4-2,1.75a17.75,17.75,0,0,0,0,4.37c.29,1.64,1.5.79,2,1.57.95,1.46-1.31,1.1-1.89,1.1-1.17,0-3.37.47-4.45,0-.51-.21-.4.15-.63-.2-.58-.85.34-.9.52-1.09.56-.58.85.14,1.23-.88a5.51,5.51,0,0,0,0-1.67l0-3.95c-.87,1.56-2.12,7.81-3.93,7.83s-3.21-6.28-4.08-7.83l0,4a5.65,5.65,0,0,0,0,1.79c.47.94,1.17.27,1.64.77,1.2,1.29-.72,1.29-1.48,1.3l-4.28,0c0-.42,0-.87,0-1.3"/><path d="M314.67,353c1.7-.87,1.53-.56,3.25.2.9.4,4.92,1.37,4.9-.62,0-1.25-4.91-1.4-5.79-1.63-1.63-.42-3.22-1.43-2.51-3.35.89-2.43,3.61-2.28,5.63-2.51.46-.05,1.43-.59,2.08-.34s1.54,1.85,2,2.43c-1.11.56-1.12.72-2.13.38-1.18-.4-2.91-2-4.27-.82-2,1.74,2.67,2,3.76,2.21,1.75.27,4.38.56,4.14,3-.31,3-4.93,3.61-7.2,3.12-.34,2.42-3.5-1.59-3.89-2.05"/><path d="M332.17,351.7c1.43-.31,1.7-.68,1.53-2a17.24,17.24,0,0,0-1.21-4.42c-.74-1.58-1.46-.25-2.31-.9-1.42-1.05.75-1.44,1.25-1.58,2.65-.72,6.32-2.32,9.07-1.7,2.16.49,3.18,2.5,1.44,4.16-1.37,1.31-3.49,1.8-5.27,2.28.54,2,.74,2.78,2.95,2.11.72,2.08-1.61,1.79-3.38,2.28-1.42.38-4,2-4.07-.23"/><path d="M350,346.42c2.51-.67,1.21-2.44.56-4.19s-.84-3.91-3.18-2.81c-.89-2,1.36-1.9,3-2.52s3.32-2.14,3.94-.08c-2.76.75-.89,3.33-.18,5.22.27.71.46,1.94,1.28,2.2,1.15.38,1.68-1.2,2,.79l-4.51,1.69c-1.55.59-2.38,1.58-2.9-.29"/><path d="M368.82,332.92c-4.4-3.79-6.24,3-2.42,5.41,1.82,1.16,3,.08,3.55-1.71.29-1-.14-.88.59-1.33A5,5,0,0,1,372,335c.58,4.41-5.59,7.49-9,5-3.94-2.8-2-10.41,3.25-9.53-.21-2.58,3.58.75,4.1,1.16l-1.5,1.21"/><path d="M378.15,333.74c2.26-1.17.56-2.73-.44-4.21s-1.78-3.66-3.74-2c-1-1.2-.56-1.19.55-1.94l4.4-3c.74-.5,2.1-1.87,3-2s2.46.87,3.26,1.17c-1,1.22-.87,1.23-2.48,1.12a6.84,6.84,0,0,0-4.22,1.6c.29.42,1.2,2.33,1.65,2.43.91.19,1.53-1.42.89-2.1,1.74-1.16,1.5-1,2.66.69s1.34,1.56-.36,2.71c-.54-1.24-1.56-.73-2.39-.1,1.23,1.81,1.26,3.14,3.25,1.5a6.54,6.54,0,0,0,2-2.95c.57-1.28.44-1.1,1.89-1.62,0,.91.35,2.86-.08,3.61s-2.42,1.64-3.19,2.16L380.14,334c-1,.71-1.34,1.23-2-.22"/><path d="M240.22,54.24c1.24-.43,2.46-.91,3.71-1.29,1.51-.45,1.22-.37,1.78,1.23-.69.24-2.42.47-2.89,1a1.83,1.83,0,0,0,.34,2.06c.51.32,1.66-.6,2.34-.63,1.2-.07.88,0,1.37,1.36L243.79,59l.73,2.1L247.74,60c.68,2,.54,1.67-1.37,2.33-1.15.4-2.42,1.28-3.14.58-.89-.88-1.29-3.73-1.7-4.9l-1.31-3.79" fill="#fff"/><path d="M258.24,58.65l-1.15-4.42c-.18-.69-1.65-4.26-1.28-4.91.59-1,4.91-.85,5.5-.46,3.21,2.13.34,5.24-2.26,5.78.19.75.93,2.25.77,3-.19.9-.37.71-1.58,1" fill="#fff"/><path d="M263.72,47.29l1.76-.39,1.69,7.76,2.89-.63c.36,1.69.64,1.41-.68,1.94a24,24,0,0,1-3.6.78l-2.06-9.48" fill="#fff"/><path d="M272,45.59c.27,1.57.53,3.15.8,4.72a9,9,0,0,0,.28,1.57c.53,1.46,2.32,2.37,2.88.29.35-1.33-.46-3.57-.69-4.87-.35-2.07-.76-2.13,1.41-2.5.48,2.87,2.91,10.08-1.92,10.35-4.13.24-4.05-6.44-4.53-9.25l1.77-.3" fill="#fff"/><path d="M279.47,44.41c1.48-.17,3.56-.73,4.95-.11a3.09,3.09,0,0,1-.35,5.73l3,3.26c-1.38.15-1.75.36-2.73-.37a18.5,18.5,0,0,1-2.42-2.78c.07.59.76,3.33.42,3.69a4.68,4.68,0,0,1-1.78.2c-.13-.1-.09-1-.13-1.11-.73-2.65-.66-5.78-1-8.52" fill="#fff"/><path d="M287.84,43.54c.87-.06,1.45-.33,1.82.23s.18,2.41.23,3.1l.46,6.2c-.87.06-1.45.33-1.82-.23s-.18-2.4-.23-3.1l-.46-6.2" fill="#fff"/><path d="M292.34,43.22c1.21,0,2.79-.33,3.92.1,1.57.6,2.88,3.07.85,4.14,2.47.69,2,4,0,5-1.27.6-3.1.4-4.48.45l-.31-9.68" fill="#fff"/><path d="M302.69,43.06c0,1.52-1.08,7.74,1,8.16,2.62.52,1.92-6.57,2-8.09,1.11,0,1.44-.21,1.78.55s-.07,2.57-.09,3.31c-.06,2.43.08,6.12-3.43,6s-3.17-3.76-3.1-6.18c0-.74-.28-2.71.08-3.32s.67-.48,1.81-.45" fill="#fff"/><path d="M310.81,50.39c-.17,1.93,3.19,1.55,2.5-.47-.46-1.35-2.75-1.27-3.42-2.7-1.9-4.11,5.84-5.42,5.43-.87a5.58,5.58,0,0,1-1.75-.15c-.49-.25-.33-1.28-1.35-1.05-2.81.64,2,3.06,2.36,3.45,3.5,4.31-6.08,7.2-5.64,1.64l1.87.15" fill="#fff"/><path d="M328.39,45.62c-.29,1.49-2.33,7.46-.35,8.21,2.49,1,3-6.16,3.25-7.66,1.08.21,1.44,0,1.66.84s-.48,2.51-.62,3.25c-.46,2.38-.93,6.06-4.37,5.38s-2.51-4.23-2.06-6.61c.14-.73.17-2.72.63-3.26s.74-.37,1.86-.15" fill="#fff"/><path d="M335.79,47.11c2.24.57,2,.67,2.61,2.86l1.52,5.49,1.74-6.87c.85.22,1.48.15,1.65.79s-.54,2.14-.69,2.75c-.27,1-.73,5.63-1.57,6.19-2.51,1.69-3.8-6.94-4.16-8.21l-1.2,4.73c-.52,2-.17,2.19-2.28,1.66l2.38-9.39" fill="#fff"/><path d="M347.78,50.34c-.45,1.45-3.14,7.16-1.26,8.12,2.38,1.22,3.62-5.79,4.07-7.25.65.21,1.47.28,1.64.76s-.75,2.42-.9,2.92c-.57,1.83-.92,4.46-2.93,5.25-3.51,1.39-4.76-2.4-4-5,.52-1.77,1.1-3.53,1.64-5.3l1.73.54" fill="#fff"/><path d="M355,52.6c2.32.85,2.3.56,2.26,3l-.1,5.73,3.83-4.59c.36-.43.86-1.28,1.34-1.4a5.81,5.81,0,0,1,2.14.84c.4,1-1.88,5.1-2.23,6-.21.56-.54,2.28-1,2.66s-1,0-1.8-.28l2.51-6.81c-1.09,1.33-4,6.28-5.58,5.67s-.58-6.21-.54-7.93l-2.52,6.81c-.82-.31-1.46-.3-1.56-1s.84-2.26,1.08-2.91L355,52.6" fill="#fff"/><path d="M258.28,191.38c2.71.16,2.14-2.16,2.14-4.17V180.7c-1.64.23-1.95,1.36-3,2.33s-.92.61-2.23.11c.62-1.23,1.34-3.77,2.48-4.29.74-.34,2.43,0,3.24,0h4.42c2.38,0,2.31.68,3.31,3,.35.81.89,1.79-.71,1.8-1.05,0-2.27-2.59-4-2.92V187a16.75,16.75,0,0,0,0,2.92c.08.41,0,.84.29,1.18s1.25,0,1.56.32c2.38,2.18-2.26,1.87-3.32,1.87-.83,0-3,.41-3.74,0s-.43-.84-.43-1.87" fill="#fff"/><path d="M276.45,178.84a6.43,6.43,0,0,1,0,1.86c-.26.34-1.09,0-1.47.68s-.06,2.65-.06,3.49c0,1.72-.78,8,2.84,6.54,2.1-.88,1.21-6.38,1.21-8.18a5.54,5.54,0,0,0,0-1.35c-.3-1.17-.25-.51-1-1.18-.44-.42-.43.25-.76-.42a1.28,1.28,0,0,1,.25-1.44c.6-.46,3.4,0,4.18,0,.1,0,1.23-.13,1.34,0a5.05,5.05,0,0,1,0,1.86c-.49.66-1.27-.38-1.76,1a4.57,4.57,0,0,0,0,.74,40,40,0,0,0,0,5,9.66,9.66,0,0,1-.34,3.87c-1,2.13-3.55,2.42-5.64,2.13-3.65-.52-3.88-3.23-3.88-6.32a27.61,27.61,0,0,0,0-5c-.29-1.55-1.42-1-1.74-2.08-.53-1.81,1.41-1.21,2.59-1.21h4.2" fill="#fff"/><path d="M284.28,191.38c1.61.09,1.92-.43,2-1.89.13-1.66,0-3.37,0-5,0-.8.32-2.77-.28-3.43-.44-.47-1.47,0-1.75-.33a4.8,4.8,0,0,1,0-1.85c.33-.34,2.72,0,3.18,0H293c.78,0,1.59-.17,2.12.25.84.67,1.42,2.76,1.93,3.74a5.55,5.55,0,0,1-1.11.46c-1.17.18.05.46-1.07-.43s-1.68-1.79-3.24-2.07c-1.24-.22-1.42-.29-1.8.4a9.33,9.33,0,0,0,0,3.12c.25.66-.22.75.83.67,1.49-.12.7-1.39,1.32-1.86a1.64,1.64,0,0,1,1.66.25c.33.43,0,2.47,0,3,0,.28.24,2.37,0,2.59a4.2,4.2,0,0,1-1.85.07c-.67-.58.67-2.14-1.24-2.05-1,.05-.62.16-.72,1.15-.06.59-.31,2.53,0,3s1.81.4,2.72.14c1.41-.4,1.82-1.31,2.84-2.14s.85-.53,2.23,0c-.5,1-1.18,3.54-2.07,4.14-.63.43-2.77.07-3.52.07h-6.09c-1.87,0-1.65.12-1.65-1.87" fill="#fff"/><path d="M298.81,191.38c3.09.17,2-4.26,2-6.41a10.85,10.85,0,0,0,0-3.22c-.42-1.21-2.95-.74-2-2.48.57-1,6-.53,7.6-.34,5,.61,5.77,6.08.55,7,2.58,0,5.48,1.73,4.47,4.7-.84,2.44-3.57,2.6-5.77,2.64-1.55,0-3.1,0-4.65,0-2.12,0-2.2.37-2.2-1.86" fill="#fff"/><path d="M319.76,178.58c8.39,0,8,15.73-.58,14.9-7.62-.73-7.25-14.9.58-14.9" fill="#fff"/><path d="M327.54,191.38c1.48.08,1.89-.34,2-1.75s0-3.13,0-4.66c0-.81.37-2.76-.07-3.54s-1.19-.27-1.73-.73c-.14-.12-.58-1.39-.23-1.75.73-.79,5.93-.17,7.21-.1,2.1.11,4.47.86,5.32,3a3.82,3.82,0,0,1-2.65,5c.75,1.5,1.38,3.7,3,4.42.82.38,1.73-.25,1.28,1.26-.31,1,.1.42-1,.66s-3.43.27-4.21-.44c-1.28-1.15-1.07-4.06-2.4-5.13s-1.2,1.16-1,2.24c.08.38,0,.82.26,1.14s.92.12,1.13.32.34,0,.5.2a5.1,5.1,0,0,1,0,1.56c-.47.57-4,.1-4.82.1-2.3,0-2.61.56-2.61-1.86" fill="#fff"/><path d="M230.51,308.07c3.94-2.15-2.33-7.49-3.82-3-.79,2.36,1.76,3.87,3.82,3" fill="#fff"/><path d="M244,310.83l.49-1.85-1.61,1.55a6.4,6.4,0,0,0,1.12.3" fill="#fff"/><path d="M252,312.09c1.87.39,2.23-2.07.39-2.18-1.11-.07-.89.92-1.13,2a3.92,3.92,0,0,0,.74.16" fill="#fff"/><path d="M269.59,314.45c2.37.18,2-2.1-.1-2-.06.7-.34,1.63.1,2" fill="#fff"/><path d="M319.59,315.79l-.92-2.2L318,315.9l1.59-.11" fill="#fff"/><path d="M354.37,310.55c.79,3.25,5.78,1.71,4.57-1.47a2.4,2.4,0,0,0-4.57,1.47" fill="#fff"/><path d="M375.39,305l-1.48-1.89,0,2.4,1.51-.51" fill="#fff"/><path d="M244.34,340.59c1.06.46,3.41,1.1,3.43-.81,0-1.22-1.87-1.95-2.75-2.3l-1.24,2.88.56.23" fill="#fff"/><path d="M336.31,346.2c.84-.2,2.09-.42,2.58-1.18,1-1.6-.75-2.23-2-2.13-2.21.17-1,1.69-.55,3.31" fill="#fff"/><path d="M340.06,313.65,339,311.54l-.46,2.34,1.57-.23" fill="#fff"/><path d="M258.93,52.88c2.94-.81,1.81-3.2-1-2.38.21.82.25,2.25,1,2.38" fill="#ef1439"/><path d="M282.75,48.69c1.25-.15,2.35-1.36,1.27-2.47-.64-.67-1.75-.38-2.58-.28.12,1-.23,3.4,1.31,2.75" fill="#ef1439"/><path d="M295.13,51.07c2.86-.07,1.85-3.25-.24-2.46-1,.37-.54,1.28-.5,2.5a3.64,3.64,0,0,0,.74,0" fill="#ef1439"/><path d="M294.59,46.87c3.08-.1,1-2.93-.24-2-.35.27-.31,1.86.23,2" fill="#ef1439"/><path d="M304.77,184.87c3.08,0,2.6-4.15-.41-4,0,.86-.45,3.88.41,4" fill="#006fff"/><path d="M304.77,191.38c5.27,0,1.59-5.75-.18-4.44-.51.37-.56,4.4.18,4.44" fill="#006fff"/><path d="M319.76,191.53c3.18,0,3.13-10.9,0-10.88s-3.13,10.88,0,10.88" fill="#006fff"/><path d="M333.7,185.38c5.51,0,1.82-6.13-.4-4.47-.54.4-.69,4.59.4,4.47" fill="#006fff"/><path d="M178.27,301.41c1.64,1,.53,6.08-1.25,6.51-1.46.35-3.07-2-3.93-2.92-1-1.09-2.38-2-3.31-3.14-1.36-1.62-.49-4.31-.28-6.3a82.88,82.88,0,0,0,.52-8.77,18.46,18.46,0,0,0-1.62-7.23c-1.37-3.49-.92-7.32-1-11-.07-2.49,1.6-3.45,3.06-5.23a19.21,19.21,0,0,0,4.05-8.15c1.34-6.21-.65-13.21-4.29-18.34-1.39,1.1-2.68,1.08-2.77-.9a59.08,59.08,0,0,1,.42-7.27c.72-8.67,5.69-14.68,11.87-20.41,3-2.76,6.1-5.34,9.19-8,1.91-1.63,4.16-3.32,5.49-5.51,2.35-3.85,3.24-9.06,4.38-13.39l-2,1c.46-4.07,1.77-8,1.66-12.14-.1-3.35-.56-6.72-1-10l-2.35,1.35c0-1.54.42-3.78-.29-5.22s-2.57-1.51-3.07-3.13c-.42-1.37.22-3.27,0-4.77L189,150.14a35.51,35.51,0,0,0,1.34-14.45c-.61-5.48-1.44-11.87.67-17.15a18.14,18.14,0,0,1-4.58-1.47c-1.58-.75-6.61-3.94-5.82-6.28.28-.82,2.37-1.8,3-2.18a11.62,11.62,0,0,1,5.15-1.62,13.62,13.62,0,0,1,6.07,1.13c1.42.59,3.25,2.76,4.66,1.43-4.24-2.93-8.91-5.6-12.54-9.3-.63-.65-.76-1-1.48-1.11a14.11,14.11,0,0,0-3.34.32,58.26,58.26,0,0,1-11.81-.12c-3.13-.4-7.51-1.19-9.14-4.29,3.44,1.35,8.24,2.19,11.41-.2.89-.67,2.36-2.22,2.38-3.43s-.28-1-1.34-1.68l-5.39-3.63a12,12,0,0,0,7.26,1c6.25-1.26,8-8.39,8.49-13.86,1.91,4.24-.07,8.5.41,12.83.43,3.86,2.63,7.6,5.14,10.5.31-.7,1-4.32,1-4.31,1.21,0,2,4.36,2.11,4.94a11.52,11.52,0,0,0,4.51-5.15,22.53,22.53,0,0,0,2.1-8.23c0-.48-.37-5.92.93-5.46.73.25.31,5.68.26,6.47a27.1,27.1,0,0,1-2.14,9c-.7,1.64-2.34,3.62-2,5.45.25,1.45,2.11,3.1,3.16,1.68.72-1,.09-8.62-.27-8.59.85-.09,2.46,3.08,2.66,3.65.6,1.62.21,3.3.62,4.88.35,1.33.55,1,1.91.06a79.13,79.13,0,0,0,6.4-7.79c1.17.83-4,7.08-1.47,7.27.62.05,1.91-1.2,2.4-1.55,1.29-.9,2.55-1.86,3.76-2.87A33.53,33.53,0,0,0,222,88.49c2.32-3.43.19,2.75-.15,3.66a12.21,12.21,0,0,1-2.39,4.07,35.43,35.43,0,0,1-2.52,2.59c1,.16,3-1,3.9-1.41a25.76,25.76,0,0,0,4.44-2.26,11.3,11.3,0,0,0,3.53-3.62c.29-.46,1.86-4.13,2.66-4,1.44.28-4.13,7,1,5.22,3.5-1.23,7.28-3.43,9.42-6.54A21.92,21.92,0,0,1,233,97.55a44.14,44.14,0,0,1-15,6.07c2,.17,4,.33,6,.61,1.08.16,5.06,1,2.13,1.62-2.4.51-5.21.11-7.64.08-1.93,0-4.83-.52-6.57.55-3.05,1.88,1,3.44,2.53,4.25a68.74,68.74,0,0,1,7.29,4.23c2.47,1.72,4.93,2.38,7.54,3.68,2.24,1.11,3.39,4.17,2.84,6.62-.41,1.88-1.68,4.67-3.58,5.33-3,1-6.1-.72-7.88,2.53M175.74,87c-.08-.35-.63-3.9.32-3.06.52.46.58,2,.95,2.69m43.37,46.14c3.1,3.59,6.48,7,9.47,10.65,1.8,2.19,2,5.11,3.69,7.38,1.23,1.69,2.82,2.93,4,4.71,1,1.61,2,4.8,3.51,6,1.09.88,3.42-.59,4.9-1.09,3.52-1.19,7.1-2.16,10.5-3.68,2.68-1.19,5.53-3,8.46-3.45,6.09-.94,6.78,5.69,7.95,10.24m-24.7,14.38c-1,1-2.64,1.92-3.32,3.25a11.42,11.42,0,0,0-.7,3.07c-.08.43-.71,2.27-.51,2.69.12.26.63.28.91.46,2.68,1.76,6.43,2.66,9.42,3.89m-.17,42c-2.39.4-5.39-1.37-5.67-3.88-.3-2.71,1.64-5.27.12-7.89-1-1.68-1.42-2.25-1.26-4.31.26-3.29.73-6.56,1.07-9.84.2-1.95.91-5.79-1.08-7.11-1.51-1-4.72-.84-5.55.88s-1.17,3.95-2.05,5.81a55.83,55.83,0,0,1-4.61,8c-3.65,5.21-8.9,9.2-13.07,14,3,2.59,3.22,7.34,2.53,10.95-1.35,7.1-6.28,13.73-6,21.15.25,6.71,5.17,13.34,9.53,18.07,2,2.14,3.66,4.57,6.7,5s6.85-.37,8.17,3.33m-5.8,2.53c-.49-2.21-4.14-1.95-5.81-2.53-3.71-1.31-6-4.92-8.25-7.89a17.07,17.07,0,0,0-6.61-5.46c-2.72-1.34-5.88-3.1-7.14-6.05-1.14-2.66-.12-6.15.47-8.81.45-2.06,2.16-5.32,1.42-7.45-.92-2.67-5.52-4.63-7.66-6-1.74-1.15-3.48-2.29-5.24-3.42a68.22,68.22,0,0,1-5.85,11.37,48.12,48.12,0,0,1-7.16,9c-2.39,2.3-5.12,4.25-7.45,6.6-3.91,3.93-3.29,11.08-3.66,16.17-.46,6.24-.57,11.84,5,15.86m63.53-101.6a25.77,25.77,0,0,1-4.83-1.74,11.07,11.07,0,0,0-6.06-1.32c-3.6,0-7-1.7-10-3.5m22.19-6.3a49.69,49.69,0,0,1-7.79-3.44c-2.54-1.5-4.24-4.39-6.08-6.65m11.6-14.86c1.72,2.57,2,6.06,2.85,9,1,3.38,1.65,6.21.43,9.68m-46.65,61.78a65.57,65.57,0,0,0,1.45-9.12c.29-3.78,0-7.32,1.83-10.79" fill="none" stroke="#000" stroke-width="0.6"/><path d="M221.64,228.8c-2.17,2.3-4.54,4.34-6.78,6.55-3.31,3.25-8.51,3.69-12.64,5.54m-27-150.43a16,16,0,0,1,6.39,4.87c-1.87.18-4.12-.51-3.53-2.85M192.89,97s-1.85,1.68-3.19-.17m8.91,4.53c4.57.76,7.06,3.62,10.08,6.89m8.57-9.91a56.66,56.66,0,0,0-6,3.73c-1.35.93-1.89,1.15-1.52,3a8.51,8.51,0,0,0,1.18,3m20.67,17.64c-2.1.64-4.52,1-6.45,2-1.71,1-2.78,2.24-5,1.49m114.13,35c.39-5.53,2.5-10.73,8.77-10.39,4.1.23,7.26,3.22,10.67,5.26,2.55,1.52,5.12,3,7.67,4.53.71.42,3,2.39,3.82,2.28.38-.05,1.2-1.06,1.49-1.34a13.63,13.63,0,0,0,3.16-4.59c1.23-2.56,3.92-4.37,4.92-7.07.73-2-.73-3-.67-5s1.1-3.07,2.52-4.53c3.13-3.19,7.06-6.54,9.26-10.48,1.19-2.15.22-3.44-1.95-1.86-.92.66-1.27,1.63-2.42,2a4.84,4.84,0,0,1-3.65-.84c-1.45-.85-3.23-1.26-4.63-2.18-1.77-1.16-2.1-3.33-2.12-5.32-.06-6.82,7.77-8.13,13.15-8.47,3.62-.23,5.85-.24,8.72-2.58a29.46,29.46,0,0,1,5.5-3.5,45.43,45.43,0,0,1-19.59-1.87c-4.28-1.47-10.27-4.58-11.82-9.23-1.15-3.43,2.43.49,3.45,1.15a25.42,25.42,0,0,0,5.43,2.56c-.25-1.43-.81-3.57.94-2.65,1.46.76,2.65,2.1,4.17,2.87a26.59,26.59,0,0,0,9.26,2.53,42.38,42.38,0,0,0,6.57.12c1.77-.09,1.84-.81,1.35-2.43-1.85-6.1-13.06-6-17.82-7-5.32-1.12-9.23-3.27-11.58-8.19-.34-.7-1.55-2.55-.33-2.9.93-.26,3.42,2.59,4.26,3.15a50.87,50.87,0,0,0,8.48,4.4c-.71-1.6-2.48-5.68-1.55-7.43.45-.85.48-.55,1.36.2,1.32,1.13,2.5,2.46,3.8,3.63,2,1.83,4.35,4,7,4.83,1.17.34,3.87,1.32,4.52-.07.57-1.21-.92-3.57-1.3-4.67A27.36,27.36,0,0,1,393.63,83c-.1-1,.76-8.89,1.9-7.87.6.54.31,2.94.47,3.75A13,13,0,0,0,397.64,83c1.23,2,3.31,4.2,5.78,2.76s3.19-3.83,6-2.67c3.52,1.43,4.68-1.57,6.3-4.28-.05,3.84,2.95,3.77,5.61,1.9,1.15-.81,1-1.06,2.09-.64.7.27,1.23,1,2,1.21a2.56,2.56,0,0,0,3-.73c.77-.82,1.43-3.82,2.48-4.08s.79,1,.66,1.83c-.44,2.59-2.5,4.56-4.31,6.29a66.12,66.12,0,0,1-8.3,6.61c-2.51,1.71-9.71,4.3-9.77,8,1.92-.7,3.85-1.43,5.74-2.23,1-.4,6.09-3.27,6-1.7-.07,1.07-4.16,3.74-1.67,4.07,1.15.16,3.31-1.92,4.14-2.53,1-.74,3.08-3,4.37-3.1,2.31-.2-1.13,2.51.41,3.6,1.29.92,5-3.62,5.76-4.58S435.56,90.38,437,90c3-.76,1.05,2.3.12,3.54a42.09,42.09,0,0,1-13.07,11.6,29.2,29.2,0,0,1-9.34,3.14c-1.15.2-5,1-3.09,2.64,1,.81,3.4.38,4.53.49a22.35,22.35,0,0,1,4.84,1c.84.27,2.52.57,2.8,1.42s-1.09,2.6-1.66,3.17a11,11,0,0,1-3.06,2.08,17,17,0,0,0-2.4,1c-1.05,0-1.28.43-.7,1.34l.42,1.91c.89,4,1.63,7.32.25,11.22a44.45,44.45,0,0,0-2.17,15.83c-1.92-.19-2.24-.77-2.65.92a18,18,0,0,0-.19,3.95,16.42,16.42,0,0,1,.07,3c-.11.15-.9.17-1,.25-.76.53-.79,0-1.1.66-.42.94.53,3.37.75,4.23s1.66,3.92,1.36,4.69c-.21.51-1.47.62-1.76,1.09-.52.83,0,2.05.36,3s1.41,2.37,1.33,3.31a9.87,9.87,0,0,1-.94,2,15.15,15.15,0,0,0-1,9.47c-2.11-1.66-2.18,1-1.77,2.52m-.23,0c1.76,8.8,8.51,15,14.67,21,3.64,3.51,7.69,7.37,9.6,12.17.6,1.51,1.3,3.74.94,5.39s-1.31,1.09-2.06,1.9c-.9,1-1.24,3.55-1.72,4.81q-1.59,4.1-3.55,8c-2.12,4.21-1.92,7.54-.41,12,1.21,3.57,3.4,7,3.15,10.86-.4,6.09-1.94,12.07-2.34,18.19-.2,2.92-.22,5.84-.13,8.77,0,1.4.6,4.09-.37,5.31-.68.85-2,1.12-2.73,2.14a27.52,27.52,0,0,0-3.45,6.66L418,301.76c-.46-1.64-.7-1.78-.08-3,1.26-2.46,2.5-4.41,3-7.26a75.94,75.94,0,0,0,.86-8.24c.45-7.21-.26-14.64-3.53-21.18-3-6-8.27-10.62-11.37-16.58-2.24-4.32-1.89-9.23-1.89-13.95a40.49,40.49,0,0,0-9.19,9.1,28.91,28.91,0,0,0-5.18,10.82c-.71,3.28.15,5.85.76,9,.75,3.94-4.56,8.1-6.8,10.87a35.25,35.25,0,0,0-5.31,8.31,25.89,25.89,0,0,1-2.49,5.23c-1.4,1.89-2.52,1.5-4.55,1.87-1.16.21-1.06.29-1.78,1.27-.27.36-1.45,2.39-2,2.51-1,.21-4.11-2.25-5.05-2.77,1.28-2.07,3.56-3.29,5.55-4.54a25,25,0,0,0,6.52-6.13c5.15-6.73,7-14.53,6.35-22.92-.54-6.59-3.23-13.59-2-20.22.78-4.19,3.06-9.74,6.53-12.49a144.29,144.29,0,0,1-15.48-10,31.13,31.13,0,0,1-3.81-3.25c-.8-.82-2.09-3.65-3.1-3.85-.79-.16-.19.12-.31.73a13.35,13.35,0,0,0,.27,3.06,23.87,23.87,0,0,1-3.78-8.07c-.52-2.14.15-6.88-2.68-7.36-6.63-1.13-7,5.78-7.16,10.57a77.52,77.52,0,0,0,.15,9.27,12.16,12.16,0,0,0,1.08,4,2.72,2.72,0,0,1-.21,2.7c-.36.48-.94.52-1.33.88-.77-.08-.95.24-.57,1,.09.55.16,1.1.21,1.66.28,2.74.67,7.61-2.35,9.13M349,183.17l6.55-2.78-3-2.77m3,2.52,4.89-1.63c2.15-.72,1.78-.57,2.2-2.84s1.19-4.84,2.91-6.22c1.26-1,2.83-1.44,4.2-2.24a33.65,33.65,0,0,0,3.7-2.7" fill="none" stroke="#000" stroke-width="0.6"/><path d="M366.1,168.29a12.26,12.26,0,0,1,1.26-4m2-2.77s1.26,2.27,3.53.24m2-10.84c1.48,1.59,5.23-4.1,6.05-5.28m-22.44,47.14q5.29-1,10.56-2c3.59-.72,7.23-1.87,10.87-2.24m24.71,43.12s.5-2.78-1.26-7.07m-26.73-93c1.95,1.32,3.38.07,4.82-1.29a6.94,6.94,0,0,1,6.78-2m27.31-8c-2.41-.44-5.1.13-7.56.15M241.3,135.84c-1-16,1.87-33.13,9-47.55,3.87-7.79,9.21-15,16.78-19.52,3.4-2,10.8-5,12.66.57,1,3-1,6-.31,9.16.95,4.32,5.08,7,8.41,9.43,2-3.09,4.92-8.27,1.81-11.43-1-1-2.74-1.63-3.55-2.59-1.05-1.24.05-1.4-1.78-1.43-1.51,0-2.48.66-2.55-1.26a4.62,4.62,0,0,1,5.37-4.7c.65.07,1.68.64,2.27.53.25,0,.51-.39.76-.48a7.29,7.29,0,0,1,4.9-.14,16.14,16.14,0,0,1,7.59,4.71c2.24,2.66,3,6.11,4.5,9.16,1.91,3.8,4.75,7.27,7.07,10.83,1.88-1.54,4.27-3.72,4.85-6.17.48-2-.58-2.81-2.06-3.93a12.2,12.2,0,0,1-4-4.53c-1.52-3.24-.65-6.8,3.2-7.47,4.63-.81,10.41,1.16,14.7,2.73a38.23,38.23,0,0,1,17.65,13.11,59.61,59.61,0,0,1,9.57,17.35c3.95,11.47,4.2,23.88,2.48,35.8l-2.52-5.21-.68,3c-2.18-3.42-2.44-8-3.19-11.93l-1.34,3.86a18.86,18.86,0,0,1-2-7c-1.33.8-1.39.28-2-.89a36.21,36.21,0,0,1-3.17-8l-1.84,2.69L340.48,111c-.4,1.19-.32,2.4-1.59,2.51-1,.09-2.3-.94-2.95-1.58-.4-.38-1.83-3-2.36-3a11.65,11.65,0,0,0,.6,1.41,4.48,4.48,0,0,1-.68,1.75c-.19.41-.52,1.43-.86,1.56-.84.31-2.71-2-2.92-2.49l-2,1.53-2.53-4.38-.84,2.7c-1-.78-2.93-1.91-3.36-3.2l-1,3.53-2.51-2M241.3,135.84l2.69-5.37,1.18,1.33,2.51-5.21c1.67,1.21,1.87.25,3.17-1.33a19.06,19.06,0,0,0,2.27-3.29c.5-1,.55-2.46,1.17-3.29-1.12,1.5.67,4.76,2.55,2.57s3.07-5.54,4.46-8.11c-.15,1.06-.14,3.74,1.37,3.87s3.49-3.09,4-4c.4.61.95,1.87,1.55,1.92,1.15.1,3.32-2.17,3.66-3.1l.84,2.68a18.58,18.58,0,0,0,4.87-4.69l1.52,3.36a8.83,8.83,0,0,0,3.19-3.53c.88.64,1.83,1.23,2.67,1.93,1.24,1,.69.32.64,1.6-.08,2.16,1,3.59,1.12,5.54a42.72,42.72,0,0,1,.09,4.8c-.22,3.18-3.19,9,.72,11.16,3.07,1.7,10,2.75,12.87.13,1.27-1.18,1-2.62.85-4.13-.15-1.28-.93-4.58-.3-5.71a2.53,2.53,0,0,1,2.94-.64c1.14.6,2.06,3.28,2.33,4.5.71,3.19-1.12,6.91,3.09,7.77,2.47.5,8.11.49,10.31-1,3.15-2.06,1.93-5.95.88-8.71-2-5.31-3.45-11.77-3.09-17.47M244,130.3c.84-1.51,1.51-20,6-29.92m-2.52,26.21c.67-1.68,1.85-17.81,5.72-24M254.41,119c.67-4.71.84-7.58,3.53-14m3.19,8.39,1.35-4.86m4,4.37,1-2.53m90.6,22.35c-.35-6.31-.82-12.91-2.69-19m-1.34,10.42c-.43-5.71-1.08-11.46-3.19-16.82m.16,13.29a130.83,130.83,0,0,0-3.53-15.3M345.68,112c-.84-3-3-8.74-3-8.74m-2,7.56-2-6m-4.71,4.53-1.34-3M287.69,87.77,286,95.16l1.68-.49c0,1.38,0,2.41,1.26,3,1.67.76,2.46.54,3.28,2.55l1.17-2.86,1,1.52c.07-.24.27-.44.34-.67l1.17,2.51,1.69-2.35,1.84,2.35,1.18-2.51c2,1,1.89,1.17,3.18-.69l1.86,1.69.84-2.52L309,98.36l.5-2.86,2.35,2a4.35,4.35,0,0,1,.39-4.58c.54-.83.86.54.65-1.27-.13-1.17-.82-2.18-.7-3.38" fill="none" stroke="#000" stroke-width="0.6"/><path d="M285.68,72.31s2.18-.34,5.54,1.35M256.09,96.5c0,1.86-.33,4.55,3.7-.83m-2.52-4.88c0,1.85-.34,4.54,3.7-.84m-.34,6.73c0,1.84-.34,4.53,3.69-.84M265.84,93c0,1.84-.34,4.53,3.7-.84M263.83,90c0,1.86-.34,4.54,3.69-.84m-6.22-6c0,1.85-.33,4.54,3.7-.84m-.17,19.16c0,1.86-.33,4.54,3.7-.84m2-10.93c0,1.87-.34,4.55,3.69-.83m-1.51,7.9c0,1.84-.33,4.53,3.7-.84m-3.2,7.9c0,1.85-.33,4.53,3.7-.84M279.62,99c0,1.85-.33,4.54,3.7-.83m-17.48-1c0,1.84-.34,4.52,3.7-.84M255.92,86.26c0,1.85-.33,4.53,3.7-.84m-7.23,7.39c0,1.86-.33,4.54,3.7-.83m6.05-13.29c0,1.85-.33,4.55,3.7-.84M345.18,96.5c0,1.86.34,4.55-3.7-.83M344,90.79c0,1.85.34,4.54-3.69-.84m.33,6.73c0,1.84.34,4.53-3.7-.84M335.43,93c0,1.84.34,4.53-3.7-.84M337.45,90c0,1.86.33,4.54-3.7-.84m6.21-6c0,1.85.35,4.54-3.69-.84m.17,19.16c0,1.86.33,4.54-3.7-.84m-2-10.93c0,1.87.34,4.55-3.7-.83m1.51,7.9c0,1.84.35,4.53-3.69-.84m3.19,7.9c0,1.85.34,4.53-3.69-.84M321.64,99c0,1.85.34,4.54-3.7-.83m17.49-1c0,1.84.34,4.52-3.7-.84m13.61-10.09c0,1.85.34,4.53-3.69-.84m7.22,7.39c0,1.86.34,4.54-3.69-.83m-6.06-13.29c0,1.85.34,4.55-3.69-.84m-17.14,40.69c2.16,2.16,6.49,3.95,7.88,6.71s-3.54,2.56-4.17.79c.33.93,1.32,2-.52,2.57m-15.3,1.51c-1.68,0-4,.18-5-3.35m-9.59,9c1.88,1.75-7.11,5.12-8.05,6.17s-1.13,3.15-.06,3.81c.81.5,3.59.09,4.62.2s1.58.39,2.53.55c1.43.24,2.46-1,3.74-1a7.74,7.74,0,0,1,1.63.43c1.36.26,4.25,0,5.29-.92,2-1.82-.55-4-2-4.76-2.08-1.14-3.55-1.25-4.05-3.83m16.22.17c2.2,2.38-5.38,4-6.3,5-.67.74-1.2,3.58-.17,4.23a12.33,12.33,0,0,0,2.48-.36c.72-.41,1-1.33,1.5-1.95.34-.45,1.88-2.51,2.54-2.31s-.51,3.58.4,4.52c.52.54,1.87.9,2.42.27s.28-3.83.23-4.7c2.76.24,2.2,6.64,5.51,4.07,1.54-1.2,1-3-.32-4-1.95-1.44-4.35-2.1-5.43-4.5m-83-71.7c-1.07-2.59-2.13-5.18-3.38-7.69-1.69-3.39,0-4.81,3.43-6.15,4.47-1.76,15.87-2.94,15.07-9.85M226.68,55.33c1.68,3.7,6,.42,8.6-.73,4.46-2,8.93-4,13.57-5.57m51.2,6.56A143.53,143.53,0,0,1,357.48,67.4c2,.89,4,2.19,6.08,2.9,1.28.45,1.84.36,2.91-.77.63-.67,1.49-3.67,2.44-3.9.56-.14.07,0,.77.26.91.36,1.92,1.61,2.68,2.23q1.74,1.41,3.51,2.74c2.57,1.93,5.32,4.08,8.38,5.15a26.23,26.23,0,0,1-1.95-6.6c-.13-.83-.69-3.23-.2-3.77.27-.3,1.43-.42,1.78-.52l10.2-3c-8.44-3.86-17-8.86-23.67-15.34-3-2.87-5.72-5.7-9.8-7-2.56-.81-6.09-1.1-7.24,1.9-.46,1.2-.8,6.94-2.39,7.54-.36.14-1.8-.63-2.15-.75a132.57,132.57,0,0,0-15.94-4.21,164.16,164.16,0,0,0-59.54-1.14,148.15,148.15,0,0,0-19.42,4.49c-1.15.36-3.1,1.49-4.3,1.43-1,0-1-.54-1.45-1.83-1.2-3.19-.78-7.71-5.13-8-4.16-.26-8.45,2.59-11.27,5.38A89,89,0,0,1,206,62.15l10.21,3c.29.08,1.57.26,1.77.52.47.58-.07,3-.19,3.77a26.65,26.65,0,0,1-1.95,6.6c3-1.07,5.81-3.22,8.37-5.15q2-1.5,3.94-3.09a11.41,11.41,0,0,1,2.26-1.88c.7-.28.21-.39.77-.26,1.08.26,1.91,3.56,2.89,4.33s1.34.73,2.46.34c2.21-.76,4.34-2.14,6.49-3.08A143.66,143.66,0,0,1,300.05,55.59Z" fill="none" stroke="#000" stroke-width="0.6"/><path d="M368.88,65.16C370,62.57,371,60,372.26,57.47c1.68-3.39-.05-4.81-3.44-6.15-4.46-1.76-15.87-3-15.07-9.85m19.67,13.86c-1.69,3.7-6,.42-8.61-.73-4.47-2-8.94-4-13.58-5.57m-55.09,89.69,15-.27m4.41-.09,4.67-.08v3.53m-2.53,3.58-3.4.05m-2.65.05-4.29.09m-2.64,0-5,.09m-14.24-4.78c0-.93-.23-1.66.38-2s2.5,0,3.27-.06m1.64-1.48a41.53,41.53,0,0,1-5.05-2c-1.12-.62-.6-.05-.69-1.49a7,7,0,0,0-1.49-3.55c-2.59-3.51-7.94-3.2-11.6-5.21-.53,2.66,2.79,3.63,4.62,4.41,1.2.52,4,1.26,4.83,2.31.55.69.87.21,0,1.11-.45.47-1.48.44-2,.41-1.66-.07-.77-.34-1.36-1.19-.48-.69-.55-1.41-1.67-1.4s-1.25.95-2,.94c-1.29,0-3.37-2.34-4.52-3a12.59,12.59,0,0,0-5.9-1.76c2,1.53,4,3.06,6,4.64a1.79,1.79,0,0,0-1.65,2.12,4,4,0,0,1-1.81-.81c-.57-.52-.34-.53-.69-1.09-.94-1.46-1.17-1.29-2.74-1.05a6,6,0,0,1-1.51.29c-.8,0-1.61-.18-2.43-.2a25.78,25.78,0,0,0-3.4.14c1.26,1.17,2.49.85,3.84,1.49.75.35,2.24,2.76,1,3,.76-3-4.4-2.57-3.3.13a1.75,1.75,0,0,0-2,2.82c1.24,1.23,3.57-.11,2.86-1.83a2,2,0,0,0,1.07.12,1.76,1.76,0,0,0,1.52,2.2c-.17,1.09-3.46,2.4-4.36,3.07-1.21.89-2.39,1.83-3.55,2.78,2.41-.71,5.76-1,7.83-2.45s2.23-4.48,4.4-5.94c-.56,2.77,4.29,2.47,3.36-.22,4.33,2-3.9,7.66-5.68,8.78,2.52.31,5.25-.15,6.88-2.29,1.4-1.82,1.62-5,4.3-5.16a1.77,1.77,0,0,0,1.95,2.42,42.33,42.33,0,0,0-5.4,4.51c2.42,1.28,5.07-1.52,6.6-3,1.91-1.92,3.37-3.54,6.34-2.82-1.15,3.69-6.16,5.18-8.57,8.07,3-.3,5.54-2,8.06-3.53m3.37-16.82-2-1.35a9.13,9.13,0,0,0,1.34,4.88m35,12.57L326,141c.88-.21,4.15-1.71,4.14-.13l2.79-2.33-3.6-.43c.13.21.1.52.21.74l-9.35,2.26m.35,3.93,7.44,1.77c1,.24,6.45.74,5.68,2.23l3.55-.81-3-2c0,.25-.14.52-.14.77l-13.22-3.18m0,0,9.42-.1,5.78-.07c.82,0,2.29-.49,2.05.75l3.24-1.67-3.43-1.19c.09.25,0,.57.05.82l-17.13.21M300.3,278.79c-10.88-2.92-21.76-5.85-32.67-8.67-2.75-.71-6.42-1.14-8.08-3.72-1.12-1.76-.83-4-.83-6,0-4,0-7.93,0-11.9V203.72c0-.53-.35-2.75,0-3.18s3.58-.14,4.38-.14h68.5c2.83,0,6.69-.7,9.46,0,.47.11.6-.11.82.17.36.49,0,2.7,0,3.28V256c0,3,.83,8.1-1,10.6s-5.56,2.91-8.36,3.64q-4.51,1.17-9,2.37l-19.47,5.18-3.76,1m-6.82,15.81c2.11-.74,5.11-2.14,5.77-4.48s-3.74-7.53,1.37-7.53" fill="none" stroke="#000" stroke-width="0.6"/><path d="M284.83,288.37c.55-1.81,1.83-4.3,4.06-4.1a6.58,6.58,0,0,1,4.37,3.2c.78,1.89-1.12,3.48-2.38,4.62m28.67-5.31c0-.6-.14-2.8.24-3.13.7-.63,5.69.18,6.91.09a28,28,0,0,0,12.93-4.51c-6.49,2.1-15,3-21.18-.68,7.51-2.05,15.3-3.6,22.68-6.06,4.79-1.6,6.2-4.87,6.22-9.74,0-3.11,0-6.22,0-9.33v-50c0-5.63-.28-11.35.62-16.92.54-3.34,2.4-11.23,7.45-10.16l-4.51-7.29c-1-1.53-3.06-6.54-4.69-6.66-1.31-.11-3.46,1.06-4.81,1.35a36.43,36.43,0,0,1-3.9.64,28,28,0,0,1-8-.3c-4.45-.83-8.52-2.82-12.65-4.57-9.7-4.09-19.76-4.87-29.73-1.13-4,1.52-7.85,3.55-12,4.83a29.71,29.71,0,0,1-15.35.53c-.95-.21-4.4-1.84-5.27-1.51-.22.08-.42.75-.57.92a32.24,32.24,0,0,0-2.79,4.5l-5.37,8.69c3.79-.81,5.92,4,6.73,6.82,1.55,5.44,1.33,11.22,1.33,16.82v61.3c0,3.68-.07,7.7,3.39,9.93,3.91,2.52,9.81,3.09,14.26,4.28q5.63,1.5,11.26,3c-6.16,3.72-14.69,2.78-21.18.68A28,28,0,0,0,275,283.77c1.07.06,6.09-.59,6.51-.08s.26,2.6.33,3.35m28.25,4.62c-1.05-1-2.77-2.29-2.35-3.9.39-1.45,3.12-3.24,4.48-3.47,2.24-.37,3.54,1.8,4.09,3.68m-15.64-5.4c5,0,.81,4.95,1.29,7.39s3.24,3.74,5.27,4.47m-48.41-54.54c3.05,0,5,.89,7.6,2.49,2.12,1.3,3.86,1.47,6.2,2,1.05.25,1.92,1,2.91,1.26a10.37,10.37,0,0,0,3.8-.14c2.58-.26,4.58.59,7,1.25m10.43,2.86c2.76,1.24,5.28.33,8,1.2,1.73.54,3.32,1.45,5,2,0,0,1.81.37,1.87.6s-9.07,2.48-10.36,2.84c-4.72,1.31-10,1.5-14.86,1.87-9.35.73-18.61,1.3-27.87,2.72m82.86-15.11H296.14m-4,0h-1.71m-3.78,0h-3.93m2.93,7.55c1.2-.59,2.12-.74,3.19.17a86.92,86.92,0,0,1,3.19-11.76c.22,2.77.1,5.59.36,8.35s2.82,3.09,5.19,2.41c-2-.87-1.44-4.86-1.58-6.65-.2-2.67-.47-5.32-.75-8-.13-1.23-.52-4.68.63-5.52.37-.28,2.37.05,2.87,0a19.16,19.16,0,0,0,2.61-.78c1.21-.33,2.17,0,2.27-1.56-1.81-.27-6.35.35-7.63-1.09a15.07,15.07,0,0,1-1.34-3.14c-.6-1.42-.79-.37-.17-2.16.86-2.45-.38-6.09-3.55-4.22a3.49,3.49,0,0,0-1.55,2.51c-.14.89.39,1.9-.05,2.72-1.22-1.36-1.92.82-2.94,1.2-1.59.6-1.55-.36-1.89-1.58-.72-2.55-.81-5-2.56-7-.86,2.14.18,3.53.34,5.71.1,1.41-.37,3.18,0,4.55a2.22,2.22,0,0,0,1.63,1.68c.91.34,2.78-.18,3.54.33,1,.64.8,3.3.88,4.39C288.87,240.32,286.38,246.89,285.68,253.33Zm4.2-5.37,2.52.85m-14.92,43.64c2.47,2,5.2,3.54,7.72,5.43a41.09,41.09,0,0,1,8.29,8.82c-2.11-5.52-3.94-10.51-8.57-14.37,2.78,1.95,5.8,3.61,8.45,5.74a32.91,32.91,0,0,1,6.93,8.38c-9.1-27.11-40.52-23.6-62.4-16.59-4.57,1.46-9.06,3.15-13.49,5,13-3,28.39-1.32,37.31,9.59-1.51-4-3.26-8.34-6.05-11.6,6.45,3.92,12.26,7.29,17.4,12.86-1.7-4.11-3.48-8.2-5.05-12.36,6.56,1.82,12.15,7.33,15.89,12.86A68.63,68.63,0,0,0,277.48,292.45Zm45.63,0c-2.46,2-5.19,3.54-7.72,5.43a41.34,41.34,0,0,0-8.29,8.82c2.11-5.52,3.94-10.51,8.58-14.37-2.78,1.95-5.8,3.61-8.45,5.74a32.91,32.91,0,0,0-6.93,8.38c9.1-27.11,40.52-23.6,62.4-16.59,4.57,1.46,9.06,3.15,13.49,5-12.95-3-28.4-1.32-37.32,9.59,1.52-4,3.26-8.34,6.05-11.6-6.44,3.92-12.25,7.29-17.39,12.86,1.7-4.11,3.47-8.2,5-12.36-6.55,1.82-12.15,7.33-15.88,12.86A69.15,69.15,0,0,1,323.11,292.45ZM418,302.08c-4.18-3.25-7.52-7.68-12.35-10-7.3-3.54-15.93-1.17-23.12,1.43-17.58,6.36-35.12,11.95-53.83,13.76-10.83,1.05-21.66.86-32.52.94a217.3,217.3,0,0,1-30.28-1.63,169.67,169.67,0,0,1-26-5.64c-9.68-2.88-19-7-28.7-9.68-6.69-1.83-14.53-3.05-20.67,1-4.25,2.81-6.88,7.4-10.87,10.51m240,4c-3.89-1.74-7.71-4.12-11.93-5-5.12-1-10.27.67-15,2.61-3.88,1.6-7.65,3.45-11.51,5.1A156.33,156.33,0,0,1,341,320.3a314,314,0,0,1-74.23,1c-16-1.6-31.89-4.57-47-10.09-4.87-1.78-9.61-3.86-14.37-5.88-4.55-1.92-9.48-3.84-14.5-3.39s-9.27,3.23-13.68,5.2" fill="none" stroke="#000" stroke-width="0.6"/><path d="M388.37,306.12c-7.79,6.26-15.41,12.71-23.92,18a106.83,106.83,0,0,1-36,14.28,125.4,125.4,0,0,1-24.61,2.21c-8.76,0-17.44,0-26.13-1.21a120.12,120.12,0,0,1-39.94-12.82c-10.52-5.57-20-12.7-29.22-20.14m209.78,0c-11.48,10.54-22.9,21.24-35.81,30.05a135.09,135.09,0,0,1-47.61,20.58c-38.61,8.36-81.49,3.16-115.44-17.58-15-9.14-28-20.9-40.84-32.71M285.68,72.31s2.18-.34,5.54,1.35" fill="none" stroke="#000" stroke-width="0.6"/></svg>