<svg xmlns="http://www.w3.org/2000/svg" xmlns:xlink="http://www.w3.org/1999/xlink" width="300" height="300" viewBox="0 0 300 300"><defs><clipPath id="a"><rect x="2" y="72.76" width="270" height="154.48" stroke-width="2" stroke="#000" stroke-linecap="round" stroke-linejoin="round" fill="#fff"/></clipPath></defs><title>flag-hawaii-union-jack</title><rect x="2" y="72.76" width="270" height="154.48" fill="#fff"/><g clip-path="url(#a)"><rect x="2" y="72.76" width="270" height="154.48" stroke-width="2" stroke="#000" stroke-linecap="round" stroke-linejoin="round" fill="#fff"/><polygon points="279.93 68.24 248.3 68.24 162.71 117.18 162.71 68.08 111.28 68.08 111.28 117.86 29.49 71.1 -0.95 71.1 -0.95 89.28 60.68 124.51 -9.03 124.51 -9.03 134.88 78.83 134.88 105.29 150.01 77.7 165.79 -9.03 165.79 -9.03 176.16 59.56 176.16 -1.84 211.26 -1.84 229.44 28.61 229.44 111.28 182.17 111.28 238.62 162.71 238.62 162.71 182.84 247.01 231.03 278.63 231.03 278.63 213.52 213.28 176.16 277.55 176.16 277.55 165.79 195.13 165.79 167.53 150.01 193.99 134.88 277.55 134.88 277.55 124.51 212.13 124.51 279.93 85.75 279.93 68.24" fill="#fff" stroke="#000" stroke-linecap="round" stroke-linejoin="round" stroke-width="2"/><polygon points="182.07 124.51 274.49 71.67 254.62 71.33 161.62 124.51 182.07 124.51" fill="#fff" stroke="#000" stroke-linecap="round" stroke-linejoin="round" stroke-width="2"/><polygon points="91.84 124.51 -1.92 70.9 -1.92 82.6 71.39 124.51 91.84 124.51" fill="#fff" stroke="#000" stroke-linecap="round" stroke-linejoin="round" stroke-width="2"/><polygon points="91.72 176.16 0.04 228.56 20.5 228.56 112.18 176.16 91.72 176.16" fill="#fff" stroke="#000" stroke-linecap="round" stroke-linejoin="round" stroke-width="2"/><polygon points="277.55 134.88 152.43 134.88 152.43 68.08 121.56 68.08 121.56 134.88 -9.03 134.88 -9.03 165.79 121.56 165.79 121.56 238.62 152.43 238.62 152.43 165.79 277.55 165.79 277.55 134.88" fill="#fff" stroke="#000" stroke-linecap="round" stroke-linejoin="round" stroke-width="2"/><polygon points="202.73 176.16 182.26 176.16 278.29 231.02 278.73 219.58 202.73 176.16" fill="#fff" stroke="#000" stroke-linecap="round" stroke-linejoin="round" stroke-width="2"/></g><rect x="2" y="72.76" width="270" height="154.48" stroke-width="2" stroke="#000" stroke-linecap="round" stroke-linejoin="round" fill="none"/></svg>