<svg version="1.1" id="svg2" text-rendering="auto" color-rendering="auto" image-rendering="auto" shape-rendering="auto" xmlns="http://www.w3.org/2000/svg" x="0" y="0" viewBox="0 0 600 400" xml:space="preserve"><style>.st5{fill-rule:evenodd;clip-rule:evenodd;fill:#fec500}</style><g id="g12512" transform="translate(-204.173 -223.297) scale(1.75995)"><path id="rect607" d="M116 126.9h340.9v227.3H116V126.9z" fill-rule="evenodd" clip-rule="evenodd" fill="#003271"/><path id="path630" d="M284.4 203.3s-.5 62.9-.5 67.5c0 4.6 0 10.9-4.9 9.7-4.9-1.1-11-1.1-19.7-7.4-8.8-6.3-8.8-7.4-8.8-7.4l8.2-2.9s-8.2-1.7-13.7-5.7-9.9-7.4-9.9-7.4-.5 8.6 2.2 14.9c2.7 6.3 8.2 12 8.2 12V269s7.7 7.4 10.4 9.2c2.7 1.7 13.7 6.3 18.1 9.2 4.4 2.9 13.1 10.9 13.1 10.9s7.7-9.2 13.1-11.4c5.5-2.3 12.6-5.7 15.9-8 3.3-2.3 12.1-10.9 12.1-10.9v9.7s6-7.4 7.7-12.6c1.6-5.1 2.2-14.3 2.2-14.3s-4.4 3.4-8.2 5.1c-3.8 1.7-14.8 6.3-14.8 6.3l8.8 2.3s-14.2 11.4-19.2 13.7c-4.9 2.3-15.3 3.4-15.3-2.3s.5-72.7.5-72.7l-5.5.1h0z" fill-rule="evenodd" clip-rule="evenodd" fill="#fec500" stroke="#fec500" stroke-width=".642" stroke-miterlimit="10"/><path id="rect631" fill-rule="evenodd" clip-rule="evenodd" fill="#fec500" stroke="#fec500" stroke-width=".642" stroke-linecap="square" stroke-miterlimit="10" d="M284.9 182.1h3.8v17.2h-3.8z"/><path id="path629" d="M257.5 199.3s15.3-3.4 29.6-3.4c14.2 0 29 3.4 29 3.4v6.3s-19.7 2.9-31.2 2.9-27.9-3.4-27.9-3.4l.5-5.8h0z" fill-rule="evenodd" clip-rule="evenodd" fill="#fec500" stroke="#003271" stroke-width=".642" stroke-miterlimit="10"/><path id="path640" d="M292.6 196.4c0 3.8-2.6 6.9-5.8 6.9-3.2 0-5.8-3.1-5.8-6.9 0-3.8 2.6-6.9 5.8-6.9 3.2 0 5.8 3.1 5.8 6.9zm2.7-.3c0 5.2-3.9 9.4-8.8 9.4-4.8 0-8.8-4.2-8.8-9.4s3.9-9.4 8.8-9.4 8.8 4.2 8.8 9.4z" fill-rule="evenodd" clip-rule="evenodd" fill="#fec500" stroke="#003271" stroke-width=".803" stroke-linecap="square" stroke-miterlimit="10"/><path id="polygon616" class="st5" d="M286.5 143.5l3.9 9.5 10.4 1-8 6.6 2.3 10-8.9-5.5-9 5.2 2.6-10-7.9-6.8 10.4-.7 4.2-9.3z"/><path id="polygon617" class="st5" d="M332.6 154.8l-1.4 10.2 8.6 6-10.2 1.7-3 9.8-5-9.2h-10.4l7.2-7.4-3.4-9.8 9.4 4.6 8.2-5.9z"/><path id="polygon618" class="st5" d="M366.6 185.7l-5.7 8.6 5.1 9.1-10-2.9-7 7.6-.5-10.4-9.4-4.5 9.7-3.5 1.1-10.3 6.5 8.2 10.2-1.9z"/><path id="polygon619" class="st5" d="M382.7 230.8l-8.9 5.1.4 10.5-7.6-7.1-9.6 3.6 4.3-9.5-6.3-8.3 10.2 1.3 5.7-8.7 2 10.3 9.8 2.8z"/><path id="polygon620" class="st5" d="M378 277.7l-10.3.4-4.5 9.5-3.4-9.8-10.2-1.3 8.2-6.5-1.8-10.3 8.5 5.8 9.1-5.1-2.9 10.1 7.3 7.2z"/><path id="polygon621" class="st5" d="M240.2 154.7l7.7 6.8 9.8-3.7-4.3 9.4 6.5 8-10.4-1-5.8 8.7-2.1-10.1-10-2.6 9.1-5.2-.5-10.3z"/><path id="polygon622" class="st5" d="M310.7 309.8l.1 10.3 9.4 4.7-9.9 3.2-1.5 10.2-6.3-8.3-10.3 1.6 6-8.3-4.8-9.2 10 3.2 7.3-7.4z"/><path id="polygon623" class="st5" d="M221.6 180.5l.8 10.3 9.7 4-9.6 3.9-.8 10.2-6.8-7.9-10.2 2.3 5.4-8.7-5.5-8.8 10.2 2.5 6.8-7.8z"/><path id="polygon624" class="st5" d="M200.6 217.6l5.6 8.6 10.4-1.1-6.6 8 4.2 9.4-9.7-3.7-7.8 6.9.6-10.3-9-5.2 10.1-2.7 2.2-9.9z"/><path id="polygon625" class="st5" d="M198.9 259.9l9.1 4.8 8.6-6-1.9 10.2 8.2 6.2-10.3 1.5-3.5 9.8-4.4-9.3-10.4-.1 7.6-7.2-3-9.9z"/><path id="polygon626" class="st5" d="M232.5 289.6l2.8 9.9 10.3 2.1-8.7 5.6 1.1 10.2-8.2-6.4-9.5 4.2 3.7-9.6-7-7.6 10.5.5 5-8.9z"/><path id="polygon627" class="st5" d="M277 314.1l-4.7 9.1 6 8.6-10.2-1.9-6.1 8.2-1.6-10.3-9.8-3.5 9.2-4.5.1-10.4 7.3 7.5 9.8-2.8z"/><path id="polygon628" class="st5" d="M339.6 290.1l5.2 8.9 10.5-.5-7 7.6 3.7 9.6-9.5-4.2-8.2 6.5 1.1-10.2-8.7-5.6 10.2-2.2 2.7-9.9z"/></g></svg>