<svg xmlns="http://www.w3.org/2000/svg" width="600" height="400" viewBox="0 0 600 400"><title>flag-washington-dc-icon-coat-of-arms</title><path d="M239.08,326.07c-28.78-.3-69.55-25.06-69.72-68.58l-.81-213.88H431.62l-.42,219.93c0,35.4-34.63,61.77-68.41,62.09-57.26.54-62.9,28.31-62.92,28.38C299.79,354.26,293.9,326.62,239.08,326.07Z" fill="#fff" stroke="#000" stroke-width="1.73"/><path d="M430.52,140.57H169.65m0,47.55H430.52M169.84,270.41H430.33m0-47.56H169.84" fill="#fff" stroke="#000" stroke-width="1.73"/><polygon points="315.91 102.04 341.51 83.44 309.87 83.44 300.09 53.34 290.31 83.44 258.66 83.44 284.26 102.04 274.48 132.14 300.09 113.54 325.69 132.14 315.91 102.04" fill="#fff" stroke="#000" stroke-width="1.73"/><polygon points="399.35 102.04 424.95 83.44 393.3 83.44 383.52 53.34 373.74 83.44 342.1 83.44 367.7 102.04 357.92 132.14 383.52 113.54 409.13 132.14 399.35 102.04" fill="#fff" stroke="#000" stroke-width="1.73"/><polygon points="232.47 102.04 258.07 83.44 226.43 83.44 216.65 53.34 206.87 83.44 175.22 83.44 200.82 102.04 191.04 132.14 216.65 113.54 242.25 132.14 232.47 102.04" fill="#fff" stroke="#000" stroke-width="1.73"/></svg>