<svg xmlns="http://www.w3.org/2000/svg" width="260" height="300" viewBox="0 0 260 300"><title>flag-indiana-icon-stars</title><path d="M169.38,49.45h8.89l2.93-8.69,2.72,8.71h9l-6.94,5.64,2.52,8.25-7.34-5-7.27,5L176.32,55Z" fill="none" stroke="#000" stroke-linecap="round" stroke-linejoin="round" stroke-width="2"/><path d="M208.45,84.36h8.9l2.93-8.69L223,84.38h9L225,90l2.51,8.25-7.33-5-7.27,5,2.47-8.37Z" fill="none" stroke="#000" stroke-linecap="round" stroke-linejoin="round" stroke-width="2"/><path d="M229.2,134.6h8.89l2.93-8.69,2.72,8.71h9l-6.95,5.64,2.52,8.25-7.34-5-7.27,5,2.48-8.36Z" fill="none" stroke="#000" stroke-linecap="round" stroke-linejoin="round" stroke-width="2"/><path d="M186.9,151.46h8.9l2.93-8.69,2.71,8.71h9l-6.94,5.64,2.51,8.25-7.33-5-7.27,5,2.47-8.36Z" fill="none" stroke="#000" stroke-linecap="round" stroke-linejoin="round" stroke-width="2"/><path d="M221.14,190.2H230L233,181.5l2.71,8.72h9l-6.94,5.64,2.51,8.25-7.33-5-7.27,5,2.47-8.37Z" fill="none" stroke="#000" stroke-linecap="round" stroke-linejoin="round" stroke-width="2"/><path d="M189.81,233.18h8.9l2.93-8.69,2.71,8.71h9l-6.94,5.64,2.51,8.25-7.33-5-7.28,5,2.48-8.36Z" fill="none" stroke="#000" stroke-linecap="round" stroke-linejoin="round" stroke-width="2"/><path d="M165.88,199.87h8.89l2.93-8.69,2.72,8.72h9l-6.95,5.64,2.52,8.25-7.34-5-7.27,5,2.48-8.37Z" fill="none" stroke="#000" stroke-linecap="round" stroke-linejoin="round" stroke-width="2"/><path d="M143.17,259.87h8.89l2.93-8.69,2.72,8.71h8.95l-6.94,5.64,2.52,8.26-7.34-5-7.27,5,2.48-8.36Z" fill="none" stroke="#000" stroke-linecap="round" stroke-linejoin="round" stroke-width="2"/><path d="M86.91,259.87H95.8l2.93-8.69,2.72,8.71h9l-7,5.64,2.52,8.26-7.34-5-7.27,5,2.48-8.36Z" fill="none" stroke="#000" stroke-linecap="round" stroke-linejoin="round" stroke-width="2"/><path d="M66.84,199.87h8.9l2.93-8.69,2.71,8.72h9l-6.94,5.64,2.51,8.25-7.33-5-7.27,5,2.47-8.37Z" fill="none" stroke="#000" stroke-linecap="round" stroke-linejoin="round" stroke-width="2"/><path d="M40.17,233.18h8.89L52,224.49l2.72,8.71h9l-7,5.64,2.52,8.25-7.34-5-7.27,5,2.48-8.36Z" fill="none" stroke="#000" stroke-linecap="round" stroke-linejoin="round" stroke-width="2"/><path d="M9.43,190.2h8.89l2.93-8.69L24,190.22h9L26,195.86l2.52,8.25-7.34-5-7.27,5,2.48-8.37Z" fill="none" stroke="#000" stroke-linecap="round" stroke-linejoin="round" stroke-width="2"/><path d="M2.5,134.6h8.89l2.93-8.69L17,134.62h9l-6.95,5.64,2.52,8.25-7.34-5-7.27,5,2.48-8.36Z" fill="none" stroke="#000" stroke-linecap="round" stroke-linejoin="round" stroke-width="2"/><path d="M45.6,151.46h8.89l2.93-8.69,2.72,8.71h9l-6.95,5.64,2.52,8.25-7.34-5-7.27,5,2.48-8.36Z" fill="none" stroke="#000" stroke-linecap="round" stroke-linejoin="round" stroke-width="2"/><path d="M23.7,84.36h8.89l2.93-8.69,2.72,8.72h9l-7,5.65,2.52,8.25-7.34-5-7.27,5,2.48-8.37Z" fill="none" stroke="#000" stroke-linecap="round" stroke-linejoin="round" stroke-width="2"/><path d="M63,49.45h8.89l2.93-8.69,2.72,8.71h9l-6.94,5.64,2.52,8.25-7.34-5-7.27,5L70,55Z" fill="none" stroke="#000" stroke-linecap="round" stroke-linejoin="round" stroke-width="2"/><path d="M116.29,34.87h8.9l2.93-8.68,2.71,8.71h9l-6.94,5.64,2.51,8.25-7.33-5-7.28,5,2.48-8.36Z" fill="none" stroke="#000" stroke-linecap="round" stroke-linejoin="round" stroke-width="2"/><path d="M116.42,218.43h8.89l2.93-8.69,2.72,8.71h9L133,224.09l2.51,8.25-7.33-5-7.28,5,2.48-8.36Z" fill="none" stroke="#000" stroke-linecap="round" stroke-linejoin="round" stroke-width="2"/><path d="M113.67,75.51l11,0,3.62-10.74,3.35,10.74H142.7l-8.58,7,3.11,10.19-9-6.11-9,6.17,3.06-10.34Z" fill="none" stroke="#000" stroke-linecap="round" stroke-linejoin="round" stroke-width="2"/></svg>