<svg xmlns="http://www.w3.org/2000/svg" width="300" height="300" viewBox="0 0 300 300"><path fill="none" stroke="#000" d="M190.39 49.61l-.84-7.32 7.39-2.71-7.87-1.85-.85-7.32-4.06 6.15-7.87-1.85 5.39 5.67-4 6.21 7.32-2.71 5.39 5.73zM216.5 61.82l.93-7.31 7.76-.89-7.22-3.66.93-7.31-5.41 5.03-7.15-3.66 3.87 6.77-5.4 5.09 7.75-.89 3.94 6.83zM242.63 68.41l3.03-6.75-6.62 3.35-5.88-5.63 1.79 7.61-6.61 3.34 7.73 1.42 1.73 7.61 3.03-6.75 7.67 1.43-5.87-5.63zM268.1 98.41l-4.51-6.74 4.39-5.94-7.18 1.79-4.45-6.68.06 7.79-7.18 1.8 7.18 3.03.12 7.85 4.33-5.93 7.24 3.03zM276.46 113.87l-3.34-7.38-1.22 7.79-7.34.61 6.64 4.15-1.16 7.72 5.26-5.17 6.64 4.15-3.4-7.31 5.26-5.17-7.34.61zM287.99 156.25l-1.33-7.93 6.47-3.62-7.3-1.36-1.33-7.93-3.16 7.13-7.24-1.36 5.32 5.78-3.16 7.19 6.41-3.62 5.32 5.72zM283.89 172.22l-6.84-2.86 4.01 6.79-4.63 6.31 7.07-2.16 3.94 6.73.45-8.07 7.01-2.16-6.77-2.81.39-8.08-4.63 6.31zM290.3 209.42l-5.98-4.3 2.18-7.82-5.87 5.11-6.04-4.29 2.32 7.47-5.87 5.11 7.35-.46 2.32 7.46 2.24-7.82 7.35-.46zM267.41 245.95l3.71-7.2 7.32.91-5.08-5.35 3.71-7.21-6.8 3.83-5.09-5.35.85 7.76-6.8 3.88 7.32.92.86 7.81zM246.92 269.89l5.5-5.93 6.81 2.9-3.34-6.55 5.5-5.88-7.61 1.86-3.34-6.62-1.36 7.73-7.61 1.85 6.81 2.91-1.36 7.73zM110.5 42.05l-.37 7.36 5.01-6.07 7.49 2.23-4.39-5.94 5.01-6-7.73 2.35-4.46-5.87-.37 7.36-7.73 2.35 7.54 2.23zM74.67 54.49l7.8.44 1.36 7.24 3.53-7.06 7.79.44-5.69-4.77 3.46-6.99L86 47.88l-5.7-4.71 1.37 7.24-7 4.08zM51.34 73.91l7.67-1.42 3.03 6.74 1.73-7.6 7.74-1.43-6.62-3.34 1.79-7.61-5.87 5.63-6.62-3.34 3.03 6.74-5.88 5.63zM43.38 88.89l.07-7.8-4.46 6.68-7.17-1.79 4.39 5.94-4.52 6.74 7.24-3.03 4.33 5.94.12-7.86 7.18-3.03-7.18-1.79zM28.07 114.36l-1.52-7.73-3.06 7.5-7.35-.32 5.45 4.96-3.11 7.44 6.47-4.41 5.46 4.96-1.46-7.66 6.47-4.41-7.35-.33zM25.65 141.36l-7.18 1.67-3.46-6.99-.99 7.98-7.24 1.67 6.62 3.34-.99 7.98 5.07-5.94 6.56 3.34-3.46-7.05 5.07-6zM22.54 168.93l-6.68 3.22-4.95-6.06.81 8.04-6.62 3.15 7.11 1.8.87 8.04 3.59-6.93 7.17 1.8-4.95-6.07 3.65-6.99zM15.82 205.31L10 209.83l7.37.19 2.53 7.73 2.04-7.55 7.36.19-6.06-4.89 2.04-7.55-5.87 4.52-6.06-4.89 2.47 7.73zM26.64 234.51l-4.71 5.69 7.24-1.42 4.21 6.92.31-7.85 7.24-1.43-7.06-3.4.31-7.79-4.7 5.69-7.05-3.34 4.21 6.93zM43.92 260.06l-3.34 6.56 6.81-2.91 5.5 5.94-1.36-7.73 6.81-2.91-7.61-1.86-1.36-7.73-3.34 6.62-7.61-1.86 5.5 5.88z"/></svg>