<svg xmlns="http://www.w3.org/2000/svg" width="300" height="300" viewBox="0 0 300 300"><title>flag-usvi-icon-vi</title><path d="M43.28,216.89c4.88-2,8.39-3.91,8.38-9.11,0-1.24-.69-4-2.08-8.23L16.84,99.47a85.63,85.63,0,0,0-4.09-10.78c-1.47-2.82-4.36-4-8.25-5.58H46.12c-4.52,2.13-8.65,3.83-8.61,8.62a28.44,28.44,0,0,0,1.59,7.74L64.19,178,89.25,99.47a27,27,0,0,0,1.59-7.74c0-4.92-4.34-6.7-8.56-8.62h40.33c-3.68,1.47-6.69,2.63-8.23,5.58a85.63,85.63,0,0,0-4.09,10.78L77.55,199.55a50.61,50.61,0,0,0-2.08,8.33s-1.5,6.33,8.38,9Z" fill="none" stroke="#000" stroke-miterlimit="10" stroke-width="1.5"/><path d="M219.6,206.6V93.3a8.61,8.61,0,0,0-1-4.51,17.77,17.77,0,0,0-7.47-5.68h37.5a15.44,15.44,0,0,0-7.47,5.63,8.88,8.88,0,0,0-1,4.56V206.6a8.89,8.89,0,0,0,1,4.66c.67,1.08,3.43,3.71,7.44,5.63h-37.5a19.49,19.49,0,0,0,7.47-5.68A8.82,8.82,0,0,0,219.6,206.6Z" fill="none" stroke="#000" stroke-miterlimit="10" stroke-width="1.5"/></svg>