<svg xmlns="http://www.w3.org/2000/svg" width="290" height="300" viewBox="0 0 290 300"><path d="M108.79 210.1c-1.41-.86-2.83-1.7-4.25-2.56a1.24 1.24 0 01-.53-.66c-11.45-7.17-24-12.2-36.91-16.26-1.85-.64-3.21-1.51-4.76-2.2-6.13-1.71-11.73-4.66-17.78-6.58a37 37 0 01-9.31-4c-6-2.62-14.81-8.38-16.2-15.33-1.19-9.88 4.66-20.86 13.41-25.33v-.05c-1.63-1.83-.25-6.34-.84-8.41-.37-2.36-.69-4.57-.88-6.73a1.19 1.19 0 00-.84-.55c-6.5 12-18.13 20.72-22.32 34.47a1.41 1.41 0 010 1c-.18.43-.39.85-.58 1.28s-.27 1.07-.37 1.63v-.74a89.31 89.31 0 00-4.2 10.13c-.1 2.79-.16 5.58-.16 8.39a17.74 17.74 0 001.61 5c.54 1 1.19 2 1.64 3.07 5.42 4.65 13.58 41.88 36 47.77 7.09 3.47 16.13 2.95 23.68 4.31 13.79 1.1 27.79 2.76 40.36 9.15 3.38 2.15 5.88 4.14 6.87 7.76 2.6-.24 1.46-3.15 1.77-4.73.2-5.08-.39-9.51-.06-14.39l.1.21a8 8 0 011-3.6c.13-7.59-.92-15.02-6.45-22.05zM286.05 145.8a2.58 2.58 0 00-.6.13c-1.5.57-2.37 2.38-3.16 3.7-4.8 11-14.31 19.24-26.42 21.27-1.13.34-2.2.8-3.31 1.17-5.18 2.81-11.31 4.68-16.58 6.77-6.78 2.7-14 3.57-21.25 4.26-10.49 5.88-22.75 7.89-33 14.39-3.62 3.62-6.8 6.2-7.88 11.64a26.7 26.7 0 000 9.18c.15.14 1.09 3.73 1.1 3.77s0 .08 0 .12c0 .64.05 1.3.07 2a7 7 0 01.1 2.79c.28 9.65.29 19.61 3.1 28.67a1.59 1.59 0 001.95.8c14.25-23.27 42.71-26.61 66.32-35 7.43-2.17 16.79-3.7 24.51-7l.37.32c2.54-1.81 5.61-1.5 7.61-4.16a1.76 1.76 0 010 .23c.76-1.17 1.55-2.32 2.36-3.46a291.67 291.67 0 004.71-61.59z"/><path d="M29.84 137c-4.65 1.87-6.11 4.88-9.47 8.84-.14.89-1.15 2.46-1.62 3.88-2.26 5.81-3.37 14.53 1.85 20 4.59 7.14 13.55 9.49 20.09 12.42l.73.65.34-.35c5.16 3.3 11.6 3.81 17.09 6.77 15.92 7.14 33.27 10.76 47.75 22.14.43 2.62 3.23 2.54 3.84 5.28 4.35 11.37 1.4 22.24 1.4 33.25-10.2-8.76-24.39-10.73-37.7-12.92-17.69-3.07-40.06.42-49.89-18.43C19 207.3 12 197.57 8.55 185.35c-10.55-22.15 8.84-41.1 20.62-59.41 1 2.74.2 7.54.65 11M280.25 199.54c-.42 8.93-5.5 11.85-12.73 14.35a500.73 500.73 0 00-59.89 17.6c-10.3 5-21.94 11.16-27.52 22.1l-1.79-6.53c-1.32-14.06-.55-28.37-1.32-42.28l1.48-2.86c11-8.19 24.76-10.34 36.38-17.48 1.53-.77 3.51 1.06 4.51-.36 16.78 1.73 28.05-11.34 43.32-13.36 9.79-3.82 16.08-8.55 21.43-19.16 1 16.15-1.61 31.84-3.85 48" fill="#fff"/><path d="M88.13 28.94l-1-5.68 12.06-2.15 6 33.6L98 56l-5-27.9zM114.2 28.37c-.23-5.84 4.45-9.92 10.62-10.13s11.15 3.44 11.36 9.29a8.2 8.2 0 01-4.62 7.69 8.7 8.7 0 016.44 8.47c.24 6.14-5.44 10.18-11.76 10.45s-12.29-3.35-12.53-9.55a8.7 8.7 0 015.73-8.91 8.22 8.22 0 01-5.21-7.27zm6.8 15.24c.1 2.5 2 5.14 5 5s4.67-2.91 4.57-5.41a5 5 0 00-5-5c-3 .12-4.67 2.89-4.57 5.43zm-.16-15.51c.1 2.28 1.79 4.78 4.53 4.62s4.22-2.69 4.14-5a4.57 4.57 0 00-4.51-4.5c-2.73.07-4.22 2.69-4.15 4.88M158.56 25.58l-1.64 5.1h1.89a11.69 11.69 0 0111.31 12.62c-.47 7.3-6.4 11.87-14.4 11.34a14.77 14.77 0 01-10.83-5.24l2.54-5.53a10.83 10.83 0 008.17 5 6.59 6.59 0 007.14-6.3 7 7 0 00-6.86-7.22 9.89 9.89 0 00-6.16 1.83l-1.15-.06 5.18-17.66L170 20.54l-.35 5.77zM181.25 30c1.41-5.65 7-8.27 13-6.77s9.75 6.42 8.35 12.07a8.26 8.26 0 01-6.6 6.07 8.75 8.75 0 013.77 9.92c-1.49 6-8.07 8.26-14.2 6.73s-10.86-6.65-9.37-12.62a8.71 8.71 0 018-6.95 8.35 8.35 0 01-2.95-8.5zm2.28 16.53a5 5 0 003.37 6.2c3 .77 5.3-1.47 5.91-3.89s-.41-5.5-3.36-6.22a5 5 0 00-5.92 3.86zm4.2-14.92c-.55 2.25.37 5 3 5.73s4.83-1.42 5.36-3.6-.37-5-3-5.65a4.55 4.55 0 00-5.35 3.52M186.89 207.39l.63-1.65 8.62-3.58.93 28.88-5.63.15-.89-21.19zM206.41 201.35c-.16-4.92 3.44-8.35 8.19-8.48a8.07 8.07 0 018.71 7.95 7 7 0 01-3.56 6.46c3.15 1.12 4.78 3.88 4.87 7.22.18 5.2-4.2 8.58-9.08 8.76s-9.41-2.95-9.58-8.19c-.11-3.3 1.33-6.17 4.43-7.44a7.12 7.12 0 01-4-6.28zm5.2 13c.06 2.13 1.47 4.35 3.82 4.27s3.6-2.42 3.51-4.48-1.46-4.43-3.8-4.35-3.61 2.41-3.53 4.56zm-.08-13.11c.06 1.93 1.36 4 3.47 4s3.25-2.29 3.19-4.16-1.34-4-3.45-3.94-3.27 2.25-3.21 4.12M234.18 212a26.29 26.29 0 006.88-2.8c2.85-1.85 3.07-3.85 3.07-3.85a45.92 45.92 0 01-5.87 1.65c-5.31.15-8.73-4.33-8.88-9.3a9.82 9.82 0 019.84-10.55c5.72-.17 10.24 3.7 10.44 9.51.1 3.47.08 9.65-1.65 12-5.56 7.74-12.51 7.93-12.51 7.93l-1.32-4.59M259.27 201.82a3.93 3.93 0 003.88 2.47c2.52-.08 3.78-2.51 3.72-4.79s-1.69-4.72-4.21-4.45l-1 .12-.14-4h.61c2.42-.08 3.65-1.69 3.57-4.08-.08-1.93-1.32-3.66-3.43-3.58a2.85 2.85 0 00-2.51 1.68l-3.39-3.87a8.57 8.57 0 016.11-2.46c5-.16 8.4 2.87 8.56 7.83.08 2.22-.65 4.77-2.56 6.12 2.69 1.07 3.87 4.25 4 6.91.18 5.65-3.8 9.32-9.32 9.51a9.44 9.44 0 01-8.83-5.16z"/><path d="M236 197.16c.06 1.93 1.36 4 3.47 4s3.27-2.22 3.19-4.13-1.34-4-3.45-3.94-3.27 2.29-3.21 4.12" fill="#fff"/><path d="M30.92 193.35l1-1.45 9.16-1.78-4.91 28.45-5.53-1L34 196.66zM47.35 204c.41-4.92 4.37-7.9 9.12-7.5s8.15 4 7.76 8.88a7.07 7.07 0 01-4.31 6c3 1.42 4.33 4.37 4 7.71-.41 5.2-5.14 8.09-10 7.66s-9.06-4-8.63-9.19c.28-3.34 2-6 5.26-6.95a7.06 7.06 0 01-3.2-6.61zM51 217.49c-.15 2.12 1 4.51 3.31 4.7s3.86-2 4-4.08-1-4.54-3.31-4.74-3.86 2-4 4.12zm1.44-13c-.16 1.93.89 4.15 3 4.31s3.56-1.89 3.67-3.8-.89-4.12-3-4.32-3.48 1.9-3.64 3.73M84.67 231a26 26 0 007.43 0c3.33-.57 4.31-2.38 4.31-2.38a48.68 48.68 0 01-6.06-.69c-5-1.85-6.46-7.3-4.73-12a9.8 9.8 0 0113.12-6c5.35 1.94 8.07 7.26 6.06 12.71-1.2 3.23-3.56 9-6.06 10.49-8.06 5.09-14.6 2.66-14.6 2.66l.53-4.73"/><path d="M92 217.88c-.67 1.81-.26 4.23 1.71 5s3.88-.85 4.53-2.62.26-4.19-1.71-5-3.88.89-4.53 2.62" fill="#fff"/><path d="M71.54 207.64l1-1.46 9.16-1.77-4.91 28.51-5.55-1 3.41-21z"/></svg>