<svg xmlns="http://www.w3.org/2000/svg" width="600" height="418" viewBox="0 0 600 418"><title>flag-connecticut-dimensions</title><line x1="50.35" y1="209.35" x2="50.35" y2="211.85" fill="none" stroke="#a3a3a3" stroke-linecap="round" stroke-linejoin="round"/><line x1="50.35" y1="216.81" x2="50.35" y2="373.05" fill="none" stroke="#a3a3a3" stroke-linecap="round" stroke-linejoin="round" stroke-dasharray="4.96 4.96"/><polyline points="50.35 375.53 50.35 378.03 52.85 378.03" fill="none" stroke="#a3a3a3" stroke-linecap="round" stroke-linejoin="round"/><line x1="57.74" y1="378.03" x2="104.23" y2="378.03" fill="none" stroke="#a3a3a3" stroke-linecap="round" stroke-linejoin="round" stroke-dasharray="4.89 4.89"/><line x1="106.67" y1="378.03" x2="109.17" y2="378.03" fill="none" stroke="#a3a3a3" stroke-linecap="round" stroke-linejoin="round"/><line x1="109.17" y1="3.41" x2="106.67" y2="3.41" fill="none" stroke="#a3a3a3" stroke-linecap="round" stroke-linejoin="round"/><line x1="101.78" y1="3.41" x2="55.3" y2="3.41" fill="none" stroke="#a3a3a3" stroke-linecap="round" stroke-linejoin="round" stroke-dasharray="4.89 4.89"/><polyline points="52.85 3.41 50.35 3.41 50.35 5.91" fill="none" stroke="#a3a3a3" stroke-linecap="round" stroke-linejoin="round"/><line x1="50.35" y1="10.82" x2="50.35" y2="145.85" fill="none" stroke="#a3a3a3" stroke-linecap="round" stroke-linejoin="round" stroke-dasharray="4.91 4.91"/><line x1="50.35" y1="148.31" x2="50.35" y2="150.81" fill="none" stroke="#a3a3a3" stroke-linecap="round" stroke-linejoin="round"/><line x1="426.65" y1="402.02" x2="429.15" y2="402" fill="none" stroke="#a3a3a3" stroke-linecap="round" stroke-linejoin="round"/><line x1="434.13" y1="401.95" x2="591.08" y2="400.55" fill="none" stroke="#a3a3a3" stroke-linecap="round" stroke-linejoin="round" stroke-dasharray="4.98 4.98"/><polyline points="593.57 400.53 596.07 400.5 596.07 398" fill="none" stroke="#a3a3a3" stroke-linecap="round" stroke-linejoin="round"/><line x1="596.07" y1="394.32" x2="596.07" y2="388.78" fill="none" stroke="#a3a3a3" stroke-linecap="round" stroke-linejoin="round" stroke-dasharray="3.69 3.69"/><line x1="596.07" y1="386.94" x2="596.07" y2="384.44" fill="none" stroke="#a3a3a3" stroke-linecap="round" stroke-linejoin="round"/><line x1="118.63" y1="385.95" x2="118.63" y2="388.45" fill="none" stroke="#a3a3a3" stroke-linecap="round" stroke-linejoin="round"/><line x1="118.63" y1="392.14" x2="118.63" y2="397.68" fill="none" stroke="#a3a3a3" stroke-linecap="round" stroke-linejoin="round" stroke-dasharray="3.69 3.69"/><polyline points="118.63 399.52 118.63 402.02 121.13 402.02" fill="none" stroke="#a3a3a3" stroke-linecap="round" stroke-linejoin="round"/><line x1="126.09" y1="402.02" x2="292.28" y2="402.02" fill="none" stroke="#a3a3a3" stroke-linecap="round" stroke-linejoin="round" stroke-dasharray="4.96 4.96"/><line x1="294.77" y1="402.02" x2="297.27" y2="402.02" fill="none" stroke="#a3a3a3" stroke-linecap="round" stroke-linejoin="round"/><path d="M5.72,188.22l-.42-.35a4.63,4.63,0,0,0,.81-2.6l.16-1.15H4.89c-1.06,0-2.25,0-2.92,0l0,0-.27-1.19,0-.05,5.41-6.77,0,0,1.69-.5.06,0c-.16.88-.32,1.91-.45,2.81l-.61,4.44H8.2a1.49,1.49,0,0,0,1.18-.34l.23.16-.74,1.47,0,0c-.37,0-.76-.06-1.18-.07l-.23,1.62c-.12.91-.11,1-.51,1.44C6.69,187.39,6.34,187.72,5.72,188.22Zm.73-5.34.47-3.45c.13-.88.23-1.84.3-2.47-2.81,3.57-4,5.12-4.42,5.85.66,0,1.38.07,2.16.07Z" fill="#727272"/><path d="M15.45,189l-1.19-1.25,1.44-10.24H14.28l.11-.73H15.8l.18-1.25a3.89,3.89,0,0,1,1.45-2.78c.9-1,1.22-1.22,2.21-1.22h1.13l0,0-.23.61c-.18.46-.25.53-.42.53s-.75,0-1.21,0c-1,0-1.27.39-1.45,1.59l-.35,2.51h2.21v.73H17L16.25,183c-.23,1.59-.43,3.29-.55,4.53l.51.78v0Z" fill="#727272"/><path d="M22.26,184.28c-2.18,0-3-.87-2.74-2.83l.23-1.67A3.74,3.74,0,0,1,21.66,177a3.4,3.4,0,0,1,2-.6c1.36,0,2.05.64,2.05,1.8a8.75,8.75,0,0,1-.26,1.77l-1.28.69H20.92l-.08.5c-.22,1.62.5,2.15,2.09,2.15a4.55,4.55,0,0,0,2.62-.84h0v.21A3.71,3.71,0,0,1,22.26,184.28ZM21,179.89h3.24a8.91,8.91,0,0,0,.19-1.41c0-.84-.49-1.26-1.57-1.26s-1.56.58-1.72,1.7Z" fill="#727272"/><path d="M29.58,184.28c-2.17,0-3-.87-2.74-2.83l.23-1.67A3.74,3.74,0,0,1,29,177a3.43,3.43,0,0,1,2-.6c1.36,0,2.05.64,2.05,1.8a8.88,8.88,0,0,1-.27,1.77l-1.27.69H28.24l-.07.5c-.23,1.62.49,2.15,2.09,2.15a4.54,4.54,0,0,0,2.61-.84h0v.21A3.69,3.69,0,0,1,29.58,184.28Zm-1.23-4.39h3.23a8,8,0,0,0,.2-1.41c0-.84-.5-1.26-1.58-1.26s-1.55.58-1.71,1.7Z" fill="#727272"/><path d="M36.61,184.24c-1.42,0-2-.53-1.83-1.87l.75-4.9H34.11l.11-.73h1.43L36,174.5l1.32-.2,0,0L37,176.74h2.37v.73H36.87l-.72,4.72c-.11.71.17,1,1.25,1a3.27,3.27,0,0,0,1.45-.36h0l0,.16A3,3,0,0,1,36.61,184.24Z" fill="#727272"/><path d="M46.49,188.22l-.42-.35c.41-.61.57-.8.81-2.6l.16-1.15H45.66c-1.06,0-2.24,0-2.91,0l0,0-.27-1.19,0-.05,5.41-6.77,0,0,1.7-.5,0,0c-.16.88-.32,1.91-.44,2.81l-.62,4.44H49a1.48,1.48,0,0,0,1.18-.34l.23.16-.74,1.47,0,0c-.37,0-.76-.06-1.19-.07l-.23,1.62c-.12.91-.1,1-.51,1.44A15.29,15.29,0,0,1,46.49,188.22Zm.73-5.34.48-3.45c.12-.88.23-1.84.3-2.47-2.81,3.57-4,5.12-4.42,5.85.65,0,1.38.07,2.15.07Z" fill="#727272"/><path d="M55.53,183l.57-3.17a18.5,18.5,0,0,0,.34-2.53H55.32l.11-.74,2.6-.09,0,0-1.12,6.1c-.07.43.14.64.71.64a4.94,4.94,0,0,0,.92-.11l0,.14a2.63,2.63,0,0,1-2,1C55.73,184.24,55.37,183.89,55.53,183Zm1-9.07c-.17-.34-.1-.45.38-.69s.72-.36.84-.36.25.09.5.57.11.44-.37.69-.73.35-.85.35S56.77,174.37,56.52,173.9Z" fill="#727272"/><path d="M60.12,184.33l-.06-.05.78-4.69c.25-1.45-.11-2.18-.88-2.32v-.09l1.16-.79h.07a1.49,1.49,0,0,1,1,1.36,3.31,3.31,0,0,1,2.62-1.36,2,2,0,0,1,2,2.62l-.62,3.64c-.1.67.5.72,1.14.62l0,.14a2.86,2.86,0,0,1-1.77.83c-.7,0-.92-.33-.79-1l.67-4c.21-1.22-.3-1.78-1.47-1.78-1,0-1.59.56-1.82,1.91l-.76,4.61-.09.07Z" fill="#727272"/><path d="M69,181.45l.23-1.67A3.64,3.64,0,0,1,71.05,177a3.94,3.94,0,0,1,2-.64,4.28,4.28,0,0,1,1.68.3l0,.07L74.35,178h-.07a4.42,4.42,0,0,0-2.3-.59c-.86,0-1.16.38-1.34,1.61l-.34,2.36c-.19,1.34.52,1.89,1.86,1.89a3.85,3.85,0,0,0,2.41-.87h0v.21a3.73,3.73,0,0,1-3,1.67C69.51,184.28,68.71,183.41,69,181.45Z" fill="#727272"/><path d="M75.75,184.33l0-.05L77,175.63a26,26,0,0,0,.35-3.1l-.88,0,.07-.57,2.35-.09,0,0-.83,5.52a3.49,3.49,0,0,1,2.33-1c1.63,0,2.34,1.08,2.07,2.62l-.62,3.64c-.1.67.5.72,1.13.62l0,.14a2.86,2.86,0,0,1-1.77.83c-.71,0-.92-.33-.8-1l.68-4c.21-1.22-.32-1.78-1.4-1.78a2,2,0,0,0-1.82,1l-.83,5.51L77,184Z" fill="#727272"/><path d="M87.36,184.28c-2.18,0-3-.87-2.74-2.83l.22-1.67A3.75,3.75,0,0,1,86.76,177a3.4,3.4,0,0,1,2-.6c1.36,0,2,.64,2,1.8A8.88,8.88,0,0,1,90.5,180l-1.27.69H86l-.07.5c-.23,1.62.5,2.15,2.09,2.15a4.57,4.57,0,0,0,2.62-.84h0v.21A3.68,3.68,0,0,1,87.36,184.28Zm-1.24-4.39h3.23a8,8,0,0,0,.2-1.41c0-.84-.5-1.26-1.57-1.26s-1.56.58-1.72,1.7Z" fill="#727272"/><path d="M91.76,184l0,0-.07-1.28.06,0a7.26,7.26,0,0,0,2.84.62c.82,0,1-.28,1.15-1.16s-.09-1.12-.86-1.19l-.73-.07c-1.57-.16-2.16-.34-1.93-1.86a2.27,2.27,0,0,1,1.35-1.91c1-.6,1.31-.69,1.73-.69s1.45.08,2,.09l0,0-.32.76c-.09.23-.21.32-.4.32s-1.49-.2-2.27-.2c-.6,0-.78.27-.88,1.12s.09,1.11.86,1.18l.73.07c1.57.16,2.16.34,1.93,1.86a2.27,2.27,0,0,1-1.37,1.91,3.38,3.38,0,0,1-2,.71A6.12,6.12,0,0,1,91.76,184Z" fill="#727272"/><path d="M312.51,410.74h-1.2l0,0,.34-.76c.21-.48.31-.58.54-.58s1.15,0,1.91,0a2.14,2.14,0,0,0,1.44-.44,2.37,2.37,0,0,0,1.07-1.82l.08-.51c.24-1.74-1.1-2.07-3.81-2.3v-.06l1.34-5.3.05-.06h3.45a1.52,1.52,0,0,0,1.19-.33l.23.16-.78,1.5,0,0c-.49,0-1-.05-1.84-.05h-1.84l-.72,2.86c2.92.34,4.53.85,4.21,3.13l-.05.39c-.16,1.19-1.12,2-2.23,2.83A5.09,5.09,0,0,1,312.51,410.74Z" fill="#727272"/><path d="M324.18,412,323,410.7l1.43-10.24H323l.1-.72h1.42l.18-1.26a3.82,3.82,0,0,1,1.45-2.78c.9-.95,1.21-1.22,2.21-1.22h1.13l0,0-.23.62c-.18.46-.25.53-.43.53s-.74,0-1.2,0c-1,0-1.28.39-1.45,1.6l-.36,2.51h2.22v.72h-2.32L325,406c-.23,1.59-.42,3.29-.55,4.52l.51.78v0Z" fill="#727272"/><path d="M331,407.27c-2.17,0-3-.87-2.74-2.83l.23-1.66a3.75,3.75,0,0,1,1.91-2.8,3.43,3.43,0,0,1,2-.6c1.36,0,2.05.64,2.05,1.81a8.8,8.8,0,0,1-.27,1.76l-1.27.69h-3.22l-.07.5c-.23,1.63.49,2.16,2.09,2.16a4.55,4.55,0,0,0,2.61-.85h0v.21A3.69,3.69,0,0,1,331,407.27Zm-1.23-4.39H333a7.89,7.89,0,0,0,.2-1.41c0-.83-.5-1.26-1.58-1.26s-1.55.59-1.71,1.7Z" fill="#727272"/><path d="M338.32,407.27c-2.18,0-3-.87-2.74-2.83l.23-1.66a3.75,3.75,0,0,1,1.91-2.8,3.4,3.4,0,0,1,2-.6c1.36,0,2.05.64,2.05,1.81a9.45,9.45,0,0,1-.26,1.76l-1.28.69H337l-.07.5c-.23,1.63.5,2.16,2.09,2.16a4.58,4.58,0,0,0,2.62-.85h0v.21A3.68,3.68,0,0,1,338.32,407.27Zm-1.24-4.39h3.24a8.76,8.76,0,0,0,.19-1.41c0-.83-.5-1.26-1.57-1.26s-1.56.59-1.72,1.7Z" fill="#727272"/><path d="M345.34,407.23c-1.41,0-2-.53-1.82-1.87l.74-4.9h-1.41l.1-.72h1.43l.34-2.25,1.33-.19h0l-.37,2.43h2.37v.72h-2.47l-.73,4.72c-.11.71.18,1,1.26,1a3.44,3.44,0,0,0,1.45-.35h0l0,.16A3,3,0,0,1,345.34,407.23Z" fill="#727272"/><path d="M354.68,407.27c-1.8,0-2.78-1-2.48-3.25l.2-1.45a8.23,8.23,0,0,1,2.07-5,5.71,5.71,0,0,1,3.43-2.12l.05,0,.13.78c.05.33,0,.4-.29.49-1,.34-2.07.25-2.81,1.11-.42.5-.62.87-.94,3a3.52,3.52,0,0,1,2.55-1,2.11,2.11,0,0,1,2.26,2.6l-.16,1.17a3.54,3.54,0,0,1-1.76,2.86A4.2,4.2,0,0,1,354.68,407.27Zm.78-.92c1.24,0,1.54-.49,1.75-2l.19-1.37c.23-1.6-.31-2.16-1.55-2.16a2.19,2.19,0,0,0-1.93.86l-.28,2C353.39,405.5,354.06,406.35,355.46,406.35Z" fill="#727272"/><path d="M364,406l.57-3.16a16.67,16.67,0,0,0,.33-2.53h-1.11l.1-.75,2.6-.08h0l-1.11,6.1c-.07.43.14.64.7.64a4.67,4.67,0,0,0,.92-.1l0,.14a2.67,2.67,0,0,1-2,1C364.22,407.23,363.86,406.88,364,406Zm1-9.07c-.18-.34-.11-.44.37-.69s.73-.35.85-.35.25.08.5.56.1.44-.38.69-.72.35-.84.35S365.26,397.37,365,396.89Z" fill="#727272"/><path d="M368.6,407.32l-.05-.05.78-4.69c.24-1.45-.11-2.17-.89-2.31v-.09l1.17-.8h.07a1.51,1.51,0,0,1,1,1.36,3.31,3.31,0,0,1,2.62-1.36,2,2,0,0,1,2,2.62l-.62,3.64c-.11.68.5.73,1.13.62l0,.14a2.89,2.89,0,0,1-1.77.83c-.71,0-.92-.33-.8-1l.68-4c.21-1.22-.3-1.79-1.47-1.79-1,0-1.59.57-1.82,1.91l-.76,4.62-.09.07Z" fill="#727272"/><path d="M377.46,404.44l.23-1.66a3.71,3.71,0,0,1,1.84-2.76,4,4,0,0,1,2.05-.64,4.39,4.39,0,0,1,1.68.3l0,.07-.46,1.24h-.07a4.46,4.46,0,0,0-2.3-.58c-.87,0-1.17.37-1.34,1.61l-.34,2.35c-.19,1.34.51,1.89,1.86,1.89a3.83,3.83,0,0,0,2.4-.86h0v.21a3.76,3.76,0,0,1-3,1.66C378,407.27,377.2,406.4,377.46,404.44Z" fill="#727272"/><path d="M384.24,407.32l-.05-.05,1.3-8.65a24.81,24.81,0,0,0,.36-3.09l-.89,0,.07-.56,2.36-.09v0l-.83,5.51a3.51,3.51,0,0,1,2.34-1c1.62,0,2.33,1.08,2.07,2.62l-.62,3.64c-.11.68.49.73,1.13.62l0,.14a2.86,2.86,0,0,1-1.76.83c-.71,0-.92-.33-.8-1l.67-4c.21-1.22-.32-1.79-1.39-1.79a2.09,2.09,0,0,0-1.83,1l-.83,5.52-.09.07Z" fill="#727272"/><path d="M395.84,407.27c-2.17,0-3-.87-2.74-2.83l.23-1.66a3.75,3.75,0,0,1,1.91-2.8,3.4,3.4,0,0,1,2-.6c1.37,0,2.06.64,2.06,1.81A8.8,8.8,0,0,1,399,403l-1.27.69H394.5l-.07.5c-.23,1.63.49,2.16,2.08,2.16a4.55,4.55,0,0,0,2.62-.85h0v.21A3.69,3.69,0,0,1,395.84,407.27Zm-1.24-4.39h3.24a7.89,7.89,0,0,0,.2-1.41c0-.83-.5-1.26-1.58-1.26s-1.55.59-1.71,1.7Z" fill="#727272"/><path d="M400.25,407l0,0-.07-1.27,0,0a7.55,7.55,0,0,0,2.85.62c.81,0,1-.29,1.15-1.17s-.09-1.11-.87-1.19l-.72-.07c-1.58-.15-2.16-.33-1.93-1.85a2.23,2.23,0,0,1,1.34-1.91c1-.6,1.31-.69,1.74-.69s1.45.07,2,.09l0,0-.32.76a.41.41,0,0,1-.41.32c-.3,0-1.48-.19-2.26-.19-.6,0-.78.26-.89,1.11s.09,1.11.87,1.19l.72.07c1.58.15,2.16.33,1.93,1.85a2.24,2.24,0,0,1-1.36,1.91,3.4,3.4,0,0,1-2.05.71A6.07,6.07,0,0,1,400.25,407Z" fill="#727272"/><path d="M118.63,3.08H596.46V378.59H118.63V3.08Z" fill="#fff" stroke="#50d6cc" stroke-linecap="round" stroke-linejoin="round"/><path d="M331.25,72.39c0,.43,1.39,1,3.91,1a56.65,56.65,0,0,1,6.24.42c2,.31,2.51-.23,1.89-.84C342.37,71.87,331.25,71.41,331.25,72.39Z" fill="#50d6cc"/><path d="M381.22,72.39l-2.5,1.12,5.72.31c3.06,0,6-.46,6-.77s-1.08-.77-2.3-.77a8.58,8.58,0,0,1-3.24-.61c-.67-.3-2.15,0-3.68.72Z" fill="#50d6cc"/><path d="M358.68,49.25a24.67,24.67,0,0,1-2.45,3.19,5,5,0,0,0-1.16,2.46c0,1-.18.86-.67-.55-1.11-3-2-3.5-4-2.46a15,15,0,0,1-3.86,1.29,5.84,5.84,0,0,0-2.82,1.17c-.31.49-2.08,1-3.8,1.1-3.61.31-5.39,1.29-10,5.46a6.44,6.44,0,0,1-2.7,1.72c-1.16,0-1.1.37.49,2.15.86,1,1.72,1.41,2.39,1.23a1.3,1.3,0,0,1,1.47.31,3.26,3.26,0,0,0,2,.67c1.35.06,1.23.18-.85.74a12.36,12.36,0,0,0-5,3.43c-2.81,3-3.12,3.75-1.47,3.75a2.87,2.87,0,0,1,1.84.73c.37.37,2.15.74,3.92.8,2.82.06,3.25.31,3.43,1.41.25,1.72,1,1.72,5.08-.12a21.22,21.22,0,0,0,9.25-7.06c1.78-2.45,1.84-3.74.19-3.74-1.17,0-1.9-3-1.11-4.24,1-1.59,3.8-1.59,5.45,0,1.35,1.29,1.6,1.29,4,.56,2.2-.74,2.69-.74,4.47.24,2,1.11,2.08,1.11,3.61-.49,1.71-1.72,4-2.09,5.21-.86,1,1,.91,4.11-.19,4.54s-1.16,1.66.06,4c1.35,2.58,3.55,4.36,8,6.57s5,2.27,5.63.55c.37-1.1,1-1.35,3.67-1.41,1.72-.06,3.5-.43,3.86-.8a2.89,2.89,0,0,1,1.84-.73c1.72,0,1.35-1-1.41-3.87A13.87,13.87,0,0,0,388,67.73c-2.08-.56-2.21-.68-.86-.74a3.21,3.21,0,0,0,2-.67,1.31,1.31,0,0,1,1.47-.31c.68.18,1.53-.25,2.39-1.23,1.59-1.78,1.65-2.15.49-2.15a6.77,6.77,0,0,1-2.69-1.78c-4.11-3.92-6.86-5.28-11.52-5.52-.43-.06-.86-.68-1-1.35-.31-1.11-.67-1.23-2.39-.92a31.17,31.17,0,0,1-3.24.49,9.66,9.66,0,0,0-3.37,1.53c-2.15,1.42-3,1.11-3.06-1A9,9,0,0,0,364,50.73a12.24,12.24,0,0,1-2.14-2.95c0-1.23-1.9-.31-3.19,1.47ZM362.6,52a11.29,11.29,0,0,1,2.64,3.32c.85,2.82,1.76,3.23,4.7,1.64a11.26,11.26,0,0,1,3.86-1.45,3.69,3.69,0,0,0,2.21-.79c1.22-1.23,1.08-.48.1,2.71-1.41,4.66.15,1.33-3.52-.82-.13-.12-1.46,3-.85,2.33s1-1.6.82-1.78c-.37-.37-6,3.21-7.07,4.62-.73,1-.55,1-2.21.18s-1.7-.81-1.7-5.6c0-2.88-.57-4.93-.94-4.93S360,53.71,360,56.6c0,4.72-.09,4.59-1.62,5.14-2.14.86-2.93.89-2.56,0s-4.69-6.15-5.36-5.53a3,3,0,0,0,.86,2.34,3.51,3.51,0,0,1,1,1.59,19.39,19.39,0,0,1-2.17.08c-2.14.12-2.54.26-3.7-1.09a6.36,6.36,0,0,1-1.31-2c0-.92,2.3-2.15,3.59-2.15.73,0,1.18-.3,1.18-.6s.48-.81,1-1c1.16-.43,2.42,1.36,2.42,3a1.79,1.79,0,0,0,.84,1.43c.74.62,1.33.67,1.89-.74.3-.86.66-1.81.66-1.93A8.44,8.44,0,0,1,358.39,53a7.65,7.65,0,0,0,1.94-2.52c0-.92.13-.59,2.27,1.56Zm-19.23,5.87c0,1.66-1.83,2.74-4.65,2.74-2.08,0-5,1.34-5,2.2,0,.3.54.54,1.15.3a16,16,0,0,1,2.76-.73c1.47-.24,1.55-.26,1.55,1.09a8.4,8.4,0,0,1-.42,2.37c-.43,1-2.52,1.22-2.52.24,0-.37-.82-.56-1.86-.56s-1.64-.31-1.64-.68-.74-.53-1.59-.28c-2.15.55-2.09-.39-.37-2.11,3.12-3.07,5.8-4.71,8.55-5.2,4.35-.74,4.06-.91,4.06.62Zm39,0c3.07.49,9.53,5,8.73,6.25-.24.31-.49.37-1.35.19s-1.52,0-1.52.43-.64.68-1.68.68-2.12,0-2.12.36c0,1.23-1.75,1-2.11-.42s1.57-2.22,2.8-2.54c2,.12,3.9-.36,3.9-.61,0-.74-1.84-1.17-5-1.17A8.74,8.74,0,0,1,378,59.18c-.07,0-.21-.47,0-1.21.24-1,.27-1.24,1.25-1,.68.18,2.28.63,3.38.81Zm-36.08,3.54c2,1.84,1.48,2.78-1.58,2.84L342,64.6l2.38,1c1.35.36,3.32.8,4.3,1.59l1.71,1.42-2,1c-2.39,1.17-2.67.74-5.36-.24-1.22-.43-2-.7-1.78-1.2A.92.92,0,0,0,341,67.1c-1-.67-.22-3.36,1.62-5a11.36,11.36,0,0,1,2.11-1.67,3.51,3.51,0,0,1,1.55,1.06Zm32.16.8c1.41,1.29,2,3.09,1.66,5.79-.13,1.1-2.49,2.3-4.64,2.3-1.77,0-4.19-1.71-3.58-2.69.19-.37,1.91-1.1,3.5-2.14,1.84-1.23,2.47-2.51,1.74-2.51a4.15,4.15,0,0,0-2.42,1c-1.59,1.42-1.09.46.56-1.45s1.29-2,3.18-.29Zm-39.06,8.27c.37.55,2.31,1.32,4.33,1.51,3.31.36,3.43,0,2.45,1.08-.61.67-2.78,1.72-4.8,2.7-3.37,1.72-3.54,1.91-3.78.93-.31-1.6-1.34-2-3.6-1.66-2,.37-5.91-.62-5.91-1.48s3.24-3.81,4.46-4.12c2-.61,6.12.06,6.85,1Zm51.58,1c1,1.1,1.81,1.82,1.81,2.07,0,1-3.44,1.73-5.77,1.37s-3.51.15-3.57,1.75c0,.31-.33.44-1,.38a22.67,22.67,0,0,1-7.56-4.24c-.86-1-1-.56,2.21-.86,2-.19,3.78-.74,4-1.11.73-1.17,3.15-1.73,5.72-1.42A5.67,5.67,0,0,1,391,71.59Z" fill="#50d6cc"/><path d="M307.57,125.85c-1.51.6-3.61,1-4,2.61.1.6,1.2.7,2.1.5-.1-1.11.2-1.51,1.61-1.21-.2-.6.2-1.2.3-1.9Z" fill="#fff" stroke="#50d6cc" stroke-width="0.3"/><path d="M410.69,125.85c1.5.6,3.61,1,4,2.61-.1.6-1.2.7-2.11.5.11-1.11-.2-1.51-1.6-1.21.2-.6-.2-1.2-.3-1.9Z" fill="#fff" stroke="#50d6cc" stroke-width="0.3"/><path d="M367.1,178.07c1.3.4,3.3.9,3.6,2.31,0,.6-1,.6-1.9.5.1-1-.2-1.4-1.5-1.2.2-.51-.2-1.11-.2-1.61Z" fill="#fff" stroke="#50d6cc" stroke-width="0.3"/><path d="M369.6,71.11c1.1,0,2.11.2,3.21.3,6.81,19.69,39.58,19.69,46.4,6.93-3.51-3.21-4.21-5.62-3.81-9.94.3-2.51.9-7.53,7.52-7.83,2.5-.1,4.11,1.6,4.31,8.83.5,11.75-14.13,23.81-28,23-9.62-.6-30.27-6.73-29.67-21.29Z" fill="#fff"/><path d="M328,157.18a10.3,10.3,0,0,0-1.4-3.72c0,.21-.8.41-.8.21a11.38,11.38,0,0,1,1.3,3.31,4.12,4.12,0,0,0,.8.3h0l.1-.1ZM329,122a10.3,10.3,0,0,0-1.4-3.72c0,.2-.8.41-.8.2a11.44,11.44,0,0,1,1.3,3.32,4.12,4.12,0,0,0,.8.3h0l.1-.1Zm-26.15,10.24a10.25,10.25,0,0,1,1.4-3.71c0,.2.8.4.8.2a11.38,11.38,0,0,0-1.3,3.31,4.12,4.12,0,0,1-.8.3h0l-.1-.1Z" fill="#fff" stroke="#50d6cc" stroke-width="0.3"/><path d="M327.41,155.37a3.37,3.37,0,0,1,1.2.4c.81.81,2.41,2.51,2.41,3.62,0-.8.9-3,.1-3.72-.5-.7-3.11-.8-3.71-.3Zm0,.4c-.5,0-1,.61-1.3,1.11-.5,1.3-1.41,3.92-.9,5.22-.4-1.1-2.41-3-2-4.32.4-1,3.21-2.41,4.21-2Zm-.3-.9a2.15,2.15,0,0,0-1.1,1.21c-.5,1.2-1.61,3.81-.9,5.22-.51-1.11-2.41-3-2.11-4.42.3-1.11,3.31-2.41,4.11-2Zm1.3-34.65a3.43,3.43,0,0,1,1.21.4c.8.81,2.4,2.51,2.4,3.62,0-.8.9-3,.1-3.72-.5-.7-3.11-.8-3.71-.3Zm0,.4c-.5,0-1,.61-1.3,1.11-.5,1.3-1.4,3.92-.9,5.22-.4-1.1-2.41-3-2-4.32.4-1,3.21-2.41,4.21-2Zm-.3-.9a2.16,2.16,0,0,0-1.1,1.2c-.5,1.21-1.6,3.82-.9,5.23-.5-1.11-2.41-3-2.11-4.42.3-1.11,3.31-2.41,4.11-2Zm-24.65,10.75a3.37,3.37,0,0,0-1.2.4c-.81.8-2.41,2.51-2.41,3.61,0-.8-.9-3-.1-3.71.5-.71,3.11-.81,3.71-.3Zm0,.4c.5,0,1,.6,1.3,1.1.5,1.31,1.4,3.92.9,5.22.4-1.1,2.41-3,2-4.31-.4-1-3.21-2.41-4.21-2Zm.3-.91a2.18,2.18,0,0,1,1.1,1.21c.5,1.2,1.61,3.81.9,5.22.5-1.1,2.41-3,2.11-4.42-.3-1.1-3.31-2.41-4.11-2Z" fill="#fff" stroke="#50d6cc" stroke-width="0.3"/><path d="M327.11,155a2.42,2.42,0,0,0-1.3.8c-.6.81-1.71,2.82-1,3.62-.51-.8-2.81-2.11-2.41-3,.4-.71,3.71-1.71,4.71-1.41Zm-.1.1a2.08,2.08,0,0,1,1.3,1.31c.5,1.1,1.51,3.81.9,5.12.51-1,2.41-2.91,2.11-4.32-.4-1-3.31-2.51-4.31-2.11Zm1.1-35.25a2.42,2.42,0,0,0-1.3.8c-.6.81-1.7,2.82-1,3.62-.5-.8-2.81-2.11-2.41-3,.4-.71,3.71-1.71,4.71-1.41Zm-.1.1a2.08,2.08,0,0,1,1.3,1.31c.51,1.1,1.51,3.81.91,5.12.5-1,2.4-2.91,2.1-4.32-.4-1-3.31-2.51-4.31-2.11Zm-24.25,10.14a2.43,2.43,0,0,1,1.3.81c.6.8,1.71,2.81,1,3.61.51-.8,2.81-2.11,2.41-3-.4-.7-3.71-1.71-4.71-1.41Zm.1.1a2.13,2.13,0,0,0-1.3,1.31c-.5,1.1-1.51,3.82-.9,5.12-.51-1-2.41-2.91-2.11-4.32.4-1,3.31-2.51,4.31-2.11Z" fill="#fff" stroke="#50d6cc" stroke-width="0.1"/><path d="M390.55,157.18a10.3,10.3,0,0,1,1.4-3.72c0,.21.8.41.8.21a11.38,11.38,0,0,0-1.3,3.31,4.12,4.12,0,0,1-.8.3h0l-.1-.1Zm-1-35.15a10.3,10.3,0,0,1,1.4-3.72c0,.2.8.41.8.2a11.44,11.44,0,0,0-1.3,3.32,4.12,4.12,0,0,1-.8.3h0l-.1-.1Zm26.15,10.24a10.25,10.25,0,0,0-1.4-3.71c0,.2-.8.4-.8.2a11.38,11.38,0,0,1,1.3,3.31,4.12,4.12,0,0,0,.8.3h0l.1-.1Z" fill="#fff" stroke="#50d6cc" stroke-width="0.3"/><path d="M391.15,155.37a3.37,3.37,0,0,0-1.2.4c-.81.81-2.41,2.51-2.41,3.62,0-.8-.9-3-.1-3.72.5-.7,3.11-.8,3.71-.3Zm0,.4c.5,0,1,.61,1.3,1.11.5,1.3,1.4,3.92.9,5.22.4-1.1,2.41-3,2-4.32-.4-1-3.21-2.41-4.21-2Zm.3-.9a2.15,2.15,0,0,1,1.1,1.21c.5,1.2,1.61,3.81.9,5.22.5-1.11,2.41-3,2.11-4.42-.3-1.11-3.31-2.41-4.11-2Zm-1.3-34.65a3.43,3.43,0,0,0-1.21.4c-.8.81-2.4,2.51-2.4,3.62,0-.8-.9-3-.1-3.72.5-.7,3.11-.8,3.71-.3Zm0,.4c.5,0,1,.61,1.3,1.11.5,1.3,1.4,3.92.9,5.22.4-1.1,2.41-3,2-4.32-.41-1-3.21-2.41-4.21-2Zm.3-.9a2.16,2.16,0,0,1,1.1,1.2c.5,1.21,1.6,3.82.9,5.23.5-1.11,2.41-3,2.11-4.42-.3-1.11-3.31-2.41-4.11-2Zm24.65,10.75a3.37,3.37,0,0,1,1.2.4c.8.8,2.41,2.51,2.41,3.61,0-.8.9-3,.1-3.71-.5-.71-3.11-.81-3.71-.3Zm0,.4c-.5,0-1,.6-1.3,1.1-.5,1.31-1.41,3.92-.9,5.22-.41-1.1-2.41-3-2-4.31.4-1,3.21-2.41,4.21-2Zm-.3-.91a2.18,2.18,0,0,0-1.1,1.21c-.5,1.2-1.61,3.81-.9,5.22-.51-1.1-2.41-3-2.11-4.42.3-1.1,3.31-2.41,4.11-2Z" fill="#fff" stroke="#50d6cc" stroke-width="0.3"/><path d="M391.45,155a2.42,2.42,0,0,1,1.3.8c.6.81,1.71,2.82,1,3.62.51-.8,2.81-2.11,2.41-3-.4-.71-3.71-1.71-4.71-1.41Zm.1.1a2.08,2.08,0,0,0-1.3,1.31c-.5,1.1-1.51,3.81-.91,5.12-.5-1-2.4-2.91-2.1-4.32.4-1,3.31-2.51,4.31-2.11Zm-1.1-35.25a2.42,2.42,0,0,1,1.3.8c.6.81,1.7,2.82,1,3.62.5-.8,2.81-2.11,2.41-3-.4-.71-3.71-1.71-4.71-1.41Zm.1.1a2.1,2.1,0,0,0-1.31,1.31c-.5,1.1-1.5,3.81-.9,5.12-.5-1-2.4-2.91-2.1-4.32.4-1,3.31-2.51,4.31-2.11Zm24.25,10.14a2.43,2.43,0,0,0-1.3.81c-.6.8-1.71,2.81-1,3.61-.5-.8-2.8-2.11-2.4-3,.4-.7,3.71-1.71,4.71-1.41Zm-.1.1a2.13,2.13,0,0,1,1.3,1.31c.5,1.1,1.51,3.82.9,5.12.51-1,2.41-2.91,2.11-4.32-.4-1-3.31-2.51-4.31-2.11Z" fill="#fff" stroke="#50d6cc" stroke-width="0.1"/><path d="M346.75,208.7a10.13,10.13,0,0,1,1.41-3.72c0,.21.8.41.8.21a11.42,11.42,0,0,0-1.31,3.31,4.12,4.12,0,0,1-.8.3h0l-.1-.1Zm-1-35.15a10.3,10.3,0,0,1,1.4-3.72c0,.21.81.41.81.21a11,11,0,0,0-1.31,3.31,4.12,4.12,0,0,1-.8.3h0l-.1-.1Zm26.16,10.24a10.07,10.07,0,0,0-1.41-3.71c0,.2-.8.4-.8.2a11.71,11.71,0,0,1,1.31,3.31,4.12,4.12,0,0,0,.8.3h0l.1-.1Z" fill="#fff" stroke="#50d6cc" stroke-width="0.3"/><path d="M347.35,206.89a3.37,3.37,0,0,0-1.2.4c-.8.81-2.4,2.52-2.4,3.62,0-.8-.91-3-.1-3.72.5-.7,3.1-.8,3.7-.3Zm0,.4c.5,0,1,.61,1.31,1.11.5,1.3,1.4,3.92.9,5.22.4-1.1,2.4-3,2-4.32-.4-1-3.2-2.41-4.21-2Zm.3-.9a2.13,2.13,0,0,1,1.11,1.21c.5,1.2,1.6,3.81.9,5.22.5-1.11,2.4-3,2.1-4.42-.3-1.11-3.3-2.41-4.11-2Zm-1.3-34.65a3.37,3.37,0,0,0-1.2.4c-.8.81-2.41,2.52-2.41,3.62,0-.8-.9-3-.1-3.72.5-.7,3.11-.8,3.71-.3Zm0,.4c.5,0,1,.61,1.3,1.11.51,1.3,1.41,3.92.91,5.22.4-1.1,2.4-3,2-4.32-.4-1-3.21-2.41-4.21-2Zm.3-.9a2.15,2.15,0,0,1,1.1,1.21c.51,1.2,1.61,3.81.91,5.22.5-1.11,2.4-3,2.1-4.42-.3-1.11-3.31-2.41-4.11-2ZM371.31,182a3.37,3.37,0,0,1,1.2.4c.8.8,2.4,2.51,2.4,3.61,0-.8.91-3,.1-3.71-.5-.71-3.1-.81-3.7-.3Zm0,.4c-.51,0-1,.6-1.31,1.1-.5,1.31-1.4,3.92-.9,5.23-.4-1.11-2.4-3-2-4.32.4-1,3.2-2.41,4.21-2Zm-.31-.91a2.18,2.18,0,0,0-1.1,1.21c-.5,1.2-1.6,3.82-.9,5.22-.5-1.1-2.4-3-2.1-4.42.3-1.1,3.3-2.41,4.1-2Z" fill="#fff" stroke="#50d6cc" stroke-width="0.3"/><path d="M347.65,206.49a2.41,2.41,0,0,1,1.31.8c.6.81,1.7,2.82,1,3.62.5-.8,2.81-2.11,2.4-3-.4-.71-3.7-1.71-4.71-1.41Zm.1.1a2.08,2.08,0,0,0-1.3,1.31c-.5,1.1-1.5,3.81-.9,5.12-.5-1-2.41-2.91-2.1-4.32.4-1,3.3-2.51,4.3-2.11Zm-1.1-35.25a2.49,2.49,0,0,1,1.31.8c.6.81,1.7,2.82,1,3.62.5-.8,2.8-2.11,2.4-3-.4-.71-3.71-1.71-4.71-1.41Zm.1.1a2.08,2.08,0,0,0-1.3,1.31c-.5,1.1-1.5,3.81-.9,5.12-.5-1-2.41-2.91-2.11-4.32.4-1,3.31-2.51,4.31-2.11ZM371,181.58a2.43,2.43,0,0,0-1.3.81c-.6.8-1.7,2.81-1,3.61-.5-.8-2.81-2.11-2.41-3,.41-.7,3.71-1.71,4.71-1.41Zm-.1.1a2.12,2.12,0,0,1,1.31,1.31c.5,1.11,1.5,3.82.9,5.12.5-1,2.4-2.91,2.1-4.32-.4-1-3.3-2.51-4.31-2.11Z" fill="#fff" stroke="#50d6cc" stroke-width="0.1"/><path d="M412.29,300c-9.22,11.24-13.84,7.27-23.73,4.3s-20.43-7.92-30-10.23-33.29-4-47.79-4.63c-13.43-.62-18.09-6-18.45-10.24.09,0,4.26-1.1,12.95-.23s9.23.67,11-2a12.84,12.84,0,0,0,1.2-2.2,2.84,2.84,0,0,0,1.22-2.52c0-3.32-2.31-8.26-26-8.26-8.06,0-14-.27-18.56-.71l7-18.12c2.14-5.94-7.75-6.93-7.75-6.93-9.23,0-16.32.16-20.93-1-8.7-2.17-15.49-3-28.67-2.31s-23.73.67-41.53-4.62c1.65,6.78,14.83,16,14.83,16l-20.76,9.59,5.93,1.49c17.8,5.28,28.34,5.28,41.53,4.62,10-.5,16.39-.16,22.69,1l-4.59,14.78c8.32,8.64,14.1,13.18,40.34,15.71l-5,6.38,1.08.22c9.46,13,14.73,17.17,36.7,17.62s32.09.22,49,7.92,24.68,10.4,38.08,6.44c0,0,.24.69,2.68-5,2.73-6.46,3.41-18.79,6-21s6.16-8.37,6.16-8.37L412.29,300" fill="#50d6cc"/><path d="M472.94,270.16c2.86,1.32,5.93,2.2,15.16-.45s36-7.25,50.1-6.16c-5.49-4.84-20-12.11-20-12.11l14.72-12.11a33,33,0,0,1-9-1.1c-15.6-4.4-30.54.66-43.73,6.17-2.61,1.09-4.76,1.91-6.55,2.53L470.52,236s-5.36-3.92-18.08.35c-11.6,3.9-14.22,10.22-13.56,11.76S445,260,445,260l-.13.37a142.47,142.47,0,0,1-18.77,6.89c-21.76,6.61-26.59,9.68-45.93,23.79l5.06,12.11,10.54,3.3a13.87,13.87,0,0,0,4.84.66l.26.17c11-7.52,17.73-10.51,34.46-15.59,21.75-6.61,32.51-13,30.1-19.16l-3.73-10.13s4.83-2.86,6.8-2l4.4,9.69" fill="#50d6cc"/><path d="M248,259.2l2.57-9c.37-2.21,3.81-3.57,13.47-2.16,6.67,1,12,2,15-.4l.14-.06c.4-4.29-5.65-3.88-5.65-3.88h-.16c-9.23,0-16.32.16-20.93-1-8.7-2.18-15.49-3-28.68-2.32-12.08.61-20.57,1-35.83-3,3,3.63,10.59,9.19,10.59,9.19l-15.14,7.07c17.8,5.29,27.2,5,40.38,4.29,10.89-.55,17.42-.09,24.27,1.29" fill="#fff"/><path d="M293.33,278.62a37.83,37.83,0,0,1,11.21.17c7.48,1.08,10.23.35,10.83-.61l-4.89,11.26s-19,.22-18.14-10.57" fill="#fff"/><path d="M416.52,298.24l-3.95,5.65a19.19,19.19,0,0,1-3.68,3.81c-6.5,4.95-14.12,2.55-22.63.55-9.89-3-20.44-7.92-30-10.24s-33.29-3.95-47.79-4.62-18.79-6.94-18.46-11.23a5.11,5.11,0,0,1,.28-1.34l2.44-4.35.36-.47c1.63-2,5.83-1.81,13.07-.77,4.62.65,7.75.75,9.73.24l.16-.57c0-3.31-2-6.94-25.7-6.94s-29.18-2.31-34.45-4.63c-3.11-1.36-7.59-5.88-6.74-8.82l-5.35,17.41c9,9.48,13.35,14.32,40.82,17L280,295.72c9.44,13,14.72,17.16,36.69,17.6s32.08.22,49,7.92c16.55,7.56,24.88,10.16,37.79,6.56l.86-.25" fill="#fff"/><path d="M251.06,252.74c1.22,2.65,4.79,5.59,7.15,6.63,3.51,1.54,7.09,3.07,16.11,3.93l0,0,5.16-14c-2.14,5.94-9.11,4.37-17.62,3.13" fill="#fff"/><path d="M471.73,265.58c2.86,1.33,5.93,2.21,15.16-.43s29.29-7.31,43.35-6.21l-12.87-7.13,9.08-8.23c-15.6-4.41-30.55.65-43.73,6.16s-14.73,4.41-16.48,2.41l-3.52-6.82a5.17,5.17,0,0,1,2.86-4.18c2.64-1.1,3.07-1.32,3.07-1.32s-2.85-4-13.84,0-11.65,9-11.42,9.91a18.25,18.25,0,0,0,4.39-1.1c2.2-.88,7.47-4,9-.22s1.53,4.51,1.53,4.51c2.43,6.16-8.56,12.22-30.31,18.82S401.86,281,382.52,295.1l3.22,8.2,9.94,3.3c13.76-9.78,19.93-12.85,38.7-18.54,21.75-6.61,32.52-13,30.1-19.17L461,259.2s4-3.51,6.38-2.64l4.39,9" fill="#fff"/><path d="M255.2,271.91c-1,1.37-1.11,3.23.46,4.24a2.25,2.25,0,0,0,1.06.29L256.5,274l1.75.94.13,1.29a3.74,3.74,0,0,0,1.74-1.38c1-1.32,1-3.35-.41-4.27s-3.48-.09-4.51,1.32l-1.59-1.15a5.39,5.39,0,0,1,7.2-1.7c2.4,1.54,2.61,4.61.94,6.92a6.41,6.41,0,0,1-3.13,2.33l.16,2.06-1.73-.88-.07-1a4.51,4.51,0,0,1-2.44-.75c-2.41-1.54-2.64-4.6-.93-6.94l1.59,1.15" fill="#50d6cc"/><path d="M268.77,272.47l2,.2-1.57,5.25c-.34,1.16-.72,2.81,1,3s2.28-1.45,2.63-2.62l1.57-5.25,2,.2-1.68,5.62c-.69,2.28-2.26,3.91-5,3.66s-3.29-2.1-2.6-4.4l1.67-5.62" fill="#50d6cc"/><path d="M281.68,282.87l-2,0,2-9.44,2,0-2,9.44" fill="#50d6cc"/><path d="M289.63,301.6l-1.6-1.11,4.73-6.78-1.65-1.14,1-1.39,4.86,3.4L296,296l-1.64-1.15-4.71,6.78" fill="#50d6cc"/><path d="M302.58,299.68l-.9,1.69.24.07c1,.32,1.93.26,2.49-.81s-.07-1.53-1.07-1.84l-.25-.08-.51,1-1.91-.53,1.27-2.4,2.56.76c1.91.58,2.83,1.75,1.83,3.64a3.35,3.35,0,0,1-3.28,1.83l.77,4.55-2.29-.69-.46-4.26h0l-1.89,3.55-1.88-.58,3.4-6.39,1.91.53" fill="#50d6cc"/><path d="M314.27,303.07l-1.16,2,2.39.18-.39-3.61h0l-.81,1.42-1.66-.47,2.52-3.83,1.53.12,1.38,10.2-2.1-.15-.27-2.11-3.5-.26-1.32,2-2.07-.16,3.83-5.79,1.66.47" fill="#50d6cc"/><path d="M325.06,299.23l1.42.08,3.84,7h0l1.43-6.5,2,.1-2.17,9.87-1.42-.08-3.83-7h0l-1.45,6.57-2-.1,2.19-9.94" fill="#50d6cc"/><path d="M343.7,303a1.48,1.48,0,0,0-1.29-.92,1.42,1.42,0,0,0-1.51.95c-.44,1.62,3.7,1.34,2.83,4.57a3.85,3.85,0,0,1-4.19,3,2.92,2.92,0,0,1-2.57-2.19l1.59-1.05a1.66,1.66,0,0,0,1.42,1.58,1.63,1.63,0,0,0,1.66-1.26c.27-1-.6-1.37-1.31-1.75-1.14-.64-1.92-1.36-1.51-2.85a3.49,3.49,0,0,1,6.15-1.25L343.7,303" fill="#50d6cc"/><path d="M350.79,311.91l-1.9-.36,2.94-7.89-2-.38.6-1.62,5.81,1.14-.6,1.6-2-.37-2.93,7.88" fill="#50d6cc"/><path d="M359.89,304.05l1.8.71-2.05,5.18c-.45,1.14-1,2.79.54,3.4s2.27-1,2.72-2.1l2-5.19,1.8.72-2.18,5.53c-.89,2.26-2.53,3.6-5,2.61s-2.75-3.08-1.86-5.33l2.19-5.54" fill="#50d6cc"/><path d="M370.4,317.29l2.53,1.06-.65,1.56-4.32-1.8,3.8-9.19,1.79.74-3.15,7.63" fill="#50d6cc"/><path d="M378.66,322.32l-1.83-.65,3.34-9.38,1.83.64-3.34,9.39" fill="#50d6cc"/><path d="M386.9,324.41,385,324l2.27-7.83-2-.39.46-1.61,5.94,1.17-.46,1.6-2-.4-2.27,7.85" fill="#50d6cc"/><path d="M394.86,292.69a1.79,1.79,0,0,0-1.71,0,1.21,1.21,0,0,0-.51,1.59c.82,1.45,3.92-1.1,5.55,1.82a3.15,3.15,0,0,1-1.19,4.57,3.5,3.5,0,0,1-3.61-.19l.49-1.69a2,2,0,0,0,2.27.39,1.32,1.32,0,0,0,.41-1.87c-.5-.9-1.47-.69-2.3-.57-1.36.16-2.5.05-3.25-1.3a2.91,2.91,0,0,1,1.07-4,4.09,4.09,0,0,1,2.91-.36l-.14,1.62" fill="#50d6cc"/><path d="M398.14,288.34l1.72-.91,2.62,4.91c.57,1.07,1.48,2.55,2.93,1.78s.73-2.36.16-3.45L403,285.76l1.71-.91,2.79,5.26c1.15,2.15,1.1,4.25-1.25,5.5s-4.12.13-5.26-2l-2.8-5.25" fill="#50d6cc"/><path d="M413.77,282.87a1.81,1.81,0,0,0-1.69-.12,1.19,1.19,0,0,0-.62,1.54c.7,1.52,4-.79,5.39,2.24a3.14,3.14,0,0,1-1.52,4.47,3.56,3.56,0,0,1-3.59-.45l.62-1.65a2,2,0,0,0,2.23.55,1.31,1.31,0,0,0,.55-1.84c-.43-.94-1.42-.79-2.25-.73-1.38.05-2.49-.15-3.15-1.53a2.92,2.92,0,0,1,1.36-3.94,4.07,4.07,0,0,1,2.93-.14l-.25,1.6" fill="#50d6cc"/><path d="M424.41,286.82l-1.8.71-3-7.68-1.86.73L417.1,279l5.53-2.19.62,1.57-1.86.74,3,7.69" fill="#50d6cc"/><path d="M431.17,284.38l-1.83.63-3.21-9.42L428,275l3.21,9.42" fill="#50d6cc"/><path d="M431.68,273.46,433,273l7.24,4.84h0l-2.2-6.32,1.82-.65,3.35,9.59-1.31.46-7.24-4.82h0l2.23,6.39-1.83.64-3.37-9.65" fill="#50d6cc"/><path d="M279.57,169.83a11.47,11.47,0,0,0,.64-3.11c-.2-7.23-5.71-12.35-12.23-15.67,4.31-3.11,9-14.16,9.32-22.09.3-7.43-3.81-14.26-7.71-20.59-1.81-3.11-6-5.92-8.52-6.83-1.11,1.71-5.51,5.53-8.82,5.73s-8.12-2.61-8.12-6c0-2.61,1.1-6.73,4.11-8.54,8.22-5,17.84-8.33,25.35-14.36,4.51-3.71,6.62-10.34,11.33-14.16,1.8-1.4,3.81-2.91,5.71-3.41" fill="none" stroke="#50d6cc" stroke-linecap="round" stroke-linejoin="round" stroke-width="0.87"/><path d="M458.25,181.06c.75,0,1.47.07,2.15.12,2.5.91,2,4.32,2.7,6.93.91,3.42,2.61,7.33,2.11,11-1.7,11.55-5.31,21.39-16.24,28.92a74,74,0,0,1-17,8.84c-2.91-2.61-5.52-6.43-8.72-7.93-10.32-.2-23,5.12-26.46,12.65-1.7,3.72,2.71,7.73,7.72,11.85-10.53,7.64-23,11.45-34.48,16.67-3.91,1.81-7.41,4.42-13.23,11.15-6-7.23-9.12-10.34-14.73-12.95-9.92-4.52-21.84-7.13-29.36-14.87,4.61-2.71,7.41-4.92,8.12-9.14-6.42-8.13-13.93-16.77-23.86-19.28-3.3,1.31-7.51,7.13-10.12,11.45-24.45-5.12-44.29-32.14-31.47-54.43,2.81,1.1,6.92,3.11,10.33,1.3,1.17-.73,2.38-1.5,3.58-2.32" fill="none" stroke="#50d6cc" stroke-linecap="round" stroke-linejoin="round" stroke-width="0.87"/><path d="M348.36,72.32h0c1.4,5.52,12.82,5.12,15.33,4.92h0l10.52-3-.3.17c3.21,8.24,15.43,12.88,25.36,12.78,9.72-.1,16.13-3.21,20-8.84-3.41-3.61-4.31-4.72-3.91-11a7.42,7.42,0,0,1,6.92-6.73c4-.1,7.41,3.11,10.32,5.92,4.61,4.42,8.22,9.64,13.23,13.56,4.61,3.82,9.72,3.72,13.93,6.63,4.51,3.21,9.52,8.33,11.52,13.46,1.71,4.41-1.4,9.13-4.31,9.13-3.3,0-6.81-2.91-6.21-5.62-5.81-4.32-17,4.92-19.74,14.86-3.61,13,1.9,26.92,8.51,32.54-2.1,5.53-9.42,10.15-13.22,13.66-1.41,5.12.6,12.26,4.91,15.47" fill="none" stroke="#50d6cc" stroke-linecap="round" stroke-linejoin="round" stroke-width="0.87"/><path d="M345.65,71.21c-1.5,9.34-17.46,15.2-26.68,15.53-9.16-.66-16-4.78-21.52-10.81,2.2-.5,4.71-5.22,4.41-8.94A7.58,7.58,0,0,0,296,60.37a8.76,8.76,0,0,0-5.41.4c-4.31,21.69,18,31.13,29.36,30.83s28.14-8.69,27.34-20v-.22Z" fill="none" stroke="#50d6cc" stroke-linecap="round" stroke-linejoin="round" stroke-width="0.87"/><path d="M445.85,270.25l.88,2,2.82-1.25.68,1.55-2.82,1.24,1.07,2.46,2.93-1.28.68,1.55-4.7,2.06-4-9.12,4.71-2.07.68,1.55-2.93,1.29" fill="#50d6cc"/><path d="M459.4,272.36l-1.69,1-3.07-7.69-1.75,1-.82-1.46,5.17-2.93.83,1.46-1.74,1,3.07,7.68" fill="#50d6cc"/><path d="M403.47,248.26c.06.08-.07.13-.13.2h-.07v-.19h.2"/><path d="M403.34,249.13l-.13-.2c.13-.13.4.13.13.2"/><path d="M186.15,237c15.35,4.12,25.25,4.07,37.37,3.45,13.19-.65,20,.14,28.68,2.32,4.6,1.15,11.7,1,20.92,1M182,253.3c17.8,5.27,28.35,5.27,41.53,4.62,11-.56,16.64-.54,23.54.88m26.07-20.54s9.88,1,7.74,6.94-8.45,4.54-17,3.29c-22.58-3.29-11.21,8.59-5.93,10.91S268.68,264,292.41,264s26,5,26,8.26-3.3,4.29-12.53,3-13.51-1.32-13.84,3,4,10.57,18.46,11.24,38.23,2.31,47.79,4.63,20.1,7.25,30,10.23,14.51,6.94,23.73-4.3m-139.31-56.3s6.34.29,6.33,4.17M291.86,279c2.15-.93,6-.62,11.76.2,6.18.89,9.71.73,11.36-.46m1.11-3.26c-.18-5.45-4-7.51-26-7.51-23.73,0-29.17-2.3-34.44-4.61-2.63-1.16-6.26-4.59-6.68-7.38m1.78-3.11c1.84-.88,5.21-1.19,10.83-.41,7.37,1,14.5,1.7,17.3-1.81l1.76-4.69m-37.29,26.32c9,9.45,13.56,14,41,16.62m-3.52,4.63c-26.24-2.54-30.92-7.07-39.25-15.72l9.15-28.27m42.41,25.92-15.82,24.44c9.44,13,15.38,17.4,37.35,17.84s32.09.22,49,7.92S388.1,336,401.5,332.06a18,18,0,0,0,4-7.59c1.32-5,8.9-20.15,11.21-25.76L414,303c-9.23,11.23-18.13,8.27-28,5.29s-20.44-7.93-30-10.24-33.29-4-47.79-4.62c-13.9-.63-18.41-6.42-18.48-10.68l-.31-2m114.7,46.89c-13.4,4-20.87,2-37.79-5.71s-27-7.49-49-7.93-27.91-4.85-37.35-17.83M246.13,263c-6.27-1.15-12.59-1.49-22.61-1-13.18.66-23.73.66-41.53-4.62l-5.93-1.49,20.76-9.57s-13.18-9.25-14.83-16c17.8,5.28,28.35,5.28,41.53,4.61s20,.14,28.68,2.33c4.61,1.14,11.7,1,20.93,1" fill="none"/><path d="M279.34,250.25l-4.4,12.55M310.76,289,318,273.6m144.58-27.75,10.33,24.22c2.86,1.32,5.94,2.19,15.17-.45s36-7.27,50.09-6.16C534,258.62,518,251.78,518,251.78l14.95-12.54a33,33,0,0,1-9-1.1c-15.6-4.4-30.54.66-43.73,6.17s-14.72,4.4-16.48,2.41c-3.73-2.41-.43-4.84,4-7.26s3.51-4.85-.66-5.07c-14.5-1.31-24.17,6.39-27,9.92s-.87,7.47,7.47,4c4.55-1.93,7.26-3.09,8.79-.23,2.42,6.17-8.35,12.56-30.1,19.15s-26.59,9.7-45.93,23.8l5.06,11.88m57.35-53.28c-.22-5.73,17.58-15,25.26-10.79m-11.42,9.47,9,24.21c2.41,6.17-8.35,12.55-30.1,19.16-16.86,5.11-23.56,8.13-34.71,15.77M465.1,251.5c1.76,2,3.86,3.38,17-2.13s28.13-10.57,43.73-6.16l1.33.38m-56.05,21.62c2.86,1.33,5.93,2.21,15.16-.43s31.21-7,45.27-5.94M382.17,294.73c19.34-14.09,23.52-16.74,45.27-23.34s32.8-13.14,30.39-19.3m-62.67,54.12c13.72-9.77,19.9-12.83,38.65-18.53,21.75-6.61,32.52-13,30.1-19.16m-25.05-20.25,5.93,11.45m25.71-23.56,2.86,10.35m-1.54-5.07c-4,1.76-8.56,4.41-6.37,6.16m-23.95,5.07c1.1,1.32,3.29,1.09,7.25-.67s7.69-2.2,7-.43m4.62,7.05c2-1.33,4.18-2.65,6.82-2.21m-5.72,5.95c2.42-1.54,5.72-2.21,7.47-1.76" fill="none"/><path d="M441.42,252.8c1.28,2,5.07.56,9.22-1.21,2.66-.75,5.05-1.45,4.8.31-.33,3-10.19,8.13-10.5,7.48a59.73,59.73,0,0,0-3.52-6.58Z" fill="#fff"/><path d="M473,246.61c-2.77,1-1.59.49-3.51,1.11-2.17.11-4.35,1-4.3-1.4,1.27-2.44,6.44-4.54,6.48-4.44.6,1.91.67,2.5,1.33,4.73Z" fill="#fff"/><path d="M329.92,157.28a1.84,1.84,0,0,1,2.6-.8,1.68,1.68,0,0,1,.2,2.71,1.75,1.75,0,0,1-.3,3.41,1.75,1.75,0,0,1-.5,3.32,1.94,1.94,0,0,1-.8,3,1.46,1.46,0,0,1-1,1.51,1.65,1.65,0,0,1-.3,2,1.88,1.88,0,0,1-.91,1.2,1.75,1.75,0,0,1-1.7,1.31,1.69,1.69,0,0,1-1.7-1.71,1.67,1.67,0,0,1,0-3c-1.51-.61-1.71-2.21-.7-2.92a1.88,1.88,0,0,1-.41-1.2,1.59,1.59,0,0,1-.7-2.11,1.75,1.75,0,0,1-1.1-2.81,1.76,1.76,0,0,1,.4-3,4.32,4.32,0,0,1,5-.7,1.81,1.81,0,0,1,1.91-.2Zm1-35.15a1.84,1.84,0,0,1,2.6-.8,1.67,1.67,0,0,1,.2,2.71,1.75,1.75,0,0,1-.3,3.41,1.75,1.75,0,0,1-.5,3.32,1.94,1.94,0,0,1-.8,3,1.47,1.47,0,0,1-1,1.51,1.65,1.65,0,0,1-.3,2,1.86,1.86,0,0,1-.9,1.2,1.76,1.76,0,0,1-1.71,1.31,1.69,1.69,0,0,1-1.7-1.71,1.68,1.68,0,0,1,0-3c-1.5-.61-1.7-2.21-.7-2.92a1.92,1.92,0,0,1-.4-1.2,1.59,1.59,0,0,1-.71-2.11,1.75,1.75,0,0,1-1.1-2.81,1.76,1.76,0,0,1,.4-3,4.32,4.32,0,0,1,5-.7,1.82,1.82,0,0,1,1.91-.2Zm-30,10.24a1.84,1.84,0,0,0-2.6-.8,1.68,1.68,0,0,0-.2,2.71,1.75,1.75,0,0,0,.3,3.42A1.75,1.75,0,0,0,299,141a1.94,1.94,0,0,0,.8,3,1.46,1.46,0,0,0,1,1.51,1.64,1.64,0,0,0,.3,2,1.84,1.84,0,0,0,.91,1.2,1.73,1.73,0,0,0,1.7,1.31,1.69,1.69,0,0,0,1.7-1.71,1.67,1.67,0,0,0,0-3c1.51-.6,1.71-2.21.7-2.91a1.9,1.9,0,0,0,.41-1.21,1.59,1.59,0,0,0,.7-2.11,1.75,1.75,0,0,0,1.1-2.81,1.75,1.75,0,0,0-.4-3,4.3,4.3,0,0,0-5-.71,1.81,1.81,0,0,0-1.91-.2Z" fill="#fff" stroke="#50d6cc" stroke-width="0.3"/><path d="M388.64,157.28a1.84,1.84,0,0,0-2.6-.8,1.67,1.67,0,0,0-.2,2.71,1.75,1.75,0,0,0,.3,3.41,1.75,1.75,0,0,0,.5,3.32,1.94,1.94,0,0,0,.8,3,1.46,1.46,0,0,0,1,1.51,1.65,1.65,0,0,0,.3,2,1.84,1.84,0,0,0,.91,1.2,1.75,1.75,0,0,0,1.7,1.31,1.69,1.69,0,0,0,1.7-1.71,1.67,1.67,0,0,0,0-3c1.51-.61,1.71-2.21.7-2.92a1.94,1.94,0,0,0,.41-1.2,1.59,1.59,0,0,0,.7-2.11,1.75,1.75,0,0,0,1.1-2.81,1.76,1.76,0,0,0-.4-3,4.32,4.32,0,0,0-5-.7,1.82,1.82,0,0,0-1.91-.2Zm-1-35.15a1.84,1.84,0,0,0-2.6-.8,1.67,1.67,0,0,0-.21,2.71,1.75,1.75,0,0,0,.31,3.41,1.75,1.75,0,0,0,.5,3.32,1.94,1.94,0,0,0,.8,3,1.47,1.47,0,0,0,1,1.51,1.65,1.65,0,0,0,.3,2,1.86,1.86,0,0,0,.9,1.2,1.75,1.75,0,0,0,1.71,1.31,1.69,1.69,0,0,0,1.7-1.71,1.68,1.68,0,0,0,0-3c1.5-.61,1.7-2.21.7-2.92a1.92,1.92,0,0,0,.4-1.2,1.58,1.58,0,0,0,.7-2.11,1.75,1.75,0,0,0,1.11-2.81,1.76,1.76,0,0,0-.4-3,4.32,4.32,0,0,0-5-.7,1.82,1.82,0,0,0-1.91-.2Zm30,10.24a1.84,1.84,0,0,1,2.6-.8,1.68,1.68,0,0,1,.2,2.71,1.75,1.75,0,0,1-.3,3.42,1.75,1.75,0,0,1-.5,3.31,1.94,1.94,0,0,1-.8,3,1.46,1.46,0,0,1-1,1.51,1.64,1.64,0,0,1-.3,2,1.88,1.88,0,0,1-.91,1.2,1.73,1.73,0,0,1-1.7,1.31,1.69,1.69,0,0,1-1.7-1.71,1.67,1.67,0,0,1,0-3c-1.51-.6-1.71-2.21-.71-2.91a2,2,0,0,1-.4-1.21,1.59,1.59,0,0,1-.7-2.11,1.75,1.75,0,0,1-1.1-2.81,1.75,1.75,0,0,1,.4-3,4.3,4.3,0,0,1,5-.71,1.81,1.81,0,0,1,1.91-.2Z" fill="#fff" stroke="#50d6cc" stroke-width="0.3"/><path d="M326.61,171.34c-.4,1.51.7,3,1.9,2.71a1.79,1.79,0,0,1-3.1-.8c-.3-.5.2-1.71,1.2-1.91Zm1.2-1.3c-.4,1.3,1,2.41,2.21,2.2a1.84,1.84,0,0,1-3.11-.7,1,1,0,0,1,.9-1.5Zm1.1-2.82c-.4,1.41.71,2.92,1.91,2.61a1.77,1.77,0,0,1-3.11-.7,1.43,1.43,0,0,1,1.2-1.91Zm-3.2-2.81c-.5,1.41.7,2.91,1.9,2.61a1.83,1.83,0,0,1-3.21-.7,1.6,1.6,0,0,1,1.31-1.91Zm2.2-1.3c-.4,1.5.7,3,2,2.61a1.87,1.87,0,0,1-3.21-.61,1.61,1.61,0,0,1,1.2-2ZM325,161.3a1.61,1.61,0,0,0,1.9,2.21,1.83,1.83,0,0,1-3.21-.71c-.2-.6.2-1.3,1.31-1.5Zm4.91-.1a1.93,1.93,0,0,0,1.9,2.61,1.86,1.86,0,0,1-3.21-.7,1.55,1.55,0,0,1,1.31-1.91Zm-2.71-1.91c-.4,1.51.2,2.71,1.4,2.51a1.4,1.4,0,0,1-2.6-.5,1.65,1.65,0,0,1,1.2-2Zm-4.11-1.11c-.4,1.51.7,3,2,2.72a1.89,1.89,0,0,1-3.21-.71,1.62,1.62,0,0,1,1.2-2Zm1-1.8c-.4,1.5.71,2.91,1.91,2.71a1.78,1.78,0,0,1-3.11-.7,1.52,1.52,0,0,1,1.2-2Zm4.61.8c-.4,1.41.71,2.91,1.91,2.71a1.81,1.81,0,0,1-3.11-.7,1.58,1.58,0,0,1,1.2-2Zm2.41-.9A2,2,0,0,0,333,159a1.77,1.77,0,0,1-3.1-.71,1.54,1.54,0,0,1,1.2-2Zm-3.51-20.09c-.4,1.51.7,3,1.91,2.71a1.8,1.8,0,0,1-3.11-.8c-.3-.5.2-1.71,1.2-1.91Zm1.2-1.31c-.4,1.31,1,2.42,2.21,2.21a1.84,1.84,0,0,1-3.11-.7,1,1,0,0,1,.9-1.51Zm1.11-2.81c-.4,1.41.7,2.91,1.9,2.61a1.77,1.77,0,0,1-3.11-.7,1.43,1.43,0,0,1,1.21-1.91Zm-3.21-2.81c-.5,1.41.7,2.91,1.9,2.61a1.82,1.82,0,0,1-3.2-.7,1.6,1.6,0,0,1,1.3-1.91Zm2.2-1.3c-.4,1.5.71,3,2,2.61a1.87,1.87,0,0,1-3.21-.61,1.61,1.61,0,0,1,1.2-2Zm-2.9-1.81a1.61,1.61,0,0,0,1.9,2.21,1.83,1.83,0,0,1-3.21-.71c-.2-.6.21-1.3,1.31-1.5Zm4.91-.1a1.93,1.93,0,0,0,1.9,2.61,1.85,1.85,0,0,1-3.2-.7,1.55,1.55,0,0,1,1.3-1.91Zm-2.71-1.91c-.4,1.51.2,2.71,1.41,2.51a1.4,1.4,0,0,1-2.61-.5,1.65,1.65,0,0,1,1.2-2ZM324.1,123c-.4,1.51.71,3,2,2.72a1.89,1.89,0,0,1-3.21-.71,1.62,1.62,0,0,1,1.2-2Zm1-1.8c-.41,1.5.7,2.91,1.9,2.71a1.77,1.77,0,0,1-3.11-.71,1.51,1.51,0,0,1,1.21-2Zm4.61.8c-.41,1.41.7,2.91,1.9,2.71a1.81,1.81,0,0,1-3.11-.7,1.58,1.58,0,0,1,1.21-2Zm2.4-.9a2,2,0,0,0,1.91,2.71,1.77,1.77,0,0,1-3.11-.71,1.54,1.54,0,0,1,1.2-2Zm-27.86,25.3c.4,1.51-.7,3-1.9,2.72a1.79,1.79,0,0,0,3.1-.81c.3-.5-.2-1.71-1.2-1.91Zm-1.2-1.3c.4,1.3-1,2.41-2.21,2.21a1.85,1.85,0,0,0,3.11-.71,1,1,0,0,0-.9-1.5Zm-1.1-2.81c.4,1.4-.71,2.91-1.91,2.61a1.77,1.77,0,0,0,3.11-.71,1.42,1.42,0,0,0-1.2-1.9Zm3.2-2.82c.5,1.41-.7,2.92-1.9,2.62a1.83,1.83,0,0,0,3.21-.71,1.61,1.61,0,0,0-1.31-1.91Zm-2.2-1.3c.4,1.51-.7,3-2,2.61a1.87,1.87,0,0,0,3.21-.6,1.62,1.62,0,0,0-1.2-2Zm2.9-1.81a1.61,1.61,0,0,1-1.9,2.21,1.83,1.83,0,0,0,3.21-.7c.2-.6-.2-1.31-1.31-1.51Zm-4.91-.1a1.93,1.93,0,0,1-1.9,2.61,1.86,1.86,0,0,0,3.21-.7,1.56,1.56,0,0,0-1.31-1.91Zm2.71-1.91c.4,1.51-.2,2.71-1.4,2.51a1.39,1.39,0,0,0,2.6-.5,1.66,1.66,0,0,0-1.2-2Zm4.11-1.1c.4,1.5-.7,3-2,2.71a1.89,1.89,0,0,0,3.21-.7,1.62,1.62,0,0,0-1.2-2Zm-1-1.81c.4,1.51-.71,2.91-1.91,2.71a1.77,1.77,0,0,0,3.11-.7,1.52,1.52,0,0,0-1.2-2Zm-4.61.8c.4,1.41-.71,2.92-1.91,2.71a1.81,1.81,0,0,0,3.11-.7,1.58,1.58,0,0,0-1.2-2Zm-2.41-.9a2,2,0,0,1-1.9,2.71,1.77,1.77,0,0,0,3.1-.7,1.55,1.55,0,0,0-1.2-2Z" fill="#fff" stroke="#50d6cc" stroke-width="0.3"/><path d="M351.56,77.84a27.45,27.45,0,0,0,1.11-9.44c.1-1.91-.61-4.92-4.21-4.92-7.22-.1-6.62,7.93-1.41,7.93C348.86,80.35,333.32,91.6,320,91.6c-18.84,0-33.57-16-29.26-30.83a12.92,12.92,0,0,0-4.81,2.71c-3,14.76,8.92,34.65,33.57,33.64C342.34,96.12,347.85,85.57,351.56,77.84Z" fill="#50d6cc"/><path d="M265.38,183.59c-1.81.81-3.81.51-5.92.1h0c-10.12,23.91,8.82,42.59,28.26,51.32.91-1.3,1.81-2.41,2.71-3.91C270.79,221.66,256,204.48,265.38,183.59Z" fill="#50d6cc"/><path d="M251.45,98.33c-2,.2-4.11,2.21-3.71,4.32s3.21,3.21,5.21,2.51c3-.81,4.11-3,8-3.72C257,99.43,254.75,97.93,251.45,98.33Z" fill="#50d6cc"/><path d="M273.69,153.67c1.41,1.6,2.81,3.31,4.21,5,16.34-22.2,15.64-60.26-25.45-68.4l-4.21,2.41C282.41,100.34,289.83,134.88,273.69,153.67Z" fill="#50d6cc"/><path d="M297.55,76.13c-.4-2,.3-3.91,1-6.42s-.5-5.33-1.91-5.83c-1.5-.7-2.7,2.31-2.6,4.22C294.14,70.41,295.54,73.42,297.55,76.13Z" fill="#50d6cc"/><path d="M419.41,78.24c2.91-3.51,4-4.62,4.11-7.43.1-1.61-.4-5.82-2-5.82s-2.3,3.31-2.5,4.92C418.81,72,421.51,74.63,419.41,78.24Z" fill="#50d6cc"/><path d="M449.74,182.5c13.88,25.7-8.24,43.67-24.22,48a36.07,36.07,0,0,1,4.31,4.42c21.63-12,35.83-25.9,26.7-50.3C454.13,184.92,451.91,183.59,449.74,182.5Z" fill="#50d6cc"/><path d="M467.81,103.75c-1.8-1.2-3.7.7-7.11-.2,2.1,1.41,2.8,3.42,4.91,4a2.85,2.85,0,0,0,3.11-1.21C469.22,105.56,469,104.55,467.81,103.75Z" fill="#50d6cc"/><path d="M357.17,268.36c-12-13.86-27.25-9.44-33.87-21.7H319V252c8.52,10.34,31.67,11.24,38.18,23.5,9.93-13.16,31.17-14.77,43.6-24.91v-2.81H394C386.14,257,366.5,257.21,357.17,268.36Z" fill="#50d6cc"/><path d="M466.81,94.71c-31.67-4.62-51.81,37.36-27.06,66.09l4.51-3.92h0c-16.83-15.47-9.92-70.6,26.76-55.54C472.22,101.74,469.82,95.11,466.81,94.71Z" fill="#50d6cc"/><path d="M430.83,66c-1.2-1.1-2.3-2.31-3.4-3.41,2.7,18.68-15.24,30-28.36,29.72-10.93-.3-31-8.43-29.27-21.19.3,2,1.71,3.22,3,2.81s1.8-2.91,1.5-4.31c-.2-1.81-1.6-4.52-3.91-4.52-2,0-4.51,2.31-4.61,5.32-.1,2.31-.1,4.82-.2,7.23C369.9,90.09,386,98,399.17,97.93,413.4,97.83,432.44,88.59,430.83,66Z" fill="#50d6cc"/><path d="M392,171.34c.4,1.51-.7,3-1.9,2.71a1.79,1.79,0,0,0,3.1-.8c.3-.5-.2-1.71-1.2-1.91Zm-1.2-1.3c.4,1.3-1,2.41-2.21,2.2a1.84,1.84,0,0,0,3.11-.7,1,1,0,0,0-.9-1.5Zm-1.1-2.82c.4,1.41-.71,2.92-1.91,2.61a1.77,1.77,0,0,0,3.11-.7,1.43,1.43,0,0,0-1.2-1.91Zm3.2-2.81c.5,1.41-.7,2.91-1.9,2.61a1.83,1.83,0,0,0,3.21-.7,1.6,1.6,0,0,0-1.31-1.91Zm-2.2-1.3c.4,1.5-.7,3-2,2.61a1.87,1.87,0,0,0,3.21-.61,1.61,1.61,0,0,0-1.2-2Zm2.9-1.81a1.61,1.61,0,0,1-1.9,2.21,1.83,1.83,0,0,0,3.21-.71c.2-.6-.2-1.3-1.31-1.5Zm-4.91-.1a1.93,1.93,0,0,1-1.9,2.61,1.86,1.86,0,0,0,3.21-.7,1.55,1.55,0,0,0-1.31-1.91Zm2.71-1.91c.4,1.51-.2,2.71-1.4,2.51a1.4,1.4,0,0,0,2.6-.5,1.65,1.65,0,0,0-1.2-2Zm4.11-1.11c.4,1.51-.7,3-2,2.72a1.89,1.89,0,0,0,3.21-.71,1.62,1.62,0,0,0-1.2-2Zm-1-1.8c.4,1.5-.71,2.91-1.91,2.71a1.78,1.78,0,0,0,3.11-.7,1.52,1.52,0,0,0-1.2-2Zm-4.61.8c.4,1.41-.71,2.91-1.91,2.71a1.81,1.81,0,0,0,3.11-.7,1.58,1.58,0,0,0-1.2-2Zm-2.41-.9a2,2,0,0,1-1.9,2.71,1.77,1.77,0,0,0,3.1-.71,1.54,1.54,0,0,0-1.2-2ZM391,136.19c.4,1.51-.7,3-1.91,2.71a1.8,1.8,0,0,0,3.11-.8c.3-.5-.2-1.71-1.2-1.91Zm-1.2-1.31c.4,1.31-1,2.42-2.21,2.21a1.84,1.84,0,0,0,3.11-.7,1,1,0,0,0-.9-1.51Zm-1.11-2.81c.4,1.41-.7,2.91-1.9,2.61a1.77,1.77,0,0,0,3.11-.7,1.43,1.43,0,0,0-1.21-1.91Zm3.21-2.81c.5,1.41-.7,2.91-1.9,2.61a1.82,1.82,0,0,0,3.2-.7,1.6,1.6,0,0,0-1.3-1.91Zm-2.2-1.3c.4,1.5-.71,3-2,2.61a1.87,1.87,0,0,0,3.21-.61,1.61,1.61,0,0,0-1.2-2Zm2.9-1.81a1.61,1.61,0,0,1-1.9,2.21,1.82,1.82,0,0,0,3.2-.71c.2-.6-.2-1.3-1.3-1.5Zm-4.91-.1a1.93,1.93,0,0,1-1.9,2.61,1.85,1.85,0,0,0,3.2-.7,1.55,1.55,0,0,0-1.3-1.91Zm2.71-1.91c.4,1.51-.2,2.71-1.41,2.51a1.4,1.4,0,0,0,2.61-.5,1.65,1.65,0,0,0-1.2-2Zm4.11-1.11c.4,1.51-.71,3-2,2.72a1.89,1.89,0,0,0,3.21-.71,1.62,1.62,0,0,0-1.2-2Zm-1-1.8c.4,1.5-.7,2.91-1.9,2.71a1.77,1.77,0,0,0,3.11-.71,1.51,1.51,0,0,0-1.21-2Zm-4.61.8c.4,1.41-.7,2.91-1.9,2.71a1.81,1.81,0,0,0,3.11-.7,1.58,1.58,0,0,0-1.21-2Zm-2.4-.9a2,2,0,0,1-1.91,2.71,1.77,1.77,0,0,0,3.11-.71,1.54,1.54,0,0,0-1.2-2Zm27.86,25.3c-.4,1.51.7,3,1.9,2.72a1.79,1.79,0,0,1-3.1-.81c-.3-.5.2-1.71,1.2-1.91Zm1.2-1.3c-.4,1.3,1,2.41,2.21,2.21a1.85,1.85,0,0,1-3.11-.71,1,1,0,0,1,.9-1.5Zm1.1-2.81c-.4,1.4.71,2.91,1.91,2.61a1.77,1.77,0,0,1-3.11-.71,1.42,1.42,0,0,1,1.2-1.9Zm-3.2-2.82c-.5,1.41.7,2.92,1.9,2.62a1.83,1.83,0,0,1-3.21-.71,1.6,1.6,0,0,1,1.31-1.91Zm2.2-1.3c-.4,1.51.7,3,2,2.61a1.87,1.87,0,0,1-3.21-.6,1.62,1.62,0,0,1,1.2-2Zm-2.9-1.81a1.61,1.61,0,0,0,1.9,2.21,1.83,1.83,0,0,1-3.21-.7c-.2-.6.2-1.31,1.31-1.51Zm4.91-.1a1.92,1.92,0,0,0,1.9,2.61,1.86,1.86,0,0,1-3.21-.7,1.56,1.56,0,0,1,1.31-1.91Zm-2.71-1.91c-.4,1.51.2,2.71,1.4,2.51a1.39,1.39,0,0,1-2.6-.5,1.66,1.66,0,0,1,1.2-2Zm-4.11-1.1c-.4,1.5.7,3,2,2.71a1.89,1.89,0,0,1-3.21-.7,1.62,1.62,0,0,1,1.2-2Zm1-1.81c-.4,1.51.7,2.91,1.91,2.71a1.77,1.77,0,0,1-3.11-.7,1.52,1.52,0,0,1,1.2-2Zm4.61.8c-.4,1.41.7,2.92,1.91,2.71a1.81,1.81,0,0,1-3.11-.7,1.58,1.58,0,0,1,1.2-2Zm2.41-.9a2,2,0,0,0,1.9,2.71,1.77,1.77,0,0,1-3.1-.7,1.55,1.55,0,0,1,1.2-2Z" fill="#fff" stroke="#50d6cc" stroke-width="0.3"/><path d="M353.47,227.68c.6-1.91,2-2,2-4.72h0V165.72h0a1.45,1.45,0,0,1,1.5-1.41h0a1.65,1.65,0,0,1,1.71,1.41V223c.8,2.71-.5,4.22,1.8,4.32,5.92.4,12.33.8,17.84,2.41.6.5.5,1,0,1.51H341.14a1.82,1.82,0,0,1,.7-2.21c6.12-1.81,11.43-.5,11.63-1.31Zm42.69-46.9c.7-2.11,2.2-2.21,2.2-5.12h0V112.39h0a1.51,1.51,0,0,1,1.61-1.51h0a1.76,1.76,0,0,1,1.8,1.61q0,31.49.1,63.17c.8,2.91-.7,4.62,1.81,4.72,6.41.4,13.42.8,19.24,2.61.7.5.5,1.11,0,1.71H382.83a2.14,2.14,0,0,1,.8-2.51c6.62-2,12.23-.51,12.53-1.41Zm-74.16,0c-.7-2.11-2.21-2.21-2.21-5.12h0V112.39h0a1.5,1.5,0,0,0-1.6-1.51h0a1.58,1.58,0,0,0-1.6,1.61q0,31.49-.1,63.17c-.8,2.91.5,4.62-1.81,4.72-6.41.4-13.43.8-19.24,2.61-.7.5-.5,1.11,0,1.71h39.89a2.14,2.14,0,0,0-.8-2.51c-6.62-2-12.23-.51-12.53-1.41Z" fill="#fff" stroke="#50d6cc" stroke-linecap="round" stroke-linejoin="round" stroke-width="0.87"/><path d="M351.56,165.11a3.38,3.38,0,0,0,3.41,2.21,13.71,13.71,0,0,1,7.52,3.12,16.81,16.81,0,0,1,4.81,8.13c.3,1.61.1,3.22-.9,4.12-2.31,2.11-5.12,3.41-7.52,5.12a18.88,18.88,0,0,0-6.62,6.83,7.34,7.34,0,0,0,.41,6.63c1.9,3.61,5.81,6.63,8.91,10.14.61.6,2.41-.1,2.71.91,1.5,4.42.5,8.23,1.4,12.85.5,2.81,4.31,2.81,6,3.62-3.41-.2-7.22-.4-10.23-1.81a3,3,0,0,0,1.21-2.71c0-3.22-1.31-8-3-9.64-2.5-2.62-5.71-5.73-8.12-8.44-1.9-2-2.9-3.31-3.3-5.62-.71-3.42.5-6.23,2.4-9.14,2.51-3.82,7.62-5.83,11.33-8.24a7.21,7.21,0,0,0,2.1-4.82c-.1-2.81-2.91-5.92-4.31-6.23-1.8-.3-5.71.1-7.52-.4-.6-.2-.1-1-1-1a2.1,2.1,0,0,0-2.1,1.6c.1-.8-1.1-1.2-2.31-.9a7.17,7.17,0,0,1,5.21-2.81c.2-1.11-.9-2.21-1.9-2.91,1,.4,1.4.2,1.4-.61Zm42.49-53.53c.91,1.61,1.71,2.42,3.61,2.42,2.61,0,6.62,2,8.22,3.41a20.23,20.23,0,0,1,5.11,9c.3,1.71.1,3.51-1,4.52-2.41,2.31-5.41,3.81-8,5.62s-5.61,4.22-7.21,7.53a8.55,8.55,0,0,0,.5,7.34c2.1,4,6.21,7.33,9.52,11.14.7.81,2.6,0,3,1.11,1.61,4.82.51,9,1.41,14.16.6,3.11,4.81,3.11,6.61,3.92-3.71-.21-7.82-.41-11.12-1.91a3.52,3.52,0,0,0,1.4-3c0-3.61-1.5-8.93-3.21-10.74-2.8-2.81-6.21-6.23-8.82-9.24-2.1-2.21-3.1-3.62-3.6-6.13-.7-3.81.6-6.93,2.7-10.14,2.61-4.22,8.12-6.43,12.13-9a7.69,7.69,0,0,0,2.2-5.32c0-3.12-3-6.63-4.51-6.83-2-.4-6.21,0-8.21-.5-.6-.2-.1-1.11-1.11-1.11s-1.7.7-2.2,1.71c.1-.8-1.2-1.21-2.51-.91a7.8,7.8,0,0,1,5.62-3.21c.2-1.1-1-2.41-2.11-3.11,1.1.4,1.6.2,1.6-.71Zm-69.75,0c-.9,1.61-1.7,2.42-3.6,2.42-2.61,0-6.62,2-8.22,3.41a20.23,20.23,0,0,0-5.11,9c-.3,1.71-.1,3.51,1,4.52,2.4,2.31,5.41,3.81,8,5.62s5.61,4.22,7.21,7.53a8.58,8.58,0,0,1-.5,7.34c-2.1,4-6.21,7.33-9.52,11.14-.7.81-2.6,0-3,1.11-1.6,4.82-.5,9-1.4,14.16-.6,3.11-4.81,3.11-6.61,3.92,3.7-.21,7.81-.41,11.12-1.91a3.52,3.52,0,0,1-1.4-3c0-3.61,1.5-8.93,3.2-10.74,2.81-2.81,6.22-6.23,8.82-9.24,1.91-2.21,2.91-3.62,3.41-6.13.7-3.81-.6-6.93-2.5-10.14-2.61-4.22-8.12-6.43-12.13-9a7.69,7.69,0,0,1-2.21-5.32c0-3.12,3-6.63,4.51-6.83,2-.4,6.22,0,8.22-.5.6-.2.1-1.11,1.1-1.11.81-.1,1.51.7,2,1.71-.1-.8,1.2-1.21,2.5-.91a7.76,7.76,0,0,0-5.41-3.21c-.2-1.1,1-2.41,1.91-3.11-.9.4-1.41.2-1.41-.71Z" fill="#fff" stroke="#50d6cc" stroke-linecap="round" stroke-linejoin="round" stroke-width="0.87"/><path d="M344.85,208.8a1.86,1.86,0,0,0-2.61-.8,1.68,1.68,0,0,0-.2,2.71,1.75,1.75,0,0,0,.3,3.41,1.75,1.75,0,0,0,.5,3.32,1.94,1.94,0,0,0,.81,3,1.46,1.46,0,0,0,1,1.51,1.65,1.65,0,0,0,.3,2,1.86,1.86,0,0,0,.9,1.2,1.75,1.75,0,0,0,1.7,1.31,1.7,1.7,0,0,0,1.71-1.71,1.68,1.68,0,0,0,0-3c1.5-.61,1.7-2.21.7-2.92a1.92,1.92,0,0,0,.4-1.2,1.59,1.59,0,0,0,.7-2.11,1.74,1.74,0,0,0,1.1-2.81,1.75,1.75,0,0,0-.4-3,4.32,4.32,0,0,0-5-.7,1.8,1.8,0,0,0-1.9-.2Zm-1-35.15a1.85,1.85,0,0,0-2.61-.8,1.68,1.68,0,0,0-.2,2.71,1.75,1.75,0,0,0,.3,3.41,1.75,1.75,0,0,0,.5,3.32,1.94,1.94,0,0,0,.8,3,1.46,1.46,0,0,0,1,1.51,1.63,1.63,0,0,0,.3,2,1.86,1.86,0,0,0,.9,1.2,1.75,1.75,0,0,0,1.7,1.31,1.7,1.7,0,0,0,1.71-1.71,1.68,1.68,0,0,0,0-3c1.5-.61,1.7-2.21.7-2.92a1.92,1.92,0,0,0,.4-1.2,1.59,1.59,0,0,0,.7-2.11,1.75,1.75,0,0,0,1.1-2.81,1.76,1.76,0,0,0-.4-3,1.64,1.64,0,0,0-1.5-1.9,1.67,1.67,0,0,0-1.61.7,1.63,1.63,0,0,0-1.9.5,1.8,1.8,0,0,0-1.9-.2Zm30,10.24a1.85,1.85,0,0,1,2.61-.8,1.68,1.68,0,0,1,.2,2.71,1.75,1.75,0,0,1-.3,3.42,1.75,1.75,0,0,1-.5,3.31,1.94,1.94,0,0,1-.81,3,1.46,1.46,0,0,1-1,1.51,1.64,1.64,0,0,1-.3,2,1.86,1.86,0,0,1-.9,1.2,1.73,1.73,0,0,1-1.7,1.31,3.55,3.55,0,0,1-1.71-4.72c-1.5-.6-1.7-2.21-.7-2.91a2,2,0,0,1-.4-1.21,1.59,1.59,0,0,1-.7-2.11,1.74,1.74,0,0,1-1.1-2.81,1.74,1.74,0,0,1,.4-3,4.28,4.28,0,0,1,5-.7,1.78,1.78,0,0,1,1.9-.21Z" fill="#fff" stroke="#50d6cc" stroke-width="0.3"/><path d="M348.16,222.82c.4,1.51-.71,3-1.91,2.71a1.8,1.8,0,0,0,3.11-.8c.3-.51-.2-1.71-1.2-1.91ZM347,221.51c.4,1.31-1,2.41-2.2,2.21a1.83,1.83,0,0,0,3.1-.7,1,1,0,0,0-.9-1.51Zm-1.1-2.81c.4,1.41-.7,2.91-1.9,2.61a1.76,1.76,0,0,0,3.1-.7,1.43,1.43,0,0,0-1.2-1.91Zm3.21-2.81c.5,1.4-.7,2.91-1.91,2.61a1.83,1.83,0,0,0,3.21-.7,1.59,1.59,0,0,0-1.3-1.91Zm-2.21-1.31c.4,1.51-.7,3-2,2.61a1.87,1.87,0,0,0,3.21-.6,1.63,1.63,0,0,0-1.21-2Zm2.91-1.8a1.61,1.61,0,0,1-1.91,2.21,1.83,1.83,0,0,0,3.21-.71c.2-.6-.2-1.3-1.3-1.5Zm-4.91-.1a1.93,1.93,0,0,1-1.91,2.61,1.86,1.86,0,0,0,3.21-.71,1.55,1.55,0,0,0-1.3-1.9Zm2.7-1.91c.41,1.5-.2,2.71-1.4,2.51a1.4,1.4,0,0,0,2.61-.5,1.65,1.65,0,0,0-1.21-2Zm4.11-1.11c.4,1.51-.7,3-2,2.71a1.88,1.88,0,0,0,3.21-.7,1.62,1.62,0,0,0-1.21-2Zm-1-1.81c.4,1.51-.7,2.92-1.9,2.72a1.77,1.77,0,0,0,3.1-.71,1.52,1.52,0,0,0-1.2-2Zm-4.61.81c.4,1.4-.7,2.91-1.9,2.71a1.81,1.81,0,0,0,3.1-.7,1.58,1.58,0,0,0-1.2-2Zm-2.4-.91a2,2,0,0,1-1.91,2.72,1.77,1.77,0,0,0,3.11-.71,1.55,1.55,0,0,0-1.2-2Zm3.5-20.08c.4,1.5-.7,3-1.9,2.71a1.8,1.8,0,0,0,3.11-.8c.3-.51-.2-1.71-1.21-1.91Zm-1.2-1.31c.4,1.31-1,2.41-2.2,2.21a1.83,1.83,0,0,0,3.1-.7,1,1,0,0,0-.9-1.51Zm-1.1-2.81c.4,1.41-.7,2.91-1.91,2.61a1.77,1.77,0,0,0,3.11-.7,1.43,1.43,0,0,0-1.2-1.91Zm3.21-2.81c.5,1.4-.71,2.91-1.91,2.61a1.83,1.83,0,0,0,3.21-.7,1.59,1.59,0,0,0-1.3-1.91Zm-2.21-1.31c.4,1.51-.7,3-2,2.61a1.86,1.86,0,0,0,3.2-.6,1.62,1.62,0,0,0-1.2-2Zm2.91-1.8a1.6,1.6,0,0,1-1.91,2.2,1.83,1.83,0,0,0,3.21-.7c.2-.6-.2-1.3-1.3-1.5Zm-4.91-.11a1.94,1.94,0,0,1-1.91,2.62,1.86,1.86,0,0,0,3.21-.71,1.56,1.56,0,0,0-1.3-1.91Zm2.7-1.9c.4,1.5-.2,2.71-1.4,2.51a1.4,1.4,0,0,0,2.6-.5,1.65,1.65,0,0,0-1.2-2Zm4.11-1.11c.4,1.51-.7,3-2,2.71a1.87,1.87,0,0,0,3.2-.7,1.62,1.62,0,0,0-1.2-2Zm-1-1.81c.4,1.51-.7,2.92-1.91,2.72a1.77,1.77,0,0,0,3.11-.71,1.52,1.52,0,0,0-1.2-2Zm-4.61.81c.4,1.4-.7,2.91-1.91,2.71a1.81,1.81,0,0,0,3.11-.7,1.58,1.58,0,0,0-1.2-2Zm-2.41-.91a2,2,0,0,1-1.9,2.72,1.77,1.77,0,0,0,3.11-.71,1.55,1.55,0,0,0-1.21-2Zm27.86,25.31c-.4,1.51.71,3,1.91,2.71a1.8,1.8,0,0,1-3.11-.8c-.3-.5.2-1.71,1.2-1.91Zm1.21-1.3c-.4,1.3,1,2.41,2.2,2.21a1.85,1.85,0,0,1-3.11-.71,1,1,0,0,1,.91-1.5Zm1.1-2.82c-.4,1.41.7,2.92,1.9,2.62a1.77,1.77,0,0,1-3.1-.71,1.43,1.43,0,0,1,1.2-1.91ZM369.6,191c-.5,1.41.7,2.91,1.91,2.61a1.82,1.82,0,0,1-3.21-.7,1.6,1.6,0,0,1,1.3-1.91Zm2.21-1.3c-.4,1.5.7,3,2,2.61a1.87,1.87,0,0,1-3.21-.6,1.62,1.62,0,0,1,1.21-2Zm-2.91-1.81a1.61,1.61,0,0,0,1.9,2.21,1.82,1.82,0,0,1-3.2-.7c-.2-.61.2-1.31,1.3-1.51Zm4.91-.1a1.93,1.93,0,0,0,1.91,2.61,1.86,1.86,0,0,1-3.21-.7,1.55,1.55,0,0,1,1.3-1.91Zm-2.7-1.91c-.41,1.51.2,2.71,1.4,2.51a1.4,1.4,0,0,1-2.61-.5,1.66,1.66,0,0,1,1.21-2Zm-4.11-1.1c-.4,1.5.7,3,2,2.71a1.89,1.89,0,0,1-3.21-.71,1.61,1.61,0,0,1,1.21-2Zm1-1.81c-.4,1.5.7,2.91,1.9,2.71a1.77,1.77,0,0,1-3.1-.7,1.52,1.52,0,0,1,1.2-2Zm4.61.8c-.4,1.41.7,2.91,1.9,2.71a1.8,1.8,0,0,1-3.1-.7,1.58,1.58,0,0,1,1.2-2Zm2.4-.9a2,2,0,0,0,1.91,2.71,1.78,1.78,0,0,1-3.11-.7,1.55,1.55,0,0,1,1.2-2Z" fill="#fff" stroke="#50d6cc" stroke-width="0.3"/><path d="M321.2,114.6c1.2-1.41,2.7-2.31,4.11-1.91-1.61-2.31-3-8.14-2.11-11,.5,1.31.8,1.61,1.71,1.41.2-1.21,1.4-1.71,2.4-2a2.81,2.81,0,0,1,.2,3,1.35,1.35,0,0,1,2.41-.3,3.54,3.54,0,0,1-.3,4.52c1.8.7,4.51-.5,5.41-3.61,1,1,1,1.4.4,2.61,1.1-.91,3-.3,4.31.9,0,1.51-1.41,3.52-2.61,3.52.9.1,1.4.7,1.5,2a5.81,5.81,0,0,0-6.41,1.21,3.83,3.83,0,0,1,3,2.91,1.75,1.75,0,0,1-1.91,1.51c1,0,1.51.7,1.61,2.11-1,.6-1.91.2-2.81-.4-.6.7-.3,1.2-.2,2.41-2.91-.91-5.11-5.53-6-8.94-1.51-.5-2.91.2-4,1.7-.5.61-1.3-.8-.7-1.6Zm-9.42,3.81c-.5-1.5-1.61-2.81-3.11-2.71,2.2-1.7,5.31-6.43,5.21-9.14-.8,1-1.1,1.11-1.9.71.2-1.21-.6-1.91-1.41-2.51a2.66,2.66,0,0,0-1.2,2.61,1.24,1.24,0,0,0-2-1,3.43,3.43,0,0,0-1.11,4.12c-1.8.1-3.9-1.71-3.7-4.72-1.21.5-1.41.8-1.11,2.11-.7-1.11-2.7-1.11-4.1-.5-.51,1.5.1,3.61,1.2,3.91-.8-.1-1.4.2-1.91,1.31,2.51-.1,4,.9,5.32,3-2.11-.1-2.91.6-3.51,1.61-.2,1.1.5,1.61,1.3,2-.9-.3-1.6,0-2.1,1.2.7.91,1.6.81,2.6.5.3.81-.1,1.21-.6,2.21,3,.1,6.21-3.41,8-6.12,1.5,0,2.5,1,3.1,2.71.21.6,1.31-.4,1-1.31Zm3.4,44.7a5,5,0,0,0-4.71-.91c1.61-2.51,2.61-8.13,1.21-10.44-.3,1.2-.7,1.4-1.71,1.5-.4-1-1.7-1.3-2.8-1.4a2.26,2.26,0,0,0,0,2.91,1.64,1.64,0,0,0-2.71.1,3,3,0,0,0,.7,4.12,4.75,4.75,0,0,1-6.31-2.31c-1.1,1.1-1.1,1.5-.1,2.51-1.4-.6-3.51.4-4.81,1.61a3.33,3.33,0,0,0,3.31,2.81,2,2,0,0,0-1.61,2.11,7.31,7.31,0,0,1,7.32-.1c-2.31,1-2.81,2-2.91,3.21.2,1,1.2,1.1,2.31,1a1.84,1.84,0,0,0-1.61,2.21c1.11.41,2.11-.1,3.11-1,.6.6.4,1.1.3,2.41,3.31-1.51,5.21-6.13,5.81-9.54a4.38,4.38,0,0,1,4.71.9c.6.4,1.41-1.1.5-1.7Zm10.43-14.77c1.3.71,2.9,1.21,4,.4-.81,2.51-.71,7.74.9,9.95,0-1.21.2-1.41,1.1-1.51a2.52,2.52,0,0,0,2.51,1.1,2.2,2.2,0,0,0-.41-2.61,1.25,1.25,0,0,0,2.21-.3,3.27,3.27,0,0,0-1.3-3.81c1.3-1,4-.71,5.51,1.7.6-1,.7-1.3-.2-2.21,1.2.51,2.8-.5,3.51-1.8-.31-1.41-1.91-2.72-3.11-2.41.8-.31,1.1-.81.9-1.91a5.72,5.72,0,0,1-5.91.4c1.7-1,1.9-2,1.8-3.21-.3-.91-1.2-.91-2.1-.81.9-.2,1.3-.8,1.1-2.21a2.1,2.1,0,0,0-2.31,1.11c-.9-.5-.8-1-.9-2.11-2.4,1.61-3.1,6-3.1,9.14a3.53,3.53,0,0,1-4-.4c-.6-.61-.9.9-.2,1.5Zm28.86,19.49c-1.1-1.31-2.51-2.11-3.81-1.71,1.5-2.11,2.81-7.43,1.91-10-.41,1.2-.71,1.4-1.51,1.3a3,3,0,0,0-2.2-1.91,2.5,2.5,0,0,0-.2,2.81,1.25,1.25,0,0,0-2.21-.3,3.21,3.21,0,0,0,.2,4.12c-1.7.6-4.21-.5-5-3.31-.9.9-1,1.3-.3,2.41-1-.81-2.91-.3-4,.8,0,1.31,1.2,3.21,2.41,3.21-.9.11-1.31.61-1.41,1.81a5.38,5.38,0,0,1,5.92,1.11,3.54,3.54,0,0,0-2.81,2.61c.1,1,1,1.3,1.8,1.4-.9-.1-1.4.61-1.5,1.81.9.6,1.71.3,2.61-.3.5.6.3,1.11.1,2.21,2.8-.8,4.81-5,5.71-8.13,1.3-.51,2.61.2,3.71,1.5.4.6,1.2-.7.6-1.4Zm8.72,3.41c.5-1.31,1.5-2.51,2.9-2.41-2-1.61-4.91-5.82-4.91-8.34.81.91,1.11,1,1.81.71-.2-1.11.6-1.81,1.4-2.31a2.33,2.33,0,0,1,1,2.41,1.15,1.15,0,0,1,1.91-.91,3,3,0,0,1,1,3.72c1.7.1,3.61-1.61,3.41-4.32,1.2.5,1.3.7,1.1,1.91.6-1,2.4-1,3.71-.4.5,1.3,0,3.21-1.11,3.51a1.58,1.58,0,0,1,1.81,1.21,5,5,0,0,0-4.91,2.71c2-.1,2.6.5,3.2,1.51.21.9-.4,1.4-1.2,1.7.8-.2,1.51.1,2,1.21a2.15,2.15,0,0,1-2.41.4c-.3.7,0,1.11.5,2-2.7.1-5.71-3.11-7.41-5.52-1.41,0-2.31.9-2.81,2.41-.2.6-1.3-.41-1-1.21ZM360,211.81a4.71,4.71,0,0,1,4.41-.8c-1.5-2.31-2.4-7.43-1.1-9.54.3,1.1.6,1.31,1.5,1.41.4-.91,1.61-1.21,2.71-1.31a2.11,2.11,0,0,1,0,2.61,1.45,1.45,0,0,1,2.4.1,2.63,2.63,0,0,1-.6,3.82,4.42,4.42,0,0,0,5.81-2.11c1.11,1,1.11,1.3.2,2.21,1.31-.5,3.21.4,4.41,1.5a3,3,0,0,1-3.1,2.52,1.77,1.77,0,0,1,1.5,1.9,7.45,7.45,0,0,0-6.81-.1c2.2.91,2.6,1.81,2.8,2.92-.2.9-1.2,1-2.2,1a1.6,1.6,0,0,1,1.5,1.91,2.62,2.62,0,0,1-2.81-.81c-.7.51-.5.91-.4,2.11-3-1.4-4.71-5.52-5.31-8.63a4.22,4.22,0,0,0-4.41.8c-.5.4-1.2-1-.5-1.51Zm-9.62-13.45c-1.2.7-2.71,1.2-3.71.4.7,2.31.7,7-.8,9-.1-1.11-.2-1.31-1-1.41a2.49,2.49,0,0,1-2.41,1,2.08,2.08,0,0,1,.4-2.31,1.15,1.15,0,0,1-2-.31,3,3,0,0,1,1.2-3.51c-1.3-.9-3.71-.6-5.11,1.61-.6-.91-.6-1.21.2-2-1.1.5-2.6-.5-3.31-1.71.31-1.21,1.81-2.41,2.91-2.11a1.31,1.31,0,0,1-.8-1.81,5.23,5.23,0,0,0,5.41.4c-1.6-.9-1.8-1.8-1.7-2.81.4-.9,1.1-.9,2-.8-.9-.2-1.2-.8-1.1-2a2,2,0,0,1,2.2,1c.81-.41.81-.91.81-1.91,2.2,1.4,2.9,5.42,2.9,8.23,1.1.81,2.51.5,3.81-.3.5-.5.7.8.1,1.31Zm46.8-83.76c-1.2-1.41-2.7-2.31-4.11-1.91,1.61-2.31,3-8.14,2.11-11-.5,1.31-.8,1.61-1.71,1.41-.2-1.21-1.4-1.71-2.4-2a2.81,2.81,0,0,0-.2,3,1.35,1.35,0,0,0-2.41-.3,3.54,3.54,0,0,0,.3,4.52c-1.8.7-4.51-.5-5.41-3.61-1,1-1,1.4-.4,2.61-1.1-.91-3-.3-4.31.9,0,1.51,1.4,3.52,2.61,3.52-.9.1-1.41.7-1.51,2a5.82,5.82,0,0,1,6.42,1.21,3.83,3.83,0,0,0-3,2.91,1.75,1.75,0,0,0,1.91,1.51c-1,0-1.51.7-1.61,2.11,1,.6,1.91.2,2.81-.4.6.7.3,1.2.2,2.41,2.9-.91,5.11-5.53,6-8.94,1.5-.5,2.91.2,4,1.7.5.61,1.3-.8.7-1.6Zm9.42,3.81c.5-1.5,1.61-2.81,3.11-2.71-2.21-1.7-5.31-6.43-5.21-9.14.8,1,1.1,1.11,1.9.71-.2-1.21.6-1.91,1.4-2.51a2.64,2.64,0,0,1,1.21,2.61,1.24,1.24,0,0,1,2-1,3.42,3.42,0,0,1,1.1,4.12c1.81.1,3.91-1.71,3.71-4.72,1.2.5,1.4.8,1.1,2.11.71-1.11,2.71-1.11,4.11-.5.5,1.5-.1,3.61-1.2,3.91.8-.1,1.4.2,1.9,1.31-2.5-.1-4,.9-5.31,3,2.11-.1,2.91.6,3.51,1.61.2,1.1-.5,1.61-1.3,2,.9-.3,1.6,0,2.1,1.2-.7.91-1.6.81-2.6.5-.3.81.1,1.21.6,2.21-3,.1-6.22-3.41-8-6.12-1.5,0-2.5,1-3.11,2.71-.2.6-1.3-.4-1-1.31Zm-3.41,44.7a5,5,0,0,1,4.71-.91c-1.6-2.51-2.6-8.13-1.2-10.44.3,1.2.7,1.4,1.71,1.5.4-1,1.7-1.3,2.8-1.4a2.26,2.26,0,0,1,0,2.91,1.64,1.64,0,0,1,2.71.1,3,3,0,0,1-.7,4.12,4.75,4.75,0,0,0,6.31-2.31c1.1,1.1,1.1,1.5.1,2.51,1.4-.6,3.51.4,4.81,1.61a3.33,3.33,0,0,1-3.31,2.81,2,2,0,0,1,1.61,2.11,7.31,7.31,0,0,0-7.32-.1c2.31,1,2.81,2,2.91,3.21-.2,1-1.21,1.1-2.31,1a1.85,1.85,0,0,1,1.61,2.21c-1.11.41-2.11-.1-3.11-1-.6.6-.4,1.1-.3,2.41-3.31-1.51-5.21-6.13-5.81-9.54a4.38,4.38,0,0,0-4.71.9c-.61.4-1.41-1.1-.51-1.7Zm-10.42-14.77c-1.3.71-2.9,1.21-4,.4.81,2.51.7,7.74-.9,9.95,0-1.21-.2-1.41-1.1-1.51a2.52,2.52,0,0,1-2.51,1.1,2.21,2.21,0,0,1,.4-2.61,1.24,1.24,0,0,1-2.2-.3,3.27,3.27,0,0,1,1.3-3.81c-1.3-1-4-.71-5.51,1.7-.6-1-.7-1.3.2-2.21-1.2.51-2.81-.5-3.51-1.8.3-1.41,1.91-2.72,3.11-2.41-.8-.31-1.1-.81-.9-1.91a5.72,5.72,0,0,0,5.91.4c-1.7-1-1.9-2-1.8-3.21.3-.91,1.2-.91,2.1-.81-.9-.2-1.3-.8-1.1-2.21a2.08,2.08,0,0,1,2.3,1.11c.91-.5.81-1,.91-2.11,2.4,1.61,3.1,6,3.1,9.14a3.53,3.53,0,0,0,4-.4c.6-.61.9.9.2,1.5Z" fill="#fff" stroke="#50d6cc" stroke-linecap="round" stroke-linejoin="round" stroke-width="0.87"/><path d="M293.25,229c-1.81,2.79-3.76,7.38-3.76,8.89,0,2,2.63,3.24,4.59,2.11,1.2-.61,1.5-.61,1.05.07a6,6,0,0,1-2.33,1.51c-1.51.6-1.81,1.2-1.81,3.69a12,12,0,0,1-.67,3.39,20,20,0,0,0-.22,3.09c0,3.16,2.57,4.32,7.79,3,3-.74,1.74-.32,3.86-1.73a22,22,0,0,0,1.87-4.49,9.65,9.65,0,0,1,1.8-3.69c.46-.3.61-.07.38.53-2.1,5.12-2.25,6.78-1.05,9.34,1.05,2.26,1.65,2.64,3.83,2.64,2.33,0,.74-.65,3.29-3.63a9,9,0,0,1,1.84-2.8c.53-1.05.46-1,.41-1.6-.12-1.3,1.23-1,1.6-1,2.93,0,4.06-6.41,2-10.55-1.43-2.78-2-2.78-4,0-3.08,4.14-9.17,2.41-9.17-2.63a5.81,5.81,0,0,1,1.21-3.47c.82-1,1-1.66.45-2.64s-2-1.35-6.32-1.5c-5-.23-5.63-.08-6.61,1.43Zm11.42,1.35c-.52,2.11-1.73,2.87-4.21,2.42-1.5-.23-2.7-.08-3,.45s.22.83,1.58.83c2.63,0,3.6.67,4.28,2.78.38,1.28-.08,2.19-2.25,4.15-2.33,2.18-4.82,5.72-4.82,7s1.73,0,2.33-1.81c1.13-3.09,5.49-6.32,7.67-5.65s2.78,1.66,2.78,5.73c0,2.11.38,3.61.83,3.61s.68-1.28.3-3.84c-.38-2.94-.3-4.07.45-4.52,1.73-1.13,2.93-.75,2.93.83,0,.83.38,1.51.83,1.51s.68-.83.45-2c-.75-4,1.28-5.65,2.1-1.73.68,2.94-.22,6.78-1.5,6.78a3.52,3.52,0,0,1-2.18-1.66c-1.43-2-2.63-1.13-1.35.91a4.71,4.71,0,0,1-.6,6.17,5.71,5.71,0,0,0-1.51,2.64c0,1.66-2.55,1-3.45-.83-.6-1.28-.53-2.79.22-5.65,1.05-4.14.83-5.35-.9-5.35-1.2,0-3.38,3.7-3.38,5.8-.08,3.54-3.31,5.28-9.1,4.9-1.95-.15-2-.3-1.35-3a25.71,25.71,0,0,0,.68-5c0-1.73.6-2.71,2.63-4.07,3-2,3.61-4.29,1-3.39-3.53,1.13-4.73.83-4.51-1.2a5.24,5.24,0,0,1,1.28-2.64,4.15,4.15,0,0,0,1.28-2.63c.15-1.51.75-2,2.86-2.26,4.88-.68,7.89-.38,7.66.82Z" fill="#50d6cc"/><path d="M264,152.81a6.73,6.73,0,0,1-3.39,1.5c-3.53.68-4.88,4.45-1.95,5.35,2.18.68,1.8,1.73-.45,1.28-1.58-.3-2.48.15-4,1.89a12.9,12.9,0,0,1-3.23,2.71,1.92,1.92,0,0,0-1.35,1.5,3.31,3.31,0,0,1-1.13,2c-1,.83-.67,1.43,2.41,4.22,2,1.8,4.21,3.23,5,3.31,1.8,0,5.11-1.73,6.84-3.69a4.73,4.73,0,0,1,2.48-1.58c.6,0-.23,1.28-1.88,2.78-3.68,3.54-4.89,8-2.41,9.27,2.11,1.13,6.39-.23,9.25-2.86,1.13-1.06,2-1.58,2-1.13a1.69,1.69,0,0,0,1.2,1.28c1.35.52,4.06-.76,4.06-2a2.6,2.6,0,0,1,1.05-1.66,6.76,6.76,0,0,0,1.5-3.69l.53-2.86-3.38.45c-3,.45-3.61.3-5.34-1.43-1.58-1.58-1.95-2.49-1.58-4.07.6-2.41,3.09-4.67,5.11-4.67s1.58-3.69-.52-4.82a25.06,25.06,0,0,1-3.61-2.56c-2.4-1.88-5.94-2.18-7.21-.6Zm6.38,2.33a13.31,13.31,0,0,0,3.54,2.34c1.88.6,1.58,2.33-.6,2.71-1.28.3-2.56-.15-4-1.36-1.95-1.73-3.16-2.26-3.16-1.43a8.58,8.58,0,0,0,2,2.19c1.58,1.35,1.88,2.11,1.43,3.69-.45,1.81-.82,2-3.68,2-3.23,0-8.12,2-8.64,3.62-.15.52,1.12.22,3-.61a17.47,17.47,0,0,1,5.94-1.5c2.18,0,2.86.37,3.61,2s.67,2.26-.53,3.92c-2.18,2.94-3.31,5.35-2.55,5.35.37,0,1.65-1.36,2.78-3,1.5-2.26,2.55-3,3.68-2.86,1.58.3,1.73.68.83,3-.3.76-.23,1.36.22,1.36s1.13-1.05,1.58-2.26c.9-2.71,3.46-3.24,2.63-.6a3.45,3.45,0,0,1-1.13,2,1.18,1.18,0,0,0-.67,1,3.24,3.24,0,0,1-1.28,1.81c-1.73,1.2-3.23.07-3.23-2.41,0-1-.3-1.81-.75-1.81s-.76.83-.76,1.81c0,2-3.15,5-5.33,5a1.67,1.67,0,0,0-1.58.9c-.15.46-.9.68-1.58.38-1-.38-1.2-1-.83-2.56.46-2.11,4.14-6.25,5.42-6.25.9,0,1.8-2.19,1.2-3.09-.75-1.28-3.23-.68-5.71,1.43-4.06,3.54-6.09,3.62-9.55.53-2.93-2.71-3-2.71-1.5-4.22a5.47,5.47,0,0,1,2-1.43,7,7,0,0,0,2.33-2.11c1.43-1.58,2.41-2,4.81-2,4,0,4.36-1.13,1-2.94-1.43-.83-2.63-1.66-2.63-2,0-.6,2.63-2,5.11-2.64.9-.3,1.65-.83,1.65-1.2,0-1.36,2.78-.68,5,1.2Z" fill="#50d6cc"/><path d="M454.83,154.68a6.7,6.7,0,0,0,3.38,1.51c3.53.68,4.88,4.44,2,5.35-2.18.68-1.8,1.73.45,1.28,1.58-.3,2.48.15,4,1.88a12.68,12.68,0,0,0,3.23,2.71,1.93,1.93,0,0,1,1.35,1.51,3.29,3.29,0,0,0,1.13,2c1,.83.68,1.43-2.41,4.22-2,1.81-4.2,3.24-5,3.32-1.8,0-5.11-1.74-6.84-3.7a4.73,4.73,0,0,0-2.48-1.58c-.6,0,.23,1.28,1.88,2.79,3.69,3.54,4.89,8,2.41,9.26-2.11,1.13-6.39-.22-9.25-2.86-1.12-1.05-2-1.58-2-1.13a1.67,1.67,0,0,1-1.2,1.28c-1.35.53-4.06-.75-4.06-2a2.58,2.58,0,0,0-1.05-1.65,6.76,6.76,0,0,1-1.5-3.69l-.53-2.87,3.38.46c3,.45,3.61.3,5.34-1.43,1.58-1.59,1.95-2.49,1.58-4.07-.6-2.41-3.08-4.67-5.11-4.67s-1.58-3.69.52-4.82a25.06,25.06,0,0,0,3.61-2.56c2.41-1.89,5.94-2.19,7.22-.61ZM448.44,157a13.2,13.2,0,0,1-3.53,2.33c-1.88.61-1.58,2.34.6,2.71,1.27.31,2.55-.15,4-1.35,1.95-1.73,3.16-2.26,3.16-1.43a8.79,8.79,0,0,1-2,2.18c-1.58,1.36-1.88,2.11-1.43,3.69.45,1.81.83,2,3.68,2,3.23,0,8.12,2,8.65,3.61.15.53-1.13.23-3-.6a17.22,17.22,0,0,0-5.94-1.51c-2.18,0-2.85.38-3.61,2s-.67,2.26.53,3.91c2.18,2.94,3.31,5.35,2.56,5.35-.38,0-1.66-1.35-2.79-3-1.5-2.26-2.55-3-3.68-2.86-1.58.3-1.73.67-.83,3,.31.75.23,1.36-.22,1.36s-1.13-1.06-1.58-2.26c-.9-2.72-3.46-3.24-2.63-.61a3.5,3.5,0,0,0,1.13,2,1.18,1.18,0,0,1,.67,1.06,3.24,3.24,0,0,0,1.28,1.8c1.73,1.21,3.23.08,3.23-2.41,0-1,.3-1.8.76-1.8s.75.82.75,1.8c0,2,3.15,5,5.33,5a1.66,1.66,0,0,1,1.58.91c.15.45.9.68,1.58.38,1-.38,1.2-1,.83-2.57-.45-2.1-4.14-6.25-5.41-6.25-.91,0-1.81-2.18-1.21-3.09.75-1.28,3.23-.67,5.72,1.44,4.05,3.54,6.08,3.61,9.54.52,2.93-2.71,3-2.71,1.5-4.22a5.47,5.47,0,0,0-2-1.43,6.84,6.84,0,0,1-2.33-2.11c-1.43-1.58-2.41-2-4.81-2-4,0-4.36-1.13-1-2.94,1.43-.83,2.63-1.65,2.63-2,0-.6-2.63-2-5.11-2.63-.9-.3-1.65-.83-1.65-1.21,0-1.35-2.78-.67-5,1.21Z" fill="#50d6cc"/><path d="M424.91,229.48c1.8,2.79,3.76,7.39,3.76,8.89,0,2-2.63,3.24-4.59,2.11-1.2-.6-1.5-.6-1.05.08a5.84,5.84,0,0,0,2.33,1.5c1.5.61,1.8,1.21,1.8,3.69,0,1.66.3,3.17.68,3.39s.68,1.66.68,3.09c0,3.16-3.14,3.61-6.28,3.63a19.47,19.47,0,0,1-5.84-2.07,24.57,24.57,0,0,1-1.86-4.72,9.62,9.62,0,0,0-1.81-3.69c-.45-.3-.25,2.83,0,3.43,2.11,5.12.87,2.94.59,7.13-1.28,1.33-1.92,1.93-3.72,1.82s-2.12-.76-3.28-2.46c-.75-1.88-2.78-5.54-2.65-4.2,0,.46-.83-2.26-1.21-2.26-2.93,0-4.05-6.4-1.95-10.54,1.43-2.79,1.95-2.79,4,0,3.09,4.14,9.17,2.41,9.17-2.64a5.8,5.8,0,0,0-1.2-3.46c-.83-1-1-1.66-.45-2.64s1.95-1.36,6.31-1.51c5-.22,5.64-.07,6.62,1.43Zm-11.43,1.36c.53,2.11,1.73,2.86,4.21,2.41,1.51-.23,2.71-.08,3,.45s-.23.83-1.58.83c-2.63,0-3.61.68-4.28,2.79-.38,1.28.07,2.18,2.25,4.14,2.33,2.18,4.81,5.72,4.81,7s-1.73,0-2.33-1.8c-1.13-3.09-5.49-6.33-7.67-5.65s-2.78,1.66-2.78,5.72c0,2.11-.37,3.62-.82,3.62s-.68-1.28-.3-3.84c.37-2.94.3-4.07-.45-4.52-1.73-1.13-2.94-.76-2.94.83,0,.82-.37,1.5-.82,1.5s-.68-.83-.45-2c.75-4-1.28-5.65-2.11-1.73-.67,2.93.23,6.78,1.5,6.78a3.53,3.53,0,0,0,2.18-1.66c1.43-2,2.64-1.13,1.36.9a4.71,4.71,0,0,0,.6,6.18,5.65,5.65,0,0,1,1.5,2.63c0,1.66,2.56,1.06,3.46-.82.6-1.28.53-2.79-.23-5.65-1.05-4.15-.82-5.35.91-5.35,1.2,0,3.38,3.69,3.38,5.8.07,3.54,3.31,5.27,9.09,4.89,2-.15,2-.3,1.36-3a25.62,25.62,0,0,1-.68-5c0-1.74-.6-2.72-2.63-4.07-3-2-3.61-4.3-1-3.39,3.53,1.13,4.74.83,4.51-1.21a5,5,0,0,0-1.28-2.63,4.17,4.17,0,0,1-1.27-2.64c-.15-1.51-.76-2-2.86-2.26-4.89-.68-7.89-.38-7.67.83Z" fill="#50d6cc"/><path d="M359.88,65.79a5.63,5.63,0,0,1,5.61,5.72,5.7,5.7,0,0,1-5.61,5.73,5.79,5.79,0,0,1-5.72-5.73,5.72,5.72,0,0,1,5.72-5.72ZM274.39,188.92a6.55,6.55,0,0,1-6.71-6.53,6.72,6.72,0,1,1,13.43,0,6.5,6.5,0,0,1-6.72,6.53Zm.1-29a6.48,6.48,0,0,1,0,13,6.48,6.48,0,0,1,0-13Zm-12.13-15.36A6.43,6.43,0,1,1,256,151a6.45,6.45,0,0,1,6.41-6.42Zm193.52,3.41a7.48,7.48,0,0,0-7.51,7.43,7.57,7.57,0,0,0,7.51,7.53,7.49,7.49,0,0,0,7.42-7.53,7.41,7.41,0,0,0-7.42-7.43Zm-13.23,40.47a6.88,6.88,0,1,0-6.91-6.93,6.92,6.92,0,0,0,6.91,6.93Zm.91-28.42a6.93,6.93,0,0,1,0,13.86,6.93,6.93,0,0,1,0-13.86ZM416.7,222.66a5.17,5.17,0,1,0,5.21,5.12,5.13,5.13,0,0,0-5.21-5.12Zm-8.22,6.63a5.5,5.5,0,0,1,5.51,5.52,5.51,5.51,0,1,1-11,0,5.5,5.5,0,0,1,5.51-5.52Zm-9.72,6.12a6.78,6.78,0,1,1-6.72,6.73,6.77,6.77,0,0,1,6.72-6.73ZM298.59,222.06a5.68,5.68,0,1,1-5.71,5.62c0-3.11,4.46-5.62,7.57-5.62Zm10.88,5.72a6.48,6.48,0,1,0,6.51,6.53,6.5,6.5,0,0,0-6.51-6.53Zm10.62,18.68a5.78,5.78,0,1,1,0-11.55,5.78,5.78,0,1,1,0,11.55Z" fill="#fff" stroke="#50d6cc" stroke-linecap="round" stroke-linejoin="round" stroke-width="0.87"/></svg>