<svg xmlns="http://www.w3.org/2000/svg" width="296.47" height="300" viewBox="0 0 296.47 300"><title>flag-new-hampshire-icon-ship</title><path d="M247,248.27c3.53,0,5.67-.36,5.67-.69.35-2.16,1.08-6,1.43-10l-12.79-.35a12.4,12.4,0,0,0,5.69,11Zm-4.63-19.51a10,10,0,0,0-.71,3.16,27.4,27.4,0,0,0-.35,5.32l12.79.37a83.19,83.19,0,0,0,1.42-9.22l-13.15.33Zm13.15-8.2c-5.7,0-8.9.37-11.37,3.53a40.26,40.26,0,0,0-1.43,3.94l-.35.73,13.15-.37A29,29,0,0,0,255.52,220.56ZM212.87,186.8V195c3.92,0,7.83.36,11.38.36v-8.15Zm-13.86,0,.36,7.79c3.9.37,8.53.37,12.79.37V186.8Zm41.24.37H225v8.15h15.29Z" fill="none" stroke="#000" stroke-linecap="round" stroke-linejoin="round" stroke-width="2"/><path d="M96.31,123.92l3.55.31m-3.55,3.91,3.91.37m-3.91,8.56,5.34.31M96.31,142l6,.38m-5.7,12.4,7.46,2.16m-81.73,6.54L91,117.5" fill="none" stroke="#000" stroke-linecap="round" stroke-linejoin="round"/><path d="M212.87,186.8V195l11.38.36v-8.15l-11.38-.37" fill="none" stroke="#000" stroke-linecap="round" stroke-linejoin="round" stroke-width="2"/><path d="M199,186.8l.36,7.79,12.79.37V186.8H199" fill="none" stroke="#000" stroke-linecap="round" stroke-linejoin="round" stroke-width="2"/><path d="M114.42,66.67V67c-.35,2.14-.7,3.89-4.25,4.95,4.25,1.45,7.81,0,7.81-2.12.37-2.1,2.86-3.89,6.06-3.89C120.12,66,119.76,64.55,114.42,66.67Z" fill="none" stroke="#000" stroke-linecap="round" stroke-linejoin="round" stroke-width="2"/><path d="M126.51,56.41c1.79,3.16-.35,6.37-3.19,6-3.2-.68-8.17.73-8.9,4.26,5.34-2.12,5.7-.69,9.62-.69,8.52,0,4.26-7.14,2.47-9.61Z" fill="none" stroke="#000" stroke-linecap="round" stroke-linejoin="round" stroke-width="2"/><path d="M125.81,55.68c.35.35.35.69.7.69,1.79,2.47,6,9.61-2.47,9.61,3.18,0,7.81-1.1,8.87-4.63.71-3.2-2.84-7.46-3.2-9.62a20.25,20.25,0,0,0-5.33,1.79,7.21,7.21,0,0,0,1.43,2.12Z" fill="none" stroke="#000" stroke-linecap="round" stroke-linejoin="round" stroke-width="2"/><path d="M191.2,58.84c-7.83.73-12.09-.33-18.84-5-13.5-10.63-37-15.31-46.9-4.63-1.42,1.41-1.79,2.85-1.08,4.26a20.25,20.25,0,0,1,5.33-1.79c7.81-1.74,21.32-.31,29.15,5.74,8.16,6.35,21,11,30.91,11.71-1.06-2.84-.35-7.45,1.43-10.3Z" fill="none" stroke="#000" stroke-linecap="round" stroke-linejoin="round" stroke-width="2"/><path d="M97.72,62c-8.87-2.1-30.91-.69-31.61,10.34a10.58,10.58,0,0,1,7.81-3.2,31.62,31.62,0,0,1,5.34.69c5.31,1.06,13.5,1.06,17.4,1.06-.35-3.16-.7-6.05,1-8.89Z" fill="none" stroke="#000" stroke-linecap="round" stroke-linejoin="round" stroke-width="2"/><path d="M72.86,85.18c0,1.41-.36,2.47-2.85,3.88-3.55,1.79-12.44,7.11-14.21,14.56C61.12,98.31,67.17,94.05,71.09,93c3.53-1.1,4.26-2.51,5-4C76.06,87.65,74.27,86.59,72.86,85.18Z" fill="none" stroke="#000" stroke-linecap="round" stroke-linejoin="round" stroke-width="2"/><path d="M74.62,79.86c-2.82-3.57-2.82-7.48-.7-10.68a10.58,10.58,0,0,0-7.81,3.2,15.51,15.51,0,0,0,5,11.36c.71.34,1.06,1.06,1.77,1.4,1.41,1.45,3.2,2.51,3.2,3.92,1.41-2.1,1.41-5.67-1.44-9.24Z" fill="none" stroke="#000" stroke-linecap="round" stroke-linejoin="round" stroke-width="2"/><line x1="196.87" y1="165.51" x2="208.61" y2="160.52" fill="none" stroke="#000" stroke-linecap="round" stroke-linejoin="round"/><line x1="196.52" y1="159.46" x2="207.18" y2="155.52" fill="none" stroke="#000" stroke-linecap="round" stroke-linejoin="round"/><line x1="196.17" y1="151.63" x2="205.06" y2="147" fill="none" stroke="#000" stroke-linecap="round" stroke-linejoin="round"/><line x1="195.81" y1="146.65" x2="204.35" y2="143.8" fill="none" stroke="#000" stroke-linecap="round" stroke-linejoin="round"/><line x1="195.81" y1="143.11" x2="203.27" y2="139.89" fill="none" stroke="#000" stroke-linecap="round" stroke-linejoin="round"/><line x1="195.46" y1="139.54" x2="202.56" y2="136.7" fill="none" stroke="#000" stroke-linecap="round" stroke-linejoin="round"/><line x1="195.46" y1="135.28" x2="201.86" y2="134.22" fill="none" stroke="#000" stroke-linecap="round" stroke-linejoin="round"/><line x1="195.46" y1="131.34" x2="201.15" y2="131.02" fill="none" stroke="#000" stroke-linecap="round" stroke-linejoin="round"/><line x1="195.11" y1="127.08" x2="199.72" y2="126.39" fill="none" stroke="#000" stroke-linecap="round" stroke-linejoin="round"/><line x1="194.75" y1="121.03" x2="198.66" y2="121.03" fill="none" stroke="#000" stroke-linecap="round" stroke-linejoin="round"/><line x1="194.75" y1="118.19" x2="197.6" y2="117.87" fill="none" stroke="#000" stroke-linecap="round" stroke-linejoin="round"/><line x1="181.96" y1="166.57" x2="191.2" y2="166.57" fill="none" stroke="#000" stroke-linecap="round" stroke-linejoin="round"/><line x1="182.66" y1="160.52" x2="191.56" y2="160.83" fill="none" stroke="#000" stroke-linecap="round" stroke-linejoin="round"/><line x1="183.02" y1="155.16" x2="191.56" y2="155.52" fill="none" stroke="#000" stroke-linecap="round" stroke-linejoin="round"/><line x1="183.37" y1="150.2" x2="191.56" y2="150.53" fill="none" stroke="#000" stroke-linecap="round" stroke-linejoin="round"/><line x1="184.1" y1="144.49" x2="191.56" y2="144.86" fill="none" stroke="#000" stroke-linecap="round" stroke-linejoin="round"/><line x1="184.43" y1="139.54" x2="191.56" y2="139.54" fill="none" stroke="#000" stroke-linecap="round" stroke-linejoin="round"/><line x1="184.8" y1="134.56" x2="191.56" y2="134.56" fill="none" stroke="#000" stroke-linecap="round" stroke-linejoin="round"/><line x1="185.51" y1="129.96" x2="191.56" y2="130.3" fill="none" stroke="#000" stroke-linecap="round" stroke-linejoin="round"/><line x1="185.51" y1="126.39" x2="191.91" y2="126.39" fill="none" stroke="#000" stroke-linecap="round" stroke-linejoin="round"/><line x1="186.22" y1="122.13" x2="191.91" y2="122.51" fill="none" stroke="#000" stroke-linecap="round" stroke-linejoin="round"/><line x1="186.57" y1="117.87" x2="191.91" y2="118.19" fill="none" stroke="#000" stroke-linecap="round" stroke-linejoin="round"/><path d="M51.9,176.87l.7,5.32.36,5.3,9.93,3.22V180.4l-11-3.53" fill="none" stroke="#000" stroke-linecap="round" stroke-linejoin="round"/><path d="M84.57,185.74l-.33,9.95,10.66,1.75v-9.58l-10.33-2.12" fill="none" stroke="#000" stroke-linecap="round" stroke-linejoin="round"/><path d="M68.6,182.19l-.37,9.93,10.67,2.47.36-9.93L68.6,182.19" fill="none" stroke="#000" stroke-linecap="round" stroke-linejoin="round"/><path d="M196.17,198.16l.35,7.46,9.95.37-.35-7.45-10-.38" fill="none" stroke="#000" stroke-linecap="round" stroke-linejoin="round"/><path d="M180.52,197.48v7.83l10.68.31.36-7.81-11-.33" fill="none" stroke="#000" stroke-linecap="round" stroke-linejoin="round"/><path d="M212.16,198.54l.36,7.45h9.95v-7.45H212.16" fill="none" stroke="#000" stroke-linecap="round" stroke-linejoin="round"/><path d="M164.55,196.38v8.2l11,.31V197.1l-11-.72" fill="none" stroke="#000" stroke-linecap="round" stroke-linejoin="round"/><path d="M235.26,198.54h-7.1l.35,7.08h6.4l.35-7.08" fill="none" stroke="#000" stroke-linecap="round" stroke-linejoin="round"/><path d="M116.21,191.06l.35,9.26,10.66,1,.33-8.52-11.34-1.78" fill="none" stroke="#000" stroke-linecap="round" stroke-linejoin="round"/><path d="M100.57,189v9.2l10.66,1.42v-9.25L100.57,189" fill="none" stroke="#000" stroke-linecap="round" stroke-linejoin="round"/><path d="M147.5,195l.33,8.52,11.73.73v-8.15L147.5,195" fill="none" stroke="#000" stroke-linecap="round" stroke-linejoin="round"/><path d="M132.91,193.53l-.35-.31v8.89h.35l9.25,1,.35-8.87-9.6-.75" fill="none" stroke="#000" stroke-linecap="round" stroke-linejoin="round"/><path d="M78.9,227.31l10.31,1.43.35-6.79-10.3-.69-.36,6.05" fill="none" stroke="#000" stroke-linecap="round" stroke-linejoin="round"/><path d="M174.85,236.88l7.46.73.35-9.24L174.5,228l.35,8.89" fill="none" stroke="#000" stroke-linecap="round" stroke-linejoin="round"/><path d="M197.25,239l9.57.73-.35-10-9.6-.36.38,9.62" fill="none" stroke="#000" stroke-linecap="round" stroke-linejoin="round"/><path d="M150.32,234.41l8.54.69v-7.79l-8.89-.73.35,7.83" fill="none" stroke="#000" stroke-linecap="round" stroke-linejoin="round"/><path d="M101.3,230.15,113,231.21v-7.1l-11.71-1.06v7.1" fill="none" stroke="#000" stroke-linecap="round" stroke-linejoin="round"/><path d="M126.51,232.25l9.25,1.1v-7.83l-9.25-.73v7.46" fill="none" stroke="#000" stroke-linecap="round" stroke-linejoin="round"/><path d="M241.66,231.92l-.35,3.57v3.89l1.06,3.57,2.49,3.53-182-17-8.17-.69-5.33-13.88-3.2-7.47L42.3,200l-4.24-6.42-2.49-2.82-2.49-2.12H45.87l1.77-1.06,1.08-1.79v-2.1L48,181.48l-2.12-2.1-3.55-2.16-4.26-1.41-4.63-1.06v-1.41l-15.27-7.11L9.63,161.6l-7.09-5.32,11.34,4.64,19.55,6.37,23.81,6.78,24.88,6,3.91.69,4.61,1.06,43,6.41,41.59,5.3,5.67.71h2.84l14.94.35-.35-7.79h-1.79V184h43.73l.33-2.84,11.74,2.14,12.09,1.43L268,185l6.4.38-3.56,1.78-1.08,1.42-1.05,1.78-1.06,3.91-.36,4.26v3.92l.71,3.91-3.91.31-3.55.73-2.12,6.37-2.84,6.05v.73h-3.91l-2.84.72-2.5,1.06-2.12,1.75-2.49,7.83Z" fill="none" stroke="#000" stroke-linecap="round" stroke-linejoin="round" stroke-width="2"/><path d="M236.32,106.14v2.12h2.49l1.44-.38.33-1.74Zm-4,68.46-1,9.37h6.39l.15-10m.32-25.76.24-17.59h-2.14l-3.95,37.17m6.09-43.21H231l-.35,2.84,5.67,3.2h2.14l4.26-3.57v-2.47Z" fill="none" stroke="#000" stroke-linecap="round" stroke-linejoin="round" stroke-width="2"/><path d="M238.81,108.26l-1.76,16.35h1.41Z" fill="none" stroke="#000" stroke-linecap="round" stroke-linejoin="round" stroke-width="2"/><path d="M191.56,56.72,188,85.86l2.12.36Z" fill="none" stroke="#000" stroke-linecap="round" stroke-linejoin="round" stroke-width="2"/><path d="M189.77,91.91h-2.14l-2.12,15.29h3.2Z" fill="none" stroke="#000" stroke-linecap="round" stroke-linejoin="round" stroke-width="2"/><path d="M196.52,107.57l-7.81-.37h-3.2l-5.34-.36,1.43,7.46h6.76l8.51-.37Z" fill="none" stroke="#000" stroke-linecap="round" stroke-linejoin="round" stroke-width="2"/><path d="M189.77,91.91l3.9.35.71-5.67-4.26-.37L188,85.91h-2.84l-.36,5.62,2.83.38Z" fill="none" stroke="#000" stroke-linecap="round" stroke-linejoin="round" stroke-width="2"/><path d="M82.1,180l3.91.72,4.61,1.06,4.63-63.62L91,117.5,82.1,180" fill="none" stroke="#000" stroke-linecap="round" stroke-linejoin="round" stroke-width="2"/><path d="M99.16,60.29,94.9,91.91l2.12.35Z" fill="none" stroke="#000" stroke-linecap="round" stroke-linejoin="round" stroke-width="2"/><path d="M94.19,96.89,91.7,112.52h3.9l1.06-15.63Z" fill="none" stroke="#000" stroke-linecap="round" stroke-linejoin="round" stroke-width="2"/><path d="M97,92.26l-2.12-.35H91.35l.35,4.63,2.49.35h2.47l3.56.69.35-5.32Z" fill="none" stroke="#000" stroke-linecap="round" stroke-linejoin="round" stroke-width="2"/><path d="M91.7,112.52,86,112.18v5l5,.35,4.26.69,3.55.37.36-5.67-3.56-.37H91.7Z" fill="none" stroke="#000" stroke-linecap="round" stroke-linejoin="round" stroke-width="2"/><path d="M256.22,144.86c-6.75.35-14.21,7.12-19.55,7.83-.35,1.41-.7,2.83-1.06,4.61,5.34,0,11.74-8.51,19.91-8.87A10.78,10.78,0,0,1,256.22,144.86Zm-1.41,6c.35-.7.35-1.74.71-2.47-8.17.36-14.57,8.87-19.91,8.87a11.11,11.11,0,0,1-.7,2.85C240.58,160.52,247.7,151.63,254.81,150.9Zm0,0c-7.11.73-14.23,9.62-19.9,9.25a27.82,27.82,0,0,1-.71,2.84c7.81-.37,13.86-8.2,20.61-9.26Zm-6.05,11.72c5.7-3.53,16.71-4.61,22.75-1.06l1.06-3.2c-6.05-3.88-17.41-2.47-23.45.73-3.2,2.12-10.66,7.1-15.65,7.1a12.89,12.89,0,0,0-1.41,3.91c5,.73,13.15-5.69,16.7-7.44Zm6.05-8.52c5.67-1.78,14.91-1.41,18.84.38l4.26-13.88c-5-3.53-13.5-2.16-20.26,0-1.43,4.26-2.84,9.24-2.84,13.13Zm0-.37v0Z" fill="none" stroke="#000" stroke-linecap="round" stroke-linejoin="round"/><path d="M256.22,144.86l-5,1.41-5.34,2.52-5,2.47-4.26,1.43-1.05,4.61,2.13-.35,2.1-1.06,4.64-2.85,5-3.2,2.85-1.05,3.2-.36Z" fill="none" stroke="#000" stroke-linecap="round" stroke-linejoin="round"/><path d="M257.65,140.6a18.82,18.82,0,0,0-6,2.51c-5,2.48-9.24,4.95-14.94,6v3.57c5.34-.71,12.8-7.48,19.55-7.83C256.57,143.43,257.3,142,257.65,140.6Z" fill="none" stroke="#000" stroke-linecap="round" stroke-linejoin="round"/><path d="M254.81,150.9l-2.49.73-2.85,1.06-5,3.2-5,2.85-2.47,1-2.12.38-.71,2.84,2.85-.37,2.82-1.06,5-2.82,4.94-3.22,2.5-1,2.49-.75Z" fill="none" stroke="#000" stroke-linecap="round" stroke-linejoin="round"/><path d="M248.76,162.62c-3.55,1.79-11.71,8.21-16.7,7.48a10.65,10.65,0,0,1-.7,3.2c3.9,1.06,11.36-1.79,14.56-5,6.75-6,16.7-6,24.53-3.22l1.06-3.53C265.47,158,254.46,159.09,248.76,162.62Z" fill="none" stroke="#000" stroke-linecap="round" stroke-linejoin="round"/><path d="M248.76,162.62l5-2.1,6.4-1.06,6,.31,2.83.38,2.49,1.41,1.06-3.2-2.49-1.06-2.85-1-6.38-.37L254.46,157l-5.34,2.14L242,163.35l-4.63,2.16-3.91.68-1.41,3.91h2.14l2.12-.71,4.63-2.14,7.81-4.59Z" fill="none" stroke="#000" stroke-linecap="round" stroke-linejoin="round"/><path d="M272.57,158.36l1.08-3.88c-3.93-1.79-13.17-2.12-18.84-.38v-.37c-6.75,1.06-12.8,8.93-20.61,9.26a10.32,10.32,0,0,0-.73,3.2c5,0,12.45-5,15.65-7.1C255.14,155.89,266.52,154.48,272.57,158.36Z" fill="none" stroke="#000" stroke-linecap="round" stroke-linejoin="round"/><path d="M254.81,154.1l4.61-.68,5.34-.38,4.94.38,3.93,1.06,4.26-13.88-2.14-1.06-2.1-.68-5.34-.38-5.34.69-5.32,1.43-2.13,6.77-.71,6.36Z" fill="none" stroke="#000" stroke-linecap="round" stroke-linejoin="round"/><path d="M277.91,140.6l-7.46,24.49-6,19.57c1.41,0,2.47.35,3.55.35l11-48.31ZM107.69,184.66l-8.89-66.1m3.91,65-4.61-65M197.6,184l-2.85-70m7.46,70-7.1-70m19.54,70-17.78-70,8.89,70m-14.91,10.62,1.06-80.29m-2.14,0-3.91,80m-89.2-27.4,8.89,1.78m-8.89,4.26,10,1.79m-10,3.2,10.66,2.49m-11-62.21v64.73M197.25,184l15.62-7.1m-15.62,1.79,14.56-5.74M197.25,174l13.48-4.21m-13.86,1.06,12.8-5.32m-29.5,18.78h11m-10.32-4.95,10.32.36m-9.95-4.62,9.95.36m-9.6-4.3,9.6.37" fill="none" stroke="#000" stroke-linecap="round" stroke-linejoin="round"/><path d="M179.47,193.9l7.45-79.6" fill="none" stroke="#000" stroke-linecap="round" stroke-linejoin="round"/><path d="M184.8,114.3l-9.59,79.23,5.67.75h2.84l4.64-80H184.8" fill="none" stroke="#000" stroke-linecap="round" stroke-linejoin="round" stroke-width="2"/><path d="M184.8,114.3l-9.59,79.23,5.67.75h2.84l4.64-80ZM33.06,181.13,2.5,155.89l30.56,32.7" fill="none" stroke="#000" stroke-linecap="round" stroke-linejoin="round"/><path d="M33.41,174.75l-.35,6.38v7.5" fill="none" stroke="#000" stroke-linecap="round" stroke-linejoin="round" stroke-width="2"/><path d="M50.82,195c15.64,9.93,46.9,14.57,64.33,16,32,2.84,78.17,3.9,107,2.16.36,1.41,0,3.2,0,4.59-24.16,1.76-88.84-1.06-98.79-1.75C113.37,214.84,72.5,211.67,50.82,195Z" fill="none" stroke="#000" stroke-linecap="round" stroke-linejoin="round" stroke-width="2"/><path d="M212.87,186.8V195c3.92,0,7.83.36,11.38.36v-8.15Z" fill="none" stroke="#000" stroke-linecap="round" stroke-linejoin="round" stroke-width="2"/><path d="M199,186.8l.36,7.79c3.9.37,8.53.37,12.79.37V186.8Z" fill="none" stroke="#000" stroke-linecap="round" stroke-linejoin="round" stroke-width="2"/><path d="M240.25,187.17H225v8.15h15.29Z" fill="none" stroke="#000" stroke-linecap="round" stroke-linejoin="round" stroke-width="2"/><path d="M164.55,196.38v8.2c5.32,0,8.18.31,11,.31V197.1C171.65,196.75,168.1,196.38,164.55,196.38Z" fill="none" stroke="#000" stroke-linecap="round" stroke-linejoin="round"/><path d="M247.35,189.27l-.73,10.31,2.5.37.35-10.68Z" fill="none" stroke="#000" stroke-linecap="round" stroke-linejoin="round"/><path d="M261.56,190.33h-1.79l-.35,10.3,1.79.38Z" fill="none" stroke="#000" stroke-linecap="round" stroke-linejoin="round"/><path d="M252,189.65l-.35,10.3,1.79.37V189.65Z" fill="none" stroke="#000" stroke-linecap="round" stroke-linejoin="round"/><path d="M255.87,190l-.35,10.3,1.78.31.35-10.61Z" fill="none" stroke="#000" stroke-linecap="round" stroke-linejoin="round"/><path d="M239.87,256.78s-7.45-32.32-8.16-35.5,2.14-5.67,3.9-1.08c1.44,4.26,13.51,36.58,13.51,36.58Z" fill="#fff" stroke="#000" stroke-linecap="round" stroke-linejoin="round" stroke-width="2"/><path d="M213.57,255.37s-5-30.18-5.67-33.38,2.12-7.83,3.91-.71c2.12,6.75,11,34.82,11,34.82Z" fill="#fff" stroke="#000" stroke-linecap="round" stroke-linejoin="round" stroke-width="2"/><path d="M189.77,254s-5-33.4-5.67-35.88,1.41-3.92,2.82-.37c1.08,3.57,10,36.25,10,36.25Z" fill="#fff" stroke="#000" stroke-linecap="round" stroke-linejoin="round" stroke-width="2"/><path d="M164.18,253.58s1.08-34.81,1.08-36.91c-.36-2.16,2.47-3.22,2.84,0,.33,2.83,3.53,36.58,3.53,36.58Z" fill="#fff" stroke="#000" stroke-linecap="round" stroke-linejoin="round" stroke-width="2"/><path d="M139.31,251.84s2.12-34.86,2.12-36.6c-.33-1.79,2.49-3.93,2.87,0s3.17,36.6,3.17,36.6Z" fill="#fff" stroke="#000" stroke-linecap="round" stroke-linejoin="round" stroke-width="2"/><path d="M112.31,251.49s7.81-35.19,8.16-37.33,2.12-2.12,2.12,0c0,2.51-1,37.68-1,37.68Z" fill="#fff" stroke="#000" stroke-linecap="round" stroke-linejoin="round" stroke-width="2"/><path d="M86,247.54s8.89-28.77,9.24-31.24a2.2,2.2,0,0,1,4.26,1.06c0,2.84-6.05,30.91-6.05,30.91Z" fill="#fff" stroke="#000" stroke-linecap="round" stroke-linejoin="round" stroke-width="2"/><path d="M57.92,245.42s14.94-27.34,16.35-30.18c1.43-3.2,4.28-2.14,3.2.37-1.41,2.1-12.78,29.81-12.78,29.81Z" fill="#fff" stroke="#000" stroke-linecap="round" stroke-linejoin="round" stroke-width="2"/></svg>