<svg xmlns="http://www.w3.org/2000/svg" width="600" height="432" viewBox="0 0 600 432"><path fill="none" stroke="#a3a3a3" stroke-linecap="round" stroke-linejoin="round" d="M396.69 421.93l2.5-.02"/><path fill="none" stroke="#a3a3a3" stroke-linecap="round" stroke-linejoin="round" stroke-dasharray="5.01 5.01" d="M404.19 421.87l187.77-1.42"/><path fill="none" stroke="#a3a3a3" stroke-linecap="round" stroke-linejoin="round" d="M594.46 420.43l2.5-.02v-2.5"/><path fill="none" stroke="#a3a3a3" stroke-linecap="round" stroke-linejoin="round" stroke-dasharray="3.69 3.69" d="M596.96 414.22v-5.53"/><path fill="none" stroke="#a3a3a3" stroke-linecap="round" stroke-linejoin="round" d="M596.96 406.84v-2.5M94.61 405.86v2.5"/><path fill="none" stroke="#a3a3a3" stroke-linecap="round" stroke-linejoin="round" stroke-dasharray="3.69 3.69" d="M94.61 412.05v5.53"/><path fill="none" stroke="#a3a3a3" stroke-linecap="round" stroke-linejoin="round" d="M94.61 419.43v2.5h2.5"/><path fill="none" stroke="#a3a3a3" stroke-linecap="round" stroke-linejoin="round" stroke-dasharray="5.06 5.06" d="M102.17 421.93h189.61"/><path fill="none" stroke="#a3a3a3" stroke-linecap="round" stroke-linejoin="round" d="M294.3 421.93h2.5"/><path d="M315.31 416.44v1.07h-4.37l-.16 3.06a3.78 3.78 0 011.72-.41 3.19 3.19 0 013.21 3.53 3.26 3.26 0 01-3.35 3.54 3.79 3.79 0 01-3.14-1.63l1.06-.79c.15.1.06.27.13.4a2.56 2.56 0 001.94 1 2.55 2.55 0 000-5 2.55 2.55 0 00-2 1l-.76-.31.36-5.39zM333.35 416.69l-.55 1.13c-.06 0-.13 0-.14-.14s0-.12-.05-.2a2 2 0 00-1.7-.89 1.74 1.74 0 00-1.56.86 3.36 3.36 0 00-.28 1.68v.6h2.54v1h-2.54V427h-1.17v-6.3h-1.69v-1h1.69v-.7a3.52 3.52 0 01.42-2 3.07 3.07 0 012.66-1.35 3 3 0 012.37 1.04zM338.17 417c.06.17-.06.28-.09.46-.08.43-.2 1.83-.2 1.83h2.54v1h-2.56c-.09 1-.14 2-.14 3a11.49 11.49 0 000 1.49 1.27 1.27 0 001.3 1.26 3.07 3.07 0 001.74-.71l.38 1a4.31 4.31 0 01-2.48.86 2.1 2.1 0 01-1.77-.82 3.55 3.55 0 01-.46-2.12c0-1.32.06-2.64.17-4h-1.82v-1h1.85l.15-2.09zM357.84 417.29l-.82.91c-.16-.11-.15-.27-.26-.38a1.86 1.86 0 00-1.23-.44c-.77 0-2.51.47-2.57 4.1a2.58 2.58 0 012.24-1.28c1.5 0 2.91 1.26 2.91 3.47s-1.42 3.54-3 3.54a3 3 0 01-2.5-1.41 6.47 6.47 0 01-.8-3.59 10.48 10.48 0 01.45-3.26 3.54 3.54 0 013.29-2.63 3.34 3.34 0 012.29.97zm-4.84 5.37c-.14 2 .83 3.5 2.12 3.5.9 0 1.82-.78 1.82-2.43 0-1.83-1-2.49-1.86-2.49a2.52 2.52 0 00-2.08 1.42zM372.55 419.26v6.79h1.82v1h-5v-1h2v-5.79h-1.88v-1zm.3-2.5a.88.88 0 11-.88-.87.88.88 0 01.88.87zM377.3 419.28h1.24v1.36a3.24 3.24 0 012.59-1.56 2.22 2.22 0 012.06 1.38 4.38 4.38 0 01.28 1.87V427h-1.2v-4.68a2.57 2.57 0 00-.42-1.72 1.35 1.35 0 00-1.06-.49 2.64 2.64 0 00-1.86 1.08 2 2 0 00-.39 1.33V427h-1.24z"/><path d="M94.61 1.75H597v394.79H94.61V1.75z" fill="#fff" stroke="#50d6cc" stroke-linecap="round" stroke-linejoin="round"/><path d="M318.14 74.62c0 .46 1.47 1 4.11 1a59.57 59.57 0 016.57.44c2.06.33 2.63-.24 2-.88-.98-1.1-12.68-1.59-12.68-.56zM370.68 74.62l-2.63 1.18 6 .33c3.21 0 6.3-.49 6.3-.81s-1.13-.82-2.42-.82a9.18 9.18 0 01-3.4-.63c-.71-.32-2.26 0-3.87.75z" fill="#50d6cc"/><path d="M347 50.3a28.69 28.69 0 01-2.58 3.35 5.28 5.28 0 00-1.22 2.59c0 1-.2.9-.71-.58-1.16-3.17-2.06-3.68-4.19-2.59a15.44 15.44 0 01-4.05 1.36 5.91 5.91 0 00-3 1.23c-.33.51-2.19 1-4 1.16-3.8.32-5.66 1.35-10.56 5.74a6.88 6.88 0 01-2.83 1.81c-1.22 0-1.16.38.52 2.25.9 1 1.8 1.49 2.51 1.29a1.38 1.38 0 011.54.33 3.43 3.43 0 002.13.71c1.41.06 1.28.19-.9.77a13 13 0 00-5.28 3.61c-3 3.17-3.29 3.94-1.55 3.94a3 3 0 011.93.77c.39.39 2.26.78 4.12.84 3 .07 3.42.33 3.61 1.49.26 1.8 1.09 1.8 5.34-.13a22.39 22.39 0 009.72-7.42c1.87-2.58 1.94-3.94.2-3.94-1.23 0-2-3.09-1.16-4.45 1-1.68 4-1.68 5.73 0 1.42 1.36 1.67 1.36 4.18.58 2.32-.77 2.84-.77 4.7.26 2.13 1.16 2.19 1.16 3.8-.52 1.81-1.8 4.19-2.19 5.48-.9 1.09 1.1 1 4.32-.2 4.77s-1.22 1.75.07 4.26c1.41 2.71 3.73 4.58 8.43 6.91s5.22 2.38 5.93.58c.38-1.16 1-1.42 3.86-1.49 1.8-.06 3.67-.45 4-.84a3.07 3.07 0 011.94-.77c1.8 0 1.41-1.1-1.48-4.06a14.53 14.53 0 00-5.35-3.49c-2.19-.58-2.32-.71-.9-.77a3.37 3.37 0 002.12-.71 1.4 1.4 0 011.55-.33c.71.2 1.61-.25 2.51-1.29 1.68-1.87 1.74-2.25.52-2.25a7.25 7.25 0 01-2.84-1.88c-4.31-4.13-7.21-5.54-12.1-5.8-.45-.07-.9-.71-1.1-1.42-.32-1.16-.7-1.29-2.51-1a32.73 32.73 0 01-3.41.52 10 10 0 00-3.54 1.61c-2.25 1.48-3.16 1.16-3.22-1.1a9.57 9.57 0 00-2.25-3.48 12.85 12.85 0 01-2.26-3.1c0-1.29-2-.32-3.34 1.55zm4.11 2.89a11.64 11.64 0 012.77 3.5c.91 3 1.85 3.4 4.95 1.72a11.78 11.78 0 014.06-1.52 3.9 3.9 0 002.32-.83c1.29-1.29 1.14-.51.11 2.84-1.49 4.91.15 1.41-3.71-.85-.13-.13-1.54 3.15-.89 2.44s1.06-1.68.86-1.87c-.38-.39-6.34 3.38-7.43 4.86-.77 1-.58 1.1-2.32.19s-1.83-.86-1.83-5.89c0-3-.6-5.19-1-5.19s-.67 2.4-.67 5.43c0 5-.1 4.83-1.71 5.41-2.25.9-3.08.93-2.69 0s-4.93-6.46-5.63-5.81a3.18 3.18 0 00.91 2.46 3.71 3.71 0 011.05 1.68c0 .13-.81 0-2.29.08-2.25.13-2.67.27-3.89-1.15a6.89 6.89 0 01-1.38-2.12c0-1 2.43-2.26 3.78-2.26.77 0 1.24-.31 1.24-.64s.51-.85 1.09-1c1.22-.45 2.54 1.43 2.54 3.1a1.89 1.89 0 00.88 1.51c.78.65 1.4.7 2-.78.33-.9.7-1.9.7-2a9.1 9.1 0 011.72-2.19 7.85 7.85 0 002-2.65c0-1 .13-.61 2.38 1.64zm-20.21 6.18c0 1.74-1.93 2.88-4.89 2.88-2.19 0-5.28 1.41-5.28 2.31 0 .32.56.57 1.21.31a17.1 17.1 0 012.89-.76c1.55-.25 1.64-.27 1.64 1.15a8.69 8.69 0 01-.44 2.48c-.45 1.1-2.65 1.29-2.65.26 0-.39-.86-.59-2-.59s-1.72-.33-1.72-.71-.77-.56-1.68-.3c-2.25.58-2.19-.41-.38-2.22 3.28-3.22 6.09-5 9-5.46 4.57-.78 4.27-1 4.27.65zm41 .05c3.22.52 10 5.22 9.18 6.58-.26.32-.52.38-1.42.19s-1.6 0-1.6.45-.68.71-1.77.71-2.22 0-2.22.39c0 1.29-1.84 1-2.23-.45s1.65-2.33 2.95-2.66c2.12.13 4.1-.39 4.1-.65 0-.77-1.93-1.22-5.21-1.22a10.08 10.08 0 01-4.83-1 9.69 9.69 0 01-1.55-1c-.07 0-.21-.5.05-1.28.25-1 .28-1.3 1.31-1.1.71.19 2.4.66 3.56.85zM334 63.14c2.06 1.94 1.55 2.92-1.67 3l-2.9.3 2.49 1c1.42.39 3.5.84 4.53 1.68l1.8 1.48-2.06 1.1c-2.51 1.23-2.8.78-5.63-.25-1.29-.46-2.06-.74-1.87-1.26a1 1 0 00-.24-1.15c-1.1-.71-.23-3.53 1.7-5.28a11.63 11.63 0 012.2-1.76 3.75 3.75 0 011.65 1.14zm33.81.84c1.48 1.36 2.06 3.25 1.74 6.09-.13 1.16-2.62 2.42-4.87 2.42-1.87 0-4.41-1.8-3.77-2.83.2-.39 2-1.16 3.68-2.25 1.93-1.29 2.6-2.64 1.83-2.64a4.26 4.26 0 00-2.54 1c-1.68 1.48-1.16.47.58-1.53s1.35-2.12 3.35-.31zm-41.07 8.7c.39.58 2.43 1.39 4.56 1.58 3.47.39 3.6 0 2.57 1.14-.64.71-2.92 1.81-5.05 2.84-3.54 1.81-3.71 2-4 1-.32-1.67-1.41-2.12-3.79-1.74-2.06.39-6.21-.65-6.21-1.56s3.41-4 4.7-4.32c2.06-.65 6.42.06 7.19 1.09zm54.26 1.1c1 1.16 1.9 1.92 1.9 2.17 0 1-3.62 1.83-6.07 1.44s-3.68.17-3.75 1.85c0 .32-.34.46-1 .4a23.92 23.92 0 01-8-4.46c-.9-1-1.09-.58 2.33-.91 2.06-.19 4-.77 4.16-1.16.77-1.23 3.31-1.82 6-1.49a6 6 0 014.43 2.16z" fill="#50d6cc"/><path d="M293.25 130.82c-1.58.64-3.8 1.06-4.22 2.75.11.63 1.27.74 2.21.52-.1-1.16.22-1.58 1.69-1.26-.21-.64.21-1.27.32-2zM401.66 130.82c1.58.64 3.79 1.06 4.21 2.75-.1.63-1.26.74-2.21.52.11-1.16-.21-1.58-1.68-1.26.21-.64-.21-1.27-.32-2zM355.83 185.72c1.37.43 3.48 1 3.79 2.43 0 .64-1.05.64-2 .53.11-1.05-.21-1.48-1.58-1.27.21-.52-.21-1.16-.21-1.69z" fill="#fff" stroke="#50d6cc" stroke-width=".3"/><path d="M358.46 73.28c1.16 0 2.22.21 3.37.32 7.17 20.69 41.62 20.69 48.79 7.28-3.69-3.38-4.43-5.91-4-10.45.32-2.64.95-7.92 7.9-8.24 2.64-.1 4.32 1.69 4.53 9.29.53 12.36-14.85 25-29.39 24.18-10.12-.63-31.82-7.07-31.19-22.38z" fill="#fff"/><path d="M314.74 163.76a10.61 10.61 0 00-1.48-3.9c0 .21-.84.42-.84.21a12 12 0 011.37 3.48 4.91 4.91 0 00.84.32h0l.11-.11zm1.05-36.95a10.83 10.83 0 00-1.47-3.91c0 .21-.84.43-.84.21a12 12 0 011.36 3.49 4.11 4.11 0 00.85.31h0l.1-.1zm-27.5 10.77a11 11 0 011.48-3.91c0 .21.84.42.84.21a12 12 0 00-1.37 3.49 3.86 3.86 0 01-.84.31h0l-.11-.1z" fill="#fff" stroke="#50d6cc" stroke-width=".3"/><path d="M314.11 161.86a3.44 3.44 0 011.26.43c.84.84 2.53 2.63 2.53 3.8 0-.85 1-3.17.11-3.91-.53-.74-3.27-.85-3.9-.32zm0 .43c-.53 0-1.06.63-1.37 1.16-.53 1.37-1.48 4.11-.95 5.49-.42-1.16-2.53-3.17-2.11-4.54.42-1.06 3.37-2.54 4.43-2.11zm-.32-1a2.33 2.33 0 00-1.16 1.27c-.52 1.27-1.68 4-.95 5.49-.52-1.16-2.52-3.17-2.21-4.64.32-1.16 3.48-2.54 4.32-2.12zm1.37-36.42a3.78 3.78 0 011.27.42c.84.85 2.52 2.64 2.52 3.8 0-.84.95-3.17.11-3.9-.53-.74-3.27-.85-3.9-.32zm0 .42c-.53 0-1.05.63-1.37 1.16-.53 1.38-1.47 4.12-1 5.49-.42-1.16-2.53-3.16-2.1-4.54.42-1 3.37-2.53 4.42-2.11zm-.32-1a2.25 2.25 0 00-1.15 1.27c-.53 1.26-1.69 4-.95 5.49-.53-1.16-2.53-3.17-2.21-4.65.31-1.16 3.47-2.53 4.31-2.11zm-25.91 11.3a3.71 3.71 0 00-1.27.42c-.84.85-2.53 2.64-2.53 3.8 0-.84-.94-3.17-.1-3.9.53-.74 3.26-.85 3.9-.32zm0 .42c.52 0 1.05.63 1.37 1.16.52 1.37 1.47 4.12.94 5.49.43-1.16 2.53-3.16 2.11-4.54-.42-1.05-3.37-2.53-4.42-2.11zm.31-.95a2.27 2.27 0 011.16 1.27c.53 1.26 1.69 4 1 5.49.53-1.16 2.53-3.17 2.21-4.65-.31-1.16-3.47-2.53-4.32-2.11z" fill="#fff" stroke="#50d6cc" stroke-width=".3"/><path d="M313.79 161.44a2.55 2.55 0 00-1.37.85c-.63.84-1.79 3-1.05 3.8-.53-.85-2.95-2.22-2.53-3.17.42-.74 3.9-1.8 5-1.48zm-.1.11a2.23 2.23 0 011.37 1.37c.52 1.16 1.58 4 .94 5.38.53-1.05 2.53-3.06 2.22-4.54-.43-1-3.48-2.64-4.53-2.21zm1.15-37.06a2.49 2.49 0 00-1.36.84c-.64.85-1.8 3-1.06 3.8-.53-.84-2.95-2.22-2.53-3.17.42-.73 3.9-1.79 4.95-1.47zm-.1.1a2.21 2.21 0 011.37 1.37c.53 1.17 1.58 4 .95 5.39.52-1.06 2.53-3.06 2.21-4.54-.42-1.06-3.48-2.64-4.53-2.22zm-25.5 10.67a2.48 2.48 0 011.37.84c.63.85 1.79 3 1.06 3.8.52-.84 2.95-2.22 2.52-3.17-.42-.73-3.89-1.79-4.95-1.47zm.11.1a2.21 2.21 0 00-1.37 1.37c-.53 1.17-1.58 4-1 5.39-.53-1.06-2.53-3.06-2.21-4.54.42-1.06 3.47-2.64 4.53-2.22z" fill="#fff" stroke="#50d6cc" stroke-width=".1"/><path d="M380.48 163.76a10.79 10.79 0 011.48-3.9c0 .21.84.42.84.21a12 12 0 00-1.37 3.48 4.61 4.61 0 01-.84.32h0l-.11-.11zm-1.05-36.95a10.83 10.83 0 011.47-3.91c0 .21.85.43.85.21a12 12 0 00-1.37 3.49 3.92 3.92 0 01-.85.31h0l-.1-.1zm27.5 10.77a10.66 10.66 0 00-1.48-3.91c0 .21-.84.42-.84.21a12 12 0 011.37 3.49 4.06 4.06 0 00.84.31h0l.11-.1z" fill="#fff" stroke="#50d6cc" stroke-width=".3"/><path d="M381.12 161.86a3.43 3.43 0 00-1.27.43c-.84.84-2.53 2.63-2.53 3.8 0-.85-.95-3.17-.1-3.91.52-.74 3.26-.85 3.9-.32zm0 .43c.52 0 1.05.63 1.36 1.16.53 1.37 1.48 4.11.95 5.49.42-1.16 2.53-3.17 2.11-4.54-.42-1.06-3.37-2.54-4.42-2.11zm.31-1a2.33 2.33 0 011.16 1.27c.53 1.27 1.69 4 1 5.49.53-1.16 2.53-3.17 2.21-4.64-.32-1.16-3.48-2.54-4.32-2.12zm-1.37-36.42a3.64 3.64 0 00-1.26.42c-.85.85-2.53 2.64-2.53 3.8 0-.84-.95-3.17-.11-3.9.53-.74 3.27-.85 3.9-.32zm0 .42c.53 0 1.06.63 1.37 1.16.53 1.38 1.48 4.12.95 5.49.42-1.16 2.53-3.16 2.11-4.54-.42-1-3.37-2.53-4.43-2.11zm.32-1a2.3 2.3 0 011.16 1.27c.52 1.26 1.68 4 .94 5.49.52-1.05 2.52-3.05 2.22-4.56-.32-1.16-3.48-2.53-4.32-2.11zm25.92 11.3a3.64 3.64 0 011.26.42c.84.85 2.53 2.64 2.53 3.8 0-.84 1-3.17.1-3.9-.52-.74-3.26-.85-3.89-.32zm0 .42c-.53 0-1.06.63-1.37 1.16-.53 1.37-1.48 4.12-.95 5.49-.42-1.16-2.53-3.16-2.11-4.54.42-1.05 3.37-2.53 4.43-2.11zm-.32-.95a2.3 2.3 0 00-1.16 1.27c-.53 1.26-1.68 4-.95 5.49-.52-1.16-2.53-3.17-2.21-4.65.32-1.16 3.48-2.53 4.32-2.11z" fill="#fff" stroke="#50d6cc" stroke-width=".3"/><path d="M381.43 161.44a2.55 2.55 0 011.37.85c.63.84 1.79 3 1.05 3.8.53-.85 2.95-2.22 2.53-3.17-.42-.74-3.9-1.8-4.95-1.48zm.11.11a2.19 2.19 0 00-1.37 1.37c-.53 1.16-1.58 4-.95 5.38-.53-1.05-2.53-3.06-2.21-4.54.42-1 3.47-2.64 4.53-2.21zm-1.16-37.06a2.52 2.52 0 011.37.84c.63.85 1.79 3 1.05 3.8.53-.84 2.95-2.22 2.53-3.17-.42-.73-3.9-1.79-4.95-1.47zm.1.1a2.24 2.24 0 00-1.37 1.37c-.52 1.17-1.58 4-.94 5.39-.53-1.06-2.53-3.06-2.22-4.54.42-1.06 3.48-2.64 4.53-2.22zM406 135.26a2.48 2.48 0 00-1.37.84c-.63.85-1.79 3-1.05 3.8-.53-.84-2.95-2.22-2.53-3.17.42-.73 3.9-1.79 5-1.47zm-.11.1a2.21 2.21 0 011.37 1.37c.53 1.17 1.58 4 .95 5.39.53-1.06 2.53-3.06 2.21-4.54-.42-1.06-3.47-2.64-4.53-2.22z" fill="#fff" stroke="#50d6cc" stroke-width=".1"/><path d="M334.44 217.93a10.66 10.66 0 011.48-3.91c0 .21.84.42.84.21a12 12 0 00-1.37 3.49 4.06 4.06 0 01-.84.31h0l-.11-.1zm-1.05-37a10.78 10.78 0 011.47-3.9c0 .21.85.42.85.21a11.72 11.72 0 00-1.37 3.48 5 5 0 01-.85.32h0l-.1-.11zm27.5 10.77a10.72 10.72 0 00-1.48-3.9c0 .21-.84.42-.84.21a12 12 0 011.37 3.48 4.61 4.61 0 00.84.32h0l.11-.11z" fill="#fff" stroke="#50d6cc" stroke-width=".3"/><path d="M335.07 216a3.45 3.45 0 00-1.26.42c-.84.84-2.53 2.64-2.53 3.8 0-.84-.95-3.17-.1-3.91.52-.74 3.26-.84 3.89-.31zm0 .42c.53 0 1.06.63 1.37 1.16.53 1.37 1.48 4.12.95 5.49.42-1.16 2.53-3.17 2.11-4.54-.42-1.06-3.37-2.53-4.43-2.11zm.32-.95a2.3 2.3 0 011.16 1.27c.53 1.26 1.68 4 .95 5.49.52-1.17 2.53-3.17 2.21-4.65-.32-1.16-3.48-2.53-4.32-2.11zm-1.39-36.4a3.44 3.44 0 00-1.26.43c-.85.84-2.53 2.63-2.53 3.8 0-.85-1-3.17-.11-3.91.53-.74 3.27-.84 3.9-.32zm0 .43c.53 0 1.05.63 1.37 1.16.53 1.37 1.47 4.11.95 5.49.42-1.16 2.53-3.17 2.11-4.54-.43-1.06-3.38-2.54-4.43-2.11zm.32-.95a2.28 2.28 0 011.16 1.26c.52 1.27 1.68 4 .94 5.49.53-1.16 2.53-3.17 2.22-4.64-.32-1.16-3.48-2.54-4.32-2.11zm25.91 11.29a3.63 3.63 0 011.27.42c.84.85 2.53 2.64 2.53 3.81 0-.85.95-3.17.1-3.91-.52-.74-3.26-.85-3.9-.32zm0 .42c-.52 0-1.05.64-1.37 1.17-.52 1.37-1.47 4.11-.94 5.49-.43-1.16-2.53-3.17-2.11-4.54.42-1.06 3.37-2.54 4.42-2.12zm-.31-.95a2.3 2.3 0 00-1.16 1.27c-.53 1.27-1.69 4-.95 5.49-.53-1.16-2.53-3.17-2.21-4.64.31-1.17 3.48-2.54 4.32-2.12z" fill="#fff" stroke="#50d6cc" stroke-width=".3"/><path d="M335.39 215.6a2.55 2.55 0 011.37.85c.63.84 1.79 3 1.05 3.8.53-.84 2.95-2.22 2.53-3.17-.42-.74-3.9-1.79-4.95-1.48zm.11.11a2.21 2.21 0 00-1.37 1.37c-.53 1.16-1.58 4-.95 5.39-.53-1.06-2.53-3.06-2.22-4.54.43-1.06 3.48-2.64 4.54-2.22zm-1.16-37.06a2.59 2.59 0 011.37.85c.63.84 1.79 2.95 1.05 3.8.53-.85 2.95-2.22 2.53-3.17-.42-.74-3.9-1.8-5-1.48zm.1.11a2.19 2.19 0 00-1.37 1.37c-.52 1.16-1.58 4-.95 5.38-.52-1-2.53-3.06-2.21-4.54.42-1.05 3.48-2.64 4.53-2.21zm25.5 10.66a2.6 2.6 0 00-1.37.84c-.63.85-1.79 3-1.06 3.81-.52-.85-2.95-2.22-2.52-3.17.42-.74 3.89-1.8 4.95-1.48zm-.11.11a2.16 2.16 0 011.37 1.37c.53 1.16 1.58 4 .95 5.38.53-1.05 2.53-3.06 2.21-4.54-.42-1.05-3.47-2.64-4.53-2.21z" fill="#fff" stroke="#50d6cc" stroke-width=".1"/><path d="M403.34 313.9c-9.69 11.81-14.55 7.65-24.94 4.52s-21.48-8.33-31.53-10.76-35-4.18-50.25-4.87c-14.11-.64-19-6.34-19.4-10.76.1 0 4.49-1.15 13.63-.24s9.7.71 11.54-2.08a13.93 13.93 0 001.27-2.31 3 3 0 001.28-2.66c0-3.48-2.43-8.67-27.38-8.67-8.47 0-14.73-.29-19.51-.76l7.39-19c2.25-6.25-8.15-7.29-8.15-7.29-9.7 0-17.15.17-22-1-9.14-2.28-16.29-3.11-30.14-2.42s-25 .69-43.66-4.87c1.73 7.13 15.59 16.84 15.59 16.84l-21.83 10.08 6.24 1.56c18.71 5.56 29.8 5.56 43.66 4.86 10.57-.53 17.23-.17 23.85 1l-4.83 15.54c8.75 9.09 14.83 13.86 42.42 16.51l-5.3 6.72 1.14.23c9.94 13.66 15.48 18.05 38.58 18.52s33.73.23 51.51 8.33 26 10.93 40 6.76c0 0 .25.74 2.81-5.3 2.88-6.78 3.59-19.75 6.36-22.07s6.47-8.79 6.47-8.79l-4.86 2.42" fill="#50d6cc"/><path d="M467.11 282.54c3 1.38 6.23 2.31 15.94-.47s37.88-7.63 52.66-6.48c-5.78-5.09-21-12.73-21-12.73l15.48-12.73a34.64 34.64 0 01-9.49-1.13c-16.4-4.62-32.11.7-46 6.49-2.75 1.14-5 2-6.89 2.66l-3.28-11.46s-5.64-4.12-19 .36c-12.2 4.11-14.95 10.75-14.25 12.36s6.47 12.51 6.47 12.51l-.14.39a148.61 148.61 0 01-19.73 7.24c-22.87 7-27.95 10.18-48.28 25l5.31 12.73 11.09 3.45a14.51 14.51 0 005.08.7l.28.18C403 313.7 410 310.56 427.6 305.22c22.87-7 34.19-13.67 31.65-20.14l-3.93-10.65s5.08-3 7.16-2.09l4.63 10.18" fill="#50d6cc"/><path d="M230.61 271l2.7-9.47c.39-2.33 4-3.76 14.16-2.28 7 1 12.62 2.15 15.79-.42l.14-.06c.42-4.51-5.93-4.08-5.93-4.08h-.18c-9.7 0-17.15.17-22-1-9.15-2.29-16.29-3.13-30.15-2.44-12.7.64-21.63 1.07-37.67-3.19 3.12 3.81 11.13 9.66 11.13 9.66l-15.92 7.43c18.72 5.56 28.6 5.21 42.46 4.51 11.45-.58 18.31-.1 25.51 1.35M278.28 291.44a39.58 39.58 0 0111.78.17c7.86 1.13 10.76.37 11.39-.63l-5.14 11.83s-20 .23-19.07-11.11" fill="#fff"/><path d="M407.78 312.06l-4.15 5.94a19.75 19.75 0 01-3.87 4c-6.83 5.21-14.84 2.68-23.79.58-10.4-3.11-21.48-8.32-31.53-10.76s-35-4.16-50.24-4.86-19.75-7.29-19.41-11.81a5.09 5.09 0 01.29-1.4l2.57-4.58.38-.49c1.71-2.13 6.13-1.9 13.74-.81 4.85.69 8.14.79 10.22.26l.18-.61c0-3.47-2.08-7.29-27-7.29s-30.67-2.43-36.21-4.87c-3.27-1.43-8-6.18-7.09-9.28l-5.62 18.31c9.47 10 14 15.05 42.91 17.83l-4.85 7.19c9.93 13.65 15.48 18 38.58 18.51s33.73.23 51.52 8.32c17.39 7.94 26.15 10.68 39.72 6.9l.9-.27" fill="#fff"/><path d="M233.83 264.22c1.29 2.79 5 5.89 7.53 7 3.69 1.62 7.45 3.24 16.94 4.14l5.43-14.74c-2.25 6.24-9.58 4.6-18.53 3.29M465.83 277.73c3 1.4 6.24 2.32 15.94-.46s30.79-7.68 45.58-6.52l-13.54-7.5 9.54-8.66c-16.4-4.63-32.11.69-46 6.48s-15.48 4.63-17.32 2.54l-3.7-7.17s.23-3.24 3-4.4 3.24-1.39 3.24-1.39-3-4.17-14.56 0-12.24 9.49-12 10.42a19.25 19.25 0 004.62-1.15c2.31-.93 7.86-4.17 9.48-.23s1.61 4.74 1.61 4.74c2.54 6.47-9 12.84-31.87 19.79s-27.5 9.72-47.83 24.53l3.39 8.63 10.45 3.47c14.46-10.28 20.95-13.51 40.68-19.5 22.87-6.94 34.19-13.66 31.65-20.14L454.51 271s4.16-3.69 6.7-2.78l4.62 9.5" fill="#fff"/><path d="M238.19 284.38c-1 1.44-1.17 3.4.48 4.46a2.38 2.38 0 001.12.3l-.24-2.55 1.85 1 .13 1.36a4 4 0 001.84-1.44c1-1.4 1.07-3.53-.44-4.5s-3.66-.09-4.74 1.39l-1.67-1.21a5.69 5.69 0 017.57-1.79c2.52 1.62 2.74 4.85 1 7.28a6.77 6.77 0 01-3.29 2.45l.16 2.17-1.82-.93-.07-1.1a4.75 4.75 0 01-2.57-.79c-2.52-1.61-2.77-4.83-1-7.29l1.67 1.21M252.46 285l2.09.2-1.65 5.53c-.36 1.22-.76 2.95 1 3.11s2.41-1.52 2.78-2.75l1.65-5.52 2.09.2-1.76 5.91c-.72 2.4-2.38 4.12-5.26 3.85s-3.45-2.21-2.73-4.62l1.76-5.91M266 295.9h-2.13l2.13-9.92 2.13.05-2.13 9.87M274.38 315.59l-1.67-1.17 5-7.12-1.71-1.2 1-1.46 5.12 3.57-1 1.46-1.73-1.21-5 7.13M288 313.58l-.95 1.77.26.07c1.09.34 2 .28 2.62-.85s-.07-1.6-1.13-1.93l-.27-.09-.53 1-2-.56 1.34-2.53 2.69.8c2 .62 3 1.84 1.92 3.83a3.53 3.53 0 01-3.44 1.93l.8 4.77-2.4-.72-.49-4.47-2 3.72-2-.6L286 313l2 .56M300.29 317.13l-1.22 2.12 2.51.19-.41-3.79-.86 1.48-1.75-.49 2.66-4 1.6.12 1.45 10.72-2.2-.15-.29-2.22-3.67-.28-1.4 2.09-2.17-.17 4-6.09 1.75.49M311.63 313.1l1.5.08 4 7.4 1.51-6.83 2.07.11-2.28 10.37-1.49-.08-4-7.4-1.52 6.9-2.07-.1 2.29-10.45M331.23 317a1.56 1.56 0 00-1.35-1 1.53 1.53 0 00-1.6 1c-.46 1.71 3.9 1.42 3 4.81a4 4 0 01-4.4 3.12 3 3 0 01-2.7-2.3l1.66-1.11a1.76 1.76 0 001.5 1.67 1.73 1.73 0 001.75-1.33c.28-1.05-.64-1.44-1.38-1.84-1.2-.67-2-1.43-1.59-3a3.67 3.67 0 016.46-1.31l-1.35 1.29M338.68 326.43l-2-.38 3.09-8.29-2.06-.4.63-1.7 6.11 1.2-.63 1.68-2.06-.4-3.09 8.29M348.25 318.17l1.89.74-2.14 5.45c-.48 1.2-1 2.93.57 3.57s2.38-1 2.86-2.21l2.14-5.45 1.9.76-2.3 5.82c-.94 2.37-2.65 3.77-5.25 2.74s-2.9-3.24-2-5.61l2.3-5.82M359.3 332.09l2.7 1.11-.68 1.64-4.58-1.84 4-9.67 1.89.79-3.32 8M368 337.38l-1.91-.69 3.51-9.86 1.92.68-3.52 9.87M376.65 339.58l-2-.4L377 331l-2.1-.41.48-1.69 6.24 1.23-.48 1.68-2.11-.42-2.38 8.25M385 306.23a1.84 1.84 0 00-1.79 0 1.26 1.26 0 00-.53 1.66c.86 1.53 4.11-1.14 5.83 1.93a3.3 3.3 0 01-1.26 4.8 3.67 3.67 0 01-3.79-.21l.52-1.77a2.12 2.12 0 002.38.41 1.4 1.4 0 00.44-2c-.53-.94-1.55-.72-2.42-.6-1.44.17-2.63.06-3.42-1.36a3.06 3.06 0 011.13-4.23 4.3 4.3 0 013-.38l-.14 1.71M388.47 301.65l1.8-1 2.75 5.17c.61 1.12 1.56 2.68 3.09 1.87s.77-2.48.16-3.62l-2.75-5.17 1.8-1 2.94 5.53c1.2 2.26 1.15 4.47-1.32 5.78s-4.33.14-5.53-2.12l-2.94-5.52M404.9 295.9a1.9 1.9 0 00-1.78-.12 1.26 1.26 0 00-.66 1.62c.75 1.59 4.19-.84 5.67 2.35a3.29 3.29 0 01-1.59 4.69 3.7 3.7 0 01-3.77-.46l.64-1.74a2.16 2.16 0 002.35.58 1.39 1.39 0 00.58-1.94c-.46-1-1.49-.83-2.36-.77-1.45.06-2.63-.15-3.32-1.6a3.05 3.05 0 011.43-4.14 4.23 4.23 0 013.09-.15l-.27 1.68M416.08 300.05l-1.89.75-3.19-8.08-2 .77-.65-1.65 5.81-2.3.65 1.66-1.95.77 3.17 8.08M423.19 297.49l-1.93.66-3.37-9.91 1.93-.66 3.37 9.91M423.72 286l1.39-.5 7.61 5.09-2.3-6.59 1.91-.69 3.53 10.09-1.38.48-7.61-5.07 2.35 6.72-1.93.67-3.57-10.2" fill="#50d6cc"/><path d="M263.81 177.07a11.88 11.88 0 00.67-3.28c-.21-7.6-6-13-12.85-16.47 4.53-3.27 9.48-14.88 9.8-23.23.31-7.81-4-15-8.11-21.64-1.9-3.27-6.33-6.23-9-7.18-1.16 1.8-5.79 5.81-9.27 6s-8.54-2.75-8.54-6.34c0-2.74 1.16-7.07 4.32-9 8.64-5.28 18.76-8.76 26.66-15.1C262.27 77 264.48 70 269.44 66c1.89-1.47 4-3.06 6-3.59M451.66 188.87c.79 0 1.55.08 2.26.13 2.63.95 2.1 4.54 2.84 7.28.95 3.59 2.74 7.71 2.21 11.62-1.79 12.14-5.58 22.49-17.06 30.4a78 78 0 01-17.91 9.3c-3.06-2.75-5.8-6.76-9.17-8.34-10.83-.26-24.13 5.38-27.83 13.3-1.8 3.9 2.84 8.13 8.11 12.46-11.06 8-24.13 12-36.25 17.52-4.1 1.9-7.79 4.65-13.9 11.72-6.32-7.6-9.59-10.87-15.49-13.62-10.43-4.75-23-7.49-30.87-15.62 4.85-2.85 7.8-5.18 8.53-9.61-6.74-8.55-14.64-17.63-25.07-20.27-3.48 1.37-7.9 7.49-10.64 12-25.71-5.38-46.57-33.78-33.09-57.22 3 1.16 7.27 3.27 10.86 1.37 1.23-.77 2.5-1.58 3.76-2.44M336.13 74.55h0c1.47 5.8 13.48 5.38 16.12 5.17h0l11.06-3.17-.32.19c3.37 8.65 16.23 13.54 26.66 13.43 10.22-.1 17-3.38 21.07-9.29-3.58-3.8-4.53-5-4.11-11.61a7.81 7.81 0 017.27-7.08c4.22-.1 7.8 3.28 10.85 6.23 4.85 4.65 8.64 10.14 13.91 14.26 4.85 4 10.22 3.9 14.65 7 4.74 3.38 10 8.77 12.11 14.15 1.79 4.65-1.47 9.61-4.53 9.61-3.48 0-7.16-3.06-6.53-5.91-6.11-4.54-17.91 5.17-20.76 15.62-3.79 13.62 2 28.3 9 34.21-2.21 5.81-9.9 10.67-13.91 14.36-1.47 5.39.63 12.88 5.16 16.26" fill="none" stroke="#50d6cc" stroke-linecap="round" stroke-linejoin="round" stroke-width=".87"/><path d="M333.28 73.38c-1.58 9.82-18.35 16-28 16.33-9.64-.69-16.84-5-22.63-11.36 2.31-.53 4.95-5.49 4.63-9.4a8 8 0 00-6.11-7 9.42 9.42 0 00-5.69.42c-4.53 22.81 19 32.73 30.87 32.42s29.58-9.14 28.74-21.07v-.23z" fill="none" stroke="#50d6cc" stroke-linecap="round" stroke-linejoin="round" stroke-width=".87"/><path d="M438.62 282.64l.92 2.12 3-1.32.72 1.63-3 1.31 1.13 2.58 3.08-1.34.71 1.62-4.94 2.17-4.2-9.58 4.95-2.18.71 1.62-3.08 1.37M452.86 284.85l-1.77 1-3.23-8.09-1.83 1-.87-1.54 5.44-3.08.87 1.54-1.83 1 3.22 8.07" fill="#50d6cc"/><path d="M394.06 259.51c.07.09-.06.15-.13.22h-.08v-.2h.21M393.93 260.43l-.14-.21c.14-.14.42.14.14.21"/><path d="M165.6 247.63c16.14 4.33 26.55 4.28 39.29 3.62 13.86-.68 21 .15 30.15 2.44 4.84 1.21 12.3 1 22 1m-95.8 10.08c18.71 5.55 29.8 5.55 43.66 4.86 11.53-.59 17.49-.56 24.75.93M257 249s10.39 1 8.14 7.3-8.89 4.78-17.84 3.46c-23.74-3.46-11.79 9-6.24 11.47s11.26 4.86 36.21 4.86 27.38 5.2 27.38 8.67-3.47 4.52-13.18 3.13-14.16-1.38-14.47 3.11 4.15 11.11 19.4 11.81 40.2 2.43 50.24 4.86 21.14 7.63 31.53 10.76 15.25 7.29 24.95-4.51m-146.45-59.2s6.65.31 6.64 4.39m13.46 32.72c2.25-1 6.29-.65 12.35.21 6.51.93 10.22.77 11.94-.48m1.18-3.42c-.2-5.73-4.21-7.9-27.32-7.9-24.95 0-30.67-2.42-36.22-4.85-2.76-1.22-6.58-4.83-7-7.76m1.87-3.27c1.93-.92 5.47-1.25 11.38-.43 7.75 1.06 15.24 1.79 18.19-1.9l1.84-4.93m-39.2 27.67c9.47 9.94 14.26 14.69 43.14 17.47m-3.7 4.87c-27.58-2.67-32.51-7.43-41.26-16.53l9.61-29.72m44.59 27.25l-16.63 25.7c9.93 13.66 16.16 18.29 39.27 18.75s33.73.23 51.51 8.33 25.64 10.88 39.73 6.72a18.9 18.9 0 004.17-8c1.38-5.21 9.35-21.18 11.77-27.07l-2.77 4.5c-9.7 11.8-19.06 8.68-29.45 5.55s-21.49-8.33-31.54-10.76-35-4.16-50.24-4.86c-14.61-.66-19.35-6.75-19.42-11.23l-.33-2.08M394.78 343c-14.09 4.18-21.95 2.1-39.74-6s-28.41-7.87-51.51-8.34-29.34-5.09-39.27-18.74M228.66 275c-6.59-1.21-13.24-1.57-23.77-1-13.86.7-24.95.7-43.66-4.86l-6.23-1.56 21.83-10.07s-13.86-9.72-15.59-16.83c18.71 5.54 29.8 5.54 43.66 4.85s21 .14 30.15 2.44c4.84 1.2 12.3 1 22 1" fill="none"/><path d="M263.57 261.61L259 274.8m37.65 27.55l7.63-16.2m152-29.17l10.86 25.46c3 1.39 6.23 2.31 15.94-.47s37.88-7.64 52.66-6.47c-4.39-5.09-21.25-12.28-21.25-12.28L530.15 250a34.64 34.64 0 01-9.47-1.16c-16.4-4.62-32.11.7-46 6.49s-15.48 4.62-17.33 2.54c-3.93-2.54-.46-5.09 4.16-7.64s3.7-5.09-.7-5.32c-15.24-1.38-25.4 6.71-28.41 10.42s-.92 7.86 7.86 4.17c4.78-2 7.62-3.25 9.24-.24 2.54 6.48-8.78 13.2-31.65 20.13s-27.95 10.19-48.28 25l5.31 12.49m60.29-56c-.23-6 18.49-15.74 26.57-11.34m-12 10l9.49 25.46c2.54 6.49-8.78 13.19-31.65 20.14-17.72 5.38-24.76 8.55-36.49 16.58m67.77-58.78c1.85 2.08 4.06 3.55 17.92-2.24s29.58-11.11 46-6.48l1.39.41m-58.91 22.73c3 1.4 6.23 2.32 15.93-.46s32.81-7.4 47.59-6.25m-157.1 37.72c20.33-14.82 24.72-17.6 47.59-24.54s34.48-13.81 31.94-20.28m-65.88 56.89C399.76 310.17 406.26 307 426 301c22.86-6.94 34.19-13.65 31.64-20.13m-26.33-21.29l6.23 12m27-24.77l3 10.88m-1.62-5.33c-4.16 1.85-9 4.64-6.7 6.49m-25.18 5.32c1.15 1.39 3.46 1.15 7.62-.7s8.09-2.31 7.39-.46m4.85 7.42c2.08-1.4 4.39-2.78 7.17-2.33m-6 6.26c2.54-1.62 6-2.32 7.85-1.85" fill="none"/><path d="M434 264.29c1.34 2.08 5.32.59 9.69-1.27 2.8-.8 5.3-1.53 5 .33-.34 3.14-10.71 8.54-11 7.86a65.49 65.49 0 00-3.7-6.92zM467.21 257.78c-2.91 1.06-1.68.52-3.7 1.17-2.27.12-4.57 1-4.51-1.47 1.33-2.57 6.77-4.78 6.8-4.67.64 2 .71 2.63 1.41 5z" fill="#fff"/><path d="M316.74 163.87a2 2 0 012.74-.85 1.77 1.77 0 01.21 2.85 1.84 1.84 0 01-.31 3.59 1.84 1.84 0 01-.53 3.49 2 2 0 01-.84 3.17 1.54 1.54 0 01-1.01 1.58 1.73 1.73 0 01-.31 2.11 2 2 0 01-.95 1.27 1.83 1.83 0 01-1.79 1.37 3.73 3.73 0 01-1.79-5c-1.58-.63-1.8-2.32-.74-3.06a2 2 0 01-.42-1.27 1.67 1.67 0 01-.74-2.22 1.83 1.83 0 01-1.16-2.95 1.84 1.84 0 01.42-3.17 4.52 4.52 0 015.27-.74 1.88 1.88 0 012-.21zm1.05-37a1.94 1.94 0 012.74-.84 1.76 1.76 0 01.21 2.85 1.84 1.84 0 01-.31 3.59 1.84 1.84 0 01-.53 3.49 2 2 0 01-.84 3.16 1.55 1.55 0 01-1.05 1.59 1.72 1.72 0 01-.32 2.11 2 2 0 01-.95 1.27 1.84 1.84 0 01-1.74 1.41 1.78 1.78 0 01-1.79-1.8 1.76 1.76 0 010-3.16c-1.58-.64-1.79-2.33-.74-3.07a2 2 0 01-.42-1.26 1.68 1.68 0 01-.74-2.22 1.84 1.84 0 01-1.16-3 1.83 1.83 0 01.43-3.16 1.72 1.72 0 011.58-2 12.54 12.54 0 003.68 1.27 1.89 1.89 0 012-.22zm-31.5 10.77a1.94 1.94 0 00-2.74-.84 1.77 1.77 0 00-.21 2.85 1.84 1.84 0 00.32 3.59 1.83 1.83 0 00.53 3.48 2 2 0 00.84 3.17 1.53 1.53 0 001.05 1.59 1.72 1.72 0 00.32 2.11 1.9 1.9 0 001 1.26 1.83 1.83 0 001.79 1.38 1.78 1.78 0 001.79-1.8 1.77 1.77 0 000-3.17c1.58-.63 1.79-2.32.74-3.06a2 2 0 00.42-1.26 1.67 1.67 0 00.73-2.22 1.84 1.84 0 001.16-3 1.84 1.84 0 00-.42-3.17 1.73 1.73 0 00-1.58-2 12.47 12.47 0 01-3.69 1.27 1.88 1.88 0 00-2-.22zM378.48 163.87a2 2 0 00-2.74-.85 1.77 1.77 0 00-.21 2.85 1.84 1.84 0 00.32 3.59 1.84 1.84 0 00.52 3.49 2.05 2.05 0 00.85 3.17 1.52 1.52 0 001 1.58 1.72 1.72 0 00.32 2.11 1.94 1.94 0 00.94 1.27 1.85 1.85 0 001.8 1.37 3.73 3.73 0 001.79-5c1.58-.63 1.79-2.32.73-3.06a2 2 0 00.43-1.27 1.67 1.67 0 00.73-2.22 1.83 1.83 0 001.16-2.95 1.84 1.84 0 00-.42-3.17 4.52 4.52 0 00-5.27-.74 1.88 1.88 0 00-2-.21zm-1.05-37a1.94 1.94 0 00-2.74-.84 1.76 1.76 0 00-.21 2.85 1.84 1.84 0 00.31 3.59 1.84 1.84 0 00.53 3.49 2 2 0 00.84 3.16 1.55 1.55 0 001.06 1.59 1.73 1.73 0 00.31 2.11 2 2 0 001 1.27 1.84 1.84 0 001.79 1.37 1.78 1.78 0 001.79-1.8 1.76 1.76 0 000-3.16c1.58-.64 1.79-2.33.74-3.07a2 2 0 00.42-1.26A1.67 1.67 0 00384 134a1.84 1.84 0 001.16-3 1.83 1.83 0 00-.42-3.16 1.81 1.81 0 00-3.27-1.27 1.7 1.7 0 00-2 .53 1.88 1.88 0 00-2-.22zm31.5 10.77a1.94 1.94 0 012.74-.84 1.77 1.77 0 01.21 2.85 1.84 1.84 0 01-.32 3.59 1.83 1.83 0 01-.52 3.48 2 2 0 01-.85 3.17 1.53 1.53 0 01-1.05 1.59 1.72 1.72 0 01-.32 2.11 1.92 1.92 0 01-.94 1.26 1.84 1.84 0 01-1.79 1.38 1.79 1.79 0 01-1.8-1.8 1.77 1.77 0 010-3.17c-1.58-.63-1.79-2.32-.73-3.06a2 2 0 01-.42-1.26 1.67 1.67 0 01-.74-2.22 1.84 1.84 0 01-1.16-3 1.84 1.84 0 01.42-3.17 1.81 1.81 0 013.27-1.26 1.7 1.7 0 012 .53 1.88 1.88 0 012-.22z" fill="#fff" stroke="#50d6cc" stroke-width=".3"/><path d="M313.26 178.65c-.42 1.58.74 3.17 2 2.85a1.89 1.89 0 01-3.27-.84c-.32-.53.21-1.8 1.26-2zm1.27-1.37c-.42 1.37 1.05 2.53 2.32 2.32a1.94 1.94 0 01-3.27-.74 1.07 1.07 0 01.95-1.58zm1.16-3c-.42 1.48.74 3.06 2 2.75a1.87 1.87 0 01-3.27-.74 1.51 1.51 0 011.27-2zm-3.37-2.95c-.53 1.47.73 3.06 2 2.74a1.92 1.92 0 01-3.37-.74 1.67 1.67 0 011.37-2zm2.31-1.38c-.42 1.59.74 3.17 2.11 2.75a2 2 0 01-3.37-.64 1.7 1.7 0 011.26-2.11zm-3.05-1.9a1.69 1.69 0 002 2.32 1.92 1.92 0 01-3.37-.73c-.21-.64.21-1.38 1.37-1.59zm5.16-.1a2 2 0 002 2.74 2 2 0 01-3.37-.74 1.63 1.63 0 011.37-2zm-2.84-2c-.42 1.58.21 2.85 1.47 2.64a1.47 1.47 0 01-2.74-.53 1.74 1.74 0 011.27-2.06zm-4.32-1.16c-.42 1.58.73 3.17 2.1 2.85a2 2 0 01-3.37-.74 1.7 1.7 0 011.27-2.11zm1.05-1.9c-.42 1.58.74 3.06 2 2.85a1.86 1.86 0 01-3.26-.74 1.59 1.59 0 011.26-2.11zm4.85.84c-.42 1.48.73 3.07 2 2.85a1.9 1.9 0 01-3.27-.74 1.67 1.67 0 011.27-2.11zm2.53-.95a2.07 2.07 0 002 2.85 1.86 1.86 0 01-3.27-.74 1.63 1.63 0 011.27-2.11zm-3.69-21.11c-.42 1.58.74 3.16 2 2.85a1.9 1.9 0 01-3.27-.85c-.31-.52.21-1.79 1.27-2zm1.26-1.38c-.42 1.38 1.06 2.54 2.32 2.33a1.94 1.94 0 01-3.27-.74 1.08 1.08 0 01.95-1.59zm1.16-2.95c-.42 1.48.74 3.06 2 2.74a1.86 1.86 0 01-3.26-.74 1.49 1.49 0 011.26-2zm-3.37-3c-.53 1.48.74 3.06 2 2.75a1.92 1.92 0 01-3.37-.74 1.68 1.68 0 011.37-2zm2.32-1.37c-.42 1.58.74 3.17 2.1 2.74a2 2 0 01-3.37-.63 1.7 1.7 0 011.27-2.11zm-3.06-1.9a1.69 1.69 0 002 2.32 1.92 1.92 0 01-3.37-.74c-.21-.63.21-1.37 1.37-1.58zm5.16-.11a2 2 0 002 2.75 2 2 0 01-3.37-.74 1.63 1.63 0 011.36-2zM315 129c-.42 1.58.21 2.85 1.48 2.64a1.47 1.47 0 01-2.74-.53A1.74 1.74 0 01315 129zm-4.32-1.16c-.42 1.58.74 3.16 2.11 2.85a2 2 0 01-3.37-.74 1.69 1.69 0 011.26-2.11zm1.05-1.91c-.42 1.59.74 3.07 2 2.86a1.87 1.87 0 01-3.27-.74 1.6 1.6 0 011.26-2.12zm4.85.85c-.42 1.48.74 3.06 2 2.85a1.9 1.9 0 01-3.26-.74 1.66 1.66 0 011.26-2.11zm2.53-1a2.08 2.08 0 002 2.85 1.87 1.87 0 01-3.27-.74 1.63 1.63 0 011.27-2.11zm-29.29 26.61c.42 1.58-.74 3.16-2 2.85a1.89 1.89 0 003.26-.85c.32-.53-.21-1.79-1.26-2zm-1.26-1.38c.42 1.38-1.06 2.54-2.32 2.33a1.93 1.93 0 003.26-.74 1.07 1.07 0 00-.94-1.59zm-1.16-3c.42 1.48-.74 3.06-2 2.74a1.86 1.86 0 003.27-.74 1.49 1.49 0 00-1.26-2zm3.37-3c.52 1.48-.74 3.06-2 2.75a1.92 1.92 0 003.37-.74 1.68 1.68 0 00-1.37-2zm-2.32-1.37c.42 1.58-.74 3.17-2.11 2.74a2 2 0 003.37-.63 1.7 1.7 0 00-1.26-2.11zm3.06-1.9a1.69 1.69 0 01-2 2.32 1.92 1.92 0 003.37-.74c.22-.63-.21-1.37-1.36-1.58zm-5.17-.11a2 2 0 01-2 2.75 2 2 0 003.37-.74 1.64 1.64 0 00-1.37-2zm2.85-2c.42 1.58-.21 2.85-1.48 2.64a1.47 1.47 0 002.74-.53 1.74 1.74 0 00-1.26-2.11zm4.32-1.17c.42 1.59-.74 3.17-2.11 2.86a2 2 0 003.37-.74 1.71 1.71 0 00-1.26-2.12zm-1.06-1.9c.42 1.59-.73 3.07-2 2.86a1.87 1.87 0 003.27-.74 1.61 1.61 0 00-1.27-2.12zm-4.84.85c.42 1.48-.74 3.06-2 2.85a1.9 1.9 0 003.26-.74 1.66 1.66 0 00-1.26-2.11zm-2.53-1a2.08 2.08 0 01-2 2.85 1.86 1.86 0 003.26-.74 1.62 1.62 0 00-1.26-2.11z" fill="#fff" stroke="#50d6cc" stroke-width=".3"/><path d="M339.5 80.35a29 29 0 001.16-9.92c.1-2-.63-5.17-4.43-5.17-7.58-.11-7 8.34-1.47 8.34 1.89 9.39-14.44 21.22-28.45 21.22C286.5 94.82 271 78 275.55 62.4a13.65 13.65 0 00-5.06 2.86c-3.16 15.52 9.38 36.42 35.29 35.37 24.03-1.06 29.82-12.15 33.72-20.28zM248.89 191.53c-1.9.85-4 .53-6.22.11-10.64 25.13 9.28 44.76 29.72 54 .94-1.37 1.89-2.53 2.84-4.12-20.65-9.97-36.23-28.03-26.34-49.99zM234.25 101.89c-2.11.21-4.32 2.32-3.9 4.54s3.37 3.38 5.48 2.64c3.16-.84 4.32-3.17 8.42-3.9-4.25-2.12-6.53-3.7-10-3.28z" fill="#50d6cc"/><path d="M257.64 160.07c1.47 1.69 2.95 3.48 4.42 5.28C279.23 142 278.5 102 235.3 93.45L230.87 96c35.93 8 43.73 44.32 26.77 64.07zM282.71 78.56c-.42-2.11.32-4.12 1.05-6.76s-.52-5.59-2-6.12c-1.58-.74-2.84 2.43-2.74 4.43.11 2.43 1.58 5.6 3.69 8.45zM410.83 80.78c3.05-3.7 4.21-4.86 4.32-7.82.1-1.69-.43-6.12-2.11-6.12s-2.42 3.48-2.64 5.17c-.21 2.22 2.6 4.99.43 8.77zM442.72 190.39c14.58 27-8.67 45.9-25.47 50.45a38.28 38.28 0 014.53 4.64c22.74-12.6 37.67-27.23 28.07-52.88-2.52.33-4.85-1.07-7.13-2.21zM461.71 107.59c-1.89-1.26-3.89.74-7.48-.21 2.22 1.48 2.95 3.59 5.17 4.23a3 3 0 003.26-1.27c.53-.85.34-1.9-.95-2.75zM345.4 280.64c-12.64-14.57-28.66-9.92-35.61-22.8h-4.53v5.59c8.95 10.88 33.29 11.83 40.14 24.71 10.43-13.83 32.77-15.52 45.83-26.18v-3h-7.16c-8.22 9.75-28.87 9.96-38.67 21.68z" fill="#50d6cc"/><path d="M460.66 98.09c-33.29-4.86-54.47 39.28-28.45 69.47l4.75-4.11c-17.7-16.26-10.44-74.23 28.13-58.39 1.26.42-1.27-6.55-4.43-6.97zM422.84 67.89c-1.27-1.16-2.43-2.42-3.58-3.59 2.84 19.64-16 31.57-29.82 31.26-11.49-.32-32.56-8.87-30.77-22.28.32 2.11 1.79 3.38 3.16 3s1.9-3.07 1.58-4.54c-.21-1.9-1.68-4.76-4.1-4.76-2.11 0-4.74 2.43-4.85 5.6-.11 2.43-.11 5.07-.21 7.6 4.53 13.09 21.49 21.44 35.29 21.33 14.96-.15 34.98-9.86 33.3-33.62z" fill="#50d6cc"/><path d="M382 178.65c.42 1.58-.74 3.17-2 2.85a1.88 1.88 0 003.26-.84c.32-.53-.21-1.8-1.26-2zm-1.27-1.37c.43 1.37-1.05 2.53-2.31 2.32a1.93 1.93 0 003.26-.74 1.06 1.06 0 00-.95-1.58zm-1.16-3c.43 1.48-.73 3.06-2 2.75a1.87 1.87 0 003.27-.74 1.51 1.51 0 00-1.27-2zm3.38-2.95c.52 1.47-.74 3.06-2 2.74a1.92 1.92 0 003.38-.74 1.67 1.67 0 00-1.37-2zm-2.36-1.33c.42 1.59-.74 3.17-2.11 2.75a2 2 0 003.37-.64 1.7 1.7 0 00-1.26-2.11zm3.05-1.9a1.69 1.69 0 01-2 2.32 1.92 1.92 0 003.37-.73c.21-.64-.21-1.38-1.37-1.59zm-5.16-.1a2 2 0 01-2 2.74 2 2 0 003.37-.74 1.63 1.63 0 00-1.37-2zm2.85-2c.42 1.58-.21 2.85-1.48 2.64a1.47 1.47 0 002.74-.53 1.74 1.74 0 00-1.26-2.11zm4.32-1.16c.42 1.58-.74 3.17-2.11 2.85a2 2 0 003.37-.74 1.7 1.7 0 00-1.26-2.11zm-1.06-1.9c.42 1.58-.74 3.06-2 2.85a1.87 1.87 0 003.27-.74 1.6 1.6 0 00-1.27-2.11zm-4.84.84c.42 1.48-.74 3.07-2 2.85a1.9 1.9 0 003.27-.74 1.66 1.66 0 00-1.26-2.11zm-2.53-.95a2.08 2.08 0 01-2 2.85 1.85 1.85 0 003.26-.74 1.62 1.62 0 00-1.26-2.11zm3.68-21.11c.43 1.58-.73 3.16-2 2.85a1.89 1.89 0 003.27-.85c.31-.52-.21-1.79-1.27-2zm-1.26-1.38c.42 1.38-1.05 2.54-2.32 2.33a1.94 1.94 0 003.27-.74 1.08 1.08 0 00-.95-1.59zm-1.16-2.95c.42 1.48-.74 3.06-2 2.74a1.86 1.86 0 003.27-.74 1.5 1.5 0 00-1.27-2zm3.37-3c.53 1.48-.73 3.06-2 2.75a1.92 1.92 0 003.37-.74 1.68 1.68 0 00-1.37-2zm-2.32-1.39c.43 1.58-.73 3.17-2.1 2.74a2 2 0 003.37-.63 1.7 1.7 0 00-1.27-2.11zm3.06-1.9a1.69 1.69 0 01-2 2.32 1.92 1.92 0 003.37-.74c.21-.63-.21-1.37-1.37-1.58zm-5.16-.11a2 2 0 01-2 2.75 2 2 0 003.37-.74 1.64 1.64 0 00-1.37-2zm2.84-2c.42 1.58-.21 2.85-1.47 2.64a1.47 1.47 0 002.74-.53 1.74 1.74 0 00-1.27-2.11zm4.32-1.16c.42 1.58-.74 3.16-2.11 2.85a2 2 0 003.38-.74 1.7 1.7 0 00-1.27-2.11zm-1-1.91c.42 1.59-.74 3.07-2 2.86a1.86 1.86 0 003.26-.74 1.6 1.6 0 00-1.26-2.12zm-4.85.85c.42 1.48-.74 3.06-2 2.85a1.9 1.9 0 003.27-.74 1.66 1.66 0 00-1.27-2.11zm-2.53-1a2.08 2.08 0 01-2 2.85 1.87 1.87 0 003.27-.74 1.63 1.63 0 00-1.27-2.11zm29.29 26.61c-.42 1.58.74 3.16 2 2.85a1.89 1.89 0 01-3.26-.85c-.32-.53.21-1.79 1.26-2zm1.27-1.38c-.42 1.38 1 2.54 2.32 2.33a1.94 1.94 0 01-3.27-.74 1.07 1.07 0 011-1.59zm1.16-3c-.43 1.48.73 3.06 2 2.74a1.86 1.86 0 01-3.27-.74 1.5 1.5 0 011.27-2zm-3.38-3c-.52 1.48.74 3.06 2 2.75a1.92 1.92 0 01-3.37-.74 1.67 1.67 0 011.36-2zm2.32-1.37c-.42 1.58.74 3.17 2.11 2.74a2 2 0 01-3.37-.63 1.7 1.7 0 011.26-2.11zm-3.05-1.9a1.69 1.69 0 002 2.32 1.92 1.92 0 01-3.37-.74c-.21-.63.21-1.37 1.37-1.58zm5.16-.11a2 2 0 002 2.75 2 2 0 01-3.37-.74 1.64 1.64 0 011.37-2zm-2.84-2c-.43 1.58.21 2.85 1.47 2.64a1.47 1.47 0 01-2.74-.53 1.74 1.74 0 011.27-2.11zm-4.32-1.17c-.43 1.59.73 3.17 2.1 2.86a2 2 0 01-3.37-.74 1.71 1.71 0 011.27-2.12zm1.05-1.9c-.42 1.59.74 3.07 2 2.86a1.87 1.87 0 01-3.27-.74 1.61 1.61 0 011.27-2.12zm4.85.85c-.43 1.48.73 3.06 2 2.85a1.9 1.9 0 01-3.27-.74 1.66 1.66 0 011.27-2.11zm2.52-1a2.09 2.09 0 002 2.85 1.87 1.87 0 01-3.27-.74 1.63 1.63 0 011.26-2.11z" fill="#fff" stroke="#50d6cc" stroke-width=".3"/><path d="M341.5 237.88c.63-2 2.11-2.11 2.11-5h0v-60.14h0a1.53 1.53 0 011.58-1.48h0a1.73 1.73 0 011.79 1.48v60.18c.84 2.85-.53 4.43 1.9 4.54 6.21.42 12.95.84 18.75 2.53.63.53.53 1.06 0 1.59h-39.09a1.92 1.92 0 01.74-2.32c6.43-1.91 12-.53 12.22-1.38zm44.88-49.3c.74-2.22 2.32-2.33 2.32-5.39h0v-66.52h0a1.58 1.58 0 011.69-1.58h0a1.86 1.86 0 011.89 1.69q0 33.1.11 66.41c.84 3.06-.74 4.86 1.89 5 6.75.43 14.12.85 20.23 2.75.74.53.53 1.16 0 1.79h-42.14a2.26 2.26 0 01.84-2.64c7-2.11 12.86-.52 13.17-1.47zm-78 0c-.74-2.22-2.32-2.33-2.32-5.39h0v-66.52h0a1.58 1.58 0 00-1.69-1.58h0a1.67 1.67 0 00-1.68 1.69q0 33.1-.11 66.41c-.84 3.06.53 4.86-1.89 5-6.75.43-14.12.85-20.23 2.75-.74.53-.53 1.16 0 1.79h41.93a2.25 2.25 0 00-.84-2.64c-7-2.11-12.86-.52-13.17-1.47z" fill="#fff" stroke="#50d6cc" stroke-linecap="round" stroke-linejoin="round" stroke-width=".87"/><path d="M339.5 172.1c.84 1.59 1.68 2.33 3.58 2.33a14.39 14.39 0 017.9 3.27 17.64 17.64 0 015.06 8.55c.32 1.69.11 3.38-1 4.33-2.42 2.22-5.37 3.59-7.9 5.39s-5.37 4-6.95 7.18c-1.16 2.21-.64 5 .42 7 2 3.8 6.11 7 9.37 10.67.64.63 2.53-.11 2.85.95 1.58 4.64.53 8.66 1.47 13.51.53 3 4.53 3 6.33 3.8-3.59-.21-7.59-.42-10.75-1.9a3.21 3.21 0 001.26-2.85c0-3.38-1.37-8.44-3.16-10.13-2.63-2.75-6-6-8.53-8.87-2-2.11-3.06-3.49-3.48-5.92-.74-3.58.53-6.54 2.53-9.6 2.63-4 8-6.13 11.91-8.66.94-.63 2.21-3.17 2.21-5.07-.11-2.95-3.06-6.23-4.53-6.54-1.9-.32-6 .1-7.9-.43-.64-.21-.11-1-1.06-1s-1.79.63-2.21 1.69c.11-.85-1.16-1.27-2.42-1a7.54 7.54 0 015.48-3c.21-1.16-.95-2.32-2-3.06 1.06.42 1.48.21 1.48-.64zm44.67-56.27c.95 1.69 1.79 2.53 3.79 2.53 2.74 0 7 2.11 8.64 3.59a21.33 21.33 0 015.38 9.51c.31 1.79.1 3.69-1.06 4.75-2.53 2.42-5.69 4-8.43 5.91s-5.9 4.43-7.58 7.92c-1.16 2.43-.63 5.49.52 7.71 2.22 4.22 6.54 7.7 10 11.71.74.85 2.74 0 3.16 1.17 1.69 5.06.53 9.5 1.48 14.88.63 3.28 5.06 3.28 6.95 4.12-3.89-.21-8.21-.42-11.69-2a3.69 3.69 0 001.47-3.17c0-3.8-1.58-9.4-3.37-11.3-2.95-3-6.53-6.55-9.27-9.71-2.21-2.33-3.27-3.8-3.79-6.44-.74-4 .63-7.29 2.84-10.67 2.74-4.43 8.54-6.75 12.75-9.5 1-.74 2.42-3.59 2.32-5.6 0-3.27-3.16-7-4.74-7.18-2.11-.42-6.53 0-8.64-.52-.63-.21-.11-1.17-1.16-1.17s-1.79.74-2.32 1.8c.11-.84-1.26-1.27-2.63-1a8.14 8.14 0 015.9-3.38c.21-1.16-1.06-2.53-2.22-3.27 1.16.42 1.69.21 1.69-.74zm-73.33 0c-.95 1.69-1.79 2.53-3.79 2.53-2.74 0-7 2.11-8.64 3.59a21.22 21.22 0 00-5.37 9.51c-.32 1.79-.11 3.69 1 4.75 2.53 2.42 5.69 4 8.43 5.91s5.9 4.43 7.58 7.92a9 9 0 01-.52 7.71c-2.22 4.22-6.54 7.7-10 11.71-.74.85-2.74 0-3.16 1.17-1.69 5.06-.53 9.5-1.48 14.88-.63 3.28-5.06 3.28-6.95 4.12 3.9-.21 8.22-.42 11.69-2a3.72 3.72 0 01-1.47-3.17c0-3.8 1.58-9.4 3.37-11.3 2.95-3 6.53-6.55 9.27-9.71 2-2.33 3.06-3.8 3.58-6.44.74-4-.63-7.29-2.63-10.67-2.74-4.43-8.53-6.75-12.75-9.5-1.05-.74-2.42-3.59-2.32-5.6 0-3.27 3.16-7 4.74-7.18 2.11-.42 6.54 0 8.64-.52.64-.21.11-1.17 1.16-1.17.85-.1 1.58.74 2.11 1.8-.11-.84 1.26-1.27 2.63-1a8.13 8.13 0 00-5.69-3.38c-.21-1.16 1.06-2.53 2-3.27-.95.42-1.48.21-1.48-.74z" fill="#fff" stroke="#50d6cc" stroke-linecap="round" stroke-linejoin="round" stroke-width=".87"/><path d="M332.44 218a1.94 1.94 0 00-2.74-.84 1.77 1.77 0 00-.21 2.85 1.84 1.84 0 00.32 3.59 1.83 1.83 0 00.52 3.48 2 2 0 00.85 3.17 1.51 1.51 0 001.05 1.58 1.73 1.73 0 00.32 2.12 1.92 1.92 0 00.94 1.26 1.84 1.84 0 001.79 1.38 3.74 3.74 0 001.8-5c1.58-.63 1.79-2.32.73-3.06a2 2 0 00.42-1.27 1.66 1.66 0 00.74-2.21 1.84 1.84 0 001.16-3 1.84 1.84 0 00-.42-3.17 4.57 4.57 0 00-5.27-.74 1.91 1.91 0 00-2-.21zm-1.05-36.95a2 2 0 00-2.74-.85 1.77 1.77 0 00-.21 2.86 1.84 1.84 0 00.31 3.59 1.84 1.84 0 00.53 3.48 2 2 0 00.84 3.17 1.54 1.54 0 001.06 1.58 1.7 1.7 0 00.31 2.11 2 2 0 00.95 1.27 1.82 1.82 0 001.79 1.37 3.73 3.73 0 001.79-5c1.58-.63 1.79-2.32.74-3.06a2 2 0 00.42-1.27 1.68 1.68 0 00.74-2.22 1.84 1.84 0 001.16-3 1.85 1.85 0 00-.42-3.17 4.52 4.52 0 00-5.27-.74 1.89 1.89 0 00-2-.21zm31.5 10.77a2 2 0 012.74-.85 1.77 1.77 0 01.21 2.85 1.84 1.84 0 01-.32 3.59 1.84 1.84 0 01-.52 3.49 2.05 2.05 0 01-.85 3.17 1.52 1.52 0 01-1 1.58 1.72 1.72 0 01-.32 2.11 2 2 0 01-.95 1.27 1.82 1.82 0 01-1.79 1.37 3.73 3.73 0 01-1.79-5c-1.58-.64-1.79-2.32-.74-3.06a2.1 2.1 0 01-.42-1.27 1.67 1.67 0 01-.73-2.22 1.83 1.83 0 01-1.21-2.85 1.84 1.84 0 01.42-3.17 4.52 4.52 0 015.27-.74 1.88 1.88 0 012-.21z" fill="#fff" stroke="#50d6cc" stroke-width=".3"/><path d="M335.92 232.77c.42 1.58-.74 3.17-2 2.85a1.89 1.89 0 003.27-.84c.32-.53-.21-1.8-1.26-2zm-1.27-1.37c.42 1.37-1 2.53-2.32 2.32a1.94 1.94 0 003.27-.74 1.06 1.06 0 00-1-1.58zm-1.16-3c.42 1.48-.73 3.06-2 2.75a1.87 1.87 0 003.27-.74 1.51 1.51 0 00-1.27-2zm3.37-3c.53 1.48-.73 3.07-2 2.75a1.92 1.92 0 003.37-.74 1.68 1.68 0 00-1.37-2zm-2.31-1.37c.42 1.59-.74 3.17-2.11 2.75a2 2 0 003.37-.64 1.7 1.7 0 00-1.26-2.11zm3.05-1.9a1.69 1.69 0 01-2 2.32 1.92 1.92 0 003.37-.73c.21-.64-.21-1.38-1.37-1.59zm-5.16-.1a2 2 0 01-2 2.74 2 2 0 003.37-.74 1.63 1.63 0 00-1.37-2zm2.84-2c.43 1.58-.21 2.85-1.47 2.64a1.47 1.47 0 002.74-.53 1.74 1.74 0 00-1.27-2.11zm4.32-1.16c.43 1.58-.73 3.17-2.1 2.85a2 2 0 003.37-.74 1.7 1.7 0 00-1.27-2.11zm-1.05-1.9c.42 1.58-.74 3.06-2 2.85a1.86 1.86 0 003.26-.74 1.59 1.59 0 00-1.26-2.11zm-4.85.84c.43 1.48-.73 3.06-2 2.85a1.9 1.9 0 003.3-.66 1.67 1.67 0 00-1.27-2.11zm-2.52-.95a2.08 2.08 0 01-2 2.85 1.86 1.86 0 003.27-.74 1.63 1.63 0 00-1.26-2.11zm3.68-21.11c.42 1.58-.73 3.16-2 2.85a1.89 1.89 0 003.27-.85c.31-.53-.21-1.79-1.27-2zm-1.26-1.38c.42 1.38-1.05 2.54-2.32 2.33a1.94 1.94 0 003.27-.74 1.08 1.08 0 00-.95-1.59zm-1.16-2.95c.42 1.48-.74 3.06-2 2.74a1.86 1.86 0 003.26-.74 1.49 1.49 0 00-1.26-2zm3.37-3c.53 1.48-.74 3.06-2 2.75a1.92 1.92 0 003.37-.74 1.68 1.68 0 00-1.37-2zm-2.32-1.37c.42 1.58-.73 3.17-2.1 2.74a2 2 0 003.37-.63 1.7 1.7 0 00-1.27-2.11zm3.06-1.9a1.69 1.69 0 01-2 2.32 1.92 1.92 0 003.37-.74c.21-.63-.21-1.37-1.37-1.58zm-5.16-.11a2 2 0 01-2 2.75 2 2 0 003.38-.74 1.64 1.64 0 00-1.37-2zm2.84-2c.42 1.58-.21 2.85-1.47 2.64a1.47 1.47 0 002.74-.53 1.74 1.74 0 00-1.27-2.11zm4.32-1.17c.42 1.59-.74 3.17-2.11 2.86a2 2 0 003.37-.74 1.71 1.71 0 00-1.26-2.12zm-1.05-1.9c.42 1.59-.74 3.07-2 2.85a1.85 1.85 0 003.26-.73 1.6 1.6 0 00-1.26-2.12zm-4.85.85c.42 1.48-.74 3.06-2 2.85a1.9 1.9 0 003.26-.74 1.66 1.66 0 00-1.26-2.11zm-2.53-1a2.08 2.08 0 01-2 2.85 1.87 1.87 0 003.27-.74 1.63 1.63 0 00-1.27-2.11zm29.29 26.6c-.42 1.59.74 3.17 2 2.86a1.89 1.89 0 01-3.26-.85c-.32-.53.21-1.79 1.26-2zm1.27-1.37c-.43 1.37 1.05 2.54 2.31 2.33a1.94 1.94 0 01-3.26-.74 1.07 1.07 0 01.95-1.59zm1.15-3c-.42 1.47.74 3.06 2 2.74a1.86 1.86 0 01-3.27-.74 1.5 1.5 0 011.26-2zm-3.37-3c-.52 1.48.74 3.06 2 2.75a1.92 1.92 0 01-3.37-.74 1.68 1.68 0 011.37-2zm2.32-1.37c-.42 1.58.74 3.16 2.11 2.74a2 2 0 01-3.37-.63 1.7 1.7 0 011.26-2.11zm-3-1.9a1.69 1.69 0 002 2.32 1.92 1.92 0 01-3.37-.74c-.21-.63.21-1.37 1.37-1.58zm5.16-.11a2 2 0 002 2.75 2 2 0 01-3.37-.74 1.64 1.64 0 011.37-2zm-2.85-2c-.42 1.58.21 2.85 1.48 2.63a1.47 1.47 0 01-2.74-.52 1.74 1.74 0 011.26-2.11zm-4.32-1.17c-.42 1.59.74 3.17 2.11 2.85a2 2 0 01-3.37-.73 1.71 1.71 0 011.26-2.12zm1.06-1.9c-.42 1.59.73 3.07 2 2.85a1.86 1.86 0 01-3.27-.73 1.61 1.61 0 011.27-2.12zm4.84.85c-.42 1.48.74 3.06 2 2.85a1.9 1.9 0 01-3.27-.74 1.66 1.66 0 011.26-2.11zm2.53-.95a2.08 2.08 0 002 2.85 1.86 1.86 0 01-3.26-.74 1.62 1.62 0 011.26-2.11z" fill="#fff" stroke="#50d6cc" stroke-width=".3"/><path d="M307.58 119c1.26-1.48 2.84-2.43 4.31-2-1.68-2.43-3.16-8.55-2.21-11.61.53 1.37.85 1.69 1.79 1.47.21-1.26 1.48-1.79 2.53-2.11a3 3 0 01.21 3.17 1.41 1.41 0 012.53-.32 3.71 3.71 0 01-.31 4.75c1.89.74 4.74-.52 5.68-3.8 1.06 1.06 1.06 1.48.43 2.75 1.15-1 3.16-.32 4.53.95 0 1.58-1.48 3.69-2.74 3.69.95.11 1.47.74 1.58 2.12a6.1 6.1 0 00-6.75 1.26 4.06 4.06 0 013.17 3.06 1.85 1.85 0 01-2 1.59c1.06 0 1.58.74 1.69 2.22-1.05.63-2 .21-2.95-.43-.63.74-.32 1.27-.21 2.54-3.06-.95-5.37-5.81-6.32-9.4-1.58-.53-3.06.21-4.22 1.8-.52.63-1.37-.85-.73-1.69zm-9.91 4c-.53-1.59-1.68-3-3.26-2.85 2.31-1.8 5.58-6.76 5.47-9.61-.84 1.06-1.15 1.16-2 .74.21-1.27-.63-2-1.47-2.64a2.8 2.8 0 00-1.27 2.74 1.3 1.3 0 00-2.1-1 3.59 3.59 0 00-1.16 4.33c-1.9.1-4.11-1.8-3.9-5-1.27.52-1.48.84-1.16 2.21-.74-1.16-2.85-1.16-4.32-.53-.53 1.59.11 3.81 1.26 4.12-.84-.1-1.47.21-2 1.37 2.64-.1 4.22 1 5.59 3.17-2.22-.1-3.06.64-3.69 1.69-.21 1.16.53 1.69 1.37 2.11-.95-.31-1.69 0-2.21 1.27.73.95 1.68.84 2.74.53.31.84-.11 1.26-.64 2.32 3.16.11 6.54-3.59 8.43-6.44 1.58 0 2.64 1.06 3.27 2.85.21.63 1.37-.42 1.05-1.37zm3.58 47a5.27 5.27 0 00-4.95-1c1.69-2.64 2.74-8.55 1.27-11-.32 1.27-.74 1.48-1.8 1.59-.42-1.06-1.79-1.38-2.95-1.48a2.38 2.38 0 000 3.06 1.71 1.71 0 00-2.84.1 3.16 3.16 0 00.74 4.33 5 5 0 01-6.64-2.42c-1.16 1.16-1.16 1.58-.11 2.63-1.47-.63-3.68.43-5.05 1.69a3.49 3.49 0 003.47 3 2.09 2.09 0 00-1.68 2.22 7.71 7.71 0 017.69-.11c-2.42 1.06-2.95 2.11-3.06 3.38.22 1.06 1.27 1.16 2.43 1.06a1.93 1.93 0 00-1.69 2.32c1.16.42 2.21-.11 3.27-1.06.63.64.42 1.17.31 2.54 3.48-1.59 5.48-6.44 6.11-10a4.59 4.59 0 015 .95c.63.42 1.47-1.16.52-1.8zm11-15.52c1.37.74 3.06 1.27 4.22.42-.85 2.64-.74 8.13.94 10.46 0-1.27.21-1.48 1.16-1.59a2.65 2.65 0 002.64 1.16 2.31 2.31 0 00-.43-2.74 1.32 1.32 0 002.32-.32 3.43 3.43 0 00-1.37-4c1.37-1 4.22-.74 5.8 1.8.63-1.06.74-1.38-.21-2.33 1.26.53 3-.52 3.68-1.9-.31-1.48-2-2.85-3.26-2.53.84-.32 1.16-.85.95-2a6 6 0 01-6.22.42c1.79-1.05 2-2.11 1.9-3.37-.32-1-1.27-1-2.22-.85.95-.21 1.37-.84 1.16-2.32a2.2 2.2 0 00-2.42 1.16c-1-.53-.84-1.06-1-2.22-2.53 1.69-3.26 6.34-3.26 9.61-1.27.85-2.85.53-4.22-.42-.63-.63-.95 1-.21 1.58zm30.3 20.52c-1.15-1.38-2.63-2.22-4-1.8 1.58-2.22 2.95-7.81 2-10.56-.42 1.27-.74 1.48-1.58 1.37a3.16 3.16 0 00-2.32-2 2.63 2.63 0 00-.21 2.95 1.3 1.3 0 00-2.31-.31 3.36 3.36 0 00.21 4.33c-1.79.63-4.43-.53-5.27-3.49-.95 1-1.06 1.38-.32 2.54-1.05-.85-3.05-.32-4.21.84 0 1.37 1.26 3.38 2.53 3.38-.95.11-1.37.63-1.48 1.9a5.65 5.65 0 016.22 1.16 3.74 3.74 0 00-2.95 2.75c.1 1 1.05 1.37 1.89 1.48-.94-.11-1.47.63-1.58 1.9.95.63 1.79.31 2.74-.32.53.63.32 1.16.11 2.32 3-.84 5.06-5.28 6-8.55 1.37-.53 2.74.21 3.9 1.58.42.64 1.27-.74.63-1.47zm9.17 3.59c.53-1.38 1.58-2.64 3.06-2.54-2.11-1.69-5.17-6.12-5.17-8.76.85.95 1.16 1.05 1.9.74-.21-1.16.63-1.9 1.47-2.43a2.44 2.44 0 011.06 2.53 1.21 1.21 0 012-1 3.11 3.11 0 011 3.91c1.79.1 3.8-1.69 3.59-4.54 1.26.53 1.37.74 1.15 2 .64-1 2.53-1 3.9-.42.53 1.37 0 3.38-1.16 3.7a1.66 1.66 0 011.9 1.26 5.27 5.27 0 00-5.16 2.86c2.11-.11 2.74.52 3.37 1.58.21.95-.42 1.48-1.26 1.79.84-.21 1.58.11 2.1 1.27a2.23 2.23 0 01-2.47.46c-.31.74 0 1.16.53 2.12-2.84.1-6-3.28-7.8-5.81-1.47 0-2.42.95-3 2.53-.21.64-1.37-.42-1-1.26zm-3.37 42.65a4.91 4.91 0 014.63-.84c-1.58-2.43-2.52-7.82-1.15-10 .31 1.16.63 1.37 1.58 1.47.42-1 1.68-1.26 2.84-1.37a2.21 2.21 0 010 2.75 1.53 1.53 0 012.53.1 2.75 2.75 0 01-.63 4 4.64 4.64 0 006.11-2.21c1.16 1 1.16 1.37.21 2.32 1.37-.53 3.37.42 4.63 1.58a3.18 3.18 0 01-3.26 2.64 1.87 1.87 0 011.58 2 7.83 7.83 0 00-7.17-.11c2.32.95 2.74 1.9 2.95 3.07-.21.95-1.26 1-2.31 1a1.69 1.69 0 011.58 2 2.74 2.74 0 01-3-.85c-.74.53-.53.95-.42 2.22-3.17-1.48-5-5.81-5.59-9.08a4.44 4.44 0 00-4.63.84c-.53.43-1.27-1.05-.53-1.58zm-10.12-14.15c-1.26.74-2.84 1.27-3.89.42.73 2.43.73 7.4-.85 9.51-.1-1.16-.21-1.38-1.05-1.48a2.6 2.6 0 01-2.53 1.05 2.2 2.2 0 01.42-2.42 1.21 1.21 0 01-2.1-.32 3.14 3.14 0 011.26-3.7c-1.37-1-3.9-.63-5.37 1.69-.64-1-.64-1.26.21-2.11-1.16.53-2.74-.53-3.48-1.79.32-1.27 1.9-2.54 3.06-2.22a1.38 1.38 0 01-.85-1.9 5.51 5.51 0 005.69.42c-1.68-.95-1.89-1.9-1.79-2.95.42-1 1.16-1 2.11-.85-.95-.21-1.27-.84-1.16-2.11a2.14 2.14 0 012.32 1.05c.84-.42.84-1 .84-2 2.32 1.48 3.06 5.7 3.06 8.66 1.15.84 2.63.52 4-.32.53-.53.74.84.1 1.37zM387.44 119c-1.27-1.48-2.85-2.43-4.32-2 1.68-2.43 3.16-8.55 2.21-11.61-.53 1.37-.84 1.69-1.79 1.47-.21-1.26-1.48-1.79-2.53-2.11a3 3 0 00-.21 3.17 1.41 1.41 0 00-2.53-.32 3.71 3.71 0 00.32 4.75c-1.9.74-4.74-.52-5.69-3.8-1.06 1.06-1.06 1.48-.42 2.75-1.16-1-3.16-.32-4.53.95 0 1.58 1.47 3.69 2.73 3.69-.94.11-1.47.74-1.58 2.12a6.1 6.1 0 016.75 1.26 4 4 0 00-3.16 3.06 1.84 1.84 0 002 1.59c-1.06 0-1.58.74-1.69 2.22 1.06.63 2 .21 2.95-.43.63.74.32 1.27.21 2.54 3.06-.95 5.38-5.81 6.32-9.4 1.59-.53 3.06.21 4.22 1.8.53.63 1.37-.85.74-1.69zm9.9 4c.53-1.59 1.69-3 3.27-2.85-2.32-1.8-5.59-6.76-5.48-9.61.84 1.06 1.16 1.16 2 .74-.21-1.27.63-2 1.47-2.64a2.8 2.8 0 011.27 2.74 1.3 1.3 0 012.11-1 3.61 3.61 0 011.16 4.33c1.89.1 4.1-1.8 3.89-5 1.27.52 1.48.84 1.16 2.21.74-1.16 2.85-1.16 4.32-.53.53 1.59-.1 3.81-1.26 4.12.84-.1 1.47.21 2 1.37-2.63-.1-4.21 1-5.58 3.17 2.21-.1 3.05.64 3.68 1.69.21 1.16-.52 1.69-1.37 2.11.95-.31 1.69 0 2.22 1.27-.74.95-1.69.84-2.74.53-.32.84.1 1.26.63 2.32-3.16.11-6.53-3.59-8.43-6.44-1.58 0-2.63 1.06-3.27 2.85-.21.63-1.37-.42-1.05-1.37zm-3.58 47a5.27 5.27 0 014.95-1c-1.69-2.64-2.74-8.55-1.26-11 .31 1.27.73 1.48 1.79 1.59.42-1.06 1.79-1.38 2.95-1.48a2.38 2.38 0 010 3.06 1.71 1.71 0 012.84.1 3.15 3.15 0 01-.74 4.33 5 5 0 006.64-2.42c1.16 1.16 1.16 1.58.11 2.63 1.47-.63 3.68.43 5 1.69a3.49 3.49 0 01-3.47 3 2.09 2.09 0 011.68 2.22 7.71 7.71 0 00-7.69-.11c2.43 1.06 2.95 2.11 3.06 3.38-.21 1.06-1.27 1.16-2.43 1.06a1.92 1.92 0 011.69 2.32c-1.16.42-2.21-.11-3.27-1.06-.63.64-.42 1.17-.31 2.54-3.48-1.59-5.48-6.44-6.11-10a4.6 4.6 0 00-5 .95c-.63.42-1.47-1.16-.52-1.8zm-11-15.52c-1.37.74-3.05 1.27-4.21.42.84 2.64.73 8.13-.95 10.46 0-1.27-.21-1.48-1.16-1.59a2.64 2.64 0 01-2.63 1.16 2.29 2.29 0 01.42-2.74 1.32 1.32 0 01-2.32-.32 3.43 3.43 0 011.37-4c-1.37-1-4.22-.74-5.8 1.8-.63-1.06-.73-1.38.21-2.33-1.26.53-3-.52-3.68-1.9.31-1.48 2-2.85 3.26-2.53-.84-.32-1.16-.85-.95-2a6 6 0 006.22.42c-1.79-1.05-2-2.11-1.9-3.37.32-1 1.27-1 2.22-.85-.95-.21-1.37-.84-1.16-2.32a2.2 2.2 0 012.42 1.16c.95-.53.84-1.06.95-2.22 2.53 1.69 3.27 6.34 3.27 9.61 1.26.85 2.84.53 4.21-.42.63-.63 1 1 .21 1.58z" fill="#fff" stroke="#50d6cc" stroke-linecap="round" stroke-linejoin="round" stroke-width=".87"/><path d="M278.19 239.26c-1.89 2.93-3.95 7.76-3.95 9.34 0 2.06 2.77 3.41 4.82 2.22 1.27-.64 1.58-.64 1.11.08a6.34 6.34 0 01-2.45 1.58c-1.58.63-1.9 1.27-1.9 3.88a12.73 12.73 0 01-.71 3.56 22.29 22.29 0 00-.22 3.25c0 3.33 2.69 4.55 8.18 3.21 3.14-.77 1.83-.34 4.07-1.82a23.73 23.73 0 002-4.71A10 10 0 01291 256c.48-.32.64-.08.4.55-2.21 5.38-2.37 7.13-1.11 9.82 1.11 2.37 1.74 2.77 4 2.77 2.45 0 .77-.68 3.46-3.81a9.52 9.52 0 011.93-2.95c.56-1.1.49-1.05.43-1.68-.12-1.36 1.29-1.06 1.69-1.06 3.08 0 4.27-6.73 2.05-11.09-1.5-2.93-2.05-2.93-4.18 0-3.24 4.36-9.64 2.54-9.64-2.77a6.12 6.12 0 011.26-3.64c.87-1 1-1.74.47-2.77s-2-1.43-6.63-1.59c-5.3-.24-5.93-.08-7 1.51zm12 1.42c-.55 2.22-1.81 3-4.42 2.54-1.58-.24-2.85-.08-3.16.47s.23.87 1.66.87c2.76 0 3.79.71 4.5 2.93.4 1.35-.08 2.3-2.37 4.36-2.45 2.29-5.06 6-5.06 7.36s1.82 0 2.45-1.9c1.19-3.25 5.77-6.65 8.06-5.94 2.45.71 2.93 1.74 2.93 6 0 2.22.39 3.8.87 3.8s.71-1.34.31-4c-.39-3.09-.31-4.27.48-4.75 1.81-1.19 3.08-.79 3.08.87 0 .87.39 1.59.87 1.59s.71-.87.47-2.14c-.79-4.2 1.34-5.94 2.21-1.82.71 3.09-.23 7.12-1.58 7.12a3.71 3.71 0 01-2.29-1.74c-1.5-2.06-2.76-1.19-1.42 1a5 5 0 01-.63 6.5 5.94 5.94 0 00-1.58 2.77c0 1.74-2.69 1.11-3.64-.87-.63-1.35-.55-2.93.24-5.94 1.1-4.36.87-5.63-.95-5.63-1.26 0-3.56 3.88-3.56 6.1-.07 3.72-3.47 5.54-9.56 5.15-2.05-.16-2.13-.32-1.42-3.17a26.92 26.92 0 00.71-5.3c0-1.83.63-2.85 2.77-4.28 3.16-2.14 3.79-4.51 1-3.56-3.72 1.18-5 .87-4.75-1.27a5.31 5.31 0 011.39-2.8 4.4 4.4 0 001.34-2.77c.16-1.59.79-2.06 3-2.38 5.14-.71 8.3-.4 8.06.87zM247.45 159.17a7.12 7.12 0 01-3.56 1.58c-3.71.71-5.13 4.67-2 5.62 2.29.72 1.89 1.82-.48 1.35-1.66-.32-2.6.16-4.18 2a13.68 13.68 0 01-3.4 2.85 2 2 0 00-1.42 1.58 3.46 3.46 0 01-1.19 2.14c-1 .87-.71 1.51 2.53 4.44 2.13 1.9 4.42 3.4 5.21 3.48 1.9 0 5.38-1.82 7.2-3.88a5 5 0 012.6-1.66c.64 0-.23 1.34-2 2.93-3.87 3.72-5.14 8.39-2.53 9.74 2.21 1.18 6.72-.24 9.72-3 1.18-1.11 2.13-1.67 2.13-1.19a1.77 1.77 0 001.27 1.35c1.42.55 4.26-.8 4.26-2.06a2.71 2.71 0 011.11-1.74c.63-.48 1.34-2.22 1.58-3.88l.55-3-3.55.47c-3.16.48-3.8.32-5.61-1.5-1.66-1.67-2.06-2.62-1.66-4.28.63-2.53 3.24-4.91 5.37-4.91s1.66-3.88-.55-5.07a26.36 26.36 0 01-3.8-2.69c-2.52-2-6.24-2.3-7.58-.63zm6.72 2.45a14 14 0 003.71 2.46c2 .63 1.66 2.45-.63 2.85-1.35.31-2.69-.16-4.19-1.43-2.06-1.82-3.32-2.37-3.32-1.5a9 9 0 002.13 2.29c1.66 1.43 2 2.22 1.51 3.88-.48 1.9-.87 2.14-3.88 2.14-3.39 0-8.53 2.14-9.08 3.8-.16.56 1.18.24 3.16-.63a18.08 18.08 0 016.24-1.58c2.29 0 3 .39 3.79 2.13s.71 2.38-.55 4.12c-2.29 3.09-3.48 5.62-2.69 5.62.4 0 1.74-1.42 2.93-3.16 1.58-2.38 2.68-3.17 3.87-3 1.66.31 1.82.71.87 3.16-.32.8-.24 1.43.23 1.43s1.19-1.11 1.66-2.38c.95-2.85 3.64-3.4 2.77-.63a3.66 3.66 0 01-1.19 2.06 1.25 1.25 0 00-.71 1.11 3.43 3.43 0 01-1.34 1.9c-1.82 1.27-3.4.08-3.4-2.53 0-1-.31-1.91-.79-1.91s-.79.88-.79 1.91c0 2.13-3.32 5.22-5.61 5.22a1.76 1.76 0 00-1.66.95c-.16.48-1 .71-1.66.4-1-.4-1.26-1-.87-2.69.48-2.22 4.35-6.58 5.69-6.58.95 0 1.9-2.29 1.27-3.24-.79-1.35-3.4-.72-6 1.5-4.27 3.72-6.4 3.8-10 .55-3.09-2.85-3.16-2.85-1.58-4.43a5.68 5.68 0 012-1.5 7.18 7.18 0 002.45-2.22c1.5-1.66 2.53-2.14 5.06-2.14 4.18 0 4.58-1.19 1-3.09-1.5-.87-2.76-1.74-2.76-2.06 0-.63 2.76-2.06 5.37-2.77.95-.31 1.74-.87 1.74-1.26 0-1.43 2.92-.72 5.22 1.26zM448.06 161.14a7.12 7.12 0 003.56 1.58c3.71.71 5.13 4.67 2.05 5.62-2.29.72-1.9 1.83.47 1.35 1.66-.32 2.61.16 4.19 2a13.68 13.68 0 003.4 2.85 2 2 0 011.42 1.58 3.46 3.46 0 001.19 2.14c1 .87.71 1.51-2.53 4.44-2.13 1.9-4.43 3.4-5.22 3.48-1.89 0-5.37-1.82-7.19-3.88a5 5 0 00-2.6-1.66c-.64 0 .23 1.34 2 2.93 3.87 3.72 5.14 8.39 2.53 9.74-2.21 1.19-6.72-.24-9.72-3-1.18-1.11-2.13-1.66-2.13-1.19a1.79 1.79 0 01-1.27 1.35c-1.42.55-4.26-.79-4.26-2.06a2.71 2.71 0 00-1.11-1.74c-.63-.48-1.34-2.22-1.58-3.88l-.55-3 3.55.47c3.16.48 3.79.32 5.61-1.5 1.66-1.66 2.06-2.62 1.66-4.28-.63-2.53-3.24-4.91-5.37-4.91s-1.66-3.88.55-5.07a25.8 25.8 0 003.79-2.69c2.53-2 6.25-2.29 7.59-.63zm-6.72 2.45a14 14 0 01-3.71 2.46c-2 .63-1.66 2.45.63 2.85 1.35.32 2.69-.16 4.19-1.43 2.05-1.82 3.32-2.37 3.32-1.5a9 9 0 01-2.13 2.3c-1.66 1.42-2 2.21-1.51 3.88.48 1.9.87 2.13 3.88 2.13 3.39 0 8.53 2.14 9.08 3.8.16.56-1.18.24-3.16-.63a18.08 18.08 0 00-6.24-1.58c-2.29 0-3 .39-3.79 2.14s-.71 2.37.55 4.11c2.29 3.09 3.48 5.63 2.69 5.63-.4 0-1.74-1.43-2.93-3.17-1.58-2.38-2.68-3.17-3.87-3-1.66.32-1.82.71-.87 3.17.32.79.24 1.42-.24 1.42s-1.18-1.11-1.65-2.37c-.95-2.85-3.64-3.41-2.77-.64a3.71 3.71 0 001.18 2.06 1.24 1.24 0 01.72 1.11 3.37 3.37 0 001.34 1.9c1.82 1.27 3.4.08 3.4-2.53 0-1 .31-1.9.79-1.9s.79.87.79 1.9c0 2.13 3.32 5.22 5.61 5.22a1.76 1.76 0 011.66 1c.16.48.95.72 1.66.4 1-.4 1.26-1 .87-2.69-.48-2.22-4.35-6.58-5.69-6.58-.95 0-1.9-2.29-1.27-3.24.79-1.35 3.4-.72 6 1.5 4.26 3.72 6.4 3.8 10 .56 3.08-2.85 3.16-2.85 1.58-4.44a5.76 5.76 0 00-2.05-1.5 7.18 7.18 0 01-2.45-2.22c-1.5-1.66-2.53-2.14-5.06-2.14-4.19 0-4.58-1.19-1-3.09 1.51-.87 2.77-1.74 2.77-2.06 0-.63-2.77-2.05-5.37-2.77-.95-.31-1.74-.87-1.74-1.26 0-1.43-2.92-.72-5.22 1.26zM416.61 239.78c1.89 2.93 3.95 7.76 3.95 9.34 0 2.06-2.77 3.41-4.82 2.22-1.27-.64-1.58-.64-1.11.08a6.34 6.34 0 002.45 1.58c1.58.63 1.9 1.27 1.9 3.88 0 1.74.31 3.33.71 3.56s.71 1.75.71 3.25c0 3.33-3.3 3.8-6.6 3.82a20.3 20.3 0 01-6.14-2.18 26.57 26.57 0 01-2-5 10.11 10.11 0 00-1.89-3.89c-.48-.31-.27 3 0 3.61 2.21 5.39.9 3.1.61 7.5-1.35 1.4-2 2-3.9 1.92s-2.24-.81-3.46-2.59c-.79-2-2.92-5.82-2.79-4.42.05.49-.86-2.37-1.26-2.37-3.08 0-4.27-6.73-2.05-11.09 1.5-2.93 2.05-2.93 4.18 0 3.24 4.36 9.64 2.54 9.64-2.77a6.12 6.12 0 00-1.26-3.64c-.87-1-1-1.74-.47-2.77s2.05-1.43 6.63-1.59c5.3-.24 5.93-.08 7 1.51zm-12 1.42c.55 2.22 1.81 3 4.42 2.54 1.58-.24 2.85-.08 3.16.47s-.24.87-1.66.87c-2.76 0-3.79.71-4.5 2.93-.4 1.35.08 2.3 2.37 4.36 2.45 2.29 5.06 6 5.06 7.36s-1.82 0-2.45-1.9c-1.19-3.25-5.77-6.65-8.06-5.94-2.45.71-2.93 1.74-2.93 6 0 2.22-.39 3.8-.87 3.8s-.71-1.35-.31-4c.39-3.09.31-4.27-.48-4.75-1.81-1.19-3.08-.79-3.08.87 0 .87-.39 1.59-.87 1.59s-.71-.87-.47-2.14c.79-4.2-1.35-5.94-2.21-1.82-.72 3.09.23 7.12 1.58 7.12a3.71 3.71 0 002.29-1.74c1.5-2.06 2.76-1.19 1.42.95a5 5 0 00.63 6.5 5.94 5.94 0 011.58 2.77c0 1.74 2.69 1.11 3.64-.87.63-1.35.55-2.93-.24-5.94-1.11-4.36-.87-5.63.95-5.63 1.26 0 3.55 3.88 3.55 6.1.08 3.72 3.48 5.54 9.57 5.15 2.05-.16 2.13-.32 1.42-3.17a26.92 26.92 0 01-.71-5.3c0-1.83-.64-2.85-2.77-4.28-3.16-2.14-3.79-4.51-1-3.56 3.72 1.18 5 .87 4.74-1.27a5.31 5.31 0 00-1.34-2.77 4.43 4.43 0 01-1.34-2.77c-.16-1.59-.79-2.06-3-2.38-5.14-.71-8.3-.4-8.06.87z" fill="#50d6cc"/><path d="M348.24 67.68a5.93 5.93 0 015.9 6 6 6 0 01-5.9 6 6.08 6.08 0 01-6-6 6 6 0 016-6zm-89.87 129.45a6.89 6.89 0 01-7.06-6.87 7.06 7.06 0 1114.12 0 6.83 6.83 0 01-7.06 6.87zm.1-30.52a6.81 6.81 0 010 13.62 6.81 6.81 0 010-13.62zm-12.75-16.15a6.76 6.76 0 11-6.74 6.76 6.77 6.77 0 016.74-6.76zm203.45 3.59a7.87 7.87 0 00-7.9 7.81 8 8 0 007.9 7.92 7.88 7.88 0 007.8-7.92 7.79 7.79 0 00-7.8-7.81zm-13.91 42.55a7.24 7.24 0 10-7.27-7.29 7.27 7.27 0 007.27 7.29zm.95-29.88a7.29 7.29 0 010 14.57 7.29 7.29 0 010-14.57zM408 232.6a5.44 5.44 0 105.47 5.39 5.41 5.41 0 00-5.47-5.39zm-8.64 7a5.78 5.78 0 015.79 5.81 5.8 5.8 0 11-5.79-5.81zm-10.24 6.4a7.13 7.13 0 11-7.06 7.08 7.12 7.12 0 017.06-7.08zm-105.31-14a6 6 0 11-6 5.91c0-3.27 4.69-5.91 8-5.91zm11.43 6a6.81 6.81 0 106.85 6.86 6.81 6.81 0 00-6.85-6.86zm11.17 19.64a6.08 6.08 0 110-12.15 6.08 6.08 0 110 12.15z" fill="#fff" stroke="#50d6cc" stroke-linecap="round" stroke-linejoin="round" stroke-width=".87"/><path fill="none" stroke="#a3a3a3" stroke-linecap="round" stroke-linejoin="round" d="M39.01 209.8v2.5"/><path fill="none" stroke="#a3a3a3" stroke-linecap="round" stroke-linejoin="round" stroke-dasharray="4.91 4.91" d="M39.01 217.22v174.36"/><path fill="none" stroke="#a3a3a3" stroke-linecap="round" stroke-linejoin="round" d="M39.01 394.04v2.5h2.5"/><path fill="none" stroke="#a3a3a3" stroke-linecap="round" stroke-linejoin="round" stroke-dasharray="4.61 4.61" d="M46.11 396.54h34.55"/><path fill="none" stroke="#a3a3a3" stroke-linecap="round" stroke-linejoin="round" d="M82.97 396.54h2.5M85.47 2.09h-2.5"/><path fill="none" stroke="#a3a3a3" stroke-linecap="round" stroke-linejoin="round" stroke-dasharray="4.61 4.61" d="M78.36 2.09H43.81"/><path fill="none" stroke="#a3a3a3" stroke-linecap="round" stroke-linejoin="round" d="M41.51 2.09h-2.5v2.5"/><path fill="none" stroke="#a3a3a3" stroke-linecap="round" stroke-linejoin="round" stroke-dasharray="4.94 4.94" d="M39.01 9.53v145.76"/><path fill="none" stroke="#a3a3a3" stroke-linecap="round" stroke-linejoin="round" d="M39.01 157.76v2.5"/><path d="M7.08 180v6.63h1.36v1.06H7.08v2.92H5.85v-2.94H1.58v-.88l4.5-6.79zm-4.33 6.63h3.11v-4.74zM26 180.25l-.56 1.12c-.05 0-.12 0-.13-.14a.39.39 0 00-.05-.2 2.06 2.06 0 00-1.7-.89A1.74 1.74 0 0022 181a3.36 3.36 0 00-.28 1.68v.6h2.54v1h-2.57v6.34h-1.17v-6.34h-1.69v-1h1.69v-.76a3.47 3.47 0 01.42-2 3.22 3.22 0 015-.29zM30.79 180.52c.06.18-.06.28-.1.46-.08.43-.19 1.83-.19 1.83H33v1h-2.52c-.1 1-.15 2-.15 3s.05 1.43.05 1.5a1.28 1.28 0 001.31 1.25 3.07 3.07 0 001.74-.71l.38 1a4.34 4.34 0 01-2.48.87 2.08 2.08 0 01-1.77-.83 3.54 3.54 0 01-.46-2.11c0-1.32.06-2.64.16-4h-1.81v-1h1.85l.15-2.08zM49.58 180v6.63h1.36v1.06h-1.36v2.92h-1.23v-2.94h-4.27v-.88l4.5-6.79zm-4.33 6.63h3.11v-4.74zM65.17 182.81v6.8H67v1h-5v-1h2v-5.8h-1.94v-1zm.3-2.5a.89.89 0 11-.89-.87.88.88 0 01.89.87zM69.92 182.83h1.24v1.36a3.25 3.25 0 012.58-1.55 2.21 2.21 0 012.07 1.36 4.38 4.38 0 01.28 1.87v4.71h-1.2v-4.68a2.57 2.57 0 00-.42-1.72 1.38 1.38 0 00-1.06-.49 2.67 2.67 0 00-1.86 1.08 2 2 0 00-.39 1.33v4.48h-1.24z"/></svg>