<svg xmlns="http://www.w3.org/2000/svg" width="600" height="360"><path fill="#fff" d="M0 0h600v360H0z"/><path d="M300 256.5c39.5-21.5 63.5-79 56.5-153h-113c-7 74 17 131.5 56.5 153z" fill="#1f2c5c"/><path d="M305.5 196c0 10 7 12.5 10.47 16.5H284c5-4.5 10.5-9 10.5-16.5v-9.5c-7 6.5-14.5 9-23.5 11.5 2-6.5 9.5-7.5 12.5-14-11.5 6.5-12.5 6.5-23 2 9.5-5 13-5 18.5-14-7.5 6-10 5-20 1 11-4 13.5-3.5 23-13.5-6 0-10.5-.5-18 .5 9.5-4.5 16-7.5 23.5-12.5-4.5.5-9.5-.5-14.5-1 5-4 14-8.5 20-13a30.27 30.27 0 01-9.5 0c6-3 13-7.5 16.5-12.5a57.25 57.25 0 0019 13.5c-3 .5-8 1.5-11 0 6 5 11 10.5 18 13.5-4 .5-7-.5-11-.5a150.1 150.1 0 0018.5 12.5c-5.5.5-7.5 0-13-1.5 6.5 6.5 9.5 7 20.5 15-8 1-10 1.5-18 .5 8 7.5 9 8 18 13-5 .5-16 1.5-22.5-2 1.5 5 7.5 10.5 11 14a43.18 43.18 0 01-24-12.5z" fill="#008332"/></svg>