<svg xmlns="http://www.w3.org/2000/svg" width="600" height="315.79" viewBox="0 0 600 315.79"><path fill="#fff" d="M0 0h600v315.79H0z"/><path fill="#bf0a30" d="M0 0h600v24.29H0zM0 48.58h600v24.29H0zM0 97.17h600v24.29H0zM0 145.75h600v24.29H0zM0 194.33h600v24.29H0zM0 242.91h600v24.29H0zM0 291.5h600v24.29H0z"/><path d="M0 170h240V0H0z" fill="#002868" fill-rule="evenodd"/><path d="M213.79 31.12l2.2 6.76-5.75-4.18-5.76 4.18 2.2-6.76-5.75-4.18H208l2.2-6.77 2.19 6.77h7.12zM177.72 31.12l2.2 6.76-5.75-4.18-5.76 4.18 2.2-6.76-5.75-4.18H172l2.2-6.77 2.19 6.77h7.12zM141.65 31.12l2.2 6.76-5.75-4.18-5.76 4.18 2.2-6.76-5.75-4.18h7.11l2.2-6.77 2.19 6.77h7.12zM105.58 31.12l2.2 6.76L102 33.7l-5.75 4.18 2.2-6.76-5.76-4.18h7.12l2.19-6.77 2.2 6.77h7.11zM69.51 31.12l2.2 6.76L66 33.7l-5.8 4.18 2.2-6.76-5.76-4.18h7.12L66 20.17l2.2 6.77h7.11zM33.44 31.12l2.2 6.76-5.76-4.18-5.75 4.18 2.2-6.76-5.76-4.18h7.12l2.19-6.77 2.2 6.77h7.11zM195.76 68.45l2.24 6.76-5.8-4.21-5.75 4.18 2.19-6.76-5.75-4.18H190l2.2-6.77 2.2 6.77h7.11zM159.69 68.45l2.19 6.76-5.75-4.21-5.75 4.18 2.19-6.76-5.75-4.18h7.11l2.2-6.77 2.2 6.77h7.11zM123.62 68.45l2.19 6.76-5.75-4.21-5.75 4.18 2.19-6.76-5.75-4.18h7.11l2.2-6.77 2.2 6.77h7.11zM87.55 68.45l2.19 6.76L84 71l-5.75 4.18 2.19-6.76-5.75-4.18h7.11L84 57.5l2.2 6.77h7.1zM51.48 68.45l2.19 6.76L47.92 71l-5.75 4.18 2.19-6.76-5.75-4.18h7.11l2.2-6.77 2.2 6.77h7.11zM213.79 105.77l2.2 6.77-5.75-4.18-5.76 4.18 2.2-6.77-5.75-4.18H208l2.2-6.76 2.19 6.76h7.12zM177.72 105.77l2.2 6.77-5.75-4.18-5.76 4.18 2.2-6.77-5.75-4.18H172l2.2-6.76 2.19 6.76h7.12zM141.65 105.77l2.2 6.77-5.75-4.18-5.76 4.18 2.2-6.77-5.75-4.18h7.11l2.2-6.76 2.19 6.76h7.12zM105.58 105.77l2.2 6.77-5.78-4.18-5.75 4.18 2.2-6.77-5.76-4.18h7.12l2.19-6.76 2.2 6.76h7.11zM69.51 105.77l2.2 6.77-5.71-4.18-5.75 4.18 2.2-6.77-5.76-4.18h7.12L66 94.83l2.2 6.76h7.11zM33.44 105.77l2.2 6.77-5.76-4.18-5.75 4.18 2.2-6.77-5.76-4.18h7.12l2.19-6.76 2.2 6.76h7.11zM213.79 143.1l2.2 6.77-5.75-4.18-5.76 4.18 2.2-6.77-5.75-4.18H208l2.2-6.76 2.19 6.76h7.12zM177.72 143.1l2.2 6.77-5.75-4.18-5.76 4.18 2.2-6.77-5.75-4.18H172l2.2-6.76 2.19 6.76h7.12zM141.65 143.1l2.2 6.77-5.75-4.18-5.76 4.18 2.2-6.77-5.75-4.18h7.11l2.2-6.76 2.19 6.76h7.12zM105.58 143.1l2.2 6.77-5.78-4.18-5.75 4.18 2.2-6.77-5.76-4.18h7.12l2.19-6.76 2.2 6.76h7.11zM69.51 143.1l2.2 6.77-5.71-4.18-5.75 4.18 2.2-6.77-5.76-4.18h7.12l2.19-6.76 2.2 6.76h7.11zM33.44 143.1l2.2 6.77-5.76-4.18-5.75 4.18 2.2-6.77-5.76-4.18h7.12l2.19-6.76 2.2 6.76h7.11z" fill="#fff" fill-rule="evenodd"/></svg>