<svg xmlns="http://www.w3.org/2000/svg" width="606.49" height="400" viewBox="0 0 606.49 400"><path fill="#0f204b" d="M0 0h606.49v400H0z"/><path fill="#ffb612" d="M490.8 75.25l12.22-8.88h-15.11L483.24 52l-4.67 14.37h-15.11l12.23 8.88-4.67 14.38 12.22-8.88 12.23 8.88-4.67-14.38zM114.43 154.57l-2.79-8.57-2.78 8.57h-9.01l7.29 5.29-2.78 8.57 7.28-5.29 7.29 5.29-2.78-8.57 7.29-5.29h-9.01zM181.23 179.37l-2.79-8.57-2.78 8.57h-9.01l7.29 5.29-2.78 8.57 7.28-5.29 7.29 5.29-2.78-8.57 7.29-5.29h-9.01zM214.43 214.97l-2.79-8.57-2.78 8.57h-9.01l7.29 5.29-2.79 8.57 7.29-5.29 7.29 5.29-2.78-8.57 7.29-5.29h-9.01zM245.24 243.6l-2.78 8.57h-9.01l7.29 5.29-2.78 8.57 7.28-5.29 7.29 5.29-2.78-8.57 7.29-5.29h-9.01l-2.79-8.57zM349.75 293.06l7.29-5.29h-9.01l-2.79-8.57-2.78 8.57h-9.01l7.29 5.29-2.79 8.57 7.29-5.29 7.29 5.29-2.78-8.57zM243.63 304.57l-2.79-8.57-2.78 8.57h-9.01l7.29 5.29-2.78 8.57 7.28-5.29 7.29 5.29-2.78-8.57 7.29-5.29h-9.01zM318.83 329.37l-2.79-8.57-2.78 8.57h-9.01l7.29 5.29-2.79 8.57 7.29-5.29 7.29 5.29-2.78-8.57 7.29-5.29h-9.01z"/></svg>