<?xml version="1.0" encoding="utf-8"?>
<!-- Generator: Adobe Illustrator 23.0.1, SVG Export Plug-In . SVG Version: 6.00 Build 0)  -->
<svg version="1.1" id="Layer_1" xmlns="http://www.w3.org/2000/svg" xmlns:xlink="http://www.w3.org/1999/xlink" x="0px" y="0px"
	 viewBox="0 0 1200 900" style="enable-background:new 0 0 1200 900;" xml:space="preserve">
<style type="text/css">
	.st0{fill:#FFFFFF;}
	.st1{fill:#002868;}
	.st2{fill:#BF0A30;}
</style>
<rect class="st0" width="1200" height="900"/>
<rect class="st1" width="1200" height="450"/>
<rect class="st2" width="450" height="900"/>
<path class="st0" d="M338,595.1l-108.7-80.7l-108.9,80.5l42.9-128.7L53.3,387l135.3,1.2l41-129.4l40.7,129.5l135.3-0.9l-110.1,78.8
	L338,595.1L338,595.1z M37.2,311l8.5-12.9l22.6,7.8l-16-17.7l8.5-12.9l31.7,21l-5.3,8l-24.2-16L83,310.5l-4.8,7.3L50,307.9l24.2,16
	l-5.3,8L37.2,311L37.2,311z M108.9,238.4l11.4-6.3l12.9,7.6l0.6-15l11.3-6.2l-2.3,26.5l7.6,14l-10.3,5.7l-7.6-14L108.9,238.4
	L108.9,238.4z M115.6,273.6l-10.8,7.8l2.2,6.2l-9.7,7l-10.6-39.3l10.4-7.5l33.7,22.6l-10,7.2L115.6,273.6 M108.8,268.4l-11.4-8.7
	l4.6,13.6L108.8,268.4z M221.7,223.6c0.4-7.2,2-12.2,4.7-15c2.8-2.7,6.8-4,12.1-3.7c7.2,0.4,12.2,4.1,13.6,11.3
	c0.6,2.9,0.7,5.8,0.6,8.9c-0.4,6.9-1.8,11.9-4.3,15c-2.5,3.1-6.6,4.4-12.3,4.1c-8-0.4-12.8-4.7-14.1-12.6
	C221.6,229.2,221.5,226.5,221.7,223.6 M232.1,224.2c-0.2,3.3-1.1,12.6,4.3,12.9c5.4,0.3,5.5-8.6,5.7-12c0.2-3.5,1.1-12.8-4.4-13.1
	C232.3,211.7,232.3,220.8,232.1,224.2L232.1,224.2z M218,243.3l-31.5,3.4c0-3.2,0.8-6.2,2.3-9.1c1.5-3,4.6-6.6,9.3-10.8
	c2.8-2.6,4.6-4.6,5.3-5.8c1.2-2.1,1.5-4.7-0.7-6.3c-1.9-1.5-5-1.1-6.5,0.7c-0.8,0.9-1.2,2.5-1.2,4.6l-10.6,0.3
	c0.1-3,0.6-5.4,1.5-7.2c0.9-1.8,2.3-3.2,4.2-4.3c4.3-2.5,12.1-3.3,16.9-1.9c4.2,1.2,7.2,4.7,7.7,9.1c0.2,2.3-0.2,4.6-1.3,6.8
	c-2.8,5.6-8.8,9-12.8,13.8l16.4-1.8L218,243.3L218,243.3L218,243.3z M395.1,294.2l12.9,21.5l-7.2,4.4l-8.7-14.6l-5.3,2.2
	c2,1.3,3.7,3,5,5.1c3.6,6.1,2.5,13.5-3.8,17.3c-4.2,2.6-9.8,2.9-14.1,0.3c-4.1-2.5-7.3-7.8-8.7-12.3c-1.4-5,0-9.5,3.5-13.3l6.5,8.6
	c-3.3,2.7-3.6,8.6,1.5,9.4c3,0.5,7.7-2.2,8.5-5.2c1.1-3.9-2.3-6.6-5.7-7.3l-3.5-8.4L395.1,294.2L395.1,294.2L395.1,294.2z
	 M365.5,263.7l24.5,18.7l-4.3,5.7c-11.9,1-21.9,7.4-29.7,16.2l-8.4-6.4c8.1-8.1,16.3-12.9,27.4-15.7l-14.9-11.4L365.5,263.7
	L365.5,263.7L365.5,263.7z M336.3,241.2l26.1,16.4l-3.8,6c-11.8,2.1-21.2,9.4-28.2,18.8l-8.9-5.6c7.3-8.8,15.1-14.3,25.9-18.1
	l-15.9-10L336.3,241.2L336.3,241.2L336.3,241.2z M326.5,235.1l-16.9,34.8l-9.6-4.7l11.1-22.8c-4.2,0.8-8.2,0.8-12.4,0.1l3.8-7.8
	c5.9,0.8,11.4,0.4,16.2-3.4L326.5,235.1L326.5,235.1L326.5,235.1z M254.8,206.6l15,2.2l-0.6,4.2l-5-0.7l-1.9,13l-4.9-0.7l1.9-13
	l-5-0.7L254.8,206.6L254.8,206.6z M270.8,209l4.9,0.7l-0.9,6l5.4,0.8l0.9-6l5,0.7l-2.5,17.2l-4.9-0.7l1-7l-5.4-0.8l-1,7l-4.9-0.7
	L270.8,209L270.8,209z M76.5,560.5l9.4,12.3l-14.7,18.8l21.9-9.4l9.4,12.2l-30.1,23.2l-5.8-7.6l23-17.7L62,604.1l-5.3-6.9l18.5-23.6
	l-23,17.7l-5.8-7.6L76.5,560.5L76.5,560.5z M141.2,625.8l10.2,8.1l-1.9,14.9l13.9-5.4l10.2,8l-25.2,8.3l-9.8,12.5l-9.2-7.3l9.8-12.5
	L141.2,625.8L141.2,625.8z M107,640.3l-10.6-8.2l-5.3,3.9l-9.5-7.3l34.5-21.4l10.1,7.8L114.4,654l-9.7-7.5L107,640.3 M110.1,632.3
	l5-13.4l-11.6,8.3L110.1,632.3L110.1,632.3z M225.4,675.2c0-11.2,3.4-19.5,15.8-19.5c11.8,0,15.2,8.9,15.2,19.4c0,11.1-3,20-15.5,20
	C228.7,695.1,225.4,685.9,225.4,675.2 M235.9,675.3c0,3.3-0.4,12.6,5,12.6c5.4,0,5.1-8.8,5.1-12.3c0-3.5,0.4-12.8-5.1-12.8
	C235.4,662.7,235.9,671.9,235.9,675.3L235.9,675.3z M220.2,693.8l-31.6-1.7c0.5-3.1,1.8-6,3.8-8.6c4.6-6.1,12.5-8.5,17.1-14.1
	c2.4-3,1.6-7.5-2.8-7.8c-3.4-0.2-4.7,2.5-5.3,5.5l-10.5-1.4c1.7-8.9,7.2-11.8,15.9-11.3c7.2,0.4,15.1,3.2,14.7,11.9
	c-0.5,9.4-11.1,12.7-17.2,18.1l16.4,0.9L220.2,693.8L220.2,693.8L220.2,693.8z M382.7,554.1l29.7,24.7l-6.8,8.2l-19.5-16.2
	c-0.2,4.3-1.2,8.1-2.8,12.1l-6.7-5.5c2.2-5.5,3.1-11,0.5-16.6L382.7,554.1L382.7,554.1L382.7,554.1z M375,586l-6.4,8.5
	c-1.2-0.8-2.3-1.2-3.2-1.2c-2.9,0.1-4,3.3-3.2,5.8c0.4,1.4,2,3.6,4.7,6.7c-0.1-3.4,0.9-6.3,3.2-8.7c5-5.1,12.7-4.6,17.6,0.2
	c3.4,3.3,5.1,8.3,3.6,12.9c-2.6,8.5-11.8,14.5-20.4,11.7c-7.5-2.5-16.8-11.9-17.3-20c-0.4-6.6,4.7-13.8,10.6-16.4
	C367.9,583.8,371.6,584.2,375,586 M378.2,614.1c2.9,0.1,5.4-2.1,5.2-5.1c-0.2-3-3.9-6.5-6.9-6.7c-3-0.2-5.3,2.3-5.1,5.2
	C371.5,610.6,375.1,613.9,378.2,614.1L378.2,614.1L378.2,614.1z M338.6,633.1c-3.6,0.5-6.7-0.6-8.9-3.6c-4.2-6,0.4-12.7,5.4-16.2
	c5.3-3.8,13.4-6.8,18-0.2c2,2.9,1.9,6.2,0.6,9.4c4.1-0.7,7.9,0.7,10.3,4.1c5.1,7.2,0.4,14.1-5.7,18.5c-6.4,4.5-14.3,7-19.6-0.6
	C336.2,640.7,336.1,636.8,338.6,633.1 M338.1,624.2c3.3,4.7,10.4-0.2,7.1-4.9C341.9,614.5,334.8,619.5,338.1,624.2 M354.5,639.7
	c5.3-3.8-1.3-13.1-6.7-9.3C342.4,634.2,349.1,643.5,354.5,639.7z M317.5,627.2l17,34.8l-9.6,4.7l-11.1-22.8
	c-1.9,3.8-4.4,6.9-7.5,9.9l-3.8-7.8c4.3-4.1,7.3-8.8,7.2-14.9L317.5,627.2L317.5,627.2L317.5,627.2z M256.3,657l14.8-3.3l0.9,4.2
	l-5,1.1l2.8,12.8l-4.9,1.1l-2.8-12.8l-5,1.1L256.3,657L256.3,657z M272.1,653.5l4.8-1.2l1.5,5.9l5.3-1.3l-1.5-5.9l4.9-1.2l4.3,16.9
	l-4.9,1.2l-1.7-6.8l-5.3,1.3l1.7,6.8l-4.8,1.2L272.1,653.5L272.1,653.5z"/>
</svg>
