<svg xmlns="http://www.w3.org/2000/svg" width="120" height="300" viewBox="0 0 120 300"><title>flag-wyoming-icon-miner</title><polygon points="91.65 226.95 93.69 148.31 99.11 148.31 98.43 227.63 91.65 226.95" fill="#fff" stroke="#000" stroke-linecap="round" stroke-linejoin="round" stroke-width="2" fill-rule="evenodd"/><path d="M99.79,109v21.7c0,6.1-9.5,14.91-8.82,19.66s6.78,4.07,8.82,2.71,12.88-19.66,12.88-30.51,1.36-27.12-1.36-27.8-12.2,10.17-12.2,10.17l.68,4.07Z" fill="#fff" stroke="#000" stroke-linecap="round" stroke-linejoin="round" stroke-width="2" fill-rule="evenodd"/><path d="M55.72,213.39s-1.36,25.77-1.36,32.55-.68,14.23-5.42,18.3-8.82,2.71-10.17,5.43a4.18,4.18,0,0,0,.67,4.74L70,273.73s-1.36-24.4-.68-33.22,6.78-22.37,3.39-25.08S58.43,212.71,55.72,213.39Z" fill="#fff" stroke="#000" stroke-linecap="round" stroke-linejoin="round" stroke-width="2" fill-rule="evenodd"/><path d="M23.85,205.94s16.27,12.88,15.59,17.62S31.31,233.73,34,236.45s4.75,2,4.75,2l22.37-20.34-25.76-21-11.53,8.82Z" fill="#fff" stroke="#000" stroke-linecap="round" stroke-linejoin="round" stroke-width="2" fill-rule="evenodd"/><path d="M76.73,216.11s6.78,9.49,15.6,9.49,20.34-24.41,20.34-24.41S108.6,234.42,93,233.74s-16.28-10.85-16.28-17.63Z" fill="#fff" stroke="#000" stroke-linecap="round" stroke-linejoin="round" stroke-width="2" fill-rule="evenodd"/><path d="M74,134.07c4.06-3.39,5.42-23,5.42-23l6.1-11.53S95.72,111,100.47,110.34s11.52-.68,11.52-4.75,2-10.17-1.35-13.56-21-17.63-24.41-19.66-38.64-6.1-41.36-6.1S31.31,73.05,30,79.15,25.89,105.59,25.89,111s.58,13.67.58,13.67l10.27-6.89,3.39,9.49L74,134.07Z" fill="#fff" stroke="#000" stroke-linecap="round" stroke-linejoin="round" stroke-width="2" fill-rule="evenodd"/><path d="M38.09,69c7.46,8.13,9.49,29.15,9.49,29.15s2-11.52,7.46-15.59,18.31-4.75,18.31-10.85S59.11,63.56,55,63.56A27.24,27.24,0,0,0,38.09,69Z" fill="#fff" stroke="#000" stroke-linecap="round" stroke-linejoin="round" stroke-width="2" fill-rule="evenodd"/><path d="M47.58,65.59c0,6.78,2.72,9.49,6.11,10.17S65.21,72.37,64.53,69s-17-3.39-17-3.39Z" fill="#fff" stroke="#000" stroke-linecap="round" stroke-linejoin="round" stroke-width="2" fill-rule="evenodd"/><path d="M50.3,64.91s0,8.14,4.07,7.46,7.46-8.81,7.46-8.81L50.3,64.91Z" fill="#fff" stroke="#000" stroke-linecap="round" stroke-linejoin="round" stroke-width="2" fill-rule="evenodd"/><path d="M47.9,32.7C47.65,37.48,47.15,43,46.39,44s-3.27,5-3.52,7,2.27,1.77,2.27,1.77-.51,9.31-.76,11.07,4,.25,5.79,3.27,1.76,7.3,2.77,6.54a85.32,85.32,0,0,0,6.79-6.79c2-2.27,5-.5,5.79-3.52S67,37.74,67,37.74l-19.13-5Z" fill="#fff" stroke="#000" stroke-linecap="round" stroke-linejoin="round" stroke-width="2" fill-rule="evenodd"/><path d="M63.86,214.07c-7.46.68-10.17-.67-10.85-4.06s-.68-25.09-2-32.55-3.39-10.85-3.39-10.85S30,179.5,30,185.6s5.42,10.85,5.42,10.85l-10.85,9.49S2.16,193.06,2.16,185.6s23.05-32.55,27.12-38,5.42-21,9.49-21.7,29.16,1.36,33.22,4.75S84.88,149,84.2,158.48s-4.07,8.13-4.75,11.52,0,6.11-.67,10.85-4.07,1.36-4.07,5.43S76.06,208,74,211.36s-3.39,2.71-10.17,2.71Z" fill="#fff" stroke="#000" stroke-linecap="round" stroke-linejoin="round" stroke-width="2" fill-rule="evenodd"/><path d="M51,25.59c-4.74,4.07-7.45,5.42-6.1,8.13s12.21,3.39,13.56,6.78,0,8.82,0,8.82L63.86,48v15.6s13.56-10.85,12.2-21.7S61.14,29.66,57.08,29,53,27.62,51,25.59Z" fill="#fff" stroke="#000" stroke-linecap="round" stroke-linejoin="round" stroke-width="2" fill-rule="evenodd"/><path d="M25.75,125.82c.26,3.52,1,22.15-.25,24.91S22,158,25,161.56s6.54,5,8,2.26-.5-15.6,1.26-22.9,2-20.39.76-22.15-8.81-1-9.32,7Z" fill="#fff" stroke="#000" stroke-linecap="round" stroke-linejoin="round" stroke-width="2" fill-rule="evenodd"/><path d="M47.65,166.59a35,35,0,0,1-3.52-16.11m3.52,16.11Z" fill="none" stroke="#000" stroke-linecap="round" stroke-linejoin="round" stroke-width="2"/><path d="M37.08,119l.25-26.93M37.08,119Z" fill="none" stroke="#000" stroke-linecap="round" stroke-linejoin="round" stroke-width="2"/><path d="M79.62,111.22a47.3,47.3,0,0,1-5.29-4.53c-1.26-1.51-2.77-3.77-2.77-3.77m8.06,8.3Z" fill="none" stroke="#000" stroke-linecap="round" stroke-linejoin="round" stroke-width="2"/><path d="M95.22,108.45C95,95.62,111.32,93.1,111.32,93.1m-16.1,15.35Z" fill="none" stroke="#000" stroke-linecap="round" stroke-linejoin="round" stroke-width="2"/><path d="M44.63,57.37l4,.25m-4-.25Z" fill="none" stroke="#000" stroke-linecap="round" stroke-linejoin="round" stroke-width="2"/><path d="M46.9,41.76l5.78,5m-5.78-5Z" fill="none" stroke="#000" stroke-linecap="round" stroke-linejoin="round" stroke-width="2"/></svg>