<svg xmlns="http://www.w3.org/2000/svg" version="1.0" width="450" height="300" viewbox="0 0 450 300"><path font-size="12" fill="#bf0a30" fill-rule="evenodd" d="M0 0h450v300H0z"/><path d="M37.5 148.84L224.225 275 412.5 148.595 224.225 25 37.5 148.84z" fill="#002868" fill-rule="evenodd"/><path d="M84 149.128L224.417 244 366 148.944 224.417 56 84 149.128z" fill="#fff" fill-rule="evenodd"/><path d="M229.484 49.981l-5.521-4L218.452 50l2.095-6.491-5.522-4.004 6.815-.012 2.1-6.493 2.118 6.484 6.818-.01-5.507 4.02 2.116 6.487zM82.019 135.609l4-5.521L82 124.577l6.491 2.095 4.004-5.522.012 6.815L99 130.064l-6.484 2.118.01 6.818-4.02-5.507-6.487 2.116zm27-18l4-5.521-4.019-5.511 6.491 2.095 4.004-5.522.012 6.815 6.493 2.099-6.484 2.118.01 6.818-4.02-5.507-6.487 2.116zm81-53l4-5.521L190 53.577l6.491 2.095 4.004-5.522.012 6.815L207 59.064l-6.484 2.118.01 6.818-4.02-5.507-6.487 2.116zm-27 18l4-5.521L163 71.577l6.491 2.095 4.004-5.522.012 6.815L180 77.064l-6.484 2.118.01 6.818-4.02-5.507-6.487 2.116zm-27 17l4-5.521L136 88.577l6.491 2.095 4.004-5.522.012 6.815L153 94.064l-6.484 2.118.01 6.818-4.02-5.507-6.487 2.116z" font-size="12" fill="#fff" fill-rule="evenodd"/><path d="M82.019 135.609l4-5.521L82 124.577l6.491 2.095 4.004-5.522.012 6.815L99 130.064l-6.484 2.118.01 6.818-4.02-5.507-6.487 2.116zm258.44-18l-4-5.521 4.019-5.511-6.491 2.095-4.004-5.522-.012 6.815-6.493 2.099 6.483 2.118-.009 6.818 4.02-5.507 6.487 2.116zm-81-53l-4-5.521 4.019-5.511-6.491 2.095-4.004-5.522-.012 6.815-6.493 2.099 6.483 2.118-.009 6.818 4.02-5.507 6.487 2.116zm27 18l-4-5.521 4.019-5.511-6.491 2.095-4.004-5.522-.012 6.815-6.493 2.099 6.483 2.118-.009 6.818 4.02-5.507 6.487 2.116zm27 17l-4-5.521 4.019-5.511-6.491 2.095-4.004-5.522-.012 6.815-6.493 2.099 6.483 2.118-.009 6.818 4.02-5.507 6.487 2.116zm54 36l-4-5.521 4.019-5.511-6.491 2.095-4.004-5.522-.012 6.815-6.493 2.099 6.483 2.118-.009 6.818 4.02-5.507 6.487 2.116zm-295.478 8.857l-4 5.521L72 155.498l-6.491-2.095-4.004 5.522-.012-6.815-6.493-2.1 6.484-2.118-.01-6.818 4.02 5.507 6.487-2.116zm24 17.075l-4 5.521L96 172.573l-6.491-2.095L85.505 176l-.012-6.815L79 167.086l6.484-2.118-.01-6.818 4.02 5.507 6.487-2.116zm72 49l-4 5.521 4.019 5.511-6.491-2.095-4.004 5.522-.012-6.815-6.493-2.099 6.484-2.118-.01-6.818 4.02 5.507 6.487-2.116zm-24-17l-4 5.521 4.019 5.511-6.491-2.095-4.004 5.522-.012-6.815-6.493-2.099 6.484-2.118-.01-6.818 4.02 5.507 6.487-2.116zm-24-16l-4 5.521 4.019 5.511-6.491-2.095-4.004 5.522-.012-6.815-6.493-2.099 6.484-2.118-.01-6.818 4.02 5.507 6.487-2.116zm72 49l-4 5.521 4.019 5.511-6.491-2.095-4.004 5.522-.012-6.815-6.493-2.099 6.484-2.118-.01-6.818 4.02 5.507 6.487-2.116zm24 17l-4 5.521 4.019 5.511-6.491-2.095-4.004 5.522-.012-6.815-6.493-2.099 6.484-2.118-.01-6.818 4.02 5.507 6.487-2.116zm161.038-99.075l4 5.521-4.019 5.511 6.491-2.095 4.004 5.522.012-6.815 6.493-2.1-6.484-2.118.01-6.818-4.02 5.507-6.487-2.116zm-24 17.075l4 5.521-4.019 5.511 6.491-2.095 4.004 5.522.012-6.815 6.493-2.099-6.484-2.118.01-6.818-4.02 5.507-6.487-2.116zm-72 49l4 5.521-4.019 5.511 6.491-2.095 4.004 5.522.012-6.815 6.493-2.099-6.484-2.118.01-6.818-4.02 5.507-6.487-2.116zm24-17l4 5.521-4.019 5.511 6.491-2.095 4.004 5.522.012-6.815 6.493-2.099-6.484-2.118.01-6.818-4.02 5.507-6.487-2.116zm24-16l4 5.521-4.019 5.511 6.491-2.095 4.004 5.522.012-6.815 6.493-2.099-6.484-2.118.01-6.818-4.02 5.507-6.487-2.116zm-72 49l4 5.521-4.019 5.511 6.491-2.095 4.004 5.522.012-6.815 6.493-2.099-6.484-2.118.01-6.818-4.02 5.507-6.487-2.116zm-24 17l4 5.521-4.019 5.511 6.491-2.095 4.004 5.522.012-6.815 6.493-2.099-6.484-2.118.01-6.818-4.02 5.507-6.487-2.116z" font-size="12" fill="#fff" fill-rule="evenodd"/><path d="M212.427 170l13.286-9.442 13.301 9.434-5.08-15.27 13.288-9.452-16.425.004-5.09-15.274-5.071 15.272-16.433.012 13.291 9.435L212.427 170zm66.797 0l13.286-9.442 13.301 9.434-5.08-15.27 13.288-9.452-16.426.004L292.504 130l-5.071 15.272-16.433.012 13.291 9.435L279.224 170zm-136 0l13.286-9.442 13.301 9.434-5.08-15.27 13.288-9.452-16.426.004L156.504 130l-5.071 15.272-16.433.012 13.291 9.435L143.224 170z" font-size="12" fill="#002868" fill-rule="evenodd"/></svg>
