<svg xmlns="http://www.w3.org/2000/svg" width="600" height="420"><path fill="#fff" stroke="#50d6cc" stroke-linecap="round" stroke-linejoin="round" d="M26.46 2.63h572.5V384.3H26.46z"/><path d="M58.15 73.89c-16.14 53.81 48.77 97.3 93 58.28C197.5 83.48 145.76 17.73 92 38.72c39.22-6.75 62.6 38.57 36.22 66.84-25.45 26.03-71.9 8.93-70.07-31.67zM350.72 322.42a22 22 0 00-8.84-2c-3.32-.3-6.71-.16-10-.65-1.4-1-1.17-.11-.92.19-2 2.8-5.44 2.26-8.4 2.79-4.13.39-8.31.81-12.22 2.28-2.71.35-5.1-2-7.06-3.7a28.12 28.12 0 01-1.93-4.11c-5.67.16-11.36 0-17 .17-2.45 1.56-5.28 2.58-7.19 4.84-1.45 2 2.43 3.78 4.43 3.32 1 .67 4.59-.63 4 1.25-.94 2.73-4 3.21-6 4.85-1.25 2.6 1.71 5.81 3.93 3.34 1.32-1.25 2.46-1.39 3.39.15 1.55 1.21-1.08 4.47 2.31 4.3 2.2-1.12 4.18-3.06 6.25-4.54 1.38-1.76 3.61-3.71 4.48-.39 2 1.73 4.56 1.3 7 1.14 3-.1 6.24-.5 7.94-3.29 2.78-1.33 5.42 1.38 6.82 3.55 1.87 1.23 5 1.39 4-1.72-.73-2-.1-4.2 2.36-2.89 2.68.52 4.76 2.55 7.34 3.26-.16-2-.18-5.65 2.53-3.14a23.12 23.12 0 007.46 4c.1-1.15-.21-2.42.17-3.5 1.78-1.83 5.34 3.54 4.56-.55.37-1.41-1.55-4.51.41-4.3a39.92 39.92 0 008.45 2.45c-1.94-3.22-5.36-4.97-8.27-7.1zM310.43 219c1.88-1.15-.2-1.1-1.23-1.78-.12 1.78-.46 3.98 1.23 1.78zM309.9 240.7c1.61-.7 2.82-2 .23-1.95l-1.74-.26c-.04 1.65-.67 4.27 1.51 2.21zM323.18 191.27c-.4 1.2-4.25 4.79-1.4 2.52 1.47-.89 1.68-.31 1.41-2.28v-.24z" fill="none" stroke="#50d6cc" stroke-linecap="round" stroke-linejoin="round"/><path d="M387 148.73c1.95.67 5.89-.47 6.65 1.16 1.93.62 5.32-.17 7.81 0 3.44-.31 7.22.17 10.44-.68 1.13-1.75 4.49-2.32 4.43-4.59-.23-2.11-.25-4.28-.6-6.35-.72-.78-.87-2.37-2.08-2.44a52.7 52.7 0 01-9.43-2.53c-6.41-.16-12.85-.1-19.24-.48-2.07-.14-4.53 1.74-6.91 1.61-3.68.37-7.43.06-11 1.2-1.37 1.07-3.29-.47-1.08-.75a31.38 31.38 0 018.4-1.18 22.52 22.52 0 008.52-1.5c1.65-1.12 2 .78 2.34-1.29 1.51-.58 6.35-.17 5.21-1.76-6 .2-11.94.27-17.92.38-2.14-.21-4.88 1.11-7 2.14-2.49 1-.43-1.52 1.11-1.59 2.64-1.57 5.93-1.18 8.5-2.88 4-1.87 7.78-4.24 11.69-6.29 1-.9 3.85-2.3.85-2.59-2.34-.54-4.85.81-7.28.84-3.21.56 0-2.23 1.21-2.77 3.74-1.93 7.4-4 11-6.26 1.13-.87 4.48-1.46 3.41-2.91-3 1-6 2.47-9.15 3.31-1.06.25-5.82.84-3.47-1 4.58-3 9.09-6.16 13.62-9.24 1.52-2 .42-2.08-1.39-1.25-2.11.64-3.67 2.35-5.63 3.35-.67 1.18-4.44 2.18-2.44.14 2-1.76 4-3.59 6.13-5.24 1.07-1.49 2.16-5-.74-3.37-1.88 1-4.28 1.14-5.59 3-2.3 2.39-4.65 4.77-6.93 7.18-1.67-1.56 2.64-3.28 3.17-4.94 1.87-2.14 3.84-4.22 5.52-6.51.36-1.88.44-3.21-1.47-1.9l-2.78 1.2c.28 1.94-3.83 4-5.14 5.88-2.21 1.89-5.21 2.68-7.15 4.93-1.59-1.76 2.71-2.99 3.81-3.96 3.1-1.52 5.2-4.36 7.7-6.66-2.73.56-5.89.45-7.49 3.17-4.14 3.94-8.17 8-12.41 11.84-5.17 3.59-10.43 7.1-15.73 10.45-2.43 1-5.88.17-7 3.1-2 2.85-4.43 5.4-6.69 8.06a10.45 10.45 0 016.93 1.1c2.11.74 3.9 2.2 5.92 3.11-.45 2-3.22 3.53-5.4 3.16-1.37 0-2.6-1-3.92-1.36.14-1.58 1.47-.31 2.37-.08a4.46 4.46 0 005.43-1c-.68-1.39-4.26-2.79-6.34-3.56-1.88-1.13-4-.35-6.09-.33-2.42.55.68-1.59 1-2.43a107.06 107.06 0 007.57-9.41c-.17-2.43 2.52-4.15 3.42-6.39 2.64-3.89 4-8.48 6-12.71.87-1.77.42-3.83.65-5.74-.07-1 .3-2.16-.06-3.13-1.88 3.46-3.82 6.91-5.62 10.39-2.23.13-.23-3.39.41-4.31 1.71-3.45 3.64-6.85 5.23-10.33.05-1.46.1-2.92.14-4.38-1.44-1.25-2.16 3-3.31 4-2.5 4.16-4.81 8.47-7.42 12.56-.26 1.38-3 2.39-1.91.43 3.73-6.86 7.56-13.7 11.38-20.48 1.54-2.73 1-5.91 1.26-8.9-1.47-2.33-2.5 1.25-3.68 2.18-1.51 1.87-2.07 4.34-3.23 6.44-1.88 4.09-3.83 8.15-5.74 12.22-2.11-.81 1.23-4.03 1.29-5.81l5.49-14.23c-.92-1.9-3 3.12-3.94 4.28-1.74 3.89-3.77 7.65-5.69 11.45-2.06-.9 1.25-4.06 1.16-5.78 1-2.89 2.31-5.74 3.28-8.58-.15-1.07 1.37-3.86 0-3.91-2.05 1-3.57 3.74-4.44 5.93-2.06 6.13-4.18 12.25-6.25 18.37-1.08 2.75-2.12 5.55-3.21 8.28-2-.27.79-3.68.63-5.14.66-3 2.13-5.92 2.26-9-.51-2.29.05-5.27-1.09-7.13-1.7 3.92-3.85 7.67-5.31 11.67-1.1 4.81-2.57 9.53-3.19 14.43a41.3 41.3 0 01-1.63 7.47c-2-.19-1.5-3.77-2.7-5.24-1.08-3.45-3.26-6.44-4.84-9.68-.81-.8-2.66-6.44-2.63-3.29-.18 2.27-.34 4.54-.54 6.81L294.87 75.4c.36 2.75 0 5.7 1 8.29 2.19 4.73 4.2 9.54 6.29 14.31-1.1 1-1.32-.68-1.87-1.38l-12.56-22.13c-1.68 1.19-.51 3.37-.73 5.08.69 2.4 2.28 4.54 3.36 6.81 2 3.7 4 7.39 6 11.05-1.45 1.6-2.24-2.94-3.29-4-3.77-6.55-7.51-13.13-11.4-19.62a2.79 2.79 0 00-1.95 3.49 5.79 5.79 0 001.36 4.4q4.39 7.59 8.82 15.14c-1 1.16-1.3-.53-1.88-1.21l-14.19-22.48c-1.15-.52-2.79-1.91-2.42.39-.55 2.88 2.58 4.89 3.61 7.39 4.22 6.52 8.56 13.08 12.76 19.55-.88 1.18-1.28-.33-1.85-1l-8-11.34c-1-.26-2.28-.91-1.9.71-.07 1-.34 2.1.53 2.87 4.26 6.4 8.61 12.77 12.82 19.19 1.37 2.8 2.61 5.68 4.06 8.42l7.3 7.52c-1.75 1.41-3.52-3.06-5.26-3.87-1.84-2.07-4.32-3.73-5.36-6.39-1.27-2-2-4.34-3.94-5.78-2.17-1.62-3.83-4.58-6.33-5.31-.81 1.79-.15 5.8 2.28 7.19.24.66 3.64 3 1.77 2.48a44.68 44.68 0 01-10.54-3c-2.07 2 5 3.59 1 4.4-2.85 0-5.05-2.55-7.66-3.51-6.5-3.55-13.16-6.83-19.8-10.08l-4.14-1.25c-.38 2.4 3.38 3.08 4.63 4.78 5 2.73 10.2 5.31 15.25 8-.16 1.52-1.53.37-2.44.22l-28.37-9.13c-1.58-.38-1.31.46-.67 1.53.16 1.24 1.39 1.3 2.35 1.65 7.43 2.49 14.84 5 22.27 7.48.29 1.17.53 2.36.79 3.53-1.69-1.39-3.35-3-5.66-3.12-4.84-1.2-9.82-.19-14.72-.13-2.61-.63-3 1.48-.35 1.93 2.1 1.63 4.79.72 7.23.85L255 119c.7 2.25-3.87.74-4 2.58-.46 2.17 3.64 2.17 5.13 1.72 2.26 0 3.83-3.31 5.75-2.74-.5 2.15-4.28 2.63-4.71 4.86-.28 2.23 4.27 1.57 5.58.62 1.51-1.26 4.13-3.17 4.27.21.44 3.06 4.48 1.87 6.67 2.91 3.92.59 7.93.84 11.8 1.48 3.71 1.69 7.44 3.36 11.14 5-.76 2.1-4-1.09-5.72-1-2.8-.78-5.38-2.37-8.36-2.4a25.75 25.75 0 00-7.74-.12c-7.82.65-15.66 1.18-23.47 1.91-7.27 1.23-14.56 2.41-21.83 3.61-1.85.57-5.86 1.66-2 2.4 8.26-.39 16.49-1.08 24.74-1.7.59 1.44-1.18.95-2.07 1.18l-20.56 2.08c-2.11 1.56-4.92 2.42-6.07 5 .33 3.64 4.88.31 7.13.56a125.39 125.39 0 0017.55-3.77c1.71.13 6-2.91 6.22-.72-6.46 2-12.94 4-19.46 5.82l-4.17 1c-.4 3.34 4.65 1.39 6.7 1.92 4.53-1.06 8.84-2.88 13.31-4.15 2.39-.2 6-3 7.73-1.84-1.54 1.56-5.1 2.39-7.33 3.69-4.6 2-9.27 3.86-13.75 6.14-3 3 3.13 2.72 4.63 1.17 4.79-2.19 9.52-4.51 14.24-6.88 1.16 1-.54 1.41-1.15 2.07a63 63 0 01-8.26 5.9c-1.15.93-3 1.26-3.27 3 2.62 1.49 5.12-.32 7.47-1.49q9.21-6 18.59-11.65c2.7-1.21 5.47-2.26 8.21-3.36 1.06 1.06-.67 1.38-1.33 2l-9 6c-3.29 3.4-6.27 7.14-10.15 9.9a42.61 42.61 0 00-5.09 4.55c-2.83 2.85-5.77 5.61-8.59 8.49-.87 2.91-2.74 5.64-2.54 8.76 0 3.36-.34 6.76 0 10.1.35 1.39 1.15 4.55 1.42 1.39.15-1.45 1.15-6.43 2.22-2.93.59 1.3 1.17 5.25 1.87 4.56 1-2 1.21-4.86 2.85-6.39 1.47.85 2.62 3 4 .53 1.77-2.06 1.51-5.16 2.39-7.67l2.28-9.77c1.39-.4 1.06 1.28 1.41 2.14.44 2 .89 4 1.33 6 3-1.31 1.8-5.4 2.77-8 .2-2 .81-7.06 2.9-3.16 1.22 2.94 4.62-.45 4.51-2.58.7-3.39 1.36-6.78 2.07-10.16.91 1.62 1.86 3.22 2.79 4.83 3.16-.15 4.25-3.32 6.3-5.2a66.1 66.1 0 015.53-5.8c2.34-1.2 4.52-2.81 6.92-3.84 2.34 2.16-1.19 5.08-2.52 6.94-3 3.66-6.63 6.68-9.74 10.23-1.22 1.42-3.14 2.61-2.63 4.71 1.56.7 3.19 1.33 4.76 2a70 70 0 00-7.11 3.66c-2.12 1.83-4.41 3.45-6.63 5.16-.6 1.61-1 3.43 1.4 2.76 1.7-.29 6.29.44 2.68 2.11-3.38 2.22-7.31 3.6-10.66 5.79-.93 1.24-3.42 3.19-.38 3.1 2-.29 5.06-3.38 6.57-1.82-2.13 2.36-4.9 4.63-7.23 7-1.19.92-3.82 3.48-2.26 4.2 3.69-1.77 6.29-5.09 9.44-7.62 1.11-1.76 4.07-3.32 3.13.11-3.65 4.55-7.19 9.23-11 13.66.38 4.45 3.24-1.28 4.65-2.47 2.2-2.6 4.24-5.38 7.12-7.28 1-.21 3.63-4 3.77-2.43-.07 1.28.32 2.7-.76 3.69-2.27 3.07-3.79 6.57-5.66 9.88-.3 1.43-.62 5.55 1.45 3.61 2.46-4.59 5.46-8.88 7.4-13.74 2-4.17 3.32-8.65 5-12.92 1.4-2.09 2.08-1.38 1.89.8.22 2 .14 6.39 1.54 6.69 2.55-5.83 5.75-11.34 8.47-17.08.95-2.8 2.06-5.55 3.23-8.28 1.46-.15.79 1.44.93 2.36-.1 1.86.2 3.78-.14 5.59-1.58 4.54-2.77 9.22-5 13.51-1.34 2.77-3.22 5.26-4.52 8-1.29 1.69-.81 1.7.65.71 2.58-1.18 4.31-3.4 6.1-5.5 2.81-2.26.72 2.87.08 4-1.53 4.34-2.53 8.89-4.26 13.18 0 1.3-.47 4.28 1.19 2 3.1-2.43 4.23-6.32 6.09-9.64 1.13 1.65 3.24 2.6 4.27.57-.17-2.57-1.35-5.22-.2-7.7a107.09 107.09 0 002.72-12.5c.31-2.56.48-5.15.8-7.7 1.42-.73.82 1.53.93 2.39v5.85c1.4.15 4-2.32 4.69-.7-1.41 1.21-3.56 2-4.84 3.27-.05 1.63-.1 3.26-.16 4.9l5.21-3.17c1.23.86-.4 1.46-1 2.18l-4.27 4c0 1.15-.05 2.3-.07 3.46 1.2-.38 2.42-.74 3.62-1.13 1 1.13-.72 1.38-1.42 2s-2.61.87-2.35 2.27c-.09 3.52-.22 7-.36 10.55.64-1.26 2.88-4.28 2.55-4.46-.73 1.44-3.41 1.54-1.59 0 .76-.92 4.88-3.85 3.43-.92-1.42 2.05-2.66 4.77-4.15 6.46-.42-.05-.93 3 .36 2.37 1.06.72 4.35 1 2.08 2.32a37.52 37.52 0 00-3 2.88c.06 2.95-.68 7.85-.1 9.56.87-1.22 3.72-3.42 3.12-4-1.2.58-4.88.3-2.3-.63 1.56-.6 5.94-.76 3.14 1.7-1.49 2.66-5 3.49-4.37 6.4 0 2.14-.86 3.45 1.76 3.06 3-.26 3.21 2.66.51 3.46-1.86 1.09-3.49 1-2.36 3.48.57 1.63 4.58 2.72 3.57 4.4-.15-1.89-.57.73-1.61-1.17-1.27-1-2.91-3.43-2.38-.23q-.34 9.18-.71 18.35c1.26-.38 3.5 1.39 3.52 2.2-1.3 1.21-4.41-4.06-3.6.11 0 1.88-.45 5.36-.07 6.23.63-.52 1.62 1 2.39 1.24l2.63 1.82c-.48 1.49-1.51 0-2.33-.44l-2.9-2c.22 2.49-.87 7.07.13 8.35 1.14.84 4.12 3.26 4.05 4.61-1.47.4-3.61-4-4.53-3.75-.15 3.71-.28 7.42-.42 11.13 1.55.52 4.69 2.54 5.5 3.81-1.4 1.19-4.35-3.22-5.56-2.66-.22 3 0 6.06-.47 9-.57 2.15 5.37 1.62 4.08 3.82-2.19-.72-5.23-3.85-5.24.2-.47 3.22-3.41 6.52-1.12 9.58.88 2.48 3.7 3.54 5.81 4.8 2.49-.39 4.89-1.63 7.48-1.72 3.83-.6 7.72-.81 11.54-1.43 1.61-1.17 3.61-2.28 1.18-3.79-1.94-2.37-1.48-5.76-2.6-8.45 0-2.2-.45-3.15-2.38-1.57-1.52.3-3.87 3.53-4.73 1.52 2.27-1.1 4.32-2.52 6.61-3.58a75.61 75.61 0 01-.77-8.62c-1.81 1.17-4.48 3.59-6.22 3.26.71-1.62 4.17-2.33 5.64-4 1.07 0 .37-1.53.56-2.43l-.08-7.51a10.42 10.42 0 01-6.22 3.65c-1.88-1.65 2.88-1.06 3.5-2.46 1.14-1.29 3.25-2.09 2.68-4.11 0-2.21 0-4.43-.05-6.64-1.48 1-4.18 4.49-5.6 3 1.54-1.37 4.87-2.69 5.57-4.74l-.09-8.62a11.38 11.38 0 01-6.33 4.24c-1.26 1.4-3.83.16-1.27-.54s5-1.73 6.58-4c1.41-.75.94-2.1 1-3.49l-.13-6.02c-3 2.65-5.68 5.59-8.64 8.26-1.56-1.64 2.89-3.07 3.53-4.7 1.47-1.77 4-3.48 5.11-5l-.07-6.7c-1.14 1.05-3 2.39-.65 1.13 1 1.18-.79 1.3-1.56 1.81l-3.17 1.48c-1.1-2.07 3.57-3.09 4.5-4.91 1.27.31.8-.88.86-2.11 0-1.56 0-3.12-.05-4.67-1.56 2.84-4.67 1.19-7.15.67-1.83-.15-.11-.7.65-1.16l5.9-3.16c1.1 1.11-.72 1.33-1.46 1.87l-3.49 1.85c2.18 1.22 4.85.44 5.52-1.68 0-3.74-.1-7.42-.29-11.17-1.72 1.73-2.71 3.62-4.85 4.4 1-.47 5.13.13 2.36.86-1.6.32-6.91.52-3.19-1.51a10.11 10.11 0 004.34-3.73c1.44-.82 1.42-1.38 1.23-3.08q-.15-3.45-.29-6.91c-.88 1.08-4.59 4-3.64 4 1.11-.7 5.47-.91 2.88.35-1.66-.1-5.26 2.21-5.85.18 2.32-1.33 4-3.4 5.95-5.23 1.14.14.39-1.52.53-2.55q-.42-10.38-.83-20.75c-1.09 1-5.65 4.65-4 1 1.12-1.28 2.25-3.52 3.49-4 .81-.41.07-1.92.26-2.78.19-2.11-1.1-3.92-1.73-5.86-.05-.79-1.53-2.18-.27-2.42 1.38 1.17 2 4.35 3.15 6.23 1.69 3.93 3.63 7.77 5.13 11.78a49.66 49.66 0 011.82 10.11c.85-.31 2.43.2 2.37-1.12.2-1.3 1.14-2.64.32-3.89-3.72-10.12-7.95-20-11.88-30.07.93-1 1.24.35 1.6 1.13 2.29 4.56 3.78 9.47 5.69 14.2 1.93 5.13 4 10.23 6.3 15.19 3.58-2.09.62-5.82.11-8.85-1.67-5.55-3.94-10.9-5.88-16.36-.57-1-1.83-1.42-2.67-2.2l-3.71-2.73c1-1.91 3.25 1.45 4.8 1.61 2.67 2.81 3.32-1.51 5.69-2 .66 2.43-3.83 4.4-1.44 7.21 1.73 5.89 3.28 11.84 5.56 17.54l1.14 3.09c-.77 1.11.33 5.87 1.9 4.64.54-2.57 2.19-5.11.79-7.7-2-7.83-4.86-15.43-7.22-23.16 0-2.82 1.79 1.2 2 2.41 2.72 7.39 5.66 14.7 8.06 22.2-.51 2.2-.49 6.86 2.38 4.23.13-2.94.36-5.95-.86-8.72-2.49-6.62-4.47-13.43-6.68-20.15-1.26 1.38-3.64.06-4-1.46.42-3.34-2.33-3.24-4.82-3-1.09-.11 1.9-1.67 2.25-2.23 1.34-.74 4.21-3 1.45-3.61l-2.65-1.22a39.19 39.19 0 014.43-6.47c1.08-2 .26-5.49-1.83-6.68-1.51-.84-1.34-2.75-1.94-4.18-.79-.83 0-2.45.63-1.23.4 1.35.79 2.7 1.18 4a6 6 0 013.29 5.77c1 2.36-1.7 3.8-2.71 5.59-.61.87-1.11 1.82-1.68 2.72 1.27.6 2.56 1.14 3.82 1.77.26 2.39-3.86 4-3.56 4.78 4-1.07 1.57 4.5 4.59 5 1 0 1.92-1 2.89-1.46 1.73.33-.73 1.14-.32 1.91 3.22 8.78 6.54 17.56 9.6 26.36-.29 3.19 2.75 3.61 4.64 4.93.26 1.7 1.07 4.92 2.87 4.23.07-4.55.36-9.12.37-13.65.26-1.55-2.38-5.31-.22-5.5 1.22 3.56 2.82 7 3.66 10.68.58 2.38-.59 6.24 2.82 6.59 1.51.61.34-4.85 1.95-3.36l2.67 2.11c3.61.09.92-3.87 1-5.88-1.13-2.82-2.21-5.68-3.33-8.5 1.67-.7-.91.24-.42-1.56-.39-2.79-2.19-4.88-3.81-7.06-.69-1.48-.64-3.23-1.92-1.13-1.53 1.26-.86 3.34.21 4.67 1.74 2.7 1.57 6.25 3.74 8.69 1 1.57 2.24 3.15 1.91 5.09.08.9.15 2.68-1 1.82-.15-1.52.41-3.17-.54-4.37-1.15-2.27-2.8-3.68-3.26-6.22s-1.92-4.75-3-7.06c.24-.57-3.59.3-3.29-.89 1.06-.15.87-.62 2.67-.22a3.74 3.74 0 00.43-4.75c-1.8-4.05-4.58-7.59-6.61-11.51-.51-2.55.51-5.7-1.94-7.49-2.54-2.46-3.82-5.79-5.24-9-1.62-2.27-4.27-3.6-6.17-5.66-1 .32-4.91.44-3-.72 2.65-1.06 4.48.45 6.18 2.25 1.93 1.5 4 3.05 4.62 5.52a23.37 23.37 0 005 7.74c2 1.84 1 4.79 1.47 7.15 2.42 4.39 5.65 8.39 7.28 13.16-.35 2.09.57-.66 1.57-.42-.1-2.36.73-5.56-.8-7.76-1.6-3-3.46-5.83-4.9-8.87-1-2.16-2.24-4.87-3.36-7.23a50.62 50.62 0 00-4.5-7.65c1.61-1.69 2.45 3.16 3.7 4 2.82 5 4.58 10.47 7.66 15.3.9 2.12 2.8 4 3.2 6.24.31 1.35-.54 5.73.56 5.37l1.65-3.16c.87-.42 2.61-.16 2.82-1.11.3-2.95-2.67-5.1-3-8a40.35 40.35 0 00-4.38-11.19c-2.11-4.63-5.2-8.74-6.87-13.57-.44-2.82 1.84.78 1.89 2.1 1.62 3.69 4 7 5.66 10.68a43.3 43.3 0 014 9.31 27 27 0 003.5 8.68c.27 1.24 0 2.2 1 2.31.48 1.14-1.89.57-1 2.31.27 1.09-.28 5.22-1.1 2.87.07-1.94 1-5.08-1.78-3.6-.74.64-1 1.85-1.58 2.71-.47 1.16-2.21 1.08-1 2.73 1.55 2.31 3.62 4.36 4 7.24.33 2.56 2.46 4.3 3.75 6.51 1.4 1.44 3 5.83 4.43 5 .63-2.73-1.77-4.55-2.64-6.92-1.88-4-3.58-8.1-5.37-12.15 1.46 1.05 3.31 1.66 4.14 3.38 3.33 4.44 6.61 8.92 10 13.29 3.59 1.72 1.38-2.75.29-4.16-2.74-5.52-6.48-10.46-9.71-15.69-.71-.72-3-4.2-.85-3.13l11.06 13.66c1.25.85 3.5 1.56 2.75-.56-3.16-5.78-7.19-11-10.71-16.59-3.69-5.24-6.81-10.84-10.12-16.33 1.74-1.4 4 2.13 6 2.59a39.78 39.78 0 018.4 6.3c4.28 3.72 8.39 7.66 12.84 11.17 2.21 1.22 3.94 3.34 6.32 4.13 0-.8-2.43-3.81-1.39-3.79a40.78 40.78 0 017.16 2.89c1.55.76 6.38 2.58 4-.57-.77-1.58-4.44-2.43-3.84-4.14.68-.37 1.78.79 2.63 1a16.47 16.47 0 006.35 2c3.25-.14 1.21-3.53-1-3.56-5.05-2.68-10.05-5.45-15.08-8.18 1-2.11 4.45 1.24 6.42 1.13 1.14-.36 5.36.5 3.88-1.49-.62-.76-1.91-.79-2.81-1.25-6.88-2.49-13.77-5-20.65-7.47-2.93-2-5.91-3.89-8.86-5.83.45-1.81 3.41.52 4.88.33A29.31 29.31 0 00387 153c1.72.05 5.32.48 5.95.2-1.14-.62-6.16-2.07-3.29-2.85 1.44-.09 6-.18 2.1-.33-2.73-.28-5.58-.18-8.22-.91.33-.93 1.69-.56 3.46-.38zM308 257v-.46c1.45.88 5.15 1.1 5.06 2.75-1.06-.2-4.9-1.08-5.06-2.29zm13-44.6c-2.48 2 3-2 2.53 0-1 .74-4.83 3.12-6.14 1.8 1.64-1.86 4-3.08 5.51-5.15 2.27.02-1.26 2.32-1.9 3.31zm1.57-12.51h0c2.78.47-3.45 3.15-2.11 3.21.81-.59 2.56-.51 1.65.51l-4.05 1.25c-.98-2.25 3.45-3.32 4.5-5.01zm3.69-44.21c-.77 1.31-1.13 4.47-3.36 3.19 1.61 1.66-.22 5.13-2.21 4.54-.44-1.47-.47-3.19-.71-.68-.07 2.1-1.53 3.76-2.29 5.65-1.81 1-5.07 2.09-3.88-1.29a59.47 59.47 0 000-10.84c0-1.18.6-4.91 0-4.18-.83 1.69-1.63 3.41-2.46 5.1-1-1.55-.62-5.2-3.07-4.83-1.35-.27-1.83-1.88-2.17.31-.6.65-1.34 4.28-2.42 2.64-.26-2-.1-5.09-2.38-2.66-.42-1.62-.81-3.25-1.22-4.88 1.34-.81 1.1 1 1.46 1.87-.08 2.75 2.87.07 3.22-1.36l.62-1.28c2.34 1-1.9 3.28-1.21 4.81.11 1.6.29 2.73 1 .53.34-1 .66-2.08 1-3.1a4.47 4.47 0 004 2.45c.77 1.31 1.14 4.3 2 1.54a19 19 0 012.38-4.23c1.73 1-.24 4.51.26 6.31-.14 2.85.46 5.69.06 8.54.25 1.7-1.43 6 1.59 4 1-.5 1.18-2 1.82-2.89 1.15-2.24.72-5 1.48-7.33 2.24-.57.2 6.22 2.36 4.07.63-2.3-1.07-4.24-1.26-6.78v-4.51c1.5-.46.82 1.27 1 2.16a10.65 10.65 0 00.87 5.28c2.46 1.33 2.07-3.26 4-4.18 2.14-.85.94-5.31 3.1-4.83a11 11 0 01-3.59 6.82zm16.84 3.48c2.56 5.19 5.27 10.31 8 15.42 1.48 3.62 3.28 7.15 3.9 11.05-.59 1.85 3.78 4.36 1.65 4.84-2.36-1.83-2.6-4.75-3.25-7.44a75.15 75.15 0 00-6.21-13.75c-1.77-3.16-3.28-6.44-4.93-9.64zm-4.42 8.78c1.58.26 1.17 2.49 2.6 2.86 3.6.21-.39 5.32 3.31 4.57 1.77 1.4-.09 5 2.69 5.93 2.31 1.11 1.65 3.85 2.73 5.75.26 1.45 1.09 1.23 2.1.52.74-.5 2.24-1.27 2 .1l-3.91 1.94a17.83 17.83 0 01-2.19-6.36c-2-1.53-3.88-3.24-3.56-6 .49-2.15-3.6 0-2.52-2.66 1.41-2.75-1.75-2.39-2.41-4.24-.18-1.84-3-1.54-3.11-3.16.46-.81 1-1.53 1.49-2.33 2.4.21-2.27 2.75.77 3.04zm5.1-19.94c.5-2 2.26-4.44.77-6.72-.19-2.5-2.79-3.19-4.55-4.4l-4-1.41.33-.89c2.23.84 4.61 1.38 6.49 2.92 2.44.86 2.56 3.65 3.27 5.75.09 1.4-1.09 5.75-2.31 4.75zm11.87-17.72c-1.82.46-1-3.57-3.21-3.95-1-1.73-2.27-1.29-3.61-.33-1.07.57-2.17 1.11-3.22 1.72-1.79-2.45.19-4.43 2.77-4.72s4.05-2.6 6-4.07h.19c.47 1.89-2.38 2.75-3.55 4.22-1.48.55-6.76 1.85-4.48 3l4.5-2.38c1.96 1.82 4.84 3.77 4.61 6.55zm7.93-3.13c-1.64.79-3.3 3.23-4.76 3.21-1.62-.32 1.94-1.88 2.51-2.76 2.05-1.64 4.14-3.16 6.85-3.46.18 2.18-3.58 1.24-4.6 3.05zm49.23 19.45c-3.2.67-6.46-.22-9.69.18-2.57.92-4.69-1.26-6.54-1.74a7.45 7.45 0 01-4.46.88h-6.74c-.46-1.5 1.27-.82 2.17-1h6.74a17.38 17.38 0 012.95-1.08c1.92 2 4.68 2.37 7.45 1.92 3.26-.21 6.6.67 9.76-.54 2.75-.22-.2 1.59-1.64 1.42zm2.6-6.61c-.44 2-4.6.07-6.38.66a101.68 101.68 0 01-15.7-.93c-1 0-1.32-.13-1.16-1.1a92.53 92.53 0 0014.1 1c2.98.23 6.47-.07 9.14.38zm-31.31-4a14.71 14.71 0 007.83-.81c2.34-.43 4.82-.14 7.21-.4 4.52.19 9.09.39 13.59.82.5.53-.9.56-.7.84-5.83-.26-11.66-1-17.49-.49-2.74-.35-5.12 1.74-7.89 1.15-1.47.37-4.87-.42-2.55-1.03z" fill="none" stroke="#50d6cc" stroke-linecap="round" stroke-linejoin="round"/><path fill="none" stroke="#a3a3a3" stroke-linecap="round" stroke-linejoin="round" stroke-dasharray="5 5" d="M19.46 2.63H3.36v189.28M17.63 384.37H3.36V219.63"/><path d="M3.39 201.51a3 3 0 013.08 3 4.76 4.76 0 01-1.87 3.34 14.21 14.21 0 00-2.88 3.31h4.45a.23.23 0 00.18-.07.25.25 0 01.23-.08v1.19H.36v-.75a12.61 12.61 0 013.07-3.94c.77-.69 1.86-1.62 1.86-2.91a2 2 0 00-2-2 2.21 2.21 0 00-1.81 1c-.09.14 0 .25-.15.39l-.86-.69a3.44 3.44 0 012.92-1.79zM312.85 408.67a2.84 2.84 0 011.82 2.73 3.07 3.07 0 01-3.26 3.09 3.7 3.7 0 01-2.78-1.2l.89-1.07c.15.15.08.32.22.48a2.33 2.33 0 001.66.72 2.13 2.13 0 002.13-2.16c0-1.27-1-2-2.49-2h-.54v-.95a4.1 4.1 0 001.68-.27 1.86 1.86 0 001.13-1.67 1.73 1.73 0 00-1.85-1.65 2.52 2.52 0 00-1.82.82l-.66-.74a3.47 3.47 0 012.54-1.13 2.79 2.79 0 012.92 2.68 2.46 2.46 0 01-1.59 2.32z"/><path fill="none" stroke="#a3a3a3" stroke-linecap="round" stroke-linejoin="round" stroke-dasharray="5 5" d="M598.96 394.13v15.02H325.89M27.96 394.13v15.02h268.26"/></svg>