<svg xmlns="http://www.w3.org/2000/svg" width="268" height="300" viewBox="0 0 268 300"><path d="M80.4 162.08l-.06-.05a5.68 5.68 0 00-4.49-5.34c-1.23-.3-1.75-.11-2 .87l-.74 2.93c1.93.45 3.5.39 4.51-1.33l-1.39 5.55v.07c0-2-1.42-2.87-3.35-3.37l-1.34 5.54c-.24 1 .09 1.41 1.34 1.71a6.14 6.14 0 006.93-2.88l-1.4 5.22-12.74-3.16h-.08c1.5.37 2.54-1.55 2.79-2.56l2.15-8.57a2 2 0 00-1.46-2.58v-.06l12.42 3.08-1.1 5M88.75 173.1l.16-.78c1.39.26 1.66.14 1.73-.17a1.91 1.91 0 00-.22-1.13l-1.26-3.4-2.6 2.56a1.83 1.83 0 00-.56.82c-.09.47.3.8 1.66 1.06l-.14.83-5.75-1.11h-.06c1.15.11 2.48-1 3.36-1.84l3.68-3.42-2.17-5.79c-.32-.85-.64-2.7-1.79-2.89l7 1.33a1.36 1.36 0 00-1.79 1.15 2 2 0 00.16.91l1 2.94 2.28-2.23a1.71 1.71 0 00.57-.84 1.6 1.6 0 00-1.22-1.71h.05l5.41 1c-1.64-.22-2.37.92-3.53 2l-3 2.76 2.55 6.89c.3.79.68 2.06 1.79 2.39H96l-7.16-1.38M112.87 167.56h-.07c-.71-3-2.42-4.83-4.81-5.12s-3.93 1.86-4.45 5.89c-.51 4.19.61 6.56 3.41 6.89a4.74 4.74 0 005.52-4.22l.42.06c-.45 3.58-2.76 5.51-6.5 5-4.85-.61-7.11-4.31-6.61-8.25a7.42 7.42 0 018.11-6.4 8.32 8.32 0 013.89 1.71l1.75-.64-.63 5M129 168.45v.05a5.91 5.91 0 00-5.53-4.47c-1.28-.06-1.73.21-1.79 1.21l-.08 3.08c2 .08 3.55-.4 4.2-2.31v.08l-.28 5.76c-.45-2-1.94-2.52-3.91-2.62l-.34 5.68c0 1 .37 1.34 1.64 1.42a6.21 6.21 0 006.29-4.17l-.38 5.41-13.12-.66a2 2 0 002.14-2.06l.49-9.83c0-1-.33-2.25-1.86-2.33h-.06l12.79.62-.12 5.08M132.48 177.64a1.93 1.93 0 001.94-2.23l-.26-9.83c0-1-.48-2.17-2-2.13h-.07l7.53-.2a2 2 0 00-2 2.24l.27 9.81c0 1 .4 1.27 1.44 1.23 2.07-.05 4.52-2.24 5-4.61v5.45l-11.94.32M147.56 171.63c.79 2.19 3.28 4.42 5.9 4.15 1.4-.14 2.56-.91 2.39-2.63-.3-3-8.17-1.14-8.65-5.88a4.54 4.54 0 014.32-5.13c2.23-.22 3.09.78 3.65.73a2.7 2.7 0 001.57-1l.51 4.89c-.81-2.16-3.16-3.92-5.31-3.71a2.17 2.17 0 00-2.17 2.33c.33 3.2 8.25.8 8.81 6.12a4.9 4.9 0 01-4.59 5.2c-2.54.27-3.62-.72-4.28-.66a3.42 3.42 0 00-1.55 1h-.06l-.55-5.42M162.53 175.43a2 2 0 001.68-2.48l-1.61-9.73a2 2 0 00-2.38-1.83l7.43-1.23a1.93 1.93 0 00-1.61 2.47l1.6 9.73a1.94 1.94 0 002.32 1.83l-7.43 1.2M177 157.9a7.37 7.37 0 11-5.4 8.81 7.48 7.48 0 015.4-8.81zm3.12 13.44c2.36-.55 2.74-3.14 1.84-7s-2.39-6-4.74-5.47-2.73 3.13-1.83 7 2.37 6 4.72 5.48M202.08 166.15c-.87.29-1.29.46-1.29.46-2 .61-3.13-.23-4-2.5s-1.15-3-3.38-2.63l1.27 4.14c.34 1.12 1 2.29 2.66 1.74l-7 2.14a1.94 1.94 0 001.27-2.69l-2.88-9.43a1.93 1.93 0 00-2.55-1.48l6.94-2.1c3.36-1 5.47-.21 6.17 2.08.79 2.6-1.59 4-3.79 4.74v.06a3.77 3.77 0 014.32 1.9c1.21 1.75 1.5 2.56 2 2.43 1.94-.6 2.19.46.3 1.11zm-8.87-5.4c2.12-.77 3.35-1.52 2.64-3.78-.49-1.64-1.66-2.49-3-2.1a1.16 1.16 0 00-.92 1.59l1.31 4.29"/><path d="M13.58 153.2c-2.59-4.73-.89-7.79 17.21-8.21M23 155.31c6.47-.41 9.91-6.21 14.23.69m14.25-9.64c3.45-6.05 3.76-11 10.66-8 7.51 2.74 20.85 8.85 25.68-8.06m-32.51 8.91c-2.6 6.91-7.53 6.89 26.54 12.48m52.17 28.88c69.86 0 89.09-18.74 89.09-18.74l-6.91-12.09 20.94-3.44s-.87 3.9-5.17 9.07.43 6 11.21 6.46l1.72-5.16c7.76 1.71 8.61-.44 11.21-5.2s6.9-15.09 10.77-21.11c-12.08-6.9-55-9.36-65.58-9.81s-24.59-.77-21.57 8.28 6.9 23.5 6.9 23.5-27.14 6.67-52.14 6.67h-.87c-25 0-51.74-7.21-51.74-7.21s3.44-13.81 6.45-22.84c2.31-6.9-6.91-9.06-15.26-9.52 0 0-55.15 1.07-72 9.65 3.88 6 8.2 16.38 10.78 21.11s3.44 6.91 11.2 5.17l1.73 5.19c10.77-.42 15.52-1.29 11.2-6.46S30.8 145 30.8 145l20.72 1.39-6.9 12.09s19.59 22.17 89.44 22.17M254.12 155c2.59-4.73 1.17-8.19-16.94-8.62m7.76 10.36c-6.48-.41-10.17-5.41-14.49 1.49m-14.21-8.42c-3.44-6-3.88-12.08-10.77-9.06s-20.21 6.52-25.43-11m31.46 11.45c2.59 6.91 8.6 3.27-24.83 11.24" fill="none" stroke="#000" stroke-linecap="round" stroke-linejoin="round" stroke-width="1.5"/></svg>