<svg xmlns="http://www.w3.org/2000/svg" width="600" height="400" viewBox="0 0 600 400"><path fill="#008457" d="M0 0h600v400H0z"/><path d="M421.7 200c0 66.67-54.72 121-121.38 121s-122-54-122-120.71 55.31-120.71 122-120.71S421.7 133.33 421.7 200z" fill="#ffd520"/><path d="M372.49 200.37c0 39-33.17 70.06-72.17 70.06s-71.63-31.62-71.63-70.63 32.62-70.62 71.63-70.62 72.17 32.18 72.17 71.19z" fill="#34c2de"/><path fill="#fdd6c6" d="M329.83 159.7l-8.46-9.54-10.07-7.49-28.13 7.68-6.22 39.31 7.5 23.35 42.14 12.03-4.76-14.48 9.65-7.86 6.72-18.24-8.37-24.76z"/><path d="M335.82 233.25c-1.47-2.52-6.92-15.91-11.88-18.94a8.47 8.47 0 00.15-2.45c-.09-1-1.26-2-2.26-1.3-2.07 1.53-2.91 3.72-4.63 5.35-3.8 3.59-10.63 1-14.66-.64a96 96 0 01-11.73-5.43c-3-1.71-4.79-4.67-8.16-5.51a1.43 1.43 0 00-1.7.82 1.39 1.39 0 00-.52 1.52 54.71 54.71 0 009.21 19.45c4.23 5.66 9.35 10.63 13.33 16.48 3.51 5.17 5.12 11.52 11.23 14.29 5.31 2.41 10.64.91 15.53-1.72 3.27-1.76 6.82-3.4 10-5.25a5.42 5.42 0 002.77-2.63c2.23-5.09-4.5-10.29-6.68-14.04zM344.8 181.42a1 1 0 00-.18-.41 7.15 7.15 0 00-.78-3.71 15.07 15.07 0 00-3.14-3.57 8.91 8.91 0 01-2-2.24c-.23-.56.32-1.35.08-2-1.17-2.9-3.7-4.32-6.14-6.15-1-.76-2 .1-2.14 1.1a1.24 1.24 0 00-.59 1.61 42.56 42.56 0 012.77 15.71c0 2.11-1 6.19.57 7.91a2.71 2.71 0 001 .73l-.2.15c-1.39 1.13.38 3.07 1.82 2.36a17 17 0 004.26-3.15c2.87-2.12 5.36-4.59 4.67-8.34z" fill="#fff"/><path d="M302.75 322c-.16-.08-.33-.23-.49-.23h-5.55c-3.07-.11-6.25.13-9.16-.62-2.33-.6-4.66-.46-6.94-1-1.76-.44-3.59-.63-5.34-1.09-5.08-1.33-10.11-2.85-15.21-4.06-4.5-1.07-8.6-3.08-12.76-4.95-2.79-1.25-5.46-2.76-8.2-4.15a12.7 12.7 0 01-1.2-.51 12 12 0 01-1.2-1c-.16 0-.53.22-.74.11a22.24 22.24 0 01-2.1-1.37c-2.13-1.52-4.29-3-6.38-4.59-.91-.68-1.68-1.56-2.54-2.33-1.17-1-2.39-2-3.56-3.08-1.42-1.3-2.79-2.66-4.21-3.95a42.13 42.13 0 01-6.1-6.28c-.69-.95-1.88-1.5-2.73-2.35s-1.57-1.93-2.4-2.86c-.7-.78-1.55-1.44-2.21-2.25-.86-1.05-1.6-2.19-2.38-3.31-2.08-3-4.2-5.92-6.22-8.94-1.58-2.35-3.11-4.74-4.49-7.2a41.77 41.77 0 01-1.72-4.32c-.64-1.52-1.39-3-2-4.53-.86-2.06-1.75-4.11-2.47-6.21-1.11-3.19-2.15-6.4-3.08-9.64-.6-2.06-.88-4.21-1.41-6.29-.39-1.54-1.09-3-1.4-4.56a31.43 31.43 0 01-.52-5c-.14-3.12-.19-6.24-.27-9.37q-.12-4.92-.25-9.86a1.94 1.94 0 00-.24-.61v-5.88a2.91 2.91 0 00.24-.74c.18-2.74.26-5.48.53-8.21.13-1.26.72-2.47.9-3.73.11-.83.84-1.62.2-2.56-.13-.19.45-.76.43-1.14-.09-1.81.93-3.34 1.17-5a30 30 0 01.65-3.4c.47-1.81 1.11-3.58 1.67-5.37.2-.64.36-1.29.57-1.93a16.26 16.26 0 011.33-3.74 32.57 32.57 0 002.17-4.88c.56-1.21 1.48-2.24 2.07-3.44.69-1.37 1.11-2.88 1.8-4.25a32.13 32.13 0 012.27-3.65c.78-1.14 1.67-2.19 2.45-3.32.15-.23 0-.65 0-.69.86-1.28 1.58-2.42 2.38-3.51.93-1.26 1.94-2.46 2.89-3.7 1.19-1.56 2.62-3 3.2-4.94a1.57 1.57 0 01.48-.67c1.91-1.77 3.85-3.5 5.75-5.28 1.16-1.09 2.26-2.26 3.38-3.39s2-2.06 3.08-3.06c1.26-1.22 2.5-2.48 3.86-3.59 1.82-1.48 3.75-2.83 5.64-4.22s3.54-2.73 5.43-3.91c2.58-1.61 5.24-3.1 7.92-4.54s5.56-2.94 8.43-4.23c2-.88 4.08-1.4 6.1-2.18 1.44-.56 2.8-1.33 4.23-1.91a23.12 23.12 0 012.62-.75c.38-.11.77-.19 1.15-.3a25.67 25.67 0 004.84-1.49c1.41-.74 2.86-.64 4.29-.9 2.12-.38 4.27-.66 6.4-1 3.63-.55 7.26-1.13 10.9-1.64a31.09 31.09 0 014-.31c3.32 0 6.64-.1 10 0 3.13.12 6.26.46 9.39.72a38.87 38.87 0 015.73.53c3.09.71 6.12 1.69 9.14 2.65.78.25 1.28.29 1.56-.32 1.88.36 3.68.67 5.46 1a18.84 18.84 0 012 .72c2.13.74 4.27 1.44 6.39 2.21 1.15.42 2.26.93 3.39 1.41l4.7 2c1.37.59 3 .92 4.08 1.83 1.95 1.58 4.63 1.78 6.36 3.71a5.1 5.1 0 001.63.93c4 1.91 7.47 4.6 11 7.17 2.76 2 5.3 4.33 7.86 6.58 2.34 2.06 4.69 4.13 6.84 6.38a104.55 104.55 0 019.36 11.18c1.95 2.7 4.07 5.28 5.79 8.15 1.61 2.69 3.31 5.34 4.87 8.07a50.3 50.3 0 012.5 5.11 71.88 71.88 0 012.75 7.19 38 38 0 002.76 7.22 38.34 38.34 0 012.5 6.07c.5 1.51.67 3.13 1 4.69.22 1 .54 1.91.72 2.89.52 2.78 1.06 5.56 1.43 8.36a33.88 33.88 0 01-.1 3.62c0 1 .25 2 .32 3 .08 1.14.08 2.29.13 3.43s.14 2.42.18 3.62c.1 2.6.05 5.21.28 7.79.36 3.94-.37 7.75-1 11.59-.09.56.12 1.19 0 1.74-.6 2.83-.77 5.73-1.83 8.49-.67 1.76-.72 3.74-1.15 5.6-.31 1.3-.93 2.54-1.17 3.85-.38 2-.54 4.1-1.5 6-.77 1.52-1.57 3-2.32 4.57-.88 1.81-1.69 3.66-2.58 5.47-1.09 2.2-2.18 4.41-3.38 6.56-1.07 1.95-2.21 3.87-3.46 5.71-1.62 2.39-3.36 4.69-5.08 7-1.32 1.78-2.72 3.51-4 5.29a45 45 0 01-6.45 7.13c-1.29 1.14-2.46 2.41-3.76 3.54-2.48 2.14-5 4.27-7.52 6.32s-4.87 3.77-7.34 5.6a30.91 30.91 0 01-2.77 1.68c-2.21 1.31-4.41 2.64-6.65 3.91a31.66 31.66 0 01-5.75 3.09c-3.42 1.11-6.47 3-9.86 4.15-1.61.54-3.18 1.18-4.78 1.76-.41.14-.86.16-1.27.3-1 .36-2.56-.26-2.92 1.47 0 .11-.45.26-.63.2-2-.67-3.63.66-5.47.83-.31 0-.58.66-.82 1-.63-.07-1.38-.41-1.83-.18-2.58 1.33-5.45 1.08-8.17 1.52-4.51.73-9.11.9-13.67 1.33a3.56 3.56 0 00-1 .47zM283.6 80.66v-.11a13.36 13.36 0 01-1.71.51c-2.42.36-4.87.55-7.26 1-3.7.78-7.39 1.67-11 2.71a74.15 74.15 0 00-8.63 2.99 110.53 110.53 0 00-16 7.81c-3 1.89-6.11 3.68-9.09 5.65a112.36 112.36 0 00-16.84 14.17c-1.79 1.77-3.43 3.67-5.09 5.56-1.43 1.63-2.91 3.24-4.19 5-2.09 2.89-4.11 5.84-6 8.86a88.57 88.57 0 00-5.72 9.88c-2 4.43-4.27 8.78-5.56 13.54-1.21 4.43-2.83 8.74-4 13.18-.7 2.61-.65 5.43-1.38 8a34.51 34.51 0 00-1.36 8.41c0 .9 0 1.81-.09 2.7-.17 1.72-.53 3.42-.61 5.13s.17 3.31.2 5c0 .68-.28 1.37-.2 2 .24 2.2.53 4.39.89 6.57.28 1.64.82 3.25 1 4.9.34 3 .49 6 .78 9.05a12.11 12.11 0 00.59 2.07c.13.41.27.82.37 1.23.19.86.29 1.74.54 2.58.85 2.87 1.71 5.74 2.64 8.58a67.76 67.76 0 002.47 6.88c1.13 2.5 2.61 4.84 3.83 7.31 1.32 2.65 2.31 5.5 3.83 8 1.82 3 3.36 6.17 5.58 8.93 1.23 1.53 2.29 3.19 3.54 4.71 2 2.44 4.13 4.82 6.22 7.21a41.92 41.92 0 003 3.15c1.89 1.76 3.87 3.43 5.81 5.13a83.56 83.56 0 006.46 5.62c3.8 2.7 7.4 5.71 11.61 7.82 2.56 1.28 5 2.82 7.56 4.12 2.23 1.13 4.54 2.12 6.85 3.08 2.78 1.16 5.55 2.32 8.39 3.3 2.4.84 4.89 1.44 7.35 2.14s4.59 1.44 6.94 1.89c3.38.64 6.81 1.13 10.24 1.49 4.68.49 9.38.92 14.08 1.14 2.69.12 5.4-.25 8.1-.39 1.06-.06 2.12-.05 3.17-.18 1.66-.22 3.33-.83 5-.74 4.2.23 8.06-1.31 12.07-2a68.74 68.74 0 006.79-1.93c1.87-.56 3.76-1.05 5.6-1.71 2.29-.82 4.53-1.76 6.78-2.7s4.37-1.79 6.49-2.82c1.83-.9 3.56-2 5.33-3 2.8-1.6 5.63-3.14 8.38-4.82 1.33-.81 2.4-2.07 3.76-2.79 3.59-1.88 6.44-4.68 9.47-7.25 1.5-1.27 3-2.59 4.4-3.92s3-2.69 4.38-4.15 2.83-3.2 4.17-4.87c2.45-3.07 5-6 7.22-9.29 2.79-4.16 5.27-8.53 7.81-12.86a53.34 53.34 0 002.67-5.35c1.19-2.71 2.33-5.43 3.35-8.2.6-1.64.92-3.38 1.38-5.08.67-2.5 1.47-5 2-7.51.69-3.29 1.23-6.61 1.74-9.94.4-2.66.75-5.33 1-8s.18-5.25.27-7.87a11.68 11.68 0 00.2-1.3c-.21-3-.43-6-.7-9-.3-3.33-.48-6.68-1-10s-1.48-6.69-2.39-10c-1-3.5-2.05-7-3.21-10.41-.93-2.75-2-5.45-3.1-8.14q-1.11-2.73-2.44-5.36c-1.31-2.61-2.6-5.25-4.13-7.74-2.11-3.43-4.33-6.81-6.72-10-2.63-3.56-5.39-7-8.31-10.36-2.29-2.62-4.84-5-7.38-7.41-2-1.86-4.1-3.59-6.23-5.28-2.29-1.83-4.61-3.63-7-5.29-2.85-1.94-5.75-3.84-8.75-5.52a125.77 125.77 0 00-10.32-5.17c-3.18-1.41-6.48-2.56-9.76-3.73-3-1.07-6-2.09-9.1-3-2.75-.82-5.54-1.5-8.33-2.13-1.57-.36-3.21-.39-4.76-.77a44.34 44.34 0 00-9.58-1.22c-1.57 0-3.14-.2-4.72-.25-3-.09-5.95-.29-8.92-.19-3.7.09-7.21.48-10.72.75z"/><path d="M315.2 143.91c-.23-.07-.45-.16-.68-.24a1.47 1.47 0 00-.37-.13c-5.22-2-9.31-5.68-15.07-5.77-6.6-.1-9.42 4.62-15.05 7.08-2.71 1.18-5.34 2-7.65 3.92a36.06 36.06 0 00-5.34 6.46c-1.38 1.88-3.87 4.21-4.51 6.43-.77 2.65 1.08 4.26.85 6.72l-.18.19a7.26 7.26 0 00-1.78 3c-.14.88.5 1.84.27 2.62-.33 1.14-2.67 2.64-3.45 3.7a9.93 9.93 0 00-2 4 1.59 1.59 0 00.69 1.69c.9.67 1 .47 2 .74a5 5 0 012.23.46c.49 2.6 1.78 4 3.85 4.17a1.5 1.5 0 000 3c2.12 0 .07 2.7 0 4.22a1.51 1.51 0 001.9 1.44l2.85 1.09a1.52 1.52 0 002.05.53s3.05 10.76 3.61 11.87c.69 1.37 2.78.67 2.8-.76 0-.66-.07-7.66.36-10.8l2.27-.8a1.55 1.55 0 00.9-2.21c-2-4.57 2.7-7.31-.57-10.91-.78-.87-1.79-1.39-1.83-2.66s1-3 1.46-4.18a24.59 24.59 0 001.82-7.26c.26-5.84 1.52-13.54 4.63-18.64 4.8-7.85 14.38-6.45 22.3-6.43l.86.31c1.83.65 2.58-2.25.78-2.85z" fill="#fff"/><path d="M291.16 82.41c4.49 0 9-.11 13.49 0 2.78.09 5.56.59 8.34.89 2.37.27 4.74.45 7.09.81a55.53 55.53 0 015.92 1.25c3.17.82 6.38 1.58 9.46 2.65 5.51 1.93 11 3.79 16.19 6.61 3.86 2.11 7.67 4.31 11.47 6.53 2.07 1.21 4.15 2.43 6.09 3.83s3.88 3.08 5.78 4.68 4 3.29 5.87 5.07c1.44 1.37 2.66 2.94 4 4.43.11.12.18.3.31.35 2.39 1.09 3.59 3.41 5.24 5.23a87.73 87.73 0 016.05 7.66c1.52 2.1 2.82 4.37 4.18 6.59s2.6 4.14 3.73 6.29q2.16 4.08 4 8.32c1.33 3 2.66 6 3.69 9.13 1.48 4.47 2.85 9 4 13.58a78.71 78.71 0 011.54 10.17c.52 5 .91 9.92 1.19 14.88.1 1.75-.41 3.53-.4 5.29a56.4 56.4 0 01-1 11.24c-.51 2.59-.67 5.26-1.31 7.81-1 3.94-2.21 7.83-3.41 11.72-.64 2.09-1.42 4.14-2.17 6.19a32.62 32.62 0 01-1.54 3.88c-1.75 3.42-3.48 6.86-5.44 10.15-2.12 3.58-4.4 7.08-6.8 10.47s-5.14 7-7.92 10.33a76.81 76.81 0 01-5.62 5.5c-.67.64-1.32 1.29-2 1.93A93.2 93.2 0 01365 298.29c-2 1.23-4 2.54-6 3.69s-4.38 2.38-6.66 3.37c-4 1.75-8.08 3.49-12.22 5-3.71 1.32-7.54 2.36-11.35 3.4-3 .82-6 1.59-9.08 2.14-2.49.45-5 .53-7.56.8-1.41.14-2.81.37-4.22.47-1.11.08-2.24 0-3.36 0-1.53 0-3.07.27-4.59.2-3.35-.15-6.69-.36-10-.68-3.57-.34-7.14-.72-10.68-1.29-2.6-.41-5.15-1.13-7.72-1.75-2.21-.54-4.45-1-6.61-1.74q-5.16-1.74-10.21-3.78c-2.86-1.16-5.69-2.41-8.42-3.83-2.95-1.53-5.86-3.18-8.65-5-3.73-2.41-7.4-4.91-11-7.56-2.74-2-5.33-4.31-7.86-6.62-2.35-2.14-4.6-4.4-6.75-6.74s-4-4.67-6-7c-.51-.59-1.29-1-1.71-1.61-2.8-4.24-5.63-8.47-8.26-12.82a100 100 0 01-4.8-9.11c-1-2.17-1.72-4.5-2.6-6.74-1-2.4-2.06-4.73-2.88-7.17a57.11 57.11 0 01-1.27-5.69c-.33-1.44-.68-2.87-1-4.3-.17-.7-.34-1.39-.45-2.09q-.84-5.52-1.66-11c-.24-1.63-.55-3.25-.71-4.89-.08-.83.23-1.71.14-2.54-.48-4.57.49-9 .76-13.56.18-2.91.46-5.81.74-8.71a19.43 19.43 0 01.51-2.59c.53-2.18 1.15-4.34 1.63-6.53s.76-4.59 1.33-6.84a29.27 29.27 0 011.65-4.24c1.09-2.63 1.46-5.51 3-8 1.32-2.16 2.31-4.53 3.43-6.82a25.48 25.48 0 012-4c1.53-2.06 2.41-4.48 4-6.56 1.33-1.74 2.51-3.72 3.73-5.6a73.85 73.85 0 015.54-6.86c1.57-1.87 3.12-3.76 4.82-5.52a70 70 0 015.91-5.65c3.44-2.83 6.94-5.59 10.58-8.15a111 111 0 0112-7.73 144.55 144.55 0 0115.11-6.7 98.66 98.66 0 0110.88-3.24c3.32-.88 6.68-1.61 10-2.29 2.09-.42 4.21-.64 6.32-.89s4.25-.43 6.37-.64zm-5.42 11.37v-.08l-2.24.3c-2.12.35-4.26.61-6.36 1.08-2.76.61-5.53 1.26-8.22 2.12-4.15 1.31-8.29 2.69-12.33 4.3-2.52 1-4.81 2.55-7.28 3.67a49.8 49.8 0 00-9.52 5.63c-2 1.5-4.14 2.76-6.14 4.22a97.4 97.4 0 00-12.07 10.7c-2.2 2.25-4.19 4.71-6.19 7.13a78.36 78.36 0 00-7.74 11.15c-1.72 3-3.39 6.06-4.86 9.2a96.23 96.23 0 00-4.58 11c-1.46 4.47-2.55 9.08-3.57 13.67a100.12 100.12 0 00-1.85 11.13 114.21 114.21 0 00-.51 11.41c0 2.91.26 5.83.46 8.74.08 1.11.35 2.21.47 3.33.28 2.4.35 4.83.81 7.19.53 2.73 1.35 5.42 2.13 8.1.58 1.95 1.29 3.86 2 5.79s1.39 4.07 2.17 6.07c.5 1.27 1.25 2.45 1.74 3.72a33.17 33.17 0 003.54 7.65 54.12 54.12 0 013.45 5.22 58.74 58.74 0 007.14 10c1.34 1.57 2.73 3.1 4.11 4.64 1.55 1.71 3 3.48 4.69 5.09a62.58 62.58 0 004.87 4.17c3.27 2.6 6.53 5.23 9.91 7.68a77.11 77.11 0 007.33 4.61 80.57 80.57 0 008.66 4.47c4.05 1.68 8.23 3.11 12.41 4.47 3.18 1 6.44 1.86 9.69 2.65 1.71.41 3.51.44 5.23.84a62.71 62.71 0 0012.21 1.34c3.73.11 7.47 0 11.2-.19a75.51 75.51 0 009-.78c4.7-.76 9.39-1.64 14-2.8a75.4 75.4 0 0010.5-3.55c4.21-1.75 8.3-3.81 12.42-5.79a44.15 44.15 0 004.65-2.5c2.32-1.48 4.57-3.08 6.81-4.67q2.65-1.89 5.21-3.9c1.19-.94 2.3-2 3.43-3 1.81-1.62 3.62-3.23 5.39-4.9.88-.83 1.66-1.76 2.48-2.66a70.52 70.52 0 005.08-5.73 27.24 27.24 0 012.55-3.75 7.18 7.18 0 001-1.22c.79-1.21 1.5-2.48 2.34-3.64a22.36 22.36 0 002.07-3.28c1.5-3 3.25-6 4.75-9 1.23-2.5 2.35-5.07 3.33-7.69s1.71-5.13 2.45-7.74c.65-2.3 1.25-4.62 1.69-7s.47-5 1.07-7.38c.77-3.07.71-6.18.87-9.28.16-3.29.09-6.6 0-9.89 0-2-.28-4-.48-6-.09-.87-.32-1.73-.47-2.6-.53-3.19-1-6.41-1.62-9.58a51.89 51.89 0 00-1.71-6.36c-1.34-4-2.74-8-4.27-11.93a71 71 0 00-3.25-6.83q-2-3.93-4.31-7.76c-1.67-2.83-3.7-5.43-5.53-8.17a49.58 49.58 0 00-5.2-6.45 135.25 135.25 0 00-9.79-9.52c-4.2-3.57-8.67-6.84-13.09-10.15a43.13 43.13 0 00-4.63-2.8 105.32 105.32 0 00-14.19-7c-4.14-1.59-8.36-3-12.63-4.2a98.41 98.41 0 00-10.12-2c-2.22-.37-4.47-.53-6.71-.77s-4.47-.6-6.71-.69c-2.91-.12-5.82 0-8.74 0-1.08 0-2.18.09-3.26.19-1.7.19-3.42.39-5.14.56zM197.15 148c1.85-.7 3.53-1.42 5.26-2a4.76 4.76 0 003.19-3.93 2.76 2.76 0 01.65-1.53c.47-.56 1.15-.92 1.65-1.45.22-.23.23-.67.33-1-.4-.08-.88-.34-1.21-.22-1.87.71-3.73 1.45-5.54 2.31-.55.26-.91.91-1.36 1.38l.27.26a31.44 31.44 0 013.05-.94c.37-.08 1.14.23 1.18.46.09.49 0 1.32-.33 1.52a9.06 9.06 0 01-3 1.25 4.71 4.71 0 00-4.14 3.89zm212.21 64.71c2.87-3.66 6-7.16 5.92-12.26a23.65 23.65 0 00-5 5.84c-1.28 1.95-.48 4.28-.92 6.44zm.73-44.71c-.15.73-.27 1.23-.37 1.73a77.1 77.1 0 01-1.55 7.61 6 6 0 000 4 10.78 10.78 0 01.31 1.62h.39a12.52 12.52 0 001-2.11c.54-2 1.07-4.09 1.43-6.16a9.35 9.35 0 00-1.21-6.69zm-58.47-63.8a2.56 2.56 0 00-.12-.83c-.95-1.48-1.89-3-2.92-4.4-1.55-2.13-3.05-4.36-5.89-5a4.78 4.78 0 00-.76 0 2.36 2.36 0 000 .84 3.62 3.62 0 00.69.93 21.06 21.06 0 012.46 2.82 13.35 13.35 0 006.54 5.64zm60.62 72.74a18.7 18.7 0 01-2.71 8.31c-1.12 1.93-.37 4-.11 6.12 2.58-2 4.74-12.68 2.82-14.43zm-227.42 18.52l.38.09c.19-.45.35-.92.56-1.36a16.73 16.73 0 011.27-2.41c.86-1.19 1.93-2.23 2.75-3.44a5.89 5.89 0 00.66-4.4c-2.18 1.81-4.44 3.11-5.06 5.79a19.09 19.09 0 00-.56 5.73zm62.05-97.7l.13.24a47.63 47.63 0 015.37 1 5.39 5.39 0 004.48-.26 12.29 12.29 0 012.16-.76c-2.56-1.31-5.09-2.37-7.8-2a19.94 19.94 0 00-4.34 1.78zm122.81 193.16l-.07-.34c-2.09-.12-4.18-.26-6.26-.33a5.2 5.2 0 00-2.38.2c-1.66.81-3.21 1.85-5 2.94 5.03.61 9.39-.81 13.71-2.47zm-16.82 10.33v-.38a5.83 5.83 0 00-1-.35c-1.54-.3-3.22-.26-4.58-.9-2.71-1.29-4.6.5-6.81 1.34 1.63.55 3.16 1.27 4.93 1.15a18.46 18.46 0 013.05.2 7.5 7.5 0 004.41-1.06zm-5-3.73a2.4 2.4 0 00.59.38c3.44.94 6.87.29 10.29-.14.7-.09 1.33-.73 2-1.11l-.11-.39-1.36-.15-4-.39c-1-.1-2-.51-2.85-.26a37.72 37.72 0 00-4.55 2.06zm23.95-185.82a44.38 44.38 0 011.61 6.45c.25 2.4 2.28 3.08 3.52 4.84.47-4.55-2.61-11.15-5.13-11.29zM185.5 212.83c1.36-2.47 2.63-4.79 3.89-7.11a2.66 2.66 0 00.26-1c.1-1.43.16-2.87.21-4.3 0-.14-.23-.28-.36-.44-.15.12-.28.18-.33.27-1.28 2.48-2.56 5-3.82 7.46a2.17 2.17 0 00-.19 1c.08 1.29.21 2.63.34 4.12zM376 278.92a9.56 9.56 0 002.12-.23c2.78-1 5.57-2 8.26-3.18a9.87 9.87 0 002.31-2.1l-.34-.51c-1.71.61-3.39 1.3-5.13 1.83a30.22 30.22 0 01-3.18.59 2.08 2.08 0 00-1 .32c-1.04.96-1.89 1.98-3.04 3.28zm-189-57.57c1.49-2.24 1.29-4.86 3.17-6.52a.91.91 0 00.19-.66c-.12-1.85-.26-3.7-.4-5.55-1.31 2.41-2.39 4.78-3.46 7.16-.84 1.9.1 3.58.5 5.57zM365.5 106.8c.53 1.65 1.06 3.19 1.53 4.75.25.84.14 1.9.62 2.53a44.42 44.42 0 003.55 3.72c-.14-4.9-2.73-10.37-5.7-11zm47.62 115.25a11.08 11.08 0 00-1 .86c-1.45 1.5-2.8 3.1-4.33 4.51a7.75 7.75 0 00-2.38 5.23 7 7 0 001-.55 27.38 27.38 0 005.69-6.1c.76-1.2 1.47-2.26 1.02-3.95zm-188.91 57.28a44.25 44.25 0 001.45 7 5.72 5.72 0 003.58 3.4 4.72 4.72 0 000-.87c-.31-1.55-.67-3.09-1-4.65a6.06 6.06 0 00-4.03-4.88zm184.17-59.4l.36.11c1.34-1.75 2.77-3.43 4-5.26a32 32 0 002.32-4.42c.17-.36-.05-.9-.09-1.36l-.44-.06c-.63.79-1.25 1.59-1.89 2.37-.83 1-1.7 2-2.5 3a9.55 9.55 0 00-1.36 2.12 11.88 11.88 0 00-.64 2.58c-.05.3.15.62.24.92zm-178.56 64c.62 2.37 1.23 4.68 1.83 7 .29 1.12 2.61 2.84 3.75 2.72a5.06 5.06 0 00-.09-.68c-.37-1.35-.86-2.67-1.09-4a7.13 7.13 0 00-4.4-5.06zm-34.45-50h-.58c-.11.65-.27 1.29-.34 1.94a35.11 35.11 0 01-.55 5.16c-.58 2.14.54 3.74 1.13 5.85a7.17 7.17 0 00.48-1.16c.2-1.06.32-2.13.53-3.19a17 17 0 01.56-1.8 4.24 4.24 0 00-.32-3.63 13.21 13.21 0 01-.91-3.1zm-2.66-8.19c-2.24 4.23-2.6 11.36-.55 13.62.17-.75.36-1.34.43-1.94a37.27 37.27 0 01.64-5.21 9.46 9.46 0 00-.52-6.44zm61.89 73l-.4.39c1.77 2.42 3.47 4.88 5.31 7.23a3.77 3.77 0 003.32 1.32 2.12 2.12 0 00-.11-.5c-1.36-2-2.69-4.08-4.13-6.05a6.45 6.45 0 00-3.99-2.4zm-18.14-10l-.22.25c.42 1.49.88 3 1.25 4.46a6 6 0 003.7 4.41 4.58 4.58 0 00.85.19 3 3 0 00-.06-.85c-.74-2-1.49-4-2.28-6a2.07 2.07 0 00-.72-.95c-.81-.55-1.68-1.03-2.52-1.53zm178.46-96.84c-1.5 2.46-2.95 4.89-4.47 7.27-.94 1.47-.72 3-.68 4.68 2.85-1.85 5.83-9.01 5.15-11.95zM278 92.58a15 15 0 00-6.62-3.58c-1.2-.3-2.69.55-4.05.87a3 3 0 001.27 1 28 28 0 014.2 1.66c1.76 1.06 3.39.54 5.2.05zm-87.19 125.51c-2.84 4.23-3.5 9.57-1.44 11.32.28-1.06.51-2.1.82-3.11a5.66 5.66 0 01.8-1.92c1.29-1.56.67-3.25.47-4.91a6 6 0 00-.65-1.38zM265.5 95.83c-2.71-2.21-7.8-4-10.66-1.42.45.18.84.35 1.25.47 1.17.36 2.55.43 3.48 1.11 2.12 1.54 3.94.47 5.93-.16zm141.16 78.57c1.95-1.28 2.47-12.84.69-14.23-.07.76-.13 1.51-.22 2.25a45.37 45.37 0 01-.94 7.32 6.36 6.36 0 00.47 4.66zm-7.38-20h.52c.11-.71.18-1.44.35-2.13a15.58 15.58 0 00.11-7.09c-.22-1-.41-2-1.65-2.53a4.31 4.31 0 00-.13.71c0 1.15.06 2.3 0 3.43-.08 1-.35 1.95-.52 2.93-.08.46-.3 1-.15 1.38.38 1.09.95 2.17 1.47 3.28zm-197.1-6.4a10.81 10.81 0 00-1.06.31c-1 .4-1.88.87-2.86 1.23a6.34 6.34 0 00-3.8 3.73 3 3 0 00-.08.87 3.37 3.37 0 001-.09 15.9 15.9 0 013.45-1.53c2.51-.41 2.98-2.19 3.35-4.52zm86 165.11c-1.45-1.85-2.72-3.59-4.12-5.22-1.2-1.4-2.88-1.27-4.57-1.21.98 2.84 6.3 6.9 8.65 6.44zm-85.38-52.57l.36-.13v-5.12c0-.77.5-1.63.28-2.28-.6-1.71-1.47-3.33-2.23-5a3.13 3.13 0 00-.15 1.45v7.74a4.47 4.47 0 001.7 3.35zM333 303.8a9.51 9.51 0 001.61.48c2.83.27 5.66.5 8.49.75a2.39 2.39 0 00.36.05c.5-.06 1-.14 1.48-.21-.35-.33-.68-.67-1.05-1a1.74 1.74 0 00-.55-.21 25.17 25.17 0 01-4-1.27c-1.68-.85-4.91.18-6.34 1.41zM211.51 125.72l.14.39a6.2 6.2 0 001.22 0c1.43-.26 2.85-.58 4.28-.86.59-.11 1.35 0 1.74-.31a21.91 21.91 0 002.32-2.58 8.81 8.81 0 00-1.41-.17c-1.64.14-3.28.31-4.91.5a1.45 1.45 0 00-.87.35c-.87.86-1.68 1.78-2.51 2.68zm90.88 188.34c0-.26.05-.38 0-.41-1.82-1.71-3.63-3.43-5.49-5.09-.63-.57-3.1-.5-3.86 0 1.24 1.1 2.53 2.14 3.7 3.3a7 7 0 005.65 2.2zM387 266.83c.5 0 1 .15 1.38 0 2.7-1.31 5.4-2.63 8-4.07.5-.27.72-1.06 1.08-1.62a30.25 30.25 0 00-6.39 1.9c-1.62.74-3.43 1.56-4.07 3.79zM305.46 90.69c-.69-.5-1.38-1-2.09-1.5-1.68-1.17-3.31-2.43-5.08-3.43a4.59 4.59 0 00-3.79 0c.5.38.76.61 1.06.79 1.59.94 3.41 1.63 4.72 2.86a5.35 5.35 0 005.18 1.28zm-30.24-2.36v.11c2.05 1.24 4.1 2.48 6.16 3.69a1.33 1.33 0 00.72.05 17.5 17.5 0 001.77-.24 5.2 5.2 0 00.91-.39 3.37 3.37 0 00-.62-.76c-1.45-.91-3-1.72-4.37-2.7a3.88 3.88 0 00-4.57.24zm-45.06 20.38a33.07 33.07 0 014.78.42 4.27 4.27 0 003.92-.87c.14-.12.41-.08.55-.2a9.47 9.47 0 00.74-.81 4.51 4.51 0 00-1-.48c-1.14-.19-2.31-.28-3.45-.49-2.11-.36-4.7.72-5.54 2.43zm-45.34 94.81l.38.11c.29-.49.58-1 .86-1.48a54.43 54.43 0 012.88-5.05c1.16-1.62.83-3.23.7-5.21-.63.85-1.11 1.39-1.47 2-1.08 1.85-2.17 3.7-3.15 5.61a6.23 6.23 0 00-.2 4.02zm197.3 76.34c-3.38-.09-10.26 1.18-11.74 4.08 3.19.2 11.23-2.59 11.74-4.08zm14.5-132c0-3.12.11-6.06-.06-9-.05-.83-.88-1.61-1.35-2.41l-.41.17v1.41a29.82 29.82 0 01-.36 4.84c-.42 1.85.53 3.18 1.25 4.63.09.16.52.17.93.31zm-77.14-55.4c-.81-.66-1.6-1.33-2.42-2-1.29-1-2.67-1.86-3.88-2.94a6 6 0 00-4.75-1.5 7.15 7.15 0 00.66.79c1.63 1.35 3.29 2.67 4.92 4a6.24 6.24 0 005.47 1.6zM255.59 305l.13-.44a41.49 41.49 0 01-3.37-5.67c-.78-1.87-2.32-2.06-3.81-2.65.88 1.91 1.93 3.69 2.85 5.53a6 6 0 002.77 2.89 6.64 6.64 0 001.43.34zm-32.38-20.38c-.06-.58-.09-.92-.14-1.26a36.59 36.59 0 01-.76-4.84 4.56 4.56 0 00-3.13-4 8 8 0 000 1.47c.27 1.41.73 2.79.88 4.21.12 1.08.12 2.09 1.09 2.81.63.42 1.21.92 2.06 1.61zM334.53 91.45c.29.31.6.6.88.92a35.71 35.71 0 013.42 4 9 9 0 005.56 4.13 5.57 5.57 0 00-.4-.77 57.52 57.52 0 01-4.6-5.69 5.34 5.34 0 00-4.86-2.59zm77 138.12c-.51.42-.83.69-1.16 1a40.06 40.06 0 01-4.4 3.56 6.6 6.6 0 00-2.54 3.34 2.59 2.59 0 000 1 4.28 4.28 0 00.94-.37q1.94-1.38 3.82-2.85a17.53 17.53 0 002-1.75 4.68 4.68 0 001.29-3.93zm-204.32-98.13l.11.46c2.15-.5 4.34-.88 6.44-1.54 1.19-.38 1.79-1.57 2.41-2.74-4.49.11-7.17.38-8.96 3.82zm80.63-45.17c.29.24.56.51.86.72 1.45 1 3 1.86 4.33 3 1.78 1.45 3.73.89 5.64.93-2-1.4-4.19-2.56-6.09-4-1.52-1.26-3.05-.85-4.74-.65zM295 313.75c-1.45-1.73-2.73-3.36-4.12-4.9s-3-1.14-4.7-1.21c1.07 2.25 1.68 2.69 2.91 2.19 1.38 2.94 3.1 4.17 5.91 3.92zm86.65-40.65c1.67-.08 9.35-3.45 11.29-4.94-.2-.72-.57-.79-1.24-.49a8.39 8.39 0 01-2.5.76 9.46 9.46 0 00-7.58 4.67zm-3.4-156c.15 2.16.32 4.25.42 6.33a4.17 4.17 0 002.68 3.5c.15-3.52-.3-9.12-3.13-9.83zm-62.17 195.64l.36-.45a4.06 4.06 0 01-.78-.3c-2.07-1.22-4.08-2.53-6.2-3.65a3 3 0 00-3.14.24c2.59 2.96 7.42 4.98 9.76 4.16zM325.42 94c-.72-2.77-7.67-7.61-10.25-7 .63.53 1.17 1 1.72 1.44 1.45 1.21 3.17 2.21 4.29 3.67s2.58 1.66 4.24 1.89zm12.21 213.49a18.17 18.17 0 00-2-1 21.11 21.11 0 01-3.25-1.13c-2.23-1.33-4.21-.43-6.27.37 2.71.85 5.43 1.6 8.16 2.31a3.11 3.11 0 003.36-.6zm60.77-58.57a2.69 2.69 0 00.79-.05c1.82-1 3.67-2 5.44-3a13 13 0 002.26-1.94c.2-.19.12-.66.17-1-.32 0-.64.08-1 .16a13.66 13.66 0 00-2.71.8 12.56 12.56 0 00-3.23 2.1 13.47 13.47 0 00-1.72 2.88zm-6-107c.95-3.9 1.47-7.65-1.28-10.9a1.85 1.85 0 00-.19 1c0 1.37.06 2.73 0 4.09-.05 1-.6 2.06-.36 2.93a11.83 11.83 0 001.79 2.84zm-60.91 167.61a17.4 17.4 0 00-1.84-.92c-.25-.09-.65.21-.9.11-1.69-.67-3.35-1.43-5.05-2.11a4.79 4.79 0 00-3.82.31c2.12 2.08 9.17 3.72 11.61 2.61zm55.32-183.65a3.43 3.43 0 00-.07.56c.14 2.44.33 4.88.39 7.32a3 3 0 002.25 2.66c-.11-2.55-.3-5-.31-7.55 0-1.62-1.4-2.03-2.26-2.99zm-57.68-36.17L329 90a3.52 3.52 0 00.38.72 48.8 48.8 0 014.08 4.71c1.18 1.78 3.17 1.75 4.68 2.8a1.12 1.12 0 00-.16-.84c-2.26-2.38-4.51-4.77-6.86-7.06-.44-.41-1.31-.42-1.99-.62zm-119.7 172.15c0 .61-.08.89-.06 1.17.16 2.16.26 4.33.53 6.48a4.34 4.34 0 002.33 3.53v-3c0-1.13 0-2.26-.06-3.39a2.56 2.56 0 00-.07-1.08c-.58-1.05-1.23-2.05-1.89-3.06a4.91 4.91 0 00-.78-.65zm182-1.6l.29.5a3.37 3.37 0 001-.15c1.95-1 3.89-2 5.8-3.08.94-.54 2.16-.72 2.64-1.9.11-.27.17-.55.26-.83a2 2 0 00-.83 0 59 59 0 00-5.94 2.7 22.43 22.43 0 00-3.25 2.76zm-176.85 8.68c-.12.08-.23.13-.23.17.15 2.4.3 4.81.5 7.21 0 .27.32.54.53.77.39.44.8.87 1.23 1.27a5.82 5.82 0 00.79.54l.33-.21c-.27-1-.54-2-.8-3a1.71 1.71 0 01-.14-.84 5.13 5.13 0 00-2.24-5.91zm149.27 19.65a5.22 5.22 0 00.88 0c3.48-.65 7-1.3 10.44-2 .17 0 .44-.53.39-.59-.19-.25-.5-.6-.76-.59-2 .08-4 .16-6 .39a7.66 7.66 0 00-4.98 2.79zM312 308a12.6 12.6 0 001.69.9c2.9 1 5.8 1.91 8.72 2.8a3.25 3.25 0 001.31-.17c-.3-.34-.54-.83-.91-1-1.42-.66-3.08-.95-4.27-1.87-2.1-1.57-4.12-1.51-6.54-.66zm-63.4-6.51c-.89-2.16-1.73-3.94-2.34-5.79s-2.2-2.3-3.8-3.21a5.16 5.16 0 00.12.58c1 2.13 2.08 4.23 2.92 6.42.5 1.44 1.62 1.51 3.05 2.02zm156-52.37l-.3-.31c-.42.16-.85.3-1.27.48a8.2 8.2 0 01-1.85.78 6.43 6.43 0 00-5.84 4.83 4.36 4.36 0 001.19-.26c2.35-1.3 4.71-2.59 7-4 .47-.26.71-.98 1.06-1.5zm-129.6 62a3.79 3.79 0 00-.38-.71 60.58 60.58 0 01-3.95-5c-1-1.61-2.61-1.36-4-2.08.66 3.24 5.96 7.43 8.33 7.84zM235.81 104.7l4.7.87a5.82 5.82 0 005.2-1.56c-2.53-1.49-8.19-1.19-9.9.69zm-30.55 151.15a14 14 0 00-.27 2.35c.09 1.56.28 3.11.47 4.66s.29 3.36 2.08 4.53c0-.86-.1-1.6-.12-2.35a24.43 24.43 0 010-4.19 3.64 3.64 0 00-.56-2.72c-.47-.73-1-1.43-1.6-2.28zm154.49-146.71l.33-.35c0-2.59-2.35-8.59-5.87-9a1.64 1.64 0 00.07.46c1.21 2.42 2.36 4.88 3.67 7.25.37.66 1.19 1.1 1.8 1.64zm47.58 116.49l.4.25c.52-.71 1-1.42 1.54-2.15.16-.22.17-.58.36-.73a20 20 0 004.7-6 4.86 4.86 0 00.18-1.75 4.65 4.65 0 00-.57.3 62.72 62.72 0 01-5.11 6.1 4.22 4.22 0 00-1.5 3.98zm-190.58-105a7.68 7.68 0 001.15.14c1.37-.06 2.74-.19 4.1-.23a4.23 4.23 0 003.6-2.57 34.31 34.31 0 00-3.8 0c-1.92.28-4.16-.03-5.05 2.7zM365.19 113l.49-.3c-1.11-2.73-2.13-5.49-3.38-8.15-.32-.67-1.34-1-2.13-1.58.75 2.39 1.71 4.47 2 6.63s2.14 2.13 3.02 3.4zm-92.62 192c.59 2 7.25 7.25 8.59 7a31.8 31.8 0 01-3.53-4.53c-1.13-2.17-3.1-1.81-5.06-2.47zm-21.13-203.76c-2.49-1.75-8.93-1.65-10.31.15a33.92 33.92 0 015.18.92c1.98.69 3.46-.04 5.13-1.07zm153.41 54.59c-.49 2.51-.94 4.89-1.42 7.27-.32 1.59.48 2.8 1.27 4.05.92-3.75 2.11-7.47.15-11.32zm-205.76 98.65c0-1.08.06-1.88.1-2.68a19.48 19.48 0 01.23-4.27c.46-1.73.42-3.11-1.13-4.19-1.29 3.44-1.5 8.89.8 11.14zm203.35-93.71c.13-1.47.25-2.79.38-4.1a36.71 36.71 0 01.45-4.07 3.84 3.84 0 00-.75-3.06c-.18.19-.31.26-.34.36-.52 2.29-1 4.59-1.54 6.88a5.59 5.59 0 001.8 3.99zM281.59 87.16a54.61 54.61 0 015.17 3.19 4.18 4.18 0 003.64.86 2.08 2.08 0 00.56-.31c-.12-.19-.2-.46-.38-.57-1.73-1.06-3.49-2.08-5.22-3.15-1.25-.77-2.48-1.05-3.77-.02zm-78.22 49.94a24.75 24.75 0 014.6-1 3.7 3.7 0 003.54-2c.16-.3.29-.83.14-1a1.23 1.23 0 00-1.05-.34 49.5 49.5 0 00-4.76 1.49 5 5 0 00-2.47 2.85zm-10 34c-3.21 1.37-6.87 5.51-6.51 7.34a7.79 7.79 0 001.16-.56c1.17-.83 2.32-1.67 3.44-2.55a4.75 4.75 0 001.33-1.31 6.62 6.62 0 00.47-1.85c.02-.26.02-.56.07-1.04zm106 137.46a31.38 31.38 0 008.69 5.17c.26.12.67-.11 1.33-.24-2.32-1.75-4.31-3.31-6.38-4.77-1.01-.72-2.2-.45-3.66-.13zm-78.2-192.38h4.63a6.87 6.87 0 002.54-.11 9.21 9.21 0 002.14-1.92 3.85 3.85 0 00-.91-.31c-1.27 0-2.56.09-3.81 0-2-.23-3.28.74-4.61 2.37zm-35.34 68.92c.4-.5.53-.78.76-.93 1.06-.7 2.17-1.33 3.23-2a4.82 4.82 0 001.76-4.67c-1.72 1.34-3.43 2.66-5.11 4a1.07 1.07 0 00-.3.64c-.17.86-.23 1.77-.36 2.99zm116.6-99.61l-.1.48c.34.27.67.56 1 .83a29.89 29.89 0 014.07 3.1 4.09 4.09 0 004.34 1.27c-2.39-1.92-4.85-3.74-7.39-5.43-.49-.29-1.29-.15-1.94-.22zm-41.13 6.06c2.12 1 3.93 1.76 5.7 2.61s3.08.81 4.44-.36c-.39-.19-.74-.37-1.09-.52a37.64 37.64 0 01-4.7-2c-1.65-.91-2.78.09-4.37.3zm-35.39 20.19c.29.18.45.36.62.37 1.62.14 3.25.2 4.86.37a3.57 3.57 0 002.89-.94.93.93 0 00.35-.69c0-.18-.37-.4-.59-.44-1.19-.19-2.38-.4-3.58-.48-1.74-.1-3.4.07-4.57 1.84zm-33.81 48.74c.72-.37 1.43-.68 2.09-1.08 1.94-1.14 4.59-1.5 4.9-4.62a2.88 2.88 0 00-.88.12c-1.47.71-2.93 1.45-4.39 2.18s-1.91 1.63-1.74 3.43zm193.2-28.81a4.1 4.1 0 00.21-1 34.78 34.78 0 00-.41-4.79 22.53 22.53 0 00-1.42-3.87c-.06-.16-.34-.24-.62-.42a3.09 3.09 0 00-.11.65 28.94 28.94 0 01.24 4.9 4 4 0 002.09 4.56zm-196.86 40.25a40.94 40.94 0 014-2.51 3 3 0 002.13-3.58 2.27 2.27 0 00-.75.15 36.22 36.22 0 00-3.24 2.06c-1.25.96-2.65 1.85-2.14 3.88zm134.74-83.21c2 2.08 3.84 4.11 5.82 6a7.36 7.36 0 002.15 1l.2-.31a4.18 4.18 0 00-.4-.68c-1.13-1.31-2.33-2.57-3.4-3.93a4.74 4.74 0 00-4.37-2.08zm90.92 96.76c-.06.08-.17.15-.2.25-.87 2.57-1.61 5.18-3.42 7.32a4.07 4.07 0 00-.6 3.78c.37-.3.69-.45.83-.69 1.87-3.32 3.76-6.63 3.39-10.66zm-58.29-78.82a32 32 0 00-4.93-8.78c-.41-.52-1.23-.71-1.87-1.05l-.19.29c.92 1.29 1.88 2.56 2.74 3.89a9.5 9.5 0 011.76 3.31 2.54 2.54 0 001 1.55 6 6 0 001.49.79zm53.49 129.67c-.75.43-1.39.76-2 1.14-1.36.84-2.67 1.79-4.09 2.54-1.21.64-1.65 1.21-1.47 2.57 3.55-1.32 7.39-4.38 7.56-6.25zm-141.39 72.89a3.05 3.05 0 00-.17-.55c-1.21-1.93-2.38-3.89-3.66-5.77-.64-.93-1.74-1-2.72-1.17l-.13.32 1.14.75c-.27 1.21 3.31 5.48 5.54 6.42zm-78-143c.25-.18.49-.37.75-.52a34 34 0 013.64-2 2.52 2.52 0 001.74-3.07c-2.23 1.65-5.69 1.75-6.04 5.58z"/><path d="M248.49 256.47a13 13 0 01-3.62-.87 2.76 2.76 0 01-1.13-3.35c-1-.06-1.91-.09-2.83-.19a1.7 1.7 0 01-1.65-1.33c-.14-.52-.63-.93-.81-1.44a4 4 0 01-.35-1.84c.1-.73-.11-1-.77-1-1.57.15-2.39-.92-3-2-.4-.76-.62-1.19-1.25-.8a8.26 8.26 0 00-.77-.93 3.62 3.62 0 01-1.27-3.34c.1-.79-.24-1.05-.69-1.45a8.64 8.64 0 01-1.57-1.69 2.56 2.56 0 010-1.46 6.6 6.6 0 01.33-1.14 3.16 3.16 0 01-2.34-5.15c.55-.68.31-.88-.43-1.16a3.53 3.53 0 01-1.89-4.38 1.44 1.44 0 00-.07-1.08c-.44-.78-1.06-1.45-1.47-2.24-1-1.89-.57-2.89 1.47-3.63.44-.16.92-.24 1.44-.37.15-.84-.13-1-1-.69-1.36.55-2.39.13-2.57-1 .75-.37 2.13.61 2.31-.91a5.06 5.06 0 00-.53-1.79l-.48.11.2 1.73-1.39-.56-.63.6c-.87.17-1.2-1.81-.45-2.64a8.44 8.44 0 011-.8c-.46-.33-.77-.54-1.06-.78s-.49-.4-.45-.53c.36-1.38-1-2.73.1-4.2.36-.48.05-1.68-.29-2.4-1-2.08-1-2.05.35-3.74-1.81-2.41-1.84-3.05-.39-5.62a1.51 1.51 0 00.12-1.14 3.81 3.81 0 01.31-4 1.37 1.37 0 00.22-1 4.7 4.7 0 012.07-5.42c.06 0 .08-.14.11-.21-1.4-2.12-1.29-2.84.44-4.83.23-.26 0-1-.07-1.46-.17-2 1-3.34 2.36-4.53.12-.11.26-.19.39-.29s0-.06.06-.1c-1.05-1.77-.32-3 1-4.37.09-.09.21-.15.26-.25.91-1.78 1.87-3.52 2.67-5.34s1.43-3.34 3.65-3.46a2.6 2.6 0 01.93-4 3.31 3.31 0 001.58-2c.5-1.29 1.25-2.3 2.86-2.3.26 0 .71-.49.75-.8.23-1.68.8-3 2.66-3.42.3-.07.75-.5.76-.78.07-1.53 1.08-2.14 2.32-2.57a2.27 2.27 0 00.68-.23c1.53-1.27 2.86-2.83 5-3.24.2 0 .07-1.16.38-1.39a8.9 8.9 0 012.66-1.43c.62-.19 1.15-.17 1.57-.85a3.4 3.4 0 012.92-1.67 1.75 1.75 0 001-.47c.75-.66 1.38-1.45 2.16-2.07 1-.78 1.42-.71 3.21.08a26.73 26.73 0 012.39-2.48 4 4 0 012-.86 8.3 8.3 0 003.76-.89c1.06-.63 2.58-.46 3.88-.69a2.66 2.66 0 001-.5c.8-.56 1.42-1.34 2.64-.72a8.62 8.62 0 002.7.29c-.22.17-.12.13-.1.07a2.46 2.46 0 013.66-1.61 1.44 1.44 0 001.71-.28 3 3 0 014.33-.07 1 1 0 001.65 0c1.71-1.64 2.49-1.66 4.58-.42a1.56 1.56 0 001.28.1 3.81 3.81 0 013.88.17 1.92 1.92 0 001.59 0c2-1.16 2.46-1.14 4.2.39.25.22.8.14 1.22.13.68 0 1.55-.33 2 0 1.79 1.19 3.82 1.08 5.78 1.4.11 0 .27.06.32.14.77 1.28 1.95 1 3.09.82a2 2 0 012.12 1c.49.8 1 1.4 2.23.79a2.67 2.67 0 013.25 1 2.43 2.43 0 002.41.82c1.78-.14 2.69.58 3.12 2.34.08.33.63.85.79.79 2.06-.71 3.13.49 4.07 2l.47.69c1.4 0 3-.72 4 .86a2.17 2.17 0 01-.13 2.89c1-.08 1.83-.08 2.63-.22a1.72 1.72 0 012.22 1.2c.3.82.56 1.59 1.84 1.61 1.51 0 3 1.81 3 3.66 3.05.67 4 2 3.26 4.76.42 0 .8.05 1.18.05 1.82 0 2.91 1 2.78 2.81-.06.86.5 1.12 1 1.31 1.46.58 2.27 1.45 2 3.12 0 .25.43.69.75.81 1.06.43 2.39.53 2.66 1.94a12.87 12.87 0 010 2.32 15.74 15.74 0 012.44 2.15c.4.53.3 1.44.46 2.18.06.32.21.89.33.89a1.37 1.37 0 011.38 1.12c.4 1.13 1 2.21.6 3.48a1.73 1.73 0 000 .32c2 1.05 2.4 1.91 1.55 3.94-.37.88.25 1.12.69 1.44a2.62 2.62 0 01.79 3.51c-.49.76-.53 1.22.35 1.74a3 3 0 011.43 3.1 3.53 3.53 0 00.71 2.27 2 2 0 01-.12 3.06 1.1 1.1 0 00.18 1.7 3.25 3.25 0 01.44 4.18c-.59.72-.65 1.12.21 1.72 1.27.88 1 3.09-.46 4.19-.28.22-.59.4-.93.63a3.81 3.81 0 00.35.42c2 1.45 2.23 2.51.86 4.6-.58.9-.85 1.65-.05 2.64s.13 2.88-.93 3.46l-1.63.85c1.43.51 2.48 1.32 2.26 2.73a2.16 2.16 0 01-2.1 2c0 .31-.09.6 0 .78 1.06 1.76 0 3-.94 4.35a2.42 2.42 0 000 1.7c.64 2.38.36 3-1.78 4.11a9.91 9.91 0 00-1.46 1.16c1.45 1.08.69 2.54-2 3.81.83 1.37-.27 2.48-.55 3.72a1.13 1.13 0 01-.66.69c-1.39.32-1.54 1.27-1.44 2.46a2.1 2.1 0 01-1.8 2.33c-.41.11-.83.25-1.22.36 0 .74.12 1.37.08 2a2.52 2.52 0 01-3.05 2.38c-.75-.15-.89.21-.85.78.16 2.23-.73 3.64-3 4.06a.89.89 0 00-.55.52 3.5 3.5 0 01-2.84 2.45 1.86 1.86 0 00-1.13 1.08 3.3 3.3 0 01-2.06 2.37 5.07 5.07 0 00-2.62 2.3 3.08 3.08 0 01-2.59 1.52c-.76 0-1 .46-1.38 1.1a14.84 14.84 0 01-1.78 2.29 2 2 0 01-2.51.85c-.27-.11-1 .42-1.25.83-.64 1.11-1.24 1.84-2.76 1.36a2 2 0 00-2.8 1.33c-.4 1.1-1.43 1.35-2.63.8a1.64 1.64 0 00-2.31.62c-.67 1.12-1.62 1.17-2.72 1.07-.34 0-.88 0-1 .19-1 1.46-2.27 1.67-3.89 1.37a2.2 2.2 0 00-1.87.51c-1.15 1.58-2.63 1.62-4.2 1.1a2.29 2.29 0 00-2.33.44c-1.11.87-2.38.54-3.62.52a3.05 3.05 0 00-1.52.24c-1.73 1-2.84 1-4.3-.11A1.37 1.37 0 00303 278c-1.7 1.57-3.34 1.4-5 0a1.61 1.61 0 00-.31-.19c-1.67 1-3.35 1.49-5.23.39a2.57 2.57 0 00-1.76-.11 4 4 0 01-4.15-1.22c-.23-.24-.81-.45-1-.32-1.8 1-3.19-.2-4.71-.75a4 4 0 00-1.75-.32 5.16 5.16 0 01-4.4-1.1 2.89 2.89 0 00-2.32-.45 2.77 2.77 0 01-2.63-.78 8.58 8.58 0 00-2.82-1.66 8.66 8.66 0 01-2.8-2.27c-.41-.4-.57-.87-1.34-.6a2.32 2.32 0 01-1.54-.42c-1.16-.64-2.72-.74-3.2-2.4-.09-.32-.84-.55-1.32-.63a3.41 3.41 0 01-2.92-2.36c-.31-.95-.94-1.21-1.95-1.22-2.67-.05-5.25-2.05-3.36-5.12zM233 240.74c.53.55 1.15 1.31 1.89.68a1.2 1.2 0 00-.2-1.85c-.62-.55-1.22-1-1.95-.52s-.16 1.18.26 1.69zm142-40.55c-.15-2.48-.32-4.46-.38-6.44a54.54 54.54 0 00-2.15-11.91 80.63 80.63 0 00-3.28-9.77 57.34 57.34 0 00-3.72-7.69 77.62 77.62 0 00-5.3-7.89q-3.21-4.23-6.79-8.17a51.08 51.08 0 00-5-4.54 60.55 60.55 0 00-5.57-4.44 66.41 66.41 0 00-8.05-4.72c-3.95-1.9-7.78-4.12-12.18-5-1.23-.25-2.36-1-3.59-1.31-2.69-.6-5.43-1-8.13-1.54a46.83 46.83 0 00-11.32-.94c-2.75.09-5.49.26-8.23.49-1.47.13-2.92.47-4.38.72-2.2.39-4.41.76-6.6 1.21a20.1 20.1 0 00-3.1.94c-3.07 1.17-6.18 2.24-9.16 3.63s-5.79 3.08-8.65 4.7a23.77 23.77 0 00-3.53 2.3c-3 2.52-6 5.11-8.94 7.72a21.34 21.34 0 00-2.18 2.37c-1.11 1.33-2.25 2.64-3.26 4-1.88 2.63-3.77 5.27-5.48 8a56.93 56.93 0 00-3.25 6.31c-1.19 2.62-2.39 5.25-3.31 8-.83 2.45-1.31 5-1.9 7.56a67.9 67.9 0 00-1.57 12.98c-.09 2-.09 4 0 6 .08 1.76.34 3.51.53 5.27.1 1 .16 1.92.35 2.86.3 1.57.67 3.13 1.06 4.68.62 2.47 1.13 5 2 7.4 1 2.83 2.21 5.58 3.44 8.32a38.68 38.68 0 002.68 5.1c1.48 2.29 3.1 4.49 4.73 6.68.9 1.21 1.94 2.32 2.93 3.47.6.7 1.2 1.41 1.85 2.08s1.18 1.06 1.76 1.61c.73.68 1.47 1.35 2.14 2.08a17.12 17.12 0 001.89 2.31c2.77 2.18 5.55 4.38 8.48 6.34 2.46 1.64 5.12 3 7.73 4.4a37.34 37.34 0 005.27 2.6c2.7 1 5.49 1.69 8.26 2.46 1 .29 2.24.2 3.16.68 1.75.92 3.64.84 5.48 1.11a46.84 46.84 0 005.66.5 120.9 120.9 0 0013.6-.11 58.39 58.39 0 0012.64-2.69c1.91-.63 3.77-1.4 5.67-2a54.25 54.25 0 0010.86-5 108.3 108.3 0 0011.72-8.44 57.54 57.54 0 0010.75-11.56 73.77 73.77 0 005.62-8.67 61.78 61.78 0 005.93-14.56c.63-2.68 1.52-5.32 1.88-8 .51-3.97.66-7.98.93-11.49zm-75.44 74.06c-.32.22-.87.45-1.11.86s.1.82.23 1.22a1.53 1.53 0 00.48.81c.47.28 1.2.75 1.49.58a4 4 0 001.48-1.7c.13-.3-.35-1-.74-1.33a5.9 5.9 0 00-1.83-.44zm13.89 1.44a2.24 2.24 0 00-1.8-2.09c-.89 0-2.24 1.17-2.22 1.89s1.42 1.43 2.67 1.41a1.2 1.2 0 001.35-1.21zm-9.57.53a16.59 16.59 0 011.62 1.08c.8.68 1.48.19 2-.29s.48-2-.15-2.25a3.55 3.55 0 00-2.28-.26c-.57.24-.84 1.18-1.19 1.72zm45.52-136.56a3.85 3.85 0 00-.39-1.12c-.46-.7-1.11-1.26-2-.9a1.74 1.74 0 00-1.11 1.92c.07 1 .83 1 1.56 1.09a4.37 4.37 0 01.67.22c.94.29 1.31.02 1.27-1.21zm24.48 88.69c.81 0 1.73-.56 1.62-1.28a3 3 0 00-1.15-1.85 1.89 1.89 0 00-1.8.11 2.21 2.21 0 00-.36 3c.48-.5 1-1 1.47-1.5zm-48.29 44.77c-.54-1.43-2.8-2.26-4-1.38a1.58 1.58 0 00-.51 1.23c0 .33.41.92.67.93 1 0 2.13.63 3-.48.12-.21.54-.21.84-.3zm-87.73-119a1 1 0 00-1-1.36c-1-.09-2.31.88-2.33 1.56 0 .9 1 2.17 1.66 2.16s1.64-1.06 1.67-2.31zm-6.24 5.46c.52.51.95 1.24 1.57 1.48s2.45-1.41 2.12-2.11a3.66 3.66 0 00-1.79-1.51c-.52-.19-1.64 1.18-1.9 2.19zm35.81 110.18c.53 0 1.28.24 1.26-.89 0-.84-1-2.29-1.58-2.12-.77.21-1.87.52-2.12 1.1-.43 1.05.69 1.87 2.44 1.96zm-23-123.29a1.39 1.39 0 00-1.25-1.6c-.91 0-1.93.76-1.75 1.55s-.39 2 1 2.21c1.01.17 2.01-1.01 2.03-2.11zm19.3-16.3c-1.05-.15-2 .25-2 1.34s1.1 1.2 2 1.24c1.23 0 2.32-.63 2.14-1.39-.2-1.04-1.08-1.26-2.11-1.14zm12.11-5.17l-2.35 1.21a6.86 6.86 0 001.07 1.66c.84.72 1.7 0 2.42-.37.33-.19.68-1 .54-1.22a7.38 7.38 0 00-1.68-1.28zm67.65 139.4c-.58.23-1.14.4-1.65.66a1.26 1.26 0 00-.56.68.63.63 0 00.3.55 2.25 2.25 0 002.42-1c.46-.59.79-1.38.15-1.93a3.1 3.1 0 00-2-.8c-.9.1-1.27.93-1.13 1.9 1.98-.71 1.98-.71 2.47-.06zm-6.9-131.75c0 1.53.84 2.54 1.86 2.28a3 3 0 001.61-1.51c.31-.62-1.28-1.81-2.39-1.65-.49.07-.89.72-1.08.88zm-42 145.26l2.2-1.29a10.64 10.64 0 00-2.29-1.94c-.31-.14-1.38.65-1.64 1.23s.81 1.72 1.74 2zm26.58-151.36c.83 1.6 1.33 2 2.55 1.55.48-.16 1.21-1 1.13-1.14a3.79 3.79 0 00-1.46-1.74c-1.14-.59-1.69.39-2.21 1.33zm46.34 32.68c0-.83-.91-2-1.64-1.77a2.47 2.47 0 00-1.36 1.44 1.8 1.8 0 001.45 2c1.04.1 1.59-.41 1.56-1.67zm-123.7 90.21c-.56-.68-1.1-1.41-1.72-2.07a1.86 1.86 0 00-2.39-.09c-.62.79-.1 1.33.46 1.85.21.19.4.4.61.6 1.23 1.18 1.84 1.15 3.04-.29zm119-93.15c.83.16 1.16-.42 1.22-1.17s-1.36-1.82-2.33-1.89-1.08.47-1.16 1.08c-.09.9 1.13 1.96 2.31 1.98zm-79.49 119a1.2 1.2 0 001.74-.25 1.48 1.48 0 00-.09-1.44 4.37 4.37 0 00-2.3-1.06c-.45 0-1 .88-1.37 1.44-.07.1.41.57.69.94l.73-1.12h.34zM260.77 134.1l-.08-.52a6.43 6.43 0 00-1.56-.62c-1-.11-2.19.7-2 1.44s.86 1.2 1.32 1.79zm80.53 1.47a6.44 6.44 0 001.13 1.7c.73.54 1.43.1 2-.51.75-.8.13-1.39-.34-1.93-.27-.31-.86-.72-1.06-.62a11.12 11.12 0 00-1.73 1.36zM291 275.11c-.58-1.24-1.4-1.78-2.13-1.34-.56.35-1.27 1-1.33 1.51-.1.88 1.47 2 2.39 1.83.18 0 .44-.18.46-.31a.81.81 0 00-.16-.63 9.36 9.36 0 00-1-.88zm-64.25-103.47l.55.24a19.69 19.69 0 00-.58 2c-.05.21.19.68.32.68.82 0 1.77-1.2 1.39-1.94a2.84 2.84 0 00-1.45-1.45c-1.07-.27-1.71.56-2 1.52a3.35 3.35 0 00.12 1.16 4.17 4.17 0 00.91-.73 11.17 11.17 0 00.74-1.48zM379 200.2a1.11 1.11 0 00.21-1.8 9.28 9.28 0 00-1.71-1.3 12.63 12.63 0 00-1 2.15c-.22.88.27 1.42 1.15 1.46l.5-1.65.32.07zm-156.15-3.31a6.31 6.31 0 001.23-1.31c.26-.52-.72-2.11-1.21-2.21-1-.22-1.56.33-1.35 1.4a1.18 1.18 0 01.05.58c-.49 1.09.2 1.24 1.26 1.54zm127.74 61.84c1.71-.07 2.94-1.27 2.71-2.54a2.07 2.07 0 00-1.12-1.33c-.63-.24-2.18 1.4-2.23 2.31l2.05-1.38.35.27zm-22.88-131.92a1.07 1.07 0 00-1.09 1.26c.15.67.9 1.65 1.4 1.66s1.43-.75 1.76-1.39-.84-1.5-2.07-1.53zm40.73 111.38a1.87 1.87 0 001.79-1.88 1.71 1.71 0 00-1-1.23 2.21 2.21 0 00-1.82.36c-.46.45-1.16 1.2-.35 2.06l1.13-1.44.4.12zm-2.58 3c.34.53.55.89.8 1.2 0 0 .53-.21.54-.33a3.9 3.9 0 00-.1-1.91 1.72 1.72 0 00-1.5-.67 3.52 3.52 0 00-1.56 1.3c-.13.18.19.72.31 1.09l.86-.38zm-92.78 31.06c.95-.36.78-1 .36-1.6s-.93-1.75-2.11-1.33c-.72.26-1.52.72-1.25 1.66.21.72.74 1.35 1.41 1.31-.05-.56-.24-1.42-.12-1.46 1.29-.53 1.09.93 1.71 1.39zm85.48-20.63c1.23.36 1.68-.4 2-1.2a1.36 1.36 0 00-.94-1.83 2.29 2.29 0 00-1.93.49 1.21 1.21 0 00-.13 1.9c1-.06.91-1.79 2.3-1.27zm-61.77-130.24a1.36 1.36 0 00-.75 1.52c.09.5.87 1.3 1.23 1.24.64-.11 1.85.17 1.76-1.22-.03-.92-.74-1.55-2.24-1.54zm-68 110.5a1.46 1.46 0 001.72-1.47 1.68 1.68 0 00-1.8-1.51c-.49.12-1.19.92-1.14 1.34.07.76.52 1.57 1.21 1.64zm144.4-10.48c1 .22.73 2.39 2.27 1.32a2.78 2.78 0 00.75-2.11c0-.72-.63-1.32-1.43-.83zm5.54-26.53c.77-1 .95-2 .32-2.53a3.11 3.11 0 00-2-.8c-.29 0-.75 1-.81 1.54s.4 1 .62 1.45l.37-.17a4.57 4.57 0 01.06-.83 4.4 4.4 0 01.36-.76 3.3 3.3 0 01.49.64c.22.41.35.85.58 1.46zm-1.63-7.73l1.26 2.05.41-.19c0-.48.16-1.05 0-1.42a3.25 3.25 0 00-1.35-1.48c-.31-.14-1.11.36-1.4.78a2.93 2.93 0 00-.22 1.61c0 .19.32.38.49.56.19-.17.45-.31.54-.52a9.46 9.46 0 00.26-1.39zm-106.46-59.37a3 3 0 00-.4.66 8.37 8.37 0 00-.18 1c.44 0 1.1.22 1.29 0 .38-.42.81-1 .16-1.67a2.4 2.4 0 00-2.86-.45 2.61 2.61 0 00-.26 3.58c-.29-1.89-.25-3.42 2.25-3.12zm92.41 119.34c1.06-.31 1.78-.79 1.41-1.81-.25-.7-.78-1.46-1.78-1.14-1.49.48-1.84 1.1-1.4 2.19l1.59-.64zm7.31-82c.11-2.14-1-3.31-2.49-3.05-1.05.17-.92 1-1 1.79s.62.77 1 .63.59-.63 1-1.08c.18.17.45.38.68.63s.45.55.81 1.08zm-125-23c.3.77.5 1.29.72 1.8.15.34.27.86.53.95s.74-.18 1-.42a1.64 1.64 0 000-2.47 1.34 1.34 0 00-2.26.17zm72.37 130.72l-.25.26c-.24 0-.55-.09-.71 0a13.16 13.16 0 00-1.21 1 10.83 10.83 0 011.28.47c.24.11.57.33.6.54.14 1 .79.81 1.24.43s.61-1 .46-1.28a6.74 6.74 0 00-1.42-1.39zm16.81-3.92a2.52 2.52 0 01-.37-.49 1.43 1.43 0 00-2-.91 4.11 4.11 0 00-1.35 1.62c-.06.11.56.87.74.82.92-.21 1.86-.61 2.97-1.01zm44.22-57.09c-.13-1 .33-2.27-1.06-2.56-1.89-.4-1.21 1.51-1.92 2.12 1.05 1.81 1.6.44 2.18-.29zM239.49 153.4c.11-1.25.15-1.2 1.14-1.83a1.46 1.46 0 00.59-1.16c-.06-.37-.57-.67-.9-1l-1.21 2.11-.41-.17.36-1.8c-1.5 1.06-1.5 1.06.43 3.85zm23.4 113.81l.05-.2-1.16-1.35.31-.28 1.14.83c.33-1.27-.68-1.6-1.41-1.73a3.42 3.42 0 00-1.93.62c-.14.07-.09 1 .08 1 .94.48 1.94.77 2.92 1.11zm90.87-123.73c0-1.1-1.19-2.51-1.93-2.46s-1.46.29-1.54 1.21.85 1.88 1.6 1.79a9.77 9.77 0 001.87-.54zm25.73 61.22h-.27c-.24.29-.53.85-.73.82-1.32-.22-.34-1.44-.9-2.13-1.49 0-1 1.51-1.26 2.22s.64 1.41 1.24 1.51a10.56 10.56 0 001.44-1.22 4.31 4.31 0 00.48-1.2zm-44.82-74.76a1.94 1.94 0 00-2.07-1.35c-.23 0-.7.71-.62.92a8.78 8.78 0 001.26 2.26c.08.11.85-.29 1.23-.44l-1-1.46.27-.23zM374.51 174l-1.53-.61 1-1.05c-.74-.6-1.84-.8-2-.25a3.38 3.38 0 00.19 2.47c.98 1.26 2 .86 2.34-.56zm-37.33 93.7c.14-1.32 1.36-1.08 2-1.58-1.31-.85-2.46-.57-3.56.83a3 3 0 002.85 1.57c.24 0 .46-.39.93-.82zm34.27-37.58c-.56.24-1.16.31-1.38.63s-.37 1.32-.2 1.42a7.48 7.48 0 002.07.66.52.52 0 00.46-.25 4.21 4.21 0 00.15-1.71c-.08-.32-.7-.49-1.1-.75zm.86-62.29l.14-.39a5.61 5.61 0 00-1.78-.22 1.19 1.19 0 00-.74 1.82c.4.63 1.29 1 2 1.42.14-.27.4-.54.38-.8s-.38-.39-.53-.62a7.84 7.84 0 01-.43-.93zm3.44 10.49c.29-1.73-1.07-1.48-1.91-1.87a3.66 3.66 0 00-.3.88c0 .3.19.62.16.91-.21 1.58.09 1.9 1.62 1.63l-.6-2.1zm-126.17-36.88a1.58 1.58 0 002.11-.9 1.88 1.88 0 00-.36-1.68c-.69-.68-1.75-.35-2.76.85h2.13zm3.2 118.18c.34-1-.35-2-1.72-2.4a1.55 1.55 0 00-1.33.19 1.85 1.85 0 00-.08 1.42c.17.61.56 1.15 1.37.83l-.76-1.43c1.61-.59 1.56 1.2 2.52 1.39zm51.8-135.77c.38-1.19-.64-1.64-1.31-1.8s-1.47.33-2.37.57c1.23 1.38 2.42 1.72 3.68 1.23zm13.54-.35c-.88-.23-1.47-.07-1.6.82-.06.38-.09 1.06.05 1.11.73.26 1.18 1.41 2.19.78a1.18 1.18 0 00.52-.69c0-.16-.29-.52-.48-.55-.97-.14-1.02-.7-.68-1.47zM224 190.75a2 2 0 00-.35-2.86 1.67 1.67 0 00-1.38.1 15.29 15.29 0 00-.28 2.66l1.41-.92zm57.08-67.3a9.87 9.87 0 00-1.19 1.27c.48.66 1 1.54 1.68 1.75.84.26 1.11-.86 1-1.39s-.85-.95-1.5-1.63zm75.5 23.31l-.46.43-1.79-1.26-.32.25c.39.56.68 1.4 1.21 1.61a2.28 2.28 0 001.93-.42c.69-.56 0-1.22-.31-1.78a1.33 1.33 0 00-1.72-.61zm-63.49-23.13c-.23-1.1-2.47.4-1.86-1.64-1.56.09-2 .55-1.75 1.72a6 6 0 011.33.42c.97.58 1.73.49 2.27-.5zm-71.71 76.26c-.06 1.54.82 2.81 1.76 2.87 1.13.06 1-1.24.94-1.44a6.76 6.76 0 00-1.64-2c-.12-.12-.81.42-1.07.57zm9.18-37.49c-.88.61-1.58 1.23-.91 2a2.38 2.38 0 002 .58c.73-.21 1.19-1 .59-2.1l-1.31 1.23zm44.9 109.53c1.22.61 2.11 1.07 3 1.48a.57.57 0 00.53-.13.85.85 0 00.09-.64c-.3-.94-.9-1.71-1.93-1.67-.53.03-1.05.57-1.7.96zm101.73-88c0-1.09-1.14-2.14-2-1.79-.37.17-.9.72-.84 1a5.12 5.12 0 00.89 1.51l1-.92zm-154.34 0l.94-.49.44 1.89c.59.11.81-.05.92-.89.18-1.47-.25-2.44-1.14-2.35-1.34.17-1.12 1.26-1.17 1.91zm154.43 32.42l.24-.26c-.32-.42-.56-1-1-1.19a1.19 1.19 0 00-1.71 1c0 .57-.2 1.81 1.24 1.72-.05-.8-.05-1.62 1.22-1.23zm-151.87-39.11l.39.26a5.39 5.39 0 00-.22 1.24 3.44 3.44 0 00.37 1c.3-.27.85-.55.84-.81 0-.55-.15-1.34-.53-1.59a3 3 0 00-1.94-.25c-.28 0-.57.61-.71 1-.08.21.13.53.21.8l.33-.42zm13.1 68.14c.18-.58.62-1.3.43-1.55a5.74 5.74 0 00-1.89-1.48c-.18-.09-.7.5-.89.64zm17.62 15.68l-1 .41c.25.31.48.63.73.94a1.1 1.1 0 00.35.33 14.65 14.65 0 001.6.61c.05 0 .36-.44.3-.55a7.3 7.3 0 00-1-1.57c-.11-.16-.49-.1-.98-.17zM228 225.59l.26-.25c-.37-1.44-1.19-2.37-2-2.08a1.69 1.69 0 00-.92 1.18c0 .39.52.82.94 1.42l.65-1.63zm128.67 26.89a1.39 1.39 0 00-1.8-.51c-.73.48-.81 1.8-.2 3zM326.32 272a18.65 18.65 0 001.68-.91 4.34 4.34 0 00.76-.88c-.45-.24-.93-.72-1.34-.67-1.11.12-1.54 1.15-1.1 2.46zm-101.25-53.85l1 2.12c.61-1.56.43-2.52-.48-2.85-.67-.24-1.44-.24-1.72.61-.12.32.11.77.24 1.46zm135.61-66.52l-2.38-1.81c-1 .59-.71 1.2-.15 1.72 1.1 1.03 1.71 1.04 2.53.09zM229.26 168.7l.24.28c.34-.35 1-.8.95-1a3 3 0 00-1.11-1.53 1.64 1.64 0 00-1.45.27c-.31.25-.31.88-.44 1.34l.3.09 1.23-1.32.38.14zm25.4-33.45l-.51-.24-1.21 1.77a15.11 15.11 0 002.13.87c.18 0 .52-.51.79-.79l-.31-.27-1.18.92zm54.6-13.19c-.72-.41-1.4-.79-2.06 0s.11 1.14.49 1.61c.15.18.23.52.4.57a4.16 4.16 0 001.06 0 2.94 2.94 0 00-.27-.9 4.16 4.16 0 00-.79-.71zm5.25 2.5l-1.72-1.25.83-.46-.17-.34c-.5.25-1.15.39-1.47.79-.16.21.11 1 .42 1.3a1.49 1.49 0 002.11-.04zm-68.92 127.52c-.48.12-.82.49-.55 1.28s2.39 1.79 3 1.44c.17-.1.2-.45.29-.68a6.53 6.53 0 00-.77-.14c-.36 0-.9.09-1-.1a9.74 9.74 0 01-.97-1.8zm103.31 8l-3.1 1.84c1.38.9 2.92.13 3.1-1.85zm-116-25c-1.23-1.39-1.77-1.42-2.44-.18a5.18 5.18 0 01.87.56c1.09 1.07 1.08 1.08 1.6-.39zm-9.55-27.61a2.06 2.06 0 00.15-2.64c-.71-.6-1.33-.52-2 .31a2 2 0 011.88 2.32zM285.74 125v.46a5.62 5.62 0 001.81-.26c.17-.08.14-1-.08-1.4s-.78-.29-1.2-.42l-.09.29.77.74zm59.69 135.68l.28.37 2.26-1.68c-1.49-.62-2.23-.12-2.54 1.28zm24.29-94.22a6.28 6.28 0 00-1.28-.66c-.11 0-.54.52-.49.59a2.24 2.24 0 00.88.85c.11.03.48-.44.89-.81zm-146.31 43l1.88.54-.61-1.72zm105.85 60l.4-.2c-.12-.38-.14-.86-.39-1.1s-.66.1-1.2.22z"/><path d="M206.58 244.33c-1.54-1-3-2-3.69-3.79-1.11-3-2.41-5.92-3.33-9s-1.39-5.9-2.07-8.86c-.26-1.08-.66-2.13-.83-3.23-.37-2.34-.62-4.7-.93-7.06a5.47 5.47 0 00-.19-.8c-.94-3.34-.61-6.82-1.15-10.21a26.87 26.87 0 01.05-5c.07-2.1.13-4.21.27-6.31.07-1 .31-2 .48-3 .48-2.7 1-5.4 1.45-8.1.14-.81-.28-1.87 1.1-2-1-1-.26-2-.09-2.89.1-.55.19-1.1.34-1.64.42-1.45.8-2.93 1.31-4.35.83-2.37 1.74-4.7 2.63-7 .64-1.69 1.19-3.42 1.95-5.05.94-2 2.05-3.94 3.09-5.91a4.08 4.08 0 00.31-.63c1-2.89 3-5.18 4.66-7.67a79.34 79.34 0 015.16-7.26c2.88-3.37 5.35-7.12 9-9.8 2-1.43 3.62-3.3 5.48-4.89s3.63-3.09 5.58-4.45a116 116 0 019.95-6.54 139.58 139.58 0 0112.74-6.16 83.33 83.33 0 0110-3.43c3.49-1 7.06-1.76 10.63-2.45a74.88 74.88 0 018.57-1.21c3.91-.31 7.85-.55 11.77-.47 3.53.06 7.06.52 10.58.92 2.72.31 5.45.68 8.13 1.2a58.56 58.56 0 0111.68 3.19c2.6 1.1 5.37 1.82 8 3 3.5 1.55 6.92 3.3 10.34 5a52 52 0 015.93 3.32c3.71 2.54 7.37 5.16 10.92 7.93a85.11 85.11 0 017.71 6.74 115.12 115.12 0 018.17 8.93c2.18 2.66 4 5.61 5.94 8.46 1.22 1.8 2.41 3.61 3.47 5.5 1.2 2.12 2.3 4.31 3.36 6.5a64.5 64.5 0 012.71 6.15c1.4 4 2.72 8 3.9 12.08.91 3.14 1.6 6.35 2.29 9.55a45.17 45.17 0 01.65 4.77c.29 2.85.54 5.7.77 8.55.06.66 0 1.33 0 2 0 3.12.27 6.26.09 9.38a79.82 79.82 0 01-1.17 8.39c-.4 2.48-.81 5-1.4 7.43-.64 2.67-1.43 5.32-2.26 7.94a62.5 62.5 0 01-2.31 6.31c-1.54 3.53-3.09 7.06-4.9 10.45a105.13 105.13 0 01-5.95 9.74c-2 2.88-4.17 5.6-6.41 8.27-2 2.32-4.24 4.38-6.14 6.74a37.08 37.08 0 01-6.54 5.8c-3.72 2.86-7.58 5.55-11.47 8.17-2 1.36-4.22 2.45-6.37 3.62s-4.35 2.42-6.6 3.47c-1.95.92-4 1.65-6 2.39-2.7 1-5.39 2-8.17 2.78-3.78 1-7.62 1.8-11.45 2.59a71.34 71.34 0 01-12.37 1.23c-3.45.11-6.91.32-10.35.21a78.23 78.23 0 01-8.75-.94c-4-.58-7.92-1.2-11.84-2a55.42 55.42 0 01-6.89-2c-3.21-1.11-6.41-2.27-9.55-3.56a65.72 65.72 0 01-7.82-3.7c-3.81-2.19-7.46-4.65-11.17-7a.94.94 0 00-.23-.1c-2.93-1-4.75-3.56-7.11-5.37-1.67-1.27-3.25-2.66-4.8-4.07-.83-.75-1.48-1.72-2.3-2.49a93 93 0 01-8.92-10.1 70.26 70.26 0 01-6.61-9.39c-.94-1.62-1.73-3.32-2.58-5-.28-.55-.28-1.11.4-1.23a1.35 1.35 0 011 .62c2.25 3.61 4.28 7.38 6.74 10.84 2.25 3.19 4.94 6.06 7.44 9.06a32.13 32.13 0 002.85 3.3 131.56 131.56 0 0011.7 10.26 113.09 113.09 0 0010.71 6.93c2.52 1.41 5 2.93 7.59 4.16 2.9 1.37 5.93 2.43 8.88 3.69a82.58 82.58 0 0013.66 4.14 68.33 68.33 0 008.78 1.42c4.45.45 8.93.86 13.4.94 3.5.06 7-.47 10.51-.6a70.28 70.28 0 0010-1.38 102.11 102.11 0 009.92-2.76c2.68-.8 5.36-1.63 8-2.58 1.57-.56 3-1.4 4.56-2.09 1-.45 2-.77 3-1.28 3.58-1.91 7.25-3.68 10.65-5.86a69.17 69.17 0 0010.82-8c2.11-2 4.63-3.63 6.61-5.76a151.05 151.05 0 0010.65-12.4 81 81 0 009.18-15.22 105.66 105.66 0 004.36-10.53 148.41 148.41 0 004-14.92 84.46 84.46 0 001-10.57 83.66 83.66 0 00.46-9.08 117.58 117.58 0 00-1.05-12.54 121.64 121.64 0 00-3.08-14.2 63.73 63.73 0 00-4.37-11.76c-.94-1.89-1.62-3.91-2.47-5.85a22.56 22.56 0 00-1.19-2.07c-1.73-3.07-3.29-6.26-5.24-9.19a98.06 98.06 0 00-6.36-8.19c-2-2.39-4-4.75-6.24-7s-4.49-4.16-6.83-6.13-4.63-3.88-7.11-5.6c-3-2.06-6-4-9.16-5.77a89.53 89.53 0 00-16.55-7.63c-3.78-1.23-7.64-2.29-11.52-3.16-4.41-1-8.87-1.77-13.35-2.43a67 67 0 00-6.82-.3 38.09 38.09 0 00-4.26-.21c-3.58.23-7.14.57-10.71.94-2.63.27-5.27.57-7.89 1a54.31 54.31 0 00-6.16 1.4c-4.5 1.27-9 2.54-13.43 4a43.85 43.85 0 00-6.23 2.78c-3.43 1.75-6.9 3.46-10.15 5.49s-6.56 4.49-9.72 6.89a58.31 58.31 0 00-5.4 4.79c-2.73 2.7-5.54 5.36-8 8.3-2.71 3.27-5.13 6.79-7.56 10.28a74.06 74.06 0 00-4.37 7.06c-1.38 2.56-2.46 5.29-3.75 7.91a84.7 84.7 0 00-4.2 11.44 75 75 0 00-2.33 8.92c-.68 3.7-1 7.47-1.53 11.21-.14 1-.36 2.05-.44 3.09s0 2.05 0 3.08v2.72c0 .91.05 2.08.1 3.12.11 2.32.2 4.64.36 6.95.11 1.56.27 3.13.52 4.68.44 2.76 1 5.52 1.45 8.28a64.48 64.48 0 003.44 12.1c1.36 3.61 2.84 7.13 4.28 10.68z"/><path d="M252.23 127.1c.13-.35.15-.84.4-1 .83-.68.72-1.35.18-2.11l-4.29-6a3.74 3.74 0 00-2.45-1.74 1 1 0 01-.27-1.7c1.42-.9 2.9-1.71 4.37-2.53q1.31-.73 2.64-1.38c1.53-.74 3.06-1.49 4.62-2.15.75-.32 1.36.21 1.06.87-.79 1.72.26 3 .84 4.37a37.94 37.94 0 002.69 4.82c1 1.59 1.71 1.65 3 .43.21-.19.44-.36.83-.67-1.27-2.73-2.52-5.53-3.89-8.27a1.77 1.77 0 00-1.54-.52c-.79.16-1.29 0-1.51-.71s.26-1.21.94-1.43c1-.34 2.08-.62 3.07-1a7.3 7.3 0 001.42-1 9.41 9.41 0 001.67-.23c1.36-.42 2.68-1 4-1.4 1.17-.39 1.75 0 2.2 1.16a24.62 24.62 0 001.21 2.73 1.36 1.36 0 01-.53 1.88c-.62.48-1.32.69-1.91-.1a11.47 11.47 0 01-1-1.49c-.92-1.84-2.71-1.53-4.63-.34l1.82 2.89a10.2 10.2 0 01.51-1.35 2.22 2.22 0 01.81-.9 1 1 0 01.86.39 17 17 0 011.33 3.54c.23 1.13-.47 1.5-1.57 1-.38-.17-.74-.38-1.42-.74.65 1.54 1.14 2.78 1.69 4a1.55 1.55 0 002.1.25 3 3 0 001.16-3 2.74 2.74 0 01.5-2c.91-1 1.93-.75 2.49.54.39.88.85 1.73 1.23 2.61.68 1.62.08 2.42-1.62 2.74a41.18 41.18 0 00-5.14 1.49c-1.55.51-3.07 1.13-4.61 1.67a4.19 4.19 0 01-1 .09 6.07 6.07 0 01-1.33 1.09 54.2 54.2 0 00-9.12 5.07 4.67 4.67 0 01-1.54.43zm4.6-4.57c1.44 0 2-.76 1.55-1.87a12 12 0 00-.95-1.81 1.58 1.58 0 00-2.87.09.77.77 0 00-.05.64q.84 1.32 1.77 2.58a1.63 1.63 0 00.55.37zm-4.38-9.82c-.77.93-1.15 1.86-.48 2.9a1.44 1.44 0 001.86.73c.55-.28 1.36-1 1.28-1.39a2.78 2.78 0 00-2.66-2.24zM210.84 240.36c.74.09 1.49.16 2.23.27a5.57 5.57 0 012 .41.83.83 0 010 1.54 10.69 10.69 0 01-3.23 1.56c-1.28.2-2.06-1-2.59-2a38.72 38.72 0 01-1.84-4.29c-1-2.64-2-5.27-3-7.94a17.57 17.57 0 01-.74-3.38 1.44 1.44 0 01.59-1.1 1.17 1.17 0 011.12 0c1.25 1.36 2.39.37 3.6 0-.26-.95-.49-1.83-.73-2.71 0-.11-.11-.3-.16-.3a8.93 8.93 0 00-2.2.1c-.43.11-.78.59-1.11 1s-.43.9-.54.87c-.49-.1-1.23-.27-1.36-.61a23.13 23.13 0 01-1.18-4.13c-.19-1.06.59-1.69 1.47-1.13 1.09.7 2 .25 3 .1 2.18-.32 4.34-.73 6.49-1.18.41-.08.74-.5 1.13-.73a5.05 5.05 0 011.67-.87c.23 0 .72.73.86 1.2a30.21 30.21 0 01.72 3.4 1 1 0 01-1.59.94c-1.37-1-2.66-.51-4-.1-.23.07-.6.34-.58.47a12.44 12.44 0 00.62 2.78c.06.17 1.06.16 1.49 0a19.54 19.54 0 002.71-1.61 1.23 1.23 0 012 .66c.53 1.38 1 2.79 1.36 4.21a1 1 0 01-.44.88c-.36.17-1.05.28-1.22.08-.81-.91-1.69-.52-2.58-.34-1.68.33-3.36.7-5 1-1.88.3-2.54 1.19-1.87 2.7a10.65 10.65 0 012.2-.33c.41 0 1.07.49 1.11.81a2.08 2.08 0 01-.58 1.49 8.51 8.51 0 01-1.75 1.14l.08.4a3.81 3.81 0 001.38 0c2-.68 3.9-1.44 5.85-2.16 1-.37 2-.64 1.64-2.12-.08-.37.47-1.11.9-1.31.67-.31.94.26 1.26.89a9.49 9.49 0 011.1 5.22c-.1 1-.34 1.18-1.28.75a1.91 1.91 0 00-1.37-.09c-2.55 1-5.08 2.06-7.61 3.11zM378 159.87c.82-.35 1.54-.67 2.27-1s1.49-.36 1.92.4-.1 1.31-.8 1.6c-1.32.55-1.21 1.77-.94 2.69a4.84 4.84 0 001.73 2.13c.48.38 1.78-.7 1.67-1.39-.19-1.11-.51-2.19-.79-3.28a3.69 3.69 0 012.74-4.76 4.29 4.29 0 012.8.37 6 6 0 013.06 4.33c.05.35.54.61.78.94a5.23 5.23 0 011.07 1.69c.07.33-.5 1-.93 1.19a12.75 12.75 0 01-2.62.85 1.18 1.18 0 01-1.25-1.54 7.14 7.14 0 00.85-2.1 6.5 6.5 0 00-.65-2.64 1.35 1.35 0 00-1.26-.42 1.44 1.44 0 00-.63 1.17 10.86 10.86 0 00.48 2.7c.5 1.63-.2 3-.9 4.32a4 4 0 00-.51 1.53 32.58 32.58 0 01-4.31 0 4.1 4.1 0 01-3.2-3c-.33-.89-.24-1.93-.58-2.81a4.77 4.77 0 00-1.39-2c-1.38-1.11-1.71-2.78-2.49-4.2-.4-.74-.82-1.47-1.15-2.24-.15-.36-.28-1-.12-1.16a1.91 1.91 0 011.36-.3c.64.11 1.25.44 1.62-.53-.62-.81-1.24-1.7-1.95-2.51a1.34 1.34 0 00-1.07-.44c-.32.09-.53.59-.74.94a12.81 12.81 0 00-.59 1.17 6.68 6.68 0 01-1.37-.75 11.68 11.68 0 01-1.81-2.11 4.75 4.75 0 01-.36-1.64c.5-.07 1.19-.38 1.46-.16 1.56 1.25 3.14.87 4.82.41 2.08-.58 4.2-1 6.29-1.5a2.19 2.19 0 001-.57 1 1 0 011.75.09 15.15 15.15 0 011.58 2.7 1.18 1.18 0 01-.19 1c-1.44.24-1.95 1.54-2.75 2.43-1.29 1.42-2.26 3.13-3.53 4.57a2.38 2.38 0 00-.49 2.92 3.61 3.61 0 01.12.91zm-2.21-11l1.31 2 2.2-2.58-.2-.36zM223.75 156.79a23.41 23.41 0 00.13-2.37 1.08 1.08 0 00-.51-.7c-2.24-1.24-4.48-2.47-6.76-3.63a1.33 1.33 0 00-1.21.19c-.78.85-1.44.38-2.13 0-.86-.51-.53-1.16-.12-1.73 1.26-1.75 2.51-3.5 3.88-5.17a1.62 1.62 0 011.53-.21c.36.18.45.9.64 1.4s.17 1.11.49 1.35c2 1.47 4.14 2.88 6.26 4.24a1.33 1.33 0 001.21-.17 2.1 2.1 0 00.13-3c-.86-1.14-.9-1.8 0-2.34a1.46 1.46 0 011.26 0c.77.43 1.41 1.07 2.15 1.55a1.24 1.24 0 01.42 1.94c-1.44 2.12-2.95 4.18-4.43 6.27a15.87 15.87 0 00-.87 1.42c-1.08 2.05-2.12 4.13-3.22 6.18-.59 1.09-1.16 1.09-2 .08-.91-1.16-1.92-1-2.52.33-.14.33-.56.63-.54.92a3.83 3.83 0 00.54 1.56c0 .1.69-.16 1.07-.24s1-.2 1.47-.3a4 4 0 01.14 1.47c-.39 1.21-.9 2.38-1.4 3.55a1.18 1.18 0 01-1.7.67c-.26-.12-.57-.75-.47-.94.61-1.15-.09-2-.7-2.69-1.07-1.26-2.29-2.39-3.43-3.58-1.34-1.38-2.68-2.77-4-4.17-.54-.57-.5-1.07.09-1.69a2.68 2.68 0 012.75-.92c2.95.57 5.91 1.08 8.89 1.41a9.1 9.1 0 002.96-.68zm-8 5.34c.31-1.38.07-1.6-1.23-1.33zM310.88 112.51a9.56 9.56 0 011.32.95 1.31 1.31 0 01.33.89c0 .13-.45.34-.71.35-1.22.07-2.45.13-3.68.11s-2.17-.19-3.26-.21h-4.79c-.84 0-1.59-.27-1.75-1.14-.06-.35.41-1.12.65-1.12.94 0 1.12-.37 1.32-1.27.58-2.54.19-5-.09-7.53 0-.34-.35-.64-.48-.87a7.87 7.87 0 01-1.64 2c-1.09.66-1.72.16-1.78-1.11 0-.84-.16-1.68-.23-2.52-.06-.66.25-1 .92-1 .88.09 1.74.3 2.61.34s2-.05 3 0 2.08.13 3.12.15a8.7 8.7 0 011.67-.1c.6.14 1.53.47 1.62.87a7.5 7.5 0 010 3c-.21 1-1.68 1.14-2.46.3a9.46 9.46 0 00-1.5-1.61c-.18 1.11-.44 2.21-.51 3.33-.09 1.46 0 2.94 0 4.4a1.82 1.82 0 001.18 2 2.71 2.71 0 003.08-.83c1.65-3.1 3.29-6.22 4.89-9.35.51-1 1-1.21 2-.74a3 3 0 011.7 2.81 61.65 61.65 0 001.52 8.38c.29 1.25 1.47 1.69 2.68 1.79.14 1.59-.49 2.08-2 1.74s-3.05-.58-4.55-1a2.15 2.15 0 01-1.22-.93c-.5-.86.21-1.27.86-1.6-.06-1.48-.9-1.94-2.21-1.93-1.04.02-1.12.05-1.61 1.45zm3.18-3.5l-.42-1.5h-.3l-.64 1.49zM394.16 172.9a.92.92 0 00-.28 0c-2.49.62-2.79 1.26-1.73 3.71.09.21.45.49.6.45.94-.27 2.1 0 2.71-1.18a1.71 1.71 0 011.36-.66c.26 0 .54.74.7 1.19a22.39 22.39 0 01.84 3c.1.54.12 1.44-.19 1.64a1.92 1.92 0 01-1.73-.05c-1.23-.78-2.29 0-3.38.19a42.06 42.06 0 00-4.95 1.22c-.46.14-.76.74-1.16 1.11s-.63.75-.95.76a1.44 1.44 0 01-1.14-.63 26.43 26.43 0 01-1.16-4.27c-.18-1.07.46-1.34 1.51-1.08a7.23 7.23 0 004.6-.76c.12 0 0-.69 0-1.06s-.2-.86-.24-1.29c-.07-1-.55-1-1.31-.68-.58.27-1.21.43-1.8.67s-1.28.55-1.25 1.54c0 .37-.61.85-1.06 1.1-.12.07-.78-.49-.91-.86a44.71 44.71 0 01-1.5-4.68 2.17 2.17 0 01.48-1.52c.1-.13.83.19 1.27.32s.87.45 1.2.35c2.43-.73 4.84-1.53 7.23-2.37.34-.12.56-.61.81-.94s.56-1.17.88-1.19a1.75 1.75 0 011.42.74c.61 1.38 1 2.85 1.5 4.29v.36c.32.58.73 1.24-.13 1.62a1.51 1.51 0 01-2-.65c-.06-.16-.16-.29-.24-.39zM369.37 138.47c-1.32.61-2.31 1.16-3.36 1.54a8.81 8.81 0 01-3.14.79c-1.2-.05-1.4-.65-.91-1.74 1.29-2.88 2.59-5.74 3.93-8.6a2 2 0 000-2.36 1.43 1.43 0 01.15-1.37 1.41 1.41 0 011.38 0 31.39 31.39 0 012.67 2.74c.29.33.48.75.75 1.09 1 1.29 1 1.31-.28 2.41l-.52-.23-.67-.28-2.29 4.94c1.63-.46 2.88-.72 4.06-1.18.43-.17.68-.79 1-1.2s.63-1 1-1.11a1.93 1.93 0 011.46.54 16.56 16.56 0 011.62 2c-.29.17-.56.45-.8.43-1.21-.1-1.7.53-2 1.62a20 20 0 01-.95 2.06 10.21 10.21 0 00-.34 1.66c1.25-.43 2.29-.8 3.35-1.14.67-.21.74-.69.77-1.32a6 6 0 01.48-1.48 5.88 5.88 0 011.65.73 19.54 19.54 0 012.2 2.43 4.86 4.86 0 01.53 1.3c-.55.17-1.32.66-1.61.46-2.27-1.54-4.3-.33-6.33.45-1.86.72-3.63 1.65-5.47 2.42a1.73 1.73 0 01-1.2-.06 3 3 0 010-1.79c.74-1.59 1.64-3.1 2.47-4.65a9.42 9.42 0 00.4-1.1zM208.94 209.75c1.05-.06 2.09-.1 3.14-.19.11 0 .27-.31.28-.47a2.55 2.55 0 00-3-2.81c-1 .09-1.45-.29-1.56-1.17s.6-1.49 1.55-1.62c1.32-.17 2.65-.89 3.94 0 .38.27.88.66.94 1.05.4 2.82.7 5.65 1 8.48.13 1.19-.62 1.87-1.52 1.21-2.21-1.64-4.33-.13-6.48-.07a16 16 0 00-1.95.51 2.74 2.74 0 00-1.88 1.47c-.27.43-.94.61-1.43.9-.19-.48-.41-1-.58-1.46a24.77 24.77 0 01-.73-2.51c-.39-2.08-.72-4.18-1.07-6.27a2.16 2.16 0 010-.44c.18-1.61.65-1.94 3.14-2.13h1.58c.84 0 1.67-.15 1.61 1.17s-.44 1.82-1.65 1.89c-1.54.09-2.23.93-1.76 2.33a1.69 1.69 0 001.13.92 7.17 7.17 0 002.14-.23c.18 0 .46-.35.43-.47s-.3-.4-.48-.58-.83-.52-.88-.85c-.1-.61.27-1 1-1 1.23-.15 2.43-.48 3.66-.63a1.15 1.15 0 011 .49 1.54 1.54 0 01-.27 1.2 7.08 7.08 0 01-1.33 1zM376.55 254.45c.72.69 1.23 1.24 1.8 1.7s1.18 1 2 .42a3.31 3.31 0 011.33-.16c0 .59.32 1.28.11 1.76a16.18 16.18 0 01-1.59 2.41 1.64 1.64 0 01-2 .72 1.34 1.34 0 01-.64-1.88c.42-1-.26-1.46-.84-1.86-1.78-1.24-3.6-2.4-5.43-3.56a11.15 11.15 0 00-1.18-.47c-.41-.2-1.1-.46-1.11-.72a2.57 2.57 0 01.48-1.78 2.51 2.51 0 011.64-.36h9.34l.14-.54a15.49 15.49 0 00-1.39-.88 28.19 28.19 0 00-3.33-1.59c-.33-.12-.87.31-1.31.48s-1 .5-1.1.39c-.37-.41-.94-1.16-.79-1.45a35.69 35.69 0 012.58-4.1 1.16 1.16 0 011.06-.16c.3.42.66 1.08.52 1.47-.4 1.09.09 1.38 1 1.84 1.41.73 2.68 1.75 4 2.6a5.68 5.68 0 001.94.89c.5.08 1.07-.38 1.62-.48a7.55 7.55 0 011.5 0 4 4 0 01-.19 1.46 16.79 16.79 0 01-2 2.84 2.78 2.78 0 01-1.73.79c-1.68.1-3.37 0-5.05 0a12.68 12.68 0 00-1.38.22zM400.33 199.61c.05.57.1 1.15.14 1.72a36.79 36.79 0 00.33 4.08c.14.75-.08 1.23-.63 1.32s-1.28-.3-1.35-.61c-.41-1.74-1.57-1.86-3-1.77-2.35.15-4.7.19-7.05.26-1.64 0-1.67 0-2.11-1.8-.27-1.11.25-1.62 1.34-2.13a17.71 17.71 0 006.21-4.1l-.11-.41c-1.57.17-3.15.28-4.71.55-.36.07-.6.71-.95 1s-.72.71-1.05.67-.68-.58-.73-.95c-.17-1.19-.14-2.42-.33-3.61-.1-.67-.27-1.25.61-1.34s1.55-.16 1.77.95a1.25 1.25 0 00.95.71c2.25.06 4.5 0 6.75 0 1 0 1.68-.35 1.76-1.54a1.56 1.56 0 011-1.06c.24-.07.95.52 1 .88a37.08 37.08 0 01.28 4 .88.88 0 01-.29.59c-1.71 1.32-3.44 2.64-5.17 3.94-.61.44-1.25.84-1.88 1.26l.1.38a40.29 40.29 0 004.11-.42c.39-.08.64-.78 1-1.17.47-.55 1-1.07 1.47-1.61zM211.61 175c1 .2 1.92.44 2.89.58.74.11 1-.36.87-1a2.61 2.61 0 00-1.8-2.32 1.92 1.92 0 01-1.1-1c-.36-.89.44-1.66 1.45-1.46a23.55 23.55 0 013.37.77 1.46 1.46 0 01.74 1.21c-.38 1.58-1 3.1-1.41 4.68-.31 1.15-.4 2.36-.67 3.53a2.34 2.34 0 01-.7 1.18c-.62.53-1.35.23-1.33-.59a1.22 1.22 0 00-1-1.33c-2.45-.56-4.93-1-7.4-1.52a1.22 1.22 0 00-1.57.93c-.25.82-.8 1.3-1.63 1s-.78-1.19-.59-2c.33-1.3.54-2.64.93-3.92.61-2 1.29-3.93 2.07-5.84a1.63 1.63 0 011.36-.73 14.49 14.49 0 013.19 1 1 1 0 01.39 1 2.8 2.8 0 01-1 1 1.66 1.66 0 01-1 0c-1.38-.19-1.68.77-1.94 1.8s.21 1.51 1.08 1.84c.69.26 1.32 1 2.21.15a4.57 4.57 0 01-1-.74c-.2-.3-.43-.85-.29-1.06.23-.38.79-.87 1.13-.81a21 21 0 013.8 1c.49.19.8.82 1.2 1.25-.46.23-.91.48-1.38.69-.31.14-.64.23-1 .34zM392.47 207.39a7.28 7.28 0 016.18 3.28 5.31 5.31 0 01.5 4.69 4.25 4.25 0 000 3.25c.58 1.29-.36 2.33-1.75 2.13a13.43 13.43 0 01-2.46-.51 1.5 1.5 0 01-.89-.94 1.61 1.61 0 01.58-1.13c.65-.6 1.44-1 2.09-1.63a1.92 1.92 0 00.08-2.89c-1.25-1.41-3-1.6-4.69-1.77a22 22 0 00-3 .31 1.55 1.55 0 00-1.66 1.67 2.51 2.51 0 004 1.7 2 2 0 011.56-.22c.8.29.5 1 .33 1.64-.35 1.23-.57 2.5-1 3.7a2.31 2.31 0 01-1.05 1.19c-.63.31-1.26.15-1.23-.75 0-1.17-.63-1.24-1.53-1.16a1.35 1.35 0 01-1.08-.29c-1.46-2.27-2.85-4.68-1.93-7.46a6.65 6.65 0 016.95-4.81zM340.69 115.42l2.77-1c-.16 2-1.18 3.4-1.8 4.87-1.47.08-1.19-1.39-2.1-2.29l-1.85 4c1.29.72 2.39 1.7 3.76.61a3.65 3.65 0 001.08-1.51c.4-1 1.18-.81 1.83-.65.86.21.44.9.25 1.39-.47 1.23-.94 2.47-1.52 3.64-.43.87-1.19.8-2 .42q-3.79-1.78-7.6-3.54a7.07 7.07 0 01-1.31-.59 1.44 1.44 0 01-.59-1 1.26 1.26 0 01.89-.79c1.76 0 2.37-1 2.81-2.55a30.65 30.65 0 011.85-3.72c.39-.88 1.26-1.85-.09-2.77a1.14 1.14 0 01-.06-1.12c.29-.3 1-.59 1.27-.44 2.16 1.15 4.58 1.85 6.42 3.61.45.43 1.34.36 2 .6 1.32.5 1.41.86.67 2.15-.45.81-.83 1.66-1.33 2.43-.2.31-.68.67-1 .62a1.51 1.51 0 01-1-.81 3.24 3.24 0 01-.2-2c.49-1.29-.14-1.92-1.11-2.4a1.42 1.42 0 00-1.24 0 2.47 2.47 0 00-.8 2.84zM294.61 100.61c.14 1 .28 1.85.34 2.69 0 .29-.1.78-.28.84a2.56 2.56 0 01-1.55.18 3.58 3.58 0 01-1.55-1.08c-.71-.85-1.62-.69-2.47-.6-.34 0-.64.56-1 .86.3.25.58.68.9.71a10 10 0 014.69 1.49 6.43 6.43 0 013.11 5 3.6 3.6 0 01-1.33 2.56 5.76 5.76 0 01-6.28 1c-.64-.28-1.09-.46-1.53.42-.2.4-1.08.6-1.64.6-.25 0-.59-.73-.7-1.18-.26-1-.3-2-.6-2.89s-.33-1.5.63-1.87a1.87 1.87 0 012.41.75c.8 1.93 1.3 2.49 3.92 2.3a1.9 1.9 0 001.4-.83 1.65 1.65 0 00-.29-1.56 5.44 5.44 0 00-2.58-1.29 10.33 10.33 0 01-3.7-.88 3.51 3.51 0 01-2.21-3.17 3.06 3.06 0 012.1-3 21.76 21.76 0 014.33-1.16 15.86 15.86 0 012.75-.31 3.56 3.56 0 011.13.42zM312.67 283.72c3.82.29 7.6 3.49 7.22 7a8.43 8.43 0 01-1.35 3.39 7.62 7.62 0 01-5.8 3.88 5.68 5.68 0 01-4.56-1.79 1 1 0 01.12-1.58 1.24 1.24 0 011.83 0c.58.51 1.13 1.32 1.79 1.41a2.56 2.56 0 002-1 7 7 0 00.72-2.31c-.31-.06-.65-.23-.92-.15-2.85.91-5.19 0-7.26-2a2.07 2.07 0 01-.52-2.72 5.26 5.26 0 013-2.79c1.27-.29 2.49-.86 3.73-1.34zm-.55 2.36a3 3 0 00-2.2 2.4c0 1.11 1.65 2.32 3.17 2.34.65 0 1.54-1.08 1.54-1.89.01-1.35-1.35-2.93-2.51-2.85zM282 289.28c-.45-1.12-.94-2.17-1.26-3.26a1.54 1.54 0 01.48-1.14 5.64 5.64 0 017-1.14c.51.29 1.19.44 1.54.86.46.58 1.05 1.46.91 2s-1.06 1.19-1.76 1.9a14.51 14.51 0 011.76 1.85c1.68 2.43 1 4.39-1.3 6.14a7.33 7.33 0 01-6.61 1.23 11.53 11.53 0 01-2.63-1.62 1.93 1.93 0 01-.35-.35c-.43-.48-1.25-1-1.22-1.46.09-1.37.23-2.84 1.55-3.75zm0 3.72c0 1.82 1.13 2.89 3.25 3a2.33 2.33 0 002.24-2c0-1.36-1.65-3.53-2.69-3.49A3 3 0 00282 293zm1.59-7.24c.93.5 1.8 1 2.72 1.42.34.14 1.13 0 1.19-.16a2 2 0 000-1.53c-.99-1.49-2.56-1.42-3.88.23z"/><path d="M301.93 289.81c.57.66 1.12 1.35 1.71 2 1.49 1.66 1.53 3.28.09 4.94-1.89 2.18-4.25 2.58-7.06 2.43-2-.11-3-1.29-4.15-2.42a2.12 2.12 0 010-3.18l.52-.52c.52-.49 1.33-.91 1.47-1.49s-.59-1.14-.89-1.73a3.56 3.56 0 011.68-4.33 7.33 7.33 0 016.08-.45c2.31.77 2.46 2.55.55 4.75zm-2.93 7.9a6.36 6.36 0 002-1.25 2.06 2.06 0 00-.23-1.84 5.9 5.9 0 00-2.13-1.85c-1.84-.87-3.17.26-2.92 2.29a3.5 3.5 0 003.28 2.65zm-2.3-10.26a2.82 2.82 0 002.67 1.39c.36 0 1-.35 1.06-.62a1.66 1.66 0 00-.49-1.31 2.48 2.48 0 00-3.24.54zM206.07 183.86c-.58.57-1.17 1.17-1.79 1.74s-1.45 1.25-1.25 2.33a4.52 4.52 0 00.62 1.13c1.16-1.71 2-3.25 3.17-4.6a5.12 5.12 0 015.72-1.9 4.85 4.85 0 012.19 7 2.07 2.07 0 00-.21 2.07c.47 1.36-.16 2.05-1.57 1.87-.93-.12-1.88 0-2.8-.19-.49-.09-1.35-.62-1.31-.82a4.54 4.54 0 01.93-1.91c.2-.25.75-.21 1.14-.31a2.92 2.92 0 002.22-3 1.52 1.52 0 00-2.43-.94c-1 .86-1.64 2-2.52 3a24.55 24.55 0 01-3 2.79 2 2 0 01-1.66.06 4.59 4.59 0 01-2.91-5.48 4.79 4.79 0 00-.11-1.68c-.3-1.42.07-2.31 1.44-2.34s2.96-.51 4.13 1.18zM242.19 119.56c.55.74 1.08 1.49 1.66 2.2 1.38 1.71 2.74 3.44 4.21 5.07a1.84 1.84 0 001.57.51c.94-.34 1.46 0 2.13.91-.66.57-1.3 1.18-2 1.72-1 .8-2.12 1.59-3.23 2.3-.35.22-1.14.39-1.23.25a1.84 1.84 0 01-.37-1.45 1.78 1.78 0 00-.47-2.25c-1.59-1.64-3.07-3.38-4.61-5.08a2.53 2.53 0 00-.68-.63 3.87 3.87 0 00-1-.19 3.14 3.14 0 00-.13 1c.1.46.48.89.5 1.34s0 1.31-.37 1.56a1.71 1.71 0 01-1.55-.22 28.88 28.88 0 01-2.34-2.23c-.62-.59-.23-1.11.19-1.43 2.83-2.17 5.73-4.26 8.55-6.45a1.35 1.35 0 012.22.26 17.25 17.25 0 011.44 1.78c.22.39.33 1.17.11 1.4a1.75 1.75 0 01-1.46.29 24.49 24.49 0 01-2.72-1.09zM385.15 246.67c-2.73.19-4.52-1.12-6-3.28a7.37 7.37 0 01-1.64-4.51 5 5 0 013.77-4.3 20.77 20.77 0 014.2-.46c2.71.17 4.16 2.13 5.38 4.29s.54 4.05-.64 5.7a5.4 5.4 0 01-5.07 2.56zm-4.34-9.09c-.29.19-1 .44-1.29.94-.18.33.23 1.13.59 1.53 1.84 2.08 4.36 2.85 7 3.28a2.26 2.26 0 001.67-.78c.53-.58.18-1.24-.33-1.79-1.99-2.09-4.55-2.76-7.64-3.18zM394.47 227.68a2.23 2.23 0 00-.64-2.61 1.7 1.7 0 01-.45-1.41 1.49 1.49 0 011.34-.53 10.06 10.06 0 012.73 1.14c.24.15.29.93.16 1.32-.91 2.59-1.91 5.16-2.85 7.75-.28.74-.48 1.52-.71 2.28s-.58 1-1.35.65c-.94-.44-1.95-.73-2.86-1.22-.43-.23-1-.94-.95-1.16a2.52 2.52 0 011.29-1.22 10.29 10.29 0 011.94-.08 1.34 1.34 0 00.79-.64c.06-.11-.27-.59-.52-.69-2-.8-4-1.59-6.05-2.31a1.67 1.67 0 00-2.18.75 4.07 4.07 0 01-1.47 1.32c-.79.45-1.38 0-1.2-.88a14.73 14.73 0 01.71-2.16c.6-1.69 1.15-3.41 1.85-5.07a1.63 1.63 0 011.31-.73c.3 0 .75.65.84 1.08a2.46 2.46 0 001.87 2.05c2.12.69 4.18 1.53 6.4 2.37zM328.61 115.89c.18.41.37.82.54 1.24s.56 1.05.41 1.26a1.82 1.82 0 01-1.32.55 9 9 0 01-1.86-.44c-1-.24-2-.42-3-.73-.33-.1-.82-.55-.8-.79.05-.44.36-1.14.68-1.22 1.1-.28 1.35-1 1.6-2 .5-2 1.25-3.85 1.84-5.78a1.42 1.42 0 00-.1-1.16 1.28 1.28 0 00-1.14-.13 16.07 16.07 0 00-1.75 1c-.33.17-.85.5-1 .39-.3-.24-.65-.8-.55-1.09a15.16 15.16 0 011.45-3.2c.16-.25 1.18-.26 1.55 0 .53.35.87.72 1.57.42.27-.11.7.08 1 .2 2.51.88 5 1.76 7.52 2.68.68.25 1 .73.61 1.52-.35.63-.53 1.34-.91 1.94a1.25 1.25 0 01-1 .53 1.91 1.91 0 01-1.09-.76c-.36-.52-.5-1.19-.84-1.72s-.83-.66-1.09 0c-.77 2.13-1.49 4.28-2.21 6.43a2.54 2.54 0 000 .73zM386.24 191.9c-.21-1.15-.43-2.29-.61-3.44a17.43 17.43 0 01-.24-2.39c0-.84.82-1.33 1.25-.74 1.41 1.91 3.15 1 4.83.78 1.42-.2 2.83-.52 4.25-.69a1.52 1.52 0 001.44-1.18c.17-.43.82-.67 1.25-1 .26.4.68.77.76 1.21.28 1.54.46 3.1.64 4.66 0 .37.06.95-.15 1.08a1.34 1.34 0 01-1.22.11c-2.08-1.61-4.32-.33-6.47-.43a8.31 8.31 0 01-1.57 0 2.16 2.16 0 00-2 .73c-.56.45-1.07 1-1.61 1.46zM277.37 283.34c-.16.62-.37 1.56-.63 2.48-.59 2.07-1.26 4.11-1.77 6.19a2.42 2.42 0 001.09 2.75c.32.22.46.69.68 1.05a3.43 3.43 0 01-1.35.18c-1.72-.5-3.44-1-5.11-1.7a6.93 6.93 0 01-1.58-1.29 11.08 11.08 0 001.38-1.17 7.43 7.43 0 001.41-2c.49-1.26.67-2.64 1.16-3.9a1.54 1.54 0 00-.58-2c-.27-.24-.69-.75-.61-.89a1.93 1.93 0 011-.74c.89-.32 1.85-.48 2.74-.81 1.37-.49 2.2.04 2.17 1.85zM242.69 272.18a3.39 3.39 0 01-.06.76c-.19.54-.43 1.06-.65 1.58a4.81 4.81 0 01-1.54-.75 1.18 1.18 0 00-2 0 .18.18 0 01-.09.08l-1.57.67a6.48 6.48 0 01-.34-1.58c.05-1.61.08-1.6-1.67-2-.73-.17-1.06-.63-.34-1.13a7.27 7.27 0 003.29-4.5c0-.14.18-.26.36-.51a3 3 0 004 .71c.63-.33 1.34.71 1.09 1.48a2.24 2.24 0 001 2.87 7.52 7.52 0 011.22 1.35c-.57.32-1.13.67-1.72.94a2.64 2.64 0 01-.98.03zM345.88 279.71a8.59 8.59 0 01-1.77 0 1.51 1.51 0 01-1-.73c-.1-.25.16-.76.4-1s1-.54 1.23-.95a12.25 12.25 0 00.74-2.06c.18-.46.3-1.16.62-1.29a1.92 1.92 0 011.49.32c.68.42 1.29.7 2 .17s1.28-1 1.9-.34c.39.43.38 1.22.6 2.06l2.49 1.89-.12.48-2.26.74c.08.46.2 1 .27 1.6a6.29 6.29 0 010 1c-.33 0-.67 0-1-.09a.82.82 0 01-.33-.15c-1.28-.6-1.7-.44-2.43.82a6.41 6.41 0 01-1 1 10.54 10.54 0 01-1.18-1.23 3.33 3.33 0 01-.29-1c-.11-.43-.24-.77-.36-1.24zM233.58 139.41c.19 2.32-2.42 3.48-4.05 3.26a4.91 4.91 0 01-3.87-2.26c-.58-1-.75-3-.09-3.92a3.64 3.64 0 013.18-1.36 4.1 4.1 0 013.79 1.71 20.09 20.09 0 011.34 2.41zm-4.75-2.57c-1 0-1.29.72-1.34 1.54-.07 1 1.25 2.21 2.31 2.25a2 2 0 001.7-1.71 2.53 2.53 0 00-2.67-2.08zM352.52 118.79a2.5 2.5 0 013 1.65 3.56 3.56 0 01-.33 3.26 5.74 5.74 0 01-4.93 3 3.32 3.32 0 01-2.31-2.14 5.47 5.47 0 012.68-5.45 7.17 7.17 0 011.89-.32zm-.23 1.68c-.13.09-.6.24-.79.56a10.61 10.61 0 00-1 2.14 1.77 1.77 0 00.1 1.06c.5 0 1.17.12 1.49-.15a6.22 6.22 0 001.39-1.93c.52-.96.01-1.72-1.19-1.68zM232.05 132.29a11.6 11.6 0 011.66-.2c1.21 0 1.6.62 1.09 1.73-.42.94.25 1.35.74 1.81s.93 1.09.24 1.8a1.18 1.18 0 01-2-.2A13.17 13.17 0 00230 134c-1.28-.91-1.28-1.61-.18-2.76.4-.41.74-1 1.22-1.16a2.51 2.51 0 011.92 0c.79.52.09 1-.39 1.36a4 4 0 00-.52.85zM358.1 125.55c.12.14.3.27.35.44.2.57.35 1.15.51 1.73-.56.06-1.12.11-1.68.2a1.89 1.89 0 00-.93.29 16.5 16.5 0 01-1.5 1.41 4 4 0 01-1.53.19c0-.44-.18-1 0-1.31 1.11-1.66 2.25-3.32 3.52-4.86 1-1.19 2-1.12 3.11-.06a16 16 0 011.63 1.43 3.73 3.73 0 01.38 1.35 3.94 3.94 0 01-1.49.31c-.44-.09-.79-.59-1.21-.87a9 9 0 00-1-.52zM364.58 257.29a2.77 2.77 0 012.44-2.41 1.94 1.94 0 012.09 1.87 3.18 3.18 0 01-2.54 2.65 2.41 2.41 0 01-1.99-2.11zM306.21 224.58c.13-1.42-1.13-1.45-1.86-1.93-2.53-1.68-5.16-3.19-7.65-4.93a3.84 3.84 0 01-1.84-2.74 4.63 4.63 0 00-2.12-3.1c-1.47-1-2.91-2.14-4.35-3.24-.86-.65-1.72-1.32-2.51-2-.25-.22-.28-.67-.42-1 .41-.09 1-.4 1.2-.25 1.25.78 2.73 1.46 3.55 2.59 1.66 2.28 4 3.16 6.45 4a5.53 5.53 0 011.76 1.17 2.4 2.4 0 002.3.85c.83-.16 1.8.5 2.73.73 1.93.48 3.87.92 5.81 1.38h.13a10.21 10.21 0 012.81-.35 7.78 7.78 0 012.26 1.21l.29-.29-.67-1.05 5.6-3.32-.25-.52c-.69.3-1.36.63-2.07.89-1.44.52-2.9 1-4.37 1.48-.11 0-.3-.16-.45-.24.12-.18.19-.45.35-.52.58-.27 1.19-.47 1.79-.69a7.6 7.6 0 001.48-.69c-3.12-.75-6.13 1-9.48.52l.92-1.29c-.45-.8-1.65.78-2-.59l4.08-.66v-.21l-5.57.56-.14-.58 1.75-.79c-1.14-.14-2.18-.3-3.22-.4-.6-.05-1.29.1-1.08-.91 0-.08-.24-.2-.35-.32s-.37-.46-.55-.69c.27-.19.54-.56.8-.54 1.52.09 3 .28 4.55.43a1 1 0 00.6 0c1.32-.79 2.49-.13 3.6.44a9.28 9.28 0 006.6 1.15 4.4 4.4 0 012.33.39c2.28.83 3.87-.38 5.4-1.73s2.89-2.6 4.24-4a13.5 13.5 0 002.4-3.06c1.36-2.7 1.69-5.7 2.26-8.63a2.81 2.81 0 01.38-1.12 21.51 21.51 0 011.6-1.84 2 2 0 012.94-.35v3c0 .39 0 1-.23 1.12-1.37.81-.95 2.56-1.95 3.52-.35.33-.74.62-1.12.92s-.6.33-.72.58a9.25 9.25 0 00-1.19 3c-.11 1.27-1 1.91-1.54 2.86-1 1.89-2.66 3.08-4.25 4.37a4.44 4.44 0 00-1.25 1.45 1.4 1.4 0 00.19 1.3c1.89 1.53 3.88 2.94 5.79 4.46 1.26 1 3.35 1.12 3.5 3.37.05.69.78 1.34.82 2 .11 2 0 4 0 6.07a1.65 1.65 0 00.61 1q2.32 2 4.7 4c1.81 1.51 3.63 3 5.47 4.48.46.36 1.09.53 1.56.89a20.5 20.5 0 012.31 2c.87.92 1.58 2 2.47 2.89s.4 1.34-.14 2a29.53 29.53 0 01-11 7.79c-1.64.71-3.21 1.58-4.8 2.4-2.56 1.33-5 3.11-7.68 3.92-3.88 1.15-7.58 3-11.78 3.08-2.83.08-5.63.78-8.46 1.12-1 .13-2.05-.1-3.05.06-3.42.55-6.68-.67-10-.81a34.61 34.61 0 01-7.7-1.21 98.13 98.13 0 01-9.47-3.41c-2.82-1.12-5.55-2.47-8.36-3.6-1.2-.49-2.61-.51-3.77-1.06a32.2 32.2 0 01-6.07-3.41c-1.45-1.13-2.45-2.86-3.65-4.32a3.2 3.2 0 01-.56-.78 8.13 8.13 0 01-.43-1.68c-.11-.94.59-.58 1.09-.71s.67-.62 1-.94c1.4-1.35 2.4-3 4.2-4a17.31 17.31 0 003.2-2.88.74.74 0 00.22-.63c-.69-1.52.36-2.21 1.33-3a12.81 12.81 0 001-1.07c-1.4.17-1.9-.37-2.06-1.33a.85.85 0 00-.35-.58c-1.74-.77-1.88-2.35-2-3.93 0-.17.13-.49.26-.52 1.24-.28 1.18-1.64 1.93-2.32a1.8 1.8 0 00.4-1.22 2.31 2.31 0 011.81-2.39c.94-.3 1.83-.8 2.84-.15.19.11.61-.09.9-.21a1.58 1.58 0 012.29.82c.66 1.46 1.17 3 1.85 4.43.53 1.14 1.21 2.21 1.86 3.37 1.61-1.1 1.29-2.8 1.55-4.45-1.39 0-1.51-.83-1.37-1.83 0-.16.08-.38 0-.48-1-1.27-.1-2.05.72-2.86a1.72 1.72 0 00-.7-3 4.54 4.54 0 00-1.16-.26c-1.09-.13-1.5-.81-.7-1.46 2.09-1.69.73-3.6.49-5.39-.16-1.22-.36-1.19.89-2.15-.66-.06-1.05-.12-1.45-.13s-.62.15-.83 0a4.66 4.66 0 01-.88-.79c.3-.24.57-.6.91-.69.85-.23 1.73-.33 2.86-.54a1.86 1.86 0 01.4.81c.13 1.9.23 3.8.25 5.71a8.52 8.52 0 01-.38 2.1c-.34 1.3.14 2 1.62 2.15-.05-.36-.09-.69-.16-1a11.27 11.27 0 01-.32-1.51c-.06-1.33 0-1.38 1.54-1.11a12.85 12.85 0 01-.41-1.95 2.7 2.7 0 01.38-1.14 5.84 5.84 0 00.65-1.23c.12-.63 0-1.31.05-2 .14-1 .39-1.93 1.72-2.11a7.26 7.26 0 002.4-1c1.12-.61 1.92-.22 2.78.76-.37.09-.69.29-.9.21-1.31-.53-2.26.05-3.44.6-1.41.66-1.31 1.58-1.35 2.71a17.06 17.06 0 01-.33 2.75 1.75 1.75 0 001.34 2.31 1.68 1.68 0 01.9.69c.54.91 1 1.9 1.48 2.82.16.29.48.68.74.69 1.79.07 2.1 1.78 3.12 2.7.74.65 1.46 1.32 2.21 2s1.31 1.06 2.09 1.7c-1.16.68-1.84-.13-2.57-.52a21.89 21.89 0 01-2.48-1.55 15 15 0 01-1.39-1.26 8.88 8.88 0 00-1.75-1.35c1.53 2.7 3.44 4.88 6.52 6a4.69 4.69 0 013.05 2.82c.32.91 1.4 1.52 2 2.36a5.94 5.94 0 003.68 2.25 1.9 1.9 0 011.7 1.72c.12.83.34 1.64.46 2.46a2.29 2.29 0 002.25 1.86 5.61 5.61 0 011.92.74 6.59 6.59 0 005.76.34 7.69 7.69 0 012.2-.45c.18 0 .56.33.55.48s-.22.72-.44.78c-1.69.5-3.46 1.4-5.11 1.22s-3.54-.13-5-1.43a3.54 3.54 0 00-1.1-.45c-.29 2 1.13 3.05 2 4.3 1.1 1.51 2.24 3 3.31 4.52a16.49 16.49 0 011.33 2.35c.23.49.18 1.12.44 1.59.56 1.05 1.31 2 1.84 3.07.79 1.55 1.46 3.15 2.16 4.74a.83.83 0 010 .6c-.14.36-.58.8-.48 1a6.74 6.74 0 001.23 1.93 1.31 1.31 0 001.13.11c3.64-1.36 7.56-1.76 11.11-3.53a49.26 49.26 0 008.68-5.15 6.07 6.07 0 011.6-.77c1-.42 1.61-1.07 1.39-1.88-1.07-.9-1.92-1.58-2.72-2.32a4.08 4.08 0 01-.79-1.05 6.55 6.55 0 00-3.33-3.29c-1.69-.65-2.34-2.26-3.12-3.64-1.38-2.43-2.54-5-3.81-7.45q-1.23-2.4-2.53-4.76a5.8 5.8 0 00-.8-.93l-.41.1-.34 4.42-.6.07a5.54 5.54 0 01-.52-1.4c-.13-1.49-.65-2-2.1-2.38s-2.8-1.13-4.24-1.5-2.94-.37-4.38-.69a43.62 43.62 0 01-5.25-1.5c-.78-.28-1.29-1-.84-1.7l-4.99-2.42c-.86-.41-1.7-.85-2.58-1.2-.25-.09-.61.1-.92.16.07.3 0 .69.21.89a10.17 10.17 0 001.93 1.84c1.6 1 3.29 1.89 4.92 2.86 1.31.77 2.53 1.69 3.87 2.38 2.21 1.12 4.49 2.1 6.74 3.13.29.13.68.07.91.25a6.06 6.06 0 01.83 1c-.3.24-.7.74-.9.67a32.89 32.89 0 01-4.19-1.66c-1.49-.74-2.85-1.77-4.78-1.74zm.35-6l-.17.65a34.61 34.61 0 004.3 1.16c3.07.44 6.17.7 9.24 1a8.93 8.93 0 00-.06-1c-.05-.35-.19-.69-.23-1-.19-1.45-.8-1.77-2.16-1.41a14.77 14.77 0 01-4.58.83c-1.24-.09-2.18 0-2.91.75zm10.44-2.05a1.66 1.66 0 00.54.23c.82.06 1.75-.21 2.17.87a1.09 1.09 0 00.63-.18 11.94 11.94 0 001.54-1.88 12.17 12.17 0 00.79-2.09l-.59-.23c-.17.38-.32.77-.52 1.14s-.32.8-.57.87a2.42 2.42 0 01-1.53 0c-.33-.15-.48-.71-.71-1.09l-.24.37zm19.09-26.9c-.56.26-1.33.38-1.65.82a3.5 3.5 0 00-.32 1.91c0 .15.58.45.85.41 1.03-.17 1.76-2.17 1.14-3.14zm-20.65 21.26a5.57 5.57 0 00-4.78-.34c1.42 1.77 3 .13 4.8.34z"/><path d="M229.12 214c2.58 1.24 2.81 3.43 3.47 5.39.59 1.73 1.3 3.43 2 5.14s1.28 3.34 2 5a47.27 47.27 0 005.75 9.84 52 52 0 003.08 4.23c2.53 2.79 5.09 5.57 7.81 8.16a66 66 0 006.73 5.51 37.34 37.34 0 005.57 3.34 107.09 107.09 0 0010.83 4.88 99.1 99.1 0 0011.34 3 59.4 59.4 0 0015.05 1.22 54.55 54.55 0 0011-1.29c2.49-.6 5-1 7.5-1.66 1.5-.4 2.9-1.14 4.38-1.66 1.8-.63 3.7-1 5.43-1.84a45.12 45.12 0 005.18-3.06c2.8-1.79 5.65-3.54 8.32-5.51a72 72 0 006-5.21 62.21 62.21 0 004.73-4.74 53.4 53.4 0 007-10.59c1-1.84 1.9-3.68 2.89-5.49.15-.27.58-.37.86-.57s.57-.37.54-.48c-.45-1.61.51-2.92.91-4.34.52-1.84 1.07-3.67 1.58-5.51.29-1 .57-2.08.78-3.14.49-2.59 1-5.18 1.38-7.79.25-2 .17-4 .3-6.05a22 22 0 01.39-2.41l-.27.15c-.21-2.2-.35-4.4-.64-6.59-.27-2-.69-4-1.08-6a48.4 48.4 0 00-1.11-4.91 54.94 54.94 0 00-4.82-11.66c-1.55-2.66-2.82-5.47-4.39-8.11a44.71 44.71 0 00-3.41-4.53 62.24 62.24 0 00-4.1-5 55.21 55.21 0 00-5.65-5c-3.07-2.39-6.25-4.64-9.43-6.88a17.85 17.85 0 00-3.12-1.84c-3.54-1.58-7-3.33-10.7-4.59a55 55 0 00-12.44-3 7.67 7.67 0 01-2.3-1.14c1.09-.76 1.52-.83 3.63-.36 3 .66 6 1.25 9 2.17a97.19 97.19 0 019.29 3.5 60.94 60.94 0 0112.76 7.42c2.32 1.76 4.5 3.71 6.65 5.68a60.58 60.58 0 015.3 5.33 71 71 0 015.55 7.28c1.87 2.87 3.51 5.9 5.1 8.94A60.24 60.24 0 01371 184c.72 3.23 1.08 6.56 1.49 9.86a41.76 41.76 0 01.47 6.51c-.2 5.55-.54 11.1-2.07 16.48-.86 3-1.83 6-2.77 9a29.06 29.06 0 01-3.16 6.78c-1.18 1.9-2.21 3.89-3.41 5.79a57.26 57.26 0 01-3.61 5.24 61.11 61.11 0 01-5.42 6.15c-2.23 2.13-4.75 3.94-7.06 6a55.12 55.12 0 01-13.08 8.19 63.28 63.28 0 01-14.93 5.21 66.47 66.47 0 01-7.3 1.38c-4.55.35-9.1 1-13.69.35-1.23-.18-2.51-.1-3.74-.28-3.13-.45-6.28-.84-9.37-1.52a56.57 56.57 0 01-8-2.41c-2.94-1.13-5.76-2.59-8.63-3.9a57.37 57.37 0 01-12.3-7.83 91.53 91.53 0 01-7.31-7c-1.45-1.48-2.66-3.21-4.12-4.69-2.22-2.23-3.52-5.05-5.1-7.68a53.23 53.23 0 01-3.65-7.28c-1.68-4.13-3.14-8.34-4.68-12.52a16.67 16.67 0 01-.44-1.83z"/><path d="M318.45 150.19l1-.29a9.32 9.32 0 00-.86-1.66 2.05 2.05 0 00-1.08-.64c-.58-.16-1.28 0-1.78-.29-1.47-.82-3.07-.3-4.8-.56l.42-.41-5.56-1.82.07-.31a8.91 8.91 0 015.87 1.68c-1.47-2.4-3.6-3-6.23-2.38.83-.82 1.69-.93 5.82-.84-.55-.36-.87-.76-1.11-.71-1.37.24-2.39-.45-3.46-1.08a4.9 4.9 0 00-.91-.34l-.34 1.06c-1.36-.57-2.64-1.08-3.9-1.63-.84-.37-.83-.39-.56-1.42a14.78 14.78 0 00-2.91-.5c-.87 0-1.75.42-2.66.49 1.41-.65 2.64-1.92 4.45-1a3.84 3.84 0 001.8.11 7 7 0 015.08 1.42 5.52 5.52 0 001.57.79c1.4.56 2.82 1.06 4.22 1.6a13.69 13.69 0 012.13 1 16.41 16.41 0 011.28 1.23c1.7 1.41 3.43 2.79 5.15 4.18.18.14.42.36.6.34a2.22 2.22 0 012.26 1.29c.76 1.27 1.87 2.29 2.31 3.78a3.2 3.2 0 001.28 1.46 9.15 9.15 0 013.73 4.65 13.88 13.88 0 003.66 5.69 8.1 8.1 0 002.23 1.08c3 1.27 3.67 3 2.29 6 .6.42 1.19.91 1.84 1.28a10 10 0 013.32 3.41 2.08 2.08 0 00.91.72 3.44 3.44 0 011.68 5 34.23 34.23 0 01-1.89 3.55 10.1 10.1 0 01-2.38 1.63 2.67 2.67 0 00-.87.93c-.79 1.63-2.38 2-3.4.75 0-.07 0-.2.08-.21 1.45-.33 2.48-1 2.52-2.7 0-.16.84-.35 1.3-.44a10.66 10.66 0 011.54 0c-1.47-1.36-1.32-2.6 0-3.32.19-.1.45-.37.43-.51a8.35 8.35 0 00-.71-2.88 1.78 1.78 0 00-2.43-.6c.21 1.3 2.89 1.18 1.91 3.33l-3.44-2.24 1-1.1c-.13-2.15-2.27-.84-3.15-1.88.42-1 1.32-.71 2.09-.62s1.56.32 2.48.52c-.4-1.51-1.23-2-2.37-2-.77 0-1.58-.15-1.73-1.19a11.74 11.74 0 00-.35-1.31l-1.32-.11c.05-.67.69-1.56-.61-1.69-.07 0 0-.47-.15-.66a5.38 5.38 0 00-1-1.35c-.18-.16-.7-.07-1 .08s0 .54 0 .83c0 .65.49 1.46-.63 1.81l-.77-1.61c-.54.64-.16 2.39 1 3.57a20.64 20.64 0 003.23 2.26c-.56.82-1.33.45-2 0s-1.35-1-2.18-1.56a3.29 3.29 0 001.77 2.55c.92.43 1.92.69 2.85 1.2-1.62 1.12-2.81-.68-4.33-.68.23 1.69 2 1.62 2.85 2.51-.13.15-.19.3-.28.32-1.5.35-1.75.89-1 2.27a5.64 5.64 0 01.38.73 3.28 3.28 0 003.64 1.7c.19-.07.32-.31.48-.46a2.41 2.41 0 00-.49-.47c-.74-.41-1.51-.78-2.17-1.12 0-.37 0-.47.06-.52.9-.94 1.37.37 2.1.41s1.63-.42 1.62 1c0 .61.54 1.36-.17 1.75a9.85 9.85 0 01-2.54.77 10.89 10.89 0 01-1.8.19c-.8 0-1.79.33-2.36 0a2.71 2.71 0 01-.8-2.09 26.86 26.86 0 00-1.46-9.15c-.29-.82-.44-.79-1.25-.54a14.36 14.36 0 01-3.58.26c-.17-.68-.21-1.15.59-1.33a1.55 1.55 0 00.91-.54c.87-1.17 1.12-1.19 2.11 0a2.82 2.82 0 00.36.33c1.18-1.34-.31-10.87-2.11-13.59l-.33.05.47 2.48-.46.24-2.89-3.39 1.63.68.22-.27-2.3-1.63.14-.33 2.62 1.06c-.92-1.8-3-1.87-3.62-3.62l2 .91c-.64-2-2.38-2.08-3.66-2.79-.56-.31-1.23-.34-1.25-1.22 0-.18-.42-.39-.68-.52s-.79-.32-1.18-.48zm12.36 15.72l2.88-.4-1.84-1.75zm7.8 4.37c-.62-2.39-1.17-3.05-2.65-3zm-23.42-24.63l-3.08-1.41c2.17 2.2 2.17 2.2 3.08 1.41zm-10.1-5.81c.12-1.21-.64-1.23-2.89-1z"/><path d="M308.2 129.23c-1 1.15-2.25.46-3.34.47-2.75 0-5.54-.39-8.26-.13-4.16.4-8.27 1.22-12.4 1.86a25 25 0 00-4.26.74c-3.69 1.27-7.39 2.58-11 4.15-2.66 1.17-5.13 2.78-7.68 4.19a50.51 50.51 0 00-12 9.53 74.74 74.74 0 00-9.13 11.96 62.7 62.7 0 00-5.92 11.88c-1.37 3.73-2.28 7.63-3.31 11.48a36.19 36.19 0 00-1 9.68c0 1.62-1 3.47-.51 4.8.75 1.92-.77 3.64.35 5.61.9 1.58.74 3.81.88 5.77 0 .59-.49 1.21-.76 1.82l-.49-.1c-.26-1.52-.64-3-.75-4.55-.24-3.55-.46-7.11-.49-10.66a54.06 54.06 0 011.45-12.78c.88-3.8 1.52-7.67 3-11.29 1.15-2.81 2.63-5.49 3.93-8.24a57 57 0 017.07-10.87c3.11-4 6.34-7.83 10.54-10.74 1.39-1 2.61-2.16 4-3.13a50 50 0 015.56-3.57 104.32 104.32 0 0110.11-4.74 51.67 51.67 0 0113.07-3.45c3.55-.4 7.09-.92 10.66-1.13a57.13 57.13 0 016.52.37 5.06 5.06 0 001.1 0 3 3 0 013.06 1.07zM318.81 167.49l-.9-.48a7.36 7.36 0 011.12-1.29 7.24 7.24 0 011.6-.72 13.85 13.85 0 001.55-.61c.64-.36 1.22-.83 1.85-1.23.41-.26.92-.75 1.26-.65a4.63 4.63 0 012.12 1.15 8.29 8.29 0 011.19 2.34c.09.18 0 .43 0 .32-1 0-2-.05-3-.13-.44 0-.88-.18-1.12 0-.64.46-1.3.89-1.9 1.39a10.14 10.14 0 00-.9 1.13c-.22.25-.52.45-.72.72a7.08 7.08 0 00-.49.9c.32 0 .69.16.94.05 1.35-.6 2.62-1.58 4.18-1.21a21.31 21.31 0 013.53 1.34c.16.06.28.53.2.71a.77.77 0 01-.66.37 2.61 2.61 0 01-1.09-.45c-.66-.43-1.05-.34-1.43.39-.53 1-1.23 2-2.56 1.86a8 8 0 01-2-.67 8.25 8.25 0 01-1-.57c.42 1.25.8 2.18 1 3.15.52 2.17.91 4.37 1.49 6.52a10.5 10.5 0 001.31 2.92c1.27 2 .94 1.6 0 3.41-.59 1.17-1.8 1.41-3.11 1.35a28.19 28.19 0 00-4.09.33c-.27 0-.54.29-.79.26a15.31 15.31 0 01-1.62-.4c.18-.57.19-1.37.58-1.66a4 4 0 014-.84 5.72 5.72 0 002.89-.12 1 1 0 00.73-1.56c-.33-.72-.58-1.48-.91-2.21a10.87 10.87 0 01-1.17-3.77 19 19 0 00-1.66-5.73 24.62 24.62 0 01-1.12-4.73c-.01-.51.47-1.07.7-1.58zM280.73 187l-1.57-2.49c1-.79 3.19-.49 3.6-2.77-1.9.14-2.56 2.73-4.63 1.93.28 1 .23 1.68-1.33 1.44.72-1.07 1.31-2 2-2.9a.82.82 0 01.77-.14c.87.53 1.4 0 1.84-.59s1-1.54 1.53-2.32l-.17-.28-2.83.74-.27-.28a5.28 5.28 0 01.76-1c1.54-1.24 3.15-2.39 4.65-3.68 1.13-1 1.15-.81 2.13.31.78.89.35 1.9.87 2.72.08.13-.29.51-.4.8a1.56 1.56 0 00-.15.85 2.36 2.36 0 01-.73 2.43c-.88.57-1.74 1.17-2.6 1.75l.12.38 1.64-.26 1.84 4-4.36 1.53.17.57c1.46.51 2.57-.63 3.95-.92-.52.42-1 .87-1.56 1.26a16.4 16.4 0 00-1.78 1.15 8.26 8.26 0 00-1.08 1.51l.25.2c-.73 0-1.46.11-2.19.1a1.08 1.08 0 01-.82-.33c-.1-.17.07-.59.23-.82.47-.69 1-1.33 1.5-2 .17-.24.39-.73.3-.81a2 2 0 00-.93-.4 14.38 14.38 0 01-2.45-.71c-.29-.14-.31-.83-.45-1.27a10.62 10.62 0 011.24.19 3.54 3.54 0 01.68.38z"/><path d="M277.28 167.59c.58-.33 1.14-.68 1.73-1 1.46-.7 2.93-1.36 4.4-2.06 1.67-.8 1.67-.8 2.52-2.9a11.09 11.09 0 00-1.27.45c-1.27.68-2.5 1.41-3.77 2.07a1.12 1.12 0 01-.9-.13c2.21-1.28 4.67-2.07 6.41-4-1.43-.18-2.46.58-3.54 1.17s-2 1.5-3.06 1.76a6.22 6.22 0 01-4.93-.53l-.07-.49c.54-.14 1.07-.33 1.62-.42s1.21-.08 1.82-.13c.36 0 .85-.26 1-.1 1.38 1.1 2-.24 2.85-.77-.85-1.43-.85-1.43 1-3.19 1.11.41.82 1.26.53 2.24 1.43-.79 2.8-1.16 3.74-2.53.53-.76 1.81-1.11 2.81-1.39.64-.17.87.47.85 1.14s.15 1.36.12 2c-.05 1-.83 1.15-1.76 1.14.28 1.17-.62 1.59-1.35 2.18a8.92 8.92 0 00-1.15 1.42l.32.33 1.52-.66c.76.83-.23 1.09-.61 1.37a5.89 5.89 0 01-1.56.56 3.88 3.88 0 00-2.2 2c-1.17 2.36-3.28 3.47-5.74 4-.15 0-.34-.15-.76-.35.95-.71 1.77-1.31 2.58-1.93a9.45 9.45 0 001.47-1.27 1.17 1.17 0 00.08-1.06c-.09-.18-.69-.27-1-.15-.79.36-1.52.86-2.31 1.24a6.69 6.69 0 01-1.28.34zM303.88 175.68c-1 1-2.2.56-3.41-.37-.72-.54-1.37-.52-1.83.46-.17.38-.67.61-1.05.85 0 0-.47-.34-.44-.44a3 3 0 01.59-1.23 22.06 22.06 0 013.08-3 7.42 7.42 0 013.06-1.17c1.05-.16 2.16.17 3.24.11.35 0 .82-.54 1-.93.23-.69.51-.88 1.14-.5 1 .57 2.22.84 2.41 2.27 0 .1.38.12.47.25.4.6 1.21 1.47 1 1.8a6.05 6.05 0 01-2 1.85c-.27.19-.79 0-1.31 0 .32-.72.95-1.48.78-1.91a2.88 2.88 0 00-1.71-1.22c-1.89-.61-1.33 1.38-2 2.21l2.66-.65a4.47 4.47 0 01-3.63 2.14c-.54.15-1.16-.2-2.05-.52z"/><path d="M282.83 173.23l-4.05 3.18a1.77 1.77 0 01-.49.35 9.61 9.61 0 01-1.21.25s-.14-.33-.09-.36a4.66 4.66 0 011-.71c.46-.21 1.09-.21 1.42-.53a1.6 1.6 0 00.44-1.35c-.09-.27-.85-.49-1.28-.44s-.81.48-1.24.68c-.16.07-.4-.05-.61-.08 0-.21 0-.5.11-.6a11.51 11.51 0 011.12-.68c1.66-1.08 3.3-2.19 5-3.23a8.93 8.93 0 011.44-.4c.35-.14 1-.43.95-.6-.24-2.18 1.77-2.16 2.75-3.19.87 1.42-.68 1.58-.92 2.22.33.28.71.46.8.74s-.22.63-.46.77c-.57.33-1.24.52-1.81.85-.3.17-.48.54-.71.82a3.51 3.51 0 001 0c.6-.15 1.22-1 1.72-.2.17.26-.45 1.17-.89 1.6a10.8 10.8 0 01-1.94 1.38 1.39 1.39 0 01-2.05-.47zM302.1 165.59c0-1 1.82-2 2.91-1.52 2.42 1 4.87 1.86 7.25 2.92a5.76 5.76 0 011.73 1.55.86.86 0 010 .85 1.35 1.35 0 01-.9.41 2.23 2.23 0 01-1-.33c-1.53-.76-3-1.63-4.57-2.29a4.82 4.82 0 00-2.08-.05 17 17 0 00-5.94 1.74 1.3 1.3 0 01-.78.2 8.9 8.9 0 01-1.32-.64c.25-.41.39-1 .75-1.18a11.76 11.76 0 003.14-1.59c.15-.14.53-.05.81-.07zM308.62 195c-.41 1.71-1.11 1.36-2 .7l1.59-1.25a1.89 1.89 0 002.51.28 1.86 1.86 0 01.92-.19h6.91v-.38a2.62 2.62 0 01-.79-.13.63.63 0 01-.34-.44.59.59 0 01.32-.45c1.21-.21 2.43-.43 3.66-.52.37 0 .77.33 1.31.83l-.93.29.18.22c.1 0 .22.1.31.08.68-.21 1.35-.45 2-.65a2.82 2.82 0 011.25-.28 3.73 3.73 0 011.13.74c-.31.25-.58.62-.93.71-1.89.51-3.79 1-5.71 1.37a8.08 8.08 0 01-2-.15c-.46 0-1.27-1-1.27.43a1.18 1.18 0 01-.57.07c-1.77-.57-3.39.22-5 .57-1.8.35-2.17.21-2.55-1.85zM303.63 143.06a8.05 8.05 0 01-1.1-.28c-.7-.26-1.37-.6-2.07-.85a7.69 7.69 0 01-2-.61c-1.57-1.17-3.09-.83-4.76-.29a22.45 22.45 0 01-3.77.56l.31 1.25c-3.59.66-7.12 1.68-9.82 4.5.19-1.06.34-2 1.57-2.14.49-.07.84-.83 1.34-1.14 2.49-1.5 5-3 7.54-4.39a6.43 6.43 0 012.66-.2c1.1 0 2.21-.05 3.3 0a6.85 6.85 0 011.68.49c1 .34 2 .65 3 1.08.81.36 1.55.88 2.33 1.32zM268.61 193.72v-2.1l2.12-.46-3.21-1.3c.25-1.22.8-1.33 1.83-1a7.07 7.07 0 006.31-.9c.54-.34 1.1-.63 1.66-.94l.24.25a4.29 4.29 0 01-.22.72 2.44 2.44 0 00-.39 1.65c.08.48-.79 1.33-1.42 1.64a32.2 32.2 0 01-3.7 1.26c-1.09.39-2.18.8-3.22 1.18zM284.45 155.5l1.21-1.3-.86-1.2 3-.17.16-1.27 1.06.51 2.07-1.46c-.22-.39-.64-.82-.66-1.27 0-.26.6-.55.93-.83l1 1.28c.92-.66.92-.66-.1-3.54.74-.21 3.76 1.23 4.68 2.34h-2.28c-.62.82-1.17 1.56-1.73 2.28-.13.16-.39.28-.41.44-.25 1.89-1.72 2.12-3.17 2.42a3.74 3.74 0 00-1 .5l.16 1-4 .49zM264.36 185c-.57.19-1.22.39-1.85.63-1.4.53-3.27-.62-3.08-2 .05-.4.45-1 .76-1s.82.35 1.21.6.41.51.66.57a3.34 3.34 0 003.07-1.39c.09-.15.86-.09.87 0a3.13 3.13 0 002.76 2.65 23.2 23.2 0 003.9-.09c.23 0 .48-.15.69-.09a.79.79 0 01.49.44.62.62 0 01-.31.51c-1.51.3-3 .65-4.54.81a4.2 4.2 0 01-3.37-1.24c-.26-.35-.75-.33-1.26-.4zM280.42 145.38c0 2.17-1.67 2.62-2.81 3.33a17.34 17.34 0 00-5.16 5.56c-.13.2-.23.47-.41.57-2.45 1.28-3.63 3.55-4.64 5.95a8.29 8.29 0 00-.3 1.35c-.08.36-.21.71-.32 1.06-.34-.29-1-.6-1-.86a5.68 5.68 0 01.62-2.39 24.55 24.55 0 015-6.55 24.8 24.8 0 002.28-2.51 35.59 35.59 0 013.27-3.65 17.83 17.83 0 013.47-1.86zM265.2 175.78c.76-1 .57-1.51-.27-2.39s-.46-2.48.06-3.71a9.23 9.23 0 01.75-1.51 1.57 1.57 0 00.14-1.84c-.47-.83.37-2.07 1.62-2.61-.1.68-.47 1.49-.21 1.92s1.13.51 1.82.78a2.08 2.08 0 01-1.72 2.06c-.74.24-1.18 1.72-1.54 2.72s.47 1.1 1.15 1.34a1 1 0 01.49.8 7.19 7.19 0 01-1 2.07c-.21.28-.84.26-1.29.37z"/><path d="M288.48 145.75c-.23 1.42-1.44 1.16-2.14 1.23a13 13 0 00-5.41 2.09c-1.61 1-3.51 1.63-4.36 3.52a4.34 4.34 0 00-.22 1.35 3.69 3.69 0 000 .74 2.33 2.33 0 01-.87 0c-1.06-.42-1.32-1.33-.47-2 1.78-1.5 3.62-3 5.54-4.28a36.68 36.68 0 014.2-2.25 5.1 5.1 0 013.73-.4zM327.13 235.57c-1.65.39-3.28-.89-4.83.28a1.46 1.46 0 011.49-1.93 17.56 17.56 0 013.9.56c.45.13.7 1 1 1.61.12.23 0 .59.08.83.24.53.93 1.13.81 1.48a16.89 16.89 0 01-1.57 2.8c-.87-.69-.9-.7-.35-1.48s.72-1.27-.09-2.05c-.43-.38-.31-1.32-.44-2.1zM327.28 242.09c1-.45 1.43.29 2 .82.88.87 1.77 1.74 2.62 2.63a1.46 1.46 0 01.47.79c.05 1.31 0 2.62 0 3.93a13.07 13.07 0 00.37 1.91c-1.26.37-1.58-.73-1.54-1.47.06-1.2-1.11-2.31-.17-3.6.14-.2-.68-1.12-1.09-1.68a11.51 11.51 0 00-1-1.18c-.33-.34-.64-.83-1-.92-.94-.2-.77-.68-.66-1.23zM273.78 181.86c.35.85-.2 1.23-.79 1.33a19.39 19.39 0 01-3.48.29 3.22 3.22 0 01-2.9-2.32 1.34 1.34 0 01.27-.95c.06-.1.67 0 .8.18 1.34 1.91 3.16 2 5.16 1.42a1.34 1.34 0 01.49 0c.16 0 .31.03.45.05zM273.33 179.61a18 18 0 01-2.71-1.55 1.64 1.64 0 01-.06-1.55c.45-.77 1-.2 1.32.25a2.28 2.28 0 002.22.89 11.89 11.89 0 011.58 0c.52 0 1.11-.1 1.13.71s-.54.73-1.08.76c-.76.06-1.51.18-2.26.27zM280.72 196.23a2.15 2.15 0 01-2.25-1.43c-.11-.23 0-.57 0-.86a2.92 2.92 0 01.85.09 10.92 10.92 0 011.1.72c.65.4 1.19.42 1.5-.44a6.76 6.76 0 013-1.19 1.32 1.32 0 01.26.84c-1.44.79-2.91 1.53-4.38 2.26a.19.19 0 01-.08.01zM275.2 195l-2.89 1.43a13.33 13.33 0 01-1.35.7c-.46.16-1.11.42-1.43.23a2.74 2.74 0 01-.78-1.4c0-.07.64-.57.78-.5a1.72 1.72 0 002.2-.22c1-.93 2.13-.73 3.28-.67zM318.08 231.56a1.5 1.5 0 012.26-.59 2.79 2.79 0 011 2.77c-.23.82-.76 1.11-2 1 1.36-1.69-.13-2.35-1.26-3.18zM270 170a3.31 3.31 0 01.75.68c.66 1.12 1.57 1 2.6.65a12.54 12.54 0 011.92-.25 3.16 3.16 0 01-4.23 1.45c-1.48-.77-1.74-1.35-1.04-2.53zM272.25 198l4.7-1c.43 1.15-.62 1.16-1.19 1.43-2.24 1.07-2.37 1.04-3.51-.43z"/><path d="M285.31 150.35c-.49 1.43-2.7 2.35-3.87 1.58a1.08 1.08 0 01-.42-.65.64.64 0 01.41-.5c1.29-.17 2.57-.29 3.88-.43zM297.93 173.38c.11-1.32 2.41-3.43 4.23-3.48l-3.9 3.81zM299.11 147.12c-1.3 1.06-2.64.83-3.66-.58a3 3 0 013.66.58zM285.46 196.37c-.68.36-1.34.74-2 1.06s-1.57.72-2.37 1a1.74 1.74 0 01-.85 0c-.08 0-.19-.37-.16-.39a3.6 3.6 0 01.69-.39c1-.47 2-.95 3-1.38a11.68 11.68 0 011.54-.42zM325.51 168.07c1.14-1.06 3.49 0 4 1.72zM303.84 145.64c1.39-1.14 2.42.37 3.61.59.23.05.37.59.56.91l-.29.25zM269.78 162.63l2.3-2.93.52.4-2.22 3zM301.55 145.87a23.75 23.75 0 012.37.82c.23.11.31.55.45.83a2.26 2.26 0 01-.81.06c-.85-.22-1.71-.46-2.01-1.71zM262.53 177.48a9.33 9.33 0 01.87-1.47c.17-.21.6-.19.92-.28.07.36.31.92.17 1.05a10.52 10.52 0 01-1.67 1.06zM322.81 196.77c-.43.65-1 1.12-1.83.69-.16-.08-.25-.31-.37-.47l2.06-.69zM312.34 185.18c.37 1.09.24 1.67-.62 1.72-.21 0-.44-.5-.67-.77zM266 187.35a4.9 4.9 0 011.22-.37 1.41 1.41 0 01.8.41c.08.06 0 .44-.05.48a1.16 1.16 0 01-.81.22 6.33 6.33 0 01-1.16-.74zM307.32 169.33l-2.79-.22c.82-.97 1.56-.94 2.79.22zM242.18 248.46c-.44.33-.81.67-.87.63a8.15 8.15 0 01-1.18-1.17 2.21 2.21 0 01.52-.58c.47.29.9.66 1.53 1.12zM350.8 141.91c.85-.09 1.2.53 1.49 1.18 0 .07-.53.52-.55.5-.45-.41-.87-.86-1.29-1.31zM223.27 201.54c-1.43.27-1.29-.65-1.48-1.22 0-.07.45-.3.7-.46zM233 240.74l.28-1.28c.31.08.69.06.9.25a3.53 3.53 0 01.55.95 9.65 9.65 0 01-1.17.32c-.16 0-.36-.14-.54-.21z"/></svg>