<svg xmlns="http://www.w3.org/2000/svg" width="600" height="361.88" viewbox="0 0 600 361.88"><path fill="#00427B" d="M0 0h600v361.88H0z"/><path fill="#CCC" stroke="#000" d="M388.952 218.794c.02.962.039 5.011-.798 7.229l-.183.055c-1.236-1.64-2.17-3.84-3.856-5.095 0 0-.095-.418-2.639-.971-3.668-.257-8.902 12.024-10.809 11.707-.83-.139-1.447-.427-1.829-.86-.5-.567-.599-1.39-.238-2.463 2.384-3.167 3.783-11.491 3.813-14.243.032-2.753-1.746-11.236-2.697-15.192-.835-3.45 2.008-4.002 2.744-4.091 10.853 5.074 8.257 13.748 16.492 23.924h0z"/><path fill="#B3B3B3" stroke="#000" d="M370.668 231.721c1.906.316 7.141-11.964 10.809-11.708 2.544.553 2.639.972 2.639.972l-.5.906s-3.048 6.405-9.474 14.702l-5.379-5.662.075-.069c.383.431 1 .719 1.83.859h0z"/><path fill="#FFF" stroke="#000" d="M373.53 194.85c8.583 2.688 10.287-5.081 14.781-4.434 9.186 2.197 5.244 19.625 23.524 27.378-8.582-1.903-12.397-2.374-16.53-6.649-1.75 3.167 2.064 10.763 6.839 18.516-6.303-3.743-10.38-7.389-13.191-10.869-8.236-10.173-5.641-18.847-16.492-23.919-.013-.009-.031-.014-.047-.022h1.116v-.001z"/><path fill="#B3B3B3" stroke="#000" d="M228.128 233.585c-5.878-8.961-8.278-15.879-8.278-15.879l-.5-.906s.095-.416 2.64-.971c3.67-.257 8.898 12.024 10.809 11.71.737-.122 1.307-.363 1.694-.723l.075.068-6.243 6.573-.197.128z"/><path fill="#CCC" stroke="#000" d="M234.865 224.214c.389 1.162.243 2.031-.373 2.603-.388.359-.957.601-1.694.723-1.91.314-7.139-11.967-10.809-11.71-2.545.555-2.64.973-2.64.973-1.685 1.254-2.619 3.455-3.854 5.094l-.183-.055c-.837-2.214-.817-6.252-.8-7.225 8.241-10.176 5.64-18.85 16.49-23.927.738.091 3.583.644 2.746 4.092-.951 3.958-2.736 12.44-2.697 15.192.032 2.749 1.428 11.074 3.814 14.24z"/><path fill="#FFF" stroke="#000" d="M219.85 217.706s2.4 6.918 8.277 15.878c10.8 16.484 33.346 39.891 74.289 39.891 36.696 0 59.913-21.633 71.726-36.882 6.427-8.297 9.474-14.703 9.474-14.703l.5-.906c1.686 1.255 2.619 3.455 3.857 5.095.344.455.713.869 1.136 1.211 2.543 2.058 8.736 3.568 8.739 7.599-9.65 19.524-47.965 56.758-94.491 56.758-56.957 0-88.086-41.418-97.738-60.941.006-4.03 6.198-5.541 8.74-7.6.417-.339.79-.753 1.137-1.21 1.235-1.64 2.17-3.841 3.856-5.095l.498.905h0zm11.153-27.017c-10.851 5.075-8.249 13.75-16.49 23.926-2.812 3.474-6.886 7.12-13.188 10.863 4.771-7.754 8.585-15.35 6.835-18.515-4.133 4.271-7.947 4.746-16.529 6.649 18.279-7.756 14.34-25.183 23.523-27.381 4.495-.646 6.2 7.122 14.781 4.435h1.117c-.014.011-.034.015-.049.023h0z"/><path d="M230.073 243.097l2.521 2.496-1.15 9.907 3.771-3.77c.372-.373.564-.777.576-1.209.01-.438-.167-.86-.532-1.274l.507-.509 2.97 2.943-.508.51c-.457-.367-.878-.539-1.26-.514-.382.024-.772.233-1.17.631l-6.314 6.313-.633-.629 1.373-11.338-4.418 4.417c-.506.505-.758.988-.757 1.449s.175.861.517 1.205l.137.134-.51.51-3.274-3.247.508-.509.225.223c.321.32.718.458 1.193.421.475-.037.911-.256 1.312-.657l5.222-5.219c.08-.568-.068-1.042-.448-1.417l-.36-.358.502-.509zm8.784 8.53l4.486 3.769-.469.55-.809-.679c-.172-.146-.328-.219-.465-.215-.136.002-.263.07-.376.202L235.509 262c-.134.159-.188.307-.162.44.034.178.151.351.352.518l.722.606-.468.552-4.487-3.769.468-.55.689.575c.236.199.438.301.602.303.164.004.311-.071.44-.225l5.65-6.671c.14-.164.2-.323.176-.477-.021-.152-.127-.311-.317-.472l-.783-.656.466-.547zm4.3 4.63l.418-.582 4.777 3.407-.418.58-.806-.573c-.23-.164-.424-.237-.579-.215-.156.023-.305.131-.447.328l-4.968 6.906c-.203.281-.286.493-.255.632.033.139.214.327.541.561l1.344.959c.498.355 1.137.451 1.909.286s1.648-.685 2.626-1.559l.569.405-2.771 3.408-8.199-5.845.417-.581.816.582c.182.128.351.18.51.152.158-.024.298-.122.418-.29l5.108-7.103c.124-.171.167-.329.127-.476-.038-.145-.174-.297-.404-.461l-.733-.521zm25.797 14.808l1.058-.668.502.208-1.444 3.672-.643-.264c.101-1.186-.049-2.165-.451-2.94-.4-.775-.974-1.314-1.722-1.621-.635-.261-1.226-.3-1.767-.121-.543.181-.913.513-1.112.992-.119.286-.146.58-.087.883.057.3.227.609.509.921.279.313.823.742 1.624 1.285.937.636 1.564 1.122 1.887 1.454.508.53.824 1.088.946 1.669.125.581.051 1.196-.219 1.849-.403.974-1.062 1.612-1.978 1.915-1.102.363-2.253.302-3.454-.192-1.104-.455-1.955-1.251-2.552-2.393l-1.271.696-.525-.216 1.619-3.907.629.258c-.299 2.488.51 4.128 2.426 4.915.785.32 1.469.392 2.054.211.583-.182.986-.54 1.209-1.076.156-.378.19-.729.105-1.063-.087-.333-.295-.661-.632-.981-.185-.177-.672-.535-1.465-1.076-1.062-.736-1.786-1.346-2.174-1.823-.387-.479-.614-.964-.685-1.459-.069-.493.014-1.026.249-1.597.398-.961 1.047-1.61 1.946-1.949.899-.341 1.895-.285 2.984.163 1.05.427 1.861 1.18 2.434 2.255zm2.512-.008l5.602 1.753-.215.683-1.012-.315c-.218-.068-.39-.074-.517-.021-.126.056-.213.166-.268.333l-2.664 8.439c-.064.197-.055.353.022.47.099.149.273.263.524.341l.903.282-.216.684-5.604-1.753.217-.683.856.268c.295.092.521.108.672.046.151-.059.257-.186.318-.375l2.637-8.343c.065-.205.058-.376-.022-.511-.08-.132-.238-.237-.476-.31l-.977-.305.22-.683zm5.601 1.921l3.467.716 4.489 8.926 1.09-5.211c.106-.515.049-.957-.179-1.327-.226-.369-.603-.628-1.134-.774l.147-.698 4.085.848-.147.697c-.585-.061-1.032.026-1.338.256-.308.226-.518.615-.633 1.165l-1.822 8.719-.87-.181-5.094-10.243-1.276 6.102c-.146.7-.092 1.244.163 1.629.255.386.618.628 1.095.728l.19.039-.146.698-4.508-.937.146-.698.31.067c.444.089.854-.008 1.229-.299.376-.286.619-.707.735-1.258l1.505-7.194c-.24-.538-.623-.861-1.146-.971l-.501-.104.143-.695z"/><path d="M288.652 275.347l9.95.841-.119 3.998-.686-.059c-.079-.952-.222-1.646-.426-2.079a2.354 2.354 0 00-.862-1.01c-.372-.239-.869-.384-1.499-.438l-1.56-.131c-.242-.021-.42.013-.536.099a.486.486 0 00-.194.383l-.337 3.95.533.045c.615.053 1.108-.083 1.477-.403s.615-.863.745-1.635l.686.06-.45 5.302-.687-.06c.029-.883-.113-1.517-.424-1.906-.312-.388-.809-.611-1.497-.67l-.442-.035-.357 4.202c-.016.184.026.318.126.405.159.127.389.204.698.23l1.376.115c.944.08 1.741-.155 2.39-.704.649-.552 1.098-1.424 1.345-2.626l.687.06-.529 4.312-10.375-.874.06-.711 1.027.087c.232.02.413-.023.543-.131s.205-.261.222-.46l.747-8.761c.016-.183-.032-.325-.146-.421-.113-.099-.328-.161-.642-.187l-.902-.076.058-.712zm23.004.591l3.516-.535 7.331 6.806-.808-5.257c-.079-.52-.289-.914-.633-1.182-.34-.269-.785-.378-1.331-.332l-.109-.712 4.13-.629.108.712c-.569.148-.958.386-1.163.705-.209.32-.27.757-.186 1.312l1.353 8.807-.886.133-8.358-7.831.943 6.157c.109.708.35 1.195.724 1.468.373.273.801.373 1.277.3l.193-.03.107.713-4.567.695-.107-.711.314-.05c.451-.068.803-.304 1.055-.707.252-.4.337-.878.249-1.438l-1.115-7.264c-.414-.415-.888-.581-1.421-.499l-.509.078-.107-.709z"/><path d="M323.208 274.222l5.544-1.59.198.684-1.127.322a.477.477 0 00-.326.267c-.059.131-.057.305.007.524l1.755 6.068c.247.856.667 1.447 1.255 1.774.588.325 1.283.376 2.089.145a3.533 3.533 0 001.496-.84c.298-.29.497-.681.599-1.175.1-.494.056-1.069-.133-1.722l-1.349-4.659c-.169-.592-.434-.999-.784-1.221-.353-.221-.752-.266-1.201-.138l-.163.048-.198-.683 4.203-1.207.195.683-.29.085c-.438.126-.723.388-.857.78-.132.396-.129.833.01 1.319l1.462 5.049c.324 1.124.21 2.134-.347 3.034-.561.904-1.503 1.547-2.828 1.925-.947.271-1.817.354-2.606.245-.792-.105-1.406-.362-1.842-.765-.436-.401-.769-1.003-1.002-1.805l-1.781-6.164c-.085-.287-.195-.468-.336-.542-.14-.074-.35-.071-.632.01l-.811.231-.2-.682z"/><path d="M334.395 271.153l4.205-1.9 5.575 5.972-.831-8.114 4.299-1.944.299.653-.938.424c-.23.104-.371.22-.419.34-.049.126-.026.292.068.495l3.622 7.942c.091.201.202.318.33.351.193.049.41.017.651-.09l.83-.377.298.654-5.312 2.398-.297-.653 1.001-.453c.185-.083.302-.198.351-.343.049-.147.032-.314-.05-.496l-3.878-8.502 1.108 11.246-.619.279-7.779-8.333 3.465 7.596c.198.436.499.729.904.884.405.155.884.141 1.433-.042l.299.654-3.874 1.749-.299-.652c.471-.263.771-.606.905-1.03.135-.42.095-.861-.114-1.325l-3.065-6.719c-.128-.286-.264-.455-.406-.503-.144-.048-.354-.009-.637.119l-.827.373-.298-.653z"/><path d="M347.357 265.032l5.031-3.006.372.617-.908.542c-.193.117-.313.24-.354.369-.041.13-.018.271.071.42l4.565 7.577c.106.176.229.274.365.292.179.028.381-.027.606-.162l.81-.482.371.616-5.032 3.007-.372-.618.77-.46c.266-.158.428-.313.482-.467s.03-.316-.073-.487l-4.513-7.492c-.112-.185-.244-.291-.396-.319-.155-.029-.336.021-.549.147l-.877.522-.369-.616zm5.159-2.895l2.856-2.118 9.672 2.584-3.189-4.265c-.316-.421-.688-.668-1.117-.745-.431-.076-.88.035-1.345.336l-.429-.573 3.358-2.487.428.572c-.432.396-.664.784-.696 1.166-.032.378.121.793.457 1.245l5.341 7.142-.712.527-11.07-3.016 3.74 5.002c.43.571.872.892 1.334.96.458.066.884-.047 1.273-.336l.157-.115.428.573-3.712 2.751-.431-.571.254-.188c.365-.271.563-.643.597-1.113.032-.473-.121-.938-.46-1.389l-4.418-5.908c-.553-.162-1.044-.084-1.475.236l-.411.304-.43-.574z"/><path d="M361.998 255.062l7.244-6.845 2.917 2.739-.497.47c-.768-.571-1.379-.925-1.838-1.061a2.383 2.383 0 00-1.33-.023c-.425.12-.864.396-1.324.827l-1.138 1.074c-.178.168-.271.321-.284.467a.497.497 0 00.155.398l2.736 2.87.386-.366c.447-.421.673-.874.676-1.36.002-.485-.241-1.032-.732-1.637l.504-.477 3.669 3.851-.504.474c-.643-.607-1.212-.923-1.71-.952-.494-.026-.993.192-1.489.665l-.323.304 2.921 3.063c.129.134.257.191.392.174.195-.031.408-.152.634-.365l1.001-.947c.687-.647 1.04-1.396 1.06-2.243.019-.847-.34-1.762-1.071-2.741l.502-.474 2.88 3.268-7.543 7.127-.497-.522.746-.706c.168-.158.256-.321.263-.492a.65.65 0 00-.198-.472l-6.069-6.364c-.128-.137-.267-.192-.416-.173-.147.019-.336.137-.564.354l-.655.619-.504-.524z"/><path fill="#FFF" stroke="#000" d="M300.567 270.733c0-24.137-47.856-.017-47.856-50.221 0-8.366 5.837-16.715 5.837-25.082 0-16.734-12.142-29.303-12.142-29.303l16.344-16.716s18.69 13.678 37.817 0c21.014 13.678 37.819 0 37.819 0l16.809 16.734s-12.606 12.551-12.606 29.285c0 8.367 6.304 16.733 6.304 25.102 0 50.201-47.858 26.583-47.858 50.185"/><path fill="#FFF" d="M320.104 180.572l-5.043.045-.01-.789 6.733-8.851 4.044 8.316 2.424-.27 5.387 8.581-.061.075-5.864-4.556-4.735.609zm-6.034.055l-5.597-2.557-2.658 5.523-2.698-8.829-2.96 1.465-7.919-5.852-.355-.362 7.541-7.35 5.929 7.238.268 3.222 5.929 2.412 3.501 4.291.01.789zm-26.66-6.259l2.68 3.022c-.41-.308-4.562-3.253-4.447 2.705-.581 2.225-8.485-3.319-11.763-3.485-2.572-.131-6.294 2.096-7.765 3.058l6.911-9.766 3.772.538 4.038-3.486 6.574 7.414z"/><path fill="#00427B" d="M333.578 187.678l.061-.073 5.086 2.782a35.618 35.618 0 00-.375 5.039c0 .229.006.461.016.688h-75.673c.01-.226.019-.459.019-.688 0-3.165-.467-6.293-1.2-9.26l4.596-6.493c.006 0 .006-.005.009-.005 1.47-.962 5.192-3.189 7.765-3.058 3.278.166 11.182 5.713 11.763 3.485-.113-5.958 4.037-3.013 4.447-2.705l-2.68-3.021 4.473-4.356.355.362 7.919 5.852 2.96-1.464 2.698 8.828 2.656-5.521 5.597 2.557.989-.012 5.045-.046 2.875 3.161 4.735-.608 5.864 4.556z"/><path fill="#D72E39" d="M266.106 179.677l-4.596 6.494c-2.754-11.146-9.305-20.025-9.305-20.025l10.505-10.459s20.654 12.31 37.819 0c18.847 12.31 37.819 0 37.819 0l10.506 10.459s-8.271 11.203-10.133 24.247l-5.085-2.784-5.388-8.581-2.422.27-4.044-8.316-6.733 8.85-3.502-4.29-5.928-2.413-.269-3.221-5.927-7.238-7.542 7.349-4.474 4.356-6.571-7.414-4.039 3.486-3.772-.539-6.91 9.766c-.004-.002-.004.003-.009.003z"/><path d="M339.249 196.816H262.11l.035-.732c.01-.218.017-.436.016-.65 0-14.661-10.265-28.734-10.37-28.875l-.355-.482 11.317-11.266.469.278c.091.053 9.156 5.371 20.027 5.371 6.356 0 12.084-1.795 17.023-5.337l.391-.281.402.264c5.444 3.552 11.432 5.354 17.797 5.354h.003c10.871 0 19.17-5.302 19.253-5.356l.476-.309 11.333 11.282-.357.482c-.103.141-10.368 14.226-10.368 28.872 0 .218.007.438.016.658l.031.727zm-75.686-1.395H337.8c.004-13.724 8.423-26.528 10.291-29.199l-9.695-9.653c-1.975 1.168-9.638 5.284-19.53 5.285h-.003c-6.486 0-12.595-1.792-18.163-5.325-5.092 3.534-10.961 5.325-17.45 5.325-9.958 0-18.219-4.17-20.27-5.298l-9.708 9.667c1.867 2.67 10.288 15.474 10.291 29.198z"/><path fill="gold" d="M262.403 199.875c-1.557 6.659-5.726 14.352-5.726 20.397 0 44.593 34.813 25.087 44.143 39.823 9.659-14.964 44.102 4.77 44.102-39.823 0-6.045-4.173-13.738-5.729-20.397h-76.79z"/><path d="M300.816 261.395l-.588-.925c-3.133-4.947-9.543-5.859-16.33-6.824-6.602-.938-13.427-1.907-18.81-6.379-6.132-5.092-9.112-13.922-9.112-26.994 0-3.84 1.623-8.31 3.192-12.632.965-2.654 1.962-5.398 2.551-7.924l.127-.538h77.903l.126.538c.591 2.526 1.588 5.271 2.553 7.926 1.568 4.322 3.193 8.791 3.193 12.63 0 29.335-14.691 31.421-27.652 33.259-6.84.971-13.297 1.888-16.56 6.943l-.593.92zm-37.863-60.823c-.616 2.449-1.555 5.035-2.466 7.542-1.53 4.211-3.109 8.563-3.109 12.158 0 12.634 2.814 21.113 8.607 25.922 5.077 4.218 11.703 5.159 18.109 6.071 6.735.956 13.118 1.863 16.73 6.612 3.726-4.852 10.158-5.763 16.945-6.727 6.364-.903 12.941-1.837 17.958-6.032 5.714-4.782 8.492-13.236 8.492-25.847 0-3.596-1.581-7.946-3.109-12.156-.912-2.508-1.852-5.095-2.468-7.544h-75.689zm-.785-13.905l-1.146-.803 11.832-16.707 3.88.55 4.322-3.73 12.587 14.198-1.051.922-11.667-13.161-3.756 3.241-3.665-.52z"/><path d="M338.843 191.165l-5.548-3.033-.096-.153-5.155-8.214-2.477.276-3.762-7.735-6.58 8.65-3.952-4.841-6.162-2.507-.284-3.428-5.307-6.482-11.465 11.171-.98-.997 12.562-12.24 6.551 8.003.25 3.005 5.696 2.319 3.053 3.739 6.883-9.049 4.326 8.897 2.37-.265 5.524 8.803 5.227 2.86zm-53.897-10.075c-1.125 0-2.862-.781-5.341-1.941-2.11-.986-4.292-2.009-5.592-2.076-3.068-.147-8.054 3.366-8.103 3.401l-.544-.756c.215-.153 5.294-3.745 8.695-3.573 1.483.076 3.747 1.138 5.939 2.163 2.026.948 4.55 2.129 5.245 1.803a.15.15 0 00.085-.083c-.028-2.081.466-3.388 1.468-3.886 1.576-.779 3.679.836 3.768.906l-.577.732c-.476-.371-1.906-1.238-2.773-.806-.655.326-.983 1.402-.95 3.113l.001.064-.017.062a1.09 1.09 0 01-.606.739 1.631 1.631 0 01-.698.138z"/><path d="M333.58 188.151l-5.846-4.542-4.782.62-2.9-3.191-5.929.055-5.273-2.409-2.978 6.186-2.887-9.44-2.723 1.342-8.148-6.016.557-.748 7.69 5.679 3.197-1.577 2.508 8.204 2.338-4.856 5.92 2.703 6.139-.057 2.852 3.141 4.687-.608 6.152 4.782z"/><path fill="#FFF" d="M260.647 167.364s.113-3.821 2.82-2.304c2.428-3.878 6.04-.73 6.04-.73s4.006-1.798 4.515.73c3.387-.506 3.273 2.247 3.273 2.247l-16.648.057z"/><path d="M260.166 167.83l.015-.48c.034-1.155.524-3.11 2.146-3.11.306 0 .634.074.981.222.859-1.196 1.93-1.802 3.188-1.802 1.392 0 2.598.771 3.086 1.136.484-.188 1.546-.55 2.551-.55 1.118 0 1.895.46 2.227 1.307 1.165-.098 2.052.173 2.655.799.785.815.749 1.929.747 1.976l-.018.444-17.578.058zm2.16-2.662c-.783 0-1.063 1.078-1.162 1.729l15.613-.053a1.804 1.804 0 00-.441-.855c-.452-.462-1.219-.622-2.244-.469l-.438.065-.088-.434c-.084-.42-.325-.977-1.433-.977-1.125 0-2.421.573-2.433.579l-.273.122-.226-.195c-.012-.011-1.277-1.09-2.705-1.09-1.033 0-1.918.577-2.631 1.716l-.236.377-.388-.218c-.352-.197-.66-.297-.915-.297z"/><path fill="#FFF" d="M305.961 167.252l16.592.112s0-3.651-3.839-2.359c-1.185-3.54-4.402-.45-4.402-.45s-2.651-3.765-5.136.056c-2.483-1.292-3.215 2.641-3.215 2.641z"/><path d="M323.019 167.833l-17.618-.12.102-.545c.024-.134.636-3.281 2.727-3.281.253 0 .516.049.782.145.776-1.06 1.658-1.597 2.623-1.597 1.243 0 2.249.913 2.738 1.459.521-.409 1.5-1.052 2.492-1.052.671 0 1.555.289 2.13 1.594a4.752 4.752 0 011.204-.172c2.232 0 2.82 2.029 2.82 3.101v.468zm-16.456-1.042l15.478.105c-.113-.646-.503-1.703-1.843-1.703-.389 0-.838.084-1.334.252l-.445.149-.146-.442c-.464-1.381-1.175-1.381-1.408-1.381-.872 0-1.903.808-2.229 1.119l-.391.376-.313-.442c-.011-.015-1.052-1.459-2.297-1.459-.725 0-1.418.504-2.064 1.5l-.232.355-.377-.196c-.265-.138-.511-.208-.731-.208-.914-.001-1.435 1.234-1.668 1.975z"/><path fill="#FFF" d="M324.021 170.06s1.126-4.101 3.385-2.248c.112-1.909 2.821-4.551 5.531-1.741 2.145-3.147 4.345.899 3.666 1.573 2.539-3.371 3.557 0 3.387.224 3.217-.45 2.538 2.247 2.538 2.247l-18.507-.055z"/><path d="M342.895 170.581l-19.486-.059.162-.585c.087-.314.896-3.071 2.703-3.071.267 0 .536.063.805.187.428-1.376 1.772-2.672 3.392-2.672.827 0 1.651.342 2.411.995.542-.634 1.135-.954 1.77-.954.795 0 1.584.542 2.112 1.449.104.178.199.378.276.583.552-.517 1.076-.766 1.592-.766.639 0 1.213.411 1.571 1.127.038.074.142.293.21.545 1.023-.055 1.754.21 2.204.785.667.85.38 2.032.366 2.083l-.088.353zm-18.222-.984l17.448.052c.012-.275-.021-.655-.244-.935-.298-.379-.925-.511-1.822-.385l-1.113.155.59-.783c-.034-.188-.175-.603-.442-.868-.144-.145-.294-.215-.458-.215-.241 0-.769.158-1.585 1.216a.829.829 0 01-.111.138l-.704-.607.027-.036c.031-.12-.033-.6-.402-1.15-.348-.518-.799-.827-1.205-.827-.545 0-1.022.533-1.328.979l-.323.475-.399-.414c-.693-.718-1.409-1.082-2.13-1.082-1.471 0-2.538 1.522-2.597 2.529l-.053.914-.712-.583c-.302-.249-.583-.375-.835-.375-.716 0-1.295 1.038-1.602 1.802z"/><path fill="#93652F" d="M317.906 248.85c-.942.937-2.379 1.023-3.211.193l-33.472-33.323c-.832-.827-.747-2.259.192-3.195.941-.936 2.378-1.021 3.21-.191l33.474 33.322c.833.828.745 2.26-.193 3.194z"/><path d="M316.121 250.078a2.464 2.464 0 01-1.756-.706l-33.473-33.323c-1.013-1.008-.925-2.737.195-3.853.572-.57 1.343-.898 2.111-.898.677 0 1.3.251 1.758.706l33.471 33.323c.499.495.749 1.175.705 1.914a3.005 3.005 0 01-.897 1.938c-.575.571-1.344.899-2.114.899zm-32.922-37.85c-.522 0-1.051.228-1.451.626-.756.753-.844 1.891-.194 2.538l33.472 33.323c.281.28.67.433 1.096.433.525 0 1.054-.228 1.454-.625.373-.373.596-.847.625-1.337.029-.469-.125-.896-.432-1.2l-33.472-33.323a1.533 1.533 0 00-1.098-.435z"/><path fill="#93652F" d="M323.18 212.527c.941.936 1.026 2.368.193 3.195l-33.471 33.324c-.832.828-2.269.741-3.208-.195-.941-.934-1.028-2.363-.196-3.192l33.473-33.324c.832-.83 2.269-.743 3.209.192z"/><path d="M288.476 250.081c-.769 0-1.539-.328-2.112-.899a2.994 2.994 0 01-.896-1.938c-.046-.737.203-1.419.703-1.914l33.47-33.323a2.468 2.468 0 011.759-.705c.769 0 1.539.328 2.111.897 1.12 1.116 1.207 2.844.194 3.854l-33.472 33.321a2.465 2.465 0 01-1.757.707zm32.922-37.85c-.429 0-.816.153-1.097.433l-33.472 33.322c-.308.307-.461.732-.432 1.202.029.489.252.963.626 1.336.399.398.929.626 1.451.626.427 0 .816-.153 1.097-.434l33.472-33.322c.65-.646.563-1.786-.194-2.538a2.084 2.084 0 00-1.451-.625z"/><path fill="#FFF" d="M329.133 223.943c-1.878 1.871-4.689 2.109-6.276.529l-11.744-11.693c-1.586-1.578-1.35-4.376.532-6.248 1.879-1.87 4.689-2.109 6.275-.528l11.744 11.692c1.587 1.578 1.35 4.379-.531 6.248z"/><path d="M325.511 225.983c-1.158 0-2.22-.421-2.983-1.183l-11.744-11.692c-.867-.861-1.283-2.063-1.17-3.382.11-1.289.713-2.541 1.701-3.525 1.092-1.085 2.533-1.709 3.954-1.709 1.156 0 2.217.419 2.98 1.182l11.746 11.693c.866.86 1.28 2.063 1.169 3.383-.109 1.289-.714 2.541-1.701 3.522-1.092 1.087-2.531 1.711-3.952 1.711zm-10.242-20.561c-1.176 0-2.375.523-3.294 1.438-.831.825-1.341 1.872-1.432 2.943-.088 1.043.231 1.983.899 2.649l11.745 11.693c.59.584 1.413.906 2.323.906 1.175 0 2.375-.522 3.292-1.438.832-.826 1.34-1.872 1.43-2.944.09-1.042-.229-1.981-.898-2.646L317.59 206.33c-.589-.586-1.412-.908-2.321-.908z"/><path fill="#FFF" d="M269.851 227.834c7.719.096 0 .191 7.908.096 1.907-14.517 8.96-4.27 9.721-5.313.572-2.189 1.907-3.7 4.098-4.366.476-.948-8.387-10.437 10.292-15.846-9.911-.281-28.494 8.258-32.019 25.429z"/><path d="M274.053 228.434c-.238 0-.38 0-.495-.046-.204-.021-.983-.053-3.713-.087l-.564-.007.112-.553c3.411-16.616 21.082-25.808 31.992-25.808.168 0 .335.005.498.008l.117.911c-6.046 1.751-9.781 4.109-11.101 7.007-1.27 2.79-.035 5.429.703 7.007.383.818.574 1.229.393 1.594l-.09.179-.192.057c-1.963.597-3.236 1.955-3.782 4.038l-.021.086-.053.07a.649.649 0 01-.538.268c-.414 0-.888-.349-1.604-.875-1-.735-2.37-1.745-3.628-1.745-1.916 0-3.216 2.508-3.864 7.453l-.053.399-.406.006c-2.319.026-3.295.038-3.711.038zm-.196-.93c.203.002.981-.005 3.494-.034.752-5.288 2.304-7.861 4.736-7.861 1.565 0 3.078 1.114 4.184 1.928.29.213.632.466.86.6.643-2.08 1.961-3.49 3.926-4.203a12.818 12.818 0 00-.301-.673c-.754-1.609-2.157-4.604-.709-7.784 1.165-2.558 3.969-4.702 8.349-6.396-10.438 1.423-24.708 9.938-27.971 24.299 2.426.028 3.151.05 3.432.124z"/><path fill="#D9CE3E" d="M298.201 95.052l106.133 41.516-.339.866-106.133-41.516z"/><path fill="#D9CE3E" d="M390.932 120.595l-91.846-23.801.237-.899 91.843 23.799z"/><path fill="#D9CE3E" d="M294.85 98.488l79.894 2.03-.024.928-79.893-2.03zm70.514-5.796l.06.928-66.773 4.356-.06-.928z"/><path fill="#D9CE3E" d="M355.394 86.2l.17.913-55.656 10.355-.17-.914z"/><path fill="#D9CE3E" d="M299.37 97.648l-.331-.869 44.029-16.549.329.871z"/><path fill="#D9CE3E" d="M300.924 97.018l-.523-.771 31.198-20.899.522.771zm.601-4.951l-.563-.741L323.707 74.2l.563.742zm1.538-2.396l-.723-.588 13.12-15.968.723.588z"/><path fill="#D9CE3E" d="M301.094 93.033l-.865-.349 8.746-21.48.864.349z"/><path fill="#D9CE3E" d="M302.809 71.337l.928.105-2.311 20.321-.928-.105z"/><path fill="#D9CE3E" d="M301.101 92.449l-8.455-21.187.867-.344 8.455 21.188zm-2.018 2.081l-11.662-21.481.821-.442 11.662 21.48zm.617 6.151l-19.535-26.705.754-.547 19.536 26.704z"/><path fill="#D9CE3E" d="M300.675 99.617l-31.787-23.805.561-.743 31.787 23.805zm.948 1.789l-44.029-21.485.41-.835 44.03 21.485z"/><path fill="#D9CE3E" d="M246.248 84.852l54.234 13.06-.217.902-54.234-13.059z"/><path fill="#D9CE3E" d="M233.057 91.809l68.81 6.385-.086.925-68.81-6.385z"/><path fill="#D9CE3E" d="M302.087 97.613l.075.926-79.89 6.404-.074-.926z"/><path fill="#D9CE3E" d="M299.646 96.666l.226.902-92.092 23.12-.226-.901zm-98.259 35.53l-.304-.88 98.554-33.672.303.878zm-6.959 14.79l-.384-.849 104.97-47.023.382.847z"/><path fill="#D9CE3E" d="M188.644 164.959l-.479-.798 110.216-65.603.479.797z"/><path fill="#D9CE3E" d="M198.302 173.354l-.551-.751 106.425-77.507.553.75zm202.057 8.389l-85.433-76.635.625-.691 85.433 76.636z"/><path fill="#D9CE3E" d="M296.814 93.903l108.17 63.864-.472.801-108.17-63.865z"/><path fill="#D9CE3E" d="M404.265 146.981l-108.467-51.09.399-.84 108.466 51.091zm-5.623 19.695l-49.567-36.866.559-.746 49.567 36.867z"/><path fill="#FFF" d="M276.65 111.369h46.221l-23.11-39.744z"/><path d="M324.087 112.067h-48.653l24.327-41.833 24.326 41.833zm-46.224-1.395h43.795l-21.897-37.655-21.898 37.655z"/><path d="M315.279 107.65H284.24l15.521-26.489 15.518 26.489zm-29.413-.928h27.789L299.76 83.007l-13.894 23.715z"/><path fill="gold" d="M305.461 98.265c.383.33.744.684 1.083 1.046-.162.544-1.475 4.443-6.081 4.443-4.533 0-5.241-4.434-5.331-5.192.459-.451.948-.869 1.483-1.227l.035.056s.892 4.638 4.067 4.638 4.699-3.708 4.699-3.708l.045-.056z"/><path d="M305.461 98.265l-.044.056s-1.524 3.708-4.699 3.708c-3.176 0-4.067-4.638-4.067-4.638l-.035-.056c1.119-.762 2.414-1.27 3.973-1.27 1.857.089 3.499 1.01 4.872 2.2z"/><path d="M310.896 103.965a2.182 2.182 0 01-.067-.142c-1.214-2.617-5.58-11.128-10.729-10.71-3.712.297-5.883 3.265-7.05 5.702-1.041 2.177-4.299 3.631-4.438 3.692l-.188-.425c.031-.015 3.237-1.446 4.205-3.466 1.221-2.548 3.5-5.651 7.435-5.966 5.389-.434 9.855 8.124 11.151 10.899l.017-.007.055.145.037.102-.428.176z"/><path d="M289.023 104.387v-.466c1.281 0 2.414-1.395 3.727-3.01.687-.844 1.396-1.717 2.217-2.517a10.64 10.64 0 011.516-1.253c1.291-.879 2.636-1.308 4.104-1.308 1.708.081 3.396.84 5.026 2.255.366.314.725.662 1.1 1.063 1.652 1.771 2.768 3.75 3.169 4.518.131.245.197.39.197.39l-.427.19c-.003-.005-.063-.138-.185-.362-.395-.754-1.482-2.689-3.096-4.418a13.669 13.669 0 00-1.065-1.029c-1.551-1.346-3.143-2.066-4.729-2.142-1.362 0-2.617.402-3.831 1.229-.48.322-.956.714-1.451 1.201-.802.78-1.504 1.643-2.182 2.477-1.387 1.707-2.587 3.182-4.09 3.182z"/><path d="M300.465 103.986c-4.698 0-5.458-4.496-5.563-5.397l-.009-.11.462-.056s.006.042.012.124c.095.822.796 4.976 5.098 4.976 4.458 0 5.727-3.84 5.856-4.277l.015-.056.454.112-.021.075c-.14.472-1.507 4.609-6.304 4.609z"/><path d="M300.715 102.262c-3.33 0-4.257-4.63-4.296-4.827l.459-.087c.01.044.893 4.45 3.837 4.45 2.983 0 4.47-3.529 4.483-3.565l.433.177c-.066.156-1.621 3.852-4.916 3.852zm-.772 3.321c-.804 0-4.65-.197-7.419-3.808l.371-.281c2.935 3.827 7.129 3.625 7.171 3.623l.028.464c-.004 0-.057.002-.151.002zm-6.721.11c-.688 0-1.759-.321-2.742-1.949l.399-.24c1.384 2.29 2.816 1.662 2.876 1.634l.201.42c-.007.003-.293.135-.734.135zm12.446-.254a.904.904 0 01-.476-.125.935.935 0 01-.351-.397 1.247 1.247 0 01-.162.154c-.699.545-1.935.251-1.987.238l.111-.451c.295.071 1.155.184 1.587-.154.191-.149.285-.374.285-.685h.466c0 .472.103.782.293.897.248.15.632-.037.635-.04l.094-.048.097.038c.008.002.222.076.364-.054.122-.112.363-.534-.035-2.06l.431-.171c.991 1.787 1.683 2.087 1.93 2.134l.535-1.258.272.103 1.073.375-.155.438-.934-.327-.465 1.093-.105.032c-.151.044-.851.146-1.906-1.321.051.636-.061 1.068-.331 1.31-.239.213-.543.214-.738.17a1.461 1.461 0 01-.528.109z"/><path fill="#FFF" d="M300.928 97.172c.861.718 1.117 1.602 1.018 3.301-.101 1.698 1.735-1.299 1.27-2.935-.148-.29-3.151-1.082-2.288-.366z"/><path fill="#00427B" d="M385.011 112.717l1.606-.656-1.223-1.246c-4.194-4.278-10.582-6.732-17.521-6.732-6.94 0-13.329 2.454-17.522 6.732l-1.223 1.246 1.604.656c8.297 3.383 12.909 8.681 13.42 15.371h-5.82a3.283 3.283 0 00-.588-.953 3.948 3.948 0 00.418-1.787c0-.838-.245-1.639-.696-2.255a2.828 2.828 0 00-.936-.827c.114-.374.184-.774.184-1.193 0-1.889-1.005-2.574-2.54-2.574l-1.08-.795c-.729-1.015-2.803-3.533-5.939-4.403-1.805-.769-4.717-1.231-8.435.832l-.146.081-.116.119-3.307 3.372h-10.762l-3.307-3.372-.117-.119-.145-.08c-3.746-2.077-6.673-1.596-8.486-.81-2.925.84-4.913 3.086-5.742 4.185v-1.137c0-2.835-2.699-4.317-5.365-4.317s-5.366 1.482-5.366 4.317v1.133c-.835-1.113-2.843-3.386-5.794-4.203-1.805-.768-4.715-1.229-8.431.832l-.147.081-.118.119-3.305 3.372h-10.762l-3.308-3.372-.115-.119-.146-.081c-3.745-2.077-5.728-.532-7.542.254-3.845 1.105-7.023 3.588-7.117 3.74l-.046.076c-.779.588-2.358 1.008-2.358 2.238 0 .383.344 3.329.344 4.91 0 .5-1.377.869-1.196 1.288-.599.274-1.088.787-1.384 1.449h-10.841c-1.993 0-3.617 1.755-3.617 3.915s1.624 3.916 3.617 3.916h11.242c.275.346.61.613.983.787a3.492 3.492 0 00-.287 1.393c0 1.31.702 2.432 1.692 2.894-.179.42-.283.891-.283 1.389 0 1.076.479 2.062 1.257 2.628.497.523 1.123.813 1.779.813h3.033c1.36.765 6.505 3.222 11.495 0h16.352c4.992 3.223 10.135.765 11.496 0h4.119c.883 1.363 2.65 2.208 4.746 2.209 2.103 0 3.87-.846 4.754-2.209h4.12c1.359.764 6.506 3.221 11.496 0h16.352c4.993 3.224 10.135.765 11.495 0h4.032c1.537 0 2.739-1.48 2.739-3.369 0-.516-.093-1.009-.264-1.453.748-.596 1.235-1.627 1.235-2.824a3.95 3.95 0 00-.188-1.196 2.877 2.877 0 001.099-1.062h4.897c-.185.485-.317.766-.32.771l-.251.518c-.001.001.251.518.251.518l4.18 8.522 1.02 2.08 1.021-2.08 4.179-8.522.255-.519-.255-.519c-.004-.009-.391-.818-.772-2.139.553 0 1.151.124 1.556.4.313.214.356.417.356.588v.66c0 .002.557.34.557.34.648.396.648.396 8.163-3.73l1.975-1.083-2.022-.988-7.041-3.437-1.631-.797v1.846c0 .119 0 .438-.58.715-.695.334-1.558.322-2.087.185.037-5.207 2.511-12.061 13.471-16.532z"/><path fill="#FFF" d="M356.213 131.51c.703-.229 1.228-1.068 1.228-2.075 0-1.155-.69-2.091-1.549-2.134.627-.29 1.077-1.079 1.077-2.017 0-1.184-.714-2.143-1.595-2.143h-.887c.609-.297 1.048-1.081 1.048-2.008 0-1.183-.709-2.143-1.584-2.143H251.598c-.875 0-1.584.959-1.584 2.143s.709 2.142 1.584 2.142h.185c-.615.298-1.058 1.081-1.058 2.009 0 .937.449 1.724 1.072 2.015-.864.035-1.561.974-1.561 2.136 0 1.078.6 1.962 1.378 2.112-.657.269-1.138 1.075-1.138 2.04 0 .929.444 1.712 1.063 2.008h-.191c-.88 0-1.595.959-1.595 2.144 0 .963.477 1.769 1.129 2.038-.77.146-1.363 1.032-1.363 2.113 0 1.183.707 2.143 1.583 2.143h102.354c.876 0 1.583-.96 1.583-2.143 0-.929-.438-1.712-1.048-2.009h.412c.882 0 1.596-.959 1.596-2.142 0-.929-.442-1.712-1.06-2.009h.896c.886 0 1.605-.959 1.605-2.143 0-1.008-.522-1.849-1.227-2.077z"/><path d="M353.457 144.496H251.103c-1.131 0-2.052-1.169-2.052-2.607 0-.919.368-1.729.941-2.191-.438-.482-.705-1.189-.705-1.959 0-1.077.519-2.003 1.257-2.401-.338-.466-.534-1.083-.534-1.75 0-.771.269-1.479.711-1.962-.58-.463-.95-1.273-.95-2.189 0-.999.439-1.863 1.097-2.299-.384-.476-.608-1.133-.608-1.852 0-.668.196-1.286.532-1.753-.731-.398-1.245-1.323-1.245-2.398 0-1.437.921-2.607 2.052-2.607h102.354c1.131 0 2.051 1.17 2.051 2.607 0 .579-.146 1.121-.403 1.559 1.03.141 1.838 1.25 1.838 2.592 0 .723-.229 1.385-.618 1.861.651.439 1.088 1.3 1.088 2.29 0 .834-.314 1.594-.82 2.074.506.48.821 1.241.821 2.077 0 1.342-.81 2.451-1.848 2.592.26.438.407.979.407 1.56 0 1.159-.603 2.144-1.432 2.481.301.456.473 1.04.473 1.669-.002 1.436-.922 2.606-2.053 2.606zm-102.108-8.436c-.611 0-1.128.769-1.128 1.679 0 .742.347 1.404.842 1.608l1.443.597-1.536.29c-.552.104-.984.832-.984 1.656 0 .909.513 1.678 1.117 1.678h102.354c.605 0 1.117-.769 1.117-1.678 0-.724-.316-1.362-.786-1.591l.204-.882h.412c.612 0 1.129-.769 1.129-1.678 0-.722-.32-1.361-.795-1.591l.202-.882h.896c.617 0 1.138-.769 1.138-1.678 0-.777-.381-1.465-.904-1.635l-1.358-.44 1.357-.443c.524-.171.905-.858.905-1.633 0-.891-.497-1.639-1.104-1.67l-.175-.885c.475-.22.808-.877.808-1.596 0-.909-.517-1.678-1.128-1.678h-.887l-.206-.882c.464-.226.788-.881.788-1.591 0-.909-.513-1.678-1.118-1.678H251.598c-.606 0-1.118.769-1.118 1.678 0 .91.512 1.678 1.118 1.678h.185l.204.882c-.475.231-.794.87-.794 1.591 0 .717.33 1.372.805 1.594l-.181.885c-.614.025-1.114.775-1.114 1.672 0 .834.431 1.545 1.001 1.655l1.534.295-1.446.592c-.499.204-.849.866-.849 1.609 0 .722.322 1.36.8 1.589l-.202.884h-.192z"/><path fill="#906627" d="M375.188 128.196l7.001 3.337s-7.001 3.753-7.001 3.646c0-2.62-5.271-2.62-5.271-.874v-5.237c.001 1.746 5.271 1.746 5.271-.872z"/><path d="M375 135.646l-.279-.273v-.194c0-1.286-1.678-1.625-2.565-1.625-.976 0-1.771.337-1.771.752h-.934v-5.237h.934c0 .415.795.752 1.771.752.682 0 1.344-.161 1.816-.439.497-.294.749-.693.749-1.185v-.738l8.497 4.051-.808.434c-6.904 3.703-7.07 3.703-7.217 3.703H375zm-2.845-3.022c1.452 0 3 .593 3.401 1.878 1.073-.539 3.612-1.882 5.602-2.945l-5.609-2.675c-.173.524-.549.973-1.102 1.298-.619.367-1.435.569-2.292.569-.701 0-1.311-.134-1.771-.368v2.611c.461-.234 1.07-.368 1.771-.368z"/><path fill="#93652F" d="M370.926 131.747c0 1.477-1.103 2.672-2.465 2.672H234.252c-1.361 0-2.463-1.195-2.463-2.672 0-1.476 1.102-2.673 2.463-2.673h134.206c1.361 0 2.464 1.197 2.464 2.673h.004z"/><path d="M368.461 134.885H234.252c-1.617 0-2.932-1.408-2.932-3.138s1.314-3.137 2.932-3.137h134.206c1.468 0 2.688 1.163 2.898 2.673h.032l.004.464c.001 1.73-1.314 3.138-2.931 3.138zm-134.209-5.346c-1.102 0-1.997.991-1.997 2.208 0 1.218.896 2.208 1.997 2.208h134.209c1.066 0 1.94-.929 1.994-2.092v-.116c0-1.217-.896-2.208-1.997-2.208H234.252z"/><path fill="#CCC" d="M363.6 136.795l4.154 8.275 4.155-8.275s-8.313-16.547 12.466-24.82c-8.311-8.274-24.932-8.274-33.242 0 20.776 8.273 12.467 24.82 12.467 24.82z"/><path d="M367.754 145.85l-4.545-9.054.077-.156c.032-.063 3.139-6.402.603-13.033-1.851-4.836-6.186-8.641-12.885-11.309l-.495-.196.376-.374c4.025-4.009 10.174-6.308 16.869-6.308 6.693 0 12.842 2.299 16.868 6.308l.376.374-.493.196c-6.704 2.669-11.04 6.477-12.887 11.316-2.535 6.639.573 12.962.604 13.025l.078.155-4.546 9.056zm-3.765-9.058l3.765 7.499 3.766-7.499c-.495-1.064-3.002-7.019-.558-13.424 1.874-4.908 6.174-8.779 12.784-11.514-3.898-3.651-9.691-5.735-15.992-5.735s-12.093 2.084-15.992 5.735c6.61 2.735 10.909 6.607 12.784 11.514 2.446 6.405-.063 12.36-.557 13.424z"/><path d="M368.461 134.885H234.252c-1.617 0-2.932-1.408-2.932-3.138s1.314-3.137 2.932-3.137h134.206c1.468 0 2.688 1.163 2.898 2.673h.032l.004.464c.001 1.73-1.314 3.138-2.931 3.138zm-134.209-5.346c-1.102 0-1.997.991-1.997 2.208 0 1.218.896 2.208 1.997 2.208h134.209c1.066 0 1.94-.929 1.994-2.092v-.116c0-1.217-.896-2.208-1.997-2.208H234.252z"/><path fill="#FFF" d="M352.072 121.032c0 1.049-.69 1.9-1.537 1.9h-99.41c-.85 0-1.539-.851-1.539-1.9 0-1.05.689-1.901 1.539-1.901h99.41c.847 0 1.537.852 1.537 1.901z"/><path d="M350.535 123.397h-99.41c-1.105 0-2.005-1.061-2.005-2.365s.899-2.365 2.005-2.365h99.41c1.104 0 2.004 1.061 2.004 2.365s-.9 2.365-2.004 2.365zm-99.41-3.8c-.58 0-1.072.658-1.072 1.436 0 .778.492 1.436 1.072 1.436h99.41c.58 0 1.07-.658 1.07-1.436 0-.778-.49-1.436-1.07-1.436h-99.41z"/><path fill="#FFF" d="M350.438 125.193c0 1.049-.691 1.9-1.549 1.9H248.804c-.854 0-1.548-.851-1.548-1.9 0-1.05.693-1.901 1.548-1.901h100.085c.857 0 1.552.851 1.552 1.901h-.003z"/><path d="M348.889 127.558H248.804c-1.111 0-2.016-1.061-2.016-2.365 0-1.305.904-2.366 2.016-2.366h100.085c.558 0 1.076.259 1.459.729.361.442.558 1.023.558 1.637-.002 1.305-.906 2.365-2.017 2.365zm-100.085-3.8c-.596 0-1.08.644-1.08 1.436 0 .791.484 1.435 1.08 1.435h100.085c.598 0 1.084-.644 1.084-1.435 0-.401-.125-.774-.35-1.051-.203-.248-.462-.385-.733-.385H248.804z"/><path fill="#FFF" d="M349.973 129.349c0 1.049-.701 1.9-1.563 1.9H247.417c-.864 0-1.563-.851-1.563-1.9 0-1.05.699-1.901 1.563-1.901h100.992c.862 0 1.562.852 1.562 1.901h.002z"/><path d="M348.409 131.714H247.417c-1.12 0-2.031-1.061-2.031-2.365 0-1.304.911-2.365 2.031-2.365h100.992c1.119 0 2.028 1.061 2.028 2.365a2.57 2.57 0 01-.563 1.639c-.385.468-.905.726-1.465.726zm-100.992-3.8c-.605 0-1.097.644-1.097 1.435s.491 1.436 1.097 1.436h100.992c.604 0 1.095-.644 1.095-1.436-.001-.791-.492-1.435-1.095-1.435H247.417z"/><path fill="#FFF" d="M349.738 133.504c0 1.05-.698 1.9-1.56 1.9H247.41c-.86 0-1.559-.852-1.559-1.9 0-1.049.698-1.901 1.559-1.901h100.769c.861.001 1.559.853 1.559 1.901z"/><path d="M348.179 135.87H247.41c-1.117 0-2.025-1.062-2.025-2.366s.908-2.365 2.025-2.365h100.769c1.116 0 2.025 1.061 2.025 2.365 0 1.304-.909 2.366-2.025 2.366zm-100.769-3.801c-.602 0-1.092.644-1.092 1.435 0 .792.49 1.436 1.092 1.436h100.769c.603 0 1.093-.645 1.093-1.436 0-.791-.49-1.435-1.093-1.435H247.41z"/><path fill="#FFF" d="M350.438 137.66c0 1.05-.691 1.9-1.549 1.9H248.804c-.854 0-1.548-.851-1.548-1.9s.693-1.9 1.548-1.9h100.085c.857 0 1.552.851 1.552 1.9h-.003z"/><path d="M348.889 140.025H248.804c-1.111 0-2.016-1.062-2.016-2.366s.904-2.365 2.016-2.365h100.085c1.111 0 2.017 1.061 2.017 2.365-.002 1.305-.906 2.366-2.017 2.366zm-100.085-3.8c-.596 0-1.08.645-1.08 1.435 0 .792.484 1.436 1.08 1.436h100.085c.598 0 1.084-.644 1.084-1.436a1.66 1.66 0 00-.35-1.05c-.203-.249-.462-.385-.734-.385H248.804z"/><path fill="#FFF" d="M351.138 141.82c0 1.05-.688 1.9-1.538 1.9h-99.407c-.851 0-1.539-.851-1.539-1.9s.688-1.901 1.539-1.901H349.6c.849 0 1.538.852 1.538 1.901z"/><path d="M349.6 144.186h-99.407c-1.106 0-2.008-1.062-2.008-2.366 0-1.305.901-2.365 2.008-2.365H349.6c1.105 0 2.006 1.061 2.006 2.365-.001 1.305-.901 2.366-2.006 2.366zm-99.408-3.802c-.583 0-1.072.658-1.072 1.436s.489 1.436 1.072 1.436H349.6c.582 0 1.071-.658 1.071-1.436s-.489-1.436-1.071-1.436h-99.408zm33.684-24.664c7.125-4.21 11.752 3.157 11.752 3.157l-15.083.188 3.331-3.345zm-21.45 0c-7.168-4.21-11.824 3.156-11.824 3.156l15.176.188-3.352-3.344z"/><path fill="#CCC" d="M292.417 144.005l-28.743-28.615c-6.45-3.494-10.055 1.133-10.055 1.133l26.939 26.726c5.501 4.817 11.859.756 11.859.756z"/><path d="M286.687 146.07c-2.397 0-4.563-.832-6.437-2.472l-27.253-27.036.253-.324c.084-.107 2.082-2.618 5.777-2.618 1.563 0 3.203.458 4.87 1.362l.107.08 29.151 29.022-.487.312c-.106.069-2.657 1.674-5.981 1.674zm-32.423-29.563l26.625 26.413c1.676 1.466 3.634 2.22 5.798 2.22 2.221 0 4.095-.799 4.963-1.242l-28.258-28.131c-1.509-.809-2.978-1.217-4.364-1.217-2.514 0-4.147 1.343-4.764 1.957zm86.37-.787c7.124-4.21 11.75 3.157 11.75 3.157l-15.082.188 3.332-3.345zm-21.45 0c-7.168-4.21-11.823 3.157-11.823 3.157l15.176.188-3.353-3.345z"/><path fill="#CCC" d="M349.172 144.005l-28.741-28.615c-6.45-3.494-10.055 1.133-10.055 1.133l26.938 26.726c5.503 4.817 11.858.756 11.858.756z"/><path d="M343.442 146.07c-2.396 0-4.563-.832-6.436-2.472l-27.251-27.036.252-.324c.083-.107 2.082-2.618 5.777-2.618 1.563 0 3.2.458 4.869 1.362l.108.08 29.149 29.022-.487.312c-.105.068-2.656 1.674-5.981 1.674zm-32.418-29.562l26.62 26.412c1.678 1.466 3.635 2.22 5.798 2.22 2.223 0 4.098-.799 4.964-1.242l-28.257-28.131c-1.51-.809-2.978-1.217-4.364-1.217-2.5 0-4.141 1.344-4.761 1.958z"/><path fill="#00427B" d="M310.569 144.005l28.742-28.615c6.449-3.494 10.055 1.133 10.055 1.133l-26.939 26.726c-5.502 4.817-11.858.756-11.858.756z"/><path d="M316.299 146.07c-3.324 0-5.874-1.605-5.981-1.674l-.487-.312 29.258-29.102c1.669-.904 3.307-1.362 4.87-1.362 3.695 0 5.693 2.511 5.777 2.618l.253.324-27.231 27.015c-1.896 1.661-4.061 2.493-6.459 2.493zm-4.961-2.172c.869.442 2.747 1.242 4.961 1.242 2.164 0 4.121-.754 5.819-2.24l26.603-26.392c-.621-.614-2.265-1.958-4.763-1.958-1.388 0-2.856.408-4.364 1.217l-28.256 28.131z"/><path fill="#CCC" d="M297.29 143.117V116.57c0-4.084 8.404-4.084 8.404 0v26.547c0 4.084-8.404 4.084-8.404 0z"/><path d="M301.492 146.645c-2.247 0-4.669-1.104-4.669-3.527V116.57c0-2.424 2.422-3.528 4.669-3.528 2.248 0 4.67 1.104 4.67 3.528v26.547c0 2.424-2.422 3.528-4.67 3.528zm0-32.673c-1.799 0-3.733.813-3.733 2.599v26.547c0 1.785 1.935 2.598 3.733 2.598s3.735-.813 3.735-2.598V116.57c.001-1.785-1.936-2.598-3.735-2.598zm18.499 27.179l.684-.3c.267.419.393.796.372 1.133-.02.337-.161.635-.422.896a1.386 1.386 0 01-1.178.417c-.525-.057-1.038-.331-1.532-.825-.522-.521-.815-1.047-.876-1.577-.051-.461.098-.864.443-1.209a1.35 1.35 0 01.998-.417c.273.001.575.105.91.311l-.355.647c-.2-.134-.393-.197-.577-.191a.698.698 0 00-.472.204.758.758 0 00-.211.695c.046.277.253.602.626.972.386.385.716.602.995.649.277.049.508-.018.691-.2a.65.65 0 00.19-.502c-.006-.2-.102-.434-.286-.703zm.435-1.199c-.365-.365-.615-.718-.743-1.062-.126-.343-.161-.659-.104-.949.06-.289.213-.556.46-.804a1.545 1.545 0 011.294-.466c.503.047 1.009.324 1.516.831.515.512.796 1.031.846 1.557.044.465-.114.877-.477 1.237-.365.363-.779.524-1.244.482-.529-.05-1.044-.324-1.548-.826zm.504-.545c.353.351.685.547.994.59.312.043.564-.034.765-.231.199-.2.276-.45.231-.755-.044-.304-.246-.636-.609-.998-.355-.354-.683-.552-.98-.594a.845.845 0 00-.756.245.845.845 0 00-.246.758c.039.298.243.627.601.985zm3.866-.78l-3.073-3.059.497-.494 3.081 1.018-2.051-2.043.473-.472 3.072 3.058-.513.51-3.015-.986 2.002 1.994-.473.474zm1.406-3.394l.438-.554c.447.334.825.348 1.135.04.151-.152.234-.312.24-.479a.538.538 0 00-.166-.428.466.466 0 00-.223-.131.507.507 0 00-.261.02c-.095.032-.3.13-.614.298-.282.15-.514.237-.688.26a1.155 1.155 0 01-.544-.062 1.3 1.3 0 01-.492-.312 1.257 1.257 0 01-.336-.563 1.03 1.03 0 01.01-.617c.067-.202.198-.401.395-.597.298-.295.61-.446.935-.453.327-.006.646.135.953.422l-.479.533c-.187-.141-.35-.207-.489-.199-.141.008-.279.081-.417.218-.138.136-.214.27-.23.4a.355.355 0 00.101.321c.084.083.186.12.311.11.125-.01.342-.101.652-.272.329-.18.593-.286.788-.318a1.13 1.13 0 01.575.055c.19.069.377.195.562.379.266.266.408.57.427.915.015.344-.148.689-.499 1.037-.621.614-1.315.606-2.084-.023zm4.04-2.031l-2.554-2.54-.749.745-.521-.519 2.002-1.993.521.519-.746.743 2.551 2.54-.504.505zm1.568-1.562l-3.074-3.059.511-.505 3.07 3.059-.507.505zm1.558-1.552l-2.552-2.54-.749.745-.521-.519 2.002-1.993.521.519-.747.743 2.553 2.54-.507.505zm-1.489-4.635l.508-.506 1.663 1.656c.259.257.434.417.522.484.16.112.318.164.477.152a.69.69 0 00.444-.222.666.666 0 00.207-.364.552.552 0 00-.064-.368c-.066-.12-.252-.332-.557-.636l-1.699-1.691.507-.505 1.614 1.606c.412.41.688.728.827.956.139.226.188.474.148.741-.04.266-.188.526-.439.777-.263.262-.517.419-.758.472s-.48.028-.717-.077-.587-.386-1.046-.842l-1.637-1.633zm6.183-.036l-2.552-2.54-.75.745-.519-.518 2.001-1.994.52.519-.745.743 2.55 2.54-.505.505zm1.568-1.559l-3.072-3.058.509-.506 3.07 3.058-.507.506zm-.627-2.398c-.365-.364-.612-.718-.742-1.062-.128-.343-.163-.659-.104-.948.06-.29.213-.558.461-.805a1.54 1.54 0 011.293-.466c.504.048 1.008.325 1.516.831.515.512.795 1.031.843 1.558.046.464-.112.876-.473 1.237-.365.363-.779.523-1.243.481-.531-.049-1.047-.324-1.551-.826zm.507-.544c.352.351.683.548.993.591.312.042.564-.035.763-.232.2-.199.278-.449.234-.754-.048-.305-.247-.638-.612-.999-.356-.354-.683-.551-.981-.593a.844.844 0 00-.755.244.849.849 0 00-.246.758c.042.298.243.627.604.985zm3.86-.785l-3.073-3.059.496-.494 3.08 1.018-2.052-2.042.475-.474 3.073 3.06-.513.51-3.016-.986 2.004 1.994-.474.473z"/><path fill="#D72E39" d="M253.813 144.005l28.741-28.615c6.451-3.494 10.056 1.133 10.056 1.133l-26.938 26.726c-5.503 4.817-11.859.756-11.859.756z"/><path d="M259.541 146.07c-3.323 0-5.874-1.605-5.98-1.674l-.488-.312 29.26-29.102c1.668-.904 3.307-1.362 4.869-1.362 3.696 0 5.694 2.511 5.777 2.618l.253.324L266 143.578c-1.895 1.66-4.061 2.492-6.459 2.492zm-4.961-2.172c.869.442 2.749 1.242 4.961 1.242 2.164 0 4.124-.754 5.821-2.24l26.6-26.392c-.619-.614-2.261-1.958-4.761-1.958-1.389 0-2.854.408-4.365 1.217l-28.256 28.131z"/><path d="M267.025 133.774l.509-.506 1.662 1.656c.258.257.434.418.523.484a.728.728 0 00.476.153.683.683 0 00.444-.223.686.686 0 00.209-.364.554.554 0 00-.066-.368c-.065-.12-.252-.332-.557-.636l-1.698-1.69.508-.506 1.613 1.605c.412.41.687.728.828.956.139.227.188.473.147.741-.042.267-.187.526-.439.777-.264.263-.517.418-.758.472-.24.053-.48.027-.718-.077-.238-.105-.587-.386-1.045-.843l-1.638-1.631zm5.687.456l-3.072-3.059.497-.494 3.082 1.018-2.055-2.043.476-.473 3.073 3.059-.514.509-3.015-.987 2.003 1.995-.475.475zm2.582-2.567l-3.071-3.058.508-.506 3.071 3.059-.508.505zm-.56-2.463c-.365-.364-.613-.718-.742-1.062-.127-.343-.163-.658-.104-.949.059-.289.213-.557.461-.805.36-.358.791-.513 1.292-.465.503.048 1.01.324 1.517.83.515.512.795 1.031.845 1.558.046.465-.115.876-.475 1.237-.364.362-.78.523-1.243.482-.53-.049-1.048-.324-1.551-.826zm.504-.545c.354.351.686.548.996.59.311.043.564-.034.763-.232.197-.198.277-.45.232-.753-.045-.306-.248-.638-.611-.999-.355-.354-.682-.552-.98-.595a.85.85 0 00-.755.245.848.848 0 00-.247.757c.042.3.243.629.602.987zm3.927-.845l-3.071-3.059.495-.492 3.08 1.017-2.052-2.042.477-.474 3.071 3.059-.513.51-3.017-.987 2.006 1.995-.476.473zm24.392 4.7v.775l-.982.308v1.422l.982.293v.761l-4.346-1.375v-.763l4.346-1.421zm-1.72 1.315l-1.612.492 1.612.479v-.971zM303.557 132.031h-4.346v-.697l2.902-1.449h-2.902v-.668h4.346v.721l-2.834 1.425h2.834v.668zM299.208 128.377v-1.306c0-.33.039-.579.112-.747.073-.167.198-.322.375-.464.176-.142.402-.252.684-.333.282-.082.632-.121 1.048-.121.376 0 .701.042.978.127.278.083.498.19.66.32.164.129.283.286.365.47.083.184.125.419.125.708v1.344l-4.347.002zm.737-.715h2.871v-.535c0-.229-.021-.396-.065-.498a.6.6 0 00-.198-.253 1.125 1.125 0 00-.416-.163 3.477 3.477 0 00-.747-.065c-.32 0-.573.022-.761.066a1 1 0 00-.438.207.652.652 0 00-.211.338c-.026.1-.037.293-.037.579v.323l.002.001z"/></svg>
