<svg xmlns="http://www.w3.org/2000/svg" width="300" height="300"><path fill="#fff" stroke="#000" stroke-width="1.73" d="M15.91 46.88l-2.93 9.01H3.5l7.67 5.57-2.93 9.02 7.67-5.57 7.67 5.57-2.93-9.02 7.67-5.57h-9.48l-2.93-9.01zM15.91 92.54l-2.93 9.01H3.5l7.67 5.58-2.93 9.01 7.67-5.57 7.67 5.57-2.93-9.01 7.67-5.58h-9.48l-2.93-9.01zM15.91 138.2l-2.93 9.01H3.5l7.67 5.58-2.93 9.01 7.67-5.57 7.67 5.57-2.93-9.01 7.67-5.58h-9.48l-2.93-9.01zM15.91 183.86l-2.93 9.02H3.5l7.67 5.57-2.93 9.01 7.67-5.57 7.67 5.57-2.93-9.01 7.67-5.57h-9.48l-2.93-9.02zM18.84 238.54l-2.93-9.02-2.93 9.02H3.5l7.67 5.57-2.93 9.01 7.67-5.57 7.67 5.57-2.93-9.01 7.67-5.57h-9.48zM42.77 69.71l-2.93 9.01h-9.48l7.66 5.58-2.92 9.01 7.67-5.57 7.66 5.57-2.93-9.01 7.67-5.58h-9.48l-2.92-9.01zM42.77 115.37l-2.93 9.01h-9.48l7.66 5.58-2.92 9.01 7.67-5.57 7.66 5.57-2.93-9.01 7.67-5.58h-9.48l-2.92-9.01zM42.77 161.03l-2.93 9.01h-9.48l7.66 5.58-2.92 9.01 7.67-5.57 7.66 5.57-2.93-9.01 7.67-5.58h-9.48l-2.92-9.01zM45.69 215.71l-2.92-9.02-2.93 9.02h-9.48l7.66 5.57-2.92 9.01 7.67-5.57 7.66 5.57-2.93-9.01 7.67-5.57h-9.48zM69.62 46.88l-2.93 9.01h-9.48l7.67 5.57-2.93 9.02 7.67-5.57 7.67 5.57-2.93-9.02 7.67-5.57h-9.48l-2.93-9.01zM69.62 92.54l-2.93 9.01h-9.48l7.67 5.58-2.93 9.01 7.67-5.57 7.67 5.57-2.93-9.01 7.67-5.58h-9.48l-2.93-9.01zM69.62 138.2l-2.93 9.01h-9.48l7.67 5.58-2.93 9.01 7.67-5.57 7.67 5.57-2.93-9.01 7.67-5.58h-9.48l-2.93-9.01zM69.62 183.86l-2.93 9.02h-9.48l7.67 5.57-2.93 9.01 7.67-5.57 7.67 5.57-2.93-9.01 7.67-5.57h-9.48l-2.93-9.02zM72.55 238.54l-2.93-9.02-2.93 9.02h-9.48l7.67 5.57-2.93 9.01 7.67-5.57 7.67 5.57-2.93-9.01 7.67-5.57h-9.48zM96.47 69.71l-2.93 9.01h-9.48l7.67 5.58-2.93 9.01 7.67-5.57 7.67 5.57-2.93-9.01 7.67-5.58H99.4l-2.93-9.01zM96.47 115.37l-2.93 9.01h-9.48l7.67 5.58-2.93 9.01 7.67-5.57 7.67 5.57-2.93-9.01 7.67-5.58H99.4l-2.93-9.01zM96.47 161.03l-2.93 9.01h-9.48l7.67 5.58-2.93 9.01 7.67-5.57 7.67 5.57-2.93-9.01 7.67-5.58H99.4l-2.93-9.01zM99.4 215.71l-2.93-9.02-2.93 9.02h-9.48l7.67 5.57-2.93 9.01 7.67-5.57 7.67 5.57-2.93-9.01 7.67-5.57H99.4zM123.32 46.88l-2.93 9.01h-9.47l7.66 5.57-2.92 9.02 7.66-5.57 7.67 5.57-2.93-9.02 7.67-5.57h-9.48l-2.93-9.01zM123.32 92.54l-2.93 9.01h-9.47l7.66 5.58-2.92 9.01 7.66-5.57 7.67 5.57-2.93-9.01 7.67-5.58h-9.48l-2.93-9.01zM123.32 138.2l-2.93 9.01h-9.47l7.66 5.58-2.92 9.01 7.66-5.57 7.67 5.57-2.93-9.01 7.67-5.58h-9.48l-2.93-9.01zM123.32 183.86l-2.93 9.02h-9.47l7.66 5.57-2.92 9.01 7.66-5.57 7.67 5.57-2.93-9.01 7.67-5.57h-9.48l-2.93-9.02zM126.25 238.54l-2.93-9.02-2.93 9.02h-9.47l7.66 5.57-2.92 9.01 7.66-5.57 7.67 5.57-2.93-9.01 7.67-5.57h-9.48zM150.18 69.71l-2.93 9.01h-9.48l7.67 5.58-2.93 9.01 7.67-5.57 7.66 5.57-2.93-9.01 7.67-5.58h-9.48l-2.92-9.01zM150.18 115.37l-2.93 9.01h-9.48l7.67 5.58-2.93 9.01 7.67-5.57 7.66 5.57-2.93-9.01 7.67-5.58h-9.48l-2.92-9.01zM150.18 161.03l-2.93 9.01h-9.48l7.67 5.58-2.93 9.01 7.67-5.57 7.66 5.57-2.93-9.01 7.67-5.58h-9.48l-2.92-9.01zM153.1 215.71l-2.92-9.02-2.93 9.02h-9.48l7.67 5.57-2.93 9.01 7.67-5.57 7.66 5.57-2.93-9.01 7.67-5.57h-9.48zM177.03 46.88l-2.93 9.01h-9.48l7.67 5.57-2.93 9.02 7.67-5.57 7.67 5.57-2.93-9.02 7.67-5.57h-9.48l-2.93-9.01zM177.03 92.54l-2.93 9.01h-9.48l7.67 5.58-2.93 9.01 7.67-5.57 7.67 5.57-2.93-9.01 7.67-5.58h-9.48l-2.93-9.01zM177.03 138.2l-2.93 9.01h-9.48l7.67 5.58-2.93 9.01 7.67-5.57 7.67 5.57-2.93-9.01 7.67-5.58h-9.48l-2.93-9.01zM177.03 183.86l-2.93 9.02h-9.48l7.67 5.57-2.93 9.01 7.67-5.57 7.67 5.57-2.93-9.01 7.67-5.57h-9.48l-2.93-9.02zM179.96 238.54l-2.93-9.02-2.93 9.02h-9.48l7.67 5.57-2.93 9.01 7.67-5.57 7.67 5.57-2.93-9.01 7.67-5.57h-9.48zM203.88 69.71l-2.93 9.01h-9.48l7.67 5.58-2.93 9.01 7.67-5.57 7.67 5.57-2.93-9.01 7.67-5.58h-9.48l-2.93-9.01zM203.88 115.37l-2.93 9.01h-9.48l7.67 5.58-2.93 9.01 7.67-5.57 7.67 5.57-2.93-9.01 7.67-5.58h-9.48l-2.93-9.01zM203.88 161.03l-2.93 9.01h-9.48l7.67 5.58-2.93 9.01 7.67-5.57 7.67 5.57-2.93-9.01 7.67-5.58h-9.48l-2.93-9.01zM206.81 215.71l-2.93-9.02-2.93 9.02h-9.48l7.67 5.57-2.93 9.01 7.67-5.57 7.67 5.57-2.93-9.01 7.67-5.57h-9.48zM230.74 46.88l-2.93 9.01h-9.48l7.67 5.57-2.93 9.02 7.67-5.57 7.66 5.57-2.93-9.02 7.67-5.57h-9.48l-2.92-9.01zM230.74 92.54l-2.93 9.01h-9.48l7.67 5.58-2.93 9.01 7.67-5.57 7.66 5.57-2.93-9.01 7.67-5.58h-9.48l-2.92-9.01zM230.74 138.2l-2.93 9.01h-9.48l7.67 5.58-2.93 9.01 7.67-5.57 7.66 5.57-2.93-9.01 7.67-5.58h-9.48l-2.92-9.01zM230.74 183.86l-2.93 9.02h-9.48l7.67 5.57-2.93 9.01 7.67-5.57 7.66 5.57-2.93-9.01 7.67-5.57h-9.48l-2.92-9.02zM233.66 238.54l-2.92-9.02-2.93 9.02h-9.48l7.67 5.57-2.93 9.01 7.67-5.57 7.66 5.57-2.93-9.01 7.67-5.57h-9.48zM257.59 69.71l-2.93 9.01h-9.48l7.67 5.58-2.93 9.01 7.67-5.57 7.67 5.57-2.93-9.01 7.67-5.58h-9.48l-2.93-9.01zM257.59 115.37l-2.93 9.01h-9.48l7.67 5.58-2.93 9.01 7.67-5.57 7.67 5.57-2.93-9.01 7.67-5.58h-9.48l-2.93-9.01zM257.59 161.03l-2.93 9.01h-9.48l7.67 5.58-2.93 9.01 7.67-5.57 7.67 5.57-2.93-9.01 7.67-5.58h-9.48l-2.93-9.01zM260.52 215.71l-2.93-9.02-2.93 9.02h-9.48l7.67 5.57-2.93 9.01 7.67-5.57 7.67 5.57-2.93-9.01 7.67-5.57h-9.48zM279.7 61.46l-2.93 9.02 7.67-5.57 7.67 5.57-2.93-9.02 7.67-5.57h-9.48l-2.93-9.01-2.93 9.01h-9.48l7.67 5.57zM284.44 92.54l-2.93 9.01h-9.48l7.67 5.58-2.93 9.01 7.67-5.57 7.67 5.57-2.93-9.01 7.67-5.58h-9.48l-2.93-9.01zM284.44 138.2l-2.93 9.01h-9.48l7.67 5.58-2.93 9.01 7.67-5.57 7.67 5.57-2.93-9.01 7.67-5.58h-9.48l-2.93-9.01zM284.44 183.86l-2.93 9.02h-9.48l7.67 5.57-2.93 9.01 7.67-5.57 7.67 5.57-2.93-9.01 7.67-5.57h-9.48l-2.93-9.02zM287.37 238.54l-2.93-9.02-2.93 9.02h-9.48l7.67 5.57-2.93 9.01 7.67-5.57 7.67 5.57-2.93-9.01 7.67-5.57h-9.48z"/></svg>