<svg xmlns="http://www.w3.org/2000/svg" width="250" height="300" viewBox="0 0 250 300"><path d="M129.88 49.91l10-7-12.21-.18L124 31l-3.9 11.59-12.22-.17 9.79 7.32-3.94 11.56 10-7 9.79 7.32zM81.89 58.5l5.56-10.87-10.89 5.52-8.62-8.65 1.89 12.07-10.9 5.52L71 64l1.89 12.07 5.57-10.87 12.06 1.93zM43.24 88.65l-.13-12.21L36 86.39l-11.62-3.66 7.27 9.81-7.08 9.95 11.58-3.89 7.28 9.8-.12-12.21 11.58-3.89zM23.32 133.21l-5.78-10.75-1.65 12.1-12 2.18 11 5.3-1.65 12.1 8.45-8.83 11 5.3-5.78-10.75 8.43-8.86zM26.13 181.81L16 175l4.16 11.48-9.61 7.52 12.2-.42L26.92 205l3.38-11.74 12.2-.42L32.38 186l3.38-11.74zM51.32 223.82l-12.13-1.36 9 8.23-5 11.13 10.61-6 9 8.23-2.47-12L71 226l-12.13-1.35-2.47-12zM93.22 249l-11.38 4.44 11.82 3.09.71 12.19 6.63-10.24 11.81 3.1-7.81-9.45 6.59-10.28-11.38 4.44-7.74-9.45zM141.78 252l-8 9.21 11.9-2.75L152 269l1-12.19 11.9-2.75-11.24-4.77 1-12.16-8 9.21-11.25-4.77zM186.45 232.17l-2.81 11.88 9.26-8 10.44 6.34-4.72-11.26 9.26-8-12.17 1L191 213l-2.81 11.88-12.17 1zM216.61 193.6l3 11.82 4.49-11.35 12.19.76-9.41-7.77 4.5-11.36-10.31 6.55-9.41-7.78 3 11.82-10.31 6.55zM211.1 99.06l11.45 4.21-6.78-10.14 7.55-9.6-11.74 3.32-6.79-10.15-.47 12.21-11.75 3.32L204 96.45l-.47 12.2zM176.48 64.4l12.1-1.59L177.86 57l2.23-12-8.86 8.4-10.72-5.83 5.25 11L156.9 67l12.1-1.62 5.25 11zM225.38 145.72l8.18 9.06-1.29-12.15 11.14-5-11.94-2.52-1.29-12.11-6.09 10.59-12-2.52 8.18 9.06-6.09 10.58z" fill="#fff" stroke="#000" stroke-miterlimit="10" stroke-width="2" fill-rule="evenodd"/></svg>