<svg xmlns="http://www.w3.org/2000/svg" width="180" height="300" viewBox="0 0 180 300"><title>flag-new-york-icon-crown</title><path d="M72.1,140.41c14.35-7.47,25.31-23.06,28-35.5s3.43-25.31-12.33-29.4-23.29-8.89-28,0S44.72,99.45,44.72,99.45L53,113.09l4.74-2.73V107l5.45-4.27,3.44,4.92L70,105.62l5.51,6.93-2.73,3.32,2,4.15-6.1,4.8-3.44-2.73-5.46,5.34,10.2,13H72.1Z" fill="none" stroke="#000" stroke-linecap="round" stroke-linejoin="round" stroke-width="2"/><path d="M89.17,165.72c14.64-7,33.79-6.46,45.34-1.37s22.35,12.09,16.3,27.33c-6,15-6.64,24-16.65,22.52S106,212.06,106,212.06l-6.16-14.69,5-2.2,2.73,2.08,6.57-2-1.83-5.51,3.73-1.66-2.25-8.36-4.39.3L107.25,176,99.72,178l.18,4.33-7.65,1.19-4.38-15.95,1.18-1.72Z" fill="none" stroke="#000" stroke-linecap="round" stroke-linejoin="round" stroke-width="2"/><path d="M55.63,237.67s-3.44,6.7-14.35-15.71c-10.9-22.58-13.46-21.35-27.38-60.21-13.49-37.67-16.13-56.29-7.47-52,0,0,2,2.78,11.62,14.28s19.85,39.06,30.76,71.24,8.89,40.3,8.89,40.3,10.19-7.58,32.06-9.54a305.82,305.82,0,0,1,41.2-.53c8.53,1.3,17.36,1.84,24.06-8.48s25.13-47.71-7.59-63.3-48-6.1-65.9,1.84l-4.09-3.79c17.13-9.72,32.18-15.06,39-50.74s-34.2-43-46.53-43.8C57.7,56.66,50.82,61.4,46.74,69c0,0-25,33.42-40.31,40.78" fill="none" stroke="#000" stroke-linecap="round" stroke-linejoin="round" stroke-width="2"/><path d="M114.48,113.86c4.15-2,4.74-.77,9.54.65s5.51,6.7,10.31,4.74c4.75-2.13,11.62-7.47,6.82,2-4.8,9.67-5.51,7.53-3.44,13.1,2,5.34.6,5.34,5.46,3.5,4.8-2.25,8.18-2.9,8.18,2.61s-.66,6.28-6.76,6.87-8.24-.59-8.24-.59" fill="none" stroke="#000" stroke-linecap="round" stroke-linejoin="round" stroke-width="2"/><path d="M118.57,127.84a5.81,5.81,0,1,0-5.81-5.75A5.79,5.79,0,0,0,118.57,127.84Z" fill="none" stroke="#000" stroke-linecap="round" stroke-linejoin="round" stroke-width="2"/><path d="M129.53,129.8a5.73,5.73,0,0,0,5.81-5.75,5.81,5.81,0,0,0-11.61,0A5.72,5.72,0,0,0,129.53,129.8Z" fill="none" stroke="#000" stroke-linecap="round" stroke-linejoin="round" stroke-width="2"/><path d="M126.1,142.19a5.76,5.76,0,0,0,5.8-5.75,5.78,5.78,0,1,0-11.55,0A5.72,5.72,0,0,0,126.1,142.19Z" fill="none" stroke="#000" stroke-linecap="round" stroke-linejoin="round" stroke-width="2"/><path d="M113.77,141.53a5.81,5.81,0,1,0-5.81-5.86A5.83,5.83,0,0,0,113.77,141.53Z" fill="none" stroke="#000" stroke-linecap="round" stroke-linejoin="round" stroke-width="2"/><path d="M142.51,138a5.68,5.68,0,0,0,5.75-5.75,5.78,5.78,0,1,0-5.75,5.75Z" fill="none" stroke="#000" stroke-linecap="round" stroke-linejoin="round" stroke-width="2"/><path d="M156.21,156.59a5.81,5.81,0,0,0,5.74-6,5.78,5.78,0,1,0-5.74,6Z" fill="none" stroke="#000" stroke-linecap="round" stroke-linejoin="round" stroke-width="2"/><path d="M166.46,166.13a5.72,5.72,0,0,0,5.75-5.75,5.78,5.78,0,1,0-5.75,5.75Z" fill="none" stroke="#000" stroke-linecap="round" stroke-linejoin="round" stroke-width="2"/><path d="M171.2,179.23a5.81,5.81,0,1,0,0-11.62,5.81,5.81,0,0,0,0,11.62Z" fill="none" stroke="#000" stroke-linecap="round" stroke-linejoin="round" stroke-width="2"/><path d="M172.62,194.28a5.81,5.81,0,1,0-5.81-5.75A5.84,5.84,0,0,0,172.62,194.28Z" fill="none" stroke="#000" stroke-linecap="round" stroke-linejoin="round" stroke-width="2"/><path d="M171.2,207.86a5.81,5.81,0,0,0,5.81-5.75,5.78,5.78,0,0,0-11.56,0A5.8,5.8,0,0,0,171.2,207.86Z" fill="none" stroke="#000" stroke-linecap="round" stroke-linejoin="round" stroke-width="2"/><path d="M165.1,220.84a5.67,5.67,0,0,0,5.69-5.75,5.75,5.75,0,1,0-5.69,5.75Z" fill="none" stroke="#000" stroke-linecap="round" stroke-linejoin="round" stroke-width="2"/><ellipse cx="122.66" cy="106.39" rx="5.81" ry="5.75" fill="none" stroke="#000" stroke-linecap="round" stroke-linejoin="round" stroke-width="2"/><path d="M124.67,99.75a5.8,5.8,0,0,0,5.81-5.69,5.73,5.73,0,0,0-5.81-5.75,5.72,5.72,0,1,0,0,11.44Z" fill="none" stroke="#000" stroke-linecap="round" stroke-linejoin="round" stroke-width="2"/><path d="M123.37,88.19a5.72,5.72,0,1,0-5.75-5.75A5.76,5.76,0,0,0,123.37,88.19Z" fill="none" stroke="#000" stroke-linecap="round" stroke-linejoin="round" stroke-width="2"/><path d="M115.45,75.19a5.75,5.75,0,1,0,0-11.5,5.75,5.75,0,1,0,0,11.5Z" fill="none" stroke="#000" stroke-linecap="round" stroke-linejoin="round" stroke-width="2"/><path d="M105.79,66.79a5.75,5.75,0,1,0,0-11.5,5.75,5.75,0,1,0,0,11.5Z" fill="none" stroke="#000" stroke-linecap="round" stroke-linejoin="round" stroke-width="2"/><path d="M92.28,60.22a5.75,5.75,0,1,0,0-11.5,5.75,5.75,0,0,0,0,11.5Z" fill="none" stroke="#000" stroke-linecap="round" stroke-linejoin="round" stroke-width="2"/></svg>