<svg xmlns="http://www.w3.org/2000/svg" width="256" height="300" viewBox="0 0 256 300"><path d="M230.53 80.39l.11-.1.76.1h-.87" fill="#fff"/><path d="M226.1 82.53v-.38c.11-.59-.27-.53-.59-.59.49.11.21.7.59.97zM87.77 40.39c.44-.38 1.62.11 1.35-1-3.35 1.09-6.37 3.24-9.4 4.86a8.52 8.52 0 00-2.43 2.39l.54-.22c2.65-2.79 6.7-3.87 9.94-6.03z"/><path d="M127.46 23.11C54.34 22.75.75 78.79.75 149.28s51.79 128.23 127.62 127.61c65.74-.54 126.26-60 125.9-127-.41-75.99-65.92-126.48-126.81-126.78zm98.81 188.94v.32c1.08 3.13 2.44 7.84-.64 10.32-.38-.43-.32-.86-.81-1.29-1.63-2.13-2.35-4.75-1.28-7l-.21-2c.18-.35.1-.53.27-.87-.11-.7.57-.66.14-1.26-.27-2.26-2.6-3.13-3.57-5.24a6.9 6.9 0 01-.32-6.32c.86-2.06 2.53-3.68 3.62-5.57 1 1.84 2.21 3.62 3.18 5.46v.4h-.05a16.39 16.39 0 01.87 2.76c-.44 3.07-2.27 5.83-2.55 8.74h.28l1.08-3.4c.64-1.89 1.67-3.61 1.57-5.84a11.19 11.19 0 012.43-10.15c2.05-1.46 3.4-2.92 5.45-4.54.6 2 .38 5.35 1 7.46a7.16 7.16 0 01-2.15 6.16c-1.19 1.89-2.87 3.07-3.9 5 .11.21.27.11.38.11a11.83 11.83 0 017.61-3.67 1.19 1.19 0 01.78-.06l.79.79c-.86 3.14-3.4 4.67-5.45 6.73-2.41 2.37-5.71 1.99-8.52 2.96zm4.38-.38c-.32 1.08-1.51 2-1.73 3.24l-.86 1.62a35.93 35.93 0 00-1.3-4.05s3.24-.64 3.89-.81zm-6.94 10.75c-.08.09-.14.16-.24.16-.33-.81-1.25-.05-1.73-.31 0-.5.75-.28.75-.87-.91-.22-1.51 2.33-2.21.59a25.9 25.9 0 011.68-3.22l1.14-.56a9.6 9.6 0 001.24 3.46l-.63.75zm-1.33 2a.94.94 0 01-1.24-.38 1.78 1.78 0 01.6-1.68v.39c.43-.05 1-.26 1.46.22a1.62 1.62 0 01-.82 1.45zm1.3 1.35c.11.6-.32 1-.59 1.36a1.43 1.43 0 01-.81.21c-.54-.71-.22-1.35.1-2.05.44.16.98.1 1.3.48zm-18.31 14.49a11.68 11.68 0 011.35-2.6c.32-1.57.21-2.76.48-4.22a5.55 5.55 0 001.57-3.45h.11c-.11-.53.16-.92.11-1.46a3.94 3.94 0 00.27-.92 2.23 2.23 0 00.59-2c-1.46-1.41 1-2.38.59-3.73-.54-1 .06-1.95-.1-3.08v-.61c1.76-3.15 1.73-6.7 3.39-9.92.49-2.6 2.43-4.6 3.51-7-.21-1.18.7-2.37 1.08-3.5 2.81-4.43 5.13-9 8.32-13.13.11.11.27.21.22.38a2.35 2.35 0 001.35.59 3.81 3.81 0 002.16-1 4 4 0 00-.11-3.41c.86-.75.43-2.05.38-3-.38-.06-.06-.22-.16-.49 1.84-.91 2.7-3.18 4.27-4.59.48 2.59-1.36 4.86-1.79 7.4-.05.65-.7 1.67-.16 1.94.05-.91.86 0 1.13-.85 2.38-3 5.79-4.55 8-7.68 1.13.76 1.29 2 2.43 2.7-3.24 2.43-5.18 6.22-8.53 8-.38.38-.38 1.14-.92 1.14-1.89 1.56-4.11 2.85-6 4.59-1.89.75-2.65 2.86-4.27 3.77l-1.19-1.61c-.16-.45.11-.66-.21-.92a4.58 4.58 0 00-.06 1.46c-2.1 3.13-5.34 6.26-4.21 10.43-1.4 1.77-1.19 4.26-2 6.31.43 1.73-1.08 3-2.11 4.27-.7 1.45-1 2.86-1.68 4.22.06.7-.48 1.73-.26 2.32-.38 1.3.26 3.29.26 4.75.22.28.22.81.6.87l.11-1.13c.11 0 .22-.06.27.05 1 1-.87 1.4-1.35 2.43-.17.48-.6 1.19-.27 1.45l.38-.37-.11-.11.21-.17c.27-1 1.46-1.78 2.33-2.64 1.19-.21.86-1.89 2.05-2.32a10.34 10.34 0 011.35-3.4l-.22-.11a9.32 9.32 0 011-1.73 23.07 23.07 0 003.67-5.36v1.56c-.09.15-.1.35-.21.48-.54.81-.19 1.75-.19 2.62l-.94.86c-1.46 2.48-2.92 4.75-4.16 7.3-1 .21-1.08 1.72-1.95 1.78v-.71h-.21c.05.17-.11.22-.16.33 0 1.3-1 2.54-1.78 3.57l.11.1c-.6.65-1 1.74-1.74 1.95v-.11h-.32a7.45 7.45 0 01-.65 3.72c-.54 2.93-2.91 4.39-4.86 6.38-.17-.27.27-.53.37-.87.42-.78-.77-.99-1.14-1.52zm-16.65 12.59a.93.93 0 01-.54.76c.27.15.27.48.27.75a2.29 2.29 0 00-1.1-.92l-1.59.09-.22.29c0-.58-.65-.92-1.08-1.18-.81.43-.81-.43-1.57-.12a4.2 4.2 0 00-1.24 2l-.29.26c-.2.12-.42.36-.58.43.21-.32.49-1 .27-1.35a3.12 3.12 0 00-1.24-1.07c-.43.37-1.36-.77-1.68.15.05-.35-.31-.68-.65-.86l-.41-.25.33-.13c3.71 0 7.33.46 11-.38.6.11 1.14 1 1.73.38 1.68-.7 3.3-.22 5.08-1.18h.22c-1.68 1-3.57 2.27-5.35 3.23a9.11 9.11 0 00-1.36-.9zm.92 2c-.16.11-.22.27-.43.22a1.74 1.74 0 01-.06-1.36.82.82 0 01.49 1.14zm-5.08 2a1.63 1.63 0 01.76.49c.05.7-.76 1-1.14 1.29-.43-.38-.1-.91.11-1.29.22.05.33-.22.27-.44zm-.48-.49c-.49.38-.54 1.08-.7 1.68l-.17-.22c-1.83.81-3.3 2.27-5.24 2.65a55.16 55.16 0 01-7.78 3.29c-.7 0-1.08-.75-1.78-.75 4.43.22 8.91-2.16 12-5.94.32.22.92.91 1.51.65a1.54 1.54 0 001.19-1c0-.81 1.25-.32 1.68-1 0 .6.64.55.86 1-.55-.09-1.09-.63-1.57-.31zm-23.62 11.3a15.06 15.06 0 00-3.16-1.79l-.24-.54a.52.52 0 00-.22-.48c-2.48 1.4-2.43 5.51-5.83 5.62l-5.35.7c-.34-1.76 3.28-6.13 3.51-6.35l.64-1.27c.22-.06.38-.28.49 0 .21-.22.6.21.48-.28-1.72-.81-3.88.12-5.35-1.56-.43-1-1.34-1.35-2.1-2 2-1.14 4.16-2 6.21-3 1.08.81 2.6.65 3.51 1.94.76.71.6 2.06.49 2.92-1.67-1.56-4.16-1.3-6.32-1.56v.37c2.27.44 4.48.16 6.32 1.73 0 .11 0 .28-.1.32.16.11.05.49.37.39.16-.06.11-.28.11-.39l1.67-.1a25.11 25.11 0 00-.21-5.73 16.75 16.75 0 016.82-7.09l1.29-.35a23.12 23.12 0 00.16 2.85c.59 4.86-3.63 8.38-7.19 10.42-.32.6.59.54.75.86 2.65-.8 5.3-1.34 7.9-.58a15.06 15.06 0 015.13 1.83c.32.7-.38 1.41-1 1.79a4.7 4.7 0 01-2.48.75c-1.84.16-3.35 1.35-5.3.86 0-.1.17-.15.22-.26-.47-.35-.74.03-1.22.03zm-.92.21a17.83 17.83 0 00-5.4 1.51 19 19 0 012.45-3.63l.25.55a.65.65 0 00.76.16c.66.54 1.3.98 1.94 1.46zM145 271.81c-.53.75-1.62.06-2.21.49l-1.35-.11.27-.59c.81.21.92-1 1.78-.71.76-.54 1.89-1.14 1.84-2.11a1.33 1.33 0 00-.86-1.34l-1.3.05A20.1 20.1 0 01146 266c.33.43.16-.43.49 0a6.21 6.21 0 011.84-.57 2.81 2.81 0 00-1.14 1.33c-1.51 1.29-1.89 3.13-2.43 4.64zm-4.75-1.57c-.32.87.11 1.2-1 1.57-.27-.16-.65.27-1 0-.06-.37.21-.49.38-.7a1.07 1.07 0 011.08.11l.21-.22a1.12 1.12 0 00-1.19-.59c-.05.16-.16.11-.27.11a1 1 0 01.76-1.35 3.12 3.12 0 012.26 1.56c.22-.21 0-.7-.1-1-.38-.26-.59-.9-1.18-.8.26-.6 1.07-.86 1.67-1.13 0 .32-.65.43-.49.86-.27.27-.43-.27-.81-.11-.06.6.81.86 1.19 1.18s.21.76.11 1.09c-.54.26-.66 1.12-1.46 1.13-.27.54-.86.44-1.35.59.17-.33.85-.28 1.35-.59a1 1 0 00.37-.37 1.27 1.27 0 00-.58-1.34zm-4.54 1.36c.16.38.27 0 .54.21-.16.17.05.27.11.49l-1-.22c.25-.08-.13-.59.3-.48zm-.32-.87c-.33-.32-.22-.92-.11-1.3a.69.69 0 01.81-.24l.81-.41c.13-.08.19 0 .43.12.33.32.22 1 .11 1.45-.21.27-.49.82-1 .76a.84.84 0 01-1.1-.38zm1.29 1c.49-.1.6-.65 1.14-.81-.33.22-.22.86-.11 1.19l.48.38a.38.38 0 00.11-.11l-.1.11c-.34.28-.91-.11-1.35-.11-.11-.25-.33-.38-.22-.68zm1.14-1.18l.18-.55.11.59zm.11-.66a1.61 1.61 0 00-.7-1.67c-.28-.05-.6.06-.55.38l-.48.16a1.9 1.9 0 00-.7-.05 1.34 1.34 0 00-.7 1.18v.28h-.38c0-.11 0-.22-.11-.28.11-.21.43-.26.32-.48-.86-.43-1.83-.38-2.64-.81a4 4 0 00-3.53-1l-2.84.75a5.16 5.16 0 00-1.9-1.38c.81-.39 1.84-.39 2.32-1.31a6.31 6.31 0 004.38-2.1l.33.26c2.59-2.1 4.37-4.42 7.66-5.34 2.54-1.52 4.7-3.24 7.4-4.48 0-.11 0-.11-.1-.17.21-.49.86-.32.86-.92l.11.11.49-.49c1 .12 1.4-.8 2.54-.74 2-1 4.05-.93 6.1-1.58.49-.22 1-.37 1.45-.59 1.3 0 2.28-1.13 3.52-1.13.65-.44 1.45-.44 2.05-.92.11.16.27.16.38.32.86-.22 1.78-.49 2.54.16 2.65-1 5.35-1.25 8.05-2.21.32.38.05.7.6.87-.11 0 .27.09.27.09.59.49.64-.37 1.4-.26l.65-.59a2.11 2.11 0 00.32 1.45h-.32s-1.35-.21-1.14.65c.54 1 1.79.92 2.6 1.08.59-.38 1.4-.05 2-.27 2.38-.37 5.3.32 7.51-.21.47.67-.14 1.49.48 2.08h.18l-.11.11-.07-.08a49 49 0 01-10.9.46l-1.09.21a1.5 1.5 0 00-1.34.86v.17c-.76-.06-1.23-.66-1.82-1.26-.11.06-.47-.33-1.08-.2-3-.47-4.45 0-6.93-.05.05.48-.44.37-.65.64-.49-1.07.05-2.21-.6-3.19l-2.17 1.22a7.39 7.39 0 01-1.22.62c-1.84.81-2.82 2.7-4.49 3.67-2.21 0-4.27 1.46-6.32 2.38-5 1.41-8.92 5.57-13.73 7.29a2.23 2.23 0 00-1.62.65c-.92.5.11 1.89-.92 1.79a3.18 3.18 0 001.57.86c.7.27 1.57-.16 2.27.38l-.22-.21c0-.39.49 0 .71-.28 4.3.38 7.37-3.69 11.62-3l.07-.18v.18h-.05l-.4 1c-.6.53-.68.19-1.44.34-2.49.26-4.17 2-6.6 2.48-.94 1.09-2.62.82-2.94 2.27zM93.73 267a6.88 6.88 0 00-1.3-3.47 10.29 10.29 0 014.29.09c.26-.06.47-.05.57.07l-.57-.07a2.55 2.55 0 00-1.26.78c-.38.54-1.19 1.14-.76 1.73a2.4 2.4 0 00-.22 1.78 2.1 2.1 0 001.3 1.13c.49-.27 1.14-.37 1.46-.86a2.11 2.11 0 002.49 1.73c.48-.11.7-.49 1-.75l.32.48.11-.11a1.3 1.3 0 001.51 0c1.46-.32.65-2.32 2.27-2.43 1.78-.49 3.62-1.4 5.46-1.13 1.13-.54 2.54.6 3.56-.22.17.22-.16.65-.16 1a4.11 4.11 0 00-2.38.71 1.74 1.74 0 00-1.51.37l-.11-.1c-.37.75-.81-.27-1.3.48-1.12.1-1.23 1.19-1.83 1.95 0 .37-.16.7-.11 1.18.21.32.6.32.81.65-1.62-.43-4-.27-6-.86-2.7-.33-5.07-1.63-7.45-2.33l-.43-.38c.62-.28.08-.88.24-1.42zm-10.22-5.36c-1.08.22-1.73 1.52-2.81 1.46-3.29.7-7.08-1.08-9.08-3.89l-.1-.06c1.67.28 3.35-.53 4.8-.7 2.87-.64 5.84.87 8.44 2.16.26-.06.59.11.7-.21-.27-.6-1.3-.75-1.95-1.19-2.92-1.89-7-1.73-10.1-.49-.81-.53-2.54.81-3.35-.53-1.73-.6-3.73-1.41-4.54-3.14-.59.06-.43-1-1.19-.76a4.62 4.62 0 01-1.13-3.82 3 3 0 00.5-.06l.82.24c1 .36 2.26-.2 3.33-.24.16-.66.86-.44 1.24-.6 2.7 1.56 5.68 2.59 7.89 5 .64-.06.86.37 1.45.11-.05-2.12-2.59-2.76-2.32-5.14-1.46-1 .81-2.06-.27-3.3 0-1.19.11-2.26 1-2.86 2.33 2.43 6.06 2.6 7.52 5.84a.54.54 0 00.21.7 48.94 48.94 0 01.87 6.1c.16.16.16.33.27.49a2.7 2.7 0 00.59 1.3c.22.37.43.16.7.11-.21-1.9 1.68-3.36 2.59-4.49.65-.33 1.46-.44 1.84-1.08 1 .06 1.84.7 2.92.6.64 1.34 3 1 2.37 2.8-1.51.38-1.46 2-2.64 2.65-1.68-.59-2.7 2.05-4.11.48-.8-.21-2 .71-2.91.38-.11.06-.54.27-.27.49 2.16 1.78 5.89 2.81 6.21 6.21-.32.71.81 2.1-.59 1.95a14 14 0 01-6.79-2.15l.32-.33c-1.18-.94-.75-3.1-2.43-4.02zm1.09 3.41c-.76-.75-2.06-.75-2.76-1.62.6-.27 1-.93 1.67-1.08l.76 1.18c0 .34.49 1.25.33 1.53zm-22.32-14.47c-.16-.27-.38.11-.54.11a2.42 2.42 0 01.38 1.46c-.27.21-.65.43-1 .21s-1.09-.43-1.09-1v-.8l.6-.1v-.06c.49.7 1.62-1.4 2.05.16.11.92.06 2.38.76 3.3-.65 0-1-.64-1.57-.86.49 0 .81-.71.81-1.08a1.9 1.9 0 00-.4-1.34zm-18-10.11c-.54-.7-1.72-1.41-1.83-2.44.32.11.21-.26.48-.37-.64-.33-.48-1.08-.37-1.57H43c-.38-1 .32-1.83-.22-2.81-1.56-1.68-3.62.38-5.35-.48a6.39 6.39 0 00-3.77-2.16c-.11-2.22-3.25-1.84-2.92-4.27.22-.32 0-.37.32-1a4.1 4.1 0 013.46-.76c1.13.43 2.11 2 3.35 1.24 1.24-.43 3.19-.54 4.15.6.44 1.13 1.25 2.48 2.66 2.59a5.18 5.18 0 011.61 2.65c-1.45-.27-2.86-1.73-4.48-2.17a17.67 17.67 0 00-6.21-2.47l-.1-.5c-.27.11-.66.55-.39.87 3.36.86 6.33 2.59 9.46 4.06a5.37 5.37 0 002.43 1.21c.65-.7-.54-1.46-.49-2.33.16.55.71 1.31 1.14 1.36.59-.7-.6-1-.76-1.68a11.2 11.2 0 01-1.18-2.59c.21 0 .32-.22.48-.32-.86-.07-.7-1.08-.86-1.74 0-2.07 1.48-4 2-6.16l.43-.55c1 2 2.3 3.85 3.28 5.85a.67.67 0 00.27.76l-.11.1c.44.6 1 1.24.82 2.06-.49 1.51-1.68 2.7-2.06 4.27.33.48.65-.05 1-.22 1.13-1 2.48-1.95 4.27-1.51 1.51.54 3 .43 4 1.95 1.07.48 2.48.48 3.18 1.72a5.41 5.41 0 001 1.73c-2.38.75-5.68 2.38-8 .48a5.66 5.66 0 00-4-2.32c-1.36-.8-2.76.17-3.89.71-.11.11-.11.27-.33.37.81 0 .11.81.6 1.09.8 1.61 2.32 3 2.8 4.75l-.16 3.89c-.54.15-1.35.49-1.94.11-1.08-.86-1.9-2.54-3.62-1.79-.48-.86.22-1.45-.59-2.21zm-2.43-3.68a30.62 30.62 0 00-3.4-3.13 4.66 4.66 0 012.06-.22c.59.6 1.45 1 1.67 1.8.11.58-.54 1.01-.33 1.55zm-.75-3.61a1.12 1.12 0 011.24.48v.49c-.54-.15-.76-.75-1.24-.97zm-14-17l-.21.22-.16-.22c0-.75.43-1.89 0-2.7.81-.54-.38-.92-.11-1.56.05-3.79-1.73-6.92-3.73-10.1a5.31 5.31 0 00-1.62-.93c.54-.7 1.46 0 2.1.22 1.68 2.92 3.9 5.78 4.33 9.35.37.87.65 2.48 1.94 2.7 1.9-1.62 1.14-3.84 1.52-5.94a10.68 10.68 0 002.18.59l.09 1c.06 2.35.92 5.15-.71 7.09.11.86-1.13 1.45-.64 2.59-.49.43-.28 1-.49 1.68-.43.43-1 1.13-.59 1.83.32.53 1.29.81 1.08 1.56.05.23.48.49.16.76-.92-.32-1.46.65-2.06 1.19a5.43 5.43 0 01-2.81-5.19c-.75-1.32.33-2.82-.27-4.17zm-2.8 1.46a2 2 0 001-1.94 2.88 2.88 0 011.19 2.16c-.21.34-.21 1.15-.87 1.25a1.05 1.05 0 01-1.29-.59c.13-.36-.14-.52-.03-.91zm-3.63-5.08l-.37.43c-.54-2.81-5.46-3.4-3.51-6.81-.76-2.15 1.4-4 .75-5.94-1.46-.54-2.59-1.78-4.38-1.57-1.94-.92-2.05-3.29-2.81-5.08-.43-2.16-1-4.26-1.34-6.49a55.36 55.36 0 005.34 5.85c.65.17 1.35 0 1.84.38.32 1.68 1.67 2.37 2.92 3.13.48 0 1.08 0 1.29-.43a7.6 7.6 0 00-.91-5 35.38 35.38 0 00.48-4.75c.65-.92 2.06-.6 2.43-1.79.54-1.18.6-2.54 2.06-3.08.11 1.74 2.05 3 1.78 4.92-.49 2.66 1.24 4.81-.81 6.92-.92 1.08-2.27 2.22-2.43 3.73.32.38.48 1.14 1.19 1 1.29-1.15 3 .32 4.27-.87 1.62-.54 1.34 1.62 2.81 1.47 1.67.15 3 2 3.51 3.39a8.09 8.09 0 002.22 5.54 5.68 5.68 0 01.32 1.08c-1.88-.65-3.56-1.62-5.67-1.68-2.75-1.3-4.43-4.1-6.7-6.1-.86-.81-1.89-.22-2.81-.92a2.23 2.23 0 00-1.68 1.11 4.62 4.62 0 00-.16 2.43h.27l-.11.11c.48.21-.06.32.43.6l.05-.11c.22 1.07 1.25 1.83 1.3 3a2.76 2.76 0 01-.7.75 10.58 10.58 0 01-.87 4.75zm-4.59-6.48c-1.46-2.05-1.35-4.71-2.7-6.81 1.35-.22 2.27 1.14 3.62 1.24.43 2.03-1.62 3.38-.92 5.54zm-9.78-44a10.53 10.53 0 00-1.78 2.32A43.54 43.54 0 013.38 152c.17 2.43 1.19 5.08 3.57 6.32H7a4.84 4.84 0 00-.7 3.75zm-1.45 6.69c.76-1.24-.32-2.59.16-3.94.27-1.73 3-2.32 1.78-4.37a3.18 3.18 0 011-2.17c-3.68-2.32-3.9-6.38-4.33-10.42-.1-1.13.6-2.22.6-3.46.32.1.21-.28.37-.43 2.38 1.45 5.68 3.45 5.57 6.64.22 1.08 1.4 1.84 1.19 3 .59.27-.06 1.24.54 1.45 0-.26.49-.37.33-.7 1 .65 1.24 1.9 1.56 2.81.16.11.27-.11.38-.16.32-2.87-.87-5.94 1.24-8 1.94-2.55 3.94-5 6.81-6.44a21.43 21.43 0 01.1 7.4 2.51 2.51 0 01-1.35 1.45c-.38 1 .32 2-.59 2.7a27.93 27.93 0 01-5.13 2.44c.27.75-1.68 1.62-.44 2 1.57 0 3.51-1 4.81.48a7.79 7.79 0 012.43 5.25c-.05 1.83 1.24 3.72.49 5.56h-2.88c-.43-1.46-.82-3.52-2.7-3.78-1.46-1.51-.71-3.95-1.95-5.57-.81.11-1.35-.8-2.16-.48-.27.33-.7.16-1 .48-.11-.1-.11-.37-.38-.26-.49.54.11 1.07.22 1.61.49 1.41-.6 2.44-.33 3.73-.86 1.09-.05 3.14-1.84 3.58a1.51 1.51 0 00-1.72.81v.15c-.44.33-.33 1.3-.87 1.79.49-4.21 2-8.17 2.81-12.16a.87.87 0 00-.7.65c-.92 3.88-2.43 7.67-2.81 11.67l.27.22c.16-.11-.16.53-.49.58 0 .06 0 .12-.16.12-.37-.65 0-1.19-.7-1.68a3.46 3.46 0 01-.13-2.56zm5.72-58c.43.16.27.65.38 1l-1.95.58 1.08-3.29c.38.11.49.59.6 1-.22.13-.11.45-.11.67zm1 1.58c.16-.22.59-.34.59-.71-1.51-.54-.32-2.38-1.67-3.19-.16-.86.11-1.62-.38-2.43 1-1-.11-2.59 1-3.62-.32-1.68 1.35-2.27 1.46-3.79l1.08-1.29c.75 2-.86 4 .65 5.94 1.35 2.6.54 5.46.21 8.27a.56.56 0 00.49.22c.38-.33.11-.54.16-1 1.19-3 .43-6.71-.86-9.47a8.61 8.61 0 01.21-2.1c.44-.43.33-1.24.49-1.89.86-3.08 3-5.67 4.16-8.64 2.32 2.21.86 6.21 3.51 8.37 1.35 1.95-.38 3.83-.76 5.62-1.4 2.16-3.13 4.05-4.8 6.16.1 1.35-1.68 1.51-1.52 2.69.65 0 1-1 1.73-.75 1.51-.91 2.27-2.37 3.3-3.73 1.62-2.15 4.16-3.94 6.91-3.88l1.57-.49a7.27 7.27 0 00-.48 3c-1 .75-.87 1.62-1.3 2.64-2.17 2.58-5.3 5.41-8.75 4.38a3.23 3.23 0 00-1.35.26.33.33 0 00.38.49c1.94 1.41 4.26 3.51 3.89 6.32.42 1.57 1.45 3.19.42 4.76a4.18 4.18 0 01-1.07 2.91.7.7 0 01-.71-.27.27.27 0 01.11-.21c-.59-.22-1.67-.22-1.94-1 .21-1-.81-.53-1.24-1.19-.49-1.18-.6-2.27-1.79-3.19-.38-2.1 1.89-3.56 1.08-5.66-.32-.76-.05-2.06-1-2.33-1.46 1.94-4.59 2.33-4.65 5.14-.7.75-1.83.48-2.27 1.56-.32.71.44 2.27-1 1.68-.7.16-1.13.92-1.45 1.56.53-2.1-.43-4-.65-6.26 1-.6 1.94-1.24 1.94-2.6 1.52-.76 2.44-2.28 4.28-2.32zm20.05-39.88l.16 2.1a1 1 0 01-.41.33c-.7.54-1.08 1.51-2.05 1.56-1 .7-2 .33-3.08.7-.49.12-.7.6-1.19.6 1.14-1.3 2.05-2.64 3.14-3.89v.05c1.24-1.5 2.1-1.46 3.24-3 .17.45-.01 1.08.19 1.55zm36-26.31c.6.27 1.19 1.08 1.78.76-2.91-.66-.48-3-1-4.75.11-.44.7-.49.76-.87-.06-1 .37-1.08 1.3-1 0-1.72 1.89-.9 2.32-2.36.65.1 1.13-.5 1.62-.54-.27.37.11.75.11 1.12.27.17.54-.15.81-.11s0 .43 0 .6c-.54 1 .48 1.29 1 1.94.24.62-.17 1.09-.46 1.58l-.56.87-.09.32-.47.74a10.49 10.49 0 002.83-1.66c.22-1.89 2.44-1.3 3.19-2.81 1.08-.32 2.22-1.08 3.35-.76 1.78-1 3.73-.32 5.51.17a5 5 0 012.54.43l-.38.65c-.81 2.49-3.84 1.89-4.7 4.38-1.4.37-2.32 2.36-4.16 2-1.45 1-3.45 1-5.08 1.34 0 .11.06.27 0 .32-1.19.71-3.3.17-4.59.65-.87.44-2.22 1-2.22 2a8 8 0 015.83-1.84c2.27.32 4.44.15 6.49 1.18a12 12 0 01-7.46 4.54l-.21-.17c-2.76.49-2.65-2.65-4.76-3.23-.54.32-.21 1-.32 1.45 1.19 2.38-1.25 3.79-2.59 5.35-2.22 1.23-5.7 1.37-8.15 1.8 0 0 .1-.52.25-.61 1.57-1 .87-3 2.17-4.21.59-.93 1.46-2.22 2.48-2.49v-.33c1.13-.86 2.81-1 3.57-2.21-.71-.59-1.73-.16-2.71 0a19.5 19.5 0 01-12 .87c2.21-1.25 3-4.7 5.94-4.76 1.08-1.72 3.62-.22 4.86-1.67 1.21-.24 2.13.88 3.21 1.32zm-3.19-1.9a26.66 26.66 0 003.41-1.82 9.78 9.78 0 01-.38 2.91c-.38.16-.7-.53-1.08-.27-.53-.26-1.02-1.08-1.94-.82zm33.16-10.73l-.61.54c0-.35 0-.82-.32-1a1.87 1.87 0 00-2.65-.1c-.32.59-1 1.13-.59 1.94.21.48.86.33 1.18.76-1.51 1-1 3-2.32 4a2.63 2.63 0 00-1.78-.38c-.6-.11-1.57-.6-2.22-.39-1.24-.75-2.59-.21-3.77-.1a7.67 7.67 0 00-2.44.38 5.76 5.76 0 00-2.54 1.57c-1.55.09-2.11 1.54-2.94 2.64l-1.1.38 1.06-1.45a2.3 2.3 0 00.28-1.09c0-.53-.7-.87-.81-1.08-.68-.25-.22-.85-.1-1.32l.92-.47a65.15 65.15 0 017.34-3.07A14.88 14.88 0 0087 34.17c2-.48 3.92-1.18 5.81-1.79 1.32-.49 3.65-1.56 4.94-1.4-.55.73 0 1.76-.16 2.55zm-1.27.85l-.64.65c-.39-.11-1 .54-1.36 0-.16-.33-.81-.59-.43-1 .22-.59.76-.75 1.19-1.07.38-.06.54.32.87.15.27.35.7.78.37 1.27zM89.84 43c-1.57 2.43-4.27 4.53-6.15 7a3.32 3.32 0 00-1.94-.43c-.93-.75-2.82-.43-3.79-.64 1.62-.82 3.73-.39 5.24-1.46 1.79-.11 2.87-1.68 4.38-2.32A6.57 6.57 0 0189.83 43zm-18.7 9.25c1 .48 1.14 1.63 1.84 2.32l2 .71c.06.1 0 .16-.1.16-.84.26-2 .21-2.9.57L71 56a3.34 3.34 0 00.3-1.39c-.05-.77-.43-1.69-.16-2.34zm-15.24 5.1a1.33 1.33 0 00-1.08-.7.28.28 0 00.11-.22c-.7-.7-1.24.49-1.94.49a8.7 8.7 0 01-1.9 2.37c.55-1.07-1-1.57.22-2.43-.27-.43 0-.81.49-.81.65.22 1-.32 1.56-.26v.11q2.47-.66 5-1.19c1.5-.38 3.07-.76 4.63-1.19a10.68 10.68 0 00-2.42 4.58c-1.73.5-3.08.28-5.08.71a1.24 1.24 0 00.41-1.46zm-2.75 1.51l.21.22a12.2 12.2 0 01-1.34.27c.27-.43.91-.22 1-1a2.55 2.55 0 011.51-1.15c.27-.43.7.17.92.39V58c-.38.6-1.3.43-1.4.86-.11-.26-.49-.16-.66-.38-.13.12-.3.22-.24.38zm1.78-6.69a2.74 2.74 0 01-2 .58c.65-.32 1.19-.97 2-.58zm.49.69c0-.65.7-.48 1-.69a21.1 21.1 0 007.61-.66c1-.91 2.11-.76 3.29-.91l-1.07 1a3.6 3.6 0 00-2.43 1.07c-2.38.77-4.86 1.25-7.3 1.85-2.21.21-4.27 2-6.48 1.07-.32 1.24-1.51.21-2.16 1.09a1.13 1.13 0 00-.6 1.45c.11.38.54.49.87.6-.16.76-.87 1-1.46 1.45-.43.17-1.14.54-1.51 0-.33-.26.1-.48.27-.69a.8.8 0 011.34.1c.23-.33-.16-.38-.37-.7.65-.43 0-1.19.21-1.73l-.83-.43c2.65-1.82 6.12-4.02 9.62-3.87zm-5.78 6.92c-.38-.22-.71.32-1-.11 0-.81.76-1.29 1.41-1.56.16 0 .43.32.48.59.13.65-.53.7-.89 1.08zm.7-2.38l-.22-.17c-.48 0-.7.71-1.13.87 0-.38-.38-.7-.71-.87H48a4.85 4.85 0 011.83-.8l.27.33c.11-.43.6-.54.6 0a.86.86 0 01-.36.64zm-2.16 1c-.22-.21-.49-.27-.38-.66a.36.36 0 01.48.28c0 .08.11.3-.1.36zm0 1.56c-.06.38-.49.05-.54.11.11-.18.48-.51.54-.13zm-2-1.84c.16.76-.7.6-1.08.87-.05-.11 0-.11.11-.16-.6-.49-1.19.54-1.68-.33 0-.48.32-.59.7-.86.65-.24 1.77-.5 1.95.46zm-1.3 2.44a1.37 1.37 0 01-.86.21l.37-.81zM43.75 60a.71.71 0 00-.22.76c-.59.32-1.24.54-1.84.91-.86.06-1.51.65-2.32.87a31.55 31.55 0 013.57-3zm12.43-.85c1.13 0 2.75-.38 3.88-.38l-.72 1.41.27.39h.31a1.2 1.2 0 01.63 0c2.49-.55 5.3-.38 7.51-1.68a17.43 17.43 0 002.41-2.11l1.81-.41a14.65 14.65 0 002.37-.37c1.19-.49 2.27-.49 3.4-1.13 2.11-.49 3.57-2 5.14-3.51 3.94-4.38 9-8.76 10.81-14.38.48-.33.7-1.14 1.34-1.19.22 0 .39.11.33.27a.37.37 0 00.59 0l-.21-.22c.48-.16.54-1.08 1.23-1.08a.81.81 0 01.6 1c-.22.86-1.13.91-1.84 1-.37.06-.27-.59-.7-.37 0 .32.38.54.6.7.48.16.86-.11 1.29 0 .32-.22.87-.43 1-.92a1.31 1.31 0 00-.44-1.51.8.8 0 01-.57 0l.78-.86c-.3-1 1.24-.33 1.54-1.19a1.37 1.37 0 011.09.49 1.75 1.75 0 01-.7 1.56c-.49.22-1.2.11-1.2-.48v.1c-.16.28-.21.71.16.87a1.74 1.74 0 001.79-.49c.21-.43.64-.91.37-1.45-.1-.49-.75-.87-1.07-1a2.34 2.34 0 00-.11-.87c-.38-.48-1-.32-1.46-.48a3.94 3.94 0 011.35-.33h.85c.08 1 1.08 1.86 1 2.9-.43 1 .64 1.67.54 2.7-.11.22-.27.22-.48.11a29.55 29.55 0 00-6.11 6.6c-.38.69-1.13 1-1.24 1.67h1c4.13-.51 6.68-4.6 10.83-5.51a21.16 21.16 0 003.89 1.3l-.86.65-.27-.28a10 10 0 00-5.57 1.36c-3.62 2.65-7 6.32-11.94 6.21-2.21 3.3-5.57 4.86-8.38 7.29.11 0 .11.06.17.12-.22.48-.81.26-1 .59-2.32 1.56-5.13 2.21-7.4 4a51.42 51.42 0 00-7 1.46 1.83 1.83 0 00-2.22-.22c-.27.49-1.08.55-.81 1.24-.32.54-1 .22-1.51.33.33-.33.65-1.08.38-1.45s-.71-.81-1.19-.87c-.49-.37-.49.38-.59.65l.43-.16a1.57 1.57 0 011.13 1A3.61 3.61 0 0162 63.46c-.27.17-.86.43-1.08-.11a1.46 1.46 0 01.38-1.24c.21 0 .43-.11.49.1.1-.26-.17-.32-.28-.48-.53-.1-.48.38-.75.65a2.62 2.62 0 00-1.56-1.08c-.16.16-.7.06-.48.49.64-.28 1.29.48 1.72.81 0 .69-.86 1.18-1.34 1.62a1 1 0 01-1.25-.22 1.3 1.3 0 01.38-1.24c.33-.54.76.11 1.08 0a.76.76 0 00-.91-.5 2.28 2.28 0 00-.87 1.25 1 1 0 00.59 1.24c-.27.22-.81-.21-1 .22a4.07 4.07 0 00-2.43-.39c-3.81-.12-8.33-.07-12 1.19l-2.73.9a21.23 21.23 0 01-1-3.54c5.33-2.54 11.65-2.81 17.22-3.94zm42.09-27.68a1.42 1.42 0 011.08.26c.11.87-.92.32-1.24.87.21-.43-.49-.98.16-1.13zm6.92 7.39c-3.41.81-5.84 4.33-9.62 4.93a34.34 34.34 0 016.53-7.3c.38 1.56 2 1.62 3.09 2.37zm22.58-11.29l1.08.12a3.57 3.57 0 00-.59 2.32 2.64 2.64 0 00-1.35-.33c.21-.68 1.09-1.29.86-2.11zM141 29.52c.65.16 1.46.59 2.11.27.75 1.35 1.3 2.81 1.94 4.21a14.25 14.25 0 01-3.08-2c-.49-.8-1-1.89-1.89-2.15-1.08-.7-1.73 1.46-2.91.7a4.26 4.26 0 00-2.33-1c-.81.16-1.57 1.46-2.32.27L132 30c.27-.38.11-.65.27-1.08-.22-.49-.16-.87-.76-1.19a53.39 53.39 0 019 1.78c.23.17.55.22.49.01zm7.44 13.23c1.3-1.46 3.09-1.29 4.71-1.29-1.19 1.61-2.54 3.61-1.57 5.67.43.86.43 1.94 1.24 2.7 1.3-.92 1.08 1.24 2.06 1.35l1.34-.6c.6.38.49 1 1 1.4 1.36-1.08 2 .65 3.25.76a1.69 1.69 0 00.65.71c.59.21.64-.54.86-.71.92-1.67-.7-2.65-.76-4.16 1.19-2.05-2.21-2.27-1.56-4.32 3.29 2.21 6.16 4.81 9.45 7.13 1.35 2.92 4 5.4 6 7.68-6.54-2.92-13.35-5.19-20-7.78-8.38-3-15.27-3.72-22.29-4.47l-5.34-.26c-.59-.87-1.28-.62-1.55-1.7v-.76c.65.7 1.29.21 2 .48.7.49 1.29 1.84 2.38 1.35 1.29-1.29 3.18 1.41 4.05-.86 1.46-.37 2.81.64 4.37.6a3 3 0 001.09 1.12c1.18.12 2.42-.43 3.66 0 2.52.72 3.52-2.58 4.97-4.04zm-.44-6.53a4.86 4.86 0 012.81 1.46 5.09 5.09 0 01-2.81-1.46zm17.09 8.1l-.6-.08a1.13 1.13 0 00-.55-.35 26.5 26.5 0 00-6.22-3.67 6.89 6.89 0 00-1.47-1.22c.59.26.54-.54 1-.6.7-.1 1.68-.47 2.27 0l-.32.37c2.28 1.32 4.11 3.51 5.87 5.55zm-.93.65c.43 0 .59.34 1 .23h.7c.59-.22-.05-.8-.11-1.19a71.36 71.36 0 00-5.24-5.35c.27-.59-.65-.22-.81-.69.54-.28 1.3-.44 1.46-1.14h.33c-.22.26.16.48.26.76.27.1.27-.16.38-.28-.27-.32-.64-.54-.48-1l.21-.11a20.6 20.6 0 001.57 2.17c-.81-.22-1.62-.92-2.38-.6-.05.49.49.65.81.75 2.76.33 4.54 3 6.92 4.27.05-.1.27-.22.27-.37l-.11-.11a1.71 1.71 0 00.81-1.52l.25.21v1.46a42.76 42.76 0 005.45 10.69c0 .6 1.09 1.68 1.09 1.68 2.81 3.19 6.1 6.38 10.26 7.08l2.76.8a13.78 13.78 0 012.1 3.57 25.6 25.6 0 01-6.1-1.45c-.7.54-1.14-.6-1.73-.76-2-2-4.7-2.6-7-4.21l-3.89-4.27c.05-.11-.11-.27-.22-.17-1.78-1.72-2.43-3.72-3.94-5.45l-.43.16a63.56 63.56 0 00-8.92-6.37c-1.13-1.57-4.48-1.41-3.62-4h.33c2.65 1.71 5.51 3.06 8 5.24zm-.76-11.29a1.49 1.49 0 01.86.86c0 .49.11 1-.32 1.3-.27.38-.49.32-.86.16-.55-.27-.27-.7-.11-1s.57-.89.41-1.32zm2.32 3.4c-.37.5-.53 1.25-1.29.82a1.72 1.72 0 01-.49-1.19l.43-.38c0 .11 0 .16-.11.16a3.29 3.29 0 011.44.59zm5.62 1.84a.88.88 0 01-.59 1.3c-.59.21-1-.11-1.52-.33s0-1.07-.32-1.35c.58-1.13 1.98-.37 2.41.38zm-1.56-1.62v-.22l.62.22a1.18 1.18 0 00-.64 0zm24.05 15.35c-.06.38-.7.7-.22 1.08h.22c.91-1 1.57-2.59 3-2.81 2.54.06 4.16 2 5.83 3.79-1.89 2-4.37-.06-6.53.21.86.87 2.16.7 3.13 1a14.75 14.75 0 004.38 3.08c-.11.06-1.25.22-1.08 1l-.09.33c-.14-1 .09-2-1.37-1.89-.49.1-1 .22-1.19.7-1.41-1-3.14-1.51-4.65-2.54l-.86-.11c-.22-.32.11-.66.27-1 .32-.44.81-.27.86-.87-.54-.69-.75.17-1.13.38h-.11a3.68 3.68 0 00-.48 2.7c1.18 1.51 2.75 2.48 3.78 4-.21 1.67-1.35 3.78.32 5l.27.81c-1.62-.43-3.73-.22-5.13-1.35-1.3.22-1.08-1.41-1.78-2-.65-1.24-2.11-2.32-1.25-3.89.92-1.07 1.09-3 2.82-3.24a.69.69 0 00.21-.38 7.3 7.3 0 00-2.05-.49c-1.68.06-2.11 3.51-4 2.17-.76-.6-1.46.16-2.06.38-1.45-.11-3 1.5-4-.28-1.56-1-2.59-2.53-3.88-3.83 2.1-.38 4.16-1.74 6.64-1.62 2.27-.12 3.57 3 6 1.84.92 0 1.35-.44 2.32-.38.38-.38-.22-.76-.49-.81l-.1.11c-3.63-2.22-7.51-5.41-7.3-10.12-.21-.43 0-.69-.21-1.18 2.37-.43 3.51 2.27 5.67 2.43 2.86 1.24 2.75 4.17 3.19 6.65a1.92 1.92 0 001.03 1.13zm-1-4.27l1 .06c.64.75 1.8 1.09 2.3 2.1-.65.05-.65.69-1.24 1-.38.32-.65 1.09-1.08 1a34.54 34.54 0 01-1-4.16zm27 22.37c.65.75.81 2.43 2.27 2.06.59.15.54.86.65 1.34a.82.82 0 001.08.59c.43.17.59.66.86 1-.54 1.84 1.79 2 1.68 3.67-.86 1-.54 3-2.16 3l.32.58c-.7 1.14-2.27 2.17-1.67 3.57a1.54 1.54 0 001.83-.27c.65.38.82-.32 1.41-.1a.6.6 0 00.23-.33l.75.16a16.6 16.6 0 012.31 1.35c.33.49.05 1.35.76 1.62-.38 1.18 1.29 1.4 1 2.65-.16.64-1 .38-1.46.59h-1.29c-.19-.07-.4.26-1.07.26-.17.87-1.47-1.12-2.28-.9-1.14-.54-1-1.94-1.3-3s-1.19-1-2.11-.87c-1.34 1.09.05 2.42.11 3.62-.86.81-.86 1.84-1.08 2.81-1.35.38-.65 2-1 2.91a4 4 0 00-1.3 3c-1.4-.92-1.51-2.86-3-3.73a2 2 0 01-.11-2c-1.78-1.3.87-2.76.16-4.44.82-1.5 2.87-1.41 4-1.78-.64 2.7-3.56 5-2.21 7.89l.16-.21c-.06-1.09-.27-2.23.32-3.09 1.09-1.51 1.41-3.4 2.6-4.76-.05-.1-.22-.15-.17-.32l-.7-.11a27.54 27.54 0 01-7.08 1.3c-.91-.43-1.34-1.36-1.94-2-.59-.86-1.35.48-1.95-.38-.38-.38.11-.6 0-1l-1.29-.1c-.27-2-1.51-2.87-3-3.78 1.51-1.51 3.62.91 5.14-.6 4.1-.65 7.39 2.22 10.31 5 .27.27-.16.59.38.59a.36.36 0 00.27-.49 30.15 30.15 0 00-4.65-4.1c-1.94-1.74-4.92-1.08-7.18-1.68-1.19.11-2.11-1-3.3-1.13-1.78-.49-.86-2.38-2.05-3.24-2-.71-.32-3.45-2.65-4 1-1.3 3.19.54 3.73-1.2.81.22 1.73.22 2.49.49 2.32-1.56 3.45 1.78 5.77.49a3.12 3.12 0 002.51 1.32c.93 1.47 1.68 3 2.49 4.5.11 1 .21 1.23.32 2.26a3.69 3.69 0 01.6 1.36c-2.76-3-6.32-4.49-9.68-6.22-.37-.16-1-.49-1.24-.21l-.27-.38c-.48 0-1.13-.5-1.4.16.87-.06 1.4.53 2.16.59 5 2.33 11.19 5.46 12.92 11.08h.43c-.16-.76-.92-1.84-.43-2.32-1-.82-1.14-2.22-2-3.19.37-.82-.11-1.74-.22-2.66 1.29-2-1-4.75.76-6.8l.43.22c.1-.39-.17-.39.05-.64zm10.53 17.89c-.43-.12-.43-.66-.37-1.09a4.66 4.66 0 00-3-1.89h-.67c-.16-.91-.86-1.71-1-2.59h.11a1.88 1.88 0 01.49-1.45c.32-.39.11-1 .59-1.3l.49.61c.42 1.32 1.66 2.37 2 3.72-.06 1.12.86 2 1.56 3-.13.23.2.78-.18.99zm-4.7-2.93l-2.32.5c-.16-1 .7-1.79 1.35-2.54a3.1 3.1 0 01.99 2.04zm6.34 4.48c-.33.06-.33-.1-.43-.26-.06-.43-.54-1.07-.38-1.67a2.34 2.34 0 011 .86c-.19.43.3.88-.19 1.07zm3.89 6.37c.16-.35-.07-.76-.19-1.14l.66 1.25c.38 1.82 1.66 3 2 4.86l-.38-.22c.11-1.51-1.68-1.39-2.33-2.64-.7-.75.44-1.35.38-2.11zm5.11 12.72l.6 1.45c.76 2.7-.32 4.38-2 6.21l-.27.87c-.82-.91.21-2 .54-3a9.26 9.26 0 001.13-5.53zm1.57 1.57a4 4 0 011.73 1.46c-.59 2.1 1.79 3.18 1.35 5-.22.54-.65.81-.49 1.35.22.11.44.32.6.22.27.22.22.53.22.86-1 .82.05 1.73-.71 2.64s-2.11 1.57-2.59 2.71a3 3 0 002.43-.11 3.55 3.55 0 013.68 1.18c-1 1.58 1.18 2.65.37 4.39-.43.69.71 1.94-.37 2.32-2.11-1.36-3.46-4.27-5.95-5l-1.84.21a2 2 0 00-1.56 1c-.11 1.67.32 2.85-.38 4.26-.49.49-1.19.54-1.67 1.09s.53 1.72-.65 1.72c-1.84-2-2.16-4.65-1.79-7.3a8.43 8.43 0 012.76-2.32c.32-.47-.32-.81-.7-1-1.3-.82-2.92 1.29-3.52-.66-.32-1-1.56.38-1.62-.91-.16-.49-.05-1.13-.49-1.52-2.48.6-.43-2.53-2.16-2.91l-.75-.22a2.87 2.87 0 00-.37-2.64l-.33-.27c1.18.16 2.64-1.25 3.73.1.91-.26 1.29.81 2 1.08 1.36.76 3.3.59 4 2.43.81 1.62 1 3.58 2.33 4.92.54.21.7-.37.91-.65.27-1.78-1.24-3.19-1.08-4.86-.59-2.64 2.54-3.57 3-5.83a9.75 9.75 0 00-.12-2.74zm6.11 30.91c.11.59-.6.42-.76.85-.54.33-1.08-.16-1.29-.64-.06-.49.48-.33.7-.49-.27-.11-.17-.54-.49-.43.05-.28-.16-.75.22-.86a1.1 1.1 0 011.35.69l-.22.17c.19.27.57.21.46.71zm.48-.71c1 .81 1 2.21.81 3.41-.16.43-.7.69-1 .32-.11-.71-1.19-1.78 0-2.27.38-.43.27-.86.16-1.46zm-.38 20.27c-1 2.1-1.78 4.25-3.78 5.72-1-.65-1.84-.33-3-.38-.76.27-1.89.7-2.05 1.62.48.48 1.08-.11 1.57.22 2.32.64 3.83 3.46 4.37 5.56.38.17.54-.27.6-.49-.88-2.57-2.49-5.57-5.49-5.77.81-.76 2.16-.6 3.19-.49 1.24.59 2.48 1.51 2.65 2.91-.11 2-.06 3.9 1.46 5.19.1.7-.55 1.24-1 1.57-.81-.16-1.89 0-2.21-.91-1.35-.11-1.68-1.95-2.76-2.5.11-.22.32-.48.11-.7-.65 0-.7.76-1.35.27-.49-.86.59-2.11-.22-3.07a1.64 1.64 0 00-1-.82 2.8 2.8 0 00-1.84.44c-1 1-1.62 2.05-2.43 3.08a.32.32 0 00-.21.1c-.49-.75.16-1.46.21-2.21.44-.49.87-1.41 1.57-.92.27.16.27-.15.38-.27a3 3 0 00-2.16-1.83c-1.41-.32-2.76.8-3.46 1.83a7.2 7.2 0 00-1.19 2.82c.11.1.22.26.38.21.92-1.57 1.14-3.63 3.24-4.27a3 3 0 012.44.64c-3.09 1.09-1.52 5-4.49 6.33-.87 1.19-2.32 2.75-3.89 3 .27-1.24 1.08-2.55 1.08-4.11-.16-2.71-.22-5.68 2.7-7.18a4.7 4.7 0 014-.28c.16.49.48.28.86.49.22.17.38.54.7.48.32-1.13-1.19-1.23-1.78-1.83-1.67-1-4.76-.65-5-3.35-.27-1.13-.27-2.16-.65-3.4-1.08-2.06.7-3.9 1-5.9l1.46 1.14a2.33 2.33 0 011.57 1.08c-.38 1.13 1.13 1.51 1.46 2.44 1.78 2.75 2 5.61 2.43 8.85 0 .17.27.06.48.11.06-3.84-.86-8.06-3.72-10.91a1.76 1.76 0 00-.87-1.68c-.59-.21-.49-1.09-.49-1.73.44-.43 1.09-.65 1.25-1.24-.06-.65-1-1.4 0-1.89.43-.43.05-1 0-1.46.75-.54 1.73-1.13 1.78-2.11.38.16.76-.48 1-.81s-.1-.86-.1-1.35c.21.11.48.11.7.39-.48 1 1 .92 1.46 1.56 1.08.86-.32 3.79 2 3 .65.92.27 2.21.65 3.19.69 1.73 1.34 3.35.48 5.18-1.35 2.65-4.48 4.64-3.78 7.79 1 .38.32 1.67 1.07 2.05.38-1.14 0-2.16.65-3.14 2.06-1 .49-4.43 3.25-4.58.21-.49.86-.22 1-.77-.06-.69.54-1.18 1.08-1.56.92.1 1.4-.86 2.21-1.08-.63 2 1.37 3.46.4 5.73zm-1 7.1l-.47 1.21a2.87 2.87 0 00-1.78-2.21l2.43-2.59a19.91 19.91 0 01-.25 3.59zm-4.38 10.78h.11c0-.22.28-.32.38-.49.44-.05 1.19-.37 1.46.27a3.07 3.07 0 01-.86 2.65c-.65.38-.33-.59-.81-.76-1.19-.05-.55-1.52-1.14-1.89l2.11-1.94c.48.07 1 .24 1.52.33l-.18.92c-.35.62-1.2-.75-2-.06-.37.15-.75.65-.59.97zm.87 3.78c.38-.21-.32-.87.38-1a14.09 14.09 0 01-1 3.4c-.14-.83 1-1.59.62-2.38zm-7.66 4.57a1.32 1.32 0 01-.12-.2l.11-.1v.3a1.87 1.87 0 002.2.67c1-1.14 1.89 1.46 3.14.49l.75-.49c-1.73 4.16-2.7 8.58-4.43 12.86-.59.17-1.51 0-2.05.48-.33.17-1 0-1.3.49-.65.22-1.08.86-1.83.86 1.29-1.35 2.1-3.13 3.4-4.48a3.81 3.81 0 01.7-1.51c.12-3.35-.49-6.19-.57-9.37zm-.39-1.06a.29.29 0 00.11-.22l-.22-.16c.38-.31-.38-.59-.11-.87.75-.84 1.95-1.18 2.72-2-.19.35-.19.87-.66.74-.11.27-.44.11-.38.38.81.1.38 1.47 1.24 1.56a.93.93 0 01.7.81c-.1.43-.43.65-.81 1-.32 0-1.13.32-1.45-.22a1.71 1.71 0 01-.06-1.46c-.16-.49.92-.43.27-.87-.59-.27-.65.38-1 .66a2.34 2.34 0 01-.22 1c.08-.19-.08-.24-.13-.35zm4.75-1.68a1.38 1.38 0 01-.7.93c-.32-.44-1.08-1-1.35-1.57.38-.27.54-1.2 1.3-1a1 1 0 00.48.12c.82.45-.43 1.04.3 1.52zm1.57 2.76a1.48 1.48 0 01-1.78.59c-.6-.32-.38-.91-.38-1.29a6.22 6.22 0 00.7-.6c-.11 0-.22-.26-.38-.16a2.41 2.41 0 001-1.45c.38.26.81.8 1.35.48.35.92-.35 1.62-.51 2.43zm-1-4.47l.59-.51c-.59-1-1 .77-1.56 0l-1.46.22c1.08-1.34 2.48-2.37 3.4-3.72a1.16 1.16 0 00-.21 1.18l.1.11a1.84 1.84 0 00-1.24 1 .61.61 0 00.27.6c.27-.28.6-1 1.19-.87 0 .65.75.81 1 1.19a2.85 2.85 0 01-.38 2c-.24-1.11-1.89.35-1.67-1.2zm-.38-9.15c-1.94 3-6.05 4.65-7.73 7.78h-.16a38.62 38.62 0 012.43-7.13c-.11-1.56 1.89-2.58 2.22-4.16.53.06.42-.7 1-.59a2.11 2.11 0 011.3.32c.64.43.32 1.42.27 2a2.45 2.45 0 00-.22 1.09zm-39.6-100.5c-.33 1.51.81 2.65 1.83 3.41-.59 2.53 2.65 2.27 3.9 3.62-.17.92-1.09-.11-1.63 0s-1.67.26-1.94 1.08c.81 1.13 2.92 1.77 2.7 3.57.06 1.12 1.73.09 1.45 1.4a1.3 1.3 0 00.71.48c1.46-.76 2 1.14 2.92 1.94 1.13.66 2.75-.1 3.78.28l-.22.38c.43 1.4-1.13 2.47-.86 4.1.05.43.81.75.48 1.24a1.69 1.69 0 00.49 1.78c1.68.93 1.46 3.25 3.51 4 .38-.54.06-1.4.27-2a3.45 3.45 0 001.3-3.62c1.73-.49.05-2.59 1.83-3.19 1.35 2.65.6 5.84.76 8.64-.05-.26-.38-.43-.38-.69-.75-.39-1.67.37-2.21.81-.27-.38-.38 1.18.49 1.72l-.71.6c-.43.6.32 1.35.28 2h-.06v.43l-.49.81c.16.7.76.65 1.35.8.48-.06.54-.59.75-.92l.38 1.09a5.09 5.09 0 002.54 1.18 10 10 0 01.87 2.81c.54 4.92.86 10.27 1.67 14l.11-.1c.81 4.32 3.46 7.84 6.32 11.29-.32.11-.48.6-.86.37a1.91 1.91 0 01-.82.21l-1.07 1.38c.19.52.23.81.32 1.07.43.53 1.08.47 1.62.75l-.77.88a2.9 2.9 0 00-.09.9 2.18 2.18 0 001 1.24c.53-.21 1.07.71 1.67.11l.57.13a2.32 2.32 0 00.08 1.62c2.16 1.08-1.08 2-1 3.13.75.65-.55 1.4-.49 2 .92.87.05 1.41-.54 2-.38.48.27 1.25-.22 1.79l-1.84-1.79c-.43 1.62-1.52 2.86-2 4.43a111.47 111.47 0 00-1.23-24.26c-.25-1.61-.7-2.27-.92-3.77-1-3.85-1.83-6.66-2.75-9.95a176.76 176.76 0 00-7.59-17.06s-5.47-9.33-8.67-13.36c-6-8.21-13-16.38-20.91-22.16.43-.21.81.33 1.3.28 8 1.89 16.1 1.94 23.61 4.75-1.19.11-2.05.37-2.92-.59a23.69 23.69 0 01-5.46-.16c-.75 1.44-2.7-.12-3.67 1.34.03.8 1 1.33 1.49 1.78zm22.09 27.67c.49-.06.76.54 1.14.86.05.49 0 1.08-.6 1.14-.43.15-.75-.22-1-.54a2 2 0 01-.05-1s.92-.09.54-.46zm-.1 2.59l-.38.11v-.38c.19 0 .3.16.41.27zm.16.71a3.74 3.74 0 011.3 3.07c-.28.6-.92.22-1.3.11a3.09 3.09 0 01-1.25-1.14c-.11-.37.6-.59.11-.91-.32-.06-.38.27-.59.43l-.22-.81c.89.43 1.17-1.17 1.98-.75zm-3.19-.6a1.08 1.08 0 01-.11-.6 1.28 1.28 0 012.05.33c-.05.38.16.75-.38 1a1.36 1.36 0 01-1.53-.73zm.7 2.64a1 1 0 01-1.17-.37l.51-.67a.5.5 0 01.18-.36c.21 0 .43 0 .54.22.07.43.46.86-.03 1.18zm1-5c-.17.66-1 .27-1.35.27-.32-.21-.6-.7-.16-1a2 2 0 011.51-.49zm.21 1.09l-.38-.22c.23-.18.55-.18.44.25zm14.38 36.74c-.38.7-1.52-.27-1.52.86 0-.54-.43-.75-.8-1.08-.11.22-.33.11-.49.11v-1.14c.59.05 1.13.6 1.78.28zm1.19 1.45a.88.88 0 01-.7.87c-.44-.27-1.14-.16-1.25-.87a1 1 0 01.49-.69 1.09 1.09 0 011.52.72zm-2.92-3a1.92 1.92 0 01-1.19-.86c.49 0 .81.6 1.19.86zm-.7 1.95a.82.82 0 01.48.69c.27.87.43 2-.37 2.55a1.82 1.82 0 01-2-.59 2.64 2.64 0 01-.06-1.28l.87-.56v-.21a.9.9 0 011.14-.59zm-1.21.07a2.46 2.46 0 01-1.68-.76 1.28 1.28 0 01.49-1.19l.29-.45a.45.45 0 000 .28c.17-.15.38-.58.76-.43a1.34 1.34 0 01.38.6c.14.61.52 1.58-.18 1.96zm2.5 3.66c.87-.43 1.25.16 1.36 1-.06.44-.22.81-.76.65s-.59-1.17-.54-1.64zm-4 21.44c.55.59 1.52.48 2.06.92a7.15 7.15 0 00-4.6 3.67c-.48 3.13-.05 5.78-1.45 8.64-.06.6.7.87.32 1.46v.81c-.54-.43-1.08-.17-1.68-.11-.75.33-.59 1.19-.86 1.83.06.49.16 1.15.65 1.37l.59.09c-2.27 3.19-4.7 6.27-6.32 9.84-.86 1-1.13 2.38-2.05 3.29 1.83-4.51 3.9-8.34 5.15-12.88 1.82-5.13 2.63-10.13 4.09-15.8.92-3.62 1-7.13 1.58-10.81 1.03 2.67.47 5.59 2.58 7.69zm-5.45 17.95c-.49-.33-.27-1-.27-1.41.48 0 .91-1.08 1.62-.54-.54.6.7.81.11 1.46-.33.28-.81.82-1.4.5zm1.19.54c.43-.6 1.13-1.35.86-2.21.65.48 1.73 0 1.84 1.18.16.86.32 2.22-.87 2.48-.59.05-1.24.38-1.83.11-.41-.58-.1-.85.06-1.55zm2.54-2.59a3.41 3.41 0 00-1.3-.39c-.38-.37-.16-1-.11-1.4a3.21 3.21 0 011.57-.54c.17.71.38 1.74-.11 2.34zm12.42-32.2c-.21-.82-1.24-.17-1.57-.77a3.39 3.39 0 00-1.32-3.22c2.1 1.45 3.14 3.7 4.57 5.81a11.39 11.39 0 010 7.79 4 4 0 00-2.43 1.78c-.33 1.3-.49 2.7-1.68 3.68-.21.21.06.75-.27.75-.54-3 2.6-4.91 3.78-7.46 1.31-3.07-1.07-5.28-1.02-8.35zm2.8 8c.92-5.08-1.84-9.13-5.13-12.38-1.08-.59-2.27-.8-3.24-1.46a1.09 1.09 0 00-1.28.28l-.37-.25.31-.51c.37-.32-.33-.69.21-1 .27.28.54.65.87.76a1.66 1.66 0 002.16-1l2.48 2c.81.37 1 1.52 1.94 1.57 2.66 2.32 3.25 5.67 4.11 8.86.22.38 0 1.19.59 1.13a27.66 27.66 0 00-2.75-8.64 4.84 4.84 0 00-1.95-1.84c-2.64-2.1-4.64-4.16-7.18-6.43a3.12 3.12 0 00-.59-1.46c-.27-.21-.76.06-1-.16-5.78-5.5-7.35-12.59-7.73-20-.48-2.59-.43-5.29-1.51-7.78.17-.32.49-.59.38-.86h.11l-.22-1.24a4.16 4.16 0 00-1.46-2.16c-.7-.7.7-.11.87-.54a1.32 1.32 0 00.7-1.19c0-1.18-1.4-1.56-2.05-2.16a26 26 0 00-1.81-11.1c-.32-.43.11-.91.59-.86.71-.54 1 .54 1.14 1-.11 1.07.86 2.05.59 3.24a29.22 29.22 0 011.55 6.08c.39.94.56 3.26 1.1 4.13a17.28 17.28 0 001.51-9.94l.16.1 1.31-.11a2.87 2.87 0 001.45-.26c.43.54.37 1.35.81 1.95-.11-.22.1-.28.16-.43l.49.58a3.65 3.65 0 00-1.46.6c.05.27-.44.43-.17.7-.16.11-.32.33-.48.38v1.07c0 .49.65.88.86 1.14a2.71 2.71 0 001.84-.48c.7.54.65 1.34.81 2.15-.16.65-.76 0-.92.6-1.35 0 .22-.92-.27-1.46-.59-.11-.27.75-.76.86-.32-.1-.16-.43-.21-.69l-.11.1a1.24 1.24 0 00.22 1.24 44.12 44.12 0 00-2 14.71c-.76.8-2.37 0-2.8 1.08.7.8 1.45 1.82.86 2.9-.38.81.81.5 1.13.76.71.75.27 1.57.49 2.43a1.83 1.83 0 001.29.34c.49.52.33 1.33.76 1.93.27.86 1.3-.26 1.57.65-.27 1.3.59 2.49 1.24 3.35-.65 1.68 0 3.24.22 4.92.59 1.09.8 2.91 2.43 2.91.59-.27.8-1 1-1.35 2.16 2.55 4.1 5.41 6.53 7.62.27.49-.21 1.24.38 1.62s.92 0 1.46-.16c2.38 2.86 3.57 6.59 2.33 10.26a9.88 9.88 0 01-3.5 1.89zm-17.6-63.32c0 2.43.22 5-.87 7 .11.32-.11.7-.16 1.07 0-.69-.7-4.59-.7-4.48-.87-1.45-.59-3.29-1.57-4.86a5.29 5.29 0 012.43 1.29c.44.62.93-.03.93-.03zM233 96c.43 1.24-.49 1.29-1.25 1.72-.48-.26-1-.37-1.08-1a1.82 1.82 0 011.3-1.56c.52-.1.79.45 1.03.84zm-2 12.9c-.86 1.51 2 2.59 0 3.88 1.3 2.22 3.13 3.41 5 5.13-.86-.48-2.75-.64-3.56-1.93-.92.26-1.41-.5-2.06-.71.38-4.48.17-9.61 2.06-14.26h.38c0 .65.05 2.11-.81 2.43-1.01 1.35.1 3.94-1.01 5.46zm3 17.4a6.17 6.17 0 012.76-.12l.11.12-2.27 2.06zm5.94 3.18c1.41-2.06 2.11.87 2.75 1.67.75 2.87.59 6.71.75 9.62.49.28.49.87.87 1.25-2.38-1.94-3.78-4.91-6.21-7.08-.17-.7.7-.32.86-.75 1.31-1.19 1.04-3.3.93-4.71zm3.62-.65a28.72 28.72 0 013.78 3.78 14.19 14.19 0 00-.48 2.6c-.21 1.62-1.73 3.14-.21 4.6-.49-.43-1.25-1.09-1.95-.71-.86.28.21 1.08-.65 1.29-.35-3.63.66-9.11-2.34-11.75l.72-.07c.17.54.57.05 1.08.26zm1.46 11h-.32c.43-.54 1.3.1 1.57.7 0 .43.1 1.08-.49 1.13-.22-.22-.54.16-.87.22-.32-.44-.8-.87-.48-1.47.11-.33.81-.17.57-.6zm.27 2.91c.33-.81 1-.27 1.19.28a1.89 1.89 0 01-.59 1.18c-.97.26-.76-.99-.65-1.48zm3.89 5.45c-.7-1.44-1.08-3.24-2.43-4.2.11-.71.54-.71 1.19-.65-.49 1.73 1.73 1.83 1.35 3.51zm-1.08-8.74a1.34 1.34 0 01-1.51-1.08 2.1 2.1 0 011.35-.6c.22.22.6.27.65.6 0 .41-.05.9-.54 1.06zm-.54-2.17c-.38 0-.59.49-.91.33.86-1.46.7-3 1.29-4.59a.93.93 0 00.57.27v1.19c0 1.14.37 2 .31 2.8-.44.53-.93-.28-1.31-.02zm-9.18-17.88c.16 0 .32 0 .43.11l.05-.22a8 8 0 001.19 3.51c.06.6.33 1.13 0 1.68-1.08-1.4-1.41-3.4-2.16-4.86l.43.27c-.05-.19.27-.34.01-.51zm.43-3.9c-.18.73-.72 1.59-.63 2.2.05.11.09.24.14.35a.72.72 0 01-.14-.35c-1.92-4.48-2.35-10-2.51-14.35l-.27-.27c-.53 1-.21 2.48-.32 3.57.22 1.78.54 3.78.7 5.24a17.15 17.15 0 01.65 2.27c.65 1.51.71 3.45 1.68 5l-1-1.08c-.17-.12.1-.92-.38-.6v.27a25.22 25.22 0 01-5-4.86c0-.49.55-.65.71-1a3.91 3.91 0 01-.33-4.11c.38-1.19-.86-3.84 1.08-4.38.22-1.57.33-2.65 1.57-3.68-.11-.27.11-.43.27-.59l-.11-.1c.43 0 .81.86 1.3 1.19l1.08.65a1.17 1.17 0 00.76 1.29c1.19.54 1.29 2 1.67 3.07.65 3.13 1.19 7.4-.97 10.25zm-4.49-16.26a3.92 3.92 0 00-.81-1.83 1.81 1.81 0 001.95-.49c-.46.79-.81 1.55-1.19 2.3zm1-3.39c0 .64-.38.75-.81 1.07-.49 0-1-.26-.76-.75.11-.71 1.41-.11.76-.87a1.28 1.28 0 00-1 .27c-.27-.06-.16-.6-.48-.71.27 0 1 .22 1.4-.15l.87 1.14zm-1.09-1.74a1.43 1.43 0 01-1.45-.21c-.49-.28.21-.81-.49-1a.86.86 0 00-.29.63 1.07 1.07 0 01-.09-.63c.11 0 .11 0 .17.11a1.84 1.84 0 011.67-.77l.76 1.35c.04.29-.13.41-.35.5zm-2.15-2l-.11.39c.15-.88-.86-2 .7-2.12.32.17.54.76.81 1.14a2.13 2.13 0 00-1.48.62zM213.14 71.5v-.06a2.16 2.16 0 011.3.88c-.37.06-.97-.44-1.3-.82zm5.09 7.14c0 .38.38.7.11 1.08-.06-.38-.34-.72-.11-1.08zm.64-7.67l-.75-1.2.75.87zm-.37.53c-1.36 2 .64 3.84-.28 6l-.1.1c-.54-1.46-2.11-2.64-2.05-4.48.16 0 .27-.16.37-.27-.48-.86-1.62-1.24-2.43-1.79a52 52 0 00-15.35-3.39v-.27h.11c-.16-.28-.11-1.14-.81-1.19l-.48-1.52a48.13 48.13 0 007.51.76c2.65 2.27 7.08-.48 9.94 1.94a13.22 13.22 0 013.57 4.11zm-20.81-10.58c-1-.87-1.35-2.06-2.64-2.6-.28-.54-.87-.7-.76-1.4a25.66 25.66 0 015.08 2.54 1.8 1.8 0 00.54 1.78 1.43 1.43 0 00-1.35.54c.1.81-.38 2 .81 2.54.65.11.86.26 1.46-.11s.58-1.24.48-1.95l-.32-.48c.48.21 1-.81 1.35-.05-.27.58-.82 1.23-.49 2 .38.38.49 1 .92 1.2-1.25-.39-3.36 0-4.7-.77a.41.41 0 01-.49.17c.05-1.14 1.24-2.39.11-3.41zm3.89.1c-.27.27-.59-.05-.86-.1-.38-.22-.86-.6-.81-1.08a5.43 5.43 0 011.29-1c.38 0 .38.38.6.6l-.11.1c.31.4-.11 1-.11 1.46zm-.75 1.57c.1.32.21.87-.11 1.13-.16.49-.81.27-1.08.22a1.13 1.13 0 01-.49-1.46l.49-.11c0-.32-.38-.21-.6-.27.38-1.02 1.68-.32 1.79.49zm5.24-1.08c.27-.86.86.05 1.13.22a3.49 3.49 0 01-.16 1.51.89.89 0 01-1.19-.76c-.05-.38.32-.7.22-.97zm-.33-.59l-.27-.65a.57.57 0 01.49.48zm.43 3l1 .11c-.22.7.27 1.18.54 1.73-1-.27-1.95-.64-3-.86a2.47 2.47 0 000-2.44l.27-.22c.33.62.49 1.38 1.19 1.76zm-1.46-2.17c-.1.21-.32.1-.48.1-.22-.43-.92-.32-1.19-.48a1.45 1.45 0 01-.4-.5l.4-1c.22-.32.76-.22 1.08-.1a6.21 6.21 0 011 .8 1.21 1.21 0 01-.41 1.21zm-1.88.48c.43.6 1.67 0 1.57 1.08a1.63 1.63 0 01-.39 1.3c-.75 0-1-.65-1.45-1.08a1.39 1.39 0 01.27-1.27zm5.07 1.2c.11 0 .22 0 .27-.11v-.27c.49 0 .27-.6.82-.49s1 .16 1.13.65a2.85 2.85 0 01-.86 2.37c-.44.06-1.14-.1-1.25-.69s-.32-.84-.11-1.43zm8.38 4.27l-.2-.2a8.47 8.47 0 00-6-1.75 3.3 3.3 0 00.49-2.92 2 2 0 00-1.74-.87c-.48-.16-.7.22-1 .49.27-1.83-1.94-2.43-3-3.51-1.46-.87-2.86-1.78-4.26-2.7.69.11 1.62-.54 2.21-1l1.57 1.08 11.68 11.15c.06.06.14.12.2.19zm-27.13-6c-2.16-.48-4.32-.81-6.16-2 1.36-.16 2.76-1.4 4.11-.81a2 2 0 001.35.22c.65-.22.54-1 1-1.3s1.19-1.46 2.17-1a6.59 6.59 0 00-2.47 4.97zm-11-8.27s-.48.7-.86.33c-.11 0-.27 0-.27-.12l-.22.23a26 26 0 01-2.92-4.48c.92 1.07 2.81 1.61 2.32 3.39.47 1 1.45.22 1.93.73zm10.59-1c.49.7 1.3.87 1.95 1.35-1 .12-1.89.65-2.92.27-.87-.59-1.67-1.56-2.7-1.46-1.84-1-3.73-.26-5.46.49a16.79 16.79 0 00-2.92-.59c.92-2.76-3.4-2.64-3-5.35-.27-1.41-1.56-2.7-1-4.26 1.08.26 2.38-1.37 3.51-.12.87.6 1.78.21 2.65-.05 1.67.75 2.91 2.49 4.75 2.92a11 11 0 005.12 6.85zM182 44.22c-1.08-.92-2.21-2-3.51-2-1.13.7-2.11-.05-3.08-.39-1 .28-2.65.06-3.62 1 .49.54-.16 1.51.22 2.32.38 1 1.18 2.06 1.08 3.19-.81-2.06-2.49-4.76-2.65-7.4.16-.16.48 0 .59-.27.16.27.27-.11.49-.11.27-.54.7-1.14.38-1.84a4.53 4.53 0 00-1.36-1.29 70.75 70.75 0 018.16 3.45l.11-.1c1.34.85 2.86 1.4 4.26 2.21.54.76.06 1.19.49 1.95-.35.2-1-.5-1.56-.72zm-14.75-4.37c-.7 0-.76-.82-1-1.31v-.75c.75.17 1 .86 1.35 1.35a1.37 1.37 0 00-.49.37c.05.12 0 .28.16.34zm-.33.53v.33l-2.1-2a.8.8 0 01.86 0 1.83 1.83 0 001.08 1.46zm1-.38a1.64 1.64 0 011.08 1c.21.55-.43.49-.49.81-.48.06-.75-.48-.86-.81-.05-.56 0-.56.27-1zm-.38-3.41c-.6-.64.6-.59.6-1.24a2.55 2.55 0 011 .65l.1.93c-.62.26-1.24-.12-1.7-.34zm.87 1.09c.16-.16.37-.06.59-.1a1.94 1.94 0 00-.59 1.77c-.27-.21-.22-.75-.49-1.08-.38-.81-1.57-.86-1.95-1.78l.22.22c.16-.22.49.48.65 0a2.25 2.25 0 001.57.97zM166.57 36c-.54.27-.65-.37-1.08-.65a1.38 1.38 0 01.86-1.35c.49 0 .87.49 1 .87-.08.43-.78.76-.78 1.13zm-3.14.71v.59l-.75-1.08zm-8.8-3c-.49.86-.92 1.79-1.3 2.54-.83-1.31-1-3.15-1.32-4.65l4.2.82zm-20.38 4.86c2.22-.15 3.79.81 6.06.33a16.89 16.89 0 00-2.83 1.88l-1 .92a2.09 2.09 0 01-.61-1.35c-.37-.43-.43-1.12-1-1.29-.07-.3-.35-.4-.62-.52zm-2.59-9.73l-.11.71a3.35 3.35 0 01-2.05-.22l-.27.33c.38.81 1.73.53 2.43.48-.86 1.14-3.72.82-2.81 2.92a1.22 1.22 0 00-1-.42.93.93 0 01-.2.1.76.76 0 01-.08-.11h-.13l.1-.06v.06h.28a1.64 1.64 0 00.88-1c.49-.43.06-.91-.1-1.4a3.52 3.52 0 011.07-2.33 1.92 1.92 0 011.99.91zm-3.72 5.68c-.66.16-.82-.49-1.14-.81a1.27 1.27 0 011.73-.11c.21.4-.27.67-.59.89zm-.87-4.1c.48 0 1-.06 1.19.48a1.39 1.39 0 01-.81 1.18 1.24 1.24 0 01-1.14-.21c.06-.57.11-1.21.76-1.48zm.1 2.32a1.4 1.4 0 00-.87.86c.43.38.22 1.35 1.08 1.46.71.22 1.08-.33 1.62-.54.22-.38 0-.54.22-.92a9.12 9.12 0 001.24 2.76c-1.46-1.52-4-.49-6.21-1.19a1.83 1.83 0 01-.38-.11h-.32c.38-1.24 1.67-1.57 2.43-2.49.27.3.81-.14 1.19.14zm.8 14.2c8.22-.19 22.8 2.78 31.23 6.29 9.72 4 26.81 9.25 38.66 23.07 16.95 19.8 31 43.88 31 72.94 0 8.08-1.42 16.06-3.06 23.6-10 46.07-48.65 80.15-98 80.15A105.06 105.06 0 0159 227.75a103.4 103.4 0 01-36-78.35c0-34.69 18.85-67.88 47.54-85.73C86.72 53.58 107.42 47.41 128 46.91zm71.29 183.94c-.22-.81-.16-1.73-.33-2.64-.27-.65.22-2.11-.37-2.92 4.37-4.46 8-9.26 11.74-13.91.94-1.56 2-3.5 3-5.07-.32 2.26-1.83 6-2.15 8.31a21.55 21.55 0 00-1.27 3.64l-.27.78c-1.22.47-1.86 1.46-3.09 1.76-1.35 1.09-3 1.41-4.26 2.76s-1.14 3.46-2.76 4.48c.08.83.41 1.93-.24 2.78zm-3.89-2.27a4.1 4.1 0 01-1.84 1.78c.6-.56 1.35-1.32 1.84-1.81zm-3.78 9.24v.49a21.85 21.85 0 01-4.54-1 13.55 13.55 0 00-3.29.54c-.11.33-.27.7-.6.81a4.43 4.43 0 01-1.35-.11c3.29-2 6.43-4.31 9.51-6.53a2.28 2.28 0 01-.27 1.07c0 1.52-.92 3.52.54 4.7zm-13.4 3.77l.65.71c-.44.38-.6.87-1.19.81a1.55 1.55 0 01-.38-1.29l.27-.38zm.81 4.61a1.52 1.52 0 01-1 1h-.37l.1-.12c-.48 0-.32-.75-.48-1l.38-1 .21.21.16-.27a1.25 1.25 0 01.92.88c-.1-.06-.16 0-.21.09zm2.38-2.54l-.93-1c.71-.21 2 .22 2.76.22l1.94 1a17.59 17.59 0 01-5.56 1.84c-.16-.12-.05-.39-.27-.49a1.33 1.33 0 001.46 0 1.19 1.19 0 00.6-1.6zm-.49.48c.1.34-.44.43-.6.6a.81.81 0 01-1.08-.65.94.94 0 01.38-1c.7.05.92.49 1.3 1.02zm-.11 1.89a67.6 67.6 0 009.37-3.31l.22-.07c.52-.25 1-.51 1.56-.79-.33.48-1 .59-1.56.79l-.25.11-1.88 2.21a75.08 75.08 0 01-9.3 2.43c.6-.59.6-1.94 1.84-1.43zm6.48 1.73l.22.23c-3 .53-6.1-.28-8.86.26 0-.1 0-.21-.11-.26a74.05 74.05 0 007.62-1.79 3.79 3.79 0 002.11-.48c-.32.56-1.46 1.04-.98 2.01zM176 243l-1.45.48-.92.76.1.1c-.27.06-.16.49-.16 1a35.68 35.68 0 01-4.86 1.19 8.39 8.39 0 01-4.49.65 88.77 88.77 0 008.23-3.58c1.35-.44 2.69-1.44 4.1-2 0 .65-.06 1.73.81 2.11a1.09 1.09 0 001.13-.16 1.85 1.85 0 00.33 1.24c-.44-.43-.87-.11-1.36-.11A2.66 2.66 0 00176 243zm.76 1.61c-.11.7-.87 1.14-1.35 1.46s-.92-.43-1.19-.86a1.52 1.52 0 01.7-1.35l.81-.3a2.8 2.8 0 011.05 1.07zm1.67 3.52a1.9 1.9 0 01-.45-.07c-.61.09-1.39.62-1.6-.09.22-.12.33.16.49.26.2-.39.67-.26 1.11-.17a.61.61 0 01.47.09zm-42.86 9.15c-.05-.38-1.93.62-2 1.05s-.22.12-.38.33c-.11-.05-.16.05-.22.05a8.72 8.72 0 01.6-1.13c.21-1.08 1.19-2.48.37-3.4-2.64.59-6 .59-8 2.59-1.62-.16-1.73 2-3.19 2.54v-1.57c-1.51-1.08-1.56-3.67-3.67-3.4-.82.15-1.46.91-2.27 1.08-1.41.59-2 2.22-2.11 3.62-1-1.73-2.64-2.55-4-3.79-.59.12-1.4-.59-2-.48l-.22-.22v.11c-.7-1.13-2.21-.21-3.13-.81-.92.49-1.89-.11-2.7.49.38 2.05 1.83 3.67 2.32 5.67A37.84 37.84 0 0094.4 249c4.21 1.51 8.17 2.16 13 3.23 6.48.8 13.84 2.19 21.31 2 6.11-.53 11.08-.5 17.19-1.68-1 .16-1.62 2-2.6 2-2.16 1.13-4.16 3.13-6.54 4 0-.12-.27-.27-.1-.38-.51-.57-.37-.71-1.07-.87zm-1 .68l-.11-.11a1.08 1.08 0 011.57.48c.21.81-.92.43-1.19 1.19l-.16-.21c.17-.31-.91-.84-.1-1.31zm-2.16 3.51l-1.41 1.26c.27-.65.86-1.24 1.08-1.83-.26.27.45.27.34.59zm-.11-1.46l.22-.22-.11-.09c.22-.28.54-.82 1-.77s.7.49 1 .86a6.44 6.44 0 00-1.62 1.3 3.64 3.64 0 01-.48-1.09zm-27.79 6.81l.06.11c-.76.05-.43-.76-.65-1.3-.48-.53-.59-1.3-1.29-1.73-.38.39.43.82.49 1.24-.33-.15-1.09-.85-1.63-.47-.75.58-1.18-.71-2-.38-.48-.5-.38-1.2-1.24-1.2-1.68-.05-3.73-.69-5.35-.16-1.24.49-1.46-1.07-2.54-1.46l-2.16-1.19.37-.37a1.63 1.63 0 00.82-.27c1.13-.76 1.29 1.4 2.32.54l1.08.59c2.59.44 6 .11 7.78 2.16.17.38.17.92.6 1.14.64-.81-.33-1.84-.7-2.7-1.14-1.3-2.22-2.81-3.9-3.19-.27-.22-.27-.7-.37-1.08l.59-.32-.11-.05a1.17 1.17 0 00.76-.81c.49-1.9-2.11-2.12-2.81-3.31-1.62.27-2.92-1.34-4.11 0a2 2 0 00-1.46-1c-1.51-1.14-4.16-1.09-4.53-3.41a9.61 9.61 0 00-3.73-2.65c-1.24-.81-2.81-1.18-3.68-2.49-.75 0-1.08.6-1.56 1.14-.32 1.07-.65 2.49 0 3.51-.32.11-.7-.38-1-.59-3.08-.27-6.65-.92-9.25 1V248a2.31 2.31 0 00-1.12.1l-.62.12a.6.6 0 00-.47.22c-.22-.86-1.08-1.08-1.46-1.68a41.79 41.79 0 004.16-1l-.1-.11c.1.05.16-.06.21-.11a4.48 4.48 0 00-2.64-.49c-4.17-.06-8.49-.06-12.17-1.24a9.69 9.69 0 00.19-2.45l.52.13a23.08 23.08 0 004.65.26c.1-.15.43-.21.32-.47a32.1 32.1 0 01-7.29-5c-.27.39-.66-.17-.82-.49s-.7-.86-.38-1.45a2.77 2.77 0 012.33-.49c.54 2.43 3.62 3.19 5.29 4.59.65.11 1.14.44 2 .59a2.54 2.54 0 001.24 1.95 3.25 3.25 0 003-.11c0 .39.38.71.65.86 1.25.28 1.73-.37 2.65-.75.06.92 1.35.66 1.84.6a2.41 2.41 0 012.26.15c3.41.22 7-.58 10 1.3h.87a105.28 105.28 0 0013.13 5.68l.11.6c4.86 2.75 8.31 7.5 11.39 11.72.22.59.27 1.46 1 1.56.11-.43.71-.31 1-.65a.41.41 0 00.49.17V262c1.51 2.55 4.38 2.55 6.65 3.24-1.41.21-2.82-.48-3.52 0a.29.29 0 00-.21-.11c-.6.22-1.52 0-2.33.22s-2.11.59-2.81.87l-.59.16c-.1.24-.26.3-.21.46zm-5.33-.38a2.58 2.58 0 011.35 1c0 .86.11 1.46-.81 1.79-.49.32-.87-.22-1.35-.33a1.42 1.42 0 01-.38-1.62c.49-.28.82-.76 1.2-.82zm-1-2.37v.1l.11-.16.37.54c-.16 0-.27.21-.37.33zm1.65 1.93c-.37-.21-.75 0-1.08.22 0 .12-.16.12-.27.12-.26-.38.11-.77.22-1.09a2.24 2.24 0 01.86-.37 1.81 1.81 0 011.57 1.08 2.44 2.44 0 01.06 1.62c.05-.53-.7-1.28-1.36-1.58zm2.06 0l-.49-.75c.81-.37 1.68.6 1.73 1.35s.38 1.95-.75 2.44c-.38 0-.76.43-1.09 0 .17-1.04 1.09-1.93.6-3.04zm-4.65 1.8a2 2 0 01-1.19.58 1.1 1.1 0 01-1.08-.8c-.16-.86.6-1.36 1.08-1.73s1.79-.54 1.57.27c.7.61-1.08 1.37-.38 1.7zm-2-2.06a5.86 5.86 0 011.46-1.67c.54.22 1.08.38 1.13 1a3.39 3.39 0 00-2.64.69zm-.33-5.46c-.7.27-1.72-.37-2.48-.48l-.11-.1c1.14-.66 2.86-.5 3.41-2a2.81 2.81 0 001 1.34c1.4-.22 2 1.41 2.81 2.11a12.35 12.35 0 00-4.49-.65c-.05-.09-.13-.14-.19-.2zm-5-7.4c-1.52.54-2 2.06-2.92 3-.21.53-.16.75-.38 1.3-1-1.58-.05-3.63-1.19-5.46l-.11-1.29a21 21 0 014.53 2.47zm-12.16 1.46c-1-.27-1.68-1.24-2.43-1.84-1.89-1.46-3.89-1.78-5.84-3.07-1.24-.49-1.84 1.24-3 .86-.49.24-1.19 0-1.78 0l-.37-.08a1.13 1.13 0 00.58-.62L65 249a1.37 1.37 0 01-.78-.36l.24-.17a1.47 1.47 0 01.53-.13l.11-.1-.1.1-.32.28c.49.1 1-.43 1.46-.65 2.49-1.2 5.57-.71 8.1-.23l.87.6c-1 1.19.86 1.46.7 2.7-.13 1.48 1.54 2.14 1.87 3.32zm-14.81-4.54a1.06 1.06 0 01.49-1c.49-.27.6.38.87.65-.27.1-.27.7-.65.48v-.06zm-13.61-13l2.27 2.06v-.11c.87 1.29 2.59 1.4 3.62 2.43-1-.09-2.32-.11-3.24-.29l-.74-.12a6.64 6.64 0 00-1.98-3.92zm3.29-10.7c-1.12-1.18-1.18-2.91-2.21-4.16-.32-1.13-1.24-2-1.83-3 5.45 5.08 10.37 10.59 16.42 14.81a80.26 80.26 0 0012.27 7.89c-2.81-1.36-6.17.53-8.86-.93l-.71.33a.85.85 0 00-.34-.56l-.14-.41c0-.11-.21-.16-.16-.32.32-.48.6.32 1 .32.75.06 1.67.11 2.05-.8-.17-.54-.44-1.2-1.08-1.35-.65.05-1.41-.12-1.79.59-.21-.44-.75-.44-1.13-.71-.11.21-.32.12-.49.12a1.28 1.28 0 001-.66c-.22-.32-.22-.86-.71-1l.11-.11c-.48-.86-1.13-.43-1.94-.38.32-1-1.14-1.78-1.19-2.75-1.19-1.62-3.46-1.13-4.76-2.91-2.32-.54-5.24-1.62-7.08.59.75-1.24 1.77-2.81 1.5-4.55zm9.98 13.99l-.1.11c0-.27-.17-.43-.11-.7a2.7 2.7 0 001.57-.59c-.27.38.16.81.27 1.18.27.32.7.27 1.07.38a3 3 0 01-2.43.76c0-.17-.37-.39-.1-.54.16-.54.92-.22 1.08-.71-.38-.48-.85-.1-1.25.11zm3.19-2.75c-.37.11-.86.32-1.24.11-.32-.38-.59-1 0-1.35.31 0 .62 0 .84.19a1 1 0 00-.35.29c.26.27.86.27.75.76zm-1.08.69l-.27.12.22-.21zm0 1.47a.94.94 0 01.64-1.19c.55-.28 1 .16 1.3.6s-.27.54-.48.86c-.59.06-1.17-.48-1.51-.27zm2.11.86v.22a3.1 3.1 0 01.21.48 1 1 0 01-.81.17c-.22-.44.33-.65.55-.87zm1.29-1.94c.7.38 1.24-.22 1.35.87a1.18 1.18 0 01-1.35.32.67.67 0 01-.05-1.19zM63.74 236c-.27.15-.16.54-.65.37l-.22-.16c.33-.11.55-.28.87-.21zm-.48.8c.21.44 1 1.09.43 1.73a2.11 2.11 0 01-1.46.6c-.17-.81-1.41-1.09-.81-1.94a1.83 1.83 0 011.29-.7c.29.09.22.64.55.3zm-1.52 3.9c-.81.65-1.73.15-2.54-.11-.38-.32-.38-.55-.7-.86.11-.22.81.05.59-.49a2 2 0 01-.48-.43 1.5 1.5 0 011.2-.69l1 .31c.45.8 1.42 1.34.93 2.26zm-1-2.9l-1 .05a1.61 1.61 0 00-1.39.79c-2.44-.32-4.16-2.27-6.27-3.3-.22-.37-.65-.8-.49-1.18 2.54.49 3.73 3.62 6.65 3.13.92-.21 2.05.06 2.81-.58a3.69 3.69 0 00-.32 1.08zm44.67 23l1 1-.32.32zm4.86 3l-.32-.27v.06l-2.38-1.84c-.27.1-.65-.22-.87-.37-1.62-2-2.27-4.44-3.29-6.71 1.13.34 2.11 1 3.18 1.25l.22.38c.33-.17.49-.43.87-.17 3.29 2.27 5.18 5.73 7.78 8.64-1.69-.3-3.41-.46-5.2-.96zm-72-49.12c2.65 3.79 3.67 7.89 6.1 11.79l-.59.26c.65.17.76.86 1.41.82-.16.7.75 1.45 1 2.21-.6-1.51-3.14-1.3-3.51-3.51-.76-.55-1.62-1.35-2.76-1.24-3.19-2.44-2.33-6.06-4.86-8.87a12.36 12.36 0 01.32-4.48c1.89-.86 3.24 1.13 5 .81.91.27 1.45 1.31 2.38 1.52 1.78 1.07.8 3.39 2.32 4.7.16 1.07.81 2.1.59 3.18a8 8 0 00-1 3.79c-2.16-3.79-3.51-7.95-6.16-11.57-.17.12-.44.34-.22.6zm-3.78 1.58l-1.3.1c.76-.16.54-1.19 1-1.68l.22-1.18c.37.93-.41 1.79.1 2.77zm.37.75c-.7.43.49 1.08.11 1.68-.48.1-1.24.37-1.78 0a1.21 1.21 0 01-.76-1 1.69 1.69 0 012.45-.69zm.6.81c.43.44.38 1.08.65 1.62-1.01-.16-.31-1.02-.63-1.61zm1 3.08c0 .12.22.38 0 .38h-.32c-.14-.28.2-.28.31-.37zm-.43-.6a.85.85 0 01-.38.6h-.37c-.06-.26 0-.37.27-.48.1 0 .26 0 .32-.12-.16-.26-.65-.53-1-.26-.27-.17.11-.49.27-.71.4.33.77.55.86.98zm-3.57-1.46a2.18 2.18 0 001.84.6c.11.33-.22.55-.38.6-.27-.71-1.08-.33-1.57-.27zm0 1.31a2.73 2.73 0 011.73.27c.11.65.87.91.38 1.56-.75.37-1.84.93-2.7.28a1.1 1.1 0 01-.38-1.15c.15-.46.64-.63.96-.95zm.38 2.81v.1a4.16 4.16 0 002.43-.86v-.49a2.2 2.2 0 001.68.05c.16 1.3 1.46 2 2.11 3.14l-2.22.48c-1.19-.8-2.49-1.83-3.78-1.35a1.62 1.62 0 01-.49-1zm11.56-7.9c-.86-1.67-2.43-1.67-3.56-3.07-2.11 0-3.29-1.24-5.45-.92-.92.44-.71 1.46-.87 2.17-.1-1.33-.28-2.82-.44-4.3v-1a4.78 4.78 0 011 .41c.92.22 1.78 1 2.81.71a1.49 1.49 0 00.11-1.08c-.27-.12-.22-.49-.22-.6L36 205.25c-.31-2.61-.76-5.13-3.06-6.71l.14-.75c-1-3.5-2-7.23-4.86-9.62-.65-1.51-1.78-2.8-2-4.48-1.35-.86-.65-2.53-1.41-3.61a1.28 1.28 0 00-.37.21L23.7 179c.43-.32 1.19-.54 1.46-1.24s-.54-1.4-1-1.84a1.54 1.54 0 00-.82.11 1.56 1.56 0 00-.75-1.45c1-.38.33-1.25.11-1.9-.7-.91-1.46 0-2.27.12a45.24 45.24 0 01-3.89-6c1.89.22 1.89 2.21 2.38 3.56 1 .49 2.43-.21 3.78 0 1.08-.81.33-2.32.27-3.4-.86-1.46-.38-2.86-.75-4.38a6.88 6.88 0 00-4.22-4.77c-1 .21-2.11 0-2.92.38.76-1.84 3.35-1.84 4.76-3a.39.39 0 01.48-.27 3.1 3.1 0 001-3.13 3.08 3.08 0 00.92-1c.24 4.8.54 10.88 1 14.67a120.55 120.55 0 005.27 20.39c2 4.89 4.69 9.73 7 14.75 2.86 5.94 7.61 11.1 11.22 16.73.09.19.32.55.41.74l-.25 1a5.5 5.5 0 00-.63 1.59c-.08-2.07-2.19-3.32-1.87-5.59zM27 191.73c.05-1.67-.11-3.61-.22-5.23.59 1.78 2.32 3.13 3.35 4.74a41.52 41.52 0 012.29 6.57l-.09.41c-.88-.16-1.9-.19-2.15-1.14s-1.13-.37-1.72-.59a12.85 12.85 0 00-1.46-4.76zm.7 5.07c-1 .65-2.54-.38-3.51.38h-.33c0-1.94 2.27-3.19 2.87-4.86a12.86 12.86 0 01.97 4.48zm-15.89-36c.6-.38 1.14.21 1.3.64a36.77 36.77 0 002.32 8.86c-.1.38.11.6.27.87-1-.12-2-1.35-3.08-1.73-.59-.81-2.37-1.24-1.19-2.54a16.32 16.32 0 00.76-5c-.27-.21-.19-.7-.38-1.07zm1.79 10v-.11a4.89 4.89 0 001.68 1c.81.43 1.24 1.79 2.16 1.41-2.43-3.62-3.3-8-3.84-12.26.49.15.54.69.93.86.48 4.21 2.8 8.05 5.5 11.4.11.26-.16.76.22 1-.11.17-.27.05-.38.05-.1.32.27.44.38.6.59.59-.16 1.13-.59 1.56a1.43 1.43 0 01-1.73-.75.7.7 0 01.37-1c.44-.32.82.54 1.25.26v-.26a1.94 1.94 0 00-1.57-.21c-.21.21-.59.21-.54.58a1.45 1.45 0 00.65 1.57c.65.43 1.57 0 2.16-.11-.11.75 1.14 1.3.11 1.94-.43.65.27 1.42.86 2a1.78 1.78 0 002.32-.81c.23.65.87 1.18.87 1.78l-.11-.1c-1.62.21-1.83 1.73-2.48 2.91-2.32-2.81-4.7-5.61-7.24-8.38C12.8 174 10.81 172.61 9 171l-.68-.81c.74-.43 1.85-.43 2.37-1.38 1.17-.05 1.93 1.63 2.91 2.01zm7.18 2.27a2.88 2.88 0 011.08-.43 2.36 2.36 0 01.65 1.4c-.38.43-1-.12-1.35.05-.33-.11-.76-.6-.27-.86-.06-.03-.16-.09-.11-.14zm.38 1.95c.65-.66 1.35-.06 1.73.49.21.69-.49 1-.54 1.61-.65-.1-1.62.86-1.68-.37-.43-.68.55-1.07.49-1.75zm1.84 3.8a1.25 1.25 0 01-.65 1.24 1.89 1.89 0 01-1.46-1.13.7.7 0 01.49-.92 1.08 1.08 0 011.62.81zm.32-2.17c.22-.09.38-.26.65-.26.16.43.65.75.49 1.35-.27.21-.43.7-.87.6a1.23 1.23 0 01-.27-1.69zm-3.89-37.55c.06-1.24.06-2.76-1.3-3.46.27-1.68.54-4-1-4.87a.25.25 0 00.11-.21.43.43 0 00-.6-.11c-.21 1.68-2.1 2-2.69 3.3-1 .92-2.38 1.62-2.27 3.35a19.5 19.5 0 00-1 2 3.51 3.51 0 01-.76-2.5c1.13.17 1.24-1.33 2.06-1.55.37-.66 1.13-1.36.59-2.16l-.32-.28c1.4-2.43 4.1-3.68 5.34-6.21l.81.64a1.63 1.63 0 00-1.08 1.2 1.71 1.71 0 00.6 1.62c1.24.48 2.05-.76 3.29-.76a1.65 1.65 0 00.65-1.95c-.48-.48.43-.91.43-1.46 0-1.34 1-3 .27-4.1-.06-.17-.11-.35-.16-.52l1-1.1c3-2.59 4.33-6.26 6.06-9.72.37-3 2.7-6.17 1.94-9.57.16-.16.06-.48.11-.76a1.39 1.39 0 001.13-.75c.22-.44-.06-.76-.34-1l.6-.23a4.14 4.14 0 002.06-.78 1.16 1.16 0 00.32-1.34c-.22-.33-.27-.92-.7-1a9.07 9.07 0 00.87-1.29c.91 1 .64 2.54 1.29 3.62.38 0 .59-.38.65-.7 1.08-2 1.51-4.92 2.27-7.19-.06-1.18.92-2.49-.11-3.52a4.4 4.4 0 00-1.94-4.14c0-.44.32-.93.75-1a10.35 10.35 0 013 1.46c.54.43 1.24.81 1.83.27 1.2-1 2.49 0 3.4-1.35a10 10 0 013.91-1.5 96.5 96.5 0 00-11.62 15.36c-4.22 5.57-6.77 11.57-9.56 18a91.39 91.39 0 00-5.51 18.43c-.61 3.92-1.46 7.18-1.68 10.7-.59.54-1.51.81-2.21 1.35 1.13-1.74-2.22-2.5-.49-4.22zm-6.16 15.5c-.54-.69-.11-1.78-.38-2.53h-.27c1-4-3-6.92-1.46-10.92-.16-1.94 1.25-3.51 1.63-5.51.64-.7 1.73-1.13 1.94-2.16 1.24-.27 1.78-1.46 2.27-2.42.76.8.49 1.89.76 3-.06.7-.76 1.46.1 2a3 3 0 011.09 2c-.06 1.41-1.3 2.55.27 3.64v1.56c-1.89 2.32-3.89 4.54-5.62 7-.54 1.16-.22 3.43-.33 4.34zm-7.89-16.15c.11-1.34 2.65-2.32 1.41-3.78a2.17 2.17 0 001.73-.59c1.08-1-.54-2 .7-2.93 0-.09 0-.26-.11-.31-.49.16-.59.75-1 1.08 0-.54.75-1.14.48-1.84-.53-.48-.75-1.35-1.56-1.35-.81-4.43 2.86-7 5.62-9.73.43-.86 1.08-1.94.7-2.91l1.95-1.79c.16.33.05.81.26 1.09a9.37 9.37 0 01-4.26 6c-2 2.22-3.14 5.3-1.63 8.16.12.1.22.27.38.22.81-2.6 3.62-3.51 5-5.84l.75-.7c.38.86.32 2 1.46 2.43-1.51 3.13-4.7 4.76-6.32 7.67-.6.38-.81 1.3-1.25 1.79a5.19 5.19 0 00.87 4.65c0 1-.43 1.89-.38 2.91-.21.16-.49-.27-.7 0l.27.27c-.76-.38-1.19-1.51-2.21-1.24a5.25 5.25 0 00-1.25 2.54 4.86 4.86 0 00-1.89-.87c-.43-.22-.27-.91-.38-1.4.71-.93 1.98-2.17 1.36-3.53zm-.27-.45l-.27-.33h.38zm1.24-4c-.27.12-1-.32-1 .28-.71-.16-.27-1-.44-1.51.33-.55 1.09.11 1.68 0-.02.39-.51.71-.24 1.23zm.49-4.64c.71-.1.87.71 1.3 1a1.7 1.7 0 01-1 1.67c-.27-.06-.64-.27-1-.38-.16.28-.43.54-.7.17-.27.11-.27-.28-.38-.49 0-.81 1-1.46 1.73-1.72-.17-.13-.11-.13.05-.29zm1.3 4.38c-.32.16-.71.54-1.08.26.16-.43.49-.8.37-1.35.12 0 .17.06.22.12l.11-.33c.11.38.11.06.38.38.16.18.32.66 0 .88zm7.4-10.8c-1.62 1.39-3.13 3.45-4.86 4.75a4 4 0 01-.6.75c-1.35-2-.16-4.43 1.08-6.1 1.79-1.62 4.17-3.4 4.54-5.94.43 2.23-2.81 4.66-.16 6.5zm-3.4 11.34c-.11.16-.33.22-.33.43-.32 0-.38-.48-.48-.81l.7-.75a.78.78 0 01.1 1.13zM10.57 136h-.49a.92.92 0 01.17-1c.21-.05.64-.26.59-.59h.22a1.52 1.52 0 01-.49 1.59zm-2.16 6.43c.59.38.81 1.24 1.57 1 .48.69.37 1.72.7 2.7.75 2 1.89 4.16 1.13 6.58-1.89-2.81-1.4-6.53-5.24-8.25.92-.56.49-2.46 1.84-2.01zm10.81-15.18l.1.49c.38.22.92.69.6 1.24a1.66 1.66 0 01-1.89.37 1.72 1.72 0 01-.17-1.45c.38-.42.98-.25 1.36-.63zm1.67 1.09c-.06-.55.43-.6.54-1a.89.89 0 010 1c-.27.17-.49.48-.86.43l-.27-.91h.27c-.11.33.21.33.32.5zM25.64 111c.92-1.39 2.76-2.38 2.81-4.27a3.08 3.08 0 01.7-.75l-.1-.11.16-.21c-.92-1.35 1.4-2.54.11-3.57-1 .06-2.11.6-3.19.64.86-2.7 0-5.29-.38-7.94-.33-1.18-1.35-.27-2.05-.7-.35 0-.74-.35-1.07-.51l-1.08.09a34.52 34.52 0 01-.77-3.74 8.22 8.22 0 003.08 1.84c-.21.54.38.7.6 1.08h.21c.16-2.81-1.13-5.24-.37-8 .68-.51 1.81-.41 2.82-.54v.42c-.94 1.93-.07 4.41-.22 6.55.48 1.35.27 3.4.59 4.87.16.32.59.75 1 .58a3.87 3.87 0 00.37-1.45c0-4.58 1.68-8.91 3.41-13 1.57 1.08-.76 2-.65 3.25-1.89 4.1-2.16 8.1-1.68 12.8.17.21.11.55.38.7h.11a.22.22 0 01.11 0c0-1 .11-.91 1-1.29a1.3 1.3 0 01.64 1.09.75.75 0 01-.48.8c-.22-.27.16-1.18-.49-1.18l-.26.87c-.13-.1-.23-.28-.38-.29h-.17c-.27.28.38.49.38.76-.54 1.3.64 2.48.11 3.88-1.46 4.6-2.76 8.87-5.14 13-.82 1-1.91 2.1-2.72 3.09l-.68.77a19.71 19.71 0 00-.92-3.92c2-1.45 1.73-4.61 4.21-5.61zm-4.48 5.25a19 19 0 00-2.65-2.92c1.68-.27 3.35.22 4.81-.75a11.64 11.64 0 01-2.16 3.67zm2.32-19a8.11 8.11 0 01-1.73-3l.6-.17a3.94 3.94 0 002.59.56c.86 2 .76 4.87.86 6.92.17 1.84-2 1.24-2.91 2.32-2.16 1.9-3.73 4.17-5.73 6.33 1.51-3.3 4.65-5.4 5.73-8.87a5.11 5.11 0 00.59-4.06zm4.15-12.2l.23-.93a22.15 22.15 0 013.41-1.63c-1.63 4.22-3.25 8.6-3.08 13.4-.42-3.35-1.19-7.2-.56-10.81zm4.61 1.34c.92 0 .27.7.32 1.13-.48 1.84 1.57 1.84 1.25 3.62l.26.38a1.42 1.42 0 00-1.46 0v.11c-.48 0-1.18-.11-1.51.59a2.21 2.21 0 00.17 1.84 1.45 1.45 0 00-.49 1.25l.11.09-.71.39c.27-3.31.49-7.08 2.06-10.11l.59-1.35c-.27.67.27 1.77-.59 2.09zm-.76 8.26c.38-.31.92-1.18 1.13-.31a2.19 2.19 0 01-.61 1.58.85.85 0 01-.52-1.24zm.11 2.6c-.27.22-.7.11-1 .11a1.4 1.4 0 01.27-1.56c.35.5 1.14.88.73 1.48zm.75-.27a2 2 0 01.11-1c.27-.11.16.16.27.27-.11.27.22.33.33.48h.27c0-.69-.11-1.39.49-1.94.42 0 .75.49.85.81s.22 1-.1 1.24a3 3 0 01-1.58.6l-.87.29c-.17-.18-.2-.43.23-.73zm2.22-2.92l-1.24.49c-.11-.43-.38-1-.87-1.08s-.86.32-.86-.38a.75.75 0 01.49-1c.81 0 .26 2 1.24 1.19a2.48 2.48 0 00-.6-1.46c.82-.38 1.41.16 2 .64a1.17 1.17 0 01-.16 1.63zm8.7-26.53c-.37.71-1.12.55-1.7.71l-1 .37c-.13-.42-.21-1.36-.46-1.61l3.29-1.27a11.81 11.81 0 013.67-.36.27.27 0 01-.11.21c-.92 1.46-2.76.65-3.79 1.84zm-2.38 1.62l.87-.5c.24 0 .48-.12.7-.15a4.56 4.56 0 013.4-1.5c.81-1.55 2.27-.75 3.63-1 2.05-1.3 4.1.82 6.21.17.86 0 1.89-.49 2.65.11-1.79 1.83-3.68 5-6.32 5.67-2.71 1.45-6 1-8.71 2.21-2.75.17-3.83 2.81-5.73 4.38-.48-.22-1.18.48-1.61-.22 1.84-2.76 4.59-5.46 4.91-9.14zm14.92.87l3.08-3.46c-.27-1.41-2-.7-3-.92a11.44 11.44 0 01-4.37-.53c-.22.42-.49-.18-.81-.12a5 5 0 01-3.19.38c1.84-.82 5-.11 7.29-.38a19.74 19.74 0 012.92.38l1.14.1c.27.92 1.4 1.08 2.27 1.24 1.51.38 1.08-2.11 2.54-1.13l.16-.33c.21.06.38.38.59.12A2.33 2.33 0 0066 64.05c-.38-.43.22-.6.49-.71.53-.1 1.29-.38 1.35-1.09l.1-.15 5.77-1a115.31 115.31 0 00-17.65 13.05c-.86-.16-1.06.74-1.65 1.12-.5-.76-1.81.07-2.72-.25-.22-.11-.6-.11-.65-.38-.32 0-.75-.32-1.19-.39-.21-.32-.65-.48-.7-.86 2.54-.86 4.85-1.24 6.65-3.34zm6.43-4.91c.05.53-.38.81-.81 1-.82 0-1.25.06-1.84-.49a1.42 1.42 0 011-1.08 1.88 1.88 0 011.65.6zm-.43-.93l.32-.27.11.27zm-2.63.67l-.67-.07a3.6 3.6 0 002-1.34l.11.37a3.57 3.57 0 00-1.44 1.07zm6.13-.94a1.31 1.31 0 01-.75.86 4.38 4.38 0 01-1.46.12c.06-.44-.59-.66-.22-1.09.71-.23 2.06-.72 2.43.14zm.6-2.06a1.25 1.25 0 011.35.11c-.16.6-.59.7-1.08 1-.27-.05-.7.12-.75-.27-.12 0-.17.06-.22.06-.27-.38.43-.75.7-.87zm36-16.2c-.54.58-.27 1.78-1.35 1.94l-.6 1c.65 1.14 1.46-.21 2.44.38 2 .78.19 1 .19 1-7.63 1.4-12 3.34-19.16 5.88.86-.76 2-1.51 2.92-2.17a23.26 23.26 0 005.35-5c6.16.66 9.78-6.58 15.67-7.46a2.32 2.32 0 001 .06c-1.95.82-4.22.92-5.73 2.38.02.83-.96 1.15-.74 2.02zm12.1 1.94c-1.28.4-3.35.46-4.59.73 1.78-.43 1.47-2.21 3.31-2.6.86-1-.17-2.42 1-3.39-.17 2.59 3 1.94 3.67 3.88.54.22 2.64.25 3.12.62-1.99.17-4.64.62-6.51.76zM113.34 36a39.64 39.64 0 00-1.51-4.33c.76-.48 1.73-.21 2.7-.53a8.25 8.25 0 001.73-.22c-1.51.27-1.46 2.27-2.59 2.7-.67.55-.33 1.68-.33 2.38zm3.25-5.68c-1.79-.37-3.57.6-5.25.71a7 7 0 00-4.21-2.54c4.05 0 7.62-.87 11.57-.38a10.05 10.05 0 00-2.11 2.16zM40.34 69.18c-.54 3.52-3 6-4.86 9-.49.59-1.08 0-1.67-.22a13.29 13.29 0 01-1.36-3.4l-.35-2.14c.12-.72 0-1.45.14-2.24.54-2.87 3.78-5 5.94-6.91h.22c.75 1.91 1.08 4.01 1.94 5.91zm-7.62 8a4.48 4.48 0 00-2-.71L32 75c.34.61.34 1.53.72 2.18zm-2.8.11c1.94-.6 3 1.67 5 1.35.38.65 1.35.31 1.94.65 2.93-.5 3.36-4.6 6.49-4.76 2-.21 4.65-1.78 6.54.21.7.17 1.18.86 2 .86.32-.09 1 .17 1.09-.1a.34.34 0 010-.17.34.34 0 010 .17.14.14 0 00.1.1l.1-.17h-.05l.11-.06-.06.1c.17.14.4.07.54.07A13.88 13.88 0 0150.45 79a7.66 7.66 0 00-4.7 2c-1 .56-2.38-.37-3 1-1.14-.77-2.44-1.2-3.52-2a3.33 3.33 0 00-1.56.15 1.86 1.86 0 00-.76 1.41A4.31 4.31 0 0139.05 86c.7 1-.06 2.43-.11 3.67-.94 2.2-.81 4.33-1.94 6.48A9.5 9.5 0 0034.51 91c-.49-1-.22-1.67-1.19-2.43a26.29 26.29 0 01.22-5c.16-.1.16-.31.27-.48l-.27-.32c-.06.16-.22.11-.33.11a1.85 1.85 0 00-.86-1.14 6.3 6.3 0 00-3.51 1.24 4.16 4.16 0 00-1.14.49A32 32 0 0021.44 85l-1.14-.21c1.95-3.45 4.97-8.1 9.62-7.5zm-8.16 8.27c.64-.06 1.24-.55 1.83-.49-.49.33-.16 4.27.22 6a7.51 7.51 0 01-3.73-2.92c-.16 0-.11-.23-.11-.6a12.79 12.79 0 011.19-2.21c.22 0 .49-.06.6.22zM6.19 124.94c.54-.8.38-1.89 1.24-2.54.65.17 1.3.17 1.57-.48s-.43-1.79.7-2c2.05-.06 1.67-2.54 3-3.62.43 1-.27 2.49-.86 3.24-3.13 2.27-5.56 5.29-5.35 9.34l-1.62 1.36c1-1.67-.25-4.55 1.32-5.3zM6 134.67c.48.27.48.75.59 1.13l-.38.6-.11-.11c-.43.43-.7 1-1.35.87-.75-.38-.27-1.41-.21-2a3.52 3.52 0 011.46-.49zm-1.63 3.4c.54.05.38.81.54 1.25a3.2 3.2 0 01-.91 1.56c.14-1.07.25-1.88.35-2.81zm.88 35.4c1.13.05 1.94-.92 2.43-1.95a1.64 1.64 0 01.28-1l.86.62c2.28 2.48 5.15 4.28 7.28 6.82a61.88 61.88 0 004.86 5.62c2.16 1.84-1.45 1.24-1.51 2.54.27 1.62-.48 3.35-.48 5.13a7 7 0 01.75 1.57c0 .37.38.92.11 1.18l-1.46-1.39c-.38-3 1.14-6.54.16-9.9-.75-1.12-1.83-1.89-2.21-3.24-.76-2.05-2.7-1.51-4.11-2.7-.86-2.21-3.4-2.16-4.43-4.27-.7.28-.6 1.36-1.19 1.95a1.94 1.94 0 00.59 1.73c.28.65-.08 1-.49 1.37l-.49-.91c-.5-1.03-1.31-1.93-.97-3.17zm2.32 4c.86-1.5-1.52-2.74.1-4.1 1.35 1.4 3.51 2.38 4.65 4.16 3.46-.27 3.46 3.68 5.73 5.3.91 2.81-.38 5.83-.38 9 .16 1.46 2.54 1.89 2.16 3.51-.59-.27-.86-1-1.3-1.45-1.35-2.23-4.59-.34-5.51-3.13-2.48-2.55-5.08-5.09-5-8.76-.26-1.45-2.15-3.4-.47-4.54zm11.94 18.48c-1.25-.05-2.38-1.51-2.82-2.53H17c.06.49.65.15.86.59a9.27 9.27 0 001.63 1.93zm11.13 12.33c-.33 1.35-.06 3.29-1.3 4.21-1.57-2.53-1.46-5.78-3.19-8.21l-1.78-3c1.19.28 1.24 1.57 2.27 2.23 1 2.16 4.36 2.43 3.98 4.76zm-4.87 5.94c-.38-.05-1.29.27-1.29-.48-.16-.49.27-.76.37-1.2s.49.33.49-.16a1 1 0 01.81.6c-.07.53.15.9-.4 1.23zm.49 1.25c-.22-.39-.76-.49-1.19-.55a1.29 1.29 0 001.08-.32c.15.26.04.58.09.86zm-1.94-3.41v.22l-.44-.49c.33-.22.65-.37.81-.75l.16.64c-.18.1-.45.16-.55.37zm-.22-3.46c-.38-.11-.65-.43-1.08-.33l-.6.71c-.91-1 .92-1.63.33-2.53a10.75 10.75 0 00-1-2.06c-.11-.27-.11-.82-.39-1.14l-.1-1.67c1.89.86 2.59 3.13 3.51 4.87.49 1.77 1.35 3.39 1.24 5.45-1.23-.9-.01-2.9-1.93-3.31zm-1.84 1.24c.06-.69.59-.59 1.08-.86a1.17 1.17 0 011 .86 1.47 1.47 0 01-.82 1.58c-.32.1-.65-.33-.86.1-.66-.28-.53-1.14-.42-1.69zm.65 3.62c.05-.48.38-1 .11-1.45a.93.93 0 01.7.53c-.05.66.11 1-.33 1.47-.37.1-.7.69-1.13.31-.07-.32.41-.59.63-.87zm.21 1.73c.22-.86 1.57-.11 1.57.59.22.66-1 .66-1 1.47-.37-.55-1.07-1.31-.59-2.07zm3.41 4c0 .15.16.21.11.37-.11 0-.27 0-.32-.11zM51 244.74v-.26a39.72 39.72 0 0011.83 1.34c-1.18.27-2.27.16-3.29.87a1.32 1.32 0 00-.86-.75c-.82-.06-2-.39-2.66.15a2.07 2.07 0 00-.59 2.16c.87.6 1.46 1.29 2.54.86.71-.21.6 1.09 1.35 1.19l.11 1.14c-1.62-.76-3.08-1.9-4.65-2.7-.43 0-.86-.54-1.46-.49-1-1.13-2.21-1.84-3-3.13.34.16.5-.22.68-.38zm8 2a3 3 0 01-1.09 1.85 1.53 1.53 0 01-1.94-.77c-.33-.48.22-1.08.7-1.35a1.77 1.77 0 011.46-.1c.15.42.59.21.87.42zm.1 2.44c-.21-.93.76-1 .76-1.84a2.54 2.54 0 011.3-.33.45.45 0 000 .7 1 1 0 011.13.6c.38.75-.54 1.18-1 1.56h-1a.26.26 0 00-.11-.21c-.44.65-.87-.16-1.09-.43zm48 21.77a3 3 0 01.81-1.83 7.87 7.87 0 014.53-1.35l.81-.33c0 .11-.54.16-.7.48.6.22 1.14-.58 1.68-.64-.05-.59.43-1.14.38-1.84.37-.11.86.27 1.07 0 0-.33.55-.22.55-.59-2.87-3.08-5.35-7.56-9.13-9.35a26.65 26.65 0 01-2.7-1.08 5.18 5.18 0 011.62 0c1.62-.17 2.64 1.08 4.1 1.19a17.09 17.09 0 013.3 2.91h.22l-.11.11 1.08 1.46a6.39 6.39 0 002.32 5.13c.22-.32-.37-.92-.59-1.35-1.46-1.72-1.35-4.86-.49-6.81 1.3-1 2.54-2 4.21-2.15.65 1.45 2.6 2.48 2.11 4.26a19.2 19.2 0 00-1.07 2l.11.12c-.33.1-.17.43-.17.69.59.28.54-.65 1-.91.11-1.73 2.54-1.24 2.59-3a11.8 11.8 0 002.76-1.68 46.36 46.36 0 016.1-1.56c-.1 2.64-2.16 4.76-2.91 7.18-2 3.51-6.33 3.08-9.46 3.41a1.87 1.87 0 00-1.24 1.07c.75.28 1.67-.16 2.43.39a11.26 11.26 0 012.32 1.18c1.52.92 1.57 3 3.14 4.11l-.11.05c.1.11.32.53.1.81-2.31-.11-4.86.22-7.18-.32-1.35-.49-1.78-1.95-2.65-2.92-1.23.49-1.5 2.64-2.69 2.38h-4c-.76-.22-1.84.05-2.27-.6-.76.35-1.25-.25-1.84-.57zm17.24-5c-1.08.81-2 .32-2.92.16.65-.27 1.73.16 2.54-.38zm1.53 2.78l2.6-.73a5.08 5.08 0 013.43 1.35c-.21.33-1.08.7-1.08 1.46s.65 1 .81 1.72c-1.24.49-2.11-.1-3.29-.21-.92-1.05-1.55-2.42-2.44-3.56zm5.87 1.59c.65-.64 1.35-.48 2.11-.48.43 1-1 .65-1.46 1.13-.17-.11-.54.11-.6.38-.61-.13.09-.73-.02-1zm1.26 1.98l.11-.11c-.21-.27-.54-.27-.81-.38.6-.59 1.4-.48 1.94-1.08a.61.61 0 01.82.6c.27 1.13-1.36.92-1.95 1.45-.38-.32-.7-.16-1-.59.31 0 .63.37.89.11zm45.13-17.3a1.73 1.73 0 011-2 3.18 3.18 0 011.34 1.18c0 .6-.54 1.3-1.24.87-.29-.15-.72-.05-1.1-.05zm1.08.69c-.1.17-.32.06-.48.11v-.21zm.27.6c.22.05.32-.17.48-.22v-.21a.41.41 0 01.33.48c-2.32 2.11-4.32 4.7-7.4 5.35-1.95 1.35-4.7.81-6.81.11-.54 1.08-1.4-.05-2.16 0a16.49 16.49 0 00-6.38.86c2.06-1.29 4.6-3.4 7-4.64 2.65-1.62 4.76-4.11 8.27-3.51l2.16.37c.6 1 1.9.22 2.6.59.35.83 1.15.78 1.91.78zm-15.13-4.33c.6-.43 1.73-.11 2.11-.75v.11a18.39 18.39 0 015.68.27l2.1 2.54c-.54 0-2.16-.33-3-.27-3 .37-5.67 2.92-8.64 4.44 1.16-2 2.18-3.94 1.75-6.38zm9.13.32c.27.45 1.2.66 1.14 1.26-.54-.31-.81-.91-1.14-1.3zm3.19 2.33a4 4 0 01-1.35-.7v-.37c.16.21 0-.75 0-.75.27-.28.22-.77.7-.88h.29l.58.73a.5.5 0 01.65.38 1.94 1.94 0 01-.87 1.55zm-21.5 7.31c-.27.43-.65 0-1 0 0-1.13.21-2.15-.54-3.19a6.29 6.29 0 00-3.84-1.94c.86-.27 1.4-1 2.37-1.29l.06.1a11.47 11.47 0 011.78-.76c.6-.27 1.57-.22 2.11-.8-2.29 2.21-.73 4.96-.94 7.84zm-16 2.9l-.65-.69c.22 0 .32.54.59.22 0-.65-.7-.61-1.08-.87-.59-.12-1.08.43-1.46.65l-.32-.39a22.82 22.82 0 006.65-3.56c1.57.38 2.1 2 3.4 2.81.17-.1.49.22.65.28-2.92.31-5.08 2.42-8 2.79.44-.3.33-.9.17-1.28zm-2.11-.21c.71-1.13 1.14.21 1.62.49v.43c-.32.22-1 .75-1.45.27a1.18 1.18 0 01-.23-1.23zm.11 1.67c-.27 0-.43.17-.7.12l.21-.49a1.58 1.58 0 01.49.37zm-1.08-.48c-.49.43-.92.82-1.57.38s-.11-1.13.11-1.62l.65-.6.11.11.11-.11c.5.35 1.02 1.16.5 1.8zm6.81 3.14c.05-.27.1-.65.59-.7a.62.62 0 01.54.58c.44.55-.27 1.2-.65 1.57-.27-.05-.43.17-.7.06a1.55 1.55 0 00-.86-1.46c0-.27.27-.44.48-.66.01.13.17.67.55.57zm1.35-.93l.49.6-.11.6zm37.12-12.84h.49c.45.8 1.53 1.5.1 2.22-.43.05-.92 0-1-.5.45-.8-.4-1.51.36-1.76zm2.38-1.63c.16-.23.43-.38.65-.17a.84.84 0 01.48 1.24 1.94 1.94 0 01-1.73 1.19 1.91 1.91 0 00-.7-1.29 1.89 1.89 0 011.08-1.46c-.27.12-.05.45.17.45zm1.83 1.29l.78-1 .58-.06c0 .64 1.57.65.86 1.74a1.76 1.76 0 01-1.73.81c-.7-.32-.7-1.05-.54-1.53zm6.7-4.1l-1.24.22c.54-.65 1.79-1.31 2.11-2.27a9.92 9.92 0 005.46-1.09h.37a10.79 10.79 0 01-6.75 3.1zm5.25-3.19c-1.3.32-2.65 1-4.16.53 1.24-1.56.86-3.67 1.08-5.4.7.7.86 1.73 1.62 2.22-.27.16.11.32.11.48.21.22.7.65 1.07.49a17.8 17.8 0 003.75.14v-.09c.11 0 .32-.12.37.09-.75.22-1.4 1.41-2.21 1-.39.5-1.52-.53-1.68.5zm2.37-2v-.09c-1-.13-2.11.21-3-.34-1.19-1-1.24-2.37-2.33-3.39-1.35.64-.75 2.15-.91 3.34a7.85 7.85 0 01-2.11 4.53c-1 .28-1.18 1.89-2.27 1.37-.81-.6-.75-1.74-.75-2.61l.11.12c.16-.12.05-.27.1-.44-.21 0-.43-.33-.59-.05-1-1 .76-1.14.59-1.89l.06.11c.05-.27.37-.49.11-.75l2.26-1.31c0-.21 0-.53-.32-.53-.11 0-.32-.11-.38 0 0 .43-.59.43-.86.59.76-1.35 3.67-1.14 2.7-3.07-1.62.37-3.3 1.44-4.86 2-.33-.65-.71.33-1.14.33-1.51-.28-2.7-1.73-4.32-1.2a2 2 0 00-1.51-.37l-.22.22h.11c-.43.05.11.27-.22.43l-.65-.11c.22.06.38-.1.54-.22-.52-.11-.74-1-1.19-1.22l-1.12-.12a33.33 33.33 0 013.78-2.16 4.37 4.37 0 002.38 0c.8-1.29 2.69-1.08 3.93-1 1.46.81 3.19.38 4.49 1.41.49-.17.87.65 1.3.06-1.36-1.73-2.92-4.22-1.57-6.6a4.19 4.19 0 012.32-1.84c1.84-1.4 2.22-3.45 4-4.75l.27 5.41c-.32 2.92-2.16 5.19-3.51 7.61.7.48.81-.53 1.3-.87.91-2.15 2.8-4.16 3-6.8a3.88 3.88 0 00.65-3.24c2-1.35 1.56-4.39 4.21-5.35 1.73-1.35 3.94-1.89 5.51-3.3-.59 1.35.87 3.36-.86 4.48-.11 1.52 1.19 2.71-.38 3.9a7.81 7.81 0 01-3.78 6.92c-1.79.47-3.41 1.72-5.19 1.93-1.13.87-2.11 2-3.3 2.44-.32.43-1.73.22-1.18 1 .48.32.81-.28 1.29-.28l-.48.49c.37.59.86-.44 1.34-.49.82-1.46 2.22 0 3.3-.48.92-.21 1.89-.81 2.76-.59.48.48.64 1 1.24 1.45-.27.11-.21.48-.27.7.22.28.6-.05.65-.33.49 0 .75.5 1.08.71-.65 1.79-2.06 2.81-3.62 3.88-.93.36-1.68.14-2.54.36zm6-10.64l.87-.75a5.75 5.75 0 01-.28 1.09zm-2.21 3a1.16 1.16 0 00.65.86 1.53 1.53 0 001.29-.17 10.89 10.89 0 01-.59 1.25c-.81-.65-1.46-2.28-2.81-1.63-.87.32-1.89 1-2.65.54h-1.46c1.51-1.78 4-1.78 6.05-2.92a2.26 2.26 0 00-.53 2.11zm1.62.31h-1c-.06-.69-.28-1.4.21-1.94.6-.32.7-1.19 1.57-.7l.27.38c-.19.75.03 2.05-1.1 2.3zm28.69-51c-2 2.37-5 3.46-6 6.54a17.28 17.28 0 00-.86 4.37 32.82 32.82 0 01-2.06-3.51.56.56 0 01.65-.49c.92-1 1.67-2.7 3.14-3 1.41-1.66 3.51-2.47 5.13-3.87zm-18.42 34.89c-.65-.33-1.19.48-1.62.76l-.22.86c-.1-.27-.21-2.05-.27-2.92 1.62.17 3-.86 4.54-1.35a26.84 26.84 0 00-1.73 4.22l-.38-.6c.11.06.17-.1.27-.21a1.16 1.16 0 00-.59-.76zm.21 2.05c0 .6-.54.92-1 1.14a2.91 2.91 0 01-.32-2.22l.32-.32a.28.28 0 01-.11.22c.57.16.84.75 1.11 1.18zm1-5c-1 .53-2.22 1.35-3.3 1 1-2.43.76-5.95 3.57-7.41a2.61 2.61 0 011.57-1.83c1.4-.39 3.61-1.19 4.64.11-1.27 3.08-2.99 7.08-6.5 8.17zm6.32-9.15c-1.73-.85-3.78.28-5.24.49l-.49.39a18 18 0 011.84-6.65c.7 2.27 2.75 3.51 3.89 5.45zM220 222.49c.27 0 .6.15.6.48-.38.91.06 2-1.24 2.32-.75-1.03.32-1.84.64-2.8zm-1.34 4.64c-.6.27-.87 1.24-1.57.59-.06-1 1.08-1.41 1.57-2.1.54.38.11 1.07-.05 1.51zm-7.46 10.64c.2-.47.59-.65.54-1.29.11-.12.32-.22.32-.38l-.43.26c-.05-.75.65-1.89.49-2.81.53-.58 1.07-1.77 1.94-2.1a8.34 8.34 0 012.43-3.73c-.32 1 1.68.49.81 1.57-.22.49.21 1.3.16 1.35.16.27.27.06.43.21-1.49 2.74-4.13 4.38-6.06 6.68l-.63.24zm6.86-9.24a8.29 8.29 0 011.35.49c-.38.53-.86.86-1.24 1.46a1.81 1.81 0 01-.17-1.95zm.7-.32l.49-.87c.38.06.65.6 1.13.38l-.49.81c-.42-.44-.75-.06-1.18-.32zm1.24-1.13c-.32-.39.11-.87.49-.93.44.28.38.6.11.93zm.87-2.28c.7-.05.54.87.7 1.08-.11.06-.11.22-.11.27-.26-.38-1.29-.7-.64-1.35zm26-36.19a57.65 57.65 0 01-5 11.89c-.11.19-.66 1.6-.81 1.8l-1.24-1.24c-.22-.11-.65.21-1 0 .22-1 .71-2 1-3 1.94-5.84 4.32-11.51 5.83-17.19a16.07 16.07 0 00.6-2.39l.41-1.05A1.84 1.84 0 00248 177c.22-.54 1.14-1.14.65-1.84-1.63-1.33-1.17-3.31-1.33-5l.67-1.69a13.15 13.15 0 00.29-4.85 9.4 9.4 0 001.18-4.59c-.21-1-1.13-2.17-.48-2.92a26.24 26.24 0 00.54-10.59 2.3 2.3 0 001-2.43c-.38-1.08-.17-2.27-1.51-2.54-.22-.22-.49-.38-.49-.65 1.13-1 .65-2.31.54-3.51a7.15 7.15 0 00-.08-1.95v-1.23c.22-.07.45-.16.69-.22a16.81 16.81 0 00-.1-4.64c-1.19-.81.37-1.9-.54-2.92-.6-.27-1-.86-1.68-.81-1.24-1.14-2.48.53-3.78.1.92-.64 1.62-1.78 2.54-2.54-.33-1.08.54-2 .38-3.18a9.25 9.25 0 00-.71-.6c.38-.8.82-2 .22-2.92-1.57-1-.54-2.91-1.67-4a6.25 6.25 0 00-2.3-1 3 3 0 00-.62-1.4c-.69-4.67-3-8.71-4.66-13l-1.07-1.8c-.64-.71-.48-1.19-1-1.84s-1.08-1.67-1.67-2.49c.16-1.13-.87-1.4-1.46-2.05.05 0 .16-.11.1-.22a.41.41 0 00-.48-.16 15.48 15.48 0 01-2.32-4.81c-.78-.31-1.09-1.24-1.49-2l-.59-.8a3.24 3.24 0 00-.44-2.09c-1.73-.49-.6-2.87-2.22-3.41-1.35.43-.54-1.46-1.57-1.9-2 .49-1.5-1.78-2.91-2.32-1 0-1.51-1.35-2.22-1.83-4.32-4.86-9.24-9-14-13.51v-.37c-1-1.41-2.49-2.23-3.67-3.25-1-1.24-2.71-.33-3.52-1.57-.76-.35-1.49-1.17-2.18-1.49l-1.37-.74a5.83 5.83 0 00-4-3.6 10.89 10.89 0 00-5-2.11c-.44.11-.28.54-.6.76-4.05-2.11-8.37-3.95-12.43-5.73-1.07-.11-1-1.62-2-1.84-1 .17-1-1.07-1.67-1.35a1.51 1.51 0 00-1.62.75c-.11.6-.28 1.42.27 1.85-1.57.64-.38-1.19-.87-1.62-.21-.81-1-1.19-1.72-1.56a10.94 10.94 0 00-6.27-.88s-1.38-.35-2-.48-2.77-.48-2.77-.48a9 9 0 00-7.4-3.25c-.65.11-1.14-.76-1.73-.27a4.17 4.17 0 01-.11 2.11c-1.57-.92-3.68-.87-5.24-1.51A43.89 43.89 0 00127.29 27c-.37 0-.31.49-.31.6a15.74 15.74 0 00-4.17 0c-1.24 1.35-1.72-.23-3.43.13h-.45c-3.9-.65-8.67.16-12.7.56l-1.65.18a13.66 13.66 0 00-1.42.45c-1.73.48-1.89.45-2.49 1l-1.06.08a28.6 28.6 0 00-3.54.73 34.52 34.52 0 00-4.48 1.68 82.28 82.28 0 00-13.89 5 4.69 4.69 0 01-.9.4l-.89.46c-.09-.47-.87-.12-1.12-.22l.1-.64c-.43-1.63-1.45.54-2.15 0-.76 1.36-2.38.87-2.65 2.54-2-.8-.44 1.79-2 1.84-1.52.54-2.81 1.62-4.32 2.16-.6 2.32-3.68.22-4.76 2.32-2.11-.21-2.59 1.84-3.89 2.92-1.08.92-1.95 1.41-2.43 2.44.32 0 .7-.06 1 .1a56.18 56.18 0 00-7.51 4.42l-1.49.87a4.21 4.21 0 00-.61.16A1.72 1.72 0 0043 58.8c-3.3 3.46-8.33 5.94-10.86 10-.38.43-.11 1.51-.71 1.73 0 0-.1 0-.1-.16a3.25 3.25 0 00-1.25 1.35c-3.78 3-5.94 7-9.24 10.32 0 .16-.11.43.11.59-.38 1.14-1.35 2-1.4 3.3l.7-.81.27.32c-.65 1.14-.92 2.6-2.11 3.3a63.47 63.47 0 01-3.29 6.8c-.22.65-.27 1.46-.81 1.84l-.49-1a10.43 10.43 0 00-1.84 2c.12 1.56-1.94 2.21-1.45 3.89-.7 1.13-.27 2.59-.87 3.89 1.08 2.26-.86 4.31-1.19 6.43.17.91-1.24 1.29-1.73 1.94.29 1.2-.86 1.51-1.52 2.12-.09.37-.2.73-.29 1.1.62 1.46.33 3.21.74 4.83-.6 2.92-.71 5.79-1.2 8.58.49 2.33-1.23 4.27-.37 6.71a10.89 10.89 0 00-.38 5.72c-.27 1.3-.59 2.81-.86 4.22a4 4 0 01.16 3c-.05 2.76-.38 5.35.33 8a22.61 22.61 0 001.12 7.66c.49 1.85-.91 3.58.11 5.25.71.27.22 1 .49 1.41-.74 1.29.22 2.66.88 3.84l.28 1.03a39.55 39.55 0 001.35 4.38c-.27 1.51.7 3 1.45 4.31l-.27.17c-.42.22-.11.38-.32.69 1.08 3.3 1.24 7 2.92 10 .43.38.53 1.45 1.29 1.18.27.17.27.32.06.6 1.08 1.84 1.51 4 2.27 6 1.35 1.51.81 3.4 2.21 4.86a6 6 0 012.81 3.14 2.75 2.75 0 001.84-2.17 5.28 5.28 0 01.75.87 8.25 8.25 0 00-1.08 2.16c1.18 1.08.43 2.8 1.94 3.61.17 1.79 2.22 1.51 3.25 2.49.16 2.22 1.23 4.76 3.56 5.78l.43 1.84c.49.91 1.46 1.08 2.11 1.73-.22 1.73 1.78 1.5 2.76 2.05.75.87 1.94 1.46 2.48 2.32 1.46.71 2.49 2.32 3.84 3.3-.49 2.32 3.51 3 2.43 5.45.49.92 1.24.22 2 .32l1.18 1.15a1.38 1.38 0 00.86.37 2.76 2.76 0 001.79.49.28.28 0 01-.11.22c.65 1.29 2.11 2.1 3 3.18.76.44 1.46 1.19 2.32 1.08 2.38 1.36 4.7 3.14 7.08 4.38a7.84 7.84 0 012.57 1.67c1 .37 1.57 1.67 2.69 2.06 3.9.16 4.54 4.86 8.11 5.34.22.27.81.17 1.13.49 1.73-.17 3.09.26 4.6 0l-.11.05c.92 1.19 2.54 1.36 3.62 2.05l-.11.11a1.47 1.47 0 001 1 19 19 0 012.54 1.08c1.68.81 2.71.59 4.49.75.54.33.86 1.63 1.73.87.75.54 1.78.59 2.42 1.08a50.75 50.75 0 009.51 1.95c.39-.38 1.09.15 1.47-.28 2.64.8 5.29.59 8.26.49.71-.55.87-1.45 1.57-2.06 1 1.73 2.27 3.25 4.38 3 .53-.16 1.08.37 1.35-.1 1.35.42 2.48-.06 3.83.1a1 1 0 001-.81c.8.15 2.16.32 2.16.32.32-.17 1-.11 1.35-.38.43-.05.81.44 1 .49l.86-.11c.33-.26.87-.26 1.09-.38.16.06.27-.1.37-.22.33.34.87.17 1.3.22 1.19.71 2.59.27 3.78-.1.16 0 .27-.21.48 0 2.27.26 4.38-.38 6.7-1 .6-.26 1.19-.26 1.68-.47 1.08-.18 2.43 0 3.51-.88v.06l.44-.38c1.89 0 3.73-1.51 5.83-1.46 1.84-.75 3.73.71 5.51-.48a21.61 21.61 0 002.32-.6 4.24 4.24 0 003.89-1.84 1.12 1.12 0 00-.27-1.56c1.79-1 4.11-1 5.62-2.32a32.32 32.32 0 007.3-3.51l.11.32c.05.38.32.21.38.49.91.37 1.24-.49 1.89-1 .11-.37.43-1.08-.11-1.29a2.8 2.8 0 001.94-.38c.38-.38 1.19-1 .87-1.73h.11c.16 0 .05.27.1.38s.38.59.75.59c.87-.27.81-1 .76-1.67 2.76-1.57 5.84-3 8.27-5.51 3.94-2.38 8.1-5.25 10.81-8.38l-.11-.11a2.76 2.76 0 001.66-1.57l1.29-.65c3.1-2.74 5.95-6.31 8.56-9.07.11-.26 0-.48.27-.6.05-.48.32-.48.32-1l.64.59c.38-.06.92.16 1.2-.16.48-.7 1.4-.87 1.07-1.94-.32-.32-.7-.82-1.07-.6-.55-.76.59-1 .64-1.78 0-.17.18-.32.31-.49l.66-.44c.16.26.32.51.49.76.43.33.81-.15 1.08-.32 1.73-1.67 1.57-3 1.67-5.13 1.08-1.46 1.57-3.25 2.7-4.59.6-2 2.92-2.33 4.38-3.46a58.44 58.44 0 014.65-4.53c-.9 1.68-4.68 8.16-4.68 8.16-1.45 2.91-11.44 18-27.29 32-2.33 2.66-15.05 11.33-19.09 13.33a171 171 0 01-20.71 10.18 122.2 122.2 0 01-33.69 7.39c-22.81.74-35.13-2.63-42.14-4.78a105.17 105.17 0 01-26.69-10.55 106.61 106.61 0 01-23.14-16.48s-8.56-7.65-11.6-11.77c-9.3-10.38-15.15-21.82-19.93-33.17a153.76 153.76 0 01-7.38-25.94c-.81-8-2.2-14.9-2-22.41C.56 141.87 3 127.64 4 122.34c.22-1.53.54-3.07.92-4.61 0-.1-.08-.21-.13-.31a1.23 1.23 0 01.42-.79c1.11-4.14 2.61-8.2 3.74-11.68 3.43-8.2 3.88-11.35 11.53-23.69 1.62-4.14 13.33-18.37 20-24.42 0 0 9.33-8.72 16.44-13 6.49-4.49 13.2-7.55 20.17-10.79 8.56-3.6 15.81-5.3 25-7 5.19-1.31 9.91-1.72 18.1-2.34 4 0 7.65-.09 11.26.08a121.88 121.88 0 0121 2.88 139.84 139.84 0 0114.41 4c12 4.5 23.41 10.44 27.56 13.5 2.65 2 10.18 6.49 15.85 11.77a116.93 116.93 0 0115.94 16.6 119.44 119.44 0 0113.59 20.89 153.82 153.82 0 017.66 18.65 118.38 118.38 0 013.78 14.41c2.61 16 3.87 25.39-.29 48.54-.95 3.87-3.7 12.56-4.18 13.58z"/><path d="M135.16 41.67c0-2.38-2.65-2.65-4-3.77-1.95-2.7-5.67-1.25-8-2.27-.38.1-.76.59-1.14.37l.16-.37-.65.21c-1.51 2.32-4.1-.06-5.45 1.94-.6.06-.11-.48-.49-.59a3.57 3.57 0 013.3-.7 10.42 10.42 0 002.43-1c1.57-.66 2.37-2.54 3.67-3.52a11.07 11.07 0 011.46-3.78l-3.45-.13a4.27 4.27 0 01-3.51.17 3.93 3.93 0 00-1.95 1.29c-.32 2.1-3.29 2.1-3.4 4.37-1.62.55-.11 2.23-1 3.3-.27.11-.32-.22-.48-.22-1.14-1.72-.5-3.91-2.18-5.26 0-.11-.31-.41-.26-.46-.8-1.35-2.27-1.57-3.5-2.1a9.18 9.18 0 00-6.22 1.12c.22 1.36 1.57 2.44 1.08 4 .87.82.21 2.27 1.24 3a34.11 34.11 0 006.7 2.44c.38.37.27-.39.7-.12.22 0 .65 0 .49.38s-.44.17-.7.22c-1.52 2.43-5 2.05-7.3 3.56a2.27 2.27 0 01-.64 1.46 4.19 4.19 0 01-1.89 3.23l1.45-.09c2 1.56 4.54.69 6.54.37-.16.06-.22-.11-.27-.16 1.84-.55 2.21-2.82 3.94-3.51.06-1.35-.05-3 1.4-3.52a2.37 2.37 0 01.66 1.68 2.73 2.73 0 001.83 1c.81 1.5 2.44 1.35 3.73 1.88 2 .61 4.49.44 6.7.5l-.59-.5c-.54-.47-1-1.13-.76-1.77a4.1 4.1 0 00-3.13-2.54c-1.74-1.73-4.38-1.73-6.81-1.62-.33-.22-.11-.33-.27-.6 1.4.17 3.35-.38 4.75.12.65.43 1.46.48 2 1.23 1.84.27 2.91 1.67 4.38 2.91 1.67-.86 2.59 1.63 4.1 1.58.87-.81 2.05-.06 2.92-.12 1.19-1.5 2.43-.75 4.05-.64.89-1.4-1.16-1.83-1.64-2.97zm-29 3.68a10.73 10.73 0 01-2.32 1.46l-.22-.16c2.11-1.51 4.43-2.71 6.16-4.7-.34 1.73-2.34 2.64-3.64 3.4zm.22-9.83a38.31 38.31 0 01-3-2.49c1.68.33 2.65 2.27 4.27 2.81 1.3.6 2.54 1.63 3.9 1.84-2.06 0-3.46-1.41-5.19-2.16zm10 5.57c2 0 3.18 1.72 4.38 3.13-.38.05-.38-.38-.6-.48h-.06c-1.51-2.23-4.21-2.44-6.42-2.49a.45.45 0 01.48-.21c0 .1.06.15.11.21.47-.65 1.44.05 2.09-.16zm-1.25-4.65c-.11-.71.87-1 1.25-1.47 1.94-1.67 3.83-3.83 6.21-4.47 0 .11 0 .21.11.26-2.83 1.35-5.05 4.05-7.59 5.68zm5.87 2.48a10.51 10.51 0 01-2.32-.75l.16-.49c.65 0 1.08.75 1.68.71 1.18.32 2.8 0 4.15.37 2.49.87 5.14 1.62 7 3.51-3.26-1.99-6.94-3.62-10.67-3.35z" fill="#fff"/><path d="M161.58 34.27c-.17-.43.27-.64.38-1a12.8 12.8 0 00-5.41-.76l-2.05 1.62a9.52 9.52 0 00-1.35 2.8c-2.43-1.45-1.19-5-3.35-6.86-2-1.39-4.65-1.67-7-2.05a8 8 0 001.62 4c.48 3.95 5.08 3 7 5.9.11.26-.16.43-.27.58-.1-.15-.43.17-.43-.15A6 6 0 01146.4 36c-.44-.43-1.19-.32-1.46-1-2.05-1.19-4.16-2.16-5.35-4.48-.81-.17-1.24.59-1.94.86a1.93 1.93 0 01-1.73-.7c-1-.6-1.9-.05-2.81.32-.16-.27-.65.11-.7-.32l-.66-.05c-.8 1-2 1-2.91 1.62.59 1 .59 2.32 1.51 3.24.7 3.07 4.6 2.11 6.81 2.7 2.22.86 4.22-.75 6.05-.49.76.28 2.11.71 2.32.86a10.78 10.78 0 001.84.22c.59 0 .33.49.43.75-1.13.34-2.86-.22-4-.16-2.67-1-4.56.66-6.5 1.93l-.91.88a2.9 2.9 0 011.25 2.06c0 .43-.33.6-.17 1 1.57-.75 1.14 1.67 2.6 1.24 1.35-.81 2.75.33 4.21-.22 1.68-1.29 2.33-3.34 4.06-4.65a5.82 5.82 0 015.07-.37c-.7 1.4-2.16 2.65-2.16 4.49.76 1 .49 2.53 1.41 3.56l.64-.27a6.39 6.39 0 011 1.46.92.92 0 00.87-.32c1-.55 1.46.69 1.89 1.18.27-.16.49-.37.87-.27l2.91 1.73c1-2-1.19-3.4-.7-5.56l-1.35-1.47c.21-3.34-4.86-2.37-4.27-5.72a3 3 0 012.32-2.21c.49-.11 1-.11 1.35-.49 1.41.38 2.33-1.24 3.14-2.16l.16.21.43-.37c.25-.33-.18-.54-.34-.76zm-10.21 2.44a23.23 23.23 0 01-5.51-5.71c.86-.11 1 .86 1.51 1.24a18.73 18.73 0 004 4zm-15.83-1.84c-1.62-.7-3.46-.87-4.7-2.32.86-.11 1.51.81 2.37 1a30 30 0 009 2.16 7.63 7.63 0 013.29 1.85c-2.83-2.09-6.67-1.44-9.96-2.69zm6.21 8.13c-1.51 0-3.13.34-4.37-.47l.1-.28c3.79 1.09 6.87-.1 9.84-2.38.59 0 1.24-.48 1.84-.15-2.6.77-4.54 3.15-7.41 3.28zm12.92-.1a6 6 0 002.92 6c.1.11.32.22.32.38-2.11-.38-3-2.75-3.78-4.59 0-.58-.22-1.88.54-1.77zm3-7.89a19.16 19.16 0 00-3.06 1.99h-.43c1.35-1.09 2.76-2.33 4.59-2.39-.05.47-.59.26-1.08.39z" fill="#fff"/><path d="M36.49 68.53A24.84 24.84 0 0034.06 77c.16.11.16.44.43.33a29.62 29.62 0 012.43-8.76zM43.41 72.32h.11c-.07-.11.06-.24.09-.37-.11.1-.25.21-.2.37zM43.62 71.94z"/><path d="M43.52 71.72c3.19-1.78 6.32-3.67 10.1-4v-.27a8.43 8.43 0 00-4 1v-.12c-1.57.55-2.7 1.09-4.22 1.74-1.51 1.18-3.78 1.73-4.54 3.51 1-.43 1.73-1.66 2.8-1.62a.22.22 0 00-.14-.24zM31.09 80.2v-.32a4.35 4.35 0 00-2.05.49c-1.35.1-3 .69-4.49.86l.11.11c.16.59 1.24.11 1.84.11 1.5-.6 2.97-.76 4.59-1.25zM17.74 104.68c.6-2.76 1.62-5.94 1.35-8.43-.1-.27 0-.7-.48-.48a13.76 13.76 0 01-.65 6 29.59 29.59 0 01-1.68 6l.28.11c.44-1.03.8-2.12 1.18-3.2zM13.15 111.82h.32c1.09-3.3-2.38-5.52-1.56-8.87h-.22c-.92 2.82 2.11 5.57 1.46 8.87zM20.77 109.65c-.6.28-1.35.92-1.95 1.24-.26.33-1 .49-.81.93a32.86 32.86 0 006.92-5.47L25 106l-.22-.16c-1.31 1.16-2.66 2.63-4.01 3.81zM19 123.76a13 13 0 00-2.7-8.37l-.22.09a16.06 16.06 0 012.43 8.28c.05.43.31 0 .49 0zM13 149.42c-.11-5.67 2.32-11.07 3.4-16.69h-.22c-.86 2.43-1.29 5.34-2.32 7.83v.59a30.24 30.24 0 00-1.35 8.38c.15 0 .42.05.49-.11zM14.61 154.39c.16.81-1 1.47-.65 2.33a5.48 5.48 0 001.13-2.43c1.79-2.7 2.65-5.95 5.35-8.16h.22v-.49h-.27c-2.97 2.22-3.73 6-5.78 8.75zM11.31 158.77c-1.13-3.45-3.62-6.43-5-9.83-.27-.65-.54-1.52-1.24-1.83 1.67 4 3.94 7.82 5.94 11.77.14 0 .25 0 .3-.11zM15.31 160.34A18.81 18.81 0 0119.9 168c.06 0 .11-.06.17-.11-.6-3.07-2.38-5.55-4.65-7.89zM16.66 190.17c.11.11.22.32.38.32.22-.16.11-.38.11-.6-2.54-4.48-4.54-9.24-8-13.33l-.49-.06 3.51 4.91c1.25 3.02 3.46 5.59 4.49 8.76zM23.09 184.81c.06 3.41-.76 6.54-1.19 9.67h.33a44.51 44.51 0 001.24-8.85c-.27-.22.16-.86-.38-.82zM10.66 191.08h-.32v.27c1.95 1.25 3 3.08 4.75 4.49.76.32 1.25 1.41 2.17 1.24a79.7 79.7 0 00-6.6-6zM25.25 199.52c2.16 1.62 4.22 3.56 6.7 4.59.44.21.6 1.08 1.25.75-2.27-2.32-5.41-3.35-7.9-5.61zM18.72 201.68c0-.39.37-.82 0-1.2l-.27.49c-.76 2.86.37 6.16 1.24 9 .21.06.32-.11.38-.22-.76-2.75-1.79-5.15-1.35-8.07zM48.38 222.86c-.32 1.62.54 3 .27 4.37a11.91 11.91 0 010 4.37c.16.06.32 0 .48-.09.6-2.66 0-5.74-.48-8.65zM50.7 232.42a5.28 5.28 0 001.3-.22 13.24 13.24 0 018.32 2.55l.22-.38a6.54 6.54 0 00-1.73-1.19c-2.49-.87-5.4-2.11-8.11-.76zM45.19 235c-.21 1.78 1 3.74 1.52 5.57.43.38.43 1.29 1.07 1.35-.75-2.21-2-4.33-2.32-6.69zM120.14 264.52a2.91 2.91 0 001.4-.92c.7-.75 2.16-1.09 2.22-2.11a32.77 32.77 0 00-3.68 2.92zM86.1 261.17c-.16-.06-.33.11-.27.32a16.07 16.07 0 012.16 4c.43.22.86 1.35 1.46.87-1.79-1.36-1.84-3.63-3.35-5.19zM78.15 248.64c2.27 2.85 4.81 5.12 6.11 8.25.16 0 .59.06.38-.1-.87-3.29-4.16-5.56-6.11-8.15zM93.82 255.28c-2.37-1.08-5.08.05-6.81 1.72l.06.11a20.46 20.46 0 012.86-1.56c1.25-.76 2.76.21 3.95-.11.05-.11-.06-.11-.06-.16zM79.13 256.14c-.55-.38-1-1-1.68-.81.11.17.33.22.33.43a20.25 20.25 0 008.22 3.08v-.16c-2.05-.48-4-1.45-5.94-2.05-.34-.11-.77-.54-.93-.49zM117.06 258a45 45 0 00.16 4.59c0 .87-.43 1.84 0 2.7l.32-.21a39.82 39.82 0 00-.21-7.08zM78.26 260.9c-.43-.16-1.08-.76-1.67-1l-.22.26c1.67 2.38 4.32-.1 6.27 1.41v-.49c-1.3-.67-2.81.25-4.38-.18zM71.51 48.65h.43a5.58 5.58 0 011.62-1.94c.32-.22.81-.28.87-.76-.52-1.16-.08-1.64.59-2l-1 .14a2.63 2.63 0 00-.08 1.91c-.81.76-2.27 1.41-2.43 2.65zM149.16 39.73v.01-.01zM73.29 38.86c-.54-.64-.7.39-.86.65-.82 2.55-1.14 5.2-2.06 7.78h.27c1.03-2.75 1.46-5.73 2.65-8.43zM66.1 49.24v-.16a3 3 0 00-.91-.43c-2.33-.32-4.33.22-6.87.33a.5.5 0 00.17.37c2.51.12 5.45-.87 7.61-.11zM185.9 51.3c-1.46-1-3.68-1.08-5.13-2.54a13.3 13.3 0 01-4.7-2.92l-.06.48c1.94 2.06 4.59 2.82 6.87 4.22.86.17 2.12 1.24 3.02.76zM191 51.78c-.76-1.19-2-1.94-2.76-3.13-.86-1-1-2.38-1.84-3.3l-.1.6c.7 2.26 2.54 4.27 4.21 5.94a.31.31 0 00.49-.11zM63.46 57.72c0 .11.21.11.27.11 2.05-1.5 3.13-3.61 5.29-5.29v-.37c-2.32.96-3.62 4.05-5.56 5.55zM195.14 53.45l.59.18c1.25 0 2.43-.44 3.68 0 .49.09 1 .43 1.4.37-1-1.19-2.75-.93-4.32-1-.81.42-2.37-.06-2.32 1.07.38-.07.97-.07.97-.62zM74.05 52v.26c1.62.12 3.4.6 5.08.6-.49-.48-1.14-.26-1.46-.6a17.54 17.54 0 00-3.62-.26zM73.68 52.22v-.06a.09.09 0 010 .06zM73.68 52.16l.2-.16c-.18-.09-.21.05-.2.16zM186.76 56.54c-1.84-.59-4.75.05-6.48-.59l.11.42c2.05.33 4.26.06 6.37.55zM195.25 64.21a47 47 0 01-3.3-6.38h-.32c.21 1.25 1.13 2.39 1.46 3.68a10.16 10.16 0 002.16 2.7zM38.38 78.92c3.41-.34 6.06-.5 9.51-1a90.58 90.58 0 00-9.34.6c-.11.12-.27.22-.17.4zM221.88 83.29c-.37-2.44-.32-5.09-1.13-7.41-.32-.27-.37-.86-.92-.75 1.25 2.37 1.19 5.67 1.89 8.16zM35.63 84.58c-.22-.6-.38-1.4-.87-1.68.6 2.17 1.19 4.65 1.73 6.82.32.64 0 1.78.82 1.94-.44-2.32-1.09-4.75-1.68-7.08zM215.4 84.85c-2.26-.7-4.59-.92-6.91-1.73l-.22.27c1.62 1.25 3.78 1.25 5.73 1.68 1.4.49 2.81 1 4.11 1.35-.38-1.03-1.68-1.42-2.71-1.57zM228.69 90.47c-1.51-1.35-3.34-1.83-5-2.81l-.22.32a35.5 35.5 0 015.14 3c.03-.18.39-.29.08-.51zM9.85 113.92c.6-.59 1.84-.32 2-1.24-3.3.59-5.08 3.79-6 6.59H6a16.37 16.37 0 013.85-5.35zM242.69 113.81c-.49 3.19-1.73 6.54-1.73 9.73h.22c.59-3.19 1.08-5.67 1.83-8.81-.11-.32-.01-.73-.32-.92zM236.8 123.48c-2.11-1.56-4.21-3-6.32-4.31l-.11.43c2 1.35 4.27 2.91 6.11 4.37.52.03.05-.32.32-.49zM242.9 125.92l-.1.27a18.5 18.5 0 013.62 2.43c.32.21.38.64.65.7a1.2 1.2 0 01.1-.49c-1.02-1.5-2.81-2.21-4.27-2.91zM236.86 131.53a8.75 8.75 0 011.4-3.66l-.22-.22a7.07 7.07 0 00-1.67 5.13 1.07 1.07 0 00.43 1c.27-.62-.21-1.49.06-2.25zM238.42 149.75c-1.13 2.59-1 5.24-.86 8.15.16.34 0 .93.48 1a17.6 17.6 0 01.71-8.76zM232.8 160.34c-.86-1.46-.7-3.62-1-5.08a7 7 0 001.73 6.7c.81.6 1.24 1.72 2.16 2-.87-1.51-2.06-2.27-2.92-3.67zM243.39 163.15c-.49 1.13-2.16 2-2.16 3.13 2.54-2 3.3-4.91 5.35-6.91v-.32l-.05-.17a18.76 18.76 0 00-3.14 4.27zM230.64 197.68c-1.13 4.48-2.22 8.54-4.76 12.42h.27a32.14 32.14 0 003-5.72c2.43-4.37 1-9.95 4.27-14l-.16-.22a11.47 11.47 0 00-2.62 7.52zM222.21 196l-.33.32a23.91 23.91 0 00.11 7.08 48.33 48.33 0 011.73 6.32l.49-.37c-1.21-4.43-2.81-8.35-2-13.35zM226.75 210.92c1.08-.6 2.11-1.63 3.3-2.16s2.59-.93 3-2.11c-1.29.54-2.43 1.51-3.78 2a7.84 7.84 0 00-2.52 2.27zM215.94 216.53c-.32.49-1 1.14-1 1.79a24.52 24.52 0 013.76-4.32c.38-.27.38-.65.75-.77v-.38c-1.24 1.2-2.27 2.39-3.51 3.68zM224.45 213.34a54.14 54.14 0 01.73 6.6h.22a6.43 6.43 0 000-3.51c-.27-.37-.4-3.09-.95-3.09zM207.78 221.72l-3.4 5.36a43.32 43.32 0 01-4 6.1l.11.1c-.81.87-1.52 1.79-2.43 2.6.1.16.05.43.32.32 3.89-3.35 5.62-7.89 8.32-11.89v-.1c.38-.7 1.57-1.68 1.08-2.49zM196.43 229.55c-.21-.16.44-.91-.21-.75-1.35 3-3.51 6.1-2.92 9.72h.49l-.11-2.21c.76-2.22 1.32-4.8 2.75-6.76zM191.73 239.77a29.92 29.92 0 00-10.69.81c.37.38 1.18.11 1.56.16 3.14-1.08 6.11-.76 9.13-.65zM198.87 242.63c-.81.38-1.62-.27-2.44-.43l-.1.22c.92.32 1.94 1 2.81.86 0-.1 0-.22.11-.27.16.23.38-.22.38.17a4.34 4.34 0 002.7-.55l-.06-.32a6.63 6.63 0 01-3.4.32zM192.06 243.88c-1.19 1.35-1.24 3.3-1.89 5-.16.26-.11.69.32.65.92-1.95.7-3.68 1.95-5.51zM161.42 252.15c-.65-.34-1.24.48-1.89.75a20 20 0 00-2.49 5.3c-.1 1.07-1 2.32-.91 3.4.27.27.27-.11.48-.21a2.54 2.54 0 01.59-1.84 16.38 16.38 0 012.82-6.32c.48-.39 1.18-.54 1.4-1.08zM73.45 255.33c-3.08-2.06-7.13-1-10.2-3.09-.33.94.91.6 1.29 1.15.38.16 1 .48 1.24.22a3.88 3.88 0 001.84.58c3.13-.21 5.62 2.22 9 2.06a10 10 0 00-3.17-.92zM161.42 252.15zM175.41 257.49a19.85 19.85 0 00-8.1.38c-1.67.86-4.16.91-5 2.75l1.35-1.07a20.92 20.92 0 0111.45-1.68c.11-.1.43-.1.32-.38zM162.56 265.49l.11-.11h-.2zM162.45 265.16c-.32-.15-.65 0-1-.1V265c-1.29.26-2.7-.6-3.78-.32a25.08 25.08 0 004.78.68l-.07-.1zM154.18 264.9c-.76.06-1.41.81-2 1.13-.75.49-1.29.87-2.05 1.3 0 .11 0 .21-.11.27a19.78 19.78 0 00-3.13 1.78.46.46 0 00.32.49c2.32-1.41 4.59-3.35 7.08-4.81-.06 0-.11-.06-.11-.16zM115.76 267.49zM113.66 269.38c.86-.48 1.88-1 2.1-1.89a55.13 55.13 0 00-4.76 2.92c.93.37 1.63-.81 2.66-1.03zM118.2 268.2a21.77 21.77 0 003 2.42l.11-.1c.86.65 1.29 1.4 2.21 1.67v-.32c-1.62-1.57-3.51-2.43-5.24-3.9z"/></svg>