<svg xmlns="http://www.w3.org/2000/svg" width="600" height="400"><rect y="-7.07" width="600" height="414.14" rx="2.78" fill="#bf0a30"/><path d="M299 73.06L328.43 161l92.71.84L346.63 217l27.86 88.42L299 251.57l-75.5 53.81L251.35 217l-74.51-55.2 92.71-.84z" fill="#fff" stroke="#002868" stroke-width="7.9" fill-rule="evenodd"/><path d="M281.23 234.87v-15.43h-23.55v-7.25l24.77-41.76h5.44v41.76h7.34v7.25h-7.34v15.43h-6.66m0-22.68v-29.06l-17 29.06h17m55.43-26l-6.63.61a16.18 16.18 0 00-2.52-6.76 8.33 8.33 0 00-12.25-1.28 18.1 18.1 0 00-5 8q-1.82 5.22-1.89 14.9a16.74 16.74 0 015.88-6.46 13.86 13.86 0 017.3-2.11q6.66 0 11.33 5.84t4.7 15a28.62 28.62 0 01-2.22 11.3 18.23 18.23 0 01-6 8 14.62 14.62 0 01-8.73 2.77q-8.34 0-13.59-7.26t-5.26-24q0-18.68 5.81-27.16a15.79 15.79 0 0113.67-7.38 13.83 13.83 0 0110.47 4.26q4.11 4.26 4.93 11.78M309.44 214a21.57 21.57 0 001.45 7.82 12.93 12.93 0 004.11 5.72 9.15 9.15 0 005.51 1.93q4.23 0 7.26-4t3-11q0-6.69-3-10.51a9.18 9.18 0 00-7.55-3.86 9.54 9.54 0 00-7.67 3.86q-3.15 3.83-3.15 10.07" fill="#002868"/></svg>