<svg xmlns="http://www.w3.org/2000/svg" width="600" height="370" viewBox="0 0 600 370"><title>flag-massachusetts-dimensions</title><line x1="21.89" y1="198.11" x2="21.89" y2="200.61" fill="none" stroke="#a3a3a3" stroke-linecap="round" stroke-linejoin="round"/><line x1="21.89" y1="205.44" x2="21.89" y2="328.64" fill="none" stroke="#a3a3a3" stroke-linecap="round" stroke-linejoin="round" stroke-dasharray="4.83 4.83"/><polyline points="21.89 331.06 21.89 333.56 24.39 333.56" fill="none" stroke="#a3a3a3" stroke-linecap="round" stroke-linejoin="round"/><line x1="27.25" y1="333.56" x2="31.53" y2="333.56" fill="none" stroke="#a3a3a3" stroke-linecap="round" stroke-linejoin="round" stroke-dasharray="2.86 2.86"/><line x1="32.96" y1="333.56" x2="35.46" y2="333.56" fill="none" stroke="#a3a3a3" stroke-linecap="round" stroke-linejoin="round"/><line x1="35.46" y1="2.9" x2="32.96" y2="2.9" fill="none" stroke="#a3a3a3" stroke-linecap="round" stroke-linejoin="round"/><line x1="30.11" y1="2.9" x2="25.82" y2="2.9" fill="none" stroke="#a3a3a3" stroke-linecap="round" stroke-linejoin="round" stroke-dasharray="2.86 2.86"/><polyline points="24.39 2.9 21.89 2.9 21.89 5.4" fill="none" stroke="#a3a3a3" stroke-linecap="round" stroke-linejoin="round"/><line x1="21.89" y1="10.26" x2="21.89" y2="134.17" fill="none" stroke="#a3a3a3" stroke-linecap="round" stroke-linejoin="round" stroke-dasharray="4.86 4.86"/><line x1="21.89" y1="136.6" x2="21.89" y2="139.1" fill="none" stroke="#a3a3a3" stroke-linecap="round" stroke-linejoin="round"/><line x1="362.03" y1="356.23" x2="364.53" y2="356.23" fill="none" stroke="#a3a3a3" stroke-linecap="round" stroke-linejoin="round"/><line x1="369.43" y1="356.23" x2="592.18" y2="356.23" fill="none" stroke="#a3a3a3" stroke-linecap="round" stroke-linejoin="round" stroke-dasharray="4.9 4.9"/><polyline points="594.63 356.23 597.13 356.23 597.13 353.73" fill="none" stroke="#a3a3a3" stroke-linecap="round" stroke-linejoin="round"/><line x1="597.12" y1="350.87" x2="597.12" y2="346.59" fill="none" stroke="#a3a3a3" stroke-linecap="round" stroke-linejoin="round" stroke-dasharray="2.86 2.86"/><line x1="597.12" y1="345.16" x2="597.12" y2="342.66" fill="none" stroke="#a3a3a3" stroke-linecap="round" stroke-linejoin="round"/><line x1="46.66" y1="342.66" x2="46.66" y2="345.16" fill="none" stroke="#a3a3a3" stroke-linecap="round" stroke-linejoin="round"/><line x1="46.66" y1="348.02" x2="46.66" y2="352.3" fill="none" stroke="#a3a3a3" stroke-linecap="round" stroke-linejoin="round" stroke-dasharray="2.86 2.86"/><polyline points="46.66 353.73 46.66 356.23 49.16 356.23" fill="none" stroke="#a3a3a3" stroke-linecap="round" stroke-linejoin="round"/><line x1="54.26" y1="356.23" x2="275.78" y2="356.23" fill="none" stroke="#a3a3a3" stroke-linecap="round" stroke-linejoin="round" stroke-dasharray="5.09 5.09"/><line x1="278.33" y1="356.23" x2="280.83" y2="356.23" fill="none" stroke="#a3a3a3" stroke-linecap="round" stroke-linejoin="round"/><path d="M4,176H2.61v0l.33-.77c.21-.45.32-.58.55-.58s1.27.05,2.1.05A2.06,2.06,0,0,0,7,174.25a1.86,1.86,0,0,0,.88-1.55l0-.39c.2-1.38-.63-1.93-1.92-1.93a7.06,7.06,0,0,0-1.24.11l-.14-.16.51-1.06,0,0c2.26-.14,3-1.08,3.16-2.12l0-.23c.16-1.05-.44-1.63-1.66-1.63a2.83,2.83,0,0,0-2,.64l-.2-.16.73-1.31,0,0a4,4,0,0,1,1.86-.33c2.18,0,3,1.06,2.72,2.54l0,.23c-.21,1.38-.92,1.68-2.49,2.48,1.73.27,2.24,1.34,2.08,2.49l-.05.39c-.14,1.06-1,1.75-2,2.51A5.09,5.09,0,0,1,4,176Z" fill="#727272"/><path d="M15.81,177.26,14.62,176l1.44-10.24H14.64l.11-.73h1.41l.18-1.25A3.85,3.85,0,0,1,17.79,161c.9-1,1.22-1.22,2.21-1.22h1.13l0,0-.23.62c-.18.46-.25.53-.42.53s-.75,0-1.21,0c-1,0-1.27.39-1.45,1.59L17.49,165H19.7v.73H17.38l-.77,5.53c-.23,1.59-.43,3.29-.55,4.53l.51.78h0Z" fill="#727272"/><path d="M22.62,172.57c-2.18,0-3-.86-2.74-2.83l.23-1.66A3.74,3.74,0,0,1,22,165.29a3.4,3.4,0,0,1,2-.6c1.36,0,2.05.63,2.05,1.8a8.85,8.85,0,0,1-.26,1.77l-1.28.69H21.27l-.07.49c-.23,1.63.5,2.16,2.09,2.16a4.48,4.48,0,0,0,2.62-.85h0V171A3.73,3.73,0,0,1,22.62,172.57Zm-1.24-4.38h3.24a9,9,0,0,0,.19-1.42c0-.83-.49-1.25-1.57-1.25s-1.56.58-1.72,1.7Z" fill="#727272"/><path d="M29.94,172.57c-2.17,0-3-.86-2.74-2.83l.23-1.66a3.74,3.74,0,0,1,1.91-2.79,3.4,3.4,0,0,1,2-.6c1.37,0,2.06.63,2.06,1.8a9,9,0,0,1-.27,1.77l-1.27.69H28.6l-.07.49c-.23,1.63.49,2.16,2.08,2.16a4.48,4.48,0,0,0,2.62-.85h0V171A3.72,3.72,0,0,1,29.94,172.57Zm-1.24-4.38h3.24a8,8,0,0,0,.19-1.42c0-.83-.49-1.25-1.57-1.25s-1.56.58-1.71,1.7Z" fill="#727272"/><path d="M37,172.54c-1.41,0-2-.53-1.82-1.88l.75-4.89H34.47l.11-.73H36l.34-2.25,1.32-.19,0,0L37.34,165h2.37v.73H37.23l-.72,4.72c-.11.7.17,1,1.25,1a3.41,3.41,0,0,0,1.45-.36h0l0,.16A3,3,0,0,1,37,172.54Z" fill="#727272"/><path d="M305.9,364.94h-1.2l0,0,.34-.76c.21-.48.32-.58.55-.58s1.15,0,1.91,0a2.11,2.11,0,0,0,1.43-.44,2.41,2.41,0,0,0,1.08-1.82l.07-.52c.25-1.73-1.1-2.07-3.8-2.29l0-.06,1.34-5.3.06-.06h3.44a1.51,1.51,0,0,0,1.19-.33l.23.16-.78,1.5,0,0c-.5,0-1-.06-1.84-.06H308l-.73,2.87c2.92.34,4.53.85,4.21,3.13l-.05.39c-.16,1.18-1.12,2-2.23,2.83A5.13,5.13,0,0,1,305.9,364.94Z" fill="#727272"/><path d="M317.58,366.16l-1.19-1.25,1.43-10.24h-1.41l.11-.73h1.41l.18-1.25a3.82,3.82,0,0,1,1.45-2.78c.9-1,1.22-1.22,2.21-1.22h1.13l0,0-.23.62c-.18.46-.25.53-.43.53s-.74,0-1.2,0c-1,0-1.27.39-1.45,1.59l-.35,2.51h2.21v.73h-2.32l-.78,5.53c-.23,1.6-.42,3.29-.55,4.53l.52.78v0Z" fill="#727272"/><path d="M324.39,361.48c-2.18,0-3-.87-2.74-2.83l.23-1.66a3.75,3.75,0,0,1,1.91-2.8,3.4,3.4,0,0,1,2-.6c1.36,0,2.05.64,2.05,1.8a8.88,8.88,0,0,1-.27,1.77l-1.27.69H323l-.07.5c-.23,1.63.5,2.16,2.09,2.16a4.58,4.58,0,0,0,2.62-.85h0v.21A3.68,3.68,0,0,1,324.39,361.48Zm-1.24-4.39h3.23a8,8,0,0,0,.2-1.41c0-.83-.5-1.26-1.57-1.26s-1.56.59-1.72,1.7Z" fill="#727272"/><path d="M331.71,361.48c-2.18,0-3-.87-2.74-2.83l.23-1.66a3.75,3.75,0,0,1,1.91-2.8,3.4,3.4,0,0,1,2-.6c1.36,0,2.05.64,2.05,1.8a8.75,8.75,0,0,1-.26,1.77l-1.28.69h-3.21l-.07.5c-.23,1.63.49,2.16,2.08,2.16a4.55,4.55,0,0,0,2.62-.85h0v.21A3.71,3.71,0,0,1,331.71,361.48Zm-1.24-4.39h3.24a8.91,8.91,0,0,0,.19-1.41c0-.83-.49-1.26-1.57-1.26s-1.56.59-1.72,1.7Z" fill="#727272"/><path d="M338.73,361.44c-1.41,0-2-.53-1.82-1.87l.74-4.9h-1.41l.11-.73h1.43l.33-2.24,1.33-.2,0,0-.38,2.42h2.37v.73H339l-.73,4.72c-.1.71.18,1,1.26,1a3.4,3.4,0,0,0,1.45-.35h0l0,.15A3,3,0,0,1,338.73,361.44Z" fill="#727272"/><rect x="46.66" y="2.9" width="551.03" height="330.62" fill="#fff" stroke="#50d6cc" stroke-miterlimit="10" stroke-width="0.92"/><path d="M319.23,240.84c36.13-19.9,58.46-72.05,52-140.32h-104c-6.48,68.27,15.85,120.42,52,140.32" fill="none" stroke="#50d6cc" stroke-miterlimit="10" stroke-width="0.92"/><path d="M286.91,106.24l2.74,8.24,8.63.08-6.94,5.16,2.6,8.3-7-5.05-7,5.05,2.59-8.3-6.94-5.16,8.64-.08,2.74-8.24Z" fill="#fff" stroke="#50d6cc" stroke-miterlimit="10" stroke-width="0.92"/><path d="M388.82,192.17l.17-.39c.72-1.75.38-.92-.17.39" fill="#31319c"/><path d="M319.23,256.74c-5,0-10.23-.23-10.23-2.74V243.48c0,2.51,5.23,2.74,10.23,2.74m-6-.32s1.65-5.17-2.21-5.17-18.18-1.15-28.18-13.27-13.86-19.9-14.55-23.55-1.13-5,.69-5.5l-9.78,3.21s-1.36,3.2-.45,5.71a66.61,66.61,0,0,0,15.91,26.77c11.36,11.43,20,16.29,34.34,16.75m0-7.18c0-1.12.75-1.71,1.9-.79,1.59,1.24,2.64.59,2.5-.58M268.32,204a14.23,14.23,0,0,0,2.73-.69c1.13-.46,2.72-3.32,1.13-8.68s-3.18-7.79-6-7.1l-2.16.57m-3.18,6.3a12.75,12.75,0,0,1,1.59,6.05M258,195.21l9.77-2.74c-5.62-4.46-9.2-13.21-6.3-31.57s6.14-32.59-1.37-40.48l-10.9-1.54s3.23,1.54,4.26,7.71,1.53,11.33-2.39,31.91,1.48,34.13,6.93,36.71Zm-8.8-76.51s-3.76,1-1.54,5.49,2.05,4.46.51,8.06-.54,6,2.35,8a4.45,4.45,0,0,1,1.23-6.32L254,137.4m14.79,61s2.71-.75,1.48,1.93a7.7,7.7,0,0,0-.63,1.3c-.47,1.07.63,2.18,1.58,1.53m-3.55-10.71c1.45-.43,2.38-1.42.43-2.1s-2-2.66-1-2.92m52.16,69.29c5,0,10.23-.23,10.23-2.74V243.48c0,2.52-5.24,2.74-10.23,2.74m10.19,4.64c14.32-.47,24-5.15,35-16.88,12.61-13.38,15.91-29.84,17.27-38.77.79-4.8,2.16-6.62,3.75-6.29l-9.09-2.28a6.88,6.88,0,0,0-4.66,5.48c-3.07,15.44-2.82,22.43-15.9,35.57-13.86,13.92-24.55,13-28.41,13s-2.22,5.17-2.22,5.17m4.27-2.23c0-1.12-.76-1.71-1.91-.79-1.59,1.25-2.64.59-2.5-.58m56.67-47.2a12.35,12.35,0,0,0,2.72.8c1.48.23,2.51.8,4.55-4.12s-4.43,10.63.11-.34-.23-32.94-.23-32.94c-3.92-20.58-3.4-25.73-2.38-31.91s4.26-7.71,4.26-7.71l-10.91,1.54c-7.5,7.89-4.35,22.14-1.36,40.48,2.38,14.64,3,16.93.85,26.42m11.14-68.62s4,1.6,1,7.32-5.22,10.87-1,13.72m-4.55-.45s3.3,1.72,4.89.8,2.05-2.17.68-4.23-.45-3.55.45-4.23c0,0-2.95.23-3.75,4.12M385,188.92c1.94.46,1.94,2.63.57,3.78s-2,2.85-.45,3.31" fill="none" stroke="#50d6cc" stroke-width="1.01"/><path d="M298.46,140.23a.69.69,0,0,1,.17.59,5.93,5.93,0,0,1-1.5-.39c-.2,0-.41-.2-.58,0s-.07.48-.37.34a1,1,0,0,1,.14-.82,1.74,1.74,0,0,1,1.43,0,.71.71,0,0,1,.71.31" fill="#50d6cc"/><path d="M298,141.16a.72.72,0,0,1,.65.65l-.1.18c-.82-.56-1.81,0-2.63,0a.54.54,0,0,1,0-.55,1.9,1.9,0,0,1,1.81-.26H298" fill="#50d6cc"/><path d="M298.69,142.74l0,.41a2.36,2.36,0,0,0-1.54-.28l-1.16.4c-.2-.1-.13-.38-.13-.54.37-.41.92-.34,1.36-.51s1.19,0,1.5.52" fill="#50d6cc"/><path d="M341.39,147.65c-.59,2.58-1.49,5.14-2.22,7.71-.24.41-.24.95-.51,1.33-.66,2.5-1.46,4.9-2.25,7.33-.58-1,.24-1.75.38-2.64.25-1.13.66-2.09.87-3.25.58-1.23.66-2.5,1.31-3.8.49-1.79,1-3.53,1.53-5.2.24-.52.27-1,.48-1.55.13,0,.34-.06.4.07" fill="#50d6cc"/><path d="M340.26,148.67a.9.9,0,0,1-.33-1l.37-.86a2,2,0,0,1,0,1.85" fill="#50d6cc"/><path d="M341.37,150.91c-.17.1-.27.31-.47.37.41-1.19.38-2.84,1.48-3.69a30,30,0,0,1-1,3.32" fill="#50d6cc"/><path d="M340.09,149.33c-.35.68-.45,1.43-.76,2.12-.51-.86,0-1.78.35-2.64.14.2.68.14.41.52" fill="#50d6cc"/><path d="M339,152.89c-.24,0-.2-.27-.33-.38a1.06,1.06,0,0,1,.24-1c.68.34.16.93.09,1.41" fill="#50d6cc"/><path d="M341.13,151.7c-.14.59-.11,1.37-.82,1.54a11,11,0,0,1,.45-1.75c.13,0,.2.27.37.21" fill="#50d6cc"/><path d="M317,109a12.51,12.51,0,0,1,.06,1.64,14.36,14.36,0,0,0-1.86-2.38c-.14.07-.11.27,0,.35a8.74,8.74,0,0,1,1,1.54A1.3,1.3,0,0,1,315,108a1.75,1.75,0,0,1,2,1" fill="#50d6cc"/><path d="M318.77,113.39c0,.13.06.16.1.23s.27-.38.34-.61a2.77,2.77,0,0,1,0-.76,2.69,2.69,0,0,1-.08,2.27c-.44-.59-.64-1.35-1.05-1.93s-.74-1.27-1-1.89c0,0,0,0,.07,0a1.79,1.79,0,0,0,.28-1.51,4.77,4.77,0,0,1,1.31,4.17" fill="#50d6cc"/><path d="M316.82,114a6.4,6.4,0,0,1,.81,2.3c0,.07-.07.14-.14.11a32.9,32.9,0,0,0-4.23-6.3c-.2,0-.2.24-.13.35A23.26,23.26,0,0,1,317,117c-.24.28-.54-.1-.81-.2-.13-.73-1.05-.76-1.25-1.45.3-.24.88,0,1-.34-.2-.24-.54-.13-.82-.24-1,.13-1.08-1-1.52-1.62a2.15,2.15,0,0,0-.1-.31c.37,0,.92.39,1.26,0-.79-.37-2-.79-1.93-1.86a1.11,1.11,0,0,1,.17-1.12c1.87.28,2.92,2.59,3.8,4.1" fill="#50d6cc"/><path d="M316,110.52c.65-.27.68.73,1,1v.13l-1.3-.38c-.24-.34-.64-.51-.64-.89.31,0,.61.1.92.1" fill="#50d6cc"/><path d="M318.22,113.89c-.41-.48-1.33-.21-1.39-.93a1.52,1.52,0,0,1,1.39.93" fill="#50d6cc"/><path d="M318.76,115.34c0,.17-.24.17-.38.13-.37-.37-.81-.72-.85-1.27a1.76,1.76,0,0,1,1.23,1.14" fill="#50d6cc"/><path d="M315.82,123.69a.88.88,0,0,1,.07.55,3.44,3.44,0,0,1-.13-1.58c.06.45,0,.65.06,1" fill="#50d6cc"/><path d="M300.38,124.58a2.84,2.84,0,0,0,.12,2c0,1.23.27,2.31.22,3.5h-.13c-.1-1.12-.13-2.19-.33-3.43l-.1-.06-.24.23c-.32,2.47-.74,5.42-.92,7.71l.07.07a23.19,23.19,0,0,0-.26,3.5c.27.13.58.34.58.68.06.73-.21,1.38-.12,2,.51.71,1.22,1.47,1,2.33-.41.23-.44,1.1-1.09.85-.41-.48.34-.93-.13-1.48-.13-.4.34-.81,0-1.23a1.11,1.11,0,0,0,0-1.06,1.53,1.53,0,0,0-1.23-.79l-.2-.21c.18-1.76.46-3.4.71-5.18.46-2.77.74-5.28,1.4-8,.07-.34-.34-.55-.13-.82s.54-.31.55-.72h.1v-.1c.24-.07.1.14.21.24" fill="#50d6cc"/><path d="M325.32,126c-.11,1.27.73,2.31,1,3.47.34.42.2,1,.3,1.47-.26-1.4-1.32-2.57-1.31-4,0-.06-.1,0-.16-.06-.21.13-.07.33-.15.51-.2-.45,0-.89,0-1.37l.08-1.2c.3.41.09.81.23,1.23" fill="#50d6cc"/><path d="M315.85,130.21a18.92,18.92,0,0,1-.35,2,7.76,7.76,0,0,1,.56-4.15,5.84,5.84,0,0,0,.18-.89,8.74,8.74,0,0,0-.23-2l0-.3a7,7,0,0,1-.2,5.28" fill="#50d6cc"/><polyline points="324.93 127.56 325.03 127.72 324.93 127.56" fill="#50d6cc"/><path d="M325.07,127.82c.1.66.06,1.37.53,1.82a5.91,5.91,0,0,1,.44,1.44c-.16-.82-.81-1.24-.84-2.06a3.37,3.37,0,0,1-.27-1.24c0,.07.11,0,.14,0" fill="#50d6cc"/><path d="M324.1,130.63l0,.16-.17-.06c-.1-.18.18-.38.21-.1" fill="#50d6cc"/><path d="M323.55,130.86c.07.11,0,.42-.17.34a.14.14,0,0,1-.2-.14c0-.16.21-.23.37-.2" fill="#50d6cc"/><path d="M323,131.42c0,.12-.14.12-.2.23s-.18-.07-.21-.17a.21.21,0,1,1,.41-.06" fill="#50d6cc"/><polyline points="326.2 131.63 326.11 131.3 326.2 131.52 326.2 131.63" fill="#50d6cc"/><path d="M324.3,131.42c.07.1,0,.17-.1.24a.19.19,0,0,1-.24-.17.18.18,0,0,1,.34-.07" fill="#50d6cc"/><path d="M323.75,131.75c-.1.11,0,.25-.14.31s-.2-.11-.27-.2a.29.29,0,0,1,.41-.11" fill="#50d6cc"/><path d="M321.77,132.26c-.2.1-.37-.18-.61-.11,0-.44.51,0,.61.11" fill="#50d6cc"/><path d="M323,132.23c.11.07,0,.18-.07.2s-.14,0-.17-.14.28-.3.24-.06" fill="#50d6cc"/><path d="M322.39,132.43l0,.32a.33.33,0,0,1-.31-.12c0-.2.18-.4.35-.2" fill="#50d6cc"/><path d="M316.83,132.89l-.34.21c-.07,0,0-.14,0-.21a.28.28,0,0,1,.38,0" fill="#50d6cc"/><path d="M310.46,154.05c.13-.2.07-.55.21-.78l-.11.78h-.1" fill="#50d6cc"/><path d="M310.35,154.6c-.07-.14,0-.31.11-.48a.7.7,0,0,1-.11.48" fill="#50d6cc"/><path d="M330.69,155.8c0,.33-.48.33-.72.47-2.55.34-4.61,1.83-7.3,1.71-.13.14,0,.27.14.31,1,.21,1.77-.3,2.65-.22.17-.18.31,0,.52-.11a15.7,15.7,0,0,1,4.7-1.14.65.65,0,0,1,.24.44,12.16,12.16,0,0,1-1.57.24c-.92.23-1.64.81-2.53,1.08a18.38,18.38,0,0,1-4.81.6,1.14,1.14,0,0,0-.4-.11c.2-.13.58.14.71-.2-.26-.28-.81-.14-1.22-.11-1.6.64-3-.36-4.49-.61a6.69,6.69,0,0,1-2.76-.35c-.07-.06-.13-.24,0-.31a5.68,5.68,0,0,1,3.75,0,6.64,6.64,0,0,0,3.81.52c1-.26,2.25-.16,3.2-.39.07-.1-.06-.13-.09-.21a13.85,13.85,0,0,0-3.41.16,7.54,7.54,0,0,1-3.37-.57h-.14l-.67-.23a6.26,6.26,0,0,0-2.8.08h-.37a1.37,1.37,0,0,0,0-.89c.44-.3,1.05.08,1.6,0s.82.32,1.26.21c2.18.64,4.05.23,6.33.41-.54.11-1.19.13-1.77.27.07.06.06.17.17.17.48-.1,1,.17,1.6.08s1.09-.17,1.67-.2c.27-.17.68-.06,1-.13v.1c2,.56,3.17-1.19,5-1.25l.17.21" fill="#50d6cc"/><path d="M331.82,161.84c-.58-.18-.37-.8-.57-1.34.4.31.44.93.57,1.34" fill="#50d6cc"/><path d="M331.84,163.58c-.17-.07-.07-.2-.06-.37.13,0,0,.24.06.37" fill="#50d6cc"/><path d="M332.62,165.23a2.57,2.57,0,0,1-.17-1c.31.25.1.73.17,1" fill="#50d6cc"/><path d="M316.84,165.6a1.61,1.61,0,0,1-.07-.89.92.92,0,0,1,.07.89" fill="#50d6cc"/><path d="M325.93,167.88a4.86,4.86,0,0,1-.29,2.33h-.2a16,16,0,0,1,.28-2.47.17.17,0,0,1,.21.14" fill="#50d6cc"/><path d="M334.19,171a19.9,19.9,0,0,1-1.11,3.9c-1.07,3.43-2.15,6.82-3.22,10.24-.72-.07,0-.62-.13-1a14.41,14.41,0,0,0,.56-1.88c.06-.11.16-.31.2-.41.24-1.14.66-2.09.9-3.12.45-1.16.9-2.74,1.25-4,.17-.07,0-.18.1-.27.28-1.07.73-2.09,1-3.12.1-.17.21-.34.41-.37" fill="#50d6cc"/><polyline points="334.04 173.78 334.07 173.78 334.07 173.95 334.04 173.95 334.04 173.78" fill="#50d6cc"/><path d="M334.07,174.06c0,.85.2,1.91.13,2.67.07-.38-.31-.76-.17-1.16a3.83,3.83,0,0,1,0-1.51h.07" fill="#50d6cc"/><path d="M332.83,178.29c0-.2-.14-.5,0-.67.06.2.16.51,0,.67" fill="#50d6cc"/><polyline points="333.4 178.1 333.44 178.1 333.43 178.41 333.4 178.41 333.4 178.1" fill="#50d6cc"/><path d="M334.19,178.78c0-.16,0-.37.07-.47l-.07.47" fill="#50d6cc"/><polyline points="333.37 179.07 333.4 178.82 333.4 179.02 333.37 179.06" fill="#50d6cc"/><path d="M334.24,180.54a.81.81,0,0,1-.09-.79c0-.17-.11-.51.07-.69.3.49-.11,1,0,1.48" fill="#50d6cc"/><path d="M310.86,181.58c-.13,0-.16-.12-.13-.17s.1.11.13.17" fill="#50d6cc"/><path d="M318.31,184.3a1,1,0,0,1-.27,1c-.24.1-.21-.2-.24-.28,0-.27.17-.71.51-.71" fill="#50d6cc"/><path d="M330,185.77l.1.13c-.1.28-.71.17-.48.58a2.85,2.85,0,0,1,.71.72,8.71,8.71,0,0,1-1.64,2.15l-.31.24A9.61,9.61,0,0,1,328,188a4.28,4.28,0,0,0-.2-1.37c.34-.2.85-.14,1.27-.31a.57.57,0,0,0,0-.41c-.06-.09-.3-.17-.23-.38.43-.06.74.18,1.15.29" fill="#50d6cc"/><path d="M325.24,210.67a6.47,6.47,0,0,0,2.55,1.28A1.91,1.91,0,0,0,327,213c-.1.11-.24,0-.34.07a7.92,7.92,0,0,1-2.37-2.83c.24-.57.68.19.92.39" fill="#50d6cc"/><path d="M330.1,212.31a3.91,3.91,0,0,1,1.65,3.74,2.72,2.72,0,0,1-.14,1.92c-1,.72-1.84-.25-2.76-.39a3.83,3.83,0,0,1-2-2.48c-.27-.38-.33-.89-.64-1.23-.51-.83-2.45-.77-1.63-2.17a14.28,14.28,0,0,0,2.48,2.1c.55,0,.38-.82.79-1a5.21,5.21,0,0,0,1.22,2c.37.51.81,1,1.53.77a.84.84,0,0,0,.38-.83c-.17-.72-.89-1.07-1.22-1.72.1,0,.17,0,.2-.13.07-.38-.2-.62-.44-.93a1.36,1.36,0,0,0-.78-.35c.38-.26.38-.78.65-1.19.14.69.85,1.13.71,1.92" fill="#50d6cc"/><path d="M317.05,211.76c0,.17.18,0,.25.14a1.25,1.25,0,0,1-.79.44,3,3,0,0,1-2.7.3c-.23-.28-.16-.62-.23-.93.24.28.78,0,1.13,0,.13-.25.4,0,.58-.17.61,0,1.19.14,1.76.21" fill="#50d6cc"/><path d="M313.34,212.5l.27.55a1.74,1.74,0,0,0-1.37,1c-.41-.82.45-1.61.8-2.36.27.07.13.52.3.76" fill="#50d6cc"/><path d="M318.66,212.32c.09.69-.69.86-1,1.23a4.49,4.49,0,0,1-2.67.84c-.37-.27-.19-.65-.53-.89v-.17a7.65,7.65,0,0,0,2.52-.54,8.47,8.47,0,0,0,1.13-.68c.2,0,.47-.06.58.21" fill="#50d6cc"/><path d="M328.5,212.16c0,1.16,1.09,1.76,1.49,2.75-.41,0-.38-.48-.68-.68a2.52,2.52,0,0,1-.91-2.07h.1" fill="#50d6cc"/><path d="M329.55,212.85c-.2.14-.1.24-.14.41-.33-.27-.3-.72-.4-1.1.31.08.44.45.54.69" fill="#50d6cc"/><polyline points="313.77 213.57 313.74 213.16 313.81 213.32 313.77 213.57" fill="#50d6cc"/><path d="M312.61,216.13c-.34,0-.38.48-.72.47.34-.38.75-.89,1.06-1.29a3.19,3.19,0,0,0,.79-1.55,4,4,0,0,1-1.13,2.37" fill="#50d6cc"/><polyline points="313.02 213.97 313.06 213.98 313.06 214.14 313.02 214.14 313.02 213.97" fill="#50d6cc"/><path d="M314.86,214.91a9.78,9.78,0,0,0,3.07-.71c-.07.45-1.12.23-.65.79l.68-.17c-.75.68-1.81,1-2.6,1.63-.85.86-1.54,2.33-2.87,2.38l-.92.31v.21c.37.2.71-.18,1.12-.14a2.5,2.5,0,0,1-.95.55c-.48.23-1.17.61-1.61.26a10.9,10.9,0,0,1-.46-2.57c.18-1.61,2-1.77,2.54-3.18.1,0,.17.07.2.21v.24c-.28.72-2.22,1.12-1.13,2.12a.8.8,0,0,0,.84.21,4.68,4.68,0,0,0,2.1-3,1.32,1.32,0,0,0,.64.82" fill="#50d6cc"/><path d="M311.69,216c.13-.13.3-.38.48-.44,0,.27-.34.27-.48.44" fill="#50d6cc"/><path d="M324.64,132l.1-.08h0Z" fill="#50d6cc"/><path d="M324.32,127.29h0v0h0Z" fill="#50d6cc"/><path d="M323.75,117.72c-.23-.27-.61-.52-.71-.82,0-.11.1-.07.17-.11.71.28,1,1.11,1.46,1.66a14.61,14.61,0,0,1,.45,5.46c0,.23-.11.61,0,.78l.07,0a3.25,3.25,0,0,0-.06-.75,10.6,10.6,0,0,0,.15-3.06c0-1.95-.67-4-2.43-5-.17-.14-.41-.14-.55-.24-.41.07-.68-.31-1.12-.18-.44-.17-1,.38-1.16-.17h0a2,2,0,0,0-.2-1.4c0,.44-.41.78-.61,1.12,0,.21.3.32.44.43-.11.41-.52.33-.86.5a8.2,8.2,0,0,0-3.06,6.7l.28-1.78.2-.2c.28.35-.1.79-.1,1.16a10,10,0,0,0,.62,4.43,4,4,0,0,1,.05,3.36c-.24,1.07-.93,2.16-.73,3.23l.24-.69c.17-.2.17-.58.49-.61v-.21c.3-.51.54.27.84.28,0,0,0,0,0-.06s-.07-.32-.27-.25a.58.58,0,0,1-.27-.62.33.33,0,0,1,.38-.17c.16.07.37.28.3.49l.44.06c-.44,0-.37-.51-.71-.69a.42.42,0,0,1,0-.67.74.74,0,0,1,.27,0,1.09,1.09,0,0,0,.61.62c-.11.44.47.24.54.44,0,.48.81.07.81.62.11-.2.34-.07.51-.09a.66.66,0,0,1,.2.3l.18-.14a.4.4,0,0,1,.47.05.34.34,0,0,0,.45-.15c.34-.12.44.22.57.39.1-.28-.06-.76.28-1-.13-.52,0-1.34-.61-1.65a2.91,2.91,0,0,1-2.24-.53c-.41-.06-.92-.41-1.29-.06a1.63,1.63,0,0,1-.76.88c-.26-.48.08-1.38-.26-1.82a25.18,25.18,0,0,1-.79-4.29c-.06-1.92-.12-4.43,1.63-5.75.23.2-.11.37,0,.57.48,0,.75-.43,1.09-.7.1,1,.89-.07,1.36.31s.41-.48,1-.34c.37.41,1,.31,1.39.52a2.8,2.8,0,0,1,1.56,2.17c.36,2.26-.23,4.65-.17,6.79,0,.17-.2.36,0,.5.25-1.05.05-1.92.36-3C324.69,122.12,325,119.65,323.75,117.72Z" fill="#50d6cc"/><path d="M335.76,149.23c0,.24-.14.13-.24.2a2.54,2.54,0,0,1-1-2.23c.06,0,.1-.17.24-.17.37.48.19,1.34.77,1.75-.77-2.61-.93-5.28-1.46-8-1-2.41-1.51-5.05-2.82-7.35-.27-1-1.29-1.17-2.18-1.35-.13-.14-.41-.07-.51-.21l-.41,0c-.09-.27-.41,0-.57-.21-.85-.48-.58.62-1.06.89-.17-.11,0-.48-.24-.48v.13a2.84,2.84,0,0,1-.45,2l-.1-.08a3,3,0,0,0-.06-2.43,6.14,6.14,0,0,1-1.34-4.38.09.09,0,0,1-.06,0c0,1.4-.28,2.81.66,4.08.08.15-.07.35-.18.47.17-.07.39-.22.52,0-.17.44.34.24.44.44.31.35,0,.59-.11.82,0,0,0,0,.07,0,.07.38,0,.55-.24.76l.21.16a.47.47,0,0,1-.21.59.43.43,0,0,1-.51-.1.52.52,0,0,1,.21-.79c-.55-.25.06-.69-.1-1-.35.06-.52.68-.76,1l0,0c-.24.31-.24.52-.48.79-.28.55-1,.34-1.37.75-.13.14-.2.34-.44.37s0-.21-.1-.28c-.24.25-.31.55-.52.76l-.1-.14c0-.69.55-1.3.35-2,.27-.34,0-.78.07-1.19-.3.34-.61,0-.95-.1a.53.53,0,0,1-.48.13c-.27-.11-.27-.35-.27-.59a.92.92,0,0,1,.31-.2c.21-.14.41.13.58.21s.17-.05.1-.18a.54.54,0,0,1-.44-.44c-.13.13-.2.41-.48.34a.56.56,0,0,1-.3-.62.52.52,0,0,1-.41.41.72.72,0,0,1-.4-.53.51.51,0,0,0-.27.11s-.07,0,0-.11h-.2v.29a.38.38,0,0,1,.67.34c.21,0,.35-.21.59-.07a.85.85,0,0,1,.23.48c-.07.24-.24.38-.48.31s-.34-.28-.41-.44c-.13.09-.34.05-.51.05a.39.39,0,0,1-.23-.47l-.34,0a23.19,23.19,0,0,1,2,2.34c-.38.3-.54-.45-1-.25a1.51,1.51,0,0,0,.4.83c.89.11,1.26,1,1.63,1.62l-.07.17c-.47,0-.44-.55-.64-.83-.31-.58-1-.52-1.39-.93a10.44,10.44,0,0,0-1.08-2.1c0,.07,0,.14,0,.17l-.14.17-.41-.34c-.1.07-.2.21-.3.21l.27.23a.42.42,0,0,1-.14.62.45.45,0,0,1-.61,0l.07.27.51-.1a.56.56,0,0,1,.37.65c-.11.21-.28.45-.55.28-.44-.12-.12-.8-.64-.76-.13-.55-.71-.8-.71-1.38-.51-.14-.37-.75-.6-1.1a19.33,19.33,0,0,1-2.12.67,2.74,2.74,0,0,0-1.54.41,6.81,6.81,0,0,0-1.4,2.08,5.07,5.07,0,0,0-.77,3.43,11.32,11.32,0,0,1-.52,3.18c-.41.86-.08,1.69-.39,2.47,0,1.07-.82,1.82-.86,2.95.27.06.41-.24.61-.34.38-.14.89-.48,1.09.07a.64.64,0,0,1,.54.21c.06.55.79.41.85,1,.23,1.44.74,2.78.45,4.32a2.38,2.38,0,0,0-.14,1h0v-.1h0c.69-1.44.26-3.39.23-4.94l.11-.27c.3.27.13.72.23,1.13.5,1.2.09,2.41.19,3.46a10.94,10.94,0,0,0,.12-4.07c0-.83-.44-1.58-.3-2.37h.14c.33,1.68,1.24,3.23.72,5-.1.2-.17.38,0,.55.62-1.2.25-2.61-.05-3.84-.2-.56.11-1.31-.23-1.82-.09-1.55-.9-3.06-.69-4.64.47,1,.19,2.24,1,3.13,0-.27.07-.55.11-.82a10,10,0,0,0-.3-2.06c-.16-1.75-1.52-3.1-1.17-4.94H311c.34,1.13.43,2.4,1.21,3.26.06,0,.14,0,.17,0-.43-2.06-1.48-4.16-.95-6.36l.13,0a10.45,10.45,0,0,1,.06,1.47c.33.94.16,1.65.49,2.58.21.32,0,.93.44,1a3.34,3.34,0,0,1,.45-1.12c.2.23,0,.41,0,.61-.23.62-.07,1.55-.24,2.2-.15,1.36.08,3,0,4.42a44.09,44.09,0,0,1,.2,8c.17.89-.17,1.57.3,2.26.27.07.48.28.78.24.37-.19-.07-.68.21-1,.47.17.64,1.07,1.22,1,.1-.45-.27-.69,0-1.07.37.24.23.73.5,1.07.17.17.34.38.58.27-.33-2.26.66-4.41.17-6.68.06-.28-.3-.52,0-.76.34.07.33.52.44.79l0,2.48c0,1.16-.54,2.86.17,4,0,.07,0,.28.17.24-.09-.48-.16-.89-.26-1.44a11.47,11.47,0,0,1,.32-2.63c0-.11.1,0,.17,0,0,1.5-.26,3.46.93,4.53a10.21,10.21,0,0,1,2.59,0c.64-.24.11-1.17.62-1.54.24.44-.14,1.07.26,1.37a12.23,12.23,0,0,1,1.84.29c.24-.28,0-.76.35-1a1.6,1.6,0,0,0,.4,1c1.71.2,1.54-1.68,2.09-2.63.11-.79.69-1.41.52-2.23a4,4,0,0,0,0-1.3c.44-.38-.09-1.07.39-1.37a13.2,13.2,0,0,1,.05,3.37c-.39.75-.12,1.53-.56,2.22,0,.38-.38.75,0,1.13.34-.07.88.31,1-.17a.36.36,0,0,1,.54-.24c.28-.2-.1-.55.14-.78.75,0,.07-.83.58-1a3,3,0,0,0-.22-1.88c0-.24-.31-.62,0-.79a5.31,5.31,0,0,1,.81,2.1,7.21,7.21,0,0,1-.38,2.63,1.52,1.52,0,0,0,1-.88c-.09-2.95-1.58-5.74-1.46-8.64.1-.73-.13-1.28.24-1.93.45-.07.14.35.28.55a6.14,6.14,0,0,0,.93,4.57c.1-.18,0-.45,0-.69-.65-1-.5-2.33-.74-3.46-.33-1.58.39-3.23.5-4.91a18.82,18.82,0,0,0,.13-4.62c0-.34-.17-.76,0-1,.07-.11.21,0,.27.07.1,1.13.43,2.06.46,3.12a34.27,34.27,0,0,0-.71,6.1,5.35,5.35,0,0,0,.25-1.24c.07-1.19.55-2.21.38-3.52.07-.07.14-.17.24-.13a4.84,4.84,0,0,1,.1,1.78,30.55,30.55,0,0,0-.63,4.65,4.43,4.43,0,0,0,.29,2.23c.38-1.26,0-2.7.22-3.86.44.44.16,1.37.36,1.92a14,14,0,0,1,0,4.79c.17,1.14-.7,2.58-.39,3.91a.22.22,0,0,0,.3.21c.51-1.2.8-2.6,1.89-3.52.31-.11.69-.38,1-.1a3.33,3.33,0,0,1,2.21,2.07A4.33,4.33,0,0,0,335.76,149.23Zm-18.84-13.84a.53.53,0,0,1,.21-.48.55.55,0,0,1,.54.38c-.1.14.07.35-.17.48A.56.56,0,0,1,316.92,135.39Zm.37,1.07c-.14-.2.07-.41.17-.62a.59.59,0,0,1,.55.38h0c0,.24,0,.51-.21.58A.51.51,0,0,1,317.29,136.46Zm.4,1c0-.17,0-.38.21-.45s.58.05.58.32-.14.37-.24.48A.64.64,0,0,1,317.69,137.42Zm1.19,1.27c-.17-.07-.51,0-.54-.28a.58.58,0,0,1,.14-.51.45.45,0,0,1,.61.38C319.05,138.38,319.08,138.66,318.88,138.69Zm.74.73c-.23,0-.47,0-.54-.31s0-.38.17-.45c.35-.17.17.34.48.24h0A.42.42,0,0,1,319.62,139.42Zm2.66.49c-.27.06-.34-.1-.55-.17-.16.13-.17.41-.44.37a.61.61,0,0,1-.58-.42c-.17.25-.37.21-.61.18a.61.61,0,0,1-.17-.45c0-.2.24-.13.34-.27.38,0,.41.86.82.27.34-.23.61.46.82-.09a.49.49,0,0,1,.58,0A.51.51,0,0,1,322.28,139.91Zm2.91-3.83a.46.46,0,0,1-.16.42c-.11,0-.21,0-.24.1s.2.44,0,.66-.38.05-.24.23h0c-.17.23.17.68-.35.75h-.26c-.07.13.13.24.06.45a.55.55,0,0,1-.61.23c0,.24-.07.52-.28.58s-.34.07-.51-.06c0-.21,0-.49.21-.63.92.39.17-1,1.13-.61a1,1,0,0,1-.07-.61c.17-.14.38-.07.52-.21-.07-.2-.24-.44,0-.62l.34-.2a.78.78,0,0,1-.1-.68l.37-.21a.72.72,0,0,1-.2-.65c.21-.2.68-.13.72.17h0C325.64,135.67,324.65,135.6,325.19,136.08Z" fill="#50d6cc"/><path d="M310.84,181.21s-.08.07-.11,0c-.2-.35.08-.82-.06-1.14l0-.58c.33.52-.18,1.13.13,1.68" fill="#50d6cc"/><path d="M298.46,140.23a.69.69,0,0,1,.17.59,5.93,5.93,0,0,1-1.5-.39c-.2,0-.41-.2-.58,0s-.07.48-.37.34a1,1,0,0,1,.14-.82,1.74,1.74,0,0,1,1.43,0,.71.71,0,0,1,.71.31Z" fill="#50d6cc"/><path d="M298,141.16a.72.72,0,0,1,.65.65l-.1.18c-.82-.56-1.81,0-2.63,0a.54.54,0,0,1,0-.55,1.9,1.9,0,0,1,1.81-.26Z" fill="#50d6cc"/><path d="M298.69,142.74l0,.41a2.36,2.36,0,0,0-1.54-.28l-1.16.4c-.2-.1-.13-.38-.13-.54.37-.41.92-.34,1.36-.51S298.38,142.19,298.69,142.74Z" fill="#50d6cc"/><path d="M308.75,147.25h0a1.63,1.63,0,0,0-1.37.37c.17.42.68.72,1,1.13,0,.18.27.42,0,.49a13.48,13.48,0,0,0-2.2-1.76c-1.19-.83-2.9-.5-3.92-1.74a32.54,32.54,0,0,1-.35-3.64c-.23-1.7-.39-3.5-.55-5.21,0-1.91-.35-4.11-.45-6.07h0c0-.17-.11-.44-.27-.51,0,.17-.08.44.13.48,0,0-.07.1-.14.1a4.34,4.34,0,0,1,.14.61c-.07.8.13,1.62.13,2.38.23,1.05.08,2.15.22,3.11.19,1.44.22,2.95.41,4.53,0,.72.14,1.31.17,1.85s.23,1.31-.11,1.75c-.61-.28-.78-.93-1.12-1.41h-.17c-.11.61-.45,1.13,0,1.71.13.35.4.59.51.93a.23.23,0,0,1-.21,0c-.48-.34-.68-1.16-1.29-1.07a.87.87,0,0,0-.34.58.59.59,0,0,1-.59,0c-.33-.38-.23-.85-.19-1.34.1-.21.37-.1.48-.23s0-.28-.07-.38c-.4-.31-.64-.79-1.32-.62-.48.3-1.37.2-1.44.84a3,3,0,0,0,1.18,1.56c-.14,1.92-.24,3.59-.22,5.54a181.31,181.31,0,0,0,.1,19.8c.49,4.46.88,9.05,1.51,13.34,1,6,2.15,11.71,3.62,17.33a148.22,148.22,0,0,0,5.17,15.5c-.55.86.54.44.61,1.2.1,0,.21.08.27-.06,0-.82-.5-1.49-.33-2.34-.28-4.29-.63-8.3-1-12.62-.16-1.61-.32-3.5-.38-5.15-.2-2.37-.36-4.6-.61-6.93-.29-5.38-.94-10.76-1.22-16.09-.2-1.78-.29-3.36-.39-5.14-.23-.86-.09-1.72-.29-2.57-.35-3.75-.51-7.14-.86-10.92l-.1-.09c0-1.83-.26-3.47-.28-5.26l.06-.1a6.72,6.72,0,0,0,3.46,2.42c.85.42,1.26,1.41,2.45,1.21.65-.2.76-.92,1.16-1.4.08-.14,0-.41.25-.41.14-.17.31-.37.27-.58-.45.41-.58,1-1,1.5,0-.06-.13-.1-.17-.24.11-1.1.9-1.91,1.38-2.87A3.8,3.8,0,0,0,308.75,147.25ZM297,144.69c-.21,0-.3-.17-.37-.35.2-.23.58-.19.88-.3l.07.14A1.44,1.44,0,0,1,297,144.69Zm5.85,14.46h0a52.52,52.52,0,0,0,.49,5.56,22.19,22.19,0,0,0,.22,3.43,2.84,2.84,0,0,1,.07.82c.09,1.93.42,3.94.48,5.77.13.37,0,.78.13,1.23a1.11,1.11,0,0,0,.1.76c-.07.61.09,1.09,0,1.6.17.25,0,.73.1,1a13.63,13.63,0,0,1,.19,2.64c.26,1.44.15,2.92.38,4.46-.07,1.17.33,2.37.29,3.4.2.14-.07.34.06.51a7.63,7.63,0,0,1,.13,1.3c0,1.21.27,2.1.23,3.37.23,1.34.12,2.77.38,4a34.84,34.84,0,0,0,.22,3.7c.23,2.78.39,5.24.61,7.89a6.5,6.5,0,0,1,.17,1.37c.1.65.16,1.48.22,2.23,0,.41.13.79,0,1.17a9.25,9.25,0,0,1-.75-2c-.94-2.53-1.6-5.18-2.41-7.79a30.3,30.3,0,0,1-.76-3.16,3.36,3.36,0,0,1-.34-1.17,42.26,42.26,0,0,1-1.4-7c-.3-.55,0-1-.36-1.62-.2-.44.1-.92-.23-1.33A73.72,73.72,0,0,1,300,180.6c0-.48.48-.82.28-1.33-.29-3-.51-6.26-.7-9.37-.3-1.27.08-2.71-.66-3.85a14.58,14.58,0,0,1-.46-3.05,117.59,117.59,0,0,1-.23-16.7c.34-.07.55.1.82.14h0c1,1.3,2,2.64,3.05,3.85.15,2,.49,3.91.47,5.9C302.87,157.2,302.6,158.12,302.86,159.15Z" fill="#50d6cc"/><path d="M341.39,147.65c-.59,2.58-1.49,5.14-2.22,7.71-.24.41-.24.95-.51,1.33-.66,2.5-1.46,4.9-2.25,7.33-.58-1,.24-1.75.38-2.64.25-1.13.66-2.09.87-3.25.58-1.23.66-2.5,1.31-3.8.49-1.79,1-3.53,1.53-5.2.24-.52.27-1,.48-1.55.13,0,.34-.06.4.07Z" fill="#50d6cc"/><path d="M330,185.77l.1.13c-.1.28-.71.17-.48.58a2.85,2.85,0,0,1,.71.72,8.71,8.71,0,0,1-1.64,2.15l-.31.24A9.61,9.61,0,0,1,328,188a4.28,4.28,0,0,0-.2-1.37c.34-.2.85-.14,1.27-.31a.57.57,0,0,0,0-.41c-.06-.09-.3-.17-.23-.38.43-.06.74.18,1.15.29Zm-4.79,24.9a6.74,6.74,0,0,0,2.55,1.28A1.89,1.89,0,0,0,327,213c-.11.11-.24,0-.35.07a7.92,7.92,0,0,1-2.37-2.83c.24-.57.68.19.92.39Zm4.87,1.64a3.93,3.93,0,0,1,1.65,3.74,2.73,2.73,0,0,1-.15,1.92c-1,.72-1.84-.25-2.76-.39a3.86,3.86,0,0,1-2-2.48c-.26-.38-.33-.89-.64-1.23-.5-.83-2.45-.77-1.62-2.17a13.92,13.92,0,0,0,2.48,2.1c.54,0,.37-.82.78-1a5.21,5.21,0,0,0,1.22,2c.38.51.81,1,1.53.77.24-.21.48-.45.38-.83-.17-.72-.88-1.07-1.22-1.72.1,0,.17,0,.21-.13.06-.38-.21-.62-.44-.93a1.39,1.39,0,0,0-.78-.35c.37-.26.37-.78.65-1.19.13.69.84,1.13.71,1.92Zm-13.05-.55c0,.17.17,0,.24.14a1.25,1.25,0,0,1-.79.44,3,3,0,0,1-2.7.29c-.23-.27-.16-.61-.23-.92.24.28.78,0,1.13,0,.13-.24.4,0,.58-.16.61,0,1.19.14,1.77.21Zm-3.72.74.27.55a1.69,1.69,0,0,0-1.36,1c-.41-.82.44-1.61.79-2.36.27.07.13.52.3.76Zm5.32-.18c.1.69-.69.86-1,1.23a4.55,4.55,0,0,1-2.66.84c-.38-.27-.2-.65-.54-.89v-.17a7.6,7.6,0,0,0,2.52-.54,7.88,7.88,0,0,0,1.13-.68c.2,0,.48-.06.58.21Zm9.84-.16c0,1.16,1.09,1.76,1.49,2.75-.41,0-.37-.48-.68-.68a2.52,2.52,0,0,1-.91-2.07h.1Zm1.06.69c-.21.14-.11.24-.14.41-.34-.27-.3-.72-.41-1.1C329.32,212.24,329.46,212.62,329.56,212.85Zm-15.78.72,0-.41.07.16,0,.25Zm-1.17,2.56c-.34,0-.38.48-.72.47.34-.38.75-.89,1.06-1.29a3.19,3.19,0,0,0,.79-1.55,3.92,3.92,0,0,1-1.13,2.37ZM313,214h0v.17h0Zm1.84.95a9.78,9.78,0,0,0,3.07-.71c-.07.45-1.12.23-.65.79l.68-.17c-.75.68-1.81,1-2.6,1.63-.85.85-1.54,2.32-2.87,2.38l-.92.31v.21c.37.2.71-.18,1.12-.14a2.43,2.43,0,0,1-.95.55c-.48.23-1.16.61-1.6.26a10.42,10.42,0,0,1-.47-2.57c.18-1.61,2-1.78,2.54-3.18.1,0,.17.07.2.21v.24c-.28.72-2.22,1.12-1.13,2.11a.78.78,0,0,0,.84.21,4.64,4.64,0,0,0,2.1-3,1.32,1.32,0,0,0,.64.82Zm-3.17,1.1c.14-.12.3-.37.48-.43C312.13,215.85,311.83,215.85,311.69,216Zm28.58-67.34a.89.89,0,0,1-.34-1l.38-.86a2.11,2.11,0,0,1,0,1.85Zm1.11,2.23c-.17.11-.28.32-.48.38.41-1.19.38-2.85,1.48-3.69a32,32,0,0,1-1,3.31Zm-1.29-1.57c-.35.68-.45,1.43-.76,2.12-.51-.86,0-1.78.35-2.64.14.2.68.14.41.52Z" fill="#50d6cc"/><path d="M319.75,125.45h0Z" fill="#50d6cc"/><path d="M324.05,119.79a3.48,3.48,0,0,0-.85-.86c-1.6-.84-3.27-.33-5-.16-.59.13-.69.79-.93,1.19a3.77,3.77,0,0,0,.66,3.84l0,1.51-.21,0a6.85,6.85,0,0,1,.71,1.72c.67,1.44,2.32.28,3.44.76.75-.23,1-1,1.47-1.67a3.09,3.09,0,0,0-.12-2.33C324.31,122.83,324.25,121.26,324.05,119.79Zm-6.55,1.33c.62-.92,1.77-.06,2.46-.49.34.07.16.62.3.79-.14.3-.17.65-.55.75a2.39,2.39,0,0,1-1.73-.42C318,121.37,317.09,121.67,317.5,121.12Zm3.52,5.09a.21.21,0,0,1,0,.22,1.73,1.73,0,0,1-.2.15.7.7,0,0,1-.29,0,.54.54,0,0,0-.3.06.17.17,0,0,1-.12,0,.18.18,0,0,1-.09-.07.65.65,0,0,1-.13-.23h0a.4.4,0,0,1,0-.19V126l.21.13a.55.55,0,0,0,.29.09h0a1.06,1.06,0,0,0,.5,0,.38.38,0,0,0,.19,0h0a.13.13,0,0,1,0,0Zm.47-.44a3.29,3.29,0,0,0-.7,0h-1.3a3,3,0,0,0-.67.09c-.2-.21.21-.27.31-.34a2.22,2.22,0,0,1,.61-.1l-.05,0c.08,0,.09,0,.06,0h0a.6.6,0,0,1,.47.12l.13,0h0c.08,0,.05,0,0,0,.17,0,.34,0,.4-.15.25,0,.51,0,.77,0l.4.12v0a1,1,0,0,0,.23.1s.1,0,.13.06Zm1.15-3.73c-.48.45-1.19-.35-1.47.38s.71,1,1,1.68a2.12,2.12,0,0,1,.47,1.2c-.55,0-.47-1.2-1.22-.9a1.38,1.38,0,0,1-1.13.34c-.31-.21-.72-.18-1-.48-.4.13-.51.61-.85.84l-.14,0c-.07-.41.27-.61.48-.89s.41-.44.72-.58c.1.11.07.35.27.45.41-.1.89.42,1.19-.13,0-1.09-.77-2.26-.18-3.36.16,0,.16.27.37.24.58.07,1-.27,1.6-.15a4.12,4.12,0,0,1,1,.55.39.39,0,0,1-.2.37C322.88,121.36,323.25,122.18,322.64,122Z" fill="#50d6cc"/><path d="M325.85,167.75l.07,1.73-.33.76h-.25l.29-2.31Z" fill="#50d6cc" fill-rule="evenodd"/><path d="M335.9,164.06c-.4-3.51,1.31-6.51.72-10.08a1.45,1.45,0,0,0-.2-.55l0,1.39c-.11.35.1,1.07-.32,1.17-.12-.75-.12-1.64-.29-2.43h0c-.37-.76-.26-1.95-1.28-2.2-.72-.17-1.16.45-1.51.81a4.49,4.49,0,0,0-1,2.26c.09,1.27.74,2.4.83,3.57a8.11,8.11,0,0,1,.23,1.38c-.07,2.09.33,4,0,5.75-.1.83-.45,1.79-.55,2.65a.25.25,0,0,1-.21.09c-.13-1.06-.19-2.29-.39-3.43l-.17-.24c.13.86-.08,1.72,0,2.47l-.2.21c-.17-.51-.1-1.13-.27-1.61,0-1-.77-2-1-3.06-.61,0-.47-.76-.77-1.13-.17-.14-.41-.18-.48-.38-.44-.32-1,0-1.36,0-.21.1-.48.13-.65.23s-.41.2-.44-.1c.31-.38.78-.38,1.09-.72a2.49,2.49,0,0,0-.68.1,13.5,13.5,0,0,1-5.32.42c-.75-.11-1.39-.29-2.21-.35-.17-.25-.27,0-.48-.21l.07-.07c.92,0,1.8,0,2.76.09,3,.32,5.8-1.35,8.86-.69a.41.41,0,0,0,.24-.38c-.33-.37-1-.34-1.49-.34-.42.16-1.06.06-1.44.23-.41-.13-.54.28-.95.13-.21.28-.62,0-.82.23-.89,0-1.71.2-2.63.13-1.36.33-2.85-.18-4.12,0-1.7-.15-3.1-.5-4.77-.67-.33-.08-.68-.29-1,0,0,.2,0,.38.2.41,1.09.12,2.11.49,3.23.53.55.45-.31,1-.38,1.54a13.36,13.36,0,0,1,0,2c-.14.23,0,.43-.17.61-.37-1.14-.23-2.58-.6-3.75-.17,0-.57-.14-.48.15-.41.46-.27,1.19-.28,1.81,0,.1,0,.24-.2.17a5.71,5.71,0,0,1-.2-1.41c-.07-.37.07-1.16-.54-1.06-1.44,1.23-1,3.18-1.46,4.65a26.2,26.2,0,0,1-1.26,6.48c-.13,1.23-.75,2.53-.76,3.67a8.73,8.73,0,0,1-.15,3.25h0l0,1,.2-.08a7.43,7.43,0,0,1,.23,2.47c.41-.92-.47-2.3.32-3.11.38.28.1.89.1,1.23.1,0,.17.07.24.14.39,2.09,0,3.33.38,5.35.33,1.51.9,3.19.58,4.81,0,1.19.74,2.16,1.14,3.23,0,.47.28.75-.14,1.12-.33-.07-.13-.41-.2-.65a2.89,2.89,0,0,0-.26-.62,5.83,5.83,0,0,0,0,2.09c.07.21-.1.41-.17.62a19.21,19.21,0,0,0,.91,7.48c.1.1,0,.31.13.41s.21.45,0,.62-.27-.18-.41-.2c.06,1.88.77,3.22.63,5.17a2.08,2.08,0,0,1-.25.82,3.21,3.21,0,0,1-.75,1.3,1.15,1.15,0,0,0,.68.25c1.06-.54,2.25-.16,3.33,0a3.25,3.25,0,0,0,1.51.14,5.18,5.18,0,0,0-.58-1.44,5.07,5.07,0,0,0-1.29-.83c0-.1,0-.17.07-.24a.79.79,0,0,1,.61.07c.14,0,.41.15.38-.1a10.82,10.82,0,0,0-.33-2.16c-.24,0-.55.38-.71,0-.07-.14.1-.17.17-.27,1.29-.34.89-1.92,1-2.88-.3.17-.17.71-.58.64-.21-.19-.13-.44-.1-.68,1.52-3.07,1.33-6.34.87-9.73-.45.55-.11,1.27-.42,1.78-.07.07-.24.1-.27,0a6.36,6.36,0,0,1,.07-1.57c1.41-2.49.88-5.79,1.48-8.64.21-1-.23-1.95.22-2.88-.48-.92.41-1.6.18-2.53,0-.07,0-.24-.17-.21s0,.11,0,.17a9.36,9.36,0,0,1-1,2.68c.07.06.14.06.17.09s0,.35,0,.42c-.25.28-.25.89-.75.72-.21-.35.27-.59.27-.93-.2,0-.44.34-.61,0s.07-.45.13-.64c-.13-.05-.3-.08-.33-.25.3-.55.75-1.23.41-1.92.08-.24.38-.27.42-.5a.56.56,0,0,1-.79,0c-.17-.45-.61-.58-.74-1,.31-.27-.1-.86.34-1,.27.28.14.66.2,1,.48.21,0-.72.38-.93.68.21,0,1,.61,1.17.3-.13,0-.78.25-1.09.43.25.32.82.39,1.27.28-.2.15-.72.28-1,.1-.11.21-.11.31,0s-.28,1,.23,1.16c.17-.3.07-.72.21-1,.65-.21.06.82.4,1.06.48-.14,0-.82.52-1,.37.3,0,.89.13,1.19h.13c.17-.27,0-.93.28-1.2.51.21.23,1,.26,1.31l.14.13c.41-.24-.17-1.2.48-1.29.34.37,0,.85.16,1.3.07.07.14.16.24.14.27-.48-.17-.94.21-1.37.58.1.1.55.27,1,.1.09,0,.34.24.34s.06-.41,0-.62-.1-.75.35-.75c.37.38-.11.89.26,1.3.07,0,.17,0,.24,0,0-.55-.27-1.1.14-1.48.45,0,.17.45.24.76s.06.59.4.52c.24-.45-.27-1,.14-1.37.48.1.17.85.44,1.17,0,.51-.65.64-1,.91l0,.07c-.13.14-.33.17-.44.41.16,1.14,0,2.09.5,3.13l.06-.14c.21-.54-.26-1.27.42-1.45.24.29.06.87,0,1.14a37.17,37.17,0,0,0,.13,7.27,22.34,22.34,0,0,1,.56,4.15c-.06,0-.1.14-.17.14a19.58,19.58,0,0,0-.63-2.64,2.29,2.29,0,0,0-.21,1.4,16.62,16.62,0,0,0,.14,6c.09,2.91.52,5.45-.31,8.23.06.55-.58.71-.42,1.23a3.7,3.7,0,0,0,1.54-.61c.21,0,.68-.11.61.21-.58.3-1.1.54-1.67.81.1.44.61.55.84.93.78.41,1.56,1.24,2.62.83.55-.27.59-.88.65-1.37-.3-.27-.78-.14-1.15-.27a2.64,2.64,0,0,1-2.49.2c0-.08,0-.18,0-.21,1.19.38,1.9-.71,3.06-.5a2,2,0,0,1,.51.21h.24a7.44,7.44,0,0,1-.4-1c-.27-.51.27-.89.17-1.3-.44.31-.62,1-1.22.81v-.2c1.81-1.23,1.2-3.63,1.76-5.51.18-2.2,1.21-4.21,1.29-6.44a1.16,1.16,0,0,0,.28-.55c-.17-1.12.31-2.33-.09-3.52-.27,0-.31.34-.48.43l-.13-.09c-.14-.76.37-1.34.72-2-.34,0-.41.45-.58.58-.14.31-.37.42-.58.62,0-.07-.1-.11-.07-.21a12.14,12.14,0,0,1,1.48-2.53,9,9,0,0,1-1,.68c-.07-.07-.17-.14-.1-.24a8.79,8.79,0,0,0,1.73-5.07c-.13-1.16.63-2.25.05-3.36l-.11.11c-.31,1-.79,2.33-1.1,3.39,0,.65-.86,1.23-.11,1.71a.51.51,0,0,1-.24.65c-.17.25.07.3.2.48a.71.71,0,0,1,.06.92c-.92.9-1.4,1.95-2.43,2.6a1.32,1.32,0,0,1-.4-1.24,14.08,14.08,0,0,1-.47-2.71c.18-.44.66-.41,1.07-.47,0-.21-.21-.35-.14-.62s.45-.28.72-.31c.45-1.51.93-3,1.35-4.52.38-.51,0-.89-.2-1.37a.66.66,0,0,0-.48-.17c-.2,0-.27-.24-.27-.45.41-.31,0-1.06.42-1.33.27.24.24.79.33,1.17.45-.27,0-.83.31-1.17.62,0,.17.92.48,1.28a2.25,2.25,0,0,0,.14-1.24c.1-.17.21,0,.37-.13.39-1.07.7-2.19,1-3.29l-.3-.24c-.16-1.55.49-3.09.26-4.7l.1-.07a1,1,0,0,1,.27.69c.44.42.27,1.13.4,1.62.31.06.38-.24.55-.41s.07-.32,0-.41c0-.9-.9-1.69-.33-2.51.35.45.14,1.14.48,1.55.13.89.84,1.48.6,2.36,1.05-.23.34-1.43.72-2.18.55-.08.1.61.37.82.31-.14.18-.65.28-1s.38-.1.58-.3c-.07-.58.55-.85.59-1.4A20.26,20.26,0,0,0,335.9,164.06Zm-21.57,14.52c-.11.15-.18.32-.38.25l-.21-.21c-.17.34-.57.24-.81.41a.24.24,0,0,1-.35,0s-.1-.1-.16-.06-.11.4-.35.48c-.37-.14-.2-.73-.16-1.07.07-.11.1-.24.2-.27s.27.1.27.27a.1.1,0,0,0,0,.07c.2-.07.1-.34.27-.48.41.35.86-.68,1.09.07.07-.1.07-.3.24-.34C314.53,177.74,314.22,178.28,314.33,178.58Zm.61,0a.43.43,0,0,1-.31.13c-.21-.27-.07-.71,0-1l.17-.1A1.31,1.31,0,0,1,314.94,178.56Zm.61-.06h-.27c0-.3-.14-.62.1-.89C315.69,177.74,315.48,178.19,315.55,178.5Zm2.29,6.28.36-.51.15.29-.37.72-.14-.1Zm-1.68-6.25a1,1,0,0,1,0-1c.35.13.21.54.24.86C316.37,178.57,316.27,178.49,316.16,178.53Zm10.15.66c-.06.08-.17,0-.27,0a2,2,0,0,1-.2-1.24c.07,0,.14-.11.21-.13.2.27.13.57.2.92C326.28,178.93,326.41,179.06,326.31,179.19Zm.72-.12c-.37,0-.37-.35-.51-.6a1.49,1.49,0,0,1,.18-.84c.2-.07.27.13.3.23C326.93,178.31,327.27,178.73,327,179.07Zm.38-.21c0-.41-.31-1.06.11-1.43.3.44.2.85.23,1.4A.18.18,0,0,1,327.41,178.86Zm-.76-5.39a5,5,0,0,0-.25,2,.33.33,0,0,1-.27.24c-.38-.21-.1-.76-.24-1.07,0-.89-.3-1.4-.36-2.25l.17-.14c.24.1.17.58.51.44A23.27,23.27,0,0,0,327,170a24.42,24.42,0,0,0,.6-4.77l.18,0h0A34.36,34.36,0,0,1,326.65,173.47Zm1.51,5.29c0-.52-.2-1,.07-1.51.31.41.16.92.27,1.37A.41.41,0,0,1,328.16,178.76Zm1.08-.17c-.17-.07-.27.11-.37,0l-.1-1.14a.39.39,0,0,1,.34-.2c.24.24,0,.73.17.86S329.24,178.38,329.24,178.59Z" fill="#50d6cc"/><path d="M378.92,198.64a.32.32,0,0,1,.08-.25,1.64,1.64,0,0,0,.15-.63,1.59,1.59,0,0,1,.14-.64.81.81,0,0,0,.08-.44c0-.21,0-.41.08-.44a3.24,3.24,0,0,0,.14-.91c.07-.82.06-.87-.15-1.08a3.65,3.65,0,0,0-1.18-.67c-.12,0-.06.34.07.45a.38.38,0,0,1,.14.24c0,.07,0,.12.07.12a.84.84,0,0,1,.22.28,3.19,3.19,0,0,1,.05,1.81c-.05.11-.13.26-.16.34s-.72.24-.72.09-.12-.09-.26-.09a.45.45,0,0,1-.32-.09.62.62,0,0,0-.39-.09,1.15,1.15,0,0,1-.55-.15c-.17-.12-.2-.2-.16-.49a.71.71,0,0,1,.61-.69c.32-.08.4-.27.17-.38l-.33-.16a1,1,0,0,0-.42-.11.37.37,0,0,1-.28-.09.64.64,0,0,0-.4-.09.65.65,0,0,0-.41.09c0,.05,0,.09,0,.09s.11.07.14.16a2.34,2.34,0,0,0,.23.43c.19.29.24.58.1.58s-.09.1-.09.22,0,.23-.45.23a.93.93,0,0,1-.5-.09.36.36,0,0,0-.27-.09,1.3,1.3,0,0,1-.78-.35c-.21-.17-.2-.52,0-1s.28-.46,1-1.08c.32-.27.31-.47,0-.47a.47.47,0,0,0-.32.09.45.45,0,0,1-.29.09c-.42,0-.65.1-.65.27a.28.28,0,0,1-.09.22.36.36,0,0,0-.09.27c0,.12,0,.22-.08.22a1.84,1.84,0,0,0-.14.68,2.14,2.14,0,0,1-.14.72.6.6,0,0,0-.09.39.81.81,0,0,1-.08.42,2,2,0,0,0-.14.64c-.07.66,0,.73.43.29a.88.88,0,0,1,1-.18,2.91,2.91,0,0,0,.76.14,1.42,1.42,0,0,1,.61.13,1.76,1.76,0,0,0,.67.14,2.14,2.14,0,0,1,.72.14s.21.08.4.08a.74.74,0,0,1,.4.08.82.82,0,0,0,.37.13c.42.07.58.21.58.5s.19.52.33.31a.62.62,0,0,0,.12-.36Zm-6,5a.58.58,0,0,0-.11-.37,2.6,2.6,0,0,1-.55-1.13c0-.36.21-.43,1.1-.36a3.35,3.35,0,0,1,.92.14,3.18,3.18,0,0,0,.84.14,2.86,2.86,0,0,1,.79.14s.16.08.31.08a1,1,0,0,1,.42.09,2.53,2.53,0,0,0,.47.13.66.66,0,0,1,.54.65c0,.15.22.15.35,0a2.7,2.7,0,0,0,.16-.77,2.13,2.13,0,0,1,.13-.69.89.89,0,0,0,.08-.45c0-.28,0-.39-.13-.39a.22.22,0,0,0-.18.08,1.61,1.61,0,0,1-.78.36.26.26,0,0,1-.21-.09.74.74,0,0,0-.4-.08c-.2,0-.36,0-.38-.1a4.47,4.47,0,0,0-1.22-.14,5.68,5.68,0,0,1-1.19-.13,1,1,0,0,0-.46-.12c-.94-.13-1-.53-.07-1.4.38-.37.61-.66.57-.72a2.46,2.46,0,0,0-1.45.15c-.29.13-.3.14-.3.7a1.59,1.59,0,0,1-.08.63.79.79,0,0,0-.09.45.81.81,0,0,1-.08.44,1.45,1.45,0,0,0-.14.57,3.35,3.35,0,0,1-.29,1l-.24.47.27.25a2.49,2.49,0,0,0,.8.56.7.7,0,0,1,.26.19.24.24,0,0,0,.21.07c.11,0,.14-.12.13-.33Zm1.1,3.48a3.18,3.18,0,0,0-.43-.23c-.09,0-.16-.09-.16-.13s-.05-.08-.12-.08-.56-.43-.48-.51a3.55,3.55,0,0,1,.8-.1,3.15,3.15,0,0,0,.83-.11.25.25,0,0,1,.26.05c.14.1.16.19.1.59-.1.72-.3.85-.8.52Zm2.34,2.73a.77.77,0,0,0,.12-.36c0-.1,0-.2.09-.22a1.73,1.73,0,0,0,.15-.73c.07-.79,0-.83-.46-.46-.19.14-.32.19-.36.13a.28.28,0,0,0-.22-.09c-.34,0-.48-.26-.41-.8a3.22,3.22,0,0,1,.14-.63,2.26,2.26,0,0,0,.13-.48c0-.27.09-.34.26-.34a.47.47,0,0,0,.3-.1c.16-.16.65.1.65.34a.3.3,0,0,0,.5.21,1.06,1.06,0,0,0,.18-.52,1.85,1.85,0,0,1,.14-.51,2.65,2.65,0,0,0,.13-.7c.06-.57.06-.6-.12-.6a.36.36,0,0,0-.24.08c-.14.24-.68.39-1.46.43a2.19,2.19,0,0,0-.83.13,1.36,1.36,0,0,1-.63.08,1.88,1.88,0,0,0-.67.07,5.59,5.59,0,0,1-1.25.14c-1.44.08-1.76.19-1.76.62s.21.6.42.6c.06,0,.12,0,.12.07s.13.15.29.25l.51.33a3.57,3.57,0,0,0,.51.29,1.39,1.39,0,0,1,.39.27.33.33,0,0,0,.2.14,1.37,1.37,0,0,1,.42.25,5.48,5.48,0,0,0,.76.47,4,4,0,0,1,1.16.74.87.87,0,0,1,.34.55c0,.13,0,.23.09.23s.08.06.08.14.18.17.33,0Zm-6,3.46c.06-.1.08-.21,0-.25a2.93,2.93,0,0,1-.57-1.47v-.42h.49a1,1,0,0,1,.54.09,1.26,1.26,0,0,0,.5.14,1.39,1.39,0,0,1,.5.14.45.45,0,0,0,.3.08.52.52,0,0,1,.32.08,1,1,0,0,0,.47.15,1.62,1.62,0,0,1,.52.13,1.47,1.47,0,0,0,.36.12,1.5,1.5,0,0,1,1.25,1c.06.17.07.17.23-.05a1.71,1.71,0,0,0,.23-.58,2.22,2.22,0,0,1,.13-.49,3,3,0,0,0,.31-.92c.05-.29,0-.34-.12-.34a.67.67,0,0,0-.37.22c-.22.23-.66.31-.76.14a1.18,1.18,0,0,0-.48-.14,2,2,0,0,1-.51-.13,2.07,2.07,0,0,0-.52-.13,1.06,1.06,0,0,1-.47-.14.45.45,0,0,0-.32-.09c-.14,0-.28,0-.3-.08a.85.85,0,0,0-.38-.14,2.15,2.15,0,0,1-.47-.13,2.61,2.61,0,0,0-.41-.15.79.79,0,0,1-.35-.23.91.91,0,0,1,.25-.92c.66-.36,1.15-.93.83-1a5.15,5.15,0,0,0-1.48.13,1,1,0,0,0-.11.57c0,.27,0,.48-.07.48s-.29.48-.35.87a1.43,1.43,0,0,1-.12.44,1.88,1.88,0,0,0-.12.47,1.47,1.47,0,0,1-.36.84.88.88,0,0,0-.11.4c0,.31,0,.39.27.69a1.48,1.48,0,0,0,.39.33,1,1,0,0,1,.29.23c.26.27.37.28.53,0Zm-2,4c-.6-.31-.93-.56-.93-.73a4.26,4.26,0,0,1,.77-1.4,1,1,0,0,1,1.36,0,.68.68,0,0,1,.29.67c0,.57-.58,1.73-.84,1.7a5.15,5.15,0,0,1-.65-.29Zm4,3a6.17,6.17,0,0,0,.38-.88.64.64,0,0,1,.13-.3c.29-.38,0-.73-.32-.37-.16.2-.83.17-1.23,0a1.55,1.55,0,0,0-.45-.18c-.06,0-.11,0-.11-.07s-.13-.12-.29-.19A2.06,2.06,0,0,1,370,218c-.22-.19,0-.47.35-.47a.49.49,0,0,0,.34-.09,1.23,1.23,0,0,1,.59-.09,1.35,1.35,0,0,0,.57-.07,2.9,2.9,0,0,1,.92-.14,2.11,2.11,0,0,0,1-.21c.37-.33.8-1.64.53-1.64a.87.87,0,0,0-.28.22.68.68,0,0,1-.46.23c-.14,0-.27,0-.3.08a3.26,3.26,0,0,1-.92.14,4.67,4.67,0,0,0-1.09.16c-.36.18-.5,0-.53-.71,0-.89-.36-1.45-.92-1.6a2.14,2.14,0,0,1-.42-.16c-.16-.07-.28,0-.59.09a2,2,0,0,0-.51.33.36.36,0,0,1-.24.14.23.23,0,0,0-.19.16,2.73,2.73,0,0,1-.35.51,2.09,2.09,0,0,0-.35.61c0,.14-.1.25-.14.25s-.08.07-.08.15a2.75,2.75,0,0,1-.27.7,3,3,0,0,0-.27.67.6.6,0,0,1-.18.31,1.36,1.36,0,0,0-.23.57c0,.32,0,.38.08.38s.15,0,.15-.07.53-.38.73-.38.17,0,.17.08.13.11.28.15a2.07,2.07,0,0,1,.56.23,2.72,2.72,0,0,0,.44.23c.08,0,.15.09.15.13s.09.08.18.08a1.52,1.52,0,0,1,.52.18,1.52,1.52,0,0,0,.44.18.16.16,0,0,1,.14.07,7,7,0,0,0,1.28.65c.16,0,.41.4.41.66s.16.54.31.41a4.74,4.74,0,0,0,.48-.83Zm-3.48,5.82a2.16,2.16,0,0,1,.37-.59,2.53,2.53,0,0,0,.25-.42,1.92,1.92,0,0,1,.33-.49,2.13,2.13,0,0,0,.33-.52,2.51,2.51,0,0,1,.38-.59c.41-.38.33-.83-.25-1.58a1.28,1.28,0,0,1-.25-.43s-.08-.1-.18-.1-.18.06-.18.31a.57.57,0,0,0,.09.37,3.14,3.14,0,0,1,0,1.43.6.6,0,0,0-.14.32c0,.14-.1.27-.15.27a.09.09,0,0,0-.08.1c0,.19-.29.43-.53.43a1.14,1.14,0,0,1-.46-.13l-.35-.19a1.78,1.78,0,0,1-.32-.23l-.47-.4c-.32-.25-.38-.57-.16-.75a.35.35,0,0,0,.14-.21.77.77,0,0,1,.19-.3c.16-.17.29-.21.68-.21s.47,0,.47-.09a1.89,1.89,0,0,0-.64-.66l-.48-.28a1.48,1.48,0,0,0-.57-.22c-.19,0-.2,0-.15.24a.44.44,0,0,0,.15.28c.16.06.09.38-.21.91,0,.07-.11.23-.16.35s-.14.2-.34.15a1.22,1.22,0,0,1-.43-.24.65.65,0,0,0-.29-.17,1.53,1.53,0,0,1-.47-.33c-.41-.37-.46-.67-.16-1a2.52,2.52,0,0,0,.29-.4,1.24,1.24,0,0,1,.46-.39,2.7,2.7,0,0,0,.4-.23,1.17,1.17,0,0,1,.4-.11,1.09,1.09,0,0,0,.44-.15c.13-.13-.1-.36-.38-.36a.57.57,0,0,1-.34-.1.92.92,0,0,0-.48-.07c-.36,0-.41.06-.6.43a1.71,1.71,0,0,1-.31.46c-.09.06-.2.23-.48.78a1.71,1.71,0,0,1-.28.39.32.32,0,0,0-.12.19,1.21,1.21,0,0,1-.23.37l-.3.38a1,1,0,0,0-.15.31,1.21,1.21,0,0,1-.23.39c-.09.09-.14.21-.12.25s.37.09.49-.06.71-.12,1.94.72a2.53,2.53,0,0,1,.3.23.7.7,0,0,0,.18.11,4.46,4.46,0,0,1,.81.54l.42.33a.93.93,0,0,0,.33.14,1.44,1.44,0,0,1,.54.41c.33.35.41.68.22.87s-.07.14,0,.25.15.12.43-.2a2.6,2.6,0,0,0,.38-.53Zm-7.14,1.39a1.46,1.46,0,0,0-.47-.36.22.22,0,0,1-.18-.16,1.24,1.24,0,0,0-.18-.31c-.11-.13-.11-.18,0-.4a1.94,1.94,0,0,1,1.41-1c.3,0,.41.06.7.38.49.53.47.86-.1,1.56l-.36.47c-.19.29-.46.24-.85-.16Zm2.82,2.35a.41.41,0,0,1-.2-.17.27.27,0,0,0-.18-.12,1.91,1.91,0,0,1-.56-.45,2,2,0,0,0-.56-.45c-.06,0-.11-.1-.11-.23s.15-.39.51-.76c.52-.52.53-.53,1-.53a1,1,0,0,1,.92.37c.39.35.4.39.4.88s0,.56-.13.63a.34.34,0,0,0-.14.22c0,.15-.45.56-.67.62a.68.68,0,0,1-.32,0Zm-.05,1.48c.33-.35.8-.85,1.05-1.1a2.38,2.38,0,0,0,.44-.55,1,1,0,0,1,.27-.34,1,1,0,0,0,.27-.35.6.6,0,0,1,.2-.25c.17-.15.2-.27.2-.84a1.6,1.6,0,0,0-.11-.78.41.41,0,0,1-.11-.25.7.7,0,0,0-.25-.37,1.66,1.66,0,0,0-1.47-.46l-.7,0v-.41a1.55,1.55,0,0,0-.12-.6c-.22-.4-.64-.79-.84-.79s-.21,0-.21-.08-.14-.09-.32-.09-.31,0-.31.08-.14.11-.32.15-.53.28-1.48,1.28a12.83,12.83,0,0,0-1.16,1.31,1.13,1.13,0,0,1-.32.41,1,1,0,0,0-.31.47c0,.15,0,.17.34.11a1.22,1.22,0,0,0,.44-.15q.12-.11.12,0c0,.06.08.11.19.11a3.28,3.28,0,0,1,1,.71,6.89,6.89,0,0,0,.87.72,1.63,1.63,0,0,1,.44.36,1.5,1.5,0,0,0,.43.36,4.24,4.24,0,0,1,1,1.07c.08.15.08.25,0,.31s-.12.59,0,.59a3.23,3.23,0,0,0,.72-.65Zm-2.18,2.43c.94-1,1.07-1.24.62-1.24-.15,0-.27,0-.27.09s-.11.09-.24.09-.38-.13-.71-.45a4,4,0,0,0-.68-.57.86.86,0,0,1-.33-.35c-.06-.13-.16-.24-.22-.24a6.68,6.68,0,0,1-1-.9l-.9-.9,0-.54c0-.33,0-.54-.07-.54a9.25,9.25,0,0,0-1.89,2c0,.17,0,.18.5.13l.5,0,1.14,1.14a11.91,11.91,0,0,0,1.24,1.13,3.64,3.64,0,0,1,.66.58l.57.57-.05.46c-.07.79,0,.76,1.11-.37Zm-5.13,4.65a.74.74,0,0,1,.3-.23,5.73,5.73,0,0,0,.78-.72,5.23,5.23,0,0,1,.78-.72,1.66,1.66,0,0,0,.43-.36,1.66,1.66,0,0,1,.46-.36.59.59,0,0,0,.26-.17c.13-.14.15-.27.1-.6a1.46,1.46,0,0,0-.14-.52,1.4,1.4,0,0,1-.14-.45c-.09-.45-.27-.66-.48-.53s-.15.25-.17.67a3,3,0,0,1-.88,1.94c-.58.58-.75.54-1.6-.36l-1.13-1.19a2.73,2.73,0,0,1-.5-.68,1.36,1.36,0,0,0-.35-.49c-.55-.54-.73-1-.49-1.27a.24.24,0,0,0,.05-.24c-.06-.16-.33-.2-.33-.06a.1.1,0,0,1-.11.09,1.7,1.7,0,0,0-.52.41,1.77,1.77,0,0,1-.48.4,2,2,0,0,0-.77.82.3.3,0,0,0,.45.28c.32-.21.61-.13,1,.28a2,2,0,0,1,.4.48,2.86,2.86,0,0,0,.5.57,2.22,2.22,0,0,1,.49.59,2.29,2.29,0,0,0,.45.6,4.36,4.36,0,0,1,.45.55,1.73,1.73,0,0,0,.32.44c.17.2.27.39.22.4s-.09.13-.09.25,0,.22-.09.22-.12.16,0,.3.47,0,.79-.34Zm-10.58,1.62c-.08-.1-.08-.17,0-.31s.07-.22-.13-.48-.32-.79-.15-.79.09-.06.09-.14a.13.13,0,0,1,.14-.13c.07,0,.13,0,.13-.08s.12-.11.27-.15a.6.6,0,0,0,.32-.14.82.82,0,0,1,.43-.08.72.72,0,0,1,.65.28c.23.23.26.34.26.78,0,.6-.21.91-.6.91a.4.4,0,0,0-.29.09,1.59,1.59,0,0,1-.82.36.41.41,0,0,1-.3-.12Zm1.69,2.84a11.08,11.08,0,0,1-.73-1.28,1.49,1.49,0,0,0-.27-.43c-.19-.08-.05-.35.24-.47s.32-.15.32-.19.12-.09.27-.12a.74.74,0,0,0,.32-.14s.24-.09.47-.09.47,0,.78.37.36.37.36,1-.07.83-.41,1l-.53.28c-.47.27-.64.28-.82.07Zm-.89,1.68a.73.73,0,0,1,.27-.13,2.63,2.63,0,0,0,.49-.26,3.46,3.46,0,0,1,.63-.36,2.54,2.54,0,0,0,.54-.33,1.56,1.56,0,0,1,.4-.22.69.69,0,0,0,.28-.15,1.57,1.57,0,0,1,.44-.28,1.61,1.61,0,0,0,.77-.87,1.92,1.92,0,0,1,.14-.29A2,2,0,0,0,351,240a.32.32,0,0,1-.07-.22.2.2,0,0,0-.11-.18l-.34-.17a1.11,1.11,0,0,0-.46-.1h-.25v-.85c0-.78,0-.86-.22-1.08a1.68,1.68,0,0,0-1.4-.53,4.48,4.48,0,0,0-1.69.7c-.15.1-.42.26-.61.36a1,1,0,0,0-.34.23s-.11.1-.24.13a1.75,1.75,0,0,0-.54.28,1.23,1.23,0,0,1-.36.22.53.53,0,0,0-.25.18c-.16.17-.16.19,0,.33s.19.13.3.06.55,0,.75.28.08.13,0,.13-.19.13,0,.27a.42.42,0,0,1,.13.23.91.91,0,0,0,.22.38,1.49,1.49,0,0,1,.28.5c0,.13.1.24.14.24s.09.12.13.27a.68.68,0,0,0,.22.38.7.7,0,0,1,.22.34,1.34,1.34,0,0,0,.23.4c.42.48.58,1.26.31,1.48a.39.39,0,0,0-.07.48c.07.07.41,0,.48-.12Zm-4.69,2,.2-.06-.05-3.15-.06-3.15L343,240a.68.68,0,0,1,.38-.25.15.15,0,0,0,.17-.17c0-.24-.13-.3-.38-.17l-.37.19a3.46,3.46,0,0,1-.65.13c-.27,0-.49.08-.49.12s-.12.1-.26.13a.74.74,0,0,0-.33.14c-.07.12.13.35.31.35a.75.75,0,0,1,.35.2c.17.16.2.29.2.71a1.13,1.13,0,0,0,.09.57,10.44,10.44,0,0,1,0,2.5c-.07.08-.93-.74-.93-.88a3,3,0,0,0-.53-.63,2.85,2.85,0,0,1-.54-.63c0-.06-.1-.18-.23-.27s-.32-.69-.13-.8a.47.47,0,0,0,.09-.32c0-.22,0-.27-.21-.27a.79.79,0,0,0-.38.13.71.71,0,0,1-.38.14c-.11,0-.2,0-.2.08s-.12.11-.27.15a2.13,2.13,0,0,0-.52.18,1.1,1.1,0,0,1-.35.13c-.17,0-.14.37,0,.5a.74.74,0,0,0,.31.13,4.7,4.7,0,0,1,1.24,1.15,2.43,2.43,0,0,0,.41.47,2.7,2.7,0,0,1,.47.55c0,.08.54.65,1.13,1.28,1.07,1.14,1.16,1.2,1.65,1.07Zm-8.06,2.26c.09-.11.33-.14,1-.14a5,5,0,0,0,1.08-.08l.58-.28c.55-.25,1.24-1,1.24-1.32a.57.57,0,0,1,.11-.36c.08-.08.08-.16,0-.31a3.14,3.14,0,0,1-.15-.49,1.56,1.56,0,0,0-1-.93.51.51,0,0,1-.32-.11,2.78,2.78,0,0,0-1-.14,3.37,3.37,0,0,1-1-.12,1.72,1.72,0,0,0-.62-.08c-.57,0-1.22-.23-1.22-.42a.11.11,0,0,0-.1-.12c-.14,0-.09-.48.08-.67a1.33,1.33,0,0,1,.95-.49.57.57,0,0,0,.37-.09.36.36,0,0,1,.27-.09c.12,0,.22,0,.22.09s.18.09.41.09a1.08,1.08,0,0,1,.7.21c.37.29.71.37.85.21s-.06-.57-.61-1.17l-.44-.47-.25.24c-.23.22-.34.24-1.2.28a2.52,2.52,0,0,0-1.36.28,3.27,3.27,0,0,0-1.09,1c-.17.25-.22,1.31-.06,1.31a.1.1,0,0,1,.09.11,1.56,1.56,0,0,0,.69.7c.06,0,.12,0,.12.09s.09.09.2.09a.49.49,0,0,1,.3.09,5.78,5.78,0,0,0,1.32.15,5.23,5.23,0,0,1,1.23.13s.18.08.4.08a.87.87,0,0,1,.53.13.42.42,0,0,0,.23.14s.09.06.09.13,0,.14.09.14.11.5,0,.63a.37.37,0,0,0-.14.21c0,.11-.62.41-.84.41a.25.25,0,0,0-.19.09,1.71,1.71,0,0,1-.72.09,1.68,1.68,0,0,1-.71-.09.25.25,0,0,0-.19-.09,2.17,2.17,0,0,1-.94-.44c0-.1-.34-.19-.5-.12s-.17.47,0,.47.09.06.09.12a.67.67,0,0,0,.22.33.79.79,0,0,1,.22.3c0,.33.68.55.9.29Z" fill="#50d6cc"/><path d="M378.13,138.78c.26-.32.38-.33,2.68-.38s2.43,0,2.68.26c.46.54.63.38.63-.64s-.15-1.27-.5-.74c-.24.36-.27.37-2.28.37a8.26,8.26,0,0,1-2-.13,24.23,24.23,0,0,1,3.84-1.63c.57-.21.83-.38.8-.53a4.37,4.37,0,0,0-1.35-.8,13.59,13.59,0,0,1-3.14-1.63c0-.07.31-.09.69,0l1.92.17c1.07.09,1.27.15,1.58.48s.37.34.48.16a5.83,5.83,0,0,0,.07-2.18,1.68,1.68,0,0,0-.42.22c-.28.18-.56.2-1.71.07-.75-.08-1.81-.14-2.35-.14-.88,0-1,0-1.28-.4-.44-.55-.61-.27-.56.91l.05,1,1.55.66c1.67.71,2.36,1.11,2.25,1.3a13.82,13.82,0,0,1-2,.81,5.81,5.81,0,0,0-2.06,1,2.52,2.52,0,0,0-.07,1.11c0,.46.08.88.08.94s.17.11.44-.22Zm1.56,7.32c.41-.06,1.51-.16,2.44-.22,1.55-.09,1.73-.08,2,.17l.31.28-.09-2.12c-.05-1.16-.13-2.26-.18-2.44s-.31-.39-.82-.56a2,2,0,0,0-.8-.16c-.05,0,.12.26.38.47a2.61,2.61,0,0,1,1,1.9c.13,1-.13,1.21-1.42,1.33-.88.08-1,.06-1.19-.26a1.43,1.43,0,0,1,.06-1.66c.53-.49.37-.71-.45-.63s-1,.18-.67.53a3.34,3.34,0,0,1,.41,2.1,2.83,2.83,0,0,1-1,.21c-1.09.1-1.25-.07-1.27-1.33a1.85,1.85,0,0,1,.33-1.39c.18-.26.3-.5.26-.55s-1,.26-1.09.5a26.2,26.2,0,0,0,.35,4.41l.08.36.33-.41a1.44,1.44,0,0,1,1.06-.53Zm1.22,8.28a2.43,2.43,0,0,0-.59-.76c-.54-.53-.75-1.11-.46-1.29.07,0,1.12-.23,2.35-.41,2.1-.31,2.26-.31,2.65-.08s.42.22.42,0a12,12,0,0,0-.34-2s-.22.09-.41.28-.65.39-2.09.6c-1,.14-2,.27-2.34.29-.57,0-.58,0-.62-.53a1.88,1.88,0,0,1,.33-1.2c.45-.76.29-.84-.67-.35-.5.25-.58.36-.5.62a32.06,32.06,0,0,1,.58,4.24c-.1.25.18.47.81.65s.88.2.88,0Zm.14,7.13c.15-.4.34-.47,2.92-1,1.94-.42,2.38-.45,2.63-.14a.57.57,0,0,0,.33.21c.16,0,.15-.08-.44-2.84l-.4-1.9-.58-.19a2.75,2.75,0,0,0-.88-.14c-.25,0-.22.1.24.41a2.45,2.45,0,0,1,1.13,1.88c.15.73.14.82-.12,1.09a3.08,3.08,0,0,1-2.21.28,2.31,2.31,0,0,1-.23-.87c-.08-.63,0-.78.23-1s.27-.34.16-.4a3.27,3.27,0,0,0-1.68.25c-.28.15-.28.15,0,.27a1.52,1.52,0,0,1,.8,1.44l0,.66-.87.17c-1.13.23-1.32.11-1.44-.86a3,3,0,0,1,.23-1.81c.26-.56.07-.66-.52-.26-.43.29-.54.45-.48.69s.18,1,.31,1.92a6.92,6.92,0,0,0,.6,2.56s.13-.16.2-.36Zm1,4.89c0-.29.47-.58,1.21-.74,3.68-.8,4.09-.86,4.27-.58s.36.14.36-.26a3.22,3.22,0,0,0-.56-1.75c-.09,0-.17.05-.17.17,0,.33-.35.45-2.7,1s-2.43.52-2.77.14c-.15-.16-.32-.24-.38-.18a7.05,7.05,0,0,0,.39,2.25c.11.17.35.16.35,0Zm1,7.24c.1-.24.71-.61,2.21-1.35,3-1.45,3.27-1.61,3.32-1.86s-.5-.83-1-.83a31.2,31.2,0,0,1-4.32-1,2.73,2.73,0,0,1-.74-.47c-.2-.18-.38-.25-.46-.17a4.88,4.88,0,0,0,.16,2c.05.05.3-.06.54-.24l.45-.33,1.43.27c2.09.4,2.1.47.24,1.44a16.12,16.12,0,0,1-1.68.82.78.78,0,0,1-.34-.22c-.37-.37-.55-.11-.45.64.17,1.35.23,1.63.37,1.63s.2-.15.27-.34Zm1.4,5.75a1.72,1.72,0,0,1-1.47-1.94c.18-1,.83-1.29,2.69-1.3a4.54,4.54,0,0,1,2,.25,1.61,1.61,0,0,1-.47,3,7.7,7.7,0,0,1-2.71,0Zm3.14,1a2.65,2.65,0,0,0,1.33-2.69,14.57,14.57,0,0,1,0-3.07c.15-1.12,0-1.2-.41-.17a1.84,1.84,0,0,1-.46.81,1.15,1.15,0,0,1-.66-.18,5.14,5.14,0,0,0-2.85-.22,3.65,3.65,0,0,0-2.1,2,3,3,0,0,0,1.53,3.49,4.68,4.68,0,0,0,3.58,0Z" fill="#50d6cc"/><path d="M266.56,212.31a2,2,0,0,1-.39-.6,1.33,1.33,0,0,0-.09-.36c-.09-.23.33-.52,1.23-.86.6-.23,1,.25,1,1.19s-.19,1.1-.86,1.1a1,1,0,0,1-.89-.47Zm1.81,1.7a1.56,1.56,0,0,0,.88-1.58c0-.94-1.48-4.39-1.85-4.39-.07,0-.18.22-.26.5-.12.45-.33.59-2.19,1.53-2,1-2.68,1.2-3,.85s-.35.37.12,1.4.86,1.36.94.65c0-.34.23-.51,1-.91a5.55,5.55,0,0,1,1.1-.5c.1,0,.4.41.67.92.8,1.5,1.57,1.94,2.65,1.53Zm.28,7.42c.68-.11.77-.49.15-.64-1-.23-2.18-1.37-2.18-2.07,0-.17.71-.69,2-1.5,1.93-1.19,2.06-1.24,2.7-1.15s.66.07.56-.18a11.28,11.28,0,0,0-1.5-2.19c-.06,0-.11.2-.11.45,0,.41-.16.56-1.5,1.43-2.55,1.67-2.94,1.87-3.26,1.66s-.76-.22-.64.09a41.48,41.48,0,0,0,2.54,4.2.57.57,0,0,0,.41.06,7.84,7.84,0,0,1,.8-.16Zm3.84,2.13c-.14-.23-.19-.45-.11-.52a3.41,3.41,0,0,1,1.36-.44,3.21,3.21,0,0,1-.85,1.35c-.08,0-.25-.18-.4-.39Zm.1,4.18a11.51,11.51,0,0,1,1.61-3.12c.88-1.46,1.6-2.72,1.6-2.79,0-.36-.47-.53-1-.37l-1.41.4c-.47.12-1.55.45-2.42.71a5.13,5.13,0,0,1-2,.39c-.53-.14-.55-.14-.61,0s1.34,1.88,1.51,1.78.1-.25,0-.45c-.1-.39.28-.74,1-.92.33-.08.47,0,.88.48.57.71.61,1.31.12,1.81a.82.82,0,0,1-.77.28c-.22,0-.41,0-.41,0,0,.38,1.51,2.42,1.7,2.3a.84.84,0,0,0,.14-.56Zm5.32,4.37c.71-.45.29-.78-.65-.52a1.34,1.34,0,0,1-1.22-.08,1.71,1.71,0,0,1-1-1.56c0-.83,1.4-2.55,2.58-3.16.58-.3.69-.3,1.35,0a2.37,2.37,0,0,1,1.11,2.08c0,.69.22.74.54.12s.3-1.17.07-1.31a3,3,0,0,1-.52-.68,3.38,3.38,0,0,0-2.37-1.38,4.38,4.38,0,0,0-3.8,4.15C274.19,231.72,276.41,233.05,277.91,232.11Zm1.74,3.41c0-.47.16-.75,2.15-2.83,1.25-1.31,1.4-1.41,1.81-1.32.71.15.57-.23-.45-1.2s-1.31-1.09-1.18-.36c.09.48,0,.61-1.59,2.35s-1.71,1.85-2.22,1.78c-.75-.1-.68.16.3,1.23s1.27,1.05,1.18.35Zm4.89,3.63c-.77-.32-1.39-.82-1.39-1.11a17.11,17.11,0,0,1,3.2-4.15,2.07,2.07,0,0,1,.92.59c.55.53.62.66.62,1.32a4,4,0,0,1-1.49,2.71c-.78.76-1.22.91-1.86.64Zm2.26.64a4.2,4.2,0,0,0,2-2.21A1.83,1.83,0,0,0,289,236a3.9,3.9,0,0,0-.72-1.42,11.41,11.41,0,0,0-3.33-2.51c-.25,0-.28,0-.13.19.46.46,0,1.36-1.58,3.19-.33.39-.76.9-.93,1.15a.94.94,0,0,1-.84.46c-.28,0-.53.09-.56.17s.38.49.9.9,1.17,1,1.43,1.22a2.16,2.16,0,0,0,2,.83,3.28,3.28,0,0,0,1.62-.37Zm3.46.65a2.88,2.88,0,0,1-.37-.22c-.12-.11.49-.67.72-.67a1,1,0,0,0,.52-.25c.38-.35.48-.19.21.34a6.31,6.31,0,0,0-.3.71c-.1.31-.34.34-.78.09Zm1.8,4.37c.06-.06,0-.23-.05-.39a15.3,15.3,0,0,1,.59-4.82,2.38,2.38,0,0,0,.24-1.23c0-1.4-.18-1.4-1.76,0a11.84,11.84,0,0,1-1.58,1.22,7.38,7.38,0,0,0-1.19.89c-.81.72-1.28,1-1.59.93-.79-.14-.5.3.61.94a2.15,2.15,0,0,0,.89.36c.06,0,.07-.28,0-.53s0-.55.34-.92c.53-.55.68-.55,1.46-.06s.83.66.65,1.41c-.11.47-.23.6-.63.72s-.49.19-.49.24a15.14,15.14,0,0,0,2.31,1.37.31.31,0,0,0,.18-.09Zm8.37,2.84a1.11,1.11,0,0,0-.19-.45c-.21-.34-.15-.53,1-3.45.45-1.18.69-1.6,1-1.73.59-.26.31-.57-.81-.87l-1-.28-.47.58a16.06,16.06,0,0,1-2.17,2.49c-.13,0-.15-.48-.09-2l.08-2-.86-.41a6.6,6.6,0,0,0-.95-.42c-.24,0-.5.54-.37.77a3.86,3.86,0,0,1-.4,1.76c-.29.84-.65,1.86-.79,2.28a1.78,1.78,0,0,1-.69,1c-.6.34-.46.63.46.94s1.11.19.82-.37c-.15-.27-.1-.56.28-1.63a11.32,11.32,0,0,1,1-2.55,13.6,13.6,0,0,1,0,2.48c-.1,2.37-.08,2.62.16,2.82s.18.39,2.24-2.25c1.25-1.6,1.66-2,1.45-1.48-.06.16-.27.86-.48,1.55-.45,1.55-.77,2.2-1.15,2.3a.31.31,0,0,0-.1.6c.6.39,2.1.64,2.1.35Z" fill="#50d6cc"/><path d="M348.11,94.88a102.37,102.37,0,0,0-8.27-10.16,12.81,12.81,0,0,1-1.41-1.63c0-.58-12.3-11.39-17.2-15.12-2.63-2-2.83-2.1-2.83-1.39,0,.38-.68.8-1.08.67a1.21,1.21,0,0,1-.56-.46c-.23-.35-.31-.37-1.73-.32s-1.5.07-1.78.45-.31.41.05.78a.81.81,0,0,1-.19,1.34,6.24,6.24,0,0,0-.86.64,1.07,1.07,0,0,1-1.11.36c-.6-.09-.79,0-1.53,1.13a2.69,2.69,0,0,1-.72.64,4,4,0,0,0-1,1,8.26,8.26,0,0,1-1.4,1.49c-.94.77-1.16,1.25-.66,1.43a2.6,2.6,0,0,1,1.43,1.35c.16.49.23.55.72.55s.66.11,1.18.69a1.87,1.87,0,0,0,.95.69,1.78,1.78,0,0,1,.86.56c1,1,2.13,1.28,2.7.57l.33-.42.89.79a12.13,12.13,0,0,0,3.67,2.06c.61.22,1,.67,1.6,2a10.15,10.15,0,0,0,.73,1.31,2.19,2.19,0,0,1,.39,1.47c0,.82,0,.9.44,1.11s.53.2,1.58-.18a6.82,6.82,0,0,1,2.84-.41,5.34,5.34,0,0,1,2.75.43l1.06.44,1.39-.43a14,14,0,0,1,2.45-.5c2-.14,4.17.58,4.78,1.59.78,1.28-.17,3-1.89,3.33a4,4,0,0,1-2.87-.45c-.74-.37-.86-.39-1.31-.21a6.24,6.24,0,0,1-3.75.67,10.84,10.84,0,0,1-2.16-.53l-.91-.37-1,.45a7.3,7.3,0,0,1-1.78.53,9.26,9.26,0,0,1-3.7-.72c-.81-.4-.78-.4-1.95.13a5.63,5.63,0,0,1-5.21-.15l-1-.46-1,.47a5,5,0,0,1-5.25,0,8.43,8.43,0,0,0-1.34-.6,2.25,2.25,0,0,0-.7.36,6.6,6.6,0,0,1-3.93.93c-2,0-3.41-.38-4.21-1.16a2,2,0,0,1,.14-3,5,5,0,0,1,2.67-.85,9.61,9.61,0,0,1,3,.68c.39.2.49.19,1.26-.19a4.26,4.26,0,0,1,2.46-.41,5.26,5.26,0,0,1,2.63.42c1,.4,1,.41,1.66.16.35-.13.64-.32.64-.42a2.8,2.8,0,0,0-.88-.7c-2.8-1.74-5.9-3.93-5.9-4.17a7.67,7.67,0,0,0-1.11-1.06c-1.88-1.64-5-5.55-5.14-6.54-.13-.7.05-1,1.12-2.22.52-.57,1.39-1.63,1.93-2.35A7.24,7.24,0,0,1,301.35,69l2.45-1.59c1.88-1.22,2.33-1.67,2.29-2.28a.72.72,0,0,1,.31-.74,2.72,2.72,0,0,0,.66-.9c.43-.89.86-.94,1.61-.21l.57.55.63-.24a1.06,1.06,0,0,0,.8-.83,5.07,5.07,0,0,1,.56-1.15,3.83,3.83,0,0,0,.38-.64,2.63,2.63,0,0,0-.47-.5,1.56,1.56,0,0,1-.32-2.09c.25-.22.45-.26,1-.18a7.32,7.32,0,0,0,1.2.08c2.41-.07,2.36-.07,3.39.47a10.11,10.11,0,0,1,2.05,1.57c1,1,1.05,1,1.41.81s.73-.18,1.23.38c.28.31.28.33-.12,1.1a4.62,4.62,0,0,0-.41,1c0,.1.26.37.58.58.78.52,5.13,4,7.13,5.66,1.71,1.44,3.38,3,7.15,6.54,2.43,2.31,6.36,6.52,6.3,6.75a36.57,36.57,0,0,0,3.07,4c1.27,1.53,4,6.82,4.16,8.15.09.66-.27.51-.83-.33Zm-1.24-3.23a34.85,34.85,0,0,0-4.4-6.44,20.38,20.38,0,0,1-1.58-2.1c-.38-1-6.4-6.93-11.63-11.48-1.52-1.32-2.48-2.11-6.16-5.08-.6-.48-1.56-1.2-2.16-1.6l-1.07-.74-.36.42a1.06,1.06,0,0,0-.31.67,18.73,18.73,0,0,0,2.51,2.16c3.56,2.76,5.94,4.76,11.31,9.5a77.76,77.76,0,0,1,6.32,6.11,13.75,13.75,0,0,0,1.43,1.69,81.68,81.68,0,0,1,5.56,6.65,6.9,6.9,0,0,0,1,1.28,4.53,4.53,0,0,0-.47-1Zm-46.34.44c1-.24,2.22-.87,2.22-1.18s-1.93-1.6-3-2a6.42,6.42,0,0,0-3.87-.08c-1.17.52-1.56,1.63-.82,2.36,1,1,3.5,1.4,5.48.93Zm15.48,0a.46.46,0,0,1,.35-.15,2.31,2.31,0,0,0,.8-.33l.53-.32-.61-.54c-.34-.29-.82-.72-1.07-1a7.82,7.82,0,0,0-1.24-.85,7.34,7.34,0,0,0-4.78-.26c-.5.16-.94.39-1,.51s2.46,2,3.56,2.45a10.88,10.88,0,0,0,3.06.59.43.43,0,0,0,.36-.14Zm15.45-.3c.36-.16.65-.36.65-.44a13,13,0,0,0-3.45-2.47,7.13,7.13,0,0,0-4.41-.21c-.46.16-.86.39-.88.51a9.52,9.52,0,0,0,2.73,2.07,7.17,7.17,0,0,0,5.36.54Zm-15.38-3.41c0-.29,1.74-.63,3-.58s1.25.05,1.4-.35.13-.47-1-2.62a7,7,0,0,0-.78-1.2c-.11-.09-.86-.5-1.65-.91s-1.64-.86-1.87-1l-.42-.28.09.68a1.79,1.79,0,0,1-.16,1.13,2.33,2.33,0,0,0-.24.86,5.82,5.82,0,0,1-.23,1.16c-.4,1.31-.25,2.84.27,2.84a2.71,2.71,0,0,1,.73.28c.52.28.92.29.92,0Zm-3.54-.89c0-.25-.63-.92-1.19-1.27s-.45-.58.27-.21c.26.14.52.21.56.17a2,2,0,0,0-.41-.78,3.78,3.78,0,0,1-.95-2.71l.1-.69.21.49a1.08,1.08,0,0,1,.11.64c-.2.33,1.53,2.18,2.05,2.18s1.06-2.67.85-3.42c-.14-.47-.2-.51-.84-.55a3,3,0,0,1-2.29-.74,5.37,5.37,0,0,0-1.14-.76,2.68,2.68,0,0,1-1-.77c-.45-.58-.8-.69-1-.29-.06.17,0,.36.32.56.58.42.76.81.56,1.19s-.58.4-1,.07-.46-.74,0-.61.38-.32-.19-.91a4.26,4.26,0,0,1-.78-1.31,2,2,0,0,0-.77-1.1c-.91-.55-1.2-.23-.49.54.32.34.36.47.21.65s-.23.19-.48-.07a5.52,5.52,0,0,1-.53-2.85,2.4,2.4,0,0,1,.83-.89,5.29,5.29,0,0,0,1.9-1.88,5.93,5.93,0,0,0,.45-.8,1.38,1.38,0,0,0-.54,0c-.35.06-.54,0-.54-.08a.19.19,0,0,1,.21-.18,3,3,0,0,0,.88-.43,2.07,2.07,0,0,1,.87-.38c.2.07,1.11-.85,1.12-1.12a2.87,2.87,0,0,0-.67-.83l-.68-.66-.44.31c-.34.25-.75.34-1.9.39-.81.05-1.26.05-1,0a5.76,5.76,0,0,0,2.35-.76l.55-.37-1.28-1.27-.93.77a26.49,26.49,0,0,1-2.77,1.87A9,9,0,0,0,299.45,72a17.25,17.25,0,0,1-1.56,1.92c-1.05,1.09-1.2,1.47-.83,2.05a35.31,35.31,0,0,0,4.09,5l2.14,2a37.07,37.07,0,0,0,5.32,3.64l.92.51-.7-.68a13.49,13.49,0,0,1-1.34-1.6,13.43,13.43,0,0,0-1.26-1.58c-.69-.7-.6-.8.45-.5.43.13.76.46,1.67,1.68a10.2,10.2,0,0,0,2.8,2.93c.54.32,1.39.44,1.39.19ZM302.62,78c-.23-.24-.07-1.1.31-1.67s.67-.51.22.23a.89.89,0,0,0-.16.88c.2.5-.05.87-.37.56Zm-.72-1.5c0-.75,1.12-1.65,2-1.63.26,0,.2.06-.24.21-.75.27-1.18.67-1.18,1.08s-.26.71-.49.71c-.07,0-.13-.17-.13-.37Zm8,10.78s-.07-.11-.16-.17-.15,0-.15.07a.17.17,0,0,0,.15.17C309.85,87.37,309.92,87.34,309.92,87.3ZM312,69c.16-.22.18-.37.08-.4s-.77.4-.77.61.46.12.69-.21Zm-.46-.89a.51.51,0,0,0,.39-.54c0-.56-.54-.52-.84.07s-.3.76.45.47Zm-1.15-.5a2.54,2.54,0,0,0,.31-.62c0-.24-.43-.1-.77.27s-.32.42-.16.61.27.32.62-.26Zm-.55-1a.63.63,0,0,0,.07-.92c-.22-.13-.4.07-.53.59s0,.51.46.33ZM313,66c.25-.39.4-.5.59-.41a7,7,0,0,0,1.42.17c1.14.06,1.2,0,1.75-.44a4,4,0,0,0,.79-.94c.21-.4.2-.5-.08-1.13-.16-.38-.37-.69-.45-.69-.26,0-.51.45-.48.88,0,.69,0,.76-.37.94s-.46.1-.88-.21a2,2,0,0,0-1.93-.22l-.41.16.1-.72c.11-.82-.11-1.84-.43-2s-1.33,1.22-1.33,2.13c0,.49,0,.54-.42.54-1.09,0-1,.4.4,1.74,1,1,1.22,1,1.73.16Zm4.93,0a8.94,8.94,0,0,1,1.18-1.92c1.23-1.65,1.48-2.08,1.35-2.29s-.37-.15-.66.5a3.4,3.4,0,0,1-.64,1l-.35.31.11-.64c.13-.82-.13-1.33-1.25-2.44a7.39,7.39,0,0,0-3.25-1.83c-.4-.07-.57,0-.95.37a2.48,2.48,0,0,1-.54.46,2.38,2.38,0,0,1-.47-.39c-.43-.43-1.08-.51-1.23-.14a1.72,1.72,0,0,0,.49,1.19c.36.21,1,.25,1.1.07.91-1.14,1.06-1.26,1.6-1.24a5.89,5.89,0,0,1,3.14,1.82c1.1,1.06,1.29,1.55.92,2.33a2.69,2.69,0,0,0-.25,1,3.47,3.47,0,0,1-.53,1.24c-.53.83-.57,1.31-.11,1.23.13,0,.29-.27.34-.54Zm-9.18,0c.28-.55.08-.73-.39-.34-.23.18-.32.38-.26.54.15.38.38.31.65-.2Zm-1.37-1.17a.84.84,0,0,0,0-.47c-.14-.14-.78.5-.67.68s.55.2.65-.21Zm1.12,0c.23-.17.3-.3.2-.4s-.43-.06-.65.35,0,.38.45,0Zm7.63-2a2.58,2.58,0,0,1,.7-.88c.36-.27.43-.39.3-.55-.28-.34-.66-.24-1.16.29-.69.73-.89,1.17-.66,1.44s.59.26.82-.3Zm1.95-.25c0-.17-.11-.31-.23-.31s-.27,0-.14.38.37.3.37-.07Zm-2.64-.89c.71-.82.79-1.2.29-1.35-.27-.09-.45,0-.92.54a1.89,1.89,0,0,0-.59,1.1c0,.68.49.57,1.22-.29Zm-1.15-.86c.46-.6.49-.9.15-1.19s-.32-.13-.77.4c-.64.75-.7,1.31-.15,1.31a1.07,1.07,0,0,0,.77-.52Z" fill="#50d6cc"/><path d="M257.19,133.65a3.07,3.07,0,0,1-.63-.83,5.7,5.7,0,0,1-.2-2.3,3.24,3.24,0,0,1,1.34-.23l1.22,0,0,.95c0,.8,0,1-.26,1.21a1,1,0,0,0-.32.38c0,.15.85.16,1.53,0l.49-.1-.34-.25a1.61,1.61,0,0,1-.47-1c-.2-1.07-.1-1.24.77-1.36s1.35,0,1.47.47a3.52,3.52,0,0,1-.39,2.32c-.47.66-.28.85.45.47s.67-.22.45-2.95a9.27,9.27,0,0,0-.29-2c-.08-.07-.28,0-.49.1a9.62,9.62,0,0,1-2.77.4l-2.42.18-.74-.7.1,2.05c.14,2.85.19,3.06.83,3.38a2.45,2.45,0,0,0,.83.27c.27,0,.24-.07-.2-.47Zm5.15,6.62c0-1-.16-1.23-.46-.67-.14.27-.32.3-1.83.3a5.77,5.77,0,0,1-1.67-.12,13.82,13.82,0,0,1,2-1.31,11.18,11.18,0,0,0,2-1.41,6,6,0,0,0,0-2.18c-.07,0-.2.14-.31.3s-.35.31-2.77.31-2.59,0-2.89-.33-.35-.29-.41-.23a3.48,3.48,0,0,0-.16,1c-.07,1,.15,1.23.53.61.18-.28.36-.3,2.39-.3a11.26,11.26,0,0,1,2.27.12c0,.07-.14.29-.41.5a23.07,23.07,0,0,1-2.62,1.66,10.62,10.62,0,0,0-1.15.68c-1.06.69-1.34,1.16-.81,1.36a25.73,25.73,0,0,0,2.82.09c2.55,0,2.6,0,2.92.37.18.2.38.33.44.3a2.69,2.69,0,0,0,.12-1.06ZM258,147.19a7.22,7.22,0,0,0,1.11-1.79c.77-1.62,1.17-2.15,1.61-2.15,1,0,.92,2-.15,3.21-.3.33-.5.64-.45.7a1.66,1.66,0,0,0,.82-.13c.64-.2.73-.27.74-.67a6.13,6.13,0,0,1,.19-1.06c.4-1.4.08-2.83-.69-3.13a2.24,2.24,0,0,0-1.78.22,8.67,8.67,0,0,0-1.53,2.75c-.34.83-.66,1.15-1.16,1.15s-.9-.36-.9-1.23a3,3,0,0,1,1-2.32c.66-.66.71-.91.13-.76-1.18.29-1.18.29-1.2.75a4.65,4.65,0,0,1-.26,1.17,3.69,3.69,0,0,0,0,2.54,1.74,1.74,0,0,0,2.58.75Zm2.17,6.92c.26-.07.35-.26.48-1.1.09-.56.28-1.65.42-2.43a6.54,6.54,0,0,0,.16-1.51c-.05,0-.22,0-.37.16-.32.29-1.15.26-3.66-.14-1.75-.28-1.83-.31-1.94-.76-.22-.88-.39-.4-1,2.9-.31,1.74-.27,1.91.63,2.37s.93.28.39-.28a2.28,2.28,0,0,1-.5-.91,3.35,3.35,0,0,1,.37-2.15c.24-.28.33-.29,1.32-.12l1.07.18v.61c0,1-.2,1.44-.61,1.63s-.26.37.82.51c.81.11,1,0,.52-.32-.27-.2-.33-1-.13-1.83.1-.4.13-.41.92-.33,1.22.13,1.45.3,1.45,1.07a3,3,0,0,1-1.09,2.06c-.56.4-.14.63.74.39Zm-3.35,7.57a1.76,1.76,0,0,1-.25-1.14v-.86h.72a5.57,5.57,0,0,1,1.08.1c.33.09.36.16.29.84a2.22,2.22,0,0,1-.34,1,1.12,1.12,0,0,1-1.5,0Zm1.69,1.14a3.31,3.31,0,0,0,.62-1.26,19.75,19.75,0,0,0,.58-3.66c-.06-.05-.26,0-.45.23-.45.42-.77.42-3.3,0-1.68-.3-2.09-.43-2.32-.71-.4-.5-.57-.23-.68,1.09l-.09,1.12.33-.29c.31-.27.43-.28,1.49-.13a4.86,4.86,0,0,1,1.27.29,3.64,3.64,0,0,1,0,1.24,2.31,2.31,0,0,0,.13,1.67,1.43,1.43,0,0,0,2.45.44Zm-.39,6.47a33.17,33.17,0,0,0,.52-5c-.06-.17-.17-.13-.47.17a.79.79,0,0,1-.72.31c-.19,0-1.24-.15-2.33-.24-2.34-.2-2.46-.23-2.59-.62-.05-.16-.14-.29-.2-.29a40.69,40.69,0,0,0-.63,4.89c0,.27.93.89,1.33.89.2,0,.19-.06-.08-.34a3.2,3.2,0,0,1-.54-2.55l.14-.84,1.2.05a2.74,2.74,0,0,1,1.33.22,1.83,1.83,0,0,1,0,.87,1.5,1.5,0,0,1-.55,1.09c-.53.46-.49.48.82.67.75.11.92,0,.49-.39a2.71,2.71,0,0,1,0-2.09,2.75,2.75,0,0,1,2,.28,2.63,2.63,0,0,1-.55,2.4,1.53,1.53,0,0,0-.38.68c0,.19.1.2.57.07a2.66,2.66,0,0,0,.68-.25Zm-.08,6.93c.12-.13.13-.63,0-1.86a17.35,17.35,0,0,1-.06-2.51l.09-.84-.75-.26a7.09,7.09,0,0,0-.84-.27c-.22,0-.06.38.36.86a1.54,1.54,0,0,1,.46,1c0,.64,0,.64-2.8.73-2.07.08-2.11.07-2.48-.29a2.33,2.33,0,0,0-.43-.37,5.92,5.92,0,0,0-.07,1.29,4.75,4.75,0,0,0,.09,1.3,1.6,1.6,0,0,0,.46-.39l.35-.38,4.95.08v.58a2.23,2.23,0,0,1-.41,1.13c-.22.3-.36.61-.32.68s1.11-.25,1.38-.53Zm-4.78,4.23,1.33-.23,2.12-.39c1.09-.22,1.15-.22,1.55.08.55.4.59.4.59-.14,0-1.11-.53-2.59-.73-2-.13.4-.51.61-1.28.71-.44.05-1,.16-1.34.22s-1,.21-1.63.32c-1.09.19-1.12.19-1.5-.17l-.4-.37.1.84a13.35,13.35,0,0,0,.27,1.44l.15.61.22-.42a1.06,1.06,0,0,1,.55-.49Zm6.57,6.41.6-.51-.59-2c-.32-1.12-.6-2.2-.62-2.4-.06-.5-.18-.58-1.08-.7s-1.17.12-.35.53,1.25,1.25.9,1.59a25.88,25.88,0,0,1-4.63,1.46.79.79,0,0,1-.53-.23c-.53-.64-.56.09-.06,1.63.27.84.42.9.64.28.13-.39.31-.5,1.34-.82a13.89,13.89,0,0,1,3.77-.81c.33.12.3.94-.06,1.69-.46,1-.23,1.09.67.33Z" fill="#50d6cc"/></svg>