<?xml version="1.0" encoding="UTF-8"?><svg xmlns="http://www.w3.org/2000/svg" id="b" width="600" height="400" viewBox="0 0 600 400"><g id="c"><path fill="#fff" stroke-width="0" d="M0 0h599.74v400H0z"/><path fill="#0a1f62" stroke-width="0" d="M152.75 399.73.32 400 0 0l152.75-.27v400z"/><path fill="#d80025" stroke-width="0" d="m600 399.73-152.42.27-.33-400L600-.27v400z"/><path fill="#69310b" stroke-width="0" d="M213.51 97.63c1.25-.49 2.74-.87 3.87-1.6.37-.24 1.89-1.18.48-1.2-2.78.22-5.25 2.04-7.97 2.38-2.12.26-.26-1.63-.16-1.63-4.11.26-8.51 2.29-12.34 3.66-2.33.83-4.65 1.68-6.93 2.65-.61.26-3.52 1.19-3.6 2.12-.32 3.72 13.83-1.66 15.26-2.18 3.8-1.39 7.62-2.73 11.39-4.19ZM229.18 87.66c-3.64.89-7.3 1.7-10.95 2.58-2.28.55-4.88.98-7 2.06-1.13.57-2.26 1.44-.37 2.19 1.13.45 2.67.05 3.78-.2 2.99-.65 5.92-1.63 8.86-2.5 3.21-.95 6.41-1.9 9.62-2.84.96-.28 6.63-1.28 6.8-2.33 0 .06-2.38-.77-2.81-.83-2.64.21-5.36 1.24-7.93 1.87ZM221.19 96.41c2.16 1.14 5.78-1.26 7.77-2 2.88-1.07 5.86-1.85 8.76-2.87 1.94-.68 3.87-1.39 5.78-2.13 1.04-.4 2.74-.71 3.58-1.47 1.01-.91.12-1.01-1.21-.92-5.6.25-11.42 2.55-16.7 4.24-.75.24-12.21 2.93-7.99 5.16ZM204.02 95.88c.96-.28 3.34-.53 3.91-1.5.73-1.23-.64-.83-1.43-.78-2.3.13-.3-.5-1.87-.78-3.07-.17-6.53.97-9.49 1.6-3.64.77-7.26 1.67-10.79 2.85-1.79.6-3.56 1.26-5.31 1.98-.88.36-3.57 1.04-4.12 2.01-.91 1.6 2.04 1.64 3.14 1.64 7.45-.02 14.52-3.36 21.46-5.64 1.49-.49 2.99-.94 4.5-1.37ZM191.66 94.11c.99-.22 4.7-.38 5.13-1.47.36-.92-3.02-.82-2.91-1.04.28-.55 2.96-1.25 1.61-2.05-4.25.25-8.86 2.24-12.88 3.47-4.87 1.49-9.86 2.89-14.56 4.86-2.15.9-1.33 1.79.85 1.88 3.51.16 7.12-.75 10.38-1.96 4.03-1.5 8.18-2.75 12.38-3.69ZM260.12 96.02c.6-.2 1.98-.42 2.38-.97.73-.99-.37-2.86-1.67-2.64-3.11.1-21.97 7.26-20.67 10.08.87 1.89 4.12.47 5.29-.03 3.43-1.48 6.58-3.49 10.07-4.87 1.51-.6 3.05-1.05 4.59-1.56ZM265.61 95.61c-2.11.08-4.65 1.17-6.67 1.79-2.71.83-5.31 1.98-7.83 3.28-.81.42-9.78 5.41-4.84 5.81 1.49.12 3.47-1.03 4.75-1.64 2.52-1.2 4.88-2.7 7.39-3.92 2.1-1.02 4.75-1.33 6.73-2.41.89-.48 1.9-2.38.47-2.91ZM220.92 99.42c.42-.18 3.72-1.25 3.72-1.92 0-.28-1.84.15-1.88.16-.79.13-1.72.47-2.51.2-.54-.19-.21-.86-1.04-.91-2.74.03-5.75 1.71-8.24 2.67-2.59.99-5.2 1.96-7.72 3.11-1.05.48-4.23 1.57-2.36 2.87 2.23 1.56 7.76-1.37 9.74-2.11 3.46-1.29 6.91-2.62 10.3-4.07ZM261.83 87.46c-.98-.56-2.73-.33-3.53-1.03-.62-.54 0-1.39-1.05-1.42-.36 0-2.47.38-2.44.92 0 .12 2.2 1.19 2.51 1.29 1.06.36 2.02.47 2.98.96 1.03.52 2.52.54 3.51 1.13.64.39.97 1.83 1.55 1.71 1.8-.37-3.2-3.38-3.53-3.56ZM248.41 83.77c-.31.01-2.7.02-2.73.59-.03.46 3.03.19 3.33.2.47.01 1.25-.08 1.69.18.41.24-.08.77.42.84 1.15.16 1.65-.96.86-1.58-.66-.53-2.77-.27-3.58-.24ZM251.47 88.21c-2.39.24-4.86 1.34-7.11 2.09-3.68 1.23-7.35 2.52-11.1 3.53-.8.22-7.28 1.82-6.06 3.64.78 1.17 3.92.55 5.18.22 1.89-.49 20.99-7.45 20.63-8.22-.02-.04-1.6-1.26-1.54-1.26ZM246.13 117.37c-1.47-.21-2.93 2.91-1.6 3.44.83.33 1.8-2.86 1.6-3.44ZM255.17 125.01c-.34-.84-1.89-2.07-2.69-2.2-1.98.14-3.01 5.25-3.23 6.63-.25 1.55-.23 3.17.13 4.7.13.53 1.04 3.9 1.78 3.86.58-.03 1.15-4.96 1.29-5.53.43-1.75 1.05-3.4 1.9-4.98.57-1.05 1.21-1.53.82-2.47ZM251.7 120.43c0-.29-3.25-.16-3.55-.15-2.19.08-2.29 1.77-2.63 3.68-.27 1.47-.27 4.87 1.36 5.75 1.3.7 1.32-2.31 1.87-3.4.46-.91.74-1.68 1.12-2.63.4-.97 1.85-2.24 1.83-3.25Z"/><path fill="#69310b" stroke-width="0" d="M258.38 125.12c-3.1.18-5.11 7.25-5.44 9.46-.26 1.75-.18 3.48.45 5.15.34.88 1.94 4.27 3.11 4.19-.09 0 1.49-9.56 1.68-11.13.25-2.07 1.11-5.72.2-7.66ZM231.11 100.13c.14-.85-3.93-.92-4.88-1.37-1.47.06-3.05.91-4.4 1.43-3.31 1.28-6.63 2.59-9.89 4.01-.91.39-4.39 1.45-4.71 2.68-.48 1.86 3.72 1.06 4.59.91 5.71-.96 11.72-3.92 16.98-6.36.37-.17 2.22-.79 2.3-1.31ZM263.23 141.71c.11-1.38 1.32-4.33.78-5.65-.37-.91-.16-.1-.89-.36-.64-.23-1.65-.13-2.41-.4-.49-.18-.79-.44-1.31-.49-1.36.2-1.59 4.31-1.58 5.29.02 1.75.47 3.52 1.33 5.05.81 1.45 2.66 3.8 4.35 4.23 1.5.38.89-.45.5-1.74-.6-1.95-.93-3.87-.77-5.92ZM269.45 141.96c-.05-1.04.33-2.72-.56-3.39-.21-.16-1.54.15-1.96 0-.65-.24-1.08-.8-1.75-1.05-1.57.05.13 8.46.34 9.19.48 1.61 1.14 3.21 2.46 4.32.66.56 3.83 2.33 4.61 1.55.45-.45-1.66-4.37-1.86-4.86-.75-1.89-1.18-3.73-1.28-5.76ZM238.02 102.88c-.16-.4-2.46.11-2.61.1-1.44-.05-1.3-1.27-2.57-1.24-4.28.11-9.21 2.7-13.03 4.46-.79.36-4.3 1.83-2.42 3.01.61.39 2.12-.14 2.76-.27 2.11-.43 4.19-1.06 6.26-1.68.81-.24 11.95-3.53 11.62-4.38ZM242.27 106.14c-.56-.27-1.14-.19-1.6-.5-.41-.28.16-1.13-1.21-.89-4.08.24-8.57 2.11-12.27 3.74-.52.23-2.09.72-2.21 1.46-.26 1.61 2.52 1.74 3.5 1.69 4.32-.23 9.5-2.25 13.23-4.36.99-.56 1.55-.67.57-1.14ZM256.66 110.74c1.13-2.17-1.91 0-2.65-.53.15.11 1.09-1.48 1-1.69-1.18.02-2.51.78-3.56 1.21-2.28.94-4.54 1.94-6.76 3.01-.79.38-5.73 2.26-4.24 3.79 1.7 1.75 8.54-1.59 10.07-2.26 1.6-.7 5.29-1.9 6.14-3.54ZM252.2 107.75c.15-.5-.29-.08-.3-.31 0 .1-.65-1.1-.66-1.12-4.01.51-8.35 1.83-12.12 3.32-1.13.45-8.93 3.58-4.55 4.89 1.32.39 3.23-.45 4.43-.86 2.91-.99 5.76-2.23 8.56-3.49.81-.36 4.33-1.42 4.63-2.43ZM329.08 149.02c-.69.04-.73 1.26 0 1.25.69-.02.73-1.29 0-1.25ZM246.35 93.52c-4.63 1.82-9.32 3.46-13.69 5.83 1.03.9 1.87 1.94 3.31 1.94 2.27 0 4.92-1.81 6.85-2.76 4.04-1.99 8.03-4.12 12.25-5.72 1.11-.42 4.04-.66 4.7-1.51.9-1.16-1.26.03-1.92-.57-.21-.19 2-.73.75-1.41-1.29.02-2.72.69-3.91 1.09-2.81.96-5.58 2.03-8.34 3.11ZM258.66 122.71c.17-.07 1.76-.73 1.5-1.19-.23-.4-1.03-.11-1.36-.25-1.76-.75-1.28-1.95-1.91-3.36-1.14.27-2.79 2.95-2.31 4.09.63 1.49 2.93 1.2 4.08.71ZM283.56 135.96c1.13.48.7-6.94.3-7.96-1.33.07-1.54 7.44-.3 7.96ZM268.81 123.34c-2.62.04-3.69 6.66-3.63 8.49.04 1.18 1.27 6.94 3.33 4.63.77-.87.43-2.57.46-3.59.05-1.69.41-3.36.81-5 .38-1.54 1.61-4.31-.97-4.54ZM262.03 119.75c2.97-.62 2.13-3.58-.66-3.7-3.78-.1-3.79 4.62.66 3.7ZM259.08 111.37c-2.67.16-4.31 4.28-.84 3.67 1.74-.31 3.1-3.8.84-3.67ZM268.33 91.52c-.12.25-.13.41-.24.64 0 0-.75 1.14-.76.92.02.93 2.27 2.02 3.13 1.92-.99.11-1.51-3.07-2.14-3.48Z"/><path fill="#69310b" stroke-width="0" d="M265.72 125.22c.49-.96 1.54-1.77 1.55-2.91.02-1.73-1.26-1.32-2.54-1.71-2.72.19-5.04 5.83-5.18 8.09-.07 1.26-.09 3.34.65 4.47.58.88 2.65 1.71 3.52.71.74-.85.33-2.98.52-4.07.27-1.55.75-3.18 1.46-4.58ZM271.19 95.19c.09-.02.18 0 .26.06-.03-.06-.1-.09-.26-.06ZM282.62 121.84c-1.21.07-2.52 3.43-1.05 3.41.66-.01 2.77-3.44 1.05-3.41ZM203.26 91.63c3.54-.28 7.07-.83 10.56-1.49 3.5-.66 6.95-1.52 10.42-2.31.76-.17 7.88-1.23 7.95-1.98.03-.29-2.52-.4-2.74-.62.13.13 1.08-.79.5-1.26-6.04.69-12.16 1.64-18.22 2.41-.88.11-16.56 1.79-13.94 5 .82 1 4.43.33 5.47.25ZM274.36 98.74c-.15-.4-.94-.59-1.32-.62-.06 0-.58 1.53-.53 1.74.25 1.06 1.95 1.48 2.04 2.66.1 1.34-1.03 1.25-.22 2.62.35.59 1.12.87 1.45 1.53.38.75.13 1.23.26 1.98.22 1.29 1.54 1.52 1.74 2.59.19 1.02-1.38 1.83-.56 3.1.25.39.89.15 1.08.42.35.48-.13 1.21.19 1.61.87 1.1 2.03-.61 1.58-1.06-.29-.28-.6.49-.91-.2-.28-.63.11-1.53-.27-2.14-.25-.4-1 .2-1.16-.23-.22-.6.64-.96.61-1.48-.07-1.22-1.72-1.39-1.77-2.48-.02-.52 1.15-.91 1.2-1.39.1-.85-.09-.3-.65-.92-.87-.96-2.47-1.31-2.06-2.71.44-1.48 1.57-.64.4-2.1-.83-1.04-1.92-.79-1.72-1.99.1-.56.88-.18.6-.91ZM270.23 96.56c-.16.63-.09 1.55.98 1.47 1.19-.08.89-2.38.24-2.78.16.34-1.35 1.84-1.22 1.31ZM255.4 116.23c-.06-.24-1.16-2.21-1.36-2.22-1.38.16-8.35 3.29-4.99 4.6 1.45.57 4.44-.17 5.68-1 .91-.62.92-.44.68-1.39Z"/><path fill="#69310b" stroke-width="0" d="M279.23 108.69c-2.06-.03 1.49 1.83 1.49.56 0-.37-1.2-.55-1.49-.56ZM280.83 118.01c.6-.16 1.05-1.01.67-1.45-.85-.07-1.98 1.8-.67 1.45ZM271.42 102.72c-2.7.04-5.6.95-8.14 1.79-1.29.43-7.1 3.27-4.11 5.3 1.75 1.18 6.9-1.77 8.46-2.29 1.31-.43 3.22-.55 4.04-1.68.1-.14.44-1.59.46-1.79.11-.84.6-1.3-.71-1.33ZM280.75 138.6c1.3-.35 1.08-4.6 1.15-5.46.07-.9 1.17-5.84.19-5.94-3.66.41-3.06 11.86-1.34 11.4ZM274.74 111.7c-2.02.12-11.99 3.94-9.3 7.32 1.35 1.69 4.8-1.66 5.89-2.33 1-.62 2.97-1.26 3.7-2.17.34-.43.93-2.88-.29-2.81Z"/><path fill="#69310b" stroke-width="0" d="M262.86 115.17c1.47.59 2.51-.5 3.71-1.25 1.43-.89 2.92-1.58 4.49-2.2 1.32-.52 2.57-.77 3.04-2.21.26-.8.31-2.13-.83-2.06-2.81-.02-5.99 1.22-8.53 2.31-1.92.82-5.42 3.99-1.88 5.41ZM269.64 122.55c1.8.14 4.29-2.76 5.81-3.55.62-.32 2.02-.66 2.05-1.57.02-.81-.82-1.19-1.52-1.17-1.97-.04-4.2 1.07-5.75 2.22-1.03.76-3.29 3.86-.59 4.07ZM278.51 134.66c.24-1.68.32-3.39.66-5.06.16-.78.81-2.1-.62-1.91-2.87.03-2.99 2.63-3.18 4.95-.12 1.5-.8 5.29.33 6.52 1.82 1.98 2.69-3.56 2.82-4.5ZM271.86 139.2c2.83.79 2.48-5.45 2.54-6.45.1-1.54.7-3.22.61-4.75-.17-2.88-1.04-.09-1.74-.83-.4-.42-.25-.99-1.1-.97-3.04.18-2.92 12.28-.3 13.02ZM277.08 126.42c2.41.71 4.79-5.32 3.7-5.72-1.71.05-6.44 4.92-3.7 5.72ZM278.55 119.24c-1.4.09-9.6 3.97-6.13 5.59 1.41.66 3.5-1.47 4.36-2.29.26-.25 3.53-3.42 1.78-3.3ZM254.98 107.13c2.02.92 4.85-2.28 6.47-3.03.75-.35 9.49-3 9.4-3.16-.32-.59-2.01.26-2.29-.19-.35-.58 1.17-.99 1.15-1.58 0-.21-.61-.19-.72-.19-3.44 0-7.03 1.04-10.06 2.62-1.29.67-6.64 4.3-3.94 5.53ZM321.16 146.5c1.5-.95-1.42-3.37-2.61-3.65-1.64-.02-.35 5.53 2.61 3.65ZM428.51 107.52c-5.67-3.06-11.57-5.62-17.65-7.74-4.44-1.55-8.89-3.03-13.36-4.47-4.67-1.51-9.47-3.42-14.44-3.44-1.8.02-4.67.41-1.76 1.75 1.95.89 4.03 1.55 6.02 2.34 3.61 1.43 7.29 2.72 10.95 4.01 8.25 2.9 16.62 5.41 24.76 8.64 2.49.99 4.97 2.02 7.47 2.99.83.32 3.43 1.86 4.33 1.15 1.82-1.43-5.5-4.79-6.31-5.23ZM316.1 140.39c2.42-1.01-3.13-8.18-4.95-8.44-1.1.13 1.48 4.6 1.61 4.85.47.87 1.88 4.2 3.33 3.59ZM312.39 139.49c.39-1.17-2.33-6.18-3.66-6.1-.91.05 1.23 3.06 1.49 3.66.24.53 1.56 4.24 2.17 2.44ZM330.15 143.69c.3-.11 1.25-.81 1.29-1.12.09-.7-.69-.59-1.32-.78-1.81-.52-3.83-1.71-5.71-1.68-2.15.16.53 1.71 1.05 2.02 1.28.74 3.14 2.16 4.69 1.56ZM322.21 144.16c.71.6 4.29 2.37 4.45.51.11-1.27-5.45-3.47-6.49-3.57-.78.06 1.87 2.92 2.04 3.06ZM309.66 120.15c.79 1.06 4.26 6.28 5.98 4.92 2.59-2.03-4.56-9.22-6.5-9.65-2.98-.14 0 4.02.52 4.73ZM310.57 113.75c.23 1.07 1.37 2.18 2.04 2.96.9 1.05 4.69 6.23 6.14 5.23 3.18-2.18-5.46-9.88-7.32-10.52-.92.05-1.01 1.68-.87 2.33Z"/><path fill="#69310b" stroke-width="0" d="M326.85 135.94c.99-2.09-1.72-6.06-2.77-7.7-1.02-1.59-2.81-4.59-4.95-4.8-6.02.35 5.8 16.57 7.72 12.5ZM307.3 123.95c.59.71 4.29 5.78 5.82 4.74 2.14-1.45-5.51-10.5-7.74-10.49-3.6.43 1.1 4.77 1.92 5.75Z"/><path fill="#69310b" stroke-width="0" d="M303.35 122.41c.76 1.39 1.6 2.74 2.37 4.12.55.99 2.52 5.99 4.17 4.77 2.54-1.9-6.07-10.05-7.47-11.03.02 0 .85 2 .93 2.14ZM336.37 141.29c2.22-2.01-3.95-2.95-4.99-2.95-1.34.03-.92.47-1.51.82 0 0-1.16.73-1.13.65-.21.58 6.57 2.43 7.63 1.47ZM352.86 113.77c-.15-2.07-4.08-4.82-5.49-6.07-1.43-1.28-3-2.96-4.79-3.7-.46.03 1.88 4.18 1.96 4.32.83 1.47 1.36 3.29 2.27 4.68.9 1.37 6.28 4.05 6.05.77ZM370.71 96.09c4.47-.58-4.6-5.37-5.31-5.75-3.48-1.85-7.06-3.84-10.87-4.92-1.53-.44-3.14-.56-4.69-.89-1.67-.36-3.45-1.19-5.16-1.09-1.18.07-.19.71.04.96.46.5 1.78.84 2.38 1.11 1.75.78 3.52 1.52 5.28 2.3 3.29 1.46 6.55 3 9.73 4.69 2.28 1.21 5.86 3.97 8.62 3.61Z"/><path fill="#69310b" stroke-width="0" d="M365.96 97.48c.99-2.65-7.5-5.78-8.86-6.41-4.33-2.02-8.74-3.94-13.19-5.68-2.71-1.06-6.2-2.51-9.17-2.45-1.74.04-2.58.68-.84 1.51 2.37 1.14 5.02 1.86 7.48 2.82 3.84 1.51 7.64 3.11 11.35 4.91 1.53.74 12.29 7.82 13.23 5.3ZM377.28 92.96c1.17-.65.83-.76-.32-1.31-2.14-1.03-4.51-1.66-6.76-2.39-2.16-.71-4.34-1.41-6.44-2.28-1.28-.53-2.49-1.32-3.9-1.41s2.69 1.96 3.07 2.18c2.3 1.3 4.67 2.48 6.96 3.81 2.02 1.18 4.98 2.75 7.39 1.41ZM360.89 98.15c-.14-.93-3.38-2.26-4.02-2.62-2.56-1.39-5.18-2.67-7.83-3.87-2.87-1.3-5.81-2.39-8.77-3.46-2.58-.94-5.5-2.53-8.27-2.71-2.7-.04 3.19 2.76 3.48 2.88 3.16 1.32 6.3 2.66 9.41 4.08 3.54 1.62 7.03 3.36 10.57 4.96.46.21 5.74 2.9 5.42.74ZM326.57 150.01c-.44.07.88 2.65.64 2.65-1.14.04-2.28-1.64-1.41.5.34.84 2.64 3.92 3.72 2.36.78-1.12-2.09-4.99-2.95-5.52ZM354.97 100.26c.78-1.06-.71-1.65-1.5-2.15-4.28-2.71-9.14-4.69-13.8-6.64-3.38-1.42-7.6-3.75-11.35-3.79-1.63.14 1.69 1.61 2.05 1.78 1.32.58 2.61 1.21 3.9 1.84 3.95 1.95 7.85 4.02 11.71 6.15 1.27.7 7.44 4.91 8.98 2.82ZM315.06 112.76c1.42 1.4 2.73 2.88 4.08 4.34.92 1 2.11 1.76 2.64-.15.68-2.44-3.47-5.42-4.9-6.79-1.39-1.34-2.79-2.67-4.19-4.01-.58 3.21-.03 4.23 2.37 6.61ZM334.7 128.79c1.71-1.03 2.83-1.3 3.94-3.06.85-1.35 1.73-1.52 2.75-2.64 1.17-1.29.71-3.01 1.73-4.26.95-1.16 2.87-1.32 3.13-3.03.2-1.34-.87-3.29-1.38-4.42-.93-2.08-2.75-6.66-5.57-6.55-.91 0-1.84.09-2.75.14 1.73 2.55 3.52 5.07 4.79 7.89.24.52 1.64 3.38.4 2.66-.82-.48-1.35-2.44-1.75-3.21-.56-1.09-1.16-2.17-1.86-3.18-1.02-1.49-1.83-2.41-3.71-2.32-.69.04-2.75.2-3.12.98-.32.68.93 1.94 1.32 2.45 1.52 2.02 3.04 3.95 4.19 6.21.12.24 2.14 5.08 1.65 5.08-.62 0-2.07-3.84-2.4-4.41-1.1-1.89-2.37-3.74-3.85-5.35-.81-.88-1.37-1.58-2.45-1.38-1.03.19-2.55 1.37-3.61 1.82 1.21 1.46 9.98 12.98 8.17 13.58-.26.09-3.55-5.96-3.9-6.49-.79-1.2-2.86-5.39-4.62-5.32-1.04.04-2.66 1.82-2.48 2.7.23 1.19 2.44 3.05 3.19 3.94 1.19 1.4 2.35 2.82 3.36 4.36.76 1.16 1.23 2.96 2.16 3.96 1.02 1.09 1.37.65 2.66-.13Z"/><path fill="#69310b" stroke-width="0" d="M322.26 119.24c-4.37.58 1.15 5.86 2.02 7.03.83 1.13 4.18 7.74 6.27 6.28 3.33-2.33-5.41-13.26-8.29-13.31ZM328.69 82.55c1.43 1.52-.59 1.74.06 2.85.23.4.95-.16 1.11-.4.41-.64.01-1.47-.29-2.04-.31-.6-1.45-1.15-1.55-1.76-.01-.08.19-1.47.39-1.11-1.18-2.13-.42-.08-.54-.09-2.19.01.41 2.11.83 2.55ZM346.57 101.45c2.58-2.01-6.77-5.97-7.85-6.54-3.99-2.07-9.06-5.16-13.69-5.35-2.69-.04-.32 1.19.75 1.73 2.29 1.16 4.56 2.35 6.79 3.62 2.93 1.66 5.78 3.43 8.74 5.04 1.29.7 3.87 2.59 5.27 1.5ZM319.48 139.57c2.92.35 1.1-4.96.57-6.23-.88-2.09-2.31-3.82-3.68-5.6-.47.43-.96.84-1.42 1.28-1.31 1.28-1.58 1.41-.88 2.91.75 1.61 2.02 3.03 2.92 4.56.61 1.03 1.11 2.91 2.49 3.07ZM356.29 108.56c-2.09-1.85-5.61-6.17-8.78-5.99-1.83.1-3.33.07-2.04 1.64 1.62 1.97 3.98 3.58 5.91 5.24.96.83 8.89 8.3 9.4 4.35.23-1.82-3.42-4.3-4.49-5.24ZM345.48 139.35c-3.59-3.2-7.37-6.09-11.42-8.68-.58.65-1.13 1.34-1.75 1.96-.23.24-2.25 1.49-2.26 1.68-.04 1.35 7.04 3.33 8.12 3.84 3.54 1.68 6.89 3.79 9.85 6.36 1.34 1.16 2.58 2.42 3.91 3.61.64.57 1.5 1.87 1.82.71.34-1.24-1.64-2.95-2.34-3.73-1.85-2.04-3.88-3.92-5.93-5.75Z"/><path fill="#69310b" stroke-width="0" d="M349.63 147.59a96.042 96.042 0 0 0-4.08-3.43c-1.92-1.52-3.87-2.75-6-3.93 2.65 2.31 5.15 4.76 7.63 7.26.37.37 6.51 5.92 5.22 2.79-.4-.96-2.03-2.03-2.77-2.69ZM364.6 109.99c-1.96-1.75-3.95-3.48-6.08-5.03-2.46-1.79-4.68-2.95-7.78-2.98-.04 0 3.23 3.12 3.7 3.53 1.84 1.59 3.66 3.19 5.47 4.82.78.7 9.52 8.3 9.14 4.45-.16-1.65-3.4-3.84-4.46-4.79ZM344.49 146.4a26.084 26.084 0 0 0-5.48-4.4c.72.92 1.43 1.84 2.15 2.75-.46-.08-4.47-1.16-4.48-1.12-.32.63 5.21 5.54 5.6 5.92.66.64 5.57 5.56 6.44 2.62.43-1.43-3.41-4.9-4.23-5.77ZM376.59 112.87c-2.46-1.89-5.62-3.12-8.26-4.78-3.22-2.02-7.11-5.82-10.97-6.58-.9-.02 2.79 3.17 3.14 3.46 1.68 1.4 3.35 2.81 5 4.24 2.76 2.4 6.15 6.21 10.18 5.82 1.89-.18 2.37-1.05.92-2.17ZM339.58 148.59c-1.37-1.44-2.8-3.16-4.5-4.21-.1 0 .39 1.56-.07 1.77-.65.3-.98-1.16-1.73-1.12-.38.02 9.92 11.73 10.22 8.07.08-1.04-3.27-3.82-3.92-4.51ZM422.61 109.64c-4.51-1.81-9.14-3.32-13.75-4.86-6.37-2.12-12.73-4.27-19.03-6.58-3.53-1.29-7.94-4.15-11.77-3.89-1 .08-5.4.91-4.3 2.29.27.34 1.98.59 2.42.73 1.55.49 3.06 1.09 4.58 1.67 1.69.65 3.38 1.29 5.08 1.9 7.77 2.81 15.59 5.46 23.4 8.15 4.95 1.7 10.12 3.99 15.35 4.65 1.01.13 3.66.36 3.07-1.35-.45-1.32-3.99-2.29-5.05-2.71ZM340.87 102.77c.52-2.34-6.26-5.13-7.57-5.86-4.25-2.38-8.99-5.77-14.08-5.6-1.64.07-1.74 1.08-.48 1.99.52.38 1.4.56 2 .83 2.38 1.1 4.69 2.35 6.98 3.61 1.71.94 12.43 8.3 13.16 5.04ZM386.74 112.57c-2.46-2.04-5.99-3.44-8.9-4.71-3.01-1.32-5.99-2.64-8.91-4.15-2.42-1.26-5.09-3.12-7.88-3.39-2.48-.13.17 1.73.82 2.21 2.67 1.96 5.48 3.7 8.34 5.37 3.2 1.87 6.46 3.67 9.81 5.25 1.6.76 4.45 2.45 6.35 1.89 1.65-.48 1.55-1.49.38-2.47ZM396.07 111.33c-4.24-1.76-8.5-3.47-12.74-5.24-3.66-1.53-7.25-3.22-10.93-4.7-2.19-.88-4.6-2.02-6.98-2.18.13 0-1.98.04-1.61.44 1.21 1.28 3.52 2.05 5.06 2.85 2.25 1.17 4.52 2.37 6.87 3.35 6.62 2.76 12.93 6.18 19.54 8.98 2.46 1.04 5.38 2.3 8.12 1.76 1.31-.26 1.59-.42.73-1.41-1.66-1.9-5.84-2.93-8.06-3.85ZM415.69 112.63c-7.3-3.61-15.74-5.53-23.42-8.22-3.88-1.36-7.77-2.7-11.6-4.2-3.49-1.37-7-2.67-10.8-2.79-1.77-.05-2.69.4-.95 1.43 1.81 1.08 3.99 1.7 5.95 2.49 4.45 1.79 8.86 3.68 13.31 5.5 7.09 2.9 14.21 5.94 21.52 8.25 1.79.56 7.25 2.44 7.96-.03.38-1.31-1.01-1.95-1.97-2.42ZM324.16 85.72c.36-.08-2.93-2.63-3.41-2.97.52.49 2.75 3.12 3.41 2.97ZM327.69 109.83c3.84-.84-1.41-5.6-2.61-6.61-2.01-1.7-5.3-4.67-8.07-5.01-4.44-.2 2.06 5.47 2.68 6.02 1.93 1.73 5.03 6.26 8 5.6ZM334.12 103.36c-2.15-2.56-6.13-4.1-9.02-5.59-2.31-1.19-4.86-2.81-7.43-3.34-2.31-.05 1.9 3.46 2.09 3.59 2.15 1.51 4.36 2.94 6.54 4.4 1.77 1.18 3.73 2.77 5.86 3.23 1.98.43 3.56-.38 1.96-2.29Z"/><path fill="#69310b" stroke-width="0" d="M314.82 102.8c-2.94.4 2.95 6.72 3.4 7.18 1.08 1.11 3.74 4.6 5.65 3.56 3.47-1.9-6.52-11.08-9.05-10.73ZM319.12 87.81c.06-.03-2.42-2.23-3.17-2.15-.85.09 2.06 2.73 3.17 2.15ZM335.05 149.2c-1.13-1.09-2.63-2.79-4.23-3.13-1.59.09 2.54 4.44 2.8 4.74.37.44 5.09 6.15 5.09 2.82 0-1.38-2.81-3.62-3.66-4.44Z"/><path fill="#69310b" stroke-width="0" d="M325.37 159.58c-1.57-1.35-1.5-3.45-2.04-5.33-.49-1.7-1.29-3.05-2.54-4.3-3.52-3.51-8.59-5.65-11.03-10.16-2.55-4.73-3.56-10.12-6.12-14.8-.62-1.14-3.36-3.98-2.87-5.13.43-1.01 2.74-1.66 3.49-2.42.61-.61 1.02-.92 1.64-1.39 1.42-1.07 2.72-2.3 3.42-4.01.36-.89.29-1.92.72-2.74.03-.06.57-.13.6-.2.21-.53.29-.94.37-1.51.14-1.03-.31-2.61.4-3.53.37-.47 1.7-.32.9-1.03-.42-.38-2.02-.08-2.37.43-.56.81.67 2.69.66 3.59-.03 2-.07.19-1.19 1.06-.65.5-.17 2.36-.59 3.17-.47.89-1.27 1.24-1.88 2.04-1.15 1.52-2.2 2.62-3.86 3.68-1.27.81-3.7 2.22-3.32 3.78.18.73 1.68 2.06 2.08 2.75.79 1.37 1.42 2.85 1.99 4.32.94 2.42 2.67 5.94 2.67 8.57 0-.82-4.78-.64-5.29-.49-2.58.73-5.01 2.55-7 4.3-2.92 2.58-4.54 5.42-5.84 8.99-.27-1.13-.45-2.35-.86-3.44-.6-1.59-1.54-1.38-1.8-3.16-.7-4.78 1.32-9.8.55-14.67-.19-1.21-1.44-2.06-1.58-3.06-.14-.96 1.44-3.16 2.18-3.65 1.14-.75 3.58-.74 4.88-.93.88-.13 5.84-.08 6.26-.72.41-.62-1.22-.91-.52-2.06.74-1.23 3.15-2.15 4.19-3.32 2.29-2.57 2.98-5.92 3.12-9.28.2-4.97-1.03-9.85-.9-14.79.1-3.89 2.06-6.76 4.5-9.66 7.35-8.75 21.08-8.37 31.39-5.92 8.15 1.93 16.11 4.76 24.04 7.42 5.08 1.71 10.18 3.37 15.21 5.22.48.18 4.01 1.12 4.02 1.92 0 1.96-7.59-.29-8.35-.5-4.29-1.18-8.14-3-12.25-4.58-2.5-.96-5.09-.85-7.71-1.06-2.6-.21-4.97-1.07-7.52-1.41-2.97-.4-5.95.14-8.93-.33-1.34-.21-2.63-.57-4-.53-.17 0-3.31.42-3.04.79.37.53 4.23.31 5.04.36 2.73.15 5.47.22 8.19.46 4.67.42 9.15 1.59 13.84 1.92 3.51.25 6.14 1.65 9.35 2.82 3.43 1.26 6.93 2.4 10.46 3.32 1.43.37 8.35 1 6-1.77-.87-1.03-3.38-1.56-4.57-2.02-8.58-3.28-17.37-6.09-26.11-8.9-8.04-2.59-16.38-5.45-24.92-5.45-5.42.03-12.19.48-16.8 3.67-3.75 2.59-7.78 6.97-8.55 11.62-1.03 6.23 1.23 12.59.33 18.88-.19 1.35-.55 4.22-1.86 5.02-.81.5-2.08.06-2.95 0-1.84-.1-3.71.02-5.54.19-1.73.16-3.45.4-5.17.62-2.31.29-1.98-.1-2.88-2.29-.92-2.23-1.78-4.47-2.24-6.86-.67-3.49-.85-6.8-2.33-10.11-2.56-5.71-8.47-8.42-13.97-10.75-5.11-2.16-9.97-2.68-15.46-2.43-1.33.06-19.51 1.16-19.18 2.8.25 1.22 6.88 1.12 7.62 1.12 2.01 0 4.02-.25 6.02-.43-1.21 0-2.41.01-3.62 0-.98-.01-5.48.35-6.13-.6-.4-.58 6.65-1.81 7-1.85 3.88-.43 7.81-.59 11.7-.31 7.57.53 15.2 3.13 21.15 8.02 2.61 2.14 4.24 5.42 5.2 8.6 1.09 3.6.77 7.31 2.04 10.86a33.02 33.02 0 0 0 2.6 5.55c.61 1.05 2.63 3.4 2.18 4.75-.45 1.32-2.05.8-2.87.12-.52-.43-.79-1.52-1.6-1.37-1.08.19-.63 1.19-.42 1.52.07.11 1 .45 1.27.81.45.59.74 1.73.66 2.43-.16 1.39-1.78 2.29-1.32 3.67.27.81 1.11 1.39 1.38 2.35.36 1.25.45 2.61.48 3.9.04 1.46.28 4.88-1.01 5.98-.48.41-1.24.21-1.92.75-.64.51-1 1.53-1.77 1.88-1.34.61-.67-.11-1.55-.32-1.18-.29-1.84 1.25-3.24 1.01-.8-.14-1.27-.96-2.18-.91-.48.03-2.03.57-2.37.79-.65.42-.71.4-.6 1.64.15 1.8.71 3.64 1.41 5.3 1.24 2.95 3.26 6.83 6.66 7.63 1.2.28 2.46.12 3.68.33 1.88.33 3.76.96 5.51 1.71 5.19 2.21 9.76 5.97 15.31 7.27 3.07.72 23.73 2.84 21.03 7.4.72-.62 1.58-1.15 2.53-1.31-.97-.36-3.41-3.95-2.59-4.65 1.38-1.2 2.77 4.01 3.01 3.92 1.73-.61-1.99-4.72-2.54-5.09-.53-.36-6.07-3.35-6.06-3.36-.7.85 4.4 4.64 4.63 5.58.39 1.55-2.24-.32-3.17-.64-2.82-.99-5.79-1.43-8.53-2.64-1.27-.56-2.49-1.24-3.59-2.1-.52-.41-2.03-2.38-2.64-2.3-.53.07 2.21 3.37 2.21 3.36.11 1.5-1.84-.17-2.66-.48-1.13-.43-2.05 0-3.1-.33-1.35-.43-2.59-2.44-3.38-3.45-.15-.2-1.68-2.83-2.01-2.73-1.08.34 1.11 2.45.41 2.85-1.53.86-2.71-6.48-3.43-6.57-.14-.02-.53 4.72-1.21.8-.12-.68.22-2.84-.52-3.21-1.1-.54-.33 1.45-1 1.47-2 .04 1.53-7.06 1.74-7.37 1.8-2.67 4.66-4.88 7.58-6.21 6.84-3.11 9.15 4.46 13.51 7.97 2.56 2.05 5.66 3.78 7.54 6.55 1.11 1.63 2.85 5.53-.5 5.31-2.49-.16-3.84-2.08-5.51-3.62-.37-.34-4.42-3.23-4.41-3.33-.04 2.02-1.71-.63-1.8-.19-.21 1.03 1.34 2.22 2 2.69 1.18.85.77.53 1.29 2 .85 2.37 3.31 2.27 5.33 2.98.87.3 5.65-.06 5.86.72.29 1.05-4.11 1.02-4.13.99.75.99 2.87.66 3.87.73 1.55.12 2.6.57 3.71 1.73 1.04 1.09 1.77 2.52 2.08 3.99.07.35.41 3.65-.02 3.84 1.47-.65.93-4.27.62-5.37-.7-2.51-2.08-3.51-3.93-5.09Zm-26.23-46.75c.56.1-.67 2.04-1.12 1.5-.46-.55.63-1.4 1.12-1.5Zm-2.54.09c1.03-.06.27 1.49-.51 1.18-.77-.3 0-1.11.51-1.18Zm-.3 2.51c.73-.04.69 1.23 0 1.25-.73.02-.69-1.21 0-1.25Zm-2.86.43c.95.04-.01 1.95-.78 1.2-.44-.43.39-1.1.78-1.2Zm-1.41-2.67c.71-.04.06 1.24-.33 1.26-.62.03 0-1.14.33-1.26Zm-1.21 2.57.53.02c.31.09-1.73 1.76-1.88 1.12-.16-.66.87-1.08 1.36-1.14Zm-12.59 25.27c.53-.02.47 1.84-.13 1.51-.66-.35-.33-1.24.13-1.51Zm.05 6.43c-.8-.22-.98-1.97-.31-2.3.63-.04 1.46 2.61.31 2.3Zm4.53-8.81c.66-.04.54 3.05-.08 3.08-.62.04-.58-3.05.08-3.08Zm-2.73 14.13c-.78-.31-.98-1.95-.61-2.49.57.06 1.87 2.98.61 2.49Zm.64-7.78c-.78 0-.76-2.45 0-2.49.77-.05.75 2.5 0 2.49Zm1.65 7.67c-.81-.39-1.42-1.52-.75-2.13.94-.02 2.44 2.94.75 2.13Zm1.92-2.94c-.66.22-1.71-2.94-.99-2.98.81-.04 1.67 2.76.99 2.98Zm3.9 5.4c-.3.27-2.11-2.31-2.36-2.64.35.32 2.74 2.3 2.36 2.64Zm26.04 1.52c-1.41.16-2.26-2.02-.96-2.84-.34.1 1.08 1.72 1.06 1.68.07.14 1.23 1.01-.1 1.16Z"/><path fill="#69310b" stroke-width="0" d="M328.56 147.24c.17-.1 2.48 5.09 2.68 5.54.4.91.27 2.13 1.29 2.63.69.34 2 .22 2.21-.67.29-1.22-2.21-3.86-2.88-4.67-.91-1.1-1.92-2.36-3.31-2.83ZM302.58 161.12c.52-.2-1.64-2.45-1.91-2.32-.11.05.91 2.7 1.91 2.32ZM313.66 101.18c1.33-1.36-.95-2.53-1-3.69-.05-1.26 1.26.37 2.05-.19 1.33-.95-.4-2.89-.54-3.88-.1-.65 2.64 1.29 2.2.23-.32-.77-1.53-.96-2.3-.94-1.61.2.67 2.54.43 3.18-.38 1.01-2.24.03-2.81.79-.93 1.24 1.3 1.58 1.22 2.76-.07 1.03-2.18-.03-1.48 1.73.46 1.15.41.29.88.31-.22 0 1.41-.37 1.35-.3ZM314.86 88.27c-.55.51.27 2.2.54 2.79 1.89 4.17.31-2.2.33-2.22.88-.73 4.57 2.06 5.84.44 1.13-1.43-3.18-4.03-2.58-4.67.83-.88 5.04 4.4 6.82 3.17 2.82-1.95-2.99-4.66-2.59-6.03.13-.44 1.83.9 2.05.75.41-.28-1.59-1.61-1.97-1.66-2.52.03 5.81 7.46.89 5.75-1.64-.57-4.02-3.49-5.75-3.29-1.98.23-.05 2.14.62 2.84 1.02 1.08 2.89 2.49.78 2.82-.89.14-4.2-1.42-4.97-.7Z"/><path id="d" fill="#0a1e65" stroke-width="0" d="M218.63 134.45c-5.24.13-16.65 2.87-14.39 10.42.98 3.29 4.17 5.3 5.38 8.4.57 1.46-.28 1.53-1.63 2.29-1.94 1.1-3.96 2.06-5.92 3.11-3.73 2.01-7.4 4.13-10.97 6.4-2.6 1.65-5.43 3.29-7.39 5.72-4.22 5.24-5.82 12.21-3.76 18.75.73 2.31 2.34 2.97 4.08 4.45.89.75 2.79 2.05 3.15 3.23.4 1.32-1.21 2.23-2.24 3.14-2.8 2.49-6.63 5.41-8.01 9.02-1.2 3.14.64 6.07 1.66 8.97 1.15 3.25 1.43 6.79 2.66 10s4.47 2.73 7.42 2.06c1.12-.26 4.29-1.75 5.28-1.36 1.21.48 2.71 3.19 3.56 4.2 1.97 2.34 3.65 4.84 5.49 7.26 2.17 2.85 4.71 2.05 7.83 1.17 7.59-2.14 14.14-5.92 20.91-9.8 6.44-3.7 12.7-7.4 18.74-11.77 6.23-4.51 12.16-9.51 18.59-13.75 3-1.98 6.42-3.65 9.85-4.73 1.38-.43 2.84-1.07 2.96.56.07 1.06-.86 2.67-1.22 3.64-.56 1.53-1.03 4.06-2.08 5.33-1.53 1.85-6.12 1.33-8.42 1.53-5.59.48-14.61 2.09-16.85 8.23-1.26 3.45 1.7 4.87 4.12 6.71 3.14 2.39 5.7 5.32 8.59 7.96.73.67 1.55 1.59 2.55 1.81 1.67.36 4.26-.95 5.77-1.53 3.63-1.39 7.27-3.07 10.53-5.19 6.25-4.08 11.4-10.71 16.18-16.36 5.45-6.44 10.61-13.13 14.77-20.49 1.62-2.87 3.24-5.74 4.9-8.58 1.14-1.95 2.69-3.86 3.65-5.88.87-1.84 1.24-3.96 2.07-5.87 2.35 1.34 4.69 2.84 7.14 3.98 4.13 1.91 9.5 1.75 13.97 1.75 4.98 0 10.17-.65 14.96-2.04 5.1-1.48 9.59-4.57 14.59-6.37 2.5-.9 5.05-1.64 7.65-2.16.9-.18 5.19-1.41 5.89-.57.81.96-5.9 6.99-7.5 7.55-1.82.63-3.87.72-5.74 1.11-2.92.61-5.81 1.42-8.65 2.33-5.62 1.79-11.11 3.98-16.47 6.44-2.88 1.32-11.56 4.11-11.12 8.17.2 1.85 1.98 4.02 2.77 5.77.67 1.48 2.58 4.47 2.33 6.04-.2 1.2-.72 1.27-2.07.85-2.33-.72-4.67-2.31-6.9-3.32s-4.62-2.01-6.97-2.93c-1.54-.6-3.35-1.57-5.04-1.53-3.48.07-5.82 6.71-7.2 9.33-.84 1.6-1.74 3.22-2.43 4.89-.78 1.89.1 2.71 1.4 4.23 3.12 3.62 6.21 7.3 8.85 11.3 1.08 1.63 1.67 2.64 3.61 3.4 2.31.91 4.73 1.61 7.05 2.5 1.88.72 4.91 2.68 6.7 2.2 1.02-.27 2.18-1.51 3.07-2.09 2.04-1.35 3.9-2.6 6.4-2.35 8.89.92 17.64 2.79 26.57 3.57-.97.75-1.96 1.48-2.89 2.27-.68.57-5.93 5.06-5.37 5.94.67 1.07 8.44-5.21 9.96-3.55.01.02-6.76 6.52-7.06 7.98-.38 1.84 1.05.76 2.19.19 1.88-.94 3.77-1.61 5.84-2.01 4.98-.96 9.72-.36 14.67.38 4.09.61 10.61 1.19 14.08-1.62 5.2-4.21 3.21-10.44 1.88-15.8-.76-3.06-.61-7.19-3.18-9.39-3.28-2.82-8.76-3.59-12.87-4.33-4.64-.83-9.3-.75-13.95-1.4-3.16-.44-6.36-.47-9.55-.59 1.92-2.41 4.55-4.62 1.66-7.4-1.72-1.66-4.08-2.54-5.76-4.21-1.22-1.22-.65-1.28.85-1.96 3.56-1.61 7.52-2.71 11.34-3.47 1.08-.21 1.79-.52 2.65-.07.97.51 1.91 2.04 2.67 2.84 2.98 3.13 6.51 6.99 11.33 6.41 2.16-.26 4.35-1.55 6.38-2.3 2.49-.93 5.02-1.74 7.62-2.31 4.23-.92 9.09-.92 12-4.55 2.98-3.73 1.02-8.91-.31-12.92-.34-1.03-.64-2.07-.88-3.13s-.22-3.17-.96-3.96c-.98-1.04-3.61-.88-4.95-1s-16.12-.59-16.12-.84c0-.71 7.06-1.07 7.79-1.2 2.23-.41 5.42-1.19 6.34-3.58.64-1.67-.26-3.39-.95-4.89-1.19-2.6-2.53-5.15-3.96-7.63-1.25-2.17-2.24-3.7-4.72-4.5-2.45-.79-5.15-.96-7.7-1.11-6.3-.37-12.79-.4-19.05.52-12.07 1.77-24.19 6.47-34.65 12.69-2.63 1.57-5.13 3.24-8.01 4.35-3.01 1.16-5.85 1.4-9.01 1.61-3.41.23-5.39 4.39-7.7 6.65-3.61 3.52-7.76 6.2-11.62 9.4-2.97 2.46-5.75 5.14-8.56 7.77-.45-1.54-.76-3.4-1.59-4.78-1.37-2.26-4.55-3.72-6.44-5.6-2.25-2.25-3.48-4.05-6.8-3.7-.59.06-8 1.5-7.94 1.63-.23-.59 1.64-2.36 1.94-2.73 1.1-1.33 2.9-2.9 2.74-4.73-.3-3.43-5.1-5.54-7.29-7.66-1.54-1.49-2.94-3.1-4.38-4.69-1.42-1.58-1.43-2.04-3.48-1.76-14.05 1.89-28.19 6.85-40.65 13.58-7.02 3.79-13.31 8.63-19.98 12.97-2.64 1.72-13.54 9.68-13.86 1.94-.21-5.14 5.62-8.24 9.51-10.31 7.24-3.85 14.46-7.73 21.44-12.05 2.9-1.8 5.04-3.33 5.43-6.91.39-3.49.18-7.03.56-10.53s2-7.65.54-10.94c-1.72-3.88-6.15-4.16-9.88-4.12Zm1.93 1.07c1.11.14 2.89 10.19 2.15 10.44-.36.12-4-9.61-2.15-10.44Zm1.9.11c1.34.1 1.55 1.47 1.76 2.53.13.69 1.16 5.65.43 6.18-.86.62-1.4-2.46-1.58-3.21-.37-1.51-1.31-4.14-.61-5.51Zm-4.98.11c.92 0 2.46 2.89 1.47 3.49-1.31.79-2.63-3.25-1.47-3.49Zm-2.56.07c.71.26 2.7 3.1 1.62 3.77-.96.59-3.68-3.86-1.62-3.77Zm10.61.66c1.4.67 2.06 6.21.42 5.96-.92-.14-.71-5.37-.42-5.96Zm-13.66.17c1.81.25 3.93 6.12 2.32 6.37-.76.12-3.42-5.81-2.32-6.37Zm-2.72 1.15c1.56.32 2.94 3.76 3.52 4.98.44.92 2.19 5.23-.34 3.04-.85-.73-5.03-7.34-3.18-8.03Zm-1.83 1.73c1 .12 1.87 2.68 2.24 3.46.46.97 2.52 6.17-.25 3.45-.86-.84-4.81-6.74-1.99-6.9Zm-1.99 3.18c.87-.16 3.69 4.39 1.84 4.48-1.76.09-2.64-3.36-1.84-4.48Zm12.91 3.73c.34.3 1.6 2.53.64 2.86-1.11.38-1.1-2.41-.64-2.86Zm-2.1.57c1-.06 1.82 3.34.46 2.85-.84-.3-1-2.34-.46-2.85Zm-2.09.76c.68.25 2.6 3.2 1.23 3.42-.82.13-1.66-2.92-1.23-3.42Zm-2.07.73c1.09.17 2.75 4.11 1.05 3.71-.86-.2-2.85-3.59-1.05-3.71Zm-2.79.75c.95-.06 2.88 3.87 1.74 3.65-.74-.14-2.14-3.18-1.74-3.65Zm192.06 5.02c1 .09 3.19 1.28 3.24 2.37.11 2.61-2.94-1.69-3.92-.87-1.6 1.32 3.11 4.47 3.52 5.86.69 2.35-1.72 4.07-3.72 3.25-.61-.25-4.41-2.96-2.84-4.03.55-.37 5.1 4.39 4.32 1.03-.28-1.22-2.11-2.14-2.75-3.22-1.24-2.1-.32-4.12 2.15-4.39Zm-7.35.08c1.09.06 1.22.42.74 1.1-.91 1.29-2.06-.13-2.59 1.62-.37 1.22 1.33 7.55-.22 7.61-1.42.05-1.3-4.49-1.41-5.31-.33-2.68-1.29-3.18-3.57-4.21 2.29-.24 4.79-.9 7.04-.81Zm-10.07.95c1.61 1.2 2.05 5.47 2.23 7.3.12 1.18.14 3.15-1.12 1.62-1.19-1.44-.15-4.32-2.86-3.71-1.25.28-1.56.65-1.74 1.81-.12.8.73 2.51.21 3.21-1.36 1.81-2.09-4.7-2.26-5.61-.18-.96-1.5-4.31.24-3.29.83.49.59 1.89 1.62 2.4.6.3 2.44.22 2.92-.3.83-.88-.09-2.53.76-3.43Zm-168.83.47c4.54-.29 2.51 4.51 4.07 6.9.36.55 1.61 1.69.94 2.37-.85.86-2.05-.48-2.66-.99-1.57-1.3-3.2-1.92-3.06.78.05.96 1.13 3.82-.55 2.89-1.54-.86-2.76-4.83-3.32-6.36-.77-2.1-.63-2.56 1.12-3.78 1.04-.72 2.22-1.52 3.47-1.8Zm154.93 1.65c.45 0 2.47.02 2.56.84.14 1.3-3.58-.34-4.15 1.24s1.8 6.79 3.75 6.71c.82-.04 1.73-.75 1.57-1.66-.2-1.1-1.52-.67-1.82-1.41-.63-1.54 4.31-3.09 4.31-1.15 0 .09-.61 1.05-.65 1.17-.25.74-.08 1.56-.2 2.32-.23 1.37-1 2.93-2.47 3.36-4.39 1.29-9.56-11.44-2.88-11.41Zm-155.19.66c-1.92-.04-3.24 3.37-.98 3.28 1.38-.06 3.44-3.1.98-3.28Zm146.75 1.81c1.68.58 2.61 3.94 3.25 5.38.31.71 2.68 4.86 1.85 5.7-1.63 1.64-2.92-3.73-3.19-4.45-.52-1.39-2.63-5.17-1.91-6.63Zm-155.62.79c1.78.4 2.62 4 3.01 5.51.49 1.92.56 3.98-1.16 5.28-1.49 1.13-3.33 1.15-4.56-.19-.91-.99-3.86-5.74-3.25-7.12.9-2.05 2.44 2.08 2.77 2.78.68 1.46 2.25 5.04 4.21 3.02 1.97-2.03-3.12-9.01-1.02-9.27Zm150 2.01c2.64.18 2.42 3.05 3.04 4.91.37 1.09 3.52 4.63 2.89 5.55-1.03 1.51-3.72-3.33-4.5-3.56-2.49-.73-1.89 2.13-1.45 3.24.2.52 1.33 3.13-.23 2.66-1.25-.37-2.56-4.5-3-5.48-.53-1.18-2.28-3.99-1.8-5.25.48-1.27 3.82-2.12 5.06-2.07Zm.13 1.7c-1.16-.07-2.83.12-3.03 1.53-.08.56.37 1.63.92 1.9 2.04 1.02 5.17-3.5 2.11-3.43Zm-161.26 2.72c2.62-.06 4.46 3.84 4.78 6.07.33 2.38-1.8 4.73-4.26 4.81-2.71.09-4.31-3.88-4.63-6.06-.41-2.85 1.16-4.71 4.1-4.83Zm206.39.94c1.52 0 .97 4.86-.15 4.88-1.53.02-1.32-4.63.15-4.88Zm-3.26.09c1.73-.1 1.58 5.3-.18 4.91-1.41-.31-1.43-4.83.18-4.91Zm-2.95.17c1.52.47 1.04 5.86-.47 4.73-.94-.7-.55-4.3.47-4.73Zm9.13.09c1.45.4 1.05 5.07-.43 4.18-1.02-.61-.38-3.76.43-4.18Zm-209.73.43c-3.67.22-1.72 7.5 1.17 7.39 3.63-.15 1.29-6.96-1.17-7.39Zm212.42.03c1.24-.07 1.07 3.59-.12 3.53-1.33-.07-.66-3.1.12-3.53Zm2.75.7c1-.09.88 2.21-.09 1.45-.46-.35-.2-1.16.09-1.45Zm-17.16.35c1.26.12.33 4.51-.62 4.04-.83-.42-.32-3.74.62-4.04Zm-2.83 2.69c1.05-.04-.28 2.93-.7 1.77-.23-.63.2-1.46.7-1.77Zm-111.74 4.5c.69.03-.45 2.35-1.17 1.71-.56-.5.71-1.59 1.17-1.71Zm-3.48.76c2.82-.31.87 3.96-.62 2.84-.88-.66-.53-2.73.62-2.84Zm127.41.16c1.3.81.91 4.29 1.06 5.63.36 3.34 1.42 2.66 4.37 3.32 3.88.86-1.02 1.85-2.25 1.94-1.25.09-2.51.15-3.76.22v-5.27c0-1.39-.51-4.78.58-5.84Zm-9.34.02c1.23.11-.25 9.59-.75 10.62-1.41 2.9-3.08-2.09-3.62-3.4-.31 1.84-.73 7.57-3 3.82-1.24-2.05-2.03-4.48-2.83-6.73-.27-.75-1.51-3.44.02-3.18 1.31.23 1.89 4.67 2.96 4.57.83-.07.99-3.19 1.17-3.87 1-3.86 2.94 1.11 3.75 2.65.43-1.25.89-4.02 2.31-4.5Zm19.76.07c1.27.28.54 6.94.83 8.09.32 1.27.43.96 1.94 1.16 1.06.14 4.01.17 3.6 1.77-.31 1.21-2.78.69-3.63.61-1.81-.18-3.65.1-3.93-1.79s.15-4.59.36-6.52c.11-.98.09-2.62.83-3.31Zm-15.65.09c1.77 1.11 1.38 6.01 1.61 7.84.08.66.99 3.92-.86 3.28-1.39-.48-1.12-5.27-1.18-6.26-.07-1.07-.75-4.23.43-4.85Zm-125.41.48c1.67.16 2.29 3.74.4 3.7-1.18-.02-2.28-3.74-.4-3.7Zm-2.98.17c1.93.45 1.91 5.86-.06 3.41-.63-.78-1.21-2.97.06-3.41Zm-2.95.8c1.96-.13 2.52 4.73.46 4.14-1.02-.29-2.43-4.2-.46-4.14Zm-2.92.79c1.45.32 2.16 4.09.18 3.57-1.36-.36-1.97-3.41-.18-3.57Zm-2.96.9c1.03.09 1.83 3.49.33 3.58-1.56.09-1.53-3.1-.33-3.58Zm-3.18 1.46c1.29.16 1.44 3.88-.06 2.68-.62-.49-.86-2.37.06-2.68Zm112.86.24c2.7-.13-3.09 2.7-3.22 2.86-2.01 2.35 1.57 1.65 2.56 2.62 1.49 1.46-3.24 2.53-1.1 4.38 1.27 1.1 4.67-1.72 5.42-.4.94 1.67-4.35 3.32-5.15 3.45-2.55.41-2.36-1.55-2.88-3.63-.39-1.56-2.37-6.17-1.36-7.63.83-1.2 4.55-1.55 5.73-1.64Zm-115.52 1.11c.65.07 1.58 1.24.72 1.66-.81.39-1.76-1.29-.72-1.66Zm27.24.29c1.14.06-.51.96-.72 1.08-1.09.63-3.2.87-3.79 2.02-.48.94.17 2.08 1.11 2.42s4.34-.24 2.01 1.31c-.94.63-2.44 1.36-1.3 2.94.74 1.01 2.06.47 3.14.29.57-.1 2.89-.86 2.92.37.03 1.35-3.02 1.63-3.94 1.79-3.46.6-3.63-2.03-4.52-4.91-.32-1.05-1.95-4.17-1.59-5.18.5-1.4 5.5-2.11 6.69-2.13Zm-29.69.39c2.15.25-.63 2.06-.77.79-.05-.48.3-.73.77-.79Zm14.24.41c1.97-.18-1.75 2.24-1.97 2.39-2.39 1.62-4.84 3.15-7.23 4.78-4.29 2.95-8.43 6.13-12.64 9.19-4.76 3.47-9.71 6.57-14.88 9.39-3.93 2.14-7.97 4.73-12.18 6.31-.48.18-1.21.66-1.62.29-.65-.57-.12-4.98-.14-5.87-.03-1.31.2-2.92-.09-4.2-.32-1.41-.52-.87-2.18-.98-1.96-.14-3.02-.26-1.34-1.75 1.97-1.75 4.42-3.08 6.59-4.57 4.44-3.06 9.07-5.71 13.94-8.04 5.78-2.78 12.26-3.62 18.58-4.41 3.25-.41 6.51-.74 9.73-1.36 1.81-.35 3.6-.95 5.43-1.16Zm-16.69.43.43.14c.27.29-1.1.45-1.26.28.18-.3.45-.44.83-.42Zm110.46 1.15c1.94.03 2.11 6.44 2.26 7.45.18 1.28 1.18 5.71-1.45 4.34-1.46-.76-2.42-3.31-3.21-4.69 0 .85.45 7.19-.5 7.47-1.07.31-3.47-3.84-3.97-4.58-.28-.41-3.55-5.41-2.94-5.57 1.06-.33 4.61 4.47 5.36 5.29-.09-1.29-.2-2.59-.27-3.88-.08-1.41-.68-4.91 1.43-3.17 1.11.92 3.64 5.52 3.31 1.46-.07-.83-1.08-3.72-.01-4.11Zm-47.36.21c1.17.06 3.19 1.64 3.63 2.83.75 2.02-.72.32-2.03.87-2.08.88 1.35 1.6-.24 2.73-1.48 1.05-6.03-6.65-1.37-6.43Zm.17.74c-.97-.09-1.2 1.63-.49 2.08 1.25.79 2.33-1.7.49-2.08Zm-41.61 1.13c1.38 0-.08 8.69-.23 10.37.96-.52 2.84-2.02 3.9-1.97 2.5.11-.71 2.48-1.54 3.04-.8.54-3.33 2.61-4.19 1.87-.95-.82.06-4.86.22-6s.48-2.33.45-3.46c-.03-.98.31-1.21-.67-1.17-.81.03-3.76 2.95-4.47 1.34-.77-1.73 5.33-3.93 6.52-4.01Zm-81.89.83c.45.09 1.73 1.22.93 1.55-.5.2-1.43-1.1-.93-1.55Zm118.29 1.61c2.85.43 4.86 6.16 3.29 8.34-.9 1.26-2.88 1.43-4.16.65-.92-.56-3.04-3.34-2.66-4.48.83-2.47 3.96 4.79 5.06 1.74.59-1.65-3.04-5.08-1.53-6.25Zm-120.06 1.76c.85-.17 3.31 2.63 1.85 2.74-1.05.08-2.04-1.99-1.85-2.74Zm217.67.4c2.19-.18 3.29 8.18 1.26 7.74-1.88-.4-2.59-7.29-1.26-7.74Zm-5.55.12c2.02-.1 2.26 10.41.44 9.7-1.18-.46-1.85-9.31-.44-9.7Zm8.57.14c2.08-.03 3.61 6.02 1.59 6.12-1.86.1-2.42-5.74-1.59-6.12Zm6.5.23c1.81-.1 3.56 5.4 1.03 4.91-1.4-.27-2.2-4.24-1.03-4.91Zm-12.28.1c.88-.13 3.36 8.1 1.24 7.97-1.67-.1-2.3-6.79-1.24-7.97Zm9.33.08c1.46-.08 2.66 4.24 1.68 4.94-1.79 1.28-3.58-4.87-1.68-4.94Zm-14.47.22c.8-.04 1.12 5.22 1.18 5.72.11 1 .46 3.66-.99 2.02-1.19-1.34-1.19-6.58-.19-7.75Zm-2.51.16c1.6.05.98 4.44 1.16 5.47.14.78 1.72 3.98.45 3.97-2.46-.03-5.59-9.73-1.61-9.44Zm23.5 0c1.27.31 1.97 2.22 1.23 3.31-1.48 2.15-2.8-3.16-1.23-3.31Zm-157.73.35c1.32-.07 3.4 5.31 3.82 6.31.21.49 1.85 4.42.96 4.4-1.13-.02-3-4.61-3.49-5.55-.41-.77-3.09-4.79-1.29-5.16Zm160.92.07c1.26.36 1.12 2.61-.07 2.32-1.01-.24-.82-2.05.07-2.32Zm-30.13.32c1.03 1.16 1.18 3.37 1.46 4.85.19 1 .77 3.62-1.12 1.88-1.18-1.08-1.4-5.57-.34-6.73Zm-95.86.07c1.06-.06 1.05 1.24.1 1.15-.88-.09-.81-.98-.1-1.15Zm93.69.12c.94.09 1 4.92-.26 4.11-1.06-.68-.93-3.57.26-4.11Zm-97.59 1.57c.83.03 4.66.24 3.27 1.66-1.75 1.79-8.15-1.72-3.27-1.66Zm-35.87 1.88c1.25.04 2.19 1.01 2.56 2.15.32.98-.1 1.89.16 2.85s1.22 1.69 1.88 2.4c1.59 1.73.85 3.36-1.3 1.82-1.24-.89-3.85-3.15-4.06-.17-.08 1.12 1.79 3.1 1.01 4.2-.96 1.33-2.36-1.93-2.8-2.76-.92-1.74-3.46-5.65-2.7-7.66.6-1.59 3.77-2.67 5.25-2.82Zm45.29.07c4.33.16 6.21 10.14.87 9.61-3.98-.39-5.88-9.31-.87-9.61Zm-12.92.67c.71-.01 7.11.29 4.72 1.68-.95.55-4.75-.31-5.53-.77-1.31-.76-.6-.91.81-.92Zm-32.99 1.38c-1.82-.23-4.31 3.79-1.23 3.55 1.72-.13 3.5-2.75 1.23-3.55Zm45.79.35c-4.25.42 2.16 8.74 2.34 3.42.05-1.33-.99-3.15-2.34-3.42Zm-15.34.29c1.4-.04 4.27.28 5.49.88.98.48 1.35.46.15 1.01-1.08.5-4.83.45-5.68-.69-.41-.55-.69-.9.04-1.19Zm82.34.65c1.04.14 2.31.98 3.07 1.7 1.14 1.1.66 2.48-1.2 2.09-.91-.19-2.67-2.91-1.87-3.79Zm-2.56.15c.97-.05 4.2 4.61 2.38 4.82-1.43.17-4.35-4.5-2.38-4.82Zm-3 1.17c1.37.37 5.08 5.28 2.4 5.72-1.68.27-4.79-5.19-2.4-5.72Zm-77.18.88c.77-.07 5.28.47 4.52 1.54-.97 1.38-5.94-1.03-4.52-1.54Zm74.24.79c1.49-.08 4.81 6.32 1.92 5.04-.96-.42-3.75-4.54-1.92-5.04Zm-112.79.39c1.46-.02 2.48 1.73 2.4 3.1-.11 2.04-2.45 2.82-3.49 4.27-1.16 1.63.81 2.97 1.19 4.74.09.41.46 1.32-.09 1.57-1.15.52-4.92-7.8-5.55-8.94-.82-1.49-.87-1.5.5-2.66s3.18-2.01 5.03-2.08Zm126.6.67c1.81-.02 3.84 3.53 1.81 3.4-1.02-.06-3.53-2.88-1.81-3.4Zm-16.52.34c1.09.41 4.39 5 2.3 4.65-1.05-.18-4.25-3.98-2.3-4.65Zm-72.39.05c.58.01 3.07.36 3.05 1.29s-1.5.82-2.1.65c-.83-.23-2.81-2.03-.95-1.94Zm-38.72.94c-1.93.02-3.8 3.45-1.3 3.66 1.37.11 3.78-3.82 1.3-3.66Zm-33.61.02c1.35-.18 1.45 3.79.45 3.65s-1.26-3.14-.45-3.65Zm2.5.07c.42.27.68 1.88-.07 1.53-.51-.24-.26-1.22.07-1.53Zm156.33.09c1.15-.04 4.78 4.3 2.6 3.99-1.11-.16-2.99-2.95-2.6-3.99Zm-161.93.28c1.06.63 3.01 5.42.92 4.35-.94-.48-1.5-3.56-.92-4.35Zm145.11.11c.97-.05 3.55 1.79 1.69 2.23-1.26.3-4.32-1.89-1.69-2.23Zm14.61.86c2.09.4 4.59 5.42 1.44 3.87-.64-.31-3.46-3.69-1.44-3.87Zm-85.16.01c1.67.07.12 2.16-.81 1.39-.67-.55.12-1.37.81-1.39Zm-76.56.24c1.42.6 2.51 6.13.48 5.21-1.17-.53-2.16-4.95-.48-5.21Zm159.36 1.15c.98.16 2.7 2.06 1.13 2.4-1.36.3-2.51-1.9-1.13-2.4Zm-162.37.89c1.47-.09 2.79 4.24 1.07 4.63-1.49.34-2.57-3.98-1.07-4.63Zm160.14.54.44.14c.26.29-1.1.45-1.26.28-.19-.2.77-.41.83-.42Zm-150.13.45c.69.16.46 2.13.46 2.56 0 .86.15 4.63-1.06 3.35-.79-.83-.11-5.13.6-5.91Zm76.28.07c5.86.27 1.87 11.63-.97 10.27-1.46-.7-3.19-5.52-3.43-7.08-.36-2.33 2.41-3.18 4.4-3.19Zm-88.56 1.07c.92.15 1.82 3.57.53 3.8-1.13.2-1.83-3.25-.53-3.8Zm73.26.43c.69-.03.55.86.23 1.17-.41.39-1.27-.74-.23-1.17Zm-3.7.19c.95.09 2.5 1.96.95 2.42-1.2.35-1.76-1.89-.95-2.42Zm-59.66.1c.65.67 1.36 5.21-.08 5.29-1 .05-.37-4.74.08-5.29Zm77.5.04c-1.66-.15-.51 7.12 1.71 4.86 1.56-1.59.23-4.45-1.71-4.86Zm-21.41.09c1.31-.06 3.65 2.7 1.67 3.2-1.57.39-4.35-3.65-1.67-3.2Zm14.77 1.01c1.46 1.36 2.26 4.17 2.98 5.97.52 1.3 2.83 6.06-.47 4.62-1.39-.6-2.33-2.17-3.45-3.12s-1.42-1.36-1.49.1c-.06 1.25 1.92 3.83 1.39 4.96s-.86.48-1.49-.58c-.74-1.24-1.13-2.85-1.64-4.2-.46-1.21-1.39-2.87-1.37-4.2.07-3.74 4.59 1.97 5.49 2.81 3.74 3.53-1.84-5.83.06-6.37Zm-83.29.01c1.19.2 1.69 2.91.28 2.96s-1.38-2.48-.28-2.96Zm64.97 0c.65.19 2.62 1.65 2.66 2.52.06 1.58-1.41 1.1-2.34.3-.77-.66-1.91-2.38-.32-2.83Zm-54.64.2c.38.39 1.75 4.9.28 5.09-1.61.22-.8-4.56-.28-5.09Zm18.89.66c2.46.35-.88 2.35-1.53 2.73-1.29.75-3.81 3.05-1.08 3.63.79.17 3.01-.72 2.58.92-.22.82-1.74.87-2.07 1.63-.29.67.18 1.72.75 2.17 1.16.91 2.36-.14 3.59-.72 2.46-1.16 3.13-.42.8 1.35-.97.74-2.05 1.43-3.15 1.95-1.98.94-2.35-.62-3.28-2.29-.85-1.54-3.83-5.89-3.02-7.67.47-1.02 2.77-1.68 3.73-2.21.79-.44 1.79-1.42 2.69-1.49Zm-21.15.33c1.01 0 .33 4.55.27 5.36-.23-1.2-1.36-4.42-.27-5.36Zm53.93.06c1.53.43 3.44 4.66 1.05 3.94-1.13-.34-3.09-3.96-1.05-3.94Zm-56.08.77c.87-.05 1.52 4.48.51 4.62s-1.32-4.1-.51-4.62Zm-8.36.23c1.49.01.76 3.37-.65 2.61-1.06-.57-.43-2.48.65-2.61Zm61.4.42c1.02.02 3.79 3.91 1.59 3.55-1.12-.18-2.59-2.84-1.59-3.55Zm-55.25.8c.91.36 1.71 4.17.78 4.22-1.37.07-1.5-3.66-.78-4.22Zm-2.12.83c.99.39 1.63 2.82 1.04 3.63-1.16 1.62-3.42-3.15-1.04-3.63Zm-6.72.24c.66.09 1.95 1.67.86 2.11-.77.3-1.87-1.63-.86-2.11Zm129.38.02c1.17.2 2.19 1.1 2.99 1.93 1.16 1.2 4.23 4.76 4.08 6.51-.25 2.8-3.06-1.54-3.55-2.19-.6-.8-4.77-5.99-3.51-6.25Zm-67 .43c.72.14 1.82 1.29 1.13 1.93-1.01.95-2.85-1.3-1.13-1.93Zm-58.1.75c.71.11.94.99.9 1.65-.14 2.66-2.36-.41-.9-1.65Zm73.31.04c2.11.31 6.42 7.42 5.77 9.35-.47 1.41-1.44-.89-2.69-.84-2.11.08-2.23 1.9-3.09 3.18-.71 1.05-.79 1.21-1.27-.42-.53-1.8-.15-4.23-.1-6.07.03-1.02-.43-5.13 1.37-5.2Zm-79.47.32c1.68.18 1.88 5.3 1.56 5.3-1.49 0-3.35-4.73-1.56-5.3Zm26.35.28c1.53.23 1.3 9.52 1.29 10.26-.05 2.47-1.09 3.23-2.73 1-.81-1.1-1.83-4.33-2.66-2.13-.47 1.25.23 6-1.45 5.45-.86-.28-2.02-2.75-2.48-3.45-1.03-1.57-2.07-3.17-2.95-4.83-.15-.28-1-1.5-.75-1.82.55-.74 1.95.2 2.34.53 1.23 1.02 1.96 2.77 2.74 4.13.1-1.19-.06-5.56 1.18-6.19 1.58-.8 3.46 3.08 4.19 4.14.14-1.74-.15-6.06 1.29-7.08Zm-22.24 1.14c1.17-.06.9 1.25-.16 1.23s-.59-1.09.16-1.23Zm133.29.07c1.63.39 5.27 5.82 2.35 4.66-.72-.29-3.21-3.72-2.35-4.66Zm-139.93.64c1.31.14 3.63 5.19 1.39 4.62-1.22-.31-2.78-3.89-1.39-4.62Zm82.13.83c0 .87-.44 3.76.77 3.97 2.65.44-.21-3.35-.77-3.97Zm62.82.65c1.18.07 1.48 1.26.09.88-.75-.2-.67-.6-.09-.88Zm-147.1.82c1.49-.09 3.22 4.51.9 3.21-.72-.41-2.16-2.9-.9-3.21Zm150.36.74c2.74.25 5.42 1.8 8.04 2.62.69.22 3.23.61 3.5 1.39.42 1.24-1.03 1.17-1.81.97-2.35-.62-4.73-2.19-6.96-3.17-.56-.25-3.71-1.16-2.77-1.81Zm-152.02 1.31c.93.07 1.54 1.91.31 1.67-.77-.15-1.12-1.38-.31-1.67Zm149.16.1c2.15-.29 5.53 1.83 7.41 2.65.31.13 4.86 2.36 4.45 2.6-1.2.7-6.04-1.95-7.15-2.41-.69-.29-5.64-2.23-4.72-2.83Zm-2.7 1.96c3.19.05 6.99 1.74 9.79 3.15 1 .5 3.62 2.25 1.08 1.97-1.34-.15-3.03-1.38-4.24-1.91-1.62-.71-3.27-1.33-4.95-1.88-.36-.12-4.03-1.26-1.68-1.33Zm54.73 5.77c1.37.39 1.55 3.07 0 2.69-1.02-.25-.94-2.38 0-2.69Zm6.39.04c1.08-.11 2.97 9.69.43 8.39-1.41-.72-1.56-7.59-.43-8.39Zm-3.17.02c1.61.47 2.72 8.68.5 7.97-1.61-.51-2.04-7.32-.5-7.97Zm6.03.35c1.7-.25 2.73 8.64 1.18 9.19-1.25.44-2.12-8.14-1.18-9.19Zm-12.39.14c1.28.17 1.6 1.99 0 1.73-1.06-.17-1.21-1.68 0-1.73Zm15.84.34c.83-.08 2.44 7.93 1.61 8.79-1.58 1.64-2.16-3.81-2.2-4.56-.06-1.22-.34-3.26.59-4.23Zm-18.6.33c1.14-.07 1.01 2.04-.15 1.84-1.08-.19-.66-1.63.15-1.84Zm21.56.1c1.54.86 1.47 3.6 1.69 5.08.1.69.88 5.39-1.23 2.88-.79-.95-1.81-7.43-.46-7.96Zm3.63.92c2.03-.11 1.87 7.38.57 7.49-1.58.13-1.92-6.57-.57-7.49Zm-27.55.36c.94.81-1.16 1.68-.91.8.11-.42.52-.7.91-.8Zm30.6 1.88c.59.39 2.19 3.4.69 3.7-.97.19-1.27-3.17-.69-3.7Zm-21.86.11c1.26-.08 1.79 3.79.44 3.7-.97-.06-1.73-3.56-.44-3.7Zm-2.62.78c1.64.29.83 4.22-.58 2.48-.57-.71-.24-2.13.58-2.48Zm-2.69 1.4c.92-.05 1.05 1.8.45 2.25-1.19.9-1.84-1.86-.45-2.25Zm-2.57 2.05c1.38-.2-.94 2.42-1.4 1.45-.33-.69.88-1.32 1.4-1.45Z"/><g id="e"><g id="f"><g id="g" fill="#d80025" stroke-width="0"><path id="h" d="M269.79 298.51c-9.82 0-8.02 11.15-8.02 17.67 0 2.98-.12 5.98 0 8.96.19 4.58 3.68 7.42 8.12 7.59 6.28.25 16.87 1.36 17.29-7.49.29-6.16.08-12.44 0-18.6-.06-4.74-3.31-7.92-8.06-8.12-.89-.04-9.32.03-9.32 0Zm4.68 4.94c6.25 0 4.68 8.44 4.68 12.45s1.44 11.9-4.68 11.9c-6.12 0-4.68-7.94-4.68-11.9s-1.57-12.45 4.68-12.45Z"/><path id="i" d="M244.38 298.69c.16.96 1.55 1.44 2 2.53.23.56.25 1.1.29 1.68.08 1.03 0 2.09 0 3.12v11.89c0 3.41.04 6.83 0 10.24-.01.88.06 1.75-.29 2.59-.69 1.67-3.45 2.53-.61 2.53h5.44c.92 0 4.11.54 4.92 0s-1.31-2.71-1.44-3.97c-.07-.75 0-1.54 0-2.29v-22.37c0-.86-.12-1.88.08-2.73.17-.74 2.15-2.62 1.64-3.21-.11-.12-.9.03-1.05 0-3.33-.71-7.57 0-10.99 0Z"/><path id="j" fill-rule="evenodd" d="M340.31 298.84c-3.11 6.01-6.23 12.02-9.34 18.03-1.81 3.49-3.62 6.99-5.43 10.48-1.13 2.19-1.62 4.7-4.36 5.33h8.35c-1.32-.87-1.24-2.92 0-3.95.54-.44.48-.28 1.29-.38 2.68-.33 5.61 0 8.32 0 1.62 0 5.05-.7 6.52 0 1.61.77 2.58 4.14-.25 4.14h14.05c-2.51-1.13-3.44-3.75-4.64-6.03-1.92-3.66-3.84-7.32-5.77-10.97-2.91-5.55-5.83-11.1-8.74-16.65Zm-2.44 13.54c2.04 4.2 4.07 8.4 6.11 12.6-4.21-.06-8.42-.13-12.63-.19 1.09-2.07 2.17-4.14 3.26-6.21.71-1.36 1.43-2.72 2.14-4.08.26-.49 1.12-1.57 1.12-2.13Z"/><path id="k" fill-rule="evenodd" d="m327.54 298.83-.19.02h-7.6c1.85 1.73.11 4.88-.49 6.94l-2.26 7.72c-.76-1.92-4.87-14.9-6.33-14.67-1.09.18-3.14 6.01-3.62 6.99-1.23 2.5-2.46 4.99-3.69 7.49-.54-2.18-1.08-4.36-1.6-6.54-.71-2.97-1.77-5.35.45-7.93h-12.29c2.41 1.54 2.65 2.63 3.26 5.1.89 3.58 1.77 7.15 2.66 10.73l4.47 18.02c1.33-3.33 2.65-6.67 3.97-10.01.85-2.15 1.71-4.31 2.55-6.46.5-1.28.94-3.17 2.21-1.26 1.66 2.51 2.42 6.31 3.49 9.1l3.66 9.57c1.62-5.61 3.24-11.22 4.85-16.83 1.07-3.71 2.13-7.42 3.19-11.14.45-1.59 1.11-6.55 3.11-6.81Z"/></g></g></g><path id="l" fill="#fff" stroke-width="0" d="M192.1 215.75c1.35-1.59 2.49-1.97 1.94-4.11-.86-3.32-1.48.7-2.85.81-2.23.18-1.89-7.63-3.68-8.21-2.99-.97-.73 5.11-.58 5.56.53 1.63 1.08 3.25 1.57 4.89.19.63.3 2.17.7 2.67.97 1.22 2.05-.61 2.91-1.62Zm6.06-5.96c.24-.96-.56-2.75-.81-3.61-.54-1.89-1.11-3.8-1.85-5.62-.4-.98-1.29-3.34-2.39-1.54-.89 1.45.8 4.93 1.22 6.27.45 1.45.75 3.66 1.63 4.88.1.14.17.72.37.82.64.31 1.69-.64 1.83-1.2Zm7.8-6.3c1.29-1.27 2.2-2.71 1.54-4.56-.56-1.56-1.53-1.12-2.34-2.13s.02-2.79-1.41-3.72c-1.12-.73-2.19-.07-3.23.47-.77.41-2.38 1.07-2.77 1.86-.42.84.23 2.26.47 3.16.79 2.98 1.73 5.92 2.35 8.94 1.9-1.21 3.77-2.43 5.39-4.02Zm-3.9-1.61c-.87-1.96 2.42-3.41 3.05-1.77.47 1.2-2.23 4-3.05 1.77Zm-1.07-4.23c-1.46-.56.16-2.65 1.15-1.81.83.71-.25 2.04-1.15 1.81Zm15.46-1c.58-.58.05-2.43-.73-2.63-1.17-.29-1.9 1.83-2.96 2-1.11.17-1.52-1.13-1.2-2.07.38-1.11 2.56-1.57 2.03-3.09-.67-1.92-2.24.74-3.12-.27-.81-.94 1.54-2.24 2-2.6.48-.38 1.99-1.76.7-2.45-.61-.32-2.66 1.4-3.18 1.75-2.12 1.4-2.43 2.01-1.84 4.31.55 2.14 1.13 4.27 1.72 6.4.46 1.65.2 2.26 1.89 1.47s3.33-1.7 4.7-2.82Zm3.98-4.5c-.35-1.54.35-3.52 1.97-2.04.73.66.53 1.5 1.63 1.48s1.34-.8 1.09-1.58-1.11-1.06-1.21-1.97c-.13-1.1.54-2.19.39-3.34-.28-2.19-1.61-3.45-3.82-3.16-1.26.17-3.47.89-3.98 2.23-.58 1.53.69 4.32 1.04 5.84.22.97.42 4.4 1.56 4.86 1.55.63 1.58-1.42 1.33-2.32Zm-.94-5.03c-2.01-2.02 1.09-4.9 2.45-3.27.94 1.12-1.21 3.92-2.45 3.27Zm41.48-13.18c.79-3.41-3.11-3.88-5.2-4.19-1.12-.17-2.22-.35-1.17-1.34.75-.71 2.79-.26 3.73-.53 2.44-.69.16-2.25-1.53-2.07-1.98.2-6.53 2.32-4.87 5.08 1.16 1.93 3.91.15 5.53 1.23 1.98 1.31.4 2.78-1.32 2.77-1.26 0-2.34-.84-2.82.62s.44 1.57 1.49 1.62c2.49.12 5.22-.6 6.17-3.18Zm-28.48 12.38c-.15-2.34-2.28-5.18-1.66-7.49.49-1.82 2.34-1.83 1.53-4.06-1.36.73-2.74 1.45-4.09 2.21-1.18.66-5.24 2.85-1.97 2.99 1.15.05 1.49-.27 2.23.92.87 1.39.93 3.29 1.43 4.83.15.48.47 1.93 1.12 2.09.84.22 1.47-.7 1.41-1.48Zm7.26-3.22c.39-1.46-.78-4.03-1.16-5.42-.26-.96-.69-4.2-1.7-4.6-3.1-1.21-.54 5.72-.34 6.41.26.94 1.62 7.5 3.21 3.6Zm11.25-5.57c-1.07-2.42-4.78 2.27-6.14.18-1.65-2.53 5.73-3.35 3.27-5.09-.99-.7-2.77 1.22-3.78.53-1.27-.87.5-1.84 1.11-2.11.88-.39 2.97-.45 2.88-1.67-.07-.95-.67-.89-1.32-.93-.61-.04-5.72 2.02-6.04 2.6-.22.4.45 2 .58 2.54.47 1.9.77 3.84 1.23 5.74.59 2.4 1.38 2.41 3.54 1.49.84-.36 5.6-1.66 4.67-3.26Z"/><path id="m" fill="#fff" stroke-width="0" d="M406.82 226.71c-.13-1.19-.05-6.08-2.12-6.08-2.82 0 .85 4.99-.83 5.34-2.25.48-3.63-7.63-6.38-5.19-.7.63.16 4.01.28 5.08.14 1.28-.03 5.17 1.19 6.09 2.33 1.75.94-4.49 1.73-4.94 1.29-.73 3.94 5.9 5.95 4.99 1.29-.59.28-4.32.17-5.3Zm-12.47 4.89c.91-1.65-.46-5.66-.75-7.5-.18-1.13-.04-5.52-2.37-3.97-1.45.97-.05 6.24.19 7.56.1.52 1.27 6.9 2.92 3.91Zm-5.14-.07c.39-.9-.75-2.8-1.07-3.57-.99-2.34-2.01-4.84-3.38-6.99-1.89-2.96-3.03-1.04-3.72 1.49-.31 1.13-2.78 8.11-1.04 8.73.73.26 1.38-.77 1.79-1.14.83-.77.72-.81 1.89-.73 1.02.07 5.08 3.28 5.54 2.21Zm-6.04-4.68c-.85-.44-.81-3.22.62-2.4 1.02.59.96 3.51-.62 2.4Zm-8.39-.76c-.06-1.39-.62-4.1.9-4.89.67-.35 4.34.12 2.17-2.04-.55-.55-2.01-.48-2.73-.59-1.69-.24-3.41-.62-5.12-.64-3.16-.03-1.35 1.84.57 2.53 1.72.62 1.43.74 1.54 2.58.1 1.87.08 3.81.42 5.65.17.91.45 2.42 1.74 1.76 1.16-.6.55-3.39.5-4.36Zm-8.19-3.16c-.07-1 .43-7.3-1.99-6.06-1.25.64.16 5.48-.69 5.58-.7.08-2.13-2.76-2.45-3.23-.55-.82-1.61-2.93-2.68-3.26-2.38-.73-1.43 4.04-1.37 5.28.07 1.48-.28 4.84.99 6.03 3.12 2.94 1.22-4.3 1.75-4.36 1.67-.21 3.97 8.26 6.66 5.9.71-.62-.14-4.72-.22-5.87Zm-14.1 2.58c.95-1.68.43-5.26.45-7.12 0-.88.52-5.97-1.94-4.08-.88.68-.47 3.53-.49 4.43-.04 1.74-.16 3.52-.06 5.27.04.72.9 3.72 2.04 1.5Zm-6.84-7.8c-.3-1.22-1.09-7.18-3.44-6.47-.61.18-.97 1.1-1.26 1.57-1.15 1.89-2.33 3.89-3.23 5.91-.43.96-.96 1.76.03 2.33.48.28 1.87-.09 2.42-.04 1.02.09 2.14.38 2.99.97.7.49 2.62 3.22 3.59 1.46.59-1.07-.82-4.61-1.1-5.73Zm-3.88 1.14c-1.72-.81.04-4.67 1.28-3.26.85.97.79 4.56-1.28 3.26Zm-6.81-.14c.26-1.75.36-3.53.5-5.29.09-1.08.59-3.05.11-4.13-1.26-2.85-3.82 1.65-5.42 1.67-1.87.02-1.14-4.97-2.8-6.05-2.35-1.54-2.43 3.04-2.66 4.41-.19 1.17-1.35 4.94-.41 5.89 1.94 1.96 1.95-6.91 3.53-.9.41 1.56.14 2.76 1.51 2.06.79-.4 2.25-3.45 3.39-2.93 1.29.59-.28 4.09.03 4.99.37 1.07 2.07 2.12 2.22.28Z"/></g></svg>