<svg xmlns="http://www.w3.org/2000/svg" width="200" height="300" viewBox="0 0 200 300"><path d="M78.21 191.43c.64.33 1.3-.64 1-1.27 0-1.29-2.89-2.59-2.89-.33a1.81 1.81 0 001.89 1.6zM52.34 155.55c.64-1-.33-1.92-.65-2.56l-.69-3.56c-.93 0-1.26.95-1.59 1.93-1 1.63-.32 3.24 1 4.52.59.67 1.28 0 1.93-.33zM17.11 232.52a2.72 2.72 0 00-1.95 3.23c.32.3.65 0 1 0 .65-1.3 2.28-2.27 1.62-3.56z"/><path d="M98.93 158.46c-7.13.33-10.69 9.38-18.45 7.12a3.43 3.43 0 001.62 3.54c2.9 2.92-.32 6.17 1.62 9.39-.33.64 0 1.61-1.28 1.61-1.31-2.27-.35-5.49-1.31-7.76-3.56 1.95.32 5.83-1.6 8.72a2.55 2.55 0 01-2.6-.63c-1.31-1.3-.32-4.86-2.6-4.22 1 3.56-2.9 4.54-2.59 7.77-1 1.3-1 2.9-1.26 4.22-1-.34-2.61 0-2.93-1.32 1-4.81 1.29-10.33 6.78-12.59.65-2.26 1.62-5.49 4.2-5.83-.64-5.48 2-10.66 2.61-16.17 0-.63-.34-1.93-1.32-1.6-1.93 3.56-.65 8.73-3.54 12-2.27 2.24-4.21-1-6.15-1.94-1.29-2.93-5.17-3.56-7.43-5.51-1.64-2.92-2.91-6.14-2.6-9.37.66-1.3-.31-3.55 1.29-4.53 2.28 1 .66 4.54.66 6.47 2.59-1.28 1.3 3.22 3.88 4.21-4.54 6.78 6.48 3.54 7.74 8.73.65 0 1.63 0 1.94-.65 1.64-2.59 0-5.83-1.29-7.78-.32-2.24.65-6.12-.95-7.75-1.31 2.27-1 5.51-2.6 7.75-1.93-.95-.64-3.22-1-5.15-.64-1.63-2.26-.65-2.9-.65-.66-2.27 1.29-3.55 1-5.51-1.62-2.25-1.62 1.3-3.23 1.3-1.29-.64-1-2.27-1-3.55 2.58-1.62 2.91-4.86 2.26-7.77 1.3-1 2.59-1 3.88-1.27 1.94.31 1 2.24 1.62 3.22 2.59 1.61 2 6.47 6.14 5.49 2.59-2.91-2.91-4.2-3.89-6.47.65-2.25.34-5.81 3.59-6.77-.66-2 1.6-4.22-.34-6.16-1-.32-2.6-.32-3.25 1-1 1.28 1 2.26.65 3.87-1.91 3.23-6.12 3.55-9.68 4.2-3.58 1.29 1.29 3.56.32 6.14-2.26 1.3-2.59 4.85-5.17 4.53-2.59-1 1.6-1 1-2.91-.66-1-1.31-1.61-2.59-1.28a20.69 20.69 0 011.93-3.89c1.29-2.59-1.27-3.55-1.61-5.48a1.39 1.39 0 00-1.29-1.31 2.36 2.36 0 00-1.29 3.23l1.29.32c2.25 4.52-5.5 3.88-4.86 8.72-2.58-.31 1.3-3.22-1.31-4.84-1.27 0-1.59 1-2.57 1.62-2.25-1-.31-4.21-.31-6.16 4.19-1.59-.32-7.1 4.19-6.76 1-1 0-2.28.65-3.25 1-.32 1.31 2.6 2.92 1.62l.31-2.28c.32.33 1.62.66 1.94 0-.32-2.58.33-6.77-3.24-7.1a3.19 3.19 0 011-4.2c0-.64 1-1.93 0-2.58-1.61-.34-1.61 1.61-2.92 2.25-1 0-1.29-.31-2.26-.31-3.57 4.21-6.14 10.34-3.57 15.86-1.29 1.6.66 3.54-.64 4.83-.65.34-1-.33-1.29-.65 1-3.24-.64-6.78-1-10.35-.31-2.58 2.9-4.19 1.94-6.46-2.59-.65 0-2.57-1-4.52-2.59-5.17 6.13-2.26 5.5-7.44-1-1.94-3.24-.64-4.53-.32-1.29-.32-1-1.62-1.94-2.26-1-2.26 1.94-3.87 2.9-5.5.67-3.23-2.57-5.18-3.55-7.76a6.92 6.92 0 01.65-7.74c1 0 2.26-1.63 2.9-.34.33 1.62 1 3.55.33 5.17.65 1.63 3.87 1.63 2.92 3.88 0 .66 1.28 1.62 1.93.66a38.62 38.62 0 01-.3-8.78c.66-2.58-1.29-6.78 2.29-7.75 3.2 1.94-.66 5.82 1.59 8.73.64 1.61-1 3.55 1 4.52 2.57-3.88-.33-9 0-13.89-.3-1.21 2.46-3.79 0-4.68h-.93a7.49 7.49 0 00-2 .68c-.47.27-1 .53-1.46.76l-.68.37c-.42.23-.86.39-1.29.58a11.53 11.53 0 01-2.93 3.2c-3.26 2.54-8.52 2.71-10.64 6.34-3.88 6.61-.71 13.91-.12 20.86.27 3.27.06 6.57.24 9.85.15 2.88.52 5.69-.08 8.54s-1.93 5.47-2.42 8.37c-.39 2.33-.55 4.66-1.54 6.84-2.16 4.75-6.45 6.3-11 8-6.27 2.37-11.68 6-13.84 12.6a32.16 32.16 0 00-1.37 8.29 7.33 7.33 0 01.58 4.75c3.88 10.67-1.6 21-2.57 31.67 2.24 3.56-.65 7.77-1.64 11.32l-1.39 6.08c.78 3.3 2.78 6.2 3.55 9.66a28.1 28.1 0 01.65 5.56c.26 1.74.53 3.37.79 5.23C8 228 8 225.07 9 223.47c1.62.95-1 4.84 2.26 5.16l-1 4.2-3.5-3.83c-.32 2.58-1.61 6.14.65 7.75 1.29.64 2.27-1.94 3.23-.31 2.58-.65 2.26-3.57 2.58-5.5.33-2.59 3.24-4.22 2.9-7.12.34-.64 1.3-.64 2.28-.64 3.23 2.91-2.28 6.14 0 9.06 2.26-.31 1.93-3.23 2.9-4.52l1.64 4.85c-1 2.58-6.17 3.23-4.54 6.77 2.58-.3 3.87-3.23 5.81-5.16h1.29c-1.29 1.61-3.87 3.22-3.23 5.16 1.3-.3 2.59-.65 3.56-.3.31.64 1 .64 1.62.64 1-1.62-.66-5.5 2.26-5.82.33-.32.64-1 1.29-1.28 1.31 2.26-3.22 3.23-1.29 5.18 1.62-.35 1.29-2.92 3.22-2.92 1 1.63.35 3.87 2.28 4.21 2.57-2.28 8.07-.34 7.43-5.51 2.59-.32-.64 8.42 4.52 4.52 4.85 0 9.06-3.87 11.32-7.76 1-.32 1.61-1 2.57-.32.33 2.91-3.86 8.41 1.64 10 3.54.66 3.87-6.48 7.43-2.59 1.3 2.27-2.91 3.25-1.29 5.19 1.93.31 3.56 0 4.83.31 0 .17 0 .32-.07.47a18.82 18.82 0 003.94-.77c3.06-1.3.21-5.27 4.45-5.59 3.21-1.59 7.1.34 10-1.59l.61.32a.68.68 0 011-.06c5.78 4.28 14.18 2.46 20.31 6.16a8.15 8.15 0 012.5 2.21c.74 1.06.57 2.57 1.18 3.5a1.83 1.83 0 01.29.58c.08-.06.38-.08 1.33.26a13.67 13.67 0 001.53.39 1.32 1.32 0 011.15-.73 1 1 0 01.4 1.11c.14 0 .3.06.45.11a21.3 21.3 0 004.56.94 9 9 0 013-.87c1.26-3.22-2.92-2.26-3.89-3.22-.34-1.63 1.6-1.95 2.26-2.93 4.53-5.16.65-11.94-.33-17.45-1.3-4.2-5.18-5.49-9.05-6.47-4.51-3.88-5.19-10.33-7.11-15.52l-2.91-1c-2.58-4.53-7.76.65-11.31-2.26-2.92-2.27 1-6.78-3.56-6.78 1.29-1.31 3.56-1 3.89-2.93-1-2.25-3.25-1.92-5.18-1.92a23.52 23.52 0 00-1.93-3.9c-.66-.64-2-.3-2.61 0-1.56-.3-1.56-2.25-1.56-3.55.65-1.92 3.57-.63 4.86-1a7.22 7.22 0 00-.31-5.17l-1.3.31c-.65-1-2.28-1-2.28-2.27 1-2.25 1.31-5.16 2.91-7.43 2.59-.31 1 2.93 2.59 4.21a10.67 10.67 0 001.53-6.42c1.3-4.85 8.42-.63 8.74-5.5-.32-2.26-2.9-1.95-4.22-1.95-.93.67.38 1.64-.59 2.28zM10 207.29h-.32v-3.23c1.32.32.32 1.94.32 3.23zm107.31 17.47c1.61-.34 1.61 1.3 2.25 2.25 0 2.27-1.6 5.19-.64 7.12 2.6-1.61 0-8.07 4.86-6.14 2.25 3.23.32 7.11-.64 10.35-1 .65-2.58 0-2.92 1.6a3.53 3.53 0 01-.65 2.61c-1.59-.66-1-2.61-2.26-3.91h-3.23c.68-4.51 2.92-9.03 3.24-13.88zm-57.54-65.64l.64 5.8c-1.29 1-2.25-.31-3.55-.31-1.6-2.27 0-4.84.33-7.11.97-2.59 2.25.64 2.58 1.62zm-6.46-20.68c1.29 1.28.33 3.87 2.26 4.84l1.29-1c.33 1 2 1.3 1.62 2.59-1.29.64-2.58 1.62-3.89.64-1.92-1.9-1.28-4.82-1.28-7.07zm-5.83 7.1c2.93.33 5.83 1 8.09 3.25-1.93 2.57 1.29 5.15.33 7.4l-1.6-.95a3.2 3.2 0 00-1 2.9c1.95 0 1.61 2.26 1.29 3.24l-.3.34c-.33-3.58-4.54-2.93-5.85-5.84-.62.31-1 .65-1 1.31.33 3.56 8.08 4.53 2.6 8.07-.33 1-.33 2.27-1 3.22-.33-2.89-1.63-6.14-4.53-7.43-1.61.66-1.3-1.28-1.61-1.94 0-1.6 1.61-2.57 1.94-4.2 1.36-2.91.71-6.79 2.64-9.37zm6.49 22a1.5 1.5 0 01-1.63-1c-.33-1.64 1.3-2.28 1.63-3.56.03 1.31 1.29 3.25.03 4.55zM39.41 71.85c2.27-.66 2.27 1.93 2.27 3.55.65 2.91-.64 6.13 1 9-1 1.61 0 4.85-2.26 4.85-2.26-3.87-.64-9.36-2.9-13.56.27-1.27-.04-3.21 1.89-3.84zm-.65 44.59c-.33.33-1.28-.33-1-1a4.86 4.86 0 01.64-2.27c1-.32 1.31 1 1 1.3.34 1.02-.32 1.33-.64 1.97zm1-18.74c1 .32.31 1.3.64 1.93-.99 0-1.32-1.63-.66-1.93zm-2.27 27.15c.65 1.63 1.29 3.89.32 5.82-1.29-1-.64-3.55-1-5.18zm-2.9 13.92c.31 1.94 3.86 1.29 2.91 3.87l.31.64c2-1 1-3.56 1.63-5.17-1-1.29-2.27-1.6-2.27-3.23 1-.64 2.27-1.61 2.27-2.92 1.29.65-.66 4.54 1.93 3.89l1.29-1.95c1.31 1.62.64 4.87 2.27 6.47 1 2.26-1.94 2.26-2.58 3.56-2.59 3.24.31 10.35-5.5 10.35-.33-2.59.64-5.48.31-8.4-.64.65-1 1.62-1.93 1.62-1.29-1.62 0-4.51-1.93-5.82-.36-1.3.29-1.94 1.27-2.91zm6.78 22.29c-.64.66 0-.31-.64-.31 0-2.27 1.28-3.89 1-6.15 1.55 1.95-1.35 4.19-.38 6.46zm-3.87 22.63l3.23.32c-2.92 2.6-2.92 7.44-4.21 11-2.93-3.24-1.01-8.1.96-11.32zm-2-11.32c.34-.66 0-2.26 1.32-2.26.65 0 1 1 1 1.6 0 1-.31 1.95-1.29 1.95-1.02.34-1.02-.66-1.02-1.29zm0-7.44a1.41 1.41 0 01-1.92.66 6.46 6.46 0 01-1-2.58c1.98-1.95 1.98 1.28 2.93 1.92zM32.62 194c1.3 1.31 1 3.87 1 5.82-.32.32-.66.64-1 .64a10.79 10.79 0 010-6.46zm-4.2-47.85c1 0 1.93 1.61 2.27 2.6-.65 2.57 0 5.81-1.63 7.4-1.28-.63-1.93-2.88-2.58-4.17 0-2.24.97-3.85 1.94-5.79zM27.12 163a.77.77 0 01-1.29.64c-1.62-1.62-1.31-4.21-1-6.15a2.51 2.51 0 011.27-.64c1.02 1.94 1.68 4.21 1.02 6.15zm-2.25-14.89c-1-1.29-.66-4.19 1.28-3.87 0 1.3-.31 3.24-1.28 3.88zm-.67-12.28c1.3.32 1.3 1.95 1.3 2.93a6 6 0 01-1 2.57c-.95 0-.95-1-.95-1.93a6.6 6.6 0 01.65-3.56zM19 138.1l1 2.9c-.33 1 .64 1.95-.33 2.91h-.32c-.35-1.91-2.24-4.19-.35-5.81zm1 15.21c.64 3.88 4.19 7.74 1.28 11.62-.64-2.25-1-5.49-2.26-8.06-.64.64-2.26 0-1.93-1l.64-2.9zm.31 39.76l1-.34c1 2.27.64 5.18 0 7.77-2.31-1.61-.31-5.15-.98-7.43zm1-22.3l.33-1a10 10 0 01.65 2.59c-1 .33-1.29-.95-1-1.59zm-4.18-21.34h.31a2 2 0 010 1.94c-.98 0-.67-1.29-.33-1.94zm-4.85 28.78l.31.32a24.17 24.17 0 01-.64 9.7h-.35c0-3.23-.6-7.13.66-10.02zm.64 47.19l-.33.32c-.64-.65-.64-2.59-1-3.56a5.84 5.84 0 012-2.93c1.57 1.33-1.33 3.91-.69 6.17zm.65-29.75c-1 0-1-1.61-.65-2.29a1.78 1.78 0 011.29.68 2.48 2.48 0 01-.66 1.61zm1 5.81v-1.6c.32 0 .64.64.64 1-.05.6-.37.6-.69.6zm0-56.22a10.47 10.47 0 01.64-4.55c1.3 1 .65 3.24 0 4.55-.37.3-.69.3-.69 0zm3.55 22.62c-.33 2.59 1.3 6.13-1.3 7.43a66.37 66.37 0 01-1.28-8.42c.58-1.61 2.53 0 2.53.99zm-1.95 11.3c1 0 .65 1.31 1 1.93l-.65.33a2.86 2.86 0 01-.4-2.26zm1 12.61a6.49 6.49 0 01-.34-5.5l.65-.63c1.29 1 1.62 3.55 1 5.49-.42.3-1.06.97-1.37.64zM21.94 227l-.64-4.18c-1.61-1.32-3.56-2.93-3.23-5.51 1.3-1 2.25 2.26 4.2 1.93l1 1.31c-.33 2.28 1.6 5.18-1.33 6.45zm2.27-12.28c-.32 0-.64-.64-1-.64l.33-.64c.67 0 .98.65.67 1.29zm2.58-17.13c-1.29-.66-2.58-1-2.9-2.26 0-2.92-1.29-6.15.32-9.07 1-.32 1.62-1.93 2.91-1.6v4.84c.66 2.27 1.63 6.15-.33 8.1zm1.3 10.66c1.29-.32 1.29 1 1.29 2 0 1.29-1 1.6-2.25 1.93a1.39 1.39 0 01-1.29-1.29c-.34-1.66 1.61-1.98 2.25-2.63zm-2.59 10.68l-.31-1.93c1.93 2.25 0 6.78 3.86 8.41-1.27 1.93.33 3.56.66 5.49-3.23-2.59-3.88-7.45-4.21-11.97zm3.55-42.68c-.64-.64 0-1.93-1.27-1.93-1 1.61-2.59 1.93-3.89 2.58-1-1.6-1.62-4.52 0-6.45 1.61-.66 4.52 2.57 6.15-.66.65-.32 1.29.66 1.29 1.28-.65 1.93 0 4.54-2.28 5.18zm2.28 44l.63-.33c1.32.33 1.32 2.26 1 3.24l-1 .64c-1.28-.66-1.28-2.29-.63-3.57zm5.5 12.6a1.48 1.48 0 010 1.94h-.33c1.29-4.53-5.17-4.86-5.17-8.72 1.6.63 3.87 1.93 5.5.31 1.29 1.62-.66 3.87 0 6.45zM44 211.17c-.67 2.27-2.27 3.22-4.21 4.2-2.27-3.87-2-9.38-.33-13.57 1.62 0 1.94 2.26 2.92 3.56 1.88 1.29 1.88 3.56 1.62 5.81zm0-30.73l-1.6-1.29c1.6-.32.63-2.9 2.25-2.9.67.67.59 1.77 1.09 2.41.68-1 1.9-2.7 3.44-2.09.64 1.64-1.63 4.52.64 4.85a7.83 7.83 0 011.18-3.21 4.59 4.59 0 004.54-.67c-.31 2.59-3.22 4.54-2.26 7.76-1.3 1-3.22.33-4.86 0a6.48 6.48 0 01-2.64-4.17 13.69 13.69 0 01-1.85-.69zm2.27 23c1-.32 1.63 2.25 3.24 1 1-.65.32-1.93 1.29-2.58 1.94 3.21.63 7.11 1 10.67.2 2.47 3.12 4.47 1.51 7.37a3.4 3.4 0 01-2.58.33c-.64-1.3-.64-3.57-2.58-3.57-1.31.32-1.31-1-1.63-1.62a35.51 35.51 0 00-.32-11.63zm.64-13.25c2.27-.33 3.88 1.27 5.5 2.26-.64 2.93-3.56 3.56-3.9 6.47-1.93-.32-1.93-3.24-2.89-5.17a2.73 2.73 0 011.22-3.59zm-.64 44.61c-1-1.29-1-3.55-.65-5.16l1.93-2.6c1.3 1.3 2.93 1.61 4.53 2.26-1.99 1.92-2.97 5.47-5.88 5.47zm9.7-4.21c-2.26.66-3.23 3.89-5.49 4.21-.32-1.94 2.58-2.9 2.26-4.86 1.26.62 4.76-3.26 3.16.62zm3.54-9.37c-.32 1-.63 2.58-2.25 1.63-1.93-4.22-.33-10.36-2.89-14.56-.66-3.25 1-5.81 1.27-8.73 2.59.33 1.29-4.18 3.55-2.59a201.89 201.89 0 01.25 24.22zm-3.87-38.48c.33-1.3 2.59-1 3.87-1.93a5.11 5.11 0 004.86-2.59c-.65-3.23 0-6.78.33-9.71-5.51 1.63 0 9.71-6.47 9.06-1.3-2.58 2.25-4.86 3.55-6.78.65-2.28-.33-5.17 1.63-6.47 1-.32 1.61 1 1.29 1.94.32.64-.33 1.3.32 1.62 1-1 2.58-.64 3.55 0 1 1.62 1.29 3.22 3.23 2.91.32 1-.64.65-1 .65l-1.29-.65c-1.94 3.87-3.88 7.76-4.21 12-2.61 4.46-6.49-.08-9.73-.08zm5.48 10.36l.66-1c1.22 1.9 4.45 2.9 2.85 5.5-.33.3-1 .3-1-.32-.29-1.62-.29-3.9-2.58-4.21zm4.87 31a1.57 1.57 0 01-2.58.64c-2.29-1.93-.65-5.52-1-8.09.33-2.91-1.62-5.82 0-8.4 1.62 1.3 4.53.33 5.17 2.27-1.02 4.48-1.99 9.38-1.66 13.59zm1.93-21.36c-1.29-2.25-.32-5.81 0-8.4 2.6.65 0 5.19 2.9 5.51 1.3-1-.3-4.21 2-3.57 1.29 1.61 3.23 3.25 3.57 5.17-3.03.35-5.94 1.96-8.54 1.3zm2.6 21c.78-3.81-3.28-7.39-.33-11.24 1.3 1 1.3 2.9 1.61 4.52-.62 2.19-.73 4.61-1.35 6.69zm6.13 3.63c-1.29.32-2.59 1.93-3.88.64 2.26-6.47-1.29-16.17 5.51-19.72l1.93 4.21c-.7 5.14-4.28 9.01-3.63 14.84zm1.93-24.25a1.27 1.27 0 01-1.27-.64c.64-1.3 1-2.91 1.92-3.9 1.3-.32 1.3 1 2 1.63-.11 1.59-1.72 1.9-2.72 2.88zm3.91 1.29c1.29 1.29 2.56 2.59 4.5 2.27.64.32.32 1 .32 1.29-2.56 1-4.21-1.6-6.12-2.93-.07-.66.57-.98 1.23-.66zm-1.3 16.82c0-2.59-.66-7.45 2.89-7.75-.37 2.87-.72 6.75-2.96 7.72zm6.77-7.75c1.31-.32 1.63 1.6 1.93 2.25 1 2.91-.3 5.5-1.93 7.44a2.44 2.44 0 01-1.61.32c-2.35-2.94.27-7.15 1.54-10.04zm2.28 18.09a2.93 2.93 0 01-2.61-1.31c.32-2.88 2-5.16 3.23-7.74.67 0 1.3 0 1.3.65-1.01 2.56.91 6.74-1.99 8.37zm18.76 4.72a1.56 1.56 0 01-2.57.65c-2.28-1.94-.64-5.52-1-8.1.33-2.91-1.61-5.81 0-8.4 1.62 1.3 4.54.33 5.17 2.27-.95 4.52-1.92 9.37-1.6 13.58zm-9.12-30.93c3.54-1.3 6.77 1.93 9.69 3.22l2.57 1.63c-.64 1.93-3.54 1.29-5.49 1.29-1.94-2.91-8.73-.65-6.77-6.14zm-.59 10.41l1.93 4.2c-.63 5.17-4.21 9.05-3.55 14.87-1.3.31-2.6 1.93-3.89.64 2.22-6.48-1.29-16.16 5.51-19.71zm-3.64-14.62c1 .64 1 2.25.65 3.24-1 1-2.57.31-3.55.31a4.47 4.47 0 01-2.28-3.89c1.64-.95 3.58-.32 5.18.34zm-7.43-8.72c1.25-.21 2.24.49 3.29.95-6.73-.78-16 2.89-19.78-4.19v-.64c1 0 2.58 1 3.57-.31s-.33-2.59.64-3.89c1.94 0 3.57 1 5.49 1-.31 1.31-3.22 1.31-2.27 3.57a3 3 0 002.92 1l3.23-2.27c1.62 1.22.69 4.12 2.91 4.78zM9.68 117.42l-.33.32v-.32h.33zM69.8 57.3c-1.94.63-4.84 0-5.5 1.92 2.6 1.63 0 4.55 1.62 6.16 1.93-1 1.29-3.56 2.92-4.86 6.13 1.3 10-3.23 14.53-5.5 10.35-.65 19.72 1.95 29.76-1 1.62-.33 3.54-.33 4.17-2.27l-.62-1c-8.73.34-18.1 2.27-27.15.34C81.44 48.26 76.92 57 69.8 57.3z"/><path d="M62 72.81c-.32-1.94 1.62-3.24 1.62-4.85-1.94-2.59-1-5.81-1.29-8.74a11.58 11.58 0 00-3.55 1c-.65.66.62.66 1 1 2.58 1 .63 3.21.63 4.83 1.3 2.28-1.92 4.86.64 7.13.33-.04.95-.04.95-.37zM146.42 71.87a7.08 7.08 0 00-5.82-1 1.57 1.57 0 00-1 2c3.23 2.24 3.23 6.45 4.19 9.69 1.94 2.89-2.9 2.58-2.24 5.48.3 1.29 1.94 1.29 2.91 1.29 3.54-1.29 7.75-1 11-2.9.66-1.29-.32-2.59-1.28-3.56-1.29-.32-2.26 1-3.24 1.61-1.28.33-2.58 1.31-3.57-.31l-1.61-9.71 1.3-1.29a10.16 10.16 0 013.88 2.59L148 77.34c0 .64-.31 1.62.33 1.94 1.61.32 3.22 2.25 4.53.32-1.31-2.59 1.28-3.56 1-6.14.95-5.82-5.17-1.61-7.44-1.59zM69.46 73.46a3.91 3.91 0 00-4.2-1.61l-.32 1a4.47 4.47 0 003.56 1.94c.33-.38 1.29-.69.96-1.33zM116.35 78c0 .32.32.64 0 .64-.63 1.93-2.26 4.54-.31 5.82 1.27 2 0 3.24-.66 4.53a2.32 2.32 0 002.9 1.62c4.56-1.62.66-6.15 2.28-9.37 4.21.64 4.52 5.81 7.76 7.75a2 2 0 002.58 0c1.29-1.62-1.3-2.58-1.3-4.2.35-1 1 .32 1.94-.33 1.3-2.58-.31-6.46 1.94-9.37-.64-1.93-2.58-2.26-4.21-1.93-1 .64-2.9 1-2.6 2.59 2.6 1.94 2.92 5.16 2.28 8.06a101.61 101.61 0 00-10.36-10c-1.61-1-3.22 0-4.52.64-.64 1.93 1.3 2.23 2.28 3.55zM103.41 94.15c8.41-2.26 2.91-12 4.52-17.78-.64-1.3-2.55-1-3.87-1-.65.64-2.25 1-2.25 2.26 3.21 2.9 3.21 7.1 2.89 10.67-.63 1.29-2.25 3.22-4.21 1.93-4.19-2.58-3.86-8.74-2.9-12.93-1.3-1.61-4.21-1-5.81-.65-1.29.33-2.58 1-2.26 2.59 4.53 3.24.66 9.37 5.49 12.62 2.58 1.62 5.18 2.93 8.4 2.29zM78.21 98.67c1.3-.65 3.22-2.27 3.56-3.88.31-4.53-1.31-8.73-1-13.26.34-1 1.64-1.6 1.3-2.91-3.57-3.22-7.45 1-11 1.62-1 3.55 3.87 1.62 4.21 4.85.63 2.59 1.61 6.46 0 8.39-1-.63-1.3-2.24-2.6-2.24a2.59 2.59 0 00-1.61 1.61c-.33 1.62-.33 3.88 1.3 4.85 1.63 1.3 3.9 1.3 5.84.97zM68.19 91.89c-2.6-1-3.9 2.9-5.5 4.84-.33.64-1.31 1.94 0 2.27 1 .63 2.25 0 2.9-1 .97-2.24 3.24-3.85 2.6-6.11zM158.69 106.43a16.36 16.36 0 00-1.94-8.73c-1.29 1.93-.32 3.88-.32 5.82.66 1.3.66 3.23 2.26 2.91zM130.57 101.89c-.63 1-1 2.28-.31 2.93 5.17 1 1.92 6.78 5.17 9.36a2.19 2.19 0 002.9-1c1-3.23 0-6.78-1-10-.94-2.25-5.15-4.51-6.76-1.29zM125.41 100.62a8 8 0 00-2.58 3.87c.32 4.21-1 9.69 3.21 12.29 1.62.65 3.56 1.93 5.5 1.29 1-.64 2.26-1.62 1.94-2.92-.64-1.29-2.58-.31-3.55-.64-1.29-.65-1.62-1.94-2.59-2.91-1.3-3.23.32-6.14 1.3-9-.33-1.02-1.64-2.6-3.23-1.98zM165.48 114.18l1.61-1.29c1.3-2.91-.94-4.52-1.61-6.78-1.29-1.62.33-3.88-1.63-4.85-1.61 2.58 1 5.8-.32 8.4a6.57 6.57 0 00-5.48 1 3.87 3.87 0 00-2.26 3.23zM115.38 103.52c-1.95-2.25-5.51-1.94-7.76-.33-2 1.63-4.22 3.56-3.57 6.47 0 1.61 2 2.57 3.23 2.26 2.92-.32 1-3.55 2.28-5.17.64-.32 1.29.32 1.93.64 1.63 2.59.33 5.81-.64 8.41 0 2.58-1.95 4.52-2.26 6.79a3 3 0 003.54 1.29c2.91-1.29 7.45-1 8.09-4.51 0-3.89-3.55-1-5.48-2 .97-4.16 4.52-9.65.64-13.85zM72.38 113.86a2.48 2.48 0 001-2.26c-.66-1-.66-2.9-2.61-2.59-.63 1-1.6 1.94-1.29 3.22a2.32 2.32 0 002.9 1.63zM59.12 110.64c-1 1-.31 2.57.32 3.54.65.33 1.94 0 1.94-1-.64-.95-.64-2.88-2.26-2.54zM91.78 115.8c1-.32.64-1.62 1-2.59 0-1.61-1.59-1.61-2.92-1.93-1 1.93.93 3.55 1.92 4.52zM64 111.6c-.33 1.61-2.27 3.55-.33 4.85.64.65 1.29.32 1.94-.33-.61-1.61-.02-3.89-1.61-4.52zM81.11 116.45c-.33 1.62 1.6 1.62 2.9 1.62.67-.33.33-1.3.33-1.95 0-2.58-2.91-1.61-3.23.33zM150.32 125.82a3.92 3.92 0 004.82 2.27 1.41 1.41 0 011.3 1.94c0 1 1.28 1.61 2.26 1.61 2 .65 2.26 2.92 2 4.52-1 2.6-3.88 1-5.51 2.27-1 1.29.33 2.59 1.63 3.24 2.57.65 5.83 0 7.43-2.26a12.27 12.27 0 00.65-6.8c-.65-1.62-1.95-3.24-4.2-2.9-1.31-1.94 1-3.89 1.27-5.82-.63-3.24-4.51-1.61-5.79-.66-1.99 1.3-6.18-.63-5.86 2.59zM103.42 124.86c.32 1 1 2.91 2.6 1.91v-2.24c-.64-1-1-1.93-2.28-1.94-.65.64-.32 1.62-.32 2.27zM80.46 126.77c3.55-.62 2.57 3.25 5.18 3.91 1.6-1.31 3.22-3.24 2.89-5.49-2.25-2.27-5.81-1.62-8.39 0 0 .63-.33 1.28.32 1.58zM107.29 123.88l-.31.65.31.33c.64-.33 0-.65 0-.98zM120.22 148.46c0-1.29-1.62-1.29-2.25-1.94 1-4.2-2.59-7.76 0-11.33-2.92-3.55-5.49 1.63-8.39 1.62a1.54 1.54 0 00.29 2.26c4.87.33 2.61 6.17 4.2 9.05-.64 1.31-2.25 2.26-.95 3.89a7.33 7.33 0 004.54-.33c1.27-.31 3.21-1.3 2.56-3.22zM141.88 127.13a14.4 14.4 0 00.66 15.2 6.57 6.57 0 006.46 1.6c1.31-.65 2.27-2.26 2.92-3.89.32-2.9.63-6.14-1.95-8.08a4.16 4.16 0 00-4.83 1.94c-1.62-1.94 0-4.53 1-6.46-.38-2.25-2.95-.96-4.26-.31zm5.83 9.69c.32 1 1.29 1.29 1 2.26-1 1.29-2.29 0-3.24-.31-1-1-1-2.26-1-3.58.98.33 2.27 1.32 3.24 1.63zM122.16 135.52c4.53 3.57 1 9 4.53 12.93a8 8 0 008.4-1c1.29-1 1.29-3.24 1-5.18-2.92-3.54-.33-6.79-1.62-10.67-1-4.51-6.48-3.87-9.05-1.61-2.28 1.01-3.88 2.95-3.26 5.53zm5.82 4.85c2.92-2.26 2.92 1.61 3.55 3.56-2.9 1.61-3.22-1.93-3.53-3.56zm1-7.43c.62 0 1.59 1 1.92 1.62s0 1.29 0 1.94c-1.3.95-2.59-.34-2.92-1.31s.34-1.61 1.02-2.25zM105 148.13c1-.32 1-1.3 1-2.26-.64-1.3-1-4.2-3.25-3.24-1.31.34-2.58 1.62-2.27 2.91.36 2.27 2.94 2.27 4.52 2.59zM92.41 153.93c2.94-.62 1-3.86 1.31-5.81a3 3 0 00-2.57-1.61c-2.93.64-.35 3.56-1.33 5.5a2.49 2.49 0 002.59 1.92zM157.71 146.52c-1.6.65-3.54.65-3.87 2.58-.66 2.26-2.91 4.2-1.93 6.45 1.63.33 2.26-1 3.22-1.61.66-2.26 2.92-3.86 3.89-6.46a4.62 4.62 0 00-1.31-.96zM104.71 153c.67 0 1.94-1 1.61-1.94a.83.83 0 00-.94-1c-.67 1.61-3.57 1.29-2.61 3.23zM159 152.32c.32 2.28-1.3 5.18.65 6.47 2.57-1 0-3.88 1.28-5.8.07-.99-1.26-1.99-1.93-.67zM164.52 152l-.66 5.18c.33.95.66 2.25 1.95 1.93.65 0 .34-.65.65-1-.65-1.92.64-5.79-1.94-6.11zM89.52 161.06c0-1.94 1.63-3.56 1-5.17-2 2.9-3.25-1.62-5.81-1-1.32.64-1.65 2.28-1.65 3.88.68 1.3.33 3.56 1.31 4.22 1.26-1.93 4.49.34 5.15-1.93zM93.06 158.8c.66.32 1-.34 1-1s-.67-.63-1.32-.63a1.12 1.12 0 00.32 1.63zM138.33 160.75h.32a1.19 1.19 0 00-.32-1zM107.93 175a23.11 23.11 0 003.24-9.05c-.32-.65-1-.65-1.6-.64-1 2.59-2.92 5.18-3.9 8.08a6 6 0 002.26 1.61z"/><path d="M98.57 187.57a12.92 12.92 0 001.93-12.28c-.31-1 .65-1.3 1-1.63 1.62 1.3 0 3.24.65 4.87l4.2 2.89c.33 1.29 1 2 2.29 1.63.62-.34 1.26-1 1-1.63-.34-1.62-2.28-2.59-3.55-2.89-2.6-1-2-3.89-2.6-6.15l-1-5.82c-3.24-.33-1 4.85-2.58 6.78-1 .65-2.6 1-1.95 2.58 3.88 2.91 0 7.12-.65 10.34a1.41 1.41 0 001.26 1.31zM116.35 166.23a55.14 55.14 0 01-1.6 6.15c-.33 1.94-2.61 2.59-4.23 3.23-.64.32-.31 1 0 1.28 2 1.64 3.25-.95 4.53-1.92.66-.65 2.25.34 2.61-.65-.36-2.91.94-6.46-1.31-8.09zM136.71 205.35c.64-4.54 0-9.39-.33-13.92 1.3-1 3.89-2.56 5.49-1.28a144 144 0 01-1.3 16.49l1 1a1.8 1.8 0 001.62-1c1.61-6.14 1.29-12.6 1-19.39l.64-.64c3.58 2.26 1.93 7.73 2.58 11.62 5.51.32 3.57-7.11 7.76-8.72 1-1 0-2.25-.32-3.25-1.28-1-2.28 1-3.55.65s-1-1.93-1-2.91c-3.58-3.87-3.24-9-4.22-13.89-.34-.65-1 0-1 .33-1.62 3.55 1.26 7.77-1 10.65-3.57-.62-6.15 3.58-9.69 1.31-1.62-2.27-3.23-5.18-1.62-7.76.31-1.62.64-4.2-.33-5.18-1.94 2.59-1.62 6.47-3.54 9.06-.34-2.58.64-5.83.64-8.73 0-.65 0-1.93-1-1.93a9.46 9.46 0 00-.64 2.91c-1 1.61-.64 4.54-2.91 4.84-2.24-1.62 0-3.88-.3-6.14 0-1.3 0-2.91-1.34-3.26a60.86 60.86 0 00-1.28 7.44c-.61 1 1 2.25-.33 3.23-1.61 1.62-2.26-.33-3.54-.33-1.3.66-1 2.27-1 3.57.67 1.61 2.27.33 3.56.65 3.57 1-1.29 5.18 2.58 6.13 1.31-1.93-1-4.2.66-5.82 4-2.57 1.4 2.92 4 3.92 1.3 1 2.6 1.93 4.2 1.63 5.18 4.19 3.26 11.3 3.26 17.12-.03.95.62 2.25 1.25 1.6zM154.17 183c.64 1 1.29 0 2-.64-.33-4.19-.33-8.08-.66-12.61l-1.29-1.31-.64 1.63c.26 4.25-.69 8.76.59 12.93z"/><path d="M138.65 180.47c.66.32 1 0 1-.34-.64-2.91 1.61-6.14 0-8.72-1.32 2.59-2.94 6.45-1 9.06zM134.46 212.46c-2.28-1-2.28 1.29-3.23 1.93-1.95-1.6.3-3.54-.33-5.81-3.24-5.48-1.62-13.23-1.93-19.71 0-.64-.66-2.92-1.64-1.32.63 5.82-1.31 12.63 0 18.78-4.2 3.23 2.92 6.46.63 9-1.28-2.59-2.56 1.29-4.52.64-1 .65-2.89-1-3.23 1 3.57 1.62 6.47 4.21 10.36 4.85a7.22 7.22 0 002.91-2.59c-1-2.58 1-4.51 1.29-6.78zM163.85 188.87c-1.94 2.9-6.44 1-8.06 4.2 1 2.27 3.54 1 5.81 1.28 1.93-1 5.49-1 5.19-4.19-.33-.97-1.63-.97-2.94-1.29zM153.54 205.68c.3-1 .3-2.58 1.27-3.22 2 1.28 5.83-.33 7.11 2.91l1-1c-.66-2.26.63-5.18-1-6.48-1.29.66-.62 2-1.94 2.59-1.29.32-1.62-1.61-2.89-1.29-2.28 0-1.63-2.91-2-4.19a5.92 5.92 0 00-2.25 1.63c0 6.12-6.79 7.74-8.72 12.6 2.94 5.17 5.88-3.23 9.42-3.55zM118 188.87c.31-1.62 2.25-2.92 1.28-4.86-2.91 1-3.88 4.53-6.13 6.15-1.3-2.59 2.91-4.53 2.91-7.11-.32-.65-1 .32-1.62.32 0-.66 1-2.58-.33-3.23-3.23 2.27-5.17 5.16-5.48 8.74-2.57 3.87-3.58-2.61-6.15-2.26-1.3.64-.64 1.93-.64 2.9-4.87 2.58 2.26 4.83.64 8.39 2.92 0 5.48 2.59 9 2.27 2.91-1.61-1.29-3.54 1-5.18a2.33 2.33 0 011.93 1c1 1 .64 2.59 0 3.57.35 1-.33 3.22.64 4.2 2.25 1 1.63-1.94 3.24-2.28 1.29 1 .31 3.55 1.6 4.53a42.94 42.94 0 00-1-12.92c0-1.64 1.62-2.29 1.29-3.88s-1.58-.03-2.18-.35zm-11.65 7.76l.33-1.28c.64.3 1.95 1.29 1.62 2.25-1.01.64-1.3-.6-1.98-.97zM144.79 212.79a1.23 1.23 0 00-.31-1c-3.89 1.32-3.24-4.2-6.79-3.23-1.61.65-1.94 2.27-2.26 3.89l2.26-.33c2.58.02 4.84 1.96 7.1.67zM116.67 208.59l-.32 1.62c.32.63 0 1.6 1 1.6.31-1.28.31-2.58-.68-3.22zM117.3 212.47v1.28h.7a1.26 1.26 0 00-.7-1.28zM166.79 216a1.18 1.18 0 001-.33c.32-1-.34-2.9-1.6-2.25a2 2 0 00.6 2.58z"/><path d="M195.33 227.48c-.92-2.49-.64-4.9-.28-7.47a110.43 110.43 0 001.21-12.29c-2.43-5.36-.17-11.68-3-17.24a20.54 20.54 0 01-2.3-7.24 28 28 0 01-3-9.65c-.47-5.21 1.5-9.86 3.06-14.71a25.31 25.31 0 001.59-9.73 32.34 32.34 0 00-1.14-5.53c-2.16-2.44-2.49-6.05-4.4-8.76a75.37 75.37 0 00-3-17.09c-.27-.5-.55-1-.8-1.51a21 21 0 01-1.61-4.53l-.07-.14v-.08c-.32-1.38-.56-2.79-.77-4.27-1-6.68-4.33-13.26-3.58-20.06a38.41 38.41 0 012.74-9.34 13.1 13.1 0 001.2-4.75c-.08-3.59-2.25-4.66-5.22-5.23a55.07 55.07 0 01-6-1.46 1.28 1.28 0 01-.3.84 4.2 4.2 0 01-3-2c-1-.37-1.9-.77-2.85-1.21a1 1 0 01-.62.62c-3.23.32-4.52-3.23-6.13-5.51a4.67 4.67 0 01-3.31-1.34c-2.6-1.31-4.89-3.31-7.64-4.41a.7.7 0 01-.16-.13l-.22.08c-8-1.94-16.78-4.86-25.51-2.9v.65c6.88 2.6 14.98 1.64 21.78 3.91 5.83 0 5.51 6.79 9.71 9.05 5.19 0 8.74 3.88 13.27 5.83 2.92 1.6 7.1.31 10.35.31 1.28.65 3.24 1.94 2.25 3.88 0 5.5-4.52 9.06-5.81 13.58 1.29 3.23.64 7.75-.34 11 0 3.56 3.24 6.79 1.63 10-2.25-1.63 0-5.18-2.25-6.47l-.64.65c.64 3.56-.34 8.4 1.6 11.64 3.57 1.6 5.52 6.13 9.38 7.76 1.3 8.07 4.2 15.18 7.1 22.62 1.62 4.54-1.3 7.76-3.22 11.31-1.63 2 1.28 1.3 1.92 2.27 1.3 1.3.33 2.91.33 4.54-2.91 2.26-1.28-3.57-4.51-2.93-1 1.94-3.26 3.57-2.27 5.82-2.27-1-4.52.67-6.79 0-1 1.31-.32 3.56-1.94 4.54-.63-1.95 0-4.21-1.28-5.83a1.64 1.64 0 00-1.3.65c-1.29 4.2 1.3 8.07.33 12.59a3.15 3.15 0 01-3.57 1.64c-2.6-1.29-.65-4.85-1.28-7.12-1-1.62 1-5.16-1.63-5.8-2.58 3.87 1 7.43-1 11.64-1.28 1.29-2.25 4.19-4.83 3.55a5.73 5.73 0 00.94 5.16 5.59 5.59 0 004.21-2.91c1.62 0 2.61 1.3 4.21 1.3 1.62-.32 1.94-2.6 2.91-3.89.33-.33 1.3 0 1.93.66 1 1.61 0 4.18.33 5.8.31 2.28-.62 4.53 0 6.16 2.58.3 1.62-3.25 2.91-3.88 1.3 4.84-1.29 8.73 0 13.25-.33 1.61-2.59 3.88-1 4.85 3.58-5.16 2.6-12.91 3.23-19.39 1-2.25-1.61-4.53.65-5.81l1.6.95a59.94 59.94 0 01-1.6 25.23c0 .32.32.65.63.32 2.29-2.26 2.59-6.13 3.24-9.69 1-.66 1-2.59 2.61-2.59 1.92 2.91-2.29 5.49-.34 9.38 0 3.23-2.59 5.49-5.17 6.79-1.95 5.81-1.63 12.62-3.23 18.44-.35.64-.66 0-1-.33-.95-4.87 2.28-10 .65-15.2-1 3.88-1.28 7.43-1.93 11.32-1.3 1.95-.32 4.85-2.58 6.14l-1.94-1.6c-1-4.22 1-8.09-1-12-.62 0-1-.33-1.27 0a67.14 67.14 0 01-.66 11.65c-.65.64-1.62 0-2.58 0-2.58-.65-1.29-3.88-1.61-6.15-.65-1 .32-3.23-1.3-3.23-1.63 2.59-1.29 5.83-1 9.06-.32.33-1 1.29-1.6 1-5.83-.33-.32-5.51-1.29-8.41 0-1-.34-2.28-1.32-2.28-.62 3.58-.62 7.78-4.18 9.71-2.92-2.26 0-6.14-1-9-1-.32-1.95 1.28-2.6-.32-2.26-1.3-4.2 2.9-5.81.66-.65-2.93 2.29-7.77-1.61-8.74-1.62.66-1.31 2.59-1.62 3.87-2.91 2.91-6.78 6.46-5.17 11 1.94.31.65-1.95 2.26-1.95.34 1.95 2.27 2.26 4.21 2.26.64.35 2.24 1 1.93 2.27.31 4.51-3.88 2.9-6.47 3.23-1.62 1-.31 3.87-1 5.84.33 1.27 2 .63 2.94.3 1.92 0 2.25 1.93 3.22 3.23 1-1.3.32-3.23 2.25-4.2 2.59.66-.33 3.21 1 4.85 1-1.3 1-3.88 3.22-4.85.66 0 .66 1.3 1.63 1 .33-.3.33-1 .65-1.62a4.14 4.14 0 013.86-2.9c1.63 1.29 0 4.22.63 5.81 1.63 1 2.94-.64 4.23-1 1.6.32 3.56-.33 5.18-1a2.19 2.19 0 01.31 1.93c.31.64.95 1.62 1.94 1.62 2.25-1 .64-3.57 1-5.19 1.6-1.29 3.88 1.29 5.81-.3 1 .65 1.62 1.93 2.91 1.28 1.62-1.61 0-3.87 1-5.81 1 3.22 3.86 1.94 6.12 1.94 2.29.31 2-2.28 3.25-2.92 1.62 1.31 2.58-.95 2.89-1.93 1.95-.32 1.32 1.93 1.95 2.91 2.92.65 2.28-2.91 3.87-4.19 0 .31.34.63.66 1a3.16 3.16 0 012.72 0 10.72 10.72 0 01-1.69-3.13zM180.66 175c-1.28-2.91.33-5.82 1.31-8.39a1 1 0 011 .95c-1.33 2.24-.34 5.44-2.31 7.44zm-34.24 56.25a3.08 3.08 0 01-2.89.65 3.07 3.07 0 01-.32-2.91c.94-1 2.55-.65 3.85-1 .65 1.01 0 2.25-.64 3.23zm33.61-1c-1.28.33-1.61-1-2.26-1.61-.32-4.2 1.28-8.39 1.28-12.59 1.62.64 2.59 2.26 3.9 3.21a53.32 53.32 0 01-2.95 10.97zm5.18-38.14c-.32.64-.65 1-1.28 1a6 6 0 011-6.15c1.25.61.59 3.53.28 5.13zm2.79 16.54c.31-2.1-.1-4.6.46-6.85.68 0 .68.95.68 1.3-.03 1.95-.75 3.67-1.14 5.55zm2.74 20c-2.28-1.61-1.6-4.85-1.6-7.43.32-.32.62-.64.94-.32.66 1.29-.62 2.9 0 4.53-.35 1.24.92 1.9.63 3.19zm-.39-33.65c-.62-1-1.92-2.91-1.24-4.21 1.6 0 1.6 1.63 1.92 2.59a2.3 2.3 0 01-.68 1.62zm2.29 9.71c-.63.65-.63-.65-.63-1 0-.64-.34-1.28.3-1.28.69.32.33 1.63.33 2.28z"/></svg>