<svg xmlns="http://www.w3.org/2000/svg" version="1.0" width="450" height="300"><path font-size="12" fill="#bf0a30" fill-rule="evenodd" d="M0 0h450v300H0z"/><path d="M37.5 148.84L224.225 275 412.5 148.595 224.225 25 37.5 148.84z" fill="#002868" fill-rule="evenodd"/><path d="M84 149.128L224.417 244 366 148.944 224.417 56 84 149.128z" fill="#fff" fill-rule="evenodd"/><path d="M229.484 49.981l-5.521-4L218.452 50l2.095-6.491-5.522-4.004 6.815-.012L223.94 33l2.118 6.484 6.818-.01-5.507 4.02 2.116 6.487zM82.019 135.609l4-5.521L82 124.577l6.491 2.095 4.004-5.522.012 6.815L99 130.064l-6.484 2.118.01 6.818-4.02-5.507-6.487 2.116zM109.019 117.609l4-5.521-4.019-5.511 6.491 2.095 4.004-5.522.012 6.815 6.493 2.099-6.484 2.118.01 6.818-4.02-5.507-6.487 2.116zM190.019 64.609l4-5.521L190 53.577l6.491 2.095 4.004-5.522.012 6.815L207 59.064l-6.484 2.118.01 6.818-4.02-5.507-6.487 2.116zM163.019 82.609l4-5.521L163 71.577l6.491 2.095 4.004-5.522.012 6.815L180 77.064l-6.484 2.118.01 6.818-4.02-5.507-6.487 2.116zM136.019 99.609l4-5.521L136 88.577l6.491 2.095 4.004-5.522.012 6.815L153 94.064l-6.484 2.118.01 6.818-4.02-5.507-6.487 2.116z" font-size="12" fill="#fff" fill-rule="evenodd"/><path d="M82.019 135.609l4-5.521L82 124.577l6.491 2.095 4.004-5.522.012 6.815L99 130.064l-6.484 2.118.01 6.818-4.02-5.507-6.487 2.116zM340.459 117.609l-4-5.521 4.019-5.511-6.491 2.095-4.004-5.522-.012 6.815-6.493 2.099 6.483 2.118-.009 6.818 4.02-5.507 6.487 2.116zM259.459 64.609l-4-5.521 4.019-5.511-6.491 2.095-4.004-5.522-.012 6.815-6.493 2.099 6.483 2.118-.009 6.818 4.02-5.507 6.487 2.116zM286.459 82.609l-4-5.521 4.019-5.511-6.491 2.095-4.004-5.522-.012 6.815-6.493 2.099 6.483 2.118-.009 6.818 4.02-5.507 6.487 2.116zM313.459 99.609l-4-5.521 4.019-5.511-6.491 2.095-4.004-5.522-.012 6.815-6.493 2.099 6.483 2.118-.009 6.818 4.02-5.507 6.487 2.116zM367.459 135.609l-4-5.521 4.019-5.511-6.491 2.095-4.004-5.522-.012 6.815-6.493 2.099 6.483 2.118-.009 6.818 4.02-5.507 6.487 2.116zM71.981 144.466l-4 5.521L72 155.498l-6.491-2.095-4.004 5.522-.012-6.815L55 150.01l6.484-2.118-.01-6.818 4.02 5.507 6.487-2.116zM95.981 161.541l-4 5.521L96 172.573l-6.491-2.095L85.505 176l-.012-6.815L79 167.086l6.484-2.118-.01-6.818 4.02 5.507 6.487-2.116zM167.981 210.541l-4 5.521 4.019 5.511-6.491-2.095-4.004 5.522-.012-6.815-6.493-2.099 6.484-2.118-.01-6.818 4.02 5.507 6.487-2.116zM143.981 193.541l-4 5.521 4.019 5.511-6.491-2.095-4.004 5.522-.012-6.815-6.493-2.099 6.484-2.118-.01-6.818 4.02 5.507 6.487-2.116zM119.981 177.541l-4 5.521 4.019 5.511-6.491-2.095-4.004 5.522-.012-6.815-6.493-2.099 6.484-2.118-.01-6.818 4.02 5.507 6.487-2.116zM191.981 226.541l-4 5.521 4.019 5.511-6.491-2.095-4.004 5.522-.012-6.815-6.493-2.099 6.484-2.118-.01-6.818 4.02 5.507 6.487-2.116zM215.981 243.541l-4 5.521 4.019 5.511-6.491-2.095-4.004 5.522-.012-6.815-6.493-2.099 6.484-2.118-.01-6.818 4.02 5.507 6.487-2.116zM377.019 144.466l4 5.521-4.019 5.511 6.491-2.095 4.004 5.522.012-6.815L394 150.01l-6.484-2.118.01-6.818-4.02 5.507-6.487-2.116zM353.019 161.541l4 5.521-4.019 5.511 6.491-2.095 4.004 5.522.012-6.815 6.493-2.099-6.484-2.118.01-6.818-4.02 5.507-6.487-2.116zM281.019 210.541l4 5.521-4.019 5.511 6.491-2.095 4.004 5.522.012-6.815 6.493-2.099-6.484-2.118.01-6.818-4.02 5.507-6.487-2.116zM305.019 193.541l4 5.521-4.019 5.511 6.491-2.095 4.004 5.522.012-6.815 6.493-2.099-6.484-2.118.01-6.818-4.02 5.507-6.487-2.116zM329.019 177.541l4 5.521-4.019 5.511 6.491-2.095 4.004 5.522.012-6.815 6.493-2.099-6.484-2.118.01-6.818-4.02 5.507-6.487-2.116zM257.019 226.541l4 5.521-4.019 5.511 6.491-2.095 4.004 5.522.012-6.815 6.493-2.099-6.484-2.118.01-6.818-4.02 5.507-6.487-2.116zM233.019 243.541l4 5.521-4.019 5.511 6.491-2.095 4.004 5.522.012-6.815 6.493-2.099-6.484-2.118.01-6.818-4.02 5.507-6.487-2.116z" font-size="12" fill="#fff" fill-rule="evenodd"/><path d="M212.427 170l13.286-9.442 13.301 9.434-5.08-15.27 13.288-9.452-16.425.004-5.09-15.274-5.071 15.272-16.433.012 13.291 9.435L212.427 170zM279.224 170l13.286-9.442 13.301 9.434-5.08-15.27 13.288-9.452-16.426.004L292.504 130l-5.071 15.272-16.433.012 13.291 9.435L279.224 170zM143.224 170l13.286-9.442 13.301 9.434-5.08-15.27 13.288-9.452-16.426.004L156.504 130l-5.071 15.272-16.433.012 13.291 9.435L143.224 170z" font-size="12" fill="#002868" fill-rule="evenodd"/></svg>