<svg xmlns="http://www.w3.org/2000/svg" width="600" height="330"><path stroke-width=".9" stroke="#50d6cc" stroke-linecap="round" stroke-linejoin="round" fill="#fff" d="M25.38 1.54h542.49v271.24H25.38z"/><path d="M147.44 16.46L141 36.17h-20.68l16.76 12.18-6.4 19.7 16.76-12.18 16.77 12.18-6.41-19.7 16.77-12.18h-20.72zM25.38 82.92h542.49v54.25H25.38zM25.38 164.29h542.49v54.25H25.38zM296.63 16.46l-6.41 19.71H269.5l16.77 12.18-6.41 19.7 16.77-12.17 16.76 12.17-6.39-19.7 16.76-12.18H303zM445.81 16.46l-6.4 19.71h-20.72l16.76 12.18-6.4 19.7 16.76-12.17 16.76 12.17-6.4-19.7 16.76-12.18h-20.72z" fill="#fff" stroke="#50d6cc" stroke-linecap="round" stroke-linejoin="round" stroke-width=".9"/><path fill="none" stroke="#a3a3a3" stroke-linecap="round" stroke-linejoin="round" stroke-dasharray="5 5" d="M19.57 1.54H3.47v125.85M17.74 272.79H3.47V155.11"/><path d="M4.31 147.68H3.12v-9.14l-2.12.63-.28-.66 2.77-1.46h.82zM296.5 318.18a3 3 0 013.07 3 4.71 4.71 0 01-1.86 3.34 14.21 14.21 0 00-2.88 3.31h4.44a.24.24 0 00.19-.07.23.23 0 01.22-.08v1.19h-6.22v-.75a12.78 12.78 0 013.08-3.94c.77-.69 1.86-1.62 1.86-2.91a2 2 0 00-2-2 2.21 2.21 0 00-1.81 1c-.09.14-.05.25-.15.39l-.86-.69a3.45 3.45 0 012.92-1.79z"/><path fill="none" stroke="#a3a3a3" stroke-linecap="round" stroke-linejoin="round" stroke-dasharray="5 5" d="M25.72 282.55v41.13H283.1M567.87 282.55v41.13H310.15"/><path d="M440.28 302.08a1 1 0 111-1 1 1 0 01-1 1zM449 291.22a3 3 0 013.08 3 4.76 4.76 0 01-1.87 3.34 13.93 13.93 0 00-2.88 3.3h4.44a.24.24 0 00.19-.07.21.21 0 01.22-.07v1.19H446v-.75a12.78 12.78 0 013.08-3.94c.77-.69 1.86-1.62 1.86-2.92a2 2 0 00-2-2 2.21 2.21 0 00-1.81 1c-.09.14-.05.24-.15.39l-.86-.69a3.44 3.44 0 012.88-1.78z"/><path fill="none" stroke="#a3a3a3" stroke-linecap="round" stroke-linejoin="round" stroke-dasharray="5 5" d="M417.93 26.51v270.21h13.27M473.52 26.51v270.21h-14.27"/><path d="M291.18 302.08a1 1 0 111-1 1 1 0 01-1 1zM299.91 291.22a3 3 0 013.07 3 4.76 4.76 0 01-1.86 3.34 13.93 13.93 0 00-2.88 3.3h4.44a.22.22 0 00.18-.07.23.23 0 01.23-.07v1.19h-6.22v-.75a12.64 12.64 0 013.13-3.96c.77-.69 1.85-1.62 1.85-2.92a2 2 0 00-2-2 2.21 2.21 0 00-1.81 1c-.09.14 0 .24-.15.39l-.86-.69a3.44 3.44 0 012.88-1.76z"/><path fill="none" stroke="#a3a3a3" stroke-linecap="round" stroke-linejoin="round" stroke-dasharray="5 5" d="M268.83 26.51v270.21h13.27M324.42 26.51v270.21h-14.27"/><path d="M142 302.08a1 1 0 110-1.95 1 1 0 110 1.95zM150.73 291.22a3 3 0 013.07 3 4.79 4.79 0 01-1.86 3.34 13.93 13.93 0 00-2.89 3.3h4.45a.22.22 0 00.18-.07.22.22 0 01.23-.07v1.19h-6.22v-.75a12.64 12.64 0 013.08-3.94c.76-.69 1.85-1.62 1.85-2.92a2 2 0 00-2-2 2.2 2.2 0 00-1.81 1c-.1.14-.05.24-.15.39l-.87-.69a3.46 3.46 0 012.94-1.78z"/><path fill="none" stroke="#a3a3a3" stroke-linecap="round" stroke-linejoin="round" stroke-dasharray="5 5" d="M119.64 26.51v270.21h13.28M175.24 26.51v270.21h-14.27"/><path d="M62 302.08a1 1 0 111-1 1 1 0 01-1 1zM71.8 296.24a2.84 2.84 0 011.82 2.76 3.09 3.09 0 01-3.26 3.1 3.71 3.71 0 01-2.79-1.21l.9-1.07c.15.15.07.32.22.48a2.26 2.26 0 001.65.72 2.13 2.13 0 002.14-2.16c0-1.26-1.06-2-2.49-2a3.27 3.27 0 00-.54 0v-1a3.85 3.85 0 001.67-.27 1.84 1.84 0 001.13-1.59 1.71 1.71 0 00-1.84-1.65 2.55 2.55 0 00-1.83.81l-.66-.73a3.46 3.46 0 012.55-1.14 2.79 2.79 0 012.91 2.71 2.44 2.44 0 01-1.58 2.24zM82.07 291.3v1.07H77.7l-.16 3.05a3.78 3.78 0 011.72-.41 3.19 3.19 0 013.21 3.53 3.26 3.26 0 01-3.35 3.54 3.77 3.77 0 01-3.12-1.63l1.06-.79c.15.1.06.27.13.4a2.53 2.53 0 001.94 1 2.56 2.56 0 000-5.05 2.55 2.55 0 00-2 1l-.76-.31.36-5.38z"/><path fill="none" stroke="#a3a3a3" stroke-linecap="round" stroke-linejoin="round" stroke-dasharray="5 5" d="M25.72 296.72h29.9M119.64 296.72H90.17"/><path d="M211 302.08a1 1 0 111-1 1 1 0 01-1 1zM220.82 296.24a2.84 2.84 0 011.82 2.73 3.09 3.09 0 01-3.26 3.1 3.71 3.71 0 01-2.79-1.21l.9-1.07c.15.15.07.32.22.48a2.26 2.26 0 001.65.72 2.13 2.13 0 002.14-2.16c0-1.26-1.06-2-2.49-2a3.27 3.27 0 00-.54 0v-1a3.85 3.85 0 001.67-.27 1.84 1.84 0 001.13-1.66 1.71 1.71 0 00-1.84-1.65 2.55 2.55 0 00-1.83.81l-.66-.73a3.46 3.46 0 012.55-1.14 2.79 2.79 0 012.91 2.81 2.44 2.44 0 01-1.58 2.24zM231.09 291.3v1.07h-4.37l-.16 3.05a3.78 3.78 0 011.72-.41 3.19 3.19 0 013.21 3.53 3.26 3.26 0 01-3.35 3.54 3.77 3.77 0 01-3.14-1.63l1.06-.79c.15.1.06.27.13.4a2.53 2.53 0 001.94 1 2.56 2.56 0 000-5.05 2.55 2.55 0 00-2 1l-.76-.31.36-5.38z"/><path fill="none" stroke="#a3a3a3" stroke-linecap="round" stroke-linejoin="round" stroke-dasharray="5 5" d="M174.74 296.72h29.9M268.67 296.72h-29.48M573.53 82.92h19.11V51.31M575.37 1.54h17.27v20.05"/><path d="M586.87 39.51a1 1 0 110-1.95 1 1 0 110 1.95zM596.71 33.67a2.86 2.86 0 011.82 2.74 3.08 3.08 0 01-3.26 3.09 3.71 3.71 0 01-2.78-1.21l.89-1.07c.15.16.08.32.22.49a2.34 2.34 0 001.66.71 2.12 2.12 0 002.13-2.16c0-1.26-1-2-2.49-2a3.08 3.08 0 00-.53 0v-.95a4.27 4.27 0 001.67-.27 1.86 1.86 0 001.13-1.67 1.73 1.73 0 00-1.84-1.65 2.51 2.51 0 00-1.83.81l-.66-.73a3.43 3.43 0 012.54-1.13 2.78 2.78 0 012.92 2.68 2.44 2.44 0 01-1.59 2.32z"/><path fill="none" stroke="#a3a3a3" stroke-linecap="round" stroke-linejoin="round" stroke-dasharray="5 5" d="M573.53 137.16h19.11v-17.51M592.64 82.92v14.04"/><path d="M586.87 114.38a1 1 0 111-1 1 1 0 01-1 1zM595.6 103.52a3 3 0 013.07 3 4.76 4.76 0 01-1.86 3.34 13.79 13.79 0 00-2.88 3.31h4.44a.22.22 0 00.18-.07s.12-.12.23-.08v1.19h-6.22v-.75a12.64 12.64 0 013.08-3.94c.77-.69 1.85-1.62 1.85-2.91a2 2 0 00-2-2 2.2 2.2 0 00-1.81 1c-.09.14 0 .24-.15.39l-.87-.69a3.47 3.47 0 012.94-1.79z"/><path fill="none" stroke="#a3a3a3" stroke-linecap="round" stroke-linejoin="round" stroke-dasharray="5 5" d="M573.53 218.54h19.11v-17.52M592.64 164.29v14.04"/><path d="M586.87 195.75a1 1 0 110-1.95 1 1 0 110 1.95zM595.6 184.9a3 3 0 013.07 3 4.73 4.73 0 01-1.86 3.34 14 14 0 00-2.88 3.31h4.44a.22.22 0 00.18-.07.26.26 0 01.23-.08v1.19h-6.22v-.75a12.64 12.64 0 013.08-3.94c.77-.69 1.85-1.62 1.85-2.91a2 2 0 00-2-2 2.19 2.19 0 00-1.81 1c-.09.14 0 .25-.15.39l-.87-.69a3.48 3.48 0 012.94-1.79z"/><path fill="none" stroke="#a3a3a3" stroke-linecap="round" stroke-linejoin="round" stroke-dasharray="5 5" d="M573.53 272.79h19.11v-17.52M592.64 218.54v14.04"/><path d="M586.87 250a1 1 0 111-1 1 1 0 01-1 1zM595.6 239.14a3 3 0 013.07 3 4.76 4.76 0 01-1.86 3.34 14 14 0 00-2.88 3.31h4.44a.22.22 0 00.18-.07.26.26 0 01.23-.08v1.19h-6.22v-.75a12.64 12.64 0 013.08-3.94c.77-.69 1.85-1.62 1.85-2.91a2 2 0 00-2-2 2.2 2.2 0 00-1.81 1c-.09.14 0 .25-.15.39l-.87-.69a3.47 3.47 0 012.94-1.79z"/><path fill="none" stroke="#a3a3a3" stroke-linecap="round" stroke-linejoin="round" stroke-dasharray="5 5" d="M573.53 164.29h19.11"/><path d="M586.87 155.61a1 1 0 111-1 1 1 0 01-1 1zM596.4 155.43h-1.18v-9.13l-2.13.63-.28-.66 2.77-1.46h.82zM360.66 302.08a1 1 0 110-1.95 1 1 0 110 1.95zM370.5 296.24a2.84 2.84 0 011.82 2.73 3.08 3.08 0 01-3.26 3.1 3.71 3.71 0 01-2.78-1.21l.89-1.07c.15.15.08.32.22.48a2.29 2.29 0 001.66.72 2.13 2.13 0 002.13-2.16c0-1.26-1.05-2-2.49-2a3.27 3.27 0 00-.54 0v-1a3.92 3.92 0 001.68-.27A1.86 1.86 0 00371 294a1.72 1.72 0 00-1.84-1.65 2.51 2.51 0 00-1.83.81l-.66-.73a3.44 3.44 0 012.54-1.14 2.79 2.79 0 012.92 2.69 2.45 2.45 0 01-1.63 2.26zM380.78 291.3v1.07h-4.38l-.16 3.05A3.79 3.79 0 01378 295a3.19 3.19 0 013.2 3.53 3.26 3.26 0 01-3.34 3.54 3.75 3.75 0 01-3.14-1.63l1.05-.79c.15.1.06.27.13.4a2.56 2.56 0 001.94 1 2.56 2.56 0 000-5.05 2.56 2.56 0 00-2 1l-.76-.31.37-5.38z"/><path fill="none" stroke="#a3a3a3" stroke-linecap="round" stroke-linejoin="round" stroke-dasharray="5 5" d="M324.42 296.72h29.91M418.35 296.72h-29.47"/><path d="M509.76 302.08a1 1 0 111-1 1 1 0 01-1 1zM519.6 296.24a2.84 2.84 0 011.82 2.73 3.08 3.08 0 01-3.26 3.1 3.71 3.71 0 01-2.78-1.21l.89-1.07c.15.15.08.32.22.48a2.29 2.29 0 001.66.72 2.13 2.13 0 002.13-2.16c0-1.26-1-2-2.49-2a3.08 3.08 0 00-.53 0v-1a3.9 3.9 0 001.67-.27 1.86 1.86 0 001.13-1.66 1.72 1.72 0 00-1.84-1.65 2.51 2.51 0 00-1.83.81l-.66-.73a3.46 3.46 0 012.54-1.14 2.79 2.79 0 012.92 2.69 2.45 2.45 0 01-1.59 2.36zM529.88 291.3v1.07h-4.37l-.16 3.05a3.75 3.75 0 011.72-.41 3.19 3.19 0 013.2 3.53 3.26 3.26 0 01-3.34 3.54 3.75 3.75 0 01-3.14-1.63l1.06-.79c.14.1 0 .27.12.4a2.56 2.56 0 001.94 1 2.56 2.56 0 000-5.05 2.59 2.59 0 00-2 1l-.76-.31.37-5.38z"/><path fill="none" stroke="#a3a3a3" stroke-linecap="round" stroke-linejoin="round" stroke-dasharray="5 5" d="M473.53 296.72h29.9M567.45 296.72h-29.47"/></svg>