<svg xmlns="http://www.w3.org/2000/svg" width="290" height="300" viewBox="0 0 290 300"><title>flag-minnesota-icon-nature</title><path d="M281.6,117.24l1.62-1.69-1.68-1.26c-.54-10.06-1.15-17.67-3.13-27.1.27.15-.35-1.42-.21-1-1.05-.66-2.1-1.32-3.12-2-.36-.3-.67-.62-1-.93a2.65,2.65,0,0,0-.85-.24,3.45,3.45,0,0,0-2.21.8c-.86,1.3-2.59,1.39-3.91,1.79-3.35-.5-4.65-5.48-8.53-4.78-2.42-6-8.86-8.69-14.85-9.24-4.28-5.46-4.79-15.73-13.95-16-4.76-3.23-5.61-11.75-12.64-10l-7,4.28c-2.55-1.81-3.75-4.85-5.84-7.21l-3.81-1.09-3.65,2.59c-2.88,3.73-3.65,9.09-8.58,10.94-7.83,5.65-12.46-5-19.76-5.14-1.56,3.41-5.63,4.45-6.43,8.41-.78,4.68-1.18,9.74-5.55,13.24-11.65,3.71-25.4,11.26-37.53,5.49C113.4,76,109.08,81.15,103.44,80c-4.34-2.11-9.6-2.68-13.82-.34-8.42-1-12.7-12.44-22.56-10.63-13.33,3-11.16-16.63-24.34-14.32-2.64-.86-5.62-.75-8.43-1-3.62-2.51-5.67-8-10.86-7.13A19.53,19.53,0,0,0,9.06,58.77a32.36,32.36,0,0,0-1.8,5.69c-.21,1.36-2.15,9.61-2.06,11.31C6.75,80.59,4.39,87,5.69,92a17.31,17.31,0,0,1-4.17,6.86c-.19,1-.37,1.94-.52,2.91.12,1,.27,2.14.39,3.26.82,1,1.67,1.87,2.51,2.79a11,11,0,0,1,4.83,2.67c.9,0,1.81-.19,2.72-.33l-.15-.23c5.93-1.69,14.85-2.51,19.85,2.34,3.17-.28,6.35-.21,8.49,2.19,2.74,4,3.62,8.81,3.78,12.88-7.5.81-13.1-7.21-20.5-7.16a4.38,4.38,0,0,0-.31,4A20.94,20.94,0,0,1,25,128.83c2.5,2.72,7.46-.19,9.26,3.45,1.57,8.37,6,19.21,15.83,22.25a10.68,10.68,0,0,1,1.11,5.36H51a12.15,12.15,0,0,1,.33,1.45c.06.35.1.71.13,1.07,2.92,0,5.84-.08,8.71-.29l7.64.25v.25c3.92,0,7.84,0,11.76,0,3.29,0,6.34-.31,9.22,1.49,3.78,2.37,7.16,5.62,10.72,8.3a37.1,37.1,0,0,1,5.8,5c1.83,1.08,3.09,4.06,4.78,5.26,6.6,2.23,10.19,9,15.91,13.1-.15,1,5.62,3.12,5.36,4.07a36.16,36.16,0,0,1,7.4,9.81,8.33,8.33,0,0,1,.82.34.36.36,0,0,1,0-.09l7.16,1.24c2.57,1.39,4.85,3.94,7.42,5.92,0,0,8.57,5.57,13.28,6.35,6.19,1.26,7.72,8.48,13.23,11.28,0,0,6.91,1.55,9.93,3.23a16,16,0,0,1,5.71,3.84c3,1.36,6.51,1.57,9.12,2.6,7.3.7,12.28,5,17.47,9.89,3,1.19,6.79,2.38,9.26,3.61a3.09,3.09,0,0,0,1.24.3l2.19.21-.05.07h3c4.2-5.53,8.24-11.07,12.25-16.25,2.7-9.05,11.8-15.52,14.7-24.9,1.46-1.2,1.57-3.42,2.81-5.12a3,3,0,0,1,.41-1.32,1.4,1.4,0,0,1,0-.76A86.74,86.74,0,0,1,272,201c-.06-3.19-.16-6.37-.34-9.53l1.59-3.06.13-.08a18.14,18.14,0,0,0,.68-2.8l-.35.25C283.53,166.1,283.06,138.67,281.6,117.24Z"/><path d="M278.1,101c-6.92-.49-7.55-8.33-10.12-12.74a31.12,31.12,0,0,0-4.83,6.16c-3.58-.26-3.91-5.27-6-7.85-.88,1.69-1.76,3.8-3.77,4.41a18,18,0,0,1-6.82-14.48l-1.49,0c-.49,1.47-.11,2.06-.81,3.37-1.8,2.3-1.81,7.7-6.52,6.35a13.82,13.82,0,0,1-4.45-4.92l-3,4.41c-2,.42-2.88-2-3.66-3.25-2.5-8.3-4.09-16.84-9.18-23.93-4.23,6.64-8.84,15.37-6.39,22-.5.78-.07,2.43-1.6,1.73-1.78-3.29-3.74-6.41-5-9.91-1.42-3.67-.3-9.68-5.38-10.84-3.65,2.56-3.5,7-5.07,10.63-.46,3.38.07,8-1.34,11.41-2.83-.82-4.42-4.7-5.26-6.52-.34.74-1.07,1.12.07,1.65,2.32,2.51,1.16,7.21,3.27,9.23-.16.22-.34.57-.72.36l.44,2.07c-.69,1.69-1.58,3.58-3.23,4.36l-.57-.52v.36c-1.88-.32-2.59.46-4.83.33-1-.12-1.71-1.6-1.9-1.77,0-.78-.44-1.47.08-2.06-2.13-3.13,3.59-4.77,3.89-7.2l-1-1.28c-.78-1.65-.89-3.88,1.14-5.06l-1.28,0c-1.76-2.19-.13-3.71.35-5.44,1.12-.57.68-2.64,2.36-2.15,0-1.65-1.6-3.67-2.54-3.82A78.56,78.56,0,0,0,179,77.31c-1.54,4.53-1.54,10.29-5.76,12.84s-6-2-8.72-4.37c-1.5-.16-2.38,1.21-3.12,1.77,1.69.34,3.76.47,4.54,1.9-1.24,1.52-1.35,4-4,3.88-1-.17-1-1.07-1.37-1.64.54-.38.12-1.86,1.26-1.37-.21-.7-1-.91-.61-1.65-2.38,1-3.42-1.56-5-3-1.66-.11-2.15,2.53-3.84,2.57a15.2,15.2,0,0,1-2.89-2.89c-.91.78-1.75,3.21-2.49,3.42l.76.52c-1.62,1.73-.82,3.59-1.33,5.44,2.83.66,6-.52,6.81,2.77,3.16-.09,5.84,1.51,9.18.82,3.92.61,7.18-3.21,10.4-1.43.4.9-.5,1.51-.68,2.08,7.74,8.9,18.82-.61,26.84-.86,7.84,5.14,16.16-2.6,23.93.55-.3,2.42-2.62.08-4.28.86a53.27,53.27,0,0,0,12.38,1.65c1.46,0,2.28,2,3.39,2.13,1.1-1,3.12-1.78,2.32-3.42,2.07.3,2-2.68,3.86-1.81.72-1,.12-1.86-.64-2.6l.53-.74-1.92-1.81.17-.36-.59-.76c3.7-1.39,3.57-5.67,7-7.86.57,0,1.12-.4,1.52.34.24,1.85,1,3-.25,3.92l1.73,1.26c.44,2.24,4,3.21,3.9,5.65a3.3,3.3,0,0,1-3.34.83c.78,1.47.64,2.95.73,4.64,1.26-.57,2,.86,2.8,1.24a1.22,1.22,0,0,1,1.65-1l0-.74c-3.75-1,1-3,.77-5.84.49-2.07,2-.59,3.3-1.94.77,1.26,2.15,3.46,1.09,5,5.42,1.16-.38,5.82.59,7.25-.53,1-1.27,1-2,1.39.2.55.74.34,1.15.34,1.31,1.24,1.37,2.93,2.15,4,.84-2.83,4-3.12,4.47-6.29l-1.25-.16a3.55,3.55,0,0,1-2.45,1.76c-.73-.33-1.69-1.07-1.37-2,3.85-2.15,2.78-6.43,4.76-8.9,1.12,0,1,1.65,1,2l2.93-1.42c1,.17.8,1.67.8,1.67.78,1.1-1.24,1.52-1.2,3,3.23,1.61,1.12,5.93,1.2,8.73l1.12-.4a2.63,2.63,0,0,1,1,2c-.88,1.5-2.23,0-3.35.08a3.67,3.67,0,0,1-1.56,3.59c-.19,0-.38-.17-.4-.53-.16.17-.35.36-.54.36-1.69-.32-1.19-2.17-1.58-2.74a2.33,2.33,0,0,1-3.34.48,6,6,0,0,0-1.61,2.68c-1.08.21-2.7,2.89-3.53.44,0,.43,0,1-.34,1.16l-1.33-1.43c.82-2.64-3-1.77-3.85-3.42,1.85-1.2-.08-2.8.78-4.13.34-1,1.67-.4,2.39-1-1.69-.27-3.72.51-5.38.76-.32,1,.77,1.1,1,1.65-.34,1.68-1.47,1.18-2.59.82-.68,1.69.07,2.42.86,3.86-.12,1.69-2.35,2.15-3.27,2.93-1.39,1.07-2.07.91-2.68.46l-4.1,2.39.06,0c-1.85.17-4.11-.08-4.66.49-10,3.67-19.56-4.77-30.28-1.48-14.22-.82-28.9-4.87-43.36-1.24-3.9.12-3.14-5.27-7.41-4l-22.45,3.71c-1.39-2.76-4.24,1.22-5.08-1.9.86-1.11,2.57-.46,3.27-2.15,10.76-1.64,19.31-9.38,29.48-11.93-2.62-.3-5.78-.21-7.37-2.55-9.56-2.32-21.43.48-30.61-.34-4.61-.21-9.09-1.53-13.69-.88l-2.19.06c-.07,0-3.79.64-4.15.84-9.9,2.57-20.69,8.68-31,4.6-11-6.18-21.49,4.77-31.87,1h0c-8-11.87-22.48-2.84-33.33-3.58.81,2,.15,4.66,1,6.66,1.73,1.64,4.33.63,6.06,2.59,2-1.89,5.93-1.85,7.59-1.89,7-2.83,11.88,3.92,17.62,3,3.35-.3,5.5,2.8,7.61,4.62h5c12.41,2.59,41.66-.57,41.68-.75,4.27-.45,8.58-1,12.87-1.13,6.22-.14,10.46,2.39,15.2,6.13a3,3,0,0,0,1.14.57v0c2.42.3,4.79,3.59,7.89,1.82,23.44,3,46.56-3.17,68.86-.17,15.74,1.73,33.33,3.62,48.9,5.52,7.23-12.88,23.65-7.29,34.91-10.63C279.89,110.83,279,106,278.1,101Z" fill="#fff"/><path d="M264.16,103.83h.06a6.79,6.79,0,0,0,.47-.74Z" fill="#fff"/><path d="M207.37,124.33c-29.1-5.42-52.77,1.71-80.69-1.35-2.27,2.87-4.1.19-6.06-1.45a2.62,2.62,0,0,0-.82-.66c-4.83-2.62-9.59-5.88-15.19-6.41-5.18-.48-11.66-.56-16.74,1L53,116.55a23.92,23.92,0,0,0-9.92-1A29.54,29.54,0,0,0,44.18,119l4.11,1c8.16,2.8,16.07,6.3,24.11,9.32l.39-.18c11.2,5.94,22.42,12.65,34.43,16.63a2.52,2.52,0,0,0,2.11-.16c2.74.21,7.84.49,8.48-.43.89-1.29,11.46-1.63,11.46-1.63s-1.84,1,3.77,1.42,16-4.24,24.5-2.64a89.44,89.44,0,0,0,19.64,1.86c5-.17,14.57-1.69,18.95-.59s18.73,2.19,22.14,1.16,8.67-1.21,10.55-.66,4.93,1.39,4.93,1.39h0c5.25-3.9,7.26-10.94,8.63-16.91C231.32,126,218.66,126.92,207.37,124.33Z" fill="#fff"/><path d="M276.39,87.12a55.17,55.17,0,0,1,2,11.23c-1.65,1-.53,1-2.41.09-3.29-3.25-4.17-7.51-5.42-11.58,1.5,0,2.39-1.35,3.67-1.81" fill="#fff"/><path d="M38.12,55.69c4.33.78,10.64-.17,13.21,4.24C53.93,65,58.59,71,65.1,70.52c10.73-2.6,14.52,10.12,24.25,10.94l8-1.94c6.65,4.3,13.3,2,19.92-.65,8.88,3.1,17.83,3.37,26.5-.09,6.19-4.28,16.52-2.76,19-11.76.59-4.87,3.43-9.49,5.92-12.91,1.15,0,2.38-1.35,3.35-.48,2,3.5,5.49,2.06,7.61,4.8,4.19,2.28,8-1.56,12-2.42,5-2.76,4.73-9.85,9.71-12.06,3.79,2.3,6.3,10.79,11.6,7.08,2.41-1,4.37-3.88,7.38-2.84,4.39,2.84,5,10.46,10.95,10.29,9,2.11,4.42,15.16,14,15.77-3.73-.06-2.46,4-3.71,6.07-1.65,1-1,3.42-3.07,3.82-2.45-1.39-4-4.16-5.77-5.93-1.64,1.16-2.32,3.21-2.83,4.9l-.73,0c-2.92-9.43-4.2-20.37-11.67-26.85-2.43.26-3.08,2.89-4.51,4.77-1.9,4.74-5.31,8.77-4.58,14.51C204,70.71,207.49,59,197.79,59.15c-1,2.09-3.61,3.5-4.09,5.93a33.34,33.34,0,0,0-2.31,15.2c-3.89-5-2.09-12.65-7.81-16.93-3.16.65-4,4.4-4.47,6.45-2.22,5.48-2.77,12.25-5.57,17.71-6.19,5.27-8-11.28-13.87-1.6-1.5-.3-2.53-3.46-4.75-2.47-.72.78-1.64,1.2-2.17,2.15l-3.26-3c-1.1.73-2.16,2.67-3.49,1.77-1.54-1.08-1.39-3.29-3.46-3.42-1.45,1.16-2.49,3.25-4,4.41l-2.11-2c-2.17,1.94-2.72,7.9-7.08,5.65-2.11-1.6-4.47-5.44-6.62-1.86-2.57,1.39-5.38-5.23-7.27-.12-1.31-.34-1.56-2.39-3.08-3.25-1.46,1.52-2.53,2.51-3,4.55-1.34-.52-1.19-2.21-3-2l-4.43,7.78c-11.84,2.64-25.57,11.28-36.8,4.54-7.74-3.1-16.18,1.64-23.78,3.58-3.54-.46-6.22-2.44-8.58-5.52l-.34.36-1.73-1.61c-.74.38-1.71-.86-2.64-.86-8,.82-14.87,1.77-23.07,3C9.85,92,7.34,83.53,7.66,76.06c-.4-.74,1.5-14,4.79-19.35,2.3-4.2,6.5-7.13,10.74-8.73,6.69-.78,8,9.63,15,7.71" fill="#fff"/><path d="M240,115.24a2.83,2.83,0,0,0-1,0c.7-1.32-.08-3,1.57-4,4.11.46,1.2-3.21,2.8-5.15-.73,0-1.66-.12-2,.66-2.59.25-3.94-1-6.39-1.48l-1.23,2.11c-2.05.23-.3-3.39-1.78-3-3.92-.42-8-.3-11.71,1.68-5.86,3.17-11.15,7.26-17.61,9.35,3.18-.07,8.2-.66,11.77,0,7.15,3.18,15.59,2.32,23.54,1.2Z" fill="#fff"/><path d="M201.57,71.55c-.46,3,2.22,4.56,3.58,6.58l0,.74-1.69,0c.17-.36-.21-.52-.4-.74l-1.62,1.4c1,2.19,3,.25,3.44,2.32.76.9,3,1.73,2.15,3.62-1.5-.5-2.59.49-3.67,1.82v.14c-.54.43-.93-.1-1.31-.48-.34.38-.72,1.31-.3,1.69-.73.42-.16.95,0,1.64,2.12,1.43,4-2,4.89,1.2-2,1.73-5.38,1.27-8.15,1.94.17-.59-.38-.76-.57-.95-.19.19-.38.19-.35.57-1.92-1.6-3.35.49-4.73-1.52,1.77-3.22,7.66-.25,7.11-5.65-1.52-.69-2.41.83-4.3,0-.78-1.26-1.59-2.91-.89-4.45.55-.57.51-1.9,1.43-2.09.87-1.68-3.16-5.31,0-5.56,1.8-2.15-1.39-8.37,3.5-7.61l.31-.91c.07,2.21,4.46,4.89,1.5,6.26"/><path d="M219.53,66.85a3.64,3.64,0,0,1-.47,2.85c.4.69,1.31.27,1.34,1.22-1.05,1.9-2.82-.65-4.07,1.08a14.84,14.84,0,0,1,5.16,3.54c-.39-.17-.55.4-.91.78a2.27,2.27,0,0,1,.46,3c1.34.91,2.64.87,3.08,2.51l.36-.17c-1.8,1.9-1.62,1.69-4,2.72a4,4,0,0,0,1.19,2.55c1.19,1.48,3.17-.08,4.35,2.3h-.34c-.88,1.69,2.45,1.42,1.77,3.31-4.38,2.56-7.23-4.45-11.42-1.32,0-.53-.91,1.16-1.31.42a2.17,2.17,0,0,1-2.38,1c-.26-2-3.77-1.16-3.1-3.8l3.33-.5-.76-.7c1-2.64,6.2-4.32,3.1-7.74,1.51-.25-.4-1,.73-1.31A6.42,6.42,0,0,1,213,72.44c1.66-.78.86-2.47,1.94-3.42-2.09-1.39,1.62-2.25.25-3.9,1.54.48,3.92-.3,4.37,1.73"/><path d="M260.18,83.49c1.21,2.17,7.6,4,2.85,7.17l-.71.74c-2-2.72-2.46-6.27-5.32-8.56-1.82,1.34-2.11,3.77-3.74,5.5-3.67-3.61-3.1-9.22-5.1-13.62,6.52,0,5.34,9.15,12,8.73" fill="#fff"/><path d="M144.57,86.42c-1.46.78-4.27.69-4.19,3.12.77,1.07,1.89.86,2.66,1-.91,1-.87,2.07-.45,3.37l-3.37.09c-.19-.34.16-.53.36-.74-.63-1.5-2.17-2.93-1.66-4.62L136.19,87l.72-.74c1,1.43,2.68,1.77,3.76.23l2.15-2.66a5,5,0,0,1,1.75,2.56" fill="#fff"/><path d="M110.89,89.92l.87-2.07-.3,2.07Z" fill="#fff"/><path d="M118.1,87.64c-1.09,1,1,1.07.81,2-1.31,0-2.2,1.35-2.72,2.3.06,2.07,2.45,1.25,2.89,2.72A3.45,3.45,0,0,0,122,92.55c-.76-.55-1.69-.12-2.62-.29,2-2.47,3.31-1.61,5.84-4.11l4.38,3.41c-.53,0-.91.78-1.25,1.14.4.59.41,1.5,1.37,1.67l2.43-.09c-6.34.57-11.35,1.1-17.73.19l.49-2c-.59-.74-1.66.21-2.26-.51l0-.78a4.17,4.17,0,0,0,2.64.7c-1.2-2.22,1.75-3.42,2.84-4.2" fill="#fff"/><path d="M109.82,91.27a1.27,1.27,0,0,0,1.18,2c.2-.21.39.17.59.32-1.46,1.58-4-1.35-6.34.21l-1.31,0c1.23-2.3,3.66-7.57,5.88-2.59" fill="#fff"/><path d="M117.77,88.55l-.16,1.16Z"/><path d="M159.63,90.61c.07,2.22-2.32,2.85-4,3.29-.95,0-1.85.26-2.08-1.07.16-.36-.21-.36-.4-.53l1.09-1.16c-.21-.36-1,0-.77-.53-.21-1.11,1.62-2.11,2-2.84,2.95-1,1.77,2.93,4.2,2.84"/><path d="M234,86.9c-1.62,1.57.49,3,.91,4.45l.36.17-1.44,1.56c2.09.87,2.15,3.08,1.27,4.62l-1.31,0-.47-2.8c-1.3,0-3,.48-3.38-1.2.67-2.64-1.12-5.89,1.79-8.08,1.3-.19,1.68.12,2.27,1.24"/><path d="M134.12,92.13l-1.71-.65a3.37,3.37,0,0,1,2-1Z" fill="#fff"/><path d="M170.56,99.74l-.35.38a18.62,18.62,0,0,0,9.28,4c-4.89,4.66-12.23,2.63-17.92,6.39a5.1,5.1,0,0,0-4.64.69c-6.92-.9-14.35.83-21.77,2-.45-2.6,3.12-1.78,4.56-3.51,7.19-2.84,13.9-9.17,22.55-7l1.1-.57c-.58-.59-.59-1.11-1.16-1.49,3,.29,5.71-2,8.35-.83" fill="#fff"/><path d="M216.66,99.6c1.73,1.64,3.8,2.08,6.05,2.38-4.81,1.31-9.84,7.78-15.8,8,0,1.31-1.8,2.3-3.25,3.08-9.57,4-19-.32-29.87,0-5.38.7-10,2-15.46.87,5.68-3.38,13-3.59,20-6.06,3-1,4.9-4.28,8.66-3.62,2.53-2.51,7.17-3.25,10.86-4.45,5.81.91,13.13,2.55,18.83-.23" fill="#fff"/><path d="M228.76,146.64c-3,4.24-3.43,10-7.79,13.14-5.8-.36-11.73,1.47-14.15,6.79,1.2,2.76,5.87,2.8,7.22,4,4.54,1.74,10.89,1.74,15.76,2.3,14.12,4.05,28,5.27,42.53,5.36-3.69,7.22-5.82,16.24-4.84,23.85-.91.21-.88,1.16-1.43,1.74-.4,4.57-2.62,8.51-4.56,12.6l-3.81-.63c-4.41-1.47-8.53-1.39-13.18-2.91a237.77,237.77,0,0,1-56.79-25.22c-19.77-11.49-41.79-16.76-60.87-30-6.71-3.36-13.77-6.69-19.88-10.55,0,0,9.41.32,10.34-.34s4-2.27,6.46-1.77,8.77,1.9,12.78,1.16,11.38-4.09,14.2-3.88,9.39,1.9,12.83,2.39a89.48,89.48,0,0,0,11.53.9c3.42-.12,10.53-1.6,12.72-1.35s12.49,1.48,15.93,2a78.27,78.27,0,0,0,14.31-.17c.91-.34,4.91-2,6.75-1.77s3.94,2.29,3.94,2.29" fill="#fff"/><polygon points="44.91 121.08 44.94 121.09 44.94 121.08 44.91 121.08" fill="#fff"/><path d="M259.19,218.52c-23.15-3.33-44.16-13.14-63.8-25-18.8-9.85-38.3-18-57.59-26.87-9.56-7.53-20.48-10.9-30.05-17.86,0,0-31.61-15.64-36.63-18.09-7.71-3.8-14.23-6-22-8.56l-4.19-1.07c.92,2.68,1.47,5.39,0,7.86-7.62,1.37-13.57-3.82-20.36-6.43,1,1.66,1.41,3.67,2.78,5.31,3.69-.86,6.56.91,8.86,3.06,1.22,9.15,5.84,19.4,15.44,21.91,1.92,2.34,1.65,4.4,1.92,7.38,2,.65,4.42-.09,6.5.27l26.7,0h0C92,163,119.62,186.85,126,193.16c3.2,3.67,8,7.3,11.11,11.83l.05,0,2,2.95,6.53,2.11a16.94,16.94,0,0,0,1.94.12c4.73,2.06,8.45,7.75,13.72,9.6,5.46,1.68,12.07,3.54,15,9.05,4.94,8,15.83,4.91,21.84,12,9.59,2.3,20.11,4,26.73,12.57a17.54,17.54,0,0,0,8.07,2.17,1.27,1.27,0,0,0,.72.52l3.06.68c2.48-3.23,5-6.44,7.37-9.41,0,0,2.63-3.82,4.44-6.14,2.77-7.52,8.35-12.92,12.62-19.75Z" fill="#fff"/><path d="M279.53,157.08a118.41,118.41,0,0,1-5.34,19.6c-14.18.26-28.4-.77-41.78-4.65-6.94-1.08-15-1-21.41-4.32,1.2-3.25,4.32-4.66,7.3-5.1,2.76-1,5.61.52,7.6-1.56,4.32-5.15,3.86-13.73,11.62-16,4.93-4.07,4.93-9.85,7.37-14.78,1.69.27-.21-1,.88-1.73,6.31-13,22.56-6.47,33.64-10.4,1.47,11.91.06,25.58.12,39" fill="#fff"/><path d="M127.79,126.23c-.93,0-2.49-.19-2.78.42a6.5,6.5,0,0,1-4.6,1.69c2.49-.08,4.66-.17,7.14-.21a10,10,0,0,1-2.69,3.5c-.3.29,0,1.24.06,1.86.68,1.51,2,2.72,2.32,4.23.55-1.85-.1-3.37.15-5.27.53-2.47,2.34-4.11,4.47-5.44.32-.27-.31-.27-.31-.27.06,1.56-.51,3.46.48,5,.64.57.92-.38,1.2-1A12.58,12.58,0,0,0,136,140h.91c1.47-2.24.46-4.7,1-7.21a5.56,5.56,0,0,1,4.51-4.79,6.49,6.49,0,0,0,1.06,4c0,.31,1.24-.05,1.87-.09a1.31,1.31,0,0,0,.87-1.9c3.16,1.48,3.25,4.9,4.91,7.62,0,.33,0,1,.05,1.24,1.75-2.85,3.2-6,2.46-9.68,1.25,0,2.51,1.16,3.17,1.73,1.28,1.86-.15,4.7.84,7.13,1.8-2.55,1-5.61,1.58-8.73.66.57,1,1.81,1.65,2.42,0-.94.57-1.56.84-2.51.61-.61,1.57.26,2.18-.08.27-.34.58-.61.58-1,1.87.57,2,2.72,3.52,3.29.32,0,.59-1,.91-1.26,1.94,2.76,1.75,6.49,1.85,9.59,3.65-2.93,1.92-7.82,2.11-11.87,4-1.06,3.53,3.31,3.92,5.78,1.85-.38,1.78-2.56,1.73-3.8,1.94,3.06,3.35,6.43,5.59,9.47,2.69-2.91,2-6.92,1.84-10.33a2.79,2.79,0,0,1,1.62,2.42c3.09-1.31,6,2,6.38,4.79.57-2.2,2-4.41,2-6.92a9.48,9.48,0,0,1,4.26,7c2.15-1,2.69-3.83,2.3-6,2.55,1.82,4.77,3.91,5.83,7,1.81-1,2-3.79,2.91-5.65.31-.34,1.86-.08,2.22.87a6.4,6.4,0,0,1-.19,3.37c-.59,1.29-.23,2.8-.17,4.37,2.41-2.56,2.28-6.31,3.13-9.39.94.87,1,2.43,2.57,2.68,0-.3,0-.61,0-.61.59,0,1.23-.34,1.85,0s1,.9,1.57.57.88-1.61,1.52-1.31c1.28,1.52,2.84,2.09,4.45,3,.63.26,1.54-.36,1.84-.4,1.93,1.18,5.11,3.57,6.27,1.35a4.22,4.22,0,0,0-.16-4.66c-.3-.61-1.56-.57-2.5-1.14-2.54-.82-5.3.15-8.11-.38-6.53-.69-12.18-2.06-18.76-3.12-3.43-.5-6-3.22-9.75-3.1a356.62,356.62,0,0,0-40.7,1c-.63,0-1.54.66-2.18.7-7.42,1.16-14.24,1.69-21.75.69a24,24,0,0,0-4.66-.48v.61"/><path d="M123,152.1s4-2,5.23-2.07,3.8,2.39,3.8,2.39a15.24,15.24,0,0,0-5-.49,13.4,13.4,0,0,1-4,.13"/><path d="M147.16,147.69s4-2,5.21-2,3.82,2.34,3.82,2.34a14.48,14.48,0,0,0-5-.44,14.76,14.76,0,0,1-4,.12"/><path d="M159,148.88s3.95-2,5.21-2,3.82,2.34,3.82,2.34-3.15-.86-5-.44a15.25,15.25,0,0,1-4,.1"/><path d="M184.19,148.06s4-2,5.21-2,3.82,2.34,3.82,2.34a14.51,14.51,0,0,0-5-.44,15.48,15.48,0,0,1-4,.11"/><path d="M170.87,150.37s4-2,5.24-2.06,3.79,2.38,3.79,2.38a14.34,14.34,0,0,0-5-.44,14.92,14.92,0,0,1-4,.12"/><path d="M134.75,150.29s4-2,5.21-2.07,3.82,2.41,3.82,2.41a15,15,0,0,0-5-.51,13.34,13.34,0,0,1-4,.13"/><path d="M114.56,150s4-2,5.23-2.05,3.8,2.38,3.8,2.38a14.87,14.87,0,0,0-5-.46,17.1,17.1,0,0,1-4,.13"/><path d="M195.43,149.87s4-2,5.24-2,3.8,2.34,3.8,2.34a15.86,15.86,0,0,0-5-.46,15.2,15.2,0,0,1-4.06.13"/><path d="M219.06,149.13s4-2,5.21-2,3.82,2.34,3.82,2.34a15.05,15.05,0,0,0-5-.47,15,15,0,0,1-4,.13"/><path d="M205.56,152.71s4-2,5.23-2,3.8,2.36,3.8,2.36a14.67,14.67,0,0,0-5-.47,14.67,14.67,0,0,1-4.05.13"/><path d="M129.58,156.13s4-2,5.22-2,3.81,2.34,3.81,2.34a14.74,14.74,0,0,0-5-.47,15,15,0,0,1-4,.13"/><path d="M141.42,157.33s4-2,5.23-2.06,3.82,2.4,3.82,2.4a14,14,0,0,0-5-.5,14.91,14.91,0,0,1-4.05.12"/><path d="M153.3,158.76s4-2,5.23-2,3.8,2.38,3.8,2.38a15.59,15.59,0,0,0-5-.5,14.77,14.77,0,0,1-4,.12"/><path d="M188,161.17s4-2,5.22-2,3.81,2.34,3.81,2.34a13.51,13.51,0,0,0-5-.44,18.4,18.4,0,0,1-4,.13"/><path d="M149.53,153.54s3.95-2,5.21-2,3.82,2.36,3.82,2.36a14.91,14.91,0,0,0-5-.46,17.09,17.09,0,0,1-4,.13"/><path d="M165.87,156.68s4-2,5.22-2S174.9,157,174.9,157s-3.15-.87-5-.45a18.4,18.4,0,0,1-4,.13"/><path d="M160.68,162.52s4-2,5.24-2.06,3.79,2.4,3.79,2.4a14.65,14.65,0,0,0-5-.46,15.39,15.39,0,0,1-4,.12"/><path d="M172.54,163.72s4-2,5.23-2.07,3.82,2.34,3.82,2.34a14.78,14.78,0,0,0-5-.44,17.18,17.18,0,0,1-4.05.17"/><path d="M184.42,165.2s4-2,5.21-2.07,3.82,2.4,3.82,2.4a14.47,14.47,0,0,0-5-.5,14.77,14.77,0,0,1-4,.12"/><path d="M180.62,159.93s4-2,5.22-2.07,3.81,2.41,3.81,2.41a14.77,14.77,0,0,0-5-.51,13.47,13.47,0,0,1-4,.13"/><path d="M164.52,167.18s4-2,5.24-2.06,3.81,2.37,3.81,2.37a13.51,13.51,0,0,0-5-.44,18.58,18.58,0,0,1-4,.13"/><path d="M159.35,173s4-2,5.24-2.07,3.79,2.41,3.79,2.41a15.53,15.53,0,0,0-5-.5,16.33,16.33,0,0,1-4.05.16"/><path d="M171.21,174.18s4-2,5.23-2,3.81,2.35,3.81,2.35a14.36,14.36,0,0,0-5-.45,16.2,16.2,0,0,1-4.06.13"/><path d="M183.09,175.66s4-2,5.21-2,3.82,2.4,3.82,2.4a14.31,14.31,0,0,0-5-.49,15.29,15.29,0,0,1-4,.12"/><path d="M179.29,170.38s4-2,5.23-2,3.8,2.4,3.8,2.4a15.44,15.44,0,0,0-5-.5,14.92,14.92,0,0,1-4.05.12"/><path d="M185.52,155.92s4-2,5.23-2,3.8,2.35,3.8,2.35a14.22,14.22,0,0,0-5-.45,18,18,0,0,1-4,.11"/><path d="M178.17,154.69s4-2,5.24-2.06S187.2,155,187.2,155a15.17,15.17,0,0,0-5-.48,13.23,13.23,0,0,1-4,.12"/><path d="M148,164.77s4-2,5.24-2,3.79,2.34,3.79,2.34a14.34,14.34,0,0,0-5-.44,17.66,17.66,0,0,1-4.05.1"/><path d="M140.66,163.55s4-2,5.22-2.07,3.81,2.39,3.81,2.39a14.65,14.65,0,0,0-5-.45,14.53,14.53,0,0,1-4,.13"/><path d="M206.93,159.19s4-2,5.23-2.07,3.8,2.38,3.8,2.38a14.07,14.07,0,0,0-5-.48,14.92,14.92,0,0,1-4,.12"/><path d="M199.59,157.9s4-2,5.21-2,3.82,2.38,3.82,2.38a15.84,15.84,0,0,0-5-.51,15,15,0,0,1-4,.13"/><path d="M201.7,170.51s4-2,5.21-2,3.82,2.34,3.82,2.34a14.48,14.48,0,0,0-5-.44,15.05,15.05,0,0,1-4,.13"/><path d="M194.36,169.27s4-2,5.21-2,3.81,2.34,3.81,2.34a14.74,14.74,0,0,0-5-.47,14.9,14.9,0,0,1-4,.13"/><path d="M210.75,181.41s4-2,5.23-2,3.8,2.34,3.8,2.34a14.34,14.34,0,0,0-5-.44,15.41,15.41,0,0,1-4.05.1"/><path d="M196.26,177.56s4-2,5.21-2.07,3.82,2.38,3.82,2.38a15.44,15.44,0,0,0-5-.49,13.15,13.15,0,0,1-4,.12"/><path d="M201.64,188.27s4-2,5.23-2,3.8,2.34,3.8,2.34a13.41,13.41,0,0,0-5-.44,18.58,18.58,0,0,1-4.05.13"/><path d="M187.29,182.26s4-2,5.23-2,3.82,2.34,3.82,2.34a14.51,14.51,0,0,0-5-.44,16.12,16.12,0,0,1-4.05.13"/></svg>