<svg xmlns="http://www.w3.org/2000/svg" width="600" height="308"><path fill="#fff" stroke="#50d6cc" stroke-linecap="round" stroke-linejoin="round" d="M57.64 1.71h482.08v247.22H57.64z"/><path d="M321.5 182.76s7-7.36 13.65-5.95a11.23 11.23 0 019.57-8.37s-.74-8.56 9-10.43c.27-5.82 6.16-10.64 6.16-10.64s-1.21-9 5-11.11a11.33 11.33 0 011.2-12.51c-.06-.14-6.35-11.31-.73-14.52-6-5-4-10.71-4-10.71s-6.49-1.67-4.14-9.43c-5.36-.94-6.43-9.57-6.43-9.57s-8.23 1.67-9.23-5.49c-5.42.87-6-4.48-6.09-4.48s-10.77 2.88-12.91-5.22a4.13 4.13 0 01-6-1.67s-6 2.94-9.5-2.74c-7.09 4.41-11-.21-11-.21s-9.3 6.16-12.38 1.41c-5.49 5.55-10.37 3.14-10.37 3.14s-4.15 7.36-10.84 5.49c-1.54 6.83-9.23 7-9.23 7s.8 6-8.43 7.63c-1.21 7.09-6 8.29-6 8.29s.47 6.9-3.88 9.1c1.54 3.89-2.47 8.64-2.47 8.64s4.28 5.35-1.54 11.37c5.62 1.47 1.54 11.18 1.54 11.18s7.76 3.47 2.87 9.9c5.56 1.8 3.82 6.22 3.88 8.83 3.55 1.61 6.7.8 5.16 8 10.9 1.21 5.75 7.23 5.75 7.23s5.09.2 3.08 4.21c9.3-.2 10.64 7 10.64 7s8.63-2.27 9.77 1.07-3.75 25.9-3.75 25.9a18.89 18.89 0 01-12.85-5.94c-12.72-.34-9.91-8.7-10.11-8.7s-4.21 1.54-6.29-5.46c-8.49 1.74-8.23-5.42-8.29-5.49s-3.82-1.74-2.41-5.28c-8.77.8-8.1-7.77-8.1-7.77a3.8 3.8 0 01-2.34-4.34c-1.14-.41-8.9-.54-4.88-10.78-7.43-4.48-2.81-9.63-2.81-9.63s-10.24-5.29-2.35-11.38c-5.88-8.7.47-13.05.47-13.05s-8.16-8.29.14-14.18c-1.34-12.58 6.15-15.59 6.15-15.59s-4-10.24 6.76-14.52c.67-10.37 8.16-10.64 8.16-10.64s.2-8.23 12-7.43c2.27-7.36 10.3-5.88 10.3-5.88s2.48-8.9 13.39-4.62c5.55-10.84 13.78-5.29 13.78-5.29s5.22-3.41 7.83-2.34c3.31-5.69 10.37-.22 14.93.88 1.65-.64 7.55-5.09 12.1.53 6-4 11.17 3.14 11.17 3.14s8.3-4.21 12.18 5.42c17.6-1.6 15.06 9.9 15.06 9.9s13.85-3.14 10.84 10.64c12.58.87 11.3 9.17 11.3 9.17s8 6 4.49 11.44c7.09.34 4.48 7.16 4.48 7.16s5.42 2.07.94 10.51c10.37 8.29 2 16.52 1.94 16.46s5.55 6.69.47 14.45c1.53 12.31-4.69 15.45-4.69 15.45s1.61 8-5.35 10.24c-.13 9.37-9 10.51-9 10.51s2.34 4.07-6.42 8.35c-.35 6.27-9.5 6.77-9.5 6.77s-.87 11.51-12.51 8.43c-2.83 9.23-16.46 6.49-16.73 6.36s-2.61-19.81-2.61-19.88z" fill="#fff" stroke="#50d6cc" stroke-width=".76"/><path d="M337.76 192.44s-1 2 3.09 3.74M346 187.75s4.6-1.11 7.7 0M359.76 176.16c0 .08-.64 2.06 3 4.92M362.38 171a12.6 12.6 0 007.23 1.9M335.14 176.79s.15 5.25-2.55 7.71M344.19 168.69s4.45 1.11 8.1-.71M372.7 161s1 1.35 5.88 1.11M353.48 157.89c.16.08 5.8 1.91 9.38.24M364.76 136.28s.24-.32 2 5.8M369.13 119.05a6.24 6.24 0 01-2.86 4.68M385.89 105.7s-3.81 3.1-3.1 4.37M366.91 103.48a4.21 4.21 0 01-1.27 5.64M357.3 89.18a5.51 5.51 0 014.92 2.82M364.44 67.58c0 .08.72.71-.63 2.06M340.06 67.89a11.23 11.23 0 011.51 6.36M350.62 58.2a22.84 22.84 0 003.5-1.27M338.87 46.85c-.08 0-1 3.57.71 4.84M334.5 63.13c0 3.81 3 2.86.95 6.51M327.11 60c-.08 0-4.76 3.66-4.76 4.29M314.88 58a5.76 5.76 0 011.51 4.68M298.51 55.58c-.08.16-1.66 3.58-2.78 4.21M284.06 55.66c.08 0 1.59 3.18-.4 5.48M258.33 68.85a39.53 39.53 0 004.05.79M248.4 78.06c.07-.08 4.84-1.51 4.84-1.51M240.69 84c.16 0 3.34.56 4.13.16M238.47 87s1 .55.15 5.87M223 73l1.91 2.86M216.46 87.67c0-.08 1.91 2.86 4.45 3.42M231.48 102.61a22 22 0 003.57-1M230.13 113.41a4.18 4.18 0 012.38-3.34M226.87 118.33c0 .08 2.3 2.94 3.89 3.34M225.52 123.81c.24-.07 2.7-2.22 5.56-2.06M224.72 131.2s.08 2.46 7.39 1.83M225.44 139.86c0-.08 2.15-4.93 6.51-6.75M231.32 146.05s.63-2.06 4.29-3.49M235.37 154.24a22.08 22.08 0 013.57-2.47M238.63 160.59s1.59 1.67 5.56-1.19M219.48 161.94c.48-.08 6.28-1.43 8.26 1.59M221.79 166.71s6.11-.8 6.91-.16M243.63 168s-.8 1.67 6.75-1.11M253 171c-1.35 2.3.32 4.13-1.43 5.16M230.05 174.17c.24-.15 2.78-1 2.38-4.68M232.35 179.65c.32-.08 4.53-1.9 5.4-1M240.61 185s.56-3.74 1.75-4.13M247 190.62s3.49-.08 5-1.2M253.72 178c.08.08 3.25 1.74 10 .08M256.26 193.16a49.4 49.4 0 01.87 6M350.86 79.49h2.62M309.08 56.38s-1 3-2.38 3.81M280.72 39.22a6.35 6.35 0 01-1.19 4.53M266.43 44.62c0 .08.63 2.7-3.58 3.58" fill="none" stroke="#50d6cc" stroke-width=".76"/><path d="M323 193.87s39.67-11.21 51.66-59.9c-7 50-50.37 65.82-50.37 65.82l-1.29-5.92z" fill="#fff" stroke="#50d6cc" stroke-linejoin="round" stroke-width=".95" fill-rule="evenodd"/><path d="M271 192.81s-39.31-11.4-51.18-61c6.89 50.88 49.91 67 49.91 67l1.28-6z" fill="#fff" stroke="#50d6cc" stroke-linejoin="round" stroke-width=".96" fill-rule="evenodd"/><path d="M327.11 196.9c1.22 0 4.26-3.35 6-3.74s1.94-2.13-.06-2.2-3.75 2.26-3.75 2.26a7.76 7.76 0 01-3.55 1.68c-1.8.2-.64 2.45 1.36 2zM335.56 190.71s-1.22-.46 1.94-1.68 3-2.65 4-3.23 3.23-2.13 3.68-1.23-2.32 2.72-3 2.91-3.81 3.1-4.71 3.36a2.35 2.35 0 01-1.94-.13zM267 195.9c-1.21 0-4.22-3.41-5.94-3.81s-1.92-2.17.06-2.23 3.71 2.3 3.71 2.3a7.72 7.72 0 003.52 1.71c1.79.19.64 2.49-1.35 2zM258.63 189.6s1.21-.46-1.92-1.71-2.95-2.69-4-3.29-3.2-2.16-3.64-1.24 2.3 2.76 2.94 2.95 3.77 3.16 4.67 3.42a2.27 2.27 0 001.92-.13z" fill="#50d6cc"/><path d="M350 179.86s-4.14 2.39-3.55 3 4.26-2.26 4.32-2.32 1.55-1.88-.77-.65z" fill="#50d6cc" stroke="#50d6cc" stroke-width=".95"/><path d="M244.36 178.56s4.1 2.43 3.52 3-4.22-2.3-4.29-2.36-1.53-1.91.77-.66z" fill="#50d6cc" stroke="#50d6cc" stroke-width=".96"/><path d="M356.09 173.8l-2.71 3" fill="none" stroke="#50d6cc" stroke-linecap="round" stroke-width="1.24"/><path d="M360.15 168.83l-2.58 3.17" fill="none" stroke="#50d6cc" stroke-linecap="round" stroke-width="1.15"/><path d="M364.22 162.37l-2.9 4.65" fill="none" stroke="#50d6cc" stroke-linecap="round" stroke-width="1.05"/><path d="M367.64 155.79l-2.38 4.77M369.19 152.3l-.77 1.68" fill="none" stroke="#50d6cc" stroke-linecap="round" stroke-width=".95"/><path d="M370.94 147.72l-.65 2" fill="none" stroke="#50d6cc" stroke-linecap="round" stroke-width=".57"/><path d="M238.29 172.38c2.68 3.09 2.68 3 2.68 3" fill="none" stroke="#50d6cc" stroke-linecap="round" stroke-width="1.25"/><path d="M234.26 167.32l2.56 3.22" fill="none" stroke="#50d6cc" stroke-linecap="round" stroke-width="1.15"/><path d="M230.23 160.75l2.88 4.73" fill="none" stroke="#50d6cc" stroke-linecap="round" stroke-width="1.05"/><path d="M226.84 154.05l2.37 4.86M225.3 150.5l.77 1.71" fill="none" stroke="#50d6cc" stroke-linecap="round" stroke-width=".96"/><path d="M223.58 145.84l.64 2" fill="none" stroke="#50d6cc" stroke-linecap="round" stroke-width=".58"/><path d="M236.94 72.33a7.45 7.45 0 012.4 6.35c-.54 3.81-2.74 9.11-2.3 13.06a29 29 0 01.17 4.42 15.8 15.8 0 01-2.68-7.78c0-4 2.86-7.83 2.86-10.79a40.47 40.47 0 00-.45-5.26zM235.49 73.47s-3.82 3.65-4.32 7.21c-.36 1.83-.5 10.35-.54 14.14-.09 1.16-.57 5.75-.67 7.41s2.81-2.84 3-6.52c-.09-3.81-.09-11.82.29-13 .35-1.54.27-3.26.81-4.81.7-2.15 1.49-4.37 1.45-4.4z" fill="#fff" stroke="#50d6cc" stroke-linejoin="round" stroke-width=".76"/><path d="M210.44 97.82s2.59 3.59 3.06 5.65 1.33 6.12 2.46 7.79 7.58 10.91 7.91 14.77c.07 2.52-2.66 6.85-6.71 6.91-2.53-.06-9-1.73-9.32-7.31s2-5.73 2.26-9.12.34-18.63.34-18.69z" fill="none" stroke="#50d6cc" stroke-linejoin="round" stroke-width=".76"/><path d="M255 48.9a13.5 13.5 0 00-4.75 1.31c-1.61 1-4.32 2.41-6.22 5-4.81 3.79-12.03 5.56-14.36 8.68-1.37 2.13-1.28 7.24 2.15 9.4 2.19 1.26 8.63 3.23 11.76-1.41s1.27-5.93 2.8-9c2.53-7 8.6-14 8.63-14zM320.17 42.11a13.72 13.72 0 00-4.25-2.5c-1.83-.46-4.87-.26-8-.57-6.06-.85-12.3-5.23-16.14-4.7-2.48.49-6.09 4.11-5.26 8.08.62 2.45 3.36 7.41 8.87 6.43s5.46-2.18 8.71-3.19a29.82 29.82 0 0116.08-3.55zM384.79 104.92c.45-1-.38-3-1-5.26a19.69 19.69 0 00-3.53-7c-2.49-5.59-2.07-13.25-4.55-16.22-1.74-1.84-6.72-3-9.64-.18-1.75 1.83-5.2 7.61-1.46 11.76s5.39 2.59 8 4.81c6.15 4.13 9.16 11.37 12.18 12.13zM382.58 153.71c.84-1.16 2.35-3.4 2.17-5.27-.14-1.47.67-6 .76-7.91.56-6.09 4.37-11 3.34-16.33-.62-2.45-4.21-6-8.14-4.93-2.42.74-7.8 3.71-6.56 9.16s3 5.37 4.17 8.56c3.35 6.61 1.21 14.46 4.26 16.72z" fill="none" stroke="#50d6cc" stroke-linejoin="round" stroke-width=".39"/><path d="M295.44 37.3c0-.86-1-1.56-2.16-1.56s-2.16.7-2.15 1.56 1 1.55 2.15 1.55 2.16-.69 2.16-1.55zM296.37 40.92c0-.83-1-1.5-2.23-1.5s-2.22.67-2.22 1.5 1 1.49 2.22 1.49 2.23-.67 2.23-1.49zM299.13 36.63s-2.54 1.9-1.49 2.67 3.94-1.65 3.94-1.65zM373.79 80.25a1.54 1.54 0 00-.67-1.31 1.19 1.19 0 00-1.33 0 1.62 1.62 0 000 2.62 1.16 1.16 0 001.33 0 1.54 1.54 0 00.67-1.31zM372.82 76.62a1.41 1.41 0 10-1.39 1.63 1.53 1.53 0 001.39-1.63zM373.49 84c0-.47-.24-.85-.55-.85s-.54.38-.54.85.24.85.54.85.55-.37.55-.85zM375.73 77.41c0-.54-.24-1-.54-1s-.55.43-.55 1 .24 1 .55 1 .54-.47.54-1zM369.61 78.07c0-.43-.24-.78-.55-.78s-.54.35-.54.78.24.79.54.79.55-.35.55-.79zM370.58 83.28a1.16 1.16 0 10-1.15 1.27 1.21 1.21 0 001.15-1.27zM367.55 81a1 1 0 10-1 1.09 1 1 0 001-1.09zM367.07 77.89a.93.93 0 00-.43-.79.79.79 0 00-.84 0 .93.93 0 00-.43.79.91.91 0 00.43.79.8.8 0 00.84 0 .91.91 0 00.43-.79zM380.88 93.6c-1.25-1.65-3.26-2.35-4.48-1.56s-1.19 2.78.06 4.43 3.25 2.35 4.47 1.56 1.2-2.78-.05-4.43zM384.43 124.06c.25-2-.74-3.81-2.2-4s-2.85 1.32-3.09 3.35.75 3.81 2.21 4 2.84-1.32 3.08-3.35zM385.18 141.8c.42-2-.41-3.86-1.85-4.16s-2.95 1.07-3.37 3.07.42 3.86 1.86 4.16 2.95-1.07 3.36-3.07zM388.6 125.2a1.23 1.23 0 10-1.21 1.45 1.35 1.35 0 001.21-1.45zM385.63 128.53l-2.48 2.82s-2.33.06-2.21.82 3.21 3 3.18 3.93 2.06-.21 2.06-.21 1.66-5.06 1.66-5.09-.09-3.51-1-3.45-1.15 1.12-1.21 1.18zM222.26 127.42a1.18 1.18 0 10-1.18 1.18 1.18 1.18 0 001.18-1.18zM223.38 123.81a1.18 1.18 0 10-1.18 1.24 1.22 1.22 0 001.18-1.24zM213.67 106.63c-.44-1-1.36-1.55-2.06-1.24s-.9 1.37-.46 2.36 1.37 1.55 2.07 1.24a1.75 1.75 0 00.45-2.36zM216.61 117.33c-.61-1.29-1.88-2-2.84-1.6s-1.23 1.77-.63 3.06 1.88 2 2.84 1.6 1.23-1.77.63-3.06zM219.74 125.18c.2-1.61-.47-3.09-1.49-3.3s-2 .91-2.2 2.52.47 3.09 1.49 3.3 2.01-.92 2.2-2.52zM214.71 126.32c.63-1.49.39-3.09-.53-3.58s-2.18.33-2.81 1.83-.4 3.09.53 3.58 2.18-.33 2.81-1.83z" fill="#50d6cc"/><path d="M212.41 123a1.31 1.31 0 10-1.31 1.38 1.34 1.34 0 001.31-1.38zM211.36 119.54a1.18 1.18 0 10-1.18 1.24 1.22 1.22 0 001.18-1.24zM212.48 113c0-1.16-.52-2.1-1.15-2.1s-1.15.94-1.15 2.1.51 2.1 1.15 2.1 1.15-.97 1.15-2.1zM216 112.46c.16-1.15-.23-2.15-.86-2.23s-1.26.78-1.42 1.93.24 2.15.87 2.24 1.27-.79 1.41-1.94zM241.21 62.19c.47-1.63 0-3.26-1.08-3.66s-2.3.62-2.77 2.25 0 3.26 1.08 3.65 2.3-.61 2.77-2.24zM236.43 69.45c1.4-1.2 2-2.85 1.34-3.69s-2.34-.56-3.75.63-2 2.85-1.33 3.69 2.31.56 3.74-.63zM233.64 65.42c1.38-1 2-2.45 1.32-3.17s-2.31-.48-3.7.55-2 2.44-1.33 3.16 2.32.48 3.71-.54zM244.4 58.34c.93-.72 1.33-1.71.89-2.21s-1.56-.33-2.5.38-1.33 1.71-.89 2.21 1.56.34 2.5-.38z" fill="#50d6cc"/><path d="M238.79 65.2c.64-1 .68-2.06.1-2.38s-1.59.21-2.23 1.2-.68 2-.09 2.38 1.58-.21 2.22-1.2zM246.88 61c1-.85 1.4-2 .88-2.51S246 58.16 245 59s-1.4 2-.88 2.51 1.76.3 2.76-.51zM232.25 70.85c.94 0 1.66-.52 1.59-1s-.88-.92-1.82-.88-1.65.52-1.59 1 .88.92 1.82.88zM250 55.71c.64-1 .68-2.06.09-2.39s-1.58.21-2.22 1.2-.68 2.06-.1 2.39 1.56-.22 2.23-1.2z" fill="#50d6cc"/><path d="M319.69 61.53s5-2.29 6.38-6.55-4.29-4.3-5.07-2.98.65 4.73.29 5.62-2.38 3.05-1.62 3.88zM275.71 63.09s3.22-4.42 2.39-8.83-5.85-1.67-5.85-.12 2.86 3.82 3 4.77-.59 3.82.48 4.18zM267 65.71s3.22-4.41 2.39-8.83-5.85-1.67-5.85-.11 2.86 3.81 3 4.77-.59 3.82.48 4.17zM257.33 68.7s3.23-4.42 2.39-8.83-5.85-1.67-5.85-.12 2.87 3.82 3 4.77-.6 3.82.47 4.18zM250.53 75.5s3.23-4.42 2.39-8.83-5.85-1.67-5.85-.12 2.87 3.82 3 4.77-.6 3.82.47 4.18zM243.38 82.06s3.22-4.41 2.38-8.83-5.84-1.67-5.84-.12 2.86 3.82 3 4.78-.6 3.81.48 4.17zM259.83 43.83s-4.29 3.39-4.67 7.86 5.18 3.18 5.6 1.69-1.76-4.45-1.59-5.38 1.6-3.52.66-4.15zM274.15 39.42s-4.29 3.38-4.67 7.86 5.18 3.18 5.6 1.69-1.73-4.45-1.59-5.4 1.6-3.52.66-4.15zM220.8 78.07s.9 5.39 4.64 7.88 5.28-3 4.18-4.1-4.74-.62-5.5-1.2-2.32-3.1-3.32-2.58zM213.65 96.37s0 5.46 3.34 8.51 5.69-2.14 4.77-3.39-4.58-1.36-5.24-2-1.8-3.42-2.87-3.07zM230.14 116.81s-1.95-5.1-6.11-6.8-4.58 4-3.28 4.84 4.76-.33 5.63.09 2.88 2.58 3.76 1.87zM226.72 108s3.3-4.35 2.55-8.78-5.81-1.79-5.84-.24 2.79 3.88 2.89 4.83-.67 3.81.4 4.19zM329.84 66s5-2.29 6.38-6.55-4.3-4.31-5.05-2.95.64 4.73.28 5.62-2.38 3-1.61 3.88zM344.84 73.44s2.92-4.63 1.79-9-5.94-1.28-5.84.27 3.12 3.62 3.3 4.56-.34 3.85.75 4.14zM385.8 116s-2-5.11-6.12-6.8-4.58 4-3.27 4.84 4.76-.33 5.62.09 2.89 2.57 3.77 1.87zM365.77 119.13s.12-5.47 3.46-8.47 5.66 2.21 4.72 3.45-4.59 1.3-5.27 2-1.84 3.4-2.91 3zM362.55 61.18s-5.11-1.94-9.15 0-.06 6.08 1.43 5.67 2.93-3.77 3.82-4.13 3.84-.44 3.9-1.57zM350.86 51.4s-5.11-1.94-9.15 0-.06 6.08 1.43 5.67 2.93-3.74 3.86-4.07 3.84-.43 3.9-1.56zM333.42 42.07s-4.33 3.33-4.77 7.8 5.14 3.25 5.58 1.76-1.68-4.47-1.53-5.42 1.65-3.5.72-4.14zM322.07 39.34s-2 5.09 0 9.14 6.08.11 5.68-1.39-3.75-3-4.11-3.84-.41-3.84-1.54-3.91zM289.86 59s3.54-4.17 3-8.63-5.71-2.09-5.82-.54 2.58 4 2.63 5-.87 3.77.17 4.2z" fill="#fff" stroke="#50d6cc" stroke-linejoin="round" stroke-width=".95"/><path d="M378.25 118.66a5.17 5.17 0 00-2-3.69 2.28 2.28 0 00-3.07.39 5.71 5.71 0 001 7.75 2.28 2.28 0 003.07-.39 5.15 5.15 0 001.05-4.06z" fill="#fff" stroke="#50d6cc" stroke-width=".94"/><path d="M377.59 110.59a5.1 5.1 0 00-2-3.69 2.28 2.28 0 00-3.07.39 5.71 5.71 0 001 7.75 2.28 2.28 0 003.07-.39 5.15 5.15 0 001-4.06z" fill="#fff" stroke="#50d6cc" stroke-width=".94"/><path d="M376 102a5.16 5.16 0 00-2.34-3.5 2.3 2.3 0 00-3 .66 5.69 5.69 0 001.65 7.63 2.29 2.29 0 003-.65A5.17 5.17 0 00376 102z" fill="#fff" stroke="#50d6cc" stroke-width=".94"/><path d="M373 93a5.13 5.13 0 00-3.15-2.78 2.28 2.28 0 00-2.76 1.4 5.72 5.72 0 003.54 7 2.3 2.3 0 002.76-1.41A5.14 5.14 0 00373 93z" fill="#fff" stroke="#50d6cc" stroke-width=".94"/><path d="M369.78 85.73a5.19 5.19 0 00-3.15-2.73 2.3 2.3 0 00-2.77 1.41 5.7 5.7 0 003.54 7 2.3 2.3 0 002.77-1.4 5.21 5.21 0 00-.39-4.28z" fill="#fff" stroke="#50d6cc" stroke-width=".94"/><path d="M365.24 78.47a5.17 5.17 0 00-3.38-2.47 2.29 2.29 0 00-2.63 1.64 5.69 5.69 0 004.12 6.63A2.29 2.29 0 00366 82.6a5.14 5.14 0 00-.76-4.13z" fill="#fff" stroke="#50d6cc" stroke-width=".94"/><path d="M360.19 71.47a5.14 5.14 0 00-3.6-2.17 2.28 2.28 0 00-2.46 1.88 5.71 5.71 0 004.73 6.21 2.3 2.3 0 002.47-1.88 5.15 5.15 0 00-1.14-4.04z" fill="#fff" stroke="#50d6cc" stroke-width=".94"/><path d="M354.17 64.94a5.16 5.16 0 00-3.88-1.63 2.29 2.29 0 00-2.16 2.22 5.69 5.69 0 005.58 5.47 2.29 2.29 0 002.17-2.22 5.15 5.15 0 00-1.71-3.83z" fill="#fff" stroke="#50d6cc" stroke-width=".94"/><path d="M347.39 58.93a5.13 5.13 0 00-4-1.26 2.29 2.29 0 00-1.95 2.41 5.13 5.13 0 002.05 3.66 5.2 5.2 0 004 1.26 2.29 2.29 0 001.95-2.41 5.13 5.13 0 00-2.05-3.66z" fill="#fff" stroke="#50d6cc" stroke-width=".94"/><path d="M340.2 54.14a5.11 5.11 0 00-4.16-.58 2.29 2.29 0 00-1.52 2.7 5.68 5.68 0 006.8 3.84 2.29 2.29 0 001.52-2.7 5.11 5.11 0 00-2.64-3.26z" fill="#fff" stroke="#50d6cc" stroke-width=".94"/><path d="M332.16 49.88a5.16 5.16 0 00-4.19-.2 2.3 2.3 0 00-1.28 2.83 5.19 5.19 0 002.93 3 5.12 5.12 0 004.19.2 2.29 2.29 0 001.28-2.83 5.16 5.16 0 00-2.93-3z" fill="#fff" stroke="#50d6cc" stroke-width=".94"/><path d="M324.28 46.7a5.15 5.15 0 00-4.2.09 2.29 2.29 0 00-1.08 2.9 5.69 5.69 0 007.32 2.73 2.28 2.28 0 001.08-2.9 5.15 5.15 0 00-3.12-2.82z" fill="#fff" stroke="#50d6cc" stroke-width=".94"/><path d="M316.27 44.19a5.13 5.13 0 00-4.18.41 2.29 2.29 0 00-.86 3 5.7 5.7 0 007.51 2.15 2.28 2.28 0 00.85-3 5.13 5.13 0 00-3.32-2.56z" fill="#fff" stroke="#50d6cc" stroke-width=".94"/><path d="M307.45 42.69a5.12 5.12 0 00-4.07 1 2.29 2.29 0 00-.39 3.08 5.7 5.7 0 007.75 1 2.28 2.28 0 00.39-3.07 5.17 5.17 0 00-3.68-2.01z" fill="#fff" stroke="#50d6cc" stroke-width=".94"/><path d="M298.74 42.2a5.13 5.13 0 00-4 1.38 2.28 2.28 0 00-.13 3.1 5.7 5.7 0 007.8.31 2.27 2.27 0 00.13-3.09 5.14 5.14 0 00-3.84-1.7z" fill="#fff" stroke="#50d6cc" stroke-width=".94"/><path d="M290.76 42.48a5.1 5.1 0 00-4 1.39 2.28 2.28 0 00-.12 3.09 5.69 5.69 0 007.8.32 2.29 2.29 0 00.12-3.1 5.12 5.12 0 00-3.84-1.7z" fill="#fff" stroke="#50d6cc" stroke-width=".94"/><path d="M281.41 43.58A5.16 5.16 0 00278 46a2.29 2.29 0 00.69 3 5.71 5.71 0 007.62-1.74 2.29 2.29 0 00-.7-3 5.16 5.16 0 00-4.2-.68z" fill="#fff" stroke="#50d6cc" stroke-width=".94"/><path d="M272.91 45.72a5.12 5.12 0 00-3.26 2.65 2.3 2.3 0 00.94 3A5.71 5.71 0 00278 49a2.29 2.29 0 00-.94-3 5.14 5.14 0 00-4.15-.28z" fill="#fff" stroke="#50d6cc" stroke-width=".94"/><path d="M265.15 49a5.15 5.15 0 00-2.92 3 2.29 2.29 0 001.29 2.82 5.69 5.69 0 007.11-3.23 2.3 2.3 0 00-1.29-2.82 5.12 5.12 0 00-4.19.23z" fill="#fff" stroke="#50d6cc" stroke-width=".94"/><path d="M257.41 53a5.17 5.17 0 00-2.65 3.26 2.29 2.29 0 001.52 2.7 5.72 5.72 0 006.81-3.83 2.29 2.29 0 00-1.52-2.7 5.15 5.15 0 00-4.16.57z" fill="#fff" stroke="#50d6cc" stroke-width=".94"/><path d="M250.09 58a5.17 5.17 0 00-2.28 3.53 2.29 2.29 0 001.81 2.47 5.7 5.7 0 006.38-4.52 2.28 2.28 0 00-1.84-2.48 5.13 5.13 0 00-4.07 1z" fill="#fff" stroke="#50d6cc" stroke-width=".94"/><path d="M243.31 63.11a5.15 5.15 0 00-2 3.71 2.28 2.28 0 002 2.35 5.69 5.69 0 006-5.06 2.3 2.3 0 00-2-2.36 5.13 5.13 0 00-4 1.36z" fill="#fff" stroke="#50d6cc" stroke-width=".94"/><path d="M237.33 69.35a5.14 5.14 0 00-1.69 3.85 2.27 2.27 0 002.17 2.2 5.68 5.68 0 005.56-5.47 2.28 2.28 0 00-2.17-2.21 5.14 5.14 0 00-3.87 1.63z" fill="#fff" stroke="#50d6cc" stroke-width=".94"/><path d="M232.18 76.3a5.16 5.16 0 00-1.37 4 2.28 2.28 0 002.35 2 5.71 5.71 0 005.09-5.93 2.28 2.28 0 00-2.35-2 5.14 5.14 0 00-3.72 1.93z" fill="#fff" stroke="#50d6cc" stroke-width=".94"/><path d="M227.47 83.41a5.14 5.14 0 00-.93 4.1 2.28 2.28 0 002.55 1.75 5.17 5.17 0 003.49-2.34 5.11 5.11 0 00.93-4.09 2.28 2.28 0 00-2.51-1.76 5.21 5.21 0 00-3.53 2.34z" fill="#fff" stroke="#50d6cc" stroke-width=".94"/><path d="M223.55 91.48a5.13 5.13 0 00-.22 4.19 2.29 2.29 0 002.82 1.33 5.7 5.7 0 003.25-7.1 2.28 2.28 0 00-2.81-1.29 5.13 5.13 0 00-3.04 2.87z" fill="#fff" stroke="#50d6cc" stroke-width=".94"/><path d="M220.45 99.9a5.17 5.17 0 00.15 4.2 2.3 2.3 0 002.93 1 5.72 5.72 0 002.6-7.36 2.3 2.3 0 00-2.93-1 5.16 5.16 0 00-2.75 3.16z" fill="#fff" stroke="#50d6cc" stroke-width=".94"/><path d="M217.75 115.85a3.62 3.62 0 001.18 3.24 2.71 2.71 0 003.08.23 4 4 0 001.91-3 3.61 3.61 0 00-1.18-3.23 2.73 2.73 0 00-3.09-.23 4 4 0 00-1.9 3z" fill="#fff" stroke="#50d6cc" stroke-width=".84"/><path d="M218.47 108.41a5.13 5.13 0 00.64 4.15 2.29 2.29 0 003 .69 5.71 5.71 0 001.74-7.62 2.3 2.3 0 00-3-.69 5.16 5.16 0 00-2.38 3.47z" fill="#fff" stroke="#50d6cc" stroke-width=".94"/><path d="M371.82 104.59a2.65 2.65 0 013.05-1c-.41-2.77-1.28-3.71-2.35-3.38s-1.55 1.76-.7 4.34zM373.32 113a2.67 2.67 0 013.12-.73c-.2-2.79-1-3.79-2.09-3.54s-1.68 1.63-1 4.27zM369.78 97a2.67 2.67 0 012.7-1.71c-1.1-2.57-2.18-3.26-3.13-2.66s-1.06 2.09.43 4.37zM366.05 89.35a2.67 2.67 0 012.71-1.7c-1.1-2.58-2.19-3.27-3.13-2.67s-1.06 2.09.42 4.37zM357.13 75.41a2.66 2.66 0 012.39-2.12c-1.49-2.36-2.68-2.87-3.52-2.13s-.7 2.24 1.13 4.25zM351.3 69.34a2.66 2.66 0 012.31-2.21c-1.59-2.31-2.79-2.76-3.6-2s-.62 2.27 1.29 4.21zM339 59a2.65 2.65 0 011.52-2.81c-2.22-1.71-3.5-1.77-4-.79s.11 2.34 2.52 3.6zM345.42 63.78a2.66 2.66 0 012-2.51c-1.89-2.07-3.14-2.35-3.84-1.48s-.3 2.33 1.86 4zM331.76 55a2.65 2.65 0 011.24-3c-2.38-1.47-3.67-1.4-4.1-.37s.35 2.32 2.88 3.33zM324.32 51.73a2.66 2.66 0 01.78-3.1c-2.57-1.11-3.83-.86-4.11.22s.68 2.24 3.33 2.88zM316.3 49.24a2.66 2.66 0 01.52-3.15c-2.65-.89-3.89-.54-4.07.57s.86 2.18 3.55 2.58zM308.43 47.72a2.65 2.65 0 01.29-3.18c-2.71-.7-3.92-.26-4 .86s1 2.11 3.73 2.32zM300.09 47.08a2.67 2.67 0 010-3.2c-2.77-.41-3.92.16-3.91 1.28s1.23 2 3.95 1.92zM283.77 48.31a2.66 2.66 0 01-.81-3.09c-2.79.27-3.77 1.09-3.49 2.18s1.67 1.63 4.3.91zM291.8 47.25a2.65 2.65 0 01-.38-3.17c-2.8-.11-3.89.57-3.76 1.69s1.44 1.84 4.14 1.48zM275.88 50a2.64 2.64 0 01-1.24-2.94c-2.72.66-3.58 1.62-3.15 2.66s1.9 1.38 4.39.28zM260.78 57a2.65 2.65 0 01-1.78-2.7c-2.54 1.17-3.2 2.28-2.58 3.21s2.13 1 4.36-.56zM268.06 53.24a2.66 2.66 0 01-1.44-2.85c-2.67.85-3.46 1.86-2.95 2.86s2 1.25 4.39 0zM247.24 66.38a2.64 2.64 0 01-2.24-2.22c-2.25 1.67-2.66 2.89-1.86 3.67s2.29.53 4.15-1.45zM253.7 61.1a2.68 2.68 0 01-2.11-2.4c-2.37 1.49-2.87 2.67-2.14 3.51s2.24.71 4.25-1.11zM241.5 72a2.66 2.66 0 01-2.5-2c-2.09 1.87-2.39 3.12-1.52 3.83s2.33.32 4-1.82zM236.36 78.71a2.65 2.65 0 01-2.66-1.77c-1.91 2-2.09 3.32-1.16 4s2.34.11 3.82-2.18zM232.06 85.54a2.66 2.66 0 01-2.9-1.34c-1.57 2.32-1.56 3.6-.55 4.07s2.34-.25 3.45-2.73zM228.28 92.83a2.67 2.67 0 01-3.06-1c-1.25 2.51-1.07 3.78 0 4.12s2.28-.55 3.06-3.16zM225.25 100.31a2.65 2.65 0 01-3.16-.46c-.84 2.67-.46 3.9.64 4.06s2.17-.9 2.52-3.6zM223.23 108.65a2.67 2.67 0 01-3.19-.25c-.66 2.72-.2 3.92.92 4s2.09-1 2.27-3.76zM222.4 115.59a3.22 3.22 0 01-3.18.23c-.37 2.22.22 3.1 1.33 3s2-1.11 1.85-3.25zM362.73 82.57a2.67 2.67 0 012.43-2.08c-1.46-2.39-2.64-2.91-3.49-2.18s-.73 2.22 1.06 4.26zM374.24 121.42a2.66 2.66 0 013.11-.73c-.2-2.79-1-3.79-2.09-3.54s-1.68 1.63-1 4.27z" fill="#50d6cc"/><path d="M356.66 85.72s2.92-4.62 1.79-9-5.95-1.27-5.84.27 3.11 3.62 3.29 4.57-.34 3.85.76 4.13z" fill="#fff" stroke="#50d6cc" stroke-linejoin="round" stroke-width=".95"/><path d="M363.28 76s-3.17 3.13-2.63 6.94 3 8.51 2.52 12.46a48 48 0 01-1.15 6.57s3.67-4.19 3.71-8.2-2.52-9.3-2.52-12.26.13-5.58.07-5.51zM369.1 88.76s-2.45 1.8-2.22 5.95 4.53 11.78 4.53 11.78 3.13 6.44 3 8.1.58-1.6.27-5.27-5-11.78-5-11.78a8.37 8.37 0 01-.92-4.43c.1-2.75.37-4.32.34-4.35z" fill="#fff" stroke="#50d6cc" stroke-linejoin="round" stroke-width=".76"/><path d="M300.91 47.29s10.52.41 10.59 7.22a44.37 44.37 0 01-.38 5.35 7.09 7.09 0 003.2-6.27c0-6.91-9.39-11.64-13.41-6.3z" fill="#fff" stroke="#50d6cc" stroke-linejoin="round" stroke-width=".95"/><path d="M294.24 47s8.48-1.77 8.54 5-2.68 7.89-2.68 7.89 6.5-1.39 6.53-8.3-8.37-10-12.39-4.63zM376.58 125c.19 3.06 3.18 6 2 11.31-1.49 6-6.75 20.41-5.84 22.94-1.56-2.14-1.3-4.16-1.43-7.15s4.35-14.1 4.74-17.87a86.43 86.43 0 01.52-9.23z" fill="#fff" stroke="#50d6cc" stroke-linejoin="round" stroke-width=".95"/><path d="M376.58 125.07s4.87 6.17 4.61 11.05-3 10.59-2.08 13.13c-1.56-2.15-1.95-3.51-2.08-6.5s2.41-6.31 1.89-9.56a65.47 65.47 0 00-2.34-8.12zM216.91 126.43c-.19 3.06-2.47 5.79-1.3 11.11 1.5 6.05 6.83 13.72 6 22.49 1.56-2.14 2-4.55 2.15-7.54s-5.92-13.06-6.31-16.83a86.43 86.43 0 00-.52-9.23z" fill="#fff" stroke="#50d6cc" stroke-linejoin="round" stroke-width=".95"/><path d="M216.91 126.5s-4.74 6-4.48 10.85c.06 3.25 6 16.83 5.13 19.37 1.56-2.15 2-1.89 1.95-5.14-1.75-8.31-4.87-13.64-4.35-16.89s1.82-8.19 1.75-8.19z" fill="#fff" stroke="#50d6cc" stroke-linejoin="round" stroke-width=".95"/><path d="M309.09 67.92s8.47.53 8.88 5.39a11.42 11.42 0 01-2 7.82s1.07 10.48-7.22 13.56c-8.89 1.07-22.8.24-22.8.24s-4.09 1-5.75-7.47A140.2 140.2 0 01278.06 73s.83-4.74 6.81-5 24.16.06 24.22-.06z" fill="#fff" stroke="#50d6cc" stroke-width=".76"/><path d="M315.9 81.07s-4.56 5.68-4.09 8" fill="none" stroke="#50d6cc" stroke-linecap="round" stroke-width=".76"/><path d="M309.8 94.39c1.13 1 2.19 2 2.43 5.51s.47 7 .47 7l5.93 53.3 5.21 38.55.35 6s-1.24 4.38-4.74 4.74c-2.54 5.33-16.34 6.87-17.7 6.81s-5.63-1.9-8.29-1.66-7.29 2-9.36 1.72-6.75-1.9-7.58-5.27c-5.8-1.84-6.75-6.28-6.75-6.28l6.28-44.59 6.1-56.38s.71-7.52 3.73-8.65c3.14-.29 19.36.3 23.92-.77z" fill="#fff" stroke="#50d6cc" stroke-width=".76"/><path d="M277.82 171.56L276.58 211M316.14 176.77l3.49 32.51" fill="none" stroke="#50d6cc" stroke-width=".76"/><path d="M298 71.83l11.81 36.34H348l-30.92 22.47 11.8 36.36L298 144.52 267.05 167l11.81-36.34L248 108.17h38.21z" fill="#fff" stroke="#50d6cc" stroke-linejoin="round" stroke-width=".8"/><path fill="none" stroke="#a3a3a3" stroke-linecap="round" stroke-linejoin="round" stroke-dasharray="5 5" d="M50.55 1.71H20.63v109.01M48.72 248.93H20.63V141.44"/><path d="M5.71 119.89v6.63h1.36v1H5.71v2.92H4.48v-2.93H.21v-.88l4.5-6.79zm-4.33 6.63h3.11v-4.74zM15.53 125.38c0 3.64-1.81 5.3-3.35 5.3s-3.44-2-3.44-5.4 1.74-5.45 3.42-5.45 3.37 1.93 3.37 5.55zm-3.39-4.51c-1.05 0-2.29 1.5-2.29 4.2a8.08 8.08 0 00.24 2l3.72-4.83c-.45-.93-1.09-1.37-1.67-1.37zm-1.66 7.28c.46.93 1.11 1.45 1.74 1.45.93 0 2.21-1.13 2.21-4.09a9.27 9.27 0 00-.22-2.12zM29.8 122.72v6.79h1.82v1h-5v-1h2v-5.79h-1.93v-1zm.3-2.5a.89.89 0 11-.89-.88.88.88 0 01.89.88zM34.55 122.73h1.24v1.37a3.24 3.24 0 012.58-1.56 2.23 2.23 0 012.07 1.37 4.42 4.42 0 01.28 1.87v4.71h-1.2v-4.68a2.54 2.54 0 00-.42-1.71 1.36 1.36 0 00-1.06-.5 2.64 2.64 0 00-1.86 1.09 2 2 0 00-.39 1.33v4.47h-1.24z"/><path fill="none" stroke="#a3a3a3" stroke-linecap="round" stroke-linejoin="round" stroke-dasharray="5 5" d="M246.89 216.36h334.06v-59.05M248.72 67.92h332.23v59.66"/><path d="M562.16 138.42a3 3 0 013.07 3 4.72 4.72 0 01-1.87 3.34 14.21 14.21 0 00-2.88 3.31h4.45a.23.23 0 00.18-.07.25.25 0 01.23-.08v1.19h-6.22v-.75a12.61 12.61 0 013.07-3.94c.77-.69 1.86-1.62 1.86-2.91a2 2 0 00-2-2 2.21 2.21 0 00-1.81 1c-.09.14 0 .25-.14.39l-.87-.69a3.45 3.45 0 012.93-1.79zM572.69 138.48v6.63h1.37v1h-1.37v2.92h-1.23v-2.93h-4.27v-.88l4.51-6.79zm-4.32 6.63h3.11v-4.74zM588.28 141.31v6.79h1.82v1h-5v-1h2v-5.79h-1.88v-1zm.3-2.5a.88.88 0 11-.88-.88.88.88 0 01.88.88zM593 141.32h1.25v1.37a3.22 3.22 0 012.58-1.56 2.22 2.22 0 012.06 1.37 4.43 4.43 0 01.29 1.87v4.71H598v-4.68a2.54 2.54 0 00-.42-1.71 1.34 1.34 0 00-1.05-.5 2.65 2.65 0 00-1.87 1.09 2 2 0 00-.38 1.33v4.47H593zM286.06 295.08v.66q-1.08 2.44-2 5c-.61 1.64-1.18 3.29-1.69 5H281c.63-1.91 1.31-3.79 2-5.66.49-1.28 1-2.55 1.54-3.8h-4.53v-1.13zM294.37 297.45a3 3 0 01-1.69 2.56 3.34 3.34 0 012 2.92 3.05 3.05 0 01-3.26 2.91 3 3 0 01-3.22-2.84 3.46 3.46 0 012.12-3 2.82 2.82 0 01-1.61-2.48 2.73 2.73 0 012.86-2.61 2.63 2.63 0 012.8 2.54zm-4.91 5.4a2 2 0 002.06 1.92 1.91 1.91 0 002-1.85 2.82 2.82 0 00-2.27-2.4 2.71 2.71 0 00-1.79 2.33zm.43-5.4c0 1.4 1.86 2.13 1.86 2.13a2.53 2.53 0 001.46-2.05 1.63 1.63 0 00-1.69-1.59 1.56 1.56 0 00-1.63 1.51zM309.13 297.89v6.79H311v1h-5v-1h2v-5.79h-2v-1zm.3-2.5a.88.88 0 11-.88-.87.88.88 0 01.88.87zM313.88 297.91h1.25v1.36a3.24 3.24 0 012.58-1.55 2.21 2.21 0 012.06 1.37 4.39 4.39 0 01.29 1.87v4.71h-1.21V301a2.57 2.57 0 00-.42-1.72 1.36 1.36 0 00-1.05-.49 2.64 2.64 0 00-1.87 1.08 2 2 0 00-.38 1.33v4.48h-1.25z"/><path fill="none" stroke="#a3a3a3" stroke-linecap="round" stroke-linejoin="round" stroke-dasharray="5 5" d="M57.64 258.46v42.04h210.02M539.72 258.46v42.04H332.96"/><path d="M282.31 278.17h-1.19V269l-2.12.63-.28-.66 2.77-1.45h.82zM292.92 268.41l-.82.91c-.15-.11-.15-.27-.25-.38a1.93 1.93 0 00-1.24-.44c-.76 0-2.51.47-2.57 4.1a2.59 2.59 0 012.24-1.28c1.5 0 2.91 1.26 2.91 3.47s-1.42 3.54-3 3.54a3 3 0 01-2.5-1.41 6.47 6.47 0 01-.8-3.59 10.48 10.48 0 01.45-3.26 3.55 3.55 0 013.29-2.63 3.34 3.34 0 012.29.97zm-4.82 5.37c-.14 2 .82 3.5 2.12 3.5.89 0 1.81-.78 1.81-2.43 0-1.83-1-2.49-1.86-2.49a2.51 2.51 0 00-2.07 1.42zM307.63 270.38v6.79h1.82v1h-5v-1h2v-5.79h-1.88v-1zm.3-2.5a.88.88 0 11-.88-.87.88.88 0 01.88.87zM312.38 270.4h1.25v1.36a3.22 3.22 0 012.58-1.56 2.22 2.22 0 012.06 1.37 4.46 4.46 0 01.29 1.88v4.7h-1.21v-4.67a2.57 2.57 0 00-.42-1.72 1.33 1.33 0 00-1.05-.49 2.64 2.64 0 00-1.87 1.08 2 2 0 00-.38 1.33v4.47h-1.25zM371 271.85l-.53.59c-.1-.08-.1-.18-.16-.25a1.3 1.3 0 00-.81-.29c-.49 0-1.62.31-1.66 2.66a1.67 1.67 0 011.45-.83 2 2 0 011.88 2.25 2.08 2.08 0 01-1.95 2.29 2 2 0 01-1.62-.91 4.22 4.22 0 01-.52-2.33 6.72 6.72 0 01.29-2.11 2.31 2.31 0 012.13-1.7 2.13 2.13 0 011.5.63zm-3.12 3.48c-.09 1.28.53 2.26 1.37 2.26.58 0 1.18-.5 1.18-1.58s-.66-1.61-1.21-1.61a1.62 1.62 0 00-1.33.93zM380.53 273.12v4.4h1.18v.63h-3.26v-.63h1.28v-3.75h-1.21v-.65zm.19-1.62a.56.56 0 01-.57.57.57.57 0 110-1.13.56.56 0 01.57.56zM383.6 273.13h.81v.87a2.08 2.08 0 011.67-1 1.44 1.44 0 011.34.89 2.83 2.83 0 01.18 1.21v3h-.78v-3a1.65 1.65 0 00-.27-1.11.87.87 0 00-.69-.32 1.69 1.69 0 00-1.2.7 1.25 1.25 0 00-.25.86v2.89h-.81z"/><path fill="none" stroke="#a3a3a3" stroke-linecap="round" stroke-linejoin="round" stroke-dasharray="5 5" d="M247.8 68.24v204.75h18.59M348.8 68.24v204.75h-17.34M362.59 68.24v204.75M391.56 68.24v204.75"/></svg>