<svg xmlns="http://www.w3.org/2000/svg" width="600" height="416" viewBox="0 0 600 416"><title>flag-usvi-dimensions</title><rect x="26.13" y="1.21" width="570.63" height="380.42" fill="#fff" stroke="#50d6cc" stroke-linecap="round" stroke-linejoin="round"/><path d="M204.14,258.77s-.46-3.13,5.48-5.42,6.4-10.85,5.21-16.55c0,0-3.1,5.43-6.86,7.23,0,0-6.14,3.2-6.42,9.31a20.28,20.28,0,0,1-.51,4c-.26.95-3-7.65,2.17-14,5.32-6.6,6.8-12,2.58-22.39,0,0-.4,6.33-4.56,10s-4.68,3.89-4.62,12.51c0,0,.07,3-1.52,4,0,0-3.23-4.73-4.09-7.85s-1.25-4.45,2.44-8.07c0,0,11.85-7.65,3.3-24.4,0,0-.26,5.77-4.35,9.18s-3.77,5.7-4,11.61-.6,5.49-1.06,6.32c0,0-7.53-13.83-1.72-21.2s9-8.9,2.64-22.6c0,0,.29,7-4.84,10.5s-3.93,11.61-3.93,11.61a11.54,11.54,0,0,1-.73,5.29s-7.25-14.15-.33-21.76c5.87-6.47,6.27-11,3.1-20.16,0,0-.39,4.24-3.63,6.53s-5.81,4.59-5.21,13.42c0,0,.26,6.18-.53,7.92,0,0-3-5.63-3.9-9.31s-1.18-5.84,1.06-9.53,11.16-14.25.53-29.47a23.18,23.18,0,0,1-3,9.38c-2.7,4.45-1.45,9.73-.86,13.77a14.92,14.92,0,0,1-1.38,7.92S160,177.92,161,168.19s-3-17.73-11.95-23.5c0,0-6.54,15.16,2.38,22.87,0,0,7.59,7.51,9.5,16.62,0,0-5.74-.56-11-10.71s-16-8.55-16.76-8.62A24.87,24.87,0,0,0,151.59,185s10.63,1.81,12.61,9.6c0,0,1.78,5.35,2.51,8.2,0,0-3.37-1.32-6.47-5.91s-2.71-5.15-13.2-6.19c0,0-4.23-.48-6.47-3.47,0,0,4.42,16.61,15.78,16.47,0,0,10.36-1.11,16.17,12.52,0,0-1.12-.7-2.64-1.74s-5.35-3-12.94-2.09-9.7-.35-11.62-1c0,0,7.66,14,18.48,9.87s16.06,11,16.18,11.33a41.05,41.05,0,0,1-3.37-3c-1.91-1.88-5.89-4.19-13.4-1.81a18.6,18.6,0,0,1-10.89.42,17.25,17.25,0,0,0,17.62,8.48c12.35-1.74,15.45,9.11,15.45,9.11a27,27,0,0,1-2.77-1.88c-1.12-.9-5.28-3.26-14.19-.62s-12.15-.42-12.15-.42,4.95,9,14.46,10.08c0,0,5.28-.07,7.52-.9s8.19-2.16,12.28,3.75a5.24,5.24,0,0,1-2.84-.56S181.36,253,176.54,257c0,0-4.29,4.38-10.36,3.55,0,0,7.86,7.64,20.33,1.18,0,0,4.23-3.06,7.33-.7S204.14,258.77,204.14,258.77Z" fill="#fff" stroke="#50d6cc" stroke-miterlimit="10" stroke-width="1.34"/><path d="M273.58,70.37s-1.45-12.93,8.89-14.18c10.78-1.3,16.11,1,16.11,1l4.84,9.5-1.67,6.39-6.69,3.06s1.14-9.82-7.87-10c-2.28,0-3.62.85-7.23.28S274.39,69.78,273.58,70.37Z" fill="none" stroke="#50d6cc" stroke-miterlimit="10" stroke-width="1.34"/><path d="M346.33,102.4c-1.54,2-7.71,2.69-7.71,2.69s6.34,4.86,9.07,11.82-73.45,0-73.45,0a20.22,20.22,0,0,0,5.55-6.81s-3.37,1.25-6.74-2.09c0,0,2.51.84,5.81-4.17,0,0,4.89-6.25,8.32-7.92,0,0-1.58,1-5.41-1.12,0,0,6.6-.83,9-12.09a16.73,16.73,0,0,1,2.91-6.12c2.51-3.61,2,.7,6.6-4.87,0,0,2.11-3.94.26-6.35s-3.82-1.52-7.7-3.84-5.59-3.62-4.27-7.19a4.72,4.72,0,0,1,5.24-3c.48,0,.75-3.1,5-5.24s15.45-1.2,17.12-.27,8.45,2.92,12.41,12.93-1,13.76,9.73,28.87c0,0-4.31.93-7.09.09C330.92,87.75,336.51,97.67,346.33,102.4Z" fill="#fff" stroke="#50d6cc" stroke-miterlimit="10" stroke-width="1.34"/><path d="M299.19,60.15c-8.78-.41-5.41-8.78-5.41-8.78" fill="none" stroke="#50d6cc" stroke-miterlimit="10" stroke-width="1.34"/><path d="M314.44,61.3a8.61,8.61,0,0,1-2.86-2.47c-1.84-2.43-5.95-3.61-8.16-1.32,0,0-2.25,2.51-4.23,2.64a11.43,11.43,0,0,1,3.8,2.13c1.55,1.42,3.17,2.46,5.48,2.15s2.67-1.53,3.76-2.26A5.69,5.69,0,0,1,314.44,61.3Z" fill="none" stroke="#50d6cc" stroke-miterlimit="10" stroke-width="1.34"/><path d="M371.54,186.33s8.19,6.68,15,0c0,0,2.77,3.34,8.32,2.37s6.47-3.9,7-5.57c0,0,4.79,2.8,8.84.59s4.05-5.54,4.05-5.54,7,1.38,10.65-3.39,1.41-9.5-.53-10.06c0,0,7.62,2,9.68-4.54a7.47,7.47,0,0,0-2.2-8.43s16.05-.08,22.62-5.1c0,0,5.46-3.43,2.21-7,0,0,14.43-2.32,18-8.07a5,5,0,0,0,1.05-4.36,1.75,1.75,0,0,0-1.67-1.66s16.46-2.55,21.21-8a6.14,6.14,0,0,0,1.15-5.84,5.86,5.86,0,0,0-.64-1.47s15-3.16,22.38-9.83c0,0,4.26-3.81,2.06-8.9,0,0,25.05-6.86,19.24-17.89,0,0,11.7-3.8,8-14.37,0,0,9.68-4.91,5.45-12.7-4-7.45-16.46,1.3-31.16,5.37,0,0-39.78,12.52-59.37,15.85l-55.66,82.88-32.48,12.51Z" fill="none" stroke="#50d6cc" stroke-miterlimit="10" stroke-width="1.34"/><path d="M371.15,125.29s5.21-3.91,14.52.7c0,0,3.13,2.16,5.6-.21a5,5,0,0,0-.58-7.72c-6.94-5.14-9.51-20.57,1.05-27,0,0,15.32-9.08,71.47-23.37,0,0,4.71-1.31,7.22-.68a7,7,0,0,1,5.05,5.08s2.52,7.14-5.93,11.23a62.57,62.57,0,0,1-7.75,2.87A5.53,5.53,0,0,1,468,89.56c1.76,4.08-.79,8.25-8.71,10.94a45.58,45.58,0,0,1-5.19,1.57s6.77,2,3.52,7.42c0,0-2.91,5.75-13.16,6.77,0,0,7.66.83,2.24,8.11,0,0-2.37,4-9.85,5.47,0,0,5.67.18,2.81,5.28s-9.59,8-16.21,8.43a27.71,27.71,0,0,1-6.1-.37s6.29,3.16,2.6,8.44c0,0-2.73,3.75-9.55,3.57,0,0,1.77,5.9-3.24,8.13a7.07,7.07,0,0,1-7.13-1s1.32,6.32-4.35,8.55a9.52,9.52,0,0,1-7.07,0s-3.23,7.23-14.72,2.15S371.15,125.29,371.15,125.29Z" fill="#fff" stroke="#50d6cc" stroke-miterlimit="10" stroke-width="1.34"/><path d="M548.06,59.25S530,69.7,473.82,80.14" fill="none" stroke="#50d6cc" stroke-width="1.34"/><path d="M225.82,244s-6.69,11.49-14.79,11.68c0,0-13.92-1.7-17.86,1.94-2.75,2.54-5.55,4.64-6.69,11.13s2.2,7.88,3,8.15c0,0,.62,4.64,5.19,3.43,0,0,.27,4.82,8.36,2.51s11.45-1.58,13-9.64,3-7.94,4.49-8.9c1.94-1.3,5.57-2.53,8.27-4.08,2.43-1.4,11.71-6.12,14.88-6.49s2.46-11,2.46-11H238l-4-5.84Z" fill="#fff" stroke="#50d6cc" stroke-miterlimit="10" stroke-width="1.34"/><path d="M540.05,73.62s-48.84,15.93-71.58,17.89" fill="none" stroke="#50d6cc" stroke-width="1.34"/><path d="M520.81,91.51a525.87,525.87,0,0,1-62.19,14.66" fill="none" stroke="#50d6cc" stroke-width="1.34"/><path d="M496.37,110.24S464,118,448.55,119.31" fill="none" stroke="#50d6cc" stroke-width="1.34"/><path d="M474.65,125.53s-27.38,5.71-34.31,6.39" fill="none" stroke="#50d6cc" stroke-miterlimit="10" stroke-width="1.34"/><polygon points="443.83 167.16 445.2 210.61 445.2 210.61 437.54 206.16 437.54 206.16 424.76 261.29 419.5 257.5 431.93 204.69 431.93 204.69 423.26 204.84 423.26 204.84 443.83 167.16" fill="#fff" stroke="#50d6cc" stroke-miterlimit="10" stroke-width="1.34"/><path d="M457.22,139.62s-20,3-27.93,2.87" fill="none" stroke="#50d6cc" stroke-miterlimit="10" stroke-width="1.34"/><path d="M432.4,151.76s-8.07-.38-12-1" fill="none" stroke="#50d6cc" stroke-miterlimit="10" stroke-width="1.34"/><path d="M424.92,164.74s-6.86-1.86-10.91-4.45" fill="none" stroke="#50d6cc" stroke-miterlimit="10" stroke-width="1.34"/><path d="M414.8,178.18a15.73,15.73,0,0,1-7.83-7.61" fill="none" stroke="#50d6cc" stroke-miterlimit="10" stroke-width="1.34"/><path d="M401.91,183.13s-4.1-3.66-4.36-7.74" fill="none" stroke="#50d6cc" stroke-miterlimit="10" stroke-width="1.34"/><polygon points="493.45 186.48 475.29 225.52 475.29 225.52 470.5 217.8 470.5 217.8 432.18 263.09 428.03 258.44 466.21 213.72 466.21 213.72 458.49 209.58 458.49 209.58 493.45 186.48" fill="#fff" stroke="#50d6cc" stroke-miterlimit="10" stroke-width="1.34"/><path d="M386.59,186.33s1.53-1.32.49-7.07" fill="none" stroke="#50d6cc" stroke-miterlimit="10" stroke-width="1.34"/><polygon points="476.89 157.83 467.54 200.16 467.54 200.16 461.22 193.78 461.22 193.78 426.92 259.74 421.63 256.65 456.17 190.82 456.17 190.82 447.75 188.62 447.75 188.62 476.89 157.83" fill="#fff" stroke="#50d6cc" stroke-miterlimit="10" stroke-width="1.34"/><path d="M388.57,170.83a8.58,8.58,0,0,0,.53-4.24" fill="none" stroke="#50d6cc" stroke-miterlimit="10" stroke-width="1.34"/><path d="M251.6,186.33s-8.18,6.68-15,0c0,0-2.77,3.34-8.32,2.37s-6.47-3.9-7-5.57c0,0-4.8,2.8-8.85.59s-4-5.54-4-5.54-7,1.38-10.65-3.39-1.41-9.5.53-10.06c0,0-7.61,2-9.68-4.54a7.49,7.49,0,0,1,2.2-8.43s-16-.08-22.62-5.1c0,0-5.46-3.43-2.2-7,0,0-14.44-2.32-18-8.07a5,5,0,0,1-1.05-4.36,1.76,1.76,0,0,1,1.67-1.66s-16.46-2.55-21.21-8a6.14,6.14,0,0,1-1.15-5.84,6.3,6.3,0,0,1,.64-1.47s-15-3.16-22.38-9.83c0,0-4.26-3.81-2.06-8.9,0,0-25-6.86-19.24-17.89,0,0-11.7-3.8-8-14.37,0,0-9.69-4.91-5.46-12.7,4-7.45,16.46,1.3,31.16,5.37,0,0,39.78,12.52,59.37,15.85l55.66,82.88,32.48,12.51Z" fill="none" stroke="#50d6cc" stroke-miterlimit="10" stroke-width="1.34"/><path d="M417.44,88.54s-9.24,3.71-12.32,8.81-1.05,10.05,0,12.89c.53,1.43,7,14-.62,23.07" fill="none" stroke="#50d6cc" stroke-miterlimit="10" stroke-width="1.34"/><path d="M252,125.29s-5.22-3.91-14.53.7c0,0-3.13,2.16-5.59-.21a5,5,0,0,1,.58-7.72c6.93-5.14,9.5-20.57-1.06-27,0,0-15.31-9.08-71.47-23.37,0,0-4.71-1.31-7.21-.68a7,7,0,0,0-5.06,5.08s-2.51,7.14,5.94,11.23a62.07,62.07,0,0,0,7.74,2.87,5.53,5.53,0,0,0-6.16,3.34c-1.76,4.08.79,8.25,8.71,10.94a47.36,47.36,0,0,0,5.2,1.58s-6.78,1.94-3.52,7.41c0,0,2.9,5.75,13.15,6.77,0,0-7.65.83-2.24,8.11,0,0,2.38,4,9.86,5.47,0,0-5.68.18-2.82,5.28s9.59,8,16.22,8.43a27.61,27.61,0,0,0,6.09-.37s-6.29,3.16-2.59,8.44c0,0,2.73,3.75,9.55,3.57,0,0-1.77,5.9,3.23,8.13a7.07,7.07,0,0,0,7.13-1s-1.32,6.33,4.36,8.55a9.5,9.5,0,0,0,7.06,0s3.24,7.23,14.72,2.15S252,125.29,252,125.29Z" fill="#fff" stroke="#50d6cc" stroke-miterlimit="10" stroke-width="1.34"/><path d="M417.31,143.18s0,0-3.3-1.06" fill="none" stroke="#50d6cc" stroke-miterlimit="10" stroke-width="1.34"/><path d="M436.81,129.84A66.1,66.1,0,0,1,425.89,131" fill="none" stroke="#50d6cc" stroke-miterlimit="10" stroke-width="1.34"/><path d="M444.42,116.26a124.81,124.81,0,0,1-12.54.55" fill="none" stroke="#50d6cc" stroke-miterlimit="10" stroke-width="1.34"/><path d="M454.06,102.07s-9.33,1.86-14.35,2" fill="none" stroke="#50d6cc" stroke-miterlimit="10" stroke-width="1.34"/><path d="M461.8,86.22a175.84,175.84,0,0,1-20.07,4.45" fill="none" stroke="#50d6cc" stroke-miterlimit="10" stroke-width="1.34"/><path d="M422.72,97.44s8.28,7.69-1.67,14.83c0,0,4.14,6.49-4.14,13.26" fill="none" stroke="#50d6cc" stroke-miterlimit="10" stroke-width="1.34"/><path d="M252.68,191s-1.69,9.05-15.05,20.44c0,0-10.31,9.1-10,19.57.27,10.67-1.85,11.86-5.9,15.48,0,0,8.37.65,12.41-4.91,0,0-.17,9.27-1.4,10.1,0,0,2.62.17,6.42-4a17.19,17.19,0,0,1,4.4-3.33s-2.46,6.39-.53,12.33c0,0,.62-2.32,3.88-3.34,0,0,5.89-1.21,8.18-9.73,0,0,1.5-5.66,10.74-10.66,0,0,10.47-4,10.21-9.12S252.68,191,252.68,191Z" fill="#fff" stroke="#50d6cc" stroke-miterlimit="10" stroke-width="1.34"/><path d="M419.11,128.72s1.24,12.38-13.9,12.38c0,0,2.9,11-11.71,10.66,0,0-1.67,8.8-12.23,7" fill="none" stroke="#50d6cc" stroke-miterlimit="10" stroke-width="1.34"/><path d="M397.34,244s6.69,11.49,14.78,11.68c0,0,13.93-1.7,17.87,1.94,2.75,2.54,5.55,4.64,6.69,11.13s-2.2,7.88-3,8.15c0,0-.62,4.64-5.2,3.43,0,0-.26,4.82-8.36,2.51s-11.44-1.58-13-9.64-3.05-7.94-4.49-8.9c-1.94-1.3-5.58-2.53-8.28-4.08-2.42-1.4-11.7-6.12-14.87-6.49s-2.47-11-2.47-11h8.19l4-5.84Z" fill="#fff" stroke="#50d6cc" stroke-linecap="round" stroke-linejoin="round"/><path d="M370.48,191s1.69,9.05,15,20.44c0,0,10.31,9.1,10.05,19.57-.27,10.67,1.85,11.86,5.89,15.48,0,0-8.36.65-12.41-4.91,0,0,.18,9.27,1.41,10.1,0,0-2.62.17-6.42-4a17.19,17.19,0,0,0-4.4-3.33s2.46,6.39.52,12.33c0,0-.61-2.32-3.87-3.34,0,0-5.9-1.21-8.18-9.73,0,0-1.5-5.66-10.74-10.66,0,0-10.48-4-10.21-9.12S370.48,191,370.48,191Z" fill="#fff" stroke="#50d6cc" stroke-miterlimit="10" stroke-width="1.34"/><path d="M404.53,255.67a26.87,26.87,0,0,0,7.59,0" fill="none" stroke="#50d6cc" stroke-miterlimit="10" stroke-width="1.34"/><path d="M426.73,262.16s7.31-1.12,7,14.73" fill="none" stroke="#50d6cc" stroke-miterlimit="10" stroke-width="1.34"/><path d="M422.33,265.77s6.6-.83,6.16,14.55" fill="none" stroke="#50d6cc" stroke-miterlimit="10" stroke-width="1.34"/><path d="M358.61,228.69a10.85,10.85,0,0,1,5.37,3.15c2.2,2.51,6.42,2,6.42,2s-2.28-1.85-3.08-6.48-3.34-6-3.34-6" fill="none" stroke="#50d6cc" stroke-width="1.34"/><path d="M371.54,217a10.85,10.85,0,0,1,5.37,3.15c2.2,2.51,6.42,2,6.42,2s-2.29-1.85-3.08-6.49-3.34-6-3.34-6" fill="none" stroke="#50d6cc" stroke-width="1.34"/><path d="M373.72,235a9.48,9.48,0,0,1,4.68,2.75c1.93,2.19,5.61,1.79,5.61,1.79s-2-1.62-2.68-5.67-2.93-5.26-2.93-5.26" fill="none" stroke="#50d6cc" stroke-width="1.34"/><path d="M321.93,307.67s2.4,10.59,10.74,9.73c0,0,5.9-.56,5.46-10.38,0,0,8.71,4.63,10.12-6.86,0,0,7.92,1.85,7.83-8.9,0,0,7.4,1.3,6.52-8.25,0,0,8,2.13,8-6.86,0,0,18.74-3.11-20.34-38.74l-34.85,20.76Z" fill="#fff" stroke="#50d6cc" stroke-linecap="round" stroke-linejoin="round"/><path d="M318.06,260.15s5.81,5.16,9.95-2.54c0,0,5.63-.27,6.51-4.54,0,0,4.58-.46,5.46-4.82,0,0,6.25-.65,6.07-5.93,0,0,11.36-.88,0-13.74s-30.63,21.34-30.63,21.34Z" fill="#fff" stroke="#50d6cc" stroke-linecap="round" stroke-linejoin="round"/><path d="M338.13,307s-.88-18.63-17-45.33" fill="none" stroke="#50d6cc" stroke-miterlimit="10" stroke-width="1.34"/><path d="M348.25,300.16s2.51-10.75-20.24-42.55c0,0,2.64-7.6-5.46-12.46" fill="none" stroke="#50d6cc" stroke-miterlimit="10" stroke-width="1.34"/><path d="M356.08,291.26s.71-11.63-21.56-38.19c0,0,2-6.86-6.1-12.33" fill="none" stroke="#50d6cc" stroke-miterlimit="10" stroke-width="1.34"/><path d="M362.6,283s-.84-11.77-22.62-34.76c0,0,1.09-7-6.72-11.4" fill="none" stroke="#50d6cc" stroke-miterlimit="10" stroke-width="1.34"/><path d="M370.61,276.15s-1.59-13.44-24.56-33.83c0,0,.79-5.28-6.87-10.66" fill="none" stroke="#50d6cc" stroke-miterlimit="10" stroke-width="1.34"/><path d="M301.22,307.67s-2.39,10.59-10.73,9.73c0,0-5.9-.56-5.46-10.38,0,0-8.71,4.63-10.12-6.86,0,0-7.92,1.85-7.84-8.9,0,0-7.39,1.3-6.51-8.25,0,0-8,2.13-8-6.86,0,0-18.74-3.11,20.33-38.74l34.86,20.76Z" fill="#fff" stroke="#50d6cc" stroke-linecap="round" stroke-linejoin="round"/><path d="M305.1,260.15s-5.81,5.16-10-2.54c0,0-5.63-.27-6.51-4.54,0,0-4.58-.46-5.46-4.82,0,0-6.25-.65-6.07-5.93,0,0-11.36-.88,0-13.74s30.63,21.34,30.63,21.34Z" fill="#fff" stroke="#50d6cc" stroke-linecap="round" stroke-linejoin="round"/><path d="M285,307s.88-18.63,17-45.33" fill="none" stroke="#50d6cc" stroke-miterlimit="10" stroke-width="1.34"/><path d="M274.91,300.16s-2.51-10.75,20.24-42.55c0,0-2.64-7.6,5.46-12.46" fill="none" stroke="#50d6cc" stroke-miterlimit="10" stroke-width="1.34"/><path d="M311.58,257c5.63,0,12,35.18,10.35,56.37-.6,7.7-4.72,14-10.35,14s-9.76-6.29-10.36-14C299.57,292.14,306,257,311.58,257" fill="#fff" stroke="#50d6cc" stroke-linecap="round" stroke-linejoin="round"/><path d="M267.07,291.26s-.7-11.63,21.57-38.19c0,0-2-6.86,6.1-12.33" fill="none" stroke="#50d6cc" stroke-miterlimit="10" stroke-width="1.34"/><path d="M260.56,283s.84-11.77,22.62-34.76c0,0-1.09-7,6.72-11.4" fill="none" stroke="#50d6cc" stroke-miterlimit="10" stroke-width="1.34"/><ellipse cx="311.58" cy="256.69" rx="7.79" ry="11.54" fill="#fff" stroke="#50d6cc" stroke-linecap="round" stroke-linejoin="round"/><path d="M252.55,276.15s1.59-13.44,24.56-33.83c0,0-.79-5.28,6.86-10.66" fill="none" stroke="#50d6cc" stroke-miterlimit="10" stroke-width="1.34"/><path d="M311.58,254.17s66.08-29.29,66.25-97H245.33C245.49,224.88,311.58,254.17,311.58,254.17Z" fill="#fff" stroke="#50d6cc" stroke-miterlimit="10" stroke-width="1.34"/><line x1="275.91" y1="157.13" x2="286.1" y2="157.13" fill="none" stroke="#50d6cc" stroke-miterlimit="10" stroke-width="1.34"/><line x1="255.52" y1="157.13" x2="265.71" y2="157.13" fill="none" stroke="#50d6cc" stroke-miterlimit="10" stroke-width="1.34"/><line x1="296.29" y1="157.13" x2="306.48" y2="157.13" fill="none" stroke="#50d6cc" stroke-miterlimit="10" stroke-width="1.34"/><path d="M255.52,157.13v43.29s5.06,10,10.19,16.34V157.13Z" fill="#fff" stroke="#50d6cc" stroke-linecap="round" stroke-linejoin="round"/><path d="M275.91,157.13v71.36s6.37,6.25,10.19,9.26V157.13Z" fill="#fff" stroke="#50d6cc" stroke-linecap="round" stroke-linejoin="round"/><path d="M296.29,157.13v88.21s7.27,4.69,10.19,6.23V157.13Z" fill="#fff" stroke="#50d6cc" stroke-linecap="round" stroke-linejoin="round"/><line x1="255.52" y1="157.13" x2="265.71" y2="157.13" fill="none" stroke="#50d6cc" stroke-width="1.34"/><line x1="275.91" y1="157.13" x2="286.1" y2="157.13" fill="none" stroke="#50d6cc" stroke-width="1.34"/><line x1="296.29" y1="157.13" x2="306.48" y2="157.13" fill="none" stroke="#50d6cc" stroke-width="1.34"/><path d="M367.64,157.13v43.29s-5.06,10-10.2,16.34V157.13Z" fill="#fff" stroke="#50d6cc" stroke-linecap="round" stroke-linejoin="round"/><path d="M347.25,157.13v71.36s-6.37,6.25-10.19,9.26V157.13Z" fill="#fff" stroke="#50d6cc" stroke-linecap="round" stroke-linejoin="round"/><path d="M326.87,157.13v88.21s-7.27,4.69-10.2,6.23V157.13Z" fill="#fff" stroke="#50d6cc" stroke-linecap="round" stroke-linejoin="round"/><path d="M418.42,279.85l-2.57,10.51h0l7,7h0l-9.95,42-8.84-11.88L391,333.6l9.95-42h0l9.22-2.57h0l2.39-10.48A6.28,6.28,0,0,1,418.42,279.85Z" fill="#fff" stroke="#50d6cc" stroke-miterlimit="10" stroke-width="1.34"/><path d="M420.78,272.93l-5.07,9.44h0l5.07,8.69h0l-19.92,37.86L395.24,315l-14.16,2.34L401,279.51h0l9.54,0h0l4.89-9.48A6.76,6.76,0,0,1,420.78,272.93Z" fill="#fff" stroke="#50d6cc" stroke-miterlimit="10" stroke-width="1.34"/><path d="M421.63,275.67l-13.47,17.11h0l3.09,9.67h0l-27.5,32.17-2.52-14.86-14.29-1.08,27.5-32.17h0l9.28,2.29h0L418,270.63S421.84,272.54,421.63,275.67Z" fill="#fff" stroke="#50d6cc" stroke-miterlimit="10" stroke-width="1.34"/><path d="M75.09,59.25s18,10.45,74.23,20.89" fill="none" stroke="#50d6cc" stroke-width="1.34"/><path d="M83.1,73.62s48.83,15.93,71.57,17.89" fill="none" stroke="#50d6cc" stroke-width="1.34"/><path d="M102.33,91.51a526.48,526.48,0,0,0,62.19,14.66" fill="none" stroke="#50d6cc" stroke-width="1.34"/><path d="M126.77,110.24s32.37,7.78,47.82,9.07" fill="none" stroke="#50d6cc" stroke-width="1.34"/><path d="M148.49,125.53s27.38,5.71,34.32,6.39" fill="none" stroke="#50d6cc" stroke-miterlimit="10" stroke-width="1.34"/><path d="M165.92,139.62s20,3,27.93,2.87" fill="none" stroke="#50d6cc" stroke-miterlimit="10" stroke-width="1.34"/><path d="M190.74,151.76s8.08-.38,12-1" fill="none" stroke="#50d6cc" stroke-miterlimit="10" stroke-width="1.34"/><path d="M198.22,164.74s6.86-1.86,10.91-4.45" fill="none" stroke="#50d6cc" stroke-miterlimit="10" stroke-width="1.34"/><path d="M208.34,178.18a15.73,15.73,0,0,0,7.83-7.61" fill="none" stroke="#50d6cc" stroke-miterlimit="10" stroke-width="1.34"/><path d="M221.24,183.13s4.09-3.66,4.35-7.74" fill="none" stroke="#50d6cc" stroke-miterlimit="10" stroke-width="1.34"/><path d="M236.55,186.33s-1.53-1.32-.48-7.07" fill="none" stroke="#50d6cc" stroke-miterlimit="10" stroke-width="1.34"/><path d="M234.57,170.83a8.58,8.58,0,0,1-.53-4.24" fill="none" stroke="#50d6cc" stroke-miterlimit="10" stroke-width="1.34"/><path d="M205.7,88.54s9.24,3.71,12.32,8.81,1,10.05,0,12.89c-.53,1.43-7,14,.62,23.07" fill="none" stroke="#50d6cc" stroke-miterlimit="10" stroke-width="1.34"/><path d="M205.83,143.18s0,0,3.3-1.06" fill="none" stroke="#50d6cc" stroke-miterlimit="10" stroke-width="1.34"/><path d="M186.34,129.84A66.06,66.06,0,0,0,197.25,131" fill="none" stroke="#50d6cc" stroke-miterlimit="10" stroke-width="1.34"/><path d="M178.72,116.26a124.9,124.9,0,0,0,12.55.55" fill="none" stroke="#50d6cc" stroke-miterlimit="10" stroke-width="1.34"/><path d="M202.77,278s-.2-5.63,6.93-6.05l21,29.2s-.79,1.87-10.3,1.66a1.81,1.81,0,0,0-1.53,1.11C218.05,305.6,202.77,278,202.77,278Z" fill="#fff" stroke="#50d6cc" stroke-miterlimit="10" stroke-width="1.34"/><path d="M169.09,102.07s9.33,1.86,14.34,2" fill="none" stroke="#50d6cc" stroke-miterlimit="10" stroke-width="1.34"/><path d="M161.34,86.22a176.41,176.41,0,0,0,20.07,4.45" fill="none" stroke="#50d6cc" stroke-miterlimit="10" stroke-width="1.34"/><path d="M200.42,97.44s-8.27,7.69,1.67,14.83c0,0-4.13,6.49,4.14,13.26" fill="none" stroke="#50d6cc" stroke-miterlimit="10" stroke-width="1.34"/><path d="M204,128.72s-1.23,12.38,13.9,12.38c0,0-2.9,11,11.71,10.66,0,0,1.67,8.8,12.24,7" fill="none" stroke="#50d6cc" stroke-miterlimit="10" stroke-width="1.34"/><path d="M218.6,255.67a26.84,26.84,0,0,1-7.59,0" fill="none" stroke="#50d6cc" stroke-miterlimit="10" stroke-width="1.34"/><path d="M196.4,262.16s-7.3-1.12-7,14.73" fill="none" stroke="#50d6cc" stroke-miterlimit="10" stroke-width="1.34"/><path d="M200.8,265.77s-6.6-.83-6.16,14.55" fill="none" stroke="#50d6cc" stroke-miterlimit="10" stroke-width="1.34"/><path d="M264.55,228.69a10.85,10.85,0,0,0-5.37,3.15c-2.2,2.51-6.43,2-6.43,2s2.29-1.85,3.08-6.49,3.35-6,3.35-6" fill="none" stroke="#50d6cc" stroke-width="1.34"/><path d="M251.62,217a10.85,10.85,0,0,0-5.37,3.15c-2.2,2.51-6.42,2-6.42,2s2.28-1.85,3.08-6.49,3.34-6,3.34-6" fill="none" stroke="#50d6cc" stroke-width="1.34"/><path d="M249.44,235a9.49,9.49,0,0,0-4.69,2.75c-1.92,2.19-5.61,1.78-5.61,1.78s2-1.61,2.69-5.66,2.92-5.26,2.92-5.26" fill="none" stroke="#50d6cc" stroke-width="1.34"/><path d="M377.83,107.91s-32.43,17-66.25-1.39c-33.82,18.36-66.25,1.39-66.25,1.39v49.22h132.5V107.91Z" fill="#fff" stroke="#50d6cc" stroke-miterlimit="10" stroke-width="1.34"/><path d="M80.33,235.56c3.21-1.32,5.53-2.58,5.52-6a24.9,24.9,0,0,0-1.37-5.42l-21.56-65.9a58.88,58.88,0,0,0-2.69-7.1c-1-1.85-2.87-2.61-5.44-3.67H82.2c-3,1.4-5.69,2.52-5.67,5.68a18.53,18.53,0,0,0,1,5.09L94.1,209.94l16.5-51.71a17.81,17.81,0,0,0,1.05-5.09c0-3.25-2.86-4.42-5.64-5.68h26.56c-2.43,1-4.41,1.73-5.42,3.67a55.41,55.41,0,0,0-2.69,7.1l-21.56,65.9a32.48,32.48,0,0,0-1.37,5.49s-1,4.16,5.51,5.93Z" fill="none" stroke="#50d6cc" stroke-miterlimit="10" stroke-width="1.34"/><path d="M539.82,228.78V154.17a5.65,5.65,0,0,0-.64-3,11.74,11.74,0,0,0-4.92-3.75H559a10.19,10.19,0,0,0-4.92,3.72,5.82,5.82,0,0,0-.64,3v74.61a5.84,5.84,0,0,0,.66,3.06,13.33,13.33,0,0,0,4.9,3.71h-24.7a12.83,12.83,0,0,0,4.92-3.74A5.79,5.79,0,0,0,539.82,228.78Z" fill="none" stroke="#50d6cc" stroke-miterlimit="10" stroke-width="1.34"/><polyline points="19.98 1.21 3.88 1.21 3.88 190.48" fill="none" stroke="#a3a3a3" stroke-linecap="round" stroke-linejoin="round" stroke-dasharray="5 5"/><polyline points="18.15 382.95 3.88 382.95 3.88 218.21" fill="none" stroke="#a3a3a3" stroke-linecap="round" stroke-linejoin="round" stroke-dasharray="5 5"/><path d="M3.91,200.09a3,3,0,0,1,3.08,3,4.72,4.72,0,0,1-1.87,3.34,14.21,14.21,0,0,0-2.88,3.31H6.69a.23.23,0,0,0,.18-.07.22.22,0,0,1,.23-.07v1.18H.88V210A12.66,12.66,0,0,1,4,206.06c.77-.69,1.86-1.62,1.86-2.91a2,2,0,0,0-2-2,2.21,2.21,0,0,0-1.81,1c-.09.15,0,.25-.14.4L1,201.81A3.44,3.44,0,0,1,3.91,200.09Z"/><path d="M311.87,407.24a2.85,2.85,0,0,1,1.82,2.74,3.08,3.08,0,0,1-3.26,3.09,3.71,3.71,0,0,1-2.78-1.21l.89-1.07c.15.16.08.32.22.48a2.29,2.29,0,0,0,1.66.72,2.13,2.13,0,0,0,2.13-2.16c0-1.26-1.05-2-2.49-2a3.27,3.27,0,0,0-.54,0v-1a4.18,4.18,0,0,0,1.68-.26,1.88,1.88,0,0,0,1.13-1.67,1.72,1.72,0,0,0-1.84-1.65,2.51,2.51,0,0,0-1.83.81l-.66-.73a3.44,3.44,0,0,1,2.54-1.14,2.79,2.79,0,0,1,2.92,2.69A2.44,2.44,0,0,1,311.87,407.24Z"/><polyline points="26.13 392.71 26.13 407.73 300.86 407.73" fill="none" stroke="#a3a3a3" stroke-linecap="round" stroke-linejoin="round" stroke-dasharray="5 5"/><polyline points="596.75 392.71 596.75 407.73 324.91 407.73" fill="none" stroke="#a3a3a3" stroke-linecap="round" stroke-linejoin="round" stroke-dasharray="5 5"/></svg>