<svg xmlns="http://www.w3.org/2000/svg" width="148.98" height="300" viewBox="0 0 148.98 300"><title>flag-delaware-icon-rifleman</title><path d="M53.55,30.75s-2.62-1.44-4.63-1.13a7.38,7.38,0,0,0-2.89.85l.87.85,2.88-.85,3.77.28"/><path d="M48.23,33.86a3.19,3.19,0,0,1,2.82-.09,4.75,4.75,0,0,1,1.73.93,3.6,3.6,0,0,0-1.85.11c-1.29.33-2.37,1-2.91.55a.91.91,0,0,1,.21-1.5"/><path d="M75.75,45.84c-.64.13-.64.63-1.4.51.64.27.64-.87,1.4-.51"/><path d="M50.44,228.73c-2.68,8.1,2.31,16.45-.76,24.67a55,55,0,0,0-1.54,17.49c-1.15,2.51-2.69,5.54-4.6,7.06a25.16,25.16,0,0,1-10.87-1.52c1.8-6.58,1.66-13.65,1.66-20.11-.5-4.43-3.07-8.74-3.71-13.41-.13-5.45,1.54-11.14-2.56-15.46V221c5.89,3.41,14.45,3.66,20.21-.26,1.66-.5,1.66-1.76,3.32-2.27C53.51,222,50.83,225.69,50.44,228.73Zm23,12.8C74.87,243,77.36,245,77.36,245s1.59,2-.75,1.79-1.39-2.73-3.84,2.1-7.45,19.84-7.45,19.84m8.73-44.33s-2.77-.08-6.18-.5-6.4-3.68-6.4-3.68-.64,1.15-1.69,3.48,0,7.39.53,11.48-.53,7.29-.22,13.31M82.47,147.34C86,158.1,94.93,175.2,91.74,177.1a66.36,66.36,0,0,1-8.32,2.53s1.15,2.31,2.88,16.22c.13,1.06.06,5.3.06,5.3m-57.91,19.6.85-3s-1.06-5.47-1.49-9.48.64-5.49-.21-9.27-2.77-10.33-3.41-13.92c-.48-3.57-.64-6.54-.64-6.54S18.4,177,18,175.2c-.84-2.74-.41-2.94,1.91-10.12s5.77-14.75,4.91-22.57a35.9,35.9,0,0,0,2.5-7.22S37,139.14,41,134.5s6.39-7,7.89-16,.42-5.49-2.77-1.9-11.2,6-15,2.41c0,0-.94-9.16-3.5-14.65a41.49,41.49,0,0,1-3-7.59,19.78,19.78,0,0,1-4.06,4.43c-2.76,2.31-4.46,2.74-.83,6.75s7.81,9.49,7.81,9.49-3.12,1.27-4.62,7,.31,13,.31,13-13.73-3.75-20.12-16c0,0,2.52-4.61,2.56-15.81S2.25,91.06,2.25,91.06,7,85.36,12.79,78.4s3.83-10.14,5.75-11.71a9.7,9.7,0,0,0,2.24-2.21s-6.07-4.44.64-5.38,11.51,0,15.34-.32,6.39-2.85,9.27-3.15S49.87,54,49.87,54s2.87,7.28,7,10.75A131.73,131.73,0,0,1,69.68,55s4.78,4.74,15,8.54,12.47,5.05,11.19,7.59-.32,1-.32,1a42.14,42.14,0,0,1,2.23,22.78c-2.23,13-2.87,19.28-2.87,19.28s3.51,2.21,4.48,9.18,13.31,25.74,13.31,25.74-7.24-4.53-12.36-.75-3.19,10.14-3.19,10.14-2.88-4.74-6.4-12a84.41,84.41,0,0,0-6.71-11.71m-22.58,85.5s1.82-2.94.54-10.24-6.07-19.28-6.07-19.28a47.94,47.94,0,0,1-2.88,12.34c-2.56,6.94-2.88,9.8-1.92,14.86m22.28,23.62s-2.35-2.83-5.13.53-3.83,3.78-6,5.49-2.13,1-2.13,1L47.49,272.27m26.28-31.56,9-20.81L106.87,171m-2.56-3.58-30,56.53a59.7,59.7,0,0,1-3,6.12c-1.49,2.53-1.65,1.15-3,3.8s.43,3.8-2.76,4.22-3.2,3.58-1.71,4.43a3.17,3.17,0,0,1,1.71,1.89m48.26-88.15,8.95-18.05-1.92-1.89-9.37,15.6S113.26,152.84,113.79,156.22ZM74.47,238.15c-2.35-1.16,4.48-.63,4.48-.63S79.58,240.68,74.47,238.15Zm1.92,5.07c2.56-1.89,5.11-4.12,4.47-7.91s1-7.92,1.61-9.49.09-5.07.09-5.07,2.24,3,1,7.81-1,3.06-1.4,7.91-1.06,17.1-1.91,20.78-.41,10.22,3.83,13,9.49,5.47,9.49,5.47a20,20,0,0,1-12.9,2.63C69,266,61,267.38,53.37,272.42c-1.55,1-5.11,3.25-10.28,6.18m72.72-125.66s2.87,3.47,1.82,6.87-1.5,4.93-3.3,6.84c0,0,.31,2.32-1.4,2.85s-5.21,2-6.81.53-2.34-2.33-1.49-3.38a5.79,5.79,0,0,0,1.06-1.8h-1.91l-.43-2.53h-.84s-1.81-3.36-2.66-5.06A42.59,42.59,0,0,0,97.18,153m12.34-1.68,1.93.53m2.45,4.76a32.17,32.17,0,0,0-.43,4.51c0,2-1,1.49-2.13,1.17s-.32-1.17-1.17-3.17a12.75,12.75,0,0,0-2.88-3.78,8.83,8.83,0,0,1-1.59,2.95,37.16,37.16,0,0,0-2.66,3.59" fill="none" stroke="#000" stroke-linecap="round" stroke-width="2"/><path d="M106.54,164.74c1.39,1.08,2.66,1.81,4.37,1.6a9.19,9.19,0,0,1,3.42.31m-3.21-4.21s-1.28.09-2.87.09l-2.24-4m.64,5.68-2.13-3.55m-21.1,19s-12,2.37-15.18,2.84-6.55,2.2-7.34-5.37-3.37-32.43-3.68-35.91a36.21,36.21,0,0,0-1.45-7,139.8,139.8,0,0,0-5.41,23.42c-2.08,13.91-3.84,22.3-3.84,22.3s-1.27,1.74-5.75.78-12.27-.25-17.22-2.14m-6-5.43s7.34,3.47,12.78,4.09,12.31,1.44,13.1,1.27a7.73,7.73,0,0,1,1-.15s.8-4.91,1.44-10,2.56-15.82,3.84-21S54,132.18,54,132.18l3.68.45s1.44,4.29,2.71,15.66,2.08,21.51,2.72,26,.16,6.65,2.55,6.18,12-1.91,16.63-3,10-3,10-3m-47-44.29s11.86,2.69,15.69,2.69l-1.7-5.59-2.13-1.36L57,122.21m-1.52-1.91-.16,5.21s-.64,1.91-1.91.95-3-2.21-2-3.16,4.56-3.78,4.56-3.78l-1.6-1.28-5.75,3.48M35.36,59.08s1.4,14.72,3.47,22.78S49.54,110.34,52.26,114a53.25,53.25,0,0,1,6.24,10.73c.79,2.21,2.23,6.64,2.87,9S65,145.3,66.16,148.61s9.91-.15,15.18-1.1,2.88-1.28,3-4.44a17,17,0,0,0-.79-5.85c1-1.1.79-2.21-.32-6s-.31-3-3-9.34l-17.74,3.33s-10-16-12.74-21.83S40.45,79.91,39.16,70,38,58.9,38,58.9m19.17,56.85C67.9,103.39,75.6,93.41,78.15,61M58.29,118.4c11-11.23,20.78-28.12,22.53-56.45M55.46,113.68s1.92-21.07,1.44-29.46-.64-15-.64-17.07V64.62m2,49.46c.16-.63,1.32-14.82,1.16-22.42s-1.11-28-1.11-28m-37.56.81s2.08.44,5.43,6.78,7.68,14.25,7.68,14.25l5.27-1.44M20.86,59.43a3.53,3.53,0,0,0,1.06,3C24,64,26.51,66.25,29.54,71.48a96.09,96.09,0,0,1,5.3,10.85l3.35-1m3.56-1.26c2.87-1.42,3.8-1.57,6.68-5s5-5.53,7.67-6M42.25,82.65c3.52-1.75,6.34-3.32,9.22-7s3.35-4.11,4.79-4.25m2.55-3.49L73.68,86.43m-15-14.31L73,89.54M76.78,87s.09,1.85,5.84-4.61,7.2-8.72,8.95-10.62,3.2-3.79,3.2-3.79m-19,21.86a10.15,10.15,0,0,0,7.67-4.16c3.36-4.25,7-9.47,8.79-10.9a18.09,18.09,0,0,0,2.72-2.68M83.42,137s-9,1.06-11.29,1.48-4.26,2.74-5.53-.83S64,128.59,62.33,125m16.2-2.93c1.49-2.34,4.68-8,4.89-12.44s0-13.09,1.06-16.47a58.82,58.82,0,0,0,1.71-8.43m-61.57,12a38.83,38.83,0,0,1-2.13-13.49M55.52,194s1.48-12.86,1.7-19.81m-29-38.58-3.41-1.34a24.92,24.92,0,0,0,.1-6.38,16.8,16.8,0,0,1,2.13-9.48c1.17-2.43,4,.63,4,.63M23,136.57l1.8,6.36M58.27,26.5s-1.27,2.33.22,2.74,4.26,1.05,3,4.23-2.32,5.89-1.47,7,1.26,1.7,1.26,1.7a23.19,23.19,0,0,1,1.92-4.44c1.07-1.68,1.45-1,2.14-1C66.8,36.42,67.86,36,66.8,39s-1.25,6.16-2.54,5.73-2.07,1.08-.66,1c2.56.19,7.46,3.57,7.46,3.57l-1.28,5.48M50.4,53.91l.21-2.31s-3,.4-4.47-.65-.64-1.26-.21-2.73l.21-3,1.6-.29s-1.6-.11-2-1a17.43,17.43,0,0,1-.64-3.8s-2.77-.2-2.34-1.7a7.61,7.61,0,0,1,2.34-3.36c1.07-1,1.5-.83,1.07-2.33a5.22,5.22,0,0,1,0-3.16,13,13,0,0,1,.68-1.85" fill="none" stroke="#000" stroke-linecap="round" stroke-linejoin="round" stroke-width="2"/><path d="M45.07,40.25h2.24m3.3,11.35,4.29-.35m16.17-2s5.11-1.87,5.75-4.4S79.59,37,78.1,33.68s-3.2-4.44-8.31-6.35-11.51-.83-11.51-.83m15.88-8.24c4.47-1.26,7.67-4.74,13.73-3.17s13.43,10.46,5.76,10.46-10.81-.13-10.81-.13" fill="none" stroke="#000" stroke-linecap="round" stroke-width="2"/><path d="M47,27.33c-7.67-.83-9.59-1-12.58-3.79s-1.28-7.59,3.42-8l11.08-1.06s0-1.89,3.62-1.48S64,14.24,68.72,15.75A27.22,27.22,0,0,0,77.37,17l-13,4.94s-1,2.24,6.22,2.44,8.31-1.25,13.85,1.91S98.76,38.08,91.09,41,80.85,44.2,79.16,44.2s-1.07-3.59-.86-6.74S77,27.75,68.72,26.9s-11.29-1.68-14.49-.85A56.84,56.84,0,0,1,47,27.33Z" fill="none" stroke="#000" stroke-linecap="round" stroke-width="2"/></svg>