<svg xmlns="http://www.w3.org/2000/svg" width="300" height="300"><path d="M1.5 149.11l142.84 96.51 144-96.69-144-94.55z" fill="none" stroke="#000" stroke-linecap="round" stroke-linejoin="round" stroke-width="2"/><path d="M155.07 190.69l-10.14 7.2-10.14-7.19 3.87 11.65-10.14 7.21h12.53l3.89 11.66 3.87-11.65h12.53l-10.14-7.2zM122.25 190.69l-10.14-7.2-10.11 7.19 3.84-11.68-10.14-7.18h12.53l3.89-11.66 3.88 11.66h12.53L118.38 179zM187.89 190.69l-10.14-7.2-10.14 7.19 3.87-11.68-10.14-7.21h12.54l3.88-11.66 3.87 11.65h12.54L184 179z" fill="none" stroke="#000" stroke-linecap="round" stroke-linejoin="round" stroke-width="2"/></svg>