<svg xmlns="http://www.w3.org/2000/svg" width="308" height="300"><path d="M15.73 130.06c6.13 2.42 27.12 7.38 31.21 7.38 1.32 0 2.71.48 3.07 1.07 1.14 1.83-16.09 19.79-19.75 20.6-4.45 1-11.86 8.06-17.33 16.56a84.79 84.79 0 00-4.58 7.61c0 .26 4.15.61 9.23.78 5.07.17 15 .07 22.1-.22 10.43-.43 13.13-.87 14.24-2.31.74-1 8.47-10.39 17.17-20.92l15.82-19.14 38.49.6c34.54.53 40.08.86 54 3.22 8.52 1.45 17.06 3.29 19 4.07l3.48 1.44-5.27 2.33c-3.29 1.46-7.49 4.73-11.17 8.68l-5.9 6.34-9.39-2.63c-31.26-8.74-50.69-7.9-78.12 3.41-8 3.32-20.31 11.51-20.35 13.59 0 1.57 12.83 1.65 98.57.62l58-.69 6.85-6.56c7.65-7.32 26.69-20.69 36.38-25.55a73.62 73.62 0 0115.29-5c18.28-3.63 19.53-4.46 14.58-9.73-4.61-4.9-16.05-2.95-38 6.48l-9.18 4-2.97-2.09a44.35 44.35 0 01-5.41-4.74l-2.45-2.63 5.62-1.21c3.09-.66 11.52-2.4 18.73-3.86s14-3.12 15-3.68c2.57-1.37 2.43-4.39-.31-6.86-3.39-3.06-18.62-2.58-30.49 1-15.17 4.53-20.84 7-27.14 11.9-11.14 8.66-10.25 8.3-14.35 5.77a95.4 95.4 0 00-12.95-5.6l-9.33-3.36h-28.47c-15.66 0-42.91.11-60.57.22-35.48.21-39.81-.24-65.93-6.77-8.81-2.2-16.9-4.93-20.16-6.8-3-1.71-6.06-3.11-6.81-3.11-2 0-5.24 3.22-5.2 5.17.07 2.3 7.78 7.88 14.75 10.62zm9.14 51.67H11.45l2.4-4.25c3.77-6.65 12.44-15.07 17.33-16.84 3.28-1.19 6.69-4.18 13.6-11.95 7.47-8.39 9.64-10.25 11.44-9.77a21.54 21.54 0 004.66.61c2.27 0 2.09.47-2.64 6.51-2.79 3.57-11.44 13.06-19.24 21.09zm8.65 0h-3.2l3.15-4c3.68-4.61 19-22.14 27.65-31.63 5.22-5.73 9.47-8.34 9.44-5.8 0 .43-7.63 9.92-16.93 21.09-15.15 18.23-17.24 20.34-20.11 20.34zm33.31-19.45l-15.77 19.31-5.59.07c-4.49.05-5.42-.22-4.75-1.4.47-.81 8-10 16.66-20.54l15.82-19.07h5.1c3.31 0 5 .4 4.7 1.17s-7.49 9.84-16.17 20.46zm120.68 1.1a63.11 63.11 0 0110.62-8.27c4.92-2.92 6.5-3.39 8.81-2.62 1.55.52 2.82 1.42 2.82 2s-3.3 4.34-7.34 8.34c-6.8 6.74-7.68 7.28-11.87 7.26-7.76-.01-8.34-1.3-3.04-6.71zm34.43 5.62c-4.37 4.5-4.47 4.54-9.54 3.25a39.4 39.4 0 00-6.86-1c-6.8-.26-7.35-1.61-2.62-6.46a50.53 50.53 0 017.58-6.42c3.09-1.92 3.62-2 6.33-.52a46.43 46.43 0 016.11 4.19l3.17 2.62-4.17 4.34zm29.47-19.13c14.06-7.07 36.31-15.59 40.72-15.59 3.45 0 9.37 3 9.37 4.68 0 .88-1.06 1.84-2.37 2.11s-6.4 1.31-11.33 2.3a77.78 77.78 0 00-17.35 6c-11.57 5.75-29.37 17.86-37 25.16l-6.37 6.1-61.12.58c-33.62.33-67.88.84-76.15 1.14s-15 .18-15-.28c0-2 14.13-10.1 24.38-14 24-9 44-8.86 75.68.59a106 106 0 0022.27 3.65c7.25.52 14.78 1.42 16.74 2 3.49 1 3.75.86 13.18-8 8.32-7.83 11.54-10 24.35-16.45zm-21.58 2.7l-5.42-3.66 2.73-2.14c1.82-1.44 3.57-1.94 5.25-1.52 2.55.64 9 5.51 9 6.79 0 .38-1.38 1.48-3.07 2.44-3 1.69-3.17 1.65-8.49-1.92zm18.16-7.9c3.38 3.11 3.57 3.94 1 4.66-1 .29-2.56.82-3.43 1.17s-2.61-.46-4.13-2.06a28.5 28.5 0 00-6.46-4.69c-4.43-2.26-5.76-4.54-3.68-6.27 2.71-2.24 9.71.79 16.71 7.18zm-8.91-16.76c21.87-8.27 44.5-10 43.23-3.31-.25 1.36-2.41 2.09-9.29 3.12-4.92.73-13.7 2.52-19.5 4s-13.18 2.61-16.39 2.61c-6.69 0-8.39 1.17-8.39 5.81 0 2.38-.82 3.88-3 5.5-2.92 2.16-3.09 2.17-5.89.33-1.58-1-2.78-2.31-2.66-2.81.49-2.16 16.33-13.16 21.89-15.26zM13 119.37c5.35 3 27.81 9.06 43.89 11.86 9.45 1.64 58.65 1.92 93.32.53 35.6-1.43 46.46 1 68.3 15.43 7.09 4.68 13.14 8.71 13.43 9s-.81 1.59-2.44 3c-3.21 2.76-4.47 3.11-5.46 1.5-1.34-2.17-15.17-9.58-22.56-12.1-11.9-4-32-7.77-46-8.52-7-.37-28.78-.79-48.5-.93-30.62-.22-38-.59-50.28-2.52-28-4.39-42.24-8.47-49.64-14.19-7.79-6.04-3.41-8.27 5.94-3.06z"/></svg>