<svg xmlns="http://www.w3.org/2000/svg" width="300" height="300"><path d="M51.82 147.19c1.5 1 4.56-3.26 2.34-4.24-.78-.34-2.63.5-3 1.19a2.77 2.77 0 00.66 3.05zM31.22 164.62c1 2.65 4-.55 3.58-2.07-.51-1.81-4.67-.4-3.58 2.07zM134 180.1c-2.57-2.41-2.54 1.51-1.82 3.33.45 1.14 1 3 2.29 1.86 1.62-1.55.9-3.89-.47-5.19zM44 116.4c1.19 1.31 5-2 3-3.3-1.73-1.1-4.54 1.67-3 3.3zM20.13 130.69c.55 1.59 1.57 3.9 3.62 3.5 2.39-.46 1.95-3.44 1.32-5.1s-2.21-4.61-4.33-3.17c-1.51 1.08-1.12 3.31-.61 4.77zM93.65 164.33a2.43 2.43 0 00-1.09-.72c-1.5-.19-4.41 2.77-2.66 4 1.45 1.03 5.17-1.79 3.75-3.28zM112.08 191.33c0 1-.5 4.26.81 4.67 2 .62 1.2-2.17.82-2.8a13.16 13.16 0 00-1.63-1.87zM82.05 171.61c-2-.82-5.13 2.07-3.19 3.83 1.65 1.49 5.14-3.02 3.19-3.83zM161.44 148.19c-1.21-.9-2.31.94-1.6 1.92.94 1.31 3.16-.75 1.6-1.92zM214.45 120.85a2 2 0 00-1.41-.56c-1.89-.06-5.16 1.21-2.93 3.58 1.56 1.67 5.66-1.35 4.34-3.02zM149.39 167.69c0-1.31-1.51-4-3.12-3.61-2.29.62-.72 4.67.43 5.59 1.69 1.33 2.85-.34 2.69-1.98zM30 159.62c1.2.47 2.38-1.61 1.12-2.27S28.38 159 30 159.62zM245.18 194.15c1.85 1.45 1.95-2.32.63-3-1.53-.69-1.6 2.49-.63 3z"/><path d="M294.48 148.74c-.73-3.69-2.35-7.11-3.07-10.82-.21-1.07-.3-2.86-1.24-3.57-.73-.54-2.78-.49-3.66-.58-1.8-.2-20.83-1-20.83-1.17 0-.84 7.76-1.18 8.68-1.33 2.77-.44 6.87-1.35 8-4.32.87-2.25-.6-4.69-1.53-6.66-1.46-3.07-3-6.1-4.78-9-1.32-2.21-2.51-3.62-5.06-4.43a35.51 35.51 0 00-8.26-1.26 119.94 119.94 0 00-20.76.23c-13.91 1.52-27.83 6.74-40.07 13.37-6.46 3.51-12.23 7.92-19.76 8.85-2.64.32-5.22-.54-7.32 1.56s-3.53 4.46-5.57 6.45c-4.47 4.36-9.64 7.66-14.4 11.66-3.25 2.75-6.32 5.72-9.44 8.62a24.93 24.93 0 00-1.88-5.64 9.22 9.22 0 00-3.16-2.79 35.24 35.24 0 01-5.14-4.55c-2.55-2.6-4-4-7.63-3.62-.76.09-9.16 1.72-9.09 1.89-.42-1.05 4-5.28 4.64-6.2 2.11-3.22-.58-6.11-3.29-8-3.66-2.56-6.59-5.85-9.57-9.15-.58-.64-1.45-2.11-2.22-2.38-1.15-.4-4 .53-5.21.7A100 100 0 0087 120.4a158.22 158.22 0 00-40 18.53c-5.87 3.87-11.44 8.18-17.54 11.7-3.12 1.81-10.72 6.21-11.29-.41-.39-4.67 3.56-8.06 7.18-10.33 5.43-3.41 11.36-6.09 16.94-9.24q5-2.81 9.86-5.72c2.33-1.39 5.07-2.7 7-4.67 3.57-3.71 2.13-11.31 2.56-16 .48-5.24 3.71-13.12-1.2-17.17-3.61-3-10.59-2.44-14.94-1.75-4.75.75-12.7 4.8-12.05 10.64.33 3 2.59 5.51 4.29 7.78a18.64 18.64 0 012.37 3.44c.7 1.67-.23 1.74-1.77 2.62-6.34 3.61-12.86 6.79-19.06 10.66-5.56 3.44-10.1 6.62-13.13 12.52a24 24 0 00-1.06 17.4A6.22 6.22 0 008 153.86c1.15.8 6.23 4.28 5.93 6.08-.12.68-2.08 2.1-2.53 2.5-1.25 1.13-2.53 2.2-3.74 3.37-2.25 2.18-5 4.7-6.19 7.7s.05 5.79 1.18 8.55a57.67 57.67 0 012.8 9.43c.4 1.89.73 5.32 2.28 6.66 2 1.72 5.92.62 8.17.07 1.3-.32 3.9-1.66 5.22-1.51 1 .11 1.86 1.7 2.56 2.52 3.16 3.73 5.85 7.86 9 11.58 3.71 4.42 12.27-.09 16.55-1.8 6-2.4 11.36-5.67 17-8.88s11.11-6.22 16.4-9.84c5.82-4 11.42-8.27 17-12.52 4.66-3.51 9.31-7.34 14.52-10a38.68 38.68 0 018.93-3.69c1.69-.38 2.24-.49 2.41 1 .22 1.93-1.68 5-2.36 6.77-1 2.57-1 4.51-3.8 4.94-6.21.94-12.59.59-18.52 2.95-3.68 1.46-11.67 5.94-9.24 11.07 1.08 2.29 4.61 4 6.51 5.54 2.77 2.29 5.18 4.9 7.77 7.38 2 2 3.14 3.35 6 2.72a49.77 49.77 0 0010.06-3.83c13-6.13 22.43-18.18 31.21-29.24a130.71 130.71 0 0011.79-16.93c2.66-4.68 5.27-9.4 8.05-14 1.14-1.88 2.67-3.65 3.25-5.78a39.21 39.21 0 011.93-5.45c2.68 1.52 5.33 3.19 8.1 4.53 5 2.41 11.39 2.23 16.81 2.25a66.85 66.85 0 0016.77-2.16c5.84-1.51 10.88-5 16.47-7.14a65.89 65.89 0 019.24-2.87c1.88-.43 5.94-1.83 7.84-1.1s-.5 2-1.47 3c-1.81 1.83-3.44 4.38-5.78 5.59-2.14 1.11-4.88 1.13-7.21 1.6a99.69 99.69 0 00-9.92 2.59 169.89 169.89 0 00-19.68 7.49c-2.73 1.24-5.46 2.51-8.1 3.94-2.06 1.11-5.78 2.8-5.79 5.61 0 1.93 1.9 4.15 2.71 5.85 1.14 2.4 2.9 5.44 3.28 8.1.28 1.94-1 2-2.8 1.25-2.61-1.07-5.11-2.59-7.69-3.75q-4.23-1.91-8.55-3.59c-1.91-.74-4.43-2.12-6.53-1.63s-3.11 2.92-4.1 4.61c-1.35 2.29-2.62 4.64-3.85 7a58.44 58.44 0 00-2.67 5.45c-1 2.55 1.52 4.34 3.11 6.15a137.18 137.18 0 0110 13.27c2.44 3.56 9 4.51 12.84 6l4.6 1.8c1.59.63 1.54.81 2.93-.13s3-2.14 4.62-3.08a9.25 9.25 0 017-1.53c10.1 1.31 20 3.18 30.2 4.07-1.41 1.1-10.83 8.85-9.79 9.81.74.69 11.51-6.13 11.64-4 0 .65-2.37 2.23-2.73 2.54a29.57 29.57 0 00-3.15 3.08c-1.2 1.42-4.62 6.08-.49 4.13a35.32 35.32 0 0118.44-3.31c6.55.51 13.06 2.37 19.64.74 4.86-1.2 7.85-6.39 7.74-11.24s-2.31-9.66-3.11-14.45c-1-6-5.06-7.68-10.57-9.24a78.92 78.92 0 00-11.07-2.23c-3.36-.46-6.73-.2-10.08-.64-4.63-.62-9.19-.94-13.85-1.11 1.35-1.7 4.25-4.23 3.59-6.54-1.1-3.87-6.58-4.45-8.68-7.4-.73-1-1-.65-.06-1.49 1.36-1.26 4.45-1.82 6.17-2.39a75.1 75.1 0 019.17-2.44 5.22 5.22 0 012.2-.28c.79.28 1.82 1.93 2.39 2.54a48.82 48.82 0 006.62 6.4c7.39 5.34 15.53-1 23.1-2.85 4.13-1 9.78-1 13.33-3.54 4.03-2.84 4.39-7.22 3.51-11.74zm-18.25-22.34c1.17-.11 1 2.5 0 1.83-.41-.23-.67-1.76 0-1.83zm-3.84-.32c.95-1.81 2.24 2.06 1.17 3.13-1.68 1.67-1.72-2.09-1.17-3.13zm-153.21 10.65c.19-.68 1.2-1.95 1.62-1.06.53 1.1-2.01 2.43-1.62 1.06zM58.69 87.79c.14-1.45 1.58 1.26 1.69 1.62.35 1 .56 3.55-.37 4.46s-.78.35-1-.72a18.19 18.19 0 01-.32-5.36zM128 164.71c.26-.92 8.42.71 8.16 1.48-.54 1.53-9.07.63-8.16-1.48zm.16 5.81c.66.14 2.68.56 2.52 1.49-.19 1.12-2.12.81-2.8.55-2.14-.81-2.22-2.56.26-2.04zm1.48-1.06c-.58-.15-3.23-1.35-1.56-1.73.87-.08 5.26.27 5.47 1.27.27 1.37-3.23.65-3.93.46zm-14.35-32.14a1.45 1.45 0 012-1c1.46.58 1 3-.44 3.37s-1.7-1.11-1.58-2.37zm-2.6-.16c1.83.12 2.75 4.18.72 4.36-1.66.14-3.02-4.23-.74-4.36zm-4.36 1.3c.26-2.69 2.32.4 2.45 1.6.1 1 .2 2.76-1.19 2-.98-.47-1.28-2.72-1.28-3.6zm-3.74.36c.91-2.35 3.58 1.76 3 3.37-1.02 3.08-3.67-1.67-3.02-3.37zm-3.6 1.34c.88-2.81 4.22 1.57 2.62 3.13s-2.99-2-2.61-3.13zM92.75 123c1.26-.56 3.64-1.6 5.08-.92.5.24 1.56 1.15 1.27 1.84-.56 1.29-7 0-6.39 2.08.36 1.14 3.43.6 4.27.76a4.47 4.47 0 013.53 3c.93 2.45-1.13 4.61-3.46 5.21-.85.22-4 .86-4.83.26-.63-.45-.8-2.26 0-2.76 1.22-.78 6.2 1.66 5.41-1.69-.6-2.6-3.94-1.39-5.69-1.75-3.74-.73-1.65-4.93.81-6.03zm5.07 18.13c.81-2.37 2.8 1.48 2.12 2.68-1.23 2.19-2.61-1.33-2.12-2.67zm-1.72 2.75c.36 2.93-2.48 1-1.77-1 .59-1.59 1.59-.37 1.77 1.01zM93 145c0 1.61-2.45 0-1.76-1 .62-.85 1.76.14 1.76 1zm-3.2 0c.25 1.11-2.07 1.32-1.84 0 .17-.76 1.69-.74 1.88 0zm-8.69-18.55c.93-.41 4.56-2.69 4.73-.25.15 2.22-4.51 1.18-5.07 3.21-.79 2.84 4.12.08 4.94.75 2.19 1.77-4.08 3.1-4.21 5-.23 3.28 4.57.31 5.75.11 1-.17 2.41.36 1.86 1.69s-5.31 2.79-6.73 3.28c-1.87.65-2.45.19-3-1.68-.78-2.88-1.91-6.36-2.1-9.32-.08-1.3-.37-.71.79-1.43a28.77 28.77 0 013.08-1.39zm5.28 19.48c.22-.11-1.58.36-1.42-.06.34-.8 1.9-.2 1.46.03zm-13.82-15.27c1.14.82 1.55 4.42 1.9 5.71.4 1.46 1.75 4.51 1.28 6.07-.22.75-1.27 1.68-2.06 1.26s-1.32-4.06-1.55-4.9a44.71 44.71 0 01-1.6-6c-.11-.8.46-3.29 2.03-2.14zm-9.86 4.26l4.29-2.33c.54 1.65.42 2-.76 3.23s-1.21 2.16-.82 3.89c.13.57 3.3 10.15-.23 8.07-1.13-.67-1.41-3.65-1.69-4.74-.35-1.41-.7-4.07-2.4-4.53-.85-.22-2.92 1.2-2.85-.44.09-1.26 3.63-2.71 4.46-3.15zm-13.58 7.3c1.55-1.29 4.66-2.42 6.56-1.32 2.16 1.26 1.88 4.14 1.56 6.17a3 3 0 00.21 2.35c.44.79 1.61 1.3 1.13 2.31a1.92 1.92 0 01-2.37.55c-.78-.52-.76-2.16-2-2.27-2.53-.24-.76 3.85-1.12 4.92-.62 1.83-2.07.85-2.56-.4-.93-2.37-1.23-5.21-1.8-7.68-.38-1.67-1.11-3.39.39-4.63zm-9.57 5.84c.67-.43 3.59-3 4.47-2.83 1.11.22.76 1.79.27 2.42-.72.95-3.5 1.62-3.29 3.18.24 1.75 2.28-.47 3.19 0 2.3 1.13-.94 3.18-1.43 3.94-.64 1-.65 2.93.84 3s2.29-2.76 3.7-2.42c1.12.27 1.42 2.33.92 3.12-.83 1.31-3.75 2.4-5.07 3.08-2 1.06-2 1.13-2.57-1-.67-2.35-1.3-4.7-1.92-7.06s-1.49-3.9.89-5.43zm-1.32 38.6c-.76-.84-.79-7.66.91-4.82.37.63.41 6.25-.91 4.82zm1.27-9.21c-1.07-.19-2.73-5-1.58-5.41s3.52 5.78 1.58 5.41zm-7.64-23.66c3.16-.16 2 3.77 3.21 5.15.44.49 1.36.38 1.89.93a4.63 4.63 0 01.9 3.43c-.56 3.6-5.59 6.19-8.41 8-.88-4.19-2.29-8.25-3.25-12.42-.38-1.68-.19-1.93 1.26-2.92 1.16-.81 2.94-2.09 4.4-2.17zM55.1 86.53c.69-1.54 2.23 2.48 2.29 2.85.31 1.7 1.22 5.09.58 6.8-.79 2.11-1.68-2.26-1.87-3-.41-1.65-1.69-5.06-1-6.65zm-2.57 0c1.26-1 2 4.13 2.16 4.86.21 1 2 6.06 1.08 7-.63.65-1.32-2.1-1.5-2.66-.37-1.25-2.94-8.32-1.74-9.24zm-1.17 15.7c-.51 1.49-2.77-3.07-1.09-3.07.84-.04 1.31 2.41 1.09 3.03zM48.9 86.72c.69-1.37 3 2.27 2.49 3.26-1.1 2.36-3.05-2.15-2.49-3.26zM47.54 100c.4-.94 2.56 2.21 1.46 3.06s-1.79-2.24-1.46-3.06zm-1.8-13.38c1.5-.61 3.61 3.15 2.81 4.14-1.18 1.51-3.91-3.66-2.81-4.1zm1.49 16.63c.26 2.85-1.65.13-2-1-.78-2.97 1.84-.59 2 1.04zM42.4 87.78c1.21-1.71 4.9 5 3.46 6.77-.7.84-1-.35-1.47-1.29s-2.83-4.32-1.99-5.48zm-3.46 2c-.16-2.53 2.69 1.25 3 1.68.75 1.16 4 5.79 3.14 7.21-1 1.73-3.21-2.5-3.65-3.3-.9-1.52-2.49-3.7-2.49-5.55zM45 105.52c0 1.56-3.39-1.9-3-3.23.73-2.75 3 2.53 3 3.23zm-7-5.77c-.3 1.28-2.65-1.31-2.88-1.75-.47-.92-.8-2.47 0-3.29 1.08-.21 3.07 4.17 2.88 5.04zM37.2 95c-.43-.82-1.71-2.93-.57-3.76 1.36-1 2.18 1.4 2.64 2.26s3.57 6.12 1.93 6.58c-1.48.39-3.53-4.23-4-5.08zm2.33 8.38c-.68-1.2.31-.74.81-.42s2.1 2.82 1.79 3.6c-.47 1.16-2.38-2.8-2.6-3.21zm6.94 6.77c1.67.09 3.65.86 3.89 2.62.12.88-.32 1.82-.25 2.72a6.24 6.24 0 001.39 3.11c.36.53 1.4 1.54 1.13 2.25-.53 1.35-2.36 0-3-.51-1.13-.94-3.31-3.24-4.08-.73-.23.75 1.35 5.17-.17 5s-3.47-5.74-4-6.88c-.84-2-1.76-3.41.05-4.89 1.3-.96 3.41-2.63 5.04-2.72zm-17.81 9.77c1.21-2.34 3.55 4.12 4 4.89 1 2 3.92 4.57 4.9.9.62-2.37-1.59-5.72-2.32-7.85-.54-1.57.12-2.69 1.58-1.22s2.69 5.55 2.82 7.8a4.68 4.68 0 01-1.88 4.34c-1.91 1.32-4.08 1.26-5.43-.57-1.01-1.37-4.53-6.63-3.67-8.32zm-11.07 7.29c.27-2.94 4.66-4.77 7-3.07 2 1.43 4.05 5.73 3.58 8.14-.54 2.71-4.46 5.1-6.91 3.57s-3.92-5.85-3.67-8.67zm-3 23.37c0-.81 1.89.36 1.63 1.16-.36 1.03-1.5-.68-1.66-1.19zm-1.19 5.66c-1.59-2-.37-2.44 1.25-.63s.26 2.48-1.28.6zm-2.18 41.34c-.9 0-1.86-2-.64-2.07.92-.12 1.82 1.97.61 2.04zm3.48-.29c-.95.64-3.33-3.08-2.77-3.86 1.12-1.6 4.07 2.92 2.74 3.83zm2.55-1.18c-1.31-.3-4.24-5-2.31-5.7 1.72-.68 3.61 5.97 2.28 5.67zm2.75-2.62c-.1 1.08-.75.29-1.2-.19-.64-.69-2.28-4-1.46-5 1.97-2.23 2.66 4.23 2.66 5.19zm1.64-5.49c-.32 1.45-2.51-1-1.87-1.8.85-1.06 2.05.99 1.87 1.8zm-2.19-7c-.87 1-2.26 3.31-3.41 2.08-.35-.38-.45-1.93-.59-2.42-.47-1.67-1-3.31-1.55-5-.34-1-3.71-8.05-.38-8.31 1.66-.13 1.91 3.65 2.32 4.84.28.8 1.3 4.75 2.29 5 1.47.34 2.43-5.09 3.54-1.32.8 2.73-.54 3.13-2.22 5.13zm4.12 9.7c-1 .82-2.32-.57-1.05-1.13.67-.28 1.94.43 1.05 1.15zm.7-5.39c-.58 1.79-2.27 1.26-2.16-.51.14-2.11 2.89-1.8 2.16.53zm-2.19-16.69c-.52-1.68-2.42-5.52-1.47-7.35 1.23-2.39 2.5.87 2.92 1.93.85 2.18 1.54 4.44 2.18 6.69.31 1.08 1.29 3.19.78 4.3-2.04 4.49-4.11-4.57-4.41-5.55zm3.74 22.16c-1.24.08-1.61-3.73-.26-3.38.96.27 1.21 3.35.26 3.4zm.74-6.69c-1.34-.27-1.8-3.35-.22-3.49s1.78 3.81.22 3.51zm2.54 6.43c-1.75.87-3.28-5.21-.8-4.81 1.38.29 1.7 4.38.8 4.83zm.86-7.65c-1 .36-2.61-4.46-.62-4.49 1.12.01 2.04 4.01.66 4.51zm1.83 6.65c-.43.84-3-4.3-1.14-4.81 1.54-.39 1.35 4.43 1.14 4.83zm.52-8.65c-.93-1.1-2.1-6.09.54-4.62 2.23 1.27 1.01 6.49-.54 4.64zm2.15 5.31c.08 1.45-.41 3.3-1.31 1.1-.45-1.09-.81-3.49.17-4.29.79.01 1.11 2.89 1.14 3.21zm.13-10.74c-.1-.74 0-2 1-2 1.35 0 2 3.88 1.9 4.8s-.34 2-1.48 1.22c-1.01-.61-1.29-2.99-1.42-4zm.82 8.08c0-.48 0-1.69.66-1.39s.4 2 .39 2.45c0 1.25-.18 2.51-.28 3.76a29 29 0 01-.77-4.8zm15.05 19c-1.22 3.21-4.8-5-5.83-4.69-.83.29-.68 5-.79 5.73-.44 2.67-.89 2.31-2.35.32-1.59-2.16-3-4.45-4.4-6.76-.35-.6-2.21-3.13-1.71-3.8 1.21-1.61 3.91 2.12 4.33 2.8.56.9 1.06 1.85 1.59 2.77.13-1.49-.08-6.74 1.51-7.38 1.75-.7 4 3.76 4.83 5 .14-1.67.21-3.35.42-5 .11-.84.29-4.32 1.55-2.82.84 1 .7 3.91.79 5.11.19 2.53.99 6.33.06 8.77zm-9.22-23.19c.93 1.17.77 7-.65 5.62-.96-.87.41-5.87.65-5.57zm-.24-6.64c-.13-2.46 2 0 1.84 1.69-.26 3.31-1.75-.38-1.84-1.69zm3.22 10.42c-.12 2.09-1.09 1.41-1.23-.08-.07-.67-.26-5.71.69-5.92 1.2-.25.6 5.5.57 6zm-.1-10.71c0-1 .87-1.05 1-.06s-.97 1.66-.97.06zm22.16 21.36c-.94 1.64-6.07 5.32-7.67 4.23-1.3-.89-2.28-3.78-3-5.2-.8-1.58-2.08-3.64-2.38-5.41-.44-2.56 4.17-4 6.14-5 1.15-.62 3.41-.87 2 1.06-1 1.42-6.34 2.24-4.93 5 .78 1.53 5.88-.15 3.94 2.31-.91 1.16-2.33.81-2.06 2.57a2.44 2.44 0 002.2 2c1.41 0 2.94-1.52 4.25-2 .42-.17 2.23-.71 1.54.44zm2.34-22c-4.13 2.45-8.37 4.69-12.62 6.92a66.11 66.11 0 01-8.42 4.32c-2.5.89-1.6-1.6-1.65-3.64l-.09-4.22c0-1.15.35-3.2-.08-4.25s0-.7-1.36-.73c-.86 0-3.85.18-4-.72s3.62-3.15 4.26-3.57c2-1.37 4-2.71 6-4.1 7.41-5.17 15.88-10 24.78-11.81 5.63-1.17 11.32-1.84 17-2.57 4.45-.57 8.81-1.92 13.24-2.42 1.47-.18.44.7 0 1.15a28 28 0 01-4.65 3.19c-3.37 2.19-6.71 4.43-10 6.78-7.36 5.28-14.51 11.01-22.38 15.69zM85.37 173c-.12 2.57-3.85 3.28-4.58 5.29-.63 1.73 1.71 3.72 2 5.48.66 4.32-3.72-3.37-4.08-4-.93-1.77-1.89-3.54-2.85-5.29s-.7-1.66.74-2.88c2.88-2.48 8.69-4.26 8.77 1.4zm14.54-.77c-1.49 2.17-4-2-5.62-2.23-2.82-.43-1.61 2.77-1.07 4.17s1 3.62-.84 2.6-3.5-6.07-4.27-8c-1.12-2.79-1.85-4.33.92-6.08 1.63-1 4.13-2.37 5.94-1s1 3.45 1.54 5.33c.4 1.4 4.38 3.81 3.4 5.23zm4.92-3.17c-1.35.07-3.64-5.41-4.21-6.49-.33-.62-3.76-6.18-1.6-6.24 1.4 0 3.45 5.1 4 6.25.15.42 2.69 6.42 1.81 6.5zm12-8.61c-1.24 1.55-4.71 4.38-6.73 4.59-1 .11-.75.36-1.16-.72s0-2.8.11-3.86 1.75-7.53.86-8.2c-1.12-.85-5 4-6.07 1.71-.81-1.83 7.44-6.22 8.55-3.92.36.74-.2 2.4-.3 3.17-.17 1.28-.29 2.55-.41 3.83-.14 1.48-.27 3-.41 4.43 1.06-.57 2.11-1.19 3.2-1.71.63-.26 3.98-1.3 2.41.7zm8.13-2.42c-3.25.7-4.84 1.1-6.06-2.29-.91-2.53-1.61-5.17-2.4-7.74-.38-1.24-.58-1.14.08-1.89s2.92-1.25 3.88-1.52 4-1.47 3.73-.07c-.15.69-2.57 1.35-3.11 1.6-1.39.62-3.25 1.29-2.48 3.14s2 1 3.38 1.16c.68.1 1.59.28 1.26 1.16-.45 1.22-2.53.14-2.81 2.24-.23 1.7.71 2.31 2.15 2.34 1.22 0 3.93-1.39 5-.56 1.67 1.31-1.94 2.31-2.58 2.45zm1 15.14c1.53.08.87 1.75-.37 1.73-1.41 0-.79-1.78.41-1.71zm-10.14 5.73c.56.15.94.85.37 1.29-.84.73-1.42-1.19-.31-1.27zm-4.8.45c.85-1 2.9 1.14 2.07 2.22-1.09 1.43-2.8-1.23-2.01-2.2zM94.65 189c-1.35 0-2.25-2.2-.69-2.45 1.13-.22 2.45 2.39.69 2.45zm4.35-1.17c-.76 1.42-4.65-2.53-3.31-3.87.82-.84 3.68 3.16 3.31 3.87zm3.24-1.49c-1.17 2.26-5.13-3.05-3.32-4.08 1.59-.91 3.91 2.92 3.31 4.08zm4-1.77c-1.17 1.51-4.91-1.82-3.85-3.41 1.11-1.76 4.69 2.22 3.79 3.41zm4-1.93c-.48 2-4.48-1.15-4.32-2.44.16-2.15 4.63.24 4.23 2.44zm8.59 15.86c-.44 1.35-.62.49-1.29-.1-.93-.8-1.1-1-2.38-.75a4.23 4.23 0 00-2.53 1.66c-.44.68-.27 2-.83 2.49-1 .94-1.15-.18-1.32-1.37a43.37 43.37 0 01-.09-6.84c0-1.12-.51-6.2 1.63-6.14 1.53 0 3.44 3.55 4.12 4.61.86 1.43 3.2 4.61 2.6 6.44zm11.08-5.65c-.49 3.21-7.08-4.94-7.83-4.56-1.69.86 2.8 6.58 1.38 7.8-1.18 1-9.74-19.17-1.34-10.75.63.63 3.44 4.32 4.22 3.79 1-.69-2.35-6.36-2-7.65.59-2.41 2.25 2 2.61 2.83.89 2.22 3.23 5.99 2.87 8.54zm7.48-9c-.35 1.72-2.53 6.75-4.61 5.33-1.83-1.24-3.27-5.85-3.83-7.84-.79-2.84 2.51-4.43 5.1-4.17 3.13.3 3.79 4.02 3.25 6.65zm.54-20.19c-.61 1.25-8.52-.36-8.29-1.31s8.98-.41 8.2 1.28zm2-2.93c-1 .84-5.39.72-6.18-.5s1.11-1.31 2.05-1.32c.33-.03 5.45.56 4.01 1.79zm1.29-2.61c-.56.72-1.9-.4-1.26-1.07s1.78.21 1.14 1.04zM151.77 169c-.49 2.7-3.5 4.49-5.76 2.61a8.24 8.24 0 01-2.76-6.78c.43-2.91 3.45-4.8 5.76-2.56 1.58 1.57 3.2 4.44 2.76 6.73zm7.3-8.89a3.28 3.28 0 01-3.95 3.13c-2.2-.24-4.07-2.91-4.54-4.95-.27-1.15-.17-1.76 1.09-1.27 1.1.41 3.29 5 4.6 2.8s-3.35-5.68-2-7.44c.81-1.06 2.58 1.34 3 1.89a8.91 8.91 0 011.8 5.88zm6.19-8.72c-.42.95-3.09-.86-3.61.34-.41.95.8 1 .94 1.77.19 1.15-.69 1.28-1.45 1s-2-2.48-2.42-3.18c-.82-1.54-.94-3.74 1.15-4.27 1.44-.31 6.13 2.81 5.39 4.38zm54.64-20.79c-1.79 1.57-3.8-3.44-5-4-1.74-.78-3.06.71-2.58 2.4.2.69 2.49 4.79.24 4.33-1.33-.28-3-5.25-3.46-6.29-.61-1.35-2.74-4.83-2.25-6.27s4.33-2.62 5.72-2.57c3.42.12 3.06 3.38 3.89 5.81.54 1.54 4.08 5.18 3.44 6.63zm5.71-2.66c-1.65 2.17-3.11-3.28-3.36-4s-3.58-8.81-2.71-9c1.91.66 2.91 4.28 3.65 6 .66 1.44 3.19 5.4 2.42 7.06zm11.3-10.61c-1.58 2.4-.32 7.39-4.16 8.25-3.43.77-5.87-4.85-6.57-7.4-.87-3.2-.41-6.1 3.33-6.16.63 0 2.69 0 3 .88.5 1.59-4.16-.18-4.84 1.38-.77 1.78 2 7.8 4 8.12 1.09.17 2.52-.71 2.29-2s-1.51-.77-2-1.52c-1.83-2.62 5.72-2.7 4.95-1.51zm11.66 2.94c-.57 2.29-2-2.6-2.17-3-.63-1.83-3.26-2.74-4.45-.56-.46.86 1 6.46-1 5.2-.78-.47-.87-3.11-1-4-.29-1.71-.58-3.41-1-5.11-.68-3.09.31-2.09 1.45-.26.84 1.36 3.64 2.44 4.82.69.61-.89-.09-5.91 1.61-2.44 1.06 2.3 2.41 7.05 1.74 9.52zm-9.86 88.22c-.6 1.15-1.93.83-1-.34.39-.36 1.49-.56 1 .38zm3.47-1.08a1 1 0 11-1.86-.34c.25-1.39 2.01-.97 1.86.38zm-3.1 9.12c-1.7 1.16-1.53-.48-.39-1.11 1.36-.7 1.74.24.39 1.15zm4.37-2.13c0 2.14-2.92.68-1.64-1.1.9-1.21 1.73-.04 1.64 1.14zm.58-7.14c-1.31-.68-.12-2.45 1.17-1.66s.15 2.4-1.2 1.7zm1.14 7c-.45-.5-.81-3.17.52-3.23 1.97-.03.98 4.97-.52 3.27zm2.33-7.48c-.59-2.31 1.8-2.78 2.09-.56.2 1.55-1.59 2.49-2.09.6zm2.71 6.59c-.44 2.9-3-1.41-2.23-2.74 1.15-1.95 2.38 1.81 2.23 2.78zm7.58 1.06c-1.32 1.92-2.22-1.52-2.33-2.2-.19-1.21-1.22-6.23-.1-7.14 1.29-1 1.59 2.36 1.71 3.17.17 1.19 1.42 5.19.72 6.21zm7.51 1.22a.81.81 0 01-1.11.79c-1.19-.34-1.45-3.37-1.55-4.23-.19-1.77-.76-5 .58-6.46 1.27-.09 2.21 8.83 2.08 9.94zm2 0c-.91-1.65-.91-4.24-1.1-6.07-.09-.92-.68-3.55.82-3.15s1.64 5.31 1.83 6.47c.09.58.7 2.17.5 2.69a1.11 1.11 0 01-2.08.1zm5.34-1.61c-.24 2.15-1.37 2.94-2.08.5-.35-1.21-1.16-5.79 0-6.78 2.3-1.88 2.17 5.24 2.05 6.32zm1.68-3.77a.35.35 0 01.32-.29c1 .66 2 2.66 1.27 3.8-1.34 2.11-1.82-2.78-1.62-3.47zm-11.24-23.57c2.7-.67 3.66 4.91 5.83 5.94 2.78 1.33-.27-4.12.59-5.37s2.25-.13 2.68.83c1.1 2.44 1 5.85 1.25 8.49.08.83.69 3.19-.41 3.59-2.51.89-4.66-5-6.32-5.66-2.32-1-.46 4.35-1.25 5.44-1.13 1.56-2-.59-2.24-1.57a65 65 0 01-1-7.38c-.21-1.77-1.29-3.9.84-4.27zm-4.32 19.52c.18-2.8 1.91 1 2.06 1.69.34 1.65 1.15 5.79.17 7.39-.74 1.21-1.14.49-1.54-.7a24.31 24.31 0 01-.72-8.34zm-4.62-18.18c0-1.2.6-2.74 2.22-2 .71.32.58 1 .73 1.93.48 3.12 1.07 6.25 1.32 9.4.09 1 .46 3.27-1.29 3.05-1.24-.15-1.39-1.8-1.62-2.76a36.59 36.59 0 01-1.39-9.58zm-.82 18.65c.32 1.62 1.33 5 .77 6.59-.74 2-2.15.36-2.54-1-.45-1.6-1.08-5.2-.22-6.71s1.67-.09 1.96 1.16zM242.14 191c.41-1.72 1.3-7.88 4.14-5 1.8 1.85 2.81 5 3.85 7.3.6 1.31 2.51 4.26 2.22 5.82-.43 2.26-2.91-.56-3.93-1.15-.86-.5-2.5-1.32-3.55-1.13s-1.23 1.24-2.16 1.88c-3.71 2.61-.77-6.83-.57-7.72zm-21.77-23.75c1.17 1 2.77 3.06 2.77 4.69 0 2.66-2.49.92-3.34-.24-.6-.8-1.75-2.64-1.65-3.64.15-1.43 1.2-1.65 2.22-.77zm6 3.23c0 1.55-4.72-2.29-4.35-4.2.53-2.97 4.31 2.72 4.31 4.24zm-3.17 5.31c0-2.47 3.56.5 2.76 1.67s-2.8-.58-2.8-1.63zm-1.57 1.21c-.12.06-1.17.28-1.4 0-.69-.71 2.27-.46 1.4 0zm-5.06-4.29c-.42-.61-2.12-2.76-1.56-3.62 1-1.47 2.59 1.29 3 1.91s2.78 4 .77 4.05c-.84.02-1.88-1.85-2.21-2.34zm-23.67 9.14c.71-1.28 2.39-6.24 4.39-6.2 2.76 0 3.65 7.94 4.06 9.79.31 1.38 1.83 4.89-.21 5.25-1.19.2-1.57-.83-2.24-1.45a6.78 6.78 0 00-2.53-1.57 10.31 10.31 0 00-3.66-.39c-.45 0-1.3.23-1.68-.17-1.03-1.06 1.42-4.43 1.87-5.26zm-15.67-13.66c.56-1.22 2.31.19 2.74.82.86 1.23.89 3.26 1.29 4.69s.35 2 1.86 1.36 2.5-2.37 4-2.71c3.77-.89 1.38 10.48 1.13 12.18-.49.48-.06 1.11-1 1.26-.78.12-1.46-1-1.61-1.61-.26-1 1.44-5.78-.4-6-1.62-.21-3.12 4.65-4.55 4.07-1.16-.46-.52-5.7-2.07-5.66-1.26 0-.46 4.57-2.5 4.18-1.16-.22-.68-2.2-.61-2.93.26-3.03.49-6.84 1.72-9.65zm8.48 24.33c0-.85 2-.23 1.86.37s-1.86.36-1.86-.37zm-4.27 4.19c-1.34 1.64-4.58-3.86-5.28-4.81a23.6 23.6 0 01-3.08-4.5c-.37-.92-.94-1.23.21-1.36 1.35-.15 3.26 2.07 4 3s5.19 6.4 4.15 7.67zm.12-3.58c-.67-1-2.76-5.12.16-2.76.8.64 4.23 4.12 2.54 5-1.04.63-2.26-1.61-2.7-2.24zM197.7 204c-.24.52-15.16-5.59-15.14-5.75.22-1.4 16.44 3.2 15.14 5.75zm3.08-2.22c-.78.46-3-.7-3.73-1-1.7-.63-3.39-1.31-5.06-2a44.91 44.91 0 01-4.11-1.9c-.52-.28-2.17-.79-1.11-1.3 1.54-.74 6.43 2.13 7.9 2.76.49.22 6.56 3.19 6.11 3.45zm3-2.34c-.95 1.83-5.3-1.1-6.5-1.65q-2.28-1.05-4.58-2.05c-.59-.26-2.51-.71-2.79-1.27-.69-1.39 5.16.93 5.56 1.08 1.18.45 9.11 2.37 8.31 3.9zm1.45-46c.05.1-.72-1.36-.32-1.47 1.26-.38 5.4 5.23 6.33 6.26-.11-1.53-.23-3.06-.33-4.59-.08-1.35-.82-5 1.23-4.21 1.36.55 3.13 5.71 4.45 3.71.6-.91-1.67-6.21-.1-6.37 2.1-.22 2.47 7.39 2.61 8.34.24 1.62 1.34 8.16-2.12 5.2-1.46-1.25-2.37-3.52-3.32-5.17 0 2.1.68 6.11-.31 8-.55 1.07-.61.84-1.61-.18a22.67 22.67 0 01-2.13-2.65 47.1 47.1 0 01-4.38-6.84zm3.71 39.1c-1.43 2.53-2.38-.93-2.42-1.86-.08-1.94 0-3.9.06-5.84 0-1.1-.47-4.69.6-5.55 2.86-2.32 2.29 3.9 2.29 4.82-.03 2.23.59 6.47-.53 8.46zm3.31-17.91c-1.38 1.14-6.46-1.95-2.88-2.49.55 0 3.49 2.01 2.88 2.52zm1.19-.57c-.42-.48-2.21-2.42-1.63-3.29s1.4-.18 2 .4 3 3.26 2.32 4.44-2.32-1.09-2.69-1.52zm11.27 22.5c-2.58.31-5.56-7.75-6.8-7s1.06 4.28.15 5.36-2.22-.21-2.63-1c-.72-1.43-.53-3.73-.62-5.26s-.93-5.7 0-7c2.22-3.14 6.09 7.51 7.62 7.34 1-.13-.72-5.83.85-6.6 2.7-1.32 2.13 4.54 2.21 5.66.13 1.74.24 3.49.36 5.23.15 1.91.94 3.05-1.14 3.3zm1.79-21c-2-3.15.95-2.46 2.51-.7.56.62 2 2.16 1.11 3-1.35 1.23-3.12-1.42-3.62-2.26zm11.29 9.06c.91.1 2.24 1.33 1.54 2.4-.51.78-1.69.14-2.46.32-1.85.44-1.67 2.11-1.67 3.79s1 5.64-.1 6.91c-.81.92-1.73.43-2.2-.44-.93-1.75-.58-4.54-.69-6.48-.08-1.32.23-3.39-.68-4.15s-6.11-1.55-3.55-3.3c1-.68 4 .12 5 .27 1.63.27 3.22.53 4.81.72zm-6.35-14.21c.39-1.75 4.51.91 3.76 2.82-.83 2.14-4.07-1.3-3.76-2.78zm.13 3c.44.44 2 1.81 1.68 2.66-.51 1.33-2.28-.83-2.51-1.1s-1.79-2-1.63-2.7c.32-1.27 1.79.49 2.46 1.17zm-3.7-7.44c1 .62 3 1.63 2.32 2.88-.94 1.77-3 .39-3.57-.57-1.28-2.13-1.77-4.18 1.25-2.28zm4.71-11.88c-.32 1.86-6.25 4.45-7.87 3.53-1.44-.82-1.76-5-2.11-6.52s-2.13-5.59-.87-7c.75-.87 7-2.49 7.45-1.55.57 1.09-5 2.63-5.31 3.89-.74 2.82 3.5 1.05 4.12 2.85.43 1.22-1.55 1.39-2 2.26a1.9 1.9 0 00.81 2.69c1.2.36 6.12-2.38 5.78-.12zm38.18-26.58c0 1.84-1 3.72-1.83 1.31-.22-.66-.33-3.74.88-3.83s.95 2.01.95 2.55zM262 116.32c1.49-1 3.73 3.89 5.21 2.21 1.12-1.28-2.77-4.23-3.23-5-2.64-4.38 3.63-7.19 5.95-3.05.28.49.76.9.26 1.5-1 1.18-2.25-1.31-2.95-1.72-1.27-.74-2.14-.06-1.74 1.29s2.19 2.52 3.14 3.63c1.58 1.85 1.88 5.42-1.2 6.17-1.87.47-6.5-2.78-5.44-5.03zm-.69 9.7c.15-1.29 1.48-1.81 2.25-.72.48.69.45 3.51.07 4.3s-.85 1.45-1.8.65-.65-3.25-.53-4.25zM260 127.8c0 3.32-1.81 3.71-1.89.48 0-.65-.27-3.29.94-3.36s.95 2.27.95 2.88zm-5.85-9.87c-.3-2 .07-5.32-1.39-6.87-.76-.81-2.23-1.21-3.22-1.66 2.23-.23 4.44-.59 6.66-.84.62-.07 2.79-.49 2.91.6.15 1.37-2.69.87-3.21 1.49-1.22 1.45.22 6.27.2 8-.1 3.51-1.66 1.43-1.98-.72zm.94 10.06c0-.55.45-1.36 1.1-1.11.88.34.32 2.81.17 3.31-1.12 3.6-1.6-.73-1.3-2.19zm-3.29 3.23c.27-1.35 1.61-1.7 1.14.1-.35 1.22-1.47 1.29-1.17-.1zm-.09 29.35c-.08 3.63-2.44-.81-1.61-2.59 1.21-2.67 1.68 1.56 1.58 2.59zm.25-13l-1.13-2.68c-.33 2-.87 8.82-3.44 4.71a41.05 41.05 0 01-3.19-7.47c-.28-.76-2-4.55-.43-4.52s2.52 5.69 3.7 5.5 1.25-4.16 1.45-4.91c1.1-4.06 3.57 2 4.36 3.47.34-1 2.05-7.2 3.29-4.48.49 1.08-.18 3.45-.32 4.56-.23 1.92-.5 3.84-.85 5.74-.57 2.95-2.13 3.32-3.47.12zm3.64 17.54c-.27 1.38-2.26-1.38-2.39-1.88-.27-1.06-.74-5.07 0-6s.78.16 1.11 1.16c.6 1.85 1.68 4.89 1.25 6.76zm4.51 1.82c-.82 1.52-3.82-4.48-4-5.13-.42-1.42-1.4-4.89.35-5.8 2.43-1.27 2.24 2 2.29 3.3a20.5 20.5 0 00.45 4c.18.96 1.36 2.7.88 3.7zm1.86-1.46c-1 .91-1.65-2.16-1.73-2.67-.25-1.66-.75-4.69 0-6.27.94-2.08 1.26 1.7 1.38 2.61s1.31 5.48.32 6.37zm-.62-16c-1.26-1.5-.89-5.4-1-7.15-.05-.65-.79-6 .67-5.67 1.62.38 1.55 7.66 1.72 9 .1.77.73 2.83.29 3.55a1 1 0 01-1.71.27zM265 165.6c-.76 2.88-1.94-1.92-2-2.39-.22-1.76-1.28-5.92-.43-7.6s1.72 0 2 1.19c.69 2.52 1.14 6.27.43 8.8zm.08-36.7c-.16-1.19.71-6.43 2.15-3.32a5.78 5.78 0 01-.32 3.84c-.67 1.26-1.57 1.02-1.79-.52zm1.2 13.92c0-.5-.28-6.37.69-6.44 1.64.84 1.12 6 1.36 7.58.51 3.51 2.48 2.21 5.35 3 4.13 1.2-1.7 2.14-3 2.24-1.48.1-3 .17-4.45.26zm2.84 20.72c.11 2.26-1.89 1-2.34-.22a16 16 0 01-.54-3.71c0-.26-.56-4.08.3-4.2 1.3-.17 2.62 7.23 2.62 8.13zm2.66.37c-2.73.14-3.45-9-1.92-9.22 2.42-.37 3.7 9.12 1.96 9.22zm4.51-2.2c-.32 1.16-1.85.28-2.25-.33-.5-.78-1.51-4.91-1.19-5.69.57-1.35 1.86-.39 2.44.61.71 1.18 1.43 4.11 1.04 5.41zm3.7-1.08a1.16 1.16 0 01-1.39.94c-1.17-.28-2.08-4.07-1.92-5 .2-1.15 1.09-1.45 2-.54a8.26 8.26 0 011.32 4.6zm3.44.32c-1.15.44-1.76-.09-2.23-1-.34-.66-1.16-3.44-.68-4.17 1.59-2.39 4.66 4.47 2.95 5.22zm-3.25-11c-2.72-.43-2.35-1.2-2.25-3.78a55.1 55.1 0 01.61-7.6c.18-1 .22-2.57 1.07-1.45s.48 4.17.53 5.65c0 .81-.35 3.7.16 4.31s2.6.39 3.31.49c1 .15 4.21.54 3 2.25-.96 1.39-5.1.3-6.39.09zm6.92 8.93c-.56 4.76-4.07-1.89-2.16-2.81 1.39-.68 2.32 1.84 2.2 2.77zm3-.48c-.71 1.36-1.93.71-1.86-.66.19-2.4 2.65-.8 1.92.62z"/><path d="M196.27 184.69c2.66 1.55 2.48-3.3 1.33-4.2s-3.41 3.22-1.33 4.2z"/></svg>