<svg xmlns="http://www.w3.org/2000/svg" width="500" height="300" viewBox="0 0 500 300"><path fill="#012d6a" d="M0 0h500v300H0z"/><path d="M300.81 125.59a710.3 710.3 0 01-5.28-9.81 1.39 1.39 0 00-1.37-.85 26.87 26.87 0 01-6.81-1h-.13l-.55-.18a27.49 27.49 0 01-4.81-2.13c-.79-.5-1.86-1.22-2.84-1.88a5.13 5.13 0 00-1.11-.76l-1.22-.83h-53l-.87.88-.08.26c-1.11 1-3.47 2.67-8.36 4.49a28.26 28.26 0 01-7.4 1.19c-.47 0-.92 0-1.22.54-1.8 3.4-3.64 6.78-5.48 10.16-.2.37-.23.58.15.87 5.15 3.94 7.32 9.38 7.76 15.66a45.43 45.43 0 01-1.41 14.13c-.76 3-1.91 6-2.56 9.07-1 4.84-1.6 9.71-.55 14.62a19.11 19.11 0 0013 14.84c4.07 1.45 8.2 2.7 12.3 4.08 8.12 2.73 15.29 7 20.93 13.56.65.77.68.76 1.33 0A43.14 43.14 0 01266 201.36a119 119 0 0113.47-4.9 49.78 49.78 0 007-2.38c7.6-3.82 11.26-10.17 11.5-18.6.17-5.72-1.13-11.2-2.86-16.6a43.91 43.91 0 01-2-18.24c.62-5.69 2.92-10.52 7.53-14.07.42-.33.41-.57.17-.98z" fill="#f4c22a"/><path d="M299.08 125.71l-4.83-9.11a31.27 31.27 0 01-16.72-6.35h-2.72v-.84h-51.12v1a32.42 32.42 0 01-16.87 6.22l-4.82 9.08s7.5 5.54 7.88 18.68a63.1 63.1 0 01-3.47 18.81c-3.53 10.26-1.59 20.79 3 25.08s6.15 4 19.28 9.23c10.53 4.18 15.21 6.89 21.94 13.32 5-5.21 14.53-11.32 22.42-14.05 13.62-3.74 14.05-4.2 18.64-8.5s6.54-14.82 3-25.08a62.94 62.94 0 01-3.48-18.81c.38-13.14 7.87-18.68 7.87-18.68z" fill="#fefefe" fill-rule="evenodd"/><path d="M338.64 125.28c-1.26-8.9-4.53-17.08-8.64-25l-.15-.29s-2.94-5.64-4.93-8.66c-.06-.09-.11-.17-.16-.23a61.83 61.83 0 00-6.48-8.64A85.6 85.6 0 00306.6 72a55.47 55.47 0 00-4.68-3.64 168.77 168.77 0 00-16.56-8.89c-5.63-2.59-11.34-5-17.54-5.89a18.82 18.82 0 00-9.09.59 6.69 6.69 0 00-4.17 3.71 10.43 10.43 0 00-.74 6.19q.13.66.21 1.32c.09.72-.23 1.05-1 1.07-2.87.1-5.75.23-8.62.35-1.37.06-1.5-.15-1.64-1.43A19.28 19.28 0 00241 58a7.62 7.62 0 00-6.8-4.23 26.23 26.23 0 00-10.65 2 120.44 120.44 0 00-18 8.62 93.08 93.08 0 00-18.67 14 78.22 78.22 0 00-6.82 7.28c-1.57 2-3.07 4.09-4.58 6.14l-.25.35s-3.77 5.29-4.39 7.59c0 0 0 .11-.08.16a92.77 92.77 0 00-7.42 18.05 68.48 68.48 0 00-2.74 17.71 51.24 51.24 0 00.73 9.34c.1.62-.09 1.37.65 1.67s1.18-.34 1.69-.68a4.72 4.72 0 00.8-.81 18.7 18.7 0 003.74-6c.7-1.73 1.29-3.45 3-4.47.21-.12.33-.38.49-.58a18 18 0 003.48-8.6 2.54 2.54 0 011.59-2.39 5.47 5.47 0 001.54-1.13c1.71-1.44 2.62-3.44 3.77-5.26 1-.79 1-1.82.92-2.85 1.2-2.43 3.53-8 6.12-6.31a1.3 1.3 0 001.2.17c0 .07 0 .13.05.2a1.18 1.18 0 001 .6c.94-.11 1.41-.82 1.91-1.48a3.48 3.48 0 011.2-1.21c3.67-1.7 6.25-5.24 10.4-6.14a3.24 3.24 0 001.47-.88c2.42-2.37 5.6-2.57 8.66-3.2 1-.2 1.26.12 1.29 1A5.89 5.89 0 00217 99a5.21 5.21 0 003.65 2.57c1.43.38 1.76-1 2.38-1.81A2.41 2.41 0 01226 99a19.07 19.07 0 017.64 4.27c1.24 1.07 1.16 1.49-.34 2.11-1.31.54-2.67 1-3.33 2.4a1.41 1.41 0 000 1.38c.46 0 15.93.07 15.93.07h.06a28.94 28.94 0 017-.45 8.23 8.23 0 012.86.41s13.13-.16 13.28 0a.73.73 0 01.35-.25l.08.29h2.08a2.61 2.61 0 00-.29-1.27 1.64 1.64 0 00-.31-.42 6.9 6.9 0 00-1.57-1.15c-1.58-1-1.82-2.14-.73-3.66a13.44 13.44 0 012-2.08 20.73 20.73 0 005.57-7.93c.44-1.15.92-1 1.85-.47a31.92 31.92 0 009.53 3.34c3 .52 5.4 2.14 7.87 3.59s4.94 3.13 7.47 4.53a35.27 35.27 0 015.5 3.29 2.76 2.76 0 003.11.59 11.87 11.87 0 003.26.3c.42 0 1-.25 1.27 0s.21 1.64.25 2.16c.16 2.57.51 5.08 2.11 7.17a1.58 1.58 0 00.55.46 2 2 0 00.79.93 6.87 6.87 0 00.81.51 5.85 5.85 0 013.22 4.11c1 3.5 2.8 6.59 6.17 8.43a2 2 0 01.9 1.38 16.17 16.17 0 003.65 6.64 8.23 8.23 0 003.87 2.79 52.71 52.71 0 00.88-7.68 54.16 54.16 0 00-.7-9.51z" fill="#010001" fill-rule="evenodd"/><path d="M318.09 108.54c.32 1.61.7 3.2 1.08 4.79.11.47.2 1 .3 1.54a.68.68 0 01.71.26c.92 1 2 1.75 3 2.65a57.65 57.65 0 00-1.26-7.37c-.19-.84-.65-1.68-.21-2.58a.83.83 0 01.86 0 120.56 120.56 0 013.9 13.43c.47 1.86.74 3.78 1.81 5.43.38.58.77 1.43 1.53 1.27s.58-1.16.58-1.8a36.19 36.19 0 00-1.11-8.15 6.71 6.71 0 01-.26-1.38s-3.73-12.2-4.78-13.18 1-.45 1-.45 4 10.3 4.62 13.07a57.43 57.43 0 011.78 8.51v-.09c.35 2 .66 4.07.86 6.13a14.83 14.83 0 002.3 6.63c.51.79 1.07 1.85 2.16 1.56s1-1.51.95-2.46a71 71 0 00-1.13-10.07 87.29 87.29 0 00-8-24.29c-.19-.26-.39-.55-.58-.87a68.78 68.78 0 01-3-7 7.38 7.38 0 00-2 1.09c-.05.52-3.58 1.88-4-.43-.25-1.23-.65-1.55-1.71-.82-.84.57-2.34.11-2.7 1.05-.45 1.19.49 2.41.8 3.62-.08.37 2.17 8.3 2.5 9.91zM312.05 104.89a7.77 7.77 0 011.13-1.33c0-.13-.07-.26-.1-.38a46.81 46.81 0 01-1.37-7c-.13-.88-.4-1.59-1.5-1.63s-1.7.26-1.51 1.53a23.86 23.86 0 003 8.24c.12.22.24.39.35.57z" fill="#8e492d"/><path d="M194.63 95.54c-1.89 1-3.07 2.3-3.19 4.47a41.45 41.45 0 01-.79 4.93c-.14.8-.19 1.7-1.2 2h-.08a6.25 6.25 0 00.65.61l.38.26c-.29-.93.3-1.62.75-2.34a27 27 0 003.27-7.55 5 5 0 00.21-2.38zM189.44 100.09c.11-2-.09-2.26-2-1.86a10.94 10.94 0 01-2.4.52 3 3 0 01-1.85-.73 3 3 0 00-1.87-.85 2.17 2.17 0 01-1-.45c-.2-.16-.38-.29-.53-.42a2.19 2.19 0 00.72.14c-.08-.71-1-.5-1.23-1.16a3.77 3.77 0 002.59-2.56 8 8 0 01.66-1.17q1.92-3.09 3.85-6.18c.7-1.11.66-1.59-.3-2.43s-1.23.23-1.64.63a35.34 35.34 0 00-5.44 6.91 5.31 5.31 0 00-.77 4.72v.08a3.76 3.76 0 01-2.32-.61 17.39 17.39 0 01-3.16 4.08 2 2 0 01.41 1.34.14.14 0 000 .06c-.06-.1-.13-.19-.19-.28a111 111 0 00-6.23 15.44 86 86 0 00-3.69 18.15c-.28 2.92-.16 5.88-.19 8.82 0 .64.07 1.34.76 1.64s1.2-.25 1.6-.73a10.74 10.74 0 002.37-5.57c.44-3.73.48-7.51 1.15-11.22v-.06h.07c1.23-7.94 4.11-24.1 7.16-23.78 0 0-2.87 1.36-6.84 29.4a5.89 5.89 0 00.13.71c.31 1.12.84 1.32 1.75.66a3.84 3.84 0 001.07-1.33 9.94 9.94 0 001.17-3.41c.55-3.4 1.2-6.78 2-10.14s1.45-7.91 2.89-11c.91-1.92-.14 1-1 4.63-.12 1.08-.41 2.13-.55 3.2a27.35 27.35 0 00-.52 7.09 3.34 3.34 0 002.15-1.25c2.44-2.64 3.29-6 4.15-9.59l.28 1c.38.33.22.81.32 1.21v-5.61l4.64 1.28.81-3.51c-.11-2.01.91-3.82 1.02-5.81z" fill="#904b2e" fill-rule="evenodd"/><ellipse cx="250" cy="150" rx="123.56" ry="123.57" fill="none" stroke="#ffc324" stroke-miterlimit="10" stroke-width="5.9"/><path d="M169.88 92.91a1.29 1.29 0 01-.16-.17h.1c.02 0 .05.09.07.13z" fill="#fdc324" fill-rule="evenodd"/><path d="M255.53 124.83a.75.75 0 01.77.26l-.72.19c-.01-.15-.03-.28-.05-.45z" fill="#151c1d" fill-rule="evenodd"/><path d="M253.67 122.88a.75.75 0 01.77-.38l.07.25c-.23.36-.5.45-.84.13z" fill="#552617" fill-rule="evenodd"/><path d="M255.22 122.11l-.38.42a.23.23 0 01-.4 0c.15-.36.45-.41.78-.42z" fill="#532818" fill-rule="evenodd"/><path d="M249.08 125.22c-.14.11-.29.21-.44.31z" fill="#5b3121" fill-rule="evenodd"/><path d="M257.91 122.11a4.85 4.85 0 01-2.3 1.19.27.27 0 01-.4 0c-.13-.08-.18-.17-.13-.25s.08-.13.13-.13c.95-.09 1.68-.92 2.7-.81z" fill="#592a19" fill-rule="evenodd"/><path d="M255.21 122.89a2.41 2.41 0 000 .38c-.69-.12-1.26.36-1.93.38v-.39l.39-.39a.74.74 0 00.77-.38h.4z" fill="#7c4329" fill-rule="evenodd"/><path d="M259.83 121.34a2.24 2.24 0 01-1.94.78 2.27 2.27 0 011.94-.78z" fill="#532818" fill-rule="evenodd"/><path d="M245.23 122.89a.79.79 0 01-.79-.4.81.81 0 01.79.4z" fill="#542517" fill-rule="evenodd"/><path d="M255.21 123.27h.4a1.6 1.6 0 000 .31.47.47 0 01-.4-.31zM253.28 123.65c-.08.17-.35.36-.38.28-.16-.44.25-.17.39-.27zM254.78 124h-.31c.1-.18.2-.2.31 0z" fill="#7c4329" fill-rule="evenodd"/><path d="M245.6 123.66l.5.13c-.27.35-.36 0-.5-.14z" fill="#7c442a" fill-rule="evenodd"/><path d="M241 63.31c-.06 3.47-1.4 6.59-2.79 9.68-.53 1.16-1.21 2.25-1.82 3.38a1.29 1.29 0 01-1.74.75c-.74-.32-.66-1-.55-1.68a7.49 7.49 0 01.45-1.25 21.53 21.53 0 001.84-8c0-3.58-2-5.71-5.66-5.92a20.78 20.78 0 00-7.17 1 65.71 65.71 0 00-14.31 6.43 124.41 124.41 0 00-17.45 12.19 5.88 5.88 0 01-2.64 1.51c-.91.17-1.39-.32-1.12-1.2a5.55 5.55 0 011.75-2.69c6.45-5.51 13.21-10.6 20.74-14.44a77.81 77.81 0 0118.08-6.8 15.14 15.14 0 016.26-.36c4.33.84 6.13 2.98 6.13 7.4zM255.18 62.36c-.27-4.26 2.34-7.09 7.09-7.48a30.47 30.47 0 0110.38 1.4C285 59.52 295.91 65.45 306 73.16c.71.55 1.4 1.11 2.06 1.72a3.45 3.45 0 011 1.63c.3 1.12-.22 1.65-1.31 1.31a8.79 8.79 0 01-2.49-1.41 126 126 0 00-21.36-12.56 52 52 0 00-14.18-4.55 15.84 15.84 0 00-5.14.05c-3.7.65-5.07 3.74-4.58 7a24.26 24.26 0 002.24 6.9 4 4 0 01.64 2c0 .48-.11.92-.59 1.11a1.18 1.18 0 01-1.27-.18 2.74 2.74 0 01-.49-.58 35.81 35.81 0 01-5-10.52 8.72 8.72 0 01-.35-2.72z" fill="#904b2e" fill-rule="evenodd"/><path d="M299.59 79a3.21 3.21 0 013.45.82 14.69 14.69 0 012.82 3.36 44.32 44.32 0 013 5.76 3.63 3.63 0 01.48 1.83 1.18 1.18 0 01-1.88 1 2.69 2.69 0 01-1.11-1c-2.22-3.88-4.44-7.77-6.76-11.77z" fill="#8f4a2d" fill-rule="evenodd"/><path d="M197.36 81.94a1.09 1.09 0 01-.18.94c-1.76 3.54-3.53 7.08-5.28 10.63a4.06 4.06 0 01-1.62 1.83 1 1 0 01-1.58-.71 3 3 0 01.08-1.7 33 33 0 014.33-8.71 6.37 6.37 0 012.28-2 2.24 2.24 0 011.97-.28zM319.81 89.23c0 1.59-.93 2.18-2.27 1.56a2.83 2.83 0 01-1.17-1.23 77.22 77.22 0 00-5.51-8 1.75 1.75 0 01.48-2.55c.34-.23.59-.09.84.14a36.06 36.06 0 017.16 8.41 3.33 3.33 0 01.47 1.67zM192.1 82.1l-2.1 4.19a43.07 43.07 0 00-2.83 7.7 4.49 4.49 0 01-1.47 2.18 1.47 1.47 0 01-1.89.39 1.8 1.8 0 01-.78-1.84 5.34 5.34 0 01.36-1.48c1.56-3.44 3.27-6.79 6.11-9.39a8.6 8.6 0 012.6-1.75z" fill="#8e492d" fill-rule="evenodd"/><path d="M305.36 79a15.5 15.5 0 016.48 6c.93 1.37 1.65 2.87 2.49 4.3a3.67 3.67 0 01.44 2.4 1.26 1.26 0 01-1.93 1.08 3.73 3.73 0 01-2.14-2.32A58.22 58.22 0 00305.36 79z" fill="#8e4a2d" fill-rule="evenodd"/><path d="M301.68 87.08c0 1.16-.23 1.33-1.14 1a6.12 6.12 0 01-2.12-1.27 14.28 14.28 0 01-3.91-7.09c-.2-.77.1-1.08.85-1a5.69 5.69 0 014.44 2.65 12.38 12.38 0 011.88 5.71z" fill="#8f4a2d" fill-rule="evenodd"/><path d="M196 89.48c.29-2.19.75-4.69 2.77-6.57a5.42 5.42 0 013-1.48c.71-.09 1.09.13.92 1a15.51 15.51 0 01-3.1 6.93 5.94 5.94 0 01-1.91 1.57c-1.4.72-1.68.55-1.68-1.45zM284.9 82.67a5.44 5.44 0 014.59 1.75 2.31 2.31 0 01.7 1.31c.37 3.5 1.92 6.58 3.57 9.63-3-.91-7.46-7.25-8.86-12.69zM204.59 98.05c-.18-.5.2-.85.37-1.23a30 30 0 002.5-8.39 4.47 4.47 0 014.36-3.55c.48 0 .74.25.61.72-.18.68-.41 1.34-.65 2a24.11 24.11 0 01-6.29 9.91c-.25.23-.43.63-.9.54z" fill="#8e4a2d" fill-rule="evenodd"/><path d="M217.63 84.5c-1.51 3.33-2.88 6.34-4.24 9.35a2 2 0 01-.88 1c-.62.34-1.32.73-2 .25s-.2-1.18 0-1.75c1-2.68 2.11-5.33 3.14-8a1.15 1.15 0 011.31-.82c.82.01 1.58-.03 2.67-.03z" fill="#8e492d" fill-rule="evenodd"/><path d="M280.05 82.7a1.4 1.4 0 01.37-.11c.94 0 2-.35 2.8 0s.87 1.62 1.29 2.48c1 2.06 2 4.15 2.93 6.23.21.45.54.94.06 1.41a1.39 1.39 0 01-1.45.16 2.2 2.2 0 01-1.47-1.14q-2.28-4.32-4.52-8.65c-.06-.08-.01-.26-.01-.38z" fill="#8e4a2d" fill-rule="evenodd"/><path d="M308.73 104.44a25.5 25.5 0 01-6.24-13.25c1.33.36 2.07 1.37 3.1 1.88 1.3.63 1.36 1.84 1.6 3 .48 2.43 1.09 4.83 1.65 7.24a1.13 1.13 0 01-.11 1.13z" fill="#8e492d" fill-rule="evenodd"/><path d="M297.81 96.94a9 9 0 01-3.86-4 22.55 22.55 0 01-2.13-6.74c-.13-.69.13-.93.83-.83 2 .29 2.29.59 2.47 2.51a27.56 27.56 0 002.24 7.9c.16.36.3.76.45 1.16z" fill="#8c492c" fill-rule="evenodd"/><path d="M200.72 99.71c-.28-.77.23-1.37.43-2a25 25 0 001.46-7.65 2.29 2.29 0 012.56-2.06c.64.11.51.64.49 1.06a15.79 15.79 0 01-3.48 9.51c-.39.43-.74 1.01-1.46 1.14z" fill="#8d492c" fill-rule="evenodd"/><path d="M272.2 74.06a5 5 0 014.09 3.07c.52 1.19 1.22 2.39.59 3.77a5.46 5.46 0 01-3.22-1.45 7.71 7.71 0 01-2.82-4c-.42-1.26-.3-1.45 1.36-1.39zM275.12 71.71a11.41 11.41 0 015.68 3.79 4.45 4.45 0 01.87 3.06c-.08.89-.41 1.12-1.27.83a6.3 6.3 0 01-2.94-2.06 12.85 12.85 0 01-2.34-5.62z" fill="#8e492d" fill-rule="evenodd"/><path d="M200.37 92a16.91 16.91 0 01-4.47 11.58c-.45-.53-.19-.93-.09-1.33a26.16 26.16 0 00.91-6.81c0-.78.11-1.35.95-1.62a10.69 10.69 0 002.7-1.82z" fill="#8d492c" fill-rule="evenodd"/><path d="M297.33 88.91c1.35 1 2.25 1.8 3.45 2.09a.66.66 0 01.5.72c0 3 .83 5.75 1.46 8.62a16.35 16.35 0 01-5.41-11.43z" fill="#8e492d" fill-rule="evenodd"/><path d="M220.31 82.61c-.48-3.83 1.61-6.81 5.08-7.25.83-.1 1.08.13.91 1-.66 3.01-3.42 5.99-5.99 6.25zM221.6 73.37a13.58 13.58 0 01-1.6 5.11 6.22 6.22 0 01-1.61 1.88c-.73.59-1.64 1.53-2.5.87s-.43-1.81-.16-2.73a5.77 5.77 0 012.1-2.91 10.87 10.87 0 013.77-2.22z" fill="#8e4a2d" fill-rule="evenodd"/><path d="M282 67a7.58 7.58 0 01-8-4.13c-.35-.67-.06-.94.61-1A7 7 0 01282 67z" fill="#8d492d" fill-rule="evenodd"/><path d="M230 62.4c-.56 3.51-2.08 5.06-5 5.15-1.32 0-1.47-.14-1.27-1.38A4.52 4.52 0 01230 62.4zM214.56 69c.84-3.68 3.51-5.49 7.56-5.23-.44 3.15-3.76 5.5-7.56 5.23z" fill="#8e492d" fill-rule="evenodd"/><path d="M266.19 61.2c3.36-.75 5.59.39 6.24 3.19.32 1.4.09 1.68-1.36 1.68-2.95-.02-4.6-1.67-4.88-4.87z" fill="#8e4a2d" fill-rule="evenodd"/><path d="M209.46 78a11.18 11.18 0 01-3.07 6.32 5.58 5.58 0 01-.87.74c-.48.29-1 .84-1.55.47s-.28-.95-.23-1.44a6.35 6.35 0 012.12-4.37 6.46 6.46 0 013.6-1.72zM221.57 85.57c-1.06 2.19-2.33 4.18-3.22 6.38-.46 1.13-1.61 1.9-2.15 1.55-1-.64-.57-1.56-.31-2.42a15.91 15.91 0 012-4.74c.25-.37.48-.79 1.05-.5a2.76 2.76 0 002.63-.27z" fill="#8d492c" fill-rule="evenodd"/><path d="M275.54 83.72c1.28.37 2.11 1.11 3.07.3.42-.35.69.1.91.38a15 15 0 012.58 5.49c.15.6.26 1.36-.52 1.65s-1.21-.23-1.62-.72a4.88 4.88 0 01-.6-1 53.18 53.18 0 00-3.82-6.1z" fill="#8d492d" fill-rule="evenodd"/><path d="M287.61 75.65c3.66.67 5.9 3 6 6.12 0 1.22-.24 1.44-1.29.89a10.16 10.16 0 01-4.71-7z" fill="#8d492c" fill-rule="evenodd"/><path d="M227.53 81.39c-1.36 0-1.48-.14-1.32-1.19a5.44 5.44 0 014.22-4.85c1.14-.3 1.5 0 1.24 1.08a9.59 9.59 0 01-1.11 3 3.76 3.76 0 01-3.03 1.96zM269.63 80.16a4.2 4.2 0 01-2.48-1.16 8.52 8.52 0 01-1.94-3.89c-.21-.76.19-1.11.93-1a5.49 5.49 0 014.77 4.6c.23 1.05-.18 1.47-1.28 1.45z" fill="#8d492d" fill-rule="evenodd"/><path d="M227.32 84.65a18.42 18.42 0 01-3 4.31 4.22 4.22 0 01-1.5 1.15c-.84.33-1.38 0-1.42-.93-.07-1.28 1.95-4.81 3-5.35a1 1 0 01.9.08c.7.25 1.25.45 2.02.74z" fill="#8e492d" fill-rule="evenodd"/><path d="M270.22 83.22a2.68 2.68 0 01.65-.24c.73 0 1.23-1 1.89-.65a7.12 7.12 0 011.78 1.67 7.53 7.53 0 011.53 2.84c.17.56.38 1.15-.15 1.59s-1.23.08-1.73-.28a11.6 11.6 0 01-2.67-2.7 5.46 5.46 0 01-1.3-2.23z" fill="#8d492d" fill-rule="evenodd"/><path d="M276.49 68.27c.43-.41.73 0 1 0a18.54 18.54 0 003.32.83 3.19 3.19 0 012.72 3.1c0 .59-.41.73-.91.73a3.32 3.32 0 01-1.75-.7 24.12 24.12 0 01-4.38-3.96z" fill="#8b482c" fill-rule="evenodd"/><path d="M283.28 76.47a1 1 0 01.58-1.09 1.68 1.68 0 011.64.12 4 4 0 011.32 1.82c.34.82.68 1.64 1 2.48.19.57-.11.82-.69.79a4.42 4.42 0 01-3.85-4.12z" fill="#8c482c" fill-rule="evenodd"/><path d="M213.7 78.92a4.22 4.22 0 01-3.5 4c-.63.08-.85-.23-.72-.77a12 12 0 011.28-3.58 2 2 0 011.14-1c1.17-.39 1.82.11 1.8 1.35z" fill="#8c492c" fill-rule="evenodd"/><path d="M220 69.85a22.39 22.39 0 01-3.9 4.22 5.65 5.65 0 01-1.48.87c-.9.38-1.38 0-1.35-.89a2.89 2.89 0 012.32-2.85c1.52-.33 2.92-.9 4.41-1.35z" fill="#8b482c" fill-rule="evenodd"/><path d="M231.59 84.41c-1.16 0-1.48-.38-1.19-1.49a4.66 4.66 0 012.6-3.09c.84-.42 1.1-.26 1.3.66a3 3 0 01-2.71 3.92z" fill="#89472b" fill-rule="evenodd"/><path d="M254.13 71.52a5.45 5.45 0 01-2 3.52c-.28.28-.56 0-.77-.24a3.27 3.27 0 01.26-4.33 1.22 1.22 0 011.51-.42 1.48 1.48 0 011 1.47z" fill="#8c482c" fill-rule="evenodd"/><path d="M288.3 72.33c.64-.07 1 0 1.26-.15 1.42-1 2.29-.18 3.17.86a13.77 13.77 0 011.39 1.83c.16.28.31.59.07.88a.72.72 0 01-.88.13 13 13 0 01-5.01-3.55z" fill="#88462b" fill-rule="evenodd"/><path d="M261.76 67.78c2.66-.15 4.42.88 5 2.8.28.92.08 1.16-.88 1-2.12-.33-3.18-1.83-4.12-3.8z" fill="#88472b" fill-rule="evenodd"/><path d="M208.22 75.08A13.32 13.32 0 01204 78.4c-.34.17-.71.39-1.06.08s-.09-.84.09-1.21a11.11 11.11 0 012.3-2.81.69.69 0 011-.08c.53.42 1.23.32 1.89.7z" fill="#8b482b" fill-rule="evenodd"/><path d="M234.6 68.86a5.12 5.12 0 01-3.7 3.77c-.3.07-.62.27-.9 0s-.19-.7-.07-1.07c.63-2.02 2.33-3.03 4.67-2.7z" fill="#8b482c" fill-rule="evenodd"/><path d="M263.11 62.58a2.83 2.83 0 012.79 2.72c.05.91-.22 1.18-1.09 1.09a2.88 2.88 0 01-2.74-2.7c-.01-.8.25-1.23 1.04-1.11z" fill="#8b492c" fill-rule="evenodd"/><path d="M268.58 68.05c1.41.4 2.5.9 3.65.61.85-.21 1.36-.1 1.45.89s-.28 1.72-1.17 1.87a2.67 2.67 0 01-2.3-.68 5.85 5.85 0 01-1.63-2.69z" fill="#8c482c" fill-rule="evenodd"/><path d="M227.85 69.49a4.64 4.64 0 01-2.08 3.08 1.74 1.74 0 01-2.85-.95c-.21-1.1.23-1.63 1.38-1.46s2.19-.55 3.55-.67zM230.56 66.27a2.78 2.78 0 012.79-2.83.66.66 0 01.71.48 2.91 2.91 0 01-2.95 3.55c-.74-.12-.48-.77-.55-1.2z" fill="#8b482c" fill-rule="evenodd"/><path d="M269 98.83c-.37 1.67-1.05 3-2.8 3.33-1.22.25-1.67-.25-1.39-1.48a2.45 2.45 0 012.08-2 3.65 3.65 0 012.11.15z" fill="#8d492d" fill-rule="evenodd"/><path d="M244.5 74.69a2.22 2.22 0 013-2.14c.35.15.4.43.43.75a3 3 0 01-2.43 3 .53.53 0 01-.68-.46z" fill="#8b472c" fill-rule="evenodd"/><path d="M273.34 94.34a5.69 5.69 0 01-3 3.16c-.33.15-.71.36-1.07 0s-.88-.61-.95-1.14.51-.82.92-1.06a6.58 6.58 0 014.1-.96z" fill="#8c482c" fill-rule="evenodd"/><path d="M262.7 102.53c0 2-.7 3.45-1.89 3.79-.54.16-1.24.38-1.63-.12s0-1.11.39-1.55a7.28 7.28 0 013.13-2.12z" fill="#89472b" fill-rule="evenodd"/><path d="M241.94 82c-.33-2.66.31-3.62 2.67-4.23.57 2.11-.02 3.07-2.67 4.23z" fill="#8a472b" fill-rule="evenodd"/><path d="M267.9 94.27a2.83 2.83 0 01-2.8 2 .92.92 0 01-.61-.88 1.87 1.87 0 01.76-1.86 2.72 2.72 0 012.21-.25c.54.14.43.61.44.99z" fill="#89472b" fill-rule="evenodd"/><path d="M247.23 80.24c-.37-1.65-.37-3 1.09-4 .67-.45 1.05-.26 1.16.52.21 1.56-.31 2.42-2.25 3.48z" fill="#8c482c" fill-rule="evenodd"/><path d="M249.87 69.75c0 .89-.57 1.82-1.06 1.82s-1.7-1.35-1.69-1.88a2.46 2.46 0 011.77-1.76c.59.07 1.01.8.98 1.82z" fill="#8b482c" fill-rule="evenodd"/><path d="M264.45 80.93c1.42 2 1.35 3.45-.11 4.44a.68.68 0 01-.69.17.54.54 0 01-.31-.63 9.07 9.07 0 011.11-3.98z" fill="#834329" fill-rule="evenodd"/><path d="M212.67 68.19a62 62 0 00-5.61 5c.25-2.41 2.3-4.19 5.61-5z" fill="#7d4128" fill-rule="evenodd"/><path d="M283.53 65.93c3.66.83 5.4 2.16 6.13 4.62-2.12-1.61-4.05-3.24-6.13-4.62z" fill="#7e4228" fill-rule="evenodd"/><path d="M259.15 80.88a19.25 19.25 0 010-3.39.6.6 0 01.34-.63c.35-.14.59.09.82.31 1.22 1.25.84 2.67-1.16 3.71z" fill="#824329" fill-rule="evenodd"/><path d="M263.94 98c-.18 2.58-1 3.36-3.27 3.27.33-1.82 1.65-2.59 3.27-3.27z" fill="#824429" fill-rule="evenodd"/><path d="M250.37 81.1c-.29-1.7.14-2.63 1.45-3.2.67-.3 1 0 1 .63.12 1.23-.7 2.07-2.45 2.57z" fill="#84442a" fill-rule="evenodd"/><path d="M294.63 71.57c2.42.48 4.32 1.57 5 4.14a63.52 63.52 0 00-5-4.14z" fill="#753d25" fill-rule="evenodd"/><path d="M245.42 69.57c0 1.79-.47 2.63-1.7 3.11-.73.29-.91-.06-.9-.68.03-1.17.71-1.83 2.6-2.43z" fill="#89472b" fill-rule="evenodd"/><path d="M197.31 78.74a6.28 6.28 0 014.93-4.53c-1.52 1.63-3.48 2.79-4.93 4.53z" fill="#753d26" fill-rule="evenodd"/><path d="M259.26 85.42c-.41-.8-.06-1.51.07-2.23.07-.4-.05-1 .57-1a1.31 1.31 0 011.31.58 1 1 0 010 1.24 3.2 3.2 0 01-1.95 1.41z" fill="#7e4027" fill-rule="evenodd"/><path d="M237.1 80.79c0-1.09.56-2 1.05-1.86a2.25 2.25 0 01.83 2 1.68 1.68 0 01-.19.53c-.2.37-.33.92-.9.8s-.66-.56-.75-1a2.22 2.22 0 01-.04-.47z" fill="#834429" fill-rule="evenodd"/><path d="M241.18 74.44a3.46 3.46 0 01.15 2.3c-.14.55-.47 1.2-1.12 1.07s-.74-.83-.71-1.4c.06-.99.68-1.55 1.68-1.97z" fill="#88472b" fill-rule="evenodd"/><path d="M256.82 74.74c0 1.23-.31 1.67-1.31 1.69-.42 0-.94.07-1-.56a2.37 2.37 0 011.6-2.12c.78-.08.64.56.71.99z" fill="#8a482c" fill-rule="evenodd"/><path d="M268.94 85.45a3.5 3.5 0 01-2.46-2.2c-.14-.29-.28-.62 0-.87s.61 0 .88.12c1.15.65 1.35 1.73 1.58 2.95z" fill="#7d4128" fill-rule="evenodd"/><path d="M247.89 82.84a2.36 2.36 0 01-1.83 1.61.48.48 0 01-.33-.13 1.45 1.45 0 01.11-1.75c.4-.46.91-.92 1.62-.57a.88.88 0 01.43.84z" fill="#89472c" fill-rule="evenodd"/><path d="M261.22 95.47a2.58 2.58 0 011.69-2.09c.3-.14.66-.11.66.36a2 2 0 01-2.35 1.73z" fill="#86462b" fill-rule="evenodd"/><path d="M235.69 82.12c1.46 1.2 1.45 1.61 0 3a6.72 6.72 0 010-3z" fill="#87462a" fill-rule="evenodd"/><path d="M260.72 87.54a7.05 7.05 0 00-3.69.7c-.43.16-.85.7-1.39.25a1.83 1.83 0 01-.46-1.94c.09-.54.66-.93.5-1.59-1 .31-1.74 1.1-3 .77.95-1.1 1.84-2.08 2.67-3.1a4.13 4.13 0 001.08-2 .92.92 0 00-.9-1.19 2.31 2.31 0 00-2.29 1.1 11.11 11.11 0 00-1.58 3.46 3.33 3.33 0 01-1.09 2c-.36.26-.66.31-1-.1s0-.77-.47-.93c-.42.39-.82.81-1.26 1.18a5.23 5.23 0 01-3.89 1.3q-3.63-.3-7.27-.53a37.93 37.93 0 00-5.74-.16 4.18 4.18 0 00-3.06 1.38c-.56.69-1.23 1.46-.48 2.42a3.68 3.68 0 011.47.69 7.06 7.06 0 002.56 1.19 4.43 4.43 0 012.11 1.24 46.23 46.23 0 014 4.86c.77 1 .43 1.72-.74 2.24-.54.25-1.16.32-1.69.58a1.25 1.25 0 00-.23.52 18.58 18.58 0 0017.26 4.9c-2.28-1.07-4.71-1.49-6.84-2.68 3.49-.07 7 .3 10.44-1.84-1.35-.25-2.37-.35-3.35-.63s-1.94-.06-2.88-.85c5.87-.22 8.37-.93 9.49-2.67a19 19 0 01-7.72-1.22c1.68-.58 3.26-.34 4.73-.8s2.8-1.21 3.18-2.93c-2.64-1.34-2.64-1.34-3.13-2.44 3.99-.34 4.72-.82 4.66-3.18z" fill="#fff" fill-rule="evenodd"/><path d="M243.77 90.63c-1.25 1.56-2.82 1.25-4.29 1-.65-.1-1.13-.51-1.39.47a.86.86 0 01-1.11.51 1 1 0 01-.77-1c0-.22.15-.49-.17-.68-.63-.07-1 .45-1.39.83a1.1 1.1 0 01-1.24.2 1.06 1.06 0 01-.74-.8.9.9 0 01.55-.92 3.27 3.27 0 011.24-.45 15.17 15.17 0 012.86 0c1.07.13 2.08.58 3.14.8s2.12-.17 3.31.04z" fill="#0e0a0a" fill-rule="evenodd"/><path d="M236.88 98.82c-1.2-1.49-2.35-3-3.67-4.41-.76-.79-1.63-1.89-3-1-.2.13-.38 0-.46-.2-.59-1.17-1.86-1.47-2.81-2.18a12 12 0 00-4.78.2c-4.54 1.35-5.52 5.1-2.21 8.44a1.68 1.68 0 001 .67c.55-.85.45-1.93.8-2.87a3.17 3.17 0 013-2.24 7.35 7.35 0 012.08.24 25.25 25.25 0 014.87 2.16 9.07 9.07 0 011.49.93c.29.3-1-.3-2.06-.61-1.78-.41-3.38-1.45-5.31-1.4a92.65 92.65 0 008.26 4.62c.65-.7 1.61-.7 2.41-1s.86-.76.39-1.35z" fill="#fec324" fill-rule="evenodd"/><path d="M272.66 89.36a25.17 25.17 0 01-4-2.31.66.66 0 00-1 .11 9.15 9.15 0 00-2.55 5.3 3.41 3.41 0 001.3-.46l1.4-1.58.46 1.21a2.79 2.79 0 001.39.12l1.29-.57.58 1.5h.07c.42-.73.86-1.5 1.31-2.26.33-.42.28-.81-.25-1.06z" fill="#8e492d" fill-rule="evenodd"/><path d="M250.58 210.79l.67-.65s-.48.79-.61.77" fill="#fec323"/><path fill="#bd813d" d="M279.73 199.41l28.63 28.57 3.18-6.63-25.15-24.63-6.66 2.69z"/><path fill="#904a2e" d="M311.07 222.32l-1.8 3.76-27.52-27.49 3.46-1.39 25.86 25.12z"/><path fill="#bd813d" d="M220.93 199.34l-28.63 28.57-3.17-6.63 25.14-24.63 6.66 2.69z"/><path fill="#904a2e" d="M189.59 222.25l1.8 3.76 27.52-27.49-3.46-1.39-25.86 25.12z"/><path d="M223.7 199.48l-14.79 14.7s.86 2.88 20.46 13.35l1.54-4.71 10.47 6.92v-23.92s-9.8-6.15-17.68-6.34z" fill="#fff"/><path d="M239.49 206.55s-5.43-3-5.91-3l-.33 18.73 6.24 4.07zM230.61 202.23a10.86 10.86 0 00-6.35-1v16.81l6 2.79zM213.36 211l.38 6.46 6.73 3.41.53-16.48-7.64 6.61zM223.54 219.84v2.74l4.69 2.73v-3.48s-4.35-2.35-4.69-1.99z" fill="#e51837" stroke="#000" stroke-miterlimit="10" stroke-width=".69"/><path fill="#fff" fill-rule="evenodd" d="M177.57 159.54l-2.59 22.63 13.47 17.3 13.37 7.6 12.93-12.94-10.79-3.09-6.98-24.46-19.41-7.04z"/><path d="M201.21 175l-31.09-18.14s11.95-31.92 11.62-43.35 2-6.94 6.57 2.89 14.86 8.53 17.75 23.22-3.91 19.84-4.85 35.38z" fill="#fff" stroke="#fff" stroke-miterlimit="10" stroke-width="2.08" fill-rule="evenodd"/><path d="M170.08 156.91s-12.48 35.66 31.26 49.32l.92-.92a40.22 40.22 0 01-21.93-18.52s-6.53-9.42-2.11-25.29z" fill="#fff" stroke="#fff" stroke-miterlimit="10" stroke-width="2.08" fill-rule="evenodd"/><path d="M203.15 200.3c-20.23-15.16-13.93-32.23-13.93-32.23l-7.8-4.69c-3.6 25.87 19.76 36.14 21.7 36.94z" fill="#fff" stroke="#fff" stroke-miterlimit="10" stroke-width="2.08" fill-rule="evenodd"/><path d="M195.15 171.48s-4 14.37 15.13 25.56l2.83-2.68s-11.55-5.72-11.93-19.32z" fill="#fff" stroke="#fff" stroke-miterlimit="10" stroke-width="2.08" fill-rule="evenodd"/><path d="M201.21 175l-31.09-18.14s11.95-31.92 11.62-43.35 2-6.94 6.57 2.89 14.86 8.53 17.75 23.22-3.91 19.84-4.85 35.38z" fill="#012d6a" stroke="#000" stroke-miterlimit="10" stroke-width=".69" fill-rule="evenodd"/><path d="M170.08 156.91s-12.48 35.66 31.26 49.32l.92-.92a40.22 40.22 0 01-21.93-18.52s-6.53-9.42-2.11-25.29z" fill="#e51837" stroke="#000" stroke-miterlimit="10" stroke-width=".69" fill-rule="evenodd"/><path d="M203.15 200.3c-20.23-15.16-13.93-32.23-13.93-32.23l-7.8-4.69c-3.6 25.87 19.76 36.14 21.7 36.94z" fill="#e51837" stroke="#000" stroke-miterlimit="10" stroke-width=".69" fill-rule="evenodd"/><path d="M195.15 171.48s-4 14.37 15.13 25.56l2.83-2.68s-11.55-5.72-11.93-19.32z" fill="#e51837" stroke="#000" stroke-miterlimit="10" stroke-width=".69" fill-rule="evenodd"/><path d="M203.3 120l-15.05-14.28c-2.13-3.83-1.28-6.57-1.28-6.57l-20.28-8.75 10.21 19a42.33 42.33 0 019.65.85l14.11 14.61c.88-1.61 1.77-3.24 2.64-4.86z" fill="#bb803b"/><path d="M202.58 121.33l-15.51-14.14a7 7 0 01-1.13-4.76l-5.54 5.36s4.12.23 6.1 1.69l14.72 14.37z" fill="#914c2d"/><path fill="#ffc323" d="M175.89 98.45l6.52 5.03 2.72-3.85-16.6-7.85 9.52 15.7 3.52-3.07-5.68-5.96z"/><path fill="#fff" d="M199.26 163.2l-1.18.83.41-1.38-1.15-.87 1.44-.03.47-1.37.48 1.36 1.44.02-1.14.88.42 1.38-1.19-.82zM192.92 163.2l-1.18.83.41-1.38-1.15-.87 1.44-.03.47-1.37.48 1.36 1.44.02-1.14.88.42 1.38-1.19-.82zM194.75 156.09l-1.18.83.41-1.38-1.16-.87 1.45-.04.47-1.36.48 1.36 1.44.03-1.15.87.43 1.38-1.19-.82zM200.97 156.09l-1.18.83.41-1.38-1.15-.87 1.44-.04.47-1.36.48 1.36 1.44.03-1.15.87.43 1.38-1.19-.82zM202.46 149.1l-1.18.83.41-1.39-1.15-.86 1.44-.03.47-1.37.48 1.36 1.44.02-1.15.88.43 1.38-1.19-.82zM196.33 149.16l-1.19.83.42-1.38-1.16-.87 1.45-.03.46-1.37.48 1.36 1.45.02-1.15.88.42 1.38-1.18-.82zM190.22 149.16l-1.18.83.41-1.38-1.15-.87 1.45-.03.46-1.37.48 1.36 1.44.02-1.14.88.42 1.38-1.19-.82zM184.03 149.16l-1.19.83.42-1.38-1.16-.87 1.45-.03.46-1.37.49 1.36 1.44.02-1.15.88.43 1.38-1.19-.82zM188.55 156.09l-1.18.83.41-1.38-1.15-.87 1.44-.04.47-1.36.48 1.36 1.44.03-1.15.87.43 1.38-1.19-.82zM182.36 156.09l-1.18.83.41-1.38-1.15-.87 1.44-.04.47-1.36.48 1.36 1.44.03-1.14.87.42 1.38-1.19-.82zM176.13 156.09l-1.18.83.41-1.38-1.15-.87 1.44-.04.47-1.36.48 1.36 1.44.03-1.14.87.42 1.38-1.19-.82zM177.88 149.21l-1.19.83.42-1.39-1.16-.86 1.45-.04.47-1.36.48 1.36 1.44.02-1.15.88.42 1.38-1.18-.82zM179.48 142.29l-1.18.83.41-1.38-1.15-.87 1.44-.03.47-1.37.48 1.36 1.44.02-1.15.88.43 1.38-1.19-.82zM186.04 142.37l-1.18.83.42-1.38-1.16-.87 1.45-.04.46-1.36.48 1.36 1.44.03-1.14.87.42 1.38-1.19-.82zM192.28 142.78l-1.19.83.42-1.38-1.16-.87 1.45-.03.46-1.37.49 1.36 1.44.03-1.15.87.43 1.38-1.19-.82zM198.81 142.78l-1.18.83.41-1.38-1.15-.87 1.44-.03.47-1.37.48 1.36 1.44.03-1.15.87.43 1.38-1.19-.82zM200.83 135.9l-1.18.82.41-1.38-1.15-.86 1.44-.04.47-1.36.48 1.36 1.44.02-1.15.87.43 1.39-1.19-.82zM194.42 135.99l-1.18.83.41-1.38-1.15-.87 1.44-.03.47-1.37.48 1.36 1.44.03-1.14.87.42 1.38-1.19-.82zM187.97 135.64l-1.18.83.41-1.38-1.16-.87 1.45-.04.47-1.36.48 1.36 1.44.02-1.15.88.43 1.38-1.19-.82zM183.64 128.58l-1.19.83.42-1.39-1.16-.86 1.45-.04.46-1.36.48 1.36 1.44.02-1.14.87.42 1.39-1.18-.82zM185.24 121.82l-1.18.83.41-1.39-1.16-.86 1.45-.04.46-1.36.49 1.36 1.44.02-1.15.88.43 1.38-1.19-.82zM181.57 135.45l-1.18.83.41-1.39-1.15-.86 1.44-.04.47-1.36.48 1.36 1.44.02-1.15.87.43 1.39-1.19-.82zM190.39 128.89l-1.19.83.42-1.38-1.16-.87 1.45-.04.46-1.36.48 1.36 1.44.02-1.14.88.42 1.38-1.18-.82z"/><path fill="#fff" fill-rule="evenodd" d="M323.39 159.54l2.59 22.63-13.47 17.3-13.16 7.84-13.13-13.19 10.78-3.08 6.98-24.46 19.41-7.04z"/><path d="M299.75 175l31.09-18.14s-11.95-31.92-11.62-43.35-2-6.94-6.57 2.89-14.86 8.53-17.76 23.22 3.92 19.84 4.86 35.38z" fill="#fff" stroke="#fff" stroke-miterlimit="10" stroke-width="2.08" fill-rule="evenodd"/><path d="M330.88 156.91s12.48 35.66-31.26 49.32l-.92-.92a40.22 40.22 0 0021.93-18.52s6.53-9.42 2.11-25.29z" fill="#fff" stroke="#fff" stroke-miterlimit="10" stroke-width="2.08" fill-rule="evenodd"/><path d="M297.8 200.3c20.24-15.16 13.94-32.23 13.94-32.23l7.79-4.69c3.61 25.87-19.76 36.14-21.69 36.94z" fill="#fff" stroke="#fff" stroke-miterlimit="10" stroke-width="2.08" fill-rule="evenodd"/><path d="M305.81 171.48s4 14.37-15.13 25.56l-2.83-2.68s11.55-5.72 11.92-19.32z" fill="#fff" stroke="#fff" stroke-miterlimit="10" stroke-width="2.08" fill-rule="evenodd"/><path d="M299.75 175l31.09-18.14s-11.95-31.92-11.62-43.35-2-6.94-6.57 2.89-14.86 8.53-17.76 23.22 3.92 19.84 4.86 35.38z" fill="#012d6a" stroke="#000" stroke-miterlimit="10" stroke-width=".69" fill-rule="evenodd"/><path d="M330.88 156.91s12.48 35.66-31.26 49.32l-.92-.92a40.22 40.22 0 0021.93-18.52s6.53-9.42 2.11-25.29z" fill="#e51837" stroke="#000" stroke-miterlimit="10" stroke-width=".69" fill-rule="evenodd"/><path d="M297.8 200.3c20.24-15.16 13.94-32.23 13.94-32.23l7.79-4.69c3.61 25.87-19.76 36.14-21.69 36.94z" fill="#e51837" stroke="#000" stroke-miterlimit="10" stroke-width=".69" fill-rule="evenodd"/><path d="M305.81 171.48s4 14.37-15.13 25.56l-2.83-2.68s11.55-5.72 11.92-19.32z" fill="#e51837" stroke="#000" stroke-miterlimit="10" stroke-width=".69" fill-rule="evenodd"/><path d="M313.07 99.3s.85 2.73-1.28 6.56l-14.3 13.57 2.61 4.84 13.39-13.87a43 43 0 019.65-.85l10.22-19z" fill="#bb803b"/><path fill="#fff" d="M301.69 163.2l1.19.83-.42-1.38 1.16-.87-1.45-.03-.46-1.37-.48 1.36-1.44.02 1.14.88-.42 1.38 1.18-.82zM308.04 163.2l1.18.83-.41-1.38 1.15-.87-1.45-.03-.46-1.37-.48 1.36-1.44.02 1.14.88-.42 1.38 1.19-.82zM306.21 156.09l1.18.83-.41-1.38 1.15-.87-1.44-.04-.47-1.36-.48 1.36-1.44.03 1.15.87-.43 1.38 1.19-.82zM299.99 156.09l1.18.83-.41-1.38 1.15-.87-1.44-.04-.47-1.36-.48 1.36-1.44.03 1.15.87-.43 1.38 1.19-.82zM298.5 149.1l1.18.83-.41-1.39 1.15-.86-1.44-.03-.47-1.37-.48 1.36-1.44.02 1.15.88-.43 1.38 1.19-.82zM304.63 149.16l1.18.83-.41-1.38 1.16-.87-1.45-.03-.46-1.37-.48 1.36-1.45.02 1.15.88-.43 1.38 1.19-.82zM310.73 149.16l1.19.83-.42-1.38 1.16-.87-1.45-.03-.46-1.37-.48 1.36-1.45.02 1.15.88-.42 1.38 1.18-.82zM316.93 149.16l1.18.83-.41-1.38 1.16-.87-1.45-.03-.47-1.37-.48 1.36-1.44.02 1.15.88-.43 1.38 1.19-.82zM312.41 156.09l1.18.83-.41-1.38 1.15-.87-1.44-.04-.47-1.36-.48 1.36-1.44.03 1.14.87-.42 1.38 1.19-.82zM318.6 156.09l1.18.83-.41-1.38 1.15-.87-1.44-.04-.47-1.36-.48 1.36-1.44.03 1.14.87-.42 1.38 1.19-.82zM324.83 156.09l1.18.83-.41-1.38 1.15-.87-1.44-.04-.47-1.36-.48 1.36-1.44.03 1.14.87-.42 1.38 1.19-.82zM323.08 149.21l1.18.83-.41-1.39 1.15-.86-1.44-.04-.47-1.36-.48 1.36-1.44.02 1.15.88-.43 1.38 1.19-.82zM321.48 142.29l1.18.83-.41-1.38 1.15-.87-1.44-.03-.47-1.37-.48 1.36-1.44.02 1.15.88-.43 1.38 1.19-.82zM314.91 142.37l1.19.83-.42-1.38 1.16-.87-1.45-.04-.46-1.36-.49 1.36-1.44.03 1.15.87-.42 1.38 1.18-.82zM308.68 142.78l1.18.83-.41-1.38 1.16-.87-1.45-.03-.47-1.37-.48 1.36-1.44.03 1.15.87-.43 1.38 1.19-.82zM302.15 142.78l1.18.83-.41-1.38 1.15-.87-1.44-.03-.47-1.37-.48 1.36-1.44.03 1.14.87-.42 1.38 1.19-.82zM300.13 135.9l1.18.82-.41-1.38 1.15-.86-1.44-.04-.47-1.36-.48 1.36-1.44.02 1.15.87-.43 1.39 1.19-.82zM306.54 135.99l1.18.83-.41-1.38 1.15-.87-1.45-.03-.46-1.37-.48 1.36-1.44.03 1.14.87-.42 1.38 1.19-.82zM312.99 135.64l1.18.83-.41-1.38 1.16-.87-1.45-.04-.47-1.36-.48 1.36-1.44.02 1.15.88-.43 1.38 1.19-.82zM317.32 128.58l1.18.83-.41-1.39 1.16-.86-1.45-.04-.46-1.36-.49 1.36-1.44.02 1.15.87-.43 1.39 1.19-.82zM315.72 121.82l1.18.83-.41-1.39 1.15-.86-1.44-.04-.47-1.36-.48 1.36-1.44.02 1.15.88-.43 1.38 1.19-.82zM319.39 135.45l1.18.83-.41-1.39 1.15-.86-1.44-.04-.47-1.36-.48 1.36-1.44.02 1.15.87-.43 1.39 1.19-.82zM310.57 128.89l1.18.83-.41-1.38 1.16-.87-1.45-.04-.47-1.36-.48 1.36-1.44.02 1.15.88-.43 1.38 1.19-.82z"/><path fill="#ffc323" d="M314.91 99.77l2.72 3.86 6.52-5.04-5.67 5.97 3.51 3.07 9.52-15.7-16.6 7.84z"/><ellipse cx="250.61" cy="121.26" rx="9.58" ry="4.98" fill="#022d6a"/><path d="M276.81 199.48l14.8 14.7s-.87 2.88-20.47 13.35l-1.54-4.71-10.47 6.92v-23.92s9.8-6.15 17.68-6.34z" fill="#fff"/><path d="M261 206.55s5.43-3 5.91-3l.34 18.73-6.25 4.1zM269.91 202.23a10.84 10.84 0 016.34-1v16.81l-6 2.79zM287.16 211l-.39 6.46-6.72 3.41-.53-16.48 7.64 6.61zM277 219.84v2.74l-4.68 2.73v-3.48s4.31-2.35 4.68-1.99z" fill="#e51837" stroke="#000" stroke-miterlimit="10" stroke-width=".69"/><path d="M234.83 245.05l-2.42-.59 2.12-8.66a8.41 8.41 0 01-3.55 1l.51-2.07a7.44 7.44 0 002.33-.62 4.51 4.51 0 002-1.54l2 .48zM243.29 239.56a2.92 2.92 0 01-1.32-1.19 2.81 2.81 0 01-.32-1.53 3 3 0 011.2-2.23 5.08 5.08 0 015.78.47 3 3 0 01.84 2.39 2.69 2.69 0 01-.6 1.5 2.92 2.92 0 01-1.41.93 3.41 3.41 0 011.56 1.34 3.1 3.1 0 01.42 1.88 3.65 3.65 0 01-1.38 2.72 4.33 4.33 0 01-3.15.84 4.74 4.74 0 01-2.88-1.14 3.39 3.39 0 01-1.17-3 3.48 3.48 0 01.67-1.82 3.35 3.35 0 011.76-1.17m.06 3a2.13 2.13 0 00.4 1.58 1.76 1.76 0 001.28.65 1.7 1.7 0 001.32-.43 2.15 2.15 0 00.63-1.49 2 2 0 00-.4-1.45 1.76 1.76 0 00-1.27-.63 1.61 1.61 0 00-1.41.49 2.11 2.11 0 00-.55 1.28m.65-5.32a1.45 1.45 0 00.33 1.14 1.78 1.78 0 002.26.17 1.44 1.44 0 00.52-1.08 1.4 1.4 0 00-.34-1.1 1.52 1.52 0 00-1.08-.49 1.59 1.59 0 00-1.18.31 1.38 1.38 0 00-.51 1M251.94 243.84l2.32-.41a1.71 1.71 0 00.53 1 1.27 1.27 0 001 .28A1.56 1.56 0 00257 244a5.83 5.83 0 00.48-2.89 2.88 2.88 0 01-2.21 1.21 3.4 3.4 0 01-2.65-1 4.15 4.15 0 01-1.28-2.9 4.31 4.31 0 01.93-3.16 3.91 3.91 0 012.83-1.37 4 4 0 013.26 1.27q1.33 1.4 1.56 4.78T259 245a4.16 4.16 0 01-3.24 1.75 3.54 3.54 0 01-2.45-.62 3.75 3.75 0 01-1.33-2.27m5.12-5.63a2.7 2.7 0 00-.66-1.77 1.59 1.59 0 00-1.28-.56 1.41 1.41 0 00-1.09.6 2.73 2.73 0 00-.33 1.76 2.78 2.78 0 00.6 1.75 1.54 1.54 0 001.25.49 1.51 1.51 0 001.14-.63 2.34 2.34 0 00.37-1.64M269.11 234.53l-2.23.82a1.67 1.67 0 00-.69-.92 1.35 1.35 0 00-1-.11 1.64 1.64 0 00-1.11 1 5.73 5.73 0 000 2.92 2.89 2.89 0 011.95-1.58 3.52 3.52 0 012.81.48 4.65 4.65 0 011.39 5.87 4.2 4.2 0 01-6 1.17q-1.56-1.12-2.37-4.38t.07-5.12a4.18 4.18 0 012.89-2.28 3.58 3.58 0 012.52.2 3.69 3.69 0 011.73 1.95m-4.1 6.4a2.65 2.65 0 001 1.62 1.65 1.65 0 001.37.32 1.42 1.42 0 001-.78 2.56 2.56 0 000-1.76 2.71 2.71 0 00-.9-1.61 1.58 1.58 0 00-2.34.55 2.34 2.34 0 00-.08 1.66" fill="#fff"/><path fill="#012d6a" d="M218.79 133.1l1.61-.74 3.63 7.98-1.6.73-3.64-7.97zM229.21 129.33l2.5 8.52-1.73.51-5.05-4.55 1.62 5.55-1.6.47-2.49-8.52 1.67-.49 5.15 4.67-1.66-5.69 1.59-.47zM231.71 128.82l3.21-.43a6.32 6.32 0 011.69-.06 3 3 0 011.39.67 3.69 3.69 0 011 1.3 6.32 6.32 0 01.56 2 5.63 5.63 0 010 1.89 3.83 3.83 0 01-.73 1.66 3.07 3.07 0 01-1.14.87 5.71 5.71 0 01-1.53.39l-3.32.44zm2 1.24l.77 5.77 1.31-.17a4.69 4.69 0 001.05-.23 1.72 1.72 0 00.67-.45 2 2 0 00.35-.9 6.11 6.11 0 000-1.63 5.63 5.63 0 00-.38-1.53 2 2 0 00-.61-.77 1.57 1.57 0 00-.88-.3 7.06 7.06 0 00-1.45.11zM240.4 127.71h1.86l.11 4.66a9.12 9.12 0 00.11 1.43 1.4 1.4 0 00.59.84 2.12 2.12 0 001.23.29 2 2 0 001.18-.33 1.18 1.18 0 00.47-.76 9.68 9.68 0 000-1.46l-.11-4.76h1.85l.11 4.52a10.65 10.65 0 01-.09 2.19 2.37 2.37 0 01-.53 1.09 2.76 2.76 0 01-1.06.72 5 5 0 01-1.77.31 5.37 5.37 0 01-2-.24 2.81 2.81 0 01-1.09-.72 2.15 2.15 0 01-.55-.93 9.88 9.88 0 01-.23-2.18zM248.71 133.32l1.74-.17a2.11 2.11 0 00.64 1.29 1.89 1.89 0 001.29.42 2 2 0 001.31-.37 1.11 1.11 0 00.44-.86.85.85 0 00-.19-.54 1.36 1.36 0 00-.65-.38c-.21-.08-.68-.21-1.43-.39a4.75 4.75 0 01-2-.88 2.34 2.34 0 01-.44-3.06 2.37 2.37 0 011.11-.9 4.33 4.33 0 011.74-.31 3.67 3.67 0 012.51.74 2.6 2.6 0 01.88 2l-1.79.09a1.46 1.46 0 00-.49-1 1.79 1.79 0 00-1.13-.3 2.06 2.06 0 00-1.25.3.67.67 0 00-.28.55.7.7 0 00.26.54 4.68 4.68 0 001.64.59 9 9 0 011.94.64 2.46 2.46 0 011 .91 2.68 2.68 0 01.35 1.41 2.63 2.63 0 01-.43 1.43 2.55 2.55 0 01-1.19 1 5.12 5.12 0 01-1.93.32 3.82 3.82 0 01-2.58-.78 3.46 3.46 0 01-1.07-2.27M259.47 129.43l-2.69-.23.13-1.48 7.22.61-.13 1.48-2.69-.23-.62 7.26-1.83-.15.61-7.26zM276.22 137.82l-1.72 3.35-1.61-.83 1.72-3.36-.54-6.12 1.88.96.26 4.13 3.47-2.22 1.85.96-5.31 3.13zM270.68 139.17l-1.95-.52-.18-2.31a2 2 0 00-.35-1.08 1.5 1.5 0 00-.84-.52l-1.41-.37-.86 3.32-1.81-.49 2.24-8.66 3.79 1a8.93 8.93 0 01.87.27 4.81 4.81 0 01.72.35 2.74 2.74 0 01.55.46 2 2 0 01.35.62 2.44 2.44 0 01.15.76 3.23 3.23 0 01-.1.85 2.29 2.29 0 01-.86 1.35 2.6 2.6 0 01-1.53.41 2.82 2.82 0 01.39.38 1.48 1.48 0 01.28.45 2.17 2.17 0 01.18.56c0 .21.07.43.1.68zm-4.35-6.28l1.79.47a1.87 1.87 0 001.24 0 1.22 1.22 0 00.6-.87c.2-.79-.16-1.3-1.09-1.55l-1.91-.51z"/><path fill="#01863f" d="M251.14 172.82l.02-.98-2.21.02-.1.67-.24-.81h-2.04v2.01l.87-1.29v2.35l.67-1.54.38 2.12.7-1.83.75 1.25 1.34-.29.67-2.78-.81 1.1zM260.42 181.71s-1.21.38-3.39-1.67H259s-1.66-1.55-1.52-2.66l1.3 1.78-.34-1.78 1.3 2.18s1.95-1 .57 1l1.73.07-1.73.48z"/><path d="M259 175.1l-2.81 2.64-1.39-1.2V178l-.8-1 .21 1.23-1.15.37-.41-1.17-1.7-2.8 1.63 1-.46-1.37 1.11 1.13-.43-1.83 1.17 1.11-.33-2.24 1.36 1.42.2-1.27 1.2 2.4v-1.42l1.1 2.5s-.31-1.71.92-2.07z" fill="#01863f"/><path d="M231.41 174h-.9l-.32-.52-.9 1.67.58.9.48-.39.42 1.08-2-.92 2.61 2.84-2.28-.87 2.28 2-1.7-.82 2.5 2.5h1.2s-1.11-2.16-.91-2.16 3.07 1.73 3.07 1.73l-.29-1.68 1.3 1.39.58-.14v-1.49l1.1 1.63v-1.68l1.39 1.39v-1.66l.77 1.49.48-1.06.63.63v-2.37l-1 .78-.19-1.29h.33l-.29-1.34 1.16 1.34v-1.58l.91 1 .62.14v1.15l2 1.93v-1.45a4.17 4.17 0 013.42 2l1.44-1.05v1.39l.81-.91-.33 1.05.91-.77a2.76 2.76 0 001.32.22 11.07 11.07 0 001.51-.84l-.48 1.37 1.06-.89v1.08l1.66-1.87-.89-1.11-.65 1-.26-.79-1.88.91.75-1.55-1.3.61.41-1.08-1 .6.22-1.39-1 .77.12-2.09-1.11 1.3-.19-1.11-1.25 2.39-.14-1.57-.94 2.33-.89-1.85-1.68.91-.34-1.39.58.72-.07-1 .7.77.19-1.83.74.53a8.16 8.16 0 00-.89-3.44H245v.67l-.6-.83.32 1.89-1-1.25.07 1.5-1.32-2.14H242l1.54 3.46-1.41-1.64.43 1.89-1.59-.86-.38.45H240l-.09-.39 2.24-1.66-2.15.32 1.31-1.47h-1.86l-.25 1.15-.64 1.73.89.07-.35.64-.83.19v.51l-.68-.1 1.49-2.93-1.82 1.06.81-1.74-1.32.06-.05 4.36h.6l.19 1.27-.77-.48-.26.93-.34-.93-1.15.07-.17.5-.24-.62-1 .14.79 1.57-2.18-2.17zM259.21 174.79l-.22 2.35.89-.91.38 1.15.87-1.53v1.53l1.3-1.63v2l1-1.49.29 1.1 1.17 2.31-1.8-1.51-.12 1.08-1.58-1.61s.69 3.07 2.71 3.63l.1-.92 1.41 1.59v-1.13l.77.6 1.13-1.84v1.14a1.48 1.48 0 00.27-2.45l-1.52 1.61-1.26-1.31a1.32 1.32 0 00.67-1.17 17.59 17.59 0 00-1.78-3.26l-.74.74v-1.44l-.84.7v-2.09l-.64-.7-.39.14-.38 2.62-.7-1.46v2.59zM220.84 143.71l-.8-1.93-.24 1.27-2.53-7.6 1.41 8.68s2.53 4.64 2.16-.42zM229.12 172v2.24a5.57 5.57 0 01-2.88 3.46s-1-2.37-.45-3.46a5.53 5.53 0 01-5.1 0s5.16-2.35 6.65-5.47l-2.56-1s-.65 3.84-3.73 4.13a36.56 36.56 0 012.52-3.94l-2.47-.19s-1.35 4-4.66 3.46c0 0 .39-1.74 3.36-4.52h-5.14s.36-1.66 4.72-2 6.81-5.39 6.81-5.39h2.93s.08 1.68.76 1.75l-3.5 2.08 1.69.78s1.34-.89 3.12.78-2.07 7.29-2.07 7.29zM235.93 142.26s-.39 2.77-2.09 3.81-.48 2.13.14 1.75 2.31-4.33 1.95-5.56zM233.72 151.21l.4.78s-4.84.79-5.83 2.87a8.87 8.87 0 006.23-1.67c2.71-2.17.62-1.68.62-1.68l-.48-.14-.68-1.21s-1.07.63-.26 1.05z" fill="#01863f"/><path d="M222.29 164.23s-1.54 3.2 2.77 3.2a4.92 4.92 0 014.06.34 4.35 4.35 0 01-.54-3.58c.59-2-1.21-3.7-2.72-3.2 0 0 2.47-1.35.17-4.68a3.54 3.54 0 010-2.38 4.56 4.56 0 01-3.51 1.25c-1.9-.33-3.33 2.49-2 3.77 0 0-4.2-2.46-4.92 2.5 0 0-.63 2.12-1.83 2.82 0 0 1.14-.79 4.57 1s3.38-1.18 3.95-1.04z" fill="#fff" stroke="#000" stroke-miterlimit="10" stroke-width=".52"/><path d="M220.72 161.35a3.66 3.66 0 00-2 1.15 3.2 3.2 0 012.58-1.5c1.88-.16-.3.28-.58.35zM223.54 159.32a3.6 3.6 0 00.76-2.19 3.08 3.08 0 01-.93 2.85c-1.37 1.32.02-.44.17-.66zM224.52 163.94a3.57 3.57 0 002.19.76 3.15 3.15 0 01-2.86-.93c-1.29-1.33.45.02.67.17z" fill="#f9bad5"/><path d="M221.2 162.87a1.34 1.34 0 001.79-.52 1.27 1.27 0 00-.49-1.76 1.34 1.34 0 00-1.79.52 1.27 1.27 0 00.49 1.76z" fill="#ffb72f"/><path d="M222.82 161.8a1.34 1.34 0 001.79-.52 1.27 1.27 0 00-.49-1.76 1.34 1.34 0 00-1.79.52 1.27 1.27 0 00.49 1.76z" fill="#ffb72f"/><path d="M223 164.09a1.34 1.34 0 001.79-.52 1.27 1.27 0 00-.49-1.76 1.34 1.34 0 00-1.79.52 1.27 1.27 0 00.49 1.76z" fill="#ffb72f"/><path d="M222.69 160.89s1.65-1.81 1.35.47c-.04 0 .65-3.1-1.35-.47z" fill="#e62337"/><path d="M223.18 161.57a.24.24 0 00.3-.12.23.23 0 000-.32.24.24 0 00-.3.12.23.23 0 000 .32zM222.24 162.57s-2.26-.86 0-1.42c0 0-3.15.55 0 1.42z" fill="#e62337"/><path d="M222.72 161.87a.21.21 0 00-.21-.23.23.23 0 00-.28.16.23.23 0 00.21.24.24.24 0 00.28-.17zM224.05 162.05s.33 2.39-1.25.74c0 0 1.98 2.42 1.25-.74z" fill="#e62337"/><path d="M223.21 162a.23.23 0 00-.11.3.22.22 0 00.28.15.22.22 0 00.11-.3.21.21 0 00-.28-.15z" fill="#e62337"/><path d="M218.89 151.11s-3 1.94.69 4.15a4.83 4.83 0 013.27 2.35 4.38 4.38 0 011.38-3.33c1.55-1.42.89-3.78-.65-4.12 0 0 2.78.11 2.54-3.91a3.61 3.61 0 011.22-2 4.48 4.48 0 01-3.62-.72c-1.43-1.25-4.09.42-3.63 2.2 0 0-2.29-4.25-5.46-.37 0 0-1.62 1.49-3 1.47 0 0 1.37-.1 3.33 3.23s3.52.64 3.93 1.05z" fill="#fff" stroke="#000" stroke-miterlimit="10" stroke-width=".52"/><path d="M219 147.84a3.64 3.64 0 00-2.32-.06 3.17 3.17 0 013 0c1.7.89-.38.14-.68.06zM222.47 147.55a3.59 3.59 0 001.77-1.49 3.12 3.12 0 01-2.26 2c-1.81.41.25-.4.49-.51zM220.92 152a3.49 3.49 0 001.47 1.77 3.1 3.1 0 01-1.95-2.26c-.44-1.79.37.24.48.49z" fill="#f9bad5"/><path d="M218.66 149.38a1.3 1.3 0 001.78.47 1.27 1.27 0 00.5-1.75 1.33 1.33 0 00-1.79-.47 1.27 1.27 0 00-.49 1.75z" fill="#ffb72f"/><path d="M220.58 149.3a1.33 1.33 0 001.79.47 1.27 1.27 0 00.49-1.75 1.3 1.3 0 00-1.78-.47 1.28 1.28 0 00-.5 1.75z" fill="#ffb72f"/><path d="M219.55 151.35a1.33 1.33 0 001.79.47 1.27 1.27 0 00.49-1.75 1.3 1.3 0 00-1.78-.47 1.28 1.28 0 00-.5 1.75z" fill="#ffb72f"/><path d="M220.94 148.46s2.33-.71.91 1.09c0 0 2.15-2.32-.91-1.09z" fill="#e62337"/><path d="M221 149.29a.24.24 0 00.32.05.22.22 0 00.11-.3.24.24 0 00-.32 0 .22.22 0 00-.11.25zM219.7 149.67s-1.48-1.89.73-1.22c0 0-2.95-1.14-.73 1.22z" fill="#e62337"/><path d="M220.46 149.31a.22.22 0 00-.05-.31.26.26 0 00-.33 0 .23.23 0 00.06.31.22.22 0 00.32 0zM221.5 150.15s-1 2.2-1.44 0c0-.01.43 3.07 1.44 0z" fill="#e62337"/><path d="M220.81 149.67a.25.25 0 00-.25.21.21.21 0 10.4.07.22.22 0 00-.15-.28z" fill="#e62337"/><path d="M231.44 148.83s-2.13-.4-1.41 2.21a3.22 3.22 0 01.48 2.52 2.59 2.59 0 012-.94 1.5 1.5 0 001.42-2.18s1.2 1.27 2.76-.69a2.09 2.09 0 011.39-.4 2.89 2.89 0 01-1.32-1.92 1.42 1.42 0 00-2.53-.57s.74-3-2.29-2.56a3.37 3.37 0 01-1.95-.63s.65.55.15 2.94 1.28 1.85 1.3 2.22z" fill="#fff" stroke="#000" stroke-miterlimit="10" stroke-width=".52"/><path d="M232.86 147.39s-.41-.84-1-1a2 2 0 011.34 1.32c.36 1.08-.26-.17-.34-.32zM234.52 148.75a2.06 2.06 0 001.41.09 1.84 1.84 0 01-1.83-.08c-.99-.59.26-.06.42-.01zM232 150.12a2.36 2.36 0 00-.08 1.46 2 2 0 01.07-1.89c.54-1 .01.31.01.43z" fill="#f9bad5"/><path d="M232.05 147.93a.86.86 0 00.61 1 .76.76 0 00.94-.59.85.85 0 00-.6-1 .78.78 0 00-.95.59z" fill="#ffb72f"/><path d="M233 148.73a.84.84 0 00.6 1 .77.77 0 00.95-.59.87.87 0 00-.6-1 .77.77 0 00-.95.59z" fill="#ffb72f"/><path d="M231.64 149.23a.85.85 0 00.6 1 .78.78 0 00.95-.59.86.86 0 00-.61-1 .76.76 0 00-.94.59z" fill="#ffb72f"/><path d="M233.45 148.51s1.34.69 0 .89c-.04 0 1.88-.13 0-.89z" fill="#e62337"/><path d="M233.14 148.92a.16.16 0 00.12.16.14.14 0 00.18-.09.15.15 0 00-.12-.16.15.15 0 00-.18.09zM232.4 148.52s.12-1.52.83-.24c0 0-.84-1.82-.83.24z" fill="#e62337"/><path d="M232.89 148.69c.07 0 .11-.08.1-.17s-.07-.15-.14-.14a.13.13 0 00-.1.17c.01.08.07.15.14.14zM233 149.53s-1.34.59-.64-.64c0 0-1.08 1.61.64.64zM232.89 149a.13.13 0 00-.19 0 .15.15 0 000 .2.14.14 0 00.2 0 .15.15 0 00-.01-.2z" fill="#e62337"/><path d="M273.77 154s-4.8-4.55-7.49-3.88c0 0 .88-1.71 3.74-.74 0 0-1.63-.87-1.53-3.91a5.07 5.07 0 013.46 2s-.55-2.8 1.16-3.59l.33 3.51s3.04 5.95.33 6.61zM272.84 154.83s-3.38-.57-4.44-2.18c0 0-1 2.19 2.64 3.85 0 0 1.83 1.71 1.66 1.87s1.81 0 1.81 0zM277 147.42a47.08 47.08 0 013.16-4l.12.53 1.78-2.16-1.68 4.21.12 2.74s-2.32 2.25-3.23 1.12a2.24 2.24 0 01-.27-2.44zM284.85 152.41s-1.25 4.74-3.1 6.29c0 0-1.28 3.07 1 .86s1.81-6.24 2.1-7.15z" fill="#01863f"/><path d="M277 162.26s-4.57.38-6.08 3.78a17 17 0 00-1.54 6v1.25l.2-.26.73-1 1.12-.42-.7.83-1 .66-.6.69.34.85.61-.56-.69 1-1.7 2.76c-.07.12 1.3.55 1.54.51a26.66 26.66 0 002.27-2.35l3.24 4s.77-.09.89-4.06c0 0 2.38 2.38 3.77 2.19a13.06 13.06 0 01-.43-2s3.31.82 4.63.1a10.68 10.68 0 00-3.24-2.11s5.89-.15 6.17-3a51.76 51.76 0 01-8.69 1.51l2.57-3.06-.05-1.56-6.08 4.62 2.93-3.94L276 168l-1.92-.16 2.43-.64s3.97-4.97.49-4.94z" fill="#00853e"/><path d="M277.64 162.61s-3.26-.83-2.55 3.15a4.57 4.57 0 01.37 3.82 4.24 4.24 0 013.26-1.16c2 .18 3.27-1.8 2.54-3.1 0 0 1.68 2 4.41-.71a3.47 3.47 0 012.24-.45 4.18 4.18 0 01-1.76-3c0-1.82-2.88-2.62-3.86-1.15 0 0 1.61-4.34-3.17-4.09a5.31 5.31 0 01-2.94-1.17s.93.9-.23 4.42 1.72 2.89 1.69 3.44z" fill="#fff" stroke="#000" stroke-miterlimit="10" stroke-width=".52"/><path d="M280.08 160.63a3.38 3.38 0 00-1.42-1.68 3 3 0 011.88 2.14c.46 1.72-.36-.23-.46-.46zM282.45 162.86a3.36 3.36 0 002.18.3 3 3 0 01-2.83-.34c-1.46-.99.42-.06.65.04zM278.28 164.61a3.37 3.37 0 00-.35 2.18 3 3 0 01.4-2.83c1.03-1.43.05.43-.05.65z" fill="#f9bad5"/><ellipse cx="279.89" cy="161.74" rx="1.23" ry="1.24" transform="rotate(-71.45 279.904 161.73)" fill="#ffb72f"/><ellipse cx="281.17" cy="163.05" rx="1.23" ry="1.24" transform="rotate(-71.46 281.156 163.05)" fill="#ffb72f"/><ellipse cx="279.05" cy="163.64" rx="1.23" ry="1.24" transform="rotate(-71.46 279.037 163.635)" fill="#ffb72f"/><path d="M280.83 162.37s2 1.19-.21 1.33c0 0 3.01.03.21-1.33z" fill="#e62337"/><ellipse cx="280.5" cy="163" rx=".19" ry=".24" transform="rotate(-71.43 280.523 163.003)" fill="#e62337"/><path d="M279.18 162.26s.43-2.25 1.33-.26c0 0-1.03-2.82-1.33.26z" fill="#e62337"/><path d="M279.92 162.58a.22.22 0 00.18-.24.21.21 0 00-.2-.23.22.22 0 00-.19.24.23.23 0 00.21.23zM280 163.84s-2.19.74-.9-1c-.03-.02-1.97 2.25.9 1z" fill="#e62337"/><path d="M279.87 163.05a.21.21 0 00-.3 0 .21.21 0 00-.1.28.24.24 0 00.4-.24z" fill="#e62337"/><path d="M274.46 153.64s-3.32.24-1.4 3.75a4.51 4.51 0 011.54 3.46 4.21 4.21 0 012.69-2.12c1.92-.45 2.5-2.7 1.41-3.7 0 0 2.21 1.38 3.91-2.05a3.44 3.44 0 011.95-1.12 4.13 4.13 0 01-2.59-2.27c-.58-1.7-3.53-1.55-4 .13 0 0 .14-4.56-4.25-2.83a5.27 5.27 0 01-3.13-.17s1.16.55 1.18 4.2 2.54 2.19 2.69 2.72z" fill="#fff" stroke="#000" stroke-miterlimit="10" stroke-width=".52"/><path d="M276.12 151a3.33 3.33 0 00-1.86-1.13 2.92 2.92 0 012.43 1.41c.93 1.5-.4-.08-.57-.28zM279 152.36a3.31 3.31 0 002.13-.41 2.9 2.9 0 01-2.75.58c-1.64-.48.41-.19.62-.17zM275.68 155.31a3.32 3.32 0 00.36 2.14 2.89 2.89 0 01-.51-2.76c.47-1.69.18.37.15.62z" fill="#f9bad5"/><ellipse cx="276.31" cy="152.11" rx="1.23" ry="1.22" fill="#ffb72f"/><ellipse cx="277.91" cy="152.93" rx="1.23" ry="1.22" fill="#ffb72f"/><ellipse cx="276.11" cy="154.14" rx="1.23" ry="1.22" fill="#ffb72f"/><path d="M277.37 152.41s2.22.49.22 1.31c0 0 2.83-.92-.22-1.31z" fill="#e62337"/><ellipse cx="277.27" cy="153.12" rx=".23" ry=".19" fill="#e62337"/><path d="M275.79 152.83s-.31-2.25 1.16-.67c.05 0-1.85-2.31-1.16.67z" fill="#e62337"/><path d="M276.58 152.89a.24.24 0 00-.16-.44.24.24 0 00.16.44zM277 154.06s-1.81 1.37-1.16-.68c.02 0-1.08 2.74 1.16.68z" fill="#e62337"/><path d="M276.69 153.35a.21.21 0 00-.3.05.21.21 0 000 .3.21.21 0 00.29 0 .21.21 0 00.01-.35z" fill="#e62337"/><path fill="#68321e" d="M269.68 171.75v5.15l-1.82.84h-3.43v-5.99"/><path fill="#fff" d="M267.05 171.96h.85v5.13h-.85z"/><path d="M269.35 162.24a.55.55 0 01-.18 0h-37.06l-3.63 5.88V172H273v-3.81z" fill="#68321e"/><path fill="#68321e" d="M231.81 171.74v5.15l1.82.84h3.43v-5.99"/><path fill="#fff" d="M229.31 168.16h22.21v.91h-22.21zM233.59 171.95h.85v5.13h-.85z"/><path fill="#fff" d="M249.76 168.16h22.21v.91h-22.21z"/><path d="M268.53 157.43s1.23-2.17-1.59-4.23c0 0 1.27-2.9-2.44-3.46 0 0 1.28-2-1.67-3.46 0 0 .77-2.42-3.14-3.39 0 0-.53-1.79-3.75-1.27a6.06 6.06 0 00-4.28-2.43 6.19 6.19 0 00-5.78 2.43c-3.22-.52-3.75 1.28-3.75 1.28-3.91 1-3.15 3.39-3.15 3.39-2.95 1.51-1.66 3.46-1.66 3.46-3.71.56-2.44 3.46-2.44 3.46-2.82 2.06-1.59 4.23-1.59 4.23-7 10.58 17.37 10.33 17.37 10.33h.5s24.35.23 17.37-10.34z" fill="#933c06" fill-rule="evenodd"/><path d="M268.23 158.34s-5.12 4.53-17 4.59h-.56c-11.88-.06-17-4.59-17-4.59-1.75 3.15 0 4.85 0 4.85 4.3 3.21 17.14 3.78 17.14 3.78h.28s12.84-.57 17.14-3.78c0 0 1.77-1.7 0-4.85zM251 142.81c.59 0 4.06 0 4.86-1 0 0-1.27-1.63-4.77-1.87h-.18c-3.5.24-4.77 1.87-4.77 1.87.74 1 4.22 1.01 4.86 1zM250.67 149.1a3.45 3.45 0 00.56 0c1.06 0 8.35-.09 11.11-3.07 0 0 .42-2.5-2.58-2.34 0 0-1.73 2.41-8.67 2.62h-.32c-6.91-.22-8.64-2.62-8.64-2.62-3-.16-2.57 2.34-2.57 2.34 2.75 2.97 10.05 3.07 11.11 3.07z" fill="#fcb040" fill-rule="evenodd"/><path d="M238.2 150c4.35 3 11.42 3.22 12.47 3.24h.76c1.55 0 8.14-.36 12.27-3.23 0 0 2.09-1.13-.92-3.24 0 0-3 3-11.47 3.11h-.7c-8.49-.14-11.49-3.12-11.49-3.12-3.01 2.06-.92 3.24-.92 3.24z" fill="#fcb040" fill-rule="evenodd"/><path d="M250.42 157.88a6.47 6.47 0 00.81 0h.33c2-.13 12.63-1 14.95-4.83 0 0 1-1.32-1.39-2.88 0 0-4.73 3.4-13.71 3.73h-1c-9-.33-13.67-3.72-13.67-3.72-2.35 1.56-1.39 2.88-1.39 2.88 2.39 3.86 13.32 4.71 15.07 4.82z" fill="#fcb040" fill-rule="evenodd"/><path d="M250.25 162.21h1.53c2.36 0 11.82-.45 15.77-4.22 0 0 1.87-1.77-.61-4.23 0 0-4 4.68-15.71 4.59h-.56c-11.69.09-15.71-4.59-15.71-4.59-2.48 2.46-.61 4.23-.61 4.23 4.03 3.83 13.77 4.19 15.9 4.22zM250.68 145.7h.32c.33 0 6 0 8.42-2.4 0 0-.37-2.23-4.16-.5a11.61 11.61 0 01-4.26.7h-.18a11.61 11.61 0 01-4.26-.7c-3.79-1.73-4.16.5-4.16.5 2.23 2.17 7.21 2.38 8.24 2.39z" fill="#fcb040" fill-rule="evenodd"/><path d="M251.09 163.29c-2.19 0-1.63 4-1.63 4h3.26s.55-4-1.63-4z" fill="#923d05" fill-rule="evenodd"/><path d="M267.7 162.89s2-1.5 0-4c0 0-.61 1-8.81 4.17 0-.06 10.11-2.94 8.81-.17zM266.51 154.74s2 1.7.2 3c0 0 1.15-2.31-9.22 1.11 0 0 9.06-3.91 9.02-4.11zM265.18 153.36s1.49-1.09-.27-2.75a29.44 29.44 0 01-8.16 3.35s8.08-1.55 8.43-.6zM262.88 149.74a1.69 1.69 0 00-.12-2.61 31.91 31.91 0 01-7.56 3.05s8.28-2.37 7.68-.44zM260.75 146s1.19-1.75-.41-2.28c0 0-.87 1-6.92 2.84 0 .01 7.36-2.17 7.33-.56zM258.17 143.21s.41-1.1-5.48.34c0 0-.51.62 5.48-.34zM250.81 140.44s2.71-.4 3.41 1.51a9.45 9.45 0 00-2.4.2s.89-1.27-1.01-1.71zM254.91 143.07s2-.87 3.06-.14" fill="#fdf8ee" fill-rule="evenodd"/><path d="M251.25 139.94a3.26 3.26 0 00-.85 0c-.55.08.92-.11.92-.11" fill="#933c06" fill-rule="evenodd"/><path d="M250.27 140.45s-2.69-.4-3.39 1.5a9.34 9.34 0 012.39.2s-.89-1.26 1-1.7zM234.33 159.15s.2 4.17 8.2 6.15c0 0-5.92-.71-8.77-2.7 0 0-.42-2.6.57-3.45zM242.85 160.58s-7.95-3.14-8.36-3.7.2-1.62.77-1.3c0 0 1.94 2.22 7.59 5zM243.58 156.09s-7.87-4.21-6.11-5c0 0-1.76-.39-1.54 1.92 0-.01-.28-.86 7.65 3.08zM239.58 147.3s-1.7 1.27 6.94 4.71c0 0-7.49-2.88-8.5-2.56-.02 0-.19-2.56 1.56-2.15zM241.12 144.39a21.64 21.64 0 005.71 4.25s-6.07-2.76-6.19-3-.64-1.91.48-1.25zM248.48 144.46s-3-1-2.94-2.05c0 0-3.08.19-.87 1.14a8.33 8.33 0 003.81.91z" fill="#bb823d" fill-rule="evenodd"/><path d="M255.79 157.41a44.91 44.91 0 01-10.84-.18c-4.75-.86 1.62.93 1.62.93a41 41 0 009.07 0c4.83-.61.15-.75.15-.75z" fill="#933c06" fill-rule="evenodd"/><path d="M229.21 156.63a5.35 5.35 0 01.21-.95 8.72 8.72 0 000 1.09c0 .76-.19 0-.19-.19" fill-rule="evenodd"/><path d="M229.6 157.72s-.9-.8.83-2.08c0 0 .17-.17.15-.29a.86.86 0 01-.26.59c-.31.32-1 .95-.39 1.56s-.33.22-.33.22zM227.56 157.99l1.24.04-.01.18-1.23-.22z" fill-rule="evenodd"/><path d="M228.93 158.22s-3.36-3.27-1-2.36c0 0 .58-.89 1.62 1.44.05 0 .52.63-.62.92z" fill="#fff" stroke="#000" stroke-miterlimit="10" stroke-width=".09" fill-rule="evenodd"/><path fill-rule="evenodd" d="M227.47 158.47l.98-.13-.04.2-.94-.07z"/><path d="M228 156.19c-.17.41.91 1.52.91 1.52a2.76 2.76 0 01-.37-1.43" fill="#fff" stroke="#000" stroke-miterlimit="10" stroke-width=".09" fill-rule="evenodd"/><path d="M231.07 158.43a5.65 5.65 0 001-.14 7.79 7.79 0 01-1.09-.09c-.76-.11 0 .19.18.2" fill-rule="evenodd"/><path d="M230 158s.73 1 2.14-.67c0 0 .18-.15.29-.13a.85.85 0 00-.6.21c-.35.3-1 1-1.59.28s-.24.31-.24.31zM229.61 160.15l.06-1.41-.21-.01.15 1.42z" fill-rule="evenodd"/><path d="M229.46 158.59s3 3.6 2.29 1.12c0 0 .93-.5-1.31-1.72 0 .01-.59-.52-.98.6z" fill="#fff" stroke="#000" stroke-miterlimit="10" stroke-width=".09" fill-rule="evenodd"/><path d="M228.57 159.15a.66.66 0 001.05-.33c.32-.84 2.28-.7 2.17-2.81l-3.31 3.05z" fill-rule="evenodd"/><path d="M228.41 159a.66.66 0 01.41-1c.86-.25.87-2.22 3-2l-3.3 3.07z" fill-rule="evenodd"/><path d="M231.44 156s-.09.28.05.31l-.3.28s-.33-.27-.14-.56a1.06 1.06 0 01.39-.03zM230.86 156.88a.79.79 0 01-.12-.79 1 1 0 00-.36.18c-.17.12.14.76.22.85zM230.29 157.41a2.53 2.53 0 01-.22-.89 2.64 2.64 0 00-.41.53 1 1 0 00.3.67zM229.08 157.82a1 1 0 01.54.21l-.56.53a.82.82 0 01-.15-.63z" fill="#ffe717" fill-rule="evenodd"/><path d="M230.86 156.87a.78.78 0 00.77.18 1.26 1.26 0 01-.21.35c-.13.15-.75-.21-.83-.29zM231.79 156.36s-.28.07-.3-.08l-.3.28s.24.35.54.19a.91.91 0 00.06-.39zM230.28 157.4a2.43 2.43 0 00.87.28 2.87 2.87 0 01-.56.37 1 1 0 01-.64-.35zM229.78 158.57a1.05 1.05 0 00-.17-.56l-.57.53a.82.82 0 00.62.19z" fill="#ffe717" fill-rule="evenodd"/><path d="M230.07 156.52s-.33 1.1 1.08 1.16l.27-.28a1 1 0 01-1.06-1.12l-.27.24M231.44 156s-.18.47.35.38" fill-rule="evenodd"/><path d="M229.08 157.82a.64.64 0 01.7.75M228.91 157.93a.63.63 0 00.75.8" fill="#ffe717" fill-rule="evenodd"/><path fill-rule="evenodd" d="M229.1 160.03l.21-.98-.2.03-.01.95z"/><path d="M231.42 159.67c-.42.14-1.45-1-1.45-1a2.72 2.72 0 001.4.47" fill="#fff" stroke="#000" stroke-miterlimit="10" stroke-width=".09" fill-rule="evenodd"/><path d="M231.8 156.19s.1-.37.25-.41a3 3 0 01-.54.21M245 166.73a6.44 6.44 0 01-.17 1 9.21 9.21 0 00-.08-1.14c-.08-.79.21 0 .21.19" fill-rule="evenodd"/><path d="M244.49 165.63s1 .78-.76 2.21c0 0-.17.18-.15.3a1 1 0 01.24-.62c.32-.36 1-1.05.33-1.65s.34-.24.34-.24zM246.59 165.24l-1.29.01v-.19l1.29.18z" fill-rule="evenodd"/><path d="M245.16 165.06s3.67 3.24 1.11 2.42c0 0-.56 1-1.77-1.42 0 0-.5-.63.66-1z" fill="#fff" stroke="#000" stroke-miterlimit="10" stroke-width=".09" fill-rule="evenodd"/><path fill-rule="evenodd" d="M246.67 164.73l-1.02.19.03-.21.99.02z"/><path d="M246.23 167.13c.16-.43-1-1.54-1-1.54a2.81 2.81 0 01.46 1.47" fill="#fff" stroke="#000" stroke-miterlimit="10" stroke-width=".09" fill-rule="evenodd"/><path d="M242.91 165a5.57 5.57 0 00-1 .19 9.83 9.83 0 011.14 0c.79.07 0-.2-.19-.2" fill-rule="evenodd"/><path d="M244 165.39s-.81-1-2.19.81c0 0-.18.17-.3.16a1 1 0 00.61-.26c.35-.32 1-1 1.65-.37s.23-.34.23-.34zM244.34 163.09l.02 1.47h.21l-.23-1.47z" fill-rule="evenodd"/><path d="M244.58 164.71s-3.32-3.6-2.44-1.06c0 0-.95.58 1.45 1.73 0 0 .65.51.99-.67z" fill="#fff" stroke="#000" stroke-miterlimit="10" stroke-width=".09" fill-rule="evenodd"/><path d="M245.48 164.07a.68.68 0 00-1.07.41c-.29.89-2.35.84-2.12 3l3.29-3.36zM245.66 164.24a.69.69 0 01-.38 1.09c-.88.31-.79 2.36-3 2.19l3.29-3.38z" fill-rule="evenodd"/><path d="M242.66 167.53s.07-.29-.08-.32l.3-.3s.36.26.18.57a1.11 1.11 0 01-.4.05zM243.21 166.57a.82.82 0 01.17.81 1.37 1.37 0 00.37-.21c.16-.13-.2-.79-.28-.87zM243.78 166a2.59 2.59 0 01.27.92 3 3 0 00.4-.57 1.09 1.09 0 00-.34-.69zM245 165.49a1 1 0 01-.57-.19l.57-.58a.88.88 0 01.18.65z" fill="#ffe717" fill-rule="evenodd"/><path d="M243.22 166.58a.81.81 0 00-.82-.15 1.19 1.19 0 01.2-.38c.13-.17.79.18.88.26zM242.27 167.15s.29-.08.31.07l.3-.31s-.26-.35-.57-.17a1.08 1.08 0 00-.04.41zM243.79 166a2.5 2.5 0 00-.92-.25 2.83 2.83 0 01.56-.41 1.06 1.06 0 01.69.32zM244.25 164.75a1 1 0 00.2.56l.57-.57a.85.85 0 00-.65-.17z" fill="#ffe717" fill-rule="evenodd"/><path d="M244.05 166.9s.29-1.16-1.18-1.16l-.27.31a1.05 1.05 0 011.16 1.11l.28-.27M242.66 167.53s.16-.5-.39-.38" fill-rule="evenodd"/><path d="M245 165.49a.66.66 0 01-.76-.74M245.19 165.37a.66.66 0 00-.82-.8" fill="#ffe717" fill-rule="evenodd"/><path fill-rule="evenodd" d="M244.88 163.19l-.17 1.02.21-.03-.04-.99z"/><path d="M242.49 163.68c.42-.17 1.56 1 1.56 1a2.92 2.92 0 00-1.48-.42" fill="#fff" stroke="#000" stroke-miterlimit="10" stroke-width=".09" fill-rule="evenodd"/><path d="M242.27 167.33s-.09.39-.24.44a3 3 0 01.55-.24M265.79 169.35a7.33 7.33 0 011 .14s-.34 0-1.14.09 0-.19.19-.2" fill-rule="evenodd"/><path d="M264.69 169.8s.77-.94 2.23.69c0 0 .19.15.3.13a.9.9 0 01-.62-.22c-.36-.29-1.07-1-1.67-.29s-.24-.31-.24-.31zM264.26 167.81l.04 1.22h-.19l.15-1.22z" fill-rule="evenodd"/><path d="M264.11 169.17s3.19-3.53 2.41-1.09c0 0 1 .52-1.39 1.7 0 0-.63.5-1.02-.61z" fill="#fff" stroke="#000" stroke-miterlimit="10" stroke-width=".09" fill-rule="evenodd"/><path fill-rule="evenodd" d="M263.75 167.75l.21.96-.21-.02v-.94z"/><path d="M266.17 168.13c-.43-.15-1.53 1-1.53 1a3 3 0 011.47-.45" fill="#fff" stroke="#000" stroke-miterlimit="10" stroke-width=".09" fill-rule="evenodd"/><path d="M264 171.3a5.35 5.35 0 00.21.95 7.25 7.25 0 010-1.08c.05-.76-.21 0-.21.18" fill-rule="evenodd"/><path d="M264.46 170.24s-.95.77.85 2.06c0 0 .17.17.15.28a.84.84 0 00-.26-.58c-.33-.32-1.07-1-.4-1.55s-.34-.21-.34-.21zM262.14 169.97l1.48-.04v-.2l-1.48.24z" fill-rule="evenodd"/><path d="M263.76 169.72s-3.56 3.2-1 2.33c0 0 .59.89 1.72-1.4-.02 0 .52-.65-.72-.93z" fill="#fff" stroke="#000" stroke-miterlimit="10" stroke-width=".09" fill-rule="evenodd"/><path d="M263.11 168.88a.63.63 0 00.42 1c.91.26.88 2.21 3.09 2l-3.42-3.08z" fill-rule="evenodd"/><path d="M263.28 168.71a.7.7 0 011.09.34c.33.84 2.39.71 2.25 2.81l-3.44-3.06z" fill-rule="evenodd"/><path d="M266.62 171.51s-.29-.07-.31.07l-.31-.28s.25-.34.57-.18a.83.83 0 01.05.39zM265.65 171a.85.85 0 01.81-.17 1.13 1.13 0 00-.21-.35c-.14-.16-.79.19-.87.27zM265.06 170.46a2.74 2.74 0 01.91-.27 3.36 3.36 0 00-.58-.37 1.06 1.06 0 00-.68.34zM264.55 169.3a1 1 0 01-.19.55l-.59-.53a.88.88 0 01.65-.18z" fill="#ffe717" fill-rule="evenodd"/><path d="M265.66 171a.74.74 0 00-.14.77 1.25 1.25 0 01-.38-.18c-.17-.12.17-.75.25-.84zM266.25 171.88s-.09-.27.07-.3l-.31-.28s-.36.26-.17.55a1.18 1.18 0 00.41.03zM265.07 170.46a2.14 2.14 0 00-.24.87 2.67 2.67 0 01-.43-.52 1 1 0 01.32-.67zM263.81 170a1.09 1.09 0 00.57-.21l-.59-.53a.78.78 0 00-.16.62z" fill="#ffe717" fill-rule="evenodd"/><path d="M266 170.19s-1.17-.25-1.14 1.14l.31.25a1 1 0 011.1-1.12l-.27-.25M266.62 171.51s-.5-.15-.37.37" fill-rule="evenodd"/><path d="M264.55 169.3a.65.65 0 01-.74.74M264.42 169.14s-.93-.15-.79.78" fill="#ffe717" fill-rule="evenodd"/><path fill-rule="evenodd" d="M262.24 169.46l1.03.15-.04-.2-.99.05z"/><path d="M262.77 171.72c-.18-.4 1-1.49 1-1.49a2.58 2.58 0 00-.4 1.41" fill="#fff" stroke="#000" stroke-miterlimit="10" stroke-width=".09" fill-rule="evenodd"/><path d="M266.43 171.87s.4.08.45.22a2.53 2.53 0 01-.25-.52M258.18 152.46a4.49 4.49 0 01.82.19 7.11 7.11 0 00-.94 0c-.65 0 0-.16.17-.16" fill-rule="evenodd"/><path d="M257.26 152.77s.68-.73 1.77.71c0 0 .15.14.24.14a.81.81 0 01-.49-.23c-.28-.26-.82-.86-1.34-.35s-.18-.27-.18-.27zM257.03 151.09l-.04 1.01h-.15l.19-1.01z" fill-rule="evenodd"/><path d="M256.83 152.21s2.8-2.73 2-.75c0 0 .76.49-1.23 1.32.02 0-.53.38-.77-.57z" fill="#fff" stroke="#000" stroke-miterlimit="10" stroke-width=".09" fill-rule="evenodd"/><path fill-rule="evenodd" d="M256.62 151l.11.82-.17-.04.06-.78z"/><path d="M258.57 151.47c-.35-.15-1.31.73-1.31.73a2.38 2.38 0 011.23-.28" fill="#fff" stroke="#000" stroke-miterlimit="10" stroke-width=".09" fill-rule="evenodd"/><path d="M256.64 154a5.41 5.41 0 00.11.8 7.12 7.12 0 01.09-.89c.09-.62-.16 0-.17.14" fill-rule="evenodd"/><path d="M257.05 153.12s-.82.58.56 1.77c0 0 .13.15.12.24a.78.78 0 00-.19-.5c-.25-.29-.81-.86-.23-1.31s-.26-.2-.26-.2zM255.18 152.75l1.21.06v-.16l-1.21.1z" fill-rule="evenodd"/><path d="M256.51 152.65s-3.09 2.43-1 1.87c0 0 .43.77 1.48-1.06.01 0 .48-.46-.48-.81z" fill="#fff" stroke="#000" stroke-miterlimit="10" stroke-width=".09" fill-rule="evenodd"/><path d="M256 151.9a.54.54 0 00.29.87c.71.28.58 1.9 2.39 1.83l-2.6-2.77zM256.18 151.77a.57.57 0 01.87.36c.21.71 1.9.74 1.66 2.47l-2.62-2.76z" fill-rule="evenodd"/><path d="M258.73 154.31s-.23-.08-.26 0l-.23-.25s.22-.27.47-.11a.67.67 0 01.02.36zM258 153.82a.7.7 0 01.67-.09.9.9 0 00-.15-.3c-.1-.14-.65.11-.73.17zM257.52 153.34a2.06 2.06 0 01.76-.16 2.13 2.13 0 00-.45-.35.9.9 0 00-.58.24zM257.17 152.34a.83.83 0 01-.18.45l-.45-.48a.71.71 0 01.54-.11zM258 153.82a.63.63 0 00-.16.64 1.13 1.13 0 01-.3-.18c-.13-.11.18-.62.25-.68zM258.41 154.6s-.06-.24.07-.25l-.24-.25s-.3.19-.16.44a.86.86 0 00.33.06z" fill="#ffe717" fill-rule="evenodd"/><path d="M257.53 153.34a1.91 1.91 0 00-.25.71 2.63 2.63 0 01-.31-.46.79.79 0 01.3-.53zM256.53 152.91a.84.84 0 00.47-.13l-.44-.48a.61.61 0 00-.17.5z" fill="#ffe717" fill-rule="evenodd"/><path d="M258.28 153.18s-.94-.29-1 .87l.24.23a.83.83 0 011-.86l-.2-.23M258.73 154.31s-.4-.15-.32.29" fill-rule="evenodd"/><path d="M257.17 152.34a.53.53 0 01-.64.57M257.08 152.2a.53.53 0 00-.69.6" fill="#ffe717" fill-rule="evenodd"/><path fill-rule="evenodd" d="M255.28 152.33l.84.19-.02-.17-.82-.02z"/><path d="M255.58 154.25c-.12-.35.88-1.18.88-1.18a2.12 2.12 0 00-.41 1.14" fill="#fff" stroke="#000" stroke-miterlimit="10" stroke-width=".09" fill-rule="evenodd"/><path d="M258.56 154.6s.31.09.35.22a2.61 2.61 0 01-.18-.45M272.51 161.41a3.77 3.77 0 01-.18.67 6.94 6.94 0 000-.78c0-.54.13 0 .12.15" fill-rule="evenodd"/><path d="M272.27 160.63s.61.59-.65 1.46c0 0-.12.12-.11.2a.61.61 0 01.2-.41c.23-.22.75-.66.32-1.1s.24-.15.24-.15zM273.7 160.48l-.86-.06.01-.12.85.18z" fill-rule="evenodd"/><path d="M272.75 160.28s2.27 2.39.6 1.7c0 0-.43.62-1.1-1 0-.05-.31-.51.5-.7z" fill="#fff" stroke="#000" stroke-miterlimit="10" stroke-width=".09" fill-rule="evenodd"/><path fill-rule="evenodd" d="M273.79 160.14l-.7.07.03-.14.67.07z"/><path d="M273.34 161.74c.14-.28-.59-1.09-.59-1.09a2 2 0 01.22 1" fill="#fff" stroke="#000" stroke-miterlimit="10" stroke-width=".09" fill-rule="evenodd"/><path d="M271.26 160.1a3.66 3.66 0 00-.69.07s.23 0 .76.09 0-.13-.12-.14" fill-rule="evenodd"/><path d="M272 160.45s-.49-.69-1.52.43c0 0-.13.11-.21.09a.57.57 0 00.43-.14c.25-.2.75-.66 1.12-.16s.18-.22.18-.22zM272.33 158.91l-.08 1 .14.01-.06-1.01z" fill-rule="evenodd"/><path d="M272.39 160s-2-2.62-1.57-.85c0 0-.67.34.86 1.25 0 .02.41.4.71-.4z" fill="#fff" stroke="#000" stroke-miterlimit="10" stroke-width=".09" fill-rule="evenodd"/><path d="M273 159.63a.46.46 0 00-.74.22c-.25.59-1.63.45-1.61 2l2.41-2.1z" fill-rule="evenodd"/><path d="M273.14 159.76a.47.47 0 01-.32.71c-.61.17-.67 1.57-2.14 1.33l2.4-2.11z" fill-rule="evenodd"/><path d="M270.93 161.82s.07-.19 0-.21l.22-.19s.23.19.09.39a.56.56 0 01-.31.01zM271.36 161.2a.57.57 0 01.06.56.75.75 0 00.26-.12c.12-.08-.08-.54-.13-.61zM271.77 160.84a1.66 1.66 0 01.13.63 2.56 2.56 0 00.3-.36.74.74 0 00-.18-.49zM272.63 160.57a.67.67 0 01-.37-.16l.41-.36a.57.57 0 01.09.44z" fill="#ffe717" fill-rule="evenodd"/><path d="M271.36 161.21a.53.53 0 00-.54-.14 1 1 0 01.16-.25c.1-.11.52.16.57.22zM270.69 161.55s.2 0 .21.06l.22-.19s-.16-.25-.38-.14a.65.65 0 00-.05.27zM271.78 160.84a1.74 1.74 0 00-.6-.22 2.62 2.62 0 01.4-.25.7.7 0 01.44.26zM272.16 160a.71.71 0 00.11.4l.41-.36a.52.52 0 00-.42-.15z" fill="#ffe717" fill-rule="evenodd"/><path d="M271.9 161.47s.26-.77-.72-.85l-.2.2a.7.7 0 01.71.81l.2-.16M270.93 161.82s.13-.32-.24-.27" fill-rule="evenodd"/><path d="M272.63 160.57a.45.45 0 01-.47-.55M272.76 160.49a.44.44 0 00-.5-.58" fill="#ffe717" fill-rule="evenodd"/><path fill-rule="evenodd" d="M272.68 159l-.17.69.14-.01.03-.68z"/><path d="M271.05 159.21c.29-.09 1 .75 1 .75a1.85 1.85 0 00-1-.36" fill="#fff" stroke="#000" stroke-miterlimit="10" stroke-width=".09" fill-rule="evenodd"/><path d="M270.68 161.67s-.08.26-.19.29a2.39 2.39 0 01.39-.14M239.83 144.91a5.45 5.45 0 01-.22.86 7.71 7.71 0 000-1c0-.7.16 0 .16.18" fill-rule="evenodd"/><path d="M239.52 143.92s.77.74-.8 1.87c0 0-.15.15-.14.25a.79.79 0 01.25-.52c.29-.29.93-.85.4-1.42s.29-.18.29-.18zM241.32 143.71l-1.08-.07.01-.16 1.07.23z" fill-rule="evenodd"/><path d="M240.13 143.47s2.85 3.05.75 2.17c0 0-.53.8-1.37-1.34 0 0-.4-.59.62-.83z" fill="#fff" stroke="#000" stroke-miterlimit="10" stroke-width=".09" fill-rule="evenodd"/><path fill-rule="evenodd" d="M241.42 143.27l-.87.1.04-.18.83.08z"/><path d="M240.87 145.34c.17-.37-.74-1.41-.74-1.41a2.49 2.49 0 01.27 1.31" fill="#fff" stroke="#000" stroke-miterlimit="10" stroke-width=".09" fill-rule="evenodd"/><path d="M238.25 143.23a6 6 0 00-.85.1 8.4 8.4 0 01.95.12c.66.11 0-.18-.15-.19" fill-rule="evenodd"/><path d="M239.16 143.68s-.61-.89-1.9.57c0 0-.17.13-.27.11a.8.8 0 00.54-.18c.32-.26.94-.85 1.41-.22s.22-.28.22-.28zM239.59 141.7l-.1 1.28.18.02-.08-1.3z" fill-rule="evenodd"/><path d="M239.67 143.12s-2.52-3.34-2-1.07c0 0-.84.44 1.09 1.6.03 0 .54.48.91-.53z" fill="#fff" stroke="#000" stroke-miterlimit="10" stroke-width=".09" fill-rule="evenodd"/><path d="M240.47 142.63a.57.57 0 00-.93.28c-.31.76-2 .58-2 2.51l3-2.71z" fill-rule="evenodd"/><path d="M240.61 142.79a.61.61 0 01-.4.92c-.76.21-.83 2-2.67 1.71l3-2.72z" fill-rule="evenodd"/><path d="M237.85 145.45s.09-.25 0-.28l.27-.24s.28.25.11.5a.76.76 0 01-.38.02zM238.38 144.65a.72.72 0 01.08.72 1.31 1.31 0 00.33-.15c.15-.11-.11-.7-.17-.79zM238.9 144.18a2.3 2.3 0 01.17.81 2.38 2.38 0 00.37-.47 1 1 0 00-.23-.62zM240 143.83a.8.8 0 01-.47-.2l.52-.47a.77.77 0 01.1.58z" fill="#ffe717" fill-rule="evenodd"/><path d="M238.39 144.66a.68.68 0 00-.68-.18 1.17 1.17 0 01.2-.31c.12-.14.65.2.72.27zM237.55 145.1s.25-.06.26.08l.27-.25s-.19-.32-.47-.18a.9.9 0 00-.06.35zM238.91 144.19a2.1 2.1 0 00-.75-.28 2.4 2.4 0 01.5-.32.83.83 0 01.55.33zM239.39 143.14a.85.85 0 00.13.5l.52-.46a.69.69 0 00-.54-.19z" fill="#ffe717" fill-rule="evenodd"/><path d="M239.07 145s.32-1-.91-1.08l-.25.26a.88.88 0 01.89 1l.25-.21M237.85 145.45s.17-.42-.3-.35" fill-rule="evenodd"/><path d="M240 143.83a.56.56 0 01-.59-.69M240.13 143.74a.56.56 0 00-.63-.75" fill="#ffe717" fill-rule="evenodd"/><path fill-rule="evenodd" d="M240.03 141.82l-.21.88.17-.01.04-.87z"/><path d="M238 142.1c.37-.12 1.23 1 1.23 1a2.3 2.3 0 00-1.21-.46" fill="#fff" stroke="#000" stroke-miterlimit="10" stroke-width=".09" fill-rule="evenodd"/><path d="M237.54 145.26s-.1.33-.23.37a2.12 2.12 0 01.48-.18M265.34 141.49a4.85 4.85 0 01-.91-.23 8.53 8.53 0 001.05 0c.73 0 0 .18-.19.17" fill-rule="evenodd"/><path d="M266.38 141.18s-.78.8-2-.85c0 0-.15-.16-.26-.16a.92.92 0 01.55.27c.3.3.89 1 1.49.42s.22.32.22.32zM266.59 143.07l.08-1.14.17.01-.25 1.13z" fill-rule="evenodd"/><path d="M266.85 141.81s-3.22 3-2.29.79c0 0-.84-.57 1.42-1.44.02 0 .62-.42.87.65z" fill="#fff" stroke="#000" stroke-miterlimit="10" stroke-width=".09" fill-rule="evenodd"/><path fill-rule="evenodd" d="M267.05 143.17l-.1-.91.19.04-.09.87z"/><path d="M264.88 142.59c.39.18 1.48-.78 1.48-.78a2.63 2.63 0 01-1.38.29" fill="#fff" stroke="#000" stroke-miterlimit="10" stroke-width=".09" fill-rule="evenodd"/><path d="M267.11 139.84a5.48 5.48 0 00-.11-.9 6.68 6.68 0 01-.12 1c-.12.7.18 0 .2-.15" fill-rule="evenodd"/><path d="M266.63 140.79s.94-.63-.59-2c0 0-.14-.17-.12-.28a1 1 0 00.2.57c.27.33.88 1 .22 1.48s.29.23.29.23zM268.72 141.25l-1.36-.1-.01.19 1.37-.09z" fill-rule="evenodd"/><path d="M267.22 141.33s3.53-2.64 1.14-2.07c0 0-.47-.88-1.69 1.15 0 0-.51.53.55.92z" fill="#fff" stroke="#000" stroke-miterlimit="10" stroke-width=".09" fill-rule="evenodd"/><path d="M267.74 142.18a.6.6 0 00-.3-1c-.8-.33-.6-2.14-2.64-2.12l2.84 3.18zM267.57 142.32a.64.64 0 01-1-.42c-.22-.81-2.11-.88-1.79-2.82l2.85 3.17z" fill-rule="evenodd"/><path d="M264.77 139.41s.26.09.29 0l.26.28s-.26.3-.53.12a.86.86 0 01-.02-.4zM265.61 140a.76.76 0 01-.75.09 1 1 0 00.16.34c.11.16.73-.11.82-.17zM266.11 140.52a2.32 2.32 0 01-.86.17 2.83 2.83 0 00.49.4 1 1 0 00.66-.25zM266.47 141.65a.88.88 0 01.22-.49l.49.55a.83.83 0 01-.61.11z" fill="#ffe717" fill-rule="evenodd"/><path d="M265.6 140a.72.72 0 00.2-.71 1.28 1.28 0 01.33.2c.14.14-.22.69-.3.76zM265.14 139.1s.06.26-.08.27l.26.29s.34-.21.19-.49a.73.73 0 00-.37-.07zM266.1 140.53a2.19 2.19 0 00.29-.79 2.52 2.52 0 01.34.53.93.93 0 01-.35.58zM267.21 141a1 1 0 00-.54.13l.49.55a.73.73 0 00.2-.56z" fill="#ffe717" fill-rule="evenodd"/><path d="M265.25 140.69s1 .35 1.14-.95l-.26-.27a.94.94 0 01-1.1.94l.22.27M264.77 139.41s.45.18.37-.31" fill-rule="evenodd"/><path d="M266.47 141.65a.59.59 0 01.74-.61M266.57 141.82a.59.59 0 00.79-.66" fill="#ffe717" fill-rule="evenodd"/><path fill-rule="evenodd" d="M268.58 141.72l-.92-.23.02.19.9.04z"/><path d="M268.3 139.57c.13.39-1 1.29-1 1.29a2.49 2.49 0 00.49-1.27" fill="#fff" stroke="#000" stroke-miterlimit="10" stroke-width=".09" fill-rule="evenodd"/><path d="M265 139.08s-.35-.11-.39-.24a3 3 0 01.19.5" fill-rule="evenodd"/><path d="M227.51 182.17H230V188a10.81 10.81 0 00.09 1.8 1.77 1.77 0 00.75 1.07 2.77 2.77 0 001.6.4 2.73 2.73 0 001.57-.38 1.46 1.46 0 00.63-.93 11.29 11.29 0 00.1-1.84v-6h2.43v5.68a13.26 13.26 0 01-.19 2.74 2.85 2.85 0 01-.72 1.35 3.78 3.78 0 01-1.42.88 6.86 6.86 0 01-2.33.33 7.26 7.26 0 01-2.61-.36 3.85 3.85 0 01-1.41-.93 2.74 2.74 0 01-.68-1.19 11.14 11.14 0 01-.25-2.74v-5.76zM242.43 183.98h-3.58v-1.85h9.58v1.85h-3.57v9.08h-2.43v-9.08zM259.71 193.06h-2.66l-1.05-2.48h-4.86l-1 2.48h-2.6l4.73-10.93h2.6zm-4.52-4.32l-1.68-4.06-1.63 4.06zM261.14 182.12h2.42v4.26h4.75v-4.26h2.42v10.84h-2.42v-4.74h-4.75v4.74h-2.42v-10.84zM244.54 200.59h-1.12v-4.34a3.92 3.92 0 01-1.44.87v-1a3.35 3.35 0 001-.56 2.18 2.18 0 00.7-1h.91v6zM247.06 197.4a1.33 1.33 0 01-.63-.52 1.39 1.39 0 01-.2-.72 1.46 1.46 0 01.46-1.12 2.14 2.14 0 012.6 0 1.46 1.46 0 01.46 1.12 1.31 1.31 0 01-.81 1.24 1.49 1.49 0 011 1.47 1.79 1.79 0 01-1.9 1.88 2 2 0 01-1.33-.43 1.69 1.69 0 01-.63-1.4 1.72 1.72 0 01.24-.89 1.45 1.45 0 01.74-.63m.13 1.41a1.09 1.09 0 00.24.75.79.79 0 00.6.26.7.7 0 00.57-.26 1.06 1.06 0 00.23-.73 1 1 0 00-.23-.68.77.77 0 00-.59-.26.72.72 0 00-.62.29 1.1 1.1 0 00-.2.63m.1-2.57a.76.76 0 00.19.53.78.78 0 001 0 .73.73 0 00.2-.54.75.75 0 00-.19-.52.69.69 0 00-.51-.19.67.67 0 00-.51.19.72.72 0 00-.2.53M252.78 200.49v-1.19h-2.44v-1l2.59-3.75h1v3.75h.74v1h-.74v1.19zm0-2.18v-2l-1.37 2zM255 195.67v-1.07h3.87v.83a6.08 6.08 0 00-1 1.37 7.84 7.84 0 00-.75 1.9 6.9 6.9 0 00-.26 1.79h-1.09a7.63 7.63 0 01.5-2.52 8.42 8.42 0 011.28-2.3z" fill="#012d6a"/><path d="M254 124.85s-34.88-19-35.17-19-.67 1.49-.67 1.49l33.63 18a5.16 5.16 0 002.21-.49z" fill="#904b2e" stroke="#000" stroke-miterlimit="10" stroke-width=".35"/><path d="M255.61 125.36s-43.17-17.88-43.53-17.87-.78 1.51-.78 1.51l41.62 16.91a7.68 7.68 0 002.69-.55z" fill="#904b2e" stroke="#000" stroke-miterlimit="10" stroke-width=".35"/><path d="M218.05 108.83l.58-1.19a1 1 0 01.7-1.55L220 105l-6.91-1.4z" stroke="#000" stroke-miterlimit="10" stroke-width=".35"/><path d="M214.27 104.39l5.09.89s-2.42.28-1.45 3z" fill="#9ea5a8"/><path d="M212.44 111l.55-1.36a1.06 1.06 0 01.65-1.78l.6-1.23-7.77-1z" stroke="#000" stroke-miterlimit="10" stroke-width=".35"/><path d="M207.88 106.37l5.72.62s-2.65.49-1.36 3.39z" fill="#9ea5a8"/><path d="M257.14 124.73s-45.53-10.51-45.87-10.45-.53 1.62-.53 1.62l43.84 9.82a7.5 7.5 0 002.56-.99z" fill="#904b2e" stroke="#000" stroke-miterlimit="10" stroke-width=".35"/><path d="M212.25 118l.34-1.43a1.06 1.06 0 01.36-1.86l.41-1.31-7.84.17z" stroke="#000" stroke-miterlimit="10" stroke-width=".35"/><path d="M207 114.12l5.75-.27s-2.55.9-.83 3.57z" fill="#9ea5a8"/><path d="M231.82 108.49s-2.36.17-1 2.14a3.33 3.33 0 001.3.94 4.73 4.73 0 01.93-2.12s.38-1.27-1.23-.96zM236.26 108.49s-2.35.17-1 2.14a3.42 3.42 0 001.3.94 4.67 4.67 0 01.94-2.12s.37-1.27-1.24-.96zM241.8 108.49s-2.35.17-1 2.14a3.42 3.42 0 001.3.94 4.67 4.67 0 01.94-2.12s.37-1.27-1.24-.96zM258.27 108.49s-2.35.17-1 2.14a3.31 3.31 0 001.3.94 4.6 4.6 0 01.94-2.11s.37-1.28-1.24-.97zM263.41 108.37s-2.36.17-1 2.14a3.23 3.23 0 001.3.94 4.67 4.67 0 01.93-2.11s.36-1.28-1.23-.97zM268.07 108.49s-2.36.17-1 2.14a3.25 3.25 0 001.29.94 4.72 4.72 0 01.94-2.11s.38-1.28-1.23-.97z" fill="#fff" stroke="#010001" stroke-miterlimit="10" stroke-width=".43" fill-rule="evenodd"/><path d="M314.1 102.58a7 7 0 01-1.13 4.75l-14.75 13.45 1.35 2.49 14-13.64c2-1.46 6.1-1.7 6.1-1.7z" fill="#914c2d"/><path d="M247.19 124.85s34.88-19 35.16-19 .68 1.49.68 1.49l-33.63 18a5.14 5.14 0 01-2.21-.49z" fill="#904b2e" stroke="#000" stroke-miterlimit="10" stroke-width=".35"/><path d="M245.54 125.36s43.17-17.88 43.52-17.87.78 1.51.78 1.51l-41.61 16.91a7.64 7.64 0 01-2.69-.55z" fill="#904b2e" stroke="#000" stroke-miterlimit="10" stroke-width=".35"/><path d="M283.09 108.83l-.58-1.19a1 1 0 00-.7-1.55l-.63-1.06 6.91-1.4z" stroke="#000" stroke-miterlimit="10" stroke-width=".35"/><path d="M286.88 104.39l-5.1.89s2.42.28 1.45 3z" fill="#9ea5a8"/><path d="M288.7 111l-.55-1.36a1.06 1.06 0 00-.65-1.78l-.6-1.23 7.77-1z" stroke="#000" stroke-miterlimit="10" stroke-width=".35"/><path d="M293.26 106.37l-5.72.62s2.66.49 1.36 3.39z" fill="#9ea5a8"/><path d="M244 124.73s45.53-10.51 45.88-10.45.52 1.62.52 1.62l-43.84 9.82a7.57 7.57 0 01-2.56-.99z" fill="#904b2e" stroke="#000" stroke-miterlimit="10" stroke-width=".35"/><path d="M288.89 118l-.33-1.43a1.06 1.06 0 00-.37-1.86l-.41-1.31 7.84.17z" stroke="#000" stroke-miterlimit="10" stroke-width=".35"/><path d="M294.11 114.12l-5.75-.27s2.55.9.83 3.57z" fill="#9ea5a8"/></svg>