<svg xmlns="http://www.w3.org/2000/svg" width="600" height="378.32" viewBox="0 0 600 378.32"><title>flag-arizona-dimensions</title><rect x="49.11" y="4.09" width="501.48" height="334.31" fill="#fff" stroke="#50d6cc" stroke-linecap="round" stroke-linejoin="round"/><line x1="49.11" y1="121.93" x2="216.66" y2="150.34" fill="none" stroke="#50d6cc" stroke-linecap="round" stroke-linejoin="round"/><line x1="244.66" y1="171.24" x2="49.11" y2="171.24" fill="none" stroke="#50d6cc" stroke-linecap="round" stroke-linejoin="round"/><line x1="49.11" y1="63.43" x2="257.55" y2="149.97" fill="none" stroke="#50d6cc" stroke-linecap="round" stroke-linejoin="round"/><line x1="277.77" y1="149.92" x2="96.71" y2="4.09" fill="none" stroke="#50d6cc" stroke-linecap="round" stroke-linejoin="round"/><line x1="167.08" y1="4.09" x2="284.74" y2="148.66" fill="none" stroke="#50d6cc" stroke-linecap="round" stroke-linejoin="round"/><line x1="289.6" y1="134.38" x2="224.17" y2="4.09" fill="none" stroke="#50d6cc" stroke-linecap="round" stroke-linejoin="round"/><line x1="333.91" y1="4.09" x2="312.85" y2="113.43" fill="none" stroke="#50d6cc" stroke-linecap="round" stroke-linejoin="round"/><line x1="296.34" y1="113.5" x2="275.45" y2="4.09" fill="none" stroke="#50d6cc" stroke-linecap="round" stroke-linejoin="round"/><line x1="550.58" y1="64.3" x2="346.4" y2="150.03" fill="none" stroke="#50d6cc" stroke-linecap="round" stroke-linejoin="round"/><line x1="333.25" y1="149.71" x2="515.49" y2="4.09" fill="none" stroke="#50d6cc" stroke-linecap="round" stroke-linejoin="round"/><line x1="550.58" y1="122.37" x2="389.98" y2="149.84" fill="none" stroke="#50d6cc" stroke-linecap="round" stroke-linejoin="round"/><line x1="364.64" y1="171.24" x2="550.58" y2="171.24" fill="none" stroke="#50d6cc" stroke-linecap="round" stroke-linejoin="round"/><line x1="386.05" y1="4.09" x2="319.61" y2="133.8" fill="none" stroke="#50d6cc" stroke-linecap="round" stroke-linejoin="round"/><line x1="325.54" y1="149.92" x2="444.58" y2="4.09" fill="none" stroke="#50d6cc" stroke-linecap="round" stroke-linejoin="round"/><polygon points="338.45 190.56 393.39 150.03 325 150.03 304.49 88.24 284.55 150.03 215.6 150.03 271.41 190.76 250.55 255.39 304.96 215.26 359.96 255.39 338.45 190.56" fill="none" stroke="#50d6cc" stroke-linecap="round" stroke-linejoin="round"/><line x1="21.29" y1="206.21" x2="21.29" y2="208.71" fill="none" stroke="#a3a3a3" stroke-linecap="round" stroke-linejoin="round"/><line x1="21.29" y1="213.75" x2="21.29" y2="332.16" fill="none" stroke="#a3a3a3" stroke-linecap="round" stroke-linejoin="round" stroke-dasharray="5.04 5.04"/><polyline points="21.29 334.68 21.29 337.18 23.79 337.18" fill="none" stroke="#a3a3a3" stroke-linecap="round" stroke-linejoin="round"/><line x1="26.65" y1="337.18" x2="30.93" y2="337.18" fill="none" stroke="#a3a3a3" stroke-linecap="round" stroke-linejoin="round" stroke-dasharray="2.86 2.86"/><line x1="32.36" y1="337.18" x2="34.86" y2="337.18" fill="none" stroke="#a3a3a3" stroke-linecap="round" stroke-linejoin="round"/><line x1="34.86" y1="4.09" x2="32.36" y2="4.09" fill="none" stroke="#a3a3a3" stroke-linecap="round" stroke-linejoin="round"/><line x1="29.5" y1="4.09" x2="25.22" y2="4.09" fill="none" stroke="#a3a3a3" stroke-linecap="round" stroke-linejoin="round" stroke-dasharray="2.86 2.86"/><polyline points="23.79 4.08 21.29 4.08 21.29 6.58" fill="none" stroke="#a3a3a3" stroke-linecap="round" stroke-linejoin="round"/><line x1="21.29" y1="11.43" x2="21.29" y2="134.89" fill="none" stroke="#a3a3a3" stroke-linecap="round" stroke-linejoin="round" stroke-dasharray="4.84 4.84"/><line x1="21.29" y1="137.31" x2="21.29" y2="139.81" fill="none" stroke="#a3a3a3" stroke-linecap="round" stroke-linejoin="round"/><line x1="340" y1="363.34" x2="342.5" y2="363.34" fill="none" stroke="#a3a3a3" stroke-linecap="round" stroke-linejoin="round"/><line x1="347.52" y1="363.34" x2="545.62" y2="363.34" fill="none" stroke="#a3a3a3" stroke-linecap="round" stroke-linejoin="round" stroke-dasharray="5.02 5.02"/><polyline points="548.12 363.34 550.62 363.34 550.62 360.84" fill="none" stroke="#a3a3a3" stroke-linecap="round" stroke-linejoin="round"/><line x1="550.62" y1="357.98" x2="550.62" y2="353.7" fill="none" stroke="#a3a3a3" stroke-linecap="round" stroke-linejoin="round" stroke-dasharray="2.86 2.86"/><line x1="550.62" y1="352.27" x2="550.62" y2="349.77" fill="none" stroke="#a3a3a3" stroke-linecap="round" stroke-linejoin="round"/><line x1="581.44" y1="24.12" x2="581.44" y2="21.62" fill="none" stroke="#a3a3a3" stroke-linecap="round" stroke-linejoin="round"/><line x1="581.44" y1="16.54" x2="581.44" y2="8.91" fill="none" stroke="#a3a3a3" stroke-linecap="round" stroke-linejoin="round" stroke-dasharray="5.08 5.08"/><polyline points="581.45 6.37 581.45 3.87 578.95 3.87" fill="none" stroke="#a3a3a3" stroke-linecap="round" stroke-linejoin="round"/><line x1="572.7" y1="3.87" x2="563.34" y2="3.87" fill="none" stroke="#a3a3a3" stroke-linecap="round" stroke-linejoin="round" stroke-dasharray="6.24 6.24"/><line x1="560.22" y1="3.87" x2="557.72" y2="3.87" fill="none" stroke="#a3a3a3" stroke-linecap="round" stroke-linejoin="round"/><line x1="581.44" y1="143.14" x2="581.44" y2="140.64" fill="none" stroke="#a3a3a3" stroke-linecap="round" stroke-linejoin="round"/><line x1="581.44" y1="136.07" x2="581.44" y2="92.62" fill="none" stroke="#a3a3a3" stroke-linecap="round" stroke-linejoin="round" stroke-dasharray="4.57 4.57"/><polyline points="581.45 90.33 581.45 87.83 578.95 87.83" fill="none" stroke="#a3a3a3" stroke-linecap="round" stroke-linejoin="round"/><line x1="573.91" y1="87.83" x2="304.28" y2="87.83" fill="none" stroke="#a3a3a3" stroke-linecap="round" stroke-linejoin="round" stroke-dasharray="5.04 5.04"/><line x1="301.76" y1="87.83" x2="299.26" y2="87.83" fill="none" stroke="#a3a3a3" stroke-linecap="round" stroke-linejoin="round"/><line x1="581.44" y1="207.77" x2="581.44" y2="210.27" fill="none" stroke="#a3a3a3" stroke-linecap="round" stroke-linejoin="round"/><line x1="581.44" y1="215.12" x2="581.44" y2="251.47" fill="none" stroke="#a3a3a3" stroke-linecap="round" stroke-linejoin="round" stroke-dasharray="4.85 4.85"/><polyline points="581.45 253.89 581.45 256.39 578.95 256.39" fill="none" stroke="#a3a3a3" stroke-linecap="round" stroke-linejoin="round"/><line x1="573.91" y1="256.39" x2="304.28" y2="256.39" fill="none" stroke="#a3a3a3" stroke-linecap="round" stroke-linejoin="round" stroke-dasharray="5.04 5.04"/><line x1="301.76" y1="256.39" x2="299.26" y2="256.39" fill="none" stroke="#a3a3a3" stroke-linecap="round" stroke-linejoin="round"/><line x1="581.44" y1="319.28" x2="581.44" y2="321.78" fill="none" stroke="#a3a3a3" stroke-linecap="round" stroke-linejoin="round"/><line x1="581.44" y1="326.47" x2="581.44" y2="333.51" fill="none" stroke="#a3a3a3" stroke-linecap="round" stroke-linejoin="round" stroke-dasharray="4.69 4.69"/><polyline points="581.45 335.85 581.45 338.35 578.95 338.35" fill="none" stroke="#a3a3a3" stroke-linecap="round" stroke-linejoin="round"/><line x1="572.7" y1="338.35" x2="563.34" y2="338.35" fill="none" stroke="#a3a3a3" stroke-linecap="round" stroke-linejoin="round" stroke-dasharray="6.24 6.24"/><line x1="560.22" y1="338.35" x2="557.72" y2="338.35" fill="none" stroke="#a3a3a3" stroke-linecap="round" stroke-linejoin="round"/><line x1="48.9" y1="349.77" x2="48.9" y2="352.27" fill="none" stroke="#a3a3a3" stroke-linecap="round" stroke-linejoin="round"/><line x1="48.9" y1="355.13" x2="48.9" y2="359.41" fill="none" stroke="#a3a3a3" stroke-linecap="round" stroke-linejoin="round" stroke-dasharray="2.86 2.86"/><polyline points="48.9 360.84 48.9 363.34 51.4 363.34" fill="none" stroke="#a3a3a3" stroke-linecap="round" stroke-linejoin="round"/><line x1="56.48" y1="363.34" x2="247.09" y2="363.34" fill="none" stroke="#a3a3a3" stroke-linecap="round" stroke-linejoin="round" stroke-dasharray="5.08 5.08"/><line x1="249.63" y1="363.34" x2="252.13" y2="363.34" fill="none" stroke="#a3a3a3" stroke-linecap="round" stroke-linejoin="round"/><path d="M5.48,180.52l-.43-.35c.41-.6.57-.8.82-2.6L6,176.42H4.65c-1.07,0-2.25,0-2.92,0l0,0-.26-1.19v0l5.42-6.77,0,0,1.7-.5.05,0c-.16.88-.32,1.91-.44,2.81l-.62,4.44H8a1.52,1.52,0,0,0,1.19-.34l.23.16-.75,1.47,0,0c-.37,0-.76-.05-1.19-.07L7.17,178c-.12.91-.1,1-.51,1.44A12.78,12.78,0,0,1,5.48,180.52Zm.72-5.34.48-3.45c.12-.88.23-1.84.3-2.47-2.81,3.57-4,5.12-4.42,5.85.65,0,1.38.07,2.16.07Z" fill="#727272"/><path d="M15.21,181.26,14,180l1.43-10.24H14l.1-.73h1.42l.18-1.25A3.82,3.82,0,0,1,17.19,165c.9-.95,1.22-1.22,2.21-1.22h1.13l0,0-.23.62c-.18.46-.25.53-.43.53s-.74,0-1.2,0c-1,0-1.27.39-1.45,1.59L16.89,169H19.1v.73H16.78L16,175.3c-.23,1.6-.42,3.29-.55,4.53l.52.78v0Z" fill="#727272"/><path d="M22,176.58c-2.18,0-3-.87-2.75-2.83l.23-1.67a3.78,3.78,0,0,1,1.91-2.79,3.43,3.43,0,0,1,2-.6c1.36,0,2.05.64,2.05,1.8a8.88,8.88,0,0,1-.27,1.77l-1.27.69H20.67l-.07.5c-.23,1.62.5,2.15,2.09,2.15a4.51,4.51,0,0,0,2.61-.84h0V175A3.68,3.68,0,0,1,22,176.58Zm-1.24-4.39H24a8,8,0,0,0,.2-1.41c0-.83-.5-1.26-1.58-1.26s-1.55.58-1.71,1.7Z" fill="#727272"/><path d="M29.34,176.58c-2.18,0-3-.87-2.74-2.83l.23-1.67a3.75,3.75,0,0,1,1.91-2.79,3.4,3.4,0,0,1,2-.6c1.36,0,2.05.64,2.05,1.8a8.75,8.75,0,0,1-.26,1.77l-1.28.69H28l-.08.5c-.22,1.62.5,2.15,2.09,2.15a4.55,4.55,0,0,0,2.62-.84h0V175A3.71,3.71,0,0,1,29.34,176.58Zm-1.24-4.39h3.24a8.91,8.91,0,0,0,.19-1.41c0-.83-.49-1.26-1.57-1.26s-1.56.58-1.72,1.7Z" fill="#727272"/><path d="M36.36,176.54c-1.41,0-2-.53-1.82-1.87l.74-4.9H33.87L34,169h1.44l.33-2.24,1.33-.2,0,0L36.73,169H39.1v.73H36.63l-.73,4.72c-.1.71.18,1,1.26,1a3.27,3.27,0,0,0,1.45-.36h0l0,.16A3,3,0,0,1,36.36,176.54Z" fill="#727272"/><path d="M568.06,181.44H561.9l0-.07.28-1.11,0,0c1.06-.72,2.09-1.45,3.25-2.4,1-.78,1.45-1.35,1.54-1.95l0-.12c.12-.9-.51-1.47-1.56-1.47a3.3,3.3,0,0,0-2.17.64l-.2-.16.73-1.31,0,0a5.33,5.33,0,0,1,2-.33c1.84,0,2.82.94,2.62,2.25l0,.12c-.1.8-.65,1.36-2.61,2.88a22.66,22.66,0,0,0-2.2,1.91h3.06a2.64,2.64,0,0,0,2-.56l.19.12-.76,1.63Z" fill="#727272"/><path d="M574.66,186.27,573.47,185l1.43-10.24h-1.41l.11-.73H575l.18-1.25a3.82,3.82,0,0,1,1.45-2.78c.9-1,1.22-1.22,2.21-1.22H580l0,0-.23.62c-.18.46-.25.53-.43.53s-.74,0-1.2,0c-1,0-1.27.39-1.45,1.59l-.35,2.51h2.21v.73h-2.32l-.78,5.53c-.23,1.59-.42,3.29-.55,4.53l.52.78v0Z" fill="#727272"/><path d="M581.47,181.59c-2.18,0-3-.87-2.74-2.83l.23-1.67a3.74,3.74,0,0,1,1.91-2.79,3.4,3.4,0,0,1,2-.6c1.36,0,2,.63,2,1.8a8.88,8.88,0,0,1-.27,1.77l-1.27.69h-3.22l-.07.5c-.23,1.62.5,2.15,2.09,2.15a4.5,4.5,0,0,0,2.62-.85h0V180A3.68,3.68,0,0,1,581.47,181.59Zm-1.24-4.39h3.23a8,8,0,0,0,.2-1.41c0-.84-.5-1.26-1.57-1.26s-1.56.58-1.72,1.7Z" fill="#727272"/><path d="M588.79,181.59c-2.18,0-3-.87-2.74-2.83l.23-1.67a3.74,3.74,0,0,1,1.91-2.79,3.4,3.4,0,0,1,2-.6c1.36,0,2.05.63,2.05,1.8a8.75,8.75,0,0,1-.26,1.77l-1.28.69h-3.21l-.07.5c-.23,1.62.49,2.15,2.08,2.15a4.48,4.48,0,0,0,2.62-.85h0V180A3.71,3.71,0,0,1,588.79,181.59Zm-1.24-4.39h3.24a8.91,8.91,0,0,0,.19-1.41c0-.84-.49-1.26-1.57-1.26s-1.56.58-1.72,1.7Z" fill="#727272"/><path d="M595.81,181.55c-1.41,0-2-.53-1.82-1.87l.74-4.9h-1.41l.11-.73h1.43l.33-2.24,1.33-.2,0,0-.38,2.42h2.37v.73h-2.47l-.73,4.72c-.1.71.18,1,1.26,1a3.27,3.27,0,0,0,1.45-.36h0l0,.16A3,3,0,0,1,595.81,181.55Z" fill="#727272"/><path d="M562.28,302.81l1.93-.09c.21-1,.87-5.69.92-6.75l-1.75,0,0,0,.16-.55,3.26-.53.07,0c-.5,3-.92,6.42-1.1,7.76l1.89.09.09.53v.06h-5.52Z" fill="#727272"/><path d="M573.76,308.22,572.58,307,574,296.73h-1.42l.11-.73h1.42l.17-1.25a3.89,3.89,0,0,1,1.45-2.78c.9-1,1.22-1.22,2.21-1.22h1.13l0,0-.23.62c-.17.46-.24.53-.42.53s-.74,0-1.2,0c-1,0-1.28.39-1.46,1.59l-.35,2.51h2.21v.73h-2.32l-.77,5.53c-.23,1.6-.43,3.29-.55,4.53l.51.78v0Z" fill="#727272"/><path d="M577.83,300.71l.23-1.67a3.55,3.55,0,0,1,1.84-2.68,4,4,0,0,1,2.09-.71c1.91,0,2.65.88,2.38,2.85l-.23,1.66a3.61,3.61,0,0,1-1.84,2.69,4.06,4.06,0,0,1-2.08.69C578.31,303.54,577.56,302.67,577.83,300.71Zm4.9.12.28-2c.23-1.65-.35-2.25-1.77-2.25-1.09,0-1.59.53-1.77,1.81l-.28,2.05c-.23,1.62.35,2.22,1.77,2.22C582.06,302.63,582.55,302.1,582.73,300.83Z" fill="#727272"/><path d="M586,300.71l.23-1.67a3.55,3.55,0,0,1,1.84-2.68,3.94,3.94,0,0,1,2.09-.71c1.9,0,2.65.88,2.38,2.85l-.23,1.66a3.61,3.61,0,0,1-1.84,2.69,4.06,4.06,0,0,1-2.08.69C586.43,303.54,585.68,302.67,586,300.71Zm4.9.12.28-2c.23-1.65-.35-2.25-1.77-2.25-1.09,0-1.59.53-1.77,1.81l-.28,2.05c-.23,1.62.35,2.22,1.77,2.22C590.18,302.63,590.67,302.1,590.85,300.83Z" fill="#727272"/><path d="M596.33,303.5c-1.41,0-2-.53-1.82-1.87l.74-4.9h-1.41L594,296h1.43l.33-2.24,1.33-.2,0,0L596.7,296h2.37v.73H596.6l-.73,4.72c-.1.71.18,1,1.26,1a3.27,3.27,0,0,0,1.45-.36h0l0,.16A3,3,0,0,1,596.33,303.5Z" fill="#727272"/><path d="M561.76,49l1.93-.09c.21-1,.87-5.7.92-6.76l-1.75.06,0,0,.16-.55,3.26-.53.07.06c-.5,3-.92,6.42-1.1,7.76l1.89.09.09.53v0h-5.52Z" fill="#727272"/><path d="M573.24,54.45l-1.18-1.26L573.49,43h-1.42l.11-.72h1.42l.17-1.26a3.85,3.85,0,0,1,1.45-2.77c.9-1,1.22-1.22,2.21-1.22h1.14v0l-.23.62c-.17.46-.24.53-.42.53s-.74,0-1.2,0c-1.05,0-1.28.38-1.45,1.59l-.36,2.51h2.21V43h-2.31L574,48.49c-.23,1.59-.43,3.29-.55,4.53l.51.77v0Z" fill="#727272"/><path d="M577.31,46.93l.23-1.66a3.56,3.56,0,0,1,1.84-2.69,4.06,4.06,0,0,1,2.09-.71c1.91,0,2.65.89,2.38,2.85l-.23,1.66a3.6,3.6,0,0,1-1.84,2.69,4,4,0,0,1-2.08.69C577.79,49.76,577,48.9,577.31,46.93Zm4.9.13.28-2c.23-1.64-.35-2.24-1.77-2.24-1.09,0-1.59.53-1.76,1.8l-.29,2.05c-.23,1.63.36,2.23,1.77,2.23C581.54,48.86,582,48.33,582.21,47.06Z" fill="#727272"/><path d="M585.43,46.93l.23-1.66a3.56,3.56,0,0,1,1.84-2.69,4.06,4.06,0,0,1,2.09-.71c1.91,0,2.65.89,2.38,2.85l-.23,1.66a3.6,3.6,0,0,1-1.84,2.69,4,4,0,0,1-2.08.69C585.91,49.76,585.16,48.9,585.43,46.93Zm4.9.13.28-2c.23-1.64-.35-2.24-1.77-2.24-1.09,0-1.59.53-1.77,1.8l-.28,2.05c-.23,1.63.35,2.23,1.77,2.23C589.66,48.86,590.15,48.33,590.33,47.06Z" fill="#727272"/><path d="M595.81,49.73c-1.41,0-2-.53-1.82-1.88l.74-4.9h-1.41l.11-.72h1.43l.33-2.25,1.33-.19,0,0-.38,2.42h2.37V43h-2.47l-.73,4.73c-.1.7.18,1,1.26,1a3.4,3.4,0,0,0,1.45-.35h0l0,.16A3,3,0,0,1,595.81,49.73Z" fill="#727272"/><path d="M280.22,368.59c-1.8,0-2.77-1-2.47-3.25l.19-1.45a8.32,8.32,0,0,1,2.07-5,5.76,5.76,0,0,1,3.43-2.12l.06,0,.12.78c.05.33,0,.4-.28.49-1,.34-2.07.25-2.82,1.12-.42.49-.61.86-.93,3a3.48,3.48,0,0,1,2.54-1,2.12,2.12,0,0,1,2.27,2.6l-.16,1.17a3.61,3.61,0,0,1-1.77,2.87A4.22,4.22,0,0,1,280.22,368.59Zm.78-.92c1.24,0,1.54-.49,1.75-1.94l.2-1.38c.23-1.6-.32-2.16-1.56-2.16a2.18,2.18,0,0,0-1.93.87l-.28,2C278.93,366.82,279.61,367.67,281,367.67Z" fill="#727272"/><path d="M290.25,373.28,289.07,372l1.43-10.24h-1.41l.1-.72h1.42l.18-1.26a3.82,3.82,0,0,1,1.45-2.78c.9-.95,1.22-1.22,2.21-1.22h1.13l0,0-.23.62c-.18.46-.25.53-.43.53s-.74,0-1.2,0c-1,0-1.28.39-1.45,1.6l-.36,2.51h2.22v.72h-2.32l-.78,5.54c-.23,1.59-.42,3.29-.55,4.52l.51.78v0Z" fill="#727272"/><path d="M297.06,368.59c-2.17,0-3-.87-2.74-2.83l.23-1.66a3.77,3.77,0,0,1,1.91-2.8,3.43,3.43,0,0,1,2-.6c1.36,0,2.05.64,2.05,1.81a9,9,0,0,1-.27,1.77l-1.27.68h-3.22l-.07.5c-.23,1.63.49,2.16,2.09,2.16a4.55,4.55,0,0,0,2.61-.85h0V367A3.69,3.69,0,0,1,297.06,368.59Zm-1.23-4.39h3.23a7.89,7.89,0,0,0,.2-1.41c0-.83-.5-1.26-1.58-1.26s-1.55.59-1.71,1.7Z" fill="#727272"/><path d="M304.39,368.59c-2.18,0-3-.87-2.74-2.83l.23-1.66a3.77,3.77,0,0,1,1.91-2.8,3.4,3.4,0,0,1,2-.6c1.36,0,2.05.64,2.05,1.81a9.65,9.65,0,0,1-.26,1.77l-1.28.68H303l-.07.5c-.23,1.63.5,2.16,2.09,2.16a4.58,4.58,0,0,0,2.62-.85h0V367A3.68,3.68,0,0,1,304.39,368.59Zm-1.24-4.39h3.24a8.76,8.76,0,0,0,.19-1.41c0-.83-.5-1.26-1.57-1.26s-1.56.59-1.72,1.7Z" fill="#727272"/><path d="M311.41,368.56c-1.41,0-2-.54-1.82-1.88l.74-4.9h-1.41l.1-.72h1.44l.33-2.25,1.33-.19h0l-.37,2.43h2.37v.72h-2.47L311,366.5c-.11.71.18,1,1.26,1a3.44,3.44,0,0,0,1.45-.35h0l0,.16A3,3,0,0,1,311.41,368.56Z" fill="#727272"/><line x1="581.44" y1="280.18" x2="581.44" y2="229.85" fill="none" stroke="#a3a3a3" stroke-linecap="round" stroke-linejoin="round" stroke-dasharray="5 5"/><line x1="581.44" y1="91.23" x2="581.44" y2="63.49" fill="none" stroke="#a3a3a3" stroke-linecap="round" stroke-linejoin="round" stroke-dasharray="5 5"/></svg>