<svg xmlns="http://www.w3.org/2000/svg" width="280" height="300" viewBox="0 0 280 300"><path d="M85 174.37l-25-5.17 2-9.63 5.95 1.23 3.91-18.92a18.74 18.74 0 01-4.54-.5 10.67 10.67 0 01-1.49-.4l1.92-9.27a7.25 7.25 0 00.74.19 17.83 17.83 0 007.63 0 11.83 11.83 0 005.67-2.69l6.29 1.3-6.83 33.07 5.75 1.16zM110 164.07a5.14 5.14 0 001.32 4.17 6.07 6.07 0 004.06 1.75 5.14 5.14 0 006-5.12 5.4 5.4 0 00-1.16-4.09 6.4 6.4 0 00-8.38-.45 5.43 5.43 0 00-1.84 3.74zm2-17.56a4.48 4.48 0 001 3.38 4.93 4.93 0 003.67 1.6 5.36 5.36 0 003.52-.87 4.24 4.24 0 001.67-3.42 4.66 4.66 0 00-1-3.5 4.83 4.83 0 00-3.42-1.55 5.15 5.15 0 00-3.72 1 4.44 4.44 0 00-1.72 3.36zm-6.45 7.89a10.58 10.58 0 01-4.41-3.6 8.43 8.43 0 01-1.51-5.72 10.63 10.63 0 015.18-8.51q4.78-3 12.9-2.41 8.46.65 12.74 4.29a10.19 10.19 0 013.92 8.92q-.5 6.44-7.22 8.67a10.53 10.53 0 015.31 3.85 9.81 9.81 0 011.71 6.72 11.19 11.19 0 01-5.27 9q-4.8 3.15-14.48 2.42-9.44-.72-13.6-4.67A11.17 11.17 0 0197 164q.59-7.29 8.55-9.6zM151.51 165.3a5.13 5.13 0 001.84 4 6 6 0 004.24 1.23 5.15 5.15 0 005.33-5.84 5.4 5.4 0 00-1.67-3.92 6.41 6.41 0 00-8.37.62 5.46 5.46 0 00-1.37 3.91zm-.19-17.67a4.4 4.4 0 001.45 3.21 4.92 4.92 0 003.84 1.13 5.35 5.35 0 003.38-1.31 4.18 4.18 0 001.23-3.6 4.68 4.68 0 00-1.46-3.34 4.78 4.78 0 00-3.59-1.11 5.12 5.12 0 00-3.56 1.51 4.38 4.38 0 00-1.29 3.51zm-5.41 8.64a10.67 10.67 0 01-4.83-3 8.5 8.5 0 01-2.22-5.49 10.66 10.66 0 014.06-9.1q4.37-3.6 12.5-4 8.46-.43 13.18 2.65a10.18 10.18 0 015 8.35q.33 6.45-6.07 9.51a10.55 10.55 0 015.76 3.15 9.78 9.78 0 012.55 6.45 11.21 11.21 0 01-4.09 9.6q-4.37 3.72-14.06 4.22-9.45.49-14.08-2.91a11.18 11.18 0 01-5-8.85q-.32-7.29 7.3-10.58zM200.84 147.44q-1.72-9.52-7.32-8.5-4.35.78-3.35 6.29a6.43 6.43 0 002.07 4.05 4.17 4.17 0 003.64.93 9.44 9.44 0 005-2.77zm-19.42 18.92l10.35-2.85a5.22 5.22 0 005.7 2.5q6-1.09 4.54-10.94a15 15 0 01-8.24 4.18 13.61 13.61 0 01-10.26-2 12.89 12.89 0 01-5.74-8.89 13.38 13.38 0 013-11.75 18.24 18.24 0 0110.83-6 18.56 18.56 0 0114.72 3.14q6.44 4.69 8.4 15.49 1.72 9.5-2.17 16.25T199 173.94a19.35 19.35 0 01-10.78-.72 12.09 12.09 0 01-6.77-6.86zM52.78 172.27a6.51 6.51 0 11-6.5 6.51 6.51 6.51 0 016.5-6.51zm224.37-41.41l-12.64-2.43-7.76 10.28 12.65 2.42zm-28.59 1.23a4.09 4.09 0 104.09 4.09 4.09 4.09 0 00-4.09-4.09zm-8.88-3.83a4.09 4.09 0 104.08 4.09 4.09 4.09 0 00-4.08-4.09zm-8.68-4.55a4.09 4.09 0 104.09 4.09 4.09 4.09 0 00-4.09-4.09zm-9.25-4.27a4.09 4.09 0 104.09 4.09 4.09 4.09 0 00-4.05-4.09zm30.37 22a4.09 4.09 0 104.09 4.09 4.09 4.09 0 00-4.05-4.13zm-5.58 8.06a4.09 4.09 0 104.09 4.09 4.09 4.09 0 00-4.05-4.13zm-5.94 7.94a4.09 4.09 0 104.08 4.09 4.09 4.09 0 00-4.04-4.13zm-7.19 7.82a4.09 4.09 0 104.09 4.08 4.09 4.09 0 00-4.05-4.12zM196.67 117a4.09 4.09 0 104.09 4.09 4.09 4.09 0 00-4.09-4.09zm-10.81 1.66a4.09 4.09 0 104.09 4.09 4.09 4.09 0 00-4.09-4.11zm-10 1.23a4.09 4.09 0 104.09 4.09 4.09 4.09 0 00-4.12-4.11zm-10.31.94a4.09 4.09 0 104.09 4.09 4.09 4.09 0 00-4.12-4.11zm-10 .62a4.09 4.09 0 104.09 4.08 4.09 4.09 0 00-4.11-4.1zm-10.82.33a4.09 4.09 0 104.09 4.09 4.09 4.09 0 00-4.11-4.11zM82.31 117a4.09 4.09 0 11-4.09 4.09 4.09 4.09 0 014.09-4.09zm10.82 1.66a4.09 4.09 0 11-4.13 4.07 4.09 4.09 0 014.13-4.09zm10 1.23a4.09 4.09 0 11-4.07 4.11 4.09 4.09 0 014.09-4.13zm10.32.94a4.09 4.09 0 11-4.09 4.09 4.09 4.09 0 014.11-4.11zm10 .62a4.09 4.09 0 11-4.09 4.08 4.08 4.08 0 014.1-4.1zm10.81.33a4.09 4.09 0 11-4.09 4.09 4.09 4.09 0 014.1-4.11zm77.89 55.76a4.09 4.09 0 104.08 4.09 4.09 4.09 0 00-4.07-4.11zm-11 1.87a4.09 4.09 0 104.09 4.08 4.09 4.09 0 00-4.12-4.1zM190 180.94a4.09 4.09 0 104.09 4.09 4.09 4.09 0 00-4.09-4.09zm-11 1.24a4.09 4.09 0 104.09 4.09 4.09 4.09 0 00-4.09-4.09zm-10.7.91a4.09 4.09 0 104.09 4.09 4.09 4.09 0 00-4.1-4.09zm-11 .64a4.09 4.09 0 104.09 4.08 4.09 4.09 0 00-4.09-4.08zm-11.63.34a4.09 4.09 0 104.09 4.09 4.09 4.09 0 00-4.09-4.09zm-78.84-6.55a4.09 4.09 0 11-4.09 4.09 4.09 4.09 0 014.09-4.09zm11 1.87a4.09 4.09 0 11-4.09 4.08 4.08 4.08 0 014.13-4.08zM89 180.94a4.09 4.09 0 11-4.14 4.06 4.09 4.09 0 014.14-4.06zm11 1.24a4.09 4.09 0 11-4.09 4.09 4.09 4.09 0 014.09-4.09zm10.7.91a4.09 4.09 0 11-4.09 4.09 4.09 4.09 0 014.08-4.09zm11 .64a4.09 4.09 0 11-4.08 4.08 4.09 4.09 0 014.06-4.08zm11.51.34a4.09 4.09 0 11-4.09 4.09 4.09 4.09 0 014.07-4.09zM1.83 130.86l12.64-2.43 7.76 10.28-12.64 2.43zm28.59 1.23a4.09 4.09 0 11-4.09 4.09 4.09 4.09 0 014.09-4.09zm8.89-3.83a4.09 4.09 0 11-4.09 4.09 4.09 4.09 0 014.09-4.09zm8.69-4.55a4.09 4.09 0 11-4.09 4.09 4.09 4.09 0 014.09-4.09zm9.25-4.27a4.09 4.09 0 11-4.09 4.09 4.09 4.09 0 014.04-4.09zm-30.37 22a4.09 4.09 0 11-4.09 4.09 4.09 4.09 0 014.04-4.13zm5.57 8.06a4.09 4.09 0 11-4.08 4.09 4.09 4.09 0 014.03-4.13zm6 7.94a4.09 4.09 0 11-4.09 4.09 4.09 4.09 0 013.99-4.13zm7.18 7.82a4.09 4.09 0 11-4.08 4.08 4.09 4.09 0 013.98-4.12zm165-53.31a6.5 6.5 0 106.51 6.5 6.5 6.5 0 00-6.61-6.54zm15.68 60.36a6.51 6.51 0 106.5 6.51 6.51 6.51 0 00-6.6-6.55zm-157.86-60.4a6.5 6.5 0 11-6.5 6.5 6.5 6.5 0 016.5-6.5" fill="none" stroke="#000" stroke-linecap="round" stroke-linejoin="round" stroke-width="2"/></svg>