<svg xmlns="http://www.w3.org/2000/svg" width="600" height="315.79" viewBox="0 0 600 315.79"><path fill="#bf0a30" d="M0 0h600v315.79H0z"/><path fill="#fff" d="M0 24.29h600v24.29H0zM0 72.87h600v24.29H0zM0 121.46h600v24.29H0zM0 170.04h600v24.29H0zM0 218.62h600v24.29H0zM0 267.21h600v24.29H0z"/><path fill="#002868" d="M0 0h240v170.04H0z"/><path fill="#fff" d="M35.43 25.38l-2.88-9.59-2.88 9.59-9.74-2.3 6.87 7.28-6.87 7.29 9.74-2.3 2.88 9.59 2.88-9.59 9.74 2.3-6.87-7.29 6.87-7.28-9.74 2.3zM122.88 25.38L120 15.79l-2.88 9.59-9.74-2.3 6.87 7.28-6.87 7.29 9.74-2.3 2.88 9.59 2.88-9.59 9.74 2.3-6.87-7.29 6.87-7.28-9.74 2.3zM220.07 23.08l-9.74 2.3-2.88-9.59-2.88 9.59-9.74-2.3 6.86 7.28-6.86 7.29 9.74-2.3 2.88 9.59 2.88-9.59 9.74 2.3-6.87-7.29 6.87-7.28zM79.15 47.85l-2.87-9.59-2.88 9.59-9.75-2.3 6.87 7.28-6.87 7.29 9.75-2.3 2.88 9.59 2.87-9.59 9.75 2.3-6.87-7.29 6.87-7.28-9.75 2.3zM166.6 47.85l-2.88-9.59-2.87 9.59-9.75-2.3 6.87 7.28-6.87 7.29 9.75-2.3 2.87 9.59 2.88-9.59 9.75 2.3-6.87-7.29 6.87-7.28-9.75 2.3zM35.43 80.04l-2.88-9.6-2.88 9.6-9.74-2.31 6.87 7.29-6.87 7.29L29.67 90l2.88 9.59L35.43 90l9.74 2.31-6.87-7.29 6.87-7.29-9.74 2.31zM122.88 80.04l-2.88-9.6-2.88 9.6-9.74-2.31 6.87 7.29-6.87 7.29 9.74-2.31 2.88 9.59 2.88-9.59 9.74 2.31-6.87-7.29 6.87-7.29-9.74 2.31zM210.33 80.04l-2.88-9.6-2.88 9.6-9.74-2.31 6.86 7.29-6.86 7.29 9.74-2.31 2.88 9.59 2.88-9.59 9.74 2.31-6.87-7.29 6.87-7.29-9.74 2.31zM79.15 107.36l-2.87-9.59-2.88 9.59-9.75-2.3 6.87 7.29-6.87 7.29 9.75-2.31 2.88 9.59 2.87-9.59 9.75 2.31-6.87-7.29 6.87-7.29-9.75 2.3zM166.6 107.36l-2.88-9.59-2.87 9.59-9.75-2.3 6.87 7.29-6.87 7.29 9.75-2.31 2.87 9.59 2.88-9.59 9.75 2.31-6.87-7.29 6.87-7.29-9.75 2.3zM35.43 134.69l-2.88-9.59-2.88 9.59-9.74-2.3 6.87 7.29-6.87 7.28 9.74-2.3 2.88 9.59 2.88-9.59 9.74 2.3-6.87-7.28 6.87-7.29-9.74 2.3zM122.88 134.69L120 125.1l-2.88 9.59-9.74-2.3 6.87 7.29-6.87 7.28 9.74-2.3 2.88 9.59 2.88-9.59 9.74 2.3-6.87-7.28 6.87-7.29-9.74 2.3zM210.33 134.69l-2.88-9.59-2.88 9.59-9.74-2.3 6.86 7.29-6.86 7.28 9.74-2.3 2.88 9.59 2.88-9.59 9.74 2.3-6.87-7.28 6.87-7.29-9.74 2.3z"/></svg>