<svg xmlns="http://www.w3.org/2000/svg" width="600" height="375.2" viewBox="0 0 600 375.2"><path fill="#c21f32" d="M0 0h600v375.2H0z"/><path fill="#eaab22" d="M130.07 0h339.86v375.2H130.07z"/><path fill="#081f40" d="M155.08 0h290.16v375.2H155.08z"/><path fill="#fff" d="M334.5 85.64l-.74-6.37 6.43-2.36-6.85-1.61-.73-6.38-3.54 5.36-6.85-1.61 4.69 4.93-3.48 5.41 6.37-2.36 4.7 4.99zM357.23 96.27l.81-6.36 6.75-.78-6.29-3.19.81-6.36-4.7 4.38-6.23-3.19 3.37 5.9-4.7 4.43 6.75-.78 3.43 5.95zM379.97 102.01l2.64-5.87-5.77 2.9-5.11-4.9 1.56 6.63-5.76 2.91 6.73 1.24 1.51 6.62 2.64-5.87 6.67 1.24-5.11-4.9zM402.15 128.12l-3.93-5.87 3.82-5.17-6.25 1.56-3.87-5.81.05 6.78-6.25 1.57 6.25 2.63.11 6.85 3.77-5.18 6.3 2.64zM409.43 141.59l-2.92-6.43-1.06 6.78-6.38.53 5.78 3.62-1.01 6.72 4.58-4.51 5.78 3.62-2.97-6.37 4.58-4.5-6.38.54zM419.46 178.48l-1.15-6.91 5.63-3.15-6.36-1.18-1.16-6.9-2.75 6.2-6.3-1.18 4.63 5.03-2.75 6.26 5.58-3.15 4.63 4.98zM415.89 192.39l-5.95-2.5 3.49 5.91-4.04 5.5 6.16-1.89 3.43 5.87.4-7.03 6.1-1.88-5.9-2.45.34-7.03-4.03 5.5zM421.48 224.76l-5.21-3.73 1.9-6.81-5.11 4.45-5.27-3.74 2.03 6.5-5.12 4.45 6.4-.4 2.02 6.5 1.96-6.81 6.4-.41zM401.55 256.57l3.23-6.27 6.37.79-4.43-4.65 3.23-6.28-5.92 3.34-4.43-4.66.75 6.75-5.92 3.38 6.37.8.75 6.8zM383.7 277.42l4.8-5.17 5.92 2.53-2.91-5.71 4.8-5.12-6.63 1.62-2.91-5.76-1.18 6.73-6.62 1.61 5.92 2.53-1.19 6.74zM264.95 79.06l-.33 6.4 4.37-5.27 6.51 1.94-3.82-5.18 4.36-5.22-6.73 2.05-3.88-5.12-.32 6.41-6.73 2.05 6.57 1.94zM233.75 89.89l6.79.38 1.18 6.3 3.07-6.14 6.79.38-4.95-4.15 3.01-6.08-6.03 3.55-4.95-4.09 1.18 6.3-6.09 3.55zM213.44 106.8l6.68-1.24 2.64 5.87 1.5-6.62 6.74-1.24-5.76-2.91 1.56-6.62-5.12 4.9-5.76-2.91 2.64 5.87-5.12 4.9zM206.51 119.83l.06-6.78-3.88 5.81-6.25-1.56 3.83 5.17-3.93 5.87 6.3-2.64 3.77 5.17.1-6.84 6.25-2.64-6.25-1.56zM193.18 142.01l-1.32-6.73-2.66 6.53-6.41-.28 4.75 4.32-2.71 6.48 5.64-3.84 4.75 4.32-1.27-6.68 5.63-3.84-6.4-.28zM191.07 165.52l-6.24 1.45-3.02-6.09-.86 6.95-6.3 1.46 5.76 2.9-.86 6.95 4.42-5.17 5.7 2.91-3.01-6.14 4.41-5.22zM188.37 189.52l-5.82 2.8-4.31-5.28.7 7-5.76 2.75 6.2 1.56.75 7 3.12-6.03 6.25 1.56-4.31-5.27 3.18-6.09zM182.52 221.19l-5.07 3.94 6.41.16 2.21 6.73 1.78-6.57 6.41.16-5.28-4.26 1.78-6.57-5.12 3.94-5.28-4.26 2.16 6.73zM191.93 246.61l-4.09 4.95 6.3-1.24 3.66 6.04.27-6.84 6.3-1.24-6.14-2.97.27-6.78-4.09 4.95-6.14-2.91 3.66 6.04zM206.98 268.86l-2.91 5.7 5.93-2.53 4.79 5.17-1.18-6.73 5.92-2.53-6.62-1.62-1.19-6.73-2.91 5.77-6.62-1.62 4.79 5.12zM222.57 288.38a2.69 2.69 0 0 0 1.2.6c.22 0 .55-.22.87-.66l4-5.23c.33-.44.49-.77.44-1s-.33-.6-.88-1l.17-.21 3.82 3-.17.21a2.59 2.59 0 0 0-1.2-.6c-.27 0-.54.22-.87.66l-4 5.23c-.32.44-.49.82-.43 1a3.49 3.49 0 0 0 .87 1l-.16.21-3.82-3zM227.42 292.16a2.14 2.14 0 0 0 1.33.39c.28-.05.66-.44 1.11-1.11l3.66-5.54-.06-.34a1.36 1.36 0 0 0-.28-.72 1.48 1.48 0 0 0-.61-.5l.17-.22 2.39 1.55 1.38 9.6 2.77-4.16c.45-.67.67-1.22.56-1.55a2.25 2.25 0 0 0-.83-.95l.16-.22 3.27 2.16-.16.23c-.56-.28-1-.45-1.28-.34s-.66.45-1.11 1.11l-4.38 6.6-.22-.17-1.61-11-3.27 4.82c-.44.67-.66 1.22-.55 1.55a2.37 2.37 0 0 0 .77.94l-.16.23-3.27-2.17zM255 296.45c.52.41.87.64.93.7a1.06 1.06 0 0 0 .53.12 1.61 1.61 0 0 0 .41-.24l.34.18-1.22 3.15-.35-.18a5 5 0 0 0-.35-2 3.73 3.73 0 0 0-2.1-2 4.31 4.31 0 0 0-3.2-.12c-1.11.35-2 1.34-2.68 3a4.35 4.35 0 0 0 2.21 6.06 5.07 5.07 0 0 0 .7.24l.82.17a1.71 1.71 0 0 0 .81 0 .48.48 0 0 0 .3-.29l1-2.33c.23-.58.29-.93.17-1.16a2.36 2.36 0 0 0-1-.76l.12-.29 4.14 1.74-.12.3a2 2 0 0 0-.88-.18c-.29.06-.52.35-.75.82l-1.23 2.85c-.05.18-.64.18-1.69.06a9 9 0 0 1-2.85-.76 7 7 0 0 1-3.44-3 4.62 4.62 0 0 1-.17-4.43 5.16 5.16 0 0 1 2.91-2.85 6.11 6.11 0 0 1 4.84.17 5 5 0 0 1 1.86 1.05zM260.34 299.91a6.08 6.08 0 0 1 7.39 2.31 5.38 5.38 0 0 1-2.42 7.56 5.89 5.89 0 0 1-4.07.12 5.71 5.71 0 0 1-3.38-2.6 5 5 0 0 1-.4-4.12 5.08 5.08 0 0 1 2.88-3.27zm-1.07 7.56a3.21 3.21 0 0 0 2.14 1.86 3.6 3.6 0 0 0 2.83-.34 6.62 6.62 0 0 0 2.14-6.88 3.48 3.48 0 0 0-2.09-1.81 3.55 3.55 0 0 0-2.82.34 5.34 5.34 0 0 0-2.09 3.1 5.41 5.41 0 0 0-.11 3.73zM268.49 311.89a2.61 2.61 0 0 0 1.27-.06c.23-.11.4-.46.52-1l1.38-6.87c.12-.58.12-.93-.05-1.16a2.23 2.23 0 0 0-1.16-.52l.06-.29 4.62.93a9.33 9.33 0 0 1 3.81 1.5 4.55 4.55 0 0 1 2 5 5 5 0 0 1-1 2.08 4.53 4.53 0 0 1-1.91 1.44 5.45 5.45 0 0 1-1.5.41 9.71 9.71 0 0 1-3.29-.24l-4.73-.92zm3.52.29a1.52 1.52 0 0 0 .81.29 6.89 6.89 0 0 0 3.46-.06 4 4 0 0 0 2.71-3.35 4.4 4.4 0 0 0-.92-3.92 6.51 6.51 0 0 0-3.52-1.79 2.06 2.06 0 0 0-.81-.06c-.17.06-.23.17-.29.46l-1.56 7.85a.6.6 0 0 0 .12.58zM291.27 305.35v.31c-.36 0-.59.06-.77.06a.47.47 0 0 0-.41.5.49.49 0 0 0 .06.31 2.4 2.4 0 0 1 .11.43l2.54 6.39 1.89-4.71-.83-2.05a1.44 1.44 0 0 0-.7-.75 2.76 2.76 0 0 0-.83-.12v-.31h4.78v.31c-.47 0-.77.06-.94.06a.58.58 0 0 0-.42.56c0 .12 0 .19.06.25s.06.25.18.43l2.54 6.33 2-5.63a3 3 0 0 0 .23-.86c0-.13.06-.25.06-.38a.72.72 0 0 0-.47-.68 2.28 2.28 0 0 0-.77-.12v-.31h3.56v.31a3.12 3.12 0 0 0-.71.19c-.3.18-.27.38-.45.75l-1.89 5-.71 1.93-1.12 3h-.29l-.77-1.93-2.07-5.21-2.77 7.14H292l-1.3-3.48-1.48-4a18.88 18.88 0 0 0-1.3-3 1.51 1.51 0 0 0-1.12-.62v-.31zM303.82 315.28a3 3 0 0 0 1.36-.45c.19-.17.25-.51.19-1.13l-.84-6.74c-.06-.56-.19-.9-.45-1s-.26-.16-.26-.31l-.07-.28 9.11-.87.33 2.19-.52.06a2.2 2.2 0 0 0-.91-1.24 5.26 5.26 0 0 0-2.26-.06l-2.64.28c-.26 0-.46.06-.52.17s-.07.23-.07.4l.46 3.37 3-.28a2.5 2.5 0 0 0 1.55-.45 2.39 2.39 0 0 0 .39-1.24l.45-.05.45 3.54-.45.05a2.25 2.25 0 0 0-.71-1.12 2.57 2.57 0 0 0-1.62-.11l-3 .28.45 3.76a.6.6 0 0 0 .46.51 12.86 12.86 0 0 0 2.19-.11 9 9 0 0 0 2.84-.62 3.42 3.42 0 0 0 1.49-1.8l.52-.06-.59 2.64-10.46 1zM319.69 303.8l10.49-2.43.9 2.38-.45.11a3 3 0 0 0-1.34-1.3 4.25 4.25 0 0 0-2.24.16l-1 .22 2.36 7.24c.19.54.39.87.64.92a3.89 3.89 0 0 0 1.54-.11l.06.27-5.44 1.25-.06-.27a3.15 3.15 0 0 0 1.41-.65 1.61 1.61 0 0 0-.07-1.19l-2.3-7.08-1 .21a4.72 4.72 0 0 0-2 .81 2.11 2.11 0 0 0-.38 1.68l-.45.11zM334.47 309.81c.55-.28.94-.5 1-.72s0-.61-.22-1.22l-2.34-6.11a1.43 1.43 0 0 0-.61-.89 2 2 0 0 0-1.22.11l-.11-.28 4.33-1.7a9 9 0 0 1 2.39-.55 2.37 2.37 0 0 1 2.56 1.5 1.91 1.91 0 0 1-.17 1.89 5.58 5.58 0 0 1-1.78 1.55l4.61 2.39a2.75 2.75 0 0 0 .78.28 2.46 2.46 0 0 0 .83-.11l.12.28-2.5.94-5.56-2.89-.67.28 1.06 2.78c.22.5.39.83.66.89a3.16 3.16 0 0 0 1.28-.17l.11.28-4.33 1.66zm3.5-6.94a1.9 1.9 0 0 0 .61-2.22 1.84 1.84 0 0 0-1.78-1.28 5.6 5.6 0 0 0-1.67.33c-.44.17-.72.28-.77.39a.54.54 0 0 0 0 .44l1.33 3.5a6.93 6.93 0 0 0 2.28-1.16zM345.67 294.7l.11.29a2.68 2.68 0 0 0-1 .85c-.12.23 0 .63.23 1.09l2.22 4.44a3.4 3.4 0 0 0 1.2 1.54 2.77 2.77 0 0 0 2.9-.05c1.26-.63 1.94-1.43 1.94-2.4a5 5 0 0 0-.62-2.17l-1.83-3.59c-.4-.74-.74-1.2-1-1.25a2 2 0 0 0-1.31.23l-.11-.29 3.53-1.77.12.29c-.57.34-.91.68-1 1a3 3 0 0 0 .4 1.54l1.82 3.59a5 5 0 0 1 .63 2.51c-.11 1.31-1 2.34-2.68 3.19s-3 .91-4.1.23a4.51 4.51 0 0 1-1.54-1.83l-2.17-4.33c-.23-.51-.51-.8-.74-.85a2.56 2.56 0 0 0-1.26.28l-.11-.28zM357.08 296.92a5 5 0 0 0 1.93.86 4.15 4.15 0 0 0 3-.4 2.39 2.39 0 0 0 1.06-1.15 1.51 1.51 0 0 0-.18-1.44 1.91 1.91 0 0 0-1.31-.8 12.48 12.48 0 0 0-2.18 0l-1.87.06a5 5 0 0 1-1.43-.12 2.78 2.78 0 0 1-1.62-1 2.39 2.39 0 0 1-.31-2.13 3.56 3.56 0 0 1 1.68-1.89 4.44 4.44 0 0 1 1.43-.52 5.64 5.64 0 0 0 1-.29c.19-.11.31-.23.31-.34a1.35 1.35 0 0 0-.06-.46l.31-.17 2.24 2.64-.37.23a3.9 3.9 0 0 0-2.43-1 4.53 4.53 0 0 0-2.05.46 2.12 2.12 0 0 0-.94 1 1.09 1.09 0 0 0 .13 1.15 1.85 1.85 0 0 0 .93.69 7.48 7.48 0 0 0 1.68.11l1.87-.11a8.94 8.94 0 0 1 2.68.17 2.51 2.51 0 0 1 1.68 3.33 4 4 0 0 1-1.93 2.07 5.62 5.62 0 0 1-1.68.63 7.68 7.68 0 0 0-1.06.29c-.19.11-.31.23-.31.34a.91.91 0 0 0 .06.4l-.38.23-2.36-2.52zM361.14 286.29l8-6 1.7 2.11-.35.24a3.33 3.33 0 0 0-1.64-.88 3.73 3.73 0 0 0-1.82.88l-.76.58 4.92 6.51c.36.47.71.7.94.7a3.53 3.53 0 0 0 1.29-.58l.18.23-4.11 3.11-.17-.24a2.76 2.76 0 0 0 .94-1.11c.05-.24-.12-.65-.53-1.17l-4.81-6.39-.83.58a3.64 3.64 0 0 0-1.34 1.53 2.91 2.91 0 0 0 .35 1.81l-.35.24z"/><path d="M308.94 150.22q-6-5.25-11.79-10.66c-4.2-3.88-6.84-4-11.26-.43-.27.22-.53.43-.75.65-10 9-15.67 20.3-17.45 33.66-.91 6.84 5.77 17.92 13.25 21.47 2.52 1.24 2.39-8.85 12.62-12.62 3.87 0 5.3 2.33 11.82 10 4.15-8.08 5.07-13 3.73-22a34.27 34.27 0 0 0-1.24-4.57l.54-.27a37.65 37.65 0 0 1 2.26 4.3c1.56 4.42.86 8.89.21 13.31a44.19 44.19 0 0 1-5.38 15.29 5.16 5.16 0 0 0 .54.65c1.45-.86 3.66-1.4 4.3-2.75a99.61 99.61 0 0 0 6.74-15.67c3.39-11.58 1.29-22-8.14-30.38zm-30.8 7.54c-1.4 3-2.69 6.09-4.09 9.11-.22.48-.81.8-1.24 1.23-.16-.59-.65-1.29-.49-1.77a33.52 33.52 0 0 1 6.84-13c.54-.59.92-1.29 1.4-1.93a8.79 8.79 0 0 0 .7.59c-1.07 1.94-2.21 3.82-3.12 5.81z" fill="#fff" stroke="#000" stroke-width=".05"/><path d="M243.7 185a44.44 44.44 0 0 0 5.71 4c5.76 2.86 11.68 5.5 17.55 8.14 1.89.8 1.94.7 2.53 3.39-2.9-.59-5.7-1.08-8.4-1.78A36.3 36.3 0 0 1 240.73 185c-2.9-3.88-4.57-8.24-3.87-13.14s3.28-7.54 8.29-8c6.79-.64 13.09 1.3 19.23 3.83a1.78 1.78 0 0 1 .86 1.51c-2.21 9 .48 16.64 6.52 23.26-1.24 2.53-.81 2.75 1.88 3.34a27.39 27.39 0 0 1 7.27 2.91c2.53 1.35 4.79 3.12 7.22 4.63 3 1.83 6.19 1.46 9.31.7 4.31-1 8.57-2.21 12.82-3.34a23.36 23.36 0 0 1 13.84.76c2 .7 2.1 1 .76 2.53-4.31 5-8.73 10-14.44 13.41-7.1 4.31-14.59 5.6-22.35 2-4.84-2.21-7.86-6.41-10.66-10.72-2.58-3.93-5.06-7.91-7.59-11.79a3 3 0 0 0-1.35-1.13c-7.59-3.56-15.13-7.06-22.73-10.56-.54-.27-1.07-.43-1.61-.64a1.67 1.67 0 0 0-.43.53zM354.15 170a44.38 44.38 0 0 0-1.34 5.76 32.24 32.24 0 0 1-23 26.88c-.11.05-.27 0-.48 0-.92-4.58-5.44-3.77-8.46-5.39 2.8-1.78 5.5-3.45 8.24-5.12-.11-.27-.27-.48-.37-.75l-9.91 4.2c6-6.3 12.38-12.12 17.18-19.39a6.87 6.87 0 0 0-.54-.54L315 196c-.16-.16-.38-.27-.54-.43a10.93 10.93 0 0 1 .38-1.19c3.72-7.48 6.57-15.24 6.52-23.75a2.89 2.89 0 0 1 .32-1.35c4.31-7.11 9.59-13.24 17.61-16.37a23.3 23.3 0 0 1 14.81-1c3 .81 3.93 2.15 3.56 5.28a49.82 49.82 0 0 1-1.35 6.14 6.81 6.81 0 0 0-.32 2.85c.48-.59.91-1.18 1.45-1.88 2.8 1.45 3.61 4.09 3.77 6.78.54 7.7.11 15.35-3 22.62a3.2 3.2 0 0 1-3 2.16c-3.66.53-7.33 1.45-11.26 2.26a40.11 40.11 0 0 0 9.53-12.44c2.32-5 1.24-10.34 1.46-15.51a4.64 4.64 0 0 1-.76-.11zm-22.29 19.55c.16.21.32.48.48.7a5.15 5.15 0 0 0 3.18-2.64c-.16-.22-.32-.43-.54-.7-1 .91-2.1 1.78-3.12 2.64zM321 220.48c8.78 3.45 25.8 5.76 33.71 3.61-1.4-.27-2.85-.59-4.25-.75-6.36-.6-12.76-.92-19.12-1.67-4.9-.6-9.1-3-13-6.2 2.75-3 5.28-5.92 8.08-8.51 1-.91 2.8-.86 4.2-1.29 6.57-1.94 13.14-4.09 19.71-5.87a29.07 29.07 0 0 1 15.35-.38 18.5 18.5 0 0 1 11.79 9.37c3.29 6.25-1.07 14.22-8.13 15.08-2.74.33-5.54.49-8.61.71l1.13 1.5c-.06.11-.11.27-.22.33-4.58 1.23-9.15 2.69-13.84 3.55-8.13 1.51-15.94.54-22.57-4.9-1.56-1.4-2.85-3.07-4.25-4.58z" fill="#fff"/><path d="M283.55 220.7c3.5 1.34 6.79 2.64 10.18 3.93-.92 1.72-1.89 3.61-2.86 5.49.17.16.33.38.49.54a14.21 14.21 0 0 0 2.37-1.88c.75-1 1.08-2.21 1.78-3.18.43-.59 1.34-.81 2-1.19.27.6.86 1.24.76 1.78-.38 2.37-.87 4.69-1.4 7-.43 2.05-1 4-1.51 6.14 2.85-1.45 3.93-4.74 5.11-15.08.7-.16 1.46-.32 2.54-.54.32 2.1.64 4 1 6.2a3.49 3.49 0 0 0 1.4-4.2c-.44-1.84.05-2.7 1.88-3.5a89.25 89.25 0 0 0 8.56-4.64 50.93 50.93 0 0 0 3.07 4.64c1.67 2 3.67 3.82 5.39 5.81a7.94 7.94 0 0 1 2.05 3.5 19 19 0 0 1-.11 6.25c-.54 2.64-2 4.79-4.9 5.44-6.63 1.45-13.25 2.85-19.88 4.25a35.66 35.66 0 0 0-4.68 1.08c7.22 1.29 14.22-.48 21.22-1.88a45.62 45.62 0 0 1-23.43 6.78c-5.39 0-16.16-5.28-20.41-10 5.82 2.32 10.93 5.23 16.86 5.44 0-.16.16-.37.21-.53-.64-.27-1.29-.54-1.88-.81-6-2.64-12.12-5.23-18.1-8-2.58-1.19-4.68-5.12-4.31-7.92a1.92 1.92 0 0 1 .86-1.4 44.11 44.11 0 0 0 15.73-9.53zM247.36 226l4.79-.87a3.17 3.17 0 0 1 .06-.75 21.68 21.68 0 0 0-4.2-.59 50.72 50.72 0 0 1-16.54-2.1 14.16 14.16 0 0 1-9.26-8.84c-1.35-3.33-.06-7 3.34-9.47 6.3-4.58 13.46-6.2 21.16-6 3.88.11 6.95 2.26 10.45 3.23 4.15 1.08 8.35 1.94 12.44 3a4.07 4.07 0 0 1 2.26 1.62c1.19 1.78 2.21 3.72 3.45 5.92H262c-.05.22-.05.38-.1.6 2.37.54 4.74 1.18 7.16 1.51a18.85 18.85 0 0 0 5.71-.06 3 3 0 0 1 3.5 1.62c.54.86 1.24 1.56 2 2.53-7 4-14.92 4.74-22.67 6.62 2.64 1.56 7.65.7 20.84-3.28-1.51 2.37-8.78 6-14.43 7.48s-11 .33-16.59-2.2z" fill="#fff"/><path d="M283.19 196.43l3.12-5.18c4.3-6.71 8.6-9.35 12.9-3l5.59 5.76a35.9 35.9 0 0 1-2.06 5.17c-6 2.56-12.25 1.95-15.53 0a9.23 9.23 0 0 1-4-2.78z" fill="#eaaa22"/><path fill="#eaab22" d="M302.28 68.06l-3.4-9.69-3.44 9.69 3.44 4.95 3.4-4.95zM292.42 76.57l-2.91 9.8 8.62-5.76v-5.44l-5.71 1.4zM294.25 68.92h-10.34l7.97 6.3 5.77-1.4-3.4-4.9zM305.83 75.22l7.97-6.3h-10.34l-3.39 4.9 5.76 1.4zM305.29 76.57l-5.71-1.4v5.44l8.62 5.76-2.91-9.8z"/></svg>