<svg xmlns="http://www.w3.org/2000/svg" width="600" height="450" viewBox="0 0 600 450"><path fill="#fff" stroke="#50d6cc" stroke-linecap="round" stroke-linejoin="round" d="M26.86 2.17h549.16v366.11H26.86z"/><path fill="#fff" stroke="#50d6cc" stroke-linecap="round" stroke-linejoin="round" d="M26.86 185.22h549.16v183.05H26.86z"/><path fill="#fff" stroke="#50d6cc" stroke-linecap="round" stroke-linejoin="round" d="M26.86 2.17h183.05v366.11H26.86z"/><path fill="#fff" stroke="#50d6cc" stroke-linecap="round" stroke-linejoin="round" d="M143.32 193.32l40.35-29.31H133.8l-15.41-47.43-15.41 47.43H53.1l40.35 29.31-15.41 47.44 40.35-29.32 40.35 29.32-15.42-47.44z"/><path fill="none" stroke="#a3a3a3" stroke-linecap="round" stroke-linejoin="round" d="M131.16 419.12h2.5"/><path fill="none" stroke="#a3a3a3" stroke-linecap="round" stroke-linejoin="round" stroke-dasharray="4.92 4.92" d="M138.58 419.12h66.38"/><path fill="none" stroke="#a3a3a3" stroke-linecap="round" stroke-linejoin="round" d="M207.41 419.12h2.5v-2.5"/><path fill="none" stroke="#a3a3a3" stroke-linecap="round" stroke-linejoin="round" stroke-dasharray="5.16 5.16" d="M209.91 411.46v-28.39"/><path fill="none" stroke="#a3a3a3" stroke-linecap="round" stroke-linejoin="round" d="M209.91 380.49v-2.5"/><path d="M119.49 424.24h-1.18v-9.14l-2.13.63-.28-.66 2.77-1.45h.82zM108.1 398.31a1 1 0 111-1 1 1 0 01-1 1zM119.87 387.52v.66q-1.07 2.46-2 5c-.61 1.64-1.18 3.29-1.69 5h-1.34q.94-2.87 2-5.67c.49-1.27 1-2.54 1.54-3.8h-4.54v-1.13zM128.21 387.52v1.08h-4.37l-.16 3a3.79 3.79 0 011.73-.41 3.19 3.19 0 013.2 3.53 3.26 3.26 0 01-3.35 3.54 3.75 3.75 0 01-3.13-1.63l1.05-.79c.15.1.06.27.13.4a2.56 2.56 0 001.94 1 2.56 2.56 0 000-5 2.55 2.55 0 00-2 1l-.76-.31.36-5.39z"/><path fill="none" stroke="#a3a3a3" stroke-linecap="round" stroke-linejoin="round" stroke-dasharray="5 5" d="M26.86 418.74h78.75"/><path fill="none" stroke="#a3a3a3" stroke-linecap="round" stroke-linejoin="round" d="M139.56 392.02h2.5"/><path fill="none" stroke="#a3a3a3" stroke-linecap="round" stroke-linejoin="round" stroke-dasharray="5.59 5.59" d="M147.65 392.02h30.73"/><path fill="none" stroke="#a3a3a3" stroke-linecap="round" stroke-linejoin="round" d="M181.17 392.01h2.5v-2.5"/><path fill="none" stroke="#a3a3a3" stroke-linecap="round" stroke-linejoin="round" stroke-dasharray="5.05 5.05" d="M183.67 384.46v-240.1"/><path fill="none" stroke="#a3a3a3" stroke-linecap="round" stroke-linejoin="round" d="M183.67 141.83v-2.5M52.58 139.33v2.5"/><path fill="none" stroke="#a3a3a3" stroke-linecap="round" stroke-linejoin="round" stroke-dasharray="5.07 5.07" d="M52.58 146.9v240.73"/><path fill="none" stroke="#a3a3a3" stroke-linecap="round" stroke-linejoin="round" d="M52.58 390.17v2.5h2.5"/><path fill="none" stroke="#a3a3a3" stroke-linecap="round" stroke-linejoin="round" stroke-dasharray="5.66 5.66" d="M60.74 392.67h31.15"/><path fill="none" stroke="#a3a3a3" stroke-linecap="round" stroke-linejoin="round" d="M94.72 392.67h2.5"/><path fill="none" stroke="#a3a3a3" stroke-linecap="round" stroke-linejoin="round" stroke-dasharray="5 5" d="M20.38 1.66H4.29l.5 163.63M18.55 368.4H4.29l.5-171.79"/><path d="M4.82 173.3a3 3 0 013.07 3A4.76 4.76 0 016 179.62a14.21 14.21 0 00-2.88 3.31h4.47a.22.22 0 00.18-.07.26.26 0 01.23-.08V184H1.78v-.75a12.64 12.64 0 013.08-3.94c.77-.69 1.85-1.62 1.85-2.91a2 2 0 00-2-2 2.21 2.21 0 00-1.81 1c-.09.14-.05.25-.15.39l-.89-.79a3.44 3.44 0 012.96-1.7zM302.52 439.5a2.84 2.84 0 011.82 2.73 3.08 3.08 0 01-3.26 3.09 3.7 3.7 0 01-2.78-1.2l.89-1.07c.15.15.08.31.22.48a2.34 2.34 0 001.66.71 2.12 2.12 0 002.13-2.15c0-1.27-1.05-2-2.49-2a4.55 4.55 0 00-.53 0v-.95a4.07 4.07 0 001.67-.27 1.86 1.86 0 001.13-1.67 1.73 1.73 0 00-1.84-1.65 2.53 2.53 0 00-1.83.82l-.66-.74a3.47 3.47 0 012.54-1.13 2.79 2.79 0 012.92 2.68 2.46 2.46 0 01-1.59 2.32z"/><path fill="none" stroke="#a3a3a3" stroke-linecap="round" stroke-linejoin="round" stroke-dasharray="5 5" d="M26.86 377.99v61.99h263.56M576.02 377.99v61.99H312.47"/><path fill="none" stroke="#a3a3a3" stroke-linecap="round" stroke-linejoin="round" d="M596.99 106.28v2.5"/><path fill="none" stroke="#a3a3a3" stroke-linecap="round" stroke-linejoin="round" stroke-dasharray="4.93 4.93" d="M596.99 113.71v66.55"/><path fill="none" stroke="#a3a3a3" stroke-linecap="round" stroke-linejoin="round" d="M597 182.72v2.5h-2.5"/><path fill="none" stroke="#a3a3a3" stroke-linecap="round" stroke-linejoin="round" stroke-dasharray="3.06 3.06" d="M591.43 185.22h-4.6"/><path fill="none" stroke="#a3a3a3" stroke-linecap="round" stroke-linejoin="round" d="M585.3 185.22h-2.5M582.84 1.93h2.5"/><path fill="none" stroke="#a3a3a3" stroke-linecap="round" stroke-linejoin="round" stroke-dasharray="3.05 3.05" d="M588.39 1.93h4.58"/><path fill="none" stroke="#a3a3a3" stroke-linecap="round" stroke-linejoin="round" d="M594.5 1.93h2.5v2.5"/><path fill="none" stroke="#a3a3a3" stroke-linecap="round" stroke-linejoin="round" stroke-dasharray="5.15 5.15" d="M596.99 9.57v59.21"/><path fill="none" stroke="#a3a3a3" stroke-linecap="round" stroke-linejoin="round" d="M596.99 71.36v2.5"/><path d="M597.83 95h-1.18v-9.1l-2.13.63-.28-.66 2.76-1.45h.82z"/><path fill="none" stroke="#a3a3a3" stroke-linecap="round" stroke-linejoin="round" d="M596.99 289.45v2.5"/><path fill="none" stroke="#a3a3a3" stroke-linecap="round" stroke-linejoin="round" stroke-dasharray="4.93 4.93" d="M596.99 296.88v66.55"/><path fill="none" stroke="#a3a3a3" stroke-linecap="round" stroke-linejoin="round" d="M597 365.9v2.5h-2.5"/><path fill="none" stroke="#a3a3a3" stroke-linecap="round" stroke-linejoin="round" stroke-dasharray="3.06 3.06" d="M591.43 368.4h-4.6"/><path fill="none" stroke="#a3a3a3" stroke-linecap="round" stroke-linejoin="round" d="M585.3 368.4h-2.5M596.99 257.03v-2.5"/><path fill="none" stroke="#a3a3a3" stroke-linecap="round" stroke-linejoin="round" stroke-dasharray="5.15 5.15" d="M596.99 249.38v-59.21"/><path fill="none" stroke="#a3a3a3" stroke-linecap="round" stroke-linejoin="round" d="M596.99 187.6v-2.5"/><path d="M597.83 278.21h-1.18v-9.14l-2.13.63-.28-.66 2.77-1.45h.82z"/></svg>