<svg xmlns="http://www.w3.org/2000/svg" width="600" height="400" viewBox="0 0 600 400"><path fill="#fff22d" d="M0 0h600.02v200H0z"/><path fill="#002868" d="M0 200h600v200H0z"/><path fill="#bb2440" d="M261.44 200H0v-59l227.84 38.63 33.6 20.37zM275 175.63L56.96 0H0v71.01l251.98 104.62H275zM291.16 162.71L209.46 0h-68.31l141.41 173.75h5.04l3.56-11.04zM340.76 0l-27.31 141.84-7.89-23.76-7.66 23.76L270.81 0h69.95zM600 72.05L353.32 175.63h-15.09L558.02 0h42L600 72.05zM600 141.52L385.65 178.2 350.07 200H600v-58.48zM330.12 175.26L473.17 0h-70.03l-84.05 164.12 3.7 11.14h7.33z"/><path fill="#a96a31" d="M346.19 223.12l65.74-48.49H330.1l-24.54-73.94-23.86 73.94h-82.5l66.77 48.73-24.95 77.33 65.11-48.03 65.8 48.03-25.74-77.57z"/></svg>