<svg xmlns="http://www.w3.org/2000/svg" xmlns:xlink="http://www.w3.org/1999/xlink" width="500" height="300" viewBox="0 0 500 300"><defs><linearGradient id="a" x1="333.6" y1="438.44" x2="333.6" y2="466.22" gradientTransform="matrix(1.93, 0, 0, -1.93, -392.51, 1016.07)" gradientUnits="userSpaceOnUse"><stop offset="0" stop-color="#ff8c00"/><stop offset="0.36" stop-color="#b6ae7f"/><stop offset="0.66" stop-color="#6ed0ff"/><stop offset="1" stop-color="#6ed0ff"/></linearGradient><linearGradient id="b" x1="204.72" y1="342.34" x2="204.72" y2="333.06" gradientTransform="matrix(1.93, 0, 0, -1.93, -144.51, 818.55)" gradientUnits="userSpaceOnUse"><stop offset="0" stop-color="#541e30"/><stop offset="1" stop-color="#7c4790"/></linearGradient><linearGradient id="c" x1="203.54" y1="313.76" x2="203.66" y2="328.79" gradientTransform="matrix(1.93, 0, 0, -1.93, -144.51, 818.55)" gradientUnits="userSpaceOnUse"><stop offset="0" stop-color="#29b910"/><stop offset="1" stop-color="#c2d110"/></linearGradient><linearGradient id="d" x1="194.91" y1="295.71" x2="216.33" y2="301.11" gradientTransform="matrix(1.93, 0, 0, -1.93, -144.51, 818.55)" gradientUnits="userSpaceOnUse"><stop offset="0" stop-color="#38b610"/><stop offset="1" stop-color="#f0b610"/></linearGradient><linearGradient id="e" x1="220.11" y1="329.11" x2="220.14" y2="324.92" gradientTransform="matrix(1.93, 0, 0, -1.93, -144.51, 818.55)" gradientUnits="userSpaceOnUse"><stop offset="0" stop-color="#86e2ff"/><stop offset="1" stop-color="#003f99"/></linearGradient></defs><title>Artboard 1</title><path d="M0,300H500V0H0Z" fill="#00009c"/><path d="M236.84,72.27c-2.17,2.36-5.7,3.62-8.23,4.43a9.81,9.81,0,0,1-5.33-.09,11.13,11.13,0,0,0,1.62-2.43,7.91,7.91,0,0,0,.73-5.52c-.45-2.26,1-3.14,1.35-3.08a39,39,0,0,0,7.33.46,9.26,9.26,0,0,1-.27,1.89,17.66,17.66,0,0,0-.09,3s2.8-1.19,3.8-1.55.72.18.72.18a1.38,1.38,0,0,1-.09,1.18c-.36.45-1.54,1.53-1.54,1.53"/><path d="M254.84,65.85s3.43,3.62,5.6,4.8c2,2.38,2.72,6.69,3.17,7.21a1.55,1.55,0,0,0,1.47.47,23.46,23.46,0,0,0-.77-5.37A10.93,10.93,0,0,0,263,70.44a36.23,36.23,0,0,0-3.64-2.59,32.38,32.38,0,0,1-4.61-3.8l.09,1.8"/><path d="M264.51,66a7.65,7.65,0,0,1,2.81,2.17c1.08,1.44,2.35,5.42,4.61,6s4.79,1.17,4.79,1.17a7.48,7.48,0,0,1-1.18-4.52c0-3.08-.53-5.61-3-6.34s-2.6-.74-2.6-.74l0,3.18-5.61-2.07-.59-.24.77,1.42"/><path d="M263.62,73.12a11.32,11.32,0,0,1,.87,5.43c-.95-1.92-1.77-7.89-4.14-8.45-1.56-1.25-4.69-3.83-4.69-3.83l-.46-1.5c2,2.81,4.42,3.22,7.6,6.45" fill="#3cff16"/><path d="M235.85,72.46c-2,2.11-4.87,3-7.15,3.7a9.56,9.56,0,0,1-4.72.11,10.34,10.34,0,0,0,1.47-2.2,7.15,7.15,0,0,0,.65-5c-.41-2,.89-2.83,1.22-2.76a33.05,33.05,0,0,0,6.26.42,5,5,0,0,1,.08,1.68,24.61,24.61,0,0,0-.26,3.11s2.64-1.12,3.53-1.45.73-.19.73-.19a1.27,1.27,0,0,1-.09,1.06,16.73,16.73,0,0,1-1.72,1.49" fill="#3cff16"/><path d="M264.78,65.58a17.19,17.19,0,0,1,3.13,2.8c1,1.31,2.11,4.89,4.15,5.37s3.58.78,3.58.78a9,9,0,0,1-.54-3.79c0-2.77-.27-5-2.47-5.69s-2.3-.66-2.3-.66l.24,3L266,66l-1.18-.46" fill="#3cff16"/><path d="M269.34,64c0,.54.6,1.39,0,2-1.27-.44-2.64-.88-4-1.32-.2.38,0-.36-.57-.36-1-.19-.4-.91-1.67.06.26,1.18,1.22,2.08,1.59,3.25l.9.95c-.42.39-1.3,0-1.22.75,0,0-1.31-.48-2.13-.67a18.22,18.22,0,0,1-3.88-2.17c-1.36-.9-4.1-3.35-4.1-3.35l-.17,2.66c-.37,3-1.24,6.07-4.12,7.38.31-1.54-.82-2.91-1.14-4.37a31.71,31.71,0,0,1-1.46,3.1l-.47.51-1.43,1.08-.11,0-.26.28-.11-.1c-.15.11-.1.38-.31.34l-.06-.1-.21.16a2.42,2.42,0,0,1-1.18.27c.34-1-.24-2-.39-3a8,8,0,0,1-3.09,1.46c-.21.23-.63.58-.86.26.6-1.22-.18-3.26.43-4.64l-.12,0c-1.21,1.07-3.11.87-4.49,1.79h-.33c-.37-1.44.44-3,.65-4.52-.28-.26-.49,0-.81,0-1,.36-1.36-.06-2.44.1v-.07a2.62,2.62,0,0,1-1.58-.26c-.26.45-.66,0-1-.07a5.53,5.53,0,0,1-.88.11l-1.13,0c-.17-.15-.44,0-.5-.25v-.27c2.53-.52,4.4-3,6.17-5-.5-.4-1.13.16-1.48-.42-.5-.14-1.14,0-1.48-.43l-.11.1c-.39-.58-1.53-.37-2.19-.78a3.47,3.47,0,0,1-1.26-.33c-.21.27-.39-.09-.6-.09-.63-.73.61-1,.92-1.5a14,14,0,0,0,2.17-1.43c-1-.51-2.24-.41-3.25-1.08.25-.66,1.17-.91,1.69-1.52a5.33,5.33,0,0,0,1.26-.92c-1.54-.75-3.58-.18-4.94-1.39-.18-.7.58-.62.95-.91.65,0,1.55-.49,2.2-.46.79-.68,2-.12,2.92-.58l1-.37c-.57-.68-1.55-.7-2.17-1.38H228c-.23-.37-1.1-.5-1.66-.8s-.93-.46-1-1a9.83,9.83,0,0,1,6.69-1.33c-.6-1.55-1.81-3.14-2.14-5a16.84,16.84,0,0,1,5.81,1.52c0-1.58-.22-3-.33-4.59,1.72-.13,2,2.08,3.3,2.79a3.73,3.73,0,0,0,.17-1.24c.45-1,.13-2.18.42-3.33,1.2.22,1.84,1.35,2.52,2.24a15.25,15.25,0,0,0,1.3,2.66c.48-.24.13-.77.33-1.26a11.59,11.59,0,0,0,1-4.22c.37-.11.45.42.67.62,2.23,1.77,3.09,4.29,4.15,6.59.69-2,1.35-4.66,3.14-6,.58-.5,1.15-1.23,2-1.26.23.53.05,1.56.3,2.21.83,2-.08,3.8-.07,5.7a45,45,0,0,1,5.29-6.87c.15-.34.67-.9.95-.58.63.68.29,1.89,1,2.46-.71,1.17-.29,2.4-.9,3.56l.06.11A44.24,44.24,0,0,1,268.13,34c-.23,2.45-.35,5.18-2.23,7.14a18.83,18.83,0,0,1,4.64-.77c1.19-.09,2.37-.68,3.5-.77.71.28-.07,1-.05,1.46-1.66,2-3.21,4.4-5.67,5.26A19.56,19.56,0,0,1,272,47.62h.28v.12c1,.07,1.91.25,2.7-.38.38,0,.55.2.61.52-1.16,2.28-3.41,3.28-5.49,4.06.16,1.3,1.9,1.62,3,2.11.66.47,1.86.48,2,1.29a4.89,4.89,0,0,1-4.33,1.74,1.22,1.22,0,0,0-.61-.2c-.13.82.92,1.38,1.32,2,.75.9,2.05,1.06,2.47,2.18a6.43,6.43,0,0,1-4.6.33c-.5-.19-1.14-.06-1.69-.31A4.25,4.25,0,0,0,269,63.35l.33.61" fill="#ffb30f"/><path d="M248.51,45A12.84,12.84,0,0,1,261.89,50c1.08,2.73-.91,5.71-2.8,7.42-5.53,3.19-14.23,3-19.63-.36-1-1.22-2.18-3.11-1.64-4.82.82-4.26,4.86-6.58,8.63-7.26l2.06,0" fill="#d15b25"/><path d="M262.79,65.88c0,.27-.08.71.14,1-.51.84-1.47,0-2.17-.14-1.77-.69-4.24-3.79-5.2-4.84a5.5,5.5,0,0,0-.54-1.53l4.21,1.76c1,1,3.11,2.06,3.56,3.77" fill="#ff0"/><path d="M252.56,63.87a10.43,10.43,0,0,1-.41,5l-.11-.1-.46.71c0-.31-.22,0-.28-.2-3.88-3.16-1.67-8.67-1.17-8.31,1.36-.46,2,2,2.43,2.89" fill="#ff0"/><path d="M247.32,65.85a6.38,6.38,0,0,1-1.65,5.55c.08.6-.68.63-1.1.91-.93-2.9.28-5.71.82-8.44-.27-.16.2-2.49.4-2.72.79.68,1.21,3.58,1.53,4.7" fill="#ff0"/><path d="M234.11,66.94a3.82,3.82,0,0,0-1.82,2.3,5.32,5.32,0,0,0,.42,2.53l-.32.17c-.45-.63-.32-1.29-.61-2a20.91,20.91,0,0,1-5.65,6c-.16-.1-.32-.09-.44-.31,2.54-1.56,4.66-4.41,6.3-7.07-1.34.37-2.58.7-4.08,1.08-.16,0-.2.38-.48.28a.69.69,0,0,1-.07-.48c1.17-.7,2.42-.52,3.75-1.23.45.2.59-.29,1.07-.41.27-.18.26-.51.36-.73.37-.17.5.47.75,0,.16-.23.64-.41.82-.09"/><path d="M272.84,68.93c.39.36.94.61.75,1.21-.54.07-.56-.56-.9-.83A4.57,4.57,0,0,0,270.31,68l-.21.17c1.26,1.8,3.64,3.13,3.84,5.45-.81.19-.53-1-1-1.43-.31-1-1.31-1.64-1.93-2.36-.48.33.19.75-.12,1.13l-.44,0c-.12-.64.29-1.1-.06-1.84a17.59,17.59,0,0,1-2.22-3l.14-.16c.53,2.42,3.36,1.06,4.51,2.87"/><path d="M240.19,71.83s2.08-1.09,2.35-1.91,1.17-4.34,1-5.24a31.27,31.27,0,0,1-.27-3.17,38.3,38.3,0,0,0-3,4.62c-.45,1.17-.09,5.7-.09,5.7" fill="#ff0"/><path d="M235.66,65.76,234.94,69a12.34,12.34,0,0,0,2.72-.81,15.2,15.2,0,0,0,2.53-4.89c.27-1.44.72-3.34.72-3.34a29.5,29.5,0,0,0-3.52,2.89,10,10,0,0,0-1.73,2.89" fill="#ff0"/><path d="M259.72,58.17a9.28,9.28,0,0,0,2.08,3c1.18.91,6.51,3.61,6.51,3.61a5.8,5.8,0,0,0-1.63-3.61c-1.44-1.17-7-3-7-3" fill="#ff0"/><path d="M262.25,56.72a28.51,28.51,0,0,0,4.8,2.71,15.72,15.72,0,0,0,3.89,1,2.39,2.39,0,0,0,1.26-.09,28.37,28.37,0,0,1-2.8-2.27c-1.36-1.26-2.26-2.34-3.89-2.34a7.32,7.32,0,0,0-3.26,1" fill="#ff0"/><path d="M264.33,53.56s4.26,2.26,5.7,2.34a15.19,15.19,0,0,0,3.8-.53A8.74,8.74,0,0,1,270.66,54c-1.53-1.09-.63-1.72-2.44-1.81a14.11,14.11,0,0,0-4.52,1l.63.36" fill="#ff0"/><path d="M264,51.29s5.52.54,6.24,0l3.34-2.43a13.84,13.84,0,0,1-3.07-.73A7.05,7.05,0,0,0,267.67,47a3.59,3.59,0,0,0-3,.74c-.27.26-1.62,1.71-1.62,1.71l.27,1.63.63.26" fill="#ff0"/><path d="M272.56,40.9s-5.42.35-7.14,1.09-4.07,4.7-4.07,4.7a8.3,8.3,0,0,0,3-.28c1.45-.45,4.8-.89,5.52-1.8s2.71-3.71,2.71-3.71" fill="#ff0"/><path d="M267.05,35.74a7.4,7.4,0,0,1-1,3.08c-.9,1.45-2.71,4-3.8,4.42a22.4,22.4,0,0,0-3.16,2s1.08-3.8,1.72-4.34,6.24-5.16,6.24-5.16" fill="#ff0"/><path d="M260.54,34.56s-.19,4.17-.82,5.26-2.35,4.51-2.35,4.51l-1.27.08a2.8,2.8,0,0,1-.8-2c0-1.26,2.17-4.25,2.17-4.25l3.07-3.62" fill="#ff0"/><path d="M253.57,34.21A15.43,15.43,0,0,1,254,37.1c0,1.08-.46,5-.46,5L252,43.61a2.82,2.82,0,0,1-1.27-1.45,7.1,7.1,0,0,1,0-4.16,39.36,39.36,0,0,1,2.89-3.79" fill="#ff0"/><path d="M245.25,34.65a20.83,20.83,0,0,1,2.36,3.81c.53,1.44,1.62,2.79,1.44,3.61s-1.54,1.71-1.54,1.71-1.9-.26-2.17-1.53-.9-3.52-.9-3.52l.81-4.08" fill="#ff0"/><path d="M240.09,34.65a41.37,41.37,0,0,1,2.36,4.43c.45,1.27,1.35,4.8,1.35,4.8a3.41,3.41,0,0,1-2.26.63c-1.17-.18-1.71-1.54-1.62-3.07s.17-6.79.17-6.79" fill="#ff0"/><path d="M236.93,37.37s1.81,2.71,1.9,4.07a38.72,38.72,0,0,0,.81,4.34,2.8,2.8,0,0,1-2.35-1.62c-.81-1.63-.36-6.79-.36-6.79" fill="#ff0"/><path d="M231.51,39.27s3.89,1.8,4.15,2.44,2.08,5.15,2.08,5.15-3.34-1.8-4-3-2.07-4.34-2.07-4.34l-.18-.27" fill="#ff0"/><path d="M227.07,44.88s2.36-.91,3.62-.45,5.16,2.62,5.16,2.62-3.26.26-4.16-.1-4.62-2.07-4.62-2.07" fill="#ff0"/><path d="M237,49.31s-7.59-.73-9.4-.09a9.15,9.15,0,0,1-2.35.64s2.53.44,4.25.89,5.51.64,5.88.36a24.15,24.15,0,0,0,1.62-1.8" fill="#ff0"/><path d="M236.39,52.37a46.09,46.09,0,0,0-5.52-.26c-.81.18-3.7,1.35-3.7,1.35a20.61,20.61,0,0,0,2.89.82,37.46,37.46,0,0,0,5.51,0l1.27-.82-.45-1.09" fill="#ff0"/><path d="M236.66,55.28s-4.07-.55-5.69-.09a13.44,13.44,0,0,0-3.53,1.8s-.09.27,1.62.82,3.62,1.62,4.71,1.17,3.52-1.81,3.52-1.81l.46-1.27-1.09-.62" fill="#ff0"/><path d="M238.56,58.17S234.85,60,233.4,61s-2.71,2.8-3.34,3a15.14,15.14,0,0,0-1.45.53,33,33,0,0,1,3.62.19,5.09,5.09,0,0,0,3.71-1.45c.81-.81,2.89-3.53,2.89-3.53l-.27-1.53" fill="#ff0"/><path d="M224.38,77.92s-.42-.8,1.28-.88,7.63-.06,8.69-.06a2.59,2.59,0,0,1,2.34,1.09c.95,1,4.34,4,4.34,4s.42.81-2.54.81h-7.43c-1.58,0-1.69-.15-2.33-.66s-4.35-4.33-4.35-4.33" fill="#4fa8ff"/><path d="M249.2,77.92s-.42-.8,1.28-.88,6.68-.06,7.73-.06a2.6,2.6,0,0,1,2.34,1.09c.95,1,4.35,4,4.35,4s.42.81-2.55.81h-6.47c-1.59,0-1.69-.15-2.33-.66s-4.35-4.33-4.35-4.33" fill="#4fa8ff"/><path d="M271.9,77.92s-.43-.8,1.27-.88,6.05-.06,7.11-.06,3.08.06,4,1,2.86,3.45,2.86,3.45.84,1.46-2.12,1.46h-6.47c-1.59,0-1.7-.15-2.33-.66s-4.35-4.33-4.35-4.33" fill="#4fa8ff"/><path d="M236.79,77.92s-.42-.8,1.27-.88,7.65-.06,8.7-.06a2.6,2.6,0,0,1,2.34,1.09c1,1,4.34,4,4.34,4s.42.81-2.54.81h-7.43c-1.59,0-1.69-.15-2.33-.66s-4.35-4.33-4.35-4.33" fill="#ff0"/><path d="M260.45,77.92s-.43-.8,1.27-.88,7-.06,8.06-.06,1.37.14,2.33,1.09,4.35,4,4.35,4,.42.81-2.55.81h-6.78c-1.59,0-1.7-.15-2.34-.66s-4.34-4.33-4.34-4.33" fill="#ff0"/><path d="M212.93,78.5s-.32-1.38,1.38-1.46,6.79-.06,7.85-.06,1.37.14,2.33,1.09,4.35,4,4.35,4,.42.81-2.55.81h-6.57a9.42,9.42,0,0,1-4.45-1.18,23.72,23.72,0,0,1-2.34-3.23" fill="#ff0"/><path d="M224.29,77.87s-.42-.81,1.28-.88,7.63-.07,8.69-.07A2.61,2.61,0,0,1,236.6,78c1,1,4.34,4,4.34,4s.42.8-2.54.8H231c-1.58,0-1.7-.15-2.33-.65S224.29,77.87,224.29,77.87Z" fill="none" stroke="#000" stroke-width="0.27"/><path d="M249.11,77.87s-.42-.81,1.27-.88,6.69-.07,7.74-.07A2.6,2.6,0,0,1,260.46,78c1,1,4.34,4,4.34,4s.43.8-2.54.8h-6.47c-1.59,0-1.69-.15-2.33-.65S249.11,77.87,249.11,77.87Z" fill="none" stroke="#000" stroke-width="0.27"/><path d="M271.81,77.87s-.43-.81,1.27-.88,6.05-.07,7.1-.07,3.08.07,4,1,2.86,3.44,2.86,3.44.84,1.46-2.12,1.46h-6.47c-1.59,0-1.7-.15-2.33-.65S271.81,77.87,271.81,77.87Z" fill="none" stroke="#000" stroke-width="0.27"/><path d="M236.7,77.87s-.42-.81,1.27-.88,7.64-.07,8.7-.07A2.6,2.6,0,0,1,249,78c1,1,4.34,4,4.34,4s.42.8-2.54.8h-7.43c-1.59,0-1.69-.15-2.33-.65S236.7,77.87,236.7,77.87Z" fill="none" stroke="#000" stroke-width="0.27"/><path d="M260.35,77.87s-.42-.81,1.28-.88,7-.07,8.06-.07,1.37.14,2.33,1.09,4.35,4,4.35,4,.41.8-2.55.8H267c-1.6,0-1.7-.15-2.34-.65S260.35,77.87,260.35,77.87Z" fill="none" stroke="#000" stroke-width="0.27"/><path d="M212.84,78.45s-.32-1.39,1.37-1.46,6.8-.07,7.85-.07A2.6,2.6,0,0,1,224.4,78c.95,1,4.35,4,4.35,4s.42.8-2.55.8h-6.58a9.5,9.5,0,0,1-4.45-1.17A23.47,23.47,0,0,1,212.84,78.45Z" fill="none" stroke="#000" stroke-width="0.27"/><path d="M215.7,77a10.85,10.85,0,0,1,3.19,3.22c.73.88,1.37,2.34,2.42,2.57" fill="none" stroke="#000" stroke-width="0.27"/><path d="M213.58,77a10.67,10.67,0,0,1,3.18,3.22c.74.88,1.38,2.34,2.43,2.57" fill="none" stroke="#000" stroke-width="0.27"/><path d="M218.14,77a10.67,10.67,0,0,1,3.18,3.22c.74.88,1.38,2.34,2.44,2.57" fill="none" stroke="#000" stroke-width="0.27"/><path d="M220.79,77A10.85,10.85,0,0,1,224,80.21c.74.88,1.37,2.34,2.44,2.57" fill="none" stroke="#000" stroke-width="0.27"/><path d="M227.58,77a10.67,10.67,0,0,1,3.18,3.22c.75.88,1.38,2.34,2.44,2.57" fill="none" stroke="#000" stroke-width="0.27"/><path d="M225.46,77a10.67,10.67,0,0,1,3.18,3.22c.75.88,1.38,2.34,2.44,2.57" fill="none" stroke="#000" stroke-width="0.27"/><path d="M230,77a10.67,10.67,0,0,1,3.18,3.22c.75.88,1.38,2.34,2.44,2.57" fill="none" stroke="#000" stroke-width="0.27"/><path d="M232.67,77a10.67,10.67,0,0,1,3.18,3.22c.75.88,1.38,2.34,2.44,2.57" fill="none" stroke="#000" stroke-width="0.27"/><path d="M240.09,77a10.73,10.73,0,0,1,3.19,3.22c.74.88,1.37,2.34,2.43,2.57" fill="none" stroke="#000" stroke-width="0.27"/><path d="M238,77a10.73,10.73,0,0,1,3.19,3.22c.74.88,1.37,2.34,2.44,2.57" fill="none" stroke="#000" stroke-width="0.27"/><path d="M242.53,77a10.73,10.73,0,0,1,3.19,3.22c.74.88,1.38,2.34,2.44,2.57" fill="none" stroke="#000" stroke-width="0.27"/><path d="M245.19,77a10.79,10.79,0,0,1,3.18,3.22c.74.88,1.38,2.34,2.44,2.57" fill="none" stroke="#000" stroke-width="0.27"/><path d="M252,77a10.61,10.61,0,0,1,3.17,3.22c.75.88,1.39,2.34,2.44,2.57" fill="none" stroke="#000" stroke-width="0.27"/><path d="M249.86,77A10.61,10.61,0,0,1,253,80.21c.75.88,1.39,2.34,2.44,2.57" fill="none" stroke="#000" stroke-width="0.27"/><path d="M254.42,77a10.61,10.61,0,0,1,3.17,3.22c.75.88,1.39,2.34,2.44,2.57" fill="none" stroke="#000" stroke-width="0.27"/><path d="M257.07,77a10.67,10.67,0,0,1,3.18,3.22c.74.88,1.38,2.34,2.43,2.57" fill="none" stroke="#000" stroke-width="0.27"/><path d="M263.75,77a10.67,10.67,0,0,1,3.18,3.22c.74.88,1.38,2.34,2.44,2.57" fill="none" stroke="#000" stroke-width="0.27"/><path d="M261.63,77a10.49,10.49,0,0,1,3.17,3.22c.75.88,1.39,2.34,2.44,2.57" fill="none" stroke="#000" stroke-width="0.27"/><path d="M266.19,77a10.79,10.79,0,0,1,3.18,3.22c.74.88,1.38,2.34,2.43,2.57" fill="none" stroke="#000" stroke-width="0.27"/><path d="M268.84,77A10.67,10.67,0,0,1,272,80.21c.75.88,1.38,2.34,2.44,2.57" fill="none" stroke="#000" stroke-width="0.27"/><path d="M275.31,77a10.79,10.79,0,0,1,3.18,3.22c.74.88,1.38,2.34,2.43,2.57" fill="none" stroke="#000" stroke-width="0.27"/><path d="M273.19,77a10.79,10.79,0,0,1,3.18,3.22c.74.88,1.37,2.34,2.43,2.57" fill="none" stroke="#000" stroke-width="0.27"/><path d="M277.74,77a10.73,10.73,0,0,1,3.19,3.22c.74.88,1.38,2.34,2.44,2.57" fill="none" stroke="#000" stroke-width="0.27"/><path d="M280.4,77a10.67,10.67,0,0,1,3.18,3.22c.74.88,1.38,2.34,2.44,2.57" fill="none" stroke="#000" stroke-width="0.27"/><path d="M329.17,177.86a79.17,79.17,0,1,1-158.34.06v-.06a79.17,79.17,0,0,1,158.34-.05Z" fill="#fff"/><path d="M318.76,179.17a68.56,68.56,0,1,1-68.55-68.56A68.55,68.55,0,0,1,318.76,179.17Z"/><path d="M181.69,179.13a68.66,68.66,0,0,1,137.32,0H181.69Z" fill="url(#a)"/><path d="M225.78,184.7h3l47.76-.15c0-1.26.1-2.6,0-3.81,0,0,.09,0,.13-.1,0-.49-.56-.51-.92-.68-.05,0-.18.06-.23-.08-.13.1,0,.27-.07.41-.45-1.19-2-.24-2.75-.61-1.24-.89-2.55-.17-3.82-.67-.37-.3-.81,0-1.26-.17-1.91-1.9-4,.5-6-.27-1,.17-2-1.18-3.24-.5a4.39,4.39,0,0,1-2.81.23,1.25,1.25,0,0,1-.17-.89c.09,0,.09,0,.14-.05l0-.26c1.48-.1,3.2-.7,4.82-.31a6.34,6.34,0,0,1,2.41-.1c2.06.24,4.58-.6,6.73.7,1.56,0,2.75-.37,4.16.15.2-.58.8-.16,1.14-.44,1.56-.24,3.1-.79,4.43-.08.69.7,2.27-.21,2.76,1.11.48.78-.52,1.63.31,2.27a38.81,38.81,0,0,0,.65,4.13c10.73.19,21.2.74,32.19.51.38,0,2.66.09,3.07.16,0,0,.07-1,.14-2.37s0-2.45,0-2.45c-2.6-.11-6.26-.55-8.66-.19l-.18-.17c.16-.41.53-.25.79-.26,0,.27,0,0,.1.13s.08-.18.26-.23a50.49,50.49,0,0,1,7.67.4c.05-4.52.64-6.57-.46-10.69-.17-.41-6.7-2-9.36-3-1,.45-9.93,5.6-12.5,6.44-1.72.57,5.21-2.12,4.34-2.24-1.66-1-1.09-1.05-3.81-.34-4.36.6-8.53,2.55-12.94,2.88-.14-.07-1,.59-.7.1a39.41,39.41,0,0,0,5.66-1.14c-2.9-.92-6.94-1.56-9.84-2.74-4-1.47-7.94-4.08-12.27-6.35-3.54-.63-4.82-1.17-9.6-3.83-3.52.39-6.17,2.5-9.53,3.47-2.92.92-5.1,3.58-8,4.5s-6,2.26-9,3.09a36.1,36.1,0,0,0,3.86,1.36c2.8.7,6.39.38,8.85.38,5.4-.07,10.33,0,15.36,1.83a19.71,19.71,0,0,1,3.17,1c0,.13-.75-.15-.88,0-2.16-.59-3.35-1-5.52-1.6-3.57-1.21-8.5-1.06-12.49-1l-1,.12c-2.54.1-3.73-.4-6.14-.31-4-1-8-3-12.51-2.74-.72-.29-1.87,0-2.77-.13a14.7,14.7,0,0,1-7.41-1c-.1-.1-.41-.16-.4.1l-.19-.26c-1.27-.49-8.09-2.53-9.4-2.93-3.09,1.35-2.5,1.32-6.14,2.16-4.19,1.41-10,2.26-14.16,4a59.94,59.94,0,0,0-1,9.43c1.76-.83,5.31.33,6.88.58a64.12,64.12,0,0,1,11.59.56c2.46,1.24,5.42,2.74,8.08,1a20,20,0,0,1,3.68-.18l3.76.55,2.46.48a5.34,5.34,0,0,1,.7.1c.5.07,2.54.72,2.87.8a10.43,10.43,0,0,0,1.6,0" stroke="#000" stroke-width="0.31" fill="url(#b)"/><path d="M298.28,165.65a5.09,5.09,0,0,0-2.39-1.39,4.08,4.08,0,0,0-2.63,0,4.18,4.18,0,0,0-2.25,1.27,5,5,0,0,0-1.39,2.62,6,6,0,0,0,.26,2.71l5.09-1.37a19.16,19.16,0,0,1,3-.48,6.29,6.29,0,0,1,2,0A8.38,8.38,0,0,0,298.28,165.65Z" fill="#ffe400"/><path d="M281.7,166.85s-.15-.08-.22.24,0,.36,0,.36l5.81,1.43a1,1,0,0,0,.35-.47,1.08,1.08,0,0,0-.07-.59" fill="#ffe400"/><path d="M277.54,162.47s-.13,0-.2.21.05.27.05.27L288,166.84a1,1,0,0,0,.29-.42,1.85,1.85,0,0,0,.05-.6" fill="#ffe400"/><path d="M300.83,165.82a1.54,1.54,0,0,0,.16.42,1.23,1.23,0,0,0,.29.31l7.46-4.33a.32.32,0,0,0,0-.26.21.21,0,0,0-.21-.08" fill="#ffe400"/><path d="M306.73,159.77a.2.2,0,0,0,0-.28.26.26,0,0,0-.3-.07L300,164.66a1.28,1.28,0,0,0,.15.28,1.74,1.74,0,0,0,.25.25" fill="#ffe400"/><path d="M288.84,165.18a1.19,1.19,0,0,0,.39-.35,1.16,1.16,0,0,0,.2-.48l-8.78-6.18a.26.26,0,0,0-.29.11.32.32,0,0,0,0,.34" fill="#ffe400"/><path d="M298.9,163.75a1,1,0,0,0,.22.32,1.91,1.91,0,0,0,.38.23l5.33-6.64s.12-.22,0-.31a.39.39,0,0,0-.31,0" fill="#ffe400"/><path d="M285.53,156.07a.19.19,0,0,0-.26,0,.41.41,0,0,0-.18.31l4.93,7.38a1.48,1.48,0,0,0,.43-.23,1.46,1.46,0,0,0,.3-.37" fill="#ffe400"/><path d="M303,155s.07-.13-.11-.24a.32.32,0,0,0-.31,0l-4.88,8a.86.86,0,0,0,.37.35,1.91,1.91,0,0,0,.43.22" fill="#ffe400"/><path d="M289.85,154.64a.24.24,0,0,0-.34-.17c-.28.11-.17.3-.17.3l2.59,7.89a1.62,1.62,0,0,0,.51-.12.94.94,0,0,0,.44-.26" fill="#ffe400"/><path d="M298.56,154.27s.12-.19-.21-.24-.33.1-.33.1l-2.11,8.07a1.89,1.89,0,0,0,.43.19,2.46,2.46,0,0,0,.46.05" fill="#ffe400"/><path d="M294.37,153.25s0-.16-.27-.14-.24.15-.24.15l.17,8.89a1.27,1.27,0,0,0,.57.07,1.05,1.05,0,0,0,.47-.11" fill="#ffe400"/><path d="M244.23,111c8.76-.93,12.17-.32,18.68.7s15.61,5,22.95,8.84c6.49,4,10,7.28,18,15.87a65.65,65.65,0,0,1,5.31,9.68c-.41,2.16-2.83,1.93-4.47,2.35,0,0-4.15.16-4.62-.41a9.48,9.48,0,0,0-1.88-2.56,32.86,32.86,0,0,0-2.82-2.86,64.72,64.72,0,0,0-17.42-14.16,66.71,66.71,0,0,0-18.12-6.7,55.85,55.85,0,0,0-16.55.15,74.05,74.05,0,0,0-14.51,4.11,55.09,55.09,0,0,0-18.22,11.18c-.4.15-5.72,5.93-6,6-1,1-2.38,2.14-2.19,3.61a15.24,15.24,0,0,0-3.42-.68c-1.39-.17-2.67.28-3.95-.47-.94-.06-1.91.56-2.65-1.43.48-3.09,3.77-7,3.77-7a63.23,63.23,0,0,1,10.13-10.54c6-4.35,10-7.27,15.19-9.82A109.7,109.7,0,0,1,232.82,113C237.22,111.73,235.86,111.94,244.23,111Z" fill="#ff660f" stroke="#000" stroke-width="0.31"/><path d="M206,143.84a2.09,2.09,0,0,1,.56,2c-.51,1.88-2.4,2.36-3.83,3.53a1,1,0,0,1-1.86.44c-.64-.81.77-1.82-.15-1.78s-2.75.44-3.52.16c-.9-.07-2.22.53-3-.17l-.3-.33c.25-.41.58-1.14,1-1.06.47-.52,1.14-.35,1.72-.42a14.23,14.23,0,0,1,4.49.35,9.84,9.84,0,0,1,1.46.85c.53.32-.39-.34-.64-.45s-.26-.18-.26-.18a6.09,6.09,0,0,1,1.18.86,22.3,22.3,0,0,1,2.1-1.94c.26-.28,0,.25.1-.05a.53.53,0,0,1,.42-.35c-.26.15-.31.73-.63.52-.48.24-.86.69-1.38,1l-.7.34c-.36-1.93.71-1.95,1.17-2.73l.12.51c.8-.34,1-1.49,2.12-.81" fill="#ff660f" stroke="#000" stroke-width="0.31"/><path d="M197.49,148.25l3.12-.2c0,.1.19.13.41.17-1.83,1.23-1.33,3.81-1.89,5.61-1.23,1.7-2,3.79-3.75,5.06-.49-1.28-.2-2.95-.47-4.32-.37-.48-.88.17-1.28.36a46.31,46.31,0,0,1-5.47,4.45h-.08c1-1.78,1.28-3.89,2.06-5.75.22-.06.34-.38.12-.36.87-1.74,1-4.29,3.12-5.08,1.39.26,2.9-.07,4.11.06" fill="#ff660f" stroke="#000" stroke-width="0.31"/><path d="M299.57,148l0,.58c-1.21-.05-1.3-.82-2.17-1.84l-.11.13a8.28,8.28,0,0,0,1.76,2.13c.78-.48,2.53-.64,4.61-.63a16.18,16.18,0,0,0,4.53-.67c-.36.77-1.23,1.39-.19,2.16-.72.08-5.55.12-8.11.09-.48.28-1.52.24-1.67.91a28.51,28.51,0,0,1-2.24-3.76c-.07-.72.63-1.05,1.07-1.43,1.42-.05,1.66,1.55,2.5,2.32" fill="#ff660f" stroke="#000" stroke-width="0.31"/><path d="M308.27,150.05c1.74,1.24,2.27,3.49,3.15,5.34a36.08,36.08,0,0,0,1.29,3.66c-1.82-.83-4.06-1.15-5.33-2.88-1.18.89-1.44,2.38-1.88,3.64-1.24-.93-1.14-2.36-2.32-3.53a17.27,17.27,0,0,1-1.13-2.44c-.41-.91-.58-1.52-.87-2.18-.6-.38-.84-1-1.44-1.29a8.43,8.43,0,0,1,1.2-.4,25.12,25.12,0,0,0,4.81-.22,10.54,10.54,0,0,1,2.52.31" fill="#ff660f" stroke="#000" stroke-width="0.31"/><path d="M300.6,151.86l-.5.56-.92-.39c-.58.07-.27-.42-.64-.71-.19-1.4.76-1,1.07-1.15.42.39.61,1.17,1,1.69" fill="#ff660f" stroke="#000" stroke-width="0.31"/><path d="M270.1,187.32a5.61,5.61,0,0,1,1.7,1.54c1.06-.39,2.37-.09,3.71-.14,3.72.18,7.37-.18,10.38-2l-.18-.18c-1,.22-2.33,1.25-3.22-.1-.26-.94.05-2.1-.42-2.89l-.12-3.08a1.61,1.61,0,0,0-1.29,0l0,3.22a15.88,15.88,0,0,1-2.54.23c-.22-1,.26-2.34-.31-3.34a.33.33,0,0,0-.39.15V181l-.32-.3-.17.18c.15,1.83-.36,3.73.37,5.44a15.08,15.08,0,0,0-2.78.91c-.62,0-1-.68-1.63-.66-1,.08-2-.1-2.7.6l-.12.14" fill="#fff"/><path d="M198.61,223.94c.22.28.38.56.61.85.82.88,1.47,1.65,2.4,2.52a22.05,22.05,0,0,1,4.34,0c5.3-.29,10.95,0,15.86-.1l.14.13a18.08,18.08,0,0,1,4.11-.15c.09.12.27.17.28.35-6,.61-12.53-.3-19.17.12a41.15,41.15,0,0,0-5.07.19l2,1.94c2.58-.15,5.56-1.11,7.81-.78v.08a25.87,25.87,0,0,1,4.6-.17,12.7,12.7,0,0,0,1.83,0c2.77,0,4.43.15,7.33,0l.32.16a6.83,6.83,0,0,1,1.87-.07v-.27l.1.09.41-.82c0-.08-.46-.43-.45-.12-.1-.3-.59-.33-.52-.79-1.1-.54,0-1.78-1.07-2.32-.34.33-1.11.09-1.27.63-.05-.09-.23-.22-.06-.31h-.27c-.74-.78-1.2.05-2.15-.19-2.25-.54-3.76,1-6.1.49-2.13-.85-4.91.27-7.11,0a25.82,25.82,0,0,0-8.09,0l-.28-.22.18-.18,4.64-.31c2.07.55,4.83.18,6.76.29,1.76-.56,3.85.17,5.81,0,1.74-1,3.11-.16,5.11-.59a5.91,5.91,0,0,1-.07-2,28.17,28.17,0,0,1-3.92.24c-6.31-.12-12.17.94-18,.26a20.14,20.14,0,0,0-2.06,0l-1.49.34" fill="#d15b25"/><path d="M254.74,223.56a2.1,2.1,0,0,1,.14,1.82c2.61.62,5.16-.47,7.81-.2,3.68.53,6.92-.17,10.54-.22a5.12,5.12,0,0,1,2.53-.36c.26-.19.3-.36.56-.51.16-.72-.2-.75-.84-.9,0,0-8.64.22-9.76.22s-11,.15-11,.15" fill="#d15b25"/><path d="M230.75,211.85c-.58-1,1.36-2.12.36-3.21v-.22a2.34,2.34,0,0,1,1,.19s-.17,0-.23-.08c-.33.5.29.71.45,1.19a7.31,7.31,0,0,0-1.13,2l-.47.09" fill="#d15b25"/><path d="M246.23,205.89c1.36-.47,2.6-1.47,4-1.26.88,1,2.48.81,3.16,2.17a1.83,1.83,0,0,0,.84-.21,7.74,7.74,0,0,1-.24-2.81c.35-1.62,2-2.44,3.25-2.76.57-.33,1.52.08,2,.46l.08-.09a1.79,1.79,0,0,1,1.51.75,4.71,4.71,0,0,0,2.13-.22c.41.13.94,0,1.14.46,0-.18.17-.28,0-.41,0-.53.52-.37.66-.42.23.21.39-.24.62-.11.57-.07.68.29,1.09.36l0-.28a.27.27,0,0,1,.36.27,1.58,1.58,0,0,1,1.34-.23.83.83,0,0,1,.72.23,12.22,12.22,0,0,1,.65,4.23c-.54,1.23.6,2.92-.16,4.25,3-.11,5.54-.16,8.54-.05l.32.31c-.18-.05-.25.49-.58.1l.1.09c-3.22.16-6.89-.24-10.36.21-3.5-.46-7.05.34-10.46.16-1.49.76-3.26-.24-4.81.17-3.61.22-7.55.24-11,1.44l-.08.09a17.78,17.78,0,0,1-3.78.68c-.82.52-1.74,0-2.39.49-2.14,0-4.35.69-6.72.65-.13,0-.59-.21-.72,0,0,0-.09,0-.09-.12-3.37.75-7,0-10.65.88-.18,0-.46-.33-.58,0-.13.05-.22-.08-.32-.16a24.48,24.48,0,0,1-5,.36,135.08,135.08,0,0,1-14.14.74c-.72-.1-1.46.28-2.05.08.07-.54.57-.2.92-.43-.28-.31-.12-.85-.53-1-.38.55-1.91.68-2.34,1,1.65,2.34,3.47,4.68,5.27,7l1.87-.41c8.2.55,15.62-.44,24-.53a22,22,0,0,0,0-4l.3-.46c.35-.1.5.2.76.28.46.25.39-.59.83-.74.21-.14.66-.25.8.1.22.94,1.25,1.07,1.93,1.41a3.93,3.93,0,0,1,.75-1.32c.19.21.59.11.56.51l.86-1,1.11,1c0-.22.39-.19.44-.14.18,1.24,1.76.51,2.07,1.66.4-.28.41-1,.94-1.33.48-.11,1-.52,1.51-.28,1.1,1.07.78,3,1.13,4.2l.82.46c3.32.38,6.48-1.44,9.93-1.08,1,.1,2.25.45,2.56,1.52l.51-.6a4.87,4.87,0,0,1,2.75.92l1.05,0a55.06,55.06,0,0,0,5.92-.07c1.23-.11,7.4-.19,8.11-.15s6.13,0,6.13,0a.5.5,0,0,0-.12-.27c0,.05-.17.31-.31.1-.41-.38-.17-1,.13-1.39h-.36v.18c-.13.14-.4.06-.62.12-.24-.36-.65-.61-.67-1.05.16-.68,1-.54,1.49-.91.08-1.25,1.4-.67,2.29-1,.93,0,.17,1.19,1.15,1.07.55.25,1-.26,1.49.34a1.87,1.87,0,0,1-.06.72.85.85,0,0,1-.88.43c-.29.6,0,1.12-.12,1.71,7.2-.05,15.29.17,21.81,0h1.95a44.63,44.63,0,0,0,4.41-5.88c2.07-3.25,5.38-8.43,6.77-13.05-1.3-.17-3.72-.6-5-.69l.54.72-.49.34-.7-1-.13,7.13s-10.81-.54-11.48-.54H283.77l.32.4-3.13,0,2.14-.54s.27-4.68.27-6.26c-.2.05-.56.64-.67.57s-.05-.43-.3-.34c.9-.85.92-1,1.09-1.08l4.72-5.36s-3.44-.48-5.34-.6-10.94-1.62-10.94-1.62C270,195,265,193.48,263.11,193s-19.43-7-20.15-7.26-2.58-.5-3.19-.72-11.53,0-11.53,0l-.87-.09-4.39-.34a17.36,17.36,0,0,1-1.79-.14c-.42-.08-1.87-.61-2.09-.7a5.58,5.58,0,0,0-1-.1l-5.29-.86-1.11-.07a16.09,16.09,0,0,0-2.18,0c-2-.14-3.3,1.24-5.1.91-3.19-.47-5.7-2.87-9.33-2.11-2.12-.64-4.28.15-6.44-.12-2-.11-4.77-1.51-6.74-.63l.64,7.77a68.06,68.06,0,0,0,5,17.58c2.62,6.21,2.19,5.6,5.25,9.88,0-.5-.13-4.22-.59-4.7-.62-2.17,1.64-.19,2.46-1a.48.48,0,0,1-.11-.62c.32,1.29,1.66.12,2.52.54,1.49.25,2.31-.44,3.71-.14a9.82,9.82,0,0,1,2,2.56c.54.29.56-.42.86-.75.07-.45-.25-.7-.39-1a1.07,1.07,0,0,1,.13-1.3c.76.2,1.7.11,2.33.32.62-.21,1.93.19,2.07-.88,0,.08.18.12.18.22a10.93,10.93,0,0,1,3.66-.19c.74.73,1.78.88,2.56,1.56.28,1.38,1.48,0,2.34.27a28.86,28.86,0,0,1-1.2-4.38c.28-3.36,3.59-1.11,5.34-1.9.69.48,1.62.08,2.33-.08,2.29.32,4.1-1.36,6.33-.33a2.33,2.33,0,0,1,1.19,2.06c.12.66-.83,1.59,0,1.83,0,.27-.43.33-.28.69-.7.47-1.11,1.64-1.66,2.47-.06.85.56,1.86-.08,2.64a31.62,31.62,0,0,0,5-.37c.26,0,.43-.28.25-.45-.09,0-.17.23-.31.23s-.13-.08-.09-.18c-.18-.11-.06-.4.11-.44s.14,0,.1.13l.09-.09.18.16c-.18-.16,0-.57-.29-.6-.12.31-.53.23-.7.46-.8,0-1,.22-1.62-.34l-1-.33a.44.44,0,0,1-.17-.25c-.29-.66.31-1.17.64-1.72l-.09-.09c1-.61-.27-1.33-.16-2,.13-.14.3-.24.4-.15.92-.26,1.81.65,2.69.3l.14.13c.52-.29,1-.13,1.55-.28.23,0,.43-.33.62-.25.78-.74,1.19-.4,2-.65a5.5,5.5,0,0,1,3,1.9c.19.17.21.84.64.47-1-1.3,1.12-2.55-.13-3.71.6-.69,1.39.17,2,.1.4,0,.8-.2,1.21.1l1.64-.16" fill="url(#c)"/><path d="M246.42,207.05a24.58,24.58,0,0,1,4.37-1.64c-1.16-1.07-2.32.13-3.3.39a15,15,0,0,1-1.9.61,4.57,4.57,0,0,1,.83.64" fill="#d15b25"/><path d="M269.47,177.86c1.83-.07,3.61-.49,5.26.61.18.13-.07.5.24.49.44-.2-.15-.45.15-.68a3.76,3.76,0,0,1,2.15,1.12,3.19,3.19,0,0,1-.11-.53c.31.08.37.43.42.7l-.17.19c0-.09-.05-.14-.09-.18,0,.36-.34.46-.62.33a1.57,1.57,0,0,1-.51-.38l-.08.1a.54.54,0,0,0-.8-.07c.17-.23-.28-.21-.42-.47-1.75,1-3.17-1-5.06-.35-1-.45-2.29-.18-3.17-1a6.34,6.34,0,0,0-3,.33c-1.22-.12-2.72.24-3.87-.66a13.7,13.7,0,0,0-2.71.42c-.16.5-.67,0-.89.21-.18-.13-.62,0-.59-.38a21.39,21.39,0,0,1,4.8-.58c.27-.1.54.11.9.06,2.79.56,5.78-.75,8.15.72" fill="#969696" stroke="#969696" stroke-width="0.37"/><path d="M281.05,177.74a1.14,1.14,0,0,1,.61.87.4.4,0,0,0-.48.34c.77.33-.49,1.13.54,1.18-.41-.2-.63-.07-1-.18.38-.56-.4-1-.55-1.51-.85-1-2.59.15-3.37-.54-.13,0-.09.18-.08.27-1.05-.41-1.82.34-2.75-.57,1.71.26,2.64-1,4.31-.56a4.68,4.68,0,0,0,2.76.7" fill="#969696" stroke="#969696" stroke-width="0.37"/><path d="M280.31,179.38l.05,3.93-1.73.34a22.45,22.45,0,0,0-.53-3.47,1.69,1.69,0,0,0-.64-1.59c.53-.19,1.65-.34,2.36-.59l.64,1.13" fill="#6d3f86"/><path d="M304.77,179.86c1.43-.05,3.41.27,4.73,0l-.3.1.18.17A43.87,43.87,0,0,1,304,180l-.22.14c0-.09,0-.18-.1-.22l-.08.1c-2.7.63-6.39-.12-9.74.18a23.67,23.67,0,0,1,4.41-.34c2.21.5,4.46-.22,6.53,0"/><path d="M287.8,186.21c-1.23.71-1,2.49-2.21,3.12-.08.36-.16.58.12.89-4.15.11-8-.28-11.93-.05l-1.44-.12c.13-.27-.25-.62-.34-.84l0-.26c4,0,8,.59,11.77-1,1.52,0,2.63-1.27,4.05-1.77" fill="#fff"/><path d="M266.2,187.14c-.39.33-1.1.63-1.34,1.12-1.16.31-2.74-.07-3.94-.12-.39-.69.69-.6,1.09-.75,1.65,0,2.31-.26,4.19-.24" fill="#fff"/><path d="M267.8,187.09c.25.52,0,1.07,0,1.61l-1.24-1.17a11.12,11.12,0,0,1,1.27-.44" fill="#fff"/><path d="M269.75,187.68c-.3.41-1.14.68-1.56,1.27l.23.21,1.83-1.27c.46.34,1.1.76,1.25,1.34a4.13,4.13,0,0,0-2.67.14c.6.52,1.34-.1,2-.08a.59.59,0,0,0,.64.25l.16-.19a1.46,1.46,0,0,1,.26.72c-1.88-.17-4,0-5.65-.43a5,5,0,0,1-1.43-.12c.08,0,0-.13,0-.23a5.36,5.36,0,0,1,2.19.15.36.36,0,0,0,.33.39c.45.16.88-.39,1.21.14.09,0,.27,0,.31-.11-.15-.49-.95-.5-.67-1.18a3.29,3.29,0,0,0,.17-1.53,2.35,2.35,0,0,1,1.4.53" fill="#fff"/><path d="M267.56,189c-.69.51-1.49-.49-2.42-.23.35-.45.83-.74,1.08-1.15l1.34,1.38" fill="#fff"/><path d="M264.55,188.59c-.12.23-.75.16-.6.66,0,.08.62-.21.41.24a21.86,21.86,0,0,1-4.52-.23c.67.06.68-1,1.41-.63.34-.38,1.2,0,1.79-.07a4.51,4.51,0,0,0,1.51,0" fill="#fff"/><path d="M314.14,186.67v-.18h.22l-.21.19"/><path d="M296.24,188.53c.15.36-.4,0-.49.11.17-.28.37.16.49-.11"/><path d="M311.86,190.29l-.77-.29.89.05-.12.24"/><path d="M303.34,190.69a.24.24,0,0,1-.18-.08c-.13.31-.32,0-.41,0l.59.07"/><path d="M303.65,190.76c0-.22-.22,0-.18-.17l.58.07-.4.1"/><path d="M291.44,194.07l.21,8.73.82,1.21.11,5.5-6,.12.16-5.43,1.5-1.47.7-8.46,1-1.07.87-.14.6,1" fill="#d15b25"/><path d="M296.64,201.66a1.11,1.11,0,0,0-.56-.65c-.83-.6-1.27-1.61-2.18-2-.47-.61-1.37-.93-1.84-1.45l.16-.5c2-.21,4.1-.46,6.19-.72,1.16.1,2.28.05,3.54.23a32.49,32.49,0,0,1,5.18,5.89c-3.11.06-6.14,0-9.06.18l-1.43-1" fill="#ff9120"/><path d="M296.45,202.22c-.63-.57-1.05-1.68-1.91-1.73l.21-.24a22.13,22.13,0,0,0-2.67-2.22c-.05,1.17-.39,4.91,1,5.57.33.39,0,1.77,0,1.77a1,1,0,0,1,.5.07l-.58.29c-.17,1.25.19,2.54-.08,3.85l4.07.07a42.47,42.47,0,0,0,.33-6.75l-.81-.69" fill="#d15b25"/><path d="M287.13,202.9c-.51.65-.91.88-.88,1.7.37.43-.13,1.42.08,2.22-.18.06-.45,0-.58.12.1.26.36.11.59.15l-.09,2.55-2.59.1.17-6.27.87-1.24c1.46-1.46,2-2,3.34-3.52-.14,1.17.14,3.84-.91,4.19" fill="#d15b25"/><path d="M260.14,202.11a9.16,9.16,0,0,1,1.17,2.83c.14.08.2.34.42.25a4.3,4.3,0,0,0-.49-2.18c.09-.21.4-.23.62-.33s.31,0,.41.16c0-.17.34-.46.16-.4.27,0,.73.32.84-.13l0,.1c.82.32,1.31,1.33,1.73,2,.45,0,.16-.59.24-.72-.33-.49-1-1-.64-1.68.4.11.66-.25,1,.06l.13-.15v0c.23.17.94,0,1.17.14a3.27,3.27,0,0,1,1.61-.06,7.07,7.07,0,0,1,.3,4.59l.21.93h-.18c0-.13-.14-.22-.23-.3a18.52,18.52,0,0,1-6.67.87,2.55,2.55,0,0,0-1.3-1.16c-.41-.2-.75.12-1.16.14.3-1.58-.18-3.89-1.69-4.86l-.08.09a1.57,1.57,0,0,0-1.22-.26c0,.44-.49.1-.7.33l-.71.34a3.66,3.66,0,0,1,3.4-1.15,5.87,5.87,0,0,0,1.72.51" fill="#fff"/><path d="M258.45,203.61a6.39,6.39,0,0,1,.52,3.2c-.59-.25-1.19.27-1.87.24s-1.54-.47-2.23-.09c-.32-1.15-.43-3,.75-3.74-.09-.12-.32-.21-.4-.07a2.76,2.76,0,0,0-.76,1.24c-.26-1.11,1.07-1.34,1.67-1.81.86.15,2,.06,2.32,1" fill="#d9d9d9"/><path d="M219.4,211.11a.56.56,0,0,1-.44.31c-.12-.8-1,.35-1.52,0,.2.58.06,1.47.26,2.09.52-.2,1.6-.24,1.38-1.17.06-.37.51-.7.6-1l-.28-.19" fill="#30352d"/><path d="M219.74,210.77c-.34-.7-.11-1.83-.32-2.68s-.25-2-1.21-2.41c-.59-.33-1.3,0-1.87.12l-.39.42c-.23-.39.33-.87.72-1.15,1.29,0,2.6.27,3.85.17l.19.27c.25-.33.71-.13,1,0,.27,1.29,1.3,2.59.87,4.21a.48.48,0,0,0,.41.17,3.19,3.19,0,0,0,0-2.41l-.89-2.16a14.5,14.5,0,0,1,4.23-.47c.43.7-.16,1.75.57,2.12a7.67,7.67,0,0,0-.22-2.31c1.2-.23,2.81-.32,3.26,1.08a10.86,10.86,0,0,1-1.7,5.13l-.77,0a2.24,2.24,0,0,1-.66-.27c-1.94-.51-3.84,2.33-5.53.34a3.86,3.86,0,0,0-1.34-.17h-.22" fill="#fff"/><path d="M227.29,211.41a3.7,3.7,0,0,0-1.5-.15,3.12,3.12,0,0,0-.76,1.05,3.62,3.62,0,0,0,.43,1.95,1.35,1.35,0,0,1,.71-.11c.71-.16,1.48.25,1.81-.48.08-.26-.19-.47-.11-.66s.32.26.36.08l-.33-1.68h-.61" fill="#30352d"/><path d="M218.47,206.48a8.77,8.77,0,0,1,.46,4.14c-.76-.06-1.15.22-1.82.15-.28-1.45-1.77-3.14-.66-4.49.61-.28,1.67-.59,2,.2" fill="#d9d9d9"/><path d="M306.21,203.16a7.08,7.08,0,0,1,1.33-.14,41,41,0,0,1-.14,7.11l.19.13a33.52,33.52,0,0,1-3.81-.26c0-1.29-.19-2.67-.27-3.84a1.73,1.73,0,0,0-1.31-.21c-.53.11-1.75-.12-2.4.35a30.25,30.25,0,0,1-.05,3.54,5.64,5.64,0,0,1-1.92-.11c0-2.14-.43-4.41-.16-6.56,3.23.1,5.4-.17,8.54,0" fill="#d15b25"/><path d="M243.5,206.58a.31.31,0,0,0-.18.09c1.22.36-.13,1.21-.15,1.84l-.47.74c-.23-.4-.57,0-.94-.2-.08-1.06.83-1.9.43-3,.49.11,1.11.09,1.31.53" fill="#d15b25"/><path d="M252.94,206.85c-.17.19-.45,0-.58.2.15.36.5.08.65.38.12,1,.4,2.49-.29,3.23l-.53,0c.2-.67-.74-.91-.64-1.41-.21,0-.23-.34-.33-.56.17-.19-.1-.4-.24-.57-.39.27-.18,1.12-.44,1.3-.85,0-1.64.42-2.4.41,0,0-.78.55-.67-.11-.46-.07-.61.69-.82,1.06v.27h-.35l.26-.19c-.49,0-.33-.31-.61-.56-.24-.52-.82-.68-.44-1.32-.14-.09-.19-.31-.41-.26-.08.28-.12.58-.19.82-.68-.11-.74.6-1.47.41-.67-1.36,1.62-2.34.45-3.64.43-.37,1,.23,1.53.39.15.44.78.55,1.1.77.27-.07.77.15.84-.17l-.13-.18a12.34,12.34,0,0,1,4.19-1.45,4.5,4.5,0,0,1,1.52,1.15" fill="#d15b25"/><path d="M238.54,207.88a23.9,23.9,0,0,0-2.41,1.16,3.09,3.09,0,0,1-2.7-.3c1.76.24,3.35-1.41,5.11-.86" fill="#d15b25"/><path d="M254.32,208l-.3.24c-.23-.18-.25-.58-.35-.89l.53-.16c.06.22.33.53.12.81" fill="#29b110"/><path d="M259.12,207.2c-.52.33,0,1.48-1,1.25a4.5,4.5,0,0,1-2.19,0c.48-.33-.25-.62-.43-.78l-.51.82c-.28-.35.06-.85.27-1.21A5.4,5.4,0,0,0,259,207l.14.16" fill="#30352d"/><path d="M238.8,211.76a1.43,1.43,0,0,0-.35-.39c-.15-.3-.21-.79.18-1,.46.2-.11.5.21.71.25.71,1,.72,1.17,1.44.13-.19.44,0,.57-.21l-.09-.09c-.1-.26-.21-.71.06-.93.26-.06.09.26.23.39-.25-.8.43-1.67-.08-2.37-.58-1-1.56-1-2.58-.75a7.23,7.23,0,0,1-2.86,1.13c-1.11.13-1.95-.68-2.84-.7,1.11,1.13-.91,2.09-.55,3.33.58.12.91-.61,1.59-.37.22-.28.11-.67.37-.91.81.06-.11.63.22.93.54.25.21.89.23,1.47l.93-.21a2.88,2.88,0,0,1,.54-1l.11.53c.7-.34,1.42-.36,2-.7l.91-.35" fill="#d15b25"/><path d="M238,212.53a8.45,8.45,0,0,0-2.05.55c.05,0,.13,0,.09.12.27.08.49-.15.67-.11a12.53,12.53,0,0,0,2.84-.55,1.09,1.09,0,0,1-.42-.34l-1.13.33" fill="#29b110"/><path d="M260.75,207.77v.09c-.22.1-.58-.07-.89-.1.12-.23.74-.34.89,0" fill="#30352d"/><path d="M212.17,210.15c-.72,0-1.51.38-1.92.16-.8.16-2.1,0-2.88.65-.22,0-.55-.34-.72,0l.09,0c-.69.38-1.37-1-2.2-.36-.19.85.91,1.57.09,2.32-.19-.14-.56-.48-.9-.24-.15-.4.59-.79.3-1.26s-.47-.83-.44-1.2a32.89,32.89,0,0,0,3.46.29c1.11-1.12,3-.74,4.48-.93l.64.55" fill="#d15b25"/><path d="M302,206.2h1.12l.14,3.7-2.91-.12,0-3.3c.53-.34,1.16-.09,1.69-.29" fill="#d15b25"/><path d="M261.18,208.64c.29.45-.1.82-.17,1.22a.93.93,0,0,1-1,.44c-.37-.44-1.07-1-.78-1.67-.1-.22-.2-.61.06-.81.56.61,1.3.23,1.86.82" fill="#30352d"/><path d="M195.46,210.59c1.44-.05,3.1.29,4.56-.17.44-.1.63.34,1,.37a13.76,13.76,0,0,1-5.71.3c0-.08-.05-.22-.14-.3a.59.59,0,0,0-.25.59c-.7.33-1.13-.54-1.84-.43.17,1,.25,2.09-.71,2.75-.92-.81,1.24-1.73.22-2.74-.1-.26.08-.21.21-.31a3.88,3.88,0,0,0,2.67-.06" fill="#d15b25"/><path d="M269.09,208.44a5,5,0,0,1-.42,1.86c-.63,0-1.29.17-1.72-.35a1.16,1.16,0,0,1-.26-1.24c0-.22.2-.4.38-.59.44-.15,1.16,0,1.42-.28a1,1,0,0,1,.6.6" fill="#30352d"/><path d="M254.35,208.6c-.09.08,0,.35-.22.32s0-.32.22-.32" fill="#3cff16"/><path d="M266.4,208.32a2,2,0,0,0-.08,1.43l.34.57c-.68-.28-1.47.37-1.55-.61-.16-.79.61-1.77,1.29-1.39" fill="#30352d"/><path d="M258.83,209.42a3.52,3.52,0,0,0-.27-.58c-1.06.58-1.92.07-3-.07l0,.49a1.22,1.22,0,0,0,1.55.83v.18l1.2-.41.5-.44" fill="#30352d"/><path d="M258.53,210.45l1,0a1.19,1.19,0,0,1-.49-.57l-.49.62" fill="#3cff16"/><path d="M264.41,208.71a.48.48,0,0,1,.39-.19,1.9,1.9,0,0,0,0,1.69c-1.07,0-2.27.22-3.34.22a2.77,2.77,0,0,0,.56-1.9,19.29,19.29,0,0,1,2.42.18" fill="#29b110"/><path d="M201.11,215.72a1.73,1.73,0,0,0,1.2-.15c0-1.29.57-2.62-.62-3.6l.08,0a1.67,1.67,0,0,0-1.23-.63,10.12,10.12,0,0,1-4.9.28h.26a.2.2,0,0,1,.1.17l-1.16.08-.14-.21a1.63,1.63,0,0,1-1.22-.36c.15.31,0,.8.44,1a4.73,4.73,0,0,1-1,2.05c0,.4.29.65.44,1,.23,0,.35-.24.48-.24a2.31,2.31,0,0,1-.34-.75,1,1,0,0,1,.61.78c.85.15.67-1,1.29-1.17a3.31,3.31,0,0,0,.33,1.38c.23.35.48,1,1,.59a1.47,1.47,0,0,1,0-1.35,11.83,11.83,0,0,0,3.52-.21c.47,0,.61.37.7.72l.15.69" fill="#d15b25"/><path d="M200.85,215.82a1.86,1.86,0,0,0-.63.11,22.08,22.08,0,0,1-2.82,0l-.12.18c-.5-.16-.12-.71-.22-1.11a15.85,15.85,0,0,0,3.29-.29.68.68,0,0,1,.16.33l.34.77" fill="#29b110"/><path d="M214.54,214.12a5.21,5.21,0,0,0,.3-1.74l1.2-.13a2.27,2.27,0,0,0-.2,1.71c.32.16.06.57.29.78-.34,0-1,.08-1.37.1l-.22-.72" fill="#29b110"/><path d="M211.35,213.17a1.21,1.21,0,0,1,0-.88c.31-.1.19.22.37.29,0,1.22,1.38,1.11,1.21,2.37l1.12,0,.12-.88a6.84,6.84,0,0,0-.17-2.65c-.11-.49-.65-.6-1-.86l-.21.41a.61.61,0,0,1-.42-.39,15.22,15.22,0,0,1-3.48.36c-1,.93-2.84.55-3.93-.08l-.08.22c.1.4.38.47.69.64.46.3-.11.64-.27.91.25.74-1.09.93-.35,1.66.46.3.62-.2.93-.34.09.09.23.12.19.27.38-.61,1.34,0,1.58-.83l.14.17c-.39.47-.14,1.26-.16,1.8l.89,0c.2-.63-.18-1.28.25-1.7l2.59-.42" fill="#d15b25"/><path d="M209,214.13c-.06.39.07.85,0,1.05l3.57-.22-.18-.17c0-.69-.35-.84-.81-1.19l-2.58.53" fill="#29b110"/><path d="M264.19,209v.17c-.63-.06-1.56.12-2-.41a10.24,10.24,0,0,1,2,.24"/><path d="M256,210.63c-.61.33-1.57-.22-2.55-.09.21-.45.82-.65.58-1.35,1.31-.64.8,1.3,2,1.44" fill="#29b110"/><path d="M250.89,210.82a28.15,28.15,0,0,0-3.29.12c-.16-.4.16-.5.37-.69.65.61,1.4-.89,2.18-.21l.79-.34c.1.31-.14.86-.05,1.12" fill="#29b110"/><path d="M244.44,210.35c.26-.32.49-.11.8-.31a1.3,1.3,0,0,1,.25.89l-.12.18c-1.29.27-3,.78-4.57,1.11v-.4l.27.17c.12-.46,0-1,.17-1.4.81.06,1.57-.9,2.18-.21l1,0" fill="#29b110"/><path d="M222.21,212.2a.86.86,0,0,1,.2.57c-.13.18-.5-.07-.48.24s.36.12.58.16c-.73.83-1.42,1.48-2.55,1.12-.27-.22-.54-.17-.64-.56a2.83,2.83,0,0,1,1-2.36c.8-.21,1.23.54,1.87.83" fill="#30352d"/><path d="M224.58,212.42c-.58,0-1.17-.22-1.55.23-.35.15-.23-.26-.33-.39.81.07,1.45-.72,2.3-.79l-.42.95" fill="#30352d"/><path d="M251.69,210.47c0,.05,0,.18.09.23s-.17.09-.26.1v-.32h.18" fill="#d15b25"/><path d="M216.78,212.71h-.18a.93.93,0,0,0,.16-.5c.45,0-.24-.31.21-.32.23.21-.07.63-.19.81" fill="#30352d"/><path d="M204.41,213.26c-.56.38.36,1,.6,1.68.73.33,1.15-.32,1.68-.65,0,.09.18.08.27.08.15.36.06.48.08.89a16.52,16.52,0,0,1-4.24.29c.17-.37,0-.8.14-1.2.14.2.22.07.43-.25.18.09.16-.45.24-.73a1.78,1.78,0,0,1,.8-.11" fill="#29b110"/><path d="M217.62,213.8a1.36,1.36,0,0,0,.8-.16c.27.16.87.55.43.91h-.18c0-.13-.13-.21-.23-.3-.56.42-1.16,0-1.7-.16-.15-.49.24-.77.36-1.13a.72.72,0,0,0,.52.83" fill="#30352d"/><path d="M225,214.19l-3.09.11c1.12-.12.61-1.76,1.92-1.45,1.18-.58.65.87,1.17,1.34" fill="#29b110"/><path d="M228.19,219.12a10.82,10.82,0,0,1-1.09,3.36c-1.32.54-.18,2.23-1.66,2.25-.19-.31-1.16-.15-.83-.78l-.12-1.07c-.45,0-.39.51-.56.74a16.84,16.84,0,0,0,.46-3.28l.1,0,0,0c-.1-.3-.32-.3-.25-.66l.64.29c.13-.22-.15-.52-.42-.61h-.14l-.13-1.38c.49.16,1.13.54,1.37-.19l.12-.4a5.66,5.66,0,0,0,2.48,1.73" fill="#ff660f"/><path d="M234.35,220.28c.05.08.19.08.23.08l.08-.1a2.38,2.38,0,0,1,.48,2.09,2.18,2.18,0,0,1-1.23,1.79c-.22.05-.45,0-.62.11l-.23-.21a.67.67,0,0,1-.88.34c-.55-.2-.69-.59-1.1-.85l-.78.83.17-.18-.09,0c.08-.19.26-.19.29-.51.43-.45,1.23-.53,1.67-.95-.15-.21.2-.5.28-.72s.42-.65.06-.9c-.52.33-.48,1.49-1.24,1.47a.55.55,0,0,0-.4.2l.1.08c-.84.39-1.07,1.47-1.94,2,.13-.09.08-.26.08-.39l-.09-.09a4.15,4.15,0,0,1-1.39,1.16c-.14,0-.32-.12-.33-.29,0-.36.61-.61.58-1.06-.4-.16-.79.21-1,.44-.82-1.44,1.12-2.27,1.2-3.66.72-1,.05-2.33,1-3.12l.43.65c.16-.5.59-.82.84-1.23.91,1.48,3.18,1.31,3.83,3.07" fill="#fff"/><path d="M236.8,218.89c.14,2.42.9,4.89-.32,7a4,4,0,0,1-3.72.86c.09-.1.12-.45.43-.42-.64-.38-1.44-.4-1.57-1.33,0-.09-.05-.27.08-.31.06.44.46.38.65.68.17-.22.4-.1.66-.24l-.27-.26c.49.16.73-.74,1.15-.26.07-.36.31.07.43-.2,1.28-.53,1.36-2,1.45-3.18-.42-.48-.19-1.55-1-1.65a1.79,1.79,0,0,1,.83-1.47c.66-.42,1.21.09,1.24.76" fill="#30352d"/><path d="M277.35,219.09c.06.45-.06.76.44.92.17-.23.09.18.31.08.42.43,1.87-.38,1.42.75-1.7.07-3.32-.24-5,.19,0-.18-.15-.31-.11-.54,1.35.26.65-1.62,2-1.36l1,0" fill="#d9d9d9"/><path d="M249.79,222c.85,1.14,2.19,2.33,1.49,3.88-1.89-.24-4.26-.2-6-.31.08-.23-.14-.26-.24-.4-.17.19-.35.19-.29.47-1.93-.25-4.33.2-6.23-.4a2.85,2.85,0,0,1-1-.14c-.08-.94.24-1.93.21-2.73,2.28,1.29,4.68-.22,6.91-.39l.13-.19v.09c1.83-.11,3.38-.53,5,.12" fill="#fff"/><path d="M278.55,221.28c0,.45-.37.91-.08,1.39-.58.07-1.38.23-1.59.55,0-.14.21-.18.12-.36-.32-.08-.85.11-.9-.19-.19-.09-.26-.89-.74-.6.08-.19,0-.49.15-.82a25.61,25.61,0,0,1,3,0" fill="#ffe2d1"/><path d="M254,223.71a8.14,8.14,0,0,1,.1,2.59,9.45,9.45,0,0,0-2.07-.23,15.26,15.26,0,0,0-.43-2c.39-.46-.48-.84-.27-1.29.86.42,2.19-.08,2.67.93" fill="#fff"/><path d="M231.12,224.65a2.2,2.2,0,0,0,.41,1.46c-.47.51-1.19.49-1.67.86-.1-.39-.31.15-.48.07-.41,0-1.07.17-1.44-.17,0-.27-.42-.47-.29-.71s.48-.06.67.11c.38-.64,1.4-.68,1.87-1.41.14.22.22-.09.4-.1,0-.18,0-.09.21-.24l-.14-.17c.28.22.4-.15.46.3" fill="#30352d"/><path d="M279.38,224.34a6.58,6.58,0,0,1-.67,3.77c-.23-.17-.62.21-.93.12-.12.32-.31,0-.49,0a2.28,2.28,0,0,0,.41-2.11c-.08,0-.22.05-.27-.07-.32.77-.06,2-1,2.22-1.06.39-1.91.29-2.86,1.13l-1.18.86,0-.73h.08c-.17-1.06,1.46-.63,2-1.37a9.51,9.51,0,0,1,2.19-3.61c.61-.51.7-1.72,1.92-1.41l.89,1.18" fill="#d9d9d9"/><path d="M282.16,223.42v.05c5.94-.17,12.87.11,17.87-.17l2.27,0a7.05,7.05,0,0,1-1.38,1.59c-1.34.09-3.71.48-4.94-.09-2.91-.12-5.92.66-8.53.13-2.64-.12-4.79-.05-7.47,0,.16-.59-.26-1-.46-1.41a6.46,6.46,0,0,0,2.64-.11" fill="#d15b25"/><path d="M245,226.14c-.2.68.36,1.24.56,1.86-1.13-.13-2.49-.76-3.66-.94-.09-.08-.18-.22-.31-.11a4.84,4.84,0,0,1-1.22-.32,1.13,1.13,0,0,0-.81-.19c-.37-.16-.77-.15-1.18-.36l-.73-.29a51.3,51.3,0,0,0,7.35.36" fill="#fff"/><path d="M267.48,232.34c-.33-.08-.68.1-1.08-.06,0-.63.31-1.12.29-1.8-.49,0-1.09-.49-1.48,0s-.18.94-.17,1.43c-1.29.06-2.69-.17-4.11-.06a2.46,2.46,0,0,1,.05-1c-.16-.62-.67-.1-1-.14l-.12.19a16.94,16.94,0,0,1-4-.48,3.09,3.09,0,0,0,.8-1.33c-.46-.39-1.11.13-1.62-.34-.29-.48-.13-1.2-.2-1.77,3.9.29,7.73,1.14,11.85,1.43.94.14,1.81.52,2.71.74a4.24,4.24,0,0,0-1.39,2.34c0,.08,0,.18.1.21a1.38,1.38,0,0,0-.23.91l-.37-.28" fill="#d15b25"/><path d="M246.18,229.36c0-.11,0-.21-.15-.25l.09-.1c-.19-.39-.59-.2-.9-.15H245c0-.13-.14-.22-.23-.31-.4.11-.58.29-1,.13-.87-.32-1.76-.46-2.66-.7-1.75-.07-3-1.5-4.79-1.35l.6-.69a33.28,33.28,0,0,0,6.51,2,31.32,31.32,0,0,0,4.39,1.53,89.76,89.76,0,0,0,11.74,2.07c.17-.18.54,0,.57-.37h.13c.19.4-.19,1,.53,1.19.22-.23.33.16.59.06,1.24-.27,2.74.43,3.93,0a4,4,0,0,0,.17-1.62l.57.07c.07.53-.35,1.18-.15,1.75.54.29,1,.09,1.66.34l.73-.17c0-.31,0-.66,0-.89a3.59,3.59,0,0,1,1.6-2.55l-.09-.09c.32.3.71,0,1.17.22a7,7,0,0,0-2,2.4l.23.21a6.44,6.44,0,0,1,2.41-2.5c.15.4-.28.77.12,1.06a15.05,15.05,0,0,0-3.46,4.15c-.38-.65-1.14-.62-1.73-.91,0,.09-.21.23-.08.32-.67-.07-1.59.33-2.14,0l.22-.15c-.73-.15-1.74.11-2.51-.22a16.57,16.57,0,0,0-3.63-.13c-.63-.16-.84-.91-1.34-1.25-.86-.28-1.77-.51-2.76-.92-1.76-.38-3.7-.89-5.28-1.23a12.08,12.08,0,0,0-2.26-.73l-.67-.2" fill="#30352d"/><path d="M246.63,229.89c.14.11.27.23.46.1-.26,0,0,.18-.12.29.76,1.35.74,3.05,1,4.48-.86.92-.49,2.47-1.53,3.4l-.06.9a5.4,5.4,0,0,0-2.1.07c1-1.11,1.1-3.08,1.94-4.5-.35-1-1.23-1.87-1.41-3-.82-.38-.36-1.28-.65-1.86l-.32-.29c-.13.13,0,.39-.07.57a.48.48,0,0,1-.15-.66c.22.26.39-.1.61-.11l.19.39c.19,0,.13-.22.22-.32l-.1-.08a5.52,5.52,0,0,0,.43.74l.25-.68c.17,0,.62,0,.72.29l.67.25" fill="#fff"/><path d="M251.17,226.59c.33.47-.18,1.25-.11,2-.17.22-.28.67-.05.84v.1c-1.63-.53-3.69-.59-4.93-1.53v-.12c.09,0,.13-.1.21-.19l-.18-.13.08-.09a6.8,6.8,0,0,1-.45-1.46c1.7.25,3.59.36,5.43.56" fill="#fff"/><path d="M257,226a33.9,33.9,0,0,1,8.76-.09c2.08-.26,4-.19,6-.53a31.44,31.44,0,0,0,3.78-.32c-1.7,1-3.59,2-5.2,3.18-.42-.74-1.65-.12-2.34-.49-3.26,0-6.95-.69-10.27-1.05-.68-.29-2.28-.1-3.06-.47l.16-.5c.49.12,1.48.08,2.16.28" fill="#d15b25"/><path d="M242.21,228.66l1.31.27a10.94,10.94,0,0,1-2.16.66c0-.09-.05-.14-.06-.18-.22.05-.17.23-.39.28-.19-.35-.39.15-.66.12a2.71,2.71,0,0,0-.72-.07l.21-.27c-.45-.21-1,.17-1.42.05,0-.09-.1-.13-.19-.21-.13.23-.39.24-.62.33s-.54-.25-.8-.06-.57.11-.79.39a1.44,1.44,0,0,1-1,0l.65-.51c-.68-.38-1,.66-1.49.77-1.15.35-.69,1.9-1.19,2.77a5.67,5.67,0,0,1,.91,3l-.56.51-.09-.08-.13.13.09.09-.39.2c-.42-.53,0-1.53-.83-1.67a5.52,5.52,0,0,1,.93-6.29c1.5-.59,3.52-.32,4.68-1.57-.89,0-2,1.06-2.68,0,.35-.28.8-.3,1.14-.54,2.2.27,4.12,1.37,6.24,1.87" fill="#fff"/><path d="M280.8,225.31l-.1-.09a2,2,0,0,0,.91.15,36.16,36.16,0,0,1,6.66.29c.8-.12,1.44.17,2-.21l0,.09a4.6,4.6,0,0,0,1.91-.16v.09c1.52-.1,2.89-.46,4.52.05a18.06,18.06,0,0,0,3.83-.19,79,79,0,0,1-6.33,6.18,70.82,70.82,0,0,1-7.27.63l-.12.18a.19.19,0,0,0,.08-.17c-2.39-.54-4.19.33-6.61.2a.56.56,0,0,0-.63-.15c-.12.22.14.21.24.29H280a.28.28,0,0,0-.18.11c.19.3.4-.15.59.2.09,0,.48-.25.8-.08,1.47-.18,2.37.18,3.6-.4.37.3.48-.33.86.24a10.81,10.81,0,0,0,4.28-.24l.1.07a4.76,4.76,0,0,0,1.5-.32,16.73,16.73,0,0,1,2-.09,22.63,22.63,0,0,1-4.18,3.28l-.67-.26-.27-.22c-2.38.8-4.74-.09-7.13.36.24.65,1,.27,1.44.25v.09c.09.13.22-.06.3-.1a.35.35,0,0,0,.41.11c.09,0,.08-.13.08-.22,0,.14.1.18.19.21l.62-.06-.09.05c.1.13.28.12.33.26.3-.2.67,0,1.06-.22a2.62,2.62,0,0,0,1.43-.06c.18,0,.45.07.57-.11s0-.08-.09-.13.27,0,.31-.1c0,.14.09.18.18.22l1.05.15c-2.14,1.51-4.52,2.89-6.79,4.18-2-.29-4.45.3-6.35-.31-2.19-.14-4.23-.69-6.55-.56-2.49.22-5,.64-7.55,0-1.82.34-3.68-.39-5.22.37,2.35.59,5.18-.19,7.57.26,3.57,0,8.16-.52,11.64.46a18.67,18.67,0,0,0,2.63.08,11.26,11.26,0,0,1-2.71.1,5.89,5.89,0,0,0,4,.08l-.1-.22,1.91.15c-.66.39,2-1-2.44,1.2a68.53,68.53,0,0,1-11.67,4,94.09,94.09,0,0,1-11.42,2.13,63.64,63.64,0,0,1-15.77-.47c-5.88-1.07-9.39-1.72-13.83-3.46s-3.68-1.56-5.59-2.38c-1.19-.54-2-1-3.75-1.91,3.58-1.07,8.52-.5,12.48,0,2.55.18,4.5-.39,6.94.46,1.35.31,2.27-.26,3.53.05a19.63,19.63,0,0,0,3.39-.3c.65.68,1.71.33,2.6.16,1.28-.26,2.83.3,3.85.08-.31.15.28.4-.17.41.14.09.27.08.37.26l0-.68c1.34.23,2.71-.4,4-.14a.14.14,0,0,0,.05.18c.26-.33,1-.09,1.47-.33L256,239c-.49-.11-1.24.05-1.69-.06-.53.23-1.13-.11-1.74.1,0-.36-.26-1,.17-1.35l5.13-.19c-.09,0-.13.05-.13.1,1.5.79,3.62-1.3,4.67.67a8.86,8.86,0,0,0,2.57-.63,24.38,24.38,0,0,0,3.14.2,13.94,13.94,0,0,1,5.37.2c.44,0,1,.18,1.48.17l.13-.15-.05.1a3,3,0,0,0,1.75-.06c.51.6,1.34-.06,1.93.47a6.71,6.71,0,0,0,2.57-.64c.18-.05.36.16.49-.11.43-.24,1.38,0,1.73-.33v-.22l-2.06,0c-.73-1.75-1.07-3.67-2.16-5.28.74-.43.84-1.42,1.22-2l-.52-.93c.18.05.22-.09.35-.18V229c.09,0,.45,0,.44-.29l.09,0c-.46-.39-1.51.28-1.46-.84h.09l.53-2.61c.26,0,.54.29.8.06" fill="#d15b25"/><path d="M233,242.25s-6.32,2.65,7.65,4.57,22.83-.27,24.42-.74c2.5-.74,8.93-4.05,7.21-4.41-3.35-.71-6.92.36-9.28.24s-3.52-1.42-9.7-1a71,71,0,0,0-9.17,1.08,22,22,0,0,1-3.57.65C238,242.79,232.93,242.18,233,242.25Z" stroke="#000" stroke-width="0.15" fill-rule="evenodd" fill="url(#d)"/><path d="M234,227.35a3.08,3.08,0,0,0,.3.66c-.54.07-1.39.05-1.77.52-.7.65-.66,1.45-1.79,1.27-.17.28-.48.11-.66.2-.71,1.37-3.24,1.82-2.41,3.8-.44,1.22,1.28,2,.84,3.32-.43.37-1,.13-1.43,0-.62-1-1.9-1.72-1.58-3a3.12,3.12,0,0,0,.26-1.13c.5.17.06,1.47.8,1,0-1-1-1.62-.5-2.66l.91-.83.09.08.17-.19-.09,0a7.25,7.25,0,0,1,2.43-1.79c.08-.31-.28-.3-.28-.66.66,0,1.23-.3,1.9-.38.12-.18.53-.15.75-.16a1.5,1.5,0,0,1,1.21.09l.85,0" fill="#ff660f"/><path d="M253.09,226.65a3.13,3.13,0,0,0,1.13.27c.16.66,0,1.07.33,1.69-.26.1-.37-.3-.58-.07.59.38.94,1.39,1.56,1.14-.1-.13-.15-.34-.33-.43.27,0,.51.38.81.11-.47,1.93-1.87.33-3.2.52l-1.31-.27c.47-.82.2-2,.47-3,.36,0,.73.28,1.12,0" fill="#fff"/><path d="M275,226c-.6.79-.54,2.27-1.88,2.4-.76-.15-1.17.89-1.83.15l-.18-.17c.65-.55,2.44-1.56,3.53-2.36l.36,0" fill="#d9d9d9"/><path d="M227.54,229.38l.13-.18v.17c-1.08,1-2.65,2-2.27,3.72a5.11,5.11,0,0,0-.33,2.15c.58,1,1.63,1.73,1.9,2.83.68.21,1.19-.35,1.81-.56.54-.86-.09-2.36-.75-3.23.29-.68,0-1.3.15-2l1.56-1.26c1.52,1.2.89,3.54,2.06,5,.06.45.62,1.1.2,1.7l.22,1.1a89.11,89.11,0,0,1-11.3-.88c-1.43.1-2.95.62-4.46.85a57.13,57.13,0,0,1-5.32-3.33,86.74,86.74,0,0,1,12.72-.35l.19.4c.35-.11.34-.5.28-.82-1.22-.35-3-.06-4.25-.34-1.25.1-2.51,0-3.63.06l-.17.17c-.32-.25-.89-.13-1.29,0l-.14-.13a4.31,4.31,0,0,0-1.19.44l-2.81.24-2.23-1.53c.7-.24,2.33-.57,2.8-.23a11,11,0,0,1,2.81.12l.17-.19v.09a53.57,53.57,0,0,0,7.73,0c.33.44.8-.16,1.12.15a4.09,4.09,0,0,0,1,.05c0,.13.1.3-.07.39l.18.13c0-.31.56-.64.15-.94-4.05-.51-8.45,0-12.27-.44l-3.94.59c-1.25-1-2.73-2.09-3.85-3.2,6.85-1,15.28-.39,21.93-.63l1.11-.05" fill="#d15b25"/><path d="M287.08,227.09v.09a1,1,0,0,1,.95.37c.12-.37.4,0,.58,0,.19.22.62-.15.94.1,2.07.28,3.88-.41,6-.27,0,.05,0,.19.05.23a.72.72,0,0,1,.75-.25s0,.18.06.22c.17-.19.57-.11.79-.2.15.3-.11.53-.29.4s-.72,0-1.21-.08c-1.34.09-2.48-.4-3.84.26,0,0,0-.08-.09-.12s-.13.05-.17.09c.12,0-.45.06-.63-.06a1,1,0,0,1-.89.12.34.34,0,0,0-.54,0,14,14,0,0,0-4.22-.6c.09,0,.13,0,.18,0s-.18-.08-.28-.08c-.12.27-.7.29-1.1.26l-.1-.08a2,2,0,0,1-1.42,0,1.65,1.65,0,0,1-.8.07.25.25,0,0,0-.1-.22c-.13.23-.17.09-.48.24,0,0,.09,0,.08-.14a1.75,1.75,0,0,1-.88.17c0-.09-.1-.13-.15-.21l-.08.21s0-.18-.09-.21a7.67,7.67,0,0,1,2.81,0,20.76,20.76,0,0,1,4.19-.25"/><path d="M260,229.07s.05.1.09.14c0-.33.19.07.31-.16.19.14.58,0,.89,0a5.89,5.89,0,0,0,2.33,0v.09c.36.17,1.24-.4,1.3.18-2.53.32-4.65-.19-7.23.13l.48-.33v0c.54,0,1-.39,1.61-.06l.22-.05"/><path d="M216.06,230.93a6,6,0,0,1,2.19,0c2.46-.06,4.6-.09,7.15-.05.11.45-.43.47-.46.83.15-.85-.77-.24-1.13-.5-1.38.05-2,0-3.35,0a111,111,0,0,0-12.87.16c.21-.37.63,0,.84-.22a34,34,0,0,1,7.63-.27"/><path d="M231.5,230.13a3.52,3.52,0,0,0-.66,1.46c.11-.49-1.16-1-.05-1.38.31,0,.35-.06.71-.08" fill="#ff660f"/><path d="M237.93,230c.2,1.87.53,3.5.6,5.29a10.92,10.92,0,0,1,.31,3.61c-.56.42-1.61,0-2.18.17.2-.49.16-.45.6-.69.09.17.22,0,.35-.06l-.19-.17-.07.09a2.73,2.73,0,0,0,.19-1.92,1.37,1.37,0,0,0,0-1.17,9.5,9.5,0,0,1-.45-1.5,9.81,9.81,0,0,1-.82-2.79c.08-.09.16-.31.06-.4.59.07.64-1.05,1.28-.44h.32" fill="#fff"/><path d="M243.24,229.7c.19.48.78.68.67,1.23-.08.35.56.6.12.79-1.79.07-3.56.54-5.21.46.74.69,2,.25,2.82.3a22,22,0,0,0,2.8-.41l1.39,2.58c-.69.69-.39,2.65-1.93,2.08l-4.33.16-.17.18.18.13c1.82-.37,3.45.14,5.22-.32a3.39,3.39,0,0,1-1.08,2.27c-1.25-.09-3.24.43-4.46.08-.31-.88,1.12-1,.38-1.76-.46-.17-.12-.71-.35-1a23,23,0,0,1-.38-6.51c.28.12.64.33,1,.14,0,.09,0,.14.09.13s.09,0,.09-.13l.14.13a.36.36,0,0,1,.39-.16c-.07.45.25.75.4,1.1v-.8h.09v-.31a9.26,9.26,0,0,0,2.17-.39" fill="#d15b25"/><path d="M279.69,230.36c-.12.35-.82.74-.76,1.14l.48-.29c-.44.38-.9,1-.35,1.49,1.08,1.39,1.05,3,1.78,4.59l-2.5.09a10,10,0,0,0-1.72-3.07l-.22.11a5.5,5.5,0,0,0,.93-2.64c-.64.87-.86,2-1.59,3-.1,1,.08,2.14-.11,3a9.59,9.59,0,0,1-2.42-.18c.73-1,.09-2.41.35-3.71A22.85,22.85,0,0,0,275.7,229l-.09-.08c1-.49,2.16.27,3.11-.52.16.71,1.34,1,1,1.93" fill="#d9d9d9"/><path d="M293.19,229.19c0,.75.45.07.73.37,0-.36.49.07.53-.11h.09v.28h-.09c0-.1,0-.23,0-.28a2.43,2.43,0,0,1-1.87.34,5.56,5.56,0,0,0-2.64-.21c-.63,0-.95-.33-1.53-.13,0-.08-.05-.12-.1-.17a.25.25,0,0,0-.08.18,6.87,6.87,0,0,0-1.92-.15.26.26,0,0,0-.09-.18c-.71.43-1.44-.12-2.11,0a11.69,11.69,0,0,1-2.82-.11l-.14-.18-.09.1.13-.23c3.77.31,8.69.44,12,.49"/><path d="M234.55,230.55c-.16.5.37.12.38.39l.21-.23.09.09c.09-.05,0-.22.13-.19h.26c.76,2.33.29,4.14,1.14,6.39a3,3,0,0,1-.6,1.95l-1.44-.09c.27-1.26-.5-2.8.27-3.63-.47-.61-.63-1.45-1.37-2,.2-.85-.35-2.45.93-2.72" fill="#d15b25"/><path d="M251.66,231.44c.1,1.38,2.37,2.28.76,3.69-.37.9.3,2.08-.42,2.91l.12.89c-.79.39-1.61,0-2.5.18-.15-.53.45-1.13.56-1.71a18.74,18.74,0,0,1,.36-3.5c-.35-.93-2-1.23-1.51-2.18-.29-.49-.39.23-.75,0a6.64,6.64,0,0,0-1-1.58c1.39.26,3.12.92,4.38,1.27" fill="#fff"/><path d="M275.08,229.14c-.36,2.25-2.44,3.84-2.13,6.34a3.31,3.31,0,0,1-.23,2.1c-.19-.29-.82-.28-1.13-.26,0-.31-.41-.08-.5-.16-1.43-.17-2.34.57-4,.14.72-.78,1.05-1.78,2-2.22.88-2.8,3.85-4.65,6-5.94" fill="#d15b25"/><path d="M251.27,231.86c-.12.19-.37-.31-.51-.43.46,0,.07.39.51.43"/><path d="M252.87,231.57l-.21.32c.24.44.17-.14.45-.1a12.24,12.24,0,0,0,3.6.93c.49,0,.85,1.23,1.66,1.28v.09c1,.27,1.92-.12,3,.07.64.25,1.08.09,1.81.43a.82.82,0,0,1-.66.25c-.21.49-.79.56-1.17.93l-.1-.08c-.79.29-1.17,2.1-2.26,1.6l-.22.1c-.1-.32-.58,0-.81-.2-1.88-.15-3.35.21-5.22.2.32-.82-.16-1.61.31-2.38l.38-.65.32.31a.21.21,0,0,0-.08.18,1.46,1.46,0,0,0,1.52,0,2.38,2.38,0,0,0,1.56-.14v.08c.79-.43,2.22.68,2.85-.19-.72-.38-1.24.13-1.93-.33-1.36-.44-4.14,1.67-4.78-1.12a3.57,3.57,0,0,1-.54-1.41l-.33-.34a1.9,1.9,0,0,0,.81.14" fill="#d15b25"/><path d="M250.16,234.4c-.34,1.57-.27,3.46-1,4.77-.49.16-.85-.14-1.38,0a2.29,2.29,0,0,0-.86-.15c-.44-1.05,1-1.29.72-2.21a4.53,4.53,0,0,1,.95-2.19l-.4-2.26.33.35,0-.49c.35.88,1.84,1.18,1.69,2.17" fill="#d15b25"/><path d="M232.61,233.71l.13-.27h.18l-.31.28"/><path d="M231,234.58a.21.21,0,0,1-.09.13,2,2,0,0,1,.54,1.19v.27l-.09-.09-.21.41c-.11-.66-.23-1.37-.34-1.9H231"/><path d="M245.15,234.09c-.3.55-1.24.45-1.82.48-1.38.19-2.61-.5-3.93.14l-.09,0c1.62-1,3.9.17,5.79-.62l.05,0"/><path d="M267.88,235a22.14,22.14,0,0,0-1,2.23c-.13,0-.32-.08-.4.06v0a8.94,8.94,0,0,0-3.91.59,2.35,2.35,0,0,0-2.05-.78,7.16,7.16,0,0,1,2.79-2l.18-.15c.42.52.88-.39,1.42-.32a13.47,13.47,0,0,1,3,.38" fill="#d9d9d9"/><path d="M277.71,237.31c-.28.77-1.06.36-1.5.42a14.61,14.61,0,0,0,0-3.18,10.81,10.81,0,0,1,1.48,2.76" fill="#d15b25"/><path d="M225.49,236.84c-3.12.3-6.84-.1-10.53.56l-.18-.16a28.89,28.89,0,0,1,6.51-.38c1.17.13,2.81-.15,4.2,0"/><path d="M234.31,238.52c-.45-.2-1.24.18-1.6.06a5.1,5.1,0,0,1-.23-1.2c.41,0,.75-.34,1.11-.17.31-.1.26-.46.47-.69a9.28,9.28,0,0,1,.25,2" fill="#ff660f"/><path d="M231.84,237a8.45,8.45,0,0,1-2.4.21V237h2.41"/><path d="M222.21,237.54c-.17.18-.71.2-1.11.21,0,0-.14-.07-.1-.17a2.26,2.26,0,0,1,1.21,0"/><path d="M249.24,237.33a4.92,4.92,0,0,1-1.2.14v-.17a7,7,0,0,1,1.21,0"/><path d="M254,239.57c-.22,0,0,.23-.17.19v-.17H254"/><path d="M249.47,239.84c-.14-.05-.13.09-.22.14l.09.08c-.08,0-.22.05-.27-.07.18,0,.22-.24.4-.15"/><path d="M277.29,241.53c-.67-.11-1.1.67-1.81.56-.36.1.3-.19.48-.29.09.14.35-.19.44-.06l.17-.18c.27-.06.75-.25.71,0"/><path d="M204.34,139.58l-2.05-5.9,1.5-1.27,5.51,2.91-1.38,1.18-1-.6-1.79,1.52.45,1.11Zm1.52-4.28L203.73,134h0l1,2.35,1.18-1" fill="#fff"/><path d="M208.16,128.9c1.58-1.22,3.08-1.4,4.38.3s.72,3.1-.86,4.31l-2,1.49-3.53-4.61Zm2.16,4.23.6-.45a1.78,1.78,0,0,0-2.15-2.84l-.6.47,2.15,2.82" fill="#fff"/><path d="M216.77,129.75l-1.14-6.13,1.66-1,5,3.7-1.55,1-.92-.76-2,1.25.28,1.16Zm2.14-4-1.9-1.65h0l.61,2.47,1.31-.83" fill="#fff"/><path d="M223.67,121a.58.58,0,0,0-.42-.36.9.9,0,0,0-.63.11.65.65,0,0,0-.38.79c.19.38.71.27,1.14.17,1-.2,2.29-.76,3,.63.55,1.1-.27,2.15-1.47,2.76s-2.44.79-3.17-.6l1.43-.73a.85.85,0,0,0,1.25.32c.33-.17.67-.55.49-.9-.35-.7-1.34,0-2.71.06a1.46,1.46,0,0,1-1.42-.86c-.57-1.26.34-2.14,1.42-2.69s2.36-.71,2.91.57l-1.44.73" fill="#fff"/><path d="M227.5,118.7l-1.68.59-.37-1.05,4.9-1.75.37,1.07-1.71.6,1.56,4.41-1.51.54-1.56-4.41" fill="#fff"/><path d="M234.51,121l-1.57.34-1.23-5.67,2.62-.57c1-.2,2.26-.21,2.52,1a1.46,1.46,0,0,1-1.14,1.7v0c1-.2,1.31.28,1.6,1.13a7,7,0,0,0,.56,1.32l-1.7.37a10.21,10.21,0,0,1-.44-1.16c-.21-.67-.3-1-1.1-.77l-.59.12Zm-.1-3.4c.51-.1,1-.28.85-.87s-.63-.54-1.13-.44l-.61.14.28,1.3.61-.13" fill="#fff"/><path d="M238.16,120.27l1.41-6.07,1.93-.3,3.13,5.4-1.8.26-.55-1-2.32.34-.21,1.18Zm3.57-2.82-1.09-2.27h0l-.42,2.51,1.54-.24" fill="#fff"/><path d="M247.29,118.88l-.09-5.8,2.67,0c1.42,0,2.36.43,2.38,1.83s-.9,1.89-2.32,1.91l-1.06,0,0,2.06Zm2.39-3.24c.63,0,.89-.32.89-.75s-.28-.7-.92-.73l-.82,0,0,1.47h.83" fill="#fff"/><path d="M253,118.61l.11-5.8,4.42.07,0,1.12-2.81,0,0,1.19,2.59,0,0,1.13-2.59,0,0,1.24,2.81,0,0,1.12L253,118.6" fill="#fff"/><path d="M260.12,119.17l-1.57-.35,1.28-5.66,2.62.59c.95.22,2.14.76,1.86,2a1.46,1.46,0,0,1-1.76,1.06v0c1,.24,1.07.79,1,1.7a7.58,7.58,0,0,0,0,1.43l-1.7-.39a10.36,10.36,0,0,1,.1-1.24c.09-.69.12-1-.68-1.17l-.58-.13-.49,2.16Zm1.35-3.12c.5.12,1,.15,1.13-.42s-.34-.77-.84-.87l-.61-.15-.3,1.3.62.14" fill="#fff"/><path d="M266.28,120.84l4-4.75,1.86.64.29,6.23-1.72-.58v-1.21l-2.23-.75-.72,1-1.52-.52Zm4.47-.85.07-2.52h0l-1.52,2,1.47.51" fill="#fff"/><path d="M277.56,120.64a.6.6,0,0,0,0-.55.91.91,0,0,0-.49-.42.64.64,0,0,0-.85.21c-.17.38.25.72.59,1,.79.63,2,1.28,1.41,2.71-.49,1.12-1.83,1.17-3.06.63s-2.16-1.39-1.55-2.84l1.47.65a.84.84,0,0,0,.55,1.16c.34.15.85.16,1-.19.32-.72-.84-1-1.77-2.06a1.45,1.45,0,0,1-.23-1.64c.61-1.24,1.87-1.1,3-.62s2.05,1.38,1.39,2.62l-1.47-.65" fill="#fff"/><path d="M278.11,125.61l3.13-4.88,2.25,1.43c1.19.76,1.73,1.65,1,2.84s-1.79,1.07-3,.3l-.9-.57-1.11,1.75Zm3.78-1.38c.54.32.93.22,1.16-.14s.16-.75-.36-1.11l-.7-.44-.8,1.24.7.45" fill="#fff"/><path d="M282.66,128.67l3.48-4.64,3.54,2.66-.68.9-2.25-1.7-.72,1,2.07,1.55-.68.9-2.06-1.55-.74,1,2.25,1.69-.68.9-3.53-2.66" fill="#fff"/><path d="M288.4,132.84l-1.18-1.09,3.92-4.27,2,1.81c.71.68,1.47,1.72.64,2.63a1.46,1.46,0,0,1-2.05,0l0,0c.74.71.53,1.23,0,2a7,7,0,0,0-.76,1.21L289.64,134a11.64,11.64,0,0,1,.71-1c.42-.56.6-.79,0-1.34l-.44-.42-1.5,1.64Zm2.72-2c.38.35.8.64,1.2.2s.08-.83-.29-1.18l-.47-.42-.9,1,.46.42" fill="#fff"/><path d="M291.1,135.42l5.68-2.58,1.41,1.35L295.81,140l-1.31-1.26.51-1.08-1.7-1.65-1.06.56Zm4.41,1.11,1.14-2.25h0l-2.24,1.18,1.12,1.08" fill="#fff"/><path d="M250.61,126l.64,1.83,1.93,0L251.64,129l.56,1.86-1.59-1.11L249,130.9l.57-1.86L248,127.88l1.93,0,.64-1.83" fill="#fff"/><path d="M244.26,126.21l.91,1.7,1.92-.26L245.74,129l.85,1.74-1.74-.84-1.4,1.34.26-1.92-1.7-.91,1.9-.34.35-1.9" fill="#fff"/><path d="M238.4,127.46l1,1.66,1.91-.33L240,130.23l.91,1.72-1.77-.78-1.34,1.39.19-1.93-1.74-.84,1.89-.42.26-1.91" fill="#fff"/><path d="M232.35,129.19l1.18,1.54,1.84-.56-1.09,1.58,1.11,1.59-1.86-.56-1.16,1.56-.05-2-1.83-.62,1.83-.65,0-1.93" fill="#fff"/><path d="M226,132.3l1.48,1.26,1.68-.95-.73,1.79,1.41,1.31-1.93-.15-.81,1.75-.45-1.88-1.92-.22,1.65-1-.38-1.9" fill="#fff"/><path d="M220.91,135.22l1.61,1.07,1.56-1.13-.52,1.86,1.56,1.14-1.94.07-.6,1.84-.67-1.82H220l1.52-1.2-.59-1.83" fill="#fff"/><path d="M216,139.67l1.72.89,1.43-1.3-.32,1.92,1.68.95-1.92.29-.4,1.9-.86-1.74-1.92.21,1.38-1.36-.79-1.76" fill="#fff"/><path d="M210.65,144.7l1.89.46,1.07-1.6.15,1.93,1.86.52-1.79.74.07,1.94-1.25-1.48-1.82.67,1-1.65-1.19-1.53" fill="#fff"/><path d="M247.24,134l.65,1.82,1.94,0L248.3,137l.57,1.84-1.59-1.09-1.58,1.12.54-1.85-1.55-1.16,1.93-.06.62-1.83" fill="#fff"/><path d="M240.05,134.79l1,1.67,1.9-.33-1.28,1.45.91,1.7-1.78-.77-1.34,1.39.19-1.93-1.74-.84,1.89-.42.27-1.92" fill="#fff"/><path d="M233.62,136.76l1.32,1.4,1.79-.75-.94,1.7,1.26,1.47-1.89-.37-1,1.65-.23-1.91-1.89-.44,1.75-.83-.16-1.92" fill="#fff"/><path d="M227.43,139.63l1.47,1.26,1.69-.94-.74,1.79,1.42,1.32-1.93-.16-.81,1.76-.45-1.88-1.92-.23,1.65-1-.38-1.91" fill="#fff"/><path d="M222.62,143.37l1.6,1.08,1.57-1.14-.52,1.87,1.56,1.14-1.94.07-.6,1.84-.67-1.82h-1.93l1.52-1.19-.59-1.84" fill="#fff"/><path d="M218.22,147.68l1.8.7,1.28-1.44-.11,1.92,1.78.78-1.87.49-.19,1.92-1-1.63-1.89.43,1.23-1.5-1-1.67" fill="#fff"/><path d="M243.57,142.7l1.13,1.57,1.87-.53-1.14,1.57,1.07,1.61-1.84-.6-1.2,1.51V145.9l-1.81-.68,1.84-.59.08-1.93" fill="#fff"/><path d="M236.56,145.1l1.33,1.4,1.78-.74-.93,1.69,1.27,1.47-1.91-.37-1,1.66-.25-1.92-1.88-.44,1.75-.82-.17-1.93" fill="#fff"/><path d="M229.94,148.2l1.53,1.18,1.64-1-.66,1.82,1.48,1.24-1.93-.06-.73,1.79-.54-1.85-1.93-.15,1.6-1.08-.46-1.88" fill="#fff"/><path d="M257,126.35l-.91,1.7-1.92-.26,1.34,1.39-.84,1.75,1.74-.85,1.4,1.34-.27-1.91,1.71-.92-1.91-.34-.34-1.9" fill="#fff"/><path d="M262.87,127.6l-1,1.67-1.91-.34,1.29,1.45-.92,1.7,1.78-.77,1.34,1.39-.19-1.92,1.74-.85-1.89-.42-.27-1.91" fill="#fff"/><path d="M268.93,129.33l-1.18,1.54-1.85-.57,1.1,1.59-1.11,1.59,1.85-.55,1.17,1.54,0-1.93,1.83-.63-1.82-.64,0-1.93" fill="#fff"/><path d="M275.27,132.44l-1.47,1.25-1.69-.94.74,1.79-1.42,1.31,1.92-.15.82,1.76.45-1.88,1.92-.23-1.65-1,.38-1.89" fill="#fff"/><path d="M280.37,135.35l-1.6,1.08-1.57-1.14.52,1.86-1.56,1.15,1.93.07.61,1.83.66-1.81h1.94l-1.52-1.19.59-1.84" fill="#fff"/><path d="M285.27,139.8l-1.71.9-1.44-1.3.32,1.91-1.68,1,1.92.28.4,1.9.86-1.74,1.92.21-1.38-1.36.79-1.77" fill="#fff"/><path d="M290.62,144.84l-1.87.45-1.08-1.6-.15,1.93-1.86.54,1.79.73-.08,1.93,1.26-1.47,1.82.66-1-1.64,1.19-1.53" fill="#fff"/><path d="M254,134.13l-.65,1.82-1.93,0,1.53,1.18L252.4,139l1.6-1.09,1.58,1.12-.54-1.86,1.55-1.15-1.94-.05-.62-1.84" fill="#fff"/><path d="M261.23,134.93l-1,1.68-1.9-.34,1.28,1.44-.9,1.71,1.76-.77,1.35,1.38-.19-1.92,1.74-.85-1.89-.41-.27-1.92" fill="#fff"/><path d="M267.66,136.89l-1.32,1.42-1.78-.76.93,1.69-1.27,1.47,1.9-.36,1,1.66.25-1.92,1.88-.45-1.75-.82.16-1.93" fill="#fff"/><path d="M273.85,139.78,272.37,141l-1.69-.94.75,1.79L270,143.19l1.93-.15.81,1.76.45-1.89,1.92-.23-1.65-1,.38-1.9" fill="#fff"/><path d="M278.66,143.52l-1.61,1.07-1.57-1.14.53,1.87-1.56,1.14,1.94.07.6,1.84.67-1.82h1.93l-1.52-1.2.59-1.84" fill="#fff"/><path d="M283.06,147.82l-1.8.7L280,147.07l.1,1.93-1.77.77,1.87.5.19,1.93,1.05-1.63,1.89.41-1.23-1.49,1-1.67" fill="#fff"/><path d="M257.71,142.83l-1.14,1.57-1.86-.51,1.14,1.55-1.07,1.62,1.84-.6,1.2,1.52v-1.93l1.81-.68-1.84-.59-.08-1.95" fill="#fff"/><path d="M264.71,145.23l-1.32,1.42-1.79-.75.94,1.69-1.26,1.46,1.89-.36,1,1.66.24-1.92,1.88-.44-1.75-.82.16-1.93" fill="#fff"/><path d="M271.34,148.33l-1.53,1.19-1.64-1,.66,1.82-1.48,1.25,1.93-.06.73,1.8.54-1.87,1.93-.13-1.6-1.09.46-1.89" fill="#fff"/><path d="M250.65,142.15l.63,1.82,1.93,0-1.53,1.17.55,1.85-1.58-1.1-1.59,1.1.56-1.85L248.08,144l1.93,0,.63-1.82" fill="#fff"/><path d="M241.15,185a25.22,25.22,0,0,1,3.63.89c.83.39,3.24,1.39,3.9,1.62s5,1.73,6,2.12,5.13,1.84,6.81,2.41,9,2.72,10.71,2.95,11.9,1.67,12.57,1.67,3.57.45,3.57.45v-2.4l.61-1.46.79-.43,1.72-.07.6,1.3.13,2.56,6.48-.79,3.51.23,5.92,6.25,6,1s2.5-6.82,2.94-10.31c.4-3.09,1.17-7.58,1.17-7.58l-34.95-.35s-.17.73.17,1a6,6,0,0,0,3,.05,9.4,9.4,0,0,1,1.95-.33s-.05.22-.39,1.23a5.42,5.42,0,0,1-1.17,2.07,2.45,2.45,0,0,0-.5.94l.22.5,1.56-.17.9.11-4,.56-2.85-.22-18.92-.45-2-.44-3.35-.39.45-.34,1.67-.39.39-.82a.54.54,0,0,1,.39-.85c.78-.22,5.41-.33,5.41-.33l1.73-.28a5.2,5.2,0,0,1,1.85.22c.22.17.28-.05.55-.22a10.67,10.67,0,0,1,2.79-.39,4.35,4.35,0,0,1,1.4.73l2.23-.84-.16-1.06-35.46,0" fill="url(#e)"/><path d="M255.22,186.25c.13.05.31-.06.4.08-.3.32-.67.11-1,.35-1.15.49-2.05-1.09-3.09,0a3.54,3.54,0,0,1-1.83-.11c.93,0,2,.28,2.88-.41.94,0,1.69.86,2.65.11"/><path d="M258.26,187.62c-.69.69-1.85-.56-2.76.23l-2.45.18a.88.88,0,0,1,.79-.25c1.41.62,2.42-1.16,3.62-.13l.8,0"/><path d="M293.85,186.61c1.63.57,3-1.23,4.63-.35,1,.1,2.61.44,3.56-.44.13,0,.35-.06.44.07l.09-.09c-.34.33-.71.24-1.09.61-.09,0-.28-.07-.31.11s-.53.06-.71.25c-.23-.36-.57.06-.89-.15-1.87-1-3.56.58-5.63.17-.59-.21-.91-.55-1.41-.76a3.63,3.63,0,0,1,1.32.58"/><path d="M312.28,187.05c.54.07,1-.35,1.59-.47l-.13.19c-.41-.17-.74.52-1.15.26l0,.1c0,.22,0-.1-.09-.09a.8.8,0,0,1-.72.11c-.23-.29-.39,0-.67-.19s-.67-.07-.91-.46c-.16.41-.63-.11-.93.16-.72.08-1.67.7-2.31.49-.14,0-.35.24-.49,0,1.17.27,2.9-1.18,4.31-.6.55.11,1.23.57,1.54.47"/><path d="M310.83,193.8c-.09,0-.08.32-.31.24l-.09-.09c-.21.37-.54,0-.8,0a1.92,1.92,0,0,1-1.54-.34,5.69,5.69,0,0,0,2.74.16"/><path d="M301.46,188.12a.27.27,0,0,0,.08-.18,2.63,2.63,0,0,0,1.21.13s.05.08.09.13l.13-.14s.13,0,.09.12c-.88.18-2.11-.22-2.9.2l.1.09a2.1,2.1,0,0,1-1.82.39c-.28-.39-.72-.2-1.09-.29l-.23-.25c-.09,0-.07.18-.07.27-.05-.13-.23-.08-.32-.07l-.17.18c-.23-.08-.05-.17,0-.27,1.29-.31,2.67.84,3.79-.23.3-.36.84-.21,1.11-.08"/><path d="M309.34,189.84c.48-.2,1,.09,1.52,0,0,.4-.27,0-.49.19l-.13-.18a6.17,6.17,0,0,0-3.07.7,2.84,2.84,0,0,1-2.4.18c1.49.3,2.92-.73,4.39-1.05l.18.17"/><path d="M229.81,221.6c-.15,0-.28-.19-.28-.43s.13-.43.28-.43.29.19.29.43-.13.43-.29.43"/><path d="M225.78,221c-.15,0-.28-.18-.28-.42s.13-.43.28-.43.29.19.29.43-.13.42-.29.42"/><path d="M318.76,179.17a68.56,68.56,0,1,1-68.55-68.56A68.55,68.55,0,0,1,318.76,179.17Z" fill="none" stroke="#000" stroke-linejoin="bevel" stroke-width="0.37"/><path d="M189.9,198.16l.12.11.11.23v.79l.11.12v.22l.12.12v.11l.11.11v.12h.11l.12.11v.11l.11.12h.11l.23.22h.34v-.11h.11l.12-.11v-.57l.11-.11v-.12h.46l.11.12h.11l.34.34v1.59l.11.11h.23v-1.36l.11-.12h.57l.46.46v.11h.11l.23.23h.11l.11.11h.34l.12-.11v-.23l-.12-.11h-.34l-.22-.12-.23-.22v-.12l-.11-.22-.12-.12v-.11h.12l.22-.11h.23l.11-.12H195l.22-.11h.12l.22-.11.12-.12h.11l.23-.11h.34l.11-.11h.57l.11.11h.12l.22.23v.34l-.22.45-.12.12v.11l.23.23h.34l.11-.12v-1.25l.23-.23h.45l.23.12h.11l.34.34h.12v.11l.22.23V200l.23.23v.11l.34.34h.11l.12.11h.11l.11-.11v-.23l-.11-.11h-.11l-.12-.11-.11-.23-.11-.11v-.23l-.69-.68v-.34l.12-.34v-1.14l-.23-.45-.11-.12-.12-.22-.22-.12h-.12l-.22-.11h-2.62l-.11-.11-1.37-.46-.22-.22H194l-.22-.23h-.12l-.11-.11h-.23l-.11-.12h-.91l-.11.12h-.23l-.11.11v.11l-.11.23-.12.11-.22.46-.12.34-1.13.57-.23.22h-.46l-.22.12H189v.11l-.11.11.11.12v.11l.11.11h.12l.68.34" fill="#7d3627" stroke="#000" stroke-width="0.16"/><path d="M205.73,194.18v.22h-.23l-.8.12-.11.11h-.11v.11h-.12l-.11.12h-.11L204,195h-.11l-.11.11h-.46l-.22.12-.12.11v.11l.12.11v.12l.79.79.23.34.11.46.23.34v.22l.11.34v.23l.11.11v.12h.57v-.12h.12l.11-.11v-.11h.11v-.12l.12-.11v-.23l.11-.11v-.11l.11-.12h.57l.11.12v.22l.12.12v.57h-.12v.34h-.11v.11l-.11.11v.12l-.12.11v.34l.23.23h.11l.23-.23v-.23l.23-.45.45-.46.23.12h.11l.23.22v.11l.11.12v.22l.11.12v.11l.12.11v.12l.68.68h.45v-.34l-.11-.11v-.12h-.11v-.11l-.12-.11h-.11v-.12l-.11-.11v-.11h-.12v-.23l-.11-.11v-.46h.11v-.11l.12-.11h.11l.11-.12h.8l.11-.11h.12l.11-.11h.11l.12-.12h.11l.45-.45v-.12l.23-.22v-.12h.11l.12-.11H212l.22.23h.12v.11h.11l.11.11v.34l-.11.23-.11.11v.23l-.12.11v.12l-.11.22v.91h.23l.22-.22v-.46l.12-.11v-.23l.11-.11v-.11l.11-.12V198h.23l.11-.11h.46l.11.11h.12l.11.11h.22l.46.46.11.22.12.12v.11l.11.23h.11l.12.11h.22v-.34l-.11-.23-.11-.11v-.11l-.12-.12-.11-.22-.23-.23-.22-.11-.12-.23-.11-.11v-.12l-.11-.11-.12-.23V197l-.11-.11v-.46l.11-.11v-.23l.12-.11h.68l.23.23.11.22.22.23h.23v-.11h.11v-.23h-.11l-.23-.23-.11-.34-.11-.11-.23-.11-.11-.12-.23-.11-.11-.11-.23-.12-.11-.11-.23-.11-.45-.46h-.12l-.11-.11h-.11l-.12-.11H213l-.11-.12h-.34l-.12-.11h-1.25l-.11-.11h-.23l-.11.11h-.23l-.11.11h-.23L210,194h-.34l-.46-.11-.34-.12h-.22l-.12-.11v-.23l-.11-.11-.22-.11-.46-.46-.23-.11h-.11l-.11-.12h-.46l-.11.12h-.23l-.11.11h-.11l-.12.11h-.11l-.11.12V193h-.12v.11l-.11.12v.91" fill="#7d3627" stroke="#000" stroke-width="0.16"/><path d="M219.42,187.73v.11l.11.12h.22l1-1h.45l.23.12.11.11v.11l.12.12v.11l.11.11v.46l-.11.11v.23l-.12.11v.11l-.11.23V189l-.11.12v.11l-.23.23-.23.45-.11.34-.11.23v.11l-.12.11v.23h.12V191h.11l.34-.34v-.11l.11-.11v-.23l.12-.11v-.34l.22-.23v-.11l.12-.12h.11v-.11h.34l.11.11h.12v.12h.11l.11.11v.11h.12v.23l.11.11v.34l.11.12v.34l.12.11v.23l.22.22v.12l.12.11h.11l.11.11h.57l.11-.11-.11-.11v-.12h-.11l-.12-.11h-.11v-.11l-.11-.12h-.12v-.11l-.11-.11v-.23l-.11-.11v-.91l.11-.23h.23l.11-.11h1.37l.22-.11h.23l.68-.34h.23l.22-.12h.34l.12.12h.34l.11.11h.11l.12.11H228l.11.12h.12v.11l.11.11h.11l.12.12h.11l.23.22h.11l.11.12v.11h.34l.12.11H230l.11.12h.34v.11h.11l.12.11h.11v.12l.11.11v.22l-.11.23-.11.11h-.12v.12h-.34v.11h-.45l-.12-.11h-.56v-.12h-.23l-.11.12h-.34l-.12.11H228l-.12.11h-.11l-.34-.11h-1.14l-.11.11v.34l.11.12h1l.56.11h.23v.11l.11.12v.45l-.11.23v.45l.11.12v1.25h.57v-.11H229l.11-.12v-.11l.11-.11v-.23l.12-.11v-.12l.11-.11h.11v-.11h.8l.22.22V194h.12v.11l.11.11v.12l.23.22v.12l.11.11v.45l-.11.12v.11l-.34.34h-.12l-.34.34-.11.23-.11.11v.46l-.12.22v.34H230v.12h.11l.23-.23.11-.23V197l.11-.23v-.11l.23-.23h.11l.12-.11h.22l.12.11h.11l.11.12.12.22v.12l.11.22v.34l-.11.12v.22l-.12.12v.22l-.22.23v.23l-.23.22v.23l-.11.11v.11l-.12.12v.22l.23.23.11-.11h.12l.11-.12v-.11h.11l1.26-2.5v-.34H233v-.12h.68l.12.12h.34v-.12h.22l.23-.22.23-.12H235l.34-.11h.34l.23-.11h.56l.8.79v.34h-.11v.23H237v.23l-.11.11v.11h-.11v.12l-.12.11.12.23v.11l.11.11H237l.34-.34v-.34l.12-.11v-.34l.11-.11v-.12l.22-.22h.12l.11-.12h1.25l.12.12h.22l.23.22.23.12.56.56.12.23v.11l.11.23.34.34h.23l.11-.11h.11v-.12l-.11-.22-.45-.46-.12-.45-.34-.46-.22-.22-.12-.23v-.34l-.22-.23h-.69l-.22-.11h-.23l-.11-.11v-.12l-.11-.11v-.68l.11-.23.23-.11h.11l.11-.12h.23l.11.12H240l.23.11h.22l.12.11h.22l.12.12h.22l.46.45.11.23.12.11.11.23v.11H242l.12.12h.11v-.12h.11v-.45l-.11-.23-.11-.11V195l-.12-.11-.22-.11-.34-.34-.23-.12-.11-.11-.23-.11h-.11l-.23-.12h-.11l-.23-.11h-.11l-.12-.11h-.34l-.11-.11h-.11l-.12.11h-.68l-.11-.11h-.11l-.34-.34v-.12h-.12l-.22-.22v-.12l-.23-.22v-.12h-.11l-.12-.11v-.11L237,192h-.12l-.45-.46h-.34l-.12-.11h-.79l-.11-.11h-.34l-.46-.46v-.11l-.11-.11v-.34l.11-.12V190l-.22-.69V189l-.12-.22-.22-.23h-.46l-.34.34V189l-.11.12v.11l-.12.11v.34l-.11.23v.68l.11.12v.22l-.11.23-.11.11h-.12l-.34.12h-.68l-.22-.23V191l.11-.12v-.45l-.11-.23-1-1H230v-.12l-.11-.11v-.11l-.12-.23v-.23l.12-.22v-.12l.11-.22.11-.12v-.11l-.11-.23v-.45l.11-.11v-.12h.12v-.11h.56l.12.11h.22v.12h.12l.45.45.23.46.11.11h.12l.11.11v-.11h.11l.12-.11-.12-.12v-.11l-.22-.45-.69-.69h-.11l-.11-.11H231l-.11-.11h-.12l-.22-.12h-.34l-.23-.11h-.57l-.22-.11h-.57l-.12-.12h-.79l-.23.12h-.22l-.12.11h-.57l-.79-.11h-.23v-.12l-.11-.11v-.23l.11-1.25v-.22l-.11-.23-.11-.11-.12-.23v-.46l.46-.45v-.23l-.11-.22-.12-.12v-.22l-.11-.23v-.23h-.57l-.23.12h-.11l-.11.11h-.12v.11h-.11v.23l-.11.11v.46l-.12.22v.57l.23.23.11.23.12.11v.23l-.12.11h-.68l-.22-.11h-.23l-.11-.12h-.23l-.46-.22H222l-.46-.23h-.11l-.23-.11h-.11l-.11-.12h-.12l-.22-.22-.23-.12-.34-.11-.23-.23h-.22l-.12.12h-.11v.22h.11v.12l.12.11.45.23,1.59.68.69.22.22.12h.34l.23.11.34.11.23.12h.11v.34l-.46.45h-.11l-.11.12h-.12l-.11-.12h-.23l-.11-.11h-.11l-.12-.11h-.11L222,185l-.11-.11h-.11l-.12-.11h-.11l-.23-.23-.22-.11h-.23l-.23-.12-.11-.11-.45-.23h-.23l-.11.12h-.46l-.11-.12-.23-.11h-.34l-.11.23v.11l.11.23.12.11.11.23.11.11v1.36l.11.34v.23l.34.91" fill="#583b19" stroke="#000" stroke-width="0.16"/><path d="M185.35,186.32l-.22.23v.22l.22.23,1.37,1.48h.57v-.23l.11-.11v-.34l-.23-.11h-.11v-.12l.11-.11.23.11h.11l.12-.11v-.11l.11-.12h.68l.11.12v.11l.12.11v.12l.11.11v.11l.23.23h.11l.11.11h.57v.12l.11.11v.34l-.11.11v.46h-.11v.11l-.12.11v.12h-.11l-.11.11h-1l-.22.23v.11l-.12.11v.12l.12.11v.11l.11.12v.11h.11l.57.57v.23H189v.11l.11.11V192l.23.22v.12l.22.22h.12v.11l.11.12h.11l.12.11h.56l.12-.11.11-.23.11-.11h.46l.23.22v.46l.11.11h.23l.11.12h.23l.11.11h.11l.23.11h.11l.12.12h.22l.11.11h.34l.23-.23v-.11h-.11l-.23-.23h-.23l-.11-.11H193V193h-.12l-.22-.23v-.45l.11-.12v-.11l.11-.11h1l2.27.34.46.45.68.34.11.11.11.23.12.11.11.23.23.11.11.12h.23l.22-.23-.11-.11v-.12l-.79-.79-.23-.12-.23-.22v-.23l-.11-.11v-.23l-.11-.11v-.23h.11l.11-.11v-.11h.23l.11-.12h.34l.12.12h.11l.11.11h.11l.12.11h.11v-.11h.11v-.23h-.11l-.23-.22h-.11l-.11-.12v-.11l-.11-.11h-.12v-.12l-.34-.34v-.11l-.45-.46h-.12v-.11l-.22-.23h-.12l-.11-.11h-.91l-.11.11h-.68l-.46-.11-.57-.11-.45-.12-.34-.11-.12-.11h-.11l-.23-.23h-.11l-.11-.11h-.12l-.11-.11H190.8l-.11.11h-.46l-.57-.57v-.23l.12-.11h.11v-.11H190l.23-.12h.23l.22-.11h1l.11.11h.91l.34.34v.12h.11v.11h.23l.11-.11v-.23l-.34-.34v-.45l.23-.12.11-.11v-.23l-.11-.11V186l-.23-.12v-.45l-.34-.34h-2.5l-.12-.12-.45-.22-.23-.23v-.11l-.11-.12h-.68l-.12-.11H188l-.11.11h-.23l-.11.12h-.12v.11l-.11.11h-.11v.23h-.11v.23h-.12v.22h-.11v.12h-.11l-.12.11h-.34l-.11.11h-.23l-.57.69" fill="#7d3627" stroke="#000" stroke-width="0.16"/><path d="M235.8,192.05h.46l.23.12h.11l.11.11.23.11v.12l.11.11-.34.34h-.11l-.11.11h-.57l-.12-.11h-.22l-.23-.23v-.22h-.23v-.12l.23-.22h.23v-.12h.22" fill="#787878"/><path d="M235.8,192.05h.46l.23.12h.11l.11.11.23.11v.12l.11.11-.34.34h-.11l-.11.11h-.57l-.12-.11h-.22l-.23-.23v-.22h-.23v-.12l.23-.22h.23v-.12h.22" fill="#9ad110"/><path d="M208.8,192.13l.11.11h.46V192l-1.14-1.48v-.11l-.11-.11v-.23l.11-.11.23-.8v-.45l-.23-.46-.11-.11V188l-.12-.12h-.68l-.23-.11h-.34l-.22-.11h-.46l-.45.22h-.68l-.23-.22h-.11l-.46-.46H204l-.23-.23h-.91l-.11.12h-.23l-.11.11h-.11v.11h-.12l-.11.12v.11H202v.11l-.12.12v.11h-.34v.23h.23v.11l-.23.23v.11h-.11l-.11.11h-.12l-.11.12H201l-.12.11h-.22l-.12.11h-.22l-.12.12H200l-.23.22h-.11v.12l-.23.22V190l.11.11v.12h.12v.11h.11l.34.34v.11h.11v.68l.12.12v.11l.11.11.45.23h.34l.12-.11h.11v-.12h.11v-.11h.12v-.11l.22-.23v-.11l.23-.23h.11v-.11l.12.11.22.12h.23l.46.45v1.14h.11v.11l.11.11V193H204l.34-.12.23.12h.56v-.23h-.11l-.11-.11-.23-.12-.57-.56v-.23l.12-.11v-.23l.11-.11h.11v-.12h.23v-.11h.23l.56-.57h.12l.11-.11h.46l.11.11v.11l.23.23v.23l.11.22v.23h.11l.12.11v.12h.22v-.12h.12v-.34l-.12-.22v-.23l.12-.11h.11l.23-.12.11.12h.23l.11.11.79,1.25" fill="#7d3627" stroke="#000" stroke-width="0.16"/><path d="M298.07,203.8c0,.21-.27.39-.59.39s-.59-.18-.59-.39.26-.38.59-.38S298.07,203.59,298.07,203.8Z" fill="none" stroke="#000" stroke-width="0.19"/><path d="M298,205.18c0,.21-.26.39-.59.39s-.59-.18-.59-.39.27-.39.59-.39S298,205,298,205.18Z" fill="none" stroke="#000" stroke-width="0.19"/><path d="M298,206.54c0,.21-.26.39-.59.39s-.59-.18-.59-.39.27-.38.59-.38S298,206.33,298,206.54Z" fill="none" stroke="#000" stroke-width="0.19"/><path d="M298,208c0,.22-.26.39-.59.39s-.58-.17-.58-.39.26-.38.58-.38S298,207.8,298,208Z" fill="none" stroke="#000" stroke-width="0.19"/><path d="M297.92,209.37c0,.22-.26.39-.59.39s-.59-.17-.59-.39.27-.38.59-.38S297.92,209.16,297.92,209.37Z" fill="none" stroke="#000" stroke-width="0.19"/><path d="M290.83,197.1c0,5.48,0,5.59,0,5.59" fill="none" stroke="#000" stroke-linejoin="round" stroke-width="0.27"/><path d="M291.45,204.08c0,5.48,0,5.59,0,5.59" fill="none" stroke="#000" stroke-linejoin="round" stroke-width="0.27"/><path d="M319.72,179a69.66,69.66,0,1,1-69.65-69.65A69.65,69.65,0,0,1,319.72,179Z" fill="none" stroke="#000" stroke-linejoin="bevel" stroke-width="1.65" opacity="0.96" style="isolation:isolate"/><path d="M250.94,110.28c-1.27.47-2-.69-2.6-1.54v-.15c1.33-.69,1.7,1.11,2.6,1.69" fill="#ffb32b"/><path d="M252.64,110.28c-1.43.85-1.54-1.11-2.49-1.59.16-.31.68,0,1.06,0a4.85,4.85,0,0,1,1.43,1.54" fill="#ffb32b"/><path d="M254.66,110.38c-1.44.69-2-1-2.87-1.69,1.12-.53,2.28.69,2.87,1.69" fill="#ffb32b"/><path d="M249,110.17c-.21.31-.9.21-1.27.11-.69-.27-1-1-1.59-1.54,1-.63,2.28.64,2.86,1.43" fill="#ffb32b"/><path d="M256.46,110.49c-1.48.8-1.7-1.16-2.6-1.8,1.07-.26,1.81.64,2.39,1.43l.21.36" fill="#ffb32b"/><path d="M247,110.38c-1.32.69-1.8-1.11-2.7-1.64,1.27-.27,2.12.8,2.7,1.64" fill="#ffb32b"/><path d="M257.9,109.43a3.45,3.45,0,0,1,.85,1.43c-1.6.32-2.23-1.11-2.87-2.12a2.51,2.51,0,0,1,2,.69" fill="#ffb32b"/><path d="M245.26,110.38c-1.06.64-1.8-.47-2.65-1.15l-.11-.27c1.28-.42,2.08.58,2.76,1.42" fill="#ffb32b"/><path d="M260,109.8a3.59,3.59,0,0,0,.64,1.16,1.55,1.55,0,0,1-1.81-.84l-.58-1.16a2.12,2.12,0,0,1,1.75.84" fill="#ffb32b"/><path d="M243.57,110.64c-1.22.58-2-.68-2.87-1.31a1,1,0,0,1,1.33-.1c.58.41,1.05,1,1.54,1.41" fill="#ffb32b"/><path d="M262.41,111.33c-1.33.12-1.75-1.16-2.23-2.1,1.38-.22,1.59,1.36,2.23,2.1" fill="#ffb32b"/><path d="M241.92,110.86a1.79,1.79,0,0,1-2.18-.37,3.72,3.72,0,0,0-.85-.79c.16-.47.7-.26,1.12-.26l1.91,1.42" fill="#ffb32b"/><path d="M263,109.8c.43.64.59,1.33,1.07,1.91-1.07.1-1.44-.8-1.92-1.54l-.26-.74c.48-.16.74.27,1.11.37" fill="#ffb32b"/><path d="M240,111.13c-.27.36-.7.16-1.07.2a8.26,8.26,0,0,1-1.75-1.53c1.28-.63,1.86.75,2.82,1.33" fill="#ffb32b"/><path d="M265.8,111.92a1,1,0,0,1-1-.11,5.53,5.53,0,0,1-1.16-2,2.19,2.19,0,0,1,.95.21,7.36,7.36,0,0,1,1.22,1.91" fill="#ffb32b"/><path d="M238.21,111.54c-1.17.91-2-.89-2.87-1.37,1.27-.79,2.23.63,2.87,1.37" fill="#ffb32b"/><path d="M267.55,112.39a2,2,0,0,1-1.05-.2,23.39,23.39,0,0,1-1.17-2.07c1.48-.21,1.59,1.48,2.22,2.27" fill="#ffb32b"/><path d="M236.5,111.81c-.42.15-.95.47-1.43.22l-1.64-1.38a2.1,2.1,0,0,1,1.8,0c.43.48.9.64,1.27,1.16" fill="#ffb32b"/><path d="M269.1,111.81c-.11.47.47.74.47,1.22a2.34,2.34,0,0,1-2.12-1.7c0-.26-.27-.53-.21-.74a2.23,2.23,0,0,1,1.86,1.22" fill="#ffb32b"/><path d="M234.6,112.18c-.27.27-.8.27-1.17.37a16.13,16.13,0,0,1-1.81-1.42,1.74,1.74,0,0,1,1.17-.27,9.92,9.92,0,0,1,1.81,1.32" fill="#ffb32b"/><path d="M271.48,113.44v.17c-1.48.21-1.7-1.49-2.22-2.39l.1-.15c1.43-.11,1.59,1.48,2.12,2.37" fill="#ffb32b"/><path d="M232.79,112.55c-.27.21-.69.48-.95.31a10,10,0,0,1-1.86-1.32c1.06-.52,2,.38,2.81,1" fill="#ffb32b"/><path d="M273.29,114.08v.21c-1.54.06-1.54-1.63-2-2.58,1.38-.06,1.65,1.48,2,2.37" fill="#ffb32b"/><path d="M231.25,113a1.61,1.61,0,0,1-1.64.31c-.53-.37-1.07-.68-1.6-1.06,1-1.15,2.34.06,3.24.75" fill="#ffb32b"/><path d="M275,114.88c-.43.1-.69-.27-1.07-.43-.26-.74-.53-1.42-.84-2.17,1.38.06,1.59,1.59,1.91,2.6" fill="#ffb32b"/><path d="M229.34,113.5c-.1.48-.69.48-1.06.58A7.2,7.2,0,0,1,226,113c1.06-.94,2.33.06,3.34.53" fill="#ffb32b"/><path d="M276.74,115.14v.47c-1.65,0-1.22-1.84-1.91-2.75a2.79,2.79,0,0,1,1.91,2.28" fill="#ffb32b"/><path d="M227.53,114.3c-1.16.94-2.22-.37-3.34-.59,1-1.16,2.34.11,3.34.59" fill="#ffb32b"/><path d="M278.17,114.66c0,.64.37,1,.27,1.69-1.65.06-1.22-1.79-1.7-2.74a2.41,2.41,0,0,1,1.43,1" fill="#ffb32b"/><path d="M225.89,114.93c-1.17,1.11-2.23-.37-3.35-.53,1-.89,2.39.21,3.35.53" fill="#ffb32b"/><path d="M280,116.46V117c-1.53,0-1-1.73-1.43-2.63,1.17-.05,1.12,1.26,1.43,2.06" fill="#ffb32b"/><path d="M224.19,115.62c-1.17.84-2.23-.32-3.34-.48,1-1.16,2.28.16,3.34.48" fill="#ffb32b"/><path d="M281.78,117.79l-.21.2c-1.44-.42-1-1.95-1.49-3,1.38.37,1.38,1.69,1.7,2.76" fill="#ffb32b"/><path d="M222.65,116.29c-1.32,1-2.33-.2-3.71-.31,1.06-.9,2.55-.36,3.71.31" fill="#ffb32b"/><path d="M283.21,117.15a3,3,0,0,1,0,1.69c-1.54-.16-.9-2.06-1.32-3a2.36,2.36,0,0,1,1.32,1.26" fill="#ffb32b"/><path d="M220.9,117c-1,1.23-2.39.12-3.5-.09,0-.48.58-.22.85-.58a13.89,13.89,0,0,1,2.65.67" fill="#ffb32b"/><path d="M285.12,119.89a5.6,5.6,0,0,1-1.32-.84c.1-.79-.16-1.53-.11-2.22,1.38.47,1.27,1.9,1.43,3.06" fill="#ffb32b"/><path d="M219,117.88a1.47,1.47,0,0,1-1.7.49c-.42-.49-1.17-.22-1.64-.58.9-1.17,2.28-.12,3.34.09" fill="#ffb32b"/><path d="M286.45,120.64c-1.27-.32-.79-1.91-1.06-2.75,1.22.42.85,1.8,1.06,2.75" fill="#ffb32b"/><path d="M217.51,118.84c-1.07,1.1-2.39-.06-3.46-.11,1-1,2.29-.16,3.46.11" fill="#ffb32b"/><path d="M287.88,119.78l.21,1.81c-1.75,0-.95-1.9-1.43-2.91a2.92,2.92,0,0,1,1.22,1.1" fill="#ffb32b"/><path d="M216,119.69c-.53.68-1.32.52-2.12.41-.27-.25-.69-.25-1.06-.41.79-1,2.18-.11,3.18,0" fill="#ffb32b"/><path d="M289.69,122.74c-.53-.2-1.22-.62-1.22-1.32.1-.52-.21-1.21-.11-1.73,1.12.52,1.38,1.84,1.33,3" fill="#ffb32b"/><path d="M214.42,120.59c-.68,1.31-2.23.25-3.23.15l-.11-.1a1.51,1.51,0,0,1,.85-.54c1-.16,1.54.58,2.49.48" fill="#ffb32b"/><path d="M291.12,123.91c-1.48-.47-.74-2.11-1.22-3.16,1.38.51,1,2,1.22,3.16" fill="#ffb32b"/><path d="M212.78,121.59c-.74,1.48-2.07.1-3.13.1.74-1.17,2.12-.21,3.13-.1" fill="#ffb32b"/><path d="M292.66,124.91c-1.59-.26-.85-2.32-1.33-3.32,1.44.53,1.17,2.11,1.33,3.32" fill="#ffb32b"/><path d="M211.35,122.54c-.54,1.27-2.07.42-3.24.42l-.11-.11c.69-1.48,2.29-.36,3.35-.31" fill="#ffb32b"/><path d="M294.2,124.28v1.9c-1.49-.42-.85-2.16-1.17-3.17a2.53,2.53,0,0,1,1.17,1.27" fill="#ffb32b"/><path d="M209.86,123.7c-.9,1.27-2.33.42-3.55.37.84-1.21,2.38-.37,3.55-.37" fill="#ffb32b"/><path d="M295.63,125.34l-.1,2.06a1.91,1.91,0,0,1-1-1.69c.53-.37-.16-.9.22-1.32.47,0,.63.58.84,1" fill="#ffb32b"/><path d="M208.32,124.86a2.75,2.75,0,0,1-1.17.73,5.73,5.73,0,0,0-2.28-.25c.85-1.16,2.28-.64,3.45-.48" fill="#ffb32b"/><path d="M297,127.87c-.16.16,0,.47-.11.69-.26-.31-.74-.42-.84-.85l.1-2.21c1,.42.95,1.53.85,2.37" fill="#ffb32b"/><path d="M207,126c-.9,1.37-2.54.58-3.77.69.91-1.32,2.55-.69,3.77-.69" fill="#ffb32b"/><path d="M298.77,127.87a5.28,5.28,0,0,1-.38,2.22,3.26,3.26,0,0,1-1.06-1.26l.11-2.07c.48.26.9.91,1.33,1.11" fill="#ffb32b"/><path d="M205.35,127.24a1.73,1.73,0,0,1-2.13.84c-.37-.1-.84-.32-1.22-.1.06-.42.64-.69,1.07-.85l2.28.11" fill="#ffb32b"/><path d="M203.92,128.57c-.75,1.36-2.23.47-3.35.73.38-1.22,2.39-1,3.35-.73" fill="#ffb32b"/><path d="M299.83,131.15c-.43-.1-.64-.59-1-.84l.37-2c1.38.69.59,1.74.59,2.8" fill="#ffb32b"/><path d="M202.59,129.78c-.85,1.32-2.07.74-3.35.84.43-1.42,2.18-.64,3.35-.84" fill="#ffb32b"/><path d="M301.26,130.47c.16.79-.27,1.37-.37,2.06-.27-.06-.59-.47-.74-.74.37-.58,0-1.43.37-2,.37.11.53.37.74.69" fill="#ffb32b"/><path d="M201.32,131.05c-.59,1.48-2.29.68-3.4,1,.48-1.33,2.28-1,3.4-1" fill="#ffb32b"/><path d="M302.43,133.42c-.27.16,0,.25-.39.41-1.33-.8-.46-1.73-.3-2.78a1.82,1.82,0,0,1,.69,2.37" fill="#ffb32b"/><path d="M200.09,132.37c-.58,1.58-2.44.79-3.55,1.1.64-1.53,2.33-.79,3.55-1.1" fill="#ffb32b"/><path d="M304,134.37l-.43,1c-1.54-.63-.58-1.83-.48-2.88.53.47,1.12,1.1.91,1.84" fill="#ffb32b"/><path d="M195.42,135a2.3,2.3,0,0,1,1-1.05l2.28-.26c-.11,1.47-2.17.95-3.24,1.31" fill="#ffb32b"/><path d="M305.19,135a4.13,4.13,0,0,1-.59,1.9c-1.33-.78-.26-1.63-.16-2.63.43,0,.48.47.75.73" fill="#ffb32b"/><path d="M197.44,135.32c-.42,1.32-2.07.91-3.19,1.11.49-1.42,2.29-1.05,3.19-1.11" fill="#ffb32b"/><path d="M306.25,136.43a4.42,4.42,0,0,1-.48,2.22c-.37-.42-.9-1.05-.69-1.64s.32-1.16.69-1.42l.48.84" fill="#ffb32b"/><path d="M196.38,136.64c-.53,1.59-2.18,1.12-3.34,1.32.63-1.53,2.28-.83,3.34-1.32" fill="#ffb32b"/><path d="M307.31,138.81a1.9,1.9,0,0,0-.32,1.32,1.9,1.9,0,0,1-.85-.95l.59-2.27a1.75,1.75,0,0,1,.58,1.9" fill="#ffb32b"/><path d="M195.11,138.18c-.37,1.27-2,1-3,1.32.37-1.48,2-1,3-1.32" fill="#ffb32b"/><path d="M308.05,141.77c-.37,0-.47-.47-.69-.74a3.34,3.34,0,0,1,.48-2.49c1.12.8.42,2.18.21,3.23" fill="#ffb32b"/><path d="M194.15,139.66c-.32,1.48-2.07.74-3,1.37a1.58,1.58,0,0,1,1-1.17c.58-.2,1.43.11,2-.25l.05,0" fill="#ffb32b"/><path d="M309.7,141.09a8.08,8.08,0,0,1-.69,2.38c-1.22-.85-.38-2.27-.11-3.34a2.34,2.34,0,0,1,.8,1" fill="#ffb32b"/><path d="M193.14,141c-.27.48-.42,1.16-1.06,1.32-.8,0-1.54.37-2.23.37.37-1.59,2-1.48,3.29-1.69" fill="#ffb32b"/><path d="M310.07,145.2c-.37-.41-.9-1.11-.69-1.73a9.32,9.32,0,0,0,.69-1.59c1.27.84.21,2.27,0,3.32" fill="#ffb32b"/><path d="M192.08,142.72c-.43,1.27-1.91,1.22-3,1.43.11-1.53,1.8-.84,2.65-1.43h.32" fill="#ffb32b"/><path d="M311.61,144.41c-.16.79-.48,1.48-.69,2.22-1.38-.79.1-2,.1-3.06.38.05.38.58.59.84" fill="#ffb32b"/><path d="M191.23,144.15c-.42,1.69-2.28,1.11-3.29,1.9.27-1.64,2.07-1.53,3.29-1.9" fill="#ffb32b"/><path d="M312.35,145.57a4.69,4.69,0,0,1-.69,2.6c-1.06-.85-.05-2.17.21-3.18.22,0,.32.38.48.58" fill="#ffb32b"/><path d="M189.32,147.1c-.74.17-1.59.38-2.23.58.48-1.41,2-1.63,3.18-2a2.38,2.38,0,0,1-1,1.41" fill="#ffb32b"/><path d="M313.31,147.48a5.1,5.1,0,0,1-.75,2.38c-.58-.21-.47-1-.69-1.44.27-.62.8-1.15.75-1.9.42.06.42.65.69,1" fill="#ffb32b"/><path d="M189.22,147.59c-.17,1.63-2,1.26-3,2,.11-1.69,1.86-1.48,3-2" fill="#ffb32b"/><path d="M314.16,149.27a3.73,3.73,0,0,1-.85,2.49c-.11-.63-1-1.22-.37-1.91.37-.42,1-2.42,1.22-.58" fill="#ffb32b"/><path d="M185.55,151c.21-1.32,1.81-1.37,2.82-1.84-.22,1.41-1.76,1.52-2.82,1.84" fill="#ffb32b"/><path d="M315,151.76a12.5,12.5,0,0,1-.95,1.63c-.27-.36-.69-.94-.37-1.52s.58-1.06.85-1.64a2.85,2.85,0,0,1,.47,1.53" fill="#ffb32b"/><path d="M186.72,152c-.69.1-1.22.62-1.91.68,0-1.47,1.64-1.27,2.49-1.9.27.42-.21.9-.58,1.22" fill="#ffb32b"/><path d="M315.8,153.29a3.87,3.87,0,0,1-1.27,1.79c-.85-1.1.37-2,.8-3,.37.1.37.74.47,1.16" fill="#ffb32b"/><path d="M186.45,153.39a23.18,23.18,0,0,1-2.33,1.22c-.32-1.74,2-1.63,2.87-2.27l-.54,1" fill="#ffb32b"/><path d="M316.44,154.61c.21,1-.58,1.75-1,2.59a2.64,2.64,0,0,1-.32-2.12c.48-.36,1.06-2.21,1.33-.47" fill="#ffb32b"/><path d="M186.24,154.13c0,1.64-1.85,1.53-2.76,2.28-.1-1.53,1.65-1.74,2.76-2.28" fill="#ffb32b"/><path d="M184.91,157.25l-2,1.07c-.16-.38.26-.85.37-1.34.58-.62,1.49-.62,2.12-1.15a1.48,1.48,0,0,1-.48,1.42" fill="#ffb32b"/><path d="M317.23,157.1c-.1.84-.85,1.37-1.27,2.05-.1-.58-.58-1.16-.26-1.79a4.87,4.87,0,0,1,1.16-1.53l.37,1.27" fill="#ffb32b"/><path d="M182.31,160.22c-.47-1.54,1.65-1.8,2.5-2.54.16,1.31-1.49,1.9-2.5,2.54" fill="#ffb32b"/><path d="M317.5,157.74c.64,1.32-.21,2.58-.95,3.43-.11-.54-.64-1.12-.27-1.8a7.31,7.31,0,0,1,1.22-1.63" fill="#ffb32b"/><path d="M181.84,162.12c-.21-.42.26-1,.37-1.42a24.66,24.66,0,0,0,2.12-1.33c.37,1.53-1.59,1.95-2.49,2.75" fill="#ffb32b"/><path d="M318.3,160.9c-.16.8-.85,1.38-1.28,2.06-.9-1.1.43-2.33,1-3.22l.32,1.16" fill="#ffb32b"/><path d="M183.38,162.81c-.59.63-1.38.84-2,1.42-.43-1.64,1.49-2,2.39-3a1.84,1.84,0,0,1-.37,1.53" fill="#ffb32b"/><path d="M317.5,164.86h-.16c-.85-1.31.64-2.17,1.12-3.22.63,1.27-.11,2.33-1,3.22" fill="#ffb32b"/><path d="M183.11,164.49c-.59.85-1.54,1-2.23,1.74-.42-1.63,1.49-2,2.39-2.85.11.21-.11.74-.16,1.11" fill="#ffb32b"/><path d="M319,163.65c.64,1.42-.64,2.48-1.22,3.32-.8-1.21.42-2.53,1.22-3.32" fill="#ffb32b"/><path d="M180.51,168.2a2.8,2.8,0,0,1,.27-1.43,22.64,22.64,0,0,1,2-1.43c.64,1.58-1.38,2.06-2.28,2.86" fill="#ffb32b"/><path d="M319.41,165.66c.64,1.42-.58,2.54-1.32,3.33-.64-1.48.52-2.44,1.32-3.33" fill="#ffb32b"/><path d="M182.16,168.67,180.25,170c-.54-1.64,1.38-1.75,2.17-2.69a1.51,1.51,0,0,1-.26,1.32" fill="#ffb32b"/><path d="M319.89,168.61c.1,1-1.06,1.54-1.43,2.39-.86-1.32.69-2.39,1.27-3.34l.16,1" fill="#ffb32b"/><path d="M181.68,170.78,180,172c-.58-1.48,1.22-2.11,2.13-2.85a3.11,3.11,0,0,1-.48,1.68" fill="#ffb32b"/><path d="M320.21,170.51c.16,1.12-1.06,1.28-1.54,2.07-.69-1.16.8-1.9,1.11-2.85.59-.11.16.58.43.78" fill="#ffb32b"/><path d="M179.82,173.74c-.53-1.48,1.22-1.9,2-2.69.58,1.43-1.33,1.79-2,2.69" fill="#ffb32b"/><path d="M320.21,173.16l-1.44,1.21c-.68-1.21.7-1.84,1.44-2.74,0,.53.42,1.06,0,1.53" fill="#ffb32b"/><path d="M179.77,175.54c-.74-1.48,1.22-1.85,1.91-2.85.36,1.37-1.12,2.17-1.91,2.85" fill="#ffb32b"/><path d="M318.83,176.27c-.74-1.47.85-2,1.54-2.85.69,1.37-.75,2.11-1.54,2.85" fill="#ffb32b"/><path d="M179.66,177.34c-.53-1.33,1.06-2.12,1.91-2.86.53,1.7-1.16,1.79-1.91,2.86" fill="#ffb32b"/><path d="M318.93,178.29c0-.58-.37-1,0-1.59l1.54-1.53c.69,1.42-.74,2.22-1.54,3.12" fill="#ffb32b"/><path d="M181.46,176.49c.48,1.48-1.05,2.11-1.91,2.75-.47-1.38,1-2.28,1.91-2.75" fill="#ffb32b"/><path d="M320.58,177.17c.74,1.43-.85,2.07-1.54,2.86h-.21c-.48-1.48,1.11-1.95,1.75-2.86" fill="#ffb32b"/><path d="M179.55,181.25c-.63-1.48,1.07-2.11,1.81-3.07.69,1.63-1,2.33-1.81,3.07" fill="#ffb32b"/><path d="M320.58,179.13c.58,1.44-.9,2-1.65,2.8h-.16c-.53-1.58,1.17-1.85,1.81-2.8" fill="#ffb32b"/><path d="M179.66,183.36c-.58-1.43.9-2.32,1.7-3.17.74,1.48-1.11,2.22-1.7,3.17" fill="#ffb32b"/><path d="M320.58,181a1.62,1.62,0,0,1-.32,1.63l-1.49,1.22a2,2,0,0,1,1.22-2.43c.22-.06.32-.37.59-.42" fill="#ffb32b"/><path d="M179.92,185.52c-.37-.1,0-.62-.26-.84-.16-1.21,1.12-1.79,1.7-2.69.58,1.43-.43,2.58-1.44,3.53" fill="#ffb32b"/><path d="M320.47,182.94c.43,1.1-.53,2.05-1.43,2.58l-.48.27c-.47-1.54,1-1.9,1.91-2.85" fill="#ffb32b"/><path d="M180.3,187.32c-.11.11-.22.27-.38.21-.63-1.47,1.07-2.21,1.65-3.33.85,1.21-.64,2.17-1.27,3.12" fill="#ffb32b"/><path d="M320,186.69a6.84,6.84,0,0,1-1.69,1.11c-.37-1.53,1.17-2,2-3,.32.58-.11,1.28-.27,1.86" fill="#ffb32b"/><path d="M180.41,189.6h-.16c-.85-1.54.9-2.33,1.48-3.38.9,1.41-.64,2.37-1.32,3.38" fill="#ffb32b"/><path d="M320.1,187.16c.43,1.38-1.06,2-1.91,2.64H318c.16-.58,0-1.26.48-1.68.58-.22,1.06-.69,1.64-1" fill="#ffb32b"/><path d="M180.62,191.5c-.91-1.43.74-2.12,1.32-3.22.64,1.32-.64,2.26-1.32,3.22" fill="#ffb32b"/><path d="M319.89,189.07c.26,1.27-.74,1.79-1.59,2.37l-.59.17c-.37-1.49,1.38-1.91,2.18-2.54" fill="#ffb32b"/><path d="M182.42,191.34a10.34,10.34,0,0,1-1.54,1.9c-.74-1.47,1-2.21,1.33-3.22a3.66,3.66,0,0,1,.21,1.32" fill="#ffb32b"/><path d="M319.15,192.45l-1.76,1.16a2,2,0,0,1,.21-1.32l1.92-1.32c0,.31.05,1.11-.37,1.48" fill="#ffb32b"/><path d="M181.46,195.25h-.21c-.9-1.43.75-2.28,1.27-3.33.86,1.16-.68,2.16-1.06,3.33" fill="#ffb32b"/><path d="M319.25,192.92c.27,1.54-1.32,1.91-2.23,2.49h-.16c-.05-1.44,1.38-1.91,2.39-2.49" fill="#ffb32b"/><path d="M183.11,195.14l-1.38,1.79c-.9-1.37.85-2.1,1.06-3.22.48.22.22,1,.32,1.43" fill="#ffb32b"/><path d="M318.83,194.83c.1,1.48-1.44,1.74-2.39,2.37a1.66,1.66,0,0,1,1.06-1.69c.53-.06.8-.64,1.33-.68" fill="#ffb32b"/><path d="M182.42,198.47l-.21.16a1.66,1.66,0,0,1-.16-1.43l1.22-1.68c.9,1-.37,2-.85,2.95" fill="#ffb32b"/><path d="M318,198.16c-.64.31-1.33.58-2,.89-.37-1.63,1.75-1.58,2.39-2.59.21.58-.26,1.16-.37,1.7" fill="#ffb32b"/><path d="M183.85,197.2c.48,1.27-.74,2.06-1.17,3.07-1.16-1.06.85-2,1-3.07h.21" fill="#ffb32b"/><path d="M184.44,199.53a8.32,8.32,0,0,1-1.17,2.37c-1.11-1.1.53-2.11.8-3.16.37,0,.16.52.37.79" fill="#ffb32b"/><path d="M317.82,198.74c-.11.58-.16,1.21-.59,1.53l-1.9.69a2.48,2.48,0,0,1,.58-1.54,6.73,6.73,0,0,1,1.91-.68" fill="#ffb32b"/><path d="M185,201a5.28,5.28,0,0,1-1.27,2.48c-1-1.27.74-2.22.95-3.22l.32.74" fill="#ffb32b"/><path d="M317.34,200.64c0,1.53-1.59,1.53-2.6,2-.11-.31.16-.84.37-1.21a10,10,0,0,1,2.23-.78" fill="#ffb32b"/><path d="M184.44,205.29c-1-1.28.47-2.27.74-3.39,1.17,1-.37,2.44-.74,3.39" fill="#ffb32b"/><path d="M316.07,203.86c-.64.42-1.44.37-2.07.69a3.15,3.15,0,0,1,.48-1.43l2.07-.74a2.06,2.06,0,0,1-.48,1.48" fill="#ffb32b"/><path d="M185.28,207.14c-1.21-1.11.22-2.43.59-3.55,1.06,1.22-.37,2.39-.59,3.55" fill="#ffb32b"/><path d="M315.91,204.34c.26,1.79-1.8,1.26-2.71,1.91.11-.64.48-1.44,1.28-1.5.47,0,.9-.36,1.43-.41" fill="#ffb32b"/><path d="M186,208.73c-1.38-1.07.42-2.28.53-3.44,1,1.16-.16,2.37-.53,3.44" fill="#ffb32b"/><path d="M314.85,206.93a7.28,7.28,0,0,1-2.29.84,1.28,1.28,0,0,1,.75-1.21,7.81,7.81,0,0,0,1.91-.69c.16.38-.16.74-.37,1.06" fill="#ffb32b"/><path d="M186.61,210.37c-1.22-1.27.64-2.22.59-3.44.8,1.22-.27,2.32-.59,3.44" fill="#ffb32b"/><path d="M314.53,207.51c.21.37-.16.69-.27,1.05-.69.69-1.7.54-2.6.85.27-.47.43-1.17,1.07-1.32a4.11,4.11,0,0,0,1.8-.58" fill="#ffb32b"/><path d="M187.46,212c-.9-1,.11-2.48.43-3.6,1.16,1.17-.16,2.49-.43,3.6" fill="#ffb32b"/><path d="M313.89,209.2c-.11,1.64-1.75,1.43-2.87,1.8-.15-1.53,1.86-1.28,2.87-1.8" fill="#ffb32b"/><path d="M189,210.63c.16,1.06-.63,1.74-.74,2.68-1-.94.16-2.26.48-3.16l.26.48" fill="#ffb32b"/><path d="M312.62,211.79a6.18,6.18,0,0,1-2.28.47c.1-1.21,1.69-.84,2.49-1.31.27.25-.05.58-.21.84" fill="#ffb32b"/><path d="M189.11,214.81c-1.22-.91,0-2.13.21-3.23l.16-.11c1.06,1.17-.26,2.22-.37,3.34" fill="#ffb32b"/><path d="M312.25,212.37c-.16.42-.32,1-.85,1.21l-1.91-.1c.21-1.37,1.91-.64,2.76-1.11" fill="#ffb32b"/><path d="M190.76,213.8l-.7,2.53c-1.27-.84,0-2.32.21-3.33l.49.8" fill="#ffb32b"/><path d="M311.5,214c-.48.37-.42,1.17-1.16,1.17-.7.27-1.12-.11-1.81-.11.21-1.53,2.12-1.11,3-1.06" fill="#ffb32b"/><path d="M191.6,215.39l-.48,2.58c-.36-.11-.47-.68-.69-1.06.38-.47.33-3.91,1.17-1.52" fill="#ffb32b"/><path d="M310.44,215.59c-.31.43-.48,1.17-1.17,1.12a8.55,8.55,0,0,0-1.69-.06c.16-1.74,1.85-.85,2.86-1.06" fill="#ffb32b"/><path d="M192.56,217.61c-.32.52-.16,1.31-.48,1.9-1.48-.9-.1-2.33-.1-3.44a1.33,1.33,0,0,1,.58,1.54" fill="#ffb32b"/><path d="M309.49,217.12c-.27,1.59-1.75.69-2.87,1,.27-1.64,2-.79,2.87-1" fill="#ffb32b"/><path d="M193.62,218.44a11.41,11.41,0,0,0-.48,2.55c-1.38-.85-.21-2.28-.21-3.38.37,0,.48.52.69.83" fill="#ffb32b"/><path d="M308.42,218.44c.27.38-.37.7-.58,1l-2.18-.11c.32-.36.48-.9,1.07-.94a4.66,4.66,0,0,0,1.69.09" fill="#ffb32b"/><path d="M194.58,219.66a7.46,7.46,0,0,1-.59,2.48c-1.06-.79-.11-1.95-.11-3.12.43,0,.48.43.7.64" fill="#ffb32b"/><path d="M307.47,219.76c.21.22-.11.49-.16.7-1,.58-1.54,0-2.6.15.32-1.53,1.86-.58,2.76-.85" fill="#ffb32b"/><path d="M195.11,223.46a1.6,1.6,0,0,1-.75-.84l.69-2.27c.75.85.21,2.11.06,3.12" fill="#ffb32b"/><path d="M306.62,221.09c-.26,1.58-1.7.58-2.76.84l-.1-.05c.31-1.63,2.12-.53,2.86-.79" fill="#ffb32b"/><path d="M196.17,224.78c-.75-.31-.69-1.16-.59-1.9.27-.36.16-.89.32-1.31.9.84.27,2.05.27,3.21" fill="#ffb32b"/><path d="M305.66,222.41a2.68,2.68,0,0,1-.68.89l-2.29-.1c.32-1.53,1.91-.63,3-.79" fill="#ffb32b"/><path d="M197.44,226.17c-.1-.07-.16.05-.21.05-1.38-.9-.11-2.28-.37-3.49,1.16.84.32,2.16.58,3.44" fill="#ffb32b"/><path d="M304.6,223.68c0,.31-.37.47-.58.74-.8.36-1.49-.27-2.28-.16.53-1.38,1.85-.27,2.86-.58" fill="#ffb32b"/><path d="M198.66,227.38c-1.59-.16-.42-2-.74-3.12l.05-.11c1.17.64.69,2.18.69,3.23" fill="#ffb32b"/><path d="M303.54,224.89c0,.38-.37.54-.53.79-.9.17-1.43-.36-2.34-.21.59-1.32,1.81-.69,2.87-.58" fill="#ffb32b"/><path d="M199.88,226.32V229c-1.43-.84-.48-2.17-.74-3.43.43,0,.48.48.74.74" fill="#ffb32b"/><path d="M302.53,226.06c-.26.89-1.06.58-1.86.63l-1-.05c-.1-.27.49-.47.64-.79a9.59,9.59,0,0,1,2.23.21" fill="#ffb32b"/><path d="M201,229.86c-.38,0-.27-.37-.59-.47V226.8c1.38.58.26,2.11.59,3.06" fill="#ffb32b"/><path d="M301.63,227.11a1.4,1.4,0,0,1-1.8.74,6.76,6.76,0,0,0-1.33-.21c.79-1.31,2.07-.21,3.13-.53" fill="#ffb32b"/><path d="M202.11,231c-.37,0-.64-.37-.79-.63a13.14,13.14,0,0,0,.21-2.38c1.22.63.26,1.95.58,3" fill="#ffb32b"/><path d="M300.41,228.22c0,.53-.48.74-.85.95l-2.28-.15c.48-1.59,1.91-.7,3.13-.79" fill="#ffb32b"/><path d="M203.44,232.24c-1.6-.37-.59-2-.85-3.16,1.54.47.58,2.21.85,3.16" fill="#ffb32b"/><path d="M299.19,229.55c-.69,1.74-2.13.36-3.18.47.58-1.37,2.17-.47,3.18-.47" fill="#ffb32b"/><path d="M204.87,233.34a1.49,1.49,0,0,1-1-.73v-2.38c1.16.58.47,2.17,1,3.11" fill="#ffb32b"/><path d="M297.81,230.71c.21.21-.27.63-.53.74-.85-.06-1.81-.16-2.49-.27.63-1.16,2-.58,3-.47" fill="#ffb32b"/><path d="M206.2,234.51c-1.65-.36-.85-2.33-1.06-3.22,1.54.42.68,2.16,1.06,3.22" fill="#ffb32b"/><path d="M296.8,231.87a1.36,1.36,0,0,1-1.64.53c-.43-.32-1.07,0-1.54-.27.68-1.1,2.17-.31,3.18-.26" fill="#ffb32b"/><path d="M207.74,235.56c-.48.06-.75-.58-1.06-.78a16.6,16.6,0,0,1-.11-2.38c1.33.74.75,2,1.17,3.16" fill="#ffb32b"/><path d="M295.53,232.82c-.37,1.06-1.38.63-2.07.47a2,2,0,0,0-1-.21c.64-1.37,2.12-.21,3-.26" fill="#ffb32b"/><path d="M294.2,233.83c0,.41-.48.47-.69.68l-2.07-.48c-.21-.31.32-.37.48-.69a16.76,16.76,0,0,1,2.28.49" fill="#ffb32b"/><path d="M209.17,236.68c-1.59-.32-1-2.17-1.22-3.23,1.38.7.8,2.17,1.22,3.23" fill="#ffb32b"/><path d="M293,234.88c-.74,1.32-2,0-3,0,.42-.69,1.32-.58,2-.47.27.31.75.16,1,.47" fill="#ffb32b"/><path d="M210.87,237.84c-1.54-.42-1.28-2.06-1.59-3.22,1.69.27,1.16,2.11,1.59,3.22" fill="#ffb32b"/><path d="M291.81,235.73c-.74,1.21-1.91-.22-3.08.1.8-1.1,2-.27,3.08-.1" fill="#ffb32b"/><path d="M212.52,238.69c-.48.31-.91-.43-1.17-.74l-.38-2.28c1.55.43,1.07,2,1.55,3" fill="#ffb32b"/><path d="M290.59,236.52a1.49,1.49,0,0,1-.9.85l-2.07-.85c.85-.85,2,0,3,0" fill="#ffb32b"/><path d="M213.57,237.64l.27,2c-.42.11-.64-.42-1-.63l-.48-2.32c.37.32,1.06.37,1.16,1" fill="#ffb32b"/><path d="M289.21,237.58c-.32.95-1.22.26-1.8.06l-1-.49c.9-.94,2,.22,2.76.42" fill="#ffb32b"/><path d="M288.2,238.32c-.85,1.22-2-.1-3-.27.8-1.17,2,.06,3,.27" fill="#ffb32b"/><path d="M215.28,240.49c-.38-.16-1-.32-1.07-.85.16-.64-.26-1.27-.26-2,1.33.36,1,1.9,1.33,2.85" fill="#ffb32b"/><path d="M286.93,239.05c-.27.32-.74.85-1.22.49l-1.75-.85c.9-1,2,.27,3,.36" fill="#ffb32b"/><path d="M216.71,241.43c-1.49-.32-.91-2.11-1.33-3,1.43.37,1.17,2,1.33,3" fill="#ffb32b"/><path d="M285.71,239.86c-1,1.31-2-.49-3-.49a1.4,1.4,0,0,1,1.17-.37c.59.27,1.17.64,1.81.86" fill="#ffb32b"/><path d="M218.25,242.12c-1.59,0-.91-2-1.33-2.75,1.22.33,1.06,1.74,1.33,2.75" fill="#ffb32b"/><path d="M284.54,240.49c-.85,1.32-2-.27-3-.48,1-.47,2,.05,3,.48" fill="#ffb32b"/><path d="M219.68,242.8c-.27.22-.48-.21-.74-.21a11.53,11.53,0,0,1-.69-2.47c1.32.21.95,1.79,1.43,2.68" fill="#ffb32b"/><path d="M283.21,241.17c0,.26-.42.42-.69.47a8.54,8.54,0,0,1-2.18-.84c-.15-.31.22-.16.27-.37a6.32,6.32,0,0,1,2.6.74" fill="#ffb32b"/><path d="M221.11,243.44c-.26.21-.47-.15-.74-.15a8.25,8.25,0,0,1-.8-2.49c1.28.26,1.17,1.68,1.54,2.64" fill="#ffb32b"/><path d="M282,241.91c-1.06,1.58-2.12-.42-3.18-.48.85-.94,2.23.21,3.18.48" fill="#ffb32b"/><path d="M222.33,243.92c-.05.15-.26.1-.37.1a6.16,6.16,0,0,1-1.06-2.59c1.22.27,1.17,1.59,1.43,2.49" fill="#ffb32b"/><path d="M280.34,242.71a1.16,1.16,0,0,1-1,.47l-1.92-1.06c.7-1,2.18.1,3,.58" fill="#ffb32b"/><path d="M223.61,244.5c-1.33.11-.9-1.75-1.28-2.49,1,.38.91,1.64,1.28,2.49" fill="#ffb32b"/><path d="M278.91,243.34c-1,1-2-.32-3-.54-.05-.25.37-.25.58-.41,1-.17,1.55.74,2.39,1" fill="#ffb32b"/><path d="M224.83,245.08c-1.43,0-.74-1.74-1.33-2.49,1.06.43,1,1.64,1.33,2.49" fill="#ffb32b"/><path d="M226.47,245.56c-.32.21-.63-.12-.95-.21a5.75,5.75,0,0,1-.85-2.38c1.38.21,1.22,1.73,1.8,2.59" fill="#ffb32b"/><path d="M277.59,243.92c-1,1.11-2-.38-3.08-.58.05-.27.42-.16.58-.37a8.23,8.23,0,0,1,2.5.95" fill="#ffb32b"/><path d="M276.26,244.61c-1.27,1.1-2.39-.22-3.45-.69,1.17-1,2.33.37,3.45.69" fill="#ffb32b"/><path d="M227.91,246c-1.44.37-1.17-1.58-1.76-2.38,1.17.11,1.28,1.54,1.76,2.38" fill="#ffb32b"/><path d="M229.5,246.61c-.21.32-.53-.21-.85-.21-.64-.63-.69-1.53-1.06-2.28,1.27.17,1.54,1.54,1.91,2.49" fill="#ffb32b"/><path d="M274.4,245.24c-.95.84-1.86.16-2.76-.37l-.58-.37c.53-.11.95-.63,1.54-.27l1.8,1" fill="#ffb32b"/><path d="M231.36,247.14c-1.54.16-1.65-1.48-2.12-2.44,1.32.12,1.75,1.44,2.12,2.44" fill="#ffb32b"/><path d="M272.7,245.82c-1.11,1.21-2.17-.58-3.13-.85,1-.68,2.13.43,3.13.85" fill="#ffb32b"/><path d="M233,247.56a2.19,2.19,0,0,1-.95-.21l-1.07-2.16c1.49-.16,1.44,1.53,2,2.37" fill="#ffb32b"/><path d="M271.06,246.29c-1,1-2-.58-3-.85,1-1,2,.64,3,.85" fill="#ffb32b"/><path d="M234.49,247.83c-.27.21-.74,0-1.06-.21l-.85-2c1.43-.22,1.27,1.43,1.91,2.17" fill="#ffb32b"/><path d="M269.63,246.77c-1.23,1.11-2.13-.74-3.24-1,1.27-.79,2.17.63,3.24,1" fill="#ffb32b"/><path d="M236,248.19a1.16,1.16,0,0,1-1.43-.84l-.49-1.32c1.33-.16,1.5,1.38,1.92,2.17" fill="#ffb32b"/><path d="M268.14,247.25c-.32.36-.85.1-1.27.2l-.16-.2-.11.1L265,246.2c.59-.49,1.38,0,2,.31l1.17.74" fill="#ffb32b"/><path d="M266.39,247.56c0,.27-.48.27-.75.37-.9-.16-1.53-1-2.28-1.42,1.06-.8,1.86.58,2.76.94.11,0,.21,0,.27.11" fill="#ffb32b"/><path d="M237.73,248.51v.17c-.43.37-.75-.17-1.12-.26l-1-2c1.17-.1,1.69,1.28,2.07,2.11" fill="#ffb32b"/><path d="M239.16,248.51V249c-1.38,0-1.43-1.64-1.91-2.38,1.22-.16,1.38,1.16,1.91,1.9" fill="#ffb32b"/><path d="M264.69,248.1c-1.22.79-1.91-.91-2.87-1.33,1.07-.63,2.18.64,2.87,1.33" fill="#ffb32b"/><path d="M263.15,248.3c-.37.59-.74,0-1.22.21L260.28,247c1.17-.63,2,.7,2.87,1.32" fill="#ffb32b"/><path d="M240.91,249.15c-1.38.32-1.43-1.27-2-2.06l.11-.21c1.22.1,1.38,1.47,1.91,2.27" fill="#ffb32b"/><path d="M261.45,248.68c-.48.41-.95,0-1.43,0l-1.44-1.43c.33-.32.64-.21,1-.11.69.42,1.49.74,1.86,1.54" fill="#ffb32b"/><path d="M242.5,249.15v.21c-1.38.31-1.53-1.32-2.17-2.22,1.22-.11,1.7,1.21,2.17,2" fill="#ffb32b"/><path d="M259.7,249.05c-1.12.68-1.8-.9-2.55-1.49.27-.53.8-.1,1.22,0a5.93,5.93,0,0,1,1.33,1.49" fill="#ffb32b"/><path d="M244.31,249.36c-.32.42-.9-.11-1.33-.2-.37-.59-.69-1.23-1.12-1.81,1.33-.21,1.76,1.22,2.45,2" fill="#ffb32b"/><path d="M245.85,249.52c-1.27.48-1.6-1.22-2.28-1.91,1.16-.68,1.53,1.17,2.28,1.75v.16" fill="#ffb32b"/><path d="M258.16,249.15a1.32,1.32,0,0,1-1.59-.37l-1-1.16c.11-.32.64-.1,1-.16l1.59,1.7" fill="#ffb32b"/><path d="M256.46,249.36c-.26.11-.74.22-.95-.11l-1.33-1.53c1.06-.63,1.54.85,2.28,1.44v.2" fill="#ffb32b"/><path d="M247.28,249.63c-1.22.1-1.59-1.28-2.18-2,1.28-.2,1.65,1.28,2.18,2" fill="#ffb32b"/><path d="M255.14,249.36c-.38.37-.85.06-1.28.11-.26-.58-1.43-1.21-1-1.85,1.12-.06,1.54,1.06,2.29,1.74" fill="#ffb32b"/><path d="M248.82,249.63c-1.17.47-1.59-1.06-2.18-1.7v-.21c1.17-.2,1.59,1.33,2.18,1.91" fill="#ffb32b"/><path d="M250.25,249.52c-.16.48-.63,0-.95,0a5.58,5.58,0,0,1-1.22-1.8c1.22-.26,1.59,1.12,2.17,1.8" fill="#ffb32b"/><path d="M252.06,249.52c-1.38.74-1.75-1-2.5-1.59.22-.41.69,0,1.06,0,.43.58,1,1.07,1.44,1.59" fill="#ffb32b"/><path d="M253.49,249.47c-.27.42-.58-.11-1,.05-.54-.52-1.28-1.17-1.33-1.8,1.17-.26,1.54,1.17,2.28,1.75" fill="#ffb32b"/></svg>