<svg xmlns="http://www.w3.org/2000/svg" width="200" height="300"><path d="M168.53 92.26c-3.07-4.31-7.53-7.81-11.76-12.1l-21.83-24C114.45 75.78 91.42 70 85.88 61.67c-6 3.09-30.42 18.9-49.8-5.55l-1.35.42C24.1 68.64 12.52 80.34.74 92.05c18.69 17.62 10.33 43.49 9.24 67.47v2c0 4.95.34 12.87 1.54 17.48 1.72 6.8 2.89 13.55 7 19.3 0 0 11 14.62 18.67 19.59 1.77 1.23 3.32 1.79 4.56 2.7 1.38.47 2.62 1.2 4 1.74 2.25.86 4.67 1.41 7 2.19 4 1.36 8.12 2.7 12 4.43a72.08 72.08 0 017.25 3.73 38.94 38.94 0 0110.24 8.67c.81.87 1.58 1.72 2.29 2.53a10.54 10.54 0 012-2.21c6.51-8.51 18.62-13 20.21-13.49 4.35-2.47 10.07-4.19 15.35-6.21 7.16-3.32 14.28-6.59 20.35-12.84 1.41-1.21 8.18-10.36 8.18-10.36 7.63-13 9.16-22.46 8.83-37.43l-.07-2.55c-.45-11.8-1.92-29.14-2.63-40.63 2.32-9.25 4.25-19.16 11.78-25.9zm-12.68 11.08l-.92 2.38c-.12.47-.29.93-.45 1.41a14.66 14.66 0 00-.4 1.48l.07.1c-2.67 11.48-.57 24.11.8 36.75 0 .06.06.1.06.16v.65a7.87 7.87 0 01.19 1.68c.9 9 1.23 17.88-.92 26.39a69.89 69.89 0 01-2.87 11.28 19.63 19.63 0 01-1 3.9c.2-.26.1 0 .1 0h-.1c-.33.41-1.47 2.19-5.23 8.72-6 10.53-16.88 14.65-20.27 17.47s-19.8 8.44-21.25 9.48a.49.49 0 01-.54 0 6.93 6.93 0 01-1.42.46c-5.58 2.55-11.65 6-16.22 11-1.94-.18-2.89-3.05-4.81-4.08a65.87 65.87 0 00-11.22-6.13l-3.28-1.12a.76.76 0 01-.33 0 13.29 13.29 0 01-3.78-1.48L62 224a129.58 129.58 0 01-18.75-8.05h-.11l-.28-.15a4.72 4.72 0 00-1.74-.89.66.66 0 01-.55-.35c-9.94-6.17-19.28-15.44-22.45-28a64.06 64.06 0 01-3.25-14.09 12.81 12.81 0 01-.31-3c-1.36-16.56 2.29-33.34 1.79-50.2v-2.37h-.1a81 81 0 00-1-9.49 19.14 19.14 0 00-1.07-3.53h.05a4.52 4.52 0 01-.18-.47c-.17-.32-.34-.63-.48-1l-.24-.24-.79-1.6c-1.73-3-3.9-6-5.62-9 10.43-9.82 18.56-19.28 29-28.5 7 5.34 14.51 10.84 23.18 10.68 8.52.78 18.75-3.92 26.27-7.41 0 0 5.41 4.48 8.9 6 12.93 4.49 29-.42 40-9.84l.7-.72 27.89 30.27a32.72 32.72 0 00-7.01 11.29z"/></svg>