<svg xmlns="http://www.w3.org/2000/svg" width="600" height="330" viewBox="0 0 600 330"><title>flag-washington-dc-dimensions</title><rect x="25.38" y="1.54" width="542.49" height="271.24" stroke-width="0.9" stroke="#50d6cc" stroke-linecap="round" stroke-linejoin="round" fill="#fff"/><path d="M147.44,16.46,141,36.17H120.32l16.76,12.18-6.4,19.7,16.76-12.18,16.77,12.18-6.41-19.7,16.77-12.18H153.85Z" fill="#fff" stroke="#50d6cc" stroke-linecap="round" stroke-linejoin="round" stroke-width="0.9"/><rect x="25.38" y="82.92" width="542.49" height="54.25" stroke-width="0.9" stroke="#50d6cc" stroke-linecap="round" stroke-linejoin="round" fill="#fff"/><rect x="25.38" y="164.29" width="542.49" height="54.25" stroke-width="0.9" stroke="#50d6cc" stroke-linecap="round" stroke-linejoin="round" fill="#fff"/><path d="M296.63,16.46l-6.41,19.71H269.5l16.77,12.18-6.41,19.7,16.77-12.17,16.76,12.17L307,48.35l16.76-12.18H303Z" fill="#fff" stroke="#50d6cc" stroke-linecap="round" stroke-linejoin="round" stroke-width="0.9"/><path d="M445.81,16.46l-6.4,19.71H418.69l16.76,12.18-6.4,19.7,16.76-12.17,16.76,12.17-6.4-19.7,16.76-12.18H452.21Z" fill="#fff" stroke="#50d6cc" stroke-linecap="round" stroke-linejoin="round" stroke-width="0.9"/><polyline points="19.57 1.54 3.47 1.54 3.47 127.39" fill="none" stroke="#a3a3a3" stroke-linecap="round" stroke-linejoin="round" stroke-dasharray="5 5"/><polyline points="17.74 272.79 3.47 272.79 3.47 155.11" fill="none" stroke="#a3a3a3" stroke-linecap="round" stroke-linejoin="round" stroke-dasharray="5 5"/><path d="M4.31,147.68H3.12v-9.14L1,139.17l-.28-.66,2.77-1.46h.82Z"/><path d="M296.5,318.18a3,3,0,0,1,3.07,3,4.71,4.71,0,0,1-1.86,3.34,14.21,14.21,0,0,0-2.88,3.31h4.44a.24.24,0,0,0,.19-.07.23.23,0,0,1,.22-.08v1.19h-6.22v-.75a12.78,12.78,0,0,1,3.08-3.94c.77-.69,1.86-1.62,1.86-2.91a2,2,0,0,0-2-2,2.21,2.21,0,0,0-1.81,1c-.09.14-.05.25-.15.39l-.86-.69A3.45,3.45,0,0,1,296.5,318.18Z"/><polyline points="25.72 282.55 25.72 323.68 283.1 323.68" fill="none" stroke="#a3a3a3" stroke-linecap="round" stroke-linejoin="round" stroke-dasharray="5 5"/><polyline points="567.87 282.55 567.87 323.68 310.15 323.68" fill="none" stroke="#a3a3a3" stroke-linecap="round" stroke-linejoin="round" stroke-dasharray="5 5"/><path d="M440.28,302.08a1,1,0,1,1,1-1A1,1,0,0,1,440.28,302.08Z"/><path d="M449,291.22a3,3,0,0,1,3.08,3,4.76,4.76,0,0,1-1.87,3.34,13.93,13.93,0,0,0-2.88,3.3h4.44a.24.24,0,0,0,.19-.07.21.21,0,0,1,.22-.07v1.19H446v-.75a12.78,12.78,0,0,1,3.08-3.94c.77-.69,1.86-1.62,1.86-2.92a2,2,0,0,0-2-2,2.21,2.21,0,0,0-1.81,1c-.09.14-.05.24-.15.39l-.86-.69A3.44,3.44,0,0,1,449,291.22Z"/><polyline points="417.93 26.51 417.93 296.72 431.2 296.72" fill="none" stroke="#a3a3a3" stroke-linecap="round" stroke-linejoin="round" stroke-dasharray="5 5"/><polyline points="473.52 26.51 473.52 296.72 459.25 296.72" fill="none" stroke="#a3a3a3" stroke-linecap="round" stroke-linejoin="round" stroke-dasharray="5 5"/><path d="M291.18,302.08a1,1,0,1,1,1-1A1,1,0,0,1,291.18,302.08Z"/><path d="M299.91,291.22a3,3,0,0,1,3.07,3,4.76,4.76,0,0,1-1.86,3.34,13.93,13.93,0,0,0-2.88,3.3h4.44a.22.22,0,0,0,.18-.07.23.23,0,0,1,.23-.07v1.19h-6.22v-.75A12.64,12.64,0,0,1,300,297.2c.77-.69,1.85-1.62,1.85-2.92a2,2,0,0,0-2-2,2.21,2.21,0,0,0-1.81,1c-.09.14,0,.24-.15.39l-.86-.69A3.44,3.44,0,0,1,299.91,291.22Z"/><polyline points="268.83 26.51 268.83 296.72 282.1 296.72" fill="none" stroke="#a3a3a3" stroke-linecap="round" stroke-linejoin="round" stroke-dasharray="5 5"/><polyline points="324.42 26.51 324.42 296.72 310.15 296.72" fill="none" stroke="#a3a3a3" stroke-linecap="round" stroke-linejoin="round" stroke-dasharray="5 5"/><path d="M142,302.08a1,1,0,1,1,0-1.95,1,1,0,1,1,0,1.95Z"/><path d="M150.73,291.22a3,3,0,0,1,3.07,3,4.79,4.79,0,0,1-1.86,3.34,13.93,13.93,0,0,0-2.89,3.3h4.45a.22.22,0,0,0,.18-.07.22.22,0,0,1,.23-.07v1.19h-6.22v-.75a12.64,12.64,0,0,1,3.08-3.94c.76-.69,1.85-1.62,1.85-2.92a2,2,0,0,0-2-2,2.2,2.2,0,0,0-1.81,1c-.1.14-.05.24-.15.39l-.87-.69A3.46,3.46,0,0,1,150.73,291.22Z"/><polyline points="119.64 26.51 119.64 296.72 132.92 296.72" fill="none" stroke="#a3a3a3" stroke-linecap="round" stroke-linejoin="round" stroke-dasharray="5 5"/><polyline points="175.24 26.51 175.24 296.72 160.97 296.72" fill="none" stroke="#a3a3a3" stroke-linecap="round" stroke-linejoin="round" stroke-dasharray="5 5"/><path d="M62,302.08a1,1,0,1,1,1-1A1,1,0,0,1,62,302.08Z"/><path d="M71.8,296.24A2.84,2.84,0,0,1,73.62,299a3.09,3.09,0,0,1-3.26,3.1,3.71,3.71,0,0,1-2.79-1.21l.9-1.07c.15.15.07.32.22.48a2.26,2.26,0,0,0,1.65.72,2.13,2.13,0,0,0,2.14-2.16c0-1.26-1.06-2-2.49-2a3.27,3.27,0,0,0-.54,0v-1a3.85,3.85,0,0,0,1.67-.27A1.84,1.84,0,0,0,72.25,294a1.71,1.71,0,0,0-1.84-1.65,2.55,2.55,0,0,0-1.83.81l-.66-.73a3.46,3.46,0,0,1,2.55-1.14A2.79,2.79,0,0,1,73.38,294,2.44,2.44,0,0,1,71.8,296.24Z"/><path d="M82.07,291.3v1.07H77.7l-.16,3.05a3.78,3.78,0,0,1,1.72-.41,3.19,3.19,0,0,1,3.21,3.53,3.26,3.26,0,0,1-3.35,3.54A3.77,3.77,0,0,1,76,300.45l1.06-.79c.15.1.06.27.13.4a2.53,2.53,0,0,0,1.94,1,2.56,2.56,0,0,0,0-5.05,2.55,2.55,0,0,0-2,1l-.76-.31.36-5.38Z"/><line x1="25.72" y1="296.72" x2="55.62" y2="296.72" fill="none" stroke="#a3a3a3" stroke-linecap="round" stroke-linejoin="round" stroke-dasharray="5 5"/><line x1="119.64" y1="296.72" x2="90.17" y2="296.72" fill="none" stroke="#a3a3a3" stroke-linecap="round" stroke-linejoin="round" stroke-dasharray="5 5"/><path d="M211,302.08a1,1,0,1,1,1-1A1,1,0,0,1,211,302.08Z"/><path d="M220.82,296.24a2.84,2.84,0,0,1,1.82,2.73,3.09,3.09,0,0,1-3.26,3.1,3.71,3.71,0,0,1-2.79-1.21l.9-1.07c.15.15.07.32.22.48a2.26,2.26,0,0,0,1.65.72,2.13,2.13,0,0,0,2.14-2.16c0-1.26-1.06-2-2.49-2a3.27,3.27,0,0,0-.54,0v-1a3.85,3.85,0,0,0,1.67-.27,1.84,1.84,0,0,0,1.13-1.66,1.71,1.71,0,0,0-1.84-1.65,2.55,2.55,0,0,0-1.83.81l-.66-.73a3.46,3.46,0,0,1,2.55-1.14A2.79,2.79,0,0,1,222.4,294,2.44,2.44,0,0,1,220.82,296.24Z"/><path d="M231.09,291.3v1.07h-4.37l-.16,3.05a3.78,3.78,0,0,1,1.72-.41,3.19,3.19,0,0,1,3.21,3.53,3.26,3.26,0,0,1-3.35,3.54,3.77,3.77,0,0,1-3.14-1.63l1.06-.79c.15.1.06.27.13.4a2.53,2.53,0,0,0,1.94,1,2.56,2.56,0,0,0,0-5.05,2.55,2.55,0,0,0-2,1l-.76-.31.36-5.38Z"/><line x1="174.74" y1="296.72" x2="204.64" y2="296.72" fill="none" stroke="#a3a3a3" stroke-linecap="round" stroke-linejoin="round" stroke-dasharray="5 5"/><line x1="268.67" y1="296.72" x2="239.19" y2="296.72" fill="none" stroke="#a3a3a3" stroke-linecap="round" stroke-linejoin="round" stroke-dasharray="5 5"/><polyline points="573.53 82.92 592.64 82.92 592.64 51.31" fill="none" stroke="#a3a3a3" stroke-linecap="round" stroke-linejoin="round" stroke-dasharray="5 5"/><polyline points="575.37 1.54 592.64 1.54 592.64 21.59" fill="none" stroke="#a3a3a3" stroke-linecap="round" stroke-linejoin="round" stroke-dasharray="5 5"/><path d="M586.87,39.51a1,1,0,1,1,0-1.95,1,1,0,1,1,0,1.95Z"/><path d="M596.71,33.67a2.86,2.86,0,0,1,1.82,2.74,3.08,3.08,0,0,1-3.26,3.09,3.71,3.71,0,0,1-2.78-1.21l.89-1.07c.15.16.08.32.22.49a2.34,2.34,0,0,0,1.66.71,2.12,2.12,0,0,0,2.13-2.16c0-1.26-1-2-2.49-2a3.08,3.08,0,0,0-.53,0v-.95a4.27,4.27,0,0,0,1.67-.27,1.86,1.86,0,0,0,1.13-1.67,1.73,1.73,0,0,0-1.84-1.65,2.51,2.51,0,0,0-1.83.81l-.66-.73a3.43,3.43,0,0,1,2.54-1.13,2.78,2.78,0,0,1,2.92,2.68A2.44,2.44,0,0,1,596.71,33.67Z"/><polyline points="573.53 137.16 592.64 137.16 592.64 119.65" fill="none" stroke="#a3a3a3" stroke-linecap="round" stroke-linejoin="round" stroke-dasharray="5 5"/><line x1="592.64" y1="82.92" x2="592.64" y2="96.96" fill="none" stroke="#a3a3a3" stroke-linecap="round" stroke-linejoin="round" stroke-dasharray="5 5"/><path d="M586.87,114.38a1,1,0,1,1,1-1A1,1,0,0,1,586.87,114.38Z"/><path d="M595.6,103.52a3,3,0,0,1,3.07,3,4.76,4.76,0,0,1-1.86,3.34,13.79,13.79,0,0,0-2.88,3.31h4.44a.22.22,0,0,0,.18-.07s.12-.12.23-.08v1.19h-6.22v-.75a12.64,12.64,0,0,1,3.08-3.94c.77-.69,1.85-1.62,1.85-2.91a2,2,0,0,0-2-2,2.2,2.2,0,0,0-1.81,1c-.09.14,0,.24-.15.39l-.87-.69A3.47,3.47,0,0,1,595.6,103.52Z"/><polyline points="573.53 218.54 592.64 218.54 592.64 201.02" fill="none" stroke="#a3a3a3" stroke-linecap="round" stroke-linejoin="round" stroke-dasharray="5 5"/><line x1="592.64" y1="164.29" x2="592.64" y2="178.33" fill="none" stroke="#a3a3a3" stroke-linecap="round" stroke-linejoin="round" stroke-dasharray="5 5"/><path d="M586.87,195.75a1,1,0,1,1,0-1.95,1,1,0,1,1,0,1.95Z"/><path d="M595.6,184.9a3,3,0,0,1,3.07,3,4.73,4.73,0,0,1-1.86,3.34,14,14,0,0,0-2.88,3.31h4.44a.22.22,0,0,0,.18-.07.26.26,0,0,1,.23-.08v1.19h-6.22v-.75a12.64,12.64,0,0,1,3.08-3.94c.77-.69,1.85-1.62,1.85-2.91a2,2,0,0,0-2-2,2.19,2.19,0,0,0-1.81,1c-.09.14,0,.25-.15.39l-.87-.69A3.48,3.48,0,0,1,595.6,184.9Z"/><polyline points="573.53 272.79 592.64 272.79 592.64 255.27" fill="none" stroke="#a3a3a3" stroke-linecap="round" stroke-linejoin="round" stroke-dasharray="5 5"/><line x1="592.64" y1="218.54" x2="592.64" y2="232.58" fill="none" stroke="#a3a3a3" stroke-linecap="round" stroke-linejoin="round" stroke-dasharray="5 5"/><path d="M586.87,250a1,1,0,1,1,1-1A1,1,0,0,1,586.87,250Z"/><path d="M595.6,239.14a3,3,0,0,1,3.07,3,4.76,4.76,0,0,1-1.86,3.34,14,14,0,0,0-2.88,3.31h4.44a.22.22,0,0,0,.18-.07.26.26,0,0,1,.23-.08v1.19h-6.22v-.75a12.64,12.64,0,0,1,3.08-3.94c.77-.69,1.85-1.62,1.85-2.91a2,2,0,0,0-2-2,2.2,2.2,0,0,0-1.81,1c-.09.14,0,.25-.15.39l-.87-.69A3.47,3.47,0,0,1,595.6,239.14Z"/><line x1="573.53" y1="164.29" x2="592.64" y2="164.29" fill="none" stroke="#a3a3a3" stroke-linecap="round" stroke-linejoin="round" stroke-dasharray="5 5"/><path d="M586.87,155.61a1,1,0,1,1,1-1A1,1,0,0,1,586.87,155.61Z"/><path d="M596.4,155.43h-1.18V146.3l-2.13.63-.28-.66,2.77-1.46h.82Z"/><path d="M360.66,302.08a1,1,0,1,1,0-1.95,1,1,0,1,1,0,1.95Z"/><path d="M370.5,296.24a2.84,2.84,0,0,1,1.82,2.73,3.08,3.08,0,0,1-3.26,3.1,3.71,3.71,0,0,1-2.78-1.21l.89-1.07c.15.15.08.32.22.48a2.29,2.29,0,0,0,1.66.72,2.13,2.13,0,0,0,2.13-2.16c0-1.26-1.05-2-2.49-2a3.27,3.27,0,0,0-.54,0v-1a3.92,3.92,0,0,0,1.68-.27A1.86,1.86,0,0,0,371,294a1.72,1.72,0,0,0-1.84-1.65,2.51,2.51,0,0,0-1.83.81l-.66-.73a3.44,3.44,0,0,1,2.54-1.14,2.79,2.79,0,0,1,2.92,2.69A2.45,2.45,0,0,1,370.5,296.24Z"/><path d="M380.78,291.3v1.07H376.4l-.16,3.05A3.79,3.79,0,0,1,378,295a3.19,3.19,0,0,1,3.2,3.53,3.26,3.26,0,0,1-3.34,3.54,3.75,3.75,0,0,1-3.14-1.63l1.05-.79c.15.1.06.27.13.4a2.56,2.56,0,0,0,1.94,1,2.56,2.56,0,0,0,0-5.05,2.56,2.56,0,0,0-2,1l-.76-.31.37-5.38Z"/><line x1="324.42" y1="296.72" x2="354.33" y2="296.72" fill="none" stroke="#a3a3a3" stroke-linecap="round" stroke-linejoin="round" stroke-dasharray="5 5"/><line x1="418.35" y1="296.72" x2="388.88" y2="296.72" fill="none" stroke="#a3a3a3" stroke-linecap="round" stroke-linejoin="round" stroke-dasharray="5 5"/><path d="M509.76,302.08a1,1,0,1,1,1-1A1,1,0,0,1,509.76,302.08Z"/><path d="M519.6,296.24a2.84,2.84,0,0,1,1.82,2.73,3.08,3.08,0,0,1-3.26,3.1,3.71,3.71,0,0,1-2.78-1.21l.89-1.07c.15.15.08.32.22.48a2.29,2.29,0,0,0,1.66.72,2.13,2.13,0,0,0,2.13-2.16c0-1.26-1-2-2.49-2a3.08,3.08,0,0,0-.53,0v-1a3.9,3.9,0,0,0,1.67-.27,1.86,1.86,0,0,0,1.13-1.66,1.72,1.72,0,0,0-1.84-1.65,2.51,2.51,0,0,0-1.83.81l-.66-.73a3.46,3.46,0,0,1,2.54-1.14,2.79,2.79,0,0,1,2.92,2.69A2.45,2.45,0,0,1,519.6,296.24Z"/><path d="M529.88,291.3v1.07h-4.37l-.16,3.05a3.75,3.75,0,0,1,1.72-.41,3.19,3.19,0,0,1,3.2,3.53,3.26,3.26,0,0,1-3.34,3.54,3.75,3.75,0,0,1-3.14-1.63l1.06-.79c.14.1,0,.27.12.4a2.56,2.56,0,0,0,1.94,1,2.56,2.56,0,0,0,0-5.05,2.59,2.59,0,0,0-2,1l-.76-.31.37-5.38Z"/><line x1="473.53" y1="296.72" x2="503.43" y2="296.72" fill="none" stroke="#a3a3a3" stroke-linecap="round" stroke-linejoin="round" stroke-dasharray="5 5"/><line x1="567.45" y1="296.72" x2="537.98" y2="296.72" fill="none" stroke="#a3a3a3" stroke-linecap="round" stroke-linejoin="round" stroke-dasharray="5 5"/></svg>