<svg xmlns="http://www.w3.org/2000/svg" width="760" height="400"><path fill="#003776" d="M0 0h760v400H0z"/><path fill="#fff" d="M45.22 45.31h669.56v309.38H45.22z"/><path d="M301.2 201.57s22.85 30.37 25.23 33.7 61.4 82.82 58.07 107.1c0 0 2.14 2.14 6.42 0s.71-18.09-12.61-41.41-65.69-94.72-70.92-107.1c0 0-9.29 3.58-6.19 7.71z" fill="#008400" stroke="#000" stroke-miterlimit="10" stroke-width="1.43"/><path d="M303.9 204a194.44 194.44 0 00-11.74 19.67c-4.76 9.52-13.65 14.6-19.36 17.46s-7.62 6-7.62 8.25c0 0-7.61-14.6 13-48.87s31.75 3.8 25.72 3.49zM260.11 188.44c-1.31.55-29.83 0-52.68 22.53 0 0-2.85 7.93-7.61 10.15 0 0 25.38-1.58 32.05-1.58s12.69-6.35 17.77-8.25 8.56.81 20.3-9.43-2.22-16.59-9.83-13.42z" fill="#008400" stroke="#000" stroke-miterlimit="10" stroke-width="1.43"/><path d="M252.49 170s-20.62-3.49-22.84-6.67-23.17-2.22-29.83 1.91-10.16 6.66-13.33 6.34c0 0 24.12 12.31 35.86 14.57S256 190 261.69 191s10.79-23.82-9.2-21z" fill="#008400" stroke="#000" stroke-miterlimit="10" stroke-width="1.43"/><path d="M196.33 129.42s7.61 13 42.83 29.83 30.78-20.63 7.62-23.17-6.03-12.08-50.45-6.66zM303.9 105.62s-12.38-20.94-13-28.24-11.75-15.23-18.1-22.85c0 0-8.57 24.44 8.88 56.17s23.49 1.3 22.22-5.08z" fill="#008400" stroke="#000" stroke-miterlimit="10" stroke-width="1.43"/><path d="M332.16 55.37s-4.6 7.4-10.28 9.42-15.67 16.6-20.94 46 18.78 12.19 22 1.27 4.71-23 7.78-31.54 2.41-17.75 1.44-25.15zM346.1 132.59s27.61-14.28 34.91-30.46c0 0 2.53-6.35 0-15.87 0 0-9.84 3.95-15.24 5S332.14 112 330.55 119.9s8.12 17 15.55 12.69zM349.59 156.39s36.49-13 65.05-6c0 0-61.88 42.57-78.69 25.89s9.52-20.52 13.64-19.89z" fill="#008400" stroke="#000" stroke-miterlimit="10" stroke-width="1.43"/><path d="M226.66 207.94c4.37 1.35 8.74-.36 12.7-2.19 4.95-2.29 9.69-5.48 15.16-6.38.61-.1.35-1-.25-.92-4.62.76-8.79 3.17-12.91 5.26-4.35 2.2-9.47 4.85-14.44 3.31-.59-.18-.84.74-.26.92zM272.94 230.45c2.32-8.08 9.88-13.36 13.92-20.51a.48.48 0 00-.83-.48C282 216.68 274.37 222 272 230.2a.47.47 0 00.91.25zM210.13 175.91c15.65.16 30.87 8.78 46.45 3.31.58-.2.33-1.12-.25-.92-15.46 5.43-30.65-3.19-46.2-3.35a.48.48 0 000 1zM218.38 138.23a27.27 27.27 0 018.84 2.49 81.07 81.07 0 017.81 4.9c4.54 2.91 9.53 3.14 14.77 3.32.61 0 .61-.94 0-1a50.66 50.66 0 01-8.26-.66 21.16 21.16 0 01-7.93-3.79 32.41 32.41 0 00-15.23-6.26c-.61-.07-.6.88 0 1zM276.47 70.29c2.1 6.53 2.3 13.44 6 19.41s11.56 12.87 6 20.2c-.37.49.46 1 .83.48 4.62-6.06.4-12.51-3.47-17.7A31.13 31.13 0 01280.17 82c-1.07-4-1.53-8-2.79-11.94-.18-.58-1.1-.33-.91.26zM324.35 74c-4.69 6.61-8.49 13.51-9.9 21.58-1.1 6.31-.17 14.76-6.83 18.23-.54.28-.06 1.1.48.82 5.78-3 6.28-9.77 6.87-15.56.94-9.27 4.87-17.08 10.2-24.59.36-.5-.47-1-.82-.48zM364.74 107.53c-11.8.5-20 11-30.22 15.53-.56.25-.08 1.07.48.82 10-4.42 18.19-14.91 29.74-15.4.61 0 .62-1 0-1zM404.72 153.05c-9.66 4.87-21.06 2.89-31.2 6.17-11.41 3.7-23.11 6.49-34.37 10.67-.57.22-.32 1.14.25.92 11.54-4.28 23.53-7.15 35.23-10.95 10-3.23 21-1.17 30.57-6 .55-.28.07-1.1-.48-.82z"/><path d="M215.67 85.44s6.66 10.47 6.19 14.28 12.85 25.7 35.22 40 21.42 2.86 22.37-3.8-49.98-56.66-63.78-50.48z" fill="#008400" stroke="#000" stroke-miterlimit="10" stroke-width="1.43"/><path d="M230.09 101.49c8 6.8 14.59 15.05 22.1 22.36 6 5.87 14.72 11.09 16.81 19.79.14.6 1.06.34.91-.25-2-8.22-9.77-13.59-15.69-18.94-8.24-7.46-15-16.43-23.46-23.64-.46-.39-1.14.28-.67.68z"/><path fill="#fff" stroke="#000" stroke-miterlimit="10" stroke-width="1.43" d="M311.4 143.46l-31.13 6.62 21.59 21.35 9.54-27.97z"/><path fill="#fff" stroke="#000" stroke-miterlimit="10" stroke-width="1.43" d="M276.68 149.41l-6.92 18.09 15.7 9.76 2.66-25.01-11.44-2.84z"/><path d="M258.09 139.89s-10.15-7.61-16.81-2.22 0 8.57 2.85 9.84c0 0-11.74 1.58-9.83 11.1 0 0 4.15 9.52 13.5 2.86 0 0-4.78 6 0 11.74s46.79-24.43 10.29-33.32z" fill="#fff" stroke="#000" stroke-miterlimit="10" stroke-width="1.43"/><path d="M261.66 143.46s-9.94-.1-8.18 11.37 13.79 3.91 18.36 1.74-2.07-12.75-10.18-13.11zM267 133s-18.08-1-17.12-13.4 15.49-8.88 13.46-7.93c0 0-2.68-14 12.24-12.06 0 0 4.76 2.22 6 5.71 0 0 3.49-6.34 8.88-4.44s6 9.2 5.71 12.7S304.39 143.2 267 133z" fill="#fff" stroke="#000" stroke-miterlimit="10" stroke-width="1.43"/><path d="M285.76 113.25a2.93 2.93 0 00-.33-.56c-5.85-7.56-20.13-2.64-16.89 7.54 2.84 8.92 17.49 6.28 17.52-2.71a5.29 5.29 0 00.7-1.8 2.4 2.4 0 00-1-2.47z" fill="#ff0"/><path d="M273.44 114.77a1.43 1.43 0 000-2.86 1.43 1.43 0 000 2.86zM277.4 118.1a1.43 1.43 0 000-2.86 1.43 1.43 0 000 2.86z"/><path d="M276 134.9s-22.67-2.9-15-14.76c0 0 8-7.62 17.92 5 0 0-4.83-14.28 10.88-13.33 0 0 9.52 4.52 0 16.66S276 134.9 276 134.9z" fill="#fff" stroke="#000" stroke-miterlimit="10" stroke-width="1.43"/><path d="M327.82 114.9c-7.85-10.47-14.51-3.14-14.51-3.14.81-2.68-1.16-5.79-1.74-6.63l-.44-.37C295.45 95.84 294 113 294 113c-17.67 40.46 9.57 25.23 16.92 25.23s24.76-12.86 16.9-23.33z" fill="#fff" stroke="#000" stroke-miterlimit="10" stroke-width="1.43"/><path d="M320.13 122.06a2.39 2.39 0 00-.25-2.84c-2.34-2.73-5.23-5.14-8.94-5.45a6.71 6.71 0 00-6.17 3.51c-3.07 5.39 1.2 11.21 6.68 12.28 3.63.71 8.73-.25 9.11-4.74a6.28 6.28 0 00-.43-2.76z" fill="#ff0"/><path d="M312.41 118.92a1.43 1.43 0 000-2.85 1.43 1.43 0 000 2.85zM312.72 122.57a1.43 1.43 0 000-2.85 1.43 1.43 0 000 2.85zM306.85 120.51a1.43 1.43 0 000-2.86 1.43 1.43 0 000 2.86z"/><path d="M306 128.15s1.38-19.29-11.1-10.92-4.54 24.16-.68 25.2 18.54-6.18 11.78-14.28z" fill="#fff" stroke="#000" stroke-miterlimit="10" stroke-width="1.43"/><path d="M342.34 178.68s.15.33.35.86c.75 2 2.29 7.05-.35 9.06-3.33 2.54-7.3 3.17-15.07-.64 0 0 9.12 19.08-10.39 19.54 0 0-6.43-2.16-6.67-8.83 0 0-10.71 13.09-18.56 1.67 0 0-1.53-12.14 2.33-15 0 0-18.22-45.78 20.28-44.31s29.99 32.89 28.08 37.65z" fill="#fff" stroke="#000" stroke-miterlimit="10" stroke-width="1.43"/><path d="M308 185.64c0 6.18 4.16 11.25 10.49 11.57a7.54 7.54 0 006.48-2.91c1.67-2.33 1.05-5.23-.15-7.61-2.65-5.26-10.17-9.27-14.89-4.07a6.55 6.55 0 00-1 7.26c1.38 3.24 5.55 4.72 8.68 5.43a2.38 2.38 0 002.68-1.09c1.29-2.51 2.26-5.24 1-7.94-.94-2-3.41-2.55-5.38-2.27-4.95.71-6 6.17-2.45 9.26 1.07.91 3.05 1 3.74-.48a7.37 7.37 0 00-1.8-9.07 2.4 2.4 0 00-4.06 1.68 7.22 7.22 0 004 7.29c2.74 1.37 5.15-2.74 2.4-4.11-1.48-.74-1.76-1.55-1.67-3.18l-4.07 1.68c1 .88 1.68 2 1.06 3.31l3.74-.48a3.89 3.89 0 01-1-1.07c.16.29.12 0-.07.41.14-.33.33-.45 1.14-.61.21 0 .24.05.24.05-.1-.17 0 .27 0 .48a8.58 8.58 0 01-1 2.64l2.69-1.09c-2.14-.49-7.67-2.43-5.38-4.95 2.46-2.71 6.05 1.23 7.22 3.32 1.4 2.49-.07 3.46-2.54 3.34-3.59-.18-5.4-3.59-5.41-6.79s-4.76-3.07-4.76 0z" fill="#ff0"/><path d="M316.29 190.4a1.43 1.43 0 000-2.86 1.43 1.43 0 000 2.86zM316.29 195.16a1.43 1.43 0 000-2.86 1.43 1.43 0 000 2.86zM320.82 191.59a1.43 1.43 0 000-2.86 1.43 1.43 0 000 2.86z"/><path d="M342.38 165s12.29 8.13 0 13.3c0 0-17.75-6-23.47-17.24" fill="#fff" stroke="#000" stroke-miterlimit="10" stroke-width="1.43"/><path d="M315.21 167.5s-14.5 7.19-16.18 16.25 11.9 10.88 16.18 3.26c0 0 10 6.58 16-2.14s-.29-15.71-16-17.37z" fill="#fff" stroke="#000" stroke-miterlimit="10" stroke-width="1.43"/><path d="M316.13 148s-7.82-1.47-10.68 4.27 3.3 6.2 5.34 6.44c0 0-12.34-4-16.81 9.76s12.83 10.94 20.28 7.38 23.97-30.01 1.87-27.85z" fill="#fff" stroke="#000" stroke-miterlimit="10" stroke-width="1.43"/><path d="M284.43 121.17s-18.12-.69-10.17 14.57c0 0-19.37-10.76-20.78 6.69 0 0 .17 8.25 11 4.44 0 0-6.52 10.25 4.51 14.49 0 0 8.18.9 9.14-7.67 0 0 .23 10.24 12.13 10s7.38-12.61 3.81-13.56c0 0 10.47 2.61 10.23-5.95 0 0-3.09-11.19-11.9-9.76-.04 0 4.6-12.69-7.97-13.25z" fill="#fff" stroke="#000" stroke-miterlimit="10" stroke-width="1.43"/><path d="M278.1 168.58s-2.8-11.69-15.55-7.79-2.17 13.19-1.24 14.09-14.62.07-13.45 12.89c0 0 4.52 7 15.09 1.8 0 0-3 7.65 1.7 14.62 0 0 9.41 3.59 13.45-5.63 0 0 4.74 5.4 10.34 4.73S304.3 188 286.81 184c0 0 17.49-2.7 11.66-15.29s-14.62-5.6-20.37-.13zM322.35 128.91s-6.66-11 4.88-14.76c0 0 18.68-2.1 10.59 16.46 0 0 13.09-5 17.61 0s-.71 13.57-12.85 17.37c0 0 18.32 4.05 11.19 16.9s-21.19 1.19-21.19-2.86c0 0-7.72 17.85-23.61 7.38 0 0-6.37-14.75 12.43-19.51 0 0-22 1.88-20.68-15.95s22.66-2.83 21.63-5.03z" fill="#fff" stroke="#000" stroke-miterlimit="10" stroke-width="1.43"/><path d="M288.28 140a5 5 0 00-1.79-2.88 6.73 6.73 0 00-5.54-1.63 4 4 0 00-3.05 3.05 8.9 8.9 0 00-4.19 1.45 4.47 4.47 0 00-1.62 5.8c.82 1.7 2.75 2.47 4.51 2.66a6.11 6.11 0 004.14-1.26c3.26.67 7.37-.15 8.31-3.76a3.74 3.74 0 00-.77-3.43zm-11.63 3.12c-.18-.02-.35-.06 0-.01z" fill="#ff0"/><path d="M282.85 139.75a1.43 1.43 0 000-2.86 1.43 1.43 0 000 2.86zM277 142.76a1.43 1.43 0 000-2.86 1.43 1.43 0 000 2.86zM275.07 146.41a1.43 1.43 0 000-2.86 1.43 1.43 0 000 2.86zM281.89 146.89a1.43 1.43 0 000-2.86 1.43 1.43 0 000 2.86zM287.76 143.87a1.43 1.43 0 000-2.86 1.43 1.43 0 000 2.86z"/><path d="M283.7 175.15a6.77 6.77 0 00-.44-.48 2.67 2.67 0 00-.37-.46 3.67 3.67 0 00-.43-.37 3.19 3.19 0 00-.95-.91c-2.47-1.55-4.78-1.13-6.8.89-.76.76-2.69-.07-3.74-.15a8.59 8.59 0 00-5.1 1.88c-6.21 4.65-1.69 13.67 5.06 14.48 5.35.63 10.68-5.41 12.48-9.84.13-.32.24-.65.34-1a2.91 2.91 0 00-.05-4.04z" fill="#ff0"/><path d="M272.7 179a1.43 1.43 0 000-2.85 1.43 1.43 0 000 2.85zM270.16 183.46a1.43 1.43 0 000-2.86 1.43 1.43 0 000 2.86zM271.75 186.79a1.43 1.43 0 000-2.86 1.43 1.43 0 000 2.86zM276 183a1.43 1.43 0 000-2.86 1.43 1.43 0 000 2.86zM277.14 178.22a1.43 1.43 0 000-2.86 1.43 1.43 0 000 2.86z"/><path d="M337.39 141a3.48 3.48 0 00-.41-.56c-3.76-4.09-10.31-9.89-16.23-6.74-6.84 3.64-1.31 11.42 3 14.51s13 4.91 15.16-1.51a5.33 5.33 0 00-1.52-5.7z" fill="#ff0"/><path d="M333.94 146.69c.18-.55.37-1.11.59-1.65l-.3.72.12-.26a3.05 3.05 0 00-1.07-4.1 3 3 0 00-4.11 1.08 21.66 21.66 0 00-1 2.61 3 3 0 005.78 1.6z" fill="#ff0"/><path d="M327.72 140.66a1.43 1.43 0 000-2.86 1.43 1.43 0 000 2.86zM321.05 140.66a1.43 1.43 0 000-2.86 1.43 1.43 0 000 2.86zM323.67 145.18a1.43 1.43 0 000-2.86 1.43 1.43 0 000 2.86zM329.15 147.8a1.43 1.43 0 000-2.86 1.43 1.43 0 000 2.86zM333.35 142.48a1.43 1.43 0 000-2.85 1.43 1.43 0 000 2.85zM333.83 149a1.43 1.43 0 000-2.86 1.43 1.43 0 000 2.86z"/><path d="M446.93 86.55s-8.53 20.59 4.9 61.67 23.9 9.16 22.46-1.39-3.5-39.7-27.36-60.28zM534.43 111.84s-13.2 7.52-18.43 7.29-23.87 22.77-31 34.36 9.05 10.88 18.67 8.92 15.08-14.48 25-24 4.83-23.41 5.76-26.57zM573.51 151.2s-7.85 5.21-11.11 10.63-22.62 14.25-41.52 14.17-41-.7-2.57-19.17 39.03-13.49 55.2-5.63zM528.86 205.93s16.57-3.08 33.12 10.51c0 0 5.68 6.21 9.54 5.18 0 0-3.08 15.83-21 12.89s-42.62-5.92-43.92-14.32 19.21-13.98 22.26-14.26z" fill="#008400" stroke="#000" stroke-miterlimit="10" stroke-width="1.43"/><path d="M496.52 236.9s26.45 32.37 37.07 34.51c0 0 8.6-.34 9.92 2.1 0 0 4.58-6.7.51-11.65 0 0 2-8.48-1.57-12.93s-11.7-21-38.37-26.7-10.61 11.03-7.56 14.67zM490.15 247.26s-3.83 25.56 9.55 47.11c0 0 8.09 6.39 8.78 9a36.63 36.63 0 009.64-16.41c2.61-10.05-8.13-36.25-18.41-42.11s-9.37.8-9.56 2.41zM411.72 188.15s-27-20.49-28.14-26.41c0 0-5.66-15.66-3.09-19.83 0 0 17 2.49 40.56 20.2s-1.38 27.58-9.33 26.04zM430.26 233.76s-13.11 18.09-24.74 20.14-9.83-27 19.78-29.92 4.96 9.78 4.96 9.78z" fill="#008400" stroke="#000" stroke-miterlimit="10" stroke-width="1.43"/><path d="M453.9 108.45c6 13.19 15 32.05 7.49 46.39M531.76 122.05c-14.7 9.11-22.45 27.89-39 33.85" fill="none" stroke="#000" stroke-miterlimit="10" stroke-width=".95"/><path d="M512 173.27a120.72 120.72 0 0148-22" fill="none" stroke="#000" stroke-miterlimit="10" stroke-width="1.43"/><path d="M522.81 216.94c13.63 8 25.61 7.58 40.93 8.15M504.65 232.65c11.26 10.23 22.26 24.18 34.5 31.7M496.41 250.24c2.7 17.81 13.77 34.8 12.44 52.95M387.47 152.85c10.46 10.73 22 21.88 36.95 26.4" fill="none" stroke="#000" stroke-miterlimit="10" stroke-width=".95"/><path d="M456.41 244.5s-12.43.81-13.49 14.1 20.17 7.16 25.29-6.23-6.21-9.54-11.8-7.87z" fill="#008400" stroke="#000" stroke-miterlimit="10" stroke-width="1.43"/><path d="M457.76 251.63a33.64 33.64 0 00-9.3 11" fill="none" stroke="#000" stroke-miterlimit="10" stroke-width=".95"/><path d="M310.6 279.62s-45.22-13.32-83.3 10.95c0 0 18.09 6.19 28.56 10s38.08 4.76 61.4-3.81c0 0 8.09-16.66-6.66-17.14z" fill="#008400" stroke="#000" stroke-miterlimit="10" stroke-width="1.43"/><path d="M319.48 310.24S292.35 335.63 267.6 334c0 0-15.55-3-18.4.07 0 0 17.13-33.7 79.33-39.1z" fill="#008400" stroke="#000" stroke-miterlimit="10" stroke-width="1.43"/><path d="M316.15 307.39s-6.66 24.75 0 38.08a73.21 73.21 0 0114.6-5.71c8.25-2.23 20.94-27.41 17.45-36.39s-19.99-5.18-32.05 4.02zM334.56 232.18s-6.35-12.05-4.13-48.23c0 0 3.17-5.39 7.62-3.17s17.13 9.52 13.64 48.87c0 0-4.76 7.93-17.13 2.53z" fill="#008400" stroke="#000" stroke-miterlimit="10" stroke-width="1.43"/><path d="M350.11 235.67s1.58-40.29 30.14-57.75c0 0 16.5 17.46-2.22 54.26s-22.15 5.23-27.92 3.49zM385 235.36s9.84-16.5 32.68-16.82 6 20.94-16.34 33-17.6-13.69-16.34-17.48M406.15 262.49s25.82-11.43 43.91-4.29c0 0 15.47 12.38 21.18 11.43 0 0-19.28 19.27-66.64 3.33 0 .04-.11-9.79 1.55-10.47zM392.94 286.45c1.26.34 25.39 4.5 27.93 35.41 0 0 1.27 7.11 2.85 9.65s-29.51-1.39-45.37-28.14 11-17.91 14.59-16.92z" fill="#008400" stroke="#000" stroke-miterlimit="10" stroke-width="1.43"/><path d="M394.21 282s19.68 18.09 27.93 18.41c0 0 14.91 18.78 47.91 7.8 0 0-17.77-27.48-37.92-32.24s-36.01-3.49-37.92 6.03z" fill="#008400" stroke="#000" stroke-miterlimit="10" stroke-width="1.43"/><path d="M336.78 185.14c-3.3 12.27 4.39 29.44 5.47 42.6M374.86 192.76c-9.38 13.13-9.59 30.73-8.57 46.41M410.79 232.74a58.16 58.16 0 00-21.42 10.71M456.72 270c-14-6.65-33.35-.8-48.86-1.91M452.28 302.31c-15.92-10.44-37.94-12.22-50.13-26.65M412.62 319.76c-10.39-10.13-18.82-24.65-33-30.14M335.51 307.39c-3.91 8.93-8 18.21-9.52 27.61M272.36 323.57c12-6.52 23.91-13.31 37.13-16.82M260.38 290.57c16-5 33.58 1 49.74-3.33" fill="none" stroke="#000" stroke-miterlimit="10" stroke-width=".95"/><path fill="#fff" stroke="#000" stroke-miterlimit="10" stroke-width="1.43" d="M356.77 251.87l-20.73 24.15 30.11 3.87-9.38-28.02z"/><path fill="#fff" stroke="#000" stroke-miterlimit="10" stroke-width="1.43" d="M332.78 277.67l5.47 18.58 18.41-1.78-13.07-21.49-10.81 4.69z"/><path d="M312.23 281.38s-12.69.11-14.71 8.45 5.2 6.8 8.24 6.08c0 0-8.37 8.39-1.08 14.8 0 0 9.08 5 12.46-5.93 0 0-.14 7.7 7.13 9.33s22.36-47.81-12.04-32.73z" fill="#fff" stroke="#000" stroke-miterlimit="10" stroke-width="1.43"/><path d="M317.23 282.06s-8 5.95.4 14 13.33-5.26 15.65-9.76-9.38-8.88-16.05-4.24zM315.09 270.51s-15 10.15-21.74-.26 6.92-16.47 5.88-14.47c0 0-10.59-9.48 2.42-17 0 0 5.13-1.12 8.25.88 0 0-1.07-7.16 4.37-8.92s10.38 3.66 12.24 6.62 24.49 18.56-11.42 33.15z" fill="#fff" stroke="#000" stroke-miterlimit="10" stroke-width="1.43"/><path d="M320.79 246.51a5.69 5.69 0 00-.6-2 2 2 0 00-2.26-1.17 1 1 0 00-.16-.06 10.5 10.5 0 00-11.66 4.7 8.7 8.7 0 002.78 11.67c3.55 2.34 8.5 1 11.1-2.05 2.45-2.94 3.38-8.02.8-11.09z" fill="#ff0"/><path d="M308.31 252.4a1.43 1.43 0 000-2.86 1.43 1.43 0 000 2.86zM313.49 252.64a1.43 1.43 0 000-2.86 1.43 1.43 0 000 2.86z"/><path d="M323.43 266.55S303.68 278 302.51 264c0 0 1.74-10.91 17.28-6.9 0 0-12.51-8.42.56-17.19 0 0 10.31-2.19 10.1 13.24s-7.02 13.4-7.02 13.4z" fill="#fff" stroke="#000" stroke-miterlimit="10" stroke-width="1.43"/><path d="M352.49 219.21c-12.6-3.56-13.45 6.31-13.45 6.31-1-2.63-4.43-3.9-5.4-4.21h-.57c-17.88 2.43-8.64 17-8.64 17 10.51 42.88 22.92 14.24 28.76 9.78s11.89-25.33-.7-28.88z" fill="#fff" stroke="#000" stroke-miterlimit="10" stroke-width="1.43"/><path d="M352.35 231a6.79 6.79 0 00-1.54-1.38 2 2 0 00-1.7-2.08c-4.75-1-11.95-1-13.39 4.9-1 4.22 2.16 8.53 6.29 9.35 5.35 1.06 15.16-4.79 10.34-10.79z" fill="#ff0"/><path d="M341.8 232.05a1.43 1.43 0 000-2.86 1.43 1.43 0 000 2.86zM344.27 234.76a1.43 1.43 0 000-2.86 1.43 1.43 0 000 2.86zM338.35 236.68a1.43 1.43 0 000-2.85 1.43 1.43 0 000 2.85z"/><path d="M343.14 243s-10.61-16.17-15.45-1.94 11.05 22 14.76 20.43 11.02-16.18.69-18.49z" fill="#fff" stroke="#000" stroke-miterlimit="10" stroke-width="1.43"/><path d="M402.73 261.09s.31.17.8.47c1.82 1.14 6.1 4.22 5.22 7.41-1.11 4-3.87 6.95-12.37 8.64 0 0 18.83 9.63 3.6 21.83 0 0-6.42 2.19-10.65-3 0 0-.57 16.9-13.74 12.59 0 0-8.59-8.72-7.25-13.33 0 0-42.27-25.33-10.77-47.53s43.79 7.98 45.16 12.92z" fill="#fff" stroke="#000" stroke-miterlimit="10" stroke-width="1.43"/><path d="M397.68 281.58c-1.45-3.18-5.77-4.36-8.9-4.72-5-.58-9.53 3.07-9.41 8a1.84 1.84 0 00.09 2.34c2.29 3 5.17 4.92 9 5.12a10.54 10.54 0 007.9-3.26 6.6 6.6 0 001.32-7.48z" fill="#ff0"/><path d="M388.27 286.5a1.43 1.43 0 000-2.86 1.43 1.43 0 000 2.86zM391.16 290.28a1.43 1.43 0 000-2.85 1.43 1.43 0 000 2.85zM392.59 284.7a1.43 1.43 0 000-2.85 1.43 1.43 0 000 2.85z"/><path d="M394.43 250.16s14.7-1 8.07 10.57c0 0-17.74 6-29.11.54" fill="#fff" stroke="#000" stroke-miterlimit="10" stroke-width="1.43"/><path d="M374.38 268.66s-7.16 14.52-3 22.74 16.06 1.43 14.84-7.23c0 0 12-.85 11.38-11.38s-9.72-12.34-23.22-4.13z" fill="#fff" stroke="#000" stroke-miterlimit="10" stroke-width="1.43"/><path d="M363.27 252.6s-7.11 3.57-5.9 9.86 6.39 2.93 8.15 1.89c0 0-12.26 4.27-7.44 17.95s16.84.91 20.6-6.44.85-38.38-15.41-23.26z" fill="#fff" stroke="#000" stroke-miterlimit="10" stroke-width="1.43"/><path d="M321.8 250.52s-14.8 10.48.76 17.75c0 0-21.93 3.21-12.46 17.93 0 0 5.15 6.46 11.41-3.12 0 0 1 12.11 12.38 8.77 0 0 7.05-4.24 2.61-11.63 0 0 6.4 8 15.71.58s-1.79-14.5-5.21-13.09c0 0 9.92-4.28 4.53-10.94 0 0-9.25-7-15.38-.53 0 0-4.05-12.88-14.35-5.72z" fill="#fff" stroke="#000" stroke-miterlimit="10" stroke-width="1.43"/><path d="M345.54 292.05s-9.32-7.6-17.09 3.24 6.28 11.8 7.57 11.95-11.57 8.93-2.87 18.41c0 0 7.83 2.8 13.09-7.73 0 0 2.28 7.88 10.22 10.59 0 0 9.66-2.85 7.28-12.63 0 0 7 1.41 11.08-2.52s3.33-21.78-13-14.38c0 0 12.26-12.76 0-19.23s-15.03 4.46-16.28 12.3zM356.63 233.66s-12-4.7-5.07-14.7c0 0 13.57-13 18.4 6.66 0 0 7.38-11.91 14-10.68s7.67 11.21.33 21.6c0 0 17-7.9 19.15 6.64s-16.12 13.8-18.57 10.59c0 0 4.69 18.87-14.3 20.19 0 0-14-7.86-2-23 0 0-16.31 14.82-26.11-.12s16.33-16.06 14.17-17.18z" fill="#fff" stroke="#000" stroke-miterlimit="10" stroke-width="1.43"/><path d="M338.82 265.08a3.64 3.64 0 00-2.59-2 4.76 4.76 0 00-2-1 7.72 7.72 0 00-4.87.61 5.08 5.08 0 00-1.94 1.74 4.31 4.31 0 00-.52 3.16 3.06 3.06 0 00.22.77 9.33 9.33 0 00-2.52 3.9 4.37 4.37 0 002 5.15 5.43 5.43 0 005.32-.34 6.51 6.51 0 002.66-3.61 9 9 0 003.76-3.1 5.47 5.47 0 00.48-5.28z" fill="#ff0"/><path d="M331 266.54a1.43 1.43 0 000-2.85 1.43 1.43 0 000 2.85zM328.11 272.5a1.43 1.43 0 000-2.86 1.43 1.43 0 000 2.86zM328.81 276.56a1.43 1.43 0 000-2.86 1.43 1.43 0 000 2.86zM334.52 272.79a1.43 1.43 0 000-2.85 1.43 1.43 0 000 2.85zM337.36 266.84a1.43 1.43 0 000-2.86 1.43 1.43 0 000 2.86z"/><path d="M357.17 299.72a13.1 13.1 0 00-.65-2.59 2.87 2.87 0 00-2.14-3.19c-.34-.07-.65-.12-1-.16a3.86 3.86 0 00-.79-.17 2.8 2.8 0 00-1.37-.2c-2.78.26-4.76 1.55-5.15 4.46-.19 1.38-1.15 1.37-2.36 2a8.19 8.19 0 00-3.32 4.06c-2.88 6.72 4.75 13.09 11.16 10.2 5.07-2.25 6.45-9.51 5.62-14.41z" fill="#ff0"/><path d="M346.71 303.91a1.43 1.43 0 000-2.86 1.43 1.43 0 000 2.86zM347.39 309a1.43 1.43 0 000-2.86 1.43 1.43 0 000 2.86zM350.68 310.66a1.43 1.43 0 000-2.85 1.43 1.43 0 000 2.85zM351.77 305a1.43 1.43 0 000-2.86 1.43 1.43 0 000 2.86zM349.76 300.58a1.43 1.43 0 000-2.85 1.43 1.43 0 000 2.85z"/><path d="M380.86 238.86a5.46 5.46 0 00-4.2-4.46 3.11 3.11 0 00-1-.37c-5.78-1-13.85-1.73-17.25 4.14-3.66 6.3 4.4 9.48 9.15 10 4.98.48 14.74-2.69 13.3-9.31z" fill="#ff0"/><path d="M376.75 241.08a16.66 16.66 0 01-.59-1.94 3 3 0 00-3.69-2.1 3.05 3.05 0 00-2.09 3.69 14.61 14.61 0 00.59 2 3 3 0 005.78-1.6z" fill="#ff0"/><path d="M367.16 240a1.43 1.43 0 000-2.85 1.43 1.43 0 000 2.85zM361.87 244.08a1.43 1.43 0 000-2.86 1.43 1.43 0 000 2.86zM366.69 246.08a1.43 1.43 0 000-2.85 1.43 1.43 0 000 2.85zM372.63 244.84a1.43 1.43 0 000-2.85 1.43 1.43 0 000 2.85zM372.75 238.07a1.43 1.43 0 000-2.86 1.43 1.43 0 000 2.86zM377.08 243a1.43 1.43 0 000-2.86 1.43 1.43 0 000 2.86z"/><path fill="#fff" stroke="#000" stroke-miterlimit="10" stroke-width="1.43" d="M493.31 189.34l-38.27-1.77 18.64 31.45 19.63-29.68z"/><path fill="#fff" stroke="#000" stroke-miterlimit="10" stroke-width="1.43" d="M451.07 185.7l-13.57 18.96 15.31 16.16 10.71-28.33-12.45-6.79z"/><path d="M432.33 169s-9.5-12-18.9-7.71-2.61 10 .33 12.33c0 0-14.15-1.72-14.84 10 0 0 1.94 12.35 14.85 7.44 0 0-7.4 5.56-3.58 13.67s61.92-14.32 22.14-35.73z" fill="#fff" stroke="#000" stroke-miterlimit="10" stroke-width="1.43"/><path d="M435.4 174.2s-11.55-3.15-13 10.75 14.87 8.76 20.86 7.63 1.47-15.5-7.86-18.38zM444.77 163.6s-20.73-6.69-15.85-20.82 20.75-5.63 18.08-5.14c0 0 1.15-17.08 17.93-10.32 0 0 4.86 4 5.28 8.49 0 0 6-6.34 11.7-2.47s4.21 12.55 2.78 16.52.53 37.05-39.92 13.74z" fill="#fff" stroke="#000" stroke-miterlimit="10" stroke-width="1.43"/><path d="M472.21 146.54a2.74 2.74 0 00-.18-.71 11.91 11.91 0 00-12.34-7c-5.23.72-9.37 5.44-8.65 10.82s5.42 8.6 10.53 8.51c4.1-.08 8.75-2.87 9.71-7.05a5.4 5.4 0 001.36-1.85 2.41 2.41 0 00-.43-2.72z" fill="#ff0"/><path d="M458.28 144.12a1.43 1.43 0 000-2.86 1.43 1.43 0 000 2.86zM461.89 149.21a1.43 1.43 0 000-2.86 1.43 1.43 0 000 2.86z"/><path d="M454.7 168.59s-25.51-10.24-13-21.78c0 0 11.63-6.44 19.34 11.28 0 0-1.28-18.11 16.72-12.22 0 0 9.7 8.17-5.08 19.41s-17.98 3.31-17.98 3.31z" fill="#fff" stroke="#000" stroke-miterlimit="10" stroke-width="1.43"/><path d="M521.12 161.07c-6-14.59-15.94-8.08-15.94-8.08 1.77-2.88.42-7.09 0-8.25l-.39-.57c-15.54-15.17-22.48 4.38-22.48 4.38-32.89 41.75 3.46 32.3 12 34.54s32.77-7.43 26.81-22.02z" fill="#fff" stroke="#000" stroke-miterlimit="10" stroke-width="1.43"/><path d="M510.14 163.93c-1.84-3.78-4.5-7.7-8.74-8.94a7.6 7.6 0 00-7.87 2.62 9.47 9.47 0 00-1.71 8.61c1.1 3.82 4.58 6.15 8.15 7.37 3.73 1.28 8.77.13 9.47-4.32a7.91 7.91 0 000-2.33 2.4 2.4 0 00.7-3.01z" fill="#ff0"/><path d="M502.39 160.82a1.43 1.43 0 000-2.85 1.43 1.43 0 000 2.85zM501.64 165.17a1.43 1.43 0 000-2.86 1.43 1.43 0 000 2.86zM495.44 161a1.43 1.43 0 000-2.86 1.43 1.43 0 000 2.86z"/><path d="M491.62 169.84s7.49-22.05-9.59-16.1-12.65 26.77-8.47 29.15 23.53-1.54 18.06-13.05z" fill="#fff" stroke="#000" stroke-miterlimit="10" stroke-width="1.43"/><path d="M518.59 239.8s.07.42.14 1.1c.27 2.58.52 8.92-3.16 10.45-4.65 1.94-9.47 1.48-17.36-5.33 0 0 4.81 25-18 19.6 0 0-6.82-4.48-5.06-12.32 0 0-16.46 12-22.12-3.71 0 0 1.91-14.61 7.27-16.76 0 0-7.25-58.88 37.12-45.44s24.84 47.45 21.17 52.41z" fill="#fff" stroke="#000" stroke-miterlimit="10" stroke-width="1.43"/><path d="M495.23 243.88c-1.44-6.6-8.57-13.41-15.39-8.95-.42.27-2.65 1.57-2.92 2.6-1.81 6.95 1.34 14.07 8.49 16.15a8.6 8.6 0 007.75-1.29c2.58-2.08 2.73-5.52 2.07-8.51z" fill="#ff0"/><path d="M485.13 245.28a1.43 1.43 0 000-2.86 1.43 1.43 0 000 2.86zM483.68 250.82a1.43 1.43 0 000-2.85 1.43 1.43 0 000 2.85zM490 248a1.43 1.43 0 000-2.85 1.43 1.43 0 000 2.85z"/><path d="M522.81 223.83s11.83 13.2-4 15.48c0 0-18.83-12.38-22.07-27.22" fill="#fff" stroke="#000" stroke-miterlimit="10" stroke-width="1.43"/><path d="M490.41 218.51s-19.07 4-23.79 14 10.54 16.3 17.85 8.74c0 0 9.66 10.7 19.21 2.35s4.51-18.37-13.27-25.09z" fill="#fff" stroke="#000" stroke-miterlimit="10" stroke-width="1.43"/><path d="M497.43 196.05s-8.66-4.1-13.73 1.71 1.95 8.24 4.25 9.14c0 0-13.14-8.47-22.55 6.25s11.6 16.65 21.37 14.77 37.04-27.64 10.66-31.87z" fill="#fff" stroke="#000" stroke-miterlimit="10" stroke-width="1.43"/><path d="M468.7 155.16s-20.89-6.32-16.28 13.87c0 0-19.27-18.43-26.24 1.47 0 0-2.31 9.67 11.41 8.52 0 0-10.71 9.95.84 18.25 0 0 9.25 3.54 13-6.15 0 0-2.84 12 11.08 15.34s12.43-12.45 8.57-14.64c0 0 11.39 6.23 13.73-3.82 0 0-.2-14-10.88-15-.03 0 9.19-13.38-5.23-17.84z" fill="#fff" stroke="#000" stroke-miterlimit="10" stroke-width="1.43"/><path d="M446.88 208.47s.3-14.48-15.73-13.82-6.55 14.71-5.74 16-17-4.36-19.58 10.93c0 0 3.14 9.5 17 6.69 0 0-5.77 8-2.47 17.54 0 0 9.86 7.06 17.37-2.45 0 0 3.88 7.73 10.6 8.65s23.12-13 4-23c0 0 21.19 2.19 18.24-14.26s-15.33-10.9-23.69-6.28zM510.48 175.72s-4.4-14.84 10.18-15.71c0 0 22.39 3.24 7.31 22.4 0 0 16.77-1.83 20.51 5.37s-5 15.59-20.26 16.33c0 0 20.1 10.29 7.88 23.09s-25-5.07-23.79-9.78c0 0-14.44 18.44-29.74 1.4 0 0-2.92-19.13 20.41-18.95 0 0-26.14-4.49-19.21-24.87s27.23 3.6 26.71.72z" fill="#fff" stroke="#000" stroke-miterlimit="10" stroke-width="1.43"/><path d="M466.9 178.36a5.6 5.6 0 00-1.06-3.63 7.66 7.66 0 00-5.32-3.4 4.52 4.52 0 00-4.45 2.65 10.52 10.52 0 00-5.45.36 4.81 4.81 0 00-3.27 5.55c.37 2 2.21 3.43 4 4.12a7 7 0 005.12-.26 9.46 9.46 0 005.34 1.31 6.16 6.16 0 005-2.86 4 4 0 00.09-3.84zm-14.41.86z" fill="#ff0"/><path d="M461.63 176.08a1.43 1.43 0 000-2.85 1.43 1.43 0 000 2.85zM453.87 177.81a1.43 1.43 0 000-2.86 1.43 1.43 0 000 2.86zM450.55 181.48a1.43 1.43 0 000-2.86 1.43 1.43 0 000 2.86zM458.34 184.11a1.43 1.43 0 000-2.86 1.43 1.43 0 000 2.86zM466.09 182.39a1.43 1.43 0 000-2.86 1.43 1.43 0 000 2.86z"/><path d="M450.88 218.14c-.14-.29-.28-.56-.43-.81a4.73 4.73 0 00-.6-1 3.1 3.1 0 00-.75-1.28 6.19 6.19 0 00-4.22-2.1c-1.52-.16-2.95 1.75-4.27 1.5-1.92-.37-3.42-1.57-5.47-1.79a9.36 9.36 0 00-5.16 1.13c-6.29 3.65-5.58 14.7 1.84 16.82 6 1.7 12.75-2 16.56-6.47a14.8 14.8 0 001.21-1.64 3.52 3.52 0 001.29-4.36z" fill="#ff0"/><path d="M437.85 218.74a1.43 1.43 0 000-2.85 1.43 1.43 0 000 2.85zM433.54 223.15a1.43 1.43 0 000-2.86 1.43 1.43 0 000 2.86zM434.37 227.51a1.43 1.43 0 000-2.86 1.43 1.43 0 000 2.86zM440.52 224.38a1.43 1.43 0 000-2.86 1.43 1.43 0 000 2.86zM443.26 219.17a1.43 1.43 0 000-2.86 1.43 1.43 0 000 2.86z"/><path d="M523.78 194.84a2.86 2.86 0 00-.31-.92c-3.24-6.13-8.63-14-16.54-12.43-7.75 1.57-4.14 11.38-1.25 15.48 3.37 4.78 12 10.53 17.28 5.31 2.4-2.37 2.19-4.97.82-7.44z" fill="#ff0"/><path d="M518 199.67c.37-.57.74-1.14 1.15-1.68l-.47.61.26-.32a3 3 0 000-4.24 3 3 0 00-4.24 0 28.14 28.14 0 00-1.88 2.6 3 3 0 105.18 3z" fill="#ff0"/><path d="M513.59 190.81a1.43 1.43 0 000-2.86 1.43 1.43 0 000 2.86zM505.83 188.78a1.43 1.43 0 000-2.86 1.43 1.43 0 000 2.86zM507.5 194.84a1.43 1.43 0 000-2.85 1.43 1.43 0 000 2.85zM513.07 199.56a1.43 1.43 0 000-2.85 1.43 1.43 0 000 2.85zM519.59 194.65a1.43 1.43 0 000-2.86 1.43 1.43 0 000 2.86zM518.16 202.37a1.43 1.43 0 000-2.86 1.43 1.43 0 000 2.86z"/></svg>