<svg xmlns="http://www.w3.org/2000/svg" width="300" height="300" viewBox="0 0 300 300"><title>flag-oregon-icon-stars</title><path d="M7.26,91.29l2.5,3.94,3.92.5-2.62,3.48.64,4.41-4-2L3.3,103.14l1-3.92L1.57,95.73l4-.5,1.68-3.94" fill="none" stroke="#000" stroke-linecap="round" stroke-linejoin="round" stroke-width="1.5"/><path d="M7.18,74,9.69,78l3.91.49L11,81.94l.65,4.41-4-2L3.23,85.87l1-3.92L1.5,78.45l4-.49L7.18,74" fill="none" stroke="#000" stroke-linecap="round" stroke-linejoin="round" stroke-width="1.5"/><path d="M12.38,54.74l2,4.24,3.82,1-3,3.13.1,4.47-3.76-2.43L7,66l1.46-3.77L6.2,58.45h4l2.14-3.73" fill="none" stroke="#000" stroke-linecap="round" stroke-linejoin="round" stroke-width="1.5"/><path d="M18.6,37l2,4.23,3.83,1-3,3.15.09,4.46-3.75-2.43-4.52.92,1.47-3.78-2.28-3.8,4,0L18.6,37" fill="none" stroke="#000" stroke-linecap="round" stroke-linejoin="round" stroke-width="1.5"/><path d="M8.45,107.87,11,111.8l3.92.42-2.57,3.52.7,4.42L9,118.25l-4.34,1.54.93-3.94L2.83,112.4l4-.54,1.61-4" fill="none" stroke="#000" stroke-linecap="round" stroke-linejoin="round" stroke-width="1.5"/><path d="M10.57,125.66l2.57,3.92,3.92.46-2.57,3.51.7,4.41-4-1.91-4.35,1.53.93-3.93L5,130.2l4-.54,1.61-4" fill="none" stroke="#000" stroke-linecap="round" stroke-linejoin="round" stroke-width="1.5"/><path d="M16.46,142l2.75,3.8,3.94.26-2.41,3.64.92,4.36-4.14-1.7-4.28,1.73.75-4-2.93-3.32,4-.71L16.46,142" fill="none" stroke="#000" stroke-linecap="round" stroke-linejoin="round" stroke-width="1.5"/><path d="M22.22,156.9,25,160.7l3.94.23L26.5,164.6l.92,4.35-4.14-1.7L19,169l.75-4-2.93-3.31,4-.74,1.43-4" fill="none" stroke="#000" stroke-linecap="round" stroke-linejoin="round" stroke-width="1.5"/><path d="M31.11,172.46l2.75,3.8,3.94.25-2.4,3.63.92,4.37-4.15-1.69-4.27,1.72.75-4-2.93-3.32,4-.74,1.42-4" fill="none" stroke="#000" stroke-linecap="round" stroke-linejoin="round" stroke-width="1.5"/><path d="M40.75,187.29l2.75,3.8,3.93.23L45,195l.91,4.37-4.14-1.7-4.27,1.71.74-4-2.92-3.31,4-.74,1.42-4.05" fill="none" stroke="#000" stroke-linecap="round" stroke-linejoin="round" stroke-width="1.5"/><path d="M51.62,200.63l2.75,3.8,3.94.24-2.41,3.64.92,4.37L52.68,211l-4.28,1.74.75-4-2.93-3.3,4-.74,1.43-4.05" fill="none" stroke="#000" stroke-linecap="round" stroke-linejoin="round" stroke-width="1.5"/><path d="M65.21,213.22,68,217l3.93.25-2.39,3.64.9,4.36-4.13-1.7L62,225.3l.75-4L59.81,218l4-.74,1.42-4.05" fill="none" stroke="#000" stroke-linecap="round" stroke-linejoin="round" stroke-width="1.5"/><path d="M80.54,222.83l2.42,4,3.9.59-2.7,3.42.55,4.43-4-2-4.41,1.36,1.07-3.9-2.63-3.54,4-.4,1.76-3.92" fill="none" stroke="#000" stroke-linecap="round" stroke-linejoin="round" stroke-width="1.5"/><path d="M94.24,232.81l2.42,4,3.9.59-2.7,3.42.55,4.43-4-2L90,244.57l1.08-3.9-2.64-3.54,4-.41,1.76-3.91" fill="none" stroke="#000" stroke-linecap="round" stroke-linejoin="round" stroke-width="1.5"/><path d="M109.8,241.71l2.43,4,3.89.58-2.7,3.43.55,4.43-4-2.05-4.4,1.36,1.07-3.89L104,246l4-.38,1.75-3.92" fill="none" stroke="#000" stroke-linecap="round" stroke-linejoin="round" stroke-width="1.5"/><path d="M128.32,247.14l2.43,4,3.9.58-2.7,3.44.55,4.42-4-2-4.41,1.36,1.08-3.9-2.64-3.56,4-.38,1.75-3.92" fill="none" stroke="#000" stroke-linecap="round" stroke-linejoin="round" stroke-width="1.5"/><path d="M147.35,250.59l2.42,4,3.9.57L151,258.61l.54,4.42-4-2-4.41,1.36,1.08-3.89-2.64-3.54,4-.39,1.75-3.94" fill="none" stroke="#000" stroke-linecap="round" stroke-linejoin="round" stroke-width="1.5"/><path d="M286.57,92.75l-2.52,4-3.91.49,2.62,3.48-.63,4.41,4-1.94,4.37,1.45-1-3.92,2.72-3.48-4-.49-1.67-4" fill="none" stroke="#000" stroke-linecap="round" stroke-linejoin="round" stroke-width="1.5"/><path d="M286.64,75.48l-2.51,4-3.91.49,2.62,3.48-.64,4.41,4-2,4.37,1.46-1-3.92,2.71-3.48-4-.49-1.67-4" fill="none" stroke="#000" stroke-linecap="round" stroke-linejoin="round" stroke-width="1.5"/><path d="M281.43,56.21l-2,4.25-3.82,1,3,3.13-.1,4.48,3.76-2.45,4.51.92-1.46-3.77,2.27-3.79h-4l-2.15-3.74" fill="none" stroke="#000" stroke-linecap="round" stroke-linejoin="round" stroke-width="1.5"/><path d="M275.23,38.46l-2,4.23-3.83,1,3,3.15-.09,4.45,3.75-2.44,4.52.93L279.14,46l2.27-3.8-4,0-2.14-3.72" fill="none" stroke="#000" stroke-linecap="round" stroke-linejoin="round" stroke-width="1.5"/><path d="M285.37,109.35l-2.57,3.92-3.92.44,2.58,3.53-.71,4.41,4.06-1.91,4.35,1.51-.94-3.91,2.77-3.47-4-.52-1.61-4" fill="none" stroke="#000" stroke-linecap="round" stroke-linejoin="round" stroke-width="1.5"/><path d="M283.25,127.16l-2.57,3.91-3.92.43,2.58,3.53-.71,4.41,4.05-1.9,4.36,1.53-.94-3.93,2.77-3.47-4-.53-1.61-4" fill="none" stroke="#000" stroke-linecap="round" stroke-linejoin="round" stroke-width="1.5"/><path d="M277.36,143.48l-2.75,3.8-3.93.24,2.4,3.65-.91,4.36,4.13-1.7,4.28,1.73-.74-4,2.92-3.31-4-.74-1.43-4.05" fill="none" stroke="#000" stroke-linecap="round" stroke-linejoin="round" stroke-width="1.5"/><path d="M271.6,158.38l-2.75,3.8-3.94.24,2.41,3.65-.92,4.36,4.14-1.7,4.28,1.73-.75-4,2.93-3.32-4-.74-1.43-4.05" fill="none" stroke="#000" stroke-linecap="round" stroke-linejoin="round" stroke-width="1.5"/><path d="M262.71,173.94,260,177.75,256,178l2.4,3.63-.91,4.37,4.14-1.71,4.27,1.72-.74-4,2.92-3.31-4-.74-1.42-4.06" fill="none" stroke="#000" stroke-linecap="round" stroke-linejoin="round" stroke-width="1.5"/><path d="M253.07,188.77l-2.75,3.8-3.93.25,2.4,3.64-.91,4.37,4.13-1.71,4.27,1.72-.74-4,2.93-3.3-4-.73-1.42-4.06" fill="none" stroke="#000" stroke-linecap="round" stroke-linejoin="round" stroke-width="1.5"/><path d="M242.2,202.12l-2.75,3.8-3.93.23,2.4,3.65-.91,4.35,4.14-1.69,4.27,1.72-.75-4,2.93-3.29-4-.76-1.43-4" fill="none" stroke="#000" stroke-linecap="round" stroke-linejoin="round" stroke-width="1.5"/><path d="M228.62,214.71l-2.76,3.79-3.93.26,2.41,3.63-.92,4.37,4.13-1.71,4.28,1.74-.75-4,2.93-3.32-4-.73-1.42-4" fill="none" stroke="#000" stroke-linecap="round" stroke-linejoin="round" stroke-width="1.5"/><path d="M213.29,224.31l-2.42,4-3.91.59,2.7,3.42-.55,4.42,4-2,4.41,1.36-1.08-3.9,2.64-3.54-4-.41-1.76-3.92" fill="none" stroke="#000" stroke-linecap="round" stroke-linejoin="round" stroke-width="1.5"/><path d="M199.59,234.28l-2.43,4-3.9.57,2.7,3.44-.55,4.42,4-2,4.4,1.36-1.07-3.91,2.63-3.55-4-.39-1.75-3.92" fill="none" stroke="#000" stroke-linecap="round" stroke-linejoin="round" stroke-width="1.5"/><path d="M184,243.18l-2.42,4-3.9.57,2.7,3.42-.55,4.44,4-2,4.41,1.36-1.08-3.88,2.64-3.56-4-.39L184,243.19" fill="none" stroke="#000" stroke-linecap="round" stroke-linejoin="round" stroke-width="1.5"/><path d="M165.49,248.61l-2.42,4-3.89.57,2.69,3.44-.54,4.42,4-2.05,4.4,1.37-1.08-3.9,2.65-3.55-4-.4-1.76-3.92" fill="none" stroke="#000" stroke-linecap="round" stroke-linejoin="round" stroke-width="1.5"/></svg>