<svg xmlns="http://www.w3.org/2000/svg" width="300" height="300" viewBox="0 0 300 300"><title>flag-kentucky-icon-goldenrod</title><path d="M103.68,195.79a40.21,40.21,0,0,0,4.14,2.74l1.4,1.09c-4.5,2.28-7.32,2.27-11.12,8.89-1.8,3.15-2.49,4.26-4.83,6.35a24,24,0,0,0-3.09,3.31l-.11,1.71c2.64-.53,11.06-5,13.16-7.37a40.86,40.86,0,0,0,4-6.31l4.92-5.33L105.3,204a6.4,6.4,0,0,1,2.34-2.2c1.41-.83,4.67-2.35,6.24-1.38.52.32-.4.24,1.09.4l4.32.61a14.51,14.51,0,0,1-2.35,1.92,14.56,14.56,0,0,0-2.45,2.11,21.31,21.31,0,0,0-2,2.54c-1.23,1.91-.13.71-1.91,2.76l6.87-8.62c-1.92.26-6.81,2.4-8.38,4.71-1.92,2.83-.55,8.67-7.16,13.16a3.35,3.35,0,0,0-1.26,1.08c.51-.09,6.14-2.51,6.76-2.88a15.1,15.1,0,0,0,2.73-2.06,19.16,19.16,0,0,1,2.53-2.56c.13-.6,2-3.83,2.47-5,1.73-3.87,3.17-7.09,8.55-6.58,2.54.24,2.38.74,5.52-1.25l-4.86-1.18c-2.42-1.25-4-8.87-6-11.38a30.47,30.47,0,0,1-2.54-3.39c-2.37-3.86-3.32-9.93-6.18-11.35l1.34,8.19a14.84,14.84,0,0,0,1.64,7.73c1.33,2.38,2,3.76,4.26,5.33,1.85,1.31,4,2.63,4.44,5.16-5.38.16-2.27.26-6.13-.51-2.56-.51-3.08.15-5.46-1.16a11.47,11.47,0,0,1-5.62-7.75l2.34,3.73c.56.72,2,2.73,3,2.8l-2.69-6c-1.65-4.53-.15-11.3-4.25-18.12-.53-.89-1.09-2-2.06-2.29l1.33,6.2c.45,4.46-1.37,7.17,0,13.69a12.46,12.46,0,0,0,1.71,4.67,1.54,1.54,0,0,1,.21.65Z" fill-rule="evenodd"/><path d="M218.16,190.61a11.47,11.47,0,0,1-4.52-4.31c-2.52-3.69-3.51-2.94-5.07-3.81a5,5,0,0,0,2-1c2.2-1.53,1.62-.29,4.43-.52a3.72,3.72,0,0,1,2.52.29c1.82,1.05,2.86,3.37,4.42,4.49l2,1.06c-.54-1.48-1.07,0-3.29-5.27a5.25,5.25,0,0,0-4.81-3.45c-1.6,0-4.8.35-5.72,1.15l-1.72,1.48a8.62,8.62,0,0,1-1.81,1.17c.79-3.67,2.14-11,3.13-14,.87-2.63,3.84-11,3.58-13.69l-2.13,3.94c-2.26,4-5.39,6.63-6.74,11.52-1.75,6.33,3.07,9.51-2,14.43a11.29,11.29,0,0,1-3.75,2.3l2-6.83a33.12,33.12,0,0,0,2.33-6.35c.72-3,.32-4.95.4-7.87,0-1.15.34-7.3.14-7.7-2,3.19-3.06,4.34-3.87,8.16-.15.72-.52,10.82-.47,11.6l2.47-6.76-1.95,9.14c-.63,1.76-3.07,6.41-2.76,8.14l10.48-.7c1.82,3.32,1.43,3.84,3.86,4.15,2,.26,5.6.21,6.87-.8Z" fill-rule="evenodd"/><path d="M68.12,178c-5.89-1.05-6.7,1.09-9.38,3.06a7.67,7.67,0,0,1-4.69,1.76l-4.44,1.88c5.32.72,5.64.71,9.68-.34s7.22-7.45,13-1.54c-.92.29-.47.18-1.15.62a13,13,0,0,0-3.57,2.37l-3.06,5c2.23.29,1.16.72,3.91-2.11a13.14,13.14,0,0,1,3.83-2.56,7.09,7.09,0,0,1,5.42-.35c2.79,1.11,3-.65,5.27,1-1.12.72-2.93-.8-7.24.93-2.41,1-3.35,2.27-5.66,3.23l-14.22-1.84c.38.55.72.59,1.36.92l3,2A34,34,0,0,0,64.57,195a13.52,13.52,0,0,0,4.53.43c3.46-.31,4.44-1.73,6.72-3,1.09-.63,2.07-1.24,3.19-1.84a15.64,15.64,0,0,1,1.73-.8c.44-.16.41-.11.85-.24l1-.47a13.72,13.72,0,0,0-4.56-.63c2.49-1.76,7.19.77,9.51,1.79l-.2-.57a6.68,6.68,0,0,0-2.85-2.23c-3.32-1.48-2.45-9.14-2.56-11.77-.14-3.52-1.13-4.78-2.2-7.65-1.33-3.58-1-1.71-1.56-3.24a17.48,17.48,0,0,1-.6-1.9l-.6-1.54c0-.09-.08-.1-.12-.14l.13,3.2c.29,1,.19-.1.3,1.23a3.94,3.94,0,0,0,.23,1.41,42.6,42.6,0,0,1,1.23,5.2c.3,1.59-.2,3.9-.31,5.7a39.7,39.7,0,0,0,.28,5.88l-5.33-1.18L71,179.87c-1.91-2.89-.8-1.31-2.92-1.91Z" fill-rule="evenodd"/><path d="M90.6,191c-4-.54-8.34,2.28-10.87,4.62-6.93,6.41-8.26,5.08-17.3,9,.26.21-.39.22.78.4l8.85-.39c7.28-.76,8.28-3.24,13.72-7.25,1.08-.79,1.9-1.33,3.13-2.13a15.8,15.8,0,0,1,3.87-1.54c-1-.52-3-.11-4,.23-2.28.69-2.34,1.29-3.62.91,2.11-1.84,6.35-2.88,9.45-1.26l2.49,1.37-1-8.72c.13.16.25,0,.24,1.06,0,2.15-.24,3.9,1.43,6.34.5.72,1,1.08,1.55,1.74l2.2-.14-2.89-2.48a14.16,14.16,0,0,1-.12-5.07c.61-4.61,1.11-4.81-.7-8.92-2.08-4.71-4.08-5.91-6.77-9.65a9,9,0,0,1-1-1.7c-.14-.31-.21-.63-.34-1l-.29-.64c0-.08-.06-.1-.1-.15l2,6.21a20.82,20.82,0,0,1,2.92,5.53,24.63,24.63,0,0,1,.88,7.89,21.33,21.33,0,0,0,.14,4.09,20.76,20.76,0,0,1,.63,3.4A36,36,0,0,0,90.6,191Z" fill-rule="evenodd"/><path d="M38.42,150.68c-1,.73-1.65.82-3.32.77l5.9,1.14c-.34.38-.11.33-1.47.59-2.08.39-2.34,1.11-3.56,2.1l-.65.56c1.93-.09,2.36-1.36,4.27-1.74l5.37.33,6.24,8.75c-1.24-.11-5.31-.88-6-.57l.25.14c1.37.21,3.46.5,4.68.83a4.35,4.35,0,0,1,3.16,2c-.72.67-.19.8-1.08,1,.41.38.1.33,1,.51a3,3,0,0,0,1.16,0c1-.05,1.24.27,1.26,1.28.64-.15,0-.18.85.23l1.21.67a15.75,15.75,0,0,1-1.94.18,17,17,0,0,1-2,.46l-.22.49c.18,0,.91.06.94.05,1-.13,0-.07.76-.38,2-.76,3.3.86,4.52,1.85a2.37,2.37,0,0,1,.73.89c-3.67.31-3.95,1.49-5.45,1.84l-5.85,1s.1.05.12.11,1.11.55,1.38.68c2.63,1.29,4,2.54,8.54-.34l3-1.86c3.34,2.08,1.31,2.32,4.37,3,.18,0,.81.23.93.24,2,.22.7.29,1.16-.44-3.21-7.83,5-8.27,3.19-17.44-1.14,1.7-1,5-3.61,8-3.69,4.16-2.6,4.82-2.44,8.05-2.75-2.14-4.9-2.8-3.14-7.23.53-1.33,3.81-5.48-.47-7.64l-.56,5.23c-1.15,2.51-.91,2-1.27,4.89l-1.78-4.29a6.8,6.8,0,0,0-.42-5.65l-.94,7c-1.22-1-1.82-1.06-1.74-3.07l-.62-.15-.45.63L53,163.64A22.81,22.81,0,0,1,50.88,161c-1.17-2.2-.46-4.23,0-6.39a7.62,7.62,0,0,0-1,.76c-.4.38-.11.22-.41.41s0,.32-.3,0c-.52,1,.93.44.27,3.13-2.06-1.79-1.37-1.12-3-3.42-1.41-2-.62-3.13-.79-5.62l-.8,1.78c-.17.37-.11.28-.28.46l-1.48-1.93c-1.56-2.16.32-5.3.32-8.87l-.39.34,0-.34c-.43.46-1.16,5.49-1.38,6.54-.7-1-1.94-2.43-2.17-3.55a3,3,0,0,0,1.41-.18h-.68a31.91,31.91,0,0,0-2.06-3.39c.08,2.15.52,3-1.33,2.93L30.78,143a2.21,2.21,0,0,0,2.29,1.59c.83.27.46,1.29,2.79.81a2.09,2.09,0,0,1,1.77.09l.32.13.18.06c1.61.54.86.74,2.56,3L42.94,152a33.37,33.37,0,0,1-4.52-1.31Z" fill-rule="evenodd"/><path d="M232.53,150c.08,1.46-.42,2.3-.69,3.63.48.33.28,3.45.17,4.17-.28,1.69-2.58,4.91-3.66,6.12-1.73,1.95-1.44,2.18-2.41,2.28l.73-2.63,1-.22-1-.09-.15-1.54-.16.43c-.36,1.32,0-.58-.17,1a7.91,7.91,0,0,1-.26,1.32,21.36,21.36,0,0,1-.83,2.1,3.5,3.5,0,0,1-1.21,1.76c-.81.71-.69.84-1.3,1.68s-2.09,2.6-3.21,2.94c-1.91.57-.66-.09-2.82,1.73-.57.49-.26.3-1,.61l-1-6.13c-.59-.93-2.14-4.05-3.06-4.61l.44,6.3c1.07,5.55-.3,5.84.52,7.11.66-.48.58-.3.85-1.06,1.28-3.59.94-3.26-.38-6.57a5.54,5.54,0,0,1-.6-1.83c.06-.7-.12-.05.23-.52,1.21,2.69,2.52,4.61,2.07,7.29a9.12,9.12,0,0,1-.39,1.24c-.22.81-.43.84.28,1.06.73-.23,1.34-.34,2.06-.61,4.57-1.73,7.08,1.69,12.43-2.62,1.71-1.38-.31-.57,3.48-2.54-2.05-.26-3.79.72-5.52,1.16l-6.37.41c.28-.45,0-.13.34-.47l1.52-1.23a20.12,20.12,0,0,1,1.91-1.51c1.51-1.08,2.68-1.12,4.71-2.15l-2.72.3c.41-1,6.28-6.8,7.64-7.7,1.12-.75,3.19-.87,3.82-1.43-.88-.12-.43,0-.62-.36l-3.92,1.43a9.86,9.86,0,0,1,1.78-2.72c.05,0,.24.17.28.2l.35.29a2.32,2.32,0,0,1,.86-1.93c1-1,.5-.27,1.45-.89-1.2.24-.76,0-1.57-.46L233,158.21c.29-4.16.44-1.9,1.22-3.92.39-1-.18-1.58-.05-2.55,0-.27.2-.75.25-1.1.11-.83,0-.86-.1-1l-1.3,1.54-.51-1.16Z" fill-rule="evenodd"/><path d="M132.55,201a6.33,6.33,0,0,0-3.94.6,14.51,14.51,0,0,0-2.94,1.86l-3.15,6.19a41.4,41.4,0,0,0,3.66-2.25c.69-.67.69-3.28,1.56-4.39s3.41-.52,5-.38l4.49-.86c-1.94-.85-2.76-.21-3.66-6.35-1.41-9.63-2.6-9.09-9.25-15.88a15.34,15.34,0,0,0-2.59-2.56c.52,4.47,3.58,8.82,5.66,11.82,2.2,3.2,2.64,5.79,3.83,9.17.37,1.07,1,1.91,1.32,3Z" fill-rule="evenodd"/><path d="M242.3,169.48c-.19-.57.34,0-.3-.59a13.47,13.47,0,0,0-2.22-1c-2.18-.86-.09-.4-3-1.16l.9-1.38,1.61,1.38,1.66-.17c1.17,1-.58,1.11,2.83,1.11l.11,1.4a2.31,2.31,0,0,1,1.13.36l-.27,1.39,1.84.7a6.62,6.62,0,0,1-1.76,5.39l-.42-1.31c-.18,1.25.45,3,1.68,2.62.77-.25.4-.77.94-1.32,1-1,.47.84,1.75-1.25.28-.46.2-.11.44-.63a15.25,15.25,0,0,0,.47-1.91c.25-1.37.2-.67-.2-1.7-.21-.56-.37-1.17-.56-1.73-.52-1.52.16-1.22-1.64-2.92-.63-.6-.66-.21-1.22-1.06-1.42-2.16-1.17-.63-2.73-1.38l-5-2.06c-.66.17-.11.17-1.05.34a10.08,10.08,0,0,1-1.11.12,17.6,17.6,0,0,0-4,1c-2,.85-.54,0-2.56,2.35,0,0,.06.06.07.13s.05.11.06.14l.22,1c1-.82.67-.74,1.37-1.55,1,.06.61.18,1.09.28,1.21.26-.72-.53,3.19.19-.74,1.11-.16.45-1.1.42-1.43,0-2.43.67-3.84,1.38,2.58-.3,8-.36,10.35.87.79.41.41.45,1.24.54Z" fill-rule="evenodd"/><path d="M99.28,195.89l-1.63.52a12,12,0,0,0-4.44,2.19c-2.07,1.47-4.62,4.78-6.39,6.84a12.74,12.74,0,0,1-2.33,2.25c-2.58,1.94-2.7,1.71-5.95,2.8,4.87.14,11.76-2.4,14.41-5.31.39-.44.66-.67,1.13-1.14s.63-.84,1.13-1.39a22.54,22.54,0,0,1,2.63-2.39l7.4-2.17c-.57-1.19-1.1-.82-1.6-2.3l-1.45-.4c-1.09.35.48.24-1.11.55a4.33,4.33,0,0,1-1.8-.05Z" fill-rule="evenodd"/><path d="M55.66,168.36c0-1-.28-1.33-1.26-1.28a3,3,0,0,1-1.16,0c-.92-.18-.61-.13-1-.51-.8-.06-1.66.24-2.64.21-2.47,3.75-1,1.48-3.59,2.34-1.16.39-.35.33-1.54.75l-.84.34-.16.08c-1,.52-1.17,1.41-2.69,3.28l.72,2c-.59.9-1,.49-1.1,1.6-.7,3.34-1.18.71.35,4.21.63,1.44-.47.78-.18,2.21l2.77,3.87c.48-.26.92-.84,2.48-1.79a19.75,19.75,0,0,1-.28-8.36A11.85,11.85,0,0,1,47,174.11a23,23,0,0,1,2.21-2.65c-1.57.45-1,.78-2.13,1.82-1.37,1.32-.59,0-1.33,1.64a6.63,6.63,0,0,0-1.07,3.7l-.72,3.5c-.86-.32-.72-.5-1.33-2.42l1.34-.18c-.48-2.9-.41-1.82-.17-4.81l1.71-1.41a6.85,6.85,0,0,0,2.14-3.37c3.34-.47,3.24-1.58,5.89-1.34,1.16.11,1.3.38,2.08-.23Z" fill-rule="evenodd"/><path d="M87.73,189.37c.66.48.32.26.73.9l2.55-.09c-.25-1.34-.75-1.88-.79-3.58-.06-3.16,1.2-7.69,1.21-11.43a3.38,3.38,0,0,0-1.2-3.08,7.83,7.83,0,0,1-1.83-6.36c.34-1.67.65-1.13.72-3.24l-.91,13.34c-.26,2.31-.77,4.62-1,6.91C86.5,188.86,87.68,187.15,87.73,189.37Z" fill-rule="evenodd"/><path d="M75.14,181.9c-.24-6,3-8,2.75-9.56l-.72-3.82c-.53.28-.19,0-.75.52-3,2.5-5.13,6.51-4.16,10.57a3.34,3.34,0,0,0,1,1.71c.7.75.61.65,1.9.58Z" fill-rule="evenodd"/><path d="M181.81,170.2l-2,3.36c-2.14,3.64-3.6,12.2-2.92,13,.4.48,2.46-1.28,3.11-1.85,1.61-1.38.63-6.05,1-10C181.16,173.2,181.61,171.78,181.81,170.2Z" fill-rule="evenodd"/><path d="M219.5,172c2.4-.23,1.53-6.47,1.47-7.88l.9,5.32c2.8-1.13-.13-10.42-.72-12.6-1.53,1.44-2.05,5.51-1.82,7.39.15,1.25.74,2.33.76,3.67,0,2-.35,2.41-.59,4.1Z" fill-rule="evenodd"/><path d="M189.22,177.18l3.41-1.46a9.48,9.48,0,0,0,.77-.62c.27-.23.15-.08.38-.32l.39-.54a5.83,5.83,0,0,0,1.21-2l2.37-9.61a25.32,25.32,0,0,0-2.05,3.54c-1.56,2.65-6.27,8.61-6.48,11Z" fill-rule="evenodd"/><path d="M121.55,214.07c-.72,3.84-2.68,8.24-4.15,12.09,1.75-2.86,3-3.92,4.95-6.41a18.57,18.57,0,0,0,3.45-6.84c.4-1.64.13-.94-.24-1.17a14.07,14.07,0,0,1-4,2.33Z" fill-rule="evenodd"/><path d="M118.1,187c.79-2.55-.9-9.86-1.38-12.81-1.4,1.43-1,4.92-1.07,7.19s-.37,1.5.6,3.29A10.55,10.55,0,0,0,118.1,187Z" fill-rule="evenodd"/><path d="M159.1,216.75c.69.07,1.3.24,2,.28a6.84,6.84,0,0,0,.92,0c1.11-.3.51.11.73-.63-.75-.08-.91-.28-1.29-.93-.22-.36-.62-1.11-.77-1.42l-4.83-1.65c-1.49-.68-2.71-2.32-3.57-2.43,1.83,4.38,5,4,6.82,6.81Z" fill-rule="evenodd"/><path d="M113.05,198.35c-1.56-3.19-1.56-1.57-.58-6.6.11.23.13.07.16.56a7.54,7.54,0,0,1-.3,1.66c-.3,2.2,1.34,2.89,3.5,4.65A5.25,5.25,0,0,1,114,197c-.23-1.92,1.73-2-.54-4.71-.87-1-.53-.48-1.09-1.88-.43.14-.69-.3-1.32,1.64a7.71,7.71,0,0,0-.16,2.59c.08,1.51.52,3.51,2.17,3.76Z" fill-rule="evenodd"/><path d="M140.25,203.94c.72.62,2.3,1.07,3.92,2.08l3.65,2.37-.13-2.73C144.74,204.4,142.66,201.89,140.25,203.94Z" fill-rule="evenodd"/><path d="M163.52,179.67a17.86,17.86,0,0,1-5.43,6.23c-3.56,2.39-7.59,3.95-10.23,7.33a25.83,25.83,0,0,0-1.93,3.76c-1.76,3.26-3.18,3.43-6.79,5.09-5.82,2.68-10,4.44-15.35,7.93-2.11,1.36-5.53,3.15-8.6,3l-.94,2.71c2.61.05,4.68-1.22,6.71-2a29.87,29.87,0,0,1,3.36-2.3c1.16-.7,2.11-1.23,3.45-2l7.08-3.88a46.23,46.23,0,0,1,7.77-3.39c6.3-1.77,4-3.49,9.65-7,1.17-.74,2.21-1.31,3.47-2a16.31,16.31,0,0,0,3.18-2.3c5.57-4.92,2.39-6.79,9-15.91.37-.51.72-1,1-1.43Zm-10.4,12.89c-5.19,3.44-4.94,6.23-7.29,7.11.3-.92,3.35-4.54,4.16-5.45a9.38,9.38,0,0,1,2.58-2.22c1-.52,2.31-1.06,3.14-1.41Z" fill-rule="evenodd"/><path d="M223.19,193.93l6.17-.36c1.11-.06,1.11.08,2-.4-3.53,0-2.49-.26-4.44-.8-.84-.23-.2-.26-1.08.08l-1,.44a2.86,2.86,0,0,0-1.67,1Z" fill-rule="evenodd"/><path d="M177.76,219.35c-1.1-.45-1.22-1.24-1.95-1.84a7.28,7.28,0,0,0-2.7-1l-.71.22c1,.43,2.44,1.57,3.57,2.2,2,1.1,1.4.77,3.12,2.55-.51-1.17-.92-1-1.33-2.14Z" fill-rule="evenodd"/><path d="M218.7,191.05c-1,.06-3,.73-4.13.9-4.34.65-8.39-1.44-12.37-2.67-7.55-2.32-13.8,3-15.94,3.25,4.54-7,3.26-5.53,6.23-12.85a30.19,30.19,0,0,0,1.74-4.56c-3.22,3-3.93,4.9-6,8.22-1.21,1.89-.61.44-1.42,3.14-.72,2.37-1.63,4.88-3.08,6.28a12.32,12.32,0,0,1-6.57,2.66l.33-1.25L175,195.28a3,3,0,0,1-2.06,1.36,20.93,20.93,0,0,1-5.84,1.05c1.47-.62,11-4.5,11.92-5a16.32,16.32,0,0,0,3.2-2.5c2.21-2,3.1-3.57,4.76-6.65l4.33-6.68a44,44,0,0,0-8.35,5.63c-2.1,1.91-1.24,1.83-3.63,3.44a39.93,39.93,0,0,1-4.38,2.46c-9.67,5-8.51,7.7-11.39,9.61a11.69,11.69,0,0,1-5.53,1.51l.7-.88c.32-.29.45-.4.72-.62a22.37,22.37,0,0,1,4.62-3.38c8.75-5.65,7.34-16.53,8.81-20.63a5.78,5.78,0,0,0,.52-2l-2.33,5.21c-1.94,4.5-6.94,9.21-9.38,12.76a54.29,54.29,0,0,0-2.82,4.71c-1.91,3.46-3.72,5.15-8.6,6-3.16.57-2.17.26-5.63,1.66l3,.62,1.86,8.85h0a8.94,8.94,0,0,1,.72,1.84,8.76,8.76,0,0,0,1.08,1.9,12.29,12.29,0,0,0,2.87,2.84,9.57,9.57,0,0,0,1.72,1A23.5,23.5,0,0,1,161,223c.18-2.82-1.83-5-2.19-6-.52-.18-5.66-3.92-6.56-5.19a12,12,0,0,1-1.64-4.32A15.08,15.08,0,0,0,149,203a26.38,26.38,0,0,1,6.12-.94c5.52.14,4.92,4.81,8.72,9.56,1.2,1.5,1.49,1,1.55,1.87a13.05,13.05,0,0,0,3.94,1.52c1.34.29,3.67.34,4.47,1.09l1.06,0-2.23-1.6a18.77,18.77,0,0,1-2.3-1.81c-4.89-4.45-6.17-10.42-13-11.21.95-.61,6.13-1.11,7.14-1.2,2.53-.23,3.65,1.87,4.51,3.7,1.56,3.31.52,5.83,1,6.81a13.77,13.77,0,0,0,4.48,3.6l-1.52-10c-.53-1.5-3.12-3.45-4.39-4.28-1.71-1.12-1.18-.35-1.51-1.16,6,.74,3.27-.83,6.48,2.82,2.67,3,6.79,3.14,10.82,3.49,5.4.47,7.89,4.53,13,6.13l-4.08-4.93c-4.29-4.3-6.84-2-11.92-6.11-2.3-1.84-3.57-1.5-6.53-2.36,5.5-.66,4.61-1.2,8.49,1.31,8.45,5.47,13.92,3.05,22.75,1.91,1-.13,4.25-.15,5-.46l-.49-.38c-1.52-.71-5.48-.89-7-1-6.6-.38-8.93-2.89-14-3.82-2.19-.39-6-.51-7.76.35l6.42,1.9a20.6,20.6,0,0,0,2.52,1.13l2,.5a5.84,5.84,0,0,1,1.56.38l-1.56-.38a11.74,11.74,0,0,1-1.7-.38l-.33-.12-4-1a11.94,11.94,0,0,0-3.86-1.15c-2.55-.36-1.89,0-2.87-.8l-.8-.49,6.57-1.17c2.24-.41,3.78-1.42,5.91-1.86,5.74-1.2,7.55.39,12.24,2.18,6.64,2.53,12.5,1.89,18.66-1.62a9.24,9.24,0,0,1,4.27-1.42l.76-.14c.73-.22.35-.09.72-.35ZM156,199.58c-2.15,1.39-1.49.51-1.68.38a20.23,20.23,0,0,0,5.79-4.72c1-1.15,3.84-4.86,5.05-5.47-2.35,2.92-4.71,6.47-7.59,8.64C157,198.85,156.64,199.18,156,199.58Zm22.54-9.18a3.48,3.48,0,0,1,1.1-.65l-1.19.7Zm-15,9c.68-1.41,5.37-4.47,7.34-5.46,1.64-.83,4.85-2,6.75-3l-6.15,3.63a27.71,27.71,0,0,0-4.08,2.31C166.48,197.51,164.7,199.1,163.6,199.4Zm12.58.17c.62.37,2.14,1.6,3.1,2.14l.6.27a2.24,2.24,0,0,1-.6-.27l-7.82-3.48C172.49,197.51,175.33,199.06,176.18,199.57Zm23.47-8.35c-4.9-.82-7.7,1-8.79.4a14.27,14.27,0,0,1,4-1.25,20.82,20.82,0,0,1,9.39,1.17c.77.23,3.31.85,3.77,1.44Z" fill-rule="evenodd"/><path d="M243.53,170.65l1.2,4.46.93-2.21a10,10,0,0,1-1.08-1.11,3.56,3.56,0,0,0-1.05-1.14Z" fill-rule="evenodd"/><polygon points="61.58 194.32 57.62 196.84 62.38 194.92 61.58 194.32" fill-rule="evenodd"/><path d="M113.21,213.92c-.15.34-.31.8-.49,1.28.34.86-.21.13.61.45a4.76,4.76,0,0,0,.88-2.94,2.42,2.42,0,0,0-1,1.21Z" fill-rule="evenodd"/><path d="M163.66,216.15c0-.64.25-.6-.56-1.45l-.49-.5-.54.24c.38.94.66,1.48,1.59,1.71Z" fill-rule="evenodd"/><path d="M80,167.38c.53-2.2.71-5.45-.09-7.43-.19,1.35-.32,3-.63,4.22C79,165.55,79,166.53,80,167.38Z" fill-rule="evenodd"/><path d="M209,160.1c.87-1.06,1.74-2.77,1.31-4.08l-.66-1.11A17.36,17.36,0,0,0,209,160.1Z" fill-rule="evenodd"/><path d="M34.25,88.82c-3.08-.68-2.88-.24-3.43.6a7.83,7.83,0,0,1-1.66,1.77c-.94.45-.25-.07-1.06.77a17.54,17.54,0,0,0-1.72,1.75c-.25.57.44,3.53,2.3,1.8L31,94.36l.33-1.28.87.59s.08-.17.1-.13.08-.1.1-.12c.55-.46.46-.23.89-.51l.11-.09a1.76,1.76,0,0,1,.43-.25c.67-.34.17.13,1.1-.82h2.28c1.71,1.89.45-.92,2.75,2.3-3.17-.42-3.17-1.32-6.53-.48-1.35.33-.7.53-2.05,1.16s-.58.85-2.55,1.8a2.71,2.71,0,0,1-.83.25l-.83.36L28,98.7c.87-.29.73-.43,1.26-1,4.73-5.48,11.2-1.79,11.3-1.8l.78-.35c-.13-.88-.74.36-.55-1.86.69-.14,1.28,1,2.05,2.15l1.24-.05c.38-.87-.1-.35.6-1.85.85-1.83-1.65-2.52-2.78-3.52l-2-1.58c-.7.1-.55.21-1.29.08l-.19-.05-.2-.06A24.69,24.69,0,0,1,35.1,88l-.85.86Z" fill-rule="evenodd"/><path d="M20.45,152.55c0,1.25.18.86-.27,1.75-1.44,2.87.51.89-1.77,4.77l2.46,0-.34-1.52,1.11-.39c1.5-4.07,1.3-.75,1.6-4l1.71.4,0-1.44.82.3.45-.76c1,.43.71.22,3-1.49,1.32.72.92.84,3.2-1.12l.91.7c.82-.32.31-.39,1-.58,2-.3,1.72.08,2.68.91l.68-1L39,150.24l1.43-.62a1.63,1.63,0,0,0-.61-1.29c-1.76-2-3.49-.36-6-1.71-.75-.4-3.51-1-4.42-.67-.49.17-.36.38-1.22.54-1,.2-.68-.2-1.72.36-.87.47-.07.24-1.33.51s-.79.19-1.59.92l-.12.11c-2.14,1.89-.14,1.38-1.67,3.34-.56.72-.27.55-1.25.82Z" fill-rule="evenodd"/><path d="M47.89,161l-.29-.22c-.83-.6-.66-1.47-1.41-2l-2.41.38L37.36,159c-1.22,2.18.38-.37-2,2.28-3.23,3.55-1.5.75-4.1,3.17-.94.88-.55.68-.95,1.13l-1,.93.83,2.05a6.53,6.53,0,0,1-2.29,1.08c-.05,4-1.34,1.93,1.38,5.43l.82-.91c.82-.87.23.06.54-1a1.16,1.16,0,0,0,0-.18,36.05,36.05,0,0,0,1.23-3.52c.31-1.55.08-.36.59-1.13s-.3,0,1.28-2l1.77-.17a6.82,6.82,0,0,0,.24-1.17c.42-1.16-.06-.23.92-.63l1.47-1.71a6.14,6.14,0,0,0,.88,0c.8-.22.29-.39,1.18-.7,2-.68,1.44.36,3.09-1.35.06,0,.15,0,.18.11s.29.17.35.2c.5.2,0,.11.68.16l2.94.4c1-.2.17.07.52-.39Z" fill-rule="evenodd"/><path d="M49.25,155.79c.31.32,0,.2.3,0s0,0,.41-.41a7.62,7.62,0,0,1,1-.76l1.64-3.27c-.52,1.14-1.29,1.27-1.81,2.06l-.62,1-.5-1.37c.74-1.46.63-1.16,1.36-1.68l.14-.09.24-.22c1-1,.88-1,1.2-2.45.14,0,.56-.07.58-.08.7-.19.16.08.63-.28.78-.62,2-2.28,3.12-2.32.36,0,.12,0,.47,0,.7-.18,0-.14,1-.38.74-.18.41,0,1.1-.27.94-.43-.16-.26,1-.28,1.05,0,.29,0,1-.17,1-.22.05-.15,1,.23l2.17-.11-.25,1c-5.48-.54-1.75.3-4.44.41a4.87,4.87,0,0,0-2,.2c-1.24.39-.41.06-1.91,1.54-.29.28-.34.38-.63.67,1.52-.59,1.22-1.44,5.31-1.89l6.53-.56s.37-.18.32-.85c-.2-2.52-4.9-3.64-8.5-2.57-.7.21-.52.35-1,.59s-1.52,0-2.17.37l-2.4,2.85a5.79,5.79,0,0,0-3.66,2.74c-.43.79-1,1-1,2.07,0,1.4.59.6-.71,2.06a10.2,10.2,0,0,0,1.1,2.29Z" fill-rule="evenodd"/><path d="M57,153.5l-1.35-.17c-1.42,1.94-1.72,1.63-2.16,3.27-.38,1.41,0,1.06-.14,2.12a9.42,9.42,0,0,0-.27,2.59l1.4.19c-.14-2.84-.38-1.31,1.27-2.89s1.34-1.78,1.27-3.31c1.07.11,1.1.38,2.14.17l2.2-.58c1.53,1.42.82,2.28,3.79,1.9l.36,1.3c-2-.18-1.17-.51-2.4-.18,1.6,1.07,2.94.89,4.93.93.46-3.24-1.56-4-3.44-5.39-1.52-1.13-1.62-.6-3.45-.73l-3.5-.58L57,153.5Z" fill-rule="evenodd"/><path d="M27.16,126.06l-1.65.48.87.95a19.74,19.74,0,0,1-2.94,2.27l6.37-.2c-.7.27-2.08,0-3,.3l-2.32,1.36.69.35A7.48,7.48,0,0,0,31,129.78c1.08-.89,1.41-.75,2-1.63,1.76-2.54,3-2.23,3.95-5.32a2.74,2.74,0,0,0-.39.42s-.28.4-.29.41a9.9,9.9,0,0,1-2.79,1.63c-.32-.74.37-.21-.63-2.11-.18,1.36-.46,1.19-1,2.22a4.1,4.1,0,0,1,.14,3.11,43.71,43.71,0,0,1-2.57-7.21c-.38-1.35-.2-1.5.52-2.22-1.44-.43-1.25-.27-2.91-.19,1.84,2.25,1.48,3.63,2,5.08l2,5.46c-1.29-.3-.7-.66-2.23-1.56s-.49-.55-1.09-1.27c-.26-.32-.05.27-.53-.54Z" fill-rule="evenodd"/><path d="M29.58,102.43l.73,2c1.41-.45,2.07-.13,3.51.1l3.34.58c.82-1.22-.22-3.06-1.09-4a2.73,2.73,0,0,1-.25-.23l-.12-.13c-1-1.36.84-.91-2.25-1.08-1.54-.08-.43-.77-1.87-.65-6.33.53-4.63-.79-8.1-2.66-1.06-.56-2.53-.43-3.41-.67s-.37-.22-1.21-.58c-.81,1-1.58,0-2.62,1.79l-1.4,3.12c.2.24.33.35.5.58l.59.87c2.09-.13,1.29-.5,4.24-1.79L21.23,99l.12-.12c.38-.34-.08-.6.95-.44.71.11.53.25.73.69l.87-.55L25.82,100c.95.81,1.49,0,1.55,1.72-2.7-.62-1.47-.44-3.13.28s-1.74-.88-2,1.72l-1,.3c-1.11,2.09-1.15,2.65-2.63,4a11.93,11.93,0,0,1-1.82-1.13,9.73,9.73,0,0,0-2.52-.23c-2.22-.21-.53.39-2.06.44-.88,0-1.47-.49-.95-1.34l.56,0a2.71,2.71,0,0,0,.62,0l.64-.88,1,.76,1.11-.48,3,1.28c2.65-1.75,1.21-1.33,2.8-2.93l.13-.1s.2-.16.24-.21c1.37-1.68-1.52-.56,3.17-2.91-1.93-1.21-1.15-.35-1.5-1.19-1.69.47,0,.36-2.85.89a2.43,2.43,0,0,0-.05.29c.17-.38,0,.24,0,0l0,.06a19.72,19.72,0,0,1-1.9,2.83c-.62-.21-3.09-2.2-6.17-2l-2.55.08c-1.06,1.41-2.42.89-3.57,3s-1.55-1-1.38,5l1.4,0c1.36-1.45-.29-.22,1.68-1.21.91-.46-.39-.48,1.5-.39.1-1.18-.1-.7.44-1.15l.93-.63c0,2.29-.08,1.62-2.43,3.31,1.36.49,3.22-1.8,5.59-1.52l5.89,1.64c0,1.83-.23,2.7.41,3l1.65.65c1.1.46,1.16.24,2.23-.09a1.7,1.7,0,0,1,1.19-.59c1.92,0,2.37,1.14,2.9,1.21l1.93-.11a3.37,3.37,0,0,1,0-.71c.16-.68.18-.4.76-.88,1.3-1.1,2.87-1.74,3.4-2.51,1.21-1.76-.1.23,1.73-1.69l1.08-.85c-.5-1.08-1.39-1.23-2.71-1.24-4.26-.31-2.65-1.51-5.15,1.71l-2.05-1.87-1.14.67,1.59-1.63,1.42,1.4.87-.84a12.84,12.84,0,0,0-1.43-3.51C29,101.12,29.18,101.58,29.58,102.43Z" fill-rule="evenodd"/><path d="M45.44,143.29c-.6,2.7-.62.59-1,2.45s-.79.72.26,2.43c.28-.46.61-3.11,1.93-4.15.7-.55.39,0,1.4-.68.82-.58.79-.35,3-.14-.85.33-3.75,1.15-4,1.89l-.06.18-.6,1.93c2.4-2.68.57-2,6.59-3.27.41-2.69-2.48-3.4-4.34-2.29-.85.51-.39.15-1.16.37-1.28.37-.19,0-1,.71a4.22,4.22,0,0,1-1,.56Z" fill-rule="evenodd"/><path d="M44.49,105.73c-1.1-.11-.21-.21-1.51.2-2.35.73-1.45-.5-2.86.9l-1.36-.57c-.58.93-.07.76-.34,1.49l-.35.54c-.71,1-.48.53-.9,1l-.11.12-.18.26c-.74.83-.26.05-1.41.92l.75,2.1a7.36,7.36,0,0,1-.93.43c-1.62.86-.84,0-2.22,2.37-1,0-.92-.19-1.19.37-.14.29.2.33-.88,1l.52,1.86L30,118.45l.37-3.77c-.38-.32.51-.21-.5-.27-.5,0-.56.41-1.68.15l-.33-.11c-2-.59-.72-.48-1.67-1.09-.43-.28-1.05,0-1.75-.09a4.31,4.31,0,0,0,0,2.08,1.15,1.15,0,0,0,.47.66l.27.18c.31.25.15,0,.34.31.45.7-.29.37.35,1.29a8.23,8.23,0,0,0,1.19,1.1c1.66-.08,1.47-.24,2.91.19,1.43.91.67,1.53.68,2.86s-.1,3.25,1.23,3.46c.56-1,.84-.86,1-2.22-.39-1.63-.36-2.72,1.1-3.32.24.42.34-.36.11.66l-.68,2.27c1.36-.75,2-2.27,3.31-4.19,1.93-2.85,4.18-5.72,7.21-7.39,2.52-1.38,2.63-.59,3.3-2.21.21-.52,0-.46.85-1C46.92,106,48.42,106.13,44.49,105.73Zm-1.85,4.65c-2.11,1.14-3.57,3.72-4.22,4.45-.41.46-2.67,2.56-2.92,3-.53,1-.08,1-.78,1.89-.82-1.31-.34-.67-.35-1.39s-.26-.86-.43-1.62c2-.11.89,0,1.86-.45a5.8,5.8,0,0,0,.59-.2l.14-1.37.29-.16a1.19,1.19,0,0,0,.16-.08c.88-.55.39-.56.58-1,.56-1.24,1.95-1.55,2-1.68s.12,0,.17-.08l.18-1.43c2.06-1.45.9-.93,3.42-1,.79,0-.11-.2,1.78-.57l.45-1.15,1.1.94Z" fill-rule="evenodd"/><path d="M43.17,141.33l0,.34.39-.34c.52-2.38,1.84-4.84,3.63-5.89,2.94-1.72,4.58-.7,7.54.29-.3-.69-.53-.7-1.36-1.15-4.39-2.41-5.64.14-7.33,1.3-.47.34-1.23.53-1.63,1.11a38.54,38.54,0,0,0-1.21,4.34Z" fill-rule="evenodd"/><path d="M28,122.51a9.68,9.68,0,0,0-2.6-3.14,8.89,8.89,0,0,0-3.79-1.58c-1-.11-1.5-1-4-1.54-.67-.14-2-.6-2.1-.6a13.55,13.55,0,0,1-2.19.37c-1-.06-1-.29-1.69.28-2.44,2.12-3.22,0-4.82,1.82l-2,2.35c-1.59,1.58-1.61.37-1.79,2.88s1.44.7,3.45,0L7,121.47c.35,0-.06-.22,1,.24l-1,2.17c2.54-.55,2.91-2.22,9.89-.57,4.62,1.1,6.71,2.83,8.62,3.23l1.65-.48C28.43,125.17,29,125,28,122.51Zm-8.36,0-5.4-1.7c-1.26.24-4.51,1.78-5.6,1.17-.48-1.28.22-.9,1-1.08l2.29-.38a5.24,5.24,0,0,0,2.42-.92l1.85.6.14,0,.86.18c.42.08,1.84.22,2.29.83C19.82,121.7,19.67,122,19.63,122.52Zm4,1.38a14.73,14.73,0,0,0-3.59-1,7.13,7.13,0,0,1,1.13-1.58l.19.43c.19.4,0,.13.27.47,2.54,0,1.47-.14,2.46.5a5.19,5.19,0,0,0,.74.38c.68.31,2.15,1,2.09,1.85C25.63,125.4,24.87,124.4,23.64,123.9Z" fill-rule="evenodd"/><path d="M20.81,94.62l.27.17.17.06a9.27,9.27,0,0,1,3.51,1.46l1.42.64c0-4.32-4.64-3-5.37-2.33Z" fill-rule="evenodd"/><path d="M25.61,154.5l-1.47.13c-.42.91-1.81,2.88-2.46,3.87A7.75,7.75,0,0,0,23.35,157a12.9,12.9,0,0,1,1.85-1.57c1.52-1.32,2.17-1.51,3.75-2.87-.78-.51-.92-.07-1.84.47-1.61.94-.55.5-1.5,1.44Z" fill-rule="evenodd"/><path d="M35.1,151.45c1.67.05,2.28,0,3.32-.77,0,0-5.61-.27-6.71.35-1.34.75-.86.26-1.91.87.66.32,3.56-.42,5.3-.45Z" fill-rule="evenodd"/><path d="M36.18,166.35c2.7-1.43.33-.83,5.49-2.95-1.41-.54-.79-.54-2.47.13-1.16.47-.13,0-1,.82S36.55,164.88,36.18,166.35Z" fill-rule="evenodd"/><path d="M32.14,172l2.93-4.28c-1.29.24-1.64.38-2.06,1.46A8.15,8.15,0,0,0,32.14,172Z" fill-rule="evenodd"/><path d="M28.72,81.84c.18-1,.63-1.24-1-3.08l-2.35-2.07c-.35.72,0,.27-.76,1.06l-.14-1.67c-.94-.54-1.18-.36-1.56-1.26-1.85.5-1,2-2.37,3.38-2.27,2.34-.68,2.45-.89,3.64-.05.3-.63.53-.95.69l.08,1.61c-.28.12-.28,0-.84-.11l-.15,2.43c-1.88-.12-2.74-1-4.11-2.09a2.18,2.18,0,0,0-1.82,1,14.43,14.43,0,0,0-1.57-.16c-1-.2-.33-.44-1.22-.65L7.4,86.3c-3.88,0-.82.1-3.29.84-2.12.63-1.73,1.1-2.61,4.58.56.17,1.12-.19,1.79-.61,1.74-1.08.4.15,4-1.51l2.06-.92C10,89,10.7,89,12.87,90l1.23.57c-1.25.77-3.36-1-5.67-.53-.68.13.28.16-1.6.68l-.13,0-2.9,1.5c1.79-.32.82-.6,4.14-.82a21.57,21.57,0,0,1,4.63.16,10.45,10.45,0,0,1,3.69,1.15,11,11,0,0,1,1.58.93c.88.69.57.94,2,.78h0c.35-1.92-.49-1.38-1.94-2.3l2.37.76c1.39,0-.83-.57,2.27.15,0,0,.7-.08-.22-1.31l-1.41-1.38a11.63,11.63,0,0,0-2.38-1.66l0-1.32c.34.26,3.94,2.51,4,2.84l.15.55a17.56,17.56,0,0,0,1.17,2.19l1.77.29c.44-.55.27-.57.55-1,.5-.77.28-.25,1.11-.7,1.17-.64-.26-.27,2.2-1.42a36.37,36.37,0,0,0,.31-4.51C30,82.55,30,82.66,28.72,81.84Zm-13.5,9.78c-1.07-.87.58-1.13,1.23-1.15a8.62,8.62,0,0,1,1.05,1.71Zm6.42-4.52c-.13-1.84,0-2.66,1.37-3.19l.08,2.34ZM25.07,82c-.17-1.62.11-2.68,1.52-2.88L26.67,81A4.08,4.08,0,0,1,25.07,82ZM27.71,87c-1.15.76-.93.84-1.43,1,.74-2.32,1.38-1.19,2.19-3.34a1.67,1.67,0,0,0,.15-.35c0-.09.06-.11.09-.16l.3,1.63Z" fill-rule="evenodd"/><path d="M45.46,162.75l-.25-.14c-1.6.13-1.72-.85-2.86.65l3.11-.51Z" fill-rule="evenodd"/><path d="M54.22,131c-1.39-1.26-4-1.14-5-1.36l-2.08-.73a8.13,8.13,0,0,1-1.47,1.92l-.11.11-3.18,3.37c-.44-.82-.32-1.52-1.12-2s-1.65-.34-2-1.45c-.28-.87.65-3.73,1.5-5,2.78-4,3.79-3.17,8.93-3.2l.58-1.11a10.27,10.27,0,0,0-3.91-.55c-1.14.32.34.59-3.52.8.54-.92.38-.44,1.16-1,.57-.37.07-.41,1.31-.69,3.09-.46,3.69-.14,6.42.48a2.66,2.66,0,0,0-1.12-1.83,5.91,5.91,0,0,0-4.31-1.94c-3.78,0-2.29.44-3.33.92-1.38.65.59-.8-1.49.82l-.13.1-.83.31c-.52.26-.57.5-.72,1-.41,1.45,0,.38-.58,1.29-.35.55-.32.63-.69,1.14-1.11,1.55.34.18-1.45,2.26l.69,1.6-1.31,1.37c-1.61.88-2-.65-2.84,2-.1.31-.07.27-.21.67-.53,1.45-2.23,1.85-2.91,2.63-.4.78.38,1.67.86,2.1l1,1.95c-.91-.17-.2,0-1.13-.9-1.39-1.36-.77-1.19-1.53-2.12-1-1.17-2.66-1.08-4.27-1.47l-1.3,1L22.78,133c-2.17,1-.5,1.26-4.17.58-.86,2.53-.33,1.87-2.1,2.85L16.8,138c-.53.44-.58.22-1,.78a13.59,13.59,0,0,0-1.85,4.05c-1.06,2.19-.32,2.64.8,5.93,1-.18.78-.15,1.49-.72l-.33-.91s.09-.17.1-.13.08-.11.1-.14l.76-1.19c.51.19.31.06.64.49.59-2.64,3.1-5.09,4.91-6.26l9.74-1.27c0-.07.1-.24.12-.2.18.42.08,0,.36-.79,1.2.65-.17.86,2.58.46-1,2.9.62,2.3,2.41,2.45l.37.06.16.07a.56.56,0,0,1,.15.08,31.91,31.91,0,0,1,2.06,3.39H41c1-1,.64-1,.75-2.5a31.36,31.36,0,0,1,1.27-3.7c.28-1.55-.65-1,2.65-2.57l.2-1c2.14-.57.91-.55,2.17-1,1.47-.51.48.33,2.32-1.16.06,0,.13,0,.15.11l.5.4c.9.41.88-.69,2.73,1l.35.33c1.1,1.1.72.95,3,0C57.12,132.17,55.52,132.13,54.22,131Zm-33.83,9c-1.45.77-1.71,1.16-2,2.31l-.92,3.17c-1.08-1.11,0-3.05.71-4.07.51-.74.69-1.5,1.06-1.86a9.8,9.8,0,0,1,3.28-1.74c.5-.2.79-.42,1.23-.63l1.89-.64c1.69-.5.1.06,1.58,0,.46,0,1.21-.15,1.52-.11.58.09-.16.13,1,.2a3.08,3.08,0,0,1,1.7.56c.37.32.05,0,.32.49C24,136.92,26.66,136.61,20.39,139.92ZM39.3,126l.34-.6a7.18,7.18,0,0,1,2.08-2.67,6.71,6.71,0,0,1,0-.9c.13-.79,0-.22.2-.55l.21,1.19a14.62,14.62,0,0,1-1.68,3.12c-1,1.25-1.36,3.29-2.22,4.12l-.85-1.78C39.1,126.59,38.62,127.17,39.3,126Zm-1.69,10.66c-.63-1.75-.18-.84-.37-2-.12-.67-.33-.74-.5-1.43l-1.47.43c.25-.84.44-1,1.29-1.2l.18.77c.85.11,1,.5,1.18,1.31a7.66,7.66,0,0,1,.07,1.17C37.89,136.82,37.83,136.37,37.61,136.62Zm.34,2.51.73-.69c-.12-1.05-.23-.47-.63-1.41h1.4l0,1.85C39,139.16,38.6,139.49,38,139.13Zm3.51-1.19c-1.12,2.68-.08,2.21-1.34,2.64l-.3-.71c-.31-1.2.2-1.1.41-1.58a4.07,4.07,0,0,0-.2-2.36l.16-.09.15-.1.22-.24c.34-.44-.08-.94,1.52-.83C41.59,136.57,41.8,137.13,41.46,137.94Z" fill-rule="evenodd"/><path d="M47.89,161l.16-.45c-1.08-.2-.1-.08-.45.23l.29.22Z" fill-rule="evenodd"/><path d="M57.28,158.22c1.56-1.52,2.7-1.34,5.34-.89l-1.5-1.2C58.87,156.33,58,156.47,57.28,158.22Z" fill-rule="evenodd"/><path d="M55.46,148.69c-2,.09-1.93.59-2.47,2.2.93-.49.48-.24,1.14-1C54.53,149.49,55,149.12,55.46,148.69Z" fill-rule="evenodd"/><path d="M55.53,159.77c-.24,1.94-.52,1.35-.07,2.45l1.07-3.07a9.67,9.67,0,0,1-1,.62Z" fill-rule="evenodd"/><path d="M53.6,170.39l.22-.49a7.17,7.17,0,0,0-1.85.28c-1,.21-.89,0-1.31.63Z" fill-rule="evenodd"/><path d="M54.92,164.66l.62.15c-.1-.84,0-1.58-.35-2.1C54.71,163.29,55,163.73,54.92,164.66Z" fill-rule="evenodd"/><path d="M251,130.22l-.88,1.77c1.21-.07.78-.7,1.93-.94.66-.14-.35.19.42-.06l1.46-1c1.52.85,1.32.45,2-.47l.91.56.71-.7,1.56.43c.42,1.38.6.57,1.39,1a3.51,3.51,0,0,1,1.51,1.6c.67,1.75.34.1.15,4.37l1,.41-.36,2.39-2.13,1.11.76,2.38c1.45,0,.52.8,2,1.11l2.53-.31a10,10,0,0,1,1.08-2.34c.89-1.57.38-.71,0-2.17-.22-.93.72-.78-.83-3.7l.61-.94-.75-3c-.15-.88.06.19,0-.64-.05-.61-.12-.41-.18-1.2a3.92,3.92,0,0,0-.86-2.22c-3.63-2.71-1.29-.36-4.53-1.88-.84-.39-.95-.21-2.54-.4-2.26,1.85-1.76-.2-3.2,1.45l-1.34,1.41-1.33-.56c-.12.29-.31.92-.46,1.19-.47.82-.39.15-.71,1.3Z" fill-rule="evenodd"/><path d="M250.1,89.38c.56.86.8.4,1.76,1.64l1.48,2a6.5,6.5,0,0,1-1.54,1.65c-.09,1.58.89,2.35,1.34,3.68l.29.06c1.23.1,2.17-.5,3.45-1l.06-1.74.4-2.4c-.21-.58.35-1.3.15-2.55a5.54,5.54,0,0,0-1.27-2.41c-.45-.62-1.33-1.22-1.76-1.9s-.12-.72-.74-1.07c-1.3-.72.07.74-2.3-1.15-1.19-.94-1.5-.38-2.69-1a7.61,7.61,0,0,0-2.4-.53,13.27,13.27,0,0,0-4.24,1.24c-.23.4-.31.87-.89,1.14-1,.44-.24-.28-1.58.56l.88,2.18.69-.92c1.07.19.54.47,1.63.09a8.92,8.92,0,0,1,3.2-.48c.76.1.38.46,1.33-.11.42.33.31.24.68.83l.92-.56c1.93,1.7,1,1.29,3.86,1.68,1.1,2.74.89,2.33,3.55,4.18l-1.48,1c-.51-.79.07-.45-.66-1.13-.4-.37-.73-.36-1.08-.74s-.15-.12-.34-.6c-.41-1,.09-.1-.56-1l-.33-.68-1.81.15Z" fill-rule="evenodd"/><path d="M226.52,161.74l.15,1.54,1,.09c1.26-.62.64-.82,1.4-1.93,1.13-1.62,1.15-4.14,1.87-5.22s.48-1.51,1-2.57c.27-1.33.77-2.17.69-3.63-.79-2.17-.25-5.07-3.58-8.93a2.36,2.36,0,0,0-1.94-1,13.28,13.28,0,0,1-2.78-.52l-4.78.12a1.92,1.92,0,0,0-.2,1l3,.91,1.14-.56c1,1.23.5.79,2,1.66l.05,1.82-1.12.75c1.81,1.62.37,1.34,2.11,2.5-.48-2.31-1.55-1.4.69-3.7-.07,1.33-.5,1.26.56,2.36.45.47.47.31.6,1.23a8,8,0,0,0,.16,1.6c.38,1.26.88.8.6,2.94l-.92,2.82a7.57,7.57,0,0,1,.3,2.72,3.84,3.84,0,0,1-1,2.35l.23-3.33c-1.47,4.22-.62,3.23-1.08,4.9Z" fill-rule="evenodd"/><path d="M236.63,149.12l.69.07c.44-1.5.45-.4-.06-2s-.52-1.54-.18-2.11l1.27,2.34.65-.95-1.66-1.85c.41-1.83.3-3.29.93-4.27.47-.71.39-.63,1.22-.85-1.28,3-.53,1.33-.83,3.46-.21,1.46-.2,2.14,1.26,2.53,1.08.29.58.1,1.34-.1,1.06-.28.91.06,1.89-.16,1.23-.28.34-.37,1.31-.76.72-.29.75,0,1.51-.45l0-1.37c-.39-.41-.43-1.57-.68-2.13a8.58,8.58,0,0,0-2.6-2.22c-1.6-.57-2.09.09-3.59.73a3.68,3.68,0,0,1-2.12-2.31c-.7-1.62-.86-1.27-1.58-1.84a4.84,4.84,0,0,0-4.06-1.37c-1.5.1-1.91.85-2.71,1.77.59.12,3.24,0,4.68,1,.48.34.47.66.88,1.15,1.27,1.52.8.28,1.54,2.56l1.19,2.67c-.36-.15-.45-.45-.75-.81L235,141c0-1.19.15-1.11-.32-2l-.42-.76c-.35-.37.29-.31-1.09-.21l1.07,2.18-1.06,0c0,.93.82,1.94,1.6,3.62.16-.26.28.56,0-1.3l-.17-1.49c2.19,3.66.48,4.45,2,8.06Z" fill-rule="evenodd"/><path d="M229.59,118.57a3.09,3.09,0,0,0,1.33,3c1.3.1.76-.07,1.53-.31a4.68,4.68,0,0,1,1.58-.1l3.43-.25c.6.46,1.1.41,2.11.58l.12,1.3c1.88.6,2.39,3.08,3,3.78l.25.21c-.67,1.14.12,1.22.58,2.21.29.62.49,1.53.84,2.34.18.4.67,4.76.82,5.76,2-.66.9-1.15,1.29-4.05.2-1.46-.5-3.5-.77-5.11-.42-2.48-.31-4.56-1.51-6.24-.76-1.06-1-2-2.84-2-.29-1.79-1.4-1.87-3.38-2.67l-.47,1.07s-.06-.18-.08-.15-.05-.11-.07-.14c-1.14-1.61-3.83-.62-5.8-.15-1.48.35-.22,0-.91.49a7.28,7.28,0,0,1-1.09.42Z" fill-rule="evenodd"/><path d="M257.43,120.16l.86,0c3.38-1.23,2.48-1.3,6.87-1.79,3-.34,4.85.41,7.66,1.2-.17-1.5.05-.94-1.16-1.3l-1.13-1.16c1.46-.38.15.1.85.15,1.27.08-.59-1.06,2.83.45l-.69,1.12,1.49,1.34.91-.78a5.2,5.2,0,0,0-.91-3.57c-.81-1.23-1.35-1.32-3-1.56s-1.92-.85-3.19-1.41-.59,0-1.77,0c-.36,0-1.44-.33-1.67-.36-.86.48-.26.36-1,.57s.18-.22-.66.1c-.49.18-.22.23-.7.36a4.3,4.3,0,0,1-1.08.08c-2,.19-2.52.76-3,1.8l-1.65-.31.19,1.6c-3.46,1.28-2.54.84-2.46,2.21.09,1.53-.06-.22-.24,1.29,2-.75,1.42-.23,2-2.25l1.65.06.25-.27.12-.12,1.46,0c1.94-1.5,1.26-1.11,3-1.14l.69-.89.57.61a4,4,0,0,0,.57.53l.91-1.11,1.35.13.14,0c.38.14.17.17.77.57a3.9,3.9,0,0,0,.67.35l1.6-1.25c-.11,1,0,1-.39,1.31l-.15.11-.42.28c-1.35.77-1.71,0-2.88-.33l-.87.83c-4.75-.68-2.68-.21-4.59.74-1.16.58-1.32-.32-2.48.24-.84.41-1.21.68-1.38,1.54Z" fill-rule="evenodd"/><path d="M246.63,142.32c.55,1.27.9.45,1.63.05,1.39.62.73.44,1.78.49.76,0-.22.18.67,0,.66-.12-.24-.07,1.23-.29.65-.1.22,0,.89-.43,2,.83,2.37,1.22,4.22.73l1.19,2.45c.54.79.05-.33.55.74a6.73,6.73,0,0,1,2,1.95l.18,3.64,2.75-.24c.1-3.72-.45-3.67-1.26-5.06a7.81,7.81,0,0,1-1.13-2.86,17.71,17.71,0,0,1-1.64-1.9c-.75-.77-1.22-.67-1.89-1.53-1.28-1.63-2.74-1.36-5-1.44l-.63,1.12c-1.74-.34-.75-.92-2.72.29-.83.51-.92.29-1.48.57a4.94,4.94,0,0,1-1.33.78l0,.91Z" fill-rule="evenodd"/><path d="M241.19,154.06c-1.59-.05-1-.16-1.82.6-1.07,1.05-.2-.63-1.4.59-.95.62-.49-.09-1.45.89a2.29,2.29,0,0,0-.86,1.93c1.34,0,.51.13,1.29-.35.6-.37-.15,0,.61-.34L239,157h.16c1.21-.08.15-.4,1.58,0,.48-.7.63-.91,1.66-.65a5.17,5.17,0,0,1,1.86.65.64.64,0,0,1,.13.1c.56.42-.24.18.49.35.91,0,1.55-.56,2.38,1.76l1.92.17c-.25,3.68.9.34.12,5.92-.06,0-.16,0-.18.09-.12.31,0,0-.73.37l3,1c.23-.82.11-1.8.32-2.63.31-1.25.75-.84.07-2.34-.84-1.87.07-2.66-1-4.69-.63-1.17-3.82-2.7-4.76-2.85-2.3-.38-.52-1.62-3.2,0-.92-.3-.42-.36-1.59-.29Z" fill-rule="evenodd"/><path d="M249.2,130.22l.07.41a1.7,1.7,0,0,0,.85-.59l.78-.89a4,4,0,0,1,1.2-2.38l-.22-3.28-.7-4.83c-.21-.57-.5-.59-.82-1-1.12-1.51.28-1.7-5-1.79l-.52,1.2c3,1.09,1.91,1.25,3.29,2.37l.45.31c0,1.31-.36,1.09-.57,2.19l.93,1.69c-.15,1.06-.45.39-.23,1.41.52,2.4.07,2.2.56,3.56C249.42,129.13,249.68,129.73,249.2,130.22Z" fill-rule="evenodd"/><path d="M256.43,112.15c.16.78-.17.64-1.78,2a2.88,2.88,0,0,1-.36-.4c-.6-.84-.27-1-.86-1.72l-.46,2.58-1.1.33,1,0c.3.5.36.45.34.93a14.09,14.09,0,0,1-.63,2.13c-.07.89.46-.22.07.89s-.45-.64-.32,2.47l-.4,2.2.21,3.28c.71-1,1-3.47,5.27-5.92l.92-.71-.86,0a20.78,20.78,0,0,0-2.29,1.42c-.82.66-.92,1.2-1.87,1.54l2.42-8.07c.45-.82,4.89-2.59,5.8-4.41l-2.57,1.1.12-1.33-.24.45s-.06.11-.09.15a1.37,1.37,0,0,1-.71.65,6.62,6.62,0,0,1-1.57.49Z" fill-rule="evenodd"/><path d="M260.42,95.27c0,.42-.07.31-.62.82l-1.44.86-.25.87s.12,0,.14.09l.28.18c2.8,1.53,1.1-1,4.79,1.54l.74-.4c1.15-.72,1.28-.57,2.94-.91.15-.81.61-1,.28-1.95-.72-2.13-4.69-2.48-5.76-2.4-.72.17-1,.45-1.1,1.3Z" fill-rule="evenodd"/><path d="M247.35,148.43c.11-1.05,5.16-1.84,6.49,1.78.31.86,0,.79.43,1.44l1,.64c.4-.69.72-1,.7-1.74a5.61,5.61,0,0,0-.84-2.09c-2.07-2.46-1.32-2.12-3.45-2.55-2.12,0-1.92.45-3.66.48-1.89,0-1.45.37-1.6.51a3.94,3.94,0,0,1-1.16.77l2.08.76Z" fill-rule="evenodd"/><path d="M226.33,157.37c1.16-4.93-1.52-3.27-4.7-5.76l-2.08-1.78c.73,4.16,4.16,5.34,5.83,6.7C226.06,157.09,225.66,157,226.33,157.37Z" fill-rule="evenodd"/><path d="M237.17,158.87c.19.32-.26.24.62.35,3.33-.57,8.87-.32,10,3.44l.29,1.09a1.33,1.33,0,0,1,0,.19l.13.36c.21-.19.28.1.46-.77a7.24,7.24,0,0,0-.5-2.86,8,8,0,0,1-2.81-1.8,11.5,11.5,0,0,0-3.08-1.65c-3.45,1.34-3,.27-4.32.82-1,.44,0,.12-.84.83Z" fill-rule="evenodd"/><path d="M239.24,98.41c5.79-.74,8.47,1.68,11,6.59,1.35,2.66.3,1.34,2.35,3.56-.42-2-.59-2.63-2-3.66-.24-2.34-.07-.12-.91-2.5-.3-.82.14-.09-.56-.86-2.53-2.82-1.45-.85-2.61-2.39-.84-1.12-1.22-1.88-2.82-1.61-1.86.31-3.48-.45-4.43.87Z" fill-rule="evenodd"/><path d="M240.27,153.41c.47-.46,1.58-.66,2.33-1.46,1-1.1.72-1.11,2.05-1.65l.41-.15-.86-.07v-.62c-1.24.24.21-.14-1.73,1.21a6.89,6.89,0,0,1-2,.93,15.27,15.27,0,0,0-2.29.69c-.74.43-.9.9-1.78,1.22l.94-4.32-.69-.07-.79,5.17c.73-.34.48-.61,1.64-.85a17.1,17.1,0,0,1,2.79,0Z" fill-rule="evenodd"/><path d="M240.73,147.18c-.67-.47,0-.2-.68-.48-.21.38-.21,1.62-.55,2.37l-1.28,2.43c1.24-.38.41-.42,1.15-.93.59-.4,1.27-.18,2-.3l2.13-2.35-2,.73c.38-1.9,3.77-1.86,5.25-3.36-.75-.35-2,.34-3,.92-1.66,1-.24,0-3,1Z" fill-rule="evenodd"/><path d="M237.47,123.61c.91,2.18,3.53.11,6.74,13.53-.07-.59-.27-1.45-.35-1.91-.15-.93.07-1.75-.05-2.63-.2-1.47-1.05-2.57-1.47-3.75-1.69-4.71-.26-1.35-2.38-4.24a7.54,7.54,0,0,0-1.92-2.07,3.09,3.09,0,0,0-.57,1.07Z" fill-rule="evenodd"/><path d="M257.35,93.23l-.41,2.4,1.38.27c1.33-1.57.31-.18.77-4,.16-1.34.2-.65-.51-2.49,1.63-.27,1.15,1.31,1.73-.86-1.43.39-1.41.52-2.35-.3l.35,5.52c-.56-.15-.48-.17-1-.55Z" fill-rule="evenodd"/><path d="M249.27,130.63l-.07-.41c-.64-.35-.69-.4-.86-1.19-.57-.43-.36-.37-.7-.84-.55.13-.87-.17-.46,1.47l.32,4a3.24,3.24,0,0,0,.31,2.08c1.63-.38.46-1.19-.11-4.55-.18-1.07-.21-.88.11-1.64.26.66.58,1.41.79,1.95.54,1.36,0,1,.91,2.22C249.54,132,248.76,132,249.27,130.63Z" fill-rule="evenodd"/><path d="M251.91,145c1.1.16,2.87.16,3.66.8.69-.08.77.61.7-.67,0-.84-.94-.63-3-1.2a13,13,0,0,0-4.38.48c.36.69,0,.45,1.14.55.56,0,1.27,0,1.87,0Z" fill-rule="evenodd"/><path d="M251.24,133c-.09.66.29.4,1,.34,3.67-1.46.56-1.41,6.7-1.17-1.19-2.43-2.8-1.15-3.65-1a5.59,5.59,0,0,0-2.75.94l-.29.17c-.56.39-.38.51-1,.7Z" fill-rule="evenodd"/><path d="M246.34,148.89c-1.21-.13-1.37-.27-2.15.57l0,.62.85.07c2.32-1.52,5.81-.07,7.85.6-.3-1.48,0-.34-3.17-2.36a11.1,11.1,0,0,1-2.67.8c-1.11,0-.65-.18-.73-.3Z" fill-rule="evenodd"/><path d="M250.1,89.38c-.21-.31,0-.08-.31-.38-.77-.75-.36-.19-1.07-1.42-2.1.54-1.63-.52-4.23,0a20.58,20.58,0,0,0-3.58.83c.55.25,3.66-.15,4.84-.09,2.05.1,3,.8,4.35,1Z" fill-rule="evenodd"/><path d="M224,144.82c0-1.94.2-1.28-.78-2.77l-3.55,0a4,4,0,0,0,2.1,1.39c1,.44,1.38.94,2.23,1.36Z" fill-rule="evenodd"/><path d="M247.5,137.38c4.23-.81,3.43-.61,6.54-2.9-1.27.35-2,1-3.36,1.31s-2.78.19-3.18,1.59Z" fill-rule="evenodd"/><path d="M259.63,132.65c.4,1,1.23,1.56,1.49,2.46a14,14,0,0,1,.19,2c0,1.19-.3.85.19,1.91.86-.45.66-.19.38-1.34a6.06,6.06,0,0,1-.13-1.95l-.94-3.18-1.18.14Z" fill-rule="evenodd"/><path d="M258.3,146.14c-.41-.16-.38-.28-.91-.25-1.17.09-.5.08-.74.45,2,.61,2.62,2.73,3.62,4.81.25-1.6-.18-1.58-.67-2.77l-1.3-2.24Z" fill-rule="evenodd"/><path d="M232.19,122.47l.36.18,2.63.32,0-1.31c-1.23.57-2.21-.2-3,.81Z" fill-rule="evenodd"/><path d="M247.64,128.19c.34.48.13.41.7.84a16.36,16.36,0,0,1-.41-3.74c-.08-.61-.11-.49-.58-1.14-.06.11-.4-.06-.21,1,.08.42.26.49.36.81a9.25,9.25,0,0,1,.14,2.24Z" fill-rule="evenodd"/><path d="M252.2,133.36c-.67.06-1,.31-1-.34-.06,0-.14,0-.16.15-.21.86-.12.11-.27.3,0,0-.28.39-.38.52l-.91,1.15c.87.09.92.14,2.35-1.31C252.18,133.51,251.93,133.79,252.2,133.36Z" fill-rule="evenodd"/><path d="M267.78,98.18c.18-.29-.57.61,0,0Z"/><path d="M275.67,100.75c-.52-2-2.88-2.4-4.6-3.78l-.67.58-.91-.67c-.86.56.26-.1-.56.6s-.54,0-1.14.7h0c0,.06-.08.13-.18.28-.71,1.07-.88.47-2.08,1.09-1,.53-.14.36-1.43,1l.61,1.33c2.19.14,2-1.41,3.05,0a1.6,1.6,0,0,1-.49.27c-2.16,1-1.71-.15-4.19,2.25.19-2.86.45-2-.83-4-.57-.87-.39-.63-1.42-1.31-.05,0-.13,0-.15.08l-.77.36c-.89-.43-.73-.79-1.54-.82a3.08,3.08,0,0,0-3.32,3.94c-.57.65-.33.68-.94,0A19.14,19.14,0,0,1,252.92,99a7.3,7.3,0,0,1-2-1.57c-1.55-1.74-.48-2-4.2-2.67-2-.36-.78.24-2.81-.82l-.92.76-4.24-1.1c-.12.22-.28.58-.39.74-.74,1.1-.76,0-.16,3.08,1.48.11.88.17,1.91-.44s.65-.09,1.75-.07c1.41,0,.08-.4,1.9-.08l2-.15c1.2,2.3-.17-1,1.9,2.26H249c0,2-.28,1.47,2,2.14,0,2-.1,1,.53,2.22l.07.15s.05.11.08.15a11.12,11.12,0,0,0,.66,1.61,4.08,4.08,0,0,1,.41.74l.52,1.78,2.14-.31s-.1-.14-.12-.11l-.59-.56c-.91-1.17-.14-2.34.73-3.16-.28,2.22.42,2.44,1.08,3.62,1.23,2.22.23.86,2.32,2.5L256,108.33l-2.45,1.13.79,1.88,1.7,0,.37.77a6.62,6.62,0,0,0,1.57-.49,1.37,1.37,0,0,0,.71-.65s.06-.11.09-.15l.24-.46,2.35-1.4-.07-1.36c1.67-.17.67,0,1.46-1l.81-1.92c.27-.29,6.09-3.84,9.55.19l2.05,2.53C277.25,106.4,276.14,102.6,275.67,100.75Zm-6.77,1.48c.72-1,.21-.31,1.12-.92.75-.51.22-.48,1.06-.74l.65.67A4.82,4.82,0,0,1,268.9,102.23Zm4,1.5c-1.25-1.42-.93-1.07-.84-1.7a8.1,8.1,0,0,1,2.62,2.41C273.75,104.72,273.45,104.31,272.93,103.73Z"/><path d="M235.68,122.92l.42-.22s.08.06.1.14.09.11.11.14l.41.43.56-1.55-1.34-.34C235.62,121.93,235.47,122,235.68,122.92Z" fill-rule="evenodd"/><path d="M246.87,121.74l.39-1.56c-1-.57-.22.25-1.7-1.36.22.92.67,2.47,1.31,2.92Z" fill-rule="evenodd"/><path d="M260.42,95.27c.14-.85.38-1.13,1.1-1.3l0-.43-.5.28-.6-.36c-.24,1.36-.55.22-1,1.78l.94,0Z" fill-rule="evenodd"/><path d="M274.38,87.22c-1.46-1.84-3.62-.72-4.37-.87-1-.2-.51-.58-2.13-.29a7.57,7.57,0,0,1-2.32.37c-1.72-.05-2.6,1.34-3.6,2.47l1.8.09.63,1.47L262,91.57l.15-1.25c-1.24,0-1.32.17-1.81,1.11s-.33,0-.63,1.79l.72.24.6.36.5-.28c.66-1.46,3.43-3.06,5.86-3.25l7.09,2.12,2-1.18C276.74,89.55,275.45,88.57,274.38,87.22Zm-9.48,3.06a7.11,7.11,0,0,1,1.16-1.57l1,.36C266.47,90,265.86,90,264.9,90.28Zm2.65-.91.16-.68c1.06,0,.53.23,1.38-.17.58-.27.3-.31,1.08-.56l1.08,1.16C270.22,89.2,268,89.59,267.55,89.37Zm4,.23c.19-.27,0-.09.31-.4.61-.6.62-.43,1.06-.5l.15,1.61Z" fill-rule="evenodd"/><path d="M232.84,137.67l.06-.6-2.46-.89c.26.85,0,.25,1.13.93.62.37.57.6,1.27.56Z" fill-rule="evenodd"/><path d="M247,140.16l1.16-.27.39-1.53c-.65.39-.4.32-.91.8S247,139.36,247,140.16Z" fill-rule="evenodd"/><path d="M227.49,153.53c.1-.17,0,.06.24-.49.3-.87.21-.7-.44-1.76a2.51,2.51,0,0,0,.2,2.25Z" fill-rule="evenodd"/><path d="M264.92,80.47,264.26,77l-2.07-.4c1.23-2.42-1.77-.88-2.75-2.76-.92.18-1.88.54-2,1.76-.06.73.05,1.21-1.52,2.06-1.33.71-1.06,0-2,2.76-1.38,4,3,6.14,4,7.84.95.82.93.69,2.36.3A7.1,7.1,0,0,1,262,86.5a8.59,8.59,0,0,0,1.7-2.35L263.33,83C263.9,82.89,265.23,83.26,264.92,80.47Zm-4.66-.58-.87-.19h0c.31-.28-.31-1.06,1.16-.29l.09,0c.45.21.24-.16.47.35C260.44,80,260.73,80,260.26,79.89Z" fill-rule="evenodd"/><path d="M252.43,109.37c-1.42-.38.09.09-1.8.62l-1.43.56c.33.3-.2.28,1.15.29l0,1.08,1,.15c0,1.82.46,2.56-1.31.63l-1.54-1.42c0-1.1,0-1.1.63-1.64l1.38-1.1c-.53-1.12-3.34-1.33-3.39-1.33l-3.48,2.25,2.36.25-1.06,1.48c4.4,1.26,2.68-.31,6.68,4.33.35-.44.06.09.25-.61l1.1-.34.46-2.58Zm-5.65,1c.16-.15-.31-1,1.32-.27C247,111,247.28,110.79,246.78,110.41Z" fill-rule="evenodd"/><path d="M243.53,170.65c-.07-.87.06-.25-.32-.54l-.44-.25a.6.6,0,0,1,.09.18s.2.32.2.32C243.46,170.75,243.11,170.4,243.53,170.65Z" fill-rule="evenodd"/><path d="M242.78,169.86l-.48-.38c-.13.41-.25.34.16.42l.32,0Z" fill-rule="evenodd"/></svg>