<svg xmlns="http://www.w3.org/2000/svg" width="400" height="368" viewBox="0 0 400 368"><path d="M-.35-.27h400.83l-.3 368.49H-.15z" fill="#fec500"/><path d="M380.53 304.35h20.36m-20.36 6.87h20.36m-20.36 6.87h20.36M380.53 325h20.36m-20.36 6.87h20.36m-20.36 6.87h20.36m-20.36 6.87h20.36m-20.36 6.87h20.36m-20.36-96.18h20.36m-20.36 6.87h20.36M380.53 270h20.36m-20.36 6.87h20.36m-20.36 6.87h20.36m-20.36 6.87h20.36m-20.36 6.87h20.36m-20.36 6.87h20.36m-20.36-96.18h20.36M380.53 215h20.36m-20.36 6.87h20.36m-20.36 6.87h20.36m-20.36 6.87h20.36m-20.36 6.87h20.36m-20.36 6.87h20.36m-20.36 6.87h20.36m-20.36-96.18h20.36M380.53 167h20.36m-20.36 6.87h20.36m-20.36 6.87h20.36m-20.36 6.87h20.36m-20.36 6.87h20.36m-20.36 6.87h20.36m-20.36 6.87h20.36M380.53 112h20.36m-20.36 6.87h20.36m-20.36 6.87h20.36m-20.36 6.87h20.36m-20.36 6.87h20.36m-20.36 6.87h20.36m-20.36 6.87h20.36m-20.36 6.87h20.36M380.53 63.9h20.36m-20.36 6.87h20.36m-20.36 6.87h20.36m-20.36 6.87h20.36m-20.36 6.87h20.36m-20.36 6.87h20.36m-20.36 6.87h20.36M380.53 112h20.36m-20.06-96.49h20.35m-20.65 7.17h20.36m-20.36 6.87h20.36m-20.36 6.87h20.36m-20.36 6.87h20.36m-20.36 6.87h20.36M380.53 57h20.36m-20.36 6.9h20.36M288.2 368.22l.3-368.49m6.58 368.49l.3-368.49M302 368.22l.3-368.49m6.57 368.49l.3-368.49m6.57 368.49L316-.27m6.57 368.49l.3-368.49m6.57 368.49l.3-368.49m6.57 368.49L336.6-.27m-96.49 368.49l.3-368.49M247 368.22l.3-368.49m6.57 368.49l.3-368.49m6.57 368.49L261-.27m6.58 368.49L267.9-.27m6.57 368.49l.3-368.49m6.57 368.49l.3-368.49m6.56 368.49l.3-368.49M192 368.22l.3-368.49m6.57 368.49l.3-368.49m6.57 368.49l.3-368.49m6.57 368.49l.3-368.49m6.57 368.49L219.8-.27m6.57 368.49l.3-368.49m6.57 368.49l.3-368.49m6.57 368.49l.3-368.49m-96.49 368.49l.3-368.49m6.57 368.49l.3-368.49m6.58 368.49L158-.27m6.57 368.49l.3-368.49m6.57 368.49l.3-368.49m6.56 368.49l.3-368.49m6.58 368.49l.3-368.49M192 368.22l.3-368.49M95.83 368.22l.3-368.49m6.57 368.49L103-.27m6.57 368.49l.3-368.49m6.57 368.49l.3-368.49m6.57 368.49l.3-368.49m6.57 368.49l.3-368.49m6.57 368.49l.3-368.49m6.57 368.49l.3-368.49M47.74 368.22L48-.27m6.57 368.49L54.91-.27m6.57 368.49l.3-368.49m6.56 368.49l.3-368.49m6.58 368.49l.3-368.49m6.57 368.49l.3-368.49M89 368.22L89.26-.27m6.57 368.49l.3-368.49M6.51 368.22L6.81-.27m6.57 368.49l.3-368.49m6.57 368.49l.3-368.49m6.58 368.49l.3-368.49M34 368.22L34.29-.27m6.58 368.49L41.16-.27m6.58 368.49L48-.27m288.3 368.49l.3-368.49m6.57 368.49l.3-368.49M350 368.22l.3-368.49m6.57 368.49l.3-368.49m6.58 368.49l.3-368.49m6.56 368.49L371-.27m6.58 368.49l.3-368.49m6.57 368.49L384.7-.27m-96.5 368.49l.3-368.49m6.58 368.49l.3-368.49M302 368.22l.3-368.49m6.57 368.49l.3-368.49m6.57 368.49L316-.27m6.57 368.49l.3-368.49m6.57 368.49l.3-368.49m6.57 368.49L336.6-.27m-96.49 368.49l.3-368.49M247 368.22l.3-368.49m6.57 368.49l.3-368.49m6.57 368.49L261-.27m6.58 368.49L267.9-.27m6.57 368.49l.3-368.49m6.57 368.49l.3-368.49m6.56 368.49l.3-368.49M192 368.22l.3-368.49m6.57 368.49l.3-368.49m6.57 368.49l.3-368.49m6.57 368.49l.3-368.49m6.57 368.49L219.8-.27m6.57 368.49l.3-368.49m6.57 368.49l.3-368.49m6.57 368.49l.3-368.49m-96.49 368.49l.3-368.49m6.57 368.49l.3-368.49m6.58 368.49L158-.27m6.57 368.49l.3-368.49m6.57 368.49l.3-368.49m6.56 368.49l.3-368.49m6.58 368.49l.3-368.49M192 368.22l.3-368.49M95.83 368.22l.3-368.49m6.57 368.49L103-.27m6.57 368.49l.3-368.49m6.57 368.49l.3-368.49m6.57 368.49l.3-368.49m6.57 368.49l.3-368.49m6.57 368.49l.3-368.49m6.57 368.49l.3-368.49M47.74 368.22L48-.27m6.57 368.49L54.91-.27m6.57 368.49l.3-368.49m6.56 368.49l.3-368.49m6.58 368.49l.3-368.49m6.57 368.49l.3-368.49M89 368.22L89.26-.27m6.57 368.49l.3-368.49m285.25 350.15l18.8 18.34" fill="none" stroke="#dfad00" stroke-width="2.34"/><path d="M381.68 18.07l18.8-18.34" fill="none" stroke="#dfad00" stroke-width="2.35"/><path d="M.15 14.34h385.72l-.3 339.27H-.15z" fill="#fff"/><path d="M190.24 123.06s-.62 69.1-.62 74.12 0 11.93-5.55 10.68-12.32-1.26-22.19-8.17-9.86-8.16-9.86-8.16l9.25-3.14s-9.25-1.89-15.41-6.28-11.1-8.17-11.1-8.17-.62 9.43 2.46 16.33 9.25 13.19 9.25 13.19v-8.16s8.63 8.16 11.72 10 15.41 6.91 20.34 10.05 14.79 11.93 14.79 11.93 8.63-10.05 14.8-12.56S222.3 208.49 226 206s13.56-12 13.56-12v10.68s6.78-8.16 8.63-13.82 2.46-15.7 2.46-15.7a55.22 55.22 0 01-9.24 5.65c-4.32 1.88-16.65 6.91-16.65 6.91l9.86 2.51s-16 12.57-21.57 15.08-17.26 3.76-17.26-2.51.62-79.78.62-79.78zm.62-23.24h4.31v18.84h-4.31z" fill="#fec500" stroke="#fec500" stroke-width=".88"/><path d="M160 118.67s17.26-3.77 33.28-3.77 32.72 3.76 32.72 3.76v6.92s-22.19 3.14-35.13 3.14-31.46-3.72-31.46-3.72z" fill="#fec500" stroke="#fff" stroke-width=".88"/><path d="M199.49 115.53c0 4.16-2.9 7.53-6.48 7.53s-6.47-3.37-6.47-7.53 2.9-7.53 6.46-7.53 6.49 3.36 6.49 7.53zm3.08-.32a9.88 9.88 0 11-9.86-10.36 10.12 10.12 0 019.86 10.36z" fill="#fec500" stroke="#fff" stroke-width=".88" fill-rule="evenodd"/><path d="M249.77 235.77s-8.19 7.48-16.2 8.54-20.63 4.84-20.63 4.84-.34 11.52.05 12.52.65 1.26 1.8 1.31a90.8 90.8 0 0022.72-2.16c12.93-3 25.62-10.8 25.62-10.8-3-1.21-10.11-2.28-14.73-3.43zm-24 17.8c.87 2.33-13 4.5-12.8 8.1m-77.34-25.9s8.19 7.48 16.2 8.54 20.63 4.84 20.63 4.84.34 11.52-.06 12.52-.64 1.26-1.79 1.31a90.8 90.8 0 01-22.72-2.16c-12.94-3-25.62-10.8-25.62-10.8 2.95-1.21 10.11-2.28 14.72-3.43zm24 17.8c-.88 2.33 13 4.5 12.79 8.1" fill="#003271" stroke="#fff" stroke-linejoin="round" stroke-width=".58"/><path d="M161.89 253.08a2.19 2.19 0 00-2.26.49v-20a2.21 2.21 0 012.37-.12c5.32 2.32 19 7 30.71 7s25.39-4.7 30.7-7a2.23 2.23 0 012.38.12v20a2.17 2.17 0 00-2.26-.49c-5.67 1.76-20.49 6.14-30.82 6.14s-25.15-4.38-30.82-6.13z" fill="#003271" stroke="#fff" stroke-linejoin="round" stroke-width=".58"/><path d="M192.71 40.94l6.18 14.87 16.05 1.29-12.23 10.47 3.74 15.66-13.74-8.39L179 83.23l3.74-15.66-12.26-10.47 16.05-1.29zM259.27 57.35l-1.44 16L271.44 82l-15.69 3.59-4 15.6-8.27-13.82-16.07 1L238 76.28l-6-15 14.81 6.32zM310.54 102.78l-8.72 13.53 8.06 13.94-15.57-4.11-10.76 12-.9-16.08-14.72-6.54 15-5.82 1.67-16 10.17 12.48zM334.85 166.87l-14 7.93.66 16.09L309.62 180l-15.1 5.6 6.68-14.6-10-12.63 16 1.83 8.92-13.41 3.21 15.78zM326.59 234.9l-16.1.51L303.6 250l-5.46-15.15-16-2.05 12.72-9.88-3-15.82 13.32 9.05 14.13-7.72-4.49 15.46zM287.66 291.3l-14.49-7-12.86 9.7 2.2-15.95-13.18-9.24 15.85-2.83 4.72-15.4 7.59 14.21 16.1-.28-11.16 11.61zM227 323.15l-9.56-13-15.89 2.59 9.37-13.09-7.38-14.31 15.35 4.85 11.31-11.39.12 16.1 14.38 7.24-15.27 5.09zM126.15 57.35l1.44 16L114 82l15.69 3.59 4 15.6 8.27-13.82 16.06 1-10.64-12.09 6-15-14.8 6.32zM74.88 102.78l8.72 13.53-8.06 13.94 15.57-4.11 10.76 12 .9-16.08 14.72-6.54-15-5.82-1.67-16-10.19 12.44zM50.57 166.87l14 7.93-.65 16.09L75.8 180l15.09 5.6-6.67-14.6 10-12.63-16 1.83-8.93-13.41-3.21 15.78zM58.83 234.9l16.1.51L81.82 250l5.46-15.15 16-2.05-12.72-9.88 3-15.82-13.32 9.05-14.13-7.72 4.49 15.46zM97.76 291.3l14.49-7 12.86 9.7-2.21-16 13.19-9.24-15.85-2.83-4.72-15.4-7.59 14.21-16.1-.28L103 276.07zM158.43 323.15l9.57-13 15.89 2.59-9.37-13.09 7.38-14.31-15.35 4.85-11.33-11.39-.12 16.1-14.38 7.24 15.28 5.09zM211.59 247.64v-6.58l4.74-1.29 4.75-1.28v2.64L218 242l-3.1.84v2.64l2.34-.63 2.33-.64v2.64l-2.37.64-2.37.65v2.59l3.13-.85 3.13-.85v2.65l-4.75 1.28-4.75 1.29v-6.58zm-9.18.29c1.12-.36 1.67-1 1.47-1.68s-1.21-.94-3-.84l-.77.05v2.83l1-.12a10.57 10.57 0 001.32-.24zm-5.48 1.8v-6.59l2.16-.19a14.85 14.85 0 014.72 0c2 .42 3.18 1.52 3.29 3.2a3.14 3.14 0 01-1.18 2.77 9.06 9.06 0 01-4.67 1.77l-1.08.18V256l-1.62.16-1.62.17v-6.59zm-10.68 4a2.64 2.64 0 001-1.6 10 10 0 00-.2-5c-.46-1.14-1.46-1.54-2.35-.92s-1.08 1.72-1 3.8c.07 2.26.48 3.45 1.32 3.82a1.4 1.4 0 001.23-.07zm-1.61 2.7a4.92 4.92 0 01-3.51-2.64 11 11 0 010-8.13c.87-1.71 2.7-2.57 5.06-2.36 2.54.22 4 1.67 4.49 4.41a16.42 16.42 0 010 3.65c-.32 2.58-1.39 4.2-3.16 4.83a6.17 6.17 0 01-2.9.23zm-20.16-11.4v-6.58l1.62.4 1.62.4v5.29l2 .48 2 .48v-5.28l1.65.41 1.66.4v13.16l-1.66-.41-1.65-.4v-5.29l-2-.48-2-.49v5.29l-1.62-.39-1.62-.4v-6.58z" fill="#fec500"/></svg>