<svg xmlns="http://www.w3.org/2000/svg" width="200" height="300" viewBox="0 0 200 300"><path d="M155.91 202.45c0-.47.52-1.59-.14-1.88-.17.59-.51 1.41-.1 2a.36.36 0 00.24-.12zM155.56 195.17v.01h0v-.01zM158.07 191.7c-.18-.11-.3.06-.41.18-.45 3.41 0 6.91-.82 9.91h.41c.98-3 .36-6.92.82-10.09zM156.64 188c-.7 1.36-.63 3.06-1.21 4.53h.29A23 23 0 00157 188zM154.55 200.46c0-.05 0-.12.17-.12a21.56 21.56 0 00.84-5.16h-.23l-.62 3.06c-.18.7-.52 1.57-.16 2.22zM89 236.53a1.69 1.69 0 00.13 1.52c.11 0 .23 0 .29-.11-.25-.42.15-1.18-.42-1.41zM89.08 232.65c-.11.54-.58 1.37-.11 1.77a2.8 2.8 0 00.4-1.77zM89.46 209.2l-.94 1.07c-.11.4.13.4.3.64l.53-.65.12.53c-.92 2.58-.38 5.62-.77 8.15h.41c.63-2.41-.15-4.82.66-7-.24-.58.52-1.46-.19-2l.29-.35c-.18.02-.12-.34-.41-.39zM83.7 227.16c-.5 1-.1 2.59-.9 3.52.7-.65 1.54-1.25 1.21-2.56.29-.58-.3-1.75.92-1.88a2 2 0 001.22-1.7c-1 1.11-2.32 2.23-3.85 2l-.39-5.5c.53-.59 1.35-1.19 1.92-1.72a20.63 20.63 0 00-.42-3.33c-.65-.06-.88.83-1.58.53-.47-.47-.07-1.17-.49-1.57-.06-1.12-.31-3.11.21-4.23 1.47-.25 3.1-.78 4.63-1.2-.47-.82-1.71-1.46-1.72-2.5a5.91 5.91 0 011.28-1.84c.79.87 1.65 2 2.8 2.22a8.2 8.2 0 01-2.76-2.4c-1.17.36-1.22 1.42-1.92 2.24 0 .82.89 1.69 1.54 2.27a1.51 1.51 0 01-.76.25c-1.11.77-2.93.19-3.8 1.26.07 2.15-.27 3.93.39 5.91.53.53 1.11-.07 1.64-.18a7.42 7.42 0 01.37 2.81c-3.28 1.13-.8 4-1.66 6.23-.58 1.73 1.47 1.21 2.12 1.37zM89.78 223.86a17.69 17.69 0 01-.6 5.52c-.24.64-.88 1.12-.87 1.88h.35a7.43 7.43 0 001.44-3.71c-.3-1.11.57-2.7-.32-3.69zM122.63 235.38h-.29c-.22 1.82 0 3.46-.2 5.28.18.11.24.29.47.24.46-1.78-.14-3.47.02-5.52zM61.32 246.44c-.12.6-1 .89-.52 1.47a3.84 3.84 0 00.91-3.58 8.2 8.2 0 00-.39 2.11zM62.28 205.56a12 12 0 01-.32-4.8c-.47.41-1.28 1.19-1.16 1.77.29-.35.34-.65.75-.83.13 1.12.2 2.12.32 3.34-.47.47-1.58.84-1.34 1.59.41-.47 1.11-1.17 1.75-1.07zM61.66 217.42c-.06.7-.81 1.22-.52 1.87a5.89 5.89 0 00.81-1.87zM62.26 211.37c-.18-.29-.18-.77-.47-.93.59 1.7-.1 3.57-.14 5.39-.12.53-.76.76-.64 1.36h.23a10.89 10.89 0 001-5.81zM62.07 218.24H62c-.11 1-.28 2-.28 2.87a5.86 5.86 0 00.39-2.89zM62 231.36h-.29a15.28 15.28 0 01-.92 3.59c.54 0 .41-.59.7-.88a9.59 9.59 0 01.25 2.23H62c.29-1.77-.3-3.17 0-4.94zM128.1 208.84l.17-.41c-.83-.69-.83-1.82-1.48-2.52l-.18.42c.3.93.48 2.05 1.49 2.51zM123.67 214.26c-.51 2.35.09 4.8.4 7.1l.18.17s.11-.12.23-.07c.11-2.4-.79-4.39-.39-6.85 0-.29.52-.47.22-.77a.6.6 0 00-.64.42zM123 229.4a6 6 0 00.14 2.92c.81-.59.1-2 .15-2.93z" stroke="#000" stroke-linejoin="round" stroke-width=".5"/><path d="M83.84 220.44a11.4 11.4 0 001.75-1.31 2 2 0 00-1.23.37c-.23.34-.82.5-.52.94zM123 219.89c-.14-2.93-.75-5.63-.41-8.38h-.18c-1 2.53 0 5.74.06 8.39zM122.39 223.59l.16-2.46c-.71.76-.4 1.93-.93 3-.11.52-.63 1-.51 1.46.88 0 .87-1.18 1.28-1.83-.1 2.58 0 5.4-1.36 7.75h.23c2.1-1.88 1.14-5.22 1.65-7.86zM87.3 248.62l.42.06c.58-1.06 2-2.54 1.73-4.3-.19-.75 0-1.87-.61-2.21a13.38 13.38 0 01-.08 4.32c-.41.72-1.23 1.31-1.46 2.13zM63.59 207.6l.11-.1c-.36-.83-.18-1.88-.54-2.52a4.42 4.42 0 00.43 2.62zM176.5 159.69a7.17 7.17 0 00-1.44 2.35 3.69 3.69 0 001.44-2.35zM95.75 222.05a6.12 6.12 0 00-1.24-.86l-.11.35a2.64 2.64 0 001.18.82zM8.67 157.18c.53.3.3 1.06.78 1.47a.29.29 0 00.23-.13c-1.07-1.63-.32-3.86-.27-5.38L9 154.19c.36 1.87-.92 3.3-1.67 4.77.59-.31.94-1.18 1.34-1.78zM91.75 218.69a5.23 5.23 0 00-.39 3.69c.3.59.54 1.35 1.12 1.58.12-.12.35-.3.12-.41-1.19-1.29-.9-3.05-.68-4.63zM90.39 234.25a2.87 2.87 0 001.23 2.5c-.07-.83-.77-1.61-.94-2.5zM9.14 147.79a3.83 3.83 0 00-.14 1.59 3.24 3.24 0 00.14-1.59zM34.21 197.77l-.35.41c-.06 1-.34 2.35.25 3.29a.65.65 0 00.53-.23c-.77-1.07.16-2.47-.43-3.47z" stroke="#000" stroke-linejoin="round" stroke-width=".5"/><path d="M10.59 154.65c0-2-1.37-3.49-1.59-5.27-.52 1.64-2 3-1 4.81h.18l-.07-2.39c.28-.43.34-1.13.92-1.3a36.32 36.32 0 011.38 4.33zM180.05 144.77l.18 2.51c.65-.53.46-1.58.34-2.28a.66.66 0 00-.52-.23zM179.06 156.39h.3a3 3 0 00.22-1.71c-.52.32-.35 1.18-.52 1.71zM184.63 137.17c.12.41.71.65.94 1.06.3.05.12-.24.29-.47a1 1 0 00-1.23-.59zM180.35 128.22a27 27 0 001.79 4.1c.34-1.23-.78-2.1-.85-3.28-.23-.29-.36-1.04-.94-.82zM183.62 144c.23.83.3 2 1.07 2.29a9.72 9.72 0 00-.78-2.75c-.3-.09-.35.27-.29.46zM179.57 153l.18.17c.75-.94 0-2.53.38-3.69-.81.74-.56 2.45-.56 3.52zM30.64 217.32c-.11.71-.75 1.53-.63 2a3.17 3.17 0 001.15-2.86c-.47-.01-.52.54-.52.86zM33.19 204.4h0c-.23-.07-.29.12-.46.12v4.86c.07.3.3.42.53.18a36.22 36.22 0 00-.07-5.16zM33 212.2c-.92 1.77-.74 4.06-1.31 5.94h.18c.7-.07.52-.7.4-1.06.75-1.59.45-3.33 1-4.87zM32.65 201.47c-.18-.12-.24-.29-.47-.22 0 1.05-1.22 2.64 0 3zM30.63 234.61a8.11 8.11 0 00-.62 3.17h.29c.06-.23.41-.41.12-.64.64-.58.41 1 1 .82.29-.6-.36-1.52-.54-2.29-.01-.53.22-.82-.25-1.06zM8 130.92c.7-.53.46-1.64.63-2.46h0a.3.3 0 00-.53-.16c.1.92-.24 1.8-.1 2.62zM8.5 139.89c.94-1.24 1-2.47 1.33-3.94.53.58.71 1.4 1.3 1.87.35-.36 0-.75-.12-1.11-2.24-1.4-.67-3.52-1-5.28-1.39 2.48 0 6.16-2.17 8.46.16.11.55.29.66 0zM8 136.61c.23 0 .29-.12.52-.24v-2.11c-.81.25-.52 1.65-.52 2.35zM35.62 190.26a23.82 23.82 0 00-1 4.75l.18.41c.7-.17.28-1.59.86-2l.3.64c.58-.65-.12-1.28-.19-1.94s.5-1.45-.15-1.86zM32.75 190.81c-.29.18-.94-.06-1.05.42.36.75.59.11 1.06.28.07 1.3-.1 2.82-1.44 3.65.17.05.17.29.29.4l.76-.53a10.33 10.33 0 01-.22 2.23c-.11.88-1.28 1.11-1.57 1.59a1.77 1.77 0 001 .05c.52-.23.75-.81 1.1-1.24.22-2.46.8-4.11.72-6.56.29-.53 1.11-.77.75-1.47zM11.52 116.65l-.23.17c-.28 2.48-1 4.53-1.31 7.11h.18c.35-.18.4-.7.52-1.06.41.46.48 1.23 1.07 1.57a3 3 0 00-.42-1.69c-1-.76-.07-2.17.09-3.17.47.29.65.93.95 1.35.18.1.29-.07.41-.19-.06-.41-.54-.7-.54-1.16-.94-.52-.54-1.94-.43-2.88-.11 0-.29.07-.29-.05zM157.58 181.48a.54.54 0 01-.22 0h-.15a6 6 0 00-.3 1.31v0a22.06 22.06 0 01-1.9 6.43.55.55 0 00.53.24 20.68 20.68 0 002.04-7.98z" stroke="#000" stroke-linejoin="round" stroke-width=".5"/><path d="M159.41 185.28c.46-.48.76-.43 1.46-.43 1.47 0 .81-2 1.27-2.93-.06-1.3-1.59-1.52-2.12-2.57-2.65-2.45-.24-5.43-.37-8.53l-.77-.16a30.14 30.14 0 01-.7 5.78c0 .18 0 .36.07.54a.46.46 0 01.25.29c.11.35.17.72.25 1.08 1 2 4.25 2.71 2.43 5.47h0l.12.1c-.59.18-1.88.14-2.34.9-.11 2.06 1.89 2.86 3 4.38.24.53 1 1.17.54 1.93a2 2 0 00-.7 1.65c1.3.75.72 1.92.43 3-.39 1.75-3.46-.46-2.5 1.88.41 1 2.23 1.34 1.71 2.62-.46.66-.39 1.83-1.27 2a4.89 4.89 0 00-2-1.1c-.59.53.06 1.35.42 1.87a9.88 9.88 0 011.5 5.56c-.33.15-.66.19-1 .36a7.53 7.53 0 00-1.33.3.73.73 0 00-.37.24.67.67 0 00-.11.45 2 2 0 00.83 1.55l.2.14a1.19 1.19 0 01.34.27 1.24 1.24 0 01.12.68c0 .95 0 1.91-.08 2.87a1.86 1.86 0 01-.63-.46c-.54-.52-1.1-.66-1.52-.4l-.1.07v.11a1.31 1.31 0 00.29 1l.17.29a1.68 1.68 0 010 1.09l-.36-.55a7.17 7.17 0 01-1.23-.49c-.2.06-1-1-1.31 0a6.78 6.78 0 001.37 4.09c-.53-.29-1.06-1.05-1.76-1.1-1.58.82-.16 2.41 0 3.57.65.53.83 1.47 1.65 1.75-.05.77.24 1.58-.16 2.11-.94-1.28-1.31-3.21-2.9-3.85-.4 1.12 0 2.64.15 3.88a9.91 9.91 0 001.71 3.62c-.69 1.34-.44 2.93-.2 4.4-1.35-1.4-1.83-3.22-2.78-4.85-.18-.06-.3.11-.41.24l.12.39-.53.24a6 6 0 002 6.62 9.83 9.83 0 01-.92 3.41c-.88-.93-.83-2.34-1.72-3.27-.94.06-1.05 1.18-1.87 1.35a6.58 6.58 0 01-1.41-1l-.91-.22v0a.42.42 0 00-.15-.35c2.58-.31 2.79-3.42 4.19-5.14.05-.4.4-.94.11-1.34s-.77-.22-1.06-.12-.52 1.07-1.05.78l-1.18-1c.35-.31.23-.77.35-1.06 2.46-.44 3.55-3 4.36-4.9-1-.87-1.86 1.3-2.41-.34-.29-.58-.29-1.28-.82-1.75-1.07-.46-2.23 1.48-2.59-.21a17.26 17.26 0 007.59-5.51c0-.53.4-1 .11-1.52-1.12-1.28-2.16 1.12-3.28 1.54-1.28.53-2.27 1.6-3.44 2.2.22-1.59-.26-3.23 1.55-4.3a.61.61 0 00-.53-.76h-.53c.29-1.36 0-3 1.21-4 .06-.57-.4-.74-.78-.93a12.5 12.5 0 002.93-2.37 3.33 3.33 0 00.51-3.83 3.88 3.88 0 00-.4-.53c-.3-.37-.57-.69-.53-1.06v-.1a.85.85 0 000-.54.63.63 0 00-.43-.34.81.81 0 00-.67.14 1.51 1.51 0 00-.47.77c-.15.44-.44 1.1-.72 1.74a3.73 3.73 0 00-.16.35v-3.28h-2a.74.74 0 01-.27 0 .66.66 0 01-.18-.26l-.43-.85a1.07 1.07 0 01-.15-.42c0-.23.27-.42.49-.52l.35-.13a3.21 3.21 0 00.69-.3 1.65 1.65 0 00.67-1.84 1.68 1.68 0 00-1.28-1.13 18.79 18.79 0 01.13-2.26.88.88 0 01.08-.32c.11-.21.38-.27.82-.34a1.6 1.6 0 001.26-.61 1.36 1.36 0 00-.2-1.48L147 189a2.16 2.16 0 01-.4-.65 1.52 1.52 0 01.53-1.41 3.12 3.12 0 011.18-.69l.21-.06a2.19 2.19 0 00.77-.31 1.75 1.75 0 00.51-.61 6 6 0 00.5-3.13v-1.27a3.36 3.36 0 011.26-.12 4.92 4.92 0 01.64.09 7 7 0 00.8.1 4.41 4.41 0 003.64-1.85c.67-.88 1.14-4.43 1.51-7.78l.06-.58-.6-.07-.06.58c-.18 1.64-.73 6.62-1.39 7.49a3.78 3.78 0 01-3.13 1.61 4.57 4.57 0 01-.73-.1l-.69-.09a4 4 0 00-1.69.21l-.18.06v1.73a5.5 5.5 0 01-.42 2.83 1.33 1.33 0 01-.33.41 2 2 0 01-.59.23l-.23.06a3.65 3.65 0 00-1.42.83 2.09 2.09 0 00-.69 2 2.74 2.74 0 00.51.84 2.47 2.47 0 01.21.27c.18.25.32.6.18.83s-.48.27-.84.33a1.53 1.53 0 00-1.27.65 1.65 1.65 0 00-.13.53 18.94 18.94 0 00-.13 2.61v.3h.3a1.11 1.11 0 011 .73 1.07 1.07 0 01-.43 1.17 2.53 2.53 0 01-.55.23l-.41.15a1.23 1.23 0 00-.83 1.06 1.51 1.51 0 00.2.7l.43.85a1.12 1.12 0 00.43.51 1.1 1.1 0 00.56.11h1.41l-.05 3.18h0a13.45 13.45 0 01-.44 4.11 1.69 1.69 0 001 2.21c-1 1.13-.79 2.88-1.25 4.35.06.71.76.06 1.17.41-2.09 1.53-1 4.63-2.48 6.52-.4.89.19 1.59.54 2.23-1.15 2.23-.2 4.57.86 6.56a4.19 4.19 0 00-.79 3.57c1.36 1.58-.74 2.71-.5 4.35a7.24 7.24 0 01-.83 6.63c-1 1.47.66 2.63.37 4-.81 2.11 1.08 3.74.45 5.86a1.3 1.3 0 001.88 1.28 3.11 3.11 0 001.27-2.76c-1.19-2.75 3.26-4.19 2.6-7.06 0-3 2.19-5 2.58-7.87a3.51 3.51 0 001.45-3.47c-1.31-2.92 1.31-5.17 1.29-7.8-.38-2.54 1-4.29 1.21-6.63l.13-1v.06c.06-.33.11-.66.14-1a3 3 0 00.14-2.24c-.06-.12-.13-.24-.2-.36a1.27 1.27 0 01-.22-.44 1.12 1.12 0 01.66.36c.32.31.81.77 1.41.61l.21-.05v-.22c.05-1.06.08-2.13.09-3.18a1.77 1.77 0 00-.23-1 1.7 1.7 0 00-.51-.43l-.17-.11a1.46 1.46 0 01-.58-1.1v-.06h.08a7.08 7.08 0 011.29-.29 1.57 1.57 0 00.49.06l.89-.49a9.66 9.66 0 00-1-5 8.32 8.32 0 01-.89-1.86c.53.28 1.06.87 1.58.93a3.65 3.65 0 001.57-2.53c.34-1.35-1.13-2.23-1.89-3.27a7.73 7.73 0 011.69-.13c1.17-.53 1.16-1.88 1.57-2.95-.06-.7-.71-1.05-.95-1.68 2.5-3.1-2.33-4.48-2.92-7.4zm-11.53 17.63c.29-.65.59-1.32.75-1.79a1 1 0 01.26-.48.2.2 0 01.19 0 .65.65 0 010 .19v.15a2.07 2.07 0 00.67 1.49 4.91 4.91 0 01.36.47 2.77 2.77 0 01-.47 3.12 11.77 11.77 0 01-3 2.34.73.73 0 01.07-.59 18.62 18.62 0 00.53-3.41c.18-.4.41-.97.64-1.49zm2.54 13.7l1.75-1.59c.47.29.07.94.13 1.17a13.7 13.7 0 01-7.12 5.2c.34-2.69 3.32-3.48 5.24-4.78zm-4.93 8.06a2.49 2.49 0 00.28-1.47 6.61 6.61 0 001.59-.53l.89 1.87c.3.88 1.29.47 1.87.33a6.26 6.26 0 01-3.66 3.85c-.66-1.23-1.9-2.57-.97-4.05zm.69 6.22c.71.22 1.06 1.57 2 1l.76-.83v.65c-1.16 1.54-1.68 3.41-3.08 4.77h-.29c1.86-1.68-.67-3.6.61-5.59zm.15 24.09c-1.17.42-.65-.93-1.06-1.39l.11-1.13c.58.06 1 .3 1.47.06l-.12.12.53.1a2.38 2.38 0 01-.93 2.26zm3.41-8.29c-.16 2.17-3.15 3.13-2.49 5.41l-1.87-.15c-1-1.35-.14-3.42-.57-5l-.47-1.35c.83.82 1.58-.3 2.46-.25 1.64-.54 1.32-4.87 3.45-2.24zm.74-4.1c-.59-.35-1-1.05-1.83-.93-1.58 1-1.44 3.46-3.55 3.6-.3-.23-.94-.29-.54-.82 1-1.82 1.91-4.22 1-6.24l.51.18a6 6 0 001.5 1.06c.88.22 1.28-.72 1.69-1.07.13.06.18-.07.24-.12.02 1.58 2.19 2.75.98 4.34zm2.71-5.83a3.06 3.06 0 01-1.71-1.57c-.83-1.63-.66-2.63-.55-4.51.3 1.88 1.78 3.33 2.79 4.92a2.21 2.21 0 01-.53 1.16zm1.19-7.28a10.51 10.51 0 01-1.62-5.67 19.85 19.85 0 002.13 3.56zm1-5.58c-.83-1.16-2-2.45-1.73-4 .89.58 2 1.57 2.07 2.51a2.28 2.28 0 00-.32 1.49zm1.27-5.63l-.15 1.25a8.92 8.92 0 01-.38 1.75c-.41-.17-.53-.6-.77-.87l.53-.14a7 7 0 01-1.19-3.74 14.93 14.93 0 012 1.75z" stroke="#000" stroke-linejoin="round" stroke-width=".5"/><path d="M186.9 130.87l.41-.42c-.36-1-1.53-.64-2.41-.74l-2-4.51c-.41-.87.23-1.46.64-2.1.11-.54.69-1.41-.13-1.83a1.53 1.53 0 00-2.1.67c-1.58 1.45-1.75-.46-2.29-1.78l-1.26-1.51a5.34 5.34 0 00-1.6-3.78c1.13-6.28-1.13-11.84-1.46-17.69 0-2.23-1.2-4.1-1.1-6.22.12 0 .24 0 .3.13.52-.18.58-.72.52-1.18a8.72 8.72 0 00-3.19-3.68l-.19-.76c.18-.46-.41-.7-.36-1.17.41-.29 1.12.23 1.41-.42.4-2.22-2.07-3.61-3.72-4.59 0-1.18-.83-2-1-3.05-2.38-4.29-4.56-8.69-7.68-12.69-2.47-3.3-8.54-10.41-9.79-11.53a2.22 2.22 0 00.53-.6c-.72-1.32-2.82-.27-3.4-2.08l.12-.12c.69-.48.45-1.23 0-1.76a6.71 6.71 0 00-3.57-.15l-.59-.94c-.36-.66-1.39-1.09-1.79-1.75-4.77-3.18-9.24-6.32-14.41-8.46a80.45 80.45 0 00-18.28-5.69l.06-.11a1.58 1.58 0 00.23-1.36c-.54-.92-1.47 0-2.23 0-1.23 1-3.34.65-4.93.79.53-.66 1.35-1.47 1-2.47a14.18 14.18 0 00-5.37 2H97c-2.39-.79-11.64-.31-18 1.11-5.13 1.15-8.46 2.15-11.76 3.19-1 .29-2.58.81-2.93.93h-.08c-.17-.82-1-.57-1.63-1-2.13.79-2.2 3.46-4.32 4.16l-1 .56c.07-.15.14-.31.22-.45a1 1 0 00.14-.72.44.44 0 00-.25-.28.63.63 0 00-.31-.06 3.78 3.78 0 01-.56 0 3.18 3.18 0 00-1 0c-.62.12-.83.74-1 1.19v.15a15.35 15.35 0 00-.52 2.15l-4.46 2.5c-5 2.87-8.34 5.71-13.81 11.61h0s-1.16 1.27-1.63 1.89l-1.17 1.18c-.33.17-.3.33-.6.56l-2 2.7-.55.56c-3.86 5.28-7 10.13-9 16.23-.65-.12-1.65-.64-2 0-1.11 1.37-.31 2.74.53 4l-.73 1.28a3 3 0 00-1.12-1.22c-2.45 1.25-.27 3.7-.2 5.39a71.75 71.75 0 00-4 16.75C12.17 105 10.65 106.33 10 108l.11.12a4.52 4.52 0 00-.6 1.88 1.53 1.53 0 01-.91.5 4.71 4.71 0 01.65 0v1.9h-.49c-1-.45-2.17.48-3-.44.06-.29-.06-.77.12-1.06.63-.07 1.23-.23 1.83-.35a12.9 12.9 0 00-1.76.11c-.87.24-.4 1.12-.51 1.7.65 1.18 1.88.35 2.93.75l.77.1c-.1 2-2.4 1.67-3.68 2.21s-3.11.25-4.1 1.2c.47.16.65.69.94 1a1.12 1.12 0 01-.1.91 3.36 3.36 0 01.67-.43 2.42 2.42 0 00-.54-1.82c2.22-.84 5-.51 6.73-2.28.24 1.18-.62 3.29-.61 5.11A10.85 10.85 0 016.34 122c.29.06.47.58.76.22L8.15 121a8.22 8.22 0 01-.61 5.52c-.35.59-1.7.65-1.16 1.47a3.65 3.65 0 002.33-2.13c.74-2.23-.09-4.74.6-6.86.62-3.17-.23-7.5 1.1-10.67.28-1.78 1.62-3.19 2.79-4.42 0 1.18 0 2.33-.08 3.47h0l-.81.79c-1.4 1.85-1.58 4.5-1.56 6.72.29-.19.35-.65.76-.31 2.58.58.67 3.82 1.68 5.45.56 4.87.18 9.38 1.67 14.23-.82.24-.86 1.42-.51 2 .24 1.87 3.12 2 2.37 4.14.08.11.17.21.25.3l-.13.53c-.18-.06-.29.11-.41.24a1.81 1.81 0 01-.51 2.11h-.12l.17-1.94c-.12-.11-.42-.46-.59-.16-.63 1.82-2.15 3-2 5.16-.24-.11-.19-1.69-1.12-1.57-.75 1.82.31 4 1.09 5.67-.34 1.94.73 3.53-.09 5.4 1.07 1.7-2.09 2.25-.85 3.88v1.29c-.18-.06-.29-.3-.53-.23-.23.29-.29.76-.7.88-.65-.34-.77-1.23-1.47-1.28-.07-.18.05-.48-.13-.64-.64.12-.57 1.23-1.39 1.18-.6-.41 0-2-1.13-1.46a5.92 5.92 0 01-2.56 2.42c-.53-1.06.28-2.82-.72-3.58l-1 .25c-.2-2.05.55-3.76 1.13-5.52.29-.24.64.12.94-.41-.42-.59-1.18-.11-1.7-.4 0-3.47-.46-6.34-.6-9.74 1.36.64 1.81-.95 2.87-1.72-.12-.58.4-1 0-1.63-.65-.18-1.18.7-1.71.07.23-.89-.65-1.52-1.29-1.87-1.12.07-.49-1.28-.55-1.81.82-.3 1.82-.2 2.64-.55.12-.18-.12-.29-.18-.4l-2.46.36c.06-.18-.12-.23-.18-.35-.23.12-.29.41-.52.36a18.06 18.06 0 01.24-7.33c.53-.36 1.82.4 1.82-.61-.59-.58-1.82-.16-1.95-1.16.55-2.24-.87-4.85.24-6.68a3.53 3.53 0 00-.84.93c.08 2.36 0 4.29.16 6.7.53.4.12.87-.11 1.34a56.28 56.28 0 00-.36 7c-.12.65.58.35.82.7v6.57c.23.52.75.22 1.05.52-.74 3 .63 6.39.18 9.73.24.4.71.29.94.57-.28 1.18-1 2.3-1.08 3.41-.22 3.23-.78 6.81-.71 10l.24.24c.18.17.36-.06.53.05-.06.17.06.36-.11.47-.92 3.7.86 7.15.18 11.08.36.65 1.35.4 2 .4a4.38 4.38 0 01-1.27 2c-1.74 2.35-.15 4.58-.66 7.27l.83.4c0 .41-.41.6-.41 1 .36 1.64.44 4 2 5.32.88.11.82-.94 1.28-1.48A12 12 0 017 190.9c2.33-1.84 2.08-4.24 2.18-6.93-.35-1.82 1.1-3.36 1.2-5.29-.25-2.05 1.26-3.64 1.55-5.63-.66-2.05 1.21-3.42 1-5.28-1.84-2.86 1.25-5.58-.23-8.46 1.4-.94.8-2.34 1.21-3.7 1.1-2.17-1.37-3.38.49-5.38 1.45-1.89-.45-5.57 2.59-6.76l1.07 1.16.11-.12.42.4a85.61 85.61 0 006.13 14c2.2 4.46 5.52 8.51 8.32 12.72h0a10.31 10.31 0 001.72 1.71l3 2.9c-.05.13-.06.31-.1.43a3 3 0 01-.14.36c-.25 2-1.2 3.9-1.81 5.84-.64 1.08-1.77 1.28-2.72 1.81.61-.22 1.2-.52 1.78-.68 2.27-1.89 2.55-4.76 3.36-7.35a2.73 2.73 0 011.06 1.16h0a6.7 6.7 0 01-.52 1.41c0 .59-.46 1.12-.4 1.65.25 1-.86 1.88-.51 2.75.67 2.93 4.79 5.08 3.11 8.31a6.27 6.27 0 00.25 2.76c-.47.63-.94.12-1.41.23-1.69 1.36-1.09 3-.61 4.75.31 3.59-3 5.95-1.53 9.41-.92 2 0 3.86 0 6-.35.65-1.41.77-1.46 1.65 1 2.51-1.31 4.81-.78 7.51-2.09 1.65 1 4-1.24 5.69-.06 1 .13 2 0 2.87-.71-.58-.61-2.57-1.89-1.86a11.63 11.63 0 01.13 2.4c-.35.17-.83-.52-1.17 0-.16 2 1 3.39 1.79 5l.52-.23a4.34 4.34 0 01-.15 2.86l-.64.6.11.12c-.58.23-.59-.88-1.29-.93s-.53.24-.82.77.07 1.64.13 2.27c-.29-.22-.64 0-.87.25-1.42-1.4 1-3.12-.56-4.22-.35-.12-.47.24-.82.12-.47-.76.05-1.58-.89-2.1 1.58-.24 2.09-1.95 2.44-3.18-.12-.76.17-1.53-.25-2.24a8.16 8.16 0 001.92-2.76c-.06-.24-.18-.58-.47-.65-.64 1.07-1.16 2-1.74 3.19-.59.12-.76.77-1.17 1.18-.12-1-1-1.75-1.3-2.76 1.23-.41 1.81-1.94 2.85-2.42 1.22-1.12 1.22-2.81 1.15-4.34-.89-1.28-1.82.72-2.87.78 0-1 1.86-2.7.38-3.52-.76 0-.93.77-1.57 1.07a4.82 4.82 0 00-.72-2.4l-.4-.11c.52-1 .38-2.35 1.73-2.9.11-.53.93-.87.63-1.47-.81-.16-.81 1-1.33 1.42l-1 .71a12.69 12.69 0 01.05-4.15c0-1.94-.31-3.87.32-6 .4-1.07 1.81-.72 2.09-1.85a4 4 0 00.05-1.87c-.64.13-1.28.78-2 .55-.54-2.35 1.09-4.52.2-6.57 1.51-1.12 1.79-2.77 2.08-4.47.41 0 .53 1.16 1.06.52-.06-.64-.72-1-1.3-1.23a1.45 1.45 0 01-1.18-.75c.17-1.23 0-2.76 1.15-3.35a2.28 2.28 0 002.34-.65 3.24 3.24 0 01-.43-3 2.29 2.29 0 001.8.27c-.8 0-1.51-.58-2.2-.27-.87.94-.16 2.27.14 3.28-.53.7-1.35-.11-2 .3-1.58.78-.93 2.65-1.38 3.93a2.5 2.5 0 001.53 1.06 16.2 16.2 0 01-.75 2.75c-.4.89-1.58 1.42-1.56 2.53.71 1.93-.39 3.77-.26 5.7l.41.64a7.76 7.76 0 001.89-.22c.25 1.35-1.1 1.82-2 2.36-1.22 2.29-.44 5.27-.77 7.67-.17 1.3-.22 3.18.43 3.93-.11.94-1.1 2-.39 2.94.13 1.76.85 4.28.45 6.16 0 1-.63 3.17.55 3.74 0 2.41.56 4.22.34 6.56 1.35 1-.34 2.47.25 3.57.12.53.54.77.95 1.05-.45 1.88-.56 4 .56 5.63-.1 1.76.9 3.34 1.49 4.92.88-.36.88-1.53 1.16-2.29a8.38 8.38 0 001.77-8.16c2.1-1.6 1.2-4.35 1.07-6.47 1-1.69.8-3.58.73-5.56 1-1.6.8-2.82.5-4.59 1.39-2.06.67-4.51 1.77-6.75.52-.94-.72-1.87.16-2.75 1.16-.31 1.16-1.71.91-2.53-.6-2.63.32-5.22 0-8a20.77 20.77 0 001.56-4.64c.52-1.4-.55-2.81-.32-4.22.47-.48.51-1.88 1.69-1.36.82.05.64-1 .52-1.47-.78-1.64.92-2.64.5-4.17-.84-2.34-3.08-4.15-3.74-6.59.52-1.66 1-3.3 1.55-5a3.27 3.27 0 01.57.6l.47.91a3.66 3.66 0 00-.38.83c1 3 4.52.55 5.88 3.24a1.25 1.25 0 00-.28 1c.24 1.4 1.77 1.85 2.89 2.2 1 .53 2-.71 2.64.63 3.41 1.8 6.65 4.53 10.12 6.33v.23c0 .17-.28.06-.52.12a1.09 1.09 0 01-.08.33v.56h0c.27.53.17.81-.09 1a4.14 4.14 0 01-.43 1.49 13.89 13.89 0 01-.81 1.93 9.45 9.45 0 01-6.71 4 7.94 7.94 0 01-.22 2c.12.76.71.94 1.29 1.17.3.52 0 1.16-.1 1.57-.17 1.42-.74 3.13 1 3.93.18.93-.63 1.47-.51 2.41.06.64.71.81 1.06 1.16.12.24-.11.35-.17.53.42 2.05-.56 4.23 1.27 5.8-1.46 1.12.25 2.86-.56 4.1 0 .65.88.35.71 1.05-.64.71-.46 1.77-.51 2.77 1.48 1.39-.45 3.27-.38 5a10.92 10.92 0 01.7 8.14c-.06.7.82.42 1.06.64.06.17-.11.17-.24.29 0 2.23-1.26 4.41-.48 6.75 1.2 4.15.06 9.5 3.14 13a2.1 2.1 0 001.28-.95 34.19 34.19 0 002.46-8.81c1.63-1.42 1.68-3.58 1.95-5.41 0-2.86.85-5.62.83-8.61 1.27-3.31 2.47-7.53.87-11a1.53 1.53 0 01-.77-1.05c.81-1.82 1.61-4.59.48-6.68-.29-.59.3-.36.64-.54a1.3 1.3 0 00.76-1.06c.11-.65.29-1.18-.25-1.7-1.19-3 1.26-5.64.71-8.5-2.3-2.28.32-5.05-.69-7.86-.65-1.16-2-.28-2.94-.8-2.41-1.15-.38-3.91-.56-5.67l.94.16c3.23 2.44 7.46 2.52 11.28 3.56.47.29 1.35.28 1.41 1.05a2.21 2.21 0 001.88.93c1.29.16 2.15-1.67 3.28-.9.88-.18.94.75 1.47 1.27 1.17.76 2.75 0 3.93-.67l.48 1.47c-.24 1.59-.14 3.21-.27 4.75l-.11.15a2.67 2.67 0 00.54-.07c.33-1.4 0-3.56.21-5.31v-1.06c.65.12 1.34.13 2 .21.06.24-.24.17-.29.35-.11 1.22.25 2.81.14 3.87.72 2.86-1.43 5.05-.83 7.74-.1 2.29 1.84 3.8 2.5 5.79l.41-.24a9.9 9.9 0 00-1.84-3.14c-.3-1.42-.77-2.53-.43-4.11a15.26 15.26 0 01.5-3.17c.82.23 1.88-.07 2.24.92.24 2 2.48 3.1 3.2 4.84.76.83-.53 1.08-.82 1.59-.52.54.07 1.18.19 1.71.24 1.76.32 4.39-1.2 5.57-.4 1.06.66 1.76.73 2.75a42.77 42.77 0 00-.78 7.69c-.52.65-.29 1.17-.63 1.82a12.85 12.85 0 01-1.06-2.51 4.37 4.37 0 00-1.36-1.81c-.35 1.76.14 4.16.44 6.15l-.23.18a3.31 3.31 0 01-1.06-.28v-.1l-.16.39c.47 1.34 1.13 2.62 1.49 4 1.48 1.09.61 2.71.67 4.21l-.82.26v0a5.63 5.63 0 00-.7-.88c-.82-.17-.06.88-.58 1.18-.41-.3-.53-.83-1.06-.64-.7.18-.46 1.11-.34 1.59.54 1.28 1.6 3.08.91 4.2-.24-.1-.53-.34-.77-.1l-.1 3c-.11.12-.23.29-.4.24s-.3-.23-.3-.41c-.47-.12-.88-.69-1.41-.33.43 2.51 3.25 3.72 3.44 6.3-.1 1.82-1.33 3.23-2.31 4.65-1.06-.35-1.24-1.64-2.24-2.11a3 3 0 00-.16 3.18c.84 2.28 0 5.51-1.24 7.63-.83-1.4-.08-3.52-1.08-4.75l-1 .83c.17-.58 0-1.64.51-2.29l.35.18a.94.94 0 001.23-.3c.34-1.82-.55-3.82-.74-5.58a2.71 2.71 0 00-2.03-1.25c.28-1.64.15-3.1 1-4.52a10.56 10.56 0 003.56-2.13c.23-.76 1-1.47.51-2.35-1.64 0-3.62 2.55-4.8.27.1-.47 0-1.35.81-1.18a32.81 32.81 0 003.9-4.07c-1.06-1.52-3.17.25-4.46-1.19 0-1.47-.31-2.89.38-4.12a1.17 1.17 0 01-1.06-.34 38.93 38.93 0 011.13-6.87c-.59-.12-1.29-.05-1.71-.64a1.75 1.75 0 01.51-2 2 2 0 01-.76.4c-.53.41-.35 1.11-.35 1.82.07.93 1.24.81 1.72 1.1a43.4 43.4 0 00-1.14 6.29c0 .64.65.69 1 1a8.12 8.12 0 00-.16 3.58c-1.33 1.47-1.08 3.88-.72 5.29.06.34.29.22.53.39-.17.18-.05.53-.11.77-.52 1.7-1.33 3.35.38 4.74a37.47 37.47 0 00-.9 6c.42 2.29 1.85 4.52.87 7-.56 3.64 1.5 6.91 1.52 10.67 1.59 0 1.7-1.89 2.33-3.07.69-2.17 1.61-4.16 1.72-6.57-.08-2.82 1.49-5.23 2.71-7.64.87-1.37.62-3.11.5-4.63.86-1.3.91-3.06 1.14-4.53 0-.52-.54-.87-.24-1.4 1.5-2.66 1.42-6.23 1.63-9.39 1.16-2.06.85-4.88 1-7.17 1.15-3.17 1-6.63 1.4-9.92-.13-1-1.65-2.33.1-3 .34-1.93 1.14-4.34.07-6.22l1-1.28c.29-.77-.42-1.35-.65-2a16.67 16.67 0 01-3.08-4.49c-.59-.82-1.71-.1-2.23-.76.15-2.27.09-3.57.07-6l-.24-.48c2.47-.13 5.22-.15 7.33-.45a58.27 58.27 0 0021.5-3.48c.53.81 1.64.28 2.29.39a22.59 22.59 0 01-.5 3.82c-.12.17-.41.29-.3.59-1.51 1.06-1.65-1.52-2.88-1.86a3.83 3.83 0 00-1.33 2.12c-.24.82-1.23 1.94-.27 2.64-.65.53-1.47.47-2.11.78-.94.34-.76 1.11-.64 1.88s1 .8 1.24 1.16c-.46.53-1.29.19-1.75.71-.4 2.34.08 4.11.56 6.33.13.76 1 1.81-.21 2.1-.87 1-.57 2.53-.16 3.52.59.18 1.06-.23 1.59.18a14.33 14.33 0 00-1.16 2.06c-.33 3.86 1 7.78 1 11.65l1.35.11c-.51 1.41-1.51 2.58-1.44 4.23a13.57 13.57 0 01.71 9.38 23.55 23.55 0 01.43 3.51c.12.64.59.11.94.4l.14 4c.18 1.06 0 2.48 1 3l-.28.42a68.48 68.48 0 00-.24 8.55c0 .53.36 1.24.94.94a3.22 3.22 0 002-2.53 8.5 8.5 0 01.63-2.87l-.12-.12c1.86-1.84 2.14-4.47 2.36-6.42.27-3.21 1.2-6 1.88-9.21-.44-3.93 1.53-7.57.63-11.38 1.34-1.36.79-3.11 1.9-4.58.34-1.7-.49-3.51.38-5.17.22-1.58-.84-2.8-1-4.1.74-2.41-1.79-4-1.74-6.19 1.11-.72 2.87 0 3.57-1.32.16-.82-.31-1.58-.43-2.4a2.83 2.83 0 011.17-.47c1.46-.31 0-1.54.63-2.12l-.24.24-1.71-2.33c-.41-.65.4-1.18.11-1.76a18 18 0 01-3.51-6.85c-1.78-.84-1.39-3.09-1.33-4.45h0c.25-.09.53-.19 1.1-.42a3.25 3.25 0 00-.11.42.57.57 0 000 .37.54.54 0 00.34.25 1.79 1.79 0 00.57.09 2.3 2.3 0 001.3-.43 3.54 3.54 0 001.14-1.47 5.41 5.41 0 00.24-.63 2.78 2.78 0 00.38-.17c.52-.25 2.8-1.52 3.39-1.95.83-.6 1.59-.8 2.45-1.33l.32-.26c1.5-.85 2.94-2 4.45-2.5h0c.41-.16.51-.55.85-.78a7.94 7.94 0 001-.7l7.41-6.6a34.5 34.5 0 004-3.94 35.63 35.63 0 002.12-3l3.3-5.06v1.75l.87.18c2.31-1.51 2.1-4.14 1.61-6.73l.64-.38c.1.58.21 1.17.32 1.79a1 1 0 001.29.57c1-.89.95-2.46.7-3.94l.63-.51a30.23 30.23 0 002.31-4.31c.67-1.68 1.36-3.35 2-5l.21.59c-.19 1.84.53 3.86.4 5.72 0 .75.94.69 1.47.81l-1.05 1.34c-1.51 2.13 0 4.29-1.25 6.35.84 2.11-1.85 4.53.16 6.28-.35.41-.93.7-1 1.24-.4 1.11.66 1.92 1.19 2.74a5.52 5.52 0 01-.81 1.58c-1 1.59.08 3.11-.08 4.76a3.31 3.31 0 00-.92 3.41c1.83 1.63.08 3.86.86 5.85-2.1 2.77.74 5.56.87 8.44h.35c1.17-1.42 2.68-2.9 3-4.77 1.28-1.47 1.68-3.35 2.84-4.95 1.89 1-.71-.76.58-1.29-.6-2.4 1.74-3.83 1-6 .21-3.1 1.84-5.57 3.06-8.28.21-3.23 1.89-6.58 2.1-9.81 2.1-2.41 2-5.64 2.52-8.69-.49-3 .78-5.75.47-9 2.8-2.66-.27-6.21 1.29-9.39-.45-2.46.88-5.34.4-7.38zM12.81 115a9.47 9.47 0 00-1.71-1 17.27 17.27 0 011.38-5.07l.66-.29c-.05 2.15-.21 4.2-.33 6.36zM2 142.11c-.42-1.07-.13-2.71-.26-4.11.53.35 1.06.52 1.3 1.15-.06.48 0 1 .53 1.18l1.29-.13c0 .88-.81 1.25-1.39 1.83-.47-.03-.99.35-1.47.08zm6.34 19.6h.23a.68.68 0 01-.23.42zm-5.58-2.38c.29 0 .64-.47.93 0h0l.26 3.34c1.29.11 2.46-1.24 3.21-2.32.36 1 .83 2.11 0 3.06-.64.82-1.63 1-2.39 1.6-1 0-1.46 1.12-2.4 1.48a24.87 24.87 0 01.34-7.16zm.41 19a22.54 22.54 0 00-.57-6.68 2 2 0 01.93-1.13c.36 1.65 1.08 3 1.33 4.76 1 .45.18 1.69.13 2.51-.58.29-1.28.94-1.87.54zM3.05 186c.53-.19.29-.89.64-1.25a1.07 1.07 0 001.29.59l1-1A4.12 4.12 0 013.42 188c-.76-.17-.42-1.52-.37-2zm2.17 8.24c-1.36-1.17-1.25-3.09-1.67-4.74.05-.4.11-.93.58-1.06a12.9 12.9 0 001.32 4.92zm3.61-12.68h-.18a7 7 0 01-1.08-4 1 1 0 001.43-.73l.4-2.06c.41 0 .53.53.89.76a28.21 28.21 0 01-1.46 6.05zm3.09-12.51c-1.17 1.41.14 3.57-1 4.86.18.24-.23.48-.29.77l.12.06a.32.32 0 00-.23.11c-.12-.75-1.53-.63-1.07-1.68-1.59-1.57-.49-3.52-.67-5.45l-.3-.34c-.58.94 0 2.34-.8 3.16.18 1.16-.87 2.11-1 3.29 1 .11.7-1.41 1.28-2A17.83 17.83 0 019 174.18c-.46.89-.4 1.94-.8 2.82l-.77-.7c-.93.66-.46 1.94-.62 2.71-.82 1-.91 3.16-2.91 2.47a5.32 5.32 0 00-.61.26 2.83 2.83 0 00-.11.31c.21.6 1-.08 1.36.08a2.38 2.38 0 001.64-.54 10 10 0 011-1.59c.36.76.48 1.94 1.48 2.16-.34 1.76 0 3.57-.37 5.4.24 1.44-2.29 2.35-2.09 4.06-.47.17 0 .7-.46.94a17 17 0 01-.85-4.56c1.28-1.24 2.56-3.06 1.85-5.06-1 .37-1.11 1.59-2.16 1.71-.23-.34-.35-.92-.89-.92-.46.17-.22.7-.51 1.05a4.1 4.1 0 010-2.72v-.15a.75.75 0 01.15-.16c0-.08 0-.17.08-.25 1.52-.71 1.27-2.83 2.26-4 .11-1.06.81-2.17-.19-2.63a18.53 18.53 0 00-1.62-5.27c-.65-.11-.82.48-1.17.89.11-1-.78-2.69.27-3.63l1.51-1.48.18.24a9.13 9.13 0 003-2 10.52 10.52 0 011 3.16c.18.18.59-.06.65-.35-.13-1.18-.78-2.4-1-3.7.7-.11.81-.88 1-1.34.84 2.68 1 5.21 2.69 7.66zm.34-1.88a2.05 2.05 0 010 1.18 24 24 0 01-2.16-6.67c.42.34.89 1.27 1.47.63l.41-.42.12.12.28-.53c-.32 1.78-1.01 3.78-.12 5.71zm1.47-17.31a7.93 7.93 0 01-1.08-3.28c.24.3.36.71.71.83 1.34-.78.45-2.77 1.56-3.84.24.65-.29 1.25-.4 1.83.01 1.6.26 3.3-.79 4.48zm12.77 80.56c-.14-3.52.25-6.51-.71-9.91.48.76.25 1.94 1.07 2.52a2.47 2.47 0 001.58-.95c-.17 1.12-1.45 2.42-.51 3.36a4.26 4.26 0 002.28-1.08 10.88 10.88 0 01-.27 3c-1.34.88-1.86 2.58-3.44 3.06zm.54 1.77c.76.51.14 3 1.65 1.91l.53-.53c.12 1.12.07 2.76-1.09 3.47-.24-.12-.53.24-.76.36.34-1.53-.26-3.46-.37-5.21zm3.29 19.73c-1.53-1.63-.55-4.16-2-5.91-.48-1.4 1.08-3.46-.67-4.63 0-.7-.48-1 0-1.69a1.41 1.41 0 00.53.92h1a4.53 4.53 0 00.43 4.33 1.34 1.34 0 01.53-.12 5.35 5.35 0 00-.51 3.29c1.96.34.27 2.52.69 3.81zm.93-2.36c-.24-.58.51-1.7-.66-1.87l-.12.12a2.5 2.5 0 010-1.58 7.79 7.79 0 01.52-1.59c.59 1.23.19 2.7.9 4zm1.16-2a29.25 29.25 0 00-.79-3.17c0-.82-.59-1.75-.25-2.75 1.53 1.41 1.73 4.05 1.04 5.93zm1.38-12.8c-.93 1 0 2-.33 3.11A10.48 10.48 0 0132 234.2c.3-.06.54.23.77 0a1.77 1.77 0 00.4-1.4 2.61 2.61 0 01.63 1.97zm48.92 11.41l.64-.94c1.17 1 2.34.29 3.69.75-1.39 1.29-2.38 3.12-4.31 3.59-.48-1.04-.02-2.21-.02-3.39zm.27 5.69c.41.23.65.76 1.23 1 1-.08 1.88-.78 2.87-1l.12-.17a3.2 3.2 0 01-1.69 2.53c-.93.24-1.69.78-2.51 1.07-.89-.89-.07-2.24-.01-3.42zm-.18 8.68c.64-.29.88.52 1.29.76.31 1.81 1.2 3.8.74 5.56-1 .18-1.06-.58-1.12-1.34-.48-1.52-1.37-3.09-.91-4.97zm4.3 13.46c-.33 1.81-1.32 3.41-2 5.12-.25-.77-.25-2-.55-2.87-.36-2.06-1.49-4.22-1.1-6.62a2.71 2.71 0 00.64-.77c.3.35.3 1 .42 1.46a6.06 6.06 0 00.67 3.4 2.22 2.22 0 001.16-1.19c.81-2.51 2-5.75.54-8.44v-1.05c.83.52 1 2.05 2.24 1.93v0l.35-.35c-1.88 2.71-.92 6.38-2.37 9.38zM92 251.93c.71 1.75.14 4-.73 5.63a16.69 16.69 0 01-2.66-3.5l.12-.12a1.22 1.22 0 01.65.52c.41.19 1.06.65 1.34-.06 0-1 .11-2.05.22-3 .12.06.35-.06.41.12l.41-.31a4.34 4.34 0 00-.2-2.45c-.23-1-1.29-2-.77-3 .41.23.35.87.94.75.41 0 .4-.42.52-.65a.67.67 0 01.21.09l1.06.75c-.42 1.79-.13 3.93-1.52 5.23zm1.92-10.22c-.42-1.52-1.3-2.74-1.72-4.21.7.11 1 .23 1.4-.35-.07-1.71-.78-3.34-.68-5a29.91 29.91 0 001.73 3.56 15.41 15.41 0 01-.77 6zm83.53-123.19c0 .29-.34.7-.17.94-1.24-1.94-3.89-4-4.73-6.31l.12-.29c1.12.69 2.82.92 3.3 2.38 1.13.65 1.26 2.05 1.44 3.28zm-.49 6.22c.13.34.36 1.05-.16 1.17-1.65-1.16-2-3-3-4.5-.65-1.28-1.82-2.33-2.13-3.68.23-.46.7-.29 1.06-.36.7.06 1.17 1.17 1.7 1.17a10.49 10.49 0 012.26 3.91 5.55 5.55 0 00.56 1.08l.18 1.06c-.33-.2-.41-.79-.85-.79-.13.4.17.64.34.94zm-1-4.87c-.19-1.22-2.18-1.57-1.61-3 .65.96 2.36 1.82 1.65 3zm-.09-12.87c0 2.29.5 4.81 0 7-.59-.83-1.88-.69-2.12-1.69-.34-5.91-.55-12.25-2-17.81-.14-2-1-3.64-1.45-5.5.72 1.34 3.58 1 3.07 3.15 1.5 4.58 1.24 10.37 2.5 14.85zm-1.8-16.88c-3.23 0-4.6-4-7.54-4.69-.3-.47-1.12-.82-.95-1.41 3.35.83 7.23 2.69 8.49 6.13zm-3.36-5.43h-.16l.07.81a19.57 19.57 0 00-2.28-1.23h0l-.57-1a1.9 1.9 0 01-.39-1.36 10.85 10.85 0 012.42 1.34c.97.04.72.89.91 1.47zm1.08-1.94c-.06.23.18.59-.17.71-2.24-1-4-2.38-6.24-3.18a2.45 2.45 0 01-.89-1.29c2.99.06 5.87 1.1 7.3 3.79zm-12.3-19.13A113.37 113.37 0 01167 76.37l.89 2.39c-3.52.37-3.13-3.9-4.9-5.77a50.81 50.81 0 00-5.44-7.25l-.24-.6h0v-.06h0c-.57-1.57-7.44-11.25-8.25-11.6a7.76 7.76 0 01-.95-.62 3.82 3.82 0 001.46-.42h0a1.05 1.05 0 01.07-.11h0a137.33 137.33 0 019.85 11.32zm-10.07-12.76a1.23 1.23 0 01.47.7 7.21 7.21 0 01-2.75.54c-.94-.05-1.81.66-2.64.25 0-.29.29-.53.53-.77.58.24.64-.4 1.05-.53a5.41 5.41 0 013.34-.19zm-2.18-.86c-1.05-.05-2.1 1.77-2.87.26.76-.67 1.87-.43 2.64-1.09-.24.06-.01.59.23.83zm-.13-2.11v.53c-2.22 1.41-4.34 1.37-6.68 1.1h-.18c.23-.88 1.46-1.19 2.22-1.78a5.38 5.38 0 014.64.14zm-4.05-1.07h0l-2.19 1.24c-1.46-1-3.62-2.64-5.09-3.44-7.54-3.82-15-7.7-23.17-9.88-2.12-1.27-4.81-1-7-2.18l2.45-1.95c12.56 2.32 25.14 7.73 35 16.2zm-34.71-18.1c.3 1.35-1.34 1.77-1.86 2.53-1.34.89-2.75 1.71-4 2.49a2.81 2.81 0 01.64-1.53 8.94 8.94 0 015.22-3.49zm-4.1 1.28h0l-1.94 2.19-1.43-.08a5.72 5.72 0 01-1.48-.32l1.86-2c.83.21 1.94.02 2.99.21zm-2.12-2.34c-.76 1.64-2.74 2.78-3.9 4.25-1.17.47-1.75 1.59-2.92 2 0-2 1.61-3.77 3.25-5.08a14.27 14.27 0 013.57-1.13zm-23 3.13C85.68 29.36 94.9 29 96.9 29.68c-.26.42-.67.79-1 1.23s-.43.68-.63 1h-.84c-2.49-.05-5.13.57-7.44.47-6.5 1.09-12.19 1.26-18.33 3.29-1.87.43-3.69 1.31-5.44 1.73a6.55 6.55 0 00.88-2.4c4.64-1.5 8.2-2.64 15.04-4.17zM66 34.09l-.76.24a6.47 6.47 0 01.76-.24zm-3-.21c1.77 2.16-1.5 3.88-2.08 5.94-.22.34-.4.82-.81 1A6.77 6.77 0 0163 33.88zm-4.52 4.37c.35-.18.54-.65 1-.65-.39.48-.29 1.27-.56 1.82-.84.67-1.68 1.32-2.53 1.94a11.34 11.34 0 01.7-2.35zm-4.25 3.87a15.55 15.55 0 01.84-3.81l.06-.16c.15-.46.29-.8.61-.86h.23a4.15 4.15 0 01.59 0h.69a.55.55 0 01-.09.32 9.67 9.67 0 00-.55 1.12l-.22.58a11.15 11.15 0 00-.59 2.34.2.2 0 010 .11 1.75 1.75 0 01-.12.57 2.07 2.07 0 01-.18.67.79.79 0 01-.74.47.66.66 0 01-.43-.38.41.41 0 01-.09-.28v0h0a2.8 2.8 0 01-.01-.69zM28 64.18a24.92 24.92 0 013.38-4.1l1.21-1.94.21-.25h0v0l.09-.11.27-.28 1-1.1a13.11 13.11 0 001.69-1.92h0c5.45-5.87 8.8-8.65 13.82-11.5l4.25-2.28c-.08.46-.15.92-.19 1.38a2.87 2.87 0 000 1c-.4.26-.8.52-1.22.76-1.1.66-2.24 1.33-3.34 2a59.81 59.81 0 00-9.69 7.68 11.36 11.36 0 00-1.73 1.87 17.62 17.62 0 00-2.61 3.26 17.62 17.62 0 01-2.12 2.82c-4.76 6.66-9 12.05-11.18 18.63a24.34 24.34 0 01-1.07-2.64c2.08-4.57 3.93-9.16 7.23-13.28zm-9.27 15.24a1.93 1.93 0 01.63-2.1 1.29 1.29 0 011.3.81c.83 2.28 1.32 4.74 2.15 7-1.81-1.5-2.81-3.78-4.08-5.71zm1 2.37a6.61 6.61 0 01.57 1c.89.87.6 1.58.2 2.64A5.44 5.44 0 0118.88 83zm-2.57.21c1.11.17 1.06 1.4 1.6 2.1.83 1.81 2.54 3.33 2.49 5.38A5.49 5.49 0 0118 86c.24-.17-.29-.22-.29-.22-.24-1.3-1.65-2.53-.55-3.78zm-3.64 35.38l.11-1 .06.11s-.14-2.87-.09-4.1c.44-4.7-.36-10.56 1.37-15.66a58.47 58.47 0 012.69-9.57c.29.63.95 1.1 1.36 1.85h0c-2 6.65-3.85 13.92-3.69 20.73a52.68 52.68 0 00.49 12c.27 4.92 2.11 9.2 2.68 14.36-1-1.18-3.65-.86-3.13-2.86-1.43-5.64-1.17-10.39-1.85-15.9zm1.35 18.58a2 2 0 01-.07-.82l.42-.24c2.29.92 4.18 2.55 6.12 3.89.12.59-.53.47-.82.71-2.17-.44-5.1-.88-5.65-3.58zm2.48 3.27c.71-.12 1.12.58 1.76.64l.25 1.86a3.57 3.57 0 01-2-1.44zm.14 3.57c0-.26.19-.6.19-.89l-.2-.69c1.68 1.45 4 2 5.83 3.53.06.19.3.3.18.53-.41.6-1.23.31-1.76.25-1.59-.91-3.17-1.19-4.24-2.77zm23.22 35.85c-.63-.78-1.36-1.55-2.07-2.31h0l-.25-.27h0l-3.06-3.14a11.61 11.61 0 01-1.64-2h0a90.21 90.21 0 01-14.3-25.83 16.18 16.18 0 012.35 1.1c2.44 6.43 6.18 12.39 9.67 18.23l.12-.12 3.47 4.86h0a45.05 45.05 0 005.19 5.83 41.19 41.19 0 004 3.69 9.59 9.59 0 01-2.81.31zm.25 2a1.2 1.2 0 01.28-1c2.52-.08 5.75-.68 8.15.18l.18.52c.36.94-.4 1.18-1 1.48-2.44.44-5.9.87-7.57-1.23zm5 2.2l2.64-.66c-.18.07-.06.29-.12.41.3.41.83.46.95.93a4.76 4.76 0 01-2.11.36c-.19-.63-.89-.63-1.32-1.09zm1.49 3a1.72 1.72 0 01-1-1.33c2.65.5 4.45-1.39 6.86-1.11l.41.52a2.2 2.2 0 01-1.16 2 6.61 6.61 0 01-5.06-.09zm9.22 38.7a8.06 8.06 0 003.69-.55c.77 1.23-.75 1.65-1.57 2-.59.35-1.29.18-1.87.53-.54-.35.21-1.34-.2-1.99zm4.13 3.84a10.64 10.64 0 01-2.92 2.25c-.35-.23-.82-.23-1.06-.64v-.82a7.19 7.19 0 004.03-.8zm-3.6 14.92a14.41 14.41 0 00-.34-7.38c.94 1 2 2.09 2 3.56l.36.24a9.38 9.38 0 012.22-1.73 13.52 13.52 0 01-3.31 5.53v-.11zm4.28 18.14c-.35.66-.52 1.6-1.28 1.89-2.13-2.74-1.62-6.2-2.17-9.6.41-.06.35-.64.82-.65.83 2.35.08 4.63 1.56 6.56.47.23.7-.36.93-.66a28.48 28.48 0 001.15-3.58c.51 2.04-.68 3.98-.96 6.03zm4.37-21.59l-.21 3.81h0c-.66-2.17-2.2-4.38-1.75-6.5.65.7-.09 2.12 1.07 2.51 1-.47.58-1.47.81-2.23l-.14-3.69c.6 1.87 1.79 4.32.27 6.09zm.46-12.2c-.42 0-.53.58-.29.94l.18.17c-1.06.24-1.19-2-2.77-1.34-.08-3.27.55-5.86.59-9.08h.23c.89 1.58.73 3.8 2.67 4.62a9.79 9.79 0 01-.56 4.68zm-2.83-29a27.14 27.14 0 00.8 5.27c.29.17.17.53.53.53.35-.6-.24-1.35-.37-2l-.3-1.7c.77 1.12 2.18 1 3.47 1.16.54 1.69 0 3.45-.26 5.1-.12 1.46 1.54 2.63 1 4.27.25 2-1.21 3.76-.9 5.81 0 1.12 1.36 2.34.14 3.28l-1.06.13c-.4.64.19 1.17.31 1.81-1.3-1.28-1-3.46-2.43-4.73-.79-2.81-.33-5.57-.53-8.39l-.18-.17-.23.3c.07 2.11-.43 5.33.4 7.62.07 1-.75 1.87-.62 3 .19 2.7-.73 4.7-.36 7.69.29.63 1.05.1 1.47.33.36 2.17 3.34.69 3.06 3a18 18 0 01-.26 5.52c-.35-1.53-.54-3.4-1.73-4.33a1.87 1.87 0 00-.34 1.35l-.09 5.21a5.19 5.19 0 00-.95-2.57c-.41-.11-.76.36-.76.65-.62 3.82 3.1 7.26 2 11.06-.22 2.29-.56 4.59-2.08 6.35v.94a1.64 1.64 0 00-.83-1.22c-.4.59-.22 1.47-.51 2.12-.58.94-.51 2.12-1.27 2.93a40.89 40.89 0 00-1.15-6.08c-.24-.24-.59-.46-.88-.24l-.41.42c-.65-1.88-1.15-5.09-.34-7 .47-.41.29-1.28.58-1.81a15.12 15.12 0 004-7.07l-.36-.35c-.81.82-2 .89-2.62 2a5.28 5.28 0 00-2.67-3.68 10.76 10.76 0 01.86-3.69c1.75-.78 3.8-2 4.61-3.9l-.24-.36c-1.52.61-3 1.55-4.8 1.21.23-1.23.63-1.47 2-1.76.59-.24 1.52-.37 1.87-1.19.06-.7.4-1.83-.31-2.23-1.22.71-2.4.43-3.8.68l-.24-.24.75-1.59c-2.06-1.34-1-3.56-1.38-5.56.35-.12 0-.58.41-.53-.48-.65-.94-.63-1.3-1.29.11-1.17 1.27-2.88-.55-3.57-.19-1.57.33-2.58.32-4.1-.35-.64-1.12-.58-1.41-1.16l.22-2a8.33 8.33 0 006.83-4.27c.52-1.52 1.8-3 1.15-4.74.41.05.28-.43.58-.54.65.7 2.16.63 2.11 1.45h0c-.68.96-.14 2.02-.9 2.91zm14.66.79c.06-.19-.18-.7-.53-.65-3.88-1-8.33-1.06-11.4-3.5l.12-.13a20.14 20.14 0 01-4.06-1.66c-3.64-1.68-7-4.76-10.71-6.67a4.9 4.9 0 002-1.19c2.59 2.33 5.71 3.48 8.53 5.22a63.19 63.19 0 0018.22 6.74c-.54.86-1.6.99-2.12 1.88zm4.11.08c-.88.36-1.7 1.19-2.81.73l-.53-.53a55.53 55.53 0 006.3-5.19c.17-.13.82-.19.52-.55.36.13.77.13 1.06.41-1.29 1.75-2.98 3.35-4.49 5.17zm1 .06l1.22-1.48a13.56 13.56 0 002.64.52c-1.11.68-2.4 1.99-3.81 1zm2.94 1.56c-.3 0-.82-.05-.83-.4a12.36 12.36 0 004.26-3.38c.7-.88 1.16-2.06 2.21-2.59l.24.24c-.4 2.98-3.07 5.39-5.83 6.17zm34.85-5.41a3.81 3.81 0 00-.35.9 68.55 68.55 0 01-8.36 2.46c-4.51 1.2-9.79.77-14.25 1.38-2.69 0-6.26.51-9 .06l2.21-2c3.64.4 7-.21 10.67-.36 6.59-.84 12.47-.35 18.41-2.86l.7-.2zm.36 1.43c-.45-.45 0-.82.11-1.23l.26-1a8.36 8.36 0 010-1.5 1 1 0 01.23-.55.89.89 0 01.64-.1 1 1 0 01.59.16 1 1 0 01.24.32 3.29 3.29 0 01.47 1.33 1.48 1.48 0 01-.32 1.15 2.71 2.71 0 01-2.17 1.46zm-4.92 37.56c.22-1.88-.37-3.46-.32-5.28 1.05.11 1-1.58 2.16-1.59-.12.87-1.52 1.94-.4 2.64l1.59.11c.48 1.87-1 3.17-2.26 4.11-.19.04-.54.57-.72.05zm1.17 16.82c-.91-4.1 1.06-8.1-1.13-12.07a5.37 5.37 0 01.13-.92l.7.49a7.93 7.93 0 01.87.95.81.81 0 001.23.1c.47-.29.76-.65 1.4-.53-.09 2.52-3.31 4.12-2.42 6.69.3.29.89.76 1.41.41l1.46-1.6c.12 2.74-1.8 4.68-3.6 6.52zm1.06 1.57l.65-.35a11.49 11.49 0 01.53 1.05c.12.18.41.35.53.23l-.12.12c.83.52 1.17-.77 1.88-.77.18 2.17-1.21 4-2.61 5.7h-.53a41.74 41.74 0 01-.28-5.94zm.51 16.13a39.72 39.72 0 01.08-7.39c.41.7-.52 2.11.83 2.34h0c.23-.35.52-.3.76-.47h-.12.12c.5.2.68-.59 1.17-.54-1.52 1.81-.06 5.32-2.79 6.1zm3.36-6.65c-.94-.41-1.52.72-2.45.72-.3-.71.22-1.88-.84-2.11.11-1.28 1-1.93 1.86-2.95a6.42 6.42 0 001.56-4c.47.58.36 1.64 1 2.21a11.8 11.8 0 01-1.08 6.17zm1.31-7c.23-1.12-1.49-2.93.33-3.58.57-1.82.09-3.22 0-5.11.3.53.48 1.52 1.13 1.47h.23c-.58 2.62-.89 4.81-1.64 7.28zm4.45-28.41c.41.94-.63 2-.28 2.92-.77-1.27-1.94-2.33-2.25-3.78.36.1.65.63.94.41.12-.14.29-.24.23-.42.3.34.53-.12.82-.12.29.4.12.93.59 1.05zm-4.24-20.78c.19 1.52 1.9 2.5 1.49 4.09.24.24.59-.05.65-.29 1-2-2.9-3-.86-5.09a48 48 0 00-.44-5.28c1.65 1.87 1.2 4.68 3.38 6.25.12.47.65.7.65 1.23-1.1 1.94 1.49 3.1 1.85 4.85-.46.83-1.64.07-1.92 1.08-.12 1 1.18 2 .13 2.85a4.25 4.25 0 01-1.87.32c-.41.35-1.18-.11-1.52.53a22 22 0 002.14 5.14c-.29 1-.58 1.71 0 2.65a.46.46 0 00-.53.36c0 .17.12.46 0 .58-.18-.29-.6-.76-1-.52-.24.29.06.34-.06.64-.35-.35-.59-1-1.29-.93l-.23.3a14.28 14.28 0 002.78 5.26c.24.23.35 0 .53-.07.95 2-1.14 3.83-1 6a1.89 1.89 0 00-.51 2.12c-.1 1.35.38 3.52-.38 4.87H126c-.37-1.64-1.43-3-1.91-4.62-.18-.11-.3-.3-.53-.23a6.7 6.7 0 00-.1 3.05 27 27 0 001.91 4.85c.24.12.29-.12.47-.17a13.55 13.55 0 01-.11 1.88c-1.06-1-.95-2.41-1.83-3.46-.29-.11-.41.12-.64.31-.22 2.39 1.25 4.67.27 6.85-.64 1.06-2 .89-2.86 1.83-.53-.53-.48-2.05-1.59-1.5l-.06.11c-.12-.24.18-.35.06-.65l-.18-.17c.81-1.12 1.81-1.66 2-2.88 1-1.07 1-2.76 1.31-4.12-.11-.23 0-.71-.52-.64l-2.1 2.35c-.71-.28-.36-1.33-.31-1.93.34-1.93 2.92-2.95 2.08-5.17-.94-.4-1.7.37-2.34.78a5 5 0 01-1.09-1.29l-1-.58h0a2.66 2.66 0 01.3-.58l-.12-.06c.56-2.88 4.13-3.78 3.12-7.12-.42-.34-1.29-.16-1.82-.51a24.54 24.54 0 001-2.4c-.48-.83-1.35.06-2 .18a6.35 6.35 0 00-1.33 1.7c-.37-2.63-1.39-5.85.77-7.92-.65-.81-2.58.43-2.12-1.45a2.17 2.17 0 011-2.11c.87-.77-.19-1.47-.31-2.23a16.08 16.08 0 01-.67-5.68 2.93 2.93 0 002.21-1.42c-.71-.41-1.94-.52-1.59-1.75v-.35c1.11-.12 2-.95 3.15-1 .12-.11.3-.23.3-.41-.36-.4-1.59-.4-1-1.29l1.28-2.81c.88.58 1.13 2.27 2.53 2.09l.41-.36c.54 1.58.38 3.46.56 5.22.12.11.24.11.41.18.53-.42 0-1.12.11-1.71.23-1.81-1-3.52-.15-5a33.36 33.36 0 00.5-4.11l.41-.41c.12 3.36 1.54 6.42.27 9.83zm1.66 39.32a26.15 26.15 0 01-1.73-5.26 17.39 17.39 0 011.78 5.32zm-1.4-50.22a2.47 2.47 0 00.11-1 2.9 2.9 0 00-.12-.57c.87-.35 1.41-.6 2.15-1v.17a5.08 5.08 0 01-.46 1.36c0 .13-.1.26-.16.39zm3.16.33a1.67 1.67 0 01-1.44.27h0v0a5.82 5.82 0 01.45-1.31 5.43 5.43 0 00.49-1.49 5.7 5.7 0 000-.82 5.67 5.67 0 010-.72.9.9 0 01.22-.53.47.47 0 01.35-.13 1 1 0 01.62.34 2.37 2.37 0 01.62 1.42 3.64 3.64 0 01-.36 1.76 3.1 3.1 0 01-.9 1.27zm1.79-2.28h0s.22-.01.05.06zm25.78-20.94a33.78 33.78 0 01-2.09 3 34.37 34.37 0 01-3.93 3.89l-7.41 6.59a3.12 3.12 0 01-.92.66 4.48 4.48 0 00-.78.31h0c-1.49 1-3.13 1.87-4.5 2.83l-.81.22c-.87.54-1.14.94-2 1.55-.57.4-2.83 1.66-3.32 1.9h0a3.46 3.46 0 000-.78 2.8 2.8 0 00-.27-1 33.91 33.91 0 004.74-2.4l.77-.65c1.62-.81 3.11-1.9 4.65-2.85h0c4.63-3.54 8.53-6.64 11.8-10.44.72-.85 1.43-1.73 2.11-2.59l1.56-1.95c.67-.85 1.37-1.73 2-2.66a19.48 19.48 0 001.92-3.64c.06.79.12 1.58.16 2.38zm4.53-3.8c-.24-2.29-.08-4.93-.74-7.2-.36-.77.45-2 1.21-1.78.55 2.81 2.56 6.97-.42 9.04zm1.63-6.8c-.07-.34-.14-.67-.2-1l.07.15.65-.51c.05.44.11.87.19 1.31zm.87-5.18a8.4 8.4 0 00-.41 3.08l-.8.44c0-.1 0-.23-.05-.33l-.42-.59c-.64-.58-1 0-1.45.42-.21.54-.44 1.08-.68 1.61.07.65.14 1.3.2 1.94a19.19 19.19 0 01-2.22 4.55c-.61.92-1.3 1.79-2 2.63l-1.56 1.95c-.68.85-1.38 1.73-2.1 2.57a75.69 75.69 0 01-11.79 10.48h0c-1.84 1.18-3.5 2.43-5.41 3.49-.87.46-3.16 1.57-4.63 2.27a3.15 3.15 0 00-.22-.29 1.48 1.48 0 00-1-.51 1 1 0 00-.72.26 1.34 1.34 0 00-.37.84 5.22 5.22 0 000 .79h0c-.81.39-1.44.69-2.34 1.05a4.38 4.38 0 00-.23-.5 1.45 1.45 0 00-.37-.46 1.48 1.48 0 00-.86-.27 1.34 1.34 0 00-1 .21 1.3 1.3 0 00-.41.85 10.42 10.42 0 00-.14 1.37 3.64 3.64 0 00-.57 0l-.54.16a43.5 43.5 0 01-6.89 1.91c-7 .45-14.48 1.49-21.33 1.71l-.41-.29a6.83 6.83 0 001.35-3.18c-.47-.24-.64-1.05-1.29-.76-1.58 1.18-2.38 3.3-4.07 4.25a18.06 18.06 0 00-2.65-.68c.7-1.3 3.62-2.25 2.26-4.07-.12-.18-.47 0-.58-.17-.53 0-1.06 0-1.29.65-1.69.66-2.39 2.19-3.78 3.19-.18.24-.54-.11-.65-.22-9.46-1.69-17.75-6.35-26-11.15-1.3-.63-.13-1.47-.37-2.51-.89-1.59-2.12-.47-3.17-.41-.94.72-1.59-.74-2.23-1.15.28-.41.7-.41 1-.82a2.82 2.82 0 00-.13-1.93c-1.71-.64-3.58-.39-5.17-.56a47.44 47.44 0 00-3.41-3.39l-.12.13-.7-1h0c-1.3-1.78-3.42-3.75-4.92-5.78h0A110.87 110.87 0 0123.94 150c-.36-1.23-1.37-2.56-1.61-3.86H23c.47-.3 1.29-.65.94-1.3-1.07-1.4-2.83-1.8-4.25-2.9.29-.71-.06-1.35-.07-2 .76-.06 1.59.11 2.17-.6-.07-1.52-1.89-1.86-2.83-2.86a46.94 46.94 0 00-1-6.44c-2.4-8.89-2.4-18.39-1.47-27.95 0 0 1.77-8.34 2.86-12.16l.46-.53 1.07.76c.35.1.58-.19.81-.43A6.44 6.44 0 0020.6 86l.92-1.47c.3.7 1.12.81 1.48 1.27.46-1.58-.79-3.16-1-4.85 1.72-5.64 5.39-10.59 8.75-15.48.53-1.05 1.44-2 2-3l.73-.65a20.59 20.59 0 002.21-3.05c.52-1.15 1.77-2 2.58-2.94h0a12.69 12.69 0 011.39-2.08 59.44 59.44 0 019.65-7.65c1.09-.7 2.23-1.37 3.33-2l1.2-.7a1.17 1.17 0 00.78.62h.18a1.33 1.33 0 001.1-.75 3.4 3.4 0 00.28-1.16V42a32.57 32.57 0 002.85-1.94.14.14 0 000 .06h0c.42.52.12.94.65 1.34 1.88-.3 1.87-2.54 3.27-3.48a71.25 71.25 0 0112-3.54c6.54-.78 13.26-2 19.3-2.06l.73.1a2.19 2.19 0 00-.15 1.72c1.88.63 2.79-2.42 4.91-2 .41.23.45-.17 1.47.42 1.11 0-.11 1.09.77 1.49 1.29.35 2.11-1 3.16-1.42.58.34 1.34.22 1.87.63 3.7.44 6.76 2.3 10.29 3.1 7.67 3.63 15.78 6.36 22.76 11.5l.23.63h0l-.34.28c-.06 0-.12-.07-.12-.18-.06.05-.06.11-.18.11v1.12c1.7.51 4.22-.79 4.76 1.49-.47.24-.41.65-.52 1.06.65 1.46 2 .16 3.17.27l1.64 1.15c.62.35 7.69 10 8.18 11.62l.2.54L158.8 68a11.88 11.88 0 012.85 4 36.29 36.29 0 013.35 6.38l-.17.23c-.12-.17-.3-.11-.47-.11-.41.18-.06.65-.29.82a4.21 4.21 0 002.77 2.22 6.45 6.45 0 00.59 1.71l.24.88a5.86 5.86 0 01-1.7-.77.71.71 0 00-.93.12c0 2.82 3.18 2.62 4.6 4.9 2.69 7.49 3.21 15.69 3.38 24h-.59c-.93 1.47.66 2.76 1.49 3.86-.34.36.3 1.35-.52 1.17-.06-.05-.12-.11-.12-.17-.64-.22-1.41-.52-1.87.18-.28 2.07 1.83 3.34 2.44 5.16-2.09 12.25-4.83 24.54-10.21 35.53l-.65-.81a1.25 1.25 0 00-.82-.4zm1.64 7.09a.38.38 0 01-.53.29c-.95-1.92-.91-4.51-.92-6.73a2.12 2.12 0 01.77 1.46l-.12.12a6.18 6.18 0 01.85 4.93zm.95-3.94l-.44.36c-.12-.62-.27-1.22-.37-1.7 5-10 7.61-20.69 9.71-31.73a26.85 26.85 0 01.74-3.4c2.64 1.92.73 4.45.8 7-1.08 4.75-1.87 9.39-3.72 13.63-.23 1.12-1.16 2.52-1.27 3.41-2.11 4.05-3.02 8.65-5.4 12.49zm3.93 19.01l1.31-.46c1.07-.48 2.22-.8 3.33-1.18a6.27 6.27 0 01-.23 1.76c-.92 1.47-2.8 1.48-4.33 1.08a4.09 4.09 0 01-.08-1.2zm1.26 20.54c-.25-2.12-2.14-4.09-1.27-6.32.3.46.7 0 1.05 0 .71.86-.16 2.68 1.2 3.15a2.22 2.22 0 001.05-.89h.29c-.28 1.52-1.62 2.64-2.32 4.06zm-.75-7l-.35.18a4.16 4.16 0 000-2.93c-.06-1 1.06-.31 1.52-.78 0 .59.72 1.18 1.24.76 0 1.58-1.87 1.53-2.51 2.65zm1.78 3.15c-.48-1.17.16-2.41-1-3.27l1.46-1.07c-.77 1.65 2.87 3.35-.46 4.37zM173 194c-.12-.87-1.3-1.45-.72-2.51.47.12.47.7.94.82l.65-.19A4.57 4.57 0 01173 194zm2.43-4.46a4.4 4.4 0 00-2.09 2.06 1.36 1.36 0 00-1.3-.76l-.04.16c-.06-.12 1-2.47-.95-1.82a1.48 1.48 0 00-.53-.94c-.52-.11-.75.31-1.22.31a2.24 2.24 0 00-.12-.82c1.58-.83 3-1.83 4.85-1.74.64.29.83 1.18 1.59 1.4h0a3.1 3.1 0 01-.16 2.15zm.16-2.81a2.58 2.58 0 00-2.65-1.58 29 29 0 00-4.09 1.9c-.12-.46-.47-1-.42-1.45.65-.19.81-1.07 1.34-1.36 1.47 1.21 2.82.33 4.34 0a1.45 1.45 0 001.29.52 4.59 4.59 0 001-1.06c.09.85.16 2.43-.78 3.03zm1.89-7.24a4.13 4.13 0 01-.21.84l-.49-.44h0a5.58 5.58 0 01-.71-2.55c.18 0 .35 0 .47.17 1.06.58 1.11-.83 1.63-1.24 1.15 1.1-.55 2.11-.66 3.22zm2-3.88c-.29.12-.23.41-.23.65-.82.66-.41-.94-1.12-1a10.6 10.6 0 00-1 2c-.58.13-.82-.76-1.58-.39a3.87 3.87 0 00.92 3.33l.66.63c0 .14-.1.28-.14.42.12 1.28-.93 1.76-1.57 2.88-.47.42-.65-.35-1.06-.41-1.76.08-3.22 1.32-4.75-.08l-1.57 1.6c-.48-1.24.69-2.05 1-3.06.11-.59-.13-1.06.1-1.53 1.53.58 2.7-.07 4.1-.61a5.46 5.46 0 00.39-3.1c-1.23.46-2.59.52-3.73 1.21l-1.26.56a4.47 4.47 0 011.07-2 1 1 0 00-.21-1.32l1-.25c1.61 0 2.83-.95 4.31-1.62.07.1.24.17.18.29.18.35.36.93.89.88.94-.14.93-1.18 1.33-1.83.4-.82-.36-1.35.22-2.11.72 1.11 1 2.68 2.25 3.27a6.94 6.94 0 01-.2 1.59zm2.1-9.25h0a49.57 49.57 0 01-1.87 7.14l-.23-.23c-.89-1.05-1-3.28-2.66-3.14 0 1.22.07 2.92-.8 4-.76-.24-.3-1.46-1.18-1.52a9.44 9.44 0 01-4.3 2.1l-1.1.39c-.39-.43-.86-.86-.8-1.45s.58-1 1.1-1.3a14.93 14.93 0 005.09-1.31c1.1-1.25 2.45-2.08 2.9-3.6l1.3.93c1.29.3 1.39-1.28 1.87-2.27l.68.22h0zm1.22-3.31v0a9.34 9.34 0 01-2.13-4.09c.71 1.39 3.53 2.49 2.13 4.09zM186 144c.54 1.24-.81 2-1.15 3.06.54 2.7-1.31 5.47-.36 8.1-.69 2.06-.32 4.11-.89 6.16-1-1.1-2.25-2-3.31-3.14-.18-.23-.07-.94-.65-.76.13 1.58 1 3 1.61 4.56.19.7 1.06 1.11 1.06 1.88-.23.63-.43 1.27-.6 1.91h-1c-.75.26-.83 1.64-1.43 2.31-.3-.23-.66-.41-.95-.64-1.17.12-.94-.75-1-1.69h-.35c-.35.81.54 2.63-.79 3-1.22 2.52-4 2.89-6.31 3.2-2.25-1.69.26-3.75-.45-5.81 1.16-1.46.38-3.28.61-4.86.17-1.35 1.22-2.41 1.85-3.59-.53-.12-1.22.24-1.58-.34-.13-1.12-.26-3.16-.32-4.64a5.55 5.55 0 01-.2-1.31l-.17-1.25c2.95-7.36 5.66-14.77 6.53-23-.3-1.18.76-.72 1.23-1.41a7.9 7.9 0 01.43 4.21c-.11 1.11-.87 2.05-1 3h.35c2-2.05 1.36-5.62.66-8.12l-.39-1.57c-.48-1.26-1.52-2.4-.89-3.84l.65.87c.18.59 0 1.7.6 1.87-.06-.87.22-2-.6-2.51l.52-.36.87.8c0 .56.63 1 .73 1.53.21 4.52.3 10 .63 15.19.75-1.3.27-3.06.38-4.63.64.64.77 1.62 1.36 2.21.4-.82-.42-1.57-.72-2.34-.29-.06-.64.13-.76-.16-.08-2.82-.34-6.68-.3-9.5 1.24.63 1.93-1.25 3.1-1.31.65.88-.33 1.81-.74 2.64-.17 1.24.65 2.11 1 3.16a16.13 16.13 0 011.43 3.27c.41-.47 1-.36 1.64-.24a11 11 0 010 4.34c.67 3.51-1.56 6.04-.33 9.75z" stroke="#000" stroke-linejoin="round" stroke-width=".5"/><path d="M176.66 146.73c.52.17.82-.3 1.28-.48.24-.19 1.06-.71.58-.94-.58.53-1.4.69-1.86 1.42zM180.29 137.73H180v3.57c1.07-.88.18-2.3.29-3.57zM178 141.44c-.64.12-1.28.94-1.87 1.23a2 2 0 001.87-1.23zM178.47 137.09a2.48 2.48 0 00-1.63 1.48c.7-.18 1.22-.95 1.63-1.48zM176.81 152.82h1.06c.41-.24 1.16-.59.81-1.18-.46.7-1.34.77-1.87 1.18zM172.45 167.74c-.11 0-.41-.11-.41.12.83.58 1.82-.24 2.64-.54-.82-.06-1.53.6-2.23.54zM8.29 142.59a12.65 12.65 0 001.71 4.15l.29-.36a13.87 13.87 0 01-1.49-3.79c-.29-.36.35-1.13-.41-1.24A12.93 12.93 0 017 144c.83.17.94-.88 1.29-1.41zM175.6 164.2a9.29 9.29 0 001.39-2.29c-.59.53-1.58 1.42-1.39 2.29z" stroke="#000" stroke-linejoin="round" stroke-width=".5"/></svg>