<svg xmlns="http://www.w3.org/2000/svg" width="500" height="300" viewBox="0 0 500 300"><path fill="#002a86" d="M0 0h500v300H0z"/><path d="M220.6 79.17a21.66 21.66 0 00-8.57 2.4 19.33 19.33 0 00-1.91 1.11c-.53.35-1.48.7-.92 1.33.73.81 2.19-.19 2.89-.55a10.76 10.76 0 011.25-.77c.54-.19 1.12-.11 1.59-.48.2-.15.23-.37.43-.53a3.84 3.84 0 011-.5 9.06 9.06 0 012-.6 17.52 17.52 0 014.46-.09 7.69 7.69 0 012.37.2c.34.19.25.29.25.79-3-.61-7.54-1-10 1.39a11.08 11.08 0 006.91 2.76 8.46 8.46 0 003.91-1.07c.84 3.32 3.8 5.33 6.73 6.71.71.33 1.44.64 2.18.93a4.26 4.26 0 001 .38c.29-.08.57-1.27.64-1.54.33-1.22.06-1.54-1-2.1a4.24 4.24 0 01-2-1.46c2.16.13 4.67 1.53 3.71 4-.19.5-.78.92-.37 1.28.23.2.75.06 1-.05a4.43 4.43 0 00.77-.6l3.27-2.63c.51-.4 2.05-2.06 2.52-.64l.17-.14a13.26 13.26 0 003.91 2.92c.57.35 3 1.59 2.38 2.31-1.14-.1-2.55-1.7-3.51-2.3-.61-.38-1.23-.74-1.83-1.13-.34-.21-.67-.44-1-.67s-.71-.68-1.1-.59-1 1-1.42 1.33c-.56.42-1.15.79-1.74 1.17s-1.08.7-1.58 1.09a2 2 0 01-2.19.57 19.85 19.85 0 01-8-4c-1.22-.9-1.62-2.1-2.48-3.29-.32-.45.07-.53-.58-.57-.2 0-.61.24-.75.3a3.59 3.59 0 01-2 .39c-2.42-.16-5-.49-7-2-.39-.3-.89-1-1.31-1.07s-1 .38-1.35.56a7.79 7.79 0 01-3 1.33 2.13 2.13 0 01-1.47-.47c-.32-.25-.43-.6-.85-.6s-1.09.94-1.37 1.2c-.54.5-1.09 1-1.65 1.45-2.25 1.89-4.63 3.61-7 5.34-4.45 3.24-9 6.55-12.38 10.94-.42.54-1.13 1.06-.28 1.51a1.51 1.51 0 001.25 0 15.72 15.72 0 003-1.67c2.13-1.3 4.69-2.56 6.41-4.4.25-.27.93-1 .62-1.4s-1 .15-1.28-.31.8-.75 1.1-.9c.5-.25.82-.66 1.35-1a32.41 32.41 0 006.45-4.47c.44-.41.93-.77 1.39-1.16s1.14-1.24 1.72-1.44c.18-.06.59-.19.74.16s-1.79 1.73-2.13 2c-2.31 2-4.53 4.19-7.33 5.51-.56.27-1.47.3-1.24 1.11.14.5.44.39 1 .21a17.35 17.35 0 004-2.33c.68-.47 1.35-.94 2.05-1.38.35-.22.7-.43 1.06-.63s1.13-.92 1.3-.12c.22 1.07-2.48 1.21-2.16 2-.44-.07-.94.15-1 .56l-.15-.16c-.71 1.24-2.36 1.7-3.56 2.31-.56.29-2.09 1.27-2.38.12-.77 2.5-3 3.73-5.2 4.89-.73.38-2.62 1.09-3 1.86-.46 1 .9 1.34 1.56 1.23 1.19-.19 2.47-1.43 3.46-2.13 1.47-1 2.93-2.12 4.34-3.25.28-.22 3.13-2.87 3.49-2 .2.48-.93.79-1.17 1-1.23.88-2.26 2.12-3.46 3.06s-2.66 2-4 2.86c-.46.3-1.2.46-.91 1 .5 1 3.17-.63 3.72-1a36.28 36.28 0 003-2.42c1.19-1 2.49-1.85 3.69-2.85s2.36-2 3.51-3.06c.48-.43 1.21-1.47 1.81-1.69.18-.07.89 0 .81.47 0 .24-.37.4-.52.54a8.15 8.15 0 01-.73.63 15.87 15.87 0 00-1.94 1.54c-1.35 1.21-2.65 2.43-4.08 3.54s-3.11 2.28-4.51 3.6c.74.7 1.67.36 2.49 0a8.55 8.55 0 011.36-.5c.76-.15.62-.13 1.05-.8.23-.36 1.57-1.93 2.07-1.62s-1.21 2-1.43 2.43c1.29.35 2.08-.67 2.93-1.42a11.93 11.93 0 002.21-2.79c1.21-2 2.25-4.12 4.28-5.37.49 1.16-.86 1.47-1.37 2.24-.38.59-.68 1.19-1.1 1.8a11.22 11.22 0 00-1.24 2.38l-.14-.17c-.23.3-1.15 1.16-1.14 1.51s1 .83 1.28.85c.73 0 1.16-.75 1.58-1.31.86-1.13 1.55-2.36 2.49-3.43.22-.26.84-.76.9-.17s-2.24 2-1.8 2.86 2-.49 2.24-.86c1.49-2.09 2.17-4.67 3.86-6.62.35.37.56.22.52.63 0-.12-.61.78-.48.58a15 15 0 00-2 4c.4.14.54.91 1 .82.67-.13 1.62-2.72 2-2.41.79.62-.7 1.59-.66 2.07.12 1.47 2.45-.83 2.64-1.48 1.11.63-1.66 3.32.46 2.66.75-.23 1.15-1.47 1.44-.15.1.5-.49 0 0 .7a2 2 0 00.78.45c.73.34 1.5.44 2 1.12.25-.42 1-1.91 1.12-.7a1.27 1.27 0 01-.58.92c.42 1.16.76.16 1.48.32.35.08.18.24.41.51 1.54 1.8 1.18-.63 2.57-.51.05.56-.29 1.68.14 2.14s.71-.15 1.25-.06c-.11.74 1 1 1.5 1.23.44-1.22.75-2.44 1.11-3.67a.77.77 0 01.36-.85 1.93 1.93 0 00.34-.63.74.74 0 000-.39c-.11-.47-.7-.7-1.08-.89a11.55 11.55 0 01-2.06-1.17 36.82 36.82 0 01-4.94-4c-.86-.91-1.68-1.84-2.52-2.77a10 10 0 01-1-1.08c-.25-.4-.27-1-.6-1.31-1.59 2.51-4.64 2.1-7.2 2a9.32 9.32 0 01-6.71-3.74c-.33-.47-1.57-2.41-.83-3 .19-.17.38 0 .51.17s.09 1 .29 1.4.55 1.23.9 1.27 1.26-1.32 1.45-1.54c1 1-1.28 1.69-.82 2.68.54 1.19 1.74-1.08 2.07-1.52.73.66.57.42 0 1.26-.09.15-.65 1-.58 1.22s1.12.59 1.38.84a9.7 9.7 0 011.85-3.63c.71.71-.32 1.73-.65 2.36-.18.33-.71.93-.72 1.27 2.32.08 5 1.19 6.08-1.69.88.45-.13 1.36-.54 1.69 1.93.81 2.47-1.68 3.71-2.54a2.88 2.88 0 01.56 1.4 3.21 3.21 0 00.9 1.47c.9 1 1.77 2 2.67 2.95a24.22 24.22 0 005.86 5 5.26 5.26 0 001.69.74c.69.07.32.09.76-.4a3.74 3.74 0 00.46-.77c.34-.6.54-1.26.85-1.87a1.87 1.87 0 011.68-1 3.23 3.23 0 013.12 1.26 5.08 5.08 0 011.14 4.14c0 .69-.26 1.4-.26 2.09s-.21.34.26.65a2.1 2.1 0 001 .13 6 6 0 001.92-.29c.81-.25.81-.33.66-1.14-.3-1.64-1.17-3.94.25-5.3.88-.84 2.39-.79 3.51-.75a6 6 0 001 .06c.76-.17.36.1.58-.61a5.08 5.08 0 00-.19-2.25c-.27-1.22-1.07-2.38-1.3-3.57s1.31-1.26 2.21-1.51a30 30 0 006.88-2.44 10.77 10.77 0 002.85-2.26c.36-.42 1.56-2.81 1.88-2.73-.18 3.53-3.44 5.39-6.37 6.57a37.35 37.35 0 01-5.06 1.54 3.64 3.64 0 00-1.48.56c-.34.38-.08.93.1 1.42s.34 1.07.89 1.15a3.69 3.69 0 001.48-.38 37.72 37.72 0 005.37-2.75c.34-.19.57-.53.9-.72s.75-.24 1.09-.43a12 12 0 002.12-1.57c1.1-.93 2.76-2.48 4.32-1.81.71.3 1.1.84 1.9 1a8.6 8.6 0 002.68 0 5 5 0 002.77-1.48c.89-.88 1.37-.83 2.41 0s4.42 3.26 5.63 2.28c-3.38-2.67-6.92-5.44-11.15-6.56-3-.81-6.16-1.15-8.84.7-2.19 1.51-3.93 3.75-6.41 4.81a8 8 0 01-3.91.37c-1.49-.08-3.54 0-4.34-1.55a6.37 6.37 0 01-3.62 1.94c-1.62.19-2.68-.74-4-1.52-.36-.21-1.62-1.29-1.94-1.27s-1.21.89-1.57 1.1a3.8 3.8 0 01-3.51.27c-4.56-1.6-7.98-6.23-13.12-5.94zm10 6.39c.5-.36 2.09 1.34 2.25 1.77-.85.36-2.72-1.47-2.29-1.77z" fill="#ffea0f"/><path d="M268.73 103.85c-1 .21-2.13 1.66-2.94 2.23a35.13 35.13 0 01-3.26 2 30.1 30.1 0 01-6.49 2.74 35.89 35.89 0 01-4 .82c-.55.08-2.78 0-3.06.38-.13.16 0 .4-.07.58a.5.5 0 01-.27.42l.15.15c-.53.87-1.68.91-2.58.85s-1.7-.32-2.57-.34-1.67.18-2.49.09c-1.07-.12-1.23-.55-1.75-1.36s-1.41-.83-2.35-1c-1.82-.37-3.43-1.07-5.19-1.6-1.22-.37-3.09-.82-2.82-2.47-.53 0-.71.63-1.15.65-.9 0-.9-1.88-1.79-2.19-.1.3-.17 1.28-.54 1.4-.17 0-.93-.5-1.07-.57a7.23 7.23 0 01-2.24-1.75c-.32.44-.14.92-.32 1.4-.85-.29-1.11-1.12-1.74-1.66-.23-.2-.74-.56-1.07-.44-.66.24 0 1-.35 1.39s-.52.17-.81.1c-.47-.12-.83-.67-1.27-.88a3.56 3.56 0 01-.84-.37c-.34.39 0 1.49-.54 1.69-.33.13-1.66-.93-2.16-1-1.05-.06-.94.42-.93 1.27a2.39 2.39 0 01-.68 1.91c.41.38.6.28 1 0 .85-.59 1.57-1.61 2.65-1.92.71-.2 1.18.08 1 .85-.13.46-.79.73-.88 1.18s-.22.22.27.49a1.14 1.14 0 001 0c.83-.48.55-1.86 1.24-2.45a1.38 1.38 0 011.81.18c.49.7-.58 1.32-.44 1.94s.82.27 1.1-.09c.49-.62 2.3-2.12 2-.24 0 .23-.53.58-.43.81.47 1.14 2.33-.91 2.86-1 .32-.07 1 0 1.2.29s-.17 1 0 1.39c.31.77.6.43 1.24.13a2.57 2.57 0 011.72-.42c1 .28.72 1.38 1.34 2 .27.28.32.39.72.31s.44-.34.76-.38a2.76 2.76 0 011.15.29 6 6 0 001.66.47c.6 0 1-.35 1.56-.43a2.28 2.28 0 012.07 1.21c.9 1.2.58 1.19 1.91 1.23l8.69.26 9.28.28a6.25 6.25 0 001.67 0c.44-.14 1.09-.89 1.51-1.17a12.58 12.58 0 012-1.11 16.3 16.3 0 014.21-1.24c.7-.11 3.24.1 3.62-.47.28-.41-1.41-.49-1.7-.52a11.26 11.26 0 00-4.22.68c-1 .31-3.14 1.27-4.22.9s-.8-.77-.34-1.12a22.41 22.41 0 012.08-1c.56-.32 1.11-.66 1.68-1 2.86-1.58 6.25-1.13 8.86-3.26a3.13 3.13 0 00-2.69 0c-.56.31-1 .79-1.59 1.11s-1.45.73-2 .3.08-.91.55-1.27c.29-.22 2.18-1.14 1.81-1.57a.53.53 0 00-.52-.08zM255.41 113c.45 0 .91.07 1 .58-.53.18-2 .34-2.08-.52a4.17 4.17 0 001.08-.06zm-4 0c1.25 0-.44 1.46-1.23.56a3.08 3.08 0 001.23-.56zM244.81 74.81c-2.09.1-3.69.93-4.31 3a17.24 17.24 0 00-.47 2.77c-.14 1-.83 1.85-.95 2.86.51-.48 1.73.88 2.31.83s1.13-1.14 1.56-.71-.41 1.3-.2 1.65c.33.55 2 .58 2.43.47a6.43 6.43 0 002.13-1.37c.83-.63.73-1 .38-2-.48-1.32-1.75-3.69.22-4.43a8.73 8.73 0 012.42-.24c.29.14.27.83.75.85s.45-.32.46-.77a2 2 0 00-1.36-2.12 2.48 2.48 0 00-1.5.13c-.3.13-.58.54-.86.62s-.29.09-.53 0-.32-.7-.56-.92-.73-.19-1.17-.37l.14-.15a8.75 8.75 0 00-.89-.1zm.12 1.46c1.65-.42.92 2.62-.14 1.23-.25-.32-.36-1.1.14-1.23zM277.64 85.78c1 .44 2 1.09 3 1.57a6.11 6.11 0 001.77.57 10.25 10.25 0 011.69.08 15.6 15.6 0 013.2 2.15c1.16.81 2.31 1.63 3.48 2.41s2.17 1.43 3.29 2.08a16 16 0 011.64.86c.41.31.75.78 1.16 1.12 1.71 1.4 3.9 2.34 5.09 4.29a70.51 70.51 0 00-8.6-4.85 41.61 41.61 0 01-4.08-2.41 4.33 4.33 0 00-2.17-1c-.73-.1-1.48-.05-2.21-.16-2.83-.42-5-2.88-7.18-4.51-.55-.42-3.12-2-2.15-3.12.66-.73 1.49.88 2.08.93M267.92 86.25c-.22 3.46-2.72 6.16-5.2 8.32-1.32 1.15-2.72 2.21-4.07 3.31a16.88 16.88 0 01-1.84 1.56 6.46 6.46 0 01-2.36.94c-1.35-.14-1.86-4.66-2-5.89-.07-.75-.2-.7.38-1a17.14 17.14 0 011.74-.63 27.26 27.26 0 002.92-1.44c1.9-1.07 3.7-2.29 5.58-3.39a21.91 21.91 0 002.33-1.84c.8-.62 1.82-.93 2.49.09" fill="#ffea0f"/><path d="M278.88 90.26a2.51 2.51 0 01-2.2.82c-.64 0-1.5-.17-1.5-1-.63.18-1 1-1.61 1.1s-.93-.51-1.6-.49-.91.52-1.41.75-.82 0-1.4-.12c-.41 0-2.54.1-1.58 1 .32.3.95 0 1.32 0a2.79 2.79 0 011.2.23c1.08.27 1-.72 1.93-1 .71-.18.55.33 1.07.58.81.4 1.28-.65 1.95-.64.24 0 .47.4.82.51a3 3 0 00.94 0 8.63 8.63 0 001.05-.12c.84-.12.56-.13 1.05.48a26 26 0 001.65 2.29 13.94 13.94 0 002.41 2c.55-1.27-1.45-2.19-2.13-2.93a6.8 6.8 0 01-1.32-1.91c-.17-.43 0-1.09-.48-1.34.31.11.47-.29.69.15l.15-.15-.15.15c1.91.9 4.81 4 7.1 2.63a.41.41 0 01-.16.31c2.11-.26 3.65 1.58 5.3 2.57 2.16 1.3 4.4 2.55 6.6 3.84 1.51.88 4.08 1.8 4.23 3.9.2 2.94-4-1.12-4.75-1.66-1.14-.85-2.28-1.69-3.45-2.49-.46-.32-3.26-2.44-3.52-1.94-.52 1 4.95 4 5.67 4.53 1.05.73 2.09 1.48 3.08 2.3.43.36 1 .64.92 1.13a1.39 1.39 0 01-.75.89c-.75.15-2.27-.66-3-1a22.43 22.43 0 01-3.33-2.22c-1.94-1.47-3.64-3.27-5.5-4.86a13.71 13.71 0 01-2.27-2.36c-.31-.44-.43-1-.9-1a.51.51 0 00-.45.67c.14.61 1.72 1.7 2.19 2.18.94 1 1.86 1.92 2.8 2.87a33.13 33.13 0 005.48 4.69c.37.24 2.82 1.25 1.9 1.87-.37.25-2.35-1.38-3.16-1.29-.53 0-.71.41-1.24.55a3 3 0 01-1.33-.14c-1.24-.3-1.88-1.27-2.78-2.15s-1.8-1.73-2.63-2.67a17 17 0 01-1.13-1.41c-.26-.37-.89-1.24-1-.26-.06.8 1.27 2.07 1.75 2.59.7.78 2.09 1.71 2.5 2.66.31.71.21 0 0 .53-.06.15-.42.59-.61.61s-.29-.17-.47-.28a10.67 10.67 0 01-1.53-1.48 3.52 3.52 0 00-.65-.63c-.28-.15-.25.15-.54 0a12 12 0 01-2.72-2.75 15.62 15.62 0 01-2.21-3.35c-.35-.74-.92-.88-.83 0a5.35 5.35 0 001 1.91 19.59 19.59 0 002.38 2.92c.49.52 1 1 1.48 1.57a1.38 1.38 0 01.52 1.28c-1.53-.59-2.57-1.93-3.92-2.81-.31-.2-.74-.33-1-.54-.5-.37-.37-.32-.6-1a13.73 13.73 0 00-1.2-2.19c-.13-.23-.84-2.21-.95-2.25-.94-.37-.39 1.26-.3 1.5.28.71.69 1.36 1 2s.48 1.81.89 2.18a2.85 2.85 0 01-1.84-.91 10.22 10.22 0 01-1.79-1.48c-.34-.58-.1-4.4-1.39-4-.08 1.28.93 2.78.31 4-.61-.4-.79-1.28-1.44-1.63-.84-.45-1.06.37-1.78.69-.38.17-4.12.83-3.18 1.79-.52.06 0-.79-.56-1s-.58 1-.72 1.35c-.28.73-.29.79-.95.64-.51-.12-1-.2-.93-.85-.92 0-.54.93-.75 1.51-.41 1.12-.6.13-1-.26-1.08-1.19-.89 1-.92 1.67-1.41-.41-2 .1-2.38 1.4-.64-.11-.9-.81-1.55-.18-.27.25-.25.94-.64 1.07-.77.25-1.29-2.24-1.42-2.76s-.67-1.94-.17-2.45a6.56 6.56 0 011.18-.3 9.41 9.41 0 001.1-.45 15.56 15.56 0 003.84-2.86c1.18-1.1 2.27-2.32 3.52-3.34a11.36 11.36 0 003.19-3.64c.39-.75 1.18-3.84 1.74-3.94a8.66 8.66 0 011.36.21 7.7 7.7 0 001.36-.07 9.31 9.31 0 002.76-.9c.4 2.14 3 2.84 4.25 4.33M242.54 99.28a51.9 51.9 0 01-.75 7c-.17 1.08-.35 2.17-.51 3.26s0 1-1 1c.1-.47.19-3.06-.59-1.89-.36.53 0 1.34-.27 1.89a1 1 0 01-1.63.13c-.26-.34 0-.72-.17-1-.44-.71-1.06.33-.66.74-.27 0-1.54 0-1.69-.31s.43-1 .56-1.21c.44-.71 1.18-1.57.59-2.42a7.59 7.59 0 00-1.63 2.38c-.31.88 0 1-.91 1A15.75 15.75 0 00235 105a15.26 15.26 0 01.47-2.33c.11-.36.76-1.47.49-1.73.72-.16.9-2 1.31-2.68a2.16 2.16 0 011.24-1c.2-.06 1 .24.77-.46 1.51.07 2.55 1.32 3.24 2.54M249.29 97.73c-1.3 0-2.37 0-2.42 1.65a18 18 0 00.38 2.47c.11.94.17 1.9.22 2.85a29.2 29.2 0 00.59 5.1c.43 1.83.73 1.14 2.27 1.14-.23-.63-.84-2.36-.5-2.92.89-1.48 1.21 2.59 1.27 3.06l4.33-1.14c-.43-.72-.28-1.62-.54-2.4a5.16 5.16 0 01-.31-.73c0-.2.17-.33.31-.42-1.24-1.68-1.15-3.77-1.6-5.71a4.76 4.76 0 00-1.19-2.61c-.67-.48-1.98-.35-2.81-.34zm3.71 10.58c.39.19 1 1.58.58 1.89-.58.42-1.26-1.39-.58-1.89zM246.55 105.08a28.77 28.77 0 00.25 3.47A22.26 22.26 0 00248 112a1 1 0 01-1.08 1.37c-.73-.13-1.31-1.09-2.12-.65 0-.25.44-1.52 0-1.62s-.8.8-.86 1.11.09.49-.14.66a3.11 3.11 0 01-1 0c-.31-.26 0-1.11-.08-1.45a2.42 2.42 0 00-.22-.69c-.2-.41-.27-.27-.34-.72a13 13 0 01.22-2.48 24 24 0 01.35-2.68c1.2.73 2.67-.37 3.85.23M240.61 113v-1.39c.45.14.69-.31 1.08-.39l.15 1.78h-1.23" fill="#ffea0f"/><path d="M203.8 114.44a14.29 14.29 0 00-2.08-2.87 7.37 7.37 0 00-5.52-2.37 11.72 11.72 0 00-8.43 3.19 21.15 21.15 0 00-6 10 55.9 55.9 0 00-2.65 14.71A55.39 55.39 0 00181 151a98.89 98.89 0 009 24.42c4.93 9.15 12 17.53 19.42 24.77 4.7 4.58 9.91 8.88 15.84 11.77 6.19 3 12.69 5.43 19.13 7.83.94.35 1.48.72 2.41.46 1.91-.53 3.79-1.17 5.64-1.87a88.71 88.71 0 0021.48-11.66c8.34-6.19 15.5-14.21 21.79-22.45a77.5 77.5 0 009.73-16.79c3.58-8.39 6.56-16.93 6.41-26.18-.12-7.51-1.69-15.82-5.11-22.53a15.82 15.82 0 00-9-8 10.83 10.83 0 00-10.31 1.43 18.76 18.76 0 00-2.27 2c-.2.21-.54.78-.82.9h-.41a18.48 18.48 0 01-2.88 0l-12.38-.1-36.79-.32-26.69-.24z" fill="none" stroke="#ffea0f" stroke-width="2.32"/><path d="M231.08 120.48c-.72.86 0 1.17.25 2.11a7.82 7.82 0 01.09 1.37l.39 6.32.67 10.78c-.33 0-1.62.08-1.8-.13s-.08-1.32-.1-1.61l-.29-4.3c-.58 0-2.51-.06-2.81.33s0 1.43 0 1.76a23.62 23.62 0 010 2.38c-.08.62.13.36-.36.55s-1.49-.11-2.13 0c-.89.15-1.61 1.17-2.29 1.79l-.37-5.54 4-.25c-.08-.37-.1-1.21-.34-1.49s-.28-.13-.7-.11c-1.08.07-2.16.22-3.23.33l-.56-5.77a16.17 16.17 0 00-.29-3.12c0-.09 0-.43-.05-.49s-1.15 0-1.41 0l.27 17c-1-.14-1.94-.23-2.89-.43-.7-.15-.47 0-.7-.59a38.66 38.66 0 01-1.31-6.17l-.67-3.13c0-.24-.13-1.47-.35-1.63-.54-.39-1.31.5-1.66.61a9 9 0 01-2.71-.24v1.79c0 .4-.24 1.72 0 2 .51.68 2.71-.06 3.33.54.16.16.19.87.24 1.09l.54 2.44.57 2.55c.06.27.45 1.23.33 1.48-.25.51-1.07.16-1 .91a4.67 4.67 0 001.43 1.95 1.5 1.5 0 001 .05l5-.42a5.18 5.18 0 001.42-.12c.33-.16.74-1.12 1.07-1.16s.93.86 1.29 1a6 6 0 002.05.09c.67-.13.5-.49 1-.94.35-.28.07-.23.37-.25s.87.5 1.09.62c1.16.64 2.87-.34 4.12-.63a15.73 15.73 0 013.61-.46c5.94.07 11.87.29 17.8.44l16.95.45c-.44.71-1.37 1.52-.95 2.36s1.27.76 2 .78c2.31.05 4.63.05 6.94.05h13l-.91 2.63a2.91 2.91 0 00.07 2.07c.23 1 .08 1-.5 1.81l-1.59 2.32 2.18.12-3.25 4.63 2.07.27-2.07 2.06 3-.14v7.2c.27 0 1.33.06 1.52-.12s0-1.43 0-1.7c0-.65-.14-.71.33-.88a6 6 0 011.74 0l-.13 2.7a6.43 6.43 0 001.64 0c.55-.16.34.14.42-.52a28.53 28.53 0 000-3.46c1 .11 1-.11 1.15.73s-.21 2.06 0 3c0 .2-.05.4.06.5a3.55 3.55 0 001.3 0c.16-.15.1-.79.12-1l.58-10.28 1.79 1.17-.17-2.2c-.08-.89-.19-.87.69-1 0-.24-.43-.75-.55-1a15.79 15.79 0 01-.95-2 14.89 14.89 0 01-.43-4.11c1 .46 1.37.57 1.93 1.53s.13 1.33-.25 2.32l1.55-.65-.19 8.08a16.05 16.05 0 01-.08 3.4 10.2 10.2 0 01-1.8 2.55l1.67-.78.4.92c.7-1.38 1.91-2.88 1.91-4.46v-7.76-1.85c0-.61.17-1.05.25-1.57.05-.31 0-1.36.26-1.58.64-.65 2 .41 2.13-.79.12-.91-1.15-1.24-1.88-1.68l2.07-1.14c-.44-.45-1.24-1-1.52-1.53a6.3 6.3 0 01-.18-1.9c-.06-.64-.21-1.07.11-1.54a10.11 10.11 0 011.71-1.47 6.25 6.25 0 01-1.77-.59c-.29-.26-.26-.68-.33-1.13a6.31 6.31 0 01-.32-2c.13-.44.9-.51 1.09-.91s-.28-.85-.53-1.3a7.63 7.63 0 01-1-2.47c-.12-.75-.09-.59.66-.85l1.8-.63c0-.22-1-.87-1.21-1a42.08 42.08 0 00-2.49-1.91 58.38 58.38 0 00-5.77-3c-1.19-.65-1.77-2.07-2.89-2.71a2.3 2.3 0 00-2.66.41c-2.35 2-4.76 3.94-7.1 5.94a9.71 9.71 0 00-2.1 1.94c-.81 1.33-.86 3-1.73 4.35-.68 1-1.44 2-2.11 3-.43.67-1.28 1.7 0 1.87a3.89 3.89 0 001.32-.37 2.18 2.18 0 012.63.61 5 5 0 00-2.2.07 8.37 8.37 0 00-2.74 1.19c-.79.51-2.58 2.33-3.54 1.57l3.61-2.58c-1.08-.87-2.22.15-3.28.65-.75.35-3.78 1.45-3.53 2.54-2.43-4.16-7.44-7.52-12.05-4.54a12.39 12.39 0 00-2.76 2.55c-.36.43-.88 1.64-1.35 1.92-.27.16-.79 0-1.14-.08l-3-.47-5.71-.9.25 1-5.65-.4c.65-.2 2.12-1 2.78-.88.21 0 .21.4.48.45s1.12-.35 1.49-.46l-7.88-2c-.2 0-.91-.36-1.09-.28s-.56 1.37-.66 1.63c-.27.69-.13.57-.75.63a5.32 5.32 0 01-2-.2c-.24-.23-.17-1.54-.21-1.84l-.48-4.42-1.1-10a13.71 13.71 0 01-.25-2.29c0-.69.51-1.48-.31-1.86.14 0-.4-.18-.47-.09zm69.48 6.73c.57.25 1.35.4 1.7 1s.2 2.13.12 2.8-.19.76 0 1.29a8.3 8.3 0 00.7 1.23c.41-.77.57-1.79 1.54-1.69l-1.18 2.37c-.5 1-.4.59.43 1s.72 1.39.68 2.31.34 3.37-1.18 3.34c.4.42.93.71 1.19 1.24a5.43 5.43 0 01.29 2.09c.06 1.66.22 3.68-1.2 4.87-.82.68-.79.24-1.2-.57l-1.45-2.93 1.54-.77-2-3.87 2-1c-.67-1.35-1.76-2.28-1.53-3.89a13.09 13.09 0 00.63-2.65 8.7 8.7 0 010-2.22 2.19 2.19 0 00.05-.84c-.1-1.42-.03-2.06-1.13-3.11zm-1.75.62c-.23.39-.6.79-.49 1.16s.9.72 1 1.17-.27 1.59-.25 2.22a1.77 1.77 0 00.44 1.21c1.38 2 .41 3.42-.23 5.58-.53 1.76-.2 3.42-.35 5.22-.79-.09-.67-.4-.8-1.14s-.25-1.16-.4-1.74c-.45-1.72.4-3.53-.15-5.37-.18-.6-.19-1.1-.7-1.2a8.24 8.24 0 00-2.47.51 37.73 37.73 0 00-4.73 1.63c-.21-.67-.32-.59.12-.92a10.42 10.42 0 012.34-.87c.84-.31 1.68-.62 2.51-.95.25-.11.51-.23.77-.33s.91-.12 1.19-.27c.46-.26.44-.64.6-1.3.11-.41.56-1.38.45-1.8s-1-.77-.88-1.36 1.55-1.17 2.03-1.45zm-5.86 10c.83 0 .85.77.61 1.47-.29.86-1.1 1.37-.33 2.06a8.78 8.78 0 001.87 1l.47-2c.18-.79.21-.8.95-1.16a4.91 4.91 0 01-.06 2.94c-.47 1.42-1.32 2.62-.94 4.12.11.44.29 1.55-.25 1.8-.87.41-.48-1.37-.71-1.82-.47-.92-1.05-.43-1.88-.49-.45 0-.77-.37-1.17-.53s-.37-.21-1 0c-.9.25-1.35-.13-1.85-1.11a11.09 11.09 0 01-.77-2.83c-.73.3-.74.18-1.29-.38l2.71-2.19a1.59 1.59 0 01-.34 1.57c-.4.6-.29.91-.17 1.71s.43 2.22 1.46 2.31c.48 0 1-.53 1.36-.84.73 1.06.77 1.33 2.06 1.46.71.07.43.16.77-.27a3.94 3.94 0 00.49-1.32c-.09-.2-1.07-.5-1.28-.6a10.57 10.57 0 01-1.82-1 1.47 1.47 0 01-.6-1.88c.2-.64 1.76-1.78 1.76-2.02zm6.15 7.86a12.51 12.51 0 01-.9 4 5.86 5.86 0 01-.54-2.56c-.15-1.13.39-1.01 1.44-1.44zm-4 3.73c.38.75.79 1.22.59 2a2.61 2.61 0 01-1.36 1.84 10.93 10.93 0 010-2.14 8.46 8.46 0 01.77-1.7zm3 3.35c.31.07 1 .09 1.17.3s.13 1.49.12 1.81c-.05 1.08-.9 2.13-.9 3.16-.46-.8-.9-1.29-.81-2.19s.24-2.06.38-3.08zm-3.58 1.92a2.22 2.22 0 01.53 1.39c0 .53-.2 1.49-.68 1.52-.77.06-.5-.75-.5-1.31a1.56 1.56 0 01.61-1.6zm.5 4.12c.23.52.64 1 .32 1.47s-.88.26-1.47.2zm2.18 1.54c1.25.24 1.33.05 1.13 1.29l-.48 3.09c-1-.19-.65-.77-.65-1.72zm-3 2.19c.5.16 1.84.25 1.8 1 0 .35-1.37 1.61-1.72 1.78-.67.34-.73-.16-.77-.81-.06-1.15-.16-1.27.69-1.97z" fill="#ffea0f"/><path d="M234.31 144.56c-1.91.26-3.6 1.68-3.47 3.63a25.81 25.81 0 001.43 6.18c1 3.06 3.06 5.9 4.82 8.57a23.88 23.88 0 012.84 5.13c.21.6.26.25 0 .74a20.46 20.46 0 00-1.29 2.09c-.74 2-1.19 4.82-.06 6.79a7.39 7.39 0 004.22 3.09 27.77 27.77 0 002.88.05c.51.07.75.36 1.18.73l-15.81-.77a38.82 38.82 0 012.06-6.54c.16 1 .05 3.4 1 4 1.79 1.15 1.32-4.83 1.32-5.54 0-2.6.17-5.23 0-7.84-.1-1.91-1.12-2.3-2.76-2.4-.48 0-2.35.15-2.69-.17s0-1.12-.72-1.61c-1.79-1.31-5-1.13-7-1.26a51.47 51.47 0 00-7.65.39c-3.11.26-6.2.09-9.3.56a20 20 0 01-3.79.69c-.6 0-1-.57-1.51-1-1-.78-.85-1-1.81-.28a3.4 3.4 0 01-2.23.55 7.77 7.77 0 01.45 2.54 37.43 37.43 0 01-.94 4.45c-.35 1.47-.18 2.64 1.41 3.43a3.72 3.72 0 002.22.34c.43-.18.89-.87 1.22-1.19-.74 2.13 1.71 2.53 3.22 2.3.51-.08 1.5-.44 1.87-.19s.9 2.09 1.14 2.65a7.59 7.59 0 01.41 5.48c-.23.58-.36.41-1.11.6-.32.08-1.57.27-1.68.74-.39 1.68 10.5 1.48 11.5 1.48 5 0 10.11-.22 15.14-.58 9-.66 18.15.12 27.19.62 3.71.2 7.44.14 11.16.26 3.18.1 6.34.51 9.5.82a27.45 27.45 0 005.18.43c1-.1 1.52-.62.51-1a8.71 8.71 0 00-3.75-.75c-.4 0-4.78.2-4.78.13 2.58.12 5.3-1.84 6.65-3.91a5.71 5.71 0 00.8-3.14 19.85 19.85 0 00-.12-2.54 35 35 0 004.91.2 4.3 4.3 0 002.88-.52c.69-.46 1.29-1 2-1.47l-4.25-.4.65-2.43.25 2.18c.31-.08 1.14-.14 1.36-.37s0-.37 0-.57a20.73 20.73 0 00-.07-3.34c0-.44.24-1.77-.33-2-.36-.11-1.34 1.28-1.65 1.62.19.1.34.27.52.37l-.77.53-.89-1.55L286 169h.91c-.1.49-.14 1.67-.48 1.93s-2 0-2.48 0c.12-2.55 0-5.1.9-7.53a45 45 0 013.47-7.49c.86-1.5 3.72-4.09 2.56-6-.5-.8-2.16-1-3-1.14-1.88-.31-3.66.53-5.5.14a6.9 6.9 0 00-4.07.22 5.91 5.91 0 01-2.46.72c-2 0-3.5-1.37-5.49-1.24-1.71.12-3.25.93-4.93.17-.85-.37-1.43-1-2.39-1.18a4.29 4.29 0 00-2.06.3 4.21 4.21 0 01-3 .28c-1.32-.38-2-1-3.46-.92s-3 .59-4.43 0-2.06-1.13-3.63-1-3.33.72-5 .89-2.71-.39-4.07-1.45a4.16 4.16 0 00-3.08-1.14zm-35.08 20.69c.05 0 .3 1.6-.69 1.39s.13-1.28.69-1.39zm4.77 1.29a1.27 1.27 0 01.58.1c-.08.33-.46 1.38-1 1.25-.58-.15-.09-1.27.42-1.35zm77.6 1.15l.27 3.45a4.63 4.63 0 00-3.87-2.32c-2.29-.23-4.7-.41-6.59 1.13-.63.51-1 1.2-1.59 1.75-.2.19-.59.9-.95.22-.13-.25.33-1.41.39-1.67l.38-1.67-17.08.52a9.15 9.15 0 014 3c.47.67 1.84 2.15 1 2.88l6.56.12a7.54 7.54 0 00-.16 3 9.28 9.28 0 001.7 3H254.6c.34 0 1.35-1.64 1.54-1.91a6.84 6.84 0 001.12-2.73 4.6 4.6 0 00.29-1.35c-.05-.33-.43-.71-.58-1a7.91 7.91 0 00-2.52-3.18c-1.42-1-3.59-1.08-5.25-1.29a7.08 7.08 0 01-3.35-1l31.37-.78zm-20.83 1.54a2 2 0 01.52 1.4c0 .79-.12.66-.9.79a4.16 4.16 0 01.38-2.19zm15.43.64c.57.55.6.46.53 1.12a12.7 12.7 0 01-.4 1.7c-.75-.03-.18-2.25-.13-2.82zm-67.39.13a5.18 5.18 0 01.63 1.6 15.23 15.23 0 01-.21 2.61l-.42 5.23c-.28-1.65-.58-3.29-1-4.92a22 22 0 00-1.6-3.63zm33.44 0l2.58.5c-.53.44-1.06 1.13-1.66 1a4.47 4.47 0 01-1.2-.69c-.1-.21.13-.51.28-.81zm24.18 0c.75.21.79 0 .79.68a7.49 7.49 0 01-.41 1.63 4.14 4.14 0 01-.38-2.31zm8.36 0l.26 1.6c.12.76.31.8-.45 1s-.59.12-.81-.55l-.54-1.64zm-2.84.64c.24.48 1 1.48.82 2-.27.68-1.31-.18-1.84-.42zm-23.39.13c.73.08 1-.1 1.1.51a7.56 7.56 0 01-.21 2.05c-.33-.29-1.43-.91-1.54-1.31s.38-.85.65-1.25zm29.71 0c.28.34.6.56.53.92a4.78 4.78 0 01-.91 1.25c-1.05.2.22-1.83.38-2.17zm-26.75.25c.32.29 1.06.76 1.1 1.14a4 4 0 01-.81 1.69c-1.41.74-.39-2.43-.29-2.85zm-25.09.65a5.84 5.84 0 00.4 1.79 6.19 6.19 0 001.7 1c.38.22.86.37.95.74a6.9 6.9 0 01-.48 2.2 16.14 16.14 0 01-.52 2.41c-.22.58 0 .35-.5.51a18.12 18.12 0 01-4.11.12zm14.42.39l2.31.77c-.26.8-2.11-.11-2.71-.27.14-.16.26-.35.4-.5zm18.9 0l2.34.09c.92 0 1-.11 1.14.81h-2.36c-1 .04-.98.12-1.12-.9zm-12.86.77a4.44 4.44 0 01.85.76c.29.46.23 0 .11.57-.23 1-1 .66-1.73.59zm23.79.13c.62.39 1.65.76 1.84 1.47.25.95-1 .95-1.71 1.21zm-59 .37l1.75 1.39c.34.26 1.17.7 1.34 1.1a8 8 0 010 2.35v2.12L212 180c-1-.1-1 .08-.89-.84zm68.42.13c-.08.58 0 .71-.41 1a5 5 0 01-1.51.42l-.18-1.28zm-27 .14c.79 0 .76-.08.82.71 0 .23.18.85.06 1s0 0-.39.2-1.29.25-1.35-.43c-.07-.4.57-1.08.82-1.48zm-13 .25l2.58.52-2.58.38zm35.62.5c.8-.31 1.1 1.26.55 1.67-1.04.73-1.65-1.26-.59-1.67zm-52.2.15c-.73 1.76-1.42 3.55-2.19 5.3-.32.73-.29.62-1.15.66-1.12 0-1.82.45-2.27-.66a8.3 8.3 0 01-.36-3.44c0-.65-.18-1.49.3-1.74.72-.37 2.45-.05 3.26-.07zm26.18.87c.64-.21 1.06.83.34 1.06a.56.56 0 01-.38-1.06zm-6.64.4c.13.32.26.49.15.71s-1.09.58-1.32.7c-.95.51-.83.28-1.4-.62zm35.25 0l1.27.15a.64.64 0 11-1.31-.15zm-32.29.15c.61 0 1.75-.27 2 .27.29.69-.65 1.31-1.07 1.77zm21 .25h.8c-.13.86-.11 1-.8 1.54zm5.55.12c.2.63.27.56-.06 1a6.05 6.05 0 01-1.36 1l-.52-1.54zm-20.19.27l1.79.38c-.15.41-.2.88-.55 1a4.58 4.58 0 01-1.49-.34zm24.81.65c.17.47.82 1.58.72 2s-.94.57-1.37.76c-.06-.64-.15-1.29-.18-1.93-.14-.75-.09-.6.74-.83zm-33.44.12c.71.68.36.91 0 1.79l-1.27-.52zm7.21.65c.7-.06.87.21.9 1s-.05.52-.77.82zm-1.79.12c.5.38 1.38.75.93 1.53-.27.46-1.08.19-1.7.14zm24 .77l-.12 1.55-.92-.4zm1.42.52c.52.21 1 .56.64 1.27-.2.41-.58.26-1.16.26z" fill="#ffea0f"/><path d="M236.47 156.24c-.95-1.72-3.06-5-1.36-6.85 1.21-1.36 2.95 1.2 3.53 2.14.77 1.26.41 2.39.4 3.8m1.93-6.17c1.45 3.68 3.29 7.35 3.73 11.32m2.7-.65l-.77-7.45m9 9.38l.39-6.68m7.84 3.73l.38-4.12m6.56 5.79l.78-6.56m6.81 7.72l2.06-6m-34.47 6a12.42 12.42 0 013 .86c.71.31 1.22.44 1.38 1.22a10.46 10.46 0 010 1.77m0-1.92c.23-1.62 2.37-1.37 3.54-1.17 1.75.3 1.57 2 1.6 3.48m1.67-.12c-.18-1.13 0-2.45 1.27-2.7a6.94 6.94 0 013.47.36c.93.45.79 1.55.92 2.46m5 0s0-2.83 1.93-2.7m6.42-.77c-1.89.33-2.85 1.43-1.92 3.35m3.72-.27a5.18 5.18 0 011-2 4.94 4.94 0 012.64-1m-41.54.25l2.31-1" fill="none" stroke="#002a86" stroke-linecap="round" stroke-width=".77"/><path d="M285.34 175.4h1.41m1.54-.13l7.33-1.55m-9.9 4l1.93-.14m-4.37 1.93l4-.77m.13 1.67s3.6.9 4.25.51" fill="none" stroke="#ffea0f" stroke-linecap="round" stroke-width=".77"/><path d="M240.71 164.1l2.31-1m-2 2.17l2.32-1m-1.54 2.19l2.31-1m-1.93 2.18l2.32-1M202.39 163.05c1.49-.39 3-.78 4.51-1a5.39 5.39 0 012.83.31c1.1.35 2-.13 3.1-.41 2.66-.69 5.89.06 8.59.36m8 .26l-1.68.12m-16.59 1.42c-1.85.77-.23 1.71-.6 3.09-.13.5-.95 1-.84 1.53s1.22.8 1.7.9m.9-2c-.35-1.77.59-2.38 2.31-2.19m1.94 3.09l1.54 4.37" fill="none" stroke="#002a86" stroke-linecap="round" stroke-width=".77"/><path d="M191.7 121a2.25 2.25 0 00-.9.19c-.11.1-.13.5-.26.65a7.21 7.21 0 01-2 1l1.36.09c.7.05.69-.1.82.44.26 1-1.12 1.35-1.63 2a8.59 8.59 0 00-1.42 5.13c0 .8-.18.83-.79 1.38l-2.71 2.52c-.34.31-1.94 1.38-2 1.85 0 .28.58.81.79 1.05l4.73 5.5c.85 1 1 .85 2.33.88l14.18.3a7.43 7.43 0 002.35 0c.61-.23.44-1.1.72-1.76s1.13-1.25 1.34-2a14.6 14.6 0 00.12-3.31c.2.08.44.08.65.14l.12-.66h-1.52c-.29 0-1.56-.2-1.79 0a3.46 3.46 0 00-.33 1.44c.05.61.23.47.94.64a6 6 0 01-.88 1.39 4.87 4.87 0 01-1.44.4l.2-3.67.13-2.41c0-.26-.08-1 .07-1.25.26-.39 1.45-.12 1.74-.49a1.69 1.69 0 00-.17-1.19c-.29-.25-1.78-.11-2.16-.13l-1.72-.11.25 9.38c-.75 0-3 .22-3.34-.32a7.15 7.15 0 01-.08-2.27l-.06-1.91 2.06.25v-5.66c0-1-.12-.78-1.09-.91-.48-.07-.66 0-.83-.33a4.47 4.47 0 010-1.46l1.52.22-.06-1.8c0-.33.16-1.81-.07-2s-1 .06-1.32-.34 0-.88-.18-1.22c-.24-.5.11-.21-.39-.38-1.81-.65-.94 1.75-1.34 2.69-.22.52-.92.92-1.26 1.38a3.33 3.33 0 00-.53 1.45c.41 0 1.53 0 1.81.25s.11 1.05.11 1.43l-3.59-.27v2.8c0 1.12 0 .93-1.16.93l.09-5a3.87 3.87 0 01.1-1.45c.3-.55 1.48-1.09 2-1.47-.65-.14-2.54-.21-3-.68-.23-.26-.2-1.26-.26-1.59zm-1.14 12.6l.52 7.07c-.56 0-1.35.09-1.54-.35a8.69 8.69 0 01.05-2.64l.06-3.13c.01-.91-.06-.81.91-.95zM188 135v5a5.81 5.81 0 01-1.21-1.1c-.21-.38-.1-.47 0-1s.42-2.85 1.21-2.9zm8.1 0c.3 0 1.38-.06 1.54.14s0 1.47 0 1.74v2.62c0 .2.13 1.14 0 1.27s-1.45 0-1.72 0h-2.65c-.55 0-.83.14-1-.24a6.64 6.64 0 010-2.18l.77.11a4.26 4.26 0 01-.13.64c.72 0 2.66.2 3-.32a6.4 6.4 0 00.13-2.06zm-11 1.27l-.15 1.17-.77-.77z" fill="#ffea0f"/><path d="M273.63 139.64l7.85-3.22m-8.75 2.19c9.39-5 18.86-9.77 28.36-14.54l5.59-2.81m-1-3.22l-33.18 19.42m28.8-23.67l-29.7 22.38m17-23.91L273 133.42l-2.21 3 22.61-22 3.24-3.17m-14.4 4.5l-13.12 20.2m6.05-20.32l-7.46 19.16m3.6-19.42l-4.38 19.42m.14-19.3l-1.68 18.79M263 115.46l.64 18.79m-6-18.65l4.5 18.26m-13.12-18.4l11.7 18.65-7.58-18.51m-9.65-.14L259 135.27m-20.45-19.93l19.17 21.34m-24.57-21.34l23.54 21.86m-31.51-21.86l31.25 21.22m-39.22-21.34l38.7 22.24m-63.81-26.75l63.14 27.52m-68-24.56l66.36 26.75M184 118.17l69.18 23.41m-70.85-19.94l64.17 18.26m-65.2-13.25l6.81 1.67m26.75 5.93l13.63 4.11m-48.61 4.24l8.36.26m18.14 0l7.84.52" fill="none" stroke="#ffea0f" stroke-width="1.54"/><path d="M187 145.3c-1.51-1.17-2.55-.77-4.25-.25a5.17 5.17 0 004.25.25M187 148c-1.51-1.17-2.55-.78-4.25-.26a5.18 5.18 0 004.25.26" fill="#ffea0f" stroke="#ffea0f" stroke-width=".67"/><path d="M190.82 148c-1.51-1.17-2.55-.77-4.25-.25a5.18 5.18 0 004.25.25M188 150.32c-1.5-1.18-2.54-.77-4.24-.26a5.12 5.12 0 004.24.26" fill="#ffea0f" stroke="#ffea0f" stroke-width=".67"/><path d="M190.83 146.72c-1.51-1.17-2.54-.78-4.24-.26a5.11 5.11 0 004.24.26M195.32 146.33c-1.51-1.17-2.55-.78-4.25-.25a5.13 5.13 0 004.25.25M195.32 148.52c-1.52-1.18-2.54-.78-4.25-.26a5.14 5.14 0 004.25.26M199.94 146.26a3 3 0 00-2-.88 10.25 10.25 0 00-2.21.62 5.19 5.19 0 004.24.26M194.83 150.09a3.07 3.07 0 00-2-.87 10.74 10.74 0 00-2.2.61 5.12 5.12 0 004.24.26M200 150.6c-1.51-1.16-2.54-.77-4.24-.24a5.15 5.15 0 004.24.24M198.27 152.9a3.05 3.05 0 00-2-.88 10.74 10.74 0 00-2.2.61 5.15 5.15 0 004.24.27M202 147.63c-1.51-1.16-2.55-.77-4.24-.25a5.11 5.11 0 004.24.25M205 148.52c-1.51-1.18-2.54-.78-4.24-.26a5.11 5.11 0 004.24.26M207.14 147.1c-1.5-1.16-2.54-.77-4.24-.25a5.11 5.11 0 004.24.25M212.8 145.82c-1.5-1.18-2.54-.77-4.24-.26a5.12 5.12 0 004.24.26M212.16 148c-1.51-1.17-2.55-.77-4.24-.25a5.15 5.15 0 004.24.25M216.79 148.13c-1.51-1.17-2.54-.77-4.24-.25a5.15 5.15 0 004.24.25M209.08 151.22a3.11 3.11 0 00-2.05-.87 10.92 10.92 0 00-2.2.61 5.14 5.14 0 004.25.26M213.06 152.5c-1.51-1.17-2.55-.77-4.24-.25a5.11 5.11 0 004.24.25M219.43 152.08a3.05 3.05 0 00-2-.88 10.83 10.83 0 00-2.21.61 5.18 5.18 0 004.25.27" fill="#ffea0f" stroke="#ffea0f" stroke-width=".67"/><path d="M190 173.72l7.46.39-1.8 1.29a16.22 16.22 0 012.5-1.55 5.38 5.38 0 011.8-.18l6.24-.21" fill="#ffea0f" stroke="#ffea0f" stroke-width="1.54"/><path d="M203.79 176.81c-1.51-1.17-2.55-.77-4.25-.26a5.14 5.14 0 004.25.26M204.58 178.61a3.11 3.11 0 00-2.05-.87 10.33 10.33 0 00-2.2.62 5.18 5.18 0 004.25.25M199.94 180.67c-1.5-1.17-2.54-.78-4.24-.26a5.12 5.12 0 004.24.26M205.86 186.2a3.1 3.1 0 00-2-.88 11.45 11.45 0 00-2.2.62 5.11 5.11 0 004.24.26" fill="#ffea0f" stroke="#ffea0f" stroke-width=".67"/><path d="M213.74 190.67c2.69-.53 5.4-1.21 7.88.34.49.31.62.45.59 1a9.55 9.55 0 01-.25 1.7c-.33 1.21-2.08 1.48-3.12 1.69s-3.44.89-4.55.22-.7-2.13-.61-3.08c.11-1.25.54-3 0-4.18-.36-.86-1.18-.81-2-.8a16.48 16.48 0 00-7.75 2.21 14.23 14.23 0 013.15 1.63c.38.36.26.07.24.69a13.65 13.65 0 01-.3 1.79l6.3-.77" fill="none" stroke="#ffea0f" stroke-linecap="round" stroke-width="1.54"/><path d="M284.6 191.44a23.45 23.45 0 00-4.61-2.95c-1.37-.63-5.05-1.78-5.95.1-.54 1.15.08 2.93.32 4.09.06.3.17 1.7.45 1.88a3.74 3.74 0 00.81-.1 14 14 0 012.24-.05 5.85 5.85 0 012.62.76c.07-.76-.09-2.6.46-3a6.18 6.18 0 012-.4zm-65.6-5.66a4.8 4.8 0 00.43 3.37c1.08 1.82 3.29 1.8 5.16 1.75 3.54-.1 7.08-.1 10.62-.11q14.31-.06 28.62 0c1.73 0 3.78.33 5.47-.08 2.18-.51 2.35-2.33 2.32-4.23 0-1.74-1.2-2.34-2.79-2.69-4.12-.9-8.74-.59-12.94-.65-5.33-.08-10.65-.11-16-.14h-13.48c-1.74 0-4.2-.35-5.85.32a2.37 2.37 0 00-1.56 2.46z" fill="none" stroke="#ffea0f" stroke-width="1.54"/><path d="M268.1 191.08a4.28 4.28 0 003.22 4.29c1.5.45 3.52.62 4.76-.55m-2.45-5.41l-2.18.51" fill="none" stroke="#ffea0f" stroke-linecap="round" stroke-width="1.54"/><path d="M239.23 191.39l1.66 2.82-1.72-.74c-.26-.11-.74-.45-1-.44s0-.11-.4.18c-1.33 1 .6 2.07 1.33 2.81l-1.47-.24c-.32-.05-1.41-.42-1.72-.28-.48.21-1 2.19-1.29 2.71l5.36.87c.73.12.8-.06.88.54a14.09 14.09 0 01-.47 3.25c-.12.81 0 .78-.66.81a24.38 24.38 0 01-3.29-.3c-.42 0-1.64.08-2-.18s-.63-1.79-.79-2.23a12.58 12.58 0 00-1.14-3.24c-.42-.53-1.3-.14-2 0l1.29 5.66-7.34-.14 1.35 4.53a7.82 7.82 0 00.66 2.22c.29.38.94.21 1.47.21l-1.16-4.9 4.67.32c.42 0 .9 0 1.15.21s.48 1.78.61 2.3l-3.48-.77c.06.51 0 1.83.27 2.19s1.62.51 2 .64c1.16.37 3.68.62 4.26 1.69.39.72.33 2 .87 2.62s1.71.64 2.31.79a29.35 29.35 0 008.52.59q3.21-.14 6.42-.41c-.09-.64-.64-2.29-.37-2.85s1.62-.92 2-1.1a4.93 4.93 0 002-1.45 31.76 31.76 0 002.24-4c.46-.79 1.25-.89 2.13-1.24l-2.19-.9 1.45-2.09c.4-.59 1.09-2.14 1.72-2.5a6 6 0 012-.1c.88 0 2.53.29 3.32-.07.42-.19.16.12.27-.52.07-.36.08-.65-.14-.78-.65-.37-2.36-.05-3.09-.07a11.37 11.37 0 00-2.67-.05 9.78 9.78 0 00-2.2 1.41 10.35 10.35 0 011.25-2.17c.38-.37.82-.31 1.41-.37 1-.11 2-.15 3-.32.8-.15.63-.19.74-1.09l-3-.07c-.71 0-2.27-.37-2.94-.08-.41.18-.87 1-1.15 1.37l-2.45 3-2.36 2.86c-.46.55-.6.94-1.23 1-1.36.11-1.31-.27-1.24-1.34l.18-3.24 2.06.52-.89-1.29 1.66-.5c-.23-.2-.82-.56-.87-.82s.6-1.1.75-1.37l-3.86-.77 1.8-2.06a6 6 0 00-1.21-.71c-.56-.14-.17-.16-.7.12a14.41 14.41 0 00-2.2 1.88l.63-2.19h-3.79c-.33 0-.8-.09-1 .11s-.18 1.43-.23 1.83a8.25 8.25 0 00-.61-1.64c-.35-.52-.21-.43-1-.43-.28 0-1.2-.13-1.36.06s-.1 1.38-.13 1.74c-.17-.45-.37-1.44-.74-1.68s-1.63-.1-2.14-.13zm-.53 14c.17.83.37 1.05-.15 1.64a22 22 0 01-1.91 1.69l-1.29-3.21z" fill="#ffea0f"/><path d="M240.24 210.17l-1.41 2.05m5.4 1.42l.77-1.42m3 1.93l.39-1.41m-5.53-9.14h5.78m3.48 2.32l-3.12 4.63h4.24" fill="none" stroke="#002a86" stroke-linecap="round" stroke-width="1.54"/><path d="M225.94 185.7c-.39 0-2.23.26-1.49-.78.19-.27 1.52-.09 1.92-.09s2.14-.27 2.45 0c.1.08 0 .83 0 .87-.26.21-1-.17-1.29 0s-.19 1.25-.19 1.79a5.38 5.38 0 010 1.5c-.19.45.17.14-.43.29-1.07.27-.93-.19-.93-1v-2.58" fill="#ffea0f" stroke="#ffea0f" stroke-width=".67"/><path d="M229.36 189.28v-2.64a5.24 5.24 0 010-1.48c.16-.45-.13-.19.43-.33 1.69-.41.37.93.93 1.65.16.2.62.12 1 .12.69 0 .53.12.69-.39.1-.29-.2-1.1 0-1.33a2.54 2.54 0 011.14 0c.44.24.21 1.48.21 2.09 0 .43.23 2.09-.06 2.36a3.81 3.81 0 01-1.26 0c-.2-.2 0-1 0-1.31-.13-.62.07-.51-.7-.51-.61 0-.78-.14-1 .29s.24 1.31 0 1.53-1.08 0-1.35 0M234.66 189.28v-2.64a5.24 5.24 0 010-1.48c.18-.5-.18-.13.3-.33a8.4 8.4 0 013.2 0c.22.11.45.25.23.67s-.46.2-.92.2c-.26 0-1.23-.17-1.42 0a1.57 1.57 0 000 .91c.51.43 2.48-.7 2.15.56-.24.88-1.6-.2-2.17.3a2.53 2.53 0 000 .95c.14.15 1.12 0 1.33 0 .46 0 .88-.13 1 .19.33.63-.09.57-.39.67a12.87 12.87 0 01-3.34 0M246.14 184.83c0 .89.08 1.81 0 2.7-.12 1.47-1.33 1.95-2.7 1.83s-1.95-.93-2-2.26c0-.59-.24-2 .21-2.27a3.08 3.08 0 011.14 0c.15.16 0 1 0 1.2 0 .84-.25 3 1.33 2.4.95-.33.64-1.89.64-2.67 0-1.21.14-1 1.35-1M247.07 184.83a6.78 6.78 0 011.56 0c.5.14.21 0 .56.43a17.92 17.92 0 011.42 2.88c.07-.78-.34-3 .26-3.31 1.6-.77 1 2.41 1 3.17 0 .36.13 1.11-.1 1.28a4.69 4.69 0 01-1.79 0c-.37-.26-.68-1.4-.87-1.8s-.51-1.09-.78-1.59v2.49c0 .12.1.83 0 .92a4.5 4.5 0 01-1.16 0c-.25-.18-.07-1.61-.07-1.94v-2.51M252.71 189.28c.24 0 1.24.15 1.39 0s0-1 0-1.15c0-.52.35-2.94 0-3.29a4.63 4.63 0 00-1.39 0c-.12.12 0 1 0 1.15zM254.84 187.06c0-3.1 5.07-3.09 5.07 0s-5.07 3.1-5.07 0zm2.54-1.46c-1.52 0-1.55 2.92 0 2.91s1.51-2.91 0-2.91M260.64 184.83a6.69 6.69 0 011.55 0c.5.14.22 0 .56.43a17.17 17.17 0 011.43 2.88c.07-.78-.34-3 .26-3.31 1.6-.77 1 2.41 1 3.17 0 .36.12 1.11-.11 1.28a4.64 4.64 0 01-1.78 0c-.37-.26-.69-1.4-.88-1.8s-.51-1.09-.79-1.59v2.49c0 .12.11.83 0 .92a4.43 4.43 0 01-1.15 0c-.25-.18-.07-1.61-.07-1.94v-2.51M172.46 139.9c.35.54.77 1.67 1.29 2a6.23 6.23 0 002.06.29c-.37.49-1.21 1.23-1.37 1.81a7.77 7.77 0 00.34 2.3 7.83 7.83 0 00-2.1-1 8 8 0 00-2.28.77 6 6 0 00.51-2.06c-.14-.57-1-1.33-1.41-1.8.51-.07 1.69 0 2.09-.26s.67-1.57.87-2M172.42 130.9c.34.54.76 1.63 1.27 2a5.58 5.58 0 002.08.34c-.37.49-1.21 1.22-1.37 1.81a7.66 7.66 0 00.34 2.29 7.8 7.8 0 00-2.1-1 7.92 7.92 0 00-2.27.77c.13-.53.62-1.55.5-2.06s-1-1.33-1.4-1.8c.51-.07 1.69 0 2.09-.26s.66-1.57.86-2.06M175.13 120.87a7.89 7.89 0 001 2.13 5.92 5.92 0 002 .58c-.43.44-1.36 1.07-1.58 1.63a8 8 0 000 2.33 7.68 7.68 0 00-1.95-1.27 7.92 7.92 0 00-2.35.47c.19-.5.8-1.46.75-2s-.87-1.45-1.17-2c.51 0 1.67.25 2.1 0s.85-1.49 1.11-2M178.37 111.62a7.37 7.37 0 001 2.17c.39.35 1.48.4 2 .53-.43.45-1.35 1.08-1.57 1.64a7.26 7.26 0 000 2.32c-.54-.34-1.35-1.14-2-1.26a7.94 7.94 0 00-2.35.48c.19-.51.81-1.47.75-2s-.86-1.44-1.17-2c.51 0 1.67.25 2.1 0s.86-1.48 1.12-1.94M173.09 148.53c.34.53.77 1.63 1.29 2a5.41 5.41 0 002.08.29c-.36.5-1.19 1.25-1.34 1.84a7.72 7.72 0 00.37 2.29 8.08 8.08 0 00-2.11-1 8.15 8.15 0 00-2.26.8c.12-.52.6-1.56.47-2.06s-1.06-1.32-1.43-1.78c.51-.07 1.7 0 2.09-.29s.64-1.58.84-2.07M174.19 157.79c.36.54.79 1.67 1.32 2a6 6 0 002.06.27c-.37.5-1.2 1.24-1.34 1.83a7.39 7.39 0 00.36 2.29 7.58 7.58 0 00-2.1-1 7.71 7.71 0 00-2.27.8 6.6 6.6 0 00.48-2.07c-.15-.57-1.06-1.31-1.43-1.78.49-.06 1.73 0 2.09-.3s.63-1.55.83-2.06M177.26 166.29c.37.52.85 1.58 1.38 1.91a5.76 5.76 0 002.1.2c-.34.52-1.14 1.31-1.26 1.9a7.75 7.75 0 00.48 2.27 8.1 8.1 0 00-2.15-.89 8.16 8.16 0 00-2.23.9 6.24 6.24 0 00.38-2.08c-.18-.56-1.12-1.27-1.52-1.72.49-.08 1.74-.07 2.08-.39s.56-1.58.74-2.1M180.26 174.05c.37.51.85 1.59 1.38 1.91a5.56 5.56 0 002.1.19c-.34.52-1.14 1.31-1.26 1.91a7.62 7.62 0 00.48 2.26 7.75 7.75 0 00-2.15-.88 8.16 8.16 0 00-2.23.9 6.29 6.29 0 00.38-2.09c-.18-.56-1.12-1.26-1.52-1.71.51-.09 1.69-.06 2.07-.38s.57-1.61.75-2.11M184.88 182.15c.38.52.86 1.59 1.39 1.91a5.71 5.71 0 002.09.2c-.34.51-1.13 1.3-1.24 1.89a7.36 7.36 0 00.47 2.27 8.06 8.06 0 00-2.15-.88 8.16 8.16 0 00-2.23.9 6.24 6.24 0 00.38-2.08c-.17-.56-1.12-1.27-1.51-1.72.5-.09 1.69-.06 2.06-.38s.57-1.61.74-2.11M189.9 189.87c.37.51.85 1.59 1.38 1.91a5.56 5.56 0 002.1.19c-.34.52-1.13 1.31-1.25 1.9a7.68 7.68 0 00.48 2.27 7.68 7.68 0 00-2.16-.88 7.88 7.88 0 00-2.22.89c.1-.53.53-1.58.37-2.08s-1.11-1.26-1.51-1.71c.51-.09 1.69-.06 2.07-.38s.57-1.61.74-2.11M195.56 196.82c.37.51.85 1.58 1.38 1.9a5.55 5.55 0 002.1.2c-.34.52-1.14 1.3-1.25 1.9a7.8 7.8 0 00.47 2.27 7.49 7.49 0 00-2.15-.89 8.29 8.29 0 00-2.23.9 6.29 6.29 0 00.38-2.09c-.17-.56-1.12-1.25-1.51-1.7.5-.1 1.69-.07 2.07-.39s.56-1.61.74-2.1M202.63 203.37c.37.52.85 1.59 1.38 1.91a5.76 5.76 0 002.1.2 7.56 7.56 0 00-1.25 1.89 7.68 7.68 0 00.48 2.27 7.68 7.68 0 00-2.16-.88 8.1 8.1 0 00-2.22.9 6.24 6.24 0 00.38-2.08c-.18-.56-1.12-1.27-1.52-1.72.51-.09 1.69-.06 2.07-.38s.57-1.61.74-2.11M210.61 208.37c.34.55.73 1.69 1.24 2.06a6.21 6.21 0 002.05.33c-.38.49-1.24 1.2-1.4 1.78a7.73 7.73 0 00.28 2.31 7.85 7.85 0 00-2.07-1.07 7.9 7.9 0 00-2.29.72c.14-.52.65-1.54.54-2.05s-1-1.35-1.36-1.83c.51-.05 1.69.07 2.1-.21s.7-1.56.91-2M217.74 213.57c.34.55.73 1.69 1.25 2.05a6.12 6.12 0 002 .34c-.39.48-1.24 1.2-1.41 1.78a7.68 7.68 0 00.29 2.3 8 8 0 00-2.08-1.06 7.87 7.87 0 00-2.29.71c.14-.52.66-1.54.55-2.05s-1-1.34-1.36-1.82c.51-.06 1.68.07 2.09-.22s.7-1.55.91-2M225.84 218.2c.33.54.72 1.65 1.22 2a5.58 5.58 0 002.08.37c-.39.49-1.24 1.21-1.41 1.79a7.75 7.75 0 00.29 2.31 7.61 7.61 0 00-2.08-1.07 8 8 0 00-2.29.71c.15-.52.66-1.53.55-2s-1-1.36-1.36-1.84c.51-.05 1.69.08 2.09-.2s.7-1.56.91-2M235.49 221a7.93 7.93 0 001.22 2 5.53 5.53 0 002.07.37c-.38.49-1.24 1.21-1.4 1.79a7.33 7.33 0 00.28 2.3 8 8 0 00-2.07-1.06 7.87 7.87 0 00-2.29.71c.14-.52.65-1.53.54-2.05s-1-1.35-1.36-1.83c.51-.05 1.69.08 2.1-.2s.69-1.56.9-2M245.39 222.82c.33.56.73 1.71 1.24 2.07a6.21 6.21 0 002.05.33c-.38.48-1.24 1.2-1.4 1.78a7.67 7.67 0 00.28 2.3 7.81 7.81 0 00-2.07-1.06 7.87 7.87 0 00-2.29.71c.14-.52.66-1.54.55-2s-1-1.35-1.37-1.82c.5-.05 1.73.06 2.1-.23s.69-1.53.91-2M194.9 273.24h6.1a8 8 0 001.95 0c.53-.16.37 0 .39-.65V245.6c0-.33.21-1.61 0-1.88s-1.67-.08-2.09-.08h-5.09c-.68 0-1-.19-1.22.27a7.52 7.52 0 000 2.32v27zM220.5 258.45c-3.83-.54-5.07-3.76-4.84-7.29.23-3.71 2.75-6 6.26-6.77 3-.64 7-.63 9.72 1 3 1.84 3.44 5.78 2.82 9a4.83 4.83 0 01-2.52 3.69c-.54.25-1.93.28-1.07.67a25.37 25.37 0 012.41.82c3.12 1.79 4.24 6.09 3.52 9.45s-3.56 4.75-6.61 5.29a23.72 23.72 0 01-10-.16c-4-1.09-6.79-4-6.57-8.31a7.65 7.65 0 012.19-5.2 7.22 7.22 0 012.31-1.45c.45-.19 2.24-.42 2.38-.74zm9.38 6.7c0-5.38-9.08-5.38-9.08 0s9.08 5.39 9.08 0zm-8.49-12.77c0 4.83 7.89 4.82 7.89 0s-7.89-4.83-7.89 0M248 265.42c3 2 9.57 3.89 9.24-1.76-.11-1.91-.89-4.24-3.13-4-1.26.14-4.59.48-4.82 2.16l-1.68-.66a10.15 10.15 0 01-2.68-1c-.45-.43-.06-1.24.08-1.94l2.09-10.89c.08-.41.14-2.16.47-2.42s2.41 0 2.88 0h11.36a6.56 6.56 0 011.77 0c.55.18.2-.19.38.41a11.26 11.26 0 010 2.9v2.2l-8.48-.15a5.32 5.32 0 00-1.59 0c-.35.17-.11 0-.33.45a22.41 22.41 0 00-.93 4.18c.3-.91 2.94-.27 3.6-.26a10.23 10.23 0 015.94 1.74c3.42 2.51 4 7.35 2.79 11.18-2.38 7.78-13.1 8.2-19 4.33-.56-.37-.43-.09-.37-.66a8.74 8.74 0 01.86-2.06l1.55-3.72M278.65 267.73c0 .83 2 .62 2.5.64s.85.13 1.29.19c.89.12 1.33-.27 2.19-.53 2.76-.82 4.42-2.34 4.56-5.44-2.09 2.63-6.83 2.07-9.48.6-3.16-1.77-4.65-5.32-4.66-8.83 0-3 .78-6.18 3.21-8.13s5.89-2.44 8.86-2.13c7.08.74 9.76 7.81 10 14.07.17 3.94-.51 8.25-2.75 11.6-2.1 3.16-6.1 4.57-9.72 4.9a19.77 19.77 0 01-6.55-.43c-.46-.11-1.66-.3-1.76-.71-.06-.25.36-.92.45-1.16l.76-1.93zm6.68-18.18a4.32 4.32 0 00-4.58 4.62 4.21 4.21 0 004.58 4.2 4.49 4.49 0 004.58-4.41 4.27 4.27 0 00-4.58-4.41M91.92 45.32L88.59 48c-.15.13-.73.75-.93.74s-.5-.45-.59-.52a10 10 0 00-1.52-1c-1.56-.86-3.84-1.17-5 .53-1.39 2.07 1.19 4.09 2.68 5.11 4.2 2.86 7.15 7.53 6 12.79a8.16 8.16 0 01-4.72 5.67c-2.69 1.15-5.86.6-8.57-.23a27.63 27.63 0 01-3.6-1.4A7.7 7.7 0 0170 68.44c-.32-.38-.22 0-.1-.47a9.15 9.15 0 011.26-2l1.37-2.21c.12-.18.47-1 .67-1s1.08.46 1.28.54l2.64 1.13a8 8 0 002.69 1c1.75 0 2.52-1.76 2.25-3.26-.38-2.08-2-4-3.18-5.62-1.4-1.86-3-3.63-4.25-5.57-2.66-4 .87-10.9 5.75-11.2a17.79 17.79 0 017.74 1.46c1.72.81 2.73 2.65 3.78 4.15M96 41.46v7.14l7-.58.19 22.56 4.52-.48c.56-.06 2.37 0 2.61-.45s0-2.26 0-2.92V61.4l-.25-11.4c0-.45-.3-2.17 0-2.56.09-.12.5-.13.68-.17l3-.55c.55-.11 2-.1 2.41-.46.25-.23.08-.87.06-1.28l-.31-5.1L96 41.46M136.48 37.6l-3.8.32a28.14 28.14 0 00-5 .41c-.62.18-.46 0-.63.68-.24 1-.42 2-.62 2.93L122 63.14l-1.3 6.11c2.17-.06 4.38 0 6.54-.19.86-.08.71-.31 1-1.19l.72-2c.13-.36.26-1.25.55-1.53s1.39-.24 1.89-.29l4.2-.41c.54-.06 1.52-.34 1.91 0 .76.59.65 2.59 1.47 3.07.47.28 2.37-.44 2.93-.56l3.45-.74-7.76-24.28zm-4 8.88l3.86 11.19-6.38.95zM146.32 35.47V42l7.91-1 .38 23.52 4.38-.69 2.73-.44c.2 0 1.24 0 1.38-.21.24-.33 0-1.86 0-2.24v-5.12l-.1-12.23c0-.82-.36-2.59 0-3.36s2.11-.86 2.79-1.07 2.24-.37 2.66-.83c.25-.26.14-.83.14-1.25v-5.46l-22.18 3.85M174.87 30.46l.67 26 .1 3.74 9.81-1.43 6.45-1c.66-.09 2 0 2.24-.56.31-.74-.16-2.59-.21-3.39l-.16-2.55L183 52.45c.05-1.45 0-2.94.17-4.38.07-.69-.08-.42.38-.7a8.6 8.6 0 012.45-.49c.39-.08 1.65-.11 1.93-.39s0-.82 0-1.11l-.15-4.5-3.06.14c-1 0-1.17.32-1.23-.64l-.24-3.74c0-.39-.24-1.34 0-1.57s1.82-.34 2.27-.42l3.86-.72 3.53-.66c.24 0 1.47-.09 1.62-.3.31-.41-.24-2.59-.29-3.09l-.24-3.09-19.09 3.67M225.41 25.25c-5.79.24-10.9 3.59-12 9.53-.68 3.73 0 7.91.95 11.54a17.75 17.75 0 003.64 7.33c2.92 3.32 8.33 4.79 12.35 2.64 6-3.23 8.19-11.21 7.5-17.53a19 19 0 00-3.25-9.48 10.55 10.55 0 00-9.19-4.03zm.21 5.79c3.67-.24 5.28 3 5.63 6.13a20.38 20.38 0 01-.6 8.72c-1.1 3.17-4.38 5.14-7.65 3.54-3-1.45-3.09-5.5-3.42-8.35a9.41 9.41 0 011-6.16c.99-1.83 2.81-3.74 5.04-3.92zM258.2 26l-15.62-.39-.17 26.72v3.76h5.11c.43 0 1.95.26 2.3 0 .18-.13.11-.34.11-.65.1-3.85 0-7.71 0-11.55 0-.72-.13-.62.5-.72a18.53 18.53 0 013 0l-.19-4.17c0-.26.13-1.36-.06-1.57s-1.58-.1-1.87-.11-1.45.07-1.6-.11 0-1.36 0-1.66v-4.3l8.69.18-.2-5.43M288.43 28c-5.86.12-11 3.47-12.12 9.43A28.56 28.56 0 00277 49a17.09 17.09 0 003.36 7.29c2.91 3.42 8.37 4.94 12.44 2.74 6.12-3.32 8.32-11.24 7.73-17.71a18 18 0 00-3.08-9.3 10.69 10.69 0 00-9.02-4.02zm.23 5.79c6.92-.26 6.14 10.64 4.55 14.88-1.18 3.17-4.43 5.1-7.72 3.47-2.94-1.46-3-5.42-3.18-8.25a9.85 9.85 0 011.14-6.38c1.09-1.8 2.98-3.64 5.21-3.72zM306.89 30.21c-1.18 0-1 0-1.06.93l-.07 3-.24 10.1-.26 11-.11 4.37a14.42 14.42 0 00-.06 2.54c.13.8.28.57 1.28.76l4.88.92.39-7.33 10.61 9.83.64-3.78c.13-.75.7-2.32.44-3-.12-.34-.76-.79-1-1l-1.82-1.89L318 54a20.18 20.18 0 005.31-4.14c2.33-2.64 2.26-5.56 1.47-8.84-1.9-7.78-10.55-10.87-17.89-10.81zm6.71 8.29c2.16-.06 4.46.51 5 2.84a10.83 10.83 0 01-.52 5.66c-.85 2.42-4.63 2.78-6.83 2.94l.23-6.57.13-3.79c0-.15-.06-.67 0-.79.27-.32 1.64-.28 1.99-.29zM332.47 36.44l-1.26 19.48-.62 9.69c0 .75-.16.58.42.83a25.29 25.29 0 004.6 1l10.94 2.38.26-4.36a5.8 5.8 0 00.11-2c-.14-.34-.05-.17-.47-.38a37.85 37.85 0 00-4.94-1.57c-.61-.19-2.74-.52-3.06-1.05s.06-1.6.08-2.06a8 8 0 01.1-2.51c.43-.67 3.08 0 3.95-.18.57-.13.33.15.51-.35a9.3 9.3 0 00.07-2.42c0-.73.46-3.18 0-3.61-.84-.77-3.4 0-3.91-1-.29-.57 0-2.16 0-2.79V43.4l7.72 1 .15-2.36c.05-.69.51-2.55.21-3.18s-2.45-.6-3.24-.72l-11.59-1.65M373.36 48.78l-4.63 3.48a5.4 5.4 0 00-7.33-2.42c-4.17 2.14-5.16 6.74-4.3 11 .44 2.18 1 4.84 2.66 6.44a5.67 5.67 0 005.65 1c.72-.32 1.52-1.33 1.1-2.19s-1.7-.52-2.5-.6c-.38 0-.89 0-1.07-.25s0-1.57-.06-2l-.13-4.24 5.77.32 3.6.2c.39 0 .88-.06 1.06.2.28.41 0 2 0 2.44 0 1.41-.1 2.81-.24 4.2-.23 2.27-.45 5.42-2.51 6.84a14 14 0 01-9.54 2.24c-4-.55-6.95-3.46-8.72-7a20.5 20.5 0 01-1.65-12.33c.52-3.43 1.63-7.25 4-9.89 2.56-2.86 8.66-4.56 12.28-3 2.55 1.06 4.73 3.6 6.56 5.59M390 46.08c-5.8.24-10.89 3.6-12 9.53-.68 3.74 0 7.91 1 11.54a17.61 17.61 0 003.56 7.33c2.92 3.32 8.33 4.79 12.35 2.64 6-3.23 8.17-11.21 7.49-17.53a19 19 0 00-3.25-9.48 10.56 10.56 0 00-9.15-4.03zm.25 5.79c3.65-.19 5.23 3 5.59 6.13a20.69 20.69 0 01-.6 8.72c-1.11 3.17-4.38 5.15-7.65 3.54-3-1.45-3.09-5.5-3.43-8.34a9.41 9.41 0 011-6.18c1.01-1.83 2.84-3.74 5.09-3.87zM407.32 47.25l.33 26.17.05 3.72L413 77c.29 0 1.07.09 1.24-.1s0-1.51 0-1.77l.16-10.89 7.25 9.89c.3.41.72 1.31 1.17 1.59s.91.09 1.32.09h6.07l-.84-26.71-.12-3.76-2.7.23a19.44 19.44 0 00-3.58.3c-.61.19-.36-.09-.45.54a14.93 14.93 0 00.18 2.59l.62 12.74-7.75-10.15-2.14-2.81a7.18 7.18 0 00-1.2-1.57c-.42-.27-1.16-.09-1.69-.06l-3.23.13M317.86 140.66c-.34.54-.75 1.64-1.26 2a5.58 5.58 0 01-2.08.33c.37.49 1.21 1.23 1.36 1.81a7.44 7.44 0 01-.33 2.3 7.65 7.65 0 012.1-1 7.86 7.86 0 012.27.75c-.13-.52-.62-1.55-.5-2.05s1-1.33 1.4-1.8c-.51-.06-1.69 0-2.08-.26s-.67-1.57-.88-2.05M317.9 131.67c-.34.53-.75 1.63-1.26 2a5.79 5.79 0 01-2.08.33c.37.49 1.21 1.23 1.36 1.81a7.44 7.44 0 01-.33 2.3 7.93 7.93 0 012.09-1 8.16 8.16 0 012.28.76c-.13-.52-.62-1.55-.5-2.06s1-1.32 1.4-1.79c-.51-.06-1.69 0-2.09-.26s-.66-1.57-.87-2M315.19 121.64a7.48 7.48 0 01-1 2.13c-.41.38-1.45.43-2 .58.43.44 1.35 1.07 1.58 1.63a7.63 7.63 0 01-.06 2.33 7.91 7.91 0 012-1.27 7.61 7.61 0 012.35.47c-.19-.5-.81-1.46-.75-2s.87-1.45 1.17-2c-.49 0-1.71.24-2.11 0s-.84-1.46-1.11-1.93M312 112.4a7.84 7.84 0 01-1 2.16c-.39.35-1.48.4-2 .54.43.44 1.36 1.08 1.58 1.64a7.82 7.82 0 01-.05 2.31c.54-.35 1.34-1.15 1.95-1.27a8 8 0 012.36.49c-.2-.51-.81-1.47-.75-2s.86-1.44 1.17-2c-.51 0-1.67.25-2.1 0s-.86-1.48-1.12-1.93M317.24 149.3c-.35.53-.78 1.62-1.29 2a5.88 5.88 0 01-2.09.3c.37.5 1.2 1.25 1.34 1.83a7.71 7.71 0 01-.36 2.3 7.63 7.63 0 012.11-1 7.62 7.62 0 012.26.79c-.12-.53-.6-1.55-.47-2.06s1.05-1.32 1.42-1.79c-.49-.06-1.73 0-2.09-.29s-.63-1.55-.83-2.06M316.14 158.57c-.35.53-.78 1.62-1.29 2a5.46 5.46 0 01-2.09.3c.36.5 1.2 1.25 1.34 1.84a7.72 7.72 0 01-.37 2.29 8.08 8.08 0 012.11-1 8 8 0 012.27.8c-.13-.53-.61-1.56-.48-2.06s1.06-1.32 1.43-1.79c-.51-.07-1.69 0-2.08-.28s-.65-1.58-.84-2.07M313.07 167.07c-.37.51-.85 1.58-1.38 1.9a5.55 5.55 0 01-2.1.2c.34.51 1.14 1.3 1.25 1.9a7.48 7.48 0 01-.47 2.27 7.75 7.75 0 012.15-.88 7.68 7.68 0 012.23.9 6.29 6.29 0 01-.38-2.09c.17-.56 1.12-1.26 1.51-1.71-.5-.09-1.69-.07-2.06-.38s-.57-1.61-.75-2.11M310.07 174.82c-.37.52-.85 1.59-1.38 1.91a5.56 5.56 0 01-2.1.19c.34.52 1.14 1.31 1.25 1.9a7.48 7.48 0 01-.47 2.28 7.49 7.49 0 012.15-.89 8 8 0 012.23.9 6.24 6.24 0 01-.38-2.08c.17-.56 1.12-1.27 1.51-1.71-.5-.1-1.69-.07-2.06-.39s-.57-1.61-.75-2.11M305.44 182.92c-.37.52-.85 1.59-1.38 1.91a5.55 5.55 0 01-2.1.21c.34.51 1.14 1.29 1.25 1.88a7.79 7.79 0 01-.47 2.28 7.78 7.78 0 012.15-.89 8 8 0 012.23.9 6.24 6.24 0 01-.38-2.08c.17-.56 1.12-1.26 1.51-1.71-.5-.09-1.69-.07-2.07-.38s-.56-1.62-.74-2.12M300.43 190.64c-.37.52-.85 1.59-1.38 1.91a5.76 5.76 0 01-2.1.2 7.56 7.56 0 011.25 1.89 7.81 7.81 0 01-.48 2.28 7.71 7.71 0 012.16-.89 7.88 7.88 0 012.22.89 6.24 6.24 0 01-.38-2.08c.18-.56 1.12-1.26 1.52-1.7-.51-.1-1.69-.07-2.07-.38s-.57-1.62-.74-2.12M294.77 197.59c-.37.51-.86 1.59-1.38 1.91a5.56 5.56 0 01-2.1.19c.34.52 1.14 1.31 1.25 1.9a7.75 7.75 0 01-.48 2.27 7.84 7.84 0 012.16-.89 8.1 8.1 0 012.22.9 6.26 6.26 0 01-.37-2.08c.17-.56 1.11-1.26 1.51-1.71-.51-.09-1.69-.07-2.07-.39s-.57-1.6-.74-2.1M287.7 204.14c-.38.52-.86 1.59-1.39 1.91a5.5 5.5 0 01-2.09.21c.34.51 1.13 1.29 1.25 1.88a7.81 7.81 0 01-.48 2.28 7.78 7.78 0 012.15-.89 7.85 7.85 0 012.23.9 6.24 6.24 0 01-.38-2.08c.17-.56 1.12-1.27 1.51-1.71-.5-.1-1.69-.07-2.06-.38s-.57-1.62-.74-2.12M279.72 209.14c-.34.56-.73 1.7-1.25 2.06a6.12 6.12 0 01-2.05.34c.39.48 1.24 1.2 1.41 1.78a7.68 7.68 0 01-.29 2.3 7.87 7.87 0 012.08-1.06 8 8 0 012.29.71c-.14-.52-.66-1.54-.55-2.05s1-1.35 1.36-1.82c-.51-.06-1.68.07-2.09-.22s-.7-1.55-.91-2M272.58 214.33c-.33.55-.72 1.7-1.24 2.06a5.92 5.92 0 01-2 .33c.38.49 1.24 1.21 1.41 1.79a7.75 7.75 0 01-.29 2.31 7.31 7.31 0 012.08-1.06 7.94 7.94 0 012.29.7c-.14-.52-.66-1.53-.55-2s1-1.36 1.36-1.84c-.51-.05-1.69.08-2.09-.2s-.7-1.56-.92-2M264.48 219c-.33.56-.72 1.71-1.24 2.07a6.16 6.16 0 01-2.05.33c.38.48 1.24 1.2 1.41 1.78a7.79 7.79 0 01-.29 2.31 8 8 0 012.07-1.07 8 8 0 012.3.71c-.15-.52-.66-1.53-.55-2s1-1.35 1.36-1.83c-.51-.05-1.69.07-2.09-.21s-.7-1.56-.92-2M254.84 221.79c-.33.54-.72 1.66-1.22 2a5.33 5.33 0 01-2.07.37c.38.49 1.24 1.21 1.4 1.79a7.73 7.73 0 01-.28 2.31 7.43 7.43 0 012.07-1.07 7.87 7.87 0 012.29.71c-.14-.52-.66-1.54-.55-2s1-1.35 1.37-1.83c-.51 0-1.69.08-2.1-.21s-.7-1.56-.91-2" fill="#ffea0f"/></svg>