<svg xmlns="http://www.w3.org/2000/svg" width="150" height="300" viewBox="0 0 150 300"><path d="M79.7 59.46c.86-.87 1.07-.87 2.38-.87s1.5.34 2.15.1 1.51.76 1.51.76a5.6 5.6 0 00-1.95.45c-1.07.41-1.29-.25-2.16-.25a12.66 12.66 0 01-1.94-.2M81 55.78c1.08.65.86.65 1.72.43l1.72-.43L84 54s2.15 1.74.86 2.17a4.67 4.67 0 01-2.8.43 1.43 1.43 0 01-1.06-.82" stroke="#000" stroke-linecap="round" stroke-linejoin="round" stroke-width=".5"/><path d="M74 51.94s1.13-2.58 1.45-3.4.33-1.63 2.12-1.44 8.09.15 8.09.15a8.61 8.61 0 012.44 1.29c1 .82 1.3 2.58 1.6 3.4s0 2.1-.79 1.46a4.54 4.54 0 00-2-.79l-10.53-.5L74 52" fill="#fff" stroke="#000" stroke-linecap="round" stroke-linejoin="round" stroke-width="1.2"/><path d="M88.31 53s0 .25.14.84c.25 1.4.65 1.38.44 3.23-.32 2.71-1.19 2-1.19 5.62a59.12 59.12 0 01-.43 6.91l1.29.66s.87-.66 1.74 4.07 1.94 9.3 1.94 9.3l-5 .23M83.39 84l-6.07.25S75.59 75.2 72.56 70l2.44-.84a13.61 13.61 0 001.28-6 28.61 28.61 0 00-.64-6.25l-1.51-.67s2.15-1.29 2-2.15a7.28 7.28 0 01-.23-1.66M85.75 47.13a14.69 14.69 0 01-1.51-2.79c-.22-.87-1.51-1.52-1.95.21s-2.59 2.8-3.24 1.5-1.52-1.5-2 .86M87.47 62s-1.29 3.26-4.1 3a12.16 12.16 0 01-4.76-1.32" fill="none" stroke="#000" stroke-linecap="round" stroke-linejoin="round" stroke-width="1.2"/><path d="M74.51 45.4c3.25-1.73 6-3 7.78-2.58S89.21 45 89.21 45s.37-2.32-.87-2.8c-5-2-8.2-2.82-11-1.09s-.45.83-2.81 1.74c-.88.28-.83 3.05-.02 2.55z" fill="none" stroke="#000" stroke-linecap="round" stroke-linejoin="round" stroke-width="1.2"/><path d="M64.13 71.72c-.65-1.32-.65-.82.17-2.44s-1.46-1.79-.32-3.07 1.62-4.84 3.56-5.83 3.4-.64 2.44-3.09-1-4.35.14-6.32 1.62-3 2.76-3.72a2.54 2.54 0 001.3-1.63m0-2.76a4.13 4.13 0 011.12-2.92c1.31-1.46 2.6-2.94 4.39-2.94a8.1 8.1 0 015.49 1.45c1.94 1.46 2.44 1.46 2.93 3.39m1.1 3.1s-.44 1.13.86 4.23 2.11 4.66 2.27 8.41-.33 4.21 1.29 5.67 2.26 1.12 3.07 3.56 1.13 3.22.49 3.56a1.31 1.31 0 00-.82 1.46c.17.48.33.48.33.48m-24.46-2.22s-12.48 1.77-14.43 5a17.29 17.29 0 01-2.26 6 17.76 17.76 0 00-2.28 4.41s2.61 8.42-.64 10.68a40.54 40.54 0 01-4.22 2.74s5.51 10.62-1.94 20.24c-1.45-2.88-1.93-6.62-2.42-9.54m2.27 9.73s2.1 4.22 4 2.61.32-3.1 2.76-7.13S64.45 98.3 64.45 98.3s3.41 9.22 2 13.14-2 5.81-.64 6.63c2.11-1.94 4.06-2.59 8.59-3.41a30.69 30.69 0 018.42-.8c4.37 0 7 .17 9.39 1a26.61 26.61 0 003.25 1s.33-.32 1.3-1.47 5.66-1.93 6.32 2l1 2.58a53 53 0 011-9.71c1-4.37.31.33 1.45 0s1.62-2.26 2.43-4.83 2.27-3.25 3.24-6.51c.69-2.3 1.26-2.67.58-3.52M110 91.7c-1.75-1.75-2.71-4.23-3.79-7.54a38.16 38.16 0 00-3.23-7.46c-1.14-2.91-9.41-4.85-11.67-5.82s-1.77-.17-1.77-.17m2.91.48l3.41 15.39-9 .2m-4.42.11l-6.85.15s-3.35-13.23-5.29-16.29m-6.48 53.62l1.94-6.3m38.24.14s4.54 22 4.86 36.62 1 14.26-1.94 15.25-5.51-2.93-5.51-2.93h-.65c-2.6-1.61-4.55-2.59-4.55-2.59s.65-.32 2-10.05a232.72 232.72 0 002-29.16c-1.63-1.94-5.82-3.89-9.73-4.54s-2.26-1.3-7.77-1-9.4.65-13 1.63a12.87 12.87 0 00-5.89 3.56 34.62 34.62 0 01-2.28 7.45c-1.63 3.56-1.63 8.43-2.9 20.08a73.89 73.89 0 00.64 23.35c1 6.46-.64 7.78-1.94 18.45s-2 18.83-3.25 25.93-1.62 9.41-1 13.93-1.3 6.8-3.25 10.37S46 251.71 46 255.27c1.63-3.54 4.86-5.17 7.79-2.6s6.14 4.88 6.14 4.88L81 258.83a11.32 11.32 0 005.51-2.91c2.91-2.58 3.24-2.26 5.18-.33s5.18 1 5.18 1a13.48 13.48 0 014.21-3.21c2.27-1-1.62-19.13-1.62-29.83s1-37.93 2-44.42m-5.19-14.53l-1 12.32 1.3-1.61v2.92l1.62-2.61v3.25l1-2.26v1.62l1.63-1.62s-1.63 2.59-.33 2 1-.33 1-.33l.65 1.61 1.62-2.6.63 2.6 2-2.92v2l1.29-3.25 1 2.61s.32-.31.32-3.24v-5.84m-33.22-55.19s2.63-9.13 3.6-12.37 3.24-8.4 3.24-11-.93-5.94.36-6.59l4.57-.23c-2.37.78-.4 1.07-.72 5.87s-1 6.47-2.91 12.29-4.1 11.72-4.1 11.72M48.41 98.92s-3.71 2.44-5.66-.14-2-3.88-2-3.88a9.21 9.21 0 013.3-3.9c2.59-1.92 4.53 0 5.18-3.88s.65-5.83 2.6-6.8A23.71 23.71 0 0055.39 78l2.86-3.48" fill="none" stroke="#000" stroke-linecap="round" stroke-linejoin="round" stroke-width="1.2"/><path d="M49.79 111.75a38.45 38.45 0 01-10.18-4.54C34.32 103.86 20.87 85.29 18.92 83s-1.62-.9-5.23-1.86-3.24-1.8-3.24-1.8l.12-.12c-1.41.92-1.3.35-2-.36s1-1.43 1.61-2 1.18-.59 1.62-1.79 1.1-2.56 1.1-2.56 5.82 1 8.42 4.21 4.86 4.56 9.73 9.08 9.81 8.54 9.81 8.54M11.53 74.9a44.76 44.76 0 01-4.65-2c-1.08-.65-3-.43-2.38.87a5.62 5.62 0 01.5 3.3c0 1.38 0 2.56 1.19 2.67a23.69 23.69 0 002.81 0m1.4-.63s.55-.31 1.41-.75a6.15 6.15 0 012.6-.86m-9.3-2.83a10.19 10.19 0 001.89.77c1.3.42 3.68.87 3.68.87m-5.41.22a12.23 12.23 0 003.88.87m-3.77.85a6.89 6.89 0 003 .45m-5.1-6.59S14.07 72 16.64 72s2.61-2.2 0-2.2H3.2c-2.59 0-3.66 2.12.08 2.27zM8.47 80s.09 2.43.09 3.41 1.87 2 1.87.06-.08-3.8-.08-3.8m1.11-10.07L10.16 2H8.87l-1.3 67.6M115 79.32a2.31 2.31 0 01-2.28-1.77 19.72 19.72 0 01-.33-3.24s-1.78-.5-1.29-1.15.32-.47.32-.47c-.49-.65-2-1.79 0-1.92s3.41-.17 3.89-.17.65 0 1.94 1.44 2 1.14 2.44 4.21a51.06 51.06 0 01-.16 15.57m-.48 2.25c-1.79 7.13-4.7 18.33-7.45 21.07s-4.86 2.27-5.19-1.11-.48-5-.48-5m6.63-34.85l1.78-.66m-2.75-1.11l1.94-.66m-.65 3.86l1.62-.45m-1.46 2.09l1.46-.32m-.48 14.92l-1.79-.17s-23.14 1.43-23.63 1.59v1.3l25.77-.65m-.32-2.1l2.11-.17s23.16 1.46 23.66 1.62v1.3l-25.77-.65m-1.79-2.6l.81-12.8m2.28 13l-.17-12.17M114.87 67l.18 3.47m-2 0v-3.36m.89.21a1.62 1.62 0 10-1.6-1.6 1.6 1.6 0 001.66 1.6zm-15.87 58.73c0 3.55-4.31 6.42-9.63 6.42s-9.62-2.87-9.62-6.42c0 0 6.39.8 9.46.8s9.79-.8 9.79-.8zm50.57 0c0 3.55-4.31 6.42-9.62 6.42s-9.63-2.87-9.63-6.42c0 0 6.39.8 9.46.8s9.79-.8 9.79-.8zm-57.93.45L88.6 94.57l-9.89 31.27s8.6-.47 19.3-.15l-8.58-30.94m51.85 31.75l-2.11-31.93-9.88 31.27c7.12-.47 15.22-.15 19.28-.15L140 94.75M46.15 255.51s-3.74 4.34-.81 6.45 4 3.91 7.29 1.77a15.44 15.44 0 004.7-4 8.73 8.73 0 012.41-2.11M83.24 258.34c5.34 4.36 7.15 5.39 10.88 5.08s4.21-.64 4.21-.64l-.66-1.94s.5-1-.8-1.92-3.39-2.24-3.39-2.24" fill="none" stroke="#000" stroke-linecap="round" stroke-linejoin="round" stroke-width="1.2"/><path d="M90.88 255.3c-1.95.5-4.06 2.94-4.06 2.94a8.66 8.66 0 002 1.61 4.66 4.66 0 002.87 1.15c.8 0 .3-.15 1.3.15s1.11 1 1.77.33.48-.33 1.13-.33.81.33 1.13-.15a2.5 2.5 0 01.61-.66M95.09 260.82l-1.3-.81M96.87 260.67l-1.13-.68M92.66 260.82l-.65-.62M54.57 259.37c-2.59 3.25-3.4 4.36-4 3.41s-1.3-.8-1.3-.8-.32.14-.81-.33-1-.48-1.45-1.64-1.46-1.09-.64-2.41 1.61-2.43 1.61-2.43 3.4 1.29 2.59 3.56-.48 1.78-.48 1.78a5.13 5.13 0 001.78-1.46c1-1.14 1.78-1 2.59-.15M53.93 252.89l-2.11 2.75a12.33 12.33 0 00-3.57-1.76l1.55-2.12M55.06 254.19l-1.46 2.11a4 4 0 011.95 1.94c.49 1.31.33.68.33.68a2.58 2.58 0 01.65-1c.47-.49 1.45-1.79 1.45-1.79M49.72 261.62l.49-.46M47.93 260.82l.49-.81M46.47 259.05l.65-.63M112.18 115s5.43 46.66 6.08 50.26-2.27.64-2 3.87 3.25 5.18.32 7.46-5.18 2.59-5.5 8.09 1 50.57 1.94 58 1 8.43 3.57 11a17.36 17.36 0 013.56 4.87l.32.54c-4.42-.13-14-.34-24.12-.55M44.57 257.74c-5 0-11.28.09-11.7.11v-.1A13.82 13.82 0 0136 255c1.95-1.3 2.59-1.63 3.24-4.21s1-2.91 3.56-6.16 3.23-7.13 3.57-13.28 1.29-32.08 1.61-41.84-.64-51.84 0-56.38 0-5.52.33-7.13-1.2-5.44-1.2-5.44" fill="none" stroke="#000" stroke-linecap="round" stroke-linejoin="round" stroke-width="1.2"/></svg>