<svg xmlns="http://www.w3.org/2000/svg" xmlns:xlink="http://www.w3.org/1999/xlink" width="600" height="414" viewBox="0 0 600 414"><defs><clipPath id="a"><rect x="28.27" y="1.2" width="570.04" height="380.03" fill="#fff" stroke="#50d6cc" stroke-linecap="round" stroke-linejoin="round"/></clipPath></defs><title>flag-alabama-dimensions</title><rect x="28.27" y="1.2" width="570.04" height="380.03" fill="#fff"/><g clip-path="url(#a)"><rect x="28.27" y="1.2" width="570.04" height="380.03" fill="#fff" stroke="#50d6cc" stroke-linecap="round" stroke-linejoin="round"/><path d="M28.27,1.2l570,380m-570,0,570-380" fill="#fff" stroke="#50d6cc" stroke-linecap="round" stroke-linejoin="round"/><polygon points="580.39 408.11 313.29 230.04 46.19 408.11 10.35 354.35 255.06 191.21 10.35 28.08 46.19 -25.68 313.29 152.39 580.39 -25.68 616.23 28.08 371.52 191.21 616.23 354.35 580.39 408.11" fill="#fff" stroke="#50d6cc" stroke-linecap="round" stroke-linejoin="round"/></g><rect x="28.27" y="1.2" width="570.04" height="380.03" fill="none" stroke="#50d6cc" stroke-linecap="round" stroke-linejoin="round"/><line x1="195.64" y1="229.4" x2="193.58" y2="230.83" fill="none" stroke="#a3a3a3" stroke-linecap="round" stroke-linejoin="round"/><line x1="191.23" y1="232.46" x2="187.71" y2="234.9" fill="none" stroke="#a3a3a3" stroke-linecap="round" stroke-linejoin="round" stroke-dasharray="2.86 2.86"/><polyline points="186.54 235.71 184.49 237.14 185.92 239.18" fill="none" stroke="#a3a3a3" stroke-linecap="round" stroke-linejoin="round"/><line x1="188.68" y1="243.11" x2="220.38" y2="288.25" fill="none" stroke="#a3a3a3" stroke-linecap="round" stroke-linejoin="round" stroke-dasharray="4.8 4.8"/><polyline points="221.75 290.21 223.19 292.25 225.25 290.83" fill="none" stroke="#a3a3a3" stroke-linecap="round" stroke-linejoin="round"/><line x1="227.59" y1="289.2" x2="231.11" y2="286.76" fill="none" stroke="#a3a3a3" stroke-linecap="round" stroke-linejoin="round" stroke-dasharray="2.86 2.86"/><line x1="232.29" y1="285.95" x2="234.34" y2="284.52" fill="none" stroke="#a3a3a3" stroke-linecap="round" stroke-linejoin="round"/><path d="M213.38,254.66l8.07-1,.47.68-3.55,7.6-.73-1.05,3-6.13-6.56.88Z"/><path d="M232.62,241.19l-.16,1.22c-.2,0-.28-.14-.43-.17a1.9,1.9,0,0,0-1.27.34c-.62.43-1.79,1.81.22,4.83a2.62,2.62,0,0,1,1.12-2.33c1.23-.85,3.11-.61,4.36,1.2s.86,3.71-.46,4.63a3,3,0,0,1-2.86.27,6.53,6.53,0,0,1-2.7-2.49,10.57,10.57,0,0,1-1.49-2.94,3.54,3.54,0,0,1,1.2-4A3.3,3.3,0,0,1,232.62,241.19Zm-.91,7.16c1,1.71,2.67,2.4,3.73,1.67.74-.52,1.05-1.67.11-3s-2.25-1.48-3-1A2.52,2.52,0,0,0,231.71,248.35Z"/><path d="M244.64,232.2a.88.88,0,0,1-1.45,1,.88.88,0,0,1,1.45-1Zm1.19,2.22,3.86,5.58,1.5-1,.56.81-4.13,2.86-.56-.81,1.62-1.12-3.3-4.76L243.84,237l-.57-.82Z"/><path d="M249.73,231.73l1-.71.77,1.12a3.26,3.26,0,0,1,1.24-2.75,2.23,2.23,0,0,1,2.48,0,4.6,4.6,0,0,1,1.3,1.38l2.68,3.87-1,.68-2.67-3.84a2.54,2.54,0,0,0-1.32-1.17,1.32,1.32,0,0,0-1.15.2,2.64,2.64,0,0,0-.91,1.95,2,2,0,0,0,.44,1.31l2.55,3.68-1,.71Z"/><polyline points="19.77 1.2 3.67 1.2 3.67 190.47" fill="none" stroke="#a3a3a3" stroke-linecap="round" stroke-linejoin="round" stroke-dasharray="5 5"/><polyline points="17.94 381.24 3.67 381.24 3.67 218.2" fill="none" stroke="#a3a3a3" stroke-linecap="round" stroke-linejoin="round" stroke-dasharray="5 5"/><path d="M3.71,200.08a3,3,0,0,1,3.07,3,4.76,4.76,0,0,1-1.87,3.34A13.93,13.93,0,0,0,2,209.7H6.47a.24.24,0,0,0,.19-.07.22.22,0,0,1,.23-.07v1.19H.67V210a12.66,12.66,0,0,1,3.07-3.95c.77-.69,1.86-1.62,1.86-2.91a2,2,0,0,0-2-2,2.23,2.23,0,0,0-1.81,1c-.09.15,0,.25-.14.4l-.87-.69A3.44,3.44,0,0,1,3.71,200.08Z"/><path d="M313.16,404.23A2.85,2.85,0,0,1,315,407a3.08,3.08,0,0,1-3.26,3.09,3.71,3.71,0,0,1-2.78-1.21l.89-1.07c.15.16.08.32.22.48a2.29,2.29,0,0,0,1.66.72,2.12,2.12,0,0,0,2.13-2.16c0-1.26-1-2-2.49-2a3.27,3.27,0,0,0-.54,0v-1a4.18,4.18,0,0,0,1.68-.26,1.88,1.88,0,0,0,1.13-1.67,1.72,1.72,0,0,0-1.84-1.65,2.51,2.51,0,0,0-1.83.81l-.66-.73a3.43,3.43,0,0,1,2.54-1.13,2.78,2.78,0,0,1,2.92,2.68A2.44,2.44,0,0,1,313.16,404.23Z"/><polyline points="598.33 389.7 598.33 404.72 326.2 404.72" fill="none" stroke="#a3a3a3" stroke-linecap="round" stroke-linejoin="round" stroke-dasharray="5 5"/><polyline points="28.27 389.7 28.27 404.72 296.53 404.72" fill="none" stroke="#a3a3a3" stroke-linecap="round" stroke-linejoin="round" stroke-dasharray="5 5"/></svg>