<svg xmlns="http://www.w3.org/2000/svg" width="600" height="315.79"><path fill="#bf0a30" d="M0 0h600v315.79H0z"/><path fill="#fff" d="M0 24.29h600v24.29H0zM0 72.87h600v24.29H0zM0 121.46h600v24.29H0zM0 170.04h600v24.29H0zM0 218.62h600v24.29H0zM0 267.21h600v24.29H0z"/><path d="M0 0v170h240.22V0z" fill="#002868" fill-rule="evenodd"/><path d="M209.42 37.88l2.2-6.76-5.75-4.18H213l2.2-6.77 2.19 6.77h7.12l-5.76 4.18 2.2 6.76-5.75-4.18zM177.78 37.88l2.2-6.76-5.75-4.18h7.11l2.2-6.77 2.2 6.77h7.11l-5.76 4.18 2.2 6.76-5.75-4.18zM146.15 37.88l2.19-6.76-5.75-4.18h7.11l2.2-6.77 2.2 6.77h7.11l-5.75 4.18 2.19 6.76-5.75-4.18zM114.51 37.88l2.2-6.76-5.71-4.18h7.11l2.2-6.77 2.2 6.77h7.11l-5.75 4.18 2.2 6.76-5.76-4.18zM82.87 37.88l2.2-6.76-5.76-4.18h7.12l2.19-6.77 2.2 6.77h7.11l-5.75 4.18 2.2 6.76-5.76-4.18zM51.23 37.88l2.2-6.76-5.75-4.18h7.11L57 20.17l2.19 6.77h7.11l-5.76 4.18 2.2 6.76L57 33.7zM19.59 37.88l2.2-6.76L16 26.94h7.11l2.2-6.77 2.2 6.77h7.11l-5.72 4.18 2.2 6.76-5.75-4.18zM193.6 75.21l2.2-6.76-5.75-4.18h7.11l2.2-6.77 2.2 6.77h7.11l-5.76 4.18 2.2 6.76-5.75-4.21zM162 75.21l2.19-6.76-5.75-4.18h7.11l2.2-6.77 2.2 6.77H177l-5.75 4.18 2.19 6.76-5.72-4.21zM130.33 75.21l2.19-6.76-5.75-4.18h7.11l2.2-6.77 2.2 6.77h7.11l-5.75 4.18 2.2 6.76-5.76-4.21zM98.69 75.21l2.2-6.76-5.76-4.18h7.11l2.2-6.77 2.2 6.77h7.11L108 68.45l2.2 6.76-5.76-4.21zM67.05 75.21l2.2-6.76-5.76-4.18h7.12l2.19-6.77 2.2 6.77h7.12l-5.76 4.18 2.2 6.76L72.8 71zM35.41 75.21l2.2-6.76-5.75-4.18H39l2.2-6.77 2.19 6.77h7.12l-5.76 4.18 2.2 6.76L41.17 71zM209.42 112.54l2.2-6.77-5.75-4.18H213l2.2-6.76 2.19 6.76h7.12l-5.76 4.18 2.2 6.77-5.75-4.18zM177.78 112.54l2.2-6.77-5.75-4.18h7.11l2.2-6.76 2.2 6.76h7.11l-5.76 4.18 2.2 6.77-5.75-4.18zM146.15 112.54l2.19-6.77-5.75-4.18h7.11l2.2-6.76 2.2 6.76h7.11l-5.75 4.18 2.19 6.77-5.75-4.18zM114.51 112.54l2.2-6.77-5.71-4.18h7.11l2.2-6.76 2.2 6.76h7.11l-5.75 4.18 2.2 6.77-5.76-4.18zM82.87 112.54l2.2-6.77-5.76-4.18h7.12l2.19-6.76 2.2 6.76h7.11l-5.75 4.18 2.2 6.77-5.76-4.18zM51.23 112.54l2.2-6.77-5.75-4.18h7.11L57 94.83l2.19 6.76h7.11l-5.76 4.18 2.2 6.77-5.74-4.18zM19.59 112.54l2.2-6.77-5.79-4.18h7.11l2.2-6.76 2.2 6.76h7.11l-5.76 4.18 2.2 6.77-5.75-4.18zM209.42 149.87l2.2-6.77-5.75-4.18H213l2.2-6.76 2.19 6.76h7.12l-5.76 4.18 2.2 6.77-5.75-4.18zM177.78 149.87l2.2-6.77-5.75-4.18h7.11l2.2-6.76 2.2 6.76h7.11l-5.76 4.18 2.2 6.77-5.75-4.18zM146.15 149.87l2.19-6.77-5.75-4.18h7.11l2.2-6.76 2.2 6.76h7.11l-5.75 4.18 2.19 6.77-5.75-4.18zM114.51 149.87l2.2-6.77-5.71-4.18h7.11l2.2-6.76 2.2 6.76h7.11l-5.75 4.18 2.2 6.77-5.76-4.18zM82.87 149.87l2.2-6.77-5.76-4.18h7.12l2.19-6.76 2.2 6.76h7.11l-5.75 4.18 2.2 6.77-5.76-4.18zM51.23 149.87l2.2-6.77-5.75-4.18h7.11l2.2-6.76 2.19 6.76h7.12l-5.76 4.18 2.2 6.77-5.74-4.18zM19.59 149.87l2.2-6.77-5.79-4.18h7.11l2.2-6.76 2.2 6.76h7.11l-5.72 4.18 2.2 6.77-5.75-4.18z" fill="#fff" fill-rule="evenodd"/></svg>