<svg xmlns="http://www.w3.org/2000/svg" width="585" height="300" viewBox="0 0 585 300"><title>flag-nmi-fttpi</title><rect y="-3.95" width="585" height="307.89" fill="#6b86bd"/><polygon points="303.69 61.27 321.78 48.12 299.41 48.12 292.5 26.84 285.59 48.12 263.22 48.12 281.31 61.27 274.4 82.54 292.5 69.39 310.6 82.54 303.69 61.27" fill="#fff"/><polygon points="384.19 105.05 399.16 88.42 377.28 93.07 366.09 73.7 363.75 95.95 341.87 100.6 362.31 109.7 359.97 131.94 374.94 115.32 395.37 124.42 384.19 105.05" fill="#fff"/><polygon points="222.69 109.7 243.13 100.6 221.25 95.95 218.91 73.7 207.72 93.07 185.84 88.42 200.81 105.05 189.63 124.42 210.06 115.32 225.03 131.94 222.69 109.7" fill="#fff"/><polygon points="377.28 206.93 399.16 211.58 384.19 194.96 395.37 175.58 374.94 184.68 359.97 168.06 362.31 190.3 341.87 199.4 363.75 204.05 366.09 226.3 377.28 206.93" fill="#fff"/><polygon points="221.25 204.05 243.13 199.4 222.69 190.3 225.03 168.06 210.06 184.68 189.63 175.58 200.81 194.96 185.84 211.58 207.72 206.93 218.91 226.3 221.25 204.05" fill="#fff"/><polygon points="299.41 251.88 321.78 251.88 303.69 238.73 310.6 217.46 292.5 230.61 274.4 217.46 281.31 238.73 263.22 251.88 285.59 251.88 292.5 273.16 299.41 251.88" fill="#fff"/></svg>