<svg xmlns="http://www.w3.org/2000/svg" width="300" height="300" viewBox="0 0 300 300"><title>Artboard 247</title><path d="M154.11,78.28l3.76,10.8,11.43.22-9.1,6.9,3.3,10.94-9.39-6.54-9.37,6.54,3.31-10.94L139,89.3l11.4-.22,3.75-10.8" fill="none" stroke="#000" stroke-linecap="round" stroke-linejoin="round" stroke-width="2"/><path d="M97.93,84.57,104.42,94l11-2.81-6.92,9.09,6.11,9.65-10.78-3.8-7.31,8.79.29-11.41L86.23,99.26l11-3.28.73-11.41" fill="none" stroke="#000" stroke-linecap="round" stroke-linejoin="round" stroke-width="2"/><path d="M44.24,112.42,53.6,119l9.4-6.48-3.35,10.92,9.08,6.94-11.43.18-3.78,10.77-3.72-10.8-11.41-.27,9.11-6.86-3.24-11" fill="none" stroke="#000" stroke-linecap="round" stroke-linejoin="round" stroke-width="2"/><path d="M20.36,149.81l-.26,11.43,10.63,4.21-10.94,3.27-.73,11.41-6.49-9.4L1.5,173.57l6.92-9.08L2.3,154.84l10.78,3.76,7.28-8.79" fill="none" stroke="#000" stroke-linecap="round" stroke-linejoin="round" stroke-width="2"/><path d="M210,88.25l-6.5,9.4-11.06-2.81,6.93,9.06-6.09,9.66,10.78-3.79,7.29,8.8-.27-11.43,10.61-4.23-11-3.27L210,88.28" fill="none" stroke="#000" stroke-linecap="round" stroke-linejoin="round" stroke-width="2"/><path d="M257.85,111l-9.36,6.53-9.4-6.48L242.44,122l-9.08,6.92,11.43.2,3.77,10.77,3.72-10.79,11.42-.29-9.14-6.86L257.83,111" fill="none" stroke="#000" stroke-linecap="round" stroke-linejoin="round" stroke-width="2"/><path d="M279.17,145.41l.25,11.43-10.62,4.21,10.94,3.27.71,11.41,6.51-9.4L298,169.16l-6.93-9.08,6.13-9.66-10.8,3.79-7.28-8.8" fill="none" stroke="#000" stroke-linecap="round" stroke-linejoin="round" stroke-width="2"/><path d="M241.92,180.36,243,191.72l-10.3,4.93,11.16,2.51,1.5,11.32,5.84-9.82,11.24,2.06-7.55-8.6,5.43-10-10.5,4.51-7.89-8.23" fill="none" stroke="#000" stroke-linecap="round" stroke-linejoin="round" stroke-width="2"/><path d="M204,155.35l4.51,10.48-8.29,7.91,11.4-1.07L216.53,183l2.5-11.15,11.33-1.51-9.82-5.84,2.05-11.24L214,160.79l-10-5.44" fill="none" stroke="#000" stroke-linecap="round" stroke-linejoin="round" stroke-width="2"/><path d="M174.65,135.65l-5.57,10-11.28-1.75,7.77,8.38-5.16,10.21,10.37-4.81,8.1,8-1.35-11.32,10.15-5.23-11.2-2.2-1.83-11.29" fill="none" stroke="#000" stroke-linecap="round" stroke-linejoin="round" stroke-width="2"/><path d="M60.82,191.4l.61,11.41,10.91,3.39-10.65,4.11.16,11.41-7.21-8.87-10.82,3.7L50,207l-6.85-9.16,11,2.92,6.59-9.31" fill="none" stroke="#000" stroke-linecap="round" stroke-linejoin="round" stroke-width="2"/><path d="M91.59,158.65l-2.54,11.13L98.61,176l-11.38,1-3,11-4.48-10.51-11.41.58,8.6-7.53-4-10.69,9.8,5.87,8.9-7.15" fill="none" stroke="#000" stroke-linecap="round" stroke-linejoin="round" stroke-width="2"/><path d="M122.67,136.76l5.56,10,11.3-1.73-7.78,8.38,5.16,10.18-10.37-4.78-8.1,8,1.36-11.35-10.17-5.2L120.84,148l1.83-11.27" fill="none" stroke="#000" stroke-linecap="round" stroke-linejoin="round" stroke-width="2"/></svg>