<svg xmlns="http://www.w3.org/2000/svg" width="600" height="400" viewBox="0 0 600 400"><title>Artboard 1</title><path d="M0,0H600V400H0Z" fill="#bf0a30" fill-rule="evenodd"/><path d="M.22,369.23V338.46H600v30.77Z" fill="#fff" fill-rule="evenodd"/><path d="M.22,61.54V30.77H600V61.54Z" fill="#fff" fill-rule="evenodd"/><path d="M.22,123.08V92.31H600v30.77Z" fill="#fff" fill-rule="evenodd"/><path d="M.22,184.62V153.85H600v30.77Z" fill="#fff" fill-rule="evenodd"/><path d="M.22,246.15V215.39H600v30.76Z" fill="#fff" fill-rule="evenodd"/><path d="M.22,307.69V276.92H600v30.77Z" fill="#fff" fill-rule="evenodd"/><path d="M.22,0V215.39H304.49V0Z" fill="#002868" fill-rule="evenodd"/><path d="M265.48,48l2.78-8.57L261,34.12h9l2.79-8.57,2.78,8.57h9l-7.29,5.3L280.06,48l-7.29-5.3Z" fill="#fff" fill-rule="evenodd"/><path d="M225.4,48l2.79-8.57-7.29-5.3h9l2.78-8.57,2.79,8.57h9l-7.29,5.3L240,48l-7.29-5.3Z" fill="#fff" fill-rule="evenodd"/><path d="M185.33,48l2.78-8.57-7.28-5.3h9l2.79-8.57,2.78,8.57h9l-7.29,5.3L199.91,48l-7.29-5.3Z" fill="#fff" fill-rule="evenodd"/><path d="M145.26,48,148,39.42l-7.29-5.3h9l2.78-8.57,2.79,8.57h9l-7.29,5.3L159.83,48l-7.29-5.3Z" fill="#fff" fill-rule="evenodd"/><path d="M105.18,48,108,39.42l-7.29-5.3h9l2.78-8.57,2.78,8.57h9L117,39.42,119.76,48l-7.29-5.3Z" fill="#fff" fill-rule="evenodd"/><path d="M65.11,48l2.78-8.57-7.29-5.3h9l2.79-8.57,2.78,8.57h9l-7.29,5.3L79.68,48l-7.28-5.3Z" fill="#fff" fill-rule="evenodd"/><path d="M25,48l2.79-8.57-7.29-5.3h9l2.78-8.57,2.79,8.57h9l-7.28,5.3L39.61,48l-7.29-5.3Z" fill="#fff" fill-rule="evenodd"/><path d="M265.48,95.27l2.78-8.57L261,81.4h9l2.79-8.57,2.78,8.57h9l-7.29,5.3,2.79,8.57L272.77,90Z" fill="#fff" fill-rule="evenodd"/><path d="M225.4,95.27l2.79-8.57-7.29-5.3h9l2.78-8.57,2.79,8.57h9l-7.29,5.3L240,95.27,232.69,90Z" fill="#fff" fill-rule="evenodd"/><path d="M185.33,95.27l2.78-8.57-7.28-5.3h9l2.79-8.57,2.78,8.57h9l-7.29,5.3,2.79,8.57L192.62,90Z" fill="#fff" fill-rule="evenodd"/><path d="M145.26,95.27,148,86.7l-7.29-5.3h9l2.78-8.57,2.79,8.57h9l-7.29,5.3,2.78,8.57L152.54,90Z" fill="#fff" fill-rule="evenodd"/><path d="M105.18,95.27,108,86.7l-7.29-5.3h9l2.78-8.57,2.78,8.57h9L117,86.7l2.78,8.57L112.47,90Z" fill="#fff" fill-rule="evenodd"/><path d="M65.11,95.27l2.78-8.57L60.6,81.4h9l2.79-8.57,2.78,8.57h9L76.9,86.7l2.78,8.57L72.4,90Z" fill="#fff" fill-rule="evenodd"/><path d="M25,95.27l2.79-8.57-7.29-5.3h9l2.78-8.57,2.79,8.57h9l-7.28,5.3,2.78,8.57L32.32,90Z" fill="#fff" fill-rule="evenodd"/><path d="M265.48,142.55l2.78-8.57-7.29-5.3h9l2.79-8.56,2.78,8.56h9l-7.29,5.3,2.79,8.57-7.29-5.3Z" fill="#fff" fill-rule="evenodd"/><path d="M225.4,142.55l2.79-8.57-7.29-5.3h9l2.78-8.56,2.79,8.56h9L237.2,134l2.78,8.57-7.29-5.3Z" fill="#fff" fill-rule="evenodd"/><path d="M185.33,142.55l2.78-8.57-7.28-5.3h9l2.79-8.56,2.78,8.56h9l-7.29,5.3,2.79,8.57-7.29-5.3Z" fill="#fff" fill-rule="evenodd"/><path d="M145.26,142.55,148,134l-7.29-5.3h9l2.78-8.56,2.79,8.56h9l-7.29,5.3,2.78,8.57-7.29-5.3Z" fill="#fff" fill-rule="evenodd"/><path d="M105.18,142.55,108,134l-7.29-5.3h9l2.78-8.56,2.78,8.56h9L117,134l2.78,8.57-7.29-5.3Z" fill="#fff" fill-rule="evenodd"/><path d="M65.11,142.55,67.89,134l-7.29-5.3h9l2.79-8.56,2.78,8.56h9L76.9,134l2.78,8.57-7.28-5.3Z" fill="#fff" fill-rule="evenodd"/><path d="M25,142.55,27.82,134l-7.29-5.3h9l2.78-8.56,2.79,8.56h9L36.83,134l2.78,8.57-7.29-5.3Z" fill="#fff" fill-rule="evenodd"/><path d="M265.48,189.83l2.78-8.57L261,176h9l2.79-8.57,2.78,8.57h9l-7.29,5.29,2.79,8.57-7.29-5.29Z" fill="#fff" fill-rule="evenodd"/><path d="M225.4,189.83l2.79-8.57L220.9,176h9l2.78-8.57,2.79,8.57h9l-7.29,5.29,2.78,8.57-7.29-5.29Z" fill="#fff" fill-rule="evenodd"/><path d="M185.33,189.83l2.78-8.57L180.83,176h9l2.79-8.57L195.4,176h9l-7.29,5.29,2.79,8.57-7.29-5.29Z" fill="#fff" fill-rule="evenodd"/><path d="M145.26,189.83l2.78-8.57L140.75,176h9l2.78-8.57,2.79,8.57h9l-7.29,5.29,2.78,8.57-7.29-5.29Z" fill="#fff" fill-rule="evenodd"/><path d="M105.18,189.83l2.79-8.57L100.68,176h9l2.78-8.57,2.78,8.57h9L117,181.26l2.78,8.57-7.29-5.29Z" fill="#fff" fill-rule="evenodd"/><path d="M65.11,189.83l2.78-8.57L60.6,176h9l2.79-8.57L75.18,176h9l-7.29,5.29,2.78,8.57-7.28-5.29Z" fill="#fff" fill-rule="evenodd"/><path d="M25,189.83l2.79-8.57L20.53,176h9l2.78-8.57L35.11,176h9l-7.28,5.29,2.78,8.57-7.29-5.29Z" fill="#fff" fill-rule="evenodd"/></svg>