<svg xmlns="http://www.w3.org/2000/svg" width="600" height="400" viewBox="0 0 600 400"><title>flag-georgia</title><path d="M0,.46H600V400.2H0Z" fill="#fff"/><path d="M0,.46H600V133.71H0Z" fill="#b50027"/><path d="M0,.46H266.49V267H0Z" fill="#002d56"/><path d="M139.21,36.9l9.49-6.7L137.08,30l-3.43-11.1-3.75,11-11.61-.17,9.3,7-3.74,11L133.34,41l9.31,7Z" fill="#fff" fill-rule="evenodd"/><path d="M93.56,45.07l5.29-10.34L88.49,40l-8.21-8.23,1.8,11.48L71.72,48.48l11.47,1.84L85,61.8l5.29-10.34,11.48,1.84Z" fill="#fff" fill-rule="evenodd"/><path d="M56.79,73.74l-.12-11.61-6.74,9.46L38.85,68.12l6.92,9.32L39,86.91l11-3.7L57,92.54l-.12-11.62,11-3.7Z" fill="#fff" fill-rule="evenodd"/><path d="M37.84,116.13l-5.5-10.22-1.56,11.51-11.44,2.07,10.47,5L28.24,136l8-8.39,10.47,5-5.5-10.23,8-8.4Z" fill="#fff" fill-rule="evenodd"/><path d="M40.52,162.37l-9.62-6.51,4,10.93-9.16,7.14,11.61-.39,4,10.92,3.21-11.17,11.61-.4-9.63-6.5,3.22-11.17Z" fill="#fff" fill-rule="evenodd"/><path d="M64.48,202.32,52.94,201l8.58,7.83-4.79,10.58,10.09-5.74,8.58,7.82-2.34-11.38,10.09-5.74-11.54-1.29-2.34-11.38Z" fill="#fff" fill-rule="evenodd"/><path d="M104.33,226.31l-10.82,4.23,11.24,2.94.68,11.6,6.27-9.78,11.23,2.95-7.36-9,6.26-9.78L111,223.7l-7.37-9Z" fill="#fff" fill-rule="evenodd"/><path d="M150.53,229.17l-7.62,8.77,11.32-2.62,6,10,1-11.57,11.32-2.62-10.69-4.53,1-11.57-7.62,8.76-10.69-4.53Z" fill="#fff" fill-rule="evenodd"/><path d="M193,210.28l-2.67,11.3,8.81-7.58,9.93,6-4.49-10.71,8.81-7.57-11.58.95L197.34,192l-2.67,11.3-11.58,1Z" fill="#fff" fill-rule="evenodd"/><path d="M221.71,173.58l2.89,11.25,4.28-10.8,11.59.72-8.95-7.39,4.28-10.8L226,162.78l-9-7.4,2.89,11.25-9.81,6.22Z" fill="#fff" fill-rule="evenodd"/><path d="M216.47,83.65l10.9,4L220.91,78l7.19-9.12L216.92,72l-6.45-9.66L210,74l-11.18,3.16,10.9,4-.45,11.6Z" fill="#fff" fill-rule="evenodd"/><path d="M183.54,50.68l11.51-1.51-10.2-5.55L187,32.2l-8.43,8-10.2-5.55,5,10.49-8.43,8,11.52-1.51,5,10.49Z" fill="#fff" fill-rule="evenodd"/><path d="M230.05,128l7.79,8.62-1.23-11.55,10.6-4.74L235.85,118l-1.23-11.55-5.8,10.07-11.36-2.39,7.78,8.62-5.79,10.07Z" fill="#fff" fill-rule="evenodd"/><path d="M154.81,129.91s.36-.4.48-.11.14.54,0,.65-.08.17-.23.35-.08.29-.21.38-.2,0-.35,0l-.06.45-.1.38.05.36.26.57-.2-.43.28.47c.21.55,2.19,1.1,2.9,1.43,1.5.66,1.26,3.84,1.42,4.15a43,43,0,0,1,.79,5.23c0,.7-.79,4.51-.87,5.3,0,.39-.14,1.33-.23,2.28,0,.18-.29-.06-.38.11a3,3,0,0,0-.07,1.08c0,.46-.18.82-.2,1.06a1,1,0,0,1-.87.94,35.52,35.52,0,0,1-.19,3.66,6,6,0,0,0,0,2.81,15.42,15.42,0,0,1-.31,4.4s-.81,3.58-1,4.13a2.92,2.92,0,0,0,.19,1.45,7.41,7.41,0,0,1,.07,1h-6.9c-.18,0,.12-.62.35-1.06a1.29,1.29,0,0,1,.9-.59c.47-.08.51-.59.79-1.22a5.23,5.23,0,0,0-.08-2.79,19.48,19.48,0,0,1-.55-3.53,13.89,13.89,0,0,0-.78-3.42,17.78,17.78,0,0,1-.59-3.73,1.45,1.45,0,0,0-.13-.45c-.11-.27-.12-.66-.35-1.28a12.34,12.34,0,0,1-.39-3.58,6.73,6.73,0,0,0-.67-2.67l-.12-.49-1.21.38-1.18.91a1.52,1.52,0,0,1-1,.32c-.92.08-1.83-1-2-2.55-.23-1.72.1-2.46,2-2.45h.85l.74,0H146s.22.42-.12.57a2.88,2.88,0,0,1-.42.17l.42.49a9.69,9.69,0,0,1,1-.55l.26-.62a2.82,2.82,0,0,0,0-.91c-.08-.43-.23-2.92-.23-3.51s0-1.28.08-2a9,9,0,0,1,.34-2.58c.38-.73,2.39-1.05,2.39-1.05s.88-.09,1-.33c0-.08.26-.46.35-.61-.56-.2-.74-.89-.83-1.06a10.43,10.43,0,0,1-.25-1.06c0-.11-.21-.84-.3-1.13a2.26,2.26,0,0,1,0-.82l-.64-.07-.77-.06a5.08,5.08,0,0,1-.54-.1c-.12,0-.49-.12-.49-.12s-.61-.53,0-1,1.33-.81,1.45-.88a.46.46,0,0,0,.16-.19v-.15a3.75,3.75,0,0,1-.45-1.14c-.18-.63,1.49-.9,1.49-.9.48,0,2.09.17,1.92.14a5.49,5.49,0,0,0,1.2.06,9.51,9.51,0,0,1,2,.33,2,2,0,0,1,1.18,1c.24.44,1.22,1,1.51,1.29a10.18,10.18,0,0,1,1.15,1.64c.35.56,0,.43-.14.5-.55.32-3.58-.36-3.32-.33s.17,0-.07-.18V129l-.17.67Z" fill="#eed000" fill-rule="evenodd"/><path d="M145.11,148.55a1.52,1.52,0,0,1-1,.32c-.92.08-1.83-1-2-2.55-.23-1.72,0-2.44,1.7-2.49" fill="none" stroke="#002d56" stroke-miterlimit="3.86" stroke-width="0.5"/><path d="M85,193.85H81.64v-.37l.41,0a1.61,1.61,0,0,0,.38-.07.44.44,0,0,0,.25-.18.54.54,0,0,0,.08-.33v-5.42a.91.91,0,0,0-.05-.31.5.5,0,0,0-.28-.21,2.23,2.23,0,0,0-.4-.11,1.8,1.8,0,0,0-.39-.07v-.38H85v.38a3.22,3.22,0,0,0-.39,0l-.4.08a.45.45,0,0,0-.27.21.79.79,0,0,0-.07.32v5.41a.62.62,0,0,0,.08.31.51.51,0,0,0,.26.21l.36.1a2.58,2.58,0,0,0,.43,0v.37Z" fill="#eed000" fill-rule="evenodd"/><path d="M94.22,186.75a2.24,2.24,0,0,0-.45.08,1.49,1.49,0,0,0-.44.17.72.72,0,0,0-.25.5,5.05,5.05,0,0,0-.07.95v5.48h-.46L88,187.81v3.86a4.25,4.25,0,0,0,.08,1,.94.94,0,0,0,.25.5,1.26,1.26,0,0,0,.5.21,2.56,2.56,0,0,0,.5.11v.37H86.29v-.37a3.15,3.15,0,0,0,.48-.1,1.26,1.26,0,0,0,.43-.17.82.82,0,0,0,.25-.45,5.85,5.85,0,0,0,.07-1V188a1.46,1.46,0,0,0-.09-.49.89.89,0,0,0-.22-.37,1.7,1.7,0,0,0-.52-.3,1.63,1.63,0,0,0-.52-.13v-.38H88.3l4.2,5.71v-3.56a4.93,4.93,0,0,0-.08-1,.85.85,0,0,0-.24-.47,1.86,1.86,0,0,0-.49-.2,2.26,2.26,0,0,0-.5-.1v-.38h3v.38Z" fill="#eed000" fill-rule="evenodd"/><path d="M105.24,190.86l-.34.06a1.28,1.28,0,0,0-.34.09.47.47,0,0,0-.23.23.86.86,0,0,0-.06.34V193c0,.15,0,.27,0,.36a7.69,7.69,0,0,1-1.39.49,5.89,5.89,0,0,1-1.36.17,3.61,3.61,0,0,1-1.38-.27A3.41,3.41,0,0,1,99,193a3.65,3.65,0,0,1-.8-1.21,4.35,4.35,0,0,1-.29-1.61,4.3,4.3,0,0,1,.28-1.58,3.71,3.71,0,0,1,.8-1.27,3.57,3.57,0,0,1,1.19-.82,3.87,3.87,0,0,1,1.48-.29,3.61,3.61,0,0,1,1.1.15,4.24,4.24,0,0,1,.83.37l.21-.36h.43l0,2.62h-.43a6.45,6.45,0,0,0-.27-.85,3,3,0,0,0-.42-.75,1.91,1.91,0,0,0-.64-.53,1.74,1.74,0,0,0-.88-.2,2.21,2.21,0,0,0-1,.23,2.13,2.13,0,0,0-.76.68,3.23,3.23,0,0,0-.5,1.09,6,6,0,0,0-.17,1.46,5,5,0,0,0,.17,1.35,3.26,3.26,0,0,0,.5,1.08,2.39,2.39,0,0,0,.81.74,2.28,2.28,0,0,0,1.11.27,2.57,2.57,0,0,0,.85-.14,1.63,1.63,0,0,0,.54-.31,3.31,3.31,0,0,0,0-.55v-.88a1.14,1.14,0,0,0-.06-.39.43.43,0,0,0-.25-.26,1.55,1.55,0,0,0-.47-.11l-.46-.06v-.38h3.27v.38Z" fill="#eed000" fill-rule="evenodd"/><path d="M112.59,187.26a3.52,3.52,0,0,1,.77,1.25,4.35,4.35,0,0,1,.28,1.61,4.45,4.45,0,0,1-.28,1.62,3.76,3.76,0,0,1-.79,1.24,3.41,3.41,0,0,1-1.14.78,3.54,3.54,0,0,1-1.38.27,3.43,3.43,0,0,1-1.44-.29,3.3,3.3,0,0,1-1.13-.81,3.78,3.78,0,0,1-.75-1.24,4.5,4.5,0,0,1-.27-1.57,4.3,4.3,0,0,1,.28-1.62,3.71,3.71,0,0,1,.79-1.24,3.24,3.24,0,0,1,1.15-.79,3.53,3.53,0,0,1,1.37-.28,3.64,3.64,0,0,1,1.4.28,3.38,3.38,0,0,1,1.14.79Zm-.79,5.3a3.44,3.44,0,0,0,.43-1.08,6.32,6.32,0,0,0,.14-1.36,5.69,5.69,0,0,0-.16-1.41,3.33,3.33,0,0,0-.43-1.1,2.09,2.09,0,0,0-.73-.69,2.09,2.09,0,0,0-2.07,0,2.28,2.28,0,0,0-.73.78,4,4,0,0,0-.39,1.08,6.93,6.93,0,0,0-.13,1.31,6.34,6.34,0,0,0,.14,1.37,3.65,3.65,0,0,0,.43,1.09,2.07,2.07,0,0,0,.72.72,1.9,1.9,0,0,0,1,.26,2,2,0,0,0,1-.26,2.07,2.07,0,0,0,.73-.74Z" fill="#eed000" fill-rule="evenodd"/><path d="M121.92,190.16a3.55,3.55,0,0,1-.36,1.65,3.42,3.42,0,0,1-.93,1.15,4.12,4.12,0,0,1-1.3.67,5,5,0,0,1-1.49.22h-3.1v-.37l.4,0a1,1,0,0,0,.32-.07.42.42,0,0,0,.23-.2.66.66,0,0,0,.07-.32v-5.4a.79.79,0,0,0-.06-.32.45.45,0,0,0-.24-.23,1.3,1.3,0,0,0-.35-.11,1.56,1.56,0,0,0-.33-.05v-.38h3.27a4.24,4.24,0,0,1,1.32.21,4,4,0,0,1,1.14.56,3.33,3.33,0,0,1,1,1.23,4,4,0,0,1,.38,1.79Zm-1.29,0a4.46,4.46,0,0,0-.2-1.36,3.13,3.13,0,0,0-.59-1.06,2.49,2.49,0,0,0-.89-.68,2.65,2.65,0,0,0-1.18-.25h-.89v5.75a.77.77,0,0,0,.28.67,1.62,1.62,0,0,0,.86.18,2.66,2.66,0,0,0,1.17-.24,2,2,0,0,0,.81-.66,2.66,2.66,0,0,0,.47-1,5,5,0,0,0,.16-1.35Z" fill="#eed000" fill-rule="evenodd"/><path d="M136.18,186.75a.93.93,0,0,0-.3.06,1.55,1.55,0,0,0-.32.14,1,1,0,0,0-.3.27,1.37,1.37,0,0,0-.2.42l-.87,2.84c-.33,1.09-.68,2.24-1.07,3.47h-.48l-1.88-5.76-2,5.76h-.46c-.35-1.23-.71-2.51-1.08-3.83s-.62-2.21-.75-2.66a.87.87,0,0,0-.14-.29.8.8,0,0,0-.25-.23.79.79,0,0,0-.31-.13.94.94,0,0,0-.31-.06v-.38h3v.38a4.1,4.1,0,0,0-.68.08c-.19,0-.28.1-.28.19a.93.93,0,0,0,0,.14,1.15,1.15,0,0,1,0,.14c.08.31.23.82.43,1.53s.51,1.78.91,3.2l1.87-5.55h.51l1.88,5.67c.26-.87.47-1.63.66-2.28s.33-1.21.45-1.68c.08-.32.14-.55.16-.67a1.89,1.89,0,0,0,0-.31c0-.12-.08-.22-.25-.3a2.33,2.33,0,0,0-.79-.16v-.38h2.71Z" fill="#eed000" fill-rule="evenodd"/><path d="M143.44,191.65l-.14,2.2h-6.21v-.37l.42,0a1.52,1.52,0,0,0,.35-.08.46.46,0,0,0,.23-.2.76.76,0,0,0,.07-.32v-5.38a.75.75,0,0,0-.06-.31.47.47,0,0,0-.24-.22l-.39-.12a2.4,2.4,0,0,0-.38-.06v-.38h5.78v1.81h-.39a2.31,2.31,0,0,0-.46-.85,1.14,1.14,0,0,0-.66-.5l-.39,0h-1.69v3h.84a1.7,1.7,0,0,0,.59-.07.75.75,0,0,0,.33-.26,1.42,1.42,0,0,0,.2-.41,3.26,3.26,0,0,0,.11-.48h.39v2.93h-.39a2.94,2.94,0,0,0-.12-.54,1.31,1.31,0,0,0-.19-.41.73.73,0,0,0-.37-.27,2,2,0,0,0-.55-.06h-.84v2.24a2,2,0,0,0,.05.54.46.46,0,0,0,.18.29.77.77,0,0,0,.37.13,5.89,5.89,0,0,0,.68,0H141l.47,0a3.34,3.34,0,0,0,.42-.07.6.6,0,0,0,.3-.16,3.53,3.53,0,0,0,.51-.76,5.4,5.4,0,0,0,.34-.76Z" fill="#eed000" fill-rule="evenodd"/><path d="M154.43,188.4h-.37a3.31,3.31,0,0,0-.45-.94,2.4,2.4,0,0,0-.34-.42.6.6,0,0,0-.36-.21l-.41,0h-.76v6a.71.71,0,0,0,.07.32.48.48,0,0,0,.26.22,3.27,3.27,0,0,0,.39.1,2.89,2.89,0,0,0,.48.07v.37h-3.53v-.37l.45,0a1.82,1.82,0,0,0,.42-.08.51.51,0,0,0,.25-.2.61.61,0,0,0,.08-.35v-6h-.3l-.41,0a3.44,3.44,0,0,0-.46,0,.57.57,0,0,0-.36.21,2.44,2.44,0,0,0-.35.42,4.11,4.11,0,0,0-.27.51,2.09,2.09,0,0,0-.17.43h-.37v-2h6.51v2Z" fill="#eed000" fill-rule="evenodd"/><path d="M162.92,193.85h-2c-.45-.7-.85-1.3-1.21-1.81s-.75-1-1.17-1.58h-.77v2.38a.79.79,0,0,0,.06.32.41.41,0,0,0,.25.21,1.19,1.19,0,0,0,.33.07,3.58,3.58,0,0,0,.4,0v.37h-3.16v-.37l.36,0a1.2,1.2,0,0,0,.34-.07.42.42,0,0,0,.23-.2.65.65,0,0,0,.07-.33v-5.41a1.09,1.09,0,0,0,0-.33.43.43,0,0,0-.25-.22,1.9,1.9,0,0,0-.34-.08,1.81,1.81,0,0,0-.36-.05v-.38h3.45a4.18,4.18,0,0,1,.89.1,2.52,2.52,0,0,1,.75.31,1.64,1.64,0,0,1,.52.56,1.57,1.57,0,0,1,.2.81,2.26,2.26,0,0,1-.13.77,1.61,1.61,0,0,1-.39.57,2.42,2.42,0,0,1-.57.4,4.82,4.82,0,0,1-.73.28c.37.49.67.9.91,1.23l.9,1.22a3,3,0,0,0,.42.47,2.31,2.31,0,0,0,.37.24,1.31,1.31,0,0,0,.35.11,2.55,2.55,0,0,0,.34,0v.37Zm-2.77-5.57a1.37,1.37,0,0,0-1.49-1.48h-.9V190h.69a1.66,1.66,0,0,0,1.21-.46,1.68,1.68,0,0,0,.49-1.27Z" fill="#eed000" fill-rule="evenodd"/><path d="M170.73,186.75a2.26,2.26,0,0,0-.43.06,1.6,1.6,0,0,0-.47.17.79.79,0,0,0-.24.51,4.85,4.85,0,0,0-.07.92v3.26a2.21,2.21,0,0,1-.26,1.08,2.33,2.33,0,0,1-.68.75,3.06,3.06,0,0,1-.88.41,3.45,3.45,0,0,1-.88.12,3.69,3.69,0,0,1-1.2-.18,2.55,2.55,0,0,1-.88-.47,1.94,1.94,0,0,1-.53-.69,1.91,1.91,0,0,1-.18-.81v-4.42a.59.59,0,0,0-.07-.31.49.49,0,0,0-.24-.23,1,1,0,0,0-.33-.11,1.28,1.28,0,0,0-.34-.06v-.38h3.11v.38a3.15,3.15,0,0,0-.37,0l-.33.08a.42.42,0,0,0-.24.21.88.88,0,0,0-.06.33v4.13a3.52,3.52,0,0,0,.06.63,1.75,1.75,0,0,0,.27.61,1.52,1.52,0,0,0,.55.48,2.18,2.18,0,0,0,1,.18,2.3,2.3,0,0,0,1-.18,1.71,1.71,0,0,0,.62-.49,1.77,1.77,0,0,0,.31-.59,2.28,2.28,0,0,0,.09-.63v-3.07a4.07,4.07,0,0,0-.09-.95.8.8,0,0,0-.24-.49,1.51,1.51,0,0,0-.51-.21,2.34,2.34,0,0,0-.48-.08v-.38h3v.38Z" fill="#eed000" fill-rule="evenodd"/><path d="M176.27,190.42a1.84,1.84,0,0,1,.35.58,2,2,0,0,1,.11.73,2.07,2.07,0,0,1-.73,1.63,2.64,2.64,0,0,1-1.81.65,3.43,3.43,0,0,1-1-.16,3.5,3.5,0,0,1-.87-.38l-.22.39h-.43l-.07-2.56H172a6.18,6.18,0,0,0,.3.86,3.24,3.24,0,0,0,.47.71,2.18,2.18,0,0,0,.64.49,1.78,1.78,0,0,0,.85.19,1.74,1.74,0,0,0,.63-.1,1.06,1.06,0,0,0,.45-.27,1,1,0,0,0,.24-.4,1.55,1.55,0,0,0,.09-.55,1.54,1.54,0,0,0-1-1.42l-.78-.3c-.3-.11-.55-.22-.77-.32a2.34,2.34,0,0,1-1-.74,2,2,0,0,1-.35-1.21,1.76,1.76,0,0,1,.18-.79,2,2,0,0,1,.49-.66,2.16,2.16,0,0,1,.72-.43,2.58,2.58,0,0,1,.87-.16,2.65,2.65,0,0,1,.92.16,4.76,4.76,0,0,1,.75.37l.21-.36h.43l0,2.49H176c-.08-.29-.16-.56-.26-.82a2.84,2.84,0,0,0-.38-.71,1.69,1.69,0,0,0-.55-.48,1.53,1.53,0,0,0-.8-.19,1.23,1.23,0,0,0-.85.32,1,1,0,0,0-.35.79,1.4,1.4,0,0,0,.22.81,1.68,1.68,0,0,0,.66.52c.26.12.51.23.75.32s.49.18.72.28a5,5,0,0,1,.61.32,2.06,2.06,0,0,1,.51.4Z" fill="#eed000" fill-rule="evenodd"/><path d="M184.36,188.4H184a3,3,0,0,0-.17-.45,3.84,3.84,0,0,0-.27-.49,3,3,0,0,0-.35-.42.57.57,0,0,0-.36-.21l-.41,0h-.76v6a.71.71,0,0,0,.07.32.52.52,0,0,0,.26.22,3.27,3.27,0,0,0,.39.1,2.89,2.89,0,0,0,.48.07v.37h-3.53v-.37l.45,0a1.82,1.82,0,0,0,.42-.08.51.51,0,0,0,.25-.2.61.61,0,0,0,.08-.35v-6h-.3l-.41,0a3.44,3.44,0,0,0-.46,0,.6.6,0,0,0-.36.21,2,2,0,0,0-.34.42,3.15,3.15,0,0,0-.28.51,2.88,2.88,0,0,0-.17.43h-.37v-2h6.51Z" fill="#eed000" fill-rule="evenodd"/><path d="M133.51,99.12h0a1.74,1.74,0,0,1,.93,1.78q1.23-.24,1,1.29s-1-.26-1.13.29a1.22,1.22,0,0,0,.55,1.56s1,.8,1.64-.71l.86-2a3.83,3.83,0,0,1,2.19-2.05,1.72,1.72,0,0,1,1.1,0s.83.18.85.88a1.1,1.1,0,0,1-.73,1.21c-.52.22-1.16-.26-1.16-.26a.45.45,0,0,0-.43.13,2,2,0,0,0-.48.66,14.2,14.2,0,0,0-.69,1.73c-.17.59-.56,2.37-2.36,2.64h-4.26c-1.8-.27-2.19-2-2.36-2.64a14.2,14.2,0,0,0-.69-1.73,2,2,0,0,0-.48-.66.46.46,0,0,0-.43-.13s-.64.48-1.16.26a1.11,1.11,0,0,1-.74-1.21c0-.7.86-.88.86-.88a1.72,1.72,0,0,1,1.1,0,3.78,3.78,0,0,1,2.18,2.05s.23.51.87,2,1.64.71,1.64.71a1.2,1.2,0,0,0,.54-1.56c-.15-.55-1.12-.29-1.12-.29-.16-1,.17-1.45,1-1.29a1.75,1.75,0,0,1,.94-1.78h0Z" fill="#eed000"/><path d="M138.81,147.77H128.5l1.22-40.22h7.92Z" fill="#eed000" stroke="#002d56" stroke-miterlimit="3.86" stroke-width="0.75" fill-rule="evenodd"/><path d="M138.77,170.13h-11V151.87h11Z" fill="#eed000" stroke="#002d56" stroke-miterlimit="3.86" stroke-width="0.75" fill-rule="evenodd"/><path d="M127.64,149.79h11.1c.77,0,1.4.47,1.4,1.05s-.63,1-1.4,1h-11.1c-.77,0-1.4-.47-1.4-1S126.87,149.79,127.64,149.79Z" fill="#eed000" stroke="#002d56" stroke-miterlimit="3.86" stroke-width="0.75"/><path d="M128.46,147.81h9.69a1.14,1.14,0,0,1,1.25,1h0a1.15,1.15,0,0,1-1.25,1h-9.69a1.14,1.14,0,0,1-1.24-1h0A1.14,1.14,0,0,1,128.46,147.81Z" fill="#eed000" stroke="#002d56" stroke-miterlimit="3.86" stroke-width="0.75" fill-rule="evenodd"/><path d="M130.29,155.29h5.85v12h-5.85Z" fill="#eed000" stroke="#002d56" stroke-miterlimit="3.86" stroke-width="0.75"/><path d="M130.17,106.14h6.72c.55,0,1,.33,1,.73s-.45.73-1,.73h-6.72c-.55,0-1-.33-1-.73S129.62,106.14,130.17,106.14Z" fill="#eed000" stroke="#002d56" stroke-miterlimit="3.86" stroke-width="0.75"/><path d="M78.44,172.32H190v3.76H78.44Z" fill="#eed000" stroke="#002d56" stroke-miterlimit="3.86" stroke-width="0.75" fill-rule="evenodd"/><path d="M73.68,176.05H194.85v4H73.68Z" fill="#eed000" stroke="#002d56" stroke-miterlimit="3.86" stroke-width="0.75"/><path d="M81.74,90.63H185.91v2.3H81.74Z" fill="#eed000" stroke="#002d56" stroke-miterlimit="3.86" stroke-width="0.75" fill-rule="evenodd"/><path d="M166.29,90.56a35,35,0,0,0-65,0h-13c6-19.87,24.1-34.44,45.45-34.44s39.49,14.54,45.48,34.43Z" fill="#eed000" stroke="#002d56" stroke-miterlimit="3.86" stroke-width="0.75" fill-rule="evenodd"/><path d="M84.54,93a10,10,0,0,1,3.3,4.29h92.67S182,93.66,184.13,93Z" fill="#eed000" stroke="#002d56" stroke-miterlimit="3.86" stroke-width="0.75" fill-rule="evenodd"/><path d="M107.53,98.08s8.58,14.73,26,14.53c17.25-.2,26-14,26-14l4.6,6.82s1.7,2.3-1.6,5.21c-11.65,10.26-20.88,12.28-29,12.22q-18.06-1-29.14-12.22a3.4,3.4,0,0,1-1.2-3.76Z" fill="#eed000" stroke="#002d56" stroke-miterlimit="3.86" stroke-width="0.75" fill-rule="evenodd"/><path d="M103.06,108.38s-.53-3,4.17-.58l.35-9.67" fill="#eed000" stroke="#002d56" stroke-miterlimit="3.86" stroke-width="0.75"/><path d="M164.54,106.35c-1.5-3.23-4.25.72-4.25.72l-.69-8.44" fill="#eed000" stroke="#002d56" stroke-miterlimit="3.86" stroke-width="0.75"/><path d="M87.34,97.42h93.17a.62.62,0,0,1,.6.63v.2a.62.62,0,0,1-.6.63H87.34a.62.62,0,0,1-.6-.63v-.2A.62.62,0,0,1,87.34,97.42Z" fill="#eed000" stroke="#002d56" stroke-miterlimit="3.86" stroke-width="0.75"/><path d="M95.57,99h0a1.74,1.74,0,0,1,.93,1.78q1.23-.22,1,1.29s-1-.26-1.12.29a1.22,1.22,0,0,0,.54,1.57s1,.8,1.64-.72.87-2,.87-2a3.78,3.78,0,0,1,2.18-2,1.72,1.72,0,0,1,1.1,0s.83.18.86.88a1.1,1.1,0,0,1-.74,1.2c-.52.22-1.16-.26-1.16-.26a.47.47,0,0,0-.43.13,2.24,2.24,0,0,0-.48.66,14.2,14.2,0,0,0-.69,1.73c-.17.59-.56,2.37-2.36,2.64H93.47c-1.8-.27-2.19-2-2.36-2.64a14.2,14.2,0,0,0-.69-1.73,2.24,2.24,0,0,0-.48-.66.47.47,0,0,0-.43-.13s-.64.48-1.16.26a1.1,1.1,0,0,1-.74-1.2c0-.7.86-.88.86-.88a1.72,1.72,0,0,1,1.1,0,3.78,3.78,0,0,1,2.18,2s.23.52.87,2,1.64.72,1.64.72a1.22,1.22,0,0,0,.54-1.57c-.15-.55-1.12-.29-1.12-.29q-.24-1.52,1-1.29A1.74,1.74,0,0,1,95.6,99h0Z" fill="#eed000"/><path d="M100.75,147.77H90.45l1.37-40.22h7.61Z" fill="#eed000" stroke="#002d56" stroke-miterlimit="3.86" stroke-width="0.75" fill-rule="evenodd"/><path d="M101.07,170.13H90.13V151.87h10.94Z" fill="#eed000" stroke="#002d56" stroke-miterlimit="3.86" stroke-width="0.75" fill-rule="evenodd"/><path d="M90.05,149.79h11.1c.77,0,1.4.47,1.4,1.05h0c0,.58-.63,1-1.4,1H90.05c-.77,0-1.4-.47-1.4-1h0c0-.58.63-1.05,1.4-1.05Z" fill="#eed000" stroke="#002d56" stroke-miterlimit="3.86" stroke-width="0.75" fill-rule="evenodd"/><path d="M90.76,147.81h9.68a1.14,1.14,0,0,1,1.25,1h0a1.15,1.15,0,0,1-1.25,1H90.76a1.15,1.15,0,0,1-1.25-1h0A1.14,1.14,0,0,1,90.76,147.81Z" fill="#eed000" stroke="#002d56" stroke-miterlimit="3.86" stroke-width="0.75" fill-rule="evenodd"/><path d="M92.68,155.29h5.84v12H92.68Z" fill="#eed000" stroke="#002d56" stroke-miterlimit="3.86" stroke-width="0.75"/><path d="M92.24,106.3H99c.55,0,1,.32,1,.72s-.45.73-1,.73H92.24c-.55,0-1-.32-1-.73s.45-.72,1-.72Z" fill="#eed000" stroke="#002d56" stroke-miterlimit="3.86" stroke-width="0.75"/><path d="M87.8,170.18h15.6v2.1H87.8Z" fill="#eed000" stroke="#002d56" stroke-miterlimit="3.86" stroke-width="0.75" fill-rule="evenodd"/><path d="M172,99.12h0a1.75,1.75,0,0,1,.94,1.78c.81-.16,1.14.27,1,1.29,0,0-1-.26-1.12.29a1.2,1.2,0,0,0,.54,1.56s1,.8,1.64-.71.87-2,.87-2a3.78,3.78,0,0,1,2.18-2.05,1.72,1.72,0,0,1,1.1,0s.83.18.86.88a1.11,1.11,0,0,1-.73,1.21,1.4,1.4,0,0,1-1.17-.26.46.46,0,0,0-.43.13,2.13,2.13,0,0,0-.48.66,14.2,14.2,0,0,0-.69,1.73c-.17.59-.55,2.37-2.36,2.64h-4.26c-1.8-.27-2.19-2-2.36-2.64a14.93,14.93,0,0,0-.68-1.73,2.11,2.11,0,0,0-.49-.66A.44.44,0,0,0,166,101s-.64.48-1.16.26a1.1,1.1,0,0,1-.73-1.21c0-.7.85-.88.85-.88a1.72,1.72,0,0,1,1.1,0,3.83,3.83,0,0,1,2.19,2.05l.86,2c.63,1.51,1.64.71,1.64.71a1.22,1.22,0,0,0,.55-1.56c-.16-.55-1.13-.29-1.13-.29q-.24-1.53,1-1.29c0-1.45.93-1.78.93-1.78h0Z" fill="#eed000"/><path d="M177.39,147.77H167.08l1.37-40.22h7.62Z" fill="#eed000" stroke="#002d56" stroke-miterlimit="3.86" stroke-width="0.75" fill-rule="evenodd"/><path d="M178,170.13H167l-.11-18.26H178Z" fill="#eed000" stroke="#002d56" stroke-miterlimit="3.86" stroke-width="0.75" fill-rule="evenodd"/><path d="M166.91,149.79H178c.77,0,1.4.47,1.4,1.05s-.63,1-1.4,1h-11.1c-.77,0-1.4-.47-1.4-1S166.14,149.79,166.91,149.79Z" fill="#eed000" stroke="#002d56" stroke-miterlimit="3.86" stroke-width="0.75"/><path d="M167.48,147.81h9.68a1.14,1.14,0,0,1,1.25,1h0a1.15,1.15,0,0,1-1.25,1h-9.68a1.15,1.15,0,0,1-1.25-1h0A1.14,1.14,0,0,1,167.48,147.81Z" fill="#eed000" stroke="#002d56" stroke-miterlimit="3.86" stroke-width="0.75" fill-rule="evenodd"/><path d="M169.46,155.29h5.85v12h-5.85Z" fill="#eed000" stroke="#002d56" stroke-miterlimit="3.86" stroke-width="0.75"/><path d="M168.83,106.14h6.71c.56,0,1,.33,1,.73s-.44.73-1,.73h-6.71c-.56,0-1-.33-1-.73S168.27,106.14,168.83,106.14Z" fill="#eed000" stroke="#002d56" stroke-miterlimit="3.86" stroke-width="0.75"/><path d="M125.24,170.18h15.6v2.1h-15.6Z" fill="#eed000" stroke="#002d56" stroke-miterlimit="3.86" stroke-width="0.75" fill-rule="evenodd"/><path d="M67.34,141.66a7.78,7.78,0,0,0-5.45-1.4,4.47,4.47,0,0,1,5.25-1.35c2,.85,3.8,4,9,.7s7.22-5,11.8-6.52,8.39-1.9,9.49-2.3,2.82-1,3.7-6.32c.2-1.2,5,10,5,10s-.7,3.7-5.3,5.81-12.56,3.36-17,6.91c-1.5,1.21-4.38,3.29-6.12,5.84-4.1,6-8.38,6.69-8.38,6.69a17.36,17.36,0,0,0,5-8c.2-.85-.13-4.68,1.4-6.21-1.62,1.62-5.72-1.58-5.2-1.15a12.59,12.59,0,0,0-3.15-2.76Z" fill="#eed000" stroke="#002d56" stroke-miterlimit="3.86" stroke-width="0.75" fill-rule="evenodd"/><path d="M166.56,124.57s.8,4.56,9.75,6.87,10.35,5.21,11.8,5.91,5.21,3.4,9.25,2.05c1.58-.53,6-1.75,6.38-1.48a11.24,11.24,0,0,1-1.44,2.79c-3,3.51-4.09,4-5.19,4.61-2.41,1.2-2.59,1.35-4.3,1.45a10.27,10.27,0,0,1,1.85,5.26c.25,3.26,4.6,6.56,4.6,6.56s-5.8-1.5-8.35-5a28.21,28.21,0,0,0-8.3-7.16c-1.55-.75-9.45-3.46-11.1-4.11s-6.79-3.36-7.49-7.72,2.54-10.07,2.54-10.07Z" fill="#eed000" stroke="#002d56" stroke-miterlimit="3.86" stroke-width="0.75" fill-rule="evenodd"/><path d="M81.73,128.08c-6.07-2.38-4.19-4-4.19-4,1.49-2.67,3.45-6,10.85-8.87,9.89-3.81,20-2.11,17.29,2.3-1.64,2.68-4.47,7.37-4.47,7.37s-1.18-3.16-6.57-1.16-7.07,2.86-7.39,3.92c-.5,1.65-.3,2.7,3.6,2.1-2.55.85-5.39,0-8.58-1.45Z" fill="#eed000" stroke="#002d56" stroke-miterlimit="3.86" stroke-width="0.75"/><path d="M174.29,123.58a15.54,15.54,0,0,1,4.17,2c5.5,4,4.48,7.4,3,7.49-1.7.1,10.79-.25,12.29-1s2-1.7,1.1-3.61-7.7-13.52-18.8-15.73-15.49,2.48-14.54,4.06,5,6.51,5.14,8.57c1.14-2.15,3.7-2.76,7.68-1.76Z" fill="#eed000" stroke="#002d56" stroke-miterlimit="3.86" stroke-width="0.75"/><path d="M169,121.43l-2.14-3.08.55,3.35-.85.14-1-5.82.92-.16,2.79,3.9,1.4-4.6.81-.14,1,5.83-1.13.19-.56-3.34-1.14,3.62Z" fill="#002d56" fill-rule="evenodd"/><path d="M177.81,119.2a3.14,3.14,0,0,1-1,2,2.07,2.07,0,0,1-1.78.39,2.12,2.12,0,0,1-1.48-1,3.21,3.21,0,0,1-.2-2.2l.07-.33a3.46,3.46,0,0,1,1-1.93,2,2,0,0,1,1.87-.45,2,2,0,0,1,1.49,1.14,3.6,3.6,0,0,1,.14,2.16Zm-1.23-.33,0-.16a5.39,5.39,0,0,0,.14-1.62.78.78,0,0,0-.72-.69.8.8,0,0,0-.9.3,4.6,4.6,0,0,0-.53,1.6l0,.14a5.24,5.24,0,0,0-.16,1.68c.06.32.31.52.74.61a.82.82,0,0,0,.86-.32,3.83,3.83,0,0,0,.56-1.54Z" fill="#002d56" fill-rule="evenodd"/><path d="M182.55,121.75a3.46,3.46,0,0,1-1.5,1.62,1.86,1.86,0,0,1-1.73-.15l-1.8-1,2.81-5.19,1.62.88a2.06,2.06,0,0,1,1.22,1.53,3.45,3.45,0,0,1-.51,2.08Zm-1.1-.64.08-.14a2.82,2.82,0,0,0,.42-1.45,1,1,0,0,0-.52-.87l-.41-.23-2,3.65.5.27a.9.9,0,0,0,.91,0,3.21,3.21,0,0,0,1-1.26Z" fill="#002d56" fill-rule="evenodd"/><path d="M185.76,122l-1.11,1.13,1.19,1.17-.63.64L184,123.76,182.86,125l1.64,1.62-.62.63-2.54-2.5,4.13-4.22,2.43,2.4-.61.62Z" fill="#002d56" fill-rule="evenodd"/><path d="M186.34,131.34l-.63-1.08a5.84,5.84,0,0,0,1.62-1.26.82.82,0,0,0,.14-1l-.15-.25L185,129.12,184.4,128l5.08-3,1.12,1.9a1.53,1.53,0,0,1,.26,1.17,1.29,1.29,0,0,1-.61.75L190,129a1.08,1.08,0,0,1-.84.15,1.33,1.33,0,0,1-.76-.57,1.58,1.58,0,0,1-.29,1.32,5.42,5.42,0,0,1-1.74,1.42Zm2.9-3.34.14-.08a.69.69,0,0,0,.37-.44.86.86,0,0,0-.15-.58l-.21-.36-1.34.8.17.29a1,1,0,0,0,.48.47A.65.65,0,0,0,189.24,128Z" fill="#002d56" fill-rule="evenodd"/><path d="M170.41,138.63l-1-.76.5-1.39-1.5-1.09-1.17.9-.83-.61,5-3.67,1,.69Zm-.27-3,.72-2.17-1.8,1.38Z" fill="#002d56" fill-rule="evenodd"/><path d="M177,136.17l-1.09-.53-2.2,4.52-1.13-.56,2.2-4.52-1.12-.54.38-.8,3.35,1.64Z" fill="#002d56" fill-rule="evenodd"/><path d="M179.67,136.29l-2.3,5.44-1.16-.5,2.3-5.44Z" fill="#002d56" fill-rule="evenodd"/><path d="M184.13,141.69a3.13,3.13,0,0,1-1.44,1.69,2.24,2.24,0,0,1-3-1.36,3.14,3.14,0,0,1,.27-2.19l.14-.3a3.49,3.49,0,0,1,1.39-1.68,2,2,0,0,1,1.91,0,1.94,1.94,0,0,1,1.21,1.44,3.55,3.55,0,0,1-.32,2.14ZM183,141.1l.06-.15a5.46,5.46,0,0,0,.5-1.55,1,1,0,0,0-1.51-.74,5,5,0,0,0-.86,1.46l-.06.13a5,5,0,0,0-.51,1.6c0,.33.18.58.58.76a.84.84,0,0,0,.92-.13,3.93,3.93,0,0,0,.88-1.38Z" fill="#002d56" fill-rule="evenodd"/><path d="M188.07,144.18l1.74-3,.78.45-2.94,5.11-.47-.27-.58-4.62L184.75,145l-.78-.45,2.95-5.12.58.34Z" fill="#002d56" fill-rule="evenodd"/><path d="M87.43,124.61l-.78.47-4.36-4.26,1.09-.66,2.76,2.71-1-3.78.76-.47,2.88,2.64-1.14-3.68.87-.53,1.71,5.86-.78.48-3-2.7Z" fill="#002d56" fill-rule="evenodd"/><path d="M91.79,116.25l1.73,5.65-1.21.37-1.72-5.65Z" fill="#002d56" fill-rule="evenodd"/><path d="M98.57,119.26a1.63,1.63,0,0,1-.4,1.46,2.69,2.69,0,0,1-1.57.68,6.54,6.54,0,0,1-1,.06,3.33,3.33,0,0,1-.71-.09l-.14-1a2.7,2.7,0,0,0,.7.16,3.76,3.76,0,0,0,.89,0,1.51,1.51,0,0,0,.82-.28.77.77,0,0,0-.08-1,2.84,2.84,0,0,0-1-.39,2.48,2.48,0,0,1-1-.54,1.71,1.71,0,0,1-.5-1.07,1.49,1.49,0,0,1,.39-1.22,2.27,2.27,0,0,1,1.44-.67,3.6,3.6,0,0,1,.85,0,3.42,3.42,0,0,1,.55.07l.12.89c-.22,0-.43,0-.65-.06a3.84,3.84,0,0,0-.67,0,1.28,1.28,0,0,0-.7.27.5.5,0,0,0-.16.44.61.61,0,0,0,.23.44,3.71,3.71,0,0,0,1,.33,2.38,2.38,0,0,1,1.17.58,1.77,1.77,0,0,1,.47,1Z" fill="#002d56" fill-rule="evenodd"/><path d="M116.8,115.25a1.44,1.44,0,0,1-.79.73,1.49,1.49,0,0,1-1.21-.15,3.62,3.62,0,0,1-.61-.39,1.43,1.43,0,0,1-.32-.35l.41-.81a2.4,2.4,0,0,0,.28.29,2.19,2.19,0,0,0,.41.26.65.65,0,0,0,.41.07.53.53,0,0,0,.35-.33l2-3.94,1.13.58Z" fill="#002d56" fill-rule="evenodd"/><path d="M123.2,117.61a1.71,1.71,0,0,1-.92,1,2,2,0,0,1-2.77-2.71l1.42-3.71,1.18.45-1.48,3.86a1.13,1.13,0,0,0-.07.75.9.9,0,0,0,.59.48,1,1,0,0,0,.72,0,1,1,0,0,0,.49-.64l1.47-3.84.88.34Z" fill="#002d56" fill-rule="evenodd"/><path d="M129.44,118.88a1.65,1.65,0,0,1-.76,1.31,2.64,2.64,0,0,1-1.69.24,5.45,5.45,0,0,1-1-.2,3,3,0,0,1-.66-.27l.13-1a2.5,2.5,0,0,0,.63.34,4,4,0,0,0,.87.22,1.54,1.54,0,0,0,.86-.07.68.68,0,0,0,.3-.54.7.7,0,0,0-.11-.47,3,3,0,0,0-.88-.64,2.63,2.63,0,0,1-.88-.79,1.81,1.81,0,0,1-.2-1.17,1.48,1.48,0,0,1,.69-1.07,2.24,2.24,0,0,1,1.57-.28,4.46,4.46,0,0,1,.83.18l.51.21-.11.89-.61-.22a3.51,3.51,0,0,0-.66-.14,1.3,1.3,0,0,0-.75.07.5.5,0,0,0-.27.38.64.64,0,0,0,.11.49,3.63,3.63,0,0,0,.92.59,2.32,2.32,0,0,1,1,.86,1.75,1.75,0,0,1,.2,1.09Z" fill="#002d56" fill-rule="evenodd"/><path d="M135.25,116l-1.22,0-.09,5-1.26,0,.09-5-1.25,0,0-.88,3.72.07Z" fill="#002d56" fill-rule="evenodd"/><path d="M138.69,114.74l.71,5.86-1.25.16-.72-5.87Z" fill="#002d56" fill-rule="evenodd"/><path d="M145.74,118.85a1.75,1.75,0,0,1-.4.3,3.08,3.08,0,0,1-.73.31,2.45,2.45,0,0,1-2-.16,3,3,0,0,1-1.32-1.86l-.07-.23a3.11,3.11,0,0,1,.07-2.26,2.36,2.36,0,0,1,1.51-1.3,4.15,4.15,0,0,1,.77-.18,1.72,1.72,0,0,1,.51,0l.27.9a1.58,1.58,0,0,0-.46,0,2.66,2.66,0,0,0-.63.12,1.25,1.25,0,0,0-.86.85,2.69,2.69,0,0,0,.09,1.59l0,.08a2.74,2.74,0,0,0,.8,1.39,1.13,1.13,0,0,0,1.08.2,2.55,2.55,0,0,0,.66-.3,3.18,3.18,0,0,0,.4-.3Z" fill="#002d56" fill-rule="evenodd"/><path d="M147.48,112.59l.72,1.41,1.49-.76.4.8-1.48.76.75,1.48,2-1,.39.78-3.16,1.62L146,112.38l3-1.55.4.78Z" fill="#002d56" fill-rule="evenodd"/><path d="M85.37,140.71a3.41,3.41,0,0,1,.55,2.13,1.87,1.87,0,0,1-1,1.38l-1.8,1-2.85-5.17,1.6-.89a2.06,2.06,0,0,1,2-.21,3.54,3.54,0,0,1,1.48,1.55Zm-1.13.58-.08-.14a2.88,2.88,0,0,0-1-1.14,1,1,0,0,0-1,0l-.42.23,2,3.63.51-.28a.91.91,0,0,0,.5-.76,3.12,3.12,0,0,0-.52-1.51Z" fill="#002d56" fill-rule="evenodd"/><path d="M90.68,138.49a3.13,3.13,0,0,1,.25,2.21A2.07,2.07,0,0,1,89.69,142a2.11,2.11,0,0,1-1.82,0,3.12,3.12,0,0,1-1.4-1.69l-.13-.31a3.45,3.45,0,0,1-.28-2.16,2,2,0,0,1,1.28-1.43,1.92,1.92,0,0,1,1.88.1,3.48,3.48,0,0,1,1.34,1.69Zm-1.2.43-.06-.15a5.39,5.39,0,0,0-.79-1.42.8.8,0,0,0-1-.16.82.82,0,0,0-.58.76,4.91,4.91,0,0,0,.47,1.62l.06.13a5.18,5.18,0,0,0,.82,1.47.8.8,0,0,0,1,.09.81.81,0,0,0,.53-.76,3.83,3.83,0,0,0-.41-1.58Z" fill="#002d56" fill-rule="evenodd"/><path d="M95.33,140l-2.67-2.64,1.16,3.19-.82.3-2-5.56.88-.32,3.44,3.33.54-4.78.78-.28,2,5.55-1.09.39L96.4,136l-.46,3.77Z" fill="#002d56" fill-rule="evenodd"/><path d="M103.09,81.53a1.56,1.56,0,0,1-.16.56,4.2,4.2,0,0,1-.45.81,3,3,0,0,1-1.91,1.3,3.22,3.22,0,0,1-2.45-.69l-.22-.15a3.31,3.31,0,0,1-1.45-2.06A2.79,2.79,0,0,1,96.94,79a5.45,5.45,0,0,1,.58-.72A2.18,2.18,0,0,1,98,78l.86.6a2.26,2.26,0,0,0-.44.31,2.88,2.88,0,0,0-.49.57,1.44,1.44,0,0,0-.21,1.38,2.9,2.9,0,0,0,1.15,1.35l.07,0a2.86,2.86,0,0,0,1.66.65,1.36,1.36,0,0,0,1.12-.61,3.22,3.22,0,0,0,.4-.74,4.77,4.77,0,0,0,.16-.56Z" fill="#002d56" fill-rule="evenodd"/><path d="M106.29,73.64a3.43,3.43,0,0,1,1.19,2.18,2.73,2.73,0,0,1-2.7,2.79,3.36,3.36,0,0,1-2.21-1.09l-.26-.26a3.67,3.67,0,0,1-1.2-2.11,2.42,2.42,0,0,1,.77-2.09,2.31,2.31,0,0,1,2-.79A3.79,3.79,0,0,1,106,73.4Zm-1.09,1-.13-.13a5.94,5.94,0,0,0-1.44-1.1.94.94,0,0,0-1.11.31,1,1,0,0,0-.3,1.06,5.17,5.17,0,0,0,1.18,1.46l.12.11A5.25,5.25,0,0,0,105,77.5a.94.94,0,0,0,1-.36,1,1,0,0,0,.25-1,4.11,4.11,0,0,0-1.09-1.45Z" fill="#002d56" fill-rule="evenodd"/><path d="M112.13,69.61l-2.28-3.14.85-.62,3.86,5.31-.52.37L109,70.13l2.42,3.33-.85.62-3.85-5.31.64-.46Z" fill="#002d56" fill-rule="evenodd"/><path d="M120.3,66.29a1.78,1.78,0,0,1,0,1.69,3.25,3.25,0,0,1-1.54,1.27,7.54,7.54,0,0,1-1.12.43,5.37,5.37,0,0,1-.82.15l-.47-1a2.6,2.6,0,0,0,.82-.07,4,4,0,0,0,1-.33,1.76,1.76,0,0,0,.81-.59.68.68,0,0,0,0-.69.76.76,0,0,0-.39-.38,3.41,3.41,0,0,0-1.25-.06,2.92,2.92,0,0,1-1.34-.2,1.82,1.82,0,0,1-.89-1,1.57,1.57,0,0,1,0-1.43,2.77,2.77,0,0,1,1.4-1.22,4.62,4.62,0,0,1,.93-.34,4.55,4.55,0,0,1,.63-.12l.42.91-.74.16a6.06,6.06,0,0,0-.74.27,1.51,1.51,0,0,0-.69.53.55.55,0,0,0,0,.52.71.71,0,0,0,.4.4,4.57,4.57,0,0,0,1.26,0,2.59,2.59,0,0,1,1.49.21,1.85,1.85,0,0,1,.84.9Z" fill="#002d56" fill-rule="evenodd"/><path d="M126,60.86l-1.38.37L126,66.62l-1.43.38-1.44-5.39-1.41.38-.26-1,4.22-1.12Z" fill="#002d56" fill-rule="evenodd"/><path d="M129.8,59.4l1.47-.1.46,6.54-1.47.1Z" fill="#002d56" fill-rule="evenodd"/><path d="M139.17,60.55l-1.43-.1L137.36,66l-1.48-.1.39-5.56-1.45-.1.06-1,4.35.3Z" fill="#002d56" fill-rule="evenodd"/><path d="M146.34,66.16a1.88,1.88,0,0,1-1,1.22,2.57,2.57,0,0,1-1.84,0,2.53,2.53,0,0,1-1.6-1.08,2.26,2.26,0,0,1-.05-1.75l1.29-4.22,1.41.43-1.34,4.39a1.2,1.2,0,0,0,0,.84,1.12,1.12,0,0,0,.72.5,1.23,1.23,0,0,0,.85,0,1.11,1.11,0,0,0,.51-.74l1.33-4.37,1,.32Z" fill="#002d56" fill-rule="evenodd"/><path d="M154.57,65.75l-1.27-.65-2.53,5-1.32-.67,2.54-5-1.31-.66.45-.87,3.88,2Z" fill="#002d56" fill-rule="evenodd"/><path d="M158.19,66.92l1.2.87-3.86,5.3-1.19-.87Z" fill="#002d56" fill-rule="evenodd"/><path d="M163.94,76.51a3.42,3.42,0,0,1-2.2,1.15A2.75,2.75,0,0,1,159,74.91a3.41,3.41,0,0,1,1.14-2.19l.26-.26a3.73,3.73,0,0,1,2.13-1.16,2.41,2.41,0,0,1,2.07.81,2.29,2.29,0,0,1,.76,2,3.83,3.83,0,0,1-1.16,2.11Zm-1-1.11.13-.13a5.85,5.85,0,0,0,1.12-1.42.93.93,0,0,0-.29-1.12,1,1,0,0,0-1-.31,5.06,5.06,0,0,0-1.48,1.15l-.11.11a5.53,5.53,0,0,0-1.17,1.47,1,1,0,0,0,.35,1,.93.93,0,0,0,1,.26A4.06,4.06,0,0,0,163,75.4Z" fill="#002d56" fill-rule="evenodd"/><path d="M168,82.21l3.14-2.28.61.86-5.3,3.85-.37-.52,1.4-5.07-3.33,2.42-.62-.85,5.31-3.85.46.64Z" fill="#002d56" fill-rule="evenodd"/><path d="M151.59,138.41a24.31,24.31,0,0,1,.47-4,.76.76,0,0,0,0-.49,1.25,1.25,0,0,1-1.13-.55" fill="none" stroke="#002d56" stroke-miterlimit="3.86" stroke-width="0.5"/><path d="M148.94,156l.09-.67a2,2,0,0,0,.13-1.12,19.15,19.15,0,0,1,.2-3.89c.18-1,1.76-4.13,1.91-5a31.19,31.19,0,0,0,.16-3.3,5,5,0,0,1,0-1.18" fill="none" stroke="#002d56" stroke-miterlimit="3.86" stroke-width="0.5"/><path d="M147.62,147.75a6.73,6.73,0,0,1,.67,2.67,12.26,12.26,0,0,0,.24,3.58c.22.62.39,1,.5,1.28s.44.34.44.45a17.78,17.78,0,0,0,.59,3.73,12.75,12.75,0,0,1,.62,3.42,20.4,20.4,0,0,0,.55,3.53,5.13,5.13,0,0,1,.08,2.79c-.27.63-.35,1-.78,1.22a1.6,1.6,0,0,0-.76.54c-.31.38-.67,1.11-.5,1.11h6.6a6.5,6.5,0,0,0-.08-1c-.08-.4-.55-1-.39-1.5l1.18-4.08a15.42,15.42,0,0,0,.31-4.4c-.23-2-.31-2-.16-2.67s.33-3.53.33-3.53,1.23-.33,1.31-1.19.56-3.77.64-4.55.87-4.6.87-5.3a43,43,0,0,0-.79-5.23c-.16-.31,0-2.75-1.49-3.42a8.65,8.65,0,0,1-2.83-2.16l-.28-.47" fill="none"/><path d="M151,133l-.35.61s-3,.65-3.39,1.38a23.25,23.25,0,0,0-.42,4.54c0,.59.15,3.08.23,3.51a2.82,2.82,0,0,1,0,.91" fill="none" stroke="#002d56" stroke-miterlimit="3.86" stroke-width="0.5"/><path d="M152.73,142.84a7.89,7.89,0,0,0,.78,3.62c.36.55,1.9,3.54,2.24,3.92s.73.32.86.63c.68,1.62,0,3.2.93,3.44l.27.92" fill="none" stroke="#002d56" stroke-miterlimit="3.86" stroke-width="0.5"/><path d="M154.88,133a3.67,3.67,0,0,1-1.91.89c-.24,0-.1.48-.2,1a34.88,34.88,0,0,0,0,4.44c0,.17,0,.26,0,.82" fill="none" stroke="#002d56" stroke-miterlimit="3.86" stroke-width="0.5"/><path d="M155.9,137.18l.4,1.58.55,2.91.2,1.76,0,1.57,0,1.34-.16.94-.2.87-.35,2.82a2.66,2.66,0,0,1,2.44.44" fill="none" stroke="#002d56" stroke-miterlimit="3.86" stroke-width="0.5"/><path d="M148.38,134.29l.08.27c-.11-.59,1.79,7.81,8.27,11.74l.32.2" fill="none" stroke="#002d56" stroke-miterlimit="3.86" stroke-width="0.5"/><path d="M149.65,133.94c.69,2.17,2.72,7.57,7.38,10.4l.06.39" fill="none" stroke="#002d56" stroke-miterlimit="3.86" stroke-width="0.5"/><path d="M150.63,146.81a5.82,5.82,0,0,0,3.05,0" fill="none" stroke="#002d56" stroke-miterlimit="3.86" stroke-width="0.5"/><path d="M152.51,152.93c.23,1.64.52,3.59.61,3.9.16.55.31,3.3.31,3.3l.08,2.67.08,3.37v3.93a2.43,2.43,0,0,0-1,2" fill="none" stroke="#002d56" stroke-miterlimit="3.86" stroke-width="0.5"/><path d="M146,144.53c-.4.6-2.38-.54-2.48,1.17-.07,1.31.18,2.79,1.45,3l.93-.61.25-.25" fill="none" stroke="#002d56" stroke-miterlimit="3.86" stroke-width="0.5"/><path d="M144.87,144c-.55-8.53-.3-16,1.12-21.66-3.81,5.53-2.24,21.66-2.24,21.66Z" fill="#eed000" fill-rule="evenodd"/><path d="M147.11,143.83l-.27.74a3.5,3.5,0,0,1-.93.41" fill="none" stroke="#002d56" stroke-miterlimit="3.86" stroke-width="0.5"/><path d="M145.82,144.8a5.22,5.22,0,0,1,.12,3.24" fill="none" stroke="#002d56" stroke-miterlimit="3.86" stroke-width="0.5"/><path d="M144.89,143.88H146s.22.42-.12.57a1.5,1.5,0,0,1-.56.15" fill="none" stroke="#002d56" stroke-miterlimit="3.86" stroke-width="0.5"/><path d="M149.6,128.17l.11.64-.15.27-.66,0-.78,0a4.14,4.14,0,0,1-.54-.08c-.12,0-.49-.1-.49-.1s-.56-.74,0-1.19a11.77,11.77,0,0,1,1.31-.84c.11-.07.17,0,.17,0" fill="none" stroke="#002d56" stroke-miterlimit="3.86" stroke-width="0.5"/><path d="M149.6,128.31V129" fill="none" stroke="#002d56" stroke-miterlimit="3.86" stroke-width="0.5"/><path d="M149.7,128.84a2.13,2.13,0,0,0-.08.91c.09.29.27,1,.3,1.13a10.43,10.43,0,0,0,.25,1.06c.09.18.29.92.9,1.08a2.23,2.23,0,0,0,1.7-.21" fill="none" stroke="#002d56" stroke-miterlimit="3.86" stroke-width="0.5"/><path d="M150.89,131.58s.3-.11.4-.06a3,3,0,0,0,.4.08,1.88,1.88,0,0,1,.48,0,1,1,0,0,0,.37,0" fill="none" stroke="#002d56" stroke-miterlimit="3.86" stroke-width="0.25"/><path d="M151.16,132a2.6,2.6,0,0,0,1,0" fill="none" stroke="#002d56" stroke-miterlimit="3.86" stroke-width="0.25"/><path d="M152.15,128.9a1.33,1.33,0,0,1,1.21.16" fill="none" stroke="#002d56" stroke-miterlimit="3.86" stroke-width="0.25"/><path d="M151.33,128.86a1.35,1.35,0,0,1-.13.69,5.7,5.7,0,0,0-.17.56,1.19,1.19,0,0,0-.11.44c0,.11,0,.1.18.19s.29,0,.43,0a.69.69,0,0,1,.37-.05c.13,0,.3-.06.3-.18a.66.66,0,0,0-.12-.38l-.26-.18" fill="none" stroke="#002d56" stroke-miterlimit="3.86" stroke-width="0.25"/><path d="M150.12,128.94c.1,0,.72-.36,1.23,0" fill="none" stroke="#002d56" stroke-miterlimit="3.86" stroke-width="0.25"/><ellipse cx="150.66" cy="129.36" rx="0.11" ry="0.42" transform="translate(18.68 277.74) rotate(-89)" fill="none" stroke="#002d56" stroke-miterlimit="3.86" stroke-width="0.25"/><path d="M151,133l.07,0a2.23,2.23,0,0,0,1.7-.21" fill="none" stroke="#002d56" stroke-miterlimit="3.86" stroke-width="0.5"/><path d="M149.49,124.38s-1.61.47-1.41,1.1a3.91,3.91,0,0,0,.5,1.12,11.49,11.49,0,0,1,.54,1.25c.09.23,0,.64.41.46,2.13-1,6.71.76,5.73.68-.27,0,3,.65,3.5.3.11-.07.34-.22,0-.77a11.78,11.78,0,0,0-1.32-1.55A7.59,7.59,0,0,1,156,125.7a2.18,2.18,0,0,0-1.36-.88,10,10,0,0,0-2-.25,3.7,3.7,0,0,1-1.17-.08,16.81,16.81,0,0,0-2-.11Z" fill="none" stroke="#002d56" stroke-miterlimit="3.86" stroke-width="0.5"/><path d="M153.37,158.3a3.87,3.87,0,0,0,3.7,0c1.87-1,.35-.19.35-.19" fill="none" stroke="#002d56" stroke-miterlimit="3.86" stroke-width="0.5"/><path d="M149.36,158.53a4.6,4.6,0,0,0,3.81-.11" fill="none" stroke="#002d56" stroke-miterlimit="3.86" stroke-width="0.5"/><ellipse cx="152.71" cy="129.42" rx="0.11" ry="0.44" transform="translate(8.03 267.76) rotate(-84)" fill="none" stroke="#002d56" stroke-miterlimit="3.86" stroke-width="0.25"/><path d="M150.25,147.89a7,7,0,0,0,4,0" fill="none" stroke="#002d56" stroke-miterlimit="3.86" stroke-width="0.5"/><path d="M164.69,170.18h15.59v2.1H164.69Z" fill="#eed000" stroke="#002d56" stroke-miterlimit="3.86" stroke-width="0.75" fill-rule="evenodd"/><path d="M0,267H600V400.2H0Z" fill="#b50027"/></svg>