<svg xmlns="http://www.w3.org/2000/svg" width="600" height="400" viewBox="0 0 600 400"><defs><clipPath id="a"><path fill="none" d="M0 0h349.57v200H0z"/></clipPath></defs><path fill="#fff" d="M0 0h600v400H0z"/><path fill="#cf142b" d="M0 49.55h600v50.06H0z"/><path fill="#00237d" d="M0 99.62h600v50.06H0z"/><path fill="#cf142b" d="M0 199.75h600v50.06H0z"/><path fill="#00237d" d="M0 249.81h600v50.06H0z"/><path fill="#cf142b" d="M0 349.94h600V400H0z"/><g clip-path="url(#a)"><path fill="#00237d" d="M0 0h349.57v200H0z"/><path fill="#fff" d="M141.49-6.06h66.58v220.79h-66.58z"/><path fill="#fff" d="M359.83 16.81V-5.85h-40.94L-4.97 179.31v23.55h39.42L359.83 16.81z"/><path fill="#fff" d="M-3.82-2.16v23.55l321.03 183.52h40.94v-22.67L35.59-2.16H-3.82z"/><path fill="#cf142b" d="M-2.53 201.71h26.48l160.54-91.76-6.51-11.41L-2.53 201.71z"/><path fill="#cf142b" d="M180.39 88.45l-6.52 11.42L357.71 204.9l.57-14.82L180.39 88.45zM-5.07 12.73l173.76 99.36 6.51-11.42L-5.07-2.41v15.14z"/><path fill="#cf142b" d="M327.07-1.85L146.39 101.46l6.51 11.42L352.79-1.42l-25.72-.43z"/><path fill="#fff" d="M356.75 67v13.43H-14.28V67zM356.75 120.44v13.43H-14.28v-13.43z"/><path fill="#cf142b" d="M356.75 80.43v40.01H-14.28V80.43z"/><path fill="#cf142b" d="M154.79-6.06h39.96v220.79h-39.96z"/></g></svg>