<svg xmlns="http://www.w3.org/2000/svg" width="300" height="300" viewBox="0 0 300 300"><title>flag-north-dakota-icon-eagle</title><path d="M125.76,97.59a2.16,2.16,0,0,1-.48,0c-2.84-.24-5.2-2.09-7.49-3.89l-1.17-.91A91.22,91.22,0,0,1,108.09,85c-2.2-2.17-4.49-4.41-6.73-6.26-6.06-6.14-11.92-10.16-17.47-12-3.87-.35-6.46.28-10.13,1.67a.46.46,0,0,1-.26,0,1.9,1.9,0,0,0-.38,0A1.17,1.17,0,0,1,71.7,68a.45.45,0,0,1,0-.23,2.3,2.3,0,0,1,.8-1.55c.17-.12.45-.31.8-.53A23,23,0,0,0,75.64,64c.65-.57.68-1.9.71-3.19,0-.43,0-.86.05-1.27a6.43,6.43,0,0,0,0-1.74c-.08-.12-.06-.18,0-.32.19-.67.89-.87,1.45-1l.43-.14a.27.27,0,0,1,.12,0,25.39,25.39,0,0,1,18.7,5c7,3.76,12,9.91,16.76,15.85.72.89,1.43,1.78,2.16,2.66,0,0,5.91,5.32,7.88,7.16a48.69,48.69,0,0,0,6.38,4.57l.47.29a10.13,10.13,0,0,0,3.19,1.3l.4.11c.88.26.91.75.88,1-.07.48-.62.79-1.41.79a11.62,11.62,0,0,0-3.32,1.49l-.3.17a11.31,11.31,0,0,1-3.21.9l-.51.09A3.39,3.39,0,0,1,125.76,97.59Zm-.24-1a1.92,1.92,0,0,0,.74,0l.54-.1a10.94,10.94,0,0,0,2.9-.78l.3-.17a12.15,12.15,0,0,1,3.57-1.6,11.16,11.16,0,0,1-3.35-1.39l-.46-.29a49.27,49.27,0,0,1-6.53-4.68c-2-1.83-7.86-7.15-7.92-7.2-.78-.93-1.5-1.82-2.22-2.72-4.75-5.87-9.66-11.94-16.52-15.64a24.59,24.59,0,0,0-18-4.82l-.46.15a2.43,2.43,0,0,0-.74.3,8.86,8.86,0,0,1,0,2c0,.39,0,.8-.05,1.22,0,1.49-.07,3-1,3.89a24.2,24.2,0,0,1-2.47,1.79c-.32.21-.59.38-.75.5a1.12,1.12,0,0,0-.37.63l.3,0a3.12,3.12,0,0,1,.54,0,21.36,21.36,0,0,1,10.56-1.66c5.8,1.87,11.8,6,17.94,12.19,2.23,1.84,4.53,4.1,6.75,6.28A93,93,0,0,0,117.2,92l1.19.92c2.19,1.71,4.45,3.49,7,3.69Z"/><path d="M162.6,90l-.16-.26a.7.7,0,0,0-.23-.22,1.24,1.24,0,0,1-.52-.71l-2.91-4.33.17-.25a2.06,2.06,0,0,1,1.76-.69,3,3,0,0,0,.85-.12A28.3,28.3,0,0,1,165,81.82a16.24,16.24,0,0,0,5-2.71l.13-.12h.18c.25,0,.45-.2.74-.54a2.34,2.34,0,0,1,1.06-.78,90.91,90.91,0,0,0,10.46-8.92,93.67,93.67,0,0,1,9.57-8.26c4.74-4.57,11.25-6,15.86-6.39a31.07,31.07,0,0,1,9.08.48l3.23.5.06.31a34.14,34.14,0,0,0,1,4.29,58.25,58.25,0,0,0,3.79,5.23l.42.52-4.47,1.27-.1,0c-.17,0-4.12-.69-5.71-2.07-8.84-1.56-16.56,4.4-23.38,9.67-9,8.67-18.81,14-29.09,15.65Zm-2.68-5.44,2.64,4c0,.1,0,.12.2.24s.16.13.25.22c10-1.72,19.56-6.9,28.4-15.4,7-5.44,15-11.57,24.24-9.85l.14,0,.09.1c1.07,1,4.06,1.7,5.25,1.91l3-.85a48.24,48.24,0,0,1-3.5-4.9,33.28,33.28,0,0,1-1-4.16l-2.64-.41a30.46,30.46,0,0,0-8.83-.47c-4.47.38-10.77,1.76-15.36,6.18a92.48,92.48,0,0,0-9.53,8.23,91.54,91.54,0,0,1-10.64,9.06l-.17.07c-.23,0-.44.28-.66.52a2,2,0,0,1-1.23.82,17.73,17.73,0,0,1-5.15,2.78,28.2,28.2,0,0,0-3.43,1.56,3.63,3.63,0,0,1-1.18.21A2.82,2.82,0,0,0,159.92,84.54Z"/><path d="M225.79,73a2.91,2.91,0,0,1-.57-.06,5.24,5.24,0,0,0-1.34-.12,5.36,5.36,0,0,1-2.86-.58c-1.43.08-4.42.23-4.82.14l-.14,0-.1-.1a2.42,2.42,0,0,1-.55-2.13c.27-.94,1.2-4,1.2-4l.1-.35.37,0a10.24,10.24,0,0,1,3.07.83,3.77,3.77,0,0,0,3.11-.14,14.29,14.29,0,0,0,1.9-1.16l.23-.16.24.13a13.21,13.21,0,0,1,3.59,2.58l.08.11a4.82,4.82,0,0,1,.19,3.15l0,.26-.26.08a5.58,5.58,0,0,0-1.17.63A4,4,0,0,1,225.79,73Zm-4.49-1.67.13.1a4.29,4.29,0,0,0,2.46.49,5.59,5.59,0,0,1,1.56.16,2.77,2.77,0,0,0,2.08-.7,5.69,5.69,0,0,1,1.13-.64,3.9,3.9,0,0,0-.13-2.28,12.47,12.47,0,0,0-3.07-2.23,13.57,13.57,0,0,1-1.87,1.11,4.68,4.68,0,0,1-3.81.12,9.54,9.54,0,0,0-2.43-.71c-.25.83-.87,2.88-1.08,3.61a1.42,1.42,0,0,0,.25,1.15c.65,0,3-.08,4.61-.17Z"/><path d="M77.66,77.75a12.31,12.31,0,0,1-5-1.41c-1.9-.83-3.7-1.62-5.8-1.14a5.46,5.46,0,0,1-2.31,1.52,6.89,6.89,0,0,0-1.65.9l-.14.12-1.47-.11-4.69-.88-.1-.23a5.77,5.77,0,0,0-1.62-1.8,3.48,3.48,0,0,1-1.12-.39c-.18-.08-.43-.19-.6-.25l-.47.32-.28-.84.22-.29a.52.52,0,0,1,.33-.14c.31-.21.84-.55,1.21-.76a3.16,3.16,0,0,1,3.37,1.06c.31.41,2,.58,2.86.67l.7.08c.38,0,.56-.16.94-.75a5.36,5.36,0,0,1,.38-.55c.31-.4.25-.53-.15-1.18s-.37-.63-2-.89a3,3,0,0,1-2.77-2.51c-.12-.89-.64-3-.65-3l-.31-1.23,2.7,2.11a2.4,2.4,0,0,0,1.78,1.41c1.18.31,1.93-.3,2.79-1a5.19,5.19,0,0,1,2.31-1.33A5.93,5.93,0,0,1,71,63.91l0,.23.06-.22a10.25,10.25,0,0,0,1.73.28,3.18,3.18,0,0,1,1.78.92l.48.49-.64.25a12.78,12.78,0,0,0-2.76,1.36c-.33.33-.3,1.82-.28,2.46v.42a2.43,2.43,0,0,0,.8,1.68,4.32,4.32,0,0,0,2.39.66,9.39,9.39,0,0,0,2,0c.72-.07,1.42-.08,2.11-.1a6.58,6.58,0,0,1,2.25.16c.83.29,1.77.61,1.77,1.36a7.59,7.59,0,0,1-1,2.31,1.9,1.9,0,0,1-1.34,1.12A7.14,7.14,0,0,1,77.66,77.75Zm-9.51-3.59A12.18,12.18,0,0,1,73,75.52c2.22,1,4.31,1.9,7,.87a1.08,1.08,0,0,0,.74-.56l0-.11a10,10,0,0,0,1-1.91,4.77,4.77,0,0,0-1.16-.5,6.13,6.13,0,0,0-1.93-.12c-.67,0-1.36,0-2,.1a10.39,10.39,0,0,1-2.17,0,4.73,4.73,0,0,1-2.93-.92,3.25,3.25,0,0,1-1.06-2.31v-.4c0-1.33,0-2.56.54-3.11a9.5,9.5,0,0,1,2.36-1.27,1.27,1.27,0,0,0-.58-.23,10.12,10.12,0,0,1-1.93-.3A5,5,0,0,0,66.68,66l-.11.1-.14,0a4.3,4.3,0,0,0-2,1.16c-.92.77-2,1.64-3.52,1.22a3.25,3.25,0,0,1-2.39-1.82L58,66.3c.15.65.32,1.4.38,1.88s.45,1.48,2,1.75,2.06.42,2.57,1.27c.41.67.82,1.34.1,2.24a5,5,0,0,0-.33.47c-.37.58-.82,1.3-1.81,1.16L60.31,75c-1.61-.16-3-.36-3.48-1a2.44,2.44,0,0,0-2.22-.81l-.55.34.06,0c.18.08.45.2.63.26l.12-.17.37.27a7.54,7.54,0,0,1,2,2.07l4.18.8,1.06.07a8,8,0,0,1,1.72-.92,4.5,4.5,0,0,0,2-1.35l.1-.14.16,0A6.51,6.51,0,0,1,68.15,74.16Z"/><path d="M59.18,67.81a9.25,9.25,0,0,1-.72-1.3"/><path d="M82,72.89a1.81,1.81,0,0,1-1.09-.55,1.18,1.18,0,0,0-.52-.35,14,14,0,0,0-3,.13c-2.2.24-4.47.5-5.77-1.18l-.08-.14a.67.67,0,0,1,0-.54.93.93,0,0,1,.63-.42l.14,0,.1-.47.51.24c.45.21.82.05,1.43-.24A3.49,3.49,0,0,1,76,68.86c.35-.1.71-.24,1.1-.37,1.82-.65,4.08-1.46,5.57.26.44.64.72,3,.1,3.78l-.08.08A1.13,1.13,0,0,1,82,72.89Zm-2.37-1.84a8,8,0,0,1,.86,0,1.9,1.9,0,0,1,1,.56c.4.35.49.37.6.29a4.41,4.41,0,0,0-.12-2.66c-1-1.21-2.84-.57-4.56,0l-1,.34,0,.11-.3,0a2.48,2.48,0,0,0-1.28.37,2.56,2.56,0,0,1-1.86.37,1.54,1.54,0,0,1-.34.17c1,1,2.83.77,4.71.56A20.84,20.84,0,0,1,79.59,71.05Z"/><path d="M206.4,56.86c.16.72-1.28.72-.72,1.44,1.27.87.8,2.86,2.39,3.58-.08.79-1,1-1.67,1.28-.4-.08-.88.16-1-.24,1.2-1.19-.24-2.31-.4-3.52-1.2.88.32,2.16-.56,3.36-1.59,1.36-2.63-1.91-4.06-1.2a3.13,3.13,0,0,0,1.91,2.32c-.48.88-1.68,1.19-2.63,1.43a1,1,0,0,1-.16-1.12c.63-1.19-.4-2.39-1-3.42-.33-.64-1.2-.16-1.28-.88A1.52,1.52,0,0,1,198,58.7c2,0,3.35,1.42,5,2.15.64-1.45-.16-3.27,1.36-4.15.71-.09,1.35-.48,2,.16"/><path d="M196.34,62.28a4.21,4.21,0,0,1,1.28,3.58,2.12,2.12,0,0,1-1.44,1.44c-2,1-3-1-4.62-1.51-1-.63-.4-1.36,0-2.08.39-.31.79-1,1.35-.55s.16,1.19.24,1.75c.64.8,1.6.8,2.48,1.12.87-.48.63-1.19.23-1.84-.23-1.68-2.31-.23-2.23-2,.64-1,3.59-2.47,2.71.08"/><path d="M191,67.31c.88.72,2.23,1.76,1.91,2.79-.72,1-1.83.24-2.79.24a1.22,1.22,0,0,0-1.44-.24c-.4,1.12,1.2.71,1.6,1.52.32.63-.48,1.27-1,1.59a1.05,1.05,0,0,1-1.6-.56c0-.47.56-1,.16-1.43-.55-1.68-2.71.15-2.47-1.84,1.68-2.23,3.43.55,5.35-.72-.16-1.67-3-.15-2.32-2.15.56-.39,1.2-1.2,1.84-.88s.4,1.21.72,1.68"/><path d="M185.25,71.94a4.15,4.15,0,0,1,1.44,2.88,4.85,4.85,0,0,1-2.39,2.3c-1.84.24-2.88-1.52-4.47-1.75-.56-.32-.16-1,0-1.43.63-.25,1.19-.88,2-.88.48.55-.08,1,.32,1.43a2,2,0,0,0,2.23,1c.8-.64,1.12-1.2.63-2-.63-.47-1-1.27-1.9-1-.64-1,.63-1.51,1.27-2,1-.24.56,1,.88,1.44"/><path d="M224.07,77.15A12.34,12.34,0,0,1,219,76.09l-.17-.12c-.07-.09-.22-.13-.45-.18a1.56,1.56,0,0,1-1.19-.77l-.05-.12-.3-1.43.28-.16c2.07-1.21,2.55-.9,2.7-.8a32.27,32.27,0,0,0,6.24.77c.07,0,.27-.13.54-.24.91-.38,3-1.26,3.49-2.1a1.43,1.43,0,0,0,0-1.59,6,6,0,0,1-.28-.72A10.1,10.1,0,0,0,227.33,66l-.47-.4.52-.33c2.59-1.64,5.21-1.18,7.75-.73l.63.11a1.72,1.72,0,0,0,.72.1,8.44,8.44,0,0,1,1.44.12,3.15,3.15,0,0,0,.86-.85,3.58,3.58,0,0,1,1.44-1.25,1.33,1.33,0,0,0,.53-.39,2.39,2.39,0,0,1,.72-.54L242.88,60l.8.34c0,.18-.75,4.51-2.28,5.85a2,2,0,0,0-.76,1.42,3,3,0,0,0,.73,1.83l2.85-1.24h.21l.11.54.23.2-1.73,2a9,9,0,0,1-3.85,2.65l-.63.23a13.65,13.65,0,0,0-6.65,1.38A18.6,18.6,0,0,1,224.07,77.15Zm-4.64-1.84c3.5,1.51,7.56,1.21,12.07-.91a14.66,14.66,0,0,1,7-1.48l.38-.15a8.29,8.29,0,0,0,3.52-2.42l.49-.58-1.72.72-.22-.21a4.12,4.12,0,0,1-1.17-2.7,2.8,2.8,0,0,1,1.06-2.07,7.82,7.82,0,0,0,1.56-3.39l-.36.47-.14,0a1.38,1.38,0,0,0-.48.37,2.07,2.07,0,0,1-.87.59,2.87,2.87,0,0,0-1,1,3.59,3.59,0,0,1-1.29,1.17l-.13.06-.13,0a6.89,6.89,0,0,0-1.44-.12,2.39,2.39,0,0,1-.94-.13l-.57-.1c-2.29-.4-4.47-.78-6.59.31a8.45,8.45,0,0,1,2.24,2.67,4.17,4.17,0,0,0,.24.6,2.31,2.31,0,0,1,0,2.4c-.61,1.1-2.77,2-3.92,2.49l-.52.22c-.71.35-6.57-.46-7.11-.83a7.94,7.94,0,0,0-1.47.66l.15.72c.12.17.28.21.58.28A1.63,1.63,0,0,1,219.43,75.31Z"/><path d="M84.71,59.73c-.08.55-.4,1.35-1.12,1.27-.39-.15-.47-.15-.56-.55-.32-1.05-1.67-.4-2.15-.56-.15.16-.39.32-.31.56.31.71,1.43.16,1.43,1.11-.4.72-2.07.16-1.59,1.36.47.63,1.59.16,2.3.08.41-.4.88-1,1.44-.56.72.48-.24,1.2,0,1.59-1.59,1-3.59.08-5.58.16L78,63.64c.08-.72,1-.64,1.44-1.36-.24-.88.72-2-.48-2.71.88-1.27,3-.48,4.62-.72.32.47,1,.24,1.12.88"/><path d="M98.2,65.31c-1.36.24-1.92,1.76-2.87,2.64a2.13,2.13,0,0,0,1.35,1.27c.56,0,1-1.12,1.52-.31.24.87-.24,1.35-.8,1.9-1.36.41-1.44-1.1-2.47-1.35-.8-.32-1.84-.72-2.16-1.51.24-.88.88-.24,1.44-.64.72-1.12,2.23-2.15,1.43-3.6,1-.15,2.48.57,2.56,1.6"/><path d="M116.47,84c-.4,1-1.84,1.27-2.15,2.64a1.54,1.54,0,0,0,1.11,1.11,2.65,2.65,0,0,0,2.16-1.11c-.08-.49-.4-.8,0-1.2a2.79,2.79,0,0,1,1.59,1.27c-.56,1.68-2.31,1.52-3.43,2.48a3.62,3.62,0,0,1-2.47-1.75c-.64-1.68,1.19-3.19,2.15-4.39.32.32,1,.4,1,1"/><path d="M122.93,90l-.87.73c-1.12-.4-1.12-2.88-2.4-1.44.24,1.2,3,2,1.12,3.43-1.52.8-2.39-.88-3.43-1.6a1,1,0,0,1-.16-1.59h.88c-.32.88.39,1.51,1,1.92.32,0,.72.08.88-.33.16-1-1.6-1.35-1.12-2.54.4-.88,1.28-.65,2-.88a4.64,4.64,0,0,1,2.15,2.31"/><path d="M94.21,63c-.73-1.84-2.88-1.6-4.31-2.39-1.44.39.48,1.59-.56,2.39a3.61,3.61,0,0,1-2.15,2.16c.23,1.19,1.67,1.42,2.71,1.58,1-.71-.8-1.51.39-2.15.57.09.88.48,1.36.72.88.16,2.16.49,2.72-.72A9.72,9.72,0,0,0,94.21,63Zm-1.84,1c-.72-.08-1.43-.08-1.75-.72s.48-.72.71-1.12c.72-.08,1,.63,1.6,1A.7.7,0,0,1,92.37,64Z"/><path d="M106.25,72.81c-.24-.4-1.27-.4-.71-1-.56-.71-1.12-2.15-2.31-1.59l-.09,1a4.16,4.16,0,0,1-2.31,1.59c-.8-.24-1.44-1.2-.72-1.91a2.33,2.33,0,0,1,2-1.28.92.92,0,0,0,.41-1c-.48-.71-1.36-1.67-2.24-1.35-.08,1.83-2.15,3.27-1.59,5.34.55.72,1.35,1.84,2.55,1.6a3.77,3.77,0,0,0,2.71-1.76c.56.08,1.28-.72,1.6.16a5.43,5.43,0,0,1-3.12,3.6c-.23.63.56.79.72,1.27.8.48.64-.88,1.28-1.12,1.51.32.08,1.76.24,2.72.08.39.48,1,1,.88V79c-.16-2,1.75-.64,2.55-1.84C109,75.28,107.05,74.17,106.25,72.81Zm.56,3.6c-.55.07-1-.48-1.27-.72-.24-.56.4-.8.72-.87a1.28,1.28,0,0,1,1,1C107.14,76,107.21,76.41,106.81,76.41Z"/><path d="M111.6,79c.32,1.43-1.19,2-1.76,3a.75.75,0,0,1-1.27-.16,4.12,4.12,0,0,1,2.15-3l.16-.94v0c-.55-.39-.55-1-1.27-.86l-.48,1.27c-.56.55-1.2,1.92-2.32,1.76a.59.59,0,0,0-.23.71c1.51,1.35,2.55,2.79,4.14,4.3.56.17,1.44.33,1.84-.15.4-1.2,1.67-1.76,1.76-2.87C113.76,80.71,113.12,79,111.6,79Zm0,5c-.56.17-.88-.24-1.19-.55-.08-.48.47-.56.71-.72a.59.59,0,0,1,.72.39C111.84,83.43,111.92,83.82,111.6,84Zm.24-2.31c-.08-.32.32-.63.64-.72a.79.79,0,0,1,1,.72c0,.32-.24.39-.4.64A1,1,0,0,1,111.84,81.67Z"/><path d="M136.65,94.6a1.23,1.23,0,0,1-.36-.06s-1.88-.75-3-1.14a18.56,18.56,0,0,1-3-1.51l-.36-.22.2-.38A2.93,2.93,0,0,1,131.65,90a4.09,4.09,0,0,0,1-.62l.16-.09a8.14,8.14,0,0,0,2.65-1.83,15.56,15.56,0,0,1,1.38-1.15l1.54-.89a1.36,1.36,0,0,0,1-.68l.12-.16.19,0a2.1,2.1,0,0,0,.5-.23,1.62,1.62,0,0,1,1.3-.33,1.09,1.09,0,0,1,.62.58l3.62,3.61-.16.29a2.77,2.77,0,0,1-1.81,1.35,2.06,2.06,0,0,0-1.11.63,5.33,5.33,0,0,1-1.94,1.45,6.24,6.24,0,0,0-1.67,1.14l-.1.11-.15,0a2.16,2.16,0,0,0-.7.54A2.25,2.25,0,0,1,136.65,94.6Zm-5.53-3.23a14.24,14.24,0,0,0,2.41,1.18c1.19.4,3,1.12,3.06,1.15s.49-.2.89-.59a2.81,2.81,0,0,1,1-.75,7.24,7.24,0,0,1,1.8-1.22,4.54,4.54,0,0,0,1.66-1.2A2.79,2.79,0,0,1,143.5,89a2.13,2.13,0,0,0,1.12-.64l-3.26-3.31c-.06-.13-.11-.17-.13-.17s-.4.15-.57.24a2.85,2.85,0,0,1-.64.3,2.18,2.18,0,0,1-1.43.91l-1.22.75a15.15,15.15,0,0,0-1.27,1.06,9.09,9.09,0,0,1-2.88,2,4.72,4.72,0,0,1-1.2.7A3.12,3.12,0,0,0,131.12,91.37Z"/><path d="M150.78,205.19c.16,0,.16-.24.16-.4-.24-.4-.56.08-.56.32S150.62,205.19,150.78,205.19Z"/><path d="M89.34,188.6c-.08-.33-.4-.72-.72-.64v1.19h.24C89.18,189,89.18,188.75,89.34,188.6Z"/><path d="M122.21,184.53l-.4-.41a.47.47,0,0,0-.16.72C121.9,184.92,122.06,184.68,122.21,184.53Z"/><path d="M123.33,192.43c-.16.95,1,.55,1.2,1.28l-.56.87c.16.32.4.32.72.48,1.35-.8.88-1.92.8-3.35C124.69,191.55,124.21,192.59,123.33,192.43Z"/><path d="M169.29,189.15c.16-.16.4-.32.32-.55s-.32-.17-.4-.17C169,188.6,168.89,189.15,169.29,189.15Z"/><path d="M155.57,196.5c-1.52,1.12-.8-1.12-1.91-1-1.52.71,0,2.07-.56,3.27.32.55.64.32,1.11.32.32-.32,1-.32.72-1,.16-.48.64-.64,1.2-.55.72-.25,1.11-1.21,1.27-2C156.61,194.74,156.21,196,155.57,196.5Z"/><path d="M157.24,199.05h1.6c.24-1-.88-.55-1.28-.88A.58.58,0,0,0,157.24,199.05Z"/><path d="M135.86,192.43v.71c.24.33,1.11.56,1.11-.16C136.9,192.51,136.34,192.34,135.86,192.43Z"/><path d="M158.12,180.54h-.4c-1.83,1.43.4,2.15-.16,4,.48.39.88.71,1.44.16a12.92,12.92,0,0,1-.88-4.16Z"/><path d="M163,182.14a.52.52,0,0,0,0,.79c.64.15,1.28.64,1.92.32V182.2C164.27,182.61,163.63,182.14,163,182.14Z"/><path d="M180.79,206.23c.47-.24-.09-1-.4-.56,0,.24-.09.56.15.72C180.7,206.39,180.7,206.31,180.79,206.23Z"/><path d="M206.8,191.87c.24-.09.15-.41.15-.57C206.4,191.15,206.56,191.87,206.8,191.87Z"/><path d="M122.53,141.91c.32-.55,1.6-.16,1.28-1a2.76,2.76,0,0,0-1.6.32A.73.73,0,0,0,122.53,141.91Z"/><path d="M79.68,109.68c0-.09,0-.32.16-.4-.23-.4-1-.63-1,0C78.89,109.68,79.45,110,79.68,109.68Z"/><polygon points="103.7 146.07 103.7 146.06 103.7 146.07 103.7 146.07"/><path d="M55.43,133.29v-.47h0l-.15-.24c-2.16.64-3.43,2.8-5.27,4l-.16.32.4.24C51.84,136.16,53.59,134.26,55.43,133.29Z"/><path d="M77.53,107.85l.16-.41a5,5,0,0,0-3.59.41C75.13,108.49,76.41,107.85,77.53,107.85Z"/><path d="M58.62,133.14c.64.72-.64,1.12-.72,1.67-2.87,1.92-4.7,4-7.66,5.75a.54.54,0,0,0,.48.71c4-2.22,7.81-5.82,11-9C61.17,130,59.89,132.82,58.62,133.14Z"/><path d="M48.64,137.45c-1.19,1.75-4.06,2.47-4.86,4.55l.48.15,5.26-4.47v-.39C49.28,136.89,49,137.36,48.64,137.45Z"/><polygon points="61.73 132.26 61.73 132.26 61.73 132.27 61.73 132.26"/><path d="M73,108.16c-.08-.24-.32-.15-.48-.15v.71h.32C73.06,108.56,72.9,108.32,73,108.16Z"/><path d="M30.13,141.2c1.44-1.75,3.75-2.48,4.87-4.63l-.08-.16c-2.08,1-3.59,3.11-5.5,4.47A.88.88,0,0,0,30.13,141.2Z"/><polygon points="42.18 131.22 42.18 131.23 42.18 131.23 42.18 131.22"/><path d="M39.07,134c1.11-.79,2.7-1.59,3.11-2.78-.88-.08-1.2.72-1.83,1-.64.56-1.68.63-1.84,1.6C38.59,134.1,38.91,133.93,39.07,134Z"/><path d="M44.26,130.1c.39-.47,1.35-.63,1.27-1.43a.42.42,0,0,1-.32-.16c-.56.41-1.43.57-1.59,1.28C43.86,129.94,43.93,130.19,44.26,130.1Z"/><path d="M47,142.48c.08.08.16.15.16.24.64-.16,1.91-.32,2.15-1.45C48.25,140.8,47.77,142.07,47,142.48Z"/><path d="M102.1,130.5l-.31.73c.24.15.31.39.63.31.09-.23.56-.32.4-.72C102.59,130.74,102.42,130.43,102.1,130.5Z"/><path d="M43.62,144.87c-.88,1-2.55,1.43-3.27,2.63-2.48,1-3.68,3.51-5.75,5.18-.4.09-.71.41-.56.81s.4.32.72.32c1.59-2.47,3.91-4.16,6.14-6.15.72.08.8-.72,1.44-.72a50,50,0,0,0,4.31-3.75C45.53,142.64,44.58,144.4,43.62,144.87Z"/><path d="M47,136c-.24-.07-.56.09-.72-.15,0-.32.4-.48.56-.71.16,0,.32,0,.4.15,2.23,0,3.91-2.23,5.74-3.59.64-.88,2.24-1.2,2.48-2.47h0l-.16-.16a22.62,22.62,0,0,0-3,1.91l-.08-.88a63.08,63.08,0,0,0-6.39,5,30.82,30.82,0,0,0-4.3,3.58c.72,1.76-2.07,2.32-3,3.43-.16-.16-.4-.32-.32-.55a1.27,1.27,0,0,0-1.12.87,2.86,2.86,0,0,1-2.3,2,2.66,2.66,0,0,0-1.92,2.15c-3.43,2.55-6.62,4.95-10,7.58-.16.48.32.64.63.64,6.07-5.2,13.89-10,20.11-15.56C44.74,138.08,46.41,137.6,47,136Z"/><path d="M38.19,134.1c-1,.07-2.39,1-2.15,2.06C36.75,135.38,38.11,135.45,38.19,134.1Z"/><path d="M72.1,113.91l1,.08c.16-.25.64-.32.48-.72C73.06,113.11,71.87,113,72.1,113.91Z"/><path d="M83.43,121.88c0,.33,0,.8.4.64v-.47C83.75,121.88,83.59,121.88,83.43,121.88Z"/><path d="M92.37,133c-.72-.72-.88.56-1.75.31a.55.55,0,0,0,0,.81C91.26,133.86,92.14,133.7,92.37,133Z"/><path d="M100.11,149.18l.4.47a4.77,4.77,0,0,0,1-.71c.48-1.28,2.06-1.6,2.15-2.87h-.56C101.87,147.1,101.15,148.31,100.11,149.18Z"/><path d="M139.85,76.64c-.56.17-.56.8-.56,1.36.8.56.88,1.76,1.91,2,.32-.16.16-.56.4-.72C141,78.4,141.13,76.88,139.85,76.64Z"/><path d="M154.69,109.12c-.87.24-.64,1.28-1.2,1.76.33.71.88-.24,1.2.55l-.16.16c.08.24.16.48.4.56l.32-.32h0C155.41,110.8,155.57,109.84,154.69,109.12Z"/><path d="M156.53,112.56c.88-.09,1.2-1.29,1.59-2,1-.08.72,1.13,1.6,1.44.32.32.72,0,1-.16a7.78,7.78,0,0,1,.63-3.43L161,108c-1.44.31-.09,2-1.28,2.7-.56-.31-.72-.87-1-1.27a.54.54,0,0,0-.88.15C158,111.11,155.81,111.19,156.53,112.56Z"/><path d="M164.19,111.43v-.32c-1.12,0-1.52-2.39-2.48-1.27C162.43,110.55,162.91,112,164.19,111.43Z"/><path d="M156,94.21a.75.75,0,0,0,.16,1.27c.88.08,1.27,1.83,2.15,1,.32-.24.56-.71.24-1s-.16-.16-.56.16c-.16-.25-.56-.32-.4-.72C157.17,94.68,156.69,92.92,156,94.21Z"/><path d="M167.3,109.28c-1-.4-1.76-1.51-2.71-1.6l-.16.56c.63.48,1.27,1.45,2.15,1.6C167.06,110,167.14,109.59,167.3,109.28Z"/><path d="M158.28,103.21c1-.08.8-1.11,1.12-1.83-.24-.24-.48-.55-.88-.4C158.44,101.7,157.56,102.49,158.28,103.21Z"/><path d="M161.31,115c-.31.39,0,1.19.09,1.74-1.12.57-1.76-1.51-2.72-2.06l-.24.63c.8,1.43,2.4,2.47,3.43,3.83,1.68-.15,1.68,1.92,3.11,2.32,0,.8,1.12,1.27,1.36,1.83-.24.31-.64.16-.88.16a7.16,7.16,0,0,1-2.31-1.27c-.24-.33-1.12-.49-1.12.15a5.81,5.81,0,0,1,1.68,3c-1.28.64-2.56-.56-3.59-1.44-1.68.79-1.92-2.24-3.27-1.44-.32,1-1.76,1.6-1.2,2.72,1-.16,1-1.28,1.75-1.92,1,.24,1.28,1.43,1.76,2.15.4-.07.8-.39,1.43-.23,1.12,1.82,3.6.64,5.11,1-.24-.88-1.35-1.28-1.67-2.23,1-.4,2.31.48,3.59.56.55-.24.24-.88.55-1.28.16,0,.33-.07.4.08a.91.91,0,0,0,1.2.16c-.16-.63-.56-.8-1-1.27-.71-.24-.56.64-.95.87-1-.32-1.76-1.27-2.64-1.91.16-.24.4-.4.32-.72a11.35,11.35,0,0,0-2.87-1.67,3.88,3.88,0,0,1-.32-2.64c1.6.56,2.79,1.92,4.15,2.87.32,0,.64.16.72-.07,0-.41-.4-.72-.72-1-1.36-.72-2.23-1.91-3.67-2.48C162.27,115.34,161.87,114.54,161.31,115Z"/><path d="M144.64,129.94l-.32.32c0,.48,0,.88.48,1.12.16.08.24-.16.4-.24C145.59,130.66,145,130.1,144.64,129.94Z"/><path d="M165.14,133.13c.48.16.4-.39.56-.55-.16-.32-.4-.32-.72-.32A.63.63,0,0,0,165.14,133.13Z"/><path d="M162.75,98.11c.64-1,1.6-.08,2.23.24.16-.24.4-.4.32-.72a1.46,1.46,0,0,0-1.43-.56C163.55,97.63,162.19,97.15,162.75,98.11Z"/><path d="M153.66,114.15c-.09.56.71.72,1,.47v-1.35h-.48C154.29,113.83,153.49,113.59,153.66,114.15Z"/><path d="M157.72,102.1c-.48-2-2.55-.24-3.19-2a.9.9,0,0,1-.4,1c-1,.49-1.67-.72-2.47-.39-.16.79.72.88,1.12,1.27A12.44,12.44,0,0,1,157.72,102.1Z"/><path d="M160.12,101.06c.24.64.08,1.6.72,1.91a6.16,6.16,0,0,0,.87-1.59A1.45,1.45,0,0,0,160.12,101.06Z"/><path d="M154.69,117.9c1.12,0,.72,2,1.44,2.87,1.11.23.72-1.2,1.59-1.44.88.57,1.12,1.84,2,2.72.56-.08.79-.49.71-1.11-1.68-.49-2.07-2.72-2.47-4.07-1.11-.25-.24,1.67-1.11,2.15-.88.08-.56-.88-1-1.28h0c-.31-.56.16-1.44-.4-1.84a13.83,13.83,0,0,1-2.46,2.72c-.65-.56-.49-1.52-.72-2.32-1.44-.08-1.28,1.76-2.56,2-.23-.07-.23-.39-.47-.55s-.41.16-.56.32c1.12.39-.4,1.43.71,1.84,1-.25,1.36-1.28,2-2,.88.32.64,1.51,1.35,2.15C153.89,120.21,153.89,118.62,154.69,117.9Z"/><path d="M155.25,89.17a23.52,23.52,0,0,0,5.19,5c.08,1,1-.15,1.43.57.48-.32,1.52,0,1.6-.72-2.16-.24-3.27-2.08-5-3.27-.32-.63-1.43-.08-1.36-1h0c-3-3.11-5.27-7-9.33-9-1.2.8.55,1.68.16,2.87.63.49.55,1.36,1.19,1.67l.08-1.1A8.67,8.67,0,0,0,152,85.9c.4.23,1.12-.32,1.51.23a.49.49,0,0,1-.39.72c-1.12.09-2.56.09-3.44-.95C149.59,89.57,154.85,85.66,155.25,89.17Z"/><path d="M149.9,83.27c-.08.31.32.71.64.55C150.7,83.43,150.14,83.43,149.9,83.27Z"/><path d="M205.84,112.47h-.32c-.24.16-.48.48-.32.72h.64Z"/><path d="M203.92,110.16l-.23.39h.39C204.08,110.4,204.08,110.24,203.92,110.16Z"/><path d="M201.77,125.79c-.08-.23-.4-.08-.56-.15v.72h.32C201.61,126.2,201.93,126,201.77,125.79Z"/><path d="M194.59,138c.71.71,1.75.64,2.31,1.59a.92.92,0,0,0,1-.48l-.32-.24C196.34,138.88,195.63,137.05,194.59,138Z"/><path d="M199.06,135.54a9.6,9.6,0,0,0,4.31,1.59v-.4a25.59,25.59,0,0,0-4-1.43Z"/><path d="M175.64,129.38a2.45,2.45,0,0,1,1.31,1.28"/><path d="M174.48,135.3c-3.8,1-9.45,3-13,.11l-4.38-3.06c-.65.61-1.71.79-2.38,1.51a30.72,30.72,0,0,1-3.9,1.13,16.6,16.6,0,0,1-3.58.09,27.59,27.59,0,0,1-4.64-1.14,41.76,41.76,0,0,1-6.05-3.18,6.37,6.37,0,0,0-1,1.51c-2.47,5-4.49,10.06-6.64,15.13a40.8,40.8,0,0,0,19.48,7.84c6.39-.07,11.89.41,18-1h2.24s.76,0,1.54,0c.32-.88,4-11,4.1-12s1.82-7.52,1.82-7.52A11.51,11.51,0,0,1,174.48,135.3ZM169.69,153s-18.19,1.82-21.06.86a35.92,35.92,0,0,1-18.3-7.11l6.38-14.09a24.78,24.78,0,0,0,18.94,2.84h0c.64-.64,1.41-1.52,1.41-1.52a10.36,10.36,0,0,0,2.79,2.66c1.51.48,6.2,2.13,6.52,1.74,2.55.08,8.77-2.4,8.77-2.4Z"/><path d="M124.21,152.52c-.32.57-.48,1.29-1,1.6-.88-.39.08-1.35.4-1.91.24-.08.4.15.56.31"/><path d="M298,142.72c-.32-.56-.24-1.52-1-1.68-.56-.88-2-1.67-.63-2.63.63-3.59-3.44-6.63-6.15-9.33-10-8.07-19.95-15.49-31-21.56-1.68-1.35-3.83-1.59-5.59-2.7a75.19,75.19,0,0,0-34.31-7.59c-1.67.08-3.51.88-5.18,1-.31,1.21-1.84.72-2.47,1.6-2.48,0-3.11,3.19-4.71,4.15-.24.88-1.43,1-1.43,1.91a72.33,72.33,0,0,0-5.91,8.14c-.32.72-1.12.88-1.12,1.76a18.06,18.06,0,0,1-4.31,5c.16.56-.4.8-.56,1.11-1.51-.71-1.27,1.37-2.3,1.45-3.11,4.62-7,8.53-12.53,10.68a.45.45,0,0,1-.3-.53v0s.11-2.19-.82-2.73-2.39-3.32-2.39-3.32a2.23,2.23,0,0,1,.8,0,1,1,0,0,0,1-1c-.39-1.45,1.2-.09,1.67-1.12a41.72,41.72,0,0,1-2.7-3.75,4.9,4.9,0,0,0-1.44-3.43c-.56-4.87-4.71-8.37-4.87-13.25-1.35-2.63-1.27-5.82-3-8.29-.64-.88.48-1.52.72-2a12.41,12.41,0,0,1-4.15-4.23,73.7,73.7,0,0,0-4.5-5.86c-.3,0-.69-.47-1-.45-4.55-5.5-10.21-13.49-18.51-10.45L135.72,72c-2.72-.16-6.39-.8-8.31,1.83-1,1.2-.55,2.15-.47,3.59.47,1.12,1.28,2.39,2.63,2.47.8-.4.8-1.51,1.68-1.83,2.39-.72,4.07,1,5.9,2,1.36,1.27,3.11,1.83,3.75,3.74-2.15,1.27-4-1.43-6.06-1.35.32.88,1.67,1,1,2.07-1.59-.33-3.19-.64-4.7-.88-.16.16-.64.16-.48.55,1.6,1,3.59,1.29,4.79,2.88h0a8.06,8.06,0,0,0,.64.52,50.51,50.51,0,0,1,5.18-3.15l3.91,3.87S141,91,140.87,91c.39.31,1.06,1,1.07,1a25.8,25.8,0,0,1,7.18,18.12c-.37,2.15-2.67,2.86-4,4.49l-1.85,1.21c-.52.18.6.68.26,1.19a10.94,10.94,0,0,1-4.44,3.72c.4,1.2,1.83,0,2.39,1l-3.1,2c-.88,1.27-2.64,2-3.76,2.88l1.68.88c.16.56-.48.87-.72,1.42-1.52,3.84-5.59,1.61-8,2.56-1.84-1.27-4.63-.4-6.38-1.84-4.71-1-8.06-4.63-11.89-7.34-.64-2.47-3.75-2.55-4.47-4.86-3.42-3.43-6.3-7.5-9.57-10.94-.64-.55-1.59-1-1.91-1.75-1.44-2-4-2-6.15-2.71-8.14.64-15.08-.63-22.1,2.71-2.47.25-4.47,1.76-6.79,2.32-.73.59-1.93.71-2.7,1.14l-2.73,1.63c-5.69,2.39-10,6.87-15.07,10.32a239.06,239.06,0,0,0-26.33,23.53C8,149.05,1.28,152.47,0,159.18c3.11,2.23,5.59-1.52,7.9-3l.16.15c0,.24-.08.64-.4.73.16,1.11-1.2,2.39.08,3.27,3.51.55,5.82-3,8.54-4.16.79.4-.32,1.52-.16,2.16a1.54,1.54,0,0,0,.87,2.15c3,.24,5.83-1.76,8.46-3.58,2-1.12.16,1.11,1.12,1.82.55,1.36,1.91.57,2.87,1.21,3.11-1.21,6.38-2.08,9.1-4.31a2.4,2.4,0,0,0,1.67-.72c.24.16.16.56.16.8.24,1,1.28.71,1.84,1.2,4.55-.49,7.9-2.31,11.81-4.31,2.07-.09,3.83-4.07,5.58-1.44.55-.16.8-1,1.27-1.2a.75.75,0,0,1,.32.72c1.44,2,4.31.55,6.15.16a2,2,0,0,1,.72,2,5.44,5.44,0,0,0,4.78.72c1.6,0,2.31-1.52,3.84-1.29a4.42,4.42,0,0,0-.41,2.33c0,.95,1,1.11,1.6,1.74a5.83,5.83,0,0,0,5.42-2.07c1.44.08,0,2.64,1.92,2.87,3.35.65,6.3-2.15,8.69-4,.48.24,0,1,.16,1.28.48,1.36,1.84,1.52,3,1.59,1.52-.15,2.32-1.52,3.6-2l.16,1.6c1,.71,1.26,3.43,3.26,2.39,1.28-1.36,1.68.55,2.88.71a4.76,4.76,0,0,0,3.58-.87c1,.32,1,1.59,1.76,2.32a3,3,0,0,0,1.59.31c.25-.2.62-.35.92-.54L117,160c.64.15,1.76.23,2.16-.41,1.6-1.27,1.27,1.36,2.47,1.6.56.24,1-.48,1.68-.48a3.22,3.22,0,0,1-.24,2.47v1.76c-.4.16-.32.48-.32.79,1,2.24-2.32,2.17-3.43,3.36-1.27.87-.95,2.88-2.71,3.43a73.54,73.54,0,0,0-3.35,8.21,37.8,37.8,0,0,1-3,12.45c-1,1.12.48,1.29.71,2.16A16.78,16.78,0,0,0,109,198c-.4,1.51-1.67,1.91-2.87,3,.55,2,1.27-.56,2.47-.41.08,1.12-2,1.84-1.83,3,.47.17,1.43.64,1.83-.16a4.15,4.15,0,0,1,2.15-3.75c-.23.88-.23,2-.88,2.64.25.64-.31,1-.55,1.44-1.68,1.19-3.67,4.13-6.15,2.86-.71.72-1.75.33-2.47.8-2,.24-3.83.41-5.34-1.11,1.43-1.12.71-3.36,1.75-4.71-.64-2.4,2.16-2.08,3.27-2.87,1-.8.64-2,.64-3-1.12-1.36-2.31-2.72-4.23-2.87l-1.79.66c-.53.31-.82,1.07-1.16,1.48-.64,1.92.71,3.43,2.15,4.71.4,1-.24,2.16-.63,2.87-1,1.28.23,2.31-.81,3.44-.31,0-.55-.32-.71-.08l-1-2.48c-2.26-6.42.58-12.2-1.17-19.06-1.2-1.44-1-3.91-2.87-4.47a1,1,0,0,1,.39-1c-.63-1.28.72-4.15-1.11-4.15-1.44,1.68-1.83,3.83-3,5.42l-.48-.39a43.49,43.49,0,0,0-2.87-8.93c-1.12-.64-.4-3.6-2.4-2.4-1.43,4.31.24,8.22-.31,12.36.24.24,1-.23.87.56-.87.56-1.59-.87-2.47-1.27-3-1.83-4.62-5.51-8.46-5.51-.48.08-.32.4-.55.72,1.35,1.12,2.87,2.39,2.87,4.15a16.91,16.91,0,0,1,2.47,4.3c-1.76-.63-3-.1-3.29,1.59l-1.18-1.43c-1.27-3.34-2.71-6.62-3.91-9.88-1.91-3.19-3.11-6.71-5-9.9-2.48-2.48-3-5.83-5.27-8.37h-.88c-.39.7.64,1,.56,1.74-1.44,1.05,0,2.23-.4,3.6h-.47c-1.44-1.44-2-3.2-3.59-4.31-.64,1.59-.32,4.39-.16,6.62.16.55.72,1,.47,1.6-2.07-.65-3.67-2.48-5.5-3.6-.24-.31-.88-.55-1.12,0,.54,5.65,4.79,9.76,8,14.29L53,177c2.55,3.82,6.15,6.69,10,9.49V187c-.63,1.11,1.28,1,1.84,1.83,0,.16.08.47-.16.56-1.6.16-2.95-1.2-4.55-1.52l.24-.72a5,5,0,0,0-2-1A6,6,0,0,0,55.77,184c-3.91-.95-6.62-4.79-10.37-6.07-4.71-2.23-9.26-5.42-14.52-6-1.92-.32-3.76-1.19-5.43-1.43-.16.56.56.88.88,1.11,1.83,3.75,6.3,5.36,9.34,8.06a.43.43,0,0,1-.32.16c-3.91-.55-7.42-.08-11.17-.47-1.12.16-1.75-1.45-2.79-.72.87,2.4,3.11,3.34,5,4.46,1.2.16,2.4.8,3.51.72,0-.47-.47-.63-.71-1,1.67-.88,3.27.33,5,.08.08.25.56.25.4.64-.48.4-1,1.12-1.76.8-1.51,1.51-3.35,1-5.42,1.36-1.2.07-2.16-.4-3.19.39,1.12,1.76,3.19,2.15,4.95,3,3.11,3,8.14,2.31,11.89,3,3.58.56,7.26-.56,10.45-.64,4.23-1.36,9.57-.33,14-.8l.88.4c1.6,2.32,2.87,4.79,4.7,7,.32.56,1.2,1.2.48,1.76-3.59-1-7.1-2.39-10.93-1-5.11.16-9.81,2.47-14,4.87-.48.48-1.44.32-1.6,1a6.65,6.65,0,0,0,3.36,1.44c1.67.8,4.15.16,5.58,1.12-1.76,2.16-3.91,4.63-4.71,7.34a.56.56,0,0,0,.72.48c2.15-1.68,4.78-2.16,7.18-3.51,1.83-.4,3.91-.33,5.58-1.13,2.56.16,4.39-1.35,6.71-1.75a3.76,3.76,0,0,0,2.07-.56c.48-.16,1.44-.31,1.84.32-.48,1.28-1.44,2.48-.88,4a3.29,3.29,0,0,0,2.63,1.76c1,.31,2.08-.48,2.88-1a2.79,2.79,0,0,0,.67-2.17l-.21-2.42c.56.32,1.16,1.12,1.93.83.56-.47,1.6.25,2.16.16.7-.79-1.28-1.19-.41-1.84a4,4,0,0,1,2.56,1.45c.23,2.07-2.4,1.11-2.4,3a3.29,3.29,0,0,1,.8,3.44c1,.71.8,1.34,1,2.31-.71,1.27.89,2.47-.31,3.58a36.76,36.76,0,0,0-7.9.72,4.24,4.24,0,0,1-3.27,2c-.72.23-1.76.71-1.84,1.59-.23.32,0,.88-.63.95-.48.57.31,1,.71.88a42.61,42.61,0,0,1,12.53-3c2.08-2,3.27,1.28,5,1.6,2.47-.08,4.15,1.51,6.3,2.15,1.92,1,2.63-.16,4.71.4.36-.3,1.86-.71,2-1.06l1.07-1.73c1.43.7,3.24,2.11,4.76,2.55,1.83.72,3.27-.72,4.86-.56a30.2,30.2,0,0,1,6.47,6.31c1.59.79,2.63,2.39,4,3.43,1.75.47,1.59,2.71,3.35,3.42,2.63.57,3.75,3.76,6.3,4.63.56,0,1.59.49,1.84-.32-.8-.79-.4-2.15-.72-3.27-2.56-2.79-2.32-7.18-5.74-9.49-5-3-7.75-7.9-12.29-11.65-1-1.27-.64-2.71-.88-4.14-.16-.65.4-2-.56-2.48,0-2.15-2.79-3.43-1.75-5.83.62-1.38,2.1-1.5,2.89-2.62l1.58-1.24c.7-.36,1.31-1.3,2.15-1.48.3-1.07,1.36-1,2-1.38l.79.63a28.36,28.36,0,0,1-1.72,2.59c.72,1.2-.64,1.84-.56,2.87a35.22,35.22,0,0,0-2.87,7.5c.08,1.84-1.12,3,.16,4.71a4.18,4.18,0,0,0,2.32.47c1.35-.47,2.07-2,3.26-2.62.16,1-.79,2.15-.72,3.19-.15.88-.07,2.07.72,2.54,2.16.41,4.39.16,5.91-1.51l.4.4c-.72,1.21.16,1.91.32,3.19.71,1.52,2.39.56,3.59.8,1.59-.32,2.07-2.23,3.42-2.72.56.25.09.72.16,1a3.19,3.19,0,0,0,1.6,2.4c2.15.56,3.75-1.27,5-2.56.72-1,1.27-2.47,2.23-3.19a1.63,1.63,0,0,1,.64,1c.56.79,1.43.72,2.39.72,3.91-1.6,4.63-5.67,7.5-8.46.88-.48,1.6.16,2.31.71.24.72-.48.64-.71,1.13-3.12-.33-.16,2.15-.88,3.43a1.44,1.44,0,0,0,1.83,1c1.36,1.27.89,3.35,2,4.62,4-.31,1,4.24,4.47,4.56a9.28,9.28,0,0,0,4.3-2c3.92-2.48,8.38-4.23,11.81-7.34,1.52-2.32,4.16.16,5.75-1.68,1.27.72,1.36-1.35,2.71-1,.56.16,1.68-.4,1.75.32.16-.16.32-.48.56-.48.72-.33,2.15.16,2.15-1,.81-1.11,1.68-2.07,3.12-1.43,1.83-.72,2.47-2.64,3-4.23.32-1.12.08-2.56,1-3.44l.37-2.13a16.73,16.73,0,0,1,3.74-2.42l1,.08c.25-.12.57.26.79.14l0,.35c2.18-.8,4.05-2.4,6-3.59l.26,1.65a4.77,4.77,0,0,0-.26,2.09h.56c3.51-3.19,6-7.65,9.5-11.09a1.75,1.75,0,0,1,.18-.26L224,190.8a12,12,0,0,0,3.39-2.53c-1-.63,0-1.58.56-1.82-.16-1-1.19,0-1.6-.32,0-.48.48-.48.72-.88-.47-1.28-1.27.56-2.15.15-1.2-1.59,1.68-1.1,1.43-2.55-.63-.31-.79.49-1.27.4a5.45,5.45,0,0,1-.73.85l-.42-1.22c.14-.46.89-.8.83-1.46-1-.25-1.28,1.2-2.32,1.12-.32-.24-.77.13-.61-.58,1-.81,2.05-1.57,2.05-2.69a4.21,4.21,0,0,0-1.49.84l-1.62.83c-2.86,1.12-6.06,1.84-8.77,2.87-2,1.59-4.32.8-6.46,2-1,.31-2,0-2.88.31.48,1.84,2.88.57,4.47,1.13a3.12,3.12,0,0,1-.87,1.35c-4.08,2.71-7.35,5.42-11.66,7.57-.47.09-.63,1-1.27.73-3,3-6.87,2.15-10.46,2.71-1.67.56-3.59.47-5,1.28-2.64.07-5,.79-7.18.31,1-1-.72-1.67-.48-2.7,1.75-4.24,3.67-8.79,3.9-13.26,1-3,.16-7.5-1-10.76a10.7,10.7,0,0,0-8.62-4.56c-.48-.23-1-.11-.72-.74,1.86-2.39,3.51-5.48,5.19-7.87.64.4,1,1.27,1.76,1.83.79.88,2.31.24,2.71-.72a2.68,2.68,0,0,0,2.55.88c.48-.39,1.28-.88,1.2-1.59.87-3.59,1.91,1.36,3.83.71,1.83,1,1.68-1.82,2.87-1.82a3.73,3.73,0,0,0,4.15.79l1.95-.73a3,3,0,0,1,.2.49c1,.56,1.83,1.76,3.35,1.27,2,.33,2-2,2.71-3.19a4.46,4.46,0,0,0,3.6,1.2c.71-.71,1.75-1.67,1.59-2.71.08-.72-.8-1.44-.16-2.07,1.6,1,3.59,2.15,5.59,1.91,1.35-.4.47-2.08.71-2.87a12,12,0,0,0,3.76.87c.88-.24,2.31,0,2.47-1.19.8-1-.64-2.08-.48-3a14.92,14.92,0,0,0,4.15,2.15c1.67.56,3.43,1,4.62-.4.72-1.51,0-3.19-.88-4.46.64-.41,1.6.15,2.32.55a4.84,4.84,0,0,0,5.19-1.11c.87-1.36-1.28-2.16-.48-3.27,2.16.55,4.31,1.82,6.38.55a6,6,0,0,0-1.91-4.78c4.86.16,9.42,3.42,14.52,1.59.87-.55.08-1.28.32-2.31-.24-.88-2-1.51-1.2-2.55,1.27.47,2.24,1.51,3.59,1.76,2.72,1.34,5.91,2.22,8.94.78,1-.72.4-2,.55-3,1.76,0,3,1.29,4.71,1.44l.48.4c4.15.8,8.45,5.11,12.61,1.84.79-.49.32-1.77.47-2.39h.08c3.19,1.27,6.15,3,9.26,4.46,3.35,1.11,6.62,3.82,10.29,3A4.5,4.5,0,0,0,298,142.72ZM136.29,86.16a16.35,16.35,0,0,1-3.17-1.43c1-.44,3.3.55,4.31,1ZM96.92,199.05c-.64.32-.48-.49-.72-.72-.08-.8,1-.64,1.2-.16S97.16,198.81,96.92,199.05ZM95.8,194.9c0-.13,0-.27,0-.45l1.34-.79c.51.2,1.25.33,1.55.77,0,.47,0,1.27-.56,1.58C97.08,196.5,96.52,195.3,95.8,194.9ZM71.23,176.39a.53.53,0,0,1-.56-.32c.16,0,.48-.09.56.16ZM55,184.53a43.25,43.25,0,0,1-7.5-.88c-.4-.47-1.12-.72-1.12-1.51,2,.94,4.71.23,6.54,1.67A4.84,4.84,0,0,1,55,184.53ZM42.1,177.19c2.64,1.35,5.27,2.86,7.9,4.31v.31c-2.79-.64-6-1-8.54-2.47a5.59,5.59,0,0,1-1.11-3C41.14,176.07,41.39,177.19,42.1,177.19ZM30.45,175c-.8-.87-1.59-1.36-2-2.31,2,.48,3.51,2.4,5.26,3.27C32.53,176.7,31.57,175.27,30.45,175Zm3.27,2.24c2.08-.64,3.6,1.83,5.51,1.2,0-.49-.56-.88-.88-1a56.58,56.58,0,0,1-6.94-4v-.48c1.36.56,3.11.32,3.19,2.16.72.31.72-.65.88-.81,1.43.4,3.59.64,3.75,2.56.16,1,.88,1.75.8,2.55a7.38,7.38,0,0,1-3.68-.23C35.64,178.14,34.36,178.07,33.72,177.19Zm-8.46,4.07c.65.71,1.76.47,2.32,1.11A3.41,3.41,0,0,1,25.26,181.26Zm9.34.15-.56.72c-2.79-.72-5.5-.32-8.06-1.44v-.31c2.88.47,5.83-.48,8.3.88,1-1,2.63-.57,3.91-.88.8.24,1.2,1.51,2,2h0c.79-.24.55-1.27,0-1.68a9.84,9.84,0,0,1,5.58,2.23c-.48,1-1.68.09-2.39.33-.56-.4-1.52-.33-1.92-.88-.41,0-.84,0-1.27,0h0C38.25,182.4,36.16,182.52,34.6,181.41Zm7.5,2.4a46,46,0,0,1-6.46,1c-.4.08-1-.08-.88-.47C36.75,182.69,40,183.34,42.1,183.81Zm-7.34,6.45a12.12,12.12,0,0,1-5-1.59c2,.16,3.59.32,5.43.48Zm5.43.57a9.91,9.91,0,0,1-4.31-.24c-.08-1.35,1.91-1,2.87-1.44.88.49,1.44-.32,2.15.16C41.23,189.87,40.42,190.36,40.19,190.83Zm7.34,0a5.36,5.36,0,0,0-2.56.47c-1.43-.31-2.23.09-3.51-.31.4-1.59,2.4-1.59,3.59-1.68,1.44.24,2.88-.55,4.23-.48A2.39,2.39,0,0,1,47.53,190.83Zm.16-4,.4.88c-2.16.24-5.83,1.43-7.58-.57-.72-.15-.48.65-.72,1-1.2-.24-2.55.64-3.43-.71l-.71.71c-2.72-.79-6.23-.08-8.62-1.11.72-.79,2-.4,2.94-.56,4.55-1,8.62-.32,13.25-1.2,5.5.4,11.25-.55,16.12,2.48-3.28-.72-6.23.15-9.34,0C49,187.72,48.48,185.4,47.69,186.84Zm4.47,3.42c-.72-.39-2.48.88-2.32-.23,1.76-1.51,4.95-1.36,7.18-1.36,1.6.08,3.11.48,4.71.72C58.54,190.51,55.35,189.07,52.16,190.26Zm-4.47,14.85c-.24-.08-.56.08-.72-.15s.48-.65.72-.33Zm32.15,19.07c-2.07,1-4.71.4-6.46,2-.56-.24-1,.57-1.44-.15,1.12-1.84,4.07-.87,5.19-3,2.23,0,4.87-.72,7-.48C84.23,224.66,81.2,223.47,79.84,224.18ZM249,103.54c3.43,1.59,6.86,3,10.21,4.86,11.89,6.14,22.58,14.93,32.8,23.3,1.43,1.91,4.3,3.51,3.67,6.47-.24.55-.88,1.2-1.52.71-6.46-4-12.92-8.78-19.71-12.21-5.5-3.5-11.17-6.54-16.67-10,.32-1.2-.64-2.31.32-2.71,2.79.16,4.78,2.31,7.33,3.11,3,1.92,6,3.59,8.86,5.58,2.95,1.43,5.51,3.91,8.38,5.19l.4-.39c-3.75-3-8.3-5.35-12.21-8.22-2.79-2.16-6.14-3.19-8.78-5.27.72-1.44-.39-2.87-1.27-4.06-1.92-1.84-4.71-2.08-6.79-3.84-.31.08-.79-.24-.95.24,2.31,1.83,4.87,2.63,7.34,4.3a2.06,2.06,0,0,1,.24,1.92c-1,1.2-2.87.56-4.15.56-4.79-2.32-9.9-4.07-14.52-6.78-.32-.32-.16-.56,0-1l2.87-.48V105c2.31.55,4.31,2.47,6.78,3,2.08,1.27,4.47,2.07,6.47,3.42.31.08.47-.16.71-.32-.48-1-1.75-1.19-2.63-1.83-2.87-1.67-6-2.79-8.86-4.47v-.23A1.42,1.42,0,0,0,249,103.54ZM190,140c1.75-.16,2.07,2.47,3.83,2.32.32.31.72.87,1.2.39.48-.88-.88-1-1.36-1.51-.48-.32-1.11-.4-1.52-1,.41-1,1.12.23,1.84,0,.8.88,2.15.79,2.71,2,.16.48-.16,1.44-.88,1.44-1.43.88-2.23-.87-3.59-.72C191.72,141.91,189.32,141.44,190,140Zm-1.6-2.32c-.16-.39.24-.39.4-.55,1,.23,2.63-.56,2.88,1,.16.32-.25.48-.4.71C190.28,138.72,189,138.72,188.44,137.68Zm3.83-2.15c.49-.95,1.76-.72,2.48-1.43.64.16,1.36.32,1.43,1v.39C194.83,135.38,193.55,136.65,192.27,135.53Zm1.6,3.76c-.4-.64-1.36-.8-1-1.6,1.28.08,2-1.37,3.43-.56,1.2.88,2.72,1.59,4,2.47.15.56.95,1,.47,1.67C198.18,142.72,196.26,139.68,193.87,139.29Zm3.43-4.56a1.08,1.08,0,0,1-.4-1,5.25,5.25,0,0,1,4.63,1c1,.25,1.75.88,2.88.8.87.73,2.31,1.51,2.7,2.8a1.14,1.14,0,0,1-.87,1.43C202.88,138.49,197.78,139.2,197.3,134.73Zm3.91-1a1.28,1.28,0,0,1-.72-1.75c1.2-.57,2.16,1,3.27,1.43,1.36.79,3,.79,4.47,1.2l.48-.48c-.88-1.21-2.24-.48-3.51-1.12-.79-.48-2.23-.32-2.23-1.59.95,0,1.67-.48,2.71-.41h0c1.59,2,4.15,1.68,5.75,3.83a1.45,1.45,0,0,1-.56,1.6C207,137.29,204.8,133.93,201.21,133.7Zm0-3.6c.24-.63.64-.31,1,0,.16.4-.32.4-.48.56C201.45,130.5,201.37,130.5,201.21,130.1Zm1.28,0v-.87a.7.7,0,0,1,.88.56C203.13,130,202.81,130.5,202.49,130.1Zm3.91,0c.64-.39,1.27.4,1.83.56,1.92-.31,3.83,2,5.19.16-.4-.79-1.36-.16-1.84-.56-1.59-.71-4-.23-4.78-2,1.12-.32,2.07-1.44,3.35-1,2.07,1,4.63,1.44,6.3,3.27.48,1.28-.64,2-1.6,2.16C211.58,132,208.63,132.58,206.4,130.1Zm7-20.41h0c.24.63-.72,1.12-1.27,1.36-.65-.16-1.52.31-1.92-.49a1.07,1.07,0,0,1,.48-1.27C211.9,109.59,212.78,108.16,213.42,109.69Zm0-1.84c0,.23,0,.71-.4.55C212.62,108.08,213.1,107.85,213.42,107.85Zm6.62.71c-1.12.25-3.19,0-4.47.72l-.39-.16c.23-2.15,2.87-.56,4.3-1.44a3.83,3.83,0,0,1,2.16.72,1.88,1.88,0,0,1-1,2c-1.84.4-3.75,1-5.75.64a1.59,1.59,0,0,1-.31-.64c.31-.81,1.27-.16,1.75-.56,1.28-.56,3.19.08,4.31-.56C220.68,109,220.28,108.65,220,108.56Zm-8.93,12.61c-.24-.48.39-.72.55-1,1.68.55,4-.32,5.67.55-.32,2.79-3.75,1.28-5.9,1.83C210.46,122.45,211.43,121.81,211.11,121.17Zm2.15-2.23c-.56-.25,0-.65,0-1s.32-.4.48-.56a30.29,30.29,0,0,0,6.46-.47c.24-.08.08-.41.08-.72-.4-.73-.87.15-1.43,0a30.17,30.17,0,0,1-5.27.15c-.24-1,.88-.48,1.27-1,2.88.25,6.07-1.35,8.23.8.39.8-.32,1.67-1,2.08C219.73,119.49,216.13,119,213.26,118.94Zm7-5.51c2.08-.64,4.23-.56,6.47-.87.15-.33-.32-.64-.56-.73a14.47,14.47,0,0,0-5.19.64c-.24-.32-1-.24-.72-.88,1.92-1.19,3.59.4,5.67,0,.39.16,1.11-.16,1.52.24s.31,1,.15,1.44c-.8,1-2.15.4-3.11.72C223.15,114.06,221.16,114.71,220.28,113.43Zm2.8-2.72c-.56-.24-.25-.71-.32-1.12.87-.94,2.31-.63,3.43-.87,1.43-.16,2.79.24,4.15-.32.16-.24-.08-.39-.24-.55-2.72-.56-5.11.39-7.74.31-.32-1.27,1.43-1,2.15-1.6,2.64.41,5.67-.47,7.26,1.84C230.1,111.68,226,110.64,223.08,110.71Zm4.54-5a1.18,1.18,0,0,1-.56-1.28c.48-.87,1.6-.16,2.32-.55,1.91.15,2.71.47,4.7.55.56-.4,1.2.88,2.16.4,1-1.75,2.32.4,3.43.55-1.11,2.16-4.23.81-6.14,1S229.62,105.85,227.62,105.69Zm-1.12-2.32c-.47-.08-.79-.63-.31-1a6,6,0,0,1,3.59.55Zm-5-1.82c-.4.15-1.12.31-1.44-.17.4-.71.32-1.67,1.28-2a38.54,38.54,0,0,1,7,.4l.48.55C227.15,102.1,223.63,101.38,221.48,101.55Zm2.87,1.27c.24.72,1.44,1.43.56,2.31-2.24,1.52-5.18,1.84-7.9,1.84-.64-.24,0-.65,0-1,1-1,1.91-.39,3.19-.64l3.11-.4.48-.56c-2.55-.87-5,1.11-7.34-.55a1.19,1.19,0,0,1,.72-1.36C219.4,102.58,222.11,102.66,224.35,102.82Zm-5,9.49.16.41c.09,1.19-1.27.55-1.75,1.19-2.16.24-4,1.12-6.15,1.43-.31-.31-.63-.72-.31-1,.23-.81,2.47.4,1.59-1h-1.28c-.4-.71.57-.8,1.12-1A31.83,31.83,0,0,1,219.32,112.31Zm-7.17,4.87c.07.79-.65,1.27-1.28,1.6a4.88,4.88,0,0,1-2.16.24c-.64-.57.08-1.37.24-2C209.83,116.22,211.27,116.7,212.15,117.18Zm-2,3.27c0,.48.08,1-.48,1.36-1-.32-2.16.63-3-.32a1.72,1.72,0,0,1,.47-1.27C208,120.06,209.35,119.73,210.15,120.45Zm-.64,2.87a1.89,1.89,0,0,1,.72.64h0c.4.06.64-.41.88.06.23,1-.88.65-1.28.88-1.28.17-2.16,1.13-3.43.33a2.63,2.63,0,0,1-.88-2.16C206.8,122.52,208.31,123.48,209.51,123.32Zm4.23,4.31a8.11,8.11,0,0,1-3.19-1.68c1.91-.87,3.35,1.28,5.34,1.12,1.36,0,3.59,1.44,4.15-.16-.56-.55-1.51,0-2.15-.39-1.76-.64-3.83-.4-5.35-1.61-.31-.31,0-.71.16-.94,3.19.71,5.91,2.46,9.18,2.94a1.39,1.39,0,0,1-1.12,1.91C218.13,129.15,216.05,128.43,213.74,127.63Zm3.67-2.88c-.4-.39-1.44-.72-.8-1.51,1.28-.88,2.31,0,3.59.56,1.76,0,3.35.56,5.11.56.16-.16.48-.33.48-.56-2-1.35-5.11-.24-6.78-1.92.23-1.11,1.35-.39,2.15-.39,1.51.56,2.94,1.27,4.47,1.75h1.12c.63.32,1.51,1.12.72,1.84,0,.24-.25.4-.41.55C223.47,126.2,220.76,125.32,217.41,124.75Zm3.59-4.54c.32-1.36,1.83-.48,2.79-.72,1.59,1.84,4.23,1.2,6.15,1.84.23-.24.56-.48.4-.88-1.84-.72-3.28-.23-5-1a3,3,0,0,1-1.44-1c.32-.4.72-1,1.36-1.12l7.26,2.72h0a1.7,1.7,0,0,1,.16,1.75A15.15,15.15,0,0,1,221,120.21Zm8.06-2.47c-1.28-.32-2.31-1.36-3.75-1.44l-.56-.71c.88-1.44,2.87.55,3.75-1.12,2.79.79,5.27,2.4,8.22,3,1,.15,2.47,0,2.87,1.28.16.79-.47,1-.88,1.27C235.28,120.21,232.17,118.78,229.06,117.74Zm9.89-.87c-2.95-.41-5.82-1.12-8.13-3,.39-1.35-3.28-1.76-.72-2.64,1.59,1.29,3.59,1.61,5.42,2.49a80.46,80.46,0,0,1,7.74,2.39c.16-.24.64-.33.48-.73a67.55,67.55,0,0,0-8.78-3c-1-1-2.79-.47-3.19-1.92,1.68-1.74,3.27.81,4.95,1.2,3.58,1.76,7.89,2.17,10.61,5.59h0c.16.4-.24.56-.47.88C244,118.06,241.43,118.06,239,116.87Zm6.39-3c-3.12-1.28-6.39-2.07-9.34-3.59-.88-1-2.47-1-1.92-2.64a8.64,8.64,0,0,1,6.79,2c2.55.71,4.71,2.87,7.42,2.62.24-.72-.56-.72-.8-1-2.55-.56-4.63-2.15-7.1-3-.08-.23-.4-.47-.24-.79l1-.48a134.54,134.54,0,0,0,14.28,6.46,2.49,2.49,0,0,1,.72,2C252.76,116.46,248.69,115,245.34,113.91Zm-8.62-14.28a54.45,54.45,0,0,0,7,1.92h0c1.28,1,3.12.78,4.47,1.82a4.58,4.58,0,0,1-4.31-1.11c-.32.56,0,1.52-.88,1.68-2.39.23-4.62-.81-7-1-1.92-.32-3.75-.56-5.66-.88-.72-.64.32-1.2.16-1.83,2.07-.64,3.74,1,5.58.79,1.84.49,3.51.64,5.35,1.2.07-.24.39-.4.31-.71-3-1.21-6-1.12-8.93-2.32C233.76,99.23,235.2,99.63,236.72,99.63ZM220.28,98a42.26,42.26,0,0,1,11.81,1c-4.15.65-8.7-1.83-12.77.49-1.35-.16-3.35,1.9-3.91-.33C216.77,98,218.61,98.18,220.28,98Zm-5,2.32c.09.4-.31,1.18-.79.71a1.58,1.58,0,0,1-.72-1.19C214.22,98.75,214.94,99.94,215.25,100.27Zm-5,1.27c.56.24.48-.48.88-.48.39,3,2.39-1.12,3.35,1.43.39.09.79-.07,1.11.17.24.55-.39.8-.72.88-1.35-.33-1.75,1.35-2.47,1.82,1,.57,2.87-1,2.87.72a3.78,3.78,0,0,1-3.59.32l.64-.71c-.87.08-1.75,0-2.15-1C210.23,103.78,209,102.26,210.23,101.54Zm-3.12,3.83c.33.15.88.32,1,.72s-.24,1,.32,1.19c.48-.24,1.11-.72,1.75-.31.64,1-.31,2.31-.63,3.43-.4.31-.4.71-1,.71-.79-.4-.08-1-.32-1.68-.56-.31-1,0-1.59-.31C207.27,107.29,204.8,106.65,207.11,105.37Zm-6.06,7.9c.47-.4.4-1.2,1.28-1,1.35.8-.8,2.31.71,2.72.24-.56.8-.16,1.2-.32l.72.71c.87-.31.24-1,.15-1.68a2.35,2.35,0,0,0-1.35-.47c1.35-2-2.56-2.79.32-4.3.64,0,1,.07,1.12.62h0c.16.49-.32,1.29.48,1.52a9.62,9.62,0,0,1,1.59-.07c.64.39.4,1.27.24,1.83-.4.4-.79.72-.71,1.28,1.11.31,3.1-2,3.58.31-.56,1.29-2.07,1-3.11.88-1-1.12-1.43.64-2.47.72-.16.8-1.43,1.84-.56,2.39.88-.64,2.08-.32,2.32-1.68a1,1,0,0,1,.79,1.52,6.24,6.24,0,0,1-2.55,1.2c-.8-.8-1.52-.08-2.31-.48-.48-1,.87-1.91.31-2.87-.63.08-.47,1.12-1.28.72C200.09,115.75,202.48,114.07,201.05,113.27Zm-2.39,3.5c.4-.23,1.12-1.67,1.27-.31-.08.56-.08,1.11.56,1.28.32,0,.8,0,.88.48,1,1.11-.16,1.83-.16,3.11,1.12.23,3-1.28,3.91.31-.24.64-.32,1.28-1.2,1.28-1.67-.71-3.43-.24-4.55-2a1.75,1.75,0,0,0,.72-1.28c-.24-.48-.47-.16-.72,0s-.07.56-.47.72a.87.87,0,0,1-.72-.32C197.7,118.69,199.14,117.9,198.66,116.77Zm-4.23,4.56c.71-.39,2.38-1.2,2.63.16h0c.08.48-.16,1.11.24,1.44.72-.41,1.84-1.44,2.63-.41.32.88-.71,1.68.24,2.56,1.52.4.72-1.91,2.15-1.11,1.2.63.08,1.51.72,2.23,1.12,0,3-.56,3.59.47,0,.64-.88,1-1.43,1.28-2.32.87-3.44-1.59-5.59-1.12.08-.31-.08-.63.16-.71-.24-.56-.88-.33-1.12,0s-.56.24-.87.24c-.48-.73.07-1.45.55-2-.24-.16-.4-.56-.71-.39-.16.39-.64.71-.88.94-.56-.16-1.36,0-1.44-.88-.23-.55.48-.79.32-1.43C195.14,122.36,193.71,122.29,194.43,121.33Zm0,3.91a.57.57,0,0,0,.32.88c.63.08,1-.88,1.75-.33,1,.73-.24,1.68,1,2.32,1,.08,2.71-.32,3.35.87a1.53,1.53,0,0,1-.88,1.12c-1.59-.31-3.35-.55-4.79-.87a1.08,1.08,0,0,1-.07-1.28l.07-.16a1,1,0,0,0-1.43-.39c-.08.07-.16.31-.4.23-.8-1-.71-2.31-1.84-2.95C192.19,124,194.43,123.48,194.43,125.24Zm-4.55,2.15c2.63-1,1.28,3.11,3.83,1.84.4.08.72.47,1,.71-.32.48,0,1,.32,1.28a4.59,4.59,0,0,1,4.3.71c-.71.88-2.15.57-3.19.73-.32.15-.71.47-1,.15-.15-.31-.15-.71-.55-.95-.72.07-.88,1.11-1.68.56-.4-1.12-2.07-.64-1.75-1.92-.56-.47-.8-1.43-1.6-1.52l-1.59.25C188.28,128.35,189.32,128,189.88,127.39Zm-3.43,3.43c1,.08,3.43-.95,3.11.88-.16-.08-.24.08-.24.16.4,1.52,2.4-.08,3,1.52a2.92,2.92,0,0,1-1.83,2.46l-.88-.15c-.24-.71.48-1,.72-1.59-.64-.64-1.68-.4-2.56-.72-1.59,1-1.27-2.16-3-1.12C184.69,131.38,185.89,131.38,186.45,130.82Zm-1.44,3.6c1.44,0,3.2-.08,3.83,1.11-1,1.28-1.83,3-3.83,2.64-.56-.72,1.36-3-.71-2.72C183.66,134.81,184.69,134.73,185,134.42Zm0,5.91a1.26,1.26,0,0,1-.32-1.6c1,1.11,3.19-.49,2.72,1.76h0C186.69,141.52,185.81,140.33,185,140.33Zm1.43,7.41c-.15.63-.31,1.35-.87,1.43-1.12.41-2-.55-2.87-1.11-.72-1.76-2.72-3.43-1.75-5.34.79-.24,1,.63,1.27,1-.32,1.27,1.2,2.16,1.44,3.27a1.07,1.07,0,0,0,.87.48c.56-1.2-.71-2.07-1.27-3,.07-.33-.16-.8.32-1.05C185.25,144.39,185.65,146.3,186.44,147.74Zm-8.05-4.32c.88-.47,1.44.82,1.68,1.45-.32,1.75,2.55,3.27.32,4.78-1.6.48-2.24-1.19-3.28-2-.71-1.36-2.07-2.95-1.36-4.3.81-1.92,1.84.39,1.92,1.11.56,1-.08,2.87,1.6,3C180.07,146.22,178.39,145,178.39,143.42Zm3-2.7a.92.92,0,0,1,1.52.32c.32.16.16.48.16.71-.24.65-.72,0-1.12,0A1.23,1.23,0,0,1,181.42,140.72Zm-3.35-3.59a3.13,3.13,0,0,0,2.63-1.29l-1-.7c1.19-.73,2.07-1.45,3.27-2.17a.52.52,0,0,1-.4.88h0c-.32,0-.48.4-.72.56.16.87,1.68.23,1.28,1.43-.32.4-1.28.47-1,1.28.56.55,1.84.63,1.12,1.75a5.68,5.68,0,0,1-4.15,1.6.76.76,0,0,0-.32.72c.48.24.8.55.72,1.11a.46.46,0,0,1-.72.16c-1-.56.24-2.08-1.12-2.48.24-1.11,3.19,0,2.16-1.82-.64-.25-1.36.23-2.16.15C177.2,137.84,177.83,137.44,178.07,137.13ZM147,92.76a4.76,4.76,0,0,0,1.68,2c.55.23.79-.41.87-.72A41,41,0,0,0,136,78c-1.75-1.12-4.07-1.75-5.91-.48-.47.4-1,1.36-1.59.57-1.2-1.21-.8-2.48-.24-3.84,3.19-2.63,7.9-1.92,11,.4,2.07,3.2,5,5.67,6.46,9.09-.64,2.48,2.4,3.91,2.64,6.15l1,.56c.48,2.31,3.35,4.62,1.44,6.93-2.8-.79-3.19-4.22-5.75-5.34-.39-.4-1.19-.55-1.27-1.28C145.43,89.73,145.59,92.44,147,92.76Zm-10.68,33.6c.56-.72,2.07-1,2.47-1.84,1.75,0,3.51-.63,5.18-.55.88,3.51,3.19-1.2,5.19-.88,1.2,1-1.44,1.59-1,2.87,1.68.48.8-2,2.48-2.32.56.49-.72.88.07,1.28a3.46,3.46,0,0,1-1.51,3,4.88,4.88,0,0,0-3.19,3c.23.25.39-.15.55.16,3.51-1.51,5-5.34,5.91-8.61-.56-.16-.72.8-1.27.56-.09-1-1.52-.32-1.28-1.44-1.6.64-3.11,2-4.63,2.32-.32-.8,1-1.12.32-1.92-.32.16-.8.16-1,.56a4.9,4.9,0,0,1-3.91.72c2.16-2.24,5.43-2.39,7.66-4.71v-.32c-.88-.16-1.83,1-2.71,1.43-1.44.49-2.87,1.6-4.47.72.48-1.35,1.92-1.51,3-2.39,2.8.32,4.95-2.24,7-3.91-.09-.23.07-.56-.16-.72-1.28.56-2.24,1.84-3.44,2.88-.47.39-.95.07-1.19-.4-.56,0-1,1-1.68,1.27l.67-1.6a23.2,23.2,0,0,0,2.2-2.38c1.76.47,2.32-1.28,3.44-2.32,1.67,0-.4,2.16,1.27,2.16.72-1.76.08-3-.56-4.63-1,.31-.48,1.83-1.75,2.14a25.18,25.18,0,0,0-6.7-18.66l.16-.16c3.42,1.76,4.23,6.79,8.62,6.63,1.43-1.68-.33-3,.23-4.71-1.91-2.16-2.55-5-4.3-7.35a51.25,51.25,0,0,0-3.12-6.13c.4-.88.72.39,1.44,0-.08-.33.08-.65-.16-.73-3.11.16-3.67-2.87-5.75-4.62,0-.32-.08-.72.24-.88,6.47-1.68,11.17,4.07,15,8.46C160,85.51,161.72,91,166,94c.08.57-.56.57-.88.88a19.92,19.92,0,0,1,2.63,6.31,3.31,3.31,0,0,1-2.47.15c-.8,1.29-1.52-.47-2.32-.55-.63-.48-.39-1.6-1.27-1.76-.48.64.32,1,.4,1.6.32.55.15,1.43.64,1.76,1.11-1.52,1.75.88,2.71,1.11.87-.16-.08-1.36.87-1.59,3-.16,2,3,2.88,4.62-.4,1.11-1.12-.32-1.75-.16,1.43,1.84,3.5,3.83,4.3,6.15.63,1.51,2.23,3.2,1.44,4.78-1.44,1-2.32-1.52-3.43-1.91-.56-.24-.56-1-1.2-1-.08.88.56,1.52.72,2.32a.6.6,0,0,1-.72.23,13.63,13.63,0,0,0-3.27-3c.4,1.76,2.31,3.27,3,5,.56.63.4,2.23,1.6,1.75.23-.79-.4-1.2-.88-1.75,0-.33-.4-.72.15-1,.08,0,.32-.08.4.16.56-.16.56-.8.72-1.2,1.12.48,2,2.48,3.43,1.28.48.64,1.28,1,1,1.92-.16.15-.32.39-.56.39v.48c1.12.63,1.84,2.08,2.87,2.88-.71,2.15-2.47-1-3.59-.64.24,1.43,2.08,1.35,2.39,2.79-.31.88-1.43,0-1.83.71l.53,1.92-.11.38a4.38,4.38,0,0,1,1.14.25l-1.14-.25c-1.21-.14-2.51-.08-3.45-1.5-1.76-.07-2.39-1.92-4-2.23,0,.08,0,.31-.16.4l2.87,3.43c0,.56.64,1.12-.16,1.43a12.55,12.55,0,0,1-3.75-2.15c-.23-.15-.63-.47-1-.15.56,1.74,2.79,1.83,3.83,3.18l-.24.32c-1.68-.55-1.19,1.68-2.31,2.16-1.76.32-2.64-1.68-3.36-2.88-.23-.16-.39.09-.56.24.25.16.17.48.17.73-.4.23-.4.95-1,.71-.8-.16-.48-1.12-1-1.59-.08-.8-.64-1.84.24-2.25.48-.39-.16-.71-.4-1-1.27-.16-.64-1.51-1.43-2.15-.88.32-.72,1.52-.72,2.47a9.07,9.07,0,0,1-5.19,2.95c.88-1-1.11-1.75.32-2.55.24-.32.72,0,1-.32a4.42,4.42,0,0,0,.31-2.71,9.5,9.5,0,0,0-2,2.87c-1.52,2.08-3.27,1.12-4.78,3.19-.64.64-1.6-.23-2,.88a2.88,2.88,0,0,1-2.55-.47,1.68,1.68,0,0,1-.32-1.6,2.36,2.36,0,0,1,1.91-1.27c.24-.57,1.2-1,.72-1.68-2.07.07-3.35,5.18-5.67,2.23a3.24,3.24,0,0,1,.72-2.23c.64-.72,1.6-.33,2.31-.33.17-.63,1.52-1,.88-1.75C141.45,126.28,138.66,128.36,136.27,126.36Zm34.94,2.71-.56.32C170.41,129,171.05,128.82,171.21,129.07Zm-20.67,3.35a3.66,3.66,0,0,1-2.07.4l1.59-1.12C150.54,131.62,150.22,132.26,150.54,132.42ZM128,133.69c0-.31,0-1,.56-1.11,1.2.08,2.23-.72,3.35-.48v.48c-.32.55-1.67.4-1.2,1.28.48.24.48.63.48,1.12-.4.47-1.51.16-1.2,1.18.25.65,1.6.09,1.2,1.13-1.2,1-3.11.39-4.46.31a1.53,1.53,0,0,1-.33-2.07C126.84,134.73,128.68,135,128,133.69ZM122.62,139c1.27,1.84,3-1.68,3.91,1,.16.95-.81,1.36-1.28,2a7.71,7.71,0,0,1-3.44.64,2.54,2.54,0,0,1-1-2.07C121.1,139.45,122.93,140.56,122.62,139Zm4.51,6.55-.52,2c-1,1-2.55,1.15-3.83,1.69-.41-.08-.57-.47-.72-.87.15-.4.31-1,.87-1a.71.71,0,0,0,1.12.4C125.2,147,125.7,145.73,127.13,145.59Zm-.6-3.11c.39-.8.71-1.92,1.43-2.32.4.56-.88,1.11,0,1.75l1.12-.64c.31.72-.56,1.21-.8,1.76C127.8,142.48,126.92,143,126.53,142.48Zm-4.32-10.62a5.86,5.86,0,0,1,4.32.24h0c.07.47-.17.47-.4.55a.64.64,0,0,0-.72.63c-.32.64.79.72.4,1.44-.56.41-1.52.25-1.84,1,.08.88,1.6.63,1.12,1.6a4.27,4.27,0,0,1-4.15-1,2.89,2.89,0,0,1-.16-1.44c.32-.71,1.84-.47,1.75-1.52C121.9,132.89,121.81,132.26,122.21,131.86Zm-4.63-2.07c1.2.31,2.56.07,3.52,1-.48.4-1.68.4-1.76,1.28.32.56,1.12.64.72,1.28-.32.79-1.51,0-1.44,1,.56.56,1.76.56,1.28,1.58a2.9,2.9,0,0,1-3.43-1.27c-.16-.47-.48-1-.16-1.44.48-.4,1.36-.95.88-1.59-.48-.08-.32-.63-.56-.88A3,3,0,0,1,117.58,129.79Zm-1,8.38c1.12.4,2.63-.48,3.27.71.16-.23.4-.15.56-.15.64,1.19-1.12,1.11-1.68,1.83a2.61,2.61,0,0,1-2.47-.72C117.11,139.2,115.43,138.49,116.63,138.17Zm-1.6,0c-1.43-.72-2.15,1.27-3.75.55,0-1.11.25-2.79,1.6-3.27,1.51-.64,1.68,2.56,2.87.71.24-.15.4.1.56.25C115.91,136.81,114.88,137.29,115,138.17Zm-14.68-2.88c-2.95,1.28-5.35,5.1-8.7,3.12-.16-2.56,3.28-2.48,4.87-4,.24,0,.64-.08.88.16-.8,1-2.56.95-3.19,2.15a1,1,0,0,0,1,.4c2.32-1.12,4.15-3.75,7.18-2.15h.25c-1.84.79.15,3-2.16,3.43-.4.24-1,.15-1.12.71a.52.52,0,0,0,.4.72c1.6-.24,2.63-2.32,4.15-2.16-.08,1.6-2.39,2.24-3.43,3.36-1.28-.24-3.27.63-3.75-1.28.88-1.84,3.11-2.47,4.31-4.07A.55.55,0,0,0,100.35,135.29ZM67.64,120.93c-3.28,1.67-7,2.39-10.22,4.31a4.09,4.09,0,0,1-3.59.39c-1.12-.32-1-1.6-1-2.39.4-1.6,2.4-1,3.12-2.15C59.58,120,62.85,118,66.2,116.3c1.2.64,2.87-.64,3.59.56h0c-1.83,1.19-3.91,1.75-5.75,2.78a49,49,0,0,0-7.33,3.28c-.16.39.23.63.47.87,2.56-1.12,5-2.39,7.58-3.35a17.74,17.74,0,0,0,5.59-2.88h1.27c1.12,1.92-2.71,1.53-1.43,3.2,1.59-1,3.74-1.75,5.5-1v.32c-4.54,1.83-9,3.91-13.64,5.42-.4.41,0,1,.4,1,2.63-1.51,5.9-1.51,8.45-3.27,2.08-.56,4.07-2.56,6.06-1.59-.07,1.2-1.35,1.2-2.15,1.59a62.68,62.68,0,0,1-8.21,3.43,15.28,15.28,0,0,1-8.14,1.84,2.08,2.08,0,0,1-.48-2.16c3.19-2,6.86-3,10.22-4.54A.7.7,0,0,0,67.64,120.93Zm19.78-6.31a1.68,1.68,0,0,1,1-.31c.56,1.11,1.52,2,2.71,1.59a.76.76,0,0,1,.32.72c-1.83.4-3.83-.87-5.5,0-1.68-.47-3.83.88-5-1,.16-.32-.24-.48-.08-.88a.61.61,0,0,1,.72-.24C83.59,116,85.43,113.91,87.42,114.62ZM83.27,114c0-.64,1-.4.88,0C83.75,113.91,83.59,114.38,83.27,114Zm2.88-.56c.48-.16.88-.4,1.2.15h0c-.32.24-.72.08-1,.15A.38.38,0,0,1,86.15,113.43Zm1.91-2.88c0-.47.32-.63.72-1,.56.09,1.28-.31,1.67.25a1.37,1.37,0,0,1-1,1.27C88.86,111.59,88.46,111,88.06,110.55Zm6,4.48c-.16.23-.48.07-.72.16-.72-.32.32-.88-.56-1-.72.47-1.35-.32-2,.15a1.68,1.68,0,0,1,2.71-.88h0a2.34,2.34,0,0,0-.16.72C93.49,114.62,94.21,114.46,94.05,115Zm4.86,7.57c-.63-.08-.39-.79-.79-1.11a1.52,1.52,0,0,1,2.55,0C100.59,122.52,99.47,122.21,98.91,122.6Zm.88,1.6a1.18,1.18,0,0,1-1.27.55l-.16-.07c.24-.4,1-1.35,1.27-.65Zm1.44,2.71a3.17,3.17,0,0,1,.32,1.44,10.63,10.63,0,0,1-4.07,1.59c-.4-.71-1,.25-1.44-.24s-1.2-.88-1.11-1.59c.47-.23,1.11-.16,1.43-.71-.24-1.12,1.12-.88,1.76-1.2A6.86,6.86,0,0,1,101.23,126.91Zm3.75,4.23c.64,1.12-.4,1.75-1.28,1.84-1.6-.09-4.14,1-4.14-1.44.63-1.11,2.15-1.28,3.11-2.15C103.94,129.31,103.86,130.9,105,131.14Zm-1.28-3c.08-.48.64-.55,1-.71a1.64,1.64,0,0,1,1.36.39,1.85,1.85,0,0,1-.72,1.19A1.38,1.38,0,0,1,103.7,128.11Zm-.72-1.75c-.72.31-1.43-.32-1.91-.73-.56-.15,0-.55,0-.88.64-.31,1.44-.62,2.07,0Zm-4.14,5.9a.8.8,0,0,1-.32.72h-.4a.53.53,0,0,1,.24-.87C98.44,132.26,98.68,132.26,98.84,132.26ZM96,125.4c-1.52,0-3.43,1.19-5,.23v-.72a2.24,2.24,0,0,0,1.6-1.11c-.24-.55-.88-.24-1.12,0s-.39.08-.55.17c-.32-.17-.16-.41-.16-.64.48-.88,1.59-.4,2.39-.57-.32.33,0,.72.16,1,.4.17.48-.32.72-.47l-.24-.56c1-.48,3-.88,3.67.32C96.36,123.88,98.28,125.63,96,125.4Zm-6.14-2.64c.08,1.6-1.76.48-2.48,1-1.83.23-3.83,2.08-5.42,0-.47-.32-.31-1-.15-1.43,1.19-.4,3.42-2.31,4.14-.56-.64.64-2.16.32-2.24,1.43C85.75,123.48,87.91,121.41,89.9,122.76Zm-1.12,1.92c-.56.4-1.91.17-1.91,1.27,1.19.8,2.63-1.27,3.58.41.09,1-1.11.55-1.67.87a3.57,3.57,0,0,1-2.87-.32,1.3,1.3,0,0,1-.64-1A5.5,5.5,0,0,1,88.78,124.68ZM86,119.89c.16-.79,2.55-.09,1.2-1.27h-1c.16-.33.32-.65.72-.72s1.19,0,1.19.72c-.15.4.32.63.56.71.48,0,.8-.48,1-.88,2.23-1,3.51,1.68,5.5,1.28.24.23.32.48.16.72a5.24,5.24,0,0,1-4.62.32C89.34,120.77,86.71,121.49,86,119.89Zm6.06-3c.09-.4,1-.88,1-.09h0v0h0c0,.16-.08.4-.32.4S92.21,117.18,92.05,116.87Zm3.59,1.91c-.71-.09-1.59-.4-1.75-1.21a2,2,0,0,1,1.75-.95c.4.15,1,.15,1.12.56A2.13,2.13,0,0,1,95.64,118.78ZM85,118.29c.16,1.44-2.71.24-1.6,1.92-1.43,1.2-3.66,1-5.34.56-.32-.24-.72-.87-.4-1.28C79.61,117.81,82.71,118.22,85,118.29Zm-7,0a4.53,4.53,0,0,1-4.47-.72c-.48-1.11.72-1.11,1.28-1.42,1.19.07,2.07-.65,3.27-.4v.31c-1.12.24-2.31,0-3.27.71C75.54,118.14,79,115.66,78,118.29Zm1.67-4c-.79.79-1.67.15-2.71.56-2.71.23-6.46,2.23-8.77-.56-.17-.24.16-.64.47-.88,1.68-.16,3.2-.71,4.87-1l.72.72c1.84.48,3.11.15,5,.24C79.45,113.67,79.84,113.91,79.68,114.31Zm-8.29-2.56c-2.72-.24-5.11,2.79-7.66.72a1.14,1.14,0,0,1,1-1.43c1.68-.16,3.11-1.68,4.71-.88,1.36.31,3.11-.16,4.31.39C73.7,111.92,72.1,111.27,71.39,111.75Zm-8.07-1.35c-.79.07-1.91,1.27-2.54,0-.32-1.12,1-.72,1.43-1.44,2.23-.24,4.23-1.83,6.54-1.44C68,109.92,65.16,109.53,63.32,110.4Zm-1.59,2.87.32.31h0l-.16.4c-3,2.23-6.62,3.19-9.66,5.34-.07.24.16.4.32.57a89.92,89.92,0,0,0,10.22-5.28c1-.08,2.07-.55,3.11-.15-.08.24.24.24.31.4-1.75,1.59-4,2.23-6.06,3.35-2.87,1.35-6.06,2-8.62,4.14-1.67.4-3.66,1.92-5.26.72-.4-1.59,1.52-1.91,2.32-2.71C52.64,117.26,57.34,115.59,61.73,113.27Zm4.79,15.24c2.47-1.84,5.51-2.47,8.3-3.76,1.67-1.11,3.43-2.39,5.42-2.23l.16.08a3.18,3.18,0,0,0-.16,2.08c.56,1.27,2.32.23,2.63,1.52-3,1.43-6.46,2.15-9.33,3.5-2.23-.07-3.75,1.36-6.22.8A1.43,1.43,0,0,1,66.52,128.51Zm9,1.28c.31.07.63-.24,1-.08a.79.79,0,0,0,.4.79,20.44,20.44,0,0,1,3.75-1.27,6.81,6.81,0,0,0,2.39-1.12l-.24-.71a2.23,2.23,0,0,1,2.39,1.11h0a24.52,24.52,0,0,1-8,3.44c-1.12-.09-2.63,1-3.19-.41C73.62,130.43,74.9,130.1,75.54,129.79Zm8,1.19c-.23.09-.16.4-.16.56.32.72.8.16,1.28.16.72-.39.56-1,.16-1.27,1.44-1.36,3.35-1.61,5.19-2.16a1.09,1.09,0,0,0-.72.71c.4.65,1.11.41,1.6,1a6.39,6.39,0,0,1,1.51-2.31,2,2,0,0,0,.88.32,2.7,2.7,0,0,0,.88,2c-.64.8-1.84.41-2.56.32-.32-.4-.55-.47-.87-.16a1.46,1.46,0,0,1-1,1.85,22.23,22.23,0,0,1-8.14,2.86c-.48-.23-1-.16-1.36-.71C79.92,132,82.4,131.78,83.59,131Zm2.72,4.71c1.75-1.68,4.07-2.31,6.06-3.83.72-.32,1,1.43,1.84.4,1-.24,1.91-2,3-.72-.48,3.11-3.91,2.63-5.75,4.31-1.59.72-3.27,1.6-5,1.28C86,136.81,86.15,136.09,86.31,135.69Zm20.27,2c.79-.24,1.59-1,2.39-.8a3.77,3.77,0,0,1-2.39,1.83c-.32,1.2-3.44.88-1.6,2.32,1.51-.55,2.79-2.39,4.63-2.47.32.15.23.55.23.88-1.91,1-3.51,2.62-5.74,2.87-.56-.32-1.28,0-1.68-.72C102.59,139.29,105.46,139.37,106.58,137.69Zm.23-1.28c-1-.09-2.71.47-3.27-1a1,1,0,0,1,.4-1c1.2.23,1.6-.64,2.32-1.13,1.43-1.27,2.95.41,4.46.41l.56.56c0,.55-.63.88-1,1.27C108.57,134.5,108.41,136.16,106.81,136.41Zm.33-6,.16-.72c1.27-.32.63,1.43,1.83,1.43.16.24-.16.4-.24.56A1.72,1.72,0,0,1,107.14,130.43Zm7-2.48c.79.09,2.07.4,2.47,1.28-2.87.4-.56,3.27-1.44,4.62l-.87.41c-.56-1.13-2.72-1.6-2.16-3.28.4-.48,1-.24,1.44-.72.08-.56-.4-.87-.4-1.44C113.52,128.51,113.6,128,114.16,128Zm-4.32-1.12c.09-.63-.71-.88-.39-1.59,1.11-1,2.15.56,3.27.88l.55.56h0a4.73,4.73,0,0,0-2.23,2.55c.16.56.32,1.51-.32,1.91-1.59-.07-1.51-2-2.55-2.63a1.09,1.09,0,0,1,.4-1.44C109.05,127.07,109.61,127.47,109.84,126.83Zm-4.3-4.62c0-.56-.32-1.44.48-1.6a28.87,28.87,0,0,0,2.39,2.46h0l.7-.56v.41a1.37,1.37,0,0,1-.7.15h0c-.57,0-1.1-.22-1.44.57l.48,1.11-1.43.16c-.24,1,1.75.8.79,2-1.43.24-2.15-1.59-3.11-2.71-.08-.48-.56-1-.16-1.44C104.1,121.72,105,122.85,105.54,122.21Zm-1.12-3.59c-.56.48-.24.87-.32,1.59-.87.72-2.71-1.92-2.39.4.71.07.8.88,1.27,1.27.16.4-.23.64-.47.88-1.44-.4-1.2-2-2-3,.24-1.36,2.72-.4,2-2.16C103.38,116.94,103.94,118.13,104.42,118.62Zm-4.86-4.47c1.35-.24,1.67,1.51,2.7,1.91a1.18,1.18,0,0,0-1.19,1.44c.16,1-1.44.4-1.44,1.52-1.83.94-1.27-1.52-2-2.25C97.64,115.42,99.63,115.75,99.56,114.15Zm-2.64-3.44c.88.09,1.68,1.37,2.15,2-1.59.15-1.83,3.66-3.58,2.47-.56-.88-1.36-1.76-1.12-2.72C95,111.2,96.68,112.47,96.92,110.71ZM94.21,107c.56.55,1.12,1.27,1.75,1.91-1,.55-1.19,1.83-2.31,2-.24.55.56,1-.16,1.43-1.35-.23-1.68-1.67-2-2.72-.07-.71,0-1.67.88-1.74C93.49,108.16,93.09,106.73,94.21,107Zm-4.71-3.11c1.28-.16,2.39,1,3.59,1.83-1.12.63-1.52,1.35-2.8,1-.31.15-.23.47-.23.79a1.07,1.07,0,0,1,.39,1c-1.75.79-3.51-4.15-4.54-.71-1,0-.48-1-.72-1.61.56-.95,1.28.8,1.84-.39v-.72C88,104.64,89.66,105.69,89.5,103.86Zm-6.38-1.37c.4.25.31,1.13,1,1.05.64-1.28,2-.64,3.2-.57,0,.09.07.16.24.16a2,2,0,0,1-1.28,1.28c-.72-.16.16-1.2-.72-1.44-.64.65-.4,1.76-1.6,1.84-.72-.17-1,.16-1.59-.56A1.3,1.3,0,0,1,83.12,102.49Zm1.43,3.74v1H84v-1ZM77.69,103a1.76,1.76,0,0,0,2.48.73c.47.08,1.19-.24,1.51.24-.32.7-1.44.39-2.16.63-1.51.24-3.67.79-5-.48C74.82,102.74,76.57,103.29,77.69,103Zm2.71,2.88A2.9,2.9,0,0,1,82.87,107c.09.88-2.39,1.52-.71,2.31a4,4,0,0,1,2.71-.32l.16.47a61.55,61.55,0,0,1-6.94,1.12c-.08.16-.4.33-.4.56,1.44,1,3-.07,4.63-.07,1.43.39,3.19-2.08,4.15.23.47,1.2-.88.88-1.28,1.28-3.11-.32-5.11.08-8.38-.24a1.05,1.05,0,0,1-.71-1.6c.39-.79,1.67-.31,1.59-1.43-.8-1.2-1.59.8-2.47.31-1.36-.55-4.39.49-4.39-1.91,1-.87,2.55-.55,3.43-1.43A32.5,32.5,0,0,0,80.4,105.85Zm-31.83,6.86c1.11.16,1.75-.72,2.55-1.28.35-.47,1-.55,1.59-.7l3-1.7h0a16.44,16.44,0,0,0,3-1.51h.88a26.48,26.48,0,0,1,8.93-2.71c1.12-.64,2.63-1.44,3.83-1.11l-.56.55c.32,1,1.2-.08,1.6.88,0,.56-.64.72-1,1-1-.08-2.4,1-2.87-.4A72.9,72.9,0,0,0,58.85,109c-4.06.32-7,3.43-10.6,5-1.12.47-1.84,1.75-3,2C45.21,114,47.85,114.46,48.57,112.71Zm-6.47,5.35c0,.23-.24.23-.32.39h-.32C41.55,118.3,41.78,117.9,42.1,118.06Zm-1.91,1.27h.16l-.4.4Zm-1,2c2.71-1.37,4.23-4.07,7.26-5.19,3.43-2.15,6.94-4.06,10.37-6.14.24,0,.56-.08.72.15h0a98.48,98.48,0,0,1-16.19,9.89c-.25.32-.72.4-.65.88,1.28.88,2.16-1,3.35-1.2,2.24-.63,4-2.39,6.15-3.11,2-1.59,4.55-2.47,6.47-4.63a7.75,7.75,0,0,1,4.46.16v.41c-8.3,2.39-14.36,9.32-22.58,12h-1C37,123.17,38.51,122.36,39.23,121.33ZM31,126.67l.16.16C29.49,128.19,28,130,26,131.14,27.5,129.31,29.26,128.27,31,126.67Zm-7.18,6.15H24l-.88.88C23,133.29,23.51,133,23.83,132.82Zm-7.74,22.26c-2.48,1.44-4.64,4.07-7.66,4.47-1-1.6.63-3.12,1.19-4.63,3.43-4,7.5-6.55,11.17-9.74,1.84-.07,2.56-2.55,4.63-2,6.86-6,14.36-11.81,21.38-17.07-.48-1.21-1.35.4-2.15-.32-1.59,1.43-3.43,2.71-4.87,4.14-.72-.23-.79,1-1.59.56,1.11-1.11,2.87-2.15,3.75-3.59-1.36-.55-2.16,1.13-3.2,1.91-.63.65-1.67,1-2,2l1.12.16a4.05,4.05,0,0,1-2,1.44c.16-.23.4-.4.32-.72-1.59,0-3.19,2.07-4.63,3a21.33,21.33,0,0,1-4.47,3.83c-2,2.32-4.86,4-7.18,5.91-5.82,4.39-10.76,9.41-16.35,14-.72.17-1.76,1-2.39,0,1.12-4.38,5.35-7.41,8.3-11,1.51-2.31,3.91-4.22,6.06-6.46,1.52.57,2.55-1.27,3.43-2.15,4.55-4.78,9.25-7.82,14-12.37v-.39a1.22,1.22,0,0,0-1.44.23,39.5,39.5,0,0,1,5.59-4.54A29.67,29.67,0,0,1,36,124.75h0c-6.39,5-12,10.78-18.12,15.81v.64c1.36,0,2.64-1.68,3.92-2.48A162.13,162.13,0,0,1,36.44,126c3.51.72,5.74-1.59,8.21-3h.4c-.56,1.1.4,2.15,1.36,2.55,1.11.31,1.59-1,2.55-1.12.16.88-2,1.12-.88,2.31,1.68-.31,1.75-2.54,3.43-2.7-.24,1.19,1.28,2.7-.71,3.1-10.14,8.14-20,15.33-30,24.58C19,152.61,18,154.44,16.09,155.08ZM31.73,136a1.61,1.61,0,0,1,.39-.39l1.2-1.2c-.12.74-.72.86-1.2,1.2Zm2.87-2.47c-.16.16-.32.39-.56.31C33.88,133.54,34.44,133.22,34.6,133.54Zm4.71,20.66c-3.27,1.91-6.86,3.91-10.61,4.63-.56-.16-1.28-.25-1.44-.88-.24-2.24,1.67-3.58,3.35-4.87,4.15-3.27,8.62-6.22,12.77-10.21a.87.87,0,0,0-.32-.72c-6,4.47-11.73,8.78-17.4,13.65-1,.08-1.51,1.11-2.39,1.27a11.9,11.9,0,0,1-5.9,2.48c-1.11-.88-.16-1.76,0-2.88,1.11-1.83,2.95-3.91,5-4.31,1.28-2.31,3.43-3.59,5.35-5.34,7.26-6.15,14.76-12,22.1-18l2.39-2c1.68-.39,3,.88,4.32,0h0c-.4,1.44,2.47,3.28,0,4.31.31.32.71.64,1,.32,1-1.6,3.27-1.76,5-2.47a3.45,3.45,0,0,0,2,0c-.4.71-1.67,1-1.59,2,.47.71.79-.16,1.35-.08,0-.48.48-.48.79-.48.81,1.27,2.24,1.2,3.36,1.2v.24c-4.63,4.06-10.29,6.78-14.68,11.08-.88-.07-1,1.12-1.67,1.29C47.93,147.66,43.3,150.61,39.31,154.2Zm21-5.58-.4.47c-.4-.88-1.36-.31-1.91-.16-2.15,1.2-4,3.12-6.47,3.59a31.23,31.23,0,0,1-7.89,3.12c-.8,0-1.68.24-2.23-.41-.16-1.42,1-2.3,2.15-3,.87.16.71-1.19,1.67-.95,1.11-1.28,3.19-1.76,3.91-3.35,1.59-.56,2.23-1.76,3.59-2.56,6.06-5,12.77-9.41,19.07-14.36.48.24.88-.55,1.2.16h0c-1.83,3.36-5.74,4.55-8.62,7-5,3.9-11.81,6.62-15.72,11.88.24.4.56.32.88.32,2.64-3.35,6-4.78,9.1-7.34,2.16-.31,3.75-2.15,5.58-2.87,1.12-1,3-1.51,3.83-2.71.48.16,1-.32,1.44-.56.31-.48-.4-.8-.56-.88.16-.16.47-.16.56-.47-.08.72,1,1,1.43.62.88-.62,2-1.11,2.16-2.14-.64-.73-1.28.24-1.84.56.16-.16.48-1,1.12-1.2a2,2,0,0,1,1.43.48,50.52,50.52,0,0,0,5.35-.73c.48,1-.48,1.21-.4,2.16a143.17,143.17,0,0,0-16,10.93C61.8,147.1,61.8,148.62,60.29,148.62Zm6.79,1.19c-1.6.08-3.2,1.51-4.79.4-.24-3.27,3.51-4.62,5.51-6.46,3.66-2.64,8-5.1,11.49-7.9h1.43a.83.83,0,0,1-.55,1c-1.28.48-2.4,1.36-3.6,1.84-2.63,2.72-6.46,3.84-8.77,6.79a.68.68,0,0,0,.23.71c1.52-.16,2.32-2,3.75-2.31,3.28-2.08,6.07-4.39,9.5-6.07a7.61,7.61,0,0,1,3.91-2.31c.24.88-1.36,1.51-1.2,2.64C78.25,142.07,72.58,145.59,67.08,149.81Zm2.71,2.87c-.64.09-1.12-.63-1.27-1.19,1.43-3.91,6.38-5.58,9.73-8.07,2.87-1.35,5-3.9,7.74-5.09.4.24.64,1,1.36.71.63-.87,2.55-1.43,2.94-.16-.39,2.39-3,2.87-4.54,4.71C80.56,146.94,76.57,153.09,69.79,152.68Zm24.26-1c-.8-.16-.64,1.2-1.6,1-2,1.75-4.47,3.67-6.86,3.43-1.12-.56-.32-1.74-.32-2.62.48-.88,2-1.36,1.2-2.4-1.52.48-2.24,1.76-3.6,2.56-1.58.62-3.1,2.46-5,1.43-.79-.8-.32-2.32-.16-3,1.84-2.87,4.71-4,7.19-6.3,2.15-2.07,4.71-3.67,6.61-5.75.4.08.88-.07,1.28.17h0c-1.51,1.83-3.75,4.31-5.9,5.43a25.13,25.13,0,0,0-4,4.3,1.18,1.18,0,0,0-1,.48c-.16.32.32.48.48.72,1.51-.64,3-2.55,4.39-3.43,2.55-2.07,5.26-4.24,7.1-6.94,1.36-1.2,1.59,1.35,3,1a.79.79,0,0,1,.15,1.12c-2.87,1.92-6,4.55-8.77,6.3-.16.08-.08.31-.08.47a.75.75,0,0,0,1.27.17l5.27-4.07c.56.4-.32.55-.24.88-2,1.75-4,2.63-5.58,4.87.24.16,0,.55.39.71,1.68-1.11,2.72-2.72,4.64-3.27,1-.8,1.35-2.54,2.87-2.71a5,5,0,0,0,2.15-2.8.58.58,0,0,0-.88-.07l-.87.71c.31-.31,1.27-2.07,2.31-1.59s2.31.48,2.87,1.67l-.16.49Zm14,6.46c-.87.15-1-.56-1.59-1,.23-2.15,1.83-3.35,2.71-5.26a18.35,18.35,0,0,0,3.58-4.63,15.3,15.3,0,0,1,3.44-1.6l-.09.48c-2.55,2.15-4.78,4.87-6.93,7,.23.24.47.56.88.41a53,53,0,0,0,5.89-6c1.84.16,2-1.83,2.56-3-.56-1.12-1.44.31-2.16-.17-1.27.24-2.71,2-4,.72-.4-.79,1.19-1.19.23-1.84-1.75.24-3.35,2.72-5.1,1.12-.24.64-.88,1.44-.31,2,.31.16.47-.23.87-.07-.71,1.59-2.63,2.87-3.19,4.39l.47.47c2.32-1.27,3.27-4.79,5.83-5.9.16.72,1,1.21.72,1.84-2,2.55-4.39,5-5.83,8.06-.88,1.11-1.67,1.91-3,1.91.32-1.68-1.75-1.68-1-3.51.8-2.48,3.27-4,4.31-6.15a.5.5,0,0,0-.72-.39c-3.19,3-4.86,7.33-9.57,8.14-1.19-.71-.79-1.92-.47-2.88,2.39-3.11,6.22-5.34,8.77-8.46,1,.09,1.91,1,2.71-.15-.4-1.52,1.19-1.76,2-2.39,1.43-.09,2.07-1.83,3.58-1.6h0c-.56,1.28-4.55.73-2.55,3l3.9-2.3c.72-.17.81.94,1.52.94l2.15.17a19.91,19.91,0,0,1-3.67,2c-.23.49.25.81.56.88,1.68-.16,2.71-1.9,4.47-2-.16,1.36,1.91,1.2,1,2.71.16.41.55.32.88.32.47-1.59,2.15-1.51,3.42-1.92.4.25.88,0,.88.64-.72,1.84-2.47,2-3.75,3.27-1.27-.31-2.71,1.84-4,.32-.72.48.08,1.28-.16,1.83C114,152.2,112,156.35,108,158.11Zm8.62-2.87a19.67,19.67,0,0,0-.61,3.16h0l-1.55.76c-.71.08-1.91.57-2.31-.47a3.33,3.33,0,0,1,0-2.16c1.12-1.28,2.16-3.36,3.91-3.43.8-1.44,2.55-2.56,3.11-4.15.72-.16,1.36-1,2.16-.47.31.31.08.86.15,1C120.22,151.58,117.27,152.77,116.63,155.24Zm5,4.71c-1.35-1.12,1.13-2.55-.15-3.43-1.12,1.2-2.55,2.87-4.15,2.31-.56-1.27.4-2.55.24-4l2.64-2.79c.15,1.11-3,2.48-.56,3.35,1.82-1.91,2.14-5.82,5.42-5.75.16-.4.56-.32.88-.32,0,1-1,2.4-.48,3.44-.4,2-1.36,4.23-1.44,6.38C123.17,159.23,122.62,160.11,121.65,160Zm-2.31,10.76a3.76,3.76,0,0,1,1.28-1.43c.87,0,1.44,1.6,2.31.64.32.08.88-.32.88.24-.8,1,.24,2.32-.32,3.2.4,1.27,2.32,2.87.56,4.14.32,1.2,1.76,1.35,2.31,2.32l.72-.56a1,1,0,0,1,.48,1.43c-.4.16-.32.48-.32.8a4,4,0,0,0,2,2.8,6.29,6.29,0,0,1-.95,1.82,1.58,1.58,0,0,1-1.92-.88c.17-1.59-.23-3.42.33-4.85l-.49-.4c-.55.47-1.11,1.51-1.83,1.67a1.23,1.23,0,0,1-1.44-.56c-.87-2,1.68-3.91-.87-5.35-.25-1,.47-1.67.31-2.7.32-.16.41-.56.56-.88-1-1-1.83.79-3.19.16C119.34,171.91,118.94,171.12,119.34,170.71Zm7.5,17.89c-.87.15-1.83,1-2.79.23a4.59,4.59,0,0,1-.24-3.43c1.28-.79-.16-2.22,1.28-2.87l.32.32c0,1.35-1.52,3.51.72,4.38.4-.23,1-.08,1.51-.08.24.81,1,1.45,1.43,2.16-.39-.07-.79,1.2-1.43.56C126.84,189.71,127.72,188.6,126.84,188.6Zm-9.66-15,.56-.39c.16.72,1.28.72,1.2,1.59h0c1.2,1,1.12-1.2,2.16-1.28.47,1.43-2.64,3.68.55,4,.72.32.16.8.16,1.28-.72.32-1,1.11-1.75.56-2-.56,1.11-4.3-1.76-2.39-.23.32-.87.24-1.43.24C115.91,176.07,116.79,174.71,117.18,173.59Zm-2.46,5.67c1,.4,2.15-.25,3-.72a.79.79,0,0,1,.87.57c-.07.94.08,1.9,1,2.3h1.68c.4.48-.24,1.76.87,2.16h1.28a4.12,4.12,0,0,1-1.84,2.71c-.63.32-1.11-.48-1.27-1a.9.9,0,0,0-.48-1.28,2,2,0,0,1-2.15,0c-.8-1.27.48-3.27-.56-4-.56,1-1.12,2.22-2.47,2.22C113.92,181.41,114.56,180.14,114.72,179.26ZM113,188.83a1.86,1.86,0,0,0,1.43.88c.64-.23.32-1,.4-1.28.48-.07.48.24.87.56-.23.32-.07.72-.15,1.11,1,.57,0,1.45.88,1.92,1.75-1.59,2.23,1.52,4,1.28.47.48,1,.87,1.59.71.24-.47,1-.39.72-1.11-1.2-.24-1-1.27-1.6-2.07-.71-.08-1.11.88-1.83.31-.4-.47-.16-1.2-.72-1.59-.63.32-1.51.71-1.83-.24a3.49,3.49,0,0,0-1.44-2.87c-.79-.32-1.51,1.27-2.07.08s2.15-.32,1-1.84c.71,0,.87-1.19,1.75-.88a4,4,0,0,0,1.51,1.92c.65.33,1.36-1,1.44.08-.16,1-2.63,1-1,2.07.48-.31.63-1.11,1.43-.64s.63,2.16,1.84,1.44c.15-.31.24-.87.72-.95.79,1.11-.08,4.06,2.46,3.27.56-.24,1-1.28,1.84-.73-.08,1.37,3.11,1.92.72,2.88-.4-.08-.56.4-.88.56,0,.72.8.63,1.19.88,1.36.63,1.2-1.6,2.56-1-.24.16-.56.64-.16,1a1,1,0,0,0,.72.31c.32-.15.32-.47.48-.72l-.72-.55c.56-.15,1.44-.24,1.6-.87-.72-1-1.76.47-2.64-.48-.56-1,0-1.68.16-2.72,1,.08,1,1.52,2.16,1.59.23.57-.16,1.37.71,1.61.24-.24.56-.16.88-.16.64.39,0,1,0,1.58-1,1.2-2.39,2.33-4.15,1.84-1.28.24-2.15,1.92-3.19.88,0-.55.64-1.11,0-1.59-1,.55-1.91,1.67-3,1.43-1-.64,1.2-2.07-.56-2-1.12,1.19-2.08,2.79-3.91,2.15-.32-.31.16-1.27-.72-1-1.27,2.39-3.42,3.92-5.42,5.74l-.16-.07c1.6-1.91,3.67-3.51,4.63-5.67-.32-.55.08-1.59-.72-1.83a1,1,0,0,1-1,.4c-.88-.88,1.19-4.06-1.12-3.12a6.44,6.44,0,0,1-2.16,1.6A34.39,34.39,0,0,0,113,188.83Zm22.5,2.47c1.6-.71,1.6,2,3.19.88.4,1,1.52,1.12,2.47.8a2.27,2.27,0,0,1,2.23,0c.72,1.19-1,2.15-.56,3.52l2.32,1.51a2.74,2.74,0,0,1-2.71,1c-.31-.4-.72-1-.47-1.44.16-.32-.25-.48-.41-.72-.63,0-1.19.72-1.83.32-.8-1.27.32-3.11-.64-4.07a4.24,4.24,0,0,1-3.59,1.91,2.18,2.18,0,0,1-.8-2.3c-.79-1-2.07-1.45-2.07-2.72-.24-2.47,1.84-.63,2.32.23v0C134.74,190.83,135.38,191,135.54,191.3Zm12.21-4.46c.88.23.88,1.43.64,2.15-.08.08-.24.15-.16.31.24.09.32.57.71.41a21.72,21.72,0,0,0,2.16-4.31,2.91,2.91,0,0,1,1.59.87h0c.25.56-.39.95-.71,1.12.24.87-.08,2.08.8,2.71.47.32.63-.4.88-.72a2.66,2.66,0,0,1,1.19-2.87,1.75,1.75,0,0,1,1.27.71c-.15.33-.71.48-.55.88a.85.85,0,0,0,1.27.32c.88-.47,1.6-1.43,2.72-1.43.47.87.95,1.67.16,2.55a1,1,0,0,0,.71.88c1.28.16,3.11-1.68,3.83.4.88.15,1.52-.57,2.32-.08.47.88,2,1.52,1.43,2.72-.64.63-1,1.42-1.83,1.66l-.48-.55c-.16-1,.48-2-.56-2.87-.8.79-1,2.39-2.16,2-.72-.72-.4-1.52-.23-2.4-1.92-1.35-1,1.76-2.48,2.32-.87,0-2-.24-2.31.8.4.47.48,1,1,1.43,1.59.64,2.47-3.11,3.26-.08a9,9,0,0,1,2.64-.72c1.2.48.71,1.84.4,2.72.24,1-1.28,1.76.31,2.16.09.07.41.23.25.55a2.18,2.18,0,0,1-.72.16l-.24-.87c-.24.15-.48.15-.64.39l-.24-.39-.16.15c.48-.48-.15-1.27-.72-1.19.09-.17-.15-.24-.31-.4-.8,1.43-1.68-1.12-2.39.55-.08-.15.08-.48-.16-.55l.56-.56-1.44-1.6c-.4.56-1.6,0-1.44,1,2,.4.32,2.23,1.44,3.27.56-.95,1.35,0,2.16-.32v.48l1.27.16c-1.36.88-1.12,3.35-3.27,2.71-.24-.79.48-2.32-.56-2.87-.72.71-1.28,1.2-2,1.83-1.76-.95.39-3-1.36-3.43-.8,1.67-2.55,2.15-3.83,3.27-2-.88,0-2.87.16-4.31.08-.31-.24-.39-.32-.72-1-.07-.8,1.28-1.6,1.37-1.11-.72-.63-1.53-.95-2.48a11.16,11.16,0,0,0,.55-3h1.12a2,2,0,0,0,.56,1.75,1.21,1.21,0,0,0,1.35-.56c-.07-.32,0-.79.41-.63.63.08,1,.47,1.43-.23a3.08,3.08,0,0,1,.4-1.92c1,.16,1.84.39,2.47-.25a1.69,1.69,0,0,0,.72,1.84c.4.16.56-.39.88-.55a23.66,23.66,0,0,0-.56-4.32,26.07,26.07,0,0,0-2.16,2c-1-.07-1.75.88-2.79.33-.8.55-1.59,2.55-3,1.59-.72-.55.8-2.15-.72-2.15-.63.72-1,1.6-2.07,1.43-.32-.63-1.36-1.36-.56-2.07C147,188.59,147,187.32,147.75,186.84Zm1.19-3c.65-.16.65.56,1,.88l-.4.88C149,185.24,148.47,184.45,148.94,183.81Zm27.46,34.95a2,2,0,0,1-2.32.71c-.4-.07-.71-.47-1-.71.16-.32.23-.81.71-.64,1.2-1.2,3.91-3.11,5-1,.07.55-.56.55-.88.87-1.19.79-2.47-2-2.95-.15C175.36,218.36,176.16,218,176.4,218.76Zm-9.26-2.87c-.24-.17-.32-.65-.72-.49a4.49,4.49,0,0,1-3.43,2.88,5.21,5.21,0,0,1,.32-3c1.12-.63,2.07-2.14,3.59-1.52.48-1.43,1.92-1.51,3-2.06.4.71-.24,1.67-.48,2.47A5.74,5.74,0,0,1,167.14,215.89Zm.48,1.43v2.87c-.32,1.12-1.52,1.12-2.16,2-.64-.8,0-2.4,0-3.59C166.34,218.44,166.34,216.6,167.62,217.32Zm-2-5.34a3.65,3.65,0,0,1-2.47,1.59c-.72-.47-1.59-.8-2.31-1.28C162.27,211.34,164.35,210.22,165.62,212Zm-.16-1.84c1.2-.8,2.87-1.27,4,0-.24.8-1.75,1.19-2.71,1.52C166.34,211.18,165.06,210.94,165.46,210.14Zm3.27,6.3c.72-.88,1.76-.88,2.64-1.43.4,1,.08,1.59.24,2.55a6.45,6.45,0,0,1-2.72,2.15A5.85,5.85,0,0,1,168.73,216.44Zm2.88,2.88c.79.24,1.76.39,2.15,1.11-.8.64-1.91,1.76-3.11,1.27-.32-.47-.88-.47-1.2-.95A4.48,4.48,0,0,1,171.61,219.32Zm6.22-4.8c-1,1.37-3,.49-3.59,1.76-.48.4-1,1.12-1.75,1,.31-1.52-.8-3.11,1-3.91,1-.47.72.72,1,1,0,.08.08.16.16.25,1.51-.25.31-3.59,2.87-2.32h0C178,213.09,178.47,213.82,177.83,214.52Zm-5.34-1.66c-.72,0-1.44,1.74-2,.55.64-1.12.24-3.19,2.16-3.19.72.8,1.75-.41,2.39.63C175.28,213.41,172.8,210.54,172.49,212.86Zm-.88-6.63v-.32c.63.4,2.07-.24,2,.88C172.72,207.35,172.72,205.75,171.61,206.23Zm1.44,1.76c.47,1.76-1.6,1.19-2.4,1.82a1.68,1.68,0,0,1-1.36-1.43l-.08-.16C170.49,208.22,171.85,206.15,173.05,208Zm-3.84-1.2c-.39.56.24,1.2-.63,1.27a7.56,7.56,0,0,1,.71-3.67c.4.08,1,.24,1,.72C169.29,205.27,170,206.39,169.21,206.79Zm-.71-4.87c-.88,0-.64-1-1.2-1.27a1.5,1.5,0,0,1,1.75.55C168.89,201.44,168.89,201.92,168.5,201.92Zm.95-1.43c.16-.25-.15-.41-.24-.56-.31-.08-.63.07-.71-.16.08-1,1.19-.08,1.43.39a.46.46,0,0,1-.16.33Zm-.24-2.32a3.32,3.32,0,0,1-1.59.72c-1-1,.08-2.07.16-3.11a1.11,1.11,0,0,1,2-.65A3.14,3.14,0,0,1,169.21,198.17Zm-14.36,8.37c-1,.08-1.75,1.12-2.63,1.12.72-.56.24-2.39,1.6-1.83a1,1,0,0,0,.31-.88.53.53,0,0,1-.15-.88c.66-.52,1.12-1.23,2-1.07a.23.23,0,0,1,.2,0l-.2,0a1.2,1.2,0,0,0-.84.92C155.41,205,154.53,205.51,154.85,206.54Zm-28-4.78c-1.27.71-2.15,2.08-3.75,2.15-.31-1.11,1.36-1.6,1.11-2.55.64-1.36,1.52-3,3-3.19h0c0,1.2-2.79,2.07-.88,3,.56-.47.64-1.35,1.44-1.43.48,0,.32.72.88.39.8-.63.71-1.6,1.75-1.83,1,1.52-1.11,2.87-1.59,4.31a.76.76,0,0,0,.71.32,2.73,2.73,0,0,1,1.68-1.92l.48.16c-1,1.44-1.44,3.27-3.19,4.31a1.53,1.53,0,0,1-2-.56C126.28,203.75,127.56,202.64,126.84,201.76Zm4.31,3c1.28-2.15,2.24-4.86,4.31-6.3l.4.4c.32,2.55-2.15,3.83-3,6.07a1.12,1.12,0,0,0,.56,1.58c2.07-1.43,1.67-6.22,5-5-.56,2.31-2.07,4.38-3.11,6.53a5.44,5.44,0,0,1-4.07,1.43C130,208.14,131.39,206.15,131.15,204.79Zm4.71,4.71c1-3.11,3.67-5.27,3.75-8.85.32-1,1.36-.16,1.59.39a2.53,2.53,0,0,1-1,1.92c0,1.19-2.08,2.87-.4,3.58,1.11-1.35,1.27-3.19,2.15-4.62a2.38,2.38,0,0,1,.8,1.59c-1,2-1.36,4-2.95,5.59-1.2.88-2,2.72-3.59,2.16C135.38,211.1,135.78,210.06,135.86,209.5Zm6.86-3.27c1.28-1.44,1-3.82,3.2-4l.31.23c.24,1.84-1.51,3.2-1.91,4.88.24.24.48.63.88.47.72-1.28,1.35-2.63,2-4.07.16-.71.88-.79,1.44-.95-1.2,2.07-1,4.23-2.4,6.14-1,.32-1.75,1.28-2.79.87C142.32,208.78,142.72,207.35,142.72,206.23Zm1-6.15c.56-.31.4.41.88.41.4-.41.56-1.05,1.11-1.28.4.32-.08,1-.16,1.59-.23.4-.63.4-1.11.4C144.48,200.49,143.12,200.89,143.76,200.08Zm3.43-3.35c.48-.72,1.52,0,1.28.72h0a.41.41,0,0,0,.16.31c-.32.24-.56.63-.24,1a1.15,1.15,0,0,0,1.51.32c-.08,1.35-1.59,2.3-2.71,3.18C146.15,200.48,147.43,198.49,147.19,196.73Zm2.43,5.69c0,.39.48.64.76.78.88.08,1.84.64,2.56-.16a14.57,14.57,0,0,1-1.28,3.5,1,1,0,0,0-1.44-.15c-.47.25-.72,1.2-1.44.88l-.31-.47Zm4,.05.47-.39c.16.08.08.23.08.39Zm3.74,1.28c.72.25,1,.81,1.76.88a2.64,2.64,0,0,1-1.2,2,6.35,6.35,0,0,0-2.15-.23C156.29,205.27,156,204.08,157.4,203.75Zm-9.73-10.85c.16,1.53-.72,2.56-1.59,3.68a1,1,0,0,1-1.6-.8c.08-1-.32-2.79.88-3.19C146,192.51,147.11,192.11,147.67,192.9Zm-15.08-4.79c-.48.32-1,.8-1.6.56a4,4,0,0,1-.88-4.14c1.12.15.56,2.79,2.32,2.15C133,186.92,132.83,187.72,132.59,188.11ZM113.28,198.5c.72-1,1.11-2.24,2.07-3l.08.16a7,7,0,0,1-2,3Zm-3.59.23c1.43-1.52,2.07-3.2,3.35-4.87l.16-.72c.08.72,1,1.6.71,2.48a20.75,20.75,0,0,1-2.07,3.11l-.72-.8C110.65,198.09,110.33,198.73,109.69,198.73Zm-.4,10c-.08.72-1.12.32-1.6.8-.24-.16-.55,0-.72-.24-.23-.88,1-.23,1.2-1C108.57,208.3,109.21,208.06,109.29,208.7Zm-1.76-2.63h.72c.32.47.16,1.28-.56,1.19s-1,1.52-1.59.24C106.18,206.71,107.21,206.87,107.53,206.07Zm-1.43,3.76v0c-.24,0-.56.09-.72-.15l.48-.4C106,209.42,106.26,209.58,106.1,209.83Zm-2.16-2a.68.68,0,0,0,.72.24.16.16,0,0,0,.16-.24c.47-.16.47.17.56.4.15.41-.32.65-.56.72-.24-.24-.8-.07-.88-.56Zm1.36,3.12c1.28.72,2-.56,3.27-.08.16-1.52,1.76.08,2-1.44.72,0,.72,1,.48,1.52-1.11-1.13-1.35.79-2.31.88.4,1.59-1.43,1.11-2,2a1.81,1.81,0,0,0-1.92.15c-.56.24,0,1.27-.88,1.2-.55-.48-.71-1.68-1.68-1.45-1,1,2.48,2.64-.15,2.56.15,1.84-2.63,1.67-3.19,3.43-1.28-.63-2.72-2.55-4.55-1.43a.53.53,0,0,1-.71-.4c0-.72.63-1,1.11-1.44.8-.72,1.43.72,2.15-.16-.07-.39-.4-.72-.23-1.11,1.67-.48,3.58-.72,4.86-1.91C102,211.26,105.14,213.26,105.3,210.94Zm4.54-3.28c.49-.07.65.48.88.56-.07.24-.39.16-.55.16C110,208.14,109.45,208,109.84,207.66ZM97.08,221.47c-1-.72-2-.49-3.19-.32-.64-.87.56-1.68,1.19-2,1-.4,1.92.4,2.4,1.12C98,220.75,97.4,221.15,97.08,221.47Zm-5.35-3.58a2,2,0,0,1,.88.55c-.24,1.67-1.6.23-2.39,1.44l-1.36,2a2,2,0,0,1-.4-1.58C88.86,218.68,90.29,218.12,91.73,217.89Zm-2.87-1.76c.4-.88,1.59-.8,2.31-.57.48.33,1.28.41,1.28,1.12a15.56,15.56,0,0,0-3.27,1C88.46,217.48,88.78,216.6,88.86,216.13Zm1.59-1.68c-.55-.4-.16-1,0-1.44,1.6-1.35,2.48,2.71,3.2.09a4,4,0,0,1-1.2-.81,1,1,0,0,1,1.36-.31c.56.55,1.59,1.12,1.68,1.84-.41,1.19-2-.49-1.68,1.19C92.77,216,91.73,214.21,90.45,214.45Zm4.16-3.19c-.09-.8.88-.32,1.35-.41a9.59,9.59,0,0,0,1.52,1.68c.16.41-.24.48-.4.72C95.88,213.41,95.4,212,94.61,211.26Zm6.46-.32.16-.4c.16.08.16.31.16.4Zm1-.25V210c.32,0,.72-.08.88.24v.47Zm1-2.15c0,1.21-1.83,0-2.31,1-.56.25-.88-.4-1-.72A2.75,2.75,0,0,1,103.14,208.54Zm-3.91.16a.55.55,0,0,1-.87.08l-.16-.08C98.52,208.06,98.91,208.7,99.23,208.7Zm-1,1.28c.4,1,1.19-.08,1.75.4,1,.88-.72,1.28-.88,2-1.11-.08-1.59-1-2.31-1.83C96.52,209.5,97.8,210.14,98.2,210Zm-2.87-1.6.47-.39c.16-.33.88-.24,1.12.07a.47.47,0,0,1,.16.72c-.24.24-.56.16-.88.16-.24-.16-.32-.56-.71-.4s-.25.48-.41.72c-.87.23-.63-1-1.43-.72-.08.48-.4,1.21-.88,1.27-.32-.39-.8-.79-1.28-.39,0,.48-.55.56-.87.8-.8-.24-.4.72-1,.72-1-.41-2.23-.41-3.11-1,.79-1,2.15.55,3.11-.17l-1.12-1.11c1-1,2.4.24,3.27-.71C93.17,208.46,94.21,206.79,95.33,208.38ZM76.57,188l.56.64a21.54,21.54,0,0,0,3.43,6.53c-1.91-.39-1.59-2.46-2.87-3.58-1.75-.72-1.52-2.88-3.27-3.44C75,186.76,75.69,189.24,76.57,188Zm-2.07-4a.62.62,0,0,1,.48-.71,11.24,11.24,0,0,1,3.27,3.9C76.17,187.64,75.54,185.33,74.5,184Zm3.35,9.9c-2-.31-4.47-.88-5.75-2.71-.32-.87.4-1.28,1.28-1.28C76.17,189.56,76.25,192.34,77.85,193.86Zm-.56,1.2c5.74,1.76,9.74,7.18,13.65,11.73-1.44,1.12-1.92-1.28-2.88-1.68C87.75,204,86.63,203.92,86,203a33.39,33.39,0,0,0-11.33-8.46l-.88-.87C75.13,193.71,75.78,195.46,77.29,195.06ZM91,205.35c.32-.08.41.16.64.32v.24C91.17,206.15,91,205.67,91,205.35ZM89.58,183.8h0c-.16,0-.32.23-.56.15l-.16-2.7C89.82,181.73,89.58,182.92,89.58,183.8Zm.32.73c1.11-.16.39,1.11,1,1.43.07,1,.55,2.87-1,3.19,0,1.28,1-.23,1.27.56.16,3.59-.88,8.22.32,11.33.39.78.51,1.75.92,2.46l.59,2.27h0c-1-.41-1.11-2.05-1.83-2.82-.39-.8-1.27-1.6-.23-2.31-.4-.57.23-1.68-.65-1.92-.15-1.6-.79-3.27-.55-4.86-1.27-1.6,1.59-3.43-1-4.16-.55.4-.87-.31-1.35-.4-1.84-1.2-1.12-3.51-1.44-4.94l.48-.56c.24-.08.4.16.56.32a12.54,12.54,0,0,1,1.59,3.12C89.26,186.44,89,185.24,89.9,184.53Zm0,16.27c-2.08-3.18-3-6.62-3.59-10.52l.32-.57c2.71,1.2,1.83,4.87,2.39,7.18A13.28,13.28,0,0,1,89.9,200.8ZM83.76,180c.47.4.56,1.83,1.51,1.51,1.36-1.35,1.52-3.35,2.64-4.7l.23.32c0,1.11-.79,2.15-.23,3.42.39,1.2-.25,1.92,0,3v.07c-1.52.65-.56-2.54-2.64-1.83-.31.56-.56,1.44-1.27,1.6A6.35,6.35,0,0,1,83.76,180Zm1.51,4-.08,2.71c-.8-.56-.4-2-.32-2.56C85,184,85.19,184,85.27,184Zm-.4,6.06-.56.56c1.44,1,1.36,2.55,1.68,4a72.28,72.28,0,0,0,4.46,9.81l-.16.08c-3.66-3.74-5.42-8.77-6.86-13.49.25-2.07-1.51-3.34-1.59-5.26-.56-2.07-1.6-3.83-1-5.74,2.71-.32,1.12,2.47,2.39,3.67.25.88-1,.72-.87,1.59C84.39,185.88,84.63,188.2,84.87,190Zm-4.47-3.75c.88-.07.4.87.72,1.28.32,1.19,1.2,2.15,1.28,3.43-.8.08-1-1.28-1.44-2C79.92,188.11,80.56,187.4,80.4,186.28Zm2.72-8.06h0c.08.15-.09.23-.09.31-.55-.16-.23-.88-.32-1.35C83.12,177.34,83.52,177.9,83.12,178.22Zm-.41-2-.15.16c-.8-.41-.24-1.12-.72-1.76C82.56,174.71,82.4,175.67,82.71,176.23ZM80,175a11.88,11.88,0,0,1-.16-4.78c.88.47,1,1.67,1.76,2.47l.24,1.43c-.4,0-.72-1.12-1.12-.31-.08,1.91.88,3.43,1.12,5.18a1.45,1.45,0,0,1-1.67-.87C80.4,176.79,79.05,176.07,80,175Zm3,19.23c0,1.67,1.44,2.87,2,4.47h-.48c-2.55-3.19-5.1-6.62-6.3-10.22C80.56,189.39,81.2,192.34,83,194.18Zm-10-14.36.88.87c1.44-1.68-1.36-2.23-1.68-3.58,1,1,3.59,1.59,3,3.58.63,1.12,1.19-.47,1.75,0,.8,1.12,2.39,1.45,2.32,2.88.55.39.32,1,.55,1.51-.39.24.16,1.6-.87,1.36a31.38,31.38,0,0,0-4-5.18l-1,.39A12.39,12.39,0,0,1,73.06,179.82Zm-.19,4.79h0a4.92,4.92,0,0,1,1.6,1.19c.26.54-.14,1.07-.54,1.47a5.17,5.17,0,0,1-2.25.79c-.4,0-.13-2.26-.27-2.66S72.85,184.61,72.87,184.61Zm-9-11.25c1,.4.88,1.74,1.43,2.55,0,.71.16,1-.16,1.59-.72,0-.32-.95-.8-1.27C64.44,175.1,63.48,174.32,63.89,173.36Zm-2-4.48c.32,1,1.2,1.68.88,2.88h-.48c-.56-1.51-1.76-2.95-1.68-4.63C61.41,167.21,61.41,168.33,61.89,168.88Zm-3.27-5.58c.48.8,1.6,1.52,1.12,2.55A3.31,3.31,0,0,1,58.62,163.3ZM55,164c1.43,1.58,2.07,4,3.67,5.58l.48-.48c-1.84-3.43-4.79-6.62-4.07-11,1,.8,1.19,2.48,1.91,3.75a49.09,49.09,0,0,0,5.9,12.21c.16,1.59,1.12,2.88,1.44,4.39,1,1.59,1.28,3.67,2.55,5a.78.78,0,0,0,.32-.72c-.64-1.27-1.83-2.62-1.2-4.14.88.87,1.12,2.23,1.6,3.34a14.7,14.7,0,0,0,.5,1.55l1.25,2.13c1,1.35.88,3.11,1.68,4.46.32,1.13.56,2.4.88,3.36-2.16-1-1.76-3.59-2.88-5.36-1.59-2.62-4.3-4.46-5-7.49-1.28-1.36-1.52-3.19-2.56-4.7-.72-1.45-.31-3.36-1.43-4.63-1.44.07.16,1.27-.48,1.91-1.91-1.28-2.55-3.59-4.3-5.19C54.78,166.81,54.38,165.13,55,164Zm-1,1a14.85,14.85,0,0,1-1.83-4.87A5,5,0,0,1,54,165Zm-1.76-1.52c.32.95,1.13,2,1,2.95-2.55-1-2.15-4.07-2.31-6.3C51.51,161.14,51.6,162.42,52.23,163.46Zm5.19,9.33c1.2,1.68,3.43,3.44,3.75,5.75,1.52,1.12,1.6,3,2.71,4.31,0,.23.16.56-.15.72-.56-.08-.8-.72-1.28-1a8,8,0,0,0-.56-2.31c-1.2.39-1.36-1.28-2-1.84-2.16-2-3.28-4.79-5.19-6.94a2.87,2.87,0,0,0-.4-1.84c-.72-.16-.56,1-1.36.72-1.51-1.6-3.35-3.11-4.3-5.18C52.23,166.89,55.59,168.88,57.42,172.79Zm-10.61-6.06c-.16-1-1.12-1.75-1-2.87h.48a42.54,42.54,0,0,0,6.14,7.34C49.92,171,48,169.13,46.81,166.73Zm7.84,10c-.23.15-.47.47-.71,0l-.71-1.12c-.47-1.44-1.92-2.28-2.88-3.59,1.27-.48,2.47.81,3.91.87,1.27,1.37,3,2.72,3,4.4-.88-.25-1.76-.56-2.64-.8ZM66.2,187.55a1,1,0,0,0-1-.4c-.24.4-.48.4-.8.08-.48-.23-.63-.87-.71-1.43-3.27-2.72-6.47-4.87-8.78-8.3,1.84,1,4.79.72,5.26,3.27l-1.43.16a1,1,0,0,0,.64,1c2.63-.08,3.59,2.71,4.86,4.47.24.16.4.47.72.56.8-.32.16-1,0-1.44l-.56-.72c.16-.08.08-.31.08-.47h.32c1.36,2,3.19,3.66,3.91,5.89l.8,1c-.09.09-.16.16-.09.25h-.31C67.87,190.19,66.76,189.15,66.2,187.55Zm2.55,5.35c2.87.4,2.64,4,4.79,5.27l1.68,2.72a1.84,1.84,0,0,1-1.84-.73C72.1,197.62,70.27,195.3,68.75,192.9Zm-13.72,8a14.31,14.31,0,0,1,6.14-.81c.64-.87,1.76-.23,2.56-.63,3.43,0,6.22,1.11,9.25,2.08l.24.23c-3.11-1-6.54-.32-10-.56l-.88-.39c-2.47.08-4.95,1.6-7.26.78Zm-2.08.7c.48-.39.88.17,1.2.49-.32.72-1.44.88-2.31.88-.8.79-1.92.79-2.87,1.11C49.44,202.88,51.6,202.31,53,201.59Zm4.23,5.68.08.39c-1.2.48-2.23,1.52-3.59,1.84C54.71,208.3,55.59,207.35,57.18,207.27Zm-4.79,3.67c-.23.32-.23.88-.71.72C51.76,211.33,51.84,210.69,52.39,210.94ZM63,207.27h0c-.48,1-.64,2.24-1.84,2.87-1,0-1.67.64-2.71.39-.32-.31.16-1.27-.72-1-1.35,2-3.75,2.64-5.9,3.36l-.16-.17c1.59-.71,3-2.88,4.78-3.43.72-.88,1.84-.07,2.56-.72.24-1.83,2.39-1.27,3.75-1.59l.24.32h0Zm4.23.72c-1.28.71-2.16,1.51-3.76,1.43a3.73,3.73,0,0,1,1-2.47c1.2.08,2.48-1.51,3.36-.16C67.48,207.1,67,207.42,67.24,208Zm7.26,5c-.56-.48-1.28-1.35-1-2.16.16-.31.4-.31.72-.31a3.42,3.42,0,0,1,1.12,2.32A1.69,1.69,0,0,1,74.5,213Zm2.15-2.07c-.16-.32-.8-.48-.55-1-.25-.95.87-.56,1.27-.88l.23,1.49A.87.87,0,0,1,76.65,210.94ZM80.17,208c-.88.47-1.6-.33-2.32-.49-1.44,0-3.27.16-4.63-.55-.72.31-1.28,0-2,.31a7.76,7.76,0,0,1-3.27.8c-.41-1.11,1-1.83,1.83-2.39,2.39.24,4.71-.56,6.62.72.48,0,1,.07,1.27-.32-.07-1.11-1-.8-1.75-1.11-5.58-1.76-11,.71-16.76,1.11a26.26,26.26,0,0,1-10.53-.88v-.07A25,25,0,0,0,55.11,203c.31.08.63-.08.72.16-.4.39-.8.72-.72,1.27.23.48.79.32,1,.16.71-2.55,3.58-1.59,5.42-2.39a3.75,3.75,0,0,0,2.79.23h0a5.63,5.63,0,0,1,2.24,0c0,1.12-2.47.88-1.28,2,1.36-.24,2-1.12,3.2-1.83,2.71-.17,5.18,0,7.33,1.75.32,0,.64.08.8-.31l-.08-.57C77.85,204.79,81,205.44,80.17,208Zm-1.36-4.48c-.32-1.43-3.68-.79-2.16-2.71a26,26,0,0,1-2.71-4.22l.16-.57c3.83,1.52,6.62,4,9.73,6.79.8,1.12,2.4,1.59,2.88,2.71C84.31,204,80.64,206.31,78.81,203.51ZM82,206.62l-.4-.39c.64-1.44,1.92.31,3,.16,1.2.23,2.64,0,3.59.71h0c.16.8-.88.88-1.11,1.43C84.87,208.94,83.83,206.87,82,206.62Zm2.55,4.64c1.44-.32,4-.24,5,1.43-1,1.13-1.91-.55-2.87-.55a8.27,8.27,0,0,0-2.8.72C83.27,212.06,84.23,211.66,84.55,211.26Zm-.24,4.3c-.48-.55-.16-.95,0-1.59.88-.56,3-1.36,3.75.16C87.35,215.49,85.27,214.45,84.31,215.56Zm1.84.33c.56,0,1.83-.17,1.91.79-.64.8-2.15.32-2.87.48C84.87,216.6,85.67,216,86.15,215.89Zm-.56,6.7c-.16-1.28-.64-2.31-.4-3.76.56-.47,1.91-1.19,2.4-.07-1.44.48-.8,2.16-.56,3.27l2,3.19C87.75,225.3,86.55,223.7,85.59,222.59Zm4.15,1.27c-.56-1.27.55-2.31,1.27-3.43,1.44.16.88,2.08,1.6,3a14,14,0,0,0,2.16,3.58A7,7,0,0,1,89.74,223.86Zm10.84,3.59a5.89,5.89,0,0,1-5.25-1.26c-.33-1.36-2.16-2.8-.81-4.16.56-.4,1.2-.56,1.68.16,0,.32.08.63-.24.88-.56,2.15,2.16,2.15,3.43,2.94a3.88,3.88,0,0,1,2.14-.16Zm-.79-4.31c-.32-.47-.16-.87,0-1.44.88-.47,1.76-1.42,2.88-.78.38.32.64.71,1,.81l-.18.85-.16-.15C102.42,223.78,100.83,223,99.79,223.14Zm4.87,3.2c-.64-.64-1.59-1.36-1.43-2.48.21-.11.74-.19.77-.42l.6-.66a2.6,2.6,0,0,0,.06,1.4c1,2.47,4,1.2,5.18,3.19C108.17,228.49,106.18,227.3,104.66,226.34ZM130.11,238c.25-.08.32.15.4.23v.49h-.4Zm-4.3-4.31c1-.16,1.51.63,2,1.27.24,1.2,1.36,2.23,1.2,3.44.55.24.8,1,1.11,1.43-.72.4-.79-.48-1.11-1-1.84-1-1.44-3.58-3.51-4.23C125.17,234.31,125.49,233.92,125.81,233.68Zm-1.61-1.43c.72.15.64,1,.48,1.43h0c-.88.63.32,1.27.08,2a37.24,37.24,0,0,0,6.94,7.19c.47.23.88-.57,1.11.15s-.23,1.28.32,1.84c-1.59-.08-2.79-2.15-4.15-2.88-1.35-1.51-4-1.66-4.23-4-.87-1.44-2.23-1.59-1.83-3.43C123.65,233.92,123.25,232.64,124.2,232.25Zm-2.3-3.05c-.56.41-1-.55-1.28-1.11a.53.53,0,0,0-.88-.16c-.4.88.48,1.52.88,2.16.4.32,1,.56,1.28.4l.63-.72,1.28,1.44c-.48,1-1.6-.24-2,.71.32.64.64,1.76-.47,1.92-1.12.88-1.76-1-2.88-1.36-2.55-3.34-6.14-5.59-9.57-7.42a6.08,6.08,0,0,1-3.19-2c0-.72,0-1,.56-1.44.88-.39,2.55.88,2.63-.88-1.44-.64-2.79-1.59-4.23-2.31-.88-.72.48-1.27.48-1.84a3.7,3.7,0,0,1,2.16-.88,13.24,13.24,0,0,0,1.86,1.11l1.56,1.29h0C114.39,221.7,118.39,225.3,121.9,229.2ZM113.76,218c-.56.56-1.44.08-2-.16-.23-.16-.32-.4-.64-.32h0l-.29-.63a2.32,2.32,0,0,0,.77-.48c.32-.39,1.12.08,1.6.24C113.36,217.16,114,217.56,113.76,218Zm-.88-3.19c0,1-1.44.07-2,.55-.23.49-.71.32-1,.49-.31-.33-.55-.72-.23-1C110.49,214.45,112.16,213.82,112.88,214.85Zm-.4-1.84v.24c-.88.4-2.15-.15-2.87.47a1.37,1.37,0,0,1,.8-1.58C111.28,212.06,112.16,212.14,112.48,213ZM111,207.82c-.63-.32,0-1.2-.63-1.43l-1.28-.16a.85.85,0,0,1,.48-1.27c1.11-.08,1.36,1.51,2.71,1.11-.08.16.08.24.16.32C111.68,206.71,111.84,207.91,111,207.82Zm9.74-6.86a3.93,3.93,0,0,0-2,.4c-.08,1-1.2.56-1.6,1.28,0,.68-.56,1-1.11,1.18L114.63,205c-.58.15-.85,1.81-1.75.66.8-1.75,3.27-2.63,4.15-4.47.32-.39,1.11-.16,1-.87a1.39,1.39,0,0,0-1.28-.56c-.08,1.43-1.68,1.43-1.91,2.71-1.68.16-1.52,2-3,2.48-.48-.17-1.19-.24-1.43-.88a7.14,7.14,0,0,1,2.31-1.76c2.16-1.51,3.75-4,6.46-4.54,1,.55-.63.72-.24,1.43a.62.62,0,0,0,.56.23,18.41,18.41,0,0,0,2.56-2c1.67,1.27-1.36,1.67-1.28,2.86.71.57,1.75-.87,2.47-.39-.3.47-.61,1-.92,1.49h0Zm.87,16.2c-1.35,1-1.91,2.87-3.9,2.55a3,3,0,0,1-.4-2.71c.23-3.19,2.15-5.74,3-8.62.8.31.56-1,1.43-.72,1.2-.71.16-3.91,2.4-2.55l-.72,1.83h0a19.45,19.45,0,0,1-2.39,3.9c.16.32.08.72.55,1,1.52-.8,2-2.72,3-4.16.4-.56.4-2.07,1.44-1.59.63.47,1.19,1.19,2.14.88a2.09,2.09,0,0,1,1.44-.88c0,1.84-1.84,2.47-2.47,4.07C125.33,212.69,124.37,215.64,121.65,217.16Zm1.44,5.91c-1.44-1.84.32-4,1-6.06,1.67-2.72,3.91-5.11,5.34-7.91.64-.15.33.48.56.72h0v0h0c-.56,2.16-2.23,4.07-3,6.07-.48.87-1.59,1.74-.79,2.71,1-.08,1.19-1.36,1.67-1.92,1.28-2,2.08-3.91,3.43-5.83,1.36.57,2.48-1.19,3.35-.15,0,2.79-2.07,4.15-3.35,6.31C129.16,219.88,126.92,223.31,123.09,223.07Zm10.21,2c-.79.87-2.15.64-3,.72-1-1-.55-3.2-.47-4.63,1.59-2.79,3.5-4.39,4.78-7.33.56-.65,1.12-1.76,2-1.45.64.4.08,1-.16,1.35a44.25,44.25,0,0,0-4.31,6.71,1,1,0,0,0,.48.72h.24l4.86-7.43c.4-2.23,2.64-2.87,3.6-4.78a4.08,4.08,0,0,1,1.35,2.16C139.77,215.89,137,221.15,133.3,225.06Zm11.58-4.87c-1.84,1.51-2.56,3.67-4.31,5.27-.8.16-1.36,1.52-2.55,1-1.44-1.19-.32-2.87-.56-4.3,2-3.75,4.78-7.1,6.46-10.93a4.46,4.46,0,0,1,1.68-.72,78.23,78.23,0,0,1-4.71,8.78c.24.23.47.56.88.39,2.07-3.35,4.38-7.18,6.3-10.93.56-.79,1.91-.08,2.32-1.12.39.09.56.4.72.72h0c.16,1-1.12,1.68-1.2,2.72C148.15,214.21,146.55,217,144.88,220.19Zm10.37-7.9.16.08c-2.31,3.19-3.75,7.18-6.78,9.66a2.06,2.06,0,0,1-1.68.39c-2.47-2.54,1.68-4.94,2.16-7.57,1.19-2,2-4.63,3.67-6.47h.63c-.4,2.47-1.91,4.79-3.19,7-.56.4-1.44,1-.72,1.76,1.36.32,1.2-1.44,2.16-2.15a21.66,21.66,0,0,0,3.27-6.63l.16.16c.63-.16.47-.95,1-1.2.48.16,1.91.25,1.12,1.2h0C156.21,209.58,156.21,211.17,155.25,212.29Zm4-5.5c1.35-.56.16-2.23,1.91-2.16,2.08-.71,1.84-4.14,4.46-2.87a3.05,3.05,0,0,0,2.16,1.2h0c.39.16.32.79.08,1.11-1.12.88,1,2.16-.72,2.88l.72.71c-2.56,2-5.91,2.4-8.62,4.32-1.12-.25-1.68.79-2.71.71C156.85,210.46,158.36,208.78,159.24,206.79Zm-2.39,7.5c-.08-.72.87-.88,1.43-1.19,1.12-.49,2.4.31,3.43.87.32.24-.15.88-.56,1C159.72,216.05,158.12,214.92,156.85,214.29Zm1,5.9c-.63.16-.72-.56-.79-.87-.4-.88.55-1.28.79-1.92a.58.58,0,0,1,.72.48h0C158.92,218.92,157.89,219.32,157.8,220.19Zm1.44,0c-.32-1,.64-2.79.72-3.75.32-.47,1.12-.47,1.75-.47l.4.47c.4,1.84-1.11,2.48-2.39,3.6C159.56,220,159.32,220,159.24,220.19Zm2.16,4c.16-.23-.09-.4-.25-.56-.56-.15-.47.56-.87.73-.72-.88-.48-2.16-.72-3.2.56-.23,1.12-1.27,1.75-.72.48,1.2-1.11,2.31.25,2.88,1.75-1.35-.56-4.39,2.63-4.15a8.77,8.77,0,0,1,0,3.19C162.91,222.82,162.75,224,161.4,224.18ZM164,229c-.24.1-.32-.15-.48-.23,0-.55,0-1.36.72-1.2A1.21,1.21,0,0,1,164,229Zm-.32-3a1.67,1.67,0,0,1-1.44-.79c.08-1.2,1.36-1.27,2.16-1.59a2,2,0,0,1,2,.88h0C166,225.54,164.74,225.78,163.71,226Zm2.15,3.19c-.48.17-.56-.31-.72-.55a3.19,3.19,0,0,1,1.6-2.72c1-.23.72,1.12.56,1.52C167.54,228.49,166.5,228.81,165.86,229.2Zm.48-6.61a2,2,0,0,1,2.55-.88c.56.32,1.52.15,1.6,1-1,.33-1.6,1.12-2.63,1.28C167.3,223.78,166.34,223.47,166.34,222.59Zm2.24,5a2.84,2.84,0,0,1-.08-2.31c.71-.08,2.47-2.87,2.71-.4A3.52,3.52,0,0,1,168.58,227.61Zm5.34-3.11c-.4.64-1,.4-1.59.72-.4-.56-.09-1.52,0-2.15a7,7,0,0,1,2.31-1.76C174.8,222.51,175,223.62,173.92,224.5Zm4.71-3-.56-.32a3.54,3.54,0,0,1-2.16,2c-.63-.71.17-1.51-.16-2.39.49-.47,1-1,1.6-1l.72.88c.72-.64-.24-1.51.88-2a.85.85,0,0,1,1,.72C179.59,220,179.67,221.23,178.63,221.47Zm3.51-3.58a2,2,0,0,1-.72,1.43c-.47-.32-.95-1-.63-1.6.31-.4,1.27-.56,1.35.16Zm-.64-1.21c-1.11,0-.71-1.59-1.11-2.16-.16-1.11-1.6-1.83-.88-3.1.24.07.32-.16.47-.32a1.09,1.09,0,0,0-.47-.88c-.8.24-1,1.11-1.84,1.36-1.27-.8-2.15-1.92-3.43-2.79.16-.64,1.12-1,1.67-1.44,1.92-.4,2.56,1.35,4.07,1.91.16.32.09,1,.72.88h.4l-1,.8c.56.88,1-.32,1.59,0-.56.39-1.68,1.35-.56,2.07,1.12.32,1.68-1.75,2.48-.15C184.61,215.24,181.1,214.6,181.5,216.68Zm2.16-5.83c.32,0,.71.09.71.41a.62.62,0,0,1-.23.72c-.4.16-.4-.32-.56-.41C183.18,211.26,183.66,211.1,183.66,210.85Zm-.8,6.47a1.61,1.61,0,0,1,1.83-1.43c.4.71-.71,1.27-1.11,1.67A.62.62,0,0,1,182.86,217.32Zm11.32-2.47c-1,1.11-1.67,2.94-3.43,2.47l-.31-.32a8.33,8.33,0,0,0,2.87-4.63,1.06,1.06,0,0,0,.88-.39.62.62,0,0,0-.48-.72c-.56.07-1.27.56-1.67-.16l-.16-.16c-.56.72.56,2.07-.41,2.79-.87.15-1.59-1-2.31-.16.48,1.68-.72,3-1.75,4.48-1.75-.41-2.23,1.9-4,1.27.4-1,1.67-1,2.39-1.76,1.36-1,1.91-2.95,2.79-4.3-.23-.49-.79-.32-1-.16-.71.79-.87,2.47-2.15,2.15-.23-.24-.55-.4-.39-.8,1.91-1-1-3.59,2-3.75.72-.24,1.43.56,1.84-.48-.48-1.43-1.92-.23-2.87-.39a2,2,0,0,1-1.44.55c-.32-.15-.24-.55-.24-.88a3.6,3.6,0,0,1,3.83-1.27c.48.72,1-.08,1.59,0h0c.08.4.4.71.32,1.19-.64.48-1.2,1.11-.72,1.84.4.15.24.88.8.72.15-1.29,1.76-.65,1.44-2,.39-.88,1.43-.64,2.15-.88.47,0,1,.55,1.43.16a2.75,2.75,0,0,1,1.2,2.88C195.78,213.49,194.11,213.09,194.18,214.85Zm4.16-2a4.07,4.07,0,0,1-2,2.15c0-1.19,1-2.32,1.44-3.44C198.82,211.1,198.18,212.21,198.34,212.86Zm.56-2.33c-.64.32-1.52-.47-1.68-1.11a.81.81,0,0,1,.56-1,1.94,1.94,0,0,1,1.12.72Zm-.39-2.71c-1.36.4-2.88-1.59-3.76.56-1.59-.72-3.43,1.52-4.63-.32-.55-1.52,1.6-1.35,1.44-2.55-1-.4-1.2,1-2,1-.56-.23-.17-.79-.24-1.19.72-1.27,2.07-1.35,3.43-1.27.63.39-.16.95.15,1.27a4.78,4.78,0,0,0,2.88,1.44c.07-.25.39-.4.07-.72.32-.72,1.12-.48,1.6-.72-.16-1.35-1.2.16-2.32-.24-.31-.32-.55-.8-.23-1.19.79-1.28,2.39.08,3.59-.57,1.6.5.34,2.2,1.12,3.11h0l.24,1C199.45,207.92,199.11,208.49,198.51,207.82Zm.39-6.78c.32-.15.47-.8,1-.55C199.69,200.73,199.37,201.28,198.9,201Zm15.23,1.2c-.2.09-.31.09-.39,0l-.17-2.2c0-.47-.47-.31-.72-.31-2,1.21-2.77,1.76-4.52,2.68l-2,.33a34.14,34.14,0,0,1,8.18-4.61c.39.33.47.72.71,1,1.11-.16,1.76-1.75,2.87-2.32l.16.16C216.69,198.81,215.73,200.49,214.13,202.24Zm4.16-5.35c-.08-.31.32-.64.56-.72C219.08,196.66,218.45,196.5,218.29,196.89Zm3.92-4.4a1.53,1.53,0,0,1-.49.49c-.24,0-.64.08-.8-.08-1.44,1-2.47,1.92-3.91,2.88-1.36,2.31-4.78.23-6.46,2.15-2.47,2.15-5.83,3.19-8.22,5.11-.47.15-1.12.88-1.51.15,0-.47.39-.72.71-1.11,2.88-1.12,4.87-2.71,7.58-4.31,1.2.08,1.44-1.19,2.55-1.27.24-.8-.71-.16-.79-.72,1-.56,2.07-1.68,3.43-1,1.27-.72,2.95-.72,4.15-1.75,1.54-.54,3.11-1.05,4.59-1.72Zm-20.12,8.4c.16,0,.32,0,.4.15l-.56.49C201.61,201.36,201.93,201.12,202.09,200.89Zm2.39-2.16c-.07.24-.16.88-.72.64C203.53,198.89,204.16,198.89,204.48,198.73Zm6.07-3.6a.47.47,0,0,1-.16.33h-.24C209.91,195.13,210.39,194.82,210.55,195.13Zm1.6-1.83c.95-1.2,2.95,0,4-1,2.4.07,4.15-1.76,6.3-1.68-3.11,1.51-6.46,3-10.05,3Zm10.61-2.87,1.11-.88.16.16Zm.14-6.44.57.76c-1.84,1.19-4.3,1.54-6.46,2.09a5.13,5.13,0,0,1-3.59.39c-.08-.16.16-.23.32-.39C217.09,186.62,219.75,184.68,222.9,184Zm-12,1.09c1.67-.55,3.19-1.43,5-1.67,1.29-.67,2.66-1,3.92-1.65l1.87-.74c-.14,1.28-2.21,1.37-3.07,2.23-2.8.32-5.19,2.07-7.74,2Zm10.85-2c-3.35,2.56-8.06,2.88-12.05,4.07-.16-.31-.56,0-.56-.47C213.74,186.05,217.25,184.12,221.72,183.08Zm-9.18,4.32a4.76,4.76,0,0,1-2.55.71A13.33,13.33,0,0,1,212.54,187.4Zm-2.87.71c-1,1.13-2.56,1.37-3.83,2C206.72,189,208,187.48,209.67,188.11Zm-14.2,8.46.32-.23c.79,1.35,1.91-.64,3-.88,3.19-1.76,6.22-3.76,9.49-5.2.88,1,1.84-1.19,3-1,1.51-1.51,3.74-.63,5.42-1.35,2.71-.55,5-1.68,7.81-2.15l.09.16h0a16.42,16.42,0,0,1-8.46,3.19c-1.35,0-2.95.56-4.14.16-1-.24-1.2.79-1.84,1.12-2.12.54-3.24,2.79-5.4,3.24l-.18.11c-.24.29-.3.55-.81.55a8.7,8.7,0,0,1,.81-.55l.07-.08a.45.45,0,0,1,.11,0,2.29,2.29,0,0,0,1.17-1.4c-2,.31-3.59,2.46-5.74,2.86-1.12,1.27-2.71,1.68-4.16,2.48-.15.39.32.48.48.72.56,0,.8-.81,1.52-.56.32.23.48.56.88.39.47-.47.88-1,.72-1.59l.87-.07v-.33h1.6c-.08.17.08.48-.16.56.32,1,1,.08,1.44-.16-.33-2.71,3.35-.48,4.14-2.95.16-1,.88-1.19,1.6-1.44-.48.16-.08.41,0,.72.79.4,1.11-1.11,2-1,1-2.63,3.9-.72,5.9-1.76a26.83,26.83,0,0,0,9-3.27c.24,1-1.11,1.43-1.83,1.83-2.56.88-5,1.84-7.58,2.63-2.16,1.52-5.5-.79-6.62,2.4-2.07,0-2.16,2.87-4.47,2.64-.88.94-2.55,1.11-2.87,2.39-.4.64-1.36.07-1.84.47-.88.24-1.67,1.12-2.63.88,1.19-1.28,2.87-1.59,3.91-2.87-1-.71-1.75,1-2.87.79-.8,1-1.68,2-2.88,1.76a7.33,7.33,0,0,0-2.15-1C194.11,197.77,196.18,197.85,195.47,196.57Zm-3.75,3a7.57,7.57,0,0,1,3.75,1c.87.39,1.91.31,2.55,1.11,0,.4.08,1-.4,1-1.44-1.27-2.71.39-4,.71-.64-.55.56-1.2-.48-1.59-1-.08-.24,1.51-1.43,1.27.88-1.75-2.16-.72-1.6-2.3.32-.33-.07-.73-.39-1s-.56.08-.72-.16C189.8,199.53,190.91,200.32,191.72,199.61Zm-4.71.88c.64-.09,1.52.71,2.31.4a1.23,1.23,0,0,1-1.91.47C187.09,201.2,186.69,200.89,187,200.49Zm-1.44-.33c.48-.15.32.4.56.64,0,.48-.64,1-1.12,1h-.16C184.61,201.2,185.09,200.65,185.57,200.16Zm-1.91.49H184v.71c-.16-.08-.24.08-.32.17Zm-1.12,0c.16.15,0,.55-.32.71-.08,0-.32,0-.4-.16A.51.51,0,0,1,182.54,200.65Zm-2.15.39a.39.39,0,0,0,.31.16c0,.24-.23.33-.31.39a.24.24,0,0,1-.32-.06Zm-7.74,1.19h4c.32.24-.07.8-.39.8-1.44.24-2.72-1.35-3.91,0,0,.32-.09.71.31.88.48-.08,1-.72,1.59-.23.4.31.33,1,1,.94.72-.71,1.44.81,1.92-.55a3.08,3.08,0,0,1,1.51-2.55h0c.24.39-.8,1.11-.08,1.51,1.28-.31,2.71-.88,4.15-.24,1-1,1.67,1.35,2.87.16.48.63,1,.16,1.6.08.39.55-.8,1,0,1.59,1.11-.4,1.2-1.59,2.39-2.16.4-.16.48.33.72.49-.16,1.35-1.52,1.51-2.16,2.55-1.27-.32-2.71-.4-3.75-1.6-1.91.16-4.46-.16-6.54,0-.16.16-.4.32-.32.56,2.56,1.68,4.79-.47,7.34,1.44a2.47,2.47,0,0,1,2.32.47c.39.33-.16.72-.48.88a2.76,2.76,0,0,0-2.71,1.43c.07.17-.16.25-.32.41h-.56c-.24-1.12,1.67-1.84.56-2.72-1.52.32-1,4.15-2.95,1.68-1.36-.88-2.63-1.83-4.31-1.83,0-.24-.32-.4-.48-.57-.8.64-1.43-.79-2.15.17-.64-.72-1.68-.8-1.28-1.92-.47,0-.63.65-1.11.55C170.82,203.35,172.09,203,172.65,202.23Zm-1.92.57c-.16.24,0,.55-.24.71-.48.08-.48-.16-.56-.47C170.25,202.8,170.33,202.41,170.73,202.8Zm1.44-14.93c-.72-.16-.88-1.43-1-2.07-.56-.63.08-2.47-1.28-2.16a4.4,4.4,0,0,1-2.31,2.48c-1,.24-.88-1-1.28-1.44l-.16-1.11c-1.75-.32-1.36,2.87-3.43,2.39-.39.16-.31.56-.31.88,1.11.95,2.15-.79,3.26-1,.08.56-.15,1.2.48,1.43,1.44.41,3.11-1.51,4.15.64.88.49-.88,1,.16,1.52.56.16,1.2-.4,1.44.48-.24,1.43-1.6,1.76-2.64,2.55-1.35-.72-.79-2.71-1.51-4-.88.56-1.44,1.52-2.48,1.13a4.27,4.27,0,0,0-.55-1.68c-1,.32-1.76,1.2-2.72,1.52-1.44-.8-1-2.95-1-4.16.31-.15,1.67.49,1.59-.55.08-.64-.56-.88-.56-1.43-1,0-1.83,1.92-2.79,2.31a4,4,0,0,1-1.83,1.12c-1.68-.08.48-5.19-1.84-1.68l-1.75.95c-1-.78-1-2.15-.88-3.27.8-1,1.84,1.12,2.31-.31a3.37,3.37,0,0,1-.56-2.32c.88-.47,2,1.44,2.39-.39.72.23,2.32-.65,2.16.72a1,1,0,0,0,.72.31c.32-.71.79-.23,1.19,0,1.36,1.2,3.2-.71,4,1.28,1-1.12,1.92.23,3,0l-.87.56c0,.64.72.72,1,1,1.28.31,2.72-3.35,3.28-.65,1.67.41-.32,2.08,1.43,2.16A3,3,0,0,1,172.17,187.87Zm1.59-6.62c-.48.24-.16,1.12-.88.88-.64-.64-.32-2-1.43-2.08a1.9,1.9,0,0,1-.72.88c-1.28.39-.8-1.11-1.84-1.27-.31.39-.72,1.19-1.43,1.11-.64-.39-.4-1.43-1.28-1.51-.32.55-1,1-1.59.79-1.12.09-.4-1.43-1.44-1.43-.39.64-.79,1.19-1.59.72-.56-.72.08-1.84-1-2.23-.48.55-.72,1.67-1.75,1.51-.64.32-.56-.4-.88-.72a1,1,0,0,1,.48-1c1.43.23,2.71-3.36,3.82-.49l1.6.16h0c.48.08.16,1,.88.88a1.52,1.52,0,0,1,2-.55,2.15,2.15,0,0,1,.88.55,1.91,1.91,0,0,0-.16.72c.24.16.32.56.71.4.33-.88,1-1.28,1.84-.72,1,.72,3-.4,2.64,1.6C173.05,180.3,173.68,180.38,173.76,181.25Zm-7.18-9.18.88-.71c.8.4.08,1.59,1.12,2,1.27.07,2.78.15,3.19,1.58.95.1.56,1.29.88,2-.16.48-.8.32-1,.16-.24-.56-.64-1.37-1.28-1-1.28.47-2.16-.4-3.59-.33-1-1.51-2.15.72-3.19-.23-.56-1.35-1.2-3.11-.4-4.62A2.94,2.94,0,0,1,166.58,172.07Zm.32-9c-5.19,7.57-7.88,13.07-15.17,17.42-1,.77-10,7.28-13,8.47l-1.37.84-1.83-1.12c-4.39-5.71-9.29-11.8-10.62-18.51a11.59,11.59,0,0,1-1-5c.35-.28,0-1.61.1-1.94l.68-4.85c.29-2.7,2.32-7.74,2.66-9.86,0,0,7-16.68,8.8-18.5l-.3-.05.94-.52s3.19,2,4.91,2.92a20.46,20.46,0,0,0,5.43,1.36c2.63.23,5.91-.16,7.9-1.84.83.29,1.92-1.39,2.33-.75l3.62,2.43c1,.63,2.82.48,3.7,1.19a20.82,20.82,0,0,0,7-.47c1.74-1,3.72-1.48,5.41-2.52l.68,1.74s-3,11.36-3.78,13.49-2.65,7.45-2.65,7.45A32.48,32.48,0,0,1,166.9,163.07Zm4-.81c-.48-.72-1.68-1.12-1.44-2.15,1-.88,1,1.19,1.92.16,0-.72-1.44-1-.72-1.76a4.67,4.67,0,0,1,1.52,3.51A.73.73,0,0,1,170.89,162.26Zm5.58-1.11h0c-.16.48-.72.88-1.11,1.28-2.48-.31-2.24-3-4-4.46-.08-.56-.56-1.12-.16-1.68l.4-.48c1.51,1.28,1.76,3.27,3,4.79a.78.78,0,0,0,.72-.32c-.48-2.71-3.75-4.23-2.71-7.18l.56-.39C174.64,155.24,177,158,176.47,161.15Zm5.35.15c-5.35-.55-4.79-6.7-8.22-9.65.08-.56-.32-1.12.48-1.44h.4c1.43,1.84,2.55,4,3.91,5.75.79.88.56,2.39,2,2.72.71-.64-.41-1.28-.41-2-2.07-2.64-3.51-5.51-5.5-8.22.4-.64-.32-1.67.88-1.84l1.11,1.84c1.52,4.22,4.39,7.82,5.91,12C182.22,160.66,182.14,161.07,181.82,161.3Zm5.61-.82c-.5.31-.94.69-1.62.51-2.87-1-3.51-4.08-5-6.15-.65-1.52-2.16-2.79-2-4.47a3.16,3.16,0,0,1,2.71.88c1.2,2.48,2.8,4.71,4.23,7.18h.72v-.63c-1.84-2.48-3.27-5.35-4.95-8,.32-.24.48-.57.72-.64,2,2.55,3.11,5.42,5.19,7.9a3.31,3.31,0,0,0,1.32,2.23Zm6.92.51a2.53,2.53,0,0,1-2.79.15c-2.72-2.55-3.75-5.91-6-8.46l-1.75-2.47c.48-.72,1.35.16,2,.32,2.31,2.55,3.75,5.43,6.07,8,.39.16.63-.16.88-.4-1.76-2.56-3.68-4.87-5.59-7.5l.08-1.83c1,.24,1.28,1.43,1.91,2.15a36.1,36.1,0,0,1,5.91,7.58C195.07,159.46,195.07,160.43,194.35,161Zm5.42-1.84c-.4.88-1.43.08-2.15.08-2.79-3.27-5.35-5.91-7.9-9.41a12.77,12.77,0,0,1-2.47-3,1.19,1.19,0,0,1-.4-1.61c-.8-.94-2.32-1.76-1.76-3.18.48-.4.88.15,1.36.15,1.27.72,2,3.44,3.67,2.64-.16-1.12-2.87-1.52-1.44-2.88,1.44-.47,2.32,1.12,2.88,2a10.08,10.08,0,0,1,.63,2.15,2.68,2.68,0,0,1-2.87.24c-.64-.08-1.27-1.12-1.91-.39.47,1.19,1.91,1.27,2.87,2,2.87,3,4.47,6.47,7.74,9.1.24-.25.72-.65.32-.88-2.79-2.63-4.23-5.51-6.62-8.22-.25-.63.47-.56.72-.88a17.31,17.31,0,0,1,3.9,4.63C198.09,153.88,201.52,156,199.77,159.15Zm5.91-2.31a15.09,15.09,0,0,1-7.18-4.48c-2-2.47-4.87-4.62-5.59-7.89h.4c2.64,4,6.62,6.62,9.9,9.9.47.16.55-.25.71-.56-2.71-3.11-6.22-5.5-8.62-8.79.16-1.19,1.36-.07,1.92-.39a116.22,116.22,0,0,0,9,9.9C206.47,155.24,206.47,156.43,205.68,156.84Zm5.9-2.16c-5.66-.31-9.41-6.14-12.92-9.81A4.63,4.63,0,0,1,198,143c2.47.08,5.51-1.67,6.94,1.6,2.87,2.23,6.31,4.86,7.9,8.62C212.86,154.2,212.3,154.44,211.58,154.68Zm9.73-4.15c.16.81.4,2.24-.72,2.4-2,.47-3.74-.56-5.41-1.27-.49-.8-1.6-1.29-2.32-1.84h-1c0-1.44-1.67-1.44-2.31-2.64-2.24-2.23-5.51-4.38-7.58-6.85l.16-.49c4.71.56,7.5,4.95,11.17,7.66,1.2.81,2.24,2.39,3.75,2.71a.77.77,0,0,0,.32-.72c-3.59-2.7-6.38-6.07-10.06-8.61a.63.63,0,0,1,.24-.72c2.24.17,3.2,2.48,5.19,3C215.73,145.34,219.4,147.27,221.31,150.53Zm6.07-2.32c-2.15,1.21-4.3-.31-6.38-.71-3.67-2.55-7.58-4.86-11.33-7.34-.64-.64-1.68-1.51-1.28-2.55,2.16.16,4,1.84,6.07,2.88,2.79,1.35,5.11,4.06,8.14,5,.55-1.36-1.52-1.6-2.32-2.48l-.07.16a64,64,0,0,0-8.78-5.74c0-.72,1-.88,1.59-1,3.75,2,7.26,4.63,11.17,6.46C225.79,144.3,228.1,146.06,227.38,148.21ZM233,145c-7.26-.07-12.05-6.06-18.28-8.76-.95-1-2.39-1.68-3.26-2.88,1.35.32,3.51-.09,4.46,1.43,3.43,2.15,6.78,4.39,10.3,6.39,1.43.4,2.7,3.1,4.06,1.67a21.36,21.36,0,0,0-3.75-2.71c-3.19-2.32-6.7-3.9-9.89-6.06a.6.6,0,0,1,0-1c1.44-.16,2.15,1.28,3.43,1.67,4.07,2,8.38,3.52,12.05,6.46C232.49,142.48,234.24,144,233,145Zm13.64-4.54c.09.56-.31,1.36-1,1.27-4.79.57-9.18-2.07-14.2-2.71-4.23-2.47-9.18-3.75-13.09-6.62.47-.8-.48-1.52-.24-2.16,2.31-.4,4.22,1.12,6.46,1.6,3.27,1.84,7,2.48,10.13,4.55,1.76.55,3.51,1.2,5.19,1.76.24-.25.72-.56.32-.88-6.22-2.48-12.29-5.43-18.67-7.5.32-.64,1.35-.72,1.83-1.52,3.35,1,6.15,2.63,9.5,3.83h0c3.19,1.35,6.46,2.7,9.66,4.15C244.3,137,246.14,138.33,246.61,140.48ZM258.34,139c-1.83,1.44-4.71.33-6.86-.16-3.19-1.59-6.46-2.7-9.66-4.3-5.18-1.76-10-4.32-15.16-6.22-1-.73-2.39-.8-3.19-1.52a26.65,26.65,0,0,0,6.63-1A246,246,0,0,0,254,136.57c.16-.23.72-.39.32-.72-.47-.71-1.43-.47-2-.87-7-3.12-14.05-6.31-20.67-9.9-.72-.4-1.67-.23-2.15-1l.08-.79c5.11-.8,8.62,3.27,12.92,4.86,4.63,2.55,9.42,4.55,13.81,7.42C257.39,136.41,258.74,137.45,258.34,139ZM297,144.3c-.72,1.37-2,.41-3.19.49-8.06-3.84-16.2-7.34-23.86-12-3.67-1.6-7.1-3.67-10.77-5.27a12.16,12.16,0,0,0-2.71-1.43c-4.71-2.4-9.34-4.79-14-7.1a.73.73,0,0,0-.32.71c.88.48,1.52,1.36,2.55,1.36,10.3,5.58,20.91,10.53,31,16.2.8.55.8,1.51.72,2.47-1.36,1.44-3,1-4.55.8-.87-.24-1.75-.56-2.63-.8-4.07-1.27-7.18-3.35-11.33-4.31-5.83-4.07-12.69-6.78-19-10.37-1.36-1.28-5.11-1-4.55-4.14,4.15.15,7.58,3,11.33,4.54,3.19,2,6.54,3.34,9.74,5.18,3.83,1.36,7.25,3.44,10.93,4.87.15-.15.39-.32.31-.55-6.62-3.91-13.88-6.47-20.27-10.46-2-.8-3.74-2.31-5.9-2.71-1.51-.81.32-1.75.48-2.47a1.81,1.81,0,0,1,2.15-.56c1.92.63,3,.4,5.11.24.32-.08.64-.4,1-.24,9.65,5.82,19.39,10.53,29.44,15.48l.32-.4c-10.21-5.59-20.42-11.25-30.64-16.84l-.72-1.27c2.71,1,6,.87,8.78,1.27,12.77,7.73,25.69,14.93,38.22,23.31C296.09,141.52,297.36,142.32,297,144.3Z"/><path d="M149.62,202.42l0-.18A.39.39,0,0,0,149.62,202.42Z"/><path d="M167.82,155.09s-8.24,1.32-11.43,1.59-8-.53-12.1-.79-12.42-5.11-12.42-5.11a9.36,9.36,0,0,1-3.41-2.34c-.06.74-2.39,7.85-2.71,10.7l-.81,5.25a16,16,0,0,0,1.75,6.65,30.49,30.49,0,0,0,6.3,11.88c1.46,1.82,2.59,4.16,4.11,5.54l1.35-.91a32.57,32.57,0,0,1,4.77-3.22,65.51,65.51,0,0,0,16.5-13.82,105.88,105.88,0,0,0,10.1-15.16Zm-41.88,10.64c.37-5.41,2.92-14.72,3.52-15.38l2.08,1.94c-.08.41-4.08,15.8-4.4,16.35C126.18,168.81,125.94,166.51,125.94,165.73Zm1.86,4.64L133,153h0l1.59.53L129,174.63Zm2.26,6.39c-.16-1,3.77-16.62,6.12-22.61l2.18,1c-1.45,3.71-6.12,20.73-6.44,24.24C131.85,179.82,131,177.71,130.06,176.76Zm2.41,3.66,6.65-24.75,1.85.87-6.39,25.8Zm2.91,2.32s3.8-14.54,4.12-15.82c.67-2.69,2.29-10.5,2.29-10.5l1.3.53-5.67,29.71A28.82,28.82,0,0,1,135.38,182.74Zm3.06,3.06L144,157.47l1.72.28L140,184.87Zm2.49-1,5.76-27.22,3.51.25c-1.28,4.65-6,25-6,25Zm4.43-3.28,5.58-23.41,1.86-.13L147.48,180Zm3-2c-.15-.88,4.52-18.84,5.26-21.53l2.86-.15c-.63,2.62-1.13,4.58-1.71,7.37-1.27,4.54-1.57,8.09-3.48,12.71C150,178.36,149.27,179.34,148.41,179.55ZM156,173.2,153.33,175l3.86-17.16,1.86-.24Zm1.08-.8,2.51-14.9,2.53-.27-1.86,11.28Zm4.11-5.49,1.73-10,2.26-.14-.93,5.85ZM166,156.33l.87-.05,1.46-.14a29.39,29.39,0,0,0-3.22,6.12Z"/></svg>