<svg xmlns="http://www.w3.org/2000/svg" width="140" height="300" viewBox="0 0 140 300"><title>flag-new-jersey-icon-liberty</title><path d="M88,279.18a6.76,6.76,0,0,1,.26.73,3.25,3.25,0,0,1,.09,1.87c-.2.57-.39,1-1.75,2a6,6,0,0,1-5.17,1.33c-2.59-.35-5.85-3.51-5.85-3.51L75.48,271" fill="#fff" stroke="#000" stroke-linecap="round" stroke-linejoin="round"/><path d="M32.43,276.82l1.46,3.86s-2.71,3.65-5.19,4.42a6,6,0,0,1-5.31-.47c-1.51-.76-1.76-1.12-2-1.66a2.91,2.91,0,0,1-.17-2.36" fill="#fff" stroke="#000" stroke-linecap="round" stroke-linejoin="round" stroke-width="1.06"/><path d="M84.25,278.13a7.49,7.49,0,0,1,1.19,1.07c.6.66.68,1.18,1,1.36s.35,1.59-1.42,1.31" fill="none" stroke="#000" stroke-linecap="round" stroke-miterlimit="10" stroke-width="0.5"/><path d="M82.28,278.52c.54.06,1.64,1.28,1.81,1.69s.68.67,1,1-.3,1.42-1.06,1.3-.93-1.26-1.28-1.31" fill="none" stroke="#000" stroke-linecap="round" stroke-miterlimit="10" stroke-width="0.5"/><path d="M80.5,279.44a4.1,4.1,0,0,1,1.58,1c.51.63,1.16,1.25,1.16,1.67a1.54,1.54,0,0,1-1.92,1.53c-1.55-.31-1.83-1.92-1.77-1.48a2.36,2.36,0,0,1-1.34-.58s-1-.74-1-.76c-.32-.41-.78-.55-1-1.09" fill="none" stroke="#000" stroke-linecap="round" stroke-miterlimit="10" stroke-width="0.5"/><path d="M85.68,277.79A7.18,7.18,0,0,1,87.07,279c.47.57,1.06,1.53-.24,1.77" fill="none" stroke="#000" stroke-linecap="round" stroke-miterlimit="10" stroke-width="0.5"/><path d="M87.44,279.33c.89-.4.42-1.29-.23-1.87s-1-.45-1.58-.86-1.92-1.39-1.92-1.39" fill="none" stroke="#000" stroke-miterlimit="10" stroke-width="0.5"/><path d="M82.25,281.3a1.33,1.33,0,0,0-1.43.78l.65.71a2.73,2.73,0,0,1,1.29-.84Z" fill="none" stroke="#000" stroke-linecap="round" stroke-linejoin="round" stroke-width="0.35"/><polygon points="84.45 280.69 83.66 281.22 84.08 281.68 84.93 281.16 84.45 280.69" fill="none" stroke="#000" stroke-linecap="round" stroke-linejoin="round" stroke-width="0.28"/><polygon points="85.27 280.63 86.02 280.24 86.38 280.56 85.67 281.07 85.27 280.63" fill="none" stroke="#000" stroke-linecap="round" stroke-linejoin="round" stroke-width="0.23"/><polygon points="87.13 279.39 86.62 279.83 86.8 280.2 87.35 279.79 87.13 279.39" fill="none" stroke="#000" stroke-linecap="round" stroke-linejoin="round" stroke-width="0.21"/><polygon points="87.28 278.89 87.14 278.58 87.61 278.4 87.71 278.78 87.28 278.89" fill="none" stroke="#000" stroke-linecap="round" stroke-linejoin="round" stroke-width="0.21"/><path d="M88.1,279.42a2.15,2.15,0,0,1-.29,1.55,19,19,0,0,1-3.89,2.61,3.63,3.63,0,0,1-2.76.24c-1.5-.32-5-3.23-5-3.23l.24-.47a12,12,0,0,0,2.5,1.86l.7.21s.8,1.34,1.45,1.36,2.1.36,2.21-1.46a1,1,0,0,0,.62.37,1.5,1.5,0,0,0,1.21-.59,2.53,2.53,0,0,0,1.13-.12c.36-.19.4-.43.46-.89a1,1,0,0,0,.8-.3c.33-.35.13-.56,0-1l.48-.48Z" stroke="#000" stroke-linecap="round" stroke-linejoin="round" stroke-width="0.21"/><path d="M24.76,278.71a9,9,0,0,0-1,1.26c-.48.74-.46,1.27-.79,1.52s-.08,1.62,1.62,1" fill="none" stroke="#000" stroke-linecap="round" stroke-miterlimit="10" stroke-width="0.5"/><path d="M26.77,278.78c-.51.14-1.4,1.53-1.51,2s-.57.77-.8,1.1.53,1.34,1.26,1.1.7-1.4,1-1.52" fill="none" stroke="#000" stroke-linecap="round" stroke-miterlimit="10" stroke-width="0.5"/><path d="M28.7,279.39a4.08,4.08,0,0,0-1.4,1.22c-.41.69-.94,1.41-.87,1.84a1.56,1.56,0,0,0,2.16,1.19c1.47-.55,1.48-2.2,1.5-1.76a2.31,2.31,0,0,0,1.22-.79l.9-.91c.25-.45.68-.68.77-1.23" fill="none" stroke="#000" stroke-linecap="round" stroke-miterlimit="10" stroke-width="0.5"/><path d="M23.3,278.61a7,7,0,0,0-1.16,1.44c-.37.64-.79,1.69.52,1.72" fill="none" stroke="#000" stroke-linecap="round" stroke-miterlimit="10" stroke-width="0.5"/><path d="M21.81,280.41c-.93-.24-.63-1.19-.08-1.89s.91-.61,1.42-1.12l1.65-1.68" fill="none" stroke="#000" stroke-miterlimit="10" stroke-width="0.5"/><path d="M27.25,281.51a1.36,1.36,0,0,1,1.54.54l-.53.81a2.71,2.71,0,0,0-1.42-.61Z" fill="none" stroke="#000" stroke-linecap="round" stroke-linejoin="round" stroke-width="0.35"/><polygon points="24.99 281.27 25.85 281.65 25.53 282.18 24.61 281.8 24.99 281.27" fill="none" stroke="#000" stroke-linecap="round" stroke-linejoin="round" stroke-width="0.28"/><polygon points="24.18 281.34 23.37 281.07 23.07 281.46 23.85 281.84 24.18 281.34" fill="none" stroke="#000" stroke-linecap="round" stroke-linejoin="round" stroke-width="0.23"/><polygon points="22.14 280.42 22.72 280.78 22.59 281.16 21.98 280.85 22.14 280.42" fill="none" stroke="#000" stroke-linecap="round" stroke-linejoin="round" stroke-width="0.21"/><polygon points="21.9 279.97 22 279.63 21.5 279.51 21.47 279.91 21.9 279.97" fill="none" stroke="#000" stroke-linecap="round" stroke-linejoin="round" stroke-width="0.21"/><path d="M21.18,280.61a2.14,2.14,0,0,0,.55,1.48A19.13,19.13,0,0,0,26,284a3.7,3.7,0,0,0,2.77-.22c1.43-.56,4.43-4,4.43-4l-.31-.42a12,12,0,0,1-2.15,2.24l-.67.32s-.57,1.45-1.2,1.58-2,.69-2.43-1.08a1.06,1.06,0,0,1-.55.47,1.54,1.54,0,0,1-1.29-.39,2.36,2.36,0,0,1-1.13.07c-.39-.14-.47-.36-.6-.79a1,1,0,0,1-.85-.15c-.38-.3-.23-.54-.15-1l-.57-.39Z" stroke="#000" stroke-linecap="round" stroke-linejoin="round" stroke-width="0.21"/><path d="M81.42,236.61a47.35,47.35,0,0,1-.3,7.55L84,270.32c.41.11,1.77.89,1.6,1.88a21.28,21.28,0,0,0,.11,3.73c-.29-.47-2.42-.47-4.13-.18a6.64,6.64,0,0,0-5.26,3.84c-1.06,2.59-2.72,2.31-2.72,2.31-1,0-2.72-2.31-2.72-2.31-.63,1-2.67,1.36-2.67,1.36-1.73.12-2.31-2-2.31-2-.35,1.6-2.12,2.67-4.43,2.67s-5.85-1.42-7.63-2-4.08,2.13-4.6,1.6-.36-2.31-.36-2.31c-.7,1.25-4.43,2.84-6.73,3.54s-6,.71-6.91.19-.9-.54-1.77-2.48-4.09-4.08-6.38-4.61-5.67,2.48-5.67,2.48a4.81,4.81,0,0,1-1.42-5.5c1.25-3.54,3.38-10.81,3.38-10.81s-1.86-1.5-2.48-2.12c-.83-.83-1.78-1.31-1.78-5.32,0-1.46.71-10.81.9-14.88s1.83-18.14,1.83-18.14a141.62,141.62,0,0,0,11.16-9c4.25-4,14.17-13.57,19.73-22.2a80.45,80.45,0,0,0,8.39-18.18,63.68,63.68,0,0,0,2.72,11.57c2,5.78,4.49,14.64,7.2,19s8.85,11.8,8.85,11.8S81.18,233.47,81.42,236.61Z" fill="#fff" stroke="#000" stroke-linecap="round" stroke-linejoin="round" stroke-width="1.06"/><path d="M21,270.08a.22.22,0,0,1-.13,0,.36.36,0,0,1-.21-.45c1.13-3,2.85-3.73,2.93-3.76.56-.2,1.52-.68,1.72-1.18.06-.14.16-.25.08-.39a7.47,7.47,0,0,0-2.14-2.17.35.35,0,0,1-.11-.48c.1-.17.33-.43.5-.31a8.13,8.13,0,0,1,2.49,2.43,1.68,1.68,0,0,1,0,1.19c-.38.95-1.95,1.52-2.12,1.59,0,0-1.59.65-2.61,3.33A.55.55,0,0,1,21,270.08Z"/><path d="M36.37,276.88a.33.33,0,0,1-.24-.1c-.15-.13-.46-.35-.33-.5s3.74-3.77,7.79-14.75c3.58-9.69,5.94-15.47,6.49-16.83-1.27-.68-2.82-1.8-3-3.7s2.58-17.26,2.69-17.91l8.62-44.42a.35.35,0,0,1,.41-.28.36.36,0,0,1,.28.41l-8.32,44.4c-.93,5.41-2.41,15.72-2.58,17.18-.2,1.71,1.46,3.16,2.65,3.69.17.09.36.39.29.57s-2.53,6-6.61,17.1-7.49,14.86-7.64,15S36.47,276.88,36.37,276.88Z"/><path d="M39.77,280.45a1.68,1.68,0,0,1-1.56-.88,10.17,10.17,0,0,0-7-4.58.34.34,0,0,1-.31-.39.34.34,0,0,1,.39-.31,8.61,8.61,0,0,1,7.23,4.25c.5.85,1.93.95,3.85.28l1.8-.59A14.76,14.76,0,0,0,49,275.55c.14-.13.07.3.2.45a.35.35,0,0,1,0,.5,15.47,15.47,0,0,1-5,2.82c-.52.15-1.21.42-1.67.58A8.82,8.82,0,0,1,39.77,280.45Z"/><path d="M81.23,245.58c-.14,0-.47-.09-.52-.22l-1.36-4.13c-.07-.19-.2-.39,0-.47a.36.36,0,0,1,.47.18l1.77,4.14a.37.37,0,0,1-.18.47A.3.3,0,0,1,81.23,245.58Z"/><path d="M65.66,272.15h-.07c-.2,0-.12-.64-.07-.83S69,253.5,69.2,246.06s2.85-40.74,2.89-41.07.51,0,.7,0,.53.8.52,1-3.16,32.65-3.39,40.11-4,25.62-4,25.8S65.81,272.15,65.66,272.15Z"/><path d="M49.09,278.88h0c-.2,0-.55,0-.55-.16L49,259.27a.35.35,0,0,1,.35-.36h0a.36.36,0,0,1,.36.36l-.24,19.45C49.43,278.93,49.28,278.88,49.09,278.88Z"/><path d="M44.39,261.76a.34.34,0,0,1-.34-.27c-.06-.18.17-.79.35-.84,6.11-1.61,13.76-8.3,14.44-10.68.57-2-1.32-15.73-2.17-20.86a.37.37,0,0,1,.3-.41c.2,0,.17.1.2.3.13.76,3.27,18.64,2.55,21.17S50.91,260,44.47,261.74C44.46,261.76,44.43,261.76,44.39,261.76Z"/><path d="M55.38,215.34s0,.09,0,.09c-.2,0-.54,0-.51-.19l5.87-42.69a.34.34,0,0,1,.4-.29.33.33,0,0,1,.29.39l-5.67,42.27C55.71,215.11,55.55,215.34,55.38,215.34Z"/><path d="M63,218.54a.35.35,0,0,1-.35-.36c0-.21-.44-21.41-.8-26s.12-13.89.12-14a.33.33,0,0,1,.37-.34.37.37,0,0,1,.34.36c0,.1-.47,9.37-.12,13.89s.9,26,.9,26.2-.26.19-.46.19Z"/><path d="M48.94,243.22c-.07,0-1.29-1.44-1.35-1.48a4.19,4.19,0,0,1,0-1.83c5.37-7.7,9.66-13,10.73-14.44s3.94-5.19,4-5.42a2.38,2.38,0,0,0-.44-2.6l-.21-.3c-1.15-1.63-2.57-3.46-6.41-1.18-.17.1-.38-.05-.48-.22a.51.51,0,0,1,.13-.6c4.41-2.62,6.49-.4,7.65,1.28l.2.59a3.12,3.12,0,0,1,.34,3.2,3.92,3.92,0,0,1-.23.6C61.86,222.7,48.11,239.94,48.23,241A15.29,15.29,0,0,0,48.94,243.22Z"/><path d="M57,276.38a.57.57,0,0,1-.45-.41l-2.4-20.09c0-.2,0-.37.2-.4s.47.11.5.31l2.59,19.79c0,.19-.21.58-.41.59C57.07,276.19,57.06,276.38,57,276.38Z"/><path d="M61.52,281.91a.34.34,0,0,1-.34-.27.35.35,0,0,1,.26-.42.65.65,0,0,0,.51-.4,2.1,2.1,0,0,0-.71-2.18A18.79,18.79,0,0,0,58,277c-.88-.29-1.32-.65-1.3-1.06s.71-.72,1-.79a7.06,7.06,0,0,1,3.92.24,6.6,6.6,0,0,1,4.62,3.06.67.67,0,0,1,0,.71.35.35,0,0,1-.49,0,7.79,7.79,0,0,0-4.44-3,6.3,6.3,0,0,0-3.44-.3,1.54,1.54,0,0,0-.38.14,2.84,2.84,0,0,0,.76.36s3,1.29,3.6,1.7,2,1.94,1,3.24a2.23,2.23,0,0,1-1.21.64Z"/><path d="M59.42,248.3c-.08,0-.14.92-.21.85s-.16-1.72-.61-2.1-1.83-1.67-6.62-1.94l-1.51-.24a.36.36,0,0,1-.3-.41c0-.2.21-.43.41-.4l1.47.34c5.05.3,6.85,1.86,6.92,1.91s.47.36.33.5S59.52,248.3,59.42,248.3Z"/><path d="M79.05,274a.82.82,0,0,1-.28-.05c-.37-.11-1.41-.61-1.52-.66a.35.35,0,0,1-.17-.47c.08-.18.4-.06.57,0s1.06.34,1.33.43a2.14,2.14,0,0,0,1.74-.9,5.76,5.76,0,0,1,2.78-2.48c.35-.12.5.49.58.67s.26.5.06.48c-.8-.1-2.28,1.22-2.78,1.8A3.62,3.62,0,0,1,79.05,274Z"/><path d="M71.07,279.74a.34.34,0,0,1-.27-.13c-.13-.15-.31-.36-.15-.49.61-.5.85-2.79.79-4a47,47,0,0,0-.81-7.54c-.24-1.39-.42-2.5-.47-3.08-.11-1.61-1.8-8.61-1.57-11.09,0-.2,0-.68.19-.71s.42.1.41.28c-.13,2.54,1.77,9.82,1.9,11.47,0,.55.24,1.7.46,3a43.91,43.91,0,0,1,.92,7.66c0,.32,0,3.65-1,4.53A1.34,1.34,0,0,1,71.07,279.74Z"/><path d="M26,264.78a.9.9,0,0,1-.16,0,.37.37,0,0,1-.17-.47c.06-.11,8.25-15.09,13.38-58.28a.37.37,0,0,1,.4-.32c.19,0,.63-.11.61.09-5.15,43.36-13.69,58.71-13.75,58.82A.34.34,0,0,1,26,264.78Z"/><path d="M63.32,55.4a17.81,17.81,0,0,1-2.81,9.26c-1.72,2.66-4.12,5.56-6.76,5.56-3.31,0-5.71-3.24-7.27-6.07a19.65,19.65,0,0,1-2.29-8.75A17.33,17.33,0,0,1,47,45.64c1.72-2.5,4.12-4,6.75-4s5,1.54,6.76,4A17.33,17.33,0,0,1,63.32,55.4Z" fill="none" stroke="#000" stroke-miterlimit="10"/><path d="M53.51,63.51a4.94,4.94,0,0,0-1.27-.1c-1,0-1.9.07-1.7-.26,1.34-.15,1.53-.76,2.28-.73a6.86,6.86,0,0,1,.91.17h-.1a6.62,6.62,0,0,1,.9-.17c.76,0,.94.58,2.29.73.19.33-.66.36-1.71.26a3.44,3.44,0,0,0-1.27.1Z"/><path d="M54.39,65c.36-.06.58-.16.58-.29a.14.14,0,0,0-.08-.11,2.81,2.81,0,0,1-1.28.23,2.63,2.63,0,0,1-1.27-.23.19.19,0,0,0-.09.11c0,.13.26.23.64.29-.45,0-.71.17-.71.29s0,.09.19.15a4.24,4.24,0,0,1,1.31-.16,4.89,4.89,0,0,1,1.24.11c.14,0,.18-.07.18-.14S54.89,65,54.39,65Z"/><path d="M56.35,51.49a4.27,4.27,0,0,1,2.78-.76,4.49,4.49,0,0,1,2.43,1.19c.29.36-.12.21-.12.21a6.26,6.26,0,0,0-1.76-.7,3.69,3.69,0,0,0-2.54.5c-.49.35-1,.58-1.16.33S56.35,51.49,56.35,51.49Z"/><path d="M57.3,53.49a.81.81,0,0,0-.16.48.86.86,0,0,0,.87.84.84.84,0,0,0,.69-1.34,1.62,1.62,0,0,0-.68-.15A1.78,1.78,0,0,0,57.3,53.49Z"/><path d="M58.62,52.74a2.38,2.38,0,0,0-2.51,1.33l.08-.07a2.9,2.9,0,0,1,2.61-1.18h.31l0,0A5.1,5.1,0,0,0,58.62,52.74Z"/><circle cx="58.05" cy="53.98" r="0.24"/><path d="M56,54.48s.09-.13.09-.13a3.3,3.3,0,0,1,.52-.54,3.51,3.51,0,0,1,1.18-.56,3.09,3.09,0,0,1,1.29.14,7.42,7.42,0,0,1,.89.5c.1,0,.17.17.4.15s.18.21,0,.23-.31.18-.56.38A2.37,2.37,0,0,1,59,55a3.4,3.4,0,0,1-.9.14,4.41,4.41,0,0,1-1.07-.21,3.27,3.27,0,0,0-.58-.24h-.26a1,1,0,0,1,.35-.05,4.61,4.61,0,0,0,1.46.31,3,3,0,0,0,1.46-.39c.3-.22.41-.3.41-.34s-.09-.06-.22-.13a5.16,5.16,0,0,0-1.15-.62,2.06,2.06,0,0,0-1.15,0,6,6,0,0,0-1,.59C56.21,54.25,56,54.48,56,54.48Z"/><path d="M51.32,51.49a4.28,4.28,0,0,0-2.78-.76,4.53,4.53,0,0,0-2.44,1.19c-.28.36.13.21.13.21a6.26,6.26,0,0,1,1.76-.7,3.66,3.66,0,0,1,2.53.5c.5.35,1,.58,1.18.33S51.32,51.49,51.32,51.49Z"/><path d="M53.9,60.56a.81.81,0,0,1-.66-.27h0a.37.37,0,0,0-.33-.12c-.08,0-.17,0-.22.05h0l0,.07a.34.34,0,0,1-.23.1h0c-.41,0-.74-.18-.69-.78a1.1,1.1,0,0,1,.45-.85.88.88,0,0,0-.17.45,2.85,2.85,0,0,0,0,.33c0,.4,0,.55.35.61a.26.26,0,0,0,.2-.17.38.38,0,0,1,.37-.2c.19,0,.33.07.36.17h0c.08.24.35.33.69.33h0c.34,0,.61-.09.7-.33h0c0-.1.17-.17.35-.17a.37.37,0,0,1,.36.2s.05.17.2.17c.32-.06.35-.21.35-.61a2.85,2.85,0,0,0,0-.33,1.3,1.3,0,0,0-.17-.45,1.14,1.14,0,0,1,.46.85c0,.6-.29.78-.7.78h0a.39.39,0,0,1-.23-.1s0,0,0-.07h0c0-.06-.14-.05-.22-.05a.37.37,0,0,0-.33.12h0a.92.92,0,0,1-.68.27Z"/><path d="M50.37,53.49a.81.81,0,0,1,.15.48.87.87,0,0,1-1.73,0,.84.84,0,0,1,.17-.5,1.67,1.67,0,0,1,.69-.15A1.82,1.82,0,0,1,50.37,53.49Z"/><path d="M49.05,52.74a2.38,2.38,0,0,1,2.51,1.33L51.47,54a2.86,2.86,0,0,0-2.6-1.18h-.32l0,0A4.82,4.82,0,0,1,49.05,52.74Z"/><circle cx="49.62" cy="53.98" r="0.24"/><path d="M51.71,54.48s-.08-.13-.08-.13a3.51,3.51,0,0,0-.53-.54,3.45,3.45,0,0,0-1.17-.56,3.09,3.09,0,0,0-1.29.14,7.42,7.42,0,0,0-.89.5c-.1,0-.17.17-.4.15s-.18.21,0,.23.31.18.55.38a2.4,2.4,0,0,0,.71.34,3.32,3.32,0,0,0,.89.14,4.4,4.4,0,0,0,1.08-.21,3,3,0,0,1,.58-.24h.25a1,1,0,0,0-.35-.05,4.54,4.54,0,0,1-1.46.31,3,3,0,0,1-1.46-.39c-.3-.22-.41-.3-.41-.34s.1-.06.23-.13a5.07,5.07,0,0,1,1.14-.62,2.06,2.06,0,0,1,1.15,0,5.75,5.75,0,0,1,1,.59Z"/><path d="M44.64,43.21s4-6.41,8.38-6.41,7.15,1.41,8.68,3.65-.77,3.54,1.46,4.61,3.9,6.26,4.61,7.79,1,6.32-.89,7c0,0,.52,3.65-1.09,4.18,0,0,1.26,2.87-.29,4.18,0,0,2,1.25,3.23,5.41,0,0,1.86,0,4.1,3,1.17,1.06,4.25,1.53,4.14,4,0,.35-3.18-2.11-4.71-1-1.06.35-1.91-1.46-6.16-2.88A5.13,5.13,0,0,0,62.2,74s-2.48-4.71-2-8.61c.11-.6,2-4.72,2-9s.34-5.7-1.29-7.4a4.68,4.68,0,0,1-2.34-2.48s-3.66-.28-4.61-3.71c0,0-1.88,3.31-3.71,3.24,0,0-2.29,3.39-3.82,2.85,0,0,.07,2.06-1.24,2.88,0,0-.39,6.62.67,9.8s1,9.46-1.11,13c0,0-1.53,1.06-2.36,1a4.47,4.47,0,0,1-2.58,1.88c-1.31.34-2.51-.11-4.75,0a15.84,15.84,0,0,0-3.9.71s.78-3.63,4-3.29c0,0,2.15-3.69,4.52-4.39a3.68,3.68,0,0,0,1.71-2s-1.19-4.43-.75-6.26c0,0-2.69-2.81-1.53-8.92a11.7,11.7,0,0,0,1.86-1,7.86,7.86,0,0,0,3.3-5.2C44.44,44.59,44.64,43.21,44.64,43.21Z" fill="#fff" stroke="#000" stroke-miterlimit="10"/><path d="M70.26,53.39c-1,1.49-2.6,2.18-3.52,1.56s-.83-2.41.21-3.86a12.07,12.07,0,0,1,3.53-1.55A9.27,9.27,0,0,1,70.26,53.39Z" fill="#fff" stroke="#000" stroke-miterlimit="10"/><path d="M70.15,48.5c-.79,2.34-2.27,4-3.29,3.6s-1.2-2.59-.39-4.86a17.93,17.93,0,0,1,3.28-3.6A13.86,13.86,0,0,1,70.15,48.5Z" fill="#fff" stroke="#000" stroke-miterlimit="10"/><path d="M65.84,39.46c.87,2.31.74,4.49-.27,4.87S63,43.09,62.19,40.82c-.34-1.46.63-5,.63-5A43.85,43.85,0,0,1,65.84,39.46Z" fill="#fff" stroke="#000" stroke-miterlimit="10"/><path d="M63,40.05c1,2.68.9,5.15-.1,5.5S60.2,44,59.3,41.37a22.46,22.46,0,0,1,.09-5.5A17.31,17.31,0,0,1,63,40.05Z" fill="#fff" stroke="#000" stroke-miterlimit="10"/><path d="M68.49,43.46c-.28,2.45-1.39,4.33-2.46,4.2S64.31,45.38,64.61,43a18.08,18.08,0,0,1,2.47-4.21A13.67,13.67,0,0,1,68.49,43.46Z" fill="#fff" stroke="#000" stroke-miterlimit="10"/><path d="M66.72,46.62c.6,2.39.24,4.54-.81,4.81s-2.41-1.51-3-3.86a18.35,18.35,0,0,1,.81-4.82A13.74,13.74,0,0,1,66.72,46.62Z" fill="#fff" stroke="#000" stroke-miterlimit="10"/><path d="M43.79,41.94c-.86,3-2.39,5.24-3.43,5s-1.17-3.07-.32-6a27,27,0,0,1,3.43-5A20.74,20.74,0,0,1,43.79,41.94Z" fill="#fff" stroke="#000" stroke-miterlimit="10"/><path d="M40.84,45.82c.32,2.45-.29,4.55-1.37,4.68S37.26,48.7,37,46.3a17.87,17.87,0,0,1,1.37-4.67A13.52,13.52,0,0,1,40.84,45.82Z" fill="#fff" stroke="#000" stroke-miterlimit="10"/><path d="M46.88,43c-1,2.1-2.65,3.42-3.64,2.94s-1-2.64,0-4.68a16.68,16.68,0,0,1,3.64-2.93A12.68,12.68,0,0,1,46.88,43Z" fill="#fff" stroke="#000" stroke-miterlimit="10"/><path d="M43.88,47.81c-.77,2.84-2.24,4.93-3.28,4.64s-1.26-2.89-.49-5.65a23.88,23.88,0,0,1,3.27-4.65A18.22,18.22,0,0,1,43.88,47.81Z" fill="#fff" stroke="#000" stroke-miterlimit="10"/><path d="M40.09,50.13c.85,1.9,1.07,3.39.07,3.83s-2.11-.32-2.91-2.17c-.33-1.23-1-4.42-1-4.42S39.23,48.77,40.09,50.13Z" fill="#fff" stroke="#000" stroke-miterlimit="10"/><path d="M48.16,39.63c-1.34,2.08-3.15,3.29-4.06,2.71s-.55-2.81.78-4.82a18.38,18.38,0,0,1,4.06-2.71A14.33,14.33,0,0,1,48.16,39.63Z" fill="#fff" stroke="#000" stroke-miterlimit="10"/><path d="M84,166.11a9.34,9.34,0,0,0-3.65-2.48c-2.13-.71-3.79-.83-4.5-1.89l-.35-3.43s.24-.47-3.19-1.42-3.65,0-3.65,0c.35,3-.71,3.43-1.53,3.66s-2.13-.47-7.56-1.06-7.55,0-7.55,0l-.21-3.3a20.82,20.82,0,0,0-4.44.24c-.35,3.89-1.49,4.49-2.2,4.6a42.93,42.93,0,0,1-5.55-1,23.48,23.48,0,0,0-5.07-.63l-.71-3.78c-1.53-.35-8.15,2.83-8.15,2.83l-.3-.43c-1.66.24-6.43,5.28-6.43,5.28s1.66,2.13,1.88,10.16c0,0-3.07,3.43-2.59,6.38S22,193.63,22,193.63l-.35,12.51s-3.19,4.25-2.83,5.31a29.41,29.41,0,0,1,1.53,4.85c.22,1.66.76,4.72,1.58,5.07a141,141,0,0,0,11.17-9c4.25-4,14.17-13.57,19.73-22.2a78.78,78.78,0,0,0,8.38-18.7A63.23,63.23,0,0,0,63.92,183c2,5.8,4.49,15.15,7.19,19.53s8.86,12,8.86,12,3-3.3,1.06-12.51c0,0,1.78-3.66,1.78-5S81,194.35,81,193.41a43.82,43.82,0,0,1,1.42-8.15c.71-2,1.3-4.49.6-6.61a23.87,23.87,0,0,1-.24-8.62c.35-.82.79-1.74,1.28-2.64A1.57,1.57,0,0,0,84,166.11Z" fill="#fff" stroke="#000" stroke-linecap="round" stroke-linejoin="round"/><path d="M24.32,201.75c-.18,0-.35-.33-.41-.51l-2.31-7.42c-.07-.22,0-.56.18-.63s.47.15.53.38l2.2,7.62c.07.23.14.47-.09.53C24.41,201.75,24.36,201.75,24.32,201.75Z"/><path d="M21.57,211.66a.41.41,0,0,1-.42-.42l.2-5.75c0-.24.08-.43.32-.43s.33.19.33.43v5.75A.42.42,0,0,1,21.57,211.66Z"/><path d="M22.92,183.12h-.16l-.17,0c-1.27,0-3.72-3.89-4.46-5-.13-.19.34-1,.51-1.21s.15.65.28.83c1.56,2.3,3.22,4.14,3.73,4.14h.13c1.16,0,3.33,0,8.2-2.1,5.09-2.19,13.49-5.11,13.58-5.14,2.73-1.08,7.69-3.15,8.17-3.52.19-.14.56-.21.7,0s-.41.76-.6.91c-.73.55-7.24,3.13-8,3.41-.1,0-8.48,2.95-13.54,5.13C26.48,182.63,24.18,183.12,22.92,183.12Z"/><path d="M20.78,181.2a.44.44,0,0,1-.4-.26.41.41,0,0,1,.17-.52,10.36,10.36,0,0,0,0-2.37,26.75,26.75,0,0,0-.3-3.58c-.05-.23.09-1,.31-1s.46-.43.51-.2a42.53,42.53,0,0,1,.43,4.77c.08,2.5-.23,3.6-.58,3.15C20.91,181.13,20.84,181.2,20.78,181.2Z"/><path d="M19.86,212.25A1.55,1.55,0,0,1,19,212a1.14,1.14,0,0,1-.54-.83.43.43,0,0,1,.37-.47c.24,0,.34.14.37.37s.16.15.23.21a1.22,1.22,0,0,0,1,0c.06,0,6.14-2.44,15.9-11.08a123.15,123.15,0,0,0,15.24-15.93l.39-.48C53.46,181.93,60,173,61,170a75.7,75.7,0,0,0,2.64-9.85c0-.23.25-.29.49-.24s.38.15.36.38a80.57,80.57,0,0,1-2.68,10c-1,3.15-7.63,12.09-9.2,14l-.38.48a125.7,125.7,0,0,1-15.33,16c-9.9,8.74-16.1,11.22-16.17,11.24A2.19,2.19,0,0,1,19.86,212.25Z"/><path d="M41.54,183.76a.73.73,0,0,1-.53-.21c-.77-.78.4-2.11.53-2.25a.32.32,0,0,1,.5-.06c.18.16,0,.43-.16.6a.85.85,0,0,0-.16,1,7.12,7.12,0,0,0,1.86-1.57c.08-.09,7-7.4,10.6-12,4.1-5.24,6.52-8.74,7.27-9.66a.4.4,0,0,1,.59-.06.41.41,0,0,1,.06.6c-.74.89-3,4.42-7.25,9.63-3.73,4.59-10.6,12-10.67,12.09-.4.42-1.79,1.87-2.64,1.9C41.55,183.76,41.55,183.76,41.54,183.76Z"/><path d="M81.69,179.91a2.91,2.91,0,0,1-.94-.19c-.75-.21-2-1.68-3.54-3.64l-1.73-2.42a39.57,39.57,0,0,1-3-5.33c-.1-.21-.21-.67,0-.77s.47.4.57.61a37.86,37.86,0,0,0,3.64,5.77l2,2.48a9.08,9.08,0,0,0,2.64,2.18.87.87,0,0,0,.76-.1c.24-.14.34-.19.34-.58,0-.22.19-.17.41-.12s.2.29.16.52,0,1-.44,1.25A2,2,0,0,1,81.69,179.91Z"/><path d="M79.57,207.34c-.24,0-.22-.29-.22-.52,0-1.57,1.4-5.07,1.46-5.22s.22-.22.45-.14.23.33.14.55c0,0-1.5,3.41-1.5,4.81C79.9,207.06,79.8,207.34,79.57,207.34Z"/><path d="M80.27,197.86a3.5,3.5,0,0,1-1.39-.32c-2.07-1.09-4.25-6.07-6.29-10.21l-.74-1.48A73.21,73.21,0,0,1,68.66,178c-.52-1.44-1-2.81-1.51-4l-.44-1.05c-2.11-5.07-3.74-9.77-3.19-11.55.07-.22.1-.35.32-.28s.46.31.39.54c-.51,1.61,1.9,7.69,3.26,11l.44,1.05c.51,1.24,1,2.62,1.53,4.06a70.87,70.87,0,0,0,3.14,7.77l.74,1.49c1.76,3.58,4.42,9,6.29,9.72a1.4,1.4,0,0,0,1.08,0,5,5,0,0,0,1.07-.5c.36-.3-.08-1,.36-1.09.21-.06.34.27.31.48a8,8,0,0,1,.07,1.18c-.2.48-.4.55-1.16.89A2.5,2.5,0,0,1,80.27,197.86Z"/><path d="M79.74,197.28a.77.77,0,0,1-.44-.27c-.14-.18,0-.24.17-.39a6.24,6.24,0,0,0,1.24-3.36c0-.23.1-.1.32-.07s.32.22.29.45A5.81,5.81,0,0,1,80,197.28C79.91,197.35,79.83,197.28,79.74,197.28Z"/><path d="M45.34,85c2.17,2.11,4.13,4.72,5.91,6.37a5.25,5.25,0,0,1,1.88,3,20.22,20.22,0,0,0,2.13-1.77c1.41-1.3,3.43-3.43,6.73-6.73s4.36-9.21,4.36-9.21c1.53.35,5.8,3.09,5.8,3.09s4.5-.84,6.63,2.82c2.44,4.19,4.55,15.34,4.55,15.34,1.53,6.49,2.38,13.47,2.38,13.47,1.76.19,2.48,2.24,2.48,2.24,2.83-.36,2.83,1.77,2.83,1.77s-2.83.18-4.5,4.49a14.73,14.73,0,0,0-.81,6.62c.35,1.3,1.16,1.06,2.45.46a19,19,0,0,1,3.9-1c.24,3.9-2.35,23.64-2.35,23.64-.17,1-.29,4.58-3,5.53s-4.19.11-4.19.11a35.12,35.12,0,0,0,.35,3.54c2.13,5.43,1.06,7.33,1.06,7.33a9.45,9.45,0,0,0-3.65-2.48c-2.13-.71-3.79-.82-4.49-1.88l-.36-3.43s.24-.47-3.19-1.42-3.65,0-3.65,0c.35,3-.71,3.43-1.53,3.66s-2.13-.47-7.56-1.07-7.55,0-7.55,0l-.21-3.3a21.57,21.57,0,0,0-4.44.24c-.35,3.9-1.49,4.49-2.19,4.61a44.37,44.37,0,0,1-5.56-1,22.87,22.87,0,0,0-5.07-.62l-.71-3.78c-1.53-.36-8.15,2.83-8.15,2.83l-.3-.44c-1.65.24-6.43,5.29-6.43,5.29-1.77-2.24.47-9.68.47-9.68.59-1.42,1.41-8.75,1.41-8.75a4.83,4.83,0,0,1-3.89,3.55C13.44,149.2,9.39,125,9.39,125s2.43,5.33,4,5.86c1.8.63,4.28-2,4.28-2,.24-.82-.43-22.43-.43-22.43,1.89-.11,3.43-8.26,3.43-8.26,2-8.62,4.72-14.64,6.49-16.77s3.37-3.88,7-3.88A31.27,31.27,0,0,0,40,77.18S40.15,79.9,45.34,85Zm-16.2,33.7,1,10,2.48-3-.56-.65c-.9-1.15,1.5-10.46,1.5-10.46a7.56,7.56,0,0,1-2.21-2.65Zm49.12,13.56a5,5,0,0,1-1.61-1.77c-.89-1.42-.26-5.5-.26-5.5-1.69-1.51-2.13-7.53-2.13-7.53a11.09,11.09,0,0,1-1.33-7.35,12.89,12.89,0,0,1-1.86,2.12s.54,4.34.62,5.23,1,3.55,1.25,5.4a5.82,5.82,0,0,1-1.15,3.73c2,3.37,6.47,12.31,6.47,12.31Z" fill="none" stroke="#000" stroke-linecap="round" stroke-linejoin="round"/><path d="M53.39,103l-.3-.44c-1.57-2.25-5.47-5.69-8.26-8.07-.13-.12-.4-.33-.78-.63-1.73-1.34-5.77-4.5-7.64-6.87-2.3-2.9-4-9-4.1-9.21l.68-.2c0,.06,1.76,6.18,4,9,1.82,2.3,5.81,5.41,7.51,6.75l.81.63a66.51,66.51,0,0,1,8.08,7.81,18.53,18.53,0,0,1,2.44-2.83,47.06,47.06,0,0,1,6.3-4.54,26.88,26.88,0,0,0,6.52-5.81,21.47,21.47,0,0,0,3.83-7.76l.11-1,.64,0-.06,1.11a22.11,22.11,0,0,1-4,8,27.13,27.13,0,0,1-6.71,6,45.09,45.09,0,0,0-6.2,4.45,17.83,17.83,0,0,0-2.61,3.12Z"/><path d="M17.24,129.4s.7,15.51-.54,15.32-1.42-2.66-1.42-2.66.1,3.71,1.5,3.5c2-.31,1-17.05,1-17.05Z"/><path d="M20.51,137.38s2.38,7.11.08,8.8c0,0,6.71-5,6.07-7.92-2.08-9.64-3.37-16.2-4.52-20a81,81,0,0,1,3.43,10.88c1.25,5.42,2.12,8.42,2.12,8.42s2.21-3,2.31-5.13-2.39-26.65-2.23-26.3,1.57,9.15,1.57,9.15,1.51-3.58,1.2-5L32,112.48s-1.42,5.17-2.4,6c0,0,1.18,11.93,1.1,13.87s-2.16,6-3,6.31c0,0-.1.47-.15.85-.27,1.77-4,6.66-7.94,7.54,0,0,2-1.14.57-9.55l-.36-3.63Z"/><path d="M30.26,91.14c.57-.13.62,1.11.62,1.11a2,2,0,0,1,1-.81c.58-.13.6.38,0,.76a17,17,0,0,0-3,9.77c-.12,6,4.13,10.74,6,12.58a.83.83,0,0,0-.09.85,1.42,1.42,0,0,1,0,.94,16,16,0,0,1-5.81-8,19.73,19.73,0,0,1,1.08-15.14S30.07,91.18,30.26,91.14Z"/><path d="M73.75,91.55c-.57-.13-.82,1.21-.82,1.21a2,2,0,0,0-1-.81c-.58-.13-.6.38,0,.76,0,0,2.4,3,2.53,9.26.12,6-4.13,10.74-6,12.58a.83.83,0,0,1,.09.85,1.42,1.42,0,0,0,0,.94,16,16,0,0,0,5.81-8,18.56,18.56,0,0,0-.57-14.63A8.75,8.75,0,0,0,73.75,91.55Z"/><path d="M51.15,129.1a4.37,4.37,0,0,1-1.58,0c-1.61-.52-2.48-.93-2.92-1.71A6.11,6.11,0,0,1,43,129.09a5.38,5.38,0,0,1-3.14-1,6.75,6.75,0,0,1-4.34.52,5.11,5.11,0,0,1-3.77-3.2,3,3,0,0,0-.23-.44c-.65-1.2.87-7.67,1.55-10.39l1,.26c-1,4.09-1.94,8.94-1.64,9.64.07.14.15.29.22.45a3.88,3.88,0,0,0,3,2.44,6.48,6.48,0,0,0,3.85-.34l.31-.2.5.22a4.67,4.67,0,0,0,2.55.78,2.94,2.94,0,0,0,3.19-2.45c0-.28,0-.66,0-.66l.54-1.42.31,1.52c0,.17,0,.52,0,.68A3.25,3.25,0,0,0,49.89,128a2.9,2.9,0,0,0,2.23-.45c.54-.37.93-.64,1-1,.14-.85.26-.91.27-.94l.19.4a2.91,2.91,0,0,0,.12.75,1.84,1.84,0,0,0,.7.92,1.06,1.06,0,0,0,.47.22c.66.14,1.2-.7,1.21-.7l.2-.54.53.23a8.38,8.38,0,0,0,3.88,1l.62-.13c.7-.56,1.18-.22,1.24-2.14,0-.73,0-1,0-1.37l.17-.45c.27.35.14.93.43,1.5a1.53,1.53,0,0,0,1.1,1.29,11.5,11.5,0,0,0,3.28-.09l.18,0,.17.09s1.73.57,2.67-.31c1.2-1.12,2.23-2.82,1.72-4.27-.62-1.8-1.27-8.59-1.31-8.87l.65-.14c0,.07,1,7,1.57,8.67a5.69,5.69,0,0,1-1.6,5.7c-1.28,1.19-3.44.51-4,.25a9.53,9.53,0,0,1-3.35.24c-.47-.08-.72-.09-1-.45a2.21,2.21,0,0,1-.84,1.12l-.75.3c-1.4.45-3.7-.27-4.83-.72a2.44,2.44,0,0,1-2.21,1,1.62,1.62,0,0,1-1.23-.61.85.85,0,0,1-.1-.14c-.17-.07-.3,0-.5.14A4.75,4.75,0,0,1,51.15,129.1Z"/><path d="M82.66,156.48h-.07c-.3,0-.39-.31-.35-.59,0,0,0-.95-.7-5.4s-4.67-13.58-4.72-13.68c-.12-.27-.21-.58.06-.7a.42.42,0,0,1,.61.25c.17.37,4.39,9.21,5.1,14s.4,5.51.39,5.6C83,156.19,82.92,156.48,82.66,156.48Z"/><path d="M87.47,117.58S83.9,123,83.1,127.94a101.46,101.46,0,0,0-.24,10.63s1.16-6.35,1.5-9.29A61.4,61.4,0,0,1,86,121.84Z"/><path d="M90.1,126.64s1.09.47,1.26,1.36.27,2.48.27,2.48l.44-4.37Z"/><path d="M84.9,116.12s1.69-2.56,2.84-2.74a2,2,0,0,1,1.77.53,11.87,11.87,0,0,0-2,.36c-1.18.51-3.13,3.43-3.13,3.43Z"/><polyline points="77.92 128.75 77.99 132.75 78.61 132.41 78.6 127.33"/><path d="M76.43,125.12a.21.21,0,0,1-.13,0,.35.35,0,0,1-.21-.45A44.71,44.71,0,0,1,80,117c4-6.32,5.5-6.24,5.85-6.07a.37.37,0,0,1,.17.47.37.37,0,0,1-.43.19c-.11,0-1.46.17-5,5.78a43.43,43.43,0,0,0-3.81,7.52A.32.32,0,0,1,76.43,125.12Z"/><path d="M86,155.45a.85.85,0,0,1-.22,0c-1.77-.6-2.11-3.19-1.77-8.45.25-4,1.34-19.57,1.4-20.18,0-.38,2.07.79,1.71,1-.54.26-1.68,15.27-1.6,19.19,0,2.21-.17,7,.81,7.34a1.63,1.63,0,0,0,1,.39C87.67,154.68,86.29,155.45,86,155.45Z"/><path d="M37.13,155.17c-.28,0-.31-.23-.32-.51l.62-19.36c0-.3-.09-.54.2-.56s.24.22.24.52l0,19.35a.69.69,0,0,1-.6.65S37.15,155.17,37.13,155.17Z"/><path d="M25.13,158.06a.6.6,0,0,1-.53-.37c-.36-1,2.22-11.71,4.26-18.08.08-.29.18-.43.46-.34s.13.39.05.66c-2,6.24-3.84,16.41-3.74,17.45a.51.51,0,0,1-.33.65A1,1,0,0,1,25.13,158.06Z"/><path d="M46.64,159.43h0a3.71,3.71,0,0,1-2.41-1.13,1.85,1.85,0,0,1-.31-1.51L47,139.69c.05-.28.13-.48.41-.44s.28.33.23.61L44.93,157a.81.81,0,0,0,.11.68,2.64,2.64,0,0,0,1.64.71.53.53,0,0,1,0,1.06Z"/><path d="M52.07,159.13a.35.35,0,0,1-.09-.69,3,3,0,0,0,2-2c.38-1.42.16-15.59,0-21.1,0-.2-.06-.77.14-.78s.26.14.27.34c0,.81.91,20.12.42,21.92a3.38,3.38,0,0,1-2.59,2.3Z"/><path d="M76.16,161.56a.53.53,0,0,1-.53-.47.54.54,0,0,1,.46-.6,2.85,2.85,0,0,0,1.78-.86,1.06,1.06,0,0,0,.13-.85c-.37-1.56-6.25-16.85-9.47-24.72-.11-.26-.28-.58,0-.69s.58.52.7.79c.38.94,9.35,22.35,9.82,24.38a2.13,2.13,0,0,1-.29,1.7,4,4,0,0,1-2.52,1.32Z"/><path d="M68,159.9a.47.47,0,0,1-.25-.07A3.51,3.51,0,0,1,66,157c0-1.19-1.33-14.22-2.19-21,0-.29-.14-.55.15-.59s.36.17.4.45c.1.8,2.72,19.54,2.72,21.09a2.52,2.52,0,0,0,1.23,1.9.51.51,0,0,1,.2.72A.55.55,0,0,1,68,159.9Z"/><path d="M78.53,159.19a.51.51,0,0,1-.49-.33c-.1-.11-.9-.8-5.14-1.46-4.85-.75-5.82.16-5.82.17a.51.51,0,0,1-.73.12.56.56,0,0,1-.11-.77c.17-.24,1.32-1.41,6.83-.58,3.78.58,5.85,1.35,6,2.21a.53.53,0,0,1-.44.61A.13.13,0,0,1,78.53,159.19Z"/><path d="M44.91,157.5l-1-.18c.3-1.6,3.91-1.77,5-1.77s4.59-.13,5.47.79a.92.92,0,0,1,.25.74l-.85-.1s0,.1,0,.1c-.28-.34-2.68-.57-4.88-.47C46.92,156.61,45,157.05,44.91,157.5Z"/><path d="M33.89,155.65c-1.89-.3,3-1.53,3.65-.41l-3,3.92S33.89,156.19,33.89,155.65Z"/><path d="M27.1,40.37a11.17,11.17,0,0,0-3.63-6.92l-.18-.21h-.06c-.89-.79-1.71-1.49-2.39-2.05v0a33,33,0,0,1-2-6.64c0-.06,0-.12,0-.14s0-.08,0-.12a.37.37,0,0,0,0-.15,6,6,0,0,0,2.21-2.54,2.72,2.72,0,0,0,.33-1.25,4.2,4.2,0,0,0-1.62-2.76A4.76,4.76,0,0,0,17,14.83a7.51,7.51,0,0,0-6.15.88C8.21,17,7.61,21.29,6.3,27a2.39,2.39,0,0,1-.47.84C5.32,29,1.25,37.59.85,41.09A33.74,33.74,0,0,0,.9,47.52c.15,1.49.31,3,.39,4.45,0,.05,0,.07,0,.12C0,54.11.47,55.56,1.22,58l.27.88a5.25,5.25,0,0,0,1.43,2.35c.7.57,1.14,1.19,1.92,1.29,2.41.29,5.1-2.39,7.27-4.53l1.09-1,2.24-1.83c.49-.4,11.69-9.45,11.69-14.33C27.13,40.61,27.11,40.49,27.1,40.37ZM2.72,50.17l-.35.4c-.08-1.09-.2-2.23-.31-3.33a33.42,33.42,0,0,1,0-6.18C2.24,38.62,5.3,30.43,5.69,30.9S5.26,34,5,35.51c-.06.29,0,.87.28,1s.66-.43.73-.73c.42-2.08.78-4.21,1.12-6.26,1-6,1.94-11.76,4.32-12.94a6.45,6.45,0,0,1,5.23-.82,3.77,3.77,0,0,1,2.22,2.22.53.53,0,0,0,.13.2c1.06,1,1.69,1.73,1.15,2.79-.73,1.41-2.06,3-4.35,2.41a2,2,0,0,1-1.32-1.53,2.56,2.56,0,0,1,.08-1.95c.22-.22.47-.48.24-.7s-.51.1-.73.33a2.6,2.6,0,0,0-.68,2.62,3.09,3.09,0,0,0,2.12,2.31,4.63,4.63,0,0,0,2.31,0,24.8,24.8,0,0,0,1.41,5.26,1.47,1.47,0,0,0-.6-.17.45.45,0,0,0-.68.11c-.07.1-.11,0-.11.13a.53.53,0,0,0,.22.44,49.57,49.57,0,0,1,4.14,3.22A11.07,11.07,0,0,0,18,34.6c-1.34.76-6.65,6.21-12.53,12.65Zm18.92-1.83c-.86,1.12-10.17,8.9-13.12,11.75-.4.39-3,2.09-3.58,1.38a1.63,1.63,0,0,1,.45-1.89c.55-.51,6-6.22,8-8.76a94.36,94.36,0,0,1,9.42-9.46c1.42-1.06,3.29-2,3.57-.38S22.51,47.23,21.64,48.34Z"/><polygon points="42.72 279 40.73 279.47 12.28 48.95 14.1 47.92 42.72 279" fill="#fff" stroke="#000" stroke-miterlimit="10"/><path d="M22.83,34.13s-3.17.13-4.89,1.33S3.14,50.05,2.17,51.65a7.41,7.41,0,0,0-1,4.16,17.72,17.72,0,0,0,2,4.69c.54.53.62.8.89-.18s1.6-2.21,2.4-3.1,10.27-11.34,10.9-11.88,5.49-5,6.46-5.4,2.56-.35,2.32-1a10.73,10.73,0,0,0-1.42-3.23C23.73,34.27,22.83,34.13,22.83,34.13Z"/><polygon points="6.65 54.24 5.32 55.02 5.15 56.55 4.07 55.54 2.58 55.91 3.25 54.49 2.51 53.2 4 53.35 5.02 52.17 5.28 53.66 6.65 54.24" fill="#fff"/><polygon points="13.08 47.27 11.62 47.79 11.17 49.27 10.31 48.06 8.78 48.15 9.7 46.88 9.21 45.47 10.65 45.89 11.87 44.93 11.85 46.45 13.08 47.27" fill="#fff"/><polygon points="9.67 50.98 8.21 51.51 7.76 52.97 6.89 51.77 5.36 51.86 6.28 50.6 5.8 49.18 7.23 49.61 8.45 48.63 8.44 50.16 9.67 50.98" fill="#fff"/><polygon points="16.67 43.95 15.18 44.35 14.61 45.78 13.84 44.5 12.32 44.48 13.32 43.3 12.96 41.84 14.36 42.38 15.65 41.51 15.51 43.03 16.67 43.95" fill="#fff"/><polygon points="20.32 40.56 18.84 40.96 18.27 42.39 17.49 41.13 15.97 41.09 16.98 39.91 16.61 38.47 18.02 38.99 19.3 38.13 19.16 39.64 20.32 40.56" fill="#fff"/><polygon points="23.91 38.78 22.37 38.62 21.32 39.74 21.06 38.28 19.64 37.7 21.02 36.97 21.2 35.48 22.31 36.48 23.83 36.14 23.14 37.5 23.91 38.78" fill="#fff"/><path d="M11.14,68.48c-1.1,1-5.91,12.08-6.64,18.86A89.07,89.07,0,0,0,5,108.46c1,6.54,1.09,7,2.69,11.48s4.28,10.87,6,11.11c1.16.17,3.24-1.26,3.95-2.1.24-.5-.37-22.11-.37-22.11s-.77.39-1.51-1.6-.87-2.83-1.6-5.19-3-11.37-2.67-14.82a10.56,10.56,0,0,1,2.95-5.77c.37-.12,4.18-2.58,4.53-4s-.75-1.58-.75-1.58,2.67-1.48.24-2.84c0,0,2.41-1.47,0-2.8,0,0,.77-.34.54-2.07-.18-1.39-1.87-1.16-2.5-.9a17.72,17.72,0,0,0-3.77,1.39A6.11,6.11,0,0,0,11.14,68.48Z" fill="#fff" stroke="#000" stroke-linecap="round" stroke-linejoin="round"/><path d="M93.87,114.89l18.42-1.27c1.38-.1,4.94-.5,6.11-.5a25.34,25.34,0,0,1,4.25.5c1.48.39,7.29,2,9.16,3,0,0,5.41,4.23,7.18,4.83,0,0,0,1.28-2,1.18s-3.94-1.87-5.13-2.47-5.41-1.19-6.42-.69c-.39.19,1.59.89,2.29,1.38s2.66,1.58,2.66,2.47-.89.68-1.57.68-4.44-2.27-4.44-2.27-6,.6-10.15-2.25c0,0-7.48,2.44-14.78,4.54-6.16,1.77-11.28,2.93-12.23,3.47a1.27,1.27,0,0,1-1.3-.73c-.69-1.44-.75-4.8,1.9-9.53a10.53,10.53,0,0,1,1.7-1.31C90.63,115.2,93.87,114.89,93.87,114.89Z" fill="#fff" stroke="#000" stroke-linecap="round" stroke-linejoin="round"/></svg>