<svg xmlns="http://www.w3.org/2000/svg" width="170" height="300" viewBox="0 0 170 300"><title>flag-new-jersey-icon-ceres</title><path d="M105,281.46s3.74,3.59,6.37,4a6.12,6.12,0,0,0,5.24-1.35c1.38-1,1.57-1.42,1.77-2a3.84,3.84,0,0,0-.26-2.41" fill="#fff" stroke="#000" stroke-linecap="round" stroke-linejoin="round" stroke-width="1.02"/><path d="M58.42,279.75s-2.75,3.71-5.26,4.48a6.08,6.08,0,0,1-5.39-.47c-1.53-.78-1.78-1.14-2.07-1.68a3.8,3.8,0,0,1-.15-2.4" fill="#fff" stroke="#000" stroke-linecap="round" stroke-linejoin="round" stroke-width="1.02"/><path d="M114.16,278.36a8.08,8.08,0,0,1,1.22,1.09c.61.66.69,1.19,1.05,1.38s.36,1.61-1.43,1.32" fill="none" stroke="#000" stroke-linecap="round" stroke-miterlimit="10" stroke-width="0.51"/><path d="M112.18,278.76c.54.06,1.67,1.29,1.84,1.71s.69.67,1,1-.31,1.44-1.08,1.32-.94-1.28-1.3-1.33" fill="none" stroke="#000" stroke-linecap="round" stroke-miterlimit="10" stroke-width="0.51"/><path d="M115.63,278a7.25,7.25,0,0,1,1.41,1.27c.47.57,1.07,1.55-.25,1.79" fill="none" stroke="#000" stroke-linecap="round" stroke-miterlimit="10" stroke-width="0.51"/><path d="M117.4,279.56c.9-.4.43-1.3-.22-1.89s-1-.46-1.61-.88-1.94-1.41-1.94-1.41" fill="none" stroke="#000" stroke-miterlimit="10" stroke-width="0.51"/><path d="M112.14,281.57a1.38,1.38,0,0,0-1.46.8l.67.71a2.72,2.72,0,0,1,1.3-.84Z" fill="none" stroke="#000" stroke-linecap="round" stroke-linejoin="round" stroke-width="0.36"/><polygon points="114.38 280.96 113.57 281.47 113.99 281.96 114.85 281.42 114.38 280.96" fill="none" stroke="#000" stroke-linecap="round" stroke-linejoin="round" stroke-width="0.29"/><polygon points="115.2 280.9 115.96 280.5 116.32 280.83 115.6 281.33 115.2 280.9" fill="none" stroke="#000" stroke-linecap="round" stroke-linejoin="round" stroke-width="0.23"/><polygon points="117.08 279.62 116.56 280.08 116.76 280.44 117.31 280.02 117.08 279.62" fill="none" stroke="#000" stroke-linecap="round" stroke-linejoin="round" stroke-width="0.22"/><polygon points="117.25 279.13 117.09 278.8 117.58 278.61 117.67 279 117.25 279.13" fill="none" stroke="#000" stroke-linecap="round" stroke-linejoin="round" stroke-width="0.22"/><path d="M118.07,279.65a2.19,2.19,0,0,1-.3,1.58,18.44,18.44,0,0,1-3.94,2.64,3.68,3.68,0,0,1-2.8.25c-1.52-.33-5.1-3.28-5.1-3.28l.24-.47a12,12,0,0,0,2.53,1.88,4.42,4.42,0,0,1,.72.22s.8,1.35,1.47,1.38,2.12.35,2.24-1.48a1,1,0,0,0,.63.37,1.53,1.53,0,0,0,1.22-.6,2.63,2.63,0,0,0,1.15-.12c.36-.22.4-.45.46-.9a1.06,1.06,0,0,0,.82-.31c.33-.36.13-.57,0-1l.48-.49Z" stroke="#000" stroke-linecap="round" stroke-linejoin="round" stroke-width="0.22"/><path d="M49.18,277.75a8.13,8.13,0,0,0-1,1.28c-.49.75-.48,1.29-.81,1.54s-.09,1.65,1.64,1.06" fill="none" stroke="#000" stroke-linecap="round" stroke-miterlimit="10" stroke-width="0.51"/><path d="M51.2,277.81c-.52.14-1.42,1.55-1.54,2s-.57.78-.8,1.11.53,1.36,1.28,1.12.7-1.42,1-1.54" fill="none" stroke="#000" stroke-linecap="round" stroke-miterlimit="10" stroke-width="0.51"/><path d="M53.16,278.44a4.1,4.1,0,0,0-1.43,1.24c-.41.7-.94,1.43-.87,1.87a1.57,1.57,0,0,0,2.18,1.2c1.5-.56,1.51-2.22,1.53-1.78a2.51,2.51,0,0,0,1.25-.8l.92-.92c.24-.46.68-.69.77-1.25" fill="none" stroke="#000" stroke-linecap="round" stroke-miterlimit="10" stroke-width="0.51"/><path d="M47.68,277.65a7.07,7.07,0,0,0-1.18,1.47c-.37.64-.8,1.71.53,1.74" fill="none" stroke="#000" stroke-linecap="round" stroke-miterlimit="10" stroke-width="0.51"/><path d="M46.19,279.48c-1-.25-.65-1.21-.09-1.91s.92-.62,1.44-1.14l1.68-1.71" fill="none" stroke="#000" stroke-miterlimit="10" stroke-width="0.51"/><path d="M51.71,280.6a1.35,1.35,0,0,1,1.55.54l-.53.82a2.79,2.79,0,0,0-1.44-.62Z" fill="none" stroke="#000" stroke-linecap="round" stroke-linejoin="round" stroke-width="0.36"/><polygon points="49.39 280.35 50.28 280.74 49.94 281.27 49 280.88 49.39 280.35" fill="none" stroke="#000" stroke-linecap="round" stroke-linejoin="round" stroke-width="0.29"/><polygon points="48.57 280.43 47.75 280.15 47.45 280.54 48.24 280.93 48.57 280.43" fill="none" stroke="#000" stroke-linecap="round" stroke-linejoin="round" stroke-width="0.23"/><polygon points="46.5 279.48 47.09 279.84 46.96 280.24 46.36 279.92 46.5 279.48" fill="none" stroke="#000" stroke-linecap="round" stroke-linejoin="round" stroke-width="0.22"/><polygon points="46.26 279.02 46.36 278.67 45.86 278.57 45.83 278.97 46.26 279.02" fill="none" stroke="#000" stroke-linecap="round" stroke-linejoin="round" stroke-width="0.22"/><path d="M45.54,279.68a2.19,2.19,0,0,0,.56,1.51,19.53,19.53,0,0,0,4.33,2,3.78,3.78,0,0,0,2.8-.22c1.45-.57,4.5-4.07,4.5-4.07l-.32-.43a12,12,0,0,1-2.18,2.27l-.68.33s-.57,1.47-1.22,1.6-2,.7-2.46-1.09a1.05,1.05,0,0,1-.56.47,1.52,1.52,0,0,1-1.31-.39,2.43,2.43,0,0,1-1.15.07c-.38-.14-.47-.37-.6-.8a1,1,0,0,1-.86-.16c-.39-.3-.23-.54-.16-1l-.57-.41Z" stroke="#000" stroke-linecap="round" stroke-linejoin="round" stroke-width="0.22"/><path d="M94.7,176.55c-1,.72-4.9,13.38-13,29.58S68.82,227.8,65.34,229.72s-4.06.15-4.06.15l-4.67,26.77s-3.32,2.6-3.51,4.94l-.63,5.58s-2.88,3-2.07,3.78c0,0-4.31,1.52-2.6,4.76,0,0,5.47-.09,7.9,1.88s1.27,5.39,1.88,6a5.6,5.6,0,0,0,6.66-.19s1.07,1.69,6.65,1.8c4.5.09,5.75.14,6-3.26,0,0,3.25.2,3.14.46-1.17,2.79,2.64,2.8,4.08,2.8,4.22,0,7.54-.6,8.35-1.58l.32-2.64a4.72,4.72,0,0,1,1.92-.07c1.73.13,2,.4,2,.4s-.14,2-.08,2,3.13,1,5.29-.52c0,0,.83,1.71,2.18,1.26s1.21-4.58,3-5.66,6-2.43,7.73-2.16a6.3,6.3,0,0,1,3.07,1.71,2.76,2.76,0,0,0-.36-3,3.73,3.73,0,0,0-3.15-1.43,44.46,44.46,0,0,1,.65-16s.69,1.46,2.38-.15c0,0,3.54-4.38,7-16.47,1.08-3.78.93-9.88.93-9.88l2.43-5s-2.21-13.74-2.47-16.88-.53-7.28-.53-7.28A29,29,0,0,0,122,199.3a20.74,20.74,0,0,0-2.45-1.77,27.77,27.77,0,0,0,.12-4.29c0,.9-6-5.54-6-5.54-1.55-1.68-2.2-4.31-3.14-6a19.32,19.32,0,0,1-1.48-3.23s-6.79.83-8,.11a16.75,16.75,0,0,1-2.63-2.21S95.67,175.83,94.7,176.55Z" fill="#fff" stroke="#000" stroke-linecap="round" stroke-linejoin="round" stroke-width="1.02"/><path d="M56.29,263.57a.43.43,0,0,1-.4-.28c-.51-1.25-.12-6.19,0-7.17a.43.43,0,0,1,.5-.36.46.46,0,0,1,.36.51c-.36,2.17-.51,5.92-.2,6.71.09.21.09.47-.13.56A1.22,1.22,0,0,1,56.29,263.57Z"/><path d="M56.84,264.13a7.59,7.59,0,0,1-1.47-.13c-1.48-.4-2-1.44-2.1-3.31a1.26,1.26,0,0,1,.4-1c.51-.77,1.83-1.57,1.7-1.37-1.55,2.52-1.08,4.13.33,4.51,3.46.92,10.16-3.89,18.88-16.72,8.86-13,11.79-21.92,13.21-25.89l-1.22,1.38c-.14.19-.93,1-1.12.87s.6-1.1.75-1.28l2.32-3.48c.13-.16.62-1.44.81-1.34a7.3,7.3,0,0,1-.22,2.45c0,.1-1.45,9.59-13.81,27.77C66.59,259.41,60.66,264.13,56.84,264.13Z"/><path d="M52.19,272h0a3.05,3.05,0,0,0-2.86-.06.43.43,0,0,1-.56-.23c-.08-.21,1.31-.92,1.53-1,1.32-.59,2.47.78,2.53.84a.44.44,0,0,1,0,.6C52.73,272.19,52.28,272.09,52.19,272Z"/><path d="M63.29,273.23a.41.41,0,0,1-.26-.09c-1.14-.86-1.85-.58-1.85-.58a.42.42,0,0,1-.61,0c-.16-.19-.14-.24,0-.4.41-.37,1.36-.49,2.73.53.18.14.43.2.3.4A.47.47,0,0,1,63.29,273.23Z"/><path d="M68.73,278.56a1.32,1.32,0,0,1-1.06-.55c-1.88-2.26-3.45-4-3.46-4-.17-.18-.28-.33-.12-.51s.23-.17.41,0a42.38,42.38,0,0,1,3.82,4,.36.36,0,0,0,.44.13c.2,0,.85-.13,2.12-2.22.51-.88,12-26.7,18.26-45.07,6.38-18.67,10.36-46.16,10.41-46.46s.26-2.37.49-2.33.08.57,0,.8S96.36,211.83,90,230.57,72.21,275,71.71,275.8c-1,1.75-2,2.69-2.89,2.74A.15.15,0,0,1,68.73,278.56Z"/><path d="M52.34,266.18s0-.08,0-.11a.31.31,0,0,1,.19,0,.43.43,0,0,1,.3.14.49.49,0,0,1,.11.31A3,3,0,0,0,53,267a2.4,2.4,0,0,0,.33.95.48.48,0,0,1,.06.33.49.49,0,0,1-.19.28c-.1.07-.27,0-.5-.1a.78.78,0,0,0-.91.11c-.49.07,0-.82.23-1.28a2.24,2.24,0,0,0,.19-.79.29.29,0,0,1,0-.14A.26.26,0,0,1,52.34,266.18Z"/><path d="M124,232.4c2.11-2.1,4.31-4.26,3.79-5.81-.79-2.38-6.42-2.53-7-2.5-.17,0-3.85-.14-5.83,1.25.49-2.61,1.26-8.32,2.2-12.16C118.42,208,120,198.05,120,198s.1-.46-.13-.5-.36.1-.4.33-1.74,10.06-3,15.2-2.66,13.71-2.63,13.78c-.2,1.17.61,2.56,1.25,3.83a7.89,7.89,0,0,1,1.15,2.78c0,2-1.28,5.71-2.7,5.71-1.69,0-6.41-3.88-7.07-15.43,0-.29-.17-.54-.14-.67a37.64,37.64,0,0,1,2.87-9c1.14-2.47,2-3.75,2-4.48,0-.19,0-.22,0-.33-.7-3.41-3.34-30.09-3.36-30.37s0-.43-.26-.4-.31.23-.28.46c.07,1.05,2.48,24.79,3.27,30-1.71-.06-9.83,2.49-12.06,3.72.26-1.51.85-4.52,1.34-7.1.17-.89.17-2,.4-3.32.78-4.21,1.63-9.95,2.17-12.34.72-3.09,1.87-10.76,1.89-10.84,0-.23.3-.46.07-.5s-.36.12-.4.35c0,.07-1.38,7.73-2.09,10.79-.56,2.4-1.51,8.18-2.28,12.39-.25,1.28-.25,2.43-.41,3.32-.71,3.83-1.43,8-1.43,8a3.94,3.94,0,0,0,0,1.11c.2.6.78,1,1.94,1.43,1.62.59,5.17-.34,5.86-.51a38.06,38.06,0,0,0-.25,6.16c.18,15.12,6.61,18.21,8.2,18.21,2.14,0,3.45-4.08,3.46-6.32h0l.54-8.18a29.62,29.62,0,0,1,3.62-.27s-.17,10.27-.09,10.34c.23,1.53,2.88,2.86,3.44,3.14.21.1.59-.68.37-.78-1.31-.62-3.39-1.84-3.31-2.61C121.66,234.62,123,233.39,124,232.4Zm-15.34-18.79c-.82,1.8-1.69,4.14-2.51,6.37a36,36,0,0,1,1.68-9.81,9.62,9.62,0,0,1,2.47-.45A21.68,21.68,0,0,1,108.67,213.61Zm-8.62,1.57c-.85-.3-1.31-.7-1.41-1s-.11-.46.29-.83,4.7-2,7.89-2.87a37.88,37.88,0,0,0-1,4C104.73,214.75,101.33,215.63,100.05,215.18Zm16.28,16.17c-.13-.28-.27-.86-.41-1.15-.77-1.5-1.56-3-.78-3.9a4,4,0,0,1,1.77-.87Zm5.32,2.57s.1-8.91.09-8.95c2.11.08,4.85.76,5.24,1.91s-2,3.69-3.58,5.23C122.66,232.84,122.08,233.42,121.65,233.92Z"/><path d="M114.46,260.39h0c-.23,0-.31-.24-.26-.49a73.52,73.52,0,0,0,.11-17.3c0-.24-.31-3.49-.07-3.52s.22.46.23.7,2.16,11,.49,20.24A.48.48,0,0,1,114.46,260.39Z"/><path d="M108.24,275.68a.44.44,0,0,1-.43-.36c0-.23,1-.46,1.28-.5a14.3,14.3,0,0,0,2.89-1.29c2.14-1.17,4.6.24,4.7.3s.51.36.41.57-.56.1-.77,0a4.38,4.38,0,0,0-3.72,0,12.5,12.5,0,0,1-4.29,1.28Z"/><path d="M113.72,273.33c-.18,0-.35-.74-.41-.91-3-8.74-5.36-25.84-5.39-26s-.76-4.41-.51-4.44.79,3,.83,3.27,2.9,16.76,5.91,25.43a7.74,7.74,0,0,1-.29,2.64Z"/><path d="M91.43,236.15c-.25-.06-.68,1.23-.72,1.46s-.66,5.26-2.09,11.64C84,263.9,75,279.88,74.86,280a3,3,0,0,0-.56,2.64,1.57,1.57,0,0,0,.21.5,2.31,2.31,0,0,0,1.58.92h.09c.2,0,.42-.7.19-.74s-.92-.19-1.11-.51c0-.05-.17-.24-.13-.37s1-.42,2.23-.32c.06,0,1.94.26,1.94.26,1.28.2,2.18.62,2.2.87a.26.26,0,0,1-.09.25,2.14,2.14,0,0,1-1.32.31c-.23,0,.08.69.29.74l.18,0a2.15,2.15,0,0,0,1.47-.46s.17-.2.18-.2c1.53-1.27,2.35-7,3.34-12.75.2-1.17.4-2.33.62-3.48,1.23-6.64,5.23-30,5.27-30.21S91.66,236.21,91.43,236.15Zm-6,31.4c-.22,1.15-.42,2.33-.62,3.49-.8,4.64-1.51,9.66-2.61,11.73a5.67,5.67,0,0,0-3-1.12,10,10,0,0,0-4.4.05,9,9,0,0,1,.7-1.52,187.86,187.86,0,0,0,12-24.73C86.4,260.22,85.85,265.19,85.42,267.55Z"/><path d="M62.54,284.32c-.16,0-.72.11-.8,0s.47-.4.63-.53a9.64,9.64,0,0,0-1.45-2.86.43.43,0,0,1,.11-.6.44.44,0,0,1,.61.11c.51.75,2.19,2.56,2,3.41-.06.2-.71.37-.89.46A.41.41,0,0,1,62.54,284.32Z"/><path d="M66.45,284.28l-1-.23a5,5,0,0,1-1.89-1.87,8.2,8.2,0,0,1-.84-1.8.53.53,0,0,1,0-.33.43.43,0,0,1,.26-.2c.12,0,0,0,.12,0a.41.41,0,0,1,.2.26,11.47,11.47,0,0,0,1.25,1.72c.43.62.69.92,1.36.94a.37.37,0,0,1,.3.13.4.4,0,0,1,.13.3c0,.11-.27.23-.34.31C65.79,283.69,66.56,284.28,66.45,284.28Z"/><path d="M104.66,283.49c-.08-.22-.64,0-.86.07s-1-.17-2-2.4c-2.87-6.17-1-50-.92-50.44,0-.23-.06-1-.29-1s-.34.68-.36.91c-.07.76.07,8.74-.49,18.21l-2,32.42c-1-.92-3.28-.92-3.61-.92a7.6,7.6,0,0,0-3.5.72c.44-4,2.58-23,5-36.36,2.83-15.61,5.72-28.87,5.75-29a.36.36,0,1,0-.69-.2c0,.13-2.92,13.42-5.76,29.07-2.63,14.43-5.09,35-5.09,37.21a1.87,1.87,0,0,0,.26.71,3.17,3.17,0,0,0,1.71,1.14h.09c.14,0,.26-.51.1-.57a2.27,2.27,0,0,1-1.34-.76c-.13-.22-.14-.09-.06-.35.32-.95,2.37-.9,3.18-.86s3.53.07,3.74,1c.07.35,0,.16-.13.37a1.26,1.26,0,0,1-.72.39c-.17,0-.09.61.08.58a2.17,2.17,0,0,0,1.35-.63.85.85,0,0,0,.18-.49L99.73,265c-.13,7.62.1,14.3,1.12,16.48.85,1.81,1.58,2.7,2.45,2.7.59,0,.59-.17.6-.17C104.15,284,104.76,283.7,104.66,283.49Z"/><path d="M72,130.09c1.08-1.62,1.52-2.43,1.52-2.43-1-1-.8-2.51-.71-4.5s-1.72-5.93-1.72-5.93c-.08,1.71-2.34,8.81-2.34,8.81,2.34,2.15,1.24,7.73,1.24,7.73A29.36,29.36,0,0,1,72,130.09ZM94.7,176.55c-1,.72-4.9,13.38-13,29.58S68.82,227.8,65.34,229.72s-4.06.15-4.06.15c-2.16-2,.8-6.3.8-6.3s-1.85-7.54-1.94-8.89,2.52-5.2,2.7-6.11-4-14.56-4.9-17.79,1.27-4,1.27-4l.36-8.18c-1.89-3.59-.77-16.8-.77-16.8-2,.55-2.25-1.16-2.25-1.16-1.17-1.44-4-32.58-4-32.58a11.6,11.6,0,0,0,5.22,1.19c-1.88-14.4-6.11-13.09-6.11-13.09.65-1.87,3.62-2.24,3.62-2.24a4.27,4.27,0,0,1,2.15-1.22s3.79-24,6.13-27c.92-1.2,3.29-5.28,8.21-6.23S78.09,77,78.09,77s3.35,4.31,4.56,5.51,6.22,5.14,7.9,6.46a11.72,11.72,0,0,1,2.63,3,12.05,12.05,0,0,1,2.27-2.87c1.19-1,4.56-2.88,7.79-5S109,76.63,109,76.63l7.18,3.68a30.33,30.33,0,0,1,6,4.32A23.51,23.51,0,0,1,125.4,88c-1.19,2.27.83,5.15.83,5.15a6.43,6.43,0,0,0,.48,5.27,6.57,6.57,0,0,0,.6,5.86c-1.68,4.56.12,5.87.12,5.87-2.76,4-1.27,6.12-1.27,6.12-1.91,2.27-1.74,6.44-1.74,6.44-1.19,1.07-3.14,5-3.26,4.64a15.26,15.26,0,0,1-1.64-3.06c-.83-3-1.08-5.39-1.43-6.71a13.09,13.09,0,0,0-1.33-2.88c-.47,1.2-4.48,5.71-4.48,5.71a11.25,11.25,0,0,1-.52,7.4c4.43,6.35,9.9,25.82,9.9,28.34,0,1.39,2,11.75,2.85,20.72a94.16,94.16,0,0,1,.27,13.54s.45,2.63.92,6.47-1,5-1,5a28.39,28.39,0,0,0-2.77-2.65,12.45,12.45,0,0,0-2.86-1.77c.24-2.27.31-4.29.31-4.29,0,.9-5.75-5.54-5.75-5.54-1.55-1.68-2.2-4.31-3.14-6a19.32,19.32,0,0,1-1.48-3.23s-6.79.83-8,.11a16.75,16.75,0,0,1-2.63-2.21,8,8,0,0,0-3.62.23Z" fill="#fff" stroke="#000" stroke-linecap="round" stroke-linejoin="round" stroke-width="1.02"/><path d="M58,161.68a.69.69,0,0,1-.47-.2l-.56-.44a5.79,5.79,0,0,1-.49-1.82c.36,1,.49,1.08.69,1.26s.69.31.87-.11c.39-.93.9-10.25.18-18.54-.51-5.88-1-11.21-1-11.27-.95-.93-4.35-1.15-4.37-1.15-.28-.08-.24-.48-.16-.77s.61-.35.88-.26c.12,0,4.5.79,4.56,1,.14.45.3,2,.43,3.11.2,1.63.42,4.19.66,9.38,1,19.11-.36,19.63-.72,19.79A1.7,1.7,0,0,1,58,161.68Z"/><path d="M60.53,142.22a.47.47,0,0,1-.17,0,.44.44,0,0,1-.25-.34l-.3-1.82c0-.23-.19-1.28.06-1.32s.46,1,.49,1.19l.38,1.21a1.52,1.52,0,0,0,.18-.33c.14-.65-1.1-6.23-1.77-8.54s-2.33-7.77-2.34-7.83c-.07-.23-1.53-5-1.3-5.1s2,4.61,2.12,4.84c0,.06,1.69,5.66,2.35,7.85.55,1.84,2.07,8.2,1.76,9.06a1.9,1.9,0,0,1-1,1.08A.39.39,0,0,1,60.53,142.22Z"/><path d="M69,126.38l0-.1c-.08-.19-.19-.37-.38-.29s-.16.39-.08.58l0,.43c.12.26,0,.36,0,.73a5.63,5.63,0,0,1-1.19-.93c-.26-.25-.55-.53-.88-.82a18.62,18.62,0,0,1-1.7-1.9c-.14-.24-.63-.72-.73-.9a11,11,0,0,1-.67-2c-.39-1-.72-2-1-2.8-.1-.33-.07-.37-.21-.79a9.49,9.49,0,0,0-1.9-3.22c-1.13-1-2.14-1.82-2.54-1.77s-.39-.07-.51.1-.66.35.1.41,1.37.61,2.48,1.61a7.87,7.87,0,0,1,1.59,2.71c.17.48.49,1.28.63,1.68a15.3,15.3,0,0,0,.58,1.74c.16.38.29,1.08.4,1.34a10,10,0,0,1-.82-1.19s-2.11-3-3.3-4.4a10.71,10.71,0,0,0-3.77-2.54.72.72,0,0,0-.66,0c-.19.07-1.25.39-.1.37.6-.36,2.84,1.28,4,2.63s3.26,4.33,3.28,4.36A52.13,52.13,0,0,0,66,126.53l.86.81c1.08,1,1.57,1.5,2,1.5,0,0,.08,0,.1,0a1.06,1.06,0,0,0,.62-.41C69.83,127.85,69.3,127.11,69,126.38Z"/><path d="M93.27,101.07l.3-.44a12.88,12.88,0,0,1,5.78-5.13c.15-.06,2.11-.88,2.57-1,4-1.57,7.69-3.34,9.84-5.58a55.7,55.7,0,0,0,5.35-6.62l-.69-.2s-2.67,3.39-5.22,6.26c-2,2.23-5.65,3.87-9.71,5.46C101,94,99,94.88,98.89,95c-3.45,1.5-3.8,2.52-5.59,4.85a19.15,19.15,0,0,0-2.48-2.88C89.11,95.34,86,94,84,92.81c-2.36-1.47-5-2.36-7-3.65-1.34-.83-6.71-3.92-7.37-7.24l-.12-1-.65,0,.06,1.12c.69,3.46,6.12,6.66,7.5,7.53,2.37,1.49,4.75,2.3,7.22,3.82,2,1.21,5,2.49,6.69,4A18.85,18.85,0,0,1,93,100.59Z"/><path d="M73.79,125.82c.1-.69.16-1.72-.54-4.7.8,1.17,1.13,1.53,1.2,1.63a1.83,1.83,0,0,0,.54.43.63.63,0,0,0,.54-.05c.25-.17-.14-.47-.31-.71a48.55,48.55,0,0,1-3.31-6,19.86,19.86,0,0,0,2,1.74,2,2,0,0,0,.53.32c.16,0,.32.13.44,0s-.28-.78-.52-1a12,12,0,0,1-3.55-4.25,2.48,2.48,0,0,0-.22-.42,15.58,15.58,0,0,1-1.23-5.4c-.46-4,3.39-10.85,3.43-10.92.16-.26.38-.69.13-.85s-.43,0-.7.33a2.53,2.53,0,0,0-.56.72,3.12,3.12,0,0,0-.77-1.7.5.5,0,0,0-.63-.1c-.26.15.06.38.2.63a2.71,2.71,0,0,1,.35,2.65c-.12.2-.22.59-.36.9-1.15,2.48-2.44,5.92-2.16,8.47a15.67,15.67,0,0,0,1.51,6.11A14.88,14.88,0,0,0,71,117.07c0,.09.1.26.12.34,1.91,5.88,1.66,7.55,1.55,8.34a1.82,1.82,0,0,0,.16,1.26,2.79,2.79,0,0,0,2.8,1.9,7.08,7.08,0,0,0,2.3-.47,6.18,6.18,0,0,0,1.47-.76,4.74,4.74,0,0,0,2.61.9,2.86,2.86,0,0,0,1.78-.59,3.56,3.56,0,0,0,2.7.37,3,3,0,0,0,1.24-.8,4.43,4.43,0,0,0,2,.89,49.1,49.1,0,0,0,5.06.3,6.55,6.55,0,0,0,2-.18,2.36,2.36,0,0,0,1.21-.95,2,2,0,0,0,.7.87,13.79,13.79,0,0,0,4.65.65,4.49,4.49,0,0,0,1.53-.16,2.5,2.5,0,0,0,1.11-.83,3.39,3.39,0,0,0,1.52.47c.33,0,.68,0,1,0a4.32,4.32,0,0,0,2.46-.56c1.09-.82,2-1.58,2.21-2.65a5.34,5.34,0,0,0,0-2.21,10.35,10.35,0,0,1-.34-3.08h0a12.17,12.17,0,0,0,2.34-2.69c.14-.16.3-.3.46-.47,3-3.21,2.4-8.31,1.69-11.86a25,25,0,0,0-1.83-5.34c-.28-.61-.52-1.17-.69-1.67a2.58,2.58,0,0,1,.66-2c.18-.23.47-.67.26-.86s-.46-.07-.67.16a4.08,4.08,0,0,0-.46.47,3.71,3.71,0,0,1,0-1.16c.09-.29,0-.69-.25-.78s-.48.19-.56.47a7.56,7.56,0,0,0,0,3.84c.07.26.19.53.27.78s.32.76.51,1.18a25,25,0,0,1,1.77,5.13c.66,3.32,1.23,8.06-1.43,10.9-.13.15-.24.26-.36.38a.46.46,0,0,0-.17.17,5.37,5.37,0,0,1-2.13,1.58,3.93,3.93,0,0,0-.71.4c-.26.16,0,.38.23.55a.57.57,0,0,0,.31.11,6.49,6.49,0,0,1-1.12,1.37c-.23.19-.6.7-.47.86s.26.09.41.09a1.07,1.07,0,0,0,.45-.23c.14-.13.47-.32.7-.52a23.37,23.37,0,0,0,.26,2.44,4.53,4.53,0,0,1-.06,1.8c-.14.79-1.33,1.84-1.79,2.19-.61.45-2.23.34-2.76.31a2.14,2.14,0,0,1-1.19-.42l0,0c-.14-.19-.11-.06-.2-.22s-.07-.82-.27-.8-.45.6-.49,1c-.09.74-.33.73-1,.92a16.5,16.5,0,0,1-5.15-.45,2,2,0,0,1-1-1.74c0-.3,0-.64-.31-.66s-.34.32-.35.62c0,.11,0,.66,0,.69-.34,1.08-.6.86-1.23,1.12a33.37,33.37,0,0,1-6.43-.22,3.28,3.28,0,0,1-1.52-.67,2.74,2.74,0,0,0,.23-.75c.07-.29.26-1.31,0-1.41s-.59.78-.69,1.07a2.14,2.14,0,0,1-1.74,1.71,2.36,2.36,0,0,1-2-.45l-.38-.69-.53.73a2.35,2.35,0,0,1-3,0A4.37,4.37,0,0,0,81.7,125c.07-.28.21-1.51-.07-1.58s-.48,1-.55,1.32c0,0-.49,1.61-3.49,2.68-2.75,1-3,.34-3.6-1l-.11-.35Z"/><path d="M73.46,127.76s-5.83,9.7-8.35,16.08-5.77,14.82-6.31,18"/><path d="M65.6,152.24h-.06c-.2,0-.23-.22-.18-.42a6.49,6.49,0,0,1,1.23-2.55c.19.09-.64,2.12-.73,2.66C65.83,152.12,65.77,152.24,65.6,152.24Z"/><path d="M102.21,173.71a34.48,34.48,0,0,1-2.06-6.69c-.14-.74-.59-1.89-.86-3.45a56.71,56.71,0,0,1-.92-6.12.35.35,0,0,0-.05-.18c0-2.19-.11-4.22-.08-5.85A117.6,117.6,0,0,1,99,139.5a2.93,2.93,0,0,1,.49-1.31c0-.28-.06-.57-.35-.61s-.36.15-.4.46a115.69,115.69,0,0,0-1.08,13.36c-.11,6.48,0,23.35.36,24.92,0,.16,1.44.76,1.35.49s-.41-.46-.44-.66.1-.35.08-.36a1.85,1.85,0,0,1,.82-.69,12.25,12.25,0,0,1,2-.65l.63-.16Zm-2.71.69c-.13.07-.54.35-.64.43-.13-2.12-.26-7.06-.35-11.56,0,0,.12.71.13.75.27,1.28.58,2.77.75,3.49a47,47,0,0,0,1.78,6.18A5.64,5.64,0,0,0,99.5,174.4Z"/><path d="M119.38,193.77s-.23-.32-.25-.32c-.3,0-.31-.29-.28-.57a17.37,17.37,0,0,0-.85-6.15c-.12-.28-.5-.59-.23-.71s.49.22.6.49,1.91,3.84,1.66,7.17C120,194,119.67,193.77,119.38,193.77Z"/><path d="M69.44,170.44s-.72-1.74-1.31-3a53.45,53.45,0,0,1-2.21-9,34.88,34.88,0,0,1-.35-4.33c0-.3,0-1-.3-1s-.34.62-.36.92a19.15,19.15,0,0,0,.15,4.54,62.36,62.36,0,0,0,2.3,9.62,8.88,8.88,0,0,1,.84,2.33,10.66,10.66,0,0,0-2.24.67c-.29.09-.67.36-.53.62s.46.16.73,0a4.83,4.83,0,0,1,2.5-.61,6.79,6.79,0,0,1-1.89,1.95c-.23.19.17,1,.33,1a.59.59,0,0,0,.33-.11c.89-.69,2.38-2,2.31-2.86A2.12,2.12,0,0,0,69.44,170.44Z"/><path d="M88,166.38c-.34-2.07-1-10.41-1.06-14.88a30.33,30.33,0,0,1,.72-7.54c.11-.38.31-1.09-.06-1.21s-.36.52-.49.89a28.42,28.42,0,0,0-.89,7.92c.11,4.15.4,12.8.77,15.07.25,1.46.59,4,.8,5.26a17.2,17.2,0,0,0-4.13-.25c.3,0,1.73,1,2,.89a2.26,2.26,0,0,1,2.07.2c.13.29-.91.65-1.51,1-.26.14.07,1,.26,1a.45.45,0,0,0,.26-.07c2.17-1.18,2.34-1.81,2.35-2l0-.39S88.35,168.39,88,166.38Z"/><path d="M95.54,174.5s0,0,0,0a6.06,6.06,0,0,0-.23-.69A63,63,0,0,1,93.55,165c-.82-5.41-1.1-14.3-1.1-14.4,0-.3.18-2.1-.12-2.1s-.33.55-.34.85a137.26,137.26,0,0,0,.8,15.81c.09.67.49,6.05,1.24,8.4-1.68-.28-4.2.89-4.54,1.05s-.36.48-.08.51c.08,0,.65.28.92.17,1.15-.51,3.4-1.14,4.14-.39a14,14,0,0,1-3.16,1.72c-.27.12.36,1,.42,1,1.31-.56,3.56-1.63,3.85-2.46A.8.8,0,0,0,95.54,174.5Z"/><path d="M108.46,156.33C107.38,151,105.07,143.05,105,143c-.09-.29-.65-1.75-.94-1.65s.48,1.71.92,3.42c0,.08,1.83,6.52,2.89,11.81,1,4.73,3.36,17.72,3.91,21.51a4.34,4.34,0,0,0-2.89,0c-.29.1-.43.19-.34.47a.54.54,0,0,0,.67.35,3.36,3.36,0,0,1,2.06-.09.74.74,0,0,1,.27.25c0,.08.16.1-.24.53a2.44,2.44,0,0,0-.62,3.17c.1.19.07.29.27.29a.39.39,0,0,0,.24-.06c.26-.13.26-.36.13-.61-.44-.88,0-1.48.67-2.16.28-.32.68-.63.73-1C112.81,179.15,109.55,161.76,108.46,156.33Z"/><path d="M59.55,179h0a.43.43,0,0,1-.4-.46,9.1,9.1,0,0,1,7-7.5.41.41,0,0,1,.36.06.45.45,0,0,1,.19.31,11.94,11.94,0,0,0,.92,2.62.58.58,0,0,0,.33.32,2.19,2.19,0,0,0,1.55-.23c1.38-.65,14.53-3.18,16.14-2.5a.43.43,0,0,1,.23.23s.76,1.75,1.22,3.07c.09.26.22.32.26.33.35.15,1-.2,1.5-.41a1.81,1.81,0,0,1,1.09-.32c.39.1.64.53,1,1.12s.65,1.11,1,1.25a5.32,5.32,0,0,0,1.55-.33,10.21,10.21,0,0,1,5.07-.59.42.42,0,0,1,.33.52.42.42,0,0,1-.51.33,9.63,9.63,0,0,0-4.65.57c-1,.31-1.66.51-2.14.31a3.68,3.68,0,0,1-1.38-1.61,6,6,0,0,0-.44-.69,4.94,4.94,0,0,0-.51.23,2.81,2.81,0,0,1-2.19.44,1.35,1.35,0,0,1-.75-.83c-.38-1-.92-2.34-1.12-2.83-1.89-.33-14,1.92-15.29,2.53a3,3,0,0,1-2.23.25,1.37,1.37,0,0,1-.81-.77,18.49,18.49,0,0,1-.87-2.39,8.09,8.09,0,0,0-6,6.61A.42.42,0,0,1,59.55,179Z"/><path d="M59.94,189.83a1.31,1.31,0,0,1-.55-.37c-.53-.68-.59-2.63-.56-3.35,0-.23.29-.4.55-.42s.32.22.3.45a8.15,8.15,0,0,0,.37,3.19c.15.18.34.24.15.4A.34.34,0,0,1,59.94,189.83Z"/><path d="M60.83,192.92a3.91,3.91,0,0,1-2-.35c-.85-.5-1.11-1.73-1.48-3.21a.43.43,0,0,1,.31-.52c.23-.06.41.33.45.56a2.52,2.52,0,0,0,1.36,2.13c.78.46,2,.44,3.84-.06,3.18-.85,7.92-6.68,8-6.74s1.57-1.94,1.76-1.8-.78,1.5-.92,1.68-5.19,6.63-8.57,7.79A8.32,8.32,0,0,1,60.83,192.92Z"/><path d="M63.82,226.13a2.27,2.27,0,0,1-1.41-.43,2.54,2.54,0,0,1-.6-2.13c0-.23-.17-.6.06-.59s.71.45.69.68a2.88,2.88,0,0,0,.71,1.28,1.45,1.45,0,0,0,1.43.07c2.68-.79,5.26-4.73,5.29-4.77.12-.2,1.36-2.14,1.55-2s-.91,2.08-1.05,2.28-2.57,4.46-5.56,5.33A4.35,4.35,0,0,1,63.82,226.13Z"/><path d="M72.07,195.23c-.23,0-.63,1.91-.71,2.14,0,.08-2.06,7.19-4.28,10.94a35.28,35.28,0,0,1-2.69,3.94c-.56-1.71-1-3.59-1-3.61-.06-.23-.49-2.15-.72-2.08s-.17,2.05-.13,2.28a28.23,28.23,0,0,0,.88,4.56c-1.11,1.22-2,1.9-2.49,1.79-.24-.05-.31-.33-.37-1.06,0-.23-.09-.43-.36-.4a.42.42,0,0,0-.4.46c.08,1.21.15,2.1.83,2.26l.36,0c2.84.05,6.06-6.43,6.83-7.73,2.27-3.83,4.18-10.93,4.26-11.24S72.3,195.31,72.07,195.23Z"/><path d="M133.3,129.9l4.75,2s1.26-1.31-.89-5.71Z" fill="#fff" stroke="#000" stroke-linecap="round" stroke-linejoin="round" stroke-width="1.02"/><path d="M134.76,63.13a13.29,13.29,0,0,1-1.64,4c-1.18,1.81-.2,4.41-.2,4.41a7.87,7.87,0,0,0,1.43,2.56,4.48,4.48,0,0,0,2.46.61s2.92-2,2.14-4.8-1.68-3-2.66-4.21A11.31,11.31,0,0,1,134.76,63.13Z" fill="#fff" stroke="#000" stroke-miterlimit="10" stroke-width="1.02"/><path d="M120.23,77.62a13.09,13.09,0,0,1,2.5,3.49c.9,2,3.63,2.52,3.63,2.52a7.87,7.87,0,0,0,2.93.14c1-.3,1.84-1.75,1.84-1.75s-.15-3.55-2.93-4.37-3.46-.2-5,0A11,11,0,0,1,120.23,77.62Z" fill="#fff" stroke="#000" stroke-miterlimit="10" stroke-width="1.02"/><path d="M125.62,67.93a27.51,27.51,0,0,0-.19,4.07,3.33,3.33,0,0,0,1.49,2.4,3.81,3.81,0,0,0,3,.72s1.5-2.63.48-4-3-1.13-3.65-1.8a8,8,0,0,1-1.2-1.73Z" fill="#fff" stroke="#000" stroke-miterlimit="10" stroke-width="1.02"/><path d="M131.92,65.36a27,27,0,0,0-2.17,3.45,3.32,3.32,0,0,0,.12,2.82,3.88,3.88,0,0,0,2.24,2.11s2.6-1.55,2.4-3.25-2-2.47-2.28-3.37A8,8,0,0,1,132,65Z" fill="#fff" stroke="#000" stroke-miterlimit="10" stroke-width="1.02"/><path d="M144.1,65.43a27.49,27.49,0,0,1,1.3,3.87,3.31,3.31,0,0,1-.77,2.72A3.84,3.84,0,0,1,142,73.54s-2.17-2.11-1.59-3.72,2.56-1.93,3-2.75a8.25,8.25,0,0,0,.66-2Z" fill="#fff" stroke="#000" stroke-miterlimit="10" stroke-width="1.02"/><path d="M122.27,75.48a29.62,29.62,0,0,1,3.52-2.06,3.29,3.29,0,0,1,2.81.22,3.85,3.85,0,0,1,2,2.31S129,78.5,127.3,78.24s-2.4-2.13-3.29-2.4a8.45,8.45,0,0,0-2.1-.26Z" fill="#fff" stroke="#000" stroke-miterlimit="10" stroke-width="1.02"/><path d="M139.25,63.45a27.7,27.7,0,0,1,1.24,3.88,3.29,3.29,0,0,1-.82,2.7,3.83,3.83,0,0,1-2.7,1.48s-2.14-2.15-1.51-3.75,2.59-1.88,3.06-2.69a8.15,8.15,0,0,0,.71-2Z" fill="#fff" stroke="#000" stroke-miterlimit="10" stroke-width="1.02"/><path d="M121.42,82.58a27.46,27.46,0,0,1,4-1,3.25,3.25,0,0,1,2.66,1,3.83,3.83,0,0,1,1.32,2.78s-2.27,2-3.82,1.3-1.73-2.71-2.52-3.21a8.28,8.28,0,0,0-2-.82Z" fill="#fff" stroke="#000" stroke-miterlimit="10" stroke-width="1.02"/><path d="M148.12,65.76a13.18,13.18,0,0,1-3.35,2.71c-1.91,1-2.3,3.78-2.3,3.78a7.74,7.74,0,0,0,0,2.93c.36,1,1.86,1.74,1.86,1.74s3.53-.36,4.19-3.18,0-3.48-.3-5A11.13,11.13,0,0,1,148.12,65.76Z" fill="#fff" stroke="#000" stroke-miterlimit="10" stroke-width="1.02"/><path d="M141.65,67.33a13.11,13.11,0,0,1-3.34,2.7c-1.92,1-2.3,3.78-2.3,3.78a7.9,7.9,0,0,0,0,2.93c.36,1,1.86,1.74,1.86,1.74s3.53-.36,4.19-3.17,0-3.48-.3-5A11.06,11.06,0,0,1,141.65,67.33Z" fill="#fff" stroke="#000" stroke-miterlimit="10" stroke-width="1.02"/><path d="M133,69.16a13.48,13.48,0,0,1-2.37,3.59c-1.51,1.55-1.05,4.3-1.05,4.3a7.61,7.61,0,0,0,.92,2.78,4.48,4.48,0,0,0,2.3,1.1s3.24-1.43,3-4.3-1.07-3.31-1.8-4.64A12,12,0,0,1,133,69.16Z" fill="#fff" stroke="#000" stroke-miterlimit="10" stroke-width="1.02"/><path d="M139.67,73a28.58,28.58,0,0,0-3.85,1.32,3.3,3.3,0,0,0-1.68,2.27,3.79,3.79,0,0,0,.43,3s3,.43,3.91-1,0-3.2.33-4A8.11,8.11,0,0,1,140,72.83Z" fill="#fff" stroke="#000" stroke-miterlimit="10" stroke-width="1.02"/><path d="M138.62,82a5.1,5.1,0,0,1-1.34,3.72,6.66,6.66,0,0,1-8.27,0A5.25,5.25,0,0,1,127.47,82,7.19,7.19,0,0,1,129,77.49a3.42,3.42,0,0,1,4.14-.1c1.19-.79,3.09-1,4,0S138.62,80.48,138.62,82Z" fill="#fff" stroke="#000" stroke-miterlimit="10" stroke-width="1.02"/><path d="M133.2,74.4s-1.19,2.21-.71,3.35h.8A11.48,11.48,0,0,1,134,75Z" fill="#fff" stroke="#000" stroke-miterlimit="10" stroke-width="1.02"/><path d="M149.33,77.12a4.22,4.22,0,0,1-.68,3.23,5.56,5.56,0,0,1-6.85,1,4.36,4.36,0,0,1-1.71-2.9,5.78,5.78,0,0,1,.77-3.85,2.88,2.88,0,0,1,3.42-.57c.91-.79,2.45-1.15,3.34-.46C149,74.27,149.17,75.91,149.33,77.12Z" fill="#fff" stroke="#000" stroke-miterlimit="10" stroke-width="1.02"/><path d="M144,71.5s-.73,2-.21,2.86l.66-.09a9.6,9.6,0,0,1,.26-2.35Z" fill="#fff" stroke="#000" stroke-miterlimit="10" stroke-width="1.02"/><path d="M143,80.55a2.91,2.91,0,0,1-3.15,3.15c-1.74,0-3.27-1-3.14-3.15a3.3,3.3,0,0,1,3.24-3.15A3,3,0,0,1,143,80.55Z" fill="#fff" stroke="#000" stroke-miterlimit="10" stroke-width="1.02"/><path d="M162.39,66.44a25.88,25.88,0,0,1,.1,4.08A3.32,3.32,0,0,1,161,72.89a3.82,3.82,0,0,1-3,.66s-1.45-2.66-.4-4c1.16-1.51,1.25-1,2.25-2a12.23,12.23,0,0,1,2.66-1.47Z" fill="#fff" stroke="#000" stroke-miterlimit="10" stroke-width="1.02"/><path d="M167.45,83.76A23.74,23.74,0,0,1,166,86.83,2.85,2.85,0,0,1,164,88a2.94,2.94,0,0,1-2.39-.6s0-2.5,1.25-3.14c1.41-.7,1.27-.3,2.36-.64a9,9,0,0,1,2.44-.13Z" fill="#fff" stroke="#000" stroke-miterlimit="10" stroke-width="1.02"/><path d="M166.9,70.74a23.74,23.74,0,0,1-1.49,3.07,2.85,2.85,0,0,1-2,1.21,2.92,2.92,0,0,1-2.38-.6s0-2.5,1.25-3.14c1.4-.7,1.26-.3,2.35-.64a9.06,9.06,0,0,1,2.45-.13Z" fill="#fff" stroke="#000" stroke-miterlimit="10" stroke-width="1.02"/><path d="M165.74,91.07a23.6,23.6,0,0,1-2.66,2.14,2.73,2.73,0,0,1-2.31.23,2.93,2.93,0,0,1-1.9-1.55s1.06-2.27,2.47-2.3c1.57,0,1.28.27,2.42.42a8.71,8.71,0,0,1,2.25.93Z" fill="#fff" stroke="#000" stroke-miterlimit="10" stroke-width="1.02"/><path d="M152.85,105.16a22.51,22.51,0,0,1-.4-3.4,2.78,2.78,0,0,1,1-2.09,2.92,2.92,0,0,1,2.33-.79s1.36,2.11.65,3.32-.91.93-1.63,1.82a9.5,9.5,0,0,1-2,1.44Z" fill="#fff" stroke="#000" stroke-miterlimit="10" stroke-width="1.02"/><path d="M150.08,101.85a24.84,24.84,0,0,1,.28-3.41,2.78,2.78,0,0,1,1.44-1.84,2.93,2.93,0,0,1,2.44-.3s.91,2.35,0,3.38-1.08.73-2,1.45a9.07,9.07,0,0,1-2.23,1Z" fill="#fff" stroke="#000" stroke-miterlimit="10" stroke-width="1.02"/><path d="M152.33,64.56a26.22,26.22,0,0,0-1.23,3.88,3.28,3.28,0,0,0,.81,2.7,3.91,3.91,0,0,0,2.71,1.48s2.14-2.16,1.51-3.75-1.61-2-2.07-2.83a9.26,9.26,0,0,0-1.69-1.84Z" fill="#fff" stroke="#000" stroke-miterlimit="10" stroke-width="1.02"/><path d="M150.58,66.73A27,27,0,0,0,149,70.49a3.3,3.3,0,0,0,.6,2.76,3.81,3.81,0,0,0,2.58,1.68s2.3-2,1.81-3.62-1.45-2.15-1.84-3a9.37,9.37,0,0,0-1.53-2Z" fill="#fff" stroke="#000" stroke-miterlimit="10" stroke-width="1.02"/><path d="M156.67,65a27.7,27.7,0,0,1,1.24,3.88,3.35,3.35,0,0,1-.82,2.71,3.89,3.89,0,0,1-2.7,1.48s-2.14-2.16-1.51-3.75c.69-1.79.92-1.33,1.62-2.53a12.09,12.09,0,0,1,2.14-2.16Z" fill="#fff" stroke="#000" stroke-miterlimit="10" stroke-width="1.02"/><path d="M161.11,103.16a24.13,24.13,0,0,1-2.51-2.3A2.81,2.81,0,0,1,158,98.6a2.89,2.89,0,0,1,1.25-2.11s2.4.7,2.66,2.1-.07,1.31,0,2.44a9.13,9.13,0,0,1-.57,2.37Z" fill="#fff" stroke="#000" stroke-miterlimit="10" stroke-width="1.02"/><circle cx="162.11" cy="93.66" r="1.7" fill="#fff" stroke="#000" stroke-miterlimit="10" stroke-width="1.02"/><circle cx="163.71" cy="82.85" r="1.7" fill="#fff" stroke="#000" stroke-miterlimit="10" stroke-width="1.02"/><circle cx="156.87" cy="73.29" r="1.7" fill="#fff" stroke="#000" stroke-miterlimit="10" stroke-width="1.02"/><circle cx="157.51" cy="76.11" r="1.7" fill="#fff" stroke="#000" stroke-miterlimit="10" stroke-width="1.02"/><circle cx="155.06" cy="77.85" r="1.7" fill="#fff" stroke="#000" stroke-miterlimit="10" stroke-width="1.02"/><circle cx="159.32" cy="75.49" r="1.7" fill="#fff" stroke="#000" stroke-miterlimit="10" stroke-width="1.02"/><circle cx="150.58" cy="73.12" r="1.7" fill="#fff" stroke="#000" stroke-miterlimit="10" stroke-width="1.02"/><circle cx="160.57" cy="78.01" r="1.7" fill="#fff" stroke="#000" stroke-miterlimit="10" stroke-width="1.02"/><circle cx="148.55" cy="74.23" r="1.7" fill="#fff" stroke="#000" stroke-miterlimit="10" stroke-width="1.02"/><circle cx="151.45" cy="75.97" r="1.7" fill="#fff" stroke="#000" stroke-miterlimit="10" stroke-width="1.02"/><circle cx="153.38" cy="73.09" r="1.7" fill="#fff" stroke="#000" stroke-miterlimit="10" stroke-width="1.02"/><circle cx="154.99" cy="80.37" r="1.7" fill="#fff" stroke="#000" stroke-miterlimit="10" stroke-width="1.02"/><circle cx="157.43" cy="80.44" r="1.7" fill="#fff" stroke="#000" stroke-miterlimit="10" stroke-width="1.02"/><circle cx="153.42" cy="85.7" r="1.7" fill="#fff" stroke="#000" stroke-miterlimit="10" stroke-width="1.02"/><circle cx="156.87" cy="83.11" r="1.7" fill="#fff" stroke="#000" stroke-miterlimit="10" stroke-width="1.02"/><circle cx="155.85" cy="85.94" r="1.7" fill="#fff" stroke="#000" stroke-miterlimit="10" stroke-width="1.02"/><circle cx="153.42" cy="91.59" r="1.7" fill="#fff" stroke="#000" stroke-miterlimit="10" stroke-width="1.02"/><circle cx="155.38" cy="93.08" r="1.7" fill="#fff" stroke="#000" stroke-miterlimit="10" stroke-width="1.02"/><circle cx="155.78" cy="89.23" r="1.7" fill="#fff" stroke="#000" stroke-miterlimit="10" stroke-width="1.02"/><circle cx="155.58" cy="89.32" r="0.55" fill="#fff" stroke="#000" stroke-miterlimit="10" stroke-width="1.02"/><circle cx="159.47" cy="80.44" r="1.7" fill="#fff" stroke="#000" stroke-miterlimit="10" stroke-width="1.02"/><circle cx="164.42" cy="74.7" r="1.7" fill="#fff" stroke="#000" stroke-miterlimit="10" stroke-width="1.02"/><circle cx="164.65" cy="77.42" r="1.7" fill="#fff" stroke="#000" stroke-miterlimit="10" stroke-width="1.02"/><circle cx="162.19" cy="78.41" r="1.7" fill="#fff" stroke="#000" stroke-miterlimit="10" stroke-width="1.02"/><circle cx="165.05" cy="80.42" r="1.7" fill="#fff" stroke="#000" stroke-miterlimit="10" stroke-width="1.02"/><circle cx="161.91" cy="80.9" r="1.7" fill="#fff" stroke="#000" stroke-miterlimit="10" stroke-width="1.02"/><circle cx="162.03" cy="85.09" r="1.7" fill="#fff" stroke="#000" stroke-miterlimit="10" stroke-width="1.02"/><circle cx="160.71" cy="83.76" r="1.7" fill="#fff" stroke="#000" stroke-miterlimit="10" stroke-width="1.02"/><circle cx="159.21" cy="83.14" r="1.7" fill="#fff" stroke="#000" stroke-miterlimit="10" stroke-width="1.02"/><circle cx="158.28" cy="85.9" r="1.7" fill="#fff" stroke="#000" stroke-miterlimit="10" stroke-width="1.02"/><circle cx="160.1" cy="87.02" r="1.7" fill="#fff" stroke="#000" stroke-miterlimit="10" stroke-width="1.02"/><circle cx="161.04" cy="89.52" r="1.7" fill="#fff" stroke="#000" stroke-miterlimit="10" stroke-width="1.02"/><circle cx="160.93" cy="91.86" r="1.7" fill="#fff" stroke="#000" stroke-miterlimit="10" stroke-width="1.02"/><circle cx="157.24" cy="88.02" r="1.7" fill="#fff" stroke="#000" stroke-miterlimit="10" stroke-width="1.02"/><circle cx="158.91" cy="90.07" r="1.7" fill="#fff" stroke="#000" stroke-miterlimit="10" stroke-width="1.02"/><circle cx="156.07" cy="91.37" r="1.7" fill="#fff" stroke="#000" stroke-miterlimit="10" stroke-width="1.02"/><circle cx="158.45" cy="92.82" r="1.7" fill="#fff" stroke="#000" stroke-miterlimit="10" stroke-width="1.02"/><circle cx="153.79" cy="94.61" r="1.7" fill="#fff" stroke="#000" stroke-miterlimit="10" stroke-width="1.02"/><circle cx="153.97" cy="97.13" r="1.7" fill="#fff" stroke="#000" stroke-miterlimit="10" stroke-width="1.02"/><circle cx="154.61" cy="99.03" r="1.7" fill="#fff" stroke="#000" stroke-miterlimit="10" stroke-width="1.02"/><circle cx="156.56" cy="95.04" r="1.7" fill="#fff" stroke="#000" stroke-miterlimit="10" stroke-width="1.02"/><circle cx="159.32" cy="94.23" r="1.7" fill="#fff" stroke="#000" stroke-miterlimit="10" stroke-width="1.02"/><circle cx="162.38" cy="95.48" r="1.7" fill="#fff" stroke="#000" stroke-miterlimit="10" stroke-width="1.02"/><circle cx="155.38" cy="101.23" r="1.7" fill="#fff" stroke="#000" stroke-miterlimit="10" stroke-width="1.02"/><circle cx="156.7" cy="103.66" r="1.7" fill="#fff" stroke="#000" stroke-miterlimit="10" stroke-width="1.02"/><circle cx="153.14" cy="70.21" r="1.7" fill="#fff" stroke="#000" stroke-miterlimit="10" stroke-width="1.02"/><circle cx="159.44" cy="99.69" r="1.7" fill="#fff" stroke="#000" stroke-miterlimit="10" stroke-width="1.02"/><circle cx="155.94" cy="70.74" r="1.7" fill="#fff" stroke="#000" stroke-miterlimit="10" stroke-width="1.02"/><circle cx="162.7" cy="87.94" r="1.7" fill="#fff" stroke="#000" stroke-miterlimit="10" stroke-width="1.02"/><circle cx="159.86" cy="72.98" r="1.7" fill="#fff" stroke="#000" stroke-miterlimit="10" stroke-width="1.02"/><circle cx="161.84" cy="75.39" r="1.7" fill="#fff" stroke="#000" stroke-miterlimit="10" stroke-width="1.02"/><circle cx="149.5" cy="76.99" r="1.7" fill="#fff" stroke="#000" stroke-miterlimit="10" stroke-width="1.02"/><circle cx="157.85" cy="77.87" r="1.7" fill="#fff" stroke="#000" stroke-miterlimit="10" stroke-width="1.02"/><circle cx="154.4" cy="75.46" r="1.7" fill="#fff" stroke="#000" stroke-miterlimit="10" stroke-width="1.02"/><circle cx="154.2" cy="83.34" r="1.7" fill="#fff" stroke="#000" stroke-miterlimit="10" stroke-width="1.02"/><circle cx="153.81" cy="88.6" r="1.7" fill="#fff" stroke="#000" stroke-miterlimit="10" stroke-width="1.02"/><circle cx="156.24" cy="97.78" r="1.7" fill="#fff" stroke="#000" stroke-miterlimit="10" stroke-width="1.02"/><circle cx="157.47" cy="99.59" r="1.67" fill="#fff" stroke="#000" stroke-miterlimit="10" stroke-width="1.02"/><circle cx="158.1" cy="101.76" r="1.67" fill="#fff" stroke="#000" stroke-miterlimit="10" stroke-width="1.02"/><circle cx="158.06" cy="96.74" r="1.7" fill="#fff" stroke="#000" stroke-miterlimit="10" stroke-width="1.02"/><circle cx="160.5" cy="97.37" r="1.7" fill="#fff" stroke="#000" stroke-miterlimit="10" stroke-width="1.02"/><path d="M115,173.36a1.9,1.9,0,0,1-.56-1.28,3.19,3.19,0,0,1,.14-.89l1.8-1.41.39-.27a1.59,1.59,0,0,1,.33.63,1.66,1.66,0,0,1,.07,1l-.15.2a6.21,6.21,0,0,1-.63.9c-.18.28-.51.68-.74,1.05l-.34.51Z" fill="#fff" stroke="#000" stroke-miterlimit="10" stroke-width="1.02"/><path d="M114.08,167.87a3.78,3.78,0,0,1-.29-1.82,2.87,2.87,0,0,1,.16-.87l0-.18.28-.1c.66-.32,1.22-.67,1.65-.92l.86-.51.26.52a4,4,0,0,1,0,2.49l-.16,0-.23.19s-1.08.76-1.87,1.29l-.49.26Z" fill="#fff" stroke="#000" stroke-miterlimit="10" stroke-width="1.02"/><path d="M113.92,164.36a4.3,4.3,0,0,1-.17-1.16,4,4,0,0,1,.17-1.12l.24-.53.17-.09a16.21,16.21,0,0,1,2.48-1.09l.54-.13.1.45a4.29,4.29,0,0,1-.56,2.7l0,.1-.19.06a17,17,0,0,1-1.79,1l-.81.45Z" fill="#fff" stroke="#000" stroke-miterlimit="10" stroke-width="1.02"/><path d="M114.41,170.79a1.82,1.82,0,0,1-.39-1,6,6,0,0,1,.2-1.19l.07-.34s.49-.28.66-.4a8.38,8.38,0,0,0,1.08-.69l1-.7.07,1.26a5.46,5.46,0,0,1-.2,1.76l-2.21,1.68Z" fill="#fff" stroke="#000" stroke-miterlimit="10" stroke-width="1.02"/><path d="M118.33,183.91a1.87,1.87,0,0,1-.68-.85,6.68,6.68,0,0,1-.17-1.19l0-.33L118,181c.27-.35.63-.66.82-1l.68-1,.46,1.18a5.52,5.52,0,0,1,.35,1.72l-1.58,2.27Z" fill="#fff" stroke="#50d6cc" stroke-miterlimit="10" stroke-width="0.72"/><path d="M113.77,159.65a3.6,3.6,0,0,1,.31-1.41l.2-.21a35.91,35.91,0,0,1,3.43-1.5l.5-.18.08.53a4.31,4.31,0,0,1-1.2,3.35l-.2.1a13.39,13.39,0,0,0-2.11.79l-.53.21A9.61,9.61,0,0,1,113.77,159.65Z" fill="#fff" stroke="#000" stroke-miterlimit="10" stroke-width="1.02"/><path d="M114.77,150.4a3.84,3.84,0,0,1,1-2.71l.12,0a27.23,27.23,0,0,1,6.12-1.87l.57.09,0,.25a5.53,5.53,0,0,1-1.79,2.91l-.26.16a26.28,26.28,0,0,0-5,2l-.33.16A2,2,0,0,1,114.77,150.4Z" fill="#fff" stroke="#000" stroke-miterlimit="10" stroke-width="1.02"/><path d="M114.35,154.26a2.71,2.71,0,0,1,0-1.13,2.65,2.65,0,0,1,.56-1.35l.2-.35.11-.06a38.28,38.28,0,0,1,5.1-2.08l.56-.13.09.46a3.57,3.57,0,0,1-.89,3l-.1.12-.14,0a17.82,17.82,0,0,0-4.69,1.81l-.55.28Z" fill="#fff" stroke="#000" stroke-miterlimit="10" stroke-width="1.02"/><path d="M114,156.68a2.47,2.47,0,0,1,.37-1.48l.36-.32a15.47,15.47,0,0,1,4.73-2l.53-.09a1.8,1.8,0,0,1,0,.83,4.37,4.37,0,0,1-1.56,2.69l-.46.17a12.3,12.3,0,0,0-2.76,1.11l-.66.34A5,5,0,0,1,114,156.68Z" fill="#fff" stroke="#000" stroke-miterlimit="10" stroke-width="1.02"/><path d="M121.56,129a4.85,4.85,0,0,1,0-1.77,7.25,7.25,0,0,1,2.48-3.78l.22-.19a35.38,35.38,0,0,1,6-2c3.39-.66,8.4-1.81,11.42-2.72l.76-.22v.79c0,2-1.64,3.9-4.74,5.86,0,0-6.44,1.32-8.65,1.54a17.28,17.28,0,0,0-6.43,2.28l-.77.45Z" fill="#fff" stroke="#000" stroke-miterlimit="10" stroke-width="1.02"/><path d="M124.24,122.63a2.66,2.66,0,0,1-.22-1.19,5.69,5.69,0,0,1,.7-3.06,3.79,3.79,0,0,1,1.48-1.58c2-1.2,8.08-2.82,9.86-3.09,1.21-.19,6.69-1.43,9.52-2.26l.63-.19.1.65c.42,2.59-.29,4.45-2.17,5.72l-.24.09c-.18.13-.64.5-4.3,1.42-2.47.63-5.71,1.44-9.34,2.15a29.49,29.49,0,0,0-5.26,1.63l-.51.23Z" fill="#fff" stroke="#000" stroke-miterlimit="10" stroke-width="1.02"/><path d="M126.09,116a2.53,2.53,0,0,1-.4-1.77c0-.1,0-.21,0-.33a5.93,5.93,0,0,1,1.71-3.35l.2-.13c.08,0,7-2.47,9.7-2.84a59.49,59.49,0,0,0,11.47-3.41l.59-.28.2.63c1.22,3.78-1.36,5.63-3.4,6.69l-.16.09c-2.4.76-8.51,2.19-10,2.4a45.65,45.65,0,0,0-9,2.63l-.55.2Z" fill="#fff" stroke="#000" stroke-miterlimit="10" stroke-width="1.02"/><path d="M127.74,110.16a3.17,3.17,0,0,1-1.08-2.07c0-.22,0-.43,0-.66a4.53,4.53,0,0,1,.61-2.29l.2-.21a30.7,30.7,0,0,1,7.17-3.12c.85-.25,1.71-.46,2.56-.64,5.41-1.06,11.28-2.78,13.35-3.9l.71-.39.13.6a7.2,7.2,0,0,1-.77,5,6,6,0,0,1-1.25,1.47l-.07.11-.1.06a58.18,58.18,0,0,1-11.83,3.57,66,66,0,0,0-9,2.51l-.3.1Z" fill="#fff" stroke="#000" stroke-miterlimit="10" stroke-width="1.02"/><path d="M127.58,104.51a3.18,3.18,0,0,1-1.27-2.27,3.92,3.92,0,0,1-.06-.78,6.41,6.41,0,0,1,.3-1.89l.23-.31.32-.11a37.8,37.8,0,0,1,9.73-3.85c2.7-.52,12.38-3,15.1-5l.67-.49.22.81a6.16,6.16,0,0,1-1.37,6.05c-.14.23-.33.27-.48.37-1.79,1.09-8.21,3-13.74,4.11a30.23,30.23,0,0,0-4.64,1.32,31.62,31.62,0,0,0-4.23,1.94l-.55.26Z" fill="#fff" stroke="#000" stroke-miterlimit="10" stroke-width="1.02"/><path d="M126.39,93.76a17.89,17.89,0,0,1,10.06-4.66,56.5,56.5,0,0,0,13.94-3.89A10.43,10.43,0,0,0,152,84.3l.63-.47.24.76a5.56,5.56,0,0,1,.26,1,7.39,7.39,0,0,1-.56,4.07v.05l-.05.12h0c-1,1.68-11.51,4.69-15.62,5.46a35.45,35.45,0,0,0-8.78,3.34l-1.19.52a6.61,6.61,0,0,1-.88-2.58A6.1,6.1,0,0,1,126.39,93.76Z" fill="#fff" stroke="#000" stroke-miterlimit="10" stroke-width="1.02"/><path d="M147.89,86.26a61.42,61.42,0,0,1-11.44,2.87A18.84,18.84,0,0,0,127.27,93l-.63.37-.52-.76a4,4,0,0,1-.91-2.85c0-.11,0-.23,0-.34a4.14,4.14,0,0,1,.56-1.78,2.88,2.88,0,0,1,.2-.35l.36-.31c-.06,0,1-.68,1-.68.66-.52,3.35-2.31,9.77-3.61,2.53-.5,12.33-2.94,15.12-5l.67-.49.22.81c.67,2.43.63,4.21-.12,5.42l-.11.23c-.62.9-3,1.89-5,2.6" fill="#fff" stroke="#000" stroke-miterlimit="10" stroke-width="1.02"/><path d="M115.3,174a17.92,17.92,0,0,1,1.87-2.64s.12,1.75.48,2.09a10.62,10.62,0,0,0-1.71,2.68,2.28,2.28,0,0,1-.71-2Z" fill="#fff" stroke="#000" stroke-miterlimit="10" stroke-width="1.02"/><path d="M48.79,116.09s-18.53-1.72-19.92-1.81-5.4-.5-6.61-.5a26.14,26.14,0,0,0-4.31.5c-1.5.4-7.39,2-9.29,3,0,0-5.49,4.3-7.28,4.91,0,0,0,1.29,2,1.19s4-1.9,5.2-2.5,5.49-1.21,6.51-.71c.4.2-1.61.91-2.32,1.41s-2.7,1.6-2.7,2.5.91.69,1.6.69,4.5-2.3,4.5-2.3,6.09.61,10.29-2.28c0,0,8,2.47,15.39,4.6,6.25,1.79,13.09,3.49,14,4a1,1,0,0,0,1.52-.73c.41-1.58.13-4.87-2.54-9.67a10.44,10.44,0,0,0-1.72-1.32C52.08,116.39,48.79,116.09,48.79,116.09Z" fill="#fff" stroke="#000" stroke-linecap="round" stroke-linejoin="round" stroke-width="1.02"/><path d="M133.92,129.82a9.93,9.93,0,0,1-1.52,1.07s-.91,4.5-3.68,5.31c0,0-.91,4-3.42,4.75,0,0-.45,2.88-1.71,3.42a45.77,45.77,0,0,1-.27,6.2c-.36,2.33-4.95,20-4.95,20S115,177.17,115,178s.72,3.42.81,4.76a9.93,9.93,0,0,1-.81,3.42s.09,1.08,1,.91a3.65,3.65,0,0,0,2.07-2.79c-.08-.81.09-2.88.72-2.88s2.07,2.61,2.6,3.42-.9,4.5-.72,4.95a1.48,1.48,0,0,0,2.25,0c.71-.91,2.24-.81,1.43-5.75,0,0,2.52-3.51,2.35-5.22s-2.25-4.67-2.16-6.38,5.58-12.21,8.81-20.2,4.67-11.59,4.86-13.57-.55-5.83-.36-6.91Z" fill="#fff" stroke="#000" stroke-linecap="round" stroke-linejoin="round" stroke-width="1.02"/><path d="M119.74,186.17a1.93,1.93,0,0,1-.94-1,3.11,3.11,0,0,1-.14-.89l1.06-1.48.29-.37a1.46,1.46,0,0,1,.5.5c.25.39.44.36.48.83l-.07.25a2.71,2.71,0,0,1-.23.74c-.1.32-.28.81-.38,1.23l-.16.57Z" fill="#fff" stroke="#000" stroke-linecap="round" stroke-linejoin="round" stroke-width="1.02"/><path d="M127.12,190.28a7.4,7.4,0,0,1-1.27-.13.52.52,0,0,1-.15-.06c-.17-.06-.79-.2-1-.26l-.24-.06a10.43,10.43,0,0,1-4.14-3.2c-.07-.15-.23-.43.66-2.37a.51.51,0,0,1,.29-.25h.1a.46.46,0,0,1,.25.08,12.61,12.61,0,0,1,1.44,1.5c.88,1,2.09,2.37,2.79,2.5a10.77,10.77,0,0,0,1.44.19,1.38,1.38,0,0,0,1.3-.88l.06-.58-.13.42h0c-.08,0-.14,0-.15.09a1.06,1.06,0,0,1-.92.7.87.87,0,0,1-.75-.63.9.9,0,0,1-.14-.76,3,3,0,0,1,1.32-1.54,1.24,1.24,0,0,1,.59-.16,1.29,1.29,0,0,1,.37.06,2.83,2.83,0,0,1,1.88,1.82,2.28,2.28,0,0,1-.56,2.2A3.85,3.85,0,0,1,127.12,190.28Z" fill="#fff"/><path d="M121.36,184.37c1,.75,3.09,3.84,4.41,4.07a10.24,10.24,0,0,0,1.51.2h.13a1.79,1.79,0,0,0,1.6-1.17.56.56,0,0,0-.36-.7.58.58,0,0,0-.19,0,.56.56,0,0,0-.54.37.64.64,0,0,1-.51.41c-.23,0-.34-.39-.43-.54-.29-.41.6-1.33,1.06-1.58a.81.81,0,0,1,.39-.1.74.74,0,0,1,.25,0,2.43,2.43,0,0,1,1.59,1.53,1.82,1.82,0,0,1-.47,1.79,3.32,3.32,0,0,1-2.66,1.19,5.76,5.76,0,0,1-1.19-.13,11.08,11.08,0,0,0-1.34-.36,10.51,10.51,0,0,1-3.89-3,6.28,6.28,0,0,1,.64-2m0-.86-.21,0a.86.86,0,0,0-.58.47c-1,2.14-.79,2.49-.65,2.76a11.11,11.11,0,0,0,4.39,3.42l.29.07.92.23a.85.85,0,0,0,.24.09,6.68,6.68,0,0,0,1.36.14,4.18,4.18,0,0,0,3.32-1.48,2.72,2.72,0,0,0,.65-2.6,3.21,3.21,0,0,0-2.18-2.11,1.66,1.66,0,0,0-.49-.07,1.75,1.75,0,0,0-.79.2,3.39,3.39,0,0,0-1.53,1.81,1.37,1.37,0,0,0,.16,1,1.5,1.5,0,0,1,.09.18c-.13,0-.27,0-.45-.07-.56-.1-1.84-1.56-2.53-2.35a11.49,11.49,0,0,0-1.49-1.56.75.75,0,0,0-.52-.18Z"/><path d="M116,147a5,5,0,0,1-.09-.93,3.55,3.55,0,0,1,1.34-2.72l.24-.08a59.42,59.42,0,0,1,7.3-2.16l.52-.1v.43c0,1.37-1.08,2.62-1.92,3.61l-.67.85-.46,0a.86.86,0,0,0-.23,0,19.22,19.22,0,0,0-5.33,1.54l-.53.22Z" fill="#fff" stroke="#000" stroke-miterlimit="10" stroke-width="1.02"/><path d="M117.57,141.07a5.27,5.27,0,0,1,1.09-1.83l.55-.24a69.9,69.9,0,0,1,8.66-2.63l.59-.07v.39c0,2.19-2.27,3.78-3,4.21l-.44.2-.19,0a31,31,0,0,0-6.7,2l-.59.25A3.32,3.32,0,0,1,117.57,141.07Z" fill="#fff" stroke="#000" stroke-miterlimit="10" stroke-width="1.02"/><path d="M118.89,138.48a6.7,6.7,0,0,1,1.7-4.35l.13-.09c.33-.13,8.32-3.07,11.12-3.29l.56,0v.46a7,7,0,0,1-3.8,5l-.31.13-.2,0a56,56,0,0,0-8.54,2.52l-.65.19Z" fill="#fff" stroke="#000" stroke-miterlimit="10" stroke-width="1.02"/><path d="M120.9,133.62a1.92,1.92,0,0,1-.21-1,7.56,7.56,0,0,1,.73-3s.72-.49,1.12-.7a22.57,22.57,0,0,1,6.54-2.49L137.3,125l0,.43c0,1.43-1.5,3-2.77,4l-.85.59a8.06,8.06,0,0,1-.93.46l-.37.17-.25.08c-2.28.05-8.69,2.35-10.6,3.05l-.44.12Z" fill="#fff" stroke="#000" stroke-miterlimit="10" stroke-width="1.02"/><path d="M83.28,54.67a17.93,17.93,0,0,0,2.84,9.38c1.76,2.71,4.19,5.65,6.86,5.65,3.38,0,5.79-3.29,7.37-6.16a19.81,19.81,0,0,0,2.33-8.87,17.51,17.51,0,0,0-2.85-9.9c-1.75-2.53-4.18-4.1-6.85-4.1s-5.1,1.57-6.86,4.1A17.51,17.51,0,0,0,83.28,54.67Z" fill="#fff" stroke="#000" stroke-miterlimit="10" stroke-width="1.02"/><path d="M93.22,62.89a5.16,5.16,0,0,1,1.3-.1c1,0,1.92.07,1.72-.26-1.36-.16-1.55-.78-2.31-.75A8.16,8.16,0,0,0,93,62h.1a8.68,8.68,0,0,0-.92-.18c-.76,0-1,.59-2.32.75-.2.33.67.36,1.73.26a3.55,3.55,0,0,1,1.29.1Z"/><path d="M92.33,64.37c-.36-.06-.59-.16-.59-.29s0-.08.09-.11a2.83,2.83,0,0,0,1.29.23,2.78,2.78,0,0,0,1.3-.23s.08.08.08.11-.26.23-.64.29c.46.06.71.17.71.3s0,.09-.18.15a4.41,4.41,0,0,0-1.34-.16,5,5,0,0,0-1.25.11c-.14,0-.19-.07-.19-.14S91.83,64.43,92.33,64.37Z"/><path d="M90.33,50.7a4.36,4.36,0,0,0-2.81-.77,4.56,4.56,0,0,0-2.47,1.2c-.29.38.13.22.13.22a6.29,6.29,0,0,1,1.78-.7,3.66,3.66,0,0,1,2.57.5c.5.36,1.06.59,1.18.33S90.33,50.7,90.33,50.7Z"/><path d="M89.37,52.73a.82.82,0,0,1,.16.49.88.88,0,0,1-1.75,0,.74.74,0,0,1,.17-.5,1.38,1.38,0,0,1,.69-.16A1.75,1.75,0,0,1,89.37,52.73Z"/><path d="M88.05,52a2.41,2.41,0,0,1,2.54,1.35l-.08-.07a3,3,0,0,0-2.65-1.2h-.31l0,0A2.77,2.77,0,0,1,88.05,52Z"/><circle cx="88.62" cy="53.23" r="0.24"/><path d="M90.74,53.74s-.09-.13-.09-.13a3.44,3.44,0,0,0-.53-.55,3.3,3.3,0,0,0-1.19-.57,3.16,3.16,0,0,0-1.31.14c-.27.09-.69.4-.91.5s-.17.17-.4.16-.19.22,0,.23.32.19.56.39a2.42,2.42,0,0,0,.72.34,3.35,3.35,0,0,0,.9.15,4.65,4.65,0,0,0,1.1-.22,3,3,0,0,1,.59-.24c.08,0,.25,0,.25,0a1.31,1.31,0,0,0-.36,0,5.09,5.09,0,0,1-1.48.32,3.13,3.13,0,0,1-1.48-.41c-.3-.21-.41-.3-.41-.34s.1-.06.23-.13a5.44,5.44,0,0,1,1.16-.63,2.13,2.13,0,0,1,1.17,0,6.72,6.72,0,0,1,1,.6C90.48,53.51,90.74,53.74,90.74,53.74Z"/><path d="M95.45,50.7a4.42,4.42,0,0,1,2.82-.77,4.63,4.63,0,0,1,2.47,1.2c.29.38-.13.22-.13.22a6.16,6.16,0,0,0-1.78-.7,3.64,3.64,0,0,0-2.57.5c-.51.36-1.07.59-1.2.33S95.45,50.7,95.45,50.7Z"/><path d="M92.84,59.9a.83.83,0,0,0,.66-.27s0,0,0,0,.2-.11.33-.11.17,0,.23,0h0v0l0,.07a.37.37,0,0,0,.23.1h0c.42,0,.75-.19.71-.79a1.14,1.14,0,0,0-.46-.86,1,1,0,0,1,.17.46,2.85,2.85,0,0,1,0,.33c0,.4,0,.56-.36.61-.14,0-.2-.17-.22-.17a.35.35,0,0,0-.36-.2c-.18,0-.33.07-.35.17h0c-.09.25-.36.33-.71.33h0c-.34,0-.62-.08-.7-.33h0c0-.1-.19-.17-.36-.17a.37.37,0,0,0-.36.2s-.06.17-.2.17c-.33,0-.36-.21-.36-.61a2.85,2.85,0,0,1,0-.33,1.28,1.28,0,0,1,.17-.46,1.14,1.14,0,0,0-.46.86c0,.6.29.79.7.79h0a.37.37,0,0,0,.23-.1.43.43,0,0,1,0-.07v0h0c.06-.06.15,0,.23,0s.28,0,.34.11,0,0,0,0a.86.86,0,0,0,.68.27Z"/><path d="M96.41,52.73a.81.81,0,0,0-.15.49.88.88,0,0,0,1.75,0,.8.8,0,0,0-.17-.5,1.43,1.43,0,0,0-.71-.16A1.78,1.78,0,0,0,96.41,52.73Z"/><path d="M97.75,52a2.41,2.41,0,0,0-2.54,1.35l.08-.07a2.93,2.93,0,0,1,2.65-1.2h.31l0,0A3.25,3.25,0,0,0,97.75,52Z"/><circle cx="97.16" cy="53.23" r="0.24"/><path d="M95.05,53.74s.08-.13.08-.13a3.65,3.65,0,0,1,.54-.55,3.38,3.38,0,0,1,1.19-.57,3.19,3.19,0,0,1,1.31.14,8.26,8.26,0,0,1,.9.5c.1,0,.17.17.4.16s.19.22,0,.23-.32.19-.56.39a2.54,2.54,0,0,1-.72.34,3.44,3.44,0,0,1-.91.15,4.36,4.36,0,0,1-1.09-.22,3,3,0,0,0-.59-.24c-.09,0-.26,0-.26,0a1.42,1.42,0,0,1,.36,0,5.27,5.27,0,0,0,1.48.32,3.06,3.06,0,0,0,1.48-.41c.3-.21.42-.3.42-.34s-.1-.06-.23-.13a5.3,5.3,0,0,0-1.17-.63,2.1,2.1,0,0,0-1.16,0,5.85,5.85,0,0,0-1,.6C95.31,53.51,95.05,53.74,95.05,53.74Z"/><path d="M103.08,41.18S98.14,35.8,93.7,35.8s-7.26,1.44-8.81,3.71-2.65,3-3.77,4.67c-1.39,2.1-1.66,6.35-2.38,7.9s-.36,2.47.13,4.92A6.75,6.75,0,0,0,80,61.24a26.23,26.23,0,0,0,.78,3.95s-1,1.08-1.6,5a22.83,22.83,0,0,0-4.73,4.73,15.68,15.68,0,0,0-8,6.83c0,.36,4.24-3.45,7.68-2.59,3.46-.24,3.55-.86,5.4-2.35l2.3-1.24c1.09-.58,2.26-1.35,2.5-2,0,0,2.52-4.79,2-8.74-.11-.6-2-4.78-2-9.1s-.34-5.77,1.31-7.5a4.71,4.71,0,0,0,2.37-2.51s3.71-.29,4.67-3.77c0,0,1.91,3.37,3.77,3.29,0,0,2.33,3.44,3.89,2.89,0,0-.07,2.09,1.25,2.92,0,0,.41,6.71-.67,9.94s-1,9.59,1.12,13.18c0,0,1.55,1.08,2.4,1A4.59,4.59,0,0,0,107.13,77c1.33.34,2.92,0,5.61,1.49,2.47,1.32,6.88,3.61,6.88,3.61s-3.14-5.35-6.35-5.86c0,0-1.52-4-4.24-4.4,0,0-.46-3.22-1.79-4.07A4,4,0,0,1,107,66a15.31,15.31,0,0,0,.14-7.18s1.36-1.69.69-6.2c0,0,.44-2.83-.4-3.81a5.43,5.43,0,0,1-1.92-4A4.67,4.67,0,0,0,103.08,41.18Z" fill="#fff" stroke="#000" stroke-miterlimit="10" stroke-width="1.02"/><path d="M101.14,35.53a11.06,11.06,0,0,0,2.13,4.27,5.3,5.3,0,0,1,1.19,2.09,5.61,5.61,0,0,1,.19,2.38c-.12.64-.38,1.1-.79,1.22s-.88-.15-1.3-.65a5.88,5.88,0,0,1-1-2.13,5.32,5.32,0,0,1,0-2.41A17,17,0,0,0,101.14,35.53Z" fill="#fff" stroke="#000" stroke-miterlimit="10" stroke-width="1.02"/><path d="M108.59,40.08a17.22,17.22,0,0,0,.43,6,5.54,5.54,0,0,1,.28,2.38,5.78,5.78,0,0,1-.74,2.26c-.35.56-.78.87-1.2.82s-.74-.48-.94-1.11a5.65,5.65,0,0,1-.13-2.37,5.3,5.3,0,0,1,.9-2.23A34.94,34.94,0,0,0,108.59,40.08Z" fill="#fff" stroke="#000" stroke-miterlimit="10" stroke-width="1.02"/><path d="M106.59,36a14,14,0,0,0,.87,6.07,5.69,5.69,0,0,1,.45,2.37,5.86,5.86,0,0,1-.6,2.3c-.32.57-.72.92-1.14.89s-.77-.42-1-1a6,6,0,0,1-.29-2.35,5.57,5.57,0,0,1,.77-2.29A37.49,37.49,0,0,0,106.59,36Z" fill="#fff" stroke="#000" stroke-miterlimit="10" stroke-width="1.02"/><path d="M103.83,33.19A19.7,19.7,0,0,0,105.34,39a5.53,5.53,0,0,1,.87,2.24,5.62,5.62,0,0,1-.15,2.37c-.2.63-.54,1-1,1.09s-.83-.27-1.19-.83a5.44,5.44,0,0,1-.4-4.64A28.51,28.51,0,0,0,103.83,33.19Z" fill="#fff" stroke="#000" stroke-miterlimit="10" stroke-width="1.02"/><path d="M99.33,30A18.9,18.9,0,0,0,102,35.5a6.77,6.77,0,0,1,1.33,2.3,7.07,7.07,0,0,1,.33,2.6c-.07.72-.31,1.22-.72,1.34s-.89-.16-1.35-.72a6.79,6.79,0,0,1-1.18-2.35,6.68,6.68,0,0,1-.17-2.65A28.23,28.23,0,0,0,99.33,30Z" fill="#fff" stroke="#000" stroke-miterlimit="10" stroke-width="1.02"/><path d="M105,42.57a8.6,8.6,0,0,0,2.08,4.12,5.64,5.64,0,0,1,1,2.19,5.52,5.52,0,0,1,0,2.37c-.16.63-.48,1.08-.89,1.15a1.38,1.38,0,0,1-1.24-.75,5.7,5.7,0,0,1-.86-2.21,5.6,5.6,0,0,1,.16-2.4A17.67,17.67,0,0,0,105,42.57Z" fill="#fff" stroke="#000" stroke-miterlimit="10" stroke-width="1.02"/><path d="M103.53,38.57A11,11,0,0,0,105.29,43a5.67,5.67,0,0,1,1,2.18,5.55,5.55,0,0,1,0,2.38c-.16.63-.47,1.07-.89,1.15s-.86-.22-1.24-.75a5.7,5.7,0,0,1-.86-2.21,5.59,5.59,0,0,1,.16-2.4A16,16,0,0,0,103.53,38.57Z" fill="#fff" stroke="#000" stroke-miterlimit="10" stroke-width="1.02"/><path d="M96,33.07a14.15,14.15,0,0,0,3.91,3.72,5.46,5.46,0,0,1,1.85,1.54,5.65,5.65,0,0,1,1,2.16,1.43,1.43,0,0,1-.31,1.42,1.37,1.37,0,0,1-1.43-.15,5.53,5.53,0,0,1-1.73-1.62,5.35,5.35,0,0,1-.87-2.24A22.61,22.61,0,0,0,96,33.07Z" fill="#fff" stroke="#000" stroke-miterlimit="10" stroke-width="1.02"/><path d="M84.82,36a11.06,11.06,0,0,1-2.13,4.27,5.3,5.3,0,0,0-1.19,2.09,5.45,5.45,0,0,0-.19,2.38c.11.64.37,1.1.79,1.22s.88-.15,1.29-.65a5.73,5.73,0,0,0,1-2.13,5.32,5.32,0,0,0,0-2.41A15.9,15.9,0,0,1,84.82,36Z" fill="#fff" stroke="#000" stroke-linecap="square" stroke-linejoin="round" stroke-width="1.02"/><path d="M77.37,40.54a17.22,17.22,0,0,1-.43,6,5.69,5.69,0,0,0-.29,2.38,5.94,5.94,0,0,0,.75,2.26c.35.56.78.87,1.19.82s.75-.48,1-1.11a5.65,5.65,0,0,0,.13-2.37,5.3,5.3,0,0,0-.9-2.23A33.93,33.93,0,0,1,77.37,40.54Z" fill="#fff" stroke="#000" stroke-linecap="square" stroke-linejoin="round" stroke-width="1.02"/><path d="M79.36,36.5a14.11,14.11,0,0,1-.88,6.07A5.89,5.89,0,0,0,78,44.94a5.6,5.6,0,0,0,.61,2.3c.31.57.72.92,1.13.89s.78-.42,1-1a5.88,5.88,0,0,0,.29-2.36,5.72,5.72,0,0,0-.76-2.29A37.49,37.49,0,0,1,79.36,36.5Z" fill="#fff" stroke="#000" stroke-linecap="square" stroke-linejoin="round" stroke-width="1.02"/><path d="M82.11,33.66a20.08,20.08,0,0,1-1.5,5.82,5.45,5.45,0,0,0-.88,2.24,5.59,5.59,0,0,0,.16,2.37c.2.64.53,1,1,1.09s.83-.27,1.19-.83a5.47,5.47,0,0,0,.72-2.25,5.34,5.34,0,0,0-.32-2.39A28.56,28.56,0,0,1,82.11,33.66Z" fill="#fff" stroke="#000" stroke-linecap="square" stroke-linejoin="round" stroke-width="1.02"/><path d="M86.61,30.5A19.12,19.12,0,0,1,84,36a6.88,6.88,0,0,0-1.34,2.3,7.09,7.09,0,0,0-.33,2.6c.07.72.32,1.23.72,1.34s.89-.16,1.35-.72a6.6,6.6,0,0,0,1.35-5A30.11,30.11,0,0,1,86.61,30.5Z" fill="#fff" stroke="#000" stroke-linecap="square" stroke-linejoin="round" stroke-width="1.02"/><path d="M80.94,43a8.69,8.69,0,0,1-2.09,4.12,5.64,5.64,0,0,0-1,2.19,5.35,5.35,0,0,0,0,2.37c.15.63.47,1.08.89,1.15s.86-.22,1.23-.75a5.46,5.46,0,0,0,.71-4.61A16.74,16.74,0,0,1,80.94,43Z" fill="#fff" stroke="#000" stroke-linecap="square" stroke-linejoin="round" stroke-width="1.02"/><path d="M82.42,39.05a11,11,0,0,1-1.77,4.42,5.64,5.64,0,0,0-1,2.19,5.52,5.52,0,0,0,0,2.37c.16.63.48,1.08.89,1.15a1.38,1.38,0,0,0,1.24-.75,5.5,5.5,0,0,0,.7-4.61A15.68,15.68,0,0,1,82.42,39.05Z" fill="#fff" stroke="#000" stroke-linecap="square" stroke-linejoin="round" stroke-width="1.02"/><path d="M90,33.53A14.43,14.43,0,0,1,86,37.25,5.42,5.42,0,0,0,83.18,41a1.4,1.4,0,0,0,.3,1.42,1.39,1.39,0,0,0,1.44-.15,5.61,5.61,0,0,0,1.72-1.62,5.52,5.52,0,0,0,.88-2.24A23.6,23.6,0,0,1,90,33.53Z" fill="#fff" stroke="#000" stroke-linecap="square" stroke-linejoin="round" stroke-width="1.02"/></svg>