<svg xmlns="http://www.w3.org/2000/svg" width="600" height="315.79" viewBox="0 0 600 315.79"><path fill="#bf0a30" d="M0 0h600v315.79H0z"/><path fill="#fff" d="M0 24.29h600v24.29H0zM0 72.87h600v24.29H0zM0 121.46h600v24.29H0zM0 170.04h600v24.29H0zM0 218.62h600v24.29H0zM0 267.21h600v24.29H0z"/><path fill="#002664" d="M0 0h203.11v170.04H0z"/><path fill="#fff" d="M25.12 18.44l2.71 6.19 1.44-6.6 6.73-.67-5.83-3.41 1.44-6.6-5.04 4.49-5.84-3.41 2.72 6.19-5.05 4.49 6.72-.67zM56.38 30.34l2.38 6.32 1.79-6.51 6.75-.3-5.64-3.73 1.8-6.51-5.28 4.21-5.63-3.72 2.37 6.33-5.28 4.21 6.74-.3zM80.86 18.89l6.44 2.05-4-5.44 3.93-5.49-6.41 2.13-4-5.44.04 6.75-6.41 2.13 6.44 2.05.04 6.75 3.93-5.49zM104.77 15.18l5.37 4.1-1.93-6.48 5.56-3.83-6.75-.17-1.93-6.47-2.24 6.37-6.76-.16 5.37 4.1-2.25 6.37 5.56-3.83zM125.62 15.28l-3.88 5.53 6.39-2.2 4.06 5.4-.11-6.75 6.39-2.2-6.46-1.98-.11-6.75-3.88 5.53-6.46-1.98 4.06 5.4zM148.23 29.07l1.59 6.56 2.57-6.24 6.74.52-5.14-4.38 2.57-6.25-5.75 3.54-5.15-4.38 1.59 6.57-5.75 3.54 6.73.52zM157.33 44.03zM163.77 41.99l-6.44 2.04 6.41 2.14-.05 6.75 4.01-5.43 6.41 2.14-3.93-5.5 4.02-5.43-6.45 2.03-3.92-5.49-.06 6.75zM177.65 63.73l-2.29-6.36-1.88 6.49-6.75.22 5.59 3.79-1.88 6.49 5.33-4.15 5.59 3.8-2.29-6.36 5.33-4.14-6.75.22zM180.05 88.61l-.02-6.76-3.95 5.48-6.43-2.06 3.99 5.45-3.96 5.48 6.42-2.11 3.99 5.45-.02-6.76 6.41-2.1-6.43-2.07zM167.99 116.86l1.93 6.48 2.24-6.37 6.76.16-5.37-4.1 2.24-6.37-5.56 3.83-5.36-4.1 1.93 6.47-5.56 3.84 6.75.16zM157.08 130.19l-3.47-5.79-.6 6.72-6.59 1.51 6.22 2.65-.61 6.73 4.44-5.09 6.22 2.65-3.47-5.79 4.44-5.1-6.58 1.51zM137.61 145.37l-1.63-6.55-2.53 6.26-6.74-.46 5.18 4.34-2.53 6.26 5.73-3.58 5.17 4.34-1.64-6.56 5.73-3.58-6.74-.47zM65.15 144.27l-2.79-6.15-1.36 6.61-6.71.76 5.88 3.33-1.36 6.62 4.99-4.56 5.87 3.34-2.79-6.15 4.98-4.56-6.71.76zM47.13 130.19l-.62-6.72-3.46 5.8-6.58-1.5 4.45 5.08-3.46 5.81 6.2-2.67 4.45 5.09-.61-6.73 6.21-2.66-6.58-1.5zM30.4 115.86l2.64 6.22 1.52-6.58 6.73-.59-5.79-3.48 1.53-6.58-5.1 4.43-5.79-3.48 2.63 6.22-5.1 4.42 6.73-.58zM22.72 98.33l4.17-5.32 6.34 2.32-3.77-5.6 4.17-5.32-6.49 1.85-3.77-5.6-.25 6.74-6.49 1.85 6.34 2.33-.25 6.75zM29.3 69.58l5.37 4.11-1.93-6.47 5.56-3.84-6.75-.17-1.93-6.47-2.25 6.37-6.75-.17 5.37 4.11-2.25 6.37 5.56-3.84zM39.23 40.59l-6.43-2.07 3.99 5.45-3.95 5.48 6.42-2.11 3.99 5.45-.03-6.76 6.42-2.11-6.44-2.06-.03-6.76-3.94 5.49zM114.96 153.91l.96-6.68-4.71 4.84-6.06-2.99 3.15 5.98-4.71 4.84 6.66-1.15 3.14 5.98.97-6.69 6.66-1.14-6.06-2.99zM89.94 155.42l3.74-5.62-6.33 2.35-4.19-5.3.28 6.75-6.34 2.35 6.51 1.82.28 6.75 3.74-5.62 6.5 1.82-4.19-5.3zM70.7 42.08l-4.65 4.9-6.1-2.91L63.18 50l-4.65 4.9 6.64-1.23 3.22 5.94.88-6.7 6.65-1.23-6.1-2.91.88-6.69zM90.87 34.66l-3.96-5.46-.01 6.75-6.43 2.08 6.42 2.1v6.75l3.97-5.46 6.43 2.09-3.97-5.47 3.98-5.46-6.43 2.08zM113.09 33.28l-6.6-1.42 4.51 5.03-3.39 5.84 6.17-2.73 4.52 5.03-.7-6.73 6.18-2.73-6.61-1.42-.69-6.72-3.39 5.85zM128.05 49.23l6.6 1.42.7 6.72 3.39-5.84 6.6 1.42-4.51-5.03 3.39-5.84-6.18 2.73-4.51-5.03.7 6.72-6.18 2.73zM144.74 76.88l5.43-4 5.5 3.93-2.14-6.41 5.44-4-6.76.05-2.13-6.45-2 6.44-6.76.05 5.5 3.93zM148.32 96.91l2.84 6.13 1.3-6.63 6.71-.81-5.91-3.29 1.31-6.63-4.95 4.6-5.9-3.29 2.84 6.13-4.95 4.6 6.71-.81zM136.83 106.55l-1.74 6.53-6.74.36 5.67 3.67-1.74 6.53 5.24-4.26 5.67 3.67-2.43-6.3 5.24-4.26-6.74.36-2.43-6.3zM117.33 120.26l-3.91 5.51-6.45-2.01 4.04 5.42-3.91 5.51 6.4-2.16 4.04 5.41-.08-6.75 6.4-2.17-6.45-2.01-.08-6.75zM55.41 69.66l-2.08-6.43-2.09 6.43-6.76-.01 5.47 3.98-2.1 6.42 5.47-3.97 5.46 3.98-2.08-6.43 5.47-3.96-6.76-.01zM51.24 100.66l1.96 6.46 2.22-6.38 6.75.14-5.38-4.08 2.22-6.38-5.55 3.86-5.38-4.09 1.95 6.47-5.54 3.86 6.75.14zM68.6 109.14l-3.4 5.84-6.6-1.42 4.51 5.03-3.4 5.84 6.18-2.73 4.51 5.03-.69-6.71 6.18-2.74-6.61-1.42-.68-6.72zM95.84 123.21l-6.21 2.66-4.46-5.07.63 6.72-6.21 2.67 6.59 1.49.62 6.73 3.45-5.81 6.59 1.49-4.46-5.08 3.46-5.8zM174.58 18.09l1.68 6.54s1.31-3.32 2.49-6.28l6.74.42-5.21-4.3 2.48-6.29-5.7 3.63-5.2-4.31 1.68 6.55-5.7 3.62zM179.66 154.44l-3.17-5.97-.95 6.68-6.65 1.17 6.07 2.97-.96 6.69 4.7-4.86 6.07 2.98-3.16-5.97 4.7-4.86-6.65 1.17zM27.57 155.16l-1-6.69-3.16 6-6.65-1.17 4.7 4.86-3.16 6 6.07-3 4.7 4.85-1-6.69 6.07-3z"/></svg>