<svg xmlns="http://www.w3.org/2000/svg" width="550" height="433" viewBox="0 0 550 433"><title>flag-connecticut</title><path d="M0,.38H550V432.62H0V.38Z" fill="#0c2d83"/><polygon points="305.48 342.61 310.4 356.3 330.05 359.69 343.33 336.08 305.48 342.61" fill="#fff"/><path d="M264.42,80.08c1.62,6.36,14.77,5.9,17.65,5.67h0l12.12-3.47-.35.2C297.53,92,311.6,97.31,323,97.19c11.19-.11,18.58-3.7,23.07-10.17-3.92-4.16-5-5.44-4.49-12.72a8.52,8.52,0,0,1,7.95-7.74c4.62-.12,8.54,3.58,11.89,6.82,5.3,5.08,9.45,11.09,15.22,15.6,5.31,4.4,11.19,4.28,16,7.63,5.19,3.7,10.95,9.6,13.26,15.49,2,5.09-1.61,10.52-5,10.52-3.81,0-7.84-3.35-7.15-6.47-6.69-5-19.61,5.66-22.72,17.11-4.16,14.91,2.19,31,9.8,37.45-2.42,6.36-10.84,11.68-15.23,15.72-1.61,5.9.7,14.11,5.66,17.8,5.88.93,15.68.7,22,1.16,2.88,1,2.31,5,3.11,8,1,3.93,3,8.44,2.43,12.71-2,13.3-6.12,24.62-18.69,33.29a85.45,85.45,0,0,1-19.61,10.18c-3.35-3-6.35-7.4-10-9.13-11.88-.24-26.41,5.89-30.45,14.56-2,4.28,3.11,8.9,8.88,13.64-12.11,8.79-26.41,13.18-39.68,19.19-4.5,2.08-8.54,5.09-15.23,12.83-6.92-8.32-10.49-11.91-16.95-14.91-11.42-5.2-25.15-8.21-33.8-17.11,5.3-3.12,8.53-5.66,9.34-10.52-7.38-9.36-16-19.3-27.45-22.19-3.81,1.5-8.65,8.2-11.65,13.17-28.15-5.89-51-37-36.22-62.65,3.23,1.27,8,3.58,11.88,1.5,7.38-4.62,16.15-10.52,16.72-19.19-.23-8.32-6.57-14.21-14.07-18,5-3.58,10.38-16.3,10.73-25.43.35-8.55-4.38-16.42-8.88-23.7-2.08-3.58-6.92-6.82-9.81-7.86-1.27,2-6.34,6.36-10.15,6.59s-9.34-3-9.34-6.94c0-3,1.27-7.74,4.73-9.82,9.46-5.78,20.53-9.6,29.18-16.53,5.19-4.28,7.61-11.91,13-16.3,2.07-1.62,4.38-3.35,6.57-3.93,5.59,23.44,13.91,26.27,25.58,30.23,12.8,1.51,29.79-3.87,40.86-16.94Z" fill="#c4c4c4"/><rect x="260.37" y="63.53" width="32.91" height="22.88" fill="#129612"/><path d="M244.73,80.17c0,.49,1.61,1.09,4.5,1.09a64.59,64.59,0,0,1,7.19.48c2.26.36,2.88-.26,2.18-1C257.54,79.57,244.73,79,244.73,80.17Z"/><path d="M302.25,80.17l-2.88,1.29,6.59.35c3.53,0,6.91-.52,6.91-.88s-1.25-.89-2.66-.89a9.79,9.79,0,0,1-3.72-.7c-.78-.35-2.47,0-4.24.83Z"/><path d="M276.31,53.54a29.82,29.82,0,0,1-2.82,3.67A5.83,5.83,0,0,0,272.15,60c0,1.14-.21,1-.77-.63-1.27-3.46-2.26-4-4.58-2.83a17.51,17.51,0,0,1-4.45,1.49,6.61,6.61,0,0,0-3.24,1.34c-.35.56-2.39,1.13-4.37,1.27-4.16.35-6.2,1.48-11.56,6.29a7.55,7.55,0,0,1-3.1,2c-1.34,0-1.27.42.56,2.47,1,1.13,2,1.62,2.75,1.41a1.52,1.52,0,0,1,1.69.35,3.65,3.65,0,0,0,2.33.78c1.55.07,1.41.21-1,.85a14.15,14.15,0,0,0-5.78,4c-3.24,3.46-3.59,4.3-1.69,4.3a3.36,3.36,0,0,1,2.12.85c.42.43,2.46.85,4.51.92,3.24.07,3.73.35,3.94,1.63.29,2,1.2,2,5.86-.15,4.93-2.19,8-4.59,10.64-8.12,2-2.83,2.11-4.31.21-4.31-1.34,0-2.18-3.39-1.27-4.87,1.13-1.84,4.37-1.84,6.28,0,1.55,1.48,1.83,1.48,4.58.63,2.54-.85,3.1-.85,5.14.28,2.33,1.28,2.4,1.28,4.16-.56,2-2,4.59-2.4,6-1,1.19,1.2,1.05,4.73-.22,5.23s-1.34,1.91.07,4.66c1.56,3,4.09,5,9.24,7.56s5.71,2.61,6.48.64c.43-1.28,1.13-1.56,4.23-1.63,2-.07,4-.49,4.45-.92a3.34,3.34,0,0,1,2.11-.85c2,0,1.55-1.2-1.62-4.45A15.93,15.93,0,0,0,310,74.8c-2.4-.64-2.54-.78-1-.85a3.63,3.63,0,0,0,2.33-.78,1.52,1.52,0,0,1,1.69-.35c.77.21,1.76-.28,2.75-1.41,1.83-2,1.9-2.47.56-2.47a8,8,0,0,1-3.1-2c-4.72-4.52-7.89-6.08-13.25-6.36-.5-.07-1-.78-1.2-1.55-.35-1.28-.78-1.42-2.75-1.06a34.94,34.94,0,0,1-3.74.56,11.1,11.1,0,0,0-3.87,1.77c-2.47,1.62-3.46,1.27-3.53-1.2,0-.57-1.13-2.34-2.47-3.82A14.27,14.27,0,0,1,280,51.84c0-1.41-2.19-.35-3.67,1.7Zm4.51,3.16a12.92,12.92,0,0,1,3,3.83c1,3.25,2,3.72,5.41,1.88a13.23,13.23,0,0,1,4.45-1.66,4.2,4.2,0,0,0,2.54-.91c1.41-1.41,1.25-.56.12,3.12-1.62,5.37.17,1.53-4.06-.94-.14-.14-1.68,3.45-1,2.68s1.15-1.85.94-2.06c-.42-.42-6.94,3.7-8.13,5.33-.85,1.13-.64,1.2-2.54.21s-2-.94-2-6.45c0-3.32-.66-5.68-1.08-5.68s-.74,2.62-.74,5.94c0,5.44-.1,5.29-1.86,5.92-2.46,1-3.37,1-3,0s-5.39-7.07-6.17-6.36c-.21.28.16,1.77,1,2.69A4,4,0,0,1,269,66c0,.14-.88-.05-2.5.09-2.47.14-2.92.29-4.26-1.27a7.49,7.49,0,0,1-1.51-2.31c0-1.06,2.65-2.48,4.13-2.48.85,0,1.37-.34,1.37-.69s.55-.94,1.18-1.15c1.34-.49,2.79,1.56,2.79,3.4a2,2,0,0,0,1,1.65c.84.71,1.53.77,2.16-.85.36-1,.77-2.08.77-2.22a9.71,9.71,0,0,1,1.88-2.4,8.76,8.76,0,0,0,2.23-2.9c0-1.06.14-.68,2.61,1.79Zm-22.13,6.77c0,1.9-2.11,3.14-5.36,3.14-2.39,0-5.78,1.55-5.78,2.54,0,.35.62.62,1.33.34a18.24,18.24,0,0,1,3.17-.83c1.69-.28,1.79-.3,1.79,1.25a9.42,9.42,0,0,1-.48,2.72c-.5,1.21-2.9,1.41-2.9.28,0-.42-1-.64-2.15-.64s-1.88-.36-1.88-.78-.85-.61-1.84-.33c-2.46.64-2.4-.45-.42-2.42,3.59-3.54,6.67-5.42,9.84-6,5-.85,4.68-1,4.68.72Zm44.91.05c3.53.57,11,5.72,10,7.2-.28.35-.57.43-1.55.21s-1.75,0-1.75.5-.75.78-1.94.78-2.44,0-2.44.42c0,1.41-2,1.14-2.43-.49s1.8-2.55,3.23-2.92c2.32.14,4.48-.42,4.48-.7,0-.85-2.11-1.34-5.71-1.34a11,11,0,0,1-5.28-1.12,10.11,10.11,0,0,1-1.7-1.1c-.07,0-.23-.54.05-1.39.29-1.13.32-1.43,1.45-1.21.77.21,2.62.72,3.89.93Zm-41.53,4.07c2.26,2.12,1.7,3.21-1.82,3.28l-3.18.33,2.73,1.12c1.55.43,3.82.93,4.95,1.84l2,1.63L264.47,77c-2.75,1.34-3.06.85-6.16-.28-1.41-.49-2.26-.81-2.05-1.37a1.07,1.07,0,0,0-.27-1.26c-1.19-.78-.25-3.87,1.87-5.78a12.3,12.3,0,0,1,2.43-1.92,4.07,4.07,0,0,1,1.78,1.21Zm37,.93c1.62,1.48,2.26,3.55,1.9,6.66-.14,1.27-2.86,2.65-5.33,2.65-2,0-4.83-2-4.12-3.1.21-.43,2.19-1.26,4-2.46,2.12-1.42,2.85-2.89,2-2.89a4.73,4.73,0,0,0-2.79,1.15c-1.83,1.62-1.26.52.65-1.67s1.48-2.32,3.66-.34Zm-45,9.52c.42.63,2.66,1.52,5,1.73,3.81.42,3.95,0,2.82,1.25-.7.77-3.2,2-5.53,3.11-3.87,2-4.06,2.19-4.35,1.06-.35-1.83-1.53-2.33-4.14-1.9-2.26.42-6.8-.72-6.8-1.71s3.73-4.39,5.14-4.74c2.25-.71,7,.07,7.88,1.2Zm59.37,1.2c1.12,1.27,2.08,2.1,2.08,2.38,0,1.13-4,2-6.64,1.58s-4,.18-4.11,2c0,.35-.37.51-1.15.44-2-.36-7.36-3.4-8.7-4.89-1-1.13-1.19-.63,2.54-1,2.26-.21,4.35-.85,4.56-1.27.84-1.34,3.63-2,6.59-1.64A6.58,6.58,0,0,1,313.5,79.24Z"/><path d="M278,54.77a17.67,17.67,0,0,1-2.15,2.76,10,10,0,0,0-2.45,3.74c-.69,2.08-1.1,2.62-1.71,2.26A5.78,5.78,0,0,1,270,60.44c-.56-2.27-2.45-3.12-3.78-1.68a3.15,3.15,0,0,1-1.71,1A6.22,6.22,0,0,0,261,61.63a4.1,4.1,0,0,0-.66,1,9.51,9.51,0,0,0,1.15,1.65c1.6,2.06,2.22,2.34,5.1,2.21a8.2,8.2,0,0,0,2.58-.28c.11-.1-.05-.52-.35-.9-1.31-1.6-2.1-3-1.84-3.25.48-.49,4.59,3.32,5.56,5.18a2.58,2.58,0,0,1,.31,1.08c0,.44.15.54.77.54,1.15,0,3.55-1,3.88-1.62a28.63,28.63,0,0,0,.48-5.34c.18-4.66.31-5.67.77-5.67s.49,1.32.72,6.22a37.73,37.73,0,0,0,.41,4.87A6.94,6.94,0,0,0,283,69.1c.41,0,1.2-.54,2.32-1.62a38.13,38.13,0,0,1,3.86-3.1c3-2,3.47-2,1.91.24a6.64,6.64,0,0,0-.89,1.54c0,.42,2.43,1.47,3.34,1.47A1.74,1.74,0,0,0,295,67c.64-.75,2.07-4.95,2.32-6.78.18-1.29-.07-1.42-1.17-.62a7.54,7.54,0,0,1-2.43.91A26.91,26.91,0,0,0,289.35,62c-3.7,1.65-4.24,1.58-5.13-.8a15.16,15.16,0,0,0-1.1-2.29c-.72-1.16-4.24-4.77-4.65-4.77-.15,0-.38.28-.51.62Z" fill="#129612"/><path d="M254.1,62.55c-3,.6-5.92,2.22-9.09,5.08-1.79,1.63-2.65,2.86-2.45,3.43.13.36.41.41,1.76.26s1.61-.1,2,.36.87.62,2,.77,1.79.39,2.1.78a2,2,0,0,0,2.35.25c.71-.25,1.17-1.52,1.17-3.27,0-2.09-.46-2.27-3.45-1.34a8.18,8.18,0,0,1-2.32.44c-.59-.08-.61-.1-.23-.65.56-.8,2.83-1.57,5.52-1.88,3.88-.44,5.33-1.39,5.33-3.48V62.14l-1.45,0a19.7,19.7,0,0,0-3.25.38Z" fill="#129612"/><path d="M298.7,62.45a4.15,4.15,0,0,0-.44,1c-.07.36-.23.83-.28,1.06-.15.54,1.94,1.93,3.63,2.45a33.11,33.11,0,0,0,4.57.59c3.25.23,4.86.62,4.86,1.19,0,.15-1.54.28-3.81.33a15.49,15.49,0,0,0-4.19.36c-.25.23-.31.62-.2,1.42.2,1.6.79,2.55,1.71,2.89s.87.38,1.58-.39a3.37,3.37,0,0,1,2.25-.88,3.24,3.24,0,0,0,2-.69c.25-.36.69-.47,2-.47,1.53,0,1.71-.05,1.79-.54.15-1.16-3.63-4.61-7.21-6.57-2.7-1.47-7.63-2.5-8.27-1.73Z" fill="#129612"/><path d="M258.8,67.17a9,9,0,0,0-3.52,5.23,2.05,2.05,0,0,0,.1,1.63,3.86,3.86,0,0,1,.36,1.31c0,.85.87,1.57,2.63,2.17,2.17.74,3.81.61,6.28-.55l2.15-1-1.13-1a15.92,15.92,0,0,0-6.13-3.12l-2.09-.59,2.35-.13c2.53-.15,3.6-.62,3.6-1.54,0-.62-2.53-3.3-3.09-3.3A4.93,4.93,0,0,0,258.8,67.17Z" fill="#129612"/><path d="M295.46,68.38c-1.23,1.37-2,2.73-1.82,3,.08.08.69-.23,1.36-.67,1.25-.85,2.29-1.23,2.55-1s-.69,1.14-2.73,2.6c-3.32,2.4-3.6,2.81-2.71,4a6.35,6.35,0,0,0,3.45,1.83,8.89,8.89,0,0,0,4.8-1.67c.94-.83.94-.83.92-2.86a6.79,6.79,0,0,0-2.4-5.62c-1.48-1.27-2-1.21-3.42.41Z" fill="#129612"/><path d="M246.16,76.58c-1.4.44-5.64,4.54-5.41,5.26.12.44,1.71,1.16,3.21,1.44a29.93,29.93,0,0,0,4,.26c2.94,0,3.53.23,4,1.67.23.7.43.91.92.91.74,0,6.69-3.05,8.2-4.21,1-.79,1.73-1.67,1.53-1.88a25.24,25.24,0,0,0-2.76-.49c-3.19-.49-4.19-.77-5.24-1.54a7.68,7.68,0,0,0-2.09-1,17.67,17.67,0,0,0-6.31-.41ZM254.23,80c2.89.36,4.57.9,4.57,1.5,0,.18-.35.23-1.07.1s-3.5-.28-6.46-.44a44,44,0,0,1-6-.54c-.66-.23-.51-.59.36-.8a43.46,43.46,0,0,1,8.58.18Z" fill="#129612"/><path d="M305.8,76.47a7.63,7.63,0,0,0-3.47,1.45c-.67.72-1.28.93-4.17,1.36-3.93.62-4.11.65-4.11.88,0,.85,4.93,4.13,8,5.34,2,.82,2.74.75,3.1-.34.48-1.42.66-1.49,4.59-1.65,3.17-.1,3.78-.2,4.88-.77a4.36,4.36,0,0,0,1.33-.88c.13-.41-2.58-3.58-3.53-4.15a14.37,14.37,0,0,0-1.68-.82A17,17,0,0,0,305.8,76.47Zm.64,3.23a24.39,24.39,0,0,0,3.42.59c2.48.28,3.24.72,1.79,1-.44.08-3.3.16-6.34.13l-5.51,0,1.4-.64A16.06,16.06,0,0,1,305,79.44a5.36,5.36,0,0,1,1.41.26Z" fill="#129612"/><path d="M229.15,288.72h0c10.21,12.39,37.93,13.47,45.73,28.15,11.88-15.76,37.32-17.68,52.2-29.83h0" fill="none" stroke="#d2d2d2" stroke-width="2.87"/><path d="M217.48,141.7c-1.73.69-4.16,1.15-4.62,3,.12.7,1.39.81,2.42.58-.11-1.27.23-1.73,1.85-1.39-.23-.69.23-1.38.35-2.19Z" fill="#b68c5b" stroke="#000" stroke-width="0.35"/><path d="M336.17,141.7c1.73.69,4.16,1.15,4.62,3-.12.7-1.39.81-2.42.58.11-1.27-.24-1.73-1.85-1.39.23-.69-.23-1.38-.35-2.19Z" fill="#b68c5b" stroke="#000" stroke-width="0.35"/><path d="M286,201.81c1.49.46,3.8,1,4.15,2.66,0,.69-1.16.69-2.19.57.11-1.15-.23-1.61-1.73-1.38.23-.58-.23-1.28-.23-1.85Z" fill="#b68c5b" stroke="#000" stroke-width="0.35"/><path d="M288.88,78.7c1.27,0,2.42.23,3.69.34,7.84,22.66,45.56,22.66,53.41,8-4-3.7-4.85-6.48-4.38-11.45.34-2.89,1-8.67,8.65-9,2.88-.12,4.73,1.85,5,10.17.57,13.53-16.27,27.4-32.19,26.47-11.07-.69-34.83-7.74-34.14-24.5Z" fill="#c4c4c4"/><path d="M241,177.76a11.74,11.74,0,0,0-1.62-4.27c0,.23-.92.46-.92.23a13.12,13.12,0,0,1,1.5,3.81,5.31,5.31,0,0,0,.92.35h0l.12-.12Zm1.15-40.46a11.73,11.73,0,0,0-1.61-4.27c0,.23-.93.46-.93.23a12.85,12.85,0,0,1,1.5,3.81,5.36,5.36,0,0,0,.93.35h0l.11-.12Zm-30.11,11.79a11.81,11.81,0,0,1,1.62-4.27c0,.23.92.46.92.23a13.12,13.12,0,0,0-1.5,3.81,5,5,0,0,1-.92.35h0l-.12-.12Z" fill="lime" stroke="#000" stroke-width="0.35"/><path d="M240.32,175.68a4,4,0,0,1,1.38.46c.92.93,2.77,2.89,2.77,4.17,0-.93,1-3.47.11-4.28-.57-.81-3.57-.93-4.26-.35Zm0,.46c-.58,0-1.16.7-1.5,1.28-.58,1.5-1.62,4.5-1,6-.46-1.27-2.77-3.47-2.31-5,.46-1.16,3.69-2.78,4.85-2.32Zm-.35-1a2.55,2.55,0,0,0-1.27,1.39c-.58,1.39-1.84,4.39-1,6-.57-1.27-2.77-3.47-2.42-5.08.35-1.28,3.81-2.78,4.73-2.32Zm1.5-39.88a4,4,0,0,1,1.38.46c.93.93,2.77,2.9,2.77,4.17,0-.93,1-3.47.12-4.28-.58-.81-3.58-.93-4.27-.35Zm0,.46c-.58,0-1.15.7-1.5,1.28-.58,1.5-1.62,4.51-1,6-.46-1.27-2.77-3.47-2.31-5,.47-1.16,3.7-2.78,4.85-2.32Zm-.35-1a2.55,2.55,0,0,0-1.27,1.39c-.57,1.39-1.84,4.39-1,6-.58-1.27-2.77-3.46-2.43-5.08.35-1.28,3.81-2.78,4.73-2.32ZM212.75,147a3.77,3.77,0,0,0-1.39.47c-.92.92-2.77,2.89-2.77,4.16,0-.93-1-3.47-.11-4.28.58-.81,3.57-.92,4.27-.35Zm0,.47c.57,0,1.15.69,1.5,1.27.57,1.5,1.61,4.51,1,6,.47-1.27,2.77-3.47,2.31-5-.46-1.16-3.69-2.78-4.84-2.31Zm.34-1a2.46,2.46,0,0,1,1.27,1.38c.58,1.39,1.85,4.4,1,6,.58-1.27,2.77-3.46,2.42-5.08-.34-1.27-3.8-2.78-4.73-2.31Z" fill="#7eff00" stroke="#000" stroke-width="0.35"/><path d="M240,175.22a2.84,2.84,0,0,0-1.5.92c-.69.93-2,3.24-1.15,4.17-.58-.93-3.23-2.43-2.77-3.47.46-.81,4.27-2,5.42-1.62Zm-.12.12a2.37,2.37,0,0,1,1.5,1.5c.58,1.27,1.73,4.39,1,5.89.58-1.15,2.77-3.35,2.42-5-.46-1.15-3.8-2.89-5-2.42Zm1.27-40.58a2.88,2.88,0,0,0-1.5.92c-.69.93-2,3.24-1.15,4.17-.58-.93-3.23-2.43-2.77-3.47.46-.81,4.27-2,5.42-1.62Zm-.11.12a2.4,2.4,0,0,1,1.5,1.5c.57,1.27,1.73,4.39,1,5.89.57-1.15,2.76-3.35,2.42-5-.46-1.15-3.81-2.89-5-2.42Zm-27.92,11.67a2.79,2.79,0,0,1,1.5.93c.69.92,2,3.23,1.16,4.16.57-.93,3.23-2.43,2.76-3.47-.46-.81-4.26-2-5.42-1.62Zm.12.12a2.4,2.4,0,0,0-1.5,1.5c-.58,1.27-1.73,4.39-1,5.89-.58-1.15-2.77-3.35-2.42-5,.46-1.15,3.8-2.89,5-2.42Z" fill="#7eff00" stroke="#000" stroke-width="0.12"/><path d="M313,177.76a11.73,11.73,0,0,1,1.61-4.27c0,.23.93.46.93.23a12.85,12.85,0,0,0-1.5,3.81,5.36,5.36,0,0,1-.93.35h0l-.11-.12Zm-1.16-40.46a11.74,11.74,0,0,1,1.62-4.27c0,.23.92.46.92.23a13.12,13.12,0,0,0-1.5,3.81,5,5,0,0,1-.92.35h0l-.12-.12Zm30.11,11.79a11.8,11.8,0,0,0-1.61-4.27c0,.23-.93.46-.93.23a12.85,12.85,0,0,1,1.5,3.81,5.36,5.36,0,0,0,.93.35h0l.11-.12Z" fill="lime" stroke="#000" stroke-width="0.35"/><path d="M313.68,175.68a4,4,0,0,0-1.38.46c-.93.93-2.77,2.89-2.77,4.17,0-.93-1-3.47-.12-4.28.58-.81,3.58-.93,4.27-.35Zm0,.46c.58,0,1.15.7,1.5,1.28.58,1.5,1.61,4.5,1,6,.46-1.27,2.77-3.47,2.3-5-.46-1.16-3.69-2.78-4.84-2.32Zm.35-1a2.5,2.5,0,0,1,1.26,1.39c.58,1.39,1.85,4.39,1,6,.58-1.27,2.77-3.47,2.43-5.08-.35-1.28-3.81-2.78-4.73-2.32Zm-1.5-39.88a4,4,0,0,0-1.39.46c-.92.93-2.77,2.9-2.77,4.17,0-.93-1-3.47-.11-4.28.57-.81,3.57-.93,4.27-.35Zm0,.46c.57,0,1.15.7,1.5,1.28.57,1.5,1.61,4.51,1,6,.47-1.27,2.77-3.47,2.31-5-.46-1.16-3.69-2.78-4.84-2.32Zm.34-1a2.51,2.51,0,0,1,1.27,1.39c.58,1.39,1.85,4.39,1,6,.58-1.27,2.77-3.46,2.42-5.08-.34-1.28-3.8-2.78-4.73-2.32ZM341.25,147a3.78,3.78,0,0,1,1.38.47c.93.92,2.77,2.89,2.77,4.16,0-.93,1-3.47.12-4.28-.58-.81-3.58-.92-4.27-.35Zm0,.47c-.58,0-1.15.69-1.5,1.27-.58,1.5-1.62,4.51-1,6-.46-1.27-2.77-3.47-2.31-5,.47-1.16,3.7-2.78,4.85-2.31Zm-.35-1a2.5,2.5,0,0,0-1.27,1.38c-.57,1.39-1.84,4.4-1,6-.58-1.27-2.77-3.46-2.43-5.08.35-1.27,3.81-2.78,4.73-2.31Z" fill="#7eff00" stroke="#000" stroke-width="0.35"/><path d="M314,175.22a2.92,2.92,0,0,1,1.5.92c.69.93,2,3.24,1.15,4.17.58-.93,3.23-2.43,2.77-3.47-.46-.81-4.27-2-5.42-1.62Zm.11.12a2.37,2.37,0,0,0-1.5,1.5c-.58,1.27-1.73,4.39-1,5.89-.57-1.15-2.77-3.35-2.42-5,.46-1.15,3.81-2.89,5-2.42Zm-1.27-40.58a2.84,2.84,0,0,1,1.5.92c.69.93,2,3.24,1.16,4.17.57-.93,3.23-2.43,2.76-3.47-.46-.81-4.26-2-5.42-1.62Zm.12.12a2.37,2.37,0,0,0-1.5,1.5c-.58,1.27-1.73,4.39-1,5.89-.58-1.15-2.77-3.35-2.42-5,.46-1.15,3.8-2.89,5-2.42Zm27.91,11.67a2.83,2.83,0,0,0-1.5.93c-.69.92-2,3.23-1.15,4.16-.58-.93-3.23-2.43-2.77-3.47.46-.81,4.27-2,5.42-1.62Zm-.11.12a2.42,2.42,0,0,1,1.5,1.5c.57,1.27,1.73,4.39,1,5.89.57-1.15,2.76-3.35,2.42-5-.46-1.15-3.81-2.89-5-2.42Z" fill="#7eff00" stroke="#000" stroke-width="0.12"/><path d="M262.58,237.06a11.8,11.8,0,0,1,1.61-4.27c0,.23.93.46.93.23a12.85,12.85,0,0,0-1.5,3.81,5.36,5.36,0,0,1-.93.35h0l-.11-.12Zm-1.15-40.45a11.78,11.78,0,0,1,1.61-4.28c0,.23.92.46.92.23a13.24,13.24,0,0,0-1.5,3.81,3.89,3.89,0,0,1-.92.35h0l-.11-.11Zm30.1,11.79a11.85,11.85,0,0,0-1.61-4.28c0,.23-.93.46-.93.23a12.9,12.9,0,0,1,1.5,3.82,4.52,4.52,0,0,0,.93.34h0l.11-.11Z" fill="lime" stroke="#000" stroke-width="0.35"/><path d="M263.27,235a3.78,3.78,0,0,0-1.38.47c-.93.92-2.77,2.89-2.77,4.16,0-.93-1-3.47-.12-4.28.58-.81,3.58-.92,4.27-.35Zm0,.47c.58,0,1.15.69,1.5,1.27.58,1.5,1.62,4.51,1,6,.46-1.27,2.77-3.47,2.31-5-.47-1.16-3.7-2.78-4.85-2.31Zm.35-1a2.5,2.5,0,0,1,1.27,1.38c.57,1.39,1.84,4.4,1,6,.58-1.27,2.77-3.46,2.43-5.08-.35-1.27-3.81-2.78-4.73-2.31Zm-1.5-39.89a3.83,3.83,0,0,0-1.39.47c-.92.92-2.77,2.89-2.77,4.16,0-.93-1-3.47-.11-4.28.58-.81,3.58-.92,4.27-.35Zm0,.47c.57,0,1.15.69,1.5,1.27.57,1.5,1.61,4.51,1,6,.47-1.27,2.77-3.47,2.31-5-.46-1.16-3.69-2.78-4.84-2.31Zm.34-1a2.5,2.5,0,0,1,1.27,1.38c.58,1.39,1.85,4.4,1,6,.58-1.27,2.77-3.46,2.42-5.08-.34-1.27-3.8-2.78-4.73-2.31Zm28.38,12.37a3.78,3.78,0,0,1,1.38.46c.93.92,2.77,2.89,2.77,4.16,0-.93,1-3.47.12-4.28-.58-.81-3.58-.92-4.27-.34Zm0,.46c-.58,0-1.15.69-1.5,1.27-.58,1.5-1.61,4.51-1,6-.46-1.27-2.77-3.47-2.3-5,.46-1.16,3.69-2.77,4.84-2.31Zm-.35-1a2.53,2.53,0,0,0-1.27,1.38c-.57,1.39-1.84,4.4-1,6-.58-1.28-2.77-3.47-2.43-5.09.35-1.27,3.81-2.77,4.73-2.31Z" fill="#7eff00" stroke="#000" stroke-width="0.35"/><path d="M263.62,234.52a2.83,2.83,0,0,1,1.5.93c.69.92,2,3.23,1.15,4.16.58-.93,3.23-2.43,2.77-3.47-.46-.81-4.27-2-5.42-1.62Zm.11.12a2.42,2.42,0,0,0-1.5,1.5c-.57,1.27-1.73,4.39-1,5.9-.57-1.16-2.76-3.36-2.42-5,.46-1.15,3.81-2.89,5-2.42Zm-1.27-40.58a2.79,2.79,0,0,1,1.5.93c.69.92,2,3.23,1.16,4.16.57-.93,3.23-2.43,2.76-3.47-.46-.81-4.26-2-5.42-1.62Zm.12.12a2.4,2.4,0,0,0-1.5,1.5c-.58,1.27-1.73,4.39-1,5.9-.58-1.16-2.77-3.36-2.42-5,.46-1.16,3.81-2.89,5-2.43Zm27.91,11.67a2.83,2.83,0,0,0-1.5.93c-.69.92-2,3.23-1.15,4.16-.58-.93-3.23-2.43-2.77-3.47.46-.81,4.27-2,5.42-1.62Zm-.11.12a2.4,2.4,0,0,1,1.5,1.5c.57,1.27,1.73,4.39,1,5.9.57-1.16,2.76-3.36,2.42-5-.46-1.16-3.81-2.89-5-2.43Z" fill="#7eff00" stroke="#000" stroke-width="0.12"/><path d="M338,342.15c-10.62,12.92-15.93,8.36-27.32,4.94s-23.52-9.12-34.52-11.78-38.32-4.57-55-5.33c-15.45-.71-20.82-6.94-21.24-11.78.11,0,4.91-1.26,14.92-.26s10.62.77,12.64-2.28a14.68,14.68,0,0,0,1.38-2.53,3.31,3.31,0,0,0,1.41-2.91c0-3.81-2.66-9.5-30-9.5-9.27,0-16.13-.32-21.36-.82L187,279c2.46-6.84-8.92-8-8.92-8-10.62,0-18.78.18-24.09-1.15-10-2.5-17.83-3.42-33-2.66s-27.31.76-47.8-5.32c1.9,7.8,17.07,18.43,17.07,18.43l-23.9,11,6.83,1.71c20.49,6.09,32.62,6.09,47.8,5.33,11.57-.58,18.87-.19,26.12,1.15l-5.29,17c9.58,10,16.23,15.19,46.44,18.09L182.48,342l1.26.25c10.88,15,16.94,19.76,42.24,20.28s36.93.25,56.4,9.12,28.4,12,43.83,7.41c0,0,.27.8,3.07-5.81,3.15-7.42,3.94-21.62,7-24.16s7.08-9.63,7.08-9.63L338,342.15" fill="#ffd300"/><path d="M407.83,307.8c3.28,1.52,6.83,2.53,17.45-.51s41.47-8.35,57.66-7.09c-6.32-5.57-23-13.94-23-13.94l16.94-13.94a38,38,0,0,1-10.37-1.27c-17.95-5.06-35.15.76-50.33,7.11-3,1.24-5.48,2.2-7.54,2.9L405,268.52s-6.17-4.51-20.81.4c-13.36,4.49-16.37,11.77-15.61,13.53s7.09,13.69,7.09,13.69l-.15.44A164.43,164.43,0,0,1,354,304.5c-25,7.61-30.6,11.14-52.86,27.38l5.82,13.94,10.81,4.86a24.29,24.29,0,0,0,6.13.55l1.07-.65c12.67-8.66,20.4-12.1,39.66-17.95,25-7.6,37.42-15,34.64-22.05l-4.29-11.66s5.56-3.29,7.84-2.28l5.06,11.15" fill="#ffd300"/><path d="M148.9,295.19l3-10.37c.42-2.54,4.39-4.11,15.5-2.49,7.68,1.12,13.81,2.35,17.28-.46l.16-.06c.46-4.95-6.5-4.47-6.5-4.47h-.19c-10.62,0-18.78.18-24.09-1.15-10-2.5-17.83-3.42-33-2.66-13.9.7-25.26.75-42.83-3.92,3.41,4.18,12.11,10.58,12.11,10.58l-17.08,8.17c20.49,6.08,32.63,6.08,47.8,5.32,12.54-.63,20-.11,27.93,1.49" fill="#fff"/><path d="M201.09,317.55a43.1,43.1,0,0,1,12.9.19c8.61,1.24,11.78.4,12.47-.7l-5.63,13s-21.89.25-20.88-12.17" fill="#fff"/><path d="M342.88,340.13l-4.55,6.5c-8.32,11.18-18.57,7.77-30.28,5-11.39-3.41-23.53-9.12-34.53-11.78s-38.31-4.56-55-5.33-21.63-8-21.25-12.93a5.59,5.59,0,0,1,.32-1.53l2.81-5,.42-.55c1.87-2.32,6.7-2.07,15-.87,5.31.75,8.91.85,11.19.27l.19-.66c0-3.8-2.27-8-29.59-8S164.08,302.61,158,300c-3.57-1.57-8.73-6.77-7.75-10.16l-6.16,20c10.37,10.91,15.37,16.48,47,19.52l-5.31,7.87c10.88,14.95,17,19.76,42.24,20.27s36.93.25,56.4,9.11,29.06,11.82,44.49,7.26" fill="#fff"/><path d="M152.43,287.75c1.41,3.06,5.52,6.44,8.23,7.63,4,1.78,8.17,3.54,18.55,4.53l0,0,5.94-16.14c-2.46,6.83-10.48,5-20.28,3.59" fill="#fff"/><path d="M405.8,302.22c3.29,1.53,6.83,2.54,17.45-.5s35.79-8.49,52-7.22l-16-7.67L471,277.38c-.72-.13-1.46-.3-2.23-.49-18-5.08-35.16.75-50.33,7.09s-16.95,5.07-19,2.78l-4.05-7.85s.25-3.55,3.29-4.82,3.54-1.52,3.54-1.52-3.29-4.56-15.94,0S372.92,283,373.17,284a20.86,20.86,0,0,0,5.06-1.26c2.53-1,8.61-4.56,10.38-.25s1.76,5.19,1.76,5.19c2.79,7.09-9.86,14.06-34.9,21.66s-30.1,10.65-52.36,26.87l3.55,9.63,11.61,3.61c15.83-11.25,22.94-14.79,44.54-21.35,25-7.6,37.43-14.95,34.64-22.05l-4-11.15s4.55-4.05,7.34-3.05l5.05,10.4" fill="#fff"/><path d="M157.2,309.82c-1.14,1.57-1.28,3.72.53,4.88A2.54,2.54,0,0,0,159,315l-.26-2.79,2,1.08.15,1.48a4.31,4.31,0,0,0,2-1.58c1.11-1.52,1.18-3.86-.47-4.92s-4-.1-5.19,1.52l-1.83-1.33c1.91-2.64,5.52-3.73,8.29-1.95s3,5.31,1.08,8a7.41,7.41,0,0,1-3.61,2.69l.19,2.37-2-1-.08-1.2a5.19,5.19,0,0,1-2.81-.86c-2.76-1.77-3-5.29-1.06-8l1.83,1.33"/><path d="M172.81,310.47l2.3.22-1.8,6.05c-.4,1.33-.84,3.23,1.11,3.41s2.64-1.67,3-3l1.8-6,2.3.22-1.93,6.47c-.79,2.63-2.6,4.51-5.76,4.22s-3.78-2.42-3-5.06l1.93-6.47"/><path d="M187.68,322.43l-2.34-.05,2.33-10.86,2.34.05-2.33,10.86"/><path d="M196.82,344,195,342.71l5.44-7.8-1.9-1.31,1.11-1.6,5.61,3.91-1.11,1.6-1.89-1.32-5.43,7.8"/><path d="M211.73,341.79l-1,1.94.29.08c1.19.37,2.21.3,2.86-.94s-.08-1.75-1.23-2.11l-.29-.09-.59,1.12-2.19-.62,1.46-2.76,2.95.87c2.2.68,3.25,2,2.1,4.19a3.86,3.86,0,0,1-3.77,2.12l.88,5.23-2.63-.79-.54-4.9,0,0-2.17,4.09-2.17-.67,3.92-7.36,2.19.62"/><path d="M225.19,345.68,223.86,348l2.74.21-.45-4.15h0l-.93,1.62-1.91-.54,2.91-4.4,1.75.13,1.58,11.74-2.41-.17L226.8,350l-4-.3L221.25,352l-2.38-.18,4.41-6.67,1.91.54"/><path d="M237.6,341.26l1.65.1,4.41,8.1h0l1.65-7.48,2.27.11-2.5,11.36-1.63-.09-4.41-8.1h0l-1.66,7.56-2.27-.11,2.51-11.45"/><path d="M259.06,345.57a1.69,1.69,0,0,0-1.48-1.06,1.66,1.66,0,0,0-1.74,1.09c-.51,1.87,4.26,1.55,3.26,5.27a4.42,4.42,0,0,1-4.83,3.41,3.34,3.34,0,0,1-3-2.51l1.82-1.22a1.92,1.92,0,0,0,1.64,1.82,1.88,1.88,0,0,0,1.92-1.45c.31-1.14-.7-1.58-1.51-2-1.32-.74-2.21-1.57-1.74-3.28a4,4,0,0,1,7.07-1.44l-1.46,1.38"/><path d="M267.22,355.86l-2.18-.42,3.38-9.08-2.25-.43.69-1.86,6.68,1.31-.68,1.84-2.26-.43-3.38,9.07"/><path d="M277.7,346.81l2.07.82-2.36,6c-.52,1.3-1.14,3.2.62,3.9s2.62-1.1,3.14-2.41l2.34-6,2.08.83-2.51,6.36c-1,2.6-2.91,4.14-5.76,3s-3.17-3.55-2.14-6.14l2.52-6.38"/><path d="M289.8,362.06l2.91,1.21-.75,1.8L287,363l4.38-10.58,2.06.86-3.63,8.79"/><path d="M299.3,367.85l-2.1-.76,3.85-10.79,2.1.74-3.85,10.81"/><path d="M308.79,370.25l-2.23-.43,2.61-9-2.3-.45.53-1.85,6.84,1.35-.54,1.83-2.3-.45-2.61,9"/><path d="M318,333.74a2,2,0,0,0-2,0,1.38,1.38,0,0,0-.59,1.82c.94,1.68,4.51-1.25,6.38,2.11a3.62,3.62,0,0,1-1.37,5.26,4,4,0,0,1-4.15-.23l.57-1.93a2.32,2.32,0,0,0,2.6.44,1.52,1.52,0,0,0,.48-2.16c-.58-1-1.69-.79-2.64-.65-1.58.18-2.89.06-3.75-1.49a3.35,3.35,0,0,1,1.23-4.63,4.7,4.7,0,0,1,3.35-.42l-.15,1.87"/><path d="M321.73,328.73l2-1.05,3,5.65c.66,1.24,1.7,2.94,3.38,2.06s.84-2.72.17-4l-3-5.66,2-1.05,3.22,6.05c1.31,2.48,1.26,4.9-1.44,6.34s-4.74.15-6.06-2.32l-3.22-6"/><path d="M339.72,322.43a2.1,2.1,0,0,0-2-.13,1.39,1.39,0,0,0-.72,1.77c.82,1.75,4.59-.91,6.21,2.58a3.61,3.61,0,0,1-1.74,5.14,4.1,4.1,0,0,1-4.14-.51l.71-1.9a2.36,2.36,0,0,0,2.57.63,1.52,1.52,0,0,0,.64-2.12c-.5-1.08-1.63-.91-2.59-.84-1.59.06-2.88-.17-3.63-1.76a3.34,3.34,0,0,1,1.57-4.53,4.67,4.67,0,0,1,3.37-.17l-.29,1.84"/><path d="M352,327l-2.08.81L346.41,319l-2.15.84-.71-1.81,6.36-2.52.72,1.81-2.14.85L352,327"/><path d="M359.74,324.17l-2.1.73-3.7-10.85,2.11-.72,3.69,10.84"/><path d="M360.33,311.6l1.51-.54,8.34,5.58,0,0-2.54-7.27,2.09-.75,3.87,11-1.52.52-8.32-5.54h0l2.57,7.35-2.11.74-3.88-11.11"/><path d="M261.31,78.81c-1.73,10.75-20.09,17.5-30.71,17.88-10.55-.76-18.43-5.51-24.77-12.45,2.53-.57,5.42-6,5.07-10.28a8.71,8.71,0,0,0-6.69-7.63,10.15,10.15,0,0,0-6.23.46c-5,25,20.76,35.83,33.8,35.49s32.38-10,31.46-23.06V79Z" fill="#c4c4c4"/><path d="M376.64,307.91l1,2.32,3.25-1.43.78,1.78L378.43,312l1.24,2.83,3.37-1.47.79,1.77-5.42,2.38L373.81,307l5.42-2.38.79,1.77-3.38,1.49"/><path d="M392.24,310.33l-1.94,1.11-3.55-8.85-2,1.13L383.8,302l5.95-3.37,1,1.69-2,1.14,3.54,8.84"/><path d="M327.86,282.6c.07.09-.08.15-.15.23h-.08v-.22h.23"/><path d="M327.72,283.59l-.16-.22c.15-.15.46.15.16.22"/><path d="M77.72,269.58c17.67,4.74,29.07,4.69,43,4,15.17-.75,23,.16,33,2.67,5.29,1.33,13.46,1.14,24.08,1.14m-104.9,11c20.49,6.08,32.63,6.08,47.81,5.33,12.63-.65,19.15-.62,27.09,1m30-23.64s11.37,1.13,8.91,8-9.74,5.23-19.54,3.79c-26-3.79-12.9,9.88-6.83,12.55s12.33,5.32,39.65,5.32,30,5.7,30,9.5-3.8,4.94-14.42,3.43-15.55-1.52-15.93,3.41,4.55,12.16,21.24,12.93,44,2.66,55,5.32,23.15,8.36,34.52,11.78,16.7,8,27.32-4.94M177.39,277.36s7.29.33,7.28,4.8M199.4,318c2.47-1.07,6.89-.71,13.53.23,7.12,1,11.18.85,13.07-.52m1.29-3.75c-.22-6.28-4.61-8.65-29.92-8.65-27.31,0-33.57-2.65-39.64-5.31-3-1.33-7.21-5.29-7.69-8.49m2.05-3.58c2.11-1,6-1.37,12.47-.48,8.48,1.16,16.68,2,19.91-2.08l2-5.39m-42.92,30.28c10.36,10.89,15.61,16.1,47.23,19.14m-4.05,5.32c-30.2-2.91-35.6-8.13-45.18-18.09l10.53-32.54m48.82,29.84L182.7,342.05c10.88,15,17.7,20,43,20.54s36.93.24,56.4,9.11,28.07,11.92,43.5,7.35a20.67,20.67,0,0,0,4.56-8.73c1.51-5.71,10.24-23.19,12.89-29.65l-3,4.93c-10.62,12.92-20.87,9.51-32.25,6.08s-23.52-9.13-34.52-11.78-38.32-4.55-55-5.32c-16-.72-21.2-7.39-21.27-12.3l-.36-2.28m132,54c-15.43,4.58-24,2.29-43.5-6.58s-31.12-8.61-56.4-9.13-32.13-5.57-43-20.51m-39-38.17c-7.21-1.32-14.5-1.71-26-1.13-15.18.76-27.32.76-47.81-5.32l-6.82-1.72,23.9-11S74.83,269.76,72.93,262c20.49,6.08,32.63,6.08,47.81,5.31s23,.16,33,2.67c5.3,1.32,13.46,1.14,24.09,1.14" fill="none"/><path d="M185,284.89l-5.06,14.44m41.23,30.17,8.35-17.74m166.42-31.94,11.89,27.88c3.28,1.52,6.82,2.53,17.45-.51s41.47-8.37,57.66-7.1c-4.8-5.57-23.27-13.44-23.27-13.44l17.2-14.43A38.53,38.53,0,0,1,466.48,271c-18-5.06-35.16.76-50.33,7.1s-16.95,5.06-19,2.78c-4.3-2.78-.5-5.57,4.55-8.37s4-5.57-.76-5.82c-16.69-1.52-27.82,7.35-31.1,11.41s-1,8.6,8.59,4.56c5.24-2.22,8.35-3.56,10.12-.26,2.78,7.1-9.61,14.45-34.65,22s-30.6,11.16-52.86,27.39l5.82,13.67m66-61.33c-.25-6.58,20.24-17.23,29.08-12.41m-13.15,10.9,10.37,27.87c2.78,7.1-9.61,14.44-34.65,22-19.4,5.89-27.11,9.36-39.95,18.15m74.2-64.36c2,2.28,4.45,3.9,19.62-2.45s32.38-12.16,50.34-7.09l1.53.44m-64.51,24.89c3.28,1.53,6.83,2.55,17.45-.5s35.91-8.1,52.1-6.84m-172,41.31c22.26-16.22,27.06-19.26,52.1-26.86s37.76-15.12,35-22.21M318.29,349.3c15.8-11.24,22.92-14.77,44.49-21.33,25-7.61,37.44-15,34.65-22.05M368.6,282.61l6.83,13.18M405,268.67l3.29,11.91m-1.77-5.83c-4.56,2-9.86,5.07-7.34,7.09m-27.56,5.83c1.26,1.53,3.79,1.26,8.34-.77s8.85-2.53,8.09-.5m5.31,8.12c2.28-1.52,4.81-3,7.85-2.54m-6.58,6.85c2.78-1.78,6.58-2.54,8.6-2" fill="none"/><path d="M371.54,287.83c1.48,2.27,5.84.64,10.62-1.39,3.06-.88,5.81-1.68,5.52.35-.38,3.44-11.73,9.35-12.09,8.61a66.79,66.79,0,0,0-4-7.57Z" fill="#fff"/><path d="M407.94,280.7c-3.19,1.16-1.83.57-4,1.28-2.5.13-5,1.1-4.95-1.61,1.46-2.81,7.42-5.23,7.45-5.12.7,2.21.78,2.88,1.54,5.45Z" fill="#fff"/><path d="M159.66,98.9l9.07-4.75c8.86-5.59,9.86-5.64,14.46-11.39,6-7.53,2.43-5.39,8.27-11.26.8,9.79,18,37.35,36.31,37.15,22.52,0,36.42-14.05,40.69-23a114.2,114.2,0,0,1,16.15-.23c5,14.33,23.53,23.47,38.64,23.35,16.38-.12,38.3-10.75,36.45-36.76,23.81,31,22.48,14.36,41.41,33.06-34.56-2.67-59.63,44.14-31.14,77.2-4,5-6.24,12-2.84,12.41l14,12.49c28.79,26.84-8.72,49.1-27.52,54.19L325.1,281.29h-7.85c-9,10.64-31.6,10.87-42.33,23.7-13.84-15.95-31.38-10.87-39-25h-5s-14.09-6.82-35.9-18.48c-25.25-11.63-36.47-18.72-27.33-50.52,22.56-15,20.93-22.94,15.93-32.26,18.24-27.25,18.75-65.77-27.22-78.35l3.21-1.51Z" fill="#fff"/><path d="M243.2,177.88a2.14,2.14,0,0,1,3-.93,1.93,1.93,0,0,1,.23,3.12,2,2,0,0,1-.35,3.93,2,2,0,0,1-.57,3.82,2.24,2.24,0,0,1-.93,3.47,1.67,1.67,0,0,1-1.15,1.73,1.88,1.88,0,0,1-.35,2.31,2.13,2.13,0,0,1-1,1.39,2,2,0,0,1-2,1.5,4.08,4.08,0,0,1-2-5.43c-1.73-.69-2-2.54-.8-3.35a2.22,2.22,0,0,1-.47-1.39,1.83,1.83,0,0,1-.8-2.43,2,2,0,0,1-1.27-3.23,2,2,0,0,1,.46-3.47,2,2,0,0,1,3.58-1.39,1.88,1.88,0,0,1,2.19.58,2.06,2.06,0,0,1,2.19-.23Zm1.15-40.46a2.14,2.14,0,0,1,3-.93,1.94,1.94,0,0,1,.23,3.13,2,2,0,0,1-.34,3.93,2,2,0,0,1-.58,3.81,2.23,2.23,0,0,1-.92,3.47,1.68,1.68,0,0,1-1.16,1.73,1.89,1.89,0,0,1-.34,2.31,2.17,2.17,0,0,1-1,1.39,2,2,0,0,1-2,1.5,1.94,1.94,0,0,1-2-2,1.93,1.93,0,0,1,0-3.47c-1.73-.69-2-2.54-.81-3.35a2.21,2.21,0,0,1-.46-1.39,1.84,1.84,0,0,1-.81-2.43,2,2,0,0,1-1.27-3.23,2,2,0,0,1,.46-3.47,2,2,0,0,1,3.58-1.39,1.89,1.89,0,0,1,2.19.58,2.07,2.07,0,0,1,2.19-.23Zm-34.49,11.79a2.12,2.12,0,0,0-3-.92,1.93,1.93,0,0,0-.23,3.12,2,2,0,0,0,.35,3.93,2,2,0,0,0,.58,3.81,2.23,2.23,0,0,0,.92,3.47,1.66,1.66,0,0,0,1.15,1.73,1.9,1.9,0,0,0,.35,2.32,2.09,2.09,0,0,0,1,1.38,2,2,0,0,0,2,1.5,1.94,1.94,0,0,0,2-2,1.93,1.93,0,0,0,0-3.47c1.73-.69,2-2.54.81-3.35a2.25,2.25,0,0,0,.46-1.39A1.81,1.81,0,0,0,217,157a2,2,0,0,0,1.27-3.24,2,2,0,0,0-.46-3.47,2,2,0,0,0-3.57-1.39,1.91,1.91,0,0,0-2.2.58,2.06,2.06,0,0,0-2.19-.23Z" fill="#b400b4" stroke="#000" stroke-width="0.35"/><path d="M310.8,177.88a2.14,2.14,0,0,0-3-.93,1.92,1.92,0,0,0-.23,3.12,2,2,0,0,0,.34,3.93,2,2,0,0,0,.58,3.82,2.23,2.23,0,0,0,.92,3.47,1.69,1.69,0,0,0,1.16,1.73,1.86,1.86,0,0,0,.34,2.31,2.17,2.17,0,0,0,1,1.39,2,2,0,0,0,2,1.5,4.08,4.08,0,0,0,2-5.43c1.73-.69,2-2.54.81-3.35a2.27,2.27,0,0,0,.46-1.39,1.84,1.84,0,0,0,.81-2.43,2,2,0,0,0,1.27-3.23,2,2,0,0,0-.46-3.47,2,2,0,0,0-3.58-1.39,1.88,1.88,0,0,0-2.19.58,2.07,2.07,0,0,0-2.19-.23Zm-1.16-40.46a2.14,2.14,0,0,0-3-.93,1.94,1.94,0,0,0-.23,3.13,2,2,0,0,0,.35,3.93,2,2,0,0,0,.58,3.81,2.23,2.23,0,0,0,.92,3.47,1.66,1.66,0,0,0,1.15,1.73,1.88,1.88,0,0,0,.35,2.31,2.11,2.11,0,0,0,1,1.39,2,2,0,0,0,2,1.5,1.94,1.94,0,0,0,2-2,1.93,1.93,0,0,0,0-3.47c1.73-.69,2-2.54.81-3.35a2.27,2.27,0,0,0,.46-1.39,1.82,1.82,0,0,0,.8-2.43,2,2,0,0,0,1.27-3.23,2,2,0,0,0-.46-3.47,5,5,0,0,0-5.77-.81,2.06,2.06,0,0,0-2.19-.23Zm34.49,11.79a2.12,2.12,0,0,1,3-.92,1.93,1.93,0,0,1,.23,3.12,2,2,0,0,1-.34,3.93,2,2,0,0,1-.58,3.81,2.23,2.23,0,0,1-.92,3.47,1.68,1.68,0,0,1-1.16,1.73,1.91,1.91,0,0,1-.34,2.32,2.15,2.15,0,0,1-1,1.38,2,2,0,0,1-2,1.5,1.94,1.94,0,0,1-2-2,1.93,1.93,0,0,1,0-3.47c-1.73-.69-2-2.54-.81-3.35a2.19,2.19,0,0,1-.46-1.39A1.83,1.83,0,0,1,337,157a2,2,0,0,1-1.27-3.24,2,2,0,0,1,.46-3.47,5,5,0,0,1,5.77-.81,2.07,2.07,0,0,1,2.19-.23Z" fill="#b400b4" stroke="#000" stroke-width="0.35"/><path d="M239.39,194.06c-.46,1.74.81,3.47,2.19,3.12a2.06,2.06,0,0,1-3.57-.92c-.35-.58.23-2,1.38-2.2Zm1.39-1.5c-.46,1.5,1.15,2.77,2.53,2.54a2.11,2.11,0,0,1-3.57-.81,1.17,1.17,0,0,1,1-1.73Zm1.27-3.24c-.47,1.62.8,3.35,2.19,3a2,2,0,0,1-3.58-.81,1.66,1.66,0,0,1,1.39-2.2Zm-3.7-3.23c-.57,1.61.81,3.35,2.2,3a2.11,2.11,0,0,1-3.7-.81,1.84,1.84,0,0,1,1.5-2.19Zm2.54-1.51c-.46,1.74.81,3.47,2.31,3a2.15,2.15,0,0,1-3.69-.7,1.86,1.86,0,0,1,1.38-2.31Zm-3.34-2.08a1.85,1.85,0,0,0,2.19,2.55,2.1,2.1,0,0,1-3.69-.81c-.23-.7.23-1.51,1.5-1.74Zm5.65-.11a2.22,2.22,0,0,0,2.19,3,2.13,2.13,0,0,1-3.69-.81,1.78,1.78,0,0,1,1.5-2.19Zm-3.12-2.2c-.46,1.73.24,3.12,1.62,2.89a1.61,1.61,0,0,1-3-.58,1.9,1.9,0,0,1,1.38-2.31Zm-4.72-1.27c-.47,1.73.8,3.47,2.3,3.12a2.17,2.17,0,0,1-3.69-.81,1.86,1.86,0,0,1,1.39-2.31Zm1.15-2.08c-.46,1.73.81,3.35,2.19,3.12a2,2,0,0,1-3.58-.81,1.75,1.75,0,0,1,1.39-2.31Zm5.31.92c-.47,1.62.8,3.35,2.19,3.12a2.08,2.08,0,0,1-3.58-.81,1.82,1.82,0,0,1,1.39-2.31Zm2.76-1a2.28,2.28,0,0,0,2.2,3.12,2,2,0,0,1-3.58-.81,1.77,1.77,0,0,1,1.38-2.31Zm-4-23.12c-.47,1.74.8,3.47,2.19,3.12a2.07,2.07,0,0,1-3.58-.92c-.34-.58.23-2,1.39-2.2Zm1.38-1.5c-.46,1.5,1.15,2.77,2.54,2.54a2.12,2.12,0,0,1-3.58-.81,1.17,1.17,0,0,1,1-1.73Zm1.27-3.24c-.46,1.62.81,3.36,2.19,3a2,2,0,0,1-3.57-.81,1.65,1.65,0,0,1,1.38-2.2Zm-3.69-3.23c-.58,1.61.81,3.35,2.19,3a2.1,2.1,0,0,1-3.69-.81,1.83,1.83,0,0,1,1.5-2.19Zm2.54-1.51c-.47,1.74.8,3.47,2.3,3a2.15,2.15,0,0,1-3.69-.69,1.87,1.87,0,0,1,1.39-2.32ZM238.7,142a1.86,1.86,0,0,0,2.19,2.55,2.1,2.1,0,0,1-3.69-.81c-.23-.7.23-1.51,1.5-1.74Zm5.65-.11a2.22,2.22,0,0,0,2.19,3,2.13,2.13,0,0,1-3.69-.81,1.78,1.78,0,0,1,1.5-2.19Zm-3.11-2.2c-.46,1.74.23,3.12,1.61,2.89a1.61,1.61,0,0,1-3-.58,1.9,1.9,0,0,1,1.39-2.31Zm-4.73-1.27c-.46,1.73.81,3.47,2.31,3.12a2.18,2.18,0,0,1-3.7-.81,1.87,1.87,0,0,1,1.39-2.31Zm1.15-2.08c-.46,1.73.81,3.35,2.19,3.12a2,2,0,0,1-3.57-.81,1.74,1.74,0,0,1,1.38-2.31Zm5.31.92c-.46,1.62.81,3.36,2.19,3.12a2.08,2.08,0,0,1-3.58-.8A1.84,1.84,0,0,1,243,137.3Zm2.77-1c-.58,1.74.8,3.36,2.19,3.12a2,2,0,0,1-3.58-.8,1.79,1.79,0,0,1,1.39-2.32Zm-32.07,29.13c.46,1.74-.81,3.47-2.19,3.12a2.06,2.06,0,0,0,3.57-.92c.35-.58-.23-2-1.38-2.2Zm-1.39-1.5c.47,1.5-1.15,2.78-2.53,2.54a2.11,2.11,0,0,0,3.57-.81,1.17,1.17,0,0,0-1-1.73ZM211,160.65c.46,1.62-.81,3.36-2.2,3a2,2,0,0,0,3.58-.81,1.65,1.65,0,0,0-1.38-2.2Zm3.69-3.23c.57,1.62-.81,3.35-2.19,3a2.1,2.1,0,0,0,3.69-.81,1.83,1.83,0,0,0-1.5-2.19Zm-2.54-1.51c.46,1.74-.81,3.47-2.31,3a2.15,2.15,0,0,0,3.69-.69,1.87,1.87,0,0,0-1.38-2.32Zm3.34-2.08a1.85,1.85,0,0,1-2.19,2.55,2.1,2.1,0,0,0,3.69-.81c.24-.7-.23-1.51-1.5-1.74Zm-5.65-.11a2.21,2.21,0,0,1-2.19,3,2.13,2.13,0,0,0,3.69-.81,1.78,1.78,0,0,0-1.5-2.19Zm3.12-2.2c.46,1.74-.23,3.12-1.62,2.89a1.61,1.61,0,0,0,3-.58,1.9,1.9,0,0,0-1.38-2.31Zm4.73-1.27c.46,1.73-.81,3.47-2.31,3.12a2.17,2.17,0,0,0,3.69-.81,1.86,1.86,0,0,0-1.38-2.31Zm-1.16-2.08c.46,1.73-.8,3.35-2.19,3.12a2,2,0,0,0,3.58-.81,1.75,1.75,0,0,0-1.39-2.31Zm-5.3.92c.46,1.62-.81,3.36-2.2,3.13a2.09,2.09,0,0,0,3.58-.81,1.82,1.82,0,0,0-1.38-2.32Zm-2.77-1c.57,1.74-.81,3.36-2.19,3.12a2,2,0,0,0,3.57-.8,1.78,1.78,0,0,0-1.38-2.32Z" fill="#642864" stroke="#000" stroke-width="0.35"/><path d="M162.11,208.28c2.42.46,4.73.81,6.8-.11-10.84,24,6.23,43.81,28.84,54.67-1,1.74-2.08,3-3.11,4.51-22.38-10.06-44.18-31.56-32.53-59.07Zm73.48,72.48h-5v6.13h0c9.8,11.9,36.45,12.94,43.95,27.05,11.42-15.15,35.87-17,50.17-28.67h0V282h-7.84c-9,10.64-31.61,10.87-42.33,23.7-13.85-16-31.38-10.87-39-25ZM380,204.93a49,49,0,0,1,7.26.35c13.73,30.63-3,47.51-29.06,62a41.24,41.24,0,0,0-5-5.09c18.8-5.09,45-26.59,26.76-57.22Zm-5.19-27.51-5.19,4.5c-28.5-33.06-5.31-81.38,31.14-76.06,3.46.46,6.23,8.09,4.85,7.63-42.22-17.34-50.18,46.12-30.8,63.93ZM289.11,78.7c.35,2.31,2,3.69,3.46,3.23s2.08-3.35,1.73-5c-.23-2.08-1.85-5.2-4.5-5.2-2.31,0-5.19,2.66-5.3,6.13-.12,2.65-.12,5.54-.24,8.32,5,14.33,23.54,23.47,38.65,23.35,16.38-.12,38.29-10.75,36.45-36.76-1.38-1.27-2.65-2.66-3.92-3.93,3.11,21.5-17.54,34.56-32.65,34.22-12.57-.35-35.64-9.71-33.68-24.39Zm-19.73-3.13a31.54,31.54,0,0,1-1.26,10.87c-4.27,8.9-10.62,21-36.92,22.2-28.37,1.15-42.1-21.74-38.64-38.73a14.91,14.91,0,0,1,5.54-3.12c-5,17.11,12,35.49,33.68,35.49,15.34,0,33.22-13,31.14-23.24-6,0-6.69-9.25,1.62-9.13,4.15,0,5,3.47,4.84,5.66ZM154,100.77c47.3,9.37,48.1,53.18,29.3,78.73-1.61-2-3.23-3.93-4.84-5.78,18.57-21.62,10-61.39-29.3-70.17l4.84-2.78ZM346.21,86.9c3.34-4,4.61-5.32,4.73-8.55.11-1.85-.46-6.71-2.31-6.71s-2.65,3.82-2.88,5.67c-.23,2.43,2.88,5.43.46,9.59ZM393.73,116c3.93,1,6.12-1.15,8.19.23,1.39.93,1.62,2.09,1,3a3.27,3.27,0,0,1-3.57,1.39c-2.43-.7-3.23-3-5.66-4.63ZM205.94,84.47c-2.31-3.12-3.92-6.58-4-9.24-.11-2.2,1.27-5.67,3-4.86,1.62.58,3.12,3.93,2.19,6.71s-1.61,5.08-1.15,7.39Zm-42.1,29.14c-4.62-2.32-7.16-4-11-3.59-2.31.23-4.73,2.55-4.27,5s3.69,3.7,6,2.89c3.46-.92,4.73-3.47,9.23-4.27Z" fill="#ffd312"/><path d="M314.6,194.06c.46,1.74-.8,3.47-2.19,3.12a2.07,2.07,0,0,0,3.58-.92c.34-.58-.23-2-1.39-2.2Zm-1.38-1.5c.46,1.5-1.16,2.77-2.54,2.54a2.12,2.12,0,0,0,3.58-.81,1.17,1.17,0,0,0-1-1.73ZM312,189.32c.46,1.62-.81,3.35-2.19,3a2,2,0,0,0,3.57-.81,1.65,1.65,0,0,0-1.38-2.2Zm3.69-3.23c.58,1.61-.81,3.35-2.19,3a2.1,2.1,0,0,0,3.69-.81,1.83,1.83,0,0,0-1.5-2.19Zm-2.54-1.51c.46,1.74-.8,3.47-2.3,3a2.15,2.15,0,0,0,3.69-.7,1.86,1.86,0,0,0-1.39-2.31Zm3.35-2.08a1.86,1.86,0,0,1-2.19,2.55,2.1,2.1,0,0,0,3.69-.81c.23-.7-.23-1.51-1.5-1.74Zm-5.65-.11a2.23,2.23,0,0,1-2.2,3,2.14,2.14,0,0,0,3.7-.81,1.79,1.79,0,0,0-1.5-2.19Zm3.11-2.2c.46,1.73-.23,3.12-1.61,2.89a1.61,1.61,0,0,0,3-.58,1.89,1.89,0,0,0-1.38-2.31Zm4.73-1.27c.46,1.73-.81,3.47-2.31,3.12a2.17,2.17,0,0,0,3.69-.81,1.86,1.86,0,0,0-1.38-2.31Zm-1.15-2.08c.46,1.73-.81,3.35-2.2,3.12a2,2,0,0,0,3.58-.81,1.74,1.74,0,0,0-1.38-2.31Zm-5.31.92c.46,1.62-.81,3.35-2.19,3.12a2.07,2.07,0,0,0,3.57-.81,1.82,1.82,0,0,0-1.38-2.31Zm-2.77-1a2.27,2.27,0,0,1-2.19,3.12,2,2,0,0,0,3.58-.81,1.79,1.79,0,0,0-1.39-2.31Zm4-23.12c.46,1.74-.81,3.47-2.19,3.12a2.06,2.06,0,0,0,3.57-.92c.35-.58-.23-2-1.38-2.2Zm-1.39-1.5c.47,1.5-1.15,2.77-2.53,2.54a2.11,2.11,0,0,0,3.57-.81,1.17,1.17,0,0,0-1-1.73Zm-1.26-3.24c.46,1.62-.81,3.36-2.2,3a2,2,0,0,0,3.58-.81,1.65,1.65,0,0,0-1.38-2.2Zm3.69-3.23c.57,1.61-.81,3.35-2.19,3a2.1,2.1,0,0,0,3.69-.81,1.83,1.83,0,0,0-1.5-2.19ZM312,144.12c.46,1.74-.81,3.47-2.31,3a2.15,2.15,0,0,0,3.69-.69,1.86,1.86,0,0,0-1.38-2.32Zm3.34-2.08a1.85,1.85,0,0,1-2.19,2.55,2.1,2.1,0,0,0,3.69-.81c.23-.7-.23-1.51-1.5-1.74Zm-5.65-.11a2.22,2.22,0,0,1-2.19,3,2.13,2.13,0,0,0,3.69-.81,1.78,1.78,0,0,0-1.5-2.19Zm3.12-2.2c.46,1.74-.23,3.12-1.62,2.89a1.61,1.61,0,0,0,3-.58,1.9,1.9,0,0,0-1.38-2.31Zm4.73-1.27c.46,1.73-.81,3.47-2.31,3.12a2.17,2.17,0,0,0,3.69-.81,1.86,1.86,0,0,0-1.38-2.31Zm-1.16-2.08c.46,1.73-.8,3.35-2.19,3.12a2,2,0,0,0,3.58-.81,1.75,1.75,0,0,0-1.39-2.31Zm-5.3.92c.46,1.62-.81,3.36-2.2,3.12a2.08,2.08,0,0,0,3.58-.8A1.82,1.82,0,0,0,311,137.3Zm-2.77-1c.57,1.74-.81,3.36-2.19,3.12a2,2,0,0,0,3.57-.8,1.78,1.78,0,0,0-1.38-2.32Zm32.07,29.13c-.47,1.74.8,3.47,2.19,3.12a2.07,2.07,0,0,1-3.58-.92c-.34-.58.23-2,1.39-2.2Zm1.38-1.5c-.46,1.5,1.15,2.78,2.54,2.54a2.12,2.12,0,0,1-3.58-.81,1.17,1.17,0,0,1,1-1.73Zm1.27-3.24c-.46,1.62.81,3.36,2.19,3a2,2,0,0,1-3.57-.81,1.65,1.65,0,0,1,1.38-2.2Zm-3.69-3.23c-.58,1.62.81,3.35,2.19,3a2.1,2.1,0,0,1-3.69-.81,1.83,1.83,0,0,1,1.5-2.19Zm2.54-1.51c-.47,1.74.8,3.47,2.3,3a2.15,2.15,0,0,1-3.69-.69,1.87,1.87,0,0,1,1.39-2.32Zm-3.35-2.08a1.86,1.86,0,0,0,2.19,2.55,2.1,2.1,0,0,1-3.69-.81c-.23-.7.23-1.51,1.5-1.74Zm5.65-.11a2.22,2.22,0,0,0,2.19,3,2.13,2.13,0,0,1-3.69-.81,1.78,1.78,0,0,1,1.5-2.19Zm-3.11-2.2c-.46,1.74.23,3.12,1.61,2.89a1.61,1.61,0,0,1-3-.58,1.9,1.9,0,0,1,1.39-2.31Zm-4.73-1.27c-.46,1.73.81,3.47,2.31,3.12a2.18,2.18,0,0,1-3.7-.81,1.87,1.87,0,0,1,1.39-2.31Zm1.15-2.08c-.46,1.73.81,3.35,2.19,3.12a2,2,0,0,1-3.57-.81,1.74,1.74,0,0,1,1.38-2.31Zm5.31.92c-.46,1.62.81,3.36,2.19,3.13a2.09,2.09,0,0,1-3.58-.81,1.84,1.84,0,0,1,1.39-2.32Zm2.77-1c-.58,1.74.8,3.36,2.19,3.12a2,2,0,0,1-3.58-.8,1.8,1.8,0,0,1,1.39-2.32Z" fill="#642864" stroke="#000" stroke-width="0.35"/><path d="M270.31,258.91c.69-2.19,2.3-2.31,2.3-5.43h0V187.59h0a1.68,1.68,0,0,1,1.73-1.62h0a1.9,1.9,0,0,1,2,1.62v65.89c.92,3.12-.58,4.85,2.07,5,6.81.46,14.19.92,20.53,2.77.7.58.58,1.16,0,1.74H256.12a2.07,2.07,0,0,1,.81-2.54c7-2.09,13.15-.58,13.38-1.51Zm49.14-54c.8-2.43,2.54-2.55,2.54-5.9h0V126.21h0a1.73,1.73,0,0,1,1.84-1.74h0a2,2,0,0,1,2.08,1.85c0,24.16,0,48.44.11,72.71.93,3.35-.81,5.32,2.08,5.44,7.38.46,15.46.92,22.15,3,.8.58.57,1.27,0,2H304.11a2.45,2.45,0,0,1,.92-2.89c7.61-2.32,14.07-.58,14.42-1.62Zm-85.36,0c-.81-2.43-2.54-2.55-2.54-5.9h0V126.21h0a1.74,1.74,0,0,0-1.85-1.74h0a1.82,1.82,0,0,0-1.84,1.85c0,24.16,0,48.44-.12,72.71-.92,3.35.58,5.32-2.07,5.44-7.39.46-15.46.92-22.15,3-.81.58-.58,1.27,0,2h45.91a2.48,2.48,0,0,0-.92-2.89c-7.62-2.32-14.08-.58-14.42-1.62Z" fill="#961e1d" stroke="#000" stroke-width="1.3"/><path d="M268.12,186.89c.92,1.74,1.84,2.55,3.92,2.55,2.77,0,6.92,2,8.65,3.58a19.47,19.47,0,0,1,5.54,9.36c.34,1.85.11,3.7-1,4.74-2.66,2.43-5.89,3.93-8.65,5.9s-5.89,4.39-7.62,7.86c-1.27,2.43-.69,5.43.46,7.63,2.2,4.16,6.69,7.63,10.27,11.68.69.69,2.77-.12,3.12,1,1.73,5.08.57,9.47,1.61,14.79.58,3.24,5,3.24,6.92,4.16-3.92-.23-8.3-.46-11.76-2.08a3.52,3.52,0,0,0,1.38-3.12c0-3.7-1.5-9.25-3.46-11.1-2.88-3-6.58-6.58-9.34-9.71-2.2-2.31-3.35-3.81-3.81-6.47-.81-3.93.58-7.17,2.77-10.52,2.88-4.39,8.76-6.7,13-9.48,1-.69,2.42-3.47,2.42-5.55-.11-3.23-3.34-6.82-5-7.16-2.07-.35-6.57.11-8.65-.47-.69-.23-.11-1.15-1.15-1.15s-2,.69-2.42,1.85c.11-.93-1.27-1.39-2.66-1a8.28,8.28,0,0,1,6-3.24c.23-1.27-1-2.54-2.19-3.35,1.15.46,1.62.23,1.62-.7ZM317,125.28c1,1.85,2,2.78,4.16,2.78,3,0,7.61,2.31,9.46,3.93a23.39,23.39,0,0,1,5.88,10.4c.35,2,.11,4.05-1.15,5.2-2.77,2.66-6.23,4.39-9.23,6.47s-6.46,4.86-8.31,8.68c-1.27,2.65-.69,6,.58,8.43,2.42,4.63,7.15,8.44,11,12.83.81.93,3,0,3.46,1.28,1.84,5.55.58,10.4,1.61,16.3.7,3.58,5.54,3.58,7.62,4.5-4.27-.23-9-.46-12.81-2.19a4,4,0,0,0,1.62-3.47c0-4.16-1.73-10.29-3.69-12.37C324,184.81,320,180.88,317,177.42c-2.42-2.55-3.57-4.17-4.15-7.06-.81-4.39.69-8,3.12-11.67,3-4.86,9.34-7.4,13.95-10.4,1.16-.81,2.66-3.94,2.54-6.13,0-3.58-3.46-7.63-5.19-7.86-2.31-.46-7.15,0-9.46-.58-.69-.23-.11-1.27-1.27-1.27s-2,.81-2.53,2c.11-.92-1.39-1.38-2.89-1,1.73-2.42,3.81-3.23,6.46-3.7.23-1.27-1.15-2.77-2.42-3.58,1.27.46,1.85.23,1.85-.81h0Zm-80.28,0c-1,1.85-2,2.78-4.15,2.78-3,0-7.62,2.31-9.46,3.93a23.2,23.2,0,0,0-5.88,10.4c-.35,2-.12,4.05,1.15,5.2,2.77,2.66,6.23,4.39,9.23,6.47s6.46,4.86,8.3,8.68c1.27,2.65.69,6-.57,8.43-2.43,4.63-7.16,8.44-11,12.83-.81.93-3,0-3.46,1.28-1.85,5.55-.58,10.4-1.62,16.3-.69,3.58-5.54,3.58-7.61,4.5,4.27-.23,9-.46,12.8-2.19a4,4,0,0,1-1.61-3.47c0-4.16,1.73-10.29,3.69-12.37,3.23-3.24,7.15-7.17,10.15-10.63,2.19-2.55,3.34-4.17,3.92-7.06.81-4.39-.69-8-2.88-11.67-3-4.86-9.35-7.4-14-10.4-1.15-.81-2.65-3.94-2.54-6.13,0-3.58,3.46-7.63,5.19-7.86,2.31-.46,7.16,0,9.46-.58.69-.23.12-1.27,1.27-1.27.92-.12,1.73.81,2.31,2-.12-.92,1.38-1.38,2.88-1a9,9,0,0,0-6.23-3.7c-.23-1.27,1.16-2.77,2.19-3.58-1,.46-1.61.23-1.61-.81Z" fill="#961e1d" stroke="#000" stroke-width="1.3"/><path d="M260.39,237.18a2.12,2.12,0,0,0-3-.92,1.92,1.92,0,0,0-.23,3.12,2,2,0,0,0,.34,3.93,2,2,0,0,0,.58,3.81,2.23,2.23,0,0,0,.92,3.47,1.68,1.68,0,0,0,1.16,1.73,1.89,1.89,0,0,0,.34,2.32,2.15,2.15,0,0,0,1,1.38,2,2,0,0,0,2,1.5,4.08,4.08,0,0,0,2-5.43c1.73-.69,2-2.54.81-3.35a2.19,2.19,0,0,0,.46-1.39,1.83,1.83,0,0,0,.81-2.42,2,2,0,0,0,1.27-3.24,2,2,0,0,0-.46-3.47,5,5,0,0,0-5.77-.81,2.07,2.07,0,0,0-2.19-.23Zm-1.16-40.46a2.12,2.12,0,0,0-3-.92,1.93,1.93,0,0,0-.23,3.12,2,2,0,0,0,.35,3.93,2,2,0,0,0,.58,3.81,2.23,2.23,0,0,0,.92,3.47,1.67,1.67,0,0,0,1.15,1.73,1.9,1.9,0,0,0,.35,2.32,2.12,2.12,0,0,0,1,1.38,2,2,0,0,0,2,1.51,4.1,4.1,0,0,0,2-5.44c1.73-.69,2-2.54.81-3.35a2.25,2.25,0,0,0,.46-1.39,1.82,1.82,0,0,0,.81-2.42,2,2,0,0,0,1.26-3.24,2,2,0,0,0-.46-3.47,4.94,4.94,0,0,0-5.76-.81,2.11,2.11,0,0,0-2.2-.23Zm34.49,11.79a2.12,2.12,0,0,1,3-.92,1.92,1.92,0,0,1,.23,3.12,2,2,0,0,1-.34,3.93,2,2,0,0,1-.58,3.81,2.23,2.23,0,0,1-.92,3.47,1.7,1.7,0,0,1-1.16,1.74,1.87,1.87,0,0,1-.34,2.31,2.15,2.15,0,0,1-1,1.38,2,2,0,0,1-2,1.51,4.1,4.1,0,0,1-2-5.44c-1.73-.69-2-2.54-.81-3.35a2.19,2.19,0,0,1-.46-1.39,1.82,1.82,0,0,1-.81-2.42A2,2,0,0,1,285.3,213a2,2,0,0,1,.46-3.47,2,2,0,0,1,3.58-1.38,1.87,1.87,0,0,1,2.19.57,2.09,2.09,0,0,1,2.19-.23Z" fill="#b400b4" stroke="#000" stroke-width="0.35"/><path d="M264.19,253.31c.46,1.74-.8,3.47-2.19,3.13a2.07,2.07,0,0,0,3.58-.93c.34-.58-.23-2-1.39-2.2Zm-1.38-1.5c.46,1.5-1.15,2.78-2.54,2.55a2.13,2.13,0,0,0,3.58-.81,1.18,1.18,0,0,0-1-1.74Zm-1.27-3.23c.46,1.61-.81,3.35-2.19,3a2,2,0,0,0,3.57-.81,1.64,1.64,0,0,0-1.38-2.19Zm3.69-3.24c.58,1.62-.81,3.35-2.19,3a2.1,2.1,0,0,0,3.69-.81,1.83,1.83,0,0,0-1.5-2.19Zm-2.54-1.5c.47,1.73-.8,3.46-2.3,3a2.15,2.15,0,0,0,3.69-.69,1.86,1.86,0,0,0-1.39-2.31Zm3.35-2.09a1.86,1.86,0,0,1-2.19,2.55,2.1,2.1,0,0,0,3.69-.81c.23-.7-.23-1.5-1.5-1.74Zm-5.65-.11a2.22,2.22,0,0,1-2.19,3,2.13,2.13,0,0,0,3.69-.8,1.79,1.79,0,0,0-1.5-2.2Zm3.11-2.2c.46,1.74-.23,3.12-1.61,2.89a1.61,1.61,0,0,0,3-.58,1.91,1.91,0,0,0-1.39-2.31Zm4.73-1.27c.46,1.74-.81,3.47-2.31,3.12a2.18,2.18,0,0,0,3.7-.81,1.87,1.87,0,0,0-1.39-2.31Zm-1.15-2.08c.46,1.73-.81,3.35-2.19,3.12a2,2,0,0,0,3.57-.81,1.74,1.74,0,0,0-1.38-2.31Zm-5.31.93c.46,1.61-.81,3.35-2.19,3.12a2.08,2.08,0,0,0,3.58-.81,1.82,1.82,0,0,0-1.39-2.31ZM259,236a2.27,2.27,0,0,1-2.19,3.12,2,2,0,0,0,3.58-.81A1.78,1.78,0,0,0,259,236Zm4-23.12c.46,1.73-.81,3.46-2.19,3.12a2.07,2.07,0,0,0,3.57-.93c.35-.58-.23-2-1.38-2.19Zm-1.38-1.51c.46,1.51-1.16,2.78-2.54,2.55a2.12,2.12,0,0,0,3.57-.81,1.17,1.17,0,0,0-1-1.74Zm-1.27-3.23c.46,1.61-.81,3.35-2.19,3a2,2,0,0,0,3.57-.81,1.64,1.64,0,0,0-1.38-2.19Zm3.69-3.24c.57,1.62-.81,3.35-2.19,3a2.1,2.1,0,0,0,3.69-.8,1.84,1.84,0,0,0-1.5-2.2Zm-2.54-1.5c.46,1.73-.81,3.46-2.31,3a2.15,2.15,0,0,0,3.69-.69,1.85,1.85,0,0,0-1.38-2.31Zm3.35-2.08a1.85,1.85,0,0,1-2.2,2.54,2.11,2.11,0,0,0,3.7-.81c.23-.69-.24-1.5-1.5-1.73Zm-5.66-.12a2.22,2.22,0,0,1-2.19,3,2.14,2.14,0,0,0,3.69-.81,1.79,1.79,0,0,0-1.5-2.2Zm3.12-2.2c.46,1.74-.23,3.12-1.62,2.89a1.61,1.61,0,0,0,3-.57,1.91,1.91,0,0,0-1.38-2.32Zm4.73-1.27c.46,1.74-.81,3.47-2.31,3.12a2.17,2.17,0,0,0,3.69-.81,1.86,1.86,0,0,0-1.38-2.31Zm-1.16-2.08c.47,1.74-.8,3.35-2.19,3.12a2,2,0,0,0,3.58-.81,1.75,1.75,0,0,0-1.39-2.31Zm-5.3.93c.46,1.61-.81,3.35-2.19,3.12a2.08,2.08,0,0,0,3.57-.81,1.81,1.81,0,0,0-1.38-2.31Zm-2.77-1a2.28,2.28,0,0,1-2.19,3.12,2,2,0,0,0,3.57-.81,1.77,1.77,0,0,0-1.38-2.31Zm32.07,29.13c-.46,1.73.8,3.46,2.19,3.12a2.07,2.07,0,0,1-3.58-.93c-.34-.58.23-2,1.39-2.19Zm1.38-1.51c-.46,1.51,1.15,2.78,2.54,2.55a2.13,2.13,0,0,1-3.58-.81,1.18,1.18,0,0,1,1-1.74Zm1.27-3.23c-.46,1.62.81,3.35,2.19,3a2,2,0,0,1-3.57-.81,1.64,1.64,0,0,1,1.38-2.19Zm-3.69-3.24c-.58,1.62.81,3.35,2.19,3a2.1,2.1,0,0,1-3.69-.81,1.84,1.84,0,0,1,1.5-2.2Zm2.54-1.5c-.46,1.73.8,3.47,2.3,3a2.15,2.15,0,0,1-3.69-.69,1.86,1.86,0,0,1,1.39-2.31Zm-3.35-2.08a1.85,1.85,0,0,0,2.19,2.54,2.1,2.1,0,0,1-3.69-.81c-.23-.69.23-1.5,1.5-1.73Zm5.65-.12a2.23,2.23,0,0,0,2.2,3,2.15,2.15,0,0,1-3.7-.81,1.79,1.79,0,0,1,1.5-2.2Zm-3.11-2.2c-.46,1.74.23,3.13,1.61,2.89a1.61,1.61,0,0,1-3-.57,1.92,1.92,0,0,1,1.39-2.32Zm-4.73-1.27c-.46,1.74.81,3.47,2.31,3.12a2.16,2.16,0,0,1-3.69-.81,1.86,1.86,0,0,1,1.38-2.31Zm1.15-2.08c-.46,1.74.81,3.35,2.19,3.12a2,2,0,0,1-3.57-.81,1.74,1.74,0,0,1,1.38-2.31Zm5.31.93c-.46,1.62.81,3.35,2.19,3.12a2.08,2.08,0,0,1-3.57-.81,1.81,1.81,0,0,1,1.38-2.31Zm2.77-1a2.28,2.28,0,0,0,2.19,3.12,2,2,0,0,1-3.58-.81,1.78,1.78,0,0,1,1.39-2.31Z" fill="#642864" stroke="#000" stroke-width="0.35"/><path d="M233.16,128.75c1.39-1.62,3.12-2.66,4.73-2.2-1.84-2.66-3.46-9.36-2.42-12.71.58,1.5.92,1.85,2,1.62.23-1.39,1.62-2,2.77-2.32a3.24,3.24,0,0,1,.23,3.47,1.55,1.55,0,0,1,2.77-.35,4.07,4.07,0,0,1-.35,5.21c2.08.81,5.19-.58,6.23-4.17,1.16,1.16,1.16,1.62.46,3,1.27-1,3.46-.35,5,1,0,1.73-1.61,4.05-3,4.05,1,.11,1.62.81,1.74,2.31-2.89-1.16-5.2-.46-7.39,1.39,2.54.81,3,2,3.46,3.35a2,2,0,0,1-2.19,1.73c1.15,0,1.73.81,1.85,2.43-1.16.69-2.19.23-3.23-.46-.7.81-.35,1.38-.23,2.77-3.35-1-5.89-6.36-6.92-10.29-1.74-.57-3.35.23-4.62,2-.58.69-1.5-.93-.81-1.85Zm-10.84,4.39c-.58-1.73-1.85-3.23-3.58-3.12,2.54-2,6.12-7.4,6-10.52-.92,1.16-1.27,1.27-2.19.81.23-1.39-.69-2.2-1.61-2.89a3.07,3.07,0,0,0-1.39,3,1.42,1.42,0,0,0-2.3-1.16A3.93,3.93,0,0,0,216,124c-2.08.12-4.5-2-4.27-5.43-1.39.57-1.62.92-1.27,2.42-.81-1.27-3.12-1.27-4.73-.57-.58,1.73.12,4.16,1.38,4.5-.92-.11-1.61.24-2.19,1.51,2.89-.12,4.62,1,6.12,3.47-2.43-.12-3.35.69-4,1.84-.23,1.28.58,1.85,1.5,2.32-1-.35-1.85,0-2.42,1.38.8,1,1.84.93,3,.58.35.93-.11,1.39-.69,2.55,3.46.11,7.15-3.94,9.23-7.06,1.73,0,2.88,1.16,3.58,3.12.23.7,1.5-.46,1.15-1.5Zm3.92,51.44a5.77,5.77,0,0,0-5.42-1c1.85-2.89,3-9.36,1.39-12-.35,1.39-.81,1.62-2,1.73-.46-1.15-2-1.5-3.23-1.61a2.61,2.61,0,0,0,0,3.35,1.88,1.88,0,0,0-3.11.11,3.45,3.45,0,0,0,.81,4.74,5.47,5.47,0,0,1-7.27-2.66c-1.27,1.28-1.27,1.74-.12,2.89-1.61-.69-4,.47-5.53,1.85.23,1.74,2.07,3.47,3.8,3.24a2.29,2.29,0,0,0-1.84,2.43,8.45,8.45,0,0,1,8.42-.12c-2.65,1.16-3.23,2.31-3.35,3.7.23,1.16,1.39,1.27,2.66,1.16a2.11,2.11,0,0,0-1.85,2.54c1.27.46,2.42-.11,3.58-1.15.69.69.46,1.27.34,2.77,3.81-1.73,6-7.05,6.69-11a5,5,0,0,1,5.43,1c.69.46,1.61-1.27.57-2Zm12-17c1.5.81,3.34,1.39,4.61.46-.92,2.89-.8,8.9,1,11.45,0-1.39.23-1.62,1.27-1.74.58,1.16,1.85,1.27,2.88,1.27a2.51,2.51,0,0,0-.46-3,1.44,1.44,0,0,0,2.54-.35,3.76,3.76,0,0,0-1.5-4.39c1.5-1.16,4.62-.81,6.35,2,.69-1.15.8-1.5-.24-2.54,1.39.58,3.23-.58,4-2.08-.34-1.62-2.19-3.12-3.57-2.77.92-.35,1.26-.93,1-2.2a6.57,6.57,0,0,1-6.8.46c2-1.15,2.19-2.31,2.07-3.7-.34-1-1.38-1-2.42-.92,1-.23,1.5-.93,1.27-2.54a2.37,2.37,0,0,0-2.65,1.27c-1-.58-.92-1.16-1-2.43-2.77,1.85-3.58,6.94-3.58,10.52-1.38.92-3.11.58-4.61-.46-.69-.7-1,1-.23,1.73ZM271.46,190c-1.27-1.51-2.88-2.43-4.38-2,1.73-2.43,3.23-8.55,2.19-11.56-.46,1.39-.81,1.62-1.73,1.5A3.46,3.46,0,0,0,265,175.8a2.86,2.86,0,0,0-.23,3.23,1.43,1.43,0,0,0-2.54-.34,3.69,3.69,0,0,0,.23,4.74c-2,.69-4.84-.58-5.76-3.82-1,1-1.16,1.5-.35,2.78-1.15-.93-3.35-.35-4.61.92,0,1.5,1.38,3.7,2.76,3.7-1,.12-1.5.69-1.61,2.08a6.17,6.17,0,0,1,6.8,1.27,4.13,4.13,0,0,0-3.23,3c.12,1.15,1.16,1.5,2.08,1.62-1-.12-1.61.69-1.73,2.08,1,.69,2,.34,3-.35.58.69.35,1.27.12,2.54,3.23-.92,5.53-5.78,6.57-9.36,1.5-.58,3,.23,4.27,1.73.46.7,1.38-.8.69-1.61Zm10,3.93c.57-1.51,1.73-2.89,3.34-2.78-2.31-1.85-5.65-6.7-5.65-9.59.92,1,1.27,1.15,2.08.81-.24-1.28.69-2.08,1.61-2.66A2.68,2.68,0,0,1,284,182.5a1.33,1.33,0,0,1,2.2-1,3.42,3.42,0,0,1,1.15,4.28c2,.11,4.15-1.85,3.92-5,1.39.58,1.5.81,1.27,2.19.69-1.15,2.77-1.15,4.27-.46.58,1.5,0,3.7-1.27,4.05a1.82,1.82,0,0,1,2.08,1.39c-2.66-.12-4.27.92-5.66,3.12,2.31-.12,3,.57,3.69,1.73.24,1-.46,1.62-1.38,2,.92-.24,1.73.11,2.31,1.38a2.46,2.46,0,0,1-2.77.47c-.35.8,0,1.27.58,2.31-3.12.11-6.58-3.59-8.54-6.36-1.62,0-2.65,1-3.23,2.77-.23.7-1.5-.46-1.15-1.38Zm-3.69,46.7a5.4,5.4,0,0,1,5.07-.93c-1.73-2.66-2.77-8.55-1.27-11,.35,1.27.69,1.5,1.73,1.62.46-1,1.85-1.39,3.12-1.5a2.43,2.43,0,0,1,0,3,1.67,1.67,0,0,1,2.77.12,3,3,0,0,1-.7,4.39,5.08,5.08,0,0,0,6.69-2.43c1.27,1.16,1.27,1.51.23,2.55,1.5-.58,3.7.46,5.08,1.73a3.48,3.48,0,0,1-3.58,2.89,2,2,0,0,1,1.73,2.2,8.55,8.55,0,0,0-7.84-.12c2.54,1,3,2.08,3.23,3.35-.23,1-1.38,1.16-2.54,1.16a1.84,1.84,0,0,1,1.73,2.2c-1.15.46-2.19,0-3.23-.93-.8.58-.57,1-.46,2.43-3.46-1.62-5.42-6.36-6.11-9.94a4.86,4.86,0,0,0-5.08.92c-.57.46-1.38-1.15-.57-1.73Zm-11.08-15.49c-1.38.81-3.11,1.39-4.27.46.81,2.66.81,8.09-.92,10.4-.11-1.27-.23-1.5-1.15-1.61-.58,1-1.73,1.15-2.77,1.15a2.38,2.38,0,0,1,.46-2.66,1.33,1.33,0,0,1-2.31-.34,3.45,3.45,0,0,1,1.39-4.05c-1.5-1-4.27-.69-5.89,1.85-.69-1-.69-1.39.23-2.31-1.26.58-3-.58-3.8-2,.34-1.38,2.07-2.77,3.34-2.42a1.51,1.51,0,0,1-.92-2.09,6.06,6.06,0,0,0,6.23.47c-1.85-1-2.08-2.08-2-3.24.46-1,1.27-1,2.31-.93-1-.23-1.39-.92-1.27-2.31a2.31,2.31,0,0,1,2.53,1.16c.93-.46.93-1,.93-2.2,2.54,1.62,3.34,6.24,3.34,9.48,1.27.93,2.89.58,4.39-.34.57-.58.8.92.11,1.5Zm53.87-96.41c-1.38-1.62-3.11-2.66-4.73-2.2,1.85-2.66,3.46-9.36,2.42-12.71-.57,1.5-.92,1.85-2,1.62-.23-1.39-1.61-2-2.77-2.32a3.26,3.26,0,0,0-.23,3.47,1.54,1.54,0,0,0-2.76-.35,4.07,4.07,0,0,0,.34,5.21c-2.08.81-5.19-.58-6.23-4.17-1.15,1.16-1.15,1.62-.46,3-1.27-1-3.46-.35-5,1,0,1.73,1.62,4.05,3,4.05-1,.11-1.62.81-1.73,2.31,2.88-1.16,5.19-.46,7.38,1.39-2.54.81-3,2-3.46,3.35a2,2,0,0,0,2.19,1.73c-1.15,0-1.73.81-1.84,2.43,1.15.69,2.19.23,3.23-.46.69.81.34,1.38.23,2.77,3.34-1,5.88-6.36,6.92-10.29,1.73-.57,3.34.23,4.61,2,.58.69,1.5-.93.81-1.85Zm10.84,4.39c.58-1.73,1.85-3.23,3.58-3.12-2.54-2-6.11-7.4-6-10.52.92,1.16,1.27,1.27,2.19.81-.23-1.39.7-2.2,1.62-2.89a3,3,0,0,1,1.38,3,1.43,1.43,0,0,1,2.31-1.16,3.94,3.94,0,0,1,1.27,4.74c2.07.12,4.5-2,4.27-5.43,1.38.57,1.61.92,1.27,2.42.8-1.27,3.11-1.27,4.72-.57.58,1.73-.11,4.16-1.38,4.5.92-.11,1.62.24,2.19,1.51-2.88-.12-4.61,1-6.11,3.47,2.42-.12,3.34.69,4,1.84.23,1.28-.58,1.85-1.5,2.32,1-.35,1.84,0,2.42,1.38-.81,1-1.85.93-3,.58-.35.93.11,1.39.69,2.55-3.46.11-7.15-3.94-9.23-7.06-1.73,0-2.88,1.16-3.57,3.12-.23.7-1.5-.46-1.16-1.5Zm-3.92,51.44a5.78,5.78,0,0,1,5.42-1c-1.84-2.89-3-9.36-1.38-12,.35,1.39.81,1.62,2,1.73.46-1.15,2-1.5,3.23-1.61a2.61,2.61,0,0,1,0,3.35,1.88,1.88,0,0,1,3.11.11,3.44,3.44,0,0,1-.8,4.74,5.46,5.46,0,0,0,7.26-2.66c1.27,1.28,1.27,1.74.12,2.89,1.61-.69,4,.47,5.54,1.85-.23,1.74-2.08,3.47-3.81,3.24a2.3,2.3,0,0,1,1.85,2.43,8.45,8.45,0,0,0-8.42-.12c2.65,1.16,3.22,2.31,3.34,3.7-.23,1.16-1.38,1.27-2.65,1.16a2.1,2.1,0,0,1,1.84,2.54c-1.27.46-2.42-.11-3.57-1.15-.7.69-.46,1.27-.35,2.77-3.81-1.73-6-7.05-6.69-11-2-.81-3.69-.35-5.42,1-.69.46-1.62-1.27-.58-2Zm-12-17c-1.5.81-3.35,1.39-4.62.46.92,2.89.81,8.9-1,11.45,0-1.39-.23-1.62-1.27-1.74-.57,1.16-1.84,1.27-2.88,1.27a2.54,2.54,0,0,1,.46-3,1.44,1.44,0,0,1-2.54-.35,3.78,3.78,0,0,1,1.5-4.39c-1.5-1.16-4.61-.81-6.34,2-.69-1.15-.81-1.5.23-2.54-1.38.58-3.23-.58-4-2.08.35-1.62,2.19-3.12,3.58-2.77-.92-.35-1.27-.93-1-2.2a6.58,6.58,0,0,0,6.81.46c-2-1.15-2.2-2.31-2.08-3.7.35-1,1.38-1,2.42-.92-1-.23-1.5-.93-1.27-2.54a2.39,2.39,0,0,1,2.66,1.27c1-.58.92-1.16,1-2.43,2.77,1.85,3.58,6.94,3.58,10.52,1.38.92,3.12.58,4.61-.46.7-.7,1,1,.24,1.73Z" fill="#129612" stroke="#000" stroke-width="1.3"/><path d="M206.55,260.77c-.15.06-1,.19-1.78.31-1.85.26-2.37.27-3,2.39a9.92,9.92,0,0,1-1.5,2.94c-.91,1.2-1.75,3.54-1.53,4.61s1.4,1.44,3.53,1c2.73-.57,3.4-.85,3.53-.21s-1.53,2-3.5,3.44-2.38,2.69-2.67,5.76a35.63,35.63,0,0,1-.57,4.51,20.89,20.89,0,0,0-.49,3.09c.25.64,4.19,1,6.7.59,3.95-.63,6-2.59,6.43-5.75a11.34,11.34,0,0,1,2.53-5.8c1.13-1.17,1.26-1,2.14-.1s.45.7-.52,5.51-.62,6.6,1,8c1.35,1.14,3,1,3.45-.47a16.6,16.6,0,0,1,1.78-3.28c1.82-2.41,2.2-4.14,1-6.77-.82-1.87-1.27-2.18-.55-2.18.19,0,.44.36,1.28,1.25a8.64,8.64,0,0,0,2.9,1.86c2.07,0,2.21-9.23.23-10.5-1-.63-1.35.22-1.35,3.39,0,2.28.3,2.91,0,2.91s-.59-.56-1-2a2.09,2.09,0,0,0-3.36-.91l-1.21,1,.17,4.94c.19,3.74.32,3.43-.08,3.43-.66,0-.49-.45-.77-4.44a18.56,18.56,0,0,0-.6-4.16,4.79,4.79,0,0,0-1.74-1.51,4.05,4.05,0,0,0-3.12-.22c-2.76.76-5.59,3.67-7.25,7-.91,1.83-.9,2.27-1.58,2-.44-.16-.44,0,0-1.08.75-1.81,2.63-4,5.2-6.82,2.95-3.23,2.91-3.85,2.44-5.47-.56-1.93-1-2.7-3.72-3.08-1.56-.22-3.22-.13-3.22-.42,0-.73.75-.92,3.7-.92,2.72,0,3-.06,3.54-.76a4.81,4.81,0,0,0,.81-1.55c.32-1.29-.53-1.64-3.94-1.61a25.82,25.82,0,0,0-3.33.13Z" fill="#129612"/><path d="M201,260.42c-2.07,3.2-4.32,8.49-4.32,10.23,0,2.25,3,3.73,5.28,2.42,1.38-.69,1.73-.69,1.21.09a6.92,6.92,0,0,1-2.69,1.74c-1.73.69-2.07,1.38-2.07,4.24,0,1.91-.48,2.44-.78,3.91a23.55,23.55,0,0,0-.25,3.55c0,3.64,3,5,9,3.51,3.44-.84,2-.37,4.45-2a25.16,25.16,0,0,0,2.15-5.16c.61-2,1.56-3.9,2.08-4.25s.69-.09.43.61c-2.42,5.89-2.59,7.8-1.21,10.75,1.21,2.6,1.9,3,4.41,3,2.68,0,.85-.75,3.79-4.17a10.71,10.71,0,0,1,2.11-3.23c.62-1.2.54-1.14.47-1.83-.13-1.5,1.42-1.17,1.85-1.17,3.38,0,4.67-7.37,2.25-12.14-1.64-3.21-2.25-3.21-4.58,0-3.55,4.77-10.56,2.78-10.56-3a6.78,6.78,0,0,1,1.38-4c1-1.13,1.13-1.91.52-3s-2.25-1.56-7.26-1.73c-5.8-.26-6.49-.09-7.62,1.65ZM214.14,262c-.6,2.43-2,3.29-4.84,2.77-1.73-.26-3.12-.09-3.46.52s.26,1,1.82,1c3,0,4.15.78,4.93,3.2.43,1.48-.09,2.52-2.6,4.77-2.68,2.52-5.54,6.59-5.54,8.06s2,0,2.69-2.08c1.29-3.55,6.31-7.28,8.82-6.5,2.68.78,3.2,1.91,3.2,6.59,0,2.43.43,4.16,1,4.16s.78-1.47.35-4.42c-.43-3.38-.35-4.68.52-5.2,2-1.3,3.37-.87,3.37.95,0,1,.44,1.74,1,1.74s.78-1,.52-2.34c-.86-4.6,1.47-6.51,2.43-2,.77,3.38-.26,7.8-1.73,7.8a4,4,0,0,1-2.51-1.9c-1.65-2.26-3-1.3-1.56,1a5.43,5.43,0,0,1-.69,7.11,6.54,6.54,0,0,0-1.73,3c0,1.91-2.94,1.21-4-.95-.69-1.48-.61-3.21.26-6.5,1.21-4.77.95-6.16-1-6.16-1.39,0-3.89,4.25-3.89,6.68-.09,4.07-3.81,6.06-10.47,5.63-2.25-.17-2.34-.35-1.56-3.47a30.07,30.07,0,0,0,.78-5.81c0-2,.69-3.12,3-4.68,3.46-2.34,4.15-4.94,1.12-3.9-4.06,1.3-5.45.95-5.19-1.39a5.91,5.91,0,0,1,1.47-3,4.78,4.78,0,0,0,1.47-3c.17-1.73.87-2.25,3.29-2.6,5.62-.78,9.08-.43,8.82,1Z"/><path d="M168.86,173.85c-.19.57-.75,1-1.94,1.36-2.54.89-6,2.63-6.14,3.17,0,.29,1.22,1.39,2.69,2.34,3.95,2.59,4,2.15-.36,2.53-3.29.28-4,1-6.52,3.34-1.19,1.11-2.71,2.42-3.49,3a7,7,0,0,0-2.08,2.48c-.19.76,1,1.47,2.86,3.27,2.2,2.12,4.22,3,5.7,3.06,1.31,0,2.73-.78,5.61-2.9,1.45-1.05,3-2.52,3.85-2.8,1.35-.48,1.34-.31,2.06.17,1.07.73,1,1.82-.06,2.89a4.55,4.55,0,0,1-1.58,1.07c-.69,0-4.38,4.45-5,5.94-.82,1.8-.84,3.47,0,4.07a2,2,0,0,0,2.87-.22,5.6,5.6,0,0,1,2.12-.91c1.19,0,1.86-1.19,3.08-2.33,1.63-1.52,2.86-1.84,3.17-3.68.13-.75-.12-1.56,0-1.66.5-.31,1,.34,1,1.39,0,3.73,3.2,4.55,4.86,1.26a8.85,8.85,0,0,1,1.61-1.73c.69-.79,1.56-3.32,1.34-3.89s-1.67-.2-2.39.56a12.06,12.06,0,0,0-1.75,2.41c-.79,1.58-1.26,2.27-1.7,1.83a17.51,17.51,0,0,0,.88-1.82c.63-2.12-.19-2.8-1.88-2.8-1.35,0-2.51.7-4.48,3.32-3.86,5.16-3.6,4,0-1.55a8.94,8.94,0,0,0,1.18-3.67,5.21,5.21,0,0,0-1.91-4c-1.26-.83-4-1.1-7.51.2-1.54.57-3.9,1.5-4.44,1.6-.91.16-.74.55-.27-.21,1.07-1.65,6-3.28,9.23-3.35,2.6,0,3.24-.93,3.83-2.17,1-2.05,1.41-2.83-.85-5.2-1.13-1.17-2.26-2.1-2.26-2.23,0-.63.61-.07,2.17,1.1,2.36,1.81,3.2,2.19,4.64,2.19s4.08-1.17,3.74-2a7.14,7.14,0,0,0-2.21-1.93,24.69,24.69,0,0,1-3.38-2.21c-3.17-2.41-5.73-2.67-6.3-1.25Z" fill="#129612"/><path d="M167.33,172.73a7.75,7.75,0,0,1-3.89,1.73c-4.07.78-5.62,5.12-2.25,6.16,2.51.78,2.08,2-.52,1.47-1.81-.34-2.85.18-4.58,2.17a14.62,14.62,0,0,1-3.72,3.12,2.21,2.21,0,0,0-1.56,1.74,3.82,3.82,0,0,1-1.3,2.34c-1.12.95-.78,1.64,2.77,4.85,2.34,2.08,4.85,3.73,5.71,3.82,2.08,0,5.88-2,7.87-4.25a5.46,5.46,0,0,1,2.86-1.82c.69,0-.26,1.47-2.16,3.21-4.24,4.07-5.63,9.19-2.77,10.66,2.42,1.3,7.35-.26,10.64-3.29,1.3-1.22,2.33-1.83,2.33-1.31a1.94,1.94,0,0,0,1.39,1.48c1.56.61,4.67-.87,4.67-2.26a3,3,0,0,1,1.21-1.9c.69-.52,1.47-2.43,1.73-4.25l.61-3.3-3.9.52c-3.46.52-4.15.35-6.14-1.64-1.82-1.82-2.25-2.86-1.82-4.68.7-2.78,3.55-5.38,5.89-5.38s1.81-4.25-.61-5.55a29.15,29.15,0,0,1-4.15-3c-2.77-2.16-6.84-2.51-8.31-.69Zm7.36,2.69a15.42,15.42,0,0,0,4.06,2.69c2.17.69,1.82,2.68-.69,3.12-1.47.34-2.94-.18-4.58-1.56-2.25-2-3.64-2.6-3.64-1.65a9.67,9.67,0,0,0,2.34,2.51c1.82,1.56,2.16,2.43,1.64,4.25-.52,2.08-.95,2.34-4.24,2.34-3.72,0-9.34,2.34-10,4.16-.17.61,1.3.26,3.46-.69a20,20,0,0,1,6.84-1.73c2.51,0,3.29.43,4.15,2.34s.78,2.6-.6,4.51c-2.51,3.38-3.81,6.15-2.95,6.15.44,0,1.91-1.56,3.21-3.47,1.73-2.6,2.94-3.46,4.24-3.29,1.81.35,2,.78,1,3.47-.35.86-.26,1.56.26,1.56s1.29-1.22,1.81-2.6c1-3.13,4-3.73,3-.7a4,4,0,0,1-1.3,2.26,1.36,1.36,0,0,0-.78,1.21,3.72,3.72,0,0,1-1.47,2.08c-2,1.39-3.72.09-3.72-2.77,0-1.13-.34-2.08-.86-2.08s-.87.95-.87,2.08c0,2.34-3.63,5.72-6.14,5.72a1.92,1.92,0,0,0-1.82,1c-.17.52-1,.78-1.81.43-1.13-.43-1.39-1.12-.95-2.94.51-2.43,4.75-7.2,6.22-7.2,1,0,2.08-2.52,1.39-3.56-.87-1.47-3.72-.78-6.58,1.65-4.67,4.08-7,4.16-11,.61-3.38-3.12-3.46-3.12-1.73-4.86a6.23,6.23,0,0,1,2.25-1.64,8,8,0,0,0,2.68-2.43c1.64-1.82,2.77-2.34,5.53-2.34,4.59,0,5-1.3,1.13-3.38-1.64-1-3-1.91-3-2.26,0-.69,3-2.25,5.88-3,1-.35,1.91-1,1.91-1.39,0-1.56,3.2-.78,5.71,1.39Z"/><path d="M382,176.08a15,15,0,0,0-2.68,1.36c-.88.67-3.37,2-4.24,2.55-1.85,1-1.29,2.07,0,2.92,1.45,1,3.94.82,6.45-1,3.54-2.66,3.54-2.65.5.32-2.13,2.06-2,3.14-1.43,5,.53,1.67,1.44,2.43,4,2.43,3.08,0,7.8,1.87,9.21,3.45,1.25,1.39,1.09.36-3.62-1.38-3-1.1-7.08-1.42-8.3-.6-1,.67-2.81,3.95-2.56,5,.13.41,1.43,2,2.44,3.52,1.72,2.66,2.19,3.66,1.81,4s-.53-.63-2.69-3.45c-2-2.62-3.43-3.2-5.09-3-.85.09-.69.64-.66,1.81a10.94,10.94,0,0,0,.29,2.34c.4,1.74-.76,1.14-1.88-1s-2.06-3.89-2.84-3.89-.64,2.65.33,4a16,16,0,0,1,1.22,2c.69,1.48,2,2.69,3,2.69,1.19,0,1.85-.89,2.19-3,.47-2.85,1.32-3.19,1.73-.69a6.31,6.31,0,0,0,2.26,4.08,7.3,7.3,0,0,0,4.13,2.15,2.84,2.84,0,0,1,1.48.79c.91.85,1.41,1,2.35.47a3,3,0,0,0,.8-3.61c-.88-2.15-4.27-5.94-6-6.67a2.62,2.62,0,0,1-1.56-2.61,1.23,1.23,0,0,1,.63-1.08c1.19-.57,2.67.18,5.77,2.46a39.24,39.24,0,0,0,3.6,2.32,5.69,5.69,0,0,0,5.31-.27c1.84-1.08,5.4-4.36,5.4-5.06s-.92-1.88-2.43-2.89a31.13,31.13,0,0,1-3.37-2.86c-2.32-2.19-2.84-2.79-6.13-3.08-2.73-.25-3.84-.24-3.53-1.07a10.93,10.93,0,0,1,2.63-2c2.57-1.68,2.67-1.81,2.2-2.35s-2.73-1.64-5.61-2.72a2.69,2.69,0,0,1-1.79-1.29c-.38-1-1.54-1-3.26-.13Z" fill="#129612"/><path d="M387,174.89a7.75,7.75,0,0,0,3.89,1.73c4.06.78,5.62,5.12,2.25,6.16-2.51.78-2.08,2,.52,1.47,1.81-.34,2.85.18,4.58,2.17a14.84,14.84,0,0,0,3.72,3.12,2.21,2.21,0,0,1,1.56,1.73,3.77,3.77,0,0,0,1.3,2.35c1.12.95.78,1.64-2.77,4.85-2.34,2.08-4.85,3.73-5.71,3.82-2.08,0-5.88-2-7.87-4.25a5.5,5.5,0,0,0-2.86-1.82c-.69,0,.26,1.47,2.16,3.2,4.24,4.08,5.63,9.19,2.77,10.67-2.42,1.3-7.35-.26-10.64-3.3-1.3-1.21-2.34-1.82-2.34-1.3a1.94,1.94,0,0,1-1.38,1.48c-1.56.6-4.67-.87-4.67-2.26a3,3,0,0,0-1.21-1.9c-.69-.52-1.47-2.43-1.73-4.25l-.61-3.3,3.89.52c3.47.52,4.16.35,6.15-1.64,1.81-1.82,2.25-2.87,1.81-4.69-.69-2.77-3.54-5.37-5.88-5.37s-1.82-4.25.61-5.55a29.15,29.15,0,0,0,4.15-2.95c2.77-2.17,6.83-2.51,8.31-.69Zm-7.36,2.69a15.34,15.34,0,0,1-4.06,2.68c-2.17.7-1.82,2.69.69,3.13,1.47.34,2.94-.18,4.58-1.57,2.25-2,3.64-2.6,3.64-1.64a9.84,9.84,0,0,1-2.34,2.51c-1.82,1.56-2.16,2.43-1.64,4.25.52,2.08.95,2.34,4.24,2.34,3.72,0,9.34,2.34,9.94,4.16.18.61-1.29.26-3.46-.69a19.65,19.65,0,0,0-6.83-1.74c-2.51,0-3.29.44-4.15,2.35s-.78,2.6.6,4.5c2.51,3.39,3.81,6.16,2.94,6.16-.43,0-1.9-1.56-3.2-3.47-1.73-2.6-2.94-3.47-4.24-3.29-1.81.34-2,.78-.95,3.46.35.87.26,1.57-.26,1.57s-1.3-1.22-1.81-2.61c-1-3.12-4-3.72-3-.69a4,4,0,0,0,1.3,2.26,1.35,1.35,0,0,1,.77,1.21,3.77,3.77,0,0,0,1.47,2.08c2,1.39,3.72.09,3.72-2.77,0-1.13.35-2.09.87-2.09s.87,1,.87,2.09c0,2.34,3.63,5.72,6.14,5.72a1.89,1.89,0,0,1,1.81,1c.18.52,1,.78,1.82.43,1.13-.43,1.39-1.13.95-3-.52-2.42-4.76-7.19-6.23-7.19-1,0-2.07-2.52-1.38-3.56.86-1.47,3.72-.78,6.57,1.65,4.68,4.07,7,4.16,11,.61,3.38-3.12,3.46-3.12,1.73-4.86a6.17,6.17,0,0,0-2.25-1.65,8,8,0,0,1-2.68-2.42c-1.64-1.82-2.77-2.34-5.54-2.34-4.58,0-5-1.3-1.12-3.39,1.64-1,3-1.9,3-2.25,0-.69-3-2.25-5.89-3-1-.35-1.9-1-1.9-1.39,0-1.56-3.2-.78-5.71,1.39Z"/><path d="M340.33,261.44c-1,.38-1.07.67-.6,1.8.69,1.62,1.39,2.4,3.71,2.22s3.36-.12,3.58.48.56.29-1.92.54a4.75,4.75,0,0,0-3.53,1.57c-1.91,2.15-1.65,3.78,1.67,7.33,3.7,3.95,4.94,3.24,5.53,7.58-.38.63-.89.06-2-2-1.88-3.51-5-6.65-7.61-7.13-1.41-.25-4.23,1-4.74,2.12a35.28,35.28,0,0,0-.25,4.52c-.22,3.64-.16,4.62-.82,3.64-.38-.6-.27-.41.11-3.66s.22-5.18-.94-5.78c-1.47-.76-3-.13-3.17.88-.25,1.21-.88,2.41-1.25,2.44-.19,0-.35-1.2-.41-2.94a10.62,10.62,0,0,0-.44-3.42c-1.19-1.46-2.26,1.23-2.07,5.22.22,4.78,1.41,5.63,4,2.91a1.7,1.7,0,0,1,1.63-.68c.69,0,.26.19-.52,1.93-1.22,2.72-.76,4.36.93,6.86a24,24,0,0,1,1.85,3.2c.6,1.42,2.62,1.32,4,0,.88-.79,1.12-1.33,1.24-3.13a21,21,0,0,0-.81-4.76c-1.07-4.52-1.36-5.63.43-5.63,1.57,0,3.39,3.4,3.89,6.85.41,2.84,2.28,4.43,5.79,5.19a19.09,19.09,0,0,0,6.12.05c1.16-.25,1.23-.82.51-4.65a39.67,39.67,0,0,1-.51-4.08c0-2.37-.37-3.58-2.87-5.66-3.67-3-4.48-4-1-3.1s5.21,0,4.86-2.12a10,10,0,0,0-1.45-2.75A15.27,15.27,0,0,1,352,263.6a4,4,0,0,0-1.62-2c-1.26-.86-8.55-.83-10.09-.2Z" fill="#129612"/><path d="M352.54,261c2.07,3.2,4.32,8.49,4.32,10.23,0,2.25-3,3.72-5.27,2.42-1.39-.69-1.73-.69-1.22.09a6.81,6.81,0,0,0,2.69,1.73c1.73.7,2.07,1.39,2.07,4.25,0,1.91.35,3.64.78,3.9s.78,1.91.78,3.56c0,3.64-3.61,4.15-7.22,4.18a22.07,22.07,0,0,1-6.72-2.39,27.81,27.81,0,0,1-2.15-5.43c-.61-2-1.56-3.9-2.08-4.25s-.29,3.26,0,4c2.42,5.9,1,3.39.68,8.21-1.48,1.53-2.22,2.22-4.28,2.1s-2.45-.88-3.79-2.83c-.86-2.17-3.19-6.38-3.05-4.84.05.53-.95-2.6-1.38-2.6-3.37,0-4.67-7.37-2.25-12.14,1.64-3.21,2.25-3.21,4.59,0,3.54,4.77,10.55,2.77,10.55-3a6.69,6.69,0,0,0-1.38-4c-1-1.13-1.13-1.91-.52-3s2.25-1.56,7.26-1.73c5.8-.26,6.49-.09,7.62,1.65Zm-13.15,1.56c.6,2.42,2,3.29,4.84,2.77,1.73-.26,3.12-.09,3.46.52s-.26,1-1.81,1c-3,0-4.16.79-4.94,3.21-.43,1.48.09,2.52,2.6,4.77,2.68,2.52,5.54,6.59,5.54,8.06s-2,0-2.68-2.08c-1.3-3.55-6.32-7.28-8.83-6.5-2.68.78-3.2,1.91-3.2,6.59,0,2.43-.43,4.16-.95,4.16s-.78-1.47-.35-4.42c.43-3.38.35-4.68-.52-5.2-2-1.3-3.37-.87-3.37.95,0,1-.43,1.74-.95,1.74s-.78-1-.52-2.35c.86-4.59-1.47-6.5-2.42-2-.78,3.38.26,7.8,1.73,7.8a4,4,0,0,0,2.5-1.9c1.65-2.26,3-1.3,1.56,1a5.43,5.43,0,0,0,.69,7.11,6.45,6.45,0,0,1,1.73,3c0,1.91,2.95,1.21,4-.95.7-1.48.61-3.21-.26-6.51-1.21-4.76-1-6.15,1-6.15,1.39,0,3.9,4.25,3.9,6.67.08,4.08,3.8,6.07,10.46,5.64,2.25-.17,2.34-.35,1.56-3.47a30.07,30.07,0,0,1-.78-5.81c0-2-.69-3.12-3-4.68-3.46-2.34-4.15-4.94-1.12-3.9,4.07,1.3,5.45,1,5.19-1.39a5.84,5.84,0,0,0-1.47-3,4.81,4.81,0,0,1-1.47-3c-.17-1.73-.87-2.25-3.29-2.6-5.62-.78-9.08-.43-8.82,1Z"/><path d="M277.68,72.57a6.48,6.48,0,0,1,6.46,6.59,6.56,6.56,0,0,1-6.46,6.59,6.66,6.66,0,0,1-6.57-6.59,6.58,6.58,0,0,1,6.57-6.59ZM179.29,214.29a7.54,7.54,0,0,1-7.73-7.51,7.73,7.73,0,1,1,15.46,0,7.48,7.48,0,0,1-7.73,7.51Zm.11-33.41a7.46,7.46,0,0,1,0,14.92,7.46,7.46,0,0,1,0-14.92Zm-14-17.68a7.4,7.4,0,1,1-7.39,7.4,7.41,7.41,0,0,1,7.39-7.4Zm222.74,3.93a8.62,8.62,0,0,0-8.65,8.55,8.72,8.72,0,0,0,8.65,8.67,8.63,8.63,0,0,0,8.54-8.67,8.52,8.52,0,0,0-8.54-8.55ZM373,213.71a7.92,7.92,0,1,0-7.95-8,8,8,0,0,0,7.95,8ZM374,181A8,8,0,0,1,374,197,8,8,0,0,1,374,181Zm-30.91,72.13a6,6,0,1,0,6,5.9,5.91,5.91,0,0,0-6-5.9Zm-9.46,7.63a6.33,6.33,0,0,1,6.34,6.36,6.35,6.35,0,1,1-6.34-6.36Zm-11.19,7.05a7.81,7.81,0,1,1-7.73,7.75,7.79,7.79,0,0,1,7.73-7.75Zm-115.3-15.37a6.53,6.53,0,1,1-6.57,6.47c0-3.58,5.13-6.47,8.71-6.47ZM219.66,259a7.46,7.46,0,1,0,7.5,7.51,7.46,7.46,0,0,0-7.5-7.51Zm12.23,21.5a6.65,6.65,0,1,1,0-13.29,6.65,6.65,0,1,1,0,13.29Z" fill="#ffd300" stroke="#000" stroke-width="1.3"/></svg>