<svg xmlns="http://www.w3.org/2000/svg" width="220" height="300" viewBox="0 0 220 300"><title>flag-new-jersey-icon-horse</title><path d="M207.81,180.49c-2,2.21-1.38,5.94-3.89,6.09s-2.5-.34-3.58-5.15,2.65-12.78.78-26.78-7.69-19-7.69-19a39.85,39.85,0,0,0-6.61-26.3c4.52-3.1,3.25-11.35,2.17-10.27s-1.72,2-5.61,1.87-12-9.63-15.57-12.77S151.45,77.3,151.45,77.3c5-5.45,2.35-10.9,0-12.92s-6.2-3.4-6.83-2.16,3.1,3.24,3.1,5a4.81,4.81,0,0,1-4.52,5.16c-3.89.44-13.71-2.47-16.81-3.29-4.18-1.08-9.48.3-13.22.15s-5.12-5.3-6.35-7S96.25,46.9,94.53,44.29,92,42.12,91.25,44s-1.08,16.66-3.74,12S80,44.55,80,44.55c-2.8.49-6.38,17.18-5.6,21.55s2.84,9.82,1.42,10.76S69,75.77,66,76.07A19.58,19.58,0,0,0,53.6,83.24c-3.88,5-6.08,4.82-8.4,3.89s-1.72-5.12-3-2.81S43.63,89.78,46,91c2.54,1.34,10.27-.64,10.27-.64s0,2.17.94,2.17,2.91-3.77,4.67-3.1a32.22,32.22,0,0,0,5,1.23l-11.5,10.27c-8.7,7.77-8.4,9.3-17.74,17.11-12.29,10.27-18.52,13.41-25.06,20.24-7.43,7.81-11.28,12.14-10.42,16,.75,3.59,5.27,5.9,5.9,7.32s0,1.38,0,3.74c0,2.54,2.91,7.77,6.5,7.77,6.23,0,8.59-5.46,10.75-6.69s10.13-4,12-4.67,3.59-.15,1.09.79-12.33,5.15-13.86,7-2.65,6.8-2.17,7.95c1.57,3.59,4.67,1.72,7.17,1.09s2.66,2.31,10.13.15c5.11-1.5,6.34-8.07,7.17-8,2.31.26,27.52-11.61,30.17-11.2,1.23.22,6.24,1.27,11.84,2.5s14.94,1.08,14.94,1.08c-.3,4-25.51,21.77-28.31,24.28S58.35,201,50.24,216.57s-8.55,37.16-8.55,37.16a17.47,17.47,0,0,1,3.62-1.4c0-2.71,0-23.08,9-37.14C64,200.1,80.87,186.88,86.17,182.66s18.9-14.3,22.48-20.09c0,0,11.06-3.29,16.66-7.77s-1.08-.94-2.5.15-10.91,5-17,5.75S90.91,159.28,89,158.83s-10.75-1.72-12.62-2.16-12,4.51-14.79,5.45-12.25,5.82-15.24,5.75c-2.5-.07-3.43,6.24-5.6,7.62s-5.56,1.87-7.62.93a9.9,9.9,0,0,0-6.68-.3c-.78.3-.64-2.35.63-4,.64-.9,4-2.8,6.09-4s8.7-3.29,10-4.52.79-4.67-1.71-4.67-8.56,1.57-11.84,2.65a25.4,25.4,0,0,0-8.71,5.3c-2.16,2-2.16,3.74-5.3,3.29-3.85-.56-4.82-3.25-4.82-4.52s.6-3.73.12-5.3-4.71-3-4.71-6.13,2.87-8.81,13.48-18,14.79-10.57,20.09-15.09,10.91-11.2,16.81-16.8S74,89.37,72.46,88.43s-8.89-.45-9.82-1.72,2.65-2.65,3.74-2.65,3.1.45,3.58-.3-1.87-1.71-5.75-1.56-6.09,5.45-8.4,5.3-.94-.93.29-2.35,6.84-5.75,11.21-5.9,5.49.93,7.84,1.71c0,0,3.21.64,4.45-1.71s-1.72-10.2-1.87-13.45a42,42,0,0,1,2.8-15.95s5.15,6.24,6.54,10,2.16,4.23,3.1,10.13,3.73,8.1,5.6,9.33,6.53,3,6.83,5.31-2-.3-4.52-.3a9.91,9.91,0,0,1-5.3-1.87c-1.08-.63-3.29-3.44-3.59-2.8s.3,2.5.64,3.29l-1.72,1.56s-.48,2.51,2.8,3.44c2.54.71,6.54,2.5,6.84,3.74s-1.09,3.58-.49,4,1.57.15,2.65-1.42,1.42-1.87,2.17-.79.78,5,3.44,5.91,1.38-1.09.48-2.17-1.42-2-1.23-7.17.63-5.9-1.57-8.4-8.1-4.67-9.34-7S88.71,61.54,93.38,51A13.57,13.57,0,0,1,96,55c.93,2.31,1.23,3.43,1.72,4.52S99,60.16,99,58.29s.63-1.86,2.8.64,5.75,7.17,6.2,12.44-.15,8.4.93,9.63.64-.48.94-2,3.28-2.35,4-2.16a12.37,12.37,0,0,1,7.47,6.38c2.5,4.82,3.1,10.76,3.44,14.5s1.71,10.27,4.37,13.07,7,4.22,10,3.58,2.35,1.42,4.67.15-3.44-4-4.67-5.15a8,8,0,0,1-2.17-4,11.6,11.6,0,0,0,3.44,1.24,1,1,0,0,0,.3-1.87c-1.09-.49-4.22-2.65-2-6.09,0,0,4,3.74,8.25.94,0,0,4-.15,5-1.57a11.49,11.49,0,0,1-1.57,5.15c-1.42,2-3.1,4-3.1,6.09a2.87,2.87,0,0,0,1.87,2.65,6.73,6.73,0,0,1,1.87-3.74c1.56-1.41,3.58-3.73,3.58-3.73a30.12,30.12,0,0,0,3.59,2c1.42.63,3.43,1.42,3.43,1.42s.94,5.15-.3,6.68-1.56,3.1-4.37,3.29a6.47,6.47,0,0,0,4.52,4s-1.57,5,.79,8.4,6.68,6.84,7.95,8c0,0-3.1,9.19-.15,11.69,0,0-4.37,7.47-5.3,9.82a17.45,17.45,0,0,0,.63,12.77c2.36,5.31.3,10-2,11.36s-.3,2.35.78,2a23.5,23.5,0,0,1,3.1-.48s-5.75,8.4-5.6,14.64,5.9,13.22,7.95,14.94a35.72,35.72,0,0,0-3.1,8.55c-1.38,5.6-3.58,11.2-6.68,11.5s-3.88-.48-5.45-3.1-2.17,1.42-2.17,1.42-.67,6.54,2.17,9.19c2.16,2,4,1.72,6.83,1.87,2.54.15,4-.15,4.52.93s1.42,2.8-1.08,2.65,2.13,1.83,2.13,1.83,4.37,7.92,11.84,7.77,12.47-6.09,14.49-7.32,4,2.65,4,2.65,2,.3,2-4.37-3.59-5.6-5.46-5.9-5.15,1.72-8.25,1.72-4-4.37-4-4.37c6.35,1.68,9.15,1.23,13.37-2.35s5.82-13.15,6.53-14,2.32-.3,3.1-1.23c1.24-1.5-1.42-2.65-2.5-3s-3.44-.79-5.45,2-3.89,3.89-5.6,4-4.08-3-3.29-7.62,7.95-22.26,7.95-22.26c1.87,1.08,3.74,1.38,6.54.3a12.63,12.63,0,0,0,6.39-6.83c.78-2.51,0-5.79.48-7.18s3-.93,2.8-2S209.83,178.33,207.81,180.49ZM144.73,96.42c-.75,0-2.24-2.2-2.88-3.65s-1.12-2.32-1.6-1.72A3.1,3.1,0,0,0,139.5,93c-.37.6-.86,1-1-1.23-1-5.53-1-8.93-11.58-17-2-.75-3.88-1.12-4.1-.49.26,1,1,.75,2.61,1.35a35,35,0,0,1,10.23,10.64c1.24,3.44,2.73,9.63-.29,13.18-1-1.23-2.1-6.2-1.5-6.35-1,.23-1,2.51-1,3.44-.07,2.43.52,10.79,3.4,13.59-1.49.38-5.75,1.72-8.11-7.35-.48-5.53.12-10-.85-14.46-2.88-8.06-6.88-15.2-15.35-15.42-.53-1,15.2-4.71,23.52,4.7,4,4.3,4.64,5.64,5.12,8.71a24,24,0,0,0,3.62,8.33C145.1,95.68,145.48,96.42,144.73,96.42Zm6.8-2c-1.39.6-2.13,1.72-4.11-1a7.7,7.7,0,0,1-3.25-5,11,11,0,0,1-.37-3.32c.11-1,.63-1.94,4,.6C149.66,88.06,152.42,91.87,151.53,94.41ZM167,165.93c.07-3.59.34-6.54,1.57-9.41a19.32,19.32,0,0,1,3.66-5.42c3-2.72,6.95-5.75,9.37-9,2-2.58,3-5.34,2-8.18-.48-.75-1.38-.49-1.49.75-.26,3.06-.86,4.14-2.35,6.72-.15.22-.3.48-.42.67a15.33,15.33,0,0,1-5.82,5.19c-.75.38-1.49.11-1.49-3.55,0-.52,0-1.08.07-1.6.34-3.29,1.53-6.8,2.17-7.32,4.22-4,7.62-8.07,7.35-13.71-.59-2.87-1.3-5.53-2-7.77a50.47,50.47,0,0,0-2.39-6.53c-2-4-2.72-4.67-4.74-4.52.49,1.72,2,2.95,3.1,6.24a17.71,17.71,0,0,1,1.12,4.85,10.4,10.4,0,0,1-1.12,5.08,32.37,32.37,0,0,1-4.48,7c-.86,1.09-.38,2.58-1.23,3.18s-.86,0-1.12-1.23c-.64-.38-1.76-1.12-1.65,1.23.12.75.26,2.69,1.38,3.66-.11.48-1.12.26-1.75-.6-1.49-2.58-3.47-4.41-1.76-9.67.56-2.06,2.92-5.46,4.45-8.67.82-1.71,1.53-3.39,1.31-4.7-.3-1.83-.3-2.28-.49-3.06s-.49-2.47-1.49-2.58-1,1.45-.49,2.31.45,3,.56,4.19a34.44,34.44,0,0,1-1,3.84c-1,2.06-2.72,3.81-3.58,4.11-.38.11-.64-1.23.26-3,.07-.37.15-.75.22-1.16,1.05-5.9,0-14.45-1.6-17.81a14.23,14.23,0,0,0-1.35-2.2c-.26-1-2.65-3.66-3.13-4.3s-1.24-.75-1.61-.11,2.05,5,2.24,5.53c1.05,2.68,1.49,3.25,1.49,8.29,0,1.86-2.87-.34-2.87-.34-.41-1-.37-2.09-1.12-2.8-.75.6-3.55,2.54-3.55,2.54-.49-.11,1.42-2.43,1.79-4,.11-5.64.15-12.74-9.33-18.6-3-1.24-4.15-1.8-6-1.31-2.87-2.32-5.6-4-4.85-5.3,1.49,1.34,8.18,2.31,12,.74,2.35-1,3.13-5,3.54-5.56s1.39-1.12,1.76.86c-.11,2.69-.49,4.7-1.72,5.71,0,.38-3.06,1.83-3.7,2.58.12,1,1.61,1.83,3.37,2.58,4.1,1.45,16.69,10.15,24.83,17.74a19.06,19.06,0,0,0,8.22,5.82c2.13.75,3,.11,4.48-.48.75-.12.6,2.76-.56,3.13s-1.49,1-3.59-.26c-1.86-1.16-3.73-3-4.85-2.31-.37.59-.11,1.34.86,2.46,2.35,1.61,4.11,2.21,5.75,4.52.56,1.12,1.08,2.09,1.57,3,2,3.66,3.55,6.57,5,14.86a57.9,57.9,0,0,1-1.23,13.93,24,24,0,0,1-5,10.46c-1.34,1.53-2.61,2.8-3.77,4-3.85,3.77-6.57,6.31-8.29,13.44a3.31,3.31,0,0,0-.3.82c-1,3.18-1.72,4.93-3,6-.64-2.31-1.57-4.1-2.28-6A13.69,13.69,0,0,1,167,165.93Zm8.48-41.16c.75-1.42,1.68-3.51,2-1.72.26,1.31.82,1.31.63,2.24a10.11,10.11,0,0,1-1.38,2.43,7.83,7.83,0,0,1-1.75,2.69c-.86.79-1.61,1.46-2.51.75C171.81,130.63,174.16,125.85,175.43,124.77Zm13.74,31.78c-.07,2.39-2,6.43-4.82,12.33-.44.75-.93,1.42-1.38,2.05a17.28,17.28,0,0,1-7.47,5.9c-1,.45-1.64,1.16-2.13,1.12-.82-.07.75-1.94,1.12-2.69a22.09,22.09,0,0,0,1.46-4.33c.11-.37.23-.74.34-1.19.48-3,1.9-5.79,5.38-9.79,1.34-1.57,2.05-1.6,3.28-3.4a1.86,1.86,0,0,1,.19-.26c.75-.86,3-3.06,3.85-1A2.58,2.58,0,0,1,189.17,156.55Zm17,32.38c-1.61,2.32-3.59,4.82-7.44,2.95-2-1.23-4.11-2.31-3.62-7.35.63-.75.26-2.58-.26-2.69a3.59,3.59,0,0,0-1.61,3.55c.12,1.71,1.24,6.38-.37,9.07-.49,1.61-1.16,3.36-1.87,5.23-2.54,6.61-5.45,14.45-5.75,15.68-1.23,5.38-1,9.68,3.51,11.4,2,.37,3.62,1.23,6.35-1,.75-.59,2.5-1.6,2.13,0-.64,3.93-2.62,11.51-9.86,12-5.75-.37-9-1.94-10.83-8.44-1-4.67.37-10.42,0-12-.37-.37-1.12-.26-1.12,1.24-1.12,4.29-1.57,11.57,1.31,16,1.23,4.89,1.34,8.52,3.43,10a7.71,7.71,0,0,0,5.38,1.72c2-.11,4.37-1.6,6.24-1.6s4,.48,3.84,1.71-.74.12-1.75,0c-1.87.26-4.63,2.69-6.35,4.15-4.74,2.95-10,5.75-15.35.6-2.61-3.18-6.87-8.82-4.59-13.11,1.53-2.95,2.61-4.15,1.86-5.16s-1-.11-1.12.49c-1,2.69-4.78,8.89-9,8.36s-5.19-3.17-5.41-6.75c1.9,2.83,6.31,2.42,8.55.48s4.22-6,5.45-9.56a93.58,93.58,0,0,1,3.62-10.79c.38-.75.94-1.87,1.87-1.87,2.39,0,4.48,1,7.47-3.29,1-.86.37-2.09-1.12-1.34s-4.37.48-2.5-1.94c.6-.75,1.34-1.57,1.34-1.57.9-.3,2.65-2.47,4.67-5.42,1.27-1.87,3.29-3.62,3.7-5.49s.26-3.17-.75-2.58-1,2.36-1.49,3.81c-.6,1.72-1.61,2.58-3.25,4.19l-.11.11c-1.61,1.61-3.81,3.81-5.64,3.44-.6-.19.07-2.21.71-3.44a5.45,5.45,0,0,1,.41-.71c1.6-2.2,4.63-4.78,7.47-7.1,4.48-5,9.71-9.41,11.09-20.69a.8.8,0,0,1,0-.3c.33-4.81.33-6.83,0-7.2-.64-.49-1.61.48-1.12,2.31-.08,1.72-.15,3.4-.26,4.86a14.1,14.1,0,0,1-1,4.44c-2.62,4.67-6.13,11.28-12.85,17-2.28,2.17-5,4.37-6.31,7.32a8.72,8.72,0,0,0-.67,4.18c-.12,3.44.48,4,2.24,6,.37.48.85,1.6-1.12,1.45-2.88.12-8.11-1.6-10.24-10.9v-.75c.11-5.6,1.31-11.05,5.6-14.94,6.65-4.85,12.48-8.92,16.32-13.85a22.56,22.56,0,0,0,3.63-6.58c.74-2.72,1.45-5.37,1.86-7.8.57-3.36.53-6.28-1-8.48.78-2.13,1.9-4.48,2.61-5.94l.75-1.42a14.32,14.32,0,0,1,1,1.42c1.64,2.58,3.73,7.1,4.67,14.38a64.54,64.54,0,0,1,.45,9.64c-.23,1.49-.49,3.1-.75,4.74-1.12,7.36-2,15.57,1.87,17.78,1.64.74,2.46.71,3.32-.15S206.43,186.51,206.17,188.93Z"/><path d="M14.39,155.92a1.45,1.45,0,0,0-1.76-.19c-.78.34-1.68,0-2.69-.89s-2-4.08,3-5c2.35,0,3.17-.52,5.15,2.5.3.45,1,1.61,1,1.61a18.45,18.45,0,0,1,.45,2.5c-.56,2-2.69,5.08-5.53,4-1-.9-1.6-1.38-1.19-2.17s1.23-1,1.45-1.49A.84.84,0,0,0,14.39,155.92Z"/><path d="M88.41,102.92c-6.61-6.61-7.13-5.64-9.75-5.75-4,.49-6.46,4-6,6.65-.26.37-1.76,2.39-1.61,3.62.86,1.23,2,.49,3.47-.6a15.47,15.47,0,0,0,10.35-1.08c.86-.75.86-.86,1.61-.6,3.88,1,4.25-.74,4.37-1.34s-1.24-1-2.47-.9Zm-8.18-.71c-.11.49-1.42,1.24-1.42,1.24-.74-.83-1.23-3.51.15-3.63,2.09-.18,1.68,1.24,1.57,1.87Z"/></svg>