<svg xmlns="http://www.w3.org/2000/svg" width="240" height="300" viewBox="0 0 240 300"><path d="M80.74 70.92c0-5.37 4.62-3.89 9.06-5.92a50.25 50.25 0 008.32-5l.19 13.88h-17l-.55-3zM154.17 84.24c-4.63 2.77-5.74.18-8.7-2.59s-11.84-9.25-11.84-9.25l23.68 3.88-3.14 8z" fill="#fff" stroke="#000" stroke-linecap="round" stroke-linejoin="round" stroke-width="2" fill-rule="evenodd"/><path d="M80.76 70.1c-.56 5.32-.2 9.17 2.56 11.73s5 1.67 7 1.3 26.82-10.36 34.41-10.36 17.94.37 23.67 5.73c2.58 2.42 5.18 4.26 4.81 5.74s9.25-5.18 9.07-9.44S148.8 62 134.56 60s-33.26 9.43-47 10.54c-4.93.47-6.82 1.19-6.82-.45z" fill="#fff" stroke="#000" stroke-linecap="round" stroke-linejoin="round" stroke-width="2" fill-rule="evenodd"/><path d="M153.75 76.14a1.25 1.25 0 00.34 1.84c.44.35 1.15.69 1.59.15s0-1-.28-1.39a5.08 5.08 0 01-1-1.42 1.37 1.37 0 011.31-1.63 2.36 2.36 0 012.14 1.66 1.39 1.39 0 01-.34 1.32l-.51-.41a1.28 1.28 0 00.23-.63 1.59 1.59 0 00-1.43-1.34.71.71 0 00-.69.92 6.64 6.64 0 001 1.38 1.38 1.38 0 01.15 1.87c-.73.91-1.81.58-2.59-.06a1.79 1.79 0 01-.45-2.67l.51.41zM154.32 72.23l-.35.5-1.4-1-2.61 3.68-.58-.41 2.61-3.67-1.41-1 .36-.5 3.38 2.4zM144.81 67.17l.63.29-.87 1.92 2.42 1.11.87-1.92.64.29-2.13 4.65-.63-.29.99-2.18-2.42-1.1-.99 2.17-.64-.29 2.13-4.65zM139.62 65.87a2.78 2.78 0 011.14.57 1.83 1.83 0 01.55 1.59l-.66-.17a1.24 1.24 0 00-.3-.91 1.79 1.79 0 00-.9-.5 1.59 1.59 0 00-1.29.22 2.3 2.3 0 00-.86 1.42 2.5 2.5 0 000 1.54 1.47 1.47 0 001.12.88 1.66 1.66 0 001.21-.11 1.69 1.69 0 00.77-1.15l-1.55-.39.14-.56 2.18.56-.67 2.65-.44-.11v-.68a2.93 2.93 0 01-.73.37 2.43 2.43 0 01-1.19 0 2.29 2.29 0 01-1.37-1 2.79 2.79 0 01-.17-2.09 2.87 2.87 0 011.18-1.8 2.18 2.18 0 011.84-.33zM134 64.99l.7.07-.52 5.08-.7-.07.52-5.08zM130.07 67a1.41 1.41 0 00.78-.16.8.8 0 00.32-.68.76.76 0 00-.36-.77 1.18 1.18 0 00-.56-.13l-1.68-.09-.1 1.74 1.6.09m-2.16-2.47l2.36.13a2.42 2.42 0 01.95.22 1.22 1.22 0 01.66 1.25 1.47 1.47 0 01-.23.74 1.45 1.45 0 01-.56.44 1 1 0 01.43.34 1.16 1.16 0 01.14.66V69a1.83 1.83 0 000 .44.4.4 0 00.21.32v.12h-.85a.58.58 0 01-.05-.17 4 4 0 010-.41v-.85a.72.72 0 00-.34-.69 1.6 1.6 0 00-.62-.13l-1.57-.08-.12 2.19h-.69l.28-5.11zM108.15 68.03l.68-.14.93 4.4 2.53-.54.13.6-3.21.68-1.06-5zM105.11 72.25l-1.34-2-.21 2.4 1.55-.42m-1.89-2.62l.76-.2 3.12 4.45-.73.2-.9-1.35-2 .53-.13 1.63-.69.18.52-5.44zM96.84 72l.65 3.09a1.76 1.76 0 00.39.87 1.11 1.11 0 001.14.33 1.22 1.22 0 001-.83 1.83 1.83 0 000-.9l-.64-3.09.69-.15.58 2.82a3.24 3.24 0 010 1.47 2.14 2.14 0 01-3.45.71 3.36 3.36 0 01-.46-1.32l-.58-2.82.68-.14zM84.49 76.02l3.55-1.15.19.6-2.9.94.48 1.48 2.68-.87.18.56-2.68.87.53 1.65 2.95-.96.19.58-3.59 1.17-1.58-4.87zM95.77 77.77l-.23.5-.92-.39a2.75 2.75 0 01-1.21.68 2.35 2.35 0 01-2-.28 3.34 3.34 0 01-1-3.54 2.21 2.21 0 011.65-1.41 2.34 2.34 0 012.16.33 2.87 2.87 0 01.93 1.55 3 3 0 01-.15 2.21l.82.35m-2.06 0a.79.79 0 00.29-.2l-.65-.28.23-.5.77.33a2.51 2.51 0 00.11-1.75 2.18 2.18 0 00-.83-1.29 1.63 1.63 0 00-1.39-.2 1.69 1.69 0 00-1.13.84 2.37 2.37 0 00-.06 1.69 2.18 2.18 0 00.82 1.3 1.91 1.91 0 001.84.06z" fill-rule="evenodd"/><path d="M147.27 198.18s-4.37-3.55-5.47-5.18-4.09-6.83-4.09-6.83l7.64-7.92s5.74 7.1 5.74 8.47-3.82 11.46-3.82 11.46zM148.36 159.69s-9.56-7.92-10.38-9.84-1.09-8.73-1.09-8.73l4.64-1.09a30.1 30.1 0 004.37 3 17.52 17.52 0 006 1.64l-3.55 15zM155 91.17l-.19-4.58c-.06-1.44-2.07-3.25-2.07-3.25s-2.38 2.31-2.51 3.19-.18 5.2-.18 5.2l4.95-.56z" fill="#fff" stroke="#000" stroke-linecap="round" stroke-linejoin="round" stroke-width="2" fill-rule="evenodd"/><path fill="#fff" stroke="#000" stroke-linecap="round" stroke-linejoin="round" stroke-width="2" fill-rule="evenodd" d="M158.67 201.56l-1.7-91.96-9.87.34-1.37 92.3 12.94-.68z"/><path d="M149.05 202.44l.87-95.82m-.87 95.82zM147.3 202.44l.18-95.82m-.18 95.82zM154.28 203l.7-96.69m-.7 96.69zM151.67 202.79c-.18-.87.69-96.69.69-96.69m-.69 96.69zM157.25 203.14l.17-97m-.17 97z" fill="none" stroke="#000" stroke-linecap="round" stroke-linejoin="round" stroke-width="2"/><path fill="#fff" stroke="#000" stroke-linecap="round" stroke-linejoin="round" stroke-width="2" fill-rule="evenodd" d="M160.72 208.37v-5.79l-1.7-1.36h-12.27l-3.06 1.7.68 6.13 16.35-.68zM158.3 96.06l-1.82-2.89 3.64-3.19-14.73-.25 3.2 3.44-1.44 2.82 11.15.07z"/><path d="M157.08 105.14l-2.73-2.82s6-5.64 6.77-5.64 1.31 1.32 2.19 1.26 1.38-.44 1.38-1.38-.88-1.38-2.19-1.32L143.2 95c-1.38.06-1.82.88-1.76 1.57a1.79 1.79 0 001.82 1.31c.82-.06 1.07-1.38 1.94-1.31s4.64 5.26 4.64 5.64l-3.13 3 10.37-.06zM159.33 108.09c2.67 3 4.46 4.87 4.32 9.54 0 4.92-6.71 12.38-11.71 16.88s-14 7.8-14 11.8.78 4.39 1.74 5.64c-.79-.91-5-3.73-5-10.29s5.46-13.65 11.74-17.47 13.92-9 13.92-11.74a7.94 7.94 0 00-1-4.36zM158 149.3c.09 2.68 0 4.92.19 7.11.24 2.58-7.92 7.92-11.19 11.19s-11.47 6.83-12 11.75 4.3 9.49 5.43 11.35c-1.24-2.6 1.58-5.62 4.82-8.25 2.86-2.31 9-5.72 12.14-9.11s6.55-8.74 6.55-13.93-3.46-9.29-5.92-10.11z" fill="#fff" stroke="#000" stroke-linecap="round" stroke-linejoin="round" stroke-width="2" fill-rule="evenodd"/><path fill="#fff" stroke="#000" stroke-linecap="round" stroke-linejoin="round" stroke-width="2" fill-rule="evenodd" d="M160.4 107.3l-3.45 2.54-9.99.31-3.32-2.75 3.32-2.26h10.12l3.32 2.16zM112.16 82.78c-7 1.13-8.75 10.16-8.75 10.16s3.11.57 3.11 3.39.28 6.21.28 6.21l6.2-6.78-.85-13z"/><path d="M104 92.66a17.37 17.37 0 00-3.67 5.64s-3.41-7.62-2.56-9.3 3.1-3.67 2.82-5.36-1.69-2-3.39-1.7-1.69 9.88-1.69 12.42.56 7.06 2 8.75 2.54 4.24 4 4.52 5.29-5.63 5.29-5.63.56-5.64-.28-7a7.06 7.06 0 00-2.52-2.34zM130.23 85.32c9.31 5.36 8.18 12.7 7.9 15.24a17.16 17.16 0 000 4.24 58.8 58.8 0 015.64 6.49c1.7 2.54 6.5 9.88 6.5 9.88l-1.7 1.69s-7-5.08-9.88-8.47-15.24-23.71-15.24-23.71l6.78-5.36z" fill="#fff" stroke="#000" stroke-linecap="round" stroke-linejoin="round" stroke-width="2" fill-rule="evenodd"/><path d="M106.8 179l-7.06-99.39M106.8 179z" fill="none" stroke="#000" stroke-linecap="round" stroke-linejoin="round" stroke-width="2"/><path d="M131.27 177.41h-24.43c0-.68 3.32-82.6 3.32-87.12s-.67-8 .29-9 9.52-.77 11.44 0 7.79 2.6 8.27 3.66S129 92.29 129 94.5s2.49 8.17 2.3 11.25 2.51 34.76 2.51 36.88c0 2.61-2.14-1.34-3.11-.09-1.16 1.49 3.38 33.6.56 34.87z" fill="#fff" stroke="#000" stroke-linecap="round" stroke-linejoin="round" stroke-width="2" fill-rule="evenodd"/><path d="M117.18 73.93s-.29 6-.29 7.69 2.69 4.42 4.42 4.71 3.56-1.64 3.37-4.33-1.06-2.31-1.06-5.48A24.84 24.84 0 00123 71l-5.86 2.89z" fill="#fff" stroke="#000" stroke-linecap="round" stroke-linejoin="round" stroke-width="2" fill-rule="evenodd"/><path d="M115.93 66.71a29.21 29.21 0 00-.1 8.18c.29 1 .29 3.94 2 4.23s4.62-3.46 5.48-5.1a14.78 14.78 0 001.25-3.65L120 63.64zM116.12 76.33l2.6-.19m-2.6.19zM118.81 70.46h2m-2 0z" fill="#fff" stroke="#000" stroke-linecap="round" stroke-linejoin="round" stroke-width="2" fill-rule="evenodd"/><path d="M115.45 66.81c-.87-1.83.29-5.39 3.56-5.29s6.82 4.81 6.82 7.21-.67 4.62-1.25 4.62-3.27-7.6-5.48-7.69-2.02 1.25-3.65 1.15zM121.7 95.08c-4.91 9.61-8.66 13-10.39 13.08a26.12 26.12 0 01-3.94-.2l1 20 14 .37m-.68-33.21z" fill="#fff" stroke="#000" stroke-linecap="round" stroke-linejoin="round" stroke-width="2" fill-rule="evenodd"/><path d="M125.93 95.37a53.47 53.47 0 01-19.62 29l1.84 29.65 14.56-14.45m3.22-44.23z" fill="#fff" stroke="#000" stroke-linecap="round" stroke-linejoin="round" stroke-width="2" fill-rule="evenodd"/><path d="M123.53 109.69c-4 30.77-17.5 25.87-17.5 25.87l.74 27.27c11.32-2.71 12.17-11.74 12.17-11.74a7.35 7.35 0 006.77-1.7c2.82-2.82.28-12.14 1.13-16.37a74.68 74.68 0 001.13-8.75m-4.44-14.58z" fill="#fff" stroke="#000" stroke-linecap="round" stroke-linejoin="round" stroke-width="2" fill-rule="evenodd"/><path d="M126.84 111.85c-1.13 4.8-2.26 15-2.26 15m2.26-15zM111 127.38c4.8-2.26 10.73-17.5 10.73-17.5M111 127.38zM123.17 138.67a24 24 0 00.28 7.33m-.28-7.33zM123.45 159c.28-7.06-.56-7.91-.56-7.91m.56 7.91zM125.43 91.81c1.69-2.82 2-7.9 2-7.9m-2 7.9zM131.64 142.33a36.79 36.79 0 01-4.8-2.54m4.8 2.54z" fill="none" stroke="#000" stroke-linecap="round" stroke-linejoin="round" stroke-width="2"/><path d="M92 198.83s4.36-3.55 5.46-5.19 4.09-6.83 4.09-6.83l-7.64-7.92s-5.74 7.1-5.74 8.47S92 198.83 92 198.83zM90.86 160.33s9.56-7.92 10.38-9.83 1.09-8.74 1.09-8.74l-4.64-1.1a29.68 29.68 0 01-4.37 3 17.52 17.52 0 01-6 1.64l3.55 15zM84.24 91.81l.19-4.58C84.49 85.79 86.5 84 86.5 84s2.38 2.31 2.51 3.19.18 5.2.18 5.2z" fill="#fff" stroke="#000" stroke-linecap="round" stroke-linejoin="round" stroke-width="2" fill-rule="evenodd"/><path fill="#fff" stroke="#000" stroke-linecap="round" stroke-linejoin="round" stroke-width="2" fill-rule="evenodd" d="M80.55 202.2l1.7-91.96 9.88.34 1.36 92.3-12.94-.68z"/><path d="M90.18 203.08l-.87-95.82m.87 95.82zM91.92 203.08l-.17-95.82m.17 95.82zM84.94 203.6l-.7-96.69m.7 96.69zM87.56 203.43c.17-.88-.7-96.69-.7-96.69m.7 96.69zM82 203.78l-.18-97m.18 97z" fill="none" stroke="#000" stroke-linecap="round" stroke-linejoin="round" stroke-width="2"/><path fill="#fff" stroke="#000" stroke-linecap="round" stroke-linejoin="round" stroke-width="2" fill-rule="evenodd" d="M78.51 209.01v-5.79l1.7-1.36h12.26l3.06 1.7-.68 6.13-16.34-.68zM80.92 96.69l1.82-2.88-3.63-3.19 14.72-.25-3.19 3.44 1.44 2.82-11.16.06z"/><path d="M82.18 105.59l2.69-2.59s-6-5.64-6.76-5.64-1.32 1.32-2.2 1.26-1.37-.44-1.37-1.38.87-1.38 2.19-1.32L96 95.63c1.38.06 1.81.88 1.75 1.57A1.77 1.77 0 0196 98.51c-.81-.06-1.06-1.38-1.94-1.31s-4.63 5.26-4.63 5.64l3.13 3-10.34-.25zM80.08 108.87c-2.68 3.27-4.57 4.79-4.51 9.4 0 4.92 6.71 12.38 11.71 16.88s14 7.8 14 11.81-.77 4.38-1.74 5.63c.8-.91 5-3.73 5-10.29s-5.47-13.65-11.75-17.47-13.92-9-13.92-11.74a7.7 7.7 0 011.23-4.22zM81.22 149.94c-.09 2.68 0 4.92-.19 7.11-.23 2.58 7.92 7.92 11.2 11.19s11.47 6.83 12 11.75-4.3 9.49-5.43 11.35c1.25-2.6-1.58-5.62-4.82-8.25-2.85-2.31-9-5.72-12.14-9.11s-6.55-8.74-6.55-13.93 3.47-9.29 5.92-10.11z" fill="#fff" stroke="#000" stroke-linecap="round" stroke-linejoin="round" stroke-width="2" fill-rule="evenodd"/><path fill="#fff" stroke="#000" stroke-linecap="round" stroke-linejoin="round" stroke-width="2" fill-rule="evenodd" d="M78.83 107.94l3.44 2.54 10 .31 3.31-2.75-3.31-2.26H82.15l-3.32 2.16z"/><path d="M101.37 137.76l.38.34-1.25 1.42 2.67-.16.54.48-2.25.1-.29 2.84-.51-.46.27-2.36h-.86l-.89 1-.39-.34 2.58-2.91m-1.61-1.56a1.6 1.6 0 01.6 1.05 1.39 1.39 0 01-.24 1l-.39-.34a1 1 0 00.14-.67 1.15 1.15 0 00-.4-.65 1.18 1.18 0 00-1-.31 1.8 1.8 0 00-1.08.69 1.83 1.83 0 00-.5 1 1.14 1.14 0 00.44.95 1 1 0 001 .25 1.78 1.78 0 00.59-.31l.38.34a1.71 1.71 0 01-1 .47 1.6 1.6 0 01-1.27-.45 1.64 1.64 0 01-.58-1.06 2.13 2.13 0 01.66-1.65 2.17 2.17 0 011.27-.76 1.66 1.66 0 011.41.45m-3.08-2.76a1.75 1.75 0 01.7 1.5 2.08 2.08 0 01-.58 1.25 2.29 2.29 0 01-1.29.79 1.75 1.75 0 01-1.55-.47 1.8 1.8 0 01-.67-1.38 2.27 2.27 0 01.62-1.39 2.34 2.34 0 011.18-.75 1.73 1.73 0 011.59.45m-2.36 2.76a1.1 1.1 0 001.08.29 2.17 2.17 0 001-.65 1.62 1.62 0 00.46-1.07 1.22 1.22 0 00-.45-1 1.29 1.29 0 00-1-.34 1.76 1.76 0 00-1.1.66 1.88 1.88 0 00-.48 1 1.25 1.25 0 00.51 1M95 132.09l-.31.35-1-.87-2.27 2.56-.4-.36 2.27-2.56-1-.86.31-.35 2.4 2.09m-6.25-2a.91.91 0 00.2 1.41 1.42 1.42 0 00.46.29.58.58 0 00.74-.13.5.5 0 00.15-.47 1.92 1.92 0 00-.32-.58l-.31-.44a2.2 2.2 0 01-.38-.68.81.81 0 01.2-.79 1.16 1.16 0 01.84-.4 1.45 1.45 0 011 .43 1.76 1.76 0 01.57.91 1 1 0 01-.3 1l-.37-.32a1 1 0 00.19-.47A1 1 0 0091 129a.91.91 0 00-.63-.3.6.6 0 00-.45.21.44.44 0 00-.1.47 3.26 3.26 0 00.39.62l.32.46a1.49 1.49 0 01.29.58.9.9 0 01-.24.84 1 1 0 01-1 .38 2.17 2.17 0 01-1-.51 1.64 1.64 0 01-.6-1 1.27 1.27 0 01.36-1l.37.33m-1.17-4.55l2.11 1.88-.31.35-1.74-1.54-.78.89 1.61 1.42-.3.33-1.61-1.42-.87 1 1.77 1.56-.31.35-2.11-1.92 2.58-2.91M85 123.28l-1.36 3.22 3-1.75.44.4-3.63 2-.42-.37 1.52-3.84.43.38m-1.26-1.12l.4.36-2.58 2.9-.4-.35 2.58-2.91M81.39 120.14l.39.35-2.23 2.51 1.45 1.32-.31.34-1.85-1.66 2.58-2.91zM93.73 173.77l.46.41-.62 3.66 2.09-2.36.37.33-2.57 2.91-.44-.39.59-3.67-2.08 2.34-.38-.33 2.58-2.91M92.69 172.84l.4.36-2.58 2.9-.39-.35 2.57-2.91m-2.8.55l.7-1.67-1.61.86.91.81m.87-2.29l.45.4-1.52 3.84-.43-.39.47-1.13-1.15-1-1.08.59-.41-.36 3.67-1.94M87.2 170.29a1 1 0 00.54.28.59.59 0 00.51-.26.54.54 0 00.15-.62.87.87 0 00-.27-.34l-1-.86-.88 1 .91.8m-.16-2.44l1.38 1.15a1.77 1.77 0 01.46.58.91.91 0 01-.19 1 1.12 1.12 0 01-.49.33 1 1 0 01-.54 0 1 1 0 01.1.41.87.87 0 01-.23.45l-.33.4a1.24 1.24 0 00-.19.28.35.35 0 000 .29l-.05.06-.49-.43a.66.66 0 01.06-.12l.18-.25.41-.5a.53.53 0 00.12-.57 1.09 1.09 0 00-.3-.37l-.9-.79-1.1 1.24-.4-.35 2.58-2.9m-1.85-1.77a1.89 1.89 0 01.57.79 1.35 1.35 0 01-.17 1.26l-.39-.34a1 1 0 00.11-.72 1.37 1.37 0 00-.43-.65 1.18 1.18 0 00-.95-.3 1.78 1.78 0 00-1.08.66 1.94 1.94 0 00-.52 1 1.15 1.15 0 00.46 1 1.15 1.15 0 001.77-.16l-.91-.81.29-.32 1.28 1.13-1.38 1.55-.25-.22.23-.46a1.77 1.77 0 01-.62 0 1.71 1.71 0 01-.79-.44 1.66 1.66 0 01-.59-1.12 2.09 2.09 0 01.61-1.51 2.27 2.27 0 011.42-.81 1.7 1.7 0 011.34.45m-.06-.06M152.55 127a1.13 1.13 0 00.48.36 1.15 1.15 0 001-.27 1.85 1.85 0 00.41-.43.66.66 0 000-.81.55.55 0 00-.47-.25 2.13 2.13 0 00-.69.21l-.52.24a2.51 2.51 0 01-.79.26.9.9 0 01-.8-.38 1.23 1.23 0 01-.25-1 1.57 1.57 0 01.66-1 2 2 0 011.08-.42 1.15 1.15 0 011 .52l-.42.33a.89.89 0 00-1.36 0 1 1 0 00-.44.61.68.68 0 00.12.52.49.49 0 00.48.2 3.74 3.74 0 00.74-.28l.55-.25a1.9 1.9 0 01.68-.19 1 1 0 01.83.44 1 1 0 01.2 1.09 2.33 2.33 0 01-.75 1 1.69 1.69 0 01-1.21.42 1.32 1.32 0 01-1-.59l.43-.32M147.46 127.34l2.42-1.85.31.41-2 1.51.77 1 1.83-1.4.29.38-1.83 1.4.86 1.13 2-1.54.3.39-2.41 1.88-2.53-3.32M144.11 129.89l.53-.41 3.73 1.41-2.05-2.68.42-.33 2.54 3.32-.51.38-3.75-1.38 2 2.68-.43.33-2.53-3.32M143 130.79l.45-.34 2.53 3.31-.45.35-2.53-3.32M139 133.84l.64-.49 3.1 2.07-1.2-3.52.64-.49 2.53 3.32-.43.32-1.49-2c0-.06-.14-.18-.25-.34l-.38-.5 1.19 3.52-.45.34-3.12-2.07.08.1.29.37.28.36 1.5 2-.43.33-2.5-3.32zM143.71 173.68l.45-.35 2.24 2.93 1.68-1.28.3.39-2.13 1.63-2.54-3.32m-1.18.9l.46-.35 2.53 3.32-.45.35-2.54-3.32M140.2 176.22a1.9 1.9 0 011.73-.43 2.34 2.34 0 011.19.88 2.46 2.46 0 01.57 1.52 1.89 1.89 0 01-.83 1.54 1.92 1.92 0 01-1.59.42 2.41 2.41 0 01-1.33-.94 2.48 2.48 0 01-.54-1.41 1.81 1.81 0 01.8-1.58m2.41 3.07a1.17 1.17 0 00.54-1.08 2.25 2.25 0 00-.49-1.19 1.72 1.72 0 00-1-.7 1.28 1.28 0 00-1.11.28 1.38 1.38 0 00-.57 1 1.86 1.86 0 00.47 1.29 1.9 1.9 0 001 .72 1.31 1.31 0 001.19-.31m-2.4-3.08" fill-rule="evenodd"/><path d="M43.22 207l156.14.23-16.66 24.53s-63.15 23.13-65.92 22.67-66.39-23.13-66.39-23.13L43.22 207z" fill="#fff" stroke="#000" stroke-linecap="round" stroke-linejoin="round" stroke-width="2" fill-rule="evenodd"/><path fill="#fff" stroke="#000" stroke-linecap="round" stroke-linejoin="round" stroke-width="2" fill-rule="evenodd" d="M102.2 181.57v34.92l3.48-.92V181.1l-3.48.47zM133.66 181.1l.69 35.39h3.48l-.47-35.39h-3.7z"/><path fill="#fff" stroke="#000" stroke-linecap="round" stroke-linejoin="round" stroke-width="2" fill-rule="evenodd" d="M98.97 215.8l.23 6.01h40.94l-.23-6.01H98.97z"/><path fill="#fff" stroke="#000" stroke-linecap="round" stroke-linejoin="round" stroke-width="2" fill-rule="evenodd" d="M96.88 219.27v5.55l44.88.24-.23-5.79H96.88zM152.57 234.46v9.98l-7.55-.68.09-11.92 7.46 2.62zM93.28 232.62l-.29 10.56-6.68-3.49.77-6.49 6.2-.58z"/><path d="M86.6 237.08c-.39-5.14 1.55-7.75 3.1-7.75s55.9-.2 59 0 3.87 3.19 3.87 4.84v5.52s-.31-3-6.7-3.37-2.5 1.34-26.82 1.14-23.73-1.14-27.42-1.46-4.65.08-5 1.05z" fill="#fff" stroke="#000" stroke-linecap="round" stroke-linejoin="round" stroke-width="2" fill-rule="evenodd"/><path d="M145.26 230.5a1.38 1.38 0 011.33.76 3.39 3.39 0 01.32 1.6 3.86 3.86 0 01-.29 1.59 1.42 1.42 0 01-1.36.91 1.37 1.37 0 01-1.27-.74 3.42 3.42 0 01-.34-1.66 4.28 4.28 0 01.2-1.38 1.42 1.42 0 011.41-1.08m0 4.31a.83.83 0 00.73-.4 2.92 2.92 0 00.28-1.53 3.74 3.74 0 00-.2-1.32.75.75 0 00-.77-.52.8.8 0 00-.77.49 3.42 3.42 0 00-.24 1.45 3.37 3.37 0 00.16 1.16.83.83 0 00.81.67zM140.57 234.08a.76.76 0 00.38.68.8.8 0 00.41.1.93.93 0 00.73-.35 2.92 2.92 0 00.42-1.44 1.09 1.09 0 01-.49.44 1.61 1.61 0 01-.63.12 1.43 1.43 0 01-1.08-.42 1.56 1.56 0 01-.39-1.1 1.78 1.78 0 01.39-1.13 1.58 1.58 0 012.58.44 3.23 3.23 0 01.22 1.28 4.28 4.28 0 01-.26 1.54 1.51 1.51 0 01-1.47 1.12 1.39 1.39 0 01-1-.37 1.23 1.23 0 01-.36-.91h.6m.9-1a.9.9 0 00.94-1 1.06 1.06 0 00-.26-.78.94.94 0 00-.67-.26.86.86 0 00-.69.3 1.13 1.13 0 00-.26.78 1.1 1.1 0 00.23.73.88.88 0 00.66.26zM137.75 232.48a.84.84 0 00.62-.22.74.74 0 00.22-.52.7.7 0 00-.21-.49.85.85 0 00-.65-.22.78.78 0 00-.62.22.81.81 0 00-.19.52.6.6 0 00.25.52.9.9 0 00.58.19m0 2.34a1 1 0 00.68-.22.82.82 0 00.28-.67.87.87 0 00-.28-.69 1.08 1.08 0 00-.72-.24 1 1 0 00-.7.24.86.86 0 00-.27.67.89.89 0 00.25.64 1 1 0 00.76.27m-.85-2.11a1.25 1.25 0 01-.38-.25.91.91 0 01-.26-.69 1.23 1.23 0 01.38-.9 1.46 1.46 0 011.09-.38 1.5 1.5 0 011.06.36 1.08 1.08 0 01.39.83 1.11 1.11 0 01-.23.72 1.32 1.32 0 01-.39.3 1.54 1.54 0 01.47.31 1.24 1.24 0 01.31.86 1.46 1.46 0 01-.42 1.06 1.56 1.56 0 01-1.18.43 1.84 1.84 0 01-1.17-.37 1.31 1.31 0 01-.48-1.09 1.22 1.22 0 01.21-.72 1.25 1.25 0 01.6-.47zM132.8 231.88v-.45a2.56 2.56 0 00.9-.21 1.06 1.06 0 00.38-.7h.46v4.71h-.63v-3.35zM104.65 234a.78.78 0 00.38.68.91.91 0 001.14-.26 2.92 2.92 0 00.42-1.44 1 1 0 01-.49.44 1.44 1.44 0 01-.62.13 1.41 1.41 0 01-1.09-.43A1.55 1.55 0 01104 232a1.79 1.79 0 01.39-1.14 1.59 1.59 0 012.58.45 3.16 3.16 0 01.22 1.28 4.23 4.23 0 01-.26 1.53 1.51 1.51 0 01-1.46 1.12 1.43 1.43 0 01-1.06-.36 1.26 1.26 0 01-.36-.91h.6m.9-1a1 1 0 00.65-.24 1 1 0 00.29-.81 1.06 1.06 0 00-.26-.78.93.93 0 00-.67-.25.85.85 0 00-.69.29 1.13 1.13 0 00-.26.78 1.15 1.15 0 00.23.74.88.88 0 00.71.27zM102 230.36a1.3 1.3 0 011.1.41 1.41 1.41 0 01.32.85h-.59a1.06 1.06 0 00-.17-.44.74.74 0 00-.65-.3.92.92 0 00-.79.46 2.61 2.61 0 00-.33 1.32 1.32 1.32 0 01.52-.45 1.45 1.45 0 01.63-.13 1.57 1.57 0 011 .38 1.42 1.42 0 01.44 1.13 1.71 1.71 0 01-.42 1.14 1.48 1.48 0 01-1.19.5 1.55 1.55 0 01-1.15-.5 2.45 2.45 0 01-.48-1.7 4.68 4.68 0 01.21-1.5 1.53 1.53 0 011.51-1.17m0 4.34a.85.85 0 00.7-.31 1.28 1.28 0 00.23-.75 1.27 1.27 0 00-.21-.69.81.81 0 00-.75-.33 1 1 0 00-.67.25 1 1 0 00-.29.77 1.17 1.17 0 00.26.76.93.93 0 00.73.3zM98.07 232.36a.8.8 0 00.61-.22.7.7 0 00.23-.52.71.71 0 00-.22-.49.87.87 0 00-.64-.22.8.8 0 00-.62.22.76.76 0 00-.19.52.6.6 0 00.25.52.9.9 0 00.58.19m0 2.34a1 1 0 00.68-.22.82.82 0 00.27-.67.85.85 0 00-.28-.69 1 1 0 00-.72-.24 1 1 0 00-.69.24.86.86 0 00-.27.67.93.93 0 00.24.64 1 1 0 00.77.27m-.85-2.11a1.09 1.09 0 01-.38-.25.89.89 0 01-.26-.68 1.2 1.2 0 01.38-.91 1.48 1.48 0 011.08-.38 1.51 1.51 0 011.07.36 1.14 1.14 0 01.16 1.55 1.32 1.32 0 01-.39.3 1.53 1.53 0 01.46.31 1.2 1.2 0 01.32.86 1.46 1.46 0 01-.42 1.06 1.58 1.58 0 01-1.19.43 1.79 1.79 0 01-1.16-.37 1.3 1.3 0 01-.48-1.09 1.22 1.22 0 01.21-.72 1.2 1.2 0 01.6-.47zM93.12 231.76v-.46a2.61 2.61 0 00.9-.2 1.06 1.06 0 00.38-.7h.47v4.71h-.64v-3.35z" fill-rule="evenodd"/><path fill="#fff" stroke="#000" stroke-linecap="round" stroke-linejoin="round" stroke-width="2" fill-rule="evenodd" d="M55.71 222.97l127.92.7-2.09 4.85-120.05.24-5.78-5.79zM99.89 180.18l.23 2.54h8.1l.23-2.77-8.56.23zM131.81 179.95l.23 2.77h6.94l.24-2.77h-7.41zM102.2 176.25l-.23 3.7h34.7v-3.47l-34.47-.23zM123.72 195.22c-.46-2.55-1.62-13.88-5.55-14.11a4.93 4.93 0 00-5.09 3s5.55.7 5.09 3-2.78 8.1-3.94 8.79 7.41-.46 9.49-.69z"/><path fill="#fff" stroke="#000" stroke-linecap="round" stroke-linejoin="round" stroke-width="2" fill-rule="evenodd" d="M115.85 194.06l-.93 15.73 11.11.23-.46-15.27-9.72-.69z"/><path d="M105.68 206s-.21-9.71.46-12.42c.46-2.77 2.08-4.62 4.86-4.39s7.63 5.32 7.63 5.32 7.4-6.71 10.18-6.48a6.65 6.65 0 015.1 5.77c.08 2 .25 12.32.25 12.32s-5.77-6.52-7.67-7.22c-1.62-.46-4.85-.92-4.85-.92l-.45 12.58-2.56-.09s-.23-6-.46-8.33a16.1 16.1 0 00-1.16-4.39s-4.16 2.08-5.55 3.7c-1.68 1.52-5.78 4.55-5.78 4.55z" fill="#fff" stroke="#000" stroke-linecap="round" stroke-linejoin="round" stroke-width="2" fill-rule="evenodd"/><path d="M105.9 206.92l27.76.09v11.56c-.21 10.19-14 24.53-14 24.53s-14-13.19-14-25c-.22-11.78.24-11.18.24-11.18z" fill="#fff" stroke="#000" stroke-linecap="round" stroke-linejoin="round" stroke-width="2" fill-rule="evenodd"/><path fill-rule="evenodd" d="M109.8 220.32l.01 10.41 1.97 3.08-.01-13.49h-1.97zM114.13 220.32l.03 16.69 1.93 2.33v-19.02h-1.96zM118.45 220.32l.01 21.62 1.18 1.16 1.16-1.29v-21.49h-2.35zM123.16 220.32l.02 18.74 1.95-2.46v-16.28h-1.97zM127.48 220.32l.03 12.99 1.94-3.02v-9.97h-1.97zM105.87 220.32h1.97v6.22l-1.97-6.22zM131.43 220.32l.01 6.26 2.1-6.26h-2.11z"/><path fill="#fff" stroke="#000" stroke-linecap="round" stroke-linejoin="round" stroke-width="2" fill-rule="evenodd" d="M105.68 206.71l27.98.3v11.01l-27.98.09v-11.4z"/><path d="M119.68 208l1.16 3.58h3.76l-3 2.2 1.16 3.57-3-2.2-3 2.2 1.16-3.57-3-2.2h3.75l1.16-3.58z" fill-rule="evenodd"/><path fill="#fff" stroke="#000" stroke-linecap="round" stroke-linejoin="round" stroke-width="2" fill-rule="evenodd" d="M189.82 200.96l.97-37.69h2.6l-.32 38.01-3.25-.32z"/><path d="M193.72 144.43v10.4c0 2.92-4.55 7.14-4.23 9.42s3.25 1.95 4.23 1.3 6.17-9.42 6.17-14.62.65-13-.65-13.32-5.85 4.87-5.85 4.87l.33 2zM172.6 194.46s-.65 12.35-.65 15.6-.33 6.82-2.6 8.77-4.22 1.3-4.87 2.6a2 2 0 00.32 2.27l14.62-.33s-.65-11.69-.32-15.91 3.24-10.73 1.62-12-6.82-1.32-8.12-1z" fill="#fff" stroke="#000" stroke-linecap="round" stroke-linejoin="round" stroke-width="2" fill-rule="evenodd"/><path d="M157.33 190.89s7.8 6.17 7.47 8.44-3.9 4.88-2.6 6.18 2.28 1 2.28 1l10.72-9.74-12.35-10.08-5.52 4.23zM182.67 195.76s3.25 4.55 7.47 4.55 9.75-11.7 9.75-11.7-1.95 15.92-9.42 15.6-7.8-5.2-7.8-8.45zM181.37 156.45c1.95-1.62 2.6-11 2.6-11l2.92-5.52s4.88 5.52 7.15 5.2 5.52-.33 5.52-2.27 1-4.88-.64-6.5a148.13 148.13 0 00-11.7-9.42c-1.62-1-18.52-2.93-19.82-2.93s-6.5 3.25-7.15 6.17a133.46 133.46 0 00-1.94 15.27c0 2.6.27 6.56.27 6.56l4.92-3.31 1.63 4.55 16.24 3.25z" fill="#fff" stroke="#000" stroke-linecap="round" stroke-linejoin="round" stroke-width="2" fill-rule="evenodd"/><path d="M164.15 125.26c3.57 3.9 4.55 14 4.55 14s1-5.52 3.57-7.47 8.78-2.27 8.78-5.2-6.83-3.9-8.78-3.9a13.1 13.1 0 00-8.12 2.6z" fill="#fff" stroke="#000" stroke-linecap="round" stroke-linejoin="round" stroke-width="2" fill-rule="evenodd"/><path d="M168.7 123.64c0 3.25 1.3 4.55 2.92 4.87s5.53-1.62 5.2-3.25-8.12-1.62-8.12-1.62z" fill="#fff" stroke="#000" stroke-linecap="round" stroke-linejoin="round" stroke-width="2" fill-rule="evenodd"/><path d="M170 123.31s0 3.9 1.95 3.58 3.58-4.23 3.58-4.23l-5.53.65z" fill="#fff" stroke="#000" stroke-linecap="round" stroke-linejoin="round" stroke-width="2" fill-rule="evenodd"/><path d="M168.85 107.88c-.12 2.29-.36 4.94-.72 5.43a11.06 11.06 0 00-1.69 3.37c-.12 1 1.09.85 1.09.85s-.24 4.46-.36 5.3 1.93.12 2.77 1.57.84 3.5 1.33 3.14a43 43 0 003.25-3.26c1-1.09 2.41-.24 2.78-1.69s.72-12.3.72-12.3l-9.17-2.41zM176.5 194.79c-3.57.32-4.87-.33-5.2-1.95s-.32-12-1-15.6a16.67 16.67 0 00-1.63-5.19s-8.44 6.17-8.44 9.09 2.59 5.2 2.59 5.2l-5.19 4.55s-10.73-6.17-10.73-9.75 11-15.59 13-18.19 2.6-10.07 4.55-10.4 14 .65 15.92 2.28 6.17 8.77 5.85 13.32-1.95 3.9-2.28 5.52 0 2.92-.32 5.2-2 .65-2 2.6.65 10.39-.33 12-1.62 1.3-4.87 1.3z" fill="#fff" stroke="#000" stroke-linecap="round" stroke-linejoin="round" stroke-width="2" fill-rule="evenodd"/><path d="M170.33 104.47c-2.28 2-3.58 2.6-2.93 3.9s5.85 1.62 6.5 3.25a8.52 8.52 0 010 4.22l2.6-.65v7.47s6.5-5.19 5.85-10.39-7.15-5.85-9.1-6.18-1.95-.65-2.92-1.62zM158.24 152.5c.12 1.69.48 10.61-.12 11.94s-1.69 3.49-.24 5.18 3.13 2.41 3.86 1.09-.24-7.48.6-11 1-9.76.36-10.61-4.22-.48-4.46 3.38z" fill="#fff" stroke="#000" stroke-linecap="round" stroke-linejoin="round" stroke-width="2" fill-rule="evenodd"/><path d="M168.73 172a16.77 16.77 0 01-1.69-7.71m1.69 7.71zM163.67 149.24l.12-12.9m-.12 12.9zM184.05 145.5a21.69 21.69 0 01-2.53-2.17c-.61-.72-1.33-1.81-1.33-1.81m3.86 4zM191.52 144.18c-.12-6.15 7.72-7.36 7.72-7.36m-7.72 7.36zM167.29 119.7l1.92.12m-1.92-.12zM168.37 112.22l2.77 2.41m-2.77-2.41z" fill="none" stroke="#000" stroke-linecap="round" stroke-linejoin="round" stroke-width="2"/><path d="M58.58 114.51s-1-3.82-.13-4.58 6.62-4.83 8.27-4.71 4.84 4.84 4.84 4.84l-13 4.45zM61.83 126.51s-21 15.43-21.28 19.4 9.36 15.43 9.36 15.43l4-3.74a35.63 35.63 0 00-1.4-5.38 25.38 25.38 0 00-3-5.37s.47.23 2.8-.7a21.1 21.1 0 004-2.11s-.7 4.68.47 7.25 4.91 8.88 4.91 8.88l13.79-.93s.47-18.24.23-22.45-5.37-12.15-5.37-12.15l-8.42 1.87zM65.11 196.18s5.61 4 7.71 5.84a22.22 22.22 0 012.81 2.83l.22 2.12L70 207l-6.08-7 1.17-3.74z" fill="#fff" stroke="#000" stroke-linecap="round" stroke-linejoin="round" stroke-width="2" fill-rule="evenodd"/><path d="M62.4 126.12c-.25 1 5.74 4.59 7.38 6.46a41.07 41.07 0 005.14 4.42 14.07 14.07 0 00-1.87-7c-2.1-4-1.21-4.61-2.15-4.84s-9.4-.36-8.5 1zM60.43 162.75s-3.74 15.43-4.21 27.82a102.76 102.76 0 002.57 24.78l8.89-1.17v-14.73s16.6-17.07 16.6-19.64-9.12-15-8.65-16.6a8.72 8.72 0 00-.24-4l-15 3.51z" fill="#fff" stroke="#000" stroke-linecap="round" stroke-linejoin="round" stroke-width="2" fill-rule="evenodd"/><path d="M67.91 189.16s2.4-7.46 3.1-9.56a22 22 0 00.91-3.74s2.77 2.32 2.54 3.72-3.51-.47-6.55 9.58z" fill="#fff" stroke="#000" stroke-linecap="round" stroke-linejoin="round" stroke-width="2" fill-rule="evenodd"/><path d="M54.64 194.66a79.24 79.24 0 00-.77-9c-.51-2-2.41-7.89-2.41-12.35a16 16 0 013.69-11.06 15.17 15.17 0 015.72-4.71s2.8 0 7-.13 8-.38 8-.38l-.12 4.45A41.46 41.46 0 0167 163a41.08 41.08 0 01-7.13-.76s-5.85 5.59-5.59 10.94 1.78 13.1 1.65 15.26a41.48 41.48 0 01-1.27 6.24z" fill-rule="evenodd"/><path d="M61.49 126.65a44.84 44.84 0 01.11-7.86 81.56 81.56 0 012.57-8l8.18-.23-.23 11-1.64-.24.7 3.74a15.73 15.73 0 01-9.69 1.55z" fill="#fff" stroke="#000" stroke-linecap="round" stroke-linejoin="round" stroke-width="2" fill-rule="evenodd"/><path d="M63.09 118.16c-5.15 1.16-7.81 3.44-9.44 1.8s1.87-6.55 9.35-9.59 14.49-1.4 15 0-3.27 4-5.14 4.21-5.38 0-6.78.94a19.61 19.61 0 00-3 2.64z" fill="#fff" stroke="#000" stroke-linecap="round" stroke-linejoin="round" stroke-width="2" fill-rule="evenodd"/><path d="M61.39 124c-2.89.14-3.47-2.72-2.13-4.72s4-5.85 7-6.78 5.62 0 5.85 1.63a4.8 4.8 0 01.1 3s-4.31-3.43-6.21-1.61c-1.64 1.87-1.87 5.37-3.27 7-.46.69-.58 1.41-1.38 1.45zM58.56 158.07a5 5 0 014.67-4.91c.89 0 2.34 4.44 2.34 7.48s-1.87 9.12-3.51 9.35-1.16-8-1.16-8H59zM59 215.11l-.24 8.42 18.24-.47a2.62 2.62 0 00-.7-2.57c-1.17-1.17-6.32-1.64-7.25-3.27a11.38 11.38 0 01-1.17-2.57l-8.88.46z" fill="#fff" stroke="#000" stroke-linecap="round" stroke-linejoin="round" stroke-width="2" fill-rule="evenodd"/><path d="M67 126.47c3.43 2 7.5 8.14 7.76 9.16A7 7 0 0175 137m-8-10.56z" fill="none" stroke="#000" stroke-linecap="round" stroke-linejoin="round" stroke-width="2"/><path d="M48.66 159.93a5.43 5.43 0 014.83-3.44s4.45 2.29 4.33 3.44-3.57-.13-3.82.63 1.91 3.18.76 4.33-4.96-2.29-6.1-4.96z" fill="#fff" stroke="#000" stroke-linecap="round" stroke-linejoin="round" stroke-width="2" fill-rule="evenodd"/><path d="M70.83 123.23l-1.44-.2m1.91.26z" fill="#fff" stroke="#000" stroke-linecap="round" stroke-linejoin="round" stroke-width="2"/><path d="M67.74 199.49c.08-3.64-.47-7.54.25-10.94m-.25 10.94z" fill="none" stroke="#000" stroke-linecap="round" stroke-linejoin="round" stroke-width="2"/><path d="M70.54 118a1.27 1.27 0 10-1.27 1.21 1.24 1.24 0 001.27-1.21z" fill-rule="evenodd"/><path d="M71.94 175.83a41.28 41.28 0 00.25-9.54m-.25 9.54z" fill="none" stroke="#000" stroke-linecap="round" stroke-linejoin="round" stroke-width="2"/><path d="M236.85 150A117.27 117.27 0 11119.58 32.89 117.23 117.23 0 01236.85 150zm-23.31-.37c0 52.06-42.09 94.31-94 94.31s-94-42.25-94-94.31 42.1-94.31 94-94.31 94 42.25 94 94.31z" fill="#fff" stroke="#000" stroke-linecap="round" stroke-linejoin="round" stroke-width="2" fill-rule="evenodd"/><path d="M149.66 40.52a7.24 7.24 0 012.93 1.88 5 5 0 011.06 4.46l-1.75-.64a3.37 3.37 0 00-.56-2.57 4.8 4.8 0 00-2.3-1.59 4.24 4.24 0 00-3.56.24 6.2 6.2 0 00-2.73 3.6 7 7 0 00-.37 4.18 4 4 0 002.8 2.68 4.52 4.52 0 003.31.06 4.61 4.61 0 002.41-2.9l-4.09-1.5.54-1.47 5.74 2.11-2.57 7-1.14-.42.19-1.84a7.31 7.31 0 01-2.09.79 6.42 6.42 0 01-3.21-.43 6.16 6.16 0 01-3.45-3 7.65 7.65 0 01.08-5.85 8 8 0 013.7-4.57 6 6 0 015.06-.24zM57.68 56.05l1.95-1.07 11.57 6.56-5.39-9.92 1.58-.85 6.65 12.24-1.86 1.01-11.65-6.5 5.38 9.9-1.58.87-6.65-12.24zM47.26 64.15l1.41-1.28 9.36 10.32-1.41 1.28-9.36-10.32zM28.28 83.28l1.66-2.13 11.75 4.08-6.85-10.37 1.64-2.11 11 8.55-1.11 1.42-6.48-5c-.23-.18-.6-.47-1.11-.89l-1.65-1.31L44 85.82l-1.19 1.48-11.73-4.06.34.26 1.24.94 1.23.92 6.49 5.06-1.11 1.42-11-8.56zM19.32 97.63a6.37 6.37 0 014.37-4 7.71 7.71 0 014.89.65 8.28 8.28 0 014.1 3.55 6.27 6.27 0 01.08 5.83 6.35 6.35 0 01-4 3.76 8 8 0 01-5.4-.6 8.18 8.18 0 01-3.85-3.24 6.05 6.05 0 01-.2-5.92m12 5.11a3.91 3.91 0 00-.17-4A7.58 7.58 0 0027.82 96a5.85 5.85 0 00-4.13-.42 4.34 4.34 0 00-2.79 2.6 4.54 4.54 0 00-.07 3.83 6.23 6.23 0 003.44 3 6.48 6.48 0 004.05.51 4.43 4.43 0 003-2.83zM11.27 122.94l.5-2.14 7.44-2.35-5.59-5.43.51-2.16 6.88 7.05 5.46 1.29-.44 1.84-5.46-1.3-9.3 3.2zM7.3 146.07L18.75 144l-11.17-3.69.1-2.05 11.47-2.6-11.19-3.17.1-2.06 13.74 4.32-.1 1.98-11.69 2.66 11.38 3.78-.1 1.98-14.09 2.97.1-2.05zM12.52 183.36l-2.75-9.26 1.64-.49 2.21 7.46 4.05-1.21-1.94-6.55 1.59-.47 1.94 6.55 6.08-1.8.53 1.81-13.35 3.96zM18.75 199.51a6.36 6.36 0 01-1.44-5.78 7.62 7.62 0 012.91-4 8.24 8.24 0 015.08-1.9 6.27 6.27 0 015.15 2.73 6.3 6.3 0 011.39 5.3 8 8 0 01-3.11 4.45 8.18 8.18 0 01-4.73 1.86 6.07 6.07 0 01-5.29-2.66M29 191.43a3.9 3.9 0 00-3.6-1.77 7.6 7.6 0 00-3.95 1.61 5.85 5.85 0 00-2.35 3.43 4.36 4.36 0 00.94 3.7 4.59 4.59 0 003.33 1.89 6.25 6.25 0 004.3-1.57 6.45 6.45 0 002.33-3.31 4.42 4.42 0 00-1.06-4zM41.17 230.15l-6.66-7.66 1.28-1.12 5.46 6.27 3.19-2.77-5.04-5.8 1.21-1.06 5.05 5.8 3.56-3.1-5.55-6.38 1.25-1.09 6.76 7.77-10.51 9.14zM47.08 236.07l.93-1.37 3.88 2.64 6.9-10.15 1.58 1.08-6.89 10.14 3.88 2.64-.94 1.38-9.34-6.36zM67.33 239.9l-1.1 6.41 4.93-4.31-3.83-2.09m-1.22 8.7l-1.87-1 2.24-14.64 1.82 1-.76 4.34 4.83 2.64 3.32-2.95 1.7.93-11.28 9.67zM76.86 254.26l.54-1.57 4.44 1.51 3.95-11.62 1.82.62-3.96 11.62 4.45 1.51-.53 1.57-10.71-3.64zM102.13 251.58a3.78 3.78 0 00-.25-2 3.69 3.69 0 00-3-1.89 5.87 5.87 0 00-2 0 2.14 2.14 0 00-2 1.81 1.85 1.85 0 00.44 1.72 7.72 7.72 0 002.1 1.17l1.8.72a8.63 8.63 0 012.44 1.32 2.92 2.92 0 01.9 2.78 4 4 0 01-1.77 2.84 5.21 5.21 0 01-3.83.61 6.37 6.37 0 01-3.5-1.64 3.77 3.77 0 01-1-3.57l1.75.28a3.46 3.46 0 00.33 1.79 3.52 3.52 0 002.72 1.54 3.39 3.39 0 002.48-.32 2.2 2.2 0 001-1.49 1.62 1.62 0 00-.61-1.62 12.92 12.92 0 00-2.38-1.14l-1.86-.75a5.93 5.93 0 01-2-1.22 3.32 3.32 0 01-.87-3 3.56 3.56 0 012.19-3 7.56 7.56 0 014-.37 5.89 5.89 0 013.81 2 4.49 4.49 0 01.85 3.76l-1.75-.28zM141.98 260.11l-10 1.78-.3-1.68 8.19-1.46-.75-4.17-7.57 1.36-.28-1.58 7.57-1.36-.84-4.65-8.32 1.49-.3-1.63 10.14-1.82 2.46 13.72zM164.31 253.38l-1.81.59-1.81-5.46-6.88 2.27 1.81 5.47-1.81.6-4.37-13.23 1.81-.6 2.04 6.19 6.88-2.27-2.05-6.19 1.81-.6 4.38 13.23zM174.13 248.35l-.88-1.41 3.97-2.49-6.53-10.39 1.62-1.02 6.53 10.39 3.98-2.5.88 1.4-9.57 6.02zM207.47 220.8l-6.4 7.23-1.28-1.13 5.16-5.82-3.17-2.8-4.53 5.12-1.24-1.11 4.53-5.11-4.74-4.2 1.25-1.41 10.42 9.23zM216.64 210a6.36 6.36 0 01-5.4 2.51 7.62 7.62 0 01-4.46-2.1 8.25 8.25 0 01-2.83-4.62 6.27 6.27 0 011.7-5.58 6.33 6.33 0 014.94-2.37 8 8 0 015 2.2 8.23 8.23 0 012.69 4.26 6.08 6.08 0 01-1.6 5.7m-9.88-8.5a3.93 3.93 0 00-1.06 3.88A7.64 7.64 0 00208 209a5.89 5.89 0 003.82 1.65 4.37 4.37 0 003.45-1.63 4.59 4.59 0 001.22-3.63 6.21 6.21 0 00-2.37-3.92 6.47 6.47 0 00-3.7-1.72 4.43 4.43 0 00-3.7 1.8zM230.06 173.02l-.5 1.81-11.83-3.27-1.88 6.79-1.6-.44 2.38-8.62 13.43 3.73zM223.84 160.26l6.37-1.35-5.84-3-.53 4.33m8.54-2.08l-.26 2.12-14.44 3.33.25-2.06 4.31-.89.67-5.47-4-2 .24-1.92 13.19 6.89zM231.09 135.18l.75 10.12-1.7.13-.62-8.29-4.21.31.57 7.67-1.61.12-.57-7.67-4.71.35.62 8.44-1.65.12-.76-10.27 13.89-1.03zM217.84 118.33a3.75 3.75 0 00-1.62 1.18 3.68 3.68 0 00-.18 3.58 6 6 0 00.94 1.72 2.17 2.17 0 002.56.87 1.83 1.83 0 001.28-1.22 7 7 0 000-2.4l-.24-1.92a8.57 8.57 0 010-2.78 2.92 2.92 0 012-2.13 4 4 0 013.34.17 5.22 5.22 0 012.39 3 6.4 6.4 0 01.26 3.86 3.79 3.79 0 01-2.65 2.59l-.6-1.67a3.45 3.45 0 001.41-1.15 3.56 3.56 0 000-3.13 3.35 3.35 0 00-1.47-2 2.19 2.19 0 00-1.78-.14 1.59 1.59 0 00-1.12 1.32 11.53 11.53 0 00.15 2.63l.24 2a5.87 5.87 0 01-.09 2.35 3.3 3.3 0 01-2.21 2.22 3.56 3.56 0 01-3.69-.46 7.52 7.52 0 01-2.26-3.34 5.85 5.85 0 01-.14-4.28 4.51 4.51 0 012.87-2.57l.61 1.67zM216.96 93.89l-1.42.86-2.43-4.02-10.5 6.35-.99-1.64 10.5-6.35-2.43-4.02 1.41-.85 5.86 9.67zM197.39 81.59l3.44-5.53-6.19 2.14 2.75 3.39m4.42-7.59l1.35 1.65-7.62 12.71-1.31-1.6 2.35-3.76-3.48-4.28-4.18 1.47-1.23-1.5L201.81 74zM182.72 56.97l8.06 6.18-1.04 1.35-6.6-5.06-2.57 3.36 6.11 4.68-.99 1.28-6.1-4.68-2.87 3.75 6.71 5.14-1 1.32-8.18-6.26 8.47-11.06zM83.8 42.81a7.13 7.13 0 013.48-.09 4.94 4.94 0 013.4 3.08l-1.82.46A3.33 3.33 0 0087 44.45a4.78 4.78 0 00-2.79 0 4.24 4.24 0 00-2.81 2.2 6.2 6.2 0 00-.22 4.51 6.93 6.93 0 002 3.67 4.06 4.06 0 003.83.64 4.53 4.53 0 002.76-1.82 4.64 4.64 0 00.37-3.75l-4.24 1.04-.39-1.51 5.94-1.49 1.81 7.23-1.18.29-.87-1.63a6.87 6.87 0 01-1.3 1.83 6.84 6.84 0 01-7.41.94 7.66 7.66 0 01-3.23-4.88 8 8 0 01.49-5.86 6 6 0 014-3zM166.92 55.33a3.63 3.63 0 002.11.5 2.12 2.12 0 001.57-1.33 2.06 2.06 0 000-2.3 3.59 3.59 0 00-1.24-1l-4.08-2.14-2.21 4.22 3.86 2m-2.58-8.55l5.72 3a6.49 6.49 0 012.11 1.63 3.29 3.29 0 01.21 3.83A3.59 3.59 0 01171 56.8a3.63 3.63 0 01-1.87.46 2.79 2.79 0 01.68 1.35 3.05 3.05 0 01-.4 1.76l-.81 1.69a5.82 5.82 0 00-.43 1.11 1.18 1.18 0 00.14 1l-.14.28-2-1.08a1.59 1.59 0 01.08-.48 8.54 8.54 0 01.42-1l1-2.11a2 2 0 000-2.09 4.07 4.07 0 00-1.38-1l-3.81-2-2.92 5.31-1.67-.88 6.45-12.34z" fill-rule="evenodd"/></svg>