<svg xmlns="http://www.w3.org/2000/svg" width="600" height="412" viewBox="0 0 600 412"><title>Artboard 131</title><line x1="21.55" y1="196.45" x2="21.55" y2="198.95" fill="none" stroke="#a3a3a3" stroke-linecap="round" stroke-linejoin="round"/><line x1="21.55" y1="203.78" x2="21.55" y2="326.98" fill="none" stroke="#a3a3a3" stroke-linecap="round" stroke-linejoin="round" stroke-dasharray="4.83 4.83"/><polyline points="21.55 329.4 21.55 331.9 24.05 331.9" fill="none" stroke="#a3a3a3" stroke-linecap="round" stroke-linejoin="round"/><line x1="26.91" y1="331.9" x2="31.19" y2="331.9" fill="none" stroke="#a3a3a3" stroke-linecap="round" stroke-linejoin="round" stroke-dasharray="2.86 2.86"/><line x1="32.62" y1="331.9" x2="35.12" y2="331.9" fill="none" stroke="#a3a3a3" stroke-linecap="round" stroke-linejoin="round"/><line x1="35.12" y1="1.23" x2="32.62" y2="1.23" fill="none" stroke="#a3a3a3" stroke-linecap="round" stroke-linejoin="round"/><line x1="29.76" y1="1.23" x2="25.48" y2="1.23" fill="none" stroke="#a3a3a3" stroke-linecap="round" stroke-linejoin="round" stroke-dasharray="2.86 2.86"/><polyline points="24.05 1.23 21.55 1.23 21.55 3.73" fill="none" stroke="#a3a3a3" stroke-linecap="round" stroke-linejoin="round"/><line x1="21.55" y1="8.59" x2="21.55" y2="132.51" fill="none" stroke="#a3a3a3" stroke-linecap="round" stroke-linejoin="round" stroke-dasharray="4.86 4.86"/><line x1="21.55" y1="134.94" x2="21.55" y2="137.44" fill="none" stroke="#a3a3a3" stroke-linecap="round" stroke-linejoin="round"/><line x1="341.23" y1="399.86" x2="343.73" y2="399.86" fill="none" stroke="#a3a3a3" stroke-linecap="round" stroke-linejoin="round"/><line x1="348.64" y1="399.86" x2="591.83" y2="399.86" fill="none" stroke="#a3a3a3" stroke-linecap="round" stroke-linejoin="round" stroke-dasharray="4.91 4.91"/><polyline points="594.28 399.86 596.78 399.86 596.78 397.36" fill="none" stroke="#a3a3a3" stroke-linecap="round" stroke-linejoin="round"/><line x1="596.78" y1="392.39" x2="596.78" y2="345.21" fill="none" stroke="#a3a3a3" stroke-linecap="round" stroke-linejoin="round" stroke-dasharray="4.97 4.97"/><line x1="596.78" y1="342.73" x2="596.78" y2="340.23" fill="none" stroke="#a3a3a3" stroke-linecap="round" stroke-linejoin="round"/><line x1="46.32" y1="340.23" x2="46.32" y2="342.73" fill="none" stroke="#a3a3a3" stroke-linecap="round" stroke-linejoin="round"/><line x1="46.32" y1="347.7" x2="46.32" y2="394.87" fill="none" stroke="#a3a3a3" stroke-linecap="round" stroke-linejoin="round" stroke-dasharray="4.97 4.97"/><polyline points="46.32 397.36 46.32 399.86 48.82 399.86" fill="none" stroke="#a3a3a3" stroke-linecap="round" stroke-linejoin="round"/><line x1="53.91" y1="399.86" x2="254.98" y2="399.86" fill="none" stroke="#a3a3a3" stroke-linecap="round" stroke-linejoin="round" stroke-dasharray="5.09 5.09"/><line x1="257.52" y1="399.86" x2="260.02" y2="399.86" fill="none" stroke="#a3a3a3" stroke-linecap="round" stroke-linejoin="round"/><path d="M3.67,174.38H2.27l0,0,.34-.76c.21-.46.32-.58.55-.58s1.27.05,2.1.05a2,2,0,0,0,1.43-.46A1.91,1.91,0,0,0,7.56,171l.05-.39c.2-1.38-.63-1.93-1.93-1.93a7,7,0,0,0-1.23.11l-.14-.16.51-1.07h0c2.26-.14,3-1.08,3.16-2.12l0-.23c.16-1.05-.45-1.63-1.67-1.63a2.82,2.82,0,0,0-2,.64l-.2-.16.73-1.31,0,0a4,4,0,0,1,1.86-.33c2.17,0,3,1.06,2.72,2.54l0,.23c-.22,1.38-.92,1.68-2.5,2.48,1.74.26,2.25,1.34,2.09,2.49l-.05.39c-.14,1.06-1,1.75-2,2.51A5.09,5.09,0,0,1,3.67,174.38Z" fill="#727272"/><path d="M15.47,175.6l-1.19-1.26,1.43-10.24H14.3l.11-.72h1.41l.18-1.26a3.78,3.78,0,0,1,1.45-2.77c.9-1,1.22-1.22,2.21-1.22h1.13l0,0-.23.62c-.18.46-.25.53-.43.53s-.74,0-1.2,0c-1,0-1.27.38-1.45,1.59l-.35,2.51h2.21v.72H17l-.78,5.54c-.23,1.59-.42,3.29-.55,4.53l.52.77v0Z" fill="#727272"/><path d="M22.28,170.91c-2.18,0-3-.86-2.74-2.83l.23-1.66a3.71,3.71,0,0,1,1.91-2.79,3.34,3.34,0,0,1,2-.61c1.36,0,2.05.64,2.05,1.81a9,9,0,0,1-.27,1.77l-1.27.69H20.93l-.07.49c-.23,1.63.5,2.16,2.09,2.16a4.58,4.58,0,0,0,2.62-.85h0v.21A3.68,3.68,0,0,1,22.28,170.91ZM21,166.53h3.24a9,9,0,0,0,.19-1.42c0-.83-.5-1.25-1.57-1.25s-1.56.58-1.72,1.69Z" fill="#727272"/><path d="M29.6,170.91c-2.18,0-3-.86-2.74-2.83l.23-1.66A3.74,3.74,0,0,1,29,163.63a3.34,3.34,0,0,1,2-.61c1.36,0,2,.64,2,1.81a8.85,8.85,0,0,1-.26,1.77l-1.28.69H28.26l-.07.49c-.23,1.63.49,2.16,2.08,2.16a4.55,4.55,0,0,0,2.62-.85h0v.21A3.7,3.7,0,0,1,29.6,170.91Zm-1.24-4.38H31.6a9,9,0,0,0,.19-1.42c0-.83-.49-1.25-1.57-1.25s-1.56.58-1.72,1.69Z" fill="#727272"/><path d="M36.62,170.88c-1.41,0-2-.53-1.82-1.88l.74-4.9H34.13l.11-.72h1.43l.33-2.25,1.33-.19,0,0L37,163.38h2.37v.72H36.89l-.73,4.73c-.1.7.18,1,1.26,1a3.4,3.4,0,0,0,1.45-.35h0l0,.16A3,3,0,0,1,36.62,170.88Z" fill="#727272"/><path d="M285.1,408.57h-1.2l0,0,.34-.76c.21-.48.31-.59.54-.59s1.15,0,1.91,0a2.14,2.14,0,0,0,1.44-.44,2.41,2.41,0,0,0,1.08-1.83l.07-.51c.24-1.73-1.1-2.07-3.81-2.3v0l1.34-5.31.05-.05h3.45a1.56,1.56,0,0,0,1.19-.33l.23.15-.78,1.51h0c-.49,0-.95-.05-1.84-.05H287.2l-.72,2.87c2.92.33,4.53.85,4.21,3.13l-.05.39c-.16,1.18-1.12,2-2.23,2.83A5.13,5.13,0,0,1,285.1,408.57Z" fill="#727272"/><path d="M296.78,409.79l-1.19-1.25L297,398.3h-1.41l.1-.73h1.42l.18-1.25a3.82,3.82,0,0,1,1.45-2.78c.9-1,1.22-1.22,2.21-1.22h1.13l0,0-.23.61c-.18.46-.25.53-.43.53s-.74,0-1.2,0c-1,0-1.27.39-1.45,1.59l-.36,2.51h2.22v.73h-2.32l-.78,5.53c-.23,1.59-.42,3.29-.55,4.53l.51.78v0Z" fill="#727272"/><path d="M303.58,405.11c-2.17,0-3-.87-2.74-2.83l.23-1.67a3.74,3.74,0,0,1,1.91-2.79,3.43,3.43,0,0,1,2-.6c1.36,0,2.05.64,2.05,1.8a8.88,8.88,0,0,1-.27,1.77l-1.27.69h-3.22l-.07.5c-.23,1.62.49,2.15,2.09,2.15a4.47,4.47,0,0,0,2.61-.85h0v.22A3.69,3.69,0,0,1,303.58,405.11Zm-1.23-4.39h3.23a8,8,0,0,0,.2-1.41c0-.84-.5-1.26-1.58-1.26s-1.55.58-1.71,1.7Z" fill="#727272"/><path d="M310.91,405.11c-2.18,0-3-.87-2.74-2.83l.23-1.67a3.74,3.74,0,0,1,1.91-2.79,3.4,3.4,0,0,1,2-.6c1.36,0,2.05.64,2.05,1.8a9.53,9.53,0,0,1-.26,1.77l-1.28.69h-3.22l-.07.5c-.23,1.62.5,2.15,2.09,2.15a4.5,4.5,0,0,0,2.62-.85h0v.22A3.68,3.68,0,0,1,310.91,405.11Zm-1.24-4.39h3.24a8.91,8.91,0,0,0,.19-1.41c0-.84-.49-1.26-1.57-1.26s-1.56.58-1.72,1.7Z" fill="#727272"/><path d="M317.93,405.07c-1.41,0-2-.53-1.82-1.87l.74-4.9h-1.41l.1-.73H317l.33-2.24,1.33-.2,0,0-.37,2.42h2.37v.73H318.2l-.73,4.72c-.1.71.18,1,1.26,1a3.27,3.27,0,0,0,1.45-.36h0l0,.16A3,3,0,0,1,317.93,405.07Z" fill="#727272"/><path d="M524.34,378.61l-.42-.35a4.6,4.6,0,0,0,.81-2.6l.16-1.15h-1.38c-1.06,0-2.25,0-2.92,0l0,0-.27-1.19,0-.05,5.41-6.77,0,0,1.69-.5.06,0c-.16.88-.32,1.91-.44,2.81l-.62,4.44h.37a1.49,1.49,0,0,0,1.18-.34l.23.16-.74,1.47,0,0c-.37,0-.76-.05-1.18-.07l-.23,1.63c-.12.9-.11,1-.51,1.43A15.06,15.06,0,0,1,524.34,378.61Zm.73-5.34.47-3.45c.13-.88.23-1.84.3-2.47-2.81,3.57-4,5.12-4.42,5.85.66,0,1.38.07,2.16.07Z" fill="#727272"/><path d="M529.79,369.13,531,369a49.55,49.55,0,0,0,.74-5.27l-1.22.18,0,0,.09-.43,2.57-.65.07,0c-.2.92-.85,5.64-.85,6.17l1.18.09,0,.41v0h-3.91Zm.44,5.43,10.37-12.17h0l.39.59-10.36,12.17h0Zm10.76,0h-4.32l0-.07.37-.92,0-.06c.72-.56,1.45-1.16,2.21-1.87s1.18-1.19,1.18-1.82-.44-.89-1.14-.89a2,2,0,0,0-1.53.52l-.19-.13.55-1.08.05,0a3.28,3.28,0,0,1,1.45-.25c1.24,0,2,.52,2,1.42s-.4,1.27-1.92,2.61a15,15,0,0,0-1.6,1.6h2.11a1.32,1.32,0,0,0,1.11-.41l.23.14-.53,1.24Z" fill="#727272"/><path d="M546.84,373.36l.57-3.17a16.38,16.38,0,0,0,.33-2.53h-1.11l.11-.74,2.6-.09v0l-1.11,6.1c-.07.43.14.64.71.64a4.94,4.94,0,0,0,.92-.11l0,.14a2.65,2.65,0,0,1-2,1C547,374.63,546.68,374.28,546.84,373.36Zm1-9.07c-.17-.34-.1-.45.37-.69s.73-.36.85-.36.25.09.5.57.11.44-.37.69-.73.35-.85.35S548.08,364.76,547.83,364.29Z" fill="#727272"/><path d="M551.42,374.72l0-.05.78-4.69c.25-1.45-.11-2.17-.88-2.32v-.08l1.16-.8h.07a1.49,1.49,0,0,1,1,1.36,3.31,3.31,0,0,1,2.62-1.36,2,2,0,0,1,2,2.62l-.62,3.64c-.1.67.5.73,1.14.62l0,.14a2.86,2.86,0,0,1-1.77.83c-.7,0-.92-.33-.79-1l.67-4c.21-1.22-.3-1.78-1.47-1.78-1,0-1.59.56-1.82,1.91l-.76,4.61-.09.08Z" fill="#727272"/><path d="M560.29,371.84l.23-1.66a3.66,3.66,0,0,1,1.84-2.76,3.94,3.94,0,0,1,2-.64,4.28,4.28,0,0,1,1.68.3l0,.07-.46,1.24h-.07a4.43,4.43,0,0,0-2.3-.58c-.86,0-1.16.37-1.34,1.61l-.34,2.35c-.19,1.34.52,1.89,1.86,1.89a3.84,3.84,0,0,0,2.4-.87h0V373a3.75,3.75,0,0,1-3,1.66C560.82,374.67,560,373.8,560.29,371.84Z" fill="#727272"/><path d="M567.06,374.72l0-.05,1.31-8.65a26.17,26.17,0,0,0,.35-3.09l-.88,0,.07-.57,2.35-.08h0l-.83,5.52a3.49,3.49,0,0,1,2.33-1c1.63,0,2.34,1.08,2.07,2.62l-.62,3.64c-.11.67.5.73,1.13.62l0,.14a2.89,2.89,0,0,1-1.77.83c-.71,0-.92-.33-.8-1l.68-4c.21-1.22-.32-1.78-1.4-1.78a2,2,0,0,0-1.82,1l-.83,5.51-.09.08Z" fill="#727272"/><path d="M578.66,374.67c-2.17,0-3-.87-2.74-2.83l.23-1.66a3.75,3.75,0,0,1,1.91-2.8,3.43,3.43,0,0,1,2-.6c1.36,0,2.05.64,2.05,1.8a8.88,8.88,0,0,1-.27,1.77l-1.27.69h-3.22l-.07.5c-.23,1.62.49,2.16,2.09,2.16a4.55,4.55,0,0,0,2.61-.85h0v.21A3.69,3.69,0,0,1,578.66,374.67Zm-1.23-4.39h3.23a8,8,0,0,0,.2-1.41c0-.83-.5-1.26-1.58-1.26s-1.55.59-1.71,1.7Z" fill="#727272"/><path d="M583.07,374.4l0,0-.07-1.28h0a7.55,7.55,0,0,0,2.85.62c.82,0,1-.29,1.15-1.17s-.09-1.12-.87-1.19l-.72-.07c-1.57-.16-2.16-.33-1.93-1.85a2.22,2.22,0,0,1,1.35-1.91c1-.61,1.3-.69,1.73-.69s1.45.07,2,.08l0,0-.32.76c-.09.23-.21.32-.41.32s-1.48-.2-2.26-.2c-.6,0-.78.27-.88,1.12s.08,1.11.86,1.18l.73.07c1.57.16,2.15.34,1.93,1.86a2.28,2.28,0,0,1-1.37,1.91,3.4,3.4,0,0,1-2.05.71A6.12,6.12,0,0,1,583.07,374.4Z" fill="#727272"/><line x1="554.48" y1="340.23" x2="554.48" y2="354.84" fill="none" stroke="#a3a3a3" stroke-linecap="round" stroke-linejoin="round" stroke-dasharray="5 5"/><line x1="554.48" y1="347.54" x2="596.81" y2="347.54" fill="none" stroke="#a3a3a3" stroke-linecap="round" stroke-linejoin="round" stroke-dasharray="5 5"/><rect x="45.1" y="1.23" width="509.7" height="330.62" fill="#fff" stroke="#50d6cc" stroke-miterlimit="10"/><rect x="554.81" y="1.23" width="6.89" height="330.62" fill="#fff" stroke="#50d6cc" stroke-miterlimit="10"/><rect x="561.7" y="1.23" width="34.44" height="330.62" fill="#fff" stroke="#50d6cc" stroke-miterlimit="10"/><circle cx="299.96" cy="166.54" r="89.54" fill="#fff" stroke="#50d6cc" stroke-miterlimit="10"/><circle cx="299.96" cy="166.54" r="82.65" fill="none" stroke="#50d6cc" stroke-miterlimit="10"/><polygon points="298.89 198.18 298.89 169.82 282.22 192.76 255.25 184 271.92 206.94 255.25 229.88 282.22 221.12 298.89 244.06 298.89 215.7 325.86 206.94 298.89 198.18" fill="#fff" stroke="#50d6cc" stroke-miterlimit="10"/><polygon points="273.09 149.81 297.65 163.99 286.12 138.08 307.19 119.1 278.99 122.07 267.45 96.16 261.56 123.9 233.36 126.86 257.92 141.04 252.02 168.78 273.09 149.81" fill="#fff" stroke="#50d6cc" stroke-miterlimit="10"/><polygon points="348.96 170.62 377.16 173.59 356.09 154.61 367.62 128.71 343.06 142.89 321.99 123.91 327.88 151.65 303.32 165.83 331.53 168.79 337.42 196.53 348.96 170.62" fill="#fff" stroke="#50d6cc" stroke-miterlimit="10"/><line x1="361.94" y1="359.11" x2="364.44" y2="359.11" fill="none" stroke="#a3a3a3" stroke-linecap="round" stroke-linejoin="round"/><line x1="369.89" y1="359.11" x2="378.06" y2="359.11" fill="none" stroke="#a3a3a3" stroke-linecap="round" stroke-linejoin="round" stroke-dasharray="5.45 5.45"/><polyline points="380.78 359.11 383.28 359.11 383.28 356.61" fill="none" stroke="#a3a3a3" stroke-linecap="round" stroke-linejoin="round"/><line x1="383.28" y1="351.62" x2="383.28" y2="114.31" fill="none" stroke="#a3a3a3" stroke-linecap="round" stroke-linejoin="round" stroke-dasharray="5 5"/><line x1="383.28" y1="111.81" x2="383.28" y2="109.31" fill="none" stroke="#a3a3a3" stroke-linecap="round" stroke-linejoin="round"/><path d="M255.83,363.64l1.93-.09c.21-1,.86-5.7.92-6.76l-1.75,0,0,0,.16-.55,3.25-.53.07,0c-.49,3-.92,6.42-1.09,7.77l1.89.09.09.53v.05h-5.52Z" fill="#727272"/><path d="M267.31,369.05l-1.19-1.26,1.44-10.24h-1.42l.11-.72h1.41l.18-1.26a3.85,3.85,0,0,1,1.45-2.77c.9-1,1.22-1.22,2.21-1.22h1.13l0,0-.23.62c-.18.46-.25.53-.42.53s-.75,0-1.21,0c-1,0-1.27.39-1.45,1.6l-.35,2.51h2.21v.72h-2.32l-.77,5.54c-.24,1.59-.43,3.29-.55,4.53l.51.77v0Z" fill="#727272"/><path d="M271.38,361.53l.23-1.66a3.56,3.56,0,0,1,1.84-2.69,3.94,3.94,0,0,1,2.08-.71c1.91,0,2.66.89,2.39,2.85l-.23,1.66a3.6,3.6,0,0,1-1.84,2.69,4,4,0,0,1-2.08.69C271.86,364.36,271.11,363.5,271.38,361.53Zm4.9.13.28-2c.23-1.64-.35-2.24-1.77-2.24-1.1,0-1.59.53-1.77,1.8l-.28,2.05c-.23,1.63.35,2.23,1.77,2.23C275.6,363.46,276.1,362.93,276.28,361.66Z" fill="#727272"/><path d="M279.5,361.53l.23-1.66a3.56,3.56,0,0,1,1.84-2.69,3.94,3.94,0,0,1,2.08-.71c1.91,0,2.66.89,2.39,2.85l-.23,1.66a3.6,3.6,0,0,1-1.84,2.69,4,4,0,0,1-2.09.69C280,364.36,279.23,363.5,279.5,361.53Zm4.9.13.28-2c.23-1.64-.36-2.24-1.77-2.24-1.1,0-1.59.53-1.77,1.8l-.28,2.05c-.23,1.63.35,2.23,1.77,2.23C283.72,363.46,284.22,362.93,284.4,361.66Z" fill="#727272"/><path d="M289.88,364.33c-1.41,0-2-.53-1.82-1.88l.74-4.9h-1.41l.1-.72h1.43l.34-2.25,1.33-.19h0l-.37,2.43h2.37v.72h-2.47l-.73,4.72c-.11.71.18,1,1.26,1a3.44,3.44,0,0,0,1.45-.35h0l0,.16A3,3,0,0,1,289.88,364.33Z" fill="#727272"/><path d="M299.22,364.36c-1.8,0-2.78-1-2.48-3.25l.2-1.45a8.2,8.2,0,0,1,2.07-5,5.68,5.68,0,0,1,3.43-2.13l.05,0,.13.78c.05.33,0,.4-.29.49-.95.34-2.07.25-2.81,1.12-.42.49-.62.86-.94,3a3.49,3.49,0,0,1,2.55-1,2.11,2.11,0,0,1,2.26,2.6l-.16,1.17a3.6,3.6,0,0,1-1.76,2.87A4.28,4.28,0,0,1,299.22,364.36Zm.78-.92c1.24,0,1.54-.49,1.75-1.94l.19-1.38c.23-1.59-.32-2.16-1.55-2.16a2.2,2.2,0,0,0-1.93.87l-.28,2C297.93,362.59,298.6,363.44,300,363.44Z" fill="#727272"/><path d="M308.56,363.05l.57-3.16a16.67,16.67,0,0,0,.33-2.53h-1.11l.1-.74,2.6-.09,0,0-1.11,6.1c-.07.42.14.63.7.63a4.67,4.67,0,0,0,.92-.1l0,.14a2.68,2.68,0,0,1-2,1C308.75,364.33,308.4,364,308.56,363.05Zm1-9.07c-.18-.34-.11-.44.37-.69s.73-.35.85-.35.25.09.5.56.1.44-.38.69-.72.36-.84.36S309.8,354.46,309.55,354Z" fill="#727272"/><path d="M313.14,364.41l-.05-.05.78-4.68c.24-1.46-.11-2.18-.89-2.32v-.09l1.17-.8h.07a1.51,1.51,0,0,1,1,1.37,3.29,3.29,0,0,1,2.62-1.37,2,2,0,0,1,2.05,2.62l-.62,3.64c-.11.68.5.73,1.13.62l0,.15a2.89,2.89,0,0,1-1.77.83c-.71,0-.92-.34-.8-1.05l.67-4c.22-1.22-.29-1.79-1.46-1.79-1,0-1.59.57-1.82,1.91l-.76,4.62-.09.07Z" fill="#727272"/><path d="M322,361.53l.23-1.66a3.7,3.7,0,0,1,1.84-2.76,3.94,3.94,0,0,1,2.05-.64,4.43,4.43,0,0,1,1.68.3l0,.07-.46,1.24h-.07a4.46,4.46,0,0,0-2.3-.58c-.87,0-1.17.37-1.34,1.61l-.34,2.35c-.19,1.34.51,1.89,1.86,1.89a3.83,3.83,0,0,0,2.4-.86h0v.21a3.76,3.76,0,0,1-3,1.66C322.53,364.36,321.74,363.5,322,361.53Z" fill="#727272"/><path d="M328.78,364.41l0-.05,1.3-8.65a24.81,24.81,0,0,0,.36-3.09l-.89,0,.07-.56,2.36-.09,0,0-.84,5.51a3.51,3.51,0,0,1,2.34-1c1.62,0,2.33,1.08,2.07,2.62l-.62,3.64c-.11.68.49.73,1.13.62l0,.15a2.91,2.91,0,0,1-1.77.83c-.71,0-.92-.34-.8-1.05l.67-4c.22-1.22-.31-1.79-1.39-1.79a2.09,2.09,0,0,0-1.83,1l-.83,5.52-.09.07Z" fill="#727272"/><path d="M340.38,364.36c-2.17,0-3-.86-2.74-2.83l.23-1.66a3.74,3.74,0,0,1,1.91-2.79,3.34,3.34,0,0,1,2-.61c1.37,0,2.06.64,2.06,1.81a9,9,0,0,1-.27,1.77l-1.27.69H339l-.07.49c-.23,1.63.49,2.16,2.08,2.16a4.55,4.55,0,0,0,2.62-.85h0v.21A3.69,3.69,0,0,1,340.38,364.36ZM339.14,360h3.24a8,8,0,0,0,.19-1.42c0-.83-.49-1.26-1.57-1.26s-1.55.59-1.71,1.7Z" fill="#727272"/><path d="M344.79,364.1l0,0-.07-1.27.05,0a7.36,7.36,0,0,0,2.85.62c.81,0,1-.28,1.15-1.17s-.09-1.11-.87-1.18l-.72-.07c-1.58-.16-2.16-.34-1.93-1.86a2.23,2.23,0,0,1,1.34-1.91c1-.6,1.31-.69,1.74-.69s1.45.07,2,.09l0,0-.32.76c-.09.23-.21.32-.41.32s-1.48-.19-2.26-.19c-.6,0-.78.26-.89,1.11s.09,1.12.87,1.19l.73.07c1.57.16,2.15.33,1.92,1.85a2.24,2.24,0,0,1-1.36,1.91,3.4,3.4,0,0,1-2.05.71A6.41,6.41,0,0,1,344.79,364.1Z" fill="#727272"/><line x1="217.97" y1="109.31" x2="217.97" y2="111.81" fill="none" stroke="#a3a3a3" stroke-linecap="round" stroke-linejoin="round"/><line x1="217.97" y1="116.81" x2="217.97" y2="354.11" fill="none" stroke="#a3a3a3" stroke-linecap="round" stroke-linejoin="round" stroke-dasharray="5 5"/><polyline points="217.97 356.61 217.97 359.11 220.47 359.11" fill="none" stroke="#a3a3a3" stroke-linecap="round" stroke-linejoin="round"/><line x1="226.21" y1="359.11" x2="234.82" y2="359.11" fill="none" stroke="#a3a3a3" stroke-linecap="round" stroke-linejoin="round" stroke-dasharray="5.74 5.74"/><line x1="237.69" y1="359.11" x2="240.19" y2="359.11" fill="none" stroke="#a3a3a3" stroke-linecap="round" stroke-linejoin="round"/></svg>