<svg xmlns="http://www.w3.org/2000/svg" width="148" height="300" viewBox="0 0 148 300"><title>flag-vermont-icon-tree</title><path d="M68.54,273.16c-.56-.68-.73-1.49-.39-1.81s.79-.13,1,.42a1.73,1.73,0,0,0,1.55,1c.65,0,1,.36.69.8Q70.32,275.29,68.54,273.16Zm5.67,0a2,2,0,0,1-.11-2.59c.8-1.37.85-1.37.87.11,0,1,.31,1.29.79.81s.49-2,.09-4c-.37-1.77-.88-5.35-1.12-8-.64-6.81,1-4.6,2.07,2.83.55,3.78,1.44,6.57,2.45,7.7s1.38,2.27,1,3.22c-.52,1.28-.68,1.22-1.37-.56l-.78-2-1.47,1.8C75.39,274.08,75,274.18,74.21,273.2Zm-10.41-.37c-1-.6-.93-.92.2-2.05,1.52-1.52,1.62-1.89,3.32-12.89a121,121,0,0,0,1-19.92l-.22-11.88,4.73-4.61,4.73-4.62-.6,16.5c-.33,9.07-.58,17.11-.55,17.88a2.32,2.32,0,0,1-.82,1.94c-.63.39-.75-3-.4-11.94.42-10.55.3-12.76-.76-14.27-1.57-2.24-3-1.1-2.07,1.63C73.71,232.38,73,239.3,71,242c-1.18,1.6-1.6,2.88-1.17,3.58a5.19,5.19,0,0,1,.44,2.89c-.13,1,.15,1.81.63,1.81s.86-1.31.86-2.91c0-2.51.17-2.78,1.21-1.91.76.63,1,1.35.51,1.91-.87,1.09-1.83,5.73-1.8,8.73,0,1.3-.39,2.12-1,2s-.89.63-.74,2c.16,1.56-.14,2.22-1,2.22s-1.22.77-1.18,2.61c0,2.19.17,2.36.75,1,.66-1.53.69-1.52.75.22a2.46,2.46,0,0,1-1.15,2.3A1.82,1.82,0,0,0,67,269.89c0,1.87-2,3.7-3.15,2.94ZM71.39,231c-.57-3.33-2-4.56-2-1.72,0,2.08,1.54,6,2.12,5.45C71.73,234.48,71.69,232.8,71.39,231Z"/><path d="M34.81,236.27a6.75,6.75,0,0,1,2.64-1.38,7.16,7.16,0,0,0,3.45-2.79c1-1.71,1.64-2,3.83-2s10-2.66,8.12-2.72c-.25,0-5.12,1.06-10.82,2.38-7.4,1.72-12,2.4-16,2.39-5.5,0-8.45-.81-6.92-1.87.41-.29,2.14-1.67,3.84-3.08,2.09-1.73,3.78-2.57,5.19-2.57,1.66,0,2.74-.74,5.27-3.6a42.62,42.62,0,0,1,5.32-5.11c1.94-1.38,2-1.56.81-2-1.87-.72-8.8-.63-19.11.26-11.71,1-14.85.65-16.33-1.86a15.63,15.63,0,0,1-1.54-4.89l-.41-3,5.2-3.93c4.08-3.09,5.73-3.94,7.64-3.94,2.93,0,7.15-2.92,7.15-4.94,0-1-.32-1.24-1.09-.95a23.88,23.88,0,0,1-3.67.83c-2.36.38-2.74.21-4.27-1.88a26.09,26.09,0,0,1-2.82-5.33c-1.06-2.82-1.06-3.12,0-4.28,1.36-1.5,5.93-1.64,8.43-.26,1.66.92,2.79.52,6.15-2.16.18-.14-.59-1-1.71-1.92-1.71-1.4-1.86-1.77-1-2.36,1.52-1,5.52-2.06,8-2.07,1.81,0,2.29-.33,2.66-1.77.67-2.69-1.32-4.76-8.64-9-3.57-2.05-6.79-4-7.14-4.36s0-1.29,1-2.37c1.46-1.55,1.54-1.91.73-3.22s-.73-1.62,1-3c2.33-1.86,3.25-1.58,7.18,2.2l3.08,3,4.62-1.13c2.54-.61,4.61-1.32,4.61-1.56,0-.69-10.77-5.49-12.31-5.49-.77,0-1.38-.45-1.38-1s-.64-1-1.71-1c-1.33,0-1.71-.35-1.71-1.58s-.56-1.73-3.47-2.48c-3.87-1-4.43-1.71-3.42-4.38.77-2,2.18-2.36,3.47-.8s1.78,1.28,2.74-1c.6-1.47,1.31-2,2.47-2,1,0,1.63.4,1.63,1,0,1.2.93,1.31,2.75.34,1-.52,1.49-.4,2.18.55a22,22,0,0,0,4.15,3.4c2.68,1.8,3.56,2.06,5,1.53.94-.36,1.71-.84,1.71-1.07a40.83,40.83,0,0,0-3.77-5c-3.41-4.1-4.55-6.29-3.3-6.29a4.06,4.06,0,0,1,1.56,1c.88.79,2,.87,5.43.38,2.38-.34,4.86-1.09,5.51-1.68,1.72-1.56,2.13-1.41,6.35,2.35,2.11,1.89,4.16,3.43,4.54,3.43,2.38,0,.59-2-6.41-7.19-6.5-4.8-7.86-6.11-7.51-7.2s-.31-2-2.26-3.91A32.56,32.56,0,0,1,36.94,106l-1.87-3.24,1.47-1.87L38,99l-1.75-1.28c-2.5-1.82-2.2-2.4,1.49-2.85A34,34,0,0,0,43,93.83c1.6-.52,2.48-.38,4.32.7,3.12,1.85,3.4,1.76,3.91-1.24.43-2.52.5-2.58,3-2.3l2.53.29-3.51-3.15c-3.3-3-9.16-11.51-9.16-13.35,0-.46.7-1.11,1.55-1.44,1.48-.58,1.45-.64-.69-1.42C42.4,71,42.22,70.19,44.05,68c2.31-2.76,8.25-2.62,8.25.2,0,1.16,3.77,1.43,4.45.32.23-.38.09-.68-.32-.68s-1.66-1.46-2.79-3.24c-2-3.12-2-3.24-.67-3.74.76-.28,1.38-.83,1.38-1.22,0-1.36,1.73-.7,3.43,1.31a8.54,8.54,0,0,0,3.76,2.52c1.94.47,1.84.26-2.06-4a58.55,58.55,0,0,1-5.34-6.62l-1.23-2.13H54.6a7.72,7.72,0,0,1,3.88,1.84c1.85,1.55,5.46,2.8,5.46,1.89a13.6,13.6,0,0,0-2.74-2c-1.51-1-2.74-2.18-2.74-2.74,0-1.35,1-1.29,2.14.11.86,1,4.66,3,5.83,3,.27,0-.8-1.11-2.37-2.45-2.25-1.93-2.86-2.91-2.85-4.62,0-4.48,1-4.5,5-.1,2,2.25,4,3.85,4.27,3.56s-.48-1.57-1.72-2.85A9.47,9.47,0,0,1,66.27,42c-.22-1.88,0-2.05,2.48-2.46,3.06-.48,3.32-1,1.35-2.81s-1.72-2.32,1.37-2.82S74.81,32.67,73,30.7c-1-1.09-1-1.38-.2-1.89a1.74,1.74,0,0,1,1.51-.26c.3.19.87-.5,1.26-1.52,1.14-3,2.16-1,2.77,5.33.29,3.13.56,5.77.58,5.86a19.58,19.58,0,0,0,2.54-2.58c1.37-1.52,2.59-2.66,2.72-2.53a29.33,29.33,0,0,1-2.48,5.32c-1.48,2.8-2.7,5.87-2.7,6.81V47l1.52-1.74c.83-1,2.44-2.89,3.57-4.3,2.27-2.83,7.14-5,8-3.65,1.06,1.67.43,3.44-2.14,6-3.43,3.43-4.56,5.2-5.21,8.12-.45,2.09-.39,2.27.53,1.51.72-.6,1.13-.64,1.3-.13s1.3-.19,2.59-1.34a10.47,10.47,0,0,1,2.91-2.09c.32,0,.91-.74,1.33-1.64.66-1.46,1-1.57,2.71-1s1.85.9,1.29,2a5.88,5.88,0,0,0-.68,2.21c0,.53-1.39,2.47-3.09,4.33-2.54,2.76-3,3.69-2.7,5.2a6.55,6.55,0,0,1-.72,4C88.44,68,89.53,67.42,93,63c1.79-2.28,3.41-4,3.59-3.82s-1.73,3.3-4.26,6.92-4.42,6.76-4.21,7,2.66-1.5,5.44-3.8c6.74-5.57,9-5.45,7.55.43-.46,1.93-1,2.58-2,2.58-1.5,0-11.91,9.17-11.91,10.49a.94.94,0,0,0,1,.8,1,1,0,0,0,1-1c0-.55,1.47-1.75,3.25-2.66a20,20,0,0,0,4.56-3.09,4.87,4.87,0,0,1,3.12-1.44,4.1,4.1,0,0,0,3.23-1.89,13.65,13.65,0,0,1,3.41-3l2-1.15-.29,2.52c-.46,4-5.78,11.15-10.33,13.83-4.29,2.52-6.21,4-6.21,4.88,0,1,3,.6,6.09-.82a9.73,9.73,0,0,1,3.27-1.11c.93.93-1.41,2.94-6.53,5.61-6.9,3.61-7.8,4.25-8.9,6.31-1,1.88-.54,1.93,2.23.23A44.87,44.87,0,0,1,94.05,98a21.37,21.37,0,0,0,5.88-3.5c1.93-1.85,7.13-3.57,7.13-2.35s-10.42,14.6-11.91,15.39a10.25,10.25,0,0,0-3.05,3.36c-.79,1.37-2.13,3.57-3,4.89l-1.54,2.4,2.38-2a151.62,151.62,0,0,0,15.76-15.81c1.67-2.09,3.27-3.8,3.56-3.8,1.5,0-1,8-3.81,12.26a11,11,0,0,0-1.83,4.73,4.88,4.88,0,0,1-1.37,3.2,3.93,3.93,0,0,0-1.35,2c0,.79,1-.24,6.48-7,2.62-3.23,3.85-4.21,5.23-4.22,2.71,0,2.85,1.62.55,6.48-1.72,3.64-2.85,5-6.69,7.81-5.18,3.83-6,4.74-8.35,8.64-1.48,2.5-1.17,2.31,3.66-2.23,2.89-2.73,5.81-5,6.47-5s2-1.22,2.9-2.74c1.79-2.9,3.92-3.58,5.45-1.74,1.3,1.58.23,3.59-4.84,9.06-4.74,5.1-5.9,7.06-3.44,5.74,1-.53,1.57-.38,2.5.66a4.89,4.89,0,0,0,3.17,1.34c1.48,0,1.95.33,1.95,1.35,0,2.06-2.16,6.12-3.47,6.54a2.48,2.48,0,0,0-1.49,1.59c-.55,2.08-6.39,6.3-11.43,8.26l-4.81,1.87,2,1.51,2,1.51,3.59-2.7a23.68,23.68,0,0,1,6.89-3.54,16,16,0,0,0,6.92-4.14c2-1.82,3.83-3.11,4.08-2.86a8.1,8.1,0,0,0,3.46.29c3.56-.18,4.26.94,2.92,4.7s-3.08,5.93-6.88,8.72c-3.19,2.34-3.36,2.59-1.87,2.8,2.8.4-5.81,4.7-14,7-4.35,1.21-8.5,2.88-10.29,4.11-4.16,2.86-3.76,3.19.85.7,2.63-1.42,4.19-1.9,4.91-1.5s2.14.13,4.07-.7c3.42-1.47,5-1.62,6.1-.56.51.51,1.45.23,3.19-1a15.2,15.2,0,0,1,7.1-2.17c2.9-.31,5.38-1,6.59-1.88,2.5-1.78,4.14-.65,2.19,1.51-1.56,1.73-1.24,1.74,6.71.28,9.22-1.69,9.74-1,3.23,4.62-5.84,5-7.74,5.84-14.58,6.45-2.54.23-4.62.7-4.62,1.05s.52.63,1.16.63c4.79,0-12.45,5.57-23.41,7.57-4.51.83-8.59,1.81-9.06,2.18s-.86.43-.86-.13-.31-.62-.69-.38-.43.89,0,1.8c.69,1.28.85,1.3,2.38.3,2-1.3,4.72-1.45,4.22-.22-1.48,3.62-1.51,3.48.6,3a10.6,10.6,0,0,0,3.88-2.28c1.37-1.31,1.88-1.51,1.88-.74s1.21,1.15,5.65,1.49c8.15.64,12.15.55,12.15-.26a7.39,7.39,0,0,0-1.18-2.51l-1.19-1.8,2.11.42a3.68,3.68,0,0,0,2.88-.35c.93-.92.72-1.19,3.12,4,1.25,2.68,2.67,4.61,4,5.38,1.7,1,2,1.5,1.58,3-.52,2.09-1.15,2.59-4.45,3.53-3.91,1.11-7.53.89-7.53-.47,0-.8-.51-.46-1.64,1.06a38.62,38.62,0,0,1-4.28,4.63c-2.39,2.18-2.47,2.37-.92,2.05.94-.19,4.86-.56,8.7-.82,5.47-.38,7.29-.76,8.38-1.78a4.37,4.37,0,0,0,1.4-2c0-.36.9-.65,2-.65,1.42,0,2.13.41,2.45,1.4.56,1.76-.45,3-4.35,5.27-2.78,1.63-4,1.84-12.75,2.25-5.33.24-10.22.74-10.87,1.11-1.12.62-1.12.72,0,1.7a76.06,76.06,0,0,0,7,4.34,83.1,83.1,0,0,1,11.64,7.73c.18.15-.26.7-1,1.24-2.18,1.59-11.43,1.29-15-.49-4.53-2.29-6.65-4-6.65-5.38,0-.69-1-1.89-2.26-2.66l-2.26-1.39L93,222.88a17.11,17.11,0,0,1-4.76,1.67c-.76,0-3.84-1.34-6.85-3l-5.47-3-5.87,5.64c-5.13,4.94-6.58,5.92-11.59,7.86a98,98,0,0,1-11.59,3.5c-6.24,1.38-12.71,1.75-12.06.7ZM91.66,157.5c1.51-1.58,1.7-2.06.83-2.06-.63,0-1.62.93-2.2,2.06a5.65,5.65,0,0,0-.83,2.05A14.63,14.63,0,0,0,91.66,157.5Z" fill="#fff" stroke="#000" stroke-width="2.62"/><path d="M38.28,235.91c-.89-.57-.87-.66.13-.67a2,2,0,0,1,1.58.67C40.52,236.78,39.62,236.78,38.28,235.91Zm4.58-2c-.58-1.15-.78-2.27-.44-2.48s.8.41,1,1.36c.59,2.32,1.18,2.19,2.26-.48.49-1.23,1-1.84,1.23-1.37.4,1,3.65,1.16,3.65.17,0-.38-.54-.71-1.2-.74s-.43-.33.76-.77c1.46-.53,2.1-.5,2.48.13.85,1.37,6.86-.35,6.86-2,0-1.11-6.58-.51-14.38,1.31-4.7,1.1-9.71,2.11-11.12,2.24a8.08,8.08,0,0,0-3,.71c-.73.73-10,.51-11.19-.26-.77-.53-.4-.66,1.51-.53a6,6,0,0,0,3-.31,5.25,5.25,0,0,1,2.6-.52c2,0,2.07,0,.59-.87s-1.5-.86-.18-1.69a5.59,5.59,0,0,1,2.31-.84c.53,0,1.15-.77,1.39-1.71a2,2,0,0,1,3.62-1c1,1,3.83.08,3.35-1.15-.2-.53-.07-1,.3-1s.66-.46.66-1,.33-1,.73-1,.5-.36.23-.79-.19-.61.23-.35,1.09,0,1.55-.58.62-1,.08-1-.77-.74-.77-1.65c0-1.46-.39-1.7-3.59-2.16-2-.28-4.21-.56-5-.62a15,15,0,0,1-2.91-.62c-1.16-.39-1.54-.26-1.54.55S27.34,214,25.78,214c-1.22,0-3.78.14-5.69.28A30.47,30.47,0,0,1,13.8,214c-1.58-.29-3.11-.24-3.45.11s-1.55.21-2.95-.44l-2.32-1.05,2.2.38a6.12,6.12,0,0,0,3.42-.33c1.12-.65,1.09-.72-.28-.74a2.58,2.58,0,0,1-1.92-.7c-.23-.38-.08-.69.34-.69s.58-.31.34-.69-.84-.27-1.49.38a3.79,3.79,0,0,1-2.8.86C3.58,211,3.12,210.48,3,209c-.2-1.89-.18-1.89,3.18-1.51s4.09-.05,2.58-1.56c-.49-.5-1.9-.64-3.76-.39-2.13.29-3,.17-3-.44s.45-.68,1-.45a3.17,3.17,0,0,0,2.38-.42c1-.64,1.51-.64,2.13,0a1.55,1.55,0,0,0,2,.16c.87-.46,1.31-.35,1.59.38s1.26,1,2.47,1a4.5,4.5,0,0,1,3.22,1.34c.63.73,1.4,1.17,1.71,1,.93-.57.63-1.63-.47-1.63-1.42,0-1.29-1.21.17-1.57.66-.16.5-.23-.35-.14s-1.73-.11-1.93-.44a4.21,4.21,0,0,0-2.55-.64,21.73,21.73,0,0,1-4.92-.93c-2.23-.71-2.51-1-1.49-1.41a1.9,1.9,0,0,1,2,.24,3.88,3.88,0,0,0,2.52.71c1.61-.06,1.57-.12-.48-.78-1.23-.4-2.23-1-2.23-1.3,0-.84,1-.73,1.91.22.44.45,1,.56,1.33.25s.14-.7-.33-.87c-1-.36-1.16-2.24-.17-2.24.38,0,.68.46.68,1s.69,1,1.89,1.07c1.43,0,1.59.16.67.53-1.12.44-1.11.55.18,1.66A5.66,5.66,0,0,0,18.26,203c1.61,0,1.7-.12.68-.71-2-1.16-1.36-1.94,1.2-1.53,1.31.22,2.39.1,2.39-.25,0-1-1.52-2.28-2.66-2.28-.77,0-.7.26.31,1.07,1.27,1,1.26,1-.39.58-.94-.26-2.79-.87-4.1-1.35l-2.4-.88,2.23-.05c1.22,0,2.22-.34,2.22-.69,0-1.27,2.45-1.11,4.79.31,2,1.19,11.08,5.12,11.87,5.12.13,0,.18-.65.12-1.45-.11-1.44-4.46-4-4.46-2.62a.74.74,0,0,0,.8.65c.44,0,.64.15.45.34a4.7,4.7,0,0,1-2.57-.43c-1.25-.43-1.9-1-1.49-1.24s-.64-1.13-2.41-2-3-1.68-2.83-1.86,2,.45,4,1.39a18.57,18.57,0,0,0,5.42,1.73,6.53,6.53,0,0,1,3.18,1c1.29.91,1.5.9,1.87,0,.6-1.59.56-1.65-1.28-1.65s-3.47-2.11-2.57-3.08c.27-.29,0-.38-.53-.19a1.47,1.47,0,0,0-.94,1.46c.12,1.39-.7,1.44-2,.13-.55-.55-1.16-.83-1.36-.63-.54.54-4.59-1.72-4.59-2.57,0-.44.49-.54,1.19-.25,1.95.8,3.09.74,3.41-.18a.58.58,0,0,0-.56-.85,36.2,36.2,0,0,1-6.15-2.72c-4.61-2.38-5.39-2.59-6.13-1.7-.47.57-1,.88-1.2.69s.05-.81.52-1.38c.95-1.14.46-1.49-2.67-1.87a2.52,2.52,0,0,1-2-1.09c-.36-1.11,2.45-.55,6.18,1.21,1.41.67,2.57,1,2.57.69,0-1.28,2.39-1.26,4.47,0,1.65,1,2.4,1.18,2.76.59a1.25,1.25,0,0,0-.57-1.56l-2.33-1.62c-.69-.47,0-.23,1.65.53s2.91,1.69,2.91,2.06,1.06.5,2.49.27c1.9-.3,2.42-.18,2.18.52a2.5,2.5,0,0,0,.93,2.11c1.2,1.15,1.25,1.12,1.25-.6,0-1.51.16-1.66,1-.95.56.47.86,1.1.67,1.41a.76.76,0,0,0,.35,1c.38.23.7.11.7-.28s.46-.52,1-.31a1.58,1.58,0,0,1,1,1.28,1.56,1.56,0,0,0,1,1.27c1.39.54,1.29,0-.44-2.43l-1.46-2.05,2.11,1.09c2.94,1.52,4,1.4,2.53-.28a4.25,4.25,0,0,0-1.89-1.37,6.73,6.73,0,0,1-2.38-1.37c-2.08-1.64-2.92-1.73-2.92-.31,0,.79-.45.64-1.81-.62-1.78-1.65-2.84-2.26-6.62-3.77-1.05-.43-1.73-1.08-1.5-1.46.56-.89,2.4-.88,2.4,0,0,.74,3,2.21,4.79,2.32a1,1,0,0,1,.83,1.26c-.12.66.12,1.2.51,1.2a.7.7,0,0,0,.71-.69c0-.38,1.09-.68,2.41-.68,1.9,0,2.58.36,3.18,1.67a7.06,7.06,0,0,0,3,2.76,8.74,8.74,0,0,1,2.68,1.75,2,2,0,0,0,1.51.66c.62,0-.28-1.07-2.09-2.49a30.75,30.75,0,0,1-3.2-2.67c0-.1.62,0,1.37.17,1.41.37,1.91-.75.69-1.51a1.27,1.27,0,0,1,.7-2.4,2,2,0,0,0,1.8-1c.48-1.25-.31-2.29-1-1.32s-4.2,2.64-4.7,2.15c-.25-.26-.09-.46.34-.46,1.34,0,.9-2-.62-2.77-.79-.42-1.29-.9-1.12-1.07s1.31.24,2.54.91c1.54.84,2.32,1,2.52.43s.92-.61,1.69-.41a1.85,1.85,0,0,0,2-.59c1-1.55.72-2-.65-1.19-1.05.65-1.77.51-3.94-.8a44.75,44.75,0,0,1-4.9-3.54,8.31,8.31,0,0,0-3.42-1.95c-1.75,0-3.89-1.79-2.76-2.26.69-.29.65-.53-.19-1.07-2.9-1.85-4-3.18-3.45-4.07.48-.74.91-.76,2.11-.12,2.44,1.31,2.35.32-.11-1.24-1.57-1-2.34-1.18-2.54-.61-.32,1-1.83,2.55-2.4,2.55a16.42,16.42,0,0,1-3-2.71l-2.63-2.7,2-.44c1.33-.29,1.87-.76,1.62-1.4s.07-1,.75-1c1,0,.94-.2-.2-1.52-.71-.83.8.12,3.38,2.11s4.88,3.42,5.13,3.17-.14-.89-.86-1.42c-1.91-1.39-.84-2,1.19-.65,1.58,1,1.69,1,1.6,0a1.44,1.44,0,0,1,.8-1.47c.54-.19.81.11.68.75s.86,2,2.18,3.23,1.86,1.78,1.21,1.32a2.81,2.81,0,0,0-2.31-.4,2.26,2.26,0,0,1-2-.32c-.65-.54-1.32-.52-2.4.06s-1.31.94-.58,1.38a1,1,0,0,0,1.42-.21c.73-1.19,3.47,1.54,3.08,3.06-.18.67,0,1.22.3,1.22a.66.66,0,0,1,.62.69c0,.38-.47.68-1,.68-.8,0-.72.31.34,1.37a4.82,4.82,0,0,0,1.95,1.37c.32,0,.94.69,1.37,1.54l.8,1.54-.39-1.53c-.3-1.15-.15-1.44.59-1.16a1.09,1.09,0,0,0,1.38-.66c.27-.7.08-.91-.6-.65s-1-.07-1-1a2.71,2.71,0,0,0-2.91-2.3c-.81.17-.6-2.5.24-3s4.65,2,5.61,3.59a2.68,2.68,0,0,0,2.1.9c1.92,0,4.62,2.42,4.13,3.7a1.19,1.19,0,0,0,.37,1.41c.4.25.56,1.28.34,2.29-.32,1.55-.26,1.65.38.65a2.48,2.48,0,0,1,1.66-1.2c.59,0,.78-.59.57-1.71-.18-.94-.62-1.71-1-1.71s-.46.3-.23.68.12.69-.26.69c-1.09,0-1.54-1.22-.6-1.61.65-.27.59-.59-.24-1.26a6.18,6.18,0,0,1-1.58-2.44,2,2,0,0,0-2-1.54c-1,0-1.24-.22-.74-.72.8-.8,6,1.82,5.39,2.74-.17.29.79,1.82,2.15,3.4,1.86,2.17,2.65,2.69,3.23,2.08s.43-1-.52-1.58c-4.76-2.93-5.19-5.09-.48-2.44,1.53.85,3,1.38,3.16,1.17.51-.51-11.09-7.14-13.55-7.75-1-.26-1.88-.68-1.88-.94s-1.38-1.35-3.08-2.42C38.79,152.78,37,151,38.09,151A4.21,4.21,0,0,1,40,152.4a4.07,4.07,0,0,0,2,1.37,5.55,5.55,0,0,1,2.41,1.71c1.53,1.63,3.43,2.3,3.41,1.2s-1-1.89-3.55-3.17a20.59,20.59,0,0,1-3.77-2.43c-1.13-1.05-4.17-2.78-8.41-4.78a24.66,24.66,0,0,1-4.36-3.17c-1.45-1.3-3.06-2.37-3.58-2.37A9.44,9.44,0,0,1,21,139.4L18.77,138H21c1.34,0,2.09.28,1.84.68s.19.69.94.69a10.28,10.28,0,0,1,2.6.39c.73.23.25-.5-1.11-1.71A9.22,9.22,0,0,0,22.09,136a1.58,1.58,0,0,1-1.23-.62c-.52-.84.28-2.8,1.13-2.8.38,0,.52.43.32.95s.71,1.82,2.26,3.06c2.28,1.83,2.73,2,3.47,1.09s1-.91,2,0a4.16,4.16,0,0,0,1.71,1c.31,0,1,.54,1.43,1.2,1.26,1.72,2,.6,1.12-1.81-.58-1.64-.53-2,.21-1.69a2.64,2.64,0,0,1,1.31,1.36c.29.76,1.07.91,3.13.6s2.75-.19,2.75.58,1.62,2,2.36,1.62a10.5,10.5,0,0,1,2.72,2.2c2.52,2.44,4.3,2.48,2.11,0-1.62-1.79-.88-2.51,1.13-1.1,1.76,1.23,5,1.52,4.32.38a1.13,1.13,0,0,0-1.24-.46,1.51,1.51,0,0,1-1.49-.67,4.17,4.17,0,0,0-2.56-1.15,6.47,6.47,0,0,1-3.12-1.34,4.39,4.39,0,0,0-2.26-1.14c-.55,0-2.16-1.38-3.57-3.08s-2.27-3.08-1.9-3.08a1.49,1.49,0,0,1,1.1.69c.65,1,1.71.81,1.71-.39,0-.78.4-.95,1.45-.62,2.2.7,1.28-1.18-1.15-2.36-1.14-.56-1.62-1.1-1.12-1.26a2.41,2.41,0,0,1,1.94.59c.89.74,1.18.7,1.72-.27a2.54,2.54,0,0,1,2-1.17c.76,0,1.19.31.95.68-.5.81,1.3,3.61,1.92,3,.23-.23,1.67.08,3.19.69s2.76.93,2.76.72c0-1.12-3.75-5-5.54-5.79-1.46-.61-1.85-1.07-1.33-1.58s1.81.34,4.43,2.92c2.93,2.9,4.22,3.7,6.23,3.86a7.43,7.43,0,0,1,4.38,2c2.77,2.66,3.4,2.12.73-.63a10.83,10.83,0,0,0-2.87-2.4c-.92,0-13.22-9.62-13.07-10.22.08-.31-.77-.75-1.88-1-1.65-.33-2-.76-2-2.26a5.34,5.34,0,0,0-1.13-3.09c-1-1.17-1-1.25,0-1.25,1.25,0,1.52-1,.44-1.72a.79.79,0,0,1-.3-1.08c.22-.35-.08-1.6-.66-2.77-1-2.06-.69-4.11.69-4.17s2.3-.71,1.93-1.31c-.21-.34.73,0,2.08.76a11.26,11.26,0,0,0,3.39,1.39,3,3,0,0,1,1.86,1.14,42.86,42.86,0,0,0,4.37,3.85c1.88,1.49,3.43,3.21,3.44,3.82s.53,1.07,1.34,1a5.66,5.66,0,0,1,2.64.59c1.07.57,1.14.82.37,1.31-1.47.92-3.77.73-4.71-.41a2.62,2.62,0,0,0-1.63-1c-1.1,0,2.27,2.71,3.41,2.71a.92.92,0,0,1,1,.86,4.27,4.27,0,0,0,.63,1.82c.51.81.79.78,1.78-.21s1.1-1.22-.06-2.07-1.16-.93.29-1.4c2.2-.69,1.61-1.64-3.45-5.5-8.2-6.25-9.33-7.31-9.68-9.14l-.34-1.81,1.66,2c.92,1.13,2,2,2.34,1.88a.51.51,0,0,1,.66.53c0,.4.73.52,1.71.27,1.37-.34,1.72-.17,1.74.84,0,1.22.06,1.21,1-.06s1-1.31,1,0c0,1,.48,1.33,2.05,1.33,1.13,0,2.06-.23,2.06-.51a.55.55,0,0,0-.58-.51,8.16,8.16,0,0,1-2.54-1.69c-1.08-.93-2.13-1.47-2.33-1.2a3.66,3.66,0,0,1-2,.66c-2.15.23-1.75-2.14.41-2.44.85-.12,1.36-.51,1.15-.86s0-.64.5-.64,1.76,1.08,2.81,2.4c1.8,2.26,3.91,3.19,3.91,1.73,0-.36.46-.48,1-.27s1,.06,1-.36-.47-.76-1-.76a1.65,1.65,0,0,1-1.43-1c-.21-.55-1.76-1.67-3.45-2.48-4.63-2.24-7-4.48-6.57-6.17.2-.79.56-1.17.79-.85A4.6,4.6,0,0,0,62,92.1c1.42-.52,1.44-.65.45-2.64-.57-1.15-1.45-2.09-2-2.09-1.16,0-.9,2,.36,2.76.53.32.76.8.51,1.05-.78.78-4.76-2.51-4.35-3.59.28-.73,0-.88-1-.56s-2.14-.21-3.76-1.5c-2-1.61-2.26-2-1.4-2.67s.77-1.07-.71-3.07c-.94-1.28-2.09-2.35-2.54-2.37-1.68-.1-3.23-1.17-3.23-2.24,0-.84.18-.9.82-.27,1.27,1.28,2,1,1.79-.69-.15-1-.92-1.72-2.44-2.15-1.23-.35-2.23-1-2.23-1.49,0-1,3-1.92,3.31-1,.13.37.94.49,1.81.27,1.85-.46,3,.92,1.65,1.91-.71.5-.62.57.36.24s1.92.16,3.2,1.38c1,1,2.17,1.63,2.52,1.42s1.36.36,2.23,1.29a5.46,5.46,0,0,0,2.39,1.69A4.31,4.31,0,0,1,62,79.32c1.1,1.29,1.11,1.38.09.59-.67-.52-1.4-.76-1.63-.53-.63.63,4,4.26,5.12,4,.69-.16.88.19.63,1.15s0,1.52.59,1.74c1.14.44,1.14.48.18-2.27-.48-1.39-1.1-2.07-1.69-1.84-1.14.44-2-.86-1.77-2.67a7.12,7.12,0,0,0-1.58-3.75c-1.61-2.18-1.65-2.42-.54-2.83s1.13-.5-.11-1c-.84-.34-1.43-.24-1.6.27a1.17,1.17,0,0,1-1,.81c-.38,0-.52-.48-.3-1a1.08,1.08,0,0,0-.56-1.43,1,1,0,0,1-.6-1.34c.2-.54,0-1-.38-1S55.15,66.93,54,65.36c-2.05-2.83-2.27-4-.57-2.9,1.35.83,3.38.83,3.08,0a1.37,1.37,0,0,0-1.39-.65c-1.26.11-1.5-.81-.39-1.49s3.5,1.78,3,3c-.26.67,0,.84.71.56a3.6,3.6,0,0,1,2.54.36c1,.56,1.53.57,1.71,0s.73-.56,1.32-.34,1,.11.74-.55a1.47,1.47,0,0,0-1.46-.87c-1.49.13-8.31-7.3-8.46-9.2-.06-.83.23-1.5.65-1.5,1.13,0,3.2,2.06,3,3-.11.44-.07.59.07.35.47-.78,2.83.2,3.31,1.37.42,1,.51,1,.93-.12s.63-1.09,2.33.61c2.6,2.61,3.07,1.6.72-1.54C64.83,54,64.44,53.19,65,53.65c1.16.92,2,.52,2-1a.94.94,0,0,0-1-.91c-1.22,0-2.71-1.82-2.83-3.44-.08-1,.15-1.15,1.14-.61a5.74,5.74,0,0,1,2,2.07c.42.78.91,1.26,1.1,1.07s0-1-.42-1.77c-1-1.8-.43-1.83,1.33-.06a4.77,4.77,0,0,0,2.06,1.37c.89,0,.88-1.85,0-2.4a.78.78,0,0,1-.3-1.07c.21-.35,0-.64-.57-.64-1.47,0-3.32-2.39-2.83-3.66.24-.62.74-1.13,1.12-1.13s.5.46.29,1,0,1,.78,1c1,0,1,.11.15.68s-.58.66.94.67c1.68,0,1.84-.14,1.1-1-.48-.57-.65-1.26-.38-1.53s.77,0,1.11.53c1.5,2.49,2,3,2.41,2.57.25-.25,0-.94-.6-1.52a7.23,7.23,0,0,1-1.5-2.44c-.24-.76-.68-1.23-1-1.06s-.52-.64-.52-1.83-.36-2.28-.81-2.42c-1.06-.36-.3-1.52,1-1.52.57,0,.86.27.65.61-.37.6,1.29,1.66,2.77,1.75,1,.07,3,1.75,3,2.55,0,.35-.3.45-.68.22s-.69.23-.69,1c0,1,.36,1.38,1.2,1.21a1.22,1.22,0,0,0,1-1.42c-.11-.64.1-1.17.47-1.17s.84-.54,1-1.2a4.36,4.36,0,0,1,1.67-2c1.1-.69,1-.18-.67,3.25-1.08,2.24-2.28,4.06-2.67,4.06s-.52.73-.25,1.79.13,2-.43,2.33a1.36,1.36,0,0,0-.37,1.8c.47,1.17.56,1.14,1.12-.32C78.49,48,79,47.69,80,48a2.72,2.72,0,0,0,2.74-1,4.94,4.94,0,0,1,2.09-1.4c.38,0,.69-.43.69-.95a2.93,2.93,0,0,1,1.08-1.83c1.65-1.38,2.66.64,1.11,2.21-2.07,2.1-3.22,3.6-3.31,4.32,0,.38-.13,1.12-.17,1.64-.07.75-.28.77-1.1.09s-1-.46-.92,1.8c.14,4.07-1.2,8.07-2,5.89C79.61,57.07,78.71,58,79.1,60c.36,1.78.24,2-1,1.63-.79-.21-1.28-.63-1.09-.93a.75.75,0,0,0-.35-1c-1-.62-.86,1.25.16,2.33.68.73.68,1,0,1.23a1.47,1.47,0,0,0-.86,1.3c0,.81.29.85,1.54.2s1.33-.57-.34,1.21a7,7,0,0,0-1.88,3c0,.56,1-.13,2.36-1.58a15.84,15.84,0,0,1,2.7-2.57c.37,0,.46.94.54,5.65,0,1.79.33,3.25.66,3.25s.4,1.31.15,2.91L81.2,79.5l1.5-1.33C84,77,84.13,77,83.75,78c-.65,1.69.25,4.58,1.43,4.58s1.27.6.33,2c-.57.88-.67.88-.68,0s-.18-.82-.86-.14-.65,1,.14,1.46,1.28.2,1.93-.73c1.12-1.6,2.43-1,1.85.8-.24.73-.1,1.31.31,1.31.67,0,1-.94.81-2.22,0-.28.23-.52.6-.52s.69.48.69,1.07.31.88.68.65.69-.1.69.3a.74.74,0,0,0,.76.72c.46,0,.59-.65.34-1.67-.43-1.68,1-3.43,1.48-1.87a1.37,1.37,0,0,0,1.25.8c1.37,0,5.45-4.06,5.21-5.19-.13-.6.18-.8.86-.54a2.35,2.35,0,0,0,2.1-.44c1.42-1.18,3.27-5.24,2.77-6.06a.78.78,0,0,1,.23-1.08c.35-.22.83.19,1.06.92,1,3.14-9.35,14.51-14.18,15.57-1,.23-1.88.65-1.88.94s-.62.68-1.37.87c-.91.24-1.37,0-1.37-.64s-.32-.8-.71-.56A1.7,1.7,0,0,1,86.5,88c-.54-.45-1-.6-1-.32s-.48.12-1.05-.36c-.93-.77-1-.53-.6,2,.37,2.32.26,2.84-.62,2.84S80,94.59,80,95.7c0,.89,3.38-1.25,4.79-3a3.3,3.3,0,0,0,.9-3c-.45-1.19-.42-1.2.71-.08s1.12,1.29-.38,3.4c-.86,1.22-2.11,2.82-2.77,3.57a4.91,4.91,0,0,0-1.19,1.9c0,1.3,1.35.36,3.46-2.38a27.48,27.48,0,0,1,3.85-4.14C91,90.73,91,90.73,91,93.16s-1,3.32-1.58,1.23c-.28-1-.4-1-.82.34-.27.85-.74,1.54-1,1.54s-.87,1-1.28,2.13c-.48,1.39-1.08,2-1.7,1.76-1.62-.62-3.64,1.35-3.7,3.61-.06,2,1.1,3,1.32,1.23.35-2.86,1.26-4.71,2.07-4.21a1.17,1.17,0,0,1,.3,1.35,1.37,1.37,0,0,0,.74,1.56c1,.55,1,.82-.34,2.64a18.8,18.8,0,0,1-2.5,2.91c-1.35,1.12-1.37,2.16,0,1.64,1-.37,1.13-.12,1.3,2a2,2,0,0,0,.54,1.22c.27.19.19.81-.17,1.37-.57.88-.73.88-1.32,0-.77-1.17-.75-1.21-.92,2.24-.08,1.9.14,2.53.84,2.4a1.61,1.61,0,0,0,1.13-1.28c.18-1.25,3.46-4.73,4.45-4.73a.67.67,0,0,1,.65.68.69.69,0,0,1-.68.69c-.38,0-.69.6-.69,1.33a3.37,3.37,0,0,1-1.43,2.33,1.94,1.94,0,0,0-1,2.41,4,4,0,0,1-.23,2.67,2.26,2.26,0,0,0,0,2.25c.66,1,.89.46.67-1.66-.09-.81.15-1.09.67-.77s.73,0,.59-1.13.46-2.28,1.68-3.5c2.35-2.33,2.66-2.35,2.09-.09-.4,1.59-.29,1.73,1,1.32.87-.28,1.47-.17,1.47.27a.71.71,0,0,0,.68.73c1.1,0,.79-1.87-.38-2.32-.59-.23-.88-.73-.64-1.11a.79.79,0,0,1,1.07-.31c.35.22.64-.08.64-.67s.27-1.07.6-1.07c1.1,0,4.5-5.08,4.57-6.83,0-1.14.52-1.79,1.39-1.92.72-.11,2.25-1.55,3.4-3.2,1.38-2,2.38-2.83,2.94-2.48,1.23.76-.31,3.92-3.29,6.77-1.75,1.68-2.14,2.42-1.48,2.82s.3,1-1.3,2.25c-2,1.53-2.09,1.85-1.29,3.14s.69,1.59-1,2.94c-2.83,2.24-4.55,4.17-5.4,6.1l-.76,1.71-.25-2.23c-.27-2.49-1.18-2.94-1.72-.85-.2.75-.73,1.37-1.18,1.37s-.65-.47-.43-1,.17-1-.1-1c-.44,0-1.51,1.51-4,5.67-.58,1-.87,1.06-1.15.37s-.6-.65-1.35.28a3.14,3.14,0,0,1-1.76,1.2.9.9,0,0,0-.78,1,1.87,1.87,0,0,1-.76,1.45c-.51.32-.6,0-.27-1.16.46-1.53.43-1.55-.5-.33s-.85,4.25.29,5c.36.22,1.33-.21,2.15-1,1.76-1.62,6.58-4.25,7.79-4.25.49,0,.68-.5.46-1.2-.3-.91-.23-1,.27-.27s.9.6,1.84-.69c1.18-1.61,1.18-1.61.73-.07-.25.85-.16,1.54.2,1.54,1,0,4.23-4.58,4.23-6.09,0-1.34,2.41-4.18,3.55-4.18.91,0,.65.53-1.15,2.34s-2.23,3.14-1.1,3.14c.92,0,4.87-3.87,4.41-4.33s1.38-2.52,2.11-2.52c.22,0,.4.54.42,1.2,0,.94.4.76,1.8-.82,1.06-1.21,1.46-2.13,1-2.29a.58.58,0,0,1-.39-.88c.23-.38.88-.37,1.63,0,1.06.57,1.31.34,1.68-1.49.31-1.54.64-2,1.17-1.43,1,1-.84,4.46-3.29,6a32.54,32.54,0,0,0-3.28,2.45c-4.59,4.05-6.48,5.41-7.49,5.41-.63,0-1,.31-.72.69a.83.83,0,0,0,1.15.25c.42-.26.6,0,.41.5a1.54,1.54,0,0,1-1.11,1l-1.56.17c-.47.05-.59.77-.31,1.87.33,1.31,0,2.37-1.3,4.06-2.44,3.2-1,3.62,1.69.49,1.49-1.74,1.84-2,1.1-.71-1.25,2.1-1.35,2.59-.54,2.59.58,0,4.91-6.31,4.91-7.15,0-.25-.31-.27-.68,0-1.44.89-.59-.46,1.66-2.64,1.4-1.36,2.68-2.08,3.17-1.78a.94.94,0,0,1,.34,1.28.85.85,0,0,1-1.11.38c-.34-.21-1.32,1.09-2.17,2.9a17.09,17.09,0,0,1-2.92,4.46c-1.75,1.51-.31,1.59,2.49.14,1.15-.59,2.26-.9,2.47-.69.45.45-5.38,3.13-8.38,3.86a25.51,25.51,0,0,0-3.25,1c-.89.36-1.21.16-1.22-.78,0-1.23-.05-1.23-.77,0-.56,1-.51,1.42.19,1.87.52.33.63.64.26.71s-1,.18-1.37.27a16.74,16.74,0,0,1-2.27.24c-.87,0-1.39.39-1.16.76s0,.69-.64.69c-1.24,0-4.68,6.64-3.74,7.23.35.21.83-.13,1.06-.75a14.85,14.85,0,0,1,2.34-3.22c1.56-1.7,2.27-2,3.91-1.69a3.61,3.61,0,0,0,2.7-.29c.47-.47.83-.35,1.1.37s.19,1-.08,1c-1.3-.2-1.75.17-.89.72,1.2.76,2.8.2,2.8-1,0-.55.52-.75,1.37-.53s1.37,0,1.37-.75a1.05,1.05,0,0,1,1-1.1,2.29,2.29,0,0,0,1.66-1.2c.37-.65.89-1,1.17-.69s1,.12,1.59-.34c1-.77,1-.73.06.46-.74,1-.8,1.38-.21,1.58a1,1,0,0,1,.42,1.32c-.29.77-.53.82-.91.21-.66-1.08-2.24-.12-1.78,1.07a1.72,1.72,0,0,1-.64,1.73c-1.55,1.29-1.15,2.13.9,1.89,1-.12,1.82-.56,1.74-1-.21-1.17,3.34-4.21,3.72-3.17a1.48,1.48,0,0,0,1.35.85c.75,0,.93-.44.64-1.6a3.71,3.71,0,0,1,.59-2.91c.93-1.22,1-1.23,1-.07,0,.71.34,1,.75.79,1.15-.71-.85,2.52-3.13,5.05a18.59,18.59,0,0,1-4.75,3.59c-3.09,1.51-3.36,1.57-2.78.63.48-.77-.62-.87-2.9-.25s-1.91,1.84.34,1.38c1.87-.38,1.86-.38-.17.54a20,20,0,0,1-4.27,1.28,5.12,5.12,0,0,0-4.7,4.27L88,161.54l2.81-2c1.55-1.1,2.91-2.38,3-2.84s.51-.64,1.23-.16.74.92-.83,2.21c-1.88,1.56-1.75,3.52.21,3.1.56-.12.92.29.87,1-.14,1.74,1,1.47,3.22-.8l2-2,1.12,1.48c.63.85.95,1,.74.39a2.41,2.41,0,0,1,.93-2.2c1.68-1.44,3.57-.78,3,1-.39,1.23-.28,1.27,1.18.5s1.52-.76.64.31c-.7.84-.76,1.37-.22,1.91.87.87,3.17.2,2.59-.75-.44-.71,2.23-1.78,2.86-1.15.21.22-.5,1.09-1.59,1.94s-2.46,2-3,2.61c-1,1-9.69,4.08-11.58,4.08A4.31,4.31,0,0,0,95,171.33c-.75.68-1.25.82-1.25.34,0-1.64-2-.7-2.63,1.27-.4,1.13-1,2.05-1.42,2.05s-.5-.52-.26-1.15c.34-.86.16-1-.7-.7-1.26.48-1.66-1.18-.46-1.92a1.63,1.63,0,0,0,.68-1.23c0-.45-.74.1-1.63,1.22s-1.48,2.42-1.3,2.91c.32.81-1,1.19-3.07.92a4.53,4.53,0,0,0-2.34.92c-1.36.95-1.38,1.07-.27,1.5a1.45,1.45,0,0,0,1.82-.49c.34-.52.61-.62.62-.21s.93.74,2.06.74,2.06-.36,2.06-.91c0-1.18.54-1.16,1.77.07.86.86.83,1.08-.22,1.66-.66.37-1,.89-.71,1.16.76.77,4-1.65,4-3,0-1.06,1.53-2.05,6.42-4.14.34-.14.42.06.18.45-.55.88,1.76.41,4.92-1,1.25-.56,2.42-.87,2.6-.69s-.62.65-1.77,1c-2.31.8-2.69,1.79-.94,2.46,1.37.52.57,1.42-1.83,2.06-1.43.37-1.51.32-.51-.3.66-.42,1.2-1.09,1.2-1.49,0-1-6.37-.29-6.7.7-.13.39-.68.54-1.22.33s-1,0-1,.39a.73.73,0,0,0,.71.75c.48,0,.48.41,0,1.33-1.09,2-.91,2.19,1.78,1.69,1.94-.36,2.38-.27,2,.41s-.1.77,1.27.42c1.93-.48,2.35.14,1,1.49-.64.64-.57.82.34.82.64,0,1.16-.34,1.16-.75s.77-1.37,1.72-2.11,1.56-1.6,1.38-1.9.27-.72,1-.91c1.63-.43,1.79-1.67.26-2-.7-.14-.19-.63,1.39-1.34,2.43-1.1,2.48-1.09,2,.25-.24.76-.17,1.25.15,1.1l2.64-1.18c1.13-.5,2.59-1.18,3.24-1.52,1.58-.81,1.9-.77,1.88.25s-3,3.93-4.12,3.93c-.58,0-.45-.46.37-1.37,1.07-1.18,1.09-1.37.15-1.37a1.9,1.9,0,0,0-1.52,1.38c-.24.76-.72,1.21-1.06,1-.74-.46-3.68,1-3.13,1.54.21.2,0,1-.42,1.82-1.9,3.46-.66,5.28,1.77,2.6,1.53-1.69,1.43-2.38-.22-1.5-1.11.59-1.28.53-1-.32.22-.57.64-1,.93-1s.7-.62.9-1.39c.4-1.52,1.76-1.54,2.94,0,.62.79.94.68,1.87-.64,1.24-1.78,2.3-1.41,1.47.51-1.1,2.55-1.08,3.8.07,3.36a7.27,7.27,0,0,1,1.37-.42c.16,0,.29-.46.29-1s.3-1,.66-1,.44.6.11,1.5c-.42,1.13-2,1.94-6.31,3.33-6.74,2.14-11.88,3.07-11.24,2a2.21,2.21,0,0,1,1.72-.7c1.19,0,2.51-1.15,1.95-1.7s-5.3,1.53-6.44,2.67a2.43,2.43,0,0,1-2.19.77,2.33,2.33,0,0,0-2.07.47c-.84.69-1.11.69-1.34,0a1.22,1.22,0,0,0-1-.85c-.39,0-.54.43-.33,1a1.09,1.09,0,0,1-.67,1.37c-1.5.57-1.61.51-1.17-.65.33-.86-.31-.78-3.61.44-4.11,1.52-7.78,3.71-7.78,4.64s3,.51,3.76-.36c1-1.07,4.45-1.82,4.45-.95,0,.38-.42.7-.94.7s-1.11.61-1.31,1.37c-.41,1.56.54,2.48,1.3,1.25.36-.59.62-.5.9.32.36,1,.61,1,2.28.17,1-.54,1.88-.72,1.88-.39s1.61,0,3.58-.73c4.15-1.52,4-1.48,4-.73,0,.31-1.23.94-2.74,1.39s-2.74,1.08-2.74,1.4c0,.92,2.65,1.36,3,.49.15-.43.5-.58.76-.33s0,1.39-.59,2.53c-1.36,2.64-1.36,2.64.4,3.58,1.25.67,1.41.62,1.05-.3a2.1,2.1,0,0,1,.51-2,4,4,0,0,0,.68-2.93c-.13-1.1-.07-1.42.14-.71s.57,1,.86.55,2.53-.83,5.06-.93c3.61-.13,4.61-.4,4.62-1.22s.16-.89.91.1a2.23,2.23,0,0,0,2.54.77c1.4-.34,1.52-.25.77.54-.94,1-5.41,1.68-8.14,1.22-1.87-.31-3.71.18-3.46.93.16.47-.58,1.22-1.65,1.68-2.43,1-2.48,2.09-.12,2.68,1.34.34,2.06.13,2.73-.8.88-1.19.92-1.18.92.24s1.62,2.09,2.37.86c.41-.65,1-.76,5-.86,2.64-.07,2.71-.3.69-2.1-.85-.76-1.08-1.22-.52-1a3.64,3.64,0,0,0,2.4-.39c2.18-1.16,3.61-1.19,4.71-.1.56.57,1.18.77,1.37.46s-.23-1-.94-1.49c-1-.71-1.13-1.23-.63-2.18.37-.69.43-1.25.13-1.26s-.09-.29.45-.63c.81-.52.83-.81.09-1.7s-.72-1.08.17-1.08a1.91,1.91,0,0,1,1.48.65,1.21,1.21,0,0,0,1.41.27c.67-.26,1,.06,1,1a6.42,6.42,0,0,0,1.37,3.09c1.64,2.08,1.7,2.55.34,2.55a1,1,0,0,1-1-.95c0-.55-1-1.1-2.23-1.29-2.57-.39-3.35-.06-1.47.62,2.36.84,3.2,1.76,2.19,2.4-.57.36-.11.57,1.31.58,1.77,0,2.12.23,1.77,1.14s-.13,1.06,1,.75c2.14-.56,1.83.56-.4,1.4-5.63,2.13-8.72,1.72-8.18-1.08.39-2.06,0-3.57-1-3.57-.4,0-.33.43.16,1,.64.77.65,1,0,1-.44,0-.62.3-.4.66s-.22,1.29-1,2.05c-1.47,1.47-3.45,1.88-3.45.71a.71.71,0,0,0-.73-.68c-.4,0-.53.31-.3.68s-.12.69-.78.69c-1,0-1,.17-.35.85s1,.67,1.39,0,.7-.7,1.34.07.51,1.21-.51,2.14-2,1.08-4.35.72-3.13-.23-3.45.61.07,1,2.39.78c1.76-.17,2.57,0,2.17.37-.66.66-2.68.83-5.72.5-1.13-.13-1.65.12-1.52.71s-.27.78-1.2.52l-2.76-.79c-.75-.21-1.37-.12-1.37.2s1.4,1,3.09,1.42c3.72,1,4.65,1,4.13.18-.64-1,4.59-1.15,6.68-.14a5.47,5.47,0,0,0,6.26-1c1.48-1.48,2.77-.88,2.81,1.31l0,1.83-6.88.08c-3.78,0-7.22,0-7.65,0a1.35,1.35,0,0,0-1.18.94c-.25.67.44,1.6,2,2.64,1.3.89,2.16,1.81,1.91,2.06s0,.5,1.5.44a12.73,12.73,0,0,1,2.43,1.06c1.55.81,2,1.41,1.66,2.39a1.78,1.78,0,0,0,1,2.18,2.94,2.94,0,0,1,1.41,2.08c0,.66.31,1.2.69,1.2s.68.47.68,1-.31,1-.68,1-.69-.45-.69-1-1-1.17-2.4-1.44-2.39-.68-2.39-1-1.31-.9-2.91-1.39-2.52-1-2-1.19c1.63-.58.84-1.29-1.46-1.29S99.6,224,99.45,222.1c-.07-.95.18-1,1.5-.42s1.83.48,2.7-.4c1.21-1.2,1.17-1.23-2.4-1.37-1.32,0-2.59.18-2.83.51s-1.39,0-2.55-.65c-2.23-1.32-3.56-1-2.25.62,1,1.17-.77,3-3.32,3.39-.94.16-1.33.16-.86,0,1.36-.46,1-1.56-.51-1.56-.75,0-1.37.28-1.37.61s-.47.79-1,1c-.87.34-.91.16-.28-1,.52-1,.53-1.29,0-1s-1.67,0-2.81-.62-2.07-.76-2.07-.37a.65.65,0,0,0,.55.71,4.86,4.86,0,0,1,1.89,1.08c.73.59,0,.36-1.69-.52s-3-1.9-3-2.27a2.7,2.7,0,0,0-.66-1.54c-.5-.61-.47-.86.1-.86s.62-.31.38-.68c-.71-1.17-1.71-.76-1.71.69,0,1.13-.31,1.31-1.71,1-1.21-.31-1.71-.16-1.71.52,0,.94-7.59,8.78-8.49,8.78a8.15,8.15,0,0,0-2.31,1.71c-2,1.86-3.59,2.35-2.2.68.69-.84.64-1-.28-1a2.28,2.28,0,0,0-1.72,1.55c-.43,1.15-1.81,1.94-5.29,3a73.62,73.62,0,0,1-7.18,1.93c-2.28.41-2.57.27-3.54-1.67Zm8.08-.75c.49-.79-1.29-.79-3.77,0-1.53.5-1.45.56.82.62C49.38,233.83,50.71,233.55,50.94,233.17Zm3.08-.68a.67.67,0,0,0-.64-.69,1.46,1.46,0,0,0-1.07.69c-.23.38.06.68.64.68S54,232.87,54,232.49Zm-16.43-4c0-.35-.61-.46-1.37-.27s-1.37.48-1.37.62.62.27,1.37.27,1.37-.28,1.37-.62Zm75.3,0c0-.81-1.34-1.67-1.83-1.18s.38,1.83,1.18,1.83A.65.65,0,0,0,112.89,228.42ZM41,227c0-.37-.63-.68-1.41-.68s-1.21.31-1,.68a1.81,1.81,0,0,0,1.41.69C40.57,227.7,41,227.39,41,227Zm23.9-1.86c.16-.1-.38-.19-1.19-.19s-1.49.43-1.49,1.11c0,1,.18,1,1.2.19Zm43.87,1.18a.69.69,0,1,0-.68.68A.69.69,0,0,0,108.78,226.33Zm-47.16-1.49c.78-1.26,0-2.12-1.16-1.2a1.28,1.28,0,0,1-1.82.11,5.62,5.62,0,0,0-2.91-.67l-2,0,1.88.79c1.53.64,1.72,1,1,1.7s-.39.84,1.82.5c1.48-.22,2.92-.79,3.21-1.25Zm49.58.16a1.57,1.57,0,0,0-1.17-.73c-.46,0-.41.4.13,1C111.1,226.45,111.94,226.2,111.2,225Zm-2.81-1.48c-.59-1-1.66-.72-1.66.39,0,.61.4.85,1,.61s.85-.66.64-1Zm-66.69.07c0-.38-.62-.68-1.37-.68s-1.37.3-1.37.68.62.68,1.37.68S41.7,224,41.7,223.59Zm10.95-.68a.69.69,0,1,0-.68.68A.69.69,0,0,0,52.65,222.91Zm-3.42-.61c0-.76-3.35-1.44-3.76-.77a.81.81,0,0,0,.13.94c.66.66,3.63.52,3.63-.17Zm-5.17-2.19a.76.76,0,1,0-.25,1A.76.76,0,0,0,44.06,220.11Zm11.67.74a1.51,1.51,0,0,0-1.11-.68c-.37,0-.49.31-.26.68a1.49,1.49,0,0,0,1.11.69C55.85,221.54,56,221.23,55.73,220.85Zm14.35.05c.5-.82-.79-1.63-1.7-1.07-.76.48-.26,1.71.7,1.71a1.39,1.39,0,0,0,1-.64Zm18.67-2.13c-.89-1.44-1.87-1.78-1.87-.66a.68.68,0,0,0,.68.69c.38,0,.69.48.69,1.07s.3.88.67.65S89.28,219.61,88.75,218.77Zm-36.1.6c0-.31-1.71-.57-3.8-.57-2.41,0-3.65.25-3.38.69C46,220.32,52.65,220.21,52.65,219.37Zm19.17-.23a1.08,1.08,0,0,0-1.11-1c-.91,0-1,.19-.26,1a3.61,3.61,0,0,0,1.11,1C71.7,220.17,71.82,219.71,71.82,219.14Zm14.37.34a.69.69,0,1,0-.68.69A.69.69,0,0,0,86.19,219.48ZM65,218.8a.69.69,0,1,0-.68.68A.68.68,0,0,0,65,218.8Zm-2.74-.59c0-.62-5.24-2.83-6.69-2.83-1.78,0-.7,1.11,2.07,2.16C61.07,218.84,62.23,219,62.23,218.21Zm40.39-.06c0-1-1.32-1.57-2.58-1.09-1,.38-1,.53-.14,1.08,1.31.83,2.72.83,2.72,0ZM49,216.43c-.44-1.15-4.55-1.51-4.55-.39,0,.63,4.16,2.1,4.7,1.66.14-.12.07-.69-.15-1.27Zm33.63-.37c0-1.35-.28-2.05-.92-2.05-1.21,0-1.26,1-.14,2.74a11.21,11.21,0,0,0,.93,1.36A14.36,14.36,0,0,0,82.62,216.06Zm15.89,1.1c0-.15-.48-.45-1.06-.68s-.88-.12-.64.27C97.21,217.4,98.51,217.71,98.51,217.16Zm-46.33-2.68c-.21-.34-.63-.22-.94.28a1.65,1.65,0,0,0-.17,1.51c.21.34.63.22.94-.27A1.67,1.67,0,0,0,52.18,214.48Zm14.16,1.66c0-.33-.54-.79-1.2-1s-1.58-.6-2-.82-.86,0-.86.37.7,1,1.54,1.38c2,.81,2.57.83,2.57.1Zm9.56-.54c.18-.17-.13-.58-.68-.92s-1.1-.37-1.24,0a.55.55,0,0,1-.85.28c-.35-.22-.63.11-.63.72,0,.84.38,1,1.54.64a7.7,7.7,0,0,0,1.86-.76ZM93,215.4a5.56,5.56,0,0,0-2.57-.7c-.85,0-1.54-.36-1.54-.78s.73-.6,2.22-.26c3.67.83,8.38,1.58,8.6,1.38a14.17,14.17,0,0,0-3.62-1.4A14.41,14.41,0,0,1,92,211.85c-.2-.32-2.13-.58-4.29-.58s-4.34-.38-4.85-.86c-.75-.69-.85-.64-.54.27s.21,1-1.61.12c-1.1-.55-2-1.52-1.94-2.15s.18-.82.4-.29,1.41.86,2.72.86,2.21-.28,1.94-.71a1.37,1.37,0,0,0-1.23-.6c-1.75.21-2.52-.11-2.52-1.06,0-.71-.6-.92-2.15-.72-2.47.31-3.83,1.33-2.7,2,.41.25.74.08.74-.38,0-1.05,1-.1,1,1a1.64,1.64,0,0,1-.66,1.27c-.37.26.18.8,1.22,1.2,1.48.56,1.81,1,1.47,2.09-.51,1.63.5,1.81,1.74.31a1.81,1.81,0,0,1,1.8-.7c.5.19.91,0,.91-.31s.48-.67,1.06-.67,1,.39.95.86c-.33,2.54.07,2.75,5.87,3.11C93.34,216,93.79,215.9,93,215.4ZM86,214.25c-.63-.63.13-1.61,1.26-1.61.57,0,.8.41.57,1C87.39,214.75,86.7,215,86,214.25Zm-70.81-2.07a2.64,2.64,0,0,0-1.71,0c-.47.19-.08.35.86.35S15.64,212.37,15.17,212.18Zm43.74-.57a1.05,1.05,0,0,0-.73-.89c-.41-.14-.74.26-.74.89s.33,1,.74.9A1.08,1.08,0,0,0,58.91,211.61Zm-35.69-.34c-1.33-.86-2.06-.86-2.06,0,0,.38.7.68,1.54.67C24,211.93,24.05,211.81,23.22,211.27Zm32.85-.73a.66.66,0,0,0-.68-.64c-.38,0-.69.48-.69,1.07s.31.87.69.64A1.44,1.44,0,0,0,56.07,210.54Zm18.48,1.11c0-.16-.3-.49-.68-.72s-.68-.1-.68.3a.7.7,0,0,0,.68.72C74.25,212,74.55,211.82,74.55,211.65Zm-43.2-.89c0-.29,0-1.55,0-2.82.07-1.95.29-2.25,1.45-1.95.92.24,1.37,0,1.37-.68s.39-.88,1-.64c1.18.46,1.4-.62.26-1.32a.92.92,0,0,0-1.25.32,1.39,1.39,0,0,1-1.63.36c-.63-.24-1-.65-.84-.92.37-.6-4.37-2.39-4.9-1.85-.22.21.4.69,1.37,1.06,1.81.68,3.88,3.47,2.58,3.47-.38,0-.51.46-.29,1s0,1-1,1c-1.23,0-1.29.19-.59,1.7S31.55,212,31.35,210.76ZM67,211c0-.17-.31-.5-.69-.73s-.68-.09-.68.3a.71.71,0,0,0,.68.73C66.72,211.27,67,211.13,67,211ZM6.64,209.32c.2-.59-.13-.83-.91-.68a2.15,2.15,0,0,0-1.53,1.15c-.2.59.13.84.91.69A2.14,2.14,0,0,0,6.64,209.32Zm18.63.58a.69.69,0,1,0-.68.68A.68.68,0,0,0,25.27,209.9Zm39,0a.69.69,0,1,0-.69.68A.68.68,0,0,0,64.29,209.9Zm8.21.14c0-1.16-1.72-2.19-3.64-2.19-1.72,0-1.88.15-1.14,1a2.09,2.09,0,0,0,2.14.64c.7-.23,1.27-.08,1.27.32a.71.71,0,0,0,.69.73.62.62,0,0,0,.68-.54Zm26.82.11c1.74-.28,2.4-.7,2.15-1.35s-.74-.74-1.49-.35c-1.07.54-10.2-.07-13.57-.92-1.72-.43-2.11.4-.72,1.55S95.1,210.85,99.32,210.15Zm-72-1.32c0-.58-.31-.87-.69-.63a.78.78,0,0,0-.3,1.06C26.91,210.21,27.32,210,27.32,208.83Zm22.91-.33c.66,1.06,1.74.87,1.74-.31,0-.57-.32-1-.7-1s-1.05-.77-1.48-1.71c-.87-1.9-1.93-2.27-1.93-.68,0,.56.31,1,.68,1a.73.73,0,0,1,.69.76c0,.42-.43.59-1,.39-1.35-.52-1.92.26-1,1.37.55.66,1,.72,1.65.2s1-.51,1.31,0Zm6.85,0c-.64-1-5.87-4.23-6.27-3.83-.63.63.52,1.8,3.08,3.15,2.86,1.51,3.83,1.72,3.19.68Zm-31.81-1a4.45,4.45,0,0,0-1-1c-.85-.71-1-.62-1,.58,0,1,.31,1.31,1,1S25.27,207.62,25.27,207.51Zm36.62.34c.23-.38.1-.69-.3-.69a.58.58,0,0,1-.55-.77,1,1,0,0,0-.6-1c-.49-.18-.64.35-.43,1.45C60.35,208.59,61.15,209,61.89,207.85Zm-16.09-1.2a5,5,0,0,0-.68-2.23c-.57-.87-.66-.85-.67.18,0,1.35-2.48,1.68-2.91.39-.16-.49-.77-.62-1.54-.32-1.11.42-1,.66,1.07,1.79,3,1.67,4.74,1.74,4.73.19Zm19.86.89c0-.72-1.32-1-1.71-.39-.23.38,0,.7.64.7s1.07-.14,1.07-.31Zm28.75-.38a.69.69,0,0,0-.69-.68.69.69,0,0,0,0,1.37A.69.69,0,0,0,94.41,207.16Zm-25.19-.82c-.64-.64-1-.64-1.65,0s-.45.82.82.82S69.85,207,69.22,206.34Zm4,.14a.69.69,0,0,0-.69-.69c-.38,0-.68-.48-.68-1.06s-.31-.88-.69-.65-.68.1-.68-.3-.46-.73-1-.73c-1.38,0-1.3.35.51,2.3C71.54,207.09,73.19,207.66,73.19,206.48Zm-44.5-1.26c0-.87-.82-1.51-2.64-2.06-4.11-1.23-5.21-1-5.33.92s.8,2.23,1.93.41c.8-1.28.89-1.27,3.25.34,2.91,2,2.79,2,2.79.39Zm27.58-.11c-.34-1.31-1.57-2-1.57-.82a4.56,4.56,0,0,0,1.79,2.19A3.38,3.38,0,0,0,56.27,205.11Zm34,.68c0-.37-.14-.68-.3-.68s-.5.31-.73.68-.1.69.3.69A.71.71,0,0,0,90.3,205.79Zm-26-.77c0-.49.4-.43,1.14.18,1,.8,1.08.79.79-.09A2,2,0,0,0,64.57,204l-2.17-.17a1,1,0,0,1-.85-1,1.53,1.53,0,0,0-2.59-1c-.49.49-1.37.32-2.8-.53-1.16-.68-2.3-1-2.54-.79-.52.52,1.35,2.57,2.35,2.57a1.1,1.1,0,0,1,.93.77c.17.51.66.38,1.41-.37,1.07-1.07,1.24-1,2.66.59,1.56,1.8,3.32,2.32,3.32,1Zm23.32-1.67c1.48.14,2.69,0,2.69-.35,0-.81-3.15-1.56-4.11-1-.41.25-1.35-.21-2.07-1.05s-1.75-1.34-2.36-1.11-1,.12-1-.24-.47-.46-1-.25-1,0-1-1S78.09,197,77,196.73s-1.71,0-1.71.6a.94.94,0,0,0,.86,1c.47,0,1.4.77,2.07,1.69,1.19,1.64,1.19,1.68-.52,2.1-2.26.57-2.22,1.49.07,1.49,1.18,0,1.91-.44,2.13-1.28s.65-1.29,1-1.29.49.74.26,1.67-.15,1.84.19,2.05.77-.24,1-1c.51-1.91,2.39-1.76,2.2.18-.08.85,0,1,.14.36.23-.93.87-1.12,3-.92Zm4.18.93c-.49-.5-.81-.54-.81-.11,0,.92.81,1.73,1.27,1.27.19-.19,0-.72-.46-1.16Zm-16.55-1a3,3,0,0,1,1.2-2c1.14-.84,1.13-.91,0-1.36-1.51-.58-1.58-.51-2.17,2.26-.31,1.43-.21,2.22.26,2.22s.74-.5.74-1.12Zm18.15-.23c-.23-.36.1-1.44.72-2.38,1.21-1.85,1.17-1.89-2.27-2.64-.85-.19-1.72-.06-1.93.29a.76.76,0,0,1-1.29-.81c.21-.35.08-.64-.29-.64-2.32,0-1.09,2.41,2.61,5.12C93.49,203.88,94,204.11,93.39,203.07Zm-47.76-.87a2.17,2.17,0,0,0-1.57-1.11c-1.12-.21-1.17-.1-.37.86C44.77,203.26,46,203.42,45.63,202.2Zm3.8-.59a2.39,2.39,0,0,0-2-.43c-1.1.26-1,.39.44,1,1.93.8,2.67.52,1.57-.58Zm15.54.08c0-.78-2.79-2.45-5-3-1.45-.35-1.86-.25-1.62.41a1,1,0,0,0,1.12.7c1.25-.28,3.48,1.16,3.48,2.24,0,.59.41.83,1,.59s1-.64,1-.93Zm1.84-.13c-.22-.55-.38-.39-.42.41s.14,1.13.36.9a1.36,1.36,0,0,0,.06-1.31Zm54.29.13c0-.38-.46-.69-1-.69s-1,.31-1,.69.46.68,1,.68S121.1,202.06,121.1,201.69Zm2.74,0c0-.38-.46-.69-1-.69s-1,.31-1,.69.46.68,1,.68S123.84,202.06,123.84,201.69ZM72.5,201c-1.35-.87-2.93-.87-2.39,0a2.52,2.52,0,0,0,1.92.68C73.25,201.67,73.34,201.54,72.5,201Zm-27.38-1.37c0-.37-.79-.68-1.75-.68s-1.57.29-1.33.68a2.26,2.26,0,0,0,1.75.69C44.52,200.32,45.12,200,45.12,199.63ZM86.19,199c0-1.81-2.32-3.06-3.36-1.8-.6.72-.46,1,.68,1.31.8.21,1.25.7,1,1.11s0,.73.61.73A1.21,1.21,0,0,0,86.19,199Zm-32.87-2.33c0-.33-.44-.22-1,.25s-.83,1.15-.6,1.52c.42.69,1.58-.59,1.6-1.77Zm19.49,1.67c.51-.82-.78-1.63-1.69-1.07s-.26,1.71.7,1.71A1.35,1.35,0,0,0,72.81,198.31Zm-32.48-.73c0-.38-.48-.69-1.07-.69s-.87.31-.64.69a1.44,1.44,0,0,0,1.07.68A.66.66,0,0,0,40.33,197.58Zm21.9-1.33c0-.81-1.33-1.67-1.82-1.18s.37,1.82,1.18,1.82A.64.64,0,0,0,62.23,196.25Zm20.22-.09c.81-1.29-.36-1.61-1.56-.42s-1.06,1.15,0,1.15a2,2,0,0,0,1.59-.73Zm-27.33-2.5c-.7-.7-1.27.35-.7,1.27.43.7.59.7.82,0a1.4,1.4,0,0,0-.12-1.28Zm9.17,0c0-1-.21-1.61-.47-1.35-.69.68-.77,3.18-.1,3.18C64,195.53,64.29,194.7,64.29,193.7Zm5.47,0c0-1.37-1.2-1.16-2,.36-.6,1.11-.5,1.25.66.95C69.15,194.84,69.76,194.26,69.76,193.73ZM75.91,195a4.28,4.28,0,0,0-.67-1.54c-.54-.83-.67-.73-.67.52,0,.84.29,1.54.67,1.54S75.92,195.29,75.91,195ZM38.1,193c-.64-.64-1.35-1-1.59-.73-.67.67.36,1.89,1.61,1.89C39.17,194.16,39.16,194.07,38.1,193ZM58,191.8c-.74-.65-3.33-1.06-3.33-.53,0,.9,3,2.16,3.33,1.38C58.16,192.3,58.16,191.92,58,191.8Zm11.45,0c1.24.43,1.24.4,0-.6-.89-.69-1.52-.82-1.81-.35a1,1,0,0,1-1.37.15c-.75-.45-.74-.32,0,.63.63.78,1.12.94,1.42.45a1.62,1.62,0,0,1,1.78-.28Zm-33.94-1.42c0-1.16-.3-1.57-1-1.32a1.23,1.23,0,0,1-1.42-.37.81.81,0,0,0-1.09-.35c-1,.59-.77,1.68.3,1.68a2.84,2.84,0,0,1,1.8,1c1.16,1.4,1.37,1.3,1.37-.67Zm17.25.19c-.44-.44-1-.57-1.31-.3s-.06.78.49,1.12C53.24,192.21,53.82,191.63,52.79,190.6Zm8.76.53c0-.91-1.38-2.22-4.55-4.32-1-.69-.92-.7.62-.06,1.77.74,3.3.38,2.36-.55-.62-.62-7.62-2.87-8-2.57-.16.15.36,1,1.16,1.8L54.62,187l-1.59.09a2.26,2.26,0,0,1-2.34-1.54c-.41-.9-1.06-1.63-1.45-1.63a.67.67,0,0,1-.7-.62c0-.34.67-.45,1.48-.24,1,.27,1.32.14,1-.4a1.81,1.81,0,0,0-1.37-.79,4,4,0,0,1-2.12-1.37c-1.29-1.43-3.08-1.85-3.08-.72,0,.36.46.91,1,1.23a8.55,8.55,0,0,1,2.24,2.83A9.38,9.38,0,0,0,51,187.13c4.23,2.24,4.59,2.37,4.08,1.54-.33-.53-.06-.72.78-.54a1.23,1.23,0,0,1,1.07,1.49c-.17,1,.09,1.14,1.2.78,1-.3,1.55-.1,1.82.63.52,1.34,1.64,1.41,1.64.1Zm-10.95-.37c0-1.11-2.43-2-4.16-1.58s-1.64.43.4,1.3C49.33,191.55,50.6,191.64,50.6,190.76Zm15.3-1.19c1.35.52,1.49-.42.22-1.47a1.16,1.16,0,0,0-1.81.08c-.73.68-.83.61-.49-.36.28-.78.08-1.19-.58-1.19-1,0-1.32,1.8-.58,3.73.38,1,.5,1,1.27-.06a1.74,1.74,0,0,1,2-.73Zm12.76.72c2-1,2.15-1.21,1.1-2s-1.44-.58-2.85.82c-2.64,2.64-2,3,1.75,1.17Zm-6.16-.85c0-.29-.43-.53-1-.53a.62.62,0,0,0-.61.91A.81.81,0,0,0,72.5,189.44Zm-42.73-1.05c1.11-1.11,1.31-3.13.32-3.13-.72,0-2.08,2.21-2.08,3.38C28,189.63,28.61,189.55,29.77,188.39Zm53-.39a.69.69,0,1,0-.69.68A.69.69,0,0,0,82.77,188Zm-57.52-.66c.55-.35.77-.88.48-1.17s-.83-.08-1.18.48c-.57.88-.73.88-1.32,0-.37-.57-.68-.7-.69-.29,0,1.58,1.12,2,2.71,1Zm50.67.09c0-1.11-.91-1.47-1.82-.71-.71.59-.91.48-.91-.49s-.21-1-.77-.48a1.33,1.33,0,0,0-.3,1.5c.54.87,3.8,1,3.8.18Zm-9-2.25c-2-1.54-2.41-1.58-2.91-.26-.27.69,0,1,.91,1a2.28,2.28,0,0,1,1.74.7.84.84,0,0,0,1.16.24c.45-.27.1-.93-.9-1.7Zm21.84,1.31c1.12-1.12,1-1.92-.2-1.92-.57,0-1,.13-1,.29a7.55,7.55,0,0,1-.41,1.37c-.5,1.28.47,1.43,1.64.26ZM79,185.94c.24-.37-.07-.68-.68-.68s-.92.31-.68.68.54.69.68.69S78.77,186.32,79,185.94Zm5.82-.81c0-.9-1.55-.34-1.89.68-.17.5.14.66.81.4s1.08-.71,1.08-1.08Zm-16.6-3c-3.12-3.26-5.26-4.16-3.91-1.63a4.34,4.34,0,0,0,1.9,1.82,7.59,7.59,0,0,1,2.46,2c.72.86,1.56,1.41,1.88,1.22s-.73-1.72-2.33-3.4ZM22.53,184.4c0-.72-2.58-.64-3,.1-.21.34.39.57,1.33.51s1.7-.33,1.7-.61Zm36.81-1.07c.17-.5-.15-.65-.81-.39s-1.09.71-1.09,1.08c0,.9,1.56.34,1.9-.69Zm19.11-.25c-.22-.55-.39-.39-.42.41s.13,1.13.36.9a1.39,1.39,0,0,0,.06-1.31Zm-2.35.4a1.55,1.55,0,0,0,0-1.43c-.31-.83-.5-.85-1-.1s-.74.67-1.31-.29c-.75-1.27-2-1.62-2-.56,0,1.67,3.21,3.46,4.29,2.38Zm8.44-2.15c-.74-.74-1.13.29-.61,1.61s.52,1.23.76,0A2.27,2.27,0,0,0,84.54,181.33Zm7.1,1.57c.81-1,.4-3.8-.54-3.8-.26,0-.86.61-1.33,1.37-.93,1.5-.23,1.85,1.08.54.64-.63.82-.61.82.1a3,3,0,0,1-1.2,1.83c-.66.5-.85.92-.43.93a2.59,2.59,0,0,0,1.6-1Zm-37.87-1.42c-.24-.61-.75-.9-1.15-.65s-.46.75.1,1.43C53.71,183.45,54.34,183,53.77,181.48Zm29.19-1c.43-1.65.07-1.74-1.31-.36-.56.56-.83,1.34-.59,1.72.59.95,1.46.32,1.9-1.36Zm-32.09-.56a4.16,4.16,0,0,1-1.16-1.68c-.65-1.76-1.85-1.46-1.85.47,0,1.19.43,1.73,1.54,1.91C51.21,180.91,51.88,180.59,50.87,179.92Zm29.51-.14c.61-1-2.61-2.09-3.25-1.11a3.17,3.17,0,0,0-.51,1.28C76.6,180.73,79.89,180.57,80.38,179.78Zm26,0c.24-.37.12-.68-.26-.68a1.51,1.51,0,0,0-1.1.68c-.24.38-.12.69.26.69A1.49,1.49,0,0,0,106.38,179.78Zm-51-1.29c0-.87-3.18-2.83-3.72-2.29-.25.25.26,1,1.12,1.66C54.53,179.2,55.39,179.41,55.39,178.49Zm19.69-.21c-.42-1.26-1.89-1.48-1.89-.27a1.08,1.08,0,0,0,1.08,1.09C74.87,179.1,75.23,178.73,75.08,178.28Zm-16.95-1.39c0-.4-.44-.34-1,.15a3.93,3.93,0,0,0-1,1.09c0,.13.47.06,1-.15s1-.71,1-1.09Zm7.53-1.25c0-.77-1.93-1.34-3.08-.9-1.74.67-1.14,1.53,1,1.47C64.73,176.18,65.66,175.92,65.66,175.64Zm11.14-.46c-.27-.69-.58-.72-1.3-.12-1.25,1-1.19,1.23.35,1.12C76.62,176.12,77,175.71,76.8,175.18ZM55.73,175c.23-.38-.07-.68-.68-.68s-.92.3-.69.68.54.68.69.68S55.5,175.37,55.73,175Zm15.49-1.15c-.81-1.38-1-.94-.35.78.24.61.58,1,.75.79S71.62,174.53,71.22,173.84ZM79.69,175c.23-.38.1-.68-.3-.68a.71.71,0,0,0-.73.68c0,.38.14.68.3.68S79.46,175.37,79.69,175ZM79,172.94c.24-.38.1-.69-.3-.69a.7.7,0,0,0-.72.69c0,.37.13.68.3.68S78.77,173.31,79,172.94Zm-15.4-.69a.69.69,0,1,0-.68.69A.69.69,0,0,0,63.6,172.25Zm10.27.3c0-.66-2.1-2.54-2.44-2.19-.61.61.53,2.58,1.49,2.58.52,0,1-.18,1-.39Zm-8.59-2.41a.76.76,0,1,0-.25,1.05A.76.76,0,0,0,65.28,170.14Zm3.68.38a.64.64,0,0,0-.74-.49c-.28.09-.51-.16-.51-.56s-.32-.52-.72-.28-.45.76.1,1.43c.89,1.07,2.23,1,1.87-.1Zm-23.15-1.73c0-.78-.31-1.22-.69-1a1.8,1.8,0,0,0-.68,1.41c0,.54.3,1,.68,1S45.81,169.56,45.81,168.79Zm33.28-1.73c.56.21.87.16.7-.12s.49-1.1,1.46-1.83c1.52-1.14,1.7-1.16,1.32-.17-.24.63-.13,1.15.24,1.15a1.07,1.07,0,0,0,.9-.85c.12-.48.55-1.86,1-3.08.65-2,.61-2.15-.46-1.58a27,27,0,0,0-4,3.42c-3,3-5.65,3.95-2.9,1,1.45-1.54,1.48-1.7.29-1.27-.84.31-.58-.11.7-1.11l2.38-1.86c.17-.14,0-.46-.42-.73a3.22,3.22,0,0,1-1-1.48c-.25-.78-.75-.58-2.2.86-1,1-1.66,2.2-1.42,2.6s-.2.89-1,1.1c-1.16.3-1.29.58-.66,1.34,1.08,1.3.22,2-1.11.93-.58-.49-1.26-.68-1.5-.44-.69.7,2,2.44,3.79,2.47A2,2,0,0,1,77.18,169c.42,1.43.46,1.41.67-.4.16-1.37.52-1.82,1.24-1.54Zm-2.3-6.23c.63-.64,1.38-.93,1.66-.65s.06.8-.49,1.15C76.29,162.38,75.55,162.06,76.79,160.83Zm4.6,7.1c0-.3-.3-.36-.67-.13a2,2,0,0,0-.68,1.58c0,1,.1,1,.68.13A4.3,4.3,0,0,0,81.39,167.93Zm-31.81.2c-.11-1.46-1.46-3.21-2-2.63-.41.41,1.16,4,1.74,4,.22,0,.36-.62.3-1.38Zm46.19.7c0-.38-.48-.69-1.06-.69s-.88.31-.65.69a1.48,1.48,0,0,0,1.07.68A.66.66,0,0,0,95.77,168.83Zm-3.42-2.4c0-.56-.29-1-.64-1-.87,0-1.48,1.07-.94,1.61C91.54,167.79,92.35,167.49,92.35,166.43Zm5.48.35a.69.69,0,1,0-.69.68A.69.69,0,0,0,97.83,166.78ZM99,166c-.22-.54-.38-.38-.41.42s.13,1.12.36.89A1.39,1.39,0,0,0,99,166Zm5,.82a.69.69,0,1,0-.69.68A.69.69,0,0,0,104,166.78Zm-17.16-3c0-.33-.4-.23-.94.22a1.83,1.83,0,0,0-.56,1.92c.36,1,.49.92.93-.22A9.61,9.61,0,0,0,86.83,163.78Zm21.27.94a.67.67,0,0,0-.65-.68,1.51,1.51,0,0,0-1.07.68c-.23.38.06.69.65.69S108.1,165.1,108.1,164.72Zm-43.81-1c0-.57-.31-1-.69-1s-.68.46-.68,1,.31,1,.68,1S64.29,164.26,64.29,163.7Zm30.12.34a.71.71,0,0,0-.73-.69c-.4,0-.53.31-.3.69s.56.68.72.68S94.41,164.41,94.41,164Zm6.5,0a1.81,1.81,0,0,0-1.41-.69c-.54,0-1,.31-1,.69s.64.68,1.41.68S101.14,164.41,100.91,164Zm-56.84-.64a.79.79,0,0,0-.31-1.07c-.38-.23-.69,0-.69.64C43.07,164.17,43.48,164.35,44.07,163.4Zm61.28-1.59c0-.28-.3-.51-.68-.51s-.68.69-.67,1.54c0,1.24.14,1.34.67.51a4.2,4.2,0,0,0,.68-1.54Zm-43.12.49A1.85,1.85,0,0,0,61,160.8a56.57,56.57,0,0,1-5.5-3.15c-2.37-1.48-4.5-2.5-4.74-2.26s-.3.55-.15.7c.42.4,11.21,7.26,11.41,7.26S62.23,162.88,62.23,162.3Zm25.2-1c.17-.51-.08-.77-.6-.6a2.16,2.16,0,0,0-1.19,1.2c-.18.51.08.77.59.6A2.09,2.09,0,0,0,87.43,161.34Zm3.92.6c.81-1.3-.36-1.62-1.56-.43s-1.07,1.16,0,1.16a2,2,0,0,0,1.58-.73ZM41.7,161.3a.69.69,0,1,0-1.37,0,.69.69,0,0,0,1.37,0Zm31.7-.44a1.14,1.14,0,0,1-.39-1.49c.38-1,.29-1-.76-.18s-1,1.08-.29,1.53a3.14,3.14,0,0,0,1.57.51C73.9,161.21,73.84,161,73.4,160.86Zm-37.86-.93a.71.71,0,0,0-.73-.68c-.4,0-.53.3-.3.68s.56.68.73.68S35.54,160.31,35.54,159.93Zm51.67-.68A2,2,0,0,0,87,157.5c-.53-.94-.81-.89-2.27.4-1.17,1-1.3,1.35-.46,1.08.66-.21,1.2-.08,1.2.29C85.51,160.13,86.68,160.12,87.21,159.25Zm-2.57-2.55c1.22-1.58,1.37-2.1.6-2-1.14.16-3.84,3-3.84,4S83,158.88,84.64,156.7Zm-57.32.53c0-.69-2.68-2.78-3.57-2.78s-.55,1.55.66,2.47C25.82,158,27.32,158.15,27.32,157.23Zm63-1.77c.48-.57.7-1.21.5-1.41-.46-.46-3.25,1.21-3.25,1.94C87.56,156.9,89.41,156.55,90.31,155.46Zm-19.86-.7c0-.59-.32-.88-.7-.64a.79.79,0,0,0-.3,1.07C70,156.14,70.45,156,70.45,154.76Zm-5.82-1.67a1.49,1.49,0,0,0-1.11-.69c-.37,0-.49.31-.26.69a1.51,1.51,0,0,0,1.11.68C64.74,153.77,64.86,153.46,64.63,153.09Zm7.87.29a4,4,0,0,0-1.06-1.45c-1.33-1.34-2.14-.67-.89.74C71.48,153.73,72.5,154.1,72.5,153.38Zm21.22-.55a2.84,2.84,0,0,1,1-1.8c.61-.5,1-.56,1-.15s.63.54,1.4.34,1.23-.53,1-.73.09-1.09.67-2c1.13-1.73.33-2.22-1-.61a1.69,1.69,0,0,1-1.68.65c-1-.37-1.81.56-3,3.33-.49,1.13-.54,1.88-.14,1.88S93.72,153.35,93.72,152.83ZM61.39,150.9a1.94,1.94,0,0,0-1.08-1.08c-.5-.17-.65.15-.4.81C60.39,151.88,61.8,152.14,61.39,150.9Zm13.16.13a.68.68,0,1,0-.68.69A.68.68,0,0,0,74.55,151ZM55.4,150c.73-.87.68-1-.26-.61-.61.24-1.12.7-1.12,1C54,151.3,54.42,151.18,55.4,150Zm33.19.36a1.49,1.49,0,0,0-1.07-.69.67.67,0,0,0-.64.69c0,.37.48.68,1.06.68S88.82,150.72,88.59,150.35ZM49.6,149a1.61,1.61,0,0,0-1.18-.73c-.45,0-.4.4.14,1.05C49.5,150.47,50.34,150.22,49.6,149Zm-8.28-.21c-.34-.88-3.44-2.57-4.7-2.57-.75,0,3.72,3.33,4.54,3.39C41.43,149.65,41.51,149.28,41.32,148.81Zm38,.1c0-.42.38-.61.85-.43s.9-.31,1-1.32c.08-1.43,0-1.53-1-.77-.63.51-.47,0,.38-1.18a14.16,14.16,0,0,0,2-4.1l.47-2.06-1.47,1.31A4.28,4.28,0,0,0,80,142.92c0,.7-.38,1.19-.85,1.1s-.9.82-1,2.73c-.07,1.6.16,2.91.51,2.91A.71.71,0,0,0,79.35,148.91Zm-6.85-2.1c0-.39-.46-.54-1-.32s-1,0-1-.38-.2-.58-.44-.34c-.61.61,1.14,2.59,1.88,2.13A1.39,1.39,0,0,0,72.5,146.81Zm-15.11-2c-1.5-2.1-1.5-2.12-.09-1.36a6,6,0,0,1,1.86,1.45,2.28,2.28,0,0,0,1.75.68c.73,0,1.32.37,1.32.82,0,.6.21.62.77.06,1-1,.14-2.35-1.29-2.1a2.11,2.11,0,0,1-1.86-1.28c-1.07-2.09-2.54-3.76-3-3.34-.19.19.24,1,1,1.88,1.29,1.52,1.29,1.53-.07.56-.75-.54-2.21-1.75-3.24-2.68s-2.08-1.49-2.33-1.24.36,1.21,1.35,2.14S55.21,142.49,55,143a1.1,1.1,0,0,0,.69,1.39,1.71,1.71,0,0,1,1.07,1.46,1.07,1.07,0,0,0,1.07,1.05c.88,0,.8-.39-.44-2.14Zm-13.64-1.25c-1.69-1.47-3.21-2.53-3.37-2.37-.54.54,4.3,5.07,5.39,5.05C46.4,146.21,45.58,145.12,43.75,143.54Zm39.57,1.19c1-1,1.06-1.91.16-1.91-.37,0-1,.61-1.4,1.37C81.28,145.69,82,146,83.32,144.73Zm-7-.54c.23-.38.09-.69-.31-.69a.71.71,0,0,0-.72.69c0,.37.14.68.3.68S76,144.56,76.27,144.19Zm-39.5-1.41c.81-1.3.77-1.35-.47-.69a3.4,3.4,0,0,1-2.43.31c-.79-.31-1-.12-.66.68C33.8,144.63,35.72,144.46,36.77,142.78Zm31.28.72c.23-.37.1-.68-.3-.68a.7.7,0,0,0-.72.68c0,.38.13.69.3.69S67.82,143.88,68.05,143.5Zm-5.31-2.74a4.6,4.6,0,0,1,1.6,1.08c.73.66,1.34.81,1.61.37s-.73-1.47-2.15-2.44c-2.92-2-3.94-2.2-3.37-.72.21.57,0,1-.39,1s-.19.57.53,1.27c1,1,1.37,1,1.54.34C62.23,141.18,62.52,140.76,62.74,140.76Zm9.76.73a1.35,1.35,0,0,0-.57-1c-.31-.19-.57.1-.57.65s.26,1,.57,1A.61.61,0,0,0,72.5,141.49Zm-3.76-1.41a4.34,4.34,0,0,0-1.83-1.37c-.32,0-.2.62.27,1.37A2.79,2.79,0,0,0,69,141.45C69.75,141.45,69.69,141.13,68.74,140.08Zm16.63.55c.64-.64.82-.64.82,0a.77.77,0,0,0,.7.82c.39,0,.52-.71.29-1.62-.28-1.11-.07-1.75.67-2a2.12,2.12,0,0,0,1.08-1.89c0-1.09.32-1.38,1.26-1.14,1.22.32,3.37-1.93,2.58-2.71-1-1-3.73.7-4.92,3a11,11,0,0,1-2.16,3.13c-1.12.71-2.45,3.22-1.71,3.22a2.73,2.73,0,0,0,1.39-.82Zm-54.62-.55c0-.38-.48-.68-1.07-.68s-.88.3-.64.68a1.44,1.44,0,0,0,1.06.68A.66.66,0,0,0,30.75,140.08Zm28.57-1.54c-.16-.47-1-.86-1.94-.87s-1.66-.42-1.67-1a1,1,0,0,0-1.19-.92c-.64.06-1-.17-.79-.51.35-.57-.68-.9-2-.66a3.49,3.49,0,0,1-1.88-1.05c-1.43-1.29-1.77-.41-.43,1.12.47.54.16.39-.69-.32s-1.75-1.08-2-.83-1-.06-1.7-.68c-2.09-1.89-1.41.05.74,2.11,1.11,1,1.84,2.34,1.64,2.86s0,1,.44,1,.57-.36.3-.8-.11-.65.71-.34,1.3.07,1.55-.89c.34-1.29.45-1.27,2.67.42,1.27,1,2.77,1.59,3.33,1.37a1.21,1.21,0,0,1,1.41.27c.6,1,1.86.8,1.52-.2Zm31,.17a.69.69,0,1,0-.69.69A.69.69,0,0,0,90.3,138.71Zm-21.4-1.16c-.64-.63-1.39-.92-1.67-.64s0,.79.5,1.14C69.4,139.11,70.14,138.79,68.9,137.55Zm-5.3-.4c0-.93-4-3.59-4.52-3-.31.3,3.6,3.92,4.23,3.92C63.47,138,63.6,137.63,63.6,137.15Zm3.77-1.73c1-.57,1.09-.78.31-.8A2.92,2.92,0,0,0,65,137c0,.48.18.47.52,0a6.55,6.55,0,0,1,1.87-1.52Zm5.82-.13c0-1.83-1.2-2.33-2.49-1-1,1-1,1.18.17,2C72.39,137.4,73.19,137.05,73.19,135.29Zm10.26,1.37c0-.38-.46-.69-1-.69s-1,.31-1,.69.46.68,1,.68S83.45,137,83.45,136.66Zm9.24,0c.24-.38.1-.69-.3-.69a.7.7,0,0,0-.72.69c0,.37.13.68.3.68S92.46,137,92.69,136.66ZM76.24,136c.5-.82-.78-1.63-1.7-1.07-.76.48-.26,1.71.7,1.71A1.39,1.39,0,0,0,76.24,136Zm-31.12-.69a1.39,1.39,0,0,0-2.06-1.06.79.79,0,0,0-.31,1.07c.52.83,2.37.82,2.37,0Zm2.42-4.11a.86.86,0,0,0-1.17-.31c-.46.29-.39.64.2,1C47.67,132.59,48.17,132.23,47.54,131.22Zm22.22.65a.7.7,0,0,0-.72-.69c-.4,0-.54.31-.3.69s.56.68.72.68S69.76,132.24,69.76,131.87Zm9.07-2.19c.86.17,1.08-.08.77-.88a1.12,1.12,0,0,0-1.37-.76c-.51.2-.94.06-.94-.3,0-1.32-1.21-.63-1.54.87a29.27,29.27,0,0,1-.82,2.91c-.42,1.15-.24,1.09,1.1-.35C76.92,130.23,78.17,129.55,78.83,129.68Zm-5.1-.73c.57-.66.84-1.4.59-1.65s-.45-.09-.45.34a.89.89,0,0,1-1,.8c-1.14,0-2,1.87-1.32,2.94.31.51.57.44.77-.23A7.66,7.66,0,0,1,73.73,129Zm-29.17,0c-.49-.49-.81-.53-.81-.1a1.88,1.88,0,0,0,.46,1.16.58.58,0,0,0,.81.1C45.21,130,45,129.43,44.56,129Zm22.47.53c0-.17-.31-.49-.69-.72s-.68-.1-.68.3a.7.7,0,0,0,.68.72C66.72,129.81,67,129.68,67,129.51ZM82.37,128c1.18-.45,1.52-3,.4-3-.38,0-.69.46-.69,1s-.3,1-.68,1a.68.68,0,0,0-.68.69C80.72,128.56,80.91,128.59,82.37,128Zm-21.82-1.17a31.91,31.91,0,0,1-4-3.38c-1.44-1.41-3-2.56-3.45-2.55s.14.86,1.32,1.88a14.68,14.68,0,0,1,2.94,3.41,2.59,2.59,0,0,0,2.63,1.5C61.77,127.68,61.8,127.63,60.55,126.86ZM79.19,124c-.13-1.62-1.21-2.5-1.21-1a.69.69,0,0,1-.86.6c-1.75-.23-2.63.07-2.22.75.24.38.64.57.9.43a3,3,0,0,1,1.84.28l1.53.6A4.2,4.2,0,0,0,79.19,124Zm-18.13-.34c-.19-.75-.47-1.37-.62-1.37s-.26.62-.26,1.37.28,1.37.62,1.37S61.26,124.4,61.06,123.65Zm10.33.31c.24-.61.12-.89-.27-.65a1.46,1.46,0,0,0-.67,1.07C70.45,125.36,70.94,125.14,71.39,124Zm11.16-1.81c-.22-.54-.38-.38-.41.42s.13,1.12.36.9a1.38,1.38,0,0,0,0-1.32Zm-7.31.13c0-.37-.14-.68-.3-.68s-.49.31-.73.68-.09.69.3.69A.71.71,0,0,0,75.24,122.28ZM77,120.74c.28-.28-.46-.51-1.66-.51s-2.16.24-2.16.54c0,.69,3.13.66,3.82,0Zm20.77-1.63c1.09-1.39,1.24-2,.65-2.74s-1-.47-2.06,1.46a17.49,17.49,0,0,0-1.28,2.74C95.09,121.49,96.51,120.72,97.78,119.11Zm-26.65-.86c0-.76-2.1-1.62-2.64-1.08-.22.22.05.68.61,1,1.28.81,2,.83,2,0Zm7.58,0c.58-4.76.58-6.21,0-6.58-1.22-.75-.78-1.84.58-1.41a1.23,1.23,0,0,0,1.71-.72c.31-.8.15-1-.58-.73s-1.21-.34-1.7-2.12c-.59-2.14-.5-2.68.66-3.76,1.52-1.41,1.81-2.7.49-2.2A4.7,4.7,0,0,0,78.21,103c-1,2.43-1.61,8.37-.83,8.37,1.2,0,.56,1.51-.8,1.86s-1.51,2-.17,1.77c.36-.07.65.31.65.86,0,1.2-.59,1.26-1.67.18s-1.93-.16-.94,1c.43.52.65,1.07.49,1.23s.61.32,1.72.37,2-.11,2-.35Zm-31.32-2c-.16-1-.32-2.25-.37-2.7s-.31-.68-.6-.51a.74.74,0,0,1-1-.37c-.6-1-1.72-.87-1.72.17,0,.47.64,1.26,1.43,1.75s1.26,1.31,1.06,1.83a1,1,0,0,0,.46,1.28c.45.18.85.35.89.38A11,11,0,0,0,47.39,116.29Zm6.82,1.12a1.75,1.75,0,0,1-.43-1.66c.19-.49-.29-1.23-1.08-1.65-1.7-.92-1.72-.84-.34,1.92.59,1.18,1.42,2.16,1.85,2.16s.57-.2,0-.77Zm4.2-1.14a10.66,10.66,0,0,1-2.54-3.06c-.42-1.15-2.56-1.73-2.51-.68.06,1.4,5,5.68,6.46,5.62C60.21,118.13,59.57,117.29,58.41,116.27Zm14.07-1.35c0-1.17-2-3-2.72-2.56-.43.27-1.53-.22-2.44-1.07s-1.88-1.34-2.15-1.07c-.68.68,3.37,3.87,4.45,3.5a1.05,1.05,0,0,1,1.27.7C71.29,115.46,72.52,115.85,72.48,114.92ZM49,112.36c-.48-1.25.33-1.34,1.56-.17.72.68.72.54,0-.67-1.35-2.24-2.4-2.37-2.27-.28s.16,2.14.71,2.14c.23,0,.24-.46,0-1Zm24.89.45A4.33,4.33,0,0,0,72.5,111c-1.09-1-1.37-1-1.37-.24,0,1.07,1.3,2.63,2.19,2.63A.57.57,0,0,0,73.87,112.81Zm26.7-.11a.69.69,0,1,0-.69.68A.68.68,0,0,0,100.57,112.7ZM56,110.63c2.22.64,2.25.62,1.08-.67s-6.06-4.11-7.29-4.11c-.5,0-.46.35.1,1,1,1.2.46,1.32-1.4.33-1-.53-1.22-.49-1,.17.45,1.17,5.35,3.81,5.83,3.13.21-.29,1.4-.24,2.65.12Zm19.9.1c0-.34-.77-1.12-1.71-1.73-2-1.31-2.18-1-.53,1C74.92,111.4,75.92,111.75,75.92,110.73Zm-28.75-2c0-.29-.61-.91-1.36-1.38-1.5-.93-1.86-.23-.55,1.08C46.19,109.38,47.17,109.54,47.17,108.76Zm26.26-2.56c-.21-.57-.51-1-.66-1s-.27.46-.27,1,.3,1,.66,1S73.65,106.76,73.43,106.2ZM106,105.13a.67.67,0,0,0-.68-.64c-.38,0-.69.48-.69,1.06s.31.88.69.65A1.51,1.51,0,0,0,106,105.13Zm-37,0a.71.71,0,0,0-.73-.68c-.39,0-.53.3-.3.68s.56.68.73.68S69.08,105.55,69.08,105.17Zm3.81-3c1.34-1.34.76-2.45-2.81-5.44-3.8-3.17-4-2.38-.32,1.2,2.78,2.69,3.56,4.31,1.75,3.61-.66-.25-.87-.05-.61.61C71.37,103.36,71.67,103.37,72.89,102.14Zm-4.15-4.5a4.17,4.17,0,0,0-1.94-1.37c-.38,0,0,.77.91,1.71C69.59,100,70.57,99.67,68.74,97.64ZM85.16,99c.24-.38.1-.68-.3-.68a.7.7,0,0,0-.72.68c0,.38.13.68.3.68S84.93,99.39,85.16,99Zm-9.25-1.38c-.8-.49-.83-.79-.15-1.47,1.42-1.42.95-2.24-.53-.91-1.28,1.17-1.3,1.32-.23,2.51.63.69,1.32,1.09,1.53.87S76.46,98,75.91,97.63Zm4.72-4.16c1.94-2.34,2.19-3,1.58-4.27-.69-1.44-.72-1.44-.76-.09a8.78,8.78,0,0,1-2.08,3.77,12.76,12.76,0,0,0-2.05,2.88C77.26,96.92,78.45,96.09,80.63,93.47Zm-15.41-.28c-.22-.56-.71-1-1.09-1s-.33.44.16,1a3.77,3.77,0,0,0,1.09,1C65.51,94.22,65.44,93.76,65.22,93.19Zm9.34.38a1.46,1.46,0,0,0-.69-1.06c-.38-.24-.68,0-.68.64s.3,1.07.68,1.07A.67.67,0,0,0,74.56,93.57Zm-2.4-1.41a.77.77,0,0,1,.33-1c1.14-.7.79-1.42-.67-1.42s-1.53.06-.94,2.27c.22.84.69,1.36,1,1.15A.72.72,0,0,0,72.16,92.16ZM69.49,90.3c-.69-.7-1.27.35-.7,1.27.43.7.6.7.83,0a1.39,1.39,0,0,0-.13-1.28Zm-3.15.5a.71.71,0,0,0-.72-.69c-.4,0-.54.31-.31.69s.56.68.73.68S66.34,91.17,66.34,90.8Zm9.58-2.1a.66.66,0,0,0-.68-.64c-.38,0-.68.48-.68,1.06s.3.88.68.65A1.44,1.44,0,0,0,75.92,88.7Zm-3.58-2.14a1.88,1.88,0,0,0-1.08-1.08c-.5-.17-.65.14-.4.81C71.34,87.53,72.76,87.79,72.34,86.56Zm5.42-1.37c-.22-.54-.38-.38-.41.41s.13,1.13.36.9A1.39,1.39,0,0,0,77.76,85.19ZM95.43,86c.24-.39,0-.5-.65-.27-1.18.46-1.4,1-.41,1A1.47,1.47,0,0,0,95.43,86ZM62.51,84.29c-.61-.94-1.54-1.71-2.07-1.71-1.35,0-1.17.62.6,2.09C63.2,86.48,63.84,86.31,62.51,84.29Zm7.25,1.07a1.48,1.48,0,0,0-.68-1.07c-.38-.23-.69.06-.69.65S68.7,86,69.08,86A.66.66,0,0,0,69.76,85.36ZM73,83.27c-.47-.76-1.09-1.37-1.38-1.37-.86,0-.58,1.91.34,2.28C73.63,84.84,73.88,84.63,73,83.27Zm10.27.12c.15-.46-.14-.65-.69-.44-1.24.47-2.88-2.57-2.39-4.43.2-.78.17-1.41-.08-1.4a2.32,2.32,0,0,0-1.9,2.38,9.12,9.12,0,0,1-.6,2.6c-.45,1.06-.27,1.17,1.27.79,1.32-.33,1.91-.16,2.23.67C81.61,84.79,82.86,84.69,83.3,83.39ZM74.56,81.9c0-.38-.14-.69-.31-.69s-.49.31-.72.69-.1.68.3.68A.71.71,0,0,0,74.56,81.9ZM54,81.24c0-.84-2.78-3.45-3.68-3.45-.38,0,.2.92,1.28,2C53.77,82.08,54,82.23,54,81.24Zm14.37,0c0-.39-.45-.88-1-1.09A3,3,0,0,1,66,78.34c-.32-1-.65-1.16-1.18-.63s-.3,1.23.87,2.47C67.35,82,68.39,82.37,68.39,81.19ZM57.82,78.11a4.71,4.71,0,0,0-2.39-1c-.59,0-.14.45,1,1,2.68,1.23,3,1.23,1.4,0Zm14.68.36a.69.69,0,1,0-.68.69A.69.69,0,0,0,72.5,78.47Zm3.42-1c0-.57-.3-1-.68-1s-.68.46-.68,1,.3,1,.68,1S75.92,78,75.92,77.45Zm-12.66-2.4a1.51,1.51,0,0,0-1.11-.68c-.37,0-.49.31-.26.68a1.49,1.49,0,0,0,1.11.69C63.38,75.74,63.49,75.43,63.26,75.05Zm15.89-2.56a5.5,5.5,0,0,1,.26-3c.37-.69.37-1.31,0-1.54-1-.6-2,3.19-1.36,4.92.79,2.15,1.53,1.92,1.09-.34Zm-8.7.51a.69.69,0,1,0-.69.68A.69.69,0,0,0,70.45,73Zm6.16-.69a.71.71,0,0,0-.73-.68c-.4,0-.53.31-.3.68s.56.69.73.69S76.61,72.69,76.61,72.31Zm-13.35-4.1a4.05,4.05,0,0,0-2.36-1.37A3.19,3.19,0,0,1,59,66c-.62-.62-.82-.62-.82,0,0,.44,1.31,1.41,2.91,2.16C64.68,69.87,64.77,69.87,63.26,68.21Zm10.61.68c0-.38-.14-.68-.3-.68s-.49.3-.73.68-.09.69.31.69A.71.71,0,0,0,73.87,68.89Zm-6-1.52c-.5-.49-.81-.53-.81-.1a1.92,1.92,0,0,0,.45,1.17.59.59,0,0,0,.81.1C68.49,68.34,68.28,67.82,67.84,67.37Zm2.86-.19c-.42-1.09-1.62-1.42-1.62-.46a1.62,1.62,0,0,0,1.46,1.49C70.84,68.21,70.91,67.74,70.7,67.18Zm-4.36-1a.69.69,0,1,0-.68.69A.69.69,0,0,0,66.34,66.15Zm6.16,0a.7.7,0,0,0-.72-.68c-.4,0-.54.31-.31.68s.56.69.73.69S72.5,66.53,72.5,66.15Zm3.42,0a.68.68,0,1,0-.68.69A.68.68,0,0,0,75.92,66.15Zm-.68-2.05a.69.69,0,1,0-.68.68A.68.68,0,0,0,75.24,64.1ZM66,60a.79.79,0,0,0-.3-1.07c-.39-.23-.7.05-.7.64C65,60.81,65.38,61,66,60Zm9.25-1.25a5.74,5.74,0,0,0-1.06-1.87c-.88-1.18-1.12-1.22-1.68-.35a4.29,4.29,0,0,0-.64,1.71c0,.38.28.23.64-.32.54-.86.7-.84,1.08.17S75.26,59.79,75.22,58.79Zm5.24-2.44c.57.23.94-.09.94-.81s-.36-1-1-.78-1,0-1-.88-1-1.87-2.3-2.63l-2.29-1.36.18,2.28c.23,2.87.86,3.91,2.08,3.44.58-.22,1,.08,1,.78s.2.94.77.37A1.79,1.79,0,0,1,80.46,56.35Zm.26-6.62A.69.69,0,0,0,80,49a.69.69,0,1,0,.69.69ZM77.29,46.3c0-.37-.13-.68-.3-.68s-.49.31-.72.68-.1.69.3.69A.7.7,0,0,0,77.29,46.3Zm-3.42-6.84c-.44-.82-1-1.33-1.14-1.15s0,1,.46,1.83,1,1.33,1.13,1.15S74.31,40.28,73.87,39.46Zm41.41,187.19c-1.13-.93-1.87-1.69-1.64-1.69,1,0,4.72,2.21,4.72,2.79,0,1-.88.7-3.08-1.1Zm-90.54,0c.65-.68,1.33-1.09,1.51-.91s-.35.74-1.18,1.23C23.63,227.81,23.61,227.8,24.74,226.62Zm10-5.18c.86-.45,1.41-1.23,1.22-1.73s.16-.91,1-.91c1.16,0,1.26.21.64,1.37-.4.75-1,1.37-1.34,1.37a9.08,9.08,0,0,0-1.85.36C33.68,222.11,33.82,221.91,34.71,221.44Zm87.76-7.36c0-.42.59-.76,1.31-.76a9.36,9.36,0,0,0,2.57-.44c.88-.31,1.05-.22.57.29C125.88,214.29,122.47,215,122.47,214.08Zm.69-2.85-2.4-.47,2.34-.09a6.47,6.47,0,0,0,3.42-1c.76-.67,1.9-.82,3.78-.51l2.69.45-1.89.86a3.91,3.91,0,0,1-2.51.47,2.31,2.31,0,0,0-1.83.21A7.3,7.3,0,0,1,123.16,211.23Zm6.16-4.09c0-.36.46-.66,1-.66s1,.12,1,.27-.46.44-1,.66S129.32,207.51,129.32,207.14Zm-3.43-6.4a3.76,3.76,0,0,1,1-1.11c.84-.7,1-.65,1,.26a1.08,1.08,0,0,1-1,1.11c-.56,0-1-.11-1-.26Zm-39-6.86c0-.35,4.72-3.15,5.3-3.15.24,0-.61.77-1.88,1.72C88.16,194,86.88,194.56,86.88,193.88Zm12-.41a1.51,1.51,0,0,1,1.1-.68c.38,0,.5.31.26.68a1.49,1.49,0,0,1-1.1.69C98.74,194.16,98.62,193.85,98.86,193.47Zm21.58-3.38c-.4-.75-.45-1.49-.1-1.7s.75.39.93,1.32c.39,2,.13,2.17-.83.38ZM19,190.42a9,9,0,0,0-2.68-.6c-2.94-.36-4.77-1.09-4.77-1.9s.56-.78,4.67.44c1.95.58,3.54,1.35,3.54,1.72C19.79,190.79,19.52,190.91,19,190.42Zm-4.37-9.32c-2.16-1.38-1.88-1.82.39-.61,1,.52,1.32.49,1.32-.11,0-1.09.91-.15,1.1,1.13s-.28,1.22-2.81-.41Zm12,.05c-.91-.59-.91-.66,0-.66a4.57,4.57,0,0,1,2.05.66c.92.59.92.66,0,.66A4.45,4.45,0,0,1,26.64,181.15ZM34.85,178a15.42,15.42,0,0,1-4.45-1.73c-.46-.48-.25-.59.69-.32,4.41,1.24,5.33,1.33,4.78.43-.42-.68-.23-.77.75-.36.72.29,1.85.69,2.51.88,1.36.39,1.66,2.27.34,2.17A44.9,44.9,0,0,1,34.85,178Zm89-.11a2.64,2.64,0,0,1,.81-1.34c1.46-1.46.14-1.56-1.53-.12s-4.8,1.58-5.27.14c-.16-.46.51-1.15,1.47-1.51s1.62-1,1.39-1.63a1.06,1.06,0,0,1,.63-1.35c1.48-.56,3.87.23,3.87,1.3,0,.57.42.76,1.1.5.9-.34,1-.13.61,1.15-.49,1.53-.42,1.56,3.17,1.13,3.36-.4,3.53-.36,2,.49-2,1.08-8.21,2-8.21,1.24Zm-.34-4.23c.23-.38.11-.68-.26-.68a1.48,1.48,0,0,0-1.11.68c-.23.38-.12.69.26.69A1.51,1.51,0,0,0,123.5,173.62Zm-102,.69c-.24-.38-.1-.69.3-.69a.7.7,0,0,1,.72.69c0,.37-.13.68-.3.68S21.74,174.68,21.51,174.31Zm109.17-.21a1.1,1.1,0,0,0-1-1.16c-.57,0-1-.31-1-.69,0-1,1.33-.82,2.54.39.8.8.87,1.27.29,1.85S130.68,175,130.68,174.1Zm-88-.47c-.24-.39,0-.5.64-.27,1.19.46,1.41.95.42.95A1.47,1.47,0,0,1,42.73,173.63Zm67.76-.69c.23-.38.56-.69.73-.69s.3.31.3.69a.71.71,0,0,1-.73.68C110.39,173.62,110.26,173.31,110.49,172.94Zm-70.16-.69a5.32,5.32,0,0,0-3.12-.28c-1.77.33-2.21.11-2.91-1.41-1.08-2.37-1-2.73.21-1.49a3.41,3.41,0,0,1,1,1.76c0,1,1.18.95,1.51,0,.18-.53.94-.42,2.45.36a7,7,0,0,1,2.2,1.46C41.7,173.06,41.51,173,40.33,172.25Zm72.56,0a.7.7,0,0,1,.72-.68c.4,0,.54.31.3.68s-.55.69-.72.69S112.89,172.63,112.89,172.25Zm-4.88-1.2c-.87-1.1-.84-1.12.43-.19l1.65,1.2c.16.11,0,.19-.43.19A3,3,0,0,1,108,171.05Zm3.85-.42a5.14,5.14,0,0,1,2.36-1.09c1.41,0,.07,1.08-2,1.68-1.66.48-1.67.46-.34-.59Zm15.74-1.12c1.89-.81,2.56-.81,2.06,0a2.43,2.43,0,0,1-1.92.64C126.29,170.1,126.28,170.08,127.6,169.51Zm-.79-2.39c.75-1.6,1.85-2.34,1.8-1.2,0,.67-1.73,2.91-2.21,2.91C126.19,168.83,126.38,168.06,126.81,167.12Zm8.32,1a8,8,0,0,1,2.74-.57c1.1,0,1,.12-.34.57C135.19,168.89,133.39,168.89,135.13,168.15Zm5.52-.63c-.21-.34.23-.45,1-.26,1.59.42,1.8.89.38.89A1.74,1.74,0,0,1,140.65,167.52Zm-29.81-1.94c0-.61,3.9-2.91,4.94-2.91.39,0-.41.77-1.8,1.71C111.28,166.21,110.83,166.38,110.84,165.58ZM39.66,164.4c-.54-.65-.59-1.05-.14-1.05.83,0,1.79,1.3,1.32,1.78C40.67,165.3,40.14,165,39.66,164.4Zm74.6-3.83c0-1-.31-1.35-1-1.08-2.16.83-.91-.28,1.54-1.36,1.88-.84,2.24-1.22,1.36-1.43-.66-.16-1-.58-.81-.93.79-1.28-.92-.58-2.77,1.14-1.45,1.34-2,1.55-2.46.88-.6-1,3.27-4.92,4.24-4.32.31.19,1.21-.3,2-1.1,1.74-1.74,2.73-1.2,1.11.59a4.76,4.76,0,0,0-1.14,1.73c0,.91,3.38-.14,4.84-1.5a3,3,0,0,1,2.53-1c.73.27.9.14.55-.44s0-1.4.65-2.14c1.09-1.21,1.09-1.37,0-2.43-1.59-1.59-.7-2.16,1-.64,1.27,1.15,1.3,1.39.35,2.83a6.29,6.29,0,0,0-1,2.31c0,1-2.85,4.79-3.61,4.79a8.74,8.74,0,0,0-2.67,2.06,19,19,0,0,1-3.37,2.76c-1.09.59-1.3.47-1.3-.76Zm-89.12.26a1.35,1.35,0,0,1,1.31.06c.23.22-.17.39-.89.36S24.6,161.05,25.14,160.83Zm68.64,0c0-.43.68-1.27,1.59-1.86,1.41-.92,1.7-.94,2-.1.45,1.17-.62,2-2,1.46a1,1,0,0,0-1.28.46c-.23.56-.35.57-.38,0Zm-50.69-1.6c-.56-.35-.84-.8-.64-1s1,.08,1.69.63C45.59,160,44.71,160.3,43.09,159.27Zm67.44-6.1c1.48-1.57,5.6-2.82,4.74-1.43a1.16,1.16,0,0,1-1.38.4c-.5-.19-1.78.3-2.84,1.09l-1.93,1.45Zm-92.4-3.43c-.21-.34,0-.76.47-.93,1.2-.44,2.65.16,2.18.91A1.77,1.77,0,0,1,18.13,149.74Zm101.33-2.52c-.57-1.51.06-2.15,1.11-1.1.57.57.59,1,.07,1.54S119.78,148.05,119.46,147.22Zm-97.74-.08a1.36,1.36,0,0,1,1.31.06c.23.22-.18.39-.9.36S21.17,147.36,21.72,147.14Zm3.9-2.94c-.24-.39,0-.51.64-.27,1.19.45,1.4.94.42.94A1.46,1.46,0,0,1,25.62,144.2Zm86.6-1.76a5.4,5.4,0,0,1,1-2c.55-.73,1-1,1-.68a5.23,5.23,0,0,1-1,2C112.66,142.48,112.21,142.79,112.22,142.44Zm-8.6-2.41c-.25-.4-.31-.87-.13-1.05s.51.15.74.73C104.69,140.91,104.29,141.13,103.62,140Zm2.43-2.52c0-.84.3-1.54.68-1.54.85,0,.85.73,0,2.06C106.19,138.86,106.06,138.76,106.05,137.51Zm8.21-.51c-.7-.84-.65-1,.25-1a1.08,1.08,0,0,1,1.12,1c0,.56-.12,1-.26,1S114.73,137.56,114.26,137Zm-82.83-.38c0-.4.31-.54.69-.3s.68.55.68.72-.31.3-.68.3A.7.7,0,0,1,31.43,136.62Zm-13-.65c0-.37.46-.68,1-.68s1,.31,1,.68-.46.69-1,.69S18.43,136.35,18.43,136Zm7-.13a2.77,2.77,0,0,1-.82-1.37c0-1,1-.56,1.89.82S26.72,137.15,25.41,135.84Zm84.74.15c0-.36.46-.48,1-.26s1,.51,1,.66-.46.27-1,.27S110.15,136.36,110.15,136Zm-7-3.43c.64-1.13,1.55-2.06,2-2.06a.78.78,0,0,0,.85-.67c0-.87,3.34-3.06,3.87-2.54.7.7-2.33,4.88-4.44,6.12C102.52,135.14,101.84,134.89,103.17,132.56Zm-74.38.07c-.57-.37-.66-.76-.24-1s.86,0,1.08.6C30.08,133.39,30,133.42,28.79,132.63Zm-6.26-1.45c0-.37.46-.68,1-.68s1,.31,1,.68-.47.69-1,.69S22.53,131.56,22.53,131.18Zm12.67-2.86c-2.1-2.5-1.7-3.48.56-1.36a5.39,5.39,0,0,0,2.39,1.48c1.14,0,1,1.15-.18,1.61C37.38,130.27,36.25,129.57,35.2,128.32Zm77-2.27c.94-1.13,1.78-2.18,1.88-2.34s.32-.14.5.05-.66,1.24-1.88,2.34l-2.21,2Zm-3.09-1.71a1.49,1.49,0,0,1,1.07-.69.67.67,0,0,1,.64.69c0,.37-.48.68-1.06.68S108.89,124.71,109.12,124.34Zm2.15-3.77c.22-.56.71-1,1.09-1s.33.43-.16,1a3.77,3.77,0,0,1-1.09,1C111,121.6,111.05,121.14,111.27,120.57Zm-19.5-4.41c.15-.46.5-.8.77-.77.82.08.66,1-.22,1.31C91.87,116.85,91.62,116.61,91.77,116.16Zm-6.29-4.1c1-1.87.88-2.41-.31-1.42-.83.69-1.1.63-1.47-.33a1.5,1.5,0,0,1,.19-1.62c2-1.35,4.8-6.35,3-5.23-.38.23-.68.17-.68-.13,0-.52,4.37-3.64,5.09-3.64s-.73,2.63-3.25,5.68c-2.89,3.5-3,4.06-.77,3.21,1.27-.48,6.45-8.14,6.45-9.54,0-.31.57-.7,1.26-.88,1-.27.81.33-1,3.06-2.15,3.19-2.75,4.63-1.95,4.63s2.8-2.54,4.11-5c1.67-3.22,6.5-8.66,6.5-7.33,0,1-3.28,5.7-4.25,6.11s-.54,1.63.49,1.24c.56-.22,1-.14,1,.18,0,.88-1.77,2.17-2.28,1.66-.25-.25-1.42.68-2.61,2.07-1.41,1.66-2.55,2.4-3.3,2.16s-1.87.52-3.32,2.34a11.89,11.89,0,0,0-2.18,3.43.71.71,0,0,1-.71.72c-.49,0-.49-.41,0-1.32Zm27.18.18c-.9-.89-.47-3.65.57-3.65.56,0,1,.31,1,.69a.66.66,0,0,1-.62.68c-.35,0-.46.62-.27,1.37C113.74,112.73,113.48,113.06,112.66,112.24Zm-74.24-6.39c-.65-1.13-1.53-1.92-2-1.75-1.21.45-1.69-.4-.82-1.45.65-.78,1-.75,2,.21A3.8,3.8,0,0,1,39,105.05c0,.57.2.83.45.58.52-.52,2.29.78,2.29,1.68C41.7,108.72,39.49,107.74,38.42,105.85Zm2.21-4.17a2.75,2.75,0,0,0-2-.62c-1.27,0-1.53-.28-1.25-1.37.22-.84,0-1.36-.52-1.36s-.68-.2-.44-.44.91,0,1.49.42,1,.62,1,.1a.76.76,0,0,1,.73-.77c.44,0,.54.59.26,1.47-.36,1.14-.23,1.39.58,1.08a2.71,2.71,0,0,1,2.23.47c1.11.82,1.09.9-.27,1.26-.81.21-1.65.1-1.86-.24Zm13.79-3c-1-1.49-1-1.7-.07-1.7a1,1,0,0,1,1,1,1.37,1.37,0,0,0,.82,1.24c.58.19.6.41.08.74S55,99.6,54.42,98.66Zm-5.49-.54c.26-.67.64-1.05.85-.84s0,.76-.47,1.23C48.64,99.18,48.56,99.1,48.93,98.12Zm59.17.25a1.44,1.44,0,0,1,.68-1.07c.38-.23.68.06.68.64s-.3,1.07-.68,1.07A.66.66,0,0,1,108.1,98.37Zm-73.59-2.1c.23-.37.56-.68.73-.68s.3.31.3.68a.71.71,0,0,1-.73.69C34.41,97,34.28,96.65,34.51,96.27Zm6.5,0-1.71-.55,1.84-.06a3.05,3.05,0,0,1,2.27.61C43.89,97.05,43.44,97.05,41,96.27Zm11.35-1.72c-.73-.55-1.18-1.14-1-1.3s1.07.28,2,1,1.39,1.3,1,1.3A5,5,0,0,1,52.36,94.55Zm41.16-1.34a4,4,0,0,1,2.2-1.71c.67,0,.47.52-.63,1.69C93,95.4,91.92,95.41,93.52,93.21ZM48.2,82.58c-.23-.37-.1-.68.3-.68a.71.71,0,0,1,.73.68c0,.38-.14.69-.3.69S48.43,83,48.2,82.58Zm42.51.11A.85.85,0,0,1,91,81.53c1-.65,1.73.24.85,1.12C91.38,83.14,91,83.16,90.71,82.69Zm3.53-1.11c-.18-.93-.09-1.55.19-1.38s1.37-.81,2.42-2.19c1.7-2.23,2-2.36,2.39-1.19.63,1.71-1.95,6.45-3.51,6.45C95,83.27,94.43,82.58,94.24,81.58ZM84.82,81a1.86,1.86,0,0,1,.69-1.45,2.37,2.37,0,0,0,.68-1.8,3.89,3.89,0,0,1,1-2.4c.91-.92,1-.83,1,.81,0,1.47.18,1.69.91,1.09.51-.42,1.14-.55,1.4-.29s.65-.18.86-1c.36-1.37,2.14-2.64,2.79-2s-5.57,6.9-7.22,6.94a3.82,3.82,0,0,0-1.31.55C85.13,81.78,84.82,81.61,84.82,81Zm-36.45-.21c-1.31-.34-1.57-1.27-.55-1.9.36-.22,1,.22,1.4,1s.65,1.36.55,1.31S49,80.91,48.37,80.74ZM99.88,77c0-.41.62-.91,1.37-1.11s1.37-.68,1.37-1.07.2-.52.45-.27c.5.5-1.7,3.2-2.61,3.2A.68.68,0,0,1,99.88,77Zm-41-1.58c-.52-.63-.56-1.12-.12-1.39s1,.2,1.43,1C61,76.61,60.07,76.92,58.86,75.46Zm25.33.41c0-.5-.37-.7-.76-.46-1.25.77.11-3.34,1.57-4.73,1-1,1.27-1.9,1-3.94-.19-1.45-.07-2.64.27-2.64s.62.6.62,1.33a2.3,2.3,0,0,0,.68,1.75c.46.28.46.85,0,1.7s-.45,1.35.07,1.52.06,1.09-.93,2.28a15.82,15.82,0,0,0-2.07,3.06c-.27.7-.41.74-.45.13Zm5.42-2.19a.71.71,0,0,1,.73-.68c.4,0,.53.31.3.68s-.56.69-.72.69S89.61,74.06,89.61,73.68Zm-36.29-1c-.72-.87-.68-1,.26-.61.62.24,1.12.71,1.12,1C54.7,74,54.31,73.83,53.32,72.64Zm42-2.09c-.88-1.85-.48-2.06,1.32-.7,1,.73,1,1.06.33,1.64S95.9,71.79,95.32,70.55ZM97.83,72c0-.14.46-.44,1-.66s1-.09,1,.27-.46.66-1,.66S97.83,72.19,97.83,72ZM49.91,67.51a5.3,5.3,0,0,0-3.08-.33c-1.87.32-1.91.29-.45-.34,1.71-.74,4.9-.25,4.9.76C51.28,68.35,51.19,68.35,49.91,67.51Zm38.37-1.22c0-1.19,2-5.15,2.46-4.71.19.18-.28,1.52-1,3S88.29,66.78,88.28,66.29ZM81.4,63.8c0-.59.31-1.07.68-1.07a.67.67,0,0,1,.69.65,1.46,1.46,0,0,1-.69,1.06C81.71,64.67,81.4,64.38,81.4,63.8ZM87.56,62c0-.78.31-1.22.69-1a1.83,1.83,0,0,1,.68,1.41c0,.54-.31,1-.68,1S87.56,62.78,87.56,62Zm1.07-2a2,2,0,0,1,1.48-2.8c.83,0,.88.2.21,1A1.68,1.68,0,0,0,89.94,60c.24.4.13.72-.25.72A1.4,1.4,0,0,1,88.63,60.05ZM86.3,58.51a1.8,1.8,0,0,0-1-1.45c-.58-.2-.31-.79.79-1.77,1.77-1.58,2.8-1.86,2.8-.77,0,.37-.44.68-1,.68s-1.1.88-1.26,2.23S86.36,59.14,86.3,58.51Zm-2.51-.58c-.58-.93.27-3.41,1.16-3.41.48,0,.46.31-.06.94a2.32,2.32,0,0,0-.35,2c.47,1.22-.07,1.52-.75.42Zm7.89-1.73C91.7,55,93,53.52,93.47,54c.28.28,0,1-.65,1.67S91.67,56.57,91.68,56.2ZM60.69,52c-1-.54-1.88-1.3-1.88-1.68s.93,0,2,.76a9,9,0,0,1,2.06,1.76C62.92,53.2,63.05,53.25,60.69,52Zm34.4-.23a.71.71,0,0,1,.73-.69c.39,0,.53.31.3.69s-.56.68-.73.68S95.09,52.16,95.09,51.78Zm-.88-3.42c-.22-.85,0-1.37.52-1.37,1.11,0,2.55,1.69,2,2.28C95.8,50.16,94.56,49.7,94.21,48.36Zm-13.49-2a1.48,1.48,0,0,1,.68-1.1c.38-.24.68-.12.68.26a1.48,1.48,0,0,1-.68,1.1C81,46.88,80.72,46.76,80.72,46.38Zm-19.86-.8c0-.4.31-.54.69-.3s.68.55.68.72-.3.3-.68.3A.7.7,0,0,1,60.86,45.58Zm.69-2.74c0-.4.31-.53.68-.3s.69.56.69.72-.31.3-.69.3A.7.7,0,0,1,61.55,42.84ZM90.3,41.25A1.87,1.87,0,0,1,91,39.8c.38-.23.69,0,.69.6A1.84,1.84,0,0,1,91,41.85C90.61,42.09,90.3,41.81,90.3,41.25ZM76.61,34a.69.69,0,1,1,.68.69A.69.69,0,0,1,76.61,34ZM72.5,29.87c0-.37.45-.68,1-.68a1.84,1.84,0,0,1,1.41.68c.23.38-.21.69-1,.69S72.5,30.25,72.5,29.87Zm3.83-1.78c-.24-.63-.28-1.3-.1-1.49s.55.18.79.81.29,1.31.1,1.5S76.58,28.73,76.33,28.09Z"/></svg>