<svg xmlns="http://www.w3.org/2000/svg" width="300" height="300" viewBox="0 0 300 300"><title>flag-michigan-icon-e-pluribus-unum</title><path d="M55.21,146l7.71-2.68.9,2.58-5,1.75,1.14,3.3,4.84-1.67.9,2.58-4.84,1.67L62,156.8,67,155.05l.89,2.6-7.71,2.68L55.2,146"/><path d="M83.48,152.89l-3.82-14.71,3.46-.91a6.91,6.91,0,0,1,4.19-.25,4.7,4.7,0,0,1,2.92,3.21,4.92,4.92,0,0,1-.79,4.21c-1,1.29-2.69,1.65-4.14,2l-.54.12,1.45,5.58-2.73.72"/><path d="M92.09,135.06l2.77-.61,2.65,12.18,4.54-1,.57,2.69-7.29,1.58L92.09,135"/><path d="M105.09,132.4l1.6,9.36a4.34,4.34,0,0,0,.62,2,2.29,2.29,0,0,0,2.2.95,2.36,2.36,0,0,0,1.7-1.4,4.07,4.07,0,0,0,0-2.32l-1.59-9.34,2.79-.48,1.59,9.34a6.08,6.08,0,0,1-.41,4.25,5.42,5.42,0,0,1-3.65,2.64,5.5,5.5,0,0,1-4.14-1.17,5.94,5.94,0,0,1-1.92-4l-1.59-9.36,2.78-.46"/><path d="M116.81,130.54l4.37-.5a6.05,6.05,0,0,1,4.06.6,5,5,0,0,1,2.17,3.53,5.4,5.4,0,0,1-.87,3.42,4.89,4.89,0,0,1-2.51,1.78l4.73,5.11-3.45.38-4.63-5.33.66,5.8-2.8.31-1.73-15.11"/><path d="M130,129.18l2.8-.21,1.14,15.17-2.82.2L130,129.18"/><path d="M137,128.67l2.75-.08a8.81,8.81,0,0,1,4.08.44,4,4,0,0,1,2.23,3.34,3.12,3.12,0,0,1-1.56,3,3.67,3.67,0,0,1,2.71,3.59,4.42,4.42,0,0,1-1.74,3.68,7.21,7.21,0,0,1-4.17,1.14l-3.8.13-.5-15.2"/><path d="M153.26,128.43l-.25,9.46a4.3,4.3,0,0,0,.24,2.08,2.25,2.25,0,0,0,2,1.34,2.32,2.32,0,0,0,1.94-1,4.14,4.14,0,0,0,.47-2.28l.25-9.48,2.82.08-.25,9.49a6,6,0,0,1-1.22,4.08,5.08,5.08,0,0,1-7.92-.07,5.83,5.83,0,0,1-1.12-4.28l.25-9.48,2.81.08"/><path d="M166,139.93a2.05,2.05,0,0,0,4.08.32c.13-1.65-1.23-2.28-2.44-2.78a5.64,5.64,0,0,1-2.51-1.61,4.28,4.28,0,0,1-1-3,4.4,4.4,0,0,1,4.83-4,4.45,4.45,0,0,1,4.07,4.67l-2.89-.24a1.66,1.66,0,0,0-1.57-1.71,1.48,1.48,0,0,0-1.62,1.49c-.12,1.09.87,1.62,1.75,2a8.53,8.53,0,0,1,2.84,1.63,4,4,0,0,1,1.31,3.56,4.93,4.93,0,0,1-9.83-.62l2.94.24"/><path d="M193.6,132.44l-1.78,9.32a4.45,4.45,0,0,0-.12,2.08,2.23,2.23,0,0,0,3.82,1,4.08,4.08,0,0,0,.83-2.18l1.8-9.32,2.75.55-1.77,9.3a6.16,6.16,0,0,1-1.87,3.85,5.41,5.41,0,0,1-4.33,1.16,5.47,5.47,0,0,1-3.48-2.56,5.79,5.79,0,0,1-.41-4.38l1.79-9.31,2.77.53"/><path d="M205.22,134.78l3.07.78,3.42,12.32,2.72-10.77,2.73.69-3.72,14.73-3-.76-3.47-12.28-2.72,10.71-2.73-.69,3.73-14.73"/><path d="M224,139.85l-2.82,9.06a4.44,4.44,0,0,0-.34,2,2.33,2.33,0,0,0,1.55,1.86,2.38,2.38,0,0,0,2.14-.46,4.27,4.27,0,0,0,1.07-2.05l2.8-9.07,2.69.85-2.8,9a6.17,6.17,0,0,1-2.29,3.6,5,5,0,0,1-7.59-2.24,5.83,5.83,0,0,1,.07-4.4l2.81-9.07,2.7.85"/><path d="M235.29,143.4l3.6,1.32L238.68,157l7.91-9.47,3.59,1.33-5.27,14.26-2.64-1,3.95-10.69-7.64,9.32-2.24-.82.27-12.05-4,10.7-2.64-1,5.28-14.25"/><path d="M84.58,143.84a7.9,7.9,0,0,0,2.06-.73,2,2,0,0,0,.87-2.16,1.84,1.84,0,0,0-1.87-1.37,8.44,8.44,0,0,0-2.06.4l-.51.13,1,3.84.51-.11" fill="#fff"/><path d="M122,137.25a3.29,3.29,0,0,0,2.15-.89,2.28,2.28,0,0,0,.51-1.73,2.11,2.11,0,0,0-1-1.59,3,3,0,0,0-2.15-.26l-1.56.16.52,4.47,1.54-.16" fill="#fff"/><path d="M141.4,141a3.89,3.89,0,0,0,2.31-.59,1.76,1.76,0,0,0-.37-3,4.14,4.14,0,0,0-2-.25l-1.24,0,.13,3.89,1.17,0" fill="#fff"/><path d="M140.55,134.41a5,5,0,0,0,1.9-.28,1.57,1.57,0,0,0,.83-1.44,1.46,1.46,0,0,0-1-1.31,5,5,0,0,0-1.86-.07l-.51,0,.1,3.1.52,0" fill="#fff"/><path d="M41.07,163.11s-2.77-6.73-4.35-10.29-5.94-7.11,3.56-11.08S66,136.2,64.82,125.93M34,147.69c2,4.34,3.56,3.15,9.1.78s17.41-7.92,25.71-10.67m80.36,10.29c34.82,0,72.41,8.69,100.9,23.74,0,0,2.78,0,4.76-4s2.77-4.36,2.77-4.36,15.83,13.85,23.73,16.64a42.58,42.58,0,0,1-3.56-16.23l19-5.54c-13.85-6.33-30.86-17-39.57-26.53s-23-13-24.53-4.73S229,138.18,229,138.18s-33.23-13.05-79.93-13.05-79.94,13.05-79.94,13.05-2-2.76-3.56-11.06-15.83-4.76-24.54,4.73S15.35,152,1.5,158.38l19,5.54a42.67,42.67,0,0,1-3.55,16.23c7.89-2.79,23.72-16.64,23.72-16.64s.8.41,2.78,4.36,4.75,4,4.75,4c28.49-15.05,66.08-23.74,100.92-23.74Z" fill="none" stroke="#000" stroke-linecap="round" stroke-linejoin="round" stroke-width="1.5"/><path d="M257.15,163.11s2.77-6.73,4.36-10.29,5.93-7.11-3.57-11.08-25.73-5.54-24.53-15.81m30.86,21.76c-2,4.34-3.56,3.15-9.1.78s-17.41-7.92-25.72-10.67" fill="none" stroke="#000" stroke-linecap="round" stroke-linejoin="round" stroke-width="1.5"/></svg>