<svg xmlns="http://www.w3.org/2000/svg" xmlns:xlink="http://www.w3.org/1999/xlink" width="600" height="366" viewBox="0 0 600 366"><defs><clipPath id="a"><polygon points="71.81 3.16 284.5 3.16 284.62 215.75 71.81 215.85 71.81 3.16" fill="none"/></clipPath></defs><title>flag-mississippi-dimensions</title><rect x="71.81" y="3.16" width="490.54" height="327.03" fill="#fff" stroke="#50d6cc" stroke-linecap="round" stroke-linejoin="round"/><path d="M284.51,3.16H562.35v218H71.81v-5.32h212.7Z" fill="#fff" stroke="#50d6cc" stroke-linecap="round" stroke-linejoin="round"/><g clip-path="url(#a)"><polygon points="269.29 231.08 178.16 139.96 87.04 231.08 56.59 200.64 147.72 109.51 56.59 18.38 87.04 -12.06 178.16 79.06 269.29 -12.06 299.74 18.38 208.61 109.51 299.74 200.64 269.29 231.08" fill="none" stroke="#50d6cc" stroke-linecap="round" stroke-linejoin="round"/><polygon points="273.34 227.04 178.16 131.86 82.99 227.04 60.64 204.68 155.81 109.51 60.64 14.34 82.99 -8.02 178.16 87.16 273.34 -8.02 295.69 14.34 200.52 109.51 295.69 204.68 273.34 227.04" fill="none" stroke="#50d6cc" stroke-linecap="round" stroke-linejoin="round"/><polygon points="93.08 13.8 90.7 21.14 82.97 21.14 89.22 25.69 86.83 33.03 93.08 28.49 99.34 33.03 96.95 25.69 103.2 21.14 95.47 21.14 93.08 13.8" fill="none" stroke="#50d6cc" stroke-linecap="round" stroke-linejoin="round"/><polygon points="121.44 42.16 119.06 49.5 111.33 49.5 117.58 54.05 115.19 61.4 121.44 56.85 127.7 61.4 125.31 54.05 131.56 49.5 123.83 49.5 121.44 42.16" fill="none" stroke="#50d6cc" stroke-linecap="round" stroke-linejoin="round"/><polygon points="149.8 70.52 147.42 77.86 139.69 77.86 145.94 82.41 143.55 89.75 149.8 85.21 156.06 89.75 153.67 82.41 159.92 77.86 152.19 77.86 149.8 70.52" fill="none" stroke="#50d6cc" stroke-linecap="round" stroke-linejoin="round"/><polygon points="208.91 134.58 206.52 127.24 204.14 134.58 196.41 134.58 202.66 139.13 200.27 146.47 206.52 141.93 212.78 146.47 210.39 139.13 216.64 134.58 208.91 134.58" fill="none" stroke="#50d6cc" stroke-linecap="round" stroke-linejoin="round"/><polygon points="237.27 162.94 234.88 155.6 232.5 162.94 224.77 162.94 231.02 167.49 228.63 174.84 234.88 170.29 241.13 174.84 238.75 167.49 245 162.94 237.27 162.94" fill="none" stroke="#50d6cc" stroke-linecap="round" stroke-linejoin="round"/><polygon points="265.63 191.3 263.24 183.96 260.86 191.3 253.13 191.3 259.38 195.85 256.99 203.19 263.24 198.65 269.5 203.19 267.11 195.85 273.36 191.3 265.63 191.3" fill="none" stroke="#50d6cc" stroke-linecap="round" stroke-linejoin="round"/><polygon points="256.99 33.03 263.24 28.49 269.5 33.03 267.11 25.69 273.36 21.14 265.63 21.14 263.24 13.8 260.86 21.14 253.13 21.14 259.38 25.69 256.99 33.03" fill="none" stroke="#50d6cc" stroke-linecap="round" stroke-linejoin="round"/><polygon points="234.88 42.16 232.5 49.5 224.77 49.5 231.02 54.05 228.63 61.4 234.88 56.85 241.13 61.4 238.75 54.05 245 49.5 237.27 49.5 234.88 42.16" fill="none" stroke="#50d6cc" stroke-linecap="round" stroke-linejoin="round"/><polygon points="206.52 70.52 204.14 77.86 196.41 77.86 202.66 82.41 200.27 89.75 206.52 85.21 212.78 89.75 210.39 82.41 216.64 77.86 208.91 77.86 206.52 70.52" fill="none" stroke="#50d6cc" stroke-linecap="round" stroke-linejoin="round"/><polygon points="152.19 134.58 149.8 127.24 147.42 134.58 139.69 134.58 145.94 139.13 143.55 146.47 149.8 141.93 156.06 146.47 153.67 139.13 159.92 134.58 152.19 134.58" fill="none" stroke="#50d6cc" stroke-linecap="round" stroke-linejoin="round"/><polygon points="123.83 162.94 121.44 155.6 119.06 162.94 111.33 162.94 117.58 167.49 115.19 174.84 121.44 170.29 127.7 174.84 125.31 167.49 131.56 162.94 123.83 162.94" fill="none" stroke="#50d6cc" stroke-linecap="round" stroke-linejoin="round"/><polygon points="95.47 191.3 93.08 183.96 90.7 191.3 82.97 191.3 89.22 195.85 86.83 203.19 93.08 198.65 99.34 203.19 96.95 195.85 103.2 191.3 95.47 191.3" fill="none" stroke="#50d6cc" stroke-linecap="round" stroke-linejoin="round"/><polygon points="180.55 106.22 178.16 98.88 175.78 106.22 168.05 106.22 174.3 110.77 171.91 118.11 178.16 113.57 184.41 118.11 182.03 110.77 188.28 106.22 180.55 106.22" fill="none" stroke="#50d6cc" stroke-linecap="round" stroke-linejoin="round"/></g><rect x="289.83" y="3.16" width="272.52" height="109.01" fill="#fff" stroke="#50d6cc" stroke-linecap="round" stroke-linejoin="round"/><line x1="4.59" y1="181.72" x2="4.59" y2="184.22" fill="none" stroke="#a3a3a3" stroke-linecap="round" stroke-linejoin="round"/><line x1="4.59" y1="189.17" x2="4.59" y2="325.21" fill="none" stroke="#a3a3a3" stroke-linecap="round" stroke-linejoin="round" stroke-dasharray="4.95 4.95"/><polyline points="4.59 327.69 4.59 330.19 7.09 330.19" fill="none" stroke="#a3a3a3" stroke-linecap="round" stroke-linejoin="round"/><line x1="11.98" y1="330.19" x2="58.47" y2="330.19" fill="none" stroke="#a3a3a3" stroke-linecap="round" stroke-linejoin="round" stroke-dasharray="4.89 4.89"/><line x1="60.92" y1="330.19" x2="63.42" y2="330.19" fill="none" stroke="#a3a3a3" stroke-linecap="round" stroke-linejoin="round"/><line x1="63.42" y1="3.16" x2="60.92" y2="3.16" fill="none" stroke="#a3a3a3" stroke-linecap="round" stroke-linejoin="round"/><line x1="56.02" y1="3.16" x2="9.54" y2="3.16" fill="none" stroke="#a3a3a3" stroke-linecap="round" stroke-linejoin="round" stroke-dasharray="4.89 4.89"/><polyline points="7.09 3.16 4.59 3.16 4.59 5.66" fill="none" stroke="#a3a3a3" stroke-linecap="round" stroke-linejoin="round"/><line x1="4.59" y1="10.55" x2="4.59" y2="145" fill="none" stroke="#a3a3a3" stroke-linecap="round" stroke-linejoin="round" stroke-dasharray="4.89 4.89"/><line x1="4.59" y1="147.44" x2="4.59" y2="149.94" fill="none" stroke="#a3a3a3" stroke-linecap="round" stroke-linejoin="round"/><line x1="327.03" y1="353.18" x2="329.53" y2="353.18" fill="none" stroke="#a3a3a3" stroke-linecap="round" stroke-linejoin="round"/><line x1="334.44" y1="353.18" x2="557.4" y2="353.18" fill="none" stroke="#a3a3a3" stroke-linecap="round" stroke-linejoin="round" stroke-dasharray="4.9 4.9"/><polyline points="559.85 353.18 562.35 353.18 562.35 350.68" fill="none" stroke="#a3a3a3" stroke-linecap="round" stroke-linejoin="round"/><line x1="562.35" y1="347.82" x2="562.35" y2="343.54" fill="none" stroke="#a3a3a3" stroke-linecap="round" stroke-linejoin="round" stroke-dasharray="2.86 2.86"/><line x1="562.35" y1="342.11" x2="562.35" y2="339.61" fill="none" stroke="#a3a3a3" stroke-linecap="round" stroke-linejoin="round"/><path d="M4.62,160a3,3,0,0,1,3.08,3,4.76,4.76,0,0,1-1.87,3.34A14,14,0,0,0,3,169.66H7.39a.28.28,0,0,0,.19-.07.22.22,0,0,1,.23-.08v1.19H1.59V170A12.61,12.61,0,0,1,4.66,166c.77-.69,1.86-1.62,1.86-2.91a2,2,0,0,0-2-2,2.21,2.21,0,0,0-1.81,1c-.09.14,0,.24-.15.39l-.86-.69A3.44,3.44,0,0,1,4.62,160Z"/><line x1="37.1" y1="124.83" x2="37.1" y2="127.33" fill="none" stroke="#a3a3a3" stroke-linecap="round" stroke-linejoin="round"/><line x1="37.1" y1="132.14" x2="37.1" y2="216.27" fill="none" stroke="#a3a3a3" stroke-linecap="round" stroke-linejoin="round" stroke-dasharray="4.81 4.81"/><polyline points="37.1 218.68 37.1 221.18 39.6 221.18" fill="none" stroke="#a3a3a3" stroke-linecap="round" stroke-linejoin="round"/><line x1="43.86" y1="221.18" x2="58.78" y2="221.18" fill="none" stroke="#a3a3a3" stroke-linecap="round" stroke-linejoin="round" stroke-dasharray="4.26 4.26"/><line x1="60.92" y1="221.18" x2="63.42" y2="221.18" fill="none" stroke="#a3a3a3" stroke-linecap="round" stroke-linejoin="round"/><line x1="37.1" y1="3.16" x2="37.1" y2="5.66" fill="none" stroke="#a3a3a3" stroke-linecap="round" stroke-linejoin="round"/><line x1="37.1" y1="10.65" x2="37.1" y2="87.99" fill="none" stroke="#a3a3a3" stroke-linecap="round" stroke-linejoin="round" stroke-dasharray="4.99 4.99"/><line x1="37.1" y1="90.48" x2="37.1" y2="92.98" fill="none" stroke="#a3a3a3" stroke-linecap="round" stroke-linejoin="round"/><path d="M21.68,115.25H20.49v-9.14l-2.12.63-.28-.66,2.77-1.45h.82Z"/><path d="M29.15,115.42a1,1,0,1,1,1-1A1,1,0,0,1,29.15,115.42Z"/><path d="M39,109.58a2.86,2.86,0,0,1,1.82,2.74,3.08,3.08,0,0,1-3.26,3.09,3.67,3.67,0,0,1-2.78-1.21l.89-1.07c.15.16.08.32.22.49a2.34,2.34,0,0,0,1.66.71,2.12,2.12,0,0,0,2.13-2.16c0-1.26-1.05-2-2.49-2a4.9,4.9,0,0,0-.54,0v-1a4.1,4.1,0,0,0,1.68-.27,1.86,1.86,0,0,0,1.13-1.67,1.73,1.73,0,0,0-1.84-1.65,2.55,2.55,0,0,0-1.83.81l-.66-.73a3.43,3.43,0,0,1,2.54-1.13,2.78,2.78,0,0,1,2.92,2.68A2.44,2.44,0,0,1,39,109.58Z"/><path d="M47.49,109.58a2.86,2.86,0,0,1,1.82,2.74,3.08,3.08,0,0,1-3.26,3.09,3.67,3.67,0,0,1-2.78-1.21l.89-1.07c.15.16.08.32.22.49a2.34,2.34,0,0,0,1.66.71,2.12,2.12,0,0,0,2.13-2.16c0-1.26-1.05-2-2.49-2a4.9,4.9,0,0,0-.54,0v-1a4.1,4.1,0,0,0,1.68-.27A1.86,1.86,0,0,0,48,107.31a1.73,1.73,0,0,0-1.84-1.65,2.55,2.55,0,0,0-1.83.81l-.66-.73a3.43,3.43,0,0,1,2.54-1.13,2.78,2.78,0,0,1,2.92,2.68A2.44,2.44,0,0,1,47.49,109.58Z"/><path d="M56,109.58a2.86,2.86,0,0,1,1.82,2.74,3.08,3.08,0,0,1-3.26,3.09,3.67,3.67,0,0,1-2.78-1.21l.89-1.07c.15.16.08.32.22.49a2.34,2.34,0,0,0,1.66.71,2.12,2.12,0,0,0,2.13-2.16c0-1.26-1.05-2-2.49-2a4.9,4.9,0,0,0-.54,0v-1a4.1,4.1,0,0,0,1.68-.27,1.86,1.86,0,0,0,1.13-1.67,1.73,1.73,0,0,0-1.84-1.65,2.55,2.55,0,0,0-1.83.81l-.66-.73a3.43,3.43,0,0,1,2.54-1.13,2.78,2.78,0,0,1,2.92,2.68A2.44,2.44,0,0,1,56,109.58Z"/><path d="M316.05,352a2.84,2.84,0,0,1,1.82,2.73,3.08,3.08,0,0,1-3.26,3.1,3.73,3.73,0,0,1-2.79-1.21l.9-1.07c.15.16.07.32.22.48a2.26,2.26,0,0,0,1.66.72,2.13,2.13,0,0,0,2.13-2.16c0-1.26-1.06-2-2.49-2a3.27,3.27,0,0,0-.54,0v-1a3.92,3.92,0,0,0,1.68-.27,1.85,1.85,0,0,0,1.12-1.66,1.71,1.71,0,0,0-1.84-1.65,2.51,2.51,0,0,0-1.82.81l-.66-.73a3.44,3.44,0,0,1,2.54-1.14,2.78,2.78,0,0,1,2.91,2.69A2.43,2.43,0,0,1,316.05,352Z"/><line x1="71.81" y1="339.61" x2="71.81" y2="342.11" fill="none" stroke="#a3a3a3" stroke-linecap="round" stroke-linejoin="round"/><line x1="71.81" y1="344.97" x2="71.81" y2="349.25" fill="none" stroke="#a3a3a3" stroke-linecap="round" stroke-linejoin="round" stroke-dasharray="2.86 2.86"/><polyline points="71.81 350.68 71.81 353.18 74.31 353.18" fill="none" stroke="#a3a3a3" stroke-linecap="round" stroke-linejoin="round"/><line x1="79.35" y1="353.18" x2="298.54" y2="353.18" fill="none" stroke="#a3a3a3" stroke-linecap="round" stroke-linejoin="round" stroke-dasharray="5.04 5.04"/><line x1="301.06" y1="353.18" x2="303.56" y2="353.18" fill="none" stroke="#a3a3a3" stroke-linecap="round" stroke-linejoin="round"/><polyline points="569.44 3.16 583.01 3.16 583.01 45.07" fill="none" stroke="#a3a3a3" stroke-linecap="round" stroke-linejoin="round" stroke-dasharray="5 5"/><polyline points="569.44 112.17 583.01 112.17 583.01 71.51" fill="none" stroke="#a3a3a3" stroke-linecap="round" stroke-linejoin="round" stroke-dasharray="5 5"/><path d="M570.07,64.25a1,1,0,1,1,1-1A1,1,0,0,1,570.07,64.25Z"/><path d="M581.71,54.31l-.82.91c-.15-.11-.15-.27-.25-.38a1.93,1.93,0,0,0-1.24-.44c-.76,0-2.51.47-2.57,4.1a2.59,2.59,0,0,1,2.24-1.28c1.5,0,2.91,1.26,2.91,3.47s-1.41,3.54-3,3.54a3,3,0,0,1-2.51-1.41,6.47,6.47,0,0,1-.8-3.59,10.2,10.2,0,0,1,.46-3.26,3.53,3.53,0,0,1,3.28-2.63A3.34,3.34,0,0,1,581.71,54.31Zm-4.82,5.37c-.14,2,.82,3.5,2.12,3.5.89,0,1.81-.78,1.81-2.43,0-1.83-1-2.49-1.86-2.49A2.51,2.51,0,0,0,576.89,59.68Z"/><path d="M590.21,54.31l-.82.91c-.15-.11-.15-.27-.25-.38a1.93,1.93,0,0,0-1.24-.44c-.76,0-2.51.47-2.57,4.1a2.59,2.59,0,0,1,2.24-1.28c1.5,0,2.91,1.26,2.91,3.47s-1.41,3.54-3,3.54A3,3,0,0,1,585,62.82a6.47,6.47,0,0,1-.8-3.59,10.2,10.2,0,0,1,.46-3.26,3.53,3.53,0,0,1,3.28-2.63A3.34,3.34,0,0,1,590.21,54.31Zm-4.82,5.37c-.14,2,.82,3.5,2.12,3.5.89,0,1.81-.78,1.81-2.43,0-1.83-1-2.49-1.86-2.49A2.51,2.51,0,0,0,585.39,59.68Z"/><path d="M598.71,54.31l-.82.91c-.15-.11-.15-.27-.25-.38a1.93,1.93,0,0,0-1.24-.44c-.76,0-2.51.47-2.57,4.1a2.59,2.59,0,0,1,2.24-1.28c1.5,0,2.91,1.26,2.91,3.47s-1.41,3.54-3,3.54a3,3,0,0,1-2.51-1.41,6.47,6.47,0,0,1-.8-3.59,10.2,10.2,0,0,1,.46-3.26,3.53,3.53,0,0,1,3.28-2.63A3.34,3.34,0,0,1,598.71,54.31Zm-4.82,5.37c-.14,2,.82,3.5,2.12,3.5.89,0,1.81-.78,1.81-2.43,0-1.83-1-2.49-1.86-2.49A2.51,2.51,0,0,0,593.89,59.68Z"/><line x1="583.01" y1="112.17" x2="583.01" y2="152.08" fill="none" stroke="#a3a3a3" stroke-linecap="round" stroke-linejoin="round" stroke-dasharray="5 5"/><polyline points="569.44 221.18 583.01 221.18 583.01 180.02" fill="none" stroke="#a3a3a3" stroke-linecap="round" stroke-linejoin="round" stroke-dasharray="5 5"/><path d="M570.07,169.21a1,1,0,1,1,1-1A1,1,0,0,1,570.07,169.21Z"/><path d="M581.71,159.28l-.82.91c-.15-.11-.15-.27-.25-.38a1.93,1.93,0,0,0-1.24-.44c-.76,0-2.51.47-2.57,4.09a2.6,2.6,0,0,1,2.24-1.27c1.5,0,2.91,1.26,2.91,3.47s-1.41,3.54-3,3.54a3,3,0,0,1-2.51-1.41,6.47,6.47,0,0,1-.8-3.59,10.16,10.16,0,0,1,.46-3.26,3.53,3.53,0,0,1,3.28-2.63A3.34,3.34,0,0,1,581.71,159.28Zm-4.82,5.37c-.14,2,.82,3.49,2.12,3.49.89,0,1.81-.77,1.81-2.42,0-1.83-1-2.49-1.86-2.49A2.51,2.51,0,0,0,576.89,164.65Z"/><path d="M590.21,159.28l-.82.91c-.15-.11-.15-.27-.25-.38a1.93,1.93,0,0,0-1.24-.44c-.76,0-2.51.47-2.57,4.09a2.6,2.6,0,0,1,2.24-1.27c1.5,0,2.91,1.26,2.91,3.47s-1.41,3.54-3,3.54a3,3,0,0,1-2.51-1.41,6.47,6.47,0,0,1-.8-3.59,10.16,10.16,0,0,1,.46-3.26,3.53,3.53,0,0,1,3.28-2.63A3.34,3.34,0,0,1,590.21,159.28Zm-4.82,5.37c-.14,2,.82,3.49,2.12,3.49.89,0,1.81-.77,1.81-2.42,0-1.83-1-2.49-1.86-2.49A2.51,2.51,0,0,0,585.39,164.65Z"/><path d="M598.71,159.28l-.82.91c-.15-.11-.15-.27-.25-.38a1.93,1.93,0,0,0-1.24-.44c-.76,0-2.51.47-2.57,4.09a2.6,2.6,0,0,1,2.24-1.27c1.5,0,2.91,1.26,2.91,3.47s-1.41,3.54-3,3.54a3,3,0,0,1-2.51-1.41,6.47,6.47,0,0,1-.8-3.59,10.16,10.16,0,0,1,.46-3.26,3.53,3.53,0,0,1,3.28-2.63A3.34,3.34,0,0,1,598.71,159.28Zm-4.82,5.37c-.14,2,.82,3.49,2.12,3.49.89,0,1.81-.77,1.81-2.42,0-1.83-1-2.49-1.86-2.49A2.51,2.51,0,0,0,593.89,164.65Z"/><line x1="583.01" y1="221.18" x2="583.01" y2="260.59" fill="none" stroke="#a3a3a3" stroke-linecap="round" stroke-linejoin="round" stroke-dasharray="5 5"/><polyline points="569.44 330.19 583.01 330.19 583.01 289.03" fill="none" stroke="#a3a3a3" stroke-linecap="round" stroke-linejoin="round" stroke-dasharray="5 5"/><path d="M570.07,278.26a1,1,0,1,1,1-1A1,1,0,0,1,570.07,278.26Z"/><path d="M581.71,268.33l-.82.91c-.15-.11-.15-.27-.25-.38a1.93,1.93,0,0,0-1.24-.44c-.76,0-2.51.47-2.57,4.09a2.61,2.61,0,0,1,2.24-1.28c1.5,0,2.91,1.27,2.91,3.48s-1.41,3.54-3,3.54a3,3,0,0,1-2.51-1.41,6.49,6.49,0,0,1-.8-3.59,10.16,10.16,0,0,1,.46-3.26,3.53,3.53,0,0,1,3.28-2.63A3.34,3.34,0,0,1,581.71,268.33Zm-4.82,5.37c-.14,2,.82,3.49,2.12,3.49.89,0,1.81-.77,1.81-2.42,0-1.83-1-2.49-1.86-2.49A2.51,2.51,0,0,0,576.89,273.7Z"/><path d="M590.21,268.33l-.82.91c-.15-.11-.15-.27-.25-.38a1.93,1.93,0,0,0-1.24-.44c-.76,0-2.51.47-2.57,4.09a2.61,2.61,0,0,1,2.24-1.28c1.5,0,2.91,1.27,2.91,3.48s-1.41,3.54-3,3.54a3,3,0,0,1-2.51-1.41,6.49,6.49,0,0,1-.8-3.59,10.16,10.16,0,0,1,.46-3.26,3.53,3.53,0,0,1,3.28-2.63A3.34,3.34,0,0,1,590.21,268.33Zm-4.82,5.37c-.14,2,.82,3.49,2.12,3.49.89,0,1.81-.77,1.81-2.42,0-1.83-1-2.49-1.86-2.49A2.51,2.51,0,0,0,585.39,273.7Z"/><path d="M598.71,268.33l-.82.91c-.15-.11-.15-.27-.25-.38a1.93,1.93,0,0,0-1.24-.44c-.76,0-2.51.47-2.57,4.09a2.61,2.61,0,0,1,2.24-1.28c1.5,0,2.91,1.27,2.91,3.48s-1.41,3.54-3,3.54a3,3,0,0,1-2.51-1.41,6.49,6.49,0,0,1-.8-3.59,10.16,10.16,0,0,1,.46-3.26,3.53,3.53,0,0,1,3.28-2.63A3.34,3.34,0,0,1,598.71,268.33Zm-4.82,5.37c-.14,2,.82,3.49,2.12,3.49.89,0,1.81-.77,1.81-2.42,0-1.83-1-2.49-1.86-2.49A2.51,2.51,0,0,0,593.89,273.7Z"/></svg>