<svg xmlns="http://www.w3.org/2000/svg" width="600" height="450" viewBox="0 0 600 450"><title>flag-texas-dimensions</title><rect x="26.86" y="2.17" width="549.16" height="366.11" fill="#fff" stroke="#50d6cc" stroke-linecap="round" stroke-linejoin="round"/><rect x="26.86" y="185.22" width="549.16" height="183.05" fill="#fff" stroke="#50d6cc" stroke-linecap="round" stroke-linejoin="round"/><rect x="26.86" y="2.17" width="183.05" height="366.11" fill="#fff" stroke="#50d6cc" stroke-linecap="round" stroke-linejoin="round"/><polygon points="143.32 193.32 183.67 164.01 133.8 164.01 118.39 116.58 102.98 164.01 53.1 164.01 93.45 193.32 78.04 240.76 118.39 211.44 158.74 240.76 143.32 193.32" fill="#fff" stroke="#50d6cc" stroke-linecap="round" stroke-linejoin="round"/><line x1="131.16" y1="419.12" x2="133.66" y2="419.12" fill="none" stroke="#a3a3a3" stroke-linecap="round" stroke-linejoin="round"/><line x1="138.58" y1="419.12" x2="204.96" y2="419.12" fill="none" stroke="#a3a3a3" stroke-linecap="round" stroke-linejoin="round" stroke-dasharray="4.92 4.92"/><polyline points="207.41 419.12 209.91 419.12 209.91 416.62" fill="none" stroke="#a3a3a3" stroke-linecap="round" stroke-linejoin="round"/><line x1="209.91" y1="411.46" x2="209.91" y2="383.07" fill="none" stroke="#a3a3a3" stroke-linecap="round" stroke-linejoin="round" stroke-dasharray="5.16 5.16"/><line x1="209.91" y1="380.49" x2="209.91" y2="377.99" fill="none" stroke="#a3a3a3" stroke-linecap="round" stroke-linejoin="round"/><path d="M119.49,424.24h-1.18V415.1l-2.13.63-.28-.66,2.77-1.45h.82Z"/><path d="M108.1,398.31a1,1,0,1,1,1-1A1,1,0,0,1,108.1,398.31Z"/><path d="M119.87,387.52v.66q-1.07,2.46-2,5c-.61,1.64-1.18,3.29-1.69,5h-1.34q.94-2.87,2-5.67c.49-1.27,1-2.54,1.54-3.8h-4.54v-1.13Z"/><path d="M128.21,387.52v1.08h-4.37l-.16,3a3.79,3.79,0,0,1,1.73-.41,3.19,3.19,0,0,1,3.2,3.53,3.26,3.26,0,0,1-3.35,3.54,3.75,3.75,0,0,1-3.13-1.63l1.05-.79c.15.1.06.27.13.4a2.56,2.56,0,0,0,1.94,1,2.56,2.56,0,0,0,0-5,2.55,2.55,0,0,0-2,1l-.76-.31.36-5.39Z"/><line x1="26.86" y1="418.74" x2="105.61" y2="418.74" fill="none" stroke="#a3a3a3" stroke-linecap="round" stroke-linejoin="round" stroke-dasharray="5 5"/><line x1="139.56" y1="392.02" x2="142.06" y2="392.02" fill="none" stroke="#a3a3a3" stroke-linecap="round" stroke-linejoin="round"/><line x1="147.65" y1="392.02" x2="178.38" y2="392.02" fill="none" stroke="#a3a3a3" stroke-linecap="round" stroke-linejoin="round" stroke-dasharray="5.59 5.59"/><polyline points="181.17 392.01 183.67 392.01 183.67 389.51" fill="none" stroke="#a3a3a3" stroke-linecap="round" stroke-linejoin="round"/><line x1="183.67" y1="384.46" x2="183.67" y2="144.36" fill="none" stroke="#a3a3a3" stroke-linecap="round" stroke-linejoin="round" stroke-dasharray="5.05 5.05"/><line x1="183.67" y1="141.83" x2="183.67" y2="139.33" fill="none" stroke="#a3a3a3" stroke-linecap="round" stroke-linejoin="round"/><line x1="52.58" y1="139.33" x2="52.58" y2="141.83" fill="none" stroke="#a3a3a3" stroke-linecap="round" stroke-linejoin="round"/><line x1="52.58" y1="146.9" x2="52.58" y2="387.63" fill="none" stroke="#a3a3a3" stroke-linecap="round" stroke-linejoin="round" stroke-dasharray="5.07 5.07"/><polyline points="52.58 390.17 52.58 392.67 55.08 392.67" fill="none" stroke="#a3a3a3" stroke-linecap="round" stroke-linejoin="round"/><line x1="60.74" y1="392.67" x2="91.89" y2="392.67" fill="none" stroke="#a3a3a3" stroke-linecap="round" stroke-linejoin="round" stroke-dasharray="5.66 5.66"/><line x1="94.72" y1="392.67" x2="97.22" y2="392.67" fill="none" stroke="#a3a3a3" stroke-linecap="round" stroke-linejoin="round"/><polyline points="20.38 1.66 4.29 1.66 4.79 165.29" fill="none" stroke="#a3a3a3" stroke-linecap="round" stroke-linejoin="round" stroke-dasharray="5 5"/><polyline points="18.55 368.4 4.29 368.4 4.79 196.61" fill="none" stroke="#a3a3a3" stroke-linecap="round" stroke-linejoin="round" stroke-dasharray="5 5"/><path d="M4.82,173.3a3,3,0,0,1,3.07,3A4.76,4.76,0,0,1,6,179.62a14.21,14.21,0,0,0-2.88,3.31H7.59a.22.22,0,0,0,.18-.07.26.26,0,0,1,.23-.08V184H1.78v-.75a12.64,12.64,0,0,1,3.08-3.94c.77-.69,1.85-1.62,1.85-2.91a2,2,0,0,0-2-2,2.21,2.21,0,0,0-1.81,1c-.09.14-.05.25-.15.39L1.86,175A3.44,3.44,0,0,1,4.82,173.3Z"/><path d="M302.52,439.5a2.84,2.84,0,0,1,1.82,2.73,3.08,3.08,0,0,1-3.26,3.09,3.7,3.7,0,0,1-2.78-1.2l.89-1.07c.15.15.08.31.22.48a2.34,2.34,0,0,0,1.66.71,2.12,2.12,0,0,0,2.13-2.15c0-1.27-1.05-2-2.49-2a4.55,4.55,0,0,0-.53,0v-.95a4.07,4.07,0,0,0,1.67-.27,1.86,1.86,0,0,0,1.13-1.67,1.73,1.73,0,0,0-1.84-1.65,2.53,2.53,0,0,0-1.83.82l-.66-.74a3.47,3.47,0,0,1,2.54-1.13,2.79,2.79,0,0,1,2.92,2.68A2.46,2.46,0,0,1,302.52,439.5Z"/><polyline points="26.86 377.99 26.86 439.98 290.42 439.98" fill="none" stroke="#a3a3a3" stroke-linecap="round" stroke-linejoin="round" stroke-dasharray="5 5"/><polyline points="576.02 377.99 576.02 439.98 312.47 439.98" fill="none" stroke="#a3a3a3" stroke-linecap="round" stroke-linejoin="round" stroke-dasharray="5 5"/><line x1="596.99" y1="106.28" x2="596.99" y2="108.78" fill="none" stroke="#a3a3a3" stroke-linecap="round" stroke-linejoin="round"/><line x1="596.99" y1="113.71" x2="596.99" y2="180.26" fill="none" stroke="#a3a3a3" stroke-linecap="round" stroke-linejoin="round" stroke-dasharray="4.93 4.93"/><polyline points="597 182.72 597 185.22 594.5 185.22" fill="none" stroke="#a3a3a3" stroke-linecap="round" stroke-linejoin="round"/><line x1="591.43" y1="185.22" x2="586.83" y2="185.22" fill="none" stroke="#a3a3a3" stroke-linecap="round" stroke-linejoin="round" stroke-dasharray="3.06 3.06"/><line x1="585.3" y1="185.22" x2="582.8" y2="185.22" fill="none" stroke="#a3a3a3" stroke-linecap="round" stroke-linejoin="round"/><line x1="582.84" y1="1.93" x2="585.34" y2="1.93" fill="none" stroke="#a3a3a3" stroke-linecap="round" stroke-linejoin="round"/><line x1="588.39" y1="1.93" x2="592.97" y2="1.93" fill="none" stroke="#a3a3a3" stroke-linecap="round" stroke-linejoin="round" stroke-dasharray="3.05 3.05"/><polyline points="594.5 1.93 597 1.93 597 4.43" fill="none" stroke="#a3a3a3" stroke-linecap="round" stroke-linejoin="round"/><line x1="596.99" y1="9.57" x2="596.99" y2="68.78" fill="none" stroke="#a3a3a3" stroke-linecap="round" stroke-linejoin="round" stroke-dasharray="5.15 5.15"/><line x1="596.99" y1="71.36" x2="596.99" y2="73.86" fill="none" stroke="#a3a3a3" stroke-linecap="round" stroke-linejoin="round"/><path d="M597.83,95h-1.18V85.9l-2.13.63-.28-.66L597,84.42h.82Z"/><line x1="596.99" y1="289.45" x2="596.99" y2="291.95" fill="none" stroke="#a3a3a3" stroke-linecap="round" stroke-linejoin="round"/><line x1="596.99" y1="296.88" x2="596.99" y2="363.43" fill="none" stroke="#a3a3a3" stroke-linecap="round" stroke-linejoin="round" stroke-dasharray="4.93 4.93"/><polyline points="597 365.9 597 368.4 594.5 368.4" fill="none" stroke="#a3a3a3" stroke-linecap="round" stroke-linejoin="round"/><line x1="591.43" y1="368.4" x2="586.83" y2="368.4" fill="none" stroke="#a3a3a3" stroke-linecap="round" stroke-linejoin="round" stroke-dasharray="3.06 3.06"/><line x1="585.3" y1="368.4" x2="582.8" y2="368.4" fill="none" stroke="#a3a3a3" stroke-linecap="round" stroke-linejoin="round"/><line x1="596.99" y1="257.03" x2="596.99" y2="254.53" fill="none" stroke="#a3a3a3" stroke-linecap="round" stroke-linejoin="round"/><line x1="596.99" y1="249.38" x2="596.99" y2="190.17" fill="none" stroke="#a3a3a3" stroke-linecap="round" stroke-linejoin="round" stroke-dasharray="5.15 5.15"/><line x1="596.99" y1="187.6" x2="596.99" y2="185.1" fill="none" stroke="#a3a3a3" stroke-linecap="round" stroke-linejoin="round"/><path d="M597.83,278.21h-1.18v-9.14l-2.13.63-.28-.66,2.77-1.45h.82Z"/></svg>