<svg xmlns="http://www.w3.org/2000/svg" width="300" height="300" viewBox="0 0 300 300"><path d="M26.2 180.8l.59.58.58 1.17v4.11l.59.58v1.17l.58.59v.58l.59.59v.59h.58l.59.58v.59l.58.58h.59l1.17 1.17h1.76v-.58h.6l.59-.59v-2.93l.58-.59v-.59h2.33l.59.59h.59l1.75 1.76V199l.59.59h1.17v-7.09l.58-.58h2.94l2.35 2.35v.58h.59l1.17 1.15h.59l.58.58h1.76l.58-.58v-1.18l-.58-.58H52l-1.17-.59-1.17-1.17v-.58l-.59-1.17-.58-.59v-.59h.58l1.17-.58h1.18l.58-.59h.59l1.16-.58h.59l1.17-.59.59-.58h.58l1.17-.59h1.75l.59-.58h2.93l.59.58h.58l1.17 1.17V189l-1.17 2.35-.58.59v.58l1.17 1.17h1.76l.58-.58v-6.47l1.17-1.17h2.35l1.17.58h.59l1.75 1.76h.59v.58l1.16 1.18v.58l1.17 1.17v.59l1.76 1.75h.58l.59.59h.58l.59-.59v-1.17l-.59-.58h-.58l-.59-.59-.58-1.17-.59-.58v-1.18l-3.52-3.52v-1.75l.59-1.76v-5.88l-1.18-2.35-.58-.58-.59-1.17-1.17-.59h-.58l-1.17-.59H56.62l-.59-.58-7.03-2.35-1.17-1.17h-.59l-1.17-1.17h-.58l-.59-.59h-1.19l-.58-.58h-4.7l-.58.58h-1.17l-.59.59v.58l-.58 1.17-.59.59-1.17 2.35-.59 1.76-5.87 2.93-1.17 1.17h-2.35l-1.17.59h-1.18v.58l-.58.59.58.59v.58l.58.59h.59l3.52 1.75M108 160.2v1.17h-1.17l-4.1.59-.59.58h-.59v.59h-.58l-.59.59h-.58l-.59.58h-.58l-.59.59h-2.39l-1.17.58-.59.59v.58l.59.59v.58l4.11 4.11 1.17 1.76.58 2.35 1.17 1.75V179l.59 1.75v1.17l.59.59v.58h2.93v-.58h.59l.58-.59v-.58h.59v-.59l.58-.58V179l.59-.59v-.59l.59-.58h2.93l.59.58V179l.58.58v2.94h-.58v1.75h-.59v.59l-.58.59v.55l-.59.59v1.75l1.17 1.17h.59l1.17-1.17v-1.17l1.17-2.35 2.35-2.35 1.17.58h.59l1.17 1.18v.58l.58.59v1.17l.59.58v.59l.58.58v.59l3.53 3.52h2.35v-1.75l-.59-.59v-.59h-.58v-.58l-.59-.59h-.58v-.58l-.59-.59v-.58h-.58v-1.18l-.59-.59v-2.35h.59v-.59l.58-.58h.59l.58-.59h4.11l.59-.58h.58l.59-.59h.58l.59-.58h.58l2.35-2.36V176l1.18-1.17v-.59h.58l.59-.58h1.75l1.17 1.17h.61v.58h.59l.58.59v1.75l-.58 1.18-.59.58v1.17l-.59.59v.58l-.58 1.17v4.71H142l1.17-1.17v-2.35l.59-.59v-1.17l.58-.59v-.58l.59-.59v-.58h1.17l.58-.59H149l.59.59h.58l.59.58h1.17l2.35 2.35.59 1.17.58.59v.59l.59 1.17h.58l.59.58h1.17v-1.74l-.59-1.18-.58-.58v-.59l-.59-.58-.58-1.17-1.17-1.17-1.17-.59-.59-1.17-.58-.59v-.58l-.59-.59-.58-1.17v-.58l-.59-.59v-2.35l.59-.58v-1.17l.58-.59h3.53l1.17 1.17.58 1.17 1.17 1.17h1.17v-.58h.59v-1.17h-.59l-1.17-1.17-.58-1.76-.59-.59-1.17-.58-.58-.59-1.18-.58-.58-.59-1.17-.58-.59-.59-1.17-.58-2.35-2.36h-.59l-.58-.58h-.59l-.58-.59h-.59l-.58-.58h-1.76l-.59-.59h-6.47l-.58-.58h-1.17l-.59.58h-1.16l-.58.59h-1.17l-.59-.59h-1.75l-2.36-.58-1.75-.59h-1.17l-.59-.59v-1.17l-.58-.58-1.18-.59-2.35-2.35-1.17-.58h-.58l-.59-.59h-2.35l-.59.59h-1.17l-.58.58h-.59l-.58.59h-.59l-.58.58v.59h-.59v.58l-.59.59v4.7M178.71 126.88v.59l.59.59h1.17l5.29-5.29h2.35l1.17.58.59.59v.58l.58.59v.58l.59.59v2.35l-.59.59v1.17l-.58.58v.59l-.59 1.17v.59l-.59.58v.59l-1.17 1.17-1.17 2.34-.58 1.75-.59 1.17v.59l-.58.58v1.18h.58v.58h.59l1.75-1.76v-.58l.59-.59v-1.17l.58-.58v-1.76l1.18-1.17v-.58l.58-.59h.55v-.58h1.75l.59.58h.66v.59h.59l.59.58v.59h.58V138l.58.58v1.76l.59.58v1.76l.58.59v1.17l1.18 1.17v.58l.58.59h.59l.58.58h2.94l.58-.58-.58-.59v-.58h-.59l-.58-.59h-.59v-.58l-.58-.59h-.59v-.58l-.58-.59v-1.17l-.59-.59v-4.69l.59-1.17H201l.58-.58h7.06l1.17-.59H211l3.52-1.76h1.17l1.17-.58h1.76l.59.58h1.75l.59.59h.58l.59.59h.59l.58.58h.59v.59l.58.58h.59l.58.59h.59l1.17 1.17h.58l.59.58v.6h1.75l.59.58h1.76l.58.59h1.76v.58h.58l.59.59h.58v.58l.59.59v1.17l-.59 1.17-.58.59h-.59v.56h-1.75v.59h-2.35l-.59-.59h-2.94v-.58h-1.17l-.58.58H225l-.59.59h-1.17l-.58.58h-.59l-1.75-.58h-5.88l-.58.58V148l.58.59h5.29l2.94.58h1.17v.59l.58.58v2.35l-.58 1.18v2.35l.58.58v6.47h2.94v-.58h.64l.58-.59v-.58l.59-.59v-1.17l.58-.59v-.58l.59-.59h.58v-.58H235l1.17 1.17v.58h.59v.59l.58.58v.59l1.18 1.17v.59l.58.58v2.35l-.58.59v.59l-1.76 1.75h-.59l-1.75 1.76-.59 1.17-.58.58v2.36l-.59 1.17v1.75h.59v.59h.58l1.17-1.17.59-1.17V175l.58-1.17v-.58l1.17-1.18h.59l.59-.58h1.17l.58.58h.59l.58.59.59 1.17v.59l.58 1.17v1.75l-.58.59v1.17l-.59.58v1.17l-1.17 1.15v1.18l-1.17 1.17v1.17l-.58.58v.59l-.59.58v1.18l1.17 1.17.59-.59h.58l.59-.58v-.59h.58l6.47-12.94v-1.76h1.17v-.58h3.53l.58.58H255v-.58h1.17l1.17-1.17 1.17-.59h.49l1.76-.58h1.76l1.17-.59h2.94l4.1 4.11v1.76h-.58v1.17h-.59v1.17l-.58.58v.56h-.59v.58l-.58.59.58 1.17v.58l.59.59h.58l1.76-1.76V179l.58-.59v-1.75l.59-.59v-.58l1.17-1.18h.59l.58-.58h6.47l.59.58h1.17l1.17 1.18 1.17.58 2.94 2.94.58 1.17v.59l.59 1.17 1.76 1.75h1.17l.58-.58h.59v-.59l-.59-1.17-2.31-2.35-.58-2.35-1.76-2.36-1.17-1.17-.59-1.17v-1.75l-1.17-1.2h-3.52l-1.17-.59h-1.17l-.59-.59v-.58l-.58-.59v-3.52L279 162l1.17-.59h.59l.58-.58h1.17l.59.58h1.76l1.14.59h1.17l.58.59h1.17l.59.58h1.17l2.35 2.35.58 1.17.59.59.59 1.17v.55h.58l.59.58h.58V169h.59v-2.36l-.59-1.17-.58-.58v-.59l-.59-.58-1.17-.59-1.76-1.76-1.17-.58-.58-.59-1.17-.58H289l-1.17-.59h-.58l-1.17-.58h-.59l-.58-.59h-1.81l-.59-.58h-.58l-.59.58h-3.52l-.59-.58h-.58l-1.76-1.76V155h-.58l-1.17-1.17v-.58L272 152v-.59h-.58l-.59-.58v-.59l-1.17-1.17H269l-2.35-2.35h-1.76l-.58-.59h-4.11l-.59-.58h-1.71l-2.36-2.35v-.59l-.58-.58v-1.76l.58-.59v-1.17l-1.17-3.51v-1.76l-.58-1.17-1.17-1.17h-2.36l-1.75 1.76v.58l-.59.59v.58l-.58.59v1.76l-.59 1.17v3.52l.59.59v1.17l-.59 1.17-.58.58h-.59l-1.76.59h-3.52l-1.17-1.17v-.59l.59-.58v-2.36l-.59-1.17-5.29-5.29h-.58v-.58l-.59-.59v-.58l-.59-1.17v-1.17l.59-1.17v-.59l.59-1.17.58-.59v-.58l-.58-1.17v-2.35l.58-.59v-.59h.59v-.5h2.93l.59.58h1.17v.59h.59l2.35 2.35 1.17 2.35.58.59h.59l.59.58v-.58h.58l.59-.59-.59-.58v-.59l-1.17-2.35-3.52-3.52h-.59l-.58-.59h-1.18l-.58-.58h-.59l-1.17-.59h-1.75l-1.17-.58h-2.94l-1.17-.59h-2.94l-.58-.59h-4.11l-1.17.59h-1.17l-.59.59h-2.94l-4.1-.59h-1.18v-.59l-.58-.58v-1.17l.58-6.47v-1.17l-.58-1.17-.59-.59-.58-1.17v-2.35l2.37-2.4v-1.17l-.59-1.18-.58-.58v-1.17l-.61-1.14v-1.2h-2.93l-1.17.58h-.59l-.59.59h-.58v.58h-.59v1.17l-.58.59v2.35l-.59 1.17v2.94l1.17 1.17.59 1.17.58.59v1.17l-.58.58h-3.52l-1.17-.58h-1.17l-.59-.59h-1.17l-2.35-1.17h-1.17l-2.35-1.17h-.59l-1.17-.59h-.59l-.58-.58h-.59l-1.17-1.17-1.18-.6-1.76-.58-1.17-1.17h-1.17l-.58.58h-.59V101h.59v.59l.58.58 2.35 1.17 8.23 3.53 3.52 1.17 1.17.58h1.76l1.17.59 1.76.58 1.17.59h.58v1.76l-2.35 2.35h-.58l-.59.58h-.58l-.59-.58h-1.17l-.59-.59h-.58l-.59-.58h-.58l-1.17-.59-.59-.58h-.58l-.59-.59h-.58l-1.17-1.17-1.17-.58h-1.18l-1.17-.59-.58-.59-2.35-1.17h-1.17l-.59.59h-2.35l-.59-.59-1.17-.58h-1.76l-.58 1.17v.58l.58 1.18.59.58.59 1.17.58.59v7L177 121v1.17l1.75 4.7M2.67 119.61l-1.17 1.17V122l1.17 1.17 7.06 7.64h2.93v-1.21l.59-.59v-1.76l-1.17-.58h-.59v-.59l.59-.58 1.17.58h.59l.58-.58v-.59l.59-.58h3.52l.58.58v.59l.59.58v.59l.59.58v.59l1.17 1.16H22l.59.59h2.93v.58l.59.59v1.75l-.59.59v2.35H25v.59l-.59.58v.59h-.58l-.59.58h-5.31L16.76 139v.59l-.58.58v.59l.58.58v.59l.59.58v.59h.58l2.94 2.9v1.17h.59v.58l.58.59v.59l1.17 1.17v.58l1.17 1.17H25v.59l.58.58h.59l.58.59h2.94l.59-.59.58-1.17.59-.58h2.35l1.17 1.17v2.35l.59.59h1.14l.58.58h1.17l.59.59h.58l1.18.58h.58l.59.59h1.17l.58.58h1.76l1.17-1.17v-.58h-.59l-1.17-1.17h-1.17l-.58-.59H42v-.59h-.59l-1.2-1.2v-2.35l.59-.58v-.59l.58-.58h5.29l11.76 1.75 2.35 2.35 3.52 1.76.59.59.58 1.17.59.58.59 1.17 1.17.59.58.58h1.17l1.17-1.17-.58-.58v-.59l-4.11-4.1-1.17-.58-1.17-1.17v-1.17l-.59-.59v-1.17l-.58-.59v-1.17h.58l.59-.58v-.59h1.17l.58-.58h1.76l.58.58h.59l.61.61h.59l.59.58h.58V146h.59v-1.17h-.59l-1.17-1.17H69l-.58-.59v-.58l-.59-.59h-.58v-.58l-1.76-1.76V139l-2.35-2.35h-.58v-.58l-1.17-1.17h-.59l-.58-.59h-4.74l-.58.59h-3.53l-2.37-.61-2.94-.58-2.35-.59-1.71-.59-.59-.58h-.61l-1.17-1.17h-.58l-.59-.59h-.58l-.59-.58h-6.47l-.58.58h-2.36L25 127.25v-1.17l.58-.58h.59v-.59h.58l1.18-.58h1.17l1.17-.59h5.29l.58.59h4.69l1.76 1.75v.59h.58v.58h1.13l.58-.58v-1.17l-1.76-1.76v-2.35l1.18-.59.58-.58v-1.17l-.58-.59v-.58l-1.18-.59v-2.35l-1.75-1.76H28.43l-.59-.58-2.35-1.17-1.17-1.17v-.59l-.59-.58h-3.52l-.58-.59H16.1l-.58.59h-1.17l-.59.58h-.58v.59l-.59.58H12V112h-.59v1.17h-.58v1.17h-.59v.59h-.57l-.59.58H7.32l-.58.59H5.57l-2.94 3.52" fill="#fff" stroke="#000" stroke-width="2"/><path d="M123.84 149.61l.59.59h2.35V149l-5.88-7.64v-.59l-.58-.58v-1.17l.58-.59 1.18-4.11V132l-1.18-2.35-.58-.59v-.58l-.59-.59h-3.52l-1.17-.58h-1.76l-1.17-.59h-2.35l-2.35 1.17h-3.52l-1.18-1.17h-.58l-2.35-2.35h-.59L98 123.2h-4.7l-.59.58h-1.15l-.58.59h-.59v.63h-.58l-.59.59v.59h-.58v.58l-.59.59v.58h-1.76v1.17h1.18v.59l-1.18 1.17v.58h-.58l-.59.59h-.58l-.59.58h-.58l-.59.59h-1.17l-.59.58h-1.17l-.58.59H78.1l-1.17 1.17h-.59v.59l-1.17 1.17v1.17l.59.58v.59h.58v.59h.59l1.75 1.75v.59h.59V146l.58.59v.58l.59.59 2.35 1.24h1.76l.58-.59h.59v-.58h.58v-.59h.59v-.58l1.17-1.18v-.58l1.17-1.17h.59v-.59l.58.59 1.17.58h1.17l2.36 2.36v5.87h.58v.59l.59.58v.59h2.93l1.76-.59 1.17.59h2.94v-1.2h-.59l-.58-.59-1.17-.59-2.94-2.92v-1.17l.58-.59v-1.17l.59-.59h.58v-.58h1.17v-.59h1.18l2.93-2.93h.59l.58-.59h2.36l.58.59v.62l1.17 1.17v1.17l.59 1.17v1.18h.58l.59.58v.59H115v-.59h.59v-1.76l-.59-1.17v-1.17l.59-.58h.58l1.17-.59.59.59h1.17l.58.58 4.11 6.47" fill="#fff" stroke="#000" stroke-width="2"/></svg>