<svg xmlns="http://www.w3.org/2000/svg" width="600" height="315.79"><path fill="#bf0a30" d="M0 0h600v315.79H0z"/><path fill="#fff" d="M0 24.29h600v24.29H0zM0 72.87h600v24.29H0zM0 121.46h600v24.29H0zM0 170.04h600v24.29H0zM0 218.62h600v24.29H0zM0 267.21h600v24.29H0z"/><path d="M0 170h240V0H0z" fill="#002868" fill-rule="evenodd"/><path d="M214.57 21.64l-5.75-4.18h7.11l2.2-6.76 2.2 6.76h7.11l-5.75 4.18 2.19 6.77-5.75-4.18-5.75 4.18zM186.55 21.64l-5.75-4.18h7.11l2.2-6.76 2.2 6.76h7.11l-5.75 4.18 2.19 6.77-5.75-4.18-5.75 4.18zM200.56 47.83l-5.75-4.18h7.11l2.2-6.76 2.2 6.76h7.11l-5.75 4.18 2.19 6.77-5.75-4.19-5.75 4.19zM158.53 21.64l-5.75-4.18h7.11l2.2-6.76 2.2 6.76h7.11l-5.75 4.18 2.19 6.77-5.75-4.18-5.75 4.18zM172.54 47.83l-5.75-4.18h7.11l2.2-6.76 2.2 6.76h7.11l-5.75 4.18 2.19 6.77-5.75-4.19-5.75 4.19zM130.51 21.64l-5.75-4.18h7.11l2.2-6.76 2.2 6.76h7.11l-5.75 4.18 2.19 6.77-5.75-4.18-5.75 4.18zM144.52 47.83l-5.75-4.18h7.11l2.2-6.76 2.2 6.76h7.11l-5.75 4.18 2.19 6.77-5.75-4.19-5.75 4.19zM102.49 21.64l-5.75-4.18h7.11l2.2-6.76 2.2 6.76h7.11l-5.75 4.18 2.19 6.77-5.75-4.18-5.75 4.18zM116.5 47.83l-5.75-4.18h7.11l2.2-6.76 2.2 6.76h7.11l-5.75 4.18 2.19 6.77-5.75-4.19-5.75 4.19zM74.47 21.64l-5.75-4.18h7.11L78 10.7l2.2 6.76h7.11l-5.75 4.18 2.19 6.77L78 24.23l-5.75 4.18zM88.48 47.83l-5.75-4.18h7.11L92 36.89l2.2 6.76h7.11l-5.71 4.18 2.19 6.77L92 50.41l-5.71 4.19zM46.45 21.64l-5.75-4.18h7.11L50 10.7l2.2 6.76h7.11l-5.75 4.18 2.19 6.77L50 24.23l-5.75 4.18zM60.46 47.83l-5.75-4.18h7.11L64 36.89l2.2 6.76h7.11l-5.75 4.18 2.19 6.77L64 50.41l-5.73 4.19zM18.43 21.64l-5.75-4.18h7.11L22 10.7l2.2 6.76h7.1l-5.75 4.18 2.19 6.77L22 24.23l-5.75 4.18zM32.44 47.83l-5.75-4.18h7.11l2.2-6.76 2.2 6.76h7.11l-5.75 4.18 2.19 6.77L36 50.41l-5.75 4.19zM214.57 126.39l-5.75-4.18h7.11l2.2-6.76 2.2 6.76h7.11l-5.75 4.18 2.19 6.77-5.75-4.16-5.75 4.19zM186.55 126.39l-5.75-4.18h7.11l2.2-6.76 2.2 6.76h7.11l-5.75 4.18 2.19 6.77-5.75-4.16-5.75 4.19zM200.56 152.58l-5.75-4.19h7.11l2.2-6.76 2.2 6.76h7.11l-5.75 4.19 2.19 6.76-5.75-4.18-5.75 4.18zM158.53 126.39l-5.75-4.18h7.11l2.2-6.76 2.2 6.76h7.11l-5.75 4.18 2.19 6.77-5.75-4.16-5.75 4.19zM172.54 152.58l-5.75-4.19h7.11l2.2-6.76 2.2 6.76h7.11l-5.75 4.19 2.19 6.76-5.75-4.18-5.75 4.18zM130.51 126.39l-5.75-4.18h7.11l2.2-6.76 2.2 6.76h7.11l-5.75 4.18 2.19 6.77-5.75-4.16-5.75 4.19zM144.52 152.58l-5.75-4.19h7.11l2.2-6.76 2.2 6.76h7.11l-5.75 4.19 2.19 6.76-5.75-4.18-5.75 4.18zM102.49 126.39l-5.75-4.18h7.11l2.2-6.76 2.2 6.76h7.11l-5.75 4.18 2.19 6.77-5.75-4.16-5.75 4.19zM116.5 152.58l-5.75-4.19h7.11l2.2-6.76 2.2 6.76h7.11l-5.75 4.19 2.19 6.76-5.75-4.18-5.75 4.18zM74.47 126.39l-5.75-4.18h7.11l2.2-6.76 2.2 6.76h7.11l-5.75 4.18 2.19 6.77L78 129l-5.75 4.19zM88.48 152.58l-5.75-4.19h7.11l2.2-6.76 2.2 6.76h7.11l-5.75 4.19 2.19 6.76-5.79-4.18-5.75 4.18zM46.45 126.39l-5.75-4.18h7.11l2.2-6.76 2.2 6.76h7.11l-5.75 4.18 2.19 6.77L50 129l-5.75 4.19zM60.46 152.58l-5.75-4.19h7.11l2.2-6.76 2.2 6.76h7.11l-5.75 4.19 2.19 6.76-5.77-4.18-5.75 4.18zM18.43 126.39l-5.75-4.18h7.11l2.2-6.76 2.2 6.76h7.11l-5.75 4.18 2.19 6.77L22 129l-5.75 4.19zM32.44 152.58l-5.75-4.19h7.11l2.2-6.76 2.2 6.76h7.11l-5.75 4.19 2.19 6.76-5.75-4.18-5.75 4.18zM214.57 74l-5.75-4.18h7.11l2.2-6.77 2.2 6.77h7.11L221.69 74l2.19 6.76-5.75-4.18-5.75 4.18zM186.55 74l-5.75-4.18h7.11l2.2-6.77 2.2 6.77h7.11L193.67 74l2.19 6.76-5.75-4.18-5.75 4.18zM200.56 100.2l-5.75-4.2h7.11l2.2-6.76 2.2 6.76h7.11l-5.75 4.18 2.19 6.77-5.75-4.18-5.75 4.23zM158.53 74l-5.75-4.18h7.11l2.2-6.77 2.2 6.77h7.11L165.65 74l2.19 6.76-5.75-4.18-5.75 4.18zM172.54 100.2l-5.75-4.2h7.11l2.2-6.76 2.2 6.76h7.11l-5.75 4.18 2.19 6.77-5.75-4.18-5.75 4.23zM130.51 74l-5.75-4.18h7.11l2.2-6.77 2.2 6.77h7.11L137.63 74l2.19 6.76-5.75-4.18-5.75 4.18zM144.52 100.2l-5.75-4.2h7.11l2.2-6.76 2.2 6.76h7.11l-5.75 4.18 2.19 6.77-5.75-4.18-5.75 4.23zM102.49 74l-5.75-4.18h7.11l2.2-6.77 2.2 6.77h7.11L109.61 74l2.19 6.76-5.75-4.18-5.75 4.18zM116.5 100.2l-5.75-4.2h7.11l2.2-6.76 2.2 6.76h7.11l-5.75 4.18 2.19 6.77-5.75-4.18-5.75 4.23zM74.47 74l-5.75-4.18h7.11L78 63.07l2.2 6.77h7.11L81.59 74l2.19 6.76L78 76.6l-5.75 4.18zM88.48 100.2L82.73 96h7.11L92 89.26 94.24 96h7.11l-5.75 4.2 2.19 6.8-5.79-4.21-5.71 4.21zM46.45 74l-5.75-4.16h7.11L50 63.07l2.2 6.77h7.11L53.57 74l2.19 6.76L50 76.6l-5.75 4.18zM60.46 100.2L54.71 96h7.11L64 89.26 66.22 96h7.11l-5.75 4.18 2.19 6.82-5.77-4.21-5.73 4.21zM18.43 74l-5.75-4.18h7.11L22 63.07l2.2 6.77h7.1L25.55 74l2.19 6.76L22 76.6l-5.75 4.18zM32.44 100.2L26.69 96h7.11l2.2-6.74L38.2 96h7.11l-5.75 4.18 2.19 6.82-5.75-4.21-5.75 4.21z" fill="#fff" fill-rule="evenodd"/></svg>