<svg xmlns="http://www.w3.org/2000/svg" width="600" height="300" viewBox="0 0 600 300"><defs><clipPath id="a"><path fill="none" d="M0 0h262.18v150H0z"/></clipPath></defs><path fill="#fff" d="M0 0h600v300H0z"/><path fill="#cf142b" d="M0 37.17h600v37.55H0z"/><path fill="#00237d" d="M0 74.71h600v37.55H0z"/><path fill="#cf142b" d="M0 149.81h600v37.55H0z"/><path fill="#00237d" d="M0 187.36h600v37.55H0z"/><path fill="#cf142b" d="M0 262.45h600V300H0z"/><g clip-path="url(#a)"><path fill="#00237d" d="M0 0h262.18v150H0z"/><path fill="#fff" d="M106.12-4.54h49.94v165.59h-49.94z"/><path fill="#fff" d="M269.87 12.61v-17h-30.7L-3.73 134.49v17.65h29.56L269.87 12.61z"/><path fill="#fff" d="M-2.87-1.62v17.66l240.78 137.64h30.71v-17L26.69-1.62H-2.87z"/><path fill="#cf142b" d="M-1.9 151.28h19.86l120.41-68.81-4.89-8.57L-1.9 151.28z"/><path fill="#cf142b" d="M135.29 66.34l-4.88 8.56 137.87 78.77.43-11.11-133.42-76.22zM-3.8 9.55l130.32 74.52 4.88-8.56L-3.8-1.81V9.55z"/><path fill="#cf142b" d="M245.3-1.39L109.79 76.1l4.88 8.56L264.59-1.06l-19.29-.33z"/><path fill="#fff" d="M267.56 50.25v10.07H-10.71V50.25zM267.56 90.33v10.07H-10.71V90.33z"/><path fill="#cf142b" d="M267.56 60.32v30.01H-10.71V60.32z"/><path fill="#cf142b" d="M116.09-4.54h29.97v165.59h-29.97z"/></g></svg>