<svg xmlns="http://www.w3.org/2000/svg" width="600" height="340"><defs><clipPath id="a"><path fill="none" stroke="#000" stroke-linecap="round" stroke-linejoin="round" stroke-width="2" d="M156.14 26.22H443.7l.16 287.43-287.72.13V26.22z"/></clipPath></defs><g clip-path="url(#a)" fill="none" stroke="#000" stroke-linecap="round" stroke-linejoin="round" stroke-width="2"><path d="M423.13 334.38l-123.2-123.2-123.21 123.2-41.16-41.16 123.2-123.21L135.56 46.8l41.16-41.16 123.21 123.2 123.2-123.2L464.3 46.8 341.09 170.01 464.3 293.22l-41.17 41.16z"/><path d="M428.61 328.91L299.93 200.23 171.25 328.91l-30.22-30.22L269.7 170.01 141.03 41.33l30.22-30.22 128.68 128.68L428.61 11.11l30.22 30.22-128.68 128.68 128.68 128.68-30.22 30.22z"/><path d="M184.9 40.6l-3.23 9.93h-10.45l8.45 6.14-3.23 9.94 8.46-6.14 8.45 6.14-3.23-9.94 8.45-6.14h-10.45l-3.22-9.93zM223.24 78.94l-3.23 9.94h-10.45l8.46 6.14-3.23 9.93 8.45-6.14 8.45 6.14-3.23-9.93 8.45-6.14h-10.44l-3.23-9.94zM261.58 117.29l-3.22 9.93h-10.45l8.45 6.14-3.23 9.94 8.45-6.14 8.46 6.14-3.23-9.94 8.45-6.14h-10.45l-3.23-9.93zM341.5 203.91l-3.23-9.94-3.23 9.94H324.6l8.45 6.14-3.23 9.94 8.45-6.15 8.45 6.15-3.22-9.94 8.45-6.14H341.5zM379.85 242.25l-3.23-9.93-3.23 9.93h-10.45l8.45 6.14-3.22 9.94 8.45-6.14 8.45 6.14-3.23-9.94 8.45-6.14h-10.44zM418.19 280.6l-3.23-9.94-3.23 9.94h-10.44l8.45 6.14-3.23 9.93 8.45-6.14 8.45 6.14-3.23-9.93 8.46-6.14h-10.45zM406.51 66.61l8.45-6.14 8.45 6.14-3.23-9.94 8.46-6.14h-10.45l-3.23-9.93-3.23 9.93h-10.44l8.45 6.14-3.23 9.94zM376.62 78.94l-3.23 9.94h-10.45l8.45 6.14-3.22 9.93 8.45-6.14 8.45 6.14-3.23-9.93 8.45-6.14h-10.44l-3.23-9.94zM338.27 117.29l-3.23 9.93H324.6l8.45 6.14-3.23 9.94 8.45-6.14 8.45 6.14-3.22-9.94 8.45-6.14H341.5l-3.23-9.93zM264.81 203.91l-3.23-9.94-3.22 9.94h-10.45l8.45 6.14-3.23 9.94 8.45-6.15 8.46 6.15-3.23-9.94 8.45-6.14h-10.45zM226.47 242.25l-3.23-9.93-3.23 9.93h-10.45l8.46 6.14-3.23 9.94 8.45-6.14 8.45 6.14-3.23-9.94 8.45-6.14h-10.44zM188.12 280.6l-3.22-9.94-3.23 9.94h-10.45l8.45 6.14-3.23 9.93 8.46-6.14 8.45 6.14-3.23-9.93 8.45-6.14h-10.45zM303.16 165.56l-3.23-9.93-3.23 9.93h-10.45l8.45 6.15-3.22 9.93 8.45-6.14 8.45 6.14-3.23-9.93 8.45-6.15h-10.44z"/></g><path fill="none" stroke="#000" stroke-linecap="round" stroke-linejoin="round" stroke-width="2" d="M156.14 26.22H443.7l.16 287.43-287.72.13V26.22z"/></svg>