<svg xmlns="http://www.w3.org/2000/svg" width="300" height="300" viewBox="0 0 300 300"><title>flag-oregon-icon-union</title><path d="M37.15,153.57s9.39-1.88,15-2.33,7.52.45,13.14,3.26,1.4,3.74,1.87,9.39-12.19,7.5-23,8.43-7-8.43-6.57-20.18-2.82-9.82-12.2-9.82-23.92,8-23.92,8l12.67,6.56-1.42,8.44,23-2.8" fill="none" stroke="#000" stroke-linecap="round" stroke-linejoin="round" stroke-width="2"/><path d="M295.7,156.39s-14.55-11.74-23.94-13.14-16.42-1.43-15,8.44a134.89,134.89,0,0,0,3.17,16.08s2.45-.6,9.5-.6A21.6,21.6,0,0,1,280.68,170l.95-10.77ZM56.39,135.72s-4.68,19.7,17.37,18.78,164.7-.48,164.7-.48,10.32-1.38,9.85-10.32C248.39,130,253,127,223.44,125.57s-152.5-.17-152.5-.17S55.46,124,56.39,135.72Z" fill="none" stroke="#000" stroke-linecap="round" stroke-linejoin="round" stroke-width="2"/><path d="M235.52,155.09s.31,10.94,7.51,14.07c15,6.59,21.58-.45,21.58-.45M255.69,149l-8,1.87" fill="none" stroke="#000" stroke-linecap="round" stroke-linejoin="round" stroke-width="2"/><path d="M81.7,135.44H76.24v-3.16h16v3.16h-5.6v13.08h-5V135.44"/><path d="M94.15,148.52V132.28h5v6.43h6.06v-6.43h4.93v16.24h-4.93v-6.67H99.09v6.67H94.15"/><path d="M113.48,148.52V132.28H127.1v3.16h-8.67v3.33h8v3.14h-8v3.46h8.67v3.12H113.48"/><path d="M155.4,132.28v10.29c0,4.51-4,6.27-8.52,6.27s-8.5-1.73-8.54-6.27V132.28h4.95v10.07c.07,2,1.25,3.35,3.59,3.35a3.2,3.2,0,0,0,3.57-3.35V132.28h4.94"/><path d="M158.79,132.28h6.93l6,12.08.06,0V132.28h4.44v16.24h-6.86l-6-12.45h-.05v12.45h-4.46V132.28"/><path d="M179.35,148.49h5.09V132.31h-5.09Z"/><path d="M187.13,140.41c0-5.36,3.33-8.47,9.25-8.47s9.25,3.11,9.25,8.47-3.34,8.46-9.25,8.46S187.13,145.76,187.13,140.41Zm9.25-5.35c-3.37,0-4.06,2.87-4.06,5.4s.69,5.24,4.06,5.24,4.06-2.81,4.06-5.24-.7-5.4-4.06-5.4"/><path d="M208.29,132.28h6.93l6,12.08.06,0V132.28h4.45v16.24h-6.86l-6.06-12.45h0v12.45h-4.47V132.28"/></svg>