<svg xmlns="http://www.w3.org/2000/svg" width="132" height="300" viewBox="0 0 132 300"><path d="M23.82 114.14c5.2.62 8.94-4.58 11.43-8.32h-2.07c-3.01 2.92-6.55 7.07-9.36 8.32z"/><path fill="#fff" d="M42.53 86.07z"/><path d="M65.41 90.22l1.9 1.36 5.38-.32-1.04-1.04h-6.24z"/><path d="M55 52.8zM47.09 100.23l-.39.39a1.45 1.45 0 00.39-.39z" fill="#fecf8c"/><path d="M83.08 204.59h4.16v1.03h-4.16zM65.4 200.43h16.64v1.04H65.4zM56.29 213.59zM70.6 196.27h4.16v1.04H70.6zM55.87 213.63h.42zM62.31 220.94l-.65-.2zM60.89 213.24h.28zM66.18 213zM61.2 213.22zM53.51 217.59c.37.2.75.39 1.13.57-.38-.16-.76-.37-1.13-.57zM66.59 213c3.47-.11 7-.14 10.5-.14s6.82 0 10.24.07c-6.96-.08-13.92-.17-20.74.07zM56.45 219c.42.18.85.35 1.28.51-.43-.2-.86-.37-1.28-.51zM57.73 219.47l.19.07zM59.4 220.06h.08-.13zM55 218.31l1.2.53zM56.16 218.84l.25.11zM54.64 218.16l.29.13zM45.6 217.55a.3.3 0 000 .1.43.43 0 010-.1zM46.24 218.75a3.15 3.15 0 01-.25-.28 3.15 3.15 0 00.25.28zM53.18 217.42l.3.16zM46.24 218.75v0zM45.69 218l.06.11zM45.91 218.37l.07.09zM45.62 217.66a1.14 1.14 0 00.07.32 1.14 1.14 0 01-.07-.32zM45.75 218.09a1.56 1.56 0 00.16.28 2.54 2.54 0 01-.16-.28zM58 219.55c.47.18.93.34 1.4.5-.51-.16-.97-.32-1.4-.5zM47.88 213.65c-.35-.33-.68-.67-1-1 .32.35.65.67 1 1zM44.65 208.27a3.87 3.87 0 000 .49 4.23 4.23 0 010-.5zM46.72 212.48l.13.13zM45.64 211.2c.35.45.71.87 1.08 1.28-.37-.41-.72-.83-1.08-1.28zM87.33 212.91c2.52 0 5 .05 7.56.05-2.51 0-5 0-7.56-.05zM44.68 208.05v.21zM44.85 207.42a3.74 3.74 0 00-.16.62 5.79 5.79 0 01.16-.62zM48.1 213.85c.33.3.67.59 1 .88-.33-.29-.67-.58-1-.88zM50.71 215.91zM50.41 215.71l.27.19zM47.88 213.65l.2.17zM51.77 216.6l.29.17a3.37 3.37 0 01-.29-.17zM52.09 216.79c.36.22.72.43 1.09.63-.37-.2-.73-.42-1.09-.63zM49.38 214.93c.34.27.68.53 1 .78-.32-.25-.66-.51-1-.78zM49.12 214.73l.25.19zM92.72 223.36h.76-1 .28zM71.1 218.62a11.07 11.07 0 012.61 1.56 11.34 11.34 0 00-2.61-1.56zM93.48 223.34c.43 3.73.69 7.54.86 11.4-.17-3.86-.43-7.67-.86-11.4zM93.48 223.34v-.01.01zM109.16 201.42c-2.06 3.2 5 7.29 3 10.49 2.01-3.2-5.05-7.29-3-10.49zM4.63 107.46c-.71-1.16-.9-2.53-1.6-3.72-.98 1.88.71 2.62 1.6 3.72zM22.79 71.5v.26l.12-.61c-.01.11-.07.22-.12.35zM4.93 107.9a2.14 2.14 0 00-.3-.44c.1.15.19.3.3.44zM21.59 62a4.34 4.34 0 00-.18-3.24 17.81 17.81 0 00-.72 2.35zM36 28.65a1.77 1.77 0 01.12.17 1.77 1.77 0 00-.12-.17zM34.46 27.51c-.41-.19-.85-.37-1.28-.55.42.18.82.35 1.28.55z"/><path d="M37.34 32c2.07-5.72-4.68-7.81-8.32-8.33-4.47 4.9-15.39 5.21-13.52 14.56 2.6 2.8 3.43 7.79 8.32 7.28l-7.27 4.15C13.63 63.51 10.62 77.33 3 89.18c-.32 4.16-3.85 8.32-1 12.48C3.34 87.52 11 76 15.5 63.19c2.6-4.15-1-11 3.12-14.55a17.23 17.23 0 0112.48 0c4.37 11.23-5.2-2.08-8.32 5.2-2.61 1.47-1.94 3.16-1.37 4.92a13.87 13.87 0 014.49-6c2.91-.94 4.47 1.45 6.23 3.12-2.07 3.12-3.53-1.56-6.23 0q-1.47 7.63-2.9 15.27c1.57-3.3 5.44-1 8.15-1.72 1.45-6.55 1-13.82 4.15-19.76-8.78-5.92 3.07-11.11 2.04-17.67zm-8.42 34.68a4.69 4.69 0 00.1.67l-2.08 1a14.54 14.54 0 010-11.43c3.61 1.2 1.64 6.3 1.98 9.76zm6.77-38.39l-.12-.11zm-.25-.22L35.3 28zM18.62 37.2l-1 1 1-6.23zm3.13 6.24l-3.12-3.12 1-1 3.12 3.12zm-.31-5.75c0 .37.32.86 1.35 1.59-1.03-.73-1.38-1.22-1.35-1.59zM29 45.52h-3.09l1-7.28c2.88 1.18 2 3.92 2 6.25v.06a6.15 6.15 0 00.09.97zm3.11-6.24l-5.19-4.15-4.15 4.15c-1-.73-1.38-1.22-1.35-1.59.06-1 2.63-1.06 2.7-2a1 1 0 000-.16.69.69 0 00-.05-.13v-.06a.83.83 0 00-.07-.13l-.06-.07a1.34 1.34 0 00-.11-.14v-.05.05a6 6 0 00-1-.86l-2.09 1c-1.76-5.27 4.81-5.88 7.78-8.76a4.45 4.45 0 00.54-.61 5.56 5.56 0 010 .91c-.11 2-1.18 3.61-2.09 5.34 2.4 1.76 5.31 2.39 7.28 5.19zm-8.1-4v.06c0 .06-.01-.03-.01-.05zm.08.19s.02.02.02.01zm-.09-.31l-.05-.07zM36.3 31v4.17c-2.19-.32-3.44-2.81-5.2-4.17v-5.23a3.44 3.44 0 00.67.5 3.12 3.12 0 01-.67-.51 3.12 3.12 0 00.67.51l.22.13a6.54 6.54 0 00.59.3l.24.11.36.15c.44.18.87.36 1.28.55h.1-.1a5.52 5.52 0 01.8.44l.22.16a2 2 0 01.26.24 2.15 2.15 0 01.68 1.38A3.68 3.68 0 0136.3 31zM32 26.4l-.22-.13.22.13zM32.82 26.81l-.24-.11z"/><path d="M32.58 26.7a5.43 5.43 0 01-.59-.3 5.43 5.43 0 00.59.3zM33.17 27l-.35-.15zM128.83 182.75H108c-1.14-1.24-2.7-2.18-2.07-4.16H72.69c-1-2.39-4.06-5.3-3.13-7.28 2.82-3.22 3.65-6.85 1-10.39 2.88-1.75 12.63-6.6 15.59-8.84 5.37-4.52 8.39-15 7.71-20.38 0 0 1.91-1.13 2.07-2 .59-3.2-.41-4.15-.41-4.15-9.37-8.74-6.25-22.67-18.72-30.16 1.21-5.93 4.07-15.32 1.25-18.08 1.74-2 5.19-11.11 6-17.26-.27-2-2.39-3-2.07-5.2a20 20 0 00-12.49-6.24C61.66 50.93 50.23 47.08 46.7 58c1.55 5.83-7.8 11 0 15.6 1.65 2.81 6 8.11 0 10.4-8.53-3.64-11.23 6.75-19.76 3.12-7.48-3.91-2.94-9-4.11-15.35Q21.26 80 19.66 88.14c3.33 9.78-9 13.83-13.51 20.8a4.23 4.23 0 01-1.22-1 1.7 1.7 0 01.19 1c2.69 2.59 4 9.35 9.34 7.27a10.19 10.19 0 016.23 9.37c-7.06 21.61-15.54 44.33-11.27 69.29l-.15 2.44c.73 5.51 2.38 9.87 1.55 16.11 6 16.11 2.81 37.12 5.73 53.55 7.17 2.08 14.13 4.36 21.82 5.2q1.56-18.74 3.12-37.44l-12.47 1c-5.83-7.17-17-13-15.59-25-.73-8.32-2.92-17.25-2.09-24.95a128.2 128.2 0 013.12-34.3c1-3 2.81-7 2.09-9.37 1.34-7.07 4.57-14.13 12.47-15.59 11.44-8.73 16.63-23.7 15.59-39.5l2.08 16.63-1 1a10.22 10.22 0 006.25 9.36c5.5-1.36 14.54 3.43 16.62-4.17 0-1.14.21-2.49-1-3.11 2.49-2.18-.22-4.79 0-7.28 1-.73 1.66-2.49 3.11-2.08.52 5.82 3.54 13.2 1 17.67 2.81 6.55-.72 13.21-1 19.76 8.93 6.91-8.42 17.68-14.55 24.95-7.59 4.78 6.23 10.7-2.08 13.52.52 9.45-13.1 8.62-11.44 17.66 3.86.32 8.32-.83 11.44 1 5 8.84-8.52 8.11-10.39 14.57l-1 66.53h-2.19l19.75 2.08-1.05-1c1.36-3.54 3.34-7.8 7.28-9.36l3.12 3.25a16.86 16.86 0 00-4.16 7.28c15.29 2.39 31.2.21 45.75-2.08l1-42.62c1.86 13.51.72 28.38 1 42.62 3.55-.52 7.18-.73 10.41-2.08v-66.53c-3.23-5.1-9-5.94-12.48-8.33 4.86-7.16 14.83-6.13 17.75-13.51zM26.94 125.58l-2.07-1c-1.25.62-1.05 2-1.05 3.12h-2.07c2.8-3.12-.74-6.24-1.05-9.37-3-.09-2.28-4.88-6.24-3.12l1-2.08c-2.07-2.7-5 2.08-7.27-1V110c5.71-2.91 8.32-9 12.47-13.51l-1-1c4.15-1.76-.11-12.79 7.27-7.28-1.87 1.47-.73 4.16-1 6.24l2.07 1c-.84-7.8 8.11-5.09 11.43-9.35h3.13c-.56 15.04-1.07 31.05-15.62 39.48zm76.93 55.09l2.09 2.08c-4.48 2.39-9 4.89-13.52 7.28.3-4.89 6.97-7.69 11.43-9.36zm-33.27-3.12v5.2c-1.14 0-2.48.21-3.11-1 3.53-3.53-2.49-5.82-2.09-9.35a6.67 6.67 0 015.2 5.15zm-5.2 0v1c-1.13-2.59-4.56-2.7-6.24-1a4.77 4.77 0 016.24 0zM81 55.92c-.2 3.53 2.5 7.17 0 10.39l-2.07 1-1.05-2.08-1 2.08c.21-4.36-8.52-3.53-4.15-8.31-.63-1.25-2-1-3.12-1 .31-2.07 3.84-4.15 1-6.23-.2 2.29-3.42 4.47-5.2 2.08l1-1c-.62-1.25-2-1-3.12-1 5.14-5.29 12.1 2.08 17.71 4.07zm-18.72-2.08l-1 1c.73 1.87 2.81.73 4.15 1l-2.07 1c.62 1.24 2 1 3.12 1l1 2.09c1.77.72-5-1.77-4.16 2.07-5.3-1.45-6-5-8.31-9.34 2.89-1.82 5.76-3.82 7.27 1.18zM51.9 112.06c-1.46.41-2.08-1.36-3.12-2.09-.32-1.35.83-3.43-1.05-4.15 1.88-1.46.42-3.54 3.12-4.16 4.99 2.81-.85 6.24 1.05 10.4zm17.67-15.6c-5-.93-10.41-.83-13.52-6.24-2.39 1.25 0 3.12 1 4.16 4.06 4 8.53 4.58 10.4 9.36-1.46 3.43-.83 9.46-6.24 9.35H54l3.09-3.09-2.08-1-1 1c.31-3.84 3.85-7.58 1-11.43l-1 2.08c-2.07-.31-4.15-3.85-6.24-1l-.64.65c1.58-2.31-.45-10.93 1.69-15.21 3.32 3.33 1.87 10.4 5.19 14.56 3.12-3.12-1.56-5.61 0-9.36l1 1c2-3-5.61-8.11 0-10.39-3.94-.84-5.61-6.34-6.23-10.4l-1.05 2.08c-3.11.42-1-3.22-3.11-4.16 3.73-1.66 1.24-5.93 3.11-8.31 3.85.31.62-4.06 3.12-5.2 1.27-.11 2.71-1.07 4.14-2.05A7.5 7.5 0 0054 59c1.56.1.93 4.67 4.16 3.11 0 1.15.2 2.5-1 3.12l1 1c-1.77-1-4-.93-5.2-3.12-2.21 2.49-4 6.61-1.28 8.67.09-.12.15-.23.25-.35a1.56 1.56 0 011 1c.73 1 2.49 1.66 2.08 3.12h-2.08c-.22-.92.25-2.19 0-3.13a5.16 5.16 0 01-1.26-.68c-3 4.27 2.15 5.27 3.36 9l1-1c-1.24 3.84 2.5 5.61 4.16 8.31 1.77-.31 4.16.84 5.19-1-4.25.51-4.68-5.1-7.27-6.24.65-3.06 2.89-9.71-3.11-9.3.41-1.45-1.35-2.08-2.08-3.12l2.08-1c2.08.94 0 4.58 3.12 4.16 1-2.39 2.08-4.88 3.12-7.28 1.14 0 2.5-.21 3.12 1l1-2.08c4.79-.1 7.6 8.84 13.53 8.32-.85 2.91-4.9 2.81-7.28 4.16-3.12-1-5.62-6.76-9.37-3.12l4.17 2.08c-1.35-.31-3.43.83-4.17-1l-1 2.08 4.15 4.16 1-1 3.12 3.12c1.87-.73.73-2.81 1-4.16h2.09l-2 8.24c-1-.73-1.66-2.5-3.11-2.08l-1 1c1.76 1 2.6 4.27 5.2 3.12 3.84-1.45 1.35-5.51 2.07-8.31l2.09 2.08 1-1c.63 3.12-.72 5.4-3.12 7.27l2.09 1 1-1c-.82 4.36-1.74 8.62-7.25 8.31zm3.12 33.27c1.76-2 .52-6 4.15-6.24 2 .63 2.92-.94 4.16-2.08-2.07-2.8-4.16.73-6.24 1-2.7-5.2 2.08-11.23-1-16.63l3.12-8.32c11.54 8 8.22 22.25 17.68 31.19-4.58 1.25-11.27-6.84-15.53-.9l-3.18-.13-1 2.07zM55 164c6.65-6.86 13.62-15.17 21.83-22.86-.93-2.71-5.19-5.31-2.08-8.32l5.2-4.16c4.36-3.53 8.64 1.77 11.44 3.12-1.77 5.92-.31 13.1-5.21 17.68l-13.5 8.31-1-1-1.94 1.93c-.33.52-.47.72-.14.15l.14-.15c.52-.79 1.5-2.34 1.94-3l-1.05-1-5.2 5.19c3.13 2 7.39 4.06 4.17 8.32l-2.08 1c-.22-1.57 1.77-2.39 1-4.16l-1-1.05-1 2.09-4.24-2.09 2.09-2-2.09-1c-1.65 1.67-4.77 4.06-2.07 6.23l1 2.09 1-2.09 2.09 1c-1.87 1-.73 3.42-1 5.2h-2.05c-.31-1.78.83-4.16-1-5.2l-1.05 1c-2.94-.23-2.84-3.42-4.2-5.23zm4.15 9.37c-.93 2.08-3.11 5.4-5.19 5.19.64-2.15 1.88-8.07 5.2-5.16zm-6.23 7.27h3.12v2.08h-3.11zM43.58 190v-3.12h46.78V190zm61.33 83.17h-1l-1-48.86h1l1 47.83zm7.28-73.82c2.59.78 5.74 1.18 8 2.81a6.41 6.41 0 012.43 3.43c1.71 7.36-7.7 8.27-12.07 12.1l-.41.38c-7.17.73-13.93 2.6-20.79 4.16a4.13 4.13 0 003.12 1.1v-.06h1a18.15 18.15 0 013.12 0v50.94h-2.06v-2.32 2.32-2.68c-.13-11.87.35-24-.1-35.8-.16-4.2-.44-8.35-.91-12.42h-1.04l-1 51.92H81c2.92-7.28-9.15-13.52 1-18.72-.32-10.07.82-20.79-1-30.14a75.12 75.12 0 011.11 14.8A75.12 75.12 0 0081 226.42l-3.12 3.11c-1.35 10.4 3.44 23.4-4.16 31.19-11.43-5-4.15-21.52-6.23-32.22l-3.12-2.08a91.12 91.12 0 000 29.11c3.95 4.88 13.83 10.91 12.47 19.75-4.88.94-3.43-6.24-5.19-9.36-21.63-4.88-5.94-29-13.52-41.58-1.87 10.81-.73 22.87-1 34.31l6.24 5.19c-3.64 1.87-7.49 5.51-6.24 10.4l-9.36-1v-53a5.45 5.45 0 00-.93-.93l-.51-.45v-.05a3.58 3.58 0 01-.26-.29l-.07-.09a1.56 1.56 0 01-.16-.28l-.06-.11a1.14 1.14 0 01-.07-.33.3.3 0 010-.1 1.47 1.47 0 01.06-.45c7.07 2.39 13.72 8.53 21.83 5.19l-1.87-.44-2.55-.66-.75-.2.36.1-.37-.11-1-.3c-.62-.18-1.23-.35-1.84-.55h-.08c-.49-.16-1-.33-1.45-.51l-.19-.07-1.43-.61-.25-.11c-.41-.17-.83-.36-1.23-.55l-.29-.13c-.39-.19-.78-.38-1.17-.59l-.3-.16c-.38-.2-.75-.42-1.12-.64l-.29-.17c-.37-.23-.73-.47-1.09-.71l-.27-.19c-.36-.25-.71-.52-1.05-.79l-.25-.19c-.35-.29-.7-.59-1-.9l-.2-.17c-.36-.34-.7-.69-1-1l-.13-.13a21.11 21.11 0 01-2.1-2.7 16.54 16.54 0 001 1.42c-.36-.45-.7-.93-1-1.42a5.87 5.87 0 010-1 3.87 3.87 0 010-.49 1.43 1.43 0 010-.22 3.74 3.74 0 01.16-.62c1-2.9 4.76-3.85 7-5.95H55c-1.55 2.08-5.51 6.44-4.16 9.35l-2.07-5.2c-1.05 2.08-3.43 5-1.05 7.28l2.09 1 1-1 2.08 1c1.24-.63 1-2 1-3.12h47.91v2.08c-2.29 0-4.6.06-6.91.06-2.51 0-5 0-7.56-.05-3.42 0-6.84-.06-10.24-.07s-7 0-10.52.14h-.37c-1.68.06-3.35.13-5 .23h-.28c-1.55.09-3.09.21-4.62.35-1.12.11-2.25.22-3.36.35 3.43 8.31 14.56 5.72 20.78 6.24a11.09 11.09 0 00-3-1.73 19 19 0 00-3.16-.9c-.59-.13-1.18-.23-1.77-.34l1.4.26c-1.16-.23-2.34-.41-3.5-.63h-.1c-.56-.1-1.11-.21-1.65-.34h-.2c-.51-.12-1-.26-1.51-.42 13.82-.31 28.39.84 41.59-1 2.38 2.8 4.88-.73 7.28-1a6 6 0 003-2c2-3.2-5-7.29-3-10.49a6 6 0 013.09-2.26zm-8.32 12.48c-.85-2.38 1.58-2.75 3.23-3.55-1.65.83-4.1 1.2-3.23 3.58zm-3.12-4.16l-45.74 1-1-2.07 1 1c3.84-3.22 1.35-9 2.08-13.51 23.18-2.6 51.46 7 68.62-10.4h2.07c-8.31 7.59-25.36 9.25-27.03 24.01z"/><path d="M50.9 101.66c5 2.81-.83 6.24 1 10.4-1.9-4.16 3.94-7.59-1.05-10.4zm-3.12 4.16c1.88-1.46.42-3.54 3.12-4.16-2.75.62-1.3 2.7-3.17 4.16zm1 4.18c-.32-1.35.83-3.43-1.05-4.15 1.87.69.73 2.77 1.05 4.15zm3.12 2.09c-1.46.41-2.09-1.36-3.12-2.09 1.03.7 1.65 2.47 3.12 2.06zM125.71000000000001 183.79zM54 206.7l1 1zm1 2.07l45.74-1M90.36 186.88zm-46.78 0zm0 3.12zm46.78 0z" fill="#fff"/><path d="M118.43 204.59c2.7 7.07-5.92 9.14-9.35 12.47H107a23.47 23.47 0 0010.41-7.28c3.11-3.64-.85-8-4.17-9.35 3 .51 3.31 3.01 5.19 4.16z"/><path d="M103.87 211.86c-1-2.91 2.81-2.81 4.16-4.16l1 1z" fill="#fff"/><path d="M101.8 218.1c-3.44-1.56-5.51 3.12-8.32 0zM67.49 222.26h21.82v1.04H67.49zM71.65 256.56l2.07-28.06v25.99l-2.07 2.07z"/><path d="M71.65 275.28h-2.08v-4.16c.73.52 2.91 2.08 2.08 4.16z" fill="#fff"/><path d="M69.57000000000001 271.11999999999995c.73.52 2.91 2.08 2.08 4.16.83-2.08-1.35-3.64-2.08-4.16zm0 4.16zm2.08 0z" fill="#fff"/></svg>