<svg xmlns="http://www.w3.org/2000/svg" width="190" height="300" viewBox="0 0 190 300"><path d="M114.69 19.39c-2 .91-3.44 3.59-4.27 5.69-2 5.89-4 11.76-6 17.63-1 2.64-2 5.33-3.08 7.95-1.92-.26.76-3.53.61-4.93.63-2.88 2-5.69 2.16-8.63-.48-2.19 0-5.05-1-6.83-1.67 3.73-3.73 7.35-5.11 11.2-1.06 4.61-2.47 9.14-3.06 13.84a40.89 40.89 0 01-1.58 7.18c-2-.19-1.43-3.62-2.58-5-1-3.31-3.14-6.18-4.65-9.28-.79-.81-2.57-6.21-2.54-3.21-.18 2.18-.33 4.36-.53 6.54q-6.5-12.15-13-24.29c.36 2.63 0 5.46.95 8 2.1 4.54 4 9.15 6 13.73-1.06 1-1.27-.65-1.8-1.32l-12-21.24c-1.62 1.14-.49 3.24-.7 4.88.66 2.3 2.18 4.36 3.22 6.53 1.9 3.55 3.85 7.09 5.8 10.6-1.4 1.54-2.16-2.82-3.16-3.8-3.63-6.29-7.21-12.6-11-18.83a2.66 2.66 0 00-1.86 3.35 5.49 5.49 0 001.3 4.21q4.21 7.29 8.47 14.54c-1 1.11-1.25-.51-1.81-1.16L49.85 25.08c-1.1-.5-2.67-1.83-2.32.38C47 28.22 50 30.15 51 32.54c4 6.27 8.22 12.57 12.25 18.77-.84 1.14-1.23-.32-1.77-.94l-7.69-10.89c-.95-.24-2.18-.86-1.82.69-.06 1-.32 2 .51 2.76 4.09 6.14 8.26 12.25 12.31 18.41 1.31 2.68 2.51 5.45 3.89 8.08l7 7.22c-1.68 1.35-3.38-2.94-5-3.71-1.77-2-4.15-3.59-5.15-6.14-1.21-1.89-1.91-4.16-3.78-5.55-2.07-1.55-3.67-4.39-6.07-5.09-.78 1.71-.14 5.57 2.18 6.89.24.64 3.5 2.84 1.71 2.39a42.35 42.35 0 01-10.15-2.83c-2 1.91 4.75 3.44 1 4.22-2.73 0-4.85-2.45-7.35-3.37C36.79 60 30.4 56.9 24 53.77l-4-1.19c-.37 2.31 3.24 3 4.44 4.59 4.84 2.61 9.8 5.09 14.65 7.71-.16 1.46-1.47.36-2.35.22L9.57 56.33C8 56 8.31 56.77 8.92 57.8c.16 1.2 1.34 1.2 2.26 1.59 7.12 2.39 14.24 4.8 21.36 7.18.29 1.12.52 2.25.77 3.38-1.62-1.33-3.22-2.86-5.44-3-4.64-1.15-9.42-.17-14.12-.12-2.51-.6-2.83 1.42-.33 1.86 2 1.56 4.59.68 6.93.8q5.68-.17 11.39-.37c.67 2.17-3.71.72-3.88 2.48-.43 2.08 3.5 2.08 4.92 1.66 2.18 0 3.68-3.19 5.53-2.64-.49 2.07-4.11 2.53-4.52 4.66s4.09 1.51 5.35.6c1.46-1.21 4-3 4.1.2.42 2.93 4.3 1.8 6.41 2.79 3.75.58 7.6.81 11.32 1.43l10.69 4.84c-.73 2-3.87-1-5.49-.92-2.69-.75-5.16-2.28-8-2.31a25 25 0 00-7.43-.11c-7.51.63-15 1.14-22.53 1.84-7 1.18-14 2.31-21 3.46-1.77.55-5.63 1.59-1.94 2.31 7.93-.38 15.83-1 23.74-1.64.57 1.38-1.13.91-2 1.13l-19.73 2c-2 1.5-4.73 2.32-5.83 4.77.32 3.49 4.68.3 6.85.53a119.82 119.82 0 0016.84-3.61c1.64.13 5.72-2.79 6-.7-6.2 1.92-12.42 3.86-18.68 5.59l-4 .94c-.39 3.2 4.46 1.33 6.43 1.84 4.35-1 8.48-2.77 12.78-4 2.28-.19 5.75-2.88 7.41-1.77-1.47 1.5-4.9 2.29-7 3.54-4.41 1.93-8.89 3.7-13.19 5.9-2.84 2.87 3 2.61 4.44 1.12 4.6-2.11 9.14-4.34 13.67-6.61 1.11.92-.52 1.36-1.1 2a60.52 60.52 0 01-7.9 5.68c-1.11.89-2.92 1.2-3.14 2.83 2.52 1.43 4.92-.3 7.17-1.43q8.83-5.72 17.84-11.18c2.59-1.16 5.25-2.16 7.88-3.22 1 1-.64 1.32-1.27 1.92-2.9 1.93-5.8 3.85-8.68 5.8-3.16 3.26-6 6.85-9.74 9.5a39.88 39.88 0 00-4.88 4.36c-2.73 2.74-5.55 5.38-8.25 8.15-.84 2.79-2.63 5.41-2.44 8.41 0 3.23-.33 6.49 0 9.69.33 1.33 1.1 4.37 1.36 1.33.14-1.38 1.1-6.17 2.13-2.81.56 1.25 1.12 5 1.79 4.38 1-1.94 1.16-4.66 2.74-6.14 1.4.82 2.51 2.85 3.85.52 1.7-2 1.45-5 2.3-7.36l2.19-9.38c1.33-.39 1 1.22 1.35 2.05.43 1.93.85 3.86 1.28 5.78 2.91-1.26 1.72-5.19 2.66-7.67.18-1.87.77-6.77 2.78-3 1.17 2.82 4.43-.43 4.33-2.48.66-3.25 1.3-6.5 2-9.75.87 1.56 1.78 3.09 2.68 4.63 3-.14 4.08-3.18 6-5a65 65 0 015.31-5.56c2.24-1.16 4.33-2.7 6.64-3.69 2.24 2.08-1.15 4.88-2.42 6.66-2.85 3.52-6.37 6.42-9.35 9.83-1.18 1.35-3 2.49-2.52 4.52 1.49.66 3.05 1.27 4.56 1.95a66.29 66.29 0 00-6.82 3.5c-2 1.76-4.23 3.32-6.36 5-.58 1.55-1 3.3 1.34 2.66 1.63-.29 6 .41 2.57 2-3.25 2.13-7 3.45-10.23 5.56-.89 1.19-3.28 3-.37 3 1.95-.28 4.86-3.25 6.31-1.74-2 2.26-4.7 4.44-6.94 6.7-1.14.88-3.67 3.33-2.17 4 3.55-1.69 6-4.88 9.06-7.31 1.06-1.69 3.91-3.19 3 .1C46 147.54 42.61 152 39 156.29c.36 4.27 3.11-1.23 4.46-2.37 2.11-2.5 4.07-5.16 6.83-7 1-.2 3.49-3.8 3.62-2.33-.06 1.22.31 2.59-.73 3.54-2.18 2.94-3.64 6.31-5.42 9.49-.3 1.37-.6 5.31 1.38 3.45 2.36-4.4 5.24-8.52 7.1-13.19 1.91-4 3.19-8.29 4.79-12.39 1.35-2 2-1.33 1.82.77.21 1.95.13 6.13 1.48 6.42 2.45-5.59 5.52-10.88 8.13-16.39.9-2.69 2-5.33 3.09-8 1.41-.14.76 1.38.9 2.27a39.81 39.81 0 01-.14 5.36c-1.52 4.35-2.65 8.85-4.77 13-1.28 2.65-3.09 5-4.33 7.7-1.24 1.62-.78 1.64.62.68 2.47-1.13 4.14-3.26 5.85-5.28 2.7-2.16.7 2.76.08 3.81-1.47 4.16-2.42 8.53-4.09 12.64 0 1.25-.45 4.11 1.14 1.92 3-2.33 4.06-6.06 5.85-9.25 1.08 1.58 3.11 2.49 4.1.55-.17-2.46-1.3-5-.19-7.39a103 103 0 002.6-12c.3-2.46.47-4.94.77-7.39 1.37-.7.79 1.47.9 2.29v5.62c1.34.15 3.79-2.23 4.49-.67-1.35 1.16-3.41 1.88-4.63 3.13-.06 1.57-.11 3.14-.16 4.71l5-3.05c1.18.84-.38 1.41-.92 2.1l-4.1 3.83-.07 3.32c1.16-.37 2.32-.71 3.48-1.09.95 1.09-.69 1.33-1.37 1.89-.77.72-2.5.84-2.25 2.18q-.14 5.07-.35 10.13c.61-1.21 2.76-4.11 2.45-4.28-.71 1.38-3.27 1.48-1.52 0 .72-.88 4.68-3.7 3.28-.88-1.36 2-2.54 4.58-4 6.19-.41 0-.9 2.85.33 2.28 1 .69 4.19 1 2 2.22a38.12 38.12 0 00-2.89 2.77c.07 2.83-.65 7.54-.09 9.18.83-1.17 3.57-3.29 3-3.84-1.16.55-4.69.29-2.22-.61 1.51-.57 5.71-.73 3 1.64-1.43 2.54-4.83 3.35-4.19 6.13 0 2.06-.83 3.32 1.69 2.94 2.88-.25 3.08 2.56.48 3.32-1.78 1-3.34 1-2.27 3.35.56 1.55 4.4 2.6 3.44 4.21-.15-1.81-.55.71-1.55-1.12-1.22-1-2.8-3.29-2.28-.22q-.33 8.81-.69 17.62c1.21-.38 3.36 1.32 3.38 2.11-1.25 1.16-4.23-3.9-3.45.1 0 1.81-.44 5.14-.07 6 .6-.5 1.56.94 2.29 1.19l2.53 1.75c-.46 1.43-1.45-.05-2.24-.43L81.59 219c.21 2.38-.84 6.78.13 8 1.09.81 4 3.13 3.88 4.43-1.41.37-3.46-3.85-4.35-3.61-.14 3.56-.27 7.13-.4 10.69 1.49.5 4.5 2.43 5.28 3.65-1.34 1.14-4.18-3.09-5.34-2.55-.21 2.88 0 5.82-.45 8.66-.55 2.07 5.15 1.56 3.92 3.67-2.1-.69-5-3.69-5 .19-.45 3.1-3.27 6.26-1.08 9.19.85 2.39 3.55 3.4 5.58 4.61 2.39-.37 4.69-1.56 7.18-1.65 3.68-.57 7.41-.77 11.07-1.36 1.55-1.13 3.47-2.2 1.14-3.64-1.86-2.28-1.42-5.53-2.5-8.12 0-2.11-.43-3-2.29-1.5-1.45.29-3.71 3.39-4.53 1.45 2.17-1 4.14-2.41 6.34-3.43a74.27 74.27 0 01-.74-8.27c-1.73 1.12-4.3 3.45-6 3.12.68-1.55 4-2.23 5.42-3.86 1 0 .35-1.47.53-2.33 0-2.41-.05-4.81-.07-7.21a10 10 0 01-6 3.5c-1.81-1.58 2.76-1 3.36-2.36 1.09-1.24 3.11-2 2.57-3.94v-6.38c-1.42.94-4 4.32-5.38 2.92 1.48-1.32 4.68-2.58 5.35-4.55l-.09-8.28a10.89 10.89 0 01-6.07 4.08c-1.21 1.34-3.68.15-1.22-.52s4.82-1.66 6.32-3.85c1.35-.72.9-2 .95-3.35 0-2 0-3.93-.07-5.9-2.87 2.54-5.45 5.36-8.3 7.93-1.49-1.58 2.78-3 3.39-4.52 1.42-1.69 3.81-3.33 4.91-4.79l-.03-6.37c-1.09 1-2.86 2.29-.62 1.08 1 1.13-.76 1.25-1.5 1.74l-3 1.42c-1.06-2 3.43-3 4.32-4.71 1.21.29.76-.85.82-2v-4.48c-1.5 2.72-4.48 1.14-6.86.65-1.76-.15-.1-.68.63-1.12l5.66-3c1.06 1.08-.7 1.28-1.41 1.81l-3.34 1.77c2.09 1.17 4.65.42 5.29-1.61 0-3.6-.09-7.13-.27-10.72C97 175.17 96 177 94 177.72c1-.44 4.92.14 2.25.83-1.52.31-6.63.5-3.06-1.44a9.78 9.78 0 004.17-3.58c1.38-.8 1.37-1.33 1.18-3-.09-2.21-.19-4.42-.28-6.63-.84 1-4.4 3.85-3.49 3.84 1.07-.67 5.25-.86 2.76.34-1.59-.1-5 2.12-5.61.18 2.22-1.28 3.86-3.27 5.71-5 1.09.14.37-1.46.51-2.44q-.4-10-.8-19.91c-1 .92-5.42 4.46-3.82 1 1.07-1.23 2.16-3.38 3.35-3.79.78-.4.07-1.85.25-2.67.18-2-1.06-3.77-1.66-5.63 0-.76-1.47-2.09-.26-2.32 1.32 1.12 2 4.17 3 6 1.63 3.77 3.49 7.46 4.93 11.3a47.83 47.83 0 011.75 9.7c.81-.29 2.33.2 2.27-1.07.19-1.25 1.09-2.53.3-3.73-3.57-9.71-7.63-19.23-11.4-28.87.9-.93 1.19.34 1.54 1.1 2.2 4.37 3.63 9.08 5.46 13.62 1.86 4.92 3.81 9.81 6 14.58 3.43-2 .59-5.59.1-8.5-1.6-5.32-3.78-10.46-5.64-15.7-.55-.93-1.76-1.36-2.56-2.11-1.19-.87-2.4-1.75-3.57-2.62 1-1.83 3.13 1.39 4.61 1.55 2.56 2.7 3.19-1.45 5.47-1.93.63 2.34-3.68 4.23-1.39 6.93 1.66 5.65 3.15 11.36 5.34 16.84l1.09 2.95c-.74 1.07.32 5.64 1.83 4.46.52-2.46 2.1-4.9.76-7.4-2-7.51-4.67-14.8-6.94-22.22 0-2.71 1.72 1.15 1.91 2.31 2.61 7.09 5.44 14.12 7.74 21.31-.49 2.11-.47 6.58 2.28 4.06.13-2.82.35-5.71-.82-8.37-2.39-6.35-4.29-12.89-6.41-19.34-1.21 1.32-3.5.06-3.85-1.4.41-3.2-2.24-3.11-4.63-2.91-1-.1 1.83-1.6 2.16-2.14 1.29-.71 4-2.88 1.39-3.46-.85-.39-1.69-.79-2.54-1.17a38.31 38.31 0 014.25-6.21 5.31 5.31 0 00-1.75-6.42c-1.45-.79-1.29-2.64-1.87-4-.75-.8 0-2.35.61-1.19.38 1.3.76 2.6 1.13 3.9a5.74 5.74 0 013.16 5.53c1 2.27-1.63 3.64-2.6 5.36-.58.84-1.07 1.75-1.62 2.61 1.22.58 2.47 1.1 3.67 1.71.25 2.29-3.7 3.8-3.41 4.59 3.83-1 1.51 4.31 4.4 4.75 1 0 1.84-1 2.77-1.39 1.66.31-.69 1.08-.3 1.83 3.09 8.42 6.27 16.84 9.22 25.3-.29 3.06 2.63 3.45 4.44 4.72.25 1.63 1 4.73 2.76 4.06.07-4.36.34-8.75.35-13.09.25-1.49-2.28-5.1-.2-5.28 1.16 3.41 2.7 6.74 3.5 10.25.57 2.28-.56 6 2.71 6.32 1.45.59.33-4.65 1.88-3.23.85.68 1.7 1.36 2.56 2 3.46.08.88-3.71.94-5.64-1.09-2.71-2.12-5.45-3.2-8.16 1.61-.67-.87.23-.4-1.5-.37-2.67-2.11-4.69-3.66-6.78-.66-1.42-.62-3.1-1.85-1.08-1.46 1.21-.81 3.21.21 4.49 1.67 2.58 1.51 6 3.59 8.33.92 1.51 2.15 3 1.83 4.89.08.86.15 2.57-.92 1.74-.15-1.46.39-3-.51-4.19-1.11-2.18-2.69-3.53-3.13-6s-1.85-4.56-2.88-6.78c.23-.54-3.45.3-3.16-.85 1-.14.83-.59 2.56-.21a3.59 3.59 0 00.41-4.56c-1.73-3.88-4.4-7.28-6.34-11-.49-2.46.49-5.48-1.87-7.19-2.43-2.37-3.66-5.56-5-8.6-1.56-2.18-4.1-3.46-5.92-5.44-1 .31-4.72.43-2.87-.69 2.55-1 4.31.44 5.93 2.17 1.86 1.44 3.82 2.92 4.44 5.29a22.5 22.5 0 004.8 7.43c1.88 1.77.91 4.6 1.41 6.87 2.32 4.2 5.42 8 7 12.63-.34 2 .55-.64 1.5-.41-.09-2.27.7-5.34-.77-7.45-1.53-2.85-3.31-5.6-4.7-8.51-1-2.07-2.14-4.67-3.22-6.94a50.18 50.18 0 00-4.26-7.39c1.55-1.61 2.35 3 3.55 3.85 2.7 4.78 4.4 10.05 7.35 14.69.86 2 2.69 3.82 3.07 6 .3 1.3-.51 5.5.54 5.15.53-1 1.06-2 1.58-3 .84-.4 2.51-.15 2.71-1.07.29-2.83-2.56-4.89-2.85-7.67a38.37 38.37 0 00-4.26-10.81c-2-4.44-5-8.38-6.59-13-.42-2.71 1.77.74 1.82 2 1.55 3.54 3.83 6.72 5.43 10.25a41.72 41.72 0 013.84 8.93 26.22 26.22 0 003.35 8.33c.27 1.19 0 2.12 1 2.23.47 1.09-1.8.54-.9 2.21.26 1-.28 5-1.06 2.75.07-1.86.94-4.88-1.71-3.45-.71.61-1 1.78-1.52 2.6-.45 1.11-2.12 1-1 2.62 1.49 2.21 3.47 4.19 3.86 6.95.31 2.46 2.36 4.12 3.59 6.25 1.34 1.37 2.92 5.59 4.26 4.84.6-2.62-1.7-4.37-2.54-6.65-1.8-3.85-3.43-7.77-5.15-11.66 1.4 1 3.18 1.6 4 3.25 3.2 4.26 6.34 8.56 9.63 12.75 3.44 1.65 1.33-2.64.27-4-2.62-5.3-6.22-10-9.32-15.06-.67-.69-2.83-4-.81-3l10.62 13.1c1.19.82 3.35 1.5 2.64-.53-3-5.55-6.91-10.58-10.29-15.92-3.53-5-6.53-10.4-9.71-15.67 1.67-1.35 3.86 2 5.72 2.48a37.85 37.85 0 018.07 6.05c4.1 3.57 8.05 7.35 12.32 10.72 2.12 1.16 3.78 3.2 6.07 4 0-.77-2.34-3.66-1.34-3.64a39.37 39.37 0 016.87 2.78c1.49.73 6.13 2.47 3.8-.55-.74-1.51-4.26-2.33-3.69-4 .66-.35 1.72.76 2.53 1a16.1 16.1 0 006.09 1.93c3.13-.14 1.17-3.4-.95-3.42-4.84-2.58-9.64-5.24-14.46-7.85 1-2 4.26 1.19 6.15 1.08 1.1-.35 5.15.48 3.73-1.43-.6-.73-1.84-.75-2.7-1.2-6.6-2.39-13.22-4.76-19.81-7.17-2.82-1.89-5.68-3.73-8.51-5.6.43-1.73 3.27.5 4.68.33a28.59 28.59 0 007.52 1.14c1.65 0 5.11.47 5.71.19-1.1-.59-5.91-2-3.16-2.73 1.38-.09 5.71-.17 2-.31-2.63-.27-5.36-.18-7.9-.88.33-.93 1.64-.58 3.35-.4 1.87.64 5.65-.45 6.38 1.11 1.85.6 5.11-.17 7.49 0 3.3-.29 6.93.16 10-.65 1.08-1.68 4.3-2.23 4.24-4.41-.21-2-.24-4.1-.57-6.09-.69-.75-.83-2.27-2-2.34a51.45 51.45 0 01-9.03-2.47c-6.15-.15-12.33-.09-18.46-.46-2-.13-4.35 1.67-6.64 1.54-3.53.36-7.13.07-10.55 1.16-1.32 1-3.15-.46-1-.72a29.32 29.32 0 018.06-1.13 21.72 21.72 0 008.18-1.44c1.58-1.08 1.93.75 2.24-1.25 1.45-.55 6.1-.16 5-1.69-5.72.2-11.46.27-17.19.37-2.06-.2-4.69 1.07-6.73 2-2.39 1-.42-1.45 1.06-1.52 2.54-1.5 5.7-1.13 8.16-2.76 3.85-1.8 7.47-4.07 11.22-6 1-.86 3.69-2.21.82-2.49-2.25-.52-4.66.78-7 .81-3.08.54 0-2.14 1.16-2.66 3.59-1.85 7.11-3.87 10.55-6 1.09-.83 4.3-1.4 3.27-2.79-2.92 1-5.8 2.37-8.78 3.18-1 .24-5.59.81-3.33-1 4.4-2.9 8.72-5.91 13.08-8.86 1.45-2 .4-2-1.35-1.2-2 .61-3.52 2.26-5.39 3.22-.65 1.13-4.26 2.09-2.34.13 1.94-1.69 3.84-3.44 5.87-5 1-1.43 2.08-4.83-.71-3.23-1.79.95-4.1 1.09-5.36 2.84-2.21 2.3-4.46 4.58-6.65 6.89-1.6-1.5 2.54-3.15 3.05-4.74 1.79-2.06 3.68-4.06 5.29-6.25.34-1.81.42-3.08-1.41-1.82l-2.67 1.15c.27 1.86-3.68 3.8-4.93 5.64-2.12 1.81-5 2.57-6.87 4.73-1.49-1.59 2.61-2.8 3.67-3.74 3-1.45 5-4.18 7.4-6.38-2.63.53-5.66.42-7.19 3-4 3.78-7.85 7.7-11.92 11.36-5 3.45-10 6.82-15.1 10-2.32.94-5.63.17-6.74 3-1.94 2.73-4.25 5.18-6.42 7.74a9.93 9.93 0 016.65 1.09c2 .71 3.75 2.11 5.69 3-.44 1.93-3.09 3.39-5.19 3-1.31 0-2.49-.92-3.76-1.3.13-1.52 1.41-.29 2.27-.08a4.27 4.27 0 005.21-.94c-.65-1.33-4.08-2.67-6.08-3.41-1.81-1.09-3.88-.34-5.85-.32-2.32.53.65-1.53 1-2.33a103.15 103.15 0 007.26-9c-.17-2.33 2.42-4 3.28-6.14 2.54-3.73 3.85-8.14 5.79-12.2.83-1.69.4-3.67.62-5.5-.06-1 .29-2.08-.06-3-1.81 3.32-3.66 6.64-5.39 10-2.14.12-.22-3.26.39-4.14 1.64-3.32 3.49-6.58 5-9.92 0-1.4.09-2.8.13-4.19-1.38-1.21-2.08 2.89-3.18 3.85-2.4 4-4.62 8.14-7.12 12.06-.25 1.33-2.9 2.29-1.84.41 3.58-6.58 7.26-13.14 10.93-19.65 1.47-2.62 1-5.67 1.21-8.54-1.41-2.24-2.4 1.2-3.53 2.09-1.45 1.8-2 4.16-3.1 6.18-1.81 3.93-3.68 7.82-5.52 11.73-2-.85 1.19-3.91 1.22-5.64q2.64-6.82 5.26-13.65c-.88-1.83-2.85 3-3.78 4.1-1.67 3.74-3.61 7.35-5.46 11-2-.87 1.21-3.9 1.12-5.56 1-2.76 2.22-5.5 3.14-8.23-.14-1.08 1.34-3.75.03-3.8zM127.36 69c.46 1.81-2.28 2.64-3.41 4.05-1.42.53-6.48 1.77-4.3 2.91 1.44-.76 2.89-1.52 4.32-2.29 1.84 1.75 4.63 3.62 4.41 6.29-1.75.44-1-3.43-3.08-3.79-1-1.66-2.18-1.24-3.47-.32-1 .55-2.08 1.07-3.09 1.65-1.72-2.35.19-4.25 2.66-4.53s3.88-2.49 5.73-3.91h.05zm13 5.07c.17 2-3.44 1.15-4.42 2.88-1.57.77-3.16 3.1-4.57 3.08-1.55-.3 1.87-1.8 2.41-2.64 2.02-1.59 4.03-3.04 6.63-3.33zm16.73 8l-47.27 2c2.14.81 4.42 1.32 6.23 2.8 2.34.82 2.45 3.5 3.13 5.52.06 1.3-1.06 5.44-2.24 4.56.48-1.91 2.17-4.26.74-6.45-.19-2.4-2.68-3.07-4.37-4.22l-3.81-1.36zm60.24.23c4.35.18 8.73.37 13 .79.48.5-.87.53-.67.8-5.59-.25-11.19-.93-16.79-.47-2.62-.34-4.91 1.67-7.57 1.1-1.41.28-4.67-.48-2.44-1.07a13.89 13.89 0 007.5-.77c-44.92 1.6-42.54 1.87-40.25 1.63zm-53.9 5.7a88.9 88.9 0 0013.53 1c2.86.16 6.21-.13 8.78.33-.43 1.9-4.42.06-6.13.63a98.52 98.52 0 01-15.07-.96c-.97 0-1.27-.11-1.11-1zm4.86 5c1.85 1.92 4.49 2.27 7.15 1.84 3.13-.21 6.33.64 9.37-.52 2.64-.25-.19 1.48-1.57 1.31-3.07.64-6.2-.21-9.3.18-2.47.87-4.5-1.21-6.27-1.67a7.2 7.2 0 01-4.29.84h-6.47c-.44-1.44 1.22-.78 2.08-.92h6.47a16.8 16.8 0 012.83-1.06zm-88.11 2.9c2.25.93-1.82 3.15-1.16 4.62.1 1.53.28 2.62 1 .5.33-1 .64-2 1-3a4.3 4.3 0 003.83 2.35c.74 1.26 1.09 4.13 1.87 1.48A18.71 18.71 0 0189 97.82c1.66 1-.23 4.33.25 6.06-.14 2.73.44 5.46.06 8.19.24 1.63-1.37 5.78 1.53 3.8 1-.48 1.13-1.88 1.74-2.78 1.11-2.14.7-4.75 1.42-7 2.15-.55.2 6 2.27 3.9.6-2.21-1-4.07-1.21-6.51v-4.35c1.44-.44.78 1.22.92 2.08a10.37 10.37 0 00.83 5.07c2.37 1.27 2-3.13 3.87-4 2-.82.9-5.1 3-4.64a10.61 10.61 0 01-3.48 6.62c-.75 1.25-1.1 4.29-3.23 3.06 1.55 1.59-.21 4.92-2.12 4.36-.42-1.41-.46-3.06-.68-.65-.07 2-1.48 3.6-2.2 5.42-1.74 1-4.87 2-3.73-1.24a56.45 56.45 0 000-10.4c0-1.14.58-4.72 0-4-.8 1.62-1.56 3.26-2.36 4.89-1-1.49-.6-5-2.94-4.63-1.3-.26-1.76-1.81-2.08.29-.58.63-1.3 4.11-2.33 2.54-.26-1.92-.1-4.89-2.28-2.56-.41-1.56-.79-3.12-1.18-4.68 1.29-.78 1.06 1 1.4 1.79-.07 2.65 2.76.07 3.09-1.3zm36.14 11.69c2.46 5 5.06 9.9 7.7 14.8 1.42 3.47 3.14 6.87 3.75 10.61-.57 1.77 3.62 4.18 1.57 4.64-2.25-1.76-2.49-4.56-3.11-7.14a72.14 72.14 0 00-6-13.2c-1.7-3-3.15-6.17-4.73-9.25zm-5 5.44c2.35.27-2.14 2.71.78 3 1.52.24 1.13 2.38 2.5 2.74 3.45.2-.38 5.11 3.17 4.39 1.7 1.34-.09 4.8 2.58 5.69 2.22 1.07 1.59 3.69 2.63 5.52.24 1.39 1 1.18 2 .49.72-.47 2.15-1.21 1.88.1l-3.75 1.86a17 17 0 01-2.1-6.1c-2-1.47-3.72-3.11-3.42-5.79.47-2.06-3.45 0-2.42-2.55 1.36-2.64-1.68-2.3-2.31-4.07-.17-1.77-2.83-1.48-3-3 .45-.82 1-1.51 1.44-2.31zm-14.1 25.42c-.39 1.15-4.08 4.59-1.35 2.41 1.41-.85 1.61-.3 1.36-2.19v-.22zm-.56 8.18c2.67.46-3.31 3-2 3.09.78-.57 2.46-.5 1.59.49l-3.89 1.19c-1-2.07 3.28-3.1 4.29-4.72zm.28 8.83c2.19.07-1.2 2.28-1.82 3.23-2.39 1.94 2.84-1.93 2.42 0-1 .7-4.63 3-5.89 1.72 1.57-1.79 3.82-2.96 5.29-4.95zm-13.14 7.9c-.12 1.69-.44 3.81 1.18 1.71 1.8-1.07-.19-1.07-1.18-1.71zm-.8 20.4c0 1.58-.64 4.1 1.45 2.12 1.55-.67 2.7-1.89.22-1.86zm-.39 17.29c1.39.84 4.94 1.06 4.85 2.64-1-.15-4.68-1-4.85-2.2zm-6.34 58.24c-5.44.15-10.91 0-16.34.16-2.35 1.5-5.06 2.48-6.9 4.65-1.39 1.95 2.33 3.62 4.25 3.18 1 .65 4.41-.61 3.82 1.2-.9 2.62-3.84 3.08-5.78 4.66-1.2 2.49 1.64 5.57 3.78 3.2 1.26-1.2 2.36-1.34 3.25.15 1.48 1.16-1 4.29 2.21 4.12 2.12-1.07 4-2.94 6-4.35 1.33-1.69 3.47-3.57 4.3-.38 1.94 1.66 4.38 1.25 6.7 1.1 2.84-.1 6-.48 7.62-3.17 2.66-1.27 5.2 1.33 6.54 3.41 1.8 1.18 4.79 1.34 3.88-1.65-.71-2-.1-4 2.26-2.77 2.57.49 4.57 2.45 7 3.13-.15-1.88-.17-5.42 2.44-3a22.13 22.13 0 007.15 3.85c.1-1.11-.2-2.33.16-3.37 1.71-1.75 5.13 3.4 4.38-.53.36-1.35-1.49-4.33.39-4.12a38.73 38.73 0 008.12 2.35c-1.84-3.06-5.12-4.73-7.91-6.78a21.16 21.16 0 00-8.49-1.95c-3.18-.29-6.44-.16-9.58-.63-1.34-1-1.12-.1-.87.18-1.88 2.69-5.23 2.17-8.07 2.68a45.35 45.35 0 00-11.73 2.19c-2.6.34-4.9-1.95-6.77-3.55a26.3 26.3 0 01-1.79-3.96z" fill="none" stroke="#000" stroke-linecap="round" stroke-linejoin="round" stroke-width="2" fill-rule="evenodd"/></svg>