<svg xmlns="http://www.w3.org/2000/svg" width="500" height="300"><path fill="#100058" d="M0 0h500v300H0z"/><path d="M174.92 98.83a11.32 11.32 0 01-2.21 2.44 6.75 6.75 0 01-2.35 1.26 5.3 5.3 0 01-2.44.13 6.72 6.72 0 01-2.44-1l1.62-2.34a3.52 3.52 0 001.57.5 3.64 3.64 0 001.53-.21 4.63 4.63 0 001.41-.82 6.37 6.37 0 001.22-1.35 6.78 6.78 0 00.8-1.49 4.1 4.1 0 00.28-1.4 2.63 2.63 0 00-.23-1.2 2.14 2.14 0 00-.75-.89 2 2 0 00-1.13-.39 2.48 2.48 0 00-1.22.36 9.94 9.94 0 00-1.51 1.08c-.56.48-1.21 1.06-2 1.76a13.66 13.66 0 01-2 1.59 5.94 5.94 0 01-1.84.83 3.91 3.91 0 01-1.73 0 4.59 4.59 0 01-1.69-.76 4.52 4.52 0 01-1.42-1.57 4.68 4.68 0 01-.54-2 6.74 6.74 0 01.36-2.32 9.53 9.53 0 011.25-2.46 10.43 10.43 0 011.91-2.12 6.51 6.51 0 012.12-1.18 4.87 4.87 0 012.21-.18 5.57 5.57 0 012.22.86l-1.65 2.37Q163.69 87 161.55 90a6.07 6.07 0 00-.75 1.41 4 4 0 00-.27 1.29 2.5 2.5 0 00.22 1.07 1.92 1.92 0 00.66.78 1.53 1.53 0 00.76.28 1.94 1.94 0 00.93-.17 5.46 5.46 0 001.16-.68 17.33 17.33 0 001.48-1.23l1.44-1.3c.48-.41.95-.79 1.41-1.12a9.79 9.79 0 011.39-.83 4.41 4.41 0 011.42-.41 3.94 3.94 0 011.48.1 5 5 0 011.56.75 4.91 4.91 0 011.56 1.73 5.15 5.15 0 01.58 2.17 6.72 6.72 0 01-.36 2.45 9.48 9.48 0 01-1.3 2.54zM172.75 72.58a8.84 8.84 0 012.93-2 8 8 0 013.25-.59 8.55 8.55 0 013.3.83 11 11 0 013.12 2.24 11.26 11.26 0 012.24 3.11 8.48 8.48 0 01.84 3.3 7.67 7.67 0 01-.59 3.25 9 9 0 01-2 3 9.12 9.12 0 01-3 2 7.72 7.72 0 01-3.24.58 8.49 8.49 0 01-3.29-.85 11 11 0 01-3.12-2.26 10.91 10.91 0 01-2.19-3.12 8.43 8.43 0 01-.81-3.32 7.93 7.93 0 01.6-3.24 8.67 8.67 0 011.96-2.93zM184 83.93a5.24 5.24 0 001.28-2 4.82 4.82 0 00.28-2.2 6.46 6.46 0 00-.7-2.3 10 10 0 00-3.86-3.86 6.64 6.64 0 00-2.29-.73 5.12 5.12 0 00-2.2.24 5.19 5.19 0 00-2 1.26 5.28 5.28 0 00-1.28 2 5 5 0 00-.29 2.21 6.45 6.45 0 00.7 2.31 9.38 9.38 0 001.67 2.24 9 9 0 002.25 1.68 6.63 6.63 0 002.3.71 5.12 5.12 0 002.2-.27 5.3 5.3 0 001.94-1.29zM199.65 74.42a11.39 11.39 0 01-2.41 1.25 6.32 6.32 0 01-2.06.41 4.44 4.44 0 01-1.76-.3 5.92 5.92 0 01-1.53-.9 9.14 9.14 0 01-1.35-1.36 19.22 19.22 0 01-1.23-1.68l-5.72-8.65 2.49-1.65 5.72 8.66a11.08 11.08 0 001.57 1.92 4.15 4.15 0 001.54.93 2.92 2.92 0 001.58 0 5.88 5.88 0 001.72-.81 6.6 6.6 0 001.4-1.21 2.87 2.87 0 00.64-1.42 3.86 3.86 0 00-.23-1.78 10.41 10.41 0 00-1.2-2.29l-5.72-8.64 2.48-1.64 5.72 8.65c.35.52.68 1.06 1 1.61a9.24 9.24 0 01.74 1.69 6 6 0 01.3 1.76 4.41 4.41 0 01-.33 1.8 6.52 6.52 0 01-1.16 1.82 11 11 0 01-2.2 1.83zM214 49.69l-5.2 2.24L214.86 66l-2.73 1.18-6.08-14.06-5.16 2.24-1-2.39 13.09-5.66zM235.64 59.91l-2.89.68-1.88-8-8.2 1.94 1.89 8-2.91.69-4.13-17.44 2.91-.69 1.65 7 8.19-1.93-1.65-7 2.89-.68zM249.87 41l5.81.4c3.07.21 5.32 1.1 6.77 2.66s2.06 3.83 1.86 6.81q-.63 9-9.85 8.41l-5.82-.4zm1.93 15.52l2.78.19q3.61.24 5-1.34a5.71 5.71 0 001.13-2 11 11 0 00.5-2.72 9.84 9.84 0 00-.11-2.65 5.47 5.47 0 00-.86-2.05q-1.15-1.74-4.79-2l-2.78-.19zM280.37 64.08l-3-.78-.54-5.25-6.83-1.77-2.92 4.36-2.93-.76L275 44.19l3.18.82zm-9-9.9l5.29 1.37-.74-7.85-.24-.07zM294.93 70.85l-3.32-1.53L289.87 59l-3.09 1.08-2.67 5.8-2.71-1.24 7.48-16.29 2.72 1.25-3.55 7.72 10.68-4.44 3.41 1.57-9.49 3.8zM312.87 61.21a8.86 8.86 0 012.44 2.57 7.89 7.89 0 011.12 3.1 8.65 8.65 0 01-.27 3.4 10.89 10.89 0 01-1.69 3.44 11.09 11.09 0 01-2.69 2.73 8.34 8.34 0 01-3.11 1.37 7.7 7.7 0 01-3.31 0 9.32 9.32 0 01-3.26-1.51 8.94 8.94 0 01-2.48-2.59 7.68 7.68 0 01-1.11-3.09 8.48 8.48 0 01.29-3.4 11.33 11.33 0 011.71-3.45 10.89 10.89 0 012.71-2.78 8.28 8.28 0 013.13-1.35 8 8 0 013.3 0 8.9 8.9 0 013.22 1.56zm-9.32 13a5.31 5.31 0 002.13.94 4.91 4.91 0 002.22-.09 6.4 6.4 0 002.15-1.06 9 9 0 001.95-2 9.07 9.07 0 001.28-2.46 6.45 6.45 0 00.34-2.37A4.81 4.81 0 00313 65a5.18 5.18 0 00-1.56-1.72 5.35 5.35 0 00-2.14-.94 5.25 5.25 0 00-2.23.09 6.35 6.35 0 00-2.16 1.08 9.62 9.62 0 00-3.22 4.49 6.32 6.32 0 00-.32 2.39 4.93 4.93 0 00.63 2.12 5.28 5.28 0 001.55 1.7zM330.79 81.32l-3.93-4.07-11 10.65-2.07-2.14 11-10.65-3.91-4 1.87-1.81 9.91 10.26zM329.18 105.58l-1.76-2.58 3.06-4.31-4-5.84-5.07 1.36-1.71-2.5 18.53-4.64 1.85 2.7zm-.26-13.39l3.08 4.52 4.61-6.39-.14-.21zM158.89 161.13l-.16-6.19-16.77.44-.08-3.26 16.77-.43-.16-6.17 2.85-.07.4 15.61zM146.12 182l-.7-3.18 8.74-1.93-2-9-8.74 1.93-.7-3.2 19.16-4.23.71 3.19-7.68 1.7 2 9 7.68-1.7.7 3.18zM154.37 202l-6.05-13.56 17.93-8 5.86 13.14-2.58 1.15-4.53-10.2-4.83 2.16 4.23 9.51-2.6 1.16-4.24-9.51-5.33 2.38 4.77 10.58zM169.49 223.51a12.5 12.5 0 01-2-3 7.37 7.37 0 01-.75-2.83 5.65 5.65 0 01.48-2.63 7.32 7.32 0 011.67-2.35l2.08 2.31a4.12 4.12 0 00-.93 1.55 4 4 0 00-.16 1.68 5.33 5.33 0 00.52 1.71 7.24 7.24 0 001.13 1.65 7.42 7.42 0 001.39 1.22 4.64 4.64 0 001.42.66 2.87 2.87 0 001.33 0 2.29 2.29 0 001.15-.58 2.18 2.18 0 00.7-1.1 2.7 2.7 0 00-.08-1.39 10.84 10.84 0 00-.77-1.88c-.37-.72-.83-1.56-1.38-2.54a16.21 16.21 0 01-1.19-2.56 7 7 0 01-.42-2.17 4.14 4.14 0 01.39-1.86 5 5 0 011.23-1.6 4.88 4.88 0 014.33-1.18 7.09 7.09 0 012.38 1 10.57 10.57 0 012.31 2 11 11 0 011.77 2.57 6.75 6.75 0 01.73 2.55 5.45 5.45 0 01-.36 2.4 6.28 6.28 0 01-1.48 2.16l-2.15-2.3q2.16-2.41-.58-5.46a7.31 7.31 0 00-1.31-1.17 4.54 4.54 0 00-1.3-.6 2.73 2.73 0 00-1.2 0 2.12 2.12 0 00-1 .51 1.72 1.72 0 00-.49.74 2.17 2.17 0 000 1 5.92 5.92 0 00.43 1.41 16.4 16.4 0 00.94 1.89c.35.64.69 1.26 1 1.87a17.87 17.87 0 01.85 1.78 10.9 10.9 0 01.53 1.69 5 5 0 01.09 1.62 4.26 4.26 0 01-.49 1.54 5.45 5.45 0 01-1.19 1.48 5.3 5.3 0 01-2.21 1.21 5.66 5.66 0 01-2.46.07 7.58 7.58 0 01-2.52-1 10.56 10.56 0 01-2.43-2.07zM185.39 237.94a12.86 12.86 0 01-2.19-2 7 7 0 01-1.19-2 4.86 4.86 0 01-.34-1.93 6.12 6.12 0 01.35-1.91 9.48 9.48 0 01.89-1.89 20.83 20.83 0 011.27-1.89l6.77-9.13 2.62 1.95-6.76 9.13a11.54 11.54 0 00-1.4 2.33 4.44 4.44 0 00-.38 1.93 3.27 3.27 0 00.57 1.63 6.71 6.71 0 001.49 1.47 6.92 6.92 0 001.77 1 3.09 3.09 0 001.7.12 4.22 4.22 0 001.74-.9 11.05 11.05 0 001.91-2.08l6.77-9.13 2.62 1.94-6.77 9.13c-.41.55-.84 1.09-1.3 1.61a10.61 10.61 0 01-1.46 1.39 6.64 6.64 0 01-1.7 1 5 5 0 01-2 .33 7 7 0 01-2.31-.51 11.71 11.71 0 01-2.67-1.59zM212.14 252.41l-3-1.36-2.46-17.33c-.58 1.31-1.16 2.62-1.74 3.91s-1.17 2.6-1.77 3.91l-2.56 5.6-2.81-1.28L206 228l3 1.39 2.42 17.28c.6-1.31 1.19-2.61 1.76-3.89s1.17-2.58 1.77-3.89l2.56-5.61 2.78 1.27zM225.76 256.52a12.28 12.28 0 01-3.37-1.25 7.37 7.37 0 01-2.24-1.88A5.64 5.64 0 01219 251a7.4 7.4 0 010-2.89l3 .7a3.9 3.9 0 001 3.27 5.25 5.25 0 001.41 1.11 7.16 7.16 0 001.87.69 7.53 7.53 0 001.84.21 4.85 4.85 0 001.54-.28 3 3 0 001.12-.72 2.37 2.37 0 00.6-1.14 2.11 2.11 0 000-1.3 2.78 2.78 0 00-.87-1.1 10.88 10.88 0 00-1.71-1.09c-.71-.38-1.58-.81-2.59-1.29a15.46 15.46 0 01-2.44-1.4 6.89 6.89 0 01-1.59-1.54 4.48 4.48 0 01-.76-1.74 5.06 5.06 0 01.09-2 4.78 4.78 0 011-2.08 5.09 5.09 0 011.85-1.37 7.12 7.12 0 012.5-.58 10.29 10.29 0 013 .27 11.23 11.23 0 012.93 1.09 7 7 0 012.06 1.66 5.51 5.51 0 011.15 2.12 6.29 6.29 0 010 2.6l-3.09-.71c.26-2.15-1-3.53-3.61-4.14a6.47 6.47 0 00-1.74-.19 4.23 4.23 0 00-1.41.25 2.75 2.75 0 00-1 .65 2.2 2.2 0 00-.52 1 1.82 1.82 0 000 .9 2.37 2.37 0 00.55.87 6.33 6.33 0 001.16.9 19.68 19.68 0 001.86 1l1.9.94a18.5 18.5 0 011.72 1 9.71 9.71 0 011.41 1.08 5.05 5.05 0 011 1.27 4.56 4.56 0 01.49 1.54 5.5 5.5 0 01-.13 1.9 5.29 5.29 0 01-1.11 2.25 5.69 5.69 0 01-2 1.48 7.53 7.53 0 01-2.64.63 10.57 10.57 0 01-3.08-.3zM255 259.05l-3.26-.08.23-9-9.22-.23-.22 8.94-3.28-.08.5-19.62 3.27.08-.2 7.86 9.22.23.19-7.86 3.26.09zM264.48 257.92l-3.24.39-2.33-19.49 3.23-.39zM285.9 253l-3.17.87-13-11.74c.4 1.38.79 2.76 1.17 4.12l1.14 4.13 1.62 6-3 .81-5.16-18.94 3.21-.87 12.93 11.72c-.38-1.39-.76-2.76-1.14-4.12s-.76-2.73-1.13-4.11l-1.62-5.95 2.94-.81zM305.47 243.82l-13.25 6.7-8.86-17.52 12.85-6.49 1.27 2.52-9.92 5 2.39 4.73 9.29-4.69 1.28 2.54-9.29 4.7 2.63 5.2 10.34-5.22zM326.28 227.68a12.49 12.49 0 01-2.86 2.18 7.43 7.43 0 01-2.79.89 5.81 5.81 0 01-2.65-.35 7.32 7.32 0 01-2.44-1.56l2.22-2.19a4 4 0 001.59.85 3.86 3.86 0 001.69.08 5.07 5.07 0 001.68-.6 7.07 7.07 0 001.59-1.2 7.61 7.61 0 001.16-1.45 5 5 0 00.59-1.45 3.18 3.18 0 000-1.34 2.45 2.45 0 00-.64-1.11 2.16 2.16 0 00-1.13-.65 2.68 2.68 0 00-1.39.15 10 10 0 00-1.84.86c-.7.4-1.52.9-2.47 1.5a16.45 16.45 0 01-2.5 1.31 6.79 6.79 0 01-2.15.52 4.17 4.17 0 01-1.87-.3 5 5 0 01-1.66-1.15 4.79 4.79 0 01-1.22-2 5 5 0 01-.17-2.29 7.37 7.37 0 01.85-2.43 10.15 10.15 0 011.84-2.39 11 11 0 012.48-1.9 7 7 0 012.51-.85 5.41 5.41 0 012.43.25 6.1 6.1 0 012.22 1.37l-2.26 2.23q-2.5-2.06-5.42.83a6.68 6.68 0 00-1.1 1.37 4.44 4.44 0 00-.54 1.33 2.69 2.69 0 000 1.2 2.21 2.21 0 00.56 1 1.75 1.75 0 00.77.46 2.23 2.23 0 001 0 6.37 6.37 0 001.38-.5 18.92 18.92 0 001.85-1l1.81-1.1a16.48 16.48 0 011.74-.93 10 10 0 011.67-.61 4.88 4.88 0 011.6-.17 4.46 4.46 0 011.57.41 5.48 5.48 0 011.53 1.13 5.31 5.31 0 011.32 2.14 5.65 5.65 0 01.19 2.46 7.7 7.7 0 01-.88 2.57 10.91 10.91 0 01-1.86 2.43zM329.32 196.41l-3.53 5.09 13.78 9.57-1.86 2.67-13.78-9.56-3.51 5.06-2.35-1.62 8.93-12.83zM352.19 186.75l-1.41 3.11-5.77-.39-3.18 7.06 4.18 4-1.36 3-14.94-14.65 1.48-3.27zm-12.37 7.9l2.46-5.47-8.61-.65-.11.25zM340.37 164.81l-1.45 6 16.31 3.94-.77 3.17-16.31-3.92-1.44 6-2.78-.67 3.67-15.18zM358.12 149l-.79 14.83-19.6-1.05.77-14.37 2.82.15-.6 11.11 5.29.28.56-10.39 2.85.15-.56 10.39 5.82.31.63-11.56z" fill="#ffc400"/><circle cx="249.88" cy="150.08" r="47.5" fill="#ffc400"/><path d="M247.34 102.48c-1.09-1.72-2-4.19-.17-6.22 3.14-3.49 3.47-5.27 1.82-9.68s3.56-7.52 3.56-7.52-3.1 5-.39 7.58 1.64 6.13-.93 9.22c-1.6 1.94 0 5 1.49 7 .87 1.14-4.6.86-5.38-.38z" fill="#ffc400"/><path d="M240.75 103.3c-1.31-1.55-2.56-3.87-1-6.13 2.62-3.9 2.7-5.71.46-9.85s2.47-7.93 2.47-7.93-2.37 5.39.67 7.56 2.48 5.83.37 9.26c-1.32 2.14.72 4.9 2.43 6.67 1 1.06-4.45 1.54-5.4.42z" fill="#ffc400"/><path d="M234.34 105c-1.52-1.35-3.07-3.48-1.88-5.93 2.06-4.22 1.89-6-.91-9.81s1.35-8.2 1.35-8.2-1.6 5.66 1.71 7.39 3.27 5.43 1.65 9.12c-1 2.3 1.4 4.75 3.34 6.26 1.17.94-4.17 2.17-5.26 1.17z" fill="#ffc400"/><path d="M228.23 107.63c-1.69-1.12-3.52-3-2.68-5.61 1.45-4.46 1-6.22-2.27-9.59s.19-8.3.19-8.3-.79 5.83 2.72 7.08 4 4.93 2.91 8.8c-.68 2.42 2.05 4.51 4.18 5.74 1.29.73-3.83 2.7-5.05 1.88z" fill="#ffc400"/><path d="M222.55 111.06c-1.83-.88-3.91-2.49-3.44-5.18.82-4.62.15-6.31-3.58-9.18s-1-8.25-1-8.25 0 5.88 3.68 6.63 4.65 4.33 4.11 8.31c-.34 2.5 2.65 4.19 4.94 5.1 1.4.51-3.39 3.21-4.71 2.57z" fill="#ffc400"/><path d="M217.4 115.25c-1.94-.62-4.22-1.92-4.13-4.65.17-4.7-.73-6.27-4.83-8.59s-2.1-8-2.1-8 .85 5.82 4.57 6.06 5.2 3.63 5.22 7.65c0 2.52 3.21 3.78 5.6 4.37 1.44.31-2.94 3.61-4.33 3.16z" fill="#ffc400"/><path d="M212.88 120.12c-2-.35-4.45-1.32-4.73-4-.5-4.67-1.6-6.1-6-7.83s-3.2-7.67-3.2-7.67 1.65 5.65 5.36 5.36 5.66 2.88 6.24 6.86c.37 2.49 3.7 3.29 6.15 3.54 1.5.11-2.38 3.99-3.82 3.74z" fill="#ffc400"/><path d="M209.08 125.56c-2-.06-4.59-.69-5.25-3.33-1.13-4.56-2.42-5.83-7-6.93s-4.23-7.15-4.23-7.15 2.42 5.37 6.06 4.56 6 2.06 7.13 5.93c.71 2.41 4.12 2.74 6.58 2.65 1.47-.06-1.82 4.32-3.29 4.27z" fill="#ffc400"/><path d="M206.08 131.48c-2 .23-4.64 0-5.66-2.57-1.76-4.35-3.22-5.43-7.91-5.88s-5.19-6.5-5.19-6.5 3.14 5 6.64 3.68 6.23 1.21 7.88 4.87c1 2.3 4.47 2.15 6.89 1.71 1.46-.26-1.19 4.53-2.65 4.69z" fill="#ffc400"/><path d="M203.93 137.77c-2 .5-4.6.6-6-1.76-2.35-4.07-3.94-4.94-8.64-4.73s-6-5.71-6-5.71 3.81 4.49 7.09 2.72 6.33.33 8.48 3.73c1.35 2.12 4.72 1.5 7.07.73 1.38-.46-.58 4.65-2 5.02z" fill="#ffc400"/><path d="M202.67 144.29c-1.87.77-4.47 1.23-6.15-.92-2.89-3.7-4.58-4.33-9.22-3.48s-6.78-4.8-6.78-4.8 4.4 3.91 7.4 1.7 6.32-.56 8.92 2.51c1.63 1.92 4.88.83 7.09-.26 1.33-.65.07 4.69-1.26 5.25z" fill="#ffc400"/><path d="M202.34 150.92c-1.75 1-4.26 1.84-6.22 0-3.38-3.26-5.15-3.66-9.61-2.16s-7.39-3.82-7.39-3.82 4.9 3.27 7.56.66 6.18-1.43 9.19 1.24c1.88 1.67 4.95.14 7-1.24 1.21-.88.74 4.58-.53 5.32z" fill="#ffc400"/><path d="M202.93 157.53c-1.59 1.26-4 2.42-6.16.82-3.8-2.76-5.61-2.91-9.83-.81s-7.84-2.75-7.84-2.75 5.31 2.56 7.58-.4 5.92-2.28 9.27 0c2.09 1.39 4.92-.55 6.75-2.21 1.09-1.03 1.38 4.44.23 5.35z" fill="#ffc400"/><path d="M204.44 164c-1.41 1.46-3.58 2.94-6 1.66-4.15-2.2-6-2.09-9.84.58s-8.15-1.64-8.15-1.64 5.61 1.79 7.45-1.45 5.54-3.08 9.17-1.34c2.27 1.09 4.8-1.22 6.38-3.12.95-1.13 2 4.25.99 5.31z" fill="#ffc400"/><path d="M206.83 170.19c-1.19 1.65-3.14 3.42-5.7 2.48-4.42-1.6-6.19-1.24-9.67 1.94s-8.29-.49-8.29-.49 5.8 1 7.17-2.47 5.06-3.82 8.9-2.6c2.39.77 4.58-1.88 5.88-4 .78-1.23 2.56 3.95 1.71 5.14z" fill="#ffc400"/><path d="M210.06 176c-.95 1.8-2.63 3.82-5.3 3.25-4.6-1-6.3-.37-9.3 3.27s-8.28.67-8.28.67 5.88.18 6.75-3.45 4.49-4.49 8.45-3.81c2.48.42 4.28-2.5 5.27-4.76.6-1.36 3.09 3.52 2.41 4.83z" fill="#ffc400"/><path d="M214.06 181.28c-.68 1.92-2.07 4.15-4.79 4-4.69-.32-6.29.51-8.76 4.53s-8.11 1.82-8.11 1.82 5.86-.64 6.22-4.35 3.81-5.07 7.83-5c2.52.08 3.89-3.07 4.56-5.44.41-1.42 3.55 3.06 3.05 4.44z" fill="#ffc400"/><path d="M218.77 186c-.42 2-1.48 4.4-4.2 4.59-4.69.33-6.16 1.38-8 5.7s-7.78 2.93-7.78 2.93 5.71-1.45 5.55-5.18 3.07-5.55 7.07-6c2.5-.28 3.42-3.58 3.76-6 .16-1.51 3.9 2.49 3.6 3.96z" fill="#ffc400"/><path d="M224.08 190c-.13 2-.85 4.56-3.52 5.12-4.6 1-5.91 2.23-7.17 6.77s-7.29 4-7.29 4 5.45-2.23 4.77-5.9S213.14 194 217 193c2.44-.62 2.88-4 2.88-6.48.03-1.47 4.29 1.97 4.2 3.48z" fill="#ffc400"/><path d="M229.89 193.16c.15 2-.21 4.64-2.77 5.57-4.41 1.61-5.54 3-6.16 7.7s-6.66 5-6.66 5 5.08-3 3.9-6.51 1.42-6.18 5.15-7.71c2.32-.95 2.29-4.39 1.94-6.82-.21-1.51 4.49 1.31 4.6 2.77z" fill="#ffc400"/><path d="M236.09 195.53c.43 2 .44 4.62-2 5.9-4.15 2.21-5.07 3.76-5 8.48s-5.91 5.84-5.91 5.84 4.62-3.65 3-7 .55-6.32 4-8.35c2.17-1.27 1.66-4.66 1-7-.44-1.4 4.6.7 4.91 2.13z" fill="#ffc400"/><path d="M242.56 197c.71 1.91 1.08 4.51-1.12 6.12-3.8 2.76-4.49 4.43-3.8 9.09s-5 6.61-5 6.61 4.07-4.26 2-7.33-.34-6.34 2.82-8.83c2-1.56 1-4.85 0-7.1-.69-1.34 4.6.08 5.1 1.44z" fill="#ffc400"/><path d="M249.18 197.58c1 1.79 1.7 4.31-.27 6.21-3.37 3.26-3.83 5-2.49 9.53s-4.07 7.25-4.07 7.25 3.43-4.78.92-7.53-1.22-6.23 1.56-9.14c1.74-1.82.32-4.94-1-7-.78-1.28 4.66-.61 5.35.68z" fill="#ffc400"/><path d="M255.81 197.22c1.2 1.63 2.28 4 .6 6.19-2.89 3.7-3.09 5.5-1.14 9.78s-3 7.75-3 7.75 2.74-5.22-.13-7.59-2.07-6 .27-9.27c1.47-2-.37-4.93-2-6.82-.94-1.13 4.53-1.26 5.4-.04z" fill="#ffc400"/><path d="M262.32 195.94c1.42 1.45 2.83 3.68 1.46 6-2.35 4.07-2.3 5.88.23 9.86s-1.92 8.08-1.92 8.08 2-5.54-1.19-7.49-2.88-5.65-1-9.22c1.17-2.22-1.06-4.83-2.9-6.48-1.11-.94 4.3-1.8 5.32-.75z" fill="#ffc400"/><path d="M268.6 193.76c1.6 1.25 3.3 3.26 2.28 5.79-1.76 4.35-1.46 6.14 1.6 9.72s-.78 8.28-.78 8.28 1.2-5.77-2.21-7.26-3.65-5.19-2.29-9c.84-2.37-1.73-4.64-3.77-6-1.23-.82 4.01-2.42 5.17-1.53z" fill="#ffc400"/><path d="M274.51 190.74c1.76 1 3.72 2.76 3.06 5.41-1.13 4.56-.59 6.28 2.94 9.41s.38 8.3.38 8.3.39-5.88-3.2-6.88-4.33-4.63-3.52-8.57c.51-2.47-2.35-4.36-4.57-5.44-1.33-.64 3.63-2.97 4.91-2.23z" fill="#ffc400"/><path d="M279.94 186.92c1.88.75 4.07 2.22 3.79 4.93-.49 4.67.29 6.3 4.21 8.91s1.54 8.17 1.54 8.17-.44-5.88-4.13-6.37-4.94-4-4.68-8c.16-2.51-2.93-4-5.28-4.74-1.39-.46 3.19-3.44 4.55-2.9z" fill="#ffc400"/><path d="M284.79 182.38c2 .48 4.34 1.63 4.43 4.36.17 4.69 1.17 6.2 5.42 8.23s2.66 7.88 2.66 7.88-1.25-5.76-5-5.73-5.44-3.26-5.75-7.27c-.18-2.51-3.46-3.54-5.88-4-1.44-.22 2.69-3.85 4.12-3.47z" fill="#ffc400"/><path d="M289 177.22c2 .2 4.53 1 5 3.69.81 4.63 2 6 6.5 7.4s3.73 7.43 3.73 7.43-2-5.52-5.73-5-5.84-2.47-6.7-6.4c-.53-2.46-3.92-3-6.38-3.11-1.52-.03 2.07-4.16 3.58-4.01z" fill="#ffc400"/><path d="M292.36 171.52c2-.08 4.63.37 5.47 3 1.45 4.47 2.83 5.64 7.47 6.42s4.73 6.84 4.73 6.84-2.79-5.19-6.36-4.13-6.13-1.64-7.53-5.41c-.87-2.36-4.3-2.45-6.75-2.19-1.47.12 1.51-4.47 2.97-4.53z" fill="#ffc400"/><path d="M294.94 165.4c2-.36 4.63-.28 5.83 2.17 2.06 4.23 3.59 5.2 8.3 5.32s5.63 6.11 5.63 6.11-3.48-4.75-6.88-3.21-6.3-.77-8.21-4.31c-1.19-2.21-4.6-1.83-7-1.22-1.42.37.89-4.6 2.33-4.86z" fill="#ffc400"/><path d="M296.65 159c1.93-.63 4.55-.92 6.07 1.34 2.63 3.9 4.28 4.65 9 4.12s6.43 5.27 6.43 5.27-4.11-4.22-7.26-2.22-6.34.12-8.73-3.12c-1.49-2-4.81-1.17-7.09-.24-1.41.53.19-4.71 1.58-5.15z" fill="#ffc400"/><path d="M297.45 152.39c1.82-.89 4.37-1.54 6.2.49 3.14 3.49 4.88 4 9.44 2.82s7.1 4.33 7.1 4.33-4.66-3.61-7.5-1.19-6.26 1-9.08-1.88c-1.75-1.8-4.92-.49-7.05.75-1.28.74-.43-4.71.89-5.32z" fill="#ffc400"/><path d="M297.32 145.76c1.68-1.15 4.11-2.14 6.2-.39 3.6 3 5.39 3.29 9.75 1.49s7.63 3.29 7.63 3.29-5.11-2.92-7.59-.13-6.06 1.86-9.25-.6c-2-1.54-4.95.2-6.88 1.73-1.18.91-1.07-4.57.14-5.39z" fill="#ffc400"/><path d="M296.27 139.2c1.5-1.37 3.78-2.69 6.09-1.25 4 2.49 5.79 2.51 9.85.12s8 2.2 8 2.2-5.47-2.18-7.53.93-5.75 2.68-9.25.69c-2.18-1.25-4.87.89-6.57 2.67-1.01 1.06-1.68-4.37-.59-5.36z" fill="#ffc400"/><path d="M294.31 132.85c1.3-1.56 3.37-3.19 5.86-2.08 4.3 1.91 6.09 1.68 9.78-1.25s8.24 1.06 8.24 1.06-5.72-1.4-7.33 2-5.32 3.46-9.05 2c-2.34-.93-4.7 1.56-6.15 3.55-.86 1.14-2.28-4.13-1.35-5.28z" fill="#ffc400"/><path d="M291.5 126.84c1.06-1.72 2.89-3.63 5.51-2.87 4.52 1.29 6.26.81 9.5-2.61s8.31-.09 8.31-.09-5.85-.59-7 3-4.78 4.17-8.69 3.22c-2.45-.6-4.44 2.2-5.59 4.37-.67 1.27-2.81-3.77-2.04-5.02z" fill="#ffc400"/><path d="M287.87 121.28c.82-1.86 2.36-4 5.06-3.61 4.65.65 6.31-.07 9.05-3.91s8.21-1.25 8.21-1.25-5.88.24-6.5 3.91-4.16 4.79-8.16 4.4c-2.5-.25-4.09 2.79-4.93 5.11-.5 1.39-3.32-3.31-2.73-4.65z" fill="#ffc400"/><path d="M283.5 116.28c.55-2 1.78-4.28 4.51-4.29 4.7 0 6.24-.94 8.42-5.12s8-2.38 8-2.38-5.79 1.05-5.89 4.78-3.45 5.32-7.48 5.48c-2.51.1-3.65 3.34-4.16 5.75-.34 1.5-3.79-2.81-3.4-4.22z" fill="#ffc400"/><path d="M278.49 111.93c.27-2 1.16-4.49 3.86-4.87 4.65-.65 6-1.8 7.63-6.24s7.55-3.47 7.55-3.47-5.59 1.85-5.17 5.55-2.68 5.75-6.64 6.47c-2.47.45-3.16 3.82-3.33 6.28-.09 1.47-4.1-2.26-3.9-3.72z" fill="#ffc400"/><path d="M272.91 108.33c0-2 .53-4.61 3.15-5.36 4.52-1.3 5.74-2.63 6.68-7.25s7-4.48 7-4.48-5.28 2.6-4.35 6.21-1.85 6.07-5.67 7.34c-2.39.79-2.6 4.21-2.42 6.67.11 1.47-4.38-1.67-4.39-3.13z" fill="#ffc400"/><path d="M266.89 105.53c-.29-2-.12-4.63 2.37-5.74 4.29-1.91 5.32-3.41 5.61-8.11s6.3-5.41 6.3-5.41-4.86 3.31-3.44 6.76-1 6.27-4.59 8c-2.26 1.11-2 4.54-1.47 6.94.33 1.5-4.57-.97-4.78-2.44z" fill="#ffc400"/><path d="M260.53 103.61c-.56-2-.76-4.58 1.56-6 4-2.49 4.79-4.11 4.42-8.8s5.49-6.27 5.49-6.27-4.36 4-2.47 7.17-.1 6.35-3.43 8.61c-2.07 1.42-1.33 4.77-.48 7.09.51 1.38-4.62-.41-5.09-1.8z" fill="#ffc400"/><path d="M254 102.58c-.84-1.85-1.4-4.43.69-6.18 3.6-3 4.18-4.74 3.16-9.34s4.57-6.94 4.57-6.94-3.77 4.53-1.45 7.45.78 6.3-2.2 9c-1.86 1.7-.65 4.91.51 7.09.72 1.34-4.7.26-5.28-1.08z" fill="#ffc400"/></svg>