<svg xmlns="http://www.w3.org/2000/svg" width="600" height="315.79"><path fill="#bf0a30" d="M0 0h600v315.79H0z"/><path fill="#fff" d="M0 24.29h600v24.29H0zM0 72.87h600v24.29H0zM0 121.46h600v24.29H0zM0 170.04h600v24.29H0zM0 218.62h600v24.29H0zM0 267.21h600v24.29H0z"/><path d="M0 0v170h240.21V0z" fill="#002868" fill-rule="evenodd"/><path d="M209 20.62h7.12l2.19-6.76 2.2 6.76h7.11l-5.75 4.18 2.2 6.77-5.76-4.18-5.75 4.18 2.2-6.77zM181 20.62h7.12l2.19-6.76 2.2 6.76h7.11l-5.75 4.18 2.2 6.77-5.76-4.18-5.75 4.18 2.2-6.77zM153 20.62h7.11l2.2-6.76 2.19 6.76h7.12l-5.76 4.18 2.2 6.77-5.75-4.18-5.76 4.18 2.2-6.77zM125 20.62h7.11l2.2-6.76 2.19 6.76h7.12l-5.76 4.18 2.2 6.77-5.75-4.18-5.76 4.18 2.2-6.77zM96.94 20.62h7.11l2.2-6.76 2.19 6.76h7.12l-5.76 4.18 2.2 6.77-5.75-4.18-5.76 4.18 2.2-6.77zM68.92 20.62H76l2.2-6.76 2.19 6.76h7.12l-5.73 4.18L84 31.57l-5.75-4.18-5.76 4.18 2.2-6.77zM40.9 20.62H48l2.2-6.76 2.2 6.76h7.11l-5.75 4.18L56 31.57l-5.75-4.18-5.76 4.18 2.2-6.77zM12.88 20.62H20l2.2-6.76 2.2 6.76h7.1l-5.76 4.18 2.2 6.77-5.75-4.18-5.76 4.18 2.2-6.77zM181 51.77h7.12L190.3 45l2.2 6.76h7.11L193.86 56l2.2 6.77-5.76-4.18-5.75 4.18 2.2-6.77zM153 51.77h7.11l2.2-6.76 2.19 6.76h7.12L165.84 56l2.2 6.77-5.75-4.18-5.76 4.18 2.2-6.77zM125 51.77h7.11l2.2-6.76 2.19 6.76h7.12l-5.8 4.23 2.2 6.77-5.75-4.18-5.76 4.18 2.2-6.77zM96.94 51.77h7.11l2.2-6.76 2.19 6.76h7.12L109.8 56l2.2 6.77-5.75-4.18-5.76 4.18 2.2-6.77zM68.92 51.77H76L78.23 45l2.19 6.76h7.12L81.78 56 84 62.72l-5.75-4.18-5.76 4.18L74.67 56zM40.9 51.77H48L50.21 45l2.2 6.76h7.11L53.76 56 56 62.72l-5.75-4.18-5.76 4.18L46.65 56zM209 82.93h7.12l2.19-6.77 2.2 6.77h7.11l-5.75 4.18 2.2 6.76-5.76-4.18-5.75 4.18 2.2-6.76zM181 82.93h7.12l2.19-6.77 2.2 6.77h7.11l-5.75 4.18 2.2 6.76-5.76-4.18-5.75 4.18 2.2-6.76zM153 82.93h7.11l2.2-6.77 2.19 6.77h7.12l-5.76 4.18 2.2 6.76-5.75-4.18-5.76 4.18 2.2-6.76zM125 82.93h7.11l2.2-6.77 2.19 6.77h7.12l-5.76 4.18 2.2 6.76-5.75-4.18-5.76 4.18 2.2-6.76zM96.94 82.93h7.11l2.2-6.77 2.19 6.77h7.12l-5.76 4.18 2.2 6.76-5.75-4.18-5.76 4.18 2.2-6.76zM68.92 82.93H76l2.2-6.77 2.19 6.77h7.12l-5.76 4.18L84 93.87l-5.75-4.18-5.76 4.18 2.2-6.76zM40.9 82.93H48l2.2-6.77 2.2 6.77h7.11l-5.76 4.18L56 93.87l-5.75-4.18-5.76 4.18 2.2-6.76zM12.88 82.93H20l2.2-6.77 2.2 6.77h7.1l-5.76 4.18 2.2 6.76-5.75-4.18-5.76 4.18 2.2-6.76zM181 114.08h7.12l2.19-6.76 2.2 6.76h7.11l-5.75 4.18 2.2 6.77-5.76-4.19-5.76 4.16 2.2-6.77zM153 114.08h7.11l2.2-6.76 2.19 6.76h7.12l-5.76 4.18L168 125l-5.75-4.19-5.72 4.19 2.2-6.77zM125 114.08h7.11l2.2-6.76 2.19 6.76h7.12l-5.76 4.18L140 125l-5.75-4.19-5.74 4.19 2.2-6.77zM96.94 114.08h7.11l2.2-6.76 2.19 6.76h7.12l-5.76 4.18L112 125l-5.75-4.19-5.76 4.19 2.2-6.77zM68.92 114.08H76l2.2-6.76 2.19 6.76h7.12l-5.76 4.18L84 125l-5.75-4.19-5.78 4.19 2.2-6.77zM40.9 114.08H48l2.2-6.76 2.2 6.76h7.11l-5.76 4.18L56 125l-5.75-4.19-5.8 4.19 2.2-6.77zM209 145.23h7.12l2.19-6.76 2.2 6.76h7.11l-5.75 4.18 2.2 6.77-5.75-4.18-5.75 4.18 2.2-6.77zM181 145.23h7.12l2.19-6.76 2.2 6.76h7.11l-5.75 4.18 2.2 6.77-5.77-4.18-5.75 4.18 2.2-6.77zM153 145.23h7.11l2.2-6.76 2.19 6.76h7.12l-5.76 4.18 2.2 6.77-5.77-4.18-5.76 4.18 2.2-6.77zM125 145.23h7.11l2.2-6.76 2.19 6.76h7.12l-5.76 4.18 2.2 6.77-5.79-4.18-5.76 4.18 2.2-6.77zM96.94 145.23h7.11l2.2-6.76 2.19 6.76h7.12l-5.76 4.18 2.2 6.77-5.75-4.18-5.76 4.18 2.2-6.77zM68.92 145.23H76l2.2-6.76 2.19 6.76h7.12l-5.76 4.18 2.2 6.77-5.72-4.18-5.76 4.18 2.2-6.77zM40.9 145.23H48l2.2-6.76 2.2 6.76h7.11l-5.76 4.18 2.2 6.77-5.74-4.18-5.76 4.18 2.2-6.77zM12.88 145.23H20l2.2-6.76 2.2 6.76h7.1l-5.76 4.18 2.2 6.77-5.75-4.18-5.76 4.18 2.2-6.77z" fill="#fff" fill-rule="evenodd"/></svg>