<svg xmlns="http://www.w3.org/2000/svg" width="300" height="300" viewBox="0 0 300 300"><title>flag-minnesota-icon-stars</title><path d="M260.88,111l5-.06L262,114.05l1.6,4.73-4.19-2.72-4,3,1.29-4.81-4.06-2.89,5-.26,1.48-4.75Z" fill="none" stroke="#000"/><path d="M246.33,108.84l1.8,4.66,5-.06-3.87,3.13,1.59,4.72-4.18-2.71-4,3,1.29-4.81-4.07-2.88,5-.27Z" fill="none" stroke="#000"/><path d="M232.17,106.64,234,111.3l5-.06-3.88,3.13,1.6,4.73-4.19-2.71-4,3,1.3-4.81-4.07-2.88,5-.27Z" fill="none" stroke="#000"/><path d="M239.55,124.59l5-.06-3.88,3.14,1.6,4.73-4.18-2.73-4,3,1.3-4.81L231.3,125l5-.26,1.48-4.76Z" fill="none" stroke="#000"/><path d="M10.47,105.93,9,110.69,4,111l4.07,2.89-1.29,4.81,4-3L15,118.39l-1.59-4.73,3.87-3.13-5,.06Z" fill="none" stroke="#000"/><path d="M23.37,107.64l-1.49,4.75-5,.26L21,115.54l-1.3,4.81,4-3,4.18,2.71-1.6-4.73,3.88-3.13-5,.06Z" fill="none" stroke="#000"/><path d="M37.36,104.54l-1.49,4.76-5,.26L35,112.44l-1.29,4.82,4-3L41.85,117l-1.59-4.72,3.87-3.14-5,.06Z" fill="none" stroke="#000"/><path d="M32.62,118.16l-1.48,4.77-5,.25,4.07,2.88-1.28,4.81,4-3,4.19,2.72-1.6-4.72,3.88-3.14-5,0Z" fill="none" stroke="#000"/><path d="M53.37,267.36l-4.16-2.75-4,2.94,1.33-4.8-4-2.91,5-.22L49,254.87l1.76,4.67,5,0-3.91,3.11Z" fill="none" stroke="#000"/><path d="M62.66,254.73,58.5,252l-4,3,1.33-4.81-4-2.91,5-.22,1.52-4.75L60,246.91h5L61.1,250Z" fill="none" stroke="#000"/><path d="M77.87,248.41l-4.17-2.75-4,3L71,243.79,67,240.89l5-.23,1.52-4.74,1.75,4.67,5,0-3.9,3.11Z" fill="none" stroke="#000"/><path d="M64.93,238.69,60.76,236l-4,2.94,1.33-4.81-4-2.9,5-.23,1.53-4.75,1.75,4.68,5,0L63.36,234Z" fill="none" stroke="#000"/><path d="M218.59,266.15l4.21,2.69-1.64-4.71L225,261l-5,.09-1.83-4.63-1.44,4.76-5,.3,4.1,2.86-1.26,4.82Z" fill="none" stroke="#000"/><path d="M208.52,254.16l4.2,2.67-1.63-4.7,3.84-3.17-5,.09-1.82-4.64-1.45,4.77-5,.3,4.09,2.84-1.25,4.84Z" fill="none" stroke="#000"/><path d="M189,251.81l4-3,4.21,2.69-1.63-4.72,3.85-3.16-5,.1-1.82-4.64-1.45,4.77-5,.3,4.09,2.84Z" fill="none" stroke="#000"/><path d="M201.25,241.29l4-3,4.2,2.69-1.64-4.71,3.86-3.17-5,.09-1.82-4.63-1.45,4.76-5,.3,4.09,2.86Z" fill="none" stroke="#000"/><path d="M125.44,48.8l1.25,3.25,3.49,0-2.71,2.19,1.12,3.31-2.93-1.9-2.8,2.09.9-3.37-2.84-2,3.48-.18Z" fill="none" stroke="#000"/><path d="M140.28,48.93l1.25,3.25,3.49,0-2.71,2.19,1.11,3.31-2.92-1.9-2.81,2.09.91-3.38-2.85-2,3.49-.17Z" fill="none" stroke="#000"/><path d="M132.75,30.84l2.47,6.44,6.91-.08-5.36,4.35,2.2,6.53-5.78-3.76-5.54,4.12,1.79-6.66-5.64-4,6.89-.35Z" fill="none" stroke="#000"/></svg>