<svg xmlns="http://www.w3.org/2000/svg" width="600" height="400" viewBox="0 0 600 400"><title>flag-tennessee-dimensions</title><line x1="4.15" y1="190.77" x2="4.15" y2="193.27" fill="none" stroke="#a3a3a3" stroke-linecap="round" stroke-linejoin="round"/><line x1="4.15" y1="198.39" x2="4.15" y2="339.24" fill="none" stroke="#a3a3a3" stroke-linecap="round" stroke-linejoin="round" stroke-dasharray="5.12 5.12"/><polyline points="4.15 341.8 4.15 344.3 6.65 344.3" fill="none" stroke="#a3a3a3" stroke-linecap="round" stroke-linejoin="round"/><line x1="9.5" y1="344.3" x2="13.79" y2="344.3" fill="none" stroke="#a3a3a3" stroke-linecap="round" stroke-linejoin="round" stroke-dasharray="2.86 2.86"/><line x1="15.22" y1="344.3" x2="17.72" y2="344.3" fill="none" stroke="#a3a3a3" stroke-linecap="round" stroke-linejoin="round"/><line x1="17.72" y1="1.5" x2="15.22" y2="1.5" fill="none" stroke="#a3a3a3" stroke-linecap="round" stroke-linejoin="round"/><line x1="12.36" y1="1.5" x2="8.08" y2="1.5" fill="none" stroke="#a3a3a3" stroke-linecap="round" stroke-linejoin="round" stroke-dasharray="2.86 2.86"/><polyline points="6.65 1.5 4.15 1.5 4.15 4" fill="none" stroke="#a3a3a3" stroke-linecap="round" stroke-linejoin="round"/><line x1="4.15" y1="9.12" x2="4.15" y2="149.96" fill="none" stroke="#a3a3a3" stroke-linecap="round" stroke-linejoin="round" stroke-dasharray="5.12 5.12"/><line x1="4.15" y1="152.53" x2="4.15" y2="155.03" fill="none" stroke="#a3a3a3" stroke-linecap="round" stroke-linejoin="round"/><line x1="302.89" y1="389.56" x2="305.39" y2="389.56" fill="none" stroke="#a3a3a3" stroke-linecap="round" stroke-linejoin="round"/><line x1="310.46" y1="389.56" x2="591.75" y2="389.56" fill="none" stroke="#a3a3a3" stroke-linecap="round" stroke-linejoin="round" stroke-dasharray="5.07 5.07"/><polyline points="594.28 389.56 596.78 389.56 596.78 387.06" fill="none" stroke="#a3a3a3" stroke-linecap="round" stroke-linejoin="round"/><line x1="596.78" y1="381.81" x2="596.78" y2="352.93" fill="none" stroke="#a3a3a3" stroke-linecap="round" stroke-linejoin="round" stroke-dasharray="5.25 5.25"/><line x1="596.78" y1="350.3" x2="596.78" y2="347.8" fill="none" stroke="#a3a3a3" stroke-linecap="round" stroke-linejoin="round"/><line x1="25.48" y1="351.53" x2="25.48" y2="354.03" fill="none" stroke="#a3a3a3" stroke-linecap="round" stroke-linejoin="round"/><line x1="25.48" y1="358.75" x2="25.48" y2="384.7" fill="none" stroke="#a3a3a3" stroke-linecap="round" stroke-linejoin="round" stroke-dasharray="4.72 4.72"/><polyline points="25.48 387.06 25.48 389.56 27.98 389.56" fill="none" stroke="#a3a3a3" stroke-linecap="round" stroke-linejoin="round"/><line x1="33.02" y1="389.56" x2="272.16" y2="389.56" fill="none" stroke="#a3a3a3" stroke-linecap="round" stroke-linejoin="round" stroke-dasharray="5.03 5.03"/><line x1="274.67" y1="389.56" x2="277.17" y2="389.56" fill="none" stroke="#a3a3a3" stroke-linecap="round" stroke-linejoin="round"/><path d="M5.3,173.31A2.85,2.85,0,0,1,7.12,176a3.08,3.08,0,0,1-3.27,3.09,3.7,3.7,0,0,1-2.78-1.2l.9-1.07c.15.15.07.32.22.48a2.3,2.3,0,0,0,1.65.72A2.13,2.13,0,0,0,6,175.9c0-1.27-1-2-2.48-2a4.9,4.9,0,0,0-.54,0V173a4,4,0,0,0,1.67-.27A1.86,1.86,0,0,0,5.75,171a1.72,1.72,0,0,0-1.84-1.65,2.54,2.54,0,0,0-1.83.82l-.66-.74A3.49,3.49,0,0,1,4,168.33,2.79,2.79,0,0,1,6.88,171,2.45,2.45,0,0,1,5.3,173.31Z"/><path d="M292.89,384.33v1.07h-4.37l-.16,3.05a3.92,3.92,0,0,1,1.72-.41,3.19,3.19,0,0,1,3.21,3.53,3.26,3.26,0,0,1-3.35,3.54,3.75,3.75,0,0,1-3.14-1.63l1.06-.79c.14.1.06.27.12.4a2.56,2.56,0,0,0,1.95,1,2.56,2.56,0,0,0,0-5.05,2.59,2.59,0,0,0-2,1l-.77-.31.37-5.38Z"/><line x1="553.96" y1="349.88" x2="553.96" y2="364.49" fill="none" stroke="#a3a3a3" stroke-linecap="round" stroke-linejoin="round" stroke-dasharray="5 5"/><line x1="554.48" y1="357.18" x2="596.81" y2="357.18" fill="none" stroke="#a3a3a3" stroke-linecap="round" stroke-linejoin="round" stroke-dasharray="5 5"/><rect x="25.48" y="1.5" width="528.47" height="342.79" fill="#fff" stroke="#50d6cc" stroke-linejoin="round"/><rect x="553.96" y="1.5" width="7.14" height="342.79" fill="#fff" stroke="#50d6cc" stroke-miterlimit="10"/><rect x="561.1" y="1.5" width="35.71" height="342.79" fill="#fff" stroke="#50d6cc" stroke-miterlimit="10"/><circle cx="289.72" cy="172.9" r="92.84" fill="#fff" stroke="#50d6cc" stroke-miterlimit="10"/><circle cx="289.72" cy="172.9" r="85.7" fill="none" stroke="#50d6cc" stroke-miterlimit="10"/><polygon points="288.62 205.7 288.62 176.29 271.33 200.08 243.37 191 260.65 214.78 243.37 238.57 271.33 229.48 288.62 253.27 288.62 223.87 316.58 214.78 288.62 205.7" fill="#fff" stroke="#50d6cc" stroke-miterlimit="10"/><polygon points="261.87 155.54 287.33 170.25 275.37 143.38 297.22 123.71 267.98 126.78 256.02 99.92 249.91 128.68 220.67 131.76 246.13 146.46 240.02 175.22 261.87 155.54" fill="#fff" stroke="#50d6cc" stroke-miterlimit="10"/><polygon points="340.53 177.13 369.77 180.2 347.92 160.53 359.88 133.67 334.41 148.37 312.56 128.7 318.68 157.46 293.21 172.16 322.45 175.23 328.57 203.99 340.53 177.13" fill="#fff" stroke="#50d6cc" stroke-miterlimit="10"/><line x1="310.93" y1="359.38" x2="313.43" y2="359.38" fill="none" stroke="#a3a3a3" stroke-linecap="round" stroke-linejoin="round"/><line x1="318.05" y1="359.38" x2="371.11" y2="359.38" fill="none" stroke="#a3a3a3" stroke-linecap="round" stroke-linejoin="round" stroke-dasharray="4.61 4.61"/><polyline points="373.42 359.38 375.92 359.38 375.92 356.88" fill="none" stroke="#a3a3a3" stroke-linecap="round" stroke-linejoin="round"/><line x1="375.92" y1="351.88" x2="375.92" y2="114.58" fill="none" stroke="#a3a3a3" stroke-linecap="round" stroke-linejoin="round" stroke-dasharray="5 5"/><line x1="375.92" y1="112.08" x2="375.92" y2="109.58" fill="none" stroke="#a3a3a3" stroke-linecap="round" stroke-linejoin="round"/><path d="M282.06,364.5h-1.19v-9.14l-2.12.63-.28-.65,2.77-1.46h.82Z"/><path d="M289.53,364.68a1,1,0,1,1,0-1.95,1,1,0,1,1,0,1.95Z"/><path d="M301.14,353.9V355h-4.37l-.16,3a3.93,3.93,0,0,1,1.73-.41,3.19,3.19,0,0,1,3.2,3.53,3.25,3.25,0,0,1-3.34,3.54,3.75,3.75,0,0,1-3.14-1.63l1.05-.79c.15.1.06.27.13.4a2.56,2.56,0,0,0,1.94,1,2.56,2.56,0,0,0,0-5.05,2.59,2.59,0,0,0-2,1l-.76-.31.37-5.38Z"/><path d="M561.9,375.47a1,1,0,1,1,0-2,1,1,0,1,1,0,2Z"/><path d="M571.74,369.64a2.84,2.84,0,0,1,1.82,2.73,3.08,3.08,0,0,1-3.26,3.09,3.7,3.7,0,0,1-2.78-1.2l.89-1.07c.16.15.08.31.22.48a2.34,2.34,0,0,0,1.66.71,2.12,2.12,0,0,0,2.13-2.15c0-1.27-1-2-2.49-2a4.73,4.73,0,0,0-.53,0v-.95a4.07,4.07,0,0,0,1.67-.27,1.86,1.86,0,0,0,1.13-1.67,1.73,1.73,0,0,0-1.84-1.65,2.53,2.53,0,0,0-1.83.82l-.66-.74a3.49,3.49,0,0,1,2.55-1.13,2.79,2.79,0,0,1,2.91,2.68A2.46,2.46,0,0,1,571.74,369.64Z"/><path d="M582.18,364.69v.66q-1.08,2.46-2,5t-1.69,5h-1.33q.95-2.85,2-5.66c.5-1.27,1-2.54,1.54-3.8h-4.53v-1.13Z"/><path d="M590.52,364.69v1.07h-4.37l-.16,3.05a3.88,3.88,0,0,1,1.72-.41,3.2,3.2,0,0,1,3.21,3.53,3.26,3.26,0,0,1-3.35,3.54,3.77,3.77,0,0,1-3.14-1.62l1.06-.8c.14.11.06.27.12.4a2.53,2.53,0,0,0,1.95,1,2.56,2.56,0,0,0,0-5.05,2.59,2.59,0,0,0-2,1l-.77-.31.37-5.38Z"/><path d="M574.1,257.37a1,1,0,1,1,1-1A1,1,0,0,1,574.1,257.37Z"/><path d="M583.94,251.53a2.86,2.86,0,0,1,1.82,2.74,3.08,3.08,0,0,1-3.26,3.09,3.71,3.71,0,0,1-2.78-1.21l.89-1.07c.15.16.08.32.22.49a2.34,2.34,0,0,0,1.66.71,2.12,2.12,0,0,0,2.13-2.16c0-1.26-1-2-2.49-2a4.9,4.9,0,0,0-.54,0v-1a4.29,4.29,0,0,0,1.68-.27,1.86,1.86,0,0,0,1.13-1.67,1.73,1.73,0,0,0-1.84-1.65,2.51,2.51,0,0,0-1.83.81l-.66-.73a3.43,3.43,0,0,1,2.54-1.13,2.79,2.79,0,0,1,2.92,2.68A2.44,2.44,0,0,1,583.94,251.53Z"/><line x1="203.52" y1="109.58" x2="203.52" y2="112.08" fill="none" stroke="#a3a3a3" stroke-linecap="round" stroke-linejoin="round"/><line x1="203.52" y1="117.07" x2="203.52" y2="354.38" fill="none" stroke="#a3a3a3" stroke-linecap="round" stroke-linejoin="round" stroke-dasharray="5 5"/><polyline points="203.52 356.88 203.52 359.38 206.02 359.38" fill="none" stroke="#a3a3a3" stroke-linecap="round" stroke-linejoin="round"/><line x1="211.45" y1="359.38" x2="263" y2="359.38" fill="none" stroke="#a3a3a3" stroke-linecap="round" stroke-linejoin="round" stroke-dasharray="5.43 5.43"/><line x1="265.72" y1="359.38" x2="268.22" y2="359.38" fill="none" stroke="#a3a3a3" stroke-linecap="round" stroke-linejoin="round"/><line x1="561.1" y1="252.96" x2="570.26" y2="252.96" fill="none" stroke="#a3a3a3" stroke-linecap="round" stroke-linejoin="round" stroke-dasharray="5 5"/><line x1="596.81" y1="252.96" x2="588.78" y2="252.96" fill="none" stroke="#a3a3a3" stroke-linecap="round" stroke-linejoin="round" stroke-dasharray="5 5"/></svg>