<svg xmlns="http://www.w3.org/2000/svg" width="82" height="300"><path d="M55.31 48.25s11.62.75 12.19 7.39a15.72 15.72 0 01-2.77 10.72S66.2 80.74 54.83 85c-12.19 1.46-31.27.33-31.27.33S18 86.67 15.68 75.05a194.6 194.6 0 01-2.92-19.81s1.13-6.5 9.34-6.91 33.13.09 33.21-.08z" fill="#fff" stroke="#000" stroke-width="1.5"/><path d="M64.65 66.28s-6.25 7.8-5.6 11" fill="none" stroke="#000" stroke-linecap="round" stroke-width="1.5"/><path d="M56.29 84.56c1.54 1.29 3 2.76 3.33 7.55s.65 9.58.65 9.58l8.12 73.1 7.15 52.87.48 8.21s-1.7 6-6.49 6.5c-3.5 7.3-22.42 9.42-24.29 9.34-1.7-.09-7.71-2.6-11.37-2.28s-10 2.76-12.83 2.36-9.26-2.6-10.4-7.23C2.68 242 1.38 236 1.38 236L10 174.79l8.37-77.32s1-10.31 5.11-11.86c4.31-.4 26.56.41 32.82-1z" fill="#fff" stroke="#000" stroke-width="1.5"/><path d="M12.43 190.39l-1.71 54.09M65 197.53l4.8 44.59" fill="none" stroke="#000" stroke-width="1.5"/></svg>