<svg xmlns="http://www.w3.org/2000/svg" viewBox="0 0 600 315.79"><path fill="#bb133e" d="M0 0h600v315.79H0z"/><path d="M0 36.44h600M0 85.02h600M0 133.6h600M0 182.19h600M0 230.77h600M0 279.35h600"/><path fill="#fff" d="M600 291.5H0v-24.29h600v24.29Zm0-48.59H0v-24.29h600v24.29Zm0-48.58H0v-24.29h600v24.29Zm0-48.58H0v-24.29h600v24.29Zm0-48.58H0V72.88h600v24.29Zm0-48.59H0V24.29h600v24.29Z"/><path fill="#002664" d="M0 0h240v170.04H0z"/><g fill="#fff"><path d="m23.81 11.54 5.71 17.58-14.95-10.86h18.48L18.1 29.12l5.71-17.58ZM55.87 11.54l5.71 17.58-14.95-10.86h18.48L50.16 29.12l5.71-17.58ZM87.94 11.54l5.71 17.58L78.7 18.26h18.48L82.23 29.12l5.71-17.58ZM120 11.54l5.71 17.58-14.95-10.86h18.48l-14.95 10.86L120 11.54ZM152.06 11.54l5.71 17.58-14.95-10.86h18.48l-14.95 10.86 5.71-17.58ZM184.13 11.54l5.71 17.58-14.95-10.86h18.48l-14.95 10.86 5.71-17.58ZM216.19 11.54l5.71 17.58-14.95-10.86h18.48l-14.95 10.86 5.71-17.58ZM39.84 54.05l5.71 17.58L30.6 60.77h18.48L34.13 71.63l5.71-17.58ZM71.9 54.05l5.71 17.58-14.95-10.86h18.48L66.19 71.63l5.71-17.58ZM103.97 54.05l5.71 17.58-14.95-10.86h18.48L98.26 71.63l5.71-17.58ZM136.03 54.05l5.71 17.58-14.95-10.86h18.48l-14.95 10.86 5.71-17.58ZM168.1 54.05l5.71 17.58-14.95-10.86h18.48l-14.95 10.86 5.71-17.58ZM200.16 54.05l5.71 17.58-14.95-10.86h18.48l-14.95 10.86 5.71-17.58ZM39.84 96.56l5.71 17.58-14.95-10.86h18.48l-14.95 10.86 5.71-17.58ZM71.9 96.56l5.71 17.58-14.95-10.86h18.48l-14.95 10.86 5.71-17.58ZM103.97 96.56l5.71 17.58-14.95-10.86h18.48l-14.95 10.86 5.71-17.58ZM136.03 96.56l5.71 17.58-14.95-10.86h18.48l-14.95 10.86 5.71-17.58ZM168.1 96.56l5.71 17.58-14.95-10.86h18.48l-14.95 10.86 5.71-17.58ZM200.16 96.56l5.71 17.58-14.95-10.86h18.48l-14.95 10.86 5.71-17.58ZM23.81 139.07l5.71 17.58-14.95-10.86h18.48L18.1 156.65l5.71-17.58ZM55.87 139.07l5.71 17.58-14.95-10.86h18.48l-14.95 10.86 5.71-17.58ZM87.94 139.07l5.71 17.58-14.95-10.86h18.48l-14.95 10.86 5.71-17.58ZM120 139.07l5.71 17.58-14.95-10.86h18.48l-14.95 10.86 5.71-17.58ZM152.06 139.07l5.71 17.58-14.95-10.86h18.48l-14.95 10.86 5.71-17.58ZM184.13 139.07l5.71 17.58-14.95-10.86h18.48l-14.95 10.86 5.71-17.58ZM216.19 139.07l5.71 17.58-14.95-10.86h18.48l-14.95 10.86 5.71-17.58Z"/></g></svg>