<svg xmlns="http://www.w3.org/2000/svg" width="600" height="414" viewBox="0 0 600 414"><title>flag-california-dimensions</title><rect x="26.53" y="1.92" width="526.41" height="351.2" fill="#fff" stroke="#50d6cc" stroke-linecap="round" stroke-linejoin="round"/><rect x="26.34" y="294.56" width="526.6" height="58.56" stroke-width="0.8" stroke="#50d6cc" stroke-linecap="round" stroke-linejoin="round" fill="none"/><path d="M114.09,45.91c1.2,3.68,5.24,17.7,5.91,18.19s15.27,0,19.13,0c-3.12,2.27-15.21,10.45-15.47,11.25s4.71,14.52,5.91,18.19c-3.13-2.27-14.64-11.24-15.48-11.24s-12.34,9-15.47,11.24c1.19-3.67,6.17-17.4,5.91-18.19s-12.35-9-15.48-11.25c3.87,0,18.46.49,19.14,0S112.9,49.59,114.09,45.91Z" fill="none" stroke="#50d6cc" stroke-linecap="round" stroke-linejoin="round"/><path d="M124.62,244.83c-2.49,0-5.06-.33-7.27,1.09a7.43,7.43,0,0,0-3.2,5.27,55.81,55.81,0,0,0-.07,8.28c0,2.45-.22,4.94,0,7.37.4,4.69,3.59,7.18,8.17,7.42,4,.22,8.09-1.35,9.2-5.55.34-1.26.83-2.87-.52-3.44-.66-.27-3.79-.38-4.35.11-1.35,1.2.5,2.86-2,3.5-1.63.41-4.33.4-5.07-1.36s-.11-4.76-.11-6.57-.19-3.76-.23-5.64c-.1-3.68,1.07-6.3,5.27-5.25a2.58,2.58,0,0,1,1.89,1.23c.37.84-.44,1.86.41,2.41a18.6,18.6,0,0,0,4.89-.1c.93-.86-.44-4.41-.88-5.19A7.09,7.09,0,0,0,124.62,244.83Zm16.39,0-7.61,29.25c1.1,0,4.12.56,5-.09.71-.51.7-1.8.85-2.62s.17-2.23,1.11-2.68,2.58.12,3.55.12,2.7-.57,3.54-.12.94,1.74,1.12,2.68c.13.7.12,2,.66,2.53.87.82,4.11.18,5.21.18-1.76-6.78-3.74-13.54-5.26-20.37-.51-2.32-.66-6.54-2.27-8.4C145.82,244,142.62,244.83,141,244.83Zm.4,18.72,2.52-9.72,2.52,9.72Z" fill="none" stroke="#50d6cc" stroke-linecap="round" stroke-linejoin="round"/><path d="M161.48,244.83c-1.34,0-3.13-.61-4.4-.08s-.86.71-.91,2.08c-.13,4.14.05,8.29.05,12.43,0,3.52.16,7.07-.09,10.58a11.84,11.84,0,0,0-.1,3.36c.27,1.12.73,1.07,1.87,1,3-.06,6.08-.29,9.14-.14,1.26.06,2.81.45,4.06,0s1-.51,1-2c0-.79.42-2.38,0-3s-1.8-.56-2.54-.55c-2.07,0-4.95.91-7,.44-1.43-.34-1-1.09-1-2.51,0-2.25,0-4.5,0-6.75Z" fill="none" stroke="#50d6cc" stroke-linecap="round" stroke-linejoin="round"/><path d="M173.77,244.83c1.53,0,4.56-.93,5.43.59.43.75,0,2.46,0,3.28-.13,1.5-.14,3-.14,4.49v12.34c0,1.48,0,3,.05,4.43,0,.94.52,2.56.14,3.47-.5,1.22-3.23,1-4.44.8-2-.36-1.11-2.56-1-4.27C174.15,261.63,173.77,253.18,173.77,244.83Z" fill="none" stroke="#50d6cc" stroke-linecap="round" stroke-linejoin="round"/><path d="M182.54,274.08c1.34,0,2.7.35,4,.24,1.52-.12,1.49-.75,1.47-2.21s-.24-3.07-.24-4.62c0-1.12-.67-4.75.28-5.58s4.7-.12,5.68-.12,3.75.61,4.48-.27c.56-.68.33-3,.21-3.82-.27-1.69-1.41-1.29-3-1.23-1.88.07-3.77.06-5.66.12s-2.1-.1-2.13-2c0-.84-.21-3.61.36-4.31.72-.86,3.61-.18,4.62-.11,1.2.09,4.59.74,5.53-.2.76-.77.36-2.74.23-3.72-.22-1.7-.54-1.52-2.12-1.47-2.79.08-5.59,0-8.38,0-1.25,0-4.83-.68-5.36.58-.35.84,0,2.88,0,3.76v24.91Z" fill="none" stroke="#50d6cc" stroke-linecap="round" stroke-linejoin="round"/><path d="M212.38,244.83c-3.86,0-8.11,0-9.86,4.15-1.59,3.82-.76,9.23-.75,13.28,0,3.83-.34,8.3,3.29,10.7,2.8,1.84,7.87,1.83,10.77.21,5.37-3,3.55-11.47,3.61-16.54S219,244.83,212.38,244.83Zm1.76,22.23c0,2.5-5.58,2.43-6.65.84s-.49-4.72-.47-6.45c0-2.73,0-5.46,0-8.19,0-2.21.67-3.1,2.89-3.19,1.36,0,3.22-.19,4,1.17,1,1.79.24,5.1.24,7.08Zm19.3-22.23c-2,0-4,.06-6-.07-.89-.06-3.76-.74-4.44.07-.37.44-.07,2.36-.07,2.85,0,1.26,0,2.52,0,3.78v9.66c0,2.26.07,4.52,0,6.78a22,22,0,0,0-.14,5.06c.25,1.29.7,1.25,2,1.3.89,0,3,.35,3.61-.4s0-3.22-.08-4.14a32.13,32.13,0,0,1-.09-6.72c.28-1.87,1.35-1.32,3-1.23s3.43-.24,4,1.78.14,4.86,0,7c0,1.13-.56,3,.6,3.58a8.65,8.65,0,0,0,4.2,0c1-.52.49-2.5.49-3.65,0-2.86.55-6.16-.29-8.93-.26-.87-1-1.65-1-2.51,0-1.11,1.06-2.4,1.26-3.52C241.27,250.76,239.06,244.83,233.44,244.83Zm1.76,9.94c0,2-3.2,2-4.55,2-.39,0-2.07,0-2.38-.34-.45-.5-.14-2.86-.13-3.42,0-.77-.24-2.2.26-2.75.66-.73,2.74-.23,3.56-.17C235.15,250.3,235.2,251.93,235.2,254.77Z" fill="none" stroke="#50d6cc" stroke-linecap="round" stroke-linejoin="round"/><path d="M256.26,261.54l-5-11.94c-.49-1.18-.92-3.47-1.78-4.47-.72-.84-2.11-.49-3.12-.42-.54,0-1.81-.12-2.21.21-.69.57-.16,3.82-.16,4.53v12.24c0,3.54,0,7.08-.07,10.61,0,1.35-.18,1.45,1,1.8a9.73,9.73,0,0,0,2.8.2c1.07,0,1.3.08,1.63-.83.28-.73-.11-2.2-.12-3-.08-4.36,0-8.73,0-13.1l5,11.93c.5,1.18.93,3.48,1.78,4.47s2.12.5,3.13.42c.53,0,1.8.13,2.2-.2.7-.58.16-3.82.16-4.53V257.21c0-3.53,0-7.07.08-10.61,0-1.34.17-1.45-1-1.79a10.1,10.1,0,0,0-2.8-.21c-1.07,0-1.3-.07-1.64.83-.27.74.11,2.21.13,3C256.34,252.8,256.26,257.17,256.26,261.54Z" fill="none" stroke="#50d6cc" stroke-linecap="round" stroke-linejoin="round"/><path d="M265,244.83c1.54,0,4.56-.93,5.44.59.42.75,0,2.46,0,3.28-.12,1.5-.13,3-.13,4.49v12.34c0,1.48-.05,3,0,4.43.06.94.52,2.56.15,3.47-.5,1.22-3.23,1-4.44.8-2-.36-1.11-2.56-1-4.27C265.42,261.63,265,253.18,265,244.83Z" fill="none" stroke="#50d6cc" stroke-linecap="round" stroke-linejoin="round"/><path d="M279.66,244.83l-7.61,29.25c1.1,0,4.12.56,5-.09.71-.51.69-1.8.84-2.62s.18-2.23,1.12-2.68,2.58.12,3.54.12,2.7-.57,3.55-.12.93,1.74,1.11,2.68c.13.7.12,2,.66,2.53.87.82,4.11.18,5.22.18-1.77-6.78-3.74-13.54-5.26-20.37-.52-2.32-.67-6.54-2.28-8.4C284.47,244,281.28,244.83,279.66,244.83Zm.4,18.72,2.52-9.72,2.53,9.72Zm48.16-18.72c-2,0-4,.06-6-.07-.9-.06-3.76-.74-4.44.07-.38.44-.08,2.36-.07,2.85,0,1.26,0,2.52,0,3.78v9.66c0,2.26.06,4.52-.05,6.78a21.44,21.44,0,0,0-.14,5.06c.25,1.29.7,1.25,1.95,1.3.89,0,3,.35,3.61-.4s0-3.22-.07-4.14a32.14,32.14,0,0,1-.1-6.72c.29-1.87,1.36-1.32,3-1.23s3.42-.24,4,1.78.13,4.86,0,7c-.06,1.13-.56,3,.59,3.58a8.69,8.69,0,0,0,4.21,0c1-.52.49-2.5.49-3.65,0-2.86.54-6.16-.29-8.93-.26-.87-1-1.65-1-2.51,0-1.11,1.05-2.4,1.25-3.52C336.05,250.76,333.84,244.83,328.22,244.83Zm1.75,9.94c0,2-3.2,2-4.54,2-.39,0-2.08,0-2.39-.34-.45-.5-.14-2.86-.13-3.42,0-.77-.24-2.2.27-2.75.66-.73,2.74-.23,3.56-.17C329.92,250.3,330,251.93,330,254.77Z" fill="none" stroke="#50d6cc" stroke-linecap="round" stroke-linejoin="round"/><path d="M338.75,244.83c0,7,0,14.1,0,21.15,0,2-1.1,6,.12,7.72.89,1.21,4.88.38,6.38.38,2.37,0,4.74.13,7.11.14s2.43-.88,2.28-3.2-.11-2.24-2.62-2.4a34.3,34.3,0,0,0-4.3.1c-.77,0-3.09.51-3.71-.17-.8-.87,0-3.41,0-4.5,0-2.52-.05-2.39,2.48-2.27,1.48.06,3,0,4.44,0,.79,0,2.13.42,2.86.16,1.31-.49,1-2.17.92-3.53-.06-1.88-.18-2-2.09-1.95-2.4.09-4.83.18-7.23.17-2.15,0-1.35-1.58-1.4-3.31s-.82-3.23,1.4-3.27c2.58-.05,5.18.21,7.75.18,2.28,0,1.54-2,1.43-3.82-.08-1.33-.16-1.6-1.53-1.8a16.83,16.83,0,0,0-3.32.2C346.08,245,342.39,244.83,338.75,244.83Z" fill="none" stroke="#50d6cc" stroke-linecap="round" stroke-linejoin="round"/><path d="M368.59,244.83h-5.74c-1,0-3.66-.56-4.48.07-.52.39-.31,1.25-.32,1.83v18.35c0,1.74.05,3.48,0,5.22,0,.82-.56,3,.12,3.67.48.48,4.37.62,4.91.2s.26-1.93.24-2.67c0-1.88.08-3.77,0-5.65-.05-.93-.51-2.43-.11-3.3.62-1.35,2.84-.74,4.1-.74,3,0,5.85-.8,7.39-3.65C377.36,253.24,375,244.83,368.59,244.83Zm1.75,9.94c0,2-3.2,2-4.55,2-.38,0-2.07,0-2.38-.34-.45-.5-.14-2.86-.13-3.42,0-.77-.24-2.2.27-2.75.66-.73,2.74-.23,3.56-.17C370.29,250.3,370.34,251.93,370.34,254.77Zm21.06,12.29c0,1.57-2.22,1.93-3.39,2-2,.1-3.53-.39-3.69-2.61-.44-5.74,0-11.77.06-17.54,0-1.18.62-3.61-.61-4.18-.73-.34-3.91-.34-4.54.18-.82.68-.25,3.05-.19,4,.17,2.68.08,5.39.08,8.08,0,4.27-1.2,9.67,1,13.6,1.75,3.17,5.76,4.15,9.12,3.68s6.64-2.49,7.36-6c.56-2.7.28-5.69.2-8.42-.09-3.26-.09-6.52-.09-9.78,0-2.36,1-5.32-2-5.42-1.72-.06-3.24-.31-3.38,1.58-.22,3,.11,6.22.11,9.25Zm19.31-22.23h-6.34c-.72,0-3.12-.5-3.76,0-.92.68-.53,3.37-.55,4.4,0,2.19,0,4.39,0,6.59.06,4,.11,8,.11,12.05,0,1.6-.16,3.28,0,4.87.1,1.27.15,1.25,1.48,1.36,4,.33,9.32.78,12.89-1.28a6.51,6.51,0,0,0,3.17-5.13,18.85,18.85,0,0,0,0-4.92c-.18-1.28-1.21-2.49-1.22-3.68,0-.86.77-2,1-2.79a9.93,9.93,0,0,0,.3-2.49,13,13,0,0,0-.65-4.28A6.59,6.59,0,0,0,410.71,244.83Zm1.75,22.23c0,2-4.75,2.5-6.16,1.88-1.74-.76-1-3.91-.9-5.47.07-1.18-.18-1.25.78-1.68a8.6,8.6,0,0,1,3.94,0C413,262.32,412.46,264.74,412.46,267.06Zm0-12.29c0,2-3.2,2-4.54,2-.39,0-2.08,0-2.39-.34-.45-.5-.14-2.86-.13-3.42,0-.77-.24-2.2.27-2.75.66-.73,2.74-.23,3.56-.17C412.41,250.3,412.46,251.93,412.46,254.77Z" fill="none" stroke="#50d6cc" stroke-linecap="round" stroke-linejoin="round"/><path d="M426.5,244.83c-1.33,0-3.13-.61-4.39-.08s-.87.71-.92,2.08c-.12,4.14.05,8.29.05,12.43,0,3.52.16,7.07-.09,10.58a11.84,11.84,0,0,0-.1,3.36c.27,1.12.73,1.07,1.87,1,3-.06,6.09-.29,9.14-.14,1.27.06,2.82.45,4.06,0s1-.51.95-2c0-.79.42-2.38,0-3s-1.8-.56-2.54-.55c-2.07,0-4.95.91-7,.44-1.42-.34-1-1.09-1-2.51.05-2.25,0-4.5,0-6.75Z" fill="none" stroke="#50d6cc" stroke-linecap="round" stroke-linejoin="round"/><path d="M438.79,244.83c1.53,0,4.56-.93,5.43.59.43.75,0,2.46,0,3.28-.13,1.5-.13,3-.13,4.49v12.34c0,1.48-.05,3,0,4.43,0,.94.52,2.56.14,3.47-.5,1.22-3.23,1-4.44.8-2-.36-1.1-2.56-1-4.27C439.17,261.63,438.79,253.18,438.79,244.83Z" fill="none" stroke="#50d6cc" stroke-linecap="round" stroke-linejoin="round"/><path d="M465.12,253.6c0-3.55-1.36-7-4.93-8.23-3.21-1.12-7.92-.78-10.49,1.62-3.42,3.17-2.18,9.48-2.15,13.62,0,3.69-.71,8.79,2.26,11.62,2.67,2.54,7.45,2.6,10.69,1.28a7.15,7.15,0,0,0,4-3.57c.57-1.25,1.38-4-.05-4.66a8,8,0,0,0-4-.12c-1.47.65,0,2.32-1.42,3.33-1,.71-4.08.67-5.15.05-1.88-1.1-1.36-4.65-1.29-6.47.11-3-.11-6.2.14-9.22.22-2.56,1.64-2.84,3.93-2.78,1.16,0,2.56-.06,3.08,1.22.28.67-.34,1.73.14,2.31C460.69,254.56,464,253.6,465.12,253.6Z" fill="none" stroke="#50d6cc" stroke-linecap="round" stroke-linejoin="round"/><path d="M238.16,214.58c-.34-.1-1.35.32-1.58.11-.42-.4.84-.64-.2-.82-.46-.08-.6.82-1.14.48,0,0,.22-1.07-.2-1.22s-.6,1.23-.95,1.41c-.56.28-1.18-.28-1.75,0-.41.16-.57.78-1,1s-1.27.06-.88-.17a5.14,5.14,0,0,0-.42.38c.79-.25-1,1.6-1,.91,0,.76.8-.45.69.67.09.22,5.57-.53,6-.57.95-.08,1.89-.16,2.83-.26.27,0,.42.18.65.12a4.31,4.31,0,0,0,1-.73l-.89-.34A5,5,0,0,0,238.16,214.58Z" fill="#50d6cc"/><path d="M259.11,208c-.78-.13-1.23.85-2.21.34-.83-.43-.2-1-1.31-1-.15,0-.26.45-.6.53a14.45,14.45,0,0,1-1.58.06s-.06-1.21-.84-1.16c-.15,0-.69.83-.88.95s-2,.18-2,.55a5.17,5.17,0,0,0,.16.68s-1.53.31-1.27.9,3.53-.27,4-.3c.27,0,4.21-.4,4.42-.18,0,.77,2,.08,2.46-.1.23-.1,1.58.49.57-.51C259.25,208.77,259.26,208,259.11,208Z" fill="#50d6cc"/><path d="M279.14,215.29c0,.4-1.71-.45-1.91-.65s-.65.49-.55-.34c0-.24.92-.81,1.13-.71-.87-.41-1,0-1.85-.07a12.21,12.21,0,0,0-1.69-.09c-.35.07-.27.68-.69.61s-.51-.85-1.1-.89c.09.77-.25.92-.57.34-.17-.33.25-1.55-.38-1.64-.25,0-.18,1.18-.48,1-.66-.36.1-.68-.17-1.1-.75-1.16-.44.37-.89,1-.16.2-.59.23-.7.38s-.66,1-.73,1c-1.07.43-.64-1.14-1.59-.76-.49.2.29,1,.06,1.27-.59.72-.6-.12-.86-.07a4.14,4.14,0,0,0-1.65.74c.05-.11.08-.22-.07-.22-.4,0-.61,1.38-.71,1.38.77-.78,3.11-.23,4.15-.29a31.48,31.48,0,0,1,4.93.32c.32,0,7.33.1,6.61-.91C279.15,215.72,279.14,215.46,279.14,215.29Z" fill="#50d6cc"/><path d="M196.78,215.45c-1.07,0-.44,0-.57-.38.15.44-3.89-1.45-4.17-1.52-.11,0,.18.56.09.56-.58,0-1.1-.19-1.69-.17-.28-.23.85-.45.52-.72,0,0-1.44,0-1.56.09-.47.23-.54.92-1.05,1.23a22.46,22.46,0,0,1-4.53.42c.11.53.92.15,1.07.56s-.28.58-.32.48a.47.47,0,0,0,.22.61c.1.07,1.32.28,1.32.12-1.36-.54,1.37-.43,1.86-.45,1.42-.07,2.85-.24,4.28-.17a20.8,20.8,0,0,0,3.61.18C196.4,216.22,198.24,215.37,196.78,215.45Z" fill="#50d6cc"/><path d="M175.68,216.24a.51.51,0,0,0-.25.27c-.22-.26-1.53-1-.93-.33-.34.64-1-.75-1.18-.75.07,0-.39.61-.48.69-.6.46-1.08,0-1.63.06-.2,0-1.09.33-1.4.2-.18,2,1.55,1.49,2.94,1.4.59,0,3.41-.21,3-1.09A1.3,1.3,0,0,1,175.68,216.24Z" fill="#50d6cc"/><path d="M302.71,212.83s-2.23.48-2.54.22c-.82-.67.67-1.5-1-1.73.2,0-.78,1.58-1.21,1.06-.08-.1.81-1.5-.13-1.7.19,0-2.08.95-1.79.37-.22.78-3.52,2.26-3.11.42,0,0-.88-.16-.78-.24a1.34,1.34,0,0,0-.16.83c-.29.32-.58.62-.89.91.59.92-.77.22-.77.89,0,1,6.05.37,6.88.27.33,0,.51-.33.79-.34s.62.25.93.22c.48,0,1.17,0,1.08.1.32-.42,3.47.19,2.82-.61C302.11,213.13,302.82,213.31,302.71,212.83Z" fill="#50d6cc"/><path d="M209.74,216.72a1.43,1.43,0,0,1-.61.11c-.14-.07-1.37-.31-1.17-.62,0-.06,1.1,0,.86-.22s-1,.24-1.33.18a3.64,3.64,0,0,1-.74-.07c-.25-.09.07-.81-.32-.88-.74-.13-.75,1.79-.75,2-1,.07-.42-.48-.86-.9-.25-.24-1.89,1.76-1.84,0a5,5,0,0,1-.3,1.11c-.1.09-1,.55-1,.62,0,.24,2.49.44,2.86.44.16,0,1-.29,1.2-.32-.12,0,.94-.11,1.22-.16.58-.08,4.28.58,3.21-.79A3.92,3.92,0,0,1,209.74,216.72Z" fill="#50d6cc"/><path d="M269.22,195.38l.08,0Z" fill="#50d6cc"/><path d="M409,215.23c0,.52-1.35-.78-1.56-.87-.42-.2-.9,0-1.25-.23s-.55-1-.81-1c-.07.46-.28.51-.62.15a.71.71,0,0,1-.34.57c-.46,0-.18-1.17-.3-1.27s-1,.46-1.33.36c-.08,0-1-1.21-1-1-.18,1.05.24,1.18-1.07,1.21-.22,0-.22-.35-.67-.31-.25,0-1,.41-.42.5-.17.05-.13.43-.28.37s-.57-.85-.63-.76a3.16,3.16,0,0,0-.14,1.35c-.21-.15-.42.11-.33.16-.37-.22-3.14,1.38-3.23,1.05.23.85,3,.33,3.51.3.28,0,.53.24.79.23s.44-.27.68-.27a28.93,28.93,0,0,1,3.84.07c-.16.8,2.74.13,3.51.14.29,0,1.47.22,1.72,0C409.52,215.51,409.17,215.27,409,215.23Z" fill="#50d6cc"/><path d="M425.4,215.81c-.41-.07-.58.32-.9.32s-.74-.33-.9-.33c-.37,0-.41.4-.73.4s-.63-.22-.95-.2-.61.21-1,.23c-.27,0-.16-.8-.53-.67s-.87,1.81-.55,2.05c.15.12,1.33-.28,1.66-.27.51,0,5.42,1,5.56-.1C426.21,217,426.28,216,425.4,215.81Z" fill="#50d6cc"/><path d="M446.87,218.32a21.69,21.69,0,0,0-2.86-1.88,7.65,7.65,0,0,1-2.59-1.58,14.87,14.87,0,0,0-2.08-1.46c-.61-.44-.56-1-1-1.48-.85-.88-1.4-.23-2.43-.16-1.25.07-1.53-.42-2.39-1.31a6.7,6.7,0,0,0-1.33-1.33,12,12,0,0,0-2.1-.35c-.45-.11-.75-.4-1.24-.37s-.78.56-1.19.59a4,4,0,0,1-1.54-.35c-.72-.39-.37-.68-.9-1.31-.34-.39-.51.26-1-.28-.27-.3-.25-1.45-.56-1.57-.69-.29-1,1.08-1.7,1-.13,0,.07-.8-.3-.76s-.44.52-.74.64c-.86.35-.87.86-1.09-.13-.14-.65.77-1.34-.08-2-.65-.49-.95.36-1.5.61-.34.16-.57-.17-.72-.1-.44.19-.78.77-1.27.83-1.08.11-.36-.29-.69-1.16-.23-.62-.7-.94-.89-1.59-.14-.46.1-1.71-.59-1.84s-.54,1.2-1.27,1.15-.61-1.31-1.3-1.07c-1.13.4.43,2.61-.43,3.18-.61.4-1.33-.65-1.67-1-.19-.19-.58-.18-.75-.42s0-1.16-.22-1.43c-.68-.84-.54-.17-1.4.1a1.54,1.54,0,0,1-1.13.06c-.23,0-.68-.74-.89-.62-.51.29-.31,1-.91,1.26a11.88,11.88,0,0,1-2.47.22,60,60,0,0,1-7.56-.57c-5.36-.43-10.83-.47-16.16-1.25a23,23,0,0,1-2.86-.57c-.46-.13-1.44-.87-1.81-.89s-.94.49-1.52.46c-.27,0-.54-.35-.8-.42s-.62.11-.78,0c-.59-.26-.87-.8-1.65-.8s-1.36.66-2.25.45c-.73-.18-1.14-.92-1.82-1.2s-1.14.18-1.6-.76a2.62,2.62,0,0,1-1.22.68,5.72,5.72,0,0,0-.82.18c-.31.15-.52.7-.87.88-1.76.94-1.83-.21-2.22-1.46-1.43,1.72-2.46-1.34-3.41-1.13-.36.07-.52.83-1,1s-.71-.4-1.25-.32-.91,1-1.45,1c-1,0-.37-.62-.75-1.07-.86-1-1.49.25-2.45,1a2.76,2.76,0,0,0-.4-1.37c-.74.36-.34.75-1.16.75-.33,0-.78-.5-1.13-.5-.93,0-2.3,1.41-3.35,1.67-3.87.92-8.11,1.05-12.05,1.44s-8,.61-11.94.86c-2.48.16-7.08,1-9.13-.9-.78-.73-.42-1.65-1.07-2.45-.8-1-2-.52-3-.08-.87.37-1.58,1.32-2.38,1.61-1.39.49-4-.16-5.48-.23-3.72-.18-7.44-.46-11.16-.41a18.56,18.56,0,0,1-2.69-.06,15.47,15.47,0,0,1-2-.67c-1-.26-2.18.07-2.46-1.18a8,8,0,0,1-2.46.67,18,18,0,0,1-2.27.39s-2-.94-1.79-.69c-.12-.13-.36-.86-.44-.9-.86-.51-.08.06-.85-.07.46.07-1.17-.06-.93-.23-.47.18-.55.46-1,.64a21.8,21.8,0,0,0-2.1.59c-.52.26-.23.86-1.09,1-1.33.26-.64-.49-1.46-.82-1.4-.56-3.7,2.39-5.31.48-.36-.43.08-1.26-.09-1.44-.4-.43-.77.24-1.07.23a.78.78,0,0,1-.78.44.72.72,0,0,1-.1-.54s-.34-.45-.55-.49a12.58,12.58,0,0,1-1,.74,13.47,13.47,0,0,1-4.28.91c-3.49.42-6.83.48-10.32,1.24-7.06,1.55-14.07,3.33-21.12,4.9-3.48.77-7,1.52-10.43,2.31-2.82.64-5.45,2-8.32,1a12.33,12.33,0,0,0-3.4-1.08,22,22,0,0,0-3.71.32c-.2,0-.9.35-1.05.25s-.41-.76-.3-.7c-.32-.16.08-.67-.69-.46-.32.08-.5.77-.8.93-.9.51-1.11-.25-2-.1s-1,1.12-1.74,1.4c-.48.18-.91-.25-1.35-.09s-.6.67-1,1c-1.43,1.3-1.49.26-2.79.18-.47,0-.84.51-1.3.44s-.88-.75-1.43-.92-2.05-.32-2.42.29c-.55.9.8,1.08-.42,2.13a11,11,0,0,1-4.6,1.84,5.27,5.27,0,0,1-1.37.14c-.74,0-1.11-.53-1.76-.64-1.35-.24-1.12,1.06-2.24,1.22-.9.14-.81-.74-1.49-1.11-.41-.23-.59.33-.61.32a3.31,3.31,0,0,1-.68-.88c-.91-.13-.75,1.21-1.46,1.15s-.2-2-1.11-1.62c-.75.33-.1,1.86-.66,2.26s-1.68-.86-1.59-1a11.31,11.31,0,0,1-1.76,2.77c-.41.37-1,1-1.65.68-.4-.18-.37-1.23-.73-1.26-.61-.06-.6,1.09-1.13,1.48a1.39,1.39,0,0,1-2.28-.47c-.87.75-.67,1.31-1.85,1.84-.92.42-1.87,1.05-2.8,1.41s-1.95.16-3,.5A14.3,14.3,0,0,1,139,220a25.83,25.83,0,0,0-7.46,2c-.65.25-2.26.53-2.58,1.18-.65,1.29,1.07,1.42,1.86,1.48,5.43.41,11-.13,16.42.19,5.78.34,11.53.34,17.3.85s11.58-.21,17.33-.69c6.1-.49,12.18-.8,18.3-.7s12.15.62,18.23.9,12,.32,17.93.86a112.75,112.75,0,0,0,16.72.8c6.13-.33,12.26-.46,18.39-.82,12.3-.71,24.59-1.79,36.88-2.67a357,357,0,0,1,36.42-1.12c12.09.37,24.23,1.32,36.32,1.36,6.83,0,13.65.68,20.47.56s13.73-.4,20.58-.94a164.31,164.31,0,0,1,20-.36c2,.08,8.75,1.34,8.37-2.23C450.38,219.18,447.86,218.94,446.87,218.32Zm-39.39,3.46c-12.91.34-25.86-.47-38.75-1-11.42-.47-22.85-1-34.29-.93s-22.88,1.11-34.3,2-22.9,1.73-34.37,2.29c-5.64.27-11.3.56-16.95.43-5.82-.13-11.62-.82-17.43-1.14-11.24-.64-22.51-1.57-33.77-1.58-10,0-20,1.84-30,1.6-2.37-.05-26.17-1.37-26.18-1.35.07-.78,4.51-1.31,5.18-1.61a33,33,0,0,1,4.22-2c1.43-.41,2.93-.47,4.35-.9,2.81-.84,4.89-3.4,8.05-2.89,1.59.26,2.31.55,3.9.05a21.07,21.07,0,0,1,4.35-.46,10.93,10.93,0,0,0,4.73-1.51c.87-.57,1.53-1.64,2.54-2s2.31.39,3.45.42a6,6,0,0,0,3.1-1.1,12,12,0,0,1,4.5-1.7c1.43-.15,2.85.05,4.28-.13a10.36,10.36,0,0,1,4,0,16.71,16.71,0,0,0,4,.84c3.06,0,6.05-1,9-1.73s6-1.24,9-1.91c6.34-1.42,12.6-3.11,19-4.37q5.21-1,10.47-1.59c2.87-.3,5.28-1,8.06,0a10,10,0,0,0,4.55.31c1.31-.08,2.58.27,3.85-.19s2.06-1.49,3.4-1.36,2.42,1.13,3.85,1.21,3.13-.52,4.55-.07c1,.32,1.06.85,2.06,1a21.69,21.69,0,0,0,3.4-.2c1.57,0,3.14.07,4.71.15,3.35.16,6.69.42,10,.61,2.55.13,5,.21,6.94-1.74,1.14,3.49,5.6,3.71,8.66,3.68,4.39-.05,8.82-.29,13.21-.63a108.46,108.46,0,0,0,14.91-2,16.43,16.43,0,0,1,2.39-.74c.78,0,1.21.45,1.92.69,1.6.56,3.18,0,4.74-.42a6.6,6.6,0,0,1,4.85.06c1.62.77,2.7,1.78,4.58,1.16.87-.29,1.49-1,2.45-1a7.21,7.21,0,0,1,2.44.63,54.23,54.23,0,0,0,7,1.25,135.46,135.46,0,0,0,15.3,1.77c4.62.26,9.39,1.21,14,1,2-.1,4.08-1,5.92,0,1.44.82,2.33,2.71,4.17,1.88.53-.24.72-1.15,1.51-.9.56.17.65,1.34,1,1.76.87,1.19,2.65,1.84,3.33.12,1.34,2.32,3.27.61,5.2,1.25,1,.35,1.44,1.4,2.33,1.94a5.38,5.38,0,0,0,3.17.37c2.31-.06,3.14.86,5,2,1.19.76,2.36.47,3.59,1,.86.36,1.34,1.37,2.33,1.46,1.57,2.7,5.14,2.68,7.2,4.8C433.2,219.63,420.37,221.45,407.48,221.78Z" fill="#50d6cc"/><path d="M329.66,213.67a16.86,16.86,0,0,0-5-.4s-3.47-.23-3.37-.32a.22.22,0,0,0,.07.31,10.29,10.29,0,0,1-1.36,0c.46,0-.12.66-.17.7a7.64,7.64,0,0,1-1.51.13s-1,1.08-1.31.56c.5,1.25,4,.4,5.22.31s2.54-.22,3.81-.2a7,7,0,0,0,3.83-.82A.26.26,0,0,0,329.66,213.67Z" fill="#50d6cc"/><path d="M373.93,211.3c-.27-.1.27-.38-.05-.5s-1.29.6-.43-.42a10.82,10.82,0,0,1-1.09.37c-1.16-.31.11-.16-.34-.57.06.06-1.18-1.43-1.18-1a3.07,3.07,0,0,1,.41.47c-.26-.54-1.53,0-2-.3s-.49-1.05-.88-1.17c-.81-.25-.2.14-.67.36s-.81.77-1.34.7-.45-.7-1-.79c-1.47-.27-.25.49-.38.89s-2,.22-2,.59.77,0,.79.24c0,.75-1.75-.08-1.87.59,0,.16,5.34.45,5.83.46s6.22.74,6.37.32C373.92,211.51,373.85,211.42,373.93,211.3Z" fill="#50d6cc"/><path d="M352.15,213.62c-.36-.08-.63.29-1,.17-1.54-.47-.16-.42-.14-.94q-.89-.07-.15-.6c-.15-.32-1.27.76-1.63.55-.67-.38.61-.72,0-1.21a10.71,10.71,0,0,0-1.4,0c-.26,0-.59.14-.85,0s-.23-.94-.8-.87c-.18,0-.17.79-.53.82s-.77-.38-1.18-.35a3,3,0,0,0,0,.42c-.5.16-.42-1-.68-1.23.49.35-3.46,1.94-3.46,1.36,0,.47,1,.64,1.12,1-.18-.53-3.36.14-2.86,1.48-.06-.17,5.68-.58,5,.23.13-.72,4.43.07,5.13.11s4.53-.2,4-.64C351.39,214.09,352.69,213.73,352.15,213.62Z" fill="#50d6cc"/><path d="M213.12,172.87a.58.58,0,0,1,0,.19S213.14,173,213.12,172.87Z" fill="#50d6cc"/><path d="M369.19,188.58l-.14,0C369.13,188.58,369.17,188.59,369.19,188.58Z" fill="#50d6cc"/><path d="M319.26,173.73a.47.47,0,0,1,0-.2C319.25,173.61,319.23,173.68,319.26,173.73Z" fill="#50d6cc"/><path d="M204.62,131.35c-.22.24.77.57.89.64a10.61,10.61,0,0,1,1.32.69C206.54,132.19,205.38,130.52,204.62,131.35Z" fill="#50d6cc"/><path d="M206.35,159.7c-.79.79.58,1.3.91.91C207.55,159.89,207.06,159,206.35,159.7Z" fill="#50d6cc"/><path d="M266.79,129.57c.48-.4-1.28-4.51-1.78-4.79-1.05-.58-.44.55-.18,1.18.5,1.22,1,1.89.08,3.14a4.41,4.41,0,0,1-.79-1.39c-.06-.56.5-.5.48-.66,0-.38-.91-2.61-1.27-2.61s-.56,4.13-.54,4.59c.16,2.91,1.63.61,1-.34.39.6.54,1.78.82,2.18-.11-.16.33.07.41.16s.12,1,.46,1,0-1.31.05-1.42c0-.45.46-1.07.46-1.37C266.09,129.29,266.76,129.6,266.79,129.57Z" fill="#50d6cc"/><path d="M264.32,134.2c0,.12.43,2,.78,1.8C266.67,135.28,263.06,128.79,264.32,134.2Z" fill="#50d6cc"/><path d="M262.86,132.24c-.3.27-.16.59,0,1C263.11,133.82,263.65,131.92,262.86,132.24Z" fill="#50d6cc"/><path d="M267.35,136c1.23,0-1-3.79-1-3.86C266.05,132.66,266.67,136,267.35,136Z" fill="#50d6cc"/><path d="M267.55,125.59c-.31-.28-1.09-.67-1.35-.32-.61.79,1.62,3.16.66,4.61-.47.7-1,0-.89,1.13.11,1.53.59.09.9,0s.58,1.58,1,1.64c.84.11-.09-1.7.69-1.57,1-.08-.66-2.89-.7-3.47C267.82,126.67,268.4,126.37,267.55,125.59Z" fill="#50d6cc"/><path d="M273,110.09c.23.12.4-.84.42-.94a.65.65,0,0,0-.08-.82C272.76,108.33,272.55,109.86,273,110.09Z" fill="#50d6cc"/><path d="M263.24,153.54c.63.92,1.16.31.64-.58C263.08,151.58,262.29,152.49,263.24,153.54Z" fill="#50d6cc"/><path d="M271.93,132.77a16,16,0,0,0-.91,1.43s-.55-3.08-1-3-.11,1-.05,1.29c.08.53,1.2,4.28,1.76,2.36C271.84,134.58,272.63,132.92,271.93,132.77Z" fill="#50d6cc"/><path d="M270.12,130.77c.43,0-.05-2-.16-2.13-.44-.73-1.81-1.1-1,0C269.17,129,269.6,130.78,270.12,130.77Z" fill="#50d6cc"/><path d="M273.29,105.86c-.06,0-.65-.67-.65.2S273.31,105.85,273.29,105.86Z" fill="#50d6cc"/><path d="M249.74,117.71c-.73.4.62,3.41.32,3.57.6-.31.34-1.89.35-2.43a15.72,15.72,0,0,1,.89,3.82c1.62-1,.48-1.93-.14-3.15C251,119.2,250.41,117.33,249.74,117.71Z" fill="#50d6cc"/><path d="M257.6,130.33c.85-.15.28-3,1.12-3.48.67-.36.84,1.69,1-.28a8.4,8.4,0,0,0-.67-2.18c-.11-.43-1.24-4.81-1.14-4.88-.75.49.22,4.92-.89,4.91-.29,0-.14-2.77-.3-3.06-.39-.74-.82-.47-1-1.33s1.68-5.3.8-5.76c-1.2-.62-1.23,5.31-1.44,5.33-.91.1,0-4-.78-4s-.36,4.69-1,1.94c-.81-3.44-.22,1.44-1,1.44-.38,0-.12-2.3-.47-2.51-.94-.58-.13,2.53,0,2.9a13,13,0,0,1,.87,2.09c.1.72-.45,1.34-.36,2,.23,1.68,1.1-1.11,1.25-1.6,0,.54-.28,1.81.21,2.22.23.2,1.85.13,1.71-.36.19.67-.38,1.32-.12,2,.07.19.57,0,.56,0,.15.43.07.62,0,1.27-.47,2.7.54.21.77.34.94-1.14,1.21-2.87,1.56-4.26C258.26,123.57,256.52,130.52,257.6,130.33Z" fill="#50d6cc"/><path d="M257.42,134.9c-.54-.09-.56.92-.21,1.24C257.77,136.65,258.15,135,257.42,134.9Z" fill="#50d6cc"/><path d="M255.25,135.43s.71,1.86,1,1.52C257.05,136,254.05,132,255.25,135.43Z" fill="#50d6cc"/><path d="M262.61,154.59c-.5-.11.37,1.68.52,1.48s.08-.22.11-.33C263.31,155.43,263,154.65,262.61,154.59Z" fill="#50d6cc"/><path d="M253.24,125.43c-.53.16-.11,1.79.4,1.79C254.17,126.85,253.85,125.24,253.24,125.43Z" fill="#50d6cc"/><path d="M262.29,156.42c-.51-.11.36,1.67.51,1.47s.07-.22.11-.33C263,157.26,262.62,156.49,262.29,156.42Z" fill="#50d6cc"/><path d="M262.32,136.37c.27-.37-1-3.69-1.42-3.69a.66.66,0,0,0-.11.84C260.89,133.89,261.62,137.34,262.32,136.37Z" fill="#50d6cc"/><path d="M260.1,140.71c-.34.32.65,1.12.93,1.12C261.71,141.87,260.72,140.25,260.1,140.71Z" fill="#50d6cc"/><path d="M260.56,139.34c.38-.44-.43-2.47-1.08-2.38S260.21,139.74,260.56,139.34Z" fill="#50d6cc"/><path d="M257.83,136.94a8.06,8.06,0,0,0,.35,2.54c1,1.74.18-.24.93-.49C259.55,138.9,258.42,136.91,257.83,136.94Z" fill="#50d6cc"/><path d="M280.52,125.88c-.36.54,1.76,2.83,2.34,2.83C284.38,128.17,280.6,125.75,280.52,125.88Z" fill="#50d6cc"/><path d="M280.71,121.19c-.23-.18-1.83-1.43-2-1.19s.59,1.46.88,1.39a1.86,1.86,0,0,0-.76.26c.14-.2.51,1.22.51,1.22.11.42,0,1.27.24,1.75,1,1.69,2.44-.28,3.08.84-.07-.12.46.9.65.7C284.47,125,281.32,121.69,280.71,121.19Z" fill="#50d6cc"/><path d="M277.69,125.08c.43.7,1.27.7.8-.27S276.92,124,277.69,125.08Z" fill="#50d6cc"/><path d="M278.47,111c-.05,0-1.15,0-1.17.37C277.2,112.63,281.45,111,278.47,111Z" fill="#50d6cc"/><path d="M277.45,105.77c-.2.14-.89,1.66-.26,1.75S278.32,105.47,277.45,105.77Z" fill="#50d6cc"/><path d="M284.69,109.3c-.47.12-1,1.29-.35,1.1C284.58,110.3,285.28,109.15,284.69,109.3Z" fill="#50d6cc"/><path d="M285.6,124.16c.44-.3.27-.45.12-.84S284.85,124.16,285.6,124.16Z" fill="#50d6cc"/><path d="M285.43,113c-.52-.51-1.14.52-.51.52C285.34,113.46,285.51,113.28,285.43,113Z" fill="#50d6cc"/><path d="M276.28,108.66c-.47,0-.45,1.2,0,1.2C276.53,109.66,276.88,108.66,276.28,108.66Z" fill="#50d6cc"/><path d="M283.4,122.68c-.34.25.39,1.75,1,.9C284.43,123.29,283.82,122.38,283.4,122.68Z" fill="#50d6cc"/><path d="M282.4,108.81c.15-.14.87-1,.28-1.1C281.82,107.57,282.23,109,282.4,108.81Z" fill="#50d6cc"/><path d="M281.16,108.89c.3-.11.06-.92-.2-.74C280.94,108.23,280.66,109.06,281.16,108.89Z" fill="#50d6cc"/><path d="M273.93,104.08c-.05.07-.55,1.19-.19,1.15l.43-.32C274.66,104.46,274.29,103.51,273.93,104.08Z" fill="#50d6cc"/><path d="M282.46,107c.15-.28.22-.87-.33-.59C281.09,106.72,282.07,107.72,282.46,107Z" fill="#50d6cc"/><path d="M284.76,106.94a1.41,1.41,0,0,0-.46.9C284.83,109,286,104.78,284.76,106.94Z" fill="#50d6cc"/><path d="M278.06,113.59c.06.45,1.89,1.52,1.91.81S278,112.78,278.06,113.59Z" fill="#50d6cc"/><path d="M277.3,104.84c.29-.22,1.3-.45.69-.93-.42-.33-1.14.38-1.55.26-.76-.23-.1-.06-.62-.67-.12-.14-.44-1.56-1-.68a10.35,10.35,0,0,0,.36,1.36,16.56,16.56,0,0,0,.39,2.76c.35-.49.39-1.28.84-1.7C276.65,105,277.05,105,277.3,104.84Z" fill="#50d6cc"/><path d="M279.22,109c.23-.49-.18-1.53-.73-.71C278.24,108.79,279,109.56,279.22,109Z" fill="#50d6cc"/><path d="M281.46,118.48c.68,1,.26,1.4-.71.69-.28-.2-1.42-2.39-2-1.31-.17.3.89,1.34,1.05,1.53,1.2,1.35,3.48,3.07,2.93-.07-.07-.43-.5-4.6-1.71-3.77-.51.35.57,1.47-.57,1.08C279.12,116.58,281.24,118.15,281.46,118.48Z" fill="#50d6cc"/><path d="M279.22,115.64c-1,1.59,1.8-.11,0,0Z" fill="#50d6cc"/><path d="M238.19,180.62c-.49.06-.16,2.2.06,2.42s.34-.81.35-.86C238.67,181.84,238.74,180.62,238.19,180.62Z" fill="#50d6cc"/><path d="M257,162.65c.07.19.42.81.7.79C259.09,163.36,255.72,159.64,257,162.65Z" fill="#50d6cc"/><path d="M269,140c.52.2.09-1.45-.59-.8C268.41,139.65,268.55,139.82,269,140Z" fill="#50d6cc"/><path d="M247.17,159.54c-.41.24,1.16,2,1.56,2.07C249.4,161,247.68,159.25,247.17,159.54Z" fill="#50d6cc"/><path d="M271.81,107.69a.51.51,0,0,0-.07-.77C271.81,106.83,271,108.06,271.81,107.69Z" fill="#50d6cc"/><path d="M238,185.21c-.37-.13-.61,2.3,0,2.3C238.32,187,238.68,185.56,238,185.21Z" fill="#50d6cc"/><path d="M270.28,104.37c-1.28.93,1.23-.05,0,0Z" fill="#50d6cc"/><path d="M271,106.17c.46.08.88-1.73.4-1.8S270.26,106,271,106.17Z" fill="#50d6cc"/><path d="M268.86,105.75c.57.37.6-1.4.12-1.4C268.7,104.63,268.4,105.45,268.86,105.75Z" fill="#50d6cc"/><path d="M249.93,122.2c-.72.92.23,2,.61.59C250.78,122,250.49,121.48,249.93,122.2Z" fill="#50d6cc"/><path d="M268.64,109.37c.23-.2.66-1.37,0-1.37C268.43,108.22,268.15,109.64,268.64,109.37Z" fill="#50d6cc"/><path d="M234.66,188.42c-.46,0-.45,1.52,0,1.52S235.13,188.42,234.66,188.42Z" fill="#50d6cc"/><path d="M326.53,130c-1,.46,1.78,4.66.55.67A.65.65,0,0,0,326.53,130Z" fill="#50d6cc"/><path d="M326.9,126.17c.17.2.86,1.43,1.19,1.25.78-.44-1.46-3.48-2.21-3.5a1.6,1.6,0,0,0,0,1.35C326.23,126.09,326.57,125.79,326.9,126.17Z" fill="#50d6cc"/><path d="M290,118.49c-1.38,2,1.65-.22,0,0Z" fill="#50d6cc"/><path d="M325.73,128.62c.33-.35,0-2.58-.51-2.36C325,126.71,325.53,128.82,325.73,128.62Z" fill="#50d6cc"/><path d="M324.38,123.24c-.5,2,.92-.39,0,0Z" fill="#50d6cc"/><path d="M246.33,122.92c-.52,0-.32,1.43-.11,1.62C247.13,125.07,246.58,122.92,246.33,122.92Z" fill="#50d6cc"/><path d="M246.46,118.13c-.63-.1-.37,2,.24,2C247,119.86,247.33,118.26,246.46,118.13Z" fill="#50d6cc"/><path d="M248.49,120.48c-.67.3.42,3,.6,2.78S249.15,120.18,248.49,120.48Z" fill="#50d6cc"/><path d="M244.81,122.4c-.48.34-.45,4.78.53,4.78C245.76,126.55,245,122.29,244.81,122.4Z" fill="#50d6cc"/><path d="M269.64,107.09s.78-.92,0-.92S269.64,107.07,269.64,107.09Z" fill="#50d6cc"/><path d="M259.35,120.91c.57-.1.42-3-.28-2.78C258.67,118.21,258.86,121,259.35,120.91Z" fill="#50d6cc"/><path d="M259.86,122.94l-.29.54c-.08.41-.17,2.79.52,2.43S259.93,122.91,259.86,122.94Z" fill="#50d6cc"/><path d="M259.91,129c.15-.81-.46-1.07-.87-.41C258.51,129.43,259.7,130.65,259.91,129Z" fill="#50d6cc"/><path d="M258.41,114.69a2.15,2.15,0,0,0,.4-1.39l-.54.41C257.85,114.06,257.57,115.11,258.41,114.69Z" fill="#50d6cc"/><path d="M255.84,113.21c.23,0,.18-.64-.2-.6S255.69,113.21,255.84,113.21Z" fill="#50d6cc"/><path d="M257.72,108.93c-.62,0-1,1.65-.64,2S258.42,108.93,257.72,108.93Z" fill="#50d6cc"/><path d="M255.33,115c.46,0,.45-1.21,0-1.21C255.13,113.94,254.68,115,255.33,115Z" fill="#50d6cc"/><path d="M259.36,136a.76.76,0,0,0,.43.58C261.18,136.15,257.47,131.38,259.36,136Z" fill="#50d6cc"/><path d="M257.23,119.38c0-.09,1.52-3.45.85-3.31-.5.1-.74,1.9-1.09,2.3C256.08,119.32,256.08,121.31,257.23,119.38Z" fill="#50d6cc"/><path d="M265.32,109.52c.39,0,.67-2.91.7-3.22.05-.54.34-1.08-.16-1.21-.69-.18-.94,1-.94,1.45S264.71,109.47,265.32,109.52Z" fill="#50d6cc"/><path d="M265.37,123.52c-.19,0,.94,1.47.94.2C266.28,122.9,265.52,123.54,265.37,123.52Z" fill="#50d6cc"/><path d="M267.89,105.56c.26-.91-.47-1.57-.92-.56S267.56,106.67,267.89,105.56Z" fill="#50d6cc"/><path d="M265.2,110.85c0-.2,0-.4,0-.6C264.9,110,265,111.42,265.2,110.85Z" fill="#50d6cc"/><path d="M260.89,109.35c.07-.25-.36-2.42-.61-2.36-.55.15-.37,2.29-.48,2.69C259.24,110.94,260.66,110.11,260.89,109.35Z" fill="#50d6cc"/><path d="M267,109.7c.12-.08.62-1.06,0-1.06C266.76,108.81,266.51,110,267,109.7Z" fill="#50d6cc"/><path d="M261.32,112.92c.45,0,.5-2.43,0-2.43C261.15,110.67,260.55,112.92,261.32,112.92Z" fill="#50d6cc"/><path d="M261,125.61c-.15.06-.87,1.55-.42,1.77C261.38,127.77,261.61,125.72,261,125.61Z" fill="#50d6cc"/><path d="M264.1,110c.77-.34.43-2.68-.13-1.67C263.83,108.6,263.32,110.38,264.1,110Z" fill="#50d6cc"/><path d="M262.35,109.27c.42.2,1.3-3.64.88-3.52S261.62,108.93,262.35,109.27Z" fill="#50d6cc"/><path d="M357.76,135.59c-.32.29-.13.59,0,1S358.66,135.5,357.76,135.59Z" fill="#50d6cc"/><path d="M355.73,118.88c-.07-.37-.63-.72-1-.79C354.63,118.66,355.75,119,355.73,118.88Z" fill="#50d6cc"/><path d="M353.12,154.57a3.9,3.9,0,0,0-.06-1.89S353,155.25,353.12,154.57Z" fill="#50d6cc"/><path d="M353.32,137.41c-.28.27.21,1.41.59,1.41C354,138.56,353.61,137.17,353.32,137.41Z" fill="#50d6cc"/><path d="M350.37,154.77c-.21,0-.05,1.43.08,1C350.45,155.71,350.66,154.77,350.37,154.77Z" fill="#50d6cc"/><path d="M353.21,129.61c.77.06-.77-2.07-1.33-2.07C351.87,127.84,352.65,129.57,353.21,129.61Z" fill="#50d6cc"/><path d="M328.05,189.2a28.07,28.07,0,0,0,.53-3.51,8.12,8.12,0,0,0-.05-1.34C327.12,184.85,327.89,188.17,328.05,189.2Z" fill="#50d6cc"/><path d="M353.68,134.26s-1.35-4.87-2.39-5.2C351.16,129.31,353,134.26,353.68,134.26Z" fill="#50d6cc"/><path d="M349.19,132.08s1.33,4.78,1.42,5.19.24,1.86.79,1.86C351.07,139.13,350.76,132.08,349.19,132.08Z" fill="#50d6cc"/><path d="M350.8,141.51s0,0-.05,0Z" fill="#50d6cc"/><path d="M349.7,129.8c.07,0-.3,2,.26,2.17.35.1.26-1,.52-.85.7.28,1.12,3.69,1,4.64l0-.09C352.94,134.13,351.33,130.58,349.7,129.8Z" fill="#50d6cc"/><path d="M352.79,135.7c.07.11.14.23.22.34.39-.08,0-1.82-.46-1.82S352.74,135.59,352.79,135.7Z" fill="#50d6cc"/><path d="M349.33,149.48c-.1,0-.25,1.16.22,1.16C350.22,150.64,349.59,149.56,349.33,149.48Z" fill="#50d6cc"/><path d="M349.17,126.87c-.43.6,0,1.62.22,2.3C349.46,128.72,349.84,126.87,349.17,126.87Z" fill="#50d6cc"/><path d="M353.81,126.81c.23-.2-.49-1.08-.53-1S353.35,127.24,353.81,126.81Z" fill="#50d6cc"/><path d="M335.38,175.39c-.22.23.23,1.22.44,1S335.69,175.26,335.38,175.39Z" fill="#50d6cc"/><path d="M337.89,144.11a3.84,3.84,0,0,0,.26,1.1C338.08,144.88,338,144.46,337.89,144.11Z" fill="#50d6cc"/><path d="M333.16,179.69a4.41,4.41,0,0,0-.48-2.11C332.48,177.43,332.91,180.34,333.16,179.69Z" fill="#50d6cc"/><path d="M338.58,146.82a3.46,3.46,0,0,0,.17.93C338.69,147.44,338.64,147.13,338.58,146.82Z" fill="#50d6cc"/><path d="M328.8,189.58a1.93,1.93,0,0,0-.07-1.19A4.83,4.83,0,0,0,328.8,189.58Z" fill="#50d6cc"/><path d="M330,178.79a2.8,2.8,0,0,0,.16,1.85C330.8,181.23,330.38,178.36,330,178.79Z" fill="#50d6cc"/><path d="M348,158c-.14,0,0,1.13.13,1.25s.06.17.29.14S348.18,158.08,348,158Z" fill="#50d6cc"/><path d="M342.35,167.47c-.23,0,.08,1.1.49.72C343.06,168,342.48,167.52,342.35,167.47Z" fill="#50d6cc"/><path d="M337,147.24l-.15-.09C336.9,147.26,336.94,147.3,337,147.24Z" fill="#50d6cc"/><path d="M340.85,148.24c.21.08,1.46,4.8,1.11,5.23s-.51-1.17-1,.1c-.13.32.16,2.9.62,2.9s.19-.75.13-1.22a.51.51,0,0,1,0-.34,1.21,1.21,0,0,0,0,.34c.2.57,1.12,1.24,1.4,1.77-.22-1-.94-3.24-.58-3.28s1.4,2.21,1.6,2c-.22-1.62-1.34-3-1.86-4.57C342,150.42,341.78,148.56,340.85,148.24Z" fill="#50d6cc"/><path d="M339.74,148.79c.05.9-.17,1.78-.12,2.67,0,.59.38,1.28.11,1.87.34-.74-1.21-2.11-1.55-2.61-.15-.23-.63-2.19-1.15-2.13.51-.1.53,7.29.67,7.34-.51-.16-.75-3.7-1.19-1.78-.29,1.29.64,3.78,1.21,4.93-.12-.12-.09-1.32.13-1.35.4,0,1.22,2.93,1.24,2.9,0-.3-.52-8.57-.66-8.63,1.45.62.93,4.64,1.31,5.91C341.82,157.39,340.34,150.09,339.74,148.79Z" fill="#50d6cc"/><path d="M340.56,168.33a.85.85,0,0,0,.07.92,1.17,1.17,0,0,0,.49.77C341.43,169.93,341,168.33,340.56,168.33Z" fill="#50d6cc"/><path d="M350.78,145.84c-.1.18-.82,2.37-.24,2.37C350.68,148.05,351.23,145.84,350.78,145.84Z" fill="#50d6cc"/><path d="M363.43,129c.41-.4-1.67-3.44-2.16-3.54A15.71,15.71,0,0,0,363.43,129Z" fill="#50d6cc"/><path d="M363.67,133c.05-.12.09-.24.14-.35,0-.3-.06-1.45-.53-1.45C363.31,131.2,363.17,133,363.67,133Z" fill="#50d6cc"/><path d="M364.64,136.12c0,.36.14,1.55.66,1.68S364.86,135.2,364.64,136.12Z" fill="#50d6cc"/><path d="M363.58,137c-.34,0,.21,3.54.75,3.18s-.46-1.82-.44-2.18C363.89,137.84,363.89,137,363.58,137Z" fill="#50d6cc"/><path d="M362.2,135.75c1.3-1.07-1.21,0,0,0Z" fill="#50d6cc"/><path d="M362.79,141.05c.8-.34-.18-1.57-.17-1.58C362.3,139.71,362.64,140.81,362.79,141.05Z" fill="#50d6cc"/><path d="M366.74,118.93c-.07-.34-.9-3.16-1.37-3.16C365.37,116.15,366.4,119.24,366.74,118.93Z" fill="#50d6cc"/><path d="M367,128.24c-.26,0,.45,1.44.53,1.89s-.23,2.61.53,1.77c-.17,0,.75,3.4,1.43,2.78,0-.05-1-2.49-1-2.89C368.15,130.09,368.73,128.87,367,128.24Z" fill="#50d6cc"/><path d="M366.69,134.58c-.17-.79-.39-1.77-.78-.5-.24.79.67,4.59,1.45,4.66.09-.23.17-.46.25-.7.12-.66-.66-1.33-.82-1.95S366.8,135.06,366.69,134.58Z" fill="#50d6cc"/><path d="M367.09,129.57a.58.58,0,0,0-.41-.53,2.92,2.92,0,0,1-.14.31C366.64,129.44,366.92,130,367.09,129.57Z" fill="#50d6cc"/><path d="M366.67,132.15c-.21,0-.11,1.07.11.61C366.77,132.69,366.81,132.13,366.67,132.15Z" fill="#50d6cc"/><path d="M361.78,142.35c.14-.11.23,0,.25.32.44,0-.35-2.53-.45-2.8A8,8,0,0,0,361.78,142.35Z" fill="#50d6cc"/><path d="M358.35,143.83a1.92,1.92,0,0,0-.05,1.11C358.26,144.86,358.53,144.14,358.35,143.83Z" fill="#50d6cc"/><path d="M361.55,131.18c-1.32,1,1.22,0,0,0Z" fill="#50d6cc"/><path d="M355.39,133.44c.7,0-1.29-3.44-1.34-3.37C354.16,130.57,354.85,133.47,355.39,133.44Z" fill="#50d6cc"/><path d="M354,123.6a.37.37,0,0,0-.39,0c-.14.55,1,1.64,1.21,2.07a16,16,0,0,1,1.06,2.61c.11.34,1.31,3.64,1.58,3.39C358.24,131,355,123.6,354,123.6Z" fill="#50d6cc"/><path d="M353.88,125.07c-.4.14.87,4.49,1,4.85,0,.08,1.62,3.24,1.59,3.35.07-1.73-1.21-3.18-1.57-4.82C354.81,128.1,354.82,124.75,353.88,125.07Z" fill="#50d6cc"/><path d="M352.9,139.6c-.22-.3-.1-.74-.22-1.06S352.06,137,352,137a8.87,8.87,0,0,0,1.24,4.86,4.22,4.22,0,0,0,.87.88s.72.91.51.86c1,.26-.5-3.37-.79-3.65S353.08,139.83,352.9,139.6Z" fill="#50d6cc"/><path d="M355.27,137.38s-1-.91-1-.52,1.08,1.34.88,1.54c-1.39-.53-.05,1-.16,1.45.65-1.31.75,4,1,4s.11-1.06.12-1.19a12.51,12.51,0,0,0-.21-3.56A4,4,0,0,0,355.27,137.38Z" fill="#50d6cc"/><path d="M357.76,142.08c.15-.47-.09-.81-.09-1.19A5.25,5.25,0,0,0,357.76,142.08Z" fill="#50d6cc"/><path d="M360.54,140.78c-.11.14-.56,1.86,0,1.54C360.69,142.17,361.23,140.66,360.54,140.78Z" fill="#50d6cc"/><path d="M356.26,122.93a.72.72,0,0,1-.18.26c-.83-.51-1.41-1.93-2.45-2.08,1,.14,2.26,3.35,2.61,4.18.5,1.13.59,4.15,1.89,4.66,0,0-.52-2-.5-2,.76-.71,1.58,2.63,1.94,2.63a22.48,22.48,0,0,0-.79-3.78C358.26,125.45,356.93,124.27,356.26,122.93Z" fill="#50d6cc"/><path d="M353,145.63c-.08,0,.43,2.17.37,2.33l.11-.54C353.52,147,353.55,145.72,353,145.63Z" fill="#50d6cc"/><path d="M358.88,134.07c-.17.32-.2,1.3.4,1.39S359.41,133.89,358.88,134.07Z" fill="#50d6cc"/><path d="M359,138.88s-.42,2.36.22,2.36C359.47,140.92,359.52,139,359,138.88Z" fill="#50d6cc"/><path d="M306.9,145.76a18.1,18.1,0,0,1-.77,2.91,9.54,9.54,0,0,0,.13,2.81c0,.42.49,5.56.6,5.56,1.47,0,1.37-8.83,1.14-8.83C307.69,147.86,307.5,145.76,306.9,145.76Z" fill="#50d6cc"/><path d="M291.88,136.7c-1.14-.62.49,3.13.65,3.57l0,.06C292.37,139.48,292.79,137.19,291.88,136.7Z" fill="#50d6cc"/><path d="M288.44,120.21c0,.1,1.07-.69,0-.62S288.44,120.3,288.44,120.21Z" fill="#50d6cc"/><path d="M290.78,139.45c-.51.07,0,3.25,0,3.51C291.6,148.38,291.85,139.41,290.78,139.45Z" fill="#50d6cc"/><path d="M292.5,135c-.37,0,.28,1.57.31,1.62C294.32,140.11,293.78,134.82,292.5,135Z" fill="#50d6cc"/><path d="M288.6,142.7c-.42,0-.71,3.66-.42,3.66C288.72,146.12,289.42,142.7,288.6,142.7Z" fill="#50d6cc"/><path d="M289.42,141.48c-.88.51.81,4.72.85,4.68C290.42,145.75,289.92,141.29,289.42,141.48Z" fill="#50d6cc"/><path d="M288.93,148.5c0-.17-.71,1.14,0,.75C289.75,148.26,288.93,149,288.93,148.5Z" fill="#50d6cc"/><path d="M303.61,156.43a.73.73,0,0,0,.13-1.08C303.66,155.25,302.78,156.3,303.61,156.43Z" fill="#50d6cc"/><path d="M302.79,152.35c-.39.14-.17,2,.14,1.8C303.07,154,303.62,152.06,302.79,152.35Z" fill="#50d6cc"/><path d="M305,148.21c-.67-.17-.09,1.38-1.13.35-.21-.21-.4-2-.82-.9a4.13,4.13,0,0,0,.45,2.26c.18.43.75.68.72,1.2,0,.15-.68.1-.73.34-.22,1,.61,1.68,1,2.66.24.61.14,1.51.49,2,1.12,1.65-.15-2.49.6-2.91.66-.87.37-1.92.12-2.87C305.63,150.14,305.33,148.29,305,148.21Z" fill="#50d6cc"/><path d="M300.21,145.15c-.26-.35-.79,1.47.15.62C300.62,145.27,300.51,145.54,300.21,145.15Z" fill="#50d6cc"/><path d="M305.49,113.45c.51-.39-1-2.43-1.5-2.29C304,111.56,305,113.86,305.49,113.45Z" fill="#50d6cc"/><path d="M301.6,150c-.46,0-.53,2.43,0,2.43C301.77,152.26,302.32,150,301.6,150Z" fill="#50d6cc"/><path d="M296.66,163.11c-1,0-.53,2.94-.56,3a3.49,3.49,0,0,0,.65-1.68C296.84,164.16,297,163.17,296.66,163.11Z" fill="#50d6cc"/><path d="M288.32,122c.57-.15,1.62.33,2.1-.12,1-1-1.28-.41-1.53-.38-1.08.15-1.45-.31-1.35,1,.11,1.53,1.41,1.41,2.23,2.26C291.05,125.77,289.17,121.79,288.32,122Z" fill="#50d6cc"/><path d="M286.87,144.4c-.8-.44-.19,2.62-.08,3.13a1,1,0,0,0,.39.71C287.71,148.2,287.39,144.68,286.87,144.4Z" fill="#50d6cc"/><path d="M290.09,125.7c-.07.41.79,1.9,1.11,1.1C291.23,126.27,290.25,124.77,290.09,125.7Z" fill="#50d6cc"/><path d="M291.09,115.29c-.43.06.62,3.24,1.2,2.91C292.34,117.77,291.73,115.29,291.09,115.29Z" fill="#50d6cc"/><path d="M287.94,118.13c.11,0,.08-.08-.09-.26C285.48,118.74,287.94,119.86,287.94,118.13Z" fill="#50d6cc"/><path d="M286.92,117.09c.49,0,1.24-1.11.51-1C287.07,116.13,286.18,117.12,286.92,117.09Z" fill="#50d6cc"/><path d="M286.46,120.54s.64.67.75.55C288.27,119.87,285.08,119.15,286.46,120.54Z" fill="#50d6cc"/><path d="M291.34,112.82c-1-.25-1.34.48-.51,1.15-.17-.13.4-.31.64-.1a4.15,4.15,0,0,1,.6,1c.81,1.33,2.12,2.41,1,.19C292.81,114.44,292,113,291.34,112.82Z" fill="#50d6cc"/><path d="M292.28,111.68c-1.33,0,1.11,3.12,1.24,2.8C293.54,114,292.79,111.7,292.28,111.68Z" fill="#50d6cc"/><path d="M285.93,147.6c.54-.37.1-.34.15-.8C286.08,146.77,285.15,147.63,285.93,147.6Z" fill="#50d6cc"/><path d="M292.51,123.84a1.09,1.09,0,0,0,.1-.59C292.4,122,290.61,123.28,292.51,123.84Z" fill="#50d6cc"/><path d="M292.14,128.48c.8,1,1.25.4.75-.44C292.23,126.89,291,127.29,292.14,128.48Z" fill="#50d6cc"/><path d="M328.07,179.32c.05,0-.58,2.72-.6,3s.18,1.48,0,1.64C328.4,183.09,328.29,180.47,328.07,179.32Z" fill="#50d6cc"/><path d="M291.07,124.55a1.11,1.11,0,0,0,.57,1.13C292,125.91,292,123.8,291.07,124.55Z" fill="#50d6cc"/><path d="M321.78,119.94c-.31.29.1,1.79.53,1.79C323,121.73,322.29,119.53,321.78,119.94Z" fill="#50d6cc"/><path d="M324,126.07c.29-.17-.4-1.37-.38-1.34C321.36,121.11,323.08,126.59,324,126.07Z" fill="#50d6cc"/><path d="M321.12,122.63c.37-.2.59-.25.13-.73S320.24,122.64,321.12,122.63Z" fill="#50d6cc"/><path d="M322.37,125.63c-.54.3,1.68,2.87,1.8,2.52C324.14,127.81,323,125.29,322.37,125.63Z" fill="#50d6cc"/><path d="M314.39,134.29a4,4,0,0,0,.15,3.11C314.92,137.21,315.18,134.29,314.39,134.29Z" fill="#50d6cc"/><path d="M318.09,135.46c-.36.31.17,3,.59,3C318.92,138.07,318.6,135,318.09,135.46Z" fill="#50d6cc"/><path d="M315.6,134.81c-.54,0-.55,3.05-.05,3.05.31,0,.32-1.38.33-1.54S316,134.81,315.6,134.81Z" fill="#50d6cc"/><path d="M311,113c.75-1.84-1.38.77,0,0Z" fill="#50d6cc"/><path d="M326.48,182.72c-.4,0-.5,3.32-.24,3C326.32,185.51,326.91,182.72,326.48,182.72Z" fill="#50d6cc"/><path d="M325.4,183.09c-.22.13,0,1.36.07,1C325.45,184.16,325.59,183,325.4,183.09Z" fill="#50d6cc"/><path d="M328.4,181.88c-.18,0,0,1.12,0,1.1S328.41,182,328.4,181.88Z" fill="#50d6cc"/><path d="M323.82,185a2.26,2.26,0,0,0,.59-.81.83.83,0,0,0,.24-.91C323.88,183.25,324,184.55,323.82,185Z" fill="#50d6cc"/><path d="M361.6,121.58c-.29.27,1.08,1.38,1.39,1.38C362.9,122.57,362.15,121.47,361.6,121.58Z" fill="#50d6cc"/><path d="M334.15,153.23a.61.61,0,0,1-.15-.17A.65.65,0,0,0,334.15,153.23Z" fill="#50d6cc"/><path d="M322.57,135.74c-.49,0-.31,2.32-.07,2.54C323.42,138.25,323.15,135.74,322.57,135.74Z" fill="#50d6cc"/><path d="M308.79,142.78c-.28.22-.1,1.62.48,1.27C309.47,143.77,309.28,142.37,308.79,142.78Z" fill="#50d6cc"/><path d="M382,144.53a3.09,3.09,0,0,0,0,1.25A12,12,0,0,0,382,144.53Z" fill="#50d6cc"/><path d="M374.22,164.93a8.08,8.08,0,0,0,.16-4A16.64,16.64,0,0,0,374.22,164.93Z" fill="#50d6cc"/><path d="M372.41,165.65c-.3.2-.78,1.63-.22,1.31C372.28,166.86,372.69,165.53,372.41,165.65Z" fill="#50d6cc"/><path d="M405,191.57c-1.31-2.94-3.42-5.24-4.87-8.06-2-3.89-2.27-8.63-2.91-12.86-.49-3.19-.43-6.42-.86-9.59-.39-2.89-1.43-5.78-1.93-8.68a24.79,24.79,0,0,0-1.53-4c-.47-1.35-.75-2.74-1.16-4.1-.5-1.68-.91-2.17-.23-3.76a5,5,0,0,0,.31-3.7c-1.45-5.47-6.37-10.57-10.17-14.56s-7-8.08-11.71-11a45.18,45.18,0,0,0-6.68-3.64c-.87-.36-1.67-.87-2.54-1.24a3.63,3.63,0,0,0-.63-.39c-.86-.32-1.92-.55-2.83-.9-6.32-2.45-12.68-4.47-19.49-5.06-14.23-1.24-27.84,5.54-42,4.52a24.5,24.5,0,0,1-4.67-.7,21.92,21.92,0,0,1-3.29-1.53,14.71,14.71,0,0,1-1.42-.39c-.07-.05-.74-1-.43-.79a23,23,0,0,0-2.4-1.1c-1.19-.5-1.61-1.07-3-1.42-.14,0-1.26-.3-1.23-.28h-.37c-.42.15-.58,0-.47-.54-.75-.28-1.66-.13-2.45-.43L275.9,97q.08-.57-.51-.3a9.73,9.73,0,0,0-1.41-.31,35,35,0,0,0-7.09-.32c-.7,0-1.44.06-2.13,0-.17,0-.61-.43-.61-.43a8.12,8.12,0,0,0-1.17.49,22.75,22.75,0,0,1-2.75.39,37.28,37.28,0,0,0-8.37,2,31.33,31.33,0,0,0-7.77,4.35c-4,3.55-9.7,6-14.64,8-3.5,1.44-7.73,3.18-10.9,5.8-.5.41-1.18.75-1.64,1.15-.55,0-.76.15-.63.44a.36.36,0,0,1,0,.37c-.25.18-.75.24-1.07.46-.54.39-.79,1.14-1.38,1.54-2.3,1.56-2.66-1.7-5-2-3.15-.38-3.82,2.74-5.28,4.68-2,2.66-4.76,1.19-7-.26-1.34-.88-2-1.07-3.19.24a9,9,0,0,0-1.83,4c-.31,1.23,0,2.34-.17,3.51-.25,1.58-1.82,2.58-2.76,3.77a40.63,40.63,0,0,0-4.7,7.84,2.24,2.24,0,0,0,.19,2.62c.3.56,1.16,1.4.47,1.38,0,5-5.13,8.6-7.93,12.31a7.28,7.28,0,0,1-2.05,2.05c-.68.42-1.84.61-1.85,1.64,0,.88,1.06,1.6,1.82,1.79a5.66,5.66,0,0,0,1.59.07,1.43,1.43,0,0,1-.76.25c0,.07.57.42.17.47,0,0-.32-.41-.32-.34-.05,1.88,3.91,2.69,5.13,2.83a6.13,6.13,0,0,1,2.91.62c.36.23,1.39,1.6,1.74,1,.46-.8-1-.9.15-1.82.68-.56,1.9-.63,2.7-1.23.59-.44,2.1-2.15,3-1.5.71.52-.46,1.77-.86,2.07.65.19-.71.92-1,1.31-.59.89-.5,1.09-.23,2.08.05.16,1.2,1.19-.13.85-.22-.06-1.22-1.47-1.32-1.38a4.22,4.22,0,0,1,0,1.28c-.09,0-1.37-.87-1.46-.64,0,.05.69,1.66.71,2,.06,1-.28,1.74.49,2.61,1.51,1.72,5.13,1.47,7.07.91,2.61-.74,4.55-2.82,7.29-3.31,1.77-.31,4.16-.42,4.89,1.48-.25-.64,1.5.22,1.72.48.57.65.27,0,.41.84,0,.07-.29,1.27-.15,1.27.52,0,.22-1,.6-1s-.06.7.25.75a4.42,4.42,0,0,1,.34-1,2.58,2.58,0,0,1,.42.74c.94,0,.41-1.25.64-1.58.74-1.11.27.57,1,.43.43-1.5.77-1.73.35-3.18.34-.06,1.24.93,1.34,1.38,0-.52-.32-1.18,0-1.63.45-.66.33,1.24.54,1.24,1.21,0,.14-2.18.75-2.12.2,0,.45,1,.69.5s-.53-1.21-.54-1.63c0-2,1.25,1.13,1.36.87.22-.47-.72-1.47-.23-1.85s.63,1.27,1.09,1.35a8.32,8.32,0,0,0-.26-2c-.16-.61-.83.57-.38-1,.33.25,1,1.89,1.46,1.77s-.41-1,.07-1.22.4,1.25.8,1.11a12.69,12.69,0,0,0-.2-1.89c-.32.2-.55.14-.69-.17a1.6,1.6,0,0,1,1.4.12c.52.52-.17.45.15.94s-.45.38.23.71c-.17-.08.71-.32.09-.39a7.56,7.56,0,0,0,.78-.47c.16-.43.37-.55.6-.37a.84.84,0,0,0,.44.13c.29-.22-.64-1.51.29-1.34.44.09.13,1,.34,1,.71,0,.07-1.3.41-1.56.82-.62.36.81.86.81s.2-1.08.34-1.27.68-.28.79-.38c1.1-.92,2.16-.72,3.26-1.23.39-.19.51-.76,1-1s1.08.16,1.58,0,.69-.52,1.11-.59c.25,0,.54.25.8.19s.56-.05.8-.11a9.29,9.29,0,0,1,.84-.71.64.64,0,0,1,.59.15c.15-.06,1.18-.45,1.29-.46.61-.09,1,.18,1.54.15.89,0,2.57-1.61,3.32-.2.32.62-.9,2.23,0,2.51-.85.66-.86,2.15-1.14,3.09-.44,1.41-1,2.73-1.32,4.18a50.88,50.88,0,0,1-2.78,9.34c-2.62,6.17-8.32,10-11.61,15.67-1.36,2.36-2.41,5-5.23,5.85s-5.64.38-8.38,1.78a16,16,0,0,0-3.65,2.28c-.76.73-1,1.5-1.92,2-1.12.65-1.29.55-1.86,1.66a12,12,0,0,1-.92,2c.61,0,1.28-.77,1.76-1a10.5,10.5,0,0,1,3-1c.43.39-2.44,2.21-2.53,2.67.05-.25,3.2-1,3.56-1.07s1.16-.47,1.53-.3c.91.4.21.42,0,.95-.13.36-1,.88-.33,1.22.32.16,1.66-.61,2-.67,2.3-.43,4.36,1.24,6.74.88,1.13-.17,2.12-.87,3.25-1,1.29-.19,2.75,0,4.07,0,2.22-.14,4.2.74,6-.83,1.36-1.18,2.79-1.42,4.24-2.4a9.23,9.23,0,0,0,.91-.7c-.22.08.2-.35.27-.39s.33.64.62.47a10.34,10.34,0,0,0,.73-1c-.06.06.46,0,.51,0,.24-.15.28-.85.4-1.08,1,.74.4-.19,1-.29.18,0,.93.24.81.46.36-.68.5-1.44.89-2.11.38,1.18.45,0,.84-.12a9.2,9.2,0,0,0,1-.44,21.19,21.19,0,0,0,3.55-3.32,11.66,11.66,0,0,1,1.35-1c.23-.22.16-.73.46-1s.76-.15,1-.37a8.73,8.73,0,0,0,1.12-1.07,10,10,0,0,1,1.6-1c.55-.4,1-1,1.58-1.42.76-.57,1.65-.71,2.34-1.44s1.29-1.42,2.08-2.19c.35-.35.86-.48,1.17-.84s.31-.71.77-1.1a12.54,12.54,0,0,1,2.8-1.52c.34-.16-.34-1-.24-1.23-.06.13,1.18-.74,1.07-.65,1.3-1,1.75-2.27,2.7-3.57s1.87-3.54,3.23-4.63c1.62-1.29,2.54.25,3.45,1.74.33.54.53,1.65,1,2.07l.95.13a10.87,10.87,0,0,1,.74.91c1.14,1.12,2.34,1.65,3.26,2.78a12.09,12.09,0,0,0,3.3,3.23,34.76,34.76,0,0,1,4.38,3.67c-.35-.29.2.65.39.83.55.51,1.27.62,1.79,1.23,2,2.38-.2,3.22-2.26,3.26-4.55.1-8.59,3.55-10.75,7.38.29.34,2.2-1.69,2.33-.89s-2.24,1.39-2.24,2.24c0-.11,2.5-1,2.71-.66s-2.25,1.17-1.95,1.5c.46.5,1.45-.86,1.82-.39a1.06,1.06,0,0,1-.26.65c.14.11,1.44-.75,1.59-.8a6.79,6.79,0,0,1,2.11-.09,43.3,43.3,0,0,0,5.8-.44,26.42,26.42,0,0,1,4.95.09c.65,0,1.31,0,1.95,0,.46,0,.89.28,1.25.19s.66-.56,1.05-.69.92.15,1.51-.07a7,7,0,0,0,3-2.15c.86-1.15.68-2.41,1.4-3.5a18,18,0,0,0,1.05-1.78l.3-.28c.46,0,.57-.29.32-.75a17.46,17.46,0,0,0,1.9-3.5.5.5,0,0,0,.45-.35c-.06-.13-.12-.26-.17-.4a3.57,3.57,0,0,0,.1-.75c.19-1.44.75-2.15.1-3.7-.48-1.15-1-2.19-1.39-3.34-1.12-3.06-2.84-6-4-9a12.53,12.53,0,0,1-.77-2.31c-.13-.76.36-1.95.5-.59a12.5,12.5,0,0,0,2.77.12c.54,0,1,0,1.55,0,.25,0,1.13.18.73.2.55,0,1.07-.16,1.61-.22l.34.34a1.94,1.94,0,0,1,.61-.35,6.24,6.24,0,0,1,1.91-.13,2,2,0,0,0,1.25.57,18.58,18.58,0,0,1,1.89-.13c.12,0,.7.35.84.39.29.07.12.35.45.38s.61-.45.89-.49c0,.15-.37,1.26-.06,1.26.53,0,.28-1.08.81-1.13.7-.08-.29,1,.08,1.22.67.45.93-3.83,1.38-.44.25.2.85-1.14,1-1.13.58,0,.23.66.13,1.12.29-.67,2.5-1.93,2.93-.53.07.23-1.39,4.87-1.06,4.81.75-.13.31.58.31,1s-.12.85-.13,1.27.39,0,.39.22c0,.64-.6,1.21-.64,1.9a19.94,19.94,0,0,0,.54,3.1c.18,1.68.57,3.33.66,5,.06,1.27,0,2.55.09,3.82,0,.5-.12,2.66.57,2.33.49.26-.67,2.38-1,2.65-1.25,1.09-4.21.48-5.73.55a17.57,17.57,0,0,0-8.54,2.63c-1.13.68-4.34,2.17-4.49,3.69-.13,1.3,1.22-.83,1.25-.83,1.18,0-.71,1.87-.61,2.32.63-.53,1.54-1.61,2.5-1.21-.1.3-1.14,1.45-1,1.7.26.4,1.57-1.42,1.68-1.57.67.68.52,1.19-.11,1.85.29.44,4-2.44,2.32.49,0,.06,1.23-.28,1.23-.73a9.25,9.25,0,0,0,2.73,1.16,10.34,10.34,0,0,0,4.11.18c2.31-.16,4,.18,6.23-.2,3.25-.58,6.66-.13,9.88-.78.92-.19,1.9-.88,2.79-1,.09,0,1.07.76,1.07.22-2.15-.65,5.9-8.9,6.44-9.64.84-1.16,1.93-3.65,3.48-4.35.15-.07,1-.07.83.06.23-.16.34-.51.59-.69,0,0,1.13-1.05,1.08-1,.2-.21-.15-.9.1-1.08s.87.75,1.67,0c.35-.34.15-.86.3-1.06.37-.49.4-.17.8-.49a14,14,0,0,0,1.8-1.43c.53-.58.75-1.32,1.49-1.72s1.23-.06,2-.68a25.61,25.61,0,0,1,2.58-2.32c.3-.18.88-.25,1.1-.4s.25-.59.55-.81c.56-.43,2.18-1.62,2.75-1,.09.1.32,1.83.51,1.68-.06.05.38,1,.33,1.15a.14.14,0,0,1-.11-.07c.11.13.33.46.5.52.66.23.91,2.08,1.63,2.87.23.25.51.39.73.61-.13-.13.82.73.73.78.33.11.76,0,1,.21s.39.69.69.89a11.17,11.17,0,0,0,3.42,1.78c.28,0,.74-.32.92-.25s.18.57.39.66c.63.26,1.39.55,2,.74a26.32,26.32,0,0,0,6.7,1.54c2.4.09,4.05.29,5.76,2,.75.77,1.19,1.1.3,2.23a4.35,4.35,0,0,1-2.93,1.33c-2.58.37-5,.56-7.13,2.23.66-.52,1.06-1.42,1.85-1.79-1.34.62-2.23,2.14-3.34,3.1s-2.64,1.8-2.58,3.39c1.09,0,1.32-1.8,2.57-1.71a17.08,17.08,0,0,1-1.41,2.84c.27,0,2.4-1.93,2.64-1.08.18.65-1.25,1.15-1.42,1.68-.06.21,2.2-.58,2.44-.62,1.6-.25,3,.56,4.56.83a25.51,25.51,0,0,0,5.09-.14c.53,0,3.41.49,3.76.23-.55.41.36.07.69-.13.05.69,1.4-.51,1.73-.71.64-.37,1.26-.73,1.87-1.16,1.53-1.06,3-2.14,4.6-3.1.68-.41,1.29-.88,1.94-1.33.24-.17.63.12.78-.07.4-.47.32-1.84.48-2.43C406.17,196.8,406.23,194.41,405,191.57ZM174.43,163a.45.45,0,0,1,.61,0C177,163.49,174.18,164.13,174.43,163Zm-.54-.53c-.6-.39,1.28-1.69,1.72-1.48C176.25,161.29,174.52,162.87,173.89,162.46ZM207.53,120a6.25,6.25,0,0,1,1.37.13c.69.15.62,0,1.3.6.21.19.91.73,1,.86.22.29.29.88.57,1.23.82,1.06.74-.07,1.48,0,.32,0,.25,3-.42,3.16-.11,0-.25-.46-.31-.46a9.33,9.33,0,0,1-1.39,0c-.32,0-1,0-1.2-.31-.5-.53,0-1.53-.72-2a6.25,6.25,0,0,1-1.09,0,4.19,4.19,0,0,1-1.38-.63c-.21-.28.08-1.44-.45-1.44S207.27,120.1,207.53,120Zm-13.11,6c.52-1.21.87-1,1.93-.27s1.17.66.53,1.59a6.09,6.09,0,0,1-2.52,1.65C193.55,128.74,194.17,126.59,194.42,126Zm-9.84,24.47c.32-.52,1.41-4,2.18-2.93s-3.91,7.66-4.85,7.66C180.82,154.29,184.12,151.23,184.58,150.49Zm10.79,17.43a3.48,3.48,0,0,0-.43,1.41c-.15.73,0,.95-.76,1.51-.27.19-1.19.8-1.53.51.21.18,2.68-4.43,2.95-4.71C196.43,167,195.57,167.54,195.37,167.92Zm1.08-2.26c-.8-.92-2.17,1.94-2.73,2.56s-2.67,2.11-3.58,1c-.62-.77.33-1.59.8-2.17a8.29,8.29,0,0,0,1.24-2.6c.84-2.16,3.08-1.77,5.13-1.57C197.42,163.23,196.79,165.66,196.45,165.66Zm2.67-9.85c-.29.27-1.68.2-2.23.58-1.31.89-.51.31-.23,1.47.14.59.43.55-.08,1.14-.72.85-1.33-.27-1.93.26-.86.79,1.4,1.39.75,2-.17.16-1.17-.69-1.38-.73-1-.18-.82.4-1.61.6-1.35.33-1.28-.52-.93,1,.09.4-1.26-.93-1.12-.87-.75-.35-.49-.11-1.21-.18-.87-.08-3.26.39-3.78-.55-.38-.69.85-1.35.5-2-.57-1-2.9,1.27-3.42,1.49-4,1.71-1.35-2,0-3.27.51-.5,3.44-4.57,4-4.57a7.43,7.43,0,0,0,.88,1c.41.88-.34,1.39,1.16.92.48-.14.81-.47,1.13-.48.72,0,1.38.48,2.13.37,1.75-.25,2.24-2.68,4.1-2a2.87,2.87,0,0,1,1.81,1.83c.29.68.09,1.57,1.24,1.26A.62.62,0,0,1,199.12,155.81ZM199,149c-.19.6.16.25-.31.94-.08.12-1.12,1.05-1.1,1.06-.54-.22-.09-.6-.88-.19-.06,0,.56.58.23.75s-.73-.67-1-.75c-.57-.17-.6.16-1.06.09-.08,0-1.84-.88-1.9-.27,0,.36.63.47.63.81s-1.9-.61-2.11-.74c-1.52-.89-1-.9-1.08-2.2,0-.64-1-1.9.31-1.84.45,0,1.47,1.95,1.4,2-.35.23-.86-.38-.68.4.07.27.87.7,1.12.75a13.68,13.68,0,0,0,2.2-.31,5,5,0,0,0,2-.2c1.12-.45,2.33-1.59,1.91-2.8-.16-.46-.91,0-.68-.78.14-.51,1.1.06,1,.49C199.55,147.29,199.33,147.77,199,149ZM195,147.71c1,.75-.85.72-1.29.45-.94-.56-.75-1.61-.1-2.41s1.17-1,1.22,0C194.89,146.49,193.5,147.25,195,147.71Zm.22-1.63c.24.14,0,1.26-.19,1.32C194.26,147.62,194.51,145.62,195.24,146.08Zm2.34.4c0,.1.09.86.08.89,0,.61-1.56,2.22-2.19,1.54C195.25,148.68,197.62,146.71,197.58,146.48Zm6.12,20.06c.36-.07-1-.38-.79-.31-.09,0-.13.54-.3.5-1-.21-1.12-2.77-.85-3.43-.11.26.77-.36.75-.62s.1-1.2.7-.34c.45.66-.12,1.57-.35,2.06s-1.2,1.18.11,1.12c.19,0,1.34-1.51,1.18-.39C204.51,166.27,204.52,166.38,203.7,166.54Zm.56-4.37c.42,0,1.56,1.31,1,1.92C204.5,164.33,203.45,162.21,204.26,162.17Zm1.58,5.89c-.66-.28-.88-1.73-.76-2.27s1-1.75,1.15-.64c0-.32-.56,2.89.16,1.5.1.07.18,0,.23-.12C206.58,166.88,206.64,168.4,205.84,168.06Zm12.51-5.33c-.58-.23-.59-2.3-.07-1.83C218.54,161.23,219.38,163.15,218.35,162.73Zm7-7.65c-1.18.5-1.76-3.17-2-.59,0,.3.35.6.35.9s-.3.59-.32.9.27,2.45-.11,2.56c-.94.25-1.21-3.17-1.34-3.56-.3-.91-.88-1.91-1-.5,0,.53.39,1.09.38,1.63s-.46,1.23-.39,1.94,1.35,2.24.94,2.89c-.66,1-.88-1.25-1.08-1.43-.41-.36-1.88.12-2.6.11-3.48-.05.37,4.47-2,4.66-.81.06-1.29-3.73-1.84-1.39-.22.93.63,1.66-.83,1.82-.77.09-.12,0-.79-.19-.36-.08-.31-1-.84-.31-.35.45.44,1.17.22,1.61-.34.67-.39.08-.75.09-1.16,0-1.21-.64-1.55-1.6-.15-.43-.79-1.91-1.6-1.31s1,2.79,1,3.24c.05,1-.8,1.17-1.33.66s-.5-2-.75-2.64-1.09-1.32-.85-1.75c.54-1,1.27.15,1.72-.2s-.58-1.48-.91-1.58c-.64-.2-.86.3-1.21.33s-.15.81-.76-.2c-.2-.34.18-.94-.25-1.22-.9-.6-1.39.77-2.41-.46-.21-.26-1.77-3.42-2-3.06.74-1.13,3.37,1.07,3.86,1.41s.59.81,1.56.88c.46,0,1.34.53.93-.55-.15-.4-1-.62-1.4-.8a4.78,4.78,0,0,1-1.52-.79c-2.05-1.62-.58-2.48,1-1.25.17.14,1.21,1.47,1.54,1.29.55-.29-.53-1.64-.3-2,.67-1,1.83,2.19,1.24-1a14.78,14.78,0,0,1-.36-1.78c.07-1.48.48-.5,1.2.1s.78,1.32,1.5.17c.58-.94-.32-1.81-.51-2.74,0,0,1.41.2.5-1-.64-.79-1.52-.52-2.45-.71s-4.87-1.66-4.19-3.31a6.69,6.69,0,0,0,1,.73c.61-.59-.05-2.14-.55-2.53-.88-.69-2.29-.23-3.16.26a4.88,4.88,0,0,0-1,.72s-.61.9-.42.74c-.9.76-2,.61-3.15.28-2.29-.64-1.38-1.21.36-1.06.21,0,.68-.11.92-.1.46,0,.7.8,1.31.12,1.17-1.29-.69-1-1.06-1.33-.52-.42.67-.8.66-.59,0-.61-.3-.39-.43-.93-.26-1.09-.22-.82.39-.94.14,0,.22.72.55.59.58-.22.19-1,.16-1.34-.06-.88-.75-1.89-.61-2.75.09-.5,2-2.65.09-2.12-.62.17-1.29,1.46-1.39,2.05-.19,1.09,0,2.44-.53,3.38-.31.56-.77-.12-1.09.84-.13.39.47,1.7-.11,2-.17.08-.43-.48-.73-.23-.1.08-.57,1-.46,1a18.53,18.53,0,0,1-2.56-1,3.62,3.62,0,0,1-.28-2.56c.3-1,1.08-1.55,1.27-2.72a17.7,17.7,0,0,1,.56-2.61c.29.24-.2,1.08.16,1.32.77.5.41-1,.54-1.27.69-1.34.64,0,1.4-.56.58-.4.4-1.32.58-1.89.1-.3,0-.65.28-.89s.23.18.46,0c.07,0,.51.1.73,0a2.1,2.1,0,0,0,.61-1.19c.1-.3.1-1.58.41-1.68.49-.17.27,1,.84.94s.62-1.36,1.08-1.42c1.24-.17-1.46,4.87.58,4.21.79-.26,1.32-1.81,1.53-2.49s.44-2.26,1-.8a8,8,0,0,0-.11,1.24c0,.36.48.57.58.89s-.72,1,.34,1.15c.39,0,1-1.13,1-1.35.43-1.42-.7-2.66-.79-4a4.57,4.57,0,0,1,1-2.9c1.39-1.1.3.89.26,1.46s.27.81.47,1.33.24,1.22.43,1.83c.7,2.28,3,3.33,4.89,4.4,1,.58,1.59,1.35-.08,1.8-1.06.28-1.23-.25-2.13-.65-3.29-1.48-.85,2.78-2.62,2.54-.07.76,1.38.46,1.77.87-.37.53-1.73.12-1.65.92,1.1-.28,1.36,1.27,2.39.77.57-.27-1-1.33.78-.61,1.55.64,2.15,2.94,4.18,2.07a5.63,5.63,0,0,0,.89-2.29c0-.56-1-2.62.28-1.75.64.43.94,2,1.27,2.67.41.86.38,1,1.17,1.33.63.28,1.13.11,1.67.7.37.39.37,1,.68,1.49.5.69,1.18.75,1.46,1.63.14.43-.06,1.15.08,1.67a6.37,6.37,0,0,0,1.36,2.4c.42.48,1.5,1,1.73,1.53.17.41-.44.34-.36.65.15.59.7,1.08.81,1.7.15.82-.27.79-.27,1.45C224.56,153.51,225.59,155,225.38,155.08Zm-20.2-4.81c1.23.14.91,1.89.13,1.14C204.67,151,204.39,150.18,205.18,150.27Zm1.33-1.73c1.14-.19,1,1.72,0,.71C206.2,149,206,148.64,206.51,148.54Zm21-15.52c-.52-1.94-1.12-.6-1.12.65,0,.43,0,2.23-.85,2-.27-.07.33-.82.19-.89a1.14,1.14,0,0,0-.81,0c-.06,0-.15.36-.35.2a4.85,4.85,0,0,1-.62-1.89c-.21-1.48.35-2.65-1.24-2.37-.13,0-2.12,1.15-2,1.27-.58-.53,1.06-3.53,1.13-4.25.11-1.22-.57-2.63-.29-3.82.42-1.79.6-.28,1-.37,1.29-.31-.23-1.31.18-2.12,1.09-2.14.95,4.72,2.18,2.85.2-.3-.18-1.16-.2-1.5a7,7,0,0,1,.3-2c.07-.38.49-4.57.41-4.6,1.28.53-.2,2.78.43,3.46a15.83,15.83,0,0,1,1.71.7c.8-.23.37-1.61.94-1.78.75-.23.58,1.34,1.47,1.18s.41-1.55.84-2c.71-.74.94.32,1.44-.14s-.14-2.14,1.33-1.38c.61.31,1,1.76.9,2.4,1.91-.19,1-3.72,2.33-4.64,2.69,2.66-4.86,7.52-3.42,9.27.19.23,1.53.5,1.94.82.79.62.5,1,.85,1.8.65,1.46,1.23,1.24-.29,1.83s-.65.36-1.28,1.9a5,5,0,0,1-.81,1.18c-.14.15-.14.46-.3.6s-.48-.08-.55,0a3,3,0,0,1-1,.63c-.39.06-.37-1.11-1-.31-.41.52.78,2.13.31,2.51s-1.06-2.62-1.72-2.29.64,5.2.45,5.11c-.44-.2-.5-2.11-1-2s0,2-.54,2.11C227.42,137.37,227.66,133.47,227.54,133Zm11.06,14.76c-.87.82-.59-1.35-.91-1.78-1-1.41-.47,1.2-.38,1.63a5.78,5.78,0,0,1,.32,1.44c-.45,1.07-.72-.35-1.33-.35.52,1.95-1.58.4-2.37.28.13.4-.44,1.84-1.07,1.77-.24,0-.09-1-.62-.78s.8,1.62.15,2.08c-.25.18-.7-1.3-1-1.4-.93-.33.09,1.37-.12,1.62-.53.62-2.67-4.92-2.9-5.38-.33-.64-1-2.35.14-1.68.74.45.17,1.49,1.28.56.71-.61.44-1.43,1.29-2s2.39-.18,2-1.63c.08,0,.8.59.89.51.38-.31-.08-1,.32-1.39.27.52.38,1.79,1.23,1.64,0-.4-.5-1.31.24-1.3.43,0,.91.9,1,1.25C237.08,144,239.84,146.59,238.6,147.78Zm-32.36,59c.13.71-1.66,1.36-2.43,1.36A3.1,3.1,0,0,1,206.24,206.8Zm-1.71,2a3.15,3.15,0,0,1,2.59-1.17l.27.44A11.45,11.45,0,0,0,204.53,208.79Zm1.89,1.33c.62-1.15,1.76-2.21,2.77-1.17A12.94,12.94,0,0,0,206.42,210.12Zm3.3.85c.77-.85,3.41-2.87,4.1-.91A24.24,24.24,0,0,0,209.72,211ZM306,204.56a3.27,3.27,0,0,1,2.77-1.93l.52.51A14.11,14.11,0,0,0,306,204.56Zm.63,1.23c.51-1.42,2.2-1.8,3.51-2a4.28,4.28,0,0,1,.52.67A12.05,12.05,0,0,0,306.6,205.79Zm2.17.7c.46-1.09,1.71-1.4,2.68-1.85a3.36,3.36,0,0,1,.35.68C310.78,205.68,309.76,206.06,308.77,206.49Zm5.55.81c-1.13-.41-2.27-.05-3.43-.13C311.61,206.53,314.72,205.58,314.32,207.3Zm64.77-2.75c.16-.49,1.33-1.72,1.92-1.21-.09.17,0,.27.35.31A14.3,14.3,0,0,0,379.09,204.55ZM380,206c.7-1.3,2.44-1.54,3.73-1.82v.34C383.75,205.57,380.63,205.87,380,206Zm1.77,1c.17-.21,3.31-2,3.31-1.43C385.21,206.72,382.56,206.78,381.73,207.06Zm-94.61-23.13c-1.22-.28.35-2,.33-1.27C287.63,183.14,288,184.12,287.12,183.93Zm11.68,8.31c-1.15,0,.52-1.35.5-1.59-.16-1.61-1.51.62-1.69.88-.39.57-1.57,2-2.11,1.76-1-.42-.39-2.61-2-2.86-.93-.14-1.81,1.29-2.22-.05s2.32-3.87-1.25-2.63c0-.5.13-2.46-.58-2.66-.5-.13-1.63,1.36-1.46,1.48-.42-.31,0-1.71.06-2.08s.51-.55.54-.71c.15-.68-.29-1.34-.13-2,0-.09.62-.18.67-.78,0-.28-.73-.93-.79-1.36a1.89,1.89,0,0,1,.46-1.53c1-.64.76.25,1.27,1,.79,1.14,1.46.9,1.18-.43-.1-.47-1-.93-.35-1.54.41-.4,1.2.05,1.48.43.46.59-.32,1.85.39,2.31,1.31.85.63-2.13.71-2.31.82-1.76.87.14,1.15.37s-.11.15.57.42c.29.12.69-.08,1-.12-.46.12-.12,1.19-.07,1.09s-.13.66-.12.63a.83.83,0,0,0-.73.48,1.38,1.38,0,0,0,.14.8,10.32,10.32,0,0,0,1.24,4c.77,1.32,2.38,1.8,3.06,3.09C300.05,189.09,300.41,192.19,298.8,192.24Zm24.23-49c-.18,1.44-.89.35-1-.28a18.9,18.9,0,0,1,0-2.26,35.7,35.7,0,0,0-1-3.55c-1.3.73,1.19,3.86,0,4.82-.55.43-.74-1.17-1,.46,0,.16.73,2.59-.27,2.27s.29-3.55.14-4.33c-.52-2.67-1,1.08-1,2-.09-.51-.27-3.51-1-3.51-.41,0,.24,2.15-.7.55-.5-.87.09-2.4-.57-3.18,0,0-.2,5.37-.79,5s.12-2.81-.92-3c-.61-.11-.67,2.29-.44,2.41-1-.51-.5-2.16-.59-2.86-.22-1.67-1.14-1.19-1,.35.08.71,1.6,5.81.42,5.81.5,0-.9-4.5-1.33-4.95-.75-.78-.78-.8-.71.23s1.44,2.27,1,3.36c-.8,2.12-1.72-2.76-2.21-1-.17.66,1,2.09,1.18,2.82.29,1,.8,3.13.1,4,.26-.34-.67-4.44-1.08-4.53s0,3.29-.09,4.09c0-.78-2-3.1-2.2-3.67-.18,1.87,1,3.64.85,5.61-.07,1.41-.35,2.8-.48,4.2,0,.35-.38,2.07.27,1.87,1-.31.76-3.32.88-4.08,0,.46-.16,3.31.36,3.44.68.18.67-2.57.71-2.94.09-.9.3-3,.85-1.14,0-.08.55,3.29,1,2.77a3.46,3.46,0,0,0,.45-1.7c.23.43-.24,3,.37,3a35.56,35.56,0,0,0,1.23-5.47c.74.56.21,3.12.23,3.91,0,.18-.09,1.47.18,1.56.63.22.21-.86.76-.86s-.27.92.25.92.89-2.19,1-2.6c0,.8-.6,2.21-.68,3.26a3.46,3.46,0,0,1,.09.72,1.64,1.64,0,0,1-.09-.72A.29.29,0,0,0,316,156c.12.05-.79,5-1.26,4.9s1-4.24.52-4.77-1.1.58-1.33,1.21c-.07.2-1.06,4.07-1.78,2.94-.42-.65,1.81-2,.95-3.07.34.44-2.53,3.91-2.76,4.75v.17s0-.09,0-.17a25.08,25.08,0,0,1,.24-3.17c-.62.35-1.22,5.59-1.72,5.2s.15-2.16,0-2.74c-.05-.26-.43-.89-.45-1-.07-.4.31-1.29.05-1.61a21.54,21.54,0,0,0-1.28,2.36c-.31.41-.8.49-1.11.87s0,1.3-.49,1.3,0-3.26-.09-3.58c-.25-1.61-.73-.71-.78.45,0,.26.39,3.64-.34,3-.39-.37.1-3.17-.47-3.17-.08,0-.85,2.48-.93,2.7a11.39,11.39,0,0,1-2.12,3.54c.14-.51,1.89-3.34,1.14-3.53s-1.31,3-2,3.4a9.65,9.65,0,0,0,.54-3.52c-.11-.07-2.2,4.93-2.28,5.26.25-1,1.27-4.12-.05-4.78-.14-.07-1.77,7.33-2.81,3-.11-.47.07-3.08-.48-3.25-.83-.27-.56,2.48-.56,2.89s0,3.4-.81,3c-.47-.25.16-2.86.17-3.31,0-.7-.22-2.59-.89-1.2-.27.56.16,1.56.11,2.16,0,.34-.37,1.08-.36,1.32,0-.54-.37-.42-.61-.1-.08.32-.16.54-.23.56a1.08,1.08,0,0,1,.23-.56c.38-1.67.68-6.28-.38-3-.14.43-.84,4-1.87,2.66-.78-1,1.79-3.19.84-4.27-.25-.29-1.78,5-2.11,4.85-1-.34,1.4-4.49.23-5.06-.06,0-1.41,3.63-1,3.92-1.13-.84.65-3,.11-3.93-.72-1.21-1,1.3-1,1.84s.49,3.07-.38,2.93-.51-2.92-.53-3.48c-.06-1.36-.41-1.59-.66,0-.12.75.48,3.31-.07,3.71-.93.68-.5-4.27-1-4.28s-.39,3.93-1.54,3.09c-.35-.25.35-4,.17-4-.58.12-.55,1.39-.87,1.75s-.55-.87-.65.85c0,.22.38,2.14-.1,2.19-.21,0-1.13-5.56-.69-6-.39.35-.92,4.63-.85,4.64-.61-.08-.34-4.24-.52-4.24-.65,0-1,2.41-1.19,2.89-.15-1.23-.61-2.66-.32-3.9.2-.84.63-1.11.37-2-.59-2-2.5-1.66-1.29-3.94,1-2-.61-1.61-.84-3.38-.28-2.19,1.53.71,1.47.77.37-.37-.59-2.56-1-2.86,1.44.63-.92-2.45-.78-2.74.29-.58,1.65,1.18,1.48-1.2-.13-1.94-1.43-3.56-1.77-5.45.29-.26,1.86,3.38,2,3.65.24.57,1.06,2.81,1.21,1.21.12-1.33-1.6-3-.86-4.42s1.14,2.58,1.67,1.17c-.14.37.65,2.82,1,2.82,1.08,0-2-7.71-1.85-8,.83-1.21,2,4.46,2.65,4.83,1,.52.41-1.2.44-1.78.05-1.33.4-2.66.39-4.06.58.83,2.23,3.25.95,4.11,0,0-.37-1.08-.4-1.06-.56.25,0,3.8.27,3.75s.44-1.22.5-1.51c0,.18.07,1.74.44,1.52s.55-3.34.16-3.54c1.06.56.51,6.45.41,6.45.34,0,.45-.53.53-.87-.17.89.59,1.94.93.24.11-.54-.2-1.32.15-1.81.51-.69,1-.25.93-.14.38-.4.24-5.1-.27-5.24,2.31.65.07,5.44,1.35,6.07-.25-.12,1.15-1.81,1.2-2.1.16-1-.88-1.85-.8-2.78.18-2.09,1.3,2.43,1.72,2.4.72-.06.05-3.09.15-3.57-.06.27.66,1.89,1,1.74.74-.31-1.2-3.18-.37-3.45,1.37.89-.53-2.66-.83-3.26-.21-.41-1.72-3.74-1.24-4.19s2.19,5.49,2.67,5.61c.33.09.25-.84.28-1-.11.55.75,1.19,1.17,1.38-.47-.22,1.59-.43,1.29-.06.87-1.06-2.3-1.57-2.38-2.34-.31,1-.74-1.17-.82-1.55a24,24,0,0,0-1.17-3c-.16-.47.12-1.25-.56-1.46s-.22.45-.41.53c-.53.23.28.67-.65.26-.35-.15-.4-.84-.83-1-1.23-.38-2.68,1.28-1.31,2.29.63.47,1.52.35,1.81,1.22.49,1.46-.89-.09-.88-.09-.83-.07-.55,0-.18,1,.45,1.2,1.14,2.44,1.66,3.62.08.18,1.3,2.52.53,2.32-.54-.15-1-1.9-1.21-2.35-.57-1.36-1.31-3.6-2.51-4.48-1-.76-.12.47,0,.93.07.28.49.58.35.92-.07.17-1.17,0-1.16,0a10.34,10.34,0,0,0,.43,1.78c-.52-.38-.46-1.93-1.06-.82-.42.8.43,2.06.11,2.9.15-.4-1-2-1.48-1.83s.55,1.69.59,1.85c.55,2.3-1.63-.8-1.58-1.75.08-1.44.94-.47,1.56-1.2.44-.51-.4-1.66-.64-2a40,40,0,0,0-3-3.52c-.21,1.47-1.24,0-1.73.9.88.84,1.61,2,2.4,2.83s1,1.12.1,1.26c-.55.09-1.2-1.08-.85.3.22.87,1.57,1.48,1.64,2.39s-3.57-2.25-2.9-2.51c1.62.18-1-3.07-1.72-2.91s-.23,1.53,0,2c.36.72,1.07,1.29,1.27,2.1s-.42,1.58-.36,2.48c-.45-.89-.31-4.72-1.73-4.72-.34,0,0,1.17,0,1.32.09-.35-1.78-1.82-.68.58.17.38,2.09,3.23,1.7,3.48-.2.13-1-1.28-.82,0,0,.28.53.69.7,1s1.62,2.34.86,2.58a27.6,27.6,0,0,0-2.38-2.7c-.52-.74-.27-3.16-1.26-3.45-.31-.09.32,4.66.18,4.73-.66.31-.91-2.75-1.42-2.87-1-.21.36,2.1.11,2.36a16,16,0,0,1-3-2.24c-.31-.44-.65-2.81-1.31-1.58s2.42,5.89,1.38,2.16c.41.54,1.51,1.76.66,2.4-.22.17-1.63-.62-1.63-.15,0,.66,1.5.76,1.7,1.23.35.83-.62.33-.59,1,0,.17,1.87,3,1.77,3-.79-.09-2.85-3-3.65-2.23.22-.22,3,3.12,3.23,3.42.08.11,1,1.18.55,1.26-.67.13-1.21-1.76-1.64-2.07-1.13-.79-1,0-1,.93,0,.32.55.68.28,1.07s-1.11-.21-1.41.07c-.76.69,1.54,4.83,1.81,4.7-.57.27-1.83-1.7-2.13-1.1s1.48,1.82.95,2.63c-.07.1-3.55-4.86-1.77-1.07.47,1,.63,2.07,1.16,3.06.23.45,1.25,1.66.24,1.36-.79-.24-2.13-4.92-3-4.44-.61.33,2.15,4.15,1.51,5.12.13-.21-1.89-2.79-.74.51.22.66.74,3.7,1.35,3.88-1-.29-1.94-4.11-3.18-3.55-1,.43.58,1.82,0,2.34-.94.8-2.45-1.62-2.91-1.21s2.51,3.19,2.51,3.83c0,0-.89-.48-.92-.47-.64.23-.36.63-.83,1-.13.12-.93-2.73-1.09-2.87-.95-.8,0,1.54-.64,1.9.05,0-.92-1.73-1.25-1.51s1.87,6.48,1.94,6.49c-.72-.15-1.31-2.7-1.55-3.25s-.89-2.38-1.19-1.21c-.22.85,1.5,4.19-.06,4.63-.59.17-1.81-3.15-1.86-3.06-.58.95.6,4.46,1,5.41.18.45,2,4.63,2.93,4.39s-.68-3.62-.84-4c-.31-.78-1.29-3.38.07-1.62.91,1.19.67,3.3,1.64,4.38s-.77-3.28.17-3.35c.4,0,.35,1.33.95,1.33.07,0,1.91-5.48,1.39-5.48.57,0,.47,1.36,1,1.48.78.18.07-.64.13-.92a12.82,12.82,0,0,1,1.1-2.87c1.14-.72,1.63,2,2-.34,1.25,1.08.37-2.18.73-2.07.52.15.63,1.33.62,1.75,0,.91-.54,1-.79,1.63-.36.95.8,2.1.43,2.9-.55,1.21-1.24-1.52-1.85-1.31s.45,2.51.05,2.51-.39-1.24-.72-1.41.19,1.81.21,1.87c.19.52,1,1.78.42,2.28-.07,0-1.37-2.24-1.55-2.43-.57,0,.18,3.91-.23,3.92-.74,0-.4-2.1-1.28-.61-.73,1.24,1,2.6.44,3.85a18.29,18.29,0,0,0-1.28-2.87,9.56,9.56,0,0,1-.83,2.12c0,.24.52,2.49.29,2.46-.65-.07-.4-1.42-.78-1.74-.76-.64-.55.28-.93.12,0-.31-.1-.48-.36-.49-.43.19.3,1.35.2,1.56-.57,1.2-.6-1.17-1.15.74-.28-.13-.78-2.69-.85-.17,0,1,1.16,3.37-.12,4.06,0,0-.41-3.48-.83-3.43-1.46.18.91,3.69.26,4.36.32-.33-2.07-3.84-2.2-3.71a8.06,8.06,0,0,0,.08,2.36c-.42-.19-.38-2.37-.94-2.36-.76,0,.56,2.48.41,2.79-.58,1.25-.54-.91-1.06-1s.27,2.56-.3,3c0,0-.64-3.09-.95-3.09s-.18,2.56-.66,3c-.5-1.19-.76,0-1,.26-.11.13-.8.77-.74,1a6.47,6.47,0,0,1,0-3.57c-.16.49.87.31,1,.25.85-.36.4-1.39.66-2,0,0,.66.51.77.31s-1.48-5.19-.2-3.08c.29.47-.05,1.3.58,1.61.85.41,1.79-.85,2.05-1.47.72-1.7-.54-2.68-.62-4.24s.43-1.09.77,0,.29,2.42.65,3.58.42,1.53.83.4c.14-.37-.09-1.18.27-1.47s1.46.06,1.48,0c.39-.57-3.24-8.9-3.53-8.9s-.2,2.64-.2,2.92.13,1-.05,1.22c-.67.83-.72-.12-1.34-.32-2.24-.73-.14,3.51-1,3.51-.22,0-1.58-4.05-2.27-2.42-.2.47,2,3.21,1.39,3.32-.1-.62-1.65-.15-1.88.31-.11.21.76,2.45.35,2.45-.49-.44-1.53-2.81-2.2-2.49s.8,4.58-1.21,1.87c-1.31,4-1.46-.25-2.09.24s.24,1.92.06,2.56c-.42,1.47-.38.2-.78-.12-.88-.71-1-.56-1.3.68a14.24,14.24,0,0,0-.17,2.26c0,.45-.61,4.61-.39,4.75-.92-.61.67-6.1-.75-6.1a25.44,25.44,0,0,0-.45,4.94,46.83,46.83,0,0,1-1.15-5.8c-.43.13-.34,2.14-.34,2.42a5.68,5.68,0,0,0,.05,1.37c.08.28.54.86.55,1,0,.46-1,.2-1.15.5s-.11,1.33,0,1.25.43-.73.67-.69.18,1.78,0,1.91c0,0-.28-.87-.42-.85-.52.09-.42,1.84-.32,2.15a2.13,2.13,0,0,0,.3.9c.08.11.51-.41.5-.43a4.66,4.66,0,0,1,.35.87s.76-2.27.81-2.46c0,0,.44.67.47.7-.16-.16.17-2.18.76-.51.25.72,0,2.35.69.86.17-.38-.22-1,.1-1.37s1.11.29,1.48-.33c.45-.79-.44-2.68-.55-3.52.16.46.34,2.12,1.1,2,.56-.1.44-1.52.57-1.54.84-.09.7.85,1.12.05-.1.19-.87-1.44.06-.79s.29,1.85.34,2.63c.09.08.05.21.08.34a.71.71,0,0,1-.08-.34.34.34,0,0,0-.18-.07c-.35,0,0,2-.07,2.18-.12,1.34.16.79-.55.62-.3-.08-.05-.78-.55-.57-.23.1-.27.84-.32,1-.18.6,0,1.81-.43,2.3.3-.31-.6-2-.62-1.92a10.49,10.49,0,0,0-.4,2.07c-.11-.25,0-2.45-.42-2.44-.67,0-.35,1.28-.58,1.63-.46.71-.25.4-.93.42s-.81,3.77-1.22,4a10.54,10.54,0,0,0-.62-3.07c-.27-.16-.38,2.91-.47,2.94-.46.14-.26-1.63-1.13-.91a12.53,12.53,0,0,0-.16,2.31c-.52-.31,0-2.05-.8-2-.43,0-.23,1.52-.22,1.71,0,.81.84,4.38-.74,4.23-.08,0,.47-2.33.45-2.77,0-.19-.42-2.27-.57-2.16-.91.69-.12,3.32,0,4.26-.3-.75-.75-4.93-1.73-5.14s-.1.46-.56.56c-.17,0-.77-.41-.89-.3s0,6.16-.59,2.76c-.13-.72,0-2.81-1-2.68-.56.07-1.69,2.33-1.46,2.89-.32-.8.88-2.72-.07-3.26-.75-.44-.71,2.27-.6,3.35.1.18.14.33.1.41s-.06-.11-.1-.41c-.55-1.12-3-3.81-3.34-4.69.3.52,2.39,1.76,2.81,1.58s.78-2.95.6-3c2.77,1.23,1.44-1.34,1.19-3.07.05.31.83.78,1,1.14s-.17,1.21.07,1.68c.87,1.64.92-1.35,1.55-1.62,0,0,.25,1.09.69.67.22-.21-.13-1.1-.18-1.35s-.73-2.33-.17-2.41.66,2.83,1.67,1.94a7.42,7.42,0,0,0-.81-3.05c1.36.73.78,3.2,1.78,4.17,1.49,1.44,1-1.9.89-2.68A9,9,0,0,1,237,185c.08-.45.37-.32.44-.52a9.29,9.29,0,0,0,.48-3.29,12.9,12.9,0,0,1,.58-3.6c.09-.34.3-.58.36-.93s-.3-1-.08-1.23c0,0,.8,1.51,1,1.4.67-.34-.51-2.52-.12-3.17.85-1.43.47.29,1.07.3.21,0-.13-4.41-.42-4.41,1,0,.81,3.66,1.79,3.66,0,0,.47-1,.48-1.14s.29-.36.34-.55-.66-.14-.58-.44.59-.15.58-.09c.38-1.93-.33-3.95-.58-5.84a29.16,29.16,0,0,1,1.11,3.18c.25.62.43,1.62.88.81a22.68,22.68,0,0,0-1.08-4.7c.9-.12,1.7,3.31,2.18,3.31S245,165,245,164.69c0-1.92.26-.35,1-.06s0-2.7,0-2.74c.37-.44,1.38,1,1.34,1.05.54-1.35-2-3.69-1.21-4.76.53-.71.89.89,1.6.91,1.35,0-.77-5.54-1.28-5.48.59-.07,2.52,2.12,2.55,2.57s-.55.7-.5,1.28a3.07,3.07,0,0,0,.92,1.7c-.33-.2,1.23-4.79,1.7-4.79s.51,1.69.91.36c.29-1-1-1.65-1-2.57,0-2.09,1,.67,1.55.86,1.1.41-.09-1.77-.38-2.37-.46-.91-1.07-1.74-1.52-2.65-.12-.24-.41-1.3-.5-1.36,1.92,1.23,2.77,3.63,4.47,5.11.45.39.3,1.24.53.1.1-.52-.48-1.86,0-2.22.78-.54,1,3.3,1.34.82a20.54,20.54,0,0,0-.81-4.22c1.39-.22.88,4.17,2.22,4.41.07,0-.95-3.92-.83-4.22.34-.83,1.31,2.38,1.79,2.44s-.47-2.13-.47-2.2c0-1,.4-.41.52-1.26s-1.35-2.66-1.76-3.41a21.57,21.57,0,0,1-1.94-3.91c2,1.6,3.16,4.34,4.29,6.61.27.54,1.43,3.19,1.41,1.18,0-.87-.95-1.89-1.36-2.59-.66-1.15-1.25-2.33-1.92-3.47a14.33,14.33,0,0,0-1.29-2s-1.76-1.27-1.55-.8c0,.1.77,1,.31,1-1.91.16.17-4.36-1.2-4.36-.58,0,0,4.24-1.16,2.15-.21-.37-.2-3.21-1-3.07-.62.12-.15,1.75,0,2.61a.83.83,0,0,1,.06.44,2.44,2.44,0,0,0-.06-.44c-.22-.4-.94.38-1,.8,0,.08,0,.15,0,.18a.21.21,0,0,1,0-.18c-.14-.86-.55-4-.6-4-1.07.48.11,2.84-.32,3.64-.83,1.52-.76-.32-.68-1.05.06-.55.51-2.64-.34-2.52s-.26,3-.78,3c-.87,0,0-2.61-.53-3s-.51,2.49-.51,2.8c-.18-.45-1-5.32-1.3-5.32s-.31.26-.35.6a3.46,3.46,0,0,1-.08,1.5c.07-.21,0-1,.08-1.5-.2-1.63-1-3.7-1.21-4.82-.22-1.36.05-3-.45-4.25-.11-.28-1.15-1.55-.95-1.76.42-.44,1.71,2.12,1.8,2.14.52.15-.37-2.89-.19-2.89.82,0,.11,2.13,1,1,.39-.53-.36-2.42.16-2.76,0,0,.42,1.18.52,1,.15-.42.34-1.06.87-1.06,0,0,.23.47.09.48.08,0,.92.57,1,.23,0,.46,0,1.37.39,1.37s-.36-5.35-.4-5.83c-.07-1,.39-4.65.75-1.85.16,1.24-.12,2.53,0,3.77.1.82.29,1.91.79.72.27-.65-.72-2.48.51-2.14.94.26.31,2.28,1,2.28-.23,0,.84-6,.56-6.29.39.45,0,5.58,1.32,5,.51-.22-.79-3.68-.62-4.93-.08,1,1.09,3,2,2.48a18,18,0,0,0,1.21-2.64c.29.54-.47,2.08.09,2.35,1.52.73.32-2.9.2-3.15a8.37,8.37,0,0,0,.77-1.49c0,3.53,1.17-1.28,1.58-1.76.06-.07.46.66.6.38.5-1-.08-1.61.65-2.53.14-.18,1.56-1.19,1.54-1.39.08.62-4.09,8.11-2.42,8.69.43.15,1.45-5.15,1.53-5.72,1.36,1.54,2.27,1.8,2.93-.35a7.64,7.64,0,0,1,1.45-3.11c.4-.49,1.53-1.71,1.56-.5,0,.74-1.95,1.32-1.83,2,0-.21,1.29.94.94.93.69,0,.71-.57,1-1a11.57,11.57,0,0,0,.55,1c.57-.76,1.32-4.22,2.63-4-.31,0-1.93,3.43-1.32,3.43.4,0,.52-1.2.86-1.35,1-.43-.12,1.09.31,1.34s1.56-2.29,2.19-2.08c1.21.42-2.2,2.87,0,2,.31-.12,0-.84.61-.79s.31.59.47.82c.42.58,0,1.68,1,.76.65-.62.43-1.17,1.36-1.74.29-.18,2.06-.69,2.09-1a2,2,0,0,1-.18.74c.49-.52,1,.53,1.36.63s2.59-.26,2.78.18c0,0-1.55.52-1.63.55s-.57,2.77-.19,3.28c.59.8.31.24,1.06-.21a7.71,7.71,0,0,0,2.45-2.06c-.31.41.93.21,1.1.12.51-.29.66-1.52,1.37-1.52a22,22,0,0,1-2,3.51c.86.54,3.37-2.88,3.52-2.68.45.58-.7.83-.71,1.26s.35.58.37.89c0,.69-1,2.63-.67,3.27,0-.06.57-.46.77-.07.12.23.2,1.23.36,1.39-.63-.61-.39-.6-.65.41a4.61,4.61,0,0,0,.14,2.34c.91,1,.46-2.37,1.2-2.79-.36.2,1.65,5.27,2.29,5.27,0,0-.65-4.72-.92-4.77.57.11.45.21.55.28-.27-.21.36-1.81.61-1.92,0,0,.61,2.11.94,2.29.81.43.43-1.18.28-1.28.22.15.64,1,1,.8-.33.16-1.61-4.92.39-1.12.44.83.64,3.25,1.58,3.69s-.1-1.38-.11-1.8a15.64,15.64,0,0,1,3.16,1.31c.23-.19-.51-2.38-.51-2.7.64.63,1.28,1.26,1.91,1.91,0-.64-.71-3.45-.1-3.84s2,2.6,2.44,3a2.74,2.74,0,0,1,.58-1.17c-.09.07.79,1.74,1.05,1.56.52-.35.06-3.29.6-4,.31-.41.76-.36,1.25.28.88,1.15-.21.35-.32.78s1.9,2.74,1.77,2.88c.32-.36-.17-1.49-.26-1.86,1.1,1.15,1.82,2,1.64-.1,0-.23-.41-1.63,0-1.7.63-.1.44,1.27.78,1.32.8-.92,1.34.11,2,.78-1-4.06,1.31-.09,1.52-.38.53-.75-.79-2.39-.15-3.15.14-.17,1.32,2.67,1.71,2.66.88,0-1.17-2.61-.7-2.85s1.91,2.87,2.08,3.2c0,.09,1.75,2.89,1.83,2.61.17-.55-1.35-2.42-.77-2.82s1.51,1.83,1.69,2.17c.32.6,1.28,2.59,1.43.8s-2.26-3-2.61-4.58c0,.33,1.16,1.06,1.4,1.3a9.46,9.46,0,0,1,1.71,2.48c.26.52,1.49,4.27,2.17,4.08,1.19-.33-3.11-6-2.13-6.86-.26.23,3.31,6,3.59,6.6.18.4,1.58,7.14,1.84,6.93s.13-1,.1-1.26c.21.47.51,1.31,1.11,1.41-.13,0-2.28-4.47-2.13-4.82,0-.07.77.71.84.77-.72-.55-.77-2.62-1.17-3.48a21.26,21.26,0,0,1-1.25-2.62c2.32.06,2.73,5.87,3.29,7.11.45,1,1.61,2.17,1.47.3-.09-1.22-1.52-2.08-1.54-3.33,0,.42,2.59,3.45,2.94,4a5.88,5.88,0,0,0,1.43,2c.24.16.31-.6.57-.34.85.86.21,2.83.38,3.88a7.16,7.16,0,0,0-1.81-2.42c-.14-.14-1.75-2-1.93-1.6-.35.81,1,1.94,1.56,2.33.13.09.47-.42.67-.06s-.23.31-.19.42a12,12,0,0,1,0,2.69,17.83,17.83,0,0,1,.08,2,19.12,19.12,0,0,0-1.74-2.34A40.87,40.87,0,0,1,329,134.1c-.2,1.66-.46-.06-.86-.7-1.3-2,0,1.1-.22,1.57s-.5-.42-.58.31c-.06.49.35,1,.45,1.44s.52,1.2-.05,1.23c-.85,0-.91-2.57-1-3.09,0-.25-.43-3.57-1.22-3.09-.58.35.46,2.57.31,3.17a10.83,10.83,0,0,0-1-.45c-.75-.06-.28-.67-1,.24-.21-.48-.5-.63-.85-.44-.47.62,1,1,1.09,1,.68,1,.22,2.74.53,3.92-.08-.16-1-1.52-.95-1.54A7,7,0,0,0,323,143.25Zm15.88,29.84a31.81,31.81,0,0,0,.22,3.67c.06.09.36-.3.43-.14a4.34,4.34,0,0,1,.31,1.47c0,.51-.27,1.41-.26,2.07-.11-.75-.19-1.9-.63-1.9-.07,0,.5,6,.56,6.54a31.08,31.08,0,0,1,.13,4c0,.63.17,2.51-.54,1.47-.5-.73-.12-2.51-.11-3.35,0-2.49-.58-4.94-.64-7.43,0-.66-.06-7.26-1.62-6.58,0,0,2.24,6.34.29,4.91a19.49,19.49,0,0,0,.26,3.59,17.06,17.06,0,0,0,.64,1.68,14.81,14.81,0,0,1,.17,4.26c-.07-.3-.44-3.56-.63-3.45-1.17.68.81,4.35.1,5.34-.88,1.23-.5-3.55-.78-3.81a13.93,13.93,0,0,1-.67,4c.32-.18-.73-7.63-.45-7.59s1.3,4.87,1.19,1.33c-.05-1.63-.62-6.52-2.31-7.44a28.55,28.55,0,0,1,1.67,5.59c0,.06-1.91-2.56-2.06-2.57-1.12,0-.16,3.67.35,4.09-.21-.18-.06-1.2.17-1.33-.2.11.45,5.65-.89,5.13-.44-.17-.59-7-1.78-4.48a5.22,5.22,0,0,0,.44,3.31c.79.8-.07-1.61.46-1.62s.75,2.69-.54,2.16c-.72-.29.05-3-1-2-.26,0-.16-2.93-.65-1-.17.67.69,3.1-.13,3.49-.25.11-.77-5.17-1.28-5.28-.07,0,.28,6.78.3,6.89.11.71,1.63,7.87.4,7.5-.81-.24,0-3.76-.82-3.88-1.52-.23-.2,3.88-.62,4.12a4.66,4.66,0,0,0,.45-2.55c1.29.74-.31,5.63-.6,6.5-.07-.57.1-1.78-.25-2.36.69,1.26-1.36,6-1,1.67.05-.76,1-8.28.76-8.28-.75,0,0,2.79-.6,3.16a12.27,12.27,0,0,0-.13-3.7c.34.59-1.25,5.74-1.53,5.65.2.06.18-4.66.34-5.38-.24.59-1.7,4-1.72,4.15a49.38,49.38,0,0,0,.89-4.95c0-.34-.32-2.71-.28-2.75-.37.4-.78,1.71-1,.38,0-.23.75-2,.68-2-1,.16-.72,1.39-1.21-.09a3.76,3.76,0,0,1,.27-2.2,1.37,1.37,0,0,1-.35.08c-.17-.22,1.29-3.37,1.2-3.37-.92,0-.58,2.31-1.48,2.29-.06,0,1-3.44,1.08-3.71.91-2.21.49-.28,1.29.35-.37-.29-.19-2.58.13-2.9.12-.11.71,1,.58,1.15.36-.33-.5-3.49.12-3.49a30.73,30.73,0,0,0,1.61,3.87c.52-.6-.17-3-.26-3.67-.12-1-.82-3.43-.29-4.32s.62.3.73.91c.28,1.51.28,3.07.44,4.59,0,.37.14,2.94.75,3,.4,0,0-2.71-.05-3-.12-1.09-1.67-8.55.31-8.47-.64,0-.05,7.21.23,7.81-.06-.13.44-.88.48-1.09,0,1.71,1,2.47.45.3-.11-.41-.75-1.62.08-1.6.6,0,.54,1.32,1,1.3s0-2.05-.4-3.4a2.84,2.84,0,0,1-.29-1.11,8.26,8.26,0,0,0,.29,1.11c.35.89.92,2,1.17,2,.08,0-1.41-4.27-1.15-4.7,0-.06,1.38,3.1,1.48,3.13s-.18-1.34-.07-1.32c.68.14,1,.8,1.18-.12.14-.73-1.12-1.25-.83-2,0,.07,1.17,1.5,1.59,1.05s-.6-2.06-.67-2.64c.15.39,1.56,2.17,1.72,2,.94-.76-3.18-4.9-2.47-5.94-.07.1,3,4.52,2.88,4.67.52-.48-1.29-2.23-.85-3-.16.28,1.58,1.54,1.58,1.93-.12-1.25-.58-2.35.2-3.5,0,0,.85.49,1.07.06.07-.15-.37-.81-.4-.93a15.68,15.68,0,0,0-1.15-2.46,30.89,30.89,0,0,0-1.92-3.46c-.51.68.55,3.13.77,3.81.27.9,1.27,2.42,1.09,3.32-.36,1.91-1.17-1.14-1.29-1.65a9.09,9.09,0,0,0-.36-1.6c-.52-1.08-.32-.27-.82-.54-.27-.15-.7-3.3-1.17-2.08-.18.46,1.62,3.45.76,3.7-.15,0-.52-.68-.72-.36a2.06,2.06,0,0,0-.26,1.39c0,.61.86,3,.12,3.45-.34.22-.87-3.51-1-4.57,0,.94-1,3.12-.79,3.67-.47-.82-1.75-6.82-1.29-6.82.26,0,.34.7.43,1.08-.15-1,.28-4.9.66-5.21-.44.36,1.42,5.29.28,3.29a24.38,24.38,0,0,0,.4,2.5,7.22,7.22,0,0,0,.59-3.66,1.49,1.49,0,0,0,.37.45c1.34-.79-1.48-4.48-.54-5.45.55-.58,1.3,2.38,1.9,3.66a27.16,27.16,0,0,1-.35-3.22c-.25-1-1.09-2.07-.46-3.14-.55.94,3,5,2.23,5.67,1-.84-2.62-6.65-.87-6.9-.25,0,1.76,5.38,1.83,5.31,1.2-1.07-2-5.17-1.09-6.58.51-.79.9.19,1.21,1.3a1.2,1.2,0,0,1,.3-.94c.08-.06.4,1.27.53,1.18,0-1.54-.43-3.91.52-5.25-.47.67.86,3,1.13,3.67.07-.71-.13-6.76.23-6.84s1.6,3.92,2.07,4.34c-.15-2.18-1.88-4.58-1.18-6.78-.11.33,1.67,5.3,2.05,5.48a23.51,23.51,0,0,1-.4-2.8c-.24-1.12-1.18-2.91-.38-4,.67.5.46,1.59.6,2.3a14.12,14.12,0,0,0,1.18,3c.78-1.1-.65-3.56-.79-4.76-.2-1.75.69-3,.92-.57.12,1.18.55,3.37.94,1,0-.25-.09-1.59.17-1.71.57-.27.41,1.18.81,1.45.45-.84-1.69-4.33-.19-4.57a19.62,19.62,0,0,0,1.08,3.07c1.18-.88-.91-3.2,0-4.2.78-.82.83,1.76.88,2.26a15.08,15.08,0,0,0,.41,4c.62,1.71,2.57,3,1.89,5.05-.17-.55-1.63-2.63-1.57-2.89-.2.88.8,2.06.86,3,.09,1.26-.58,2.25-1,3.39-.13-1.86.17-3.44-.42-5.26-.27-.87-.58-2.71-1.43-3.24.05,0,.22,1.85.3,2.2a19.19,19.19,0,0,1,.82,4.93c-.49-1.1-1.26-2-1.77-3.14-.16-.34-.33-1.43-.79-1.57,0,0,.38,3.41.42,3.76s0,3.4.06,3.43c-.46-.26-.95-4-1-1.27,0,.71,1.65,4.21.65,4.64-.24-.49-2.29-5.5-2.61-5.07s.54,2.34.69,2.85,1.27,3.39.34,3.33c-.65,0-.87-2.74-1.14-3.22-1.32.86-.46-2.4-1.59-2,0,2.51,1.72,4.57,2.57,6.83.14.36,1.38,4.25,1.84,4s-.93-2.61-1-3c-.05.14,1.88,2.06,1.79,2.14.73-.64-2.32-3.09-1.4-3.55s1.77,2.76,2.16,2.51-1.58-3.7-1.15-4.34c.55-.83,2.08,2.6,1.64,3.28.72-1.1-1.24-3.4-.38-4.17.17-.15,1.62,3.57,1.95,3.47.75-.24-1.35-5.2-2.17-4.37-.26-1.88-1.2-4.15-.44-6,.93,1.58.43,3.57,1.4,5.15.12.19,1.57,3.24,1.57,3.24.35,0-.35-2.07-.17-2.3s.66,2.42,1.17,1.71-.86-2.45-1-3.13c-.77-3.73,2.38,1.29,1.61,1.74,1.15-.65-1-3.41-1.1-4.2-.43-2.58,1,.43,1.37,1.1,1.32,2.32.27-1.24,1.66-1.09,1.14.13-.4,3.49-.06,3.48,1.56-.06.72-2.88.65-3.62a.61.61,0,0,1-.16-.86l.29-.28c-.14-.48-.82-.83-.89-1.29a3.76,3.76,0,0,1-.62,2.48c-.42.31-.1.46-.56.24-.22-.11-.6-1.33-.39-1.55s.4.12.57.31c-.52-.73-.74-3.41-.88-4.06-.32-1.59-.07-4.22-1.36-5.4.16.14-.27.84-.65.55-.18-.14.18-3.72-.3-3.34-.1.17-.19.34-.28.51-.56.27-1.12-5.47-1.54-5.67.94.44,1.09,1.73,1.27,2.63a4,4,0,0,0,.32,1.47c.19.3.4-.39.44-.38.3.08,1,4.13,1.28,1.83.17-1.52-2.85-3.47-2-4.91a2.94,2.94,0,0,0,1.22-.22c.58.43.5,1.48,1.32,1.84a29.44,29.44,0,0,1-2.8-5.11c-.07.19,1.36,1,1.79,1.52-.48-.82-1.91-2.16-1.7-2.92.35-1.25,1.54,1.64,2,.45s-4.3-5.15-3.51-5.78,3.22,4.88,3.82,4.15c.44-.51-1.62-1.93-1.45-2.51.26-.89,1.86,1.84,2.15,1.41.47-.73-2.57-2.69-.79-2.15-.83-.39-1.43-2.62-1.77-3.29-.16-.32-1.61-2.77-1.08-2.7,1.08.14.09,1.83,1.39.7,1,.7,1,3,1.72,4,1,1.57.92.58.49-.54-.25-.67-1.19-3.15.36-1.89a18.25,18.25,0,0,1,1.34,3c.27-.5-.76-2.76-.12-3,.8-.3,1.66,3.37,1.91,3.85-.09-.58-1.42-3.39-.55-3.81.68-.33.51,1.54,1.3,1.54a13.78,13.78,0,0,1-.6-2.54c-.1.27,1.29,1.86,1.43,2a7.79,7.79,0,0,1,1.49,3.09c-.19-.21-1.3-1-1.28-1.24a5.33,5.33,0,0,0,1.35,3.29c1.17.72-.47-1.25-.32-1.5.61-1,1.73,1.46,1.82,1.8.62,2.24-.31.7-1.4.43.79.19,2.72,3.63.05,2.45-2.44-1.08-1.32-.33-.61.64v0s0,0,0,0a3.34,3.34,0,0,1,.25.4c.43.47,1.24,1.08,1.45,1.31a12.78,12.78,0,0,1,2,2.8c.25.47,2.17,3.71,1.94,4.08.56-.91-.8-1.85-1-2.6-.12-.48-.38-.46-.19-.9,0,0,.82.29.82.39,0-.81-2.17-2.08-1.55-2.88.12-.17,1.21.87,1.26.67s-1.18-1.95-.89-2c.93-.21,1.8,2.39,2.71,2.5,1.63.21-.48-2.27-.83-2.66-.62-.71-3.56-2.86-3.07-3.88.33-.69,1.76,2.23,2.53,2.23-.42,0-2.59-4.13-2.3-4.44.5-.54,2.13,2.92,2.77,3.43-.51-.44-1.31-2.91-1.74-3.4s-1.46-.81-1.86-1.55a4.85,4.85,0,0,1-.17-1.54c1.47.56,3.09,3,3.91,4.22a28.24,28.24,0,0,1,2.19,3.35c.44-.91-3.37-5.18-2.38-5.53.33-.11,2.34,3.19,2.37,3.48a5.54,5.54,0,0,0-2.3-4.05c-.18-.11-3.36-1.44-2.39-2,.37-.22,1.68,1.23,2,1.38a.86.86,0,0,1,.29-.31,4.78,4.78,0,0,1,.8.44c.78.36,1.25,1.17,2,1.58-.17-.41-1.19-3.38-1.47-3.44.67.13.94,1.1,1.51,1.42a2.06,2.06,0,0,0,1-.06c.88.69.68,3.26,1.89,3.47-.74-.13-.79-3.51-1.23-4.55-.13-.18-.22-.29-.27-.3s.19.13.27.3a39.62,39.62,0,0,1,2.1,4c.57-.71-1.44-2.54-.75-3.09.53-.43,1.64,2.19,1.83,2,.47-.43-1.23-1.88-.8-2.43.83-1,1.24,1.33,1.35,1.72s.65,2.68,1.17,2.27-1.14-2.27-.6-2.49,1.55,2.85,1.89,3.18a3.26,3.26,0,0,1-.06-1.61c-.19.37,1.8,4,1.8,4,.35-.17-.49-1.71-.54-2,.08.43.92.38,1.18.61a6.46,6.46,0,0,1,1.16,1.83c.68,1.24,1.43,2.45,2.09,3.71.44.81,2.48,4.46,1.31,5.21-.34.22-3.09-6.67-3.27-6.7a6.27,6.27,0,0,0,.06,1.73.51.51,0,0,1,0,.32,2,2,0,0,0,0-.32,4.69,4.69,0,0,0-.87-1.41c.25.12.46,2.25.58,2.63.35,1.15,2.44,4.67,1.48,5.82-.16.2-1.5-3.45-1.54-3.58s-.54-2.48-.78-2.27c-.82.72,1,4,1.29,4.73.2.48,1.91,3.76.9,3.48-.47-.13-3.19-6.94-3.47-6.7-.45.46.6,3.7.76,4.24s.94,2,.62,2.46c-.53.77-1.33-.18-1.14-.3,1.49.58-1.17-4.85-1.64-4.54-.84.56,1.5,5.22,1.77,5.79s.62,4.8.82,4.91c-1-1.14-.92-3.61-1.58-5-.9-1.94-2.72-3.3-3.43-5.34.1.64,1.18,3.2.3,3.75-.07,0-.61-1.47-1-1.47,0,0,1.58,6.37,1.27,6.93,0,.05-.95-.78-.94-.64.06,1.17,1.62,2.45.81,3.67-.94,1.4-.95-.72-1-1.34-.12-1.28-.19-2.56-.33-3.84,0-.25-.26-2.6-.64-1.67a3,3,0,0,0-.48-1.41c-.13-.07-.26,1.37-.22,1.56.12.75.66,1.18.72,2s-.59,1.62-.56,2.45a10.1,10.1,0,0,0,.53,2c.34,1.33,0,2.05-.84.42-.33-.61-.46-3.65-1.19-3.79,0,0,.25,1.7.06,1.76-.49.16-.46-2.06-.86-1.83-.77,1.15-.54,2.27-.57,3.44-.08,3.29-1.28-.48-1.3-.47-.83.5,1.26,4.46.08,4.53-.08,0-.3-.35-.36-.28-.3.28.43,2.55.52,2.93.24,1.12.79,2.53-.1,3.52.31-.34-.65-3.53-.7-4.13-.08-1,.45-4.16-.62-4.73.17.09-.4,4.27-.77,4.37-.78.21-.6-3.74-.62-4.36,0,.39-.6,4.13-.48,4.19-.45-.2-.59-1.37-.73-1.75a5.12,5.12,0,0,1-.22,2.8c-.26.61-.69,1.81-1.05,2.68a7.48,7.48,0,0,0-.58-3.38c.32.58.82,5.25.17,5.48a18.18,18.18,0,0,1-.89-5.19c-.36.76.47,2.86-.44,3.29-1.55.73-.38-2.14-.45-2.37-.36-1.17-.73.63-.78,1a24.5,24.5,0,0,0-.16,3.83c0,1.59,1.41,6.13.24,7.18-.85.76-.71-1.75-.73-2.27-.13-2.51-.36-5-.61-7.51a27.22,27.22,0,0,0,0,6.25c.1.86.67,3.37,0,4.12-.79.92-.59-1.37-.61-1.83,0-.26-.31-3.33-.3-3.33-1.17.78.89,8.91-.72,8.63-.68-.12-.3-4.09-.29-4.57s.15-4.25-.46-3.43c-.12.05-.23-2.37-.69-1-.16.51.33,1.52.39,2.08a7.21,7.21,0,0,1-.28,2.81c-.05-.17-.52-1.05-.45-1.15,0,.28-.07.57-.1.86,0,.45,0,.91-.05,1.36-.12-.36-1.62-3.58-1.41-3.68-1.07.56,0,2.76,0,3.62a17.64,17.64,0,0,0-.16,2.73c0,.32.37,1.65-.18,1.83-.1,0-2.11-5.84-2.11-5.84-.34.4,1.36,10.93.32,10.93.54,0-1.88-9.05-2.56-8.44-.31.27,1,3.6,1.1,4,.2,1,.19,2.52-.57.88-.14-.32-.65-3.82-1.13-2.93-.23.42.86,4,.1,4-.24,0-.89-2.62-1.15-2.38,0,1.59.62,2.92.34,4.54-.05.31-.8,2.69-.61,2.84-1.14-.91.8-3.42-.48-4.2a18.63,18.63,0,0,1-.24,3.49c.2-.29-.18-2.28-.6-2.33s-.32,2.23-.33,2.44c-.08-.42-.67-1.63-.45-2-.41.71.46,2.27-.13,2.85C339.7,175.2,339.66,173.14,338.91,173.09Zm6.27-26.5c-.53.79-.8-.51-.36-.8C345.22,145.82,345.15,146.34,345.18,146.59Zm4.22,34.7c-1.12.94-.88-2.5-.91-3.32-.05.44,0,4.14-1.3,3.48-.48-.25.2-2.42-.25-2.42-.85,0,0,3.77-.79,4.33-1.19.89-.29-2.21-.84-2.21-.85,0,0,2.65-.81,2.95-.27.1-.31-1.48-.3-1.58-.2.5-.49,5.34-.94,5.34s-.21-2.74-.78-3.06c-1-.58-.33,2.06-.28,2.43.11.83-.1,2.9-.72,1.2-.06-.16.1-3.76-.18-3.6-1.4.77.59,4.67-.67,5.47-.37.23-.32-4.37-.25-5s.17-1.77.86-2.22c.34-.22.32.34.41.29a4.29,4.29,0,0,0,2-2.86c.13-.55-.36-2.43.22-2.77.92-.55.2,2.55.55,2.36s.35-3.56.78-3.5c.71.08.43,3,.45,3.46,0-.59.93-6.25,1-6.25.6,0-.28,4.88.89,3.49.77-.93-1-4.67-.18-5.18.35-.22,1.87,4.05,1.38,4.7.42-.56,0-2.35.54-2.68s.62.47.62,1C349.8,176.55,350.86,180.07,349.4,181.29ZM375.5,163c0-.6-.87-3.33-.56-3.72-.77,1,.15,3,.25,4.05.15,1.61-.2,2.15-1.67,2.77-.15-1.36.49-4.1-.14-5.25.17.32-.44,1.85-.48,2.19-.14,1.12.06,2.25,0,3.38,0,.67-.74,4.34-1.12,2,0,.2-.84.23-1,.08-.41-.4.21-1.28-.1-1.78a9.32,9.32,0,0,1-.56,2.58c-.41-.18-.62-.86-.74-1.67a13.48,13.48,0,0,1-.36,3.64c-.1.37-1.24,2.61-1.16,2.74-.62-1.06.5-3.54.63-4.73.07-.68,0-3.3-.66-1.94-.21.39.26,2.7-.63,2-.73-.6.27-2.37-.33-3-.34-.35-.41,3.42-.4,3.65,0,.92.29,3-.33,3.77-1,1.17-.91-.85-.89-1.56,0-.22,0-.45,0-.67a1.37,1.37,0,0,1-.07.29,3.25,3.25,0,0,1-.45,1c0,.62-1,.68-1.21,0,0,.57.16,1.19-.25,1.55.42-.38-1.59-5.07-1.29-5.22-.68.34.31,3.86-.84,3.74-.64-.07,0-4.21-1-2.55-.28.5.45,4.11-.44,3.8-.4-.13-.23-4.1-.16-4.11-.28.06-1.46,4.95-1.23,5.32-.36-.57,0-1.29-.39-1.85.27.4-.32,2-.62,2.33.45-.52-.75-2.27-.73-3.3-.09.47-.2,1.18-.41,1.14-.42-.1-.26-.93-.79-.64-.23.13-.13.95-.21,1.19s-1.14,1.65-.88,1.86a9.53,9.53,0,0,1-.34-3.38c-.61.63-.09,6.83-.58,6.8-.8,0-.4-3.66-1-3.64-.9,0-.46,3.52-.45,4.09s.18,2.89-.57,2-.51-3.26-.59-4.23a24.76,24.76,0,0,1-.13-5.09c.13-1,.57-2.25,1-.59.15.56-.55,3.58.27,2.91.27-.22.11-4.55.72-4.19.32.19,0,.93.31,1.15.11.07.64-2.7.8-2.4.37.68.51,2.56,1,1,.2-.73-.62-2.63-.08-3.21-.11.12,1,3.82,1.33,3.91a36.16,36.16,0,0,1-.6-3.61c.49-2.11.86,1.05,1.08,1,.43-.18-.28-2.31,0-2.31,0,0,1.61,4.09,1.15,1.16,0-.22-1.28-2.72,0-2.49.41.07,0,2.25.55,2.25.75,0-.49-3.52.18-3.85.22-.11.61,4.75.89,4.75s0-3.22.1-3.51c.09-.46.32-.67.4-1.06.21-1-.32-2-.05-3-.11.4.62.5.77.78.24.44.14,1,.28,1.51.2.71,1,1.81.69,2.55.32-.73-.16-1.75.1-2.5.35-1,.88-.65.89-.34.09-.82-.52-4.44-.39-4.39.86.37.55,3.9,1,4,.21.07.34-4.48,1-4.66.21-.06.33,7.86.52,7.86.53,0,.25-5.79.7-6.3,1.47-1.67.87,4.08.72,4.07,1.21.11.92-3.93,1-4.63.16.92.31,1.83.46,2.75,0-.83-.44-4,.62-4.34-.56.19.62,4.66.43,4.79.8-.52.11-3.44.47-4.21s.24-.8.7,0a4.11,4.11,0,0,1,.38,1.7c0-.87-.06-1.73,0-2.59,0-.43-.09-2.2.35-2.55-.06,0,.95,5.61,1,5.61,1-.18.62-6.91.61-7.86.15.39,1.63,4.46,1.25,4.84a13.69,13.69,0,0,0,.5-4,12.8,12.8,0,0,1,.84,3.69c.91-.94-.31-5.24-.35-6.48-.1-3.24,1-1.07,1,.34,0-.23.13-.41.35-.41s.19,6.17.42,6.8A8.05,8.05,0,0,1,375.5,163Zm1.1,1.53c-1-.58.27-5.14.17-6.22-.16-1.94-.87-3.55-.7-5.52.05-.47.05-4,.51-4.23,1.12-.51.8,3.07,1.06,3.24s.43-4,.4-4.39c0-.71-1.26-4.83-.68-5.43.16-.18,1.27,2.75,1.33,3a12.39,12.39,0,0,1,.34,3.21,22.09,22.09,0,0,0,.51,6.92c-.23-3.07.46-6.1-.24-9.11-.26-1.09-1.56-4.6-.83-5.65.6-.88.75.57.8,1.06A20.61,20.61,0,0,0,380,145c.12.46.67,4.72.28,4.93.92-.51.28-3.81.18-4.66-.08-.66-.61-2.08-.19-2.65.23-.31,1.43-.64,1.23.12.1-1.16,1-.66,1,0-.19-1.7-1.16-3.23-1-5a3.39,3.39,0,0,1,.55-1.77c.28-.26,1,.56.67.65a.89.89,0,0,1-.46-.1c-.42.22.57,4.8.65,5.48s.73,3.34,0,3.91c1.12-.93-.57-4.92,1.36-4.39,0,0,1.24-4.21.77-.17,0,.24-.27,2.42.36,1.76.31-.33-.36-2.13.57-1.72.63.29,1.44,5.14,1,5.74-.72,1-.7-3.43-.95-3.43-1.25,2-.18,3.71-.26,5.77-.06,1.4-.25,1.28-.65.28-.76-1.91-.51-4.24-.75-6.33-.05.91-.34,2.18-.35,2.59,0,1.19.56,3.71-.49,4.6.06,0-.86-1.95-.67-2-1,.43,1.23,5.69,0,5.74-.68,0-1.11-5.14-1.39-5.92a1.93,1.93,0,0,1,0,.83c0-.06.06-.07,0,0v0c-.11.18-.47.77-.47.79a7.68,7.68,0,0,0,.37,2.14c.1-.06.13-.21.14-.39a1.92,1.92,0,0,1,0-.54.28.28,0,0,1,0-.1.28.28,0,0,0,0,.1c0,.14,0,.35,0,.54.15,1.58,1.12,5-.2,5.27s.06-4.66-.81-5.25c.51.35,0,4.06,0,4.64-.08.79-1.74,5.82-1.6,5.91-.94-.63-.74-3.61-.6-5.81-.08.48-.16.9-.18,1.09-.06.58-.27,1.41-.4,2.23a5.66,5.66,0,0,0,.11,2.18,3.81,3.81,0,0,1-.11-2.18c.12-2.08.44-4.81-.5-5a29.43,29.43,0,0,0-.14,3.43C377.15,159,376.28,164.33,376.6,164.53Zm8.49,5.68c0-.15-.57-1,.11-1C386.7,170.13,385.1,169.76,385.09,170.21Zm11.68,19.36a6.08,6.08,0,0,0-2,.14c-.89.49-.52,1.33-.94,0-.1-.34.14-1.74-.36-1.91s-.74,1.65-.9,1.56c-.6-.32-.1-6.12-1.58-2.84-.37.83-.06,2.06-1.47,1.65-1.17-.35-.28-2.13-1.07-2.47s-.45,1.66-.58,1.71c-1,.38-.45-.75-.67-1.24-.83-1.86-1,.79-1,1.69-1.1.15-.44-2.19-.74-2.69-.75-1.26-.58,1.13-1.09,1.38.18-.08-1.08-.33-1.15-.35s-.47.2-.67.14-.34-.66-.6-.77-.16,1.31-.72,0c-.24-.55.07-1.15.07-1.7s.09-1.71-.6-.56c-.25.43.05,2.58-.57,2.73s-.37-1.52-.46-1.74c-.35-.84-.56-.3-.78-.56-.57-.68-.29-1.12-.48-2.08a18,18,0,0,0-1-2.32,3.74,3.74,0,0,1-.07-2.61c.06-.18.47-.25.55-.46s-.14-.6-.08-.69c.29-.43.1-.81.77-.2a1.72,1.72,0,0,1,.46,1.26c.06.51-.39,1.67.13,2.07.67.52.48-.09.87-.35-.5.34.8-1.23.84-1,.3-1.26-1.17-1.49-1.17-2.61,0-.5,1.28-2.1,1.93-1.68-.14,1.25-.53.81.09,1.76.22.35.88,1.2,1.34,1.23,1.46.13-.6-2.26-.84-2.8s-.58-2.65.46-1.86c.89.66-.18,1.86,1.07,2.09.12,0,.1-.89.69-.49.26.18-.14,2.16.65,1.82,1.43-.62-.88-2.89-.83-3.8.08-1.9,1.26.71,1.56,1.18,1,1.51,1.65,1.58.93-.35-.18-.45-1.2-4.54.47-3.23-1.12.59,1.16,1.18,1.53,1.41.91.57,2.17,1.68,2.3.3,0,.35,1.38.55,1.32.5.6.45,1.42,2.64,1,3.29-.08.13-1.58-1.67-1.82-1.77-.86-.35-2.16.3-1.49,1.13.32.39.76-.48,1.17.33.26.54-.28.16-.28.55a.74.74,0,0,0-.32.61,1.35,1.35,0,0,0,.62.89c.19.57.22,1.43.47,2,.24-.19.65-.06.89-.22s.19-.31.43-.51c.09-.08-.29-.75.12-.85.19,0,.42.35.57.43s1.18,1,1.15,1.3c-.1.74-.57.06-1,.29,0,0-.56.68-.66.78-.5.45-1.24.41-1,1.33s1.35-.88,2.33.21-1.07,0-1.31.54c-.55,1.2,2.51,1.31,2.09,2.36-.06.16-1.67.09-1,.86.31.36.86-.18,1.19,0s1.83,2.28,1.54,2.59c-.09.09-1.93-2.42-2.53-1.71-.95,1.14,2.7,2.73,2.7,3.23C397,188.78,397.17,189.26,396.77,189.57Z" fill="#50d6cc"/><path d="M380,156.7c.27.05.05-1.42,0-1.51C380,155.41,379.77,156.66,380,156.7Z" fill="#50d6cc"/><path d="M379.37,156.42c-.08,0-.19,1.45,0,1.49S379.4,156.5,379.37,156.42Z" fill="#50d6cc"/><path d="M381.51,147.64c.68,0-.44-3.14-.51-3.07C381,145,381,147.64,381.51,147.64Z" fill="#50d6cc"/><path d="M369.19,164.56a5.21,5.21,0,0,0,0-.65C369.17,164.13,369.18,164.34,369.19,164.56Z" fill="#50d6cc"/><path d="M365.33,168.07c0-.37,0-.74,0-1.11C365.33,167.33,365.33,167.7,365.33,168.07Z" fill="#50d6cc"/><path d="M362.38,162.57a.23.23,0,0,0,0-.11A.49.49,0,0,1,362.38,162.57Z" fill="#50d6cc"/><path d="M363.76,169.92a3.88,3.88,0,0,0-.07-1.72A7.9,7.9,0,0,0,363.76,169.92Z" fill="#50d6cc"/><path d="M360.27,164.68c-.43,0,.05,2.26.12,2.43C360.46,166.91,360.73,164.68,360.27,164.68Z" fill="#50d6cc"/><path d="M371.42,165.05a5.86,5.86,0,0,0-.06-2C371.3,163.33,371.34,165.62,371.42,165.05Z" fill="#50d6cc"/><path d="M362,167.63c.55,1.27.67-1.55.72-1.89,0-.18,0-.37,0-.55C362.58,165.86,361.72,166.94,362,167.63Z" fill="#50d6cc"/><path d="M370.1,161.75c0-.54,0-1.07,0-1.61C370.07,160.74,370.06,161.31,370.1,161.75Z" fill="#50d6cc"/><line x1="4.77" y1="188.56" x2="4.77" y2="191.06" fill="none" stroke="#a3a3a3" stroke-linecap="round" stroke-linejoin="round"/><line x1="4.77" y1="196.21" x2="4.77" y2="348.02" fill="none" stroke="#a3a3a3" stroke-linecap="round" stroke-linejoin="round" stroke-dasharray="5.15 5.15"/><polyline points="4.77 350.6 4.77 353.1 7.27 353.1" fill="none" stroke="#a3a3a3" stroke-linecap="round" stroke-linejoin="round"/><line x1="10.79" y1="353.09" x2="16.08" y2="353.09" fill="none" stroke="#a3a3a3" stroke-linecap="round" stroke-linejoin="round" stroke-dasharray="3.52 3.52"/><line x1="17.84" y1="353.09" x2="20.34" y2="353.09" fill="none" stroke="#a3a3a3" stroke-linecap="round" stroke-linejoin="round"/><line x1="20.34" y1="2.08" x2="17.84" y2="2.08" fill="none" stroke="#a3a3a3" stroke-linecap="round" stroke-linejoin="round"/><line x1="14.32" y1="2.08" x2="9.03" y2="2.08" fill="none" stroke="#a3a3a3" stroke-linecap="round" stroke-linejoin="round" stroke-dasharray="3.52 3.52"/><polyline points="7.27 2.08 4.77 2.08 4.77 4.58" fill="none" stroke="#a3a3a3" stroke-linecap="round" stroke-linejoin="round"/><line x1="4.77" y1="9.66" x2="4.77" y2="149.25" fill="none" stroke="#a3a3a3" stroke-linecap="round" stroke-linejoin="round" stroke-dasharray="5.08 5.08"/><line x1="4.77" y1="151.79" x2="4.77" y2="154.29" fill="none" stroke="#a3a3a3" stroke-linecap="round" stroke-linejoin="round"/><line x1="305.79" y1="406.6" x2="308.29" y2="406.6" fill="none" stroke="#a3a3a3" stroke-linecap="round" stroke-linejoin="round"/><line x1="313.23" y1="406.6" x2="547.96" y2="406.6" fill="none" stroke="#a3a3a3" stroke-linecap="round" stroke-linejoin="round" stroke-dasharray="4.94 4.94"/><polyline points="550.43 406.6 552.93 406.6 552.93 404.1" fill="none" stroke="#a3a3a3" stroke-linecap="round" stroke-linejoin="round"/><line x1="552.93" y1="398.51" x2="552.93" y2="367.75" fill="none" stroke="#a3a3a3" stroke-linecap="round" stroke-linejoin="round" stroke-dasharray="5.59 5.59"/><line x1="552.93" y1="364.95" x2="552.93" y2="362.45" fill="none" stroke="#a3a3a3" stroke-linecap="round" stroke-linejoin="round"/><line x1="26.34" y1="360.95" x2="26.34" y2="363.45" fill="none" stroke="#a3a3a3" stroke-linecap="round" stroke-linejoin="round"/><line x1="26.34" y1="367.97" x2="26.34" y2="401.84" fill="none" stroke="#a3a3a3" stroke-linecap="round" stroke-linejoin="round" stroke-dasharray="4.52 4.52"/><polyline points="26.34 404.1 26.34 406.6 28.84 406.6" fill="none" stroke="#a3a3a3" stroke-linecap="round" stroke-linejoin="round"/><line x1="33.74" y1="406.6" x2="266.48" y2="406.6" fill="none" stroke="#a3a3a3" stroke-linecap="round" stroke-linejoin="round" stroke-dasharray="4.9 4.9"/><line x1="268.93" y1="406.6" x2="271.43" y2="406.6" fill="none" stroke="#a3a3a3" stroke-linecap="round" stroke-linejoin="round"/><path d="M5.49,164.34a3,3,0,0,1,3.07,3,4.76,4.76,0,0,1-1.86,3.34A14.21,14.21,0,0,0,3.82,174H8.26a.24.24,0,0,0,.19-.07.23.23,0,0,1,.22-.08V175H2.45v-.75a12.78,12.78,0,0,1,3.08-3.94c.77-.69,1.86-1.62,1.86-2.91a2,2,0,0,0-2-2,2.21,2.21,0,0,0-1.81,1c-.09.14,0,.25-.15.39l-.86-.69A3.43,3.43,0,0,1,5.49,164.34Z"/><line x1="589.09" y1="336.93" x2="589.09" y2="339.43" fill="none" stroke="#a3a3a3" stroke-linecap="round" stroke-linejoin="round"/><line x1="589.09" y1="343.08" x2="589.09" y2="348.56" fill="none" stroke="#a3a3a3" stroke-linecap="round" stroke-linejoin="round" stroke-dasharray="3.66 3.66"/><polyline points="589.09 350.39 589.09 352.89 586.59 352.89" fill="none" stroke="#a3a3a3" stroke-linecap="round" stroke-linejoin="round"/><line x1="581.47" y1="352.89" x2="563.57" y2="352.89" fill="none" stroke="#a3a3a3" stroke-linecap="round" stroke-linejoin="round" stroke-dasharray="5.12 5.12"/><line x1="561.01" y1="352.89" x2="558.51" y2="352.89" fill="none" stroke="#a3a3a3" stroke-linecap="round" stroke-linejoin="round"/><line x1="558.51" y1="294.56" x2="561.01" y2="294.56" fill="none" stroke="#a3a3a3" stroke-linecap="round" stroke-linejoin="round"/><line x1="566.13" y1="294.56" x2="584.03" y2="294.56" fill="none" stroke="#a3a3a3" stroke-linecap="round" stroke-linejoin="round" stroke-dasharray="5.12 5.12"/><polyline points="586.59 294.56 589.09 294.56 589.09 297.06" fill="none" stroke="#a3a3a3" stroke-linecap="round" stroke-linejoin="round"/><line x1="589.09" y1="300.2" x2="589.09" y2="304.92" fill="none" stroke="#a3a3a3" stroke-linecap="round" stroke-linejoin="round" stroke-dasharray="3.15 3.15"/><line x1="589.09" y1="306.49" x2="589.09" y2="308.99" fill="none" stroke="#a3a3a3" stroke-linecap="round" stroke-linejoin="round"/><path d="M570.12,328.54a1,1,0,1,1,1-1A1,1,0,0,1,570.12,328.54Z"/><path d="M580,322.7a2.86,2.86,0,0,1,1.82,2.74,3.09,3.09,0,0,1-3.27,3.09,3.71,3.71,0,0,1-2.78-1.21l.9-1.07c.15.16.07.32.22.48a2.26,2.26,0,0,0,1.65.72,2.13,2.13,0,0,0,2.14-2.16c0-1.26-1.06-2-2.49-2a3.27,3.27,0,0,0-.54,0v-.95a4.22,4.22,0,0,0,1.67-.27,1.87,1.87,0,0,0,1.13-1.67,1.72,1.72,0,0,0-1.84-1.65,2.55,2.55,0,0,0-1.83.81l-.66-.73a3.45,3.45,0,0,1,2.55-1.13,2.78,2.78,0,0,1,2.91,2.68A2.43,2.43,0,0,1,580,322.7Z"/><path d="M588.47,322.7a2.86,2.86,0,0,1,1.82,2.74,3.09,3.09,0,0,1-3.27,3.09,3.71,3.71,0,0,1-2.78-1.21l.9-1.07c.15.16.07.32.22.48a2.26,2.26,0,0,0,1.65.72,2.13,2.13,0,0,0,2.14-2.16c0-1.26-1.06-2-2.49-2a3.27,3.27,0,0,0-.54,0v-.95a4.22,4.22,0,0,0,1.67-.27,1.87,1.87,0,0,0,1.13-1.67,1.72,1.72,0,0,0-1.84-1.65,2.55,2.55,0,0,0-1.83.81l-.66-.73a3.45,3.45,0,0,1,2.55-1.13,2.78,2.78,0,0,1,2.91,2.68A2.43,2.43,0,0,1,588.47,322.7Z"/><path d="M597,322.7a2.86,2.86,0,0,1,1.82,2.74,3.09,3.09,0,0,1-3.27,3.09,3.71,3.71,0,0,1-2.78-1.21l.9-1.07c.15.16.07.32.22.48a2.26,2.26,0,0,0,1.65.72,2.13,2.13,0,0,0,2.14-2.16c0-1.26-1.06-2-2.49-2a3.27,3.27,0,0,0-.54,0v-.95a4.22,4.22,0,0,0,1.67-.27,1.87,1.87,0,0,0,1.13-1.67,1.72,1.72,0,0,0-1.84-1.65,2.55,2.55,0,0,0-1.83.81l-.66-.73a3.45,3.45,0,0,1,2.55-1.13,2.78,2.78,0,0,1,2.91,2.68A2.43,2.43,0,0,1,597,322.7Z"/><path d="M289.78,405.74a2.84,2.84,0,0,1,1.82,2.73,3.07,3.07,0,0,1-3.26,3.09,3.7,3.7,0,0,1-2.78-1.2l.89-1.07c.15.15.08.32.22.48a2.33,2.33,0,0,0,1.66.72,2.13,2.13,0,0,0,2.13-2.16c0-1.27-1-2-2.49-2a4.9,4.9,0,0,0-.54,0v-1a4.1,4.1,0,0,0,1.68-.27,1.86,1.86,0,0,0,1.13-1.67,1.73,1.73,0,0,0-1.84-1.65,2.53,2.53,0,0,0-1.83.82l-.66-.74a3.47,3.47,0,0,1,2.54-1.13,2.79,2.79,0,0,1,2.92,2.68A2.46,2.46,0,0,1,289.78,405.74Z"/><line x1="114.09" y1="14.55" x2="114.09" y2="2.16" fill="none" stroke="#a3a3a3" stroke-linecap="round" stroke-linejoin="round" stroke-dasharray="5 5"/><polyline points="66.26 71.92 114.09 71.92 114.09 37.48" fill="none" stroke="#a3a3a3" stroke-linecap="round" stroke-linejoin="round" stroke-dasharray="5 5"/><line x1="26.72" y1="71.92" x2="42.97" y2="71.92" fill="none" stroke="#a3a3a3" stroke-linecap="round" stroke-linejoin="round" stroke-dasharray="5 5"/><polyline points="88.63 46.96 88.63 137.07 101.37 137.07" fill="none" stroke="#a3a3a3" stroke-linecap="round" stroke-linejoin="round" stroke-dasharray="5 5"/><polyline points="139.56 47.98 139.56 137.07 126.09 137.07" fill="none" stroke="#a3a3a3" stroke-linecap="round" stroke-linejoin="round" stroke-dasharray="5 5"/><path d="M109.65,141.89a1,1,0,1,1,1-1A1,1,0,0,1,109.65,141.89Z"/><path d="M119.49,136.06a2.84,2.84,0,0,1,1.82,2.73,3.08,3.08,0,0,1-3.26,3.09,3.7,3.7,0,0,1-2.78-1.2l.89-1.07c.15.15.08.31.22.48a2.34,2.34,0,0,0,1.66.71,2.12,2.12,0,0,0,2.13-2.15c0-1.27-1-2-2.49-2a4.9,4.9,0,0,0-.54,0v-.95a4.1,4.1,0,0,0,1.68-.27,1.86,1.86,0,0,0,1.13-1.67,1.73,1.73,0,0,0-1.84-1.65,2.53,2.53,0,0,0-1.83.82l-.66-.74a3.47,3.47,0,0,1,2.54-1.13,2.79,2.79,0,0,1,2.92,2.68A2.46,2.46,0,0,1,119.49,136.06Z"/><polyline points="128.85 204.25 128.85 235.25 268.36 235.25" fill="none" stroke="#a3a3a3" stroke-linecap="round" stroke-linejoin="round" stroke-dasharray="5 5"/><polyline points="451.01 205.28 451.01 235.25 328.58 235.25" fill="none" stroke="#a3a3a3" stroke-linecap="round" stroke-linejoin="round" stroke-dasharray="5 5"/><path d="M280.94,239.88h-1.18v-9.14l-2.13.63-.28-.66,2.77-1.45h.82Z"/><path d="M288.41,240.06a1,1,0,1,1,0-1.95,1,1,0,1,1,0,1.95Z"/><path d="M300,231.65a3,3,0,0,1-1.69,2.56,3.35,3.35,0,0,1,2.05,2.92,3.06,3.06,0,0,1-3.27,2.91,3,3,0,0,1-3.21-2.83,3.42,3.42,0,0,1,2.11-3,2.87,2.87,0,0,1-1.61-2.49,2.73,2.73,0,0,1,2.86-2.61A2.62,2.62,0,0,1,300,231.65Zm-4.9,5.4a2,2,0,0,0,2,1.92,1.91,1.91,0,0,0,2-1.85,2.82,2.82,0,0,0-2.26-2.4A2.71,2.71,0,0,0,295.1,237.05Zm.42-5.4c0,1.4,1.87,2.13,1.87,2.13a2.53,2.53,0,0,0,1.45-2.05,1.63,1.63,0,0,0-1.69-1.59A1.56,1.56,0,0,0,295.52,231.65Z"/><path d="M306.75,234.22a2.84,2.84,0,0,1,1.82,2.73,3.08,3.08,0,0,1-3.26,3.1,3.71,3.71,0,0,1-2.78-1.21l.89-1.07c.15.15.08.32.22.48a2.29,2.29,0,0,0,1.66.72,2.13,2.13,0,0,0,2.13-2.16c0-1.26-1.05-2-2.49-2a3.27,3.27,0,0,0-.54,0v-1a3.92,3.92,0,0,0,1.68-.27,1.86,1.86,0,0,0,1.13-1.66,1.72,1.72,0,0,0-1.84-1.65,2.51,2.51,0,0,0-1.83.81l-.66-.73a3.44,3.44,0,0,1,2.54-1.14,2.79,2.79,0,0,1,2.92,2.69A2.44,2.44,0,0,1,306.75,234.22Z"/><path d="M315.25,234.22a2.84,2.84,0,0,1,1.82,2.73,3.08,3.08,0,0,1-3.26,3.1,3.71,3.71,0,0,1-2.78-1.21l.89-1.07c.15.15.08.32.22.48a2.29,2.29,0,0,0,1.66.72,2.13,2.13,0,0,0,2.13-2.16c0-1.26-1.05-2-2.49-2a3.27,3.27,0,0,0-.54,0v-1a3.92,3.92,0,0,0,1.68-.27,1.86,1.86,0,0,0,1.13-1.66,1.72,1.72,0,0,0-1.84-1.65,2.51,2.51,0,0,0-1.83.81l-.66-.73a3.44,3.44,0,0,1,2.54-1.14,2.79,2.79,0,0,1,2.92,2.69A2.44,2.44,0,0,1,315.25,234.22Z"/><polyline points="113.45 244.87 113.45 381.07 276.29 381.07" fill="none" stroke="#a3a3a3" stroke-linecap="round" stroke-linejoin="round" stroke-dasharray="5 5"/><polyline points="465.74 245.88 465.74 381.07 303.63 381.07" fill="none" stroke="#a3a3a3" stroke-linecap="round" stroke-linejoin="round" stroke-dasharray="5 5"/><path d="M288.67,375.09a3,3,0,0,1,3.07,3,4.79,4.79,0,0,1-1.86,3.34,14.22,14.22,0,0,0-2.89,3.31h4.45a.22.22,0,0,0,.18-.07.26.26,0,0,1,.23-.08v1.19h-6.22V385a12.64,12.64,0,0,1,3.08-3.94c.76-.69,1.85-1.62,1.85-2.91a2,2,0,0,0-2-2,2.2,2.2,0,0,0-1.81,1c-.09.14-.05.25-.15.39l-.87-.69A3.47,3.47,0,0,1,288.67,375.09Z"/><line x1="184.17" y1="159.96" x2="415.25" y2="197.87" fill="none" stroke="#a3a3a3" stroke-linecap="round" stroke-linejoin="round" stroke-dasharray="5 5"/><line x1="183.67" y1="142.75" x2="183.67" y2="175.02" fill="none" stroke="#a3a3a3" stroke-linecap="round" stroke-linejoin="round" stroke-dasharray="5 5"/><line x1="415.75" y1="177.61" x2="415.75" y2="209.88" fill="none" stroke="#a3a3a3" stroke-linecap="round" stroke-linejoin="round" stroke-dasharray="5 5"/><path d="M427.07,187.64a3,3,0,0,1,3.07,3,4.76,4.76,0,0,1-1.87,3.34,13.93,13.93,0,0,0-2.88,3.3h4.45a.23.23,0,0,0,.18-.07.22.22,0,0,1,.23-.07v1.19H424v-.75a12.61,12.61,0,0,1,3.07-3.94c.77-.7,1.86-1.63,1.86-2.92a2,2,0,0,0-2-2,2.21,2.21,0,0,0-1.81,1c-.09.14,0,.24-.14.39l-.87-.69A3.44,3.44,0,0,1,427.07,187.64Z"/><path d="M47.58,77.88a1,1,0,1,1,1-1A1,1,0,0,1,47.58,77.88Z"/><path d="M59.2,67.1v1.07H54.83l-.16,3a3.75,3.75,0,0,1,1.72-.41,3.19,3.19,0,0,1,3.21,3.53,3.26,3.26,0,0,1-3.35,3.54,3.75,3.75,0,0,1-3.14-1.63l1.06-.79c.14.1.06.27.12.4a2.56,2.56,0,0,0,2,1,2.56,2.56,0,0,0,0-5,2.55,2.55,0,0,0-2,1l-.77-.31.37-5.38Z"/><path d="M108.19,30.67a1,1,0,1,1,0-2,1,1,0,1,1,0,2Z"/><path d="M119,19.88v6.63h1.36v1H119v2.92h-1.23V27.55h-4.27v-.88l4.5-6.79Zm-4.33,6.63h3.11V21.77Z"/><polyline points="589.09 271.07 589.09 274.73 586.59 274.73" fill="none" stroke="#a3a3a3" stroke-linecap="round" stroke-linejoin="round"/><line x1="581.55" y1="274.73" x2="120.63" y2="275.22" fill="none" stroke="#a3a3a3" stroke-linecap="round" stroke-linejoin="round" stroke-dasharray="5.04 5.04"/><line x1="118.11" y1="275.22" x2="115.61" y2="275.23" fill="none" stroke="#a3a3a3" stroke-linecap="round" stroke-linejoin="round"/><line x1="115.44" y1="243.58" x2="117.94" y2="243.58" fill="none" stroke="#a3a3a3" stroke-linecap="round" stroke-linejoin="round"/><line x1="122.98" y1="243.58" x2="584.07" y2="243.58" fill="none" stroke="#a3a3a3" stroke-linecap="round" stroke-linejoin="round" stroke-dasharray="5.04 5.04"/><polyline points="586.59 243.58 589.09 243.58 589.09 247.19" fill="none" stroke="#a3a3a3" stroke-linecap="round" stroke-linejoin="round"/><path d="M570.12,264.91a1,1,0,1,1,1-1A1,1,0,0,1,570.12,264.91Z"/><path d="M579.66,264.74h-1.19V255.6l-2.13.63-.28-.66,2.78-1.45h.82Z"/><path d="M590.27,255l-.82.91c-.16-.11-.15-.27-.26-.38a1.86,1.86,0,0,0-1.23-.44c-.77,0-2.51.47-2.57,4.09a2.59,2.59,0,0,1,2.24-1.27c1.5,0,2.91,1.26,2.91,3.47s-1.42,3.54-3,3.54a3,3,0,0,1-2.5-1.41,6.47,6.47,0,0,1-.8-3.59,10.44,10.44,0,0,1,.45-3.26A3.54,3.54,0,0,1,588,254,3.34,3.34,0,0,1,590.27,255Zm-4.83,5.37c-.14,2,.83,3.49,2.12,3.49.9,0,1.82-.77,1.82-2.42,0-1.83-1-2.49-1.86-2.49A2.52,2.52,0,0,0,585.44,260.35Z"/><path d="M598.77,255l-.82.91c-.16-.11-.15-.27-.26-.38a1.86,1.86,0,0,0-1.23-.44c-.77,0-2.51.47-2.57,4.09a2.59,2.59,0,0,1,2.24-1.27c1.5,0,2.91,1.26,2.91,3.47s-1.42,3.54-3,3.54a3,3,0,0,1-2.5-1.41,6.47,6.47,0,0,1-.8-3.59,10.44,10.44,0,0,1,.45-3.26,3.54,3.54,0,0,1,3.29-2.63A3.34,3.34,0,0,1,598.77,255Zm-4.83,5.37c-.14,2,.83,3.49,2.12,3.49.9,0,1.82-.77,1.82-2.42,0-1.83-1-2.49-1.86-2.49A2.52,2.52,0,0,0,593.94,260.35Z"/></svg>