<svg xmlns="http://www.w3.org/2000/svg" width="760" height="400"><path d="M0 400h760V0H0z" fill="#003776"/><path d="M44.14 357H720V43.49H44.14z" fill="#fff"/><path d="M297.91 272.61c-.37-1.08-2.57-1.67-7.14-.79-9.66 1.85-27.5 7.44-34.93 10.4a21 21 0 01-13.75.74l13.38 11.52-8.92 12.65c14.86-1.49 37.16-9.3 37.16-9.3s.37 1.49 1.86 7.06 4.09 4.46 15.23 1.49c24.9-6.7 53.88-15.24 79.16-15.24h0c25.27 0 54.26 8.54 79.16 15.24 11.14 3 13.75 4.08 15.23-1.49s1.86-7.06 1.86-7.06 22.29 7.81 37.16 9.3l-8.92-12.65L517.83 283a21.05 21.05 0 01-13.76-.74c-7.42-3-25.26-8.54-34.92-10.4-4.83-.93-7-.21-7.19 1v.14l-2.11 8.57c-26.32-9.34-44.52-13.19-79.88-13.83-35.37.63-53.56 4.49-79.89 13.84z" fill="#ff3516" stroke="#000" stroke-width=".5"/><path d="M296.29 291.62a3.06 3.06 0 00-2.07-.4 1.22 1.22 0 00-1 1.58c.49 2.16 4.46 1.38 5.28 4.92.53 2.33-.41 4.4-2.84 4.95a4.19 4.19 0 01-2.38-.15l-.56-2.46a3.42 3.42 0 002.12.23 1.43 1.43 0 001.17-1.77c-.23-1-1.12-1.19-2-1.56-1.72-.65-2.87-1.41-3.31-3.33s.32-4.13 2.54-4.65a4.84 4.84 0 012.45.12l.57 2.52M304.47 286.55l.58 2.42-2 .49 2.57 10.65-2.58.61-2.57-10.63-2 .49-.59-2.43 6.66-1.6M320 282.6l.62 2.41-2 .53 2.73 10.59-2.57.67-2.78-10.6-2 .52-.62-2.41 6.63-1.72M327 280.77l.64 2.41-2.61.68.75 2.84 2.29-.61.64 2.41-2.29.6.77 2.93 2.64-.69.64 2.41-5.21 1.38-3.43-13 5.17-1.37M351.05 275.22l.4 2.46-2.69.43.45 2.83 2.42-.38.37 2.44-2.42.38.88 5.52-2.62.41-2.11-13.28 5.3-.84M361.19 274.11l1.55 6.33c.21.94.3 1.9.46 2.84.07-1 .08-1.92.21-2.87l.93-6.49 2.1-.15 2.3 9.16c0-1 0-1.88.09-2.84l.64-6.5 2.77-.18-1.85 13.59-2.3.15-1.82-7c-.14-.81-.36-1.62-.53-2.43-.09.83-.12 1.66-.27 2.48l-1.08 7.19-2.31.15-3.56-13.25 2.7-.18M379.88 273.33v2.48l-2.69.05v2.93l2.37-.05v2.5h-2.37l.05 3 2.73-.05v2.49l-5.38.09-.24-13.44 5.36-.09M388.08 276.5a3.07 3.07 0 00-1.91-.89 1.22 1.22 0 00-1.36 1.28c-.06 2.22 4 2.44 3.89 6.08-.06 2.39-1.48 4.15-4 4.08a4.08 4.08 0 01-2.27-.73l.07-2.53a3.3 3.3 0 002 .76 1.43 1.43 0 001.57-1.41c0-1-.79-1.46-1.52-2-1.5-1.08-2.43-2.1-2.37-4.05.05-2.13 1.33-3.93 3.61-3.87a4.53 4.53 0 012.34.72l-.07 2.58M397.65 274l-.15 2.5-2.1-.13-.65 10.92-2.65-.15.65-10.92-2.09-.13.15-2.48 6.84.39M407.3 274.93l.72 6.61a23.19 23.19 0 01.16 2.35c.25-.75.4-1.51.72-2.26l2.47-6.14 2.76.37-5.51 12.82-2.16-.28-2-13.85 2.82.38M419.18 276.93l-2.75 13.17-2.6-.55 2.75-13.16 2.6.54M438.79 288.27l-.27 1c-.73 2.75-2.37 6.24-5.88 5.33s-3.64-5-2.88-7.88 2.76-6.51 6.44-5.54a4 4 0 013 4.1l-2.76.31c.05-.69.12-1.76-.87-2-1.71-.56-2.73 2.6-3.05 3.82s-1.06 4.35.83 4.85c1.31.34 2-1.35 2.22-2.25l-1.63-.43.63-2.41 4.21 1.11M444.85 283.68l-3.37 13-2.56-.66 3.36-13 2.57.67M449.74 284.93l1.26 8.67a8.48 8.48 0 01.28-2l1.48-5.86 2.57.65-3.28 13-2.43-.61-1.21-8.67-.21 1.35-.11.54-1.51 6-2.57-.65 3.27-13 2.47.63M460.33 287.54l-3.17 13.07-2.58-.62 3.17-13.07 2.58.62M344.42 283c-1.3-4.87-4.07-6.09-6.36-5.48s-4.08 3.05-2.77 7.92 4.06 6.09 6.35 5.48 4.08-3 2.78-7.92zm-3.42 5.59c-1.71.45-2.71-2.81-3-3.85s-1-4.34.67-4.81 2.67 2.69 3 3.85 1.04 4.35-.67 4.81zM424.81 278.38l-2.59-.7-3.5 13 2.57.69 1.62-6 .64 6.59 2.7.73-.66-6.52a3.74 3.74 0 002.75-2.86c.99-3.54-1.89-4.5-3.53-4.93zm1.06 4.29c-.29 1.06-1 1.73-2.14 1.42l-.45-.15.94-3.45.34.09a1.52 1.52 0 011.31 2.09zM467.84 303.12l-.11-13.84-2.73-.63-6.07 12.39 2.57.59 1-2.09 2.62.6v2.32zm-4.47-5.52l1.36-3.38.74-1.91-.17 2.06-.1 3.63zM310.24 285.11l-2.71.66.24 13.81 2.56-.64-.09-2.31 2.62-.66 1 2.07 2.76-.68zm-.09 9.37l-.32-3.61-.21-2 .79 1.9L312 294z"/><path fill="none" stroke="#000" stroke-width=".5" d="M283.71 297.83l-2.83-11.15M459.83 281.57s9.77 3.54 14.89 5.48c8.92 2.6 3.35-7.06-7.8-10.4-2.55-.77-4.44-2.12-5-3.67M476.21 297.83l2.9-11.38M300.07 281.56c-4.51 1.61-9.76 3.55-14.87 5.49-8.92 2.6-3.34-7.06 7.8-10.4 3.18-1 5.08-2.57 4.94-3.94"/><path d="M327.19 223.53l2.64-4.37-2.56-4.16a26.25 26.25 0 013.73.23c2.24.29 6.92 1.25 6.92 1.25s-3.24-2.31-3.11-4 1-3.37.52-6.34c0 0 2-2.29 8.33-.84s10.54 3.54 16 6.86a10.36 10.36 0 002.1-3.41c.5-1.68 1.58-2.65 3.65-2a127.38 127.38 0 0112.09 5.35c4.54 2.26 11 5.56 11 5.56s.71-.77.43-3.36 1.77-2.85 4.36-3.12 12.43-.62 16.5-1.32 7.16-2.66 9.54-3.49 5.7-1.88 6.18 1.09.83 2.56.83 2.56a10.15 10.15 0 018.51-1l-2.85 2.3s2.32 2.52 3.49 4.16c0 0-3.55-.62-8.11 2.14s-10.73 6.32-9.7-1.14c0 0-10.11 3.32-11.95 3.57s-3.93.5-3.93.5a35.7 35.7 0 00-2.76 5.13c-.68 1.87-1.17 3.75-3.6 3.46s-13.67-3-19.4-7.3c-2.68 3-1.37 8.77-4.78 6.85s-16.87-9.27-19-10.68a24.36 24.36 0 00-4.34-2.27s1 2.94.34 4.83 0 4.46-1.69 4.71c-2.52.36-6.29-.06-10.81-.92-4.1-.79-5.05-1.36-8.57-.83z" fill="#ff3516" stroke="#000" stroke-width=".5"/><path d="M343.66 212.11l-.92-.18.77-3.94-1.65 3.76-1-.18-.08-4.11-.78 3.94-.91-.19.91-4.71 1.44.29.13 3.87 1.56-3.54 1.43.27-.92 4.72M355.16 212.14l.82.47-2.4 4.16-.87-.5v-3.94l-1.71 3-.81-.47 2.4-4.16.91.53v3.84l1.67-2.9M356.82 218.61l-.87-.49 1.94-3.45-1.26-.71.41-.74 3.41 1.92-.42.74-1.26-.72-1.95 3.45M368.37 219.58l.81.46-2.34 4.18-.87-.48v-3.94l-1.67 3-.82-.45 2.34-4.2.92.51v3.85l1.63-2.92M369.07 225.46l-.87-.48 2.33-4.19.88.49-2.34 4.18M365.73 212.55c-.11.24-.23.75.54 1.15.42.22.94.36 1.18-.08s-.1-.59-.49-.93l-.4-.35c-.6-.52-1.19-1-.69-2 .25-.48.94-1.18 2.32-.45a1.61 1.61 0 01.93 2.23l-.85-.44c.08-.2.24-.68-.53-1.09-.34-.18-.81-.27-1 .12a.52.52 0 00.22.68l.9.79c.51.45.91 1 .51 1.73a1.68 1.68 0 01-2.4.51c-1.56-.82-1.35-1.85-1.08-2.37l.85.44M374.21 214.36l-2.21-1.24-.49.89 2.05 1.13-.42.74-2-1.14-.6 1.1 2.33 1.29-.41.73-3.19-1.77 2.34-4.2 3.08 1.72-.41.75M378.12 220.93l-.83-.43 1.86-3.56-2.66 3.15-.87-.46 1.09-4-1.86 3.56-.83-.44 2.23-4.25 1.29.68-1 3.75 2.52-3 1.28.66-2.23 4.26M390 221.8l-2.35-1-.39.93 2.16.91-.33.79-2.16-.91-.48 1.14 2.46 1-.33.79-3.36-1.42 1.86-4.42 3.25 1.36-.33.79M400.26 216.71l2.38-.15.06.86-3.38.23-.32-4.79 1-.06.26 3.91M405 217.24l-1 .08-.37-4.78 1-.08.39 4.78M415.09 211.72l-2.47.6.23 1 2.27-.54.2.84-2.27.54.28 1.2 2.59-.62.2.83-3.54.85-1.12-4.67 3.44-.82.19.82M423.83 212.06l-.95.32-1.52-4.55.95-.32 1.52 4.55M348.76 208.73a2.26 2.26 0 00-3.09 1.49 2.32 2.32 0 103.09-1.49zm.27 2.84c-.51 1.24-1.33 1.28-1.84 1.07s-1.08-.8-.59-2 1.34-1.28 1.84-1.07 1.09.74.56 2zM362.19 216.12l-3.84 3.34.92.52.77-.69 1.55.85-.21 1 .94.53.87-5zm-.44 3.17l-1.07-.6 1.47-1.35zM384.06 218.35l-2-.9-2 4.38.92.4.71-1.57 1 .47a1.49 1.49 0 002-.76 1.4 1.4 0 00-.63-2.02zm-.17 1.56a.66.66 0 01-1 .38l-.84-.4.57-1.27.73.32c.58.25.74.55.54.97zM394.27 222.57l-2.28-.86-1.68 4.51.92.34.66-1.76 1 .36c.69.26.65.52.41 1.13a3.51 3.51 0 00-.24.94l1.05.4v-.12c-.18-.16-.11-.32.14-1 .31-.83.16-1-.15-1.35a1.14 1.14 0 001.09-.8 1.36 1.36 0 00-.92-1.79zm0 1.55c-.17.44-.47.52-1 .34l-1.09-.41.44-1.21 1.17.45c.56.21.53.6.44.83zM410.51 215.25a1.11 1.11 0 00-.86-1.07 1 1 0 00.47-1c-.06-.5-.44-1.2-1.61-1.06l-2.32.26.54 4.77 2-.23c1-.11 1.22-.31 1.46-.6a1.32 1.32 0 00.32-1.07zm-3.27-2.19l1.15-.13c.45-.05.74 0 .78.43s-.25.56-.64.61l-1.17.13zm1.58 3l-1.23.14-.14-1.28 1.27-.13c.36-.05.73.07.78.49s-.2.72-.68.72zM421.63 212.76c-.22 0-.3-.13-.6-.77-.38-.81-.64-.85-1.07-.85a1.12 1.12 0 00.18-1.34 1.35 1.35 0 00-1.94-.59l-2.2 1 2.06 4.34.89-.41-.81-1.7.94-.44c.67-.32.81-.11 1.1.48a3.28 3.28 0 00.51.83l1-.48zm-2.77-1.52l-1.06.5-.55-1.14 1.14-.54a.59.59 0 01.9.27c.19.42.04.67-.43.91z"/><path d="M334.83 213.22c3.51-.85 6.69-.22 13.11 2.52M337.92 216.46s9 2.36 9.81-.81M376 221.84s-7.78-4.58-12.14-7.21-4.18-2.47-4.18-2.47M388.53 217.67s8.75 5.65 12.76 3.27c1.46-.8 1-2.45-2.89-2.87s-9.16-2-9.44-4.61M417.67 216.48s4.4-2 6.79-2.85 5.56-.38 2.1 1.42a51.17 51.17 0 00-6.2 3.56c-1.09.78-2.34 2.12-.85 2.26" fill="none" stroke="#000" stroke-width=".5"/><path d="M369.53 174.29c-2.68 0-5.52.29-8.11-.34s-4.49-2.67-7.34-1.77c-.09 1.07 0 2.13-.05 3.21-.15-1.48-3.56-2.14-4.81-2.62a25.94 25.94 0 00-6.42-2c-4-.46-5.55.2-6.16 5-.27 2.16-4.48 3.1-4.46 5.28 0 3.18 1 2.72 2.5 5.08 1 1.55.64 3.86 2.35 5.06 1.25.87 5.11.83 6.66 1.14 4.17.82 7 3.31 11.17 4.28 5.78 1.34 11.24 3.58 16.8 4.75 2.44.51 4.43 1.25 6.77 1.64 2.55.43 4.1-.75 6.67-.94 4.61-.34 8.63-1.46 13.38-1.75a18.34 18.34 0 006.88-1.5c1.71-.94 3.48-1.28 5.21-2.1 3.38-1.63 9.9-1.24 10.95-6.87 2.86-.33 1.83-3.11 2.53-4.76.91-2.15 1.75-2 3.5-2.6 3.32-1.12 9.82-11.23 8.28-8.13-.72 1.45 7.35-11.4-4.15-9.89-2.11.27-6.81 4.84-8.89 5.28s-3.82 1.82-5.74 2.76c-1.64.81-3.95-.11-5.83.45-2.12.64-4.58 2.26-6.86 2.47-2.06.18-4.73-.59-6.7 0a25.87 25.87 0 01-6.05 1.21 15.14 15.14 0 01-4.64-.25 46.43 46.43 0 00-6.7-1.16c-2.54-.21-12.37 1.7-13.33-.7" fill="#06884f"/><path d="M405.7 183.22a1.1 1.1 0 00-.69 1c.1 1.07.92.43 1.54.38 1.72-.13 2.75.52 4.17 1.13a20.86 20.86 0 003.93.78c1 .21 3.46-.24 4.15.53a2.42 2.42 0 00.37-2.63 52 52 0 01-6.93-.85c-1.23-.19-6.23-1.9-7-.13" fill="#ae5939"/><path d="M405.94 109.7c.1.54-.22.56-.33 1a4.47 4.47 0 00-.25 1.49c0 .63-.41.5.13 1.16s.84.45 1.48.5c1.13.08 2.31.34 2.73-.74.27-.66.19-2.5-.64-2.59 0-.18-.14-.51-.1-.72a4.49 4.49 0 00-2.79.17" fill="#8a4b28"/><path d="M407.23 121.17a5.76 5.76 0 00.73 2.44c.36 1-.23.28-.26 1.24-.06 1.6.21 4.45-.14 6-.38 1.68-.85 2.67.08 4.3.55 1 1.23 3.51 2.82 2.22 1.17-.94 1.24-2.82 1.44-4.11s1.48-3 .81-4.72c-.31-.8-1-.9-1.59-1.63-.43-.57-.69-1.09-1.14-1.64a5.81 5.81 0 01-1.61-4 2.74 2.74 0 00-1.14-.06" fill="#ff3516"/><path d="M372.11 132.25c-1.24 1.47-4.68.56-6.5.78-.3 1.11-1.39 1.07-1.75 2.07-.25.69.19 2.06.27 2.77a60.71 60.71 0 01.46 7.29c0 2.76-.44 2.91-2 4.83a11.08 11.08 0 00-2.66 5.78c-.39 2.14-.66 4.21-1.18 6.12a46 46 0 00-1.62 6.77c-.52 4.68 2.09 8.34 7 7.56 2.23-.35 3.19-1.18 5.58-1.22a27.55 27.55 0 016.68.23c3.78.91 6.12 4.48 10.61 3.42 1.74-.41 3.3-2 5.08-2.39 1.93-.48 5.68.89 7.32-.06 1.85-1.07 1.22-3.75 1.72-5.57.66-2.45 1.12-3.52.47-6.27-1.22-5.13.83-10.18-.8-15-.77-2.29-2.81-4.25-2.83-6.76 0-2.83 1.18-3.75.1-6.63-.66-1.75-.69.34-2.33-.42a19.48 19.48 0 00-2.23-1.4c-.8-.22-1.23-1.26-2-1.53-1-.36-1.94-1.15-2.94-1.53-1.29-.49-2-.07-3.52-.23a81.16 81.16 0 00-8.4 0c-3.53 0-4.46.7-7.34 2.11" fill="#ae5939"/><path d="M328 159.73c1.88.1 3 1.2 5.25 1.17a19.42 19.42 0 015.25.84c3.79.88 7.19 2.78 4.7 7.46-1.08 2-2 2-4 2.71-2.82.94-3.41 1.63-3.47 4.56 0 2-.37 3.63-.47 5.57s.84 3.85 1 5.57c.15 2.18-1.18 3.8-3.44 2.55-1.23-.69-2.11-3-3.14-3.89-1.53-1.37-3.26-2.05-3.85-4.09a28 28 0 00-1.92-5.37c-.66-1.32-1.56-2.47-2.16-3.8-1.23-2.69-.1-3.38 2.08-4.76.77-.49 1.4-1.2 2.14-1.67a13.25 13.25 0 002.19-1.11c.38-.41 1.31-1.89 1.62-2.32a6.3 6.3 0 001.29-2" fill="#e6cb01"/><path d="M411.26 105.5c.24.4-.25.73-.49.89-2 .4-4.3.32-6 1.3-.48.64.25 1.21.49 1.78.81.57 2.11-.81 2.6.4-.41.73-1.39.17-1.79.73.16.73-.57 1.86.32 2.19 1 0 1.86.49 2.92.33-.25-.73.32-1.62-.25-2.27-.4-.33-1.13-.33-1.05-1.06a.74.74 0 01.81-.08 3.43 3.43 0 011.47 3 .44.44 0 00-.17.41c.89.32 2.19 0 2.68 1a1.37 1.37 0 01-.81 1.46c-.74.57-2.27.08-2.27 1.46.16.57-.57.72-.41 1.3 1.13.4 2.51.4 3.73.72 1.7 1.22 3.65 2 5.35 3.33a4.49 4.49 0 013.33 2.92 5.34 5.34 0 01.48 4.3c-.56.48-.56 1.46-1.38 1.54-1.29.56-2.34-.41-3.64-.49l-1.95-1.94a5.82 5.82 0 00-1.7.24c-.41.24-.32 1.05-1 1.05-.24-.16-.08-.49-.16-.73-1.21-.24-1.45-1.54-1.78-2.51-.25-.41-.73-.16-1-.41-.81-.64-1.78-1.46-1.13-2.59a2.24 2.24 0 00-.17-2.11.63.63 0 00-.65-.16c-.16.48.17.81.25 1.22v2.51a5.22 5.22 0 01.73 4.86c-.49 1.54-2.28 3.25-.73 4.78.4-.08.4-.4.48-.73.09-.72-.65-1.29-.08-1.94s.81-1.38 1.22-2c.08-.08.16.08.16.17a5.65 5.65 0 01-1 2.26 8.24 8.24 0 01-.32 3.17l.16.08a2.84 2.84 0 001.29-2.51 9.12 9.12 0 001.06-2.92l.16.24c-.09 1.38-.9 2.59-1 3.89l-.64 2c.16.32.72.32 1 .24 1-.49.89-1.54 1.21-2.43-.23-.73-.73-1.71 0-2.44.33.09.65-.24.74-.56s0-.65.24-.65a1.37 1.37 0 01.25 1 4.77 4.77 0 01-1.06 1.46 4.17 4.17 0 01-1.3 4.54c-.24.73.33 1.3.25 2a5.78 5.78 0 001.54 5.76 30.09 30.09 0 006.16.81c.4-.4 0-1 0-1.46-.41-1.46.08-3 .08-4.46.49-.16.16-.56.16-.89.49-.81.49-1.94 1.13-2.67.73.08 1.46-.49 2.11-.08-.24 1.21-2.26 0-2.26 1.62a14 14 0 00-.65 7.13l.32 1.46c.81-.41 2.1.48 2.59-.57.65-2.92 1.22-6.16.25-9.16.4-.65 1 .08 1.54.08 1.3.65 1.3 2.35 1.54 3.65 0 .89-.24 2.11 1 2.27 4.38 2.19 8.84 4 13.3 6.08.65.81-.25 1.54-.25 2.35-.89 1.06-1.86-.16-2.68-.48a97 97 0 00-11.34-5.6c-.82 0-.74 1-1 1.46.49.89 1.87.24 2.27 1.38a.42.42 0 01.41.32 3.23 3.23 0 01-1.37 2c-1.79.4-4.31-.33-5.2 1.54-.48 1.13.41 2.11 0 3.24-.57.48-1.37.24-2 .24-.74-.48-.33-1.7-1.3-1.94-.33.48.08 1.21-.25 1.7-.48 0-.24-.65-.48-1l-.65-3.49c-.16-.16-.32-.32-.49-.32l-.16.16c0 1.54.65 3 .41 4.54-.65.08-.32-.65-.56-1l-.49-3.25-.32-.24-.25.24a13.15 13.15 0 01.25 3.9c-.33.72-1.3-.17-1.46.56 1.46.25 3.16.25 4.7.57.72.89 1.94.73 2.92 1 .73-.33 1.78.48 2.1-.58-.24-.81 1.3-1.21.57-1.94-.65-.08-1.7.24-1.94-.48l.24-.17a9.8 9.8 0 013.81.33 5.29 5.29 0 01.73 3.32c.33.16.64.48 1.05.48.73-1 .49-2.67 2.11-3.16 1 .33 2.19-.16 3 .49-.73.89-2.83-.49-2.92 1.22a6.18 6.18 0 001.3.4c.89.08 1.46.89 2.19 1.3.57-.32-.08-.81.08-1.3a4.06 4.06 0 010-1.7c.57-.24.73.4 1 .73.57 1.3 0 2.59.49 3.89 1.05.25 2.58 0 3.08 1.3.16 1 0 2.27.73 3.08-.08.81.32 1.62-.16 2.27-.57.32-1.14.41-1.71.73-1-.49-2.1-.57-2.83-1.46a2.47 2.47 0 00-1.55.16c-.24.41-.64.81-.64 1.3.24.65 1.21-.08 1.37.65.42-.4.65.33 1 .08a5.2 5.2 0 00.56 3c.9-.24.25-1.46.41-2.1.08-.17.16-.17.25-.25.56.57.4 1.62.81 2.35 1-.32.08-1.7.72-2.27.33 0 .25.32.49.49.16-.57 1.06-1.06.74-1.78.16-.17.16.24.39.24.25-.16.09-.65.49-.65.57-.08.73.56 1 .89-.16 1.22.9 2 .57 3.17a3.74 3.74 0 00-.64 2c-.08.57-.73.65-1.06 1.05-.16.9-1 1.54-1.05 2.51-1.3.41-.9 1.87-2.11 2.52.08 0 .08.16.08.24-.73.08-1.62.08-2.11.73a3.1 3.1 0 01-1.7 2.19 6.61 6.61 0 01-2.83 2.11c-.33.48-.74 1.13-1.38 1.29s-1.62-.89-1.95.25c-.16 1.13.73 2 .16 3.07.73 1.31-.72 2.19-1.29 3.17a9.52 9.52 0 01-3.16 2.11c-1.14.72-2.68.72-4.06 1-.32-.07-.24-.64-.64-.56-.25.73-1.14-.08-1.3.73-.66.08-.41-.65-.57-1 .33-1 .24-2.18.57-3.24a3.71 3.71 0 012.35-.89 15.12 15.12 0 013.73-1.54c.32-.24.24-.65.4-1 1.38-.65.89-2.19 2-2.92a2.94 2.94 0 00-.33-2.35c.17-.81.81-1.38.49-2.27a.64.64 0 00-.65-.08c-.57.48.16 1.94-1 1.54-.81-.49-1.79.08-2.67-.16a6.85 6.85 0 00-2.6-.08 12 12 0 01-2-1v-.24c.57-.16 1.46.4 1.95-.25.32.08.73.41 1 0a4.66 4.66 0 012.1-.08c.65-.4 1.38-.08 2.11-.08.56 0 .32 1.06.8.65a.92.92 0 01-.07-.65c.16-.32.65-.16.89-.32.65-.9 1.87-.9 2.43-1.78a6.78 6.78 0 011.3-3.25c1.13-.4 2.59.4 3.4-.73.33-.89 1.38-1.7 1.46-2.67-.65-.33-1.3-1.22-2-.73.25.4 1.06.57.57 1.22-.32-.09-.64-.25-.89-.09-.24-.16-.08-.56-.49-.56-.16.49.33 1.13 0 1.7-.4.16-.56-.32-.73-.57-.32-.64.89-1.05.08-1.38a.64.64 0 01-1-.4c-.08-.08-.08-.25-.16-.41-.33.16-.33.65-.24 1a.77.77 0 01.08.73l-.49-.73-.16.16a6.63 6.63 0 010 1.78c-.33 0-.24-.41-.33-.57-.08-.89 0-1.78-.56-2.35a1.06 1.06 0 00-.49-.08c-.33.24.32 1-.33 1.06l-.15 1.45h-.09c.49-.73-1-1.37 0-1.94 0-.08-.16-.25-.24-.25a.47.47 0 00-.49.41c-.08.16-.08.65-.4.49s-.41-.9-.81-.82c-.41.33.16 1.38-.73 1.22-.32.4.49 1.13-.16 1.13a4.3 4.3 0 00-.48-.81c-.25.24-.65.41-.73 0s.08-.72-.25-.89c-1.22-.08-.25 1.54-1.05 1.86-.25-.16-.08-.56-.4-.48l-.08.57c-.25 0-.65.08-.73-.25-.25-.16-.41.33-.65.41-.74-.08-1.71.4-2.28-.41a1.16 1.16 0 000 1.14l.09.08.4-.16c.16.33.49.73.24 1.06-.4.07-.32-.33-.57-.49l-.24.4c-.41-.16-.32-1-.89-.81-.4.25-.32.81-.73.9-.08-.41-.57-.57-.81-.9a3.56 3.56 0 01-2.84.49c-.16.24-.31.56-.65.4a1.2 1.2 0 01-.88-.32 2.82 2.82 0 01-2 1.3c-.25.08-.4.32-.73.16-.17-.33-.65-.33-1-.16s-.33.4-.57.24a1.09 1.09 0 00-1.3-.49c-.08-.08-.16-.16-.16-.24-.4.32-.24 1.22-1 1.05-.16-.24 0-.81-.49-.73-.08.25-.32.82-.73.49-.32.16-.24.81-.81.73s-1.29.32-1.54-.49c-.24.49.16 1.06-.24 1.46-.32.16-.49-.16-.73-.32-.49.4-1.06-.25-1.46.08-.08.4.32 1.05-.24 1.3-.25 0-.41-.25-.49-.41a.53.53 0 00-.08-.48 2.48 2.48 0 01-1.29.24c-.33.08-.66.49-1.06.24-.16-.39.25-1.13-.16-1.45a1 1 0 00-1 .72c-.08.17-.08.34-.16.41-.25.08-.25-.24-.41-.24-.56.24-.56.89-.81 1.21-.33-.41.4-1-.25-1.21-.48.24-.32.72-.56 1-.25-.33-.33-.81-.81-.81-.24.08-.65.24-.74-.07.17-.5-.16-1.22.25-1.47.65-.08 1.7.32 1.62-.81.08-.33-.32-.48-.48-.57-.49 0-1-.08-1.06-.57-.4 0-.08.57-.56.49-.41-1.14.56-2 1.29-2.76.08-.32 0-.8.41-1 1 .24.24 1.46.4 2.19.41.57.89-.49 1.46-.16.16.4.41 0 .65.08.24.73-.49 1.7.24 2.27.9-.49.9-1.54 1.05-2.44.25 0 .33.33.33.58.25.72-1.14 2 .33 2.1.15.08.32-.16.4-.24a3.54 3.54 0 01.24-2.27c.41 0 .16.57.33.81.08.57-.25 1.38.4 1.54.24 0 .48.16.65 0a17.45 17.45 0 00.16-2.92c.08-.09.16 0 .32 0 .49 1 0 1.94.25 3l.48.4c.57-.32.32-1.05.65-1.54.16-1 .25-1.86.48-2.84.41 1.3-.4 2.59-.16 3.82.09.08.16.24.25.08.4-1.46.32-3.17.81-4.63a2 2 0 001.3-1.7c-.49-1 .56-1.62.08-2.35-.4 0-.4.48-.65.65a4.54 4.54 0 01-.81 2.43c-.08.08-.16 0-.16-.08a15 15 0 00.4-6.33l-.4-.24c-.57.33.08.9-.17 1.46-.15 1.62.09 3.57-.8 4.86-.41-.24.16-.81.24-1.21-.32-1.14.33-2.11 0-3.32-.32.15-.08 1-.73 1-.16-.41.08-1 0-1.55-.08-.4.16-1-.08-1.45-.16-.17-.4-.25-.49-.17-.24.33-.32.9-.73 1s-.65-.33-1.05-.33a1.41 1.41 0 01-1.06.73 1.43 1.43 0 01-.23-1.29c.64.16.89-.57 1.21-.89.48-1.06-.4-1.95.24-2.92.65.16.16 1.05.41 1.45.16.57-.33 1.47.32 1.79a.81.81 0 00.9-.41c.24-1.13-.41-2.11-.09-3.16a.46.46 0 01.33-.16c.32.4.16 1 .32 1.46.41-.24.25-.81.49-1.14.57.17 1.13-.24 1.7 0-.25-.56.32-1 .57-1.46.81-.16.4 1.3 1.13.74 0-.41.24-.81-.08-1.14-.16-.24-.89-.08-.48-.57.48-.89 1.21-1.7.8-2.84a28.11 28.11 0 01-1.78-5.67c-1-.41-1.45-1.54-2.35-1.95-.48-.81-.24-2-.4-2.91l.16-.16c.56.32 0 1.21.56 1.62.41-.82-.4-1.62-.4-2.52a4.61 4.61 0 00.08-2.75c.32-1.14 1.46-2 1.46-3.41.25-.49-.24-.81-.57-1-.81 0-1.86.32-2.59-.08-1.14-.49-2-1.46-3.33-1.46-1.05-.57-1-2.27-2.43-2.27-1.7-.57-3.73-.33-5.43-1v-.17c2.19-.49 4.38.24 6.4.73 1.54-.41.41-2.27 1.54-3.08.09-.73 1-1.14.73-2 .08-.32.25-.81.73-.89a6 6 0 00.16 2c-.24.32-.73.08-.81.57s.41.64.16 1c-.4.08-.89-.16-1.05.24.08.49.57.81.4 1.21-.16.25-.81 0-.72.49.32.73.65 1.95 1.7 1.95.4.57.73 1.46 1.54 1.38.48-.25-.33-.57.08-.9.57.41.73 1.46 1.54 1.54.24-.24-.25-1.29.48-1.13.41.4.57 1 1.14 1.22.32-.17.16-.65.57-.73l.72.24c.17.49-.08 1 .49 1.22.73.08.57-1.38 1.38-.73.4.48-.81 1.37.32 1 .08-.16.41-.16.33-.49-.41-.08-.48-.65-.25-1s.73-.73.57-1.13a1.33 1.33 0 01-.65-.49c-.33-1.46-2.19-1.3-2.83-2.59-.9-.24-2.19.08-2.84-.49.57-.41 1-1.38 1.62-1.78.16-.25-.08-.57.16-.81.89.08.73-1 1.13-1.46a2.29 2.29 0 000-2c-.24-.65.9-1.38-.15-1.86-.49-.16-.41.57-.82.48-.24-.16-.08-.48-.4-.56a2 2 0 00-.49 1.62c0 .16 0 .57-.24.57-.32-.17-.4-.65-.81-.49-.32.32-.24 1.3-1 1a2.54 2.54 0 00-.48 1.78h-.2c-.25-.32.16-.65 0-.89l-.65-.24a7.6 7.6 0 012.92-2.84c.56-.81 1.7-1.46 1.78-2.59.89-.65 2.11-.32 3.08-.81.65 0 1.38-.41 1.95-.08.4-.41-.08-1-.08-1.54s-.49-1.3 0-1.87c-.17-.81-1.14-.64-1.63-1.22-.4-.24-.48-.64-.64-1a1.85 1.85 0 01.81-1.13c.65-.57 2.43.73 2-1-.89-.65-.4-2.92-2.19-2.19-1.86.89-3.32 2.59-4.94 3.73a.37.37 0 01-.49-.33c.49-2.19 2.43-4 4.22-5.43.73-.32 1.29-.89 2-1.21 2.59-.9 5.75-.82 8.59-.65z"/><path d="M408.5 106c-1.78.65-3.89.73-5.51 1.78-.25-.08-.49-.16-.49-.4.49-1.86 2.84-1 4.14-1.7.64.24 1.54-.33 1.86.32" fill="#fff"/><path d="M357.19 107c1.46.24 2.11 1.86 2.43 3.15.89.57 2.19-.32 3.08.41a.77.77 0 01.33.9 4 4 0 01-2.43 1.21c-.33 1.78-3.17 2.11-2.27 4.22a2.5 2.5 0 01-1 1.78.85.85 0 00.4.65c.65-.25 1-1.14 1.46-1.71.33-.81-1-1-.4-1.7.4.16 1 .25 1.22.73.08.41-.73 1-.17 1.21.25-.4.41-.8.82-.89 1.21-.16 1.94.73 2.83 1.22.73.65-.24 1.62.73 2a7 7 0 011.87 2.43 13.45 13.45 0 011.37 4 .73.73 0 00.57.08c1-.73-.48-2 .65-2.67.08-.57.65-.57 1.05-.81l2.11-1c1.22-.25 1.54 1.29 2.43 1.7a5.15 5.15 0 01.24 1.94 6.86 6.86 0 011.55 2.51c0 1-1.14 1.3-1.7 1.87-1.06.57-2.2 1.46-3.49 1.13-.65-.89-.33-2.75-1.79-2.75-.4.49-1.29.49-1.37 1.21a9 9 0 01.08 2.92c.89.17.08.89.16 1.22-.08 1.22.64 2.51 0 3.48-.49-.24-.08-.73-.24-1.13-.57-.73.4-1.7-.4-2.19-.9.24-.41 1.3-.58 1.95a9.28 9.28 0 00.09 2.19c-.17.24-.49 0-.49-.17.24-.56-.57-.56-.73-1a2.41 2.41 0 00-.08-1.3c-.16-.32-.49.09-.73.09a1.74 1.74 0 00-.16 1.94c.24.65 1.05 1.13.89 1.94-.24.41-1 .82-.73 1.38.24.16.16.49.49.57.32-.08.89-.41 1.13.08.16 1.3-2 .57-1.38 1.86.25.49-.4 1 .25 1.14.24.57-.57 1-.49 1.62.08.89.49 1.78.24 2.59.09.08.16.25.33.17.32-.33-.17-.81.16-1.22a3.8 3.8 0 01.89-4c.25 0 .32.08.57.08.33-.16.33-.65.73-.57.24.16 0 .49 0 .65a.8.8 0 00-.25 1.05c.9.08.74 1.14.82 1.78-.08.17-.41.08-.49 0l-.08.57c-.4.25-.48-.48-.73-.4-.16.24.08.56-.16.81-1.14-.08 0 1.3-1 1.7 0 .49-.49 1.3.07 1.54.25-.16.33-.4.65-.4.65.4-.32 1.13.33 1.21-.16-1.21 1.78-1.05 1.21-2.19l-.32-.08a.59.59 0 01.32-.81.35.35 0 01.33.33c.08.48.73.73.4 1.37a5.54 5.54 0 00-.48 1c.32-.08.48.08.65.32.16.49-.89.49-.25.73.65.08.73-.81 1.3-1.13.24-.65-1-1.22-.08-1.54.89-.17 1.95-.25 2.43-1.06.08-.4-.4-.65-.16-1a.65.65 0 01.81-.25c.49.49-.08 1.06.08 1.55-.81.24-.73 1.13-.89 1.7.24.57 1.62.89 1 1.62-1.05.24-.89-1-1.54-1.38-.16-.24.08-.73-.41-.81a2.36 2.36 0 00-1 .32 1.76 1.76 0 01-.56 1.95c0 .32-.09.73.24.89.4 0 .4-.89.81-.32.08.49-.41.81-.24 1.38.16 0 .56-.25.72.16s-.24 1.05.25 1.29c.41-.56.32-1.37.65-1.94.4.41.16 1.38.24 1.94a1.88 1.88 0 01.32 2c-.08.16-.32.16-.48.16-.32-1.3-3.08-.48-1.95-2.18-.64-.25-.32-1.38-1-1.06 0-.48.41-1.38-.16-1.62-.41.24-.16.81-.33 1.13a4.11 4.11 0 00.65 2.35c.57.49 1.54.65 1.87 1.39.48.24 1 1 1.54.48.72-.81.4-2.11.89-3 .24-.08.33.24.33.4-.17 1.38-.82 2.68-.66 4.06-.64.08-.89.89-1 1.46-1.38.56-1.46 1.95-1.7 3.16.08.33.48.24.73.33a2.65 2.65 0 01.32-1.06c-.08-.81.9-1.06.65-2 .57-.16.32.73.65 1.06a.63.63 0 00.65.16c.48-.73-.49-1.7.41-2.19.24.57 0 1.38.32 1.94.33 0 .24-.24.33-.4-.49-.81.32-1.62-.41-2.35a.86.86 0 01-.41-.89c1.95.57 2.84-1.7 4.63-1.79.24-.16-.09-.4.15-.57.33 0 1-.08 1.06.49-.08 1.22-1.86.16-2.19 1.38a2.72 2.72 0 01-.4 1.62c-.41-.32 0-1.13-.65-1.05a9 9 0 00-.73 1.86c0 .32.41.32.57.57l.33-.08a1.85 1.85 0 01.07 1.3c-.32.08-1.05-.25-1.21.24 0 .32 0 .81.4.89.16-.08.49-.16.65 0a6 6 0 01.49 1c.48 0 1.05-.08 1.29.48-.08.49-.65.41-1 .73 1.14 0 .16 1.14.89 1.7.89.73 2.19-.56 2.84.57l.73.25c.48 1.3.65 2.91 1.78 3.89 1 .24 1.94.57 2.27 1.62.25 1.38 1.22 3.08.08 4.37-.16.25-.65.33-.56.74.24.24 1.29 0 1 .81-.65 0-1.54.89-2 0a.25.25 0 00-.08-.33c-.49 0-.32 1-.89.41-.49.16-.41.89-.73 1.29-.4.9-1.46.74-2.27 1.06.16 1.13 1.46 1.46 1.94 2.43a5.25 5.25 0 002.52-.08c4.78-.4 9.24-1.38 14-1.86.16-.08.24 0 .4 0s.08.24.08.4c-.8.32-1.78.24-2.67.49-4.38.57-8.83 1-13.13 1.86l.08.16c5.43-.57 10.69-1.62 16.05-1.94.4-.16 1.13.41 1.21-.25-.32-.32-1.13-.48-1-1.13.65 0 1.22-1.13 1.86-.4.49.08.41-.81 1-.73.73-.08 1 1 1.7 1.05 1.05.49 2.19 0 3.24-.16a108.48 108.48 0 0011.44 1.3c.23.07.23.32.07.48a91.73 91.73 0 01-11.59-1.13c-.89 0-1.54.57-2.43.57l-.16.16c.32.57 1 .08 1.37.24 4 .81 8 1.63 11.92 2.51.25.08.25.49.49.41a3.93 3.93 0 011.13-3.16c.49-.16.81.24.9.65 0 .89-.66 1.54-1 2.27-.16.48-.16 1.05-.56 1.38-3.41-.57-6.57-1.55-10-2.11a15 15 0 00-6-.65 2.15 2.15 0 01-1.45 1.22c-1.06.24-1.54-1.22-2.68-.81a42.42 42.42 0 01-6.4.81l-.17.4c-.08-.08 0-.32-.24-.32-2.35.32-4.94.4-7.37.81a.88.88 0 00-.57 1.05c.57.25 1.62-1.86 1.54 0l.08.09c.24-.33.32-.82.73-1 1.06.41-.49 1.87 1 1.87.32 0 .65.32 1 .16a2.36 2.36 0 01-.33-1.3c-.24.08-.56.65-.89.25a.88.88 0 01.24-.9c.49.57.9-.56 1.13.24a14.45 14.45 0 00.25 1.95c2.19 1.06 4.7 1.29 7 2.1 2.51.66 4.86 1.54 7.46 2 0 1.22 1.62-.08 1.3 1.22-.33.32-.49 1-1.06 1-7.37-1.21-14.34-4-21.72-5.59a60.26 60.26 0 01-10 1c-.73-.49-1.62.08-2.35-.32-.08.08-.08.24-.25.16-.08-.33-.56-.65-.81-1s.08-.9-.4-1.05c-1.3.07 0 2.1-1.54 2.1a2.46 2.46 0 010-1.54c.16-.25.64.08.64-.41a3.57 3.57 0 00-2.26.49c.07.25.4.25.56.33 0 .4 0 .81-.32 1-1.05 0-.57-1.54-1.54-1.46-.57.57-.41 1.46-.89 2.1a.88.88 0 01-.73-.57c.08-.64 1.13-.4.89-1.21-.08-.24-.33-.16-.41-.16-.48.89-1.29.08-1.94.16-.16.32.08.81 0 1.21-.08.25 0 .66-.33.74-.48-.57.49-2.11-.72-1.87l-.17.16c.73.25.24 1.14.17 1.71-.24.24-.17.64-.41.89a1.19 1.19 0 01-.81-.57 1.66 1.66 0 01.65-1.7c.08-.16-.09-.49-.33-.4-.32.49-1-.33-1.21.32-.24 0-.41-.32-.57-.08.16.81-.57 2.19.65 2.59.32.57 1.06-.16 1.3.49l.07 1.62c1.3.08 0-1.54.9-1.87.4.9-.32 2.68 1.3 2.68a5.15 5.15 0 01.24 2.19l.89 1.38c.08-.65.89-.65 1.06-1.22-.09-.49.07-1.05-.33-1.38-.49.16 0 1.14-.73.9a3.73 3.73 0 00-.89-2.36c-.16-.4-.41-.89-.16-1.29.4-.41.73.24 1.13.32.33.25.41.73.65 1 .32 0 .24-.56.65-.48.08 1.14-.49 2.76.57 3.57 1.13-.25.41-2 1.53-2 .33.41.33 1.05.74 1.22a15.9 15.9 0 00.08-1.95c-.24-.65-.81-1.37-.33-1.94.41 0 .65.4 1.14.32.16.73 1 1.22.57 2.11-.09.24-.49 0-.57.32a4.84 4.84 0 00.08 1.87c.16.41-.73.41-.32.89a1.53 1.53 0 001.7.57c.07-.65-.33-1.38 0-2a1.54 1.54 0 01.24-1.46c.16 0 .16.33.16.57v.08a9 9 0 011.87 2.43 8 8 0 001.7 1.63c.57-.09.57-.81 1.05-1.14-.16-.81-1.78-.32-1.37-1.54.07-.41 1.13-.16.64-.73-.4-.25-.81.16-1.13 0-.33.24-.16.89-.65.89-.16-.48-.08-1.29-.73-1.37a.52.52 0 01-.08-.33c.24-.24.81-.08.81-.48a5.38 5.38 0 01-1.46-.81c.57-1.06-1.14-1.06-.65-1.87.33-.08.25.41.57.32.81.33 1.3-.72 1.86-.24a2.8 2.8 0 00.33 2.27c.4.25.65-.4 1-.64.16-.33-.58-1.22.24-1.14a4.44 4.44 0 01-.24 2.27c.48.49.8-.4 1.21-.48a5.45 5.45 0 011.7-2.84c.65.16 0 .73.08 1 .33.24.73.49.4 1-.07.48-1 .81-.64 1.29.89.08.81-.89 1.13-1.38 0-.72.66-.24 1-.4a3.37 3.37 0 011.47-.57c.24.41-.41.41-.49.82.56.72 1-.57 1.62-.66.89.09 1.3-.64 1.95-1.22.16 0 .48-.07.4.25-.16.65-1 1-.65 1.63-.07.16-.4.32-.24.56l.08.16a6.39 6.39 0 013.08.82c1.38-.57 2.84.08 4.05.65a1.36 1.36 0 011.63-.09c.64.58 1.13 1.46 2.18 1.05a1.6 1.6 0 011.06-.24c1 .49 1.86-.57 2.91-.65.74-.89 1.62.25 2.6 0a33.22 33.22 0 015-.56c1.79-1.05 4.31-.73 5.76-2.6a1 1 0 00.08-.48c-.33-.49-.89 0-1.38-.17-.81-.24-1.78-.81-2.76-.4-.65-.48-1.7-.24-2.34-.81-.73-.33-2 .24-2.27-.65 1.21-.16 2.43-.56 3.56-.16 1.05-.57 2.35.24 3.57-.32a7.66 7.66 0 003.81.08c.49.4 1.46-.49 1.54.4-1 .41-.65 1.63-.65 2.35-.32.49 1.3 1.3.08 1.14-.08-.17-.24-.17-.4-.17.08.82-.81.65-1.3.9-.32.08-.89-.33-1.05.16 0 .49.16 1.05-.16 1.46-.66.4-1.14 1.29-1.95 1 .08-.57.81-.48.73-1s.08-1.14 0-1.63a.84.84 0 00-1 .25c-.33.57.24 1.86-.57 2.19.08 1.3-1.63 1.22-2.43 1.78-1.63.65-3.65.49-5.19 1.3-1.46-.65-2.84.24-4.38.16a3.7 3.7 0 00-2.27.9c-1-.17-1.63.48-2.43.56-.9.4-2.19.4-2.43 1.54-1.63.73-3.48-.16-5.11.48-.24 0-.24-.24-.33-.4s.09-.4.33-.4.65.4 1 .16c-.24-.41-.89-.08-1.21-.57-.49.08-.09 1-.9.82a11.13 11.13 0 01-2.1-.57c-.08.24-.4.4-.33.72a18.34 18.34 0 012.11.57c.24-.16.57-.4.9-.16.15.73 1.53-.16 1.37.81-.57.89-1.87 0-2.44.89-.32.09-.56-.32-.64-.57 0-.56-.65-.56-.9-.8-1-.41-.32 1-1.13 1-.57.08-.89-.33-1.13-.73-.33-1.3 1.21-1.38 1.62-2.35.08-.16-.17-.24-.25-.33A8.72 8.72 0 00378 205a.4.4 0 01-.24.49c-.32-.16-.82-.24-.9-.73s.9-.4.82-1c-.74-.65-1.38.07-2 .24-.24.49.16.89.32 1.22.49.4 1.14.89 1 1.62-.39.48-1 .32-1.13 1.05-.73-.24 0-1.05-.25-1.62-.56.24-1.05.57-1.53.81a3.12 3.12 0 010 2.11.44.44 0 01-.65.16c-.16-.24.32-.41 0-.65a1.26 1.26 0 01-.4-1.54c0-.16.24-.33.16-.49-.57.16-.49-.48-.73-.72a.45.45 0 00-.25-.41c-.24.25-.32 1-.89.65-.4-.24-.32-.81-.24-1.22 0-.56 1.06-.73.65-1.3-.49.09-.81.66-1.21.81L369 205c-.24-1 .81-2.27-.16-3.16-.56.57-.08 1.7-.73 2.19-.4.24-.32.89-.8.81-.74-.49-.58-1.3-.82-1.87-.24-.73.89-1 .65-1.45-.57-.08-.65.48-.89.81a.91.91 0 01-.24.64c-.33.09-.33-.32-.41-.48-.09-.73-1.3-.73-1.06-1.62-.4.16 0 .81-.48 1-.33.08-.81-.08-.89.4a.51.51 0 00.32.49c.32 0 .73-.4.89 0-.16.4-.72.49-1 .73a2.13 2.13 0 01-1.22-1c0-.33.82-.57.82-1.14l-.57-.65c-.49.57-.49 2-1.46 1.78-.65-.32.08-1.05-.65-1.29.24-.25 1-.57.57-1.14-.65-.48-.49-1.7-1.54-1.7-.33.48.08 1.54-.57 1.78a1.22 1.22 0 01-.4.49c-.58.16-.41-.49-.82-.57-.48.49-.65 1.62-1.62 1.22-.72-.81 0-1.7 0-2.68.33-.4 1.14-.48 1.14-1-.17-.16-.33-.25-.49-.16-.24.81-1.3.89-1.94 1-.33-.4-.81-.32-1.22-.4-.48-.41.16-1.3-.65-1.46-.65.4 0 1.62-1 1.54-.16-.49-.57-.49-1-.65.32-.89-.41-1.54-.33-2.43-.32-.16-.32-.73-.73-.49-.08 1-1.54 1.06-1.14 2.19a.19.19 0 01-.32.08c-.4-.32-.24-.89-.16-1.3.48-.64 1-1.45.57-2.18-.49.64-.17 2.11-1.3 1.94-.41-.4.32-.89.16-1.3-.48.25-.57 1.14-1.21 1a2.45 2.45 0 01.4-1.7c.08-.41-.32-.57-.56-.65-1-.08-.33 1-.57 1.54a4.71 4.71 0 00-.57 1.78c-.32.08-.32-.32-.41-.48a25.52 25.52 0 01.25-2.68.59.59 0 00-.65-.32c-.65.4.16 2-1.06 1.46-.32.07-.64.07-.81-.16s.09-.81-.16-1-.24.08-.24.16.08.49-.16.57c-.73.16-.16-1.46-1.06-.65-.16-.57-.89-.57-1.13-1.06-.25.09-.41.41-.74.25-.24-.48-1 .32-.88-.48a2.89 2.89 0 00-.57-2.68c-.81.57-.16 2.59-1.7 2.19-.49-.32-.41-.81-.49-1.22-.32.16-.56-.24-.49-.57a1.57 1.57 0 01.57-1.37 5.55 5.55 0 00-.32-2.6c-.81 0-.89 1-1.22 1.46-.16.65.24.89.48 1.38-.24.56.09 1.45-.48 1.78l-.24-.33c-.33.17-.33.57-.49.82a1.4 1.4 0 01.17 1c-.17.16-.33.25-.49.16a.53.53 0 01-.08-.73c-.08-.65.64-1.38-.08-1.87-.33.09-.33.58-.41.82a.52.52 0 01-.16.65c-.08 0-.16-.08-.24-.16-.08-.41.24-.73 0-1.06-.25-1.21.81-1.86 1-2.92-.73.49-1 1.46-1.46 1.95a.51.51 0 00-.33-.49c-.64.25-.4 1.3-1.21 1.14-.49-.41-.24-1.14-.24-1.7.24-.57 1.22-1.06.73-1.71-.81.17-.9 2.11-1.87 1 0-1.46 1.78-2.27 1.78-3.73.57-.89.49-2 .81-3a.49.49 0 01-.32-.08 2.61 2.61 0 01.49-1.87.2.2 0 00-.33-.07c-.4.48-.32 1.78-1.37 1.45-.25.25-.17.57-.25.89.33.25.73.17.73.58.08 1.13-.81 1.78-.73 2.91h-.24c-.16-.08-.16-.32-.33-.24-.16.24-.24.57-.49.65-.48 0-.72-.25-1.13-.41-.08.41-.08.9-.48 1.06s-.57 0-.65-.25c0-.65.08-1.3.57-1.54l.32.08c.24-.24.16-.81.57-1 .4 0 .65.81 1 .16.57-1.54-.32-2.92-1.3-4-.24-.81.24-1.78-.24-2.35-.49-.16-1.54.16-1.3-.81.16-.65.16-1.7.9-1.79.32.49-.57.9-.16 1.3.48-.24 1.05-.56 1.53-.4.17.57-.4 1.21-.08 1.78.41-.16.57-1.3 1.22-.65a.66.66 0 01.16.9c-.32.73-1.38 1.37-.73 2.19.08.16.24.16.41.16 1-.73.32-2.19 1.21-2.92.16-.16.33-.41.49-.41.24.89-.33 1.71-.41 2.51a.39.39 0 00.33.16c.57-.4.08-1.45 1-1.45.49-.57 1.86-1.06 1.46-2v-.41c-.16-.08-.41-.33-.25-.49.41-.4.25-.89.49-1.29 1.38-.41 1.95-2.19 3.24-2.43.25.56-.4 1-.81 1.21-.89.08-1.37.81-1.86 1.54 0 .49-.16 1 0 1.38A7.89 7.89 0 00335 172c.24.08.08.4.16.56 1.14-.8.89-2.43 2.27-3.15.73-.25 1.38-1.3 2.19-.82.81-.4 1.86-.73 2.19-1.54-.9-.48-1.3 1.22-2.19 1-.08-.17-.25-.33-.08-.49l.48-.32c-.16-.16-.48-.08-.4-.41.08-.08.32 0 .24-.24a12 12 0 00-5.43 2.6c-.41.24-.48 1-1 .72a11.14 11.14 0 015.43-4c.73-.24 1.54 0 2.19-.4 0-.25-.33-.32-.57-.41a5.92 5.92 0 01-1.94.25c.16-.25 0-.66.24-.9a3.67 3.67 0 001.54-.4c-.33-.57-1.14-.57-1.78-.49-.81.41-1.71.08-2.6.33a19 19 0 01-3.65.73c-.16 0-.16-.16-.08-.25 1.22-.48 2.51-.72 3.73-1.13l.08-.41c1-.4 2.43.49 3.08-.56.24-.73.89.4 1.22-.41.81-.08 1.3.81 2 .57-.24-1.38 1.46-2 2.36-2.6.16-.24 0-.64 0-1-.17-.32-.57-.24-.82-.08a9.27 9.27 0 00-1.7 1.46c.57 0 1-.65 1.54-.73v.25a13.6 13.6 0 01-2.35 1.94c-.32-.08-.57-.41-.89-.24a22.15 22.15 0 01-.41-2.44c.41-.81-1-.81-.32-1.7.08-.65 1.05-1.54.24-2.1-.48.16-.72.8-1 1.21-.25 1.54-1 3.08-.65 4.62.17.65-.4 1.14-.89 1.38a4.87 4.87 0 00-2.84-.4c-.57 0-1 .4-1.62.16 0-.41 1.05-.32.4-.73-.8.08-1.78.08-2.18.73-.65.16-1.38.64-1.95.16-.49-.24 0-.65-.4-.89-.33 0-.9.16-1.06-.17s.24-.32.41-.4c.72-.24 1.7-.08 2.35-.56-1 0-2.52.48-3.09-.41a18.11 18.11 0 004.23-.57c.24-.49-.41-.81-.49-1.22s-.41-.89 0-1.29c-.09-1.06-.89-2-.57-3-.08-.25-.24-.57-.08-.81.73-.41.73.65 1.21.89 1.06.57 2.19.73 3.09 1.54.16 0 .32 0 .4-.24a2.91 2.91 0 00-3.56-3.08c-.73.16-1.14.81-1.87 1a3.33 3.33 0 013.32-1.78c.57 0 1.14.81 1.63.24a1.71 1.71 0 00.89-.08c.48.57.08 1.86 1.13 2 .33 1.13.16 2.43.57 3.48.24-1.22.41-2.43.65-3.81-1.54-1.95-3.49-3.16-5.27-4.7-.89-.25-1.54-1.3-2.6-1.3-1.37 1.05-1.7 2.6-2.75 3.73-1.38 1.13-2.76 2.43-3.16 4a.46.46 0 01-.4.24c-.49-.56.15-1.21.31-1.7 1.63-2.35 3.89-4.05 4.71-6.72a.52.52 0 00-.24-.58c-1 .09-.49 1.55-1.38 1.55 0-.57.32-1.22.32-1.79-.24-.16-.32-.08-.49 0-1.05 1.46-1.21 3.25-1.7 5-.24.16-.4.49-.64.32-.33-.4.4-.64.4-1.13a24 24 0 011.05-4.62 8 8 0 00-5.35 0 .8.8 0 01-.81-.57 1.45 1.45 0 01.33-1.3c.65.49.89-.32 1.37-.56a12.05 12.05 0 015.68.24c.32-1 1.37-1.38 2.1-1.86a2.31 2.31 0 012 .72c.49-.07 1.06.17 1.38-.07a11 11 0 00-4.87-1.47c-.48.09-1.13.17-1.37-.24a1.85 1.85 0 011.13-1.86c1.79-.33 3.32.56 5 1 .24-.24-.16-.48-.33-.73-1-.73-1.21-1.86-2.18-2.59a2.65 2.65 0 00-.81-1.62 1.43 1.43 0 00-1.06.73c-1.54 1.54-2.59 3.48-4.38 4.86-.73.25-1 1.54-1.78 1.14.4-1.38 1.7-2.35 1.94-3.81a7.83 7.83 0 013.41-4.38c1.21-.32 2.35.57 3.48-.17a1.91 1.91 0 00-.4-1.61c0-1-.89-1.55-.73-2.6-.56-.24-.24-1.22-1.05-1.14-.9-.08-1.46.57-2 1-.32.48-.32 1.13-.81 1.46-.49-.17-.24-.65-.24-1.06.24-.81 1.21-1.29 1.21-2.27.41-.32.81-.65 1.3-.48a.66.66 0 00.64.24c.25-.17.09-.65.17-1.06-.48-.89-1.14-2.27-.33-3.24 0-.4-.4-.65-.24-1.13.57-.33.16-1 .33-1.46.32-.81.48-1.87 1.46-2.19a.39.39 0 01.08.49c-.57.32-.41 1-.9 1.37 0 .17.09.25.09.33a16.65 16.65 0 012.35-2.51c.81-.17 1.86-.65 2.68-.17-.25.81-1.23.41-1.87.65-.9.57-2.19 1.06-2.6 2.19a7.72 7.72 0 01-1.18 3.07c0 .25-.07.41.17.49.73.08.57-.81.89-1.22-.16-.89.41-1.46.49-2.27.56-.73 1.3-1.86 2.19-1.86.16.24.64.24.48.65-.48.32-1.3.73-1.3 1.37.65.33 1.06-.64 1.71-.81.16-.08.24-.16.4-.08.08.49.32 1.3-.32 1.46s-1.46-.32-1.7.41a23.63 23.63 0 01-1.14 3.32c-.89.49-.48 1.7-.48 2.43.08.16.32.16.48.08s.17-.4.49-.4c.48.73-.41 1.29-.32 2-.49 1.14.48 2 .48 3.09a.55.55 0 00.57.24c.32-.73.32-1.78 1.13-2 .24.16.16.49.08.65-.4 1.7-1.86 3.89-.24 5.35.73-.16.81-1.05 1.21-1.54a5.1 5.1 0 011.63-1.86 5 5 0 012.43 2.18c.89.09.81-1.13 1.13-1.78.33-1.21 1.63-1.62 2.6-2.35a3.4 3.4 0 011.13-2.43 1.39 1.39 0 00.08-.57c-.32-.24-.81-.4-.81-.89a7.8 7.8 0 012.24-3.46c.41-.48.33-1.13.73-1.61.81-.9 2.11-1.55 2.35-2.76.65-.74 1.7-.57 2.19-1.46.81-.65 2-.49 2.68-1.3.16-.89-1-1.22-.49-2.19a.88.88 0 000-.89c-1.13-1-3.24-1.22-3.24-3.08 1.21-1.94 3.73 2 4-1.13.4-1.71 2.35-1.38 3.41-2.19.49-.12.49.44.89.61"/><path d="M358.57 109.39c.08.24.24.48.08.72a5.55 5.55 0 01-2.84.17c-.57-.17-1.3 0-1.86-.33-.08-.32.32-.32.48-.57a2.91 2.91 0 011.63-1.45c1 .16 2.27.16 2.51 1.46" fill="#8a4b28"/><path d="M400.39 108.09c-.08.16-.24.33-.4.33a.24.24 0 01.16-.33c.08 0 .24-.08.24 0" fill="#fff"/><path d="M404.44 110c-.64 0-.56-.89-1-1.37 0-.09.23-.17.32-.09a8.37 8.37 0 01.64 1.46" fill="#ae5939"/><path d="M357.75 111.9c0 1-1.05 2.11-.24 3.08.41.81-1.29 1.62.08 1.94a1.08 1.08 0 01-.64 1.14 1.79 1.79 0 01-1.71-.16c-.07-.41.41-1-.16-1.14s-1.29 0-1.62-.64c-.08-1.22-1.13-2.27-.56-3.66a2.1 2.1 0 01.64.49.77.77 0 00.08.73c.33.17.17.65.41.81-.16.17-.41.17-.41.41 0 .49.57.65.82 1 .48-.08 1.13-.32 1.21-.89-.16-.32-1-.16-.56-.73.08-.16-.17-.32-.33-.4h-.49a3.61 3.61 0 00.09-1.63c-.25-.48-.82-.56-1.38-.72 0-.41.4-.25.64-.41a11.25 11.25 0 014.13.81" fill="#fff"/><path d="M356.62 112c-.16.41.17.89-.32 1-.65.33-.82-.4-1.22-.73-.16-.32.25-.65.49-.65.4 0 .81 0 1.05.33"/><path d="M408.42 114.17c.32.16.89.24.89.81-.07 1-.89 1.86-.73 2.83-.24 1.22-1.7.9-2.59 1.3-.9-.24-2.11-.81-2.35-1.86.32-1.13-.57-2.84.56-3.65a23.35 23.35 0 004.22.57" fill="#fff"/><path d="M405.66 115.06a1.38 1.38 0 00.73 1.79c.32.4.89.64 1 1.21-1 .65-2.12-.08-3.17-.25-.32-.56.57-.48.57-1 .49-1.06-1.7-1.55-.48-2.36.56 0 1.13.08 1.37.57M408.42 115.39a1.27 1.27 0 01-.56 1 .93.93 0 01-1.06-.41c-.25-.24-.09-.73-.16-1a1.35 1.35 0 011.78.49"/><path d="M353.62 118.47c-.32.48-1 0-1.38-.17s-.72-.56-.64-1c.48-.24 1 .08 1.37.08z" fill="#fff"/><path d="M363 118.79a.83.83 0 01.24.81c-.16.16-.41.24-.33.57a2 2 0 001.14 1.29c1.86 1.46 2.35 3.57 2.92 5.68a3.44 3.44 0 01-1.38.89c-.24-.08-.57-.33-.81-.08a2.81 2.81 0 01-1.78.57c-.74-1.62-.17-3.81-1.3-5.27-.9-.73-.17-2-.81-2.92-.25 0-.33.16-.41.32.16 1-.16 2.19.08 3.25a10.34 10.34 0 01-.08 2.27c.57.48-.08 1.13.08 1.7l.17 1.46a1.64 1.64 0 01-1.71-1c.57-1.7-.73-3-.73-4.62l.16-.72c.65 1 .65 2.34 1.46 3.32.17.08.33-.16.25-.25a11.13 11.13 0 00-1.06-3.32c-.24-.89-.16-2-.65-2.67-.32 0-.32.4-.4.56-.65-1 1.13-.81 1.54-1.46.73-.32.89-1.54 1.94-1.38zM351.76 119.52c-.41.24-1.13.24-1.22.81a26 26 0 01-3 6.24 1.13 1.13 0 00.16.89c.65 0 .33-.81.65-1.13a3.79 3.79 0 001.06-1.7 17.87 17.87 0 012.67-3.81c.08-.09.25 0 .25.16-1.14 2.75-1.87 5.92-4.22 8-.24.33-.08 1.14-.81 1.06-.32-.57.4-1.3-.16-1.95-1.3.24.32 2.84-1.71 2.19-.4.41.74.73.09.89a2 2 0 00-1 0c-.16.32.25.49.41.49s.56 0 .65.24c-.24.65-1.06-.24-1.38.41.08.48.81.4.73.81a12.76 12.76 0 00-1.79 1c-.08.41.65.24.41.73-.25.73-2.35.08-1.22 1.06-.16.4-.64.32-1.05.48a2.41 2.41 0 01-1.05 1.62c-.57 0-.57-.64-1-.73-.5-.4-1.22-.24-1.39-.89.49-.32 1.87.32 1.71-.81-.08-.65-.32-1.46.32-1.95 1.05-.64 1.05-2.35 2.52-2 .4.24.72-.17 1-.57a3.45 3.45 0 01.48-1.95c-.16-.64.82-.56 1-1.21-.16-1.22 1-1.79 1-2.92.4-1 1.38-1.7 1.38-2.76a.32.32 0 00-.57 0c-.48 1.3-1.46 2.44-1.94 3.73-.33-.24-.09-1 0-1.54.08-1 1.05-1.46 1.21-2.35a9.29 9.29 0 002.76-3.16c.89-.57 1.78.16 2.75-.08.25.08.33.41.33.73" fill="#fff000"/><path d="M355.17 119a.26.26 0 01-.33.33c-.16.08-.24-.08-.24-.25s0-.32.16-.32.32 0 .41.24M356.38 119a.31.31 0 01-.08.25h-.08V119z" fill="#fff"/><path d="M402.74 119.28a4.83 4.83 0 01.33 2.18c1.05.74 1.7-1 2.76-.4 0 .16-.24.32-.33.49-.08 1.46-1.3 2.35-1.3 3.81.09 2.27 1.87 3.89 1.95 6.16a14.39 14.39 0 001.22 3.81 2.11 2.11 0 01-.82 1.7 1 1 0 01-1.05-.49c0-.73.49-1.21.41-1.94-.89-.57-1.13-1.79-1.87-2.43-.24-.73.81-1.62-.08-1.87-.48.32-.25.89-.48 1.3-.33-.57.16-1 0-1.7.16-1.22-.65-2-.65-3.25-.17-.08-.33.16-.33.33-.48 1 1 1.78.16 2.59-.4 0-.32-.41-.64-.65a5.74 5.74 0 01.24-3.49l-.24-.16c-1.38.81-.49 2.76-1 4H401c.08-1.3-.16-2.44-.16-3.73.16-1.06.73-2.6-.16-3.49-.65.33-.08 1-.08 1.63.08 1-.41 1.78-.41 2.67-.16.32-.56.25-.72.49 0-1.14.89-2.52 0-3.65a6.67 6.67 0 00-.17-2.84c.25-.24.81 0 1.14-.24a6.11 6.11 0 012.34-.81" fill="#ff3516"/><path d="M405.74 120c-.81-.32-1.21 1-1.94.33.08-.33-.09-.89.4-1a2.48 2.48 0 011.54.72" fill="#fff"/><path d="M409.88 121.71c.08.32-.16.48-.41.32-.32-1-1.21-1.7-1.05-2.75l.41.08z" fill="#ae5939"/><path d="M411.58 120.49c.08.41.49.73.49 1.22a9 9 0 00-1.54-.16 4.76 4.76 0 01-.74-2.19c.82-.08 1.14.81 1.79 1.13M414.18 120.65c.56.57 1.53 1 1.78 1.79-1-.25-2.84.4-2.92-1 .08-.89-.81-1.29-1.3-1.78.33-.16.65 0 1 .08zM407.53 120.49c0 .08.07.24-.08.32-.4-.08-.73-.24-.81-.56-.09-.16.08-.25.16-.33.32 0 .73.17.73.57" fill="#fff"/><path d="M356.22 120.9c.4 2.59-1.54 4.46-2.11 6.72-.4 0-.57-.48-.73-.81a6 6 0 011.54-5.18 4.07 4.07 0 01.65-1.38c.4-.08.57.32.65.65" fill="#fff000"/><path d="M354.19 120.49c.08 1.14-.89 2-1.05 3a6.12 6.12 0 00-.65 2.68c-.81-1.38.32-2.76.56-4.14l.9-1.54zM407.37 123.25c.08.65.16 1.46-.5 1.78 0 .73.82.73 1 1.38s.48 1.54.07 2.19c-.32-.65-.56-1.46-.88-2a.31.31 0 00-.34.33c0 .56.49 1 .41 1.54-.65-.24-.57-1.14-1.22-1.38-.16.08-.16.32-.4.32-.49-1.7 1.78-2.84 1-4.53-.08-.09-.24 0-.32-.09-.41.65-.16 1.62-.81 1.95-.16-1.22.89-2.11.81-3.41.9.25.81 1.38 1.22 2M413.2 122.68c.33.48.73 1 .4 1.54a1.27 1.27 0 01-1.29.41 4.29 4.29 0 01-.9-.73c-.4.16-1.05.32-1.13.81s-.08.81-.41 1c-.48-.25.08-1.05-.24-1.46-.16.08-.32.24-.24.41h-.16c-.57-1.06.72-1.55 1.3-2.19.89-.33 1.78.16 2.67.24M372.59 123.49c-.73.89.73 1.62.16 2.35-.48-.32-.41-1-.81-1.46-.16-.16-.32-.4-.49-.24-.32.57.25 1.13.41 1.7.17.33 0 .65-.32.65-.57-.25-.49-1-.81-1.38s-.49-.08-.81-.16l-.65-.73a4.59 4.59 0 013.16-1.06zM418.06 124.14c1.06.16 1.38 1.7 2.52 1.38.16-.09.16-.33.32-.41.65.41.41 1.38.9 2 .56.81-.65 1.13-.41 1.94a1 1 0 01-.65.73h-.16c0-.73.57-1.86-.32-2.27-.49.57 0 1.54-.73 1.87-.17.24 0 .73-.4.73-.17-.08-.42-.08-.33-.33.16-1.29-.81-2.35-1.46-3.32-1.3-.08-.32-1.78-1.21-2-.25.16.07.57-.25.65-.89-.24-.25-2-1.46-1.46a.29.29 0 01-.16-.4 2.49 2.49 0 012.1.48z" fill="#fff"/><path d="M364.33 126.33c0 .16-.09.4-.25.32-1.21-.08-.49-1.54-1-2.27-.09-.4-.57-.89-.09-1.22 1.06.65.74 2.2 1.31 3.17"/><path d="M330.52 123.33a.29.29 0 01-.16.4c-.17-.08-.08-.48.16-.4M420.09 124a.38.38 0 01-.4.4c-.49.08-.49-.48-.73-.73a.72.72 0 011.13.33M414.74 124.63l-.08-.33h.08v.33z" fill="#fff"/><path d="M357.35 125.36a9.27 9.27 0 01.33 3.64c.56.57 0 1.79.89 2.11.56-.08.89-.08 1.21.4a1.91 1.91 0 001-.24l.33-.48c.16 0 .4.64.81.48.08-.73.89-.48 1.29-.89.82-.08 1.14 1 1.95.41.49-.24 1.06-.65 1.7-.33a4.51 4.51 0 01-.32 2.76c-1 1-2.43.73-3.81.65a1 1 0 00-1-.25c-.16.25 0 .73-.49.73-.32.08-.56-.4-1-.16.08-.41.24-1.05-.17-1.46-.89-.08-.48.89-1 1.22-.32.4-.65.89-1.13.81-.16-.49.48-.89.57-1.38.16-.73.24-1.7-.33-2.19-.24 0-.56-.08-.56.24a2.8 2.8 0 010 2.52c-1.38.24-2.6 1.21-4.14 1.37l-.16-.16c.49-.81 1.22-1.29 1.38-2.27.24-.16.65-.49.65-.89-.65-.4-1.3.4-2 .49-.32.4-.81.89-1.3.73-1.21-.25-1.61-1.62-1.86-2.52.57.16.65.9 1 1.3.33.16.49.57.89.49l.17-.16c-.17-.74-.65-1.55-.41-2.36.65.16.41.89.81 1.3.81.32-.16.89.25 1.38.48-.08.4-.9 1-.82a1.93 1.93 0 001.62-.56c.65-.16 1.38.73 1.7-.08-.48-.33-1.21-.33-1.45-.9-.9-1.21.64-1.86 1-2.83a3.49 3.49 0 00.16-2l-.16.08c-.25 1-.33 2.27-1.22 2.76-.32-.25.25-.57-.16-.81-.73.56-.65 1.62-.81 2.51-1 .16-1-1.13-1.78-1.46a6.64 6.64 0 00-.09-1.21c.49.4.65 1.7 1.63 1.62.4-.41.16-1.06.4-1.55.73-.72 1-1.69 1.78-2.43a.47.47 0 01.25-.48c.24.25-.09 1.22.56.9" fill="#fff000"/><path d="M414.74 125.84c-.16.57-.89 0-1.21.49-.24.16.16.81-.33.81a3.14 3.14 0 01-.57-1.3c.73-.24 1.7.65 2-.41l.08-.64c.25.32 0 .64 0 1" fill="#fff"/><path d="M412.72 127.22a.84.84 0 01-.33.57h-.32a7.86 7.86 0 01-1.14-2.84.37.37 0 01.41 0c.56.73.89 1.54 1.38 2.27" fill="#ae5939"/><path d="M375.35 128.35c-.82 1.3-2.19 1.71-3.41 2.36-.4.08-.56-.25-.56-.57 0-.89-.41-1.7-.41-2.6 1.06-.24 1.95-1.46 3.08-1.13.65.57.73 1.38 1.3 1.94M416.85 127.06c-.17.48-.17 1-.65 1.21-.24 0-.4-.24-.49-.48.25-.25.65-1.54 1.14-.73" fill="#fff"/><path d="M369.51 127.06c-.16.73-1 .81-1.46 1.21a11.39 11.39 0 01-3 1.54c-.08-.24.16-.48.25-.73 1.21-.81 2.43-1.54 3.64-2.27.25 0 .49 0 .57.25" fill="#ae5939"/><path d="M352.24 127.7c-.16 1-.72 1.79-1 2.76H351c-.24-1.05-.49-2.59.49-3.4.48-.08.56.4.72.64" fill="#fff"/><path d="M346.24 127.79a1.79 1.79 0 01-.72 1.54.75.75 0 01-.41.08 11.45 11.45 0 01.81-2c.32 0 .25.24.32.41"/><path d="M406.39 128.76c0 .08-.08.32-.16.24-.08-.24-.33-.48-.33-.8.25 0 .41.32.49.56M417.9 129.65v.16a.66.66 0 01-.56-.08c-.17-.24.08-.24.24-.4a.34.34 0 01.32.32M354.35 131.19c-.32-.08-.65.24-1 .08-.17-.56-.73-1.05-.56-1.7.48.49 1.37 1 1.53 1.62" fill="#fff"/><path d="M383.13 130.87c-.16.48-.65.48-1.05.57-2.52.73-4.87.07-7.46.24-1.14.57-2.11 1.7-3.65 1.38-.4.32-.24 1-.73 1.21-.41-.4.25-1.13-.41-1.54.17-.48.9-.32 1.38-.48 1.79-.08 2.92-2.27 5-1.54 2.27.48 4.62 0 6.81-.09z"/><path d="M347.87 131.44c-.25 1 1.13 1.78.08 2.59-.49 1.87-2.59 1.54-3.89 2.35-.49.73-.08 1.7.16 2.43.24.33.65.17 1 .24.17.49-.24.82-.32 1.14a19 19 0 01-1.71 5.67 6 6 0 01-1.7-1.45c-1-.82 0-1.95 0-2.92.17-1.3 1.54-1.06 2.19-1.87 0-.24-.24-.4-.41-.48-.4-.09-.72.16-1.05.16.08-.41.57-.81.08-1.22-.57.49-1 1.14-1.7 1.7-.41.65-1.29 1.38-1.62 2a.49.49 0 01-.33-.08c.09-.33.33-.73.09-1l1.21-1c.24-1.54 1.87-1.7 2.84-2.51 1.37-1.22 1.95-3 3.56-3.81.57-.73.65-1.78 1.46-2.19z" fill="#fff"/><path d="M369.35 132.73c.08.73-.16 1.54.32 2.19 0 .41-.48.73-.4 1.22 0 .08-.17.08-.25.08-.64-.57.16-1.22-.16-1.79 0-.4.49-1-.16-1.21-.09-.08-.41-.08-.24-.25a3.12 3.12 0 01.89-.24"/><path d="M403.8 133c.32.72 1.38 1.37.89 2.19a2 2 0 01-1.05-1.47l.07-.72z" fill="#ff3516"/><path d="M337.9 134.6c.33 1.21-1 1.54-1.54 2.19-.33.89-1.46 1.29-1.46 2.26-.49.08-.73 1-1.22.57-.32-.16-.08-.4-.08-.65a5.45 5.45 0 011.38-4.7.36.36 0 01.32.49c-.24 1.54-1.21 2.92-1.46 4.37l.17.09c1.13-1.54 2.18-3.49 1.7-5.6a.51.51 0 01.65-.16 3.48 3.48 0 001.54 1.14" fill="#06884f"/><path d="M332.22 136.38c-.81-.49-.73-1.54-1.37-2.19.07-.16-.09-.24.07-.32a5.55 5.55 0 011.3 2.51" fill="#fff"/><path d="M353.21 134.19c-1.21 1.71-3.4 1.87-5.1 2.76-1.14.32-2 1.3-3.16 1.3a2.05 2.05 0 01-.33-1.38c1.38-.73 3-1.06 4.46-1.79 1.05-.48 2.19-.65 3.24-1.05.33.08.65-.08.89.16" fill="#ae5939"/><path d="M327.93 134.43a32.2 32.2 0 00-2.92 3.65h-.16a5.14 5.14 0 012-3.81c.41-.08.65.16 1.06.16" fill="#06884f"/><path d="M392.29 136.3c.08.65-.57.89-.24 1.54-.33.48-.73 0-1.14-.08-.16-.08-.08-.33-.08-.49l.73-.4a2.59 2.59 0 00-1-.65l-.33.32.41 2.44c.24.4.57.16.89.08s.49-.49.81-.41c.24.24.49.57.32.9-.81.48-1.86.4-2.75.72-.24 0-.65 0-.73-.32-.16-.73 1.05-.65.56-1.38-.24-.81-.24-1.86-1-2.43a.39.39 0 01.25-.48 1.77 1.77 0 011.46.24c.56 0 2.1-1.06 1.86.4"/><path d="M357.59 138.08c.09 2.52 1.06 4.38.81 7 .08.41-.24 1.14.41 1.38.4-.16.16-.57.16-.81-.24-2 .08-4.05-.08-6.08-.16-.24-.24 0-.41-.08a9 9 0 01.09-2.59h.24c.89 1.86.57 4.13 1.14 6a6.32 6.32 0 00.48 2.44.59.59 0 00.32-.17c0-1.62-.64-3-.56-4.45-.33-1.22-.24-2.6-.65-3.73.24-.08.57-.08.65.08.49.4.49 1.05 1.05 1.22a.59.59 0 01.89-.25c.65.73.41 1.78.57 2.68-.41-.57-.16-1.87-1.22-1.87-.32.32-.07.73 0 1.13.33 1.87.81 3.73 1.14 5.6-.08.56-.73.65-1.05.89-.49-.08-1.06-.08-1.3.32-.08.33.24.41.41.49.64.24 1.21-.73 1.45-.08 0 .81-.65 1.38-1 2-.41-.17-.32-1.22-1-.9-.49.57.56 2-.65 1.79-.24-.57 0-1.46-.4-2-1.14.32 0 1.54-.41 2.43a.53.53 0 01-.65.24c-.24-.89.32-1.86-.33-2.67a1.06 1.06 0 01-1-.16 3.38 3.38 0 00-.25-1.79 27.39 27.39 0 00-.48-10c-.09-.41.4-.25.56-.25.73.57.49 1.54 1 2.19" fill="#fff000"/><path d="M364.16 136.79c.16.73-.16 1.53.24 2.26-.24.41 0 1.22-.56 1.22-.57-1-.16-2.35-.73-3.4.08-.33 0-.81.48-1s.57.48.57.89" fill="#fff"/><path d="M371.13 136.3c.08.16-.16.24-.24.32a1.11 1.11 0 01-.89-.48l.08-.24a1 1 0 011.05.4"/><path d="M404 139.7c-.24.33-.81-.08-1.13.17-.49-.49-1.7.16-1.7-.82.16-.08.65.25.65-.24-.09-.65-.42-1.29-.09-2a1.59 1.59 0 011.54-.73 4.47 4.47 0 01.73 3.64" fill="#fff"/><path d="M387.18 136.7c-.56.73-.16 1.71-.49 2.35-.24.17-.39-.16-.48.09 0 .4.65.64.32 1.05a.49.49 0 01-.64 0c-.82-.49-.89-1.78-1.95-1.94-.4.8.57 1.94-.57 2.35a.59.59 0 01-.73-.41c.17-.32.49-.65.17-1.14-.49-.32-.08-1 .08-1.45.07 0 0-.09 0-.17-.25-.32-.74-.4-.58-.89.33-.16.73-.4 1.14-.16a25.84 25.84 0 012.6 2.51 1.88 1.88 0 00-.58-2c-.07-.41.41-.49.66-.65a.84.84 0 011.05.48"/><path d="M351.27 136.7c-.24.81-1 1.46-1 2.27-.57 1.63-1.38 3.17-1.38 4.95a.17.17 0 00.32 0 15.76 15.76 0 011.38-4.14c-.57 2.36-1.29 4.95-1 7.62 0 .73-.65 1-.81 1.54.16.41 0 1 .08 1.38-.08-.4.08-1.21-.49-1.38-.24 1.22-.4 2.68.57 3.65a4.27 4.27 0 01.41 1.14c-.17.08-.41 0-.49.24.41.89-1 1.38-.16 2.19-.24.25-.16.81-.09 1.13.9.32 1.06 1.22 1.38 1.94.17 1.63-.72 2.84-.24 4.39.24 1.46-.16 2.83.16 4.13.33.32.25.73.33 1.14-.65.81 0 2.27-.89 2.91-.89-.32-1.79-1-2.76-.81-.48-.4-1.13.16-1.46-.32.33-.65 1.22.08 1.62-.49a10.73 10.73 0 00-.4-5.1 21.75 21.75 0 00-1.22-6.08 12.29 12.29 0 00.08-2.52c.09-.24.57-.24.57-.57a3.74 3.74 0 00-.65-1.29 8.25 8.25 0 01.89-4 1.09 1.09 0 00.65-.81c-.16-.41.33-1.3-.32-1.38-.57.32-.16 1.21-.73 1.46-.49-.65 0-1.62 0-2.36 1-.48 1.78.42 2.68.25.08 0 .08-.08.08-.25-.9-1.05-2.43-.08-3.25-1.13-.24-1.78 1.3-2.84 1.3-4.46a8.06 8.06 0 011.79-4.21 1.68 1.68 0 011.05-.33c.08.33-.32.65-.08.89 1.05-.16.73-1.86 2-1.78z" fill="#fff000"/><path d="M380.77 137c-.4 1.46 1 3.89-1.13 4.46a2.84 2.84 0 01-2.11-.57c-1.21-.81-.24-2.35-1.37-3.16-.08-.4.24-.57.57-.65s1.13-.24 1.45.16c-.24 1-.32 2.6.73 3.24.49.33.9-.16 1.06-.48a3.07 3.07 0 00-.73-2.68c0-.32.4-.4.56-.56.33 0 .81-.09 1 .24"/><path d="M339.35 138.32a1.09 1.09 0 01-.07.73c-.73.41-1-.8-1.63-.89-.32-.16-.73-.08-1-.4 0-.25.16-.41.41-.57.81.16 1.86.16 2.26 1.13" fill="#fff000"/><path d="M374.29 137.6c.09.32-.24.48-.32.72-.08 1.14.32 2.19.24 3.33a1.73 1.73 0 01-.89 1 1.87 1.87 0 01-1.46-.24c-.41-.24-.41-.81-.32-1.22a.66.66 0 01.4-.4c.33 0 .4.4.65.56.41-.48.16-1.45 0-2.1-.08-.81-1.3-.33-1-1.22.89-.16 1.86-1.21 2.75-.4"/><path d="M410 139.05c.08 1-1.22 1.63-.49 2.52 1.06.57.89 1.86 1.22 2.84a11.82 11.82 0 012.52 6.15c-.57.73-.09 1.71-.33 2.6-.49 1.22-1.38 2.35-1.46 3.73l-1.21 1.86c-1 0-1.46-.89-2.19-1.3-.33 0-.65.16-1-.16-.16-1.22.81-2.19 1.54-3.16a1.86 1.86 0 001.78-1 1 1 0 00.17-1l-.25-.24-.81.73c-.08-.49.49-1 .57-1.46 0-1-1.46-1.54-1.06-2.67 0-.08-.16-.17-.24-.25h-.4c-.56-.4-.25-1.13-.56-1.7.23-.25.64-.41.72-.73s-.41-.24-.65-.33c.08-.4.32-1 0-1.37-.48-.08-.33.81-.89.48a2.33 2.33 0 00-1.62-1.38c-.17-.16-.41-.56-.65-.32-.24 1.3 1.53 2 1.3 3.49.16 1.29-1.71 2.43-.25 3.48.16 2.27 1 5.52-1.38 7-.64-.16-1.05-1.22-1.62-.65-.08.57.49 1 .89 1.3.65.33 1.71-.32 2 .65a1.22 1.22 0 01-.08 1.05c-.81.25-1.78-.16-2.44.49-.48-.08-1-.16-1.2-.73 0-.4-.25-.65-.17-1 .4.32.81 1.13 1.46 1 .57-.57-.49-1-.73-1.54-.08-.24-.08-.65-.33-.81H402c0-.89.64-1.62.89-2.43-.33-.49-.49.24-.81.08-.89-.57-.89-1.7-1.46-2.51a15.77 15.77 0 00-1.38-5.84c.57-1.78-.81-3.16-.41-5.11a13 13 0 01.41-1.78 1 1 0 001 .57l.25-.25c.48.41.65 1.06 1.13 1.46.89.08 1.95.41 2.68-.08s.4-1.7.73-2.43a9 9 0 013.56-.25c.41.5 1.38.26 1.46 1.06" fill="#0476e1"/><path d="M399.34 138.57a.38.38 0 01.08-.57.69.69 0 01-.08.57" fill="#fff"/><path d="M355 141.65a8.71 8.71 0 00-.32 5.19c.49.32 1 .81.65 1.37-.09.73-.57 1.38-.16 2 .32.41.89.24 1.29.41a25.71 25.71 0 01-1.29 4.7c-.17 1 .64 1.53.4 2.51 1 2.67-.4 5.27-.65 7.94.57.89-.16 1.95-.41 2.84l-.48 2.1c-.81.17-1.06-1.37-2-.89-.48.08-1 1.22-1.37.49.73-1.3 0-2.6.32-4.14-.08-1.86-.49-3.73-.65-5.67.33-.49 0-1.62.73-1.54.08.08.16.24.24.08a6.37 6.37 0 01-.24-2.76 4 4 0 01.08-3.57c0-1.37 0-2.67 1-3.64-1-1.06 1.14-1.54.74-2.52l-.41.09c-.08-.57.41-1 .32-1.62.17-.33.49-.82.25-1.22-.41.08-.57.65-1 .73a3 3 0 01.9-1.63c.72 0 .64-.8 1.3-1.21 0-.08-.09-.16-.17-.24-.57.08-1 1-1.54.56.16-.73 1.22-.48 1.38-1.13-.33-.41-1.05.32-1.14-.41.09-.56.09-1.21.49-1.54 0 .33-.16.81.24 1 .57-.32 0-1.29.49-1.86a13.24 13.24 0 011.05 3.58" fill="#fff000"/><path d="M338.3 139.7a1.26 1.26 0 000 1.3 2.4 2.4 0 01-.4 1.05c-.41.17-1 .33-1 .81-.48.73.9.82.65 1.46a11.74 11.74 0 00-1.13 3.25c-.16.16-.33.24-.49.16-.16-1.3-.56-2.51-.81-3.73.41-.57 1 .32 1.38-.32-.57-1.38 1.38-2 .41-3-.49 0-.41.57-.65.81-.25.4.16 1.37-.57 1.29-.33-.56.32-1.38-.09-2-.56.4-.4 1.13-.64 1.7-.41-.32 0-1.22-.24-1.7-.41 0-.33.48-.57.64a6.93 6.93 0 01-.16-.8c.4-1.22 1.61-1.55 2.67-1.87a1.58 1.58 0 011.62 1" fill="#fff"/><path d="M333.36 140.27c.08.08.16.08.08.16l-.17.08a26.39 26.39 0 00-5.1-1.37 3.06 3.06 0 011.94 0 15.09 15.09 0 013.25 1.13" fill="#ae5939"/><path d="M370.16 142.46a.56.56 0 01-.73.24c-.33-.08-.08-.4 0-.56.4-.49.73-1.46 1.38-1.22.16.57-.41 1-.65 1.54"/><path d="M340.81 141.4c-.16.57 0 1.3-.48 1.71a.88.88 0 01-.81-.57c0-.65.73-1.22 1.22-1.7.24.08.07.4.07.56" fill="#06884f"/><path d="M346.09 140.92a.22.22 0 01-.25.24.26.26 0 01.25-.24" fill="#fff"/><path d="M421.8 141.89a1.38 1.38 0 01-.25 1.46c-.16.24-.57.16-.81 0a1.54 1.54 0 01-.4-1.46c.07-.16.07-.49.4-.57a2.14 2.14 0 001.06.57"/><path d="M329.79 142.22a7.77 7.77 0 01-1 1.29c-.25 0-.41 0-.49-.16.41-.49.57-1.38 1.38-1.3z" fill="#06884f"/><path d="M404.77 142.38c0 .08-.08.32-.24.24s-.24-.4-.09-.48.33.08.33.24M347.06 142.46a14.92 14.92 0 01-1.22 3.32 2.4 2.4 0 01-.16.73c-.16 0-.24-.16-.32-.24-.33-.81.56-1.22.73-1.86s.15-1.71.81-2z"/><path d="M363.84 142.86c-.25 0-.33-.4-.16-.48.24.08.08.32.16.48" fill="#fff"/><path d="M393.5 144.57c-.4.08-.4-.41-.56-.73 0-.49-.25-1 .08-1.46a4.09 4.09 0 01.48 2.19"/><path d="M341.38 144.89a5.19 5.19 0 011.54 2c-1-.17-1.21-1.38-2-1.95a11.24 11.24 0 00-2.51-1.94c-.08-.09-.32-.33-.08-.41 1.3.32 2 1.54 3.08 2.27" fill="#ae5939"/><path d="M330.68 142.94c.08.41-.49.65-.65 1-.24.08-.48 0-.48-.24a1.44 1.44 0 011.13-.74" fill="#06884f"/><path d="M388.15 143.75a4.48 4.48 0 01.25 2.52.56.56 0 01-.73.24c-.81-.65 0-2.1-1.3-2.35-.16-.16-.08-.48.08-.73.41-.81 1.46-.24 1.7.32M386 143.59a3.16 3.16 0 00-.33 2.27c.25.25.33.57.65.73s.73-.16.89.16-.24.58-.49.74c-.48.16-1-.17-1.37-.33-1.06-.65-.73-2-.81-3.08a2 2 0 01.65-1c.4-.17.73.24.81.48M395.2 144.49c.17.56.73 1 .41 1.7l-.41.32-2.43-.08a1 1 0 01.57-.81 1.64 1.64 0 011.38-.24c.33-.65-.33-1.46.08-2.11.49.25.08.81.4 1.22"/><path d="M330 144.65c5.43 3.16 10.06 7.94 14.19 12.56 0 .16.16.32.16.49-.73.16-1.37-.82-1.78-1.3-4.62-5.11-9.73-10.21-16-12.32a12 12 0 00-5.11-.33c.24-.48 1-.32 1.46-.4a14.69 14.69 0 017 1.3" fill="#ae5939"/><path d="M333.68 144.08v.24c-.64-.16-1.22-.48-1.86-.64.4-.49 1.45-.16 1.86.4" fill="#fff"/><path d="M382.64 143.84c1 1 .09 2.43-.16 3.48.49.25 1.38-.48 1.38.49-.17.89-1.3.81-2 1.13a.77.77 0 01-.89-.32c.08-.57.57-1.06.57-1.7a2.46 2.46 0 00.16-2.11c-.16-.08-.33-.24-.49-.16-.32.4.16 1.21-.57 1.29a.67.67 0 01-.81-.56c-.16-.73.4-1.22.9-1.63a1.48 1.48 0 011.94.09"/><path d="M426.34 144c4 2 8.1 3.81 12.15 5.59a1.13 1.13 0 01.49 1.06l-.16.08c-3.08-1.38-6.08-3.08-9.16-4.38-1.46-.57-2.76-1.46-4.3-1.94-.16-.09-.16-.33-.16-.49.24-.33.73 0 1.14.08" fill="#aa4e32"/><path d="M333.93 146.19v.24c-.49 0-.9-.57-1.3-.73-.57-.32-.89-.81-1.54-1 .16-.41.73-.08 1.05-.08.81.16 1.22 1.05 1.79 1.62" fill="#fff"/><path d="M339.68 145.62a4.78 4.78 0 01-1.62 1.13c-.24 0-.41.57-.65.25a2.55 2.55 0 01.33-1.7c.24-.33.49-1.14 1.05-.65.24.32.73.56.89 1" fill="#06884f"/><path d="M348.76 145a8.6 8.6 0 01-.65 2h-.24c-.08-.65.4-1.05.32-1.78.08-.16.33-.65.57-.25M372.11 145.86a.64.64 0 01-.25.57.58.58 0 01-.73-.41c-.08-.32.16-.56.32-.81.49-.07.49.41.66.65M369.1 146.27c0 .24-.32.32-.48.24-.16-.24-.33-.65-.08-.89.4-.08.4.4.56.65M377 146.27c-.07.24 0 .57-.23.65-.25-.25-.74-.65-.5-1.14.34.08.73.08.73.49"/><path d="M341 145.94c-1.22 1.3-2.92 1.46-4.3 2.36h-.24a28.71 28.71 0 014.37-2.44z" fill="#ae5939"/><path d="M370.16 147c-.16.16-.33.24-.49.08-.49-.33 0-.81.08-1.22.41.16.25.73.41 1.14"/><path d="M345.11 147.32c-.08.57-.08 1.38-.65 1.54a9.36 9.36 0 010-2.59 1.05 1.05 0 00.65 1" fill="#fff"/><path d="M363.59 146.59c.09.25-.08.33-.16.49s-.32-.09-.24-.24a1.16 1.16 0 01.16-.57c.24-.08.33.24.24.32" fill="#06884f"/><path d="M359.7 146.84c-.16.56-1 .24-1.37.48a.58.58 0 01-.82-.33c0-.15-.08-.4.17-.4.56.25 1.45 0 2 .25M374.86 147c0 .16.08.4-.08.49-.33 0-.81 0-.73-.41s.81-.73.81-.08"/><path d="M418.88 147.16l.48-.16a.55.55 0 00.49.73c.16.08.48 0 .56.32s-.16.41-.32.41a66.19 66.19 0 01-6.73-.48 1.45 1.45 0 01-.4-1.23c1.86-.24 3.89.33 5.92.41" fill="#fff"/><path d="M341.22 147.32c1.13 1.22 2.51 2.11 2.92 3.73a14.19 14.19 0 00-.16 2.68c-.41-.33.08-1-.25-1.38-.24-1.3-.81-3-2.35-3.32a5.33 5.33 0 00-2.51 1.45c-.41.08-.16-.48-.16-.72.41-1 .65-2.28 1.94-2.52z" fill="#06884f"/><path fill="#fff" d="M356.06 147.4v-.08h.08l-.08.08zM425.52 148.3c-.08.16-.48.16-.65.08v-.25a.84.84 0 01.65.17"/><path d="M394.31 148.94c-.08.49-.64 1-.32 1.46a1 1 0 011.06.73 3 3 0 01-.17 1.71 1.78 1.78 0 01-1.86.56c-.33-.16-.65-.48-.41-.81.41-.32 1.14.08 1.38-.57a.93.93 0 00-.49-1.13c-.24 0-.56-.16-.56-.41a.35.35 0 00-.33-.48 1 1 0 01-1.21-.57c-.08-.81 1-.32 1.46-.65.32-.24 1.29-.65 1.45.16"/><path d="M338.55 148.54a1.53 1.53 0 01-.41 1.13.63.63 0 01-.73-.32c.08-.49.65-.65 1.14-.81" fill="#fff"/><path d="M380.3 149.11v.56c-.41.25-.58-.24-.66-.48s-.08-.41.08-.57c.33 0 .41.24.58.49M347.7 149.19c-.16.81-.64 2 .09 2.75-.09.25.08.57-.25.49-1.14-1-.24-2.43-.16-3.73.32-.08.32.24.32.49M375.91 149.27a1.6 1.6 0 01-.73 1.38c-.65-.17-.4-1.14-1.29-1-.17-.08-.08-.24-.08-.4a1.68 1.68 0 012.1 0M333.11 149.43c-.16.81-1.21.08-1.78.33-.81.4-1.86 1-1.94 1.94l-.09 2.43a12 12 0 01-4.86 7.94 8.55 8.55 0 01-3.16.82c-.24-.09-.08-.25-.16-.49 1.3-.56 2.19-2 3.07-3 1-1.62 1.38-3.65 3.09-4.78.16 0 .32 0 .32.24-.24.73-1.21 1.3-1.54 2-.73 1.21-1.13 2.51-1.87 3.65 0 .16-.07.24.09.32a7.69 7.69 0 003.64-6 7.6 7.6 0 011.14-4.86 3.53 3.53 0 013.33-1.06 1.64 1.64 0 01.72.49M380.61 149.19l-.07-.08.07-.17c0 .08.16.17 0 .25"/><path d="M363.19 150.65c-.32-.25-.16-.89-.24-1.3l.16-.16a1.84 1.84 0 01.08 1.46" fill="#06884f"/><path d="M390.34 149.84c-.23.48-.64 1.13-.23 1.62a1 1 0 011.21-.49c.64.49.56 1.3.48 2a1.8 1.8 0 01-.73 1 1.65 1.65 0 01-1.62-.4 3.6 3.6 0 01-.16-3.81c.33-.17 1-.49 1 .08"/><path d="M342.76 150.89c0 .81-1.05.16-1.46.81-.32.16-.32.73-.73.57-.32-.49-1.46-.65-1-1.46a2 2 0 011.62-1.05 1.86 1.86 0 011.54 1.13" fill="#06884f"/><path d="M387.43 150.89c.32 1-.33 1.79.4 2.67.08.49.08 1.06-.24 1.3a2 2 0 01-2.11.24c-.89-1 0-2.34-1.14-3.24a1.2 1.2 0 01.82-1.38c.64-.56 2-.72 2.27.41"/><path d="M364.08 151.94l.32-.48c.33.4.17 1.22.57 1.62.24.56-.48.56-.64.89-.65.81.07 2.59-1.38 2.59-.08-.64.16-1.37.08-2.1-.16.16-.25.41-.49.41-.32-.41 0-1.14-.48-1.46-.09-.33.08-.49.32-.73.08.48 1 .32.73 1l.08.16c.49-.24.24-.89.41-1.3-.25-.32-.57-.4-.57-.81.24-.16.57-.4.57-.73.32.16-.17 1.14.48 1" fill="#06884f"/><path d="M386.53 151.62c.09.16 0 .32 0 .49-.32.24-.64-.09-.73-.33s.09-.4.25-.57c.16 0 .4.25.48.41" fill="#aa4e32"/><path d="M383.29 151.78c-.65.89.24 1.79 0 2.84.16.16.57.16.57.49.16.48-.33.72-.65.8a1.77 1.77 0 01-1.13.09c-.33-.41.07-.65.24-1-.4-.72.16-2.19-1.06-2.27a.39.39 0 01-.07-.57c.73 0 1.37-1.29 2.1-.4"/><path d="M391 152.75c-.24.33-.57 0-.81-.07a1.19 1.19 0 01-.24-.9c.24.08.57.33.81.41.08.24.32.32.24.56" fill="#aa4e32"/><path d="M360.11 152.68a1.46 1.46 0 01-.25.64c-.24 0-.24-.24-.24-.48a1.65 1.65 0 01.16-.9c.33.08.33.49.33.74" fill="#06884f"/><path d="M344 154.86c.24.57.81 1.14.56 1.7h-.24l-3.24-3.72c0-.41.48-.41.73-.65 1 .49 1.37 1.78 2.19 2.67" fill="#fff"/><path d="M358.73 153.24c-.08.24.16.49-.08.73h-.08c-.09-.49-.57-1.06-.09-1.46zM367.64 153.81l.33-.25c.08.25.49.33.41.65-.33.16-.65.41-1 .16-.48-.48-.32-1.21-.32-1.78.32.32.08 1 .56 1.22" fill="#06884f"/><path d="M386.69 154c-.72.4-.81-.48-.89-.89.73-.57.73.4.89.89" fill="#aa4e32"/><path d="M357.51 154.3c-.08.07-.16.07-.16 0a2.61 2.61 0 01.16-1.14c.33.24.17.81 0 1.14" fill="#06884f"/><path d="M380.3 154.46c0 .24 0 .48-.26.56-.4-.08-1-.08-1.13-.65-.08-.32.24-.64.57-.73.57-.24.65.49.82.82"/><path d="M339.35 154.37c0 .49-.48.73-.64 1.22-.25.25-.16.73-.49.73a4.06 4.06 0 01.41-2.43c.4-.08.57.24.72.48" fill="#fff"/><path d="M360.27 154.05c0 .32-.08.81-.32 1-.25-.32-.17-1.05.32-1M367.64 155.19c-.48.64.33 1.29.09 1.86l-.4-.24a.79.79 0 00-.25.72c.49 0 .4.57.32.81l-.07.09c-.09-.9-1.14-.73-1.47-1.46-.16.08-.24.16-.24.32.08.9 2 1.14.65 2a3.11 3.11 0 01-.24.81 2.26 2.26 0 00-1.14-1.87c-.4.17-.32-.32-.4-.48 0-.41.4-.65.48-1.06.33-.72.16-1.7.65-2.35a3.21 3.21 0 012 .82M361.41 155.19c-.16.64 0 1.45-.41 1.86-.32-.16-.49-.73-.65-1.05a3.13 3.13 0 01.49-1.46c.24 0 .48.4.57.65M336 157.21c1.13.49 1.22 1.87 1.46 2.92-.49-.24-.65-.89-.81-1.46-.08-.16-.32-.08-.41-.08a.46.46 0 01-.81 0c-1.61-.81-3.56-1.94-4.05-3.81l.16-.16c1.55.81 3.25 1 4.46 2.59" fill="#06884f"/><path d="M377.21 155c-.08.49.41 1.3-.33 1.46a.63.63 0 01-.65-.48c.25-.49-.4-1.22.34-1.38a.72.72 0 01.64.4M393.59 154.86c-.25.65-.82 1-1 1.62-.24.16-.4.49-.81.4-.24-.56.32-1 .49-1.61s.57-.49 1-.65a1.34 1.34 0 01.33.24"/><path d="M358.08 155.35a.53.53 0 010 .49c-.24 0-.16-.33-.08-.49z" fill="#fff"/><path d="M366.67 156.24c.08.16.33.4.17.64-.17.09-.33.25-.49.09a.89.89 0 01-.24-1.14c.08-.24.16-.48.4-.48zM380.37 155.75c.08.25-.24.49-.4.49l-.49.08c-.24-.49.49-.41.65-.81.17 0 .24.08.24.24M348.27 155.75c-.16.73-1 1.38-.48 2.19-.09.32-.49.32-.65.25-.65-.74.16-1.55.41-2.19.15-.25.56-.81.72-.25M408.9 156.4a.91.91 0 01.09.48.38.38 0 01-.57 0 1 1 0 01-.56-.88.39.39 0 01.24-.41c.32 0 .73.48.8.81M394.07 156.24c-.32.48.32 1.21-.32 1.46-.49-.33-.08-1.06-.16-1.63.16-.32.48-.07.48.17M395.45 157.53c-.08.09 0 .25-.16.25-.32.08-.41-.25-.49-.49l.2-1.29c.65.07.33 1.05.49 1.53"/><path d="M358.73 156.32c.16 1 1 1.94.32 2.92a11.12 11.12 0 00-.56-2c-.16.17-.57 0-.49-.24l.16-.73z" fill="#06884f"/><path d="M340.65 156.32c.09.32-.16.4-.32.65a.55.55 0 01.32-.65" fill="#fff"/><path d="M396.66 157.29c-.15.08-.15.41-.4.33-.4-.33 0-.65 0-1l.25-.16c.24.17.15.57.15.81M353.7 156.88v.57c.33.17.65-.32.81.08a1.88 1.88 0 01-1.05 1.06c-.89.24-1.54-.65-2.19-1.14-.08-.32.09-.48.33-.64.48-.08.4.73.89.48.65.08.81-1.22 1.21-.41"/><path d="M364.08 158.26c-.16.17 0-.07-.16-.07 0-.57.32-1 .24-1.54.41.48-.32 1-.08 1.61" fill="#fff"/><path d="M376.4 157c.17.4-.24.81-.24 1.29-.17.57-1 0-1.3.49-.25-.16-.16-.73-.33-1.05a1 1 0 01.41-1c.65-.16 1 1 1.46.25M397.48 157.53a.28.28 0 01-.09.25c-.24 0-.24-.25-.32-.49s-.08-.48.08-.57c.4 0 .24.49.33.81"/><path d="M342.68 158.19a3.21 3.21 0 01-1.22 1.7 3.64 3.64 0 01-.24-3.17c.73.16 1 1 1.46 1.47" fill="#e6cb01"/><path d="M419.12 158.26a12.74 12.74 0 014.62 1.22c-.33.57-.89-.08-1.22.57l-2.27-.57c-.32-.48-.81-1.22-1.62-1-.16-.08-.49-.24-.73 0-.56.89-1.37 2-.81 3.08.73.16 0 1.78.9 1a6.5 6.5 0 011.13-3.32c.81.49.57 1.54.81 2.35.08 2 .33 4.3-.81 5.92-.08.32.33.4.24.65-1.37.48-2.51 1.54-4 1.7.56-.73-.26-1.46-.5-2.19a14.2 14.2 0 01.5-8.43c-.09-.4.31-1.14-.26-1.22l-.48.57c-.48-.89-1.94-.49-2.84-.89a.8.8 0 01.73-.81 34.78 34.78 0 016.57 1.45" fill="#ae5939"/><path d="M368.7 157.78l.16 1.45c-.32.25-.56-.08-.89-.08-.4-.56 0-1.21.08-1.78.25-.65.57.16.65.41M360.51 158.75a.19.19 0 01-.32.16 1.69 1.69 0 01-.24-1.54.69.69 0 01.32-.16 2.07 2.07 0 01.24 1.54" fill="#06884f"/><path d="M377.29 157.45c0 .16-.08.33-.24.25a.27.27 0 01-.09-.4c.17 0 .33 0 .33.15"/><path d="M333.44 159.4c-.65 0-1.05-.89-1.46-1.3v-.32c.65.41 1 1.13 1.46 1.62" fill="#fff"/><path d="M388.48 158.19h-.08v-.25a.3.3 0 01.08.25M416.61 158.67c-.57 2.51-1.06 5.52-.41 8.11l.57 2.11c-.09.16-.41.4-.57.16a6.23 6.23 0 01-1.38-5.27.29.29 0 00.49-.24 13.38 13.38 0 01.57-5.11c.16-.65.8-.33.73.24"/><path d="M414.5 158.67a3.21 3.21 0 01-.32 1.54c-1.06-.4-2.36-.16-3.41-.4-.24-.33-.08-.73 0-1.06 1.22-.73 2.52.16 3.73-.08" fill="#aa4e32"/><path d="M362.62 159.24a.36.36 0 01-.49.16 1.73 1.73 0 01-.24-.65c.49-.49.49.33.73.49M367.24 159.89a.37.37 0 01-.4-.24c-.09-.41.32-.57.4-.9 0 .33.33.81 0 1.14" fill="#06884f"/><path d="M339.52 159.48a20.78 20.78 0 01.08 2.19c-.4-.08-.81-.25-.89-.65a3.17 3.17 0 01.32-2c.32-.16.32.25.49.41"/><path d="M369.92 159.56c.08.16-.09.33.08.41a.72.72 0 01.89 0c.24.4.32.81.81.73.08.24-.16.16-.25.16l-.32-.16a8.38 8.38 0 00-1.06 3c-.64 1.14-1.61 0-2.43 0 .09-.32.65-.24 1-.48a1.29 1.29 0 001.21-.65 7.84 7.84 0 01.09-2.43c-1.38.4 0 2.43-1.63 2.27-.32-.65.57-1.22.9-1.7.16-.57-.09-1.3.4-1.63.24-.07.41.25.33.49" fill="#06884f"/><path d="M381.59 159.48a5.66 5.66 0 01-.82 2.27 1.51 1.51 0 01-.56-.4c.24-.73.73-1.38 1-2 .16 0 .32 0 .4.16"/><path d="M409.55 160.21c.41.89-.72 1.54-.65 2.43-1.13 1.54-1.13 3.57-1.53 5.43-.25 1.14 1 1.7 1.21 2.68-.65.32-1.46-.08-2 .57a.29.29 0 00-.08.24l.25.24c1.14-.07 2.35-.24 3.16.49.65.16 1.7-.24 1.94.65.25.4-.24.48-.48.57a6.37 6.37 0 01-3.73-.49c-.49-.08-1.05-.08-1.13.49.24.4-.32.64-.57.73-.89 0-2.11.4-2.68-.49a1.56 1.56 0 010-.57c1-.65 2.27-.4 3.41-.24.32-.25-.16-.57-.25-.81-.89-.89-1.94 0-2.91 0-.17-.08-.4-.24-.25-.49 1-.81 2.93.25 3.41-1.37-.16-1.79.17-3.57-.25-5.19.17-1.13-.23-2.51.33-3.49-.56-.89.25-1.62.65-2.27 1-.16 1.29 1.05 2.18.89" fill="#ae5939"/><path d="M358.24 160c-.08.65.33 1.54-.32 1.86a15 15 0 01-.32-2.11c.15-.4.64 0 .64.25" fill="#06884f"/><path d="M379.64 161.1c.16.57 0 1.3.66 1.54.31.08.8.32.89.73.07.16-.09.32-.25.41-.32.08-.49-.09-.57-.41l-1.05-.73c-.17-.4.24-.89-.17-1.21-.07.08-.31.16-.24.4a3.22 3.22 0 01-.48 3.08.35.35 0 01-.33-.33c.17-.8 1.14-1.86.17-2.59-.17-.4.24-.48.49-.65.39-.48-.17-1.78.64-1.69zM383.21 161.59c-.08.25-.48 0-.65.16s-.64.9-1.14.49c-.07-.08-.16-.25 0-.33.41-.16 1-.32 1.06-.81a10.65 10.65 0 00.4-1.54c.57.41.25 1.3.33 2M385 160.37c.07.57-.49 1.14.07 1.54.57-.07.49-.81.73-1.21a2.33 2.33 0 01.2-.7c.25 0 .25.32.25.48a19.31 19.31 0 00-.16 2.19c.48-.65.4-1.62.89-2.27.24.25.16.9.08 1.3-.41.65 0 1.38.41 2 .88.56 1.53-.49 2.43-.33.56-.73-.16-1.78.24-2.67 0-.08.16-.25.24-.08.25 1.21.16 2.51 1.06 3.48 0 .24-.09.65.24.73s.57-.41.89-.17c.08.25.33.58.08.82-1.05.4-.56 2.27-1.94 2.19-.17-1 .24-2.35-.65-2.92l-.16.16a16 16 0 01-.25 4.86.43.43 0 01-.4.25l-.25-.25a37.13 37.13 0 00.32-4.13c-.4-.32-1 .08-1.37.32a17 17 0 01.08 3.49c-.16.16-.32-.16-.32-.41 0-1.46.48-3.24-.82-4.29a1.33 1.33 0 01-1.05-.41c-.65-.24 0-1.62-1-1-.4.41.16 1-.17 1.47-1-.24.25-1.3-.64-1.54-.33-.08-.73.24-.9-.17 0-.32-.08-.73.25-.89.32 0 .48.49.89.08.33-.24-.07-.57.08-.81a14.1 14.1 0 01.32-1.86c.34.09.34.49.34.81"/><path d="M426 161.51c.24 1.54.65 3.4-.16 4.86-.16.24-.41.16-.65.08-1.38-1.29-1.22-3.73-.72-5.35.07-.32.64-.57.39-1-.73.24-.73 1.05-.89 1.7-.4 1.13.08 2.35 0 3.49a5.21 5.21 0 001.14 2.1.45.45 0 01-.58.16c-1.28-2-1.61-5.27-.23-7.37.07-.24-.17-.41-.17-.65 1.22-.08 1.46 1.14 1.87 1.95M399.59 159.89c-.33.57-.08 1.38-.58 1.86a2.76 2.76 0 01.33-2.1.26.26 0 01.25.24M402.26 160.29c-.16.25.08.65-.24.73a1.34 1.34 0 01-.49-1.3 1.74 1.74 0 01.73.57M434 160.78a4.24 4.24 0 012.44.89c.24 1.05-.73 2 0 2.92-.08.16-.08.4-.25.49-.24-.17-.08-.65-.48-.65-.49.56 0 1.54-.41 2.1-.4.08-.33-.4-.4-.65a4 4 0 00-.24-2.75c-.57-.41-.9-1.14-1.63-1.22-.57-.16.16-.89-.4-1a.93.93 0 00-.33 1.21c.25.41.65.74.65 1.22-1 .41-2.1 0-3.08.17a1.21 1.21 0 01-.56-1.39c.16-.4.81-.8.32-1.29h-.24c-.08-.16-.25-.33-.08-.57a6.56 6.56 0 012.51-.16c.57.57 1.46.49 2.18.65" fill="#ae5939"/><path d="M392.69 160.45c.08 1.14.08 2.11.17 3.17-.17.16-.33.4-.49.16a14.77 14.77 0 01-.16-3.25l.16-.4z"/><path d="M428.77 160.54c0 .08-.08.08-.08.16-.25-.08-.17-.41-.09-.57.17 0 .25.24.17.41" fill="#fff"/><path d="M422.36 161.1a2 2 0 01-1.95-.4c-.07-.16 0-.33.25-.33.57.33 1.62-.16 1.7.73" fill="#aa4e32"/><path d="M359.3 161.1c-.25.08-.33-.24-.25-.4l.08-.25a2.73 2.73 0 01.17.65M361.57 160.78c-.16.48 0 1.13-.58 1.29-.15-.16 0-.48-.31-.48-.25.4-.65.48-1 .65a1.49 1.49 0 010-1.62c.41-.17 1.14.65 1.54-.17.17-.08.33.17.33.33M363.19 160.94c0 .24-.08.49-.32.49s-.25-.17-.25-.33 0-.57.33-.57c.16 0 .24.25.24.41" fill="#06884f"/><path d="M414 160.62c.08.24.17.65-.08.81a6.18 6.18 0 01-3.64-.25c-.09-.4.32-.48.56-.56a13.91 13.91 0 003.16 0M422.69 165.32c-.25-1.38-.41-3.33.32-4.62z" fill="#aa4e32"/><path d="M388.72 163.05c0 .08-.08.16-.24.08-.49-.65-.08-1.62.24-2.27.41.65-.16 1.46 0 2.19"/><path d="M365.46 162.8c.16.08 0 .25.08.41-.25.24-.57 0-.81-.08l-.41-.33c.41-.08.16-.72.57-.72.25.24.08.72.57.72" fill="#06884f"/><path d="M405.5 162.48a5.59 5.59 0 01.16 3.48 9.21 9.21 0 00.24 3.9c-.4.73-1.21.4-1.86.64-.24 0-.48.17-.73.09-1.21-1.46-.32-3.33-1.13-5a3.77 3.77 0 01-.41-3.08 2.28 2.28 0 013.73-.08" fill="#ae5939"/><path d="M344.87 161.91a3.48 3.48 0 01-1.71 1.22 3.12 3.12 0 011.63-1.38z" fill="#fff"/><path d="M408.83 162.32a.84.84 0 01-.49.4 1.12 1.12 0 01-.89-.48c-.08-.17.08-.49.24-.49a1.58 1.58 0 011.14.57"/><path d="M422 162.15a.38.38 0 01-.4.49c-.41 0-.9 0-1.06-.32a.39.39 0 01.25-.49c.48 0 1 0 1.21.32" fill="#aa4e32"/><path d="M326.06 162.15a6 6 0 00-1.94 2.52c.81-.24 1.21-1.78 2.27-1.3.56-.08 1.13-1.05 1.54-.4-.33.72-1.14 1.05-1.71 1.78-.72.81-1.05 1.94-1.78 2.75-.4.57-.32 1.54-1 1.71a13.35 13.35 0 010-1.79c-1 .57-1.22 2.11-2.43 2-.08-.41.65-.73.81-1.22a15.12 15.12 0 012.92-5.83c.32-.33 1.05-.65 1.29-.25"/><path d="M366 162.15c.16.41-.41 1.14.16 1.22a1.9 1.9 0 01.32-.81 1.13 1.13 0 001.13-.16c-.07.65-.8 1.14-.56 1.94-.33.25-.81.09-1.22 0a1.83 1.83 0 01-.73-1.62c.17-.24.49-.73.9-.57" fill="#06884f"/><path d="M413.77 162.32c.24.08.16.57.16.81-1.22.08-2.43.32-3.64.4a1 1 0 010-1c1-.65 2.34-.08 3.48-.24" fill="#aa4e32"/><path d="M332.22 162.64c-.32.9-1.54.41-1.94 1.22-1.14-.4-1.54.89-2.44 1-.24.57-.89.65-1.21 1.14a5.15 5.15 0 01-1.38 1.54c-.24-.24.16-.49.24-.81a15 15 0 013.33-3.08c1.21-.16 2-1.54 3.32-1.13z"/><path d="M356.86 162.64a5.86 5.86 0 01-.16 2.44h-.08a6.35 6.35 0 01.17-2.51z" fill="#06884f"/><path d="M343.89 163.37c.41-.16.65-.65 1.14-.48.08.16.16.24.08.4-.57.24-.89.89-1.38 1.29a10.17 10.17 0 001 1.87c-.09.65.48 1.7-.25 2.19-.57-.41-.32-1.3-.57-1.95-.32-1.7-2.26-2.11-3.08-3.4.33-.65.82-.4 1.22-.16a1.31 1.31 0 001.86.24" fill="#e6cb01"/><path d="M358 163.29l-.16.08a.73.73 0 01-.09-.57c.25 0 .17.33.25.49" fill="#06884f"/><path d="M382.4 163.86c.16 0 .33-.24.41-.08 0 .65-1.06 1.13-.73 1.78.56-.4.8-1.3 1.53-1.54.25.49-.24.81-.32 1.22.16.08.48-.33.57.08s-.33.56-.33 1a10.56 10.56 0 01.24 3.24c-.32-.24-.07-.89-.4-1.13-.4.08-.25.81-.81.57-.24-.25-.07-.81-.16-1.06a.74.74 0 000-.89.58.58 0 00-.49-.24c-.56.41.49.89-.24 1.29-.9.08-1.54-.56-2.27-.56.41-.9-1.38-1.46-.16-2.11 0-.24-.17-.57.16-.73.64-.08.9 1.54 1.54.57a3 3 0 011.38-2.19c.32.16.08.64.08.81M403.15 163.29c.08.25-.16.4-.32.49s-.65.16-.81-.16.32-.41.48-.49a.89.89 0 01.65.16"/><path d="M421.55 163.45c-.08.24-.48.24-.73.17l-.08-.08c.08-.25.32-.17.49-.25.08.08.24 0 .32.16" fill="#aa4e32"/><path d="M417.66 163.78c.24 1.46.16 3 1.22 4.05-.08.4-.65.4-1 .65-.89.24-.89-.81-1.21-1.3a6.91 6.91 0 01-.25-3.64z"/><path d="M414 164.1c.08.25-.08.33-.32.41l-3.25.32-.15-.08.32-.32c1.13.08 2.19-.49 3.24-.49zM363.92 164c-.73.65-.73 1.86-1.05 2.75-.73-.81-.25-2 .24-2.83zM360.51 165.4c.17.56.41 1.54-.08 2-.32-.17-.65-.25-.73-.57 0-.73-.32-1.54.08-2.27.25-.08.41-.49.73-.4z" fill="#aa4e32"/><path d="M374.13 164.34c-.08.33-.81.33-.57.9a.76.76 0 00.73.24l.81-.57c.41.33.17 1.06.73 1.22.49-.08.82.41 1.3.33-1.7-.49-4.38.81-5.43-1.14v-.16c.24 0 .65.24.89-.08s-.08-.65.16-1c.49 0 .9.24 1.38.24" fill="#06884f"/><path d="M329.63 164.51c-.08.89-1.14 1.37-1.62 2a.3.3 0 01-.24.08c-.49-.48.4-.89.56-1.29.41-.24.73-.89 1.3-.81"/><path d="M344.63 164.51c0 .07-.08.07-.17.16s-.08-.09-.16-.16a.26.26 0 01.33 0" fill="#fff"/><path d="M358.33 165.81c-.09.07-.25.24-.33.16a1.6 1.6 0 01-.08-1.38l.16-.16a1.38 1.38 0 01.25 1.38" fill="#06884f"/><path d="M432.17 165.48c-.41.16-.73.65-1.13.81a2.41 2.41 0 01.64-1.78c.41 0 .25.65.49 1" fill="#fff"/><path d="M335.46 165a.63.63 0 01.65.09c.17.4-.32.32-.56.48a.62.62 0 00-.73.24c0 .17.16.25.08.49-1.63.73-2.51 2.52-3.81 3.65a.39.39 0 01-.24-.16c.72-1.46 2.18-2.59 3.32-3.73-.9 0-1.3 1-2.11 1.21a16.67 16.67 0 01-2.43 1.71c.4-1.38 1.94-1.95 3.08-2.76-.08-.24-.32-.16-.49-.08-1.05.57-2 1.54-3.08 2.11 0-1.14 1.3-1.46 2-2.19a7.83 7.83 0 013.4-1.46c.09.4.49.73.89.4"/><path d="M400.15 166.05c-.08.16-.16.24-.32.24a1.54 1.54 0 01.24-1.54c.32.16.16.9.08 1.3" fill="#ae5939"/><path d="M386.05 165.24c.08 1.62-.33 3.57.48 4.94.16.57-.4 1.06.09 1.46.24-.16.24-.73.81-.49h.08c-.08.57-.57 1.06-.33 1.7a1.8 1.8 0 01-.73.65 11.14 11.14 0 01-2.6-1.21c.09-.49.58-.08.81-.25.49.17.81-.81 1.14-.16.57-.64-1.22-1.45-.16-2.26-.33-1.55.16-3.25 0-4.71.25-.4.41.17.41.33M373.56 165.56c.09.16-.08.4-.24.32a.45.45 0 01-.48-.4c0-.57.72-.24.72.08M395.53 165.56c.08.81-.81.81-1.3 1.05-.57-.08-1.21.25-1.46-.32.41-.81 1.54-.33 2-1 .32.08.65.08.73.32"/><path d="M414 165.48c0 .65-.72.08-1.05.32a11.1 11.1 0 01-2.35.41v-.16c.89-.49 2.19-.09 3.08-.73.08.08.32 0 .32.16M366.84 166.13c-.17.73-.9.89-1 1.62-.48-.08-.48-.81-.73-1.29a.69.69 0 01.33-.9c.57-.08 1 .32 1.38.57" fill="#aa4e32"/><path d="M401.61 166.37a.55.55 0 01-.17.4c-.16-.24-.48-.72-.31-1.05.4 0 .4.41.48.65" fill="#ae5939"/><path d="M423.9 168a.36.36 0 01-.4 0 4.57 4.57 0 01-.73-2c.41.56.73 1.46 1.13 2" fill="#aa4e32"/><path d="M369.92 167.43c-.09.07-.25.07-.25-.08-.08-.41-.08-1-.65-1.06l.16-.24c.33.48 1.14.72.74 1.38" fill="#06884f"/><path d="M330.19 166.29l-.08.24c-.56.41-1 1.22-1.7 1.39-.08-.66.65-1.14 1-1.55.16-.08.56-.4.8-.08"/><path d="M341.22 166.21c-.08.16-.33.16-.48.25h-.17c.08-.25.32-.33.65-.25M345.52 166.21c0 .25-.33.25-.49.16 0-.32.33-.16.49-.16" fill="#fff"/><path d="M359.05 168.16c-.56-.41-.08-1.3-.24-1.87l.24-.08a3.16 3.16 0 010 1.95M357.27 166.53a.64.64 0 01-.16.41c-.25 0-.25-.41-.16-.57a.42.42 0 01.32.16M362.13 168c-.08.08-.16.17-.24.17a2.83 2.83 0 010-1.63c.33.33.24 1 .24 1.46M371.45 168c.33-.24-.07-1.05.49-.89.33.4.81.81.9 1.3-.73.08-1.46.48-2.11.32a3.61 3.61 0 010-2.11c.65.16 0 1.3.72 1.38" fill="#06884f"/><path d="M414.09 166.7c-.24.32-.8.32-1.21.32a2.69 2.69 0 011.21-.32" fill="#aa4e32"/><path d="M393.1 167.83c.32-.08.4.4.73.33s.16-.49.48-.66c.41.33.08 1.06.25 1.63l-.25.25c-.32-.82-1.29-.41-1.78-.73-.24.16-.24.56-.32.8-.89.09-1.62 2.19-2.35.9.48-1.22 2.19-1.63 2.19-3.16a1.46 1.46 0 01.56-.41c.08.32-.08 1.05.49 1.05"/><path d="M380.86 167.43c-.25.16-.32-.17-.49-.25l.08-.32c.16.08.49.33.41.57" fill="#06884f"/><path d="M433.63 167.43l-.08.56a1 1 0 01-.89-.32c-.25-.16-.17-.41-.17-.65.33-.16 1.14-.32 1.14.41M327.36 167.91c-.17.17-.41.32-.65.17a.29.29 0 01.16-.49c.24-.24.49-.57.81-.57.09.41-.24.65-.32.89"/><path d="M368.54 167.26a51.86 51.86 0 01.08 6.08c-.08.25-.16.65-.57.41-.48-1.06-.08-2.6-.72-3.65-.17-.81.24-1.46.31-2.19.66.08.33-1 .9-.65" fill="#aa4e32"/><path d="M396.42 167.83c-.08.73.09 1.62-.32 2.11-.49.08-.73-.32-.9-.73-.16-.73.73-1.14.73-1.78.33-.66.49.16.49.4"/><path d="M377.7 168.32a.75.75 0 01.16.81c-.25.24-.65.08-.89.08a1.13 1.13 0 01-.57-1 1.46 1.46 0 011.3.09" fill="#06884f"/><path d="M342.44 167.67c-1 1.62-2.84 2-4.06 3.4-.32.09-.48-.4-.73-.4a1.89 1.89 0 01.82-1c1.21.08 2.1-1 3.07-1.63.33-.16.57-.4.9-.4" fill="#e6cb01"/><path d="M374.05 168.07c0 .41-.4.49-.65.74a.31.31 0 01-.32-.17 3.66 3.66 0 01.48-1c.33-.08.33.24.49.4" fill="#06884f"/><path d="M434.92 167.67a1 1 0 010 .73c-.24 0-.16-.32-.24-.4.08-.09 0-.41.24-.33"/><path d="M414.18 168.16l-1.63.16c.57-.09 1-.49 1.63-.41z" fill="#aa4e32"/><path d="M357.51 168.23c0 .17-.08.17-.16.17v-.4c.08 0 .16.17.16.24M429.26 168.48c-.17.4.16 1.14-.41 1.14a1.22 1.22 0 01-.08-1.47c.24-.32.64 0 .49.33M346.17 168.4c0 .16-.08.24-.25.24s-.16 0-.25-.16a.32.32 0 01.5-.08" fill="#fff"/><path d="M401.13 168.81a11.94 11.94 0 01-.33 1.62c.16-.57 0-1.3.16-2 .17 0 .17.24.17.33" fill="#06884f"/><path d="M364.33 169.37a1.38 1.38 0 01.4 1.46 1.69 1.69 0 01-1.05 1 4.15 4.15 0 01-.09-3.4c.41 0 .49.57.74.89M366.67 171.16c.08.64.81 1.13.41 1.86a.88.88 0 01-.65.08c-.16-.32-.16-.89-.65-.89-.32.08-.32-.25-.4-.41a9 9 0 00-.08-2.92c.24-.07.4.57.81.25.24-.17.08-.49.32-.65.49.81.16 1.78.24 2.68" fill="#aa4e32"/><path d="M328.74 169.05l-.17.65c-.48.64-.89 1.37-1.37 2.1a4 4 0 012.19.81c0 .24.08.33 0 .49-.57.24-1.14-.25-1.79-.16-.32 0-.65 0-.65-.33-.16-.4.57-.73.09-1.05 0-.41.4-.73.32-1.22-.65.65-.81 1.62-1.38 2.19-.48-.16.08-.57 0-.9.57-1 .73-2.51 1.87-3.07.32.08.81.08.89.49"/><path d="M343.08 168.89c-.16.73-1 1.05-1.37 1.45-.33.16-.49.41-.82.33l.09-.33c.65-.48 1-1.54 1.94-1.7z" fill="#e6cb01"/><path d="M402 169.21c-.16.16-.16-.16-.16-.24s-.09-.33.07-.33.09.41.09.57" fill="#06884f"/><path d="M326.3 169.37c-.16.41-.32 1.06-.89 1.06a1.37 1.37 0 01.08-1.46c.33-.25 1.22-.25.81.4"/><path d="M431.76 169.86c-.08.16-.08.4-.32.32a4 4 0 01.4-1.29c.17.24 0 .64-.08 1" fill="#fff"/><path d="M414.74 169c-.08.32-.48.4-.73.56l-.24-.08a1 1 0 011-.48" fill="#aa4e32"/><path d="M356.22 169.86h-.08v-.81c.32.08.08.48.08.81M375.51 169.7c.16.08.08.24.08.32-.65.25-1.06-.4-1.54-.73 0-.16.16-.24.33-.16.32.32.64.65 1.13.57M381.83 170.59c-.16.48-.89.32-1.38.32-.48-.73-2.19-.16-1.69-1.54.88-.32 1.69.49 2.43.81z" fill="#06884f"/><path d="M345.92 169.37a.32.32 0 01-.08.25h-.17v-.25c.09 0 .17-.08.25 0" fill="#fff"/><path d="M439 171.07c0 .41.24 1.14-.16 1.38-1-.4-.16-1.78-.57-2.59a.51.51 0 01.08-.49c.49.33.56 1.06.65 1.7" fill="#06884f"/><path fill="#fff" d="M432.58 169.53h.08v.32h-.08z"/><path d="M396 170.43c.24.4-.33.56-.57.73-.81.32-1.14-.9-1.7-.25-.73.41-.81 2.11-2 1.38-.16-.16-.24-.49-.48-.57a.41.41 0 00-.41.49c-.08.16.09.4-.16.57 0-.49-.65-.82-.25-1.22.5-.57 1.3-.41 1.95-.41.08-.57 1.14-.65.89-1.45.41-.17.9.16 1.3.32a1.76 1.76 0 011.46.41M324.19 170.18a3 3 0 01-.24 1.87.57.57 0 01-.64-.49c.08-.16-.09-.24-.25-.24s-.48-.08-.41-.33a1.73 1.73 0 01.65-1.29c.49-.08.33.8.89.48"/><path d="M370.64 170.67a12.71 12.71 0 00-.4 3.4.4.4 0 01-.65.17c-.57-.49-.16-1.39-.24-2 .08-.73-.41-1.46 0-2.11.4.33 1.13.08 1.29.57M373.81 171.16c-.16 1.29-1.06 2.26-.89 3.72-.33.08-.65.49-1 .17.57-1.63-.32-4.06 1.38-5z" fill="#aa4e32"/><path d="M361.08 170.59c0 .32-.24.4-.57.48a.34.34 0 01-.32-.32c-.08-.41.41-.49.56-.65.33-.08.33.24.33.49" fill="#06884f"/><path d="M389.94 171a.3.3 0 01.08.25c-.57.32-1.14-.17-1.78-.17l-.57.09c.08-.41.16-.82.57-1 .89-.24.72 1.14 1.7.81"/><path d="M428.12 170.34h-.41v-.16c.17-.08.41 0 .41.16" fill="#fff"/><path d="M383.13 171c-.24 0-.16-.24-.24-.4l.08-.41c.24.16.24.49.16.81M331.25 170.43c0 .07.08.16.08.24.24 0 .32-.24.49-.16.32.65-.41 1.22-.49 1.86-.08.41.16 1-.24 1.3-.33-.16-.17-.81-.17-1.22a8.85 8.85 0 01.25-1.54c-.49.25-.49 1-.81 1.38-.08 0-.17-.08-.25-.16a3.24 3.24 0 011.14-1.87v.17zM397.72 170.91c-.08.08 0 .16-.08.25-.32.08-.41-.17-.32-.33.07 0 .4-.16.4.08"/><path d="M354.19 171.88v.17c-.57.08-1-.57-1.54-.65-.32-.33-1.3.24-1.13-.33 1.05-.4 1.86.33 2.67.81" fill="#fff000"/><path d="M325.25 171.24c.08.24-.08.4-.24.56-.16-.08-.33-.16-.24-.32-.09-.16 0-.32.16-.49.16 0 .4 0 .32.25M396.51 171.16c0 .24.15.56-.09.64s-.32-.24-.4-.4.32-.65.49-.24"/><path d="M437.28 171.56c-.33 1.7-.08 3.73-1 5.19a.68.68 0 01-.33.65c-.16-.65.24-1.3.16-2a8.55 8.55 0 011-4.29c.16 0 .16.24.16.4" fill="#06884f"/><path d="M371.7 172.29a12.67 12.67 0 01-.41 2c.49-1.06-.8-2 0-3.08.33.24.33.72.41 1.13" fill="#aa4e32"/><path d="M383.29 171.48h-.16v-.32a.32.32 0 01.16.32"/><path d="M359.78 171.72c-.08 0-.16-.16-.24-.16l.08-.16c.16 0 .24.16.16.32" fill="#06884f"/><path d="M374.78 171.4c-.08.73-.16 1.7-.73 1.94 0-.65-.16-1.86.73-1.94" fill="#aa4e32"/><path d="M395.77 172a.27.27 0 01-.24.09.52.52 0 01-.16-.65c.32-.16.48.32.4.56"/><path d="M376.23 172a1.91 1.91 0 01-.48 1.87.6.6 0 01-.4.08c-.57-.73.08-1.78.4-2.51.33-.08.41.4.48.56" fill="#aa4e32"/><path d="M323.22 172.53c-.07 1 0 2.19-1.05 2.52 0 .24.16.48.08.72a.64.64 0 01-.89-.24 21 21 0 00.49-3.25c.32-.56 1.37-.64 1.37.25"/><path d="M336.44 172.45c-.49.49-.82 1.22-1.46 1.62a3.47 3.47 0 011.7-2.18z" fill="#e6cb01"/><path d="M347.54 172.53a3.41 3.41 0 01-3.16.81c-.32-.08-.81-.08-1-.4.57-1 1.95-.49 2.76-1 .56-.16 1 .25 1.37.57M352.82 172.37c-.58.16-1.3.08-1.46.73.32.49.8.08 1.21.16a1.86 1.86 0 011.38 1.06.78.78 0 01.08.72 10.25 10.25 0 01-2.35 0c-.73-.48-.65-1.29-1.05-1.94.16-.49.89-.49.89-1 .32 0 1.3-.17 1.3.32" fill="#fff000"/><path d="M338.87 172.05c0 .64-.49 1-.81 1.45a2.35 2.35 0 01-.73.25c.08-.65.73-1.22 1.22-1.7z" fill="#e6cb01"/><path d="M423.74 172.69c0 .09-.08 0-.16.09-.16-.17-.08-.49-.08-.73.08 0 .16-.09.24 0s0 .4 0 .64M324.44 172.29c0 .24-.25.4 0 .56s.24-.07.33 0c.48 1-1 1.55-.41 2.52 0 1-.65 1.86-.57 2.84-.32.16-.57-.25-.73-.49-.24-1.3.57-2.43.25-3.89l.73-1.78c.15 0 .4 0 .4.24"/><path d="M399.59 172.85a13.73 13.73 0 01-.74 2.76c-.32.08-.4-.24-.56-.4-.09-1.06.32-2.11.32-3.16.4.16.65.57 1 .8M359.54 173.18c-.08.57.41 1.3-.33 1.62l-.16-1.05c-.4-.33-.89-.73-.81-1.38.33-.24.57.57 1.06.49zM361 174.4c-.32.48.08.89.16 1.37a4.08 4.08 0 01-1.05-3l-.08-.49c.48.56 0 1.7 1 2.11M433.63 173.5a1.33 1.33 0 01.25-1.05c.24.4-.08.73-.25 1.05" fill="#06884f"/><path d="M427.63 173a.29.29 0 01-.08.24.42.42 0 01-.16-.64c.24 0 .16.23.24.4"/><path d="M435.17 173.1c-.65 1.54-.41 3.48-1 5a3.74 3.74 0 01.08.9c-.66-.41-.57-1.3-.57-2.11-.09-1.62.08-3.32 1.38-4.29zM357 174.4l-.09.08c-.16-.17-.16-.65-.24-.9a1.42 1.42 0 01.49-.73c.4.33-.32 1-.16 1.55M362 173.83l-.24.16a.64.64 0 01-.16-.89l.16-.08c.33.08.33.57.24.81M401.37 174.4c-.08.32.24.48.16.81-.57-.41-.4-1.22-.4-1.87.08-.08.16-.16.24-.08.16.33-.16.73 0 1.14" fill="#06884f"/><path d="M355.41 175.29c.32-.24.32-1 .56-1.38.41.24-.24 1.22.57 1.3l-.24 1-.89-1c-.08.65-.41 1.54.16 1.94.32.17.57-.48.81-.07.65-.17.57-.9.65-1.38.08-.65.81-1.06.72-1.79.09-.16.33-.16.58-.16.8.73-.58 1.54 0 2.27.56-.08.48-.81.72-1.13l.41 1.22c-.25.64-1.54.8-1.13 1.69.64-.07 1-.81 1.45-1.29h.33c-.33.4-1 .81-.81 1.29a1.75 1.75 0 01.89-.07c.08.16.24.16.4.16.25-.41-.16-1.38.57-1.46.08-.08.16-.24.32-.32.33.56-.8.81-.32 1.3.41-.09.32-.73.81-.73.25.4.09 1 .57 1.05.65-.57 2-.08 1.86-1.38.65-.08-.16 2.11 1.14 1.13a3.61 3.61 0 002.84-1.94c.24-.08.4-.25.64-.08.08.73-1 2.11.41 2.51.89.17 1-1.62 1.87-.65.32.57-.74.82-.33 1.3.48.08.89 0 1.21.08-.07 1.3-1.86.65-2 2 .08 1.22-1.06 2.11-1.22 3.25-.24.4-.73.24-1.13.24-2-.56-4.05-1.21-6.16-1.86-.81-.08-.9-1.14-1.7-1.14-.33-.24-.17-1.13-.82-.8a1.54 1.54 0 01-1.62.48c-.32-.24-.32-.81-.81-.81s-.48.57-.64.81c-1.22.08-2.85.57-3.82-.4-.48-.16-1.37.32-1.53-.49-.33-.08-.49.16-.74.33-.81-.17-1.78-1.14-2.51-.08-.48-.25-1.22-.09-1.78-.41-.65.81-.89-.89-1.7-.16-.33 0-.41-.32-.65-.41-.81.25-1.3-.64-1.95-.48-.24.73-.8.16-1.29.32a1 1 0 01.65-1 1.78 1.78 0 001.29-.72c-.08-.82.16-1.55-.24-2.28-.25.33-.81.09-1.05.4-.09.66.24 1.31-.25 1.79-.4.16-.57-.4-.89-.16l-.32.65c-.25-.17-.57-.25-.49-.58.16-.07.41.17.56-.15.17-.49-.64-1.06 0-1.3.57.08.74-.4 1-.81.56.08 1.21 0 1.38-.57 0-.16 0-.33.24-.24 0 .16-.08.48.16.56.49 0 1-.16 1.38.16.4-.48.89.57 1.13-.07l.09-.41c.24-.08.4.16.65.24-.09.17-.33.33-.17.57.33.17.24.73.65.49a3.31 3.31 0 012.6-1.46c.07.16.24.32.07.48-.32.41-.64.73-.48 1.22a.29.29 0 00.24.08c.17-.57.89-.89 1-1.54.24 0 .48.4.72.16.66.08.33 1.06 1.14.81.41.25-.24 1.06.49.81 0 .65.81.49 1 1.05a4 4 0 001.79-1.05c.16-.08.48-.16.48-.4a3.08 3.08 0 01.25-2.27c.07.56.16 1 .24 1.61" fill="#06884f"/><path d="M376.8 173.83c-.23.65.25 1.7-.48 2.11a.73.73 0 01-.65-.33 5.8 5.8 0 01.81-1.94c.17 0 .32 0 .32.16" fill="#aa4e32"/><path d="M431.44 174.48a.53.53 0 01-.08-.73h.16z" fill="#06884f"/><path d="M416.2 174.24c-.08.07-.08 0-.16-.09l.08-.16c.16 0 .24.16.08.25"/><path d="M383.69 174.8c0 .57-.4 1.3-.16 1.78.65-.4 0-2 1.22-1.53.56.81.08 1.78-.16 2.59-.25.16-.65 0-.73.4a.91.91 0 01-.16.66c-.4-.17-.25-.66-.57-1h-.81c.17-1.14.73-2.27.81-3.48.4-.09.4.32.56.56" fill="#aa4e32"/><path d="M363 174.64c.32.41-.17 1 0 1.62a.39.39 0 010 .49h-.09c.33-1.14-1.29-1.22-1.29-2.19.4.16 1 .49 1.38.08M366.75 175.37c-.48.49-.72 1.38-1.45 1.38a1.76 1.76 0 01-.17-1.3l.49-.65a2.88 2.88 0 001.13.57M390.59 175.05c.16.24 0 .56-.17.81a.77.77 0 01-.72.16.8.8 0 01-.08-.73c.24-.24.64-.16 1-.24M367.73 175.69c-.57.17-.81 1-1.38 1.06-.08-.49.65-.73.57-1.22.32.16 1.21-.81.81.16M337.17 175.94c0 .16.08.24-.08.32-.17-.16-.41-.57-.17-.81.25 0 .17.32.25.49" fill="#06884f"/><path d="M343.41 175.45a.31.31 0 01-.16.41c-.09 0-.17-.09-.24-.17a.28.28 0 01.4-.24M347.54 175.45c.16.08 0 .24 0 .32h-.16v-.32z"/><path d="M429.09 175.53a.28.28 0 01-.08.16h-.09v-.24c.09 0 .09.08.17.08M334.98 175.69l-.08-.08h.08v.08z" fill="#06884f"/><path d="M349.73 176h-.16c-.08 0-.08-.25 0-.33.24 0 .08.25.16.33"/><path d="M427.63 176.1c-.08.24-.08.57-.32.65-.41.16-.33-.33-.41-.49s.16-.48.41-.57.24.25.32.41" fill="#06884f"/><path d="M349 176.18c-.08.08 0 .33-.16.24a.23.23 0 010-.4c.08 0 .08.08.16.16"/><path d="M433.23 177.23c-.25 1 .56 2.44-.58 2.92-.16.09 0 .25-.16.33-.15-.41-.24-1-.73-1.22a8.58 8.58 0 01.49-3.24c.49.24.57.89 1 1.21" fill="#06884f"/><path d="M357.75 177c-.07 0-.16.08-.24 0a.69.69 0 01.49-.81l.16-.08c.17.32-.24.57-.41.89M344.46 176.34c.08.08 0 .08 0 .08h-.16v-.24c.16 0 .16.08.16.16M343.89 176.58a.17.17 0 01-.16.17c-.08.08-.24 0-.24-.17-.16-.4.4-.24.4 0"/><path d="M333.44 176.91c-.08 1.46-.65 2.68-.65 4.14-.24.24-.73 0-1.05.08-.33-.9 1-1.46.81-2.43-.16-.73 1.13-1.31.24-1.79-.73.16-.65 1-1.3 1.3a2.18 2.18 0 011.14-1.7 1.55 1.55 0 01.81.4" fill="#e6cb01"/><path d="M325.33 177.07c0 .49-.32 1.14.33 1.38a1.87 1.87 0 01-.25 1.14c-.32.15-.81-.16-.89.32s.08.81-.24 1.13c-.24.08-.4-.16-.49-.32a2.25 2.25 0 01.49-2.35c.24-.49.16-2.6 1.05-1.3M345.67 176.75v.16c-.07-.08-.07 0-.07 0-.17-.08-.17-.16-.09-.25s.09 0 .16.09M410 177.16c-.17.56.33 1.45-.41 1.69-.31.09-.31-.4-.4-.64a1.94 1.94 0 01.4-1.46.64.64 0 01.41.41M407.86 177.23c-.17.65.48 1.3-.09 1.78-.24 0-.49-.16-.49-.31.09-.73-.32-1.54.33-1.87zM401.21 177.23c.08.33-.17.49-.41.57-.25-.08-.49-.08-.49-.32a.46.46 0 01.33-.57.55.55 0 01.57.32M406.47 176.91c.25.57-.08 1.06-.08 1.54 0 .16-.24.08-.4.16a1.63 1.63 0 01.16-1.7.24.24 0 01.32 0"/><path d="M430.88 177.48c.16 1.37.07 2.76.32 4.13-.08.49-.57.65-.73 1-.49-.73-.25-2-.4-2.85.48-.8.24-1.94.56-2.83.25 0 .16.32.25.57" fill="#06884f"/><path d="M346.57 177a.66.66 0 01-.24.89c-.41-.08-.09-.48-.09-.65s.16-.24.33-.24M403.56 177.48c-.08.49.15 1.46-.49 1.62-.33-.4-.08-1.13 0-1.62-.08-.49.64-.65.49 0M405 178.12c-.09.25 0 .58-.25.73-.73-.32-.16-1.21-.08-1.78.41 0 .24.65.33 1.05"/><path d="M429 177.39c0 .9-.57 2.35.32 2.85.08 1 .16 2.1.25 3.07-.41-.24-.09-1.05-.66-1.05-.48.57.66 2-.64 1.78-.81-1.54-.16-3.48-.16-5.19a2.15 2.15 0 01.8-1.69z" fill="#06884f"/><path d="M347.62 177.72h-.16c-.08-.16-.08-.41.08-.49.16.08.33.41.08.49M345.11 177.64c.08.16-.08.33-.16.48-.33-.07-.08-.32-.24-.48 0-.33.4-.48.4 0"/><path d="M337.33 177.88c.32.24 0 .57-.16.82-.57.31-.89 1.13-1.55 1.13-.16.16-.16.16-.4.16-.16-.25-.16-.57-.48-.65s-.25.08-.49.08a1.41 1.41 0 010-1.38 3.26 3.26 0 001.06.73c.56-.07-.25-1.38.64-1.05.24.08.33-.24.49-.24.08.4.57.49.89.4" fill="#e6cb01"/><path d="M343.41 178.29c0 .16-.09.48-.4.41-.25-.25-.09-.73-.09-1l.24-.24a.63.63 0 01.25.81M346.09 178.61c.08.49-.49.57-.73.73-.41.08-.25-.33-.25-.49a1.46 1.46 0 01.81-.48z"/><path d="M338.79 178.94v.06h-.16c0-.08.16-.25.16-.08" fill="#06884f"/><path d="M366.92 180.4a.51.51 0 01-.57.16 1.68 1.68 0 010-.89c.32-.17.49-.58.81-.58.41.5-.24.82-.24 1.31M363.92 179.34c.08.33.16.73-.16 1s-.49-.33-.57-.49c0-.32.16-.65.4-.65a.42.42 0 01.33.16M370.24 179.5c-.08.33-.24.74-.57.82-.24-.08-.16-.41-.08-.58s.49-.64.65-.24"/><path d="M426.42 179.74c-.17 1.63-.25 3.09-.49 4.71-.24 0-.41-.41-.49-.65a10.52 10.52 0 01.25-4.21.53.53 0 01.73.15" fill="#06884f"/><path d="M362.22 179.74a.45.45 0 01-.16.33c-.17 0-.17-.16-.25-.16 0-.24.32-.48.41-.17M327 180.4a.9.9 0 01-.41 1 .59.59 0 01-.81-.32c-.08-.49-.16-1.06.24-1.38.49-.17.81.4 1 .73M365.3 180.15c0 .33.08.73-.25.9-.48-.17-.32-.74-.48-1.06 0-.56.89-.32.73.16M368.62 180.24c0 .16-.08.24-.16.4-.25 0-.57 0-.65-.24a1 1 0 01.24-.73.55.55 0 01.57.57"/><path fill="#06884f" d="M427.39 179.99l-.08-.16.08.08v.08zM425.12 180.24c-.25.4.08 1.29-.73 1.13-.16.08-.41.08-.41-.16-.16-.65.33-.9.73-1.22.25-.08.33.08.41.25M335.14 181.86c0 .24-.32.24-.48.24-.49.08-.73-.41-.9-.81 0-.33-.32-.73-.08-1.14.57.49.65 1.54 1.46 1.71"/><path d="M352.33 181.69c1 .25 2-.08 2.91.16-2.67.65-5.83.25-8.84.73-2.67.4-5.42.73-8.18 1.06l-1.38.4c.81-.73.57-2.19 1.79-2.59.56 0 1.21-.33 1.78-.08 3.65.16 7.38-.25 11-.17a5.7 5.7 0 01.9.49" fill="#ae5939"/><path d="M336.92 182.74c-.32.17-.89.25-1.05.74-.25 0-.56.24-.73.08a16.54 16.54 0 011.3-2.28 1.56 1.56 0 01.48 1.46" fill="#e6cb01"/><path d="M325.82 182c0 .24.08.65-.32.73a.51.51 0 01-.49-.4c0-.25.24-.49.49-.66s.32.17.32.33"/><path d="M360.27 182.83a5.41 5.41 0 012 .65c-.73-.17-1.71-.08-2.44-.25-.4-.56-1.29-.49-1.45-1.22.8-.56 1.13.73 1.94.82" fill="#fff"/><path d="M331.74 182.1a.46.46 0 01-.25.41c-.08 0-.24.08-.32-.09a.44.44 0 01.24-.4c.08 0 .25-.08.33.08" fill="#06884f"/><path d="M330.85 182.67c-.09.32.16 1.13-.25 1.21 0-.4-.32-1 .25-1.21" fill="#e6cb01"/><path d="M332.71 183.15v.16h-.25c-.16-.24.17-.32.25-.16" fill="#fff"/><path d="M333.93 184.69h.31c.25.49-.15.81-.48 1.06-.32-.33-1-.17-1.13-.73a5.26 5.26 0 00.64-1.87c.09-.08.17 0 .25-.08.41.49-.16 1.22.41 1.62" fill="#e6cb01"/><path d="M325.41 185.18c-.56-.24-.81-1.22-1.05-1.87a6 6 0 011.05 1.87"/><path d="M355.73 184.45a4.15 4.15 0 002.27 1.21c1.3.09 2.35-1.29 3.57-.4l6.24 1.7c.16.32-.33.32-.48.41-4.06.32-7.87 1.21-11.92 1.62a.7.7 0 00-.33.81c.16.41.57.24.81.16-.24.89 1.38 1 .49 1.71 0-.17.16-.41-.08-.58-1.06.25-.49 1.54-1.22 1.79-.16-.08-.24-.33-.48-.25s-.33.41-.57.41c-.16-.25-.16-1.22-.82-.73l-.07-.08c-.09-1.14.24-2.35-.16-3.24-.41.07-.16.56-.33.89-.41 1.13.25 2.19-.24 3.32-.49-.65.49-2.19-.89-2.35l-.09.16c-.32-.64.33-1.13 0-1.78-.48-.07-.32.4-.56.57a10.19 10.19 0 01-.08 3.49.3.3 0 01-.41.16c-.24-.33.25-.25.33-.49-.33-.65.48-1.05.08-1.7-.49.16-.25.89-.57 1.13-.73-1.13.73-2 .73-3.24l-.16-.16a7 7 0 00-1.38 3.32 1.09 1.09 0 01.16 1h-.24c-.41-.65.32-1.87-.74-2.19-.15-.16-.07-.4-.07-.57.73-.41.64-1.37.57-2.11-.25-.24-.41-.56-.25-.81a1.93 1.93 0 001.13-1.78 1.28 1.28 0 01-.89-.81c-.49 0-.32.9-1 .65a.49.49 0 00-.32.73.65.65 0 001 .08c0 .48-.49.89-.56 1.38-.33.48-.09 1.45-.82 1.54-.4-1.06.33-2.35-.24-3.48-.73.16-.24 1.29-1 1.53a2.1 2.1 0 00-.32 1.38.37.37 0 00.41 0c.32-.16.32-.56.32-.89h.16a9.43 9.43 0 010 2.19c-.72-.4-1.05 1.3-1.53.24.08-1-.17-2 .56-2.67 0-.65-.56-1.14-.24-1.78a.44.44 0 00-.41-.17 1.36 1.36 0 00-.32 1.54c.16.09.4.33.16.58-.65.4-.24 1.29-.57 1.86-.24-.57.41-1.46-.32-1.62-.32.32-.25.73-.49 1-.24-.24.17-1-.49-1-.4.65-1.05-.16-1.37.65a.23.23 0 01-.25-.25c.25-.81 1.46-1.21.9-2.27a1.51 1.51 0 01-.33-1.13c.08.65.89.56 1.38.73.49-.25-.08-1.47.89-1 .33.56-.89 1.37 0 1.53.33-.48.24-1.13.65-1.62.08.09.16.25.25.25a.16.16 0 00.15-.16c.09-.09 0-.17-.07-.25l-.25.08c-.08-.33.25-.49.49-.49a51.1 51.1 0 018.59-.4z" fill="#06884f"/><path d="M367.73 185a18.13 18.13 0 01-3.57-1 26.07 26.07 0 013.57 1" fill="#fff"/><path d="M357.75 184.61a.8.8 0 011.06-.32.38.38 0 01.16.48 2.91 2.91 0 01-2.35-.08.51.51 0 010-.48c.08-.17.33-.08.49-.08.32.08.24.64.64.48" fill="#06884f"/><path d="M346.65 184.86c-.08.24-.08.48-.32.56s-.41 0-.41-.16a1.09 1.09 0 01.49-.81c.16 0 .24.24.24.41M328.17 185c-.09.4.08.89-.33 1.13-.24.08-.56 0-.56-.32s-.08-1 .32-1.22a.44.44 0 01.57.41"/><path d="M332.06 184.86a1.2 1.2 0 01-.49.8c.09-.32-.08-1 .49-.8M337.82 185.5c0 .16 0 .25-.08.25-.65-.57-1 .57-1.55.64.09-.4 0-1.13-.64-1.13.16-.73.73.24 1.21.16.33 0 .81-.16 1.06.08" fill="#e6cb01"/><path d="M340.49 186.39c-.08.65.57 1.46-.16 2-.65-.16-.57-.89-.73-1.38.08-.48-.16-1.3.24-1.7a1.08 1.08 0 011-.24c.25.48-.48.81-.32 1.37M424.71 185.42c-.08.08-.16.16-.23.08s-.09-.24 0-.32.15.16.23.24M338.71 186.72c0 .48 0 1-.33 1.22-.24 0-.32-.25-.32-.41.17-.81-.32-2.11.81-2.27 1.21.24-.32.89-.16 1.46" fill="#06884f"/><path d="M402.5 185.83c-.08.49-.73.16-1.06.32a.27.27 0 01-.07-.16c.4.08.81-.24 1.13-.16" fill="#fff"/><path d="M357.43 186.88c-.08.16.08.4-.16.57-.56 0-.32-.65-.48-1l.24-.33a.76.76 0 01.4.73M351.36 186.64a16.21 16.21 0 01-.09 1.94c0 .25.33.25.41.33-.32.08-.57-.4-.89-.49l.16-.16a2.49 2.49 0 010-1.86c.24-.17.24.15.41.24M343.65 187c-.08.24.08.73-.32.73a1.15 1.15 0 01-.08-1.05c.24-.4.4.08.4.32M360.11 187c0 .41 0 .89-.41 1.06a1.11 1.11 0 01-.89-.57c.08-.41.49-.49.73-.81.24 0 .57.08.57.32M353.79 187.61c0 .08-.08.24-.17.24-.48.17-.72-.89-1-.08-.32-.16-.16-.4-.16-.73.24-.24.65 0 1 0zM350.38 187.45c-.08.32 0 .64-.32.73-.41-.16 0-.65 0-1 .16-.24.32.08.32.25"/><path d="M422.69 187.53c.08 1.21.4 2.35-.16 3.48-.33.08-.33-.4-.33-.64-.25-.65.16-1.46-.4-2 .15-.4.56-.81.89-.81" fill="#06884f"/><path d="M367.89 188.1c0 .08-.32.16-.49.08 0-.16.33-.08.49-.08" fill="#fff"/><path d="M390.75 188.83c-.16.32.16.8-.24 1-.33 0-.33-.32-.4-.49a.73.73 0 01.31-.89c.25-.08.33.24.33.41M393.75 188.74c0 .25 0 .74-.33.74s-.4-.33-.4-.58a.39.39 0 01.24-.48.56.56 0 01.49.32M392.37 188.74a1 1 0 01-.57 1c-.65-.16-.08-.81.08-1.14.17-.08.33 0 .49.16"/><path d="M335.46 189.15a.29.29 0 01-.08.24v-.24z" fill="#fff"/><path d="M339.84 189.72a.38.38 0 01-.16.48c-.24.08-.4-.24-.4-.4-.17-.49.48-.4.56-.08" fill="#06884f"/><path d="M389.77 191.26c-1.78-.41-4-1-6-1.63v-.23c2 .48 4 1.21 6 1.86" fill="#fff"/><path d="M381.83 189.63c.08.41-.48.66-.81.74-1.21.24-2.43.4-3.65.72-.16 0-.24-.15-.24-.32a.29.29 0 01.08-.24c.16 0 .32.16.41.08.24-.65.89 0 1.14-.57 1.05 0 1.94-.81 3.07-.41" fill="#ff3516"/><path d="M354.92 190.29c0 .56.16 1.38-.16 1.86-.41 0-.25-.48-.33-.81.16-.49-.24-1 .16-1.46.17 0 .25.24.33.41"/><path d="M341.22 190.29c0 .15-.24.15-.33.32-.15 0-.4 0-.4-.24s0-.41.25-.41a.5.5 0 01.48.33M421.88 191.34c.16.57.81 1.21.16 1.78-.09.16-.24.16-.4.16-.73-.81-.33-2.1-.09-3 .4.17.09.73.33 1.06M347.62 191c0 .08-.08 0-.16 0l-.4-.48a.48.48 0 01.56.48M420.58 193c-.08.32-.08.81-.49.89-.16-.07-.4-.16-.48-.32a17.79 17.79 0 010-2.92c.24-.4.48.08.56.16zM342.19 191.58c-.16-.16-.08-.32.08-.49a.3.3 0 01-.08.49M417.5 191.58a12.54 12.54 0 01-.49 3.08 13.73 13.73 0 01-.16-3.16c.08-.24.65-.32.65.08" fill="#06884f"/><path d="M357.75 192.72a.36.36 0 01-.48-.33c0-.33 0-.65.32-.81.16.33.49.81.16 1.14"/><path d="M415.63 192.8c.09.73 0 1.7-.73 1.86l-.32-.24a5.29 5.29 0 01.65-2.36c.48-.07.4.42.4.74M418.79 192.23a3.68 3.68 0 000 2.43.5.5 0 01-.65 0 3.26 3.26 0 010-2.6.91.91 0 01.65.17M351.76 192.55c-.08.08-.16 0-.24 0a.19.19 0 01.16-.32c.08.08.16.25.08.32" fill="#06884f"/><path d="M378.51 193.28c.25.65-.57.9-.49 1.46-.32.25-.65 0-1-.08-.32-.81 1.05-1.14.73-1.94.49-.33.57.32.73.56"/><path d="M356.86 194.42a1.29 1.29 0 01.73.4c.09.25 0 .41-.24.57-1.21 0-1.13-1.46-1.46-2.18l.17-.49c0 .64.48 1.13.8 1.7M412.23 192.72c.08.64.4 1.54-.08 2.18a2.28 2.28 0 01-.16-2.18z" fill="#06884f"/><path d="M388.4 193.93a7.59 7.59 0 00-.65 1.79c-.08.24-.32.48-.57.4 0-.81-.33-2.11.49-2.6.32 0 .65.09.73.41"/><path d="M354 194.66l-.16 1.06c-.33-.25-.17-.9-.73-1-.16-.08-.41 0-.41-.24s.25-.65.56-.73c.66-.16.49.49.74.89M356 195.88c-.64.08-.4-.65-.73-.89l.17-.65c.65.16.4 1 .56 1.54" fill="#06884f"/><path d="M365.62 195.39c0 .25.08.41-.08.57a1.4 1.4 0 01-1-1.22c.41-.73.74.33 1.06.65M386.78 194.91c-.25.56-.81.89-1.22 1.45-1.22.9-.49-1.62-1.54-.24-.16 0-.49-.08-.41-.32a1.16 1.16 0 01.73-1.14c.57.16 1.14.48 1.63 0 .24-.24.89-.24.81.25M389.62 194.66c.08.25-.17.41 0 .57s.49.08.49.4c.07.08-.09.17-.17.25s-.32-.25-.49-.17c-.24.25-.24.82-.65.65a1.4 1.4 0 01-.08-1.13c.33-.24.49-1 .9-.57"/><path d="M355.08 196.53c-.08.48.73 1.05.09 1.29-.09-.08-.33.08-.41-.16a22.09 22.09 0 01-.08-2.51c.08-.08.24-.24.32-.08.24.48 0 1 .08 1.46" fill="#06884f"/><path d="M391.8 196c-.08.24-.24.48-.48.41s-.32-.17-.41-.33a.71.71 0 01.16-.57c.41-.16.57.33.73.49"/><path d="M359.46 197.34c-.49.32-1.06-.08-1.46-.25s-.81-.56-.49-.89c.65.49 1.87.17 1.95 1.14M380.7 196.85v.08a.66.66 0 01-.66-.08c0-.32.57-.32.66 0M378.27 197c.08 1-.57 2.11.16 3 0 .16 0 .33-.16.41-.74-.49-.65-1.54-1-2.35a.93.93 0 011-1.06M382.89 197.9a17.83 17.83 0 01-.08 2.11c-1.22-.24-.49-1.86-.89-2.67.4-.81.89.16 1 .56" fill="#06884f"/><path d="M410.12 197.82a.63.63 0 01-.16-.65h.04c0 .17.25.41.08.65" fill="#fff"/><path d="M384.26 197.74a10.21 10.21 0 01-.16 2.27.26.26 0 01-.33 0 7 7 0 01-.32-2.59c.32-.41.81 0 .81.32M407.2 197.42c.17.73 0 1.37.17 2a2.27 2.27 0 01-.66.16c-.48-.65 0-1.46-.24-2.19a.45.45 0 01.73 0M380.05 198.23a1 1 0 01-.41.89c-.56-.16-.4-.81-.4-1.29s1.06-.17.81.4M387 200.66a1.3 1.3 0 01-.33.4c-.32.09-.24-.32-.32-.48a11.48 11.48 0 01.16-2.92c.9.57.49 2 .49 3M405.66 200.09h-.16c.09-.64-.16-1.62.24-2.27-.08.73.25 1.63-.08 2.27M385.31 198.63c.66.73.41 2 .41 2.84-.08-.41-.56-.57-.89-.73.16-.89-.16-2 .4-2.75.25.16-.07.48.08.64M381.67 198.47a6.08 6.08 0 010 2.44c-.16.16-.49.08-.73.08l-.08-.17c.08-1-.49-2.1.24-2.75.25-.08.49.16.57.4M404.77 199.52a.08.08 0 01-.08.09 1.41 1.41 0 01-.25-1.38c.09-.08.25-.24.41-.16l.08.08z" fill="#06884f"/><path d="M358.48 199.61a1.52 1.52 0 01-.16-1.3c.41.24.08.81.16 1.3" fill="#fff"/><path d="M403 198.55a1.06 1.06 0 01-.16 1 .88.88 0 01-.84-.55c0-.24-.25-.57.08-.65s.73-.08.89.24M357.51 198.55c-.08.25-.24.65-.65.49-.07-.08-.24-.32-.07-.49a.39.39 0 01.72 0" fill="#06884f"/><path d="M374.61 198.63c-.16.17-.32.09-.4-.08 0-.32.32-.08.4.08" fill="#fff"/><path d="M376.73 199c-.08.16 0 .4-.16.4-.34.09-.58-.32-.66-.57-.08-.07 0-.24.08-.32.24 0 .49.33.74.49M399.26 198.88c0 .24.16.8-.16 1-.41 0-.73-.4-.9-.81.08-.16-.07-.41.16-.48a1.06 1.06 0 01.9.32M400.72 199.36c-.08.09-.08.25-.17.41-.48-.09-.32-.65-.48-1 .32-.4.65.25.65.57M397.64 198.8c.08.08 0 .08-.09.16-.07-.08-.16-.16-.07-.24s.16 0 .16.08M388.8 199.36c0 .65.09 1.54-.4 1.95a.79.79 0 01-.65-.57 3.87 3.87 0 01.24-2 1 1 0 01.81.57M389.86 198.88c0 .73.48 1.54.08 2.27-1.06-.08-.33-1.38-.49-2 .08-.16.17-.4.41-.24M391.8 199.69c-.16.48.08 1.13-.48 1.37-.9-.07-.25-1.29-.49-1.94.32-.49.81.24 1 .57M394.72 199.77a.62.62 0 01-.49.57c-.32.16-.4-.25-.48-.49a.71.71 0 01.16-.57.56.56 0 01.81.49M393.1 199.85c0 .32 0 .73-.33.73a.44.44 0 01-.4-.24c0-.25-.16-.73.16-1s.49.25.57.49M395.53 199.85c-.08.16-.24.08-.33-.08l.09-.24c.16 0 .24.16.24.32M376.8 201c-.57.9-1.62.81-2.51 1.06-.32-.41.49-.49.49-1 .08-.24-.33-.4-.17-.72.74.08 2.44-1.06 2.19.64" fill="#06884f"/><path d="M366.27 200.74c-.08.24-.41.08-.49.08-.24-.16-.24-.32-.08-.48s.41.24.57.4" fill="#fff"/><path d="M371.45 201.88c.25.81-.72.89-1.13 1.3-.32 0-.16-.33-.32-.49.07-.65.89-.65 1-1.22.32-.08.41.24.48.41M380.7 202.2c0 .16-.09.41-.25.41-.32.08-.41-.25-.56-.41v-.32c.32.08.65.08.81.32M367.81 202.52c-.08.33-.41.49-.73.66s-.24-.33-.16-.49a.64.64 0 01.89-.17" fill="#06884f"/><path d="M374.78 203.74c0 .33-.08.57-.4.65-.25-.08-.66-.08-.73.32a1.06 1.06 0 00.64 1.06c.16.08.57.16.41.48a2 2 0 01-1.54.41c.4-.32.32-.9.24-1.3s-.56-.24-.73-.49a1.75 1.75 0 01.81-1.94c.41.08.65.65 1.22.65zM388 204.8l-.08.07v-.32c0 .09.16.16.08.25M357.82 131.45a2.78 2.78 0 010 2.51c-1.38.24-2.59 1.21-4.14 1.38l-.16-.17c.49-.81 1.22-1.29 1.38-2.26.25-.17.65-.49.65-.9-.65-.4-1.3.41-1.95.49-.32.41-.81.89-1.3.73-1.21-.25-1.61-1.62-1.86-2.51.57.16.65.89 1 1.29.33.17.5.57.89.49l.17-.16c-.17-.73-.65-1.55-.4-2.35.65.16.4.88.81 1.29.81.33-.16.89.24 1.38.49-.08.4-.89 1-.81a1.9 1.9 0 001.62-.57c.66-.16 1.38.73 1.71-.08-.49-.33-1.22-.33-1.46-.89" fill="#fff"/><path d="M381.64 179.5a1.23 1.23 0 010 1.46c-.24.24-.24.48-.49.64-.64-.07-1-2-1.79-.64a.25.25 0 01-.32-.16c-.08-.49.73-.9.08-1.22-.73.32-.73-1.14-1.29-.49-.08.65.4 1.22 0 1.71-.57 0-1.06-1.22-1.71-.65.08.4.65.65.49 1.13-.49.73-1.86-.41-2 .65.39.4 1.13.16 1.53.4.33.49-.64 1 .16 1.3a1.6 1.6 0 01.66-.16c.32.81 1.7.16 2 1.14.16.08.49.08.4.32-.24.16-.48.16-.64.4.32.73 1.13 0 1.78.24.49.17 1.06.33 1.22.9a3.85 3.85 0 01.16 2.51c-.57.16-1-.24-1.54-.16-3.24 0-6.89-2-9.81 0-.48.48-1.78.57-1.46 1.54l.73.49c-.24.24-.57 0-.81-.09s-.24-.64-.4-1c1.13-1.06 2.51-1.87 3.73-2.83 1.78-.25 3.4.32 5.18.4.89.16 1.78 1.3 2.68.49-.41-.49-1.22-.41-1.71-.9-.56.08-.89-.24-1.29-.48a20.09 20.09 0 00-3.08-.25c-.9-.64-2.19-.48-3.33-.48.66-.73 1.79-.41 2.6-1 .48 0 1.05.49 1.54.17 0-.49-.57-.65-.81-.81a8.58 8.58 0 00-3.24.08c.32-1.06 2.11.32 2.27-1-.57-.4-1.46 0-1.78-.48.64-.4 1.94 0 2-.89a1.57 1.57 0 00-1.05-.33c.08-.73 1.13-.08 1.3-.89-.25-.33-.74-.16-.74-.57.16-.16.66-.08.66-.4 0-.49-.66-.33-.57-.82 1-.24.16-1.37 1.3-1.46.8-.4 1.78.09 2.51-.4" fill="#ff3516"/><path d="M379.09 173c-.16 1.29-1 2.26-.89 3.72-.32.08-.65.49-1 .16.56-1.62-.33-4 1.38-4.94zM381.45 173.72a12.81 12.81 0 00-.41 3.41.39.39 0 01-.64.16c-.57-.49-.16-1.38-.25-2 .09-.73-.4-1.46 0-2.11.41.33 1.14.08 1.3.57" fill="#aa4e32"/><path d="M427.87 213.51a28.14 28.14 0 01-1.87-3.71" fill="none" stroke="#000" stroke-width=".5"/><path d="M374.52 239.37c-.6-4.1-2.51-8.62-15.14-8.17 0 0-1.41.38-3.58.75a6 6 0 01-6.08-3.9c-.37-1.68-1.68.37-2.79 2s-3.35 2.34-5.35 2.39a14.63 14.63 0 01-4.31-1.29c-7.62-3.7-18.95-11.33-20.06-18.76 0 0-2.23-13 5.57-8.92.92-5-3.16-6.69-7.06-5.2-.37-3.89-2-4.26-3.9-4.64.93 4.28-.38 5.2-.38 5.2-3.34-5.94-5.76-15.23-2.41-21.55v-.25a5.36 5.36 0 001.51.23 5 5 0 10-3.82-8.2c-1.56 1.47-3.78 5-4.91 13.61-1.85 14.11 4.64 38.64 18.95 46.45 7.06 3.7 13.93 6.87 13.93 6.87l-.92 1.85a91 91 0 0013.19 2.79 11.26 11.26 0 00.74 3.17c.56 1.11.93 3 2.79.36s8.73-9.47 15.23-5l.15.1a5 5 0 108.67.08zm-63.08-102.93v0a5.09 5.09 0 00-1.3-.17 5 5 0 100 10 5.51 5.51 0 001.36-.19c1.2 3 .68 8.63-.56 11.78a4.9 4.9 0 00-1.91-.39 5 5 0 102.65 9.22c3.95-1.21 6.6-4.55 7.56-13.9 1.12-10.79-3.34-15.04-7.8-16.35zm.3-17.53a4.19 4.19 0 002.36.72 4.29 4.29 0 00.13-8.58l.18-.06-.58.07a4.11 4.11 0 00-1 .18c-3.85.86-7.87 3.81-9 11.64-1.3 8.93 2.22 12.45 7.8 13.39v-.15h.62a4.29 4.29 0 100-8.57 4 4 0 00-1.2.17c-.21-.9-1.21-5.8.7-8.85zm25.32-18.14a5 5 0 10-9.06 2.83 9.35 9.35 0 01-6.92 2.67 4.68 4.68 0 00.05-.67 5 5 0 10-7.55 4.29c2.11 1.88 6.31 4 13.52 1.65 7.5-2.44 9.39-6.13 9.7-9a5.2 5.2 0 00.26-1.77zm37-.78c0-6.68-3.63-14.41-20.46-13.71-17.65.74-17.1 13.93-16.17 18.59h.05a4.47 4.47 0 105.85-5.47l1.17-1.56a9.31 9.31 0 003 3.16c1.85 1.12 2.6-2.6 2.6-2.6 7.06-9.28 17.09-1.67 17.09-1.67l.13.08a4.47 4.47 0 106.81 3.81 5.65 5.65 0 000-.59zm11.6 139.38c.6-4.1 2.5-8.62 15.14-8.17 0 0 1.4.38 3.58.75a6 6 0 006.07-3.9c.38-1.68 1.67.37 2.79 2s3.36 2.34 5.35 2.39a14.54 14.54 0 004.31-1.29c7.62-3.7 18.95-11.33 20.07-18.76 0 0 2.23-13-5.57-8.92-.93-5 3.15-6.69 7.06-5.2.37-3.89 2-4.26 3.9-4.64-.93 4.28.37 5.2.37 5.2 3.34-5.94 5.76-15.23 2.41-21.55v-.25a5.18 5.18 0 01-1.5.23 5 5 0 113.82-8.2c1.57 1.47 3.79 5 4.91 13.61 1.86 14.11-4.64 38.64-18.94 46.45-7.07 3.7-13.94 6.87-13.94 6.87l.93 1.85a91.31 91.31 0 01-13.2 2.79 11.26 11.26 0 01-.74 3.17c-.55 1.11-.93 3-2.78.36s-8.73-9.47-15.24-5a.71.71 0 01-.14.1 5 5 0 11-8.67.08zm63.07-102.93v0a5.17 5.17 0 011.31-.17 5 5 0 010 10 5.45 5.45 0 01-1.36-.19c-1.21 3-.68 8.63.55 11.78a4.88 4.88 0 011.92-.39 5 5 0 11-2.65 9.22c-4-1.21-6.6-4.55-7.57-13.9-1.11-10.77 3.34-15 7.8-16.35zm-.29-17.53a4.19 4.19 0 01-2.36.72 4.29 4.29 0 01-.14-8.58l-.18-.06.58.07a4.11 4.11 0 011 .18c3.86.86 7.87 3.81 9 11.64 1.3 8.93-2.23 12.45-7.8 13.39v-.15a6.06 6.06 0 01-.62 0 4.29 4.29 0 110-8.57 4.07 4.07 0 011.21.17c.2-.9 1.21-5.8-.7-8.85zm-25.33-18.14a5 5 0 119.11 2.83 9.36 9.36 0 006.92 2.67 4.68 4.68 0 01-.05-.67 5 5 0 117.54 4.29c-2.1 1.88-6.3 4-13.51 1.65-7.51-2.44-9.39-6.13-9.69-9a4.75 4.75 0 01-.32-1.73zm-37-.78c0-6.68 3.63-14.41 20.46-13.71 17.66.74 17.1 13.93 16.17 18.59h0a4.47 4.47 0 11-5.85-5.47l-1.17-1.56a9.31 9.31 0 01-3 3.16c-1.86 1.12-2.6-2.6-2.6-2.6-7.06-9.28-17.1-1.67-17.1-1.67l-.12.08a4.47 4.47 0 11-6.81 3.81 3.81 3.81 0 010-.59zm-6 12.68a10.84 10.84 0 014.45-7c-3.61-3.33-.83-10.86-.83-10.86-1.39-1.39-3.62-6.41-3.62-6.41s-2.23 5-3.63 6.41c0 0 2.79 7.53-.83 10.86a10.83 10.83 0 014.45 7zm0 120.68a7 7 0 014.74 2.23s-5 7.52.27 10.87c-2.22 1.11-4.46 2.22-5 5-.56-2.79-2.79-3.9-5-5 5.3-3.35.28-10.87.28-10.87a7 7 0 014.73-2.23z" fill="#ffb30f" stroke="#000" stroke-width=".5"/></svg>