<svg xmlns="http://www.w3.org/2000/svg" width="600" height="334"><path fill="#fff" stroke="#50d6cc" stroke-linecap="round" stroke-linejoin="round" d="M59.83 1.23h505.58v303.35H59.83z"/><path d="M251.92 273.73v-1.37h1.16a2.41 2.41 0 001.46-.3c.24-.19.35-.73.35-1.59v-10.7c0-.85-.11-1.38-.35-1.58a2.49 2.49 0 00-1.46-.3h-1.16v-1.35h8.48v1.35h-1.16a2.44 2.44 0 00-1.46.3c-.23.21-.35.73-.35 1.58v10.7q0 1.29.36 1.59a2.34 2.34 0 001.46.3h1.15v1.37zM261.87 256.54h8.45v1.35h-1.27a2.46 2.46 0 00-1.48.3c-.23.2-.35.72-.35 1.57v12.6h4.1a9 9 0 002.88-.35 2.39 2.39 0 001.42-1.15 4.86 4.86 0 00.49-1.56 15 15 0 00.15-2.34v-.37h1.34v7.14h-15.74v-1.37h1.06a2.47 2.47 0 001.47-.3c.24-.19.36-.73.36-1.59v-10.7c0-.85-.12-1.38-.36-1.58a2.5 2.5 0 00-1.47-.3h-1.05v-1.35zM279.39 256.54h8.45v1.35h-1.27a2.44 2.44 0 00-1.48.3c-.24.2-.36.72-.36 1.57v12.6h4.11a9.06 9.06 0 002.88-.35 2.42 2.42 0 001.42-1.15 4.86 4.86 0 00.49-1.56 15 15 0 00.15-2.34v-.37h1.34v7.14h-15.73v-1.37h1.05a2.47 2.47 0 001.47-.3c.24-.19.36-.73.36-1.59v-10.7c0-.85-.12-1.38-.35-1.58a2.56 2.56 0 00-1.48-.3h-1.05zM297 273.73v-1.37h1.16a2.41 2.41 0 001.46-.3c.24-.19.35-.73.35-1.59v-10.7c0-.85-.11-1.38-.35-1.58a2.49 2.49 0 00-1.46-.3H297v-1.35h8.48v1.35h-1.16a2.44 2.44 0 00-1.46.3c-.23.21-.34.73-.34 1.58v10.7c0 .86.11 1.39.35 1.59a2.34 2.34 0 001.46.3h1.15v1.37zM324.16 273.8H322l-10.53-14.93v11.6c0 .86.12 1.39.35 1.59a2.36 2.36 0 001.46.3h1.29v1.37h-7.64v-1.37h1a2.47 2.47 0 001.47-.3c.24-.19.36-.73.36-1.59v-10.68q0-1.29-.36-1.59a2.45 2.45 0 00-1.47-.31h-1v-1.35h5.77l9.75 13.82V259.8c0-.86-.11-1.39-.35-1.6a2.41 2.41 0 00-1.46-.3h-1.37v-1.35h7.57v1.35H326a2.41 2.41 0 00-1.46.3c-.24.21-.35.74-.35 1.6v14zM331.3 265.12a8.44 8.44 0 001.75 5.59 6.27 6.27 0 009.35 0 9.74 9.74 0 000-11.17 6.31 6.31 0 00-9.35 0 8.43 8.43 0 00-1.75 5.58zm-2.79 0a9.39 9.39 0 01.73-3.72 8.78 8.78 0 012.11-3 8.59 8.59 0 012.87-1.74 10.4 10.4 0 017 0 8.59 8.59 0 012.87 1.74 8.77 8.77 0 012.12 3 10 10 0 010 7.46 8.9 8.9 0 01-2.12 3 8.59 8.59 0 01-2.87 1.74 10.4 10.4 0 01-7 0 8.59 8.59 0 01-2.87-1.74 8.82 8.82 0 01-2.11-3 9.42 9.42 0 01-.73-3.74zM348.74 273.73v-1.37h1.16a2.41 2.41 0 001.46-.3c.24-.19.35-.73.35-1.59v-10.7c0-.85-.11-1.38-.35-1.58a2.49 2.49 0 00-1.46-.3h-1.16v-1.35h8.48v1.35h-1.16a2.44 2.44 0 00-1.46.3c-.23.21-.35.73-.35 1.58v10.7q0 1.29.36 1.59a2.34 2.34 0 001.46.3h1.15v1.37zM359.08 273.73v-7.12h1.42a7.23 7.23 0 002.1 4.41 6 6 0 004.28 1.6 4.69 4.69 0 003-.88 2.84 2.84 0 001.12-2.34 2.36 2.36 0 00-.85-1.93 7.93 7.93 0 00-3.12-1.2l-2.12-.46a10.72 10.72 0 01-4.61-1.81 4.12 4.12 0 01-1.16-3.17 4.17 4.17 0 011.67-3.47 7.26 7.26 0 014.53-1.29 7.65 7.65 0 012.67.47 8.73 8.73 0 012.44 1.45l.76-1.56h1.2v6.51H371a6.45 6.45 0 00-1.78-4 5.39 5.39 0 00-3.87-1.39 5 5 0 00-3 .77 2.49 2.49 0 00-1.06 2.14 2.14 2.14 0 00.84 1.75 6.33 6.33 0 002.65 1l2.47.51a10.47 10.47 0 014.67 1.84 4.15 4.15 0 011.36 3.32 4.84 4.84 0 01-1.76 3.88 6.89 6.89 0 01-4.61 1.5 7.82 7.82 0 01-3-.59 8.62 8.62 0 01-2.67-1.83l-.84 1.91h-1.32z" fill="#50d6cc"/><path d="M349.07 185.53s7.08 13.82 9.33 13.83 9.11.65 11.55.67 6.24-1.12 10.14-.57 5.92.59 8.45 0c2.21-.49 7.44.39 10.24.75 3.9-3.85 9.6-14.42 9.6-14.42l-59.23-.28M224.49 191.42h-13m18.51 7.86c-2.63.8-9-.52-11.41.36M376.19 193.69a4.4 4.4 0 016.08.24M386.86 194.09a4.37 4.37 0 016.09.24M391.07 191.14a4.4 4.4 0 016.08.24M389.79 189a4.43 4.43 0 016.09.24M361.46 189.92a4.42 4.42 0 016.09.23M367.76 195a4.4 4.4 0 016.09.23M359.5 197.16a4.4 4.4 0 016.09.24M393.69 196.06a4.4 4.4 0 016.08.22M370.85 190.37a4.42 4.42 0 016.09.24M355.6 188.71a4.41 4.41 0 016.09.23M366.94 192.87a4.41 4.41 0 016.09.24M382.13 191.75a4.39 4.39 0 016.08.23M385.72 197.33a4.42 4.42 0 016.09.22M382.5 188.5c.83-.67 2.56-2.26 5.26.23M364.4 188.33c.82-.67 3-2.25 5.7.25M397.76 188.66c.82-.67 2.55-2.25 5.25.23M379 196.19c.83-.67 2.57-2.26 5.26.24M377.46 189.41c.83-.68 2.57-2.26 5.26.23M372.26 188.46c.26-.71 1.38-2.6 3.26.27M359.13 192.18c.83-.68 2.55-2.25 5.26.23M367.38 198c1.26-1 2.95-1.92 5.26.22M360.71 194.6c1.25-1 2.93-1.91 5.26.23M394.22 193.26c1.25-1 2.93-1.91 5.26.23M396.47 190.77c1.26-1 2.94-1.91 5.26.23M374.86 198.23c.83-.68 2.56-2.26 5.25.23M218.19 193.89a4.4 4.4 0 016.09.24M222 197.28c.83-.68 2.57-2.26 5.26.23" fill="none" stroke="#50d6cc" stroke-width=".58"/><path d="M298.4 178.83l1.65-5.35 1.28-1.65 9.73 1.29 14.31 3.13 7.62 1.4 12.2 20.69 12.48.92-11.36 13.16H308.5l-7-3.72-10.5-9.49 14.82-11.89-7.45-8.49z" fill="#fff"/><path d="M325 176c2.35-.4 12.41-1.18 15.41 4.58h-1.32c1.55.1 8.22-1.78 10.93 6.23a4.4 4.4 0 00-1.83-.28s6.48-.68 10.23 12c.65 2.35-8.36-.85-13.24.75m13.19-.22c2 .74 2.4 4.18 3.43 5.24s3.38 2.44 3.19 4.23-3 4.34-5.55 4.91-9.49-1.24-12.11-1-10.43 2.64-14.75 2.54-8.73-2-12.39-1.89-10.05.56-11.92-.68m-3.58-2.73a7.64 7.64 0 015.17-9.61 34.86 34.86 0 014-1c1.45-.45 2.59-.89 3.63-.53s2 2.66 5.58 3.12m2-16.6c-1.22-.1-2.16-2.26-5.07-1.89s-7.25 3.3-7.9 7.17-.71 5.42 2 8.43" fill="#fff" stroke="#50d6cc" stroke-width=".58"/><path d="M322.26 189.89v5.16a.46.46 0 00.49.52h.67v.92h-4.23v-.92h.71a.46.46 0 00.49-.52v-3.37h-1.17v-.92h.27a1.31 1.31 0 001.37-.87h1.4M330.53 191.38c0 .7-.52 1-1.12 1.24a1.94 1.94 0 011.47 1.9c0 1.66-1.48 2.13-3.05 2.13-1.19 0-2.95-.24-2.95-1.8a1.61 1.61 0 011.26-1.62 1.68 1.68 0 01-1-1.41c0-1.68 1.43-2.09 2.85-2.09 1.01 0 2.54.33 2.54 1.65zm-3.55 2.3a1.23 1.23 0 00-.79 1c0 1 .89 1.18 1.67 1.18.58 0 1.34-.2 1.34-.9 0-.31-.18-.53-1-.81zm1.85-1.61a.73.73 0 00.4-.7c0-.68-.73-.84-1.27-.84s-1.16.13-1.16.74a.54.54 0 00.41.52l1.34.47.28-.19M333.57 193a2.42 2.42 0 011.67-.5 2 2 0 012.24 2c0 1.55-1.38 2.2-2.77 2.2a2.83 2.83 0 01-3.14-3.17c0-2.23 1-3.75 3.41-3.75.85 0 2.22.43 2.22 1.38 0 .68-.39.95-1.07.95a.79.79 0 01-.85-.72.64.64 0 01.42-.64 1 1 0 00-.55-.16c-1.12 0-1.58.81-1.58 1.81v.6zm.12 1.61c0 .84.34 1.22.89 1.22s.9-.38.9-1.22-.34-1.23-.9-1.23-.89.38-.89 1.23M343.81 191.38c0 .7-.53 1-1.12 1.24a1.94 1.94 0 011.47 1.9c0 1.66-1.5 2.13-3.06 2.13-1.19 0-3-.24-3-1.8a1.61 1.61 0 011.27-1.62 1.67 1.67 0 01-1-1.41c0-1.68 1.43-2.09 2.84-2.09 1.08 0 2.6.33 2.6 1.65zm-3.56 2.3a1.25 1.25 0 00-.79 1c0 1 .89 1.18 1.68 1.18.58 0 1.33-.2 1.33-.9 0-.31-.18-.53-1-.81zm1.86-1.61a.73.73 0 00.4-.7c0-.68-.73-.84-1.28-.84s-1.15.13-1.15.74a.54.54 0 00.41.52l1.34.47.28-.19M332.36 202.35v5.16c0 .31.15.53.48.53h.67v.96h-4.22v-1h.71c.33 0 .48-.22.48-.53v-3.37h-1.17v-.92h.27a1.32 1.32 0 001.37-.87h1.41M340.63 203.83c0 .71-.52 1-1.12 1.24A2 2 0 01341 207c0 1.67-1.49 2.14-3.05 2.14-1.19 0-2.95-.25-2.95-1.81a1.6 1.6 0 011.27-1.61 1.67 1.67 0 01-1-1.4c0-1.68 1.43-2.1 2.84-2.1 1.05 0 2.58.32 2.58 1.64zm-3.56 2.3a1.26 1.26 0 00-.79 1c0 .94.89 1.17 1.68 1.17.57 0 1.33-.2 1.33-.89 0-.31-.18-.54-1-.82l-1.25-.46zm1.85-1.59a.74.74 0 00.4-.71c0-.67-.73-.83-1.28-.83s-1.15.11-1.15.74a.52.52 0 00.41.5l1.34.47.28-.17M345.63 202.35v5.16c0 .31.15.53.48.53h.67v.96h-4.22v-1h.72c.33 0 .48-.22.48-.53v-3.37h-1.17v-.92h.27a1.31 1.31 0 001.36-.87h1.42M353.9 203.83c0 .71-.52 1-1.12 1.24a2 2 0 011.47 1.9c0 1.67-1.49 2.14-3.06 2.14-1.18 0-2.94-.25-2.94-1.81a1.6 1.6 0 011.27-1.61 1.67 1.67 0 01-1-1.4c0-1.68 1.43-2.1 2.84-2.1 1.05 0 2.57.32 2.57 1.64zm-3.55 2.3a1.25 1.25 0 00-.8 1c0 .94.9 1.17 1.68 1.17.58 0 1.34-.2 1.34-.89 0-.31-.19-.54-1-.82l-1.25-.46zm1.84-1.59a.74.74 0 00.41-.71c0-.67-.73-.83-1.27-.83s-1.16.11-1.16.74a.51.51 0 00.41.5l1.33.47.28-.17" fill="#50d6cc"/><path d="M292.15 165.21c1.41 4.36 10.46 16.89 22.64 16.6-.66 3.54-18.05 39.19-64.62 41.7-13.13-44.36 11.08-72.19 19.35-74.88 2.77 11.26 18.14 16.36 22.63 16.58z" fill="#fff" stroke="#50d6cc" stroke-width=".64"/><path d="M290.92 167.16c1.28 4 5.72 22.34 13.09 28.38-2.88 3-21.42 23.69-51.44 24.89-9.72-30.32 2.53-52.22 6.71-59.23 9.53 7 27.53 5.76 31.63 6" fill="#fff"/><path d="M268.17 151.62c4.89 10.6 17.95 14.33 22.69 15.37 1.6 8 17.36 17.65 20.86 16.87-.61 4.33-8.87 13.34-11.61 15.75-.05-.05-44-32.22-44-32.24 1.23-3.72 9.31-15.68 12.08-15.75M295.82 199.89s-5.54 7.73-5.54 7.72c1.1-.74 6-4.49 7.91-6-.03-.03-2.35-1.73-2.37-1.72zM254.92 170c-2.87 6.43-3 7.77-4.56 13.83l8-11.26zM261 174.4L249.12 191a41.7 41.7 0 00-.14 9.49l16.42-22.92zM268 179.45l-18.67 26.07a67.26 67.26 0 001.25 7.59l21.78-30.43zM281.9 189.66l-21.56 30.15c1.3-.22 6.79-1.29 7.93-1.9l18-25zM275 184.63l-23.39 32.64c.21.64.78 2.16 1 3.11a12.73 12.73 0 003.54-.27l23.16-32.32zM288.88 194.78l-15.43 21.6c1.74-.48 8.78-4.1 9.92-4.71l9.88-13.67z" fill="#fff" stroke="#50d6cc" stroke-width=".64"/><path fill="#50d6cc" d="M264.75 163.49l.61 1.63.45-1.58 1.6.07-1.34-.98.46-1.6-1.36.93-1.37-1 .58 1.54-1.35.92 1.72.07zM271.87 162.98l.61 1.63.46-1.58 1.6.07-1.34-.99.45-1.59-1.36.93-1.36-1 .57 1.54-1.35.92 1.72.07zM267.53 169.54l.45-1.59-1.36.93-1.36-1 .57 1.53-1.34.92 1.71.08.61 1.63.46-1.59 1.6.07-1.34-.98zM274.67 170.03l1.6.07-1.34-.98.46-1.59-1.37.92-1.36-.99.58 1.53-1.35.92 1.72.07.61 1.63.45-1.58zM281.43 169.85l.61 1.63.46-1.58 1.6.07-1.34-.98.45-1.6-1.36.93-1.36-1 .57 1.54-1.35.92 1.72.07zM291.1 176.91l.6 1.62.46-1.58 1.6.07-1.34-.98.46-1.59-1.37.93-1.36-1 .57 1.53-1.34.92 1.72.08zM284.19 178.83l.45-1.58 1.6.07-1.34-.98.46-1.6-1.36.93-1.37-1 .58 1.54-1.35.92 1.72.07.61 1.63zM277.31 176.57l.45-1.59-1.36.93-1.36-1 .57 1.53-1.34.92 1.72.08.61 1.63.45-1.59 1.6.07-1.34-.98zM286.83 183.67l.46-1.59-1.36.93-1.37-1 .58 1.53-1.35.92 1.72.08.61 1.62.45-1.58 1.6.07-1.34-.98zM293.49 185.56l.45-1.58 1.61.06-1.35-.98.46-1.59-1.36.93-1.37-1 .58 1.54-1.35.91 1.72.08.61 1.63zM299.59 183.25l.61 1.63.45-1.58 1.61.07-1.34-.99.45-1.59-1.36.93-1.37-1 .58 1.54-1.35.92 1.72.07zM295.47 189.99l.46-1.59-1.37.93-1.36-1 .57 1.54-1.34.91 1.71.08.61 1.63.46-1.59 1.6.07-1.34-.98zM302.39 190.3l1.6.07-1.34-.99.46-1.59-1.37.93-1.36-1 .57 1.54-1.34.92 1.72.07.61 1.63.45-1.58z"/><path d="M369.48 179.19s-7.85-3.88-8.69-4.24a8.69 8.69 0 00-2.81-.29s.17 1.72.93 2.07 10 3.69 10 3.69m1.22-2.4s-6.21-3.73-7.65-4.48a6.62 6.62 0 00-3.38-.52s.91 1.64 1.69 2 8.69 4.19 8.69 4.19M399 185s4.59-.64 5.86-.85 3.49-3.1 3.49-3.1-2.44-1.39-3.77-1.15-13 3.67-13 3.67 12.82-3.34 14-3.75 2.63-2.84 2.63-2.84a6.45 6.45 0 00-3-.28L391 181.56s14.61-4.85 15.78-5.44 2.64-3.12 2.64-3.12a6.4 6.4 0 00-2.63-.1c-.38.2-6.24 2.91-10.75 5.36 4-1.95 8.87-4.34 9.9-4.9 1.79-.93 5.36-5.65 5.36-5.65a18.33 18.33 0 00-4.41 1c-1 .6-16.68 10.74-16.68 10.74s17-10.78 18.41-11.67 3-4.72 3-4.72-2.74.16-3.8.93l-18.46 13.81s18.67-14 19.88-14.94 2.39-4.66 2.39-4.66-2.73-.15-3.84.67S388.6 177 388.6 177s19.76-18.81 21.33-20.21 3.21-5.47 3.21-5.47-3 .57-3.91 1.6-21.29 23.57-21.29 23.57 23-25.66 24.16-26.86 1.9-4.83 1.9-4.83a14.86 14.86 0 00-4 2.42c-1.17 1.23-22.94 28.5-22.94 28.5l22.29-27.8a13.17 13.17 0 001.87-4.72s-2.88 1-4.08 2.6-20.78 29.32-20.78 29.32 16.35-23.31 16.88-24 .57-3.11.57-3.11a4.86 4.86 0 00-2.12 1.22c-.56.84-15.89 25.4-15.89 25.4s16.58-26.48 17.16-27.48a5.92 5.92 0 00.38-2.91 4.48 4.48 0 00-2 1.13c-.63.78-16.18 28.93-16.18 28.93s17-30.55 17.55-31.48.56-3.87.56-3.87a7.67 7.67 0 00-2.91 1.66c-.82 1-15.76 33.47-15.76 33.47s16.25-34.47 17.17-36.54a19 19 0 001.13-5.37 5.12 5.12 0 00-2.77 1.61c-.65 1-16.52 39.68-16.52 39.68L401.13 131l.57-4.25s-3.43 2.28-3.95 3.86c-.25.8-6.66 19.05-10 29.64 3.52-10.53 9.7-28.69 9.9-29.16a8.21 8.21 0 000-3.2s-2.37 2-2.78 3.39c-.18.62-4.58 15.78-7.2 25.51 2-6.78 5.32-18.73 5.5-19.29.47-1.4-.36-4.05-.36-4.05a12.77 12.77 0 00-1.88 4c-.38 1.62-5.51 23.7-7.56 32.52 2-8.18 6.61-28.65 7-30.06.43-1.65-1-4.52-1-4.52s-1.63 1.48-1.79 2.63c-.11.83-2.84 18.7-4.37 28.72 1.69-10.27 4.21-29 4.37-30.13.22-1.6-1.21-4.63-1.21-4.63s-1.47 1.23-1.51 2-3.64 39.17-3.64 39.17 3.78-40.27 3.93-41.77-1.22-4.06-1.22-4.06a3.66 3.66 0 00-1.13 1.88c-.05.6-.89 18.38-1.5 31.13.8-13.26 1.53-32.32 1.6-33.59a6.47 6.47 0 00-1.31-3.75 5.29 5.29 0 00-1 3c-.12 2.34-.42 47.07-.42 47.07s.45-47.73.43-49.24-2.06-4.53-2.06-4.53a9.38 9.38 0 00-1.5 4.62l2.29 49.14s-1.81-42.21-2.11-44.42-2.63-4-2.63-4a14.56 14.56 0 00-.65 5.27c.19 2.82 3.55 31 3.55 31-1.33-10.92-3.08-25.41-3.19-26.31-.16-1.46-2.76-4.34-2.76-4.34a40.32 40.32 0 00.23 6.84c.27 1.38 6.54 36 6.54 36s-5.88-32.6-6.27-34.51a6.36 6.36 0 00-2.24-3.31 20.8 20.8 0 00.18 6.23c.29 1.4 7.48 31.6 7.48 31.6-.51-2.55-7.11-30.06-7.47-31.6a8.24 8.24 0 00-1.69-3 14.87 14.87 0 000 4.33c.4 1.27 8.52 30.57 8.52 30.57s-8.78-30.85-9.83-33.77c-.64-1.81-3.13-4.24-3.13-4.24a15.8 15.8 0 00.46 4.29c.37.88 6.66 18.07 10.28 27.54-3.86-10.36-11.21-30.11-11.54-31.07-.43-1.32-3.93-4.53-3.93-4.53s-.57 2.08-.1 3.11 17 38.9 17 38.9l-16.58-37.87c-1.08-2.45-4.88-4.44-4.88-4.44s.29 4.77 1.31 6.71 19.31 36 19.31 36-17-31.84-17.63-32.93-3.94-2.74-3.94-2.74.67 3.83 1.69 5.38c.73 1.12 16.66 26 16.66 26-5.08-8.09-14.85-23.54-15.54-24.24a25.72 25.72 0 00-4.27-2.6s1.88 5.15 3 6.6 19.05 24.92 19.05 24.92-17.77-23.42-18.7-24.32a10.16 10.16 0 00-3.75-1.74 32.68 32.68 0 003.09 5.66c1.32 1.54 17.82 21.17 17.82 21.17s-15.07-18.19-16.5-19.63a8.3 8.3 0 00-4.14-1.8 26.11 26.11 0 004 6.24c2.3 2.37 15.77 15.9 15.77 15.9M368.39 181.74s-11.85-2.42-13.38-2.69-6.71.41-6.71.41 4.92 2.59 7.32 2.74 12.3 1 12.3 1" fill="none" stroke="#50d6cc" stroke-width=".14"/><path d="M371.77 175.85s-11.61-12.32-12.94-13.25-4.42-.95-4.42-.95.29 2.86 1.78 3.86 14.81 11.2 14.81 11.2-7.19-5.64-8.44-6.57-4.05-.47-4.05-.47a21.56 21.56 0 003.43 3.68c1.4 1 8.22 4.67 8.22 4.67m-1.23 2.4s-9.42-3.51-11.12-4.07-7.43-.28-7.43-.28 3.16 2.63 4.65 3 13.38 2.69 13.38 2.69m-.47 1.47s-12.3-1.26-13.42-1.1a37.47 37.47 0 00-4.8 1.69 36.6 36.6 0 005 1c1.34 0 13.15-.65 13.15-.65" fill="none" stroke="#50d6cc" stroke-width=".14"/><path d="M388.18 185.52a8.2 8.2 0 10-16.4 0" fill="none" stroke="#50d6cc" stroke-width=".58"/><path d="M236.27 208.27a12.81 12.81 0 01-.71-4s-.21 3.39-1 4.68" fill="#fff" stroke="#50d6cc" stroke-width=".55"/><path d="M235.59 203.25c0 1.56.68 5 1.28 5.46" fill="#fff" stroke="#fff" stroke-width=".55"/><path d="M250.21 227.73a10.44 10.44 0 01-.58-3.23 11.73 11.73 0 01-.81 3.79" fill="#fff" stroke="#50d6cc" stroke-width=".55"/><path d="M249.67 223.67c0 1.25.54 4.05 1 4.41" fill="#fff" stroke="#fff" stroke-width=".44"/><path d="M298.18 236.62a12.8 12.8 0 00.58-4s.32 3.39 1.16 4.65" fill="#fff" stroke="#50d6cc" stroke-width=".55"/><path d="M298.69 231.58c0 1.56-.51 5-1.09 5.51" fill="#fff" stroke="#fff" stroke-width=".55"/><path d="M323.4 235.45a12.75 12.75 0 00.58-4s.32 3.39 1.16 4.66" fill="#fff" stroke="#50d6cc" stroke-width=".55"/><path d="M323.91 230.42c0 1.55-.51 5-1.09 5.5" fill="#fff" stroke="#fff" stroke-width=".55"/><path d="M238.7 214.33a12.87 12.87 0 00.58-4s.33 3.37 1.15 4.65" fill="#fff" stroke="#50d6cc" stroke-width=".55"/><path d="M239.21 209.28c0 1.57-.51 5.05-1.1 5.53" fill="#fff" stroke="#fff" stroke-width=".55"/><path d="M276.49 234.87a13.21 13.21 0 00.58-4s.32 3.39 1.16 4.67" fill="#fff" stroke="#50d6cc" stroke-width=".55"/><path d="M277 229.81c0 1.57-.51 5.06-1.09 5.52" fill="#fff" stroke="#fff" stroke-width=".55"/><path d="M351.05 240.17a12.92 12.92 0 01-.7-4s-.21 3.38-1 4.67" fill="#fff" stroke="#50d6cc" stroke-width=".55"/><path d="M350.39 235.16c0 1.55.67 5 1.26 5.45" fill="#fff" stroke="#fff" stroke-width=".55"/><path d="M285.83 238.52a11.46 11.46 0 01-.64-3.59s-.19 3-.91 4.21" fill="#fff" stroke="#50d6cc" stroke-width=".55"/><path d="M285.23 234c0 1.39.6 4.52 1.13 4.91" fill="#fff" stroke="#fff" stroke-width=".49"/><path d="M289.34 240.58a12.94 12.94 0 00.59-4s.31 3.38 1.15 4.65" fill="#fff" stroke="#50d6cc" stroke-width=".55"/><path d="M289.85 235.54c0 1.55-.51 5.05-1.08 5.51" fill="#fff" stroke="#fff" stroke-width=".55"/><path d="M295.65 238.76a12.38 12.38 0 01-.71-4s-.21 3.39-1 4.68" fill="#fff" stroke="#50d6cc" stroke-width=".55"/><path d="M295 233.75c0 1.56.67 5 1.26 5.47" fill="#fff" stroke="#fff" stroke-width=".55"/><path d="M293.94 247.36a13 13 0 01-.7-4s-.21 3.39-1 4.67" fill="#fff" stroke="#50d6cc" stroke-width=".55"/><path d="M293.28 242.33c0 1.55.67 5 1.26 5.46" fill="#fff" stroke="#fff" stroke-width=".55"/><path d="M311.85 234.76a11.7 11.7 0 01-.63-3.59s-.19 3.06-.91 4.22" fill="#fff" stroke="#50d6cc" stroke-width=".55"/><path d="M311.25 230.24c0 1.41.6 4.52 1.14 4.93" fill="#fff" stroke="#fff" stroke-width=".49"/><path d="M313.72 244.77a12.72 12.72 0 01-.71-4s-.21 3.38-1 4.67" fill="#fff" stroke="#50d6cc" stroke-width=".55"/><path d="M313.05 239.75c.05 1.55.67 5 1.27 5.45" fill="#fff" stroke="#fff" stroke-width=".55"/><path d="M307.33 242.24a12.78 12.78 0 00.58-4s.33 3.38 1.16 4.65" fill="#fff" stroke="#50d6cc" stroke-width=".55"/><path d="M307.84 237.19c0 1.56-.51 5.05-1.09 5.51" fill="#fff" stroke="#fff" stroke-width=".55"/><path d="M302.63 247.75a12.68 12.68 0 00.57-4s.33 3.37 1.17 4.64" fill="#fff" stroke="#50d6cc" stroke-width=".55"/><path d="M303.14 242.71c0 1.56-.51 5-1.09 5.51" fill="#fff" stroke="#fff" stroke-width=".55"/><path d="M303.44 234.61a10.09 10.09 0 00.47-3.24 12 12 0 00.94 3.76" fill="#fff" stroke="#50d6cc" stroke-width=".55"/><path d="M303.86 230.52c0 1.26-.41 4.09-.89 4.47" fill="#fff" stroke="#fff" stroke-width=".44"/><path d="M321.93 247.17a10.39 10.39 0 00.47-3.24 11.74 11.74 0 00.94 3.76" fill="#fff" stroke="#50d6cc" stroke-width=".55"/><path d="M322.35 243.08c0 1.26-.41 4.09-.88 4.45" fill="#fff" stroke="#fff" stroke-width=".44"/><path d="M317.81 234.28a10.32 10.32 0 00.47-3.24 11.62 11.62 0 00.94 3.76" fill="#fff" stroke="#50d6cc" stroke-width=".55"/><path d="M318.23 230.2c0 1.27-.41 4.08-.89 4.46" fill="#fff" stroke="#fff" stroke-width=".44"/><path d="M308.88 248.8a12.78 12.78 0 00.58-4s.32 3.37 1.16 4.65" fill="#fff" stroke="#50d6cc" stroke-width=".55"/><path d="M309.38 243.76c0 1.55-.51 5-1.09 5.5" fill="#fff" stroke="#fff" stroke-width=".55"/><path d="M316.86 249.17a12.65 12.65 0 00.57-4s.33 3.37 1.17 4.64" fill="#fff" stroke="#50d6cc" stroke-width=".55"/><path d="M317.37 244.13c0 1.56-.51 5.05-1.09 5.51" fill="#fff" stroke="#fff" stroke-width=".55"/><path d="M298.55 246.6a12.71 12.71 0 01-.7-4s-.22 3.39-1 4.68" fill="#fff" stroke="#50d6cc" stroke-width=".55"/><path d="M297.88 241.57c0 1.57.67 5 1.27 5.46" fill="#fff" stroke="#fff" stroke-width=".55"/><path d="M300.57 241.34a13 13 0 00.57-4s.33 3.38 1.17 4.65" fill="#fff" stroke="#50d6cc" stroke-width=".55"/><path d="M301.07 236.3c0 1.56-.5 5-1.08 5.51" fill="#fff" stroke="#fff" stroke-width=".55"/><path d="M287.65 244.89a12.92 12.92 0 01-.7-4s-.21 3.38-1 4.68" fill="#fff" stroke="#50d6cc" stroke-width=".55"/><path d="M287 239.86c0 1.57.66 5 1.26 5.48" fill="#fff" stroke="#fff" stroke-width=".55"/><path d="M281.74 242.64a13 13 0 00.57-4s.33 3.39 1.16 4.65" fill="#fff" stroke="#50d6cc" stroke-width=".55"/><path d="M282.25 237.6c0 1.56-.51 5-1.09 5.52" fill="#fff" stroke="#fff" stroke-width=".55"/><path d="M263.24 236.45a12.65 12.65 0 00.57-4s.33 3.39 1.16 4.66" fill="#fff" stroke="#50d6cc" stroke-width=".55"/><path d="M263.75 231.42c0 1.55-.51 5-1.09 5.5" fill="#fff" stroke="#fff" stroke-width=".55"/><path d="M270 239.47a13 13 0 01-.7-4s-.22 3.38-1 4.67" fill="#fff" stroke="#50d6cc" stroke-width=".55"/><path d="M269.29 234.45c0 1.55.67 5 1.26 5.46" fill="#fff" stroke="#fff" stroke-width=".55"/><path d="M272.68 240.61a13.15 13.15 0 00.58-4s.32 3.38 1.15 4.66" fill="#fff" stroke="#50d6cc" stroke-width=".55"/><path d="M273.18 235.57c0 1.56-.5 5.05-1.08 5.51" fill="#fff" stroke="#fff" stroke-width=".55"/><path d="M279.42 241.33a10.7 10.7 0 01-.57-3.23 11.69 11.69 0 01-.81 3.78" fill="#fff" stroke="#50d6cc" stroke-width=".55"/><path d="M278.89 237.25c0 1.27.53 4.08 1 4.44" fill="#fff" stroke="#fff" stroke-width=".44"/><path d="M282.4 236.4a12.62 12.62 0 01-.7-4s-.22 3.39-1 4.68" fill="#fff" stroke="#50d6cc" stroke-width=".55"/><path d="M281.74 231.38c0 1.56.67 5 1.26 5.46" fill="#fff" stroke="#fff" stroke-width=".55"/><path d="M269.68 230.28a12.7 12.7 0 00.58-4s.32 3.38 1.16 4.65" fill="#fff" stroke="#50d6cc" stroke-width=".55"/><path d="M270.19 225.24c0 1.56-.51 5-1.09 5.51" fill="#fff" stroke="#fff" stroke-width=".55"/><path d="M259.16 234a12.8 12.8 0 01-.7-4s-.21 3.39-1 4.68" fill="#fff" stroke="#50d6cc" stroke-width=".55"/><path d="M258.49 229c0 1.57.67 5 1.26 5.47" fill="#fff" stroke="#fff" stroke-width=".55"/><path d="M252.59 230a12.87 12.87 0 00.58-4s.32 3.39 1.16 4.65" fill="#fff" stroke="#50d6cc" stroke-width=".55"/><path d="M253.09 225c0 1.56-.51 5-1.08 5.51" fill="#fff" stroke="#fff" stroke-width=".55"/><path d="M261.32 229.7a13 13 0 01-.7-4s-.22 3.38-1 4.68" fill="#fff" stroke="#50d6cc" stroke-width=".55"/><path d="M260.66 224.67c0 1.56.66 5 1.26 5.46" fill="#fff" stroke="#fff" stroke-width=".55"/><path d="M265.84 229.21a10.44 10.44 0 00.47-3.25 11.88 11.88 0 00.95 3.77" fill="#fff" stroke="#50d6cc" stroke-width=".55"/><path d="M266.26 225.12c0 1.25-.41 4.09-.88 4.46" fill="#fff" stroke="#fff" stroke-width=".44"/><path d="M306.56 234.45a11.54 11.54 0 00.52-3.6s.29 3.05 1.05 4.19" fill="#fff" stroke="#50d6cc" stroke-width=".55"/><path d="M307 229.92c0 1.41-.46 4.54-1 5" fill="#fff" stroke="#fff" stroke-width=".49"/><path d="M314.24 234.33a12.83 12.83 0 00.58-4s.32 3.38 1.16 4.65" fill="#fff" stroke="#50d6cc" stroke-width=".55"/><path d="M314.75 229.28c0 1.55-.51 5.05-1.09 5.51" fill="#fff" stroke="#fff" stroke-width=".55"/><path d="M321.52 240.48a10.69 10.69 0 01-.56-3.24 11.69 11.69 0 01-.82 3.8" fill="#fff" stroke="#50d6cc" stroke-width=".55"/><path d="M321 236.4c0 1.27.54 4.06 1 4.43" fill="#fff" stroke="#fff" stroke-width=".44"/><path d="M329 245.47a9.46 9.46 0 01-.52-2.92 10.71 10.71 0 01-.74 3.43" fill="#fff" stroke="#50d6cc" stroke-width=".55"/><path d="M328.5 241.82c0 1.14.49 3.66.92 4" fill="#fff" stroke="#fff" stroke-width=".4"/><path d="M326 242.31a12.9 12.9 0 00.58-4s.33 3.38 1.16 4.65" fill="#fff" stroke="#50d6cc" stroke-width=".55"/><path d="M326.48 237.25c0 1.56-.51 5.06-1.08 5.52" fill="#fff" stroke="#fff" stroke-width=".55"/><path d="M329.74 235.35a12.62 12.62 0 01-.7-4s-.22 3.39-1 4.68" fill="#fff" stroke="#50d6cc" stroke-width=".55"/><path d="M329.07 230.32c0 1.57.67 5 1.26 5.48" fill="#fff" stroke="#fff" stroke-width=".55"/><path d="M316 240.64a12.75 12.75 0 00.58-4s.32 3.39 1.16 4.65" fill="#fff" stroke="#50d6cc" stroke-width=".55"/><path d="M316.53 235.6c0 1.56-.51 5-1.09 5.5" fill="#fff" stroke="#fff" stroke-width=".55"/><path d="M332.37 240a12.66 12.66 0 01-.7-4s-.21 3.37-1 4.66" fill="#fff" stroke="#50d6cc" stroke-width=".55"/><path d="M331.7 235c0 1.56.66 5 1.26 5.46" fill="#fff" stroke="#fff" stroke-width=".55"/><path d="M347.31 233.38a12.77 12.77 0 01-.71-4s-.21 3.39-1 4.68" fill="#fff" stroke="#50d6cc" stroke-width=".55"/><path d="M346.64 228.36c0 1.56.67 5 1.27 5.47" fill="#fff" stroke="#fff" stroke-width=".55"/><path d="M333.08 228.73a13 13 0 00.57-4s.33 3.37 1.16 4.64" fill="#fff" stroke="#50d6cc" stroke-width=".55"/><path d="M333.58 223.69c0 1.55-.5 5-1.08 5.5" fill="#fff" stroke="#fff" stroke-width=".55"/><path d="M345.65 240.84a12.78 12.78 0 00.58-4s.32 3.38 1.16 4.65" fill="#fff" stroke="#50d6cc" stroke-width=".55"/><path d="M346.16 235.81c0 1.55-.5 5-1.09 5.51" fill="#fff" stroke="#fff" stroke-width=".55"/><path d="M354.91 230.29a12.6 12.6 0 00.59-4s.32 3.38 1.15 4.66" fill="#fff" stroke="#50d6cc" stroke-width=".55"/><path d="M355.43 225.16c0 1.56-.52 5-1.09 5.5" fill="#fff" stroke="#fff" stroke-width=".55"/><path d="M338.33 242.52a12.92 12.92 0 01-.7-4s-.22 3.39-1 4.67" fill="#fff" stroke="#50d6cc" stroke-width=".55"/><path d="M337.66 237.5c0 1.55.67 5 1.26 5.46" fill="#fff" stroke="#fff" stroke-width=".55"/><path d="M337.58 233.35a12.78 12.78 0 00.58-4s.32 3.37 1.16 4.65" fill="#fff" stroke="#50d6cc" stroke-width=".55"/><path d="M338.09 228.3c0 1.56-.51 5-1.09 5.51" fill="#fff" stroke="#fff" stroke-width=".55"/><path d="M342.06 235.94a10.34 10.34 0 01-.57-3.23 11.92 11.92 0 01-.82 3.8" fill="#fff" stroke="#50d6cc" stroke-width=".55"/><path d="M341.51 231.87c0 1.27.54 4.07 1 4.44" fill="#fff" stroke="#fff" stroke-width=".44"/><path d="M328.24 227.17a12.8 12.8 0 00.58-4s.33 3.38 1.16 4.65" fill="#fff" stroke="#50d6cc" stroke-width=".55"/><path d="M328.75 222.13c0 1.54-.51 5-1.09 5.5" fill="#fff" stroke="#fff" stroke-width=".55"/><path d="M350.12 233.73a12.83 12.83 0 00.58-4s.32 3.38 1.16 4.65" fill="#fff" stroke="#50d6cc" stroke-width=".55"/><path d="M350.63 228.69c0 1.56-.51 5.05-1.09 5.51" fill="#fff" stroke="#fff" stroke-width=".55"/><path d="M342.83 243.62a13.11 13.11 0 01-.7-4s-.21 3.39-1 4.68" fill="#fff" stroke="#50d6cc" stroke-width=".55"/><path d="M342.17 238.58c0 1.57.66 5 1.26 5.47" fill="#fff" stroke="#fff" stroke-width=".55"/><path d="M341.48 228.68a10.32 10.32 0 00.47-3.24 11.62 11.62 0 00.94 3.76" fill="#fff" stroke="#50d6cc" stroke-width=".55"/><path d="M341.89 224.6c0 1.27-.41 4.08-.88 4.46" fill="#fff" stroke="#fff" stroke-width=".44"/><path d="M320.73 221.37a12.62 12.62 0 00.58-4s.32 3.39 1.16 4.65" fill="#fff" stroke="#50d6cc" stroke-width=".55"/><path d="M321.24 216.31c0 1.56-.51 5.05-1.09 5.51" fill="#fff" stroke="#fff" stroke-width=".55"/><path d="M338.25 225.5a9.35 9.35 0 01-.51-2.92A10.71 10.71 0 01337 226" fill="#fff" stroke="#50d6cc" stroke-width=".55"/><path d="M337.77 221.84c0 1.13.48 3.66.92 4" fill="#fff" stroke="#fff" stroke-width=".4"/><path d="M351.4 226.56a11.46 11.46 0 01-.64-3.59s-.19 3.05-.9 4.21" fill="#fff" stroke="#50d6cc" stroke-width=".55"/><path d="M350.79 222c0 1.4.61 4.52 1.14 4.92" fill="#fff" stroke="#fff" stroke-width=".49"/><path d="M327 220.77a12.92 12.92 0 01-.7-4s-.22 3.38-1 4.67" fill="#fff" stroke="#50d6cc" stroke-width=".55"/><path d="M326.36 215.76c0 1.55.67 5 1.26 5.46" fill="#fff" stroke="#fff" stroke-width=".55"/><path d="M315.15 220a12.66 12.66 0 01-.7-4s-.22 3.38-1 4.67" fill="#fff" stroke="#50d6cc" stroke-width=".55"/><path d="M314.48 215c0 1.55.67 5 1.27 5.46" fill="#fff" stroke="#fff" stroke-width=".55"/><path d="M333.19 220.55a9.46 9.46 0 01-.52-2.92 10.66 10.66 0 01-.74 3.42M342.66 222.65a10.36 10.36 0 00.47-3.24 11.74 11.74 0 00.94 3.76" fill="#fff" stroke="#50d6cc" stroke-width=".55"/><path d="M343.07 218.57c0 1.26-.41 4.08-.89 4.46" fill="#fff" stroke="#fff" stroke-width=".44"/><path d="M346.66 225.22a12.72 12.72 0 01-.71-4s-.21 3.38-1 4.67" fill="#fff" stroke="#50d6cc" stroke-width=".55"/><path d="M346 220.21c.05 1.55.67 5 1.27 5.45" fill="#fff" stroke="#fff" stroke-width=".55"/><path d="M345.06 219.33a11.28 11.28 0 00.53-3.59s.28 3 1 4.17M354.44 236.56A11.59 11.59 0 00355 233s.29 3 1.05 4.18" fill="#fff" stroke="#50d6cc" stroke-width=".55"/><path d="M354.9 232c0 1.41-.46 4.55-1 5" fill="#fff" stroke="#fff" stroke-width=".49"/><path d="M336.52 220.38a12.87 12.87 0 00.58-4s.32 3.39 1.15 4.65" fill="#fff" stroke="#50d6cc" stroke-width=".55"/><path d="M337 215.33c0 1.56-.51 5-1.09 5.51" fill="#fff" stroke="#fff" stroke-width=".55"/><path d="M334.89 238.14a10.44 10.44 0 00.47-3.25 12 12 0 00.93 3.77" fill="#fff" stroke="#50d6cc" stroke-width=".55"/><path d="M335.3 234c0 1.26-.41 4.08-.88 4.46" fill="#fff" stroke="#fff" stroke-width=".44"/><path d="M348.75 219.09a9.39 9.39 0 00.42-2.92 10.55 10.55 0 00.85 3.38M341.54 218.87a10.34 10.34 0 01-.57-3.23 11.6 11.6 0 01-.82 3.79" fill="#fff" stroke="#50d6cc" stroke-width=".55"/><path d="M341 214.8c0 1.27.54 4.08 1 4.44" fill="#fff" stroke="#fff" stroke-width=".44"/><path d="M353 223.31a10.32 10.32 0 00.47-3.24 11.57 11.57 0 00.94 3.76" fill="#fff" stroke="#50d6cc" stroke-width=".55"/><path d="M353.45 219.24c0 1.26-.41 4.08-.88 4.46" fill="#fff" stroke="#fff" stroke-width=".44"/><path d="M353.52 218.27a11.59 11.59 0 01-.64-3.6s-.19 3.05-.91 4.22" fill="#fff" stroke="#50d6cc" stroke-width=".55"/><path d="M352.92 213.73c0 1.41.6 4.53 1.14 4.93" fill="#fff" stroke="#fff" stroke-width=".49"/><path d="M358.63 220.83a12.65 12.65 0 00.58-4s.32 3.38 1.16 4.65" fill="#fff" stroke="#50d6cc" stroke-width=".55"/><path d="M359.14 215.77c0 1.58-.51 5.06-1.09 5.52" fill="#fff" stroke="#fff" stroke-width=".55"/><path d="M363.75 232.11a12.72 12.72 0 01-.71-4s-.21 3.39-1 4.68" fill="#fff" stroke="#50d6cc" stroke-width=".55"/><path d="M363.08 227.1c0 1.56.67 5 1.26 5.46" fill="#fff" stroke="#fff" stroke-width=".55"/><path d="M358.9 234.9a11.45 11.45 0 00.52-3.59s.29 3 1.05 4.18" fill="#fff" stroke="#50d6cc" stroke-width=".55"/><path d="M359.36 230.37c0 1.4-.45 4.53-1 5" fill="#fff" stroke="#fff" stroke-width=".49"/><path d="M359.05 226.91a11.84 11.84 0 00.51-3.61s.29 3 1.05 4.18" fill="#fff" stroke="#50d6cc" stroke-width=".55"/><path d="M359.51 222.36c0 1.41-.46 4.56-1 5" fill="#fff" stroke="#fff" stroke-width=".49"/><path d="M365.26 217.94a11.35 11.35 0 01-.63-3.59s-.19 3.05-.92 4.21" fill="#fff" stroke="#50d6cc" stroke-width=".55"/><path d="M364.66 213.42c0 1.41.6 4.52 1.14 4.92" fill="#fff" stroke="#fff" stroke-width=".49"/><path d="M362.85 225.26a12.56 12.56 0 00.58-4s.32 3.38 1.16 4.65" fill="#fff" stroke="#50d6cc" stroke-width=".55"/><path d="M363.36 220.21c0 1.55-.51 5-1.09 5.51" fill="#fff" stroke="#fff" stroke-width=".55"/><path d="M366.5 230.41a10.43 10.43 0 00.48-3.24 11.41 11.41 0 00.94 3.76" fill="#fff" stroke="#50d6cc" stroke-width=".55"/><path d="M366.92 226.33c0 1.27-.41 4.08-.88 4.45" fill="#fff" stroke="#fff" stroke-width=".44"/><path d="M367.8 224.18a10.38 10.38 0 01-.57-3.23 11.6 11.6 0 01-.82 3.79" fill="#fff" stroke="#50d6cc" stroke-width=".55"/><path d="M367.25 220.1c0 1.28.55 4.08 1 4.44" fill="#fff" stroke="#fff" stroke-width=".44"/><path d="M369.16 217.48a12.9 12.9 0 00.58-4s.31 3.39 1.15 4.65" fill="#fff" stroke="#50d6cc" stroke-width=".55"/><path d="M369.66 212.42c0 1.58-.5 5.06-1.09 5.53" fill="#fff" stroke="#fff" stroke-width=".55"/><path d="M374.17 223.72a11.64 11.64 0 00.52-3.62s.29 3.05 1.05 4.19" fill="#fff" stroke="#50d6cc" stroke-width=".55"/><path d="M374.63 219.17c0 1.4-.46 4.53-1 5" fill="#fff" stroke="#fff" stroke-width=".49"/><path d="M371 224.68a11.55 11.55 0 01-.64-3.6s-.19 3-.9 4.21" fill="#fff" stroke="#50d6cc" stroke-width=".55"/><path d="M370.43 220.15c0 1.42.61 4.53 1.14 4.93" fill="#fff" stroke="#fff" stroke-width=".49"/><path d="M370.2 209.11a12.92 12.92 0 01-.7-4s-.22 3.38-1 4.67" fill="#fff" stroke="#50d6cc" stroke-width=".55"/><path d="M369.53 204.1c0 1.55.67 5 1.26 5.46" fill="#fff" stroke="#fff" stroke-width=".55"/><path d="M373.19 217.38a12.8 12.8 0 00.58-4s.33 3.39 1.16 4.66" fill="#fff" stroke="#50d6cc" stroke-width=".55"/><path d="M373.7 212.34c0 1.56-.51 5-1.09 5.51" fill="#fff" stroke="#fff" stroke-width=".55"/><path d="M382.39 216a11.33 11.33 0 00.53-3.6s.29 3 1 4.18" fill="#fff" stroke="#50d6cc" stroke-width=".55"/><path d="M382.85 211.5c0 1.4-.46 4.54-1 5" fill="#fff" stroke="#fff" stroke-width=".49"/><path d="M379 214.88a11.61 11.61 0 01-.63-3.58s-.19 3-.91 4.22" fill="#fff" stroke="#50d6cc" stroke-width=".55"/><path d="M378.39 210.36c0 1.41.6 4.52 1.14 4.93" fill="#fff" stroke="#fff" stroke-width=".49"/><path d="M379.18 220.9a9.67 9.67 0 01-.51-2.92 10.71 10.71 0 01-.74 3.43" fill="#fff" stroke="#50d6cc" stroke-width=".55"/><path d="M378.7 217.23c0 1.14.48 3.67.91 4" fill="#fff" stroke="#fff" stroke-width=".4"/><path d="M373 208.61a13 13 0 00.57-4s.32 3.38 1.16 4.65" fill="#fff" stroke="#50d6cc" stroke-width=".55"/><path d="M373.52 203.58c0 1.55-.5 5-1.09 5.5" fill="#fff" stroke="#fff" stroke-width=".55"/><path d="M376.58 207.58a12.68 12.68 0 00.57-4s.33 3.38 1.17 4.64" fill="#fff" stroke="#50d6cc" stroke-width=".55"/><path d="M377.09 202.54c0 1.54-.51 5-1.09 5.5" fill="#fff" stroke="#fff" stroke-width=".55"/><path d="M381.81 209.61a11.4 11.4 0 01-.63-3.6s-.2 3.06-.92 4.22" fill="#fff" stroke="#50d6cc" stroke-width=".55"/><path d="M381.21 205.1c0 1.39.6 4.52 1.14 4.91" fill="#fff" stroke="#fff" stroke-width=".49"/><path d="M385.57 207.77a11.66 11.66 0 01-.63-3.59s-.19 3-.91 4.21" fill="#fff" stroke="#50d6cc" stroke-width=".55"/><path d="M385 203.25c0 1.42.6 4.53 1.14 4.93" fill="#fff" stroke="#fff" stroke-width=".49"/><path d="M387.61 208.65a11.73 11.73 0 00.53-3.61s.29 3 1 4.17" fill="#fff" stroke="#50d6cc" stroke-width=".55"/><path d="M388.07 204.1c0 1.4-.46 4.55-1 5" fill="#fff" stroke="#fff" stroke-width=".49"/><path d="M391.76 207.32a10.29 10.29 0 01-.57-3.22 11.33 11.33 0 01-.83 3.78" fill="#fff" stroke="#50d6cc" stroke-width=".55"/><path d="M391.22 203.24c0 1.27.54 4.08 1 4.45" fill="#fff" stroke="#fff" stroke-width=".44"/><path d="M245.64 222.55a13 13 0 00.58-4s.33 3.38 1.16 4.65" fill="#fff" stroke="#50d6cc" stroke-width=".55"/><path d="M246.15 217.49c0 1.56-.51 5.06-1.1 5.52" fill="#fff" stroke="#fff" stroke-width=".55"/><path d="M241.52 221.76a12.43 12.43 0 01-.71-4s-.21 3.39-1 4.68" fill="#fff" stroke="#50d6cc" stroke-width=".55"/><path d="M240.85 216.74c0 1.56.67 5 1.26 5.47" fill="#fff" stroke="#fff" stroke-width=".55"/><path d="M238.38 219.33a10.44 10.44 0 01-.58-3.22 11.64 11.64 0 01-.81 3.77" fill="#fff" stroke="#50d6cc" stroke-width=".55"/><path d="M237.84 215.26c0 1.26.54 4.08 1 4.43" fill="#fff" stroke="#fff" stroke-width=".44"/><path d="M233.54 217a13 13 0 00.57-4s.32 3.38 1.16 4.65" fill="#fff" stroke="#50d6cc" stroke-width=".55"/><path d="M234 211.92c0 1.56-.51 5.05-1.09 5.51" fill="#fff" stroke="#fff" stroke-width=".55"/><path d="M226.31 207.81a12.68 12.68 0 00.57-4s.32 3.39 1.16 4.65" fill="#fff" stroke="#50d6cc" stroke-width=".55"/><path d="M226.82 202.77c0 1.55-.51 5-1.09 5.5" fill="#fff" stroke="#fff" stroke-width=".55"/><path d="M224.46 204.11a9.36 9.36 0 01-.52-2.9 10.43 10.43 0 01-.73 3.4" fill="#fff" stroke="#50d6cc" stroke-width=".55"/><path d="M224 200.45c0 1.13.48 3.66.92 4" fill="#fff" stroke="#fff" stroke-width=".4"/><path d="M237.8 183.54a19.36 19.36 0 001 8.85 27.7 27.7 0 00-11.47-6c-2.39-2.32-4.87-10.76-4-13.78 4.56-.28 13.47 7.23 14.42 10.9zM246.41 201c-4.13-2.71-7.93-3.49-17.17-3.26 1.4 5.18 15.48 11.37 17.83 10.94-.19-.9-.89-6.87-.66-7.68z" fill="#fff" stroke="#50d6cc" stroke-width=".55"/><path d="M246.37 200.81c-12-5.32-8.77-22.57-6.65-24.57 5.92 3.26 6.42 10.89 7.17 12.92a80.24 80.24 0 00-.52 11.65z" fill="#fff" stroke="#50d6cc" stroke-width=".55"/><path d="M244.21 199.62a13.52 13.52 0 01-5.33-7.13 25.14 25.14 0 00-15.88-6.65c.13 5.63 4.83 10.85 7.6 11.85 4.5 0 9.15-.22 13.66 1.95v0zM293 224.88c-2 2.18-8.7 9.05-20.43 3.9a6 6 0 014.27-2.39 17.94 17.94 0 0011.75-3.49 40.83 40.83 0 004.41 2z" fill="#fff" stroke="#50d6cc" stroke-width=".55"/><path d="M292.7 217.67c-3.47-2.31-7.13-2-10.7-3.12-.39 7.06 10.76 9.85 11.73 10.66a12.65 12.65 0 015.5-1.08c-1.32-1-5-2.87-6.53-6.46z" fill="#fff" stroke="#50d6cc" stroke-width=".55"/><path d="M315.1 224.8c1.51 0 6.1-1.11 7.42-.09s3.94 4 1.87 6.13-3.95-.85-4.79-1.33-3.6-3.29-14.6-1.14c-4.84.94-4.84 4.07-10.39 5.19-4.05.82-4.56.05-9.2-.11 1.93-2.35 3.48-3.77 5.26-6.21s7-3.19 8.6-3.11c-2.4-1.64-8-4.1-8-13.81 3.67.84 8 1.73 13.28 12-2-4.33-5.67-8.82-7.27-9.53-.36-.15.19-6.35.85-7.4 3.95 4.2 4.5 4.27 6.48 6.23 2.86 2.83 2.34 7 3.85 9.33a8.68 8.68 0 006.71 3.83z" fill="#fff" stroke="#50d6cc" stroke-width=".55"/><path d="M288.61 222.9a17.66 17.66 0 01-16.86 2.31c4.56-5.76 7.42-5.85 12.31-5.56a15.55 15.55 0 004.55 3.25zM247.07 208.63c-.52-.3-6.77.52-7.66 1.88.28 2.45 7 6.18 8.87 5.66-.33-2.06-1.26-6.64-1.21-7.54z" fill="#fff" stroke="#50d6cc" stroke-width=".55"/><path d="M322 229.25c1.28.19 1.46-1.18 1.27-2" fill="#50d6cc"/><path d="M300 210.91c.57 1.9 4.16 6.08 4.91 8.74m-10.58-4.94a36.37 36.37 0 006.61 7.23m-14.94-4a26.15 26.15 0 008.7 5.13m-10-.95c-1.71-.21-6.44 0-9.09 2.09m11.92 1.7c-1.51.38-7.19 1-10.22 2.47m23.27-1.7c-4.53.37-6.63 4.17-10.4 4.93m-49.91-50.56c0 1.71.37 10.64 3 13.11m-18-18.23c1.14 4.36 7.94 7.78 8.51 10.44m8.86 25.27a5 5 0 014.55.57m-13.61-12.55c1.7 0 10 1.91 12.48 5.52m-20-16.15c2.09.75 9.46 5.13 11.16 8.56" fill="none" stroke="#50d6cc" stroke-width=".49"/><path d="M213.38 177c1.55.48 5.92.45 7.33-2.52.41-.87.38-2.54 1.69-4.24s3.31-2 3.63-4.1c.57-3.77-3.67-3.26-4.5-5.38-.72-1.78.19-2.31 2.07-2.74 1.22-.26 5 1.18 13.23 4.54 6 2.45 11.46.95 13.29-.28 2.08-1.38 4-5.37 7.57-8.57.61-.54 8.64-3.2 11.46-8.11a13.3 13.3 0 00-4.11-16.4c-7.32-5.48-17.65-9.06-22-11s-10.77-3-11.5-8.39c-.33-2.41 1.74-3.37 3.44-3.31 2.24.11 5.19.93 7 1.11 1.31.13 5.79.7 6.49-3.5a4.73 4.73 0 01-.75-1c-.15.75-.52 2.3-3.53 2.11-3.6-.23-7.28-2.58-10.06-2.57-3.38 0-5.71 1.82-9.09 2.76s-7.22.65-9 4c-1.13 2.07-2.07 9.43 3.37 14.71s8.48 7.82 21.2 12.65c9.35 3.54 11.66 5.48 12.8 6.81s1.07 2.59.63 3.1c-.56.66-3.43 1.27-10.66-1.84a37 37 0 00-14.73-3.22c-3 0-11.32 1.51-12.78 4.43-1.69 3.39-.38 4.15-.05 9.19.08 1.43-.31 3.39.46 5.15a7.11 7.11 0 002.9 3.19c3 1.27 1.82 2.75.89 3.87s-2.26 3.25-1.93 5c.47 2.68-4.76 4.54-4.76 4.54zm93-128.65c-3.25 1.23-3.86.74-5 1.64-1.84 1.46-3.35 3.06-3.77 2.4-.56-.9 4.81-1.83 5.92-5.22.9-2.75-.32-3.26-1-7.75-1-6.93-4.37-8.11-6.81-7.36s-9 4-19.73 7.73c-7.53 2.61-19.67 3.92-21.79 7.72-.85 1.51-3.4 7.75 5.25 14 2 1.42 2.57 1.8 7.55 3.44a56.87 56.87 0 00-16.92-1c-17.87 1.24-36.7 17.8-34.43 31 .56 3.24 4.74 1.94 8.12 2.49s3.9 2.17 6.34 1.77S233 95 235.44 94.6s2.25 2.08 4.87 2.08 4.81-4.43 6.69-4.24a5.06 5.06 0 00-1.79-.42c-1.67 1.33-3.8 1.84-5.12 1.08s-1.72-1.93-3.65-1.93c-1.12 0-2.25.6-4.6 2.31 2-2.41 10.4-15.22 28.37-11.49 8.22 1.7 9.21-.89 9.58-2.22s-.37-3.48 0-7c.31-2.87 2.07-4.91 1.51-6.8s-1.53-2.85-4.69-3.9c-1.41-.48-1.27-1.16-.67-1.67s2.59-.64 4-.88c2.48-.41 14.75-3.43 23-8.6 4.25-2.68 6.67-5.53 6.86-3.85.13 1.17-6.16 2-6 4.79.08 1.18.17 3 3.62 3.3 2.49.19 4-1.57 5.73-3.06 2-1.8 2.85-2.33 3.19-3.78z" fill="none" stroke="#50d6cc" stroke-width=".44"/><path d="M242.38 120c-9.13-3.81-16.13-7.53-11.42-14.59-5.42 2.71-14.53.9-14 8 1.78 23.23 44.17 18.74 40.4 37.74 9.61-1.34 18.35-15.9 2.27-23.37-6-2.77-11.79-5.45-17.26-7.76zm25.2-52.83c1.64.41-.13 3.28-.6 6-.31 1.8 1.32 5.44-.16 6.27-5 2.78-25.84-8.09-37.65 15.43-1.36 2.69-3.84 0-6-.2-3.77-.36-6.6.37-5.57-2.74 8.89-26.86 37-28 50-24.8zm22.18-30.65c3.37-1.44 6.14-2.59 7.9-2.07 3.54 1.07 2.63 8.31 3.9 10-2.09-.7-5.5 1.59-9.34 4.11a56.7 56.7 0 01-9.68 5.16A63.65 63.65 0 01273 56.5c-5.91 1.25-11.3 2.13-9.83 4.66-2.25-.83-9.39-5.58-7.35-11 1.13-3 5.2-4.36 10-5.57A115.74 115.74 0 00279 40.8c4.36-1.67 7.35-2.81 10.74-4.27zm-69.49 108.37c16.16-6 24.17 6 35.07 4.15.19 4.89-4 13.56-12.47 13-5.86-.39-20.08-11-24.72-2.39-.18-6.21-3.64-12.6 2.12-14.74z" fill="none" stroke="#50d6cc" stroke-width=".44"/><path d="M223.65 148.09a1.07 1.07 0 00-1.11-.45 1 1 0 00-.95 1.07c.08.49.61.69 1 .79l.49.11c1 .22 1.72.63 1.88 1.71a2 2 0 01-4 .79l.79-.28a1.23 1.23 0 102.42-.4c-.09-.69-.69-.91-1.28-1.06l-.47-.12c-.77-.21-1.5-.53-1.63-1.43a1.75 1.75 0 011.64-1.93 1.82 1.82 0 011.79.73l-.59.47M229.24 153.29l-.81-.06.44-5.77-1.54-.11.06-.74 3.88.3-.05.74-1.54-.11-.44 5.75M233.42 152.37l-1.27 1.25-.81-.31 5.29-5.24.51 7.45-.82-.31-.12-1.79zm2.59-2.63l-2 2.06 2.16.8-.15-2.86M240.45 156.73l-.77-.25 1.81-5.46-1.46-.49.24-.7 3.68 1.22-.23.7-1.46-.49-1.8 5.46M245.73 151.59l3.46.43-.09.74-2.65-.34-.22 1.81 2.58.32-.09.74-2.58-.32-.3 2.44 2.66.33-.09.74-3.46-.43.79-6.45M260.62 143.27a.92.92 0 00-.29 1 .87.87 0 001 .71c.42-.11.53-.57.58-.94l.05-.43a1.75 1.75 0 011.27-1.74 1.74 1.74 0 011 3.33l-.31-.64a1 1 0 00.76-1.3 1 1 0 00-1.3-.71c-.58.14-.71.67-.78 1.18l-.06.4c-.11.69-.32 1.33-1.06 1.52a1.51 1.51 0 01-1.79-1.23 1.58 1.58 0 01.46-1.59l.46.46M258.37 135.88a2.86 2.86 0 014 .72 2.89 2.89 0 11-4-.72zm.39.56a2.21 2.21 0 00-.57 3.1 2.18 2.18 0 003.1.53 2.21 2.21 0 10-2.53-3.63M256.36 132.62l-3.78 2.26-.6-.46 5.44-3.17-1.64 6.1-.6-.46 1.18-4.27M251.05 134l-2.6-1.46.31-.54 2 1.11.75-1.36-1.94-1.08.31-.55 1.93 1.07 1-1.83-2-1.11.3-.55 2.6 1.44-2.66 4.86M246.11 125.3l.77.34.52 2.81.27.12 1-2.14.63.28-2.3 5.06-.76-.34a2.88 2.88 0 01-1.22-.84 1.54 1.54 0 01-.12-1.5 1.52 1.52 0 011.85-.88zm1.32 3.79l-.21-.09c-.64-.29-1.39-.49-1.75.32s.34 1.24 1 1.52l.17.08.82-1.83M242.69 129.9l-2.75-1.14.24-.57 2.11.86.59-1.42-2-.85.24-.58 2.05.84.79-1.93-2.11-.88.24-.58 2.75 1.13-2.1 5.13M239.83 122.72l.64.26-2.12 5.13-.64-.26 2.12-5.13M232.34 122.47l.08-.2a2.56 2.56 0 013.5-1.37 2.89 2.89 0 11-4 3.33l.62-.22a2.24 2.24 0 001.22 1.54 2.21 2.21 0 002.93-1.14 2.25 2.25 0 00-1-3 1.84 1.84 0 00-2.32.74l1.29.6-.25.57-2-.9M229 124.14l-1-6-2.31 3.39-.57-.39 3.26-4.77 1 6 2.33-3.42.57.39-3.28 4.8M226.48 114.34l.42.55-3.88 3 .8 1-.5.39-2-2.64.5-.38.8 1 3.89-3M220.27 115l-.29-.74 1.7-2.14-2.69-.4-.3-.74 3.57.55 2.24-.89.26.65-2.24.87-2.25 2.84M220.35 89.74l6.25-1-3.52-2.47.42-.59 5 3.48-6.25 1 3.55 2.49-.41.6-5-3.5M229.36 85.71l.55 1.51-.56.55-2.27-6.28 6.23 2.39-.56.54-1.49-.57zm-1.17-3.08l.91 2.4 1.48-1.46-2.39-.94M235.54 82.19l-.57.45-3.11-4.12-1.1.84-.4-.53 2.77-2.11.4.53-1.09.83 3.1 4.11M238.91 79.94l-.62.37-3-5 .62-.38 3 5M245.1 73.79a3 3 0 01-1.63 4 3 3 0 01-4-1.62 3 3 0 015.61-2.36zm-.67.28a2.32 2.32 0 10-4.27 1.8 2.32 2.32 0 104.27-1.8M246.91 70l5.09 3.69-.77-4.24.72-.13 1.08 6-5.03-3.75.77 4.27-.77.16-1.1-6M256.13 73.47l-.7 1.44h-.78l2.91-6 2.65 6.09h-.78l-.63-1.49h-2.67zm1.4-3l-1.09 2.35h2.07l-1-2.38M262.81 74.81l1.74.3-.11.66-2.44-.43 1-5.75.72.12-.88 5.1M261.1 49.53l.85 3.64c.23 1 .75 1.87 1.93 1.59s1.26-1.27 1-2.28l-.84-3.63.76-.18.9 3.89a2.31 2.31 0 11-4.49 1.06l-.9-3.9.77-.17M267.84 47.62l5.86 3.55-1.22-4.5.76-.2 1.76 6.34-5.86-3.56 1.23 4.55-.76.21-1.72-6.39M279 51.26l-.75.25-1.94-6 .75-.24 1.94 6M286.83 44.11a3.29 3.29 0 01-5.76 3.2 3.32 3.32 0 011.3-4.47 3.27 3.27 0 014.46 1.27zm-.68.38a2.52 2.52 0 10-4.4 2.44 2.52 2.52 0 104.4-2.44M287.8 39.64l6.45 2.28-2.1-4.16.69-.35 3 5.85-6.48-2.26 2.12 4.19-.69.37-3-5.9" fill="#50d6cc"/><path d="M249.91 140.82c6.77 3.39 5.24 9.15 5.33 10.2" fill="none" stroke="#50d6cc" stroke-width=".44"/><path d="M318.63 152.59c2.76 2.76 3.6 7.51 3.68 8.65.1 1.77.37 5.28-2.26 5.65a7.92 7.92 0 01-5.49-1 2.7 2.7 0 00-1.2-2c-.86-.26-1-.45-1.76 0a3.21 3.21 0 01-2.48-.72c-1.69-2.21-1.91-9.84-6.89-14.08-3-2.54-3.71-3.48-12.39-7.34-17.39-7.77-28.22-28.11-29.32-29.64-1.41-1.93-3.88-4.46-5.58-4.9-7.94-2.08-8-5.76-8.27-7.93 2 3.26 9.77 5.86 9.39 4.15-.26-1.2-1.29-3.12-4.5-5.28-2.81-1.89-3-5-4.13-5.56a6.45 6.45 0 00-4.6-.48c3.58-7.55 12.4-2.72 12.4-2.72 2.26 2.26 4.38 4.66 5.73 5.66 1.51 1.1 2.37 2.66 8.92 4.24 8.82 1.41 15.07 2.89 17.41 3.41.73-1.35.91-11.13-.59-13.39s-3.56-3.77-4.69-8.68a85.73 85.73 0 00-4.5-14c-1.86-4.53 1.51-8.31 7.53-8.86 16.08-1.51 24.3 8.79 25.82 9.72" fill="none" stroke="#50d6cc" stroke-width=".58"/><path d="M338.64 136.69c9.31 10.52 18.23 31.44 18.58 34.19-.09 3.76-2.29 2.12-3.42 1.27 0 1.75-2.49 1.73-3.71.23-.57 2.27-3.2 1.56-4.7-.38.48 2-2.95 2.12-4.31 0 .36 1.38-2.22.8-3-.38 0 .76.13 1.94-2.07.38-2.44-3.59-18.15-20.18-17.38-19.4" fill="none" stroke="#50d6cc" stroke-width=".58"/><path d="M322.61 151s5.53 5.84 6.29 6.75 2.08 3 .84 4c-1.41 1.14-4.06-1.33-4.35-1.61-.47-.49-9.21-10.12-9.21-10.12s11.05 13 13.13 11.41-6.51-10.22-6.7-10.41" fill="#50d6cc"/><path d="M338.06 171.64c0-2.73-7-11.62-8.7-13.42M341.08 172c-.66-4.84-6.84-13.54-8.58-15.73M345.38 172c-.51-3.38-5.56-13.75-8-16.78m12.73 17.15c-.35-2.3-6.72-15.44-9.51-18.67m13.32 18.44c.25-3.34-3.68-11.65-13-24.8" fill="none" stroke="#50d6cc" stroke-width=".58"/><path d="M335.68 140.18c.25.32 8 11 9.16 12.92.94 1.56 1.09 3.27.15 3.85s-2.28-.81-3.27-1.85-9.31-12.59-10.07-13.54 7.62 10.21 8.61 11.73c.67 1.05 1.12 2.42.56 3.09s-2.36.14-2.93-.52-6.52-8-6.62-8.22 5.21 6.31 5.82 7.27a2.6 2.6 0 01-.47 3.61c-.56.37-1.69-.28-3-1.4-2.88-2.42-6-7-7.49-8.25 1.61 1.44 4 4.66 5.59 6.41s1.84 3.33.79 4-2.31-.24-3.31-1.33-5.86-6.17-6.52-6.95 5.7 6.07 6.28 6.76" fill="none" stroke="#50d6cc" stroke-width=".58"/><path d="M248.67 101.32c-.42-.8.14-.43-.75-1.66 2.67 1.47 4.28-.5 6.66 1.19.62.71 1.74 2.4 1.37 2.92-.57.99-5.31-.9-7.28-2.45z" fill="none" stroke="#50d6cc" stroke-width=".55"/><path d="M255.23 89.44l.17.58s-.86 4.24.76 7a13.71 13.71 0 012.25 6.08c.15 2.75-1.53 4.7-3.24 4.26" fill="none" stroke="#50d6cc" stroke-width=".55"/><path d="M255.21 89.43c8.92-2.82 12.2 7.84 19.06 7.85-1.6 1.5-5 1.49-8.65.75s-10.41-8.6-10.41-8.6z" fill="#fff" stroke="#50d6cc" stroke-width=".58"/><path d="M259.71 97.93c1.4 1.13 5.26-.09 5.26-.09a22.41 22.41 0 01-6.1-4.62c-1.13 2.92.01 4.04.84 4.71z" fill="#fff" stroke="#50d6cc" stroke-width=".44"/><path d="M260.5 96.78c.72.59 2.69 0 2.69 0a11.69 11.69 0 01-3.12-2.36c-.91 1 0 2.06.43 2.42" fill="#50d6cc"/><path d="M290.76 142.22c-2.16.36-2.55 11.12 1.86 13.91.19-.84 1.41-.79 2.49.47.37.46.36 1.46.13 1.6.58 1.61 2.07 2.23 4.18 2.36a6.49 6.49 0 006.53-6 14.68 14.68 0 00-4.7-6.17 41.22 41.22 0 00-10.51-6.14z" fill="none" stroke="#50d6cc" stroke-width=".58"/><path d="M295.44 157.65c0 1.32-3 2.07-.95 4.34s1.88 2.07 3.19 2.64 3.95-.19 3.57 2.08-3.48 1.6-4.51-.1c-.49-.81-1.88-2.45-3.76-2-1.62.41-1.88.74-2.63 2.45s-1.35 2.84-2.82 1.94-.56-1.89.38-2.83 1.5-1.31 1.31-2.26-2.25-1.13-3.75-.76-2.63-1.31-1.88-2.26 3-.75 4 0 3.18 1.7 4.13 1.32.75-4.71.94-6 2.83-.11 2.83 1.51zM314.4 165.26c.8 2.14-2.59 4.7-.53 7s4.22 1.48 5.64 1.32c.84-.08 3.94-.18 3.56 2.08-.29 1.79-3.64 1.1-6.57 0-.88-.33-2.91-1.12-4.41-.38s-1.74 1.47-2.07 3.59c-.28 1.83-1.74 2.72-3.24 1.77s-.94-1.88 0-2.83a4.28 4.28 0 001.08-3.48c-.19-.94-2.25-1.13-3.75-.75s-2.63-1.32-1.88-2.27 3-.75 3.94 0 3.2 1.7 4.14 1.32 1.08-7.33 1.27-8.65a2 2 0 012.82 1.31z" fill="#fff" stroke="#50d6cc" stroke-width=".58"/><path d="M297 148a9.92 9.92 0 014.36 5.41M296.5 152a9 9 0 012.46 3.79M292.25 150.5a4 4 0 001.23 2.85M310.36 159.39c.09 2 3 2.48 3.16 3.47M308.23 153.6a3.86 3.86 0 013.83 2.76 6.58 6.58 0 00-3.83-2.76M319.49 164.78c-1.58-5.47-4.38-6.27-4.18-5.44 1.57 1.47 1.61 1.2 2.22 2.1 1.29 1.9 1.68 3.81 2 3.34M320.37 164c-.27-2.08-1.27-1.78-1.2-1.15a4.74 4.74 0 01.69.89c.11.27.28.57.51.26M323.08 174.88a2 2 0 011.92 2.5c-.7-1.55-1.87-1.28-2.25-1 0 0 .62-.81.33-1.46M302.14 171.47a2 2 0 00-2.16 2.3c.85-1.49 2-1.09 2.34-.81a1.75 1.75 0 01-.18-1.49M301.3 166.46a2 2 0 011.29 2.87c-.32-1.67-1.53-1.68-1.95-1.53 0 0 .79-.65.66-1.34M283.44 161.24a2 2 0 00-1.8 2.6c.62-1.59 1.81-1.38 2.21-1.16 0 0-.66-.76-.41-1.44M287 168.49a3.85 3.85 0 00-.31 2.67c1.05-1.7 1.4-1.75 1.81-1.87a2.51 2.51 0 01-1.5-.8M306.66 180.13a4 4 0 00-.32 2.68c1.05-1.7 1.4-1.75 1.82-1.87a2.49 2.49 0 01-1.5-.81M306.11 148.13c-.19.9 1.23 1 1.32 2.09M299.21 146.75c4.43 1.87 5.13-2 4.21-2.6l-.15-.1c1.47.58 1.27 6.47-4.06 2.7M272.2 109.83c-1.84.79-3-1.68-2.31-3.22-2.44 1.82.81 5.15 2.81 4.11 2.42-1.28 1.33-5.1-1.45-3.83 1.83-.09 2.68 2.19.95 2.94" fill="#50d6cc"/><path d="M269.32 113.12c-1.3 1.08-2.44-.3-2.46-1.6-1 1.77 1.53 3.45 3 2.29 1.69-1.37.58-5-2.56-3.38 2.65-.05 3.08 1.8 2 2.69M265.16 116.89c-1.69.11-2.21-1-1.55-2.19-1.37 1.06-.31 3.14 1.57 3.07 2.29-.09 2.84-2.53 1-3.72 1.06 1.67.76 2.74-1 2.84M278.7 109.25a1.51 1.51 0 01-1-2.25c-1.88 1.59.09 3 .89 3.14 2 .44 3.57-2 1.17-3.68 1.09 1.56.57 3.2-1.08 2.79M269.36 121.18c-.4 1.33-2.08.54-2.41-.6-.37 2.09 2.53 2.31 3 .83.59-1.8-.91-2.88-2.31-1.76 1.26-.31 2.14.15 1.71 1.53M274 124.3c-.16 1.68-2.62 1.17-3.39-.09.1 2.59 4 2.07 4.26.2.27-2.29-3-4.07-4.18-.59 1.92-2 3.49-1.29 3.31.48" fill="#50d6cc"/><path d="M276.8 120.59c-.16 1.7-2.62 1.17-3.39-.08.1 2.58 4 2.07 4.25.21.28-2.31-3-4.08-4.18-.61 1.93-2 3.5-1.27 3.32.48M284 110.85c-1.55-.69-.27-2.88 1.15-3.22-2.47-.71-3.24 3.2-1.54 4 2.09 1 4.8-1.57 1.89-3.8 1.25 2.46.1 3.75-1.5 3M289.07 107.06c-.17 1.7-2 1.13-2.45.34a1.68 1.68 0 003.32-.22c.27-2.28-3-4.07-4.18-.6 1.91-2 3.48-1.27 3.31.48M269.92 101.34a2.33 2.33 0 01.42 2.67c-.47.46-1.46 1.18-1.46.46a3.28 3.28 0 001-1.19 2.5 2.5 0 000-1.94M267.41 104.79a2.19 2.19 0 00-2.81-.47c-.65.52-.52 1.68.28 2.62s2 1.27 2.62.75a2.22 2.22 0 00-.09-2.9zm-.55 2.34a1.44 1.44 0 01-1.86-.51c-.57-.67-.65-1.49-.18-1.86a1.57 1.57 0 012.05.23 1.66 1.66 0 01-.01 2.14z" fill="#50d6cc"/><path d="M264.53 109.23c-.87.8-1.92-.38-2.41-1.31.19 1.74 1.71 2.67 2.78 1.93 1.32-.9 1.07-2.64-.8-3.67 1.35 1.46 1.42 2.15.43 3" fill="#50d6cc"/><path d="M262.77 109.53c-.8-.92-2.26-1.27-2.9-.75s-.52 1.69.27 2.63 2 1.26 2.62.75a1.84 1.84 0 00.01-2.63zm-.64 2.06c-.47.38-1.3.15-1.87-.5s-.64-1.49-.17-1.86a1.8 1.8 0 012.15.51 1.29 1.29 0 01-.11 1.85zM274.14 105.52a1.1 1.1 0 01.44-2.14c-2.2-.8-2.5 1.73-1 2.85 1.87 1.34 5.43-.19 3-2.38 1.12 2.19-.91 2.4-2.51 1.67M276.56 109.45a1.46 1.46 0 00-1.05.29c-.64.5-.52 1.68.29 2.62s2 1.28 2.62.76a1.84 1.84 0 000-2.62 2.87 2.87 0 00-1.86-1zm-.09.56a2.1 2.1 0 011.42.68 1.29 1.29 0 01-.11 1.86 1.46 1.46 0 01-1.86-.52c-.57-.65-.65-1.49-.19-1.85a1.15 1.15 0 01.74-.18zM274.38 112.29a1.94 1.94 0 00-1.11.37c-1.12.89 0 2.68.33 3 .93 1.07 2.28 1.47 3 .87s.82-2.29-.11-3.35a2.62 2.62 0 00-2.14-.93zm.3.56a1.76 1.76 0 011.23.58c.65.76.9 2.2.36 2.63s-1.89 0-2.54-.75-.74-1.72-.2-2.15a1.8 1.8 0 011.15-.31zM281.15 102.78a2.81 2.81 0 00-2 1c-.53.81 0 2.06 1.25 2.8 1.46.87 2.64.64 3.16-.14a2.64 2.64 0 00-.87-3.34 2.51 2.51 0 00-1.52-.31zm.29.52a1.47 1.47 0 01.72.2 2.28 2.28 0 01.88 2.57c-.38.57-1.78.61-2.64.1s-1.25-1.42-.87-2a2.48 2.48 0 011.91-.87zM297.27 137.87a2.22 2.22 0 013 2.47c-.28 1.67-2.84 2-3.79 1 1.47.28 2.32.28 2.93-.86s-.5-2.14-2.12-2.57M297.91 131.66c.58.54 1.11 1.8-.16 2.08s-2.24-.7-1.6-1.92c.26.7.31 1.56 1.27 1.45s.49-1.61.49-1.61" fill="#50d6cc"/><path d="M292.67 133.67c-.33-.38 1.91-1.8 3.31-.43s.27 3.48-1.14 3.33c.54-.48 1.57-1.26.87-2.47s-2.28-.75-3-.43" fill="#50d6cc"/><path d="M291.6 136c1.52-.65 5.06 1.7 2.45 4s-5-.93-5-2.22c1 1.24 3.14 2.82 4.35 1.6s.42-2.36-1.84-3.39M297.39 115.17c.72-.22 2.18.21 2 1.48a1.74 1.74 0 01-2.22 1.71c-1.14-.33 1.47.19 1.43-1.66s-1.52-1.43-1.24-1.53M295 120.32c.33-1.07 3.32-2.5 4.42 0s-.83 3.65-3 2.22c1.72.58 3.34-.13 2.47-1.74-1.07-2-2.78-1.1-3.86-.5M289.47 118.28a1.79 1.79 0 00-1.63 1.3c-.81 2 1.81 3 2.62 3.24s2.47.34 3.21-.95c1.07-1.85-1.79-3.14-2.67-3.32a5.79 5.79 0 00-1.53-.27zm.64.92a7 7 0 01.7.11c1.5.25 2.68 1.23 1.94 2.09a2.55 2.55 0 01-2.47.68c-.4-.13-2.35-1.16-1.68-2.17a1.59 1.59 0 011.51-.71zM292.29 128.48a1.21 1.21 0 00-1.11.87c-.54 1.32 1.23 2.06 1.77 2.2a2 2 0 002.18-.63c.72-1.26-1.22-2.12-1.81-2.24a3.9 3.9 0 00-1.03-.2zm.22.63a2.5 2.5 0 01.69.06c1 .17 1.81.82 1.31 1.42a1.75 1.75 0 01-1.68.45c-.27-.09-1.59-.78-1.14-1.46a1 1 0 01.82-.47zM288.57 130.7c.36-.5 2.56-.25 3.08 1.19a2.62 2.62 0 01-2.51 3.33c1.51-.86 1.94-2.19 1.66-2.91a2.71 2.71 0 00-2.23-1.61M284.08 133.88c1.41-.6 5.39 2.19 3 4.32s-4.59-.86-4.59-2c.9 1.73 2.95 2.64 4 1.48 1.32-1.43 0-2.95-2.41-3.75M293.82 124.46a1.79 1.79 0 00-1.63 1.3c-.81 1.95 1.8 3 2.61 3.24s2.48.34 3.22-.94c1.07-1.86-1.79-3.14-2.68-3.33a6.14 6.14 0 00-1.52-.27zm.64.92a5.71 5.71 0 01.71.1c1.49.25 2.67 1.21 1.93 2.09a2.59 2.59 0 01-2.48.68c-.4-.13-2.35-1.16-1.68-2.18a1.6 1.6 0 011.52-.69zM292 115.55c-.3 0-.61.21-.81.88a1.89 1.89 0 001.29 2.22 1.19 1.19 0 001.6-.65c.52-1.26-.89-2.15-1.33-2.26a2 2 0 00-.75-.19zm.35.72a.93.93 0 01.36.06c.75.18 1.29.74.91 1.34a1 1 0 01-1.22.48c-.2-.09-1.17-.91-.64-1.49a1.05 1.05 0 01.59-.39zM293.93 115.22c0-.39-.56-2.58 1.7-2.33s-1.74-1-2.27.14.62 2.94.57 2.19M295.4 111.28c.39-.59 1.23-2 3.55-.76 1.28.67-.09-1.37-1.65-1.33-2.09.07-2.61 3.18-1.9 2.09M289.81 123.15c.74-.32 3 1.91 1.56 3.42s-4.49-.28-4.11-3.09c.43 2.39 2.52 3.45 3.36 2.39s-.05-2.1-.81-2.72" fill="#50d6cc"/><path d="M288.1 129.93c1.38-.13 1.61-2.36.52-3.12s-3-.67-3.21 1.26c.75-1.12 2-1.34 2.69-.65a1.63 1.63 0 010 2.51M282.71 132.93c1.31 1 3.41-.69 3.1-2.28s-2.07-3.15-3.87-1.63c1.61-.35 2.84.5 2.9 1.72a2 2 0 01-2.13 2.19M278.09 133.24c1.92.17 2.53-2.25 1.47-3.69s-4-1.43-4.1 1.07c1-2.22 2.67-1.51 3.47-.46a1.84 1.84 0 01-.84 3.08" fill="#50d6cc"/><path d="M276.9 125.33c.89-.43 3.64.29 3 2.42s-2.6.19-2.84-1c.48.58 2 1.9 2.23.71.27-1.64-1.09-2-2.41-2.17M281.14 124.44c.94-.44 3.82.31 3.17 2.55s-2.74.2-3-1c.5.59 2.14 2 2.33.75.28-1.73-1.14-2.16-2.52-2.31M286.29 122.22c-.2 2-2 1.58-3.06.86 1.31 2.1 3.8 1.46 4.06-.72.32-2.65-2.58-4.5-4.84-1.63 3-1.32 4-.54 3.84 1.49" fill="#50d6cc"/><path d="M286.61 117.22c.41 1.33-.05 2.1-1.78 1.68 1.67 1.68 3.55 0 2.72-2-1-2.48-3.78-1.89-4.09.1a1.73 1.73 0 013.15.26M287.9 114.1a1.37 1.37 0 01-.32 2c.54.5 2.27-.74 1.13-2.59s-3.38-1.09-3.36.11c1.13-.65 1.72-.73 2.55.49M291.84 112.23c-.23.86-.89 1.13-2 1a1.69 1.69 0 003-.78c.66-2.06-2.26-3.63-3.81-2 1.88-.33 3.21.39 2.82 1.83" fill="#50d6cc"/><path d="M292 107.61c.19-.87.84-1.17 1.94-1.07a1.67 1.67 0 00-2.93.89c-.58 2.1 2.41 3.55 3.89 1.89-1.87.4-3.22-.27-2.9-1.71M279.92 120.15c-.3 0-.61.21-.81.88a1.9 1.9 0 001.3 2.22 1.17 1.17 0 001.59-.64c.54-1.27-.89-2.15-1.32-2.27a2.11 2.11 0 00-.76-.19zm.34.72a.76.76 0 01.37.07c.74.17 1.28.73.91 1.34a1 1 0 01-1.22.45c-.2-.08-1.16-.89-.64-1.47a1 1 0 01.58-.39zM279.23 116c-.35 0-.71.25-.94 1a2.2 2.2 0 001.51 2.58 1.37 1.37 0 001.84-.76c.62-1.47-1-2.49-1.53-2.62a2.69 2.69 0 00-.88-.2zm.4.86a.78.78 0 01.42.07c.86.2 1.48.85 1.06 1.55a1.22 1.22 0 01-1.43.53c-.23-.11-1.34-1.06-.74-1.72a1.2 1.2 0 01.69-.43zM282.64 115a1.47 1.47 0 01-2.55-.79c-.44 1.74 1.6 2.67 3.08 1.48 1.8-1.43 1.22-4.25-1.6-3.7 2.05.45 2.42 1.89 1.07 3M272.76 117.26c-.14 1.54-1.39 1.54-2.46 1.36 1.4 1.42 3 .46 3.2-1.25.23-2.1-2.22-3-3.18-1.22 1.38-.81 2.59-.48 2.44 1.11M283.11 69.84c-.44 1.1-1.22 1.54-2.73 1.18a1.91 1.91 0 003.14-1.09c.18-.85-.75-2.51-2.89-1.93 1.93.07 2.56 1.46 2.48 1.84M290.36 62.21c-.7 1.57-3.76 1.71-5.86 1.21 2 1.53 6 1.46 6.7-.87.28-1.29-.35-3.59-3.61-2.7 2.75.1 2.94 1.48 2.77 2.36" fill="#50d6cc"/><path d="M284 64.56c-.64 1.39-1.73 1.73-3.83 1.22 2 1.53 4.12.48 4.46-1.09.28-1.28-.35-3.58-3.61-2.69 2.75.08 3.15 1.68 3 2.56M288.26 73.83c-.23-2-3.36-2.4-5.61-2 2.51-1.32 6.19-.28 6.26 2s-1.93 4-4.9 2.38c2.68.52 4.48-.42 4.25-2.41M296.18 63.54c-.12 1.15-1.89 1.14-2.84.92 1.28 1 3 .43 3.24-.84s-.72-2.39-2.75-1.84c1.83.07 2.48.61 2.35 1.76M300.71 65c-.16 1.48-2.46 1.24-3.67 1 .29.21-.32.28 0 .42 1.68.62 3.88.32 4.14-1.27s-.9-3-3.49-2.34c2.33.09 3.16.76 3 2.23" fill="#50d6cc"/><path d="M297.52 67.86c-.16 1.46-2.15 2.63-4.92 2.26 3.39 1.12 5.13-.54 5.42-2.15s-1.63-3.24-4.22-2.55c2.32.07 3.88 1 3.72 2.44M298.73 69.67c2.54 0 4 1.2 2.93 2.4s-3.38.79-3.77.74c.6.55.54 1.35-.26 2.24a2.14 2.14 0 01-2.38.26 1.84 1.84 0 01.49 2.38c-.75 1.51-3.68.91-4.07.46a2 2 0 01-.74 1.84c-.74.55-2.19.75-2.64.24 1.49-.14 2.15-.42 2.69-1.5.29-.58-.3-1.19-1.2-1.93 1.35.8 4.23 1.9 5.32.45.44-.58.34-1.89-2.64-3.09 1.45.5 4 1.07 4.77.26s0-2.11-2.37-2.75c1.93.45 5.6 1.4 6.15.15.46-1-.19-1.6-2.28-2.15M289.2 68.81c-.63 1.38-3.82 1.57-5.92.65 2.15 1.85 6.2 1.06 6.55-.53.28-1.28-.35-3.58-3.61-2.69 2.75.08 3.15 1.69 3 2.57M289.53 86.67c-.14 1.68-2.48 1.65-3.87 1.33 1.87 1.41 4.59.66 4.73-1.22.2-2.52-2.92-3.94-5.91-3.12 2.68.09 5.24.68 5 3" fill="#50d6cc"/><path d="M292.53 92.13c-.14 1.69-2.48 1.68-3.88 1.35 1.87 1.4 4.59.66 4.74-1.22.19-2.52-2.93-4-5.92-3.14 2.68.09 5.24.69 5.06 3M295.13 97.37c-.13 1.52-2.13 1.55-3.39 1.26 1.69 1.26 3.91.56 4.28-1.1.45-2-1.28-3.25-3.94-2.28 2.55-.1 3.2.38 3.05 2.12M295 102.7c-.16 1.69-2.48 1.67-3.86 1.33 1.87 1.4 4.5.67 4.73-1.23.27-2.28-1.67-3.68-4.66-2.88 2.69.1 4 1 3.79 2.78" fill="#50d6cc"/><path d="M299.69 95.12a2.72 2.72 0 01-4.22-1.07c-.46-1.36 1.66-1.52 3.24-1.81-.31-.07.09-.26-.21-.3-2.11-.37-4.26.51-3.91 2.32.4 2.06 3.44 3.16 5.49 1.22-.29.14-.16-.52-.39-.36M298 89.32a2.83 2.83 0 01-4.62-1.08c-.35-1.19 1.6-2 3-1.9-.21 0 0-.26-.23-.28-1.86-.15-4 .77-3.65 2.35.41 2.16 3.51 3.28 5.65 1.23-.16.07 0-.42-.17-.32M295.14 83c.59 2.1-.8 2.41-2.25 2.25s-2.07-.92-1.33-1.68c0-.66-.22-.34-.34-.24-1.48 1.3.45 2.41 1.69 2.55 1.93.2 3.32-.74 2.5-2.9 0 .13-.31-.08-.27 0M287.88 81.25c-.14 1.69-2.12 1.22-3.67 1.14 1.76 1.24 4.39.79 4.53-1.08.2-2.53-2.69-3.59-5.67-2.77 2.68.08 5 .38 4.81 2.71M306.19 70.05c0 .21-1.21.59-1.21.59a5.14 5.14 0 01-2.27-.07 2.93 2.93 0 001.67.52l2.26-1.26c.22-1.26-1.41-2.49-3.45-1.93 1.83.06 3.23.66 3 2.15M301.49 106c-.14 1.4-2.05 1.38-3.2 1.11 1.55 1.16 3.73.54 3.92-1 .22-1.9-1.38-3.06-3.85-2.38 2.22.07 3.27.83 3.13 2.28" fill="#50d6cc"/><path d="M280.56 101.28c10.64 2 15.85 4.35 20.57 7.53M299.89 111c3.58-4.79 2.17-11.22 1.71-13.29a23.33 23.33 0 00-2.81-6.51c-3.25-5-4.5-9.14-3.27-13.3s10-7 13.34-8.86 4.33-3.67 9.82-6.31c8.25-4 14.8-2.16 27.76-.27s35.68 12.48 41.31 16.07 2 5.66.19 5.28c3.43 1.3 5.17 4.18 5.09 6.06s-1.63 2.33-7.73.16c3.55 2.32 2.64 4.73-.95 4.23C380 94 372.29 91.29 370.27 90c1.76 2.2 1.83 3.64.66 4.77-2.76 1.29-5.65-.19-10.61-1.38 2.67 6.56-5 5.13-7.71 3.58.75 5.13-4.09 4.94-7.14 3.57 2.44 1.93 9 11.52 10.32 13.78 1.1 2.21 2.69 8-4.2 1.08-2.24-2.24-.3.17-4.35-4.91 3.93 4.89 2.25 2.45 4.64 5.47 5.1 6.47 5.37 7.83 4.08 9.11-2 .29-4.31-2-13.75-12.94 11.94 14.8 5.74 13.46 4.71 13s-5.74-4.41-8.92-7.67l-.63-.6c.76 1-.66-.24 0 .6.83 1.08 1.39 2.85.15 4.09a2.22 2.22 0 01-2.75 0c-1.93-1.87-7-5-8.31-6.14 2.45 2 6.81 4.75 8.31 6.14 2.16 2 3.41 4.21 2.17 5.83-.61.8-2.64.72-4-.48-.35-.3-5.53-4-7.28-5.36 3.07 2.29 8.07 5.86 9.54 7.12 1.94 1.66 4.95 6 4 7.45a1.51 1.51 0 01-.58.52c-1.34.69-3.74-.51-4.43-1.09s-7.38-5.59-9.65-7.27c1.23 1 8.61 6.52 9.46 7.14 1.41 1 2.45 5.28 1.08 6.11s-2.27.43-3.46-.14-5.47-4.27-8.08-6.31c2.13 1.71 6.81 5.28 7.8 6.27.53.53 3.45 4.61 1.7 5.93-1.09.82-3.59.57-5.39-.62-.89-.58-2.61-2-3.79-2.61" fill="none" stroke="#50d6cc" stroke-width=".58"/><path d="M298.39 86.09a10.79 10.79 0 01-.21-6.09c1.23-4.16 9.49-6.78 12.88-8.67s4.33-3.69 9.83-6.33c8.25-3.94 14.88-2.62 27.84-.73 7.09 1 17.24 4.46 25.68 8.36-8.78-3.57-17.67-6.94-25.85-8-9.06-1.16-18.1-3.78-27.46.72-5.71 2.75-7.3 4.91-9.86 6.34s-11.49 5.21-12.35 8.45-.08 3.51.1 4.45c.22 1.28 0 1.84-.6 1.5" fill="#50d6cc"/><path d="M313.74 130.94c1.7 1.39 5.48 3 6.24 1.58s.43-2.47-2.12-4.19c2 1.34 6.39-.46 2.08-4.45 5.15 2.43 5.77-3.18 3-5 2.93 1.15 4.92-2.55 1.52-4.93 2.22.52 4.87-1.18 1.65-4.23 5.82 3.86 9.89 2.62 8.24-1.46 6.48.34 2.23-5-3.07-7.88 6.39 2.33 9.32-2.57 5-4 5.1.15 6.53-3.78 1.23-5.2 3.64.18 8.75-3.38 1.94-5.46 14.66 5.94 20.53 1.94 13.59-2.43 2.07.38 6-5.12-1.56-5.79 4.06 1.1 11.91-3.73 1.8-6.12 0 0-9.4-2.33-13.25-2.91.34.43 11.4 2.86 13.24 3.43s4.16 1.9 3.55 3.33-2.89 2.24-6 1.65-10.18-2-10.79-2c1.14.33 10 2.76 10.87 3s4.61 1.29 4.17 3c-.53 1.93-2.46 1.84-3.84 1.75s-10.23-2.37-11.34-2.55 11.87 3.22 12.44 3.6 2.94 1.87 2.65 3-4.88 1.32-7.33.71-19.57-5.14-20-5c1.47.48 10.22 3.19 11.3 3.72s3.55 1.23 3.13 2.46-3.79 2.27-5.11 2-14-3.09-15.94-3.47c1.85.62 15.18 3.89 16.08 4.37s3.36 1.68 2.84 2.66-1.94 1.81-4.17 1.38-13.81-3.86-15-4.15c2 .86 14.05 4.81 14.8 5.38s2.51 1.33 1.61 2.39-4.21.88-5.63.55-11.67-3.52-12.81-3.85 10.86 4.39 11.91 4.95c2.27 1.19 7.09 5.28 6 6.12a3.6 3.6 0 01-3.69.14c-.34-.13-13.52-5.89-14.14-6.27 1.66.72 14 6.8 14.66 7.57a2 2 0 01-.43 2.75c-.86.42-2.95 0-5.45-1.34-2.74-1.43-10-3.94-12-3.94 1.85.43 8.52 3.08 9.93 4.23 1.18.94 1.75 2.23 1.13 2.75a3.36 3.36 0 01-3 .23 64.84 64.84 0 00-8.45-3.52c2.17 1 7.28 3.78 8.32 4.51 1.32 1 2.31 2.53 1.84 3.38s-2 1-3 .56-10.92-4.85-12-5.27 10.77 5.33 11.72 6.22 2.22 3 1.55 4-2.46.94-4 .14c-1.78-1-8.61-5.14-9.55-5.9 1.32 1 8.89 6.46 9.55 7.41s1.68 2.43 1 3-2.92.18-3.45-.25-8.74-6-9.59-6.49c1.94 1.74 8.89 7.49 9.69 8.16s2.69 2.52 1.84 3.14-4.11-1.17-4.78-1.47-2-.65-2.31-.86 2.31 1.86 1.36 2.62-.94.43-2 .58c1 .75 3.88 3.22 2.27 4.46s-4.87-1.05-5.1-1.52 1.42 1.89.37 2.7-2.74-.28-3-.52 1.61 1.14.52 2.28-1.84-.23-2.13-.52c-.13.33-.05 1.38-1.05 1.38-.7 0-1.12-.72-1.5-1.14 0 .33.5 2.21 1.7 1.9.7-.18 1.09-.66 1.08-1.05.43.48 1.8.86 2.32.34a1.87 1.87 0 00.33-1.91 2.16 2.16 0 002.22 0 1.53 1.53 0 00.38-1.86c.66.71 3.41 1.9 4.69.15s-.9-3.7-1.47-4.13c.52.14 2.36-1 .62-2.55" fill="#50d6cc"/><path d="M338.2 63c6.06.38 8.23 1.9 7.71 4.27-.37 1.67-2.46 1.71-3.59 1.52 1.69 1 1.45 2.28 1.31 3.52-.19 1.71-1.85 2.52-3.59 2.55 1.09.34 2.93 1.44 2.64 3a2.42 2.42 0 01-2.55 2.27c1 .38 2.6 1.1 2 3.29s-2.37 2.22-5.68 1.42c3 .85 5.11-.61 5.11-1.67a2.51 2.51 0 00-2-2.56c-1.32-.19-12.81-3.33-13.57-3.33 2 .19 12.1 2.2 12.87 2.28s2.72-.38 2.88-1.33c.29-1.7-1.23-2.65-2.45-2.94l-11.41-2.66c2 .24 9.55 1.45 10.32 1.47 1.79.11 4.45-.42 4.53-1.88.06-.88-.37-2.62-1.41-3.1A36.94 36.94 0 00331 67.43a65.31 65.31 0 0110.36.77c2 .2 3.7-.37 3.84-1.23.24-1.62-1.42-3.42-6.94-4" fill="#50d6cc"/><path d="M372.87 71.15c10.78 4.85 19.13 8.7 17.82 11.36-.71 1.41-2.1 1.15-2.76 1.25 4 1.26 5.73 5.4 4.79 7.1s-6.81-.72-7.43-.88c1.37.69 3.59 2.83 1.32 4.07s-14.33-2.58-16.35-4.05c.94.83 2 2.73 1.13 4.24-1.48 2.63-9.66-.57-11.08-.84.63 1.51.85 3.64-.52 4.36-2.27 1.17-5.43 0-7.14-.68.19 1.09 0 3.49-1.94 4a7.78 7.78 0 01-5.81-1c-3-1.71-9.84-3.8-11.67-4.89 1.79.56 11 3.85 11.86 4.13 2.27.77 4.94 1.11 5.82.53s1.28-3-.24-3.56-14.22-5.29-15.46-5.69 15.84 4.81 17.17 5.29 5.82 1.89 6.72.91c1-1.14.66-3.8-.85-4.37s-18.1-6.24-19.91-6.9c2.36.66 21.55 6.61 22.79 7 .71.19 7.71 2.28 8.75 1.43s.66-3-1.23-4.13-14.7-6-17.16-6.8c6 1.89 16.84 5.44 19.24 6.33 1.8.66 11.49 4.08 13.38 4 3.17-.15 2.85-1.81-.23-3.43-2-1-26-10.18-32.38-12.37 5.15 1.53 29.74 9.89 33.19 11.13 2.91 1 6.66 2.39 7.09 1.21 1.1-3-3.82-5.47-5.71-6.24s-14.19-5.89-33.48-12.17C363.28 73.25 385.5 82.71 387 83c1 .16 3.59.26 3.07-1.56-.3-1-1.81-2.67-17.22-10.24" fill="#50d6cc"/><path d="M344.09 99.43c1.79.34 11 13.4 11.69 14.86s1.58 3.67.63 4.25-3.69-1-5.48-3A14.56 14.56 0 00354 118c.79.42 4.53 6.15 2.33 7.41s-5.65-2.91-6.59-4-3.54-4.42-4-4.89 6.14 7.89 3.5 9.06c-2.28 1-5.49-2.08-6.34-2.74s-11.29-11-10.2-11.13c.47-.37 9.59 9.46 10.91 10.51s3.45 3.18 5 2.7-1-4.41-1.42-5-7.51-10.94-8.4-11.92c2 2.33 10.35 11 11.43 12.26s4.2 5.42 5.53 4.37-2.27-6.51-3.16-7.5c-2.55-1.91-10.49-12.46-12.66-15.35 4.15 4.32 11.52 12.78 12.23 13.59s3.07 3 3.73 2.52-.66-3.51-1.17-4.18-8.31-11.26-10.58-14.2M320.84 72c1.46.52 5.37 1.33 4.63 4-.52 1.85-3.31 1.09-4.07 1.19a1.92 1.92 0 01.33 2.76c-.76 1.23-3.17 1.41-4.45.93 1.23.72 1.93 1.64 1.32 2.86s-1.85 1-2.79 1c1 .51 2.47 1.42 1.65 3.18-.57 1.23-1 .9-1.89 1.09a2.14 2.14 0 011.89 2.37 2 2 0 01-1.79 2 2.81 2.81 0 01-1.24 5c.48.38 1.2.53.86 2.28a1.94 1.94 0 01-2 1.62 2.44 2.44 0 011.23 2.84c-.24 1.33-1.8 1.7-2.56 1.62a37.56 37.56 0 01-4.35-.86c1.28-.13 3.5.1 4.45.1s1.57-.19 1.7-1a2 2 0 00-.95-2.17 17.87 17.87 0 00-3.21-1.24c1.37 0 2.51.33 3.21.2s1.71-.43 1.8-1.35.06-1.17-.8-1.55a22 22 0 00-3.81-.96c1.42.09 2.93 0 3.78 0a2.58 2.58 0 002.09-1.67 2 2 0 00-1.09-2.37c-.81-.37-3.93-.39-4.82-.72 1.27-.38 4.21-.08 4.87-.19a1.87 1.87 0 001.75-1.56c.13-.65-.47-1.37-1.23-1.66a52.7 52.7 0 01-5.06-1.7c1.23-.15 3.59.61 4.54.51s1.79-.46 1.9-1.13c.14-.9-.57-1.66-1.52-2.14a37.72 37.72 0 01-3.92-2.08c2.22.34 3.35.9 4.3.91s2.14 0 2.32-.63a1.53 1.53 0 00-.56-1.75c-.67-.57-3.6-2.61-4.49-3.43 2.22.66 3 1.46 4.06 1.81 1.56.52 3.74.14 4.12-.62s.47-1.46-.38-2c-.63-.38-4.3-1.81-5.53-2.52 2.65.52 4 1.1 5.25 1.38.79.18 4 .67 4.4-.57.32-1-.43-2-3.93-3.76M325.67 70.45c-1.51-1.86-3.83-.38-2.13 1.77-.62-2.15.42-2.67 2.13-1.77M319 68c2.64 1.4 4.64-1.16 2.26-2.92-.16-.11-.15.29-.35.19 1.6 1.79.64 3-1.91 2.73" fill="#50d6cc"/><path d="M314.77 73.57c3.39 1.8 5.93-1.83 2.08-3.95 2.23 2.79 1 4.23-2.08 3.95M305.12 78.92c3.39 1.81 9.1-2.76 5.24-4.87 2.24 2.78-2.16 5.15-5.24 4.87M307.83 79.61c.65.9 1.22 4-2.28 4.08 1.14.66 1.7 1.28 1.52 2.19-.29 1.37-1.4 1.29-2.37 1.61 2.46.86 4.92 1.19 2.22 4.22 3.17-1.61 1.67-3.66-.33-4.13.43-.24 2.13-2 .81-3.66 1.09-.09 2.74-3.07.43-4.31M299.73 80.79c1 0 3 .64 2.93 2.56a2.12 2.12 0 01-.94 1.76 2.19 2.19 0 01.28 3.09c.05-.82.47-2.66-2.51-2.85.95-.43 1.57-.29 2.08-1a1.83 1.83 0 00.06-2.17 6.19 6.19 0 00-1.9-1.34M301.82 89.86c1.6-.22 3.68-.32 3.15 2.53 1.38-.34 3.74 1.18 2.08 3.22.95.62 1.94 2.38.38 3.56 1.14 1.79 1.37 3 0 3.75.48 1.9 1.65 3.89-1.93 5a2.71 2.71 0 001.5-3.72c-.71-1-.57-.9-1.61-1.37 1.32-.58 2.08-.24 2.08-2a2.28 2.28 0 00-1.65-1.8c1.41-.42 1.46-.85 1.32-1.85a2.12 2.12 0 00-1.69-1.6c.56-.25 1.89-1.1 1.17-2.05s-2.22-.42-3.17-.24c.71-.76 1-1.9.62-2.33a5.5 5.5 0 00-2.25-1.14M303.78 111.57c.85-.3 4.25.05 3.68 3.48s-.14-1.14-1.36-2.29c-1-.92-3-1-2.32-1.19M318.39 152.81c-2.71-3.05-3.22-3.76-3.22-3.76s.16.16 3.68 3.36l-.46.4M308.61 146.29c2 .72 3.17-.09 2.66-1.95 1.89 1.32 3.73.87 3.69-1.61 2.36.86 3.08-.28 2.6-2.27 4.58.43 3.64-3 2.22-4.37 1.42 1.33 1.9 4.27-2.69 3.85.47 2-.25 3.13-2.6 2.27.05 2.47-1.8 2.95-3.7 1.61.52 1.85-.19 3.18-2.18 2.47M320.07 149.39c-.2.51-1.15 1.27-3.23-.11 1.66.28 2.11.46 2.56-.43.75-1.51-2-3.46-2-3.46.86.32 3.59 1.75 2.7 4M323.38 144.21c-.62.8-1.61 1.19-3.41.09 1.66.28 2.3.27 2.74-.6.76-1.53-.7-3-.7-3 .86.34 2.27 1.23 1.37 3.47M311.38 129c.37 0-1.19.67-.72 1.33s.29.81.8.9-1.55.23-1.6-.71.47-1.62 1.52-1.52M309.05 132.65c.1.48-1.14 3.71-4.25 1.19-2.43-2-.05-3.89 2.08-3.33-.47.15-3.26.38-1.33 2.71 1.47 1.75 3.27.09 3.5-.57M303.76 133.26c.43.62 1.29 2.06.28 3.15-.61.66-1.85.47-2.6.09 0 .51-2.17 2.74-3.36-.53.48.33 1.42 1.14 2.18.77a1.18 1.18 0 00.43-1.67c-.14-.33 1.82 1.56 2.83.72s.24-2.53.24-2.53M301.79 113.65c-.12-.7 4.44 1.38 3.21 3.76s-3.93.38-4.26-.14 2.35 1.12 3.22 0c1.18-1.48-2.08-3.08-2.17-3.66M303.91 120c.61.29 2.27 3.51-1.33 3.86s-2.12-3.66-1.6-4-1.13 3.28 1.56 3 1.37-2.82 1.37-2.82" fill="#50d6cc"/><path d="M300 123.45a1.68 1.68 0 00-1.54 1.2c-.76 1.86 1.71 2.87 2.47 3.06s2.66.52 3.36-.7c1-1.75-2-3.14-2.85-3.3a5.32 5.32 0 00-1.44-.26zm.65.86a4.71 4.71 0 01.66.1c1.41.23 2.85 1.34 2.15 2.16s-2.29.57-2.67.45-2.21-1.08-1.58-2a1.53 1.53 0 011.44-.68z" fill="#50d6cc"/><path d="M301.92 127.85c1 .34 2.88 4.27-1.48 4.19s-2.59-3.14-1.69-4c.09.48-1.91 3.36 1.69 3.19 3.08-.15 1.57-2.76 1.48-3.38M305.91 126.09c-.4 0-.85.11-1.21 1-.56 1.36.91 2 1.47 2.17a1.92 1.92 0 002.22-.6c.76-1.31-1.22-2.26-1.84-2.39a5.58 5.58 0 00-.64-.18zm.45.69h.24c1.06.18 1.85.91 1.33 1.52a1.66 1.66 0 01-1.7.43c-.28-.1-1.28-.72-.81-1.43.35-.53.68-.58.94-.55z" fill="#50d6cc"/><path fill="none" stroke="#a3a3a3" stroke-linecap="round" stroke-linejoin="round" stroke-dasharray="5 5" d="M53.2 1.23H3.69v128.98M51.36 303.94H3.69V165.92"/><path d="M4.84 147.4a2.85 2.85 0 011.82 2.74 3.08 3.08 0 01-3.26 3.09A3.71 3.71 0 01.62 152l.89-1c.15.16.08.32.22.48a2.29 2.29 0 001.66.72 2.13 2.13 0 002.13-2.2c0-1.26-1-2-2.49-2a3.27 3.27 0 00-.54 0v-1a4.18 4.18 0 001.68-.26 1.88 1.88 0 001.13-1.67 1.72 1.72 0 00-1.85-1.65 2.51 2.51 0 00-1.82.81l-.63-.67a3.44 3.44 0 012.54-1.14 2.79 2.79 0 012.92 2.69 2.44 2.44 0 01-1.62 2.29z"/><path fill="none" stroke="#a3a3a3" stroke-linecap="round" stroke-linejoin="round" stroke-dasharray="5 5" d="M588.74 30.87H34.76v101.84M587.24 274.61H34.76V165.92"/><path d="M26.3 142.38a3 3 0 013.07 3 4.79 4.79 0 01-1.86 3.34 14.22 14.22 0 00-2.89 3.28h4.45a.22.22 0 00.18-.07s.12-.12.23-.08v1.19h-6.22v-.75a12.64 12.64 0 013.08-3.94c.77-.69 1.85-1.62 1.85-2.91a2 2 0 00-2-2 2.2 2.2 0 00-1.81 1c-.09.14-.05.25-.15.39l-.87-.69a3.47 3.47 0 012.94-1.76zM34.57 153.24a1 1 0 110-2 1 1 0 110 2zM45.34 142.44v6.63h1.36v1.06h-1.36v2.92H44.1v-2.93h-4.27v-.89l4.51-6.79zM41 149.07h3.11v-4.73zM295.37 321.88V323H291l-.16 3.05a3.93 3.93 0 011.73-.41c1.77 0 3.2 1.27 3.2 3.54a3.26 3.26 0 01-3.34 3.54 3.78 3.78 0 01-3.14-1.63l1.05-.8c.15.11.06.28.13.4a2.52 2.52 0 001.94 1 2.55 2.55 0 000-5 2.58 2.58 0 00-2 1l-.76-.3.37-5.39z"/><path fill="none" stroke="#a3a3a3" stroke-linecap="round" stroke-linejoin="round" stroke-dasharray="5 5" d="M59.83 311.33v16.06h219.15M565.41 311.33v16.06H307.53"/><path d="M578.44 261.65a2.71 2.71 0 011.56.35 3.5 3.5 0 011.27 3.05 3.33 3.33 0 01-1.52 3.17 3 3 0 01-1.48.28h-1.47v-6.86zm-.88 6.25h.7a2.07 2.07 0 001.28-.31 2.73 2.73 0 001-2.43 3.22 3.22 0 00-.85-2.48 1.85 1.85 0 00-1.29-.38h-.83zM585.89 261.19l.65.33-3.45 7.48-.65-.32zM590.54 268.51h-.77v-5.92l-1.38.41-.18-.42 1.79-.94h.54zM595.52 261.6a1.94 1.94 0 012 1.92 3.07 3.07 0 01-1.2 2.16 9.1 9.1 0 00-1.87 2.15h2.88a.16.16 0 00.12-.05.14.14 0 01.14 0v.77h-4V268a8.37 8.37 0 012-2.56 2.74 2.74 0 001.2-1.88 1.3 1.3 0 00-1.32-1.3 1.44 1.44 0 00-1.17.62c-.06.09 0 .16-.09.25l-.56-.44a2.23 2.23 0 011.87-1.09z"/><path fill="none" stroke="#a3a3a3" stroke-linecap="round" stroke-linejoin="round" stroke-dasharray="5 5" d="M211.49 255.54h377.25M588.74 30.87v89.16M211.49 249.45h377.25v-99.98"/><path d="M587.88 128.41a4.19 4.19 0 012.47.57c1.36.89 2 2.67 2 4.71 0 2.32-.83 4.12-2.34 4.91a4.71 4.71 0 01-2.29.42h-2.32v-10.61zm-1.35 9.67h1.09a3.26 3.26 0 002-.48c.84-.57 1.51-1.73 1.51-3.75a4.94 4.94 0 00-1.33-3.85 2.85 2.85 0 00-2-.58h-1.28z"/></svg>