<svg xmlns="http://www.w3.org/2000/svg" width="300" height="300" viewBox="0 0 300 300"><title>flag-hawaii-icon-stripes</title><path d="M272.5,227.24H7.67c-.76,0-4.54.55-5.14,0s0-5.6,0-6.51V76.21c0-1.77-.4-1.81,1.22-1.9,2.93-.15,5.91,0,8.84,0h258.5c1.61,0,1.44-.15,1.44,1.51V227.24Z" fill="#fff" stroke="#000" stroke-linecap="round" stroke-linejoin="round" stroke-width="2"/><path d="M2.5,112.4H269.88c.4,0,2.28.28,2.6,0s0-3.3,0-3.86v-10c0-.75.55-4.75,0-5.29-.09-.09-.47,0-.58,0-1-.42-3.15,0-4.26,0H7.84c-1.34,0-3.24-.35-4.54,0-.15,0-.66-.11-.78,0-.4.36,0,3.35,0,3.86Z" fill="#fff" stroke="#000" stroke-linecap="round" stroke-linejoin="round" stroke-width="2"/><path d="M2.5,131.54H269.88c.4,0,2.28.28,2.6,0s0-3.3,0-3.86v-10c0-.75.55-4.75,0-5.29-.09-.09-.47,0-.58,0-1-.42-3.15,0-4.26,0H7.84c-1.34,0-3.24-.35-4.54,0-.15,0-.66-.11-.78,0-.4.36,0,3.35,0,3.86Z" fill="#fff" stroke="#000" stroke-linecap="round" stroke-linejoin="round" stroke-width="2"/><path d="M2.5,169.82H269.88c.4,0,2.28.28,2.6,0s0-3.3,0-3.86V156c0-.75.55-4.75,0-5.29-.09-.09-.47,0-.58,0-1-.42-3.15,0-4.26,0H7.84c-1.34,0-3.24-.35-4.54,0-.15,0-.66-.11-.78,0-.4.36,0,3.35,0,3.86Z" fill="#fff" stroke="#000" stroke-linecap="round" stroke-linejoin="round" stroke-width="2"/><path d="M2.5,189H269.88c.4,0,2.28.28,2.6,0s0-3.3,0-3.86v-10c0-.74.55-4.75,0-5.29-.09-.09-.47,0-.58,0-1-.42-3.15,0-4.26,0H7.84c-1.34,0-3.24-.35-4.54,0-.15,0-.66-.11-.78,0-.4.36,0,3.35,0,3.86Z" fill="#fff" stroke="#000" stroke-linecap="round" stroke-linejoin="round" stroke-width="2"/><path d="M2.5,227.24H269.88c.4,0,2.28.28,2.6,0s0-3.3,0-3.86v-10c0-.74.55-4.75,0-5.29-.09-.09-.47,0-.58,0-1-.42-3.15,0-4.26,0H7.84c-1.34,0-3.24-.35-4.54,0-.15,0-.66-.11-.78,0-.4.36,0,3.35,0,3.86Z" fill="#fff" stroke="#000" stroke-linecap="round" stroke-linejoin="round" stroke-width="2"/></svg>