<svg xmlns="http://www.w3.org/2000/svg" width="600" height="400" viewBox="0 0 600 400"><path d="M0 0h300v200H0z"/><path d="M0 200V33.33l50 33.34V200h50V0h50v200h50V0h50v200h50v-33.33L50 0v66.67L250 200z" fill="#eaab00"/><path fill="#fff" d="M300 0h300v200H300z"/><path d="M450 0h150v100H300v100h150z" fill="#981e32"/><path d="M450 186a12.8 12.8 0 0012.8-12.8v-6.4h12.4a12.8 12.8 0 100-25.6h-12.4v-28.4h79.6v12.4a12.8 12.8 0 1025.6 0v-12.4h11.2A12.8 12.8 0 00592 100H450z" fill="#981e32"/><path d="M450 186a12.8 12.8 0 01-12.8-12.8v-6.4h-12.4a12.8 12.8 0 110-25.6h12.4v-28.4h-79.6v12.4a12.8 12.8 0 01-25.6 0v-12.4h-11.2A12.8 12.8 0 01308 100h142zM450 14a12.8 12.8 0 0112.8 12.8v6.4h12.4a12.8 12.8 0 110 25.6h-12.4v28.4h79.6V74.8a12.8 12.8 0 1125.6 0v12.4h11.2A12.8 12.8 0 01592 100H450z" fill="#fff"/><path d="M450 14a12.8 12.8 0 00-12.8 12.8v6.4h-12.4a12.8 12.8 0 000 25.6h12.4v28.4h-79.6V74.8a12.8 12.8 0 00-25.6 0v12.4h-11.2A12.8 12.8 0 00308 100h142z" fill="#981e32"/><path fill="#fff" d="M0 200h300v200H0z"/><path d="M150 200h150v100H0v100h150z" fill="#981e32"/><path d="M150 386a12.8 12.8 0 0012.8-12.8v-6.4h12.4a12.8 12.8 0 100-25.6h-12.4v-28.4h79.6v12.4a12.8 12.8 0 0025.6 0v-12.4h11.2A12.8 12.8 0 00292 300H150z" fill="#981e32"/><path d="M150 386a12.8 12.8 0 01-12.8-12.8v-6.4h-12.4a12.8 12.8 0 110-25.6h12.4v-28.4H57.6v12.4a12.8 12.8 0 11-25.6 0v-12.4H20.8A12.8 12.8 0 018 300h142zM150 214a12.8 12.8 0 0112.8 12.8v6.4h12.4a12.8 12.8 0 010 25.6h-12.4v28.4h79.6v-12.4a12.8 12.8 0 1125.6 0v12.4h11.2A12.8 12.8 0 01292 300H150z" fill="#fff"/><path d="M150 214a12.8 12.8 0 00-12.8 12.8v6.4h-12.4a12.8 12.8 0 100 25.6h12.4v28.4H57.6v-12.4a12.8 12.8 0 00-25.6 0v12.4H20.8A12.8 12.8 0 008 300h142z" fill="#981e32"/><path d="M300 200h300v200H300z"/><path d="M300 400V233.33l50 33.34V400h50V200h50v200h50V200h50v200h50v-33.33L350 200v66.67L550 400z" fill="#eaab00"/></svg>