<svg xmlns="http://www.w3.org/2000/svg" width="146" height="300" viewBox="0 0 146 300"><path d="M73 34.19S2 87 2 149.25s71 116.56 71 116.56 70.47-49.81 70.47-116.56S73 34.19 73 34.19z" fill="none" stroke="#000" stroke-linecap="round" stroke-linejoin="round" stroke-width="2" fill-rule="evenodd"/><path d="M140.35 173.71a12.32 12.32 0 01-2.6 1.32 30 30 0 01-3.87 1.16 84 84 0 01-10.28 1.61c-3.88.39-8.14.66-12.54.83s-8.94.25-13.39.26c-8.89 0-17.43-.22-23.74-.46s-10.4-.49-10.4-.49l-3.65 9.3 76.12.1a115.67 115.67 0 004.35-13.63z" fill="#fff" stroke="#000" stroke-linecap="round" stroke-linejoin="round" fill-rule="evenodd"/><path d="M136 187.34l-125.84-.17C28.8 232 73 265.81 73 265.81s44.87-31.73 63-78.47z" fill="#fff" stroke="#000" stroke-linecap="round" stroke-linejoin="round" fill-rule="evenodd"/></svg>