<svg xmlns="http://www.w3.org/2000/svg" width="186" height="300" viewBox="0 0 186 300"><title>flag-utah-icon-1896</title><path d="M23.34,173.61H13.81V139A32.46,32.46,0,0,1,1.51,146v-8.32a25.52,25.52,0,0,0,8.05-4.5,16.56,16.56,0,0,0,6-7.63h7.72v48.09Z" fill="#fff" stroke="#000" stroke-linejoin="round" stroke-width="1.5"/><path d="M58.44,147.36A11.44,11.44,0,0,1,53,143.2a10.6,10.6,0,0,1-1.73-5.81,11.42,11.42,0,0,1,3.89-8.92c2.6-2.34,6.33-3.47,11.18-3.47s8.5,1.13,11.09,3.47a11.5,11.5,0,0,1,4,8.92,10.19,10.19,0,0,1-1.82,6,11.91,11.91,0,0,1-5.11,4A13.35,13.35,0,0,1,80.88,152a11.91,11.91,0,0,1,2.17,7.1A14.25,14.25,0,0,1,78.63,170c-2.95,2.78-6.93,4.16-11.79,4.16a17.89,17.89,0,0,1-11.35-3.46,13,13,0,0,1-5.37-11.09,13.86,13.86,0,0,1,2-7.2,12.58,12.58,0,0,1,6.33-5m1.12,11.35a8.34,8.34,0,0,0,2,5.89,6.91,6.91,0,0,0,5.11,2.17,6.51,6.51,0,0,0,4.94-2.08,8.36,8.36,0,0,0,2-5.89,7.66,7.66,0,0,0-2-5.46,6.65,6.65,0,0,0-5-2.08,6.24,6.24,0,0,0-5.28,2.34,8.07,8.07,0,0,0-1.74,5.11m.78-20.62A5.29,5.29,0,0,0,62,142.33a6.46,6.46,0,0,0,4.33,1.56,6.25,6.25,0,0,0,4.42-1.56A5.6,5.6,0,0,0,72.39,138a5.35,5.35,0,0,0-1.65-4.16,6,6,0,0,0-4.33-1.56A6.26,6.26,0,0,0,62,133.84a5.54,5.54,0,0,0-1.65,4.25" fill="#fff" stroke="#000" stroke-linejoin="round" stroke-width="1.5"/><path d="M101.59,162.78l9.1-.95a6.86,6.86,0,0,0,1.82,4.07,4.93,4.93,0,0,0,3.73,1.3,6.18,6.18,0,0,0,5-2.69c1.39-1.81,2.26-5.37,2.6-10.91a11.57,11.57,0,0,1-8.92,4.07,13.48,13.48,0,0,1-10.06-4.42c-2.85-2.95-4.24-6.76-4.24-11.44,0-4.85,1.47-8.84,4.42-11.78a16.29,16.29,0,0,1,23.65,1.21c3.21,3.81,4.86,10,4.86,18.72,0,8.84-1.65,15.16-5,19.06a16.5,16.5,0,0,1-13.08,5.89,14.28,14.28,0,0,1-9.36-3c-2.34-2.08-3.81-5.11-4.51-9.1M123,142.59c0-3-.7-5.28-2.08-6.93a6.2,6.2,0,0,0-4.86-2.43,5.56,5.56,0,0,0-4.33,2c-1.13,1.3-1.73,3.55-1.73,6.58s.6,5.37,1.9,6.85a6.14,6.14,0,0,0,9.28.08c1.21-1.38,1.82-3.46,1.82-6.15" fill="#fff" stroke="#000" stroke-linejoin="round" stroke-width="1.5"/><path d="M182.7,137.31l-9.44,1a6.88,6.88,0,0,0-1.82-4.15,5.57,5.57,0,0,0-3.82-1.39,6.27,6.27,0,0,0-5.2,2.69c-1.38,1.82-2.34,5.45-2.68,11.09a11.56,11.56,0,0,1,9.1-4.16,14,14,0,0,1,10.48,4.5,16,16,0,0,1,4.33,11.53c0,5-1.56,9-4.59,12S172.13,175,167.28,175a16,16,0,0,1-12.66-5.72c-3.29-3.81-4.93-10.14-4.93-18.89,0-8.93,1.73-15.42,5.19-19.41a17,17,0,0,1,13.44-6,14.55,14.55,0,0,1,9.61,3.12,16.44,16.44,0,0,1,4.77,9.19m-22.1,20.45c0,3,.7,5.37,2.17,7.1a6.6,6.6,0,0,0,5,2.51,5.89,5.89,0,0,0,4.5-2c1.22-1.39,1.82-3.55,1.82-6.67s-.6-5.46-1.9-6.93a6.42,6.42,0,0,0-9.62-.18,8.77,8.77,0,0,0-2,6.16" fill="#fff" stroke="#000" stroke-linejoin="round" stroke-width="1.5"/></svg>