<svg xmlns="http://www.w3.org/2000/svg" width="600" height="416" viewBox="0 0 600 416"><path fill="none" stroke="#a3a3a3" stroke-linecap="round" stroke-linejoin="round" stroke-dasharray="5 5" d="M20.21 1.97H4.11v189.28M18.38 383.71H4.11V218.97"/><path d="M4.14 200.85a3 3 0 013.08 3 4.76 4.76 0 01-1.87 3.34 14.21 14.21 0 00-2.88 3.31h4.44a.24.24 0 00.19-.07.23.23 0 01.23-.08v1.19H1.11v-.75a12.61 12.61 0 013.07-3.94C5 206.14 6 205.21 6 203.92a2 2 0 00-2-2 2.21 2.21 0 00-1.81 1c-.09.14 0 .25-.15.39l-.86-.69a3.44 3.44 0 012.96-1.77zM312.1 408a2.84 2.84 0 011.82 2.73 3.07 3.07 0 01-3.26 3.09 3.7 3.7 0 01-2.78-1.2l.89-1.07c.15.15.08.32.22.48a2.3 2.3 0 001.66.72 2.13 2.13 0 002.13-2.16c0-1.27-1-2-2.49-2a4.9 4.9 0 00-.54 0v-.95a4.1 4.1 0 001.68-.27 1.86 1.86 0 001.13-1.67 1.73 1.73 0 00-1.85-1.65 2.52 2.52 0 00-1.82.82l-.66-.74a3.47 3.47 0 012.54-1.13 2.79 2.79 0 012.92 2.68 2.46 2.46 0 01-1.59 2.32z"/><path fill="none" stroke="#a3a3a3" stroke-linecap="round" stroke-linejoin="round" stroke-dasharray="5 5" d="M26.36 393.47v15.02h274.72M598.97 393.47v15.02H325.14"/><path d="M26.36 383.71H599V2H26.36z" fill="#fff" stroke="#50d6cc" stroke-linecap="round" stroke-linejoin="round"/><path d="M181.87 345.4c0-2.12-.39-2.5-1.69-2.5h-.59v-1c1 0 2.24.06 4.64.06 1.26 0 2.69-.06 4.11-.06 5.57 0 9 3.56 9 7.92 0 4.21-2.95 7.86-8.29 7.86-1.26 0-2.88-.06-4.86-.06-2.4 0-3.63 0-4.64.06v-1h.59c1.3 0 1.69-.37 1.69-2.49zm4.72 8.33c0 2.12.75 2.63 2.24 2.63 2.52 0 3.43-2.63 3.43-6.57 0-4.55-1.26-6.64-4.28-6.64-1.1 0-1.39.13-1.39 1v9.58M210.69 352.43h-1a2.38 2.38 0 00-2.51-2.36h-.77v3.6c0 1.93.58 2.69 3.05 2.69 2.78 0 3.82-1.19 4.53-4h1v5.24c-2.14 0-6.16-.06-11-.06-2.4 0-3.63 0-4.64.06v-1h.65c1.3 0 1.69-.37 1.69-2.51v-8.69c0-2.12-.39-2.5-1.69-2.5h-.58v-1c1 0 2.24.07 4.64.07 5.28 0 8.13-.07 10.23-.07v4.5h-1c-.67-2.38-1.49-3.21-5-3.21-1.75 0-1.85.12-1.85.8v4.85h.77c1.63 0 2.31-1 2.51-2.55h1v6.17M231.29 341.71h1.29l.17 5.32h-1.3c-.49-1.85-1.68-4-4.37-4s-4.51 1.78-4.51 6.82c0 4.5 2 6.45 4.44 6.45 2.85 0 4.21-2.24 4.63-4.3h1.43v5.58h-1.43l-.51-1.38a9.29 9.29 0 01-5.7 1.9c-4.35 0-8-3-8-8.25a8 8 0 018.27-8.43 10 10 0 015.2 1.58l.39-1.32M246.7 352.43h-1a2.37 2.37 0 00-2.5-2.36h-.78v3.6c0 1.93.59 2.69 3.05 2.69 2.78 0 3.82-1.19 4.53-4h1v5.24c-2.13 0-6.15-.06-11-.06-2.4 0-3.63 0-4.64.06v-1h.64c1.3 0 1.68-.37 1.68-2.51v-8.69c0-2.12-.38-2.5-1.68-2.5h-.59v-1c1 0 2.24.07 4.64.07 5.28 0 8.13-.07 10.24-.07v4.5h-1c-.68-2.38-1.49-3.21-5-3.21-1.75 0-1.84.12-1.84.8v4.85h.77c1.62 0 2.3-1 2.5-2.55h1v6.17M268.4 341.87c.78 0 1.81.06 3.31.06 1.16 0 2.39 0 3.39-.06v1h-.58c-1.29 0-1.68.38-1.68 2.5v8.71c0 2.14.38 2.51 1.68 2.51h.58v1c-1 0-2.23-.06-4.27-.06-2.3 0-3.83 0-4.47.06v-1c1.46 0 2.07-.37 2.07-2.51v-8.65h-.06l-5.15 12.12H262l-5.25-12.31h-.06v8.19c0 2.74.71 3.16 2.33 3.16v1c-.69 0-1.46-.06-3-.06s-2.2 0-2.82.06v-1c1.43 0 2.11-.71 2.11-3.16v-8.03c0-2.12-.39-2.5-1.68-2.5H253v-1c1 0 2 .06 3.37.06s2.63 0 3.53-.06l4.37 10 4.15-10M278.76 345.4c0-2.12-.38-2.5-1.68-2.5h-.58v-1c1 0 2.23.06 4.63.06 1.75 0 3.49-.06 4.95-.06 4 0 5.67 1.68 5.67 3.75 0 2.41-2.33 3.55-5.05 3.88v.06c3.82.38 6 1.48 6 4.11 0 2.44-1.94 4-6.38 4-1.53 0-3.24-.06-5.15-.06-2.4 0-3.63 0-4.63.06v-1h.58c1.3 0 1.68-.37 1.68-2.51zm4.73 9.2c0 1.11.59 1.76 2.05 1.76s2.39-1.25 2.39-2.85c0-1.84-1-3.26-3.47-3.26h-1zm0-5.64h1c1.85 0 2.82-1.19 2.82-3a2.58 2.58 0 00-2.85-2.79c-.87 0-.94.22-.94.78v5M306.1 352.43h-1a2.36 2.36 0 00-2.49-2.36h-.78v3.6c0 1.93.58 2.69 3 2.69 2.78 0 3.82-1.19 4.53-4h1v5.24c-2.14 0-6.16-.06-11-.06-2.39 0-3.62 0-4.63.06v-1h.59c1.29 0 1.68-.37 1.68-2.51v-8.69c0-2.12-.39-2.5-1.68-2.5h-.59v-1c1 0 2.24.07 4.63.07 5.29 0 8.14-.07 10.24-.07v4.5h-1c-.69-2.38-1.49-3.21-5-3.21-1.74 0-1.84.12-1.84.8v4.85h.78c1.62 0 2.3-1 2.49-2.55h1v6.17M319.79 354.11c0 2.14.4 2.51 1.69 2.51h.59v1c-1 0-2.24-.06-4.64-.06s-3.63 0-4.63.06v-1h.59c1.29 0 1.68-.37 1.68-2.51v-8.71c0-2.12-.39-2.5-1.68-2.5h-.59v-1c1 0 2.24.06 4.63.06 1.72 0 3.41-.06 5.09-.06 4.24 0 6.15 1.5 6.15 3.85s-1.39 3.42-3.65 3.88l4.47 5.74c.73 1 1.06 1.25 1.64 1.28v1c-.61 0-1.46-.06-2.47-.06s-2 0-2.68.06l-5-7h-1.17zm0-4.86a10.72 10.72 0 001.11.06c2 0 3-1 3-3.07 0-2.31-1.07-3.09-3.14-3.09-.84 0-1 .19-1 .9v5.19M343.52 341.33h1.17a10.72 10.72 0 00-.12 1.41c0 .68.25.79 1 .79h10.66v1c-2.53 5.26-4.76 11.23-5.45 16.36-.35 2.72-.71 4.75-3 4.75a2.1 2.1 0 01-2.27-2.25c0-3.42 4.9-10.36 8-16.1H346c-1.88 0-2.24.55-3 3.27h-1.29l1.9-9.26M359.88 362.17c2-1.34 3.73-2.37 3.86-5a2.78 2.78 0 01-1.46.64 2.56 2.56 0 01-2.4-2.59 2.44 2.44 0 012.62-2.61c2.18 0 3.08 2 3.08 3.89 0 3.14-2.46 5.42-5.21 6.58l-.49-.91M379.33 343.73h1a29.75 29.75 0 005.77-.49h1v11c0 1.83.29 2.22 3 2.22v1.14c-1.07 0-2.68-.06-5.28-.06-2.2 0-4.34 0-5.44.06v-1.1c2.79-.05 3-.55 3-2.39v-7.24c0-1.66-.23-1.83-3-2v-1.16M397 341.33h1.16a10.7 10.7 0 00-.13 1.41c0 .68.26.79 1 .79h10.65v1c-2.52 5.26-4.76 11.23-5.44 16.36-.36 2.72-.71 4.75-3 4.75a2.1 2.1 0 01-2.27-2.25c0-3.42 4.89-10.36 8-16.1h-7.54c-1.88 0-2.24.55-3.05 3.27h-1.3l1.92-9.26M420.24 358c-4.38 0-7.1-2.52-7.1-5.59 0-2.33 1.36-3.93 4.28-5.26-2.72-1.61-3.56-3.5-3.56-5.75 0-3.31 2.62-5.92 6.83-5.92 3.89 0 6.42 2.06 6.42 4.92 0 1.92-1.17 3.4-3.34 4.53 2.59 1.57 4.05 3.39 4.05 6.24 0 4.06-2.98 6.83-7.58 6.83zm3.82-17.14c0-2.59-1.52-4.11-3.73-4.11a3 3 0 00-3.3 3.07c0 2 1.49 2.84 5.45 4.5a4.72 4.72 0 001.58-3.47zm-5.25 6.92a5 5 0 00-2.23 4.49c0 2.76 1.43 4.45 4 4.45a3.73 3.73 0 004.08-3.77c0-2.31-1.65-3.57-5.83-5.17M433 341.33h1.17a9.24 9.24 0 00-.13 1.41c0 .68.26.79 1 .79h10.66v1c-2.53 5.26-4.76 11.23-5.44 16.36-.36 2.72-.72 4.75-3 4.75a2.11 2.11 0 01-2.28-2.25c0-3.42 4.9-10.36 8-16.1h-7.55c-1.88 0-2.24.55-3 3.27h-1.3l1.91-9.26" fill="#50d6cc"/><path d="M516.91 192.85L312.66 64.53 108.41 192.85l204.25 128.31 204.25-128.31" fill="none" stroke="#50d6cc" stroke-linecap="round" stroke-linejoin="round"/><path d="M316.13 119h-8.31" fill="#fff"/><path d="M339 173.25c-4.57 1-8.44.71-16.08-.8-9.28-1.84-13.61-1.23-20.1.3a40.84 40.84 0 01-15 1.39M286.33 190.36c8.92.9 10.84.26 16.8-1.08 6.8-1.53 13.3-.92 21 .31 7.08 1.12 9 2.24 18.52-.64" fill="none" stroke="#50d6cc" stroke-linecap="round" stroke-linejoin="round" stroke-width="1.03"/><path d="M329.9 143.8a3.84 3.84 0 00.27-.29l.17-.6-.44.89" fill="#ffd93c"/><path d="M301.57 149.22c1.82 2.18 4.8 4.93 7.14 5.61a4.48 4.48 0 003.39 1.54c1.39 0 3.26.81 4.08-.19 1.35.25 2.88-.38 5.27-3a21.8 21.8 0 014.66-3.76M328 144c-.94-.92-1.69-3-3.14-2.93-2.41.55-2.22-2.32-4.32-2.51-3 .49-4.58-2.69-7.67-2-1.61-.12-2.53 1-3.65 1.6-2.6-1-4.94.61-6.68 2.51-2.16-.25-3.52 1.15-5 2.32-.63 0-1.16.19-1.85.11" fill="none" stroke="#50d6cc" stroke-linecap="round" stroke-linejoin="round" stroke-width="1.03"/><path d="M304.21 223.07l-2.33-.33h0c-21.64-4.09-21.64-21.23-21.64-24.48 0-1 0-2 .05-3a4.07 4.07 0 104.28-5.29c2.76-1.05 5-3.9 5.36-9.25.38-5.65-4.88-9.57-5.67-10.12a3.47 3.47 0 10-.7-6.4c-.36-2.33-.76-5.74.45-8.15-.25-.48.86-1.29.68-1.65.8-.79 1.85-2.32 2.78-3.18 1-.67 1.24-1 2.23-1.65.8-.37 2.16-.67 3.09-1 .87-.07 1.36-.37 2 .43l.43-.48a2.19 2.19 0 000 .36 3.21 3.21 0 006.41 0 3.14 3.14 0 00-1.29-2.53c-1.91-4-6-3.65-9.6-3.65-6.56.79-11.14 6.73-12.8 12.55 0 0-.37 1.82-.57 3.17" fill="none" stroke="#50d6cc" stroke-linecap="round" stroke-linejoin="round" stroke-width="1.03"/><path d="M280.78 169.36c.66.82 1.13 1.32 1.13 1.32l-.12.11.12.13c-.92.49-2.47 1.1-2.9 2.51a3.91 3.91 0 00.74 3.67 3.27 3.27 0 003.28 1c.5-.25 1-.74 1.42-1a14.37 14.37 0 01-1.12 7.71c-.74-.6-1.91-2-3.33-1.34a3.68 3.68 0 00-2.23 2.63 3.9 3.9 0 00.8 3.12c.44.19.56.49.87.74a9.63 9.63 0 00-5.31 6.55c-.87-1-2.17-1-3-2h-.81c.56 3.5-2.29 7.35.5 10.29v.3a8.22 8.22 0 00-2.79.43l-.12.56c3.89 1.52 2.66 7.1 7.23 8.14v.24a4.46 4.46 0 00-4.14.3c-.24.19-.18.44-.18.67.55.8 1.54.74 2.22 1.36 2.29 1.34 3.59 4.4 6.43 5.08a4.05 4.05 0 001.12 2.94c1.54.54 3.27 1.83 4.88 1 .18-.55 1.3-.91 1.24-1.72.24-.42-.5-.79.24-1.09 5.44.37 9.46 4.84 15.21 4.71" fill="none" stroke="#50d6cc" stroke-linecap="round" stroke-linejoin="round" stroke-width="1.03"/><path d="M282.19 191.78a6.26 6.26 0 00-2 3.76m-.73 26s2.08-3.4 6.87-2.07M295.21 148.52a3.62 3.62 0 011.46-1.44m-13.86 20.29s-.5-3.16 1.35-3.41m24.91-10.32s3.31 2.79 8.95.85m-9.94.12s-.73-6.44 3.44-6.8a4.2 4.2 0 014.78 4.25c-.12.73-1.71 1.09-1.71 1.09m1.71-1.09a23 23 0 003.32-.85c.74-.36 3.92-2.91 6.37-2.31m-12 .73s1.6 1.1.62 2.43" fill="none" stroke="#50d6cc" stroke-linecap="round" stroke-linejoin="round" stroke-width="1.03"/><path d="M327.56 226.87c.81-.24 2.23.06 3.34-.18 3.34-.73 6.87-2.81 10.33-1.35.67.3.37 1 .8 1.46 2-.11 5 .43 6.18-1.77a3.2 3.2 0 00-.18-3.67l-.55-.42a12.41 12.41 0 012.78-.74c2.4-.68 2.84-3 4.44-4.41-.79-.73-1.66.18-2.65-.12-.5-.36-1.23-.42-1.36-1 3.28-1 7.42-2.74 8.1-6.19.24-1.7 1.42-3.47-.31-4.94h0c-.68-.07-1.12.91-1.8 1.1.87-2.57.25-5 .12-7.72-.24-.86-.3-2.63-1.79-1.77-.24.43-.74.43-1.11.67-.31-2.08-.87-4.23-2.66-5.51a5 5 0 01-2.35-1.22c.25-.92 1.11-1.9.81-2.76a4.37 4.37 0 00-.86-1.54 3.53 3.53 0 00-2.83-1.43c-.6 0-1 1.22-1.48 1.48 0-.07-.83-2.29-.86-2.43a13.19 13.19 0 010-4.73c1.13-.18 2.25 1 2.92.15l.08-.07.06-.13a4.28 4.28 0 00.76-2.44 4.33 4.33 0 00-2.27-3.79c0-.06-.07-.12-.1-.19a9.94 9.94 0 003-3.48c1.65-2.85 2-10.34-.67-15.85a34.34 34.34 0 00-5.14-6.86c-3.4-2.26-7.79-3.55-11.93-1.89 0 0-2.12-.57-3.78 3.09v.08a3.19 3.19 0 105.71 2 3.06 3.06 0 00-.44-1.59l.12-.05c4.33.82 6.81 2.65 10.31 8.77 2.72 4.75 1.34 8.4.59 9.79a3.4 3.4 0 00-1.62-.39 3.45 3.45 0 00-.66 6.85 4.45 4.45 0 00-1.54 1.92c-1.05 1.49-1.56 3.85-1.1 7.75.61 5.16 3.73 7.15 5.29 7.85a4.61 4.61 0 00.28 9.21 4.74 4.74 0 003.46-1.52c4.34 11.26-4.7 22.26-20.78 26.9" fill="none" stroke="#50d6cc" stroke-linecap="round" stroke-linejoin="round" stroke-width="1.03"/><path d="M342.88 165.19s.91 1.81-.08 3m-12.88-22.09s1.71.08 1.95.57m24.81 58s-2.71 1.58-3.45 3.4m-10.79 12.14s1.84-1.56 4.78.37" fill="none" stroke="#50d6cc" stroke-linecap="round" stroke-linejoin="round" stroke-width="1.03"/><path d="M301 156.92h-.1a.2.2 0 00.1 0M299.79 155.36a1.14 1.14 0 01-.26 0 1.06 1.06 0 00.26 0M300.94 156.49h.22a.75.75 0 00-.22 0M300.72 156.9a1.5 1.5 0 01-.37 0c.11.06.27 0 .37 0M299.6 157.15l.17-.22c-.1 0-.12 0-.17.22M300 157.37" fill="#ffd93c"/><path d="M239.5 249.7c-3.59-.73-6.87-2.08-10.45-2.63a.4.4 0 00-.56.3l.31.37-.12.06a4.27 4.27 0 011 4c-.44.92-.74 2.26-2 2.45a5.57 5.57 0 01-5.26-.43 10.07 10.07 0 01-1.25-1.46l.24-.27.13.14a4.16 4.16 0 002.24 1.23c1.67.12 3.59 0 4.58-1.53a6.72 6.72 0 01.55-1.66c-.24-.62 0-1.47-.92-2.09.06-.24-.31-.36-.62-.42l.06-.12c-.37-.06-.37-.31-.74-.43a3.72 3.72 0 00-2.47 1.1c-.69-1.28 1.23-1.28 1.66-2a6.21 6.21 0 013.47-.43l2 .25-.06.07c.37.11 1 .36 1.29 0-.12-.19-.37-.07-.55-.19.24 0-.5-.13-.68-.37a13.73 13.73 0 00-3-.43 11.74 11.74 0 00-3.46 1c.12-1.11 1.72-1.3 2.66-1.72 1.42-.3 2.41.06 3.77.06v.13c.68.23 1.6 0 2 .36-.06.18.12.23.3.18h.37a9.4 9.4 0 001.67.92c2.29 1.22 4.33 1.28 6.87 2a2.38 2.38 0 012 0 .74.74 0 01-.37.54c-.07-.11-.19-.11-.32-.11l-.24.36c1.05.68 2.47.49 3.15 1.28-2 .13-3.95-.49-6.06-.43l-.61.31M231.46 240.45a3.22 3.22 0 001.11.56c-.06.06-.12.12-.18.12.55-.25.74.36 1.17.31l-.06.11a5.65 5.65 0 011.67.68l-2.91-2.32a7.3 7.3 0 01-3.77-3.75 8.09 8.09 0 012.42-.12c1.79-.6 2.53-2.56 2.59-4.1-.06-.2-.14-.41-.22-.62l-.89.31c-.5.19-.8.07-1.11.57l.06.11a1.85 1.85 0 01-2 .85c-.31.19-.68.32-.43.68a2.72 2.72 0 001.79-.36c.56-.19.74-1.11 1.42-.74l-.12.12c-.31 1.41-1.8 1.6-2.91 1.83-.43-.48-1.36-.66-1.3-1.53-.12 0-.31 0-.37-.11l.13-.12c-.44 0 .12-.25-.31-.3a1.41 1.41 0 00-.38-1l-.43.19c-.19.31-.43 1 .12 1.23a.34.34 0 01-.24.11h.24c.13.25 0 .62.25.81-.25.36.5.6.44.85l-.13.12.31.31-.06.12 1.3 1.77c.3.19.37.93.43.74.92.67 1.42 1.9 2.47 2.45l-.13.12M227.13 236.91c.44.42.62 1.22 1.36 1.47.07.73 1.49 1 1.3 1.83a9.37 9.37 0 01-3.9-4.41c.19-.72-.8-1.47 0-2.08.74.92.31 2.32 1.24 3.19M376.46 249.78s.88 1.64 4 1 8.1-1.41 8.1-1.41c1.61 0 2.84-.85 4.33-1 2.35 0 4.32-1.16 6.55-1.09-.74 1.33-1.48 2.87-.86 4.4a4.81 4.81 0 003 2.45c2 .25 4.58-.13 5.88-1.9.86-1.47 2.47-3.06 1.66-4.83-.06-3.18-3.09-5.21-5.87-6.25a6.09 6.09 0 01-1.91-.79c1.35-1.41 3.09-3 3-5.26.55-2.45-.81-4.66-2.23-6.56-3-2.08-5.82-1.22-8.85.38-.48 1.33-1.72 2.86-.74 4.4a3.34 3.34 0 002.91 1.84c.86.54 1.73 0 2.54.24-.12.55-.31 1.28-1 1.4-1 2-3.21 3.67-5.13 4.78a13.31 13.31 0 01-6.5 1.57l-2.78 2.47a35.82 35.82 0 0011.44-4.43l-.12-.06a13.28 13.28 0 003.46-3.25c.68-.24 1.24-1.89 1.79-2.8.18-1.41.25-2.64-.8-3.56-.37 0-.25.49-.43.68a.48.48 0 01.12.73c-.12.24-.12.55-.31.79a2.61 2.61 0 01-1.48.67l-.19-.24a3.48 3.48 0 001.42-2.63c-.3-.12-.24-.61-.67-.55-.44.55 0 .85-.19 1.41-.5.61-.81 1.4-1.8 1.1v-.06c-.3-.25-.67-.06-.92.19a3.31 3.31 0 01-1.18-1.23 4.28 4.28 0 012.23-3.86 6.56 6.56 0 016.55 1.22 7.87 7.87 0 011.8 2.89c.31 1.47.43 3.05-.56 4.15l.06.13-1.17 1.53a5.33 5.33 0 01.55-1.29c.07 0 .13-.06.19-.12-.31-.31.37-1.71.12-2.33h.13a11.55 11.55 0 00-.93-3.73c-.19-.06-.31.12-.44.24.44 2.82.44 5.64-1.54 7.77-.06.56-.56.93-.31 1.36.13-.25-.8.48-1.05.79.43 1 1.92-.12 2.72.31 0 .42.62.05.87.3 2.35.73 5.31 2.2 5.68 4.95l-.12.13.31.25c.49 1.83-.49 3.3-1.67 4.58-.86 0-1.11.74-1.85 1-1.18.06-3 .3-3.9-.55-.86-1.28-1.24-2.81-.55-3.79l.31-.3-.13-.13a7.74 7.74 0 011.79-.68c.68.25.93.87 1.24 1.35.06.61.06 1.1.13 1.78.74.12.24-.68.55-1.11a3.21 3.21 0 00-1-2.32c-2.47-1.23-4.95-.36-7.61-.12-1.11 0-2 .48-3.09.42 0-.06-.06-.12-.12-.17-.31.42-1.42.36-2.1.55a26.55 26.55 0 01-4.26.73c-1.06.61-2.6.24-3.53.8-1.3.18-3.36 0-4.54 0l-1 .61" fill="#50d6cc"/><path d="M407 248.84l-.37.31.12.12h-.12a6.68 6.68 0 01-1.73 2.76c-.25-.25-.81-.44-.5-.81 1.36-1.89 2.66-3.72 1.61-5.62l.06-.55a5.47 5.47 0 01.93 3.79M397.13 245.71c-.62.51-1.68.25-2.23.44-3.22.12-6.93 1.54-10.27 1.77a11.87 11.87 0 01-2.9.55c-.25-.12-.74.24-.87-.18a15 15 0 003.65-.67c4.08-.86 8.54-2 12.49-2l.13.11M366.14 243.64c-1.11-.42-2.41-.25-3.46-.85A6 6 0 01360 242a7 7 0 01-.86-6.49h-.37l.12.12a4.72 4.72 0 00-1.67 1c.12.17-.25.66-.13.85a.86.86 0 01-.86.37c-1.73-1.66.49-3.5-.24-5.45h-.44c-.61.3-1.29.67-1.29 1.47-.25.36-.68 1-1 .42-.25-1.28.37-2.13 1.11-3.18.92-1.22.12-2 .37-3.12h.12c-.18.3-1.36.25-1.48.92-.74-.13-1.55.74-2.23 0 .31-.31.93.12 1.11-.37a3.09 3.09 0 002.66-1.72c.25-.11.31.07.5.19a6.81 6.81 0 00.43 2.45 3 3 0 000 2.19c.56-.17.44-.85 1.12-.79 1.23 1.6.49 3.07.55 4.84l.68-.06c.93-.06.86-1.35 1.17-1.65l.37.3c.37 2-.31 4.47.56 6.06.49.49.68 2 1.79 1.53l4.14 1.44-.06.34" fill="#50d6cc"/><path d="M359.59 247.5c-3.46-.13-7.67-1-10.33 1.65-.74.67-.49 1.47-.68 2.2-2.22.37-3.89-1.29-4.88-3a3 3 0 011.11-3.36c-.5-.24-1.05.3-1.36.42-2 1.05-2.47 3.31-2.47 5.51a2.28 2.28 0 01-1.42.3c-.62-.06-.68-.72-1.11-1.1-.25 0-.5.06-.56.38-.56-.13-.8.18-1.24-.25-.8-1.6-1.42-4.22.13-5.82a2.15 2.15 0 00-1.8 1.28c-1.11 1.66-1.85 3.87-.55 5.64.49.49 1.91-.06 1.66.86A4.24 4.24 0 01332 254c-1.3-.42-2.1-1.71-2.78-2.76a3.87 3.87 0 01-1.67 3.43l.06.13c-.31.19-.62.61-1.11.55a16.08 16.08 0 00-1.55-4.77c-.37-1.41-.74-3.13-.13-4.41a16.36 16.36 0 01-5.06-1.11 3.68 3.68 0 01-2.48-3.3c2.91.17 5.32-2 8.23-1.53.37.12.49.49.43.92h.25c-.06-1.28-1.67-2.15-1.92-3.43-.43-.92.31-1.84.68-2.63.31-.44-.25-.8.24-1.1a16.45 16.45 0 002.79 2.26c.86.18.43-1.84 1.79-2.2 1-.62.93-2 1.55-2.82 2.41 1 2.53 4.16 3.77 6.25 1.79 1.7 3.77 1.83 6.37 1.52a6.79 6.79 0 001.85.25c-1.3-1.77-1.42-4.1-1.79-6.3-.12-1.17-1-2.09-1.55-3.19 1.06-.55 2.6-.31 3.77-.18 1.61.37 3.53.85 4.27 2.26a7.24 7.24 0 00.31-1.16c.68-.86 1.73-2 2.9-1.65-.8.3-1.11.61-1.79.85l.13.13c-.81.49-.81 1.64-.87 2.38a3.3 3.3 0 01.87 1.9 1.44 1.44 0 01-1 1.1c-2 .62-.68-1.77-1.67-2.44l.12-.07h-.24c-1.55-1.83-3.41-3.3-6-2.87a8.5 8.5 0 011.54 4.95 5.36 5.36 0 00.43 1.66 29 29 0 001.55 2.93 13.35 13.35 0 012 2.15c-.87.42-1.24-1-2-1.11l.13-.12H344a.31.31 0 01-.12-.24c-.13 0-.37.12-.44-.13l.13-.06a1.57 1.57 0 01-1-.24c-1.73-.24-3.4 0-5-.24v-.07a8.36 8.36 0 01-3.34-1.64c-1.61-1.41-1.35-3.92-2.78-5.33a4.44 4.44 0 01-2 2.45c-.31.3-.18 1-.18 1.28h-.13c-.06.49.25.8-.12 1.34s-1.36.25-1.92.13l.13.12c-1.05.43-.56-.85-1.55-1l.12-.06-.43-.49a.13.13 0 01.19-.06c-.13 0-.25 0-.31-.13l.12-.11c.06-.07.31-.25 0-.31l-.5.74a2.39 2.39 0 00.38 2c.62.85 2.41 2 1.55 3.36-.56.55-.93 0-1.43-.3l.06-.12c-.68-.8-2-.38-3.21-.31-1 .43-2.17.85-3 1.28-.07-.3-.75-.12-.56-.18l.06.12-.06.06c.06 0 .24 0 .3.12s-.37.13-.11.13l.11.12-.11.12a2.32 2.32 0 001.54.86c-.43 0 .18-.25-.31-.31.55-.48.8.55 1.42.31.86.92 2.41.55 3.33.79-.06.19.25.43-.18.62.68.24 1.55.06 2.11.55-.25.23-.31.85-.81.49-2.72 2 .25 5.07.81 7.35.61-.13.67-.68 1.11-1.11-.07-.86.55-1.59.55-2.33.06-.42.81-1.1 1.24-.55-.06.24.13.43-.12.67a6.51 6.51 0 001.66 2.63 3.43 3.43 0 003.34-.42c-.12-.36-.61-.61-1-.74a3.93 3.93 0 01-1.36-4.22h.12c.12-1.9 1.73-3.05 3.46-3.61 1.92-.12 2.54-1.22 4.33-1.47a.3.3 0 010 .56 10 10 0 00-2.91 2l.13.12c-.68.19-.5.85-.87 1.17-.24 1.28-.24 2.94.87 3.67.06-.3.37-.43.55-.67 1.12-.92.81 1.09 1.67 1 .74-1.47-.24-2.39 1-3.86 1.36-2.07 4.08-2.38 6.12-1.94 1.3 2.26-2 .9-2.35 2.37-.12.43-.25 1.23.13 1.47a4.1 4.1 0 002.57 2.58c.37-.86 0-1.22.56-2.09 2.35-3.79 7.29-2.75 10.88-2.32l2.36.39-1.51.81M264.17 246.69c1 .25 1-.3 1.67-.72 1.36.18 2.47.72 3.72.18a.33.33 0 01.12.24c1.29-.3 2.59.07 4.2.3.86.68 2.66 1.3 2.47 2.46a1.72 1.72 0 01-.93-.12l.12-.13c-.37-.31-.92-.25-.86-.85-.12.24-.3 0-.49-.13l.12-.12h-.18c-.06 0-.19-.06-.13-.18h-.37a.19.19 0 01-.06-.25c-.8.25-1.23-.43-2-.18 1.36.67 2.78.86 3.9 1.84-.13.06-.13.24-.13.36h.25c.06.43 1.05.8.55 1.29-2.16-2.94-6.79-3.06-10.13-2.88l.11.12" fill="#50d6cc"/><path d="M345.24 234c1.36 2.32 3.34 5.14 5.75 6.67a1.28 1.28 0 01-1.17-.3c-.06-.37-.86-.56-1.24-1a11.13 11.13 0 01-2-3c-1.17-1-2-2.75-2.84-3.62.3-.73 1 .81 1.54 1.23M352.36 238.8c.86.8 1.35 2 2.34 2.52a6.57 6.57 0 00-.43-1.78 4.72 4.72 0 01-.25-2.63c.56 1.77.68 5.08 3.34 5.88 0-.93-.49-1.91-.43-2.88h.43c-.31 1 .44 1.71.68 2.75a7 7 0 002.78 1.41c-.55.85-1.35-.13-2.09-.13-.31-.55-1.06-.12-1.49-.42-2-.49-3.34 0-5.32.42l-.43-.18a10.72 10.72 0 014.64-1A1.32 1.32 0 00355 242c.13.24-.55 0-.74-.24-.37-.62-1.3-1.11-1.61-2l.13-.13c-.5-.25-.74-1.22-1.11-1.66a8.61 8.61 0 01-.13-3.6 13.12 13.12 0 00.81 4.41M331.76 238.44l1.43 1.47.12-.13c1.29 1.9 4.94 2 6.79 1.54a.3.3 0 00.13.23c-1.24.62-2.41.19-3.46.31l-.24.25-.19-.25c-.43.31-2 .25-2.6 1.1-.43.43-1.17.43-1.54.92l.12.06c-.62.06-.87 1.11-1.42 1.23l.06.12a4.27 4.27 0 00-.87 1.89c-.12.74.25 1.65.13 2.4-.74-.19-.43-1.29-.68-1.78-.19-.86.74-1.41.43-2.09l.12.12.44-.54-.13-.12c.43-.06.37-.25.5-.55.37-.74 1.42-.92 1.42-1.77a21.12 21.12 0 01-3.34.91c-.68-.43-.87-.06-1.55-.37 0-.06-.06-.11-.12-.18.49-.31 2.17.18 3.09-.43.5-.43 1.55-.06 1.61-.79 0 .12-.06.3.06.3s.31-.12.24-.3c-.42-.13-.86-.61-1.35-.43-.06-.37-.56-.12-.74-.43A8 8 0 00328 240c-.12-.24-.68-.48-1-.67s0-.36.06-.54c.5.3 1.24.85 1.67 1.1 1.67.86 3.9 2.14 5.81 1.41-.92-.19-1.17-1.17-1.91-1.41-.06-.25-.19-.56-.43-.44l.12-.12c-.62-.18-.93-.91-1.12-1.35l.13-.12.56.5-.13.06M312.16 245.84a4.33 4.33 0 01-.43 1.53 8.55 8.55 0 00-4.33-.85c-1 1.47 1.6 1.47 1.67 2.93a4.3 4.3 0 01-1 3.44c-.25-.32-.62-.38-.8-.68-.75-.36-1.31.25-1.67.68-.49.79-.18 1.21-.12 2.08.48.54.74 1.64 1.79 1.58 2 1.41 3.77-1.1 5.25-1.65a6 6 0 012.29 1.71c1.05-.12 1.48-1.83 2.6-1.83a5.85 5.85 0 004 1.65 3.41 3.41 0 002.42-1.46c.18-.74.61-1.66.12-2.4a1.92 1.92 0 00-2-1.1c-.62-.06-1.05 1-1.6.44a9 9 0 01.55-5.39 8 8 0 00-3.89 1.28c-.44-.49-.25-.86-.31-1.53a7.83 7.83 0 00-2.23-2.51c-.87.37-1.42 1.41-2.35 2.07l.43.25 1.49-1.46c.74-.07.92.66 1.23 1.09-.06 1 .56 2 .31 3.44.25.73.62-.13 1.12 0a5.19 5.19 0 013.46-2.21c.06 1.65-1.24 4 0 5.2v.74c-1.55-.67-.81-2.32-1.24-3.3-1.17.3-.12 1.94-.25 2.62-.06.49.62 1.11 1.12 1.47.18-.06.37.07.49-.11v-.13c.07.18.37.24.62.24.62-.31-.25-1.16.68-1.22l-.12-.12c0-.12.8-.68 1.23-.19.31-.11.31.31.44.43-.5 0-1.06-.92-1.55-.12.62.43.68 1.41 1.11 1.65-1 .43-2 1.41-3.09.87-.43-.19-1.36 0-1.79-.57.06-1.09-1.49-1.71-1.55-3.18-.31-.23-.43-.06-.68-.12.12.74-.12 1.11.56 1.59l-.12.06c1.17 1.11-1 1.65-1.43 2.58-.67.11-.92-.55-1.54-.8-.37-1.22 1.05-2.39.62-3.43-1-.48-1.3 1.29-2.1.68-.5-.13-.5.43-.75.67a4.77 4.77 0 01-2.72 2.76l.38.42a5.66 5.66 0 01-1.8.12c-.55-.18-.8-.92-1-1.4s.25-1 .44-1.6c.49-.24 1.42-.06 1.35.81.13.36.56.24.75.11s.12-.55.43-.55l-.06-.13a4.49 4.49 0 00.87-1.94 3.34 3.34 0 00-1.43-3.56l-.25-.25c.69-.55 2.17.07 3.1.38s1.05 1.77 2 1a3.49 3.49 0 01-.37-2.5l-.43-.25" fill="#50d6cc"/><path d="M258.61 243.88c3.4-.49 6.18.55 9.39-.92a7 7 0 004.51-6.73c.44.19 1-.3 1.49 0a2.44 2.44 0 001.11 1.23v.42h.68c.31-.48-.37-1.41-.12-1.84a2.38 2.38 0 01-.8-1 5.78 5.78 0 00-3.9-1.66c0-.92.87-1.1 1.49-1.47.37-.06.49-.31 1-.19-.06.19.13.25.31.19h.44l-.06.13c.06.17.3.06.43.12l-.13.12c.07.18.31.06.44.06.55.12 1 .91 1.54 1.34.31.13.5-.18.68-.3-2-1.78-1.79-4.47-1.42-6.62 1.11.8 2.9-.36 3.52 1.17.81.67.25 1.77 1.37 2.14l.3-.37.12.13c.44-.31.93-1.23 1.8-1a4.14 4.14 0 011.54-.67c.31 0 .81-.43 1.24-.12-.12-.07-.31.12-.25.23.19.37-.24.37-.31.56l.13-.13a.67.67 0 00-1 .44l.06.11c.12.31-.61.25-.55.56.05.12.24.12.37.12-1 1.28-.37 2.38-.56 3.73a3.07 3.07 0 01-.37 2.51c.13.31-.25.24-.31.49s-.19.55.25.61c.62.24.3-.61.87-.55v.37c-.62-.18-.13.31-.44.42-.62.74-1.79 1.11-2.1 2.21.8 1 1.48-.43 2.29-.43 3.46-.37 8.22-.73 10.14-4.4a6.15 6.15 0 00.68-3 3.92 3.92 0 012.22 2.21c.25.37 0 .61-.12.92l.12.06c-.24.55-2.28 1.16-1.67 2.14.56-.18.62-.86 1.24-.92.55-.61 1.85-.73 2.66-1.28a3 3 0 001.54-.55c.37 0 .75-.74.81-.13-.13.75 0 1.05-.13 1.77-.43-.3.31-1.53-.8-1.09l-.06.06c.12.06 0 1-.12 1.47-.19.24-.19.37 0 .67l.18.19a1.14 1.14 0 00.68-1.11c.56.19-.25.68.12.92-.43.06 0 .3-.31.55l.07.06c-.93 1.05-3.47 1.41-2.85 3 .43.5 1.12 1.72 1.85.81a1.42 1.42 0 00.56-1.6l-.18-.17a6.86 6.86 0 014.51.85l.13-.13a14.43 14.43 0 002.22 1.47l-.12.13 3.46 1.28c-1.36.36-2.1 1.53-3.65 1.53-.31.43-.81.18-1.24.24l-.12-.12a3.09 3.09 0 01-2.91-.18c-.3 0-.49.3-.74.43-.06.67.87.8 1.11 1.28l-.12-.06c-.86.55-.11 1.35-.43 2.2-.61 1.66-1.54 2.15-1.54 3.86a.79.79 0 00.55.61c.86-.37.19-1.53.56-2.21.3-.11.3-.66.61-1 .06-.18.37-.74.56-1.1a2.21 2.21 0 01.25-1.11c.56 1.84-.62 3.31-1.55 4.66.37.18.06.36.13.67-.25.25-.13 1-.13 1.28a5.83 5.83 0 01-2.9-5.26c-.74-.61-1.36.49-2 .74l.06.12c-.37-.07-.31.31-.62.37l-.13-.12c.25 0 .19-.31.31-.43-.24-.49-.67-.06-1 0a3.9 3.9 0 01-2.79.61c.06-.55.62-1 .87-1.41l-.06-.12c.62-1 .37-1.78-.13-3.06-.67-1.59-3.14-1.65-4.69-2.45.18-.3-.25-.43-.31-.66l.12-.07c-.12-.12-.31-.18-.25-.37l.13-.13c-.06-.11-.25-.05-.37-.05l.12-.13c-.31-.25-.74-.3-.86-.66-.31-.19-.74-.06-1.12-.12-.18.48-.8.36-1.11.23.06-.17-.12-.23-.25-.36s-.24.25-.43.13c-.25.17.06.17-.25.36.19.73 1 .79 1.49 1.17.24-.13.74-.62 1.11-.44.5.67 1.54 1.47 1.11 2.21s-.24 1.7-.43 2.2c-.24.86-1.3 1.4-.55 2.08-.31 0-.25.36-.56.25a12.31 12.31 0 00-1.11-3.55c-.56-.13-1.11-.75-1.67-1-2-1-4.2.06-6.49-.43-.25.3-.07.43-.13.66h.25l-.12.13a3.08 3.08 0 012.47 2.75 4 4 0 01-.68 1.53 1.18 1.18 0 00-.12-1.53 7.14 7.14 0 01-1.67 2.09.57.57 0 00-.19.67l.19.18c.12.24-1.49-.55-1.24.67.5.79 1.61.37 2.23.31a4.22 4.22 0 002.59-3.37 19.41 19.41 0 00-.55-2.69c1.48.11 4-.43 4.64 1.58a9.42 9.42 0 01.37 3.19 4.34 4.34 0 002.53.13 7.77 7.77 0 001.67-1.47l-.12-.13c.49 0 .24-.55.55-.74a14.93 14.93 0 00-.18-3c1.11-.55 2.17.43 3 1.22 1 1.77-1.24 3.62-.62 5.52a3.87 3.87 0 002.78.66c1.42 0 2.23-1.71 3.65-1.77.74 1.89 2.23 4.47 4.57 4.41-.18-3.07 3.16-5.27 1.42-8.57a7.81 7.81 0 007.05-3.25c0-.73-.8-.24-1.11-.54-3-.8-5.32-3.19-8.35-3.87 2-1.83-.62-4.46.43-6.48-.12-.12-.24-.3-.43-.19a5.94 5.94 0 01-4.14 2.51 5.27 5.27 0 00-2.54-3.73c-.74.24-1.29-1-1.79-.12a4.63 4.63 0 01-.92 4.83c-1.67 2-4.08 2.09-6.31 2.75h-1.67a20 20 0 011.67-3.17l.29-1.29-.11.06c0-2.39-.67-4.28.5-6.73-2.29-.43-4.45.61-6.37 1.65a4.89 4.89 0 00-1.92-2.26c-1.11-.18-2.35-.12-3.21-.92-1.05.18-.18 1.53-.55 2.21-.07 1.1-.37 2.51.24 3.42-.81.06-1.67-.61-2.6-.25a20.8 20.8 0 01-2.23 1.05L270 234a12.7 12.7 0 001.92.68c.54.08.31.08-.07 1.85s-.93 4.51-4.25 5.65-6.49.77-9.36 1.16-.69.14-.69.14l1.08.43" fill="#50d6cc"/><path d="M280.31 236.17c.56-.24.25-.67.49-1.09s.5-1.41 1-2.15l-.12-.07c.49.07.31-.54.68-.54.43.24 0 .67 0 1.1-.68.06-.07.68-.68.85.49 0-.24.37 0 .56s-.56.12-.13.42c-.06.37-.74 1-.55 1.53-.56 1.41-1.91 1.72-2.53 3-1.18.67-2 1.6-3.16 2 .5.67 1.8.24 3 .37s3.09-.12 4.32.55c-.07 1-.3-.37-1 .43l.13-.13c-.19-.18-.68-.06-.81-.11l-.18-.19c-.25.49-.56 0-.81 0a20.18 20.18 0 01-2.9-.12l-.31.31c-.31-.31-.43.24-.68.11a.21.21 0 00-.31-.18c-.18 0-.37-.12-.49.07.12.24.3.11.49.11-1.6-.18-1.55.43-2.91.37-.3.43-.8-.05-1 .43l-.25-.24c0 .42-.49.06-.68.36a20.9 20.9 0 014.7 2c.43.68 1.67 1 1.11 1.9-.62-1.05-2-1.59-2.59-2-1.74-.6-4-1.52-5.88-.85a23.64 23.64 0 01-3.09.13c-.25-.43.37-.56.62-.67 1.42-.13 2.47-.68 3.71-.8a6.59 6.59 0 002.35-1.29c0-.54 1.17-.67 1-1.46.67-1-.68-1.42.18-2.39h.37a3.55 3.55 0 01.12 2.2c-.18.06-.37.8-.37 1.11-.18.54-.55 0-.55.6-.19 0-.19.18-.31.25.62.24 1 0 1.55-.25a.35.35 0 00.12.25c.13-.07.13-.25.13-.31-.38-.06-.25-.37-.13-.54 1.54-.75 3.21-2 3.21-3.69.12.08.18-.06.25-.12s-.25 0-.37 0c.43 0 .12-.49.37-.55-.19-.13-.19-.49-.5-.37.13.06.19-.06.25-.12l-.12-.07c-.25 0 .12 0 .12-.11a4.93 4.93 0 00-.56-.56l.13-.11c-.19-.43-.56-.56-.8-.8.43-.12.06-.12.37-.44a1.66 1.66 0 011.17.92 14.4 14.4 0 01.56 2c.55-.12.43-.6.55-1.11.38-.42.31-1 .5-1.39a6.86 6.86 0 00-.12-2.21h-.25c.62-.55-.75-1.16.12-1.47 1.24.92.93 3.62.68 4.84" fill="#50d6cc"/><path d="M279.57 236.23l.12.13c-.43.06-.06 1-.67 1.34.06.12.18.12.3.12-.06-.85 1.05 0 .81-.91M293.61 236.78c0 .68-.68.79-.93 1.35l.12.12a.79.79 0 00-.31 1.1 5.91 5.91 0 00-.49 1c.56.3.93-.31 1.48-.31a5.69 5.69 0 012.79-1.64c-.44.79-1.67.85-2.23 1.83a13.53 13.53 0 00-2.35 1.47c.8.86 1.61 1 2.48 1.84l-.13.12c.68.68 1.86 1.71 1.55 2.88-1.18.06-.56-.92-1.36-1.35-.38-1-1.74-1-2.23-2.21-.18.13-.31-.11-.43-.18l-.12.07c-.62-.62-1.25-1.11-2.1-.74l-.56-.25c.06-.42.12-.3.43-.67.81.19 1.24-.25 1.79-.55.93-1 .81-1.71 1.36-2.76h-.12c.37-.49.74-1.17 1.36-1" fill="#50d6cc"/><path d="M305.73 243.52c-.74.61-2.1-.19-2.66-.13 0-.06-.06-.11-.13-.17l-.55.17c.12.07.12 0 .18-.06a6 6 0 00-4.08.19l-.24-.19c-.19 1 1.23 1.72 1.91 2.38a7.63 7.63 0 011.12 2.45l-.25.19c-.24-.49-.74-1.71-.86-1.83l-.68-.56.12-.12c-.31 0-.37-.43-.68-.3l.13-.13a20.4 20.4 0 00-1.92-1.22l.12-.12c-.55.12-.61-.61-1.23-.55-.07-.3-.19-.13-.19-.43.74-1 2.16.24 3.09-.3 2.23-.8 4.7.3 6.8.73" fill="#50d6cc"/><path d="M333.43 152.06a3.71 3.71 0 00-2.1 1c.37-.37.87-1 1.42-1.09a3.91 3.91 0 01.93-.07l-.25.18M331.3 153.17c-.25.25-.5.61-.87.48.62.13.25-.85.87-.48"/><path d="M299 157.39c.27.34 1.38.07 1.52.83v.47c-.49-.89-1.8-.54-2.36-.47a7.23 7.23 0 00-3.25 1.5c-.35.21-1.18.35-1.39 1l.14.42c-.49.13-.07.13-.42.48-.83-.21-.14.61-1 .82v1l-.62-.08c.41-.68-.41-2.4.76-2.26.21-.14.07-.42.14-.62a3.69 3.69 0 011.73-1.51v-.48a.62.62 0 00.48.2c0-.13.15-.89.63-.68.63-.55 1-.28 1.59-.89.7.82 1.25 0 2 .27M302.94 164.86c-.68-.13-.86.49-1.23.85 0-.06-.06-.12-.12-.18a4.34 4.34 0 01-2.91 1.65c-.06.61-1.67.49-.74 1.29v.23c0-1.15-1.8-.79-1.67-2.2h.55a2 2 0 001.67.13c.25-.37.93-.3 1-.79l.12.12a20.22 20.22 0 002.79-2.76 1.12 1.12 0 01.74 1c-.19.12-.06.31-.06.43" fill="#50d6cc"/><path d="M300.84 161.43c-.12.13-.62-1.23-.55-2l.55 2M301.46 162.65c-.24.06-.49-.24-.55-.43v-.36c.31.12.37.55.55.79"/><path d="M300 195.47c.85-.14 2.09.24 1 .54s-1.69.38-1.47 0a2 2 0 01.47-.54M256.06 122.87a7.29 7.29 0 012-1.69c.46-.31.54-.16.54-.16l.15.78a3.65 3.65 0 00-1.31.3 10.06 10.06 0 00-1.39.76M257.53 123c.85-.53 1.7.54.92.54a7.92 7.92 0 00-1.47.15l.55-.69M259.15 126.76c-.42-.68.23-1 .39-.53s-.16.91-.39.53M371.77 123.47a3.23 3.23 0 00-1.65-.4 2.75 2.75 0 00-1 .3l.31.31 1-.31 1.34.1M369.88 124.58a1.14 1.14 0 011 0 1.77 1.77 0 01.62.33 1.3 1.3 0 00-.66 0c-.46.12-.84.35-1 .2a.33.33 0 01.08-.54" fill="#50d6cc"/><path d="M383.21 130.69c-.31.06-.31.31-.68.25.31.13.31-.42.68-.25"/><path d="M296.79 123.33c-1-1.14 1.91.7 2.32.35s.52-.35 1.39 0l1 .4a7.91 7.91 0 00-2 .26 2.51 2.51 0 01-2.73-1" fill="#50d6cc"/><path d="M297.72 124.81c-1-1.14 1.91.7 2.32.35s.51-.35 1.39 0l1 .4a7.91 7.91 0 00-2 .26 2.51 2.51 0 01-2.73-1M301.89 124.19c-1-1.14 1.91.71 2.33.36s.5-.36 1.38 0l1 .4a7.91 7.91 0 00-2 .26 2.51 2.51 0 01-2.73-1" fill="#50d6cc"/><path d="M304.06 125.87c-1-1.13 1.9.72 2.32.36s.51-.36 1.39 0l1 .41a8.06 8.06 0 00-2 .25 2.5 2.5 0 01-2.72-1M306.74 124.35c-1-1.14 1.9.7 2.32.35s.51-.35 1.39 0 1 .41 1 .41a7.47 7.47 0 00-1.95.24 2.51 2.51 0 01-2.73-1" fill="#50d6cc"/><path d="M309.52 126c-1-1.14 1.91.7 2.32.35s.51-.35 1.39 0l1 .4a7.91 7.91 0 00-2 .26 2.51 2.51 0 01-2.73-1M311.53 124.55c-1-1.14 1.91.7 2.32.35s.52-.35 1.39 0l1 .4a7.86 7.86 0 00-2 .26 2.5 2.5 0 01-2.73-1M316.32 126.08c-1-1.14 1.91.7 2.32.35s.52-.35 1.39 0l1 .4a7.91 7.91 0 00-2 .26 2.51 2.51 0 01-2.73-1M316.53 124.6c-1-1.14 1.9.7 2.32.35s.51-.35 1.39 0l1 .4a7.91 7.91 0 00-2 .26 2.51 2.51 0 01-2.73-1M321.73 124.35c-1-1.14 1.91.7 2.32.35s.51-.35 1.39 0 1 .41 1 .41a7.52 7.52 0 00-2 .24 2.51 2.51 0 01-2.73-1" fill="#50d6cc"/><path d="M321.48 125.83c-1-1.14 1.91.7 2.32.35s.51-.35 1.39 0 1 .41 1 .41a7.52 7.52 0 00-2 .24 2.49 2.49 0 01-2.72-1M326.63 124.65c-1-1.14 1.9.7 2.32.35s.52-.35 1.39 0 1 .41 1 .41a7.49 7.49 0 00-2 .24 2.49 2.49 0 01-2.73-1M288.83 151.51l.3.85h.9l-.72.52.26.87-.74-.52-.74.52.26-.87-.71-.52h.9l.29-.85M286.43 154.84l.3.85h.9l-.71.53.25.86-.74-.51-.74.51.26-.86-.72-.53h.91l.29-.85M285.64 158.56l.3.84h.9l-.72.55.26.85-.74-.51-.74.51.26-.85-.72-.55h.9l.3-.84M291.9 165.72l.3.84h.9l-.72.54.26.85-.74-.51-.74.51.26-.85-.72-.54h.9l.29-.84M289.81 169.12l.3.84h.9l-.72.54.26.86-.74-.52-.74.52.26-.86-.72-.54h.9l.3-.84M294.85 169.61l.29.84h.9l-.72.54.27.85-.74-.51-.75.51.26-.85-.71-.54h.9l.29-.84M292.51 171.06l.3.85h.9l-.72.55.27.85-.75-.51-.74.51.26-.85-.72-.55h.9l.3-.85M305.64 155.88l.3.85h.9l-.72.53.26.86-.74-.52-.74.52.26-.86-.72-.53h.9l.29-.85M303.3 159.06l.29.84h.9l-.71.54.26.85-.74-.51-.74.51.25-.85-.71-.54h.89l.3-.84M308.58 158.43l.3.84h.9l-.71.54.25.85-.74-.51-.74.51.26-.85-.71-.54h.9l.29-.84M314.46 159.06l.3.84h.9l-.72.54.26.85-.74-.51-.74.51.26-.85-.72-.54h.9l.3-.84M311.16 161.47l.3.84h.9l-.72.54.26.85-.74-.5-.74.5.26-.85-.72-.54h.9l.3-.84M305.4 162.56l.29.85h.9l-.72.53.27.86-.74-.51-.74.51.26-.86-.72-.53h.9l.3-.85M309.15 165.41l.29.85h.9l-.72.53.27.86-.74-.51-.74.51.25-.86-.71-.53h.9l.29-.85M311.64 167.68l.3.85h.9l-.72.55.26.85-.74-.52-.74.52.26-.85-.72-.55h.91l.28-.85M316 166.33l.3.84h.9l-.72.54.26.85-.74-.51-.74.51.26-.85-.72-.54h.9l.29-.84M325.14 152.5l.29.84h.9l-.71.54.26.85-.74-.5-.74.5.26-.85-.72-.54h.9l.3-.84M337.42 153.58l.3.84h.9l-.72.53.26.85-.74-.5-.74.5.26-.85-.72-.53h.9l.29-.84M339.5 156.85l.3.84h.9l-.72.54.26.85-.74-.5-.74.5.26-.85-.71-.54h.9l.29-.84M336.93 160l.29.84h.91l-.72.54.26.86-.74-.51-.74.51.26-.86-.72-.54h.9l.3-.84M340.35 161l.3.85h.9l-.72.54.26.85-.74-.51-.74.51.26-.85-.72-.54h.9l.3-.85M335 170l.3.84h.9l-.71.54.25.86-.74-.52-.74.52.26-.86-.72-.54h.91l.29-.84M329.93 170.45l.3.85h.9l-.72.55.26.85-.74-.5-.74.5.26-.85-.72-.55h.9l.3-.85M325.15 169.61l.3.84h.89l-.71.54.25.85-.74-.51-.74.51.27-.85-.72-.54h.9l.29-.84M292.75 149.83l.29.84h.9l-.72.54.27.85-.74-.51-.74.51.25-.85-.71-.54h.9l.29-.84M373.5 252c1 1.47.56 3.73-.12 5.14-2.29 3.18-3.65 7.41-1.42 10.95 1.91-3.79 7-4.15 9-7.65l-.13-.06.44-.55.8.55a10.51 10.51 0 016.18 5.14c.37.5.25 1.35.8 1.53.69-1.59 2.23-2.86 2-4.58.55-1.11-.07-2.33-.31-3.19-.5-.79-.74-1.9-1.12-2.57-1.42-1.16-1.17-2.94-1.24-4.59.07-.92-.55-2.15.13-2.75l-1.54.73c.12 2.87-.38 5.15 1.85 8 .87 2 1.3 4.71.12 6.18-.49-.36-.8.61-1 .06-.12-2-2.15-1.89-3.21-3.3l-.12.12c-.56-.18-.75-.92-1.55-.74l.13-.12c-.74 0-.87-.67-1.49-.79-.18-.19.06-.37.13-.56l-.13-.12c-.25.06.25 0 .13-.18s-.25-.3-.44-.25l.19-.17c-.37-.19-.19-1.3-1.12-1a2.2 2.2 0 00-.55 1.21c-.12.19-.31.38-.43.56.06.12.24.12.37.12a.32.32 0 00-.25.13c0-.06.25.66-.12.85s-.37.43-.68.43l.12.12a7.14 7.14 0 01-2.78 2.08 16.15 16.15 0 00-2.35 1.65c-.74-.19-.62.55-1.11.8l.12.12c-.81.12-.55.49-1 1.1a6.93 6.93 0 01-.12-5 6.32 6.32 0 011.48-2.57l-.12-.06c.12 0 .25 0 .31-.12-.25-.49.86-1.77 1-2.76 1.3-2.37-1.79-4.65 1.92-5.88l-2.78 2M253.4 244.28l-.64-.42-2.83 4.24 2.2 1.44.32-.49-1.56-1.02 2.51-3.75zM256 245.96l-2.77 4.27.65.41 2.76-4.27-.64-.41zM258.8 247.71l-.64-.39-2.66 4.33 1.23.75c.93.54 2 .74 2.57-.12a1.36 1.36 0 00-.38-1.73 1.1 1.1 0 001.07-.49c.61-.98-.19-1.76-1.19-2.35zm-.13 4.14c-.38.62-1.11.38-1.72 0l-.5-.31.92-1.5.41.25c.59.37 1.22.95.89 1.56zm.71-2.16c-.38.62-.95.41-1.58 0l-.16-.1.88-1.44.18.12c.61.4 1.05.82.68 1.42zM262.99 250.84l2.21 1.24.29-.52-2.88-1.59v-.01l-2.51 4.42 2.88 1.6.29-.5-2.21-1.23.94-1.67 2.15 1.19.29-.5-2.15-1.19.7-1.24zM267.81 252.79l-.82-.42-2.34 4.51.68.35 1-1.91.28.13.62 2.74.82.42-.7-2.84a1.52 1.52 0 002-.6 1.35 1.35 0 00-.17-1.44 3.54 3.54 0 00-1.37-.94zm.84 2.07c-.37.73-1.18.45-1.88.11l-.21-.13.85-1.62.17.09c.68.34 1.42.85 1.07 1.55zM270.7 254.88l1.32.62-1.91 4.07.69.32 1.92-4.07 1.33.61.24-.53-3.34-1.54-.25.52zM276.31 259.09l-.57-2.57-.81-.32.75 3.4-.85 2.05.71.28.85-2.05 2.96-1.89-.82-.33-2.22 1.43zM281.32 264.11l.79.24 1.05-1 2.7.82.29 1.42.79.24-1.25-5.91zm2.31-1.24l1.65-1.64.44 2.27zM293.2 265.89l-3.62-4.89-1.18 5.18.75.17.84-3.68 3.62 4.89 1.17-5.16-.75-.17-.83 3.66zM297.71 262.87l-1.25-.17-.73 5 1.23.18c1.93.27 3.57-.33 3.81-2.05s-1.19-2.69-3.06-2.96zm2.29 2.89c-.21 1.46-1.62 1.75-3.17 1.53h-.27l.57-3.88h.27c1.6.22 2.82.88 2.6 2.35zM305.41 268.78l.77.03.27-5.07-.76-.04-.28 5.08zM313.62 263.82l-.76.01.02 3.75-4.65-3.98v.01l.03 5.33.77-.01-.02-3.79 4.64 3.97-.03-5.29zM316.66 263.65l-1.28.07.26 5.08 1.25-.07c1.94-.09 3.43-1 3.34-2.73s-1.69-2.43-3.57-2.35zm0 4.51h-.27l-.2-3.92h.27c1.56-.08 2.94.34 3 1.82s-1.25 2.03-2.81 2.1zM322.75 267.8l-.16-1.91 2.45-.21-.04-.58-2.46.21-.12-1.41 2.53-.22-.04-.56-3.3.26.42 5.06 3.3-.27-.05-.58-2.53.21zM327.43 262.82l-.87.12.67 5 .76-.1-.28-2.11.43-.06c1.16-.16 2.09-.68 1.94-1.75-.08-.92-.77-1.35-2.65-1.1zm.45 2.35h-.24l-.25-1.8h.21c.75-.1 1.67-.12 1.77.66s-.71 1.03-1.49 1.14zM332.88 266.52l-.39-1.88 2.41-.49-.11-.56-2.41.48-.29-1.38 2.48-.51-.11-.56-3.24.65 1.02 4.97 3.24-.65-.11-.56-2.49.49zM341.04 259.69l-.73.23 1.14 3.57-5.62-2.42 1.63 5.06.72-.22-1.15-3.61 5.62 2.42-1.61-5.03zM343.75 258.57l-1.17.5 2 4.66 1.15-.49c1.78-.76 2.86-2.12 2.16-3.71s-2.41-1.7-4.14-.96zm1.58 4.22l-.25.11-1.56-3.6.25-.1c1.43-.62 2.86-.71 3.45.65s-.45 2.32-1.89 2.94zM350.96 260.25l-.86-1.72 2.21-1.08-.26-.52-2.21 1.09-.63-1.27 2.27-1.12-.25-.51-2.97 1.44 2.27 4.55 2.96-1.46-.26-.51-2.27 1.11zM357.45 251.88l-.68.35 1.78 3.31-5.97-1.38 2.51 4.69.68-.35-1.79-3.34 5.97 1.38-2.5-4.66zM363.83 253.66a2.09 2.09 0 11-2-3.63 2.79 2.79 0 011.66-.33l-.36-.64a3.32 3.32 0 00-1.52.43c-1.59.86-2.31 2.59-1.58 3.89a3 3 0 004.09.78 3.69 3.69 0 001.24-1.08l-.36-.65a2.72 2.72 0 01-1.17 1.23zM364.55 248.03h.01l-.01-.01v.01zM369.63 250.37l-2.22 1.21-.94-1.67 2.16-1.17-.28-.52-2.15 1.19-.7-1.25 2.23-1.21-.28-.51-2.89 1.59 2.46 4.44 2.89-1.58-.28-.52z" fill="#50d6cc"/><path d="M307.56 119h8.57s-.63-3.67.81-5.82l-8.48-.19m-.18.3h7.65s-.64-3.67.81-5.81l-7.55-.21m-73.26 134.45c3.09-1.22 5.36-.61 8.25-2.25s1.65-1.83 6.6.42 34.21 22.65 62.45 21 55.45-18.16 59.16-20.61 7.21-3.26 13.19 2.86c-12.78 9-38.75 29.79-73.18 29.18s-65.33-22.65-72.55-28.32l-4.33-1.63zm-3.67-1.81a7.29 7.29 0 01-3.77-3.74 7.74 7.74 0 012.42-.13c1.79-.6 2.53-2.56 2.59-4.09a7.69 7.69 0 00-3.9-4.53 8.56 8.56 0 00-6.06.55c-1.48.73-1.6 2.08-2.22 3.3a9.87 9.87 0 004.27 9.86m26.71 11.08a4.12 4.12 0 000 2.15c.37 1 1.3 2 1.42 3.05 1.11 1.65.68 3.42.37 5.27-1.11 1.59-3 2.2-3.89 3.79-.81-2-.43-4.53-2.72-5.64-1-.12-1.43-1.21-2.11-1.89-.18.42-.92.42-1 .92-2 1.16-4 2-5.82 3.73a6.72 6.72 0 01-6.11.12l-1.12-1.22c5.26-1 2.16-8.39 7.92-8.51a3.24 3.24 0 001.11-1.53 5.29 5.29 0 00-.86-2.76c-3.59-.72-6.87-2.07-10.46-2.62a.38.38 0 00-.55.3l.3.37-.12.06a4.24 4.24 0 011 4c-.44.91-.74 2.26-2 2.45a5.55 5.55 0 01-5.25-.43 8.3 8.3 0 01-2.66-7.11 6.84 6.84 0 013.59-4.71m16.3 7.83l7.42 1.53m137.67-8.19a15.28 15.28 0 007.11-1.59c1.92-1.11 4.14-2.75 5.13-4.78.68-.12.87-.85 1-1.4-.8-.24-1.67.3-2.54-.24a3.39 3.39 0 01-2.06-6c3.13-1.65 5.2-3.06 8.74-.63 1.42 1.9 2.78 4.11 2.23 6.56.06 2.26-1.68 3.85-3 5.26a6 6 0 001.91.79c2.78 1 5.81 3.07 5.87 6.25.81 1.77-.8 3.36-1.66 4.83-1.29 1.77-3.89 2.15-5.88 1.9a4.86 4.86 0 01-3-2.45c-.62-1.53.12-3.06.86-4.4-2.22-.07-4.2 1.1-6.55 1.1-1.49.18-2.72 1-4.33 1 0 0-5 .8-8.1 1.41s-3.71-.91-3.71-.91M373.5 252c1 1.47.56 3.73-.12 5.14-2.29 3.18-3.65 7.41-1.42 10.95 1.91-3.79 7-4.15 9-7.65l-.13-.06.44-.55.8.55a10.51 10.51 0 016.18 5.14c.37.5.25 1.35.8 1.53.69-1.59 2.23-2.86 2-4.58.55-1.11-.07-2.33-.31-3.19-.5-.79-.74-1.9-1.12-2.57-1.42-1.16-1.17-2.94-1.24-4.59.07-.92-.55-2.15.13-2.75" fill="none" stroke="#50d6cc" stroke-linecap="round" stroke-linejoin="round" stroke-width="1.03"/><path d="M241.45 251.31c2.16.46 5.67 1.13 6.9 1.22m-6.7-.09c2.48.4 5.31 1 5.31 1m-5.51-.1a13 13 0 003.91.87m-4.43.21a9.16 9.16 0 002.89.7m-3.76.32a6.77 6.77 0 001.95.45m-2 .45l1 .26m8.14-2.59l1.59.25m-1.23.77l1.23.14m-1 1l1 .15m-.67.92l.73.1m-.36 1.12l.56.11m124.65-5.87a41.68 41.68 0 004.41-.15m-4.23 1.45c.46 0 3.75-.12 3.75-.12m-3.95 1.38l2.87-.15m-3.13 1h2.66m-2.74 1h2.51m-2.94 1.27l1.32.08m6.41-6.67a32.85 32.85 0 003.91-.58m-3.63 1.79a27.73 27.73 0 003.43-.49m-2.9 1.72l3.06-.46m-2.21 1.61a17.93 17.93 0 002.4-.43m-1.39 1.61c.54-.15 1.51-.34 1.51-.34m-.58 1.41l.89-.3m-.08 1.3l.62-.12M299.73 144l2.06-1.17m-1.08 2l1.39-.92m-.56 1.89l1-.81m-.25 1.72l.77-.65m.1 1.73l.52-.56m.36 1.63l.41-.42m.36 1.34l.31-.46m.32-8.74l2.45-.58m-1.85 1.7l1.74-.59m-1.35 1.79l1.37-.63m-1 1.76l1.07-.57m-.66 1.9l.79-.59m-.39 1.91l.64-.49m-.27 1.63l.56-.57m3.58-8.74l2.49.44m-2.39.83l1.83.14m-1.95 1.11h1.5m-1.6 1.2l1.22-.09m-1.38 1.47l1-.22m-1.17 1.61l.78-.19m-.9 1.37l.74-.28m6.51-5.36l2.2 1.24m-2.53 0l1.67.76m-2.22.39l1.43.47m-1.94.61l1.18.3m-1.8.93l1 .11m-1.6 1.13l.8.09m-1.32 1h.8m8.51-2.63l-1.89-1.67m.82 2.37l-1.24-1.33m.31 2.21l-.9-1.2m0 2l-.66-1m-.33 2l-.42-.88m-.57 1.85l-.33-.73m-.54 1.55l-.23-.76M327.48 164.79c1.59-1.06 3-2 4.09-2.62 1.34-2.1 2.15-4.47 3.79-7.33 1.93-3.36-2.08-3.29-4.09-1.83a46.82 46.82 0 00-6.67 5.89c-.29 4.01-1.72 8.96 2.88 5.89zm-14.07.69c2.63-2.37 4.18-4 5.41-6.42s6-4.52 5.8-.46-1.86 9.33 2.85 6.19 7.5-5.19 7.89-1.6.08 3.44-.93 4.51a16.68 16.68 0 01-1.77 1.68s.07-2.29.07-3.82-.3-2.07-3 .46-4.25 3.74-6 3.44-1.62-.15-1.62-.15l-1.24 1.46-1.16-.7 1.31-2s-1.23-1-.54-4.28 1.78-6.65-.38-3.67-2.28 3.76-6.69 5.36zm-21.45-3a23.21 23.21 0 014.87 3.26m-3.67-4.74c1.54 1.41 3.56 2.94 4.75 4.29m-3.4-5.62l3.79 4.63m-2.17-5.67a36 36 0 003.06 5.43m-1.51-6.06a14.88 14.88 0 002.36 5.44M299 158a16 16 0 001.66 5.16m-.27-2.75a36.23 36.23 0 00-1.16-3.63 1 1 0 01.72.1.59.59 0 01-.11.08c.12.23.31.24.49.35 0 .09-.18.11-.27.11h.14c.06.55.31.06.31.61l.37-.19c-.12 0-.31 0-.37-.12-.18-.37.86-.18.68-.54a2.81 2.81 0 01-1.24-.13.62.62 0 01.44-.11.1.1 0 01-.07-.08l.06-.11c.25 0 .62-.13.81.11 0 0-.08.09-.14.09.35.05.75-.14.69-.2l-.86-.13c0-.05 0-.08.09-.1a.28.28 0 01-.34-.14c.12 0 .12-.19.12-.31-.49-.18-.61.31-1 .12.24-.12-.19-.36.18-.36-.12 0-.24.06-.31-.06l.13-.12c-.25-.06-.62.06-.8-.12a.82.82 0 01.6-.11.29.29 0 01-.17-.13l.12-.07h-.43l.12.07c-.61.36-.31-.19-.68-.31a1.28 1.28 0 01-1.23-.43c-.38.06-.87-.19-1.12.17 0-.36-.68-.11-.8-.17a.32.32 0 01.12-.25c-.55.31-.86-.54-1.29-.12l-.13-.06c0 .06 0 .24-.12.3l-.25-.24c.06.18-.13.24-.19.37l-.24-.25-.12.12a4.86 4.86 0 01-1.55.87l.12.11a8.54 8.54 0 00-1.91 2l.12.07c-.62.06-.43.36-.68.55.13.36-.37.55 0 1l-.43.18.25.25-.13.12c.13 0 .37-.12.44.06l-.19.24.06.13-.62.66h.31l-.31.3c.06 0 .25 0 .31.14.19-.08-.62.66.13.73a2.06 2.06 0 00.12 1.1h.19c.18.24.92.07 1.11.54.43-.05.74.74 1.11.12a1.39 1.39 0 010-.35c2.22.63 3.52 1.29 4.59 2.75 1.24 1.68 1.86 1.07 2 2.9s.15 2.61.15 2.61a4.78 4.78 0 003.55-.77 8.66 8.66 0 004.18-4c-3.06-2.09-5.06-3.93-5.71-6.37zm-2 6.92a12.58 12.58 0 01.81 4.17m.16-4.48h0a28.83 28.83 0 011.69 4.18m-.81-4.82a21.74 21.74 0 012 4.12m-1.24-4.67c.65.76 2.35 2.95 2.86 3.36m-1.86-4a23.2 23.2 0 003.21 2.56m25.58 47.82a8.49 8.49 0 00.65-2.53c.31-1.23.87-2.69.62-3.67-2-2.63-1.73-5.81-1.11-8.69a4.05 4.05 0 01.68 2.08c.43 3.18.12 6.73 2.9 8.81.8-.19 1.54.31 2.35.43-.25-2.26-3.28-2.51-3.34-5-.87-3.55.12-7.9-2.47-11.14-1.6-.67-4-.12-5.75-.12-3.65.12-8.22 1.22-11.93-.12-2-1.65-5.63-.37-8-1.54-2.35-.43-.37-2.62-2.11-3.6-1.11.3-.49 1.4-1.29 2a4.78 4.78 0 01-4.95-.55l-.06-.12c-.61.37-.43 1.22-.49 1.64.24 1.11 2.4.93.92 2.22a14 14 0 01-2.75 1.95c-.5.59 0 .83.07 1.2a2.09 2.09 0 00.79 1.69c1.64.27 4-.53 5.54.54a4.42 4.42 0 012.66 2.75c1.11 2 1.42 4.71 4 5.75 0 2-.06 4.36-2.11 5.26-.3.38-.41.85-.79 1l3.27-.05c1.17-1.16.37-2.87 1.42-4.23.56.06.81.81 1 1.23.67 1.11-.74 1.9-.74 3h2.53c0-.8.81-1.68.31-2.73-.31-1.22-1-2.63-.62-3.85 1.92-.62 3.59-.31 5.57-.24l.43.55a9.85 9.85 0 013.52-1.78c.5.8.07 1.9.38 2.76a7.22 7.22 0 01-3 4.34s-.18.62-.33 1l3.27-.05v-.39c1-2.4 3.77-2.7 3.9-5.51.12-.61.86-.49 1.23-.37.56.54 1.55.3 1.8 1.11a5 5 0 01-1.24 4.94l-.29.15z" fill="none" stroke="#50d6cc" stroke-linecap="round" stroke-linejoin="round" stroke-width=".51"/><path d="M304 192.8a1.61 1.61 0 01-.85 1.15m-8.58 4.37a.71.71 0 00.7.37l.77-.31m13.91 13.32l-1.62-4.9m13.14.7s1.7-1 2.47-.55.85.31 1.47 1.31a3.07 3.07 0 001.86 1.22m-23.81-14.15a5.35 5.35 0 002.4-.93m6.1 14.63a21.73 21.73 0 00.16-2.53m19-5.67l-.61-2.75m-94.77 44.46l-2.68-1.64c-.21-1.22-1.44-.81 1-1.83a48.35 48.35 0 004.53-2 17.6 17.6 0 003.09-2l-1-.61a32.9 32.9 0 00-1.24-10.46c-1.65-6.53-4.74-14.9-2.89-20.2a99.39 99.39 0 003.13-12.64m1.18-7.14a47.12 47.12 0 00.23-8.18 8.33 8.33 0 011-3.26 28.56 28.56 0 007-1.23c2.67-1 3.91-1.62 3.91-1.62s.41.81 4.32 1a32.43 32.43 0 007.63-.62l1 2.24s-1.23 3.47.62 4.49a11.14 11.14 0 012.89 2.25s1.44 1.63.82 8.17a67 67 0 01-1 7.75c-.62 4.27-.21 4.27-1 7.55s-1.65 3.87-.41 10 2.27 6.94 2.27 12.65.62 9.8-.21 11.63-1.44 1.64-1.44 1.64l2.88 1.22m-11.33 3.47a1.54 1.54 0 01-.82-2c.41-1.64.62-2.45.62-2.45a3 3 0 01-1.66-3.06c.21-2.24 1.45-3.88 0-8.57s-1.64-5.91-1.44-9.59-.2-4.28-1.24-7.55-.82-8.36-1.23-10a10.7 10.7 0 00-1-2.65s-.41 3.47-1.44 4.7-.62 1.83-1.65 3.66a5.27 5.27 0 00-.82 3.88 9.78 9.78 0 010 2.46 13.55 13.55 0 011.65 5.7c.41 3.89.41 2.05 1 7.55s2.47 11.75 1.45 11.75-1 .41-1 .41l1.44 3.67m-12-6.12a26.47 26.47 0 006.61 1.54m2.8.29c.57.07.63.14 1.1.21m7.43 1.43c2.88.4 5.77 1 8.65-.21" fill="none" stroke="#50d6cc" stroke-linecap="round" stroke-linejoin="round" stroke-width="1.03"/><path d="M253 138.27s1.44 1 .62 7.75-.41 9-.41 14.09-.41 9.58-.41 9.58m10.92-34.27c-1.24 1.83-2.68 6.11-3.71 9.17s-2.27 1.43-3.3.41-2.47-2.44-2.88-4.08a13.07 13.07 0 01-2.03 3.08c-1.44 1.63-2.26 1.43-4.32-.62s-2.26-3.26-3.3-4.68a13.06 13.06 0 00-2.88-2.7m23.7 33.7c-.42-.82 0-1.43 1.44-1.64a8.09 8.09 0 002.27-.61c2.68-.62 4.12.2 2.26-2.65s-2.68-3.26-3.09-4.9a14.73 14.73 0 01-.41-1.83s-1.85 2-.62 3.47a5.4 5.4 0 011.44 3.46 14.84 14.84 0 01.21 2.24m-41.12-23.1s.93-4 1.85-5.06.62-.91 1.55-1.37 1.24-.31 2.63.14 3.21-.26 2.43 2.49c.08.62 0 2.11-.54 2.49a2.86 2.86 0 01-.65 2.49 3 3 0 01-1.2 1.79l-.2-.46m2.53-5.94l-1.75-.86m1.28 3.16a3.09 3.09 0 00-1.18-.61 5.59 5.59 0 01-1.34-.56m1.86 3.52l-2.22-1m-.73-6.95l-.46-2.39 6.68-1.18-.95-5.3a4.24 4.24 0 00-8.24-.89l-.7.1a4.24 4.24 0 00-7.4 2.79 4 4 0 00.21 1.3l.87 4.85 7.39-1.3.6 3.08m21.82 101.37l-18.05-93.33m-1.88 1.85L249.05 239m-6.52-66.9c-2.47-.82-3.51-3.26-3.92-5.72 0 0 0 .48-1.18.65m-4.17-20.44a17.15 17.15 0 00-2.47 2.26 13.2 13.2 0 00-1.44 2.23s-.62-.81-1.65-2-1.24-1.43-.62-2.65a3.71 3.71 0 00.41-2.24 5.08 5.08 0 01-1.85.61c-1.24.21-.62 1-1.24 2.24s-.2 1.85 0 2.85 3.09 9.6 4.54 13.48 2.27 3.26 6 3.67m31.06 5.51a11.72 11.72 0 012.47 2.86c1 1.42 2.06 2.65 2.06 2.65s1.24-.82 3.92-2.46 3.71-3.3 5.15-5.29 1.21-1 1.21-1l-3.56-5.95v-6.57a10.79 10.79 0 00-.12-3.62c-.41-1.84-3.09-5.92-3.71-8.16s-.82-2-1.65-2.86-.83-1-2.06-3.47-2.48-2.65-3.71-2.25-1.45-.4-2.27-1.22-1.24-.61-3.3-1a13.08 13.08 0 01-4.12-1.83 12 12 0 00-.41 1.83 14.87 14.87 0 01-1.45 3.26 1.55 1.55 0 01-2.46.41 14 14 0 01-2.89-3.05c-1.65-2.05-1.65-2.86-1.65-2.86s-2.06 1.43-3.3 2.24-2.26.41-2.68 1.43-.82.61-2.47 1-2.05 1.22-1.86 2.45-.4 4.89-1 7.75c0 0-.83 3.31-1.76 4.46m16.72-21.48a11.8 11.8 0 01-.78-2.59c-.59-2.49 1.47 0 1.47 0l1.59-2a3.54 3.54 0 01-.89-1.37c-.79-1.76 2-4.75 3.95-5 0 0-6.89 1.37-9.4 2.63s-4.25 3.48-3.25 4.9a42.45 42.45 0 013.64 5.51 17.6 17.6 0 001 2.14c.23.23.58.53.58.53s-.31-1.64-.5-2.33-.23-1.19.46-1.49l2.14-.93zm5.25 2a7.69 7.69 0 001.63.45c.93.16 2.39.16 2.24-1.07s-.16-2.21-.93-2.37a1.85 1.85 0 001.16-1.52c.08-.77-.15-.93.31-1.08s.93-.07.15-1.23a7.6 7.6 0 01-1.31-3.06c-.15-.91-1.24-3.29-3.17-3m-5.25 10.78c.23.45.61.77.92.15a6 6 0 01.62-1M371 219.15c-1.3 3.92 1.11 8-.37 11.94a26.79 26.79 0 00-.75 8.45 9.56 9.56 0 01-2.22 3.42 12.12 12.12 0 01-5.26-.73 37 37 0 00.8-9.73c-.24-2.14-1.48-4.23-1.79-6.49-.06-2.63.75-5.39-1.24-7.47v-3.12a9.67 9.67 0 009.78-.12c.8-.25.8-.86 1.61-1.1.89 1.71-.4 3.48-.56 4.95zm11.11 6.19A10.3 10.3 0 01384 227s.77 1-.36.86-.68-1.32-1.86 1-3.61 9.6-3.61 9.6m3.83-21.41s-.94 0-2.59-.23a6 6 0 01-3.1-1.78s-.31.56-.82 1.69 0 3.57.26 5.55-.26 3.53-.11 6.43m10.83-48.92c1.7 5.2 6 13.47 4.48 14.39a12.78 12.78 0 01-4 1.23s.56 1.11 1.39 7.84c.06.51 0 2.1 0 2.1m-40.48-53s2.14-2.55 4.93-5.92 1.85-4.9 2.78-5.67a4.58 4.58 0 001.08-1.06s-2.94-2.15.31-2.61 5.57 0 7.42-.15 3.09-1.38 4.48-1.52a2.75 2.75 0 001.86-.77s1.39 3.52 3.39 5.2a63.83 63.83 0 016.19-4.74 21.8 21.8 0 007.26 4.13c5 1.84 6 2.45 5.42 3.67s-.16.46-.16.46a20.36 20.36 0 011.08 11c-1.08 6.27-1.39 9.33-1.39 9.33s1.7 1.07 2.17 4.44 6.44 12.45 6.44 12.45-3.5-2.19-6-.36a4.67 4.67 0 00-1.55 4.9s-1.39-2.29-3.09-5.81a40.06 40.06 0 00-3.25-5.66m-26.9 41.64l.41-1.44s-.51-2.64-.72-4.58.31-2.66-.1-4.49-1.34-5-1.65-6.73a20.15 20.15 0 01-.31-3.17s-2.26-.3-2.68-1.63-.2-1.42.93-4.89 2.78-7.14 2.37-10.92c0 0 .93-.71 1.65-3.36 0 0 4.23 1.73 6.18-.51s3.09-3.38 3.82-7.75.2-2.66-1.34-.92-5.47 3-7.32 1.22a26.9 26.9 0 00-1.65-7.14 19.61 19.61 0 01-1.44-3.67 10 10 0 01-2 2.14c-1.34 1.12-2.16 1.32-.41 3.26a46.07 46.07 0 013.7 5s-1.43.21-2.15 3a14.8 14.8 0 00.31 6.43s-6.73-1.45-9.82-7.37m28.26 46.94s.77-1.06.15-4.59a63.85 63.85 0 00-2.93-9.33 23.31 23.31 0 01-1.4 6c-1.23 3.36-1.39 4.74-.92 7.19m10.77 11.42s-1.13-1.37-2.48.26a13.36 13.36 0 01-2.88 2.66c-1 .81-1 .5-1 .5l-5.88 10.71m27.21-50l-14.53 27.34a28.49 28.49 0 01-1.44 3c-.72 1.22-.8.56-1.45 1.84s.21 1.84-1.34 2-1.54 1.73-.82 2.15a1.52 1.52 0 01.82.91 6.86 6.86 0 002.07-1.83c1-1.33 1.54.09 1.54.09l4.74-10.1 11.65-23.67m3.35-7.13l4.33-8.73-.93-.91-4.48 7.65s.83.29 1.09 1.93zm-19 39.63c-1.14-.56 2.17-.3 2.17-.3s.29 1.46-2.18.24zm.93 2.45c1.24-.91 2.47-2 2.16-3.82a9.12 9.12 0 01.78-4.6 6.58 6.58 0 000-2.44 4.52 4.52 0 01.47 3.77 12.26 12.26 0 00-.67 3.83c-.2 2.35-.52 8.27-.93 10s-.2 4.94 1.85 6.28 4.6 2.64 4.6 2.64m10.77-59.38s1.39 1.69.87 3.33a7.27 7.27 0 01-1.59 3.31s.15 1.12-.68 1.38-2.52 1-3.29.25-1.13-1.13-.72-1.63a2.84 2.84 0 00.51-.88h-.92l-.21-1.22h-.41s-.87-1.63-1.28-2.44a20.1 20.1 0 00-1.3-2.05m6.29-1.07l.62.51m1.18 2.31a15.33 15.33 0 00-.21 2.18c0 1-.46.71-1 .56s-.15-.56-.56-1.53a6.18 6.18 0 00-1.4-1.83 4.26 4.26 0 01-.76 1.43 16.44 16.44 0 00-1.29 1.73" fill="none" stroke="#50d6cc" stroke-linecap="round" stroke-linejoin="round" stroke-width="1.03"/><path d="M398.1 188.2a2.79 2.79 0 002.12.78 9.82 9.82 0 011.9 0m-1.8-1.89h-1.39l-1.08-1.93M387 195.33s-5.88 1.22-7.42 1.45-3.17 1.06-3.55-2.6-1.63-15.68-1.78-17.37a18.54 18.54 0 00-.7-3.37 67.41 67.41 0 00-2.62 11.33c-1 6.72-1.86 10.78-1.86 10.78s-.62.84-2.78.38-5.88-.22-8.27-1.14m10-23.42a69 69 0 008 1.38l-.62-2.44-1.23-.92-.12-1.76m-10.47-30.69a97.3 97.3 0 001.69 11.17c1 3.9 5.18 13.78 6.5 15.54a25.56 25.56 0 013 5.2c.39 1.06 1.08 3.21 1.39 4.35s1.78 5.6 2.32 7.2 4.79-.07 7.34-.53 1.4-.62 1.47-2.15a8.18 8.18 0 00-.38-2.83c.46-.53.38-1.07-.16-2.9a19.73 19.73 0 00-1.47-4.52l-8.57 1.61s-5.18-7.73-6.5-10.56-4.32-11.33-4.95-16.15-.61-5.5-.61-5.5m9.35 28c5.18-6 8.89-11.13 10.13-26.82m-9.82 27.73c5.33-5.43 10.13-13.7 11-27.4m-12 25.49s.92-10.57.69-14.62-.31-7.27-.31-8.26v-1.22m.85 24.48c.08-.31.77-7.73.7-11.41s-.54-13.54-.54-13.54m-18.17.31s1 .3 2.63 3.37 3.71 6.89 3.71 6.89l2.55-.7m1.24-.69a12.09 12.09 0 004.71-3.37c1.39-1.75 1.63-2 2.32-2.05m1.24 0l6.88 8.42m1 .23a4.68 4.68 0 004-1.77 62.13 62.13 0 014.25-5.27 8.82 8.82 0 001.32-1.3m-5.57 31.42s-4.33.51-5.46.72-2.06 1.32-2.68-.4-1.23-4.39-2.06-6.14m7.83-1.42c.72-1.13 2.27-3.88 2.37-6s0-6.33.51-8a28.13 28.13 0 00.83-4.08m-29.78 5.82a18.72 18.72 0 01-1-6.53m16.18 52.44s.51-5.11.62-8.47M360.18 174l-1.7-.41a10.06 10.06 0 00.15-3.21 8.09 8.09 0 011-4.59c.57-1.18 1.95.3 1.95.3m-3.75 9l.72 2.54M371 134.59l.1-1.11a3.78 3.78 0 01-2.16-.32c-.72-.5-.31-.61-.11-1.32l.11-1.43.77-.14s-.77-.06-1-.47a8 8 0 01-.31-1.83s-1.34-.1-1.13-.83a3.65 3.65 0 011.13-1.62c.52-.51.72-.4.52-1.13a2.42 2.42 0 010-1.52 12.06 12.06 0 01.51-1.33l5.35-.2s-.61 1.12.11 1.32 2.06.51 1.44 2-1.13 2.85-.72 3.36.62.82.62.82a11.33 11.33 0 01.92-2.15c.52-.81.31-.4 1-.5s1.23-.31.72 1.12-.6 3-1.23 2.77a4.24 4.24 0 00-1.12-.19s-.43.59.8.69 3.61 1.73 3.61 1.73l-.62 2.65" fill="none" stroke="#50d6cc" stroke-linecap="round" stroke-linejoin="round" stroke-width="1.03"/><path d="M368.37 128h1.08m1.55 5.55l2.13-.23m7.82-1s2.47-.91 2.78-2.14 1.34-3.78.62-5.4-1.55-2.15-4-3.07a12.76 12.76 0 00-5.57-.4m7.68-4c2.16-.61 3.71-2.29 6.64-1.53s6.5 5.05 2.79 5.05-5.27-.07-5.27-.07m-92.75 8.87s-.31-.84.94-.91 5.56-.08 6.33-.08 1 .15 1.7 1.14S306 134 306 134s.3.84-1.86.84h-5.41c-1.15 0-1.23-.15-1.69-.68s-3.19-4.49-3.19-4.49zm18.09 0s-.31-.84.93-.91 4.87-.08 5.64-.08 1 .15 1.7 1.14 3.17 4.21 3.17 4.21.31.84-1.85.84h-4.72c-1.16 0-1.23-.15-1.7-.68s-3.19-4.48-3.19-4.48zm16.54 0s-.31-.84.93-.91 4.41-.08 5.18-.08 2.24.08 2.94 1.07 2.08 3.6 2.08 3.6.62 1.52-1.54 1.52h-4.72c-1.15 0-1.23-.15-1.69-.68s-3.2-4.48-3.2-4.48zm-25.58 0s-.31-.84.93-.91 5.56-.08 6.33-.08 1 .15 1.71 1.14S315 134 315 134s.31.84-1.85.84h-5.41c-1.16 0-1.24-.15-1.7-.68s-3.14-4.49-3.14-4.49zm17.24 0s-.31-.84.92-.91 5.11-.08 5.88-.08 1 .15 1.7 1.14 3.17 4.21 3.17 4.21.3.84-1.86.84H325c-1.16 0-1.24-.15-1.71-.68s-3.15-4.48-3.15-4.48zm-34.63.61s-.24-1.45 1-1.52 4.95-.08 5.72-.08 1 .15 1.7 1.14 3.15 4.22 3.15 4.22.31.84-1.85.84h-4.8a5.43 5.43 0 01-3.24-1.22 26.44 26.44 0 01-1.7-3.34zm2.08-1.52a10.48 10.48 0 012.33 3.36c.53.91 1 2.44 1.76 2.68m-5.63-6a10.42 10.42 0 012.32 3.36c.54.91 1 2.44 1.77 2.68m-.77-6a10.42 10.42 0 012.32 3.36c.54.91 1 2.44 1.78 2.68m-2.17-6a10.48 10.48 0 012.33 3.36c.54.91 1 2.44 1.77 2.68m.85-6a10.42 10.42 0 012.32 3.36c.54.91 1 2.44 1.77 2.68m-5.64-6a10.48 10.48 0 012.33 3.36c.54.91 1 2.44 1.77 2.68m-.77-6a10.42 10.42 0 012.32 3.36c.54.91 1 2.44 1.77 2.68m-2.16-6a10.42 10.42 0 012.32 3.36c.54.91 1 2.44 1.78 2.68m1.31-6a10.42 10.42 0 012.32 3.36c.54.91 1 2.44 1.78 2.68m-5.64-6a10.58 10.58 0 012.32 3.36c.54.91 1 2.44 1.78 2.68m-.78-6a10.42 10.42 0 012.32 3.36c.54.91 1 2.44 1.78 2.68m-2.16-6a10.53 10.53 0 012.31 3.36c.54.91 1 2.44 1.78 2.68m.85-6a10.42 10.42 0 012.32 3.36c.54.91 1 2.44 1.77 2.68m-5.63-6a10.53 10.53 0 012.31 3.36c.54.91 1 2.44 1.78 2.68m-.77-6a10.42 10.42 0 012.32 3.36c.54.91 1 2.44 1.77 2.68m-2.16-6a10.42 10.42 0 012.32 3.36c.54.91 1 2.44 1.77 2.68m.78-6a10.42 10.42 0 012.32 3.36c.54.91 1 2.44 1.78 2.68m-5.65-6a10.26 10.26 0 012.32 3.36c.54.91 1 2.44 1.77 2.68m-.76-6a10.42 10.42 0 012.32 3.36c.54.91 1 2.44 1.77 2.68" fill="none" stroke="#50d6cc" stroke-linecap="round" stroke-linejoin="round" stroke-width=".77"/><path d="M326.32 128.76a10.42 10.42 0 012.32 3.36c.54.91 1 2.44 1.77 2.68m.63-6a10.36 10.36 0 012.31 3.36c.55.91 1 2.44 1.78 2.68m-5.64-6a10.42 10.42 0 012.32 3.36c.54.91 1 2.44 1.77 2.68m-.77-6a10.42 10.42 0 012.32 3.36c.54.91 1 2.44 1.78 2.68m-2.16-6a10.58 10.58 0 012.32 3.36c.53.91 1 2.44 1.77 2.68m-41.48-14.08l-7.73-3.67m9.48 1.84h9s-.72-3.68.92-5.82l-8.86-.21s-.96 1.07-1.06 5.87zm17-4h7.73s-.72-3.68.92-5.82l-8.38-.2m-15.94 4.18h7.85s-.63-3.68.81-5.82l-7.76-.2s-.8 1.09-.89 5.88zm.83-6.32h6.91s-.63-3.68.81-5.82l-6.82-.21s-.8 1.14-.89 5.89zm8 .4h6.93s-.95-3.16.5-5.31l-6.83-.2a8.44 8.44 0 00-.56 5.37zm7.63 1.53h6.92s-.94-3.16.5-5.3l-6.83-.21a8.43 8.43 0 00-.55 5.37zm-14.84-8H308s-.63-3.67.81-5.81l-5.8-.2s-.82 1.12-.91 5.91zm7.83.82h5.89s-.94-3.06.5-5.21l-5.8-.2s-.48.52-.55 5.31zm7.63 1.53h5.89s-.94-3.06.5-5.21l-5.8-.21s-.46.52-.55 5.32zm6.19 9.49l4.42-2.15c-2.16 6.43 2 9.29 2 9.29l-10.35-.31m-.48 1.43l.72-5.91m-6.59 5.87V119m-8 1.47v-1.36m8-23.06v-5.63m-8 4.29v-4.29m15.46 7.23v-4.47m-.21 1.22s-.2.1-1.44-.31a3.68 3.68 0 00-2.27 0 6.14 6.14 0 001.44.71 12.76 12.76 0 002.48.93m-7.63-4.6s-.21.1-1.44-.3a3.59 3.59 0 00-2.27 0 6.82 6.82 0 001.45.71 12.22 12.22 0 002.47.91m-8.35-1.32s-.21.1-1.44-.3a3.59 3.59 0 00-2.27 0 6.82 6.82 0 001.44.71 12.5 12.5 0 002.48.91m10.92 26.33l1.64 2.13m-27.41-3.77l10.93-13m-7.53 14.69l7-10m20.1 6.13l1.93 6m-1.11-6l1.94 6m-1.11-6l1.94 6m-64.43 1.64c3.91-1.42 1.06.11 3.64-1.32s1.44-4.49-1.75-4.39c-.55 0-1.44.12-2.54.26a6.58 6.58 0 01-2.1-3.22c-.31-1.22-.41-1.62-3.09-1.32s-11 2.85-12.37 3.67-.82 1.12-.72 1.94a21.66 21.66 0 01.71 2.71c-.55.19-1 .38-1.43.56-4.12 1.84-5.36 2.75-4 4.28s2.46 1.12 3.91 1a20.43 20.43 0 003.09-.5M369.3 121.74c-3.71-.4-4.64-.51-6.09-1.83s-.61-3.68 1.66-3.88l5.36-.51s0-.92 1.75-.72a50.3 50.3 0 017.83 1.33c2.27.71 3.4 1 3.4 1L376 120a41 41 0 004.74.31c3.51.1 4-.61 6.7.92s6.91 5.71 3.2 7.14-4.95 1.53-5.77 1.53-.52-1.74-.42-3.26a4.74 4.74 0 00-4.63-5.11c-4-.41-5.46-.81-7-.41a27.71 27.71 0 01-3.52.62zm-71.94-1s2.27 1.53 3.81 2.45a14.19 14.19 0 002.17 1.12s0-.1 1.13-.71 1.34-.62 2.57 0 1.24 1 2.48.4.82-1.43 2.06-.61 1.54 1.44 2.78.61 1.24-1.12 2.37-.51.41 1.53 2.37.61 1.86-1.43 3.09-.5 1.34.91 2.57.3 1.45-1 2.17-.2.72.61.72.61 1.65-.41 1.24-3.27l-31.54-.3zM286.96 215.6h54.59M327.19 223.38c.18 0 .43-.12.55.11l-.12.07c1.05-.18.43.93.55 1.1h-.06c-.06.36.19 1-.12 1.11h.09l-.37.05-.15 1c-.25.56.8.8 1.17 1.1.13 1.17 2.23 2.45.68 3.31a9.68 9.68 0 00-7 3.67c-3 2.14-5.19 6.25-9.46 6.06a9.4 9.4 0 01-6.12-3c-.62-1.22-1.54-2.69-.68-4a2.41 2.41 0 012.54-1.35c1.17-.06 1.85.92 2.72 1.53.37-.37.12-1 .18-1.53a4 4 0 00-2.35-2.33 4.17 4.17 0 00-2.84.43c-.74.43-.8 1-1.6 1.1-1-1.34-2.42-2.39-2.66-4.16l.37-1c.6-.34.88-1.66 2-1.34.31-.31-.24-1.53-.12-1.53-.12 0-.12-.19 0-.25a2.43 2.43 0 01-.2-.69l-.26-.88a6.74 6.74 0 012.11-.77c.83-.05.57 0 1.6.61a5 5 0 002.11.61c.36.1.21 0 .36-1s.2-1.89.82-2.2 1.08-.56 1.08-.56 0 .15.57.71 1.55.62 2 1.53a3.91 3.91 0 00.82 1.28 4.9 4.9 0 01.47-1.74c.41-.8.62-1.12 1.19-1.33a4.5 4.5 0 00.71-.3s.31.3.46 1.73.47 2.45.83 2.1.62-.11.82.1.36.46.72-.77.52-2.14 1.19-1.63 1.29.92 1.29 1.94-.21 1.58.25 1.73a2.47 2.47 0 001.49-.15c.47-.15.93 0 1.29-.2a10.75 10.75 0 011.13-.33z" fill="none" stroke="#50d6cc" stroke-linecap="round" stroke-linejoin="round" stroke-width="1.03"/></svg>