<svg xmlns="http://www.w3.org/2000/svg" width="300" height="300" viewBox="0 0 300 300"><path d="M55.21 146l5.87-2c2.32-.81 1.92-.44 2.74 1.93-1.11.39-3.76.74-4.53 1.57-.59.65-.26-.23-.34.71a9.27 9.27 0 00.89 2.56c.7.52 3-1 3.95-1.12s.54-.44 1.1.07c.38.34.58 1.68.76 2.17l-4.84 1.67L62 156.8l5-1.75c.16.46 1 2.23.85 2.61s-2.51.88-3 1.06c-1 .35-3 1.49-4.11 1.42-.94-.06-.14.3-.78-.52a12.93 12.93 0 01-1.1-3.17l-1.6-4.6-2-5.88M83.48 152.89l-1.63-6.28-1.28-4.93c-.17-.66-1-2.52-.83-3.19.36-1.28 6.46-1.85 7.57-1.47a4.86 4.86 0 012.91 5.83c-.71 2.55-3.15 3.23-5.46 3.74.38 1.46 1.2 3.23 1.22 4.71 0 .95.37.48-.2 1a7.35 7.35 0 01-2.3.61M92.09 135.06l2.77-.61 2.65 12.18 4.54-1c.45 2.14 1.14 2.56-1 3l-5.72 1.24L92.09 135M105.09 132.4l1.23 7.24c.16.91.23 1.92.48 2.81.64 2.28 3.68 3.33 4.5.47.61-2.16-.73-5.82-1.09-7.95-.09-.57-.84-2.72-.55-3.24s2.23-.49 2.77-.58c.76 4.45 4.46 15.08-2.47 16.23s-6.89-10.06-7.65-14.5l2.78-.46M116.81 130.54c2.18-.25 5.12-1 7.26-.39 4.55 1.38 4.25 7.76 0 9.22l4.73 5.11c-1.75.19-2.86.72-4.11-.38a45.62 45.62 0 01-4-4.57c.11 1 1.22 5.07.66 5.8a10.11 10.11 0 01-2.8.31c-.18-.13-.17-1.5-.19-1.68l-1.54-13.43M130 129.18c1-.08 2.38-.54 2.83.2.61 1 .29 3.87.38 5l.73 9.77c-1.05.07-2.39.53-2.85-.21-.61-1-.28-3.86-.37-5l-.72-9.77M137 128.67c1.91 0 4.2-.45 6 .08 2.66.77 4.55 4.95 1.46 6.58 4.07 1.13 3.07 6.51-.18 7.89-2 .84-4.71.58-6.82.65l-.5-15.2M153.26 128.43c-.06 2.4-1.7 12.28 1.66 12.83 4 .66 2.91-10.34 3-12.73 1.18 0 2.4-.3 2.8.56.53 1.1-.1 3.87-.13 5.08-.1 3.9.2 10-5.4 9.87s-5-6-4.87-9.86c0-1.33-.43-4 .14-5.22.42-.89-.33-.18.46-.6.5-.26 1.76 0 2.37.07M166 139.93c-.25 2.88 4.79 2.58 4-.42-.61-2.42-4.45-2.26-5.51-4.68-2.82-6.5 9.18-8.2 8.55-1.25-.69-.06-2.05.12-2.6-.21-.75-.45-.59-2-2.17-1.7-1.94.3-1.37 2.33-.22 3.13 1.37.95 3 1.08 4 2.54 4.94 6.85-9.73 10.89-9.06 2.35l2.94.24M193.6 132.44c-.45 2.34-3.75 12.37-.16 13.05s4.25-9.84 4.71-12.19c1.17.24 2.36.13 2.66 1 .38 1.12-.78 4.08-1 5.24-.71 3.71-1.29 9.26-6.5 8.64-5.69-.68-4.32-6.69-3.58-10.57.25-1.29.24-4 1-5.13.49-.71-.24-.25.55-.51.54-.18 1.74.33 2.34.45M205.22 134.78c.82.21 2.57.32 3.1.9s.79 2.84 1 3.72l2.35 8.48 2.72-10.77c1 .26 2.41.25 2.63 1.08s-.8 3.16-1 4.08l-1.59 6.28c-.15.62-.43 3.42-1 3.82a6.1 6.1 0 01-3.07-.6c-.5-.46-.71-2.49-.88-3.11l-2.59-9.17-1.89 7.45c-.14.55-.33 2.76-.8 3.13s-2.15-.4-2.76-.56l3.73-14.73M224 139.85c-.71 2.29-5 11.37-1.9 12.81 3.68 1.71 5.6-9.16 6.3-11.44.68.21 2.44.48 2.64 1 .27.69-1.05 3.42-1.27 4.11-.9 2.9-1.51 7.45-4.59 8.81a5.09 5.09 0 01-6.77-2.67c-.77-1.78-.19-3.54.34-5.28q1.26-4.09 2.54-8.19l2.7.85M235.29 143.4c.73.26 3.21.7 3.6 1.32s0 2.55-.06 3.19l-.15 9.12 6.11-7.31c.41-.49 1.28-2 1.88-2.13a9.51 9.51 0 013.47 1.4c.19.65-1.08 2.91-1.3 3.53l-2.15 5.81c-.38 1-.82 3.7-1.64 4.44-.63.58-1.81-.23-2.78-.59l3.95-10.69-4.34 5.3a34.12 34.12 0 01-2.64 3.21c-.87.82-.45.89-1.78.4s-.91-.23-1.1-1.31a21.86 21.86 0 01.09-4l.16-7.11-4 10.7c-1-.37-2.39-.51-2.5-1.37-.14-1.15 1.35-3.64 1.74-4.69l3.4-9.18"/><path d="M84.58 143.84c1.45-.4 4.09-1.45 2.66-3.48-1-1.36-2.88-.59-4.17-.25.24.9.5 4 1.51 3.73M122 137.25c1.92-.21 3.88-2.33 1.9-4-1.07-.89-2.69-.44-4-.31a19.82 19.82 0 00.4 3.46c.4 1.23.11 1 1.66.85M141.4 141c4.55-.11 3-5-.46-3.85-1.1.38-.72-.15-.8 1.2 0 .89.06 1.82.09 2.72a5.68 5.68 0 001.17 0M140.55 134.41c3.94-.14 2.62-4.28-.12-3.1-.91.4-.45 2-.41 3.12h.52" fill="#fff"/><path d="M41.07 163.11a127.28 127.28 0 00-5.37-12.19c-.81-1.51-1.79-3.11-1.13-4.87 1-2.6 4.49-3.86 6.83-4.76 7-2.68 24.66-4.62 23.42-15.36M34 147.69c1.24 2.72 2.72 3.33 5.47 2.33s5.68-2.44 8.48-3.69c6.86-3 13.73-6.17 20.86-8.53m80.36 10.29a231.45 231.45 0 0171.49 11.43c5.52 1.81 11 3.83 16.32 6.1q3.78 1.6 7.49 3.39c1.58.75 4.29 2.88 6 2.77s3.08-1.83 3.89-3.07c.64-1 1.69-4.52 3-5 .89-.29 2.33 1.51 3.13 2.18 6.21 5.16 13.15 11.48 20.88 14.21a40.9 40.9 0 01-3.08-10.47c-.2-1.26-1.1-5-.24-5.83.49-.48 2.2-.65 2.83-.83l15.92-4.64c-13.38-6.12-26.93-14.06-37.5-24.4-4.55-4.44-8.84-8.68-15.07-10.65-4-1.28-9.87-1.7-11.41 3.26-.92 3-1.26 6-2.41 8.94-.16.42-.76 2.48-1.29 2.65s-2.87-1-3.54-1.26a209.25 209.25 0 00-25.84-6.76 257.38 257.38 0 00-91.74-1.69 231.33 231.33 0 00-31.11 7.14c-2.2.67-4.42 1.7-6.65 2.2-1.67.38-1.52-.42-2.26-2.28-2-5.08-1.25-12.72-8.31-13.07-6.38-.31-13 3.91-17.34 8.19A142.68 142.68 0 011.5 158.38L17.42 163c.67.2 2.23.34 2.77.81 1 .84 0 4.49-.18 5.85a41.16 41.16 0 01-3.07 10.47c7-2.49 13.39-8.11 19.11-12.77.67-.54 3.72-3.91 4.6-3.85.43 0 1 1.15 1.19 1.45 1.39 2.13 2.15 4.9 4.49 6.23 1.49.84 2 .55 3.44-.21q4-2.06 8.14-3.91 7.68-3.43 15.62-6.19a234.44 234.44 0 0175.59-12.81z" fill="none" stroke="#000" stroke-linecap="round" stroke-linejoin="round" stroke-width="1.5"/><path d="M257.15 163.11a129.83 129.83 0 015.37-12.19c.82-1.51 1.79-3.11 1.13-4.87-1-2.6-4.49-3.86-6.83-4.76-7-2.68-24.66-4.62-23.41-15.36m30.86 21.76c-1.24 2.72-2.72 3.33-5.47 2.33s-5.68-2.44-8.49-3.69c-6.85-3-13.73-6.17-20.86-8.53" fill="none" stroke="#000" stroke-linecap="round" stroke-linejoin="round" stroke-width="1.5"/></svg>