<svg xmlns="http://www.w3.org/2000/svg" xmlns:xlink="http://www.w3.org/1999/xlink" width="600" height="366" viewBox="0 0 600 366"><defs><clipPath id="a"><polygon points="108.85 3.16 320.35 3.16 320.46 214.56 108.85 214.65 108.85 3.16" fill="none"/></clipPath></defs><title>flag-mississippi-dimensions</title><rect x="108.85" y="3.16" width="487.78" height="325.19" fill="#fff" stroke="#50d6cc" stroke-linecap="round" stroke-linejoin="round"/><path d="M320.36,3.16H596.64V220H108.85v-5.28H320.36Z" fill="#fff" stroke="#50d6cc" stroke-linecap="round" stroke-linejoin="round"/><g clip-path="url(#a)"><polygon points="305.22 229.8 214.61 139.19 123.99 229.8 93.72 199.53 184.33 108.91 93.72 18.3 123.99 -11.98 214.61 78.64 305.22 -11.98 335.5 18.3 244.88 108.91 335.5 199.53 305.22 229.8" fill="none" stroke="#50d6cc" stroke-linecap="round" stroke-linejoin="round"/><polygon points="309.25 225.78 214.61 131.14 119.97 225.78 97.74 203.55 192.38 108.91 97.74 14.28 119.97 -7.95 214.61 86.69 309.25 -7.95 331.47 14.28 236.83 108.91 331.47 203.55 309.25 225.78" fill="none" stroke="#50d6cc" stroke-linecap="round" stroke-linejoin="round"/><polygon points="130 13.74 127.63 21.04 119.95 21.04 126.16 25.56 123.79 32.87 130 28.35 136.22 32.87 133.85 25.56 140.06 21.04 132.38 21.04 130 13.74" fill="none" stroke="#50d6cc" stroke-linecap="round" stroke-linejoin="round"/><polygon points="158.21 41.94 155.83 49.24 148.15 49.24 154.36 53.76 151.99 61.07 158.21 56.55 164.42 61.07 162.05 53.76 168.26 49.24 160.58 49.24 158.21 41.94" fill="none" stroke="#50d6cc" stroke-linecap="round" stroke-linejoin="round"/><polygon points="186.41 70.14 184.03 77.44 176.35 77.44 182.56 81.96 180.19 89.27 186.41 84.75 192.62 89.27 190.25 81.96 196.46 77.44 188.78 77.44 186.41 70.14" fill="none" stroke="#50d6cc" stroke-linecap="round" stroke-linejoin="round"/><polygon points="245.18 133.85 242.81 126.54 240.43 133.85 232.75 133.85 238.97 138.36 236.59 145.67 242.81 141.15 249.02 145.67 246.65 138.36 252.87 133.85 245.18 133.85" fill="none" stroke="#50d6cc" stroke-linecap="round" stroke-linejoin="round"/><polygon points="273.38 162.05 271.01 154.74 268.63 162.05 260.95 162.05 267.17 166.56 264.79 173.87 271.01 169.35 277.22 173.87 274.85 166.56 281.07 162.05 273.38 162.05" fill="none" stroke="#50d6cc" stroke-linecap="round" stroke-linejoin="round"/><polygon points="301.58 190.25 299.21 182.94 296.83 190.25 289.15 190.25 295.37 194.76 292.99 202.07 299.21 197.56 305.43 202.07 303.05 194.76 309.27 190.25 301.58 190.25" fill="none" stroke="#50d6cc" stroke-linecap="round" stroke-linejoin="round"/><polygon points="292.99 32.87 299.21 28.35 305.43 32.87 303.05 25.56 309.27 21.04 301.58 21.04 299.21 13.74 296.83 21.04 289.15 21.04 295.37 25.56 292.99 32.87" fill="none" stroke="#50d6cc" stroke-linecap="round" stroke-linejoin="round"/><polygon points="271.01 41.94 268.63 49.24 260.95 49.24 267.17 53.76 264.79 61.07 271.01 56.55 277.22 61.07 274.85 53.76 281.07 49.24 273.38 49.24 271.01 41.94" fill="none" stroke="#50d6cc" stroke-linecap="round" stroke-linejoin="round"/><polygon points="242.81 70.14 240.43 77.44 232.75 77.44 238.97 81.96 236.59 89.27 242.81 84.75 249.02 89.27 246.65 81.96 252.87 77.44 245.18 77.44 242.81 70.14" fill="none" stroke="#50d6cc" stroke-linecap="round" stroke-linejoin="round"/><polygon points="188.78 133.85 186.41 126.54 184.03 133.85 176.35 133.85 182.56 138.36 180.19 145.67 186.41 141.15 192.62 145.67 190.25 138.36 196.46 133.85 188.78 133.85" fill="none" stroke="#50d6cc" stroke-linecap="round" stroke-linejoin="round"/><polygon points="160.58 162.05 158.21 154.74 155.83 162.05 148.15 162.05 154.36 166.56 151.99 173.87 158.21 169.35 164.42 173.87 162.05 166.56 168.26 162.05 160.58 162.05" fill="none" stroke="#50d6cc" stroke-linecap="round" stroke-linejoin="round"/><polygon points="132.38 190.25 130 182.94 127.63 190.25 119.95 190.25 126.16 194.76 123.79 202.07 130 197.56 136.22 202.07 133.85 194.76 140.06 190.25 132.38 190.25" fill="none" stroke="#50d6cc" stroke-linecap="round" stroke-linejoin="round"/><polygon points="216.98 105.64 214.61 98.34 212.23 105.64 204.55 105.64 210.76 110.16 208.39 117.47 214.61 112.95 220.82 117.47 218.45 110.16 224.66 105.64 216.98 105.64" fill="none" stroke="#50d6cc" stroke-linecap="round" stroke-linejoin="round"/></g><rect x="325.65" y="3.16" width="270.99" height="108.4" fill="#fff" stroke="#50d6cc" stroke-linecap="round" stroke-linejoin="round"/><line x1="22.82" y1="195.91" x2="22.82" y2="198.41" fill="none" stroke="#a3a3a3" stroke-linecap="round" stroke-linejoin="round"/><line x1="22.82" y1="203.51" x2="22.82" y2="323.3" fill="none" stroke="#a3a3a3" stroke-linecap="round" stroke-linejoin="round" stroke-dasharray="5.1 5.1"/><polyline points="22.82 325.85 22.82 328.35 25.32 328.35" fill="none" stroke="#a3a3a3" stroke-linecap="round" stroke-linejoin="round"/><line x1="30" y1="328.35" x2="93.12" y2="328.35" fill="none" stroke="#a3a3a3" stroke-linecap="round" stroke-linejoin="round" stroke-dasharray="4.68 4.68"/><line x1="95.46" y1="328.35" x2="97.96" y2="328.35" fill="none" stroke="#a3a3a3" stroke-linecap="round" stroke-linejoin="round"/><line x1="70.49" y1="3.16" x2="67.99" y2="3.16" fill="none" stroke="#a3a3a3" stroke-linecap="round" stroke-linejoin="round"/><line x1="63.25" y1="3.16" x2="27.69" y2="3.16" fill="none" stroke="#a3a3a3" stroke-linecap="round" stroke-linejoin="round" stroke-dasharray="4.74 4.74"/><polyline points="25.32 3.16 22.82 3.16 22.82 5.66" fill="none" stroke="#a3a3a3" stroke-linecap="round" stroke-linejoin="round"/><line x1="22.82" y1="10.83" x2="22.82" y2="132.28" fill="none" stroke="#a3a3a3" stroke-linecap="round" stroke-linejoin="round" stroke-dasharray="5.17 5.17"/><line x1="22.82" y1="134.87" x2="22.82" y2="137.37" fill="none" stroke="#a3a3a3" stroke-linecap="round" stroke-linejoin="round"/><line x1="394.26" y1="353.18" x2="396.76" y2="353.18" fill="none" stroke="#a3a3a3" stroke-linecap="round" stroke-linejoin="round"/><line x1="401.8" y1="353.18" x2="590.98" y2="353.18" fill="none" stroke="#a3a3a3" stroke-linecap="round" stroke-linejoin="round" stroke-dasharray="5.04 5.04"/><polyline points="593.5 353.18 596 353.18 596 350.68" fill="none" stroke="#a3a3a3" stroke-linecap="round" stroke-linejoin="round"/><line x1="596" y1="347.82" x2="596" y2="343.54" fill="none" stroke="#a3a3a3" stroke-linecap="round" stroke-linejoin="round" stroke-dasharray="2.86 2.86"/><line x1="596" y1="342.11" x2="596" y2="339.61" fill="none" stroke="#a3a3a3" stroke-linecap="round" stroke-linejoin="round"/><path d="M7,174.78l-.43-.35c.41-.6.57-.8.82-2.6l.16-1.15H6.18c-1.06,0-2.25,0-2.92,0l0,0L3,169.5l0-.06,5.41-6.77,0,0,1.7-.49.05,0c-.15.89-.31,1.91-.44,2.81l-.62,4.44h.37a1.51,1.51,0,0,0,1.19-.33l.23.15-.74,1.47,0,0c-.37,0-.76-.05-1.18-.07l-.23,1.63c-.13.9-.11,1-.52,1.43A12.78,12.78,0,0,1,7,174.78Zm.72-5.34L8.21,166c.13-.88.23-1.84.3-2.47-2.81,3.57-4,5.13-4.42,5.85.66,0,1.38.07,2.16.07Z" fill="#727272"/><path d="M16.74,175.53l-1.19-1.26L17,164H15.57l.11-.73h1.41l.18-1.25a3.89,3.89,0,0,1,1.45-2.78c.9-1,1.22-1.22,2.21-1.22h1.13l0,0-.23.62c-.18.46-.25.53-.42.53s-.75,0-1.21,0c-1,0-1.27.39-1.45,1.59l-.35,2.51h2.21V164H18.31l-.77,5.54c-.24,1.59-.43,3.28-.55,4.52l.51.78v0Z" fill="#727272"/><path d="M23.55,170.84c-2.18,0-3-.87-2.74-2.83l.23-1.66a3.75,3.75,0,0,1,1.91-2.8,3.4,3.4,0,0,1,2-.6c1.36,0,2.05.64,2.05,1.8a8.75,8.75,0,0,1-.26,1.77l-1.28.69H22.2l-.07.5c-.23,1.63.5,2.16,2.09,2.16a4.55,4.55,0,0,0,2.62-.85h0v.21A3.71,3.71,0,0,1,23.55,170.84Zm-1.24-4.39h3.24a8.91,8.91,0,0,0,.19-1.41c0-.83-.49-1.26-1.57-1.26s-1.56.59-1.72,1.7Z" fill="#727272"/><path d="M30.87,170.84c-2.17,0-3-.87-2.74-2.83l.23-1.66a3.75,3.75,0,0,1,1.91-2.8,3.4,3.4,0,0,1,2-.6c1.37,0,2.06.64,2.06,1.8a8.88,8.88,0,0,1-.27,1.77l-1.27.69H29.53l-.07.5c-.23,1.63.49,2.16,2.09,2.16a4.55,4.55,0,0,0,2.61-.85h0v.21A3.69,3.69,0,0,1,30.87,170.84Zm-1.23-4.39h3.23a7.87,7.87,0,0,0,.19-1.41c0-.83-.49-1.26-1.57-1.26s-1.55.59-1.71,1.7Z" fill="#727272"/><path d="M37.89,170.8c-1.41,0-2-.53-1.82-1.87l.75-4.9H35.4l.11-.73h1.43l.34-2.24,1.32-.2,0,0-.37,2.42h2.37V164H38.16l-.72,4.72c-.11.71.17,1,1.25,1a3.4,3.4,0,0,0,1.45-.35h0l0,.16A3,3,0,0,1,37.89,170.8Z" fill="#727272"/><line x1="70.49" y1="127.57" x2="70.49" y2="130.07" fill="none" stroke="#a3a3a3" stroke-linecap="round" stroke-linejoin="round"/><line x1="70.49" y1="135.21" x2="70.49" y2="214.88" fill="none" stroke="#a3a3a3" stroke-linecap="round" stroke-linejoin="round" stroke-dasharray="5.14 5.14"/><polyline points="70.49 217.45 70.49 219.95 72.99 219.95" fill="none" stroke="#a3a3a3" stroke-linecap="round" stroke-linejoin="round"/><line x1="75.85" y1="219.95" x2="80.13" y2="219.95" fill="none" stroke="#a3a3a3" stroke-linecap="round" stroke-linejoin="round" stroke-dasharray="2.86 2.86"/><line x1="81.56" y1="219.95" x2="84.06" y2="219.95" fill="none" stroke="#a3a3a3" stroke-linecap="round" stroke-linejoin="round"/><line x1="97.96" y1="3.16" x2="95.46" y2="3.16" fill="none" stroke="#a3a3a3" stroke-linecap="round" stroke-linejoin="round"/><line x1="90.97" y1="3.16" x2="75.24" y2="3.16" fill="none" stroke="#a3a3a3" stroke-linecap="round" stroke-linejoin="round" stroke-dasharray="4.49 4.49"/><polyline points="72.99 3.16 70.49 3.16 70.49 5.66" fill="none" stroke="#a3a3a3" stroke-linecap="round" stroke-linejoin="round"/><line x1="70.49" y1="10.72" x2="70.49" y2="48.68" fill="none" stroke="#a3a3a3" stroke-linecap="round" stroke-linejoin="round" stroke-dasharray="5.06 5.06"/><line x1="70.49" y1="51.21" x2="70.49" y2="53.71" fill="none" stroke="#a3a3a3" stroke-linecap="round" stroke-linejoin="round"/><path d="M59.1,87H53l0-.07.29-1.11v0c1.06-.72,2.09-1.45,3.26-2.4,1-.78,1.45-1.35,1.53-2l0-.12c.13-.9-.51-1.47-1.55-1.47a3.33,3.33,0,0,0-2.18.64l-.19-.16.72-1.31,0,0a5.3,5.3,0,0,1,2-.33c1.84,0,2.81.93,2.62,2.24l0,.13c-.11.79-.66,1.36-2.62,2.88a22.53,22.53,0,0,0-2.19,1.91h3.06c1.27,0,1.75-.3,2-.57l.2.13L59.14,87Z" fill="#727272"/><path d="M65.7,91.87l-1.18-1.26L66,80.38H64.53l.11-.73h1.41l.18-1.26a3.85,3.85,0,0,1,1.45-2.77c.9-1,1.22-1.22,2.21-1.22H71l0,0-.23.62c-.17.46-.25.53-.42.53s-.75,0-1.21,0c-1,0-1.27.39-1.45,1.59l-.35,2.51h2.21v.73H67.27l-.77,5.53c-.23,1.59-.43,3.29-.55,4.53l.51.78h0Z" fill="#727272"/><path d="M72.51,87.18c-2.18,0-3-.86-2.74-2.83L70,82.69a3.74,3.74,0,0,1,1.91-2.79,3.4,3.4,0,0,1,2-.6c1.36,0,2,.63,2,1.8a8.85,8.85,0,0,1-.26,1.77l-1.27.69H71.17l-.07.49c-.23,1.63.49,2.16,2.08,2.16a4.48,4.48,0,0,0,2.62-.85h0v.21A3.71,3.71,0,0,1,72.51,87.18ZM71.27,82.8h3.24a8,8,0,0,0,.19-1.42c0-.83-.49-1.25-1.57-1.25s-1.56.58-1.72,1.7Z" fill="#727272"/><path d="M79.83,87.18c-2.17,0-3-.86-2.74-2.83l.23-1.66a3.74,3.74,0,0,1,1.91-2.79,3.41,3.41,0,0,1,2-.6c1.36,0,2,.63,2,1.8A9,9,0,0,1,83,82.87l-1.27.69H78.49l-.07.49c-.23,1.63.49,2.16,2.09,2.16a4.47,4.47,0,0,0,2.61-.85h0v.21A3.69,3.69,0,0,1,79.83,87.18ZM78.6,82.8h3.23a8.11,8.11,0,0,0,.2-1.42c0-.83-.5-1.25-1.58-1.25s-1.55.58-1.71,1.7Z" fill="#727272"/><path d="M86.86,87.15c-1.42,0-2-.53-1.82-1.88l.74-4.89H84.36l.11-.73H85.9l.34-2.25,1.32-.19,0,0-.37,2.42H89.6v.73H87.12L86.4,85.1c-.11.7.17,1,1.25,1a3.4,3.4,0,0,0,1.45-.35h0l0,.16A3,3,0,0,1,86.86,87.15Z" fill="#727272"/><path d="M47,108.41c-1.77,0-2.76-.92-2.51-2.69l0-.24c.23-1.61,1-2,2.35-2.89l-.14-.07A2.22,2.22,0,0,1,45.49,100l0-.25a3.29,3.29,0,0,1,1.69-2.45,3.55,3.55,0,0,1,2.14-.68c1.77,0,2.55.92,2.3,2.69l0,.25c-.21,1.45-.85,1.82-2.23,2.76l.33.19A2.29,2.29,0,0,1,51,105l0,.25a3.31,3.31,0,0,1-1.72,2.46A3.65,3.65,0,0,1,47,108.41Zm.73-.86c1.25,0,1.71-.52,1.87-1.74l0-.39a1.56,1.56,0,0,0-.93-1.78l-1.26-.71a2.38,2.38,0,0,0-1.59,2.1l-.05.39C45.63,106.84,46.38,107.55,47.74,107.55ZM48.8,102a2.19,2.19,0,0,0,1.48-2l.06-.39c.19-1.41-.36-2.12-1.7-2.12-1.15,0-1.59.49-1.77,1.73l0,.39a1.55,1.55,0,0,0,.93,1.79Z" fill="#727272"/><path d="M56.26,107.1l.57-3.16a18.9,18.9,0,0,0,.34-2.53H56.05l.11-.74,2.6-.09,0,0-1.12,6.1c-.07.42.14.63.71.63a4.83,4.83,0,0,0,.92-.1l0,.14a2.66,2.66,0,0,1-2,1C56.46,108.38,56.1,108,56.26,107.1Zm1-9.07c-.17-.34-.1-.44.38-.69s.72-.35.84-.35.25.09.5.56.11.44-.37.69-.73.36-.85.36S57.5,98.51,57.25,98Z" fill="#727272"/><path d="M60.85,108.46l-.06,0,.78-4.69c.25-1.45-.1-2.17-.88-2.31v-.09l1.16-.8h.07a1.51,1.51,0,0,1,1,1.37,3.29,3.29,0,0,1,2.62-1.37,2,2,0,0,1,2,2.62L67,106.78c-.11.68.49.73,1.13.62l0,.15a2.86,2.86,0,0,1-1.77.83c-.7,0-.92-.34-.79-1l.67-4c.21-1.22-.3-1.79-1.47-1.79-1,0-1.59.57-1.82,1.91l-.76,4.62-.09.07Z" fill="#727272"/><path d="M69.71,105.58l.23-1.66a3.67,3.67,0,0,1,1.84-2.76,3.94,3.94,0,0,1,2-.64,4.47,4.47,0,0,1,1.68.3l0,.07-.46,1.24H75a4.43,4.43,0,0,0-2.3-.58c-.86,0-1.16.37-1.34,1.61L71,105.51c-.19,1.34.52,1.89,1.86,1.89a3.85,3.85,0,0,0,2.41-.86h0v.21a3.75,3.75,0,0,1-3,1.66C70.24,108.41,69.44,107.55,69.71,105.58Z" fill="#727272"/><path d="M76.48,108.46l0,0,1.31-8.65a26,26,0,0,0,.35-3.09l-.88,0,.07-.56L79.63,96l0,0-.83,5.51a3.49,3.49,0,0,1,2.33-1c1.63,0,2.34,1.08,2.07,2.62l-.62,3.64c-.11.68.5.73,1.13.62l0,.15a2.89,2.89,0,0,1-1.77.83c-.71,0-.92-.34-.8-1l.68-4c.21-1.22-.32-1.79-1.4-1.79a2.06,2.06,0,0,0-1.82,1l-.83,5.52-.09.07Z" fill="#727272"/><path d="M88.09,108.41c-2.18,0-3-.86-2.75-2.83l.23-1.66a3.76,3.76,0,0,1,1.91-2.79,3.39,3.39,0,0,1,2-.61c1.36,0,2,.64,2,1.81a9,9,0,0,1-.27,1.77l-1.27.69H86.74l-.07.49c-.23,1.63.5,2.16,2.09,2.16a4.58,4.58,0,0,0,2.62-.85h0v.21A3.68,3.68,0,0,1,88.09,108.41ZM86.85,104h3.23a8.11,8.11,0,0,0,.2-1.42c0-.83-.5-1.26-1.57-1.26s-1.56.59-1.72,1.7Z" fill="#727272"/><path d="M92.49,108.15l0,0-.07-1.27.06,0a7.26,7.26,0,0,0,2.84.62c.82,0,1-.28,1.15-1.17s-.09-1.11-.86-1.18l-.73-.07c-1.57-.16-2.16-.34-1.93-1.86a2.22,2.22,0,0,1,1.35-1.91c1-.6,1.31-.69,1.73-.69s1.45.07,2,.09l0,0-.32.76c-.09.23-.21.32-.41.32s-1.48-.19-2.26-.19c-.6,0-.78.26-.88,1.11s.09,1.12.86,1.19l.73.07c1.57.16,2.16.33,1.93,1.85a2.27,2.27,0,0,1-1.37,1.91,3.4,3.4,0,0,1-2,.71A6.46,6.46,0,0,1,92.49,108.15Z" fill="#727272"/><path d="M335,357.82c-1.8,0-2.78-1-2.48-3.25l.2-1.45a8.23,8.23,0,0,1,2.07-5,5.71,5.71,0,0,1,3.43-2.12l.05,0,.12.77c.06.34,0,.41-.28.5-.95.34-2.07.25-2.81,1.11-.42.5-.62.87-.94,3a3.52,3.52,0,0,1,2.55-1,2.11,2.11,0,0,1,2.26,2.6l-.16,1.17a3.57,3.57,0,0,1-1.76,2.86A4.2,4.2,0,0,1,335,357.82Zm.78-.92c1.24,0,1.54-.5,1.75-1.95l.19-1.37c.23-1.6-.32-2.16-1.55-2.16a2.19,2.19,0,0,0-1.93.86l-.28,2C333.75,356.05,334.42,356.9,335.82,356.9Z" fill="#727272"/><path d="M345.07,362.51l-1.18-1.26L345.32,351H343.9l.11-.72h1.41l.18-1.26a3.89,3.89,0,0,1,1.45-2.78c.9-.95,1.22-1.22,2.21-1.22h1.13l0,0-.23.62c-.18.46-.25.53-.42.53s-.75,0-1.21,0c-1,0-1.27.39-1.45,1.59l-.35,2.52H349V351h-2.32l-.77,5.54c-.23,1.59-.43,3.29-.55,4.52l.51.78v0Z" fill="#727272"/><path d="M351.88,357.82c-2.18,0-3-.87-2.74-2.83l.23-1.66a3.75,3.75,0,0,1,1.91-2.8,3.4,3.4,0,0,1,2-.6c1.36,0,2.05.64,2.05,1.81a8.67,8.67,0,0,1-.26,1.76l-1.28.69h-3.21l-.07.5c-.23,1.63.49,2.16,2.08,2.16a4.55,4.55,0,0,0,2.62-.85h0v.21A3.71,3.71,0,0,1,351.88,357.82Zm-1.24-4.39h3.24a8.76,8.76,0,0,0,.19-1.41c0-.83-.49-1.26-1.57-1.26s-1.56.59-1.72,1.7Z" fill="#727272"/><path d="M359.2,357.82c-2.17,0-3-.87-2.74-2.83l.23-1.66a3.75,3.75,0,0,1,1.91-2.8,3.4,3.4,0,0,1,2-.6c1.37,0,2.06.64,2.06,1.81a8.8,8.8,0,0,1-.27,1.76l-1.27.69h-3.22l-.07.5c-.23,1.63.49,2.16,2.09,2.16a4.55,4.55,0,0,0,2.61-.85h0v.21A3.69,3.69,0,0,1,359.2,357.82ZM358,353.43h3.23a7.89,7.89,0,0,0,.2-1.41c0-.83-.5-1.26-1.58-1.26s-1.55.59-1.71,1.7Z" fill="#727272"/><path d="M366.23,357.78c-1.42,0-2-.53-1.83-1.87l.75-4.9h-1.42l.11-.72h1.43l.34-2.25,1.32-.19h0l-.37,2.43H369V351h-2.48l-.72,4.72c-.11.71.17,1,1.25,1a3.4,3.4,0,0,0,1.45-.35h0l0,.16A3,3,0,0,1,366.23,357.78Z" fill="#727272"/><line x1="108.85" y1="339.61" x2="108.85" y2="342.11" fill="none" stroke="#a3a3a3" stroke-linecap="round" stroke-linejoin="round"/><line x1="108.85" y1="344.97" x2="108.85" y2="349.25" fill="none" stroke="#a3a3a3" stroke-linecap="round" stroke-linejoin="round" stroke-dasharray="2.86 2.86"/><polyline points="108.85 350.68 108.85 353.18 111.35 353.18" fill="none" stroke="#a3a3a3" stroke-linecap="round" stroke-linejoin="round"/><line x1="116.42" y1="353.18" x2="306.2" y2="353.18" fill="none" stroke="#a3a3a3" stroke-linecap="round" stroke-linejoin="round" stroke-dasharray="5.06 5.06"/><line x1="308.73" y1="353.18" x2="311.23" y2="353.18" fill="none" stroke="#a3a3a3" stroke-linecap="round" stroke-linejoin="round"/></svg>