<svg xmlns="http://www.w3.org/2000/svg" height="300" width="450" version="1.0"><path font-size="12" fill="#bf0a30" fill-rule="evenodd" d="M0 0h450v300H0z"/><path d="M37.5 148.84L224.225 275 412.5 148.595 224.225 25z" fill="#002868" fill-rule="evenodd"/><path d="M229.484 49.981l-5.521-4L218.452 50l2.095-6.491-5.522-4.004 6.815-.012L223.94 33l2.118 6.484 6.818-.01-5.507 4.02zM82.019 135.609l4-5.521L82 124.577l6.491 2.095 4.004-5.522.012 6.815L99 130.064l-6.484 2.118.01 6.818-4.02-5.507zM109.019 117.609l4-5.521-4.019-5.511 6.491 2.095 4.004-5.522.012 6.815 6.493 2.099-6.484 2.118.01 6.818-4.02-5.507zM190.019 64.609l4-5.521L190 53.577l6.491 2.095 4.004-5.522.012 6.815L207 59.064l-6.484 2.118.01 6.818-4.02-5.507zM163.019 82.609l4-5.521L163 71.577l6.491 2.095 4.004-5.522.012 6.815L180 77.064l-6.484 2.118.01 6.818-4.02-5.507zM136.019 99.609l4-5.521L136 88.577l6.491 2.095 4.004-5.522.012 6.815L153 94.064l-6.484 2.118.01 6.818-4.02-5.507z" font-size="12" fill="#fff" fill-rule="evenodd"/><path d="M82.019 135.609l4-5.521L82 124.577l6.491 2.095 4.004-5.522.012 6.815L99 130.064l-6.484 2.118.01 6.818-4.02-5.507zM340.459 117.609l-4-5.521 4.019-5.511-6.491 2.095-4.004-5.522-.012 6.815-6.493 2.099 6.483 2.118-.009 6.818 4.02-5.507zM259.459 64.609l-4-5.521 4.019-5.511-6.491 2.095-4.004-5.522-.012 6.815-6.493 2.099 6.483 2.118-.009 6.818 4.02-5.507zM286.459 82.609l-4-5.521 4.019-5.511-6.491 2.095-4.004-5.522-.012 6.815-6.493 2.099 6.483 2.118-.009 6.818 4.02-5.507zM313.459 99.609l-4-5.521 4.019-5.511-6.491 2.095-4.004-5.522-.012 6.815-6.493 2.099 6.483 2.118-.009 6.818 4.02-5.507zM367.459 135.609l-4-5.521 4.019-5.511-6.491 2.095-4.004-5.522-.012 6.815-6.493 2.099 6.483 2.118-.009 6.818 4.02-5.507zM71.981 144.466l-4 5.521L72 155.498l-6.491-2.095-4.004 5.522-.012-6.815L55 150.01l6.484-2.118-.01-6.818 4.02 5.507zM95.981 161.541l-4 5.521L96 172.573l-6.491-2.095L85.505 176l-.012-6.815L79 167.086l6.484-2.118-.01-6.818 4.02 5.507zM167.981 210.541l-4 5.521 4.019 5.511-6.491-2.095-4.004 5.522-.012-6.815-6.493-2.099 6.484-2.118-.01-6.818 4.02 5.507zM143.981 193.541l-4 5.521 4.019 5.511-6.491-2.095-4.004 5.522-.012-6.815-6.493-2.099 6.484-2.118-.01-6.818 4.02 5.507zM191.981 226.541l-4 5.521 4.019 5.511-6.491-2.095-4.004 5.522-.012-6.815-6.493-2.099 6.484-2.118-.01-6.818 4.02 5.507zM215.981 243.541l-4 5.521 4.019 5.511-6.491-2.095-4.004 5.522-.012-6.815-6.493-2.099 6.484-2.118-.01-6.818 4.02 5.507zM377.019 144.466l4 5.521-4.019 5.511 6.491-2.095 4.004 5.522.012-6.815L394 150.01l-6.484-2.118.01-6.818-4.02 5.507zM353.019 161.541l4 5.521-4.019 5.511 6.491-2.095 4.004 5.522.012-6.815 6.493-2.099-6.484-2.118.01-6.818-4.02 5.507zM281.019 210.541l4 5.521-4.019 5.511 6.491-2.095 4.004 5.522.012-6.815 6.493-2.099-6.484-2.118.01-6.818-4.02 5.507zM305.019 193.541l4 5.521-4.019 5.511 6.491-2.095 4.004 5.522.012-6.815 6.493-2.099-6.484-2.118.01-6.818-4.02 5.507z" font-size="12" fill="#fff" fill-rule="evenodd"/><g font-size="12" fill="#fff" fill-rule="evenodd"><path d="M119.981 177.541l-4 5.521 4.019 5.511-6.491-2.095-4.004 5.522-.012-6.815-6.493-2.099 6.484-2.118-.01-6.818 4.02 5.507zM329.019 177.541l4 5.521-4.019 5.511 6.491-2.095 4.004 5.522.012-6.815 6.493-2.099-6.484-2.118.01-6.818-4.02 5.507z"/></g><path d="M257.019 226.541l4 5.521-4.019 5.511 6.491-2.095 4.004 5.522.012-6.815 6.493-2.099-6.484-2.118.01-6.818-4.02 5.507zM233.019 243.541l4 5.521-4.019 5.511 6.491-2.095 4.004 5.522.012-6.815 6.493-2.099-6.484-2.118.01-6.818-4.02 5.507z" font-size="12" fill="#fff" fill-rule="evenodd"/><path d="M84 149.128L224.417 244 366 148.944 224.417 56z" fill="#fff" fill-rule="evenodd"/><g style="line-height:1.25;-inkscape-font-specification:Arial" aria-label="ARKANSAS" font-weight="400" font-size="55.082" font-family="DIN 1451 Engschrift" letter-spacing="0" word-spacing="0" fill="#002868" stroke-width=".574"><path style="-inkscape-font-specification:'DIN 1451 Engschrift, Normal';font-variant-ligatures:normal;font-variant-caps:normal;font-variant-numeric:normal;font-feature-settings:normal;text-align:start" d="M151.168 171.584l6.985-43.168h3.89l6.986 43.168h-4.782l-1.266-9.255h-5.813l-1.266 9.255zm6.797-15.015h4.22l-2.11-15.727zM171.275 171.584v-43.168h7.828q3.094 0 5.204 2.977t2.11 7.249v4.012q0 5.955-3.657 9.126l4.735 19.804h-4.735l-4.22-18.51h-2.812v18.51zm9.938-25.305q.422-.712.563-1.618.187-.906.187-2.007v-4.012q0-2.007-.797-3.236-.797-1.23-2.25-1.23h-3.188v13.462h3.141q1.406 0 2.344-1.36zM202.642 171.584l-5.016-19.286-2.485 6.407v12.88h-4.406v-43.17h4.453v19.87l6.704-19.87h4.407l-6.095 17.216 7.173 25.953zM208.119 171.584l6.985-43.168h3.891l6.985 43.168h-4.782l-1.265-9.255h-5.813l-1.266 9.255zm6.797-15.015h4.22l-2.11-15.727zM239.711 171.584l-6.985-26.211v26.211h-4.453v-43.168h4.219l6.938 26.147v-26.147h4.454v43.168zM252.064 160.84q0 1.23.047 1.877.094.583.703 1.877.657 1.23 2.344 1.23.938 0 1.735-.518.797-.582 1.172-1.424.375-.906.375-1.812.047-.97.047-1.294v-3.042q0-1.294-.094-1.942-.047-.647-.563-1.359-.468-.776-1.406-1.359-.89-.647-3.188-1.812-2.25-1.165-3.797-3.624-1.547-2.524-1.547-6.86v-1.942q0-4.401 2.11-7.572 2.156-3.236 5.344-3.236 3.234 0 5.39 3.17 2.204 3.107 2.204 7.638v1.941h-4.453v-1.941q0-.906-.094-1.553-.094-.648-.75-1.877-.657-1.23-2.204-1.23-1.359 0-2.25 1.36-.844 1.294-.844 3.3v1.941q0 1.23.047 1.813.094.517.516 1.23.422.711 1.219 1.229.797.518 3.047 1.683 2.297 1.1 4.032 3.689 1.734 2.524 1.734 6.925v3.495q0 2.135-.328 3.753-.281 1.618-1.875 4.53-1.594 2.848-5.485 2.848-4.032 0-5.86-3.624-1.828-3.689-1.828-7.507v-1.554h4.5zM264.52 171.584l6.986-43.168h3.891l6.985 43.168H277.6l-1.265-9.255h-5.814l-1.265 9.255zm6.798-15.015h4.22l-2.11-15.727zM287.956 160.84q0 1.23.047 1.877.094.583.703 1.877.657 1.23 2.344 1.23.938 0 1.735-.518.797-.582 1.172-1.424.375-.906.375-1.812.047-.97.047-1.294v-3.042q0-1.294-.094-1.942-.047-.647-.563-1.359-.468-.776-1.406-1.359-.89-.647-3.188-1.812-2.25-1.165-3.797-3.624-1.547-2.524-1.547-6.86v-1.942q0-4.401 2.11-7.572 2.156-3.236 5.344-3.236 3.235 0 5.391 3.17 2.203 3.107 2.203 7.638v1.941h-4.453v-1.941q0-.906-.094-1.553-.094-.648-.75-1.877-.656-1.23-2.203-1.23-1.36 0-2.25 1.36-.844 1.294-.844 3.3v1.941q0 1.23.046 1.813.094.517.516 1.23.422.711 1.219 1.229.797.518 3.047 1.683 2.297 1.1 4.032 3.689 1.734 2.524 1.734 6.925v3.495q0 2.135-.328 3.753-.281 1.618-1.875 4.53-1.594 2.848-5.485 2.848-4.032 0-5.86-3.624-1.828-3.689-1.828-7.507v-1.554h4.5z"/></g><path d="M234.964 112.085l-9.964-7.08-9.976 7.074 3.81-11.452-9.966-7.089 12.319.003 3.817-11.456 3.804 11.455 12.324.008-9.968 7.076zM211.573 206.246l-9.965-7.081-9.976 7.075 3.81-11.453-9.966-7.088 12.32.003 3.817-11.456 3.803 11.454 12.325.009-9.968 7.076zM238.427 206.246l9.965-7.081 9.976 7.075-3.81-11.453 9.965-7.088-12.319.003-3.817-11.456-3.803 11.454-12.325.009 9.968 7.076z" font-size="12" fill="#002868" fill-rule="evenodd"/></svg>