<svg xmlns="http://www.w3.org/2000/svg" width="600" height="400" viewBox="0 0 600 400"><title>flag-massachusetts-thumb</title><rect width="600" height="400" fill="#fff"/><path d="M299.35,287.88c43.71-24.08,70.73-87.17,62.89-169.77H236.46c-7.84,82.6,19.17,145.69,62.89,169.77" fill="#1f2c5c"/><path d="M260.25,125l3.32,10,10.45.09-8.4,6.25,3.14,10-8.51-6.11-8.5,6.11,3.14-10-8.4-6.25,10.44-.09,3.32-10" fill="#fff"/><path d="M383.55,229l.21-.48c.87-2.11.45-1.11-.21.48" fill="#31319c"/><path d="M387.33,155.75a4.5,4.5,0,0,0-1.79.64l-2.78,4.29c-.12-2.66,1.12-5.84,2.78-9.26.4-.8.81-1.63,1.24-2.45,3.58-6.93-1.24-8.86-1.24-8.86v.25l-12.85,1.82c-9.08,9.55-5.27,26.79-1.65,49,2.88,17.71,3.64,20.47,1,32l0,.08-3.59-.9a8.31,8.31,0,0,0-5.64,6.63c-3.71,18.68-3.42,27.12-19.24,43-16.77,16.84-29.7,15.78-34.37,15.78s-2.68,6.25-2.68,6.25l0,.05a60.47,60.47,0,0,1-7.45.33,56.21,56.21,0,0,1-7.07-.33l0-.05s2-6.25-2.67-6.25-22-1.39-34.1-16.06c-12-14.52-16.68-23.88-17.57-28.36a17.07,17.07,0,0,0,3.28-.83c1.37-.55,3.29-4,1.37-10.5s-3.84-9.42-7.29-8.59l-2.61.7,0,.08c-3.9-6.3-5.66-16.4-3-33,3.5-22.21,7.42-39.43-1.65-49l-13.14-1.86,0-.21s-4.54,1.24-1.86,6.64,2.47,5.39.61,9.75-.65,7.24,2.85,9.72c0,0-3.05-4.11,1.49-7.64l2.67,4.15.18-.32c-.28,5.6-1.31,13.39-3.68,25.85-4.74,24.9,1.78,41.29,8.39,44.41l3.43-1a15.54,15.54,0,0,1,1.92,7.33l.14.08-4,1.3s-1.65,3.88-.54,6.92a80.61,80.61,0,0,0,19.24,32.39C259.2,293.54,269.68,299.42,287,300v3.81c0,3,6,3.3,12,3.31h.4c6.19,0,12.38-.3,12.38-3.31V300c17.3-.57,29-6.23,42.33-20.42,15.26-16.18,19.25-36.11,20.9-46.89a.83.83,0,0,0,0-.13,14.82,14.82,0,0,0,3.28.95c1.64.25,2.82.85,4.91-3.65.21-.5.44-1.08.72-1.75,5.5-13.27-.27-39.85-.27-39.85a229.28,229.28,0,0,1-3.51-23.2c.5.24,4.07,2,5.85.93s2.47-2.62.82-5.12-.55-4.29.55-5.12" fill="#1f2c5c"/><path d="M299.35,307.11c-6.05,0-12.37-.28-12.37-3.31V291.07c0,3,6.32,3.32,12.37,3.32m-7.22-.39s2-6.26-2.67-6.26-22-1.38-34.1-16.05-16.76-24.07-17.59-28.5-1.38-6.09.83-6.64l-11.83,3.87s-1.65,3.88-.55,6.92a80.81,80.81,0,0,0,19.25,32.38C259.21,293.55,269.69,299.43,287,300m0-8.68c0-1.35.91-2.07,2.3-1,1.93,1.51,3.2.72,3-.7m-54.53-46.31a16.94,16.94,0,0,0,3.29-.84c1.37-.55,3.3-4,1.37-10.5s-3.84-9.42-7.28-8.59l-2.61.7m-3.85,7.61a15.5,15.5,0,0,1,1.92,7.32m-5.35-6.35,11.82-3.32c-6.81-5.4-11.14-16-7.63-38.19s7.42-39.44-1.65-49l-13.2-1.87s3.92,1.87,5.16,9.34,1.85,13.69-2.89,38.6,1.79,41.29,8.39,44.41ZM214.6,140.11s-4.54,1.25-1.86,6.63,2.48,5.4.62,9.76-.65,7.24,2.85,9.73c0,0-3.05-4.13,1.48-7.65l2.68,4.15m17.9,73.83s3.28-.91,1.8,2.34a8.69,8.69,0,0,0-.77,1.56c-.57,1.3.77,2.64,1.91,1.86m-4.29-13c1.75-.53,2.87-1.72.52-2.55-2.53-.89-2.43-3.21-1.18-3.53m63.09,83.83c6,0,12.38-.27,12.38-3.31V291.07c0,3-6.33,3.32-12.38,3.32M311.69,300c17.32-.56,29-6.23,42.37-20.42,15.26-16.19,19.25-36.11,20.9-46.9,1-5.82,2.61-8,4.54-7.62l-11-2.76a8.31,8.31,0,0,0-5.63,6.63c-3.72,18.69-3.42,27.14-19.25,43-16.77,16.85-29.69,15.78-34.37,15.78s-2.68,6.26-2.68,6.26m5.16-2.7c0-1.35-.91-2.07-2.31-1-1.92,1.51-3.19.72-3-.69M375,232.53a14.5,14.5,0,0,0,3.3,1c1.79.27,3,1,5.5-5s-5.36,12.87.13-.41-.27-39.85-.27-39.85c-4.75-24.91-4.12-31.14-2.89-38.6s5.15-9.34,5.15-9.34l-13.19,1.87c-9.08,9.54-5.27,26.78-1.65,49,2.88,17.71,3.64,20.47,1,32m13.47-83s4.82,1.93,1.24,8.85-6.32,13.15-1.24,16.6m-5.49-.54s4,2.08,5.91,1,2.47-2.64.82-5.13-.55-4.29.55-5.11c0,0-3.57.28-4.54,5m-3.85,64.33c2.34.56,2.34,3.19.69,4.57s-2.47,3.46-.55,4" fill="none" stroke="#fff" stroke-width="1.23"/><path d="M274.23,166.16c.16.21.29.54.2.7a7.19,7.19,0,0,1-1.81-.46c-.25,0-.49-.25-.7,0s-.08.58-.45.41a1.17,1.17,0,0,1,.17-1,2.13,2.13,0,0,1,1.73,0,.84.84,0,0,1,.86.38" fill="#e6a300"/><path d="M273.69,167.28a.88.88,0,0,1,.78.79l-.12.21c-1-.68-2.19,0-3.18,0a.67.67,0,0,1,0-.67,2.31,2.31,0,0,1,2.19-.31h.33" fill="#e6a300"/><path d="M274.51,169.19l-.05.49a2.9,2.9,0,0,0-1.85-.34l-1.41.49c-.24-.12-.16-.45-.16-.65.46-.5,1.12-.41,1.66-.61.7,0,1.44,0,1.81.62" fill="#e6a300"/><path d="M273.18,170.93a1.78,1.78,0,0,1-.71.62c-.25,0-.36-.21-.45-.42.25-.28.7-.24,1.08-.37l.08.17" fill="#e6a300"/><path d="M326.17,175.13c-.71,3.12-1.81,6.22-2.69,9.32-.28.5-.29,1.16-.62,1.62-.8,3-1.76,5.92-2.72,8.87-.7-1.17.29-2.13.46-3.2.3-1.36.8-2.53,1-3.93.71-1.49.8-3,1.59-4.6.59-2.16,1.18-4.27,1.85-6.29.29-.62.32-1.21.58-1.87.16,0,.41-.08.49.08" fill="#e6a300"/><path d="M324.81,176.37a1.1,1.1,0,0,1-.41-1.2l.45-1c.46.58.2,1.63,0,2.24" fill="#e6a300"/><path d="M326.15,179.07c-.21.13-.33.38-.58.45.5-1.44.47-3.44,1.79-4.46a36,36,0,0,1-1.21,4" fill="#e6a300"/><path d="M324.6,177.16c-.42.82-.55,1.73-.93,2.56-.61-1,.06-2.15.43-3.19.17.25.82.18.5.63" fill="#e6a300"/><path d="M323.25,181.47c-.29,0-.24-.33-.4-.45a1.27,1.27,0,0,1,.29-1.25c.82.41.2,1.12.11,1.7" fill="#e6a300"/><path d="M325.85,180c-.17.71-.13,1.66-1,1.86a14.88,14.88,0,0,1,.54-2.11c.17,0,.25.33.45.25" fill="#e6a300"/><path d="M296.6,128.32a16.11,16.11,0,0,1,.07,2c-.62-.71-1.27-2.14-2.26-2.89-.16.09-.12.33,0,.43a10.05,10.05,0,0,1,1.23,1.87,2.58,2.58,0,0,1-1.65-1.05,2.65,2.65,0,0,1,.26-1.53,2.15,2.15,0,0,1,2.39,1.18" fill="#e6a300"/><path d="M298.8,133.68c-.05.15.08.2.12.28.16-.07.33-.46.41-.74a3.56,3.56,0,0,1,.05-.92,3.23,3.23,0,0,1-.1,2.75c-.53-.71-.77-1.63-1.26-2.34s-.9-1.54-1.23-2.29c0,0,0,.05.08.05a2.16,2.16,0,0,0,.34-1.83,5.72,5.72,0,0,1,1.59,5" fill="#e6a300"/><path d="M296.45,134.41a8,8,0,0,1,1,2.78c0,.09-.08.17-.17.13a40,40,0,0,0-5.11-7.62c-.25,0-.25.29-.17.42a28,28,0,0,1,4.7,8c-.29.33-.65-.12-1-.25-.16-.88-1.27-.92-1.52-1.75.37-.29,1.07,0,1.24-.41-.24-.29-.65-.16-1-.29-1.23.16-1.31-1.22-1.84-2a2,2,0,0,0-.12-.37c.45,0,1.11.46,1.52,0-1-.46-2.38-1-2.34-2.25a1.39,1.39,0,0,1,.21-1.36c2.27.34,3.54,3.13,4.6,4.95" fill="#e6a300"/><path d="M295.47,130.21c.79-.32.82.88,1.23,1.26v.16l-1.56-.47c-.29-.41-.78-.62-.78-1.07.37,0,.74.12,1.11.12" fill="#e6a300"/><path d="M298.13,134.29c-.49-.58-1.61-.26-1.68-1.13a1.84,1.84,0,0,1,1.68,1.13" fill="#e6a300"/><path d="M298.79,136c-.05.2-.29.2-.46.16-.45-.45-1-.88-1-1.54a2.17,2.17,0,0,1,1.48,1.38" fill="#e6a300"/><path d="M295.23,146.14a1,1,0,0,1,.08.67,4.34,4.34,0,0,1-.15-1.91c.08.54,0,.79.07,1.24" fill="#e6a300"/><path d="M276.55,147.21a3.49,3.49,0,0,0,.15,2.49c0,1.49.32,2.79.27,4.24h-.17c-.11-1.36-.15-2.65-.39-4.15l-.12-.08L276,150c-.39,3-.9,6.55-1.12,9.33l.08.08a32.2,32.2,0,0,0-.31,4.24c.33.16.7.41.7.82.08.88-.26,1.66-.14,2.38.62.87,1.48,1.78,1.18,2.82-.49.28-.53,1.33-1.32,1-.49-.58.42-1.12-.15-1.78-.16-.5.41-1,0-1.5a1.33,1.33,0,0,0,0-1.28,1.85,1.85,0,0,0-1.48-1l-.24-.25c.22-2.13.55-4.11.86-6.26.55-3.36.89-6.39,1.69-9.75.09-.41-.41-.66-.16-1s.66-.37.67-.87h.12v-.12c.29-.09.12.17.25.3" fill="#e6a300"/><path d="M306.72,148.94c-.13,1.53.89,2.79,1.21,4.19.42.51.25,1.21.37,1.78-.32-1.69-1.59-3.11-1.58-4.89-.05-.08-.13-.05-.21-.08-.25.15-.08.41-.17.62-.24-.54,0-1.08,0-1.66l.1-1.46c.36.51.11,1,.27,1.5" fill="#e6a300"/><path d="M295.27,154a24.56,24.56,0,0,1-.42,2.45,9.25,9.25,0,0,1,.68-5,6.76,6.76,0,0,0,.21-1.07,11.2,11.2,0,0,0-.28-2.37l.05-.37a8.56,8.56,0,0,1-.24,6.39" fill="#e6a300"/><polyline points="306.25 150.82 306.38 151.01 306.25 150.82" fill="#e6a300"/><path d="M306.42,151.14c.13.79.07,1.66.65,2.2a6.76,6.76,0,0,1,.52,1.75c-.19-1-1-1.5-1-2.49a4.18,4.18,0,0,1-.32-1.51c0,.09.12,0,.16,0" fill="#e6a300"/><path d="M305.25,154.53l-.05.2-.2-.07c-.12-.21.21-.46.25-.13" fill="#e6a300"/><path d="M304.59,154.82c.08.13,0,.5-.21.41a.18.18,0,0,1-.25-.17c0-.19.25-.28.46-.24" fill="#e6a300"/><path d="M303.88,155.49c0,.16-.17.16-.25.28s-.21-.08-.24-.21a.25.25,0,1,1,.49-.07" fill="#e6a300"/><polyline points="307.79 155.75 307.68 155.34 307.79 155.62 307.79 155.75" fill="#e6a300"/><path d="M305.49,155.49c.09.12,0,.21-.13.3a.23.23,0,0,1-.28-.22.22.22,0,0,1,.41-.08" fill="#e6a300"/><path d="M304.83,155.9c-.13.13,0,.29-.17.37s-.25-.13-.33-.24a.35.35,0,0,1,.5-.13" fill="#e6a300"/><path d="M302.43,156.51c-.25.13-.45-.21-.74-.13.05-.54.62,0,.74.13" fill="#e6a300"/><path d="M303.92,156.48c.13.08,0,.21-.09.24s-.16,0-.2-.17.33-.37.29-.07" fill="#e6a300"/><path d="M303.17,156.72l0,.38a.36.36,0,0,1-.37-.14c0-.24.21-.49.41-.24" fill="#e6a300"/><path d="M296.45,157.27l-.41.25c-.09,0,0-.16,0-.25a.33.33,0,0,1,.45,0" fill="#e6a300"/><path d="M288.74,182.87c.17-.24.09-.66.26-1l-.13,1h-.13" fill="#e6a300"/><path d="M288.61,183.53c-.08-.16.05-.37.13-.57a.75.75,0,0,1-.13.57" fill="#e6a300"/><path d="M313.22,185c-.05.4-.58.4-.87.57-3.09.41-5.58,2.21-8.83,2.07-.16.17,0,.33.17.38,1.19.25,2.14-.37,3.21-.27.2-.21.37,0,.62-.13a19.13,19.13,0,0,1,5.69-1.39.81.81,0,0,1,.29.54,15.58,15.58,0,0,1-1.9.29c-1.11.27-2,1-3.06,1.31a22.45,22.45,0,0,1-5.81.72,1.78,1.78,0,0,0-.49-.13c.24-.16.69.17.86-.25-.32-.33-1-.17-1.48-.13-1.94.78-3.62-.43-5.43-.73a8.08,8.08,0,0,1-3.34-.43c-.08-.08-.17-.29,0-.37a6.84,6.84,0,0,1,4.53,0,8.15,8.15,0,0,0,4.62.63c1.24-.31,2.72-.19,3.87-.48.09-.11-.08-.15-.11-.25a17.23,17.23,0,0,0-4.13.19,9.23,9.23,0,0,1-4.07-.68h-.17l-.81-.29a7.56,7.56,0,0,0-3.39.1h-.45a1.65,1.65,0,0,0,0-1.07c.53-.37,1.27.09,1.93,0s1,.38,1.53.25c2.63.77,4.89.28,7.66.5-.66.12-1.44.16-2.15.32.09.08.08.21.21.21.57-.12,1.27.21,1.93.09s1.32-.2,2-.24c.32-.2.82-.07,1.19-.16v.13c2.43.67,3.84-1.44,6-1.51l.2.25" fill="#e6a300"/><path d="M314.59,192.29c-.71-.21-.45-.95-.7-1.62.5.38.54,1.13.7,1.62" fill="#e6a300"/><path d="M314.62,194.41c-.21-.09-.09-.25-.08-.46.16.05,0,.3.08.46" fill="#e6a300"/><path d="M315.55,196.4a3.43,3.43,0,0,1-.2-1.16c.37.3.12.88.2,1.16" fill="#e6a300"/><path d="M296.47,196.84a1.78,1.78,0,0,1-.08-1.07,1.14,1.14,0,0,1,.08,1.07" fill="#e6a300"/><path d="M307.46,199.6a6,6,0,0,1-.34,2.82h-.25a17.78,17.78,0,0,1,.34-3,.2.2,0,0,1,.25.16" fill="#e6a300"/><path d="M317.46,203.43a23.46,23.46,0,0,1-1.35,4.71c-1.29,4.15-2.59,8.26-3.89,12.4-.87-.09,0-.75-.16-1.16a16.11,16.11,0,0,0,.67-2.29,2.52,2.52,0,0,0,.25-.49c.29-1.37.79-2.52,1.09-3.77.54-1.41,1.09-3.31,1.51-4.84.2-.09,0-.21.12-.33.34-1.29.88-2.53,1.26-3.77.12-.21.25-.41.5-.45" fill="#e6a300"/><polyline points="317.27 206.75 317.31 206.75 317.31 206.95 317.27 206.95 317.27 206.75" fill="#e6a300"/><path d="M317.31,207.08c0,1,.24,2.32.15,3.24.09-.47-.36-.92-.2-1.41a4.68,4.68,0,0,1,0-1.83h.08" fill="#e6a300"/><path d="M315.81,212.2c0-.24-.17-.6,0-.82.08.26.2.63,0,.82" fill="#e6a300"/><polyline points="316.5 211.97 316.55 211.97 316.54 212.34 316.5 212.34 316.5 211.97" fill="#e6a300"/><path d="M317.45,212.8c0-.2,0-.46.09-.57l-.09.57" fill="#e6a300"/><polyline points="316.46 213.14 316.5 212.84 316.5 213.09 316.46 213.13" fill="#e6a300"/><path d="M317.52,214.92a1,1,0,0,1-.12-.95c0-.21-.12-.62.09-.83.37.59-.13,1.2,0,1.78" fill="#e6a300"/><path d="M289.24,216.19a.14.14,0,0,1-.16-.21c.12,0,.12.13.16.21" fill="#e6a300"/><path d="M298.25,219.47a1.21,1.21,0,0,1-.33,1.2c-.29.12-.25-.25-.29-.33,0-.33.21-.87.62-.87" fill="#e6a300"/><path d="M312.42,221.24l.13.16c-.13.34-.87.21-.58.71a3.38,3.38,0,0,1,.86.87,10.59,10.59,0,0,1-2,2.6l-.37.3a11,11,0,0,1-.49-2,5.44,5.44,0,0,0-.24-1.65c.41-.25,1-.16,1.53-.37a.7.7,0,0,0,0-.5c-.08-.11-.37-.21-.28-.46.53-.08.9.21,1.39.34" fill="#e6a300"/><path d="M306.63,251.37a7.87,7.87,0,0,0,3.08,1.55,2.34,2.34,0,0,0-.91,1.32c-.12.13-.29,0-.41.09-1.11-1.05-2.3-1.92-2.87-3.42.28-.7.82.22,1.11.46" fill="#e6a300"/><path d="M312.51,253.36c1.27,1.08,2.42,2.67,2,4.53a3.28,3.28,0,0,1-.18,2.32c-1.16.86-2.22-.31-3.33-.48a4.64,4.64,0,0,1-2.43-3c-.32-.46-.4-1.08-.77-1.49-.61-1-3-.93-2-2.63a17,17,0,0,0,3,2.54c.66,0,.46-1,1-1.23a6.24,6.24,0,0,0,1.47,2.4c.45.63,1,1.18,1.85.93.29-.25.58-.53.46-1-.21-.86-1.07-1.29-1.48-2.08.13,0,.21,0,.25-.16.08-.45-.25-.74-.53-1.12a1.64,1.64,0,0,0-.94-.42c.45-.32.45-.95.78-1.44.17.83,1,1.37.86,2.32" fill="#e6a300"/><path d="M296.73,252.69c0,.21.2.05.29.18a1.56,1.56,0,0,1-1,.53,3.62,3.62,0,0,1-3.26.35c-.28-.33-.19-.74-.28-1.12.29.34,1,.05,1.36,0,.17-.29.5,0,.71-.2.74,0,1.44.17,2.14.25" fill="#e6a300"/><path d="M292.23,253.59l.33.67a2.07,2.07,0,0,0-1.66,1.27c-.49-1,.55-1.95,1-2.86.33.09.16.63.37.92" fill="#e6a300"/><path d="M298.66,253.37c.12.84-.83,1-1.24,1.49a5.53,5.53,0,0,1-3.22,1c-.46-.33-.24-.79-.65-1.08v-.21a9.17,9.17,0,0,0,3.05-.65,8.55,8.55,0,0,0,1.36-.83c.25,0,.58-.07.7.26" fill="#e6a300"/><path d="M310.57,253.18c0,1.4,1.32,2.12,1.8,3.32-.49,0-.45-.58-.82-.82a3,3,0,0,1-1.1-2.5h.13" fill="#e6a300"/><path d="M311.85,254c-.25.17-.13.29-.17.5-.41-.33-.37-.87-.49-1.34.37.1.54.56.66.84" fill="#e6a300"/><polyline points="292.76 254.88 292.71 254.39 292.8 254.59 292.76 254.88" fill="#e6a300"/><path d="M291.34,258c-.41,0-.45.58-.87.57.42-.46.92-1.08,1.29-1.56a3.9,3.9,0,0,0,1-1.87,4.8,4.8,0,0,1-1.38,2.86" fill="#e6a300"/><polyline points="291.85 255.36 291.89 255.38 291.89 255.57 291.85 255.57 291.85 255.36" fill="#e6a300"/><path d="M294.07,256.5a11.92,11.92,0,0,0,3.71-.85c-.08.54-1.35.27-.78,1l.82-.2c-.91.82-2.19,1.15-3.14,2-1,1-1.87,2.81-3.48,2.88l-1.11.37v.25c.45.25.86-.21,1.36-.16a3,3,0,0,1-1.16.66c-.58.29-1.41.74-1.94.32a13.34,13.34,0,0,1-.56-3.11c.21-1.95,2.44-2.15,3.07-3.85a.35.35,0,0,1,.25.26v.29c-.33.86-2.68,1.35-1.37,2.55a1,1,0,0,0,1,.26,5.65,5.65,0,0,0,2.53-3.59,1.58,1.58,0,0,0,.78,1" fill="#e6a300"/><path d="M290.23,257.84c.17-.15.37-.45.58-.52,0,.33-.41.33-.58.52" fill="#e6a300"/><path d="M286.68,174.65a2,2,0,0,0-1.66.44c.21.51.82.88,1.2,1.38-.05.21.32.5-.05.59a15.81,15.81,0,0,0-2.67-2.13c-1.44-1-3.5-.61-4.73-2.11a38.81,38.81,0,0,1-.43-4.4c-.27-2.06-.47-4.23-.66-6.3,0-2.32-.43-5-.55-7.35h0c-.05-.21-.13-.54-.33-.62,0,.21-.09.54.16.58,0,0-.08.13-.16.13a6.09,6.09,0,0,1,.16.73c-.09,1,.15,2,.15,2.88.28,1.27.11,2.6.27,3.77.24,1.74.27,3.56.51,5.48,0,.87.16,1.58.2,2.23s.28,1.59-.14,2.12c-.74-.33-.94-1.13-1.35-1.71h-.2c-.13.74-.55,1.37,0,2.07.16.43.49.71.61,1.13-.09.07-.17,0-.25,0-.58-.42-.82-1.41-1.56-1.3a1.1,1.1,0,0,0-.41.7.7.7,0,0,1-.71,0c-.4-.45-.28-1-.23-1.62.12-.25.45-.12.57-.28s0-.34-.08-.46c-.48-.37-.78-.95-1.6-.75-.58.37-1.65.24-1.73,1a3.58,3.58,0,0,0,1.43,1.88c-.18,2.32-.3,4.35-.28,6.71-.57,8.19-.16,16.06.13,23.95.59,5.4,1.06,11,1.82,16.15,1.16,7.22,2.61,14.16,4.39,21a177.61,177.61,0,0,0,6.25,18.75c-.66,1,.66.54.74,1.45.12,0,.25.1.33-.07,0-1-.61-1.8-.4-2.82-.34-5.2-.77-10.05-1.2-15.28-.2-2-.4-4.23-.47-6.23-.23-2.86-.42-5.56-.74-8.38-.34-6.51-1.13-13-1.47-19.47-.24-2.15-.35-4.06-.46-6.22-.28-1-.12-2.08-.36-3.11-.42-4.53-.62-8.64-1-13.2l-.12-.12c0-2.21-.32-4.2-.34-6.36l.07-.12a8.1,8.1,0,0,0,4.19,2.92c1,.51,1.52,1.71,3,1.47.78-.25.91-1.11,1.4-1.69.09-.17,0-.5.3-.5.16-.21.37-.45.33-.71-.54.5-.71,1.25-1.25,1.82,0-.07-.16-.12-.21-.29.14-1.33,1.09-2.3,1.68-3.47a4.6,4.6,0,0,0-2.05-4.28Zm-7.12,14.4a65.73,65.73,0,0,0,.58,6.72c-.21,1.37.27,2.73.27,4.15a3.63,3.63,0,0,1,.08,1c.11,2.33.51,4.77.58,7,.17.45,0,1,.16,1.49a1.46,1.46,0,0,0,.12.92c-.09.73.12,1.32,0,1.94.2.3,0,.87.12,1.24a16.25,16.25,0,0,1,.23,3.2c.31,1.74.19,3.53.46,5.4-.08,1.41.4,2.86.35,4.1.24.17-.08.42.08.63a8.63,8.63,0,0,1,.15,1.57c0,1.46.33,2.54.28,4.08.28,1.61.14,3.35.46,4.85-.17,1.7.28,2.82.27,4.48.27,3.37.46,6.35.74,9.55a8.48,8.48,0,0,1,.2,1.66c.12.78.19,1.79.27,2.69-.05.5.16,1,0,1.42a11.62,11.62,0,0,1-.9-2.38c-1.13-3.07-1.94-6.27-2.92-9.43-.4-1.24-.63-2.53-.92-3.82a4.58,4.58,0,0,1-.41-1.41,50.13,50.13,0,0,1-1.68-8.43c-.37-.66,0-1.24-.45-1.95-.24-.54.13-1.12-.28-1.61A89.17,89.17,0,0,1,276.09,215c0-.59.57-1,.33-1.62-.35-3.61-.62-7.56-.85-11.33-.37-1.54.1-3.28-.8-4.65a18.06,18.06,0,0,1-.56-3.7,143.08,143.08,0,0,1-.27-20.2c.41-.09.66.12,1,.16h0c1.19,1.59,2.46,3.2,3.69,4.67.19,2.37.59,4.73.57,7.14.37,1.2,0,2.32.35,3.57Z" fill="#e6a300"/><path d="M305.91,156.16l.11-.1h0Z" fill="#e6a300"/><path d="M305.52,150.5h0v0h0Z" fill="#e6a300"/><path d="M304.83,138.92c-.28-.33-.74-.62-.86-1,0-.13.12-.09.21-.13.86.34,1.18,1.34,1.76,2a17.76,17.76,0,0,1,.54,6.6c0,.29-.13.74,0,.95l.08,0a3.6,3.6,0,0,0-.07-.91,12.41,12.41,0,0,0,.18-3.69c0-2.37-.8-4.9-2.94-6.11-.2-.17-.5-.17-.66-.3-.5.09-.82-.37-1.36-.21-.53-.21-1.15.45-1.4-.21h0a2.49,2.49,0,0,0-.24-1.71c0,.54-.49,1-.74,1.37,0,.25.36.38.53.51-.13.49-.62.41-1,.61a9.92,9.92,0,0,0-3.7,8.1l.34-2.15.24-.24c.34.42-.12.95-.12,1.4a12.29,12.29,0,0,0,.75,5.37,4.85,4.85,0,0,1,.07,4.06c-.3,1.29-1.13,2.61-.89,3.9l.29-.83c.21-.25.21-.7.59-.74v-.26c.37-.61.65.34,1,.35,0-.05,0-.05,0-.08s-.07-.39-.32-.3a.7.7,0,0,1-.33-.75c.09-.17.33-.28.46-.2s.45.34.36.58l.54.08c-.54,0-.45-.62-.86-.83a.51.51,0,0,1,0-.82.78.78,0,0,1,.32,0,1.33,1.33,0,0,0,.74.75c-.12.54.58.3.66.54,0,.58,1,.08,1,.75.13-.25.42-.09.62-.12a.93.93,0,0,1,.24.37l.21-.17a.5.5,0,0,1,.58.06.4.4,0,0,0,.53-.18c.42-.15.54.26.7.47.12-.34-.07-.92.34-1.2-.16-.62,0-1.62-.74-2a3.51,3.51,0,0,1-2.71-.63c-.5-.08-1.11-.51-1.57-.08a1.89,1.89,0,0,1-.91,1.06c-.32-.58.09-1.66-.31-2.19a29.49,29.49,0,0,1-1-5.2c-.06-2.32-.14-5.35,2-7,.28.25-.13.46-.05.7.58,0,.91-.53,1.32-.85.12,1.15,1.08-.09,1.65.38s.49-.59,1.15-.42c.45.49,1.16.38,1.69.64a3.35,3.35,0,0,1,1.88,2.61c.44,2.74-.27,5.64-.2,8.22,0,.21-.24.44,0,.61.29-1.28.05-2.32.43-3.6C306,144.24,306.39,141.25,304.83,138.92Z" fill="#e6a300"/><path d="M319.35,177c0,.29-.16.16-.29.24a3.09,3.09,0,0,1-1.22-2.7c.08,0,.12-.2.29-.2.45.58.24,1.62.94,2.11-.93-3.15-1.12-6.39-1.77-9.67-1.18-2.92-1.82-6.11-3.42-8.9-.32-1.19-1.55-1.41-2.63-1.63-.16-.16-.49-.08-.62-.25l-.49,0c-.12-.32-.49,0-.7-.25-1-.58-.7.75-1.28,1.08-.21-.13,0-.58-.28-.58v.15a3.46,3.46,0,0,1-.55,2.45l-.12-.08a3.69,3.69,0,0,0-.07-3,7.35,7.35,0,0,1-1.62-5.3.15.15,0,0,1-.08,0c0,1.7-.34,3.4.81,4.95.08.17-.09.42-.23.56.2-.09.48-.27.63,0-.2.54.41.3.54.54.37.42-.05.71-.13,1,0,0,0,.05.08.05.08.46,0,.66-.29.91l.25.21a.56.56,0,0,1-.26.7.5.5,0,0,1-.61-.12.62.62,0,0,1,.25-.95c-.66-.3.08-.83-.12-1.25-.42.08-.62.83-.91,1.19l0,0c-.29.37-.29.62-.58,1-.34.66-1.2.41-1.66.91-.16.16-.24.41-.53.45-.13,0,0-.25-.12-.34-.29.3-.38.67-.62.92l-.13-.17c0-.83.67-1.57.43-2.4.32-.42,0-1,.08-1.45-.37.41-.74,0-1.15-.13a.63.63,0,0,1-.58.16c-.33-.13-.33-.41-.33-.71.13-.08.21-.2.37-.24s.5.16.71.25c0-.05.2-.05.12-.21a.65.65,0,0,1-.53-.54c-.17.16-.25.5-.58.41a.66.66,0,0,1-.37-.74c-.08.24-.2.45-.49.49a.87.87,0,0,1-.49-.63.7.7,0,0,0-.33.13c0-.05-.08-.05,0-.13h-.25v.34a.47.47,0,0,1,.82.42c.25,0,.42-.26.7-.09a1,1,0,0,1,.29.58c-.09.29-.29.46-.58.37s-.41-.33-.49-.53a1.17,1.17,0,0,1-.62.07.48.48,0,0,1-.28-.58l-.42.05c.66.91,1.89,1.74,2.46,2.82-.46.37-.65-.54-1.23-.3a1.7,1.7,0,0,0,.49,1c1.07.13,1.51,1.17,2,2l-.08.21c-.58-.05-.53-.66-.78-1-.37-.71-1.19-.63-1.68-1.13a12.23,12.23,0,0,0-1.31-2.54c0,.08,0,.17,0,.2l-.16.22-.5-.43c-.12.09-.24.26-.37.26l.33.28a.51.51,0,0,1-.17.75.53.53,0,0,1-.74,0l.08.33.62-.12a.68.68,0,0,1,.45.79c-.13.25-.33.54-.66.33-.53-.14-.15-1-.78-.92-.16-.66-.86-1-.85-1.67-.62-.16-.45-.9-.74-1.33a22.44,22.44,0,0,1-2.56.82,3.25,3.25,0,0,0-1.86.49,8.36,8.36,0,0,0-1.7,2.52,6.15,6.15,0,0,0-.92,4.15,13.44,13.44,0,0,1-.64,3.85c-.49,1-.09,2-.46,3,0,1.3-1,2.2-1.05,3.57.33.08.49-.29.74-.41.46-.17,1.07-.58,1.32.09a.75.75,0,0,1,.65.25c.08.67.95.5,1,1.16.28,1.74.89,3.37.55,5.23a2.67,2.67,0,0,0-.17,1.16h0v-.12h0c.83-1.74.31-4.1.28-6l.12-.33c.37.33.16.87.29,1.36.6,1.46.1,2.92.22,4.19a13,13,0,0,0,.15-4.93c0-1-.53-1.91-.36-2.86H290c.4,2,1.51,3.91.88,6.06-.12.24-.21.46,0,.67.76-1.46.31-3.16-.06-4.66-.24-.67.14-1.58-.27-2.2-.11-1.86-1.09-3.69-.84-5.6.58,1.17.24,2.7,1.26,3.78,0-.33.09-.67.13-1a11.42,11.42,0,0,0-.36-2.49c-.19-2.12-1.83-3.76-1.41-6h.08c.41,1.37.52,2.9,1.47,3.95.07,0,.17,0,.2,0-.52-2.49-1.79-5-1.15-7.68l.15,0a11.9,11.9,0,0,1,.08,1.78c.41,1.14.2,2,.6,3.12.25.38,0,1.13.53,1.25a3.71,3.71,0,0,1,.55-1.36c.24.28,0,.49,0,.74-.29.74-.09,1.87-.3,2.66-.17,1.65.11,3.61,0,5.35a54.36,54.36,0,0,1,.24,9.67c.2,1.07-.22,1.89.36,2.73.32.08.57.34.94.29.45-.23-.08-.83.25-1.24.57.21.78,1.3,1.48,1.17.12-.54-.33-.83,0-1.28.45.29.29.87.62,1.28.2.22.4.47.69.34-.4-2.74.81-5.34.21-8.09.08-.33-.37-.62,0-.92.41.09.4.64.53,1l-.05,3c0,1.4-.64,3.46.22,4.89,0,.08,0,.33.2.29-.12-.58-.2-1.08-.32-1.75a13.57,13.57,0,0,1,.39-3.18c0-.13.12,0,.2,0,0,1.81-.31,4.19,1.13,5.48a12.61,12.61,0,0,1,3.13,0c.78-.29.14-1.41.75-1.86.29.54-.17,1.29.32,1.66a15.47,15.47,0,0,1,2.22.34c.29-.33,0-.92.42-1.15a2,2,0,0,0,.49,1.15c2.07.26,1.87-2,2.53-3.17.13-1,.83-1.7.63-2.7a4.84,4.84,0,0,0,.05-1.57c.54-.46-.11-1.3.46-1.66a15.1,15.1,0,0,1,.06,4.07c-.46.91-.13,1.86-.67,2.69,0,.46-.45.91-.05,1.37.42-.09,1.07.37,1.2-.21a.43.43,0,0,1,.66-.28c.33-.24-.12-.67.17-.95.9,0,.08-1,.7-1.21a3.57,3.57,0,0,0-.27-2.27c-.05-.3-.37-.75,0-1a6.49,6.49,0,0,1,1,2.54A8.8,8.8,0,0,1,312,184a1.84,1.84,0,0,0,1.16-1.07c-.1-3.58-1.9-6.94-1.76-10.46.13-.88-.16-1.54.3-2.33.53-.08.16.42.32.66a7.47,7.47,0,0,0,1.13,5.53c.13-.21,0-.54,0-.83-.78-1.21-.6-2.82-.88-4.19-.4-1.91.47-3.91.6-5.93a22.84,22.84,0,0,0,.16-5.6c0-.41-.2-.92,0-1.25.08-.12.25,0,.33.09.12,1.37.52,2.49.56,3.78-.31,2.44-1,4.93-.86,7.38a6.62,6.62,0,0,0,.29-1.5c.09-1.44.67-2.68.47-4.27.09-.08.17-.2.29-.15a5.72,5.72,0,0,1,.11,2.15,38.85,38.85,0,0,0-.76,5.64,5.46,5.46,0,0,0,.35,2.69c.46-1.52,0-3.27.27-4.68.53.54.19,1.66.44,2.32a17.42,17.42,0,0,1,0,5.81c.19,1.37-.85,3.11-.48,4.73a.27.27,0,0,0,.37.25c.62-1.46,1-3.14,2.28-4.26.38-.13.83-.46,1.24-.12a4,4,0,0,1,2.67,2.5A5.25,5.25,0,0,0,319.35,177ZM296.56,160.3a.64.64,0,0,1,.26-.58.67.67,0,0,1,.65.45c-.12.17.08.43-.21.58A.66.66,0,0,1,296.56,160.3Zm.45,1.29c-.16-.24.08-.5.21-.75a.73.73,0,0,1,.66.46h0c-.05.29,0,.62-.26.7A.61.61,0,0,1,297,161.59Zm.49,1.16c0-.2,0-.45.25-.54s.7.06.7.38-.17.45-.29.58A.73.73,0,0,1,297.5,162.75Zm1.43,1.54c-.2-.08-.61,0-.65-.34,0-.2,0-.45.16-.62a.54.54,0,0,1,.74.47C299.14,163.92,299.18,164.25,298.93,164.29Zm.9.88c-.28,0-.57,0-.65-.37s0-.46.21-.54c.41-.21.2.41.57.29h0A.5.5,0,0,1,299.83,165.17Zm3.22.6c-.33.07-.42-.13-.66-.21-.21.15-.21.49-.54.45a.73.73,0,0,1-.7-.51c-.21.3-.46.26-.74.21a.65.65,0,0,1-.2-.53c0-.25.29-.17.41-.33.45,0,.49,1,1,.33.41-.29.74.54,1-.12.16-.17.45-.12.7,0A.64.64,0,0,1,303.05,165.77Zm3.52-4.63a.53.53,0,0,1-.2.5c-.13,0-.25,0-.29.12s.24.54,0,.79-.46.08-.29.29h-.05c-.21.28.21.82-.42.9H305c-.08.17.16.29.08.54a.67.67,0,0,1-.75.29c0,.29-.07.62-.33.7s-.41.09-.61-.08a.84.84,0,0,1,.25-.75c1.1.46.2-1.21,1.36-.74A1.21,1.21,0,0,1,305,163c.21-.16.46-.07.62-.24-.08-.25-.29-.54,0-.75l.41-.24a1,1,0,0,1-.12-.83l.45-.25a.89.89,0,0,1-.24-.79c.25-.24.82-.16.86.21h0C307.12,160.64,305.92,160.55,306.57,161.14Z" fill="#e6a300"/><path d="M319.52,195c-.48-4.24,1.6-7.87.88-12.19a1.78,1.78,0,0,0-.24-.67l0,1.69c-.13.42.12,1.29-.38,1.42-.16-.91-.15-2-.36-2.95h0c-.45-.92-.32-2.36-1.55-2.66-.87-.21-1.41.54-1.82,1a5.27,5.27,0,0,0-1.17,2.74c.11,1.53.89,2.9,1,4.32a10,10,0,0,1,.28,1.67c-.1,2.52.39,4.8,0,6.95-.13,1-.55,2.17-.68,3.2a.33.33,0,0,1-.25.12c-.16-1.29-.23-2.78-.47-4.15l-.21-.3c.16,1-.09,2.09,0,3l-.25.24c-.2-.62-.12-1.36-.32-1.95,0-1.23-.94-2.36-1.18-3.7-.74,0-.56-.91-.93-1.36-.21-.18-.49-.21-.58-.46-.53-.38-1.15,0-1.64,0-.25.13-.58.16-.79.28-.17,0-.5.25-.54-.12.38-.45,1-.45,1.33-.87a2.82,2.82,0,0,0-.83.12,16.11,16.11,0,0,1-6.43.51c-.91-.13-1.69-.35-2.68-.43-.2-.29-.33,0-.57-.25l.08-.09c1.11.06,2.18,0,3.34.11,3.58.39,7-1.63,10.72-.83a.49.49,0,0,0,.29-.45c-.41-.46-1.15-.42-1.81-.42-.5.2-1.28.07-1.73.28-.5-.16-.66.33-1.16.16-.25.33-.74,0-1,.28-1.07,0-2.07.24-3.18.15-1.64.41-3.45-.22-5,.06-2.06-.18-3.75-.6-5.77-.81-.41-.09-.82-.35-1.19,0-.05.24,0,.45.24.49,1.32.14,2.55.6,3.91.65.66.54-.38,1.24-.46,1.85a15.18,15.18,0,0,1-.06,2.43c-.16.28,0,.52-.2.73-.44-1.37-.27-3.11-.72-4.53-.2-.07-.7-.17-.58.17-.49.57-.33,1.45-.34,2.2,0,.12,0,.29-.25.2a7.58,7.58,0,0,1-.24-1.7c-.08-.45.09-1.4-.65-1.29-1.74,1.49-1.22,3.85-1.76,5.64a32.81,32.81,0,0,1-1.52,7.83c-.17,1.49-.92,3.06-.93,4.44a10.46,10.46,0,0,1-.18,3.93h0l0,1.21.24-.09a9.26,9.26,0,0,1,.28,3c.5-1.12-.57-2.79.39-3.77.45.34.11,1.08.11,1.49.12,0,.2.09.29.17.48,2.53,0,4,.46,6.47.4,1.83,1.09,3.87.71,5.82-.05,1.44.89,2.62,1.38,3.91,0,.57.33.91-.17,1.35-.41-.08-.16-.49-.24-.79a3.54,3.54,0,0,0-.33-.74,7.61,7.61,0,0,0,0,2.53c.09.25-.12.5-.21.75a23.23,23.23,0,0,0,1.11,9.05c.12.12,0,.38.16.49s.25.55,0,.75-.33-.21-.5-.24c.07,2.28.93,3.89.76,6.26a2.5,2.5,0,0,1-.3,1,3.92,3.92,0,0,1-.91,1.57,1.37,1.37,0,0,0,.82.3c1.28-.65,2.72-.2,4,0a4,4,0,0,0,1.82.17,6.48,6.48,0,0,0-.7-1.74,6.22,6.22,0,0,0-1.56-1c0-.12.05-.21.08-.29a1,1,0,0,1,.75.08c.16,0,.49.18.45-.12a12.93,12.93,0,0,0-.4-2.61c-.29,0-.66.45-.86,0-.08-.17.12-.2.2-.33,1.57-.41,1.08-2.32,1.26-3.48-.37.21-.21.86-.71.78-.25-.24-.16-.54-.12-.83,1.84-3.72,1.61-7.67,1.05-11.78-.54.67-.13,1.55-.5,2.16-.09.09-.29.12-.34-.05a7.5,7.5,0,0,1,.1-1.89c1.7-3,1.06-7,1.78-10.46.26-1.27-.27-2.36.27-3.48-.58-1.12.49-1.94.22-3.06,0-.09,0-.3-.2-.25s-.05.13-.05.2a11.45,11.45,0,0,1-1.21,3.24c.08.07.16.07.2.11a.52.52,0,0,1,0,.5c-.29.34-.29,1.09-.91.88-.25-.43.33-.71.33-1.12-.24,0-.53.41-.74,0s.09-.54.17-.78c-.16-.05-.37-.1-.41-.3.37-.66.91-1.49.5-2.32.09-.29.46-.32.5-.61a.65.65,0,0,1-.95-.06c-.2-.54-.73-.7-.9-1.24.38-.33-.12-1.05.42-1.25.33.35.16.8.24,1.21.58.25.05-.87.46-1.12.82.25,0,1.16.74,1.42.36-.16,0-1,.3-1.33.52.3.39,1,.47,1.54.34-.25.18-.87.34-1.24.12-.12.25-.12.37,0,.25.33-.33,1.2.28,1.41.21-.37.09-.87.26-1.24.78-.25.08,1,.48,1.29.58-.17.05-1,.63-1.2.45.36,0,1.07.15,1.44h.17c.2-.33,0-1.13.33-1.45.62.25.29,1.2.32,1.58l.17.16c.49-.29-.21-1.45.58-1.57.41.46,0,1,.2,1.58.08.08.16.2.28.16.33-.57-.2-1.13.26-1.65.69.12.12.67.32,1.16.12.12,0,.41.29.41.17-.16.08-.49,0-.75.13-.24-.12-.91.42-.91.45.47-.13,1.08.32,1.59.08,0,.2,0,.28,0,0-.66-.31-1.33.18-1.78.54,0,.2.54.28.92s.08.7.49.62c.29-.54-.32-1.16.17-1.66.58.13.21,1,.54,1.41,0,.63-.79.79-1.16,1.11l0,.09c-.16.16-.4.2-.53.5.2,1.37-.06,2.52.6,3.77l.08-.16c.25-.66-.32-1.53.51-1.75.28.34.07,1,0,1.37a44.13,44.13,0,0,0,.16,8.8,26.62,26.62,0,0,1,.67,5c-.07.05-.12.17-.2.17a23,23,0,0,0-.77-3.2,3,3,0,0,0-.25,1.7,20,20,0,0,0,.17,7.3c.11,3.52.63,6.6-.38,10,.08.67-.7.86-.5,1.49a4.32,4.32,0,0,0,1.86-.74c.25,0,.82-.13.74.26-.7.36-1.33.65-2,1,.11.55.73.68,1,1.14.94.49,1.89,1.5,3.16,1,.67-.33.71-1.07.8-1.66-.38-.32-.95-.17-1.4-.32-.87.44-2.15.81-3,.23,0-.09,0-.21.05-.25,1.43.46,2.3-.86,3.7-.61a2.87,2.87,0,0,1,.62.25h.28a8.58,8.58,0,0,1-.48-1.2c-.33-.62.33-1.07.21-1.57-.54.37-.75,1.15-1.49,1v-.25c2.2-1.48,1.47-4.38,2.14-6.66.22-2.66,1.46-5.1,1.56-7.79a1.33,1.33,0,0,0,.33-.67c-.2-1.36.39-2.82-.1-4.26-.33,0-.37.41-.58.52l-.16-.11c-.16-.92.45-1.62.88-2.37-.42,0-.51.54-.71.71-.16.37-.45.5-.7.74,0-.08-.12-.13-.08-.25a14.5,14.5,0,0,1,1.79-3.06,10,10,0,0,1-1.17.82c-.08-.08-.2-.17-.11-.29a10.74,10.74,0,0,0,2.09-6.13c-.16-1.41.75-2.73.06-4.06l-.13.13c-.38,1.24-1,2.81-1.34,4.09,0,.79-1,1.49-.13,2.07a.62.62,0,0,1-.29.79c-.21.3.08.37.24.58a.88.88,0,0,1,.08,1.12c-1.12,1.08-1.7,2.36-2.94,3.15a1.64,1.64,0,0,1-.49-1.5,16.91,16.91,0,0,1-.56-3.28c.2-.54.79-.5,1.28-.58,0-.25-.25-.42-.16-.74s.54-.34.86-.38c.55-1.82,1.14-3.65,1.64-5.47.46-.62,0-1.07-.24-1.65a.75.75,0,0,0-.58-.21c-.24,0-.32-.3-.32-.54.49-.38,0-1.29.5-1.62.33.29.29,1,.4,1.42.54-.32,0-1,.38-1.42.75,0,.2,1.12.57,1.55a2.7,2.7,0,0,0,.18-1.5c.12-.2.24,0,.45-.16.46-1.28.83-2.65,1.25-4l-.37-.28c-.19-1.87.6-3.75.32-5.69l.12-.08c.25.17.29.54.33.83.53.5.33,1.37.49,2,.36.07.45-.3.66-.5,0-.12.08-.38-.05-.5,0-1.08-1.09-2-.39-3,.42.54.16,1.38.57,1.88.16,1.07,1,1.78.73,2.86,1.27-.29.41-1.74.87-2.65.66-.09.12.74.45,1,.37-.17.21-.79.34-1.21s.45-.12.7-.37c-.08-.7.66-1,.71-1.69C320.78,197.69,319.92,196.39,319.52,195Zm-26.1,17.58c-.12.17-.21.38-.45.29l-.25-.25c-.21.41-.7.28-1,.5a.28.28,0,0,1-.41-.06s-.13-.11-.2-.07c-.17.2-.13.49-.42.58-.45-.17-.24-.88-.2-1.29.08-.13.12-.29.25-.33s.32.12.32.33a.11.11,0,0,0,0,.08c.25-.08.13-.41.34-.57.49.42,1-.83,1.32.08.08-.12.08-.37.29-.41C293.68,211.53,293.3,212.19,293.42,212.56Zm.74,0a.49.49,0,0,1-.37.16c-.25-.33-.08-.87,0-1.25l.21-.13A1.59,1.59,0,0,1,294.16,212.53Zm.74-.08h-.33c0-.37-.16-.75.13-1.07C295.07,211.53,294.82,212.07,294.9,212.45Zm.75.05a1.21,1.21,0,0,1,0-1.17c.42.16.25.66.29,1C295.89,212.54,295.77,212.44,295.65,212.5Zm12.28.79c-.08.09-.21.05-.33.05a2.29,2.29,0,0,1-.24-1.5c.08,0,.16-.13.24-.16.25.33.17.7.25,1.12h0C307.89,213,308.05,213.13,307.93,213.29Zm.86-.15c-.45,0-.45-.42-.61-.72a1.86,1.86,0,0,1,.21-1c.25-.09.33.15.37.28h0C308.67,212.22,309.09,212.73,308.79,213.14Zm.87-.29a.22.22,0,0,1-.41,0c0-.5-.37-1.28.13-1.73.37.53.24,1,.28,1.69Zm-1.33-6.48a6.24,6.24,0,0,0-.3,2.41.39.39,0,0,1-.33.28c-.45-.25-.12-.92-.28-1.28,0-1.08-.36-1.7-.44-2.74l.2-.16c.3.12.21.7.62.53a26.69,26.69,0,0,0,.92-3.3c.63-1.83.47-3.86.73-5.77l.21,0h0C309.81,199.94,309,203.09,308.33,206.37Zm2.24,6.23a.49.49,0,0,1-.41.17c0-.63-.25-1.17.09-1.83.37.49.2,1.12.32,1.66Zm.9,0c-.2-.08-.33.13-.45,0l-.12-1.38a.46.46,0,0,1,.42-.24c.28.29,0,.88.2,1C311.52,212.19,311.47,212.31,311.47,212.56Z" fill="#e6a300"/><path d="M289.2,215.73c0,.05-.08.09-.12.05-.25-.42.08-1-.08-1.38l.05-.7c.4.63-.22,1.37.15,2" fill="#e6a300"/><path d="M274.23,166.16c.16.21.29.54.2.7a7.19,7.19,0,0,1-1.81-.46c-.25,0-.49-.25-.7,0s-.08.58-.45.41a1.17,1.17,0,0,1,.17-1,2.13,2.13,0,0,1,1.73,0,.84.84,0,0,1,.86.38Z" fill="#e6a300"/><path d="M274.23,166.16c.16.21.29.54.2.7a7.19,7.19,0,0,1-1.81-.46c-.25,0-.49-.25-.7,0s-.08.58-.45.41a1.17,1.17,0,0,1,.17-1,2.13,2.13,0,0,1,1.73,0,.84.84,0,0,1,.86.38Z" fill="none" stroke="#1f2c5c" stroke-miterlimit="10" stroke-width="0.26"/><path d="M273.69,167.28a.88.88,0,0,1,.78.79l-.12.21c-1-.68-2.19,0-3.18,0a.67.67,0,0,1,0-.67,2.31,2.31,0,0,1,2.19-.31Z" fill="#e6a300"/><path d="M273.69,167.28a.88.88,0,0,1,.78.79l-.12.21c-1-.68-2.19,0-3.18,0a.67.67,0,0,1,0-.67,2.31,2.31,0,0,1,2.19-.31Z" fill="none" stroke="#1f2c5c" stroke-miterlimit="10" stroke-width="0.26"/><path d="M274.51,169.19l-.05.49a2.9,2.9,0,0,0-1.85-.34l-1.41.49c-.24-.12-.16-.45-.16-.65.46-.5,1.12-.41,1.66-.61C273.4,168.52,274.14,168.52,274.51,169.19Z" fill="#e6a300"/><path d="M274.51,169.19l-.05.49a2.9,2.9,0,0,0-1.85-.34l-1.41.49c-.24-.12-.16-.45-.16-.65.46-.5,1.12-.41,1.66-.61C273.4,168.52,274.14,168.52,274.51,169.19Zm-1.33,1.74a1.76,1.76,0,0,1-.71.61c-.25,0-.36-.2-.45-.41.25-.28.71-.24,1.08-.37Z" fill="none" stroke="#1f2c5c" stroke-miterlimit="10" stroke-width="0.26"/><path d="M326.17,175.13c-.71,3.12-1.81,6.22-2.69,9.32-.28.5-.29,1.16-.62,1.62-.8,3-1.76,5.92-2.72,8.87-.7-1.17.29-2.13.46-3.2.3-1.36.8-2.53,1-3.93.71-1.49.8-3,1.59-4.6.59-2.16,1.18-4.27,1.85-6.29.29-.62.32-1.21.58-1.87.16,0,.41-.08.49.08Z" fill="#e6a300"/><path d="M312.42,221.24l.13.16c-.13.34-.87.21-.58.71a3.38,3.38,0,0,1,.86.87,10.59,10.59,0,0,1-2,2.6l-.37.3a11,11,0,0,1-.49-2,5.44,5.44,0,0,0-.24-1.65c.41-.25,1-.16,1.53-.37a.7.7,0,0,0,0-.5c-.08-.11-.37-.21-.28-.46.53-.08.9.21,1.39.34Zm-5.79,30.13a7.87,7.87,0,0,0,3.08,1.55,2.34,2.34,0,0,0-.91,1.32c-.12.13-.29,0-.41.09-1.11-1.05-2.3-1.92-2.87-3.42.29-.7.82.22,1.11.46Zm5.89,2c1.27,1.08,2.41,2.67,2,4.53a3.28,3.28,0,0,1-.17,2.32c-1.17.86-2.23-.31-3.34-.48a4.63,4.63,0,0,1-2.42-3c-.32-.46-.4-1.08-.78-1.49-.61-1-3-.93-2-2.63,1,.84,1.76,1.92,3,2.54.66,0,.45-1,1-1.23a6.37,6.37,0,0,0,1.47,2.4c.46.63,1,1.18,1.85.93.29-.25.58-.53.46-1-.2-.86-1.07-1.29-1.47-2.08.12,0,.21,0,.25-.16.08-.45-.25-.74-.54-1.12a1.59,1.59,0,0,0-.94-.42c.45-.32.46-.95.79-1.44.16.83,1,1.37.86,2.32Zm-15.79-.67c0,.21.2.05.29.17a1.52,1.52,0,0,1-.95.54,3.71,3.71,0,0,1-3.27.35c-.28-.33-.19-.74-.27-1.12.28.34.94.05,1.35,0,.17-.29.5,0,.71-.2.74,0,1.44.17,2.14.25Zm-4.5.9.33.66a2.09,2.09,0,0,0-1.65,1.27c-.5-1,.54-1.94,1-2.85.32.09.16.63.36.92Zm6.44-.22c.11.84-.84,1-1.25,1.49a5.51,5.51,0,0,1-3.22,1c-.45-.34-.24-.79-.65-1.09v-.2a9.17,9.17,0,0,0,3.05-.65,9.36,9.36,0,0,0,1.36-.83c.25,0,.58-.07.71.26Zm11.91-.19c0,1.4,1.31,2.12,1.8,3.32-.5,0-.46-.58-.83-.82a3.07,3.07,0,0,1-1.1-2.5h.13Zm1.27.83c-.25.17-.13.3-.17.5-.41-.33-.36-.87-.49-1.33C311.56,253.27,311.73,253.73,311.85,254Zm-19.09.87,0-.5.08.21,0,.29Zm-1.42,3.1c-.41,0-.45.58-.86.57.41-.45.91-1.08,1.28-1.56a3.9,3.9,0,0,0,1-1.87,4.77,4.77,0,0,1-1.38,2.86Zm.51-2.62h0v.2h0Zm2.22,1.14a11.92,11.92,0,0,0,3.71-.85c-.08.54-1.35.27-.78,1l.82-.2c-.91.82-2.18,1.15-3.14,2-1,1-1.87,2.81-3.47,2.88l-1.12.37v.25c.45.25.86-.21,1.36-.16a2.9,2.9,0,0,1-1.16.66c-.58.29-1.4.74-1.94.32a13.34,13.34,0,0,1-.56-3.11c.22-1.95,2.44-2.15,3.07-3.85.13.05.21.08.25.26v.29c-.33.86-2.68,1.35-1.37,2.55a1,1,0,0,0,1,.26,5.7,5.7,0,0,0,2.54-3.59,1.53,1.53,0,0,0,.77,1Zm-3.84,1.34c.17-.15.37-.45.58-.52C290.77,257.64,290.4,257.64,290.23,257.84Zm34.58-81.47a1.1,1.1,0,0,1-.41-1.2l.46-1c.45.58.19,1.62-.05,2.24Zm1.34,2.7c-.2.13-.33.37-.58.45.5-1.44.47-3.44,1.8-4.46a36,36,0,0,1-1.22,4Zm-1.55-1.91c-.42.82-.55,1.73-.93,2.56-.61-1,.06-2.15.43-3.19.17.25.82.18.5.63Z" fill="#e6a300"/><path d="M300,148.27Z" fill="#e6a300"/><path d="M305.19,141.42a4.24,4.24,0,0,0-1-1c-1.93-1-4-.39-6.05-.19-.71.16-.83.95-1.13,1.44a4.58,4.58,0,0,0,.81,4.65l-.06,1.83-.24,0a9.3,9.3,0,0,1,.86,2.08c.81,1.74,2.79.34,4.15.93.91-.29,1.24-1.28,1.79-2a3.78,3.78,0,0,0-.15-2.82C305.5,145.11,305.43,143.21,305.19,141.42ZM297.27,143c.74-1.12,2.14-.08,3-.6.41.08.2.75.36.95-.17.37-.21.79-.66.91a2.86,2.86,0,0,1-2.1-.51C297.88,143.34,296.77,143.7,297.27,143Zm4.26,6.15a.25.25,0,0,1-.07.26,2.51,2.51,0,0,1-.24.19.82.82,0,0,1-.35,0,.66.66,0,0,0-.36.07.21.21,0,0,1-.15,0,.28.28,0,0,1-.11-.08.85.85,0,0,1-.15-.28h0a.4.4,0,0,1,0-.22V149h0l.25.15a.64.64,0,0,0,.35.12h0a1.39,1.39,0,0,0,.61-.06.44.44,0,0,0,.22-.06s0,0,0,0h0s0,0,0,.07S301.53,149.19,301.53,149.19Zm.56-.53a4.68,4.68,0,0,0-.84.05h-1.57a4.48,4.48,0,0,0-.82.1c-.25-.25.26-.31.38-.4a2.59,2.59,0,0,1,.73-.12s0,0-.06,0h0c.1,0,.11,0,.08,0H300a.78.78,0,0,1,.56.15l.16,0c.22,0,.46,0,.54-.19h.93l.49.15s0,0,0,0a.91.91,0,0,0,.28.12c0,.05.12,0,.16.08Zm1.39-4.51c-.58.54-1.44-.43-1.78.45-.29,1,.86,1.25,1.23,2a2.44,2.44,0,0,1,.57,1.45c-.66-.05-.57-1.45-1.47-1.09a1.64,1.64,0,0,1-1.37.41c-.37-.25-.86-.21-1.19-.58-.49.16-.62.74-1,1l-.16,0c-.08-.5.33-.74.58-1.08.42-.16.5-.52.87-.69.13.12.08.42.33.54.49-.12,1.07.5,1.44-.16,0-1.32-.94-2.74-.22-4.07.19,0,.19.33.45.3.7.09,1.19-.33,1.94-.19a4.87,4.87,0,0,1,1.14.67.49.49,0,0,1-.24.45C303.77,143.33,304.22,144.31,303.48,144.15Z" fill="#e6a300"/><path d="M307.36,199.45l.09,2.09-.39.92h-.31l.35-2.79Z" fill="#1f2c5c" fill-rule="evenodd"/><path d="M298.11,219.44l.18.35-.44.87-.17-.13v-.48Z" fill="#1f2c5c" fill-rule="evenodd"/><path d="M273,170.85l-.13.46-.46.33-.4-.59Z" fill="#1f2c5c" fill-rule="evenodd"/><path d="M371.57,236.83c0-.14,0-.28.1-.31a2.28,2.28,0,0,0,.18-.77A1.85,1.85,0,0,1,372,235a1.09,1.09,0,0,0,.09-.54,1.06,1.06,0,0,1,.1-.54,3.64,3.64,0,0,0,.18-1.09c.07-1,.06-1-.18-1.32a4.75,4.75,0,0,0-1.44-.8c-.14,0-.07.41.09.55a.45.45,0,0,1,.17.28c0,.08,0,.15.08.15s.17.15.27.34a3.89,3.89,0,0,1,.06,2.19c-.06.13-.16.31-.2.4s-.86.3-.86.12-.15-.12-.32-.12a.57.57,0,0,1-.39-.1.75.75,0,0,0-.47-.11,1.35,1.35,0,0,1-.66-.18c-.21-.15-.24-.25-.2-.59a.83.83,0,0,1,.74-.83c.39-.1.49-.33.21-.46l-.41-.21a1.27,1.27,0,0,0-.51-.12.46.46,0,0,1-.33-.11,1.15,1.15,0,0,0-1,0c0,.06,0,.11,0,.11s.13.08.17.19a3.28,3.28,0,0,0,.27.51c.23.36.29.71.12.71s-.11.12-.11.27,0,.27-.54.27a1.11,1.11,0,0,1-.6-.11.46.46,0,0,0-.33-.1,1.65,1.65,0,0,1-.95-.43c-.24-.2-.24-.62,0-1.17s.34-.56,1.23-1.31c.39-.33.38-.57,0-.57-.17,0-.35,0-.38.11a.51.51,0,0,1-.36.11c-.5,0-.78.12-.78.33a.32.32,0,0,1-.11.26.47.47,0,0,0-.11.34c0,.14,0,.26-.1.26a2,2,0,0,0-.17.82,2.64,2.64,0,0,1-.17.87.77.77,0,0,0-.1.47,1.09,1.09,0,0,1-.1.51,2.49,2.49,0,0,0-.18.78c-.08.79,0,.88.53.35a1.06,1.06,0,0,1,1.24-.22,3.3,3.3,0,0,0,.92.17,1.7,1.7,0,0,1,.74.16,2,2,0,0,0,.81.16,2.24,2.24,0,0,1,.87.18.91.91,0,0,0,.49.1.87.87,0,0,1,.48.09,1,1,0,0,0,.45.16c.51.08.7.25.7.61s.22.62.4.37a.81.81,0,0,0,.14-.43Zm-7.24,6a.66.66,0,0,0-.14-.44,3.25,3.25,0,0,1-.66-1.37c0-.44.25-.52,1.33-.44a3.8,3.8,0,0,1,1.11.17,3.91,3.91,0,0,0,1,.17,2.91,2.91,0,0,1,1,.18.59.59,0,0,0,.38.09,1.4,1.4,0,0,1,.51.1,2.3,2.3,0,0,0,.57.17.79.79,0,0,1,.65.78c0,.19.26.18.42,0a3.13,3.13,0,0,0,.19-.93,2.27,2.27,0,0,1,.17-.84,1,1,0,0,0,.09-.54c0-.34-.05-.48-.16-.48a.32.32,0,0,0-.22.1,1.87,1.87,0,0,1-.94.44.35.35,0,0,1-.26-.1c0-.06-.25-.11-.48-.11s-.44-.05-.46-.11a4.87,4.87,0,0,0-1.47-.18,7,7,0,0,1-1.44-.15,1.21,1.21,0,0,0-.56-.15c-1.14-.15-1.16-.64-.08-1.69.46-.45.74-.8.69-.87s-1.27-.05-1.76.17-.36.18-.36.86a1.71,1.71,0,0,1-.1.76.93.93,0,0,0-.11.54,1,1,0,0,1-.1.54,1.83,1.83,0,0,0-.16.68,4.1,4.1,0,0,1-.36,1.19l-.28.57.32.3a2.92,2.92,0,0,0,1,.68.92.92,0,0,1,.31.22.26.26,0,0,0,.26.09c.13,0,.17-.14.16-.4Zm1.32,4.21a2.91,2.91,0,0,0-.52-.27c-.1,0-.19-.11-.19-.16s-.06-.1-.14-.1-.68-.52-.58-.61a4.07,4.07,0,0,1,1-.13,3.61,3.61,0,0,0,1-.13c.06-.05.2,0,.31.06s.19.23.13.72c-.12.86-.37,1-1,.62Zm2.84,3.3a.84.84,0,0,0,.14-.43c0-.13.06-.25.12-.27a2.46,2.46,0,0,0,.17-.88c.08-.95,0-1-.55-.56-.23.17-.39.23-.44.16a.34.34,0,0,0-.27-.11c-.41,0-.57-.31-.49-1a3.35,3.35,0,0,1,.17-.77,2.67,2.67,0,0,0,.16-.58c.05-.33.11-.41.31-.41a.55.55,0,0,0,.36-.12c.2-.19.79.12.79.41a.37.37,0,0,0,.6.26,1.38,1.38,0,0,0,.23-.64,2.09,2.09,0,0,1,.16-.62,3.05,3.05,0,0,0,.16-.84c.07-.69.07-.73-.15-.73a.43.43,0,0,0-.29.1c-.17.29-.82.48-1.77.53a2.6,2.6,0,0,0-1,.15,1.65,1.65,0,0,1-.75.09,2.22,2.22,0,0,0-.82.09,6.29,6.29,0,0,1-1.52.17c-1.73.09-2.12.23-2.12.75,0,.35.26.73.5.73.08,0,.15,0,.15.08s.16.18.35.3.47.3.62.41a5.07,5.07,0,0,0,.61.34,1.8,1.8,0,0,1,.48.33.46.46,0,0,0,.24.17,1.77,1.77,0,0,1,.51.31,7.11,7.11,0,0,0,.91.57,4.5,4.5,0,0,1,1.41.89,1,1,0,0,1,.41.66c0,.16.05.28.11.28s.1.08.1.17.22.2.4,0Zm-7.25,4.19c.08-.12.1-.26.05-.3a3.51,3.51,0,0,1-.69-1.77V252h.59a1.29,1.29,0,0,1,.66.11,1.49,1.49,0,0,0,.6.17,1.43,1.43,0,0,1,.6.17.57.57,0,0,0,.37.09c.18,0,.35.05.38.11a1.41,1.41,0,0,0,.58.17,2,2,0,0,1,.62.16,1.7,1.7,0,0,0,.43.15,1.78,1.78,0,0,1,1.52,1.21c.07.2.08.2.28-.06a1.93,1.93,0,0,0,.27-.7,4.3,4.3,0,0,1,.16-.6,3.57,3.57,0,0,0,.38-1.11c0-.35,0-.41-.14-.41a.84.84,0,0,0-.46.27c-.25.27-.79.37-.92.17a1.18,1.18,0,0,0-.57-.18,2.46,2.46,0,0,1-.63-.15,1.83,1.83,0,0,0-.62-.16,1.18,1.18,0,0,1-.57-.18.62.62,0,0,0-.38-.1.57.57,0,0,1-.37-.09.94.94,0,0,0-.46-.17,3.69,3.69,0,0,1-.57-.17,3.73,3.73,0,0,0-.49-.18.87.87,0,0,1-.43-.28,1.09,1.09,0,0,1,.31-1.11c.79-.43,1.39-1.12,1-1.16a6.15,6.15,0,0,0-1.8.15,1.28,1.28,0,0,0-.13.69,1.17,1.17,0,0,1-.08.58c-.13,0-.36.58-.43,1.06a2.22,2.22,0,0,1-.14.52,1.9,1.9,0,0,0-.15.57,1.8,1.8,0,0,1-.43,1,.93.93,0,0,0-.14.48c-.05.37,0,.48.32.83a1.69,1.69,0,0,0,.48.41,1,1,0,0,1,.35.27c.31.34.45.34.64,0Zm-2.45,4.86c-.72-.37-1.12-.68-1.12-.88a5.4,5.4,0,0,1,.93-1.69,1.27,1.27,0,0,1,1.65.05.85.85,0,0,1,.35.82c0,.69-.7,2.09-1,2.06a6.46,6.46,0,0,1-.79-.36Zm4.84,3.59a6.24,6.24,0,0,0,.45-1.06.74.74,0,0,1,.16-.36c.35-.46,0-.88-.38-.44-.2.23-1,.2-1.49-.06a1.88,1.88,0,0,0-.55-.21c-.07,0-.13,0-.13-.09s-.16-.15-.36-.23a2.32,2.32,0,0,1-.53-.31c-.28-.24,0-.57.42-.57.19,0,.38-.05.41-.11a1.48,1.48,0,0,1,.71-.11,1.6,1.6,0,0,0,.69-.09,4.35,4.35,0,0,1,1.12-.16,2.72,2.72,0,0,0,1.25-.25c.45-.41,1-2,.65-2a1,1,0,0,0-.34.27.87.87,0,0,1-.56.27c-.17,0-.33,0-.36.1a4.14,4.14,0,0,1-1.12.17,5.93,5.93,0,0,0-1.31.19c-.45.22-.61,0-.65-.85,0-1.08-.43-1.75-1.11-1.94a3.84,3.84,0,0,1-.51-.19c-.19-.09-.34-.07-.71.11a2.48,2.48,0,0,0-.62.39.45.45,0,0,1-.29.17.29.29,0,0,0-.23.19,3.51,3.51,0,0,1-.42.63,2.67,2.67,0,0,0-.43.73c0,.17-.11.3-.17.3s-.09.09-.1.19a3.34,3.34,0,0,1-.32.84,3.66,3.66,0,0,0-.33.81.73.73,0,0,1-.21.38,1.58,1.58,0,0,0-.28.69c-.06.38-.05.46.1.46s.18,0,.18-.08.64-.47.87-.47.21,0,.21.1.16.14.35.18a2.8,2.8,0,0,1,.68.28,3.3,3.3,0,0,0,.52.27c.1,0,.19.11.19.16s.1.1.22.1a1.78,1.78,0,0,1,.62.22,1.82,1.82,0,0,0,.53.21.19.19,0,0,1,.17.09,8.12,8.12,0,0,0,1.56.78c.19,0,.48.5.48.81s.2.65.39.49a6.53,6.53,0,0,0,.58-1Zm-4.21,7a2.5,2.5,0,0,1,.44-.7,4.18,4.18,0,0,0,.3-.51,2.43,2.43,0,0,1,.4-.59,2.65,2.65,0,0,0,.4-.63,3.1,3.1,0,0,1,.46-.72c.49-.45.41-1-.3-1.91a1.77,1.77,0,0,1-.3-.52c0-.06-.1-.12-.22-.12s-.22.07-.22.38a.69.69,0,0,0,.11.44,3.62,3.62,0,0,1,0,1.73.84.84,0,0,0-.17.39c0,.17-.12.32-.17.32s-.1.06-.1.13c0,.23-.36.52-.64.52a1.28,1.28,0,0,1-.56-.16l-.43-.24a1.81,1.81,0,0,1-.38-.27c-.12-.11-.38-.33-.57-.48-.38-.3-.46-.69-.19-.91a.45.45,0,0,0,.16-.25.88.88,0,0,1,.24-.37c.19-.2.35-.25.81-.25s.58-.05.58-.11a2.3,2.3,0,0,0-.77-.8c-.09,0-.35-.19-.59-.34a2.14,2.14,0,0,0-.69-.27c-.22,0-.25,0-.18.3a.61.61,0,0,0,.17.33c.21.08.13.46-.24,1.11a4.27,4.27,0,0,0-.2.42c-.09.21-.16.24-.41.18a1.41,1.41,0,0,1-.52-.29.75.75,0,0,0-.35-.2,1.82,1.82,0,0,1-.56-.4c-.5-.45-.57-.81-.21-1.2a2.28,2.28,0,0,0,.36-.49,1.39,1.39,0,0,1,.55-.46,2.6,2.6,0,0,0,.49-.29,1.77,1.77,0,0,1,.48-.13,1.37,1.37,0,0,0,.53-.18c.17-.16-.12-.44-.46-.44a.68.68,0,0,1-.4-.11,1.07,1.07,0,0,0-.59-.09c-.43,0-.49.08-.72.52a2.34,2.34,0,0,1-.37.56c-.12.07-.24.27-.59.94a2.06,2.06,0,0,1-.33.47.42.42,0,0,0-.16.23,1.39,1.39,0,0,1-.27.45c-.15.19-.31.4-.37.46a1.29,1.29,0,0,0-.17.37,1.63,1.63,0,0,1-.28.47c-.11.12-.18.26-.14.31s.44.11.58-.07c.3-.36.86-.15,2.35.86l.37.28a.63.63,0,0,0,.21.14,4.5,4.5,0,0,1,1,.65l.51.4a1.26,1.26,0,0,0,.4.17,2,2,0,0,1,.66.49c.39.43.49.82.26,1.05s-.09.17,0,.31.18.14.51-.24a4.3,4.3,0,0,0,.47-.64Zm-8.65,1.69a1.64,1.64,0,0,0-.57-.44.26.26,0,0,1-.21-.19,1.8,1.8,0,0,0-.22-.37c-.14-.16-.13-.22,0-.49a2.33,2.33,0,0,1,1.71-1.23c.36,0,.49.07.84.45.59.64.57,1-.12,1.9a6.55,6.55,0,0,0-.43.57c-.24.35-.56.28-1-.2Zm3.42,2.85a.57.57,0,0,1-.25-.21.28.28,0,0,0-.22-.15,2.5,2.5,0,0,1-.67-.54,2.35,2.35,0,0,0-.67-.54c-.08,0-.14-.13-.14-.29s.18-.47.62-.92c.62-.63.63-.63,1.25-.64a1.19,1.19,0,0,1,1.12.45c.46.43.48.47.48,1.07,0,.43,0,.67-.16.76a.46.46,0,0,0-.16.27c0,.17-.55.67-.82.74a.81.81,0,0,1-.38,0Zm-.06,1.79,1.26-1.34a2.71,2.71,0,0,0,.54-.66,1.31,1.31,0,0,1,.33-.42,1.13,1.13,0,0,0,.32-.41.69.69,0,0,1,.24-.31c.21-.18.24-.32.25-1a2,2,0,0,0-.13-.94.51.51,0,0,1-.14-.31.92.92,0,0,0-.3-.45,2,2,0,0,0-1.78-.56l-.85,0v-.49a1.75,1.75,0,0,0-.14-.73c-.27-.48-.78-.95-1-.95s-.25-.05-.25-.11-.18-.11-.39-.11-.38.05-.38.1-.17.14-.38.18-.65.35-1.79,1.55a15,15,0,0,0-1.41,1.59,1.39,1.39,0,0,1-.38.49,1.2,1.2,0,0,0-.38.58c0,.18,0,.19.41.13a1.56,1.56,0,0,0,.54-.19c.1-.08.14-.08.14,0s.1.12.23.12a4.14,4.14,0,0,1,1.18.87,7.7,7.7,0,0,0,1,.87,2,2,0,0,1,.52.43,2.06,2.06,0,0,0,.53.44,5.31,5.31,0,0,1,1.24,1.29c.1.18.11.3,0,.38s-.14.72,0,.72a3.93,3.93,0,0,0,.88-.79Zm-2.65,2.93c1.15-1.19,1.3-1.49.76-1.49-.18,0-.33.05-.33.11s-.13.11-.29.11-.46-.17-.86-.56a5.32,5.32,0,0,0-.82-.68,1.08,1.08,0,0,1-.4-.42c-.07-.17-.2-.3-.27-.3a8.23,8.23,0,0,1-1.22-1.09L347,273.92l0-.64c0-.41,0-.65-.09-.65a11.3,11.3,0,0,0-2.27,2.36c0,.21,0,.22.59.16l.6-.06,1.39,1.38a15.71,15.71,0,0,0,1.5,1.37,4.1,4.1,0,0,1,.79.7l.69.69-.05.55c-.09,1,0,.92,1.33-.45Zm-6.2,5.63a1,1,0,0,1,.36-.28,6.43,6.43,0,0,0,.94-.87,6.24,6.24,0,0,1,.95-.87,1.93,1.93,0,0,0,.53-.43,1.88,1.88,0,0,1,.54-.44.58.58,0,0,0,.32-.21c.16-.17.18-.32.13-.72a1.83,1.83,0,0,0-.17-.63,2,2,0,0,1-.18-.55c-.1-.54-.33-.79-.57-.64s-.19.31-.21.81a3.62,3.62,0,0,1-1.07,2.35c-.69.71-.91.66-1.93-.43l-1.37-1.45a3.65,3.65,0,0,1-.6-.81,1.69,1.69,0,0,0-.42-.6c-.67-.66-.89-1.24-.6-1.54a.28.28,0,0,0,.06-.29c-.07-.19-.4-.24-.4-.06s-.06.1-.14.1a2.17,2.17,0,0,0-.62.49,2.25,2.25,0,0,1-.58.49,2.31,2.31,0,0,0-.94,1,.37.37,0,0,0,.55.34c.4-.25.74-.15,1.25.34a2.32,2.32,0,0,1,.48.57,3.17,3.17,0,0,0,.6.69,3,3,0,0,1,.6.72,2.7,2.7,0,0,0,.54.73,4.57,4.57,0,0,1,.55.67,2.61,2.61,0,0,0,.38.53c.21.24.33.46.27.48s-.11.16-.11.3-.05.27-.11.27-.14.19,0,.36.57,0,.95-.41Zm-12.8,2c-.1-.12-.1-.21,0-.37s.09-.27-.15-.59-.4-.95-.18-.95c.06,0,.1-.08.1-.17a.17.17,0,0,1,.17-.16c.09,0,.16,0,.16-.1s.15-.13.32-.17a.84.84,0,0,0,.39-.17.92.92,0,0,1,.53-.1.87.87,0,0,1,.78.33,1.06,1.06,0,0,1,.32.95c0,.72-.26,1.11-.73,1.11a.51.51,0,0,0-.36.1,1.85,1.85,0,0,1-1,.44.57.57,0,0,1-.37-.15Zm2,3.43a11.55,11.55,0,0,1-.88-1.54,2.12,2.12,0,0,0-.33-.53c-.23-.09-.06-.42.29-.56s.38-.18.38-.23.15-.11.33-.15a.7.7,0,0,0,.38-.17,1.19,1.19,0,0,1,.58-.1c.46,0,.56.05.94.44s.43.46.43,1.23-.08,1-.49,1.19l-.64.35c-.56.32-.77.33-1,.07Zm-1.08,2a1,1,0,0,1,.32-.16,2.36,2.36,0,0,0,.6-.32,4.57,4.57,0,0,1,.76-.43,3.57,3.57,0,0,0,.65-.39,1.6,1.6,0,0,1,.49-.28.71.71,0,0,0,.34-.18,2.55,2.55,0,0,1,.54-.34,1.88,1.88,0,0,0,.92-1.05,3.7,3.7,0,0,1,.17-.35,2.34,2.34,0,0,0-.44-2.08.37.37,0,0,1-.09-.28.21.21,0,0,0-.13-.21l-.41-.21a1.4,1.4,0,0,0-.56-.13h-.31v-1c0-.95,0-1-.25-1.31a2.07,2.07,0,0,0-1.71-.64,5.56,5.56,0,0,0-2,.85,8.27,8.27,0,0,1-.73.43c-.23.11-.41.24-.41.29s-.14.11-.3.15a2.11,2.11,0,0,0-.64.34,1.5,1.5,0,0,1-.45.26.72.72,0,0,0-.3.22c-.19.21-.19.23,0,.41s.23.16.36.07.66,0,.91.34c.1.13.1.16-.05.16s-.22.15,0,.32a.45.45,0,0,1,.16.28,1.16,1.16,0,0,0,.27.46,1.9,1.9,0,0,1,.33.6c0,.16.12.29.17.29s.12.15.16.33a.8.8,0,0,0,.26.46.88.88,0,0,1,.28.41,1.39,1.39,0,0,0,.27.49c.5.58.7,1.52.38,1.79a.44.44,0,0,0-.09.58c.08.08.49,0,.58-.15Zm-5.67,2.43.24-.07-.07-3.81-.07-3.82.24-.29a.73.73,0,0,1,.45-.3.19.19,0,0,0,.21-.21c0-.29-.16-.37-.46-.21l-.45.23a4.07,4.07,0,0,1-.79.16,1.21,1.21,0,0,0-.58.14c0,.05-.15.12-.33.16a1,1,0,0,0-.39.17c-.08.15.16.43.37.43a.84.84,0,0,1,.42.23c.21.2.25.35.25.86a1.43,1.43,0,0,0,.11.7,12.68,12.68,0,0,1,0,3c-.09.09-1.12-.89-1.12-1.07a4,4,0,0,0-.66-.76,3.5,3.5,0,0,1-.65-.77.69.69,0,0,0-.27-.32c-.28-.22-.38-.83-.16-1a.56.56,0,0,0,.11-.39c0-.26-.05-.32-.25-.32a.85.85,0,0,0-.46.16,1,1,0,0,1-.46.17c-.13,0-.24,0-.24.1s-.15.13-.34.17a2.72,2.72,0,0,0-.62.23,1.38,1.38,0,0,1-.43.15c-.2,0-.16.44.06.61a.73.73,0,0,0,.37.15,5.86,5.86,0,0,1,1.5,1.39,2.59,2.59,0,0,0,.5.57,4.23,4.23,0,0,1,.57.66,17.65,17.65,0,0,0,1.35,1.55c1.3,1.38,1.42,1.46,2,1.3ZM318,297.55c.1-.13.39-.16,1.26-.16a6.09,6.09,0,0,0,1.32-.1c.1-.06.41-.21.69-.33.67-.31,1.51-1.2,1.51-1.61a.74.74,0,0,1,.12-.44c.1-.09.1-.19,0-.37a2.92,2.92,0,0,1-.19-.59,1.85,1.85,0,0,0-1.17-1.12.62.62,0,0,1-.38-.13,3.34,3.34,0,0,0-1.19-.18,4.35,4.35,0,0,1-1.16-.14,2,2,0,0,0-.75-.1c-.69,0-1.48-.27-1.48-.51a.13.13,0,0,0-.11-.14c-.18,0-.12-.58.08-.81a1.62,1.62,0,0,1,1.16-.6.69.69,0,0,0,.44-.11.46.46,0,0,1,.33-.11c.15,0,.27.05.27.11s.22.11.49.11a1.23,1.23,0,0,1,.84.26c.46.35.87.45,1,.25s-.08-.69-.74-1.41l-.53-.57-.31.29c-.28.26-.4.29-1.44.34a3,3,0,0,0-1.65.34,3.82,3.82,0,0,0-1.32,1.19c-.2.31-.26,1.59-.08,1.59a.12.12,0,0,1,.11.13,1.92,1.92,0,0,0,.84.85.13.13,0,0,1,.14.11c0,.06.11.11.25.11a.59.59,0,0,1,.36.11,7.25,7.25,0,0,0,1.6.18,5.72,5.72,0,0,1,1.48.16c0,.05.22.09.48.09a1.11,1.11,0,0,1,.65.16.51.51,0,0,0,.28.16c.06,0,.11.08.11.17s.05.16.11.16.13.61-.05.76a.41.41,0,0,0-.16.26c0,.13-.76.5-1,.5a.26.26,0,0,0-.22.11,3.5,3.5,0,0,1-1.74,0,.3.3,0,0,0-.23-.11,2.65,2.65,0,0,1-1.13-.53c0-.13-.41-.23-.61-.16s-.21.58,0,.58.11.07.11.15a.87.87,0,0,0,.27.39.9.9,0,0,1,.27.37c0,.4.82.66,1.09.34Z" fill="#e6a300"/><path d="M370.62,164.4c.31-.38.46-.4,3.24-.46s2.94,0,3.24.31c.56.66.76.46.76-.77s-.18-1.54-.6-.89c-.29.43-.32.44-2.76.44a10.45,10.45,0,0,1-2.46-.15,28.65,28.65,0,0,1,4.64-2c.68-.26,1-.47,1-.64a4.92,4.92,0,0,0-1.64-1,16.66,16.66,0,0,1-3.8-2c0-.08.38-.11.84,0s1.51.15,2.32.21c1.29.1,1.54.18,1.91.57s.45.42.59.2a7,7,0,0,0,.07-2.64,2.11,2.11,0,0,0-.5.27c-.34.22-.67.24-2.07.09-.91-.1-2.19-.18-2.84-.18-1.06,0-1.21,0-1.55-.47-.53-.68-.74-.34-.67,1.1l.05,1.21,1.87.8c2,.86,2.87,1.35,2.73,1.58a17.94,17.94,0,0,1-2.39,1,7.15,7.15,0,0,0-2.5,1.19,3.4,3.4,0,0,0-.09,1.35c.06.55.1,1.06.11,1.13,0,.24.21.14.53-.26Zm1.89,8.86c.49-.08,1.82-.2,2.95-.27,1.87-.11,2.09-.1,2.43.21l.38.33-.12-2.56c-.06-1.41-.16-2.73-.22-2.95s-.37-.47-1-.68a2.36,2.36,0,0,0-1-.19c-.05.06.16.31.46.57a3.13,3.13,0,0,1,1.17,2.3c.16,1.15-.16,1.45-1.72,1.6-1.06.1-1.16.07-1.44-.31a1.76,1.76,0,0,1,.07-2c.64-.58.46-.85-.54-.75s-1.2.21-.81.64a4.07,4.07,0,0,1,.5,2.53,3.17,3.17,0,0,1-1.21.27c-1.33.12-1.52-.09-1.55-1.62a2.27,2.27,0,0,1,.4-1.68c.23-.31.37-.6.32-.66s-1.16.31-1.32.6a32.17,32.17,0,0,0,.43,5.34l.09.43.4-.49a1.77,1.77,0,0,1,1.29-.64Zm1.47,10a2.69,2.69,0,0,0-.71-.92c-.66-.65-.91-1.35-.56-1.57.08,0,1.36-.27,2.85-.49,2.53-.37,2.72-.38,3.2-.1s.51.27.51,0a15.07,15.07,0,0,0-.41-2.46c-.05,0-.27.12-.5.35s-.78.47-2.53.72c-1.17.17-2.44.32-2.82.34-.7,0-.71,0-.77-.63a2.4,2.4,0,0,1,.41-1.46c.54-.92.35-1-.82-.42-.59.31-.69.43-.6.75a37.73,37.73,0,0,1,.7,5.13c-.11.3.22.57,1,.79s1.06.24,1.06,0Zm.17,8.62c.18-.48.41-.56,3.53-1.24,2.35-.52,2.88-.55,3.18-.18a.72.72,0,0,0,.4.26c.2,0,.18-.1-.53-3.44l-.49-2.29-.69-.23a3,3,0,0,0-1.06-.18c-.31.05-.27.12.28.49a3,3,0,0,1,1.37,2.29c.19.88.17,1-.15,1.31a3.73,3.73,0,0,1-2.68.34A2.93,2.93,0,0,1,377,188c-.09-.77-.05-.94.28-1.25s.32-.4.19-.48a3.94,3.94,0,0,0-2,.3c-.33.18-.33.19,0,.33a1.81,1.81,0,0,1,1,1.74l.06.8-1.05.2c-1.38.28-1.61.14-1.75-1a3.65,3.65,0,0,1,.27-2.2c.33-.67.09-.79-.62-.31-.53.36-.66.54-.59.84s.22,1.25.38,2.32c.27,1.86.56,3.09.73,3.09s.15-.19.24-.43Zm1.24,5.92c0-.35.56-.7,1.45-.9,4.46-1,5-1,5.17-.7s.44.17.44-.31a4.08,4.08,0,0,0-.68-2.13c-.11,0-.2.06-.2.22,0,.39-.43.54-3.27,1.15s-2.94.64-3.36.18c-.17-.2-.38-.3-.45-.22a8.4,8.4,0,0,0,.47,2.71c.13.21.43.21.43,0Zm1.22,8.76c.11-.29.86-.75,2.67-1.63,3.61-1.76,4-2,4-2.26s-.61-1-1.21-1a37.79,37.79,0,0,1-5.23-1.25,3.39,3.39,0,0,1-.9-.56c-.24-.23-.46-.31-.55-.21a5.88,5.88,0,0,0,.19,2.46c.06.07.36-.06.66-.29l.55-.4,1.71.33c2.54.48,2.55.57.3,1.75a20.8,20.8,0,0,1-2,1,1,1,0,0,1-.41-.27c-.44-.45-.66-.14-.54.77.21,1.64.28,2,.45,2s.25-.18.33-.4Zm1.69,6.95a2.08,2.08,0,0,1-1.78-2.35c.22-1.18,1-1.56,3.25-1.56a5.57,5.57,0,0,1,2.38.29,2,2,0,0,1-.57,3.6,9.25,9.25,0,0,1-3.28,0Zm3.8,1.18a3.22,3.22,0,0,0,1.61-3.26,17,17,0,0,1,.05-3.72c.18-1.35-.06-1.45-.5-.2a2.42,2.42,0,0,1-.55,1,1.46,1.46,0,0,1-.81-.21,6.2,6.2,0,0,0-3.44-.28,4.42,4.42,0,0,0-2.55,2.43,3.64,3.64,0,0,0,1.86,4.23,5.7,5.7,0,0,0,4.33,0Z" fill="#e6a300"/><path d="M235.64,253.36a2.25,2.25,0,0,1-.48-.73,1.59,1.59,0,0,0-.11-.43c-.11-.28.4-.63,1.5-1,.71-.27,1.2.31,1.2,1.45s-.23,1.33-1,1.33a1.26,1.26,0,0,1-1.07-.57Zm2.18,2.06a1.9,1.9,0,0,0,1.07-1.91c0-1.14-1.79-5.32-2.24-5.32-.08,0-.22.27-.31.6-.15.55-.41.73-2.65,1.85-2.46,1.24-3.25,1.46-3.67,1s-.42.45.15,1.69,1,1.65,1.13.79c0-.41.28-.62,1.17-1.1a7.54,7.54,0,0,1,1.33-.61c.13,0,.49.5.82,1.12,1,1.81,1.89,2.34,3.2,1.85Zm.34,9c.83-.14.94-.59.19-.77-1.19-.27-2.64-1.66-2.64-2.5,0-.21.85-.84,2.45-1.82,2.34-1.43,2.49-1.5,3.27-1.39s.8.09.68-.22a12.86,12.86,0,0,0-1.82-2.64c-.07,0-.14.24-.14.54,0,.49-.19.67-1.8,1.73-3.09,2-3.56,2.25-3.95,2s-.92-.28-.77.11a49.28,49.28,0,0,0,3.07,5.08.74.74,0,0,0,.49.06l1-.19Zm4.65,2.58c-.18-.28-.24-.54-.14-.63a4.2,4.2,0,0,1,1.65-.53,3.92,3.92,0,0,1-1,1.63c-.09,0-.31-.21-.48-.47Zm.12,5.06c0-.4.59-1.55,1.94-3.78,1.07-1.77,1.95-3.28,1.95-3.38,0-.43-.57-.63-1.26-.44l-1.7.48c-.56.15-1.88.54-2.92.87a6,6,0,0,1-2.41.46c-.64-.16-.67-.16-.74.05s1.62,2.28,1.82,2.16.13-.3.07-.54c-.12-.48.34-.9,1.24-1.12.4-.1.57,0,1.06.58.7.86.75,1.58.15,2.19a1,1,0,0,1-.93.34c-.27-.06-.49,0-.49,0,0,.46,1.82,2.91,2.06,2.77a1.05,1.05,0,0,0,.16-.67Zm6.43,5.28c.86-.54.36-.94-.78-.62a1.61,1.61,0,0,1-1.47-.1,2.08,2.08,0,0,1-1.22-1.89c0-1,1.7-3.09,3.13-3.83.7-.36.83-.36,1.63,0a2.88,2.88,0,0,1,1.34,2.52c0,.83.27.89.65.15s.37-1.42.09-1.59a4.33,4.33,0,0,1-.63-.82,4.12,4.12,0,0,0-2.86-1.68c-2.25,0-4.81,2.81-4.6,5S247.55,278.45,249.36,277.31Zm2.12,4.13c-.07-.57.18-.91,2.59-3.42,1.52-1.59,1.69-1.71,2.19-1.6.86.19.69-.28-.55-1.46s-1.58-1.31-1.42-.43c.11.58,0,.74-1.93,2.85s-2.06,2.23-2.68,2.14c-.91-.12-.83.2.37,1.49,1,1.13,1.53,1.28,1.43.43Zm5.91,4.4c-.93-.4-1.69-1-1.69-1.35,0-.53,3.47-5,3.88-5a2.6,2.6,0,0,1,1.11.71c.67.64.75.8.75,1.6a4.88,4.88,0,0,1-1.8,3.28c-.94.91-1.48,1.1-2.25.78Zm2.73.76a5,5,0,0,0,2.39-2.67,2.18,2.18,0,0,0,.24-1.93,4.43,4.43,0,0,0-.86-1.72c-.81-1-3.53-3-4-3-.3,0-.33.05-.16.22.56.56,0,1.64-1.91,3.86-.4.47-.91,1.09-1.13,1.39a1.13,1.13,0,0,1-1,.56c-.34,0-.64.1-.68.21s.46.59,1.09,1.09,1.41,1.16,1.73,1.47a2.63,2.63,0,0,0,2.37,1,3.91,3.91,0,0,0,2-.45Zm4.19.79a3.13,3.13,0,0,1-.45-.27c-.15-.12.6-.8.88-.8a1.2,1.2,0,0,0,.62-.31c.46-.42.59-.22.26.42a6,6,0,0,0-.37.86c-.11.37-.41.4-.94.1Zm2.18,5.29c.06-.07,0-.28-.07-.47a19,19,0,0,1,.71-5.83,2.64,2.64,0,0,0,.29-1.5c0-1.68-.2-1.69-2.12,0a15.5,15.5,0,0,1-1.91,1.48,8.18,8.18,0,0,0-1.44,1.07c-1,.87-1.55,1.2-1.93,1.13-.95-.17-.6.36.75,1.13a2.65,2.65,0,0,0,1.07.44c.07,0,.09-.34,0-.65s0-.66.41-1.1c.64-.66.81-.67,1.76-.07s1,.79.79,1.7c-.13.56-.28.73-.76.87-.33.1-.6.23-.6.29a18.35,18.35,0,0,0,2.79,1.66.44.44,0,0,0,.23-.11Zm10.12,3.44a1.43,1.43,0,0,0-.23-.55c-.25-.41-.18-.64,1.19-4.18.55-1.42.84-1.93,1.18-2.08.71-.33.36-.69-1-1.06l-1.23-.33-.57.7a20.46,20.46,0,0,1-2.62,3c-.16.05-.19-.59-.12-2.4l.1-2.46-1-.51a9.44,9.44,0,0,0-1.16-.5c-.29,0-.6.65-.44.94a5,5,0,0,1-.49,2.13c-.35,1-.78,2.25-1,2.75a2.08,2.08,0,0,1-.83,1.2c-.73.41-.56.76.55,1.14s1.36.22,1-.45c-.18-.33-.12-.69.33-2a15.53,15.53,0,0,1,1.2-3.1,15.51,15.51,0,0,1,0,3c-.12,2.87-.1,3.17.19,3.41s.22.47,2.71-2.72c1.51-1.93,2-2.44,1.76-1.79-.08.19-.34,1-.58,1.88-.55,1.87-.94,2.65-1.4,2.77a.39.39,0,0,0-.12.74c.73.47,2.54.77,2.54.42Z" fill="#e6a300"/><path d="M290.34,67.18c-.54-.05-1.37.09-1.15.85-.18,1,1.23,1.52,1.25,2.28-.93,1.1-1.07,3-2.62,3.46-.93.72-1.44-1.25-2.42-1-.6.66-1.09,1.46-1.63,2.17,0,1.66-1.87,2.39-3,3.29-2.18,1.48-4.54,2.84-6,5.08-1,1.4-2.49,2.52-3.1,4.15.29,1.82,1.78,3.18,2.84,4.6A39.54,39.54,0,0,0,284,100.5c1,.83,2.42,1.34,3.19,2.43.09.93-1.28,1.15-2,1-2.35-.79-4.93-1.24-7.27-.14-1.1.66-2.22-.49-3.4-.48-1.69-.24-3.93-.25-5,1.33-.38.91-.47,2.12.51,2.68,1.63,1.37,4,1.24,6,1.16a11.13,11.13,0,0,0,4.1-1.42c1.72.16,3.1,1.73,4.94,1.43,1.64.22,3.06-.93,4.52-1.25a9.39,9.39,0,0,0,5.41,1.2c1.23-.07,2.31-.93,3.46-1.08,2.37,1.07,5.21,1.76,7.65.49,1.27-.84,2.57.32,3.89.48,2,.63,4.08-.12,6-.85a6.29,6.29,0,0,0,5.16.76c1.44-.63,2.24-2.78.87-3.85-2.57-1.76-6-1.32-8.75-.43-1.4.73-2.62-.83-4.07-.68a14,14,0,0,0-5.74.65,1.31,1.31,0,0,1-1.84-1.15c0-2-1.37-3.49-2.2-5.18-1.12-1.32-3-1.48-4.34-2.56-.74-.44-1.44-1.2-2.08-1.54-.82,1.27-2.56.71-3.48-.14s-2.05-1.21-2.9-2.1c-.65-.6-1.91-.41-2.11-1.48-.37-.91-1.59-1.06-1.92-1.93.39-1.14,1.57-1.87,2.29-2.8,1.19-1.31,2.48-2.58,3.68-3.89.73-.39,1.69,0,2.31-.71.61-.41,1.73-1.11,1-1.94s.31-1.78,1.17-1.75c1.25,0,2.88-.51,3.8.63.62.62,1.26-.31,1.46-.85.82-.49,1.57.62,2.25.95,7.13,5.52,14,11.44,20.55,17.6,2.43,2.5,4.62,5.22,6.95,7.82,2.43,2.84,4.72,5.79,6.91,8.81a39.47,39.47,0,0,0-4.31-8.77c-1.86-2.45-3.72-4.9-5.63-7.3a169.3,169.3,0,0,0-22-20.11c-.76-.73-1.93-1.26-2.33-2.26,0-.86,1.29-1.88.23-2.53-.67-.23-1.56.26-2.11-.44-1.61-1.43-3.31-3.25-5.66-3-1,0-1.92-.07-2.88-.06Z" fill="#e6a300"/><path d="M334.3,111.28a126.21,126.21,0,0,0-10-12.28,15.63,15.63,0,0,1-1.7-2c0-.7-14.88-13.78-20.81-18.29-3.18-2.42-3.43-2.54-3.43-1.68,0,.46-.82,1-1.3.81a1.55,1.55,0,0,1-.68-.56c-.28-.42-.37-.44-2.09-.39s-1.82.09-2.16.55-.37.49.06,1A1,1,0,0,1,292,80a6.79,6.79,0,0,0-1,.77,1.3,1.3,0,0,1-1.34.44c-.73-.12-1,.05-1.85,1.36a3.53,3.53,0,0,1-.87.78,4.58,4.58,0,0,0-1.16,1.25,10.33,10.33,0,0,1-1.7,1.8c-1.13.93-1.4,1.51-.79,1.72a3.15,3.15,0,0,1,1.72,1.64c.19.59.29.66.88.66s.79.14,1.42.84a2.36,2.36,0,0,0,1.15.84,2.14,2.14,0,0,1,1,.67c1.19,1.26,2.58,1.55,3.26.69l.41-.51,1.07,1a14.93,14.93,0,0,0,4.44,2.49c.74.26,1.18.81,1.94,2.45a13.85,13.85,0,0,0,.88,1.58,2.6,2.6,0,0,1,.48,1.77c0,1,0,1.1.53,1.35s.64.24,1.91-.22a8.4,8.4,0,0,1,3.43-.5,6.54,6.54,0,0,1,3.34.53l1.28.53,1.68-.52a16.52,16.52,0,0,1,3-.6c2.41-.18,5.05.7,5.79,1.91.94,1.56-.21,3.59-2.29,4a4.9,4.9,0,0,1-3.48-.53c-.89-.46-1-.48-1.59-.26-2.12.86-3,1-4.53.81a13.47,13.47,0,0,1-2.61-.64l-1.1-.45-1.2.54a8.4,8.4,0,0,1-2.15.64,11,11,0,0,1-4.48-.87c-1-.48-.94-.48-2.36.16a6.88,6.88,0,0,1-6.31-.18l-1.2-.56-1.17.58a6.07,6.07,0,0,1-6.36,0,10.1,10.1,0,0,0-1.62-.73,2.92,2.92,0,0,0-.85.44,7.94,7.94,0,0,1-4.75,1.13c-2.42,0-4.13-.46-5.09-1.41a2.4,2.4,0,0,1,.17-3.6,6,6,0,0,1,3.23-1,11.35,11.35,0,0,1,3.62.82c.48.25.6.23,1.53-.23a5.12,5.12,0,0,1,3-.5,6.38,6.38,0,0,1,3.19.51c1.2.49,1.25.5,2,.2.42-.17.77-.39.77-.51a3.16,3.16,0,0,0-1.06-.85c-3.39-2.1-7.15-4.75-7.15-5a10.25,10.25,0,0,0-1.33-1.28c-2.28-2-6-6.71-6.22-7.91-.16-.84.05-1.27,1.35-2.69.63-.69,1.69-2,2.34-2.84a8.93,8.93,0,0,1,2.63-2.52l3-1.92c2.27-1.47,2.82-2,2.77-2.76a.87.87,0,0,1,.38-.9,3.42,3.42,0,0,0,.79-1.08c.52-1.07,1-1.14,1.95-.25l.69.67.76-.3c.62-.25.8-.43,1-1a5.76,5.76,0,0,1,.68-1.39,5.08,5.08,0,0,0,.46-.78,3.22,3.22,0,0,0-.58-.6c-.76-.69-1-2-.38-2.53.31-.27.55-.32,1.19-.22a9.47,9.47,0,0,0,1.45.1c2.91-.09,2.85-.1,4.1.56a11.89,11.89,0,0,1,2.48,1.91c1.23,1.24,1.27,1.26,1.71,1s.88-.21,1.48.46c.35.38.35.4-.14,1.34a5.08,5.08,0,0,0-.49,1.19c0,.13.31.44.7.7.94.63,6.21,4.81,8.62,6.85,2.06,1.74,4.09,3.6,8.65,7.92,2.94,2.79,7.7,7.88,7.62,8.16a45,45,0,0,0,3.71,4.81c1.55,1.86,4.81,8.25,5,9.87.11.79-.32.61-1-.41Zm-1.5-3.9a42.18,42.18,0,0,0-5.33-7.8A24.62,24.62,0,0,1,325.56,97c-.45-1.19-7.74-8.38-14.07-13.88-1.84-1.6-3-2.56-7.45-6.15-.72-.58-1.89-1.45-2.61-1.94l-1.3-.88-.43.5a1.35,1.35,0,0,0-.38.81,23.35,23.35,0,0,0,3,2.61c4.3,3.34,7.18,5.76,13.68,11.5A93.94,93.94,0,0,1,323.69,97a18.83,18.83,0,0,0,1.72,2,95.14,95.14,0,0,1,6.74,8,8.35,8.35,0,0,0,1.21,1.55,4.59,4.59,0,0,0-.56-1.26Zm-56.07.53c1.26-.29,2.69-1,2.69-1.42s-2.34-1.94-3.64-2.46a7.77,7.77,0,0,0-4.69-.1c-1.41.64-1.88,2-1,2.85,1.17,1.18,4.23,1.7,6.63,1.13Zm18.73.07a.52.52,0,0,1,.43-.19,2.83,2.83,0,0,0,1-.39l.64-.4-.74-.65c-.4-.35-1-.87-1.29-1.16a9.26,9.26,0,0,0-1.5-1,8.93,8.93,0,0,0-5.78-.32c-.61.2-1.14.48-1.17.62-.05.29,3,2.38,4.32,3a12.77,12.77,0,0,0,3.69.71.54.54,0,0,0,.44-.16Zm18.69-.37c.44-.2.79-.44.79-.53,0-.34-3.06-2.53-4.17-3a8.62,8.62,0,0,0-5.34-.26c-.56.2-1,.48-1.07.62s2.07,1.87,3.31,2.51c2,1,5,1.34,6.48.65Zm-18.6-4.12c0-.36,2.1-.77,3.6-.71s1.52.06,1.69-.42.17-.58-1.26-3.17a8.51,8.51,0,0,0-.93-1.45,21.62,21.62,0,0,0-2-1.1c-1-.5-2-1-2.26-1.23l-.51-.34.11.81a2.09,2.09,0,0,1-.19,1.37,2.77,2.77,0,0,0-.29,1,6.8,6.8,0,0,1-.28,1.4c-.48,1.58-.3,3.43.33,3.43a3,3,0,0,1,.88.35c.63.33,1.12.34,1.12,0Zm-4.29-1.08c0-.31-.76-1.12-1.43-1.54s-.55-.7.32-.26c.32.17.63.27.68.21a2.37,2.37,0,0,0-.5-.95c-1-1.4-1.28-2.31-1.15-3.27l.13-.84.24.6a1.28,1.28,0,0,1,.15.77c-.25.4,1.85,2.64,2.47,2.64s1.28-3.24,1-4.14c-.16-.56-.24-.62-1-.66-1.56-.09-2.07-.25-2.78-.9a5.85,5.85,0,0,0-1.38-.91,3.54,3.54,0,0,1-1.16-.94c-.54-.71-1-.83-1.15-.35-.08.21,0,.43.38.67.71.52.93,1,.68,1.45s-.7.48-1.26.08-.56-.9,0-.73.46-.39-.23-1.11a5.21,5.21,0,0,1-.95-1.59,2.28,2.28,0,0,0-.93-1.32c-1.1-.67-1.45-.28-.59.65.39.42.43.57.25.79s-.27.22-.58-.08a6.61,6.61,0,0,1-.63-3.45,2.94,2.94,0,0,1,1-1.08,6.59,6.59,0,0,0,2.3-2.27,8,8,0,0,0,.55-1,1.47,1.47,0,0,0-.66,0c-.42.07-.65,0-.65-.1a.23.23,0,0,1,.24-.21,3.8,3.8,0,0,0,1.08-.53,2.27,2.27,0,0,1,1.05-.45c.24.07,1.34-1,1.35-1.36a3.35,3.35,0,0,0-.81-1l-.82-.81-.53.39c-.42.3-.91.4-2.31.47-1,0-1.52,0-1.21,0a7.14,7.14,0,0,0,2.85-.92l.66-.45-1.54-1.54-1.13.93a31.69,31.69,0,0,1-3.35,2.26c-2.51,1.49-3.3,2.19-4.47,3.93a20.19,20.19,0,0,1-1.88,2.33c-1.27,1.32-1.46,1.78-1,2.48a43.08,43.08,0,0,0,5,6.07l2.59,2.43a47.53,47.53,0,0,0,6.43,4.4l1.12.62-.85-.83a15.08,15.08,0,0,1-1.61-1.94,17.56,17.56,0,0,0-1.53-1.9c-.83-.85-.73-1,.54-.61.53.15.93.56,2,2a12.67,12.67,0,0,0,3.39,3.55c.66.39,1.68.53,1.68.23Zm-12-11.53c-.28-.28-.09-1.33.38-2,.58-.86.81-.62.27.28a1.07,1.07,0,0,0-.2,1.06c.24.61-.06,1.06-.45.67Zm-.87-1.81c0-.91,1.36-2,2.47-2,.31,0,.23.08-.29.26-.91.33-1.43.8-1.43,1.31s-.32.85-.6.85c-.08,0-.15-.2-.15-.45Zm9.7,13s-.08-.13-.19-.19-.18,0-.18.08a.19.19,0,0,0,.18.2C288,102.2,288.09,102.16,288.09,102.11ZM290.6,80c.19-.27.22-.44.09-.49s-.92.5-.92.75.54.15.83-.26ZM290,78.89a.63.63,0,0,0,.47-.65c0-.68-.65-.63-1,.08s-.35.91.55.57Zm-1.39-.61a3.14,3.14,0,0,0,.37-.75c0-.29-.51-.11-.93.33s-.39.5-.19.74.33.38.75-.32ZM288,77.1a.76.76,0,0,0,.09-1.11c-.26-.17-.48.07-.64.71s0,.61.55.4Zm3.86-.76c.29-.48.47-.61.7-.5a8.37,8.37,0,0,0,1.73.21c1.38.06,1.44,0,2.11-.53a5.48,5.48,0,0,0,1-1.14c.25-.49.24-.61-.1-1.37-.2-.46-.44-.84-.54-.84-.32,0-.62.54-.59,1.07.06.83,0,.91-.45,1.13s-.55.13-1.06-.25a2.37,2.37,0,0,0-2.33-.26l-.5.19.12-.87c.13-1-.14-2.23-.52-2.37-.55-.21-1.6,1.48-1.6,2.57,0,.59,0,.66-.52.66-1.32,0-1.21.48.49,2.1,1.24,1.19,1.47,1.21,2.1.2Zm6,0A10.51,10.51,0,0,1,299.22,74c1.49-2,1.8-2.52,1.64-2.77s-.45-.18-.8.61a4,4,0,0,1-.78,1.16l-.42.38.13-.78c.17-1-.15-1.62-1.51-3a9,9,0,0,0-3.93-2.22c-.49-.08-.7,0-1.15.45a3.18,3.18,0,0,1-.65.55,2.34,2.34,0,0,1-.57-.46c-.52-.53-1.31-.62-1.48-.18a2,2,0,0,0,.58,1.45c.44.24,1.17.29,1.34.08,1.09-1.38,1.28-1.52,1.93-1.5a7.06,7.06,0,0,1,3.8,2.2c1.33,1.28,1.56,1.88,1.11,2.82a3.74,3.74,0,0,0-.31,1.15,4,4,0,0,1-.64,1.5c-.63,1-.68,1.59-.13,1.48.17,0,.35-.32.42-.64Zm-11.11,0c.34-.67.1-.88-.48-.42-.27.22-.38.46-.3.66.18.46.46.37.78-.24ZM285,74.87a.94.94,0,0,0,0-.57c-.17-.17-.94.61-.81.83.23.37.66.23.78-.26Zm1.36,0c.28-.2.36-.37.24-.49s-.52-.07-.78.42,0,.47.54.07Zm9.23-2.39a3.18,3.18,0,0,1,.84-1.06c.44-.32.53-.48.37-.67-.34-.4-.8-.28-1.41.36-.83.88-1.07,1.41-.79,1.74s.71.31,1-.37Zm2.35-.3c0-.2-.12-.37-.28-.37s-.32,0-.16.45.44.37.44-.08Zm-3.18-1.07c.85-1,.95-1.45.35-1.64-.34-.11-.55,0-1.12.66a2.28,2.28,0,0,0-.71,1.33c0,.82.59.68,1.48-.35Zm-1.4-1c.56-.73.6-1.1.18-1.45-.27-.22-.39-.15-.93.49-.77.91-.84,1.58-.18,1.58a1.28,1.28,0,0,0,.93-.62Z" fill="#1f2c5c"/><path d="M315.85,103.45c-1.23.29-2.61,1-2.61,1.39s2.26,1.87,3.52,2.37a7.47,7.47,0,0,0,4.55.1c1.37-.61,1.82-1.9,1-2.76-1.13-1.14-4.1-1.64-6.42-1.1Zm-17.81,0a.55.55,0,0,1-.42.18,2.53,2.53,0,0,0-.93.38l-.63.38.72.63,1.26,1.12a8.53,8.53,0,0,0,1.44,1,8.67,8.67,0,0,0,5.6.3c.6-.19,1.11-.46,1.13-.59.06-.29-2.88-2.31-4.17-2.88a12.29,12.29,0,0,0-3.59-.69.48.48,0,0,0-.41.16Zm-19.2.3c-.42.19-.77.42-.77.51,0,.33,3,2.46,4.05,2.9a8.37,8.37,0,0,0,5.17.25c.54-.19,1-.46,1-.6s-2-1.81-3.21-2.43c-2-1-4.81-1.3-6.28-.63Z" fill="#1f2c5c"/><path d="M224.3,158.19a3.89,3.89,0,0,1-.77-1,6.87,6.87,0,0,1-.23-2.78,3.91,3.91,0,0,1,1.61-.28l1.48-.06.05,1.14c.05,1,0,1.2-.32,1.47a1.15,1.15,0,0,0-.38.47c0,.17,1,.18,1.84,0l.6-.12-.41-.31a2,2,0,0,1-.57-1.2c-.25-1.3-.13-1.51.93-1.66s1.63,0,1.78.58a4.3,4.3,0,0,1-.47,2.8c-.56.8-.34,1,.55.58s.81-.28.53-3.58a11.3,11.3,0,0,0-.34-2.37c-.1-.09-.35,0-.6.12a11.85,11.85,0,0,1-3.35.49l-2.92.22-.9-.85.12,2.48c.17,3.45.24,3.7,1,4.09a2.87,2.87,0,0,0,1,.32c.31,0,.28-.08-.25-.57Zm6.23,8c0-1.2-.2-1.48-.55-.81-.18.33-.39.37-2.22.37a7.08,7.08,0,0,1-2-.15,15.49,15.49,0,0,1,2.38-1.58,13.7,13.7,0,0,0,2.49-1.71,7.09,7.09,0,0,0,0-2.64c-.07,0-.24.17-.37.37s-.43.37-3.35.37-3.14,0-3.49-.4c-.21-.22-.43-.35-.5-.28a4,4,0,0,0-.2,1.23c-.08,1.18.18,1.48.65.74.21-.34.43-.37,2.88-.37a13,13,0,0,1,2.75.15c.05.08-.17.35-.49.6a26.67,26.67,0,0,1-3.18,2,12.44,12.44,0,0,0-1.38.82c-1.28.83-1.62,1.4-1,1.64a27.7,27.7,0,0,0,3.42.12c3.08,0,3.14,0,3.53.44.22.25.46.41.54.36a3.6,3.6,0,0,0,.14-1.28Zm-5.26,8.37a8.62,8.62,0,0,0,1.34-2.16c.93-2,1.41-2.6,1.95-2.6,1.23,0,1.11,2.45-.19,3.88-.36.4-.6.78-.54.85a2.18,2.18,0,0,0,1-.16c.77-.24.87-.33.89-.81a7.12,7.12,0,0,1,.23-1.28c.48-1.69.09-3.43-.84-3.79a2.71,2.71,0,0,0-2.16.27,10.57,10.57,0,0,0-1.84,3.33c-.41,1-.81,1.39-1.41,1.39-.77,0-1.09-.44-1.09-1.49a3.61,3.61,0,0,1,1.18-2.81c.8-.8.85-1.1.16-.92-1.43.35-1.43.35-1.45.9a6.56,6.56,0,0,1-.32,1.42,4.37,4.37,0,0,0,0,3.07,2.09,2.09,0,0,0,3.12.91Zm2.62,8.38c.32-.09.42-.32.58-1.33.11-.68.34-2,.5-2.94a7.42,7.42,0,0,0,.2-1.83c-.06-.06-.26,0-.45.2-.38.34-1.39.3-4.42-.18-2.13-.34-2.22-.38-2.35-.92-.27-1.06-.47-.48-1.18,3.51-.38,2.11-.33,2.32.76,2.87.93.48,1.12.34.47-.34a2.69,2.69,0,0,1-.6-1.09,4.07,4.07,0,0,1,.44-2.61c.29-.34.4-.35,1.6-.14l1.29.21v.74c0,1.17-.24,1.75-.74,2s-.31.45,1,.62c1,.13,1.19,0,.64-.39-.34-.24-.41-1.22-.16-2.21.12-.48.16-.5,1.11-.4,1.47.15,1.76.37,1.76,1.3a3.65,3.65,0,0,1-1.32,2.48c-.68.49-.17.76.89.48Zm-4,9.16a2.11,2.11,0,0,1-.31-1.38v-1h.88a6.2,6.2,0,0,1,1.31.12c.4.1.43.19.35,1a2.69,2.69,0,0,1-.42,1.26,1.36,1.36,0,0,1-1.81,0Zm2,1.37a3.87,3.87,0,0,0,.75-1.52,23.72,23.72,0,0,0,.7-4.43c-.06-.06-.31.06-.54.28-.54.51-.93.5-4,0-2-.36-2.54-.52-2.81-.86-.49-.6-.69-.27-.82,1.32l-.11,1.36.4-.35c.37-.33.52-.35,1.8-.16a5.46,5.46,0,0,1,1.53.36,4,4,0,0,1,0,1.49,2.83,2.83,0,0,0,.16,2,1.73,1.73,0,0,0,3,.53Zm-.47,7.83a38.82,38.82,0,0,0,.63-6c-.08-.2-.2-.16-.56.2a1,1,0,0,1-.88.37c-.23-.05-1.5-.18-2.82-.29-2.83-.24-3-.27-3.13-.74-.06-.2-.17-.36-.25-.36a50.14,50.14,0,0,0-.76,5.92c0,.33,1.12,1.08,1.61,1.08.25,0,.23-.07-.09-.42a3.84,3.84,0,0,1-.66-3.08l.17-1,1.46,0a3.43,3.43,0,0,1,1.61.28,2.3,2.3,0,0,1,0,1.05,1.81,1.81,0,0,1-.67,1.31c-.63.56-.59.59,1,.81.9.13,1.11,0,.6-.47a3.22,3.22,0,0,1-.05-2.53,3.32,3.32,0,0,1,2.36.34c.37.58,0,2.08-.67,2.91a2,2,0,0,0-.45.81c0,.24.11.25.69.1a3,3,0,0,0,.82-.31Zm-.1,8.39c.15-.17.16-.77,0-2.25a20.56,20.56,0,0,1-.07-3l.1-1-.9-.32a8.47,8.47,0,0,0-1-.32c-.26,0-.07.45.44,1a1.8,1.8,0,0,1,.55,1.26c0,.78,0,.77-3.38.89-2.51.09-2.56.08-3-.36a2.25,2.25,0,0,0-.53-.44,8.07,8.07,0,0,0-.08,1.56,5.14,5.14,0,0,0,.12,1.57,1.84,1.84,0,0,0,.54-.47l.43-.46,6,.1,0,.7a2.66,2.66,0,0,1-.49,1.36c-.27.37-.44.74-.39.82s1.35-.3,1.67-.63Zm-5.78,5.12,1.61-.29c.66-.11,1.81-.32,2.57-.47,1.32-.27,1.38-.26,1.88.1.66.49.7.48.7-.17,0-1.34-.64-3.13-.88-2.43-.15.48-.62.74-1.55.86-.53.06-1.26.19-1.62.27s-1.24.25-2,.38c-1.31.23-1.34.23-1.81-.21l-.48-.44.13,1c.07.56.21,1.34.31,1.75l.19.73.26-.5a1.25,1.25,0,0,1,.67-.59Zm7.95,7.75.72-.61-.7-2.47c-.39-1.36-.73-2.67-.76-2.91-.07-.6-.22-.7-1.3-.84s-1.42.13-.43.64,1.52,1.51,1.09,1.91a31.13,31.13,0,0,1-5.6,1.77,1,1,0,0,1-.65-.28c-.64-.77-.67.12-.07,2,.33,1,.51,1.09.78.34.16-.47.37-.6,1.62-1a16.84,16.84,0,0,1,4.56-1c.4.15.36,1.14-.07,2-.56,1.18-.28,1.32.81.4Z" fill="#e6a300"/></svg>