<svg xmlns="http://www.w3.org/2000/svg" width="606.49" height="400" viewBox="0 0 606.49 400"><title>flag-alaska-thumb</title><rect width="606.49" height="400" fill="#0f204b"/><polygon points="490.8 75.25 503.02 66.37 487.91 66.37 483.24 52 478.57 66.37 463.46 66.37 475.69 75.25 471.02 89.63 483.24 80.75 495.47 89.63 490.8 75.25" fill="#ffb612"/><polygon points="114.43 154.57 111.64 146 108.86 154.57 99.85 154.57 107.14 159.86 104.36 168.43 111.64 163.14 118.93 168.43 116.15 159.86 123.44 154.57 114.43 154.57" fill="#ffb612"/><polygon points="181.23 179.37 178.44 170.8 175.66 179.37 166.65 179.37 173.94 184.66 171.16 193.23 178.44 187.94 185.73 193.23 182.95 184.66 190.24 179.37 181.23 179.37" fill="#ffb612"/><polygon points="214.43 214.97 211.64 206.4 208.86 214.97 199.85 214.97 207.14 220.26 204.35 228.83 211.64 223.54 218.93 228.83 216.15 220.26 223.44 214.97 214.43 214.97" fill="#ffb612"/><polygon points="245.24 243.6 242.46 252.17 233.45 252.17 240.74 257.46 237.96 266.03 245.24 260.74 252.53 266.03 249.75 257.46 257.04 252.17 248.03 252.17 245.24 243.6" fill="#ffb612"/><polygon points="349.75 293.06 357.04 287.77 348.03 287.77 345.24 279.2 342.46 287.77 333.45 287.77 340.74 293.06 337.95 301.63 345.24 296.34 352.53 301.63 349.75 293.06" fill="#ffb612"/><polygon points="243.63 304.57 240.84 296 238.06 304.57 229.05 304.57 236.34 309.86 233.56 318.43 240.84 313.14 248.13 318.43 245.35 309.86 252.64 304.57 243.63 304.57" fill="#ffb612"/><polygon points="318.83 329.37 316.04 320.8 313.26 329.37 304.25 329.37 311.54 334.66 308.75 343.23 316.04 337.94 323.33 343.23 320.55 334.66 327.84 329.37 318.83 329.37" fill="#ffb612"/></svg>