<?xml version="1.0" encoding="UTF-8"?>
<svg xmlns="http://www.w3.org/2000/svg" width="600" height="378" viewBox="0 0 600 378">
  <g id="dimensions">
    <polyline points="19.33 1.47 3.23 1.47 3.23 159.17" fill="none" stroke="#a3a3a3" stroke-dasharray="0 0 5 5" stroke-linecap="round" stroke-linejoin="round"/>
    <polyline points="17.5 345.36 3.23 345.36 3.23 190.77" fill="none" stroke="#a3a3a3" stroke-dasharray="0 0 5 5" stroke-linecap="round" stroke-linejoin="round"/>
    <path d="M4.38,176.23c1.1.4,1.82,1.47,1.82,2.73,0,1.65-1.23,3.09-3.26,3.09-1.06,0-2.07-.42-2.78-1.21l.89-1.07c.15.15.08.32.22.48.08.08.67.72,1.66.72,1.24,0,2.13-1,2.13-2.16,0-1.26-1.05-2.01-2.49-2.01-.18,0-.36.01-.54.04v-.95c1,0,1.49-.19,1.67-.27.73-.32,1.13-1.02,1.13-1.67,0-.89-.75-1.65-1.84-1.65-.66,0-1.33.28-1.83.81l-.66-.73c.67-.73,1.59-1.13,2.54-1.13,1.68,0,2.91,1.24,2.91,2.68,0,1.03-.63,1.94-1.58,2.29Z" stroke-width="0"/>
    <path d="M315.57,362.68v1.07h-4.37l-.16,3.05c.55-.27,1.14-.41,1.73-.41,1.77,0,3.2,1.26,3.2,3.53s-1.51,3.54-3.35,3.54c-1.26,0-2.44-.59-3.14-1.63l1.06-.79c.15.1.06.27.13.4.06.11.8.98,1.94.98s2.14-.89,2.14-2.52-1.05-2.53-2.17-2.53c-.72,0-1.47.36-1.98,1l-.76-.31.37-5.38h5.37Z" stroke-width="0"/>
    <polyline points="25.48 354.17 25.48 369.19 299.19 369.19" fill="none" stroke="#a3a3a3" stroke-dasharray="0 0 5 5" stroke-linecap="round" stroke-linejoin="round"/>
    <polyline points="598.15 354.17 598.15 369.19 326.82 369.19" fill="none" stroke="#a3a3a3" stroke-dasharray="0 0 5 5" stroke-linecap="round" stroke-linejoin="round"/>
  </g>
  <g id="Layer_3" data-name="Layer 3">
    <g>
      <rect x="25.48" y="1.5" width="573.02" height="343.81" fill="#fff" stroke="#50d6cc" stroke-linecap="round" stroke-linejoin="round"/>
      <polyline points="598.5 140.33 541.2 107.24 512.55 123.79 426.59 74.16 397.96 90.7 311.99 41.07 226.02 90.7 197.38 74.16 111.43 123.79 82.78 107.24 25.48 140.33" fill="none" stroke="#50d6cc" stroke-linecap="round" stroke-linejoin="round"/>
      <polygon points="411.23 230.71 411.23 116.1 311.99 58.8 212.73 116.1 212.73 230.71 311.99 288.01 411.23 230.71" fill="none" stroke="#50d6cc" stroke-linecap="round" stroke-linejoin="round"/>
      <path d="M311.99,69.2l-90.25,52.11v104.21l90.25,52.11,90.25-52.11v-104.21s-90.25-52.11-90.25-52.11ZM397.94,223.04l-85.95,49.63-85.95-49.63v-99.24l85.95-49.63,85.95,49.63v99.24Z" fill="#50d6cc" stroke-width="0"/>
      <path d="M343.08,121.77h-62.13c-1.19,0-1.8-1.46-.94-2.29,9.04-8.66,19.99-14.29,31.96-14.29s23.03,5.63,32.03,14.29c.86.83.27,2.29-.94,2.29h.02Z" fill="none" stroke="#50d6cc" stroke-linecap="round" stroke-linejoin="round"/>
      <path d="M357.29,143.99h-90.6c-1.78,0-2.93-1.89-2.12-3.47,1.77-3.41,3.74-6.7,5.92-9.82,1.45-2.07,3.8-3.29,6.34-3.29h70.35c2.53,0,4.9,1.24,6.34,3.31,2.16,3.12,4.14,6.4,5.89,9.81.81,1.58-.33,3.47-2.12,3.47h0Z" fill="none" stroke="#50d6cc" stroke-linecap="round" stroke-linejoin="round"/>
      <path d="M365.49,166.2h-107c-1.56,0-2.69-1.46-2.31-2.96.91-3.5,1.83-6.81,2.8-9.73.76-2.32,2.94-3.9,5.41-3.9h95.2c2.45,0,4.63,1.58,5.41,3.9.97,2.91,1.91,6.22,2.8,9.73.38,1.5-.76,2.96-2.31,2.96h-.02Z" fill="none" stroke="#50d6cc" stroke-linecap="round" stroke-linejoin="round"/>
      <path d="M370.31,188.42h-116.63c-1.5,0-2.61-1.35-2.34-2.82.57-3.01,1.18-6.13,1.83-9.25.56-2.63,2.88-4.52,5.57-4.52h106.5c2.71,0,5.03,1.89,5.57,4.52.65,3.12,1.26,6.22,1.83,9.25.27,1.46-.84,2.82-2.34,2.82h0Z" fill="none" stroke="#50d6cc" stroke-linecap="round" stroke-linejoin="round"/>
      <path d="M323.08,210.62c-1.32,0-2.39-1.07-2.39-2.37h0c0-2.4-.97-4.57-2.55-6.14s-3.76-2.55-6.16-2.55c-4.81,0-8.71,3.88-8.71,8.67h0c0,1.31-1.07,2.37-2.39,2.37h-50.98c-1.46,0-2.58-1.29-2.36-2.72.32-2.09.81-5.25,1.45-9.1.46-2.74,2.83-4.74,5.62-4.74h114.75c2.79,0,5.16,2.01,5.62,4.74.64,3.85,1.13,7.02,1.45,9.1.22,1.43-.89,2.72-2.36,2.72h-50.98l-.02.02Z" fill="none" stroke="#50d6cc" stroke-linecap="round" stroke-linejoin="round"/>
      <polyline points="25.48 239.57 197.38 239.57 311.99 305.74 426.59 239.57 598.5 239.57" fill="none" stroke="#50d6cc" stroke-linecap="round" stroke-linejoin="round"/>
      <polygon points="311.99 225.25 315.54 236.2 327.05 236.2 317.74 242.96 321.3 253.9 311.99 247.14 302.68 253.9 306.23 242.96 296.93 236.2 308.42 236.2 311.99 225.25" fill="#fff" stroke="#50d6cc" stroke-linecap="round" stroke-linejoin="round"/>
    </g>
  </g>
</svg>