<svg xmlns="http://www.w3.org/2000/svg" xmlns:xlink="http://www.w3.org/1999/xlink" width="600" height="404" viewBox="0 0 600 404"><defs><clipPath id="a"><rect x="48.48" y="2" width="548.82" height="365.88" fill="#fff" stroke="#50d6cc" stroke-linecap="round" stroke-linejoin="round"/></clipPath></defs><title>flag-alabama-dimensions</title><rect x="48.48" y="2" width="548.82" height="365.88" fill="#fff"/><g clip-path="url(#a)"><rect x="48.48" y="2" width="548.82" height="365.88" fill="#fff" stroke="#50d6cc" stroke-linecap="round" stroke-linejoin="round"/><path d="M48.48,2,597.3,367.88m-548.82,0L597.3,2" fill="#fff" stroke="#50d6cc" stroke-linecap="round" stroke-linejoin="round"/><polygon points="580.05 393.76 322.89 222.32 65.73 393.76 31.23 342 266.83 184.94 31.23 27.88 65.73 -23.88 322.89 147.56 580.05 -23.88 614.55 27.88 378.96 184.94 614.55 342 580.05 393.76" fill="#fff" stroke="#50d6cc" stroke-linecap="round" stroke-linejoin="round"/></g><rect x="48.48" y="2" width="548.82" height="365.88" fill="none" stroke="#50d6cc" stroke-linecap="round" stroke-linejoin="round"/><line x1="23.67" y1="194.49" x2="23.67" y2="196.99" fill="none" stroke="#a3a3a3" stroke-linecap="round" stroke-linejoin="round"/><line x1="23.67" y1="202.12" x2="23.67" y2="363.63" fill="none" stroke="#a3a3a3" stroke-linecap="round" stroke-linejoin="round" stroke-dasharray="5.13 5.13"/><polyline points="23.67 366.19 23.67 368.69 26.17 368.69" fill="none" stroke="#a3a3a3" stroke-linecap="round" stroke-linejoin="round"/><line x1="29.03" y1="368.69" x2="33.31" y2="368.69" fill="none" stroke="#a3a3a3" stroke-linecap="round" stroke-linejoin="round" stroke-dasharray="2.86 2.86"/><line x1="34.74" y1="368.69" x2="37.24" y2="368.69" fill="none" stroke="#a3a3a3" stroke-linecap="round" stroke-linejoin="round"/><line x1="37.24" y1="1.74" x2="34.74" y2="1.74" fill="none" stroke="#a3a3a3" stroke-linecap="round" stroke-linejoin="round"/><line x1="31.88" y1="1.74" x2="27.6" y2="1.74" fill="none" stroke="#a3a3a3" stroke-linecap="round" stroke-linejoin="round" stroke-dasharray="2.86 2.86"/><polyline points="26.17 1.74 23.67 1.74 23.67 4.24" fill="none" stroke="#a3a3a3" stroke-linecap="round" stroke-linejoin="round"/><line x1="23.67" y1="9.4" x2="23.67" y2="130.86" fill="none" stroke="#a3a3a3" stroke-linecap="round" stroke-linejoin="round" stroke-dasharray="5.17 5.17"/><line x1="23.67" y1="133.44" x2="23.67" y2="135.94" fill="none" stroke="#a3a3a3" stroke-linecap="round" stroke-linejoin="round"/><line x1="370.69" y1="392.09" x2="373.19" y2="392.09" fill="none" stroke="#a3a3a3" stroke-linecap="round" stroke-linejoin="round"/><line x1="378.11" y1="392.09" x2="591.89" y2="392.09" fill="none" stroke="#a3a3a3" stroke-linecap="round" stroke-linejoin="round" stroke-dasharray="4.91 4.91"/><polyline points="594.35 392.09 596.85 392.09 596.85 389.59" fill="none" stroke="#a3a3a3" stroke-linecap="round" stroke-linejoin="round"/><line x1="596.85" y1="386.73" x2="596.85" y2="382.45" fill="none" stroke="#a3a3a3" stroke-linecap="round" stroke-linejoin="round" stroke-dasharray="2.86 2.86"/><line x1="596.85" y1="381.02" x2="596.85" y2="378.52" fill="none" stroke="#a3a3a3" stroke-linecap="round" stroke-linejoin="round"/><path d="M7.86,173.36,7.43,173c.41-.6.57-.79.82-2.59l.15-1.15H7c-1.06,0-2.25,0-2.92,0l0,0-.26-1.19v0l5.42-6.78h0l1.7-.5,0,0c-.16.88-.32,1.91-.44,2.81L10,168h.37a1.52,1.52,0,0,0,1.19-.34l.23.16L11,169.31l0,0c-.37,0-.76-.06-1.18-.07l-.23,1.62c-.13.9-.11,1-.52,1.44A14.54,14.54,0,0,1,7.86,173.36ZM8.58,168l.48-3.45c.12-.89.23-1.84.3-2.48-2.81,3.58-4,5.13-4.42,5.86.65,0,1.38.07,2.16.07Z" fill="#727272"/><path d="M17.59,174.1l-1.19-1.25,1.43-10.24H16.42l.11-.73h1.41l.18-1.25a3.8,3.8,0,0,1,1.45-2.78c.9-1,1.22-1.22,2.21-1.22h1.13l0,0-.23.62c-.18.46-.25.53-.43.53s-.74,0-1.2,0c-1,0-1.27.39-1.45,1.59l-.35,2.51h2.21v.73H19.16l-.78,5.53c-.23,1.59-.42,3.29-.55,4.53l.52.78h0Z" fill="#727272"/><path d="M24.4,169.41c-2.18,0-3-.86-2.75-2.83l.24-1.66a3.71,3.71,0,0,1,1.91-2.79,3.4,3.4,0,0,1,2-.6c1.36,0,2,.63,2,1.8a9,9,0,0,1-.27,1.77l-1.27.69H23.05l-.07.49c-.23,1.63.5,2.16,2.09,2.16a4.5,4.5,0,0,0,2.62-.85h0v.22A3.68,3.68,0,0,1,24.4,169.41ZM23.16,165h3.23a8,8,0,0,0,.2-1.42c0-.83-.5-1.25-1.57-1.25s-1.56.58-1.72,1.7Z" fill="#727272"/><path d="M31.72,169.41c-2.17,0-3-.86-2.74-2.83l.23-1.66a3.74,3.74,0,0,1,1.91-2.79,3.4,3.4,0,0,1,2-.6c1.36,0,2.05.63,2.05,1.8a8.85,8.85,0,0,1-.26,1.77l-1.28.69H30.38l-.07.49c-.23,1.63.49,2.16,2.08,2.16a4.48,4.48,0,0,0,2.62-.85h0v.22A3.7,3.7,0,0,1,31.72,169.41ZM30.48,165h3.24a8.87,8.87,0,0,0,.19-1.42c0-.83-.49-1.25-1.57-1.25s-1.56.58-1.72,1.7Z" fill="#727272"/><path d="M38.74,169.38c-1.41,0-2-.53-1.82-1.88l.74-4.89H36.25l.11-.73h1.43l.33-2.25,1.33-.19,0,0-.37,2.42h2.37v.73H39l-.73,4.72c-.1.7.18,1,1.26,1A3.41,3.41,0,0,0,41,168h0l0,.16A3,3,0,0,1,38.74,169.38Z" fill="#727272"/><path d="M311.47,396.73c-1.8,0-2.78-1-2.48-3.25l.2-1.45a8.29,8.29,0,0,1,2.07-5,5.71,5.71,0,0,1,3.43-2.12l.05,0,.13.77c.05.34,0,.41-.29.5-.95.34-2.07.25-2.81,1.11-.42.5-.62.87-.94,3a3.52,3.52,0,0,1,2.55-1,2.11,2.11,0,0,1,2.26,2.6l-.16,1.17a3.54,3.54,0,0,1-1.76,2.86A4.2,4.2,0,0,1,311.47,396.73Zm.78-.92c1.24,0,1.54-.5,1.75-1.95l.19-1.37c.23-1.6-.31-2.16-1.55-2.16a2.19,2.19,0,0,0-1.93.86l-.28,2C310.18,395,310.85,395.81,312.25,395.81Z" fill="#727272"/><path d="M321.5,401.42l-1.18-1.26,1.43-10.24h-1.42l.11-.72h1.42l.17-1.26a3.89,3.89,0,0,1,1.45-2.78c.9-1,1.22-1.22,2.21-1.22h1.13l0,0-.23.62c-.17.46-.24.53-.42.53s-.74,0-1.21,0c-1,0-1.27.39-1.44,1.59l-.36,2.52h2.21v.72h-2.32l-.77,5.54c-.23,1.59-.43,3.29-.55,4.52l.51.78v0Z" fill="#727272"/><path d="M328.31,396.73c-2.17,0-3-.87-2.74-2.83l.23-1.66a3.75,3.75,0,0,1,1.91-2.8,3.4,3.4,0,0,1,2-.6c1.37,0,2.05.64,2.05,1.81a8.67,8.67,0,0,1-.26,1.76l-1.27.69H327l-.07.5c-.23,1.63.49,2.16,2.08,2.16a4.55,4.55,0,0,0,2.62-.85h0v.21A3.7,3.7,0,0,1,328.31,396.73Zm-1.24-4.39h3.24a7.76,7.76,0,0,0,.19-1.41c0-.83-.49-1.26-1.57-1.26s-1.56.59-1.71,1.7Z" fill="#727272"/><path d="M335.64,396.73c-2.18,0-3-.87-2.75-2.83l.23-1.66a3.75,3.75,0,0,1,1.91-2.8,3.43,3.43,0,0,1,2-.6c1.36,0,2.05.64,2.05,1.81a8.8,8.8,0,0,1-.27,1.76l-1.27.69h-3.22l-.07.5c-.23,1.63.5,2.16,2.09,2.16a4.55,4.55,0,0,0,2.61-.85h0v.21A3.68,3.68,0,0,1,335.64,396.73Zm-1.24-4.39h3.23a7.89,7.89,0,0,0,.2-1.41c0-.83-.5-1.26-1.58-1.26s-1.55.59-1.71,1.7Z" fill="#727272"/><path d="M342.66,396.69c-1.42,0-2-.53-1.82-1.87l.74-4.9h-1.42l.11-.72h1.43L342,387l1.33-.19h0L343,389.2h2.37v.72h-2.48l-.72,4.72c-.11.71.18,1,1.25,1a3.37,3.37,0,0,0,1.45-.35h0l0,.16A3,3,0,0,1,342.66,396.69Z" fill="#727272"/><line x1="47.78" y1="378.52" x2="47.78" y2="381.02" fill="none" stroke="#a3a3a3" stroke-linecap="round" stroke-linejoin="round"/><line x1="47.78" y1="383.88" x2="47.78" y2="388.16" fill="none" stroke="#a3a3a3" stroke-linecap="round" stroke-linejoin="round" stroke-dasharray="2.86 2.86"/><polyline points="47.77 389.59 47.77 392.09 50.27 392.09" fill="none" stroke="#a3a3a3" stroke-linecap="round" stroke-linejoin="round"/><line x1="55.27" y1="392.09" x2="282.67" y2="392.09" fill="none" stroke="#a3a3a3" stroke-linecap="round" stroke-linejoin="round" stroke-dasharray="5 5"/><line x1="285.16" y1="392.09" x2="287.66" y2="392.09" fill="none" stroke="#a3a3a3" stroke-linecap="round" stroke-linejoin="round"/><line x1="195.64" y1="229.46" x2="193.58" y2="230.88" fill="none" stroke="#a3a3a3" stroke-linecap="round" stroke-linejoin="round"/><line x1="191.23" y1="232.51" x2="187.71" y2="234.95" fill="none" stroke="#a3a3a3" stroke-linecap="round" stroke-linejoin="round" stroke-dasharray="2.86 2.86"/><polyline points="186.54 235.76 184.49 237.19 185.92 239.24" fill="none" stroke="#a3a3a3" stroke-linecap="round" stroke-linejoin="round"/><line x1="188.68" y1="243.16" x2="220.38" y2="288.3" fill="none" stroke="#a3a3a3" stroke-linecap="round" stroke-linejoin="round" stroke-dasharray="4.8 4.8"/><polyline points="221.75 290.26 223.19 292.31 225.25 290.88" fill="none" stroke="#a3a3a3" stroke-linecap="round" stroke-linejoin="round"/><line x1="227.59" y1="289.25" x2="231.11" y2="286.81" fill="none" stroke="#a3a3a3" stroke-linecap="round" stroke-linejoin="round" stroke-dasharray="2.86 2.86"/><line x1="232.29" y1="286" x2="234.34" y2="284.57" fill="none" stroke="#a3a3a3" stroke-linecap="round" stroke-linejoin="round"/><path d="M215.25,261l3.19-6.06-6.79.85-.12-.91,7.9-1,.34.5-3.7,7Z" fill="#727272"/><path d="M228.35,253.26c-1.48,1-2.87.74-3.89-1.26l-.66-1.31a8.25,8.25,0,0,1-1.13-5.25,5.7,5.7,0,0,1,1.62-3.69h.06l.54.57c.24.25.21.36.05.57-.59.82-1.55,1.38-1.67,2.52-.07.65,0,1.06.93,3a3.54,3.54,0,0,1,1.53-2.27,2.12,2.12,0,0,1,3.34.85l.54,1.05a3.6,3.6,0,0,1,.17,3.36A4.16,4.16,0,0,1,228.35,253.26Zm.12-1.2c1-.71,1-1.28.33-2.6l-.63-1.24c-.72-1.44-1.49-1.59-2.51-.89a2.23,2.23,0,0,0-1.09,1.81l.91,1.81C226.28,252.54,227.32,252.86,228.47,252.06Z" fill="#727272"/><path d="M230.93,238.84c-.34-.17-.34-.3-.09-.78s.39-.7.49-.77.26-.07.73.18.34.3.09.78-.39.7-.5.77S231.4,239.09,230.93,238.84Zm4.35,8-1.34-2.92a17,17,0,0,0-1.16-2.27l-.92.63-.33-.67,2.08-1.55h0l2.56,5.65c.18.39.48.44.94.12a4.53,4.53,0,0,0,.7-.61l.11.1a2.63,2.63,0,0,1-1.06,1.95C236.17,247.8,235.67,247.71,235.28,246.86Z" fill="#727272"/><path d="M239.82,245.37h-.07l-2-4.3c-.63-1.33-1.33-1.73-2.05-1.4l0-.07.51-1.32.05,0a1.5,1.5,0,0,1,1.59.56,3.29,3.29,0,0,1,1.38-2.62,2,2,0,0,1,3.18,1l1.56,3.34c.3.62.82.32,1.29-.13l.11.09a2.93,2.93,0,0,1-1,1.69c-.59.41-.95.25-1.25-.4l-1.74-3.68c-.52-1.13-1.26-1.3-2.22-.63-.8.55-1,1.37-.41,2.6l2,4.23,0,.11Z" fill="#727272"/><path d="M245.46,238l-.76-1.5a3.71,3.71,0,0,1-.06-3.31,4,4,0,0,1,1.33-1.69,4.09,4.09,0,0,1,1.55-.71l.07,0,.33,1.28-.06,0a4.51,4.51,0,0,0-2.22.83c-.72.5-.75,1-.19,2.09l1.06,2.13c.61,1.21,1.5,1.26,2.61.49a3.83,3.83,0,0,0,1.48-2.08h0l.12.18a3.71,3.71,0,0,1-1.52,3.07C247.51,240,246.36,239.72,245.46,238Z" fill="#727272"/><path d="M252.67,236.46h-.07l-3.85-7.86a24.11,24.11,0,0,0-1.48-2.74l-.74.47-.27-.5,1.88-1.41h0l2.46,5a3.55,3.55,0,0,1,1.35-2.15c1.34-.92,2.54-.44,3.2,1l1.56,3.34c.3.62.82.32,1.29-.13l.11.09a2.93,2.93,0,0,1-1,1.69c-.58.41-1,.25-1.25-.4l-1.74-3.68c-.52-1.13-1.28-1.29-2.16-.68a2.06,2.06,0,0,0-.92,1.87l2.46,5,0,.11Z" fill="#727272"/><path d="M262.18,229.8c-1.79,1.24-3,1-3.87-.76l-.75-1.5a3.73,3.73,0,0,1,0-3.38,3.37,3.37,0,0,1,1.27-1.61c1.12-.78,2.05-.65,2.72.31a9.9,9.9,0,0,1,.79,1.6l-.66,1.3L259,227.59l.22.45c.74,1.47,1.64,1.49,2.95.58a4.48,4.48,0,0,0,1.66-2.19h0l.12.18A3.69,3.69,0,0,1,262.18,229.8Zm-3.52-2.89,2.66-1.85a7,7,0,0,0-.65-1.27c-.47-.69-1.12-.75-2-.14a1.65,1.65,0,0,0-.45,2.38Z" fill="#727272"/><path d="M265.65,227.08l0,0-.78-1,0,0a7.52,7.52,0,0,0,2.7-1.12c.66-.46.68-.81.27-1.61s-.7-.87-1.38-.48l-.64.35c-1.38.77-2,1-2.64-.42a2.26,2.26,0,0,1,0-2.34c.48-1.06.69-1.31,1-1.55s1.23-.77,1.72-1.09H266l.17.81a.4.4,0,0,1-.15.49c-.25.17-1.34.69-2,1.13s-.49.66-.1,1.42.71.86,1.39.48l.64-.36c1.38-.76,2-.95,2.64.43a2.26,2.26,0,0,1,0,2.35,3.47,3.47,0,0,1-1.28,1.75A6.52,6.52,0,0,1,265.65,227.08Z" fill="#727272"/></svg>