<svg xmlns="http://www.w3.org/2000/svg" width="286" height="300" viewBox="0 0 286 300"><title>flag-alaska-icon-dipper</title><polygon points="17.57 53.79 14.6 44.64 11.63 53.79 2 53.79 9.79 59.45 6.81 68.61 14.6 62.95 22.39 68.61 19.41 59.45 27.2 53.79 17.57 53.79" fill="none" stroke="#000" stroke-linecap="round" stroke-linejoin="round" stroke-width="2"/><polygon points="88.94 80.29 85.97 71.14 82.99 80.29 73.37 80.29 81.16 85.95 78.18 95.1 85.97 89.44 93.75 95.1 90.78 85.95 98.57 80.29 88.94 80.29" fill="none" stroke="#000" stroke-linecap="round" stroke-linejoin="round" stroke-width="2"/><polygon points="124.41 118.32 121.44 109.17 118.47 118.32 108.84 118.32 116.63 123.98 113.65 133.14 121.44 127.48 129.23 133.14 126.25 123.98 134.04 118.32 124.41 118.32" fill="none" stroke="#000" stroke-linecap="round" stroke-linejoin="round" stroke-width="2"/><polygon points="157.34 148.91 154.36 158.07 144.74 158.07 152.53 163.73 149.55 172.88 157.34 167.22 165.13 172.88 162.15 163.73 169.94 158.07 160.31 158.07 157.34 148.91" fill="none" stroke="#000" stroke-linecap="round" stroke-linejoin="round" stroke-width="2"/><polygon points="268.99 201.76 276.78 196.1 267.15 196.1 264.18 186.95 261.2 196.1 251.58 196.1 259.36 201.76 256.39 210.92 264.18 205.26 271.96 210.92 268.99 201.76" fill="none" stroke="#000" stroke-linecap="round" stroke-linejoin="round" stroke-width="2"/><polygon points="155.61 214.05 152.64 204.9 149.66 214.05 140.04 214.05 147.82 219.71 144.85 228.87 152.64 223.21 160.42 228.87 157.45 219.71 165.24 214.05 155.61 214.05" fill="none" stroke="#000" stroke-linecap="round" stroke-linejoin="round" stroke-width="2"/><polygon points="235.96 240.55 232.98 231.4 230.01 240.55 220.38 240.55 228.17 246.21 225.19 255.36 232.98 249.7 240.77 255.36 237.79 246.21 245.58 240.55 235.96 240.55" fill="none" stroke="#000" stroke-linecap="round" stroke-linejoin="round" stroke-width="2"/></svg>