<svg xmlns="http://www.w3.org/2000/svg" width="300" height="300" viewBox="0 0 300 300"><title>flag-idaho-icon-motto</title><path d="M146.11,105.45c1.66,1.65,1.1,4.45,1.66,6.43-3.06.27-1.66-3.07-4.16-3.94-3.34-.55-8.91-1.64-10,3.07.56,1.93-1.1,4.78,1.66,5.92a13.36,13.36,0,0,0,4.42-.29c1.68-1.14.58-3.91,3.08-3.7-.85,3.12,0,7.61-1.11,10.1-1.66-1.4-1.95-6.11-5.81-5.05-4.47.58-2.24,6.48-3.08,9.54,1.92,3.07,5.84,3.07,8.89,1.94,2.5-1.43,2.5-4.21,4.44-5.34,1.11,2.85-1.94,5.05-2.47,7.9-7.23.21-12-2-19.48-2,1.94-2.23,5.57-1.14,5.57-5.05l1.11-17.06c-1.4-1.4-3-1.4-4.74-1.93l.58-1.69c5.84,2,13.62.85,19.46,1.14"/><path d="M103.28,104.9v1.64c0,1.69,2,.56,2.79.85,3.05,5.55.84,12.82,2.23,19.59-1.13,2.78-5,1.06-5,3.62,3.63-.55,9.46.24,13.36-1.42-2-1.4-6.39-1.14-5.58-5.05,1.13-4.16,6.42-.56,8.63-3.07,4.17-1.93,3.33-7,3.62-11.16h0C119.69,102.89,110.25,104.32,103.28,104.9Zm13.36,14.52a9.24,9.24,0,0,1-3.9.55c-1.92-3.33-.28-8.09-1.65-12,2.78-2.24,7.2-.26,8,3.07h0C119.13,114.08,119.69,118,116.64,119.42Z"/><path d="M194.17,121.93c-1.37-2.85-4.7-4.2-7.47-5.34-3.07-.29-4.73-4.71-8.07-3.07-.29,2,2,1.43,2.5,3.07-.86,5.89-3.63,11.19-5.84,16.5-.84,1.42-1.94,3.65-4.18,3.07-.81-.56-2.49-.85-1.94-2.49-5-.85-4.45-6.74-6.39-10.1,1.94-.53,4.18-.8,5.84-1.93.84-2.22,2.78-3.91,2.23-6.69-2.23-8.41-12.23-5.92-18.64-8.12,0,2.49,3.34,1.11,3.89,3.63-1.95,7.27-1.13,17.87-8.33,20.7,2.23,1.93,6.94,1.93,10,2.51.55-2-1.94-1.69-2.5-3.07.82-2.82-.28-6.74,3.05-8.12,4.45,1.65,3.61,7,4.45,11.19,1.68,3.36,4.73,1.38,7.52,2.49,2.76,2.27,7.23,4.78,10.57,4.49l-4.18-4.49c1.39-10.61,10,1.13,14.46-4.18A11.45,11.45,0,0,0,194.17,121.93Zm-31.94-.29c-1.66,0-3-.29-3.9-1.67.85-3,0-8.09,3.9-9.51,2.49.84,3.62,2.48,4.44,5C167,118,164.72,120.79,162.23,121.64Zm24.47,9c-2,1.09-4.46,0-5.83-1.13l5-10.9c1.95-.58,2.79,1.93,4.45,3.07C190.59,125.26,190,128.91,186.7,130.6Z"/><path d="M87.71,119.42h0c-1.94-2.49-3.6-7-7.49-7-4.73-1.09-9.46.55-13.07,4.2-2.52,2.54-2.78,6.18-1.94,9.52,1.94,5,4.7,12.85,11.93,12.56a18.24,18.24,0,0,0,9.47-5C90.76,129.76,88.27,124.13,87.71,119.42Zm-3.6,13.11c-1.68,3.36-5.57,3.36-8.36,2.56-5-4.49-7.49-10.38-5.55-17.1,4.18-6.69,11.12-.55,13.36,3.94h0C84.66,125.84,86.06,128.91,84.11,132.53Z"/><path d="M62.13,125c-2.21.84-8.6-5.29-8.6,1.69,3.89,4.71,4.71,10.89,9.15,15.39.58-.58,1.95-.29,3.08-.29l.26.29c-2.76,1.64-5.83,4.71-9.44,5.55,3.61-7.53-3.89-14-7-20.65-1.66-.58-2.5,1.35-3.61,2.2-1.1,2.22,1.4,4.49-.84,6.42-8.33-10.34,8.63-9.2,12.52-15.65l4.44,5"/><path d="M41,138.72c-2,2.22-5.29-2.22-8.36,0-1.37,1.38-3.32,2.49-2.5,5.05,4.44,6.13,11.12-3.41,17,0,2.5,2.49,4.18,6.93,1.94,10.55-1.65,3.36-6.65,3.36-6.38,7-1.4-2.82-7.5-4.18-5.55-7.58,2.49,2,5.28,2.82,8.6.84,1.68-1.37,3.07-3.06,2.52-5.29-7-7.82-14.75,8.92-19.75-2.49-1.39-3.69.56-7,2.5-9.8,1.66,0,2.79-1.38,4.18-2.51l-.58-1.38c2.21.53,4.71,3.89,6.42,5.58"/><path d="M237.29,144.27c-.29,2.23-1.39,4.79-3,5.9-2-2,1.66-4.47-.84-6.4l-2.5-1.69c-4.44,5-7.52,11.45-9.7,17.58,1.08,1.43,2.47,1.69,2.18,3.63a63.7,63.7,0,0,1-11.12-6.41c9.46,1.94,10.31-10,14.46-15.67-.55-2.2-3.05-2.49-5-3.07-1.92.29-2.76,4.2-5,2.51.55-2.22,3.05-3.62,4.45-5.56l16.09,9.18"/><path d="M250.36,151.26c-1.66,1.71-3.05-1.09-4.45.58-3.07,5.33-9.17,11.45-6.12,17.58,2.23,1.43,4.73,3.65,7.52,2,3.05-5.31,11.12-11.74,6.39-18.72,3.05-.29,6.1,2.51,9.17,3.62-.84,2.23-1.94-.55-3.63.58-6.67,5.29-5.83,22.37-18.32,16.46-2.52-.56-4.47-3.05-5.58-5-1.65-7.53,5.29-12.58,6.39-19.56-1.39-.58-2.78-2.27-1.39-3.63,3.08,2.78,8.07,2.49,10,6.12"/><path d="M25.16,154.61c-2.78,1.14-4.18-2.22-6.67-.29-1.66,2-4.74,3.92-3.34,6.48,1.94,1.93,3.89,4.71,6.41,5.55,1.11-1.64,2.76-3.06,2-5.55-.58-1.14-2.24-1.43-2-3.12.27-.51,1.11-.51,1.66-.51,1.94,2.2,3.34,5.85,6.39,6.7,0,.55.29,1.64-.55,1.93-1.95-3.07-5.29-.29-6.39,2,2.49,2.22,4.73,7,8,5,3.89-3.62,3.34-8.62,1.95-13.41,1.39.82,3.07,3.36,3.89,5.34-2.21,6.43-7.21,11.69-10,17.61h-.81c3.05-8.7-7.23-11.76-12.23-17.95-1.94-1.35-2.5,3.07-4.44.87,2.21-5.29,5.83-10.05,10-14.54a7,7,0,0,1,6.12,3.91"/><path d="M277.88,177.83c-1.1-6.43-3.07-12.54-3.62-19v0l-1.4-1.65c-2.49.85-6.65-2-7.49.51l2.5,2c-4.45,5.85-6.68,17.61-15,16.79,1.65,2.51,5.83,2.8,8.91,4.45,3.05-1.09-1.4-2.78-1.4-4.45,2.77-5,9.73-1.4,13.34-1.11,2.49,3.62-1.66,5.27-3.9,6.69l1.11.85c3.63-.56,7.52-.56,10.86-1.43v-1.64C280.38,179.25,278.73,179.81,277.88,177.83ZM264.82,172c0-3.65,3.34-7.27,5-10.63h1.4L272.84,172Z"/><path d="M290.31,139.61c-6.42-7.56-18.64-3.07-27-6.47,5-4.42,13.07-5,18.35-9.47-8.91-5.58-24.19-5-33.36-.58-3.61,3.06-.84,7-1.63,11.18-8.39-3.07-17.25-8.38-25.59-13.12C187.19,101.85,148.8,89.82,107.65,94,67.08,99.08,27.33,116.69,4,153.86a28.54,28.54,0,0,0-2.5,20.95C7.58,187.13,20.1,196.33,32,202.22c8.36,2.78,12.8-9.2,18.9-12.61,1.68,6.48-2.21,10.9-3.34,16.53,3.08,2.22,6.42-1.69,9.47-2.56,6.39-6.12,14.17-13.12,12.51-23.17l-15-15.1v-1.4c32.81-28.79,86.74-28.79,124-10l22.49,10.9.06.12c1.46.31,5.5,3,6.71,3.85a48.07,48.07,0,0,1,4.8,3.18,98.65,98.65,0,0,1,12.95,6.69.69.69,0,0,1,.2,0,32.86,32.86,0,0,1,3.7,2.07l0,.05.77.5c.91.57,1.86,1.05,2.78,1.58,18.69,7.42,43.12,19.86,59.25.65C292.25,168.67,290,155.22,290.31,139.61Zm-17.45-15.48c-5.83,2-11.93,8.11-19.16,6.47a5.78,5.78,0,0,1-3.34-3.91C255.09,120.55,265.92,123.33,272.86,124.13Zm-23.05,8.45c10.56,4.45,23.05,4.16,34.46,6.14,2,.51,2.5,3.07,1.66,4.42-12.49,7.27-24.16-2.49-35-6.11C249.25,136.16,249.81,133.67,249.81,132.58ZM67.15,181.45c.27,9.54-7.52,16.81-14.46,21,1.4-4.79,1.4-12.32,2-17.61C58.24,182.59,62.68,177.32,67.15,181.45Zm-5.57-4.13c-11.67,3.87-15.85,17-27,21.74-2.49-3.36.58-6.64,1.13-10,3.05-8.45,8.89-15.94,15.86-22.13C55.74,169.76,58.53,174.2,61.58,177.32Zm199.35,12.25c-9.6-2.66-19.42-5.88-27.56-11-.53-.17-1.05-.35-1.56-.55a25.36,25.36,0,0,0-4-2.11v0l-.07-.05a.87.87,0,0,1-.58-.4c-4.33-3-10.33-4.74-14.83-7.69a68.82,68.82,0,0,1-6-3.74s0,0,0,.08c-1.93-1.19-5-3.08-6-3.5,0,0-.06,0-.09-.06-7.49-2.27-15-9.08-23.58-11.27-36.42-16.18-87-17-119.55,8.41-13.34,9.76-23.09,23.77-26.4,38.87-8-2.83-16.12-10.1-22.22-17.08a24.7,24.7,0,0,1-4.47-17.59C14.62,134,41,119.42,65.23,107.39c6.39-.85,11.94-4.76,18.35-5.56,50-13.45,100.62.22,141.77,25.1a345.73,345.73,0,0,0,43.38,21.26h0c6.39,1.42,13.07,1.42,19.17-1.36.57,10.9.84,23.46,1.39,35.2C283.72,192.13,270.92,189.86,260.93,189.57Z"/><path d="M200.88,122.49c-.56.55-1.4,1.13-1.13,1.93a9.79,9.79,0,0,1,2.52,2.27c-2.52,5.34-5,11.18-8.07,16.45-1.4.58-3.89,1.13-5-.56-.55.56-1.39,1.14-.84,2,2.33,2.54,5.84,3.56,8.55,5.47,2,.47,5,2.49,6.7,3.5a17.94,17.94,0,0,1,2.54,1.91c0-.08,0-.16,0-.25.55-2.51,4.16-3.93,4.73-6.42-2-1-3.37,1.42-5.47,1.44a1.11,1.11,0,0,1-1,.25,8.3,8.3,0,0,1-2.52-1.31h0a21.6,21.6,0,0,0-2.91-1.64.92.92,0,0,1-.45-.3,1.74,1.74,0,0,1-.79-.39c.84-2.56,1.95-5,3.08-7.61,1.65-.79,2.49,1.14,3.89,2,0,1.37-.29,3.06.55,3.93,3.34-1.13,3.34-5.92,5.57-8.4-2.52-1.94-5.86,4.2-8.62,0,1.66-2.78,2.21-7.56,6.1-7.56,5.57.87,3.89,5.62,5,10,2.76-1.08,2.5-5,3.89-7.48C211.71,128.67,206.16,125.55,200.88,122.49Z"/></svg>