<svg xmlns="http://www.w3.org/2000/svg" width="286" height="300" viewBox="0 0 286 300"><path d="M120.32 72.61a12 12 0 01-2.73.21 11.05 11.05 0 002.73-.21M132.21 84.32a18 18 0 012.26-.2 8.43 8.43 0 00-2.26.2M120.06 88.9a.68.68 0 00.37-.2c-.05-.11-.11-.11-.11-.11l-.26.31M122.69 93.49c-1-.11-.68 0 0 0" fill="#ffd93c"/><path d="M106.4 95.19c2.7 3.37 13.66.65 15 8.13V108c-4.75-8.77-17.76-5.4-23.27-4.7C87.88 106 77 108.72 66 118.18c-3.46 2-11.66 3.41-13.71 9.51l1.35 4.06c-4.76 1.34-.65 1.34-4.11 4.76-8.2-2-1.35 6.09-9.55 8.12v10.25l-6.16-.79c4.1-6.69-4.05-23.68 7.51-22.34 2-1.34.7-4.06 1.4-6.09 3.4-5.45 9.56-12.19 17.11-14.91V106a6 6 0 004.76 2c0-1.34 1.4-8.77 6.15-6.74 6.21-5.44 10.31-2.72 15.76-8.81 6.86 8.12 12.31 0 19.87 2.72M151.46 165.74c0-4.11-2.94-7.55-7-9.32-7.63 9.89-17.09 18-26.5 26.23l-1.16-1.15c-.58 4.69-7.1 4-9.41 7.55-5.89 1.15-11.78 2.34-15.93-1.19h-5.35c-.86 9.95 8.3 10.64 13.1 14.8h.09c0-3.53 9.33-3.84 9.78-8.33 11.78-1.67 21.82-7.55 27.71-15.67.58.52 1.16 1.1 1.16 1.67 3.52-3.44 5.31-9.37 11.78-8.12l1.2-2.35c0-1.21-1.2-2.98.53-4.12z"/><path d="M39.08 145c17.75 4.36 38.91 21.86 50.54 33.78M51.49 131.59c16 14.63 36.92 30.5 49.33 44.45M65.53 117.69c6.42 7.91 39.33 48.05 39.33 48.05M82.36 107c7.26 16.29 24.08 46.9 31.71 56.32M98.45 100.2c2 15.93 15.62 45.65 24.45 56.43M111.65 99.47c.42 14.63 12.83 47.16 17.25 53.56" fill="none" stroke="#000" stroke-linecap="round" stroke-width="2"/><path d="M126.11 124.46a356.43 356.43 0 00-12-37.69c2.57-.52 5.73-.21 7.52 1.09a9.55 9.55 0 01-1.16.84c1.26 2.34 3.15 2.44 5 3.64-.32.94-1.9 1.15-2.79 1.15a14 14 0 011.47.2c.63 5.68 3.21.58 3.21 6.3l3.84-1.92c-1.26 0-3.21 0-3.84-1.25-1.89-3.86 8.94-1.93 7-5.68-4.53 0-9 .58-12.89-1.35 1.11-1 2.84-1.09 4.58-1.09a1.1 1.1 0 01-.69-.84l.64-1.19c2.57 0 6.41-1.36 8.36 1.19-.42.42-.84.94-1.48.94 3.63.52 7.79-1.51 7.21-2.13l-8.94-1.36c0-.47.37-.78.95-1-1.32.21-2.69.21-3.53-1.4 1.26 0 1.26-2 1.26-3.28-5.1-1.82-6.36 3.28-10.2 1.3 2.53-1.3-1.94-3.75 1.84-3.75-1.21 0-2.47.63-3.15-.67l1.31-1.25c-2.57-.63-6.41.62-8.36-1.2 1.84-1.46 4-1.25 6.26-1.15a2.76 2.76 0 01-1.74-1.4l1.27-.73h-4.47l1.21.73c-6.37 3.75-3.16-1.93-7-3.18-5.15.63-10.25-.67-12.83-4.47-3.89.62-9-1.93-11.57 1.82 0-3.75-7-1.2-8.36-1.82a3.3 3.3 0 011.32-2.55c-5.79 3.17-9-5.68-13.46-1.31l-1.32-.62c0 .62 0 2.55-1.26 3.18L56.8 60c.63 1.93-1.31 2.56-1.94 3.86l-2.53-2.55-1.26 1.25C49.13 64.49 37 72.14 35 71.52l1.27 1.2C29.88 77.82 19 88 16.42 93.69l1.26.68c-6.41.62-4.47 3.8-7 5.73 1.32 3.74-3.83 5.67 0 10.77l-4.51 1.93 2.57 2.55-1.31 1.19c1.31 0 3.84-1.19 4.52.63L10 119.72l.63 1.3-6.41 6.92h3.21l-3.21 3.13c.63 0 2.58 0 3.21 1.35 1.94-.73-6.42 6.92 1.31 7.6 0 7.65-.68 5 1.26 11.4h2c1.84 2.55 9.57.73 11.51 5.67 4.47-.57 6.54 7.38 10.38 1-.16-1 1.33-3.78 1.33-3.78 23.08 6.61 36.51 13.8 47.61 28.95 12.83 17.38 19.25 11.08 20.87 30.08s1.58 27.07 1.58 27.07 14.46 4.69 36.92-8S171 215 185.48 191.09c-32.13-22.18-52.96-41.28-59.37-66.63z" fill="none" stroke="#000" stroke-linecap="round" stroke-width="2"/><path d="M105.65 196.24s8.73 22.4 8.73 44.94M115.7 193.12c.86 1.42-7.5-13.25 0 0 8.78 15.56 17.61 43.3 17.61 43.3M124.9 186.4c9.62 12.29 21.24 42.79 21.24 42.79M132.94 181.2c6.79 8 26.57 32.32 31.78 36.59M140.83 171.07c9.2 8.74 30.76 26.55 38 30.51" fill="none" stroke="#000" stroke-width="2"/></svg>