<svg xmlns="http://www.w3.org/2000/svg" width="196" height="300" viewBox="0 0 196 300"><title>flag-idaho-icon-elk</title><path d="M51.47,205c-1.78,1.07-4.58,3.53-3.18,5.71.7-2.55,3.88-2.55,5.28-2.55A2.76,2.76,0,0,0,51.47,205Z"/><path d="M77.63,210c-2.5.74-.73,4.61,0,3.26l2.11-1.81c.36,0,1.4,0,1.77.7v-1.41C80.44,209.63,79,210.36,77.63,210Z"/><path d="M77.63,193c1.41-1.41,4.22-1.41,3.88-4-3.88-1.35-8.49,0-11.3,1.45C73.39,189.79,74.09,194.06,77.63,193Z"/><path d="M70.21,206.83c-1.43,3.16-4.61,5-7.08,4.61.37,1,0,3.9,1.77,3.16,2.81-3.16,8.49-3.87,6.35-8.87C70.55,205.39,69.85,206.46,70.21,206.83Z"/><path d="M79,196.15H77.63c-2.14,2.09-5.31.7-6.38-2.09-.34,3.9-3.88,6-6.35,7.77,2.11.67,3.54-1.08,5.65-.71C72,197.22,77.27,199.31,79,196.15Z"/><path d="M27.44,161.72c7.42,3.17,17,1.39,24.73,3.54,1.07,2.08.37,5.34,3.18,6v1c-4.25.7-6.72-2.83-10.23-4.27-3.91-.74-7.09-1.75-10.63.37,2.84,6.05,3.91,14.55,11.3,16.7l-1.74,3.2c.7,1.07,2.08.64,3.14.64,2.48,10.75-18.35,14.65-7,26.35,2.81,10.68,30.75.36,14.14,16,1.4,1.11,1.74,1.11,3.51.74-.31,2.6-2.07,4.64-.73,7.4a5.2,5.2,0,0,0,4.09,1,9.37,9.37,0,0,0,4-2.8c2.08-5.91,10.14-5.42,8.48-13.44h1.4c.36,2.46-1,7.12,1.43,9.58,1.77-1.35.34-4.24,1.77-5.68L80,229.92c1.74-1.44-1.77-9.24,4.58-7.15,3.15,1.81-1.4,7.49,3.88,5.34.73-1.44.73-5.71,3.15-3.9.73,2.46-1,3.53-2.42,5,1,1.07,1.71,2.82,3.52,2.08l2.81-4.6c.33,2.15-1.44,5.34,1.06,6.41,3.52-5,1.74-10.68,1.41-16.67-3.54-1.44-2.47,4.21-5.65,2.83-1.44-2.52,1.74-7.5-2.11-8.57-1,1.78-.33,3.93-.7,5.74H88.5a8.5,8.5,0,0,0-3.87-8.23l-.71,4.64c-.37-.37-.7-1.08-1.07-.74.7,4.33-3.87,2.52-6,3.9-1.77.74-1.77-1.38-2.47-2.09-2.48,3.9-9.16,3.53-13.78,5.35-3.54-2.15-10.59,1.07-14.13-2.83,4.95-1.07,10.59,3.19,14.5-1.07-1.77-3.9-4.24-.74-6.72,0-3.9-.74-7.41-3.2-11-2.09-1.37-.8-1.37-1.81-.67-3.26l-3.17-4.27c2.8-3.53,7.05,1.45,9.52-2.51l2.11,1.1c1.74-1.1-1.07-5.34,2.44-4.27-1,4.27,7.45,6.79,1.77,10.69.37.71,1.44.71,2.14.71a4.67,4.67,0,0,1,5.65-3.26l.7.74V205l-5.28-.71c-1.44-2.82,2.1-4.26,3.88-5.65,1.4.31,2.47-.7,3.87-1.44.37-.71-.7-1.07-1.4-1.81-2.47-.65-4.61,4.33-7.08.74,3.2-7.8,14.5-5.65,15.57-14.22,9.47-3.19,11.62,9.56,16.21,14.89l.09,0h-.06l0,0c-.67-.11-1.36-1.38-2.38-.67-2.47,1.81-2.11,3.16-1.07,5.68,0,.67,0,1.75-.7,1.75-2.11-1.08,1.4-2.83-1.41-3.53-2.47,4.26-6.35-3.53-8.12,1.78-.73,2.12-2.81,4.63-2.1,6.35,2.44.74,1.37-1.72,3.14-2.45,2.14-.34,1.43,2.45,3.21,2.45,2.8-4.23,7.75,1.11,8.45-5,1.77.37,2.48,2.18,3.18,3.56l-.7.71c1.43,1.44,3.17,2.15,4.61,4,1.07-3.26,2.1,1,3.54.64,2.81,7.8,0,13.88,0,22.45-.73.37-.37,1-.37,1.75l1.77,1.41c4.58-6.05,1.77-16.7,2.45-22.35,4.58,6.72-1.74,12.77,1.4,19.83,3.91-2.45,0-12.4,5.65-9.52v2.46l-1.4-1.44c1.77,4-3.88,12.4,2.83,12.83,3.52-5.71.71-12.83,2.48-17.81,2.81,6.05-.73,13.21.7,19.19,1.77-3.19,4.58,1.08,5.65-2.45.32,1.51,2.25,2.27,2.94,3.66.48.29.94.63,1.41.95s1.64,1.42,2,.46a.05.05,0,0,1,0,0h0c0-4.33-7.75-5.34-5.28-10.32-3.54-9.94-6.38-19.89-12.73-28.8,5.64-7.06-14.14-17,.7-19.89,4.94-1.75,3.54-8.51,8.85-9.52.71-4,7-7.16,3.88-11.43-9.89-3.59-16.61,6.36-26.17,3.9,8.12-9.94,24-6.41,33.89-15.29,10.66-11.39,24.8-20.63,31.82-34.05,3.54-4,7.82-8.57,13.43-5.77,11.33,2.52,9.59,16.39,12.74,24.26,2.1,0,1.4-2.55,2.47-3.63,1.27-9.9-2.35-17.58.07-26a1.38,1.38,0,0,1-.05-.65c.5-2.67,2.3-5,2.34-7.75a1.35,1.35,0,0,1,.13-.59c-.16-3.09,1.57-8.19-1.33-9.83l-4.1,8c-.29.83-.72,1.57-1.09,2.45a21.72,21.72,0,0,1-1.12,3.33,2.7,2.7,0,0,1-1.11,2.3c-7.06,0-12.7-3.19-18-5.28l-1.07-8.94.06,0A37.22,37.22,0,0,0,162.81,82a14.78,14.78,0,0,1-3.3-9.73c-.27-1.37-.5-2.74-.78-4.12-.35-1.78-1-3.49-1.36-5.27-1.45-2.43-2.3-5.44-5.18-6.75-1.51.22-1.31,2.17-1.58,3.17.26,3.06,1.09,6,1.37,9.09.07.17.15.33.21.51,0,0,3.1,16.14,3.29,18.44,3.71,11,.4,24-6.61,33.21-1.74,1.44-1.74,2.82-3.85,2.82-2.81-7.09,0-16.3-2.47-23.09a61.79,61.79,0,0,0-3.88-18.12l-3.17,3.2c2.1,19.19,6,42.62-8.13,57.57-5,6.42-12.73,5.31-18.74,9.21-1.07-18.45,0-32.67-3.15-50.08-.37-.34-.7-1.41-1.77-1.07l-1.4,1.07c3.17,15.6-2.48,29.45-2.48,44.74-2.47,2.89-2.47,7.46-7.08,8.54-8.49-1.08-20.15-2.46-24-12.41-3.54-5-3.18-12.77-7.76-16.4,1.41,12.5-.73,27.43,14.11,33.78,4.06-.18,6.84,3,9.65,5l-3.17.06c-2.88,4.39-9.26,3.13-13.5,3.13.34-10.63-11.67-10.63-18.38-13.88-8.12-11-11.66-25.89-4.58-38.38-.37-3.9,1.4-6.7,2.81-9.58,12,1.44,15.9,15.29,24.7,21.71,1.77-3.53-2.81-6.42-3.88-9.61-4.58-11.73,5.31-21,6.35-32l-1.4-1.35c-2.81,4.24-5,10-7.42,14.92-2.08,3.9-7.06,4.55-8.8,1.08-2.84-6-15.9-.71-12.73-11.39-.7-8.17.37-20.27-2.81-28.81l-1.77,1.81C38,81.43,39.44,97,36.23,114.1c-2.47,6,.37,14.22-7,17.38a10.91,10.91,0,0,1-9.56-4.61c1.07-2.82-1.4-4.26-3.17-6.35l-3.55,2.09c-.7-6.42,3.21-17.38-2.77-21.65C8.72,104.15,8,107.68,7,110.88H6.59C3,100.62,5.18,89.2,4.48,78.54c-1.77,0-1.77,1.78-2.47,3.17-4.95,16,3.87,34.48,3.87,51.58C11.2,143.61,17.18,153.93,27.44,161.72ZM64.9,226H67c1.43,5-2.81,9.22-6,12.41C58.18,234.16,64.2,230.63,64.9,226Zm89.76-110.54c12-13.91,1.78-30.21.71-46.24-.37-3.53-3.18-6-2.47-9.95C159.24,71.76,161,87.36,163.49,102c-1.07.68-.37,2.12-.7,3.2,1.4,1.38,2.84,0,3.87-1.08,8.13-2.82,17.32,8.51,22.26-2.82.37-1.45-.7-3.53,1.44-4.27.7,5-7.08,13.88-3.21,22.38,1.07,1.81.37,5,.74,6.36-1.77-8.44-3.55-14.86-12.37-18.12-4.24-.64-7.08,1.45-12,1.45-6.35,7.43-8.12,20.26-19.08,22.35C145.11,125.06,152.19,121.84,154.66,115.48ZM140.16,102c2.84,3.56,0,8.54,0,12.81Zm-2.81,30.19,3.18-15.23c4.58,9.24-3.54,15.6-3.18,24.1v.06l-3.54,3.9-.7-.74c-3.91,2.18-8.15,5.35-10.26,8.91-3.88-1.11-7.79,5.68-12,2.09C119.68,149.6,133.81,144.93,137.35,132.16ZM79,178c3.54-5,7,2.09,7.42,5.34C84.32,184,80.81,180.12,79,178Zm7.42,7.8c2.1,0,4.58,0,4.58-2.46A9.09,9.09,0,0,1,96.71,189h0c-2.5,0-4.24-3.53-6.38-2.45l2.14,5C90,190.1,85.75,189.79,86.46,185.83Zm2.1,12.83c1.44,0,1.77,1.75,1.77,3.17A2.22,2.22,0,0,1,88.56,198.66Zm6.38-1.81v5H93.51c-.7-2.52-.34-5.31-2.47-7.13,1.77-.64,2.83,1.08,3.9,2.15,1-1.44,0-5.31,3.18-3.9C98.82,195.41,96.72,197.59,94.94,196.85Zm.71,8.17c2.8-2.82,1.77,2.15,3.17,3.16C97.42,209,95.65,207.17,95.65,205Zm6.71,4.61c-.36-3.9-3.54-7.8-3.54-11,1.77,1.39,3.88,2.09,5.65,4.55C103.77,205,104.47,207.91,102.36,209.63Zm8.46,7.49c-1,2.12-2.11.67-3.17,0l-1.41-9.64C108.38,210,110.82,213.25,110.82,217.12Zm-5.65-20.27v1.75c-2.1.37-3.17-1.75-3.87-3.19v-1.72C103.77,193,103.07,195.78,105.17,196.85Zm0-74.3V145h-1.4C103.4,137.84,104.47,129.33,105.17,122.55ZM83.28,160.28C75.86,157.4,67.37,153.87,64.9,145l1.4-1.44c3.18,11,15.21,13.14,23.33,15.29,4.58-.71,9.56-3.53,11.67-8.17.7-1.41.7-3.9,2.44-4.6,2.47,1.07.7,3.53,1.4,5.34a9.37,9.37,0,0,0-2.11,7.43l-4.21.74v1.35c-1.4,1.44-3.17,0-4.61-.65-2.47,1.08,2.14,3.53-1.4,3.17a3.65,3.65,0,0,0-.16,2.7l-1.4.06a4.08,4.08,0,0,0,.49-.28C88.93,163.45,85.75,163.11,83.28,160.28Zm2.5,8.51,2.26-2a6.52,6.52,0,0,0,1.53,0l3.69.71c1.14,2.06,3,4.08,2.39,7,1.4,1.72,2.1,3.9,4.21,5.62,3.88-4.61,5-11.67,11.66-13.48l7.42-1.81c2.11,7.15-8.15,8.93-8.85,16-2.47,2.51-6.72,3.16-10.23,1.78-1.74-1.08-1.4-2.86-3.14-3.9l-1.07,3.19c-1.44-1.81-2.14-3.53-4.61-3.9,1.77-2.52.36-5.68.7-8.23-3.88-1.72-1.74,5.34-5.65,1.81a35.44,35.44,0,0,1-11.48,3.57,6.14,6.14,0,0,1-2.66.33c.84-.07,1.75-.2,2.66-.33C78.8,173.8,81.52,168.51,85.78,168.79ZM75.13,170.6c.73,1.75-1.74,1.75-2.47,2.46H72C71.25,170.23,74.09,171.61,75.13,170.6ZM54.64,102c2.81,2.12,4.58,6.79,8.46,3.9h0l3.17-1.78a23.2,23.2,0,0,0,0,12.1c-2.8-1.78-4.94-5-7.75-7.12l-7.08-5.72C52.17,102.71,53.24,101.64,54.64,102ZM49,180.12c-1.77,0-3.17,2.52-4.94.74-3.55-2.12-3.88-6-3.88-8.51C42.27,177,49.69,173.76,49,180.12Zm.7,8.17v-5l3.88-.67c-1.28-3.9,1.62-5.93,3.94-8.51l1.1-.24c0,1.93,1.53,4.14-.06,6.23C55.71,182.64,52.54,186.54,49.69,188.29Zm8.13,2.14c-.71-2.45,2.13-3.89,3.9-3.16C61.72,189.36,59.59,189.36,57.82,190.43Zm10.26-7.79c-1.07.36-.37,2.18-1.78,1.75-1.4-1.39-2.8-3.53-1.4-5.65C68.08,177.66,67,181.22,68.08,182.64ZM41.57,86.86v-2.7c.89.93.51,1.84,0,2.7v3C39.94,89.08,40.88,88,41.57,86.86Zm-9.52,46.37c7.41-8.17,7.41-22,9.52-32.33V93.84c2.84.64-1.07,6.35,3.18,6.35-.7,12-6.35,23.46-7.79,35.93,1.44,1.72,3.21,4.24,1.77,6.35,1.77,1.45,3.21,3.17,2.84,5.68-4.24,2.12-6-5-9.52-5.31-3.21-1.1-6-2.48-9.19-3.56,2.47-2.52,5.64,1.75,8.45,0-1.4-5-9.19-.71-8.82-6.42C25.66,134.67,28.5,134.31,32.05,133.23Zm6.68,20.64c-3.51-.37-7.75,1.44-11.29-1.82-2.84-2.79-5-5.61-5-9.21C28.84,144.25,35.92,148.15,38.73,153.87ZM15.44,123.28c2.81,1.45,2.1,5.35,3.2,8.2-1.77,8.54,1.74,16.67,7.42,23.09,14.44,5,25.41-.34,38.84,9.61.7,1.45-.67,2.46-1,3.17l-.7,6.41-2.47-2.52-1.1-.18h0a6.24,6.24,0,0,0,.39-3l-1.4-1.44c-.37.71-1.44,1.07-1.07,1.81-.7,0-1.77.34-2.14-.37-.7-3.9,7.42-1.44,3.21-5.34-2.84,4.27-5.68-2.15-8.85-1.81-4.56,1.1-11.64,1.1-14.11-2.46-5.65,2.46-11-3.9-15.91-7.06C14,143.92,14.4,132.92,15.44,123.28Zm-4.62-15.6c-.7,9.95-2.47,22,2.11,31.6-3.17-1.44-3.88-6.42-5.28-9.58C7,122.21,5.51,113.34,10.82,107.68Z"/></svg>