<?xml version="1.0" encoding="utf-8"?>
<!-- Generator: Adobe Illustrator 23.0.1, SVG Export Plug-In . SVG Version: 6.00 Build 0)  -->
<svg version="1.1" id="Layer_1" xmlns="http://www.w3.org/2000/svg" xmlns:xlink="http://www.w3.org/1999/xlink" x="0px" y="0px"
	 viewBox="0 0 600 300" style="enable-background:new 0 0 600 300;" xml:space="preserve">
<style type="text/css">
	.st0{fill:#CF142B;}
	.st1{clip-path:url(#SVGID_2_);fill:#00237D;}
	.st2{clip-path:url(#SVGID_4_);fill:#FFFFFF;}
	.st3{clip-path:url(#SVGID_6_);fill:#FFFFFF;}
	.st4{clip-path:url(#SVGID_8_);fill:#FFFFFF;}
	.st5{clip-path:url(#SVGID_10_);fill:#CF142B;}
	.st6{clip-path:url(#SVGID_12_);fill:#CF142B;}
	.st7{clip-path:url(#SVGID_14_);fill:#CF142B;}
	.st8{clip-path:url(#SVGID_16_);fill:#CF142B;}
	.st9{clip-path:url(#SVGID_18_);}
	.st10{fill:#FFFFFF;}
	.st11{clip-path:url(#SVGID_20_);fill:#CF142B;}
</style>
<g>
	<rect class="st0" width="600" height="300"/>
	<g>
		<g>
			<defs>
				<rect id="SVGID_1_" width="289.3" height="165.5"/>
			</defs>
			<clipPath id="SVGID_2_">
				<use xlink:href="#SVGID_1_"  style="overflow:visible;"/>
			</clipPath>
			<rect class="st1" width="289.3" height="165.5"/>
		</g>
		<g>
			<defs>
				<rect id="SVGID_3_" width="289.3" height="165.5"/>
			</defs>
			<clipPath id="SVGID_4_">
				<use xlink:href="#SVGID_3_"  style="overflow:visible;"/>
			</clipPath>
			<rect x="117.1" y="-5" class="st2" width="55.1" height="182.7"/>
		</g>
		<g>
			<defs>
				<rect id="SVGID_5_" width="289.3" height="165.5"/>
			</defs>
			<clipPath id="SVGID_6_">
				<use xlink:href="#SVGID_5_"  style="overflow:visible;"/>
			</clipPath>
			<polygon class="st3" points="297.8,13.9 297.8,-4.8 263.9,-4.8 -4.1,148.4 -4.1,167.9 28.5,167.9 			"/>
		</g>
		<g>
			<defs>
				<rect id="SVGID_7_" width="289.3" height="165.5"/>
			</defs>
			<clipPath id="SVGID_8_">
				<use xlink:href="#SVGID_7_"  style="overflow:visible;"/>
			</clipPath>
			<polygon class="st4" points="-3.2,-1.8 -3.2,17.7 262.5,169.6 296.4,169.6 296.4,150.8 29.5,-1.8 			"/>
		</g>
		<g>
			<defs>
				<rect id="SVGID_9_" width="289.3" height="165.5"/>
			</defs>
			<clipPath id="SVGID_10_">
				<use xlink:href="#SVGID_9_"  style="overflow:visible;"/>
			</clipPath>
			<polygon class="st5" points="-2.1,166.9 19.8,166.9 152.7,91 147.3,81.6 			"/>
		</g>
		<g>
			<defs>
				<rect id="SVGID_11_" width="289.3" height="165.5"/>
			</defs>
			<clipPath id="SVGID_12_">
				<use xlink:href="#SVGID_11_"  style="overflow:visible;"/>
			</clipPath>
			<polygon class="st6" points="149.3,73.2 143.9,82.7 296,169.6 296.5,157.3 			"/>
		</g>
		<g>
			<defs>
				<rect id="SVGID_13_" width="289.3" height="165.5"/>
			</defs>
			<clipPath id="SVGID_14_">
				<use xlink:href="#SVGID_13_"  style="overflow:visible;"/>
			</clipPath>
			<polygon class="st7" points="-4.2,10.6 139.6,92.8 145,83.3 -4.2,-2 			"/>
		</g>
		<g>
			<defs>
				<rect id="SVGID_15_" width="289.3" height="165.5"/>
			</defs>
			<clipPath id="SVGID_16_">
				<use xlink:href="#SVGID_15_"  style="overflow:visible;"/>
			</clipPath>
			<polygon class="st8" points="270.7,-1.5 121.1,84 126.5,93.4 292,-1.2 			"/>
		</g>
		<g>
			<defs>
				<rect id="SVGID_17_" width="289.3" height="165.5"/>
			</defs>
			<clipPath id="SVGID_18_">
				<use xlink:href="#SVGID_17_"  style="overflow:visible;"/>
			</clipPath>
			<g class="st9">
				<rect x="-11.9" y="55.5" class="st10" width="307.1" height="11.1"/>
				<rect x="-11.8" y="99.7" class="st10" width="307.1" height="11.1"/>
				<rect x="-11.9" y="66.6" class="st0" width="307.1" height="33.1"/>
			</g>
		</g>
		<g>
			<defs>
				<rect id="SVGID_19_" width="289.3" height="165.5"/>
			</defs>
			<clipPath id="SVGID_20_">
				<use xlink:href="#SVGID_19_"  style="overflow:visible;"/>
			</clipPath>
			<rect x="128.1" y="-5" class="st11" width="33.1" height="182.7"/>
		</g>
	</g>
	<title>Artboard 1</title>
</g>
</svg>
