<svg xmlns="http://www.w3.org/2000/svg" width="600" height="315.79"><path fill="#fff" d="M0 0h600v315.79H0z"/><path fill="#bf0a30" d="M0 0h600v24.29H0zM0 48.58h600v24.29H0zM0 97.17h600v24.29H0zM0 145.75h600v24.29H0zM0 194.33h600v24.29H0zM0 242.91h600v24.29H0zM0 291.5h600v24.29H0z"/><path fill="#002868" d="M240.25 0H0v170.04h240.25V0z"/><path fill="#fff" d="M168.64 75.23l2.17-6.77-5.75-4.18h7.12l2.21-6.77 2.18 6.77h7.12l-5.75 4.18 2.21 6.77-5.76-4.21-5.75 4.21zM132.57 75.23l2.17-6.77-5.75-4.18h7.12l2.21-6.77 2.18 6.77h7.12l-5.76 4.18 2.21 6.77-5.75-4.21-5.75 4.21zM96.49 75.23l2.18-6.77-5.75-4.18h7.12l2.21-6.77 2.17 6.77h7.13l-5.76 4.18 2.21 6.77-5.75-4.21-5.76 4.21zM60.42 75.23l2.18-6.77-5.76-4.18h7.13l2.21-6.77 2.17 6.77h7.13l-5.76 4.18 2.21 6.77-5.75-4.21-5.76 4.21zM186.67 37.9l2.18-6.78-5.76-4.17h7.13l2.21-6.77 2.17 6.77h7.13l-5.76 4.17 2.21 6.78-5.75-4.18-5.76 4.18zM150.6 37.9l2.18-6.78-5.76-4.17h7.13l2.21-6.77 2.17 6.77h7.12l-5.75 4.17 2.21 6.78-5.75-4.18-5.76 4.18zM114.53 37.9l2.17-6.78-5.75-4.17h7.12l2.21-6.77 2.18 6.77h7.12l-5.75 4.17 2.21 6.78-5.76-4.18-5.75 4.18zM78.46 37.9l2.17-6.78-5.75-4.17H82l2.21-6.77 2.18 6.77h7.12l-5.75 4.17 2.21 6.78-5.76-4.18-5.75 4.18zM42.39 37.9l2.17-6.78-5.75-4.17h7.12l2.21-6.77 2.18 6.77h7.12l-5.75 4.17 2.21 6.78-5.76-4.18-5.75 4.18zM204.71 112.53l2.17-6.74-5.75-4.21h7.12l2.21-6.74 2.18 6.74h7.12l-5.75 4.21 2.21 6.74-5.76-4.18-5.75 4.18zM168.64 112.53l2.17-6.74-5.75-4.21h7.12l2.21-6.74 2.18 6.74h7.12l-5.75 4.21 2.21 6.74-5.76-4.18-5.75 4.18zM132.57 112.53l2.17-6.74-5.75-4.21h7.12l2.21-6.74 2.18 6.74h7.12l-5.76 4.21 2.21 6.74-5.75-4.18-5.75 4.18zM96.49 112.53l2.18-6.74-5.75-4.21h7.12l2.21-6.74 2.17 6.74h7.13l-5.76 4.21 2.21 6.74-5.75-4.18-5.76 4.18zM60.42 112.53l2.18-6.74-5.76-4.21h7.13l2.21-6.74 2.17 6.74h7.13l-5.76 4.21 2.21 6.74-5.75-4.18-5.76 4.18zM24.35 112.53l2.18-6.74-5.76-4.21h7.13l2.21-6.74 2.17 6.74h7.13l-5.76 4.21 2.21 6.74-5.75-4.18-5.76 4.18zM204.71 149.86l2.17-6.77-5.75-4.17h7.12l2.21-6.77 2.18 6.77h7.12l-5.75 4.17 2.21 6.77-5.76-4.17-5.75 4.17zM168.64 149.86l2.17-6.77-5.75-4.17h7.12l2.21-6.77 2.18 6.77h7.12l-5.75 4.17 2.21 6.77-5.76-4.17-5.75 4.17zM132.57 149.86l2.17-6.77-5.75-4.17h7.12l2.21-6.77 2.18 6.77h7.12l-5.76 4.17 2.21 6.77-5.75-4.17-5.75 4.17zM96.49 149.86l2.18-6.77-5.75-4.17h7.12l2.21-6.77 2.17 6.77h7.13l-5.76 4.17 2.21 6.77-5.75-4.17-5.76 4.17zM60.42 149.86l2.18-6.77-5.76-4.17h7.13l2.21-6.77 2.17 6.77h7.13l-5.76 4.17 2.21 6.77-5.75-4.17-5.76 4.17zM24.35 149.86l2.18-6.77-5.76-4.17h7.13l2.21-6.77 2.17 6.77h7.13l-5.76 4.17 2.21 6.77-5.75-4.17-5.76 4.17z"/></svg>