<svg xmlns="http://www.w3.org/2000/svg" width="286" height="300"><path d="M141.07 183.16c15.64-10.4 29.09-19.42 40.19-25.68 13.2-20.71 21.17-43.93 37.31-72 18.93-33-20.52-32.34-40.29-18a459 459 0 00-65.5 57.83c-2.84 39.36-16.88 88.03 28.29 57.85z" fill="none" stroke="#000" stroke-width="2"/><path d="M2.81 190c25.8-23.33 41-39.1 53.19-63.16s59.22-44.43 56.93-4.54S94.7 214.08 141 183.16s73.71-51 77.5-15.68.75 33.78-9.12 44.28A173.09 173.09 0 01192 228.33s.75-22.54.75-37.57-3-20.32-29.63 4.53-41.79 36.78-58.48 33.82-15.93-1.52-15.93-1.52l-12.24 14.34-11.35-6.85L78 215.51s-12.16-9.72-5.33-42.06 17.48-65.38-3.79-36.09S46.09 174.24 2.81 190z" fill="none" stroke="#000" stroke-width="2"/></svg>