<svg xmlns="http://www.w3.org/2000/svg" width="800" height="400" viewBox="0 0 800 400"><path d="M0 400h800V0H0z" fill="#002d72"/><path d="M343.21 308.16c8 .44 15.26 1.77 13.07 8.33-2.88 8.6-2.46 14.36-6.15 21.74 23 4.49 25.44 6.86 49.23 6.86h.83c23.78 0 26.65-1.74 49.63-6.26-3.69-7.39-3.69-13.74-6.56-22.35s10.67-8.21 20.52-8.61c1.86-.06 5.47-.1 10.2-.06l49.84.79c9.66.2 17.8.38 22 .51 14 .41 14.77-.82 26.25 5.74-3.68 5.73-7.79 15.59-10.24 20.09s-3.28 6.57-10.66 4.94l-1.64 4.92c-10.26-.41-14.77-1.24-10.67-6.16s4.93-8.63 4.93-8.63l-47.8.28 6.37 11.23s-36.12 24.18-102.58 24.18h0c-66.46 0-102.56-24.18-102.56-24.18l7-11.08-48.4-.43s.81 3.72 4.91 8.63-.41 5.75-10.66 6.16l-1.64-4.95c-7.38 1.66-8.2-.39-10.66-4.91s-6.56-14.36-10.25-20.09c11.49-6.56 12.31-5.33 26.25-5.74 4.22-.13 12.51-.31 22.27-.54z" fill="#fff" stroke="#000" stroke-width=".62"/><path d="M348.73 348.07l-.05-.06a5.42 5.42 0 00-4.28-5.07c-1.17-.3-1.66-.11-1.89.82l-.71 2.79c1.84.42 3.33.37 4.3-1.27l-1.32 5.28v.06c0-1.91-1.35-2.73-3.19-3.2l-1.27 5.27c-.23.94.08 1.33 1.27 1.63a5.85 5.85 0 006.6-2.75l-1.35 5-12.13-3h-.07c1.42.35 2.42-1.48 2.65-2.44l2-8.16a1.87 1.87 0 00-1.39-2.45v-.05l11.83 2.92-1.05 4.74M356.68 358.55l.15-.75c1.31.25 1.57.13 1.64-.16a1.9 1.9 0 00-.21-1.08l-1.2-3.23-2.47 2.43a1.81 1.81 0 00-.52.8c-.08.46.29.77 1.58 1l-.13.79-5.47-1.06h-.06c1.09.1 2.37-1 3.2-1.75l3.5-3.25-2.07-5.51c-.3-.81-.6-2.57-1.7-2.75l6.65 1.26a1.3 1.3 0 00-1.69 1.06 1.74 1.74 0 00.16.86l1 2.8 2.16-2.12a1.59 1.59 0 00.55-.8 1.51 1.51 0 00-1.17-1.62l5.14 1c-1.56-.21-2.25.88-3.36 1.89l-2.89 2.63 2.43 6.55c.28.75.65 2 1.69 2.28h-.05l-6.81-1.32M379.62 353.28h-.06c-.68-2.89-2.31-4.59-4.58-4.87-2.42-.3-3.74 1.77-4.23 5.61s.57 6.24 3.23 6.55a4.51 4.51 0 005.26-4l.4.07c-.43 3.4-2.63 5.23-6.19 4.8-4.61-.58-6.76-4.1-6.29-7.85a7.07 7.07 0 017.72-6.09 7.86 7.86 0 013.7 1.63l1.67-.61-.59 4.76M394.92 354.12v.05a5.61 5.61 0 00-5.26-4.25c-1.22-.06-1.64.2-1.7 1.15l-.08 2.93c1.89.08 3.38-.38 4-2.2v.08l-.27 5.48c-.42-1.86-1.84-2.39-3.71-2.49l-.32 5.41c-.06 1 .34 1.27 1.55 1.35a5.91 5.91 0 006-4l-.37 5.14-12.48-.62a1.84 1.84 0 002-2l.46-9.35a1.86 1.86 0 00-1.76-2.22h-.06l12.17.59-.12 4.83M398.28 362.87a1.85 1.85 0 001.85-2.13l-.25-9.35c0-1-.46-2.06-1.92-2h-.07l7.17-.2a1.88 1.88 0 00-1.89 2.13l.26 9.33c0 .93.38 1.21 1.37 1.17 2 0 4.3-2.13 4.74-4.39v5.19l-11.36.31M412.62 357.15c.74 2.08 3.12 4.2 5.61 3.95 1.33-.14 2.43-.87 2.27-2.51-.28-2.85-7.77-1.09-8.23-5.59a4.32 4.32 0 014.12-4.88c2.12-.21 2.94.74 3.46.69a2.55 2.55 0 001.5-.93l.48 4.65c-.77-2.07-3-3.74-5.05-3.53a2 2 0 00-2.07 2.21c.32 3 7.85.77 8.38 5.82a4.65 4.65 0 01-4.36 4.95c-2.42.25-3.44-.69-4.07-.63a3.21 3.21 0 00-1.48.94h-.05l-.53-5.15M426.86 360.76a1.89 1.89 0 001.59-2.36l-1.53-9.25a1.88 1.88 0 00-2.27-1.74l7.07-1.17a1.85 1.85 0 00-1.54 2.36l1.52 9.25a1.85 1.85 0 002.21 1.74l-7.07 1.14M440.65 344.08a7 7 0 11-5.14 8.39 7.12 7.12 0 015.14-8.39zm3 12.79c2.24-.52 2.6-3 1.74-6.7s-2.27-5.71-4.51-5.2-2.59 3-1.74 6.69 2.26 5.73 4.5 5.21M464.49 351.93c-.83.28-1.23.44-1.23.44-1.91.59-3-.21-3.79-2.37s-1.1-2.85-3.22-2.51l1.21 3.94c.32 1.06 1 2.17 2.52 1.66l-6.67 2a1.85 1.85 0 001.21-2.56l-2.74-9a1.85 1.85 0 00-2.43-1.41l6.6-2c3.2-1 5.21-.2 5.88 2 .74 2.47-1.52 3.84-3.61 4.51v.06a3.61 3.61 0 014.12 1.8c1.15 1.68 1.42 2.44 1.87 2.32 1.84-.57 2.08.43.29 1.05zM456 346.8c2-.73 3.2-1.45 2.52-3.6-.47-1.56-1.58-2.37-2.89-2a1.11 1.11 0 00-.88 1.52l1.25 4.08"/><path d="M239.07 337.32c-2.46-4.5-.06-7.59 16.71-7.29M248.4 339.85c6.15-.39 9.43-5.9 13.54.66M304.19 330.44c3.28-5.76 3.29-11.9 9.85-9s38.56 11.91 42.25-4.92M308.37 322c-2.47 6.57 9.36 10.89 41.77 16.21M560.41 337.45c2.47-4.5.59-7-16.63-7.42M551.16 339.88c-6.06-.65-9.44-5.94-13.54.62M496.36 331c-3.27-5.76-4.28-12.42-10.84-9.55s-38.57 11.91-42.26-4.92M491.76 322.42c2.46 6.57-10.13 8.85-41.94 16.43" fill="none" stroke="#000" stroke-width=".62"/><path d="M436.92 280.24h-.29.29M436 280.36a3.77 3.77 0 01-.47 0 3.62 3.62 0 00.47 0M436.43 280.31a3.16 3.16 0 00-.32 0 2.69 2.69 0 01.32 0M437.4 280.12a1.18 1.18 0 01-.27.06l.27-.06" fill="#0077c8"/><path d="M356.18 144.64A31.41 31.41 0 01330 167.79l-5.43 9.77 2.17 1.45a22.66 22.66 0 012 36.5l-2.12 2.31v64.62c0 4.13-.32 8.75 6.61 12.6s66.92 38.4 66.92 38.4h.09s60-34.56 66.93-38.4 6.61-8.47 6.61-12.6v-64.62l-2.12-2.31a22.64 22.64 0 012-36.5l2.17-1.45-5.43-9.77c-12.71-1.67-23-11.91-26.17-23.15z" fill="#fff" stroke="#000" stroke-width=".62"/><path d="M462.51 228.29l-.26-.29v-5.52a34.08 34.08 0 01-3-45.75 42.3 42.3 0 01-22.94-20.63H364a42.36 42.36 0 01-22.94 20.62 34.09 34.09 0 01-3 45.76v1.93h-.25v13.93h124.33V228.2zm-113.87-3.88h-2.91a3.64 3.64 0 012.91 0z" fill="#0077c8"/><path fill="#002d72" d="M462.28 258.55l.01 26.04-62.01 35.68-62.17-35.66.13-25.95 124.04-.11z"/><path d="M462.34 283v-.52-14 .05h-.58l-34.46 1.24 5.74 2.86-4.1.41 5.34 1.24-3.28 1.19 5.74.41-4.91 1.22 8.21.4-8.21 2 7.78-.4-2.11.94a15.72 15.72 0 003.35-1.35s-2.05-5.34 3.7-1.63 8.62 4.1 8.62 4.1 4.1-4.93 3.27-.84 4.92 3.71 4.92 3.71l1 .52v-1.63M348.91 284.91c4.51 1.23 5.33 0 5.33 0s4.52-3.3 7.39-2.86a21.65 21.65 0 012.36.51l.91-1.34-6.15-.82 7.37-1.23-7-.83 5.33-1.22-5.74-.8 4.5-1.26-4.5-1.22 7-.82-8.21-.8 12.32-1.22s2.05-1.62-6.15-1.62-25-1.24-25-1.24h-.58V283l.2-.13c7 0 6.14.82 10.66 2M366.79 282.12h-.11a.22.22 0 01.11 0" fill="#0077c8"/><path d="M402.23 208a10.45 10.45 0 10-10.43-10.44A10.45 10.45 0 00402.23 208" fill="#ffd100"/><path d="M362.06 223.66c.37 0 .71-2.15 1.82-2.59a30 30 0 008.54-5.78h-.94a39.54 39.54 0 01-15.17 6.42l-.91-.77c3.52-3.89 8.53-5.65 12.52-8.8l.26-1.35-.72-.13-4 1.12-5.24.44-.2-.46 2.18-1.32c.4-.82-1.18-.43-1.68-1l-.18-.66 5.65-2.36.27-.78c-.74-.59-2.17.58-2.85-.57.53-.93 2-1 3.48-1.29-.09-.18.94.54.72-.37 1.33-.34 3.21-.63 3.44-2.15-1.13-.3-2.34.06-3.63-.08-3.13-1.38 1.53-1.07 1.06-2.54-2.62-.47-5.26 0-8.15-.08-2.09-.14-5.17.33-6.16-1.31a20.81 20.81 0 015.22-1.49 3.31 3.31 0 01-2.17-1.22l7.73-.46 6.58-1.34c.67-.68-.37-1.22-.59-1.48-3.47-1.2-7.36-3-11.35-4.43-.75-.53-2-1.16-1.82-2.13 2.95-.36 5.46 2.08 8.17 1.68 2.93-.24 6.5 2.23 9.7 1.36-.08-.46-.26-1-.91-.91-4.65-3.27-9.64-5.87-13.76-9-.15-.87.8-.46 1-.75l-.25-.59-5.46-3.49.74-.59c6.08.51 10.64 4.1 16.46 6.46.41.16.74-.63.34-.93A48.08 48.08 0 01365 173c1.26-2.09-1.83-2.56-1.65-4.34h.56c5.78 3.27 12.08 8.54 18.33 10.87l.85-.47c-4.5-5.36-9.58-8.81-14.21-14.2.07-.6-1.19-1.41-.16-1.81l5.19 3.45.06-1.21c4 2.36 7.42 6.41 11.12 8.36-2.22-3-3-6.3-5.44-9.3l-.82-2.18c1.16-.56-.49-1.18-.1-2 .23-.49.72.18 1.1.16l9.14 11 .74-.53-.35-.84c.29-.36-.24-.63-.48-.61-1.13-2.66-2.37-4.4-3.27-7 1-.66 1.25 1.75 2.25.92-.36-1.21.88-.75 1.16-1.53.17-1-1.16-3-.28-4.37.83-.15 1.21.94 1.53 1.34a27.12 27.12 0 005.53 10.76c1.55 1.08.92 2.87 2.86 3.32 2-1.44 1.7-4.34 3.33-6.32a2.5 2.5 0 012.2 1.48l1.51-.89 1.36 1.19c.55-.06 1.23-1.61 1.93-.74.46 2-.25 4.18-.67 6.31l.37.6.38-.21 5.77-13.48.91-1 .51.37-1.53 5.64c.52.43 1.06-.57 1.49 0-1.11 2.17 1.1.06 1.59.73.1 3.1-1.6 5.76-.54 7.93a3 3 0 003.16-1.09 103 103 0 015.56-8.74h.94c-1.48 4-3.58 7.33-4.62 10.89.55.47.48-1.2 1.4-1.11l.6-.86a22 22 0 015.87-5.24 7.83 7.83 0 012.47-2.21c1.19.31.45 1.47.59 1.86h.56c1.05.57 0 1.47.32 2.2.6.12 1.67-1.18 2.51-.86v.86l-3.63 4.56-.4.29-2 2.24-2.6 4.15.28.73c2.95-2.73 5.94-3.46 8.64-6.14l1.72-1.12 1.14-.24c.26 1.63 1.68 1.61.57 2.77l1.1.12.5.49c-2.3 1.29-3.85 3.56-6.33 4.21-2.41 1.66-4.76 1.66-6.33 3.66l.33.82.3-.32c3.29-.74 6.17-1.69 9.84-2.48 1-1.12 2-1 3.23-1.3s.76.92.62 1.61c.36.21 2.25-.2 1.85 1.29l-.78.92 1 .77a8.23 8.23 0 01-4.12 2.79 49.92 49.92 0 00-8.66 2.23l-.06.61 2.12-.1c3.39.06 7.56-2 11.5-1.66a7.86 7.86 0 001.54 2l-.85 1c.36.66 2.2.73 1.48 1.83-5.31.41-9 .64-13.5 1.22l-1.22 1 .75 1 .54.15c3.73-.72 7.19.46 11.26 1.2v1.05c-.42 1 .89.9 1.21 1.43l-1.09 1c-.52 1.37 1.25.46.93 1.65l-2.54.65-10.51-.67-1.06.54c1.55.68 3.16 2.45 4.62 2.6 2.75 2.52 7 3.29 10.24 5.43.44.6 1.16.74 1 1.22l.43 1.17c-.06 0-1 .26-1.32-.27-4.53-1-8.17-2.3-12.55-3.57l.31.52c1.08.9-.66 1-.72 1.59a30.78 30.78 0 0012.07 6.88c2.49.4 3.68 3.16 6.09 3.29l.78 1.33" fill="#ffd100"/><path d="M407.38 206.61a10.45 10.45 0 10-6.8 1.21" fill="#f2a900"/><path d="M337.83 229.12a20.65 20.65 0 014.92-3.28c3.27-1.65 4.5-2.47 7-.82a22.43 22.43 0 004.91 2.45s3.29-2.06 6.16-4.11 2-3.28 5.74-2.46 12.71-1.63 16-3.28 4.92.43 7.79-3.27 2.87-3.3 7-4.92 3.27-4.5 8.61-2.88 8.2.82 16 7 12.72 8.21 16 11.48a43.06 43.06 0 006.57 5.35s3.28-1.25 6.56-2.88 4.51-2.86 7-1.24a13.55 13.55 0 004.51 2l-.1 30.47-124.18-.1-.44-29.54" fill="#197352"/><path d="M364.49 291.06c4.51-.39 5.74 1.25 9.44.81s15.59-3.67 15.59-3.67c6.15-2.88-3.29-3.71-3.29-3.71l-4.51-.41s-.81-.4-4.51-2.86-4.51-1.23-9 .41a3.26 3.26 0 01-.72.25h-.1l-.58.2h-.11l-.49.15h-.07l-.44.13-.38.07h-.05a.85.85 0 01-.31.06H364c-.58-.1-1.14-.36-2.36-.54-2.87-.39-7.39 2.89-7.39 2.89s-.82 1.23-5.32 0-3.7-2.06-10.67-2.06l-.19.13v1.63l.71.45c1.74.94 8 4.52 16.13 9.18 1.25-.64 5.74-2.82 9.59-3.18" fill="#2c5234"/><path d="M461.31 284.08s-5.75.4-4.92-3.7-3.27.84-3.27.84-2.88-.42-8.62-4.11-3.7 1.64-3.7 1.64a15.72 15.72 0 01-3.35 1.35l-.26.06-.22.06h-.28a.46.46 0 01-.2 0h-.32a.47.47 0 00-.17 0 3.77 3.77 0 01-.47 0c-2.46 0-8.21 2.47-8.21 2.47a4.42 4.42 0 01-4.91 0c-2.88-1.65-6.56-3.29-10.25-2.88s-5.75 5.74-5.75 5.74-2 1.65.41 4.12-.82 1.62-4.5 2.46-4.53 0-7.8 0c-9 .41-19.28 4.09-9.85 5.32s25.44.83 30 1.22-2.47 4.12-11.9 4.12-18.47-.83-19.28-2.47-6.56-3.68-7.79-1.65-7.79 2.47-7.79 2.47l-6.1-3.18c12.95 7.44 28.4 16.36 38.45 22.15h.11c18.79-10.86 56.63-32.62 61.36-35.23.32-.17.54-.32.71-.43l-1-.53M417.42 241.84s2.46-3.7-3.7-4.11-7.78-2-13.12-1.24-9 .82-9-1.62 2.87-3.28 5.34-1.64 2.87-.42 5.74.39 3.69.81 5.75-.81 2-2.05 5.32-1.64 4.11 0-.81-2-5.34-.83-2.88-5 1.64-6.53-2-6.12-3.7 2-5.34 4.91 3.28 4.51-3.27 6.16-13.53.4-16.41.4-2.87-.82-4.92 2.87-2.05 3.28-8.61 4.12-6.57 2.45-4.93 3.66-.4 1.66-3.28 1.66a56.79 56.79 0 00-8.19.81c-2.87.41-.83 2.88-.83 2.88s4.11 1.24-1.63 1.65-14.77 4.5-7.8 4.91 11.49.4 12.72 2 3.09 4.43 3.09 4.43l-20.36.11v-19.3c6.16-3.28 10.67-6.13 14.78-5.74s7 3.28 9.43 1.64a15.13 15.13 0 015.74-2s5.75 1.64 6.57.39 2.44-3.7 2.44-3.7a59.58 59.58 0 00-6.55-2.87c-1.63-.41-2.47-1.64.82-2.44s.83-4.12.83-4.12l3.7-.41s2.45 3.28 1.21 5.33c3.7 0 3.29-1.24 7.4 1.64a9.29 9.29 0 008.61.83s9-3.71 7.79-7.8-2.87-7.79 1.23-8.2 3.69 2 3.69 2a24.47 24.47 0 017.4-1.63 19.77 19.77 0 005.73-.83l4.52 3.28c-6.57.82-7.39 0-8.62 3.31s-1.63 5.73-2.46 6.95 3.27 1.24 3.27 1.24a6.52 6.52 0 006.15-2.46 44.92 44.92 0 016.16-5.73s4.92 3.26 7.79 5.73 7.38 4.92 9.43 7 5.53 5.71 9.64 6.53a27.82 27.82 0 017.16 2.49l-.4 5.34s-6.14-3.27-11.07 0-4.52 1.25-8.22 1.25-8.19-1.25-10.65-1.25-9.43 2.47-12.72 2.47-3.68 0-8.2-1.65-4.1-.4-7 .82-5.33 0-9.44 2.46-7 1.24-7 1.24 3.29-1.24.41-4.13-1.63-4.92-1.63-4.92-4.11-6.13 0-4.91 4.51 3.69 9.84 4.52a101.52 101.52 0 0012.72.83h8.62" fill="#2c5234"/><path d="M375.21 263.2c1.85-2.61.92-3.83.92-3.83l8.47-.18 1.84 5.1a6.13 6.13 0 01-2.94-.77l-8.44.15-1.39 1.33M375.36 258c2.77-.91 7.85-.13 7.85-.13a4.58 4.58 0 00.15-4.32l-8.3-.6s1.68.92.28 5.07M377.06 252.14l5.06.45a3.1 3.1 0 00.63-2.3l-5.54-.31s.29.46-.15 2.16M384.44 255.67l.77 4.17 2.62-.17-2.47-4h-.92M373.68 262.29v-3.09l-10.16-1.36s.92 1.22 0 5.53l10.16-1.08" fill="#fff"/><path d="M365.83 257.52a7.72 7.72 0 00.93-6.91l9.22.29s-1.06.15-1.53 2.62L374 256l-8.15 1.53M374.6 250.61c-3.54-.77-7.7-1.24-7.7-1.24l.16-2.76 6.45.47a6.85 6.85 0 011.08 3.53" fill="#fff"/><path d="M366.44 255.67l-6-.47a8.57 8.57 0 00-.77-5.36l6.77.77M363.22 257.84l-4.77-.19c.77 3.87 1.07 4.18 0 6.18l4.77-.77v2.16M436.19 267.06c-5.34-6.57-5.23-15.57-5.23-15.57l-4.71 2v15.36l12.41-2.32" fill="#fff"/><path d="M472.52 177.36l.62-.43-4.06-7.29c-12.46-2-22.6-11.78-26.4-23h-85a33.15 33.15 0 01-26.4 23l-4.05 7.29.61.43a24.63 24.63 0 012.28 39.6l-1.52 1.67V283c0 3.88 0 7.21 5.6 10.35 6.4 3.55 58.78 33.68 66 37.85 7.2-4.17 59.57-34.3 66-37.85 5.61-3.12 5.6-6.47 5.59-10.35v-.51-63.83l-1.55-1.66a24.64 24.64 0 012.28-39.6zM453.88 198a31.93 31.93 0 0010.42 23.63c-.07 14.53 0 57.33 0 60.82v.55a12 12 0 01-.14 2.63 5.29 5.29 0 01-1.61 1.2c-5 2.77-44.71 25.6-62.35 35.77h-.07c-17.63-10.2-57.32-33-62.34-35.77a5.28 5.28 0 01-1.62-1.2 13.49 13.49 0 01-.14-2.63v-.52c0-3.49.09-46.29 0-60.82a32.05 32.05 0 001.51-45.81 40.43 40.43 0 0025.17-21.73h74.86a40.38 40.38 0 0025.16 21.73 32 32 0 00-8.85 22.15z" fill="#ffd90f"/><path d="M357.83 264.61l1.69 3.07h23.4a11.69 11.69 0 003.37-3.07c-4.61 1-20.92.75-23.69.75a14.89 14.89 0 01-4.76-.75M395.84 195.3c.53-1.07.83-1.2 2.09-1.14s1.37-.45 2.22-.4a1 1 0 011 .74s-.58-.7-1.45.06a3.65 3.65 0 01-2.9.64l-1 .54.12-.44M408.84 195.3c-.54-1.07-.82-1.2-2.08-1.14s-1.37-.45-2.22-.4a1 1 0 00-1 .74 1 1 0 011.45.06 3.68 3.68 0 002.91.64l1.05.54-.13-.44M400.24 199a7.21 7.21 0 002.16.13c.61-.13 1.24-.13 1.64-.21s.8 0 .1.29a4.63 4.63 0 01-1.65.61 4 4 0 01-1.64-.4c-.4-.21-.61-.61-.3-.51M399.41 201.51c1.65-.1 1.43 0 2.56-.1a27.87 27.87 0 012.87 0l.25.47a6.43 6.43 0 01-1.06 0 25.57 25.57 0 00-2.77 0 10.6 10.6 0 01-2 0l.17-.38M404 203.37c-.93 0-1.75-.43-2.47-.43s-1.33.74-.51.62M399.88 197.84l-2.05 2c-.3.33-.11.22-.11 1.26s-.61 1.2-.61 1.2 1.33-3.37 2.47-4.4M404.39 197.84l2.05 2c.3.33.1.22.1 1.26s.62 1.2.62 1.2-1.34-3.37-2.47-4.4" fill="#d18644"/><path d="M328.89 221.37c0 2.85 6.82 1 6.82 3.84m-2.19-11.37c-1.91 2.08 4.35 5.35 2.44 7.43m-.13-10.57c-1.57 2.35 5.14 4.58 3.57 7m-1.81-10.41c-1.17 2.57 5.8 3.69 4.63 6.29m-3.44-10c-.74 2.75 6.32 2.75 5.58 5.5m-5-9.33c-.3 2.83 6.67 1.72 6.37 4.55m-6.41-8.42c.16 2.82 6.86.62 7 3.46M338.7 192c.61 2.79 6.87-.46 7.48 2.3m-8.71-6c1 2.66 6.69-1.53 7.73 1.1m-9.56-4.5c1.44 2.43 6.38-2.64 7.82-.19m-10.16-2.93c1.82 2.16 5.88-3.59 7.69-1.41m-10.49-1.27c2.14 1.87 5.23-4.47 7.37-2.6m.86-8.64c-2.61 1.1 1.74 6.64-.87 7.76m4.43-9.6c-2.47 1.41 2.46 6.43 0 7.82m3.38-10c-2.31 1.63 3.15 6.1.83 7.75m2.24-10.31c-2.12 1.88 3.78 5.76 1.66 7.62m1.11-10.51c-1.9 2.1 4.39 5.31 2.47 7.41m0-10.57c-1.66 2.3 4.93 4.81 3.27 7.1m-1.16-10.49c-1.39 2.47 5.41 4.24 4 6.71m-1.81-11.48c-1.68 2.28 5.47 5 3.81 7.28m-32.68 63.58c-.28 2.82 6.69 1.68 6.4 4.5m-6.92 2.48c0 2.85 6.82 1 6.82 3.84m29.51-75c2.83 0 1-6.8 3.83-6.8m.89 6.8c2.84 0 1-6.8 3.82-6.8m.9 6.8c2.83 0 1-6.8 3.83-6.8m.88 6.8c2.84 0 1-6.8 3.84-6.8m.88 6.8c2.83 0 1-6.8 3.83-6.8m.89 6.8c2.84 0 1-6.8 3.83-6.8m.89 6.8c2.83 0 1-6.8 3.83-6.8m.88 6.8c2.84 0 1-6.8 3.84-6.8m.88 6.8c2.84 0 1-6.8 3.83-6.8m.89 6.8c2.84 0 1-6.8 3.83-6.8m.89 6.8c2.84 0 1-6.8 3.83-6.8m.89 6.8c2.84 0 1-6.8 3.83-6.8m.88 6.8c2.84 0 1-6.8 3.83-6.8m.89 6.8c2.85 0 1-6.8 3.83-6.8m.89 6.8c2.85 0 1-6.8 3.84-6.8m.88 6.8c2.84 0 1-6.8 3.83-6.8m-110.93 82.12c0 2.83 6.82 1 6.82 3.83m-6.82.33c0 2.83 6.82 1 6.82 3.82m-6.82.32c0 2.83 6.82 1 6.82 3.84m-6.82.33c0 2.83 6.82 1 6.82 3.82m-6.82.32c0 2.83 6.82 1 6.82 3.84m-6.82.32c0 2.85 6.82 1 6.82 3.83m-6.82.32c0 2.84 6.82 1 6.82 3.84m-6.82.31c0 2.82 6.82 1 6.82 3.83m-6.82.35c0 2.81 6.82 1 6.82 3.8m-6.82.34c0 2.82 6.82 1 6.82 3.84m-6.82.31c0 2.84 6.82 1 6.82 3.83m-6.82.31c0 2.83 6.82 1 6.82 3.84m-6.51.93c0 2.82 6.81 1 6.81 3.84m-2.09 9.37c2.45 1.45 4.28-5.37 6.72-4m-2.72 6.28c2.45 1.44 4.28-5.37 6.72-4m-2.73 6.28c2.46 1.41 4.28-5.4 6.72-4m-2.72 6.3c2.46 1.4 4.28-5.4 6.72-4M349.9 302c2.46 1.45 4.28-5.38 6.72-4m-2.72 6.29c2.46 1.44 4.28-5.38 6.72-4m-2.72 6.3c2.46 1.42 4.28-5.41 6.72-4m-2.73 6.3c2.47 1.41 4.28-5.41 6.72-4m-2.72 6.29c2.47 1.42 4.28-5.4 6.72-4m-2.73 6.25c2.47 1.44 4.28-5.37 6.72-4m-2.72 6.28c2.47 1.43 4.28-5.4 6.72-4m-2.72 6.3c2.47 1.39 4.28-5.42 6.72-4m-2.72 6.3c2.46 1.42 4.27-5.41 6.72-4M385.88 322.76c2.46 1.41 4.27-5.4 6.72-4m-2.73 6.25c2.46 1.45 4.27-5.36 6.72-4m-3.33 5.99c2.46 1.43 4.27-5.4 6.71-4m-71.43-38.19c.94 2.68 6.76-1.3 7.7 1.37m-6 3.2c2 2 5.51-4.14 7.52-2.14m-.4-111.92c-1-1.7-3-1.88-4.73-1.7a5.56 5.56 0 01-2.85-.39m141.74 48.18c0 2.85-6.81 1-6.81 3.84m2.17-11.37c1.92 2.08-4.34 5.35-2.43 7.43m.13-10.57c1.57 2.35-5.14 4.58-3.57 7m1.81-10.41c1.18 2.57-5.79 3.69-4.63 6.29m3.44-10c.75 2.75-6.32 2.75-5.57 5.5m5-9.33c.29 2.83-6.68 1.72-6.38 4.55m6.41-8.42c-.15 2.82-6.86.62-7 3.46m7.65-7.31c-.6 2.79-6.87-.46-7.47 2.3m8.72-6c-1 2.66-6.71-1.53-7.75 1.1m9.57-4.5c-1.45 2.45-6.38-2.6-7.82-.16m10.16-3c-1.83 2.16-5.89-3.59-7.69-1.41m10.48-1.31c-2.13 1.88-5.23-4.46-7.37-2.59m-.86-8.61c2.62 1.1-1.74 6.64.88 7.76m-4.43-9.6c2.47 1.41-2.45 6.43 0 7.82m-3.4-10c2.31 1.63-3.15 6.1-.83 7.75m-2.24-10.31c2.13 1.88-3.77 5.76-1.66 7.62m-1.13-10.51c1.9 2.1-4.38 5.31-2.47 7.41m0-10.57c1.66 2.3-4.92 4.81-3.26 7.1m1.15-10.49c1.4 2.47-5.42 4.24-4 6.71M471 217.92c.28 2.82-6.68 1.68-6.4 4.5m6.92 2.48c0 2.85-6.81 1-6.81 3.84m6.81.33c0 2.83-6.81 1-6.81 3.83m6.81.33c0 2.83-6.81 1-6.81 3.82m6.81.32c0 2.83-6.81 1-6.81 3.84m6.81.33c0 2.83-6.81 1-6.81 3.82m6.81.32c0 2.83-6.81 1-6.81 3.84m6.81.32c0 2.85-6.81 1-6.81 3.83m6.81.32c0 2.84-6.81 1-6.81 3.84m6.81.31c0 2.82-6.81 1-6.81 3.83m6.81.35c0 2.81-6.81 1-6.81 3.8m6.81.34c0 2.82-6.81 1-6.81 3.84m6.81.31c0 2.84-6.81 1-6.81 3.83m6.81.31c0 2.83-6.81 1-6.81 3.84m6.5.93c0 2.82-6.81 1-6.81 3.84m2.1 9.39c-2.47 1.41-4.27-5.41-6.73-4m2.73 6.3c-2.47 1.43-4.27-5.37-6.73-4m2.73 6.33c-2.46 1.38-4.27-5.43-6.72-4m2.72 6.3c-2.46 1.38-4.27-5.4-6.72-4m2.73 6.26c-2.46 1.43-4.27-5.4-6.72-4m2.72 6.29c-2.46 1.44-4.27-5.38-6.72-4m2.72 6.3c-2.46 1.39-4.27-5.42-6.72-4m2.73 6.3c-2.46 1.41-4.28-5.41-6.72-4m2.72 6.29c-2.46 1.4-4.28-5.41-6.72-4m2.73 6.28c-2.46 1.44-4.28-5.37-6.72-4m2.72 6.26c-2.46 1.42-4.28-5.38-6.72-4m2.72 6.31c-2.46 1.39-4.28-5.42-6.72-4m2.73 6.28c-2.46 1.41-4.28-5.4-6.72-4m2.72 6.3c-2.46 1.4-4.28-5.42-6.72-4m2.73 6.25c-2.47 1.45-4.28-5.37-6.72-4m3.32 5.87c-2.45 1.43-4.27-5.4-6.71-4m71.43-38.2c-.94 2.68-6.75-1.3-7.7 1.37m6.05 3.2c-2 2-5.51-4.12-7.52-2.14m.4-111.92c.95-1.7 3-1.88 4.73-1.7a5.54 5.54 0 002.84-.39m-107.29-19.26c1.32-.82-.76-5.84.18-6.41m75.08 7.78s4.45-4.55 4.53-6" fill="none" stroke="#000" stroke-linecap="round" stroke-width="1.02"/><path d="M406.91 206.84a11.23 11.23 0 005.77-9.32 10.44 10.44 0 10-20.88 0 9.85 9.85 0 008.36 10.09" fill="none" stroke="#d18644" stroke-width=".62"/><path d="M400.1 156.1h36.28a42.33 42.33 0 0022.94 20.62 34.09 34.09 0 003 45.76c-.06 14.28 0 56.48 0 60v2.15l-.69.43c-4.73 2.64-42.57 24.37-61.36 35.23h-.12c-18.79-10.86-56.63-32.59-61.36-35.23a6.74 6.74 0 01-.7-.43v-2.15c0-3.5.09-45.7 0-60a34.08 34.08 0 003-45.76A42.38 42.38 0 00364 156.1h36.12" fill="none" stroke="#000" stroke-width=".62"/><path d="M400.13 146.65h-42.45a33.17 33.17 0 01-26.4 23l-4 7.32.61.39a24.63 24.63 0 012.28 39.6l-1.52 1.66V283c0 3.88 0 7.23 5.59 10.35 6.41 3.55 58.78 33.67 66 37.85h0c7.2-4.18 59.57-34.3 66-37.85 5.61-3.12 5.6-6.45 5.59-10.35v-.51-63.86l-1.52-1.66a24.64 24.64 0 012.28-39.6l.62-.39-4.06-7.32c-12.46-2-22.6-11.78-26.4-23h-42.62z" fill="none" stroke="#000" stroke-width=".62"/><path d="M400.17 154.08h37.46a40.38 40.38 0 0025.16 21.73 32 32 0 001.52 45.81c-.07 14.54 0 57.33 0 60.82v.56a12.12 12.12 0 01-.14 2.64 5.29 5.29 0 01-1.61 1.2c-5 2.78-44.71 25.58-62.36 35.76h-.07c-17.64-10.2-57.32-33-62.35-35.76a5.11 5.11 0 01-1.61-1.2 13.55 13.55 0 01-.14-2.64v-.52c0-3.49.09-46.28 0-60.82a32.08 32.08 0 001.51-45.81 40.45 40.45 0 0025.17-21.73h37.41z" fill="none" stroke="#000" stroke-width=".62"/><path fill="none" stroke="#000" stroke-width=".62" d="M338.08 259.06l.16-.4h20.36M387.21 258.64h32.57M422.34 258.64h4M432.19 258.64h29.53l.56.42M354.9 294.24c1.25-.63 5.75-2.82 9.59-3.18 4.51-.39 5.74 1.25 9.44.81s15.59-3.67 15.59-3.67c6.15-2.88-3.29-3.71-3.29-3.71l-4.51-.41s-.81-.4-4.51-2.86-4.51-1.23-9 .41a3.26 3.26 0 01-.72.25h-.1l-.58.2h-.11l-.49.15h-.07l-.44.13h0l-.38.07h-.05a.85.85 0 01-.31.06H364.35v0H364c-.58-.1-1.14-.36-2.36-.54-2.87-.39-7.39 2.89-7.39 2.89s-.82 1.23-5.32 0-3.7-2.06-10.67-2.06l-.19.13M462.3 284.61l-1-.53s-5.75.41-4.92-3.68-3.27.82-3.27.82-2.88-.42-8.62-4.11-3.7 1.62-3.7 1.62a16.4 16.4 0 01-3.35 1.37h0l-.26.06h-.22a2.4 2.4 0 01-.28 0 1.52 1.52 0 01-.2.06h-.49a3.77 3.77 0 01-.47 0c-2.46 0-8.21 2.47-8.21 2.47a4.42 4.42 0 01-4.91 0c-2.88-1.63-6.56-3.27-10.25-2.86s-5.75 5.74-5.75 5.74-2 1.65.41 4.1-.82 1.64-4.5 2.45-4.53 0-7.8 0c-9 .42-19.28 4.1-9.85 5.34s25.44.82 30 1.23-2.47 4.12-11.9 4.12-18.47-.83-19.28-2.47-6.56-3.7-7.79-1.63-7.79 2.45-7.79 2.45M357.83 264.61l1.69 3.07h23.4a11.69 11.69 0 003.37-3.07c-4.61 1-20.92.75-23.69.75a14.89 14.89 0 01-4.76-.75z"/><path fill="none" stroke="#000" stroke-width=".62" d="M358.13 264.75l-4.3-.78 4.77-4.91M384.6 259.19c.15 2.14-.78 2.64-1.24 4l-1.53 1.68M387.83 259.67l2.46 3.08-4 1.86M370.75 243.21v3.38M370.44 249.65l-.15.79M370.44 256.44l-.31 2.3M370.13 262.74l.16 2.46M363.52 249.98v-3.55M363.68 255.2l-.16 2.64M380.13 247.36v2.62M380.13 252.44v1.08M379.83 257.52v1.84M379.83 263.67l.15 1.39M359.87 257.71l1.88-2.51M381.22 263.36l.61 1.54M373.68 262.12l-1.76 3.16M375.21 258.12l-4.3 7.26M373.98 255.97l-1.54 2.93"/><path d="M375.21 263.2c1.85-2.61.92-3.83.92-3.83l8.47-.18 1.84 5.1a6.13 6.13 0 01-2.94-.77l-8.44.15-1.73 1.71M375.36 258c2.77-.91 7.85-.13 7.85-.13a4.58 4.58 0 00.15-4.32l-8.3-.6s1.68.92.28 5.07h0v0zM377.06 252.14l5.06.45a3.1 3.1 0 00.63-2.3l-5.54-.31s.29.46-.15 2.16zM384.44 255.67l.77 4.18 2.62-.18-2.47-4h-.92zM373.68 262.29v-3.09l-10.16-1.36s.92 1.22 0 5.53z" fill="none" stroke="#000" stroke-width=".62"/><path d="M365.83 257.52a7.72 7.72 0 00.93-6.91l9.22.29s-1.06.15-1.53 2.62L374 256zM374.6 250.61c-3.54-.77-7.7-1.24-7.7-1.24l.16-2.76 6.45.47a6.85 6.85 0 011.08 3.53z" fill="none" stroke="#000" stroke-width=".62"/><path d="M366.44 255.67l-6-.47a8.57 8.57 0 00-.77-5.36l6.77.77M363.22 257.84l-4.77-.19c.77 3.87 1.07 4.18 0 6.18l4.77-.77v2.16" fill="none" stroke="#000" stroke-width=".62"/><path d="M422.34 272h13.22a2.68 2.68 0 001-3.18 146 146 0 01-15.18.72s-.31.83.92 2.46z" fill="#d18644" stroke="#000" stroke-width=".62"/><path fill="none" stroke="#000" stroke-width=".62" d="M422.86 269.51l-8.01-3.17M425.32 269.41v-21.02M426.24 253.53v15.35l12.41-2.35M436.19 267.06c-5.34-6.57-5.23-15.57-5.23-15.57"/><path d="M423.16 253.52s-5.23 7.29-7.48 12.92l8.83 2.15s-3.51-10.78-1.35-15.07z" fill="#fff" stroke="#000" stroke-width=".62"/><path fill="none" stroke="#000" stroke-width=".62" d="M423.16 253.52l2.15-4.4M425.31 254.18l6.68-3.33M337.83 229.12a20.65 20.65 0 014.92-3.28c3.27-1.65 4.5-2.47 7-.82a22.43 22.43 0 004.91 2.45s3.29-2.06 6.16-4.11 2-3.28 5.74-2.46 12.71-1.63 16-3.28 4.92.43 7.79-3.27 2.87-3.3 7-4.92 3.27-4.5 8.61-2.88 8.2.82 16 7 12.72 8.21 16 11.48a43.06 43.06 0 006.57 5.35s3.28-1.25 6.56-2.88 4.51-2.86 7-1.24a13.55 13.55 0 004.51 2"/><path d="M444.91 230.33a57.08 57.08 0 007.37 5.73c2.88 1.65 9.44 3.3 9.44 3.3" fill="none" stroke="#000" stroke-width=".62"/><path d="M424.09 130.05a26.11 26.11 0 10-44.06.09 43.64 43.64 0 0022 5.65 48.54 48.54 0 0022-5.74" fill="#0077c8"/><path d="M398 98.76c-.61-1.25-.3-1.68.16-2.76a2.4 2.4 0 00.14-2c-.14-.62-1.38-1.39.46-.93a8.69 8.69 0 002.61.29c1.09.17 1.7.93 1.24 1.7s0 1.23-1.24 1.84-1.83.92-2.14 1.39-1.24.47-1.24.47M395.06 97.67c.46-.31.15-.79.77-.91s.61-.15.45-1.09.15-1.08-.76-1.53-1.7-.62-1.08.13a2.06 2.06 0 01.47 1.56l-1.09 1s.78 1.1 1.24.78M418 130.74a4.73 4.73 0 01.63-3.23c.61-1.19 1.22-2.45.15-3.24a1.76 1.76 0 01-.93-2c0-.77 1.08-1.39-.76-1.53a8.48 8.48 0 00-4.46.93 3 3 0 01-3.54-.93 7.26 7.26 0 01-1.54-2.3c-.31-.62.15-1.56-.16-2.63a3.89 3.89 0 01.61-3.24 14.2 14.2 0 011.55-2l.45-1.36s-.3-.62 1.09-.77a8.45 8.45 0 003.08-1.25c.92-.45.92-.15 1.38.46s.6.31 1.69.62 1.38.15 1.23-.31.15-.46 1.07-.62 1.84-.46 1.54-1.52-.3-.94-1.08-.61-.76 0-1.22-.64-.62-1.07 0-1.54 1.53-.91.3-1.53-2.77-.78-2 .48 1.23 1.21.61 2.12.46 2.3-.46 1.4.46-1.54-1.85-2.31-2.3 0-1.07.62 2 1.22 1.84 1.84-.6-.15-.6-.15-.46-.29-1.54-.93-2.05-.47-2.15.64c-.16 1.67.46 2-1.23 2.44s-1.54.16-1.84-.91-1.09-1.86.45-1.86 1.85-.45 1.08-1.06-.77-.63-.16-1.55.47-1.68 1.7-2.15 1.23-1.24 1.08-1.69-.62-.62-1.39-1.08-2-1.83-1.39-.78a9.89 9.89 0 001.54 2c.3.29-.31 1.19-.91.43s-.63.33-1.24-.28a3 3 0 01-.92-2.47c.16-.92-.63-1.7.61-1.7s1.85 0 1.85-.91.3-.63-1.7-1.39-3.69-1.06-3.84-1.82v-.25a26.12 26.12 0 0120.56 15.7l-.26-.71a21.68 21.68 0 00.16 2.46 8.5 8.5 0 01-.16 3.85c-.44 1.56-.75.15-1.38-1.06a20 20 0 00-2.45-3.23l-.62.44s1.54 2 2.62 3.54 1.68 2.46 1.68 2.46l.92-1.23a16.31 16.31 0 01-.31 5.21 19.72 19.72 0 00-1.06 5.23c-.3 2.77-.62 2.16-1.08 3.39a36.37 36.37 0 01-2.14 4.15l-2.32 1.63-1.71-1.29" fill="#63666a"/><path d="M386.44 131.68a5 5 0 00-1.53-2.62 10.41 10.41 0 01-2.47-4.47c-.62-1.69-.77-2.61-.15-3.69s1.07-1.23 0-2.16-1.54-.58-1.69-2.62-1.06-2.45-1.68-3.66-1.08-1.4-.32-4 .47-5.07 1.09-6.12l-.71 1.52a26.14 26.14 0 0113.39-12l.11.67a2.75 2.75 0 00.43 1.78c.91 1.71 1.07 1.38-1.08 2s-2.61.59-2.3 2a4.84 4.84 0 010 2.32 14.46 14.46 0 011.38-1.24c.61-.47.61-.76 1.21-1.39s.94.16 1.4.31.15-.62.62 1.55.91 4.45.14 3.68-.14-1.07-1.38-1.23a2.1 2.1 0 00-1.69.3s1.07 1.08 0 1.41-1.07-.33-1.68.27-1.24.18-2.17 1.24a12.55 12.55 0 01-2 1.85s-1.07-.13-1.07 1.23-.47 2-.62 1.06-.15-1.38-1.39-1.85-2.16-.76-2.46.94-.14 4.14.62 3.24 1.68-.81 1 .26c-1 1.45-.48 1.57 0 2.17s.31.47.16 1.4 0 1.7.45 1.7.63.63 1.39 0a1.71 1.71 0 012.46.14c.92.76 1.85.16 2.92 1.86s1.23 1.36 2.16 1.85.15-.48 1.69 1.68 1.85 1.84 3.38 2.47 4.93 1.21 3.39 2.59-1.39 1.24-1.54 2.17a2.23 2.23 0 01-.46 1.22 9.37 9.37 0 00-4.76-1.27 22.84 22.84 0 00-5.94 2l-.22-.6" fill="#63666a"/><path d="M397.93 88.61a9 9 0 01-.61-2.26l-1.68.13a7.57 7.57 0 01.44 2.13c0 1.39.28 2.29-1.33 2.75s-2.15.78-2.39 2.32c.7-.7 1.23-1.7 1.93-1.07a6.08 6.08 0 001.69 1s-1.07-1.38.46-1.85a17.13 17.13 0 014.24-.39s-1.94-.89-2.24-1.52a10.58 10.58 0 01-.52-1.23M408.8 89s-.2.83-.61-2.47a4.21 4.21 0 00-.14-.83l-1.46.22a10.33 10.33 0 00.36 2.47c.15.61-.9.82-1.51 1.59 0 0 2.39-.3 2.16.86a3.22 3.22 0 00.23 2 5.1 5.1 0 011.09-.76 12.78 12.78 0 012 .46 3.06 3.06 0 011.76 1.15 2.54 2.54 0 00-1.38-3.07 14.86 14.86 0 01-2.38-1.31" fill="#f2a900"/><path d="M424.09 130.05a26.12 26.12 0 00-11.33-37.76M407.53 90.55A26.22 26.22 0 00402 90a30.17 30.17 0 00-3.17.16M395.84 90.72A26.11 26.11 0 00380 130.14" fill="none" stroke="#000" stroke-width=".62"/><path d="M395.64 86.48a7.57 7.57 0 01.44 2.13c0 1.37.28 2.29-1.33 2.76s-2.15.77-2.39 2.31c.7-.68 1.23-1.21 1.93-.63a2.44 2.44 0 001.69.54s-1.07-1.37.46-1.84a16.84 16.84 0 014.23-.38s-1.93-.9-2.23-1.54a10.05 10.05 0 01-.52-1.22 9 9 0 01-.61-2.26M406.6 85.92a10.51 10.51 0 00.36 2.49c.14.59-.9.82-1.51 1.57 0 0 2.38-.3 2.16.86a3.22 3.22 0 00.22 2 4.88 4.88 0 011.08-.76 12.5 12.5 0 012 .46 3 3 0 011.77 1.17 2.57 2.57 0 00-1.39-3.09 15 15 0 01-2.37-1.31" fill="none" stroke="#000" stroke-width=".62"/><path d="M387.65 133a8.8 8.8 0 00-6.55-2.73c-1.71 0-3.17 1.23-5.22 1.9l.86.83c2 1.88 1.92 5.12 5.87 5.93s10.92 0 10.92 0c-3.7-.72-3.86-4-5.88-5.93z" fill="#f2a900" stroke="#000" stroke-width=".62"/><path d="M382.59 138.88c-3.69-.72-3.86-4-5.88-5.92a8.86 8.86 0 00-6.54-2.74c-3.09 0-4.66 1.64-4.35 4.55s2.62 4.11 5.54 4.11zM398.56 133a8.8 8.8 0 00-6.53-2.73c-1.72 0-3.19 1.23-5.24 1.9.25.24.53.52.87.83 2 1.88 2.17 5.36 5.88 5.93s10.9 0 10.9 0c-3.7-.72-3.86-4-5.88-5.93z" fill="#0077c8" stroke="#000" stroke-width=".62"/><path d="M409.48 133a8.76 8.76 0 00-6.53-2.73c-1.71 0-3.18 1.23-5.23 1.9.24.24.54.52.87.83 2 1.88 2.39 5.29 5.87 5.93s10.91 0 10.91 0c-3.7-.72-3.86-4-5.89-5.93z" fill="#ffd90f" stroke="#000" stroke-width=".62"/><path d="M420.42 133a8.81 8.81 0 00-6.54-2.73c-1.71 0-3.19 1.23-5.23 1.9.25.24.53.52.87.83 2 1.88 2.49 5.67 5.87 5.93s10.9 0 10.9 0c-3.69-.72-3.85-4-5.87-5.93z" fill="#0077c8" stroke="#000" stroke-width=".62"/><path d="M408.8 89s-.2.83-.61-2.47a4.21 4.21 0 00-.14-.83" fill="none" stroke="#000" stroke-width=".62"/><path d="M406.61 86.05c-.06-.62-.35-1-1.91-2.17-2.88-2-4.1-6.16-4.1-6.16l-1.65-.4s-.4.62.21 3.48 1 4.09 1 4.09l-1.85-1.21s-.82.2-1 1.64a4.2 4.2 0 000 1.12l-2 .26a1 1 0 00-1-.55c-1.43 0-.82.82-2-1.86s-2.47-3.67-1.85-4.91-.4-2.45-5.33-.82-3.07.41-7-.64-9.43-4.69-9.43-4.69l-2.88-.41.81-1.44h-3.49l.62-1.64-3.69-.4.63-1.25-2.68-.59.83-1.24-3.5-.62.83-1.22-3.7-.82.4-2.05-2.66-.6.41-1.43a8 8 0 01-3.27-2.06c.21-1.24.61-1.86 1.63-1.86a7.52 7.52 0 01-4.1-1.21A59.35 59.35 0 01339 48c-.82-1.22-1.63-2.67-1.63-2.67a6.57 6.57 0 01-3.28-2.47c-1.23-1.83-1.43-2-1.43-2a22 22 0 00-3.9-3.28c-2.46-1.63-2.66-3.27-2.66-3.27s11.28 3.06 19.48 4.5 22.16 3.89 26.46 7 3.09 4.92 4.11 8.41 2.05 4.71 6.36 5.34c5.12.2 9.63 1.82 9-7.39s-2-8-3.69-8.62-4.11.43-4.11.43a3.65 3.65 0 014.3-2.69 6.68 6.68 0 017.8-.83c3.29 1.65 4.72 2.47 4.72 2.47l-1.64.82 1.64 3.08h-1.64a71.23 71.23 0 003.28 8 6.47 6.47 0 0010 1c5.95-6.15 2-10 6.76-11.47s14-2.47 24.62-3.71S462.69 38 462.69 38a7.56 7.56 0 01-4.51 4.91 43 43 0 01-7 2.06l-.18 1.4-1.64.84.83 1a6.1 6.1 0 00-2.87 3.06 6 6 0 01-3.48 3.08v.22l.4 1.41-2.24.22.21 1.44-1.84.8v1.26l-1.24.39.61 2.06-1.43.41.82 1.23-1.84.61-.2 2.25h-2.49l.83 1.63-.83.41.22 1.24-2.67.4-.4 1.23-3.28.21-.21 1.83-2.26.4v1.45s-.21 1-2.26.82-2.46.41-2.46.41.62.82-1.65 1.42S418 81 416.19 81s-6.16.63-6.16.63.41 2.88-1 3.08-1.42-1-1.12 1.33z" fill="#b3875a" stroke="#000" stroke-width=".62"/><path d="M405.71 60.48c1.85 2.67 11.49.63 16.21-6.33s5.74-7 10.45-8.42c4.24-1.29 19.4-4.25 27.94-7-3.25.5-9.46 1.43-16.67 2.26l-1.48.17c-10 1.16-18.6 2.15-23.08 3.52-2.13.65-2.34 1.77-2.68 3.62a13.43 13.43 0 01-3.95 7.7 6.49 6.49 0 01-5.68 2 7.37 7.37 0 01-2.77-1 10.91 10.91 0 001.71 3.48zM375.85 54.27a17.22 17.22 0 01-.5-2.6c-.27-2-.47-3.49-3.49-5.65-4.26-3.05-18.62-5.56-26.33-6.91-6.62-1.17-15.33-3.41-18.39-4.21 2.74 2.67 6.16 3 12.13 4.48 6.57 1.63 17.22 4.5 17.22 4.5 9.45 2.66 7.19 3.5 13.95 10.86s8.81 7.59 15 7 4.52-.41 4.71 1.63a17.91 17.91 0 00.83 3.7l4.92-.62c3.29-1.64 4.52-4.52 4.73-8.43.12-2.4.72-3.15 1.16-3.39a75.48 75.48 0 01-3.15-7.73l-.14-.41h1.5l-1.55-2.9 1.41-.7c-.68-.37-2-1.1-4.2-2.18a6.32 6.32 0 00-7.11.54l1.13.91-.44 1.41c.58.18 1.1.56 1.53 1.8a26.1 26.1 0 011 6.75c.23 3.43-.23 5.59-1.42 6.78-1.41 1.4-3.57 1.24-6.08 1-.6 0-1.22-.09-1.85-.12-4.42-.6-5.51-1.91-6.57-5.51z" fill="#ffe8b8"/><path d="M389.1 40.18c1.85 0 3.09-.19 4.72 1s-.61.23-2.25 0a4.31 4.31 0 01-2.47-1"/><path fill="none" stroke="#000" stroke-width=".62" d="M332.66 40.85l3.12.36M337.37 45.36l3.95-.04M339 48.03l7.04.77M342.69 52.08l7.04.19M348.59 55.65l5.24-1.09M350.68 59.52l5.6-1.29M352.93 61.55l4.39-1.05M360.39 62.97l-4.16 1.45M358.96 66.23l3.89-1.41M360.75 68.09l3.95-2.04M363.61 69.71l3.96-2.24M366.68 71.38l3.96-2.27M368.75 73.23l3.53-2.27M370.22 74.28a14.45 14.45 0 004.53-2.28M372.63 75.55a8.93 8.93 0 004.18-2.12M375.67 77c1.83-.25 4.21-2.59 4.21-2.59M418.44 78.79l-2.66-1.07M421.29 76.69l-2.85-1.22M426.01 74.01l-4.5-1.61M428.47 71.77l-5.09-1.62M432.15 70.33l-8.37-2.45M434.6 68.69l-5.28-1.63M434.65 66.64l-5.33-1.41M437.27 64.4l-5.08-1.25M438.29 62.56l-4.47-1.04M439.11 60.09l-3.44-.82M440.35 58.44l-3.44-.62M441.98 56.2l-3.63-.82M443.83 54.36l-3.85-.84M447.56 50.64l-4.91.23M449.35 47.21l-3.42-.06M451.47 44.91l-4.11.2"/><path d="M388.13 41.57H388a3.38 3.38 0 00-3.77 1.88 6.58 6.58 0 013.46-.28l.33.09a4.18 4.18 0 00.58.16l.39.09.29.07.44-1.47-1.13-.86c-.12.09-.24.16-.36.26z" fill="#f2a900"/><path d="M406.94 78.55a3.8 3.8 0 001.24-1.42 39.19 39.19 0 01-1.24-5.76c-.4-3.06-4.91-3.67-5.53-2.05s-1.73 5.39-.94 8.05l.37.09.05.17s1.23 4.05 4 6c1.33 1 1.83 1.47 2 2.1h.66c-.13-1-.15-1.23.06-1.4h.07c-.13-.41-.29-.88-.5-1.42-1.05-2.73-1.26-3.54-.24-4.36zM395.54 86.37l1.45-.19a3.86 3.86 0 010-.91c.23-1.62 1.21-1.88 1.25-1.89h.13l1.26.82c-.18-.66-.45-1.73-.79-3.31-.61-2.84-.25-3.58-.17-3.7l.12-.19h.15a8.22 8.22 0 00-1.86-5c-2-2.47-6.76-5.12-7-1a41.25 41.25 0 01-.72 6.41l.3.15a1.72 1.72 0 011 .49 1.31 1.31 0 01.08 1.49 1.1 1.1 0 00-.12.71c.2.9 1.07 2 2 3.86a14.26 14.26 0 00.88 1.86h.09a3.24 3.24 0 01.8-.09 1.47 1.47 0 01.77.2 1 1 0 01.38.29z" fill="#ffe8b8"/><path d="M424.79 130.22c-1.71 0-3.17 1.23-5.23 1.9.25.24.53.52.87.83 2 1.88 2.18 5.21 5.87 5.93 0 0 6.91 1.49 6.91-2.78 0-3.57-4-5.62-8.42-5.86v0z" fill="#f2a900" stroke="#000" stroke-width=".62"/><path d="M403.52 97.37c.77-.29 1.86 0 .92.46s-.92-.46-.92-.46M408.44 102.46c0-.79.47-1.1-.31-1.7s-1.39-1.53-.31-.92 2.78 1.21 1.85 2-1.23.62-1.23.62" fill="#63666a"/><path d="M407.06 102.14c0-.93.91-1.69.76-.78s-.76.78-.76.78M384.63 114.37c.61-.35.12-.7.81-.54s.62.15.92.5.5.69-.11.52-.45.07-.89-.07a2.39 2.39 0 01-.73-.41M383.79 112.83c-.25-1.08-.62-1.26-1.08-1.1s-1-.45-.43-.45.63-.26 1.43.55 1.61 1.88.92 1.74-.77-.4-.84-.74" fill="#63666a"/><path d="M492.89 132.64c-.62-1.26-2.16-2.76-.45-3.74.77-1.53-1.38-1.7-.31-2.91s1.55-4.6 3.39-5.53 3.23-.62 2.31-2.94a6.43 6.43 0 01.13-6c1.09-1.85 1.54-2.89 2.63-3.52a2.44 2.44 0 001.23-1.55v-2.62a3.94 3.94 0 011.07-2.78c1.22-1.38 2.45-2.76 4.15-2.76a7.7 7.7 0 015.22 1.38c1.84 1.38 2.31 1.38 2.77 3.21l1.08 3.12s-.45.9.79 3.84 2 4.43 2.15 8-.31 4 1.22 5.37 2.15 1.07 2.92 3.39 1.08 3.06.46 3.38a1.25 1.25 0 00-.77 1.39c.16.45 1.11 2.32 1.11 2.32" fill="#d18644" stroke="#000" stroke-width=".62"/><path d="M498.58 145.79l1.7-16.18 2.27-.81a13 13 0 001.22-5.74 27.17 27.17 0 00-.61-5.93l-1.44-.64s2-1.21 1.86-2a10.41 10.41 0 01-.21-2.06l1.23-4.73h0c.41-2.24 1.23-2 1.85-.82s2.67.21 3.08-1.42 1.64-1 1.85-.2a13.83 13.83 0 001.44 2.65l2.35 5.07s.1.74.21 1.3c.23 1.34.61 1.32.42 3.07-.31 2.58-1.13 1.86-1.13 5.34a56 56 0 01-.41 6.56l2.21.94 6.82 13.8" fill="#ffd9ee" stroke="#000" stroke-width=".62"/><path d="M507.06 119.59c.82-.83 1-.83 2.26-.83s1.43.32 2 .09 1.43.72 1.43.72a5.26 5.26 0 00-1.85.43c-1 .39-1.22-.24-2.05-.24a12.08 12.08 0 01-1.84-.19" fill="#ff3515"/><path d="M514.71 121.37s-1.5 3.75-4.17 3.53a11.55 11.55 0 01-4.51-1.25" fill="none" stroke="#000" stroke-width=".62"/><path d="M502.13 106.24c3.09-1.65 5.75-2.88 7.39-2.46s6.57 2 6.57 2 .35-2.21-.83-2.66c-4.72-1.85-7.78-2.68-10.46-1s-.43.78-2.67 1.64c-.81.32-.76 2.95 0 2.48z" fill="#f2a900" stroke="#000" stroke-width=".62"/><path d="M515.21 113.08s2.15 1.82 1.7-.32-.79-2.32-2-3.86-1.84-.92-1.84-.92h-8.77c-.92-.16-1.23.9-1.85 2.29s-.92 2.3-.92 2.3.16 0 1.85-.15z" fill="#fff" stroke="#000" stroke-width=".62"/><path d="M508.29 116.08c1 .63.82.63 1.64.41l1.63-.41-.4-1.64s2 1.64.82 2a4.34 4.34 0 01-2.66.41 1.37 1.37 0 01-1-.82" fill="#d18644"/><path d="M462.6 307.82a13.15 13.15 0 012.93-2.6c1.85-1.23 2.46-1.54 3.07-4s.93-2.76 3.38-5.85 3.07-6.76 3.39-12.6 1.23-30.45 1.53-39.72-.61-49.21 0-53.53 0-5.23.32-6.76-1.24-4.6-1.24-4.6l18.8-37.93 36.59 15.61 6.45 15.84s5.23 44.9 5.84 48.32-2.15.61-1.85 3.68 3.09 4.91.31 7.08-4.92 2.45-5.22 7.67.92 48 1.84 55.07.93 8 3.38 10.47a16.26 16.26 0 013.39 4.62" fill="#ff3515" stroke="#000" stroke-width=".62"/><path d="M478.1 300.11l-2.89 5.58s-3.55 4.13-.77 6.13 3.84 3.7 6.92 1.68a14.56 14.56 0 004.46-3.84 8.14 8.14 0 012.3-2M513.82 301.94l-3.69 6.21c5.08 4.14 7.08 5.35 10.62 5.05s4-.61 4-.61l-.63-1.84s.48-.93-.76-1.82-3.54-2.32-3.54-2.32" fill="#d18644" stroke="#000" stroke-width=".62"/><path d="M482.6 303.2l-2 2.62a11.56 11.56 0 00-3.39-1.67l2.41-3.52M483.67 304.44l-1.39 2a3.78 3.78 0 011.85 1.85c.47 1.23.31.64.31.64a2.55 2.55 0 01.63-.94c.44-.47 1.37-1.7 1.37-1.7M518 305.38c-1.85.48-4.21 2.91-4.21 2.91a8.34 8.34 0 001.85 1.53 4.45 4.45 0 002.77 1.07c.76 0 .29-.14 1.24.15s1.05.93 1.68.32.45-.32 1.07-.32h1.05l.64-.28s.48-.93-.76-1.82-3.54-2.32-3.54-2.32" fill="#ffd9ee" stroke="#000" stroke-width=".62"/><path fill="#bbbcbc" stroke="#000" stroke-width=".62" d="M537.97 149.83l.77-23.22 1.7-.15.47 23.53"/><path d="M540.91 150l-.25-12.37s-2 .12-2.34-1.57a8.07 8.07 0 01-.2-2.37s-1.72-.34-1.26-1l.34-.58s-1.85-1.7 0-1.82 3.24-.16 3.7-.16.61 0 1.84 1.36 1.85 1.09 2.31 4a48.45 48.45 0 01-.15 14.78l-.46 2.14c-1.69 6.76-4.46 17.4-7.07 20s-4.61 2.15-4.93-1.06-.45-4.77-.45-4.77l1.53-1" fill="#ffd9ee" stroke="#000" stroke-width=".62"/><path fill="none" stroke="#000" stroke-width=".62" d="M538.12 133.68l1.85-.47M537.2 132.14l2.01-.48M538.44 135.7l1.38-.3"/><path d="M539.58 127a1.53 1.53 0 10-1.52-1.52 1.52 1.52 0 001.52 1.52z" fill="#bbbcbc" stroke="#000" stroke-width=".62"/><path d="M439.44 139.06s.09 2.31.09 3.24 1.77 1.94 1.77.06-.07-3.61-.07-3.61" fill="#ffd100" stroke="#000" stroke-width=".62"/><path d="M442.62 134.42s-3.67-1.42-4.69-2-2.87-.41-2.26.82a5.35 5.35 0 01.52 3.1c0 1.31 0 2.43 1.13 2.53a16.91 16.91 0 002.88-.13" fill="#ffd9ee" stroke="#000" stroke-width=".62"/><path fill="#fff" stroke="#000" stroke-width=".62" d="M442.28 129.21l-1.23-64.15h-1.23l-1.23 64.15"/><path d="M475.49 176.13s-1.83-6.21-2.25-8.86l5.43 1.78s-.55 4.46-3.18 7.08" fill="#b3875a"/><path d="M473.24 167.27a50.7 50.7 0 002.14 9.15" fill="none" stroke="#000" stroke-width=".62"/><path d="M436.68 131.84l5.84 2.3 1.38-2.69-7.22.36"/><path d="M479.16 169.22a36 36 0 01-10.16-4.31c-5-3.18-17.78-20.81-19.64-23s-1.54-.86-5-1.76-3.08-1.72-3.08-1.72l.11-.1c-1.33.87-1.23.32-1.87-.35s.92-1.36 1.52-1.85 1.12-.56 1.54-1.7 1-2.43 1-2.43 5.53.91 8 4 4.62 4.33 9.24 8.62 9.54 8.3 9.54 8.3l11.61 4.64z" fill="#ffd9ee" stroke="#000" stroke-width=".62"/><path d="M535.72 150.08c-1.66-1.66-2.57-4-3.6-7.15a36.58 36.58 0 00-3.06-7.09c-1.09-2.76-8.94-4.6-11.09-5.52a5.47 5.47 0 00-2.32-.51s.93.28 1.47 3.9c.83 4.53 1.85 8.83 1.85 8.83l-14.17.6s-1.64-8.61-4.52-13.53c0 0-12.15 1.75-14 4.83a16.46 16.46 0 01-2.15 5.68 17 17 0 00-2.13 4.18s2.47 8-.61 10.14a38.31 38.31 0 01-4 2.6s5.51 10.81-2 19.4c0 0 2 4 3.85 2.47s.3-2.94 2.62-6.76 10.75-15.69 10.75-15.69 3.23 8.74 1.85 12.47-1.85 5.51-.61 6.29l-1.85 6.6a32.42 32.42 0 01-2.16 7.07c-1.54 3.38-1.54 8-2.75 19.06a70 70 0 00.61 22.17c.91 6.13-.61 7.39-1.85 17.51s-1.85 17.88-3.08 24.62-1.54 8.94-.92 13.22-1.23 6.46-3.08 9.85-3.7 6.76-3.7 10.14c1.55-3.36 4.61-4.9 7.39-2.46s5.84 4.63 5.84 4.63l20 1.22a10.74 10.74 0 005.22-2.77c2.77-2.45 3.08-2.15 4.93-.31s4.91.91 4.91.91a12.88 12.88 0 014-3.05c2.15-.93-1.54-18.16-1.54-28.31s.93-36 1.86-42.17l2.44-57.15a49.87 49.87 0 01.93-9.22c.91-4.14.29.32 1.38 0s1.53-2.14 2.3-4.59 2.16-3.08 3.08-6.17c.65-2.18 1.16-2.9.51-3.71" fill="#f2a900" stroke="#000" stroke-width=".62"/><path d="M495.09 162.36c.62-1.41.62-1.41.32-3.24s-.47-2 0-3.68.61-.62.3-3.69-.15-1.54-1.39-2.32-1.85-.62-.92-3.07 2.31-1.71 1.38-4.47-2.16-3.84-1.69-4.3-.47 1.67-.77 4.3 0 3.08-.32 5.85-.76 4.47-.3 5a18.91 18.91 0 011.24 3.24l2 6.76M500.6 297.83c2.46-16 4.91-29.84 5.84-34.47s2.77-10.77 2.77-17.22.3-8.31 1.84-16.32a103 103 0 002.16-21.82 104.7 104.7 0 00-1.85-17.56s1.53-1.53 2.14 1.85 1.24 4 1.85 2.15 1.24-3.07 2.15-.92 2.17 2.16 2.17 2.16l.92-.63 1.53 1.53 2.16-2.14 1.84-3.07a24.47 24.47 0 01-.92 10.76c-1.84 5.55-1.84 4.31-1.84 8.31a33.06 33.06 0 00.31 5.56s-.92.56-1.23-3.39-.93-7.09-1.85.91-4 15.69-2.77 7.38 2.15-18.46 0-16.61-3.08-.29-3.38 7.39.62 7.37-.62 12 0 6.16-1.54 15.1-2.46 8.61-2.77 14.44.93 9.21.31 16.92-.92 8.61-2.46 9.24-.91 0-1.53 7.37-1.54 12.63-1.54 12.63l-3.69-.31M524.64 232s-2.46 15.37-3.38 28.59-.31 22.15-1.85 28.3a33.3 33.3 0 00-.3 12.62s-.31 2.46-1.24-2.45-4-11.38-2.75-4.91 1.83 9.53 1.83 9.53 2.17 2.47 4 1.85.91-.94 2.45-3.38 2.47-.32.92-8.63.32-21.22.93-26.78-.31-6.13-.31-16-.3-18.76-.3-18.76M496.6 297.83c2.63-7 4.61-17.53 5.23-23.69s.61-14.15-.93-5.85-3.08 15.39-4 22.46-1.24 9.51-.31 7.08" fill="#b3875a"/><path d="M500.28 259.36c.32-5.53 1.24-6.75 3.09-11.38s1.23-4.31 2.75-12.31 2.47-11.67 2.77-16.3a29.1 29.1 0 01.93-6.45s-.31 1.54-2.77 10.45-3.7 12-4.61 17.53-.92 6.79-2.77 11.39-.92 4-1.23 8 1.23 1.85 1.84-.93M481.51 172c.62-3.36.32-5.24-.61-8.91s-1.54-5.54-1.54-5.54.3.31 1.24 0 .91-.93 2.15 1.84.92 2.79.3 5.55-1.54 7.06-1.54 7.06M486.13 162.75c1.24-1.25 1.55-.6 1.55-4.6s-.92-4.32-.61-6.18-.31-3.06-.94.33-.3 4-.61 6.14-.61 5.24-.61 5.24l1.22-.93M509.68 148.73s-.32 4.63-4.61 4.77a61.23 61.23 0 01-6.31 0 51.61 51.61 0 005.68 1.38 6.73 6.73 0 003.69-.44l1.55-4.76M528.51 152.14a5.06 5.06 0 01-.38 1.23 6.52 6.52 0 01-1.84 2.62s1.69 1.69 2.15 8.3-.61 6.3-.61 6.3 1.24 1.85.92 1.4.32-6 .93-9.08a39.19 39.19 0 011.69-7.07c.77-1.85 2-1.85 2.61-2.32s.16-.89-1.38-.28-1.53-.76-1.53-.76M530.83 150.4l-.09-.41-.62-2.93c-1.38-3.69-1.06-4.45-1.68-6.31s-2.32-3.69-1.54-.91.3 5.22 1.07 6.6a9.57 9.57 0 01.82 4.29" fill="#b3875a"/><path d="M522.74 219.36l-.92 11.69 1.24-1.53v2.77l1.54-2.47v3.08l.91-2.14v1.53l1.55-1.53s-1.55 2.45-.31 1.85.92-.32.92-.32l.61 1.53 1.54-2.46.61 2.46 1.85-2.77v1.85l1.22-3.08.94 2.47s.3-.29.3-3.08l.15-6.46" fill="#ff3515" stroke="#000" stroke-width=".62"/><path d="M524.59 209.82a221.89 221.89 0 001.85-27.69c-1.55-1.84-5.53-3.69-9.24-4.31s-2.14-1.23-7.38-.93-8.92.62-12.31 1.55a12.32 12.32 0 00-5.53 3.38l1.81-6.89c2-1.84 3.89-2.17 8.19-2.94a28.76 28.76 0 018-.77c4.15 0 6.62.16 8.92.93a27.88 27.88 0 003.08.92s.31-.31 1.24-1.39 5.37-1.84 6 1.84l.91 1.84s4.32 20.93 4.62 34.76.91 13.54-1.84 14.47-5.23-2.77-5.23-2.77h-.62c-2.46-1.53-4.31-2.46-4.31-2.46s.6-1.15 1.84-9.54z" fill="#0077c8" stroke="#000" stroke-width=".62"/><path d="M524.5 182.8c0 3.36-4.09 6.09-9.14 6.09s-9.14-2.73-9.14-6.09c0 0 6.07-.79 9-.79 3.16 0 9.29.79 9.29.79M572.51 182.56c0 3.37-4.09 6.1-9.13 6.1s-9.15-2.73-9.15-6.1c0 0 6.07-.32 9-.32s9.3.32 9.3.32M539.67 152.3l24.46.61v-1.23c-.46-.16-22.46-1.54-22.46-1.54l-1.7.16h-.3l-1.7-.16s-22 1.36-22.46 1.54v1.23l24.49-.61" fill="#bbbcbc"/><path d="M539.49 152.29l24.64.62v-1.23c-.47-.16-23.22-1.69-23.22-1.69l-2.94-.06s-22 1.59-22.46 1.75v1.23zM524.5 182.8c0 3.36-4.09 6.09-9.14 6.09s-9.14-2.73-9.14-6.09c0 0 6.07.76 9 .76s9.29-.76 9.29-.76zM572.51 182.8c0 3.36-4.09 6.09-9.13 6.09s-9.15-2.73-9.15-6.09c0 0 6.07.76 9 .76s9.28-.76 9.28-.76z" fill="none" stroke="#000" stroke-width=".62"/><path d="M517.51 183.22l-2-30.31-9.29 29.89s8.06-.65 18.22-.34l-8.15-29.38M565.52 183.22l-2-30.31-9.39 29.69c6.77-.45 14.46-.14 18.31-.14l-8.16-29.38M521.72 311.04l-1.28-1.07M523.75 310.82l-1.47-.87M519.68 311.04l-.93-.89" fill="none" stroke="#000" stroke-width=".62"/><path d="M483.21 309.36c-2.46 3.08-3.24 4.14-3.85 3.23s-1.24-.75-1.24-.75-.3.13-.76-.32-.93-.45-1.38-1.55-1.38-1-.61-2.29 1.53-2.31 1.53-2.31 3.22 1.22 2.46 3.38-.45 1.69-.45 1.69a4.89 4.89 0 001.69-1.39c.91-1.08 1.68-.93 2.45-.14z" fill="#ffd9ee" stroke="#000" stroke-width=".62"/><path d="M477.83 157.2s-4 2.16-5.85-.29-1.85-3.69-1.85-3.69a8.77 8.77 0 013.09-3.7c2.46-1.83 4.3 0 4.91-3.69s.63-5.53 2.47-6.46a21.92 21.92 0 003.38-2.15s2-3.08 2.14-3.08.16.3.16.3a16.46 16.46 0 01-2.15 5.68 17 17 0 00-2.13 4.18s2.47 8-.61 10.14a20.7 20.7 0 00-3.56 2.76z" fill="#ff3515" stroke="#000" stroke-width=".62"/><path d="M434.52 131.6s10.24-.15 12.68-.08 2.47-2.08 0-2.08h-12.76c-2.46 0-3.47 2 .08 2.16z" fill="#ffd100" stroke="#000" stroke-width=".62"/><path d="M441.32 138.42a6.32 6.32 0 011.33-.9 5.94 5.94 0 012.47-.81M436 133.94a20 20 0 002.05.81c1.23.4 3.74.88 3.74.88M436.39 135.79a13.3 13.3 0 003.9.87M436.21 137.38a8.25 8.25 0 003.16.46" fill="none" stroke="#000" stroke-width=".62"/><path d="M500.28 129.61c2.88 4.92 4.52 13.53 4.52 13.53l14.17-.6s-1-4.3-1.85-8.83c-.54-3.62-1.47-3.9-1.47-3.9a5.47 5.47 0 012.32.51l1 .39 3.27 14.51-8.54.2-4.19.1-6.5.14s-3.18-12.76-5-15.67z" fill="#ffd100" stroke="#000" stroke-width=".62"/><path d="M503.19 171.77s2.64-9 3.57-12.09 3.07-8 3.07-10.48-.88-5.64.35-6.25l4.34-.23c-2.25.75-.39 1-.69 5.58s-.93 6.14-2.76 11.67-3.8 11.27-3.8 11.27z" fill="#ffd100" stroke="#000" stroke-width=".62"/><path fill="none" stroke="#000" stroke-width=".62" d="M478.6 311.5l.47-.45M476.9 310.73l.47-.76M475.52 309.05l.61-.59"/><path d="M282.9 301.05l4.75 3.59 2.19-1.16.59 1.13a63.5 63.5 0 01-5.68 4.59c-1.7 1-5.76 1.28-5.76 1.28l-3.32-2.8z" fill="#d18644"/><path d="M282 302.15a7.36 7.36 0 00-3.55 2.44c-1.07 1.68-2.16 2-.16 2.78 3.52 1.53 8.16-2.17 8.16-2.17s-1.42-2.1-2.46-1.7a20.12 20.12 0 00-3.08 1.86c-.4-1.51 1.85-2.77 1.85-2.77M282.74 301.24l5.22 3.38 1.78-1.09-6.55-2.89-.45.6" fill="#ffd9ee"/><path d="M290.8 304.52c-4.1 2.88-5.07 5-8.56 5.63s-3.08.41-4.92-.83-1.89-2.09-1-2.47c1.84 2.26 4.31 2.67 7.59 1s2.87-2 2.87-2 0-.81-1.22-1.85-1.43-.82-3.09.21-1.63 1.62-1.63 1.62-.21-1.44.4-2a13.86 13.86 0 011.44-1.25 1.16 1.16 0 00-1.16-.3 6.13 6.13 0 00-3.16 2.33c-.4.83-2 2.16-.4 2.47" fill="none" stroke="#000" stroke-width=".62"/><path d="M278.83 306c-.31.35-1 1.2-.63 1.43.79.42.36.21.36.21M279.56 306.2c-.8 1.24-.9 1.65.21 1.6" fill="none" stroke="#000" stroke-width=".62"/><path d="M280.68 306.56c-.93.88-1.31 1.29-.62 1.29s.12-.1 1.26-.19.71 0 2.17-.77a18.47 18.47 0 002.45-1.59M287.82 304.91c-.53-1-1.84-1.69-2.76-2.37a11.6 11.6 0 00-2.31-1.26l-1 .92M277.93 305.21l-1.63 1.64" fill="none" stroke="#000" stroke-width=".62"/><path d="M332.05 311.55l6.91-5.21c.62-.29.71-.11 1.43.1s.83 1 1.55.71 1.74-1.12 1 .29-.83 1.13-.52 2 .09.8.82.52 1.23-.43 1.23.39-.1.95-1 1a2.16 2.16 0 01-1.24-.09l-9.47 2.46z" fill="#f2a900" stroke="#000" stroke-width=".62"/><path d="M330.13 324.91s-.51 1-2.15-2.35-7.15-16.42-7.15-16.42l1.93-.41 4.05-.51 5.58 15.07z" fill="#ff3515" stroke="#000" stroke-width=".62"/><path d="M329.83 302.23l-2.66 4 4.33 5c.31.22 2.42-1.4 3.66-2.73s1.23-2.67 1.74-4.52-7.07-1.75-7.07-1.75zM341.83 313.82c-.11-.8-2.05-.5-4-.41a5.69 5.69 0 00-2.87.82l1.75 4.62L338 321a6.69 6.69 0 004-2.84c1.07-1.67-.06-3.52-.17-4.34z" fill="#ff3515"/><path d="M343.9 312.33c-4.9-2.36-7.2-.92-9.88.27l-.62-.57c2.57-1.46 4.83-2.26 5.85-7.61s-5.13-6.45-7-6.57a3.36 3.36 0 00-3.48 1.76s-2.2 4.88-6 6.12c0 0 .3.42 1.74 2.14s3 5.86 4.61 10.69 1.33 6 1.33 6a10 10 0 014.81-1.43 45.16 45.16 0 016.18-.08c1.28.19 2.61.28 3.61-1.27s3.76-7.12-1.15-9.45zm-11.62-2l-1.52-1.95.81-.8.52.41.91-.72-.3-.63.41-.49-.83-1-.5.31-.52-.74-.82.64v.5l-.71.41-1.23-2.05s1.54-2.26 2.26-3.59 1.84-.6 4.2 0 2.26 2.56 1.85 4.41a8.71 8.71 0 01-4.21 5.33zm12.13 7.67c-.9 2.26-1 3.6-2.5 3.38s-4.22-.32-4.22-.32l-.93-2.2.75-.33.41.31 1-.29-.28-.83.56-.25-.34-1.25h-.65l-.32-.61-1.13.31v.65l-1.14.18-.66-2.4.18-.25v0a8.86 8.86 0 016.8-.2c1.76.78 3.38 1.83 2.47 4.1z" fill="#f2a900" stroke="#000" stroke-width=".62"/><path d="M339.57 308.44a.87.87 0 100-1.74.87.87 0 100 1.74z" fill="#fff" stroke="#000" stroke-width=".62"/><path d="M341.22 308.73a.86.86 0 00.87-.86.87.87 0 00-1.74 0 .86.86 0 00.87.86zM340.7 310.59a.86.86 0 00.87-.86.87.87 0 10-1.73 0 .85.85 0 00.86.86zM338.85 310.49a.87.87 0 10-.87-.88.87.87 0 00.87.88zM343.16 310a.86.86 0 00.87-.86.87.87 0 10-.87.86z" fill="#fff" stroke="#000" stroke-width=".62"/><path d="M345.22 312.75a.87.87 0 00.86-.9.87.87 0 10-.86.9zM346.76 314.18a.85.85 0 00.86-.86.87.87 0 00-.86-.88.88.88 0 00-.88.88.87.87 0 00.88.86zM347.47 316.15a.88.88 0 10-.87-.87.88.88 0 00.87.87zM347.68 318.4a.87.87 0 10-.87-.86.88.88 0 00.87.86zM347.47 320.44a.87.87 0 00.87-.86.87.87 0 00-1.74 0 .88.88 0 00.87.86zM346.55 322.39a.87.87 0 000-1.73.87.87 0 100 1.73z" fill="none" stroke="#000" stroke-width=".62"/><ellipse cx="340.19" cy="305.22" rx=".87" ry=".86" fill="#fff" stroke="#000" stroke-width=".62"/><path d="M340.49 304.23a.87.87 0 00.87-.86.86.86 0 00-.87-.86.86.86 0 000 1.72z" fill="#fff" stroke="#000" stroke-width=".62"/><path d="M340.29 302.49a.86.86 0 100-1.71.85.85 0 00-.86.85.87.87 0 00.86.86zM339 300.85a.87.87 0 100-1.73.87.87 0 000 1.73z" fill="#fff" stroke="#000" stroke-width=".62"/><path d="M308.93 305.49s5.4 6.75 9.71 7.66 6.48-.17 6.48-.17l-.2-2.12-4-4.47-.44-.62-2.77-1.22-4.85-1.09-3 1.39-.93.63" fill="#d18644"/><path d="M309.67 304.74l3.33 2.49a2.24 2.24 0 012.22-1.86 22.1 22.1 0 004-.74s-6.32-3.13-9.54.11M314.45 307.77s2.92 3.77 3.69 4.07c.92.13 1.59.61 2.05.61s1-.6 1.84.1c.76.15 1.19-1.08 1.19-1.08s.43.74 1.06.27 1.55-.75.16-1.83a19.89 19.89 0 01-3.08-3.36s-1.39-.22-.92 2c-1.68-1.39-4.76-3.39-6-.78" fill="#ffd9ee"/><path d="M321 306.12h-.09s.56 1.46.09 0" fill="#ff3515"/><path d="M314.29 309.22s-.46-2.17 1.38-2.47 3.24.3 5.23 2.47c0 0-1.54-2.75.32-2.43" fill="none" stroke="#000" stroke-width=".62"/><path d="M313.06 308.15c0-1.71.92-2.65 2.16-2.78l3.07-.32M321.37 312.2l-.93-1.47M319.22 311.97l-.32-1.24M320.91 306.15a25.5 25.5 0 002.92 3.37c2 2 .62 1.69.62 1.69v.47a1.27 1.27 0 01-1.08 0c-.46-.31-1.09 1.69-1.7.76s-1.23.47-1.84-.15-.77.15-1.69-.45a47 47 0 01-3.69-3.75" fill="none" stroke="#000" stroke-width=".62"/><path d="M313.22 307.2a10.39 10.39 0 01-3.34-2.34l-1 .55c2.16 2.78 7.67 8.28 12.12 8.09s4.86-.5 4-2.28" fill="none" stroke="#000" stroke-width=".62"/><path d="M273.83 132.42c2.36-4.73 2.66-9.86 5.43-12.83a37.1 37.1 0 013.9-3.83 25 25 0 01-.22-5.41c.31-1.74-.1-2.06.31-3.18s.11-1.42 1.75-2c.6-.25 2.2-1.11 2.2-1.11l.58-2.69a33.79 33.79 0 011.85-3.39c.71-1 1.63-2.15 4.41-2.15s4-.31 5.84 2.34 1.52 2.36 1.17 2.78 2.08 2.88 2.08 2.88c1.13 1.54 4.2 7.07 2.66 12.2 2.36 3.28 2.57 5 3.38 7.39s-.81 1.53 1 2.15a2 2 0 011.24 1.29c.14.21.24 0 1 1.88 1.55 3.9 1.44 4.73 1.44 4.73" fill="#d18644" stroke="#000" stroke-width=".62"/><path d="M290.38 140.12c-1.33-3-4-13.25-4-13.25h0a5.3 5.3 0 002.25-2.36c.52-1.41.42-2.35.31-5.31a34.87 34.87 0 00-.2-3.59s-1.74.81-1.85-.83a24.09 24.09 0 01.1-3.48s.91-.08 1.44-1.84 2.86-4.93 4.3-5.34a14.38 14.38 0 003.59-2.14 4.49 4.49 0 002.24 2.76c1.64.62 4 .62 4.41 4a13.69 13.69 0 01-.3 5.94c-.41 2.27-1 2.47-1.13 6s-.63 5.63.71 8.22l-.25-.9s.95 11 .34 13.6" fill="#ffd9ee" stroke="#000" stroke-width=".62"/><path d="M293.37 116.39a6.49 6.49 0 01.78-.12 8 8 0 012.53-.39 3.46 3.46 0 011.52.41 4.17 4.17 0 001 .2 8.68 8.68 0 00-1.88.41 1.79 1.79 0 01-1.74 0 11.32 11.32 0 00-2.19-.51" fill="#ff3515"/><path d="M301.52 108c1.12.74-3.8-.53-3.89.59a9.37 9.37 0 00.72 3.59c.3.82.3 2-1 1.94s-2.56.41-2.26-.41.4-.71.4-.71-.3.62.21.71a4.36 4.36 0 001.13.1c.52 0 1.13 0 1.23-.61a4.33 4.33 0 00-.4-2.25c-.41-1.26-.63-2.26-.22-2.88a2 2 0 012.15-.83 3.37 3.37 0 012 .74M295.27 109.41c.21-.92.1-1.65-1-2a3.36 3.36 0 00-3.29.71 4.59 4.59 0 001.64-.08 2.57 2.57 0 012.26.4 5 5 0 01.41 1M295.06 117.83c-.65-.42 1.54.19 2.05.19a1.75 1.75 0 01-2.05-.19" fill="#d18644"/><path d="M291.48 109.52c.71-.2 1.22-1 1.84-.52a3.44 3.44 0 00.93.63l-1 .51c-.63.3-.53 0-.94-.2l-.81-.4M298.44 109.62c.72-.21 1.24-1 1.85-.5a3.16 3.16 0 00.94.59l-1 .51c-.63.31-.52 0-.93-.21s-.83-.39-.83-.39"/><path d="M302.06 117.13c-.82 2.17-1.87 4-4.84 4.19a8.21 8.21 0 01-4.62-.83" fill="none" stroke="#000" stroke-width=".62"/><path d="M301.69 100.7c-.52-.41-1 .92-1.81.12s-1 .39-1.33 0c-1.07-1.45-1.23 0-1.94-.82s-.82.71-1.85.2-.31.51-1.44.11-.71.4-1.72.28-.92.23-1.55.23a1.6 1.6 0 00-1 .39 2.28 2.28 0 00-1.33.3 3.69 3.69 0 00-.51 2.49c.15.1 1-.76 1.89-1.13a15.76 15.76 0 014.5-1.14 25.51 25.51 0 014.73.21c2.05.09 3.7.31 4.82 1.84-.02 0-.95-2.69-1.46-3.08z" fill="#f2a900" stroke="#000" stroke-width=".62"/><path d="M260.56 171.05l-10.42 73.24s.3 1.23 3.08 1.85c0 0-1.54 16.92-1.85 20.92a23.44 23.44 0 003.08 2.45s-3.08 15.69 2.78 22.46 9.53 14.76 12.61 14.45a23.48 23.48 0 002.76-.3l1.84-.62c1.55-2.45 3.58-4.79 5.12-5.42l37.12.32 4.23 5.75a11.11 11.11 0 002.15-.63c1.84-.61 3.6-1.91 5.74-5.91 0 0-4.81-.86-5.74-10.39s-.61-23.69-.93-35.37.93-30.46 2.16-44.62-.38-47.56-.38-47.56l-11.7-17-32.28-5.18z" fill="#ff3515" stroke="#000" stroke-width=".62"/><path d="M315.67 174c1 3.45 2.12 5.65 3.24 2.64 1.37-3.66 3.69-13.53 3.69-13.53l2.3-12.92-1.49-3.92-9.08.75.74 24.76z" fill="#61619e" stroke="#000" stroke-width=".62"/><path d="M310.44 170.15s.62-13.24 1.39-17.85a84.54 84.54 0 003.08 18.75c.17.74.37 1.49.57 2.21h0c-.62-7.38-.11-20.82 2.36-23.74 2.05-2.44 6.45-2.16 7.06.62l.32 1.06c0-2 .46-3.36-2.62-6.59s-6-10.77-8.77-11.24a20.32 20.32 0 01-7.32-1.67c-1.17-.59-1.05 9.46-5.28 9-1.67-.19-9.17-.42-10.85-.57-5.21-.48-7.94-11.36-7.94-11.36a83.07 83.07 0 01-8.61 2.5c-1.38-.24-2.52.66-4.51 3.7-3.09 4.72-8.82 17-8.82 17l2.42 24.16c1.68 6 5.33 1.14 7.17-4.86 0 0 3.33-11.91 3.73-14a10 10 0 011.44-3.49s-.21 5.13 1 6.14 1 1 .41 3.09a9.41 9.41 0 001.63 8.15l-.06 3.91c-3.68 4-5.05 8.57-6 15.64a79.83 79.83 0 00-.3 16.93c-3.39 12.92 4 32.62 4 32.62a55.39 55.39 0 00.93 19.68c-1.86 3.7-2.48 3.38-2.48 3.38s3.39 5.85 2.48 9.85-.63 4.3 1.84 6.77c-1.23 1.84 2.78 9.84.62 20.3 3.22 0 8.92 3.39 14.76 5.83s13.85.3 17.54-1.53 9.23 1.53 9.23 1.53.93 2.47-.62-2.15a28 28 0 00-4.3-8s-2.47-25.53-1.54-33.83 1.84-8.62 1.84-8.62a31.48 31.48 0 01-1.84-9.52c-.32-5.86 1.22-12.33 2.15-16.95a13.05 13.05 0 00-.31-7.37z" fill="#0077c8" stroke="#000" stroke-width=".62"/><path d="M365.27 282.51" fill="#0077c8"/><path d="M291.51 170.31a30.13 30.13 0 009.38 2.15c2.47.15 3.07.47 5.07-.62a24.6 24.6 0 014.17-1.65v-.06c0-.13.63-13.3 1.4-17.88h.61c.1 1.66.23 3.16.37 4.54 0-.39.12-.85.22-1.42.61-3.4 1.69-5.54 4.61-9.24s-.76-1.08-2.61.47-1.69 2.3-1.38-2-1.39-4.64-1.7-7.7-.91 3.39-.77 5.21a19 19 0 01.16 6.17c-.45 3.23-2 2.77-3.69 4.6s-1.54 2.15-.91 3.55 2.16 3.69 2.45 6.74-.77 3-3.09 5.41-4.3.76-6 .76a56.45 56.45 0 01-6.76-.15c-3.54-.31-.45-1.68-2.46-1.39s-4 0-5.83.29-2.32.93-5.09.79a9.9 9.9 0 01-2.44-.35 9.06 9.06 0 001.09 2.14 28.55 28.55 0 006.26-1.18c2.48-.85 3.71-.56 6.94.82z" fill="#61619e"/><path d="M366.18 282.29h-.07.07" fill="#0077c8"/><path d="M302 128a35.81 35.81 0 01-.72 6.25c-.61 2.56.1 3.38-1.94 3.38s-5.54.1-6.87.21-1.74.83-3.08-2.15a84.5 84.5 0 01-3-8.82h0l-4 1.91a75.27 75.27 0 002.79 10c1.38 3.39 1.21 4 4 3.86 4.3-.25 9.82-.25 11.06-.29 2.77-.18 4.47.29 5.08-3.71s1.14-6.89 1.14-6.89A17.22 17.22 0 01302 128z" fill="#9bd9f4" stroke="#000" stroke-width=".62"/><path d="M263.52 169.68s4.15 1.84 3.69 4.47c0 0 .46-10.18 0-13 0 0-.15 6-3.69 8.46" fill="#61619e"/><path d="M271.06 157.06l-4.15-3.06c1.53 1.72 2.47 5.09 2 6.18l.2-.29a38.65 38.65 0 01.26 7.34c-.31 3.39.15 6.32.3 2.17.13-3.87.54-8.91.36-10.83l1-1.48M280.6 151.5c2.54 1.28 5.68 2 8 1.25l-1.08 10.93s0 2.76.61.31 3.69-18.47 4-20 0-2.31-.31-1.08-1.07 6.61-2.77 7.68-8 .63-8.61.16-.78.31.15.77M296.6 143.08s1.22 9.53 1.54 12.6 1.23 4.15.77.61-1.85-5.09 1.23-4.46 6 3.69 9.38-.46 2.61-3.85 2.61-3.85-.91-6.15-1.53-3.22-1.39 5.07-3.7 5.82-3.7 1.56-5.38 1.08-2.76 2-3.08-.29-1.07-6.45-1.07-7.23-.93-2.15-.77-.62M280.29 174.91a28.23 28.23 0 00-1.69 6.45c-.32 1.84.31 1.84 1.22-.31a37.48 37.48 0 013.24-5.85l-2.77-.29M288 176.44c2.16 2 5 2.32 5.75 5.07s1.06 7.09 1.84 3.87 2.31-4.33 3.84-4.47 3.34-.78 3.65 3.24.75 3.37.14 10.9-1.54 17.37-.6 14.32 1.37-7.55 2-13.08.6-5.25 1.06-4.47 1.24 2.31 1.24 2.31v-15.22l-13.84.91s-2.3-3.67-4.92-3.85M274.65 232.8c-3-9.63-3.09-16.22-2.26-20.51s1.65-3.06 1.24.63 1.43 14.55 1.84 18.25.21 4.91-.82 1.64" fill="#523178"/><path d="M293.73 203.88c-.82 10-1.44 1-.41 11.29s2.66 13.1.61 23.16a125.36 125.36 0 00-2.25 25.43c0 6.38.83 13.35 1.64 3.71s3.08-25.64 2.66-32 .82-15.18 1-22.35 1-13.75.81-19.88-1.63-4.13-2.45-1.64-.41 3.27-.41 3.27l-1.22 9M306.65 203.05c-1.24 9-2 14.59-3.28 23.81s-3.7 17.22-4.72 25.85-.83 15.37 0 8 2.66-14.16 4.51-23.81 3.49-20.32 3.49-20.32l.6-3.45-.6-10.06" fill="#523178"/><path d="M305 298.46c-5.52-2.47-8.82-4.32-11.27-9s-2.87-6.14-3.49-14.14-2.24-20.32-1.85-12.96-.6 18.23-.21 26.23 3.89 7.79.21 7.79-8-.18-.21 1.86 2.87 6.35 8.62 4.1 1.44-4.5 8.2-3.88M277.94 257c.4-.83 4.5-9 4.5-9a41.62 41.62 0 00.62-4.72c.2-2.65-1.23-1.85-2.66-.83s-2.66-1-3.08 3.92.21 7.17.62 10.65M286.55 245.32c4.11-9.24 5.74-13.95 5.34-18.88s.21-9.83-.41-6.76-2.66 10.25-1.84 4.93.81-8 1.63-8 1.43 0 1.43 5.92 1 9.47-1.43 19.31-3.08 14.36-3.08 14.36.21-4.32-1-6.36-1.84-2.08-.61-4.52M294.13 145.06c-.61 6.44-.31 12-.92 17.23s.92 5.83 1.07-.45.32-13.85.32-16.18-.16-3.22-.47-.58" fill="#523178"/><path d="M323.52 150a7.45 7.45 0 013.39 4.92c4.92-2.77 12.45-7.07 16.46-10.3s3.54-2.31 5.85-4.15 3.22-2.14 6.59-3.09 5.07-1.05 6.46-1.53 2.62-.29 2.47.62a3.34 3.34 0 01-.16.47s2.31 1.68 3.23 2.46 2 2.75.16 1.54a32.21 32.21 0 01-2.87-2.14s-.52 2.29-1 2.29-.29-2.17-.29-2.17-.76-.28-2.47.63a13.74 13.74 0 01-4.76 1.05s-.48.49 1.07 1.25 3.08 1.68 2.46 2.3-.62.61-2.46-.14-.61-.61-2.61-.46-3.85-1.08-5.4 1.83-10.15 15.24-17.53 18.79c-2.46 1-2.76 1.68-5.53.62s-7.07-3.56-8.15-5.7c.3-4.17 0-9.56 5.07-9.09z" fill="#ffd9ee" stroke="#000" stroke-width=".62"/><path d="M364.58 136.93s-.45-.49-2.14 0M363.25 138.88l1.8-.29" fill="none" stroke="#000" stroke-width=".62"/><path d="M307.79 211.68s-2 6.76.2 7.37 3.08 1.24 4 .63.93-.94 3.08-.31a17.37 17.37 0 004.31.63 90.39 90.39 0 00-.83-10.43" fill="#ff3515" stroke="#000" stroke-width=".62"/><path d="M277.91 170.64a15.45 15.45 0 004.95-.59c2.86-.83 4.1-1.65 7.79 0a31.72 31.72 0 0011.88 2.44c3.48 0 1.63 1 4.51-1s6.14-1 4.3 2.25c2.66 2.47 2.46 4.11.62 5.34 0 0 7 27.27 7 32.39a34.29 34.29 0 00-11.68 1.66l-.42-34.47s-8 .83-11.9 1-1.63-1.22-5.93-3.27-11.28-1-11.28-1a26.13 26.13 0 00.2-4.72" fill="#f2a900" stroke="#000" stroke-width=".62"/><path d="M253.21 246.12a68.34 68.34 0 007.39 3.4c4 1.53 4.3 2.47 1.22 5.22s-12.3 12-9.85 13.23M254.44 269.51s7.7 2.46 5.23 6.48-6.15 6.76-5.23 10.15M264.29 251.36s-1.85-10.75.93-26.46" fill="none" stroke="#000" stroke-width=".62"/><path d="M262 102.05h-3.59c-2.16 0-2.31-.64-2.31-.64a7.64 7.64 0 00-1.39-2.6 13.21 13.21 0 00-1.23-3.71c.15-.76.62-2.76-.15-4.15 1.7-.29 2.46-1.69 3.24-3.37s.46-1.07-1.08-1.22-4.6-.31-5.22 3.52c-1.7 1.69-2.61 3.54-2 5.69-.91 2.77-.15 3.09.3 3.71a2.46 2.46 0 00.14 2.29 4.56 4.56 0 000 4.62c.78 1.38.93-1.38.17.47s-.54 3.23-.69 4.91" fill="#d18644" stroke="#000" stroke-width=".62"/><path d="M256.29 109.21c3.54-2.45 5.07-4.31 5.53-5.69s.46-2.31-3.38-.31a53.49 53.49 0 00-9.23 6c-1.54 1.38-1.39 2.77-.15 2.6a35.94 35.94 0 006-1.87" fill="#d18644" stroke="#000" stroke-width=".62"/><path d="M255.06 89.93a14.18 14.18 0 01-3.09.62c-1.43.09-2.35.72-1 1.13s3.09 1.22 3.09.93a8.37 8.37 0 00-.62-1.56l1.64-1.12M254.24 97.62c-1.64 1.24-1.73 1.83-.82 1.65a8.31 8.31 0 001.34-.41l-.53-1.24M248.6 99.27a5.92 5.92 0 002.25.1 2 2 0 00-1.13-1c-.92-.42-1.53-1.23-1.64-.42a1.59 1.59 0 00.52 1.34M248.92 107.17c-.49 1.2 1.32-.82 2.87-1.94s2.34-1.74 2.34-1.74.61-1.14-1 .1a8.11 8.11 0 01-3.28 1.64l-1.23.28a1.45 1.45 0 01.32 1.64M254.53 107.94v.23s.21-.21 0-.23"/><path d="M258.14 103.26c-2.16.72-3 1.86-4.82 2.78s-1.75 1.53-1.75 1.53-1 .6-2 1.31c0 0-.72 1-1 1.56s.29.51 1-.2 1.32-.73 3.48-1.75a4.55 4.55 0 011.52-.55l-.09-1 1.54-.83.22.83.23-.24.08.05c1.31-.41 1.21.52 2.14-1.12a18 18 0 00.92-2 6.28 6.28 0 001.53-.64c.93-.61-.81-.41-3 .3"/><path fill="#fff" stroke="#000" stroke-width=".62" d="M257.83 121.68l-2-15.23-1.39.76 1.85 14.63"/><path d="M260.1 171.05c-3.9-2-7.18-8.4-8.62-19.88s-2.87-18.87-1.22-21.54 2-6.37 2.66-7.8.61-3.48 1.84-5.12S258 114 257 115.47s-1 1.25-1.63 3.71-.84 3.9 1 3.07 5.54 0 4.3 1-.81.82-.81.82 1.84 1.24.6 1.65c-.49.16-.6.21-.6.21s1.64.62.81 1.43c-.27.31-.81.41-.6.41.82.62 1 1.24-.21 1.83a34 34 0 00-3.49 3.71c-1.85 2.26-2.46 1-1.63 4.29a33.72 33.72 0 003.47 7.61l2.27 8.2c3.48-.62 7.54 1.17 6.76 6.55-.82 5.76-1.63 9-4.72 10.06z" fill="#ffd9ee" stroke="#000" stroke-width=".62"/><path fill="none" stroke="#000" stroke-width=".62" d="M259.88 124.08l-3.07-.2M259.88 125.94l-2.05-.42M260.09 127.78l-2.46-.4"/><path d="M257.22 132.39s15 172 15.38 174.46 2.26 1.64 2.26 1.64l-16.14-177.65z" fill="#fff" stroke="#000" stroke-width=".62"/><path d="M267.22 157.2c.16 7.07 1.33 18.3-.67 20.92M292.44 142.58c-.91.14-1.38-.77-.45-3.09M296 137.67c1.54.32 1.69.47 1.84 2.47s-.15 1.37-.15 1.37M323.22 311.68l-1.39-1.39" fill="none" stroke="#000" stroke-width=".62"/><path d="M275 153.65l.6-.85V155.69c.51.11 1.8.06 1.18-3.43-.77-4.31-1.08-4.16-.77-5.84s.77-2.16-.16-5.09-2.3.16-2.3.16a15.56 15.56 0 01.15 4.77c-.3 2.76-.62 1.67-.92 2.76s.13 4.4-.76 7.67c-.74 2.72-1 8.28-.69 9 .93-3.41 2-7.36 2.21-8.44a10.42 10.42 0 011.46-3.6z" fill="#523178"/><path d="M276.92 159.36a5.22 5.22 0 01-1.14-1.46 3.34 3.34 0 00.7 1.83c1.12.93 1.14 1.16.75 2.52-.07.25-.15.54-.24.89a9.27 9.27 0 000 4.77 1.18 1.18 0 00.19-.55c.16-1.07.31-4.45 1.39-6s-.74-1.24-1.65-2z" fill="#61619e"/><path d="M306.66 246.78c1.85-3.29 3.48-6.78 3.89.39s1.45 22.56 1.45 30.58.61 14.35 2.26 17.42a15.36 15.36 0 003.82 4.55 27 27 0 00-2.32-3.56l-.06-.07V296c0-.21-1.71-17.81-1.74-28.47a35 35 0 011.1-11.39 8.26 8.26 0 01.89-2.69 32.66 32.66 0 01-1.79-9.44c-.28-5.24.89-10.87 1.83-15.4.11-.56.23-1.1.33-1.62a12.89 12.89 0 00-.29-7.19v-.21l-3-.91s-1.23 1.24-4.72.6c-.41 8.79.62 8-2.47 21.34s-3.69 14.36-4.91 23.79-1.43 3.48-2.46 12.92-2.87 10 .61 13.53a18.25 18.25 0 007.38 4.51 25 25 0 01-4.3-4.3c-1.63-2.26-2.66-4.31-2.46-5.56s2.46-.18 2.46-.18-1.63-.83-1.44-4.3 2.46-3.91 2.46-3.91a87.86 87.86 0 01.83-13.53c.99-7.59.8-13.59 2.65-16.81z" fill="#523178"/></svg>