<svg xmlns="http://www.w3.org/2000/svg" width="300" height="300"><path d="M179.93 217.24c-1.68.67-1.63.75.52.81 9.78.24 31.49-4.44 40-8.62 6.93-3.41 4.31-3.47-4-.1s-16.74 5.31-28.13 6.48a48.28 48.28 0 00-8.39 1.43z"/><path d="M250.4 128.15c1.16 0 12.25-5.71 15.67-8.07 4.55-3.13 16.58-16 18.29-19.47 4.19-8.67 8.52-34.3 5.79-34.3-.58 0-1.07.74-1.08 1.64-.05 4-4.21 10-14.05 20.44-5.8 6.15-13.1 14.14-16.2 17.74a77.74 77.74 0 01-6.31 6.84c-1.39.57.24-17.31 2.11-23.14 2.65-8.28 2-23.74-1.43-33.36-6-16.93-11.35-23.83-21.78-28.19-1.92-.8-3.23-1-3.23-.4a1 1 0 001 .95c2.27 0 3.66 6.77 4.28 20.76.71 16.08 1.2 17.79 11.25 39.11 4.89 10.37 5 10.92 5 18.85a90.37 90.37 0 01-.95 13.21c-1 5.43-4.77 15.83-5.69 15.83-.31 0-.84-5.59-1.19-12.42-.91-18.14-3.12-27-10.18-40.76-6.07-11.86-11.3-19.91-12.92-19.91s-1.09 20.6.89 28.35c2.38 9.3 4.24 12.78 11.9 22.27 7 8.67 9.71 13.29 9.71 16.57 0 2.84-.58 2.71-3.53-.79-3.7-4.4-7.21-5.59-11.76-4-2 .72-3.79 1.31-3.92 1.31a37.84 37.84 0 01-2.78-5 41 41 0 00-4.89-7.55 17.91 17.91 0 01-3.36-6l-1-3.45-.67 3.28c-.36 1.8-1.59 6.65-2.72 10.77-2.88 10.53-2.19 20.36 2.36 33.45 4.87 14 6.28 20.27 5.59 24.86-.71 4.77-1.93 5.85-2.66 2.35a17 17 0 00-3.29-5.84c-2.58-3.07-3.14-3.29-8.72-3.44l-6-.15-.47-11.25c-.25-6.19-.73-11.51-1-11.83-1.47-1.46-13 16.49-18.77 29.18-3.26 7.19-8.19 25.28-8.52 31.3-.2 3.47-.57 4.18-2.32 4.43-1.95.28-2 .11-1-2.66 1.32-3.78-.28-9.62-3.19-11.65a12.68 12.68 0 00-6.07-1.44c-2.2 0-4-.26-4-.57s1.07-1.42 2.39-2.45 2.14-2.13 1.84-2.43c-.87-.87-8.81-.14-11.57 1.07-5 2.16-14.51 8.71-22.77 15.62-11.4 9.53-20.28 15.86-30.33 21.64-4.64 2.67-10.45 6.11-12.92 7.66s-4.79 2.49-5.15 2.11 3.53-4.69 8.66-9.59c10.72-10.23 26.88-28.42 26.44-29.75s-8.95-.54-14.07 1.4c-6.66 2.54-25.81 14.26-30.15 18.47-2 2-8.91 9.15-15.25 15.92l-11.25 12-22 13.77s-2.38 1.58-3.27 2.21c-2.12 1.5-5.19 3.46-6.84 4.35-2.49 1.37-2.81 1.89-1.85 3a3.83 3.83 0 001.81 1.39 95.25 95.25 0 009.3-4.82c3.1-1.72 5.1-2.68 6.55-3.47l22.61-11.57c1.39-1.32 20 .59 26.54 3 2.67 1 11 3.35 18.45 5.27 17.68 4.54 27.79 4.73 41.23.78 9.4-2.75 12.21-4.16 8.38-4.19-2.82 0-13.59-2.26-20.53-4.28-4.28-1.24-4.9-1.68-3.68-2.58 3.7-2.73 4.64-8.16 2.22-12.84-1.39-2.67-1.36-2.77.69-2.77 1.17 0 7.61 1.89 14.31 4.19 20.44 7 36.58 8.62 57.19 5.69 10.19-1.45 10.72-1.59 18-4.86a26.58 26.58 0 016.74-2.21 3.09 3.09 0 002.37-.93c.32-.52-.29-.94-1.36-.94a9.3 9.3 0 01-3.57-.84c-2.84-1.48-24.14-7.57-28.57-8.18-4-.55-4.29-.76-4.65-3.81-.41-3.55-.77-3.51 6.76-.73 6.71 2.49 23.85 1.48 31.78-1.86 9-3.76 15.16-8.08 20.3-14.14 6.19-7.28 12.48-13.33 15.62-15 1.42-.76 2.58-1.78 2.58-2.28s-2.64.53-5.86 2.27c-5.4 2.91-12.75 5.67-17 6.36-1.39.22-1.8-.43-2.07-3.36-.45-4.79-3.93-9.89-7.2-10.58-4.14-.86-3-2.19 1.4-1.6 5.57.76 14.53-1.77 24.53-6.93 6.52-3.37 10-6 15.78-11.87a147.19 147.19 0 0011.5-13.17c2.24-3.09 5.21-7 6.59-8.7s2.26-3.33 1.95-3.64-3.44.95-6.95 2.79-7.48 3.77-8.81 4.28c-2.33.89-2.4.8-2.4-2.84a10.91 10.91 0 00-1.89-6.25c-1.62-2.15-2.56-2.5-6.63-2.47-3.27 0-5.34.58-6.67 1.79-2.36 2.13-2.4 1.62-.31-3.22.98-2.04 2.23-3.73 2.87-3.73zM276 89.31c4.42-4.66 9-9.74 10.22-11.29l2.19-2.81-.6 5.37c-1.49 13.26-7.09 24.09-17.62 34.1a53.73 53.73 0 01-8.74 6.53l-4.69 2.67 2.78-3.72c1.53-2 6.06-7.85 10.07-12.9s7.28-9.69 7.27-10.31-1.39.56-3.05 2.62-4.73 5.65-6.83 8-5.19 6.17-6.87 8.55c-3.69 5.24-7.27 7.52-8.56 5.46a4.46 4.46 0 01-.28-3.23c.65-2.19 12.98-16.66 24.71-29.04zm-26.31-9.47c-1.34-12.13-7.52-36.26-8.93-34.86-.26.27.83 4.86 2.43 10.21a131.27 131.27 0 014.31 22.71c.76 7.15 1.18 13.2.93 13.45-.52.52-6.22-10.56-9.16-17.79-2.63-6.5-3.39-10.9-4.47-26a148.28 148.28 0 00-1.58-15c-.67-2.3-.67-2.3 3.24.57 6.59 4.85 10.74 11.43 14.77 23.45 3.22 9.62 4.41 30 1.88 32.09-.85.71-1.74 1.09-2 .86s-.85-4.53-1.42-9.69zm-11.15 34.7c-.91.56-2.86-2.29-2.86-4.17 0-1.51-9.34-24.69-10.37-25.74-1.61-1.64-.9.65 3.81 12.22 2.58 6.34 4.68 11.76 4.68 12s-.82.52-1.82.52c-2.19 0-6.75-6.31-8.47-11.71a22.62 22.62 0 00-2-4.76c-1.91-2.42-3.7-25.69-2-25.69 1.24 0 5.74 7.49 11.57 19.3 5.35 10.81 8.21 19.42 8.28 24.92.05 1.42-.36 2.81-.82 3.11zm5.46 27.22l1.06 2.8c1.43 3.76 3.65 6.08 5.82 6.08 2.76 0 1.3 1.4-6.34 6-3.87 2.35-8.08 5-9.35 5.79-2.82 1.84-2.94 1.06-.39-2.51a98.15 98.15 0 005.56-10.44zm4.81 0c.71-1.66.81-1.58.87.7 0 1.42-.36 2.58-.87 2.58-1.11-.04-1.11-.74-.01-3.3zm-26.56-10.56c1.44-2.95 2.24-3.56 5-3.77a11 11 0 016.32 1.63c2.58 1.59 3 2.42 3 5.41s-1.66 6.8-3 6.8c-.28 0-1.25-1.79-2.16-4-1.1-2.63-1.79-3.44-2-2.4a6.68 6.68 0 001.24 4c1.13 1.73 1.31 2.74.6 3.44-1.43 1.44-4.24-4.39-3.75-7.77.22-1.48 0-2.69-.38-2.69s-.77 2-.77 4.42c0 4.06-.12 4.29-1.51 2.91s-1.34-2-.38-4.95c.63-1.89.94-3.64.7-3.88-.87-.87-2.77 5.3-2.33 7.59.64 3.35-.89 2.91-1.64-.47a9.62 9.62 0 011.06-6.27zM214 161c-.8-1.8-2.66-6.87-4.14-11.25-2.35-6.95-2.68-9.32-2.67-18.74 0-8.18.42-11.67 1.66-14.52l1.65-3.75 1.87 2.29a84 84 0 015.13 7.86c3.18 5.42 3.23 5.65 1.82 8.63-2 4.14-1.85 5.2 1 9.41 2.21 3.26 2.41 4.26 2 10.2-.26 4-1.13 7.88-2.21 9.87l-1.8 3.28-.22-4.69c-.34-7.31-3.26-23.89-4.21-23.89-.46 0-.64.74-.38 1.64s1 6.07 1.56 11.48a87 87 0 01.74 12.65l-.36 2.81zm-20.66 12.79c1.17-1.05 3.4-1.55 7-1.55 4.88 0 5.45.24 7.66 3.14 3 4 3 7.18 0 10-2.26 2.13-2.49 2.17-3.62.63-1.59-2.17-2.33-2.07-1.73.24.27 1 .34 1.86.15 1.86-1.13-.05-2.55-1.76-3.48-4.2l-1.08-2.81.31 3c.16 1.67 0 3.05-.44 3.05-1.45 0-2.72-3.75-2.1-6.22.44-1.76.31-2.3-.45-1.83a2.6 2.6 0 00-1.07 2c0 .74-.42 1.35-.94 1.35-1.24 0-1.19-2.46.11-4.89.89-1.65.81-1.86-.46-1.37-2.07.81-1.97-.53.15-2.45zm2.89 32.11c-6 1.07-11.4 2-12.05 2s2.13-2.36 6.18-5.25 8.28-6.09 9.4-7.13c2.15-2 4-1.6 4 .82 0 .79 1.31 2.66 2.9 4.15 3.4 3.18 4 2.86-10.48 5.46zm-13.69-.49a14.94 14.94 0 01-4 1.5c-.53 0 1.35-3.58 4.17-8a80.81 80.81 0 005.16-8.67 7.54 7.54 0 011.39-2.51c1.33-1.76 1.4-1.76 3.31 0 1.07 1 3.91 2 6.31 2.27l4.36.51-8.87 6.69a129.67 129.67 0 01-11.82 8.16zm-8.09-27c3.37-8.06 15.22-27.85 16.29-27.19 1.52.94 1.05 21.23-.55 23.34a10.35 10.35 0 00-1.37 5.21 24.16 24.16 0 01-2.34 8.25 38.71 38.71 0 00-2.35 5.5 46.82 46.82 0 01-3.83 6.53c-3.36 5.16-6.68 7.93-8 6.65-.23-.22 1.53-4.58 3.91-9.69a157.07 157.07 0 006.17-15.24c1-3.28 2.08-6.55 2.35-7.26s.09-1.3-.41-1.3-1.63 2.54-2.5 5.64a160.31 160.31 0 01-6.26 16.16c-5.35 12-6.71 13.93-8.12 11.4-1.04-2.01 3.14-18.79 7.02-28.08zm-11.72 36c4.38 0 5.77.39 7.35 2.09a9.08 9.08 0 012.41 8.72c-1 3.86-3.31 4-6.45.36-2.53-2.92-2.7-2.68-1 1.48.32.77.12 1.4-.43 1.4-1.11 0-2.81-2.81-3.93-6.5-.68-2.25-.73-2.21-.81.76-.07 2.77-.26 3-1.56 1.94-1.08-.9-1.31-2.1-.86-4.51.55-2.92.45-3.15-.86-2.06s-1.48 1-1.48-.1c-.01-2.57 2.25-3.63 7.63-3.63zm-7.28-16.51c4.53 1.14 6.8 9.21 3.8 13.49-1.41 2-4.13 2.74-5.41 1.46a5.15 5.15 0 01-.63-2.81c0-1.21-.47-2.19-1-2.19s-.86 1-.6 2.38.07 2.25-.59 2-1.3-2.2-1.61-4.48-.62-3.2-.7-2c-.22 3.29-2 2.48-2.08-.94-.06-3-.07-3-1-.7-.65 1.54-1.15 1.91-1.46 1.08-1.52-3.97 5.83-8.7 11.29-7.34zm-7.28 20.64l4-1.19v3.47l-.05 3.47h-9.22c-5.06 0-8.92-.27-8.56-.57.76-.72 8.49-3.62 13.84-5.23zm-21.83 5.24c-.27 0 1.9-2.59 4.83-5.76a53.44 53.44 0 007.32-9.84c1.09-2.24 2.22-4.08 2.52-4.08s1.11 1.92 1.8 4.25c.92 3.1 2 4.65 4 5.69 1.53.8 2.64 1.57 2.47 1.73s-5.31 2-11.4 4.14-11.25 3.82-11.53 3.82zM84.59 239l7.48-.51.46 2.7a23.26 23.26 0 001.16 4.34c.84 2 .29 2-7.93-.12-12.67-3.24-13.1-5.61-1.17-6.41zm-43.38 11.83a3.63 3.63 0 01-3.72-.52c-1.69-1.24-1.46-1.64 4.36-7.62 3.38-3.47 7.79-8.21 9.8-10.53 10.26-11.83 19.24-18.68 35.77-27.3 4.71-2.45 12.85-4.41 13.92-3.34.27.27-3.32 4.85-8 10.18-13.49 15.42-38.2 35.3-46.42 37.38a51.28 51.28 0 00-5.71 1.75zm70.79 2.74a98.55 98.55 0 0010.78 3c10.15 2.05 10.15 2.06.61 4.7-11.21 3.11-21.13 2.51-39-2.37-29.49-8-29.84-8.16-20.14-7.44 5.82.43 32.86 6 37.17 7.64.69.26 1.24.1 1.24-.37 0-1.51-33.64-8.79-40.47-8.76-6.13 0-9.12-1.25-5.73-2.46a12.65 12.65 0 003.32-2c3.74-3.28 32.85 1.23 52.22 8.06zm-.3-6.07c-2.2 3.37-3.06 3.12-5.29-1.52-1.36-2.84-1.77-3.26-1.43-1.46.26 1.39 0 2.78-.47 3.1-1.11.68-2.81-3.33-2.81-6.62 0-1.25-.34-2.28-.75-2.28s-.6 1.58-.42 3.51c.31 3.37.26 3.44-1.18 1.65a5.68 5.68 0 01-.95-4.88c.34-1.86.18-3.05-.42-3.05s-1 1-1 2.11a7.75 7.75 0 01-.93 3.51c-.73 1.15-.91 1-.92-.64-.06-8.58 10.11-11.59 15.46-4.58 2.82 3.65 3.23 7.9 1.1 11.15zm-6.89-16.25a22.32 22.32 0 00-8.43 2c-5.61 2.57-4.78 2.41-9.21 1.81l-3.75-.51 5.58-3.26c9.7-5.54 19.48-12.35 24.87-17.31 15-13.8 26.53-21.17 33.06-21.17 1.72 0 1.56.41-1.41 3.51a111.55 111.55 0 00-8.26 10.54c-5 7.22-14.36 17.4-19.05 20.8-3.21 2.34-8.27 3.72-13.41 3.59zm74.9-2.31c7.36 1.54 24.26 6.85 25.48 8 .49.46.68.84.44.84s-2.9.86-5.88 1.91a99 99 0 01-15 3.26c-18.55 2.64-34.2 1.36-51.39-4.21-15.65-5.06-14.67-5.84 3.43-2.74 12.54 2.14 41.42 3.6 40.46 2.05-.34-.54-7.5-1.17-16.77-1.48a236.92 236.92 0 01-24.62-2 99.16 99.16 0 00-11.95-1.47c-4.27 0-4.41-.95-.63-4.13 2.48-2.09 3.82-2.44 9.6-2.53 16.67-.26 19.68.1 22.42 2.7 2 1.89 3.77 2.52 8 2.82 4.74.34 5.7.11 7.91-1.94 2.46-2.3 2.6-2.32 8.49-1.08zM237 196.82c1.53-.47 1.61-.29.66 1.47a68.92 68.92 0 01-6.81 8.15 38.81 38.81 0 01-13.32 9.79 74.84 74.84 0 01-11.8 4.62c-8.32 1.9-24.86.77-27.59-1.88a4.77 4.77 0 00-2.82-.86c-1.64 0-5-3.42-4.09-4.19 2.19-1.89 8.91-3.83 19.9-5.75 7.38-1.29 18-3.53 23.61-5 8.76-2.27 12.89-3.45 22.26-6.35zm-14.72 3c-2.17.75-2.9.62-3.86-.69-1.62-2.23-2.67-2-1.44.26.65 1.22.67 1.87.06 1.87s-1.61-1.26-2.4-2.81c-1.68-3.25-2.77-3.73-1.84-.83.45 1.44.27 1.87-.64 1.57-.7-.23-1.4-1.76-1.57-3.41s-.66-2.76-1.1-2.49-.62 1.59-.38 2.91.05 2.16-.43 1.86-1-2.27-1.24-4.39c-.33-3.41 0-4.12 2.48-6a18.45 18.45 0 015.43-2.81c7.45-1.92 14.08 12.42 6.89 14.94zm-.43-25.71l-4.85 5.11v-3.35c0-2 1.11-5.45 2.75-8.48 2-3.66 3.11-7.57 3.94-13.63l1.15-8.48h3.36c5 0 6.82-.87 9.27-4.48 1.23-1.8 2.55-3.28 2.94-3.28 3.45 0-.67 11-8.94 23.92a106.32 106.32 0 01-9.66 12.65zM275 143.53c0 1.92-16.22 20.34-21.23 24.11a109.47 109.47 0 01-13.18 7.73c-7.27 3.63-13.37 5.43-13.37 3.95a68.63 68.63 0 017.26-5.26c10.81-7.3 20-14.23 19.57-14.7-.22-.22-6.58 3.89-14.13 9.14s-14 9.31-14.26 9c-1-1 .56-5.11 2.95-7.95 2.59-3.08 21.2-15 27.86-17.87 2.35-1 4.42-2.19 4.61-2.63.68-1.53 13.92-6.8 13.92-5.52zm-19.42-9c4.8.61 7.64 8.71 4.41 12.56l-1.82 2.17-.59-2.11c-.33-1.16-1-2.11-1.43-2.11-1.07 0-1 .66.15 2.87.68 1.28.66 1.81-.05 1.81-.56 0-1.61-1.37-2.34-3-1.14-2.63-1.33-2.75-1.36-.88 0 1.31-.43 1.91-1.06 1.53s-.78-1.88-.45-3.67c.39-2.09.15-3.4-.79-4.17-1.11-.93-1.62-.65-2.79 1.5-1.06 2-1.44 2.2-1.47.94-.06-4.39 4.73-8.09 9.62-7.46z"/><path d="M92.89 208.06c-1-1-31.79 23.37-45.08 35.64-7.17 6.61-3 5.21 4.58-1.54 3.66-3.27 11.3-9.67 17-14.23 18.38-14.8 23.9-19.47 23.5-19.87zM122.14 214.62c-4.59 4.68-8.1 7.13-15.53 10.87-5.29 2.65-9.61 5.24-9.61 5.75s4.31-1.22 9.58-3.87c7.48-3.75 11-6.23 16.06-11.28 3.56-3.56 6.24-6.71 6-7s-3.24 2.2-6.5 5.53z"/></svg>