<svg xmlns="http://www.w3.org/2000/svg" width="140" height="300" viewBox="0 0 140 300"><title>flag-wisconsin-icon-arm-and-hammer</title><path d="M135.27,171.47c-3.8-6.9-11.8-18.85-18.54-23.12h0c-4.93-3.16-26.51,1.09-31,4.92-4.86,4.12-8,11.61-10.23,17.3-2.37,6-.89,6.53-6.44,3.75-8.83-4.41-22.44-15.66-26.27-24.81-1-2.3-.67-4.85-.86-7.33-.23-3.07-2.9-9.57-2.39-11.9.72-3.31,7.18-7,9.55-8.86,6.6-5.15,9-8.2,15.31-2.23,3.5,3.29,3.68,6.06,7.89,6,3.93,0,11.07-6.21,10.78-10.56-.22-3.31-5.89-7.1-7.34-10.22-2.27-4.88-2.28-9.59-6.25-14.15-3-3.45-7-7-10.23-10.13-3.55-3.47-4.43-5.23-10.5-2.92C35.9,82.14,42.89,88.59,46.6,95.79c5.28,10.26.27,12.68-7.13,19.09-1.86,1.61-5.54,5.94-7.67,6.07-1.27.08-4-2.81-5.74-3-3.75-.47-4.48,1.52-7.43,2.85C13.48,123.11,5.08,130,2.93,137c-.82,2.65-1.89,13-.1,15.47,2.11,2.89,7.4,2.06,10.13,3.42,9.69,4.82,12.6,16.66,16.89,25.67,4.42,9.29,11.24,17.89,18.5,25.17,5.57,5.6,16.17,17.73,23.56,17.06,4.79-.43,10.72-4.83,15.06-6.91,5.22-2.52,5.78-2,11-1.65,13,.79,26.45-6.83,35.28-16.42C139.1,192.38,139.27,178.73,135.27,171.47ZM61.59,107.94c-1.18,1.55-8.43-9.4-8.23-11.21S63.59,105.33,61.59,107.94Zm17.49,6.28c-.07,3.85-4.36-1.33-4.69-1.88h0C73.35,110.55,79.14,111,79.08,114.22Zm-4.69,3.17c1,3-5,3.44-6.35-.24h0C70,114.57,73.11,113.67,74.39,117.39ZM62.79,88.83c3.44-.36,9.6,10.29,8.93,13.46-2.94,13.93-12.18-3.94-14.95-7.8C58.22,93.23,61,89,62.79,88.83Zm-5.66-3.61c-.19,2.66-8.33,6.28-7.4,3.06C50.3,86.33,57.45,80.81,57.13,85.22ZM45,84.4h0c0-1.83,8.2-7.64,8.09-3.74C53.08,82.75,45,88.55,45,84.4ZM34.23,123.73h0l17.85-15.49c6.51,4.93-3.2,9-7.13,12.12C43.06,121.89,33.31,131.61,34.23,123.73ZM4.78,145.79a34.12,34.12,0,0,1,3.63,3.29C5.86,150.13,3.93,148.75,4.78,145.79Zm2.33-2.42c-1.79-3,.41-4.68-.11-6.15.69,1.95,3.52,6.17,5.75,6.59h0c2.64.54-4.24-8.83-3.06-11.05,3.61-6.78,5.36,6.8,8.34,5.28,2.26-1.09-3.54-7-3.4-9.19.19-3,2.09-5.72,4.57-2.55,1.82-5.33,9.63-6.35,6-.61-1.68,2.68-5.87-.12-5.24,5.14.14,1.13,5.46,5.8,5.19,6.17-.85.36-1.71.71-2.58,1a31.89,31.89,0,0,1-1.52,5.05,46.68,46.68,0,0,1-6.15,3.12C11.61,146.81,9.35,147.16,7.11,143.37ZM28.6,162.82h0c.93,2.31,4,16.74,6.11,17.37C31,179.12,26.66,163.16,28.6,162.82ZM58.77,209.2c-1.38,1.9-6.28-5-3.75-4.48h0C56.08,204.94,59.74,207.85,58.77,209.2ZM80,214.7h0c.63-1.51,16.92-8.37,17.15-8C99.47,210.21,79.72,215.44,80,214.7Zm18.37-18.32c-.5,1-2-.52-2.76.13-1,.9,1.2,2.45,0,3.41s-3.25-1.48-4.69-.94c-1.27.48.58,3-.24,3.74s-2.6-1.06-3.73-.05.36,3.12-1,4.18-2.55-2.62-3.87-2.13c-1.51.57-.15,4.14-1.76,4.6a10.79,10.79,0,0,1-2.83-2.13,12.56,12.56,0,0,1-2.34,2.7A13.41,13.41,0,0,1,73,207.55c-3.68.52.69,1.57-4.17,0-1.49-.48-.68-1.46-1.59-2.23-1.31-1.11-1,1-2.7.36.06,0-3.23-4.06-3.31-4.15A33.39,33.39,0,0,0,57.38,198c-3.19-2.56-5.68-3.83-8.81-7.39-5.85-6.64-9.14-14.85-13.51-23-1.82-3.39-4.23-5.27-6.66-7.26-2.67-2.19-16.74-10.57-5.49-11.81,3.89-.43,3.75,5.65,7,.67.63-1-1.77-4.21-1.61-5.37.21-1.43,2.54-5.2,2.35-6.44-.65-4.47-4.32-3-5.83-5.66-2.69-4.77,2.49-5,6.77-2.8h0c9.65,5,4.06,15.13,6.86,22.43,1.69,4.41,8.11,10.89,11.44,14.32,4.81,4.94,11,8.41,16.23,12.87,2.42,2.08,12.56,18.39,11.53,18.69,5.56-1.61-6.49-18.6,4.42-23.46s18.55,8.23,20.29,17.24C97.6,190.59,99.67,193.82,98.39,196.38Zm9.7,8.47c.08-1.16,3.52-2.84,3.4-1.06C111.4,205.07,108,206.46,108.09,204.85Zm15.49-7.95c-3-1.28.09-1.59-.58-3.64-1.18-3.59-4.48-15.62-9.17-14,.6-1.43,1.33-6-1-6.45-3.85-.62.12,11.65.14,11.74.78,2.55,1.71,3.77,1.77,7,0,.49-1,11.74-4,8.36,1.33,1.52,1.13-7,.93-5.13-1.58-.25-2-1-1.15-2.22a4,4,0,0,0,1.39-2.75c-1-.37-2-.72-2.93-1.06a25.49,25.49,0,0,0,.82-3.74,6.37,6.37,0,0,0-2.58-.83,17.58,17.58,0,0,0-.24-3.4,12.06,12.06,0,0,0-3,.93q.09-2,0-4c-1.08-.93-2.32,1-3.59-.37-2-2.11-2.56-4.88-5.2-6.59-4.08-2.65-10.2-.58-14-2.9h0c-1.58-.88,4.4-9,5.72-10.27,4.42-4.38,11-6.13,17-2.53,4.69,2.78,6.9,9,9.87,13.29,2.13,3.08,4.75,4.59,6.92,7.31,3.41,4.27,4.78,8.8,5.27,14.28C126.22,192.12,127.54,198.58,123.58,196.9Zm7.16-22.7c.09,0-4,.94-3.88.94-.64,0,1-4.91-.34-5a6.29,6.29,0,0,0-2,1.19c-1,0-.28-3.51-1.52-3.65a6.33,6.33,0,0,0-2,1.3c-.83,0,.5-5.27-1.16-5.64a3.74,3.74,0,0,0-1.75,1.15c0,.25,0,.43-.37.38a3.32,3.32,0,0,1,.37-.38c-.19-1.4-4.9-6.4-4.88-6.38-2.87-2.38-6.07-4-9.12-6.16h0C113.65,145.39,132.48,164.15,130.74,174.2Z"/><path d="M106,166.34h0c-.73.73-1.7,6.95.55,5.53S107.46,164.86,106,166.34Z"/><path d="M102.56,163.06c-3.16,2,1.84,4.53,1.76,4.35C104,166.64,106.8,160.35,102.56,163.06Z"/><path d="M108.55,169.87c-1.41.37-1.28,8.21,1.52,6C111.59,174.63,111.4,169.12,108.55,169.87Z"/></svg>