<svg xmlns="http://www.w3.org/2000/svg" width="600" height="404.07" viewBox="0 0 600 404.07"><path fill="#fff" stroke="#50d6cc" stroke-linecap="round" stroke-linejoin="round" d="M29.65 3.04h522.5v349.69H29.65z"/><path d="M359.41 194.62h-137m151.84-11.16H207.57m166.66-11.15H207.57m151.84-11.16h-137M274.23 246.66V109.11m11.12 152.43V94.23m11.1 167.31V94.23m11.12 152.43V109.11" fill="none" stroke="#50d6cc" stroke-linecap="round" stroke-width="6.85"/><ellipse cx="290.9" cy="177.88" rx="28" ry="28.11" fill="#fff" stroke="#50d6cc" stroke-width="4.28"/><path fill="none" stroke="#a3a3a3" stroke-linecap="round" stroke-linejoin="round" d="M6.2 193.34l-.01 2.5"/><path fill="none" stroke="#a3a3a3" stroke-linecap="round" stroke-linejoin="round" stroke-dasharray="4.98 4.98" d="M6.17 200.82l-.65 146.92"/><path fill="none" stroke="#a3a3a3" stroke-linecap="round" stroke-linejoin="round" d="M5.51 350.23l-.01 2.5H8"/><path fill="none" stroke="#a3a3a3" stroke-linecap="round" stroke-linejoin="round" stroke-dasharray="2.86 2.86" d="M10.86 352.73h4.28"/><path fill="none" stroke="#a3a3a3" stroke-linecap="round" stroke-linejoin="round" d="M16.57 352.73h2.5M19.07 1.98h-2.5"/><path fill="none" stroke="#a3a3a3" stroke-linecap="round" stroke-linejoin="round" stroke-dasharray="2.86 2.86" d="M13.71 1.98H9.43"/><path fill="none" stroke="#a3a3a3" stroke-linecap="round" stroke-linejoin="round" d="M8 1.98H5.5l.01 2.5"/><path fill="none" stroke="#a3a3a3" stroke-linecap="round" stroke-linejoin="round" stroke-dasharray="5.01 5.01" d="M5.53 9.49l.65 147.93"/><path fill="none" stroke="#a3a3a3" stroke-linecap="round" stroke-linejoin="round" d="M6.19 159.93l.01 2.5M303.53 395.67h2.5"/><path fill="none" stroke="#a3a3a3" stroke-linecap="round" stroke-linejoin="round" stroke-dasharray="4.97 4.97" d="M311.01 395.67h236.15"/><path fill="none" stroke="#a3a3a3" stroke-linecap="round" stroke-linejoin="round" d="M549.65 395.67h2.5v-2.5"/><path fill="none" stroke="#a3a3a3" stroke-linecap="round" stroke-linejoin="round" stroke-dasharray="4.55 4.55" d="M552.15 388.62V363.6"/><path fill="none" stroke="#a3a3a3" stroke-linecap="round" stroke-linejoin="round" d="M552.15 361.32v-2.5M29.65 358.82v2.5"/><path fill="none" stroke="#a3a3a3" stroke-linecap="round" stroke-linejoin="round" stroke-dasharray="4.55 4.55" d="M29.65 365.87v25.02"/><path fill="none" stroke="#a3a3a3" stroke-linecap="round" stroke-linejoin="round" d="M29.65 393.17v2.5h2.5"/><path fill="none" stroke="#a3a3a3" stroke-linecap="round" stroke-linejoin="round" stroke-dasharray="4.97 4.97" d="M37.12 395.67h236.04"/><path fill="none" stroke="#a3a3a3" stroke-linecap="round" stroke-linejoin="round" d="M275.64 395.67h2.5"/><path d="M5.54 172a3 3 0 013.07 3 4.72 4.72 0 01-1.87 3.34 14.21 14.21 0 00-2.88 3.31h4.45a.23.23 0 00.18-.07.25.25 0 01.23-.08v1.19H2.5v-.75A12.61 12.61 0 015.57 178c.77-.69 1.86-1.62 1.86-2.91a2 2 0 00-2-2 2.21 2.21 0 00-1.81 1c-.09.14 0 .25-.14.39l-.87-.69A3.45 3.45 0 015.54 172zM292.05 395.13a2.84 2.84 0 011.82 2.73 3.09 3.09 0 01-3.26 3.1 3.71 3.71 0 01-2.79-1.21l.9-1.07c.15.15.07.32.22.48a2.26 2.26 0 001.66.72 2.13 2.13 0 002.13-2.16c0-1.26-1.06-2-2.49-2a3.27 3.27 0 00-.54 0v-1a4 4 0 001.67-.27 1.84 1.84 0 001.13-1.66 1.71 1.71 0 00-1.84-1.65 2.55 2.55 0 00-1.83.81l-.66-.73a3.46 3.46 0 012.55-1.14 2.78 2.78 0 012.91 2.69 2.45 2.45 0 01-1.58 2.36z"/><path fill="none" stroke="#a3a3a3" stroke-linecap="round" stroke-linejoin="round" d="M303.53 371h2.5"/><path fill="none" stroke="#a3a3a3" stroke-linecap="round" stroke-linejoin="round" stroke-dasharray="5.32 5.32" d="M311.36 371h61.21"/><path fill="none" stroke="#a3a3a3" stroke-linecap="round" stroke-linejoin="round" d="M375.23 371h2.5v-2.5"/><path fill="none" stroke="#a3a3a3" stroke-linecap="round" stroke-linejoin="round" stroke-dasharray="5.05 5.05" d="M377.73 363.44V143.61"/><path fill="none" stroke="#a3a3a3" stroke-linecap="round" stroke-linejoin="round" d="M377.73 141.08v-2.5M203.74 144.75v2.5"/><path fill="none" stroke="#a3a3a3" stroke-linecap="round" stroke-linejoin="round" stroke-dasharray="4.92 4.92" d="M203.74 152.17v213.87"/><path fill="none" stroke="#a3a3a3" stroke-linecap="round" stroke-linejoin="round" d="M203.74 368.5v2.5h2.5"/><path fill="none" stroke="#a3a3a3" stroke-linecap="round" stroke-linejoin="round" stroke-dasharray="5.34 5.34" d="M211.58 371h61.4"/><path fill="none" stroke="#a3a3a3" stroke-linecap="round" stroke-linejoin="round" d="M275.64 371h2.5"/><path d="M291.74 376.12h-1.19V367l-2.13.63-.27-.66 2.77-1.45h.82z"/><path fill="none" stroke="#a3a3a3" stroke-linecap="round" stroke-linejoin="round" d="M582.63 189.44v2.5"/><path fill="none" stroke="#a3a3a3" stroke-linecap="round" stroke-linejoin="round" stroke-dasharray="4.69 4.69" d="M582.63 196.63v7.03"/><path fill="none" stroke="#a3a3a3" stroke-linecap="round" stroke-linejoin="round" d="M582.63 206.01v2.5h-2.5"/><path fill="none" stroke="#a3a3a3" stroke-linecap="round" stroke-linejoin="round" stroke-dasharray="4.93 4.93" d="M575.2 208.51H252.26"/><path fill="none" stroke="#a3a3a3" stroke-linecap="round" stroke-linejoin="round" d="M249.8 208.51h-2.5M582.63 250.56v2.5"/><path fill="none" stroke="#a3a3a3" stroke-linecap="round" stroke-linejoin="round" stroke-dasharray="3.04 3.04" d="M582.63 256.1v4.57"/><path fill="none" stroke="#a3a3a3" stroke-linecap="round" stroke-linejoin="round" d="M582.63 262.19v2.5h-2.5"/><path fill="none" stroke="#a3a3a3" stroke-linecap="round" stroke-linejoin="round" stroke-dasharray="4.93 4.93" d="M575.2 264.69H252.26"/><path fill="none" stroke="#a3a3a3" stroke-linecap="round" stroke-linejoin="round" d="M249.8 264.69h-2.5M247.3 146.67h2.5"/><path fill="none" stroke="#a3a3a3" stroke-linecap="round" stroke-linejoin="round" stroke-dasharray="4.93 4.93" d="M254.73 146.67h322.94"/><path fill="none" stroke="#a3a3a3" stroke-linecap="round" stroke-linejoin="round" d="M580.13 146.67h2.5v2.5"/><path fill="none" stroke="#a3a3a3" stroke-linecap="round" stroke-linejoin="round" stroke-dasharray="3.98 3.98" d="M582.63 153.15v5.96"/><path fill="none" stroke="#a3a3a3" stroke-linecap="round" stroke-linejoin="round" d="M582.63 161.1v2.5M234.27 90.08h2.5"/><path fill="none" stroke="#a3a3a3" stroke-linecap="round" stroke-linejoin="round" stroke-dasharray="4.98 4.98" d="M241.75 90.08h335.89"/><path fill="none" stroke="#a3a3a3" stroke-linecap="round" stroke-linejoin="round" d="M580.13 90.08h2.5v2.5"/><path fill="none" stroke="#a3a3a3" stroke-linecap="round" stroke-linejoin="round" stroke-dasharray="4.07 4.07" d="M582.63 96.65v6.1"/><path fill="none" stroke="#a3a3a3" stroke-linecap="round" stroke-linejoin="round" d="M582.63 104.79v2.5"/><path d="M569.69 182.23a1 1 0 110-1.95 1 1 0 110 1.95zM579.53 176.39a2.85 2.85 0 011.82 2.74 3.08 3.08 0 01-3.26 3.09 3.71 3.71 0 01-2.78-1.21l.89-1.07c.15.16.08.32.22.48a2.26 2.26 0 001.66.72 2.13 2.13 0 002.13-2.16c0-1.26-1.05-2-2.49-2a3.27 3.27 0 00-.54 0v-1a4.18 4.18 0 001.68-.26 1.88 1.88 0 001.13-1.67 1.72 1.72 0 00-1.85-1.65 2.51 2.51 0 00-1.82.81l-.66-.73a3.44 3.44 0 012.54-1.14 2.79 2.79 0 012.92 2.69 2.44 2.44 0 01-1.59 2.36zM588 176.39a2.85 2.85 0 011.82 2.74 3.08 3.08 0 01-3.26 3.09 3.71 3.71 0 01-2.78-1.21l.89-1.07c.15.16.08.32.22.48a2.26 2.26 0 001.66.72 2.13 2.13 0 002.13-2.16c0-1.26-1.05-2-2.49-2a3.27 3.27 0 00-.54 0v-1a4.18 4.18 0 001.68-.26 1.88 1.88 0 001.13-1.67 1.72 1.72 0 00-1.85-1.65 2.51 2.51 0 00-1.82.81l-.66-.73a3.44 3.44 0 012.54-1.14 2.79 2.79 0 012.92 2.69 2.44 2.44 0 01-1.59 2.36zM596.53 176.39a2.85 2.85 0 011.82 2.74 3.08 3.08 0 01-3.26 3.09 3.71 3.71 0 01-2.78-1.21l.89-1.07c.15.16.08.32.22.48a2.26 2.26 0 001.66.72 2.13 2.13 0 002.13-2.16c0-1.26-1.05-2-2.49-2a3.27 3.27 0 00-.54 0v-1a4.18 4.18 0 001.68-.26 1.88 1.88 0 001.13-1.67 1.72 1.72 0 00-1.85-1.65 2.51 2.51 0 00-1.82.81l-.66-.73a3.44 3.44 0 012.54-1.14 2.79 2.79 0 012.92 2.69 2.44 2.44 0 01-1.59 2.36zM569.69 123.85a1 1 0 110-1.95 1 1 0 110 1.95zM579.53 118a2.85 2.85 0 011.82 2.73 3.08 3.08 0 01-3.26 3.1 3.71 3.71 0 01-2.78-1.21l.89-1.07c.15.16.08.32.22.48a2.26 2.26 0 001.66.72 2.13 2.13 0 002.13-2.16c0-1.26-1.05-2-2.49-2a3.27 3.27 0 00-.54 0v-1a3.92 3.92 0 001.68-.27 1.86 1.86 0 001.13-1.66 1.72 1.72 0 00-1.85-1.65 2.51 2.51 0 00-1.82.81l-.66-.73a3.44 3.44 0 012.54-1.09 2.79 2.79 0 012.92 2.69 2.44 2.44 0 01-1.59 2.31zM588 118a2.85 2.85 0 011.82 2.73 3.08 3.08 0 01-3.26 3.1 3.71 3.71 0 01-2.78-1.21l.89-1.07c.15.16.08.32.22.48a2.26 2.26 0 001.66.72 2.13 2.13 0 002.13-2.16c0-1.26-1.05-2-2.49-2a3.27 3.27 0 00-.54 0v-1a3.92 3.92 0 001.68-.27 1.86 1.86 0 001.13-1.66 1.72 1.72 0 00-1.85-1.65 2.51 2.51 0 00-1.82.81l-.66-.73a3.44 3.44 0 012.57-1.09 2.79 2.79 0 012.92 2.69A2.44 2.44 0 01588 118zM596.53 118a2.85 2.85 0 011.82 2.73 3.08 3.08 0 01-3.26 3.1 3.71 3.71 0 01-2.78-1.21l.89-1.07c.15.16.08.32.22.48a2.26 2.26 0 001.66.72 2.13 2.13 0 002.13-2.16c0-1.26-1.05-2-2.49-2a3.27 3.27 0 00-.54 0v-1a3.92 3.92 0 001.68-.27 1.86 1.86 0 001.13-1.66 1.72 1.72 0 00-1.85-1.65 2.51 2.51 0 00-1.82.81l-.66-.73a3.44 3.44 0 012.54-1.09 2.79 2.79 0 012.92 2.69 2.44 2.44 0 01-1.59 2.31zM569.59 242.52a1 1 0 111-1 1 1 0 01-1 1zM579.51 236.81a2.77 2.77 0 011.83 2.67 3.05 3.05 0 01-3.28 3 3.81 3.81 0 01-2.81-1.17l.9-1.05c.15.15.08.31.22.47a2.38 2.38 0 001.67.7 2.11 2.11 0 002.15-2.11c0-1.23-1.06-2-2.5-2a4.93 4.93 0 00-.55 0v-.93a4.2 4.2 0 001.69-.26 1.81 1.81 0 001.14-1.63 1.72 1.72 0 00-1.86-1.61 2.58 2.58 0 00-1.84.8l-.67-.72a3.57 3.57 0 012.57-1.11 2.78 2.78 0 012.94 2.62 2.38 2.38 0 01-1.6 2.33zM588.07 236.81a2.78 2.78 0 011.84 2.67 3.06 3.06 0 01-3.29 3 3.77 3.77 0 01-2.8-1.17l.9-1.05c.15.15.07.31.22.47a2.35 2.35 0 001.67.7 2.11 2.11 0 002.15-2.11c0-1.23-1.06-2-2.51-2a4.89 4.89 0 00-.54 0v-.93a4.13 4.13 0 001.68-.26 1.81 1.81 0 001.14-1.63 1.71 1.71 0 00-1.85-1.61 2.56 2.56 0 00-1.84.8l-.67-.72a3.53 3.53 0 012.57-1.11 2.77 2.77 0 012.93 2.62 2.38 2.38 0 01-1.6 2.33zM596.64 236.81a2.77 2.77 0 011.83 2.67 3.05 3.05 0 01-3.28 3 3.81 3.81 0 01-2.81-1.17l.9-1.05c.15.15.08.31.22.47a2.39 2.39 0 001.68.7 2.1 2.1 0 002.14-2.11c0-1.23-1.06-2-2.5-2a4.93 4.93 0 00-.55 0v-.93a4.2 4.2 0 001.69-.26 1.81 1.81 0 001.14-1.63 1.72 1.72 0 00-1.86-1.61 2.58 2.58 0 00-1.84.8l-.66-.72a3.53 3.53 0 012.56-.97 2.78 2.78 0 012.94 2.62 2.38 2.38 0 01-1.6 2.19z"/><path fill="none" stroke="#a3a3a3" stroke-linecap="round" stroke-linejoin="round" stroke-dasharray="5 5" d="M582.63 208.51v15.66M582.63 131.46v15.21"/><path d="M214.63 101.43a.69.69 0 11.71-.69.71.71 0 01-.71.69zM223.16 97.68c0 2.57-1.28 3.75-2.37 3.75s-2.42-1.4-2.42-3.82 1.23-3.84 2.41-3.84 2.38 1.36 2.38 3.91zm-2.39-3.18c-.74 0-1.62 1.06-1.62 3a5.45 5.45 0 00.17 1.41l2.68-3.44c-.37-.66-.82-.97-1.23-.97zm-1.17 5.14c.32.66.78 1 1.22 1 .66 0 1.56-.79 1.56-2.88a6.55 6.55 0 00-.15-1.5zM228.85 94.42l-.58.64c-.11-.08-.11-.19-.18-.27a1.35 1.35 0 00-.87-.31c-.54 0-1.77.33-1.82 2.89a1.83 1.83 0 011.59-.9 2.2 2.2 0 012 2.44 2.27 2.27 0 01-2.14 2.5 2.1 2.1 0 01-1.76-1 4.57 4.57 0 01-.57-2.53 7.27 7.27 0 01.32-2.3 2.5 2.5 0 012.32-1.86 2.37 2.37 0 011.69.7zm-3.41 3.79c-.09 1.39.59 2.46 1.5 2.46.63 0 1.28-.54 1.28-1.71s-.71-1.76-1.31-1.76a1.78 1.78 0 00-1.47 1.01zM234.85 94.42l-.58.64c-.11-.08-.11-.19-.18-.27a1.35 1.35 0 00-.87-.31c-.54 0-1.77.33-1.82 2.89a1.83 1.83 0 011.59-.9 2.2 2.2 0 012 2.44 2.27 2.27 0 01-2.14 2.5 2.1 2.1 0 01-1.76-1 4.57 4.57 0 01-.57-2.53 7.27 7.27 0 01.32-2.3 2.5 2.5 0 012.32-1.86 2.37 2.37 0 011.69.7zm-3.41 3.79c-.09 1.39.59 2.46 1.5 2.46.63 0 1.28-.54 1.28-1.71s-.71-1.76-1.31-1.76a1.78 1.78 0 00-1.47 1.01zM240.85 94.42l-.58.64c-.11-.08-.11-.19-.18-.27a1.35 1.35 0 00-.87-.31c-.54 0-1.77.33-1.82 2.89a1.83 1.83 0 011.59-.9 2.2 2.2 0 012 2.44 2.27 2.27 0 01-2.14 2.5 2.1 2.1 0 01-1.76-1 4.57 4.57 0 01-.57-2.53 7.27 7.27 0 01.32-2.3 2.5 2.5 0 012.32-1.86 2.37 2.37 0 011.69.7zm-3.41 3.79c-.09 1.39.59 2.46 1.5 2.46.63 0 1.28-.54 1.28-1.71s-.71-1.76-1.31-1.76a1.78 1.78 0 00-1.47 1.01z"/><path fill="none" stroke="#a3a3a3" stroke-linecap="round" stroke-linejoin="round" stroke-dasharray="5 5" d="M234.27 105.2h87.75"/></svg>