<svg xmlns="http://www.w3.org/2000/svg" width="500" height="300" viewBox="0 0 500 300"><defs><linearGradient id="a" x1="2233.66" y1="8414.67" x2="2233.66" y2="8423.03" gradientTransform="matrix(6.98 0 0 -6.98 -15347.36 58931.77)" gradientUnits="userSpaceOnUse"><stop offset="0" stop-color="#ff8c00"/><stop offset=".36" stop-color="#b6ae7f"/><stop offset=".66" stop-color="#6ed0ff"/><stop offset="1" stop-color="#6ed0ff"/></linearGradient><linearGradient id="b" x1="2104.55" y1="8305.5" x2="2104.59" y2="8310.02" gradientTransform="matrix(6.98 0 0 -6.98 -14448.66 58216.03)" gradientUnits="userSpaceOnUse"><stop offset="0" stop-color="#29b910"/><stop offset="1" stop-color="#c2d110"/></linearGradient><linearGradient id="c" x1="2101.95" y1="8300.07" x2="2108.4" y2="8301.69" gradientTransform="matrix(6.98 0 0 -6.98 -14448.66 58216.03)" gradientUnits="userSpaceOnUse"><stop offset="0" stop-color="#38b610"/><stop offset="1" stop-color="#f0b610"/></linearGradient><linearGradient id="d" x1="2109.54" y1="8310.12" x2="2109.55" y2="8308.85" gradientTransform="matrix(6.98 0 0 -6.98 -14448.66 58216.03)" gradientUnits="userSpaceOnUse"><stop offset="0" stop-color="#86e2ff"/><stop offset="1" stop-color="#003f99"/></linearGradient><linearGradient id="e" x1="2104.91" y1="8314.1" x2="2104.91" y2="8311.3" gradientTransform="matrix(6.98 0 0 -6.98 -14448.66 58216.03)" gradientUnits="userSpaceOnUse"><stop offset="0" stop-color="#541e30"/><stop offset="1" stop-color="#7c4790"/></linearGradient></defs><path d="M0 300h500V0H0z" fill="#002569"/><path d="M234 81.35c-2.65 2.87-6.95 4.41-10 5.4a12.08 12.08 0 01-6.5-.11 13.75 13.75 0 002-3 9.6 9.6 0 00.8-6.64c-.55-2.76 1.21-3.83 1.65-3.75a46.75 46.75 0 008.93.55 11.34 11.34 0 01-.33 2.31 21.39 21.39 0 00-.11 3.65s3.41-1.45 4.63-1.88.87.21.87.21a1.67 1.67 0 01-.1 1.44 26.39 26.39 0 01-1.84 1.82M255.9 73.53s4.18 4.41 6.83 5.84c2.41 2.9 3.31 8.15 3.85 8.79a1.9 1.9 0 001.8.57 28 28 0 00-.94-6.54 13.85 13.85 0 00-1.6-3.08A44.91 44.91 0 00261.4 76a39 39 0 01-5.61-4.63l.11 2.2M267.69 73.75a9.28 9.28 0 013.41 2.65c1.33 1.76 2.87 6.61 5.63 7.27s5.84 1.43 5.84 1.43-1.44-1.77-1.44-5.51-.65-6.84-3.63-7.72-3.18-.9-3.18-.9v3.87l-6.83-2.52-.72-.29.94 1.72"/><path d="M266.6 82.38a13.84 13.84 0 011.06 6.62c-1.15-2.33-2.16-9.61-5-10.28-1.9-1.54-5.72-4.67-5.72-4.67l-.56-1.83c2.45 3.42 5.38 3.92 9.26 7.86M232.75 81.58c-2.38 2.56-5.93 3.61-8.71 4.51a11.57 11.57 0 01-5.75.12 12 12 0 001.79-2.67 8.68 8.68 0 00.79-6.05c-.49-2.49 1.13-3.49 1.48-3.37a39.56 39.56 0 007.64.51 6.38 6.38 0 01.1 2.06 30.43 30.43 0 00-.31 3.78s3.21-1.37 4.3-1.76.88-.23.88-.23a1.52 1.52 0 01-.11 1.28 20.46 20.46 0 01-2.1 1.82M268 73.2a20.55 20.55 0 013.81 3.41c1.19 1.59 2.57 6 5.06 6.54s4.36.95 4.36.95-.66-1.25-.66-4.62-.33-6.14-3-6.93-2.8-.8-2.8-.8l.29 3.65-5.62-1.65-1.44-.55" fill="#3cff16"/><path d="M273.58 71.21c0 .66.72 1.69-.05 2.38L268.7 72c-.24.46 0-.44-.68-.44-1.21-.23-.5-1.11-2 .07.32 1.45 1.48 2.54 1.93 4l1.1 1.16c-.51.47-1.58.05-1.48.91a27 27 0 00-2.6-.81 22.11 22.11 0 01-4.73-2.65c-1.65-1.1-5-4.08-5-4.08l-.24 3.2c-.46 3.65-1.51 7.39-5 9 .39-1.87-1-3.54-1.39-5.31a40.65 40.65 0 01-1.77 3.77l-.57.62-1.74 1.32-.14-.06-.39.3-.14-.12c-.18.14-.11.46-.37.41l-.07-.12-.26.2a3.06 3.06 0 01-1.44.33c.42-1.22-.29-2.45-.47-3.69a10 10 0 01-3.77 1.78c-.25.28-.77.7-1.05.31.74-1.48-.21-4 .52-5.65h-.13c-1.48 1.3-3.8 1.07-5.48 2.18H231c-.45-1.75.53-3.64.79-5.51-.34-.31-.6 0-1 0-1.24.45-1.65-.07-3 .12v-.08a3.22 3.22 0 01-1.92-.31c-.32.54-.8 0-1.2-.1a5.94 5.94 0 01-1.07.14h-1.37c-.21-.19-.53 0-.61-.31v-.33c3.08-.64 5.36-3.63 7.52-6-.62-.49-1.39.19-1.81-.51-.6-.18-1.39 0-1.8-.53l-.13.13c-.48-.71-1.86-.45-2.68-1a4.14 4.14 0 01-1.53-.4c-.26.33-.47-.11-.74-.11-.76-.89.75-1.21 1.13-1.83a16.25 16.25 0 002.64-1.74c-1.27-.61-2.73-.5-3.95-1.31.3-.81 1.42-1.11 2-1.86a6.58 6.58 0 001.54-1.11c-1.88-.92-4.37-.23-6-1.7-.22-.85.7-.75 1.15-1.1.8 0 1.9-.6 2.69-.57 1-.82 2.38-.14 3.55-.71l1.18-.45c-.7-.83-1.89-.85-2.65-1.68h-.52c-.28-.45-1.35-.6-2-1s-1.14-.55-1.23-1.16a12 12 0 018.15-1.61c-.73-1.9-2.19-3.83-2.6-6 2.44 0 4.8 1 7.08 1.84a54.88 54.88 0 00-.41-5.59c2.11-.15 2.41 2.54 4 3.41a4.59 4.59 0 00.2-1.52c.55-1.22.17-2.66.52-4.06 1.46.28 2.24 1.64 3.07 2.73A18.7 18.7 0 00241.6 40c.58-.28.16-.93.4-1.54a13.6 13.6 0 001.27-5.14c.46-.13.55.52.82.77 2.72 2.15 3.77 5.21 5.06 8 .83-2.48 1.64-5.67 3.83-7.35.7-.62 1.39-1.51 2.39-1.54.29.64.07 1.9.37 2.69 1 2.41-.1 4.63-.08 6.94a55.49 55.49 0 016.44-8.37c.18-.4.82-1.09 1.17-.7.75.83.34 2.3 1.16 3-.87 1.43-.35 2.93-1.09 4.34l.07.14c2.67-2.75 5.92-4.65 8.69-6.55-.28 3-.43 6.31-2.72 8.7a23.33 23.33 0 015.65-.94c1.45-.11 2.89-.83 4.27-.94.87.35-.09 1.19-.06 1.78-2 2.46-3.91 5.37-6.92 6.41a25.48 25.48 0 014.5 1.61h.33v.14c1.18.08 2.31.31 3.28-.45.47 0 .67.23.75.62-1.42 2.78-4.15 4-6.7 5 .2 1.58 2.33 2 3.67 2.57.81.57 2.27.58 2.44 1.57a5.94 5.94 0 01-5.28 2.12 1.54 1.54 0 00-.74-.24c-.16 1 1.13 1.68 1.61 2.46.91 1.09 2.5 1.29 3 2.65a7.82 7.82 0 01-5.62.4c-.6-.22-1.38-.07-2-.37a5.19 5.19 0 001.64 2.75l.4.75" fill="#f1ad02"/><path d="M248.18 48.09c6.31-1.23 12.27.69 16.31 6.16 1.31 3.33-1.11 7-3.41 9-6.74 3.89-17.35 3.68-23.92-.44-1.25-1.48-2.66-3.78-2-5.86 1-5.19 5.92-8 10.53-8.85h2.5" fill="#d15b25"/><path d="M265.59 73.57c0 .32-.1.85.17 1.17-.62 1-1.79-.06-2.65-.17-2.11-.84-5.11-4.57-6.33-5.89a6.8 6.8 0 00-.67-1.87l5.14 2.19c1.17 1.28 3.79 2.51 4.34 4.6M253.12 71.11a12.67 12.67 0 01-.5 6.1l-.14-.12-.56.87c0-.38-.26 0-.34-.25-4.72-3.84-2-10.56-1.42-10.12 1.66-.55 2.43 2.42 3 3.52M246.73 73.53c.62 2.43-.42 4.85-2 6.76.09.72-.83.76-1.35 1.1-1.13-3.52.34-7 1-10.28-.34-.19.23-3 .48-3.31 1 .83 1.47 4.36 1.86 5.73" fill="#ff0"/><path d="M230.63 74.86a4.66 4.66 0 00-2.22 2.79 6.52 6.52 0 00.52 3.08l-.39.22c-.56-.78-.39-1.58-.75-2.42a25.58 25.58 0 01-6.88 7.27c-.19-.12-.39-.12-.54-.38 3.1-1.9 5.69-5.37 7.69-8.62-1.64.45-3.15.85-5 1.32-.19.06-.24.46-.58.34a.86.86 0 01-.08-.58c1.42-.85 3-.64 4.57-1.51.54.25.72-.34 1.31-.5.32-.21.3-.61.43-.88.45-.21.61.57.92 0 .19-.28.78-.49 1-.1M277.84 77.28c.47.43 1.15.73.91 1.47-.66.09-.69-.68-1.1-1a5.47 5.47 0 00-2.9-1.54l-.26.2c1.54 2.19 4.45 3.81 4.68 6.64-1 .24-.64-1.23-1.18-1.74-.38-1.18-1.6-2-2.36-2.88-.58.41.23.91-.15 1.38h-.53c-.15-.78.35-1.33-.08-2.24a22.77 22.77 0 01-2.71-3.6l.18-.2c.65 2.94 4.09 1.29 5.5 3.5"/><path d="M238 80.81s2.54-1.33 2.87-2.32 1.43-5.29 1.21-6.39a37.81 37.81 0 01-.33-3.86 46.36 46.36 0 00-3.64 5.63c-.55 1.42-.11 6.94-.11 6.94M232.53 73.41l-.88 4a15 15 0 003.31-1 18.5 18.5 0 003.08-6c.33-1.75.88-4.07.88-4.07a35.36 35.36 0 00-4.29 3.53 12.24 12.24 0 00-2.1 3.51M261.85 64.17a11.09 11.09 0 002.53 3.63c1.43 1.1 7.94 4.4 7.94 4.4s-.22-3-2-4.4-8.48-3.63-8.48-3.63M264.93 62.4a34.43 34.43 0 005.85 3.31 20.27 20.27 0 004.73 1.22 2.89 2.89 0 001.54-.12 34 34 0 01-3.41-2.76c-1.65-1.54-2.75-2.85-4.74-2.85a9 9 0 00-4 1.2M267.47 58.55s5.18 2.76 6.94 2.86a19 19 0 004.63-.65 10.64 10.64 0 01-3.86-1.65c-1.87-1.33-.77-2.1-3-2.21a17.09 17.09 0 00-5.51 1.22l.77.43M267 55.79s6.72.66 7.6 0 4.07-3 4.07-3a16.59 16.59 0 01-3.74-.88 8.58 8.58 0 00-3.42-1.43 4.32 4.32 0 00-3.63.89c-.33.32-2 2.09-2 2.09l.34 2 .76.32M277.5 43.13s-6.61.44-8.71 1.33-5 5.72-5 5.72a10.24 10.24 0 003.64-.33c1.76-.56 5.84-1.09 6.72-2.2s3.31-4.52 3.31-4.52M270.78 36.85a8.92 8.92 0 01-1.22 3.74c-1.1 1.78-3.3 4.84-4.63 5.39a28.09 28.09 0 00-3.85 2.44s1.32-4.63 2.09-5.29 7.61-6.28 7.61-6.28M262.84 35.42s-.22 5.07-1 6.39-2.87 5.5-2.87 5.5l-1.54.1a3.37 3.37 0 01-1-2.41c0-1.54 2.65-5.18 2.65-5.18l3.75-4.4M254.36 35a19.07 19.07 0 01.55 3.52c0 1.32-.55 6-.55 6l-2 1.88a3.49 3.49 0 01-1.55-1.76 8.8 8.8 0 010-5.06 48.2 48.2 0 013.55-4.58M244.21 35.52a25.17 25.17 0 012.87 4.64c.66 1.75 2 3.41 1.76 4.39S247 46.64 247 46.64s-2.31-.32-2.65-1.86-1.1-4.29-1.1-4.29l1-5M237.93 35.52a50.56 50.56 0 012.87 5.4c.55 1.54 1.65 5.84 1.65 5.84a4.2 4.2 0 01-2.76.78c-1.43-.23-2.09-1.88-2-3.75s.22-8.27.22-8.27M234.08 38.83s2.2 3.3 2.31 5a47.34 47.34 0 001 5.29 3.41 3.41 0 01-2.87-2c-1-2-.43-8.27-.43-8.27M227.46 41.15s4.74 2.19 5.07 3 2.53 6.27 2.53 6.27-4.07-2.19-4.85-3.63-2.53-5.29-2.53-5.29l-.22-.32M222.06 48s2.87-1.1 4.41-.55 6.28 3.19 6.28 3.19-4 .32-5.07-.11-5.62-2.53-5.62-2.53M234.19 53.38s-9.26-.89-11.47-.11a11.2 11.2 0 01-2.86.77s3.09.54 5.18 1.09 6.72.78 7.16.44a27.63 27.63 0 002-2.19M233.42 57.11a56.1 56.1 0 00-6.73-.32c-1 .22-4.52 1.65-4.52 1.65a25.77 25.77 0 003.53 1 45.29 45.29 0 006.72 0l1.55-1-.55-1.33M233.74 60.65s-5-.67-6.94-.11a16.57 16.57 0 00-4.3 2.2s-.11.32 2 1 4.41 2 5.73 1.43 4.28-2.17 4.28-2.17l.56-1.54-1.33-.76M236.06 64.17s-4.52 2.2-6.28 3.4-3.31 3.42-4.08 3.66a16.52 16.52 0 00-1.77.64 40.51 40.51 0 014.41.23 6.17 6.17 0 004.52-1.77c1-1 3.53-4.3 3.53-4.3l-.33-1.86" fill="#ff0"/><path d="M218.76 89.85s-.52-.65 1.56-.7 9.31-.06 10.6-.06a4 4 0 012.84.88c1.17.76 5.3 3.23 5.3 3.23s.51.64-3.1.64h-9.06c-1.93 0-2.06-.12-2.84-.52s-5.3-3.47-5.3-3.47M249 89.85s-.52-.65 1.55-.7 8.15-.06 9.44-.06a4 4 0 012.85.88c1.16.76 5.29 3.23 5.29 3.23s.52.64-3.1.64h-7.88c-2 0-2.07-.12-2.85-.52s-5.3-3.47-5.3-3.47M276.7 89.85s-.51-.65 1.56-.7 7.37-.06 8.66-.06 3.76.06 4.92.82 3.48 2.76 3.48 2.76 1 1.17-2.57 1.17h-7.9c-1.93 0-2.07-.12-2.84-.52s-5.31-3.47-5.31-3.47" fill="#4fa8ff"/><path d="M233.89 89.85s-.52-.65 1.55-.7 9.32-.06 10.61-.06a4 4 0 012.85.88c1.16.76 5.3 3.23 5.3 3.23s.51.64-3.1.64H242c-1.94 0-2.07-.12-2.84-.52s-5.31-3.47-5.31-3.47M262.74 89.85s-.52-.65 1.55-.7 8.54-.06 9.83-.06A4 4 0 01277 90c1.16.76 5.3 3.23 5.3 3.23s.5.64-3.11.64h-8.27c-1.95 0-2.07-.12-2.85-.52s-5.3-3.47-5.3-3.47M204.79 90.32s-.39-1.12 1.68-1.17 8.28-.06 9.57-.06a4 4 0 012.85.88c1.16.76 5.3 3.23 5.3 3.23s.52.64-3.1.64h-8a16.27 16.27 0 01-5.43-.94 21.86 21.86 0 01-2.85-2.58" fill="#ff0"/><path d="M218.65 89.81s-.52-.65 1.56-.71 9.31 0 10.59 0a4 4 0 012.85.87c1.16.77 5.3 3.23 5.3 3.23s.51.65-3.1.65h-9.06c-1.93 0-2.07-.12-2.84-.53s-5.31-3.46-5.31-3.46zM248.92 89.81s-.52-.65 1.55-.71 8.15 0 9.43 0a4 4 0 012.85.87c1.17.77 5.3 3.23 5.3 3.23s.52.65-3.1.65h-7.89c-1.94 0-2.06-.12-2.84-.53s-5.3-3.46-5.3-3.46zM276.59 89.81s-.52-.65 1.55-.71 7.38 0 8.67 0 3.76 0 4.92.82 3.48 2.76 3.48 2.76 1 1.17-2.58 1.17h-7.89c-1.93 0-2.07-.12-2.84-.53s-5.31-3.46-5.31-3.46z" fill="none" stroke="#000" stroke-width=".08"/><path d="M233.78 89.81s-.52-.65 1.55-.71 9.32 0 10.61 0a4 4 0 012.85.87c1.16.77 5.3 3.23 5.3 3.23s.51.65-3.11.65h-9c-1.94 0-2.07-.12-2.84-.53s-5.31-3.46-5.31-3.46zM262.63 89.81s-.52-.65 1.55-.71 8.54 0 9.83 0a4 4 0 012.84.87c1.17.77 5.3 3.23 5.3 3.23s.51.65-3.1.65h-8.27c-1.95 0-2.07-.12-2.85-.53s-5.3-3.46-5.3-3.46zM204.68 90.27s-.39-1.11 1.68-1.17 8.28 0 9.57 0a4 4 0 012.85.87c1.16.77 5.3 3.23 5.3 3.23s.52.65-3.1.65h-8a16.53 16.53 0 01-5.43-.94 21.78 21.78 0 01-2.85-2.59z" fill="none" stroke="#000" stroke-width=".08"/><path d="M208.17 89.1a12 12 0 013.89 2.58c.9.71 1.68 1.88 3 2.06M205.59 89.1a11.83 11.83 0 013.87 2.58c.91.71 1.69 1.88 3 2.06M211.15 89.1a11.72 11.72 0 013.85 2.58c.91.71 1.69 1.88 3 2.06M214.38 89.1a11.79 11.79 0 013.88 2.58c.91.71 1.68 1.88 3 2.06M222.66 89.1a11.91 11.91 0 013.88 2.58c.91.71 1.68 1.88 3 2.06M220.07 89.1a11.79 11.79 0 013.93 2.58c.91.71 1.68 1.88 3 2.06M225.63 89.1a12 12 0 013.89 2.58c.9.71 1.67 1.88 3 2.06M228.86 89.1a12 12 0 013.89 2.58c.9.71 1.67 1.88 3 2.06M237.92 89.1a11.91 11.91 0 013.88 2.58c.91.71 1.68 1.88 3 2.06M235.33 89.1a12 12 0 013.89 2.58c.9.71 1.67 1.88 3 2.06M240.89 89.1a11.87 11.87 0 013.89 2.58c.91.71 1.68 1.88 3 2.06M244.13 89.1a11.91 11.91 0 013.87 2.58c.91.71 1.69 1.88 3 2.06M252.41 89.1a11.72 11.72 0 013.87 2.58c.91.71 1.69 1.88 3 2.06M249.82 89.1a11.79 11.79 0 013.88 2.58c.91.71 1.69 1.88 3 2.06M255.39 89.1a11.83 11.83 0 013.87 2.58c.91.71 1.69 1.88 3 2.06M258.62 89.1a11.91 11.91 0 013.88 2.58c.9.71 1.68 1.88 3 2.06M266.76 89.1a11.87 11.87 0 013.89 2.58c.9.71 1.68 1.88 3 2.06M264.18 89.1a11.72 11.72 0 013.87 2.58c.91.71 1.69 1.88 3 2.06M269.74 89.1a11.91 11.91 0 013.88 2.58c.9.71 1.68 1.88 3 2.06M273 89.1a11.79 11.79 0 013.88 2.58c.91.71 1.68 1.88 3 2.06M280.87 89.1a12 12 0 013.87 2.58c.91.71 1.69 1.88 3 2.06M278.28 89.1a11.83 11.83 0 013.87 2.58c.91.71 1.68 1.88 3 2.06M283.83 89.1a11.87 11.87 0 013.89 2.58c.9.71 1.68 1.88 3 2.06M287.07 89.1a12 12 0 013.93 2.58c.89.71 1.67 1.88 3 2.06" fill="none" stroke="#000" stroke-width=".08"/><path d="M336.32 180.47a86.32 86.32 0 01-172.64 0 86.32 86.32 0 01172.64-.07v.07z" fill="#fff"/><path d="M325 180.47a74.75 74.75 0 11-74.75-74.75A74.75 74.75 0 01325 180.47z"/><path d="M175.52 180.42a74.86 74.86 0 01149.72 0H175.52z" fill="url(#a)"/><path d="M302.64 165.73a5.35 5.35 0 00-2.61-1.51 4.44 4.44 0 00-2.86 0 4.58 4.58 0 00-2.45 1.39 5.31 5.31 0 00-1.52 2.85 6.4 6.4 0 00.28 2.95l5.55-1.48a20.3 20.3 0 013.31-.53 7.14 7.14 0 012.21 0 9.18 9.18 0 00-1.91-3.68zM284.56 167s-.16-.1-.24.26 0 .39 0 .39l6.35 1.56a1.14 1.14 0 00.37-.51 1.29 1.29 0 00-.07-.65M280 162.26s-.15 0-.22.22.05.31.05.31l11.64 4.21a1.09 1.09 0 00.31-.46 2.05 2.05 0 00.06-.66M305.43 165.91a1.64 1.64 0 00.17.46 1.34 1.34 0 00.31.34L314 162a.32.32 0 000-.28.25.25 0 00-.23-.1M311.85 159.32a.22.22 0 000-.31.28.28 0 00-.33-.08l-7 5.72a1 1 0 00.15.3 2.19 2.19 0 00.28.28M292.34 165.21a1.27 1.27 0 00.43-.37 1.26 1.26 0 00.22-.53l-9.57-6.74a.3.3 0 00-.32.12.37.37 0 00-.05.37M303.32 163.66a1 1 0 00.23.35 2.78 2.78 0 00.42.24l5.81-7.23s.14-.24 0-.34a.41.41 0 00-.34 0M288.74 155.28a.2.2 0 00-.28 0 .44.44 0 00-.2.34l5.38 8a1.47 1.47 0 00.46-.24 1.64 1.64 0 00.33-.41M307.74 154.16s.07-.15-.13-.27a.37.37 0 00-.34 0l-5.27 8.73a1 1 0 00.4.38 2.23 2.23 0 00.47.24M293.45 153.72a.26.26 0 00-.37-.19c-.3.13-.19.33-.19.33l2.83 8.61a1.79 1.79 0 00.56-.13 1.19 1.19 0 00.48-.29M303 153.32s.12-.2-.23-.26-.36.11-.36.11l-2.3 8.8a1.68 1.68 0 001 .25M298.38 152.2s0-.17-.3-.15-.26.17-.26.17l.19 9.69a1.35 1.35 0 00.62.08 1.1 1.1 0 00.51-.12" fill="#ffe400"/><path d="M243.7 106.19c9.56-1 13.28-.35 20.38.75s17 5.46 25 9.65c7.08 4.42 10.89 7.93 19.61 17.3a72.76 72.76 0 015.79 10.55c-.45 2.36-3.1 2.11-4.88 2.57 0 0-4.53.17-5-.45a10.38 10.38 0 00-2.05-2.8 35.8 35.8 0 00-3.07-3.11 70.56 70.56 0 00-19-15.44 73 73 0 00-19.76-7.31 61.22 61.22 0 00-18 .16 80.91 80.91 0 00-15.82 4.49 60.23 60.23 0 00-19.9 12.19c-.43.16-6.23 6.47-6.52 6.57-1.09 1.07-2.6 2.34-2.4 3.94a16.54 16.54 0 00-3.73-.74c-1.51-.18-2.91.3-4.3-.52-1-.06-2.08.61-2.89-1.55.53-3.37 4.11-7.64 4.11-7.64a68.76 68.76 0 0111-11.5c6.5-4.74 10.86-7.92 16.56-10.71a123 123 0 0112.42-4.27c4.79-1.38 3.31-1.16 12.43-2.13z" fill="#ff660f" stroke="#000" stroke-width=".63"/><path d="M202 141.94a2.3 2.3 0 01.62 2.17c-.56 2.06-2.62 2.58-4.18 3.86a1.12 1.12 0 01-2 .47c-.69-.87.84-2-.16-1.93s-3 .48-3.84.17c-1-.08-2.42.57-3.23-.18l-.33-.36c.28-.46.64-1.25 1.08-1.17.52-.55 1.25-.38 1.88-.45a15.58 15.58 0 014.89.38 10.69 10.69 0 011.59.92c.59.36-.41-.36-.69-.48s-.28-.2-.28-.2a6.52 6.52 0 011.28.94 22.62 22.62 0 012.29-2.11c.28-.31 0 .27.11-.06a.57.57 0 01.46-.38c-.29.16-.34.8-.69.56-.52.26-.93.76-1.5 1.07l-.76.38c-.39-2.11.77-2.14 1.27-3l.13.55c.87-.37 1.12-1.62 2.31-.88" fill="#ff660f" stroke="#000" stroke-width=".63"/><path d="M192.75 146.76l3.4-.22c0 .1.2.14.44.19-2 1.33-1.45 4.14-2.06 6.11-1.34 1.85-2.13 4.13-4.08 5.51-.54-1.39-.22-3.21-.52-4.71-.4-.52-1 .19-1.39.4a51.63 51.63 0 01-6 4.85h-.1c1.15-1.94 1.4-4.24 2.25-6.27.24-.06.38-.41.13-.39.95-1.9 1-4.68 3.4-5.54 1.52.28 3.17-.08 4.49.07M304 146.5v.62c-1.32-.05-1.42-.89-2.37-2l-.12.14a9.15 9.15 0 001.92 2.32c.85-.52 2.77-.7 5-.68a18.28 18.28 0 004.94-.73c-.39.84-1.34 1.51-.21 2.35-.78.09-6.05.14-8.84.1-.52.31-1.65.26-1.82 1a29.35 29.35 0 01-2.44-4.11c-.08-.78.69-1.15 1.16-1.55 1.55-.06 1.81 1.68 2.72 2.53" fill="#ff660f" stroke="#000" stroke-width=".63"/><path d="M313.53 148.72c1.9 1.35 2.48 3.8 3.43 5.82a40.43 40.43 0 001.42 4c-2-.91-4.43-1.26-5.82-3.15-1.28 1-1.56 2.59-2.05 4-1.35-1-1.24-2.58-2.52-3.85a17.86 17.86 0 01-1.23-2.66c-.46-1-.64-1.66-1-2.37-.65-.42-.92-1.1-1.56-1.41a7.39 7.39 0 011.3-.44 27.28 27.28 0 005.25-.24 11.29 11.29 0 012.74.34" fill="#ff660f" stroke="#000" stroke-width=".63"/><path d="M305.17 150.69l-.55.61-1-.43c-.63.08-.29-.45-.69-.77-.21-1.53.83-1.12 1.16-1.25.46.42.67 1.27 1.08 1.84" fill="#ff660f" stroke="#000" stroke-width=".63"/><path d="M271.92 189.36a6 6 0 011.85 1.68c1.16-.44 2.58-.11 4-.16 4.06.2 8-.2 11.33-2.21l-.21-.2c-1.06.24-2.53 1.37-3.51-.11-.28-1 .06-2.29-.46-3.15l-.12-3.35a1.73 1.73 0 00-1.41 0v3.5a17.37 17.37 0 01-2.77.26c-.24-1.07.29-2.55-.33-3.65a.37.37 0 00-.43.17v.34l-.35-.33-.19.2c.17 2-.39 4.06.41 5.93a16.28 16.28 0 00-3 1c-.68 0-1.1-.75-1.78-.72-1.07.09-2.19-.11-2.94.65l-.14.16" fill="#fff"/><path d="M194 229.28c.24.31.41.62.66.93.89 1 1.61 1.79 2.62 2.75a24.68 24.68 0 014.73 0c5.79-.31 11.94.05 17.3-.11l.15.15a19.51 19.51 0 014.48-.17c.09.14.29.19.3.38-6.55.67-13.66-.33-20.9.14a46.62 46.62 0 00-5.53.2l2.24 2.11c2.81-.15 6.06-1.2 8.52-.84v.09a28.51 28.51 0 015-.19 13.46 13.46 0 002 0c3 0 4.83.17 8 0l.34.17a7.28 7.28 0 012-.07v-.3l.11.11.45-.9c-.05-.09-.5-.47-.49-.13-.11-.33-.65-.36-.57-.86-1.19-.59 0-2-1.16-2.53-.38.35-1.21.09-1.39.69-.05-.11-.25-.25-.06-.35h-.29c-.81-.85-1.31.06-2.35-.2-2.46-.59-4.1 1.13-6.66.54-2.32-.94-5.35.29-7.74 0a28.13 28.13 0 00-8.83 0l-.3-.23.19-.21 5.06-.33c2.26.6 5.27.19 7.37.31 1.92-.61 4.2.19 6.33.06 1.91-1 3.4-.18 5.58-.65a6.15 6.15 0 01-.07-2.14 31.84 31.84 0 01-4.28.26c-6.88-.13-13.27 1-19.63.28-.67-.19-1.56.09-2.25 0l-1.62.37M255.16 228.87a2.28 2.28 0 01.16 2c2.85.68 5.63-.51 8.52-.22 4 .58 7.54-.18 11.49-.23a5.48 5.48 0 012.76-.4c.28-.2.32-.39.61-.55.17-.78-.22-.82-.91-1 0 0-9.43.24-10.65.24s-12 .17-12 .17M229 216.1c-.64-1 1.48-2.31.39-3.49v-.25a2.47 2.47 0 011.12.21.28.28 0 01-.25-.09c-.36.55.33.77.49 1.3a7.86 7.86 0 00-1.23 2.23l-.51.09" fill="#d15b25"/><path d="M245.89 209.6c1.48-.51 2.83-1.6 4.3-1.37 1 1 2.71.88 3.45 2.36a1.9 1.9 0 00.92-.22 8.25 8.25 0 01-.26-3.06c.37-1.78 2.19-2.67 3.54-3 .62-.35 1.66.09 2.21.51l.09-.11a2 2 0 011.64.82 5.15 5.15 0 002.33-.24c.44.15 1 0 1.24.5 0-.19.18-.3 0-.44 0-.58.57-.41.72-.46.25.23.43-.26.67-.12.63-.08.75.32 1.19.4v-.31a.3.3 0 01.4.29 1.74 1.74 0 011.46-.25.91.91 0 01.79.26 13.34 13.34 0 01.7 4.61c-.59 1.33.66 3.18-.17 4.63 3.26-.12 6-.18 9.31-.06l.35.34c-.19 0-.27.54-.63.11l.1.1c-3.5.18-7.51-.26-11.29.22-3.82-.49-7.69.38-11.4.18-1.63.83-3.56-.26-5.25.19-3.94.24-8.23.26-12 1.57l-.1.1a19.6 19.6 0 01-4.11.73c-.9.58-1.9 0-2.61.55-2.34 0-4.75.74-7.33.7-.14 0-.64-.23-.78 0 0 0-.1 0-.1-.14-3.68.82-7.6 0-11.61 1-.2 0-.5-.36-.64 0-.13 0-.24-.1-.34-.18a27 27 0 01-5.45.39 148.3 148.3 0 01-15.41.81c-.78-.11-1.6.3-2.24.08.07-.58.62-.21 1-.47-.31-.33-.14-.92-.58-1.1-.42.6-2.08.75-2.56 1 1.8 2.55 3.79 5.1 5.75 7.58l2-.44c8.94.6 17-.49 26.14-.58a24.26 24.26 0 000-4.34l.33-.5c.38-.11.54.23.84.32.5.26.41-.66.89-.81.24-.16.72-.28.88.11.24 1 1.36 1.16 2.11 1.53a4.05 4.05 0 01.82-1.44c.2.23.64.12.6.55l.94-1.05 1.21 1.07c0-.24.43-.21.48-.16.2 1.35 1.92.56 2.26 1.81.43-.3.45-1.09 1-1.44.53-.13 1.05-.58 1.64-.31 1.21 1.17.86 3.28 1.24 4.58l.9.5c3.62.41 7.06-1.57 10.82-1.18 1.08.11 2.46.49 2.79 1.66l.56-.66a5.32 5.32 0 013 1h1.14a63.21 63.21 0 006.45-.09c1.34-.12 8.08-.2 8.85-.16s6.68 0 6.68 0a.61.61 0 00-.13-.3c0 .06-.18.34-.33.11-.46-.42-.19-1.06.13-1.52h-.38v.19c-.14.16-.43.07-.68.13-.26-.39-.7-.66-.72-1.14.17-.74 1.1-.58 1.62-1 .09-1.37 1.53-.74 2.49-1.06 1 0 .2 1.3 1.27 1.16.59.28 1.05-.28 1.61.38a2.07 2.07 0 01-.06.79.91.91 0 01-1 .46c-.31.65 0 1.22-.13 1.86 7.85-.05 16.67.19 23.78 0h2.13a49.51 49.51 0 004.81-6.42c2.26-3.54 5.87-9.19 7.38-14.22-1.42-.19-4.06-.66-5.43-.75l.59.78-.54.37-.76-1-.14 7.77s-11.79-.59-12.52-.59h-14l.34.44h-3.41l2.34-.59s.3-5.1.3-6.83c-.23.06-.61.7-.73.62s-.06-.46-.34-.36c1-.93 1-1.14 1.19-1.18l5.15-5.84s-3.75-.53-5.82-.66-11.86-1.67-11.86-1.67c-2.13-.31-7.51-2-9.62-2.44s-21.18-7.61-22-7.91-2.8-.55-3.47-.79-12.57 0-12.57 0l-.95-.09-4.8-.37c-.72 0-1.64-.09-1.94-.15-.46-.09-2-.67-2.29-.76a5.09 5.09 0 00-1.06-.12l-5.77-.94-1.2-.07a17.43 17.43 0 00-2.38.06c-2.2-.16-3.6 1.35-5.57 1-3.48-.5-6.21-3.13-10.17-2.29-2.31-.7-4.67.16-7-.13-2.2-.12-5.2-1.65-7.35-.69l.7 8.47a74.42 74.42 0 005.41 19.17c2.86 6.77 2.4 6.1 5.73 10.77 0-.54-.14-4.6-.65-5.12-.66-2.36 1.8-.21 2.69-1.08a.51.51 0 01-.12-.67c.35 1.4 1.81.12 2.75.58 1.62.28 2.52-.48 4-.15a10.29 10.29 0 012.2 2.79c.6.32.62-.46.94-.81.08-.49-.27-.77-.43-1.1a1.2 1.2 0 01.14-1.42c.84.21 1.86.12 2.55.34.67-.22 2.1.21 2.25-1 .05.09.2.14.21.24a11.83 11.83 0 014-.2c.8.79 1.93 1 2.79 1.69.3 1.51 1.61 0 2.54.31a33 33 0 01-1.3-4.78c.31-3.67 3.91-1.21 5.82-2.07.76.52 1.76.08 2.54-.09 2.49.35 4.47-1.48 6.9-.36a2.52 2.52 0 011.3 2.25c.13.72-.91 1.73 0 2 0 .29-.47.36-.31.75-.76.51-1.2 1.79-1.8 2.69-.07.93.61 2-.09 2.88A33.7 33.7 0 00232 218c.29 0 .47-.31.28-.49-.1.05-.19.25-.34.25s-.15-.09-.1-.19c-.2-.13-.07-.44.12-.49s.15 0 .11.15l.09-.11.21.19c-.21-.19 0-.63-.32-.67-.14.34-.58.26-.76.51-.88 0-1.12.24-1.77-.37l-1.05-.36a.43.43 0 01-.19-.28c-.32-.72.34-1.27.71-1.87l-.1-.09c1.09-.68-.3-1.46-.18-2.19.14-.15.33-.26.43-.16 1-.28 2 .71 2.94.33l.15.13c.57-.31 1.06-.13 1.69-.3.25 0 .47-.36.67-.27.85-.81 1.3-.43 2.17-.71a6 6 0 013.24 2.07c.21.18.23.92.7.51-1.07-1.42 1.22-2.78-.14-4 .65-.75 1.52.19 2.19.11.44 0 .87-.22 1.32.11l1.79-.18" fill="url(#b)"/><path d="M246.1 210.87a26.84 26.84 0 014.76-1.79c-1.27-1.16-2.53.15-3.6.42a14.26 14.26 0 01-2.07.67 5.31 5.31 0 01.91.7" fill="#d15b25"/><path d="M271.23 179c2-.07 3.93-.53 5.73.67.2.14-.08.54.26.53.49-.22-.16-.49.17-.75a4.21 4.21 0 012.34 1.23 5.15 5.15 0 01-.12-.58c.34.09.41.47.46.77l-.18.2c0-.1-.06-.15-.1-.19 0 .38-.38.5-.68.36a1.9 1.9 0 01-.55-.42l-.09.11a.59.59 0 00-.88-.07c.19-.25-.3-.23-.45-.52-1.91 1.15-3.46-1.13-5.52-.38-1.1-.49-2.5-.2-3.46-1.09a7 7 0 00-3.25.36c-1.32-.14-3 .26-4.21-.72a14.65 14.65 0 00-3 .46c-.17.54-.73 0-1 .23-.2-.14-.68 0-.65-.42a23.43 23.43 0 015.24-.63c.29-.11.59.12 1 .06 3 .62 6.31-.81 8.89.79" fill="#969696" stroke="#969696" stroke-width=".76"/><path d="M283.85 178.91a1.23 1.23 0 01.67 1 .43.43 0 00-.52.37c.84.36-.54 1.23.58 1.29-.45-.22-.68-.08-1.08-.21.42-.6-.43-1.09-.59-1.63-.93-1.14-2.83.16-3.68-.59-.14 0-.09.19-.09.29-1.14-.45-2 .36-3-.62 1.86.28 2.88-1.13 4.7-.61a5.09 5.09 0 003 .76" fill="#969696" stroke="#969696" stroke-width=".76"/><path d="M283 180.69l.06 4.3-1.89.36a22.78 22.78 0 00-.57-3.78 1.84 1.84 0 00-.7-1.73c.57-.21 1.8-.37 2.57-.64l.7 1.22" fill="#6d3f86"/><path d="M213 184.54c-.34-.08-.06-.33 0-.49v.49" fill="#787878"/><path d="M309.72 181.22c1.56-.05 3.71.3 5.16 0l-.34.11.21.18a45.91 45.91 0 01-5.9-.12l-.25.16c0-.1 0-.21-.1-.24l-.09.1c-2.94.69-7-.13-10.62.19a27.1 27.1 0 014.81-.36c2.41.54 4.87-.24 7.12 0"/><path d="M291.21 188.15c-1.34.77-1.07 2.71-2.41 3.39-.08.4-.17.64.14 1-4.53.13-8.69-.3-13 0l-1.56-.14c.14-.29-.27-.67-.38-.91v-.29c4.34 0 8.75.65 12.83-1.06 1.66 0 2.87-1.38 4.41-1.92M267.66 189.16c-.42.36-1.19.69-1.46 1.22-1.26.34-3-.07-4.29-.13-.43-.75.75-.65 1.18-.82 1.8 0 2.53-.29 4.57-.26M269.41 189.1c.27.57-.05 1.17 0 1.75l-1.41-1.26a11.36 11.36 0 011.39-.49" fill="#fff"/><path d="M271.53 189.75c-.32.45-1.24.74-1.7 1.38l.25.23 2-1.38c.5.36 1.2.83 1.37 1.46a4.55 4.55 0 00-2.92.15c.66.56 1.46-.11 2.14-.08a.64.64 0 00.69.27l.18-.21a1.57 1.57 0 01.28.78c-2.05-.18-4.39 0-6.16-.46a5.92 5.92 0 01-1.56-.13c.09 0 0-.15 0-.25a5.5 5.5 0 012.39.16.39.39 0 00.36.42c.49.17 1-.42 1.32.15.1 0 .29 0 .33-.11-.16-.54-1-.55-.73-1.29a3.5 3.5 0 00.18-1.67 2.66 2.66 0 011.54.58" fill="#fff"/><path d="M269.15 191.2c-.76.57-1.63-.52-2.64-.24.37-.49.9-.81 1.17-1.26l1.47 1.5M265.87 190.74c-.14.25-.83.18-.66.71 0 .09.68-.22.45.27a23 23 0 01-4.93-.25c.73.07.74-1.11 1.53-.69.38-.41 1.32-.05 1.95-.08a4.63 4.63 0 001.66 0" fill="#fff"/><path d="M319.93 188.65v-.2h.24l-.24.21M300.42 190.68c.16.39-.44 0-.53.12.18-.31.39.17.53-.12M317.45 192.59l-.84-.32 1 .06-.13.26M308.16 193a.22.22 0 01-.2-.08c-.14.34-.34.06-.44 0l.64.07M308.5 193.1c0-.24-.25 0-.2-.18l.64.08-.44.1"/><path d="M295.19 196.72l.22 9.52.9 1.31.12 6-6.56.13.17-5.92 1.64-1.61.77-9.22 1.13-1.16.95-.15.65 1.1" fill="#d15b25"/><path d="M300.85 205a1.18 1.18 0 00-.61-.71c-.9-.65-1.38-1.75-2.37-2.2-.51-.66-1.5-1-2-1.58l.13-.51c2.24-.23 4.47-.51 6.75-.79 1.27.1 2.49.06 3.86.25a35.59 35.59 0 015.65 6.42c-3.39.07-6.7 0-9.88.19l-1.56-1" fill="#ff9120"/><path d="M300.64 205.6c-.68-.62-1.14-1.83-2.08-1.89l.23-.25a22.77 22.77 0 00-2.91-2.42c-.05 1.26-.43 5.34 1.06 6.06.36.43 0 1.93 0 1.93a1 1 0 01.54.08l-.63.32c-.19 1.37.2 2.77-.09 4.19l4.44.08a46.49 46.49 0 00.36-7.36l-.89-.75M290.48 206.34c-.55.71-1 1-1 1.86.41.46-.14 1.55.09 2.42-.19.06-.49 0-.63.12.1.29.39.13.64.17l-.1 2.78-2.82.11.19-6.83.94-1.36c1.59-1.59 2.19-2.22 3.64-3.83-.14 1.27.16 4.18-1 4.56" fill="#d15b25"/><path d="M261.05 205.49a9.92 9.92 0 011.29 3.07c.15.09.21.38.44.28a4.66 4.66 0 00-.52-2.38c.09-.23.43-.25.67-.35.09-.1.34 0 .45.17 0-.19.36-.51.17-.44.29 0 .79.35.92-.14v.1c.89.36 1.42 1.46 1.88 2.18.49 0 .17-.65.27-.79-.37-.53-1.07-1-.7-1.83.43.13.72-.27 1.07.06l.13-.16v.05c.25.19 1 0 1.27.15a3.47 3.47 0 011.75-.06 7.58 7.58 0 01.33 5l.23 1h-.19c0-.14-.15-.24-.25-.33a19.85 19.85 0 01-7.26.93 2.81 2.81 0 00-1.41-1.26c-.45-.22-.83.13-1.27.15.33-1.72-.2-4.23-1.84-5.29l-.09.1a1.7 1.7 0 00-1.33-.3c0 .49-.53.12-.77.37l-.76.37a4 4 0 013.7-1.26 6.4 6.4 0 001.87.57" fill="#fff"/><path d="M259.22 207.11a7.21 7.21 0 01.56 3.49c-.64-.26-1.3.3-2 .27-.68.13-1.68-.51-2.44-.1-.34-1.26-.47-3.25.82-4.07-.11-.14-.35-.24-.44-.08a3.14 3.14 0 00-.83 1.34c-.28-1.21 1.16-1.46 1.83-2 .93.15 2.14.06 2.53 1.11" fill="#d9d9d9"/><path d="M216.64 215.3a.64.64 0 01-.48.34c-.13-.88-1.11.37-1.66 0 .22.63.06 1.61.28 2.28.57-.22 1.75-.26 1.51-1.27.06-.41.56-.77.65-1.11l-.3-.2" fill="#30352d"/><path d="M217 214.92c-.37-.76-.13-2-.35-2.91s-.28-2.18-1.32-2.63c-.64-.37-1.41 0-2 .12l-.42.46c-.26-.43.35-1 .78-1.25 1.41-.06 2.84.29 4.2.18l.2.29c.28-.35.78-.13 1.13.06.29 1.4 1.42 2.81.95 4.59a.55.55 0 00.44.18 3.52 3.52 0 000-2.63l-1-2.36a16.36 16.36 0 014.61-.51c.46.76-.18 1.91.62 2.31a8.82 8.82 0 00-.24-2.52c1.3-.25 3.06-.35 3.55 1.19a11.75 11.75 0 01-1.85 5.58h-.84a2.65 2.65 0 01-.72-.29c-2.12-.55-4.19 2.54-6 .37a4.31 4.31 0 00-1.46-.18H217" fill="#fff"/><path d="M225.24 215.62a4 4 0 00-1.63-.16 3.26 3.26 0 00-.84 1.15 4 4 0 00.47 2.12 1.5 1.5 0 01.77-.12c.78-.17 1.63.27 2-.52.09-.28-.21-.52-.12-.72s.35.28.39.09l-.36-1.84h-.66" fill="#30352d"/><path d="M215.62 210.24a9.59 9.59 0 01.5 4.52c-.82-.06-1.25.24-2 .16-.3-1.58-1.93-3.42-.72-4.89.68-.31 1.83-.64 2.21.21" fill="#d9d9d9"/><path d="M311.29 206.63a7.48 7.48 0 011.45-.16 45.32 45.32 0 01-.15 7.75l.2.15a37.06 37.06 0 01-4.15-.28 39.12 39.12 0 00-.3-4.19 1.83 1.83 0 00-1.42-.23c-.58.11-1.91-.13-2.62.38.09 1.22 0 2.49-.05 3.86a6.14 6.14 0 01-2.1-.12c0-2.34-.47-4.81-.17-7.15 3.51.1 5.89-.18 9.31 0M242.91 210.36a.29.29 0 00-.19.1c1.33.38-.15 1.31-.17 2l-.51.8c-.26-.43-.62 0-1-.21-.1-1.15.9-2.07.46-3.28.54.13 1.22.1 1.43.59" fill="#d15b25"/><path d="M253.21 210.65c-.19.2-.49 0-.63.22.16.39.54.09.7.42.13 1.07.44 2.71-.31 3.51h-.59c.22-.72-.8-1-.69-1.53-.23 0-.25-.38-.36-.62.19-.2-.11-.43-.26-.62-.43.31-.2 1.22-.49 1.43-.92 0-1.78.45-2.61.44-.05 0-.85.61-.73-.12-.5-.07-.66.75-.89 1.15v.3H246l.29-.2c-.54 0-.36-.34-.66-.61-.26-.58-.9-.75-.49-1.45-.14-.1-.2-.34-.45-.28-.08.3-.12.63-.2.89-.74-.12-.81.66-1.6.45-.73-1.48 1.76-2.55.49-4 .47-.41 1.12.25 1.67.42.16.48.85.6 1.2.83.29-.06.83.17.92-.18l-.17-.1c1.14-.48 2.81-1.51 4.57-1.58a4.82 4.82 0 011.65 1.25M237.51 211.77a26.29 26.29 0 00-2.64 1.27 3.32 3.32 0 01-2.93-.33c1.91.26 3.64-1.54 5.57-.94" fill="#d15b25"/><path d="M254.71 211.87l-.33.26c-.25-.2-.27-.63-.38-1l.58-.17c.06.24.36.58.13.88" fill="#29b110"/><path d="M259.94 211c-.57.36 0 1.6-1.06 1.35a4.83 4.83 0 01-2.39 0c.52-.36-.27-.67-.48-.85l-.55.89c-.3-.38.07-.92.29-1.32a5.84 5.84 0 004-.25l.15.19" fill="#30352d"/><path d="M237.79 216a1.44 1.44 0 00-.39-.43c-.15-.33-.22-.87.21-1.08.49.22-.13.55.22.77.27.77 1.15.79 1.27 1.57.15-.21.49 0 .63-.22l-.1-.1c-.11-.28-.22-.77.06-1 .28-.07.11.28.26.43-.27-.88.46-1.83-.09-2.59-.63-1.09-1.7-1.06-2.81-.81a7.91 7.91 0 01-3.13 1.23c-1.21.14-2.12-.75-3.09-.77 1.21 1.23-1 2.29-.6 3.63.64.13 1-.66 1.74-.4.23-.3.12-.73.4-1 .88.07-.12.69.23 1 .6.27.24 1 .26 1.59l1-.23a3.34 3.34 0 01.6-1l.11.58c.77-.37 1.55-.4 2.21-.77l1-.37" fill="#d15b25"/><path d="M236.88 216.85a9 9 0 00-2.23.59s.14 0 .1.13c.29.09.53-.16.72-.11a14.67 14.67 0 003.1-.6 1.34 1.34 0 01-.46-.38l-1.23.37" fill="#29b110"/><path d="M261.72 211.66v.09c-.25.11-.64-.08-1-.11.13-.24.81-.37 1 0" fill="#30352d"/><path d="M208.75 214.25c-.78 0-1.64.41-2.09.18-.87.17-2.29 0-3.14.7-.25 0-.6-.37-.79 0h.1c-.75.42-1.49-1.11-2.39-.39-.21.92 1 1.71.09 2.53-.2-.15-.61-.52-1-.26-.17-.43.65-.86.33-1.37-.16-.44-.52-.91-.48-1.31 1.07.11 2.54.31 3.77.31 1.21-1.22 3.27-.81 4.88-1l.7.6M306.69 209.94h1.22l.15 4-3.18-.13v-3.6c.57-.37 1.26-.09 1.84-.31" fill="#d15b25"/><path d="M262.19 212.61c.32.48-.11.88-.19 1.32a1 1 0 01-1.05.48c-.41-.48-1.17-1.12-.85-1.82-.11-.23-.22-.66.07-.88.6.66 1.41.24 2 .9" fill="#30352d"/><path d="M190.54 214.73c1.56 0 3.37.32 5-.19.48-.1.7.38 1.09.4a14.91 14.91 0 01-6.23.34c-.05-.1-.05-.24-.15-.34a.63.63 0 00-.27.65c-.77.36-1.24-.59-2-.47.19 1.07.28 2.28-.76 3-1-.89 1.34-1.89.23-3-.11-.29.08-.24.23-.35a4.3 4.3 0 002.92-.06" fill="#d15b25"/><path d="M270.81 212.38a5.26 5.26 0 01-.46 2c-.68 0-1.41.19-1.86-.38a1.25 1.25 0 01-.3-1.35c0-.24.23-.44.42-.65.48-.16 1.27.06 1.55-.3a1.1 1.1 0 01.65.65" fill="#30352d"/><path d="M254.74 212.55c-.1.09 0 .39-.23.35-.25-.19 0-.35.23-.35" fill="#3cff16"/><path d="M267.89 212.26a2.1 2.1 0 00-.09 1.56l.36.62c-.74-.32-1.59.39-1.68-.67-.18-.87.66-1.93 1.41-1.51M259.63 213.46a3.86 3.86 0 00-.3-.64c-1.15.63-2.1.07-3.27-.07v.53a1.35 1.35 0 001.69.91v.19l1.3-.45.55-.47" fill="#30352d"/><path d="M259.3 214.57h1.06a1.49 1.49 0 01-.53-.63l-.53.67" fill="#3cff16"/><path d="M265.71 212.68a.53.53 0 01.43-.21 2.07 2.07 0 000 1.85c-1.17 0-2.48.23-3.65.23a3 3 0 00.61-2.07 20.7 20.7 0 012.64.19" fill="#29b110"/><path d="M196.69 220.33a2 2 0 001.31-.17c.05-1.41.63-2.85-.68-3.92l.1-.05a1.83 1.83 0 00-1.35-.69 10.93 10.93 0 01-5.34.3h.27a.26.26 0 01.1.19l-1.26.09-.16-.23a1.78 1.78 0 01-1.33-.39c.16.33 0 .87.48 1.05a5.09 5.09 0 01-1.09 2.24c0 .43.32.71.48 1.1.25 0 .38-.26.53-.26a2.33 2.33 0 01-.37-.82 1.06 1.06 0 01.66.86c.93.15.74-1.16 1.41-1.28a3.59 3.59 0 00.35 1.5c.26.38.53 1.06 1.05.64a1.57 1.57 0 010-1.46 12.93 12.93 0 003.84-.23c.52 0 .67.4.77.78l.16.76" fill="#d15b25"/><path d="M196.4 220.43a2 2 0 00-.68.12 22.43 22.43 0 01-3.07 0l-.14.2c-.54-.17-.12-.77-.23-1.21a18.16 18.16 0 003.59-.32.93.93 0 01.17.36l.36.84M211.33 218.57a5.56 5.56 0 00.34-1.89l1.3-.14a2.47 2.47 0 00-.22 1.86c.35.17.07.63.32.85-.37.06-1.1.09-1.5.12l-.24-.8" fill="#29b110"/><path d="M207.85 217.54a1.37 1.37 0 010-1c.34-.11.2.24.4.32 0 1.32 1.51 1.21 1.32 2.58h1.22l.13-1a7.49 7.49 0 00-.18-2.89c-.12-.54-.71-.66-1.11-.94l-.23.45a.68.68 0 01-.45-.42 16.2 16.2 0 01-3.79.38c-1.13 1-3.1.6-4.29-.08l-.09.24c.12.43.41.52.76.7s-.12.69-.3 1c.27.81-1.19 1-.38 1.81.5.33.68-.21 1-.37.1.09.25.13.21.29.41-.66 1.46 0 1.72-.9l.15.18c-.42.51-.14 1.38-.17 2h1c.22-.69-.2-1.4.28-1.85l2.81-.46" fill="#d15b25"/><path d="M205.34 218.59c-.07.42.07.92 0 1.15l3.9-.25-.21-.18c.06-.76-.38-.92-.87-1.3l-2.82.58" fill="#29b110"/><path d="M265.47 213v.2c-.68-.07-1.7.12-2.21-.46a12.14 12.14 0 012.2.26"/><path d="M256.57 214.77c-.66.37-1.71-.24-2.78-.09.23-.49.9-.72.63-1.48 1.44-.69.88 1.42 2.15 1.58M251 215a29.09 29.09 0 00-3.6.13c-.17-.43.17-.55.41-.75.7.66 1.52-1 2.38-.23l.86-.37c.11.34-.16.94-.05 1.22M243.94 214.46c.28-.35.53-.12.87-.33a1.36 1.36 0 01.27 1l-.13.2c-1.41.29-3.24.84-5 1.2v-.43l.29.19c.13-.51 0-1.08.19-1.53.88.06 1.71-1 2.38-.23h1.12" fill="#29b110"/><path d="M219.7 216.48a1 1 0 01.22.62c-.14.21-.54-.07-.53.26s.39.14.64.18c-.8.9-1.55 1.61-2.78 1.22-.3-.23-.59-.18-.71-.6a3.12 3.12 0 011.12-2.58c.87-.23 1.34.58 2 .9M222.29 216.72c-.64 0-1.28-.24-1.7.25-.38.17-.25-.27-.35-.42.88.07 1.58-.79 2.5-.87l-.45 1" fill="#30352d"/><path d="M251.84 214.6c0 .05 0 .19.1.24s-.18.1-.28.11v-.34h.19" fill="#d15b25"/><path d="M213.77 217h-.19a.92.92 0 00.17-.55c.49 0-.26-.33.23-.35.26.23-.07.69-.21.89" fill="#30352d"/><path d="M200.3 217.64c-.62.41.38 1.1.65 1.83.79.36 1.25-.34 1.82-.7 0 .09.2.08.3.08a2.22 2.22 0 01.09 1 17.69 17.69 0 01-4.62.31c.18-.39 0-.87.14-1.31.16.23.24.08.48-.27.19.1.17-.48.26-.79a1.83 1.83 0 01.87-.12" fill="#29b110"/><path d="M209.5 217.64l-.28.1v-.53c.29-.11.25.28.3.43"/><path d="M214.7 218.22a1.37 1.37 0 00.87-.17c.29.18.94.6.47 1h-.2c0-.15-.15-.24-.25-.33-.62.46-1.27 0-1.86-.18-.16-.53.26-.84.39-1.23a.78.78 0 00.58.9" fill="#30352d"/><path d="M222.7 218.66l-3.36.12c1.22-.14.66-1.92 2.09-1.59 1.29-.63.72.95 1.27 1.47" fill="#29b110"/><path d="M226.22 224a11.85 11.85 0 01-1.18 3.66c-1.45.59-.21 2.43-1.82 2.45-.2-.33-1.27-.16-.9-.85l-.14-1.16c-.49 0-.42.55-.6.8.06-1 .64-2.36.5-3.57h.1v-.05c-.11-.33-.35-.32-.27-.72l.69.32c.14-.25-.16-.58-.46-.67H222l-.15-1.51c.54.18 1.24.6 1.5-.2l.12-.44a6.27 6.27 0 002.71 1.89" fill="#ff660f"/><path d="M232.94 225.29c.05.09.2.09.25.09l.09-.1a2.57 2.57 0 01.52 2.27c-.17.74-.48 1.68-1.34 1.95-.24.06-.49 0-.68.13l-.25-.24a.73.73 0 01-1 .37c-.59-.21-.76-.65-1.2-.92l-.85.9.19-.2h-.1c.08-.2.28-.21.32-.55.46-.5 1.34-.58 1.81-1-.15-.23.22-.55.31-.79-.06-.34.46-.7.06-1-.57.37-.52 1.63-1.35 1.61a.63.63 0 00-.43.21l.1.1c-.91.42-1.16 1.59-2.11 2.17.14-.11.08-.29.08-.44l-.1-.09a4.43 4.43 0 01-1.51 1.26c-.15 0-.34-.12-.35-.32 0-.39.65-.66.63-1.15-.44-.17-.86.23-1.1.49-.89-1.57 1.22-2.49 1.31-4 .79-1.1.06-2.54 1.1-3.4l.46.71c.17-.54.65-.9.93-1.35 1 1.62 3.46 1.44 4.16 3.35" fill="#fff"/><path d="M235.61 223.78c.15 2.63 1 5.33-.35 7.67a4.41 4.41 0 01-4.06.93c.1-.11.13-.49.47-.46-.69-.41-1.57-.43-1.71-1.44 0-.11-.06-.3.09-.35.06.48.5.42.71.75.18-.25.43-.11.72-.27l-.3-.28c.54.17.8-.81 1.25-.29.08-.39.34.08.48-.21 1.39-.58 1.48-2.15 1.58-3.47-.46-.52-.22-1.69-1.14-1.8.12-.59.24-1.29.91-1.6.71-.46 1.32.1 1.35.83" fill="#30352d"/><path d="M279.82 224c.06.49-.07.83.48 1 .18-.25.1.19.34.08.45.48 2-.41 1.54.82-1.85.08-3.61-.26-5.45.21 0-.2-.16-.34-.12-.58 1.47.28.72-1.78 2.14-1.49h1.07" fill="#d9d9d9"/><path d="M249.77 227.2c.93 1.24 2.39 2.54 1.62 4.24-2.06-.27-4.64-.23-6.49-.35.09-.24-.16-.28-.26-.43-.19.2-.38.21-.33.51-2.1-.27-4.71.22-6.78-.44a3 3 0 01-1.13-.15c-.08-1 .26-2.11.23-3 2.49 1.42 5.11-.24 7.54-.42l.13-.21v.1c2-.13 3.68-.57 5.46.13" fill="#fff"/><path d="M281.13 226.38c0 .49-.4 1-.09 1.52-.64.07-1.51.25-1.74.6.05-.15.24-.2.14-.4-.35-.08-.93.13-1-.2-.2-.09-.28-1-.8-.66.09-.2 0-.53.16-.89a28.19 28.19 0 013.32 0" fill="#ffe2d1"/><path d="M254.37 229a9.06 9.06 0 01.11 2.83 10.49 10.49 0 00-2.25-.26 20.85 20.85 0 00-.47-2.18c.42-.5-.52-.91-.3-1.4.94.45 2.39-.09 2.91 1" fill="#fff"/><path d="M229.41 230.06a2.47 2.47 0 00.45 1.59c-.51.55-1.29.53-1.82.94-.11-.43-.33.16-.53.07-.44 0-1.16.18-1.57-.18 0-.3-.46-.52-.31-.78s.53-.06.73.12c.41-.69 1.53-.74 2-1.53.15.24.24-.1.43-.11 0-.2 0-.1.23-.26l-.15-.19c.3.24.44-.16.5.33" fill="#30352d"/><path d="M282 229.72a7.25 7.25 0 01-.72 4.11c-.25-.18-.68.23-1 .14-.14.35-.34 0-.54 0a2.46 2.46 0 00.45-2.3c-.09 0-.24.06-.29-.08-.36.84-.06 2.19-1.13 2.43-1.15.42-2.08.31-3.12 1.23l-1.28.93v-.79h.1c-.19-1.16 1.58-.69 2.13-1.49a10.26 10.26 0 012.4-3.9c.66-.57.76-1.89 2.09-1.55l1 1.29" fill="#d9d9d9"/><path d="M285.06 228.72v.05c6.47-.19 14 .12 19.48-.18h2.48a7.64 7.64 0 01-1.51 1.73c-1.46.1-4 .53-5.39-.1-3.17-.13-6.46.72-9.3.15-2.88-.14-5.22-.06-8.14 0 .17-.64-.29-1.06-.5-1.54 1.17 0 2 .27 2.87-.11" fill="#d15b25"/><path d="M244.58 231.68c-.22.74.39 1.36.61 2-1.23-.14-2.71-.83-4-1-.1-.09-.2-.24-.34-.13a4.89 4.89 0 01-1.33-.34 1.22 1.22 0 00-.88-.21c-.4-.18-.84-.17-1.29-.39l-.79-.32a56.21 56.21 0 008 .39" fill="#fff"/><path d="M269.05 238.44c-.35-.08-.73.11-1.17-.06 0-.68.34-1.23.31-2-.53 0-1.18-.53-1.6 0-.33.4-.21 1-.19 1.56-1.41.06-2.93-.19-4.49-.07a2.71 2.71 0 01.06-1.08c-.17-.68-.73-.11-1.08-.15l-.13.2a18.3 18.3 0 01-4.4-.52 3.51 3.51 0 00.87-1.44c-.51-.43-1.22.13-1.77-.38-.31-.52-.14-1.31-.22-1.93 4.25.32 8.43 1.24 12.92 1.56a28.65 28.65 0 013 .81 4.55 4.55 0 00-1.51 2.55c0 .09 0 .19.1.23a1.55 1.55 0 00-.25 1l-.4-.31" fill="#d15b25"/><path d="M245.83 235.19c0-.12 0-.23-.16-.27l.1-.11c-.21-.43-.65-.22-1-.16h-.2c0-.14-.15-.25-.25-.34-.44.12-.63.32-1.07.14-.94-.35-1.92-.5-2.9-.76-1.9-.08-3.23-1.64-5.22-1.47l.65-.75a37.5 37.5 0 007.1 2.13 34.41 34.41 0 004.79 1.66 100.43 100.43 0 0012.8 2.26c.19-.2.58 0 .62-.41h.14c.21.44-.2 1.13.58 1.29.24-.24.35.19.64.08 1.35-.3 3 .47 4.29 0a4.15 4.15 0 00.18-1.77l.63.08c.07.58-.38 1.28-.17 1.91.59.31 1.12.1 1.81.37l.8-.19v-1a3.91 3.91 0 011.75-2.79l-.1-.1c.35.33.78 0 1.27.24a7.59 7.59 0 00-2.19 2.62l.25.23a7.12 7.12 0 012.63-2.73c.16.44-.31.84.14 1.16a16.17 16.17 0 00-3.78 4.53c-.41-.71-1.24-.68-1.89-1 0 .09-.23.24-.08.34-.74-.08-1.74.36-2.34 0l.24-.16c-.79-.17-1.9.12-2.74-.24a18.3 18.3 0 00-4-.15c-.68-.17-.91-1-1.46-1.35-.93-.31-1.92-.56-3-1-1.91-.42-4-1-5.75-1.34a13.1 13.1 0 00-2.47-.8l-.73-.22" fill="#30352d"/><path d="M246.32 235.77c.15.12.3.25.51.11-.29 0 .06.2-.13.31.83 1.48.8 3.34 1.1 4.89-.93 1-.53 2.69-1.66 3.71l-.06 1a6 6 0 00-2.29.07c1.07-1.2 1.19-3.35 2.11-4.9-.39-1.15-1.34-2-1.54-3.25-.89-.41-.39-1.4-.71-2l-.35-.32c-.14.15 0 .44-.07.63a.53.53 0 01-.17-.72c.25.28.43-.11.67-.12l.21.42c.2 0 .14-.24.23-.34l-.1-.09a5.47 5.47 0 00.47.8l.27-.73c.19 0 .68 0 .79.31l.72.27M251.27 232.17c.36.52-.19 1.37-.11 2.2-.18.25-.31.74-.06.92v.11c-1.77-.58-4-.64-5.37-1.67v-.13c.1 0 .14-.11.24-.21l-.2-.14.09-.1a6.81 6.81 0 01-.5-1.59c1.86.27 3.92.39 5.92.61" fill="#fff"/><path d="M257.63 231.49a36.9 36.9 0 019.55-.1c2.28-.29 4.32-.21 6.56-.58a33.2 33.2 0 004.12-.35c-1.85 1.13-3.91 2.19-5.67 3.47-.47-.81-1.8-.13-2.55-.54-3.56 0-7.58-.74-11.2-1.14-.74-.32-2.49-.1-3.33-.51l.17-.54c.54.12 1.61.08 2.35.3" fill="#d15b25"/><path d="M241.51 234.43l1.43.29a11.35 11.35 0 01-2.37.72c.05-.1 0-.15 0-.19-.24.05-.19.25-.43.3-.21-.37-.43.17-.73.13a2.76 2.76 0 00-.78-.07l.24-.3c-.5-.23-1.07.19-1.56.06 0-.1-.1-.14-.2-.23-.14.25-.43.26-.67.36s-.6-.27-.88-.07-.63.12-.86.43a1.58 1.58 0 01-1.07 0l.71-.56c-.75-.41-1 .72-1.62.84-1.26.39-.76 2.08-1.3 3a6.3 6.3 0 011 3.23l-.61.56-.11-.09-.13.14.1.1-.43.21c-.46-.57 0-1.65-.9-1.82a6 6 0 011-6.85c1.64-.65 3.84-.35 5.11-1.71-1 0-2.2 1.15-2.93 0 .38-.31.87-.33 1.25-.58 2.39.29 4.49 1.48 6.8 2" fill="#fff"/><path d="M283.58 230.78l-.1-.1a2.16 2.16 0 001 .17 39.23 39.23 0 017.27.31c.87-.13 1.56.18 2.18-.23v.1a5.13 5.13 0 002.09-.18v.1c1.65-.1 3.15-.5 4.92.06a20 20 0 004.18-.21 83.22 83.22 0 01-6.9 6.73 76.47 76.47 0 01-7.92.7l-.14.19a.19.19 0 00.09-.18c-2.6-.59-4.57.36-7.2.21a.63.63 0 00-.69-.16c-.14.24.15.23.26.32h.19a.28.28 0 00-.19.11c.2.33.43-.16.64.22.1 0 .53-.27.87-.08 1.6-.2 2.59.19 3.93-.44.4.33.52-.36.94.26a11.38 11.38 0 004.66-.27l.11.09a5.56 5.56 0 001.64-.35 17.58 17.58 0 012.18-.1 25.24 25.24 0 01-4.56 3.58l-.73-.28-.29-.25c-2.6.87-5.17-.1-7.78.39.27.71 1.08.3 1.57.28v.09c.1.15.24-.06.33-.1a.39.39 0 00.45.12c.09 0 .09-.14.08-.24 0 .15.11.19.21.23l.68-.08-.1.06c.11.15.3.14.35.29.34-.22.73 0 1.16-.24a2.81 2.81 0 001.56-.07c.19 0 .49.08.63-.12 0 0 0-.09-.1-.14s.29 0 .33-.11c0 .15.1.2.2.24l1.15.17c-2.34 1.64-4.93 3.15-7.41 4.55-2.21-.32-4.86.32-6.93-.33-2.38-.16-4.6-.76-7.13-.61-2.72.24-5.48.69-8.24 0-2 .37-4-.43-5.68.4 2.55.64 5.64-.21 8.25.28 3.89 0 8.89-.57 12.69.51a20.56 20.56 0 002.87.08 11.84 11.84 0 01-3 .11 6.5 6.5 0 004.38.09l-.11-.24 2.09.16c-.73.43 2.21-1.07-2.66 1.31a74.56 74.56 0 01-12.73 4.35 105 105 0 01-12.45 2.33 70.11 70.11 0 01-17.19-.52c-6.41-1.17-10.24-1.88-15.08-3.77s-4-1.7-6.1-2.6c-1.3-.58-2.17-1.09-4.09-2.08 3.9-1.17 9.29-.55 13.61 0 2.78.2 4.9-.42 7.57.5 1.47.33 2.47-.28 3.85.06a20.64 20.64 0 003.69-.34c.71.75 1.87.37 2.84.19 1.4-.29 3.08.32 4.19.08-.34.17.31.44-.18.45.15.1.3.09.4.28v-.74c1.47.25 3-.44 4.34-.15a.13.13 0 000 .19c.28-.35 1.12-.09 1.6-.35l.32-.35c-.54-.13-1.36.05-1.85-.07-.58.25-1.23-.12-1.9.11 0-.39-.28-1.11.19-1.47l5.59-.21c-.09 0-.14.06-.14.11 1.64.86 3.95-1.42 5.1.73a9.56 9.56 0 002.8-.69 25.2 25.2 0 003.42.22 15.42 15.42 0 015.85.21c.49 0 1.08.21 1.62.19l.14-.16-.05.11a3.21 3.21 0 001.9-.07c.56.66 1.46-.06 2.11.51a7.13 7.13 0 002.8-.69c.2-.06.4.17.53-.12.48-.26 1.52 0 1.89-.36v-.24h-2.24c-.81-1.91-1.17-4-2.36-5.76.81-.47.92-1.55 1.33-2.19l-.56-1c.19.05.23-.1.37-.2v.19c.1 0 .49 0 .48-.31l.09-.05c-.5-.42-1.65.31-1.59-.91h.1l.57-2.85c.3 0 .6.32.88.07" fill="#d15b25"/><path d="M231.47 249.25s-6.9 2.89 8.34 5 24.88-.29 26.62-.81c2.73-.8 9.74-4.41 7.87-4.81-3.66-.77-7.55.39-10.13.27s-3.83-1.55-10.57-1.07a76.74 76.74 0 00-10 1.18 24.39 24.39 0 01-3.9.7c-2.81.15-8.32-.52-8.23-.44z" stroke="#000" stroke-width=".3" fill-rule="evenodd" fill="url(#c)"/><path d="M232.59 233a3.07 3.07 0 00.32.71c-.58.08-1.51.06-1.93.57-.75.71-.72 1.58-1.95 1.38-.18.31-.52.12-.72.22-.77 1.5-3.53 2-2.62 4.14-.49 1.34 1.39 2.14.91 3.62-.47.41-1.12.15-1.56 0-.67-1-2.07-1.87-1.73-3.29a3.23 3.23 0 00.3-1.23c.54.18.06 1.6.86 1 .06-1.07-1-1.77-.54-2.9l1-.91.1.09.19-.21h-.1a7.84 7.84 0 012.65-2c.08-.34-.3-.33-.31-.72.72 0 1.34-.33 2.07-.42.14-.2.58-.16.82-.17a1.6 1.6 0 011.32.1h.92" fill="#ff660f"/><path d="M253.37 232.24a3.22 3.22 0 001.23.29c.17.72 0 1.17.36 1.84-.29.11-.4-.32-.63-.07.64.41 1 1.52 1.7 1.24-.1-.14-.16-.37-.36-.47.29 0 .55.42.88.12-.51 2.11-2 .36-3.49.57l-1.42-.29c.5-.89.21-2.15.51-3.28.39 0 .79.31 1.22.05" fill="#fff"/><path d="M277.22 231.54c-.64.87-.59 2.47-2 2.62-.84-.17-1.28 1-2 .16l-.21-.18c.71-.61 2.67-1.71 3.86-2.58h.38" fill="#d9d9d9"/><path d="M225.51 235.22l.14-.21v.2c-1.17 1.07-2.89 2.16-2.48 4a5.37 5.37 0 00-.35 2.34c.63 1.1 1.78 1.89 2.06 3.09.75.22 1.3-.39 2-.61.6-.94-.09-2.57-.81-3.52.31-.74 0-1.42.16-2.2l1.7-1.38c1.65 1.31 1 3.86 2.24 5.42.07.49.69 1.2.22 1.85l.24 1.21a101.54 101.54 0 01-12.32-1c-1.55.1-3.22.66-4.86.92a60.63 60.63 0 01-5.8-3.63 93.94 93.94 0 0113.86-.38l.22.43c.38-.11.37-.54.3-.89-1.33-.38-3.26-.07-4.64-.37-1.36.11-2.73 0-4 .06l-.19.19c-.35-.27-1-.14-1.4 0l-.16-.14a4.24 4.24 0 00-1.29.48l-3.07.26-2.43-1.67c.77-.26 2.54-.62 3.05-.25a12.16 12.16 0 013.07.13l.19-.21v.1a57.53 57.53 0 008.43 0c.36.48.87-.17 1.23.16a4.26 4.26 0 001.12.06c0 .14.11.33-.08.43l.19.14c0-.35.61-.7.17-1-4.42-.56-9.22 0-13.38-.48l-4.3.65c-1.35-1.12-3-2.28-4.19-3.49 7.47-1.12 16.66-.43 23.91-.69l1.21-.05" fill="#d15b25"/><path d="M290.43 232.72v.09a1.18 1.18 0 011 .41c.13-.4.44 0 .63 0 .2.24.67-.17 1 .11 2.26.31 4.23-.46 6.52-.29 0 .05 0 .2.06.24a.81.81 0 01.82-.27s0 .19.06.24c.18-.2.63-.12.87-.22.15.33-.13.58-.33.44-.35-.23-.78 0-1.32-.09-1.46.1-2.7-.44-4.18.29 0 0-.05-.09-.1-.14s-.14.06-.19.11c.14-.05-.48.06-.68-.07a1.09 1.09 0 01-1 .13.37.37 0 00-.59 0 15.18 15.18 0 00-4.6-.66.14.14 0 00.19-.05c-.05-.15-.2-.09-.3-.09-.13.3-.76.32-1.2.29l-.11-.09a2.18 2.18 0 01-1.55 0 1.78 1.78 0 01-.87.08.26.26 0 00-.11-.24c-.14.25-.19.1-.52.26 0 0 .09 0 .09-.15a2 2 0 01-1 .18c0-.1-.1-.14-.15-.23l-.09.23s0-.19-.11-.22a8.17 8.17 0 013.07 0 22.26 22.26 0 014.57-.27M260.93 234.88c0 .05.05.1.1.14 0-.35.19.09.33-.16.21.15.63 0 1 0a6.52 6.52 0 002.53 0v.14c.4.19 1.35-.43 1.42.2-2.76.35-5.07-.21-7.89.14l.53-.36v.02c.58 0 1.1-.42 1.75-.07l.24-.05M213 236.9a6.62 6.62 0 012.39 0c2.68-.06 5-.09 7.79 0 .12.5-.47.51-.5.9.16-.92-.84-.26-1.24-.54-1.51.06-2.14 0-3.65 0a119.87 119.87 0 00-14 .18c.23-.4.68 0 .92-.24a37.16 37.16 0 018.32-.3"/><path d="M229.83 236a3.94 3.94 0 00-.72 1.59c.12-.53-1.26-1.12-.06-1.5.34 0 .39-.07.78-.09" fill="#ff660f"/><path d="M236.84 235.92c.22 2 .58 3.82.65 5.77a11.81 11.81 0 01.34 3.94c-.61.46-1.75 0-2.38.18.23-.54.17-.49.66-.75.1.19.24 0 .38-.06l-.2-.18-.09.09a2.9 2.9 0 00.21-2.1 1.47 1.47 0 000-1.28 9.53 9.53 0 01-.49-1.63 11.31 11.31 0 01-.9-3c.09-.1.18-.34.08-.43.64.07.69-1.15 1.39-.49h.35" fill="#fff"/><path d="M242.63 235.56c.21.53.85.75.73 1.34-.09.39.61.66.13.87-2 .07-3.88.58-5.69.5.81.75 2.16.27 3.09.33a26.45 26.45 0 003.05-.45l1.51 2.81c-.75.76-.42 2.9-2.1 2.27l-4.72.17-.19.2.2.14c2-.4 3.76.16 5.69-.35a3.75 3.75 0 01-1.17 2.47c-1.37-.09-3.55.48-4.87.09-.33-1 1.22-1.12.41-1.91-.49-.18-.13-.78-.38-1.06a25 25 0 01-.41-7.1c.3.13.7.36 1 .15 0 .11.06.15.1.14s.1 0 .1-.14l.15.14a.41.41 0 01.43-.17c-.08.49.27.82.43 1.2v-.87h.1V236a10.15 10.15 0 002.37-.43" fill="#d15b25"/><path d="M282.37 236.28c-.13.39-.9.82-.83 1.25l.52-.32c-.47.41-1 1.11-.37 1.63 1.17 1.51 1.14 3.27 1.93 5l-2.72.1a11.05 11.05 0 00-1.88-3.35l-.24.12a6 6 0 001-2.88c-.7.95-.94 2.23-1.74 3.24a30.31 30.31 0 01-.12 3.26 10.77 10.77 0 01-2.63-.19c.79-1.1.1-2.63.38-4a25.56 25.56 0 002.34-5.26l-.1-.09c1.1-.52 2.35.3 3.39-.56.17.77 1.45 1.06 1.05 2.1" fill="#d9d9d9"/><path d="M297.09 235c0 .82.49.07.79.4 0-.4.54.08.58-.12h.1v.3h-.1c0-.1 0-.25-.05-.3a2.62 2.62 0 01-2 .37 6.16 6.16 0 00-2.88-.23c-.68 0-1-.36-1.66-.14 0-.09-.06-.13-.11-.18a.23.23 0 00-.09.19 7.34 7.34 0 00-2.09-.16.33.33 0 00-.11-.2c-.76.47-1.57-.13-2.29 0a12.74 12.74 0 01-3.07-.12l-.16-.19-.09.1.13-.25c4.11.34 9.48.48 13.13.54"/><path d="M233.16 236.49c-.18.55.39.13.4.43l.24-.26.1.1c.09 0 0-.24.13-.2h.29c.83 2.55.32 4.52 1.24 7a3.3 3.3 0 01-.65 2.13l-1.57-.1c.29-1.37-.55-3.05.29-4-.51-.67-.69-1.58-1.49-2.13.21-.93-.39-2.67 1-3" fill="#d15b25"/><path d="M251.81 237.46c.11 1.51 2.58 2.49.83 4-.4 1 .33 2.27-.46 3.18l.13 1c-.86.42-1.76 0-2.72.19-.17-.57.48-1.23.61-1.87a20.53 20.53 0 01.39-3.81c-.38-1-2.2-1.34-1.65-2.38-.31-.53-.42.26-.82 0a6.66 6.66 0 00-1.09-1.71c1.52.28 3.4 1 4.78 1.38" fill="#fff"/><path d="M277.35 235c-.4 2.46-2.67 4.19-2.33 6.92a3.56 3.56 0 01-.25 2.29c-.21-.32-.89-.3-1.23-.29 0-.34-.44-.08-.54-.18-1.57-.18-2.56.63-4.38.17.79-.86 1.14-2 2.2-2.43 1-3.05 4.2-5.07 6.53-6.48" fill="#d15b25"/><path d="M251.39 237.92c-.14.2-.41-.34-.56-.48.5 0 .07.44.56.48"/><path d="M253.13 237.6l-.23.36c.26.47.19-.16.49-.12a13.47 13.47 0 003.93 1c.53 0 .92 1.34 1.8 1.39v.1c1.13.3 2.09-.13 3.31.08.69.27 1.18.1 2 .46a.89.89 0 01-.72.28c-.22.53-.85.61-1.27 1l-.11-.09c-.86.32-1.27 2.29-2.47 1.75l-.24.11c-.11-.35-.63 0-.88-.22-2.05-.16-3.65.23-5.69.22.35-.9-.17-1.76.34-2.6l.41-.7.35.33a.29.29 0 00-.09.19 1.58 1.58 0 001.66 0 2.6 2.6 0 001.7-.15v.09c.86-.47 2.42.74 3.12-.22-.8-.4-1.36.16-2.11-.36-1.48-.47-4.52 1.83-5.21-1.22a3.94 3.94 0 01-.6-1.53l-.35-.38a1.82 1.82 0 00.88.16M250.18 240.69c-.38 1.71-.3 3.77-1.13 5.2-.53.17-.93-.15-1.51 0a2.43 2.43 0 00-.93-.16c-.48-1.15 1.07-1.41.79-2.41a4.79 4.79 0 011-2.39l-.43-2.46.35.38v-.54c.38 1 2 1.29 1.85 2.37" fill="#d15b25"/><path d="M231 239.94l.14-.3h.19l-.33.31M229.23 240.88s0 .1-.1.15a2.13 2.13 0 01.59 1.29v.3l-.1-.1-.23.45c-.12-.72-.25-1.5-.37-2.08h.2M244.71 240.35c-.32.6-1.35.49-2 .52-1.51.21-2.85-.54-4.29.16l-.1-.05c1.77-1 4.25.19 6.31-.67h.06"/><path d="M269.5 241.39a22 22 0 00-1.13 2.43c-.14 0-.34-.09-.44.06a9.81 9.81 0 00-4.26.64 2.56 2.56 0 00-2.23-.85 8 8 0 013-2.15l.19-.16c.46.57 1-.42 1.55-.35a14.82 14.82 0 013.28.42" fill="#d9d9d9"/><path d="M280.22 243.86c-.32.84-1.16.39-1.64.45a15.94 15.94 0 000-3.46 12 12 0 011.63 3" fill="#d15b25"/><path d="M223.28 243.34c-3.4.33-7.46-.1-11.48.62l-.21-.18a31.89 31.89 0 017.11-.41c1.27.14 3.06-.16 4.58 0"/><path d="M232.9 245.18c-.5-.22-1.36.2-1.76.07a6 6 0 01-.24-1.31c.44 0 .82-.37 1.21-.19.34-.11.28-.49.51-.75a11 11 0 01.28 2.18" fill="#ff660f"/><path d="M230.2 243.48a9.27 9.27 0 01-2.62.23v-.23h2.63M219.7 244.11a2.27 2.27 0 01-1.21.23c-.05 0-.15-.08-.11-.18a2.37 2.37 0 011.32 0M249.17 243.89a5.79 5.79 0 01-1.31.15v-.19a6.4 6.4 0 011.31 0M254.33 246.33c-.24 0 0 .25-.19.2v-.18h.19M249.42 246.62c-.15-.05-.14.1-.24.15l.1.09c-.09 0-.24.06-.29-.08.19 0 .23-.26.43-.16M225.33 247.6l.22.43-.22-.43M279.75 248.46c-.73-.12-1.19.73-2 .61-.39.11.33-.2.52-.31.1.14.38-.21.49-.07l.18-.19c.29-.07.82-.28.78 0"/><path d="M200.21 137.3l-2.21-6.43 1.63-1.38 6 3.16-1.5 1.3-1.13-.66-1.95 1.71.49 1.21-1.33 1.14zm1.66-4.67l-2.32-1.46 1.06 2.56 1.28-1.11M204.38 125.66c1.73-1.33 3.36-1.53 4.78.33s.78 3.38-.95 4.7l-2.12 1.61-3.84-5 2.13-1.62zm2.35 4.61l.66-.5a1.94 1.94 0 00-2.35-3.08l-.65.51 2.34 3.07M213.76 126.59l-1.23-6.69 1.81-1.13 5.48 4-1.69 1-1-.82-2.13 1.44.3 1.27-1.49.93zm2.34-4.38l-2.07-1.8.66 2.69 1.43-.91M221.29 117.05a.66.66 0 00-.45-.4 1 1 0 00-.7.12.7.7 0 00-.41.86c.21.41.78.3 1.25.19 1.07-.22 2.49-.83 3.26.69.6 1.19-.29 2.34-1.59 3s-2.66.87-3.46-.65l1.56-.79a.92.92 0 001.36.34c.36-.19.73-.6.54-1-.39-.77-1.46 0-3 .07a1.59 1.59 0 01-1.54-.94c-.62-1.37.37-2.34 1.55-2.93s2.57-.78 3.17.62l-1.57.8M225.47 114.54l-1.83.64-.41-1.15 5.34-1.9.41 1.16-1.86.66 1.7 4.81-1.65.58-1.7-4.8M233.11 117.07l-1.72.36-1.33-6.18 2.86-.62c1-.22 2.45-.23 2.74 1.07a1.59 1.59 0 01-1.25 1.86c1.1-.22 1.43.3 1.75 1.23a7.55 7.55 0 00.6 1.44l-1.85.4a12.06 12.06 0 01-.48-1.26c-.23-.74-.33-1-1.2-.84l-.65.13.52 2.37zm-.1-3.72c.54-.1 1.05-.3.92-.94s-.69-.59-1.24-.48l-.66.15.3 1.42.68-.15M237.09 116.24l1.53-6.62 2.12-.32 3.4 5.89-1.95.29-.6-1.16-2.54.38-.23 1.29-1.73.25zm3.89-3.07l-1.19-2.47-.46 2.73 1.67-.26M247.05 114.73l-.1-6.32h2.91c1.55 0 2.57.46 2.6 2s-1 2.05-2.54 2.08h-1.16v2.25h-1.75zm2.6-3.53c.69 0 1-.35 1-.82s-.31-.76-1-.79h-.9v1.6h.91M253.3 114.44l.11-6.33 4.82.08v1.22h-3.06v1.31h2.82v1.23h-2.83v1.35h3.07v1.23l-4.81-.08M261 115.05l-1.71-.39 1.4-6.16 2.85.64c1 .23 2.34.83 2 2.14a1.61 1.61 0 01-1.92 1.15c1.09.27 1.17.87 1.06 1.85a7.41 7.41 0 00-.05 1.56l-1.86-.42a10.38 10.38 0 01.11-1.35c.1-.75.14-1.07-.74-1.27l-.63-.15-.53 2.36zm1.47-3.4c.55.13 1.1.16 1.24-.46s-.37-.84-.92-1l-.66-.15-.33 1.42.67.15M267.75 116.87l4.41-5.17 2 .69.32 6.79-1.87-.63v-1.32l-2.43-.82-.79 1-1.66-.56zm4.87-.93l.08-2.75-1.7 2.2 1.6.55M280.05 116.65a.64.64 0 000-.6 1 1 0 00-.54-.46.7.7 0 00-.92.23c-.19.41.27.79.64 1.08.86.69 2.23 1.4 1.54 3-.54 1.22-2 1.27-3.33.68s-2.36-1.52-1.69-3.1l1.6.72a.91.91 0 00.6 1.26c.37.17.93.18 1.1-.2.34-.79-.92-1.15-1.93-2.25a1.58 1.58 0 01-.25-1.79c.66-1.35 2-1.2 3.25-.67s2.23 1.5 1.52 2.85l-1.61-.71M280.65 122.07l3.41-5.33 2.45 1.56c1.31.84 1.89 1.81 1.07 3.11s-1.95 1.16-3.26.32l-1-.62-1.22 1.9-1.48-.94zm4.12-1.51c.59.36 1 .25 1.26-.15s.18-.81-.39-1.21l-.76-.48-.87 1.36.76.48M285.6 125.41l3.81-5.06 3.85 2.9-.74 1-2.45-1.84-.78 1 2.25 1.7-.73 1-2.26-1.7-.8 1.07 2.45 1.85-.74 1-3.85-2.89M291.86 130l-1.28-1.19 4.28-4.66 2.15 2c.78.73 1.61 1.87.71 2.86a1.61 1.61 0 01-2.24.05c.81.77.58 1.33 0 2.14a7.12 7.12 0 00-.82 1.32l-1.4-1.29a10.37 10.37 0 01.76-1.11c.47-.61.65-.87 0-1.47l-.48-.45-1.68 1.8zm3-2.23c.41.38.86.7 1.3.21s.09-.9-.32-1.28l-.5-.46-1 1.07.51.46M294.81 132.77L301 130l1.54 1.47-2.6 6.3-1.42-1.37.55-1.19-1.84-1.79-1.16.61-1.26-1.21zm4.81 1.21l1.25-2.45-2.45 1.29 1.22 1.18M250.67 122.51l.69 2h2.11l-1.68 1.26.61 2-1.73-1.21-1.74 1.21.62-2-1.69-1.26h2.11l.69-2M243.74 122.72l1 1.86 2.09-.28-1.46 1.51.92 1.9-1.9-.92-1.52 1.47.29-2.1-1.86-1 2.07-.36.38-2.08M237.36 124.09l1.06 1.81 2.08-.37-1.4 1.58 1 1.87-1.93-.85-1.47 1.52.21-2.1-1.89-.92 2.06-.46.29-2.08M230.76 126l1.28 1.67 2-.61-1.2 1.73 1.21 1.73-2-.61-1.26 1.69-.05-2.11-2-.68 2-.71V126M223.84 129.37l1.61 1.36 1.84-1-.8 1.95 1.54 1.43-2.1-.17-.89 1.91-.49-2.05-2.1-.25 1.8-1.1-.41-2.06M218.28 132.54l1.75 1.18 1.71-1.24-.57 2 1.7 1.24-2.11.08-.66 2-.72-2h-2.11l1.66-1.3-.65-2M212.94 137.4l1.87 1 1.56-1.41L216 139l1.83 1-2.09.32-.43 2.07-.94-1.89-2.1.22 1.51-1.48-.86-1.92M207.1 142.88l2.05.5 1.17-1.74.16 2.1 2 .58-1.95.8.08 2.11-1.36-1.6-2 .72 1.1-1.8-1.29-1.67M247 131.21l.71 2h2.11l-1.67 1.29.63 2-1.78-1.17-1.72 1.22.59-2-1.69-1.27h2.1l.68-2M239.15 132.08l1.07 1.82 2.07-.36-1.4 1.58 1 1.85-1.93-.84-1.46 1.52.2-2.1-1.89-.92 2.06-.45.29-2.1M232.14 134.22l1.44 1.53 1.95-.81-1 1.85 1.37 1.6-2.07-.4-1.09 1.8-.26-2.09-2.05-.48 1.91-.89-.18-2.11M225.39 137.36l1.61 1.37 1.84-1-.81 2 1.55 1.44-2.11-.16-.88 1.91-.49-2.05-2.1-.25 1.8-1.1-.41-2.08M220.14 141.44l1.76 1.17 1.71-1.24-.58 2 1.7 1.25-2.11.08-.65 2-.73-2h-2.11l1.66-1.29-.65-2M215.34 146.14l2 .75 1.4-1.57-.12 2.1 1.93.85-2 .53-.21 2.1-1.14-1.78-2.06.47 1.33-1.64-1.07-1.81M243 140.7l1.23 1.72 2-.58-1.23 1.71 1.17 1.75-2-.65-1.31 1.65v-2.1l-2-.74 2-.65.09-2.11M235.35 143.32l1.45 1.53 1.94-.81-1 1.85 1.38 1.59-2.07-.39-1.09 1.81-.26-2.1-2.06-.48 1.91-.9-.18-2.1M228.13 146.7l1.66 1.29 1.79-1.11-.71 2 1.61 1.36-2.11-.07-.8 2-.58-2-2.11-.16 1.75-1.18-.5-2.05M257.66 122.88l-1 1.85-2.09-.28L256 126l-.91 1.9 1.91-.9 1.52 1.46-.28-2.09 1.86-1-2.1-.37-.37-2.07M264 124.24l-1 1.82-2.08-.37 1.4 1.58-1 1.86 1.93-.85 1.47 1.52-.21-2.1 1.9-.92-2.06-.45-.29-2.09M270.64 126.12l-1.28 1.69-2-.62 1.2 1.73-1.21 1.73 2-.6 1.27 1.68.05-2.11 2-.68-2-.7v-2.11M277.55 129.51l-1.6 1.37-1.85-1 .81 2-1.55 1.43 2.1-.16.89 1.92.49-2.05 2.1-.25-1.8-1.11.41-2.06M283.11 132.69l-1.75 1.17-1.71-1.24.57 2-1.7 1.25 2.11.08.66 2 .73-2h2.11l-1.66-1.3.64-2M288.46 137.55l-1.87 1-1.59-1.44.35 2.08-1.83 1.06 2.09.3.43 2.07.94-1.9 2.1.23-1.5-1.48.86-1.92M294.29 143l-2 .49-1.18-1.74-.17 2.1-2 .58 1.95.81-.08 2.1 1.37-1.61 2 .73-1.18-1.76 1.3-1.66M254.4 131.36l-.71 2h-2.11l1.67 1.29-.63 2 1.75-1.19 1.72 1.22-.6-2 1.69-1.26h-2.11l-.67-2M262.25 132.24l-1.07 1.83-2.08-.37 1.4 1.57-1 1.86 1.93-.85 1.47 1.52-.21-2.1 1.9-.92-2.06-.45-.29-2.09M269.26 134.37l-1.44 1.55-1.95-.83 1 1.85-1.38 1.59 2.07-.39 1.09 1.81.27-2.1 2.05-.48-1.91-.89.18-2.11M276 137.52l-1.6 1.36-1.85-1 .81 1.95-1.55 1.43 2.11-.17.88 1.93.49-2.06 2.1-.25-1.8-1.1.41-2.07M281.25 141.59l-1.75 1.18-1.71-1.24.57 2-1.7 1.24 2.11.08.66 2 .72-2h2.11l-1.66-1.3.65-2M286.05 146.28l-2 .77-1.4-1.58.12 2.1-1.93.84 2 .55.2 2.1 1.14-1.78 2.06.45-1.24-1.63 1.07-1.82M258.41 140.85l-1.24 1.71-2-.56 1.24 1.7-1.17 1.76 2-.66 1.31 1.66v-2.11l2-.74-2-.64-.09-2.12M266 143.47l-1.4 1.53-2-.82 1 1.84-1.38 1.6 2.07-.4 1.1 1.81.26-2.09 2-.47-1.91-.91.18-2.1M273.27 146.85l-1.67 1.3-1.79-1.15.72 2-1.62 1.35 2.11-.06.8 2 .59-2 2.1-.14-1.75-1.18.51-2.06M250.71 140.1l.69 2h2.1l-1.67 1.27.61 2-1.73-1.2-1.74 1.2.62-2-1.69-1.27h2.11l.69-2" fill="#fff"/><path d="M240.35 186.84a26.62 26.62 0 014 1c.92.42 3.54 1.52 4.26 1.77s5.42 1.88 6.52 2.31 5.6 2 7.42 2.62 9.86 3 11.69 3.22 13 1.82 13.7 1.82 3.89.49 3.89.49v-2.61l.67-1.6.86-.47 1.87-.08.66 1.43.14 2.79 7.07-.86 3.82.25 6.46 6.81 6.54 1.08s2.72-7.44 3.21-11.25c.43-3.36 1.27-8.25 1.27-8.25l-38.11-.39s-.19.8.18 1.1a6.5 6.5 0 003.29.06 10.32 10.32 0 012.13-.36s-.06.24-.43 1.33a5.78 5.78 0 01-1.28 2.26 2.8 2.8 0 00-.54 1l.24.54 1.7-.18 1 .12-4.32.61-3.11-.24-20.64-.49-2.18-.48-3.66-.42.49-.37 1.82-.43.43-.9s-.43-.68.43-.93 5.9-.36 5.9-.36 1.58-.24 1.88-.3a5.58 5.58 0 012 .24c.25.19.31-.05.61-.24a11.69 11.69 0 013-.42 4.76 4.76 0 011.53.79l2.43-.92-.18-1.15-38.66.06" fill="url(#d)"/><path d="M255.69 188.19c.15.05.33-.06.44.09-.33.35-.73.12-1.11.38-1.25.53-2.23-1.19-3.36 0a4 4 0 01-2-.12c1 0 2.15.3 3.14-.45 1 0 1.84.94 2.89.12M259 189.68c-.75.76-2-.61-3 .26l-2.68.19a1 1 0 01.87-.27c1.53.67 2.63-1.27 3.94-.14h.88M297.81 188.58c1.77.62 3.31-1.34 5.05-.38 1.07.11 2.84.48 3.88-.48.14 0 .38-.06.48.08l.1-.1c-.37.36-.77.26-1.19.67-.1 0-.3-.08-.34.11-.14.35-.58.07-.77.28-.25-.39-.63.06-1-.17-2-1.09-3.87.64-6.13.18-.64-.22-1-.6-1.54-.82a3.8 3.8 0 011.44.63M317.9 189.06c.59.07 1.11-.38 1.74-.51l-.14.21c-.45-.19-.81.56-1.26.28v.1c0 .24 0-.1-.1-.09a.86.86 0 01-.78.12c-.25-.32-.43 0-.74-.21-.25-.33-.73-.07-1-.5-.17.45-.68-.12-1 .18-.78.08-1.82.75-2.51.53-.16 0-.39.26-.54 0 1.28.3 3.16-1.28 4.7-.66.59.13 1.34.63 1.68.52M316.32 196.42c-.09.06-.08.35-.33.26l-.1-.09c-.23.4-.59 0-.87 0a2.09 2.09 0 01-1.68-.38 6.18 6.18 0 003 .18M306.1 190.23a.25.25 0 00.09-.2 2.72 2.72 0 001.32.14.33.33 0 00.11.15l.13-.16c.05.05.15.05.11.14-1 .19-2.3-.25-3.17.21l.11.1a2.3 2.3 0 01-2 .42c-.3-.43-.78-.21-1.18-.31l-.25-.27c-.1 0-.08.19-.08.29-.06-.15-.25-.09-.35-.08l-.18.19c-.25-.08-.06-.18 0-.28 1.4-.34 2.9.91 4.13-.25.32-.4.91-.23 1.21-.09M314.7 192.1c.53-.21 1.12.1 1.66 0 0 .43-.3 0-.53.21l-.15-.19a6.58 6.58 0 00-3.34.75 3.08 3.08 0 01-2.62.2c1.62.33 3.18-.8 4.78-1.15l.2.19M228 226.73c-.17 0-.31-.21-.31-.47s.14-.47.31-.47.31.21.31.47-.14.47-.31.47M223.59 226.07c-.17 0-.31-.2-.31-.46s.14-.47.31-.47.32.21.32.47-.15.46-.32.46"/><path d="M325 180.47a74.75 74.75 0 11-74.75-74.75A74.75 74.75 0 01325 180.47z" fill="none" stroke="#000" stroke-linejoin="bevel" stroke-width=".11"/><path d="M184.48 201.17l.12.13.12.25v.86l.13.13v.24l.12.13v.09l.12.12v.13h.13l.12.12v.12l.12.13h.13l.24.24h.37v-.12h.13l.12-.12V203l.12-.13v-.12h.5l.12.12h.13l.37.37V205l.12.12h.25v-1.49l.12-.12h.62l.5.5v.12h.12l.25.25h.12l.13.12h.37l.12-.12v-.25l-.12-.12h-.37l-.25-.13-.25-.24v-.13l-.12-.24-.13-.13V203h.13l.25-.12h.24l.13-.13h.08l.25-.12h.12l.25-.12.12-.13h.12l.25-.12h.37l.13-.13h.61l.13.13h.12l.25.25v.37l-.25.49-.12.13v.12l.25.25h.4l.12-.13v-1.36l.25-.25h.49l.25.12h.12l.37.37h.13v.13l.24.25v.12l.25.25v.12l.37.37h.12l.13.12h.16l.13-.12v-.25l-.13-.12h-.12l-.13-.12-.12-.25-.12-.12v-.25l-.75-.75v-.37l.13-.37v-1.24l-.25-.49-.12-.13-.13-.24-.24-.13H194l-.24-.12h-2.86l-.12-.12-1.49-.5-.25-.25h-.12l-.25-.24h-.12l-.12-.13h-.25l-.12-.12h-1l-.13.12h-.24l-.13.13v.2l-.12.25-.13.12-.24.5-.13.37-1.24.62-.24.24H184l-.25.13h-.24v.12l-.13.12.13.13v.12l.12.13h.12l.75.37M201.72 196.83v.25h-.24l-.87.12-.12.12h-.13v.13h-.12l-.12.12H200l-.12.12h-.12l-.13.13h-.49l-.25.12-.12.12v.13l.12.12v.13l.87.86.24.37.13.5.24.37v.25l.13.37v.24l.12.13v.12h.62v-.12h.12l.13-.13v-.12h.12v-.12l.12-.13v-.24l.13-.13v-.12l.12-.12h.62l.13.12v.25l.12.12v.62h-.12v.37h-.13v.1l-.12.13v.12l-.12.12v.37l.24.25h.13l.24-.25v-.24l.25-.5.5-.49.24.12h.13l.24.25v.12l.13.12v.25l.12.12v.13l.12.12v.12l.75.75h.49v-.37l-.12-.13V203h-.12v-.12l-.13-.13h-.12v-.12l-.12-.12v-.13h-.13v-.24l-.12-.13v-.49h.12v-.13l.13-.12h.12l.12-.12h.87l.12-.13h.13l.12-.12h.12l.13-.13h.12l.5-.49v-.13l.24-.24v-.13h.08l.12-.12h.37l.25.25h.12v.09h.14l.12.12v.38l-.12.24-.13.13v.24l-.12.13v.12l-.13.25v1h.25l.25-.25v-.49l.12-.13v-.24l.13-.13v-.12l.12-.12V201h.25l.12-.12h.5l.12.12h.12l.13.13h.27l.5.49.12.25.13.12v.13l.12.24h.13l.13.13h.24v-.37l-.12-.25-.12-.13v-.12l-.13-.12-.12-.25-.25-.25-.24-.12-.13-.25-.12-.12v-.12l-.12-.13-.13-.24v-.13l-.12-.12v-.5l.12-.12v-.25l.13-.12h.74l.25.25.12.24.25.25h.24v-.12h.13v-.25h-.13l-.24-.25-.13-.37-.12-.12-.25-.13-.12-.12-.25-.12-.12-.13-.25-.12-.12-.12-.25-.13-.5-.49h-.12L210 197h-.13l-.12-.12h-.12l-.13-.12h-.37l-.12-.13h-1.37l-.12-.12h-.25l-.12.12h-.25l-.12.13h-.25l-.12-.13h-.37l-.5-.12-.37-.12h-.25l-.12-.13V196l-.12-.13-.25-.12-.5-.5-.24-.12h-.13l-.12-.12H203l-.12.12h-.25l-.12.12h-.12l-.13.13h-.12l-.12.12v.12h-.13v.13l-.12.12v1" fill="#7d3627" stroke="#000" stroke-width=".32"/><path d="M190.06 201.79l-.12-.12h-.13v-.25l.13-.12.12.12h.12v.25l-.12.12" fill="#7d3627"/><path d="M190.06 201.79l-.12-.12h-.13v-.25l.13-.12.12.12h.12v.25l-.12.12" fill="#7d3627"/><path d="M179.51 188.27l-.25.24v.25l.25.25 1.49 1.61h.62v-.25l.12-.12v-.37l-.24-.12h-.13v-.13l.13-.12.24.12h.13l.12-.12v-.13l.12-.12h.75l.12.12v.13l.12.12v.13l.13.12v.12l.24.25h.13l.12.12h.62v.13l.12.12v.38l-.12.12v.5h-.12v.12l-.13.13v.13H184l-.12.12h-1.12l-.25.25v.12l-.12.13v.12l.12.13v.13l.13.12v.13h.12l.62.62v.24h.12v.13l.13.12v.12l.24.25v.12l.25.25h.12v.12l.13.13h.12l.13.12h.62l.12-.12.12-.25.13-.12h.49l.25.24v.5l.12.12h.25l.12.13h.25l.12.12h.13l.24.12h.13l.12.13h.25l.12.12h.37l.25-.25v-.12h-.12l-.25-.25h-.25l-.12-.12h-.25v-.12h-.12l-.25-.25v-.5l.12-.12v-.12l.13-.13h1.11l2.48.37.5.5.74.37.13.12.12.25.12.12.13.25.24.13.13.12h.25l.24-.25-.12-.12v-.13l-.87-.86-.24-.13-.25-.24v-.25l-.13-.12v-.25l-.12-.12V194h.12l.13-.12v-.13h.25l.12-.12h.37l.12.12h.13l.12.13h.12l.13.12h.12v-.12h.1v-.25h-.12l-.25-.25h-.12l-.12-.12v-.13l-.13-.12h-.12v-.12l-.37-.37v-.13l-.5-.49h-.12v-.13l-.25-.24h-.12l-.12-.13h-1l-.12.13h-.74l-.5-.13-.62-.12-.5-.12-.37-.13-.12-.12h-.12l-.25-.25h-.12l-.13-.12h-.12l-.12-.12h-1.37l-.12.12h-.5l-.62-.62v-.25l.12-.12h.13v-.13h.12l.25-.12h.25l.24-.12h1.12l.12.12h1l.37.37v.13h.13v.12h.24l.13-.12v-.25l-.37-.37v-.5l.24-.12.13-.13v-.24l-.13-.13v-.12l-.24-.12v-.5l-.37-.37h-2.74l-.12-.12-.49-.25-.25-.25v-.12l-.13-.12h-.74l-.12-.13h-.75l-.12.13H182l-.12.12h-.12v.12l-.13.13h-.12v.24h-.12v.25h-.13v.25h-.12v.12H181l-.13.12h-.37l-.12.13h-.25l-.62.74M205.08 194.6l.12.12h.49v-.25l-1.23-1.61v-.12l-.13-.13v-.24l.13-.13.24-.86v-.5l-.24-.5-.13-.12v-.12l-.12-.13h-.74l-.25-.12h-.37l-.25-.12h-.5l-.49.24h-.74l-.25-.24h-.13l-.49-.5h-.13l-.24-.25h-1l-.13.13h-.25l-.12.12H198v.12h-.13l-.12.13v.12h-.12v.12l-.13.13v.11h-.37v.25h.25v.12l-.25.25v.12H197l-.12.13h-.13l-.12.12h-.12l-.13.12h-.24l-.13.13h-.25l-.12.12h-.25l-.24.25h-.13v.12l-.24.25v.24l.12.13v.12h.12v.12h.13l.37.37v.13h.12v.74l.12.13v.12l.13.12.49.25h.37l.13-.12h.12v-.13h.13v-.12h.12V194l.25-.25v-.12l.24-.25h.13v-.13l.12.13.25.12h.24l.5.5v1.24h.12v.12l.13.12v.13h.62l.37-.13.24.13h.62v-.25H201l-.12-.12-.25-.13-.62-.62v-.24l.12-.13v-.24l.13-.13h.12v-.12h.25v-.12h.25l.61-.62h.13l.12-.13h.5l.12.13v.11l.25.25v.24l.12.25v.26h.13l.12.12v.12h.25v-.12h.12v-.37l-.12-.25v-.24l.12-.13h.12l.25-.12.12.12h.25l.12.13.87 1.36" fill="#7d3627" stroke="#000" stroke-width=".32"/><path d="M183.73 189.14h-.12v-.25h.25v.25h-.13" fill="#7d3627"/><path d="M183.73 189.14h-.12v-.25h.25v.25h-.13M183.61 188.64h.24V187h-.24z" fill="#7d3627"/><path d="M294.52 200v6.1M295.2 207.63v6.1" fill="none" stroke="#000" stroke-linejoin="round" stroke-width=".55"/><path d="M326 180.3a75.95 75.95 0 11-151.89 0v0a75.95 75.95 0 01151.89 0z" fill="none" stroke="#000" stroke-linejoin="bevel" stroke-width=".5" opacity=".96" style="isolation:isolate"/><path d="M251 105.35c-1.39.52-2.15-.74-2.84-1.67v-.16c1.45-.76 1.86 1.2 2.84 1.83M252.88 105.35c-1.56.93-1.68-1.2-2.72-1.73.18-.34.75.06 1.16.06a5.37 5.37 0 011.56 1.67M255.08 105.47c-1.56.75-2.2-1.15-3.12-1.85 1.21-.57 2.48.75 3.12 1.85M248.94 105.24c-.23.34-1 .23-1.39.11-.75-.29-1-1.14-1.73-1.67 1-.69 2.48.69 3.12 1.56M257.05 105.59c-1.62.86-1.85-1.27-2.84-2 1.16-.28 2 .7 2.61 1.56l.23.4M246.74 105.47c-1.44.75-2-1.22-3-1.79 1.39-.29 2.32.87 3 1.79M258.61 104.43a3.66 3.66 0 01.93 1.55c-1.74.35-2.43-1.2-3.13-2.3a2.69 2.69 0 012.2.75M244.83 105.47c-1.15.69-2-.52-2.89-1.26l-.12-.3c1.39-.45 2.26.64 3 1.56M260.93 104.83a3.76 3.76 0 00.69 1.27 1.7 1.7 0 01-2-.92l-.63-1.27a2.33 2.33 0 011.91.92M243 105.75c-1.33.63-2.2-.75-3.12-1.43a1 1 0 011.44-.11 19.57 19.57 0 011.68 1.54M263.53 106.5c-1.45.13-1.91-1.26-2.43-2.29 1.5-.24 1.74 1.48 2.43 2.29M241.19 106a2 2 0 01-2.38-.39 4 4 0 00-.92-.87c.17-.51.75-.28 1.21-.28l2.09 1.54M264.22 104.83c.47.7.64 1.45 1.16 2.08-1.16.11-1.56-.87-2.08-1.67l-.29-.81c.52-.18.81.29 1.21.4M239.05 106.28c-.29.4-.76.17-1.16.22a8.72 8.72 0 01-1.91-1.67c1.39-.68 2 .82 3.07 1.45M267.23 107.14c-.17.18-.81.12-1.1-.12a6 6 0 01-1.27-2.19 2.34 2.34 0 011 .23 8 8 0 011.33 2.08M237.14 106.73c-1.28 1-2.2-1-3.13-1.49 1.39-.87 2.43.68 3.13 1.49M269.14 107.66a2.07 2.07 0 01-1.15-.23c-.41-.75-.93-1.45-1.28-2.25 1.62-.23 1.74 1.61 2.43 2.48M235.28 107c-.46.17-1 .52-1.56.24l-1.79-1.5a2.34 2.34 0 012 0c.46.52 1 .69 1.38 1.26M270.82 107c-.11.52.52.81.52 1.33a2.53 2.53 0 01-2.34-1.83c0-.28-.29-.58-.23-.81a2.42 2.42 0 012 1.33M233.2 107.42c-.29.3-.87.3-1.27.41a18.13 18.13 0 01-2-1.55 1.93 1.93 0 011.27-.3 11 11 0 012 1.44M273.43 108.8v.2c-1.62.23-1.86-1.62-2.43-2.6l.11-.16c1.56-.12 1.74 1.61 2.32 2.58M231.23 107.83c-.29.23-.75.52-1 .34a11.34 11.34 0 01-2-1.44c1.15-.57 2.14.41 3.06 1.1M275.39 109.49v.24c-1.68.06-1.68-1.78-2.2-2.82 1.51-.06 1.8 1.61 2.2 2.58M229.55 108.35a1.74 1.74 0 01-1.79.34c-.58-.4-1.16-.74-1.74-1.15 1-1.26 2.55.06 3.53.81M277.25 110.37c-.47.1-.76-.29-1.16-.47-.29-.8-.58-1.55-.93-2.36 1.51.06 1.74 1.73 2.09 2.83M227.47 108.86c-.11.53-.75.53-1.16.63a7.8 7.8 0 01-2.48-1.2c1.15-1 2.54.06 3.64.57M279.15 110.65v.52c-1.79 0-1.33-2-2.08-3a3 3 0 012.08 2.48M225.5 109.74c-1.27 1-2.43-.41-3.64-.64 1-1.27 2.54.11 3.64.64M280.72 110.14c0 .69.4 1.14.29 1.83-1.8.07-1.33-2-1.86-3a2.62 2.62 0 011.57 1.16M223.71 110.43c-1.27 1.2-2.43-.41-3.65-.59 1.1-1 2.61.24 3.65.59M282.68 112.09v.63c-1.67 0-1.1-1.89-1.56-2.88 1.28 0 1.22 1.39 1.56 2.25M221.86 111.18c-1.28.91-2.43-.35-3.65-.53 1-1.26 2.49.18 3.65.53M284.65 113.54l-.23.22c-1.56-.45-1.1-2.13-1.62-3.23 1.51.41 1.51 1.85 1.85 3M220.18 111.91c-1.45 1.1-2.55-.22-4.05-.34 1.16-1 2.78-.39 4.05.34M286.21 112.85a3.2 3.2 0 010 1.84c-1.67-.18-1-2.25-1.44-3.23a2.6 2.6 0 011.44 1.38M218.27 112.72c-1.1 1.33-2.6.13-3.82-.1 0-.53.64-.24.93-.64a15.69 15.69 0 012.89.74M288.3 115.83a6.13 6.13 0 01-1.45-.91c.12-.87-.17-1.67-.11-2.42 1.5.51 1.38 2.07 1.56 3.33M216.19 113.65a1.62 1.62 0 01-1.86.52c-.46-.52-1.27-.23-1.79-.63 1-1.27 2.49-.13 3.65.11M289.75 116.65c-1.39-.35-.87-2.08-1.16-3 1.33.45.92 2 1.16 3M214.57 114.69c-1.16 1.2-2.61-.06-3.77-.12 1-1.09 2.49-.18 3.77.12M291.31 115.72l.23 2c-1.91 0-1-2.07-1.56-3.17a3.34 3.34 0 011.33 1.21M212.89 115.61c-.58.75-1.45.57-2.32.46-.29-.28-.75-.28-1.15-.46.86-1 2.37-.12 3.47 0M293.28 118.94c-.58-.22-1.34-.67-1.34-1.44.12-.57-.23-1.32-.11-1.89 1.21.57 1.5 2 1.45 3.33M211.21 116.59c-.75 1.43-2.43.28-3.53.17l-.12-.11a1.58 1.58 0 01.93-.58c1-.18 1.68.63 2.72.51M294.84 120.22c-1.62-.52-.81-2.31-1.33-3.45 1.5.56 1 2.23 1.33 3.45M209.42 117.68c-.81 1.62-2.26.12-3.42.12.81-1.28 2.32-.24 3.42-.12M296.52 121.31c-1.74-.29-.93-2.53-1.45-3.63 1.56.59 1.27 2.3 1.45 3.63M207.85 118.72c-.58 1.38-2.25.46-3.53.46l-.11-.12c.75-1.61 2.49-.4 3.64-.34M298.19 120.62v2.08c-1.62-.47-.92-2.36-1.27-3.46a2.67 2.67 0 011.27 1.38M206.23 120c-1 1.4-2.54.46-3.87.42.92-1.33 2.6-.42 3.87-.42M299.76 121.78l-.12 2.24a2.08 2.08 0 01-1-1.84c.58-.4-.17-1 .23-1.45.52.06.7.65.93 1M204.55 121.25a3 3 0 01-1.27.8 6.25 6.25 0 00-2.49-.27c.93-1.27 2.49-.7 3.76-.53M301.2 124.54c-.17.17-.05.51-.11.74-.29-.33-.81-.45-.93-.92l.12-2.41c1.1.46 1 1.67.92 2.59M203.11 122.47c-1 1.49-2.78.62-4.11.74 1-1.43 2.78-.74 4.11-.74M303.17 124.54a5.74 5.74 0 01-.4 2.42 3.54 3.54 0 01-1.16-1.38l.11-2.25c.53.28 1 1 1.45 1.21M201.31 123.85a1.89 1.89 0 01-2.31.92c-.41-.12-.93-.35-1.33-.12.06-.46.69-.74 1.16-.92l2.48.12M199.75 125.29c-.81 1.49-2.43.52-3.64.8.4-1.32 2.6-1 3.64-.8M304.33 128.11c-.46-.11-.7-.64-1-.92l.4-2.13c1.51.75.64 1.9.64 3.05M198.3 126.62c-.92 1.44-2.25.81-3.64.91.46-1.54 2.37-.69 3.64-.91M305.89 127.37c.17.86-.29 1.49-.4 2.24-.29-.06-.64-.51-.81-.81.4-.63 0-1.55.4-2.18.41.11.58.4.81.75M196.92 128c-.64 1.61-2.49.74-3.71 1.1.52-1.45 2.49-1 3.71-1.1M307.16 130.58c-.29.18 0 .28-.42.45-1.45-.87-.5-1.89-.33-3a2 2 0 01.75 2.58M195.58 129.44c-.63 1.73-2.66.86-3.87 1.2.69-1.67 2.54-.87 3.87-1.2M308.84 131.62l-.46 1.13c-1.68-.68-.64-2-.52-3.14.58.52 1.21 1.21 1 2M190.49 132.31a2.53 2.53 0 011-1.14l2.49-.29c-.12 1.61-2.37 1-3.53 1.43M310.17 132.31a4.55 4.55 0 01-.63 2.07c-1.45-.85-.29-1.77-.18-2.87.47 0 .52.52.81.8M192.69 132.66c-.46 1.44-2.26 1-3.47 1.21.52-1.55 2.49-1.15 3.47-1.21M311.33 133.87a4.76 4.76 0 01-.52 2.42c-.41-.46-1-1.15-.75-1.79s.34-1.26.75-1.54l.52.91M191.53 134.1c-.57 1.73-2.37 1.22-3.64 1.44.69-1.67 2.49-.91 3.64-1.44M312.49 136.47a2 2 0 00-.35 1.43 2 2 0 01-.93-1l.64-2.47a1.92 1.92 0 01.64 2.08M190.15 135.77c-.41 1.39-2.15 1.09-3.3 1.44.4-1.61 2.2-1 3.3-1.44M313.3 139.69c-.41 0-.52-.51-.75-.81a3.57 3.57 0 01.52-2.71c1.21.87.46 2.38.23 3.52M189.1 137.39c-.34 1.61-2.25.81-3.3 1.49a1.71 1.71 0 011-1.27c.63-.22 1.56.12 2.2-.28v.06M315.09 138.94a8.7 8.7 0 01-.75 2.6c-1.33-.92-.41-2.48-.12-3.64a2.67 2.67 0 01.87 1M188 138.88c-.29.52-.46 1.27-1.15 1.44-.87 0-1.68.4-2.43.4.4-1.73 2.2-1.61 3.58-1.84M315.5 143.43c-.41-.45-1-1.21-.75-1.89a9.83 9.83 0 00.75-1.73c1.39.91.23 2.48 0 3.62M186.85 140.72c-.47 1.4-2.09 1.34-3.24 1.57.11-1.67 2-.93 2.89-1.57h.35M317.18 142.57c-.18.86-.53 1.62-.76 2.42-1.5-.86.12-2.19.12-3.34.4.06.4.63.64.92M185.92 142.29c-.46 1.84-2.49 1.2-3.59 2.07.29-1.79 2.26-1.67 3.59-2.07M318 143.83a5.11 5.11 0 01-.76 2.84c-1.15-.93-.05-2.37.23-3.46.24 0 .35.4.53.62M183.84 145.51c-.81.18-1.74.4-2.43.63.52-1.55 2.2-1.78 3.47-2.18a2.61 2.61 0 01-1 1.55M319 145.91a5.57 5.57 0 01-.81 2.6c-.64-.23-.52-1-.76-1.57.29-.67.87-1.25.82-2.07.46.06.46.71.75 1M183.72 146c-.17 1.78-2.2 1.38-3.24 2.19.12-1.85 2-1.61 3.24-2.19M320 147.87a4 4 0 01-.92 2.71c-.12-.69-1-1.33-.41-2.08.41-.46 1.1-2.64 1.33-.63M179.73 149.78c.23-1.44 2-1.5 3.07-2-.24 1.54-1.91 1.66-3.07 2M320.88 150.58a14.18 14.18 0 01-1 1.78c-.29-.4-.75-1-.41-1.66s.64-1.16.93-1.79a3.17 3.17 0 01.52 1.67M181 150.88c-.75.1-1.33.67-2.08.73 0-1.6 1.79-1.37 2.72-2.07.29.46-.23 1-.64 1.34M321.75 152.26a4.35 4.35 0 01-1.39 2c-.93-1.21.4-2.19.87-3.23.4.12.4.81.52 1.27M180.71 152.36a24.26 24.26 0 01-2.54 1.33c-.35-1.9 2.14-1.78 3.12-2.47l-.58 1.14M322.44 153.69c.23 1.15-.63 1.91-1.1 2.82a2.85 2.85 0 01-.34-2.3c.52-.4 1.15-2.41 1.44-.52M180.48 153.17c0 1.79-2 1.67-3 2.48-.11-1.66 1.8-1.9 3-2.48M179 156.57l-2.2 1.16c-.17-.41.29-.92.41-1.45.64-.68 1.62-.68 2.31-1.26a1.61 1.61 0 01-.52 1.55M323.31 156.41c-.12.91-.93 1.49-1.39 2.23-.11-.63-.64-1.26-.29-1.95a5.51 5.51 0 011.27-1.69l.41 1.39M176.2 159.8c-.52-1.67 1.79-2 2.72-2.76.17 1.43-1.62 2.07-2.72 2.76M323.6 157.1c.69 1.44-.23 2.82-1 3.74-.12-.58-.7-1.22-.29-2a8.11 8.11 0 011.33-1.78M175.68 161.87c-.23-.45.29-1 .4-1.54a26.76 26.76 0 002.32-1.45c.4 1.67-1.74 2.13-2.72 3M324.47 160.55c-.18.87-.93 1.5-1.39 2.24-1-1.2.46-2.53 1-3.5l.35 1.26M177.36 162.63c-.64.69-1.51.91-2.2 1.54-.47-1.78 1.62-2.18 2.6-3.22a2 2 0 01-.4 1.67M323.6 164.87h-.17c-.93-1.43.69-2.37 1.21-3.51.7 1.38-.11 2.53-1 3.51M177.07 164.47c-.64.92-1.68 1.14-2.43 1.89-.47-1.78 1.62-2.19 2.6-3.11.12.24-.12.81-.17 1.22M325.28 163.54c.69 1.56-.7 2.71-1.33 3.63-.87-1.32.46-2.76 1.33-3.63M174.23 168.5a3.07 3.07 0 01.29-1.55 24.78 24.78 0 012.2-1.56c.69 1.72-1.51 2.25-2.49 3.11M325.68 165.74c.7 1.55-.63 2.76-1.44 3.63-.7-1.62.57-2.66 1.44-3.63M176 169l-2.09 1.5c-.58-1.8 1.51-1.91 2.37-2.94A1.64 1.64 0 01176 169M326.2 169c.12 1.1-1.15 1.67-1.56 2.6-.93-1.44.75-2.6 1.39-3.64l.17 1M175.5 171.32l-1.79 1.28c-.64-1.62 1.33-2.31 2.32-3.11a3.35 3.35 0 01-.53 1.83M326.55 171c.17 1.22-1.16 1.39-1.68 2.25-.75-1.27.87-2.07 1.22-3.1.63-.12.17.62.46.85M173.48 174.55c-.58-1.61 1.33-2.07 2.2-2.93.63 1.55-1.45 1.95-2.2 2.93M326.55 173.92l-1.55 1.32c-.75-1.32.75-2 1.56-3 0 .57.46 1.15 0 1.67M173.42 176.51c-.81-1.61 1.33-2 2.08-3.11.4 1.5-1.21 2.37-2.08 3.11M325.05 177.31c-.81-1.6.92-2.13 1.67-3.11.76 1.5-.81 2.3-1.67 3.11M173.3 178.47c-.57-1.44 1.16-2.3 2.09-3.11.58 1.85-1.27 1.95-2.09 3.11M325.16 179.51c0-.63-.4-1.1 0-1.73l1.68-1.67c.75 1.55-.81 2.42-1.68 3.4M175.27 177.55c.52 1.61-1.15 2.3-2.08 3-.52-1.5 1.1-2.48 2.08-3M327 178.29c.81 1.56-.93 2.25-1.68 3.11h-.23c-.52-1.61 1.21-2.12 1.91-3.11M173.19 182.74c-.7-1.62 1.16-2.31 2-3.35.75 1.78-1.1 2.54-2 3.35M327 180.42c.63 1.57-1 2.14-1.8 3.05h-.2c-.58-1.71 1.27-2 2-3.05M173.3 185c-.63-1.57 1-2.54 1.86-3.46.81 1.62-1.22 2.42-1.86 3.46M327 182.5a1.8 1.8 0 01-.35 1.78l-1.65 1.33a2.16 2.16 0 011.33-2.65c.23-.06.35-.4.64-.46M173.59 187.39c-.4-.1-.05-.68-.29-.91-.17-1.32 1.22-2 1.86-2.94.63 1.56-.47 2.82-1.57 3.85M326.84 184.57c.46 1.21-.58 2.25-1.56 2.82l-.52.3c-.52-1.68 1.1-2.08 2.08-3.12M174 189.36c-.12.11-.23.29-.41.22-.69-1.6 1.16-2.41 1.8-3.63.92 1.33-.7 2.37-1.39 3.41M326.32 188.67a8.05 8.05 0 01-1.85 1.21c-.41-1.67 1.27-2.13 2.14-3.24.35.64-.12 1.39-.29 2M174.12 191.84h-.18c-.92-1.68 1-2.54 1.62-3.69 1 1.55-.69 2.59-1.44 3.69M326.43 189.18c.47 1.5-1.15 2.14-2.08 2.88h-.23c.17-.63.06-1.38.52-1.84.64-.23 1.16-.75 1.79-1M174.35 193.91c-1-1.56.81-2.31 1.44-3.51.7 1.44-.69 2.47-1.44 3.51M326.2 191.26c.29 1.38-.81 2-1.73 2.59l-.64.18c-.4-1.62 1.51-2.08 2.37-2.77M176.31 193.74a11 11 0 01-1.67 2.06c-.81-1.6 1-2.4 1.44-3.5a3.61 3.61 0 01.23 1.43M325.39 195l-1.91 1.26a2.24 2.24 0 01.23-1.44l2.09-1.43c0 .33.06 1.21-.41 1.61M175.27 198H175c-1-1.55.81-2.48 1.39-3.62.93 1.26-.75 2.35-1.16 3.62M325.51 195.47c.29 1.67-1.45 2.08-2.43 2.7h-.18c0-1.56 1.51-2.07 2.61-2.7M177.07 197.89l-1.51 2c-1-1.5.93-2.29 1.16-3.51.52.23.23 1 .35 1.56M325.05 197.55c.11 1.61-1.57 1.89-2.61 2.58a1.84 1.84 0 011.16-1.85c.58-.06.87-.69 1.45-.73M176.31 201.51l-.23.18a1.81 1.81 0 01-.17-1.56l1.33-1.84c1 1.09-.41 2.24-.93 3.22M324.12 201.17c-.69.34-1.45.63-2.2 1-.4-1.78 1.91-1.72 2.61-2.82.23.64-.29 1.27-.41 1.85M177.88 200.13c.52 1.38-.81 2.25-1.28 3.35-1.27-1.16.93-2.14 1.05-3.35h.23M178.51 202.67a8.86 8.86 0 01-1.27 2.58c-1.21-1.2.58-2.3.87-3.45.4 0 .17.58.4.87M324 201.8c-.12.64-.18 1.33-.64 1.68l-2.08.74a2.75 2.75 0 01.63-1.67 7.47 7.47 0 012.09-.75M179.15 204.28a5.79 5.79 0 01-1.39 2.71c-1.1-1.38.81-2.42 1-3.51l.35.8M323.43 203.87c0 1.68-1.74 1.68-2.84 2.19-.12-.34.17-.91.41-1.32a11.51 11.51 0 012.43-.86M178.51 209c-1-1.39.52-2.48.81-3.7 1.28 1.1-.4 2.66-.81 3.7M322 207.39c-.7.46-1.57.4-2.26.75a3.47 3.47 0 01.52-1.55l2.26-.81a2.23 2.23 0 01-.52 1.61M179.44 211c-1.33-1.2.23-2.64.64-3.86 1.15 1.32-.41 2.6-.64 3.86M321.86 207.91c.29 2-2 1.38-2.95 2.08.12-.69.52-1.57 1.39-1.63.52 0 1-.39 1.56-.45M180.19 212.7c-1.5-1.16.46-2.49.58-3.75 1 1.26-.17 2.59-.58 3.75M320.71 210.74a8.44 8.44 0 01-2.49.92 1.41 1.41 0 01.81-1.33 8.36 8.36 0 002.08-.75c.17.41-.17.81-.4 1.16M180.89 214.48c-1.34-1.38.69-2.42.63-3.74.87 1.32-.29 2.53-.63 3.74M320.36 211.37c.23.4-.18.75-.29 1.15-.75.75-1.85.58-2.84.92.29-.52.47-1.27 1.16-1.44a4.53 4.53 0 002-.63M181.81 216.22c-1-1.11.12-2.72.47-3.94 1.26 1.28-.18 2.72-.47 3.94M319.66 213.21c-.11 1.79-1.91 1.56-3.12 2-.17-1.67 2-1.39 3.12-2M183.49 214.77c.17 1.15-.69 1.9-.81 2.93-1.1-1 .17-2.47.52-3.45l.29.52M318.28 216a7.08 7.08 0 01-2.49.51c.11-1.32 1.85-.92 2.72-1.44.29.28-.06.64-.23.93M183.61 219.33c-1.33-1 0-2.32.23-3.52l.17-.12c1.16 1.27-.29 2.42-.4 3.64M317.87 216.67c-.17.46-.35 1.09-.93 1.32l-2.08-.11c.23-1.5 2.08-.69 3-1.21M185.4 218.23l-.75 2.76c-1.39-.92 0-2.53.23-3.63l.52.87M317.06 218.39c-.52.41-.46 1.27-1.27 1.27-.76.3-1.22-.11-2-.11.23-1.67 2.31-1.21 3.24-1.16M186.33 220l-.53 2.82c-.4-.12-.52-.75-.75-1.16.41-.52.35-4.26 1.28-1.66M315.9 220.18c-.34.47-.52 1.27-1.27 1.22a9.41 9.41 0 00-1.85-.06c.17-1.9 2-.93 3.12-1.16M187.37 222.38c-.35.57-.18 1.43-.52 2.07-1.62-1-.12-2.54-.12-3.74a1.44 1.44 0 01.64 1.67M314.86 221.85c-.29 1.73-1.91.75-3.12 1 .29-1.79 2.14-.86 3.12-1M188.53 223.29a11.85 11.85 0 00-.53 2.77c-1.5-.92-.23-2.48-.23-3.68.41.06.52.57.76.91M313.7 223.29c.29.41-.4.76-.63 1l-2.38-.12c.35-.39.52-1 1.16-1a5.1 5.1 0 001.85.11M189.57 224.61a8.16 8.16 0 01-.64 2.72c-1.16-.87-.12-2.13-.12-3.41.47 0 .52.47.76.69M312.66 224.73c.23.23-.11.53-.17.76-1.1.63-1.68.06-2.84.16.35-1.67 2-.63 3-.92M190.15 228.76a1.78 1.78 0 01-.82-.92l.76-2.47c.81.93.23 2.3.06 3.4M311.74 226.18c-.29 1.72-1.86.63-3 .91l-.12-.06c.35-1.77 2.32-.57 3.13-.85M191.3 230.2c-.81-.33-.75-1.26-.63-2.07.29-.4.17-1 .34-1.44 1 .93.29 2.25.29 3.51M310.69 227.62a2.83 2.83 0 01-.75 1l-2.49-.11c.35-1.67 2.09-.69 3.24-.86M192.69 231.71c-.11-.07-.17.06-.23.06-1.5-1-.12-2.48-.41-3.8 1.28.91.35 2.35.64 3.74M309.54 229c0 .34-.41.51-.64.81-.87.39-1.62-.3-2.49-.18.58-1.5 2-.29 3.13-.63M194 233c-1.73-.17-.46-2.18-.81-3.4l.06-.12c1.27.7.75 2.38.75 3.52M308.38 230.32c0 .41-.41.59-.58.86-1 .18-1.56-.39-2.55-.23.64-1.44 2-.75 3.13-.63M195.35 231.88v2.93c-1.56-.91-.52-2.36-.81-3.74.47 0 .52.52.81.81M307.28 231.59c-.29 1-1.16.63-2 .69l-1.1-.06c-.11-.28.53-.51.7-.86a11.39 11.39 0 012.43.23M196.51 235.73c-.4.06-.29-.39-.64-.51v-2.82c1.51.63.29 2.3.64 3.33M306.3 232.74a1.54 1.54 0 01-2 .81 6.64 6.64 0 00-1.45-.24c.87-1.42 2.26-.22 3.42-.57M197.78 237c-.4 0-.69-.4-.86-.69a13.8 13.8 0 00.23-2.6c1.33.7.29 2.13.63 3.29M305 234c0 .58-.52.8-.92 1l-2.49-.17c.52-1.73 2.08-.76 3.41-.86M199.23 238.33c-1.74-.4-.64-2.19-.93-3.45 1.68.52.64 2.42.93 3.45M303.63 235.4c-.75 1.89-2.31.39-3.47.51.64-1.49 2.37-.51 3.47-.51M200.79 239.54a1.68 1.68 0 01-1-.8v-2.6c1.27.63.52 2.37 1 3.4M302.13 236.66c.23.23-.29.69-.58.81-.93-.06-2-.17-2.72-.3.7-1.26 2.2-.62 3.3-.51M202.24 240.81c-1.79-.4-.93-2.54-1.16-3.51 1.68.46.75 2.36 1.16 3.51M301 237.93a1.47 1.47 0 01-1.79.58c-.47-.35-1.16 0-1.68-.3.75-1.2 2.37-.34 3.47-.28M203.92 242c-.52.06-.81-.64-1.16-.85a18.26 18.26 0 01-.11-2.6c1.44.8.81 2.19 1.27 3.45M299.64 239c-.4 1.15-1.5.69-2.26.51a2.12 2.12 0 00-1-.23c.7-1.49 2.32-.23 3.3-.28M298.19 240.07c0 .45-.52.51-.75.74l-2.26-.53c-.23-.33.35-.39.53-.74a18.19 18.19 0 012.48.53M205.48 243.18c-1.74-.36-1-2.37-1.33-3.52 1.5.75.87 2.36 1.33 3.52M296.92 241.21c-.81 1.44-2.2 0-3.3 0 .46-.75 1.45-.63 2.2-.51.29.34.81.17 1.1.51M207.33 244.44c-1.68-.46-1.39-2.25-1.73-3.51 1.85.29 1.27 2.3 1.73 3.51M295.59 242.14c-.81 1.32-2.08-.24-3.36.11.87-1.2 2.2-.29 3.36-.11M209.13 245.36c-.52.34-1-.47-1.28-.8l-.4-2.48c1.68.46 1.16 2.18 1.68 3.28M294.26 243a1.57 1.57 0 01-1 .92L291 243c.92-.92 2.14 0 3.24 0M210.28 244.22l.29 2.17c-.46.12-.69-.46-1-.69l-.52-2.52c.41.35 1.16.39 1.27 1M292.75 244.16c-.34 1-1.33.28-2 .06l-1-.53c1-1 2.14.23 3 .46M291.65 245c-.92 1.33-2.19-.11-3.24-.29.87-1.27 2.2.06 3.24.29M212.14 247.33c-.41-.18-1-.36-1.16-.93.17-.7-.29-1.39-.29-2.18 1.45.4 1.1 2.07 1.45 3.11M290.27 245.76c-.29.35-.81.93-1.34.53l-1.9-.93c1-1.1 2.19.3 3.24.4M213.7 248.36c-1.62-.35-1-2.31-1.45-3.29 1.56.41 1.27 2.2 1.45 3.29M288.93 246.64c-1 1.43-2.19-.53-3.24-.53a1.53 1.53 0 011.28-.41c.63.29 1.27.7 2 .94M215.38 249.11c-1.74 0-1-2.14-1.45-3 1.33.35 1.16 1.9 1.45 3M287.66 247.33c-.92 1.44-2.2-.3-3.3-.53 1.1-.51 2.2.06 3.3.53M216.94 249.85c-.29.24-.52-.23-.81-.23a12.94 12.94 0 01-.75-2.7c1.44.23 1 2 1.56 2.93M286.21 248.08c0 .28-.46.45-.75.51a9.17 9.17 0 01-2.37-.92c-.17-.34.23-.18.29-.4 1.1-.12 1.91.51 2.83.81M218.5 250.54c-.29.24-.52-.16-.81-.16a8.78 8.78 0 01-.87-2.71c1.39.29 1.28 1.83 1.68 2.87M284.88 248.87c-1.15 1.73-2.31-.46-3.47-.51.93-1 2.43.23 3.47.51M219.83 251.07c-.06.17-.29.11-.4.11a6.67 6.67 0 01-1.16-2.82c1.33.29 1.27 1.73 1.56 2.71M283.09 249.75a1.26 1.26 0 01-1.16.51l-2.08-1.15c.75-1 2.37.11 3.24.63M221.22 251.7c-1.45.12-1-1.9-1.39-2.71 1.1.41 1 1.79 1.39 2.71M281.53 250.44c-1 1.14-2.14-.35-3.24-.59-.06-.28.4-.28.63-.45 1.1-.18 1.68.81 2.61 1M222.55 252.33c-1.56 0-.81-1.89-1.44-2.71 1.15.47 1 1.79 1.44 2.71M224.35 252.86c-.35.22-.7-.13-1-.23a6.41 6.41 0 01-.92-2.6c1.5.23 1.33 1.89 2 2.83M280.08 251.07c-1.1 1.21-2.2-.41-3.36-.63.06-.29.47-.18.64-.41a9.17 9.17 0 012.72 1M278.63 251.82c-1.38 1.2-2.6-.24-3.76-.75 1.28-1.1 2.55.4 3.76.75M225.91 253.37c-1.56.4-1.27-1.73-1.91-2.59 1.27.11 1.39 1.67 1.91 2.59M227.65 254c-.24.35-.58-.23-.93-.23-.7-.69-.75-1.67-1.16-2.48 1.39.18 1.68 1.67 2.09 2.71M276.61 252.51c-1 .91-2 .17-3-.41l-.64-.4c.58-.12 1-.69 1.68-.29l2 1.1M229.67 254.58c-1.68.18-1.79-1.62-2.31-2.66 1.44.13 1.91 1.57 2.31 2.66M274.76 253.14c-1.22 1.32-2.38-.63-3.42-.92 1.1-.75 2.32.46 3.42.92M231.41 255a2.46 2.46 0 01-1-.22l-1.16-2.36c1.62-.17 1.56 1.67 2.2 2.58M273 253.66c-1.1 1.1-2.2-.64-3.3-.93 1.1-1.09 2.2.69 3.3.93M233.08 255.33c-.28.23-.8 0-1.15-.23L231 253c1.56-.23 1.39 1.56 2.08 2.37M271.4 254.18c-1.33 1.21-2.31-.81-3.53-1 1.39-.86 2.37.69 3.53 1M234.76 255.73a1.28 1.28 0 01-1.56-.92l-.52-1.44c1.45-.17 1.62 1.5 2.08 2.37M269.78 254.7c-.35.39-.93.11-1.39.22l-.17-.22-.12.11-1.79-1.26c.63-.53 1.5 0 2.2.34l1.27.81M267.87 255c0 .3-.52.3-.81.41-1-.17-1.68-1-2.49-1.55 1.16-.87 2 .63 3 1 .12 0 .23 0 .29.11M236.62 256.07v.18c-.47.41-.82-.18-1.22-.28l-1-2.2c1.27-.1 1.85 1.39 2.26 2.3M238.18 256.07v.52c-1.51 0-1.56-1.78-2.09-2.59 1.34-.17 1.51 1.27 2.09 2.07M266 255.62c-1.33.86-2.09-1-3.13-1.44 1.16-.69 2.38.69 3.13 1.44M264.34 255.84c-.41.64-.81.06-1.33.23l-1.8-1.67c1.28-.68 2.2.76 3.13 1.44M240.09 256.77c-1.51.35-1.57-1.38-2.2-2.25l.11-.22c1.33.1 1.51 1.6 2.09 2.47M262.49 256.25c-.52.46-1 0-1.56 0l-1.57-1.55c.35-.35.7-.23 1.1-.12a4.42 4.42 0 012 1.67M241.82 256.77v.23c-1.5.34-1.67-1.44-2.37-2.42 1.33-.12 1.85 1.32 2.37 2.19M260.58 256.66c-1.22.74-2-1-2.78-1.63.29-.57.87-.1 1.33 0a6.65 6.65 0 011.45 1.63M243.79 257c-.35.46-1-.12-1.45-.22-.4-.65-.75-1.34-1.21-2 1.45-.23 1.91 1.32 2.66 2.19M245.47 257.18c-1.39.51-1.74-1.34-2.49-2.09 1.27-.74 1.68 1.28 2.49 1.91v.18M258.9 256.77c-.69.17-1.22.23-1.74-.4l-1-1.27c.12-.34.7-.11 1-.17l1.74 1.85M257.05 257c-.29.12-.81.23-1-.12l-1.45-1.67c1.16-.69 1.68.92 2.49 1.57v.22M247 257.29c-1.33.11-1.73-1.39-2.37-2.2 1.39-.22 1.79 1.39 2.37 2.2M255.6 257c-.4.4-.92.06-1.39.12-.29-.64-1.56-1.32-1.1-2 1.22-.07 1.68 1.15 2.49 1.9M248.71 257.29c-1.27.52-1.74-1.16-2.37-1.85v-.23c1.27-.22 1.73 1.45 2.37 2.08M250.28 257.18c-.18.51-.7 0-1.05 0a6.29 6.29 0 01-1.33-2c1.33-.28 1.74 1.22 2.38 2M252.25 257.18c-1.51.8-1.91-1.05-2.73-1.74.24-.45.76 0 1.16 0 .47.63 1.1 1.16 1.57 1.74M253.81 257.12c-.29.45-.64-.12-1 .06-.58-.58-1.39-1.28-1.45-2 1.27-.28 1.68 1.27 2.49 1.91" fill="#f1ad02"/><path d="M223.59 186.5h3.28l52.08-.17c0-1.37.1-2.84 0-4.15 0 .05.09 0 .14-.11 0-.53-.61-.55-1-.74-.06 0-.2.06-.26-.09-.14.11 0 .3-.08.45-.48-1.3-2.15-.26-3-.67-1.35-1-2.79-.18-4.17-.72-.4-.33-.88 0-1.37-.2-2.08-2.06-4.36.56-6.54-.29-1.11.19-2.19-1.28-3.53-.54a4.81 4.81 0 01-3.06.25 1.36 1.36 0 01-.18-1c.1.05.1 0 .14 0v-.29c1.61-.11 3.48-.76 5.25-.34a6.88 6.88 0 012.63-.1c2.25.26 5-.66 7.33.76 1.71 0 3-.41 4.54.16.22-.63.87-.17 1.25-.48 1.7-.26 3.38-.86 4.82-.08.76.75 2.48-.23 3 1.21.52.85-.57 1.77.33 2.47.35 1.55.22 3.11.71 4.5 11.7.2 23.12.81 35.1.55.42 0 2.9.11 3.35.18 0 0 .07-1.12.15-2.58s0-2.67 0-2.67c-2.83-.13-6.82-.6-9.43-.22l-.21-.18c.18-.44.58-.27.87-.28 0 .3-.05 0 .1.15.2 0 .09-.21.29-.26a58.34 58.34 0 018.36.43c.06-4.92.7-7.15-.49-11.64-.2-.45-7.32-2.16-10.22-3.29-1.06.49-10.83 6.1-13.62 7-1.88.62 5.68-2.31 4.73-2.45-1.81-1.11-1.19-1.14-4.16-.37-4.75.65-9.3 2.78-14.11 3.14-.15-.08-1.07.64-.76.11a42.72 42.72 0 006.15-1.25c-3.15-1-7.56-1.69-10.72-3-4.4-1.6-8.66-4.46-13.38-6.93-3.86-.68-5.26-1.28-10.47-4.17-3.84.43-6.73 2.72-10.39 3.78-3.18 1-5.56 3.91-8.74 4.91s-6.54 2.46-9.82 3.37a40.46 40.46 0 004.21 1.48c3.05.76 7 .42 9.65.42 5.89-.08 11.27 0 16.75 2a21.18 21.18 0 013.45 1.05c.05.13-.81-.17-.95 0-2.37-.65-3.66-1.1-6-1.75-3.9-1.32-9.28-1.15-13.62-1.14l-1.11.14c-2.78.11-4.08-.44-6.71-.34-4.37-1.05-8.76-3.23-13.63-3-.79-.31-2 0-3-.13a15.88 15.88 0 01-8.08-1.12c-.11-.09-.45-.17-.44.12l-.2-.29c-1.39-.53-8.82-2.76-10.26-3.19-3.36 1.48-2.72 1.44-6.68 2.36-4.57 1.53-11 2.46-15.45 4.38a65.6 65.6 0 00-1.13 10.28c1.92-.9 5.78.36 7.49.63a71.16 71.16 0 0112.65.61c2.68 1.36 5.91 3 8.81 1.08a21.8 21.8 0 014-.19l4.1.6 2.69.52c.2 0 .48.05.76.1.54.09 2.76.79 3.12.88a11.09 11.09 0 001.75 0" stroke="#000" stroke-width=".63" fill="url(#e)"/><path d="M216.65 189.8v.12l.12.13h.23l1.12-1.12h.49l.25.13.12.12v.12l.13.13v.12l.12.12v.5l-.12.12v.25l-.13.12v.13l-.12.24v.13l-.12.12v.12l-.25.25-.25.5-.12.37-.12.24v.13l-.13.12v.25h.13v.12h.12l.37-.37v-.12l.12-.13v-.24l.13-.13V192l.24-.24v-.13l.13-.12h.12v-.12h.37l.13.12h.12v.12h.15l.13.13v.12h.12v.25l.12.12v.37l.13.12v.38l.12.12v.25l.25.24v.13l.12.12h.12l.13.12h.62l.14-.1-.12-.12v-.13h-.13l-.12-.12h-.12v-.12l-.13-.13h-.12v-.12l-.12-.12v-.25l-.13-.13v-1l.13-.24h.24l.13-.13H223l.24-.12h.25l.74-.37h.25l.25-.12h.37l.12.12h.37l.12.12h.13l.12.13h.13l.12.12h.12v.12l.13.13h.12l.12.12h.13l.24.25h.13l.12.12v.13h.37l.12.12h.37l.13.12h.37v.13h.12l.13.12h.07v.12l.12.13v.24l-.12.25-.12.12h-.13v.13h-.37v.12h-.49l-.13-.12h-.62v-.13h-.25l-.12.13h-.37l-.12.12h-.25l-.12.12h-.13l-.37-.12h-1.24l-.12.12v.37l.12.13h1.12l.62.12h.25v.13l.12.12v.5l-.12.24v.5l.12.12v1.37h.62v-.13h.1l.13-.12v-.12l.12-.13v-.24l.12-.13v-.12l.13-.12h.12v-.13h.87l.24.25v.12h.13v.13l.12.12v.16l.25.25v.12l.12.13v.5l-.12.13v.12l-.37.37h-.13l-.37.37-.12.25-.12.12v.5l-.13.24v.38h.13v.12h.12l.25-.25.12-.25v-.12l.12-.25v-.12l.25-.25h.12l.13-.12h.25l.12.12h.12l.13.13.12.24v.13l.12.24v.38l-.12.12v.25l-.12.12v.25l-.25.24v.25l-.25.25v.24l-.12.13v.12l-.13.13v.24l.25.25.13-.12h.12l.12-.13v-.12h.13l1.36-2.73v-.37h.25v-.13h.74l.12.13h.38v-.13h.3l.25-.24.25-.13h.12l.37-.12h.37l.25-.12h.62l.86.86v.37H236v.25h-.12v.25l-.13.12v.13h-.12v.12l-.12.12.12.25v.12l.12.13h.13l.37-.37v-.37l.12-.13v-.37l.12-.12v-.13l.25-.24h.13l.12-.13h1.36l.13.13h.24l.25.24.25.13.62.62.12.24v.13l.13.25.37.37h.24l.13-.13h.12v-.12l-.12-.25-.5-.49-.12-.5-.37-.5-.25-.24-.12-.25v-.37l-.25-.25h-.74l-.25-.12h-.25l-.12-.13v-.12l-.13-.12v-.75l.13-.24.25-.13h.12l.12-.12h.25l.12.12h.28l.25.13h.25l.12.12h.25l.12.12h.25l.49.5.13.25.12.12.12.25v.12h.13l.12.12h.13v-.12h.12v-.49l-.12-.25-.13-.13v-.12l-.12-.12-.25-.13-.37-.37-.25-.12-.12-.12-.25-.13h-.12l-.25-.12h-.12l-.25-.12h-.12l-.12-.13h-.38l-.12-.12h-.12l-.13.12h-.74l-.12-.12h-.13l-.37-.37v-.13h-.12l-.25-.24v-.13l-.24-.24V195h-.13l-.12-.12v-.12l-.25-.25h-.12l-.5-.5h-.37l-.12-.12h-.87l-.12-.12h-.37l-.5-.5v-.12l-.12-.13v-.37l.12-.12v-.25l-.25-.74v-.37l-.12-.25-.25-.25h-.49l-.37.37v.13l-.13.12v.13l-.12.12v.37l-.12.25v.74l.12.12v.25l-.12.25-.13.12h-.12l-.37.12h-.74l-.25-.24v-.13l.12-.12v-.5l-.12-.24-1.12-1.12h-.12v-.12l-.12-.13V191l-.13-.25v-.24l.13-.25v-.12l.12-.25.12-.12v-.13l-.12-.24v-.5l.12-.12v-.13h.13v-.12h.63l.12.12h.25v.13h.12l.5.49.24.5.13.12h.12l.12.12v-.12h.13l.12-.12-.12-.13v-.12l-.25-.5-.74-.74h-.13l-.12-.12h-.25l-.12-.13H229l-.25-.12h-.37l-.25-.12h-.62l-.25-.13h-.62l-.12-.12h-.87l-.24.12h-.25l-.12.13h-.62l-.87-.13h-.25v-.12l-.12-.12v-.25l.12-1.37v-.24l-.12-.25-.12-.12-.06-.19v-.5l.5-.49v-.25l-.12-.25-.13-.12v-.25l-.12-.24v-.25h-.62l-.25.12h-.12l-.13.13h-.12v.1h-.12v.25l-.13.12v.5l-.12.24v.62l.25.25.12.25.12.12v.25l-.12.12h-.74l-.25-.12h-.25l-.12-.13h-.25l-.49-.24h-.25L219 185h-.12l-.25-.12h-.12l-.12-.13h-.13l-.24-.24-.25-.13-.37-.12-.25-.25h-.25l-.12.13h-.12v.24h.12v.13l.12.12.5.25 1.74.74.74.25.25.12h.37l.24.12.37.13.25.12h.13v.37l-.5.5h-.12l-.13.12h-.12l-.13-.12h-.24l-.13-.13H220l-.12-.12h-.13l-.24-.12-.13-.13h-.12l-.12-.12H219l-.24-.25-.25-.12h-.25l-.25-.12-.12-.13-.49-.24h-.25l-.13.12h-.49l-.12-.12-.25-.13h-.37l-.13.25v.13l.13.25.12.12.12.25.13.12v1.49l.12.37v.25l.37 1" fill="#583b19" stroke="#000" stroke-width=".32"/></svg>