<svg xmlns="http://www.w3.org/2000/svg" width="286" height="304.92"><path d="M224 153.62c-1.91-16.15.21-25.94 4.57-32.11.23-.56.53-1.08.81-1.61-19.44 4.32-35.47 3.32-67.73-3-38.44-7.65-56.37-5.1-83.26 1.24-24.11 5.69-32.85 7.27-62.09 5.72 5.14 7.09 9.44 16.38 8.71 27.24-1.49 22.15-10.77 34-22.19 38.32a17.1 17.1 0 015.29 1.47c38.61 4 46.45 1.38 71.56-4.27 28.18-6.34 55.09-3.83 87.1 1.26 29.43 4.66 37.24 9.31 77.05-2.75-6.82-3.67-17.54-12.25-19.82-31.51z" fill="none" stroke="#000" stroke-linecap="round" stroke-width="2"/></svg>