<svg xmlns="http://www.w3.org/2000/svg" xmlns:xlink="http://www.w3.org/1999/xlink" width="600" height="322" viewBox="0 0 600 322"><defs><clipPath id="a"><rect x="63.05" y="2.3" width="233.51" height="133.6" fill="#fff" stroke="#50d6cc" stroke-linecap="round" stroke-linejoin="round"/></clipPath></defs><title>flag-hawaii-dimensions</title><rect x="63.05" y="2.3" width="534.41" height="267.2" fill="#fff" stroke="#50d6cc" stroke-linecap="round" stroke-linejoin="round"/><rect x="63.05" y="35.41" width="534.41" height="33.44" fill="#fff" stroke="#50d6cc" stroke-linecap="round" stroke-linejoin="round"/><rect x="63.05" y="68.85" width="534.41" height="33.44" fill="#fff" stroke="#50d6cc" stroke-linecap="round" stroke-linejoin="round"/><rect x="63.05" y="135.74" width="534.41" height="33.44" fill="#fff" stroke="#50d6cc" stroke-linecap="round" stroke-linejoin="round"/><rect x="63.05" y="169.18" width="534.41" height="33.44" fill="#fff" stroke="#50d6cc" stroke-linecap="round" stroke-linejoin="round"/><rect x="63.05" y="236.06" width="534.41" height="33.44" fill="#fff" stroke="#50d6cc" stroke-linecap="round" stroke-linejoin="round"/><rect x="63.05" y="2.3" width="233.51" height="133.6" fill="#fff"/><g clip-path="url(#a)"><rect x="63.05" y="2.3" width="233.51" height="133.6" fill="#fff" stroke="#50d6cc" stroke-linecap="round" stroke-linejoin="round"/><polygon points="303.42 -1.61 276.07 -1.61 202.04 40.72 202.04 -1.74 157.57 -1.74 157.57 41.3 86.83 0.86 60.5 0.86 60.5 16.59 113.8 47.06 53.51 47.06 53.51 56.03 129.49 56.03 152.38 69.11 128.52 82.76 53.51 82.76 53.51 91.73 112.83 91.73 59.73 122.09 59.73 137.81 86.06 137.81 157.57 96.93 157.57 145.75 202.04 145.75 202.04 97.5 274.95 139.18 302.3 139.18 302.3 124.04 245.78 91.73 301.36 91.73 301.36 82.76 230.09 82.76 206.22 69.11 229.1 56.03 301.36 56.03 301.36 47.06 244.78 47.06 303.42 13.54 303.42 -1.61" fill="#fff" stroke="#50d6cc" stroke-linecap="round" stroke-linejoin="round"/><polygon points="218.79 47.06 298.72 1.36 281.54 1.07 201.1 47.06 218.79 47.06" fill="#fff" stroke="#50d6cc" stroke-linecap="round" stroke-linejoin="round"/><polygon points="140.75 47.06 59.66 0.69 59.66 10.81 123.06 47.06 140.75 47.06" fill="#fff" stroke="#50d6cc" stroke-linecap="round" stroke-linejoin="round"/><polygon points="140.65 91.73 61.36 137.05 79.05 137.05 158.34 91.73 140.65 91.73" fill="#fff" stroke="#50d6cc" stroke-linecap="round" stroke-linejoin="round"/><polygon points="301.36 56.03 193.15 56.03 193.15 -1.74 166.45 -1.74 166.45 56.03 53.51 56.03 53.51 82.76 166.45 82.76 166.45 145.75 193.15 145.75 193.15 82.76 301.36 82.76 301.36 56.03" fill="#fff" stroke="#50d6cc" stroke-linecap="round" stroke-linejoin="round"/><polygon points="236.65 91.73 218.95 91.73 302.01 139.18 302.38 129.28 236.65 91.73" fill="#fff" stroke="#50d6cc" stroke-linecap="round" stroke-linejoin="round"/></g><rect x="63.05" y="2.3" width="233.51" height="133.6" fill="none" stroke="#50d6cc" stroke-linecap="round" stroke-linejoin="round"/><line x1="3.63" y1="155.24" x2="3.63" y2="157.74" fill="none" stroke="#a3a3a3" stroke-linecap="round" stroke-linejoin="round"/><line x1="3.63" y1="162.98" x2="3.63" y2="254.78" fill="none" stroke="#a3a3a3" stroke-linecap="round" stroke-linejoin="round" stroke-dasharray="5.25 5.25"/><polyline points="3.63 257.4 3.63 259.9 6.13 259.9" fill="none" stroke="#a3a3a3" stroke-linecap="round" stroke-linejoin="round"/><line x1="11.39" y1="259.9" x2="50.83" y2="259.9" fill="none" stroke="#a3a3a3" stroke-linecap="round" stroke-linejoin="round" stroke-dasharray="5.26 5.26"/><line x1="53.46" y1="259.9" x2="55.96" y2="259.9" fill="none" stroke="#a3a3a3" stroke-linecap="round" stroke-linejoin="round"/><line x1="55.96" y1="2.3" x2="53.46" y2="2.3" fill="none" stroke="#a3a3a3" stroke-linecap="round" stroke-linejoin="round"/><line x1="48.2" y1="2.3" x2="8.76" y2="2.3" fill="none" stroke="#a3a3a3" stroke-linecap="round" stroke-linejoin="round" stroke-dasharray="5.26 5.26"/><polyline points="6.13 2.3 3.63 2.3 3.63 4.8" fill="none" stroke="#a3a3a3" stroke-linecap="round" stroke-linejoin="round"/><line x1="3.63" y1="9.68" x2="3.63" y2="114.56" fill="none" stroke="#a3a3a3" stroke-linecap="round" stroke-linejoin="round" stroke-dasharray="4.88 4.88"/><line x1="3.63" y1="117" x2="3.63" y2="119.5" fill="none" stroke="#a3a3a3" stroke-linecap="round" stroke-linejoin="round"/><line x1="345.32" y1="314.41" x2="347.82" y2="314.41" fill="none" stroke="#a3a3a3" stroke-linecap="round" stroke-linejoin="round"/><line x1="352.85" y1="314.41" x2="591.82" y2="314.41" fill="none" stroke="#a3a3a3" stroke-linecap="round" stroke-linejoin="round" stroke-dasharray="5.03 5.03"/><polyline points="594.34 314.41 596.84 314.41 596.84 311.91" fill="none" stroke="#a3a3a3" stroke-linecap="round" stroke-linejoin="round"/><line x1="596.84" y1="307.46" x2="596.84" y2="282.98" fill="none" stroke="#a3a3a3" stroke-linecap="round" stroke-linejoin="round" stroke-dasharray="4.45 4.45"/><line x1="596.84" y1="280.76" x2="596.84" y2="278.26" fill="none" stroke="#a3a3a3" stroke-linecap="round" stroke-linejoin="round"/><line x1="63.05" y1="278.26" x2="63.05" y2="280.76" fill="none" stroke="#a3a3a3" stroke-linecap="round" stroke-linejoin="round"/><line x1="63.05" y1="285.21" x2="63.05" y2="309.68" fill="none" stroke="#a3a3a3" stroke-linecap="round" stroke-linejoin="round" stroke-dasharray="4.45 4.45"/><polyline points="63.05 311.91 63.05 314.41 65.55 314.41" fill="none" stroke="#a3a3a3" stroke-linecap="round" stroke-linejoin="round"/><line x1="70.57" y1="314.41" x2="309.08" y2="314.41" fill="none" stroke="#a3a3a3" stroke-linecap="round" stroke-linejoin="round" stroke-dasharray="5.02 5.02"/><line x1="311.6" y1="314.41" x2="314.1" y2="314.41" fill="none" stroke="#a3a3a3" stroke-linecap="round" stroke-linejoin="round"/><path d="M5.29,142.2H4.11v-9.14L2,133.69,1.7,133l2.77-1.45h.82Z"/><line x1="30.95" y1="88.61" x2="30.95" y2="91.11" fill="none" stroke="#a3a3a3" stroke-linecap="round" stroke-linejoin="round"/><line x1="30.95" y1="95.79" x2="30.95" y2="130.9" fill="none" stroke="#a3a3a3" stroke-linecap="round" stroke-linejoin="round" stroke-dasharray="4.68 4.68"/><polyline points="30.95 133.24 30.95 135.74 33.45 135.74" fill="none" stroke="#a3a3a3" stroke-linecap="round" stroke-linejoin="round"/><line x1="37.45" y1="135.74" x2="51.46" y2="135.74" fill="none" stroke="#a3a3a3" stroke-linecap="round" stroke-linejoin="round" stroke-dasharray="4 4"/><line x1="53.46" y1="135.74" x2="55.96" y2="135.74" fill="none" stroke="#a3a3a3" stroke-linecap="round" stroke-linejoin="round"/><line x1="30.95" y1="2.3" x2="30.95" y2="4.8" fill="none" stroke="#a3a3a3" stroke-linecap="round" stroke-linejoin="round"/><line x1="30.95" y1="9.5" x2="30.95" y2="44.75" fill="none" stroke="#a3a3a3" stroke-linecap="round" stroke-linejoin="round" stroke-dasharray="4.7 4.7"/><line x1="30.95" y1="47.1" x2="30.95" y2="49.6" fill="none" stroke="#a3a3a3" stroke-linecap="round" stroke-linejoin="round"/><path d="M26.51,74.5a1,1,0,1,1,1-1A1,1,0,0,1,26.51,74.5Z"/><path d="M38.12,63.72v1.07H33.75l-.16,3a3.79,3.79,0,0,1,1.73-.41A3.19,3.19,0,0,1,38.52,71a3.25,3.25,0,0,1-3.35,3.54A3.75,3.75,0,0,1,32,72.87l1.05-.79c.15.1.06.27.13.4a2.56,2.56,0,0,0,1.94,1,2.56,2.56,0,0,0,0-5,2.55,2.55,0,0,0-2,1l-.76-.31.36-5.38Z"/><path d="M330.29,308.85a3,3,0,0,1,3.07,3,4.79,4.79,0,0,1-1.86,3.34,14,14,0,0,0-2.89,3.31h4.45a.26.26,0,0,0,.18-.07s.12-.12.23-.08v1.19h-6.22v-.75a12.64,12.64,0,0,1,3.08-3.94c.77-.69,1.85-1.62,1.85-2.91a2,2,0,0,0-2-2,2.2,2.2,0,0,0-1.81,1c-.09.14,0,.24-.15.39l-.87-.69A3.47,3.47,0,0,1,330.29,308.85Z"/><line x1="207.57" y1="290.22" x2="210.07" y2="290.22" fill="none" stroke="#a3a3a3" stroke-linecap="round" stroke-linejoin="round"/><line x1="215.01" y1="290.22" x2="291.59" y2="290.22" fill="none" stroke="#a3a3a3" stroke-linecap="round" stroke-linejoin="round" stroke-dasharray="4.94 4.94"/><polyline points="294.06 290.22 296.56 290.22 296.56 287.72" fill="none" stroke="#a3a3a3" stroke-linecap="round" stroke-linejoin="round"/><line x1="296.56" y1="282.57" x2="296.56" y2="140.98" fill="none" stroke="#a3a3a3" stroke-linecap="round" stroke-linejoin="round" stroke-dasharray="5.15 5.15"/><line x1="296.56" y1="138.41" x2="296.56" y2="135.91" fill="none" stroke="#a3a3a3" stroke-linecap="round" stroke-linejoin="round"/><line x1="63.05" y1="290.22" x2="65.55" y2="290.22" fill="none" stroke="#a3a3a3" stroke-linecap="round" stroke-linejoin="round"/><line x1="70.56" y1="290.22" x2="148.19" y2="290.22" fill="none" stroke="#a3a3a3" stroke-linecap="round" stroke-linejoin="round" stroke-dasharray="5.01 5.01"/><line x1="150.69" y1="290.22" x2="153.19" y2="290.22" fill="none" stroke="#a3a3a3" stroke-linecap="round" stroke-linejoin="round"/><path d="M166.86,295.52a1,1,0,1,1,0-1.95,1,1,0,1,1,0,1.95Z"/><path d="M178.45,287.12a3,3,0,0,1-1.69,2.55,3.34,3.34,0,0,1,2.05,2.93,3.06,3.06,0,0,1-3.26,2.91,3,3,0,0,1-3.22-2.84,3.44,3.44,0,0,1,2.12-3,2.85,2.85,0,0,1-1.62-2.48,2.73,2.73,0,0,1,2.87-2.61A2.61,2.61,0,0,1,178.45,287.12Zm-4.9,5.39a2,2,0,0,0,2,1.93,1.91,1.91,0,0,0,2-1.85,2.82,2.82,0,0,0-2.26-2.41A2.71,2.71,0,0,0,173.55,292.51Zm.43-5.39c0,1.4,1.86,2.12,1.86,2.12a2.51,2.51,0,0,0,1.45-2.05,1.62,1.62,0,0,0-1.69-1.58A1.55,1.55,0,0,0,174,287.12Z"/><path d="M187.14,284.74v.66c-.71,1.64-1.39,3.3-2,5s-1.17,3.29-1.69,5h-1.33q.94-2.85,2-5.66c.5-1.27,1-2.54,1.55-3.8h-4.54v-1.13Z"/><path d="M195.48,284.74v1.07h-4.37l-.16,3.05a3.92,3.92,0,0,1,1.72-.41,3.2,3.2,0,0,1,3.21,3.53,3.26,3.26,0,0,1-3.35,3.54,3.78,3.78,0,0,1-3.14-1.62l1.06-.8c.14.11.06.27.13.4a2.51,2.51,0,0,0,1.94,1,2.56,2.56,0,0,0,0-5.05,2.59,2.59,0,0,0-2,1l-.77-.31.37-5.38Z"/></svg>