<svg xmlns="http://www.w3.org/2000/svg" width="600" height="446.82" viewBox="0 0 600 446.82"><path fill="#fff" stroke="#50d6cc" stroke-linecap="round" stroke-linejoin="round" d="M27.6 3.1h570.34v402.78H27.6z"/><path fill="#fff" stroke="#50d6cc" stroke-linecap="round" stroke-linejoin="round" stroke-width=".92" d="M501.64 78.88l12.31-8.94h-15.22l-4.7-14.47-4.71 14.47h-15.21l12.31 8.94-4.7 14.47 12.31-8.94 12.31 8.94-4.7-14.47zM122.64 158.75l-2.8-8.63-2.8 8.63h-9.07l7.34 5.33-2.81 8.63 7.34-5.33 7.34 5.33-2.8-8.63 7.34-5.33h-9.08zM189.91 183.72l-2.8-8.63-2.81 8.63h-9.07l7.34 5.33-2.8 8.63 7.34-5.33 7.33 5.33-2.8-8.63 7.34-5.33h-9.07zM223.34 219.57l-2.8-8.63-2.81 8.63h-9.07l7.34 5.33-2.8 8.63 7.34-5.34 7.34 5.34-2.81-8.63 7.34-5.33h-9.07zM254.37 248.4l-2.8 8.63h-9.07l7.34 5.33-2.81 8.63 7.34-5.34 7.34 5.34-2.8-8.63 7.34-5.33h-9.08l-2.8-8.63zM359.6 298.21l7.34-5.34h-9.07l-2.8-8.62-2.81 8.62h-9.07l7.34 5.34-2.8 8.62 7.34-5.33 7.34 5.33-2.81-8.62zM252.74 309.79l-2.8-8.63-2.8 8.63h-9.08l7.34 5.33-2.8 8.63 7.34-5.33 7.34 5.33-2.8-8.63 7.33-5.33h-9.07zM328.47 334.76l-2.81-8.62-2.8 8.62h-9.07l7.34 5.34-2.81 8.62 7.34-5.33 7.34 5.33-2.8-8.62 7.34-5.34h-9.07z"/><path fill="none" stroke="#a3a3a3" stroke-linecap="round" stroke-linejoin="round" d="M4.72 230.18v2.5"/><path fill="none" stroke="#a3a3a3" stroke-linecap="round" stroke-linejoin="round" stroke-dasharray="4.88 4.88" d="M4.72 237.56v163.39"/><path fill="none" stroke="#a3a3a3" stroke-linecap="round" stroke-linejoin="round" d="M4.72 403.39v2.5h2.5"/><path fill="none" stroke="#a3a3a3" stroke-linecap="round" stroke-linejoin="round" stroke-dasharray="3.69 3.69" d="M10.92 405.89h5.54"/><path fill="none" stroke="#a3a3a3" stroke-linecap="round" stroke-linejoin="round" d="M18.3 405.89h2.5M20.8 3.1h-2.5"/><path fill="none" stroke="#a3a3a3" stroke-linecap="round" stroke-linejoin="round" stroke-dasharray="3.69 3.69" d="M14.61 3.1H9.07"/><path fill="none" stroke="#a3a3a3" stroke-linecap="round" stroke-linejoin="round" d="M7.22 3.1h-2.5v2.5"/><path fill="none" stroke="#a3a3a3" stroke-linecap="round" stroke-linejoin="round" stroke-dasharray="5.06 5.06" d="M4.72 10.66v179.66"/><path fill="none" stroke="#a3a3a3" stroke-linecap="round" stroke-linejoin="round" d="M4.72 192.85v2.5M344.91 432.81h2.5"/><path fill="none" stroke="#a3a3a3" stroke-linecap="round" stroke-linejoin="round" stroke-dasharray="5.06 5.06" d="M352.48 432.81h240.43"/><path fill="none" stroke="#a3a3a3" stroke-linecap="round" stroke-linejoin="round" d="M595.45 432.81h2.5v-2.5"/><path fill="none" stroke="#a3a3a3" stroke-linecap="round" stroke-linejoin="round" stroke-dasharray="4.86 4.86" d="M597.95 425.46v-7.29"/><path fill="none" stroke="#a3a3a3" stroke-linecap="round" stroke-linejoin="round" d="M597.95 415.74v-2.5M27.84 413.24v2.5"/><path fill="none" stroke="#a3a3a3" stroke-linecap="round" stroke-linejoin="round" stroke-dasharray="4.86 4.86" d="M27.84 420.6v7.28"/><path fill="none" stroke="#a3a3a3" stroke-linecap="round" stroke-linejoin="round" d="M27.84 430.31v2.5h2.5"/><path fill="none" stroke="#a3a3a3" stroke-linecap="round" stroke-linejoin="round" stroke-dasharray="5.06 5.06" d="M35.4 432.81h240.21"/><path fill="none" stroke="#a3a3a3" stroke-linecap="round" stroke-linejoin="round" d="M278.13 432.81h2.5"/><path d="M5.56 218.33H4.38v-9.14l-2.13.63-.25-.66 2.77-1.45h.82zM295.41 437.94h-1.18v-9.14l-2.13.63-.28-.66 2.77-1.45h.82zM302.88 438.11a1 1 0 111-1 1 1 0 01-1 1zM313.65 427.32V434H315v1h-1.36v2.92h-1.24V435h-4.26v-.88l4.5-6.79zm-4.33 6.68h3.11v-4.74zM320.91 437.94h-1.18v-9.14l-2.13.63-.28-.66 2.77-1.45h.82zM331.53 428.18l-.83.91c-.15-.11-.15-.27-.25-.38a1.9 1.9 0 00-1.24-.44c-.76 0-2.5.47-2.57 4.09a2.61 2.61 0 012.25-1.28c1.49 0 2.9 1.27 2.9 3.47s-1.41 3.55-3 3.55a3 3 0 01-2.5-1.41 6.49 6.49 0 01-.8-3.59 10.15 10.15 0 01.45-3.26 3.53 3.53 0 013.28-2.63 3.36 3.36 0 012.31.97zm-4.83 5.37c-.14 2 .83 3.49 2.12 3.49.9 0 1.81-.77 1.81-2.43 0-1.82-1-2.48-1.85-2.48a2.52 2.52 0 00-2.08 1.42z"/><path fill="none" stroke="#a3a3a3" stroke-linecap="round" stroke-linejoin="round" stroke-dasharray="5 5" d="M87.6 162.72h32.24v195.81M27.84 162.72h25.35M119.84 383.28v22.61"/><path d="M110.35 375a.72.72 0 11.74-.72.73.73 0 01-.74.72zM118.89 367.69l-.6.67c-.11-.08-.11-.2-.19-.28a1.35 1.35 0 00-.9-.33c-.56 0-1.84.35-1.89 3a1.91 1.91 0 011.65-.94 2.29 2.29 0 012.13 2.55 2.35 2.35 0 01-2.22 2.59 2.18 2.18 0 01-1.83-1 4.73 4.73 0 01-.59-2.63 7.54 7.54 0 01.33-2.39 2.59 2.59 0 012.41-1.93 2.43 2.43 0 011.7.69zm-3.54 3.94c-.1 1.45.61 2.56 1.56 2.56.66 0 1.33-.56 1.33-1.78s-.74-1.82-1.36-1.82a1.85 1.85 0 00-1.53 1.04zM125.45 371.08c0 2.67-1.33 3.9-2.46 3.9s-2.52-1.45-2.52-4 1.27-4 2.5-4 2.48 1.45 2.48 4.1zm-2.49-3.3c-.77 0-1.68 1.1-1.68 3.08a5.94 5.94 0 00.17 1.47l2.74-3.54c-.34-.69-.8-1.01-1.19-1.01zm-1.22 5.34c.34.68.82 1.06 1.28 1.06.68 0 1.62-.82 1.62-3a7.06 7.06 0 00-.16-1.56zM130.71 367.06v4.86h1v.77h-1v2.15h-.91v-2.16h-3.13V372l3.31-5zm-3.18 4.86h2.29v-3.48zM60 166.52a.73.73 0 01-.74-.71.73.73 0 01.74-.72.73.73 0 01.73.72.72.72 0 01-.73.71zM66.37 158.56a2.2 2.2 0 012.25 2.18 3.48 3.48 0 01-1.37 2.45 10.52 10.52 0 00-2.11 2.43h3.26a.18.18 0 00.13-.05s.09-.09.17-.06v.87h-4.56v-.55a9.33 9.33 0 012.25-2.89 3.1 3.1 0 001.36-2.13 1.47 1.47 0 00-1.49-1.48 1.62 1.62 0 00-1.33.71c-.06.1 0 .18-.1.29l-.64-.51a2.54 2.54 0 012.18-1.26zM72.6 158.56a2.2 2.2 0 012.25 2.18 3.48 3.48 0 01-1.37 2.45 10.52 10.52 0 00-2.11 2.43h3.26a.18.18 0 00.13-.05s.09-.09.17-.06v.87h-4.56v-.55a9.33 9.33 0 012.25-2.89 3.11 3.11 0 001.38-2.13 1.47 1.47 0 00-1.5-1.48 1.58 1.58 0 00-1.32.71c-.07.1 0 .18-.11.29l-.64-.51a2.54 2.54 0 012.17-1.26zM76.67 165.8l.61-.67c.13.09.09.22.2.3a1.58 1.58 0 00.93.29 1.64 1.64 0 001.59-1.07 5.3 5.3 0 00.32-1.92 2 2 0 01-1.61.83 2.25 2.25 0 01-2.13-2.45 2.38 2.38 0 012.23-2.57 2.26 2.26 0 012.11 1.69 6.8 6.8 0 01.26 2.17 6.24 6.24 0 01-.33 2.3 2.58 2.58 0 01-2.41 1.81 2.43 2.43 0 01-1.77-.71zm3.55-4c.14-1.56-.6-2.54-1.48-2.54-.71 0-1.36.64-1.36 1.77s.68 1.72 1.37 1.72a1.79 1.79 0 001.47-.9z"/><path fill="none" stroke="#a3a3a3" stroke-linecap="round" stroke-linejoin="round" stroke-dasharray="5 5" d="M87.6 187.12h99.51v171.41M27.84 187.11h25.35"/><path d="M60 191.83a.73.73 0 01-.74-.71.73.73 0 01.74-.72.73.73 0 01.73.72.72.72 0 01-.73.71zM67.18 187.55a2.09 2.09 0 011.34 2 2.27 2.27 0 01-2.4 2.27 2.73 2.73 0 01-2-.89l.66-.78c.11.11.06.23.16.35a1.7 1.7 0 001.22.53 1.56 1.56 0 001.56-1.59c0-.92-.77-1.47-1.82-1.47h-.4v-.7a3 3 0 001.23-.19 1.36 1.36 0 00.83-1.22 1.26 1.26 0 00-1.35-1.21 1.84 1.84 0 00-1.34.59l-.49-.54a2.56 2.56 0 011.87-.83 2 2 0 012.13 2 1.78 1.78 0 01-1.2 1.68zM70.44 191.11l.61-.66c.13.08.09.21.2.3a1.7 1.7 0 00.93.28 1.64 1.64 0 001.54-1.03 5.3 5.3 0 00.28-2 2 2 0 01-1.61.84 2.26 2.26 0 01-2.13-2.46 2.38 2.38 0 012.23-2.57 2.26 2.26 0 012.11 1.69 6.8 6.8 0 01.26 2.17 6.3 6.3 0 01-.33 2.31 2.59 2.59 0 01-2.41 1.81 2.44 2.44 0 01-1.68-.68zm3.56-3.94c.14-1.57-.6-2.54-1.48-2.54-.71 0-1.36.63-1.36 1.76s.68 1.72 1.37 1.72a1.8 1.8 0 001.47-.94zM81 184.55l-.61.67c-.11-.09-.11-.2-.18-.28a1.42 1.42 0 00-.91-.33c-.56 0-1.84.35-1.89 3a1.93 1.93 0 011.65-.94 2.28 2.28 0 012.13 2.54 2.36 2.36 0 01-2.22 2.6 2.18 2.18 0 01-1.83-1 4.73 4.73 0 01-.59-2.63 7.54 7.54 0 01.33-2.39 2.6 2.6 0 012.41-1.93 2.47 2.47 0 011.71.69zm-3.54 3.94c-.11 1.45.6 2.56 1.55 2.56.66 0 1.33-.57 1.33-1.78s-.74-1.83-1.36-1.83a1.85 1.85 0 00-1.55 1.05z"/><path fill="none" stroke="#a3a3a3" stroke-linecap="round" stroke-linejoin="round" stroke-dasharray="5 5" d="M187.11 383.28v22.61"/><path d="M177.62 374.94a.72.72 0 11.74-.72.73.73 0 01-.74.72zM186.14 367v.79h-3.21l-.12 2.24a2.74 2.74 0 011.27-.31 2.34 2.34 0 012.35 2.59 2.39 2.39 0 01-2.46 2.6 2.76 2.76 0 01-2.3-1.19l.78-.59c.1.08 0 .2.09.3a1.85 1.85 0 001.42.72 1.88 1.88 0 000-3.71 1.86 1.86 0 00-1.45.74l-.56-.23.27-4zM191.74 367v4.86h1v.78h-1v2.14h-.9v-2.15h-3.13V372l3.3-5zm-3.17 4.86h2.28v-3.47zM196.48 367a2.19 2.19 0 012.25 2.18 3.51 3.51 0 01-1.36 2.45 10.32 10.32 0 00-2.12 2.43h3.26a.15.15 0 00.13-.06.18.18 0 01.17-.05v.87h-4.56v-.55a9.21 9.21 0 012.26-2.89 3.16 3.16 0 001.36-2.14 1.47 1.47 0 00-1.49-1.47 1.6 1.6 0 00-1.33.71c-.07.1 0 .18-.11.28l-.64-.5a2.53 2.53 0 012.18-1.26z"/><path fill="none" stroke="#a3a3a3" stroke-linecap="round" stroke-linejoin="round" stroke-dasharray="5 5" d="M87.6 223.69h132.94v134.84M27.84 223.69h25.35"/><path d="M60 227.89a.73.73 0 01-.74-.71.73.73 0 01.74-.72.73.73 0 01.73.72.72.72 0 01-.73.71zM67.86 220v4.87h1v.77h-1v2.14H67v-2.18h-3.17v-.6l3.3-5zm-3.17 4.87H67v-3.48zM74.83 220v.48c-.52 1.2-1 2.42-1.47 3.65s-.86 2.41-1.24 3.63h-1c.46-1.39 1-2.78 1.49-4.15.36-.93.73-1.86 1.13-2.79h-3.31V220zM76.67 227.17l.61-.66c.13.08.09.21.2.29a1.58 1.58 0 00.93.29A1.64 1.64 0 0080 226a5.3 5.3 0 00.32-1.92 2 2 0 01-1.61.83 2.25 2.25 0 01-2.13-2.45 2.38 2.38 0 012.23-2.57 2.26 2.26 0 012.11 1.69 6.8 6.8 0 01.26 2.17 6.19 6.19 0 01-.33 2.3 2.58 2.58 0 01-2.41 1.81 2.43 2.43 0 01-1.77-.69zm3.55-3.95c.14-1.56-.6-2.54-1.48-2.54-.71 0-1.36.64-1.36 1.77s.68 1.72 1.37 1.72a1.79 1.79 0 001.47-.95z"/><path fill="none" stroke="#a3a3a3" stroke-linecap="round" stroke-linejoin="round" stroke-dasharray="5 5" d="M220.54 383.28v22.61"/><path d="M211.05 374.94a.72.72 0 11.74-.72.73.73 0 01-.74.72zM218.94 367v4.86h1v.78h-1v2.14H218v-2.15h-3.13V372l3.3-5zm-3.17 4.86h2.28v-3.47zM225.8 367v.79h-3.21l-.12 2.24a2.77 2.77 0 011.27-.31 2.34 2.34 0 012.35 2.59 2.39 2.39 0 01-2.45 2.6 2.77 2.77 0 01-2.31-1.19l.78-.59c.1.08 0 .2.09.3a1.87 1.87 0 001.42.72 1.88 1.88 0 000-3.71 1.89 1.89 0 00-1.46.74l-.56-.23.27-4zM230.73 370.66a2.08 2.08 0 011.33 2 2.26 2.26 0 01-2.39 2.27 2.71 2.71 0 01-2-.88l.65-.79c.11.11.06.24.16.35a1.69 1.69 0 001.22.53 1.55 1.55 0 001.56-1.58c0-.93-.77-1.48-1.82-1.48h-.4v-.7a2.91 2.91 0 001.23-.2 1.35 1.35 0 00.83-1.22 1.26 1.26 0 00-1.35-1.21 1.85 1.85 0 00-1.34.6l-.48-.54a2.52 2.52 0 011.86-.83 2 2 0 012.14 2 1.8 1.8 0 01-1.2 1.68z"/><path fill="none" stroke="#a3a3a3" stroke-linecap="round" stroke-linejoin="round" d="M87.6 260.63h166.77v110.89M27.84 260.63h25.35"/><path d="M60 264.83a.72.72 0 110-1.43.72.72 0 110 1.43zM68.48 256.92v.79h-3.2l-.12 2.23a2.85 2.85 0 011.27-.3 2.34 2.34 0 012.34 2.59 2.39 2.39 0 01-2.45 2.6 2.76 2.76 0 01-2.3-1.2l.77-.58c.11.08 0 .2.1.3a1.85 1.85 0 001.42.71 1.87 1.87 0 000-3.7 1.86 1.86 0 00-1.45.74l-.56-.23.27-3.95zM74.74 257.55l-.61.66c-.11-.08-.11-.2-.18-.28a1.44 1.44 0 00-.91-.32c-.56 0-1.84.34-1.89 3a1.93 1.93 0 011.65-.94 2.29 2.29 0 012.13 2.55 2.36 2.36 0 01-2.22 2.6 2.2 2.2 0 01-1.83-1 4.78 4.78 0 01-.59-2.64 7.58 7.58 0 01.33-2.39 2.6 2.6 0 012.38-1.96 2.48 2.48 0 011.74.72zm-3.54 3.93c-.11 1.45.6 2.56 1.55 2.56.66 0 1.33-.56 1.33-1.78s-.74-1.82-1.36-1.82a1.85 1.85 0 00-1.52 1.04zM79.64 260.55a2.08 2.08 0 011.34 2 2.26 2.26 0 01-2.39 2.27 2.78 2.78 0 01-2-.88l.66-.79c.11.11.06.23.16.35a1.66 1.66 0 001.22.53 1.55 1.55 0 001.56-1.58c0-.93-.77-1.48-1.82-1.48a2.6 2.6 0 00-.4 0v-.7a3 3 0 001.23-.2 1.35 1.35 0 00.83-1.22 1.26 1.26 0 00-1.35-1.21 1.85 1.85 0 00-1.34.6l-.49-.54a2.56 2.56 0 011.87-.83 2 2 0 012.14 2 1.8 1.8 0 01-1.22 1.68z"/><path fill="none" stroke="#a3a3a3" stroke-linecap="round" stroke-linejoin="round" d="M254.37 390.45v15.44"/><path d="M254.13 384.71a.73.73 0 01-.74-.72.73.73 0 01.74-.71.72.72 0 01.73.71.73.73 0 01-.73.72zM261.34 380.43a2.08 2.08 0 011.34 2 2.26 2.26 0 01-2.39 2.27 2.75 2.75 0 01-2.05-.89l.66-.78c.11.11.06.23.16.35a1.7 1.7 0 001.22.53 1.56 1.56 0 001.56-1.59c0-.92-.77-1.47-1.82-1.47a2.6 2.6 0 00-.4 0v-.7a3 3 0 001.23-.2 1.36 1.36 0 00.83-1.22 1.26 1.26 0 00-1.35-1.21 1.88 1.88 0 00-1.34.59l-.49-.53a2.52 2.52 0 011.87-.83 2 2 0 012.13 2 1.79 1.79 0 01-1.16 1.68zM268.9 377.42l-.61.67c-.11-.08-.11-.2-.18-.28a1.44 1.44 0 00-.91-.32c-.56 0-1.84.34-1.89 3a1.93 1.93 0 011.65-.94 2.29 2.29 0 012.13 2.55 2.36 2.36 0 01-2.22 2.6 2.2 2.2 0 01-1.83-1 4.78 4.78 0 01-.59-2.64 7.58 7.58 0 01.33-2.39 2.6 2.6 0 012.41-1.93 2.47 2.47 0 011.71.68zm-3.54 3.94c-.11 1.45.6 2.56 1.55 2.56.66 0 1.33-.56 1.33-1.78s-.74-1.82-1.36-1.82a1.83 1.83 0 00-1.52 1.04zM275.45 380.82c0 2.66-1.33 3.89-2.46 3.89s-2.52-1.45-2.52-4 1.27-4 2.51-4 2.47 1.45 2.47 4.11zm-2.45-3.31c-.77 0-1.69 1.1-1.69 3.08a5.85 5.85 0 00.18 1.47l2.73-3.54c-.36-.68-.83-1.01-1.22-1.01zm-1.23 5.34c.34.68.82 1.06 1.28 1.06.69 0 1.62-.82 1.62-3a7.09 7.09 0 00-.16-1.57z"/><path fill="none" stroke="#a3a3a3" stroke-linecap="round" stroke-linejoin="round" stroke-dasharray="5 5" d="M87.6 295.54h268.16v62.99M27.84 295.54h25.35"/><path d="M60 299.74a.72.72 0 11.73-.71.72.72 0 01-.73.71zM68.46 293.57a2.2 2.2 0 01-1.23 1.88 2.44 2.44 0 011.49 2.15 2.39 2.39 0 01-4.75 0 2.52 2.52 0 011.56-2.18 2.09 2.09 0 01-1.19-1.82 2 2 0 012.1-1.91 1.91 1.91 0 012.02 1.88zm-3.59 4a1.45 1.45 0 001.5 1.41 1.4 1.4 0 001.47-1.35 2.08 2.08 0 00-1.66-1.77 2 2 0 00-1.31 1.67zm.31-3.95c0 1 1.37 1.56 1.37 1.56a1.87 1.87 0 001.06-1.51 1.18 1.18 0 00-1.23-1.16 1.14 1.14 0 00-1.2 1.07zM73.19 299.61h-.87v-6.7l-1.56.46-.21-.48 2-1.07h.61zM79.64 295.46a2.08 2.08 0 011.34 2 2.26 2.26 0 01-2.39 2.27 2.75 2.75 0 01-2-.88l.66-.79c.11.12.06.24.16.36a1.71 1.71 0 001.22.52 1.55 1.55 0 001.56-1.58c0-.93-.77-1.48-1.82-1.48a2.6 2.6 0 00-.4 0v-.7a3 3 0 001.23-.2 1.34 1.34 0 00.83-1.22 1.27 1.27 0 00-1.35-1.21 1.85 1.85 0 00-1.34.6l-.49-.54a2.56 2.56 0 011.87-.83 2 2 0 012.14 2 1.8 1.8 0 01-1.22 1.68z"/><path fill="none" stroke="#a3a3a3" stroke-linecap="round" stroke-linejoin="round" stroke-dasharray="5 5" d="M355.76 383.28v22.61"/><path d="M346.27 375.46a.72.72 0 11.74-.72.73.73 0 01-.74.72zM352.67 367.5a2.2 2.2 0 012.26 2.18 3.48 3.48 0 01-1.37 2.45 10.32 10.32 0 00-2.12 2.43h3.26a.16.16 0 00.14-.06.17.17 0 01.17-.05v.87h-4.57v-.55a9.36 9.36 0 012.26-2.89 3.16 3.16 0 001.36-2.14 1.46 1.46 0 00-1.49-1.47 1.62 1.62 0 00-1.33.71c-.06.1 0 .18-.11.28l-.63-.5a2.51 2.51 0 012.17-1.26zM361.14 367.55v.45c-.53 1.2-1 2.41-1.47 3.64s-.86 2.42-1.24 3.64h-1c.46-1.4.95-2.78 1.48-4.15.36-.94.74-1.87 1.13-2.79h-3.32v-.83zM365.72 375.33h-.87v-6.7l-1.56.46-.2-.48 2-1.07h.6z"/><path fill="none" stroke="#a3a3a3" stroke-linecap="round" stroke-linejoin="round" stroke-dasharray="5 5" d="M87.6 337.9h238.06v20.63M27.84 337.9h25.35"/><path d="M60 342.62a.72.72 0 110-1.43.72.72 0 01.73.71.73.73 0 01-.73.72zM68.6 334.71v.48c-.52 1.21-1 2.42-1.47 3.65s-.86 2.41-1.24 3.64h-1c.46-1.4 1-2.78 1.49-4.16.36-.93.73-1.86 1.13-2.78H64.2v-.83zM74.09 334.7v4.86h1v.78h-1v2.14h-.9v-2.15h-3.13v-.65l3.3-5zm-3.17 4.86h2.28v-3.47zM81.29 338.73c0 2.66-1.33 3.89-2.46 3.89s-2.52-1.45-2.52-4 1.27-4 2.51-4 2.47 1.45 2.47 4.11zm-2.48-3.31c-.77 0-1.69 1.1-1.69 3.08a5.85 5.85 0 00.18 1.5l2.7-3.57c-.3-.68-.77-1.01-1.19-1.01zm-1.23 5.34c.34.68.82 1.06 1.28 1.06.69 0 1.62-.82 1.62-3a7.09 7.09 0 00-.16-1.57z"/><path fill="none" stroke="#a3a3a3" stroke-linecap="round" stroke-linejoin="round" stroke-dasharray="5 5" d="M325.66 383.28v22.61"/><path d="M316.18 375.46a.72.72 0 110-1.43.72.72 0 110 1.43zM323.17 375.33h-.88v-6.7l-1.56.46-.2-.48 2-1.07h.61zM331 368.18l-.61.66c-.11-.08-.11-.2-.18-.28a1.44 1.44 0 00-.91-.32c-.56 0-1.84.34-1.89 3a1.93 1.93 0 011.65-.94 2.29 2.29 0 012.13 2.55 2.36 2.36 0 01-2.22 2.6 2.2 2.2 0 01-1.83-1 4.78 4.78 0 01-.59-2.64 7.58 7.58 0 01.33-2.39 2.6 2.6 0 012.41-1.93 2.48 2.48 0 011.71.69zm-3.54 3.93c-.11 1.45.6 2.56 1.55 2.56.66 0 1.33-.56 1.33-1.78s-.74-1.82-1.36-1.82a1.85 1.85 0 00-1.57 1.04zM337.27 367.55v.45c-.52 1.2-1 2.41-1.47 3.64s-.86 2.42-1.24 3.64h-1c.46-1.4 1-2.78 1.49-4.15.36-.94.74-1.87 1.13-2.79h-3.33v-.83z"/><path fill="none" stroke="#a3a3a3" stroke-linecap="round" stroke-linejoin="round" stroke-dasharray="5 5" d="M87.6 312.46h161.37v37.2M27.84 312.46h25.35"/><path d="M60 317.18a.73.73 0 01-.74-.72.73.73 0 01.74-.71.72.72 0 01.73.71.73.73 0 01-.73.72zM68.48 309.27v.78h-3.2l-.12 2.24a2.85 2.85 0 011.27-.3 2.34 2.34 0 012.34 2.59 2.39 2.39 0 01-2.45 2.6A2.76 2.76 0 0164 316l.77-.58c.11.08 0 .2.1.3a1.85 1.85 0 001.42.71 1.87 1.87 0 000-3.7 1.88 1.88 0 00-1.45.73l-.56-.22.27-4zM74.71 309.27v.78h-3.2l-.12 2.24a2.85 2.85 0 011.27-.3 2.34 2.34 0 012.34 2.59 2.4 2.4 0 01-2.46 2.6 2.77 2.77 0 01-2.3-1.2l.77-.58c.11.08 0 .2.1.3a1.85 1.85 0 001.42.71 1.87 1.87 0 000-3.7 1.88 1.88 0 00-1.45.73l-.56-.22.27-4zM78.83 309.22a2.2 2.2 0 012.25 2.18 3.52 3.52 0 01-1.37 2.45 10.23 10.23 0 00-2.11 2.42h3.26a.17.17 0 00.13 0 .18.18 0 01.17-.05v.78H76.6v-.55a9.33 9.33 0 012.25-2.89 3.13 3.13 0 001.37-2.14 1.47 1.47 0 00-1.5-1.47 1.62 1.62 0 00-1.32.7c-.07.11 0 .18-.11.29l-.64-.51a2.53 2.53 0 012.18-1.21z"/><path fill="none" stroke="#a3a3a3" stroke-linecap="round" stroke-linejoin="round" stroke-dasharray="5 5" d="M248.97 370.49v35.4"/><path d="M233.08 362.67a.73.73 0 01-.73-.72.72.72 0 01.73-.71.73.73 0 01.74.71.73.73 0 01-.74.72zM239.48 354.71a2.2 2.2 0 012.26 2.18 3.52 3.52 0 01-1.37 2.45 10.24 10.24 0 00-2.12 2.42h3.26a.16.16 0 00.14-.05.16.16 0 01.17 0v.87h-4.57V362a9.36 9.36 0 012.26-2.89 3.16 3.16 0 001.36-2.14 1.46 1.46 0 00-1.49-1.47 1.62 1.62 0 00-1.33.7c-.07.11 0 .18-.11.29l-.63-.51a2.53 2.53 0 012.17-1.27zM245.71 354.71a2.2 2.2 0 012.26 2.18 3.52 3.52 0 01-1.37 2.45 10.24 10.24 0 00-2.12 2.42h3.26a.16.16 0 00.14-.05.16.16 0 01.17 0v.87h-4.57V362a9.36 9.36 0 012.26-2.89 3.16 3.16 0 001.36-2.11 1.46 1.46 0 00-1.49-1.47 1.62 1.62 0 00-1.33.7c-.06.11 0 .18-.11.29l-.63-.51a2.53 2.53 0 012.17-1.3zM249.79 362l.6-.67c.13.08.1.22.21.3a1.66 1.66 0 002.47-.79 5.12 5.12 0 00.31-1.92 2 2 0 01-1.6.84 2.25 2.25 0 01-2.13-2.45 2.38 2.38 0 012.22-2.58 2.25 2.25 0 012.11 1.69 6.75 6.75 0 01.27 2.17 6.49 6.49 0 01-.33 2.31 2.59 2.59 0 01-2.41 1.81 2.47 2.47 0 01-1.72-.71zm3.55-3.95c.14-1.57-.6-2.54-1.49-2.54-.7 0-1.35.63-1.35 1.76s.67 1.73 1.37 1.73a1.79 1.79 0 001.47-1z"/><path fill="none" stroke="#a3a3a3" stroke-linecap="round" stroke-linejoin="round" stroke-dasharray="5 5" d="M494.03 251.64v154.25M280.65 76.94h213.38v147.37M27.6 76.93h204.03"/><path d="M244.09 80.36h-.88v-6.7l-1.56.46-.2-.48 2-1.07h.61zM249.56 80.49a.72.72 0 11.73-.71.72.72 0 01-.73.71zM256.55 80.36h-.88v-6.7l-1.56.46-.2-.48 2-1.07h.61zM264.3 72.59v.78h-3.2l-.1 2.24a2.84 2.84 0 011.26-.3 2.34 2.34 0 012.36 2.59 2.39 2.39 0 01-2.46 2.59 2.75 2.75 0 01-2.3-1.19l.77-.58c.11.07.05.2.1.29a1.85 1.85 0 001.42.72 1.87 1.87 0 000-3.7 1.88 1.88 0 00-1.45.73l-.56-.23.27-3.94zM270.52 74.33a2.2 2.2 0 01-1.24 1.87 2.44 2.44 0 011.49 2.15 2.24 2.24 0 01-2.39 2.13A2.21 2.21 0 01266 78.4a2.52 2.52 0 011.56-2.18 2.08 2.08 0 01-1.19-1.82 2 2 0 012.1-1.91 1.92 1.92 0 012.05 1.84zm-3.6 4a1.45 1.45 0 001.5 1.42 1.41 1.41 0 001.47-1.36 2.06 2.06 0 00-1.66-1.76 2 2 0 00-1.31 1.65zm.31-4c0 1 1.37 1.56 1.37 1.56a1.87 1.87 0 001.06-1.51 1.19 1.19 0 00-1.23-1.16 1.15 1.15 0 00-1.2 1.11zM484.54 241.92a.72.72 0 11.74-.72.73.73 0 01-.74.72zM493 235.75a2.22 2.22 0 01-1.24 1.88 2.45 2.45 0 011.5 2.14 2.25 2.25 0 01-2.39 2.14 2.21 2.21 0 01-2.36-2.08 2.52 2.52 0 011.55-2.18 2.1 2.1 0 01-1.18-1.82 2 2 0 012.1-1.92 1.92 1.92 0 012.02 1.84zm-3.6 4a1.45 1.45 0 001.51 1.41 1.4 1.4 0 001.46-1.35 2.08 2.08 0 00-1.65-1.77 2 2 0 00-1.28 1.67zm.31-4c0 1 1.37 1.55 1.37 1.55a1.84 1.84 0 001.07-1.5 1.19 1.19 0 00-1.24-1.16 1.14 1.14 0 00-1.16 1.12zM497.76 241.79h-.87v-6.7l-1.56.46-.21-.48 2-1.07h.6zM505.5 235.75a2.22 2.22 0 01-1.24 1.88 2.44 2.44 0 011.5 2.14 2.25 2.25 0 01-2.39 2.14 2.21 2.21 0 01-2.36-2.08 2.52 2.52 0 011.55-2.18 2.1 2.1 0 01-1.18-1.82 2 2 0 012.1-1.92 1.92 1.92 0 012.02 1.84zm-3.6 4a1.45 1.45 0 001.51 1.41 1.41 1.41 0 001.47-1.35 2.08 2.08 0 00-1.66-1.77 2 2 0 00-1.32 1.67zm.31-4c0 1 1.37 1.55 1.37 1.55a1.84 1.84 0 001.07-1.5 1.19 1.19 0 00-1.24-1.16 1.14 1.14 0 00-1.2 1.12z"/><path fill="none" stroke="#a3a3a3" stroke-linecap="round" stroke-linejoin="round" d="M493.81 54.63h2.8"/><path fill="none" stroke="#a3a3a3" stroke-linecap="round" stroke-linejoin="round" stroke-dasharray="5.16 5.16" d="M501.77 54.63h49.06"/><path fill="none" stroke="#a3a3a3" stroke-linecap="round" stroke-linejoin="round" d="M553.41 54.63h2.8v4.86M493.81 93.36h2.8"/><path fill="none" stroke="#a3a3a3" stroke-linecap="round" stroke-linejoin="round" stroke-dasharray="5.16 5.16" d="M501.77 93.36h49.06"/><path fill="none" stroke="#a3a3a3" stroke-linecap="round" stroke-linejoin="round" d="M553.41 93.36h2.8V88.5"/><path d="M546.37 78.09a.72.72 0 110-1.43.72.72 0 110 1.43zM553.36 78h-.88v-6.7l-1.56.46-.2-.48 2-1.07h.61zM561.46 74.2c0 2.66-1.33 3.89-2.46 3.89s-2.52-1.45-2.52-4 1.27-4 2.51-4 2.47 1.45 2.47 4.11zM559 70.89c-.76 0-1.68 1.1-1.68 3.09a5.83 5.83 0 00.18 1.46l2.73-3.54c-.36-.68-.83-1.01-1.23-1.01zm-1.22 5.34c.34.68.82 1.06 1.28 1.06.69 0 1.62-.82 1.62-3a6.93 6.93 0 00-.16-1.56zM566.72 70.17V75h1v.78h-1V78h-.9v-2.2h-3.13v-.65l3.3-5zM563.55 75h2.28v-3.44z"/><path fill="none" stroke="#a3a3a3" stroke-linecap="round" stroke-linejoin="round" d="M355.05 283.21h2.79"/><path fill="none" stroke="#a3a3a3" stroke-linecap="round" stroke-linejoin="round" stroke-dasharray="5.97 5.97" d="M363.81 283.21h44.74"/><path fill="none" stroke="#a3a3a3" stroke-linecap="round" stroke-linejoin="round" d="M411.54 283.21h2.79M355.05 306.83h2.79"/><path fill="none" stroke="#a3a3a3" stroke-linecap="round" stroke-linejoin="round" stroke-dasharray="5.97 5.97" d="M363.81 306.83h44.74"/><path fill="none" stroke="#a3a3a3" stroke-linecap="round" stroke-linejoin="round" d="M411.54 306.83h2.79"/><path d="M404.49 299.82a.73.73 0 01-.74-.71.74.74 0 011.48 0 .73.73 0 01-.74.71zM413.35 295.93c0 2.67-1.33 3.89-2.46 3.89s-2.52-1.44-2.52-4 1.28-4 2.51-4 2.47 1.46 2.47 4.11zm-2.48-3.3c-.77 0-1.69 1.09-1.69 3.08a5.91 5.91 0 00.18 1.47l2.73-3.54c-.33-.64-.8-1.01-1.22-1.01zm-1.23 5.37c.34.68.82 1.06 1.28 1.06.69 0 1.62-.83 1.62-3a7.06 7.06 0 00-.16-1.56zM419.26 292.54l-.61.67c-.11-.09-.11-.2-.18-.28a1.39 1.39 0 00-.91-.33c-.56 0-1.84.35-1.89 3a1.93 1.93 0 011.65-.94 2.29 2.29 0 012.13 2.55 2.35 2.35 0 01-2.22 2.59 2.18 2.18 0 01-1.83-1 4.73 4.73 0 01-.59-2.63 7.54 7.54 0 01.33-2.39 2.6 2.6 0 012.41-1.93 2.45 2.45 0 011.71.69zm-3.54 3.94c-.11 1.45.6 2.56 1.55 2.56.66 0 1.33-.57 1.33-1.78s-.74-1.83-1.36-1.83a1.85 1.85 0 00-1.52 1.05zM423.35 291.86a2.2 2.2 0 012.25 2.19 3.48 3.48 0 01-1.37 2.44 10.52 10.52 0 00-2.11 2.43h3.26a.17.17 0 00.13-.05.21.21 0 01.17-.06v.87h-4.56v-.54a9.26 9.26 0 012.26-2.9 3.11 3.11 0 001.36-2.13 1.47 1.47 0 00-1.5-1.48 1.62 1.62 0 00-1.32.71c-.07.1 0 .18-.11.29l-.64-.51a2.55 2.55 0 012.18-1.26z"/></svg>