<svg xmlns="http://www.w3.org/2000/svg" width="600" height="315.79" viewBox="0 0 600 315.79"><path fill="#bf0a30" d="M0 0h600v315.79H0z"/><path fill="#fff" d="M0 24.29h600v24.29H0zM0 72.87h600v24.29H0zM0 121.46h600v24.29H0zM0 170.04h600v24.29H0zM0 218.62h600v24.29H0zM0 267.21h600v24.29H0z"/><path fill="#002664" d="M0 0h240v170.04H0z"/><path fill="#fff" d="M112.61 48.61l4.57 3.32-1.75 5.37 4.57-3.32 4.57 3.32-1.75-5.37 4.57-3.32h-5.64L120 43.24l-1.75 5.37h-5.64zM137.55 52.51l-1.75-5.38-1.74 5.38h-5.65l4.57 3.31-1.75 5.38 4.57-3.32 4.57 3.32-1.74-5.38 4.57-3.31h-5.65zM147.99 68.67l4.57 3.32-1.75-5.37 4.57-3.32h-5.65l-1.74-5.37-1.75 5.37h-5.65l4.57 3.32-1.74 5.37 4.57-3.32zM155.51 78.52l-1.75-5.37-1.75 5.37h-5.64l4.57 3.32-1.75 5.37 4.57-3.32 4.57 3.32-1.75-5.37 4.57-3.32h-5.64zM153.54 94.68l-1.74-5.37-1.75 5.37h-5.64l4.56 3.32-1.74 5.37 4.57-3.32 4.57 3.32-1.75-5.37 4.57-3.32h-5.65zM142.55 113.44l4.57 3.32-1.74-5.37 4.56-3.32h-5.64l-1.75-5.37-1.74 5.37h-5.65l4.57 3.32-1.75 5.37 4.57-3.32zM123.57 124.33l4.57-3.32 4.57 3.32-1.74-5.37 4.56-3.32h-5.64l-1.75-5.37-1.74 5.37h-5.65l4.57 3.32-1.75 5.37zM126.05 18.5l-1.74 5.38 4.57-3.33 4.57 3.33-1.75-5.38 4.57-3.32h-5.65l-1.74-5.37-1.75 5.37h-5.65l4.57 3.32zM143.21 23.1l-1.75 5.37 4.57-3.32 4.57 3.32-1.75-5.37 4.57-3.32h-5.65l-1.74-5.37-1.75 5.37h-5.64l4.57 3.32zM158.58 31.98l-1.74 5.37 4.57-3.32 4.56 3.32-1.74-5.37 4.57-3.32h-5.65l-1.74-5.37-1.75 5.37h-5.65l4.57 3.32zM172.22 41.21h-5.65l4.57 3.32-1.75 5.37 4.57-3.32 4.57 3.32-1.75-5.37 4.57-3.32h-5.64l-1.75-5.37-1.74 5.37zM181.09 56.59h-5.64l4.56 3.32-1.74 5.37 4.57-3.32 4.57 3.32-1.75-5.37 4.57-3.32h-5.65l-1.74-5.37-1.75 5.37zM189.18 73.74l-1.75-5.37-1.74 5.37h-5.65l4.57 3.32-1.74 5.37 4.56-3.32 4.57 3.32-1.74-5.37 4.57-3.32h-5.65zM194.83 91.5h-5.65l-1.75-5.37-1.74 5.37h-5.65l4.57 3.32-1.74 5.37 4.56-3.32 4.57 3.32-1.74-5.37 4.57-3.32zM184.58 108.65l-1.74-5.37-1.75 5.37h-5.64l4.56 3.32-1.74 5.37 4.57-3.32 4.57 3.32-1.75-5.37 4.57-3.32h-5.65zM175.71 124.02l-1.75-5.37-1.74 5.37h-5.65l4.57 3.32-1.75 5.38 4.57-3.32 4.57 3.32-1.75-5.38 4.57-3.32h-5.64zM163.15 136.58l-1.74-5.37-1.75 5.37h-5.65l4.57 3.32-1.74 5.37 4.57-3.32 4.56 3.32-1.74-5.37 4.57-3.32h-5.65zM147.77 145.46l-1.74-5.37-1.75 5.37h-5.64l4.57 3.32-1.75 5.37 4.57-3.32 4.57 3.32-1.75-5.37 4.57-3.32h-5.65zM130.62 150.05l-1.74-5.37-1.75 5.37h-5.65l4.57 3.32-1.74 5.37 4.57-3.32 4.57 3.32-1.75-5.37 4.57-3.32h-5.65zM105.94 52.51l-1.74-5.38-1.75 5.38H96.8l4.57 3.31-1.74 5.38 4.57-3.32 4.57 3.32-1.75-5.38 4.57-3.31h-5.65zM93.76 63.3l-1.75-5.37-1.74 5.37h-5.65l4.57 3.32-1.75 5.37 4.57-3.32 4.57 3.32-1.74-5.37 4.57-3.32h-5.65zM87.98 78.52l-1.74-5.37-1.75 5.37h-5.64l4.57 3.32-1.75 5.37 4.57-3.32 4.57 3.32-1.75-5.37 4.57-3.32h-5.65zM89.95 94.68l-1.75-5.37-1.74 5.37h-5.65L85.38 98l-1.75 5.37 4.57-3.32 4.57 3.32L91.03 98l4.56-3.32h-5.64zM104.84 108.07h-5.65l-1.74-5.37-1.75 5.37h-5.64l4.56 3.32-1.74 5.37 4.57-3.32 4.57 3.32-1.75-5.37 4.57-3.32zM111.86 110.27l-1.75 5.37h-5.64l4.56 3.32-1.74 5.37 4.57-3.32 4.57 3.32-1.75-5.37 4.57-3.32h-5.65l-1.74-5.37zM108.3 18.5l-1.75 5.38 4.57-3.33 4.57 3.33-1.74-5.38 4.57-3.32h-5.65l-1.75-5.37-1.74 5.37h-5.65l4.57 3.32zM91.15 23.1l-1.75 5.37 4.57-3.32 4.57 3.32-1.74-5.37 4.56-3.32h-5.64l-1.75-5.37-1.74 5.37h-5.65l4.57 3.32zM75.77 31.98l-1.74 5.37 4.56-3.32 4.57 3.32-1.74-5.37 4.57-3.32h-5.65l-1.75-5.37-1.74 5.37H71.2l4.57 3.32zM63.22 44.53l-1.75 5.37 4.57-3.32 4.57 3.32-1.75-5.37 4.57-3.32h-5.65l-1.74-5.37-1.75 5.37h-5.64l4.57 3.32zM54.34 59.91l-1.75 5.37 4.57-3.32 4.57 3.32-1.75-5.37 4.57-3.32h-5.64l-1.75-5.37-1.74 5.37h-5.65l4.57 3.32zM48 82.43l4.57-3.32 4.56 3.32-1.74-5.37 4.57-3.32h-5.65l-1.74-5.37-1.75 5.37h-5.65l4.57 3.32L48 82.43zM52.57 96.87l4.56 3.32-1.74-5.37 4.57-3.32h-5.65l-1.74-5.37-1.75 5.37h-5.65l4.57 3.32-1.74 5.37 4.57-3.32zM57.16 114.02l4.57 3.32-1.75-5.37 4.57-3.32h-5.64l-1.75-5.37-1.74 5.37h-5.65l4.57 3.32-1.75 5.37 4.57-3.32zM68.86 127.34l4.57-3.32h-5.65l-1.74-5.37-1.75 5.37h-5.64l4.57 3.32-1.75 5.38 4.57-3.32 4.57 3.32-1.75-5.38zM80.34 136.58l-1.75-5.37-1.74 5.37H71.2l4.57 3.32-1.74 5.37 4.56-3.32 4.57 3.32-1.74-5.37 4.57-3.32h-5.65zM95.72 145.46l-1.75-5.37-1.74 5.37h-5.65l4.57 3.32-1.75 5.37 4.57-3.32 4.57 3.32-1.74-5.37 4.56-3.32h-5.64zM112.87 150.05l-1.75-5.37-1.74 5.37h-5.65l4.57 3.32-1.75 5.37 4.57-3.32 4.57 3.32-1.74-5.37 4.57-3.32h-5.65z"/></svg>