<svg xmlns="http://www.w3.org/2000/svg" width="585" height="300" viewBox="0 0 585 300"><title>flag-nmi</title><rect width="585" height="300" fill="#0071bc"/><path d="M320.19,219.7s8.44-8.93,16.56-7.22a13.61,13.61,0,0,1,11.61-10.15s-.89-10.39,10.88-12.67c.33-7.06,7.47-12.91,7.47-12.91s-1.46-11,6-13.48c-4.54-8.68,1.55-15,1.46-15.18s-7.71-13.72-.89-17.62c-7.22-6.09-4.87-13-4.87-13s-7.88-2-5-11.45c-6.5-1.14-7.8-11.61-7.8-11.61s-10,2-11.2-6.66c-6.58,1.06-7.31-5.44-7.39-5.44S323.92,85.81,321.33,76c-5,2.6-7.23-2-7.23-2s-7.23,3.57-11.53-3.33c-8.61,5.36-13.4-.24-13.4-.24s-11.28,7.47-15,1.7c-6.66,6.74-12.58,3.82-12.58,3.82s-5,8.93-13.16,6.66c-1.86,8.28-11.2,8.44-11.2,8.44s1,7.31-10.23,9.26c-1.46,8.6-7.31,10.06-7.31,10.06s.57,8.37-4.71,11c1.87,4.71-3,10.47-3,10.47s5.19,6.5-1.87,13.8c6.82,1.79,1.87,13.56,1.87,13.56s9.42,4.23,3.49,12c6.74,2.19,4.63,7.55,4.71,10.72,4.3,2,8.12,1,6.25,9.66,13.23,1.46,7,8.77,7,8.77s6.17.24,3.74,5.11c11.28-.24,12.91,8.45,12.91,8.45s10.47-2.76,11.85,1.3-4.55,31.42-4.55,31.42a22.92,22.92,0,0,1-15.42-7.06c-15.43-.41-12-10.56-12.26-10.56s-5.12,1.87-7.63-6.58c-10.32,2.12-10-6.57-10.07-6.65s-4.63-2.11-2.93-6.42c-10.63,1-9.82-9.42-9.82-9.42a4.62,4.62,0,0,1-2.84-5.27c-1.38-.49-10.8-.65-5.93-13.08-9-5.44-3.41-11.69-3.41-11.69s-12.42-6.41-2.84-13.8c-7.15-10.56.57-15.84.57-15.84s-9.91-10.06.16-17.21c-1.63-15.26,7.47-18.92,7.47-18.92s-4.79-12.42,8.2-17.62c.81-12.58,9.91-12.91,9.91-12.91s.24-10,14.53-9c2.76-8.93,12.5-7.14,12.5-7.14s3-10.8,16.24-5.61c6.74-13.15,16.73-6.41,16.73-6.41s6.33-4.14,9.5-2.84c4-6.91,12.58-.27,18.11,1.07,2-.78,9.17-6.19,14.69.63,7.31-4.79,13.56,3.82,13.56,3.82s10.07-5.12,14.78,6.58c21.35-1.95,18.27,12,18.27,12s16.8-3.81,13.15,12.91c15.27,1.06,13.72,11.13,13.72,11.13s9.67,7.3,5.44,13.88c8.61.41,5.44,8.69,5.44,8.69s6.58,2.52,1.14,12.75c12.59,10.06,2.44,20,2.35,20s6.74,8.12.57,17.54c1.87,14.94-5.68,18.75-5.68,18.75s1.95,9.67-6.5,12.43c-.16,11.36-10.88,12.74-10.88,12.74s2.85,4.94-7.79,10.14c-.42,7.6-11.53,8.21-11.53,8.21s-1.06,14-15.18,10.24c-3.43,11.2-20,7.87-20.3,7.71s-3.17-24-3.17-24.12Z" fill="#fff" stroke="#000" stroke-width="0.93"/><path d="M339.92,231.45s-1.25,2.41,3.76,4.53" fill="none" stroke="#000" stroke-width="0.93"/><path d="M349.94,225.76s5.59-1.35,9.35,0" fill="none" stroke="#000" stroke-width="0.93"/><path d="M366.62,211.69c0,.1-.77,2.51,3.66,6" fill="none" stroke="#000" stroke-width="0.93"/><path d="M369.8,205.43a15.34,15.34,0,0,0,8.77,2.31" fill="none" stroke="#000" stroke-width="0.93"/><path d="M336.74,212.46s.19,6.36-3.09,9.35" fill="none" stroke="#000" stroke-width="0.93"/><path d="M347.72,202.63s5.4,1.35,9.84-.87" fill="none" stroke="#000" stroke-width="0.93"/><path d="M382.33,193.28s1.15,1.64,7.13,1.35" fill="none" stroke="#000" stroke-width="0.93"/><path d="M359,189.52c.2.1,7,2.31,11.38.29" fill="none" stroke="#000" stroke-width="0.93"/><path d="M372.69,163.3s.29-.39,2.41,7" fill="none" stroke="#000" stroke-width="0.93"/><path d="M378,142.38s-.29,4-3.47,5.69" fill="none" stroke="#000" stroke-width="0.93"/><path d="M398.33,126.19s-4.63,3.76-3.76,5.3" fill="none" stroke="#000" stroke-width="0.93"/><path d="M375.29,123.49a5.1,5.1,0,0,1-1.54,6.84" fill="none" stroke="#000" stroke-width="0.93"/><path d="M363.63,106.14s4.14-.19,6,3.38" fill="none" stroke="#000" stroke-width="0.93"/><path d="M372.3,79.93c0,.09.87.87-.77,2.5" fill="none" stroke="#000" stroke-width="0.93"/><path d="M342.71,80.31A13.5,13.5,0,0,1,344.54,88" fill="none" stroke="#000" stroke-width="0.93"/><path d="M355.53,68.55A27.27,27.27,0,0,0,359.77,67" fill="none" stroke="#000" stroke-width="0.93"/><path d="M341.26,54.77c-.09,0-1.25,4.34.87,5.88" fill="none" stroke="#000" stroke-width="0.93"/><path d="M336,74.53c0,4.63,3.67,3.47,1.16,7.9" fill="none" stroke="#000" stroke-width="0.93"/><path d="M327,70.67c-.09,0-5.78,4.44-5.78,5.21" fill="none" stroke="#000" stroke-width="0.93"/><path d="M312.15,68.26A7,7,0,0,1,314,74" fill="none" stroke="#000" stroke-width="0.93"/><path d="M292.3,65.37c-.1.19-2,4.34-3.37,5.11" fill="none" stroke="#000" stroke-width="0.93"/><path d="M274.76,65.47c.1,0,1.93,3.85-.48,6.65" fill="none" stroke="#000" stroke-width="0.93"/><path d="M243.53,81.47a50.07,50.07,0,0,0,4.92,1" fill="none" stroke="#000" stroke-width="0.93"/><path d="M231.48,92.65c.1-.1,5.88-1.83,5.88-1.83" fill="none" stroke="#000" stroke-width="0.93"/><path d="M222.13,99.88c.19,0,4.05.67,5,.19" fill="none" stroke="#000" stroke-width="0.93"/><path d="M219.43,103.44s1.25.68.19,7.14" fill="none" stroke="#000" stroke-width="0.93"/><path d="M200.64,86.48,203,90" fill="none" stroke="#000" stroke-width="0.93"/><path d="M192.73,104.31c0-.1,2.31,3.47,5.4,4.14" fill="none" stroke="#000" stroke-width="0.93"/><path d="M211,122.43a27.3,27.3,0,0,0,4.34-1.15" fill="none" stroke="#000" stroke-width="0.93"/><path d="M209.31,135.54a5.07,5.07,0,0,1,2.89-4" fill="none" stroke="#000" stroke-width="0.93"/><path d="M205.36,141.52c0,.09,2.8,3.56,4.72,4" fill="none" stroke="#000" stroke-width="0.93"/><path d="M203.72,148.17c.29-.1,3.28-2.7,6.75-2.51" fill="none" stroke="#000" stroke-width="0.93"/><path d="M202.75,157.13s.1,3,9,2.22" fill="none" stroke="#000" stroke-width="0.93"/><path d="M203.63,167.64c0-.1,2.6-6,7.9-8.19" fill="none" stroke="#000" stroke-width="0.93"/><path d="M210.76,175.16s.77-2.51,5.2-4.24" fill="none" stroke="#000" stroke-width="0.93"/><path d="M215.67,185.09s3.18-2.61,4.34-3" fill="none" stroke="#000" stroke-width="0.93"/><path d="M219.63,192.8s1.92,2,6.74-1.45" fill="none" stroke="#000" stroke-width="0.93"/><path d="M196.39,194.43c.58-.09,7.62-1.73,10,1.93" fill="none" stroke="#000" stroke-width="0.93"/><path d="M199.19,200.22s7.42-1,8.39-.19" fill="none" stroke="#000" stroke-width="0.93"/><path d="M225.69,201.76s-1,2,8.2-1.35" fill="none" stroke="#000" stroke-width="0.93"/><path d="M237.07,205.43c-1.64,2.79.38,5-1.74,6.26" fill="none" stroke="#000" stroke-width="0.93"/><path d="M209.22,209.28c.28-.19,3.37-1.25,2.89-5.69" fill="none" stroke="#000" stroke-width="0.93"/><path d="M212,215.93c.39-.1,5.5-2.32,6.56-1.16" fill="none" stroke="#000" stroke-width="0.93"/><path d="M222,222.39s.67-4.53,2.12-5" fill="none" stroke="#000" stroke-width="0.93"/><path d="M229.75,229.23s4.24-.09,6.07-1.44" fill="none" stroke="#000" stroke-width="0.93"/><path d="M237.94,213.91c.09.09,3.95,2.12,12.14.09" fill="none" stroke="#000" stroke-width="0.93"/><path d="M241,232.32a59.33,59.33,0,0,1,1.06,7.23" fill="none" stroke="#000" stroke-width="0.93"/><path d="M355.82,94.38H359" fill="none" stroke="#000" stroke-width="0.93"/><path d="M305.12,66.34S303.87,70,302.23,71" fill="none" stroke="#000" stroke-width="0.93"/><path d="M270.71,45.52A7.71,7.71,0,0,1,269.26,51" fill="none" stroke="#000" stroke-width="0.93"/><path d="M253.36,52.07c0,.1.77,3.28-4.34,4.34" fill="none" stroke="#000" stroke-width="0.93"/><path d="M322.06,233.18s48.15-13.6,62.69-72.69c-8.45,60.65-61.13,79.88-61.13,79.88l-1.56-7.19Z" fill="#f7df73" stroke="#000" stroke-linejoin="round" stroke-width="1.16" fill-rule="evenodd"/><path d="M259,231.9s-47.71-13.84-62.11-74c8.36,61.74,60.56,81.32,60.56,81.32L259,231.9Z" fill="#f7df73" stroke="#000" stroke-linejoin="round" stroke-width="1.16" fill-rule="evenodd"/><path d="M327,236.86c1.49,0,5.17-4.07,7.28-4.54s2.35-2.59-.08-2.66-4.54,2.74-4.54,2.74a9.42,9.42,0,0,1-4.31,2c-2.19.24-.78,3,1.65,2.43Z" fill="#8c1800"/><path d="M337.26,229.34s-1.49-.55,2.35-2,3.6-3.22,4.85-3.92,3.92-2.59,4.47-1.49-2.82,3.29-3.61,3.53-4.62,3.76-5.71,4.07a2.79,2.79,0,0,1-2.35-.16Z" fill="#8c1800"/><path d="M254.06,235.65c-1.47,0-5.12-4.15-7.22-4.62s-2.32-2.64.08-2.72,4.5,2.8,4.5,2.8a9.36,9.36,0,0,0,4.27,2.07c2.17.24.78,3-1.63,2.47Z" fill="#8c1800"/><path d="M243.89,228s1.48-.56-2.32-2.08-3.57-3.27-4.82-4-3.88-2.63-4.42-1.52,2.79,3.35,3.57,3.59,4.58,3.83,5.67,4.15a2.69,2.69,0,0,0,2.32-.16Z" fill="#8c1800"/><path d="M354.72,216.18s-5,2.9-4.31,3.6,5.17-2.74,5.25-2.81,1.88-2.28-.94-.79Z" fill="#8c1800" stroke="#8c1800" stroke-width="1.16"/><path d="M226.59,214.6s5,3,4.26,3.67-5.12-2.79-5.2-2.87-1.86-2.31.94-.8Z" fill="#8c1800" stroke="#8c1800" stroke-width="1.16"/><path d="M362.16,208.82c-3.29,3.68-3.29,3.6-3.29,3.6" fill="none" stroke="#8c1800" stroke-linecap="round" stroke-width="1.51"/><path d="M367.1,202.79,364,206.63" fill="none" stroke="#8c1800" stroke-linecap="round" stroke-width="1.39"/><path d="M372,195l-3.52,5.64" fill="none" stroke="#8c1800" stroke-linecap="round" stroke-width="1.27"/><path d="M376.19,187l-2.9,5.79" fill="none" stroke="#8c1800" stroke-linecap="round" stroke-width="1.16"/><path d="M378.06,182.74l-.94,2" fill="none" stroke="#8c1800" stroke-linecap="round" stroke-width="1.16"/><path d="M380.18,177.18l-.78,2.43" fill="none" stroke="#8c1800" stroke-linecap="round" stroke-width="0.69"/><path d="M219.22,207.11c3.25,3.74,3.25,3.66,3.25,3.66" fill="none" stroke="#8c1800" stroke-linecap="round" stroke-width="1.51"/><path d="M214.33,201l3.1,3.9" fill="none" stroke="#8c1800" stroke-linecap="round" stroke-width="1.4"/><path d="M209.44,193l3.49,5.74" fill="none" stroke="#8c1800" stroke-linecap="round" stroke-width="1.28"/><path d="M205.32,184.86l2.87,5.9" fill="none" stroke="#8c1800" stroke-linecap="round" stroke-width="1.16"/><path d="M203.46,180.55l.93,2.08" fill="none" stroke="#8c1800" stroke-linecap="round" stroke-width="1.16"/><path d="M201.37,174.89l.77,2.48" fill="none" stroke="#8c1800" stroke-linecap="round" stroke-width="0.7"/><path d="M217.58,85.7a9,9,0,0,1,2.92,7.7c-.66,4.62-3.34,11-2.8,15.85a35,35,0,0,1,.21,5.36s-3.21-4.56-3.25-9.44,3.47-9.5,3.47-13.09a49.26,49.26,0,0,0-.55-6.38Z" fill="#217900" stroke="#000" stroke-linejoin="round" stroke-width="0.93"/><path d="M215.82,87.08s-4.64,4.43-5.24,8.74c-.44,2.22-.61,12.57-.66,17.17-.11,1.4-.69,7-.82,9s3.42-3.45,3.62-7.91c-.11-4.62-.11-14.35.36-15.81.42-1.88.33-4,1-5.84.86-2.62,1.82-5.3,1.77-5.34Z" fill="#217900" stroke="#000" stroke-linejoin="round" stroke-width="0.93"/><path d="M185.42,116.62s3.15,4.36,3.71,6.87,1.62,7.42,3,9.44,9.2,13.24,9.6,17.92c.09,3.07-3.22,8.32-8.15,8.4-3.07-.08-11-2.1-11.3-8.88s2.42-7,2.74-11.06.41-22.61.41-22.69Z" fill="none" stroke="#6b18b5" stroke-linejoin="round" stroke-width="0.93"/><path d="M239.51,57.26a16.43,16.43,0,0,0-5.77,1.59c-2,1.2-5.24,2.93-7.54,6.12-5.86,4.56-14.66,6.69-17.44,10.48-1.66,2.58-1.56,8.79,2.61,11.41,2.66,1.53,10.47,3.91,14.27-1.71S227.17,78,229,74.27c3.07-8.45,10.43-16.94,10.47-17Z" fill="none" stroke="#6b18b5" stroke-linejoin="round" stroke-width="0.48"/><path d="M318.57,49a16.46,16.46,0,0,0-5.15-3c-2.22-.56-5.91-.32-9.72-.69-7.35-1-14.93-6.35-19.59-5.71-3,.6-7.39,5-6.38,9.81.76,3,4.08,9,10.77,7.8s6.62-2.64,10.57-3.86A35.88,35.88,0,0,1,318.57,49Z" fill="none" stroke="#6b18b5" stroke-linejoin="round" stroke-width="0.48"/><path d="M397,125.24c.55-1.26-.46-3.61-1.18-6.38a23.81,23.81,0,0,0-4.28-8.55c-3-6.78-2.51-16.07-5.52-19.68-2.1-2.23-8.15-3.62-11.7-.21-2.12,2.22-6.31,9.23-1.76,14.26s6.53,3.15,9.66,5.84c7.46,5,11.12,13.8,14.78,14.72Z" fill="none" stroke="#6b18b5" stroke-linejoin="round" stroke-width="0.48"/><path d="M394.31,184.45c1-1.41,2.85-4.13,2.63-6.39-.17-1.8.82-7.23.93-9.61.68-7.39,5.3-13.39,4.05-19.81-.75-3-5.11-7.22-9.88-6-2.93.9-9.46,4.49-8,11.11s3.65,6.51,5.07,10.39C393.21,172.18,390.61,181.71,394.31,184.45Z" fill="none" stroke="#6b18b5" stroke-linejoin="round" stroke-width="0.48"/><path d="M288.57,43.18c0-1-1.17-1.89-2.62-1.89s-2.62.85-2.62,1.89,1.18,1.89,2.62,1.89S288.57,44.22,288.57,43.18Z" fill="#6b18b5"/><path d="M289.69,47.57c0-1-1.2-1.81-2.69-1.81s-2.7.81-2.7,1.81,1.21,1.81,2.7,1.81S289.69,48.57,289.69,47.57Z" fill="#6b18b5"/><path d="M293.05,42.37s-3.09,2.31-1.82,3.24,4.78-2,4.78-2Z" fill="#6b18b5"/><path d="M383.64,95.31a1.9,1.9,0,0,0-.8-1.6,1.45,1.45,0,0,0-1.62,0,2,2,0,0,0,0,3.19,1.45,1.45,0,0,0,1.62,0A1.9,1.9,0,0,0,383.64,95.31Z" fill="#6b18b5"/><path d="M382.47,90.9a1.71,1.71,0,1,0-1.69,2A1.86,1.86,0,0,0,382.47,90.9Z" fill="#6b18b5"/><path d="M383.28,99.87c0-.57-.3-1-.66-1s-.66.46-.66,1,.29,1,.66,1S383.28,100.43,383.28,99.87Z" fill="#6b18b5"/><path d="M386,91.85c0-.65-.3-1.17-.66-1.17s-.66.52-.66,1.17S385,93,385.34,93,386,92.5,386,91.85Z" fill="#6b18b5"/><path d="M378.57,92.66c0-.52-.29-1-.66-1s-.66.43-.66,1,.3,1,.66,1S378.57,93.19,378.57,92.66Z" fill="#6b18b5"/><path d="M379.75,99a1.4,1.4,0,1,0-1.4,1.55A1.47,1.47,0,0,0,379.75,99Z" fill="#6b18b5"/><path d="M376.07,96.19a1.18,1.18,0,1,0-1.17,1.32A1.26,1.26,0,0,0,376.07,96.19Z" fill="#6b18b5"/><path d="M375.49,92.44a1.11,1.11,0,0,0-.52-1,1,1,0,0,0-1,0,1.12,1.12,0,0,0-.51,1,1.14,1.14,0,0,0,.51,1,1,1,0,0,0,1,0A1.13,1.13,0,0,0,375.49,92.44Z" fill="#6b18b5"/><path d="M392.25,111.5c-1.52-2-3.95-2.84-5.43-1.88s-1.45,3.36.06,5.37,3.95,2.85,5.43,1.88S393.76,113.51,392.25,111.5Z" fill="#6b18b5"/><path d="M396.56,148.47c.29-2.46-.9-4.62-2.68-4.83s-3.45,1.6-3.74,4.06.9,4.63,2.68,4.84S396.27,150.93,396.56,148.47Z" fill="#6b18b5"/><path d="M397.47,170c.51-2.42-.5-4.68-2.25-5.05s-3.58,1.31-4.08,3.73.5,4.69,2.25,5.05,3.57-1.3,4.08-3.73Z" fill="#6b18b5"/><path d="M401.62,149.85a1.5,1.5,0,1,0-1.47,1.77A1.64,1.64,0,0,0,401.62,149.85Z" fill="#6b18b5"/><path d="M398,153.89l-3,3.42s-2.83.07-2.68,1,3.9,3.68,3.86,4.78,2.5-.26,2.5-.26,2-6.13,2-6.17-.11-4.26-1.21-4.19-1.4,1.36-1.47,1.43Z" fill="#6b18b5"/><path d="M199.77,152.54a1.44,1.44,0,1,0-1.43,1.44,1.43,1.43,0,0,0,1.43-1.44Z" fill="#6b18b5"/><path d="M201.13,148.16a1.44,1.44,0,1,0-1.44,1.51A1.48,1.48,0,0,0,201.13,148.16Z" fill="#6b18b5"/><path d="M189.34,127.31c-.53-1.2-1.65-1.88-2.5-1.5s-1.09,1.66-.55,2.87,1.66,1.87,2.5,1.5S189.88,128.52,189.34,127.31Z" fill="#6b18b5"/><path d="M192.9,140.3c-.74-1.56-2.27-2.43-3.43-1.94s-1.5,2.15-.77,3.71,2.28,2.43,3.44,1.94S193.64,141.86,192.9,140.3Z" fill="#6b18b5"/><path d="M196.71,149.82c.24-1.95-.57-3.74-1.81-4s-2.43,1.11-2.67,3.06.57,3.75,1.81,4S196.47,151.77,196.71,149.82Z" fill="#6b18b5"/><path d="M190.6,151.22c.76-1.82.48-3.76-.64-4.35s-2.65.4-3.41,2.21-.48,3.76.64,4.35S189.83,153,190.6,151.22Z" fill="#6b18b5"/><path d="M187.82,147.12a1.6,1.6,0,1,0-1.6,1.67A1.64,1.64,0,0,0,187.82,147.12Z" fill="#6b18b5"/><path d="M186.54,143a1.44,1.44,0,1,0-1.43,1.51A1.48,1.48,0,0,0,186.54,143Z" fill="#6b18b5"/><path d="M187.89,135c0-1.41-.62-2.55-1.39-2.55s-1.4,1.14-1.4,2.55.63,2.55,1.4,2.55S187.89,136.42,187.89,135Z" fill="#6b18b5"/><path d="M192.18,134.4c.19-1.4-.28-2.61-1-2.72s-1.53.95-1.72,2.35.28,2.61,1.05,2.71S192,135.79,192.18,134.4Z" fill="#6b18b5"/><path d="M222.76,73.39c.57-2,0-4-1.31-4.44s-2.79.75-3.36,2.73,0,4,1.31,4.43S222.2,75.37,222.76,73.39Z" fill="#6b18b5"/><path d="M217,82.19c1.7-1.45,2.43-3.45,1.62-4.47s-2.83-.68-4.54.77-2.43,3.45-1.62,4.48S215.26,83.64,217,82.19Z" fill="#6b18b5"/><path d="M213.57,77.31c1.68-1.25,2.4-3,1.61-3.85s-2.81-.58-4.5.67-2.4,3-1.6,3.84S211.88,78.55,213.57,77.31Z" fill="#6b18b5"/><path d="M226.63,68.72c1.13-.87,1.62-2.07,1.08-2.68s-1.89-.41-3,.46-1.62,2.07-1.08,2.68S225.49,69.59,226.63,68.72Z" fill="#6b18b5"/><path d="M219.82,77c.78-1.2.83-2.49.12-2.89s-1.92.26-2.7,1.46-.83,2.49-.11,2.89S219.05,78.24,219.82,77Z" fill="#6b18b5"/><path d="M229.65,71.9c1.22-1,1.69-2.4,1.06-3.05s-2.14-.35-3.36.68-1.7,2.4-1.06,3S228.42,72.93,229.65,71.9Z" fill="#6b18b5"/><path d="M211.89,83.89c1.14,0,2-.62,1.93-1.27s-1.07-1.12-2.21-1.06-2,.62-1.93,1.27,1.07,1.12,2.21,1.06Z" fill="#6b18b5"/><path d="M233.39,65.52c.77-1.2.83-2.49.11-2.89s-1.92.26-2.69,1.46-.83,2.49-.12,2.89S232.61,66.72,233.39,65.52Z" fill="#6b18b5"/><path d="M318,72.59s6-2.77,7.74-8-5.21-5.22-6.13-3.58.79,5.74.35,6.82-2.89,3.7-2,4.71Z" fill="#ffd200" stroke="#ef8a10" stroke-width="0.93"/><path d="M264.63,74.48s3.91-5.36,2.89-10.71-7.09-2-7.09-.15,3.47,4.64,3.62,5.79-.73,4.64.58,5.07Z" fill="#ffd200" stroke="#ef8a10" stroke-width="1.16"/><path d="M254.06,77.67S258,72.31,257,67s-7.09-2-7.09-.14,3.47,4.63,3.62,5.79-.73,4.63.58,5.07Z" fill="#ffd200" stroke="#ef8a10" stroke-width="1.16"/><path d="M242.33,81.29s3.91-5.36,2.89-10.72-7.09-2-7.09-.14,3.47,4.63,3.62,5.79-.73,4.63.58,5.07Z" fill="#ffd200" stroke="#ef8a10" stroke-width="1.16"/><path d="M234.08,89.54S238,84.18,237,78.83s-7.09-2-7.09-.15,3.47,4.63,3.62,5.79-.73,4.64.58,5.07Z" fill="#ffd200" stroke="#ef8a10" stroke-width="1.16"/><path d="M225.39,97.5s3.91-5.35,2.89-10.71-7.09-2-7.09-.14,3.47,4.63,3.62,5.79-.72,4.63.58,5.06Z" fill="#ffd200" stroke="#ef8a10" stroke-width="1.16"/><path d="M245.36,51.11s-5.21,4.11-5.67,9.54,6.29,3.86,6.79,2.05-2.1-5.4-1.93-6.55,1.95-4.27.81-5Z" fill="#ffd200" stroke="#ef8a10" stroke-width="0.93"/><path d="M262.73,45.75s-5.2,4.11-5.67,9.54,6.29,3.87,6.8,2.05-2.1-5.39-1.93-6.55,1.94-4.27.81-5Z" fill="#ffd200" stroke="#ef8a10" stroke-width="0.93"/><path d="M198,92.66s1.1,6.54,5.64,9.56,6.41-3.66,5.06-5S203,96.49,202,95.79s-2.81-3.76-4-3.13Z" fill="#ffd200" stroke="#ef8a10" stroke-width="0.93"/><path d="M189.31,114.87s.06,6.63,4.06,10.33,6.91-2.61,5.79-4.12-5.56-1.65-6.36-2.49-2.18-4.15-3.49-3.72Z" fill="#ffd200" stroke="#ef8a10" stroke-width="0.93"/><path d="M209.33,139.67s-2.37-6.19-7.41-8.26-5.56,4.85-4,5.88,5.78-.4,6.83.11,3.5,3.13,4.57,2.27Z" fill="#ffd200" stroke="#ef8a10" stroke-width="0.93"/><path d="M205.17,129s4-5.28,3.11-10.66-7.06-2.16-7.09-.28,3.38,4.7,3.5,5.86-.81,4.62.48,5.08Z" fill="#ffd200" stroke="#ef8a10" stroke-width="0.93"/><path d="M330.31,78s6-2.78,7.74-8-5.21-5.22-6.13-3.58.78,5.74.35,6.82-2.89,3.7-2,4.71Z" fill="#ffd200" stroke="#ef8a10" stroke-width="0.93"/><path d="M348.52,87s3.54-5.61,2.17-10.89-7.21-1.55-7.09.33,3.78,4.39,4,5.54-.41,4.67.92,5Z" fill="#ffd200" stroke="#ef8a10" stroke-width="0.93"/><path d="M398.22,138.63s-2.38-6.19-7.43-8.25-5.55,4.86-4,5.88,5.78-.4,6.83.11,3.49,3.12,4.57,2.26Z" fill="#ffd200" stroke="#ef8a10" stroke-width="0.93"/><path d="M373.92,142.48s.13-6.63,4.19-10.28,6.87,2.69,5.73,4.19-5.57,1.58-6.39,2.41-2.23,4.12-3.53,3.68Z" fill="#ffd200" stroke="#ef8a10" stroke-width="0.93"/><path d="M370,72.17s-6.2-2.36-11.09,0-.09,7.38,1.73,6.89,3.55-4.58,4.63-5,4.66-.52,4.73-1.89Z" fill="#ffd200" stroke="#ef8a10" stroke-width="0.93"/><path d="M355.82,60.29s-6.2-2.35-11.1,0-.08,7.38,1.73,6.88,3.55-4.57,4.63-5,4.66-.52,4.74-1.9Z" fill="#ffd200" stroke="#ef8a10" stroke-width="0.93"/><path d="M334.65,49s-5.25,4.05-5.78,9.47,6.24,3.94,6.77,2.13-2-5.42-1.85-6.57,2-4.25.86-5Z" fill="#ffd200" stroke="#ef8a10" stroke-width="0.93"/><path d="M320.89,45.66s-2.4,6.18,0,11.1,7.38.13,6.89-1.69-4.55-3.58-5-4.67-.49-4.66-1.86-4.74Z" fill="#ffd200" stroke="#ef8a10" stroke-width="0.93"/><path d="M281.8,69.49s4.29-5.06,3.67-10.48-6.93-2.54-7.07-.66,3.13,4.87,3.19,6-1.06,4.57.21,5.1Z" fill="#ffd200" stroke="#ef8a10" stroke-width="0.93"/><path d="M389.06,141.91a6.24,6.24,0,0,0-2.45-4.47,2.78,2.78,0,0,0-3.73.47,6.91,6.91,0,0,0,1.17,9.4,2.79,2.79,0,0,0,3.74-.46,6.29,6.29,0,0,0,1.27-4.94Z" fill="#de2010" stroke="#000" stroke-width="1.14"/><path d="M388.26,132.12a6.22,6.22,0,0,0-2.45-4.47,2.77,2.77,0,0,0-3.73.46,6.92,6.92,0,0,0,1.17,9.41,2.79,2.79,0,0,0,3.74-.47,6.25,6.25,0,0,0,1.27-4.93Z" fill="#de2010" stroke="#000" stroke-width="1.14"/><path d="M386.27,121.66a6.26,6.26,0,0,0-2.83-4.24,2.78,2.78,0,0,0-3.68.79,6.94,6.94,0,0,0,2,9.27,2.78,2.78,0,0,0,3.68-.8,6.21,6.21,0,0,0,.83-5Z" fill="#de2010" stroke="#000" stroke-width="1.14"/><path d="M382.65,110.73a6.27,6.27,0,0,0-3.82-3.38,2.78,2.78,0,0,0-3.35,1.71,6.92,6.92,0,0,0,4.29,8.45,2.78,2.78,0,0,0,3.35-1.71A6.28,6.28,0,0,0,382.65,110.73Z" fill="#de2010" stroke="#000" stroke-width="1.14"/><path d="M378.77,102A6.27,6.27,0,0,0,375,98.58a2.78,2.78,0,0,0-3.35,1.71,6.92,6.92,0,0,0,4.29,8.45,2.8,2.8,0,0,0,3.36-1.71A6.24,6.24,0,0,0,378.77,102Z" fill="#de2010" stroke="#000" stroke-width="1.14"/><path d="M373.27,93.14a6.26,6.26,0,0,0-4.1-3,2.78,2.78,0,0,0-3.19,2,6.92,6.92,0,0,0,5,8.06,2.79,2.79,0,0,0,3.2-2A6.27,6.27,0,0,0,373.27,93.14Z" fill="#de2010" stroke="#000" stroke-width="1.14"/><path d="M367.14,84.65A6.22,6.22,0,0,0,362.77,82a2.78,2.78,0,0,0-3,2.28,6.94,6.94,0,0,0,5.75,7.53,2.78,2.78,0,0,0,3-2.28A6.23,6.23,0,0,0,367.14,84.65Z" fill="#de2010" stroke="#000" stroke-width="1.14"/><path d="M359.83,76.72a6.3,6.3,0,0,0-4.7-2,2.79,2.79,0,0,0-2.63,2.69,6.93,6.93,0,0,0,6.78,6.63,2.78,2.78,0,0,0,2.63-2.69,6.27,6.27,0,0,0-2.08-4.66Z" fill="#de2010" stroke="#000" stroke-width="1.14"/><path d="M351.6,69.43a6.23,6.23,0,0,0-4.86-1.52,2.78,2.78,0,0,0-2.37,2.92,6.93,6.93,0,0,0,7.36,6,2.78,2.78,0,0,0,2.37-2.92A6.27,6.27,0,0,0,351.6,69.43Z" fill="#de2010" stroke="#000" stroke-width="1.14"/><path d="M342.89,63.62a6.23,6.23,0,0,0-5.05-.7A2.78,2.78,0,0,0,336,66.19a6.9,6.9,0,0,0,8.25,4.66,2.77,2.77,0,0,0,1.85-3.27A6.25,6.25,0,0,0,342.89,63.62Z" fill="#de2010" stroke="#000" stroke-width="1.14"/><path d="M333.13,58.45a6.3,6.3,0,0,0-5.09-.24,2.77,2.77,0,0,0-1.54,3.43,6.91,6.91,0,0,0,8.63,3.9,2.79,2.79,0,0,0,1.55-3.43,6.25,6.25,0,0,0-3.55-3.66Z" fill="#de2010" stroke="#000" stroke-width="1.14"/><path d="M323.56,54.6a6.2,6.2,0,0,0-5.09.1,2.78,2.78,0,0,0-1.31,3.53,6.91,6.91,0,0,0,8.88,3.3A2.77,2.77,0,0,0,327.35,58,6.26,6.26,0,0,0,323.56,54.6Z" fill="#de2010" stroke="#000" stroke-width="1.14"/><path d="M313.84,51.55a6.24,6.24,0,0,0-5.07.49,2.78,2.78,0,0,0-1,3.62,6.91,6.91,0,0,0,9.11,2.61,2.78,2.78,0,0,0,1-3.61A6.25,6.25,0,0,0,313.84,51.55Z" fill="#de2010" stroke="#000" stroke-width="1.14"/><path d="M303.14,49.72A6.29,6.29,0,0,0,298.2,51a2.79,2.79,0,0,0-.47,3.73,6.91,6.91,0,0,0,9.4,1.19,2.77,2.77,0,0,0,.47-3.73A6.24,6.24,0,0,0,303.14,49.72Z" fill="#de2010" stroke="#000" stroke-width="1.14"/><path d="M292.57,49.13a6.27,6.27,0,0,0-4.81,1.68,2.78,2.78,0,0,0-.15,3.76,6.91,6.91,0,0,0,9.47.38,2.78,2.78,0,0,0,.15-3.76,6.23,6.23,0,0,0-4.66-2.06Z" fill="#de2010" stroke="#000" stroke-width="1.14"/><path d="M282.89,49.47a6.27,6.27,0,0,0-4.81,1.68,2.78,2.78,0,0,0-.15,3.76,6.91,6.91,0,0,0,9.47.38,2.78,2.78,0,0,0,.15-3.76,6.25,6.25,0,0,0-4.66-2.06Z" fill="#de2010" stroke="#000" stroke-width="1.14"/><path d="M271.55,50.81a6.25,6.25,0,0,0-4.2,2.89,2.76,2.76,0,0,0,.83,3.66,6.91,6.91,0,0,0,9.24-2.11,2.76,2.76,0,0,0-.84-3.66A6.24,6.24,0,0,0,271.55,50.81Z" fill="#de2010" stroke="#000" stroke-width="1.14"/><path d="M261.23,53.4a6.24,6.24,0,0,0-4,3.22,2.79,2.79,0,0,0,1.13,3.59,6.94,6.94,0,0,0,9-2.87,2.79,2.79,0,0,0-1.14-3.59A6.26,6.26,0,0,0,261.23,53.4Z" fill="#de2010" stroke="#000" stroke-width="1.14"/><path d="M251.81,57.43a6.27,6.27,0,0,0-3.54,3.67,2.78,2.78,0,0,0,1.56,3.42,6.92,6.92,0,0,0,8.63-3.92,2.78,2.78,0,0,0-1.56-3.42A6.22,6.22,0,0,0,251.81,57.43Z" fill="#de2010" stroke="#000" stroke-width="1.14"/><path d="M242.42,62.24a6.24,6.24,0,0,0-3.21,4,2.78,2.78,0,0,0,1.84,3.28,6.91,6.91,0,0,0,8.26-4.64,2.78,2.78,0,0,0-1.84-3.28A6.26,6.26,0,0,0,242.42,62.24Z" fill="#de2010" stroke="#000" stroke-width="1.14"/><path d="M233.53,68.27a6.26,6.26,0,0,0-2.76,4.28A2.78,2.78,0,0,0,233,75.61a6.92,6.92,0,0,0,7.71-5.51A2.78,2.78,0,0,0,238.48,67,6.24,6.24,0,0,0,233.53,68.27Z" fill="#de2010" stroke="#000" stroke-width="1.14"/><path d="M225.31,74.5a6.24,6.24,0,0,0-2.39,4.5,2.79,2.79,0,0,0,2.44,2.87,6.91,6.91,0,0,0,7.21-6.15,2.77,2.77,0,0,0-2.43-2.86A6.26,6.26,0,0,0,225.31,74.5Z" fill="#de2010" stroke="#000" stroke-width="1.14"/><path d="M218.06,82.08A6.23,6.23,0,0,0,216,86.75a2.78,2.78,0,0,0,2.63,2.68,6.93,6.93,0,0,0,6.76-6.65,2.78,2.78,0,0,0-2.64-2.68A6.21,6.21,0,0,0,218.06,82.08Z" fill="#de2010" stroke="#000" stroke-width="1.14"/><path d="M211.81,90.51a6.26,6.26,0,0,0-1.67,4.82A2.79,2.79,0,0,0,213,97.78a6.91,6.91,0,0,0,6.17-7.19,2.78,2.78,0,0,0-2.85-2.45A6.24,6.24,0,0,0,211.81,90.51Z" fill="#de2010" stroke="#000" stroke-width="1.14"/><path d="M206.09,99.14a6.27,6.27,0,0,0-1.14,5,2.78,2.78,0,0,0,3.1,2.13,6.92,6.92,0,0,0,5.37-7.81,2.78,2.78,0,0,0-3.09-2.13A6.27,6.27,0,0,0,206.09,99.14Z" fill="#de2010" stroke="#000" stroke-width="1.14"/><path d="M201.33,108.93a6.27,6.27,0,0,0-.27,5.09,2.78,2.78,0,0,0,3.42,1.56,6.91,6.91,0,0,0,4-8.61A2.79,2.79,0,0,0,205,105.4,6.29,6.29,0,0,0,201.33,108.93Z" fill="#de2010" stroke="#000" stroke-width="1.14"/><path d="M197.56,119.15a6.24,6.24,0,0,0,.2,5.1,2.78,2.78,0,0,0,3.54,1.25,6.93,6.93,0,0,0,3.16-8.94,2.78,2.78,0,0,0-3.55-1.25A6.25,6.25,0,0,0,197.56,119.15Z" fill="#de2010" stroke="#000" stroke-width="1.14"/><path d="M194.29,138.51a4.4,4.4,0,0,0,1.43,3.92,3.3,3.3,0,0,0,3.75.28,4.74,4.74,0,0,0,2.3-3.64,4.34,4.34,0,0,0-1.43-3.92,3.26,3.26,0,0,0-3.74-.28,4.78,4.78,0,0,0-2.31,3.64Z" fill="#de2010" stroke="#000" stroke-width="1.02"/><path d="M195.16,129.47a6.26,6.26,0,0,0,.78,5,2.79,2.79,0,0,0,3.67.84,6.92,6.92,0,0,0,2.1-9.24,2.77,2.77,0,0,0-3.66-.84A6.28,6.28,0,0,0,195.16,129.47Z" fill="#de2010" stroke="#000" stroke-width="1.14"/><path d="M381.26,124.84c1.19-1.27,2.3-1.63,3.7-1.17-.5-3.36-1.56-4.5-2.86-4.1s-1.88,2.14-.84,5.27Z" fill="#ffe300"/><path d="M383.08,135c1.28-1.18,2.41-1.46,3.78-.89-.24-3.39-1.22-4.6-2.54-4.3s-2,2-1.24,5.19Z" fill="#ffe300"/><path d="M378.77,115.58c.83-1.53,1.81-2.16,3.28-2.07-1.33-3.12-2.65-4-3.8-3.24s-1.28,2.55.52,5.31Z" fill="#ffe300"/><path d="M374.26,106.35a3.23,3.23,0,0,1,3.28-2.07c-1.33-3.13-2.65-4-3.8-3.24s-1.28,2.54.52,5.31Z" fill="#ffe300"/><path d="M363.43,89.43c.57-1.64,1.43-2.42,2.9-2.57-1.81-2.87-3.25-3.48-4.27-2.58s-.85,2.71,1.37,5.15Z" fill="#ffe300"/><path d="M356.35,82.06c.51-1.66,1.34-2.48,2.81-2.68-1.93-2.8-3.39-3.35-4.37-2.42s-.75,2.75,1.56,5.1Z" fill="#ffe300"/><path d="M341.47,69.51c0-1.74.52-2.77,1.85-3.41-2.69-2.08-4.25-2.16-4.9-1s.13,2.84,3.05,4.37Z" fill="#ffe300"/><path d="M349.21,75.31c.28-1.72,1-2.64,2.41-3-2.29-2.5-3.81-2.85-4.66-1.79s-.36,2.82,2.25,4.83Z" fill="#ffe300"/><path d="M332.64,64.63c-.21-1.73.22-2.81,1.48-3.58-2.89-1.78-4.45-1.7-5-.45s.42,2.81,3.49,4Z" fill="#ffe300"/><path d="M323.61,60.69c-.46-1.68-.18-2.81.95-3.76-3.11-1.35-4.64-1-5,.27s.82,2.72,4,3.49Z" fill="#ffe300"/><path d="M313.88,57.68c-.59-1.64-.41-2.79.64-3.83-3.22-1.08-4.72-.65-4.95.69s1.05,2.64,4.31,3.14Z" fill="#ffe300"/><path d="M304.33,55.83c-.71-1.59-.62-2.75.35-3.86-3.29-.85-4.75-.31-4.88,1s1.24,2.56,4.53,2.82Z" fill="#ffe300"/><path d="M294.21,55.05a3.22,3.22,0,0,1,0-3.88c-3.36-.5-4.76.19-4.75,1.55s1.5,2.42,4.8,2.33Z" fill="#ffe300"/><path d="M274.4,56.55c-1.21-1.26-1.52-2.38-1-3.76-3.38.33-4.58,1.33-4.24,2.65s2,2,5.22,1.11Z" fill="#ffe300"/><path d="M284.15,55.26c-1-1.4-1.18-2.56-.46-3.85-3.4-.13-4.72.7-4.56,2.05s1.75,2.24,5,1.8Z" fill="#ffe300"/><path d="M264.83,58.61c-1.38-1.06-1.84-2.13-1.51-3.57-3.3.81-4.33,2-3.81,3.22s2.3,1.68,5.32.35Z" fill="#ffe300"/><path d="M246.51,67c-1.55-.79-2.21-1.75-2.16-3.22-3.09,1.42-3.88,2.76-3.13,3.89s2.58,1.2,5.29-.67Z" fill="#ffe300"/><path d="M255.35,62.52c-1.46-1-2-2-1.76-3.46-3.24,1-4.19,2.27-3.58,3.49s2.41,1.51,5.34,0Z" fill="#ffe300"/><path d="M230.08,78.48c-1.68-.45-2.53-1.25-2.78-2.7-2.73,2-3.23,3.51-2.25,4.45s2.77.65,5-1.75Z" fill="#ffe300"/><path d="M237.92,72.06c-1.65-.57-2.42-1.44-2.56-2.91-2.88,1.81-3.49,3.25-2.6,4.27s2.72.86,5.16-1.36Z" fill="#ffe300"/><path d="M223.12,85.34c-1.72-.29-2.63-1-3-2.43-2.53,2.27-2.89,3.78-1.84,4.64s2.82.39,4.86-2.21Z" fill="#ffe300"/><path d="M216.87,93.44c-1.74-.13-2.71-.77-3.23-2.15-2.31,2.49-2.53,4-1.4,4.79s2.84.13,4.63-2.64Z" fill="#ffe300"/><path d="M211.65,101.72c-1.74.14-2.8-.34-3.52-1.63-1.9,2.82-1.88,4.38-.65,5s2.82-.3,4.17-3.32Z" fill="#ffe300"/><path d="M207.06,110.57a3.24,3.24,0,0,1-3.7-1.16c-1.52,3-1.3,4.58,0,5s2.77-.67,3.71-3.83Z" fill="#ffe300"/><path d="M203.4,119.65c-1.63.62-2.78.46-3.84-.56-1,3.24-.56,4.73.78,4.93s2.62-1.1,3.06-4.37Z" fill="#ffe300"/><path d="M200.94,129.76c-1.58.74-2.74.66-3.87-.3-.8,3.31-.24,4.76,1.11,4.87s2.55-1.27,2.76-4.57Z" fill="#ffe300"/><path d="M199.94,138.18a3.91,3.91,0,0,1-3.87.29c-.44,2.69.27,3.75,1.62,3.66s2.39-1.34,2.25-3.95Z" fill="#ffe300"/><path d="M370.23,98.12c.59-1.64,1.47-2.4,2.94-2.52-1.77-2.9-3.2-3.53-4.23-2.65s-.89,2.7,1.29,5.17Z" fill="#ffe300"/><path d="M384.19,145.27c1.28-1.18,2.41-1.46,3.78-.89-.24-3.39-1.22-4.61-2.54-4.3s-2,2-1.24,5.19Z" fill="#ffe300"/><path d="M362.85,101.94s3.55-5.6,2.18-10.88-7.22-1.55-7.09.33,3.78,4.39,4,5.54-.42,4.67.91,5Z" fill="#ffd200" stroke="#ef8a10" stroke-width="0.48"/><path d="M370.89,90.1c-.05,0-3.85,3.8-3.19,8.42s3.6,10.33,3.06,15.12a59,59,0,0,1-1.4,8s4.46-5.08,4.5-10-3.06-11.28-3.06-14.87.17-6.78.09-6.69Z" fill="#217900" stroke="#000" stroke-linejoin="round" stroke-width="0.93"/><path d="M378,105.63s-3,2.19-2.69,7.23,5.5,14.29,5.5,14.29,3.8,7.81,3.68,9.83.7-1.94.33-6.4-6.12-14.29-6.12-14.29a10.24,10.24,0,0,1-1.11-5.37c.12-3.35.45-5.25.41-5.29Z" fill="#217900" stroke="#000" stroke-linejoin="round" stroke-width="0.93"/><path d="M295.21,55.31s12.76.5,12.84,8.76a53.58,53.58,0,0,1-.45,6.49,8.6,8.6,0,0,0,3.88-7.6c0-8.39-11.4-14.13-16.27-7.65Z" fill="#217900" stroke="#000" stroke-linejoin="round" stroke-width="1.16"/><path d="M287.11,54.94s10.29-2.15,10.37,6.12-3.26,9.58-3.26,9.58,7.89-1.69,7.93-10.08-10.16-12.1-15-5.62Z" fill="#217900" stroke="#000" stroke-linejoin="round" stroke-width="1.16"/><path d="M387,149.61c.24,3.71,3.86,7.26,2.44,13.72-1.81,7.34-8.2,24.77-7.09,27.84-1.9-2.6-1.58-5-1.74-8.67s5.29-17.12,5.76-21.69a105.6,105.6,0,0,1,.63-11.2Z" fill="#217900" stroke="#000" stroke-linejoin="round" stroke-width="1.16"/><path d="M387,149.69s5.91,7.49,5.6,13.41S389,176,390.11,179c-1.9-2.6-2.37-4.26-2.53-7.89s2.92-7.65,2.29-11.59-2.92-9.86-2.84-9.86Z" fill="#217900" stroke="#000" stroke-linejoin="round" stroke-width="1.16"/><path d="M193.28,151.35c-.24,3.7-3,7-1.58,13.48,1.81,7.34,8.28,16.64,7.25,27.29,1.9-2.61,2.45-5.52,2.61-9.15s-7.18-15.85-7.65-20.43a108,108,0,0,0-.63-11.19Z" fill="#217900" stroke="#000" stroke-linejoin="round" stroke-width="1.16"/><path d="M193.28,151.43s-5.76,7.25-5.44,13.17c.07,3.94,7.33,20.42,6.23,23.5,1.89-2.61,2.44-2.29,2.36-6.23-2.13-10.1-5.91-16.56-5.28-20.51s2.21-9.93,2.13-9.93Z" fill="#217900" stroke="#000" stroke-linejoin="round" stroke-width="1.16"/><path d="M305.13,80.34s10.28.65,10.78,6.54a13.85,13.85,0,0,1-2.44,9.49s1.29,12.72-8.77,16.46c-10.78,1.29-27.66.28-27.66.28s-5,1.23-7-9a169.84,169.84,0,0,1-2.59-17.53s1-5.75,8.26-6.11,29.32.07,29.39-.07Z" fill="#8c8a8c" stroke="#000" stroke-width="0.93"/><path d="M313.4,96.3s-5.54,6.9-5,9.7" fill="none" stroke="#000" stroke-linecap="round" stroke-width="0.93"/><path d="M306,112.47c1.36,1.15,2.65,2.44,2.94,6.68l.58,8.48,7.18,64.68L323,239.09l.43,7.26s-1.51,5.32-5.75,5.75c-3.09,6.47-19.83,8.33-21.49,8.26s-6.82-2.3-10.06-2-8.84,2.44-11.35,2.08-8.2-2.3-9.2-6.39c-7-2.23-8.19-7.62-8.19-7.62L265,192.31l7.41-68.42s.86-9.12,4.52-10.49c3.81-.36,23.5.36,29-.93Z" fill="#8c8a8c" stroke="#000" stroke-width="0.93"/><path d="M267.19,206.11,265.68,254" fill="none" stroke="#000" stroke-width="0.93"/><path d="M313.68,212.43l4.24,39.45" fill="none" stroke="#000" stroke-width="0.93"/><path d="M291.63,85.08,306,129.19h46.37l-37.51,27.26,14.33,44.11L291.63,173.3l-37.51,27.26,14.33-44.11-37.52-27.26H277.3Z" fill="#fff" stroke="#000" stroke-linejoin="round" stroke-width="0.97"/></svg>