<svg xmlns="http://www.w3.org/2000/svg" width="244" height="300" viewBox="0 0 244 300"><title>flag-oregon-icon-date</title><path d="M2.11,182.21H21.38V114.3H2.11Z" fill="none" stroke="#000" stroke-linecap="round" stroke-linejoin="round" stroke-width="2"/><path d="M60.83,148.27c-8.28-1.16-11.16-6.43-11.16-15.28,0-13.82,11-17.7,22.25-17.7,12.17,0,21.41,3.78,21.41,17.7,0,8.37-2.14,14.32-9.54,15.38v.5c9.55,1,14.84,9,14.84,19.52,0,16-15.72,17.17-28.56,17.17-11.78,0-25.13-4.91-25.13-18.95,0-10.61,6.15-16.78,15.89-18Zm21.5,15.38c0-6.41-4.67-9.25-10.41-9.25s-10.42,2.84-10.42,9.25,4.67,9.25,10.42,9.25S82.33,170.09,82.33,163.65Zm-19.47-29.3c0,5.25,3.7,8.37,9.06,8.37s9-3.12,9-8.37-3.7-8.36-9-8.36-9.06,3.11-9.06,8.36" fill="none" stroke="#000" stroke-linecap="round" stroke-linejoin="round" stroke-width="2"/><path d="M124,164.27c1.77,1.17,7.53,4.71,12.4,4.71,6.72,0,8.83-1.94,8.83-7.68,0-6.21-2.93-10.62-5.88-10.37-3.39.27-11.91,1.56-12.39,5.07l-10.63-4.12L123,117.15l37.61.07v12.65L137,129.45l-2.36,10.62c.58-1.78,1.15-.6,8.26-.6,13.14,0,21.24,8.11,21.24,20.65,0,15.68-9.41,24.2-24.79,24.2-14.21,0-18.28-4.72-21.24-5.89l5.9-14.16" fill="none" stroke="#000" stroke-linecap="round" stroke-linejoin="round" stroke-width="2"/><path d="M194.22,169.57c.1,2.24,7,.93,8.69,1.9s3.45-1,5.46-1.31c4.13-.59,9.65-3.73,10-12.38-3.79,4.76-9.25,4.33-15.33,3.52C194.22,160.12,186,152,186,138.89c0-16.26,9.08-23.3,23.87-23.68,19.78-.5,27.55,17.4,26.87,37.84-.29,9.35-4.37,19.82-8.26,23.62-6.92,6.7-14.17,8.24-20.36,8.81-11.93,1.11-19.18-2.33-19.18-2.33Zm15.32-41.7c-6.52,0-10.52,4-10.52,10.12,0,7,4.48,10.11,10.52,10.11A10.11,10.11,0,0,0,220.05,138c0-6.53-4.19-10.12-10.51-10.12" fill="none" stroke="#000" stroke-linecap="round" stroke-linejoin="round" stroke-width="2"/></svg>