<svg xmlns="http://www.w3.org/2000/svg" width="600" height="400" viewBox="0 0 600 400"><path fill="#008457" d="M0 0h600v400H0z"/><path d="M299.39 318.19c-65.38 0-118.7-53.33-118.7-118.71S234 80.78 299.39 80.78 418.1 134.1 418.1 199.48s-53.33 118.71-118.71 118.71z" fill="#ffd520" fill-rule="evenodd"/><path d="M298.84 110.94a88.58 88.58 0 11-88.57 88.58 88.75 88.75 0 0188.57-88.58z" fill="#34c2de" stroke="#000" stroke-miterlimit="2.61" stroke-width=".5"/><path d="M263.88 280.49c18.14 8.63 37.38 7.62 37.46 7.61 22.53-.9 48.43-8 67.49-33.82l-2.83-2.54c-6.31-6.22-12.84-14.12-18-17.4l-6.64-7a30.23 30.23 0 01-5.54-3.64c-.16-.21-1.11-4.75-1.11-4.75.58.58 1-2 0-2.84l-.21-6.11 2.53-.64 2.53-1.11 2.85-2.37c1.34 0 3.82-1.29 5.53-1.58l.95-2.85c1.4-2.71 3.9-4 6-6.11a15.73 15.73 0 001.15-1.48c-.54-.79.84-2.27.85-2.3.13-.44-2.23-.25-2.27-.71v-2.06c-.21-2.38-.79-.44-1.22-3.58s-1.66-2.61-1.78-3.34L351 181a13 13 0 00-1.2-2.13l-2.59-1-1.52-.94 3-6.06c.59-2.11.76-2.56.12-2.56s0-.7.25-.75.45-.58.29-.95-.83-.1-.75-.45l.38-1.53s-.07-1-.17-1.74a3.88 3.88 0 00-.33-1.24c-.15-.4-2.17-2.66-2.15-3.23l-2.53.16a28 28 0 00-3-4.91l-3.25-5.27c-.58-.12-5.23-7.26-9.59-7.26-.37-1.32-5.19-4.1-6.22-4.75a32.48 32.48 0 01-5.22-2.13c-2-2-12.23-3.74-16.57-4.2-5.17 1.16-2.92 0-7 1.6-6.12.54-10.13 1.82-14.43 4.59-3 2.15-4 3.57-6.62 6.4-.66.71-2.89 4-3.12 4.25-.45.57-2.21 3.65-2.4 3.92a32.53 32.53 0 00-5.82 15.82c-2.5 1.95-5.11 6.85-5.36 7.57s-1.94 6.17-2.19 6.25c.05.83-.89 1.69-1.45 2.51-.26.39-4.55 10.38-4.53 10.46.76 3.44 2.72 7.5 6.82 9.53.08 0 0 2 .69 2.4 1.22.84 5.33 2.94 5.92 3.2 3 1.34 2.61 3.36 2.81 4.26 2.61 11.84 10.17 14 10.17 14l2.68 3.76s-10.54 2.15-10.54 4.59c0 3.68 1.37 7.57.12 11.08-1.35 3.81-2.49 5.8-2.36 9.57-6.5 3.76-13.44 8.07-20.06 12.12a99.79 99.79 0 0020.55 12.58z" fill="#fff" fill-rule="evenodd"/><path d="M301.9 142.26s-1.94-1.67-8-2.36c-3.73-.42-4.82-.35-7.21-.48s-9 1.62-11.38 2.41c-2.52.84-3.48 2.32-5.26 4.43-1.61 1.92-2.91 4.11-4.07 5.72s-4.73 10.59-5.05 13.76c-.43 4.18-.3 9.6-.3 11.25s.75 8.55.82 10.41-.63 7.5-.32 9.07.48 5 .66 8a45.65 45.65 0 00.74 5s.64 2.38.78 3.39a32.28 32.28 0 003.15 8.1 22 22 0 006.74 6c2.64 1.4 9 5.58 21.54 1.67s16.89-8 19.56-12.16 4.95-14.41 4.95-15.85.41-12.15 0-13.39a48.78 48.78 0 00-1.65-5.15c-.62-1.23-1.05-3.62-1.82-4.5-1.21-1.36-2.91-3.54-2.89-5.69 0-2.64-.8-4.08-.4-7.21.28-2.2 1.07-6.45 1.28-7.69a13.65 13.65 0 00-.64-6.25 31.22 31.22 0 00-4-5.29c-2.68-2.72-7.23-3.19-7.23-3.19z" fill="#fdd6c6" fill-rule="evenodd"/><path d="M299.39 78.8c66.4 0 120.55 54.21 120.55 120.68s-54.15 120.69-120.55 120.69S178.85 266 178.85 199.48 233 78.8 299.39 78.8z" fill="none" stroke="#000" stroke-width="2.88"/><path d="M281.22 306.51l2.78-13.14-.54-.13a6.85 6.85 0 01-4.92.62l-.16.95 2 .42c.79.16 1 .33.87.9l-2.07 9.93c-.2.91-.58 1-1.69.74l-1.49-.29-.21 1 8.07 1.74.24-1-1.57-.33c-1.11-.25-1.49-.46-1.28-1.37zM290.94 302.05a3.9 3.9 0 01-2.52-3.8c.08-2.49 2.06-4.18 4.75-4.1s4.26 1.61 4.18 3.68c0 1.41-.87 2.48-2.48 3.31 2.06.91 3.14 2.27 3.1 4.22-.13 2.81-2.4 4.92-5.79 4.75-3-.12-4.76-1.82-4.67-4.38.08-1.74 1.24-3.06 3.43-3.68zm.87.41a3.46 3.46 0 00-2.53 3.35c-.08 2 1.12 3.18 3.23 3.27s3.51-1.12 3.6-3-1.28-2.52-4.3-3.6zm2.27-1.65a3.58 3.58 0 001.74-2.94 2.6 2.6 0 00-2.81-2.81c-1.74 0-2.81.87-2.86 2.36s1.16 2.48 3.93 3.39zM303.63 302.42a3.84 3.84 0 01-2.77-3.6 4.23 4.23 0 014.43-4.42c2.64-.08 4.34 1.28 4.42 3.35a3.85 3.85 0 01-2.23 3.47c2.11.75 3.27 2.07 3.35 4 .08 2.82-2 5-5.46 5.13-3 .13-4.84-1.53-4.92-4-.08-1.78 1-3.18 3.18-3.93zm.87.37a3.39 3.39 0 00-2.23 3.56c.08 2 1.28 3.06 3.39 3s3.43-1.37 3.39-3.27-1.45-2.44-4.55-3.27zm2.15-1.82a3.53 3.53 0 001.53-3 2.59 2.59 0 00-3-2.64c-1.74.08-2.73 1.07-2.69 2.52s1.32 2.4 4.13 3.14zM320.26 297.13c.45 2.15-.38 3.76-2.11 4.13-1.57.33-2.73-.7-3.23-3-.53-2.49.21-4 1.86-4.39s2.94.79 3.48 3.27zm.74 2.77c.91 4.59 0 7.28-2.27 7.77-.91.17-1.45 0-1.53-.37s.37-.66.2-1.36a1.3 1.3 0 00-1.53-.95 1.34 1.34 0 00-1 1.73c.33 1.53 1.86 2.4 4 2 3.6-.79 5.46-4.68 4.38-9.76-.91-4.51-3.55-6.78-6.69-6.12-2.9.58-4.47 3.18-3.81 6.28.58 2.73 2.61 4.14 5 3.64a4.54 4.54 0 003.25-2.86zM253.06 285L248 295.56c-.42.87-.67 1-1.41.7-2.23-1.16-2.36-2.52-1.12-6.49l-.7-.29-2.32 5.58 11.55 5.79 2.89-5.33-.66-.42c-2 3.1-3.47 4.18-5.37 3.23-1-.46-1.24-.62-.75-1.7l5.09-10.54c.33-.79.7-.83 1.53-.46l1.16.62.45-.95-6.64-3.3-.46.95 1.24.57c.83.38 1 .75.58 1.45zM247.48 280.3l-5.62-4-.54.87.91.62c.66.49.74.82.29 1.52l-3.19 4.64-6-4.26 3.14-4.67c.5-.63.87-.71 1.57-.17l.91.66.58-.78-5.53-4.07-.58.83 1 .62c.66.5.78.95.37 1.57l-6.61 9.64c-.46.62-.87.66-1.58.16l-.91-.66-.58.79 5.63 4.05.58-.83-.95-.62c-.66-.54-.79-.95-.37-1.57l2.81-4.05 6 4.3-2.77 3.93c-.45.7-.83.78-1.49.29l-.95-.66-.54.82 5.63 4 .54-.86-.91-.63c-.71-.49-.83-.86-.38-1.57l6.62-9.55c.41-.7.87-.7 1.53-.21l.95.66.54-.82zM233.09 269.42l-9.18-9.55-4.42 4 .53.54c2.11-1.37 3.6-2 4.63-1.62a10.35 10.35 0 013.19 2.53c1 1.11 1.28 1.49.53 2.19l-4.09 4-.12-.17c-1.57-1.73-1.66-2.85-.17-4.54l-.62-.71-5 4.92.62.62c1.74-1.44 2.93-1.32 4.47.34l.16.16-3.56 3.52c-.7.7-1 .45-2-.62-1.41-1.45-2.15-2.53-2.23-3.44a6.55 6.55 0 011.61-3.8l-.66-.66-3.72 4.13 8.72 9.18.75-.7-.83-.83c-.54-.62-.62-1 0-1.57l8.27-8.1c.62-.54 1-.54 1.61.12l.74.79.75-.71zM213.78 246.68a6.25 6.25 0 00-.54-4.67c-1.61-3.15-4.09-3.93-6.82-2.48a4.39 4.39 0 00-2.28 2.81 10.53 10.53 0 00.38 4.13c.74 2.9 1.28 4.47-.54 5.5-1.49.79-2.82.29-3.72-1.44-1.2-2.28-.58-4.59 1.9-6.87l-.41-.7-4.84 2.85.37.66 1.61.21a5.54 5.54 0 00.5 4.34c1.36 2.56 3.72 3.31 6 2.07 2.57-1.41 2.49-3.27 1.7-6.86a12.38 12.38 0 01-.58-3.69 2.36 2.36 0 011.37-1.9c1.61-.87 3.34-.33 4.46 1.82 1.28 2.44.5 5-2.36 7.28l.38.79 5.5-3.11-.29-.7h-1.82zM210.26 236.18L206 223.57l-5.7 1.69.25.75c2.48-.38 4.09-.34 4.87.49a9.3 9.3 0 011.82 3.6c.5 1.49.62 1.94-.45 2.23l-5.29 1.9-.09-.24c-.74-2.2-.28-3.23 1.74-4.1l-.29-.95-6.49 2.36.29.86c2.15-.57 3.14 0 3.89 2.15l.08.25-4.63 1.62c-1 .33-1.12 0-1.62-1.37-.61-1.9-.86-3.22-.57-4.17a6.68 6.68 0 013.06-2.69l-.34-.87-5.12 2.11 4.13 12.16 1-.38-.37-1.07c-.25-.83-.12-1.2.62-1.45l10.88-3.84c.74-.25 1.11 0 1.36.82l.37 1.08.91-.33zM188.93 217.82l-.13-.79 12.45-8.1c.74-.58 1-.91.78-1.7 0-.12-.12-.33-.12-.45l1-.21 1.24 6.41-1 .21-.13-.83c-.2-1-.33-1.24-.82-1.2a4.27 4.27 0 00-.66.37l-2.54 1.53 1.11 5.79 1.74.29a3 3 0 001.36 0c.67-.12.91-.66.75-1.69l-.13-.54 1-.21 1 5.58-1 .21v-.21c-.25-1.24-.87-1.61-2.24-1.94l-13.72-2.52zm9-4.18l-5.66 3.76 6.61 1.2-1-5zM203.15 205.29l.5-12.82-6-.54v.83c2.19.45 3.55 1.07 4.14 1.82s.74 2.15.66 4.13c0 1.41-.13 1.78-1.12 1.78L189.8 200c-.79 0-1-.25-1-1.12v-1.08l-1-.08-.17 7h1v-1.12c0-.87.29-1.2 1.11-1.2l11.5.46c.78 0 1 .29 1 1.2l-.08 1.12 1 .08zM198.19 176.3a8.68 8.68 0 01-5-3.64 7.16 7.16 0 01-.79-5.91 6.76 6.76 0 013.76-4.51 8.17 8.17 0 016.12-.37 8 8 0 014.88 3.39 6.86 6.86 0 011 6.08 6.5 6.5 0 01-4 4.63 7.93 7.93 0 01-5.95.33zm.83-2.69c4.63 1.33 7.27.54 8.14-2.52s-1-5.17-5.62-6.53-7.28-.58-8.15 2.52 1 5.13 5.63 6.53zM210.76 162.53l3.27-6.45-.87-.46-.66 1.25c-.38.82-.71.91-1.45.57l-5-2.64.12-.17c1.07-2.07 2.07-2.44 4.18-1.65l.33-.79-6-3.22-.41.87c1.82 1.19 2.15 2.35 1.07 4.34v.21l-4.47-2.28c-.86-.45-.74-.83-.12-2.07 1-1.82 1.7-2.89 2.56-3.35a6.86 6.86 0 014 .33l.42-.82-5-2.28-5.74 11.46.87.45.49-1c.41-.75.79-.91 1.49-.54l10.16 5.22c.67.37.79.83.38 1.57l-.5 1 .87.41zM229.12 132.18l-8.12-8.27c-.7-.7-.7-1-.12-1.57 1.74-1.78 3.06-1.45 6.28 1.07l.58-.66-4.46-4-9.1 9.3 4 4.51.58-.58c-2.23-2.93-2.77-4.63-1.32-6.16.74-.75 1.07-1 1.86-.17l8.18 8.27c.54.58.54 1-.08 1.66l-1 .95.74.66 5.21-5.25-.74-.7-.95 1c-.62.58-1 .58-1.53 0zM233.75 129.24l5.46-4.22-.58-.82-.91.7c-.7.5-1.08.5-1.49-.16l-3.39-4.55 5.87-4.47 3.35 4.55c.46.66.37 1-.33 1.57l-.87.66.58.83 5.5-4.22-.62-.78-.87.66c-.7.58-1.11.49-1.61-.13l-7-9.34c-.41-.62-.37-1 .33-1.57l.91-.62-.62-.83-5.41 4.22.53.74 1-.62c.66-.58 1-.58 1.52.13l2.9 3.88-5.79 4.47-2.89-3.89c-.5-.7-.46-1 .24-1.57l.83-.7-.54-.75-5.5 4.18.62.79.87-.71c.66-.49 1.12-.49 1.53.21l7 9.26c.49.7.41 1.08-.33 1.57l-.87.71.62.82zM248.6 118.16l11.7-6.08-2.48-5.54-.71.37c.75 2.48.87 4.1.21 5a11.08 11.08 0 01-3.27 2.31c-1.36.71-1.82.83-2.23-.12l-2.61-5.09.25-.12c2-1.08 3.11-.74 4.26 1.2l.83-.46-3.1-6.2-.87.46c.87 2.06.41 3.14-1.57 4.17l-.21.13-2.23-4.51c-.46-.87-.13-1.08 1.12-1.78 1.77-.87 3-1.28 3.92-1.12a6.47 6.47 0 013.11 2.65l.78-.45-2.77-4.84-11.25 5.87.5.87 1-.5c.75-.37 1.12-.33 1.49.42l5.25 10.37c.37.75.17 1.12-.62 1.53l-1 .5.5.91zM276.34 105.63a5.9 5.9 0 004.47.87c3.47-.58 5-2.69 4.5-5.79a4.44 4.44 0 00-1.9-3.06 9.74 9.74 0 00-4.09-1c-2.9-.21-4.51-.12-4.88-2.27-.29-1.62.54-2.78 2.48-3.06 2.48-.46 4.43.78 5.79 3.88l.83-.12-1.2-5.54-.79.12-.62 1.45a5.59 5.59 0 00-4.22-.83 4.3 4.3 0 00-3.8 5.21c.5 2.86 2.27 3.43 5.87 3.72a13.88 13.88 0 013.68.62 2.22 2.22 0 011.33 1.91c.28 1.81-.75 3.3-3.06 3.72-2.78.49-4.8-1-6.12-4.55l-.83.21 1.2 6.28.7-.12.66-1.7zM296.27 102.41l-.62-11.75c0-1 .13-1.2.91-1.24 2.48-.16 3.27 1 4.1 5.09l.78-.08-.62-6.08-12.9.66v6.16h.79c.33-3.72 1-5.34 3.1-5.46 1.07-.08 1.44-.08 1.49 1.12l.62 11.74c0 .83-.25 1.07-1.12 1.12l-1.37.08.09 1 7.36-.41-.08-1-1.37.12c-.87 0-1.12-.17-1.16-1zM308.55 88.51l.83.08 4.51 14.27c.29 1 .54 1.2 1.4 1.24h.46l-.12 1-6.37-.41v-1.08l.83.05c.91.08 1.28.08 1.28-.42.08-.2 0-.45-.13-.82l-.78-2.82-5.75-.37-.74 1.61a4.18 4.18 0 00-.46 1.33c0 .7.46 1.07 1.49 1.12l.58.08-.08 1.07-5.63-.37v-1.08h.21c1.28 0 1.78-.37 2.4-1.65l6-12.82zm1.7 9.93l-2.19-6.54-2.81 6.16 5 .38zM323.52 105.34l2.61-11.41c.16-1 .41-1.12 1.24-1 2.4.58 2.85 1.9 2.48 6l.79.17 1-6-12.61-3-1.57 5.87.74.16c1.28-3.51 2.44-4.83 4.51-4.38 1 .25 1.36.37 1.12 1.49l-2.61 11.45c-.21.83-.58 1-1.45.83l-1.28-.33-.25 1 7.16 1.7.24-1-1.32-.29c-.83-.2-1-.49-.83-1.28zM328.4 109.15l12.24 4.75 2.44-5.54-.74-.25c-1.32 2.24-2.44 3.35-3.56 3.48a9.5 9.5 0 01-3.88-.87c-1.41-.58-1.78-.83-1.41-1.82l2-5.38.2.13c2.15.82 2.65 1.86 2 4l.87.29 2.4-6.54-.87-.28c-.91 2.06-2 2.43-4.06 1.61l-.24-.13 1.83-4.6c.29-1 .66-.91 2-.37 1.86.75 3 1.37 3.47 2.23s.5 2.15.13 4.1l.87.33 1.68-5.29L334 94.38l-.37.91 1.08.38c.79.33 1 .7.66 1.44l-4.05 11c-.33.75-.7.87-1.49.58l-1.07-.45-.38 1zM359 115.56a8.63 8.63 0 015.34-3.23A6.81 6.81 0 01370 114a6.6 6.6 0 012.52 5.29 8.3 8.3 0 01-2.15 5.83 7.94 7.94 0 01-5 3.22 7.19 7.19 0 01-8.44-7.23 7.93 7.93 0 012.11-5.58zm2.19 1.82c-3.1 3.68-3.47 6.53-1.07 8.6s5 1.07 8.1-2.65 3.52-6.45 1.12-8.56-5.09-1.16-8.15 2.61zM366.74 132.43l4.83 5.41.75-.7-1-1c-.57-.66-.57-1 .05-1.53l4.17-3.85.17.21c1.53 1.69 1.53 2.81 0 4.46l.62.71 5.08-4.68-.61-.7c-1.74 1.41-2.94 1.2-4.43-.41l-.12-.21 3.68-3.39c.74-.7 1-.45 2 .62 1.28 1.53 2 2.65 2.07 3.6s-.5 2.19-1.74 3.72l.62.66 3.93-3.93-8.47-9.55-.75.66.75.83c.62.7.62 1.07 0 1.65l-8.61 7.78c-.53.58-.95.49-1.53-.13l-.74-.87-.74.67zM400.31 153.81l-.87.37.21.49c.29.79.29 1.16-.21 1.58l-1.15 1.07-8.73.87 7.49-6.33a2.54 2.54 0 01.66-.5c.37-.12.7.17 1 1l.2.58.92-.38-2.24-5.74-.91.37.17.58a1 1 0 01-.41 1.4l-11.34 9.68.34.79 11.29-1.12-8.73 7.53.33.82 13.65-1.32c1.36-.12 2 .12 2.52 1.2l.86-.37-1.85-4.8-.92.41.17.5c.37.95.21 1.45-.5 1.74a9.44 9.44 0 01-1.28.33l-8.6.82 7.52-6.38a4.4 4.4 0 01.66-.42c.45-.16.7.13 1 .87l.17.54.95-.37-2.36-5.83zM407.51 173.78l.16.82-12.2 8.61c-.7.58-.9.86-.7 1.69 0 .13.13.33.17.46l-1 .24-1.44-6.41 1-.24.21.82c.24.91.37 1.25.86 1.16a2.1 2.1 0 00.67-.37l2.39-1.61-1.28-5.71-1.78-.29a3.59 3.59 0 00-1.32 0c-.66.17-.91.79-.66 1.78l.12.58-1.07.25-1.29-5.56 1-.29.08.21c.29 1.32.87 1.65 2.28 1.9l13.81 2zm-8.93 4.59l5.49-4-6.61-1 1.12 5zM395.56 189.45a6 6 0 00-1.41 4.38c.17 3.52 2 5.42 5.05 5.21a4.21 4.21 0 003.26-1.57 9.51 9.51 0 001.45-4c.5-2.93.66-4.59 2.77-4.71 1.65 0 2.65 1 2.73 2.89.16 2.61-1.37 4.43-4.51 5.42v.83l5.5-.5v-.83l-1.36-.74a5.69 5.69 0 001.32-4.22c-.12-2.89-1.94-4.59-4.59-4.46-2.85.16-3.64 1.86-4.38 5.45a12.36 12.36 0 01-1 3.64 2.44 2.44 0 01-2 1.16c-1.86 0-3.18-1.2-3.31-3.6-.12-2.81 1.62-4.71 5.17-5.58v-.91l-6.33.46.09.74 1.53.91zM396.18 201.07l-.95 6.91 1 .12.12-1.12c.13-.91.46-1.07 1.24-.95l5.5.75-1 7.36-5.5-.75c-.83-.16-1-.54-.87-1.4l.12-1.08-.9-.16-1 6.9 1 .17.16-1.12c0-.87.37-1.2 1.16-1.08l11.41 1.66c.79.12.95.41.83 1.32l-.13 1.12 1 .12.95-6.9-1-.13-.12 1.12c-.12.87-.45 1.16-1.24 1l-4.75-.66 1-7.32 4.76.66c.82.09 1 .38.86 1.29l-.13 1.1.95.13 1-6.91-1-.12-.12 1.11c-.13.83-.46 1.16-1.25 1l-11.37-1.66c-.82-.12-1-.45-.86-1.32l.12-1.12-1-.12zM393.45 219.35l-1.53 6.9.91.21.33-1.16c.17-.87.41-1.07 1.24-.87l11.16 2.65c.83.17 1 .5.83 1.32l-.25 1.2.91.17 1.62-6.91-1-.2-.24 1.07c-.17 1-.5 1.16-1.29 1l-11.2-2.73c-.79-.16-1-.49-.75-1.36l.25-1.16-1-.16zM391.67 228.78l-2.56 5.53.87.38c.86-1.94 1.81-2.07 3.59-1.2l8.23 3.89-16 3.18-.37.83 11.12 5.29c1.78.87 2.35 1.49 1.53 3.31l.87.45 2.52-5.58-.83-.37c-.86 1.94-1.69 2.07-3.59 1.2l-7.32-3.48 14.3-2.89 1.78-3.89-.91-.37-.12.29c-.46 1-.83 1.45-1.49 1.45l-9.22-4.35c-1.74-.78-2.28-1.4-1.53-3.3l-.87-.37zM384.72 255l-.62 1c-.5.83-.78.92-1.61.38l-.83-.54c-1.73-1.2-2.06-2.89-.82-4.84 1.77-2.77 4.5-2.73 8.51 0s5.3 5.21 3.56 7.86c-1.37 2.19-3.68 2.6-7.07 1.32l-.5.75 5.34 3.18.5-.74-.75-1.45a5.56 5.56 0 003.51-2.69c2.24-3.47 1.12-7.86-3-10.63s-8.57-1.94-10.88 1.7a4.85 4.85 0 00-.58 4.84l-2.23-.5-.41.7 4.63 3.06c.62.46.7.75.2 1.45l-.62 1 .87.62 3.68-5.87-.87-.58zM371.45 265.54l8.35 8.14c.62.62.66.95.13 1.57-1.74 1.78-3.1 1.53-6.37-.95l-.56.7 4.59 3.93 9-9.42-4.23-4.51-.53.54c2.27 3 2.85 4.67 1.41 6.16-.75.83-1 1.07-1.83.25l-8.35-8.15c-.58-.58-.49-1 0-1.65l1-1-.75-.7-5 5.42.66.7.91-1c.62-.62 1-.62 1.57 0zM369.42 275.25a8.81 8.81 0 011.95 6 7.33 7.33 0 01-2.77 5.21 6.7 6.7 0 01-5.63 1.45 8.54 8.54 0 01-5.21-3.39 8.71 8.71 0 01-2-5.67 7.15 7.15 0 012.78-5.54 6.59 6.59 0 015.95-1.32 8 8 0 015 3.26zm-2.19 1.75c-3-3.89-5.62-4.84-8.1-2.85s-2.11 4.8.82 8.64 5.55 4.84 8 2.81 2.23-4.79-.75-8.6zM351.85 279.47l-5.38 2.65.42.87c1.86-.95 2.68-.5 3.55 1.4l3.93 8.23-14.47-7.73-.74.37 5.37 11.25c.87 1.82.87 2.64-.83 3.55l.38.91 5.41-2.72-.37-.87c-2 1-2.65.57-3.6-1.37l-3.52-7.36 12.86 6.91 3.84-1.91-.45-.86-.37.2c-.91.42-1.45.54-2 .13l-4.47-9.26c-.78-1.74-.86-2.57.87-3.56l-.41-.83z" fill-rule="evenodd"/><path fill="#fff" fill-rule="evenodd" d="M332.75 281.09h-5.15v-5.15h5.15v5.15z"/><path d="M345.57 159.35a18.12 18.12 0 00-4.25-5.95l-3.74-5c-.58-.12-5.23-7.26-9.59-7.26-.37-1.32-5.19-4.1-6.22-4.75a32.48 32.48 0 01-5.22-2.13c-2-2-12.23-3.74-16.57-4.2-5.17 1.16-2.92 0-7 1.6-6.12.54-10.13 1.82-14.43 4.59-3 2.15-4.09 4.3-7.11 7.15a28.79 28.79 0 01-2.07 2.45c-1.78 2.49-1 1.8-3 4.65-4.22 4.3-3.46 9.1-5.77 12.82l-.19 3.43" fill="none"/><path d="M266.32 151.8c-.75.53-4.33 7-5.93 14.93-.11.55-2.11 2.33-5.14 7.46-.1.16-.59 2.64-.78 2.8-.4.36-1.11 3.29-1.23 3.33 0 .4-1.11 1.49-1.63 2.63-.39.85-.4 1.85-.7 2 0 .12-.29.65-.67 1.4-1.09 2.2-3.14 6.25-3.16 7 0 1.06 2.72 7.5 6.82 9.52.08 0 .19 1.8.69 2.41 1.79 2.24 7.1 3.38 7.6 3.8.45.91.62.54 1.48 4.16s3.33 11.76 9.82 13.55c.88.24 2.69 3.76 2.69 3.76s-10.55 2.15-10.55 4.59c0 3.68 1.37 7.57.12 11.08-1.35 3.81-2.49 5.8-2.36 9.57-6.5 3.76-13.44 8.07-20 12.12a99.46 99.46 0 0020.54 12.58h0c18.14 8.63 37.38 7.62 37.46 7.61 22.53-.9 48.43-8 67.49-33.82l-2.88-2.54c-6.31-6.22-12.36-13.65-17.56-16.93l-6.17-6.8c-.71-.25-5.2-2.62-5.7-3.32-.16-.21-1.58-2.85-1.58-2.85s.09-3.75-.16-4l-.26-4.88.42-3.35 2.06-.32 5.38-3.48c1.34 0 3.82-1.29 5.53-1.58l.95-2.85c1.4-2.71 3.9-4 6-6.11a15.73 15.73 0 001.15-1.48c-.54-.79.84-2.27.85-2.3.13-.44-2.55-.41-2.59-.87l-.15-2.37c-.22-2.39-.52-.34-.95-3.48s-1.72-2.36-1.84-3.09l-.22-1c-.07-.46-.92-.7-1.27-1v-.91l-2.69-.66-1.42-1.26 3-6.06c.59-2.11.76-2.56.12-2.56s0-.7.25-.75.45-.58.29-.95-.83-.1-.74-.45l.37-1.53s-.07-1-.17-1.74a3.88 3.88 0 00-.33-1.24 17.8 17.8 0 00-2.15-3.23c-.63-.64-2.53.16-2.53.16" fill="none" stroke="#000" stroke-width=".38"/><path d="M315.13 187.87s.44-.15.51-.06-.13.87-.13 1 1 .41.38.95c-.19.16-1.08-1-1.67.2 0 .08.27.12.2.17a2.86 2.86 0 01-.41.26v.3c-.85 0-1.26-.4-1.95.58s-1.55.86-1.75 2h.67l.08-.67a1 1 0 01.74.22l.67-.55c1.54-1.23.75.85 0 .83-.45 0 .41-.57-.66-.22a.8.8 0 01.17.43c-2.14.71.18 0 .79.75s-.34 1-1 1v-.5H311l-.12-.25c-.85.84 1.56 1.12-.84 2-.31.12.12 1.37 0 2 .52-.05.11-.65.88-.5s.4 1.27 1.37 1.74-.11.74-.79.79c0-.81-2.66-2.2-2.91-2.78-.15.6-.47.65-.58 1.25l.41-.05.05-.12c.43-.07 2.08 1.6 2 1.91h-.12a.65.65 0 00.66.71c-.05.68-.1.73-.79.79v-.25c-.07 0-2.44-1.12-1.24-.54l1 2.24c-.36.18-.4.48-.79.54 0-.41-.49-.5-.95-.5 0 1.38.8.56.5 2.24.72 0 .27.25 1 .25-.06 1-1.28 1.48-1.49 2.75l.41-.05v-.12c.54-.15 1.48 1.33 0 1.45 0-.78-1.92-2.49-2.44-2.49v1.21c1.09 0 1 1.91 2 1.91v.25h-.13l-.08.74h1v.32h.25l-.05.75h-.12l-.17.71h-.12c-.18-.55-2.19-2.95-3-2.95 0 .52 1.06 2.16 1.45 2.16-.17 3-1.7-1.49-2.7-1.49 0 1.4 1.45 2.29 1.25 4h.7v.25h.25c0 .82.05 1-.79 1 0-.86-1-1.63-1-2-.51 0 .05-.39-1 .08l.25.13c0 4-.33 1-1.78 1 0 .71 1 1.4 0 1.49 0 .34 1 2 1.78 2-.1 1.89-.84.51-1.53.63a5.68 5.68 0 01-.75 1.66 1.08 1.08 0 00-1-.67l-.5.75c.36.18 1.05.87 1.25.87v.5h-.13l-.16.71h-.13c-.22-.66-2.1-3-2.78-2.91 1 .53 1.4 3.37 2 3.37-.24 1.47-1.27-1-2-1 0 .91.8 2 .7 2.74-.85.05-1.46-1-1.86-1.74-.07.8.16 1.2.12 2.24h-.5c0-.85-1.29-1.8-1.66-2.53.11.67.52 2.74 1 2.74a.66.66 0 01-.58.54c0-.41-1.45-2.78-1.95-2.78 0 1.31 1 2 1 3.24H294c0-.66-1.32-3-2-3 0 1 1 1.89 1 3.49h-.5c0-1.14-1.72-2.61-2.12-3.53-.15 1.42 1.2 2.16 1.13 4h-.75c0-1.75-1.18-1.91-1.66-2.74-.12 1.1.73 1.49.66 2.94l-.54.05c0-.41-1-1.76-1.69-1.68.41.24.47 1.14.45 1.63l-.5.05c0-.56-.66-.83-.87-1.25l-.38 1h-.75c-.18-.83 0-.76-.37-1.5l-.83.25v.71h-1v-.75c-.46.06-.67.2-1 .25l-.12-.5-.13 1c-1.47.06-1.74 1.88-1.74-.46h-.25l-.13-.25-.12.46a17.7 17.7 0 00-3.24.54l-.13-1.25c-.73.35-.58.2-1.37.33l.25.33c-1.1.21-.84.09-.79-1.16H274c-.12 1.32.25 1.18.25 2h.25l.19.74c2.68 2.16 11 9.17 11.85 9.56l1.75.25c3 0 18.73-3.32 19.48-7.81a7.89 7.89 0 003-2.16c1.25-.35 2.22-2.29 3.45-2.62v-.46c1.55-.14 4.25-4.74 6-5.31.47-1.71 3.46-3.1 3.9-4.74 1.25-.41 4.08-6.72 4.87-7l.12-.45h.12c.07 1.07-1.82 4.44-2.57 4.69-.38 1.4-2.23 2.51-2.62 4h-.25c-.11 1.18-4.91 6.13-5.73 6.36a7.81 7.81 0 01-1.29 1.28 21.29 21.29 0 01-4.48 3.74 38.26 38.26 0 01-5.61 4.52c-1.45 4.35-18.67 6.49-20.19 6.53l.25.12v.25h.75c0 .16 7.35 6 8.51 6 0 .11 3.21.4 0 .54v.45a33.65 33.65 0 004.45-.54v-.12c3.11-1 2.62-1.24 3.49-1.37v-.25c2-.09 3.33-2 5.15-2.54.2-.58 5.74-2.25 6.07-4.23a11.42 11.42 0 003-2.16c1.29-.36 2.25-2.28 3.28-2.58-.1 1.22-4.15 4.78-5.52 5.15-.6 1.78-5.11 3.35-5.28 3.87-3.33.9-6.36 4-10 4.65v.12l-.46.13c4.79.34 7.84-4.22 11.92-4.95a22.29 22.29 0 013.74-2.41v.21a4.48 4.48 0 00-.74 1 75.11 75.11 0 00-10.18 6.15c2 .25 5.95-3.56 8.23-3.91-.09 1.05-1.27 1.52-1.54 2.54h-1c0 1.1.18.46 0 1.7h-.12l-.09 2.7h.25v1.54h.35v1h.25c0 1.27.43 2.72-1 3.11a33.09 33.09 0 01-3 2.24c-.4 1.21-4.23 2.59-5.73 2.79v.12h-.13c-.78 2.87-2.49 7.41-2.82 10.22h.25c-.29 1.7-1.67 1.4-1.67 2.79.38-.5.58-.44 1.17-.5-.14 1.72-3.71 3.53-1.58 2.95v-.13l.79-.08c-.08 1-1.09 1.36-1.25 2.24h.72c0 1.2-.64 1.64-.75 2.79h.25v1h-.12a3.9 3.9 0 01-1.87 3.08l.66.08v-.13l.29-.08c-.06 1.59-1 1.4-1.24 2.54 4.63-.1 4.66-16.35 4.89-15.66 1.47 4.32-1.32 10.24-1.9 14.66h-.13l-.08 1h.25v.25c1-.07 1.38-1.19 1.45-2h.3c0 .73-.17 1.07-.25 1.75h.25v.25c.9-.06 1.49-1.37 1.49-.25 1.4-.07 1.59-1.9 1.79-3h.12v1.24h-.12l-.08 1.71c1.3-.08.61-.59 1.2-.79.27-2.05 1-3.93 1-6h.29c-.07 2.46-.86 4.45-1 6.78 3-.06 5.71-.88 8.89-1v-.13a50.89 50.89 0 0010.39-1.86c4.32-1 7.17-2.52 13.44-4.95l16.78-10.41c.81-.08 6.2-5 6.25-5.48a3.71 3.71 0 002.24-2.24c1.46-.13 1.89-2.69 3-2.78.14-.55 3.3-4.47 3.76-4.51v-.91l-.25-.25c-1.28 0-27-29.62-31.54-29.62v-.25h-.25c0-2.16-3-4.11-.75-7.93l-.25-.09c0-.79.27-2.74-1-2.74.12-1.11.46-1.89.5-3h.54c0 1.57.84 1 1.08 1.7.9-1.08 1.13-2.25 2.7-2.7l.08.25a8.65 8.65 0 001.62-2.4c1.3-.36 2.38-.83 3.29-1.09v.79c1.87 0 2.12-.46 3.94-.79l.12-1h.13l.13-1.21h.12c.37-2.08 2.95-1.89 3.07-3.16-.74 0 .63-.85.75-1.2 1.17-.21 1.93-2.72 2.24-3.28s.43.46.71-.13a18.58 18.58 0 001.12-2.95c.1-.6.08 0 .13 0v-.66a4.27 4.27 0 01-2.25-.25c-.65-.38.05-1.45 0-1.79s-.2.29-.24 0c-.18-1.06.21-3.31-1-3.74-.27-.09.25-.75-.23-.42 1.9 4.34 1 5.55-1.52 8.69-.61.75 1.18-1.94 1.46-2.58a11.06 11.06 0 000-3.94c0-.08-.23.08-.25 0-.12-.6.08-1.17-.25-1.5s-.62-.59.24-.8c0-.45.43-1.52.26-2s-1.72-1.16-1.79-1.5 0-2.15-.25-2.24c-.41-.18-1.19.3-1.24.25-.34-.28.13-.61 0-.91-1-2.36-3 1.09-3.74-3.12-.27-1.58-.22-1.19 0-1.91s-.79.76-.75.08 1.4-1.71 1.25-2.41-.66.43-.83.5c-.39.17.52-2.3.66-2.57.59-1.18-.31-1-.33-1.21a3.78 3.78 0 01.75-2.78c.59-.88 1 .79.74 1.24a1.6 1.6 0 00.13 2c.39.49.07-4-.37-4.2s-.71 1.25-1.25 1.25.51-1.41.5-2-1 .62-1.25.3.59-1 .71-1.63a23.1 23.1 0 00-.71-4.15c-.71-1.07-1.23 4.9-2 4.24s1.93-4.1-.24-6.27c-.06-.06-.39.09-.5-.25-.41-1.24.06-1.47-1-2-.61-.3-.06-.31-.25-.5s-1.15-.4-1.49-.74-.28-1.33-1.25-.79c-1.55.86 0 .93-.75.29a4.33 4.33 0 00-.79-.25c-.18-.08.51-.72-.12-.25s-.12.81.17 1-.85-.18 0 .24c2.6 1.3 3.59 2.63 4 5.28.09.54.28-.42.25 0s-2.68 4.25-3.28 3.78.53-1 .71-1.58c.72-2.15 0-3.63-2-4.44-.16-.07.14-.51-.12-.25s.89 1.22 1.21 1.49a4.24 4.24 0 01.33 2.79c-.26.86-6 4.43-6.9 4.52-.31 0 0 .05-1.29-.25-.84-.19 1.94-.61 2-.62.79-.13 6.23-4 3.78-4.9-.75-.27-.91 2-1.75 2.95-1.28 1.5-4.5 1.17-5.27 1-1.17-.21-1.16 0-.21.45 3.67 1.84-3.11 2.34-2.24 3.91.58 1.05 2-1.37 2.74-1.37 1.23 0-1.13 1.15.46.58.55-.2.78.16 1.78 0s4.18-.8 5.23-2-.21-.14-.74.12-5.11 2-5.53 1 1.08-.51 2-.58 2.88-1.44 3.57-1.25-.24.15 0 .29.76-.47 1.25-.29-.3.22 0 .29a6.2 6.2 0 002.2-.58c1.31-.43 4.51 0 5.35.83s-.05.39 0 .5.42.08.5.25c.2.39.9 4.11 0 2.78a13.53 13.53 0 00-.5-1.49c-.05-.09-1-.41-1-.5s.09-.41 0-.5-1.56-.44-1.74-.5 1.69-.1 0-.25-5.76 1.7-7.27 2.21-1.69 0-2.2.37a2.16 2.16 0 01-1.29.62c-.93.25-.65-.37-1.24-.12s-3.37.39-3 .75c1.05 1 6.81-.07 8-.3 1.58-.3.81.31 1 .42s2.37-.29 2.78-.25-.31.15 0 .25c.61.2 3 1.09 2.45-.71-.29-.9-.38.06-.49 0s.28 0 0-.25c-1.44-1.43-4.25.22-5-.25-.27-.16 7.15-3.35 8.55-.53.09.18.13.77.26 1s.23-.21.28 0c1.95 7.8-1.21-1-1.45-.46-.11.28-.28 1.2-.37 1.46-1.05 3-8.21 3-9.76 2.08-.21-.12.86-.15 0-.3s-2.46-.11-3.28-.25 1.32-.14 0-.24-5.54.56-6.53.24.11-.19 0-.24-.1.43-.5 0 1.55-.64 1-.92-1.55.26-2 .17.28-.2 0-.25-1.29 0-1.5 0-.1-.64-.71-.25.43.63.75 1-.09 2.18.25 2.53.39-.06.5 0 .36.61.5.75 1.6.65 1.74 1-.3.69 0 1c.87.87 2.21-.41 3-.25 1.15.23 2.18-.18 4.23.5.58.19-.21.15 0 .25a9.46 9.46 0 011 .25c.33.17 1.23 1.57 1.66 1.45s-.12.12-.2-.16c-.18-.59-.88-2.12.29-1.54.17.09.17.43.5.75s.45-1.34.49.25-5.39 3-6.31 2.82.33-.2 0-.25-1.42 0-1.74 0 .22-.13 0-.25-2.8-.7-2-1.2c-.2.37 6.95.14 7.73.12 1.37 0-.32-.06-.46-.16s.06-.23 0-.29-.44-.2-.5-.25.75 0-.25-.5-4.95-.22-6-.5c.2-.52-2.74-.82-3.28-1s.55-.06 0-.25a20.68 20.68 0 01-2-.74c-.42-.21-.29-.92-.7-.5s3.13 2.39 3.24 2.45c1.05.52 5.87.66 7.52.75s-.06.19 0 .24 2 .16.21.25a43.13 43.13 0 01-6.53-.2c-.65-.21.78-.05 0-.25s-1.37.68-2.24.25 0-.42-.25-.5-.85-.1-1-.25-.08-.42-.25-.5-1.36-.72-1.2-.29a16.08 16.08 0 002.74 1.75c.21.12.18.63.5.78.78.39 5.07 1.29 4.24 1.46s-1.9-.8-2.75-.42 2.49 1.3 2.62 1.46 3.18-.48 3.37-.54v-.21c1.6-.06 5.81-1.9 5.77-3.74 0-1.47-.2.11-.25 0s.06-.39 0-.5-.67-.84.29-.54l1.33 3.78c.37.47.68-1.72.62-2s-.12.36-.24 0-.15-1.17-.25-1.5-.37-.07-.25-.45.75.34.78.41a9.39 9.39 0 01.46 3.53c0 .9-1 1.71-1 2.25s.44.09.75.24-.23.28.24.5c1.65.76 1.95 1.87 2.29 3.28.09.38 0-.27.25 0s-3.7 1.61-4.32 2.5.19 0-.5-.21-3.28-.16-4.53-.25.33-.2 0-.25-1.41.05-1.74 0 .12-.22 0-.25-2.26-.26-1.5-.54.7.73 2 .08-.66-.47-1-.54.43-.14 0-.25a5.08 5.08 0 01-1.75-.24c-1-.38 3.42-.32 4-.34s-.14-.07-.21-.16.25-.2 0-.25-1 .06-1.24 0 1-.18 0-.29a39.81 39.81 0 01-5.53-.75c-.53-.13.51-.14 0-.25-2.1-.43-.8 1.83 0 1.33.61-.38 1.58.32.79.62s.28 2 .79 2.29.18.68.25.75.34-.31.5 0 .14 1.42.25 1.74.14-.32.25 0 .13 1 .25 1.29-.35-1.2.24 0c.44.87.14-.68.31-1.24a5.66 5.66 0 01-.59-2.43c0-.08-.19.06-.25 0-.31-.37 5.5.1 6.57.21.08 0-.08.22 0 .25 2.55.85.38.19-.5.37-1 .21-2.38.32-3.53.5-.1 0 .24 0 .25.13.15 3.43 5.58 3.91 7.93 2.24.13-.09.07-.49-.08-.46-.63.14-2.94 1.47-3.37 1.29-.08 0 .08-.24 0-.25-.63-.08-3.41-.63-2.74-1.08 1-.69 2.47.07 3.7 0 .14 0 .43-.28.29-.33-.71-.26-1.4.31-1.75.16-.08 0 .08-.23 0-.25a17.42 17.42 0 01-2.49-.49c-.94-1 2.77-.57 3-.55.09 0-.08.25 0 .25 1.7.14 2.94.7 3.45-1.24.07-.27.62-.19.83 0s-.2.6 0 .75 1.67.16 2 .24c.09 0-.08.25 0 .25.5 0 3.13.33 3.2-.37s-1.64 0-2-.08c-.08 0 .08-.24 0-.25a9.23 9.23 0 01-2.49-.25c-.08 0 .07-.21 0-.25s-.36.08-.5 0c-.8-.47 3.25-.36 3-.42-3.4-.79-.45-1.61.29-.87.31.31.66 1.49.92 1 .55-1.17-.53-1.19-1-1.41-.08 0 .07-.21 0-.24-.81-.41-1.48.34-1.16-1.29 0-.26 2.26-.44 2.61-.54.08 0 0-.24 0-.25 2.19-.4 5.15-2.46 4.78-4.94 0-.09-.23.07-.25 0-.48-1.72 1.51-.29 1.25 1 0 .09-.92 1.71-.71 1.74.53.1 1.29-1.32 1 .25-.26 1.21-3.05 1.31-4 1.54s1.15 1.55 1.25 1.75.08.58.25.74.46.18.5.25c.12.26.12.75.24 1 0 .07.23-.08.25 0 .08.24-.08.51 0 .75 0 .08.25-.08.25 0 0 4.6-2.87 3.87-6.81 3.82-.08 0 .08-.23 0-.25-.32-.08-.67.08-1 0-.08 0 .06-.19 0-.25s-1.41-.46-.74-.83 1 .23 1 .25c.33.08.68-.09 1 0 .09 0-.1.28 0 .29.83.1 1.67-.08 2.49 0 .52.05-.41.52.46-.29.26-.24 2.34-.28 1.66-1-.16-.16-1.16.84-.54-1a2.94 2.94 0 00-.08-2c0-.07-.21.08-.25 0s.07-.35 0-.5a2.74 2.74 0 00-.75-.49c-.3.85.26.64.29.7a7.08 7.08 0 01.25 1.25c0 .08.25-.08.25 0 0 3.21-4.7 2.77-6.56 1.53-.08 0-.13-.34-.13-.24.05 1.1.52 3.62-.37 4.48s-.63-.17-.79-.21c-.31-.07-.6.23-.91.29-2.81.53-6.64-.54-8.5-3.06-.28.34-.67.55.18.67 1.45.2-.57 1.38-1.53 1.28s0-.38 0-.49-.14.11-.25 0c-.59-.6-.58-2-.75-3-.11-.63-.16.28-.25 0-.4-1.2.08-.71-1-1.24-.23-.12-1.15-1.43-1.74-1.17s.61.31.74.38.14.82.25 1 .39-.12.5 0-.06.38 0 .49.43-.08.54.25a21.32 21.32 0 00.75 2.54c.1.22.63.42.46.74-.4.75-1.41-1.6-1.5-1.74s-.45-.07-.54-.25c-.46-.93-.22-1-1-1.74s0 1.45 0 1.45.16-.17.25 0c.79 1.59-1.74 0-1.25-.21s.13-1.46 0-2c-.05-.16-.2.2-.25 0-.1-.38-.17-3-.37-3-.44.11-.25 1.78-.38 2.45s-.46-2.06-.5-2.2-.2.25-.25 0 .05-1 0-1.29-.19.16-.25 0a12.11 12.11 0 00-.24-1.25c-.06-.11-.2.06-.25 0a5.62 5.62 0 01-.5-1c-.08-.17-.35-.11-.5-.25-.37-.38-2.1-2.64-2.74-2-.27.27 1.53.83.7 1.46s-1.38-.29-1.45.12c-.17.91 2.22 1.43 1.45 1.58s-1.66-.62-2.2-.91.83 1.53 1.5 1.7-.22 1.25-.54.79.64-.82-.71-.67v.13c-1.82.61-.24.3.54.75s2.93 1.15 1.45 2-1.7.93-1.7 2.49v.69c.36-.56.77-1.13.87-1.28zM324.67 144.45c-.51.64-.94 1.76-2 1.76-.35-.34-.29-1-.61-1.17a2.41 2.41 0 01-1-2.28c.35 0 .42.53.61.68.84.65 1.56-.29 2.06-.8 2.18 0-.77-3.41-.77-4 .91 0 2.37 3 2.37 4 .44.3 2.08.81 2.08 1.62a.61.61 0 01.17.07v.07a5.67 5.67 0 01-1.21.38c-.12.07.13.49 0 .49 0-.73-1.82-.78-2.23-.78l.52-.09z" fill-rule="evenodd"/><path d="M271.06 211.19v.25l-.83.28-.08-.24h-.25l2.45-1v-.12c.51-.06 3.51-.82 3.74-.59.79.79 1.29.38 2.49.25v.25c1.06-.14 4.71-1.06 5.53-.25.54.55-.11-.64 1-.25v.25a7.88 7.88 0 001.75.25c.24.05-.25.2 0 .25 2.63.16 3.61.42 6.27.42v.25h.5v.29h.25v.25h.25l.08.24h.12l.09-.49h-.25v-.25h.46v.29h.25v.25h.24v.41h-.08l-.08-.25h-.5l-.09.42h-.66v-.25h-.25v-.1l-1.79.09-.12.16-.08-.25c-.67.08-1.29.64-1.75.5-.8-.25.42-.66-.37.21-.53.58-.43-1-.75.25-.07.28-.39-.47-.42-.46-.48.19-.61.64-1 .25s0-1.13-1-.75c-.33.12.86.59.46 1.21s-.6-.64-.67-.71-.19.16-.25 0 .21-1.43-.79-.75c-.59.41.48.71.5.8.23 1 .06 1.24-.45.2-.06-.11-.45-.09-.5-.25s.11-.57 0-.75c-.55-.81-4.14.48-4.7.25-.09 0 .06-.43-.37-.16s-1.89-.11-1.74.87c.05.38.62-.41.87-.41s-.19.49.12.49.89-.62 1.25-.49c1.45.49-1.52 1.34-1.95 1.2-.09 0-.35-1.12-.79-.75-.12.1.11.35 0 .46-1.48 1 .32-1.17.09-1.46-.92-1.08-.75 1.92-1.79 1.25-1.26-.82 1.13-.25-.66-.25-.37 0-.11-1-.63-.66-.8.5-.24-.2-.45-.34l-2.54-.53zM272.2 200.76v-.25h-.2l.09-.71c.39.8 1.69.63 2.36.75.24 0-.11.14 0 .25a4.71 4.71 0 00.75.25c.12.06.1.45.29.5 2.2.54 4.38-1.18 7-1 .47 0-.36.47.5.21a10.35 10.35 0 012.49 0c2.56-.27 2.88-3.09 2-4.78-.14-.28-.19.13-.25 0a4.63 4.63 0 01-.5-1.45h.46c0 .38.43.36.5.5.83 1.68 2.34 3.76 2.24 5.94a1.49 1.49 0 00-.5.5c-.56.27-4.39 2.3-4.94 2-.08 0 .26-.17 0-.25-.71-.21-4.11 1.74-4.53 1.54-.12-.06.23-.21 0-.25a14.37 14.37 0 01-4.49-1.79l-.29-.5c-1.13-.36-1.77-1.49-3-1.49zM300.53 184.23l1.46-1.29c.58-.2 1-2.07-.3-.79-.5.5-3.59.88-1.66-.08l1.5-1.12c0-.07-.19.11-.25 0s.19-.4 0-.5c-.81-.43-1.14 1-1.83 1.2-1.24.41-4.45.75-4.94-1.2-.22-.89.46-3.16-1.54-1.17-.08.08-.19.35-.29.38-1.55.51.57 1.12 0 1.49s-.78-.39-.91-.45c-.68-.34-3.12.28-2.7-.71.23-.55 6.28-3 6.89-2.78.16.06-.3.23 0 .29s1.25-.05 1.54 0-.16.19 0 .25A26.81 26.81 0 01301 179c.11.06-.11.2 0 .25.27.14.73.12 1 .25.11.06.09.45.24.5l1.29.25c.12 0-.11.19 0 .25 1.45.72.23.2.5 1.49 0 .17.2-.1.25 0 .4.8-.72.06-.91.46-.48 1-1.71 2-2.83 1.79zM267.43 183.19c-.29 0 .15-.2 0-.25a11.49 11.49 0 01-1.25-.25c-.11-.06.2-.2 0-.25-.6-.15-1.78.24-1-1.25.95-1.89-1.15.41-1.95 0-.65-.32 3.72-2.38 3.94-2.49s1-.8 1.29-.87a8.09 8.09 0 014.74.17c.16.05-.11.19 0 .25s.38-.12.5 0-.12.38 0 .49.65.15.74.25.14.45.25.5c.33.17 2.12.71 1.37 1.46-1.08 1.07-.77-1.43-1.91-.3-1.33 1.33-5.13 1.92-5.69-.45-.1-.46.31-2.18-.83-1-2 2.05 2.3 2.53 1.29 3s-2.39-1.31-2.74-1c-.57.57.65.74.75.79s.09.45.24.5.6 0 .75 0-.16.2 0 .25c1.56.49 1 .66-.45.46zM262.19 209.27c-.67-.91-.36-.42-1.54-1-.11-.06-1.12-.11-1.17-.15a1.52 1.52 0 00-1.28-.64 6.36 6.36 0 01-3-1.51c-.43-.86-.89-1.95-1.05-2.21 0-.05.31-.72.19-.77-1.35-.57-1.25-1.17-1.7-.57a16.09 16.09 0 011-1.38c.08 0-.13.17.16.21a10.73 10.73 0 001.5 0c.76-.12-1.23-.49-1.25-.5s-.13-.44-.25-.5c-.59-.3-1.32-.95-1.82-.29a5.87 5.87 0 01-1.17-.46c0-.06.12-.19 0-.25s-.38.17-.49 0c-.75-1 2.67-.76 1.24-1.49-.33-.17-1.2.06-1.49 0-.07 0 0-.76-.34 0 0 .09-1.15-1-.2-.71.11 0-.21.21 0 .25 1.29-.87 9.82-5.7 9.22-7.52-.11-.32-.65.88-.75.91-1.18.36-.71.22-1.25 1.29-.22.44-1.38.89-1.74 1.25-.85.84-3.82 3.27-5.19 2.78-.8-.28.7-.6.74-.62l.67-.92c-1.72.58-.56-.51.08-.83.3-.14 5.64-2.26 5.19-3.61a26.5 26.5 0 00-2.78 1.7 9.71 9.71 0 01-3.2.88c-.1 0-2.11 1.45-2.12 1.41-.37-1.85 4.34-2.37 4.86-3.28.28-.48-1.85-.12-2.24 0-.19 0 .06.17 0 .25-.68.5-1.45.37-2.2 1.12-.22.22-1.14 1.48-1.16 1.41-.49-1.55 4.8-5.38 5.89-5 .58.2-2.32 1.45.29.83 1.07-.26 3.22-1.21 3.74-2.12.72-1.25.86-3.59 2.25-4.28.48-.24.78-1.9.7 0 0 .18-.78 1-.87 1.33s-1.68 5.44-.33 2.74c.05-.11 2-4.52 2.28-3.49.14.55.14 2.1-.33 2.2-1.11.25-.57.15-1 1 0 0-2 3.39-1.28 3.07.27-.12 2.06-3.94 2.61-3.24.67.85-1 .67-.75 1.46.06.17.69-.58 1.25-.13.05 0-1.17 1.73-1.5 1.37s.1-1.11-.45 0c-.13.27-.49 2-.09 1.5s.37.38 1-.25 1.33-.57.62.25a3 3 0 00-.62 2.07c0 .11.82.17.5.67-.06.09-.19-.15-.25 0s-.27 2-.25 2c.17.26.61-.27.79 0s-.59 2.71 0 2.25c0 0 .94-1.93 1.12-1.75.46.46-1.2 2.46-.87 3.28.05.13 1-.18.33.46-.31.31-1.05 2.16-.33 1.75 1.59-.91-.67 1.48-.25 2.28.11.22.72-.48.46.71-.44 2 .93-.61.5 1.24 0 .17-.93 1.65-.71 1.83s1.5-.21.58.71c-.19.19-.48 1.26-.54 1zM262.94 280.43v-.25c-.66 0-1.45-.75-2-.75v-.25h-.25v-1c1.38-5.07 3.9-9.16 4.1-15.75h.12v-1.74l-.25-.13.21-.12.06-4.46-.17-1.43c.19-3.73 2-7.1 2.48-10.65h.12c.05-1.81-.21-4.64.38-6l.12.25h.25c0 1.71.07 3.49 0 5.53l.25-.05a45.27 45.27 0 01.91-6c1.07 6.41-2 12.19-2.4 18.57h.24v.5h.25c.42-6.51 2.5-13.14 3.16-19.78l.13.25h.25c0 6.78-2.06 13.54-2.25 20.32h.25c.35-6.9 2.69-14 2.78-21h.46v.24h.25c-.06 6.31-1.93 12.54-2.28 18.74h-.13l-.08 2.53h.25l.12-1.95h.13c.65-6.28 2.48-12.92 2.53-19.52h.46v.24h.25c0 3.5-.5 7.18-.75 11.06l.25-.05a43.6 43.6 0 001.37-10.76h.12c.45-1.33 5.14 4.57 2 5.11v.13c-1.77.59.88 3.07 2 3.07v.46h-.71v.71h-.12l-.08.79c1.66-.28 2.73 2.67 3.49 3.73l2.53 1.08v.13a11.44 11.44 0 00-1.39.23l-.61-.89s-3.12 2.24-.74 2.24v.25c.17 0 2.11.94 2.53 1.08l-3 1.41h.5c0 .05-1.33 1-.5 1v.41c-.67.18-3 1.26-2.95 2.12.48 0 .75 0 .79-.17 2.32 0-.49.31-.83 1.33l-2.41 1c-.14.52-.28 1.2-.79 1.25v-1.25l-.34 1c0 .53-2.66 2.07-1.7 2.07.15 0-5.24 4.95-5.52 7.82.57 1.29 1.73-.56 2 0 .43.78-3.55 3-1.78 3.58v.08h-.67V276h-.29a18.78 18.78 0 01-.32 2.72c-1.3.13-2.66 2.37-2.66 1.83z" fill-rule="evenodd"/><path d="M243.67 267.69c2-1.14 19.85-11.74 19.89-11.66h.25v2.54h.25v2.41h-.13l-.12 4.23-.13.05c-.44 4.29-2.71 7.52-3.4 11.46h-.13l-.36.91c-4.35-2-12.45-8.21-16.08-10zM343.61 189l.08-.7h.13v-1.24h-.24v-.25h-.25v-.25h-.25v-.25h-.25V186l-.25-.12.46-.09v.21h.25v.25h.25v.25h.25v.25h.25v.75h.24c0 .39-.19 1.45-.7 1.45zM303.56 214a.6.6 0 00-.54-.5v-.71l1 1.17h-.42zM300.03 214.47l.09-.71.33.67-.42.04zM302 215.22l-.25-1c.62 0 .7.3.66.91l-.41.05zM299.78 215.71l-.24-.25c.12-.71.45-.19.41.21h-.17zM300.76 217.52c-.43-.14-.75-.29-.23-.77s1.64 1.23.23.77zM301.78 218c1 0 1.6.59.58 1.49-.17.16-.75-1.49-.58-1.49zM300.29 220.06c-.28 0-1-.83-.34-.83s1.37.74.34.83zM281.38 227.47c-1.7-.21.48-1.1.29-.67l-.29.67zM279.22 226.76l.09-.45.12-.05v-.12c1.36-.25-.32 1-.25.62zM276.98 227.01l.08-.45.13-.05.04-.12h.46l-.71.62zM305.81 171.56h.41l-.04.18-.37-.18zM307.26 172.43c-.51-.64.46-.71.17 0 0 0-.14.08-.17 0zM320.55 184.23c0-1.5-1.78-3.46-2.24-4-1.34-1.69-.42-.1-.5-.25a8 8 0 00-.75-1.25c-.11 0-.42.06-.54 0s-.6-.93-.74-1a27.54 27.54 0 00-2.49-1.25c-.49.14-.68-2 .2.25s-.64 0-1.2-.29-1.61-.56-2-.75 0-.4-.25-.5-2.57-1.33-2.28-1.62.38.26.71.42a28.42 28.42 0 003.53 1.49c3.72 1.23-4.48-2.5-3.74-3.24.38-.38 2.8 1.4 3 1.5s-.15.17 0 .25c.52.25.88.32 1.24.5s1.2 1.59 1.5 1.74c2 1 3.16 1.27 4.28 3.53.05.1 1.26.28 1.49 1a10.7 10.7 0 011 3.45h-.17z" fill-rule="evenodd"/><path d="M313.29 179.7c-.38-1.06-4.57-4.12-4.45-4.24.34-.33-.3.13.12.25a12.9 12.9 0 011.79.5c.42.21-.36.2.25.5 2.33 1.16 2.38 3.26 2.29 3zM312.54 180.45c-.19-.24-.13-.38-.25-.5s-.85-.35-1-.5-.39-.69-.5-.75-.35.07-.5 0-.76-1.44.21-.95.09.42.25.5a19.56 19.56 0 011.74 1.24c0 .08.24 1.19.05 1zM313.32 169.38s-3.45-2.52-3.68-2.71-.67-1.24.19-.49 2.29 1.59 3 2.14c.4.32 4.56 3.56 2.25 2.82a19.45 19.45 0 00-1.76-1.76z" fill-rule="evenodd"/><path d="M310.54 168.85l-1.76-1.13s-1.2-1.27-.45-.75c2.09 1.47 4.17 2.7 6.15 4.4 1.23 1.06 3.16 1.72 4 3 1 1.51-2.95-1.61-2.48-.64.15.29.72.3 1.17 1s2.43 4.55 5.25 5.57 6.45 2.32 10.53 1.5c2.07-.41 4.16-.57 4.5 1.77.24 1.66-.41.56-.22 1.54s-1.74-1.34-4.5-1.47c-2.23-.1 1.41-.9-.83-.9-6.15 0-10.17-.91-14.1-5.86-2.91-3.68-6.94-5.87-8.47-7.07-4.45-3.47 1.57.28 2.51 1.05.63.52 1.69 1.36 1.91 1.47s.9.19-.11-.79-3.11-2.63-3.11-2.63z" fill-rule="evenodd"/><path d="M312.76 174.07s-.08-.3-.16-.3c-.76-1.79-5.55-1.87-5.55-4.17.31 0 1 .77 1.16 1 .56 0 1.64.86 2.18.86a21.81 21.81 0 003.26 2.44c.53.53 1.56.57 2.06 1.06a10.64 10.64 0 011.5 2h.08c.29.29.71.52.71 1-1.49 0-3.66-3.85-5.24-3.85zM335.21 186.63h-1.46s-.26-.22-.34-.22v-.26c.41 0 1-.12 1.39-.12 0-.07.15-.22.15-.41a6.2 6.2 0 00-1.88-.49c0-1.67 3.33.64 3.41.64a1.94 1.94 0 01-.11.34c-.3 0-.67-.23-1-.23a1.1 1.1 0 00-.19.72zM327 179.86c-.72-.18 2-.06 1 .09a2.44 2.44 0 01-1-.09z" fill-rule="evenodd"/><path d="M328.28 180c-.19-.19.11-.48.29-.29s-.16.42-.29.29zM272.09 226.7c.65.36 3 .67 1.18-.1l-1.18.1zM262.69 210.52c.07-.39.05-.43.33-.71l.09.67h-.42zM265.43 212.47v-.7c.89-.08.41-.54 1.21-.54a1.39 1.39 0 01-1.21 1.24zM264.19 211.19c.1-.6.37-.77.95-.88l-.95.88zM274.9 212.26v-.29h.29l-.04.25-.25.04zM268.17 212.47l.09-.46.08.42-.17.04zM263.69 212.47l.08-.46.08.42-.16.04zM291.52 210.02l.08-.46.13.25.25.09-.05.08-.41.04zM293.51 210.02v-.25l-.25-.12.71-.09v.25l.25.09-.04.08-.67.04zM280.47 213.22c-1.44-.65 1.7-.14.91 0a2.49 2.49 0 01-.91 0zM264.68 213.47c-.15-1.21.85-.6.17 0-.08.06-.15.19-.17 0zM283.5 213.72c-.21-.26-.88-1 .21-.71.35.08 0 1-.21.71zM269.46 213.59c-.1-.19.61-.43.71-.25s-.57.53-.71.25zM274.7 213.84c-.11-.53.79-.3.41.09-.1.1-.38.06-.41-.09zM266.18 214c-.11-.52.65-.9.71-.63 0 .09-.67.83-.71.63zM267.43 215c-.29-.3.16-.75.45-.46s-.21.69-.45.46zM287.49 215.09c-.11-.53.8-.3.41.08-.1.1-.38.07-.41-.08zM284.5 215.22c-.29-.29.16-.75.45-.46s-.21.69-.45.46zM275.19 215.22c-.33-.68.37-.47.75-.38.12 0-.74.38-.75.38zM269.46 215.34c0-.22.4-.36.58-.33.69.08-.46.91-.58.33zM273.45 215.71c-.45-.44.4-.68.7-.37s-.54.54-.7.37zM264.68 215.71a1.05 1.05 0 01.25-.87c1.13-.47 0 1.28-.25.87zM285.74 216.09c.08-.36.44-.33.71-.25.07 0-.75.43-.71.25zM284.25 216.21c-.46-.29.28-.72.7-.46s-.34.69-.7.46zM281.47 216.09c.09-.2.71.08.41.08-.08 0-.48.05-.41-.08zM280 216.09c-.13-.11.13-.19.25-.25.94-.45.49.84-.25.25zM283 216.46c-.29-.29.17-.75.46-.46s-.22.7-.46.46zM271.7 216.46c-.15-.77 1.51-1.11.17 0 0 0-.15.14-.17 0zM265.68 216.33c.13-.31.88-1 .67-.16-.09.34-.75.36-.67.16zM294.51 216.58c-.11-.53.8-.3.42.09-.11.1-.39.06-.42-.09zM288 216.71c-.11-.53.27-.63.16 0 0 .09-.14.14-.16 0zM267.92 217c-.15-.77 2-1.52.17 0 0 0-.15.14-.17 0zM270.21 217.46c-.22-.56.34-.66.45-.38 0 .12-.4.51-.45.38zM286 217.58c-.13-.06.17 0 .21-.12s-.12-.36 0-.46c1-.62 1 1.15-.25.58zM279.47 217.71c-.46-.29.28-.73.71-.46s-.34.68-.71.46zM278.23 217.71c-.23-.56.34-.66.45-.38.05.12-.4.51-.45.38zM298.79 218c-.52-.66.46-.7.16-.05 0 .09-.12.1-.16.05zM284.25 218c-.5-.32.87-1 .95-.38.05.35-.74.51-.95.38zM282.75 217.83c-.13-.11.13-.19.25-.25.95-.44.5.85-.25.25zM281 218c-.46-.29.27-.73.7-.46s-.34.68-.7.46zM276.48 218c-.39-.28.49-.9.71-.46s-.43.66-.71.46zM288.24 218.25c-.11-.16.16-.63.25-.67 1.13-.47 0 1-.25.67zM293.26 218.5c-.21-.59.34-.75.46-.42l-.46.42zM271.46 218.5c-.29-.32.16-.82.45-.5s-.21.76-.45.5zM268.71 218.5c-.21-.59.34-.75.46-.42 0 .08-.39.61-.46.42zM266.18 218.74c-.09-.11 0-.36.08-.45.89-2.13.59 1.29-.08.45zM286.24 218.87c0-.22.4-.36.58-.33.69.08-.46.91-.58.33zM290 219.24c-.16-1.41 1.06-.67.09 0-.08 0-.07.14-.09 0zM279.22 219.24c-1.44-.65 1.7-.14.92 0h-.92zM278 219.24c-.22-.55.34-.65.45-.37.05.11-.4.5-.45.37zM284 219.37c-.19-.1.08-.19.25-.25 1.29-.45.89.82-.25.25zM282.21 219.37c-.19-.06.2-.08.25-.13.9-.77 1.41.62-.25.13zM281 219.49c-.29-.29.17-.74.45-.45s-.21.69-.45.45zM273.2 219.49c-.37-.36.85-1 .67-.29-.05.2-.52.44-.67.29zM298 219.74c-.06-.08-.4-.55-.25-.7.67-.67.53 1.05.25.7zM276.48 219.62c-.11-.53.8-.31.42.08-.1.1-.39.06-.42-.08zM270 219.74c0-1.14.92-.58.08 0-.07 0-.08.09-.08 0zM294 220c-.62-.77.73-.13.42 0-.09 0-.33.16-.42 0zM267.18 220.24c-.19-.23.39-1 .58-1s-.21 1.42-.58 1zM296.29 220.49c-.1-.53.28-.63.17 0h-.17zM274.7 220.36c-.31-.61 1.57 0 .41.09-.09 0-.36 0-.41-.09zM271.46 220.49c-.33-.41 1.08-1.25.66-.29-.08.17-.52.48-.66.29zM290.27 220.74c-.46-.29.28-.73.71-.46s-.35.69-.71.46zM282.75 220.61c.1-.19.72.09.42.09-.09 0-.48 0-.42-.09zM280 220.74c-.22-.55.34-.65.46-.37 0 .11-.41.5-.46.37zM278.47 220.61c-.13-.1.13-.19.25-.25.95-.44.5.85-.25.25zM268.71 221c-.15-.77 1.51-1.11.17 0 0 0-.15.14-.17 0zM284.5 221.24c-.11-.53.27-.63.16 0 0 .09-.14.14-.16 0zM277.23 221.24c-.1-.53.27-.63.16 0h-.16zM293 221.49c-.05 0-.38-.58-.25-.71.49-.48 1.13 1.15.25.71zM288.24 221.36c-.19-.09.08-.19.25-.25 1.29-.44.89.82-.25.25zM285.5 221.49c-.88-.44 1.1-.74.41-.05a.41.41 0 01-.41.05zM273 221.49c-.37-.37.85-1 .66-.29 0 .19-.51.44-.66.29zM295 222c-.06 0-.43-.6-.25-.71 1-.64 1 1.08.25.71zM291.52 222a.33.33 0 01.46-.46c.23.24-.22.7-.46.46zM272 222.11c-.1-.53.81-.3.42.08-.1.1-.39.07-.42-.08zM297.54 222.48s-.42-.68-.25-.95c.37-.57 1.15 1.4.25.95zM289.77 222.48c-.39-.27.49-.89.71-.45s-.43.65-.71.45zM289.23 222.36c.08-.15.41.08.21.08s-.24 0-.21-.08zM287.74 222.73c-.87-.44 1.11-.73.41 0a.4.4 0 01-.41 0zM274.45 222.73c-.23-.55.34-.65.45-.37.05.11-.4.51-.45.37zM269 223.23c-.49-.61.3-1.16.17 0H269zM296.55 223.73c-.16-.08-.72-1.71.2-1.21.17.1.61 1.62-.2 1.21zM294.51 223.73c-.18-.22-.13-.45-.25-.75-.05-.12-.4-.06-.25-.12 1.32-.6.67 1.08.5.87zM273 223.61c-.11-.54.8-.31.42.08-.11.1-.39.06-.42-.08zM293 224l.21-.46zM289.23 224.23c-.18-.09-.59-.78-.41-1s1.59 1.5.41 1zM291.77 224.48c-.3-.37-.94-.27-.5-1s.9 1.46.5 1zM270 224.73c-.06-.08-.41-.56-.25-.71.66-.66.53 1.06.25.71zM285.74 225c-.1-.27.27-.35.17-.05 0 .07-.14.12-.17.05zM288 225.52c-.62-.78.73-.13.41-.05-.08 0-.32.16-.41.05zM273.2 225.64c-.11-.53.8-.3.41.08-.09.1-.38.06-.41-.08zM286.74 226.26c-.51-.65.47-.7.17 0 0 .09-.13.1-.17 0zM275.19 226.26c-.32-.64.57-.69.21 0 0 .09-.16.14-.21 0zM271.21 226.26c-.26-.28-.26-2.16.7-1.49 0 0-.14 2.12-.7 1.49zM284 226.51l.71-.37c.17.17-.55.54-.71.37zM272.2 208.78v-.46l.46.08-.46.38zM271.7 198.39h.46l-.04.14-.42-.14zM276.23 199.26v-.45h.46l-.04.41-.42.04zM275.98 201.01v-.25l-.5-.13h1.96l-.29.34-1.17.04zM277.73 200.38l.95-.33-.04.42-.91-.09z" fill-rule="evenodd"/><path fill-rule="evenodd" d="M274.9 212.26v-.29h.29l-.04.25-.25.04zM282.21 256.21l.75-.33-.04.42-.71-.09zM309.25 247.57v-.45h.75l-.04.41-.71.04zM303.02 247.95l1.25-.25-.04.08-.46.13-.04.12-.71-.08zM308 250.31v-.45h.46v-.13h.54c-.45.38-.37.57-.95.62zM305.81 250.94l.41-.17.05-.12.2.04-.29.33-.37-.08zM308.76 251.19h.45l-.04.08-.41-.08zM306.27 252.47h.7l-.04.09-.66-.09zM309.75 252.85v-.46l.5.08-.5.38zM308.01 253.84v-.45l.7.08-.7.37zM309.01 255.09l.08-.46.08.42-.16.04zM307.26 255.22h.46l-.04.08-.42-.08zM293 287.45c-.26-.34 1.39-1.74.67-.29 0 .08-.53.46-.67.29zM283.75 287c0-.94.86-.66.08 0h-.08zM287.74 287a2.44 2.44 0 01.58-1 .7.7 0 01-.58 1zM291.27 286.58c0-.05.15-.07.21-.13.76-.76.32.66-.21.13zM290 285.91a3.72 3.72 0 01-.25-.49c-.45-.69.36-.15.71-.25.12 0 .42-.72.75-.46s-.86 1.37-1.21 1.2zM293 285.66c0-.6.35-1.75 1.21-1.37 0 0-1.21 1.54-1.21 1.37zM287.24 285.17c-.27-1.12.38-.73 1.2-.63 0 0-1.16.78-1.2.63zM288.73 284.92c-.07-.43 1.37-2.33 1-.54a6.75 6.75 0 01-1 .54zM291.77 284.29a3.24 3.24 0 01.75-1c1.16-.48-.3 1.44-.75 1zM275.73 284c-.05-.05.15-.06.21-.12.77-.77.32.65-.21.12zM294.76 283.92c-.17-.21.42-.8.58-1 1.48-1.47-.11 1.55-.58 1zM288 283.42c-.14-.17.2-.58.33-.71.82-.82.12 1.28-.33.71zM290.77 283.17c-.27-.33 1.38-1.74.66-.29 0 .08-.52.46-.66.29zM286.49 282.92c0-.94.86-.66.08 0h-.08zM270.21 282.3c-.13-.13 1.07-1.31.66-.17-.05.16-.46.37-.66.17zM276 282.42c-.05-.07-.18-.47-.25-.49s-1.19 0-.29-.5c.29-.16.62-1.17 1-1.37 1.46-.73 1.58.66.92 1.33-.1.09-.35 0-.42.08s.07.51-.08.66a3.35 3.35 0 01-.92.29zM293.76 282.3c-.06 0 .18-.06.21-.13s-.08-.38 0-.45c1-.62.9 1.09-.25.58zM277.73 282.05c-.07-.07 1.45-.95.91-.17-.08.11-.78.31-.91.17zM281.22 282.05a4.62 4.62 0 011.24-.25c.05 0-.76.73-1.24.25zM289.77 281.93c0-.2.07-.8.25-.88 1.38-.56-.25 1-.25.88zM274 281.68c-.15-.79 1.27-.93.16 0 0 0-.16.08-.16 0z"/><path d="M276.69 281.47c-.12-.35.19-1 .25-.13 0 .09-.23.18-.25.13zM287.49 281.3c-.05-.05.15-.06.21-.12.76-.77.32.65-.21.12zM271.7 281.18c-.14-1.31.86-.75.29-.25 0 0-.27.36-.29.25zM285.74 281.18c-.29-.76.86-.6.17 0 0 0-.15.08-.17 0zM294.76 281.18c-.33-1.36 2.28-1.32.45-.42 0 0-.41.57-.45.42z" fill-rule="evenodd"/><path d="M276.44 281c-.17-.27.14-.43.29-.21s-.25.27-.29.21zM270 280.8c-.12-.11 1.36-.94.54-.12-.13.13-.24.42-.54.12zM278.47 280.93a2 2 0 01.09-1.21c0-.08.05.22.12.25 1.9.75-.16 1.06-.21 1zM281.22 280.8c-.09 0 1.87-1.12.91-.16a.7.7 0 01-.91.16zM291.27 280.43c-.44-.56 1.89-1.6.54-.25-.08.08-.34.51-.54.25zM269 280.06c0-.07.44-.37.46-.42s-.07-.34 0-.42c1.24-.81-.59 1.45-.5.84zM272.7 280.18c0-.17.37-1.49.71-.95s-.7 1-.71.95zM289 280.18c-.26-.67.93-.65.17 0 0 0-.15.08-.17 0zM293.76 279.93c0-.65 1.49-3.12 1.41-1.58 0 0-1.41 1.87-1.41 1.58zM271.21 279.68c-.51-.5 1.29-1 .54-.25-.1.1-.3.5-.54.25zM276 279.18c-.25-.73.82-.69.17 0 0 0-.15.09-.17 0zM279 278.89c-.33-.84 2.24-.83.21-.16 0 0-.15.31-.21.16zM282 278.77c-.1-.09 1.65-1.11.71-.17-.19.19-.44.39-.71.17zM290.27 278.89c-.46-.58 1.42-1 .42 0-.1.09-.34.14-.42 0zM292.76 278.52c-.16-.16 1-.49.42.08-.1.1-.32 0-.42-.08zM274 278.4c-.49-.25.24-1 .45-.71s0 .94-.45.71zM288 278.27c-.16-.16 1-.49.41.08-.1.1-.32 0-.41-.08zM278.72 277.77c.1-.21.63.09.42.09s-.47 0-.42-.09zM276 277.52c-.06-.06 1.46-.95.92-.17-.08.12-.78.31-.92.17zM291.52 277.27c-.16-.16 1-.49.42.08-.11.11-.33 0-.42-.08zM293.76 277.4a1.86 1.86 0 01.58-1c.33.74-.57 1-.58 1zM277.48 276.53c-.16-.17 1-.5.41.08-.1.1-.32 0-.41-.08zM290.27 275.78c-.06 0 .07-.51.71 0 .17.13-.65 0-.71 0zM292.52 275.78c-.12-.12 1.36-.95.54-.13-.14.14-.25.42-.54.13zM295.5 275.65c-.14-1.23 1.37-1.1.71-.54a6.38 6.38 0 01-.71.54zM278.72 275.15c-.13-.71 1.58-1.45.42-.29 0 0-.4.36-.42.29zM291.52 274.53s.52-1 .58-.83c.18.4-.09 1.32-.58.83zM294.26 274.41c0-.94 1.28-1.12.29-.25-.07.06-.29.38-.29.25zM295.5 273.41c-.11-.65 1.17-1 .42-.29 0 0-.4.36-.42.29zM290.52 273.16s.49-2.28.71-1.25c0 .11-.18 1.92-.71 1.25zM293 272.91c-.77-.78 1.48-.42.42 0-.12 0-.33.13-.42 0zM281 272.66c-.29-.32.18-.8.45-.5s-.23.75-.45.5zM291.77 272.12c-.34-.42.9-1.1.41 0-.05.12-.33.14-.41 0zM297 272.12c-.5-.5 1.24-.95.54-.25-.09.1-.3.49-.54.25zM280.72 271.62c-.29-.29.16-.74.46-.45s-.22.69-.46.45zM294.51 271.62c-.15-.78 1.27-.92.16 0 0 0-.15.09-.16 0zM272.7 271.37c-.13-.71 1.95-1.49 2.45-1.74 2.1-1-2.42 1.88-2.45 1.74zM282.75 270.88c-.29-.76.86-.6.17-.05 0 0-.15.09-.17.05zM291.52 270.88c-.3-.15-.15-1.5.25-1.62.55-.18 1 .1.75-.87-.57-2.05.63-.55.7-.75.31-.86-.2-.68-.21-.75-.09-.76.4-1.45.25-2 0-.07-.22.07-.25 0-.08-.25.78-1.56 1-1.74s2.2-.88 1.33 0c-.66.65-.41-.17-.63 1.2 0 .25-.62.24-.7.3-.3.21.74.67.7.7-.76.57.29.6.3.62.58 1.63-2.35 2.32-2 3.49 0 .07.23-.07.25 0s.22 1.14.21 1.16c-.49 1.38-.84-.67-.92-.7-1.14-.52-.06 1.46-1 1zM279 270.63c0-.94.86-.66.09 0H279zM296 270.63c-.52-.48 1.3-1 .59-.25-.12.11-.32.49-.59.25zM282.21 270.25c.07-.15.38.08.21.08s-.23 0-.21-.08zM297.79 269.88c-.77-.78 1.48-.42.41 0-.11 0-.32.13-.41 0z" fill-rule="evenodd"/><path d="M294 269.63a2.87 2.87 0 01.08-1.2c0-.09.05.22.13.25s.54-.12.75 0-.87 1.26-1 .95zM295.75 268.88c-.17-.93 1.7-.84.21-.16 0 0-.17.33-.21.16zM276 268.26c-.23-.1 2.69-.8 1.42-.17a1.77 1.77 0 01-1.42.17zM297.54 268.13c-.77-.77 1.48-.41.42 0-.12.05-.33.13-.42 0zM275.73 267.64c-.09-.54.26-.63.17-.05 0 .05-.16.09-.17.05zM295.75 266.89c-.27-.7.34-.46.75-.38l-.75.38zM294 266.68c-.33-.09-.15-1.14.54-.62s.17.81-.54.62zM276 266.51a1 1 0 011-.25.76.76 0 01-1 .25zM297 266.39c-.09-.54.26-.62.17 0 0 0-.16.08-.17 0zM279.47 266c.1-.2.63.09.42.09s-.47 0-.42-.09zM279.47 265.64c-.21-.94.76-.94 1.45-1.29s.23-.8.75-.45 1.19.18.21.66c-.15.07-2.4 1.13-2.41 1.08zM298.29 265.64c0-.09.74-3.32.66-.58 0 0-.46 1-.66.58zM285.74 265.35c-.05-.07-.19-.45-.24-.5s-.62 0-.51-.12c.89-.89 1 .93.75.62zM277 265a.93.93 0 01.95-.25.75.75 0 01-.95.25zM295.26 264.85c-.78-.77 1.47-.41.41 0-.12 0-.32.13-.41 0zM286.24 264.61c-.07 0 .06-.21 0-.26-1.7-1.26 3.15-1.52 1.91-.29-.59.59-.77-.73-1.2-.2-.22.26.37 1.07-.71.75zM278.23 264.11a.32.32 0 01.45-.46c.24.24-.22.69-.45.46zM296.54 264.11c-.34-.25.68-.9.71-1 .65-2 .59 1.92-.71 1zM282.21 263.61c-.34-.7 1.39-.64 1.75-1 0-.05.2-.61.29-.62 2.25-.27 0 .35 0 .37-.12.19.14.58 0 .71-.33.21-1.19.11-1.71.37 0 0-.16.35-.25.17zM295.75 262.86c-.29-.19.75-1.15 1-1 .08.07-.28 1.43-1 1zM289 262.23c-.25 0 3.27-1.56 2.08-.37-.58.58-1.18.52-2.08.37zM294.76 262.36c-.05-.06.06-.19 0-.25s-.22.08-.25 0 .07-.35 0-.5-.24.07-.25 0c-.23-1.4.19-.59.95-.75.93-.18 0 .14-.16.75 0 0-.1 1-.29.75zM280.72 261.11c-.14-.09.29-.76.33-.7.42.49.24 1.11-.33.7zM281.71 260.49c-.06 0 .19-.06.21-.12.29-.75-.45-.38 0-.88a12.75 12.75 0 013.24-.58c.93.33-1.44.45-1.49.46s.09.4 0 .46c-.28.13-.68-.1-1 0s.18 1.1-1 .62zM294.51 260.12c-.62-1 1.05-1 .42 0-.08.1-.35.15-.42 0zM280 259.62c-.29-.29.17-.75.46-.46s-.22.7-.46.46zM263.19 191.25v-.5h.46l-.05.46-.41.04zM263.71 193.24c0 .11-.32.24-.41.24 0-.42.08-.68.58-.68.19.19-.11.34-.11.45s0 0-.06 0zM266 193.51c-.06 0-.17.13-.17.2-1.19 0 .57-.7.17-.2zM264.37 194.89c0 .24-.28.28-.28.38h-.26a.81.81 0 01.34-.7c.46 0 .56.16.2.34zM265.15 196.57l-.68.63c0-1.11 0-.81.93-.81s-.25.23-.25.15zM263.72 198.05c0 .25-.52.72-.77.72-.23-.68.54-.81.54-1.13a2.49 2.49 0 01.39 0c.05.07 0 .46-.16.46zM265.45 198.61a.59.59 0 01-.51.35v-.75l.52.15v.25zM264.17 199.91c-.57.05-.42.57-1 .57-.08-.41.61-.87 1-.87v.3zM266.66 200.08l-.35.08c0-.31.19-.3.42-.32a.63.63 0 010 .13s-.07.06-.1.06 0 0 0 .05zM265.05 200.87l.11.59-.71-.05a3.82 3.82 0 00.63-.53zM263.83 202.3c0 .32-.36.46-.53.63l.67-.87c0 .1-.07.19-.07.26zM265.9 202.32a.48.48 0 01-.06.33l-.49-.16.55-.17zM264.44 203.87l-.48.5h-.22l.7-.5zM265.22 204.85a3.48 3.48 0 01.79 0v.06c-.09.09-.27.26-.41.26a1.44 1.44 0 01-.36 0c0-.07-.06-.23 0-.27s0 0 0-.06zM263.42 206.61c1.81-1.31.57 1.13-.15.28l.15-.28zM265.71 207.41c-.7-.42.21-.92.32-.55a.43.43 0 01-.32.55zM267.39 208.43s0-.46.14-.38c.47.18.09.52-.14.38zM265.67 209.38c1.42-1.19 1.09 1.09 0 0zM263.71 209s-.06-.64.36-.71c1.45-.26-.36 1.26-.36.71zM277.23 181.82h.46l-.05.15-.41-.15zM276.48 183.81a.66.66 0 00.33-.33l.09.41-.42-.08zM276.21 185.54l.1-.59.11.54-.21.05zM274.9 186.59l.13-.7c0 .21.08.43.13.64l-.26.06zM274.45 188v-.46l.45.08-.45.38zM275.24 188.91v-.36h.4l-.03.33-.37.03zM274.36 190.33h.79l-.07.22-.72-.22zM274.45 192.49l.08-.46.08.42-.16.04zM273.7 194.11l.33-.33.08.42-.41-.09zM275.07 195.32h.5l-.08.16-.42-.16zM272.95 196.23v-.46l.46.09-.46.37zM269.21 193.37l.25-.3.21.05-.29.33-.17-.08zM267.29 192.34h.73l-.07.13-.66-.13zM270.46 184.48v-.5h.46l-.05.45-.41.05zM271.21 183.19v-.46l.45.08-.45.38zM269.46 183.06h.96l-.05.22-.91-.22zM281.47 195.48s-.41-.71 0-.52c.82-.14.2.23.7.4l-.7.12zM282.5 194.49c-.29-.39.11-.48.21-.71s.09 1.1-.21.71zM281.21 196.6l.71-.08-.04.42-.67-.34zM281.71 198.52c-.14.11-.24-.59-.24-.71h.45l.25.33-.46.38zM281.71 199.51s.15-.25-.24-.25v-.45h.45l.5.66h-.71zM280.66 199.34c-.12 0 0-1.28.22-.06l-.22.06zM280.24 198.26c-.12 0 0-1.27.21 0h-.21zM284.5 200c-.32 0 .45-.75-.25-.75l.08-.45.62.25v.91h-.41zM285.74 199.76s-.16-1.4-.16-1.7l.62.5v1.16h-.42zM286.74 199c-.47.05.6-1.24-.25-1.24v-.5h.51l.5.54-.29 1.16h-.42zM291.08 186.18a2.44 2.44 0 01-.54 0v-.94s.44.84.44.86h.02l.07.1zM289.68 187.72c0-.93-2.05-1.71-1.54-3.13a.15.15 0 01.21-.05c0 1.38 2.33 2.68 2.33 3.9-.37 0-.75-.47-1-.72zM289.31 189.21l-.79-1.21c1 0 1.65 1.69 1.65 2.54H290c0-.25-.46-1.33-.65-1.33zM287.7 189.66a5.15 5.15 0 01-.16-.56.72.72 0 010-.26c.77 0 2.43 2.86 1.77 2.85a10.23 10.23 0 01-1.53-2.1v.07zM288.63 193.25c-.41-.42-.88-.7-.88-1.3 1.08 0 1.07.63 1.07 1.28h-.19zM282.37 192.57c-.26-.52-1-.24-1-1 .21 0 3.89 1.6 3 2.46l-2.05-1.41zM282.42 189.19c-.32-.32-1.31-.39-1.31-1.05.09 0 .3-.12.44-.12a1.93 1.93 0 00.51.38 2.85 2.85 0 00.77.16c0 .94 3.67 3.31 3.1 3.88-.52 0-.62-.33-.95-.61-.87 0 .23.81-.05 1.17a.94.94 0 00-.17.18h-.27c0-.85-3.59-3.55-3.52-3.61.58-.31 2.62 1.56 3.35 1.56a7.63 7.63 0 00-1.88-2zM284 189l-2.7-2.19c1.24-1.24 5 3.21 5 5.09a18.34 18.34 0 01-2.3-2.9z" fill-rule="evenodd"/><path d="M283.79 187.09c-.58-.56-1.49-1.29-1.49-1.29s-.55-1.3.12-.67c1.38 1.29 4.21 2.93 4.21 5.09 0 .8-.74-.91-.84-1-.44-.51-2-2.1-2-2.1zM284.28 185.76l-1.59-1.22s-.76-1.32 0-.77a13.14 13.14 0 014.12 4.11c.62 1.11-2.39-1.93-2.56-2.12zM284.42 184s-1.89-.88-1.89-1.57c1.33.13 3.08 2.29 4 2.29.09-.09 0-.51-.12-.58-.32-.32-.88-.56-.88-1 .09 0 .35-.07.48-.07a14.6 14.6 0 011.61 2.22v.23c-.54 0-.35-.56-1.21-.56 0 .43.67 1.05.93 1.38a1.4 1.4 0 01.21.7c-.46.47-.53-.7-.77-.7 0-.44-2-1.91-2.3-2.24l.25.32c0-.07-.41-.44-.32-.39zM293.26 181.57c-.65-.81 1.18.08.67.08-.23 0-.53.09-.67-.08zM295.5 183.44l.5-.44c.07 0-.07.21 0 .25s.37 0 .54.08-.73.24-1 .13zM297.29 183.44l1-.71c.08 0-.07.2 0 .25s.42-.07.5.08c.22.47-1.31.37-1.46.38zM298.29 184.23c-.1 0 0-.21 0-.29s-.34-.1-.25-.13c1.24-.44 3.37-1.13.7.13v.25h-.42zM299.54 186.22c-.09 0 .06-.2 0-.25s-.66-.05-.5-.12c.89-.41 1.56.27.5.37zM300.78 186c-.15 0-.14-.39 0-.46 2.21-1.06 2.25-2 1.91-.08a8.57 8.57 0 01-1.91.54zM302 186.47c-.16 0 0-.54.08-.46.57.38.45.41-.08.46zM303 186c0-1.36.8.73 0 0zM304.31 186.47c0-.23-.15-.65.09-.71.39-.1 0 1-.09.71zM304.31 185.22c-.07 0 .08-.22 0-.25-1.6-.53-.8 0-.25-1.66l.71-.08c0 1.48.58 1.44-.46 2zM303 187.47c-.6 0 .48-.66.75-.71v.67h-.71zM302 188l.16-.05c0 .06-.15.1-.16.05zM281.22 175.67l.09-.49.08.45-.17.04zM282.5 171.39h.96l-.04.25-.92-.25zM284.75 171.56l.33-.34.37.34-.04.08-.66-.08zM286.74 171.43v-.45l.46.08-.46.37zM267.88 184.21c.29-.74.81.06 1 .06l-.84.23s-.16-.06-.16-.21v-.08zM267.85 185c1.45.73-.48.84-.48.26-.36 0 .13-.29.48-.26zM262.62 185.41c-.05.17-.55.26-.55.58H262l.13-.54c0-.4.39-.57.55-.88.86 0 .35.48 0 .86zM262.15 182.53c.07 1-1-.14 0 0zM262.45 181.82c-.12 0-.12.16-.27.16s-.06-.16-.06-.24-.12-.07-.21-.07c0-.51 0-.46.52-.46 0 .41.4.22.1.53l-.06.08zM258.21 181.11a5.31 5.31 0 011-2.26h.12c0 .37-.09.79-.09 1.21.23 0 .61.07.91.07 0 .41-.4.52-.4 1-.84-.21-.83 0-1.49 0zM251.33 187.46a5.46 5.46 0 01.94-2.27h.12c0 .38-.08.8-.08 1.21.22 0 .6.08.9.08 0 .41-.4.51-.4 1-.84-.21-.83 0-1.48 0zM254.87 187.29h-1.15c0-.07.28-.19.34-.26 2.32 0 2.77-2.69 3.7-4.08v-.12h-.15c0-1.21 1.27-1 2.07-1v.23c-1.11 0-2.09 5.22-4.85 5.23z" fill-rule="evenodd"/><path d="M253.42 183.23a2.87 2.87 0 01.91-1.89c2.9-3.36 1.68-7.24 3.59-11.24 0 0 2.06-2.36 1.2-.52-1.46 3.12-1.33 6.3-2.64 9.49-.19.45-.3.8-.3.8 2.05-3.68 2.58-7.55 4.64-11.16 0 0-1.17.47-1.31.76-1.52 3.06-.23 6.17-1.71 9.15-.49 1-1.63 2.27-1.55 3.36a22.87 22.87 0 01-1.09 3.63c-1.24.62 1.37-4.34-.34-1.7l-.61 1.7a6.35 6.35 0 01.31-2.91c.22-.41-.12-.75-.27-.34a5.4 5.4 0 01-.79 1.7v-.83zM247.61 191.86v-.57h.32l-.06.52-.26.05zM339.87 158.89a6.58 6.58 0 00-2.29-3.78c-.81-.38.16-.1-.25-.5s-2.33-.65-3-1.25 1.62-.22 1.7-.2.09.44.25.49.59-.05.75 0-.1.16 0 .25.64.11 1 .5 1.07 1.57 1.75 2.24.1 3.33 0 2.25zM330.6 160.38c.26-.09 1.54-1 1.65-.56.39 1.61-3.33 1.1-1.65.56z" fill-rule="evenodd"/><path d="M332.88 147.94c-.09-.66-1.2-2.15.32-.63.48.48.57 3.61.53 4.17-.05.87-1.78-.08-1.14 1s2.73 4.14 2 5.39c-.26.43-.66.92-1.09.88s.53-3.18-.12-4c-.17-.21-.32-.1-.32-.1a24.86 24.86 0 01-1.07-2.85l.01-2.8c0-1.62 1.1.71.85-1zM331 148.48c-.2-1.24-.46 1.73-.64 1.76-1.17.17-.5-1.45-.63-2.44 0-.18-.91-2.1-.58-2.1 0-.27.29-.68.29-1h.22c.72 1.52 2.06 3.25 2.1 5 0 .41.11 1.32-.47 1.32-.81 0 .05-1.85-.29-2.54zM334.27 147.16c-.19-.33-.77-.49-.95-.92-.1-.23.13-.79.46-.59 1 .64 2.07 5.64 2.07 5.61 0-1.87-.85 1.75-.7-.46a5.59 5.59 0 00-.88-3.64zM332.2 145a2.87 2.87 0 01-.92-.08 2 2 0 00-.44-1.22c-.51 0-1 .25-1.51 0 0 0 1.55-.29 1.73-.29.37.37.78 1.13 1.14 1.59zM346.89 170.69c-.53.05.95-2.25.83-1.75l-.41 1.7-.42.05zM346.89 173.43c-.56 0 .19-1.42.42-.29l-.24.29zM335.09 170.14c-.07 0 .07-.22 0-.24-2.93-.92.72-.8 1.21-.46.95.66-.94.74-1.21.7zM318.46 166.4c-.33-.31-1.35-1.58 0-.71s2.77.5 3.38 1.64c.32 0 4.51-.56 1.9.24-2.12.64-3.66.71-5.28-1.17zM328.18 152.05l.08-.79.12-.04.05-.12.29-.09-.04 1-.5.04z" fill-rule="evenodd"/><path d="M326.88 144.83c1.39 1.79 1.68 5.25 2.5 7.45.07.19.32-.18.49-.09s0 .74.15 1 .37.13.46.29c.51.92.68 2.89-.64 2.63-.25-.05.49-2.39 0-2.39-1.11 0-1.65 1.59-2.09 1.15s1.33-2 .44-2.32c-.59-.24-.65 2.06-1.56 1.61-.26-.13-.16-.76.1-.85 1.45-.53 1.17-5.93.76-7.07-.22-.6-1.08-.66-1.08-1.32H326.88zM322.43 140.8c0-.13.12-.61 0-.71-1 0-.3.45 0 .71zM346.48 160.64c0-.13.13-.62 0-.71-1 0-.3.44 0 .71zM318.55 137.76a2.36 2.36 0 01-1.13-1.59c.21-.2 1.07.49 1.42.49a5.48 5.48 0 01.11.74c.27.77 1.86 1.29 1.86 2.45h.15c.18.36.15 1.45-.39 1.45-.37-.37 0-2.4-.71-2.69s-1.22 0-1.31-.86zM321.32 138.2c-.49-.17-1.44-.13-1.44-.83l1.44.83z" fill-rule="evenodd"/><path d="M320.12 142.19l-2.95-3.9c1.53 0 2.95 2.39 2.95 3.9zM303.56 170.69l.34-.5.37.33-.04.12-.67.05zM261.94 170.39l.67-1.7c-1.18-.42-.09-2.41 1.33-2.41s-1.37 1-1 2.08.22-.4 1.54-.83c0 0-2.59 3.64-2.5 2.86zM277.73 170.39l.08-.45.37.33-.04.08-.41.04zM281.22 170.39v-.45h.45l-.04.41-.41.04zM284.25 169.77h.45l-.04.08-.41-.08zM264.93 169.65v-.25h-.25v-.46h.96l-.04.42-.46.12-.04.12-.17.05zM264.82 166.31v-.25h-.25v-.46h.96l-.04.42-.46.12-.04.13-.17.04zM306.27 169.52h.45l-.04.08-.41-.08zM317.56 169.65c-.07 0 .07-.22 0-.25-.26-.13-.76-.13-1-.25a3.84 3.84 0 00-.25-.5c-2-2-4.08-3.34-6-5.24l1 .25v.3c1.41.35 5.48 3.94 6.27 4.73.06.06-.07.21 0 .25s.35-.07.5 0-.06.22 0 .25c1.28.63.49.61-.46.46zM287.99 169.4v-.71h.45l-.04.67-.41.04zM305.31 169.4v-.46h.46l-.04.42-.42.04zM267.43 169.15v-.25h-.5v-.46c1.87 0 .5.82.5.71zM314.53 168.9c-1.94-1-2.6-2.66-5.27-4 0 0-.92-1-.05-.71.07 0-.07.24 0 .25 2.15.51 5.4 4.49 5.32 4.45z" fill-rule="evenodd"/><path fill-rule="evenodd" d="M262.73 168.65l-.08-.17.21-.08.08.17-.04.08h-.17zM289.77 168.65v-.46h.71l-.04.42-.67.04zM303.56 168.53l.34-.34.37.34-.04.08-.67-.08zM284.25 168.03h.45l-.04.08-.41-.08zM300.53 168.15v-.46h.46l-.04.42-.42.04zM312.54 163.37v-.24l-.75-.25v-.25a35.43 35.43 0 01-3.78-2.12c.84-.37 2.22 1.41 3.24 1.41v.25l1.24.25v.25c.46.11 6.89 5.37 6.49 5.44-2.13.36-4.14-4-6.44-4.74zM298.29 167.78h.71l-.05.08-.66-.08zM287.49 167.65v-.46h.46l-.05.42-.41.04zM266.18 167.03l.71-.17.04-.12.2.04-.28.33-.67-.08zM289.24 167.03h.74l-.04.08-.7-.08zM305.31 167.16v-.25l-.25-.13.71-.08v.25l.2.08-.04.08-.62.05zM261.11 167.01v-.24l-.25-.13.2-.12.13-.71.12-.04.05-.12.45-.13.04-.12-.74 1.61zM268.42 166.53h.75l-.04.08-.71-.08zM304.06 166.53h.46l-.04.08-.42-.08zM275.19 166.28h.25l-.04.09-.21-.09zM276.98 166.28h.46l-.05.09-.41-.09zM278.72 166.28h.46l-.04.09-.42-.09zM302.03 166.41v-.46h.45v.25l.26.08-.05.09-.66.04zM307.01 166.41v-.46h.46l-.04.42-.42.04zM282.21 166.16v-.46l.5.08-.5.38zM300.03 166.03l.34-.33.37.33-.04.09-.67-.09zM262.1 165.78l.7-.33-.04.42-.66-.09zM267.18 165.41v-.46l.7.09-.7.37zM287.49 165.41v-.46h.46l-.05.42-.41.04zM306.01 165.41l.09-.46.37.33-.04.09-.42.04zM263.94 165.04l.7-.25-.29.33-.41-.08zM289.24 165.16v-.46h.49l-.04.42-.45.04zM305.06 164.91v-.46h.46l-.04.42-.42.04zM291.02 164.54h.46l-.04.08-.42-.08zM265.68 164.04h.46l-.04.08-.42-.08zM299.78 164.16v-.25h-.24v-.25h.45v.3l.25.08-.04.08-.42.04zM303.02 164.04h.75l-.04.08-.71-.08zM312.79 161.63v-.25h-.25v-.25c-1 0-2.93-1.19-4-1.74-.75-.38 3.74 1.28 4 1.28v.25c1.82 0 4.21 2.26 6.78 2.74.08 0-.07.25 0 .3s.76.15.45.16c-3 .16-4.39-1.64-6.93-2.49zM279.97 163.91l.08-.25.09.21-.17.04zM307.51 163.91v-.29h-.25l.08-.45c.19.37 1.66.65.17.74zM309.5 163.25c1.11.19-.22 0 0 0zM307.76 162.38v-.25h-.25l.08-.46c.23.46 1.72.78 1.33 1.16-.23.24-.88-.45-1.16-.45zM305.31 162.63v-.25l-.25-.13.71-.08v.25l.2.08-.04.08-.62.05zM271.7 162.38l.09-.46.08.42-.17.04zM265.42 162.23l.09-.46.08.42-.17.04zM303.31 162.13v-.25l-.29-.13.5-.08-.04.42-.17.04zM314.32 159.88c-.1-.1-.48 0-.2-.7s-.09-.48-.09-.54c.19-1.7 1.94 1.16 2.2 1.29s.76.12 1 .25c.07 0 1.61 1.84 1.21 1.91-2.52.43-2.84-.88-4.16-2.21zM278.47 161.88v-.46l.46.08-.46.38zM280.72 161.63v-.46l.46.08-.46.38zM266.93 161.25h.45l-.04.09-.41-.09zM268.42 161.01l.29-.29.21.04-.29.33-.21-.08zM306.27 160.26h.45l-.04.08-.41-.08zM302.52 159.76h.46l-.04.08-.42-.08zM309.26 158.14H311v.25l1.74 1-.2.45c-1.15-.37-1.21-1.17-2.5-1.49 0-.69-1-.25-.78-.25zM266.43 159.64l.08-.46.13-.04.04-.13h.7l-.95.63zM282.21 159.01h.5l-.04.08-.46-.08zM267.92 158.51l.88-.58.08.42-.5.12-.04.13-.42-.09zM265.68 158.26c-.36-.18.81-1.31.92-.66h-.13l-.12.46-.42.08-.08.17-.17-.09zM263.49 164.42c-.36-.18.8-1.31.91-.66h-.12l-.13.46-.41.08-.09.17-.16-.09zM306.01 158.39v-.46h.46v.25l.25.08-.04.09-.67.04zM311 156.85c-.13-.15-1.17-.19-.66-.7.06-.07 0 .22.12.25.42.15 1.5.1 1.5.79h.49l.25.49h.3l-.7.71v-.5h-.3v-.25c-.93-.31-.51-.21-1-.79zM304.31 157.89v-.25l-.25-.12.46-.08-.04.41-.17.04zM318.06 157.77c.06-.67 1.27-.2.67.08-.2.09-.69.13-.67-.08zM270.46 157.52h.46l-.05.08-.41-.08zM272.2 157.52h.46l-.04.08-.42-.08zM273.7 157.64v-.45l.7.08-.7.37zM316.27 157.39c-.27-.2-.11-1 .46-.75.06 0-.06.23 0 .25s.42-.11.54 0c.45.41-.62.78-1 .5zM275.98 157.14v-.25l.46.09-.04.12-.42.04zM264.09 159.18l.95-.34-.04.42-.91-.08zM265.93 156.35l.08-.45.13-.04.04-.13h.71l-.96.62zM307.76 156.35v-.25l-.5-.12c.95-.08 1.55.27.5.37zM312.54 156.35c-1-1.28 1.12-.62-.5-2.24-2.28-2.28 1.27-.13.91 1.21 0 .05-.29 1.19-.41 1zM315 156.35c-.54-1.08 1.28-.43.66 0-.18.12-.57.23-.66 0zM317.31 156.35c-.07 0-.22-.46-.25-.49-.23-.27-.77-.16-1-.25-.08 0-.67-1.18.2-.71.07 0-.07.21 0 .25s.38-.1.5 0-.09.4 0 .46 2.89.34.54.74z"/><path d="M318.56 156.35c-.12-.07-.1-.35 0-.45.53-.53.94 1 0 .45zM269.71 155.98h.46l-.04.08-.42-.08zM305.81 155.86v-.25l-.25-.13.41-.08-.04.41-.12.05zM261 168.4a1.79 1.79 0 011.24-1.62L261 168.4zM267.43 154.98l.83-.58.08.42-.25.25-.66-.09zM310.54 155.11c-.87-.44 1.12-.75.42 0a.4.4 0 01-.42 0zM314.53 155.11c-.14-.49.37-.51.25-1 0-.08-.26 0-.25-.12.1-.62 1 0 .67.58-.07.11-.32 0-.42.08s-.16.76-.25.46zM317.31 154.48c-.45-.92 1.59.09.92.09-.31 0-.79.18-.92-.09zM318.81 154.61c-.23-.29 0-.66.46-.13.06.09-.38.23-.46.13zM308.51 154.11c-.14 0-.12-.36 0-.46.52-.42.6.56 0 .46zM283.25 153.74h.46l-.04.08-.42-.08zM285.25 153.86v-.45l.7.08-.7.37zM312.79 153.61c-.51-.64.46-.71.16 0 0 0-.14.08-.16 0zM306.51 153.24l.34-.33.08.41-.42-.08zM267.1 152.41l.33-.33.08.41-.41-.08zM313.78 152.41h.46c-.07.68-.46.79-.46 0zM317.31 152.16l.46.08c-.44.36-.46.66-.46-.08zM268.96 152.24h.46l-.04.08-.42-.08zM279.22 152.12v-.46l.71.08-.71.38zM281.22 151.87v-.46h.45l-.04.42-.41.04zM308.26 151.87l.08-.46.09.42-.17.04zM316.03 151.87v-.71h.45v.5l.25.08-.04.09-.66.04zM268.71 151.62l.09-.46.12-.04.04-.12h.46l-.29.58-.42.04zM285.25 151.62v-.25l-.25-.12h.7l-.45.37zM313.29 151.62l.08-.46.08.42-.16.04zM287.24 151.37l.08-.46.08.42-.16.04zM310.79 150.62l.09-.5.08.46-.17.04zM269.96 150.37l.33-.5.08.17-.41.33zM315.28 150.37v-.29l-.25-.12.46-.09v.25l.24.09-.04.12-.41.04zM313.29 150.08v-.25h-.25v-.25h-.25v-.45h.45v.25h.5l-.04.66-.41.04zM309.01 149.83l.08-.45.08.41-.16.04zM307.26 149.33v-.24l-.25-.13.71-.08-.04.41-.42.04zM314.03 149.33v-.45h.46l-.04.41-.42.04zM283.75 149.09v-.46l.46.08-.46.38zM287.74 148.84v-.46l.45.08-.45.38zM314.53 148.09v-.25l-.25-.13.46-.08-.05.42-.16.04zM309.01 147.71h.7l-.04.09-.66-.09zM310.79 147.09l.09-.46.08.42-.17.04zM284.5 146.72h.45l-.04.08-.41-.08zM309.25 146.34v-.45h.46l-.04.41-.42.04zM271.7 145c-.24-.12 1.39-1.23.17.09l-.17-.09zM306.51 145.1v-.46h.46v.25l.25.08-.04.09-.67.04zM276.23 144.6v-.46l.71.08-.71.38zM305.06 144.6l.08-.46.09.42-.17.04zM278.72 143.73l.34-.38.08.46-.42-.08zM303.81 143.19h.46l-.04.08-.42-.08zM304.81 143.31v-.25h-.25v-.95h.46l-.21 1.2zM289.77 143.06v-.46l.46.09-.46.37zM276.98 142.81v-.25h-.25v-.45h.46l-.04.66-.17.04zM286.99 142.31l.08-.7.13.25h.25l-.05.41-.41.04zM274.2 141.94c-.28-.14.15-.61.49-.54s-.21.68-.49.54zM278.97 142.06l.09-.45.08.41-.17.04zM313.04 141.94l.2-.13.13-.7.12.25h.25l-.29.66-.41-.08zM288.24 141.81v-.45h.45l-.04.41-.41.04zM290.27 141.81l.09-.45.12-.04.12-.46.09.91-.42.04zM281.71 141.57l.09-.46.08.42-.17.04zM276.23 140.44l.46-.16.04-.13.21.05-.29.33-.42-.09zM288.49 140.57l.08-.46.37.33-.04.09-.41.04zM303.31 140.32l.09-.71.12-.04.04-.45-.25 1.2zM313.78 140.32v-.46h.46l-.04.42-.42.04zM312.04 139.32v-.45h.45l-.04.41-.41.04zM287.49 138.82l.08-.45.38.33-.05.08-.41.04zM313.29 138.82v-.24h-.25l.08-.71.12.25h.25v.25h.25l-.04.41-.41.04zM304.81 138.58v-.25h-.25v-.46h.46l-.04.66-.17.05zM315.53 138.08c-1.59-.5-.68-.71-1-1.54l-1.74-1.5c-.64-.87 1.7-.37 1.7.55s2.62 3 1 2.49zM311.04 137.58v-.25h-.25v-.75h.46v.29h.25l-.04.67-.42.04z" fill-rule="evenodd"/><path d="M316 136.83l-1.5-1.79c-1.39 0 1.45-.14 1.45.79s.7 1.77 0 1zM309.01 136.54v-.25l-.25-.13.33-.33.12.25h.25l-.04.42-.41.04zM304.81 135.67h.46l-.04.08-.42-.08zM309.01 134.42h.45l-.04.08-.41-.08zM324.47 153.72c-.18-.18 0-.43.19-.56 1.55-1.35 1.88-3.57 1.88-5.51h.17c1.67 1.67.26 6-2.24 6z" fill-rule="evenodd"/><path d="M323.72 152.5c1.22-.92.78-4.2.82-5.48 0 0 .12-.05.2-.05a5.56 5.56 0 01.05 5.34c-.71 1.2-1.47.49-1.07.19zM320.94 151.21a.37.37 0 010 .42h-.05c-.14 0-.88 0-.71-.34.37 0 .07-.26.8-.12zM321.55 158.82c.64-.37 2.06-.94 2.29-1.64 0 0 .77-.09.34.37s-1.89 2-2.63 1.27zM319.29 160.72c-.22-.46 2 .49.61.49-.17 0-.08-.1-.32-.22a.55.55 0 01-.29-.27zM321.07 164.33c.45-.68 2.79-.37 3.74-1.44a7.51 7.51 0 002-3.32c.06-.17 2.72-.76 3-1 .64-.52.64-1.64 1.46-1.64 0 0-.52 1.77-1.75 2.22s-1.83.25-2.43 1.32c-1.06 1.87-1.78 3.59-4.31 3.73l-1.72.1z" fill-rule="evenodd"/><path d="M322.28 162.6l-.51-.3s2.41-.39 3.33-1.56l1-1.34c.36 1.33-1.25 2.88-2.48 3a5.41 5.41 0 00-1.39.22zM325.33 166.41v-.46l.46.08-.46.38zM316 182.36c-.05-.07.11-.24.16-.17l-.16.17zM321.57 189.12c.12-.6-1-3.21-.74-.63 0 .23.55 1.55.74.63zM314 189.51a2.88 2.88 0 00-.26.48h-.54v.13h-.41c.08-.7 1.2-2.07 1.2-1.21a2.17 2.17 0 00.05.51zM325.71 141.61c0 .63 1.6 1.65 2.07 1.65 0-.83-2.22-.9-2.07-1.65zM348 164.34c.4-.49-.15-2.31-.51-2.61-.54.64 1.11 2.13.51 2.61zM335.88 148.84c0 .63 1.6 1.66 2.07 1.66 0-.83-2.22-.9-2.07-1.66zM302.28 213.72l-.25-.38.45.17.13.25-.33-.04zM300.53 213.47v-.46l.46.25.25.08-.04.09-.67.04zM297.04 212.97l.09-.71.12.25.25.09-.46.37zM302.28 212.47a2.63 2.63 0 01-.5-.5c-.07-.13-.11-.35 0-.45s1.17.65.91.91a.36.36 0 01-.41 0zM299.29 212c-.23-.11-.45-.53-.25-.74s.88.48.66.7a.36.36 0 01-.41 0zM303.81 211.19c-.05-.07.08-.22 0-.25s-1.24-.43-1-.79c.3-.55 1.21.3 1.25.41a.89.89 0 010 .58.12.12 0 01-.17.05zM296.55 210.94l.08-.38.08.33-.16.05zM300.78 210.94s-.42-.64-.25-.88c.38-.51.44.24.46.25s.22-.08.25 0a.69.69 0 010 .58.38.38 0 01-.42.05zM295.5 210.27c0-.52-.3.08-.16-.71l.37.25v.42h-.17zM305.31 210c-.18-.22-1-.76-.78-1.18 0-.05.37.08.65.32a.66.66 0 01.29.82c0 .06-.13.09-.16 0zM296.3 209.52l.08-.45.08.41-.16.04zM302 209.52c-.08 0-.78-.76-.5-1.2s.64.59.71.75.28 0 .24.08a.7.7 0 01-.45.37zM298.54 208.65c.47-.21 1.28.22.91.58a.36.36 0 01-.41 0c-.08 0-.59-.58-.5-.62zM292.76 208.94l-.25-.29h.21l.25.25-.04.08-.17-.04zM294.51 209.02v-.24l-.25-.13.46-.08-.04.41-.17.04zM291.52 208.28v-.25l-.25-.13.46-.08-.04.41-.17.05zM293.51 208.28v-.25h-.25l.09-.46.12.25h.25l-.04.41-.17.05zM295.5 208.28l-.24-.5v-.46c.24 0 .28.3.38.39s.31.14.28.52l-.42.05zM303.31 207.53v-.46c.61 0 .7.41 1 .75.05.07.31 0 .25.08s-.71.64-.71.38c0-.73-.07-.33-.5-.75zM300.78 207.53l-.25-.13c.36-.06.88.13.67.59 0 0-.17.1-.17 0l-.25-.5zM305.56 207.28l-.25-.25v-.95c.73 0 .66.43.62 1.16h-.37zM307.76 207.28v-1l-.25-.25H307v-.7c2.16 0 .75 2.43.75 1.95zM292.27 207.03l.08-.46.37.34-.04.08-.41.04zM294.26 206.78c-.7.07 0-.59.08-.7l.13.24h.25v.42h-.42zM291.27 206.53c-.08 0-.23-.36-.25-.37l.46-.08-.05.41h-.16zM299 206.53c-.47 0 .45-1.16.45-.21l.25.09v.08h-.66zM302.28 206.53c-.3 0-.75-.7.2-.7v.25h.26l-.05.41h-.41zM293.26 205.54c-.08 0 .08-.22 0-.25l-.25-.13.46-.08v.41h-.17zM304.06 205.54s-.66-.58-.25-.63c.59-.07 1 0 .92.58h-.67zM301 205.29c-.3 0-.75-.71.21-.71v.25h.25v.41h-.42zM306.51 205c-.06.1-1.31-1.25 0-1.25v.25h.25v.25h.24l-.46.75zM303 204.25c-.09 0-1.19-1 0-1v.25h.29v.67h-.21zM295.75 204c-.18 0 .59-1.31.46 0h-.46zM298.54 203.13l.46-.13v.25h.25c-.1 1-.27.05-.7-.16zM304.81 203.25c-.08 0-.46-.25-.5-.25v-.5l-.25-.12c.64-.08 1.23.19 1.17.83h-.42zM307.51 203c-.35 0 .1-.5-.5-.5v-.45h.71v.25h.28v.66h-.42zM297.29 202.75c-.08 0 .08-.21 0-.25l-.25-.12.46-.08v.41h-.17zM300.78 202.75c-.38 0-.38-1.14 0-.45h.5v.41h-.42zM299.29 201.51l-.25-.13.45-.08v.41c-.38.1 0-.14-.16-.2zM303 201.51s-1-.53 0-.71v.25h.29v.41h-.21zM306.27 201.51c-.42.11-.07-.5-.71-.5v-.46c.64 0 .18.25.91.25v.66h-.16zM308 200.76c-.08 0-.21-.27-.74-.32.08-.43 0-.45 0-.89.88 0 .48.68 1 .68l.19.49h-.41zM301 200.26c-.72.07.21-1 .21-.21l.25.09v.08h-.42zM304.06 199.76c-.92.06.46-1 .46-.21l.25.09v.08h-.67zM306 199c-.09 0-.28-.36-.21-.37l.66-.08v.41h-.41zM307.51 197.23c-.08 0 .08-.25 0-.25H307v-.46h.71v.25h.29v.42h-.42zM308.76 197s.73-1 .25-1.25l-.25-.12.7-.09-.25.88.25.12v.42h-.66zM305.56 196c-.46 0 1.07-.94.62 0h-.62zM307.51 195s.21-1.7.21-.45h.28v.41h-.42zM309.5 195c-.45.23.25-1.24-.49-1.61l.33-.34.12.25c.94 0 .46.44.24 1.12l.55.21-.75.37zM309.5 191.5c-.45 0 1.43-1 1-.05l-1 .05zM309.75 189.21c-.22 0 0-.88.5-.46s-.28.44-.5.46zM312 188c.77-.78.71.92 0 .7s-.17-.54 0-.7zM310.79 187.47c-.59.05-.4-.42.46-.13v.09h-.42zM311.21 185.53l1.74-.6c-1.12.31-1.65.92-.7 1.08l-.05.42c-1 .1-1.63-.68-1-.9zM312.79 183.19c-.12 0-.15-.88.45-.13.1.12-.42.13-.45.13zM328.07 173.43v-.25l-.25-.13.46-.12.04-.13h1.21l-1.46.63zM262.69 189.46l.33-.71.09.42-.42.29zM262.47 192.1c-.29.58-.56.52-.56-.25h.69a.32.32 0 01-.09.16zM262.52 194.52v.43h-.3c0-.19-.12-.64.27-.64a.43.43 0 010 .16zM251.93 201.56l.11-.58-.81-.29 1.62-.14-.06.54-.21.05-.65.42z" fill-rule="evenodd"/><path fill="#fdd6c6" fill-rule="evenodd" d="M282.71 228.8v-.29h.29l-.04.24-.25.05z"/><path d="M265.45 265.41s.27-5.17.36-6.16.09-4.86.09-5.12.35-1.33.26-.23c-.53 6.87 1.88 16.25-2.8 22.12-.63.8 2.44-5.12 2.09-10.61zM266.22 275.65l-.08-.04v-.46h.29l-.04.5-.09.04-.08-.04zM344.31 162.92c-.69-.32 0-2.13.79-2.76.59-.49.5 3.35-.79 2.76zM326.54 180c-.06-.05.06-.22 0-.25s-1.28-.25-.67-.29c2.12-.13.73.59.67.54z" fill="#fff" fill-rule="evenodd"/><path d="M308.22 216.5v-.25H308c0-.94-.75-.91-.75-1.74H307V214a2.09 2.09 0 011.75 2.49h-.5z" fill="#fdd6c6" fill-rule="evenodd"/><path d="M312.58 230.25l-.09-.16a5 5 0 001-1c1.94-.53 4.24-4.21 6.23-5.4a23.83 23.83 0 003.12-3.7c.63-.21 6.69-8.18 7.52-11.21l.12-.05v-.12l.34-.08-.05.74h-.24l-.05.46h-.12c-.67 2.46-3.58 5.51-4.86 7.65-1 .34-1.67 3-2.66 3.32-.93 1.55-2.77 2.54-3.61 3.95-1.73.57-3.58 4.2-5.24 4.65a3.15 3.15 0 01-1.45.87z" fill="#fff" fill-rule="evenodd"/><path d="M310.83 233.53l-.08-.16a29.9 29.9 0 004.45-3.91c.37-.37 1-.78 1.49-1.24a12.6 12.6 0 012.78-2.5c.59-.29 1.31-1.68 1.87-2.24a16.9 16.9 0 003.53-4.24c.28-.55 4.07-5.21 4.16-4.94s-4.21 6.5-5 7.19a9 9 0 00-2 2.49c-.33.66-2.43 1.68-2.87 2.57-.54 1.1-7.12 7-8.31 7z" fill="#fff" fill-rule="evenodd"/><path d="M308.72 236.81c.39-1.37 3.44-2.2 3.77-3.2 1.35-.36 3.29-3.35 4.2-3.65.22-.66 4.29-3 4.82-4.61.52-.31.93-1.24 1.45-1.41.07-.25 4.16-5.69 4.28-5.73.16-.32.44-.44.62-.75 1.64.81-14.19 17.7-17.82 18.69a2.58 2.58 0 01-1.32.66z" fill="#fff" fill-rule="evenodd"/><path d="M308.72 238.85l.08-.58h.12v-.13c2.19-1 14.58-12 15.33-14l.46-.12v-.13l.21-.08c-.85 3.93-12.15 11.25-12.37 12.58l-3.91 2.54zM314 236.23c3.44-3.44 8.57-6.4 10.92-10.71l.17.08a16 16 0 01-2.16 3.45c-.75.75-2.58 1.8-2.87 2.74-.22.75-8.49 7.27-9.42 7.27l-.09-.17a.86.86 0 00.5-.62c.7-.07 2.37-1.46 2.95-2z" fill="#fff" fill-rule="evenodd"/><path d="M303.36 244.54l-.09-.17 5.69-3.24a12.56 12.56 0 003.29-2c1.72-1.73 4.23-2.9 6-4.65 1.09-1.1 3.2-4 4.73-4.24l.09.17a1.88 1.88 0 00-.79 1.08 21.52 21.52 0 00-2.37 2.32c-.92 1.85-3.74 2.71-5.11 4.07-2.61 2.61-4.79 3.42-8 5-1.13.57-2.16 1.62-3.4 1.62zM334.05 195.77c-.07 0 .08-.23 0-.25a7.69 7.69 0 01-1.74-.24s-.18-.47-.25-.5-.35.07-.5 0 .07-.22 0-.25c-.4-.2-1.87-.91-1.54-1.54.18-.33.51.47.55.5.21.18.83.3 1 .5.06 0-.07.21 0 .25s.36-.07.5 0-.07.21 0 .25c1 .48 3.32.78 4.4-.29.74-.74.76.27.3.54-.94.53-1.44 1.25-2.75 1zM320.77 190.2c-.53-.14-.88-.8-1.26-1.12 0-1.22-.07-2.65-.07-4h.1c.51.51.48 4.83 1.54 4.83.07.23 1.24 2.14 1.88 1.71s.45.35.8.66 1 .27 1.08.6c.87 2.39.57.49.84.38.94-.4 1.74 2.21.94 1.71-.21-.13-.12-.76-.42-.76-1.43 0 .2.44-.2.83-.6.59-1.87-2.27-2.69-2.27-.55 0 1.23 2.66.24 2.66-.63 0-.59-3.08-1.15-3.08-.15 0-.49-.46-.59-.38-.49.38 1.54 5.12 1.81 5.41s2.05 1.68 1.68 1.79c-3.09.9-2.93-6.15-4.26-6.15-.7 0 .81 1.84.25 2.3s-1.22-3.41-1.19-4.09c0 0 1.47.89 1.15-.31-.07-.28-.42-.53-.48-.77zM323 171.51c-.81-.65-1.1-.86-1.1-.86.25-.6 2.88.32 3.65.3s5.3-1.13 7.52.59c2.45 1.89 4.33 3.34 1.94 2.57a14 14 0 00-5.68-.24 9 9 0 01-8.21-2.18s-.55-.8.12-.33c1.14.8 3.73 2.33 5.15 2.33.35 0 1.6-.3.32-.66a16.89 16.89 0 01-3.71-1.52zM313.39 277.81c-.7 0-.66-.79-.56-1.41.77-.26.5-1.08 2.11-1.29 3.32-1.65 6.59-4.09 9.81-6 1.59-1.59.81-2.58 3.57-2.22.85 1.75-1.05 2.49-2.49 2.63-2.68 1.64-8 4.2-10 6.19-.38 1.15-.73 2.77-2.47 2.12z" fill="#fff" fill-rule="evenodd"/><path d="M313.71 276.83c-.27-.14.6-.85 1-.64s-.36 1-1 .64zM326.33 268.26s.51-.49.7-.33c.51.4-.41.46-.7.33zM342.55 159.09c.2-.22-.71-3.24-.06-2.22 1 1.6 1.43 3.45-.22 5 0 0-.54-.07-.29-.5a12.31 12.31 0 00.57-2.3zM339.83 162.17c-.78 0 .66-1.32 1.29-1 1 .43-.89 1-1.29 1zM315 160.18c-.12-.12.06-.36 0-.5s-.72 0-.25-.29c.26-.14 1.13.59 1.29.74 1.47 1.48-.51.58-1 .05zM271.41 174.72c-.18-.19.11-.48.29-.3s-.15.43-.29.3zM273.66 175.71c-.17-.14 0-.44.29-.21.07.06-.21.28-.29.21zM297 172c-1-.31 1.72-.39.75 0a1.21 1.21 0 01-.75 0zM302.74 173c-1-.31 1.79-.39.78 0a1.39 1.39 0 01-.78 0zM303 176.71c-1-.31 1.8-.4.79 0a1.42 1.42 0 01-.79 0z" fill="#fff" fill-rule="evenodd"/><path d="M263.44 180c-.33-.41-.3 0-.5-.25s.12-.38 0-.5-.65-.15-.75-.25c-2.65-2.65 1-3.68-.25-5.52-.42-.64.69-2.14 1.08-3 .13-.28 1.82-.13 2.12 0s-.12.41 0 .54a4.46 4.46 0 001.75.2c.65-.14-.92-.47-1-.49-.56-.33.43-.85.71-.75.11 0-.12.19 0 .25a3.22 3.22 0 001.74.2c.27-.1-.18-.35 0-.45 1.22-.54 1 .48 1 .5s.59-.07.75 0-.16.22 0 .29c.5.19 1 .07 1.49.25.12 0 .09.44.25.49s.59-.05.75 0 .09.45.25.5.59-.05.75 0-.06.19 0 .25.71.47.74.5-.11.2 0 .25c1.12.56 0-.61.5.5.22.44.93.32 1 .5s0 .78.25 1a4.65 4.65 0 00.5.25 11.49 11.49 0 00.25 1.25c.06.13.94.22.46 1-.11.16-.36-.1-.46 0-.4.5.48.73.5.79s.34 1.72.12 1.45-.53-1.3-.91-.79c-.13.17-.37-.44-.42-.46a10.94 10.94 0 01-1.29-.25c-.64-.3-.89-1.78-1.49-1.78-.23-.23-2.33-1.69-2.29-1.75.63-.93-3 .26-3.53.83-1.4 1.4-2.07 3.65-4 4.28 0 0-.11.3-.21.17zm21.31-6.9c.57.33.09 1.15-.5 1.5s.5-.18.5.37-.79.82-.75 1.5.2-.12.25 0c.17.4-.71 1.36-.75 2 0 .37.2-.06.25 0 .22.27-.53.22 0 .75s-.38.82-.25 1.5c0 .06 1.82.16 1 .74-1.13.77-.33-1.24-1.46-.12-.25.25 1 .36 1 .37s-.3.2 0 .25c.46.08.92 1.23 1.41.71.16-.17-.18-.55 0-.71s2 1.55 2 1.75.05.78.16 0-.68-1.41.5-1.5-.69-.16-.95-1.41c-.05-.23-.21.79-.25 0-.08-1.47.61.39.95-.33a3 3 0 00-.2-1.42c-.57-.15.45-1.09.25-1.49-.05-.1-.28.3-.25 0s1.73-1.78 2-2.08 0 .42.46 0-.53-.48.33-.21 2.28-2.54 2.49-1.74 1-.29 1.5 0-.15-.1.21-.25a7.76 7.76 0 012.32.25c.17.11-.05.38 0 .49s.2-.06.25 0c.4.48-1.65.47-2 .05 0-.05-4.29 2.13-4.61 2.2s-.48-.11-.71 0-.24.67-.79.83 0 .09 0 .13c-1.1 1.09 1.53-.25 0 1.28-.51.51-1.21.26-.62 1 0 0 2.18-1.44 2.16-1.95 0-.35-.21.09-.25 0s.67-1 .83-1.33a21.43 21.43 0 013.86-1.29c.7-.14-.06-.09 0-.12 1-.34.1.13.54.16.94.07 3.25-.34 3.54-.25.12 0-.61.21 0 .25s2.46 2.13 2.74 2.25-.06.42 0 .53.19 0 .25 0-.11.2 0 .25c.49.25.83 0 .58.54 0 0 .13.92.16 1 .56.56.47-.68.5-.75.23-.48 2.21 2 2.5 2.25.86.82 2.28.77 3.4.7.3 0 1.93-1.24-.21-.7-1.35.33-.85 0-2.24-.21-.9-.16 1.91-.57 1.95-.58 1-.26 1.1-1.34-.41-.59-.09.05 1.41.07 0 .13s-1.35-.57.2-.79 0-.08 0-.13.64-.42.5-.45c-1.65-.36-2.28 1-4.19-.08-.55-.33 2.56-.53 2.91-.59 1.35-.22-.42-3.09-1.46-3.19-.43-.05.19-.22 0-.25-.75-.14-1.41.39-2.45.25-.29 0 .38-.21 0-.25s-1.66 0-2 0 .28-.21 0-.25c-.52-.09-2 .43-1.5-.54.24-.45.19.2.29.25s.8-.35 1.25-.25c.17 0-.38.2 0 .25s1.66-.05 2 0-.27.2 0 .24a5.13 5.13 0 001.41 0c.69-.21-3.19-2.85-3.73-2.9s.11-.2 0-.25a31.87 31.87 0 00-4.74-1.79c-.16-.05.85-.23 0-.25l-2.86 1c-.42.14-1.62.24-1.16.08s-.7.74-1.78 1.11c-.22.08-.56-.3-.78-.22-.56.19-.73.55-1.27.74-.37.13-.28-.19-.62-.07s-.3-.36-.67-.23c-.2.08-1.37 1.25-1.55 1.32a6.39 6.39 0 00-1.56.67zm9-2.86c-1-.5 2.33-1.09 2.57-1 .84.15-1.94 1.35-2.57 1zm10.55 5.52a9.13 9.13 0 002.45 0c.15 0 .2-.48 0-.5-1.13-.15-2.3.07-3.44 0-.07 0 .08-.25 0-.25s-2.59-.15-1.83.29c.59.35 1.9.17 2.78.25.07 0-.07.24 0 .25zM266.39 173c.37.07 1.05.05 1.24-.29s-1.37-.34-1.7-.5c-.06 0 .08-.25 0-.25s-3-.12-1.78.54c.28.15.67-.07 1 0 .07 0-.07.24 0 .25.4.07.84-.07 1.25 0 .07 0-.07.24 0 .25zm-3 1c.12 0 2.44.2 2-.29-.22-.27-.82-.16-1.24-.25-.07 0 .06-.24 0-.25-1.14-.23-1.05.77-.79.79zm0 1.24c.79.12 2.2.2.54-.29-.07 0 .07-.23 0-.25-1.39-.43-.61.53-.54.54zm0 1.25c-.07 0 .06-.22 0-.25s-1.25-.09-.5-.29c1.25-.34 1.8.89.5.54zm-.25 1.29c.74.53.77-.46.54-.58-.54-.29-.86.35-.54.58zm.25 1.24a.39.39 0 00.54-.54c-.09-.14-.69.46-.54.54zm8.51-4c.84.84.32-1.13 0-.54a.52.52 0 000 .54zm2 .88c0-.06.12-.23.16-.17.2.31-.05.35-.16.17zm.74.87c-.17-.18.11-.48.29-.29s-.16.41-.29.29zm20.07-5.49c-.84-.22 3-1.2 4.07-1.08.34.05-2.74 1.44-4.07 1.08zm3.28.5c3 .32 3.05-.66 0-.29-.08 0-.08.28 0 .29zm.75 1a31 31 0 003.73 0c.07 0 .12-.23 0-.25a15.93 15.93 0 00-3.78 0c-.09 0-.09.29 0 .29zm5.52 4.24c-.09 0-.08-.28 0-.29.9-.2 2.49 0 3.2-.42.23-.14.67.29.5.42a11.36 11.36 0 01-3.7.29zM286 181.48v-.24h-.25l.09-.3h.12v-.12l.29-.08v.74H286zm.75.5v-.29l.29.09v.12l-.25.08zm3.94-7.43v-.46h.46l-.06.4-.4.06z" fill-rule="evenodd"/><path d="M318 182.48c-.18-.18.11-.47.29-.29s-.16.43-.29.29z" fill="#fff" fill-rule="evenodd"/><path d="M316.23 184.27c-.19-.23.12-.54.3-.33s-.17.48-.3.33zM317 185.51c-.38-.75.66-.79.25 0 0 .08-.21.12-.25 0zM317 187.26c-.17 0-.08-.38 0-.54s.76.41 0 .54zM303.27 224.02v-.54h.79l-.04.5-.75.04zM301.49 224.27l.04-.5.12-.04.13.25h.25l-.04.25-.5.04zM302.41 221.76c.6-.37 1 .2.71.85s-1.06-.62-.71-.85zM304.52 222v-.25h-.25v-.25H304c0-2.91.5.86.5.5zM306 221v-.5h-.2c1.13-2.47.2 1.31.2.5zM305.27 219.29V219H305c0-.58-.5-.95-.5-1.29h-.25v-.75h1c0 1.51.73 1 .66 2.28h-.7zM306.97 217.75h-.25v-.79h.79l-.04 1-.5-.21zM308.22 221.03v-.54h.54l-.04.5-.5.04zM309.21 218v-.25H309l.08-.54h.12c.46-1.41 0 1.3 0 .83zM310.25 216v-.79h.54l-.04.75-.5.04zM311 218v-1.04h.54l-.04 1-.5.04zM312 215.75l.08-.54.12-.04.05-.12.29-.08-.05.74-.49.04zM309 213.51h1v.75c-.61.3-1.06.05-1-.71zM311.5 214.26c0-.53-.33 0-.17-.54h.13v-.46h.29c0 .31-.29 1.69-.29 1zM310.5 212.51v-.24h-.25v-.55h.75c0 .52-.54 1.62-.54.79zM310 211.52c0-.61-.29 0-.29-.54h-.25v-.46h.83v1h-.25zM312 211.23v-.71h.54v.17h.25l-.05.49-.74.05zM313.41 210.98v-.25h-.25v-.46h.79l-.04.67-.5.04zM313.91 212.51v-.25h-.25v-.29h.54l-.04.5-.25.04zM313.74 214.51v-.29h.29l-.04.25-.25.04zM314.74 212.51c0-1.33.34-1.11.25 0h-.25zM314.91 210.73v-.21h.29l-.04.17-.25.04zM310 208.32c0-.7-.31-1.47.54-.79s-.54 1.49-.54.79zM311 209.81v-.5h-.25l.08-.29.13-.04.04-.12.54-.08v.24h.25l-.04.26-.13.03-.12.46-.5.04zM311 206.57c-.55 0 .79-1.86.79-.78h.21v.24l-.13.05-.12.45H311zM310.25 205.33c-.75.06 0-.85.08-1.08h.13v-.13l.29-.08v.25h.25v.54h-.12l-.13.46h-.5zM312.49 204.58c-.79.06-.05-.84 0-1 .5-.14 1.3.9 0 1zM315.16 193.53c-.23 0-.55-1 .54-1l-.05 1h-.49zM311.75 197.52c-.53.1-.51-.47-.42-.79h.13v-1h.29v.27h.25v.25h.25v.5h-.13l-.16.71h-.21z" fill="#fdd6c6" fill-rule="evenodd"/><path d="M300.82 277.15c.05 0 .34-1.25.46-.75.53 2.17-3.85 1.88-.46.75zM311 275.74c1.46-.12-.23 1.33-.5.95s-1-.84.5-.95zM311.75 248.36c-.76-.84 1-1.47 1.29-1s-.53 1.89-1.29 1zM308.72 233.32c-.55 0 2.83-3.21 3.73-3.07s-3.18 3.07-3.73 3.07zM310.59 233.78c-.16-.1.16-.31.2-.08s-.05.18-.2.08zM310.25 234.07c-.07-.11.11-.42.25-.2s-.18.31-.25.2zM307.8 234c-.14-.17-.31.11-.08-.16s.22.33.08.16zM307.47 234.32c-.08-.11.11-.42.25-.21s-.18.32-.25.21zM308.8 235c-.14-.17-.32.11-.08-.17s.21.34.08.17zM308.47 235.32c-.08-.11.1-.42.25-.21s-.18.32-.25.21zM308 235.57c-.16-.16.13-.45.29-.29s-.13.45-.29.29zM307.55 235.78c-.14-.18-.31.11-.08-.17s.22.34.08.17z" fill="#fff" fill-rule="evenodd"/><path d="M307.22 236.07c-.07-.11.11-.42.25-.21s-.18.32-.25.21zM305.77 237.06c-.14-.16.11-.44.25-.29s-.12.45-.25.29zM306.47 238.31c-.28-.17 1-.77.75-.29s-.46.46-.75.29zM310.09 239.31c-.22-.08.4-.38.45-.09s-.24.16-.45.09zM304.77 239.35c-.16-.16.13-.45.29-.29s-.13.45-.29.29zM302 239.35c-.16-.16.13-.45.29-.29s-.13.45-.29.29zM309.8 239.56c-.17-.1.2-.33.24-.09s-.08.18-.24.09zM309.55 239.8c-.16-.1.17-.31.2-.08s-.05.19-.2.08zM306.72 239.85c-.38-.13 1.29-.79 1-.29s-.62.41-1 .29zM309.05 240.05c-.22-.07.41-.37.45-.08s-.24.15-.45.08zM308.8 240.3c-.16-.1.17-.31.21-.08s-.06.19-.21.08zM306.06 240.3c-.39-.13.82-.22.41 0s0 .13-.41 0zM308.47 240.59c-.08-.11.1-.42.25-.2s-.18.31-.25.2zM305 240.84c-.27-.16-.55-.22.25-.45s0 .61-.25.45zM302.82 243.29c-.44-.13-.72-.14.16-.41s.27.55-.16.41zM302.23 243.58c-.25-.12.54-.42.54-.12s-.28.25-.54.12zM300.74 244.33c-.16-.16.13-.45.29-.29s-.13.45-.29.29zM301.74 245.37c-.23-.16 1.52-1 1.58-.66s-1.36.82-1.58.66zM299.74 245.87c-.68-.17 1.69-.23 1 0s-.32.21-1 0zM298.5 246.37c-.16-.16.13-.45.29-.29s-.13.45-.29.29zM328.28 222.28c-.19-.19.11-.48.29-.29s-.16.42-.29.29zM327.28 225.06c-.11-.08.23-.49.25-.5 1.18-.41.14.76-.25.5zM325.37 225.27c-.75-.38.58-1.56 1-1.29s-.2 1.66-1 1.29zM325.12 223.73c-.59-.29.26-1.32.67-.91a.58.58 0 01-.67.91zM326.12 222.48h-.08c.08-.46 1-2.53 1.24-1.87s-.61 1.19-1.08 2h-.08z" fill="#fff" fill-rule="evenodd"/><path d="M327.37 220.49c-.78-.39.21-.86.7-1s.07 1.39-.7 1zM328.11 217.46c-.85-.43.39-1.69 1.17-1.91s-.32 2.33-1.17 1.91zM318.36 209.81a4.6 4.6 0 01-.52-1.61c.52 0 .62 1.37.9 1.71a1.11 1.11 0 01.1.35 1.07 1.07 0 01-.38.07c-.08-.08-.24-.42-.14-.52zM349.34 194c-.15-.09.45-.69.54-.54a.39.39 0 01-.54.54zM348.34 193c-.11-.14.15-.67.25-.7 1.33-.47.11 1.13-.25.7zM343.07 183c-.12-.07 1.24-1.41 0-.91-1.51.62.64-1 .67-1.42.08-1.67-.7.61-1-.16s.1-1.39-.25-1.75c-.06-.06-.2.11-.25 0-.49-1 0-.5-1-1-.11-.06.16-.2 0-.25s-.59.06-.74 0 .28-.24 0-.29a13.52 13.52 0 01-2.25-.25c-.16-.11-.27-1.18 0-1.21 2.88-.28 4.85-.8 6.82 1.17.41.41.34 1.48.49 2.28.05.24.19-.24.25 0 .19.72 0 2.05.42.71 1.32-4 .37 3.36-.71 1.82-.13-.18.29-1.32-.5-.54-.33.34-1.31 2.22-2 1.79zM347.1 183.94c1.59-.62 2.16-.26 2.82-2.25.55-1.66.52.94.17 1.5-.56.87-2.66 1.29-2.74 1.53-.79 0-1.86-.16-.25-.78zM350.67 182.94c0-.06.16 0 .16.08.37 2.22-2.36 2.08-2.24 2a3.68 3.68 0 002.08-2.12z" fill="#fff" fill-rule="evenodd"/><path d="M351.71 183.44c.59-1.19.76.26.66.79 0 .17-3.25 3.1-4 2.78-.07 0-.34-.62 0-.71 2-.5 2.38-.88 3.37-2.86zM347.35 192c1.18-2.27 1.2-1.8 1.24-4.32h.54v.49h.25v1h-.13l-.12 1-1.78 1.83zM349.34 192c-.06.05.06-.19 0-.25s-.23.07-.25 0a7.59 7.59 0 01.71-1.87l.12-2.45h.13v-.13l.79-.08v1h.24v.25h-.12l-.13 1.45h-.12l-.12 1h-.13l-1.12 1zM350.59 192.78c-.33.52.67-1.65.7-1.82a40.09 40.09 0 00.34-4.49c.05-.58.89 1 1 1-.05 2.23-.83 3.35-2.07 5.31zM338.33 193.28c-.15-.09.7-.94.79-.79.21.35-.41 1-.79.79zM340.82 193.28c-.29-.14-.05-.81.54-.54.07 0-.07.22 0 .25s.36-.08.5 0c.4.21-.74.44-1 .29zM343.32 193.28c-1-.25 2.05-.33 1 0a2 2 0 01-1 0zM345.6 192.78c-1-.32 1.72-.39.75 0a1.14 1.14 0 01-.75 0zM340.77 178.41a12.75 12.75 0 01-1.48-.32c-.24 0-.41.06-.63.06-.42-1.27 3.39 0 3.39 1.37 0 0-1.26-1.07-1.28-1.1zM340.33 181c-1.3-.26.05-.18 0-.24s-.2.1-.25 0c-.5-1 0-.51-1-1-.06 0-.14-.45-.25-.5s-1.47-.4-.75-.54c2.7-.5 3.54 2.56 2.25 2.28zM339.33 182.23c-1.21-.17.06-.19 0-.25-.55-.55.44-.26 1-.45.95-.34.21.87-1 .7zM328.09 194.33c.2.06-1 .35-.35-.43.75-.94.36.39.24.39h.11z" fill="#fff" fill-rule="evenodd"/><path fill="#fdd6c6" fill-rule="evenodd" d="M316.62 191.89l-.75-1.16 1.33-.92-.58 2.08z"/><path d="M319.13 184.43c-.18-.07-.28-.28-.42-.35s0-.1 0-.13c.11-.21.35-.15.53-.15 0 .11.1.25.1.42h-.07a.45.45 0 01-.07.14z" fill="#fff" fill-rule="evenodd"/><path d="M316.2 187.75c.2-.24.74.22.77.53s-.38 1-.66.8a1 1 0 01-.11-1.33z" fill="#fdd6c6" fill-rule="evenodd"/><path d="M340.82 236.07c-.3-.15.26-.44.54-.29s-.23.43-.54.29zM335.3 238.06c-.16-.16.13-.45.29-.29s-.13.45-.29.29zM342.07 238.6c-.16-.19.13-.52.29-.33s-.13.52-.29.33zM342.57 238.85c-.16-.16.13-.45.29-.29s-.13.45-.29.29zM340.82 240.34c-.3-.15.25-.43.54-.29s-.23.45-.54.29zM341.82 240.84c-.47-.19-.62-.33-.25-.54s.72.74.25.54zM344.07 241.84c-.17-.16.13-.45.29-.29s-.14.45-.29.29zM341.32 242.84c-.3-.16.25-.44.54-.29s-.23.44-.54.29zM337.54 243.83c-.41-.22.9-.19.46 0s0 .27-.46 0z" fill="#fff" fill-rule="evenodd"/><path d="M338.08 244c-.42-.16 1.31 0 .75.08s-.32.08-.75-.08zM340.08 247.37a.21.21 0 01.29-.3c.13.14-.16.43-.29.3zM341.82 248.11c-.21-.13 0-.81.29-.54.06.05-.07.22 0 .25s.36-.07.5 0c.3.16-.48.49-.79.29zM342.82 248.36a.21.21 0 010-.29c.78-.41.69.63 0 .29zM334.8 252.14c-.16-.19.14-.51.29-.33s-.13.52-.29.33zM335.3 252.39c-.16-.16.13-.45.29-.29s-.13.45-.29.29zM335.8 252.64c-.39-.23.82-.2.41 0s0 .27-.41 0zM342.07 252.89c-.16 0 .11-.19 0-.25s0 .3-.5 0 1.74 0 1.25.21a.87.87 0 01-.75 0z" fill="#fff" fill-rule="evenodd"/><path d="M336.3 252.76c-.38-.16 1.18 0 .66.09s-.29.08-.66-.09zM337.05 253c-.27-.19.83 0 .41.09s-.15.11-.41-.09z" fill="#fff" fill-rule="evenodd"/><path d="M337.54 253.26c-.41-.22-.38 0 .09-.16s.33.39-.09.16zM341.82 255.13c-.19 0 .74 0 0-.25s-1.08-.75-.21-.54-.08.21 0 .25 1.55.42 1.12.5a2.08 2.08 0 01-.91 0z" fill="#fff" fill-rule="evenodd"/><path d="M343 255.09c.13.2-.09.29-.17.17s0-.37.17-.17zM337.83 255.63c-.15-.16.13-.45.29-.29s-.13.45-.29.29zM344.07 232.58c-.17-.16.13-.45.29-.29s-.14.45-.29.29zM346.85 235.07c-.66-.54-.19-.44-.25-.5s.11 1.18-.25 0 1.15 1 .5.5zM343.82 255.88c-.39-.23.82-.2.41 0s0 .27-.41 0z" fill="#fff" fill-rule="evenodd"/><path d="M344.31 256c-.29-.2.91 0 .46.08s-.17.11-.46-.08zM345.59 256.33c-.12.28.37.3.18 0-.43-.65-1.6.33-.18 0zM347.35 257.38c-.31-.16.24-.44.53-.29s-.23.44-.53.29zM336.3 257.38c-.16-.16.13-.45.29-.29s-.13.45-.29.29zM342.57 257.62c-.23-.06-.22-.13 0-.28s.23.35 0 .28z" fill="#fff" fill-rule="evenodd"/><path d="M344.07 258.37c-.15 0 .37-.12 0-.25a3.16 3.16 0 01-1.25-.37c-.49-.35 1.45.05 1.54.08s-.06.22 0 .25c.72.44.38.48-.29.29zM334.8 258.91c-.28-.14.23-.4.54-.25s-.26.39-.54.25zM345.6 259.16c-.14 0 .64.07 0-.25s-.21-.61.29-.33-.11.23 0 .29.22-.16.5 0-.64.33-.79.29z" fill="#fff" fill-rule="evenodd"/><path d="M335.3 259c-.26-.2.84 0 .42.08s-.16.11-.42-.08zM335.8 259.29c-.38-.23-.35 0 .08-.17s.3.39-.08.17zM336.55 259.66c-.16-.16.13-.45.29-.29s-.13.45-.29.29zM338.08 260.41c-.31-.16.25-.44.54-.29s-.23.44-.54.29zM340.33 261.16c-.24-.07-.22-.14 0-.3s.23.36 0 .3z" fill="#fff" fill-rule="evenodd"/><path d="M340.58 261.28c-.27-.2.83 0 .41.08s-.15.12-.41-.08zM343.07 262.65c-.66-.32.87.41 0-.25s.65.58 0 .25zM344.06 262.84c-.14.28.37.32.17 0-.47-.71-1 .39-.17 0zM335.55 263.9c-.58-.39.27-.67.54-.54s0 .92-.54.54zM331.56 264.15c-.31-.16.25-.44.54-.29s-.23.44-.54.29zM343.57 265.39c-.59-.24.33-.08 0-.25s-9.17-3.93-8.52-4.28-.19.15 1 .5 6 2.49 7 3-.11.2 0 .26.38-.06.5 0 .54 1 0 .78zM341.32 266.68c-.23-.07-.21-.14 0-.29s.23.36 0 .29zM332.31 266.68c-.38-.23.82-.2.41 0s0 .27-.41 0zM341.57 266.81c-.08-.13 0-.37.17-.17s-.09.29-.17.17z" fill="#fff" fill-rule="evenodd"/><path d="M332.81 266.81c-.08-.13 0-.37.16-.17s-.08.29-.16.17zM337.83 267.43c-.23-.07-.21-.14 0-.29s.24.35 0 .29z" fill="#fff" fill-rule="evenodd"/><path d="M338.08 267.55c-.26-.19.84 0 .42.09s-.16.11-.42-.09zM338.83 268.18c-.38-.19-.58-.42-.17-.54s.55.72.17.54zM332.06 268.68c-.16-.17.13-.46.29-.29s-.13.44-.29.29zM342.3 269.64c-.15.53.54-.14.08-.09.07-.35-.83-.36-1-.42s.36.11 0-.25-2.27-.62-1-.2.05.4.25.49 1.43.62 1.72.47zM339.58 270.67c-.23-.07-.22-.14 0-.29s.23.35 0 .29zM340.08 271.17c-.38-.19-.59-.41-.17-.54s.55.73.17.54zM336.3 271.17c-.16-.16.13-.45.29-.29s-.13.45-.29.29zM340.58 271.29c-.27-.2.83 0 .41.08s-.15.12-.41-.08zM341.07 271.54c-.05-.18.25-.22.29-.08s-.23.26-.29.08z" fill="#fff" fill-rule="evenodd"/><path d="M341.32 271.79c-.38-.23-.35 0 .09-.17s.29.4-.09.17zM342.07 272.16c-.23-.06-.21-.13 0-.29s.23.36 0 .29zM342.32 272.45c-.08-.11.21-.42.25-.12s-.18.24-.25.12z" fill="#fff" fill-rule="evenodd"/><path d="M342.57 272.58c-.06-.18.24-.22.29-.08s-.23.26-.29.08z" fill="#fff" fill-rule="evenodd"/><path d="M342.82 272.83c-.08-.12 0-.37.17-.17s-.09.29-.17.17zM315 254.13c-.07 0-.23-.48-.25-.49-2.06-2.06 2.39-3.35 3.28-4.24 2.11-2.11 5.5-4.39 6.85-7.1.31-.62 2.12-1.58 2.7-1 1.78 1.78-1.4 2.57-2.49 3.11-.69.35-.36.41-.79.92s-1 .38-1.49.87c-1.15 1.14-2.16 2.25-3.28 3.37-.88.87-.56-.6-1 .74-.34 1-.91.43-1.46.79s.33 3.53-2.07 3z" fill="#fff" fill-rule="evenodd"/><path d="M315.28 252.77l.08-.71h.13v-.12l.46-.09v.25c1 .33-.77 1.22-.71.71zM325.83 243.54c-.41-.51.26-.79.71-1.24 1.23-1.24-.26 1.81-.71 1.24zM311.75 274.45l.08-.79h.13v-.13l.45-.12v-.13l.55-.08c-.08.89-1.35 1.89-1.29 1.29zM312.25 271.91c-.41-.54.32-.9.79-1s-.38 1.58-.79 1zM312.49 269.67l.09-.54h.12v-.46c1.46 0-.31 1.44-.25 1zM312.74 267.18c-.59-.25.81-1.82 1-1.29s-.44 1.53-1 1.29z" fill="#fff" fill-rule="evenodd"/><path d="M312.49 265.39l.09-.54c.12 0 1.5-2.07 1.41-.5s-1.59 1.65-1.5 1zM312.74 262.9v-.54h.46v-.13c1.13-.32-.5 1.34-.5.71zM312.25 254.38l.08-1h.12v-.13l.46-.12V253c1.63-.25-.78 1.87-.74 1.45zM312 252.14c-.59-.65.46-1 1-1.08s-.46 1.73-1 1.08zM311.75 250.35v-.78h.45l.05-.12c1.68-.26-.5 1.48-.5.95zM313.24 246.12l.09-.29.12-.05.04-.12.54-.08-.04.5-.75.04zM312.49 256.38a3.07 3.07 0 011.54-2v.75c0 .68-1.62 2.12-1.5 1.29zM312.25 259.16c-.28-.55 1.22-2.39 1.78-2.07s-1.51 2.63-1.78 2.07zM312.25 261.16c.18-.65.95-2.52 1.53-1.79s-1.72 2.43-1.53 1.79zM323.09 230.25c-.59-.29.25-1.31.66-.91a.57.57 0 01-.66.91zM324.04 232.33v-.29h.29l-.04.25-.25.04zM322.26 235.32l.08-.29h.13v-.46c1.59 0-.42 1.37-.25.79zM320.51 238.06l.08-.54.13-.04.04-.13.54-.08-.04.5-.46.12-.04.13-.25.04zM319.02 240.09v-.28h.54l-.04.24-.5.04zM316.48 242.34v-.29h1.08l-.04.25-1.04.04zM314.49 244.33c-.85-.38.74-.73 1.29-.79s-.44 1.17-1.29.79zM316.57 239.56l-.09-.17a7 7 0 012.08-1.37c-.09 1.18-.94 1.54-2 1.54zM316.32 239.81l-.09-.17.21-.08.08.16-.04.09h-.16zM316.07 240.05l-.09-.16.21-.08.09.16-.05.08h-.16zM326.29 227.8c-.26-.31.48-1 .54-.79.14.4-.16 1.25-.54.79zM325.29 230c-.19-.18.11-.47.29-.29s-.16.43-.29.29zM323.83 229.25c-.25-.32.45-.42.21 0 0 .06-.17.05-.21 0zM261.11 263.4c-.08 0-.07-.24 0-.29.34-.24.37.39 0 .29zM261.36 263.52c-.08-.09.24-.28.33-.16s-.15.38-.33.16zM258.12 265.14c-.08 0-.07-.24 0-.29.34-.24.37.39 0 .29zM258.62 266.18a4.65 4.65 0 01-.21-1c.19-.69 1.27 2 .21 1zM256.88 266.18c-.09 0-.08-.24 0-.29.33-.24.36.39 0 .29zM257.12 266.68c-.22-.63.43-.77.21 0 0 .06-.19.1-.21 0zM257.62 267.43c-.09-.08-.37-1-.08-.79s.46 1.1.08.79zM251.6 267.93c-.08 0-.07-.24 0-.29.34-.24.37.38 0 .29zM253.84 268.18a8.16 8.16 0 01-.5-1c.82-.44.86 1.33.5 1zM256.13 268.43s-.55-1.54 0-1c.34.29.16 1.42 0 1zM252.35 269.17a3.68 3.68 0 01-.46-1.24c.18-.6 1.17 1.83.46 1.24zM251.85 269.67a.21.21 0 010-.29c.78-.41.69.63 0 .29zM257.37 270.17c-.08 0-.07-.24 0-.29.34-.24.37.39 0 .29zM255.13 270.17c-.31-.76.61-.8.21 0 0 .05-.19.09-.21 0zM257.62 270.29c0-.06.12-.24.17-.16.21.31 0 .35-.17.16zM259.87 270.67s-.2-.45-.25-.5c-.93-.92.88-.27.5.46a.23.23 0 01-.25 0z" fill="#fff" fill-rule="evenodd"/><path d="M255.63 270.92c-.1-.08-.38-1-.08-.79s.46 1.1.08.79zM253.59 271.17s-.62-1.17-.49-1.29c.55-.56 1.63 1.75.49 1.29zM249.61 271.17c-.09 0-.07-.25 0-.29.33-.24.36.38 0 .29zM249.85 271.29c0-.06.13-.23.17-.17.2.31-.05.35-.17.17zM252.85 273c-.09 0-.08-.24 0-.29.33-.24.36.39 0 .29z" fill="#fff" fill-rule="evenodd"/><path d="M253.34 273.7c-.09-.08-.37-1-.08-.79s.46 1.1.08.79zM306.06 273.91c-.51-.25.42-1.14.16 0 0 .07-.14 0-.16 0z" fill="#fff" fill-rule="evenodd"/><path d="M305.77 275.2c-.16-1.7.47-1.64.2-.05 0 .06-.2.1-.2.05zM305.52 276.19c-.36-1.09.64-1.13.25 0 0 .07-.23.11-.25 0zM305.27 277.19c-.36-1.09.64-1.14.25 0 0 .07-.23.11-.25 0zM303.52 279.47a8.64 8.64 0 01.25-2.82c.93-1.28-.2 3.59-.25 2.82zM312 277.65c-.08 1.4-1.15.7-1.29 1.53s-1.41 1.69-1.79.79 3.16-3.73 3.08-2.32zM311.29 280.18c-.07 1.29-.93 1.2-2.33 2s2.4-3.28 2.33-2zM307.22 284.71c0-1 1.25-1.31 2.49-1.71s-2.49 2.7-2.49 1.71zM306.47 286.74c-1-.86 2.88-1.53 3.57-1.58s-2.62 2.45-3.57 1.58z" fill="#fff" fill-rule="evenodd"/><path d="M305.92 280.46l.8-4.06c5.4 0-2.25 11.45-.8 4.06zM309.71 260.16c0-.21-.2-1.78 0-1.83 2.13-.51 0 2.53 0 1.83zM308.22 261.16c-.06-.45 0-2.41.79-2a5.43 5.43 0 01-.79 2zM306.72 261.65a2.89 2.89 0 01.5-1.95c1.12-.7-.19 2.9-.5 1.95zM302.07 263.61c-.37-.18 0-2.38.7-1.5.05.06-.43 1.63-.7 1.5zM309 265.69c-.12-1 .65-4.6.79-4.08.09.32-.08.68 0 1 0 0 .59-.13.25.5 0 .07-.23 0-.25 0-.07.28-.68 3.38-.79 2.54zM304.77 266.18a24.74 24.74 0 01.75-5.56c1.46-1.24-.63 6.33-.75 5.56zM303.36 266.39c-.34-.16.48-4.23 1.06-4.5s-.44 4.81-1.06 4.5zM307.47 266.68a13.16 13.16 0 01.33-2.83s.35-1.28.46-.74a12.88 12.88 0 01-.54 3.53c0 .07-.24.12-.25 0z" fill="#fff" fill-rule="evenodd"/><path d="M304.52 266.93c-.37-.75.65-.8.25 0 0 .06-.22.11-.25 0zM303.07 267.63c-.66-.32.47-2.7.2 0 0 .09-.17 0-.2 0zM305.77 267.93c.08-.56 1.06-7.26 1-3.08 0 .84-1 3.69-1 3.08z" fill="#fff" fill-rule="evenodd"/><path d="M302.74 268.43c-.24-1.11.55-.94.24-.05 0 .08-.23.12-.24.05zM300 281c-.05-.26-.14-.67.09-.79 2.37-1.22-.08.81-.09.79zM301.24 283c-.35-1.42.64-1.46.25 0 0 .07-.23.12-.25 0zM301 284.46c-.36-1.09.64-1.13.25 0 0 .07-.23.11-.25 0zM299.49 283.46c-.2-.41.48-.46.25 0s0 .46-.25 0z" fill="#fff" fill-rule="evenodd"/><path d="M299.74 282.71c-.18-.91.46-1 .25 0s-.06 1-.25 0zM302.23 277.19c-.18-.18.11-.47.3-.29s-.16.42-.3.29zM301.74 280c-.37-.75.65-.79.25 0 0 .07-.22.11-.25 0zM302.74 283.71a27.07 27.07 0 01.24-3.28c0-.08.23 0 .25 0s-.05-.5 0-.71c.4-.85 0 2.82 0 3s-.23 0-.25 0-.2 1.69-.28 1z" fill="#fff" fill-rule="evenodd"/><path d="M302.57 285.16c-.6-.28.42-2.79.17 0 0 .08-.15 0-.17 0z" fill="#fff" fill-rule="evenodd"/><path fill="#fdd6c6" fill-rule="evenodd" d="M312.66 209.56v-.25h-.25v-.53h.54l-.04.74-.25.04zM314.16 209.07v-.54h.54l-.04.49-.5.05zM313.41 207.32v-.54h.54l-.04.5-.5.04zM315.4 207.07v-.25h-.24v-.29h.54l-.05.5-.25.04zM314.66 206.08c-.44.63 0-.68 0-.71l.54-.08-.54.79zM312.74 201.8c-.4.53 0-1.22 0-1.29l.79.25-.79 1zM315.16 199.55c-.77.07-.06-1 0-1.2l.54-.08-.05 1.24h-.49zM317.19 198.81c-.55 0-.46-.79.54-.79v.74l-.5.05zM316.2 200.8c-.42 0-.3.69-.3-.54s.71.53.3.54zM317.19 202.05c-.24 0-.83-.79.29-.79v.75h-.25zM315.9 204c0 .05-.3.09-.25-.25l.09-.54h.12v-.12l.33-.09v.25h.25l-.58.79zM315.16 202.55c-.69.11-.05-.58 0-.71l.29-.08-.05.74-.24.05zM313.91 204.58c-.33.51 0-.89 0-1l.29-.08v.25h.25l-.54.83zM312.49 208.07v-.25h-.24v-.79h.54l-.05 1-.25.04zM315.91 197c-.13.12-.92-1 .32-1v.5h.25l-.57.54zM314.66 195.52c-.73.07.62-1.56.5 0h-.5zM314.16 197.81c-.55.09-.51-.5-.42-.83h.13v-.46h.54v1.29h-.25zM312.61 198.56s-.41-.45-.41-.62h-.2v-.24l.55-.07v-.1c.94-.14 1.27.94 0 1z"/><path d="M320.1 207.57c0-.58-.83-1-1-1.64-.08-.27 0-.74-.1-1v-.07c.22 0 2.89 4.44 1.88 4.44-.31-.63-.76-1.16-.73-1.75zM319.58 208.37c-.08-.47-.57-1.64-1.15-1.64 0 .44.45.72.45 1.05.41.27.3 1.41.59 1.89h.14c.08-.14.11-1.44 0-1.3zM323.24 205c-.07-.23-.51-.67-.35-.84.52-.25 1 1.05 1 1.37h-.38a1.38 1.38 0 00-.28-.53zM321 204.53c0-.42-2.37-2.52-1.25-2.52 1.85 0 2.82 2.3 2.82 4.27h-.45c-.16-.4-.94-1.53-.94-1.74a.19.19 0 00-.18 0zM347.84 194.78c-.16-.06.49-.8.79-.54.49.4-.42.67-.79.54zM346.35 195.52c-.19-.18.11-.47.29-.29s-.16.43-.29.29zM344.31 196c-.2-.17.11-.48.33-.29s-.16.44-.33.29zM338.58 195c-.15-.09.7-.94.79-.79.21.35-.41 1-.79.79zM342.32 194.53c-1-.32 1.72-.4.75 0a1.28 1.28 0 01-.75 0zM325.54 198.1c-.15-.24-2.54-1.45-1.64-2 .66-.4 1 1 1.64 1.15.77.23.7 0 .7.84a1.12 1.12 0 01-.7 0z" fill="#fff" fill-rule="evenodd"/><path d="M324.6 200.3c.14-.05-.24-.05-.35-.14-1.1-.88 2.09.11 2.27-.87.08-.46-.09-1.06 0-1.51.12-.63 1.44-.24 1.25.32-.1.31-.61.56-.73.91s-.1.94-.49 1.33c-.6.6-1.78 1.13-1.78-.07h-.21v.07h.11zM326.7 196.66c-.58-.59.37-.6.19 0 0 .07-.15 0-.19 0zM321.59 198.54c-.34-.66-.68-3.13-1.56-3.13-.48 0 1.37 4.34 2 4 .49-.25-.4-.76-.47-.89z" fill="#fff" fill-rule="evenodd"/><path d="M323.75 199.87c-.08-.16-1.23-1.06-.86-1.11 1.06-.15.89 1.17.86 1.11zM321.64 200.44c-1.49-.24-1.08-3.71-1.81-3-1.93 1.84 3.52 5.89 3.72 5.74s.22-.5 0-.56c-1.28-.44-1.26-2.06-1.95-2.17zM341.82 172.22c-.34-.33.92-1.36 1.29-.62.27.53-.85 1.05-1.29.62zM343.15 171.43l-.08-.16.2-.09.09.17-.04.08h-.17zM343.4 171.18l-.08-.16.29-.08-.05.24-.08.04-.08-.04zM342.57 173.22c-.26 0 2.81-3.54 2.82-3.32.11 1.25-1.52 3.51-2.82 3.32z" fill="#fff" fill-rule="evenodd"/><path d="M342.82 175.21V175h-.5c0-1.48 2.13-3.11 2.28-1.28l-1.16 1.24c.39-.34 1.48-1.78 1.95-.83.76 1.51-.84 1.08-2.57 1.12zM345.43 172.18l-.08-.17.21-.08.08.17-.04.08h-.17z" fill="#fff" fill-rule="evenodd"/><path d="M344.69 173.18c-.26 0 .22-1.14.5-1 .86.43.23 1-.5 1zM336.3 172.22c-1.74 0 3.25-.45 3.07-.29-1.32 1.22-1.64.29-3.07.29zM332.06 175.21v-.29l.54.09-.13.16-.41.04zM332.31 211.52c-.19-.22.12-.53.29-.33s-.17.47-.29.33zM333.31 210.56c-.08-.14.06-.35 0-.5 0 0-.73 0-.25-.29 1-.55.46 1.2.25.79zM330 217c-.08-.05.4-1.24.55-.79s0 1.12-.55.79zM329 219.78c-.15-.08.45-.68.54-.54a.39.39 0 01-.54.54zM329.11 214.22c-.54-.27.67-1.38 1-2l.16.09c0 .48-.62 2.18-1.16 1.91zM330.36 212.22c-.41-.19.61-2.07.74-1.7a2.62 2.62 0 01-.74 1.7zM347.1 205.33a.21.21 0 01.29-.29c.13.13-.16.42-.29.29zM329.78 207.86c.09.07 0 .51-.09.46-.34-.14-.37-.8.09-.46zM329.86 207.78c-.5-.25.42-1.13.16 0 0 .08-.14 0-.16 0zM346.85 198.56c-1-.86 1.31-.75.25 0-.07 0-.19.09-.25 0zM337.05 197.52c-.19-.19.1-.48.28-.29s-.15.42-.28.29zM334.55 198.56c-.48-.32.28-.88.79-.54s-.31.86-.79.54zM333.8 197c-.39-.16 0-1 .3-.79.06 0-.08.22 0 .25s.71-.2.45.25a.64.64 0 01-.75.29zM332.06 196.52c-.18-.18.11-.47.29-.29s-.16.42-.29.29zM332.31 198.56c-1-.82.77-1.47.25 0 0 .07-.19.09-.25 0zM256.53 202.74a8.73 8.73 0 002-.93c.62-.47.71-.56.71-.56 1.65-.67-1.3 2.33-2.89 2.06-1.06-.19.22-.54.2-.57zM256.16 195.63a22.83 22.83 0 002.65-3.11 8.08 8.08 0 01.75-1.26c1.65-1.47-1.59 3.81-2.83 4.48-.47.26-2.56 1.86-.57-.11zM255.1 198.3a5.89 5.89 0 001.18.36c2.77.56-1.57 1.09-1.67 0-.06-.58.49-.36.49-.36zM254 198.93a1.09 1.09 0 00.71.7c2.37.73-1.31 1.09-1.31-.68h.6zM258.13 196.91a6.23 6.23 0 001.42-1.45c.06-.17.76-1.78.78-.46 0 2.39-2.7 3.32-2.45 2.46a2.76 2.76 0 01.25-.55z" fill="#fff" fill-rule="evenodd"/><path fill="none" d="M175 75.96h250v248.08H175z"/><path d="M299.39 110.91a88.58 88.58 0 11-88.57 88.57 88.75 88.75 0 0188.57-88.57z" fill="none" stroke="#000" stroke-miterlimit="2.61" stroke-width="1.2"/><path d="M266.32 151.8c-1.25 1.62-4.38 9.56-4.93 12.7" fill="none" stroke="#fdd6c6" stroke-width=".24"/><path fill-rule="evenodd" d="M263.64 157.53l.09-.7.12-.04.04-.5.46-.04.04-.13-.75 1.41zM264.74 155.5a1.8 1.8 0 011.24-1.62l-1.24 1.62zM262.4 159.5a1.81 1.81 0 011.25-1.62l-1.25 1.62zM261.56 162.82c-.55-.84 2.73-3.76 2.9-2.54s-2.36 3.37-2.9 2.54z"/><path d="M260.52 164.91l2.32-2.24c1.75.27-2.5 3.72-2.32 2.24zM262.37 160.83l.08-.71.12-.04.05-.46.45-.04.08.15-.75 1.37-.03-.27z" fill-rule="evenodd"/><path d="M262.62 159.62a2.79 2.79 0 011.84-1.67l-1.24 1.62zM261.4 163.78l.5-.85.12.78-.66-.08.04.15z" fill-rule="evenodd"/><path d="M266.62 152a1.16 1.16 0 00-.48.61 3 3 0 01-.51.75" fill="none" stroke="#fdd6c6" stroke-width=".24"/><path fill-rule="evenodd" d="M265.93 152.24l.25-.29.21.04-.29.33-.17-.08zM265.6 152.92l.29-.29.21.04-.3.33-.2-.08zM266.28 151.44l.42-.22-.04.42-.38-.2z"/><path d="M266 151.59c.34-.08.51-.43.72-.57" stroke="#000" stroke-linecap="round" stroke-width=".14" fill-rule="evenodd"/></svg>