<svg xmlns="http://www.w3.org/2000/svg" width="600" height="315.79"><path fill="#bf0a30" d="M0 0h600v315.79H0z"/><path fill="#fff" d="M0 24.29h600v24.29H0zM0 72.87h600v24.29H0zM0 121.46h600v24.29H0zM0 170.04h600v24.29H0zM0 218.62h600v24.29H0zM0 267.21h600v24.29H0z"/><path d="M240.25 170.06V0H0v170.06z" fill="#002868" fill-rule="evenodd"/><path d="M216.22 31.57l-5.76-4.18-5.75 4.18 2.19-6.77-5.75-4.18h7.11l2.2-6.76 2.2 6.76h7.11L214 24.8zM180.14 31.57l-5.75-4.18-5.76 4.18 2.2-6.77-5.75-4.18h7.11l2.2-6.76 2.2 6.76h7.11l-5.76 4.18zM144.07 31.57l-5.76-4.18-5.75 4.18 2.19-6.77-5.75-4.18h7.11l2.2-6.76 2.2 6.76h7.11l-5.75 4.18zM108 31.57l-5.75-4.18-5.76 4.18 2.2-6.77-5.75-4.18H100l2.2-6.76 2.2 6.76h7.11l-5.76 4.18zM71.92 31.57l-5.76-4.18-5.75 4.18 2.2-6.77-5.76-4.18H64l2.2-6.76 2.2 6.76h7.11l-5.79 4.18zM35.84 31.57l-5.75-4.18-5.76 4.18 2.2-6.77-5.75-4.18h7.11l2.2-6.76 2.2 6.76h7.11l-5.76 4.18zM216.22 93.89l-5.76-4.19-5.75 4.19 2.19-6.77-5.75-4.18h7.11l2.2-6.77 2.2 6.77h7.11L214 87.12zM180.14 93.89l-5.75-4.19-5.76 4.19 2.2-6.77-5.75-4.18h7.11l2.2-6.77 2.2 6.77h7.11l-5.76 4.18zM144.07 93.89l-5.76-4.19-5.75 4.19 2.19-6.77-5.75-4.18h7.11l2.2-6.77 2.2 6.77h7.11l-5.75 4.18zM108 93.89l-5.75-4.19-5.76 4.19 2.2-6.77-5.75-4.18H100l2.2-6.77 2.2 6.77h7.11l-5.76 4.18zM71.92 93.89l-5.76-4.19-5.75 4.19 2.2-6.77-5.76-4.18H64l2.2-6.77 2.2 6.77h7.11l-5.75 4.18zM35.84 93.89l-5.75-4.19-5.76 4.19 2.2-6.77-5.75-4.18h7.11l2.2-6.77 2.2 6.77h7.11l-5.76 4.18zM216.22 62.73l-5.76-4.18-5.75 4.18L206.9 56l-5.75-4.18h7.11l2.2-6.76 2.2 6.76h7.11L214 56zM180.14 62.73l-5.75-4.18-5.76 4.18 2.2-6.77-5.75-4.18h7.11l2.2-6.76 2.2 6.76h7.11L177.94 56zM144.07 62.73l-5.76-4.18-5.75 4.18 2.19-6.73-5.75-4.22h7.11l2.2-6.76 2.2 6.76h7.11L141.87 56zM108 62.73l-5.75-4.18-5.76 4.18L98.68 56l-5.75-4.18H100l2.2-6.76 2.2 6.76h7.11L105.79 56zM71.92 62.73l-5.76-4.18-5.75 4.18 2.2-6.73-5.76-4.18H64L66.16 45l2.2 6.76h7.11L69.72 56zM35.84 62.73l-5.75-4.18-5.76 4.18 2.2-6.73-5.75-4.18h7.11l2.2-6.82 2.2 6.76h7.11L33.64 56zM216.22 125l-5.76-4.18-5.75 4.18 2.19-6.76-5.75-4.18h7.11l2.2-6.77 2.2 6.77h7.11l-5.77 4.22zM180.14 125l-5.75-4.18-5.76 4.18 2.2-6.76-5.75-4.18h7.11l2.2-6.77 2.2 6.77h7.11l-5.76 4.18zM144.07 125l-5.76-4.18-5.75 4.18 2.19-6.76-5.75-4.14h7.11l2.2-6.77 2.2 6.77h7.11l-5.75 4.18zM108 125l-5.75-4.18-5.77 4.18 2.2-6.76-5.75-4.18H100l2.2-6.77 2.2 6.77h7.11l-5.76 4.18zM71.92 125l-5.76-4.18-5.75 4.18 2.2-6.76-5.76-4.18H64l2.2-6.77 2.2 6.77h7.11l-5.75 4.18zM35.84 125l-5.75-4.18-5.76 4.18 2.2-6.76-5.75-4.18h7.11l2.2-6.77 2.2 6.77h7.11l-5.76 4.18zM216.22 156.2l-5.76-4.2-5.75 4.18 2.19-6.76-5.75-4.19h7.11l2.2-6.76 2.2 6.76h7.11l-5.77 4.21zM180.14 156.2l-5.75-4.2-5.76 4.18 2.2-6.76-5.75-4.19h7.11l2.2-6.76 2.2 6.76h7.11l-5.76 4.19zM144.07 156.2l-5.76-4.2-5.75 4.18 2.19-6.76-5.75-4.17h7.11l2.2-6.76 2.2 6.76h7.11l-5.75 4.19zM108 156.2l-5.76-4.2-5.76 4.18 2.2-6.76-5.75-4.19H100l2.2-6.76 2.2 6.76h7.11l-5.76 4.19zM71.92 156.2l-5.76-4.2-5.75 4.18 2.2-6.76-5.76-4.19H64l2.2-6.76 2.2 6.76h7.11l-5.75 4.19zM35.84 156.2l-5.75-4.2-5.76 4.18 2.2-6.76-5.75-4.19h7.11l2.2-6.76 2.2 6.76h7.11l-5.76 4.19z" fill="#fff" fill-rule="evenodd"/></svg>