<svg xmlns="http://www.w3.org/2000/svg" width="246" height="300" viewBox="0 0 246 300"><title>flag-michigan-icon-man</title><path d="M70,86.61l-.36-.47a1.73,1.73,0,0,0,.36.47" fill="#fff" stroke="#000" stroke-linecap="round" stroke-linejoin="round" stroke-width="1.5"/><path d="M70.1,103a26.4,26.4,0,0,0-1.35-8c-.77-2.43-1.39-3.76-.63-6.37-.53.87-1.32,1.73-1.26,2.68.07,1.38,1.21,3.21,1.69,4.5A27,27,0,0,1,70.1,103" fill="#fff" stroke="#000" stroke-linecap="round" stroke-linejoin="round" stroke-width="1.5"/><path d="M94.15,167.4l4.72,0c-.22-3.76-.45-7.52-.75-11.28q-2,5.61-4,11.24" fill="#fff" stroke="#000" stroke-linecap="round" stroke-linejoin="round" stroke-width="1.5"/><path d="M86.53,148.93c.49-4.46,1.68-8.16,1.27-12.63s-.22-8.75-1.34-13c-.21-.79-.41-2-1.06-2.41s-3-.1-3.74-.15a45.58,45.58,0,0,1-6.27-.71c-6.16-1.29-5.29-6.87-5.29-11.76-2.74,4.7-7.28,8.37-11.78,11.26-3,1.92-14.26,7.55-11.8,12.89,1.74,3.8,8,1.41,11,1.09,4.55-.48,9.21,4.73,12.4,7.36,1.43,1.17,4.65,3.56.89,3.14-6.47-.72-13-2.62-19.34-4-3.26-.72-7.1-2.24-10.51-2a49.05,49.05,0,0,0-11.81,3c-3.68,1.34-2,2.75.84,4,1.78.81,8.5,2.77,8.52,5.4,0,2.79-8.32,3.36-10.23,3.69-2.79.46-5.61.84-8.43,1,5.22,3.26,10.14,6.9,16.35,7.89,2.58.42,5.13.44,7.64,1.27s4.68,2.47,7.12,3.34,6.09,0,8.62-.37c3.53-.46,6.83-.94,10.35-.3s7.44.26,11,.28c.45,0,1.72.24,2.12,0,.7-.42.87-3.13,1.06-4.09,1-4.73,1.82-9.5,2.36-14.3" fill="none" stroke="#000" stroke-linecap="round" stroke-linejoin="round" stroke-width="1.5"/><path d="M229,86.14c-3.88,1.15-9.51,3.44-13.46,1.35s-3.59-7.41-7.74-9.35c-3.74-1.74-8.44-.93-12.25.14-5.19,1.46-10,3.35-15.46,3.84-3.77.34-7-1.27-9.8-3.83-.82-.75-2.22-2.05-1.88-3.31s2.19-1.42,3.1-2.27c1.75-1.65,1.57-4.47.44-6.41-1.88-3.19-5.83-4-9.27-3.79a36.34,36.34,0,0,0-8.19,2.08,97.58,97.58,0,0,1-10.64,2.72c-1,.22-9.21,1-9.17,2.67,0,1,3.18,2.06,3.78,2.32a45.55,45.55,0,0,1,7.95,4.16c2.78,1.93,7,5.72,4,9.24-1.57,1.84-4.2,2.62-6.42,3.31a92.76,92.76,0,0,0-9.56,3.39c-3.86,1.68-7.45,4-11.36,5.57-1.75.7-5.27,2.21-7.08,1.24-1.38-.75-2.39-2.71-3.25-4-1.86-2.7-3.55-5.51-5.43-8.19-1.44-2.07-3.18-4.55-5.7-5.36-2.86-.92-5.67.79-7.86,2.47a22.19,22.19,0,0,0-6.38,7.54c-1,1.89-1.43,4-2.49,5.85-1.31,2.27-3.86,3.73-6.3,4.53-1.58.51-1.77.74-2.46-.34-.93-1.46-1.22-4-1.72-5.6l-1.32-4.27c1,4.32,1.74,8.77,3.09,13,.25.8.49,1.6.71,2.42.15.57.42,3.11.94,3.46.7.47,4.85-.3,5.56-.77,1.55-1,2-4.17,3.92-4.54,1.09-.21,2.32.74,3.06,1.44,1.41-1.8,0-3.8-.16-5.69-.23-2.27,1.29-5.81,2.58-7.67s3.75-2.22,5.73-2.69c3.31-.79,5,.45,6.62,3.23a7.14,7.14,0,0,1,1.42,4.08c-.1,1.44-1,2.74-1.18,4.17-.26,1.63-.25,3-1.15,4.44-.52.83-.7.72-.52,1.37s1.83,1.91,2.37,2.61a11.52,11.52,0,0,1,2.17,4.34c.42,1.8.42,3.68,2.09,4.59,3.37,1.82,8.07,1.62,11.75,1.77a88.65,88.65,0,0,1,9.34.91c-.28,1-.44,2.71-1.1,3.4-1.24,1.27-5.12,1-6.93,1.7a25.41,25.41,0,0,1-8.92,1.83c-.88,0-5.09-.67-5.77-.14s-.89,3.55-1.09,4.33a26.6,26.6,0,0,0-.83,3.39c-.42,4,.58,8.19,1,12.12.32,3,.61,6,.89,9l.42,4.74c.06.7-.09,4.36.4,4.73.26.2,1.44,0,1.74,0l11.74.07,91.63.51,26.65.15V81.27c-3.59,2.37-8.2,3.6-12.26,4.83" fill="none" stroke="#000" stroke-linecap="round" stroke-linejoin="round" stroke-width="1.5"/><path d="M194.61,168.17c8.82-9.9,1.52-26-11.56-26.31s-21,15.17-13,25.58" fill="#fff" stroke="#000" stroke-linecap="round" stroke-linejoin="round" stroke-width="1.5"/><path d="M121.79,262.65q-18.29-4.9-36.58-9.78C66.15,247.8,47.09,242.7,28,237.76c-8-2.09-18.87-3.35-23.54-11.07-3-5-2.16-11.41-2.16-17v-169c0-.61-.33-2.5,0-3s1.69-.33,2.61-.33h234c1.13,0,2-.32,2.42.46s0,2.44,0,3.18V209.92c0,5.74.87,12.36-2.55,17.36-5,7.36-15.72,8.55-23.75,10.63q-13.35,3.47-26.68,7-28.2,7.45-56.38,15l-10.12,2.71" fill="none" stroke="#000" stroke-linecap="round" stroke-linejoin="round" stroke-width="1.5"/><path d="M2.47,150.84c3.44,0,6.83-.07,10.16.93,4.39,1.32,8.15,4,12,6.43a32.23,32.23,0,0,0,8.89,4.31c3.06.8,6.28.67,9.32,1.52s5.5,2.89,8.37,3.74c3.4,1,8.09-.47,11.51-.86,6.73-.76,12.55,2,19,3.74m30,8.23a20.71,20.71,0,0,0,4.63,1.5c2.64.66,5.75,1.77,8.4,1,5-1.46,10.8,1,15.36,3.23a82.12,82.12,0,0,0,11.18,4.19c.64.19,2.2.3,2.76.75s.71.17,0,.84-2.23.74-3,.93c-2.34.59-4.73,1-7.1,1.49a178.57,178.57,0,0,0-18.63,5.07c-6.52,2.06-13.69,2.49-20.44,3.26-10,1.15-20,2.19-30.12,2.76-8.68.48-17.3.93-25.92,2.16s-17.41.37-26,1.81C15.85,209,8.93,210.15,2,211.22m238.15-43.44H109.84m-11.42,0H93.53m-10.87,0H71.37m8.4,21.71c3.44-1.7,6.08-2.15,9.17.49,1.22-5.67,2.2-11.42,3.52-17.06s3.66-11.27,5.66-16.76c.65,8,.82,15.88,1,23.85.08,3.13.65,5.75,3.9,6.84a18.67,18.67,0,0,0,11,.24c-4.81-1.63-3.83-8.82-4.07-12.81-.41-6.91-1-13.82-1.71-20.71-.5-5.19-1.69-10.72-1.44-15.93a30.61,30.61,0,0,1,1.2-5.7c.12-.47.29-2.46.69-2.77s2.41.13,2.9.15a31,31,0,0,0,8.55-.68c1.76-.46,3.35-1.44,5.11-1.84,1.35-.31,4.17,0,5.2-1.07.58-.62.72-2.51,1-3.34-6.4-1-13.1-.35-19.34-2.13-1.86-.53-2.57-.58-3.22-2.43-.53-1.53-.54-3.15-1.23-4.63a16.11,16.11,0,0,0-2.81-3.91c-.2-.22-1.38-1.1-1.4-1.4s1.31-2,1.5-2.51c.52-1.48.39-3.07.86-4.58s1-2.7.55-4.31c-.67-2.32-2.64-5.6-5.26-5.92a12.91,12.91,0,0,0-7.44,2c-1.79,1.45-3.36,5.73-3.42,7.89s1.67,4.35.17,6.43c-1.35-1.29-3-2-4.35-.51s-1.76,3.47-3.83,4c-.68.15-3.85.75-4.39.35-.76-.56-1-3.91-1.33-4.86-1.27-4.2-2.09-8.46-3.1-12.73a14.89,14.89,0,0,0-1.07-3.83,27.44,27.44,0,0,0-3.19-3.65,17.84,17.84,0,0,0-1.46,5c-.13,2.15,1.09,4.25,1.64,6.3,1.3,4.93.8,10.24.8,15.3,0,2.43.07,4.8,2.15,6.51s5.57,1.73,8.15,1.94c1.1.08,4.28-.34,5.15.24.45.3.65,1.54.78,2A38.57,38.57,0,0,1,87.49,131c.13,2,.19,4.06.41,6.08.33,3-.4,5.31-.9,8.28-1.08,6.47-1.79,13-3.15,19.39A248.07,248.07,0,0,0,79.77,189.49ZM91.85,174l7.23,2.44" fill="none" stroke="#000" stroke-linecap="round" stroke-linejoin="round" stroke-width="1.5"/><path d="M28.56,222.83c8.62,0,16.77-2.86,25.35-2.91a65,65,0,0,0,12.3-1.09c4-.8,7.89-2.08,11.89-2.88a126.42,126.42,0,0,1,20.24-2.54c.52,0,4.33-.4,4.52.45.22,1-4.74,2.22-5.25,2.41-.81.29-5.62,1.63-5.47,3s4.1,1.16,5,1.19c10.56.34,21.44-.81,31.91-2.1,2.84-.35,14.34-.78,14.08-5.43-.08-1.37-.57-2.45-1.82-2.46a14.86,14.86,0,0,0-2.95.81,49.32,49.32,0,0,1-7.47,1c-3.08.22-7.4.84-10.38-.4-1.14-.47-1.1-.28-.66-1.12,1.42-2.65,6.81-3.54,9.35-3.51,5,.05,9.86.54,14.89.14,2.16-.18,4.32-.41,6.46-.72a31.68,31.68,0,0,1,5.35-.85c2.5.07,7.45,3.6,3.3,5.27-1.16.47-3.6.41-3.58,2.21s3.08,2.37,4.34,2.77a3.41,3.41,0,0,1,2.42,1.86c1.79,4.25-5.42,5.81-8,6.18-5.31.73-10.68.11-16-.1-4.91-.2-9.83-.22-14.75,0-7.72.34-15.4,1.34-23.13,1.66-9.13.38-18.94,1.39-28,.2-2.69-.35-1.66-1,.35-1.64,1.77-.55,4.69-.85,6.19-2,1.21-.92-.69-.49-1.53-.42-4.46.37-8.88,1.21-13.3,1.85a121.78,121.78,0,0,1-20.55.9c-9-.2-18,.85-27,1.1-1.47,0-2.95.07-4.42.08l16.42-2.87"/><path d="M158.38,195.51a10.66,10.66,0,0,0-2.83.24c1.54-.71,4.23-.48,5.88-.66l11.28-1.2c2.13-.22,18.7-1.76,18.7-1.75,0,.94-8.48,2.42-9.52,2.72s-4.6,1.07-1.81,1.44c7.06.94,14.65-.74,21.61-1.79a25.94,25.94,0,0,1,6.35-.11c.23,0,1-.07,1.14.12.35.48-1,.61-1.46.71A106.64,106.64,0,0,1,196.19,197c-5.53.7-11.08,1.32-16.63,1.79-1.17.09-6.44,1.23-7.4.29.18.17,11.44-2,11.49-2.4,0,.07-16.16.31-18.11.23-6.37-.27,1.9-.91,2.07-1.57.07-.28-8.77.11-9.23.16"/><path d="M240.15,184.73c.2,0,2,.24,2,.4-.13.61-7.74,0-8.18,0-5.27-.19-10.55-.41-15.82-.44,0,0-6.83-.27-6.92.1,0,.1,16.78,2.39,18.27,2.59,1.69.22,3.39.45,5.08.73.73.12,2.85.14,3.4.74s.37.15-.13.53c-.83.62-3.58.37-4.51.42a107.2,107.2,0,0,0-11.73,1.09c-.87.15-3.09.26-2.65,1.17.32.65,3.45.53,4.13.55a38.65,38.65,0,0,0,6.44-.67,29.45,29.45,0,0,1,8.89.2c.54.09,2.41.11,2.71.53s0,2.7,0,3.34c0,.88.15,2.35.22,2.93,0,.08-13.92.27-15.18.29-3.45,0-6.9.13-10.35.28-.44,0-4.65.67-4.92.4.24.24,1.2.14,1.48.16,1.81.12,3.65.13,5.47.18,2.86.07,5.72.12,8.59.13,4.95,0,10.49,0,15.14,0"/><path d="M129.52,171.65c2.66,0,5.33.26,8,.52.37,0,5,.84,5.07.77-.71.94-4.5-.2-5.72.48-2,1.13,1.33,1.25,2.42,1.37a182.31,182.31,0,0,0,19.7.69c-6.43.52-13,1.51-19.45,1.42a60.12,60.12,0,0,1-6.15-.26c-.28,0-1.56,0-1.74-.37s.9-.37.82-.8c-.24-1.31-3.65-1.46-4.65-1.87a20.05,20.05,0,0,1-3.59-2.46l5.31.47"/><path d="M188,231.53a102,102,0,0,0,21.81-2.88c5.14-1.26,10.32-2.21,15.51-3.25,1.27-.25,8.66-1.23,7.79-3.81-.75-2.23-6.75-3.09-8.56-3.54-4.3-1.06-8.75-1.56-13-2.68-4.93-1.3,3.22-2.48,4.56-2.68,2.77-.42,5.56-.75,8.35-1.1,1.46-.19,4.59,0,5.85-.88s-1.21-.61-2-.65c-3.77-.18-7.58.06-11.35.22-5.31.23-10.63.5-15.95.71-4.95.19-10.48-.44-15.34.54-3.13.63-3.55,2.44-1,4.39,3.87,3,9.35,4.34,14.08,5.11.5.08,6.91.48,6.56,1.37s-6.5,1.08-7.37,1.17c-9.39.91-18.84,1.36-28.26,1.7,1.37.64-.36,1.48-1,1.74-2.64,1-5.77,1.22-8.55,1.52-6.3.69-12.64.95-19,1.25-11.47.53-23,.68-34.47,1.79-.56.05-4.41.21-4,1.05.53,1,5.23,1,6.29,1.14,7,.74,14.09,1,21.13,1.44,3.51.21,7,.42,10.53.72,1.78.15,4.58,0,6.22.8,1.16.59.88.67-.37,1.06-3,.94-6.53,1-9.65,1.31-11.63,1.15-23.3,2-35,2.26-6,.15-12.23-.22-18.24.5-8,1-16,2.61-24.1,3.65,4.32,1.08,8.64,2.14,13,3.14,1.72.4,4.85,1.44,6.07.9a10.72,10.72,0,0,1,.87-.72c1.52-.78,4.13-.59,5.76-.68,10-.53,20.06-.17,30.09-.66,17.34-.84,34.72-2.74,51.9-5.23,3.39-.49,6.78-1,10.14-1.71,1-.21,4.8-.54,5.44-1.61s-1.32-1.17-2.17-1.31c-4.46-.74-9-.86-13.51-1.46-2.08-.28-4.16-.58-6.22-1-.44-.09-2.77-.35-3-.89-.41-1,6.44-.82,7.08-.82A142.56,142.56,0,0,0,188,231.53"/><path d="M127.27,161.32h34.11c.25,0,1.46.18,1.69,0s.22-2.67.07-3.07c-.39-1.1.29-.33-.61-.69a9.34,9.34,0,0,0-2.64,0H129c-.28,0-1.54-.19-1.75,0C126.92,157.9,127.27,160.75,127.27,161.32Z"/><path d="M163,153.77,131.56,150c-.11.92-.65,2.47,0,2.93s2.3.28,3,.36l12.45,1.5,12.28,1.48c.66.08,2.52.66,3.14.38s.55-1.92.67-2.83"/><path d="M163.92,149.86l-33.18-14.69c-.49,1.13-1.34,2.06-.75,2.85s2.76,1.22,3.5,1.54l12.67,5.61,12.67,5.6c.8.35,2.54,1.54,3.43,1.52,1.09,0,1.11-1.21,1.66-2.43"/><path d="M166.26,146.16,139,129.94c-.4.67-1.51,2-1.3,2.58.16.4,1.71,1,2.07,1.23l9.46,5.63,15.52,9.25,1.48-2.47"/><path d="M168.65,142.91,141,112.46c-.92.84-2.07,1.34-1.84,2.31.19.79,2,2.18,2.51,2.77L151.19,128l15.33,16.87,2.13-2"/><path d="M172.32,140.47l-10.47-14.74-6.27-8.84c-.29-.39-1-1.94-1.5-2.1s-1.87,1.07-2.47,1.5l18.33,25.88,2.38-1.7"/><path d="M175.81,138.49,161.94,96.8c-.24-.73-.51-2.66-1.07-3.21-.71-.71-1.71.06-2.88.44l13.18,39.72,1.88,5.67,2.76-.93"/><path d="M180.11,137.79l-6.28-31.09c-.77.16-2.53.24-2.81.8-.2.39.39,2,.48,2.36l2.19,10.78,3.59,17.7,2.83-.58"/><path d="M184.12,137.38l4.21-43.76c.08-.76.62-2.64.33-3.37-.37-.94-1.62-.64-2.84-.77l-4.2,43.77c-.08.77-.62,2.65-.33,3.38.37.93,1.6.63,2.83.75"/><path d="M188.37,138.42l6.81-30.95-2.83-.62-6.82,31,2.84.59"/><path d="M192.2,139.7l20.52-36.5L215.65,98c-.8-.43-2-1.49-2.68-1.13s-1.08,1.92-1.37,2.43l-5.93,10.55L191.8,134.48c-.47.84-1.72,2.29-1.84,3.27-.14,1.15,1,1.25,2.24,1.95"/><path d="M195.63,142.36l10.71-14.55,6.42-8.72c.28-.39,1.52-1.57,1.52-2.07s-1.62-1.46-2.22-1.9l-18.75,25.54,2.32,1.7"/><path d="M198.64,145.1l33.52-25,4.78-3.57c-1.94-2.6-1.52-2.48-3.87-.73l-8.8,6.58-22,16.4-5.41,4.05,1.74,2.32"/><path d="M200.69,149l15.68-9,9.4-5.4c.43-.24,2-.83,2.24-1.28s-.89-2-1.26-2.61l-15.68,9-9.4,5.38c-.43.25-2,.82-2.23,1.28s.89,2,1.25,2.65"/><path d="M202.34,152.61l32.26-7.38c-.17-.74-.27-2.51-.83-2.75s-2.09.48-2.56.59L220,145.63l-18.31,4.19.65,2.79"/><path d="M202.66,157l29.68-3.12c.27,0,1.44,0,1.64-.17a3.72,3.72,0,0,0,0-2.46c-.53-.73-1.82-.26-3-.14l-18,1.88-8.58.89c-2.53.26-2,.41-1.68,3.12"/><path d="M202.68,161l29.37,5.68c.57-2.95.94-2.76-1.78-3.28l-10.19-2-16.86-3.27-.54,2.84"/><path d="M127.59,126.69,125.25,145c-.94,7.4-1.34,15.12-2.86,22.42a8.5,8.5,0,0,1-4.47,6.14c.58.58,1.3,1,1.38,1.75.09.95-.68,2.52-.93,3.44l-1.86,6.88,3.83,1c.59-3.83,1-7.7,1.78-11.5.71-3.61,2.9-6.8,3.43-10.56,1.38-9.67,2.17-19.43,3.1-29.15.3-3.05.58-6.1.87-9.15"/><path d="M79.77,189.49a12.59,12.59,0,0,1,4.7-1.4c1.65-.12,6.38.9,5.07,3.44-.85,1.67-3.79,1.44-5.16.88a20.41,20.41,0,0,1-4.61-2.92"/><path d="M114.07,187.58l1,1.44c-4.51,1.14-10.43.9-14-2.4"/><path d="M129,120.9l2.42-14c1.46.5,1.22.2,1.31,1.43a25.2,25.2,0,0,1-.65,4.69L131,121.39"/></svg>