<svg xmlns="http://www.w3.org/2000/svg" xmlns:xlink="http://www.w3.org/1999/xlink" width="600" height="381.82" viewBox="0 0 600 381.82"><defs><linearGradient id="b" x1="421.37" y1="12652.9" x2="449.02" y2="12652.9" gradientTransform="matrix(1 0 0 -1 0 12921.38)" gradientUnits="userSpaceOnUse"><stop offset="0" stop-color="#fff"/><stop offset="1" stop-color="#8c8c8c"/></linearGradient><linearGradient id="a" x1="152.9" y1="12653.37" x2="179.16" y2="12653.37" gradientTransform="matrix(1 0 0 -1 0 12921.38)" gradientUnits="userSpaceOnUse"><stop offset="0" stop-color="#8c8c8c"/><stop offset="1" stop-color="#fff"/></linearGradient><linearGradient id="c" x1="426.6" y1="12658.84" x2="450.76" y2="12660.79" xlink:href="#a"/><linearGradient id="d" x1="153.54" y1="12659.16" x2="173.79" y2="12656.72" xlink:href="#b"/></defs><path fill="#00447b" d="M0 0h600v381.82H0z"/><path d="M307.41 334.45c4.59-.12 7-.25 15.45-.85a270.6 270.6 0 0044-6.79 354.68 354.68 0 0056-18.53 200 200 0 0019.14-9.55 122.55 122.55 0 0013.57-8.64c1.65-1.21 1.63-1.17 1.63-2.86 0-1.37-.14-2-1.1-5.16-.34-2-2.35-6-1.3-7.37a30.67 30.67 0 013.9-3.7 36.24 36.24 0 014.06-2.32c.58-.31.88-.53.88-.64a15 15 0 00-1.16-1.82c-3-4.31-3.78-5.87-4.73-9.68a30.29 30.29 0 01-1.06-7c-.22-3-.37-3.87-.85-4.85s-1.19-2-1.44-1.92-.3.21-.44.47c-1 1.87-2.22 3.07-4.93 4.88a69.51 69.51 0 01-7.23 4.22 73.82 73.82 0 00-8.66 5.29c-2.29 1.59-3.72 2.64-4.6 3.37a57.69 57.69 0 00-6.83 7.42 4.21 4.21 0 00-.72 2.27c.05.3.13.39.44.52.93.39 2.87-.35 8.11-3.12 4.21-2.22 6.29-3.23 11.4-5.55 4.28-1.93 5.78-2.52 7-2.7.82-.12 1.24 0 1.43.31s-.06.85-1.13 2a31.84 31.84 0 01-5.91 4.57c-3.36 2.23-5.26 3.41-7.85 4.85-2.07 1.16-8.78 4.55-10.7 5.42-.68.3-3 1.41-5.2 2.45-6.27 3-9.74 4.54-15.09 6.65-10.54 4.13-26.79 9.41-39.31 12.76a202.88 202.88 0 01-26.28 5.37c-15.89 2.22-27.42 3.05-38.54 2.76-2.59-.07-5.65-.16-6.81-.22l-4.65-.2c-4-.16-14.74-.75-17.4-.95s-9.17-1.14-14.79-2.16c-15.67-2.83-23.47-4.53-34.75-7.6a138.24 138.24 0 01-17.73-6 196 196 0 01-21.5-9.77c-12.91-6.66-21.52-11.9-26.1-15.89-2-1.73-3-3.12-3.05-4.05s.67-1.27 2-1.15c2.55.23 9.49 2.81 16 5.93 6 2.89 7.78 3.59 8.59 3.39a.51.51 0 00.25-.78c-.36-.7-.84-1.13-5.08-4.58-5.21-4.25-7.13-5.52-11.91-7.89a43.47 43.47 0 00-6.2-2.57c-.91-.31-1.94-.69-2.28-.85a46.35 46.35 0 01-6.47-4 9.64 9.64 0 00-1.72-1.08c-.36.07-1 2.82-1.43 5.81-.51 3.95-1 5.71-2 7.81a13.72 13.72 0 01-2 3 20.15 20.15 0 00-3.2 5.08 6.4 6.4 0 00-.69 2.58 3.05 3.05 0 001 .43 21.54 21.54 0 015.78 2.36 12.42 12.42 0 012.45 2.31 6.84 6.84 0 01-.45 1.66c-1.51 4.29-2.52 8-2.53 9.29 0 .81.24 1.22 1.5 2.46 3.83 3.77 10.57 8.3 18.73 12.6 1.73.91 3.81 2 4.62 2.46 5.66 3.11 14 6.66 27.1 11.55 9.77 3.65 14 5.13 19 6.6a292 292 0 0060.49 10.81c12.16.93 24.3 1.32 33.28 1.08z" fill="#fff" fill-rule="evenodd"/><path d="M427.49 274.78a109.42 109.42 0 0012.51-6.94c5.13-3.3 7.88-5.45 8.78-6.87.34-.55.35-.69 0-.81-.58-.22-1.95.16-4.51 1.25-4.21 1.79-9.49 4.29-13.45 6.38-5.51 2.91-7.36 3.72-8.73 3.84-.45 0-.7.11-.74.2a48.07 48.07 0 001.6 4.9.32.32 0 00.21.13c.08 0 2.02-.94 4.33-2.08z" fill-rule="evenodd" fill="url(#b)"/><path d="M176.45 276.45c.34-.72 2.73-7.37 2.71-7.54s-.14-.21-.54-.27c-1.29-.19-3-.88-7.29-3a102.45 102.45 0 00-12.5-5.25c-3.05-1-4.86-1.34-5.55-1-.3.16-.35.24-.38.6-.07 1 1.35 2.71 4.38 5.14a124.17 124.17 0 0015.7 9.91c3.43 1.96 3.24 1.88 3.47 1.41z" fill-rule="evenodd" fill="url(#a)"/><path d="M175 286.78l-1.56-.57c.11 0-1.08 1.61-2.12 3.46s-2.05 3.65-.88 4.9c1.53 2 4.15 3 5.54 1.34a56 56 0 003.93-6.2l-.45-.27c-1.14 1.85-2 3.45-3.06 5.09s-2.41 2-3.75 1.19a2.62 2.62 0 01-1.2-1.47 3.51 3.51 0 01.36-2.18 49.17 49.17 0 013.19-5.29zM184.2 291.43l-4 8.55.5.34 3.17-6.64h.13l2.75 9.52 4.09-8.6-.5-.25-2.62 5.46h-.17l-2.09-7.68zM195.65 297c.2.9-2.33 6.72-3.53 8.66l1.89.78.15-.92c1-2.66 3.24-7.84 3.24-7.84zM213.61 303.45l-3.26 8.89.5.19 2.6-6.89.26.09 3.59 9.18 3.18-9-.48-.16-2.08 5.64h-.16l-2.76-7.46zM203.46 300a4.59 4.59 0 00-2.92 1.05c-1.86 1.79-2.1 5.27-.67 6.72a7 7 0 004.77 1.91 4.23 4.23 0 004.29-3c.94-2.86-.15-4.82-2.17-5.88a6.85 6.85 0 00-3.3-.8zm1 .72h.16a2.71 2.71 0 012.33 1.48 4 4 0 01.13 2.38c-.27 2.25-1.42 4.93-4.26 4.16-2.5-.67-1.87-4.78-.47-6.78a2.73 2.73 0 012.08-1.25zM241.9 310.67l-1.9.05s-1.46 6-2.28 7.37-2.61.75-3.13-.27c-.22-.44.18-1.86.4-2.86l-1.2.17s-.22.81-.26.93c-.86 2.68 2 3.45 3.81 3.42 2.08 0 2.6-1.69 3.17-3.69zM247.23 311.84h-1.66c.11 0-.48 1.89-.82 4s-.67 4.13.85 4.9c2.12 1.35 4.93 1.43 5.66-.64a55.71 55.71 0 001.58-7.16l-.52-.1c-.43 2.13-.74 3.94-1.13 5.82s-1.6 2.67-3.12 2.41a2.63 2.63 0 01-1.63-1 3.58 3.58 0 01-.41-2.17 49.41 49.41 0 011.2-6.06zM263.54 316.28l-.19-1.62a7.33 7.33 0 00-5.46-.78c-1.05.44-1.76 1.23-1.65 2 .27 2.13 3.59 2.9 5 4.51a1.32 1.32 0 01.35.73 1.13 1.13 0 01-.39.84 2.53 2.53 0 01-1.83.5 4 4 0 01-3.71-2.49l-.19.35c.39 2.35 3.24 2.87 4.82 2.86 2.06 0 3.28-1.55 3.06-2.59a4.1 4.1 0 00-1.92-2.34c-.82-.61-2.64-1.35-3.24-2.37a.89.89 0 01.3-1.22 4.4 4.4 0 014.3.48l.44 1.16zM267.3 314.82l-.26.6 3.22.28-.49 5.64s-.13 1.53-.28 2.28c-.06.31-.26.91-.26.91l2 .14s-.12-.58-.14-.88a14.86 14.86 0 01.12-1.82l.62-6.09 3.16.25.12-.57zM278.47 315.91c.47.8-.25 7.11-.84 9.31l2 .2-.13-.93c.21-2.85.81-8.44.81-8.44zM334.78 315.07a4.51 4.51 0 00-2.16 2.22c-.89 2.42.41 5.65 2.34 6.33a7 7 0 005.13-.37 4.24 4.24 0 002.53-4.6c-.41-3-2.25-4.26-4.53-4.33a6.74 6.74 0 00-3.31.75zm1.19.22l.15-.08a2.74 2.74 0 012.73.31 4.06 4.06 0 011.17 2.09c.74 2.14.88 5.05-2 5.61-2.54.49-3.78-3.48-3.39-5.89a2.72 2.72 0 011.37-2.04zM328.57 317.83l-.5-1.59a7.07 7.07 0 00-2.4-.55c-3.58-.13-5.44 2-5.45 4.73a4.47 4.47 0 001.95 4c1.05.6 4.73 1.46 6.39-.59.14-.17.39-.54.39-.54v-.54a4.35 4.35 0 01-.57.75 3.61 3.61 0 01-3 .88 3.15 3.15 0 01-2.77-3.25c-.11-2 .23-4.36 2.26-4.84a3.2 3.2 0 012.75.57 10 10 0 01.67.95zM302.77 318.3l-.39-1.32-6.23-.11v.31c.18 0 .33.88.32 1.61 0 2.6.06 6.36-.13 7.25v.28h5.87a.51.51 0 00.43-.2 1.11 1.11 0 00.11-.39 3.27 3.27 0 01-.39.1 27.4 27.4 0 01-3.74 0h-.07v-4.1l.08-.08h2.67l.1-.47-2.67-.05-.16-.07v-3.51l.1-.1h2c.92.05 1.08 0 1.45.37a2.09 2.09 0 01.36.57zM345.94 312.94l1.48 9.33.55-.09-1.2-7.26h.3l7.62 6.21-1.52-9.35-.55.07 1 6h-.23l-6-5.16zM358 310.75l.53 1.09c.32 1.41 1 4.52 1.47 7v1.06l2.34-.53a8.74 8.74 0 01-.38-.83 35.8 35.8 0 01-.83-3.74l2.64-.64.08-.53-2.83.6c-.56-2.32-.74-3.28-.8-3.55 1.36-.51 3.29-.92 4 .08l.37-.08-.52-1.28zM368 308c.71.6 2.19 6.77 2.4 9l2-.51-.44-.83c-.78-2.75-2.13-8.2-2.13-8.2zM380.56 304.47a7.37 7.37 0 00-1.49.11 17 17 0 00-2.37.75l-2.49.89.58.75 1.12 3.61 1.1 3.23.11 1.21 3.61-1.06a5.33 5.33 0 003.34-1.95 4.67 4.67 0 00-2-7.27 4.35 4.35 0 00-1.51-.27zm-1.58.73h.36a4.07 4.07 0 012 .69c1.74 1.43 2.82 5.53.26 7.11a14.62 14.62 0 01-2.6 1s-2.39-7.62-2.49-8a7.16 7.16 0 012.49-.8zM292.31 319l-.5-1.59a7.17 7.17 0 00-2.41-.55c-3.57-.12-5.44 2-5.44 4.73a4.46 4.46 0 002 4c1 .61 4.73 1.46 6.38-.59.14-.17.39-.53.39-.53v-.55a4.27 4.27 0 01-.56.75 3.64 3.64 0 01-3 .88 3.13 3.13 0 01-2.76-3.25c-.12-2 .23-4.36 2.26-4.83a3.18 3.18 0 012.74.56 9.68 9.68 0 01.67 1zM417.06 293l-1.06-1.25a7.09 7.09 0 00-2.43.44c-3.34 1.28-4.23 4-3.16 6.47a4.46 4.46 0 003.36 2.95c1.2.14 4.92-.51 5.65-3 .06-.22.15-.65.15-.65l-.24-.49a3.92 3.92 0 01-.22.91 3.62 3.62 0 01-2.44 2 3.15 3.15 0 01-3.82-1.91c-.9-1.84-1.49-4.11.2-5.33a3.15 3.15 0 012.74-.55 8.52 8.52 0 011 .61zM393.57 301.19l-.8-1.12-5.85 1.87.08.3c.15-.09.52.78.74 1.48.85 2.45 2.13 6 2.24 6.89l.06.28s3.53-1.18 5.55-1.91a.52.52 0 00.34-.34 1.12 1.12 0 000-.4 3 3 0 01-.33.22 27.89 27.89 0 01-3.71 1.25h-.12l-1.21-3.9v-.1l2.52-.89-.05-.48-2.55.82h-.17l-1.17-3.3.07-.14 1.92-.63c.89-.26 1-.33 1.49-.13a2.14 2.14 0 01.53.42zM397.66 298.4l3.27 8.93.54-.21-2.47-6.91.2-.14 8.69 4.71-3.15-8.87-.54.18 2 5.73-.43-.06-6.58-3.88zM426.59 287.63l-1-1-5.48 2.76.12.29c.14-.11.63.69 1 1.35 1.22 2.29 3 5.57 3.29 6.45l.11.27s3.3-1.72 5.18-2.76a.5.5 0 00.28-.38 1.18 1.18 0 00-.08-.4 2.08 2.08 0 01-.29.27 28 28 0 01-3.47 1.82h-.12l-1.8-3.66v-.1l2.35-1.28-.13-.46-2.35 1.2h-.2l-1.67-3.08v-.14l1.8-.93c.83-.39 1-.48 1.45-.36a2.26 2.26 0 01.59.33z" fill="#004279" fill-rule="evenodd"/><path d="M440.13 218.56a81.78 81.78 0 01-6.21-8.1c-.12 0-.32 0-.33.19s-.13.18-.2.26c-1-1-3.34-4.78-4.44-6.26L420 191.37c-1.43-2.18-3.18-4.4-4.49-6.67s-2.53-4.06-3.73-6c-11.07-18.21-19.34-37.62-27.69-57.36-2.09-4.94-8-22.19-9.84-27.89l-4.37-14.14a36.41 36.41 0 00-3.45-7c-1.66-2.31-2.86-2.64-6-3.73-4.67-.2-8.8-.51-10.85 2.62-5.3 3.11-10.39 26.42-12.07 34.49-2.65 12.65-5.72 25.37-8.21 37.92-.89-1.64-.65-1.31-.91-3.31-1.73-13.51-5.13-36.94-4-48.5a24.61 24.61 0 002.79-5.17c.41-.39.38-.39.45-1.25 1.86-1.28 1.73-2.87 1.9-5.53 1.21-4 1-7.68 4-14.7a23.42 23.42 0 012.12-3.89l.28-.91-1.74 1.65c-1.69 1.44-1.54 1.85-2.91 3.66-.22-3.51 1.46-7.58 1.88-10.73l-1.6 3.24a20.71 20.71 0 00-2.56 5.57c0-.1-.15-.34-.16-.29l-.28-1.05c-.35-3.68.91-8.63 1.7-12.13a11.47 11.47 0 00-1.66 3 21.68 21.68 0 00-2.59 7l-.49-1.71-.28 1.18-1-4.4-.83 2.37-.51.21c-1.13-2-2.74-5.16-4.54-6.5a15.35 15.35 0 00-8.23-2.79l-1.42-.42c-5.1-.28-7.73.51-11.18 2.92-2.19 1.53-4.36 5.19-5.41 8.81-1.37 4.75-4.33 19.64-3.08 24.17-.65 13 4.87 31.82 8.23 43.92.14 1.67.92 3.42 1.14 5.28.39 3.3-1 15.16-1.64 18.29-1 4.86-3.85 15.26-9.22 16.61-2.53-.12-3.28 1.07-6.13.14-8.93-2.93-11.77-25.3-17.3-31.22-.86-2.41-1.95-5.21-1.94-7.85-.77-.86-9.07-35.49-11.66-43.19a106.17 106.17 0 00-3.8-10.09l-1.37-1.89s-.13-.08-.15-.17-.09-.11-.14-.16a5 5 0 01-1.35-.64c-4.86-2.54-12.47-1.9-15.35 1.16-3.33 3.54-9.08 26-10.71 32-1.52 5.59-3.21 10.64-4.66 16-5.63 16.23-11.23 33.29-18.27 48.23-4.84 10.28-10.82 23.33-16.36 33.1-2 3.46-3.88 7.49-6.15 10.53-1.16.49-1.24 1.24-2.69 3.24l-5 7.58a38.57 38.57 0 00-2.45 3.61c-1 1.28-2 2.57-2.78 3.72-1.47 2-1.48 2.44-.25 4 7.17-1.89 3.51-.36 7.37.32a5.66 5.66 0 002.93-1.31l2-.11 1.82 1.2c.65-.53 1.15-1 1.55-1.37l1.35-.07 1.8 2.35 3.66-1 1.07-.64a7.28 7.28 0 001.24.45h.8a2.7 2.7 0 00.6-.17l.19-.07a4.25 4.25 0 00.43-.21l.19-.11c.17-.1 1-.7 1.16-.87l.17-.16.42-.41.21-.13c.16-.17.9-1 1.08-1.26l.15-.19.39-.52.14-.19.51-.7a20.51 20.51 0 012.05-1.23c1.07-1 7.33-11.24 7.73-11.52 2-1.42 3.74-.62 5.75-2.57a8 8 0 002.79-3c2.26-1.57 4.74-1.34 7-4.84l5.73-.52c2.59-1.26.56-.46 2.64-.32 1.84.13 1.15-.4 2.89-.46s1.67.29 3.31-.41c4.2-1.81 3.94 2.19 7-1.77 1.27-1.63 6-11 7.43-13.94l1.81-3.19c1-1.23 0-.22 1.06-.94l-1.68 7.41c-.92 3.43.4 4.82.84 7.84.42 2.84-.63 5.25.41 8.24.77 2.21 2.23 3.72 3.1 5.85-2.4 0-10.8-.56-12.63.62l9.81 1.36c3.61.38 2 .3 2.63.74-2.58.85-5.16 1.3-6.1 2.94 1.22 1.45 2.39 1.72 4.8 2.19-.6 1.2-.15.45-1.24 1.6a31.59 31.59 0 01-3.24 4.27c-1.45-.4-.34.74-1.32-.86-2.21-3.79-.47-4-3-4.49-.42 1.74-.35.92 0 2l.15 1.37c-2.4 0-1.14-.08-2.21.91l-1-.42a6.55 6.55 0 00-5.73-4.15c.29 1.67 0 .92 1.53 1.92a14 14 0 011.69 1.27l-1.38 1.48-.14 1.07-2.61.54.37 4.7a3.88 3.88 0 01-.46.68 11.4 11.4 0 00-.67 1c-1.43.17-2.9 1.84-4 3l.2 2.83a2.62 2.62 0 002.11-1.6l1.74.25 1 5.68.55 1.81c0 1.64.27.65-.56 1-1.62-.35-1.76-1.05-3.41-.56 2.34 2.63 2 2.64 5.64 4v.86a3.83 3.83 0 00-.94 1.55 3.45 3.45 0 00-.2 1.37c0 2.61.84 2.39.85 2.4v-.27.27l.43 1.35-2.25 1.12c1.2 2.23 1.52 1.24 3.67 1.95a8.54 8.54 0 013 2.22 19.34 19.34 0 004.09 2.19 5.4 5.4 0 00.72.71 3.77 3.77 0 00.51.34c.4.26 6.33 3.56 9.1 5.15 3 1.7 4.07 3.21 7.53 4.62.88 1 2.65 1.45 3.87 1.87 3.18 2.5 13.75 7.43 19.29 5.25l6.28 1.9c1.62.12 2.36-.19 4.08.12 5.88 1.06 13.22.24 18.9-1a10.58 10.58 0 013.91-2.29c-.61.4-.45.14-.79.46-1.31 1.24-.2-.1-1 1.35 2.75-.18 3.09-.29 4.81-1.57-.25.77-.2.35.09.64l1.61-.19c2.1-.55 4.35-.6 6.57-1.41 2.05-.75 3.95-1.4 5.7-2.16 1.61-.72 2.57-.94 3.62-2.24 1-.11 8.37-4.93 9.5-5.87a10.13 10.13 0 002.54-2.2c1.35-.15 1.35-.76 2.43-1.67l1.83-.15c.9-.68.38-.36.81-1a3.43 3.43 0 001.49-1.69s6.31-3.17 7.62-3.95c2.13-1.27 3.25-.58 3.24-3.29-.68-.66.83-.61-1-.52l-1.36.3.57-2-.16-.19a2.39 2.39 0 00.6-1c.25-.57.06-.23.15-.83 1-.61 2.53-1.48 2.76-2.93.86-.9.3.3.88-1.55.24-.77.18-.82.3-1.16l.29-.66c1.2-.08.24.46 1.39-.77a13.21 13.21 0 001-1.3c.5-.55.44.79.73-1.53-2 .44-.86.16-1.43 1l-1.78 1c-1.11-.89-.76.77-.39-1.7.11-.73.2-1.42.31-2.16 3.05-2.33 5.72-3 5.42-5.23-4.52 1.28-1.84.47-4.73 2.29-.67-.29-.37-.79-.37-.79 1.13-2.72 2.94-3.5 2.88-6.68-1.79 0-1.59-.43-1.76.85-1.25-.75-.59.35-.95-1.25 0-.05.07-1.71.07-1.72a5.35 5.35 0 01.55-2.84l3.4-1.1 1.18-.58-.06-2.49c-.53.13-.41 0-.85.25-.74.4-.28.17-.8.68l-6.33 2.32-1.39.12-.36-.72c0-1.33.75 0-.26-1.35-1.67.59-1.11.2-1.9 1.29l-1.56-.46c-.81.4-1 .37-1-.69 1.91-.48 2.21-.66 3-2l-4.6-2.48 13.79-5-18.58 2-.43-.09 4.06-9.93-.34-3.35 1.67-.93c-.53-5.6 1.24-6.28.92-10.42l.13-10.12a79.58 79.58 0 005.05 9.6c3.77 6.14 3.12 5 11.67 5.57 2.45 3.75 3.12.84 6.47 2.21 2.3.93 2.37-.5 3.53-.09l4.29 1.09c1 3.36 4.55 5.22 7.61 6.66 0 .05.17.26.22.32a3.71 3.71 0 002.61 1.08 6.84 6.84 0 011.35.95c.63.64 1.94 5.05 4.89 8.58.53.62 1.28 1.86 1.93 2.69a21.55 21.55 0 004.43 4.78l3 .34a6.18 6.18 0 00.62.07l3.19.36c2.29 1.18.8 2.87 7.11-.29 2.56 2.24 3.31 2.31 6.22.61 3 1.4 2.75.87 5-1.19l5 .69c2.01-2.47-.96-5.85-3.28-8.71zm-281 16.9zm19.07.95zm22.62-18.95zM219.24 207zM367.78 82.56zm7 114.72zm4.88 2zm39.19 27.6zm7.14-.38zm5.85.89zm5.22-.24z" fill="#fff" fill-rule="evenodd"/><path d="M455 277.76c-.62-2.69-.61-2.42-.12-3.06a30.67 30.67 0 013.82-3.7 36.24 36.24 0 014.06-2.32c.58-.31.88-.53.88-.64a15 15 0 00-1.16-1.82c-3-4.31-3.78-5.87-4.73-9.68a30.29 30.29 0 01-1.06-7c-.22-3-.37-3.87-.85-4.85s-1.19-2-1.44-1.92-.3.21-.44.47c-1 1.87-2.22 3.07-4.93 4.88a69.51 69.51 0 01-7.23 4.22 73.82 73.82 0 00-8.66 5.29c-2.29 1.59-3.72 2.64-4.6 3.37a57.69 57.69 0 00-6.83 7.42 4.21 4.21 0 00-.72 2.27c.05.3.13.39.44.52.93.39 2.87-.35 8.11-3.12 4.21-2.22 6.29-3.23 11.4-5.55 4.28-1.93 5.78-2.52 7-2.7.82-.12 1.24 0 1.43.31s-.06.85-1.13 2" fill-rule="evenodd" fill="url(#c)"/><path d="M287.39 258.67c-.19 0-.42-.06-.54.16l-1.91.16.81-1s-.56-2.14-.73-1.78c0 .1-.25-.09-.49-.42s-.33-.36-.22-1l.31.19c.6.24 0 .34 1.36-.09l-1.31-1.07.88-1.87-1.85-.29-.31-1c-.2.32-9.83-1.61-8.66-4.13-1.52-6.81.24-6.35-1.5-8.58-1 2.32-.54.91-.56 3.23 0 .46-.1 1.15-.11 1.53l.05.86c0 .07.06.18.07.24l.61 3.5s0 .16-.06.24l-2.66.18.86.95-1.37.88c3.78 3.07 1.08-.06 3.45 2.12h.53l-.34.12-.87-.42-2.42 1.74v.43c.4 4.18 14 11.64 17 6.13.07-.13.28-.15.43-.21z" fill="#d7d7d8" fill-rule="evenodd"/><path d="M306.26 203.09c-3.55 2.54-2.44 1.87-5 4.64-.71.78-.29 0-.82.86-.68 1.17 0 1.66-1.09 2.26l.58-4.28-1.52 2.57c.25-2.85.28-2.08-.36-3l-1 4.05c-.35.77-.26.43-.65.9l1.65-5.88c.4-2.14 0-.89-.29-1.31l-3.3 11.53 1.65-9.45-2 3.87 1.08-5.75c-1.85 1.94-.65 1.76-1.92 3.41.09-2.74 0-1.87-.63-2.66l-.63.06-1.87 1.64.89-3.69-1.84 3.65c-.7 1.91-.16 3-1.57 4.76l1.25-6.12c-1.4 1.79-.23 1-1.58 2.63l.55-3.89c-1.12 1.72-.55 1.77-1.25 3.15l.07-5.42-.86 1c-.26.37-.29.48-.48.79-.47.77-.65 1.11-1.07 1.85-1.79 3.19-1.66 1.29-2 3.46l.57-.75c.31 1.43.41 1.15-.39 1.87l-.18-1.12c-.84.33-.13-.08-.83.4-.06 0-.46.54-.49.57-.56.8-.79 1.14-1.3 1.79-.07.09-.53.64-.59.7a3.19 3.19 0 00-.33.3c.07 0-.07.1 0 0a2.15 2.15 0 00-.69.16c-.19.57.29.39-.69 1.22s-.34.63-.72 0c-1.37.88-1.27 7-1.56 10.33-3 1-6.92 4.19-9.58 6.24-3.33 2.58-4.11 3.78-5 6.19.21-.23.46-.46.76-.82.53-.63.41-.68.85-1.25 2.27-2.95 9.55-7.36 12.88-9.18l2 3.18c-5.1.94-8.53 4.05-11.84 5.25l-1.71.69 15.26-4.92-3.68 14.17c.12 1 1.69 0 .38 3.78 3.22 7.33 8.62 0 8.62 0 .42.54.41-.09.33 1.89l5.94 1.64c2.8-2.6 3.64-13.56 4.08-17.47-.88 1-.63-1-.44 1.77a9.37 9.37 0 01-.07 2.64c-.42 2.56-2.9 9.59-3.8 12.32l-7-13.11c-.82.6-.36-.26-1.23 1.63-1.46 3.16-2.44 2.19-3.5 4l-2.32.8a48.86 48.86 0 012.74-4.15c1.28-1.67 5-7.31 6.21-8l4.06-1.21-1.5 11.79c.69-.93.95-10 2.74-11.55 1.52-1.28 6-2.76 8.41-6.24 2.87-4.07-1.25-9.49 4.2-17.18.84-1.19 2.65-2 3.89-3.77zm-22 11.73c-.34 1.86-.88 7.67-1.43 8.52-1-2.14.87-9.07 1-11.76.85 2.32.76 1.42.43 3.24z" fill="#a5a5a9"/><path d="M335.4 236.93c-.36.48-1-1.34-.16 3.91l.71 4.68-9.24-3.69-5 7 2.77-10 4.52.5-1.63-9.51c.1-.06.23-.28.29-.18s.23-.12.32-.13c1.33-.19-.67-.22 2.69.1 1.16-4.83 3.89-13.72-1.14-16.89-.36.17.52 1.13-.78-.41a6.07 6.07 0 01-.85-1.34c-.72-1.36-.4-1.83-1.49-2.75l-1.41-3.4.21 6.32-1.58-7.11.3 7.11-1.77-8.25c-.54 1.82-.23 2.23.18 5a18.35 18.35 0 01.46 4.66c-.65-2.08-.79-3.69-1.54-4.6l1.87 16.16c-1.2-2-.75-1.3-1-4.72-.15-2.52-1.51-11.43-2.58-12.78.3 2.84 1.4 8.16.83 9.36l-3.31-12.47 1.19 9.15-1.3-5.33c-.61-1.89-.38-.88-.92-1.37l1.12 5.91-1.45-3.18c.76 6.44 1.31 10.18 1.62 16.85-1.1-1.83-.64-1.87-.83-4.83-.13-2.17-1.18-10.94-2.38-12.63l.94 9.39c-.76-1.44-2.32-10.87-2.5-12.27-.78-.44-.3.58-.89-1l-.46-.3h-.65c.82 2 1.49 1.4 1.67 4.22a24.44 24.44 0 01-.29 5.41c-.24 1.14-2.32 7.43-3.52 8.15l1-5c-1.61 2.42-1.33 6.08-1.93 9.89l2.67 3.6c1.7 2.09 3.58 1.82 2.05 10.47-.66 3.71-1.39 2.58-1 5l.4-.57a3.62 3.62 0 01.2-.38 1.78 1.78 0 01.09-.23c1.57-3.85 1.34-6.84 1.53-11.06 2.67.4 3.46 2.48 4.51 6.14l2.28 8.7-4-6.92c-1.59 1.17-.77 2-2.62 5.27l-2.6 5.35-3.55-.24.41-16.28c-1.16 1.45-2.12 11.71-2 13.3.75 7.49 6.45 3 6.67 2.12l.62-1.32c0-1 2.94 4.42 3.44 6.83 0 0 14.05-1.86 15.31-8.9l4.93-1.42zm-10.42-25c.84 4 2 8.67 1.51 11.14l-.27.5-1.43-9.15c-.53-3.32-.04-2.12.21-2.51z" fill="#a2a1a6"/><path d="M311.8 244.67c-.21.52.07-.1 0 0z" fill="#a2a1a6"/><path d="M152.54 260.15c0-.88.67-1.27 2-1.15 2.55.23 9.49 2.81 16 5.93 6 2.89 7.78 3.59 8.59 3.39a.51.51 0 00.25-.78c-.36-.7-.84-1.13-5.08-4.58-5.21-4.25-7.13-5.52-11.91-7.89a43.47 43.47 0 00-6.2-2.57c-.91-.31-1.94-.69-2.28-.85a46.35 46.35 0 01-6.47-4 9.64 9.64 0 00-1.72-1.08c-.36.07-1 2.82-1.43 5.81-.51 3.95-1 5.71-2 7.81a13.72 13.72 0 01-2 3 20.15 20.15 0 00-3.2 5.08 6.4 6.4 0 00-.69 2.58 3.05 3.05 0 001 .43 21.54 21.54 0 015.78 2.36 12.42 12.42 0 012.45 2.31" fill-rule="evenodd" fill="url(#d)"/><path d="M326.17 177.67l-.37-.32a5.54 5.54 0 01-3.22-.44l2.3-4.11c-1.55-3.32-1.06-2-1.73-5.68-2.32-12.91-2.85-16.75-5.92-30.17-1-4.25-2.47-7.26-2.75-11.82l.84 1.6c.11.33.27 1 .37 1.31a7.19 7.19 0 00.84 2.18c-2-8-2.87-14-4.6-21.53-.77-3.38-1.9-7.25-2.87-10.55-1.42-4.85-2.46-5-.81-9.35a2.38 2.38 0 01.48-.93c4.13 13 7.12 24.53 10.61 37.74.47 1.78.93 2.65 1.37 4.19l3.87 17.46c.56 3.27 1.45 5.37 2 8.42.53-1.48.56-.93 0-2.48a47.5 47.5 0 01-2.06-8.07c-.74-3.58-1.62-7.07-2.2-10.8-.7-4.49-.43-1.94-1.29-3.81l-3.78-16.63c-.42-.46-5.52-19.86-5.16-21-.06-2.18-1.1-7.31-3.33-7.83l-1.51 5.14-2.25-12.6 5 4.41c4.13 3 3.21 1.85 7 2.21.73 2.15 1.4 5.47 3.26 6.85-.23-1.19-1.13-3.26-1.6-4.72-.63-2-.69-3.25-1.15-5.14h-.65c-.33.73 0 .46-.74.63-.59.74 0 .89-2 .59a7 7 0 01-3-1.61l-.64-.62-.33-.55a12.39 12.39 0 01-2-3.37c-.89-1.81-.67-3.11-2.2-4a15 15 0 001.52 5.36c.82.94.13-1.56.76 1.41-1.49-.71-.44.22-1.29-1.19a37.75 37.75 0 00-4.87-6.6c0 1.79.67 2 1.42 3.39l-.24 4-2.5-.64-.49 2.87-3-.56a4.77 4.77 0 00-.65 2.69c-.29 3.76.38 6.18 1.48 9.81 5.61 18.51 11.78 20.06 19.78 54.82l5.19 25.22L322 174c-1.09 1.33-.67 1.37.63 4.1 2.39.38 2.69.47 3.58-.41z" fill="#592101" fill-rule="evenodd"/><path d="M237.38 241.17l1.22 3.83 1.29 3c.63 1.75 1.29 2.73 1.39 4.81.55.49 3.33 6.74 3.8 7.88l-.59-.53c-1.54-1.72-1.19-2.79-2.72-4.54 2.84 8.74 2.63 9.67 6.29 13.42.18.19.27.36.57.65l.72.61c.67.66.19.13.76.94l-6.7-4.34c-1.11-2.08-3.08-4.24-3.89-6.68-.58-.36-.31 0-.86-.59-.08-.09-.32-.38-.39-.48-1-1.56-.74-6.28-2.49-9.64l4.76 15.84c-2.06-1.66-1-1.2-2.11-2.47s-1.25-.54-1.93-2.37l1.36.91c-2.62-6.91-1.62-3.24-3.24-6.57-.5-1-1-2.12-1.46-3.16-1-2-2.08-1-2.38-1.89-.06-.17-.19-.18-.28-.26-1.62-.35-1.76-1.05-3.41-.56 2.34 2.63 2 2.64 5.64 4v.86l.33 1.66-.92.32.3 3.34 1.56 2.74a14.27 14.27 0 013.28 3.93 19.34 19.34 0 004.09 2.19l.59-.79c.23.25.55.62.75.87a16.55 16.55 0 011.29 1.82c2.46 1.44 4.93 2.7 7.7 4.3 3 1.7 4.07 3.21 7.53 4.62 0-.11-.08-.25-.11-.32s-.1-.24-.15-.33a3.65 3.65 0 00-.18-.34l3.78 1.38c2.52 1 10.6 3.13 12.54 4.6l-13-4 .64.54c.05-.11.19.25.32.33 3.18 2.5 13.75 7.43 19.29 5.25l6.28 1.9c1.62.12 2.36-.19 4.08.12 5.88 1.06 13.22.24 18.9-1a10.58 10.58 0 013.91-2.29l1.46-.19c.49-.58.18-.89.24-1.26-1.65-1.37-4.84 1.48-9.12 2.4a39.13 39.13 0 01-11.46.74l-10.6-1.72 8.55-.23c-3.86-2.42-14.52-.38-16.83-.37l-2.68-.46 11.76-.95-2-1.48c-2.71.09-2.16.23-4.1 1.32a9.17 9.17 0 01-8.85-.93c-4.52-2.73-1.9-1.46-7.52-3.74 2.46.53 3.85 1.51 6.67 2.08 2.48.51 5.42.94 7.85.2-1.74-1.75-.18-1.22-2.83-2l-6.39-.26c-2.75-.63-4.54-1.37-7-2-.9-1.16-1.83-.41-4.2-3.44l-3.55-4.51c-.69-1.31-1.66-2.2-2.44-3.5l-1.54-.79a10.17 10.17 0 00-.68-2.87c-1.71 2.32-.22 2.8 1.05 6.1l-1.91-1.27-.4-5-2.26-.59v-2.55l-2.05-5.43c-1.68-3.22-.78-2.37-.64-3.95a16.94 16.94 0 00-.58-6.68l-1.37-.06c-1 8.47 2.16 15.44 5.09 21.32-1.58-1.92-2.52-5.46-3.68-8.25a31.81 31.81 0 01-1.46-4.39c-.5-1.82-1.07-2.91-1.47-4.47a4.61 4.61 0 01-1-3.58c-.89-.86-1.36-3-2.08-4.24a2.86 2.86 0 00-.87-1.12l.68 4.68z" fill="#fbbc54" fill-rule="evenodd"/><path d="M172.21 214.25c-1.17.49-1.25 1.24-2.7 3.24l-5 7.58a38.57 38.57 0 00-2.45 3.61c-1 1.28-2 2.57-2.78 3.72-1.47 2-1.48 2.44-.25 4 7.17-1.89 3.51-.36 7.37.32a5.66 5.66 0 002.93-1.31l6.78-.37 1.8 2.35 3.66-1 10.77-6.39c1.07-1 7.33-11.24 7.73-11.52 2.29-1.65 4.3-.29 6.73-3.73 2.7-3.8 5.91-2.19 8.85-6.65l5.73-.52c2.59-1.26.56-.46 2.64-.32 1.84.13 1.15-.4 2.89-.46s1.67.29 3.31-.41c4.2-1.81 3.94 2.19 7-1.77 1.27-1.63 6-11 7.43-13.94l1.81-3.19c1-1.23 0-.22 1.06-.94l-1.68 7.41c-.92 3.43.4 4.82.84 7.84.42 2.84-.63 5.25.41 8.24.77 2.21 2.23 3.72 3.1 5.84l1.14.1a11.15 11.15 0 00-1-2.59c-4.07-3.36-2-9.09-3.13-13.88-1.61-6.86 1.95-8.14 1.22-13.84l-3.08 1.21c-1.16 3.54-7.81 16.26-10.44 18.56l-2.94-.76c-.64-.1-3.54 2-8.77 1.43 1.83-3.59 4.88-9.55 5.89-13.17-2.41 3.54-1.9 3.94-3.87 8-1.4 2.83-2.6 5.68-5.92 6.17l4.89-10.88c-2.42 1.53-1.89 2.9-3.38 6.16-2 4.39-1.86 4.45-4.32 4.56.52-1.85 3.55-13 4.37-14.65 0-.07.16-.12.19-.28s.13-.18.2-.27c-.1-1.54.37-1.36-.1-2.45l-4.41 13.2c-.92 3.88-4.06 9.27-7.62 9.44l4.89-15.49c-1.89 5.68-6.22 20.34-13.14 21 1.69-3.54 9.6-21.58 10.42-24.8.47-1.88-.09-1.08-.24-1.3-5.49 14.54-9.42 24.28-18.88 37.15-2.17 3-5.88 9.59-9.5 7.26 1.56-2 4.93-6.29 6.23-8.46 3.17-5.25 14.64-23.37 15.08-27.64a8.74 8.74 0 00-1.58 2.61c-5.69 11.16-8.9 16.91-16.07 27.08-1.4 2-5.23 7.5-8.08 7 .32-5.86-.39-2.91 3.05-7.52 13.78-18.46 12-18.85 21.93-38.8 2-4.11 3.23-9.34 4.88-13.54.69-1.73 1.45-3.08.8-4.14l-6.82 18.22c-3.74 9.07-12.7 27.53-19 34.64l-5.89 6.66c-1.11 1.37-.8 2-4 4.6l-3.06-2 4.83-5.66c5.35-6.33 15.87-24 19.05-31.63l6.29-14.14c-5.19 9.73-9.84 20.31-15.54 29.61-3 5-6.14 10.82-10 15.09a65.62 65.62 0 01-6.76 7.16c-1.4 1.23-2.45.72-3.7.06 2-2.78 5.54-6.7 6.18-7.65a303.83 303.83 0 0030.6-57.39c.82-2 .75-3.61 2.82-3.81l-1.2 7.95.78-.43-.8-8.46c-3 5.62-2.21 4.21-4.57 9.76-7.42 17.49-9.7 21.6-19.23 37.75-2.76 4.67-12.77 22.84-19.75 22.78a24.52 24.52 0 013.31-5.76c3.68-5 6.5-10.18 9.74-15.45zM352.08 217.07c-.5.55-.2.55-.54 1.2l1.26-.28 4.06-9.93-.34-3.36 1.67-.92c-.53-5.6 1.24-6.28.92-10.42l.13-10.12a78.35 78.35 0 005.06 9.6c3.76 6.14 3.11 5 11.66 5.57 2.45 3.75 3.12.84 6.47 2.21 2.3.93 2.37-.5 3.53-.09l4.29 1.09c1.52 5.34 9.67 6.88 11.8 9 .63.64 1.94 5.05 4.89 8.58.53.62 1.28 1.86 1.93 2.69a21.55 21.55 0 004.43 4.78l6.83.77c2.29 1.18.8 2.87 7.11-.29 2.56 2.24 3.31 2.31 6.22.61 3 1.4 2.75.87 5-1.19l5 .69c2-2.47-1-5.85-3.32-8.71a81.78 81.78 0 01-6.21-8.1c-.12 0-.32 0-.33.19s-.13.18-.21.26l5.34 7.39c1.41 1.78 4.76 6 4.2 8l-6.84-1.88 1 2.72-5.82-2c.59 1.28.88 1.49.6 2.26l-5.27-2.75c-3.74-2.91-17.83-26-20.74-30.35-.86-1.28-2.3-4.14-3.51-4.63 2.79 4.88 19.29 31.24 22.39 34.33 1.13 1.13 1.2.71 1.28 2.51l-5.66-.2-3.54-4.41a101.36 101.36 0 01-9.91-14.81c-1.79-3.08-7.73-14.86-8.48-15.43l-4.9-8.32c.2.93 10.36 20 11.7 22.5a118.71 118.71 0 006.56 10.61l7.09 10.44c-4.51 1.11-7.13-2.82-8.83-5.32-4-5.89-2.09-2.35-6-9.45-3.08-5.55-3.29-7.4-7.81-14.81-1.83-3-.44-1.36-3.19-5l8.33 17.25c-3.85.59-2.81-2.09-5.73-3.72-3.28-1.84-2.76-1.72-4.91-5.14-4.87-.45-4.84-1.69-8.58-6.89l2.63 5.27c-.4.38.87.76-1.3.68-1 0-1.54-.93-3.35-2.28l-.41 1.78-6.48-6.19 1.6 4.15-6.52-4.21 1.72 4c-3.72-.71-4-3.63-6.95-8.45-2.52-4.06-2.17-4.37-5.75-9.68-.59 2.11.11 9.31.45 12 .54 4.38-.3 7.3-.73 11.91l-1.66.14c-.11 1.74.54 2.54-.05 4-.34.85-.41-.44-.63 1.47-.16 1.42.56 5.16-2.65 8.58z" fill="#2b220a" fill-rule="evenodd"/><path d="M329 63.74c-.53 1.27-.28 2.67-1.66 2.72-.46 1.57-.79 3.12-.79 3.12l-4.67 1.19s-2.06-1-1.2-4.32l.4-1c-1-.47-1.2 2.54-1.2 2.54l-.63.42-.22 1.37a12.32 12.32 0 01-1.82 1.3c-.79.05-1.83-4.85-2.21-1.94l.76 5.38c1 2.15 2.13 3.61 1.77 6.72.46 1.89.52 3.16 1.15 5.14.47 1.47 1.37 3.53 1.6 4.72a4.29 4.29 0 003 1.26l1.18-.55a10.83 10.83 0 002.79-5.17l.45-1.25c1.86-1.28 1.73-2.87 1.9-5.53A34 34 0 01334.19 62c-1.69 1.44-1.54 1.85-2.91 3.66l-1.46 3.16c-.4-3.91 1.05-7.16 1.74-10.65a14.56 14.56 0 00-2.56 5.57z" fill="#e9961a" fill-rule="evenodd"/><path d="M313.19 249.51l.67 4.39a19.06 19.06 0 01-2.19 7.81c4-.62 9.41-5.33 12.42-8 .67-.59-.21-.8 1.75-.27 1.43 3-14.27 9.7-15.75 10.39.33.16-.32 1.11 1.94 0l11.91-3.25c-.31.4-.06.39-.92 1-.71.49 0 .11-.94.38 2.17-.3 6.56-4.4 8.12-5.82l1.79-1c.32-1.63.83-1.83 2.16-3.15.24.37 1.48-.52-.4 2.68a14.73 14.73 0 00-1.21 2.46l1.13-2.05c1 .71 0-.4.89.71-.79-2.59.24-1.35.16-3.7-1-.58-.59-.41-1.81-.25l-.49-2.74-.48-1.65c-.55-.83-.13-.13-.54-1.46s.32-.41-.67-1.2l-.67 3.05c0-.06-.15.22-.23.33v-4.41c-1.3 2.33-.51 1.42-1.1 2.63l-.8-3.42c-.63 1.44-.36 2.2-.32 4.15 0 .54.08 1.63 0 2.12a3 3 0 01-.68 1.87v-8.45l-.72 3.41c-1.21-2.35-.49-1.23-.91-1l-.75 4.27c-.52-1.06-.2-1-.18-2.47l-2.06 7.26.4-3.81c.13-2.13.1-.34-.27-1l-1.09 2.8c-.36-2.61.32-2.35-3.35-4.41l-1.4 8.67c-.5-2.41 1.82-6.56.38-10.57l-.63 3.14c-.57 3.53-.58 2.4-1.1 3l.79-8.83-1.2 4.61-.94-.38a2.73 2.73 0 00-.74 2.24z" fill="#592101" fill-rule="evenodd"/><path d="M335.49 197.88c-.39.79.64 1.76-1.51 0-.37.81.9-.4-.38.37-.08.05-.45.16-.55.22-1 .64-.79 0-1.1 1.2 1.24-.48 1.11-.82 2.21-.8 2.84.05 5.51 6.37 5.8 10 .25 3.23-.89 3.27-1.3 5.48-.37 2 2.4 10.81 9.29 8.83 4.44-1.27 2.95-.08 5.35-1.31-2.61-1-1.51.86-8.94-1.68 1.47-3.12 6.68-.61 8.87-2.16l-.43-.09-1.26.28c.34-.65 0-.65.54-1.2-.53-.29-.58-3.39-.85-4.34l-4.14-12.3c-.22.32-.94-.82-.22 1.9l1.42 4.13c.39 1.19.34.79 0 2.14-.42-1.46-1-3.14-1.61-4.72-1-2.45-.83-3.14-2.09-4.6-.43 1.17.31 3 .77 4.22.25.7.56 1.44.79 2.16.38 1.17.34.66.05 2.12a34.42 34.42 0 00-4.49-11l4 15.68-3.48-7.68c-.88-1-1.72-3.22-2.32-4.54-.48-1.08-.12-.66-1.14-1.43l3.87 13.17c-.85-1.17-.82-2.18-1.35-3.88a23 23 0 00-5.77-10.18z" fill="#a5a5a9" fill-rule="evenodd"/><path d="M324.44 91.8l-1.18.55c.37 8 .25 15 1.06 23.12 1.4 13.95 4.35 30.34 5.39 43.4.33 4.08 1.26 7 .67 11.41-.62 4.58-2.18 5.25-4.58 7.07l.37.32c4-.43 5.37-6.46 5.25-11.17s-2-11.37-1.61-15.55c.37-3.7 4.58-22.75 5.67-27.61 2.91-13 8-43.42 14.11-52.14-5.3 3.11-10.39 26.42-12.07 34.49-2.65 12.65-5.72 25.37-8.21 37.92-.89-1.64-.65-1.31-.91-3.31-1.73-13.51-5.13-36.94-4-48.5z" fill="#2b220a" fill-rule="evenodd"/><path d="M325.19 269.88l-.25.22-.53.4c-3.4 2.13-9.9 3.37-13.63 3.49-.07.07-.16.1-.19.22-.11.37-1.93.94-2.38 1.11l11.05-.61c-1.35 1.05-3.31 1.27-5.23 1.6-2.47.42-2.9 1.28-5.22 2-.39-.58-6.39 2.33-6.9 3l-.89.82c-2.59 1-11.43-.28-16-3.21-.86-.54-1.4-1-2.21-1.56-1.6-1.17-1.17-.59-2.15-2.12 3.84 2.92 1.73 2.1 9 .69 2.39-1.43.84.1 3.27-2.49l-13 1.64c-1.2-1.35-.74-.87-2.37-.49l.11 1.08a5.21 5.21 0 011.89 1.13l3.44 2.76c1.32.93 1.13.17 2 1.5 2.53.25 12.82 4.51 19.25 1.72 1.22-.53 2.17-1.34 3.49-2 2.41-1.12 10.83-5 12.15-5.18.66-.79-1.35-.39.83-.72l-1.42-.61c8.78-3.1 4.11-2.44 7.82-3.77-1.53 2.52-1.86 3.82-4.39 4.59-1-.06.15-.68-3.19 2-.65.52-1 .79-1.64 1.26-1.37 1-1 .89-1.32 1.61-.48 1.14.43-.11-.48.85a8.3 8.3 0 01-.69.55 4 4 0 01-1.78.88c.08.1.24.07.31.22s.23.16.33.18a4.31 4.31 0 003.07-.54 15.83 15.83 0 013.11-1.36c2.6-.76 2.72-1.69 3.33-1.89.9 0 0 .1.15-.62a14.16 14.16 0 012.62-3.73c1.88-1.79 1-2.3 3.33-3.07.19-1.58 1-1.92 1.89-3.43.65-1.06.86-2.14 1.73-3.05.25-1.08 1.76-5.1.73-5.64A83.09 83.09 0 01329 268c-1.34 1.84-.2.25-2.17 1.08-.43.18-1 .5-1.67.78zM357.78 246.58l-.91 1.19c-.83 1-.25.25-1.11.95-2 1.66-1.58 1.62-1.74 2.38 1.32 1.9 1.93.26 4.38-2.24l1.75-1.5-4.49 5c-1.88 1.74.44-.95-4.51.86-3.31 1.2-1.24 1.07-3.36 2.38l3.53-.19c-2.17 2.46-2.71 1.57-5.42 4.7l2-.53c2.55-1.37 5.67-2.59 7.12-4.5 3.34-4.44 1.8-1.4 3.6-4 1.11-1.58.66-.64 2.05-1.72a3.86 3.86 0 00.8-.83l1.21-1.2c-.39 1.64-1 3-1.49 4.66a11.12 11.12 0 01-2 4.3 6.3 6.3 0 01-2.08 3.75c-.71 1.24-1.26 1.89-1.95 3.09a6.77 6.77 0 01-.94 1.59c-.66.81-.49.3-1.12 1.28a4.46 4.46 0 00-1.32 3.27c1.57-.27.13.35 1.54-.71a3.43 3.43 0 001.49-1.69c.85-2.43 1.12-1.19 1.22-1.21.86-.14 1.23-.22 2.25-.47 1.32-.81 2.84-1.49 4.15-2.27 2.13-1.27 3.25-.58 3.24-3.29-.68-.66.83-.61-1-.52-.53.44.36 0-.82.6a10.87 10.87 0 01-1.23.49 7.18 7.18 0 01-2.14.64l-1 .83c-2.81 1.76-.93.08-2.28 1.87l-.78.84 1.48-3.07c.85-1.18.34-.45.85-.77l2.48-5.14c.11-1.72 2-6.85 2.84-8.78a1.37 1.37 0 01-.26-.08l-.15-.08-.37-.26c1.49-1.09.22-.77 2.39-2.22l-1.05 2.78a7.1 7.1 0 013.89-3.15c3.05-2.33 5.72-3 5.42-5.23-4.52 1.28-1.84.47-4.73 2.29l-2.63 2.16 2.26-3c1.13-2.72 2.94-3.5 2.88-6.68-1.79 0-1.59-.43-1.76.85a4.67 4.67 0 01-1.22 2.15l-.45.57.48-7.56c-2.64 1.06-1.53 2-2.05 4.87l-.19 5.33a8.74 8.74 0 00.63-1.07c.06-.1.11-.21.17-.3l.76-.92a12.51 12.51 0 01-1.68 3.33c-.31.44-.68.93-.89 1.2-.78 1-.49.67-1.61 1.41l1.34-5c-2 2.55 0 1.1-3.4 4.15-1.95 1.77-2.16 3.25-4.11 4.34z" fill="#fbbc54" fill-rule="evenodd"/><path d="M311.67 261.71c-2.9 1.87-13.05 3.66-16 3.71a20 20 0 01-3.18-.17c-.69-.2-.77-.53-1.71-.84-2.17.9-.41 1.08-3.54.72-1.1 1.29-.39-.18-.89 1.57h4.3c5.88 0 15.78-2 16.65-1.79a21.46 21.46 0 004.57 1.6c3.34.38 3.92.67 7.18-.69l5.7-2.53c-2.1 2.11-5.2 3.06-7.41 4.21a34.58 34.58 0 01-4 1.85c-1.65.62-2.44 1.23-3.94 1.73l-16.23 3.32c2.84 2.35 10.21 1.69 13.4 1.13l4.26-1.54.74-1c1.32-1.5 5.59-3.54 7.41-4.31a15 15 0 006-4c1.45-1.54.83-1.12 2-1.43.9.42.61.41.33-.53l-1-.42 3.85-4.81c0-.11.11-.12.17-.18l-.09-1.16c-1.56 1.42-6 5.52-8.12 5.82-1.6.1-1.34.15-2.68.91a15.88 15.88 0 01-1.84 1 9.31 9.31 0 01-5.53 0c-2.26 1.13-1.61.18-1.94 0 1.48-.69 17.18-7.37 15.75-10.39-2-.53-1.08-.32-1.75.27-3 2.66-8.45 7.37-12.42 8z" fill="#f4b653" fill-rule="evenodd"/><path d="M301.27 82.54l-3.47-1c-.59 5.37-.46 5.76 1.36 10.58 3 8 9.09 17.55 13.49 25.1-.44-6.25-2.82-14.09-4.66-19.7-2.66-8.11-2.36-6.43-4.09-14.36-.63-2.92 0-2-2.37-3.87l-.26 3.24z" fill="#f99d31" fill-rule="evenodd"/><path d="M236.8 228.11c1 3.78.44 2 .13 2.61-1.2-2.05-1.22-2.66-2.64-3.57l-1.38 1.48 2-.52.65 1.38c-.84.56-.79-.46-2.26 1.24l-.52-1-2.61.54.37 4.7a3.88 3.88 0 01-.46.68 11.4 11.4 0 00-.67 1l1.16-.87.29 2.57c-1.57 1.07-2.27 1.29-3.09 2.5l1.74.25c0-1.48-.68-.92 1.17-1.87a6.26 6.26 0 01.66 2.62l1.3 8.23c-1.63-2.34-1-2.2-2.12-3.3l.55 1.81c0 1.64.27.65-.56 1 .09.08.22.09.28.26.3.93 1.39-.11 2.38 1.89.5 1 1 2.13 1.46 3.16 1.62 3.33.62-.34 3.24 6.57l-1.36-.91c.68 1.83.92 1.18 1.93 2.37s0 .81 2.11 2.47l-4.77-15.84c1.76 3.36 1.47 8.08 2.5 9.64.07.1.31.39.39.48.55.55.28.23.86.59l-1.45-4.27 1.35 1.12c-.49-2-1.78-3.22-2.42-5.54-.44-1.59-1.56-5.4-.53-6.71.06-.88.32-.75-.43-.69-1 2.37-.83 5.8-.91 8.49l-.68-7.2c.07-1.48 1-5.37 2.1-6.17l.1 2.76c.58-.71-.07.68.72-.9l-.68-4.68a2.86 2.86 0 01.87 1.12c.72 1.23 1.19 3.38 2.08 4.24l-.18-2.87-.21 1.22c-.6-2-1-2.28-1.24-4.42-.16-1.49 0-3.87-.17-4.18l-.1-2.58c1.33.65 1 .53 1.24 2.29l.79-.62c-.5-.57-.17.57-.63-1.36a9.37 9.37 0 00-.39-1.6c1.51.65 1.63 1 2.12 2.47h.71c-.29-.74-.51-1.32-.76-2-.39-1.14.08-.11-.33-1a3.41 3.41 0 00-.68-.95l.15 1.37c-2.4 0-1.14-.08-2.21.91l-1-.42z" fill="#a15e1a" fill-rule="evenodd"/><path d="M278.22 242.89l-.14 2.31-.78.23-.79-1.26c-.37 3.58-.23 2.89-1.19 3.37-1-.49-.43-.2-.59-.94-.83.77-.35-.76-.67 1.33l-.1 2.94c-.17.74-.22.53-.45.88l.19.14c-.34 2-.21 1.72-1.3 2.93-1.57-.25-.63.26-1.43-.61-.28 2.25-1.06 4.25-.74 6.77.26 2 1.28 4.92.58 6.33l3.27 2.06c-2.33-1.69-2.72-1.24-2.92-5.18l2.36 2c1.76.46.49-.5.16-1.89a9.16 9.16 0 01-.39-2.62l-1.67-2.52 2.37-.42-3.41-.94a5.25 5.25 0 01.27-1.63c.65-1.94 0-.25.71-1.13l3.76 1.48.68 2.25-.44-1.81c3.06 0 2.31.7 3.84 2.63-.24-1.53-.18-.29.51-.71a14.14 14.14 0 013.63 2.14l.52-.74a18.44 18.44 0 01-1.32-7.28 7.49 7.49 0 01.15-1.25 1.87 1.87 0 01.5-1 4.61 4.61 0 01.55-3.15l-.45-2.29c-.09 2.41.07 2.15-.55 3.14-.12-6 .47-4.85-1.33-7.9-1.83 4.73-.16 5.6-1 9.35l-.41-7.9-2 .92z" fill="#5d2401" fill-rule="evenodd"/><path d="M243.57 240.8v.48a16.77 16.77 0 01.59 6.68c-.14 1.58-1 .73.64 3.95l.28.06-.5-2.88c1 .25 2.53 2 3.66 3a6.84 6.84 0 01.61.65l.71.72-.3-1.53c2.79 0 2.2 1.17 4.56 2.55l4.71 2.39-3.42-.18c.32 1.17.13.58.81 1.51l.82 1.23a5.73 5.73 0 01-1.84-.65c.35 1.34-.12.66-1.7.45l11.22 2.5c.13-1.92-1.84-3.7-2.56-5.69s-1.9-4.1-2-6.4c-.39.41-.16-.16-.49.84 0 .12-.12.61-.15.73l-.22.79-7.09-1.58c-.63-1.51-.19-4.43-.1-6.66l-1.45-.47c1.21-3 .8-2.58-.16-2.88l-.75-.76-2.63 6.41c-.27-2.3.2-2.3-.51-4.65a12.91 12.91 0 01-.15-4.85h-.5v3.37c-1.31.12-1 .26-2.05.83z" fill="#a15e1a" fill-rule="evenodd"/><path d="M336.38 253.16l-.83 3.23c-.34-.27-.62-.05-1-.61.39 1.1.23.28.24 1.4-1.25.27-1.27.39-2.26-.06a2.53 2.53 0 00-.58.81c-.25.44-.34.75-.56 1.14-.5.88-.81 1.19-1.3 2.18 2-.11 3.1-.47 4.07-1.78 1 .54-.48 4.57-.73 5.64h.14c.8-.87.81-1.4 1.06-2.79a24.53 24.53 0 01.61-3.16 20.61 20.61 0 012.24-5.73c1 2-1.43 8.92-1.58 11.66 1.15 1.21 3.12.74 4.52 1.44 5-2.17 4.39-1.37 11.26-4.77l-1 1.66 2.9-2.05-2.14 2.84c2.57-.33 3-1.08 5.14-2.8-.39-.82.12-.29-.64-1.26-3.08.43-6 1.53-9.24 1.87s-6.48.52-9.79.82l.43-1.84 6.37-.84.15-.42-2 .17c.86-1 4.32-4.44 4.28-5.75l-4.1.58c.9.61-.06.55 2.93.31-2.94 2.15-2.19 2-7 2.54l.61-3.08a3 3 0 00-1.1-1.89c-.17.1-.94.48-1.06.57z" fill="#a35c0a" fill-rule="evenodd"/><path d="M244.21 229.56c-1.45-.4-.34.74-1.32-.86.42 1.93.64 2.12-1 2.75l-.34-1.29h-.71l-1.1.49-.79.62.48 7.67.18 2.87a4.61 4.61 0 001 3.58c.4 1.56 1 2.65 1.47 4.47a31.81 31.81 0 001.46 4.39c1.16 2.79 2.1 6.33 3.68 8.25-2.93-5.87-6.1-12.85-5.09-21.32l1.36.06v-.48a12.7 12.7 0 00.74-3.12c.23-1.76-.12-1.67 1-2.44.35.51.49-.55.4 1.36h.5l.94-3.15c-.19-1.25.15-.57-.4-1.45-.72-.33-.18 0-.53-.43l.71-1.81 1-.31v-.94c-1.13 1-.89 1-1.57 2.27l-2.67-.17.58-1.05z" fill="#642b01" fill-rule="evenodd"/><path d="M288.78 260.31l-.95-.74c-.15.06-.31.15-.43.21-1.41.69-.78 1-3.34.47l-.52.74.22.79h-2.29l-1.53.78c-3.42-2.85-1.95-1.86-3.05-3.18l-.89-.65h-2a19.79 19.79 0 002.63 4.31l1.23 1.27c-.05-1.43-.11-.32.46-.68l.86.42 12.4-1.89c-1 .72-1.42.42-2.48 1 .58-.09 2.3-.48 2.42-.13l1.69 1c.3.15 1.1.43 1.17.47s.52.29.64.37l.64.61c3-.05 13.12-1.84 16-3.71l-1.39.22c-3.13.68-2 1.11-5.17-.3-1.61-.72-3-1.89-4.56-1l-1.09 1.52-1.39-.7a14.13 14.13 0 01-3.88-1.42 18.94 18.94 0 00-3.48-1.56l1.17.95c3.52 2 7.57 3.06 11.37 4.3-5.41 1.91-7.82-1.54-11.18-2.42-2.25-.58.18.2-1.8.19s-1-.27-1.49-1.16z" fill="#a15e1a" fill-rule="evenodd"/><path d="M264.41 261.75c-.48 1.62.4.94.83 1s.1-.54.91.68a3.12 3.12 0 01.49 1.69c-3.63 1.33-10.09-.47-12.06-2a24.34 24.34 0 01-3.24-1.78 2.63 2.63 0 001.21 2.49c2 1 6.54 3 8.93 3.4 2.41.17 3.41-.39 5.5-.5a3.24 3.24 0 012.35.65c1.94 1.26 1.18.66 1 1.34l7 3.2c-.66-1-.18-.43-1-1-1.09-.75-.35 0-1.57-1.35 3.09 1.18.75 1.46 3.82.83-1.8-1.53-3.75-2.29-5-4.26l-2.36-2c.2 3.94.59 3.49 2.92 5.18l-3.27-2.06c-1.54-.62-2-1.42-2.68-3.05a39.4 39.4 0 01-4.2-8.19c-1.61-1 .44 1.45-.81-.59-.44-.72-.23-.32 0-1-1.24-1.53-1.4-3.09-2-5l-1.28.19c.06 2.3 1.2 4.3 2 6.4s2.69 3.77 2.56 5.69z" fill="#fbbc54" fill-rule="evenodd"/><path d="M325.26 59.74l-.58 1.67-1.17-3.41L322 70.34c-.55-.94-.34-.63-.54-1.77-.29-1.56-.08-1.13-.72-2.12-.86 3.29-.22 4.18 1.35 5.45l.61-1.12 1.44.42v5c1.17 1 .73.37 1.49 1.59l.07-7.79c1.05.84.58-1.27 1.07 2.45l.92 3.58a28.13 28.13 0 00-.25-4.4 12.12 12.12 0 01-.08-5.15c.6-2.15 0-4.95.19-7.34a40.79 40.79 0 011.07-5.82 21.68 21.68 0 00-2.59 7l-.49-1.71-.28 1.18z" fill="#f1b013" fill-rule="evenodd"/><path d="M390.9 159.67c1.54 1.27.7 1.39 3.89 4.38 3 1.38 1-.91 5.25 6.27 1.5 2.52 3.26 4.81 4.81 7.34l8.79 15.07c1.54 2.53 2.87 4.66 4.61 7.12 1.58 2.21 3.44 4.56 5.13 7a112.81 112.81 0 0010.79 12.82 91.23 91.23 0 00-5.5-7.65 152 152 0 01-11.57-15.21c-5.16-8-9.76-17.15-15.39-25.67a173.57 173.57 0 01-10-17.23c.15 2.84 2.6 6.43 3.83 8.6.43.82.51-1 .33 1l-.76-.47c-1.83-.65-2.57-2.73-3.75-4.59-.87-1.36-2.07-4.12-3.44-5.16.62 2.33 2.51 4.5 3 6.37z" fill="#531a01" fill-rule="evenodd"/><path d="M363 231.12c-.23.87.33.44-.49.88l1.19.13v7.8c-1.06-2.71-.44-3.23-.93-5.33l-.3-.56c-.39 1.83-1.08 2-1.74 3.28a39.56 39.56 0 00-1.18 3.84l-1-2-.05.41c.51 3.32.46 4.16-.68 7 2-1.09 2.16-2.57 4.11-4.34 3.37-3.05 1.38-1.6 3.4-4.15l-1.34 5c1.12-.74.83-.42 1.61-1.41.21-.27.58-.76.89-1.2a12.51 12.51 0 001.68-3.33l-.76.92c-.06.09-.11.2-.17.3a8.74 8.74 0 01-.63 1.07l.19-5.33c.52-2.9-.59-3.81 2.05-4.87l-.48 7.56.45-.57a4.67 4.67 0 001.22-2.15c-1.25-.75-.59.35-.95-1.25 0-.05.07-1.71.07-1.72a5.35 5.35 0 01.55-2.84c-1.89.86-5.05 2.75-6.71 2.81z" fill="#975618" fill-rule="evenodd"/><path d="M284.94 281.13l2 1.48-11.76.95 2.68.46c2.31 0 13-2 16.83.37l-8.55.23 10.6 1.72c2.26-1.94 6.95-.47 8.95-2.74-.81-.38-.36-.19-.84-.77 9-2.3 8.41-1.21 13.77-6l1.09-.9c0-.1.11-.11.16-.17-1.32.15-9.74 4.06-12.15 5.18-1.32.61-2.27 1.42-3.49 2-6.43 2.79-16.72-1.47-19.25-1.72z" fill="#995507" fill-rule="evenodd"/><path d="M284.2 266.23c-.61.95-.1.42-.9 1a57.09 57.09 0 01-2.64 2.82c0 .85.11.46-1.05.09-.79-.48-.59-.49-.29.34-.36 1.09.75.36-2.42 2.21-4.39 2.56-5.87 2.15-12 3.14 2.53 1.45 3.14 1.15 6.27 1.1l4-.94 2.41-1.3 4.52-4 .82 1.36 2.86-.79 1.68-.29c.52-.49 0-.14.19-1 .21-.62-.17-.18.34-.8s-.22 0 .73-.58a3.9 3.9 0 011.45-.59c-.5-.56 1.2-1.12-1.78-.7l-4.5 1.88 3.39-4.21v-1.18c-1.36-.36-1.66.36-2.51 1.66-.33.5-.33.63-.37.55s-.13.19-.19.29z" fill="#fbbc54" fill-rule="evenodd"/><path d="M277.54 274.66c1.63-.38 1.17-.86 2.37.49l13-1.64c-2.43 2.59-.88 1.06-3.27 2.49 3.5-.59 3.1 1.42 6.24 2.1 2.5-.05 6.8.83 10.48-1.55 1.65-1.07.79-.28.19-1-3.19.56-10.56 1.22-13.4-1.13l16.23-3.32a50.49 50.49 0 01-11.93 2.48c-3.12.24-9.64-.51-11.68-2.34l-2.86.79-.82-1.36z" fill="#642b01" fill-rule="evenodd"/><path d="M287.54 168.21c-2.53-.12-3.28 1.07-6.13.14-8.93-2.93-11.77-25.3-17.3-31.22 2.59 7.36 5 14.47 7.64 21.62 1.06 2.88 3.76 7.84 5.49 9.17 3.45 2.64 6.88 3.45 10.3.29z" fill="#291d05" fill-rule="evenodd"/><path d="M346.13 254.13c0 1.31-3.42 4.73-4.28 5.75l2-.17a16.54 16.54 0 004-4.08c.41-.72.68-1.24 1-1.77.58-.93.09-.33.52-.74.63-.6.1-.18.82-.36.83-.41.05.22.8-.52l3-4.17c1.14-1.89 2.68-3.58 2.61-5.58l-2.28-.84c-1.18 1.48-4.26 7.59-6.14 9.48a6.5 6.5 0 00-2 3z" fill="#f4b653" fill-rule="evenodd"/><path d="M347.09 268.83c-.81.37-9.89 3.2-9.93 3.21-1.63 0-4.09 2-5.35 2.78-1.24 0-.05-.15-.37.82l-1.55 1.57c2.41-.62 5.13-2.14 7.46-2.16 1.65-1.91 8.22-2.34 10.9-3.59 1.35-.15 1.35-.76 2.43-1.67A2 2 0 00351 268l-3.88.87z" fill="#fbbc54" fill-rule="evenodd"/><path d="M261.48 267.28c.52.73-.55.34.45.56h-6.88l3.55 4.51c2.37 3 3.3 2.28 4.2 3.44l.79-.68c1-.4 0-.34 2.57-.27l2.12.16-6.5-2.54-4.26-2.57 5.73.35c2-1.42 4.9-1 7.33-.7l-.27-.76c.2-.68 1-.08-1-1.34a3.24 3.24 0 00-2.35-.65c-2.09.11-3.09.67-5.5.51z" fill="#a35c0a" fill-rule="evenodd"/><path d="M390.9 159.67l-2.51.44c-2.85-2.63-14.16-30.52-14.19-30.56l-.37-1.19c-.35.48-.78-.32-.08 1.6.24.66.65 1.44.9 2.1 3.05 8.07 4.8 11.48 8.22 19 1.4 3.07 2.82 6 2.62 7.4l-.27.65-2.35.2c-2.43-2.24-3.37-7.88-5.17-11.46l-5.48-11 7.07 18c-2.61.13-2.53-.56-4.31-4.59l-2.79-6.07a.65.65 0 00-.16.31l-.9 1.45c-2.78-2.6-5.1-11.76-6.1-15.88-.73 1.35-.17 2.57.48 4.52a121.07 121.07 0 005.13 12.41l2.32.07c.63 1.83 1.64 3.69 2.41 5.66.88 1.08 12.5 7.24 14.83 8.42l.7-1.48z" fill="#5d2401" fill-rule="evenodd"/><path d="M273.52 266.16c1.27 2 3.22 2.73 5 4.26-3.07.63-.73.35-3.82-.83 1.22 1.35.48.6 1.57 1.35.87.59.39 0 1 1l-7-3.2.27.76 2 .94c-3.65 1.86-5.7.05-9.31-.24a6.8 6.8 0 003 1.1c6.28 1.32 6.19-1.4 9.15 1 .07.06.21.35.26.27s.18.19.27.29L269 274c-2.49-.31-5-1.67-7.21-1.58l6.5 2.54-2.12-.16c-2.56-.07-1.61-.13-2.57.27l-.79.68c2.43.65 4.22 1.39 7 2l1.35-.89c-3.13.05-3.74.35-6.27-1.1 6.18-1 7.66-.58 12-3.14 3.17-1.85 2.06-1.12 2.42-2.21-2.34-2.42-3.48-7.29-6-8.8a9.16 9.16 0 00.39 2.62c.33 1.39 1.6 2.35-.16 1.89z" fill="#995507" fill-rule="evenodd"/><path d="M340.43 266.5l-5.39 3c-.33 1.44-.57 1.36 0 2.36l12.1-5.76a15.53 15.53 0 003.34-2.55 38.09 38.09 0 00-3.36 4.52c2.55-.07 1.63-.32 3.09-1.4.31-1.85.28-.93 1.19-2.45l2.14-2.84-2.9 2.05 1-1.66c-6.82 3.36-6.25 2.56-11.21 4.73z" fill="#fdbe56" fill-rule="evenodd"/><path d="M351.83 229.14c2 1.26 2.55 2.39 4.22 4.32a10.6 10.6 0 012.41 6.15l.05-.41a19 19 0 011.86-5.19h2.07v-2c.82-.44.26 0 .49-.88-.82-.77-1.16-1-1.77-1.59l-1.57.41a22.88 22.88 0 01-2.3-.84l-4.05-.63h-.18l-.67-.07c-.55.8.4.08-.59.77z" fill="#591e01" fill-rule="evenodd"/><path d="M311.85 266.51c-1.19-.19-.21-.14-.65.59l5.2.14a17.6 17.6 0 01-8.11 2.66c-2.57.26-6.88.13-9.19-.71-.87.81-.43 1-2.93.49-.79-.16-1.6-.3-2.36-.48-1.3-.32-2.6-1-3.69-1.26a3.9 3.9 0 00-1.45.59c-.95.59-.33.09-.73.58s-.13.18-.34.8c2.22-.33 5.18 2.31 10.68 1.57 4.1-.55 7.47-1 11.69-1.2-1.43.56 0 0-.63.8 1.5-.5 2.29-1.11 3.94-1.73a34.58 34.58 0 004-1.85c2.21-1.15 5.31-2.1 7.41-4.21l-5.7 2.53c-3.26 1.36-3.84 1.07-7.18.69z" fill="#a35c0a" fill-rule="evenodd"/><path d="M285.73 271.22c2 1.83 8.56 2.58 11.68 2.34a50.49 50.49 0 0011.93-2.48c.63-.85-.8-.24.63-.8-4.22.21-7.59.65-11.69 1.2-5.5.74-8.46-1.9-10.68-1.57-.14.88.33.53-.19 1l-1.68.29z" fill="#f3c283" fill-rule="evenodd"/><path d="M310.78 274c3.73-.12 10.23-1.36 13.63-3.49l.53-.4.25-.22a6.14 6.14 0 00.63-1.9c-2.23.89-2.38.71-4.8.47l5.89-5.23c-1.2.31-.58-.11-2 1.43a15 15 0 01-6 4c-1.82.77-6.09 2.81-7.41 4.31l-.73 1zM337.35 275.05c-.69.18-11.1 6.11-12.67 5.21a8.64 8.64 0 00-2.69 2l13.16-3.34c-1.42 2.38-1.67.12-2.56 2.88 1.61-.72 2.57-.94 3.62-2.24l-.76.13c4.67-4.17 4.72-5.87 10.88-7l-.42.6c0-.09-.11.27-.2.37a6.64 6.64 0 002.54-2.2c-2.68 1.25-9.25 1.68-10.9 3.59z" fill="#a35c0a" fill-rule="evenodd"/><path d="M299.1 269.19c2.31.84 6.62 1 9.19.71a17.6 17.6 0 008.11-2.66l-5.2-.14c-6.87 2.18-8.77-.4-18-.32a9.56 9.56 0 005.9 2.41z" fill="#fdbe56" fill-rule="evenodd"/><path d="M290.63 266.7l.07.56c.05 1 .35.91-.58.68 1.09.3 2.39.94 3.69 1.26.76.18 1.57.32 2.36.48 2.5.49 2.06.32 2.93-.49a9.56 9.56 0 01-5.91-2.41c9.24-.08 11.14 2.5 18 .32.44-.73-.54-.78.65-.59a21.46 21.46 0 01-4.57-1.6c-.87-.25-10.77 1.78-16.65 1.79z" fill="#5d2401" fill-rule="evenodd"/><path d="M321.18 186.44c.83 1 8.13 15.39 8.53 16.82v1.25a5.12 5.12 0 001.37-2.15 22.65 22.65 0 00.87-2.65l-.24-1c-1.84 1.44.17.58-1.91.92-.8-1.71-1.95-3.53-2.16-4.67l-5-9.73c-.87-1.72.19-1-1.41-1.27l-1.75.19c.54 1.22.8.95 1.7 2.29z" fill="#e59b4e" fill-rule="evenodd"/><path d="M335.05 271.82a14.68 14.68 0 01-3.12 1.62 67.23 67.23 0 00-8.06 4.95c-.1.72.75.62-.15.62-.61.2-.73 1.13-3.33 1.89a34.56 34.56 0 00-3.11 2.3c-.06.37.25.68-.24 1.26l-1.46.19c-.61.4-.45.14-.79.46-1.31 1.24-.2-.1-1 1.35 2.75-.18 3.09-.29 4.81-1.57l.71-1.12c.48-.61.06-.21.58-.64a5.44 5.44 0 012.08-.9 8.64 8.64 0 012.69-2 11.09 11.09 0 011.6-1.18c.74-.5.92-.75 1.67-1.26 1.19-.8 2.17-1.33 3.49-2.18.32-1-.87-.82.37-.82 1.26-.81 3.72-2.77 5.35-2.78 2.06-1.35-1 1.24.54-.58l-2.65.36z" fill="#f3c283" fill-rule="evenodd"/><path d="M289 84.11c.7-7.73 2.34-22.76 6.47-29.13 3.1-4.78 8.7-6.74 14.62-6.35l-1.42-.42c-5.1-.28-7.73.51-11.18 2.92-2.19 1.53-4.36 5.19-5.41 8.81-1.37 4.75-4.33 19.64-3.08 24.17z" fill="#2b220a" fill-rule="evenodd"/><path d="M306.51 275.53c.6.74 1.46 0-.19 1-3.68 2.38-8 1.5-10.48 1.55 3.22 3.81 9.87.8 13.63-.59-1 .2 0 0-.66.84 2.32-.76 2.75-1.62 5.22-2 1.92-.33 3.88-.55 5.23-1.6l-11.05.61c.45-.17 2.27-.74 2.38-1.11 0-.12.12-.15.18-.22l-4.26 1.54z" fill="#a35c0a" fill-rule="evenodd"/><path d="M322 282.23a5.44 5.44 0 00-2.08.9c-.52.43-.1 0-.58.64l-.71 1.12c-.25.77-.2.35.09.64l1.61-.2c2.1-.54 4.35-.59 6.57-1.4 2.05-.75 3.95-1.4 5.7-2.16.89-2.76 1.14-.5 2.56-2.88L322 282.23z" fill="#fbbc54" fill-rule="evenodd"/><path d="M355 255.11c.81.51.44-.53.27.7a11.66 11.66 0 01-.47 1.19c-.29.71-.48 1.27-.82 2l3.44-.28c-.76 1.53 0 .4-1 1.64l.7-.22a6.3 6.3 0 002.08-3.75 11.12 11.12 0 002-4.3c.49-1.61 1.1-3 1.49-4.66l-1.21 1.2a3.86 3.86 0 01-.8.83c-1.39 1.08-.94.14-2.05 1.72-1.8 2.56-.26-.48-3.6 4z" fill="#a35c0a" fill-rule="evenodd"/><path d="M332 255.13a6.44 6.44 0 01-.61 1.32c-.63.87-.4.44-1.09.83-.24 2.07-2.13 3.88-3.05 5.41.28.94.57.95-.33.53l-5.92 5.23c2.42.24 2.57.42 4.8-.47 1.94-1.68 3.28-4.43 4.28-6.73.49-1 .8-1.3 1.3-2.18.22-.39.31-.7.56-1.14a2.53 2.53 0 01.58-.81 14.73 14.73 0 011.21-2.46c1.88-3.2.64-2.31.4-2.68-1.33 1.32-1.84 1.52-2.16 3.15zM354 259l-6.1.64-2 .53h-2.22l-6.37.84-.43 1.84c3.31-.3 6.55-.48 9.79-.82s6.16-1.44 9.24-1.87l.5.21c1-1.24.27-.11 1-1.64z" fill="#f3c283" fill-rule="evenodd"/><path d="M306.26 203.09l.4.27c.53-.43.18.28 1.09-1.73a49.61 49.61 0 003.35-12.9c.41-3.16.22-3.83 1.77-5 1.12 2.49-3.15 14.91-2.31 20.14h.65c-.48-4.35.75-13.33 2.36-16.7l-1.9 17c.59 1.61.11.59.89 1-.25-5.85 2.05-12.43 1.73-18.55l-.63-3.32c-4.34-.08-1.86 7.29-5.2 14.84-.73 1.63-1.65 3.37-2.2 4.92z" fill="#554b34" fill-rule="evenodd"/><path d="M368.64 247.54a2.43 2.43 0 01-.78.74 2.85 2.85 0 01-.3.16l-1.76.78c-3.08 1.49-2.32.75-3.36 3.33l1.16 1.38-2.33 1.54-.16 1.36c1.72-.42 1.52-.85 3.37-1.31 1-.61 2.53-1.48 2.76-2.93l1.47-3.37c1.2-.08.24.46 1.39-.77a13.21 13.21 0 001-1.3l.27-1-1 .45z" fill="#fbbc54" fill-rule="evenodd"/><path d="M333.58 265.08a15.42 15.42 0 01-1.21 5.12l-.29 2.39 1.81-.63 1.22-3.3.8-3.6c.15-2.74 2.61-9.67 1.58-11.66a20.61 20.61 0 00-2.24 5.73 24.71 24.71 0 00-.61 3.15c-.25 1.4-.26 1.93-1.06 2.8z" fill="#fdbe56" fill-rule="evenodd"/><path d="M261.78 272.44c2.23-.09 4.72 1.27 7.21 1.58l6.92-1.12c-.09-.1-.22-.38-.27-.29s-.19-.21-.26-.27c-3-2.42-2.87.3-9.15-1a6.8 6.8 0 01-3-1.1l-5.74-.35 4.27 2.57z" fill="#fbbc54" fill-rule="evenodd"/><path d="M327.64 195c.21 1.14 1.36 3 2.16 4.67 2.08-.34.07.52 1.91-.92a110.51 110.51 0 00-3-15.82l-1.29-1.5c1.41-.54 1.81.14 2.3 1.19.07 1.92 1.27 5.43 1.89 7.5.52 1.72 2.2 6.44 2.4 7.84 2.15 1.72 1.12.75 1.51 0-2.59-3.73-4.76-12.19-6.08-16.95-1.63-.42-.93-.53-3 .26.59 2.68-.25.38 1.17 1.61 2.14 1.84 2.54 13.21 2.81 15.89-.85-.35-.18.63-1.5-1.71-.5-.93-.92-1.42-1.28-2.06z" fill="#544930" fill-rule="evenodd"/><path d="M246.84 257.34l.84.3c1.84.66 3.11 1.57 5.51 1.61 1.58.21 2.05.89 1.7-.45-1.45-.95-4.2-4.21-5.34-5.32a4.5 4.5 0 01.95 1.63c-2.87-1.07-3.38-2.27-5.43-3.14l-.28-.06 2.05 5.43z" fill="#591e01" fill-rule="evenodd"/><path d="M313.57 282.4a20.54 20.54 0 01-7.92 1.2c-2 2.27-6.69.8-8.95 2.74a39.13 39.13 0 0011.46-.74c4.28-.92 7.47-3.77 9.12-2.4a34.56 34.56 0 013.11-2.3 15.83 15.83 0 00-3.11 1.36 4.32 4.32 0 01-3.08.54c-.09 0-.26 0-.32-.18s-.23-.12-.31-.22z" fill="#5d2401" fill-rule="evenodd"/><path d="M261.68 262.89c1 .1 3.1.74 3.56-.1-.43-.1-1.31.58-.83-1l-11.22-2.5c-2.4 0-3.67-.95-5.51-1.61-.37.62-.26.62-.29 1.64 1.15.79 12.01 2.98 14.29 3.57z" fill="#f3c283" fill-rule="evenodd"/><path d="M241.05 255.42c.68 1.45.54 1.62.55 3.46-1.11-.66-.47-.31-1.19-1-.87-.85-.19-.34-1-.74a6.94 6.94 0 001.85 2.37c.9 1 .15-.46.94 1.23 1.1 2.33.14 1.27-.26 1.56l1 .77a5.72 5.72 0 00.71 2.88c.41 2.06.27.42-.24 1l6.7 4.34c-.57-.81-.09-.28-.76-.94l-.72-.61c-.3-.29-.39-.46-.57-.65-3.66-3.75-3.45-4.68-6.29-13.42 1.53 1.75 1.18 2.82 2.72 4.54l.59.53c-.47-1.14-3.25-7.39-3.8-7.88l-.23 2.6z" fill="#975618" fill-rule="evenodd"/><path d="M324.58 198l2.91 10.09c1-1.64.36-2.11 1.8-3.19.68.26.53.36.42-.37v-1.25h-1.23a68.45 68.45 0 01-3-6.65c-.51-1.18-.93-2.21-1.51-3.51-.73-1.64-.74-2.29-2.05-3.25l2.66 8.11z" fill="#e8932e" fill-rule="evenodd"/><path d="M288.57 259.49c.11.82-.27.39.21.82.5.89-.55 1.16 1.49 1.16s-.45-.77 1.8-.19c3.36.88 5.77 4.33 11.18 2.42-3.8-1.24-7.85-2.31-11.37-4.3l-1.17-.95c-2-.43-.5-.76-2.84-.81l.6 1.5c.02-.07.07.23.1.35z" fill="#f3c283" fill-rule="evenodd"/><path d="M317.19 113.88L313.79 98c-.6-2.18-.8-3.71-1.76-5.17-.36 1.16-1.76-5.27-2.09-5.68L308.32 86c2.95 6.3 4.76 13.85 6.37 20.67.3 1.27.68 2.39 1 3.62.17.66.22 1 .41 1.66a4.11 4.11 0 00.32 1c.47.86.35.49.77.95z" fill="#e8932e" fill-rule="evenodd"/><path d="M366.21 227.39a9.28 9.28 0 01-5 2.14c.61.62.95.82 1.77 1.59 1.66-.06 4.82-2 6.71-2.81l3.4-1.1a3.48 3.48 0 00.74-2.44l-1.27.3-6.33 2.32z" fill="#fdbe56" fill-rule="evenodd"/><path d="M403.61 185.56c3.12 4.24 2.89 5.7 8.58 12.45-.76-2.16-7.33-11.5-9.81-16.2l-9.2-16.42c-.74.29-.43-.58-.66.86 1.73 1.35 4.29 6.87 5.58 9.37 1.87 3.61 3.54 6.55 5.51 9.94z" fill="#591e01" fill-rule="evenodd"/><path d="M282.08 202.64l-.62.57c-1.73 2.27-1.2 2.12-3.54 3.22l.19-2.82-.67 1.8c1 2.13.75.79.65 4.26l1.38-2.47c.24-.31 3-2.83 4.88-5.15 1.19-1.5 1.67-2.34 2.86-3.84l2.26-2.81c1.42-1.44.58-.49.87-.5l2.48-3.5a1.87 1.87 0 01.36-1l-1.31-.06-.23.06c-.22 2.15-1.62 3.48-3.58 5.26-1.05.95-.38.25-1.06 1.45s-3.66 3.76-4.92 5.5z" fill="#e8932e" fill-rule="evenodd"/><path d="M289.6 276l-.53 1 1 .66c1.84.14 1.06.37 2.72.89a13.11 13.11 0 011.64.44c2 .93.63.36 1.1 1.06 2.53 1.17 3.66 2.11 6.42 1.32.51-.7 6.51-3.61 6.9-3 .67-.88-.34-.64.66-.84-3.76 1.39-10.41 4.4-13.63.59-3.18-.7-2.78-2.71-6.28-2.12z" fill="#f3c283" fill-rule="evenodd"/><path d="M361.27 255.47l2.33-1.54-1.16-1.38c1-2.58.28-1.84 3.36-3.33l1.76-.78a2.85 2.85 0 00.3-.16 2.43 2.43 0 00.78-.74c-1.11-.89-.76.77-.39-1.7.11-.73.2-1.42.31-2.16a7.1 7.1 0 00-3.89 3.15l1.05-2.78c-2.17 1.45-.9 1.13-2.39 2.22l.37.26.15.08a1.37 1.37 0 00.26.08c-.89 1.94-2.73 7.06-2.84 8.78zM275.12 276c1.55.81.26.07 1.38 1.08.5.46 0 .21.74.5l-1.08.51c2.65.79 1.09.26 2.83 2 .76.53.35.18.94 1l.54.8.18.3.19.3c1.94-1.09 1.39-1.23 4.1-1.32-.83-1.33-.64-.57-2-1.5l-3.45-2.76a5.09 5.09 0 00-1.88-1.13l-.12-1.08z" fill="#a35c0a" fill-rule="evenodd"/><path d="M330.1 261.25c-1 2.3-2.34 5.05-4.28 6.73a6.14 6.14 0 01-.63 1.9c.65-.28 1.24-.6 1.67-.78 2-.83.83.76 2.17-1.08a83.09 83.09 0 005.14-8.55c-1 1.31-2 1.67-4.07 1.78zM430.88 224.44c-.59-2.1-7-10.73-8.34-12.52l-6.46-9c-1.22-1.78-1.08-1.89-2.57-2.88.43 1.35 3.19 5.31 4 6.49l3.08 4.45c.55.78.84.84 1.39 1.52 2.48 3.05 4.16 5.92 6.38 9.13.87 1.25 1.25 2.28 2.51 2.86z" fill="#591e01" fill-rule="evenodd"/><path d="M295.49 280.06c-.47-.7.88-.13-1.1-1.06a13.11 13.11 0 00-1.64-.44c-1.66-.52-.88-.75-2.72-.89a4.29 4.29 0 00-3-.49c1.42 2.4 1.5 3.35 4.13 4a26.49 26.49 0 006.91.55c-3.05-1.25-3-.83-2.58-1.69z" fill="#f4b653" fill-rule="evenodd"/><path d="M280.84 282.45c-.06-.1-.14-.24-.19-.31l-.18-.29-.54-.8c-.59-.81-.18-.46-.94-1-2.43.74-5.37.31-7.85-.2-2.82-.57-4.21-1.55-6.67-2.08 5.62 2.28 3 1 7.52 3.74a9.17 9.17 0 008.85.93z" fill="#5d2401" fill-rule="evenodd"/><path d="M277.44 205.41c-.65 4.13.73 3.61-.85 8.47.38.63-.29.84.72 0s.5-.65.69-1.22l-.61-.5c1.74-3-.06-.61 2.47-3.32a10.76 10.76 0 001.22-1.7c.74-1 1-.88 1.67-1.67l4.68-6.23c.76-.89.34-.4.93-.82l2-3.52c-.29 0 .55-.94-.87.5l-2.26 2.81c-1.19 1.5-1.67 2.34-2.86 3.84-1.85 2.32-4.64 4.84-4.88 5.15l-1.38 2.47c.1-3.47.32-2.13-.65-4.26z" fill="#492e11" fill-rule="evenodd"/><path d="M343.33 115.66c.91-1.88 1.45-8.1 2.22-10.76l2.89-10.63L350 100c.56-.86-.43-4.48-1-6-.76-2-.33-1.7.81-5.82-1.8.89-6.88 25.21-6.77 26.75.06.77.16.51.28.73z" fill="#7a431a" fill-rule="evenodd"/><path d="M235.68 232.83c-.07 3.83-5 13.72-1.61 19.08-.1-9.65-.07-7 2.23-15.51a17.56 17.56 0 011.55-4.8l-.92-.26z" fill="#fbbc54" fill-rule="evenodd"/><path d="M319.83 275.72c-.05.06-.13.07-.16.17l-1.09.9c-5.36 4.83-4.74 3.74-13.77 6 .48.58 0 .39.84.77a20.54 20.54 0 007.92-1.2l1.46-1.22c.58-.45.8-.58 1.49-1.06.27-.72 0-.59 1.32-1.61.62-.47 1-.74 1.63-1.26 3.35-2.72 2.22-2.1 3.2-2l-.6-.36-2.24.87z" fill="#f9c587" fill-rule="evenodd"/><path d="M335.05 271.82l2.65-.36c-1.49 1.82 1.52-.77-.54.58 0 0 9.12-2.84 9.93-3.21l-.61.11c0-.21.22-.75.27-.57s.27-.22.38-.34a38.09 38.09 0 013.36-4.52 15.53 15.53 0 01-3.34 2.55z" fill="#5d2401" fill-rule="evenodd"/><path d="M301.91 281.38c-2.76.79-3.89-.15-6.42-1.32-.38.86-.47.44 2.58 1.69a26.49 26.49 0 01-6.91-.55c-2.63-.67-2.71-1.62-4.13-4a4.28 4.28 0 013 .49l-1-.66.53-1c-7.26 1.41-5.15 2.23-9-.69 1 1.53.55.95 2.15 2.12.81.6 1.35 1 2.21 1.56 4.62 2.93 13.46 4.2 16 3.21l.89-.82z" fill="#975618" fill-rule="evenodd"/><path d="M332.37 270.2l-2.69 1.27.13.12c-2.29.77-1.45 1.28-3.32 3.07a14.16 14.16 0 00-2.62 3.73 67.23 67.23 0 018.06-4.95 14.68 14.68 0 003.12-1.62c-.58-1-.34-.92 0-2.36l.07-.8-1.22 3.3-1.81.63z" fill="#995507" fill-rule="evenodd"/><path d="M273.29 261.65c2.55 1.5 3.69 6.38 6 8.8-.29-.83-.49-.82.3-.34.26-2.39-1.46-3.45-1.76-5.82l-1.21-1.29a19.79 19.79 0 01-2.63-4.31l-2.37.42z" fill="#f3c283" fill-rule="evenodd"/><path d="M249.55 253.48c1.14 1.11 3.89 4.37 5.34 5.32a5.73 5.73 0 001.84.65l-.82-1.23c-.68-.93-.49-.34-.81-1.51l3.42.18-4.71-2.39c-2.36-1.38-1.77-2.55-4.56-2.55l.3 1.53z" fill="#fbbc54" fill-rule="evenodd"/><path d="M315 69.13c.87-1.34-.1-.71 1.93 2.14-.16.9-.22.27.27 0l.64-.44a11.56 11.56 0 00.21 2.13c.27 1 .61 1.21 1.33 1.94l.09-7.87-.82-2.71.26 5.11c-1.18-2-.23-1.85-1.89-3.21-.62 1.3-.28 2.11-.18 4.37l-2-4.41h-1.16a9 9 0 00.47 1.56c.5 1.16.3.71.85 1.39z" fill="#fcd14b" fill-rule="evenodd"/><path d="M256.89 253.43a12.67 12.67 0 01-5-3l-2.93-1c.25 3.23.46 1.08 2.68 2.59a23.66 23.66 0 002.79 2.19l7.24 3c-1.17-3.35-2.93-1.49-4.81-3.81z" fill="#fdbe56" fill-rule="evenodd"/><path d="M239.43 257.13c.79.4.11-.11 1 .74.72.7.08.35 1.19 1 0-1.84.13-2-.55-3.46a7.27 7.27 0 01-2.47-3.89l-1.23-2.85-.87-3.8c-1 1.31.09 5.12.53 6.71.64 2.32 1.93 3.54 2.42 5.54z" fill="#fbbc54" fill-rule="evenodd"/><path d="M252.61 264.32l-.06-.45a2.63 2.63 0 01-1.21-2.49 24.34 24.34 0 003.24 1.78l-1.84-1.79 8 2.15c.32-.87-.68-.72 1-.63-2.28-.59-13.14-2.78-14.29-3.61 0-1-.08-1 .29-1.64l-.84-.3v2.55l2.26.59.4 5 1.91 1.27c-1.27-3.3-2.76-3.78-1.05-6.1a10.17 10.17 0 01.68 2.87l1.54.79z" fill="#a15e1a" fill-rule="evenodd"/><path d="M278 212.66a9.15 9.15 0 011.42-1.71c1-1.07.19-.52 1.49-1.24 0 0 .43-.53.49-.57.7-.48 0-.07.83-.4.35-2.17.22-.27 2-3.46.42-.74.6-1.08 1.07-1.85.19-.31.22-.42.48-.79l.86-1 1.71-3.23c-.59.42-.17-.07-.93.82l-4.68 6.23c-.66.79-.93.63-1.67 1.67a10.76 10.76 0 01-1.22 1.7c-2.53 2.71-.73.32-2.47 3.32l.61.5z" fill="#f79a2b" fill-rule="evenodd"/><path d="M266.13 256.4c.18 1.44.57 2.68.81 4.16a16.43 16.43 0 001.19 3.7c1.46-.94.05-4.4-.3-5.88a36.7 36.7 0 01-.79-6.68 3 3 0 01-.93-.36l-.88-.55.9 5.61z" fill="#fdbe56" fill-rule="evenodd"/><path d="M321.92 189.88c1.31 1 1.32 1.6 2.05 3.24.58 1.3 1 2.33 1.51 3.51a68.45 68.45 0 003 6.65h1.23c-.4-1.43-7.7-15.8-8.53-16.82l-.28.26 1 3.18z" fill="#291d05" fill-rule="evenodd"/><path d="M281 202.16c.52.71-.4.61 1.05.48 1.26-1.74 4.19-4.21 4.92-5.5s0-.5 1.06-1.45c2-1.77 3.36-3.11 3.58-5.26-2.76 1.1-.84 1.3-2.74 3.2-1.31 1.31-.19-.48-2.67 2.74-2.12 2.75-1.5 1.45-2.71 2.7-.49.5-.65.87-1.13 1.42l-.83.83-.19.26c-.05.07-.13.22-.17.28s-.11.2-.17.3z" fill="#b19b8d" fill-rule="evenodd"/><path d="M214 168.13l.68-3.14-2.21 4.52-2.64-1.21.18 2.13c2.85 1.37 1.38-.87 4.1-1.19l2.85-3.47 4.17-1.23a15 15 0 012.82-6c.76-1.13.58-1.14.44-2.1-3.14 4.29-2.62 6.19-3.76 7.14s-2.77.88-3.73 1.72c-1.77 1.53-.23 2.47-2.9 2.83z" fill="#642b01" fill-rule="evenodd"/><path d="M270.81 267.31c.7-1.41-.32-4.29-.58-6.33-.32-2.52.46-4.52.74-6.77.22-1 .44-.89-.56-.56l-1 .48-.26 7.25c-.18 4.91.3 4.25 1.65 5.93z" fill="#f3c283" fill-rule="evenodd"/><path d="M336.21 279.53c1-.11 8.37-4.93 9.5-5.87.09-.1.17-.46.2-.37l.42-.6c-6.16 1.1-6.21 2.8-10.88 7z" fill="#fdbe56" fill-rule="evenodd"/><path d="M268.13 264.26c.66 1.63 1.14 2.43 2.68 3.05-1.35-1.68-1.83-1-1.65-5.93l.26-7.25 1-.48v-.43l-2.14.82-1-2.13c0-.13-.12-.14-.19-.21a36.7 36.7 0 00.79 6.68c.35 1.48 1.76 4.94.3 5.88z" fill="#975618" fill-rule="evenodd"/><path d="M249.66 225.79l-1.79 2.72v.94l-.23.33c1.54.45.46.45 1.14-.86.19-.37.38-1.07.62-1.54 2 .46.66-.07 1.84.94 1.29-.88 1.79-1.85 3.56-2.63l-.2-1-4.52-.71c.26.93.8 1.72-.42 1.81z" fill="#014279" fill-rule="evenodd"/><path d="M229.4 236.58c-1.43.17-2.9 1.84-4 3l.2 2.83a2.62 2.62 0 002.11-1.6c.82-1.21 1.52-1.43 3.1-2.5l-.3-2.57z" fill="#fbbc54" fill-rule="evenodd"/><path d="M215.23 135.81a2.74 2.74 0 001.14-1.75l2.69-7 2.62-10.61c-1.16 1.09-1.17 2.42-1.83 4.7-.47 1.66-.94 3.55-1.53 5.17-.72 2.01-3.61 8.13-3.09 9.49z" fill="#531a01" fill-rule="evenodd"/><path d="M247.45 225.29c-.44 1.07-2.47 2.82-3.24 4.27l-.58 1.05 2.67.17c.68-1.31.44-1.26 1.57-2.27l1.79-2.72v-1.42c-.76-.17-.14-.3-1 .11-.41.24-.39.36-1.21.81z" fill="#fdbe56" fill-rule="evenodd"/><path d="M327.23 86.63c.41-.39.38-.39.45-1.25a9.28 9.28 0 000-7.26l-1-2.31c-.59 3-.24 7.44-.2 10.75l.71.07z" fill="#f1b013" fill-rule="evenodd"/><path d="M334.19 62a33.94 33.94 0 00-4.61 17.83c1.21-4 1-7.68 4-14.7a23.42 23.42 0 012.12-3.89l.28-.91z" fill="#2b220a" fill-rule="evenodd"/><path d="M328.62 53.3a39.44 39.44 0 00-1.06 5.82c-.21 2.39.4 5.19-.2 7.34 1.38 0 1.13-1.45 1.66-2.72 0-.1-.15-.34-.16-.29l-.28-1.05c-.35-3.68.91-8.63 1.7-12.13a11.47 11.47 0 00-1.66 3z" fill="#352b16" fill-rule="evenodd"/><path d="M261.68 262.89c-1.64-.09-.64-.24-1 .63l1.79 1.21c.06.06.21.35.26.27s.18.19.27.29c-7.37-1.22-5.77-1.53-8.46-2.13 2 1.53 8.43 3.33 12.06 2a3.12 3.12 0 00-.49-1.69c-.81-1.22-.47-.43-.91-.68-.46.84-2.52.2-3.56.1z" fill="#683406" fill-rule="evenodd"/><path d="M331.44 275.64c-1.32.85-2.3 1.38-3.49 2.18-.75.51-.93.76-1.67 1.26a11.09 11.09 0 00-1.6 1.18c1.57.9 12-5 12.67-5.21-2.33 0-5.05 1.54-7.46 2.16l1.55-1.57z" fill="#5d2401" fill-rule="evenodd"/><path d="M229.5 241l1 5.68c1.16 1.1.49 1 2.12 3.3l-1.3-8.23a6.26 6.26 0 00-.66-2.62c-1.85 1-1.16.39-1.17 1.87z" fill="#fdbe56" fill-rule="evenodd"/><path d="M332.42 249.09l.49 2.74c1.22-.16.83-.33 1.81.25.08 2.35-1 1.11-.16 3.7.37.56.65.34 1 .61l.83-3.23c-.89-.61.89-.83-1.12-.45a2.44 2.44 0 001.12-1.56l-1.93-.89c2.14-.39 1.52 0 2.31-.63l-2.86-.73.25 1.12z" fill="#d7d7d8" fill-rule="evenodd"/><path d="M311.21 203.87l.46.3 1.9-17c-1.61 3.37-2.84 12.35-2.36 16.7z" fill="#f79a2b" fill-rule="evenodd"/><path d="M364.61 183.25c.26-.55.36.75.19-.67a8.61 8.61 0 00-.39-1.15l-2.91-6.76a35.27 35.27 0 00-4.51-8.55c.22 1.32 6.87 16.28 7.62 17.13z" fill="#a86518" fill-rule="evenodd"/><path d="M310.28 261.93l1.39-.22a19.06 19.06 0 002.19-7.81c-1.74.75-.47 0-1.14.87l-.75-.18c-.17 1 .32.51-.84 1.07l-.13 2.15 1 1.47-2.38.79c1.85.78.9-.06 1.67.82l-1.28.19z" fill="#d3d3d5" fill-rule="evenodd"/><path d="M243.17 179.94c-1 2.45-3.59 5.83-4.09 8.43 1.85-.87.91-1.9 2.65-3.24.14-1.94 5.31-9.89 6.32-13.49-2 .72-3.13 7.07-4.88 8.3z" fill="#a86518" fill-rule="evenodd"/><path d="M255.05 267.82h6.88c-1-.22.07.17-.45-.56-2.39-.4-6.88-2.38-8.93-3.41l.06.45c.78 1.3 1.75 2.19 2.44 3.5z" fill="#591e01" fill-rule="evenodd"/><path d="M390.67 199.83c-.89-3.63-7.49-15.18-10-19.23.48 1.65 7.07 14.44 8.9 17.85.79 1.47.32.7 1.11 1.38z" fill="#5d2401" fill-rule="evenodd"/><path d="M351.78 202.42c1-2-1.51-5.42-2.28-7.25l-2.7-7.72c-.46.59-1.19-1.11.38 3.73.68 2.1 4 10.25 4.6 11.24z" fill="#a2a1a6" fill-rule="evenodd"/><path d="M274 258.71h2l-.68-2.25-3.76-1.46c-.7.88-.06-.81-.71 1.13a5.25 5.25 0 00-.27 1.63l3.41.94z" fill="#fbbc54" fill-rule="evenodd"/><path d="M342 254.71l-3.49-.23-.61 3.08c4.84-.51 4.09-.4 7-2.55-3 .25-2 .31-2.93-.3z" fill="#f4b653" fill-rule="evenodd"/><path d="M287.27 263.73v1.4c3.13.36 1.37.18 3.54-.72.94.31 1 .64 1.71.84a20 20 0 003.18.17l-.64-.61c-.12-.08-.52-.31-.64-.37s-.87-.32-1.17-.47l-1.69-1c-.12-.35-1.84 0-2.42.13l-1.34-.1z" fill="#561e00" fill-rule="evenodd"/><path d="M229.88 87c1.46-1.32 1.38-3 2.71-4.23l6.61-.49c-.85-1.28-1.2-1.34-3.1-1.28-3.76.08-5.78 1.75-6.22 6z" fill="#531a01" fill-rule="evenodd"/><path d="M387.45 150.85l-7.35-16.63c-.29.48-.31-.43-.27.69.05 1.45 6.21 15.26 7.62 15.94z" fill="#683406" fill-rule="evenodd"/><path d="M240.68 245.43l1.07 1c.56-5.23 1.37-7.19-.75-11l-.32 10z" fill="#fbbc54" fill-rule="evenodd"/><path d="M234.41 186.65c-.63 2.57-2.58 4.59-2.7 6.1 2.1-.65 2.86-4.29 3.95-6.54 1-2 3.6-5.85 3.82-7.69a21.43 21.43 0 00-2.78 4.12c-.57 1.15-1.42 3.22-2.29 4.01z" fill="#a86518" fill-rule="evenodd"/><path d="M315 80.8c.49-.16.34.37 1.15-.49a1.3 1.3 0 00.29-.9 4.51 4.51 0 00-.4-1.69l-4.26-1.65a2.73 2.73 0 00.32-.52s-.08 0-.1-.13a1.45 1.45 0 01.07-.58c-1.08.63-.38.16-1.2 1s0 .32-1.49 1.18c1.07 2.23 1.19.13.91 2.6l.33.55.64.62a7 7 0 003 1.61c1.92.3 1.36.15 2-.59z" fill="#b6b6b9" fill-rule="evenodd"/><path d="M276 258.74l.89.65c1.1 1.32-.37.33 3.05 3.18l1.53-.78a4.19 4.19 0 01-2.07-2.22c-1.53-1.94-.78-2.6-3.84-2.64z" fill="#fdbe56" fill-rule="evenodd"/><path d="M263.25 270.22c3.61.29 5.66 2.1 9.31.24l-2-.94c-2.43-.28-5.35-.72-7.33.7z" fill="#f3c283" fill-rule="evenodd"/><path d="M250.21 240.45l-.92.33-2.49 9.35 1.7 1.58c-.38-10.38 2.92-8.06 1.71-11.26z" fill="#fbbc54" fill-rule="evenodd"/><path d="M326.37 208.24c1.09.92.77 1.39 1.49 2.75a6.07 6.07 0 00.85 1.34c1.3 1.54.42.58.78.41-1.25-3.48-2.05-3.83-.2-7.86-1.44 1.08-.81 1.55-1.8 3.19L324.58 198z" fill="#492e11" fill-rule="evenodd"/><path d="M343.83 259.71l-.15.42h2.22c2.71-3.13 3.25-2.24 5.42-4.7l-3.53.19a16.54 16.54 0 01-4 4.08z" fill="#591e01" fill-rule="evenodd"/><path d="M234.29 227.15c1.42.91 1.44 1.52 2.64 3.57.31-.59.86 1.17-.13-2.61a6.55 6.55 0 00-5.73-4.15c.29 1.67 0 .92 1.53 1.92a13.06 13.06 0 011.69 1.27z" fill="#fbbc54" fill-rule="evenodd"/><path d="M319.83 275.72l2.24-.87.6.36c2.53-.77 2.86-2.07 4.39-4.59-3.71 1.33 1 .67-7.82 3.77l1.42.61c-2.18.33-.17-.07-.83.72z" fill="#a96923" fill-rule="evenodd"/><path d="M331.56 58.19c-.69 3.49-2.14 6.74-1.74 10.65l1.46-3.16c-.22-3.51 1.46-7.58 1.88-10.73l-1.6 3.24z" fill="#352b16" fill-rule="evenodd"/><path d="M358.58 176.86c-.82-2.34-2.42-4.69-3.47-7.1l-3-7.81c-.72 1.49 3 9.65 4.1 11.76 2 3.8.81 3 2.39 3.15z" fill="#a86518" fill-rule="evenodd"/><path d="M353.09 228.44h.18c3.17-.95 4.16-1.56 5.85.66h-1.8a22.88 22.88 0 002.3.84v-1.53l2.2.28c-.91.47-.4.52-.64.84a9.28 9.28 0 005-2.14l-1.39.12-.36-.72-.09 1h-1.12l-.32.7-5.58-1.32.74-.75a12.34 12.34 0 00-2.48.7c-.34.12-.9.3-1.24.45-1.62.72-.6.15-1.25.87z" fill="#975618" fill-rule="evenodd"/><path d="M239.82 226.25a3.41 3.41 0 01.68.95c.41.84-.06-.19.33 1 .24.69.47 1.27.76 2l.34 1.29c1.6-.63 1.38-.82 1-2.75-2.21-3.79-.47-4-3-4.49-.5 1.75-.43.88-.11 2z" fill="#fdbe56" fill-rule="evenodd"/><path d="M254.58 263.16c2.69.6 1.09.91 8.46 2.13-.09-.1-.22-.38-.27-.29s-.2-.21-.26-.27l-1.79-1.21-8-2.15zM358.51 239.2l1 2a39.56 39.56 0 011.18-3.84c.66-1.31 1.35-1.45 1.74-3.28h-2.07a19 19 0 00-1.86 5.19z" fill="#fbbc54" fill-rule="evenodd"/><path d="M312 263.82a9.31 9.31 0 005.53 0 15.88 15.88 0 001.84-1c1.34-.76 1.08-.81 2.68-.91 1-.27.23.11.94-.38.86-.6.61-.59.92-1L312 263.82z" fill="#f9c587" fill-rule="evenodd"/><path d="M259.89 249.66l1.28-.19c.59 1.95.75 3.51 2 5 .17-1.64.23-.79.47-1.09 1.84.26 1.59.57 1.75 2.54.43.24.34 0 .75.44l-.9-5.61.88.55a3 3 0 00.93.36l-2.3-1.55.22 2.94-4.25-4.25c-1.85.6-.38.06-.83.86z" fill="#a96923" fill-rule="evenodd"/><path d="M259.25 278.84c.88 1 2.65 1.45 3.87 1.87-.13-.08-.27-.44-.32-.33l-.64-.54 13 4c-1.94-1.47-10-3.63-12.54-4.6l-3.78-1.38a3.65 3.65 0 01.18.34c.05.09.11.26.15.33s.04.2.08.31z" fill="#a15e1a" fill-rule="evenodd"/><path d="M366.89 89.76c.56-.55.35.11.23-.89a4.23 4.23 0 00-.31-1 40.27 40.27 0 01-2-6.36l-1.15-1a5.88 5.88 0 01-.74-1.36c-1.42-3-1.92-2.37-7.94-3 .94.48.81.12 2.09.12 4.91 0 5.2 3.41 5.66 4.3.92 1.79 1.39 1.12 2.2 4.13a19.1 19.1 0 002 5z" fill="#592101" fill-rule="evenodd"/><path d="M237.85 231.6c.14.31 0 2.69.17 4.18.22 2.14.64 2.45 1.24 4.42l.22-1.22-.49-7.67c-.24-1.76.09-1.64-1.24-2.29l.1 2.58z" fill="#fbbc54" fill-rule="evenodd"/><path d="M358.79 260.61c0 1.55 0 .36.37.63l1.33-.33.41-.33.52-.28c1.87-1.06.7-.42 2.24-2.51 0-.06.15-.18.23-.26l-.16-.2c-.32-1.41.75-.27-.57-1-5.55 3.33-1.54 1.7-4.37 4.27z" fill="#fdbe56" fill-rule="evenodd"/><path d="M238.58 251.53a7.27 7.27 0 002.47 3.89l.23-2.6c-.1-2.08-.76-3.06-1.39-4.81l-1.31 3.52z" fill="#591e01" fill-rule="evenodd"/><path d="M289.55 187.39c.08-.06.78-.71.84-.75.62-.35.4-.28 1.36-.09.49 2.25-1.18 1-2.81 3.31-4.64 6.43-4.24 4.62-8.72 12.84l1.24.51.62-.57c-1.45.13-.53.23-1.05-.48l-.18-.84 9-11.42c1.29-1.51.88-.44 1.95-1.39l.13-2.57c-1.45.07-1.7.48-2.35 1.45z" fill="#352b16" fill-rule="evenodd"/><path d="M236.05 244.19l.61-2.12-.1-2.76c-1.08.8-2 4.69-2.1 6.17l.68 7.2c.08-2.69-.06-6.12.91-8.49zM245.07 252c2.05.87 2.56 2.07 5.43 3.14a4.5 4.5 0 00-.95-1.63l-.71-.72a6.84 6.84 0 00-.61-.65c-1.13-1-2.66-2.77-3.66-3z" fill="#f3c283" fill-rule="evenodd"/><path d="M231.08 154.4c-.94 0-1.47.3-2-.62s.19-.21-.64-2.36l-.21 2.9 7.12-7.67c-.49.47-.27 0-.71.76s-1.32 4.75-3.58 7z" fill="#591e01" fill-rule="evenodd"/><path d="M204 199.67c.06-.07.17-.28.2-.22s.15-.17.18-.22l1.92-4.41 5.56-15.6c-.76.74-7.68 18.82-7.86 20.45z" fill="#352b16" fill-rule="evenodd"/><path d="M277.85 264.29a1.65 1.65 0 01.23.2l1.19 2.18c.33.87.74 1.86 1 2.66l2.12-2.58c-.95-.81-2.43-2-3.22-2.72l-.86-.42c-.57.35-.51-.75-.46.68z" fill="#fdbe56" fill-rule="evenodd"/><path d="M347.9 259.61l6.1-.61c.34-.69.53-1.25.82-2a12.65 12.65 0 00.47-1.19c.17-1.23.54-.19-.27-.7-1.45 1.89-4.57 3.13-7.12 4.5zM335.11 268.66l-.07.8 5.39-3c-1.4-.7-3.37-.23-4.52-1.44z" fill="#591e01" fill-rule="evenodd"/><path d="M236.66 242.07l-.61 2.12c.75-.06.49-.19.43.69l.87 3.8a13.24 13.24 0 00.73-1.67c.69-1.8.42-.22.52-2l-1.22-3.83c-.79 1.58-.14.19-.72.9z" fill="#561e00" fill-rule="evenodd"/><path d="M237.3 265.83a14.27 14.27 0 00-3.3-3.93l-1.58-2.71.43 1.35-2.25 1.12c1.2 2.23 1.52 1.24 3.67 1.95a8.54 8.54 0 013.03 2.22z" fill="#894c15" fill-rule="evenodd"/><path d="M249 248.9l2 .48.32-5.46c-2.55 1-2.28 2-2.36 5z" fill="#fdbe56" fill-rule="evenodd"/><path d="M260.41 236.64a3.12 3.12 0 00-.72 1.91c.31-.72.5-1.35.72-1.91zM265.32 242.78l6.63-2.39c-.16-.15.93-1-1.54-.45-.62.14-3.17 2.1-4.79 1.83l-6-2.63c0-.22.05-.41.07-.59-.16.45-.34.92-.55 1.45a7.3 7.3 0 006.18 2.78z" fill="#a5a5a9"/><path d="M351.41 264.18c-.91 1.52-.88.6-1.19 2.45.37.08.14 0 1-.22a9.34 9.34 0 011.9-.34c.63-1 .46-.47 1.12-1.28a6.77 6.77 0 00.94-1.59c.69-1.2 1.24-1.85 1.95-3.09l-.7.22-.5-.21c.76 1 .25.44.64 1.26-2.11 1.72-2.57 2.47-5.16 2.8z" fill="#5d2401" fill-rule="evenodd"/><path d="M271.12 276.9l-1.35.89 6.39.26 1.08-.51c-.7-.29-.24 0-.74-.5-1.12-1 .17-.27-1.38-1.08l-4 .94z" fill="#561e00" fill-rule="evenodd"/><path d="M268.13 264.26a16.43 16.43 0 01-1.19-3.7c-.24-1.48-.63-2.72-.81-4.16-.41-.4-.32-.2-.75-.44l-1.45.11a39.4 39.4 0 004.2 8.19z" fill="#5d2401" fill-rule="evenodd"/><path d="M239.52 260.23l2.44 2.06c.4-.29 1.36.78.26-1.56-.79-1.69 0-.26-.94-1.23a6.94 6.94 0 01-1.85-2.37l-1.35-1.13z" fill="#f9c587" fill-rule="evenodd"/><path d="M279.07 199.8c-1.21.12-1 .44-1-.69l-2.86-.08s-.06-.16-.08-.19l-.26-.41c-1.93 1.95-.26.67-2.37 1.85l-.84-.23c0-.06-.13-.22-.17-.28l-.35-.51.75-2.22c-1.38.73-2 2.25-2.56 3.8-.86 2.41-.79 2.82-2.11 4.49l4.7-11.41c-2.22 1.65-2.55 3.86-4.21 5.86l2.11-5c-1.75 1.38-.76 1.13-2.63 2.53.86-2.42 2.14-2.94 3.86-6.14l-3.82 3.21 3.57-5.69c-3.95 1.64-3.7 5.12-6.58 7.33l2.11-4.64c-1.2.24.08-1.11-2.34 2.82L266 189c-1.5 1.09-1.53 1.94-2.46 4.27-.24-.43-.59.43 0-1.91l-2.63 5.45c-.58-.89-.93 1.4.28-2.67l.44-2.4-3.34 7.3 1.19-5.68-2.86 5.36c-.39-1.13.09-.36-.89-1.63-.46 2.13-1.12 4.57-1.63 6.81-.27 1.19-.5 2.23-.74 3.37-.41 2-.11 1.82-1 3.34-.18-4.55 1.07-3.11.13-6-1.63 2.17-1.16 6.32-2.09 8.74a11.15 11.15 0 011 2.59l7.6.95a10.62 10.62 0 00-2.15 2.7l6.31.42c-1.09 2.46-6.88 3.92-8.43 4.72l.2 1a24.6 24.6 0 014.4-1.88c3.47-1.41 8.49-7.58 9.18-9.66 1.08-3.26-.54-7.42 1.79-10.8l8.5-2.39-.61 2.65c.08-.1.2-.22.25-.29.72-1.15.95-1.1.63-3.56zm-21.38 3.91c-.63 2.61-1.28 7.26-2 8.47-.92-2.5 1.43-8.39 1.86-11.44.6 2.07.56 1.26.14 2.97zm3.67-2.55l.36-2.42-.67.55-.21.19-.31.26c.09-.09.25-.31.31-.26l.23-.19.68-.61v.06-.05l1.27-3.61a7.32 7.32 0 01-1.66 6.08z" fill="#a5a5a9" fill-rule="evenodd"/><path d="M247.69 229.78c0 .94.21 2-1 2.22.55.88.21.2.4 1.45l3-3.74c1.25-1.21.54.09 1.2-1.39-1.18-1 .2-.48-1.84-.94-.24.47-.43 1.17-.62 1.54-.68 1.31.4 1.31-1.14.86z" fill="#bb8236" fill-rule="evenodd"/><path d="M350.22 266.63c-1.46 1.08-.54 1.33-3.09 1.4-.11.12-.34.48-.38.34s-.27.36-.27.57l.61-.11L351 268a2 2 0 01-.29 1.83l1.83-.15c.9-.68.38-.36.81-1-1.41 1.06 0 .44-1.54.71a4.46 4.46 0 011.32-3.27 9.34 9.34 0 00-1.9.34c-.87.18-.64.25-1.01.17z" fill="#8f5010" fill-rule="evenodd"/><path d="M354 251.1c-.93.84-2.57 2-3.87 1.66-.72.18-.19-.24-.82.36-.43.41.06-.19-.52.74-.34.53-.61 1-1 1.77 2.12-1.31 0-1.18 3.36-2.38 5-1.81 2.63.88 4.51-.86l4.49-5-1.75 1.5c-2.45 2.5-3.06 4.14-4.38 2.24z" fill="#975618" fill-rule="evenodd"/><path d="M206.83 164c.76-.59 0 .52.89-.89a15.19 15.19 0 00.59-1.5l3.1-8.83c-1.61 1.34-4 8.57-4.58 11.22z" fill="#5d2401" fill-rule="evenodd"/><path d="M359.19 256.36l2.11-6.79c-.88.76-3.61 6.9-4.46 8.56 1.83-.51.69 0 2.13-1.56 0-.05.15-.14.22-.21z" fill="#fcc05a" fill-rule="evenodd"/><path d="M241 97.38c.83-1 .33 1 .67-1.39l.44-4.64h-1l-.41-2.76c-.66 1.18.1 7.18.27 8.79z" fill="#834c26" fill-rule="evenodd"/><path d="M237.35 248.68l1.23 2.85 1.31-3.52-1.29-3c-.1 1.79.17.21-.52 2a13.24 13.24 0 01-.73 1.67z" fill="#a35c0a" fill-rule="evenodd"/><path d="M329.81 271.59l-.13-.12 2.69-1.27a15.42 15.42 0 001.21-5.12h-.14c-.87.91-1.08 2-1.73 3.05-.93 1.54-1.71 1.87-1.9 3.46zM243.41 266.91c.51-.55.65 1.09.24-1a5.62 5.62 0 01-.71-2.87l-1-.77-2.44-2.06c.81 2.44 2.78 4.6 3.89 6.68z" fill="#561e00" fill-rule="evenodd"/><path d="M227.69 204.71c2.15-.87 3.65-6.44 4.47-8.64-1.07.42-4.43 8.41-4.47 8.64z" fill="#5d2401" fill-rule="evenodd"/><path d="M358.09 226.42l-.74.75 5.58 1.32.32-.7a5.25 5.25 0 01-2.51-1.52c-.81.4-1 .37-1-.69z" fill="#f4b653" fill-rule="evenodd"/><path d="M235.67 101.73c.1-.09.25-.34.29-.26s.2-.21.25-.29l.47-1.2-1.5-.23c.07-2.62 0-1.69-1-4.84-.65 1.66-.34 1.57.31 5.2.3 1.68.24 1 1.14 1.62z" fill="#724e2d" fill-rule="evenodd"/><path d="M375 114.4a21.69 21.69 0 00-1.65-5.39c-.6-1.51-1.17-4.4-2.26-5.12a76.25 76.25 0 003.22 9.6l.69.91z" fill="#6f3c15" fill-rule="evenodd"/><path d="M381.63 190.72L377 178.93c.19 2.38 2.82 10.63 4.63 11.79z" fill="#591e01" fill-rule="evenodd"/><path d="M243.57 240.8c1-.57.74-.71 2.05-.83v-3.37c.09-1.91 0-.85-.4-1.36-1.08.77-.73.68-1 2.44a12.7 12.7 0 01-.65 3.12z" fill="#f4b653" fill-rule="evenodd"/><path d="M282.39 266.75l.91.45c.8-.55.29 0 .9-1-.41-.53-.12-.31-.72-.84a5 5 0 00-.78-.51 5.74 5.74 0 00-1.7-.66l-1.83-.19c.83.73 2.27 1.94 3.22 2.75z" fill="#591e01" fill-rule="evenodd"/><path d="M279.61 270.11c1.16.37 1.05.76 1.05-.09a57.09 57.09 0 002.64-2.82l-.91-.45-2.12 2.58c-.26-.8-.67-1.79-1-2.66l-1.19-2.18a1.65 1.65 0 00-.23-.2c.31 2.37 2.02 3.43 1.76 5.82z" fill="#a15e1a" fill-rule="evenodd"/><path d="M232.38 203.37c1.54-.54 2-2.39 2.65-3.92a12.88 12.88 0 001.48-4.65c-1.17 1.49-2.23 4.79-3.12 6.36-.76 1.33-.79.67-1 2.21z" fill="#592101" fill-rule="evenodd"/><path d="M364.64 175.64c-.1-1.71-.52-.77-.75-5.25l-.88.73-2.58-4.31c.06.29 3.06 7.86 4.21 8.83z" fill="#b6762a" fill-rule="evenodd"/><path d="M281 264.22a5.74 5.74 0 011.7.66 5 5 0 01.78.51c.6.53.31.31.72.84.06-.1.16-.36.19-.29s0-.05.37-.55c.85-1.3 1.15-2 2.51-1.66l.53-.69-6.8 1.18z" fill="#a35c0a" fill-rule="evenodd"/><path d="M290.12 267.94c.93.23.63.36.58-.68l-.07-.56h-4.3c.5-1.75-.21-.28.89-1.57v-.22l-3.39 4.21 4.5-1.88c3-.42 1.28.15 1.78.7z" fill="#8f5010" fill-rule="evenodd"/><path d="M315.14 79.76c.42-1.75-.53-2.9-2.35-3.13-.5 1.93.13 3.42 2.35 3.13z" fill="#241a01" fill-rule="evenodd"/><path d="M256.89 253.43l3.73 1.27-.72-2.12-4.16-.59 1 1.2z" fill="#fdbe56" fill-rule="evenodd"/><path fill="#ab650d" fill-rule="evenodd" d="M284.49 272.11l-1.91.18.55 2.67 2.44.03-1.08-2.88z"/><path d="M362.44 234l.3.56c.49 2.1-.13 2.62.93 5.32v-7.79l-1.19-.13v2zM279.4 259.57a5 5 0 012.07 2.22h2.29l-.22-.79a14.14 14.14 0 00-3.63-2.14c-.69.42-.75-.82-.51.72z" fill="#fdbe56" fill-rule="evenodd"/><path d="M251.58 269.36l1.2 1.27 5.19 4a4.2 4.2 0 00-1.31-1.69c-2.33-2.09-.92-.35-3.39-4.24-.08.1-.19.14-.23.3-.28 1-1.45.32-1.46.32z" fill="#975618" fill-rule="evenodd"/><path d="M312 74.84c2.06 0 2.73-.45 3.88 1.28s1.61 2.7 1 5.11h.65c.36-3.11-.81-4.57-1.77-6.72a4.44 4.44 0 00-2.06-.51 2.29 2.29 0 00-1.05.28 1.48 1.48 0 00-.63.53z" fill="#a2a2a4" fill-rule="evenodd"/><path d="M239.43 109.25a2.86 2.86 0 001.31-1.24l1.39.8c-.36-.88.91-1.22-2.32-1.45h-.33l-.24-3.59c-.65 1-.64 2.15-.42 3.83a2.87 2.87 0 00.61 1.7z" fill="#9a6846" fill-rule="evenodd"/><path d="M319.43 68.28l.53 1.21c.06-.08.17-.29.18-.24s.13-.2.14-.27c.6-3.06-.9-2.3.82-3.54l-1.4-4.68c-.13 2.38.54 6.37-.27 7.52z" fill="#fbd66d" fill-rule="evenodd"/><path d="M225.74 119l-1.68-1.19c-.09 5.13 3.54 1.86 3-1.58l-.19-.48c-.61 1.47-.2 1.82-1.13 3.25z" fill="#683406" fill-rule="evenodd"/><path d="M375.13 190.63c-.68-2.64-1.7-5.85-3.53-7.88.52 1.84 2.16 7.02 3.53 7.88zM224.07 191.9l.24.87c1.69-1.56 2.75-5.05 3.76-7.26-1.19.55-3.01 5.04-4 6.39z" fill="#a96923" fill-rule="evenodd"/><path d="M251.53 129c1.25-2.15.45-3.21-.42-6.09-.05.08-.15.1-.16.24s-.12.2-.12.26c-.17 1.4.3 1.24.12 2.68s-.95.91.58 2.91z" fill="#592101" fill-rule="evenodd"/><path d="M212.4 160.65c1.18-.84 3.22-6.64 2.93-7.8a24.63 24.63 0 00-2.93 7.8z" fill="#6f3c15" fill-rule="evenodd"/><path d="M310 212.91c.44-1.34-.36-.85.53-3a4.55 4.55 0 00-.46-3.8c-.65 1.89-.95 5.13-.07 6.81z" fill="#463a25" fill-rule="evenodd"/><path fill="#fbcd94" fill-rule="evenodd" d="M324.68 61.41l.58-1.67-1.03-4.4-.83 2.37.11.29 1.17 3.41z"/><path d="M370.48 102.26c.16-2.88-1.19-5.11-1.77-7.58l-.56-.08c.14 1.25 1.63 6.93 2.33 7.66z" fill="#6f3c15" fill-rule="evenodd"/><path d="M364.89 237.41a6.16 6.16 0 001.36-4.16l-1.9.07z" fill="#fbbc54" fill-rule="evenodd"/><path d="M263.16 254.51c-.27.65-.48.25 0 1 1.26 2-.8-.38.81.59l1.45-.11c-.16-2 .09-2.28-1.75-2.54-.28.27-.34-.58-.51 1.06z" fill="#f0af4f" fill-rule="evenodd"/><path d="M231.41 111.2l-2 .94-1.26-1.39c-1.15 2.79 2.33 4.25 3.26.45z" fill="#5d2401" fill-rule="evenodd"/><path d="M353.27 228.47l4.05.63h1.8c-1.69-2.22-2.68-1.61-5.85-.66z" fill="#fdbe56" fill-rule="evenodd"/><path d="M353.23 92l-1.07-9c-.49.5-.88-.82-.48 2 .14.93.36 1.43.48 2.53.17 1.64.13 3.35 1.07 4.47z" fill="#6f3c15" fill-rule="evenodd"/><path d="M214.81 192.5l3.68-5.3a4.31 4.31 0 00-1.09 1.61l-1.34 1.74c-.44-.9-.51 1.26-.31-1.27l1.2-4.34c-1.13 1.5-2.79 5.84-2.14 7.56z" fill="#5d2401" fill-rule="evenodd"/><path d="M256.05 141.16c.16-1.21-.64-3.31-1.18-5.29-.31-1.15-.1-.73-1-1.78.32 2.34.71 5.83 2.14 7.07z" fill="#683406" fill-rule="evenodd"/><path d="M228.28 178.82c1.2-.64.38.69 1.38-1.2.81-1.52-.63.08 2.21-4-2.48.28-1.76 1.3-3.59 5.24z" fill="#a86518" fill-rule="evenodd"/><path d="M359.16 244.33c.78-.46.26 0 .83-.57l1.65-2.11-1.14-1.47a7 7 0 00-1.34 4.15z" fill="#fdbe56" fill-rule="evenodd"/><path d="M364.2 124.55a2.14 2.14 0 00.63-1.7c0-1.21-1.32-4.55-1.79-5.86-.61.79-.92-1.56.56 3.1.66 2.06-.02 3.16.6 4.46z" fill="#6f3c15" fill-rule="evenodd"/><path d="M327.24 262.69c.92-1.53 2.81-3.34 3.05-5.41-.06.06-.15.07-.17.18l-3.85 4.81 1 .42z" fill="#975618" fill-rule="evenodd"/><path d="M257.79 152.74c.78-1.74-.64-5.57-1.25-7.36-.53 1.24.39 3.89.68 5.32z" fill="#642b01" fill-rule="evenodd"/><path d="M345.76 120.42c-1.17 1.39-.14.78-1.68 1.16l-1.25-3.34c.05 5.69 3.17 6.16 2.93 2.18z" fill="#5d2401" fill-rule="evenodd"/><path d="M279.17 264l1.83.19 6.8-1.18 1.29.07c1.06-.55 1.47-.25 2.48-1l-12.4 1.92z" fill="#f9c587" fill-rule="evenodd"/><path d="M244 114.38l1.35-1.62c-.63-.25-.91-.11-1.77 0l-.36-3.38a5.33 5.33 0 00-.39 2.95c.07 1.93.17 1.56 1.17 2.05z" fill="#663a24" fill-rule="evenodd"/><path d="M223.16 151.55l-1.26-1.68 3.88-.71c-1.84 1.67-.22 1.66-2.62 2.39z" fill="#5d2401" fill-rule="evenodd"/><path d="M380.34 130.27l.73 2.4c.53-.61 2 1.4-.51-3.21-.85-1.53-.51-2-1.65-3.54v1.23l1.38 3.12z" fill="#834c26" fill-rule="evenodd"/><path d="M358.79 260.61c2.83-2.57-1.18-.94 4.37-4.27 1.32.72.25-.42.57 1 .34-.43.2-.1.6-1 .25-.57.06-.23.15-.83-1.85.46-1.65.89-3.37 1.31l.16-1.36-2.48 5.14z" fill="#975618" fill-rule="evenodd"/><path d="M242.91 170.09c1.91-1.51 3.11-5.39 4-7.62a40.87 40.87 0 00-4 7.62z" fill="#a96923" fill-rule="evenodd"/><path d="M351.88 101.94c.29.15.82 2.2 1.59-1.88L355 102l-1.27-3.46c-1.22.73-.53.61-1 2-.36 1.1-.73.76-.85 1.4z" fill="#834c26" fill-rule="evenodd"/><path d="M348.76 108.35c.46-.51.75.6.76-2.64l-1.18 1.29-1.3-2c.12 2.09-.12 2.72 1.72 3.35z" fill="#6f3c15" fill-rule="evenodd"/><path d="M367.55 172.13l2.13.75c-.45-2.09-.33-.79-2.64-4.1-.86 1.67 1.15.74.51 3.35z" fill="#a86518" fill-rule="evenodd"/><path d="M221.27 184.76l3.74-4c-2.19 1.92.69.91-3 2.44l.14-3.51c-1.15.86-1.25 3.42-.88 5.07z" fill="#642b01" fill-rule="evenodd"/><path d="M232.77 229.7l.53 1c1.46-1.7 1.41-.68 2.25-1.24l-.65-1.38-2 .52z" fill="#fbbc54" fill-rule="evenodd"/><path d="M233.65 177.69c2-1.7 2.72-4 3.63-6.46-.71.75-1.14 2.18-1.81 3.05-.96 1.23-1.95 1.86-1.82 3.41z" fill="#a86518" fill-rule="evenodd"/><path d="M235.68 232.83l-1-2.7c-1.4 1.46-.62 2.72.34 4 .05-.23-.21-.27.66-1.3z" fill="#fbbc54" fill-rule="evenodd"/><path d="M357.74 101.16a44.43 44.43 0 01-2.31-5.66c-.09.18-.76-.52-.13 1.36.3.92.27.08.67 1.5.15.5.21 1.5.32 1.73.71 1.68-.23.52 1.45 1.07z" fill="#7a431a" fill-rule="evenodd"/><path d="M364.26 232.41c.54.24-.56.59 2.2 0l.08-1.82a6.61 6.61 0 00-1.61.52c-1.38.89-.52-.11-.67 1.3z" fill="#fbbc54" fill-rule="evenodd"/><path d="M246.77 111.35c1.37-.42.93-.63.69-2.4-.19-1.41-.15-2.22-.85-3.18l.16 5.58z" fill="#834c26" fill-rule="evenodd"/><path d="M232.44 259.19l-.3-3.34.92-.32-.33-1.66a3.83 3.83 0 00-.94 1.55 3.43 3.43 0 00-.2 1.36c-.03 2.62.84 2.4.85 2.41z" fill="#724e2d" fill-rule="evenodd"/><path d="M249.8 117.31c.41-.49 1.21 1.3-.21-3.45l-1.25-.15c.25.76 1.07 2.69 1.46 3.6z" fill="#5d2401" fill-rule="evenodd"/><path d="M242.28 105.19c1.07-1.22 1.66-4 2.3-6.07-.62.56-.27-.15-1 1.11a21.9 21.9 0 00-1.35 5z" fill="#6f3c15" fill-rule="evenodd"/><path d="M358.4 90.12c-.12-3.35.32-3.87-.46-5.25 0 .09-.12.13-.12.28a1.06 1.06 0 01-.1.28l-.14 3.34c.24 1.72.45 1 .82 1.35z" fill="#8d5731" fill-rule="evenodd"/><path d="M332.54 257.12c1 .45 1 .33 2.26.06 0-1.12.15-.3-.24-1.4-.93-1.11.11 0-.89-.71z" fill="#f4b653" fill-rule="evenodd"/><path d="M239.36 101.35c-1.15-2.19-.5-.92-.77-2.78s-.53-1.79-1.47-2.48c2.1 3.19-.69 5 2.24 5.26z" fill="#8d5731" fill-rule="evenodd"/><path d="M355.9 90.5l-.37-4.63c-.19-1.13 0-.6-.75-1.84a29.94 29.94 0 00.26 3.53c.22 1.63.22 2.06.86 2.94z" fill="#683406" fill-rule="evenodd"/><path d="M239.78 230.69l1.1-.49c-.49-1.45-.61-1.82-2.12-2.47a8.54 8.54 0 01.38 1.6c.47 1.93.14.79.64 1.36z" fill="#fdbe56" fill-rule="evenodd"/><path d="M338.33 144c.77-.61 1.26-1.1 0-3.94a4.5 4.5 0 000 3.94z" fill="#9a6846" fill-rule="evenodd"/><path d="M298.07 261.43l1.39.7 1.09-1.52c-.46-1 .31-.42-.61-.76-1.85.89-1.17.5-1.87 1.58z" fill="#dfdee1" fill-rule="evenodd"/><path d="M302.91 204.3c1.27-.72 1.73-2.92 1.66-4.52-1.04.95-1.46 2.95-1.66 4.52z" fill="#a5a5a9" fill-rule="evenodd"/><path d="M275.92 192.66c.13-.06.31-.28.37-.19.32.52 3.81-4.62 3.91-4.78-1.39 1.23-3.64 3.19-4.28 5z" fill="#a1a0a5" fill-rule="evenodd"/><path d="M360.49 260.91l-1.33.33c-.38-.27-.38.92-.37-.63-.51.32 0-.41-.85.77l-1.48 3.07.78-.84c1.35-1.79-.53-.11 2.28-1.87z" fill="#975618" fill-rule="evenodd"/><path d="M236.51 95.08l-.72-7.32c-.43 1.93-.4 5.65.72 7.32z" fill="#6f3c15" fill-rule="evenodd"/><path d="M253.2 203.21c.35-.49.06.31.57-.9a8.82 8.82 0 00.42-3.72c-.7 1.09-1.44 3.38-1 4.62z" fill="#a8a7ab" fill-rule="evenodd"/><path d="M340 134.1c.89-1.1.44-.65.68-2.29a8.68 8.68 0 00.26-2c-1.47.36-1 2.89-.94 4.26z" fill="#683406" fill-rule="evenodd"/><path d="M373.54 180c.39-.42 1.09 0 .2-2.06-.49-1.11-.44-.88-1.52-1.8z" fill="#a86518" fill-rule="evenodd"/><path d="M378.08 123.46c.49-.5.67.87.35-1.39a9.26 9.26 0 00-.53-1.28 20.8 20.8 0 01-.9-2c-.29 1.43.66 3.07 1.08 4.64z" fill="#6f3c15" fill-rule="evenodd"/><path d="M360.49 260.91a7.18 7.18 0 002.14-.64 10.87 10.87 0 001.23-.49c1.18-.62.29-.16.82-.6l-1.36.3.57-2c-.08.08-.18.2-.23.26-1.54 2.09-.37 1.45-2.24 2.51l-.52.28z" fill="#7a431a" fill-rule="evenodd"/><path d="M246.71 232c1.19-.21 1-1.28 1-2.22l.23-.33-1 .31-.71 1.81c.3.43-.23.1.48.43z" fill="#fbbc54" fill-rule="evenodd"/><path d="M351.83 229.14c1-.69 0 0 .59-.77l-2.91-1.07c.6 1.42.68 1.4 2.32 1.84z" fill="#a5a5a9" fill-rule="evenodd"/><path d="M234 261.9c-1.24-.71-1.22-.51-2.93-.15l3.38 1.34z" fill="#fdbe56" fill-rule="evenodd"/><path d="M319.72 185.88l1.18.82.28-.26c-.9-1.34-1.16-1.07-1.7-2.29l1.75-.19-2.24-.05c-.18.94 0 1 .57 1.77z" fill="#544930" fill-rule="evenodd"/><path d="M360.74 226.27a5.25 5.25 0 002.51 1.52c-.06-.06-.16-.24-.18-.19l-.49-1.13c2.48-.62 1-.67 1.88.32 0-1.33.75 0-.26-1.35-1.67.59-1.11.2-1.9 1.29z" fill="#724e2d" fill-rule="evenodd"/><path d="M326.3 156l-.53.1.39 3.21c1.61-.96.49-1.37.14-3.31z" fill="#2b220a" fill-rule="evenodd"/><path d="M363.25 227.79h1.12l.09-1c-.91-1 .6-.94-1.88-.33l.49 1.14s.12.13.18.19z" fill="#fbbc54" fill-rule="evenodd"/><path d="M395.64 204.64l-2.49-5.23a8.24 8.24 0 002.49 5.23z" fill="#6f3c15" fill-rule="evenodd"/><path d="M328.68 182.89l1-.31c-.49-1.05-.89-1.73-2.3-1.19z" fill="#f79a2b" fill-rule="evenodd"/><path d="M359.62 229.94l1.57-.41c.24-.32-.27-.37.64-.84l-2.2-.28z" fill="#fbbc54" fill-rule="evenodd"/><path d="M241.39 268a5.4 5.4 0 00.72.71 3.77 3.77 0 00.51.34c.4.26.84.5 1.4.85a16.55 16.55 0 00-1.29-1.82c-.2-.25-.52-.62-.75-.87l-.59.79z" fill="#8f5010" fill-rule="evenodd"/><path d="M280.3 198a10.15 10.15 0 003.33-3.38c-1.3.63-.69.56-1.77 1.53-.46.42-.67.44-.95.73-.73.8-.29.12-.61 1.12z" fill="#463a25" fill-rule="evenodd"/><path d="M247.45 225.29c.82-.45.8-.57 1.27-.81.83-.41.21-.28 1-.12v1.43c1.22-.09.68-.88.47-1.78l-1.44-.32c-.66 1.2-.21.45-1.3 1.6z" fill="#834c26" fill-rule="evenodd"/><path d="M372.54 225.07l1.27-.3a3.48 3.48 0 01-.74 2.44l1.18-.58-.06-2.49c-.53.13-.41 0-.85.25-.74.4-.28.17-.8.68z" fill="#4e3330" fill-rule="evenodd"/><path d="M288.57 259.49c0-.12-.08-.42-.1-.35l-.6-1.5c2.34.05.85.38 2.84.81-1.22-1.58-1.29-1.19-3.64-.63l1.5 1.67z" fill="#975a26" fill-rule="evenodd"/><path d="M278.1 199.11c0 1.13-.24.81 1 .69.46-.86 0 0 .61-.78s.33-.26.62-1z" fill="#362b12" fill-rule="evenodd"/><path d="M205.9 170l.87-.87-1-1.82c-.27 1.69-.48 1.35.13 2.69z" fill="#592101" fill-rule="evenodd"/><path d="M330.2 256.12l.09 1.16c.69-.39.46 0 1.09-.83a6.44 6.44 0 00.61-1.32z" fill="#b6762a" fill-rule="evenodd"/><path d="M231.66 118.38l.5-1.44-.66-1.88c-.64 1.08-.09 2.14.16 3.32z" fill="#6f3c15" fill-rule="evenodd"/><path d="M278 212.66c1.42-.46.11.28 1-.46.06-.06.52-.61.59-.7.51-.65.74-1 1.3-1.79-1.3.72-.51.17-1.49 1.24a9.15 9.15 0 00-1.42 1.71z" fill="#785b46" fill-rule="evenodd"/><path d="M271.84 192.55c1.11-.6.44-.07 1.26-1.05a5.77 5.77 0 01.78-1c-1.65.1-1.65.36-2.04 2.05z" fill="#aaaaad" fill-rule="evenodd"/><path d="M354.81 266.94l3.47-1.68c-1 .25-1.39.33-2.25.47-.1 0-.37-1.22-1.22 1.21z" fill="#894c15" fill-rule="evenodd"/><path d="M292.82 191.4c1.41-.51.67.09 1.19-1-.85-.56.39-.36-.83-.45-2.33-.16-.64 0-1.31.4l1.31.06a1.87 1.87 0 00-.36.99z" fill="#6c562e" fill-rule="evenodd"/><path d="M346.79 117.39l.1-1.49c-.43-1.46 0-.86-1.32-2.22z" fill="#683406" fill-rule="evenodd"/><path d="M287.38 190c1-.45 0 .59 1.19-1a9 9 0 001-1.67 5.32 5.32 0 00-2.19 2.67z" fill="#736952" fill-rule="evenodd"/><path d="M251.58 269.36l-1.82-1.59c-.84-.73-.37-.86-1.74-2a6.11 6.11 0 003.56 3.59zM313.57 282.4a4 4 0 001.78-.88 6.59 6.59 0 00.65-.52c.91-.95 0 .3.48-.84-.69.48-.91.61-1.49 1.06z" fill="#8f5010" fill-rule="evenodd"/><path d="M369.25 240.74c-.67-.29-.69.53-.37-.79l-2.26 3z" fill="#492e11" fill-rule="evenodd"/><path d="M352.23 99.92c-.35-.65.1-.36-.74-1.26-.6-.64-.14-.3-.9-.51.41 1.42.28 1.18 1.64 1.77z" fill="#642b01" fill-rule="evenodd"/><path d="M361 246.41c1.1-.55.38.48 2.22-2.33-1.38.76-1.07.69-2.22 2.33z" fill="#975618" fill-rule="evenodd"/><path d="M285.33 192.6c1.15-.49-.08.84 1.22-1a11.35 11.35 0 00.83-1.6l-.47.32z" fill="#655a43" fill-rule="evenodd"/><path d="M268.12 256.35c.44-.43 1.41.7.1-1.93a2.17 2.17 0 00-.1 1.93z" fill="#fbbc54" fill-rule="evenodd"/><path d="M281.47 261.79a5 5 0 00-2.07-2.22 4.19 4.19 0 002.07 2.22z" fill="#8f5010" fill-rule="evenodd"/><path d="M371.12 247.15c.5-.55.44.79.73-1.53-2 .44-.86.16-1.43 1l1-.45z" fill="#975618" fill-rule="evenodd"/><path d="M307.53 77.71l-.53.22c.85 1.41-.2.48 1.29 1.19-.63-3 .06-.47-.76-1.41z" fill="#b3886a" fill-rule="evenodd"/><path d="M283.63 194.64c.71-.38.37 0 1-.77a8.35 8.35 0 00.74-1.27c-.88.44.1-.56-.93.69a6.71 6.71 0 00-.81 1.35z" fill="#554b34" fill-rule="evenodd"/><path d="M375.77 116.77l.45-.23-.55-1.43c-.05-.08-.14-.19-.19-.26l-.46-.45z" fill="#7a431a" fill-rule="evenodd"/><path d="M272.41 199.65c1-.43.76.2 1.12-1.17-.64.19-.9-.17-1.12 1.17z" fill="#bbbbbd" fill-rule="evenodd"/><path d="M236.5 260.52a5 5 0 00-1.84-2.25l1.13 1.75c.56.57.21.19.71.5z" fill="#8f5010" fill-rule="evenodd"/><path d="M336.29 203.47l-2-2.48-.14 3.46 2.05 1.08.44 1.91a4.24 4.24 0 00-.35-3.97zm-.86.86l-.29-1.17 1.14.31z" fill="#352b16" fill-rule="evenodd"/><path d="M272.4 207.05l.44-1.8 2.5-.12a7.18 7.18 0 00.42-1.69l.72-1.56c-2.42.35-4.86 2.63-4.08 5.17zm1.53-3.36c.78 0 .49-.12.78.59-1.56.37-.77-.28-.78-.59z" fill="#544930" fill-rule="evenodd"/><path d="M325.77 156.05l.53-.1-.48-1.14c-.38.59-.35.63-.05 1.24z" fill="#a49b88" fill-rule="evenodd"/><path d="M368.24 92.9c-.29-1.28.19-.29-1-.91.68 1.26-.36.78 1 .91z" fill="#724e2d" fill-rule="evenodd"/><path d="M367.24 252.59c.86-.9.3.3.88-1.55a7.28 7.28 0 01.59-1.82z" fill="#894c15" fill-rule="evenodd"/><path d="M238.84 102.93c1.19-.5.61 0 1.08-1.08-2.25.73.33.02-1.08 1.08z" fill="#834c26" fill-rule="evenodd"/><path d="M352.48 111l-.15-1.34-2.28-3.9c3.17 3.09.3 3.21 2.43 5.24z" fill="#7a431a" fill-rule="evenodd"/><path d="M395.13 163.05l.76.47c.18-2 .1-.17-.33-1 .05.7.22.54-.43.53z" fill="#bb9579" fill-rule="evenodd"/><path d="M247.29 262.54l1.91 2.22c-.23-.3-.64-.9-.77-1.07a6 6 0 00-.37-.51c-.56-.61-.2-.24-.77-.64z" fill="#8f5010" fill-rule="evenodd"/><path d="M299.33 184.55l-2.11 2.89c-.58.81-1.64 1.37-1.87 2.34a1.36 1.36 0 002.19 1.56 3.85 3.85 0 001.25-2.26 28.71 28.71 0 00.54-4.53zM302.16 185.1a26.27 26.27 0 001.71 4.21c.59.82 1.65 1.37 1.88 2.34a2.08 2.08 0 01-.47 1.88 1.74 1.74 0 01-1.8-.16c-.72-.47-.93-1.59-1.17-2.42-.41-1.43-.15-5.85-.15-5.85zM300 191.58l-.86 2.26c-.3 1.08-.72 2.12-.94 3.2a3.31 3.31 0 00-.15 1.64 1.51 1.51 0 00.85.93c1 .2 1.42-.2 1.64-1.09a4.77 4.77 0 00.24-1.25 7.73 7.73 0 00-.24-1.64 11.34 11.34 0 01-.47-3.27c-.07-.26-.07-.78-.07-.78z" fill="#ff2a2a" fill-rule="evenodd"/></svg>