<svg xmlns="http://www.w3.org/2000/svg" width="300" height="300" viewBox="0 0 300 300"><path d="M294.85 164.61c.28-5.61.49-9.66-1.27-16.27-.27-.64-1.58-1.1-9.34-3.33-3.93-1.14-8.4-2.42-11-3.44l-.24-.09-.24.11c-.61.28-2.57 1.35-5.27 2.84-3.21 1.76-7.48 4.11-11.46 6.2a.56.56 0 00-.19-.09c-.46-.28-.83-.52-1.15-.73-2.15-1.4-2.38-1.34-6.2-.34l-1.12.3a92.78 92.78 0 00-12.61 3c-1.28.36-2.58.73-3.88 1.08l-.29-.09c-2.51-.79-5.36-1.48-8.38-2.2a89.76 89.76 0 01-12.6-3.64c-5.77-2.09-11.4-5.29-17.36-8.68-2.83-1.61-5.77-3.27-8.77-4.85l-.18-.06c-7.3-1.29-10-2.35-20.32-8.11l-.17-.09h-.2c-4.54.51-8.47 2.34-12.27 4.12a57 57 0 01-8.19 3.32c-3.21 1-6 3-8.74 4.89s-5.41 3.74-8.41 4.69-5.94 2-8.83 3.08c-3.41 1.26-6.94 2.57-10.4 3.53l-.34.09c-4.8-1.44-9.76-2.61-15-2.37a9.2 9.2 0 00-3.39-.22 13.35 13.35 0 01-2.54 0H84.33a30.59 30.59 0 01-15.43-2.09 1.37 1.37 0 00-1.12-.22l-.24-.17c-2.57-1-15.31-4.81-19.5-6.07l-.85-.25-.2.09c-1.46.63-2.53 1.13-3.41 1.53-3 1.4-3.59 1.65-9.64 3.06-3.74 1.26-8 2.29-12.57 3.38-6.18 1.48-12.57 3-17.74 5.21l-.31.13-.05.33a128.47 128.47 0 00-2.22 20.22l-.06 1 .94-.44c2.7-1.27 7.74-.13 11.42.69 1.12.26 2.12.48 3 .61a136.5 136.5 0 0124.57 1.18c5.24 2.65 11.73 5.9 17.64 2.12.77-.05 1.55-.13 2.33-.22a23.19 23.19 0 015.23-.16l8 1.18 5.32 1c.39 0 .91.09 1.46.2s3 .79 4.48 1.24c.75.23 1.36.41 1.58.46.76.2 9.9.52 10.37.49l-.08-1.23c-1.09.07-9.56-.34-10-.46-.22-.05-.8-.22-1.52-.44-1.64-.49-3.89-1.17-4.63-1.28a14.51 14.51 0 00-1.49-.2l-5.29-1-8-1.19a24.41 24.41 0 00-5.53.16c-.81.08-1.63.17-2.44.22h-.16l-.14.1c-5.39 3.55-11.36.52-16.64-2.15l-.19-.06A135.51 135.51 0 0016.45 173c-.76-.12-1.73-.34-2.82-.59-3.49-.79-8.15-1.84-11.29-.95a122.21 122.21 0 012.09-18.8c5-2.09 11.23-3.58 17.24-5 4.57-1.09 8.88-2.13 12.61-3.38 6.12-1.43 6.68-1.69 9.83-3.13.83-.38 1.83-.84 3.17-1.43l.42.12c10.85 3.26 17.32 5.27 19.23 6l1.4 1.89v-1.49a31.82 31.82 0 0016.06 2.23 15.29 15.29 0 002.71 0 7.84 7.84 0 013 .19h.26c6.51-.32 12.68 1.64 18.63 3.53 1.4.45 2.82.9 4.24 1.32l.82.27.74.18 2.09.54H118.2c1.44.15 2.91.23 4.38.26l.76.09a42.49 42.49 0 006.9.34l2.1-.27h2.19c8.14-.06 17.39-.12 24.32 2.22 2.32.64 4.1 1.17 5.89 1.71s3.58 1.07 5.9 1.71l.37.1.15-.17a4.73 4.73 0 01.73.1c.59.1 1 .17 1.26-.18l.23-.33-.22-.53-.19-.11a15.22 15.22 0 00-4.26-1.4 25.31 25.31 0 01-2.59-.69c-11-3.89-21.9-4.08-33-3.94-1.18 0-2.48 0-3.85.07-2.05 0-4.31.11-6.59.06a40.08 40.08 0 00-4.44-.26c-1.07-.12-2.1-.28-3.09-.49l-1.53-.44-1.84-.58c-1.33-.41-2.69-.83-4-1.34 3-.91 6-2 8.85-3.09s5.84-2.16 8.76-3c3.2-1 6-3 8.72-4.88s5.37-3.77 8.38-4.72a57 57 0 008.36-3.38c3.82-1.79 7.44-3.48 11.69-4 10.34 5.73 13.08 6.82 20.44 8.13 3 1.55 5.85 3.2 8.65 4.79 6 3.41 11.68 6.63 17.53 8.76a92.73 92.73 0 0012.75 3.68c2.18.52 4.27 1 6.2 1.56-2.48.61-5.5 1.25-7.91 1.62h-.34a1.28 1.28 0 00-.62.1l-1 .12h-.31l-.16.26c-.11.18-.42.7 0 1.11s.93.14 1.49-.15l.33-.17.79-.11a81.28 81.28 0 0014.72-3.2 91.76 91.76 0 0112.5-2.86l1.2-.31c3.52-.93 3.52-.93 5.2.17l.7.45c-1.42.81-5.13 2.41-6.87 3.15-2.9 1.26-2.9 1.26-2.68 1.85s.75.41 1.36.2c4-1.31 15-7.36 21.57-11 2.3-1.27 4.18-2.3 5-2.69 2.68 1 7 2.27 10.86 3.37a77 77 0 018.56 2.72c1.64 6.24 1.43 10.19 1.15 15.63-.09 1.81-.2 3.85-.24 6.16a106.36 106.36 0 00-15.93-.74 1 1 0 00-.37.18H276.54a1.64 1.64 0 00-1.93 1l-.16.4.93.85.29-.05c3.73-.55 9-.18 13.66.14 1.45.11 2.84.2 4.13.27 0 .86 0 2.61-.08 4.6s-.21 3.55-.27 4.41c-1.65-.15-5.27-.31-6-.28-16 .33-31.72-.11-46.95-.55-6.65-.19-13.51-.38-20.33-.5a1.06 1.06 0 01-.34.15 9 9 0 01-1.86.15c.05.16.09.33.14.49l.15.4h.43c7.29.13 14.66.34 21.78.54 15.24.43 31 .88 47 .54.78 0 5.6.21 6.43.35l.67.11v-.68s.14-2.21.3-5.07.07-5.26.07-5.28V171.45c.03-2.63.14-4.87.25-6.84z"/><path d="M251.17 140.66a10.69 10.69 0 00-5.12-3 8.58 8.58 0 00-5.6 0 8.9 8.9 0 00-4.81 2.72 10.46 10.46 0 00-3 5.59c-.51 2.41.18 3.65.55 5.78l10.87-2.91a39.18 39.18 0 016.48-1c2.51 0 2.61-.34 4.34.05a18 18 0 00-3.74-7.2zM215.74 143.22s-.31-.19-.46.51 0 .76 0 .76l12.42 3.06a2.16 2.16 0 00.73-1 2.35 2.35 0 00-.14-1.27M206.87 133.86s-.29-.06-.43.44.1.59.1.59l22.74 8.31a2.18 2.18 0 00.6-.9 3.93 3.93 0 00.12-1.3M256.62 141a3.31 3.31 0 00.33.9 2.65 2.65 0 00.61.66l15.94-9.25a.71.71 0 00-.06-.55.5.5 0 00-.46-.18M269.21 128.1a.44.44 0 000-.61.55.55 0 00-.64-.15l-13.78 11.2a2.08 2.08 0 00.3.58 3.92 3.92 0 00.55.56M231 139.63a2.26 2.26 0 00.84-.73 2.15 2.15 0 00.42-1l-18.73-13.2a.59.59 0 00-.64.24.73.73 0 00-.09.73M252.49 136.6a2 2 0 00.46.68 4.49 4.49 0 00.82.48l11.38-14.17s.27-.48 0-.66a.82.82 0 00-.66-.06M223.93 120.18a.41.41 0 00-.55-.06.93.93 0 00-.39.68l10.53 15.75a3.06 3.06 0 00.92-.48 2.93 2.93 0 00.64-.8M261.15 118s.14-.28-.25-.51a.68.68 0 00-.66 0l-10.43 17.12a1.92 1.92 0 00.79.74 3.9 3.9 0 00.92.48M233.16 117.13a.52.52 0 00-.73-.37c-.59.24-.37.65-.37.65l5.54 16.86a3.88 3.88 0 001.1-.26 2.28 2.28 0 00.94-.56M251.76 116.35s.25-.41-.45-.51-.7.21-.7.21l-4.51 17.24a4.48 4.48 0 00.93.39 4.09 4.09 0 001 .11M242.81 114.15s0-.33-.58-.3-.5.34-.5.34l.36 19a2.79 2.79 0 001.21.16 2.26 2.26 0 001-.24M218.8 180.52c-.67.07-14.78-.08-15.46-.14l-107 .34V182l122.5-.17v-.64c-.05-.25-.03-.47-.04-.67zM265 171c3.06-.11 7.28.57 10.11-.1l-.65.22.4.36c-3.43.41-8.41-.16-11.56-.23l-.47.3c0-.19 0-.4-.21-.47l-.17.2c-5.77 1.36-13.66-.26-20.8.38a51.86 51.86 0 019.41-.72c4.72 1.07 9.53-.45 13.94.06"/></svg>