<svg xmlns="http://www.w3.org/2000/svg" width="600" height="315.79"><path fill="#bf0a30" d="M0 0h600v315.79H0z"/><path fill="#fff" d="M0 24.29h600v24.29H0zM0 72.87h600v24.29H0zM0 121.46h600v24.29H0zM0 170.04h600v24.29H0zM0 218.62h600v24.29H0zM0 267.21h600v24.29H0z"/><path d="M0 0v170h240.22V0z" fill="#002868" fill-rule="evenodd"/><path d="M209.42 31.57l2.2-6.77-5.76-4.18H213l2.2-6.76 2.2 6.76h7.11l-5.75 4.18 2.2 6.77-5.76-4.18zM177.78 31.57L180 24.8l-5.76-4.18h7.12l2.19-6.76 2.2 6.76h7.11l-5.75 4.18 2.2 6.77-5.76-4.18zM146.14 31.57l2.2-6.77-5.75-4.18h7.11l2.2-6.76 2.19 6.76h7.12l-5.76 4.18 2.2 6.77-5.75-4.18zM114.51 31.57l2.19-6.77-5.7-4.18h7.11l2.2-6.76 2.2 6.76h7.11l-5.75 4.18 2.13 6.77-5.75-4.18zM82.87 31.57l2.2-6.77-5.76-4.18h7.11l2.2-6.76 2.2 6.76h7.11l-5.75 4.18 2.2 6.77-5.76-4.18zM51.23 31.57l2.2-6.77-5.76-4.18h7.12L57 13.86l2.2 6.76h7.11l-5.77 4.18 2.2 6.77L57 27.39zM19.59 31.57l2.2-6.77L16 20.62h7.11l2.2-6.76 2.19 6.76h7.12L28.9 24.8l2.2 6.77-5.75-4.18zM177.78 93.88l2.2-6.77-5.76-4.18h7.12l2.19-6.77 2.2 6.77h7.11l-5.75 4.18 2.2 6.77-5.76-4.19zM146.14 93.88l2.2-6.77-5.75-4.18h7.11l2.2-6.77 2.19 6.77h7.12l-5.76 4.18 2.2 6.77-5.75-4.19zM114.51 93.88l2.19-6.77-5.7-4.18h7.11l2.2-6.77 2.2 6.77h7.11l-5.75 4.18 2.13 6.77-5.75-4.19zM82.87 93.88l2.2-6.77-5.76-4.18h7.11l2.2-6.77 2.2 6.77h7.11l-5.75 4.18 2.2 6.77-5.76-4.19zM51.23 93.88l2.2-6.77-5.76-4.18h7.12L57 76.16l2.2 6.77h7.11l-5.75 4.18 2.2 6.77L57 89.69zM209.42 62.72l2.2-6.76-5.76-4.18H213l2.2-6.77 2.2 6.77h7.11L218.73 56l2.2 6.76-5.76-4.18zM177.78 62.72L180 56l-5.76-4.18h7.12l2.17-6.82 2.2 6.77h7.11L187.09 56l2.2 6.76-5.76-4.18zM146.14 62.72l2.2-6.76-5.75-4.18h7.11l2.2-6.78 2.19 6.77h7.12L155.45 56l2.2 6.76-5.75-4.18zM114.51 62.72L116.7 56l-5.7-4.22h7.11l2.2-6.77 2.2 6.77h7.11l-5.8 4.22 2.18 6.72-5.75-4.18zM82.87 62.72l2.2-6.72-5.76-4.18h7.11l2.2-6.82 2.2 6.77h7.11L92.18 56l2.2 6.76-5.76-4.18zM51.23 62.72l2.2-6.72-5.76-4.18h7.12L57 45l2.2 6.77h7.11L60.54 56l2.2 6.76L57 58.54zM19.59 62.72l2.2-6.72L16 51.78h7.11L25.35 45l2.19 6.77h7.12L28.9 56l2.2 6.76-5.75-4.18zM209.42 125l2.2-6.77-5.76-4.18H213l2.2-6.76 2.2 6.76h7.11l-5.75 4.18 2.2 6.77-5.76-4.18zM177.78 125l2.2-6.77-5.76-4.18h7.12l2.19-6.76 2.2 6.76h7.11l-5.75 4.18 2.2 6.77-5.76-4.18zM146.14 125l2.2-6.77-5.75-4.18h7.11l2.2-6.76 2.19 6.76h7.12l-5.76 4.18 2.2 6.77-5.75-4.18zM114.51 125l2.19-6.77-5.7-4.15h7.11l2.2-6.76 2.2 6.76h7.11l-5.75 4.18L126 125l-5.75-4.18zM82.87 125l2.2-6.77-5.76-4.18h7.11l2.2-6.76 2.2 6.76h7.11l-5.75 4.18 2.2 6.77-5.76-4.18zM51.23 125l2.2-6.77-5.76-4.18h7.12l2.21-6.73 2.2 6.76h7.11l-5.75 4.18 2.2 6.77-5.76-4.18zM19.59 125l2.2-6.77-5.79-4.15h7.11l2.2-6.76 2.19 6.76h7.12l-5.76 4.18L31.1 125l-5.75-4.18zM209.42 156.18l2.2-6.76-5.76-4.18H213l2.2-6.77 2.2 6.77h7.11l-5.75 4.18 2.2 6.76-5.79-4.18zM177.78 156.18l2.2-6.76-5.76-4.18h7.12l2.19-6.77 2.2 6.77h7.11l-5.75 4.18 2.2 6.76-5.76-4.18zM146.14 156.18l2.2-6.76-5.75-4.18h7.11l2.2-6.77 2.19 6.77h7.12l-5.76 4.18 2.2 6.76-5.75-4.18zM114.51 156.18l2.19-6.76-5.7-4.18h7.11l2.2-6.77 2.2 6.77h7.11l-5.75 4.18 2.19 6.76-5.8-4.18zM82.87 156.18l2.2-6.76-5.76-4.18h7.11l2.2-6.77 2.2 6.77h7.11l-5.75 4.18 2.2 6.76-5.76-4.18zM51.23 156.18l2.2-6.76-5.76-4.18h7.12l2.21-6.77 2.2 6.77h7.11l-5.75 4.18 2.2 6.76L57 152zM19.59 156.18l2.2-6.76-5.79-4.18h7.11l2.2-6.77 2.19 6.77h7.12l-5.76 4.18 2.2 6.76-5.71-4.18z" fill="#fff" fill-rule="evenodd"/></svg>