<svg xmlns="http://www.w3.org/2000/svg" width="600" height="400" viewBox="0 0 600 400"><path fill="#fff" d="M0 0h600v400H0z"/><path d="M297.53 141s-.62 69.09-.62 74.12 0 11.93-5.55 10.67-12.32-1.25-22.19-8.16-9.86-8.16-9.86-8.16l9.25-3.15s-9.25-1.88-15.41-6.27-11.1-8.17-11.1-8.17-.61 9.42 2.47 16.33 9.24 13.19 9.24 13.19v-8.16s8.63 8.16 11.72 10.05 15.41 6.91 20.34 10.05 14.79 11.93 14.79 11.93 8.64-10 14.8-12.57 14.18-6.27 17.88-8.79S346.85 212 346.85 212v10.68s6.78-8.17 8.63-13.83 2.47-15.7 2.47-15.7a55.25 55.25 0 01-9.25 5.66c-4.32 1.88-16.64 6.91-16.64 6.91l9.85 2.51s-16 12.56-21.57 15.08-17.26 3.76-17.26-2.52.62-79.77.62-79.77zm.62-23.24h4.31v18.84h-4.31z" fill="#fec500" stroke="#fec500" stroke-width=".88"/><path d="M267.33 136.63s17.26-3.77 33.28-3.77 32.67 3.76 32.67 3.76v6.91s-22.19 3.14-35.13 3.14-31.44-3.77-31.44-3.77z" fill="#fec500" stroke="#fff" stroke-width=".88"/><path d="M306.78 133.48c0 4.16-2.9 7.54-6.48 7.54s-6.47-3.38-6.47-7.54 2.9-7.54 6.47-7.54 6.48 3.38 6.48 7.54zm3.08-.31A9.88 9.88 0 11300 122.8a10.12 10.12 0 019.86 10.37z" fill="#fec500" stroke="#fff" stroke-width=".88" fill-rule="evenodd"/><path d="M357.06 253.73s-8.19 7.48-16.2 8.54-20.63 4.83-20.63 4.83-.34 11.53.06 12.53.64 1.26 1.79 1.3a89.83 89.83 0 0022.72-2.16c12.93-3 25.62-10.79 25.62-10.79-2.95-1.21-10.11-2.28-14.72-3.43zm-24 17.79c.87 2.34-13 4.5-12.79 8.11m-77.35-25.9s8.19 7.48 16.2 8.54 20.63 4.83 20.63 4.83.34 11.53-.06 12.53-.64 1.26-1.79 1.3a89.83 89.83 0 01-22.72-2.16c-12.93-3-25.62-10.79-25.62-10.79 2.95-1.21 10.11-2.28 14.72-3.43zm24 17.79c-.87 2.34 13 4.5 12.79 8.11" fill="#003271" stroke="#fff" stroke-linejoin="round" stroke-width=".58"/><path d="M269.18 271a2.17 2.17 0 00-2.26.48v-20a2.21 2.21 0 012.37-.12c5.32 2.32 19 7 30.71 7s25.39-4.7 30.71-7a2.23 2.23 0 012.37.11v20a2.17 2.17 0 00-2.26-.48c-5.67 1.76-20.49 6.13-30.82 6.13s-25.15-4.37-30.82-6.13z" fill="#003271" stroke="#fff" stroke-linejoin="round" stroke-width=".58"/><path d="M300 58.9l6.18 14.87 16.05 1.28L310 85.52l3.74 15.67-13.74-8.4-13.74 8.4L290 85.52l-12.23-10.47 16.05-1.28zM366.56 75.31l-1.44 16 13.61 8.59-15.73 3.63-4 15.61-8.27-13.82-16.07 1 10.6-12.13-6-15 14.8 6.32zM417.83 120.73l-8.72 13.54 8.06 13.94-15.57-4.11-10.76 12-.9-16.08-14.72-6.54 15-5.82 1.67-16 10.17 12.47zM442.14 184.83l-14 7.93.65 16.09L416.91 198l-15.09 5.6 6.67-14.66-10-12.62 16 1.82 8.93-13.4 3.21 15.77zM433.88 252.86l-16.1.51-6.89 14.54-5.46-15.14-16-2.06 12.72-9.87-3-15.83 13.32 9.05 14.13-7.72-4.49 15.46zM395 309.25l-14.49-7-12.91 9.65 2.2-15.9-13.18-9.24 15.85-2.84 4.72-15.39 7.59 14.2 16.1-.27L389.72 294zM334.28 341.1l-9.57-13-15.89 2.59 9.37-13.1-7.38-14.31 15.35 4.86 11.33-11.44.12 16.11L352 320.1l-15.27 5.09zM233.44 75.31l1.44 16-13.61 8.59 15.73 3.63 4 15.61 8.27-13.82 16.07 1-10.6-12.13 6-15-14.8 6.32zM182.17 120.73l8.72 13.54-8.06 13.94 15.57-4.11 10.76 12 .9-16.08 14.72-6.54-15-5.82-1.67-16-10.17 12.47zM157.86 184.83l14 7.93-.65 16.09L183.09 198l15.09 5.6-6.67-14.66 10-12.62-16 1.82-8.93-13.4-3.21 15.77zM166.12 252.86l16.1.51 6.89 14.54 5.46-15.14 16-2.06-12.72-9.87 3-15.83-13.32 9.05-14.13-7.72 4.49 15.46zM205.05 309.25l14.49-7 12.86 9.68-2.2-15.93 13.18-9.24-15.85-2.84-4.72-15.39-7.59 14.2-16.1-.27L210.28 294zM265.72 341.1l9.57-13 15.89 2.59-9.37-13.1 7.38-14.31-15.35 4.86-11.33-11.44-.12 16.11L248 320.1l15.27 5.09zM318.88 265.6V259l4.74-1.29 4.75-1.29v2.65l-3.09.83-3.1.84v2.64l2.34-.63 2.33-.63v2.64l-2.37.64-2.37.64v2.6l3.13-.85 3.13-.85v2.65l-4.75 1.28-4.75 1.29v-6.56zm-9.18.29c1.12-.36 1.67-1 1.47-1.68s-1.21-.95-3-.84l-.77.05v2.83l1-.13a11.75 11.75 0 001.33-.23zm-5.47 1.8v-6.59l2.15-.19a14.85 14.85 0 014.72 0c2 .42 3.18 1.52 3.29 3.2a3.13 3.13 0 01-1.18 2.76 9 9 0 01-4.67 1.78l-1.08.18V274l-1.62.16-1.61.16v-6.58zm-10.69 4a2.67 2.67 0 001-1.6 10 10 0 00-.2-5c-.46-1.15-1.46-1.54-2.35-.92s-1.08 1.71-1 3.8c.07 2.26.48 3.45 1.32 3.82a1.4 1.4 0 001.23-.07zm-1.61 2.7a4.91 4.91 0 01-3.51-2.65 8.08 8.08 0 01-.78-4.06 8.2 8.2 0 01.77-4.07c.87-1.7 2.7-2.57 5.06-2.36 2.54.23 4 1.67 4.49 4.42a16.92 16.92 0 010 3.64c-.33 2.59-1.4 4.2-3.17 4.84a6.3 6.3 0 01-2.9.23zM271.77 263v-6.58l1.62.4 1.62.39v5.29l2 .49 2 .48v-5.27l1.66.41 1.65.41v13.16l-1.65-.41-1.66-.41v-5.28l-2-.48-2-.49v5.29l-1.62-.4-1.62-.39V263z" fill="#fec500"/></svg>