<svg xmlns="http://www.w3.org/2000/svg" width="600" height="400" viewBox="0 0 600 400"><title>flag-washington-dc-thumb</title><rect width="600" height="400" fill="#fff"/><path d="M130,22l-9.44,29.06H90l24.72,18-9.44,29.06,24.72-18,24.72,18L145.28,69l24.72-18H139.44Z" fill="#e81b39"/><rect y="120" width="600" height="80" fill="#e81b39"/><rect y="240" width="600" height="80" fill="#e81b39"/><path d="M300,22l-9.44,29.06H260l24.72,18-9.44,29.06,24.72-18,24.72,18L315.28,69l24.72-18H309.44Z" fill="#e81b39"/><path d="M471.25,22,461.8,51.06H431.25L456,69l-9.44,29.06,24.72-18,24.72,18L486.53,69l24.72-18H480.69Z" fill="#e81b39"/></svg>