<svg xmlns="http://www.w3.org/2000/svg" width="600" height="400" viewBox="0 0 600 400"><path d="M0 .13h600v399.74H0z" fill="#fff"/><path d="M0 .13h600v133.25H0z" fill="#b50027"/><path d="M0 .13h266.49v266.49H0z" fill="#002d56"/><path d="M139.21 36.57l9.49-6.69-11.62-.17-3.43-11.1-3.75 11-11.61-.17 9.3 7-3.74 11 9.49-6.69 9.31 7zM93.56 44.74l5.29-10.34-10.36 5.25-8.21-8.23 1.8 11.48-10.36 5.25L83.19 50 85 61.47l5.29-10.34L101.76 53zM56.79 73.41l-.12-11.61-6.74 9.47-11.08-3.48 6.92 9.33L39 86.58l11-3.7 7 9.33-.12-11.62 11-3.7zM37.84 115.81l-5.5-10.23-1.56 11.51-11.44 2.07 10.47 5-1.57 11.51 8-8.39 10.47 5-5.5-10.23 8-8.4zM40.52 162l-9.62-6.5 4 10.92-9.16 7.15 11.61-.4 4 10.92L44.48 173l11.61-.4-9.63-6.5 3.22-11.17zM64.48 202l-11.54-1.29 8.58 7.83-4.79 10.58 10.09-5.74 8.58 7.83-2.34-11.39 10.09-5.74-11.54-1.29-2.34-11.38zM104.33 226l-10.82 4.22 11.24 2.95.68 11.59 6.27-9.76 11.23 2.95-7.36-9 6.26-9.78-10.83 4.21-7.37-9zM150.53 228.84l-7.62 8.77 11.32-2.61 6 10 1-11.57 11.32-2.62-10.69-4.53 1-11.57-7.62 8.76-10.69-4.53zM193 210l-2.67 11.3 8.81-7.58 9.93 6L204.6 209l8.81-7.57-11.58 1-4.49-10.71-2.67 11.28-11.58 1zM221.71 173.25l2.89 11.25 4.28-10.8 11.59.73-8.95-7.4 4.28-10.8-9.8 6.22-9-7.39 2.89 11.24-9.81 6.23zM216.47 83.32l10.9 4-6.46-9.65 7.19-9.13-11.18 3.16-6.45-9.66-.47 11.62-11.18 3.16 10.9 4-.45 11.6zM183.54 50.35l11.51-1.51-10.2-5.55L187 31.87l-8.43 8-10.2-5.55 5 10.49-8.43 8 11.52-1.51 5 10.49zM230.05 127.7l7.79 8.62-1.23-11.55 10.6-4.74-11.36-2.4-1.23-11.54-5.8 10.06-11.36-2.39 7.78 8.62-5.79 10.07z" fill="#fff" fill-rule="evenodd"/><path d="M85 193.52h-3.36v-.37h.41l.38-.06a.5.5 0 00.25-.19.54.54 0 00.08-.33v-5.42a1 1 0 00-.05-.31.5.5 0 00-.28-.21 2.23 2.23 0 00-.4-.11 2.73 2.73 0 00-.39-.07V186H85v.38a3.22 3.22 0 00-.39 0 2 2 0 00-.4.09.44.44 0 00-.27.2.83.83 0 00-.07.32v5.41a.62.62 0 00.08.31.51.51 0 00.26.21l.36.1a2.58 2.58 0 00.43.05v.37zM94.22 186.42a2.24 2.24 0 00-.45.08 1.83 1.83 0 00-.44.17.72.72 0 00-.25.5 5.05 5.05 0 00-.07 1v5.48h-.46L88 187.48v3.86a4.25 4.25 0 00.08 1 .9.9 0 00.25.5 1.13 1.13 0 00.5.21 2.56 2.56 0 00.5.11v.37h-3.04v-.37a3.15 3.15 0 00.48-.1 1.26 1.26 0 00.43-.17.82.82 0 00.25-.45 5.8 5.8 0 00.07-1v-3.69a1.36 1.36 0 00-.09-.48.87.87 0 00-.22-.38 2.31 2.31 0 00-1-.43V186h2.09l4.2 5.71v-3.56a4.93 4.93 0 00-.08-1 .85.85 0 00-.24-.47 1.86 1.86 0 00-.49-.2 3.07 3.07 0 00-.5-.1V186h3v.38zM105.24 190.54l-.34.05a1.28 1.28 0 00-.34.09.51.51 0 00-.23.23.86.86 0 00-.06.34v1.79a7 7 0 01-1.39.49 5.89 5.89 0 01-1.36.17 3.61 3.61 0 01-1.38-.27 3.39 3.39 0 01-1.16-.76 3.69 3.69 0 01-.8-1.22 4.3 4.3 0 01-.29-1.6 4.36 4.36 0 01.28-1.59A3.8 3.8 0 0199 187a3.4 3.4 0 011.19-.81 3.69 3.69 0 011.48-.3 3.61 3.61 0 011.1.15 4.93 4.93 0 01.83.37l.21-.36h.43v2.62h-.43a6.45 6.45 0 00-.27-.85 3 3 0 00-.42-.75 2 2 0 00-.64-.53 1.84 1.84 0 00-.88-.2 2.21 2.21 0 00-1 .23 2.13 2.13 0 00-.76.68 3.23 3.23 0 00-.5 1.09 6 6 0 00-.17 1.46 5 5 0 00.17 1.35 3.26 3.26 0 00.5 1.08 2.26 2.26 0 001.92 1 2.57 2.57 0 00.85-.14 1.84 1.84 0 00.54-.3 3.52 3.52 0 000-.56v-.88a1.14 1.14 0 00-.06-.39.43.43 0 00-.25-.26 1.55 1.55 0 00-.47-.11 3.47 3.47 0 00-.46-.05v-.39h3.27v.39zM112.59 186.93a3.52 3.52 0 01.77 1.25 4.8 4.8 0 010 3.23 3.66 3.66 0 01-.79 1.24 3.41 3.41 0 01-1.14.78 3.54 3.54 0 01-1.38.27 3.43 3.43 0 01-1.44-.29 3.3 3.3 0 01-1.13-.81 3.68 3.68 0 01-.75-1.24 4.5 4.5 0 01-.27-1.57 4.3 4.3 0 01.28-1.62 3.71 3.71 0 01.79-1.24 3.38 3.38 0 011.15-.79 3.52 3.52 0 011.37-.27 3.64 3.64 0 011.4.27 3.38 3.38 0 011.14.79zm-.79 5.3a3.44 3.44 0 00.43-1.08 6.32 6.32 0 00.14-1.36 5.69 5.69 0 00-.16-1.41 3.42 3.42 0 00-.43-1.1 2.09 2.09 0 00-.73-.69 2.09 2.09 0 00-2.07 0 2.37 2.37 0 00-.73.78 4 4 0 00-.39 1.09 6.82 6.82 0 00-.13 1.3 6.28 6.28 0 00.14 1.37 3.65 3.65 0 00.43 1.09 2.19 2.19 0 00.72.73 2 2 0 001 .25 2 2 0 001-.26 2 2 0 00.73-.74zM121.92 189.83a3.53 3.53 0 01-.36 1.65 3.42 3.42 0 01-.93 1.15 3.92 3.92 0 01-1.3.67 5 5 0 01-1.49.22h-3.1v-.37h.4a1.64 1.64 0 00.32-.06.51.51 0 00.23-.2.72.72 0 00.07-.33v-5.4a.79.79 0 00-.06-.32.45.45 0 00-.24-.23 1.3 1.3 0 00-.35-.11 2.67 2.67 0 00-.33-.05V186h3.27a4.25 4.25 0 011.32.22 3.78 3.78 0 011.14.55 3.33 3.33 0 011 1.23 4 4 0 01.38 1.79zm-1.29 0a4.46 4.46 0 00-.2-1.36 3.22 3.22 0 00-.59-1.06 2.49 2.49 0 00-.89-.68 2.65 2.65 0 00-1.18-.25h-.89v5.75a.77.77 0 00.28.67 1.62 1.62 0 00.86.18 2.66 2.66 0 001.17-.24 2.07 2.07 0 00.81-.65 2.77 2.77 0 00.47-1 5 5 0 00.16-1.35zM136.18 186.42a.93.93 0 00-.3.06 1.55 1.55 0 00-.32.14 1 1 0 00-.3.27 1.37 1.37 0 00-.2.42l-.87 2.85c-.33 1.08-.68 2.23-1.07 3.46h-.48l-1.88-5.76-2 5.76h-.46c-.35-1.23-.71-2.51-1.08-3.83s-.62-2.21-.75-2.66a1 1 0 00-.14-.29.94.94 0 00-.25-.23 1 1 0 00-.31-.13l-.31-.06V186h3v.38a4.1 4.1 0 00-.68.08c-.19 0-.28.1-.28.19a1 1 0 000 .15.83.83 0 010 .13c.08.31.23.82.43 1.54s.51 1.77.91 3.19l1.87-5.55h.51l1.88 5.67c.26-.87.47-1.63.66-2.28s.33-1.21.45-1.68.14-.55.16-.67a1.89 1.89 0 000-.31c0-.12-.08-.22-.25-.3a2.33 2.33 0 00-.79-.16V186h2.71zM143.44 191.32l-.14 2.2h-6.21v-.37h.42a1.52 1.52 0 00.35-.08.46.46 0 00.23-.2.76.76 0 00.07-.32v-5.38a.75.75 0 00-.06-.31.47.47 0 00-.24-.22l-.39-.12-.38-.06V186h5.78v1.81h-.39a2.31 2.31 0 00-.48-.81 1.14 1.14 0 00-.66-.5h-2.08v3h.84a1.7 1.7 0 00.59-.07.75.75 0 00.33-.26 1.49 1.49 0 00.2-.4 3.7 3.7 0 00.11-.49h.39v2.93h-.39a2.94 2.94 0 00-.12-.54 1.31 1.31 0 00-.19-.41.86.86 0 00-.37-.27 2 2 0 00-.55-.06h-.84v2.25a1.94 1.94 0 00.05.53.46.46 0 00.18.29.9.9 0 00.37.14H141a3.25 3.25 0 00.47 0 3.34 3.34 0 00.42-.07.6.6 0 00.3-.16 3.29 3.29 0 00.51-.76 4.93 4.93 0 00.34-.76zM154.43 188.07h-.37a2.57 2.57 0 00-.17-.44 3.05 3.05 0 00-.28-.5 2.4 2.4 0 00-.34-.42.72.72 0 00-.36-.21 2.37 2.37 0 00-.41 0h-.76v6a.71.71 0 00.07.32.45.45 0 00.26.22 2 2 0 00.39.1 2.89 2.89 0 00.48.07v.37h-3.53v-.37h.45a1.82 1.82 0 00.42-.08.51.51 0 00.25-.2.57.57 0 00.08-.34v-6h-.71a3.44 3.44 0 00-.46 0 .57.57 0 00-.36.21 2.44 2.44 0 00-.35.42 4.11 4.11 0 00-.27.51 2.09 2.09 0 00-.17.43h-.37v-2h6.51v2zM162.92 193.52h-2c-.45-.69-.85-1.3-1.21-1.81s-.75-1-1.17-1.57h-.77v2.37a.79.79 0 00.06.32.36.36 0 00.25.21 1.19 1.19 0 00.33.07 3.58 3.58 0 00.4 0v.37h-3.16v-.37h.36a.92.92 0 00.34-.07.42.42 0 00.23-.2.65.65 0 00.07-.33v-5.41a1.14 1.14 0 000-.33.41.41 0 00-.25-.21 1.82 1.82 0 00-.34-.09 3.06 3.06 0 00-.36-.05V186h3.45a4.18 4.18 0 01.89.1 2.3 2.3 0 01.75.32 1.52 1.52 0 01.52.55 1.61 1.61 0 01.2.82 2.24 2.24 0 01-.13.76 1.74 1.74 0 01-.39.58 2.39 2.39 0 01-.57.39 4.82 4.82 0 01-.73.28c.37.49.67.9.91 1.23l.9 1.22a3 3 0 00.42.47 2.31 2.31 0 00.37.24 1.31 1.31 0 00.35.11 2.55 2.55 0 00.34 0v.37zm-2.77-5.52a1.48 1.48 0 00-.39-1.08 1.5 1.5 0 00-1.1-.4h-.9v3.21h.69a1.63 1.63 0 001.7-1.73zM170.73 186.42a2.26 2.26 0 00-.43.06 1.36 1.36 0 00-.47.18.73.73 0 00-.24.5 4.85 4.85 0 00-.07.92v3.26a2.21 2.21 0 01-.26 1.08 2.33 2.33 0 01-.68.75 2.82 2.82 0 01-.88.41 3.45 3.45 0 01-.88.12 3.69 3.69 0 01-1.2-.18 2.55 2.55 0 01-.88-.47 1.94 1.94 0 01-.53-.69 1.91 1.91 0 01-.18-.81v-4.42a.62.62 0 00-.07-.31.49.49 0 00-.24-.23 1.28 1.28 0 00-.33-.11l-.34-.06V186h3.11v.38a2 2 0 00-.37.05 1.31 1.31 0 00-.33.08.36.36 0 00-.24.21.79.79 0 00-.06.32v4.13a3.52 3.52 0 00.06.63 1.75 1.75 0 00.27.61 1.43 1.43 0 00.55.48 2.18 2.18 0 001 .18 2.3 2.3 0 001-.18 1.61 1.61 0 00.62-.49 1.68 1.68 0 00.31-.59 2.28 2.28 0 00.09-.63v-3.07a4.13 4.13 0 00-.09-1 .83.83 0 00-.24-.49 1.51 1.51 0 00-.51-.21 3.34 3.34 0 00-.48-.08V186h3v.38zM176.27 190.09a1.84 1.84 0 01.35.58A2.26 2.26 0 01176 193a2.64 2.64 0 01-1.81.65 3.12 3.12 0 01-1-.16 3.5 3.5 0 01-.87-.38l-.22.39h-.43l-.07-2.5h.4a6.18 6.18 0 00.3.86 3.24 3.24 0 00.47.71 2 2 0 00.64.49 1.78 1.78 0 00.85.19 1.74 1.74 0 00.63-.1 1.16 1.16 0 00.45-.26 1.14 1.14 0 00.24-.41 1.53 1.53 0 00.09-.54 1.51 1.51 0 00-.26-.84 1.56 1.56 0 00-.75-.59l-.78-.3c-.3-.11-.55-.22-.77-.31a2.44 2.44 0 01-1-.75 2 2 0 01-.35-1.2 1.8 1.8 0 01.18-.8 2 2 0 01.49-.66 2.34 2.34 0 01.72-.43 2.57 2.57 0 01.87-.15 2.65 2.65 0 01.92.15 4.76 4.76 0 01.75.37l.31-.43h.43v2.49H176a8.77 8.77 0 00-.26-.82 3 3 0 00-.38-.71 1.69 1.69 0 00-.55-.48 1.63 1.63 0 00-.8-.19 1.19 1.19 0 00-.85.33 1 1 0 00-.35.78 1.4 1.4 0 00.22.81 1.68 1.68 0 00.66.52c.26.12.51.23.75.32a7.72 7.72 0 01.72.29 3.88 3.88 0 01.61.31 2.06 2.06 0 01.51.4zM184.36 188.07H184a2.57 2.57 0 00-.17-.44 4 4 0 00-.27-.5 3 3 0 00-.35-.42.68.68 0 00-.36-.21 2.37 2.37 0 00-.41 0h-.76v6a.71.71 0 00.07.32.48.48 0 00.26.22 2 2 0 00.39.1 2.89 2.89 0 00.48.07v.37h-3.53v-.37h.45a1.82 1.82 0 00.42-.08.51.51 0 00.25-.2.57.57 0 00.08-.34v-6h-.71a3.44 3.44 0 00-.46 0 .6.6 0 00-.36.21 2 2 0 00-.34.42 3.15 3.15 0 00-.28.51 2.88 2.88 0 00-.17.43h-.37v-2h6.51z" fill="#eed000" fill-rule="evenodd"/><path d="M133.51 98.79a1.74 1.74 0 01.93 1.78q1.23-.24 1 1.29s-1-.26-1.13.29a1.22 1.22 0 00.55 1.56s1 .8 1.64-.71l.86-2a3.83 3.83 0 012.19-2 1.72 1.72 0 011.1 0s.83.19.85.88a1.1 1.1 0 01-.73 1.21c-.52.22-1.16-.26-1.16-.26a.47.47 0 00-.43.13 2.24 2.24 0 00-.48.66 14.2 14.2 0 00-.69 1.73c-.17.59-.56 2.37-2.36 2.64h-4.26c-1.8-.27-2.19-2.05-2.36-2.64a14.2 14.2 0 00-.69-1.73 2.24 2.24 0 00-.48-.66.48.48 0 00-.43-.13s-.64.48-1.16.26a1.11 1.11 0 01-.74-1.21c0-.69.86-.88.86-.88a1.72 1.72 0 011.1 0 3.78 3.78 0 012.18 2s.23.51.87 2 1.64.71 1.64.71a1.2 1.2 0 00.54-1.56c-.15-.55-1.12-.29-1.12-.29-.16-1 .17-1.45 1-1.29a1.75 1.75 0 01.94-1.78z" fill="#eed000"/><path d="M138.81 147.44H128.5l1.22-40.22h7.92zM138.77 169.8h-11v-18.26h11z" fill="#eed000" stroke="#002d56" stroke-miterlimit="3.86" stroke-width=".75" fill-rule="evenodd"/><path d="M127.64 149.46h11.1c.77 0 1.4.47 1.4 1s-.63 1.05-1.4 1.05h-11.1c-.77 0-1.4-.47-1.4-1.05s.63-1 1.4-1z" fill="#eed000" stroke="#002d56" stroke-miterlimit="3.86" stroke-width=".75"/><path d="M128.46 147.48h9.69a1.14 1.14 0 011.25 1h0a1.14 1.14 0 01-1.25 1h-9.69a1.14 1.14 0 01-1.24-1h0a1.14 1.14 0 011.24-1z" fill="#eed000" stroke="#002d56" stroke-miterlimit="3.86" stroke-width=".75" fill-rule="evenodd"/><path d="M130.29 155h5.85v12h-5.85zM130.17 105.81h6.72c.55 0 1 .33 1 .73s-.45.73-1 .73h-6.72c-.55 0-1-.33-1-.73s.45-.73 1-.73z" fill="#eed000" stroke="#002d56" stroke-miterlimit="3.86" stroke-width=".75"/><path d="M78.44 172H190v3.76H78.44z" fill="#eed000" stroke="#002d56" stroke-miterlimit="3.86" stroke-width=".75" fill-rule="evenodd"/><path d="M73.68 175.72h121.17v4H73.68z" fill="#eed000" stroke="#002d56" stroke-miterlimit="3.86" stroke-width=".75"/><path d="M166.29 90.23a35 35 0 00-65 0h-13c6-19.87 24.1-34.44 45.45-34.44s39.49 14.54 45.48 34.43z" fill="#eed000" stroke="#002d56" stroke-miterlimit="3.86" stroke-width=".75" fill-rule="evenodd"/><path d="M95.57 98.67a1.74 1.74 0 01.93 1.78c.82-.15 1.15.28 1 1.3 0 0-1-.27-1.12.29a1.2 1.2 0 00.54 1.56s1 .8 1.64-.72.87-2 .87-2a3.81 3.81 0 012.18-2 1.79 1.79 0 011.1 0s.83.18.86.88a1.1 1.1 0 01-.74 1.2c-.52.23-1.16-.26-1.16-.26a.45.45 0 00-.43.14 2 2 0 00-.48.66 14.51 14.51 0 00-.69 1.72c-.17.59-.56 2.38-2.36 2.64h-4.24c-1.8-.26-2.19-2-2.36-2.64a14.51 14.51 0 00-.69-1.72 2 2 0 00-.48-.66.45.45 0 00-.43-.14s-.64.49-1.16.26a1.1 1.1 0 01-.74-1.2c0-.7.86-.88.86-.88a1.79 1.79 0 011.1 0 3.81 3.81 0 012.18 2s.23.52.87 2 1.64.72 1.64.72a1.2 1.2 0 00.54-1.6c-.15-.56-1.12-.29-1.12-.29-.16-1 .17-1.45 1-1.3a1.74 1.74 0 01.93-1.78z" fill="#eed000"/><path d="M100.75 147.44h-10.3l1.37-40.22h7.61zM101.07 169.8H90.13v-18.26h10.94zM90.05 149.46h11.1c.77 0 1.4.47 1.4 1h0c0 .58-.63 1.05-1.4 1.05h-11.1c-.77 0-1.4-.47-1.4-1.05h0c0-.58.63-1 1.4-1z" fill="#eed000" stroke="#002d56" stroke-miterlimit="3.86" stroke-width=".75" fill-rule="evenodd"/><path d="M90.76 147.48h9.68a1.14 1.14 0 011.25 1h0a1.14 1.14 0 01-1.25 1h-9.68a1.14 1.14 0 01-1.25-1h0a1.14 1.14 0 011.25-1z" fill="#eed000" stroke="#002d56" stroke-miterlimit="3.86" stroke-width=".75" fill-rule="evenodd"/><path d="M92.68 155h5.84v12h-5.84zM92.24 106H99c.55 0 1 .32 1 .73s-.45.72-1 .72h-6.76c-.55 0-1-.32-1-.72s.45-.73 1-.73z" fill="#eed000" stroke="#002d56" stroke-miterlimit="3.86" stroke-width=".75"/><path d="M87.8 169.85h15.6V172H87.8z" fill="#eed000" stroke="#002d56" stroke-miterlimit="3.86" stroke-width=".75" fill-rule="evenodd"/><path d="M172 98.79a1.75 1.75 0 01.94 1.78c.81-.16 1.14.27 1 1.29 0 0-1-.26-1.12.29a1.2 1.2 0 00.54 1.56s1 .8 1.64-.71.87-2 .87-2a3.78 3.78 0 012.18-2 1.72 1.72 0 011.1 0s.83.19.86.88a1.11 1.11 0 01-.73 1.21 1.4 1.4 0 01-1.17-.26.48.48 0 00-.43.13 2.44 2.44 0 00-.48.66 14.2 14.2 0 00-.69 1.73c-.17.59-.55 2.37-2.36 2.64h-4.26c-1.8-.27-2.19-2.05-2.36-2.64a14.93 14.93 0 00-.68-1.73 2.4 2.4 0 00-.49-.66.46.46 0 00-.43-.13s-.64.48-1.16.26a1.1 1.1 0 01-.73-1.21c0-.69.85-.88.85-.88a1.72 1.72 0 011.1 0 3.83 3.83 0 012.19 2l.86 2c.63 1.51 1.64.71 1.64.71a1.22 1.22 0 00.55-1.56c-.16-.55-1.13-.29-1.13-.29q-.24-1.53 1-1.29c0-1.45.93-1.78.93-1.78z" fill="#eed000"/><path d="M177.39 147.44h-10.31l1.37-40.22h7.62zM178 169.8h-11l-.11-18.26H178z" fill="#eed000" stroke="#002d56" stroke-miterlimit="3.86" stroke-width=".75" fill-rule="evenodd"/><path d="M166.91 149.46H178c.77 0 1.4.47 1.4 1s-.63 1.05-1.4 1.05h-11.1c-.77 0-1.4-.47-1.4-1.05s.64-1 1.41-1z" fill="#eed000" stroke="#002d56" stroke-miterlimit="3.86" stroke-width=".75"/><path d="M167.48 147.48h9.68a1.14 1.14 0 011.25 1h0a1.14 1.14 0 01-1.25 1h-9.68a1.14 1.14 0 01-1.25-1h0a1.14 1.14 0 011.25-1z" fill="#eed000" stroke="#002d56" stroke-miterlimit="3.86" stroke-width=".75" fill-rule="evenodd"/><path d="M169.46 155h5.85v12h-5.85zM168.83 105.81h6.71c.56 0 1 .33 1 .73s-.44.73-1 .73h-6.71c-.56 0-1-.33-1-.73s.44-.73 1-.73z" fill="#eed000" stroke="#002d56" stroke-miterlimit="3.86" stroke-width=".75"/><path d="M125.24 169.85h15.6V172h-15.6z" fill="#eed000" stroke="#002d56" stroke-miterlimit="3.86" stroke-width=".75" fill-rule="evenodd"/><path d="M174.29 123.26a15 15 0 014.17 2c5.5 4 4.48 7.39 3 7.48-1.7.1 10.79-.24 12.29-1.05s2-1.7 1.1-3.6-7.7-13.53-18.8-15.74-15.49 2.48-14.54 4.06 5 6.51 5.14 8.57c1.14-2.15 3.7-2.76 7.68-1.75z" fill="#eed000" stroke="#002d56" stroke-miterlimit="3.86" stroke-width=".75"/><path d="M166.56 124.24s.8 4.56 9.75 6.87 10.35 5.21 11.8 5.91 5.21 3.4 9.25 2c1.58-.53 6-1.75 6.38-1.48a11.24 11.24 0 01-1.44 2.79c-3 3.51-4.09 4.06-5.19 4.61-2.41 1.2-2.59 1.35-4.3 1.45a10.27 10.27 0 011.85 5.26c.25 3.26 4.6 6.57 4.6 6.57s-5.8-1.51-8.35-5a28.21 28.21 0 00-8.3-7.16c-1.55-.75-9.45-3.46-11.1-4.11s-6.79-3.36-7.49-7.72 2.54-9.61 2.54-9.61z" fill="#eed000" stroke="#002d56" stroke-miterlimit="3.86" stroke-width=".75" fill-rule="evenodd"/><path d="M169 121.1l-2.17-3.1.55 3.34-.85.14-1-5.82.92-.16 2.79 3.9 1.4-4.6.81-.14 1 5.83-1.13.19-.56-3.34-1.15 3.66zM177.81 118.87a3.14 3.14 0 01-1 2 2.07 2.07 0 01-1.78.39 2.12 2.12 0 01-1.48-1 3.2 3.2 0 01-.2-2.2l.07-.33a3.46 3.46 0 011-1.93 2 2 0 011.87-.45 2 2 0 011.49 1.14 3.6 3.6 0 01.14 2.16zm-1.23-.33v-.16a5.39 5.39 0 00.14-1.62.78.78 0 00-.72-.69.8.8 0 00-.9.3 4.6 4.6 0 00-.53 1.6v.14a5.24 5.24 0 00-.16 1.68c.06.32.31.52.74.61a.81.81 0 00.86-.32 3.83 3.83 0 00.56-1.54zM182.55 121.43a3.43 3.43 0 01-1.5 1.61 1.86 1.86 0 01-1.73-.15l-1.8-1 2.81-5.19 1.62.88a2.06 2.06 0 011.22 1.53 3.5 3.5 0 01-.51 2.09zm-1.1-.65l.08-.14a2.82 2.82 0 00.42-1.45 1 1 0 00-.52-.87l-.41-.22-2 3.64.5.28a.9.9 0 00.91 0 3.14 3.14 0 001-1.26zM185.76 121.67l-1.11 1.13 1.19 1.17-.63.64-1.21-1.17-1.16 1.19 1.64 1.61-.62.63-2.54-2.5 4.13-4.22 2.43 2.4-.61.63zM186.34 131l-.63-1.08a5.84 5.84 0 001.62-1.26.81.81 0 00.14-1l-.15-.26-2.32 1.39-.64-1.09 5.08-3 1.12 1.9a1.54 1.54 0 01.26 1.17 1.29 1.29 0 01-.61.75l-.28.17a1.08 1.08 0 01-.84.15 1.33 1.33 0 01-.76-.57 1.58 1.58 0 01-.29 1.32 5.3 5.3 0 01-1.74 1.42zm2.9-3.33l.14-.09a.67.67 0 00.37-.44.86.86 0 00-.15-.58l-.21-.35-1.34.79.17.29a1 1 0 00.48.47.68.68 0 00.54-.08zM170.41 138.3l-1-.76.5-1.39-1.5-1.09-1.17.9-.83-.61 5-3.67 1 .7zm-.27-3l.72-2.16-1.8 1.37zM177 135.84l-1.09-.53-2.2 4.52-1.13-.56 2.2-4.51-1.12-.55.38-.79 3.35 1.63zM179.67 136l-2.3 5.44-1.16-.5 2.3-5.43zM184.13 141.36a3.13 3.13 0 01-1.44 1.69 2.08 2.08 0 01-1.82 0 2.11 2.11 0 01-1.21-1.34 3.13 3.13 0 01.27-2.19l.14-.31a3.46 3.46 0 011.39-1.67 2 2 0 011.91 0 1.94 1.94 0 011.21 1.44 3.55 3.55 0 01-.32 2.14zm-1.12-.59l.06-.15a5.46 5.46 0 00.5-1.55 1 1 0 00-1.51-.74 5 5 0 00-.86 1.46l-.06.13a5 5 0 00-.51 1.6c0 .33.18.58.58.76a.82.82 0 00.92-.13 3.93 3.93 0 00.88-1.38zM188.07 143.85l1.74-3 .78.45-2.94 5.11-.47-.27-.58-4.61-1.85 3.21-.78-.45 2.95-5.12.58.34z" fill="#002d56" fill-rule="evenodd"/><path d="M107.53 97.75s8.58 14.74 26 14.53c17.25-.2 26-14 26-14l4.6 6.82s1.7 2.3-1.6 5.21c-11.65 10.27-20.88 12.28-29 12.22q-18.06-1-29.14-12.22a3.4 3.4 0 01-1.2-3.76z" fill="#eed000" stroke="#002d56" stroke-miterlimit="3.86" stroke-width=".75" fill-rule="evenodd"/><path d="M103.06 108.05s-.53-3 4.17-.58l.35-9.67M164.54 106c-1.5-3.23-4.25.73-4.25.73l-.69-8.45" fill="#eed000" stroke="#002d56" stroke-miterlimit="3.86" stroke-width=".75"/><path d="M116.8 114.92a1.41 1.41 0 01-.79.73 1.49 1.49 0 01-1.21-.15 3.62 3.62 0 01-.61-.39 1.27 1.27 0 01-.32-.35l.41-.81a1.84 1.84 0 00.28.29 2.9 2.9 0 00.41.27.65.65 0 00.41.06.54.54 0 00.35-.32l2-4 1.13.58zM123.2 117.28a1.71 1.71 0 01-.92 1 2 2 0 01-2.77-2.71l1.42-3.71 1.18.45-1.48 3.86a1.13 1.13 0 00-.07.75.9.9 0 00.59.48 1 1 0 00.72 0 1 1 0 00.49-.64l1.47-3.84.88.34zM129.44 118.55a1.63 1.63 0 01-.76 1.31 2.64 2.64 0 01-1.69.24 5.45 5.45 0 01-1-.2 3 3 0 01-.66-.27l.13-1a2.5 2.5 0 00.63.34 4 4 0 00.87.22 1.46 1.46 0 00.86-.07.66.66 0 00.3-.54.7.7 0 00-.11-.47 3 3 0 00-.88-.64 2.63 2.63 0 01-.88-.79 1.79 1.79 0 01-.2-1.16 1.5 1.5 0 01.69-1.08 2.29 2.29 0 011.57-.28 3.76 3.76 0 01.83.19 4.16 4.16 0 01.51.2l-.11.89-.61-.22a4.54 4.54 0 00-.66-.14 1.3 1.3 0 00-.75.07.5.5 0 00-.27.38.64.64 0 00.11.49 3.63 3.63 0 00.92.59 2.27 2.27 0 011 .87 1.71 1.71 0 01.2 1.08zM135.25 115.62h-1.22l-.09 5h-1.26l.09-5h-1.25v-.88l3.72.06zM138.69 114.41l.71 5.86-1.25.16-.72-5.86zM145.74 118.52a1.75 1.75 0 01-.4.3 3.08 3.08 0 01-.73.31 2.41 2.41 0 01-2-.16 3 3 0 01-1.32-1.86l-.07-.23a3.11 3.11 0 01.07-2.26 2.36 2.36 0 011.51-1.3 5.15 5.15 0 01.77-.18 2.15 2.15 0 01.51 0l.27.9a2 2 0 00-.46 0 2.66 2.66 0 00-.63.12 1.25 1.25 0 00-.86.85 2.69 2.69 0 00.09 1.59v.08a2.7 2.7 0 00.8 1.39 1.13 1.13 0 001.08.2 2.25 2.25 0 00.66-.3 4.79 4.79 0 00.4-.29zM147.48 112.26l.72 1.41 1.49-.76.4.8-1.48.76.75 1.48 2-1 .39.78-3.16 1.62-2.59-5.3 3-1.55.4.78z" fill="#002d56" fill-rule="evenodd"/><path d="M67.34 141.33a7.78 7.78 0 00-5.45-1.4 4.49 4.49 0 015.25-1.35c2 .85 3.8 4 9 .7s7.22-5 11.8-6.52 8.39-1.9 9.49-2.3 2.82-1 3.7-6.31c.2-1.21 5 10 5 10s-.7 3.71-5.3 5.81-12.56 3.36-17 6.91c-1.5 1.21-4.38 3.29-6.12 5.84-4.1 6-8.38 6.69-8.38 6.69a17.36 17.36 0 005-8c.2-.85-.13-4.68 1.4-6.21-1.62 1.63-5.72-1.58-5.2-1.15a12.59 12.59 0 00-3.15-2.76z" fill="#eed000" stroke="#002d56" stroke-miterlimit="3.86" stroke-width=".75" fill-rule="evenodd"/><path d="M81.73 127.75c-6.07-2.38-4.19-4-4.19-4 1.49-2.67 3.45-6 10.85-8.87 9.89-3.81 20-2.11 17.29 2.3-1.64 2.68-4.47 7.37-4.47 7.37s-1.18-3.16-6.57-1.15-7.07 2.85-7.39 3.91c-.5 1.65-.3 2.7 3.6 2.1-2.55.86-5.39 0-8.58-1.45z" fill="#eed000" stroke="#002d56" stroke-miterlimit="3.86" stroke-width=".75"/><path d="M87.43 124.28l-.78.48-4.36-4.27 1.09-.66 2.76 2.71-1-3.78.76-.46 2.88 2.63-1.14-3.68.87-.53 1.71 5.87-.78.47-3-2.69zM91.79 115.92l1.73 5.65-1.21.37-1.72-5.65zM98.57 118.94a1.64 1.64 0 01-.4 1.46 2.75 2.75 0 01-1.57.67 6.7 6.7 0 01-1 .07 3.33 3.33 0 01-.71-.09l-.14-1a2.7 2.7 0 00.7.16 3.77 3.77 0 00.89 0 1.58 1.58 0 00.82-.29.77.77 0 00-.08-1 2.84 2.84 0 00-1-.39 2.48 2.48 0 01-1-.54 1.71 1.71 0 01-.5-1.07 1.46 1.46 0 01.39-1.21 2.23 2.23 0 011.44-.68 3.6 3.6 0 01.85 0 3.42 3.42 0 01.55.07l.12.89-.65-.06a3.09 3.09 0 00-.67 0 1.21 1.21 0 00-.7.26.5.5 0 00-.16.44.61.61 0 00.23.44 4 4 0 001 .34 2.29 2.29 0 011.17.57 1.76 1.76 0 01.47 1zM85.37 140.38a3.41 3.41 0 01.55 2.13 1.9 1.9 0 01-1 1.39l-1.8 1-2.85-5.16 1.6-.9a2.06 2.06 0 012-.21 3.54 3.54 0 011.48 1.55zm-1.13.58l-.08-.14a2.88 2.88 0 00-1-1.14 1 1 0 00-1 0l-.42.23 2 3.63.51-.28a.91.91 0 00.5-.75 3.15 3.15 0 00-.52-1.52zM90.68 138.16a3.13 3.13 0 01.25 2.21 2.24 2.24 0 01-3.06 1.3 3.12 3.12 0 01-1.4-1.69l-.13-.31a3.45 3.45 0 01-.28-2.16 2 2 0 011.28-1.43 1.92 1.92 0 011.88.1 3.52 3.52 0 011.34 1.69zm-1.2.43l-.06-.15a5.39 5.39 0 00-.79-1.42.8.8 0 00-1-.16.83.83 0 00-.58.76 4.91 4.91 0 00.47 1.62l.06.14a5.23 5.23 0 00.82 1.46.8.8 0 001 .09.81.81 0 00.53-.76 3.83 3.83 0 00-.41-1.58zM95.33 139.66L92.66 137l1.16 3.19-.82.3-2-5.49.88-.32L95.3 138l.54-4.78.78-.28 2 5.55-1.09.39-1.15-3.18-.46 3.77zM103.09 81.2a1.56 1.56 0 01-.16.56 3.93 3.93 0 01-.45.81 3 3 0 01-1.91 1.31 3.23 3.23 0 01-2.45-.7L97.9 83a3.31 3.31 0 01-1.45-2 2.8 2.8 0 01.49-2.26 4.71 4.71 0 01.58-.71 2 2 0 01.46-.38l.86.6a2.26 2.26 0 00-.44.31 3.21 3.21 0 00-.49.57 1.44 1.44 0 00-.21 1.38 2.9 2.9 0 001.15 1.35h.07a3 3 0 001.66.66 1.39 1.39 0 001.12-.62 3.22 3.22 0 00.4-.74 4.77 4.77 0 00.16-.56zM106.29 73.31a3.43 3.43 0 011.19 2.18 2.75 2.75 0 01-2.7 2.8 3.42 3.42 0 01-2.21-1.1l-.26-.26a3.67 3.67 0 01-1.2-2.11 2.43 2.43 0 01.77-2.09 2.28 2.28 0 012-.78 3.77 3.77 0 012.12 1.12zm-1.09 1l-.13-.12a5.46 5.46 0 00-1.44-1.1.92.92 0 00-1.11.3 1 1 0 00-.3 1.06 5.17 5.17 0 001.18 1.46l.12.12a5.36 5.36 0 001.48 1.14.94.94 0 001-.36 1 1 0 00.25-1 4.2 4.2 0 00-1.09-1.45zM112.13 69.28l-2.28-3.14.85-.61 3.86 5.3-.52.37-5.04-1.4 2.42 3.33-.85.62-3.85-5.31.64-.46zM120.3 66a1.78 1.78 0 010 1.69 3.25 3.25 0 01-1.54 1.27 7.54 7.54 0 01-1.12.43 4.37 4.37 0 01-.82.15l-.47-1a2.6 2.6 0 00.82-.07 4.5 4.5 0 001-.32 1.76 1.76 0 00.81-.6.68.68 0 000-.69.71.71 0 00-.39-.37 3.57 3.57 0 00-1.25-.07 2.92 2.92 0 01-1.34-.2 1.83 1.83 0 01-.89-1 1.57 1.57 0 010-1.43 2.74 2.74 0 011.4-1.23 4.62 4.62 0 01.93-.34 4.55 4.55 0 01.63-.12l.42.91c-.25.05-.5.1-.74.17a3.91 3.91 0 00-.74.27 1.44 1.44 0 00-.69.52.55.55 0 000 .52.68.68 0 00.4.4 4.57 4.57 0 001.26 0 2.59 2.59 0 011.49.21 1.85 1.85 0 01.84.9zM126 60.53l-1.38.37 1.38 5.39-1.43.38-1.44-5.39-1.41.38-.26-.94 4.22-1.13zM129.8 59.07l1.47-.1.46 6.54-1.47.1zM139.17 60.22l-1.43-.1-.38 5.57-1.48-.11.39-5.56-1.45-.1.06-1 4.35.31zM146.34 65.83a1.88 1.88 0 01-1 1.22 3.25 3.25 0 01-3.41-1.05 2.26 2.26 0 01-.05-1.75l1.29-4.25 1.41.43-1.34 4.39a1.2 1.2 0 000 .84 1.12 1.12 0 00.72.5 1.23 1.23 0 00.85 0 1.11 1.11 0 00.51-.74l1.33-4.36 1 .32zM154.57 65.42l-1.27-.65-2.53 5-1.32-.67 2.54-5-1.31-.66.45-.87 3.88 2zM158.19 66.59l1.2.87-3.86 5.3-1.19-.87zM163.94 76.18a3.42 3.42 0 01-2.2 1.15 2.48 2.48 0 01-2-.8 2.55 2.55 0 01-.8-2 3.43 3.43 0 011.14-2.19l.26-.26a3.65 3.65 0 012.18-1.08 2.4 2.4 0 012.07.8 2.29 2.29 0 01.76 2 3.83 3.83 0 01-1.16 2.11zm-1-1.11l.13-.13a5.67 5.67 0 001.12-1.42.93.93 0 00-.29-1.12 1 1 0 00-1-.31 5.25 5.25 0 00-1.48 1.15l-.11.12a5.37 5.37 0 00-1.17 1.46 1.14 1.14 0 001.38 1.32 4.25 4.25 0 001.48-1.07zM168 81.89l3.14-2.28.61.85-5.3 3.85-.37-.51 1.4-5.08-3.33 2.42-.62-.85 5.31-3.85.46.64z" fill="#002d56" fill-rule="evenodd"/><path d="M154.81 129.58s.36-.4.48-.11.14.54 0 .65-.08.17-.23.36-.08.28-.21.37-.2.05-.35 0l-.06.45-.1.38.05.36.26.58-.2-.44.28.48c.21.54 2.19 1.1 2.9 1.42 1.5.66 1.26 3.84 1.42 4.15a43 43 0 01.79 5.23c0 .7-.79 4.51-.87 5.3 0 .39-.14 1.33-.23 2.28 0 .19-.29-.06-.38.11a3 3 0 00-.07 1.08c0 .46-.18.82-.2 1.06a1 1 0 01-.87.94 35.52 35.52 0 01-.19 3.66 6 6 0 000 2.81 15.42 15.42 0 01-.31 4.4s-.81 3.58-1 4.13a2.92 2.92 0 00.19 1.45 7.41 7.41 0 01.07 1h-6.9c-.18 0 .12-.62.35-1.06a1.29 1.29 0 01.9-.59c.47-.08.51-.59.79-1.22a5.23 5.23 0 00-.08-2.79 19.48 19.48 0 01-.55-3.53 13.89 13.89 0 00-.78-3.42 17.78 17.78 0 01-.59-3.73 1.52 1.52 0 00-.12-.34c-.11-.26-.12-.66-.35-1.28a12.31 12.31 0 01-.39-3.57 6.74 6.74 0 00-.67-2.68l-.12-.49-1.21.38-1.18.91a1.47 1.47 0 01-1 .32c-.92.08-1.83-1-2-2.55-.23-1.72.1-2.46 2-2.45H146s.22.41-.12.56a2.88 2.88 0 01-.42.17l.42.49a9.69 9.69 0 011-.55l.26-.62a2.82 2.82 0 000-.91c-.08-.43-.23-2.91-.23-3.5s0-1.29.08-2a9 9 0 01.34-2.58c.38-.73 2.39-1 2.39-1s.88-.1 1-.34c0-.08.26-.46.35-.61-.56-.2-.74-.89-.83-1s-.23-1-.25-1.07-.21-.84-.3-1.13a2.26 2.26 0 010-.82l-.64-.07-.77-.06a5.08 5.08 0 01-.54-.1c-.12 0-.49-.12-.49-.12s-.61-.53 0-1 1.33-.81 1.45-.88a.46.46 0 00.16-.19v-.15a3.64 3.64 0 01-.45-1.14c-.18-.63 1.49-.9 1.49-.9.48 0 2.09.18 1.92.14a5.49 5.49 0 001.2.06 9.51 9.51 0 012 .33 2 2 0 011.18 1c.24.45 1.22 1 1.51 1.29a10.18 10.18 0 011.15 1.64c.35.57 0 .43-.14.5-.55.32-3.58-.36-3.32-.33s.17-.05-.07-.17v.21l-.17.67z" fill="#eed000" fill-rule="evenodd"/><path d="M145.11 148.22a1.47 1.47 0 01-1 .32c-.92.08-1.83-1-2-2.55-.23-1.72 0-2.44 1.7-2.48M151.59 138.08a24.31 24.31 0 01.47-4 .77.77 0 000-.49 1.26 1.26 0 01-1.13-.54M148.94 155.62l.06-.62a2 2 0 00.13-1.12 19.15 19.15 0 01.2-3.89c.18-1 1.76-4.13 1.91-4.95a31.19 31.19 0 00.16-3.3 5 5 0 010-1.18" fill="none" stroke="#002d56" stroke-miterlimit="3.86" stroke-width=".5"/><path d="M147.62 147.42a6.74 6.74 0 01.67 2.68 12.22 12.22 0 00.24 3.57c.22.62.39 1 .5 1.28s.44.35.44.45a17.78 17.78 0 00.59 3.73 12.75 12.75 0 01.62 3.42 20.4 20.4 0 00.55 3.53 5.13 5.13 0 01.08 2.79c-.27.63-.35 1-.78 1.22a1.6 1.6 0 00-.76.54c-.31.38-.67 1.11-.5 1.11h6.6a6.5 6.5 0 00-.08-1c-.08-.4-.55-.95-.39-1.5l1.18-4.08a15.42 15.42 0 00.31-4.4c-.23-2-.31-2-.16-2.67s.33-3.53.33-3.53 1.23-.33 1.31-1.19.56-3.77.64-4.55.87-4.6.87-5.3a43 43 0 00-.79-5.23c-.16-.31 0-2.75-1.49-3.41a8.93 8.93 0 01-2.83-2.16l-.28-.48" fill="none"/><path d="M151 132.67l-.35.61s-3 .65-3.39 1.38a23.28 23.28 0 00-.42 4.55c0 .59.15 3.07.23 3.5a2.82 2.82 0 010 .91M152.73 142.52a7.88 7.88 0 00.78 3.61c.36.55 1.9 3.54 2.24 3.93.21.23.73.31.86.63.68 1.61 0 3.2.93 3.43l.27.92M154.88 132.64a3.67 3.67 0 01-1.91.89c-.24 0-.1.48-.2 1.05a34.88 34.88 0 000 4.44v.82" fill="none" stroke="#002d56" stroke-miterlimit="3.86" stroke-width=".5"/><path d="M155.9 136.85l.4 1.58.55 2.91.2 1.76v2.91l-.16.94-.2.87-.35 2.83a2.63 2.63 0 012.44.43" fill="none" stroke="#002d56" stroke-miterlimit="3.86" stroke-width=".5"/><path d="M148.38 134l.08.27c-.11-.59 1.79 7.81 8.27 11.74l.32.2" fill="none" stroke="#002d56" stroke-miterlimit="3.86" stroke-width=".5"/><path d="M149.65 133.62c.69 2.16 2.72 7.57 7.38 10.39l.06.39M150.63 146.48a5.93 5.93 0 003.05 0M152.51 152.6c.23 1.64.52 3.59.61 3.9.16.55.31 3.3.31 3.3l.08 2.67.08 3.38v3.92a2.44 2.44 0 00-1 2M146 144.2c-.4.6-2.38-.54-2.48 1.17-.07 1.31.18 2.79 1.45 3l.93-.62.25-.25" fill="none" stroke="#002d56" stroke-miterlimit="3.86" stroke-width=".5"/><path d="M144.87 143.62c-.55-8.53-.3-16 1.12-21.65-3.81 5.52-2.24 21.65-2.24 21.65z" fill="#eed000" fill-rule="evenodd"/><path d="M147.11 143.5l-.27.74a3.5 3.5 0 01-.93.41M145.82 144.47a5.22 5.22 0 01.12 3.24M144.89 143.55H146s.22.41-.12.56a1.5 1.5 0 01-.56.15M149.6 127.84l.11.64-.15.27h-1.44a4.14 4.14 0 01-.54-.08c-.12 0-.49-.1-.49-.1s-.56-.74 0-1.19a13.6 13.6 0 011.31-.84c.11-.07.17 0 .17 0M149.6 128v.72M149.7 128.52a2.08 2.08 0 00-.08.9c.09.29.27 1 .3 1.13s.17.89.25 1.07.29.91.9 1.07a2.23 2.23 0 001.7-.21" fill="none" stroke="#002d56" stroke-miterlimit="3.86" stroke-width=".5"/><path d="M150.89 131.26s.3-.11.4-.07a3 3 0 00.4.08 1.58 1.58 0 01.48 0 1.25 1.25 0 00.37 0M151.16 131.64a2.6 2.6 0 001 0M152.15 128.57a1.33 1.33 0 011.21.16M151.33 128.54a1.33 1.33 0 01-.13.68c-.09.16-.11.44-.17.56a1.19 1.19 0 00-.11.44c0 .11 0 .1.18.2s.29 0 .43 0a.69.69 0 01.37 0c.13 0 .3-.06.3-.18a.63.63 0 00-.12-.37l-.26-.19M150.12 128.61c.1 0 .72-.36 1.23 0" fill="none" stroke="#002d56" stroke-miterlimit="3.86" stroke-width=".25"/><ellipse cx="150.66" cy="129.03" rx=".11" ry=".42" transform="rotate(-89 150.652 129.033)" fill="none" stroke="#002d56" stroke-miterlimit="3.86" stroke-width=".25"/><path d="M151 132.67h.07a2.23 2.23 0 001.7-.21M149.49 124.05s-1.61.47-1.41 1.1a3.91 3.91 0 00.5 1.12 11.49 11.49 0 01.54 1.25c.09.23 0 .64.41.46 2.13-1 6.71.76 5.73.68-.27 0 3 .65 3.5.3.11-.07.34-.22 0-.77a11.78 11.78 0 00-1.32-1.55 7.59 7.59 0 01-1.43-1.27 2.18 2.18 0 00-1.36-.88 10 10 0 00-2-.25 3.7 3.7 0 01-1.17-.08 16.81 16.81 0 00-2-.11zM153.37 158a3.87 3.87 0 003.7 0c1.87-1 .35-.19.35-.19M149.36 158.2a4.6 4.6 0 003.81-.11" fill="none" stroke="#002d56" stroke-miterlimit="3.86" stroke-width=".5"/><ellipse cx="152.71" cy="129.09" rx=".11" ry=".44" transform="rotate(-84 152.702 129.088)" fill="none" stroke="#002d56" stroke-miterlimit="3.86" stroke-width=".25"/><path d="M150.25 147.56a7 7 0 004 0" fill="none" stroke="#002d56" stroke-miterlimit="3.86" stroke-width=".5"/><path d="M164.69 169.85h15.59V172h-15.59zM81.74 90.3h104.17v2.31H81.74zM84.54 92.63a10 10 0 013.3 4.29h92.67s1.52-3.58 3.62-4.28z" fill="#eed000" stroke="#002d56" stroke-miterlimit="3.86" stroke-width=".75" fill-rule="evenodd"/><path d="M87.34 97.09h93.17a.62.62 0 01.6.63v.21a.61.61 0 01-.6.62H87.34a.61.61 0 01-.6-.62v-.21a.62.62 0 01.6-.63z" fill="#eed000" stroke="#002d56" stroke-miterlimit="3.86" stroke-width=".75"/><path d="M0 266.62h600v133.25H0z" fill="#b50027"/></svg>