<svg xmlns="http://www.w3.org/2000/svg" width="300" height="300" viewBox="0 0 300 300"><title>flag-missouri-icon-motto</title><path d="M64.37,136.2s40.56,26.15,84.54,26.15,81.51-22,81.51-22,12.13,10.23,11.75,14.4c0,0-29.95,29.95-94.78,29.19S51.1,150.22,51.1,150.22l13.27-14" fill="none" stroke="#000" stroke-width="2.03"/><path d="M231.94,167.53a25.82,25.82,0,0,0,11.11-9.85c4.3-7.08,13.15-18.45,18.46-20h-.76s19.46-.51,28.3,3.29-1.26,4.54-3,5.05-9.6.26-14.15,3.28-21.23,30.85-31.59,31.09c0,0,1.51-2.52,2.52-4.3s1-9.85,5.57-12.88c0,0-5.82,5.31-16.43,4.29Z" fill="none" stroke="#000" stroke-width="2.03"/><path d="M219.05,138.47s2.27-16.3,35.13-21.49c24.87-3.91,41.45,5.32,42.46,6.83s1.77,7.08.75,9.86-1.76,9.35-4.8,10.36c0,0-.09-2.24-4.8-3.54a74.31,74.31,0,0,0-27-2.78c-13.39,1.3-24.15,2.55-29.83,12.64-2.27,4-.75,5.05-.75,5.05s-5.78-4.83-7.84-8.09a20.69,20.69,0,0,1-3.28-8.84" fill="#fff"/><path d="M219.05,138.47s2.27-16.3,35.13-21.49c24.87-3.91,41.45,5.32,42.46,6.83s1.77,7.08.75,9.86-1.76,9.35-4.8,10.36c0,0-.09-2.24-4.8-3.54a74.31,74.31,0,0,0-27-2.78c-13.39,1.3-24.15,2.55-29.83,12.64-2.27,4-.75,5.05-.75,5.05s-5.78-4.83-7.84-8.09a20.69,20.69,0,0,1-3.28-8.84h0Z" fill="none" stroke="#000" stroke-width="2.03"/><path d="M241.29,141s4,9.09,1.26,12.89c0,0-1.26-4.3-5.05-2.28s-5.31,4.81-6.83,3,.51-6.07,4.3-9.11a63.28,63.28,0,0,1,6.32-4.54" fill="#fff"/><path d="M241.29,141s4,9.09,1.26,12.89c0,0-1.26-4.3-5.05-2.28s-5.31,4.81-6.83,3,.51-6.07,4.3-9.11A63.28,63.28,0,0,1,241.29,141Z" fill="none" stroke="#000" stroke-width="2.03"/><path d="M66.14,166.53s-6.83,4.29-18-1.77c0,0,3,10.35,6.07,12.12,0,0-6.58,0-12.89-6.06S30.25,154.9,26.2,152.12,10,148.33,6,144.28,3.2,135.94,3.2,133.41s-3-8.59-1-10.36,10.11-6.82,34.12-4.8,33.36,9.86,34.38,10.62-.51,7.33-1.27,9.85-.75,10.87-2.77,11.37S53,149.85,52,150.6A11.72,11.72,0,0,1,53.25,142s3.28-2.53,13.4,8.08c0,0-6.07-10.11-28.31-12.63S9,141.5,9,141.5s3.54-6.32,29.32-4c0,0,5.3,7.33,6.82,10.87S50.07,158,53.75,161c4,3.29,12.39,5.56,12.39,5.56" fill="#fff"/><path d="M66.14,166.53s-6.83,4.29-18-1.77c0,0,3,10.35,6.07,12.12,0,0-6.58,0-12.89-6.06S30.25,154.9,26.2,152.12,10,148.33,6,144.28,3.2,135.94,3.2,133.41s-3-8.59-1-10.36,10.11-6.82,34.12-4.8,33.36,9.86,34.38,10.62-.51,7.33-1.27,9.85-.75,10.87-2.77,11.37S53,149.85,52,150.6A11.72,11.72,0,0,1,53.25,142s3.28-2.53,13.4,8.08c0,0-6.07-10.11-28.31-12.63S9,141.5,9,141.5s3.54-6.32,29.32-4c0,0,5.3,7.33,6.82,10.87S50.07,158,53.75,161c4,3.29,12.39,5.56,12.39,5.56h0Z" fill="none" stroke="#000" stroke-width="2.03"/><path d="M73.75,150.75c.45-.85.83-1,1.62-.57a2.06,2.06,0,0,1,.85,3c-.92,1.75-2.93,1.49-4.3,1l1.83-3.43m-2.43,4.57c4.43,2.18,6.69.74,7.54-.84.68-1.29.82-3.33-2.34-5l-4.1-2.18c-.29-.15-.7-.24-.91.16s-.13.43.13.71.15.45-.16,1l-3.74,7c-.27.52-.42.73-.86.71-.24,0-.43,0-.57.29s.09.68.38.84l2.72,1.44c.29.16.7.25.91-.15s.05-.43-.24-.79-.17-.6.07-1.06l1.17-2.19"/><path d="M83,165c-2.17-.93-1.53-4-.7-5.93,1.09-2.53,3-4.16,4.75-3.4,2.19,1,1.61,4,.77,5.92S85.22,165.93,83,165Zm-.56,1.14a6.14,6.14,0,0,0,8.09-3.46,6,6,0,1,0-8.09,3.46"/><path d="M97.42,161.23c.31-.92.67-1.12,1.52-.82a2.06,2.06,0,0,1,1.31,2.83c-.64,1.87-2.66,1.92-4.1,1.66l1.26-3.67Zm-1.68,4.89c4.72,1.46,6.73-.32,7.31-2,.48-1.38.3-3.41-3.09-4.58L95.57,158c-.31-.11-.73-.13-.88.3-.1.28-.07.45.24.67s.22.43,0,1l-2.59,7.54c-.19.55-.3.79-.73.85-.24,0-.43.07-.53.36s.21.66.52.77l2.91,1c.31.11.73.13.88-.29s0-.44-.37-.75-.26-.56-.09-1.06l.8-2.34"/><path d="M109.25,162.37c.33.09.68.3.58.7s-.28.4-.57.44c-.51.09-.6.31-.77.83-.39,1.21-1,3.17-1.49,5.06-.8,3.07.32,4,1.68,4.36s2.79-.06,3.57-3.06c.49-1.88.75-3.6,1.18-5.45.09-.4-.05-.48-.34-.76a.58.58,0,0,1-.24-.62c.13-.51.63-.4,1-.31l1.26.33c.36.1.86.24.72.75-.08.3-.28.37-.51.43-.4.1-.55.11-.68.57-.26,1-.62,3.34-1.14,5.38-1,3.94-3.21,4.5-5.85,3.8-2.38-.61-4.31-2.16-3.24-6.27.46-1.77,1.25-4.05,1.47-4.86.16-.62.22-.85-.09-1s-.37-.37-.3-.66a.64.64,0,0,1,.86-.37l2.91.75"/><path d="M118.34,166.73c.11-.6.12-.7-.14-1s-.42-.39-.36-.75.34-.46.81-.37l2.81.49c.47.09.7.25.64.63s-.24.43-.59.59-.37.25-.48.86l-1.38,7.73c-.16,1,0,1,.87,1.21l.55.1a2.28,2.28,0,0,0,2.24-.45c.29-.26.72-.69,1.1-.62a.55.55,0,0,1,.44.63,6.31,6.31,0,0,1-.59,1.45c-.31.65-.45.69-1.11.57l-6.64-1.18c-.47-.08-.7-.24-.63-.62s.24-.43.59-.58.37-.26.48-.87l1.39-7.85"/><path d="M128.57,168.38c.07-.65.1-.88-.23-1s-.42-.31-.38-.61.46-.52.79-.47l2.84.32c.32,0,.71.2.66.64a.46.46,0,0,1-.35.43c-.49.21-.55.45-.62,1l-.91,7.92c-.06.51-.09.77.2,1s.45.34.41.63c-.06.45-.47.52-.79.48l-2.84-.32c-.33,0-.72-.2-.66-.65s.21-.38.43-.47c.41-.14.47-.4.53-1l.92-7.92"/><path d="M145.25,178.42a2.11,2.11,0,0,0,2.3-1.95c0-2.94-6.43-.69-6.47-5.59,0-.81.56-3.83,4.43-3.86a6.94,6.94,0,0,1,3.32.84.85.85,0,0,1,.41.48,7.62,7.62,0,0,1,.11,1.51c0,.39-.17.68-.55.69-.81,0-.7-2.37-3.16-2.36a1.75,1.75,0,0,0-1.87,1.64c0,3,6.37.78,6.41,5.63,0,1.79-1.36,4.26-4.79,4.28-3.69,0-4.67-2.18-4.67-2.9a.83.83,0,0,1,.73-.92c.4,0,.52.1,1.19,1.19a2.93,2.93,0,0,0,2.61,1.32"/><path d="M155.74,166.86c.35,0,.75.06.78.48s-.13.46-.39.59c-.47.25-.48.49-.47,1,0,1.27.08,3.32.22,5.27.23,3.16,1.59,3.7,3,3.6s2.62-1,2.39-4.06c-.14-1.94-.44-3.65-.63-5.54,0-.4-.19-.44-.57-.61-.22-.1-.41-.2-.43-.5,0-.54.47-.59.85-.62l1.3-.09c.37,0,.88,0,.92.48a.58.58,0,0,1-.35.56c-.34.23-.49.29-.45.77.07,1.05.48,3.36.64,5.46.29,4.06-1.59,5.28-4.32,5.48-2.45.18-4.77-.66-5.08-4.9-.13-1.83-.11-4.24-.17-5.07-.05-.65-.07-.88-.42-.95s-.47-.24-.49-.54c0-.45.36-.61.69-.64l3-.21"/><path d="M168.49,168.1c-.13-1,.1-1.29,1-1.4a2.05,2.05,0,0,1,2.43,2c.25,1.95-1.53,2.9-2.93,3.3l-.5-3.85Zm.67,5.13c4.87-.78,5.88-3.27,5.65-5.06-.19-1.44-1.24-3.19-4.8-2.72l-4.6.59c-.33.05-.71.21-.66.67,0,.29.15.42.52.5s.38.28.47.93l1,7.91c.07.57.07.84-.29,1.07-.19.15-.34.27-.31.57s.48.51.81.46l3.05-.39c.33,0,.72-.22.66-.66-.05-.29-.22-.38-.66-.5s-.49-.4-.55-.91l-.32-2.46"/><path d="M180,166.54c-.18-.91-.18-1.43,1-1.66a1.94,1.94,0,0,1,2.52,1.61c.37,1.91-1.58,2.91-3,3.21l-.6-3.16m.86,4.41c.58-.2,1.08-.38,1.41-.53a10.81,10.81,0,0,1,2.54,3.46c.09.46-.56.53-.46,1s.64.44,1,.38l2.89-.55c.28-.06.76-.18.67-.63-.06-.29-.23-.32-.45-.42-.47-.18-.61-.4-.9-.87a12.54,12.54,0,0,0-2.81-3.59,3.71,3.71,0,0,0,1.63-3.61,2.76,2.76,0,0,0-1.83-2.15,5,5,0,0,0-2.53,0l-5.23,1c-.33.07-.7.26-.62.7.06.29.17.42.55.47s.4.26.52.9l1.5,7.83c.11.57.13.84-.22,1.09-.18.16-.32.29-.27.58s.51.48.83.42l2.8-.53c.32-.06.7-.25.61-.7,0-.29-.23-.36-.58-.48s-.39-.38-.49-.89l-.55-2.92"/><path d="M193.81,170.22c.43,1.67.63,1.74,2.61,1.23a2.24,2.24,0,0,0,1.85-1.33c.16-.36.37-.92.75-1a.55.55,0,0,1,.66.39,5.82,5.82,0,0,1,.06,1.56c0,.72-.11.82-.76,1l-7.11,1.84c-.32.08-.74.07-.85-.37-.08-.29.06-.42.23-.59.33-.28.29-.54.14-1.1l-2-7.72c-.17-.63-.22-.86-.59-.87s-.5-.15-.57-.43c-.12-.44.25-.65.57-.74l6.78-1.76c.44-.11.69-.14.85,0a4.34,4.34,0,0,1,.65,1.47c.09.38,0,.74-.35.83s-.54-.11-.79-.31c-.73-.53-1-.57-2.57-.17s-1.49.75-1.4,1.07l.76,3,2.2-.57c1-.27.72-.82,1.21-1s.69.58.8,1,.42,1.34-.16,1.49-.52-.47-1.51-.21l-2.2.57.73,2.79"/><path d="M202.13,158.33c.69-.24.93.23,1.23.63,1.41,1.93,2.68,3.52,4.08,5.11.16-2.13.15-4.43.14-6.84,0-.61,0-.79.63-1l2.43-.84c.31-.11.73-.14.88.29a.44.44,0,0,1-.13.54c-.57.48-.52.71-.32,1.26.57,1.65,1.88,4.73,2.83,7.46.17.49.26.74.61.81s.55.1.65.39-.2.67-.51.77l-2.69.94c-.31.11-.73.14-.88-.29a.53.53,0,0,1,.18-.61c.31-.3.25-.56.06-1.11-.84-2.42-1.74-4.58-2.59-6.77,0,2.49,0,4.78-.1,7.26,0,.83,0,1-.68,1.22s-.83.23-1.3-.29c-1.63-1.75-3.12-3.54-4.75-5.62.7,2.4,1.43,4.8,2.12,6.77.18.56.39.7,1,.72a.53.53,0,0,1,.54.4c.16.47-.34.66-.87.84l-1.23.44c-.38.12-.9.29-1.06-.19a.49.49,0,0,1,.17-.63c.41-.43.41-.61.22-1.16-.74-2.12-2.37-7.56-2.51-8s-.44-.37-.82-.37-.6,0-.74-.35c-.17-.52.26-.7.63-.82l2.76-1"/><path d="M218.31,159.51a40.77,40.77,0,0,1-.34-4.72,31.31,31.31,0,0,1,3.39,3.28l-3.05,1.44m4-.37a10.22,10.22,0,0,1,1.7,2c.17.35-.45.57-.22,1.05s.74.24,1,.09l2.3-1.08c.33-.15.66-.4.45-.83a.49.49,0,0,0-.46-.32.94.94,0,0,1-.63-.29,75.13,75.13,0,0,0-7.69-7.54c-.52-.42-.56-.47-1.25-.15s-.85.44-.85,1.08a53.56,53.56,0,0,0,.91,10.77.93.93,0,0,1-.18.67.62.62,0,0,0-.08.59c.23.5.61.34,1,.14l1.11-.52c.43-.2.88-.43.66-.9s-.9-.07-1.22-.74a7.21,7.21,0,0,1-.43-2.26l3.81-1.79"/><path d="M222.64,138c-.43-.44-.5-.5-.86-.47s-.52.08-.78-.18-.19-.51.11-.81l1.79-1.8c.3-.3.55-.37.82-.1s.23.43.18.78,0,.43.46.86l5.55,5.56c.69.7.83.56,1.4.06l.35-.35a1.9,1.9,0,0,0,.75-1.93c-.06-.36-.2-.93.05-1.18a.52.52,0,0,1,.73.06,6.36,6.36,0,0,1,.87,1.27c.37.63.34.75-.08,1.17l-4.24,4.23c-.3.31-.55.38-.82.11s-.22-.43-.18-.79,0-.41-.46-.85L222.64,138"/><path d="M235.63,136.31c.82,1.51,1,1.53,2.62.67a1.88,1.88,0,0,0,1.26-1.63c.05-.37.08-.95.39-1.12a.53.53,0,0,1,.68.26A6.43,6.43,0,0,1,241,136c.19.69.12.8-.4,1.09l-5.73,3.12a.58.58,0,0,1-.85-.18.54.54,0,0,1,.06-.62c.21-.32.1-.57-.17-1.08l-3.81-7c-.31-.57-.43-.77-.75-.71a.51.51,0,0,1-.62-.3.58.58,0,0,1,.31-.82l5.47-3c.35-.18.56-.27.74-.17a4.64,4.64,0,0,1,1,1.28c.19.34.23.7-.07.86s-.51,0-.78-.15c-.78-.37-1.07-.34-2.3.33s-1.1,1-.94,1.29l1.46,2.67,1.77-1c.83-.45.41-.92.8-1.14s.76.42,1,.79.73,1.2.27,1.45-.59-.34-1.39.09l-1.77,1,1.39,2.54"/><path d="M241.78,136.51c-.28.07-.69.13-.82-.35s.09-.51.28-.7a2.17,2.17,0,0,0,.55-1.26A31.43,31.43,0,0,1,243,130a25.67,25.67,0,0,1-3.51-3.62,1.29,1.29,0,0,0-.64-.5.69.69,0,0,1-.58-.49.48.48,0,0,1,.28-.62l2.78-.72c.28,0,.64-.12.77.35s-.29.59-.22.86c.1.42.8,1.14,2.57,2.7.71-2.37.9-3,.8-3.4s-.73-.24-.88-.81c-.11-.41.2-.54.45-.61l1.47-.37c.47-.13.84-.2,1,.31a.72.72,0,0,1-.25.72.9.9,0,0,0-.3.54,30.94,30.94,0,0,1-1.35,4.42,33.82,33.82,0,0,1,3.95,3.85,1.54,1.54,0,0,0,.86.63.61.61,0,0,1,.49.45c.13.5-.3.63-.6.71l-2.9.75a.59.59,0,0,1-.51-.46c-.12-.45.34-.6.28-.81-.11-.42-.81-1.13-3-3.08-.72,2.44-.91,3.14-.74,3.79s.7.39.83.87a.47.47,0,0,1-.25.57l-2,.5"/><path d="M257.86,130.85c0,1.72.18,1.84,2,1.84a1.91,1.91,0,0,0,1.89-.85c.21-.3.51-.79.86-.8a.52.52,0,0,1,.48.55,6.08,6.08,0,0,1-.28,1.52c-.17.7-.27.76-.88.77l-6.52,0c-.29,0-.65-.11-.66-.56a.53.53,0,0,1,.33-.52c.35-.19.38-.46.37-1l-.05-8c0-.65,0-.89-.31-1a.48.48,0,0,1-.4-.55c0-.46.35-.58.65-.58l6.23,0c.4,0,.62,0,.73.19a4.55,4.55,0,0,1,.24,1.58c0,.39-.13.72-.48.73s-.44-.25-.61-.5c-.51-.7-.78-.81-2.18-.81s-1.44.36-1.44.7l0,3.05h2c.94,0,.79-.62,1.25-.62s.47.73.47,1.14.08,1.4-.46,1.41-.35-.58-1.26-.58h-2v2.89"/><path d="M267.45,133.1a2,2,0,0,0,2.16-1.82c.16-2.93-5.66-1.05-5.39-5.94a3.79,3.79,0,0,1,4.16-3.6,5.6,5.6,0,0,1,2.9,1,.79.79,0,0,1,.33.5,8.34,8.34,0,0,1,0,1.5c0,.41-.19.68-.53.66-.72-.05-.48-2.4-2.66-2.51a1.61,1.61,0,0,0-1.76,1.51c-.16,3,5.6,1.14,5.34,6a4.16,4.16,0,0,1-4.51,4c-3.28-.18-4-2.44-4-3.15,0-.47.32-.91.71-.89s.45.12,1,1.26a2.55,2.55,0,0,0,2.23,1.46"/><path d="M276.39,124.75c.07-.69.08-.9-.43-1-1.51-.16-1.76,1.2-2.37,1.13-.32,0-.41-.29-.37-.68a8.43,8.43,0,0,1,.23-.93c.26-1,.39-1,1-.93l6.8.77c.59.06.72.07.75,1.12a8.76,8.76,0,0,1,0,1c-.05.37-.19.61-.51.58-.61-.07-.55-1.46-2.06-1.63-.52-.06-.56.16-.63.84l-.88,7.9c-.06.52-.09.78.17,1s.39.33.35.62a.57.57,0,0,1-.71.5l-2.52-.29c-.29,0-.63-.19-.58-.63s.18-.38.38-.48c.37-.14.42-.41.49-1l.89-7.9"/><path d="M286.53,135.51c-2-.47-1.9-3.63-1.42-5.64.62-2.68,2.08-4.66,3.74-4.27,2.07.49,2,3.55,1.48,5.6s-1.72,4.79-3.8,4.31Zm-.34,1.22c2.83.66,5.84-1.35,6.69-5s-.9-6.71-3.76-7.36-5.72,1.35-6.56,5c-.95,4,1.17,6.83,3.63,7.4"/><path d="M17.82,133.47a2.12,2.12,0,0,0,2-2.29c-.48-2.9-6.46.32-7.26-4.52-.14-.78,0-3.86,3.77-4.49a7,7,0,0,1,3.42.31.85.85,0,0,1,.48.42,7.78,7.78,0,0,1,.35,1.46c.06.39-.07.7-.44.76-.8.14-1.07-2.22-3.5-1.82A1.75,1.75,0,0,0,15,125.2c.5,3,6.42-.21,7.21,4.56.29,1.78-.68,4.43-4.06,5-3.64.61-5-1.42-5.07-2.13a.82.82,0,0,1,.58-1c.4-.08.53,0,1.36,1a3,3,0,0,0,2.78.9"/><path d="M26,128.4a39.22,39.22,0,0,1,1.73-4.4,31.13,31.13,0,0,1,1.64,4.42l-3.37,0m3.77,1.4a9.84,9.84,0,0,1,.66,2.57c0,.38-.64.32-.65.85s.57.53.91.53l2.54,0c.36,0,.77-.09.77-.57a.48.48,0,0,0-.28-.48,1,1,0,0,1-.45-.54,73.66,73.66,0,0,0-3.68-10.12c-.28-.6-.3-.67-1.06-.67s-1,0-1.24.6a54.5,54.5,0,0,0-3.82,10.11.87.87,0,0,1-.45.52c-.17.14-.32.27-.32.5,0,.55.4.58.85.58h1.23c.48,0,1,0,1-.52S25,132.73,25,132a6.77,6.77,0,0,1,.58-2.23l4.21,0"/><path d="M36,124c.08-.61.09-.71-.2-1s-.44-.37-.39-.73.31-.47.79-.41l2.83.35c.48.06.72.2.67.58s-.22.45-.56.62-.35.28-.42.89l-1,7.8c-.12,1,.09,1,.93,1.16l.55.07a2.3,2.3,0,0,0,2.22-.58c.28-.27.68-.72,1.07-.68a.56.56,0,0,1,.47.62,6,6,0,0,1-.51,1.46c-.28.68-.41.73-1.08.65L34.69,134c-.48-.06-.72-.2-.67-.59s.22-.44.56-.61.35-.28.42-.9L36,124"/><path d="M48.84,123.74c.34.08.69.28.6.68s-.25.41-.54.46c-.52.11-.59.33-.74.87-.35,1.21-.87,3.2-1.29,5.11-.67,3.1.48,4,1.85,4.3S51.5,135,52.16,132c.42-1.9.61-3.63,1-5.49.08-.4-.06-.48-.37-.75a.6.6,0,0,1-.27-.61c.12-.52.62-.43,1-.35l1.28.28c.37.08.86.21.75.73-.07.3-.26.37-.49.44-.4.11-.56.13-.66.61-.23,1-.49,3.35-.94,5.41-.86,4-3,4.61-5.69,4-2.4-.53-4.39-2-3.48-6.13.39-1.8,1.09-4.1,1.27-4.92.14-.63.19-.87-.13-1s-.38-.35-.32-.65.52-.48.85-.41l2.93.64"/><path d="M58,137.87a2.11,2.11,0,0,0,2.86-1c1.07-2.74-5.72-3-3.93-7.59.29-.75,1.94-3.35,5.55-1.94a6.91,6.91,0,0,1,2.77,2,.86.86,0,0,1,.2.6,7.2,7.2,0,0,1-.45,1.43c-.15.37-.42.58-.77.43-.75-.29.22-2.45-2.07-3.35a1.74,1.74,0,0,0-2.34.83c-1.09,2.79,5.63,3.09,3.86,7.6-.66,1.67-2.85,3.45-6,2.19-3.44-1.34-3.52-3.76-3.26-4.43a.84.84,0,0,1,1-.58c.38.15.45.28.66,1.55A3,3,0,0,0,58,137.87"/></svg>