<svg xmlns="http://www.w3.org/2000/svg" width="260" height="300" viewBox="0 0 260 300"><path d="M184.51 24.16l-33.4 47.59-2.11-1.47 33.41-47.57zM232.31 57.49l-77.62 29.84-.91-2.33 77.61-29.85zM250.12 114.76l-94.39-11.31.3-2.53 94.4 11.32z"/><path d="M107.36 111.49a.47.47 0 01-.06-.09c-10.81-14.28.18-19.53.4-29.63 7.16 13.28-3.33 17.41 9.14 29.73z" fill="none" stroke="#000" stroke-linecap="round" stroke-linejoin="round" stroke-width="2"/><path d="M119.3 111.5c-3.8-5.36-6.47-13.9-5.33-19.49s5-11.07 4.46-15.29c2 4.75 4.51 4.76 3.93 8.26 3-9 4.31-15.94 13.74-16.4-10 14.49 10.24 26.86-4.39 42.93z" fill="none" stroke="#000" stroke-linecap="round" stroke-linejoin="round" stroke-width="2"/><path d="M134.85 111.52c13.47-16.25-3.67-24.58 12-31.86.57 4.8-3.26 4.8-1.57 10.68a11.62 11.62 0 01-.89 6.4c1.59-1.95 4.68-5.63 6.65-7.06-4.65 7 4.09 13.13-7.11 21.84h-9.26M135.88 153.76c.71-18.11 4.59-23.62 11.94-31.2h-43.15c7.31 7.58 11.18 13.1 11.86 31.21zM126.14 198l5.64 17.69 3.11-52.48h-17.42l3 52.51zM126.06 277.29c2.48-2.31 3.19-9.82 3.19-9.82l1.55-30.68-4.7-3.3-4.71 3.29 1.5 30.69s.66 7.49 3.16 9.82zM151.27 119.31h-50.12v-4.81h50.14zM139.07 161.6h-26.44v-5.92h26.45z" fill="none" stroke="#000" stroke-linecap="round" stroke-linejoin="round" stroke-width="2"/><path d="M1.81 114.76l94.39-11.31-.29-2.53L1.5 112.24zM19.75 57.49l77.62 29.84.91-2.33-77.61-29.88zM67.81 24.16l33.41 47.59 2.07-1.47-33.41-47.57zM124.59 55.38v10.17h2.54V55.38z"/></svg>