<?xml version="1.0" encoding="utf-8"?>
<!-- Generator: Adobe Illustrator 23.0.1, SVG Export Plug-In . SVG Version: 6.00 Build 0)  -->
<svg version="1.1" id="Layer_1" xmlns="http://www.w3.org/2000/svg" xmlns:xlink="http://www.w3.org/1999/xlink" x="0px" y="0px"
	 viewBox="0 0 600 400" style="enable-background:new 0 0 600 400;" xml:space="preserve">
<style type="text/css">
	.st0{fill:#FFFFFF;}
	.st1{fill:#DC3632;}
	.st2{fill:#35498F;stroke:#35498F;stroke-width:0.2;}
	.st3{fill:#35498F;}
</style>
<g>
	<rect class="st0" width="600" height="400"/>
	<g>
		<g>
			<path class="st1" d="M405.9,202.1c-5,0-9.5,2.5-12.2,6.2c-7.8-8-22.2-27.5-11.9-55.5c1.7,0.8,3.7,1.2,5.7,1.2c7.7,0,14-6.3,14-14
				s-6.3-14-14-14c-0.2,0-0.4,0-0.5,0c0.7-1.7,1.1-3.6,1.1-5.6c0-8.2-6.7-14.9-14.9-14.9c-4.9,0-9.3,2.4-12,6.1
				c-1.2-6.2-9.3-34.5-60.7-34.8v0c0,0-0.1,0-0.1,0c0,0-0.1,0-0.1,0v0c-49.7,0.3-58.9,26.7-60.6,34.1c-2.7-3.3-6.9-5.4-11.5-5.4
				c-8.2,0-14.9,6.7-14.9,14.9c0,3.2,1,6.1,2.7,8.5c-1.1-0.3-2.2-0.5-3.3-0.5c-6.7,0-12.1,5.4-12.1,12.1c0,6.7,5.4,12.1,12.1,12.1
				c3.8,0,7.2-1.8,9.4-4.6c5.9,16-8.9,44.8-11.3,47.2c-2.5,2.5-3.8,0.5-3.8,0.5c-1.8-14.8-10.5-17.3-10.5-17.3
				c-8.2,5.2-7.2,25.2-7.2,25.2c-16.8-3.7-22.8,4.2-22.8,4.2c26.7,7.3,43,73.3,43,73.3c24.1,50.2,67.3,40.8,78.1,37.5
				c0,0.3,0,0.5,0,0.8c0,7.4,6,13.4,13.4,13.4c7.4,0,13.4-6,13.4-13.4c0-0.9-0.1-1.9-0.3-2.7l2.2,1.5c0,0,24.2,11.5,47.3-3.4
				c14.8-6.9,23.6-17.6,28.8-28.4c8.1-13.4,11.2-30.7,5.7-56.2c2.3,1.4,5,2.3,7.9,2.3c8.4,0,15.1-6.8,15.1-15.1
				C421,208.9,414.2,202.1,405.9,202.1z M297.8,306.4c1.4-2.1,2.3-4.7,2.4-7.4c0.1,2.6,0.9,5.1,2.2,7.2c-0.5-0.1-1.1-0.1-1.6-0.1
				C299.8,306,298.8,306.1,297.8,306.4z M323.4,309.1c3-2.6,4.8-6.3,4.8-10.6c0-7.7-6.3-14-14-14c-7.6,0-13.8,6.1-14,13.6
				c-0.2-7.5-6.4-13.6-14-13.6c-7.7,0-14,6.3-14,14c0,3.6,1.3,6.8,3.5,9.3c-23.2,2.8-55.2-20.1-57.4-52.7
				c-2.3-33.7,4.7-47.3,15-74.3c9.1-23.8-1.6-41.6-4.2-45.4c7-0.5,12.7-5.9,13.7-12.8l0.4-0.2c2.3,2.8,5.9,4.7,9.8,4.7
				c7,0,12.7-5.7,12.7-12.7c0-1-0.1-1.9-0.3-2.8c8.7-9.6,29-12.2,33.9-12.6c1.3,0,2.9,0.1,4.7,0.5v-0.1c7.4,1,23.6,4,31.2,12.3l0,0
				c-0.1,0.6-0.2,1.3-0.2,1.9c0,7.2,5.9,13.1,13.1,13.1c3.7,0,7.1-1.6,9.5-4.1l0.9,0.4c1.2,7.1,7.3,12.5,14.7,12.5
				c0.4,0,0.8,0,1.2-0.1c-0.1,0.3-0.2,0.5-0.3,0.8l-0.6-0.7c0,0-28,49.2,14.7,86.4l0,0.2c-1.5-0.6-3.2-1-5-1c-7.2,0-13,5.8-13,13
				c0,6.9,5.5,12.6,12.3,12.9c0,0.2,0,0.3,0,0.5c0.1-0.2,0.3-0.3,0.4-0.5c0.1,0,0.2,0,0.2,0c0.5,0,1,0,1.5-0.1
				C384.6,250.8,383.5,316,323.4,309.1z"/>
			<path class="st2" d="M353.7,220.3c-4.8,2.5-18.7,9-18.7,9l11.1,3.3c0,0-15.6,14.3-22.8,18.9c-0.1-0.1-0.2-0.1-0.3-0.2l0.8-3.4
				c1.5-0.2,2.8-1.3,2.9-2.7l0.3-2.6c0.2-1.3-0.6-2.5-1.8-3.1l0.3-3.8c1.7-0.8,2.4-2.5,1.7-4l-1.1-2.4c-0.6-1.2-1.9-1.9-3.3-1.9
				l-1.7-3.2c1.2-1.3,1.2-3.2-0.1-4.3l-2.1-1.8c-1-0.9-2.5-1.1-3.8-0.6l-3-2.5c0.3-1.8-0.9-3.4-2.8-3.7l-2.9-0.4c-0.3,0-0.6,0-0.9,0
				v-39l1.5-0.1c1.2,1,3,1.1,4.4,0.2l2.3-1.6c1.2-0.8,1.6-2.1,1.3-3.3l3-2.2c1.5,0.9,3.5,0.7,4.6-0.5l1.9-2c0.9-1,1-2.4,0.4-3.5
				l2.3-2.7c1.9,0.3,3.7-0.7,4.1-2.3l0.6-2.2c6.1-1.4,11-2.8,12.1-3.8c0,0,0.3-0.8,0.4-2h0v-6.4H331c-0.1-0.2-0.2-0.4-0.4-0.6
				l-1.9-2c-0.9-1-2.4-1.3-3.7-0.9l-2.5-2.4c1-1.3,0.8-3-0.4-4.1l-2.1-1.8c-1-0.9-2.6-1-3.8-0.5l-2.8-2.2c0.4-0.7,0.4-1.6,0.1-2.4
				l-0.3-0.7c0,0,0,0,0-0.1c0-7.7-6.3-14-14.1-14c-7.8,0-14.1,6.3-14.1,14c0,5.6,3.3,10.4,8.1,12.6h-0.4v5h-38.8v6.4h0
				c0.1,1.1,0.4,2,0.4,2c2.8,2.5,29.3,7.5,38.4,9.1v14l-2.9,0.6c-0.6-1.3-2.2-2.2-3.8-1.9l-2.9,0.4c-1.9,0.3-3.1,2-2.8,3.8
				c0,0,0,0.1,0,0.1l-2.9,1.9c-1.2-1-3-1.2-4.3-0.4l-2.4,1.5c-1.4,0.8-1.9,2.5-1.2,3.9l-2.2,2.9c-1.5-0.6-3.2-0.2-4.2,0.9l-1.7,2.1
				c-1.1,1.3-0.8,3.3,0.7,4.4l-0.4,3.7c-1.6,0.1-3,1.2-3.2,2.6l-0.4,2.6c-0.3,1.7,1.1,3.3,3.1,3.6c0.2,0,0.4,0,0.6,0c0,0,0,0,0,0
				l3.3,2.2c-0.7,1.3-0.4,2.9,0.8,3.8l2.2,1.7c1.3,1,3.2,0.9,4.5-0.1l4,0.1c0.3,1.4,1.6,2.6,3.2,2.6l2.9,0.2
				c1.4,0.1,2.7-0.7,3.3-1.8l3.6,0.2c0.2,1.4,1.4,2.6,3,2.8l0.1,0v40.1c-0.8,0.5-1.9,0.6-3.2,0.3c-6.2-1.6-13.8-1.6-24.9-10.7
				c-11.1-9-11.1-10.7-11.1-10.7l10.4-4.1c0,0-10.4-2.5-17.3-8.2c-6.9-5.8-12.4-10.7-12.4-10.7s-0.7,12.3,2.8,21.4
				c3.5,9,10.4,17.3,10.4,17.3v-10.7c0,0,9.7,10.7,13.1,13.1c3.5,2.5,17.3,9,22.8,13.2c3.2,2.4,8.2,7.2,11.9,10.9
				c1.7,1.3,3.2,2.9,4.4,4.7c0.2-0.1,0.3-0.2,0.5-0.2c0,0,0,0,0,0c1-1.4,6.7-8.8,12.1-13.3c0.1,0.8,0.5,1.6,1.2,2.1l-1.6,2.9
				c-1.6-0.4-3.2,0.1-4,1.4l-1.4,2.3c-0.9,1.5-0.3,3.4,1.5,4.3c1.7,0.9,3.9,0.4,4.9-1.1l1.4-2.3c0.7-1.1,0.5-2.5-0.4-3.5l1.8-3.2
				c1.6,0.2,3.2-0.6,3.8-2l1-2.5c0.4-1,0.2-2.2-0.6-3c6.3-3.2,13.3-7.2,16.9-10c4.1-3.3,15.2-15.6,15.2-15.6v14
				c0,0,7.6-10.7,9.7-18.1c2.1-7.4,2.8-20.5,2.8-20.5S358.5,217.8,353.7,220.3z M325.3,242.9l-0.2,1.5c-0.1,1-1.1,1.7-2.1,1.6
				c-1-0.1-1.8-1-1.7-2l0.2-1.5c0.1-0.9,1-1.6,1.9-1.6c0.2,0.1,0.3,0.2,0.5,0.2c0.1,0,0.1,0,0.2,0
				C324.9,241.4,325.4,242.1,325.3,242.9z M324.7,230.3l0.7,1.4c0.4,0.9,0,2-1,2.3c-1,0.4-2.1-0.1-2.5-1l-0.7-1.4
				c-0.4-0.9,0-1.8,0.8-2.2c0.2,0,0.4,0,0.5-0.1c0.1,0,0.1-0.1,0.2-0.1C323.5,229.2,324.4,229.6,324.7,230.3z M318.1,219.5l1.2,1.1
				c0.8,0.7,0.8,1.8,0.1,2.5c-0.7,0.7-2,0.7-2.7,0l-1.2-1.1c-0.7-0.7-0.8-1.7-0.2-2.3c0.2,0,0.3-0.1,0.5-0.3
				c0.1-0.1,0.1-0.1,0.1-0.2C316.6,218.8,317.5,218.9,318.1,219.5z M306.7,212.4l1.6,0.3c1.1,0.2,1.8,1.1,1.6,2
				c-0.2,0.9-1.2,1.6-2.3,1.4l-1.6-0.3c-0.2,0-0.4-0.1-0.6-0.2v-3.1C305.9,212.4,306.3,212.3,306.7,212.4z M312.3,126.7l2.2,1.7
				c-0.8,1.3-0.6,2.9,0.6,3.9l2.1,1.8c1,0.8,2.3,1,3.6,0.6l2.4,2.4c-0.6,0.7-0.8,1.5-0.7,2.3h-16.9v-5h-0.4
				C308.4,132.8,310.9,130.1,312.3,126.7z M305.5,156.8c4-0.7,11.4-2.1,18.7-3.6c0.1,0.7,0.4,1.3,0.9,1.9l-1.9,2.2
				c-1.4-0.7-3.2-0.4-4.2,0.7l-1.9,2c-0.8,0.9-1,2.1-0.5,3.2l-2.8,2c-1.2-0.9-3-1.1-4.3-0.2l-2.4,1.6c-1.1,0.7-1.5,1.9-1.3,3.1
				l-0.3,0V156.8z M312.2,169.3l-1.3,0.9c-0.9,0.6-2.1,0.4-2.7-0.3c-0.6-0.8-0.4-1.9,0.5-2.4l1.3-0.9c0.8-0.6,2-0.4,2.6,0.2
				c0,0.2,0.1,0.3,0.2,0.5c0,0.1,0.1,0.1,0.2,0.1C313.2,168,312.9,168.8,312.2,169.3z M322.7,161.7l-1.1,1.2
				c-0.7,0.8-1.9,0.9-2.7,0.2c-0.8-0.6-0.9-1.7-0.2-2.5l1.1-1.1c0.7-0.7,1.8-0.8,2.6-0.3c0.1,0.2,0.2,0.3,0.3,0.4
				c0.1,0,0.1,0.1,0.2,0.1C323.4,160.2,323.3,161.1,322.7,161.7z M329.7,152.9c-0.2,0.9-1.2,1.5-2.2,1.4c0,0-0.1-0.1-0.1-0.1
				c-0.2-0.1-0.5-0.2-0.7-0.2c-0.4-0.3-0.6-0.6-0.7-1c1.3-0.3,2.7-0.6,3.9-0.9L329.7,152.9z M327.8,138.2l1.1,1.2c0,0,0,0,0,0h-4.4
				c0-0.5,0.1-1,0.5-1.3c0.2,0,0.4-0.1,0.5-0.2c0.1,0,0.1-0.1,0.1-0.2C326.3,137.4,327.3,137.6,327.8,138.2z M319.3,129l1.2,1
				c0.8,0.7,0.9,1.8,0.2,2.5c-0.1,0-0.1,0.1-0.2,0.1c0,0-0.1,0-0.1,0.1c0,0,0,0,0,0.1c-0.7,0.4-1.7,0.3-2.4-0.2l-1.2-1
				c-0.8-0.6-0.9-1.7-0.3-2.3c0.2-0.1,0.3-0.1,0.5-0.3c0-0.1,0.1-0.1,0.1-0.2C317.7,128.4,318.6,128.5,319.3,129z M292.6,208.7
				c-1.1,0.1-2.1,0.7-2.7,1.7l-3.7-0.2c-0.3-1.4-1.6-2.6-3.2-2.7l-2.9-0.2c-1.4-0.1-2.7,0.7-3.3,1.8l-3,0c0.2-1.1-0.2-2.2-1.2-2.9
				l-2.2-1.7c-1.1-0.8-2.6-0.9-3.9-0.3l-2.4-1.7c0.5-0.5,0.9-1,1-1.7l0.4-2.6c0.2-1.3-0.5-2.5-1.7-3.1l0.4-3.4
				c1.1,0,2.2-0.4,2.9-1.2l1.7-2.1c0.9-1,0.9-2.4,0.1-3.5l2-2.7c1.1,0.6,2.6,0.6,3.7,0l2.4-1.5c1.2-0.7,1.7-2,1.4-3.3l2.9-1.9
				c0.8,0.6,1.8,1,2.9,0.8l2.9-0.4c1.4-0.2,2.5-1.2,2.8-2.5l2.7-0.5V208.7z M284,171.3l1.6-0.3c1-0.2,2,0.4,2.2,1.2
				c-0.1,0.2-0.1,0.3,0,0.5c0,0.1,0.1,0.1,0.1,0.2c-0.1,0.7-0.8,1.3-1.6,1.5l-1.6,0.3c-0.9,0.1-1.8-0.3-2.2-1c0,0,0,0,0,0
				c0-0.1-0.1-0.2-0.1-0.3C282.2,172.4,282.9,171.5,284,171.3z M272.1,177.8l1.4-0.8c0.9-0.5,2-0.4,2.6,0.3c0,0.2,0.1,0.3,0.2,0.5
				c0,0.1,0.1,0.1,0.2,0.1c0.2,0.7-0.1,1.5-0.8,1.9l-1.4,0.8c-0.9,0.6-2.1,0.4-2.7-0.4C271,179.4,271.2,178.3,272.1,177.8z
				 M263.1,187.1l1-1.2c0.6-0.8,1.7-0.9,2.5-0.5c0.1,0.2,0.2,0.3,0.3,0.4c0.1,0,0.1,0,0.2,0.1c0.5,0.6,0.5,1.4-0.1,2.1l-1,1.2
				c-0.7,0.8-1.9,1-2.7,0.4C262.6,189,262.4,187.9,263.1,187.1z M259.8,199.6l0.2-1.5c0.2-0.9,1-1.6,2-1.5c0.1,0.1,0.3,0.2,0.5,0.2
				c0.1,0,0.1,0,0.2,0c0.7,0.3,1.2,1.1,1,1.9l-0.2,1.5c-0.2,1-1.1,1.7-2.2,1.5C260.3,201.4,259.6,200.5,259.8,199.6z M268.7,209.7
				l-1.3-1c-0.8-0.6-1-1.6-0.4-2.3c0.2-0.1,0.3-0.2,0.4-0.3c0-0.1,0.1-0.1,0.1-0.2c0.7-0.4,1.6-0.4,2.3,0.2l1.3,1
				c0.8,0.6,1,1.7,0.3,2.5C270.8,210.2,269.5,210.3,268.7,209.7z M282.1,212.5l-1.7-0.1c-1-0.1-1.8-0.8-1.9-1.7
				c0.1-0.1,0.2-0.3,0.2-0.5c0-0.1,0-0.1,0-0.2c0.3-0.7,1.1-1.1,2-1.1l1.7,0.1c1.1,0.1,1.9,0.9,1.9,1.8
				C284.1,211.8,283.2,212.5,282.1,212.5z M291.6,212c0.1-0.1,0.2-0.3,0.2-0.5c0-0.1,0-0.1,0-0.2c0.2-0.4,0.5-0.6,0.9-0.8v3
				C292,213.2,291.6,212.7,291.6,212z M299.1,130.4c-4.8,0-8.7-3.9-8.7-8.6c0-4.8,3.9-8.6,8.7-8.6c1.8,0,3.5,0.6,5,1.6
				c0,0.2,0.1,0.4,0.2,0.6l2.2,3.6c-0.8,0.8-1.1,2-0.6,3.1l1,2.5c0.1,0.2,0.2,0.4,0.3,0.5C305.8,128.2,302.7,130.4,299.1,130.4z
				 M305.5,254v-36.7l2.5,0.4c1.1,0.2,2.1-0.2,2.9-0.8l2.4,1.9c-0.8,1.3-0.7,2.9,0.5,3.9l2.1,1.8c0.9,0.8,2.1,1,3.2,0.8l1.5,2.8
				c-1.3,0.9-1.8,2.4-1.2,3.7l1.2,2.4c0.5,1,1.5,1.6,2.6,1.8l-0.2,3.1c-1.6,0.2-2.9,1.3-3.1,2.7l-0.3,2.6c-0.2,1.3,0.7,2.6,2,3.1
				l-0.7,3.1c-1.6,0-3.1,0.9-3.5,2.3l-0.3,1.2C313.1,255.2,308.4,255.5,305.5,254z M312.1,277l-0.8,1.3c-0.5,0.9-1.7,1.2-2.6,0.7
				c-0.9-0.5-1.2-1.5-0.7-2.4l0.8-1.3c0.5-0.8,1.6-1.1,2.5-0.8c0.1,0.1,0.2,0.3,0.4,0.3c0.1,0,0.1,0,0.2,0
				C312.4,275.4,312.5,276.3,312.1,277z M318.3,266.1l-0.6,1.4c-0.4,0.9-1.5,1.4-2.5,1.1c-1-0.3-1.5-1.3-1.1-2.3l0.2-0.5
				c0.7-0.5,1.4-0.9,2.1-1.2c0.4-0.2,0.8-0.4,1.3-0.6C318.3,264.5,318.6,265.3,318.3,266.1z"/>
			<g>
				<path class="st0" d="M278.8,99.1l-1.8,0.5l-1.8-6.4l-7.1,2l1.8,6.4l-1.8,0.5l-3.9-13.5l1.8-0.5l1.6,5.6l7.1-2l-1.6-5.6l1.8-0.5
					L278.8,99.1z"/>
				<path class="st0" d="M291.4,82.8c1-0.1,1.9,0,2.7,0.3c0.9,0.3,1.6,0.7,2.2,1.3s1.2,1.3,1.6,2.2s0.7,1.8,0.7,2.9
					c0.1,1.1,0,2.1-0.2,3c-0.3,0.9-0.7,1.7-1.2,2.4s-1.2,1.2-2,1.7s-1.7,0.7-2.7,0.8s-1.9,0-2.8-0.3s-1.6-0.7-2.3-1.3
					c-0.6-0.6-1.2-1.3-1.6-2.2c-0.4-0.9-0.7-1.8-0.7-2.9c-0.1-1.1,0-2.1,0.3-3s0.7-1.7,1.2-2.4s1.2-1.2,2-1.6S290.4,82.8,291.4,82.8
					z M292.5,95.7c0.7-0.1,1.3-0.2,1.9-0.5c0.6-0.3,1-0.7,1.4-1.2c0.4-0.5,0.7-1.1,0.8-1.9c0.2-0.7,0.2-1.5,0.2-2.4
					s-0.3-1.7-0.6-2.4c-0.3-0.7-0.7-1.2-1.1-1.7c-0.5-0.4-1-0.8-1.6-1c-0.6-0.2-1.2-0.3-1.9-0.2c-0.7,0.1-1.3,0.2-1.9,0.5
					s-1,0.7-1.4,1.2s-0.7,1.1-0.9,1.9c-0.2,0.7-0.2,1.5-0.2,2.4c0.1,0.9,0.3,1.7,0.6,2.4c0.3,0.7,0.7,1.2,1.1,1.7
					c0.5,0.5,1,0.8,1.6,1C291.1,95.7,291.8,95.8,292.5,95.7z"/>
				<path class="st0" d="M308.3,82.9l5.2,0.7c0.7,0.1,1.4,0.2,2,0.5s1.2,0.5,1.6,0.9c0.5,0.4,0.8,0.8,1,1.4s0.3,1.3,0.2,2.1
					c-0.2,1.4-0.8,2.4-1.8,3c-1,0.6-2.3,0.8-4.1,0.6l-3.5-0.5l-0.8,5.6l-1.9-0.3L308.3,82.9z M309.2,89.8l3.6,0.5
					c0.6,0.1,1.1,0.1,1.5,0c0.4-0.1,0.8-0.2,1.1-0.4s0.5-0.4,0.7-0.7c0.2-0.3,0.3-0.7,0.3-1.1c0.1-0.5,0-0.9-0.1-1.3
					c-0.1-0.3-0.3-0.6-0.6-0.8c-0.3-0.2-0.6-0.4-1-0.5c-0.4-0.1-0.8-0.2-1.3-0.3l-3.5-0.5L309.2,89.8z"/>
				<path class="st0" d="M333.7,103.7l-9.9-3.7l4.9-13.2l9.6,3.5l-0.6,1.6l-7.8-2.9l-1.5,4l7.3,2.7l-0.6,1.6l-7.3-2.7l-1.7,4.5
					l8.1,3L333.7,103.7z"/>
			</g>
		</g>
		<g>
			<g>
				<polygon id="polygon19978_40_" class="st3" points="287.7,41.2 297.1,41.2 300,32.1 302.9,41.2 312.3,41.2 304.7,46.8 
					307.6,55.9 300,50.3 292.4,55.9 295.3,46.8 				"/>
				<polygon id="polygon19978_39_" class="st3" points="138.3,156.8 147.7,156.8 150.6,147.7 153.5,156.8 162.9,156.8 155.3,162.4 
					158.2,171.5 150.6,165.9 143,171.5 145.9,162.4 				"/>
				<polygon id="polygon19978_38_" class="st3" points="133.3,184.8 142.5,182.7 143.3,173.2 148.2,181.4 157.3,179.3 151.2,186.4 
					156,194.6 147.4,190.9 141.2,198 142,188.5 				"/>
				<polygon id="polygon19978_37_" class="st3" points="262.7,45.6 272,43.8 273.2,34.4 277.7,42.8 286.9,41 280.5,47.9 285,56.3 
					276.5,52.2 270,59.1 271.2,49.7 				"/>
				<polygon id="polygon19978_36_" class="st3" points="237.9,54.3 246.6,50.9 246.1,41.4 252.1,48.8 260.8,45.4 255.8,53.4 
					261.7,60.8 252.6,58.3 247.6,66.3 247,56.8 				"/>
				<polygon id="polygon19978_35_" class="st3" points="214.9,67.5 222.9,62.5 220.6,53.3 227.8,59.5 235.8,54.5 232.3,63.3 
					239.5,69.5 230.1,68.7 226.6,77.5 224.3,68.2 				"/>
				<g>
					<polygon id="polygon19978_34_" class="st3" points="193.6,82.8 201.1,77.1 198,68.1 205.8,73.6 213.3,67.9 210.6,77 
						218.4,82.5 208.9,82.6 206.2,91.7 203.1,82.7 					"/>
					<polygon id="polygon19978_33_" class="st3" points="176.3,101.3 182.7,94.4 177.9,86.1 186.6,90.1 192.9,83.1 191.9,92.5 
						200.6,96.5 191.3,98.3 190.3,107.7 185.6,99.5 					"/>
					<polygon id="polygon19978_32_" class="st3" points="161.8,123.3 166.7,115.3 160.5,108 169.8,110.3 174.7,102.3 175.5,111.7 
						184.7,114 176,117.6 176.7,127 170.5,119.7 					"/>
					<polygon id="polygon19978_31_" class="st3" points="151.4,147.7 154.8,138.9 147.4,132.9 156.9,133.5 160.3,124.7 162.7,133.8 
						172.2,134.4 164.3,139.4 166.7,148.6 159.3,142.6 					"/>
				</g>
				<g>
					<polygon id="polygon19978_30_" class="st3" points="143.7,224.5 143.1,215.1 133.8,212.8 142.7,209.3 142.1,199.9 148.2,207.1 
						157,203.6 151.9,211.6 158,218.8 148.8,216.5 					"/>
					<polygon id="polygon19978_29_" class="st3" points="149.7,249.1 147.4,239.9 137.9,239.4 145.9,234.3 143.6,225.2 150.9,231.2 
						158.9,226.1 155.4,234.9 162.7,240.9 153.2,240.3 					"/>
					<polygon id="polygon19978_28_" class="st3" points="160.1,273.3 156.1,264.8 146.6,266 153.6,259.5 149.7,251 158,255.5 
						164.9,249 163.1,258.3 171.4,262.8 161.9,264 					"/>
					<polygon id="polygon19978_27_" class="st3" points="174.7,295.4 169.3,287.7 160.2,290.6 165.9,283 160.4,275.3 169.4,278.3 
						175.1,270.6 175,280.1 183.9,283 174.9,285.9 					"/>
					<g>
						<polygon id="polygon19978_26_" class="st3" points="191.4,315.6 185.3,308.4 176.5,312.2 181.5,304 175.3,296.9 184.5,299 
							189.5,290.9 190.2,300.3 199.4,302.4 190.7,306.1 						"/>
						<polygon id="polygon19978_25_" class="st3" points="211.1,331.6 203.7,325.7 195.8,331 199.1,322.1 191.8,316.2 201.2,316.6 
							204.6,307.7 207.1,316.8 216.5,317.2 208.6,322.5 						"/>
						<polygon id="polygon19978_24_" class="st3" points="233.9,344.7 225.6,340.2 218.8,346.9 220.5,337.5 212.2,333.1 
							221.5,331.7 223.2,322.4 227.3,330.9 236.6,329.5 229.8,336.1 						"/>
						<polygon id="polygon19978_23_" class="st3" points="259,353.4 250,350.6 244.5,358.4 244.4,348.9 235.4,346.1 244.4,343 
							244.3,333.5 249.9,341.1 258.8,338 253.4,345.8 						"/>
					</g>
				</g>
				<polygon id="polygon19978_22_" class="st3" points="286.5,358.1 277.1,357 273.2,365.7 271.3,356.3 262,355.2 270.2,350.6 
					268.4,341.2 275.3,347.7 283.5,343 279.6,351.7 				"/>
				<polygon id="polygon19978_21_" class="st3" points="312.6,358.8 303.2,358.8 300.3,367.9 297.4,358.8 288,358.8 295.6,353.2 
					292.7,344.1 300.3,349.7 308,344.2 305,353.2 				"/>
			</g>
			<g>
				<polygon id="polygon19978_20_" class="st3" points="304.7,46.8 307.6,55.9 300,50.3 292.4,55.9 295.3,46.8 287.7,41.2 
					297.1,41.2 300,32.1 302.9,41.2 312.3,41.2 				"/>
				<polygon id="polygon19978_19_" class="st3" points="454.1,162.4 457,171.5 449.4,165.9 441.8,171.5 444.7,162.4 437.1,156.8 
					446.5,156.8 449.4,147.7 452.3,156.8 461.7,156.8 				"/>
				<polygon id="polygon19978_18_" class="st3" points="458,188.5 458.8,198 452.6,190.9 444,194.6 448.8,186.4 442.7,179.3 
					451.8,181.4 456.7,173.2 457.5,182.7 466.7,184.8 				"/>
				<polygon id="polygon19978_17_" class="st3" points="328.8,49.7 330,59.1 323.5,52.2 315,56.3 319.5,47.9 313.1,41 322.3,42.8 
					326.8,34.4 328,43.8 337.3,45.6 				"/>
				<polygon id="polygon19978_16_" class="st3" points="353,56.8 352.4,66.3 347.4,58.3 338.3,60.8 344.2,53.4 339.2,45.4 
					347.9,48.8 353.9,41.4 353.4,50.9 362.1,54.3 				"/>
				<polygon id="polygon19978_15_" class="st3" points="375.7,68.2 373.4,77.5 369.9,68.7 360.5,69.5 367.7,63.3 364.2,54.5 
					372.2,59.5 379.4,53.3 377.1,62.5 385.1,67.5 				"/>
				<g>
					<polygon id="polygon19978_14_" class="st3" points="396.9,82.7 393.8,91.7 391.1,82.6 381.6,82.5 389.4,77 386.7,67.9 
						394.2,73.6 402,68.1 398.9,77.1 406.4,82.8 					"/>
					<polygon id="polygon19978_13_" class="st3" points="414.4,99.5 409.7,107.7 408.7,98.3 399.4,96.5 408.1,92.5 407.1,83.1 
						413.4,90.1 422.1,86.1 417.3,94.4 423.7,101.3 					"/>
					<polygon id="polygon19978_12_" class="st3" points="429.5,119.7 423.3,127 424,117.6 415.3,114 424.5,111.7 425.3,102.3 
						430.2,110.3 439.5,108 433.3,115.3 438.2,123.3 					"/>
					<polygon id="polygon19978_11_" class="st3" points="440.7,142.6 433.3,148.6 435.7,139.4 427.8,134.4 437.3,133.8 439.7,124.7 
						443.1,133.5 452.6,132.9 445.2,138.9 448.6,147.7 					"/>
				</g>
				<g>
					<polygon id="polygon19978_10_" class="st3" points="451.2,216.5 442,218.8 448.1,211.6 443,203.6 451.8,207.1 457.9,199.9 
						457.3,209.3 466.2,212.8 456.9,215.1 456.3,224.5 					"/>
					<polygon id="polygon19978_9_" class="st3" points="446.8,240.3 437.3,240.9 444.6,234.9 441,226.1 449.1,231.2 456.4,225.2 
						454.1,234.3 462.1,239.4 452.6,239.9 450.3,249.1 					"/>
					<polygon id="polygon19978_8_" class="st3" points="438.1,264 428.6,262.8 436.9,258.3 435.1,249 442,255.5 450.3,251 
						446.4,259.5 453.4,266 443.9,264.8 439.9,273.3 					"/>
					<polygon id="polygon19978_7_" class="st3" points="425.1,285.9 416.1,283 425,280.1 424.9,270.6 430.6,278.3 439.6,275.3 
						434.1,283 439.8,290.6 430.7,287.7 425.3,295.4 					"/>
					<g>
						<polygon id="polygon19978_6_" class="st3" points="409.3,306.1 400.6,302.4 409.8,300.3 410.5,290.9 415.5,299 424.7,296.9 
							418.5,304 423.5,312.2 414.7,308.4 408.6,315.6 						"/>
						<polygon id="polygon19978_5_" class="st3" points="391.4,322.5 383.5,317.2 392.9,316.8 395.4,307.7 398.8,316.6 408.2,316.2 
							400.9,322.1 404.2,331 396.3,325.7 389,331.6 						"/>
						<polygon id="polygon19978_4_" class="st3" points="370.2,336.1 363.4,329.5 372.7,330.9 376.8,322.4 378.5,331.7 387.8,333.1 
							379.5,337.5 381.2,346.9 374.4,340.2 366.1,344.7 						"/>
						<polygon id="polygon19978_3_" class="st3" points="346.6,345.8 341.2,338 350.1,341.1 355.7,333.5 355.6,343 364.6,346.1 
							355.6,348.9 355.5,358.4 350,350.6 341,353.4 						"/>
					</g>
				</g>
				<polygon id="polygon19978_2_" class="st3" points="320.4,351.7 316.5,343 324.7,347.7 331.6,341.2 329.8,350.6 338,355.2 
					328.7,356.3 326.8,365.7 322.9,357 313.5,358.1 				"/>
			</g>
		</g>
	</g>
</g>
</svg>
