<svg xmlns="http://www.w3.org/2000/svg" width="600" height="315.79" viewBox="0 0 600 315.79"><path fill="#bf0a30" d="M0 0h600v315.79H0z"/><path fill="#fff" d="M0 24.29h600v24.29H0zM0 72.87h600v24.29H0zM0 121.46h600v24.29H0zM0 170.04h600v24.29H0zM0 218.62h600v24.29H0zM0 267.21h600v24.29H0z"/><path d="M240.22 170V0H0v170z" fill="#002868" fill-rule="evenodd"/><path d="M210.07 54.6l-5.75-4.19-5.75 4.19 2.19-6.77-5.76-4.18h7.11l2.2-6.76 2.2 6.76h7.11l-5.75 4.18zM182.05 54.6l-5.75-4.19-5.75 4.19 2.19-6.77-5.74-4.18h7.11l2.2-6.76 2.2 6.76h7.11l-5.75 4.18zM154 54.6l-5.75-4.19-5.75 4.19 2.19-6.77-5.69-4.18h7.11l2.2-6.76 2.2 6.76h7.11l-5.75 4.18zM126 54.6l-5.75-4.19-5.75 4.19 2.19-6.77-5.69-4.18h7.11l2.2-6.76 2.2 6.76h7.11l-5.75 4.18zM98 54.6l-5.75-4.19-5.76 4.19 2.19-6.77-5.75-4.18H90l2.2-6.76 2.2 6.76h7.11l-5.71 4.18zM70 54.6l-5.75-4.19-5.78 4.19 2.19-6.77-5.75-4.18H62l2.2-6.76 2.2 6.76h7.11l-5.75 4.18zM42 54.6l-5.8-4.19-5.75 4.19 2.19-6.77-5.75-4.18H34l2.2-6.76 2.2 6.76h7.11l-5.75 4.18zM210.07 107l-5.75-4.18-5.75 4.18 2.19-6.77L195 96h7.11l2.2-6.76 2.2 6.76h7.11l-5.75 4.18zM182.05 107l-5.75-4.18-5.75 4.18 2.19-6.77L167 96h7.11l2.2-6.76L178.5 96h7.11l-5.75 4.18zM154 107l-5.75-4.18-5.72 4.18 2.19-6.77L139 96h7.11l2.2-6.76 2.2 6.76h7.11l-5.75 4.18zM126 107l-5.75-4.18-5.74 4.18 2.19-6.77L111 96h7.11l2.2-6.76 2.2 6.76h7.11l-5.75 4.18zM98 107l-5.75-4.18-5.76 4.18 2.19-6.77L82.93 96H90l2.2-6.76L94.44 96h7.11l-5.75 4.2zM70 107l-5.75-4.18-5.78 4.18 2.19-6.77L54.91 96H62l2.2-6.76L66.42 96h7.11l-5.75 4.18zM42 107l-5.75-4.18-5.8 4.18 2.19-6.77L26.89 96H34l2.2-6.76L38.4 96h7.11l-5.75 4.18zM206.47 159.34l-5.76-4.18-5.71 4.18 2.2-6.77-5.76-4.18h7.12l2.19-6.76 2.2 6.76H210l-5.75 4.18zM178.45 159.34l-5.76-4.18-5.75 4.18 2.2-6.77-5.76-4.18h7.12l2.19-6.76 2.2 6.76H182l-5.75 4.18zM150.43 159.34l-5.76-4.18-5.75 4.18 2.2-6.77-5.76-4.18h7.11l2.2-6.76 2.2 6.76H154l-5.75 4.18zM122.41 159.34l-5.76-4.18-5.75 4.18 2.2-6.77-5.76-4.18h7.11l2.2-6.76 2.2 6.76H126l-5.75 4.18zM94.39 159.34l-5.76-4.18-5.75 4.18 2.2-6.77-5.76-4.18h7.11l2.2-6.76 2.2 6.76h7.11l-5.75 4.18zM66.37 159.34l-5.76-4.18-5.75 4.18 2.2-6.77-5.76-4.18h7.11l2.2-6.76 2.2 6.76h7.11l-5.75 4.18zM38.35 159.34l-5.76-4.18-5.75 4.18 2.2-6.77-5.76-4.18h7.11l2.2-6.76 2.2 6.76h7.11l-5.75 4.18zM224.08 28.41l-5.75-4.18-5.75 4.18 2.19-6.77-5.77-4.18h7.11l2.2-6.76 2.2 6.76h7.11l-5.75 4.18zM196.06 28.41l-5.75-4.18-5.75 4.18 2.19-6.77-5.75-4.18h7.11l2.2-6.76 2.2 6.76h7.11l-5.75 4.18zM168 28.41l-5.75-4.18-5.75 4.18 2.19-6.77-5.69-4.18h7.11l2.2-6.76 2.2 6.76h7.11l-5.75 4.18zM140 28.41l-5.75-4.18-5.75 4.18 2.19-6.77-5.69-4.18h7.11l2.2-6.76 2.2 6.76h7.11l-5.75 4.18zM112 28.41l-5.75-4.18-5.75 4.18 2.19-6.77-5.75-4.18h7.11l2.2-6.76 2.2 6.76h7.11l-5.75 4.18zM84 28.41l-5.75-4.18-5.75 4.18 2.19-6.77-5.75-4.18H76l2.2-6.76 2.2 6.76h7.11l-5.75 4.18zM56 28.41l-5.75-4.18-5.75 4.18 2.19-6.77-5.79-4.18H48l2.2-6.76 2.2 6.76h7.11l-5.75 4.18zM27.94 28.41l-5.75-4.18-5.75 4.18 2.19-6.77-5.75-4.18H20l2.2-6.76 2.2 6.76h7.1l-5.75 4.18zM224.08 133.16l-5.75-4.16-5.75 4.19 2.19-6.77-5.77-4.21h7.11l2.2-6.77 2.2 6.77h7.11l-5.75 4.18zM196.06 133.16l-5.75-4.16-5.75 4.19 2.19-6.77-5.75-4.21h7.11l2.2-6.77 2.2 6.77h7.11l-5.75 4.18zM168 133.16l-5.71-4.16-5.75 4.19 2.19-6.77-5.73-4.21h7.11l2.2-6.77 2.2 6.77h7.11l-5.75 4.18zM140 133.16l-5.73-4.16-5.75 4.19 2.19-6.77-5.71-4.21h7.11l2.2-6.77 2.2 6.77h7.11l-5.75 4.18zM112 133.16l-5.75-4.16-5.75 4.19 2.19-6.77-5.75-4.18h7.11l2.2-6.77 2.2 6.77h7.11l-5.75 4.18zM84 133.16L78.23 129l-5.75 4.19 2.19-6.77-5.75-4.18H76l2.2-6.77 2.2 6.77h7.11l-5.75 4.18zM56 133.16L50.21 129l-5.75 4.19 2.19-6.77-5.75-4.18H48l2.2-6.77 2.2 6.77h7.11l-5.75 4.18zM224.08 80.78l-5.75-4.18-5.75 4.18 2.19-6.78-5.77-4.16h7.11l2.2-6.77 2.2 6.77h7.11L221.89 74zM196.06 80.78l-5.75-4.18-5.75 4.18 2.19-6.78-5.75-4.16h7.11l2.2-6.77 2.2 6.77h7.11L193.87 74zM168 80.78l-5.75-4.18-5.75 4.18 2.23-6.78-5.73-4.16h7.11l2.2-6.77 2.2 6.77h7.11L165.85 74zM140 80.78l-5.75-4.18-5.75 4.18 2.21-6.78-5.71-4.16h7.11l2.2-6.77 2.2 6.77h7.11L137.83 74zM112 80.78l-5.75-4.18-5.75 4.18 2.19-6.78-5.75-4.18h7.11l2.2-6.77 2.2 6.77h7.11L109.81 74zM84 80.78l-5.77-4.18-5.75 4.18L74.67 74l-5.75-4.18H76l2.2-6.77 2.2 6.77h7.11L81.79 74zM56 80.78l-5.79-4.18-5.75 4.18L46.65 74l-5.75-4.16H48l2.2-6.77 2.2 6.77h7.11L53.77 74z" fill="#fff" fill-rule="evenodd"/></svg>