<svg xmlns="http://www.w3.org/2000/svg" width="600" height="423.73" viewBox="0 0 600 423.73"><title>flag-alaska</title><rect width="600" height="423.73" fill="#0f204b"/><polygon points="498.68 79.72 511.63 70.31 495.63 70.31 490.68 55.09 485.73 70.31 469.72 70.31 482.67 79.72 477.73 94.94 490.68 85.53 503.63 94.94 498.68 79.72" fill="#ffb612"/><polygon points="99.98 163.74 97.03 154.66 94.08 163.74 84.54 163.74 92.26 169.35 89.31 178.42 97.03 172.81 104.75 178.42 101.81 169.35 109.53 163.74 99.98 163.74" fill="#ffb612"/><polygon points="170.75 190.01 167.8 180.93 164.85 190.01 155.3 190.01 163.03 195.62 160.07 204.69 167.8 199.09 175.52 204.69 172.57 195.62 180.29 190.01 170.75 190.01" fill="#ffb612"/><polygon points="205.91 227.72 202.97 218.64 200.02 227.72 190.47 227.72 198.19 233.33 195.25 242.41 202.97 236.8 210.69 242.41 207.74 233.33 215.46 227.72 205.91 227.72" fill="#ffb612"/><polygon points="238.56 258.05 235.61 267.13 226.07 267.13 233.79 272.74 230.84 281.81 238.56 276.2 246.28 281.81 243.33 272.74 251.05 267.13 241.51 267.13 238.56 258.05" fill="#ffb612"/><polygon points="349.26 310.45 356.98 304.84 347.44 304.84 344.49 295.76 341.54 304.84 332 304.84 339.72 310.45 336.77 319.52 344.49 313.92 352.21 319.52 349.26 310.45" fill="#ffb612"/><polygon points="236.85 322.64 233.9 313.56 230.95 322.64 221.41 322.64 229.13 328.25 226.18 337.32 233.9 331.71 241.62 337.32 238.67 328.25 246.39 322.64 236.85 322.64" fill="#ffb612"/><polygon points="316.51 348.91 313.56 339.83 310.61 348.91 301.07 348.91 308.79 354.52 305.84 363.59 313.56 357.98 321.28 363.59 318.33 354.52 326.05 348.91 316.51 348.91" fill="#ffb612"/></svg>