<svg xmlns="http://www.w3.org/2000/svg" width="800" height="400" viewBox="0 0 800 400"><title>flag-new-york</title><path d="M0,400H800V0H0Z" fill="#002d72"/><path d="M436.92,280.32l-.29,0,.29,0" fill="#0077c8"/><path d="M436,280.44a3.77,3.77,0,0,1-.47,0,3.62,3.62,0,0,0,.47,0" fill="#0077c8"/><path d="M436.43,280.39l-.32,0,.32,0" fill="#0077c8"/><path d="M437.4,280.2a1.19,1.19,0,0,1-.27.07l.27-.07" fill="#0077c8"/><path d="M365.27,282.6s0,0,0,0,0,0,0,0" fill="#0077c8"/><path d="M462.34,283.07v-.53c0-1.15,0-6.65,0-14v.06h-.58l-34.46,1.23,5.74,2.87-4.1.4,5.34,1.24L431,275.56l5.74.4-4.91,1.22,8.21.4-8.21,2.05,7.78-.4-2.11.94a15.72,15.72,0,0,0,3.35-1.35s-2.05-5.34,3.7-1.64,8.62,4.11,8.62,4.11,4.1-4.93,3.27-.85,4.92,3.71,4.92,3.71l1,.53c0-.53,0-1.28,0-1.63" fill="#0077c8"/><path d="M367.47,282h0" fill="#0077c8"/><path d="M348.91,285c4.51,1.22,5.33,0,5.33,0s4.52-3.3,7.39-2.87a21.65,21.65,0,0,1,2.36.51l.91-1.33-6.15-.83,7.37-1.23-7-.82,5.33-1.22-5.74-.81,4.5-1.25-4.5-1.22,7-.83-8.21-.8,12.31-1.25s2.05-1.63-6.15-1.63-25-1.23-25-1.23h-.58c0,7.51,0,13.17,0,14.37v.52l.2-.13c7,0,6.14.83,10.66,2.05" fill="#0077c8"/><path d="M366.79,282.2l-.11,0a.22.22,0,0,1,.11,0" fill="#0077c8"/><path d="M366.18,282.37l-.07,0,.07,0" fill="#0077c8"/><path d="M400.12,156.19H364a42.39,42.39,0,0,1-22.94,20.61,34.09,34.09,0,0,1-3,45.76c0,1.68,0,3.76,0,6.09l-.26.53a20,20,0,0,1,4.92-3.28c3.28-1.64,4.5-2.46,7-.82a23.57,23.57,0,0,0,4.92,2.48s3.28-2.07,6.15-4.1,2-3.27,5.74-2.47,12.71-1.64,16-3.27,4.92.4,7.79-3.28,2.87-3.28,7-4.95,3.28-4.48,8.61-2.86,8.21.83,16,7,12.72,8.2,16,11.47a42.68,42.68,0,0,0,6.55,5.36s3.29-1.24,6.57-2.88,4.51-2.87,7-1.22a13.64,13.64,0,0,0,4.51,2l-.26-.29c0-2.1,0-4,0-5.52a34.07,34.07,0,0,1-3-45.74,42.38,42.38,0,0,1-22.94-20.63H400.06" fill="#0077c8"/><path d="M371.69,139a3.33,3.33,0,0,0-.37,0c3.28.54,11.27,0,11.27,0-3.69-.72-3.86-4.05-5.88-5.92a8.83,8.83,0,0,0-6.54-2.75c-3.09,0-4.66,1.65-4.35,4.55s2.62,4.12,5.54,4.12" fill="#0077c8"/><path d="M398.56,133A8.8,8.8,0,0,0,392,130.3c-1.72,0-3.19,1.24-5.24,1.9.25.24.53.53.87.83,2,1.89,2.18,5.22,5.88,5.94a3.17,3.17,0,0,0-.37,0c3.28.54,11.27,0,11.27,0-3.7-.72-3.86-4.05-5.88-5.94" fill="#0077c8"/><path d="M420.42,133a8.81,8.81,0,0,0-6.54-2.73c-1.71,0-3.19,1.24-5.23,1.9.25.24.53.53.87.83,2,1.89,2.17,5.22,5.87,5.94a3.1,3.1,0,0,0-.36,0c3.27.54,11.26,0,11.26,0-3.69-.72-3.85-4.05-5.87-5.94" fill="#0077c8"/><path d="M424.09,130.13a26.11,26.11,0,1,0-44.06.09l-.18.29a4.78,4.78,0,0,1,1.24-.19,8.38,8.38,0,0,1,5.53,1.85l.7-.14c1.77-.71,3.12-1.71,4.68-1.71a8.37,8.37,0,0,1,5.39,1.73l.31.15c2-.66,3.52-1.92,5.23-1.92a8.45,8.45,0,0,1,5.6,1.94l.09,0c2.05-.66,3.52-1.92,5.22-1.92a8.28,8.28,0,0,1,5.34,1.76l.34.16c1.81-.59,3.16-1.62,4.63-1.86l-.1-.21" fill="#0077c8"/><path d="M492,181.9a12.7,12.7,0,0,1,5.53-3.38c3.39-.91,7.08-1.21,12.31-1.54s3.69.33,7.38.92,7.68,2.46,9.23,4.33a220.18,220.18,0,0,1-1.85,27.67c-1.23,9.24-1.85,9.56-1.85,9.56v.3l4.92,2.14s2.46,3.71,5.22,2.78,2.16-.62,1.85-14.48-4.61-34.76-4.61-34.76v.61l-.92-2.44c-.61-3.7-5.07-2.92-6-1.85s-1.24,1.38-1.24,1.38-.76-.16-3.08-.94-4.76-.91-8.92-.91a28.44,28.44,0,0,0-8,.78c-4.31.77-6.15,1.37-8.15,3.24L492,181.9" fill="#0077c8"/><path d="M260.5,152.05s5.73-12.29,8.82-17c2-3,3.29-4.08,4.67-3.85a24.29,24.29,0,0,1,4.95-1.27c3.08-.51,7.49-3.09,7.49-3.09v.09a86,86,0,0,0,3,8.83c1.34,3,1.75,2.27,3.09,2.15s4.82-.21,6.87-.21,1.33-.82,1.95-3.38a38.13,38.13,0,0,0,.72-6.25l.31.83v-.52a8,8,0,0,0,4.71,3.58,53.23,53.23,0,0,0,6.56,1.52c2.75.45,5.88,8,9,11.21s2.6,4.6,2.6,6.6l.11.34a6.16,6.16,0,0,0-1.8-1.56c-5.07-.47-4.76,4.93-5.07,9.08.66,1.29,2.49,2.71,4.45,3.85l-.28.13s-2.31,9.85-3.7,13.53-2.91-1.07-4-5.53a85.79,85.79,0,0,1-3.07-18.77c-.77,4.61-1.39,17.84-1.39,17.84l-.27.29a5,5,0,0,0-3.12,1c-2.87,2.06-1,1-4.51,1a31.61,31.61,0,0,1-11.89-2.46c-3.7-1.63-4.92-.83-7.79,0a16.7,16.7,0,0,1-5.34.62s-2-2.68-.82-7.59c.54-2.15.82-2.06-.41-3.09s-1-6.15-1-6.15a9.82,9.82,0,0,0-1.43,3.5c-.41,2.05-3.74,13.92-3.74,13.92-1.84,6-5.5,10.88-7.18,4.88l-.36-6.09c3.08-1,3.89-4.32,4.72-10.06.77-5.4-3.27-7.2-6.76-6.56V152" fill="#0077c8"/><path d="M277.82,175.14c-3.69,4-4.61,8.62-5.53,15.69a79.82,79.82,0,0,0-.3,16.93c-3.39,12.92,4,32.61,4,32.61a55.49,55.49,0,0,0,.93,19.7c-1.86,3.68-2.48,3.37-2.48,3.37s3.39,5.83,2.48,9.85-.63,4.29,1.84,6.76c-1.23,1.86,2.77,9.86.62,20.3,3.06-1.21,8.92,3.39,14.76,5.85s13.84.31,17.53-1.52,9.23,1.52,9.23,1.52.92,2.46-.62-2.15a28,28,0,0,0-4.3-8s-2.46-25.55-1.54-33.86,1.84-8.6,1.84-8.6a31.75,31.75,0,0,1-1.84-9.55c-.32-5.84,1.22-12.31,2.16-16.92s-.32-7.36-.32-7.36v0q-.6-.12-1.23-.3c-2.14-.61-2.14-.32-3.07.3s-1.85,0-4-.62-.62-5.53-.62-5.53l-.1-.41-.41-34.47s-8,.84-11.88,1-1.65-1.24-6-3.27-11.27-1.05-11.27-1.05" fill="#0077c8"/><path d="M399.78,345.2c23.78,0,27.08-1.74,50-6.27-3.69-7.37-3.69-13.74-6.56-22.35s10.67-8.21,20.52-8.6,68.1.82,82.05,1.23,14.77-.82,26.25,5.74c-3.69,5.73-7.79,15.59-10.25,20.09s-3.28,6.57-10.67,4.92l-1.63,4.94c-10.26-.41-14.77-1.24-10.67-6.15s4.93-8.63,4.93-8.63l-48.41.42,7,11.09s-36.11,24.18-102.57,24.18-102.55-24.18-102.55-24.18l7-11.09-48.4-.42s.81,3.69,4.91,8.63-.41,5.74-10.65,6.15L248.42,340c-7.38,1.65-8.21-.4-10.67-4.92S231.19,320.68,227.5,315c11.49-6.56,12.31-5.32,26.26-5.74s72.2-1.65,82.05-1.23,23.39,0,20.51,8.6-2.46,14.38-6.14,21.76c23,4.5,25.83,6.86,49.62,6.86" fill="#fff"/><path d="M402.23,208.06a10.45,10.45,0,1,0-10.43-10.43,10.44,10.44,0,0,0,10.43,10.43" fill="#ffd100"/><path d="M513.74,145.5l8.54-.19-3.23-14.62L515.8,130c.32.23.8,1.07,1.3,3.82.83,4.49,1.85,8.83,1.85,8.83l-4.51.18a.08.08,0,0,1,.07,0l-4,.21v0l-5.76.24s-1.64-8.61-4.52-13.53l-2.14.68c1.85,2.89,4.92,15.36,4.92,15.36l6.49-.16c.07,1.17.28,2.53.28,3.71,0,2.47-2.16,7.38-3.08,10.47s-3.54,12.14-3.54,12.14l3.85-.44s2.15-5.85,4-11.39,2.46-7.08,2.77-11.7l-.15-2.83" fill="#ffd100"/><path d="M434.52,131.68s10.24-.14,12.68-.07,2.47-2.09,0-2.09H434.44c-2.46,0-3.47,2,.08,2.16" fill="#ffd100"/><path d="M439.44,139.15s.09,2.31.09,3.23,1.77,1.94,1.77.06-.07-3.6-.07-3.6" fill="#ffd100"/><path d="M383.88,97.08c1.47-.82,2.87,3.71,2.87,3.71l.41,2.65s-.62.82.62.23a1.61,1.61,0,0,1,2,.59l-.31.11c-.6.62-1.22.16-2.15,1.22a11.58,11.58,0,0,1-2,1.85s-1.07-.14-1.07,1.25-.47,2-.62,1-.16-1.36-1.38-1.82a3.51,3.51,0,0,0-1.59-.35l-.1-.41a9.1,9.1,0,0,0-1.23-3.71s3.08-5.53,4.51-6.36" fill="#ffd100"/><path d="M362.06,223.74c.37,0,.71-2.15,1.82-2.58a30.17,30.17,0,0,0,8.54-5.78l-.94,0a39.52,39.52,0,0,1-15.17,6.41l-.91-.77c3.52-3.88,8.53-5.64,12.52-8.8l.26-1.34-.72-.14-4,1.12-5.24.44-.2-.45,2.18-1.33c.4-.82-1.18-.42-1.68-1l-.18-.67,5.65-2.36.27-.78c-.74-.58-2.17.58-2.85-.57.53-.93,2-.95,3.48-1.29-.09-.17.94.55.72-.37,1.33-.34,3.21-.63,3.44-2.14-1.13-.3-2.34,0-3.63-.08-3.13-1.39,1.53-1.08,1.06-2.54-2.62-.47-5.26,0-8.15-.08-2.09-.15-5.17.33-6.16-1.32a20.78,20.78,0,0,1,5.22-1.48,3.32,3.32,0,0,1-2.17-1.23l7.73-.45,6.58-1.35c.67-.67-.37-1.21-.59-1.47-3.47-1.2-7.36-3-11.35-4.44-.75-.52-2-1.15-1.82-2.13,2.95-.36,5.46,2.08,8.17,1.69,2.93-.24,6.5,2.22,9.7,1.35-.08-.45-.26-1-.91-.91-4.65-3.27-9.64-5.86-13.76-9-.15-.87.8-.46,1-.74l-.25-.6-5.45-3.47.74-.58c6.08.5,10.64,4.09,16.46,6.45.41.16.74-.62.34-.92a48.15,48.15,0,0,1-6.83-4.92c1.26-2.09-1.83-2.56-1.65-4.34l.56,0c5.78,3.26,12.08,8.53,18.33,10.87l.85-.47c-4.5-5.36-9.58-8.81-14.21-14.21.07-.59-1.19-1.41-.16-1.8l5.19,3.45.06-1.21c4,2.35,7.42,6.41,11.12,8.35-2.22-3-3-6.3-5.44-9.29l-.82-2.18c1.16-.57-.49-1.18-.1-2,.23-.49.72.17,1.1.16l9.14,11,.74-.52-.35-.85c.29-.35-.24-.63-.48-.61-1.13-2.66-2.37-4.39-3.27-7,1-.67,1.25,1.74,2.25.91-.36-1.2.88-.74,1.16-1.52.17-1-1.16-3-.28-4.38.83-.15,1.21.94,1.53,1.34a27.06,27.06,0,0,0,5.53,10.76c1.55,1.08.92,2.87,2.86,3.32,2-1.44,1.7-4.33,3.33-6.32a2.5,2.5,0,0,1,2.2,1.48l1.51-.89L407,168.3c.55-.05,1.23-1.61,1.93-.74.46,2-.25,4.18-.67,6.32l.37.59.38-.2,5.77-13.49.91-1,.51.37-1.53,5.65c.52.42,1.06-.57,1.49,0-1.11,2.17,1.1.07,1.59.73.1,3.1-1.6,5.76-.54,7.93a3,3,0,0,0,3.16-1.08,103.33,103.33,0,0,1,5.56-8.75l.94,0c-1.48,4-3.58,7.34-4.62,10.89.55.47.48-1.2,1.4-1.1l.6-.86a22.07,22.07,0,0,1,5.87-5.25,7.69,7.69,0,0,1,2.47-2.2c1.19.31.45,1.46.59,1.86l.56-.05c1.05.58,0,1.48.32,2.21.6.11,1.67-1.19,2.51-.87l0,.87L433,174.75l-.4.28-2,2.24L428,181.42l.28.73c2.95-2.73,5.94-3.46,8.64-6.13l1.72-1.12,1.14-.24c.26,1.62,1.68,1.61.57,2.76l1.1.13.5.49c-2.3,1.28-3.85,3.55-6.33,4.21-2.41,1.65-4.76,1.65-6.33,3.65l.33.83.3-.32c3.29-.75,6.17-1.7,9.84-2.49,1-1.12,2-1,3.23-1.3s.76.93.62,1.61c.36.21,2.25-.19,1.85,1.3l-.78.91,1,.78a8.27,8.27,0,0,1-4.12,2.78,49.92,49.92,0,0,0-8.66,2.23l-.06.61,2.12-.09c3.39.05,7.56-2,11.5-1.67A7.86,7.86,0,0,0,448,193l-.85,1c.36.66,2.2.73,1.48,1.83-5.31.41-9,.64-13.5,1.22l-1.22,1,.75,1,.54.14c3.73-.71,7.19.46,11.26,1.21l0,1.05c-.42,1,.89.9,1.21,1.42l-1.09,1c-.52,1.37,1.25.45.93,1.64l-2.54.66-10.51-.68-1.06.55c1.55.67,3.16,2.45,4.62,2.59,2.75,2.53,7,3.29,10.24,5.43.44.61,1.16.75,1,1.23l.43,1.16c-.06,0-1,.26-1.32-.26-4.53-1.05-8.17-2.31-12.55-3.58l.31.53c1.08.9-.66,1-.72,1.59a30.91,30.91,0,0,0,12.07,6.88c2.49.39,3.68,3.15,6.09,3.29l.78,1.32" fill="#ffd100"/><path d="M502.55,128.88a12.93,12.93,0,0,0,1.22-5.73,27.05,27.05,0,0,0-.61-5.93l-1.44-.64s2-1.22,1.86-2a10.27,10.27,0,0,1-.21-2.05,84.25,84.25,0,0,0,11.48.61s.44.05.52,1.24.69,1.53.72,3.06c0,2.58-1.43,1.86-1.43,5.35a55.62,55.62,0,0,1-.41,6.54l1.23.64s.82-.64,1.64,3.87,1.85,8.82,1.85,8.82l-14.15.61s-1.64-8.62-4.51-13.53l2.26-.82" fill="#ffd9ee"/><path d="M504.6,107.75s5.95.21,8.21.21a14,14,0,0,1-1.44-2.64c-.21-.83-1.43-1.45-1.85.19s-2.46,2.66-3.08,1.42-1.44-1.42-1.85.82" fill="#ffd9ee"/><path d="M470.45,153s-4.92-4-9.54-8.31-6.77-5.54-9.24-8.64-8-4-8-4-.61,1.27-1,2.43a2.17,2.17,0,0,1-1.07,1.37l.79-1.51a42.2,42.2,0,0,1-4.41-1.86c-1-.6-2.87-.41-2.26.81a5.36,5.36,0,0,1,.52,3.09c0,1.32,0,2.44,1.12,2.57a26.56,26.56,0,0,0,2.66,0l.13-.24c.25.21.51.21,1.33-.31l-.12.08s-.34.86,3.09,1.74,3.11-.42,5,1.76S464,161.81,469,165a35.64,35.64,0,0,0,10.15,4.33L470.46,153" fill="#ffd9ee"/><path d="M479.26,169.39c.31-4.28-1.23-10.24-1.74-11.78-2.56.71-4.72,1.21-6.15-1.65s-1.54-2.35-1.33-3.08" fill="#ffd9ee"/><path d="M538.44,152.05c.62-3.53,2.16-7.36,2.16-13.53a2.19,2.19,0,0,1-2.16-1.68,18.37,18.37,0,0,1-.32-3.08s-1.68-.45-1.22-1.07.77.16.3-.47-1.85-1.7,0-1.82,3.24-.16,3.7-.16.61,0,1.84,1.4,1.85,1.07,2.31,4a46.17,46.17,0,0,1-.61,16.9c-1.7,6.77-4.47,17.38-7.08,20s-4.61,2.16-4.92-1.06-.46-4.77-.46-4.77c1.08-.77,2-.77,2.62-3.54s1.69-3.85,2.61-5.85,2-4.15,1.23-5.2" fill="#ffd9ee"/><path d="M286.44,126.93a5.25,5.25,0,0,0,2.25-2.35c.52-1.42.42-2.36.31-5.32a34.87,34.87,0,0,0-.2-3.59s-1.74.82-1.85-.83a24.09,24.09,0,0,1,.1-3.48s.91-.08,1.44-1.84,2.86-4.92,4.3-5.33a14.31,14.31,0,0,0,3.59-2.15,4.49,4.49,0,0,0,2.24,2.77c1.64.61,4,.61,4.41,4a13.69,13.69,0,0,1-.3,5.94c-.41,2.26-1,2.47-1.13,5.94s-.63,5.63.71,8.23l-.3-.83a38.13,38.13,0,0,1-.72,6.25c-.61,2.56.1,3.38-1.94,3.38s-5.54.09-6.87.21-1.74.83-3.08-2.15a84.39,84.39,0,0,1-3-8.83" fill="#ffd9ee"/><path d="M260.5,153.5c3.48-.62,7.54,1.18,6.76,6.55-.82,5.76-1.63,9-4.72,10.07" fill="#ffd9ee"/><path d="M260.09,171.14c-3.89-2-7.17-8.39-8.62-19.9s-2.87-18.86-1.23-21.54,2-6.34,2.67-7.77.61-3.49,1.85-5.14,3.28-2.67,2.25-1.22-1,1.22-1.65,3.69-.82,3.89,1,3.08,5.54,0,4.3,1-.81.83-.81.83,1.84,1.21.6,1.62-.6.22-.6.22,1.63.61.81,1.43-1.43-.2-.61.39,1,1.25-.2,1.87a30.38,30.38,0,0,0-3.5,3.68c-1.85,2.26-2.46,1-1.64,4.32a33.85,33.85,0,0,0,3.48,7.57" fill="#ffd9ee"/><path d="M323.52,150.07a7.46,7.46,0,0,1,3.39,4.93c4.92-2.78,12.45-7.07,16.46-10.31s3.54-2.31,5.85-4.15,3.22-2.14,6.59-3.08,5.07-1.06,6.46-1.53,2.62-.29,2.47.61-.16.47-.16.47,2.31,1.68,3.23,2.47,2,2.74.16,1.53a35.14,35.14,0,0,1-3.08-2.32s-.31,2.47-.77,2.47-.29-2.16-.29-2.16-.76-.29-2.47.63a14,14,0,0,1-4.76,1.05s-.48.48,1.07,1.25,3.08,1.67,2.46,2.29-.62.62-2.46-.13-.61-.61-2.61-.46-3.85-1.09-5.4,1.83-10.15,15.23-17.53,18.79c-2.46,1-2.76,1.68-5.53.61s-7.07-3.55-8.15-5.7c.3-4.16,0-9.56,5.07-9.09" fill="#ffd9ee"/><path d="M282,302.23a7.41,7.41,0,0,0-3.55,2.45c-1.07,1.68-2.16,2-.16,2.78s2.63.43,4.62-.34a17.37,17.37,0,0,0,3.54-1.83L284,303.58l-3.08,1.86s.15-2.15.77-2.3a4.69,4.69,0,0,0,1.08-.46l-.77-.48" fill="#ffd9ee"/><path d="M282.6,301.29l5.22,3.39,1.38-1.07-6.14-2.92-.46.6" fill="#ffd9ee"/><path d="M310.44,305.58l2.62,1.56s-.62-1.56,1.39-1.68a21.41,21.41,0,0,0,3.69-.62s-5.07-1.7-7.7.74" fill="#ffd9ee"/><path d="M314.45,307.9s2.77,3.39,3.54,3.68a5.12,5.12,0,0,0,1.85.47,6.18,6.18,0,0,1,1.68,0,1.31,1.31,0,0,0,1.24-.61,1,1,0,0,0,1.23.14c.61-.46,1.84-.46.45-1.54a19.89,19.89,0,0,1-3.08-3.36s-2.14.78-.92,2c-1.68-1.39-4.76-3.39-6-.79" fill="#ffd9ee"/><path d="M478.44,301.76l-1.07,2,3.23,1.83,2-2.3s-2.15-2-4.15-1.55" fill="#ffd9ee"/><path d="M483.36,304.05,482,306.52l2.31,2,2-2-2.92-2.47" fill="#ffd9ee"/><path d="M479.67,312.68l3.7-3.54s-1.39-1.83-2.77-.14-2.16,1.36-1.53.29-.79-3.09-1.4-3.39-.3-.61-1.38.9-1.69,1.4-.61,2.78,1.07,2,2.31,2.14a2.27,2.27,0,0,1,1.68.94" fill="#ffd9ee"/><path d="M514,308.23c1.39.78,1.85,2,3.09,2.14a9.17,9.17,0,0,0,1.68.15,3.87,3.87,0,0,1,1.38.46,2.26,2.26,0,0,0,1.09,0s-.3,0,1.22-.3,1.69-.78,1.69-.78a7.6,7.6,0,0,0-1.69-1.67c-.92-.62-4.31-2.45-4.31-2.45a1.24,1.24,0,0,0-1.84.42,6.53,6.53,0,0,1-2.32,2" fill="#ffd9ee"/><path d="M354.55,294.52s5.43-3,9.94-3.37,5.74,1.24,9.44.81,15.57-3.68,15.57-3.68c6.16-2.88-3.27-3.7-3.27-3.7l-4.51-.39s-.81-.41-4.51-2.87-4.51-1.25-9,.4c-2.58.94-3.43,1.08-4.2.94l.91-1.34-6.15-.81,7.37-1.24-7-.83,5.33-1.21-5.74-.82,4.5-1.25-4.5-1.21,7-.83-8.21-.8,12.31-1.25s2.05-1.63-6.15-1.63-25-1.24-25-1.24h-.58c0-2.8,0-5.84,0-9l.16-.39H461.72l.56.39c0,3.32,0,6.52,0,9.43h-.58l-34.46,1.24,5.74,2.86-4.1.41,5.34,1.24L431,275.59l5.74.4-4.91,1.24,8.21.41-8.21,2,7.78-.39-2.12.93a8.38,8.38,0,0,1-2,.29c-2.45,0-8.19,2.44-8.19,2.44a4.4,4.4,0,0,1-4.92,0c-2.88-1.63-6.56-3.27-10.26-2.88s-5.74,5.76-5.74,5.76-2.05,1.65.41,4.12-.83,1.61-4.52,2.44-4.52-.14-7.79,0c-9,.43-19.28,4.1-9.85,5.35s25.44.8,30,1.21-2.47,4.1-11.9,4.1-18.46-.8-19.28-2.45-6.55-3.68-7.79-1.65-7.79,2.47-7.79,2.47" fill="#002d72"/><path d="M337.83,229.2a20.47,20.47,0,0,1,4.92-3.27c3.27-1.65,4.5-2.47,7-.83a22.22,22.22,0,0,0,4.91,2.46s3.29-2.07,6.16-4.12,2-3.28,5.74-2.45,12.71-1.64,16-3.28,4.92.42,7.79-3.27,2.87-3.3,7-4.93,3.27-4.5,8.61-2.88,8.2.83,16,7,12.72,8.2,16,11.47a43.06,43.06,0,0,0,6.57,5.35s3.28-1.25,6.56-2.88,4.51-2.86,7-1.23a13.64,13.64,0,0,0,4.51,2v30l-124.31.82-.41-30" fill="#197352"/><path d="M540.75,138.52l.16,11.53-2.94-.14.77-12.13" fill="#bbbcbc"/><path d="M541.11,125.59a1.52,1.52,0,1,0-2.36,1.26v2.91l1.85-.17-.14-2.76a1.51,1.51,0,0,0,.66-1.24" fill="#bbbcbc"/><path d="M364.49,291.15c4.51-.39,5.74,1.24,9.44.81s15.59-3.68,15.59-3.68c6.15-2.88-3.29-3.7-3.29-3.7l-4.51-.41s-.81-.41-4.51-2.86-4.51-1.24-9,.41a3.8,3.8,0,0,1-.72.24s-.06,0-.1,0l-.58.2-.11,0-.49.15-.07,0-.44.13h0l-.38.08h-.05a1.7,1.7,0,0,1-.31.06l-.06,0h-.55l-.24,0s0,0,0,0h0c-.58-.1-1.14-.36-2.36-.53-2.87-.39-7.39,2.89-7.39,2.89s-.82,1.22-5.32,0-3.7-2.07-10.67-2.07l-.19.14c0,.35,0,1.1,0,1.62.17.11.39.24.71.46,1.74.94,8,4.51,16.13,9.18,1.25-.65,5.74-2.83,9.59-3.18" fill="#2c5234"/><path d="M461.31,284.17s-5.75.39-4.92-3.71-3.27.85-3.27.85-2.88-.43-8.62-4.12-3.7,1.65-3.7,1.65a15.72,15.72,0,0,1-3.35,1.35h-.05l-.26.07-.22.05-.28,0a.68.68,0,0,1-.2,0l-.32.05H436a3.77,3.77,0,0,1-.47,0c-2.46,0-8.21,2.47-8.21,2.47a4.42,4.42,0,0,1-4.91,0c-2.88-1.64-6.56-3.29-10.25-2.88s-5.75,5.75-5.75,5.75-2,1.64.41,4.11-.82,1.63-4.5,2.46-4.53,0-7.8,0c-9,.41-19.28,4.09-9.85,5.33s25.44.82,30,1.22-2.47,4.11-11.9,4.11-18.47-.83-19.28-2.47-6.56-3.68-7.79-1.64-7.79,2.47-7.79,2.47l-6.1-3.19c12.95,7.44,28.4,16.36,38.45,22.16h.11c18.79-10.87,56.63-32.63,61.36-35.23.32-.18.54-.33.71-.44l-1-.52" fill="#2c5234"/><path d="M417.42,241.93s2.46-3.71-3.7-4.12-7.78-2-13.12-1.23-9,.82-9-1.63,2.87-3.28,5.34-1.63,2.87-.42,5.74.39,3.69.81,5.75-.81,2-2.06,5.32-1.65,4.11,0-.81-2.05-5.34-.83-2.88-4.94,1.64-6.54-2-6.13-3.7,2-5.34,4.92,3.28,4.51-3.27,6.15-13.53.41-16.41.41-2.87-.83-4.92,2.86-2.05,3.28-8.61,4.13-6.57,2.45-4.93,3.66-.4,1.65-3.28,1.65a55.43,55.43,0,0,0-8.19.82c-2.87.41-.83,2.88-.83,2.88s4.11,1.23-1.63,1.64-14.77,4.5-7.8,4.92,11.49.39,12.72,2,2.87,4.12,2.87,4.12h-20.1V239.44c6.16-3.27,10.67-6.12,14.78-5.73s7,3.28,9.43,1.63a15.22,15.22,0,0,1,5.74-2s5.75,1.63,6.57.39,2.44-3.71,2.44-3.71a60,60,0,0,0-6.55-2.86c-1.63-.41-2.47-1.65.82-2.45s.83-4.11.83-4.11l3.7-.42s2.45,3.28,1.21,5.33c3.7,0,3.29-1.23,7.4,1.65a9.31,9.31,0,0,0,8.61.82s9-3.7,7.79-7.8-2.87-7.79,1.23-8.2,3.69,2,3.69,2a24.47,24.47,0,0,1,7.4-1.63,20,20,0,0,0,5.73-.82l4.52,3.28c-6.57.81-7.39,0-8.62,3.3s-1.63,5.74-2.46,7,3.27,1.24,3.27,1.24a6.5,6.5,0,0,0,6.15-2.45,45.38,45.38,0,0,1,6.16-5.74s4.92,3.27,7.79,5.74,7.38,4.91,9.43,7,5.33,4.9,9.43,5.73a20.29,20.29,0,0,1,7.37,3.29l-.4,5.33s-6.14-3.27-11.07,0-4.52,1.26-8.22,1.26-8.19-1.26-10.65-1.26-9.43,2.47-12.72,2.47-3.68,0-8.2-1.65-4.1-.39-7,.83-5.33,0-9.44,2.45-7,1.24-7,1.24,3.29-1.24.41-4.13-1.63-4.91-1.63-4.91-4.11-6.14,0-4.92,4.51,3.7,9.84,4.52a101.52,101.52,0,0,0,12.72.83h8.62" fill="#2c5234"/><path d="M398,98.84c-.61-1.25-.3-1.68.16-2.76a2.4,2.4,0,0,0,.14-2c-.14-.62-1.38-1.38.46-.92a8.26,8.26,0,0,0,2.61.28c1.09.17,1.7.94,1.24,1.7s0,1.24-1.24,1.85-1.83.91-2.14,1.39-1.24.47-1.24.47" fill="#63666a"/><path d="M403.52,97.46c.77-.3,1.86,0,.92.45s-.92-.45-.92-.45" fill="#63666a"/><path d="M395.06,97.75c.46-.31.15-.78.77-.91s.61-.15.45-1.09.15-1.07-.76-1.53-1.7-.61-1.08.14a2,2,0,0,1,.47,1.55L393.82,97s.78,1.09,1.24.77" fill="#63666a"/><path d="M408.44,102.54c0-.79.47-1.1-.31-1.7s-1.39-1.52-.31-.91,2.78,1.21,1.85,2-1.23.61-1.23.61" fill="#63666a"/><path d="M407.06,102.22c0-.92.91-1.69.76-.78s-.76.78-.76.78" fill="#63666a"/><path d="M384.63,114.45c.61-.34.12-.7.81-.54s.62.15.92.51.5.68-.11.51-.45.07-.89-.07a2.18,2.18,0,0,1-.73-.41" fill="#63666a"/><path d="M383.79,112.92c-.25-1.09-.62-1.27-1.08-1.11s-1-.45-.43-.45.63-.26,1.43.55,1.61,1.89.92,1.74-.77-.4-.84-.73" fill="#63666a"/><path d="M418,130.83a4.75,4.75,0,0,1,.63-3.24c.61-1.19,1.22-2.44.15-3.23a1.78,1.78,0,0,1-.93-2c0-.76,1.08-1.38-.76-1.53a8.48,8.48,0,0,0-4.46.94,3,3,0,0,1-3.54-.94,7,7,0,0,1-1.54-2.3c-.31-.61.15-1.55-.16-2.63a3.86,3.86,0,0,1,.61-3.23,14.2,14.2,0,0,1,1.55-2l.45-1.36s-.3-.63,1.09-.78a8.63,8.63,0,0,0,3.08-1.24c.92-.46.92-.15,1.38.45s.6.31,1.69.62,1.38.15,1.23-.31.15-.45,1.07-.62,1.84-.45,1.54-1.51-.3-.94-1.08-.61-.76,0-1.22-.64-.62-1.07,0-1.54,1.53-.92.3-1.53-2.77-.78-2,.47,1.23,1.22.61,2.12.46,2.31-.46,1.41.46-1.55-1.85-2.31-2.3,0-1.07.61,2,1.23,1.84,1.84-.6-.14-.6-.14-.46-.29-1.54-.93-2.05-.48-2.15.64c-.16,1.67.46,2-1.23,2.43s-1.54.16-1.84-.91-1.09-1.85.45-1.85,1.85-.46,1.08-1.06-.77-.63-.16-1.56.47-1.68,1.7-2.15,1.23-1.23,1.08-1.69-.62-.62-1.39-1.07-2-1.83-1.39-.78a10,10,0,0,0,1.54,2c.3.3-.31,1.19-.91.43s-.63.34-1.24-.28a3,3,0,0,1-.92-2.47c.16-.91-.63-1.69.61-1.69s1.85,0,1.85-.91.3-.63-1.7-1.4-3.69-1.05-3.84-1.82V90.3A26.14,26.14,0,0,1,426.08,106l-.26-.7a21.56,21.56,0,0,0,.16,2.45,8.55,8.55,0,0,1-.16,3.86c-.44,1.55-.75.14-1.38-1.07a20.27,20.27,0,0,0-2.45-3.22l-.62.43s1.54,2,2.62,3.55,1.68,2.45,1.68,2.45l.92-1.23a16.31,16.31,0,0,1-.31,5.21,19.72,19.72,0,0,0-1.06,5.24c-.3,2.76-.62,2.15-1.08,3.39a37.22,37.22,0,0,1-2.14,4.15l-2.32,1.62L418,130.81" fill="#63666a"/><path d="M386.44,131.76a4.94,4.94,0,0,0-1.53-2.61,10.47,10.47,0,0,1-2.47-4.47c-.62-1.69-.77-2.62-.15-3.69s1.07-1.24,0-2.16-1.54-.59-1.69-2.63-1.06-2.45-1.68-3.66-1.08-1.39-.32-4,.47-5.06,1.09-6.12l-.71,1.53a26.1,26.1,0,0,1,13.39-12l.11.67a2.73,2.73,0,0,0,.43,1.77c.91,1.71,1.07,1.38-1.08,2s-2.61.6-2.3,2a4.82,4.82,0,0,1,0,2.32,15,15,0,0,1,1.38-1.23c.61-.47.61-.77,1.21-1.4s.94.16,1.4.31.15-.62.62,1.56.91,4.44.14,3.68-.14-1.08-1.38-1.24a2.07,2.07,0,0,0-1.69.31s1.07,1.07,0,1.4-1.07-.33-1.68.28-1.24.17-2.17,1.23a12,12,0,0,1-2,1.85s-1.07-.12-1.07,1.24-.47,2-.62,1-.15-1.37-1.39-1.85-2.16-.76-2.46,1-.14,4.14.62,3.23,1.68-.81,1,.26c-1,1.46-.48,1.57,0,2.18s.31.47.16,1.39,0,1.7.45,1.7.63.63,1.39,0a1.73,1.73,0,0,1,2.46.14c.92.77,1.85.16,2.92,1.86s1.23,1.36,2.16,1.85.15-.47,1.69,1.68,1.85,1.85,3.38,2.47,4.93,1.22,3.39,2.6-1.39,1.23-1.54,2.17a2.16,2.16,0,0,1-.46,1.21,9.48,9.48,0,0,0-4.76-1.27,23.12,23.12,0,0,0-5.94,2l-.22-.61" fill="#63666a"/><path d="M400.24,333.55s60-34.55,66.92-38.41,6.62-8.45,6.62-12.6V217.93l-2.13-2.32a22.66,22.66,0,0,1,2-36.51l2.17-1.46-5.44-9.76c-12.71-1.65-22.95-11.92-26.16-23.12h-44l-.13,11.41h36.28a42.39,42.39,0,0,0,22.94,20.65,34.07,34.07,0,0,0,3,45.74c-.06,14.28,0,56.49,0,60v.53c0,.35,0,1.1,0,1.62l-.69.44c-4.73,2.6-42.57,24.36-61.35,35.23h-.13c-18.79-10.87-56.63-32.63-61.36-35.23-.32-.18-.54-.33-.7-.44,0-.52,0-1.27,0-1.62v-.53c0-3.49.1-45.7,0-60a34.07,34.07,0,0,0,3-45.74A42.41,42.41,0,0,0,364,156.17h36.12l0-11.41H356.19A31.36,31.36,0,0,1,330,167.88l-5.42,9.76,2.16,1.46a22.67,22.67,0,0,1,2,36.51l-2.12,2.32v64.61c0,4.15-.32,8.75,6.6,12.6s66.92,38.41,66.92,38.41h.1" fill="#fff"/><path d="M375.21,263.29c1.85-2.61.92-3.83.92-3.83l8.47-.19,1.84,5.1a6.19,6.19,0,0,1-2.94-.76l-8.44.14-1.39,1.37" fill="#fff"/><path d="M375.36,258.05c2.77-.9,7.85-.12,7.85-.12a4.59,4.59,0,0,0,.15-4.32l-8.3-.61s1.68.93.28,5.07" fill="#fff"/><path d="M377.06,252.22l5.06.46a3.13,3.13,0,0,0,.63-2.31l-5.54-.31s.29.46-.15,2.16" fill="#fff"/><path d="M384.44,255.75l.77,4.18,2.62-.18-2.47-4h-.92" fill="#fff"/><path d="M373.68,262.37v-3.08l-10.16-1.36s.92,1.22,0,5.53l10.16-1.09" fill="#fff"/><path d="M365.83,257.61a7.74,7.74,0,0,0,.93-6.92l9.22.3s-1.06.15-1.53,2.62l-.47,2.46-8.15,1.54" fill="#fff"/><path d="M374.6,250.69c-3.54-.76-7.7-1.23-7.7-1.23l.16-2.77,6.45.47a6.85,6.85,0,0,1,1.08,3.53" fill="#fff"/><path d="M366.44,255.75l-6-.46a8.57,8.57,0,0,0-.77-5.36l6.77.76" fill="#fff"/><path d="M363.22,257.93l-4.77-.2c.77,3.88,1.07,4.18,0,6.18l4.77-.76v2.16" fill="#fff"/><path d="M436.19,267.15c-5.34-6.57-5.23-15.58-5.23-15.58l-4.71,2V269l12.41-2.33" fill="#fff"/><path d="M424.5,268.69c-1.74-5-2.87-11.49-1.34-15.08,0,0-5.23,7.29-7.48,12.91l8.83,2.16" fill="#fff"/><path d="M501.68,112.52s1.07-2.44,1.38-3.22.31-1.55,2-1.37,7.68.15,7.68.15a8.19,8.19,0,0,1,2.32,1.22c.9.78,1.22,2.45,1.52,3.22s0,2-.76,1.39a4.38,4.38,0,0,0-1.85-.75l-10-.47-2.3-.15" fill="#fff"/><path d="M442.28,129.29l-1.23-64.15h-1.23l-1.23,64.15" fill="#fff"/><path d="M257.22,132.79s15,171.67,15.38,174.14,2.26,1.65,2.26,1.65L258.65,131.36" fill="#fff"/><path d="M256.29,121.93l-.46-4.77,1.24-1.55.76,6.17" fill="#fff"/><path d="M256.76,114.68l-.93-8.15-1.39.77,1.08,8" fill="#fff"/><path d="M400.2,331.25c7.2-4.17,59.57-34.3,66-37.85,5.61-3.12,5.6-6.47,5.59-10.35v-.51c0-3.86,0-56.73,0-63.83L470.24,217a24.64,24.64,0,0,1,2.28-39.6l.62-.43-4.06-7.29c-12.46-2-22.6-11.77-26.4-23H400.23l-.07,7.43h37.46a40.37,40.37,0,0,0,25.16,21.72,32,32,0,0,0,1.52,45.81c-.07,14.54,0,57.33,0,60.82v.53a12.07,12.07,0,0,1-.14,2.63,5.51,5.51,0,0,1-1.61,1.2c-5,2.76-44.71,25.59-62.35,35.77h-.07c-17.63-10.21-57.32-33-62.34-35.77a5.5,5.5,0,0,1-1.62-1.2,13.6,13.6,0,0,1-.14-2.63v-.53c0-3.49.09-46.28,0-60.82a32.05,32.05,0,0,0,1.51-45.81,40.41,40.41,0,0,0,25.17-21.72h37.29l.08-7.43H357.69a33.15,33.15,0,0,1-26.4,23L327.24,177l.61.43a24.63,24.63,0,0,1,2.28,39.6l-1.52,1.67c0,7.1,0,60,0,63.83v.51c0,3.88,0,7.22,5.6,10.35,6.4,3.55,58.78,33.68,66,37.85h0" fill="#ffd90f"/><path d="M387.65,133a8.8,8.8,0,0,0-6.55-2.73c-1.71,0-3.17,1.24-5.22,1.9.24.24.53.53.86.83,2,1.89,2.18,5.22,5.87,5.94a3,3,0,0,0-.35,0c3.28.54,11.27,0,11.27,0-3.7-.72-3.86-4.05-5.88-5.94" fill="#f2a900"/><path d="M409.48,133A8.76,8.76,0,0,0,403,130.3c-1.71,0-3.18,1.24-5.23,1.9.24.24.54.53.87.83,2,1.89,2.18,5.22,5.87,5.94a3.1,3.1,0,0,0-.36,0c3.29.54,11.27,0,11.27,0-3.7-.72-3.86-4.05-5.89-5.94" fill="#ffd90f"/><path d="M424.79,130.3c-1.71,0-3.17,1.24-5.23,1.9.25.24.53.53.87.83,2,1.89,2.18,5.22,5.87,5.94a3.1,3.1,0,0,0-.36,0c4.15.25,7.27.76,7.27-2.81s-4-5.63-8.42-5.87" fill="#f2a900"/><path d="M388.29,41.09c-3.69-.39-4.31,2.65-4.31,2.65s2.47-1,4.11-.39c.41.15.82.18,1.19.3l.44-1.48-1.42-1.08" fill="#f2a900"/><path d="M397.93,88.69a9,9,0,0,1-.61-2.26l-1.68.14a7.5,7.5,0,0,1,.44,2.12c0,1.39.28,2.3-1.33,2.75s-2.15.78-2.39,2.32c.7-.69,1.23-1.7,1.93-1.07a6,6,0,0,0,1.69,1s-1.07-1.39.46-1.86a17.66,17.66,0,0,1,4.24-.39s-1.94-.89-2.24-1.51a10.32,10.32,0,0,1-.52-1.24" fill="#f2a900"/><path d="M408.8,89.08s-.2.83-.61-2.47a4.33,4.33,0,0,0-.14-.83l-1.46.22a10.33,10.33,0,0,0,.36,2.47c.15.61-.9.83-1.51,1.59,0,0,2.39-.3,2.16.86a3.26,3.26,0,0,0,.23,2,4.94,4.94,0,0,1,1.09-.77,12.32,12.32,0,0,1,2,.47,3.07,3.07,0,0,1,1.76,1.14,2.53,2.53,0,0,0-1.38-3.06,16,16,0,0,1-2.38-1.31" fill="#f2a900"/><path d="M502.13,106.32c3.09-1.64,5.75-2.88,7.39-2.45s6.57,2,6.57,2,.35-2.2-.83-2.66c-4.72-1.85-7.78-2.67-10.46-1s-.43.78-2.67,1.65c-.81.3-.76,2.92,0,2.45" fill="#f2a900"/><path d="M506.75,159.76c.92-3.08,3.08-8,3.08-10.47,0-1.22-.22-2.55-.31-3.7l-6.46.15s-3.08-12.47-4.93-15.36l-.17-.31c-3.46.64-10.31,2.15-11.68,4.45a16.46,16.46,0,0,1-2.15,5.68,16.48,16.48,0,0,0-2.15,4.16s2.46,8-.6,10.15a41.62,41.62,0,0,1-4,2.6s2,8.47-1.85,19.23l-.15.17s2,4,3.85,2.45.3-2.94,2.62-6.77,10.75-15.68,10.75-15.68,3.23,8.76,1.84,12.47-1.84,5.53-.6,6.29c2-1.85,3.85-2.47,8.15-3.23.46-.1.86-.16,1.23-.23.59-2,2.74-9.44,3.54-12.07" fill="#f2a900"/><path d="M536.91,151.16c-2.47-1.7-3.55-4.34-4.77-8.16a37.69,37.69,0,0,0-3.07-7.09c-.94-2.37-6.84-4.06-9.85-5.07l-.15-.15,3.22,14.62-8.53.21h-.12a9.83,9.83,0,0,1,.2,2.87c-.3,4.62-.92,6.15-2.77,11.68-1.7,5.09-3.64,10.44-4,11.25H510c4.15,0,6.61.17,8.93.92s3.06.93,3.06.93.31-.32,1.24-1.38,5.38-1.86,6,1.85l.91,2.44a49.5,49.5,0,0,1,.94-9.23c.91-4.15.29.32,1.37,0s1.54-2.15,2.31-4.59,2.16-3.09,3.08-6.18,1.54-3.23-.92-4.91" fill="#f2a900"/><path d="M527.68,232.37s.3-.29-.93.31.31-1.84.31-1.84l-1.55,1.53v-1.53L524.6,233V229.9l-1.54,2.47v-2.76l-1.24,1.51.93-11.38v-.3s.61-.3,1.85-9.54a221.81,221.81,0,0,0,1.84-27.69c-1.53-1.84-5.52-3.69-9.23-4.31s-2.14-1.22-7.38-.92-8.92.61-12.31,1.54A12.4,12.4,0,0,0,492,181.9a32.9,32.9,0,0,1-2.15,7.08c-1.55,3.38-1.55,8-2.76,19.06a69.62,69.62,0,0,0,.61,22.16c.91,6.14-.61,7.39-1.85,17.52s-1.85,17.87-3.08,24.62-1.54,8.93-.92,13.22-1.24,6.46-3.08,9.84-3.69,6.77-3.69,10.15c1.53-3.36,4.6-4.91,7.38-2.47s5.83,4.64,5.83,4.64l20,1.21a10.77,10.77,0,0,0,5.22-2.76c2.77-2.45,3.08-2.15,4.93-.31s4.91.9,4.91.9a12.9,12.9,0,0,1,4-3c2.17-.94-1.54-18.16-1.54-28.32s.93-36,1.86-42.16v-.9" fill="#f2a900"/><path d="M301.93,102.32A3.94,3.94,0,0,0,301,101c-.51-.41-.31.72-1.13-.08s-1,.39-1.33,0c-1.07-1.45-1.23,0-1.94-.83s-.82.71-1.85.2-.31.51-1.44.11-.71.4-1.72.29-.92.23-1.55.23a1.6,1.6,0,0,0-1,.39,3.21,3.21,0,0,0-1.33.29l-.3,1-.22,1.65a12.76,12.76,0,0,1,7.8-2.67,29.45,29.45,0,0,1,7,.71" fill="#f2a900"/><path d="M277.52,170.73a17.37,17.37,0,0,0,5.34-.6c2.86-.82,4.1-1.64,7.79,0a31.74,31.74,0,0,0,11.88,2.45c3.48,0,1.63,1,4.51-1s6.14-1,4.3,2.25c2.66,2.47,2.46,4.1.62,5.34,0,0,7,27.27,7,32.39a34.16,34.16,0,0,0-11.68,1.65l-.42-34.47s-8,.84-11.9,1-1.63-1.22-5.93-3.27-11.28-1-11.28-1,1.22-1.21.2-4.71" fill="#f2a900"/><path d="M322.85,305.58c3.28-1.12,2.36-1,3.19-1.82l1.32-1.35,1.12,1.86,1.24,2.14.7-.6.1-.52.62-.41.51.7.42-.41.82.83-.1.62.21.41-.92,1-.51-.61-.82.92,1.53,2.15s3-1.53,3.89-4,1.54-5-.81-5.65-3.9-1.74-4.83.21a11.79,11.79,0,0,1-2,3.08l-1.24-1.76s1.34-3.15,2.57-4,3.5-.61,5.13,0,4.7,1.42,4.4,4.3-.6,5.73-2.65,7.18-3.29,2.15-3.29,2.15l.53.52s.51-1.25,3.79-1.14,5-.1,6.77,1.56,2.74,1.82,2,4.8-1.83,5.53-3.27,5.46-4.82-.23-4.82-.23l-.6-1.64s2.87.22,3.88.22,1.53-.1,2.15-1.95,1.23-3.51.21-4.32-1.95-2.56-4.61-2.05-4.61,1-4.61,1l.7,2.35,1.23-.1v-.51l.83-.31.51.41.41-.19.53,1.33-.53.29.22,1-.72.22-.41-.53-.82.53,1.84,4s-5.23-.2-6.56.83-1.64,1-1.64,1a20.39,20.39,0,0,0-1.63-7.16c-1.55-3.29-2.87-7.92-4.21-9.44a12.09,12.09,0,0,1-1.74-2.48" fill="#f2a900"/><path d="M338.76,306.43a2.9,2.9,0,0,1,2.15.3c.82.59.21.91,1,.51s1.83-2.16,1-.1-.72,3.5.08,3.06,1.55-.71,1.44.21-.11.71-1.33,1-2-.62-3.48-.2L333.51,313l-.4-.8,3.79-2.66,1.54-2.25.31-.83" fill="#f2a900"/><path d="M407.38,206.69a10.45,10.45,0,1,0-6.8,1.21" fill="#f2a900"/><path d="M357.83,264.69l1.69,3.07h23.4a11.69,11.69,0,0,0,3.37-3.07c-4.61,1-20.92.75-23.69.75a14.89,14.89,0,0,1-4.76-.75" fill="#d18644"/><path d="M422.34,272.05h13.22a2.68,2.68,0,0,0,1-3.18,146,146,0,0,1-15.18.72s-.31.84.92,2.46" fill="#d18644"/><path d="M395.84,195.39c.53-1.08.83-1.2,2.09-1.14s1.37-.45,2.22-.41a1,1,0,0,1,1,.75s-.58-.71-1.45,0a3.68,3.68,0,0,1-2.9.65l-1,.53.12-.43" fill="#d18644"/><path d="M408.84,195.39c-.54-1.08-.82-1.2-2.08-1.14s-1.37-.45-2.22-.41a1,1,0,0,0-1,.75,1,1,0,0,1,1.45,0,3.71,3.71,0,0,0,2.91.65l1.05.53-.13-.43" fill="#d18644"/><path d="M400.24,199.12a7.21,7.21,0,0,0,2.16.13c.61-.13,1.24-.13,1.64-.21s.8,0,.1.29a4.68,4.68,0,0,1-1.65.62,4.21,4.21,0,0,1-1.64-.4c-.4-.22-.61-.62-.3-.52" fill="#d18644"/><path d="M399.41,201.59c1.65-.1,1.43,0,2.56-.1a27.87,27.87,0,0,1,2.87,0l.25.47a6.43,6.43,0,0,1-1.06,0,25.57,25.57,0,0,0-2.77,0,9.77,9.77,0,0,1-2,0l.17-.37" fill="#d18644"/><path d="M404,203.46c-.93,0-1.75-.44-2.47-.44s-1.33.74-.51.62" fill="#d18644"/><path d="M399.88,197.92l-2.05,2c-.3.33-.11.22-.11,1.25s-.61,1.21-.61,1.21,1.33-3.38,2.47-4.41" fill="#d18644"/><path d="M404.39,197.92l2.05,2c.3.33.1.22.1,1.25s.62,1.21.62,1.21-1.34-3.38-2.47-4.41" fill="#d18644"/><path d="M502.13,103.87c2.06-1.26,0,0,2.67-1.65s5.74-.82,10.46,1l-.2-.28c-.46-1.83-.94-1.83-2.78-3.22a7.72,7.72,0,0,0-5.22-1.38c-1.7,0-2.94,1.38-4.16,2.77a3.91,3.91,0,0,0-1.06,2.79l.29-.06" fill="#d18644"/><path d="M515.55,113.63s-.79-.32-.18.69a3.78,3.78,0,0,1,.72,3.08c-.35,2.56-1.43,1.86-1.43,5.33a56.2,56.2,0,0,1-.41,6.56l1.23.64.82.27s-.47-.76,1.69.18c.93.39,2.88.94,4.93,1.67l.3-.14s-.15,0-.3-.47a1.22,1.22,0,0,1,.75-1.37c.61-.31.3-1.08-.44-3.38s-1.39-2-2.93-3.38-1.08-1.85-1.23-5.38-.93-5.07-2.15-8-.79-3.85-.79-3.85l0-.15s-4.92-1.65-6.57-2.05-4.29.81-7.38,2.46l-.3.2a2.42,2.42,0,0,1-1.23,1.56c-1.08.59-1.53,1.68-2.62,3.51s-1.07,3.7-.15,6-.46,2-2.3,2.93-2.31,4.3-3.39,5.53,1.08,1.39.3,2.92-.76,1.08-.14,2.32l0,.09a62.49,62.49,0,0,1,7.66-1.64l.28,0,2.27-.82a13.08,13.08,0,0,0,1.22-5.75,27.37,27.37,0,0,0-.61-6l-1.44-.62s2-1.22,1.86-2a10.27,10.27,0,0,1-.21-2.05v.05c-1.69.14-1.85.14-1.85.14s.35-1,.92-2.31.93-2.46,1.85-2.29l.31-.33c.4-2.24,1.23-2,1.85-.8s2.66.2,3.09-1.44,1.63-1,1.84-.19a14.1,14.1,0,0,0,1.43,2.64l.26.12s.6-.64,1.85.91,1.52,1.69,2,3.85-1.7.32-1.7.32l.33.47" fill="#d18644"/><path d="M313.42,133.52a61.34,61.34,0,0,1-6.36-1.56,8,8,0,0,1-4.71-3.58l-.31-.31.31.81c-1.35-2.56-.83-4.69-.72-8.19s.72-3.68,1.13-5.94a13.61,13.61,0,0,0,.31-6c-.41-3.37-2.78-3.37-4.41-4A4.52,4.52,0,0,1,296.4,102a13.48,13.48,0,0,1-3.59,2.13c-1.42.41-3.8,3.61-4.3,5.35s-1.43,1.84-1.43,1.84a21.74,21.74,0,0,0-.09,3.47c.09,1.64,1.84.84,1.84.84s.09.61.2,3.59.21,3.86-.3,5.32a5.23,5.23,0,0,1-2.27,2.35v-.09s-4.4,2.56-7.46,3.07a32.91,32.91,0,0,0-4.83,1.14c2.35-4.73,2.35-8.41,5.13-11.38a36.37,36.37,0,0,1,3.88-3.82,25.07,25.07,0,0,1-.19-5.43c.29-1.74-.1-2,.29-3.17s.11-1.44,1.73-2a15.62,15.62,0,0,1,1.75-.62,5.16,5.16,0,0,1,2.35-1.63,15.42,15.42,0,0,1,4.51-1.14,26.64,26.64,0,0,1,4.73.22c2,.09,3.69.31,4.81,1.84s4.19,7.06,2.65,12.19c2.37,3.28,2.57,5,3.4,7.4s-.83,1.53,1,2.15c.46.15.74,1.1.92,1.15.51,0,.18-.87,1.33,2,1.54,3.89,1.43,4.71,1.43,4.71" fill="#d18644"/><path d="M301,101c-.51-.41-.31.72-1.13-.08s-1,.39-1.33,0c-1.07-1.45-1.23,0-1.94-.83s-.82.71-1.85.2-.32.51-1.44.11-.71.4-1.72.29-.92.23-1.55.23a1.59,1.59,0,0,0-1,.39,3.21,3.21,0,0,0-1.33.29l.1-.21A34,34,0,0,1,289.66,98c.72-1,1.64-2.13,4.41-2.13s4-.31,5.83,2.33,1.13,2.59,1.13,2.59v.2" fill="#d18644"/><path d="M261.56,102.15l.11-.07h-3.23c-2.16,0-2.31-.62-2.31-.62a7.81,7.81,0,0,0-1.39-2.62,13.23,13.23,0,0,0-1.23-3.7c.15-.77.62-2.77-.15-4.15,1.7-.3,2.46-1.67,3.24-3.38s.46-1.06-1.08-1.22-4.6-.31-5.22,3.52c-1.7,1.7-2.61,3.55-2,5.7-.91,2.76-.15,3.08.3,3.71a2.46,2.46,0,0,0,.14,2.29,4.54,4.54,0,0,0,0,4.61,1.25,1.25,0,0,0,.23.32.53.53,0,0,0-.05.15,15.22,15.22,0,0,0-1.09,4.92l.3-.19c.07.36.4.56.93.51a28.62,28.62,0,0,0,5.38-1.56l1.84-1.05c3.54-2.46,5.07-4.32,5.53-5.69.26-.79.38-1.43-.26-1.48" fill="#d18644"/><path d="M277.06,306.37a16.38,16.38,0,0,0,3.38,1.24c2.77.62,5.69-2.61,5.69-2.61l-1.85-1.86-3.08,1.7s-.45-1.08.47-1.55a7.26,7.26,0,0,0,1.08-.61l-.62-.63.77-.91,5.22,3.38,1.07-.45,1.24.62-5.68,4.6-4.94.94-.9-.18-3.24-2.29.93-1.53" fill="#d18644"/><path d="M309.22,305.78s5.07,6.45,9.38,7.36,6.46-.3,6.46-.3l-.3-1.55-1.39.29s-.61.94-1.24.79a1.48,1.48,0,0,1-.76-.32s-.15.63-1.09.47-1.06.3-2.44-1.08-3.23-3.37-3.23-3.37-.15-1.39,1.23-1.25,2.6.18,3.84,1.25.6.44.6.44-.75-.75-.28-1.05a13,13,0,0,1,1.22-.78l-.45-.63L318,304.84s-4.15-.15-4.76,2.3l-3.09-2-.92.62" fill="#d18644"/><path d="M510.44,308.52a19,19,0,0,0,4.92,3.53c2.46,1.09,3.38,1.22,5.38.95l3.84-.63-.46-2-2.3.76a1.46,1.46,0,0,1-1.85.32c-1.08-.62-.46.3-2.31-.62a14.46,14.46,0,0,1-3.54-2.77l3.38-2.76s.78-2.32-2.76.29a31.48,31.48,0,0,1-4.3,2.93" fill="#d18644"/><path d="M486.28,306.2l-2,2.17-2.15-2.32,1.23-2-1.08-.74-1.38,2.27-4-1.21-.3.77s3.39,1.54,2.92,2.91a22.27,22.27,0,0,0-.61,2.18,7.74,7.74,0,0,0,1.69-1.23c.76-.8,1.53-.95,2-.48a4.12,4.12,0,0,0,1.08.77l-3.23,3.55-1.54-1.08s-1.38,0-1.84-.45a17.37,17.37,0,0,1-1.38-1.87l-.31-1.07,3.07-6.3a10.23,10.23,0,0,0-3.07,2.79c-.78,1.37-2.93,4.92-1.69,6s3.06,3.53,4.76,3.53,2.31-.3,4.62-2a44.9,44.9,0,0,0,5.21-4.91l-2-1.26" fill="#d18644"/><path d="M408,85.74c-.33-2.43-.15-1,1.18-1.15s1-3.08,1-3.08,4.3-.63,6.15-.63,1.22-2.23,3.48-2.86,1.64-1.42,1.64-1.42.41-.64,2.47-.41,2.25-.82,2.25-.82V73.92l2.25-.41.21-1.82,3.28-.22.41-1.24,2.66-.39-.2-1.24.82-.41-.82-1.62h2.46l.2-2.25,1.84-.62-.81-1.23,1.43-.41L439.32,60l1.23-.39V58.35l1.85-.8-.21-1.44,2.25-.21-.4-1.41v-.22a6.08,6.08,0,0,0,3.48-3.07,6.2,6.2,0,0,1,2.87-3.07l-.83-1,1.64-.83.21-1.43a43,43,0,0,0,7-2.06,7.56,7.56,0,0,0,4.52-4.91s-8.41,1.42-19.09,2.65-19.89,2.26-24.61,3.71-.82,5.32-6.77,11.47a6.47,6.47,0,0,1-10-1,71.23,71.23,0,0,1-3.28-8h1.64l-1.64-3.07,1.64-.83S399.32,42,396,40.33a6.68,6.68,0,0,0-7.79.83c-3.69-.4-4.3,2.68-4.3,2.68s2.46-1,4.1-.42,3.07-.62,3.69,8.62-3.9,7.59-9,7.39c-4.3-.63-5.34-1.86-6.36-5.33s.21-5.33-4.11-8.42-18.24-5.53-26.45-7-19.48-4.51-19.48-4.51.2,1.65,2.66,3.27a22.28,22.28,0,0,1,3.88,3.28,21.82,21.82,0,0,1,1.43,2,6.61,6.61,0,0,0,3.27,2.47s.82,1.45,1.65,2.67a58.49,58.49,0,0,0,6,6.36,7.49,7.49,0,0,0,4.09,1.21c-1,0-1.43.62-1.63,1.86a8,8,0,0,0,3.28,2.06l-.41,1.43,2.66.6-.4,2,3.69.83-.82,1.21,3.49.62-.82,1.24L361,68l-.62,1.24,3.7.41-.63,1.64h3.49l-.82,1.44,2.88.41s5.53,3.68,9.44,4.69,2,2.27,7,.64,3.29-1.23,3.29-1.23,2.66.82,2,2,.61,2.26,1.84,4.93.62,1.86,2.05,1.86c.61,0,.77,0,.95.47l1.74.1a4.35,4.35,0,0,1,0-1.19c.22-1.44,1-1.65,1-1.65L400.11,85s-.41-1.22-1-4.09-.21-3.48-.21-3.48l1.65.39s1.22,4.11,4.11,6.17c1.63,1.16,1.71,1.51,1.77,2.17l1.55-.39" fill="#b3875a"/><path d="M494.75,163.15c.62-1.41.62-1.41.32-3.24s-.47-2,0-3.68.61-.62.3-3.69-.15-1.54-1.39-2.32-1.85-.62-.92-3.07,2.31-1.71,1.38-4.47-2.16-3.84-1.69-4.3-.47,1.67-.77,4.3,0,3.08-.32,5.84-.76,4.48-.3,5.06a18.91,18.91,0,0,1,1.24,3.24l2,6.76" fill="#b3875a"/><path d="M500.6,297.91c2.46-16,4.91-29.84,5.84-34.47s2.77-10.76,2.77-17.22.3-8.31,1.84-16.32a103,103,0,0,0,2.16-21.82,104.7,104.7,0,0,0-1.85-17.56s1.53-1.52,2.14,1.85,1.24,4,1.85,2.15,1.24-3.06,2.15-.91,2.17,2.15,2.17,2.15l.92-.62,1.53,1.53,2.16-2.15,1.84-3.06a24.42,24.42,0,0,1-.92,10.75c-1.84,5.55-1.84,4.31-1.84,8.31a33.06,33.06,0,0,0,.31,5.56s-.92.57-1.23-3.39-.93-7.08-1.85.92-4,15.69-2.77,7.38,2.15-18.47,0-16.62-3.08-.29-3.38,7.39.62,7.38-.62,12,0,6.16-1.54,15.1-2.46,8.62-2.77,14.45.93,9.21.31,16.91-.92,8.62-2.46,9.24-.91,0-1.53,7.38-1.54,12.62-1.54,12.62l-3.69-.3" fill="#b3875a"/><path d="M525.21,233.61s-2.46,15.38-3.39,28.59-.31,22.16-1.85,28.31a33.49,33.49,0,0,0-.3,12.61s-.31,2.46-1.23-2.44-4-11.39-2.76-4.92,1.83,9.53,1.83,9.53,2.17,2.47,4,1.85.92-.94,2.45-3.38,2.48-.32.93-8.63.31-21.22.92-26.77-.31-6.14-.31-16-.3-18.77-.3-18.77" fill="#b3875a"/><path d="M496.6,297.91c2.63-7,4.61-17.53,5.23-23.69s.61-14.15-.93-5.85-3.08,15.39-4,22.47-1.24,9.51-.31,7.07" fill="#b3875a"/><path d="M500.28,259.44c.32-5.53,1.24-6.75,3.09-11.38s1.23-4.31,2.75-12.31,2.47-11.67,2.77-16.29a29.14,29.14,0,0,1,.93-6.46s-.31,1.54-2.77,10.46-3.7,12-4.61,17.53-.92,6.79-2.77,11.38-.92,4-1.23,8,1.23,1.85,1.84-.93" fill="#b3875a"/><path d="M481.51,172.05c.62-3.36.32-5.23-.61-8.9s-1.54-5.54-1.54-5.54.3.3,1.24,0,.91-.93,2.15,1.83.92,2.79.3,5.56-1.54,7.05-1.54,7.05" fill="#b3875a"/><path d="M486.13,162.84c1.24-1.26,1.55-.61,1.55-4.61s-.92-4.32-.61-6.18-.31-3.05-.94.33-.3,4-.61,6.14-.61,5.24-.61,5.24l1.22-.92" fill="#b3875a"/><path d="M475.49,176.21s-1.83-6.21-2.25-8.86l5.43,1.79s-.55,4.45-3.18,7.07" fill="#b3875a"/><path d="M509.68,148.82s-.32,4.62-4.61,4.76a61.23,61.23,0,0,1-6.31,0,50.77,50.77,0,0,0,5.68,1.39,6.67,6.67,0,0,0,3.69-.45l1.55-4.76" fill="#b3875a"/><path d="M528.51,152.22a5.14,5.14,0,0,1-.38,1.24,6.42,6.42,0,0,1-1.84,2.61s1.69,1.69,2.15,8.3-.61,6.31-.61,6.31,1.24,1.84.92,1.39.32-6,.93-9.07a38.76,38.76,0,0,1,1.69-7.07c.77-1.86,2-1.86,2.61-2.32s.16-.9-1.38-.29-1.53-.76-1.53-.76" fill="#b3875a"/><path d="M530.83,150.49l-.09-.42-.62-2.92c-1.38-3.69-1.06-4.46-1.68-6.31s-2.32-3.69-1.54-.91.3,5.22,1.07,6.59a9.58,9.58,0,0,1,.82,4.3" fill="#b3875a"/><path d="M397.32,86.43a4,4,0,0,1,0-1c.21-1.42,1-1.64,1-1.64L400.19,85s-.41-1.25-1-4.11-.21-3.49-.21-3.49a8.14,8.14,0,0,0-1.85-5.33c-2-2.47-6.76-5.12-7-1a41.3,41.3,0,0,1-.72,6.42c.74.34,1.75,1,1.35,1.78-.63,1.23.61,2.25,1.85,4.91s.61,1.85,2,1.85a1,1,0,0,1,1,.57l1.66-.14" fill="#ffe8b8"/><path d="M408.05,85.78a20,20,0,0,0-.89-2.84c-1-2.68-1.24-3.48-.22-4.31a3.83,3.83,0,0,0,1.24-1.41,39.19,39.19,0,0,1-1.24-5.76c-.4-3.07-4.91-3.68-5.53-2s-1.85,5.75-.82,8.41c0,0,1.22,4.11,4.1,6.14,1.44,1,1.79,1.5,1.9,2l1.46-.21" fill="#ffe8b8"/><path d="M402.23,54.62s-1.43-.39-1.63,3.48-1.44,6.78-4.73,8.43l-4.92.61a17.92,17.92,0,0,1-.83-3.69c-.19-2,1.44-2.25-4.71-1.63s-8.2.41-15-7-4.5-8.2-13.95-10.86c0,0-10.65-2.87-17.22-4.5s-10-1.85-12.91-5.33c0,0,11.27,3.07,19.48,4.49s22.15,3.91,26.46,7,3.06,4.92,4.1,8.39,2,4.73,6.35,5.35c5.12.2,9.64,1.85,9-7.39-.47-6.91-1.39-8-2.51-8.31l.44-1.42-1.43-1.14a6.66,6.66,0,0,1,7.79-.82c3.28,1.64,4.72,2.46,4.72,2.46l-1.63.82,1.63,3.07h-1.63a71.91,71.91,0,0,0,3.28,8,6.48,6.48,0,0,0,10,1c6-6.15,2-10,6.77-11.48s13.94-2.47,24.61-3.7,19.07-2.65,19.07-2.65c-7.59,3.06-25.85,6.55-30.56,8s-5.73,1.41-10.45,8.41-14.36,9-16.21,6.34-1.85-4.3-1.85-4.3" fill="#ffe8b8"/><path d="M306.29,131.61s-.31,3.07-.92,7.07-2.31,3.52-5.08,3.7c-1.24.05-6.76.05-11.06.3-2.79.16-2.62-.48-4-3.86a75.26,75.26,0,0,1-2.79-10l4-2s2.62,8,3.39,9.54,0,1.38,3.08,1.23,4.91.15,6.14,0,1.23,1.21,2-2.46a51.68,51.68,0,0,0,.92-7.09s2.46,2.91,4.3,3.55" fill="#9bd9f4"/><path d="M507.06,119.67c.82-.83,1-.83,2.26-.83s1.43.32,2,.09,1.43.72,1.43.72a5.26,5.26,0,0,0-1.85.43c-1,.39-1.22-.23-2.05-.23a11.5,11.5,0,0,1-1.84-.2" fill="#ff3515"/><path d="M534.75,223.76v5.54c0,2.76-.31,3.07-.31,3.07l-.92-2.47L532.28,233v-1.85l-1.84,2.76-.62-2.46-1.53,2.46-.61-1.53s.3-.29-.92.31.3-1.85.3-1.85l-1.53,1.54v-1.54L524.6,233V229.9l-1.53,2.47v-2.78l-1.24,1.55.93-11.4,4.46,2.46s2.61,2.63,4.14,2.63a8.16,8.16,0,0,0,3.39-1.09" fill="#ff3515"/><path d="M486.13,134.22,484,137.29a21.65,21.65,0,0,1-3.38,2.15c-1.85.92-1.85,2.76-2.47,6.47s-2.45,1.83-4.9,3.68a8.76,8.76,0,0,0-3.09,3.68s0,1.25,1.85,3.7,5.84.32,5.84.32l3.69-2.47a9.52,9.52,0,0,0,1.24-5.53,24.75,24.75,0,0,0-.92-4.91l2.76-4.62a13.24,13.24,0,0,0,1.53-5.54" fill="#ff3515"/><path d="M475.37,176.52s2,4,3.85,2.48.3-2.95,2.62-6.77,10.75-15.69,10.75-15.69,3.23,8.75,1.85,12.47-1.85,5.51-.61,6.3L492,181.9a31.93,31.93,0,0,1-2.15,7.08c-1.55,3.39-1.55,8-2.76,19.08a69.75,69.75,0,0,0,.61,22.14c.92,6.16-.61,7.39-1.85,17.53s-1.85,17.88-3.08,24.63-1.54,8.93-.92,13.22-1.23,6.46-3.08,9.84-3.7,6.77-3.7,10.16l-1,2.34s-7.63-.14-11.57.12a14.18,14.18,0,0,1,3.07-2.77c1.85-1.23,2.46-1.55,3.07-4s.93-2.76,3.39-5.85,3.09-6.74,3.39-12.6,1.22-30.46,1.53-39.72-.62-49.22,0-53.54,0-5.22.31-6.74-1.23-4.61-1.23-4.61" fill="#ff3515"/><path d="M533.06,225.14c2.77-.92,2.15-.62,1.85-14.47s-4.62-34.76-4.62-34.76l-.92-1.84.92,2.45a49.8,49.8,0,0,1,.93-9.21c.92-4.16.31.3,1.38,0l-.46-.17.46,4.77c.32,3.23,2.32,3.7,4.93,1.09l.43-.8s5.23,44.92,5.84,48.32-2.14.62-1.84,3.7,3.08,4.92.32,7.08-4.93,2.45-5.24,7.67.92,48,1.85,55.08.92,8,3.39,10.47a17.09,17.09,0,0,1,3.38,4.62c-5.34-.41-21.85-.32-21.85-.32l-.82-1.65,4.5-2.94c2.17-.94-1.53-18.18-1.53-28.34s.92-36,1.85-42.14" fill="#ff3515"/><path d="M293.37,116.47a6.33,6.33,0,0,1,.78-.11,7.81,7.81,0,0,1,2.53-.4,3.6,3.6,0,0,1,1.52.41,4.21,4.21,0,0,0,1,.21,8.08,8.08,0,0,0-1.88.41,1.79,1.79,0,0,1-1.74,0,10.82,10.82,0,0,0-2.19-.52" fill="#ff3515"/><path d="M272.6,306.2a22.63,22.63,0,0,1-2.78.32c-3.07.3-6.76-7.66-12.61-14.45s-2.77-22.48-2.77-22.48a20.33,20.33,0,0,1-3.08-2.44c.31-4,1.85-20.93,1.85-20.93-2.77-.59-3.07-1.83-3.07-1.83L260.28,173l12.3,133.22" fill="#ff3515"/><path d="M321,306.2l-.09,0s.56,1.47.09,0" fill="#ff3515"/><path d="M323.06,289.29c-.93-9.53-.61-23.68-.93-35.38s.93-30.45,2.16-44.59-.62-45.25-.62-45.25l-1.07-.92s-2.31,9.86-3.69,13.53-2.91-1.05-4-5.54a85.94,85.94,0,0,1-3.07-18.76c-.77,4.62-1.4,17.85-1.4,17.85l-.3.28c1.52.07,2.39,1.25,1.24,3.3,2.66,2.47,2.46,4.11.61,5.33,0,0,7,27.27,7,32.41l-.07.21a44.74,44.74,0,0,0-6,.3c-1.24.31-5.54,1.53-5.54,1.53s-1.53,4.92.62,5.55,3.08,1.23,4,.6.92-.91,3.08-.33a6.34,6.34,0,0,0,1.25.31l0,0a13,13,0,0,1,.3,7.36c-.92,4.63-2.46,11.09-2.14,16.94a30.77,30.77,0,0,0,1.84,9.53s-.92.31-1.84,8.62S316,296,316,296a28.59,28.59,0,0,1,4.29,8l.71,2.13a11.94,11.94,0,0,0,2.07-.61c1.84-.61,3.69-1.52,5.84-5.52,0,0-4.92-1.22-5.84-10.77" fill="#ff3515"/><path d="M279.06,300.37c-1.54.64-3.09,2.77-4.62,5.21L262.91,176.23c1.69,6,5.34,1.12,7.17-4.88,0,0,3.33-11.91,3.74-13.95a9.42,9.42,0,0,1,1.44-3.47s-.21,5.12,1,6.12.94.95.41,3.1c-1.23,4.9.82,7.58.82,7.58h.41c1,3.5-.2,4.71-.2,4.71l.09-.28c-3.68,4-4.61,8.6-5.53,15.68a79.83,79.83,0,0,0-.31,16.92c-3.38,12.92,4,32.61,4,32.61a55.93,55.93,0,0,0,.94,19.7c-1.86,3.68-2.47,3.37-2.47,3.37s3.38,5.85,2.47,9.85-.63,4.31,1.84,6.76c-1.23,1.86,2.44,9.86.29,20.3" fill="#ff3515"/><path d="M323.88,313.81s3.79,8.31,4.4,9.33,2,3.27,2,1.33-2.57-10.16-3.49-12.42a37.48,37.48,0,0,0-4.11-6.24l-1.64.5a18.81,18.81,0,0,0,1.75,2.05c1.33,1.44,2.25,2.46,2.25,3.58s.09,1.55-1.12,1.86" fill="#ff3515"/><path d="M329.62,306.2a14.84,14.84,0,0,0-.92-1.52l1.13-2.37s7.59-.08,7.07,1.74-.51,3.19-1.74,4.53-2.26,1.94-2.56,1.73a17.78,17.78,0,0,1-1.64-1.85l.61-.93.52.43.82-.71-.31-.52.4-.42-.82-1.12-.52.2-.3-.51-1.24.31.22.61-.72.4" fill="#ff3515"/><path d="M336.7,319l.82-.41.31.3.82-.2v-.94l.51-.09-.09-1.33-.53-.09-.41-.63-1.53.4.1.62-.82.32-.92-2.59a5.81,5.81,0,0,1,2.87-.82c1.95-.09,3.89-.39,4,.41s1.24,2.68.21,4.33a6.67,6.67,0,0,1-4,2.85h-.31l-1-2.15" fill="#ff3515"/><path d="M508.29,116.17c1,.62.82.62,1.64.41l1.63-.41-.4-1.65s2,1.65.82,2.06a4.42,4.42,0,0,1-2.66.41,1.39,1.39,0,0,1-1-.82" fill="#d18644"/><path d="M301.52,108.08c1.12.75-3.8-.52-3.89.6a9.41,9.41,0,0,0,.72,3.59c.3.81.3,2-1,1.93s-2.56.41-2.26-.4.4-.72.4-.72-.3.63.21.72a4.83,4.83,0,0,0,1.13.09c.52,0,1.13,0,1.23-.61a4.34,4.34,0,0,0-.4-2.25c-.41-1.25-.63-2.26-.22-2.88a2,2,0,0,1,2.15-.83,3.37,3.37,0,0,1,2,.74" fill="#d18644"/><path d="M295.27,109.49a1.48,1.48,0,0,0-1-2,3.34,3.34,0,0,0-3.29.71,4.82,4.82,0,0,0,1.64-.09,2.56,2.56,0,0,1,2.26.41,5,5,0,0,1,.41,1" fill="#d18644"/><path d="M295.06,117.91c-.65-.42,1.54.2,2.05.2a1.75,1.75,0,0,1-2.05-.2" fill="#d18644"/><path d="M524.5,182.88c0,3.37-4.09,6.1-9.14,6.1s-9.14-2.73-9.14-6.1c0,0,6.07-.78,9-.78,3.16,0,9.29.78,9.29.78" fill="#bbbcbc"/><path d="M572.51,182.88c0,3.37-4.09,6.1-9.13,6.1s-9.15-2.73-9.15-6.1c0,0,6.07-.32,9-.32s9.3.32,9.3.32" fill="#bbbcbc"/><path d="M539.67,152.38l24.46.62v-1.24c-.46-.15-22.46-1.54-22.46-1.54l-1.7.16h-.3l-1.7-.16s-22,1.36-22.46,1.54V153l24.46-.62" fill="#bbbcbc"/><path d="M322.6,162.84l-4.15-3.55.31-5.53,2-3.38,2.61-.45,1.69,1.38-.14-1.24s-3.39-3.85-5.84-1.68-3.55,6-3.85,13.07,0,11.7,0,11.7.77,1.84,1.53,3.68,1.09,2.16,1.85,0,4-14,4-14" fill="#61619e"/><path d="M263.52,169.76s4.15,1.85,3.69,4.47c0,0,.46-10.18,0-12.94,0,0-.15,6-3.69,8.45" fill="#61619e"/><path d="M275.38,157.15a6.58,6.58,0,0,0,1.54,2.29c.91.76,2.76.47,1.69,2s-1.23,4.91-1.39,6-.78.61-.78.61a11.5,11.5,0,0,1,.32-4.9c.77-2.15.92-1.71-.15-2.78a4.05,4.05,0,0,1-1.08-2.61" fill="#61619e"/><path d="M278,170.54l-.6.14-.61-2.31s.15.47,2.91.63,3.24-.48,5.09-.8,3.84,0,5.83-.29-1.08,1.09,2.46,1.4a56.45,56.45,0,0,0,6.76.15c1.69,0,3.69,1.68,6-.77s3.39-2.3,3.09-5.4-1.85-5.36-2.45-6.75-.78-1.7.91-3.54,3.24-1.37,3.69-4.61a19,19,0,0,0-.16-6.17c-.14-1.82.47-8.27.77-5.21s2,3.39,1.7,7.7-.46,3.54,1.38,2,5.53-4.15,2.61-.46-4,5.84-4.61,9.23-.14,3.36-.14,3.36l-.94-6.13-1.38,17.52a24.51,24.51,0,0,0-4.31,1.69c-2,1.09-2.6.77-5.07.62a29.84,29.84,0,0,1-9.38-2.15c-3.23-1.38-4.46-1.67-6.93-.78a33.62,33.62,0,0,1-7.22,1.25" fill="#61619e"/><path d="M271.06,157.15l-4.15-3.1c1.53,1.73,2.47,5.1,2,6.18l.2-.28a38.56,38.56,0,0,1,.26,7.34c-.31,3.39.15,6.32.3,2.17.13-3.88.54-8.92.36-10.84l1-1.47" fill="#523178"/><path d="M280.6,151.58c2.54,1.28,5.68,2,8,1.26l-1.08,10.92s0,2.76.61.31,3.69-18.47,4-20,0-2.31-.31-1.07-1.07,6.6-2.77,7.68-8,.63-8.61.16-.78.31.15.77" fill="#523178"/><path d="M296.6,143.16s1.22,9.53,1.54,12.6,1.23,4.15.77.61-1.85-5.08,1.23-4.46,6,3.7,9.38-.45,2.61-3.86,2.61-3.86-.91-6.14-1.53-3.22-1.39,5.08-3.7,5.82-3.7,1.56-5.38,1.09-2.76,2-3.08-.29-1.07-6.46-1.07-7.24-.93-2.14-.77-.61" fill="#523178"/><path d="M275.38,155.76s2.15.93,1.38-3.38-1.08-4.16-.77-5.84.77-2.16-.16-5.08-2.3.16-2.3.16a15.48,15.48,0,0,1,.15,4.76c-.3,2.77-.62,1.67-.92,2.77s-.31,4.31-.76,7.67-1.31,11.45-.47,8.16a4,4,0,0,1,.11-.44c-.41,3.48-.26,3.09-.26,8.58,0,5.7.45,6.47.62,9.7s-.31,3.23-.16,4.47,0,1.83.76-.29,1.84-8.18,2.93-9.1,1.08-.14-.62-1.38a4.31,4.31,0,0,1-1.69-4.61c.32-1.71,0-6.45.32-9.39a13.78,13.78,0,0,0-.1-3.94c1-2.94,1.78-4.67,1.78-4.67l.15,1.87" fill="#523178"/><path d="M280.29,175a28.19,28.19,0,0,0-1.69,6.44c-.32,1.85.31,1.85,1.22-.3a37,37,0,0,1,3.24-5.85l-2.77-.29" fill="#523178"/><path d="M288,176.52c2.16,2,5,2.32,5.75,5.07s1.06,7.09,1.84,3.88,2.31-4.33,3.84-4.47,3.34-.79,3.65,3.23.75,3.38.14,10.91-1.54,17.37-.6,14.32,1.37-7.56,2-13.09.6-5.25,1.06-4.47,1.24,2.31,1.24,2.31V179l-13.84.9s-2.3-3.67-4.92-3.85" fill="#523178"/><path d="M274.65,232.88c-3-9.63-3.09-16.21-2.26-20.51s1.65-3.05,1.24.63,1.43,14.56,1.84,18.25.21,4.92-.82,1.65" fill="#523178"/><path d="M293.73,204c-.82,10-1.44,1-.41,11.29s2.66,13.11.61,23.17a125.25,125.25,0,0,0-2.25,25.43c0,6.37.83,13.34,1.64,3.71s3.08-25.65,2.66-32,.82-15.18,1-22.36,1-13.75.81-19.87-1.63-4.14-2.45-1.65-.41,3.27-.41,3.27l-1.22,9" fill="#523178"/><path d="M306.65,203.14c-1.24,9-2,14.58-3.28,23.8s-3.7,17.23-4.72,25.85-.83,15.38,0,8,2.66-14.16,4.51-23.8,3.49-20.32,3.49-20.32l.6-3.45-.6-10.06" fill="#523178"/><path d="M308.29,219.35c-.41,8.79.62,8-2.47,21.34s-3.69,14.36-4.91,23.79-1.43,3.48-2.46,12.92-2.87,10,.61,13.53a18.25,18.25,0,0,0,7.38,4.51,25.14,25.14,0,0,1-4.3-4.29c-1.63-2.27-2.66-4.31-2.46-5.57s2.46-.18,2.46-.18-1.63-.82-1.44-4.3,2.46-3.91,2.46-3.91a87.86,87.86,0,0,1,.83-13.53c1-7.61.82-13.54,2.67-16.8s3.48-6.78,3.89.39S312,269.81,312,277.83s.61,14.36,2.26,17.42a15.44,15.44,0,0,0,4.3,4.92l-2.26-4.1s-1.43-11.07-1.84-19.27-1.65-17.23,1.84-23.58c-1.84-8.22-3.49-9,0-24.62a20.89,20.89,0,0,0,0-8.83l-3.28-1s-1.23,1.24-4.72.61" fill="#523178"/><path d="M305,298.54c-5.52-2.47-8.82-4.32-11.27-9s-2.87-6.14-3.49-14.14-2.26-20.31-1.85-12.92-.6,18.24-.21,26.24,3.89,7.78.21,7.78-8-.18-.21,1.86,2.87,6.36,8.62,4.11,1.44-4.5,8.2-3.89" fill="#523178"/><path d="M277.94,257.08c.4-.82,4.5-9,4.5-9a41.2,41.2,0,0,0,.62-4.72c.2-2.65-1.23-1.85-2.66-.82s-2.66-1-3.08,3.92.21,7.17.62,10.64" fill="#523178"/><path d="M286.55,245.4c4.11-9.23,5.74-13.94,5.34-18.88s.21-9.83-.41-6.76-2.66,10.26-1.84,4.93.81-8,1.63-8,1.43,0,1.43,5.92,1,9.47-1.43,19.32-3.08,14.35-3.08,14.35.21-4.32-1-6.35-1.84-2.08-.61-4.53" fill="#523178"/><path d="M294.13,145.15c-.61,6.43-.31,12-.92,17.22s.92,5.83,1.07-.44.32-13.86.32-16.19-.16-3.22-.47-.58" fill="#523178"/><path d="M339.57,308.52a.87.87,0,1,0-.87-.86.88.88,0,0,0,.87.86" fill="#fff"/><path d="M341.22,308.82a.86.86,0,0,0,.87-.86.87.87,0,0,0-1.74,0,.86.86,0,0,0,.87.86" fill="#fff"/><path d="M340.7,310.68a.88.88,0,1,0-.86-.87.87.87,0,0,0,.86.87" fill="#fff"/><path d="M338.85,310.58a.87.87,0,1,0-.87-.88.87.87,0,0,0,.87.88" fill="#fff"/><path d="M343.16,310.05a.86.86,0,0,0,.87-.86.87.87,0,1,0-.87.86" fill="#fff"/><path d="M345.22,312.84a.88.88,0,1,0-.87-.9.88.88,0,0,0,.87.9" fill="#fff"/><path d="M346.76,314.27a.86.86,0,0,0,.86-.87.88.88,0,0,0-.86-.88.88.88,0,1,0,0,1.75" fill="#fff"/><path d="M347.47,316.23a.87.87,0,1,0-.87-.86.88.88,0,0,0,.87.86" fill="#fff"/><path d="M347.68,318.49a.87.87,0,1,0-.87-.86.88.88,0,0,0,.87.86" fill="#fff"/><path d="M347.47,320.52a.87.87,0,0,0,.87-.86.87.87,0,0,0-1.74,0,.88.88,0,0,0,.87.86" fill="#fff"/><path d="M346.55,322.47a.85.85,0,0,0,.85-.86.86.86,0,0,0-.85-.86.87.87,0,0,0-.87.86.86.86,0,0,0,.87.86" fill="#fff"/><path d="M340.19,306.17a.87.87,0,1,0,0-1.73.87.87,0,1,0,0,1.73" fill="#fff"/><path d="M340.49,304.31a.87.87,0,0,0,.87-.85.86.86,0,0,0-.87-.86.86.86,0,1,0,0,1.71" fill="#fff"/><path d="M340.29,302.58a.86.86,0,1,0-.86-.86.87.87,0,0,0,.86.86" fill="#fff"/><path d="M339,300.93a.86.86,0,1,0,0-1.72.86.86,0,0,0,0,1.72" fill="#fff"/><path d="M389.1,40.27c1.85,0,3.09-.19,4.72,1s-.61.23-2.25,0a4.35,4.35,0,0,1-2.47-1"/><path d="M436.68,131.93l5.84,2.29,1.38-2.68-7.22.35"/><path d="M291.48,109.61c.71-.21,1.22-1,1.84-.53a3.38,3.38,0,0,0,.93.64l-1,.5c-.63.3-.53,0-.94-.19l-.81-.4"/><path d="M298.44,109.71c.72-.22,1.24-1,1.85-.51a3.1,3.1,0,0,0,.94.6l-1,.5c-.63.31-.52,0-.93-.2l-.83-.39"/><path d="M255.06,90a14.47,14.47,0,0,1-3.09.61c-1.43.1-2.35.72-1,1.13S254,93,254,92.69a8.23,8.23,0,0,0-.62-1.55L255.06,90"/><path d="M254.24,97.71c-1.64,1.23-1.73,1.83-.82,1.64a7.17,7.17,0,0,0,1.34-.41l-.53-1.23"/><path d="M248.6,99.35a6,6,0,0,0,2.25.11,1.93,1.93,0,0,0-1.13-1c-.92-.42-1.53-1.24-1.64-.42a1.58,1.58,0,0,0,.52,1.33"/><path d="M248.92,107.25c-.49,1.2,1.32-.81,2.87-1.93l2.34-1.75s.61-1.13-1,.1a8.17,8.17,0,0,1-3.28,1.65c-.82.17-1.23.27-1.23.27a1.47,1.47,0,0,1,.32,1.65"/><path d="M254.53,108l0,.23s.21-.22,0-.23"/><path d="M258.14,103.34c-2.16.72-3,1.86-4.82,2.78s-1.75,1.53-1.75,1.53-1,.61-2,1.32c0,0-.72,1-1,1.55s.29.51,1-.2,1.32-.73,3.48-1.74a4.3,4.3,0,0,1,1.52-.55l-.09-1,1.54-.83.22.83.23-.24.08,0c1.31-.4,1.21.52,2.14-1.12a18.25,18.25,0,0,0,.92-2,6.7,6.7,0,0,0,1.53-.64c.93-.61-.81-.42-3,.29"/><path d="M348.73,348.15l-.05,0A5.43,5.43,0,0,0,344.4,343c-1.17-.29-1.66-.1-1.89.83l-.71,2.78c1.84.43,3.33.37,4.3-1.26v0l-1.32,5.28v.06c0-1.91-1.35-2.73-3.19-3.2l-1.27,5.27c-.23.95.08,1.34,1.27,1.63a5.85,5.85,0,0,0,6.6-2.75l-1.35,5-12.13-3-.07,0c1.42.35,2.42-1.47,2.65-2.43l2-8.16a1.88,1.88,0,0,0-1.39-2.46v0l11.83,2.93-1.05,4.73"/><path d="M356.68,358.63l.15-.75c1.31.25,1.57.14,1.64-.16a1.85,1.85,0,0,0-.21-1.07l-1.2-3.24-2.47,2.44a1.76,1.76,0,0,0-.52.8c-.08.45.29.76,1.58,1l-.13.79-5.47-1.05-.06,0c1.09.1,2.37-1,3.2-1.75l3.5-3.26-2.07-5.51c-.3-.81-.6-2.57-1.7-2.74v0l6.65,1.26h0a1.3,1.3,0,0,0-1.69,1.06,1.74,1.74,0,0,0,.16.86l1,2.8,2.16-2.11a1.68,1.68,0,0,0,.55-.8,1.53,1.53,0,0,0-1.17-1.63l0,0,5.14,1h0c-1.56-.2-2.25.88-3.36,1.9l-2.89,2.63,2.43,6.55c.28.75.65,1.95,1.69,2.27h-.05l-6.81-1.31"/><path d="M379.62,353.36l-.06,0c-.68-2.89-2.31-4.6-4.58-4.87-2.42-.31-3.74,1.77-4.23,5.61s.57,6.24,3.23,6.55a4.52,4.52,0,0,0,5.26-4l.4.06c-.43,3.41-2.63,5.24-6.19,4.8-4.61-.58-6.76-4.1-6.29-7.85a7.07,7.07,0,0,1,7.72-6.09,7.86,7.86,0,0,1,3.7,1.63l1.67-.6h0l-.59,4.75"/><path d="M394.92,354.2v.06a5.62,5.62,0,0,0-5.26-4.26c-1.22-.05-1.64.2-1.7,1.16l-.08,2.92c1.89.08,3.38-.37,4-2.2l0,.08-.27,5.48,0,0c-.42-1.87-1.84-2.39-3.71-2.49l-.32,5.4c-.06,1,.34,1.27,1.55,1.35a5.88,5.88,0,0,0,6-4h0l-.37,5.15-12.48-.62v0a1.86,1.86,0,0,0,2-2l.46-9.35a1.85,1.85,0,0,0-1.76-2.21l-.06,0,12.17.59-.12,4.84"/><path d="M398.28,363l0,0a1.83,1.83,0,0,0,1.85-2.12l-.25-9.35c0-1-.46-2.06-1.92-2l-.07,0,7.17-.19v0a1.86,1.86,0,0,0-1.89,2.12l.26,9.33c0,.94.38,1.21,1.37,1.18,2-.06,4.3-2.14,4.74-4.39l0,0,0,5.19-11.36.3"/><path d="M412.62,357.24h0c.74,2.08,3.12,4.21,5.61,3.95a2.19,2.19,0,0,0,2.27-2.51c-.28-2.84-7.77-1.08-8.23-5.59a4.33,4.33,0,0,1,4.12-4.88c2.12-.2,2.94.75,3.46.7a2.57,2.57,0,0,0,1.5-.94v0l.48,4.65,0,0c-.77-2.06-3-3.73-5.05-3.53a2.06,2.06,0,0,0-2.07,2.22c.32,3,7.85.76,8.38,5.82a4.64,4.64,0,0,1-4.36,4.94c-2.42.26-3.44-.68-4.07-.62a3.19,3.19,0,0,0-1.48.93l-.05,0-.53-5.16"/><path d="M426.86,360.84h0a1.87,1.87,0,0,0,1.59-2.35l-1.53-9.25a1.88,1.88,0,0,0-2.27-1.75h0l7.07-1.17,0,0a1.84,1.84,0,0,0-1.54,2.35l1.52,9.26a1.85,1.85,0,0,0,2.21,1.74l0,0-7.07,1.13"/><path d="M440.65,344.17a7,7,0,1,1-5.14,8.38A7.11,7.11,0,0,1,440.65,344.17Zm3,12.78c2.24-.51,2.6-3,1.74-6.69s-2.27-5.72-4.51-5.2-2.59,3-1.74,6.68,2.26,5.74,4.5,5.21"/><path d="M464.49,352c-.83.27-1.23.43-1.23.43-1.91.59-3-.21-3.79-2.37s-1.1-2.84-3.22-2.51l1.21,3.94c.32,1.07,1,2.18,2.52,1.66l0,.05-6.67,2,0,0a1.85,1.85,0,0,0,1.21-2.56l-2.74-9a1.84,1.84,0,0,0-2.43-1.4l0,0,6.6-2c3.2-1,5.21-.19,5.88,2,.74,2.47-1.52,3.84-3.61,4.5l0,.06a3.61,3.61,0,0,1,4.12,1.81c1.15,1.67,1.42,2.43,1.87,2.31,1.84-.57,2.08.44.29,1.06v0ZM456,346.88c2-.73,3.2-1.45,2.52-3.59-.47-1.57-1.58-2.37-2.89-2a1.1,1.1,0,0,0-.88,1.51l1.25,4.08"/><path d="M328.89,221.46c0,2.84,6.82,1,6.82,3.84m-2.19-11.38c-1.91,2.08,4.35,5.35,2.44,7.43m-.13-10.57c-1.57,2.36,5.14,4.59,3.57,7m-1.81-10.41c-1.17,2.57,5.8,3.69,4.63,6.3m-3.44-10c-.74,2.75,6.32,2.75,5.58,5.49m-5-9.32c-.3,2.82,6.67,1.71,6.37,4.54m-6.41-8.42c.16,2.83,6.86.62,7,3.47m-7.66-7.32c.61,2.79,6.87-.46,7.48,2.31m-8.71-6c1,2.66,6.69-1.53,7.73,1.11m-9.56-4.5c1.44,2.42,6.38-2.64,7.82-.2m-10.16-2.92c1.82,2.16,5.88-3.59,7.69-1.42m-10.49-1.27c2.14,1.88,5.23-4.47,7.37-2.59m.86-8.64c-2.61,1.09,1.74,6.64-.87,7.76m4.43-9.6c-2.47,1.4,2.46,6.42,0,7.81m3.38-10c-2.31,1.64,3.15,6.11.83,7.75m2.24-10.31c-2.12,1.89,3.78,5.76,1.66,7.63m1.11-10.52c-1.9,2.1,4.39,5.32,2.47,7.42m0-10.57c-1.66,2.3,4.93,4.81,3.27,7.1m-1.16-10.5c-1.39,2.47,5.41,4.24,4,6.71m-1.81-11.47c-1.68,2.27,5.47,5,3.81,7.28M329.41,218c-.28,2.83,6.69,1.69,6.4,4.51M328.89,225c0,2.84,6.82,1,6.82,3.84m29.51-75c2.83,0,1-6.8,3.83-6.8m.89,6.8c2.84,0,1-6.8,3.82-6.8m.9,6.8c2.83,0,1-6.8,3.83-6.8m.88,6.8c2.84,0,1-6.8,3.84-6.8m.88,6.8c2.83,0,1-6.8,3.83-6.8m.89,6.8c2.84,0,1-6.8,3.83-6.8m.89,6.8c2.83,0,1-6.8,3.83-6.8m.88,6.8c2.84,0,1-6.8,3.84-6.8m.88,6.8c2.84,0,1-6.8,3.83-6.8m.89,6.8c2.84,0,1-6.8,3.83-6.8m.89,6.8c2.84,0,1-6.8,3.83-6.8m.89,6.8c2.84,0,1-6.8,3.83-6.8m.88,6.8c2.84,0,1-6.8,3.83-6.8m.89,6.8c2.85,0,1-6.8,3.83-6.8m.89,6.8c2.85,0,1-6.8,3.84-6.8m.88,6.8c2.84,0,1-6.8,3.83-6.8M328.89,229.16c0,2.82,6.82,1,6.82,3.83m-6.82.33c0,2.82,6.82,1,6.82,3.82m-6.82.32c0,2.82,6.82,1,6.82,3.84m-6.82.33c0,2.82,6.82,1,6.82,3.81m-6.82.33c0,2.83,6.82,1,6.82,3.84m-6.82.32c0,2.84,6.82,1,6.82,3.82m-6.82.32c0,2.85,6.82,1,6.82,3.84m-6.82.31c0,2.83,6.82,1,6.82,3.83m-6.82.35c0,2.82,6.82,1,6.82,3.8m-6.82.34c0,2.82,6.82,1,6.82,3.84m-6.82.31c0,2.85,6.82,1,6.82,3.83m-6.82.32c0,2.82,6.82,1,6.82,3.84m-6.51.92c0,2.83,6.81,1,6.81,3.84m-2.09,9.38c2.45,1.45,4.28-5.38,6.72-4m-2.72,6.29c2.45,1.44,4.28-5.38,6.72-4m-2.73,6.29c2.46,1.4,4.28-5.41,6.72-4m-2.72,6.3c2.46,1.39,4.28-5.41,6.72-4m-2.73,6.25c2.46,1.45,4.28-5.37,6.72-4m-2.72,6.28c2.46,1.44,4.28-5.37,6.72-4m-2.72,6.3c2.46,1.43,4.28-5.4,6.72-4M361.89,309c2.47,1.41,4.28-5.42,6.72-4m-2.72,6.3c2.47,1.42,4.28-5.41,6.72-4m-2.73,6.26c2.47,1.44,4.28-5.38,6.72-4m-2.72,6.28c2.47,1.43,4.28-5.4,6.72-4m-2.72,6.29c2.47,1.4,4.28-5.41,6.72-4m-2.72,6.29c2.46,1.42,4.27-5.4,6.72-4" fill="none" stroke="#000" stroke-linecap="round" stroke-width="1.02"/><path d="M385.88,322.84c2.46,1.42,4.27-5.4,6.72-4m-2.73,6.26c2.46,1.45,4.27-5.36,6.72-4M393.26,327c2.46,1.43,4.27-5.4,6.71-4m-71.43-38.19c.94,2.69,6.76-1.29,7.7,1.37m-6,3.2c2,2,5.51-4.13,7.52-2.13m-.4-111.92c-1-1.71-3-1.89-4.73-1.71a5.56,5.56,0,0,1-2.85-.39m141.74,48.19c0,2.84-6.81,1-6.81,3.84m2.17-11.38c1.92,2.08-4.34,5.35-2.43,7.43m.13-10.57c1.57,2.36-5.14,4.59-3.57,7m1.81-10.41c1.18,2.57-5.79,3.69-4.63,6.3m3.44-10c.75,2.75-6.32,2.75-5.57,5.49m5-9.32c.29,2.82-6.68,1.71-6.38,4.54M461,195.9c-.15,2.83-6.86.62-7,3.47m7.65-7.32c-.6,2.79-6.87-.46-7.47,2.31m8.72-6c-1,2.66-6.71-1.53-7.75,1.11m9.57-4.5c-1.45,2.44-6.38-2.61-7.82-.16m10.16-3c-1.83,2.16-5.89-3.59-7.69-1.42m10.48-1.3c-2.13,1.87-5.23-4.46-7.37-2.6m-.86-8.6c2.62,1.09-1.74,6.64.88,7.76m-4.43-9.6c2.47,1.4-2.45,6.42,0,7.81m-3.4-10c2.31,1.64-3.15,6.11-.83,7.75m-2.24-10.31c2.13,1.89-3.77,5.76-1.66,7.63m-1.13-10.52c1.9,2.1-4.38,5.32-2.47,7.42m0-10.57c1.66,2.3-4.92,4.81-3.26,7.1m1.15-10.5c1.4,2.47-5.42,4.24-4,6.71M471,218c.28,2.83-6.68,1.69-6.4,4.51m6.92,2.48c0,2.84-6.81,1-6.81,3.84m6.81.33c0,2.82-6.81,1-6.81,3.83m6.81.33c0,2.82-6.81,1-6.81,3.82m6.81.32c0,2.82-6.81,1-6.81,3.84m6.81.33c0,2.82-6.81,1-6.81,3.81m6.81.33c0,2.83-6.81,1-6.81,3.84m6.81.32c0,2.84-6.81,1-6.81,3.82m6.81.32c0,2.85-6.81,1-6.81,3.84m6.81.31c0,2.83-6.81,1-6.81,3.83m6.81.35c0,2.82-6.81,1-6.81,3.8m6.81.34c0,2.82-6.81,1-6.81,3.84m6.81.31c0,2.85-6.81,1-6.81,3.83m6.81.32c0,2.82-6.81,1-6.81,3.84m6.5.92c0,2.83-6.81,1-6.81,3.84m2.1,9.4c-2.47,1.41-4.27-5.42-6.73-4m2.73,6.3c-2.47,1.42-4.27-5.38-6.73-4m2.73,6.32c-2.46,1.38-4.27-5.43-6.72-4m2.72,6.3c-2.46,1.38-4.27-5.41-6.72-4m2.73,6.25c-2.46,1.43-4.27-5.39-6.72-4m2.72,6.28c-2.46,1.44-4.27-5.37-6.72-4m2.72,6.3c-2.46,1.4-4.27-5.42-6.72-4m2.73,6.31c-2.46,1.41-4.28-5.42-6.72-4m2.72,6.3c-2.46,1.39-4.28-5.42-6.72-4m2.73,6.29c-2.46,1.44-4.28-5.38-6.72-4m2.72,6.26c-2.46,1.42-4.28-5.38-6.72-4m2.72,6.31c-2.46,1.4-4.28-5.41-6.72-4m2.73,6.27c-2.46,1.42-4.28-5.4-6.72-4m2.72,6.3c-2.46,1.41-4.28-5.42-6.72-4m2.73,6.26c-2.47,1.45-4.28-5.38-6.72-4m3.32,5.87c-2.45,1.43-4.27-5.4-6.71-4m71.43-38.21c-.94,2.69-6.75-1.29-7.7,1.37m6.05,3.2c-2,2-5.51-4.11-7.52-2.13m.4-111.92c.95-1.71,3-1.89,4.73-1.71a5.54,5.54,0,0,0,2.84-.39M363.38,153.72c1.32-.82-.76-5.84.18-6.41m75.08,7.8s4.45-4.55,4.53-6" fill="none" stroke="#000" stroke-linecap="round" stroke-width="1.02"/><path d="M407.38,206.69a10.45,10.45,0,1,0-6.8,1.21" fill="none" stroke="#d18644" stroke-width="0.62"/><path d="M400.13,144.73H356.18A31.44,31.44,0,0,1,330,167.88l-5.43,9.76,2.17,1.45a22.66,22.66,0,0,1,2,36.5l-2.12,2.31v64.62c0,4.14-.32,8.75,6.61,12.61s66.92,38.4,66.92,38.4h.09s60-34.56,66.93-38.4,6.61-8.47,6.61-12.61V217.9l-2.12-2.31a22.64,22.64,0,0,1,2-36.5l2.17-1.45-5.43-9.76c-12.71-1.68-23-11.92-26.17-23.15h-44m-.12,11.46h36.28a42.35,42.35,0,0,0,22.94,20.61,34.09,34.09,0,0,0,3,45.76c-.06,14.28,0,56.49,0,60v.53c0,.33,0,1.1,0,1.62-.16.09-.37.24-.69.44-4.73,2.63-42.57,24.36-61.36,35.23h-.12c-18.79-10.87-56.63-32.6-61.36-35.23-.32-.18-.54-.33-.7-.44,0-.52,0-1.29,0-1.62v-.53c0-3.49.09-45.7,0-60a34.08,34.08,0,0,0,3-45.76A42.4,42.4,0,0,0,364,156.19h36.12m0-9.45H357.68a33.18,33.18,0,0,1-26.4,23l-4,7.31.61.39a24.63,24.63,0,0,1,2.28,39.6l-1.52,1.67c0,7.1,0,60,0,63.85V283c0,3.89,0,7.24,5.59,10.36,6.41,3.54,58.78,33.67,66,37.85h0c7.2-4.18,59.57-34.31,66-37.85,5.61-3.12,5.6-6.46,5.59-10.36v-.51c0-3.84,0-56.75,0-63.85L470.24,217a24.64,24.64,0,0,1,2.28-39.6l.62-.39-4.06-7.31c-12.46-2-22.6-11.79-26.4-23H400.24m-.07,7.43h37.46a40.34,40.34,0,0,0,25.16,21.72,32.06,32.06,0,0,0,1.52,45.82c-.07,14.53,0,57.32,0,60.81v.53a12,12,0,0,1-.14,2.63,5.09,5.09,0,0,1-1.61,1.2c-5,2.78-44.71,25.58-62.36,35.77h-.07c-17.64-10.21-57.32-33-62.35-35.77a4.92,4.92,0,0,1-1.61-1.2,13.44,13.44,0,0,1-.14-2.63v-.53c0-3.49.09-46.28,0-60.81a32.09,32.09,0,0,0,1.51-45.82,40.4,40.4,0,0,0,25.17-21.72h37.3m-62,105,.16-.4h20.05m28.92,0h32.57m2.56,0h4m5.85,0h29.53l.56.42M354.9,294.33c1.25-.63,5.75-2.83,9.59-3.18,4.51-.39,5.74,1.24,9.44.81s15.59-3.68,15.59-3.68c6.15-2.88-3.29-3.7-3.29-3.7l-4.51-.41s-.81-.41-4.51-2.86-4.51-1.24-9,.41a3.8,3.8,0,0,1-.72.24s-.06,0-.1,0l-.58.2-.11,0-.49.15-.07,0-.44.13h0l-.38.08h-.05a1.7,1.7,0,0,1-.31.06l-.06,0h-.55l-.24,0s0,0,0,0h0c-.58-.1-1.14-.36-2.36-.53-2.87-.39-7.39,2.89-7.39,2.89s-.82,1.22-5.32,0-3.7-2.07-10.67-2.07l-.19.14" fill="none" stroke="#000" stroke-width="0.62"/><path d="M400.24,320.37c18.79-10.88,56.63-32.61,61.36-35.22a7.78,7.78,0,0,0,.7-.46l-1-.52s-5.75.41-4.92-3.69-3.27.83-3.27.83-2.88-.43-8.62-4.12-3.7,1.63-3.7,1.63a16.4,16.4,0,0,1-3.35,1.37h-.05l-.26.07-.22,0-.28,0-.2.05a1.72,1.72,0,0,1-.32,0l-.17,0h-.47c-2.46,0-8.21,2.48-8.21,2.48a4.44,4.44,0,0,1-4.91,0c-2.88-1.63-6.56-3.28-10.25-2.87s-5.75,5.75-5.75,5.75-2,1.64.41,4.09-.82,1.65-4.5,2.46-4.53,0-7.8,0c-9,.41-19.28,4.09-9.85,5.33s25.44.83,30,1.24-2.47,4.11-11.9,4.11-18.47-.83-19.28-2.47-6.56-3.7-7.79-1.63-7.79,2.46-7.79,2.46m-10-36.7,1.69,3.07h23.4a11.69,11.69,0,0,0,3.37-3.07c-4.61,1-20.92.75-23.69.75a14.89,14.89,0,0,1-4.76-.75Zm.3.15-4.3-.79,4.77-4.9m25.84.46c.16,2.14-.62,2.3-1.08,3.7l-1.08,1.4m5.55-5,2.46,3.09-3.69,1.68M370.75,243.3v3.38m-.31,3-.15.79m.15,6-.31,2.31m0,4,.16,2.46m-6.77-15.23v-3.54m.16,8.77v2.15m16.45-10v2.62m0,2.46v1.09m-.3,4v1.83m0,4.31.15,1.4m-19.85-7.71,1.39-1.85m19.7,7.85.61,1.55m-8.15-2.79L372.13,265m3.08-6.79L371.06,265m2.92-8.94L372.44,259m2.77,4.3c1.85-2.61.92-3.83.92-3.83l8.47-.19,1.84,5.1a6.19,6.19,0,0,1-2.94-.76l-8.44.14-1.39,1.37m1.69-7.07c2.77-.9,7.85-.12,7.85-.12a4.59,4.59,0,0,0,.15-4.32l-8.3-.61s1.68.93.28,5.07h0v0Zm1.7-5.83,5.06.46a3.13,3.13,0,0,0,.63-2.31l-5.54-.31S377.5,250.52,377.06,252.22Zm7.38,3.53.77,4.18,2.62-.18-2.47-4Zm-10.76,6.62v-3.08l-10.16-1.36s.92,1.22,0,5.53Zm-7.85-4.76a7.74,7.74,0,0,0,.93-6.92l9.22.3s-1.06.15-1.53,2.62l-.47,2.46Zm8.77-6.92c-3.54-.76-7.7-1.23-7.7-1.23l.16-2.77,6.45.47a6.85,6.85,0,0,1,1.08,3.53Zm-8.16,5.06-6-.46a8.57,8.57,0,0,0-.77-5.36l6.77.76m-3.22,7.24-4.77-.2c.77,3.88,1.07,4.18,0,6.18l4.77-.76v2.16" fill="none" stroke="#000" stroke-width="0.62"/><path d="M422.34,272.05h13.22a2.68,2.68,0,0,0,1-3.18,146,146,0,0,1-15.18.72s-.31.84.92,2.46Zm.52-2.46-8-3.16m10.47,3.06v-21m.92,5.14V269l12.41-2.36m-2.46.54c-5.34-6.57-5.23-15.58-5.23-15.58m-6.46,17.12c-1.74-5-2.87-11.49-1.34-15.08,0,0-5.23,7.29-7.48,12.91l8.83,2.16Zm-1.55-15,2.36-4.5m.32,4.91,6.36-3.18M337.83,229.2a20.47,20.47,0,0,1,4.92-3.27c3.27-1.65,4.5-2.47,7-.83a22.22,22.22,0,0,0,4.91,2.46s3.29-2.07,6.16-4.12,2-3.28,5.74-2.45,12.71-1.64,16-3.28,4.92.42,7.79-3.27,2.87-3.3,7-4.93,3.27-4.5,8.61-2.88,8.2.83,16,7,12.72,8.2,16,11.47a43.06,43.06,0,0,0,6.57,5.35s3.28-1.25,6.56-2.88,4.51-2.86,7-1.23a13.64,13.64,0,0,0,4.51,2m-17.61,2a56.4,56.4,0,0,0,7.37,5.72c2.88,1.66,9.44,3.3,9.44,3.3M387.65,133a8.8,8.8,0,0,0-6.55-2.73c-1.71,0-3.17,1.24-5.22,1.9.24.24.53.53.86.83,2,1.89,2.18,5.22,5.87,5.94a3,3,0,0,0-.35,0c3.28.54,11.27,0,11.27,0-3.7-.72-3.86-4.05-5.88-5.94Zm-16,5.94a3.33,3.33,0,0,0-.37,0c3.28.54,11.27,0,11.27,0-3.69-.72-3.86-4.05-5.88-5.92a8.83,8.83,0,0,0-6.54-2.75c-3.09,0-4.66,1.65-4.35,4.55s2.62,4.12,5.54,4.12m27.2-5.94A8.8,8.8,0,0,0,392,130.3c-1.72,0-3.19,1.24-5.24,1.9.25.24.53.53.87.83,2,1.89,2.18,5.22,5.88,5.94a3.17,3.17,0,0,0-.37,0c3.28.54,11.27,0,11.27,0-3.7-.72-3.86-4.05-5.88-5.94Zm10.92,0A8.76,8.76,0,0,0,403,130.3c-1.71,0-3.18,1.24-5.23,1.9.24.24.54.53.87.83,2,1.89,2.18,5.22,5.87,5.94a3.1,3.1,0,0,0-.36,0c3.29.54,11.27,0,11.27,0-3.7-.72-3.86-4.05-5.89-5.94Zm10.94,0a8.81,8.81,0,0,0-6.54-2.73c-1.71,0-3.19,1.24-5.23,1.9.25.24.53.53.87.83,2,1.89,2.17,5.22,5.87,5.94a3.1,3.1,0,0,0-.36,0c3.27.54,11.26,0,11.26,0-3.69-.72-3.85-4.05-5.87-5.94Zm4.37-2.73c-1.71,0-3.17,1.24-5.23,1.9.25.24.53.53.87.83,2,1.89,2.18,5.22,5.87,5.94a3.1,3.1,0,0,0-.36,0c4.15.25,7.27.76,7.27-2.81s-4-5.63-8.42-5.87v0Zm-.7-.17a26.12,26.12,0,0,0-11.33-37.76m-5.23-1.74a26.91,26.91,0,0,0-5.49-.55,30.17,30.17,0,0,0-3.17.16m-3,.57A26.1,26.1,0,0,0,380,130.22m28-44.29c-.3-2.36-.2-1.14,1.12-1.33s1-3.09,1-3.09,4.31-.63,6.16-.63,1.21-2.23,3.46-2.86,1.64-1.42,1.64-1.42.41-.64,2.47-.41,2.25-.82,2.25-.82V73.92l2.25-.41.22-1.82,3.28-.22.4-1.23,2.66-.4-.21-1.24.83-.41-.83-1.62h2.47l.2-2.25,1.84-.62-.82-1.23,1.43-.41L439.32,60l1.23-.39V58.35l1.84-.8-.2-1.44,2.25-.21-.4-1.41v-.22a6,6,0,0,0,3.47-3.07,6.2,6.2,0,0,1,2.87-3.07l-.82-1,1.63-.83.21-1.43a43,43,0,0,0,7-2.06,7.56,7.56,0,0,0,4.52-4.91s-8.41,1.42-19.09,2.65-19.89,2.26-24.61,3.71-.82,5.32-6.76,11.47a6.48,6.48,0,0,1-10.05-1,71.23,71.23,0,0,1-3.28-8h1.65l-1.65-3.07,1.65-.83S399.32,42,396,40.33a6.69,6.69,0,0,0-7.8.83,3.65,3.65,0,0,0-4.3,2.7s2.46-1.06,4.1-.44,3.07-.62,3.69,8.62-3.89,7.59-9,7.39c-4.3-.63-5.33-1.84-6.35-5.33s.2-5.33-4.11-8.42-18.25-5.53-26.46-7-19.49-4.51-19.49-4.51.21,1.65,2.67,3.27a22.15,22.15,0,0,1,3.89,3.28s.21.22,1.43,2a6.57,6.57,0,0,0,3.28,2.47s.81,1.45,1.64,2.67a59.35,59.35,0,0,0,5.94,6.36,7.49,7.49,0,0,0,4.09,1.21c-1,0-1.42.62-1.62,1.86a8,8,0,0,0,3.27,2.06l-.41,1.43,2.66.6-.4,2,3.7.83-.83,1.21,3.49.62-.82,1.24L361,68l-.62,1.25,3.69.4-.62,1.64h3.49l-.82,1.44,2.88.41s5.53,3.68,9.43,4.69,2.06,2.27,7,.64,3.28-1.23,3.28-1.23,2.66.82,2,2.05.62,2.26,1.85,4.91.62,1.86,2.05,1.86a1,1,0,0,1,1,.55" fill="none" stroke="#000" stroke-width="0.62"/><path d="M406.61,86.14c-.06-.63-.35-1.06-1.91-2.18-2.88-2-4.1-6.16-4.1-6.16L399,77.41s-.4.61.21,3.47,1,4.1,1,4.1l-1.85-1.22s-.82.2-1,1.64a4.27,4.27,0,0,0,0,1.13m-64-45.65,2.46.41m2.05,3.7,3.49.42m-1.23,2.86,6,.61m-2.88,3.29,6.57.18m-1.24,2.88,5.34-.59m-2.47,4.71,4.92-1m-3.07,3.29,4.11-1m3.07,2.47-3.89,1M359,66.32l3.89-1.42m-2,2.88,3.89-1.64m-.41,3.27,3.28-1.86m-.82,3.71,3.89-2.06M369,72.69,372.28,71m-1.22,3.1a8.61,8.61,0,0,0,3.69-2.08m-1.43,3.08a8.62,8.62,0,0,0,3.49-1.63m-.41,3.28a16.76,16.76,0,0,0,3.48-2.26m38.56,3.9-2.66-.63m5.94-1.22-3.28-1m7.8-2-4.73-1m7-1.23-5.12-1m8.81-.41L423.78,68m10.87.41-5.33-1.23m5.33-.41-5.33-1.42m8-1.25-5.13-.82M439,62l-5.13-.39M438.76,60l-3.09-.61m4.72-1-3.48-.42m5.13-2-3.69-.42M444.08,54l-4.1-.39m7.58-2.88-4.91.23m6.76-4.14-3.48.41M451.47,45l-4.11.21M395.64,86.57a7.5,7.5,0,0,1,.44,2.12c0,1.37.28,2.3-1.33,2.77s-2.15.76-2.39,2.3c.7-.68,1.23-1.21,1.93-.62a2.46,2.46,0,0,0,1.69.53s-1.07-1.37.46-1.84a17.16,17.16,0,0,1,4.23-.37s-1.93-.91-2.23-1.55a9.37,9.37,0,0,1-.52-1.22,9,9,0,0,1-.61-2.26M406.6,86a10.45,10.45,0,0,0,.36,2.49c.14.59-.9.83-1.51,1.57,0,0,2.38-.3,2.16.86a3.26,3.26,0,0,0,.22,2,4.73,4.73,0,0,1,1.08-.77,12.06,12.06,0,0,1,2,.47,3,3,0,0,1,1.77,1.16,2.55,2.55,0,0,0-1.39-3.08,16.13,16.13,0,0,1-2.37-1.31m-.12-.29s-.2.83-.61-2.47a4.33,4.33,0,0,0-.14-.83M510.56,143l-5.76.23s-1.64-8.62-4.52-13.53l2.27-.82a12.93,12.93,0,0,0,1.22-5.73,27.05,27.05,0,0,0-.61-5.93l-1.44-.64s2-1.22,1.86-2a10.27,10.27,0,0,1-.21-2.05,96.49,96.49,0,0,0,11.79.54s.1.75.21,1.31c.23,1.33.61,1.31.42,3.06-.31,2.58-1.13,1.86-1.13,5.35a56.2,56.2,0,0,1-.41,6.56l1.23.62s.82-.62,1.64,3.87,1.85,8.82,1.85,8.82l-4.78.22m-9.59-35.09s5.95.21,8.21.21a14,14,0,0,1-1.44-2.64c-.21-.83-1.43-1.45-1.85.19s-2.46,2.66-3.08,1.42-1.44-1.42-1.85.82Zm9.84,14.36s-1.23,3.09-3.9,2.88a11.66,11.66,0,0,1-4.51-1.26m-3.9-17.41c3.09-1.64,5.75-2.88,7.39-2.45s6.57,2,6.57,2,.35-2.2-.83-2.66c-4.72-1.85-7.78-2.67-10.46-1s-.43.78-2.67,1.65C501.32,104.17,501.37,106.79,502.13,106.32Z" fill="none" stroke="#000" stroke-width="0.62"/><path d="M503.37,112.52c-1.69.16-1.85.16-1.85.16s.35-1,.92-2.31.93-2.44,1.85-2.29m10.92,5.08s2.15,1.83,1.7-.32-.79-2.32-2-3.85-1.84-.93-1.84-.93m-20.78,23.25c-.62-1.26-.62-.79.16-2.32s-1.38-1.7-.31-2.92,1.55-4.59,3.39-5.53,3.23-.61,2.31-2.93a6.43,6.43,0,0,1,.13-6c1.09-1.86,1.54-2.9,2.63-3.53a2.41,2.41,0,0,0,1.23-1.55m0-2.62a3.91,3.91,0,0,1,1.07-2.77c1.22-1.39,2.45-2.77,4.15-2.77a7.7,7.7,0,0,1,5.22,1.38c1.84,1.39,2.31,1.39,2.77,3.22m1.08,3.11s-.45.91.79,3.85,2,4.43,2.15,8-.31,4,1.22,5.38,2.15,1.07,2.92,3.39,1.08,3,.46,3.37a1.25,1.25,0,0,0-.77,1.39c.16.45.31.45.31.45M500,129.76s-11.85,1.68-13.7,4.76a16.46,16.46,0,0,1-2.15,5.68,17,17,0,0,0-2.16,4.18s2.47,8-.61,10.14a37.86,37.86,0,0,1-4,2.61s5.23,10.08-1.84,19.21c-1.38-2.73-1.84-6.29-2.3-9.05m2.15,9.23s2,4,3.85,2.48.3-2.95,2.62-6.77,10.75-15.69,10.75-15.69,3.23,8.75,1.85,12.47-1.85,5.51-.61,6.3c2-1.84,3.85-2.47,8.15-3.24a29.12,29.12,0,0,1,8-.76c4.15,0,6.62.16,8.92.92a30.63,30.63,0,0,0,3.08.93s.31-.32,1.24-1.4,5.37-1.84,6,1.85l.91,2.44a49.8,49.8,0,0,1,.93-9.21c.91-4.15.29.32,1.38,0s1.53-2.15,2.3-4.59,2.16-3.09,3.08-6.18c.65-2.18,1.16-2.9.51-3.71m-2.6-2.19c-1.66-1.66-2.57-4-3.6-7.16a36.7,36.7,0,0,0-3.06-7.08c-1.09-2.77-8.94-4.61-11.09-5.53s-1.68-.16-1.68-.16m2.77.45,3.23,14.62-8.54.19m-4.19.1-6.5.14s-3.08-12.45-4.93-15.36M492,181.29l1.85-6.47m36.29.62s4.32,20.93,4.62,34.76.91,13.54-1.84,14.48-5.23-2.78-5.23-2.78h-.62c-2.46-1.53-4.31-2.46-4.31-2.46s.61-.3,1.85-9.54a221.89,221.89,0,0,0,1.85-27.69c-1.55-1.84-5.53-3.69-9.24-4.31s-2.14-1.22-7.38-.92-8.92.61-12.31,1.54A12.32,12.32,0,0,0,492,181.9a32.59,32.59,0,0,1-2.16,7.08c-1.54,3.38-1.54,8-2.75,19.06a69.92,69.92,0,0,0,.61,22.16c.91,6.14-.61,7.39-1.85,17.52s-1.85,17.87-3.08,24.62-1.54,8.93-.92,13.22-1.23,6.46-3.08,9.84-3.7,6.77-3.7,10.15c1.55-3.36,4.61-4.91,7.39-2.47s5.84,4.64,5.84,4.64l20,1.21a10.77,10.77,0,0,0,5.22-2.76c2.77-2.45,3.08-2.15,4.93-.31s4.91.9,4.91.9a12.76,12.76,0,0,1,4-3c2.15-.94-1.54-18.16-1.54-28.32s.93-36,1.86-42.16m-4.91-13.48-.93,11.38,1.24-1.53v2.76l1.54-2.47V233l.91-2.15v1.53l1.55-1.53s-1.55,2.46-.31,1.85.92-.32.92-.32l.61,1.53,1.54-2.46.61,2.46,1.85-2.76V233l1.22-3.09.94,2.47s.3-.29.3-3.07v-5.54m-31.52-51.85s2.61-9.07,3.54-12.15,3.07-8,3.07-10.47-.88-5.65.35-6.26l4.34-.22c-2.25.75-.39,1-.69,5.57s-.93,6.14-2.76,11.67-4,11.42-4,11.42m-29.24-14.18s-4,2.15-5.85-.29-1.85-3.69-1.85-3.69a8.76,8.76,0,0,1,3.09-3.71c2.46-1.82,4.3,0,4.91-3.69s.63-5.53,2.47-6.45a22.82,22.82,0,0,0,3.38-2.15l2.14-3.09" fill="none" stroke="#000" stroke-width="0.62"/><path d="M479.16,169.31A36,36,0,0,1,469,165c-5-3.19-17.78-20.81-19.64-23s-1.54-.85-5-1.76-3.08-1.71-3.08-1.71l.11-.11c-1.33.87-1.23.33-1.87-.35s.92-1.36,1.52-1.85,1.12-.56,1.54-1.69,1-2.44,1-2.44,5.53.92,8,4,4.62,4.33,9.24,8.62,9.54,8.31,9.54,8.31m-28.09-18.68a42.14,42.14,0,0,1-4.42-1.86c-1-.61-2.87-.41-2.26.83a5.3,5.3,0,0,1,.52,3.09c0,1.32,0,2.44,1.13,2.54a23.61,23.61,0,0,0,2.66,0m1.34-.6s.51-.29,1.33-.71a5.82,5.82,0,0,1,2.47-.82m-8.83-2.68a9.82,9.82,0,0,0,1.75.73c1.23.4,3.49.82,3.49.82m-5.14.22a11.9,11.9,0,0,0,3.69.81m-3.58.81a6.44,6.44,0,0,0,2.87.43m-4.85-6.25s10.24-.14,12.68-.07,2.47-2.09,0-2.09H434.44c-2.46,0-3.47,2,.08,2.16Zm4.92,7.47s.09,2.31.09,3.23,1.77,1.94,1.77.06-.07-3.6-.07-3.6m1-9.55-1.23-64.15h-1.23l-1.23,64.15m102,9.23a2.19,2.19,0,0,1-2.16-1.68,18.37,18.37,0,0,1-.32-3.08s-1.68-.47-1.22-1.08.77.17.3-.46-1.85-1.7,0-1.82,3.24-.16,3.7-.16.61,0,1.84,1.37,1.85,1.08,2.31,4a48.38,48.38,0,0,1-.15,14.77m-.46,2.14c-1.69,6.77-4.46,17.4-7.07,20s-4.61,2.16-4.93-1.05-.45-4.78-.45-4.78m6.29-33.08L540,133m-2.61-1.06,1.85-.62m-.62,3.66,1.53-.43m-1.38,2,1.38-.3m-2.3,35.54s5.23,44.91,5.84,48.32-2.15.61-1.85,3.68,3.09,4.92.31,7.08-4.92,2.46-5.22,7.68.92,48,1.84,55.06.93,8,3.38,10.47a16.37,16.37,0,0,1,3.39,4.63m-82.91-.78a13,13,0,0,1,2.93-2.59c1.85-1.24,2.46-1.55,3.07-4s.93-2.77,3.38-5.85,3.07-6.77,3.39-12.61,1.23-30.45,1.53-39.71-.61-49.22,0-53.53,0-5.24.32-6.77-1.24-4.59-1.24-4.59m63.69-27.87-1.7-.16s-22,1.39-22.46,1.54V153l24.46-.62m0-2,1.7-.16s22,1.39,22.46,1.54V153l-24.46-.62m-1.7-2.47.77-12.15m2.17,12.31-.16-11.55m-.31-12,.16,3.07m-1.86.15v-3.07m.84.44a1.54,1.54,0,1,0-1.52-1.52A1.52,1.52,0,0,0,539.58,127.13ZM524.5,182.88c0,3.37-4.09,6.1-9.14,6.1s-9.14-2.73-9.14-6.1c0,0,6.07.76,9,.76s9.29-.76,9.29-.76Zm48,0c0,3.37-4.09,6.1-9.13,6.1s-9.15-2.73-9.15-6.1c0,0,6.07.76,9,.76S572.51,182.88,572.51,182.88Zm-55,.43-2-30.31-9.39,29.68s8.16-.45,18.32-.14l-8.15-29.38m49.23,30.15-2-30.31-9.39,29.68c6.77-.45,14.46-.14,18.31-.14l-8.16-29.38" fill="none" stroke="#000" stroke-width="0.62"/><path d="M286.44,126.93a5.25,5.25,0,0,0,2.25-2.35c.52-1.42.42-2.36.31-5.32a34.87,34.87,0,0,0-.2-3.59s-1.74.82-1.85-.83a24.09,24.09,0,0,1,.1-3.48s.91-.08,1.44-1.84,2.86-4.92,4.3-5.33a14.31,14.31,0,0,0,3.59-2.15,4.49,4.49,0,0,0,2.24,2.77c1.64.61,4,.61,4.41,4a13.69,13.69,0,0,1-.3,5.94c-.41,2.26-1,2.47-1.13,5.94s-.63,5.63.71,8.23l-.3-.83a38.13,38.13,0,0,1-.72,6.25c-.61,2.56.1,3.38-1.94,3.38s-5.54.09-6.87.21-1.74.83-3.08-2.15a84.39,84.39,0,0,1-3-8.83l0,0Zm15.28-9c-.82,2.17-1.53,3.29-4.5,3.49a8.17,8.17,0,0,1-4.62-.82m-6.16,6.26S282,129.4,279,129.91a33.41,33.41,0,0,0-4.82,1.14c2.36-4.73,2.36-8.41,5.13-11.38a35.94,35.94,0,0,1,3.9-3.82,25,25,0,0,1-.22-5.41c.31-1.75-.1-2.07.31-3.19s.11-1.42,1.75-2a15.39,15.39,0,0,1,1.74-.62,5.17,5.17,0,0,1,2.34-1.63,16.1,16.1,0,0,1,4.5-1.14,26.49,26.49,0,0,1,4.73.22c2.05.09,3.7.31,4.82,1.84s4.2,7.06,2.66,12.19c2.36,3.28,2.57,5,3.38,7.4s-.81,1.53,1,2.15a2,2,0,0,1,1.24,1.29c.14.2.24-.06,1,1.87,1.55,3.91,1.44,4.73,1.44,4.73m-11.53-5.12a8,8,0,0,0,4.71,3.58,61.34,61.34,0,0,0,6.36,1.56m-11.49-31.2A3.94,3.94,0,0,0,301,101c-.51-.41-.31.72-1.13-.08s-1,.39-1.33,0c-1.07-1.45-1.23,0-1.94-.83s-.82.71-1.85.2-.31.51-1.44.11-.71.4-1.72.29-.92.23-1.55.23a1.6,1.6,0,0,0-1,.39,3.21,3.21,0,0,0-1.33.29l-.3,1-.22,1.65m.6-2.86A34,34,0,0,1,289.63,98c.71-1,1.63-2.15,4.41-2.15s4-.31,5.84,2.33,1.12,2.59,1.12,2.59M260.5,153.5c3.48-.62,7.54,1.18,6.76,6.55-.82,5.76-1.63,9-4.72,10.07m-4.31-24.81a33.72,33.72,0,0,1-3.47-7.61c-.83-3.26-.22-2,1.63-4.3a34.37,34.37,0,0,1,3.49-3.7c1.23-.6,1-1.22.21-1.83s-.21.4.6-.41-.81-1.43-.81-1.43-.62.19.6-.22-.6-1.64-.6-1.64-.41.21.81-.83-2.46-1.85-4.3-1-1.63-.62-1-3.08.6-2.25,1.63-3.7-1-.4-2.25,1.23-1.23,3.69-1.84,5.12-1,5.14-2.66,7.81-.22,10.06,1.22,21.53,4.72,17.84,8.62,19.89M259.68,124h-2.87m3.07,1.85-2.05-.2m2.05,2.46-2.25.2m-.41,4.52s15,171.67,15.38,174.14,2.26,1.65,2.26,1.65L258.65,131.36m64.87,18.71a7.46,7.46,0,0,1,3.39,4.93c4.92-2.78,12.45-7.07,16.46-10.31s3.54-2.31,5.85-4.15,3.22-2.14,6.59-3.08,5.07-1.06,6.46-1.53,2.62-.29,2.47.61-.16.47-.16.47,2.31,1.68,3.23,2.47,2,2.74.16,1.53a35.14,35.14,0,0,1-3.08-2.32s-.31,2.47-.77,2.47-.29-2.16-.29-2.16-.76-.29-2.47.63a14,14,0,0,1-4.76,1.05s-.48.48,1.07,1.25,3.08,1.67,2.46,2.29-.62.62-2.46-.13-.61-.61-2.61-.46-3.85-1.09-5.4,1.83-10.15,15.23-17.53,18.79c-2.46,1-2.76,1.68-5.53.61s-7.07-3.55-8.15-5.7c.3-4.16,0-9.56,5.07-9.09v0Zm40.92-13.23s-.31-.32-2,.16m1.08,1.82,1.4-.13m-91.09-7.35c-1.38-.24-2.52.67-4.51,3.71-3.09,4.71-8.82,17-8.82,17" fill="none" stroke="#000" stroke-width="0.62"/><path d="M277.52,170.73s-2-2.68-.83-7.58c.55-2.14.83-2.07-.41-3.1s-1-6.14-1-6.14a10,10,0,0,0-1.44,3.49c-.4,2-3.73,13.95-3.73,13.95-1.84,6-5.49,10.88-7.17,4.86m14.6-5.48a17.37,17.37,0,0,0,5.34-.6c2.86-.82,4.1-1.64,7.79,0a31.74,31.74,0,0,0,11.88,2.45c3.48,0,1.63,1,4.51-1s6.14-1,4.3,2.25c2.66,2.47,2.46,4.1.62,5.34,0,0,7,27.27,7,32.39a34.16,34.16,0,0,0-11.68,1.65l-.42-34.47s-8,.84-11.9,1-1.63-1.22-5.93-3.27-11.28-1-11.28-1,1.22-1.21.2-4.71m32.53-.5s.62-13.23,1.39-17.85a84.77,84.77,0,0,0,3.08,18.76c1.07,4.47,2.61,9.25,4,5.54s3.69-13.53,3.69-13.53m2.62-11.86c0-2,.46-3.36-2.62-6.6s-6-10.76-8.77-11.23m-6.46,80.15s-1.55,4.91.62,5.53,3.08,1.23,4,.62.93-.93,3.08-.3a17.63,17.63,0,0,0,4.31.62,44,44,0,0,0-.32-8.32m-2.77,8a13.08,13.08,0,0,1,.31,7.38c-.93,4.61-2.47,11.08-2.15,16.94a31.61,31.61,0,0,0,1.84,9.53s-.92.3-1.84,8.61S316,296.05,316,296.05a28,28,0,0,1,4.3,8c1.55,4.63.62,2.15.62,2.15s-5.53-3.36-9.23-1.52-11.69,4-17.54,1.52-11.7-7.06-14.76-5.83c2.16-10.46-1.85-18.46-.62-20.3-2.47-2.47-2.77-2.76-1.84-6.76s-2.48-9.85-2.48-9.85.62.32,2.48-3.39a55.4,55.4,0,0,1-.93-19.68s-7.39-19.7-4-32.61a79.93,79.93,0,0,1,.3-16.94c.92-7.06,1.85-11.68,5.53-15.68M260.29,173l-10.15,71.37s.3,1.24,3.08,1.85c0,0-1.54,16.93-1.85,20.93a22.94,22.94,0,0,0,3.08,2.44s-3.08,15.7,2.78,22.46,9.53,14.77,12.61,14.46a22.76,22.76,0,0,0,2.76-.31m-19.39-60a69.5,69.5,0,0,0,7.39,3.41c4,1.53,4.3,2.46,1.22,5.22s-12.3,12-9.85,13.22m2.47,1.54s7.7,2.46,5.23,6.48-6.15,6.77-5.23,10.15m9.85-34.78s-1.85-10.75.93-26.45m9.22,80.59c1.55-2.44,2.78-4.58,4.32-5.21M257.83,121.76l-.76-6.15m-.78,6.32-.46-4.77m.93-2.48-.93-8.15-1.39.77,1.08,8m.77-6c3.54-2.46,5.07-4.31,5.53-5.69s.46-2.31-3.38-.31a52.89,52.89,0,0,0-9.23,6c-1.54,1.38-1.39,2.76-.15,2.59a28.37,28.37,0,0,0,5.38-1.53m7.23-8.28h-3.23c-2.16,0-2.31-.64-2.31-.64a7.64,7.64,0,0,0-1.39-2.6,13.23,13.23,0,0,0-1.23-3.7c.15-.77.62-2.77-.15-4.15,1.7-.3,2.46-1.69,3.24-3.38s.46-1.06-1.08-1.22-4.6-.31-5.22,3.52c-1.7,1.7-2.61,3.55-2,5.7-.91,2.76-.15,3.08.3,3.71a2.46,2.46,0,0,0,.14,2.29,4.54,4.54,0,0,0,0,4.61c.78,1.39.93-1.38.17.47a14.94,14.94,0,0,0-1.08,4.92m19.39,45.68c.16,7.07,1.22,18.15-.78,20.76m49.08-4.91c-.61-7.38-.15-20.62,2.32-23.54,2.05-2.44,6.45-2.16,7.06.62m-18.61-18.91s-.31,3.37-.92,7.37-2.31,3.52-5.08,3.7c-1.24.05-6.76.05-11.06.3-2.79.16-2.62-.48-4-3.86a75.26,75.26,0,0,1-2.79-10m10,13.54c-.91.14-1.38-.76-.45-3.09m4-1.68c1.54.32,1.69.46,1.84,2.46s-.15,1.37-.15,1.37M309.22,305.9c2.16,2.78,7.29,7.88,11.74,7.68s4.25-.12,4.1-1.35,0-.47,0-.47l-.61-.47s1.38.32-.62-1.68a25.1,25.1,0,0,1-2.92-3.38,11.26,11.26,0,0,0,2.15-.62c1.84-.61,4-1.33,6.15-5.33,0,0-5.22-1.44-6.15-11s-.61-23.69-.93-35.38.93-30.45,2.16-44.61-.62-45.22-.62-45.22" fill="none" stroke="#000" stroke-width="0.62"/><path d="M324.45,311.76a1.27,1.27,0,0,1-1.08,0c-.46-.3-1.09,1.7-1.7.76s-1.23.48-1.84-.15-.77.15-1.69-.45-2.47-2.78-3.38-3.69m-.47,1.08s-.46-2.17,1.38-2.47,3.24.3,5.23,2.47c0,0-2-2.63-.14-2.31m-7.7,1.23c0-1.71.92-2.65,2.16-2.77s3.07-.32,3.07-.32m4.93,6.62-1.39-1.39m-.61,1.68-.78-1.23m-1.22,1.23-.32-1.23m-5.68-3.53a6,6,0,0,1-2.78-1.83m-20-.58c-4.1,2.88-4.71,4.73-8.2,5.35s-3.08.41-4.92-.83-1.64-1.21-1-2.47c1.84,2.26,4.31,2.68,7.59,1s2.87-2,2.87-2,0-.81-1.22-1.85-1.43-.82-3.09.21-1.63,1.62-1.63,1.62-.21-1.44.4-2a14.63,14.63,0,0,1,1.44-1.26,1.15,1.15,0,0,0-1.16-.29,6,6,0,0,0-3.16,2.33c-.4.82-2,2.16-.4,2.46m.89-1.07c-.31.36-1,1.2-.63,1.43.79.42.36.22.36.22m1-1.42c-.8,1.25-.92,1.55-.08,1.7m1.2-1.34c-.93.89-1.31,1.3-.62,1.3s.12-.11,1.26-.2.71,0,2.17-.76a18.47,18.47,0,0,0,2.45-1.59m1.88-.39c-.53-1-1.84-1.69-2.76-2.38a11.31,11.31,0,0,0-2.31-1.25l-.7.61m-4.68,3.6-1,1.1m198.85-.9s-3.55,4.12-.77,6.12,3.84,3.71,6.92,1.68a14.56,14.56,0,0,0,4.46-3.84,8.14,8.14,0,0,1,2.3-2m22,.49c5.08,4.14,7.08,5.35,10.62,5.06s4-.61,4-.61l-.63-1.84s.48-.94-.76-1.83-3.54-2.32-3.54-2.32m-2.15-1.11c-1.85.47-3.85,2.79-3.85,2.79a8,8,0,0,0,1.85,1.53,4.42,4.42,0,0,0,2.77,1.08c.76,0,.29-.14,1.24.14s1.05.93,1.68.32.45-.32,1.07-.32.77.32,1.07-.14a7.49,7.49,0,0,1,.78-.93m-2.61.77-1.23-.77m2.92.63-1.08-.64m-2.92.78-.61-.59" fill="none" stroke="#000" stroke-width="0.62"/><path d="M483.21,309.44c-2.46,3.08-3.24,4.14-3.85,3.24s-1.24-.76-1.24-.76-.3.13-.76-.31-.93-.45-1.38-1.56-1.38-1-.61-2.29,1.53-2.3,1.53-2.3,3.22,1.22,2.46,3.38-.45,1.68-.45,1.68a4.92,4.92,0,0,0,1.69-1.38c.91-1.09,1.68-.94,2.45-.14m-.45-5.71-2,2.61a11.86,11.86,0,0,0-3.39-1.67l1.69-2.32m4.77,2.61-1.39,2a3.83,3.83,0,0,1,1.85,1.85c.47,1.24.31.64.31.64a2.55,2.55,0,0,1,.63-.94c.44-.46,1.37-1.7,1.37-1.7m-7.84,5.21.47-.44m-2.17-.32.47-.77m-1.85-.91.61-.6M332.6,310.41a8.69,8.69,0,0,0,4.21-5.33c.41-1.84.51-3.79-1.85-4.4s-3.49-1.34-4.2,0-2.26,3.59-2.26,3.59l1.23,2,.71-.41v-.5l.82-.64.52.74.5-.31.83,1-.41.5.3.62-.91.72-.52-.41-.81.8,1.52,2Zm-9.84-4.6s.3.42,1.74,2.15,3,5.85,4.61,10.68,1.33,6,1.33,6a10.14,10.14,0,0,1,4.81-1.43,47.14,47.14,0,0,1,6.18-.08c1.28.2,2.61.28,3.61-1.27s3.77-7.15-1.14-9.49-7.2-.92-9.88.27l-.62-.56c2.57-1.46,4.83-2.26,5.85-7.61s-5.13-6.46-7-6.57a3.35,3.35,0,0,0-3.48,1.76m6.36,14.5a9,9,0,0,1,6.8-.2c1.74.76,3.36,1.81,2.45,4.1s-1,3.6-2.5,3.38-4.22-.32-4.22-.32l-.93-2.21.75-.33.41.31,1-.29-.28-.83.56-.25-.34-1.25-.65.05-.32-.62-1.13.31,0,.65-1.14.18-.66-2.39.18-.26Zm-5,10.8s-.51,1-2.15-2.36-4.1-9-4.1-9M339,306.43c.62-.3.71-.12,1.43.09s.83,1,1.55.72,1.74-1.12,1,.29-.83,1.13-.52,2,.09.8.82.53,1.23-.44,1.23.39-.1.94-1,1a2.05,2.05,0,0,1-1.24-.09m-2.67-2.83a.87.87,0,1,0-.87-.86A.88.88,0,0,0,339.57,308.52Zm1.65.3a.86.86,0,0,0,.87-.86.87.87,0,0,0-1.74,0A.86.86,0,0,0,341.22,308.82Zm-.52,1.86a.88.88,0,1,0-.86-.87A.87.87,0,0,0,340.7,310.68Zm-1.85-.1a.87.87,0,1,0-.87-.88A.87.87,0,0,0,338.85,310.58Zm4.31-.53a.86.86,0,0,0,.87-.86.87.87,0,1,0-.87.86Zm2.06,2.79a.88.88,0,1,0-.87-.9A.88.88,0,0,0,345.22,312.84Z" fill="none" stroke="#000" stroke-width="0.62"/><path d="M346.76,314.27a.86.86,0,0,0,.86-.87.88.88,0,0,0-.86-.88.88.88,0,1,0,0,1.75Zm.71,2a.87.87,0,1,0-.87-.86A.88.88,0,0,0,347.47,316.23Zm.21,2.26a.87.87,0,1,0-.87-.86A.88.88,0,0,0,347.68,318.49Zm-.21,2a.87.87,0,0,0,.87-.86.87.87,0,0,0-1.74,0A.88.88,0,0,0,347.47,320.52Zm-.92,2a.85.85,0,0,0,.85-.86.86.86,0,0,0-.85-.86.87.87,0,0,0-.87.86A.86.86,0,0,0,346.55,322.47Zm-6.36-16.3a.87.87,0,1,0,0-1.73.87.87,0,1,0,0,1.73Zm.3-1.86a.87.87,0,0,0,.87-.85.86.86,0,0,0-.87-.86.86.86,0,1,0,0,1.71Zm-.2-1.73a.86.86,0,1,0-.86-.86A.87.87,0,0,0,340.29,302.58ZM339,300.93a.86.86,0,1,0,0-1.72.86.86,0,0,0,0,1.72Zm60.82,64.86c-66.46,0-102.56-24.18-102.56-24.18l7-11.09-48.4-.42s.81,3.71,4.91,8.63-.41,5.74-10.66,6.15l-1.64-4.94c-7.38,1.65-8.2-.39-10.66-4.92s-6.56-14.35-10.25-20.09c11.49-6.56,12.31-5.32,26.25-5.74,4.22-.12,12.51-.31,22.27-.53m10.27-.22c8.24-.15,16.87-.29,24.62-.4m32.31.21c8,.43,15.26,1.77,13.07,8.33-2.88,8.59-2.46,14.35-6.15,21.73,23,4.49,25.44,6.86,49.23,6.86m-160-6.86c-2.46-4.5-.82-7.79,16.41-8.19m-7,10.24c6.15-.4,9-5.75,13.13.81m41.84-11.05c3.28-5.76,3.7-11.5,10.26-8.63s38.56,11.91,42.25-4.91m-48,5.32c-2.47,6.57,9.44,11.1,41.85,16.41m49.64,27.48c66.46,0,102.57-24.18,102.57-24.18L496,330.37l47.8-.27s-.83,3.71-4.93,8.63.41,5.74,10.67,6.15l1.64-4.92c7.38,1.63,8.19-.41,10.66-4.94s6.56-14.35,10.24-20.09c-11.48-6.56-12.3-5.32-26.25-5.74-4.19-.12-12.33-.31-22-.51M474,307.89c-4.73,0-8.34,0-10.2.07-9.85.4-23.39,0-20.52,8.6s2.87,15,6.56,22.36c-23,4.51-25.85,6.25-49.63,6.25m160-6.86c2.47-4.5.82-7.79-16.4-8.19m7,10.24c-6.16-.4-9-5.75-13.14.81m-41.85-11.05c-3.27-5.76-3.69-11.5-10.25-8.63S447,333.4,443.26,316.58m48,5.32c2.46,6.57-9.63,9.45-41.44,17" fill="none" stroke="#000" stroke-width="0.62"/></svg>