<svg xmlns="http://www.w3.org/2000/svg" width="300" height="300" viewBox="0 0 300 300"><title>flag-kansas-icon-farming</title><path d="M72.34,186.4l.48.35c.09-.84,1.48-1.71.39-2.49-10.71-1.37-22.37-.12-32.47-1.18L30.3,184.66,30,184.4c0,.08-.07.15-.1.22l1.1.83a.31.31,0,0,1,.07-.09h0a1.22,1.22,0,0,1,1-.31c2.1-.56,5.3-1.06,6.33-.3a30.62,30.62,0,0,1,7.46.31l.45-.5v.23a138.87,138.87,0,0,0,20.47.07c.87,1.16,2.11-.44,3,.38a10.39,10.39,0,0,0,2.72.14C72.54,185.71,72.81,186.16,72.34,186.4Z"/><path d="M71.39,189.41l.51,1.06c.93-.28.9-1.32.75-2.16-3.24-.94-7.93-.17-11.27-.9-3.31.26-6.64,0-9.59.14l-.46.47c-.85-.68-2.36-.35-3.42-.09l-.37-.33a10.7,10.7,0,0,0-3.14,1.15L37,189.4l-.07-.05a1.56,1.56,0,0,1-.23.28c.37.27.77.51,1.14.77h0l-.07,0,.43-.05a1.15,1.15,0,0,1,.26,0C48.75,188.91,60.84,189.23,71.39,189.41Z"/><path d="M280.36,157.63a1.44,1.44,0,0,1-.71-.18l-4.76,0c-17.26.4-38.68-.17-57.74-.06.19-1.55-.45-2.94.31-4.51a2.21,2.21,0,0,0,2.32-1.14,4.77,4.77,0,0,0,.16-1.9c-1.36-1.6-2.48-.25-3.92-.92-2.6.33-.59-2.8-3.07-2.82-2.34.78-5.83-.75-6.06,2.57-1.26,1-3.52.61-3.94,2.4.05,1.17,1.14,1.83,1.77,2.77.59-.15,1.3.07,1.64-.31V153l.94,0c-.79,1.12-1.43,2.67-.33,3.69.37.57.7-.12.82-.26a1.45,1.45,0,0,1,.31.71s-14.36.21-16.22.12-18.23.09-21.48.37-14.68.5-15.67.21l-2.78-.07c-2.16-1.08-4.42-2.75-7.28-2.44l-1.35,1.59c-.82-2.82-4.17-3.76-6.79-4-9.14-1-17.48,3.85-26.27,2.87l-2.17-1.23c-1-3.16-.08-8.28-3-11.13-1.45-.64-2.71.45-4,.75-1.39.87-1.43,2.78-2.48,3.51-.82-3-5-1.11-5.48-4.39-.13-.13-1.07-.2-1.17.39L89,141.07l-2.27,2.56c.08-1.06-1-.79-1.49-1.34a10.26,10.26,0,0,0-2,3.49c-1.8-.9-4.55-1.25-5.11-3.72-.39-.94-1.56-.66-2.13-.27-1.18.38-1,2.62-2.19,2-.71-.22-1.1-1-2-.76L71,144.22c0,3.55.64,7.55,0,10.52-22.13.23-41.78,2.86-63.49,1.4l-4.95,1.09c-.07-.09-.15-.18-.22-.28a7.69,7.69,0,0,1-.91.34c.34.4.7.78,1,1.19a1.93,1.93,0,0,1,.49-.31L3,158.11l3.93-.92c1.67.3,3.84-.38,5.46.09,15.44,1.79,31-1,47.66-.69,3.42-.14,7.1,0,10.39-.63a15.13,15.13,0,0,0,.17,5.2c-5.28,1.15-8.91-1-13.53,1.57-5.19.31-10.71-1.62-15.39-.14-5.1-.28-12.4.7-17.89-.75l-12.29.8-.45.49.73.57a68.1,68.1,0,0,1,21.42,0c5.82.71,13.17-2.27,18.82,0,6.21,1.44,10.19-2.74,16.16-1.31,2.51.63,3.73-1.56,5.69.5l.72,0c-.46.26,0,.59.14.84.43-1.43,2.46-.81,3.38-1.66,2.88,1.41-.08,4.7,2.81,6.14-.18,1.22,1.12,1.28,1.39,2.09,0-.83,1.07.09,1.2.31l-1.11,2.18-.25-.25,0,.72c-1.78-.4-3.3.13-5,.17l-.83-.42c-7.68.51-12.07.2-19.42.11a39.8,39.8,0,0,1-4.84,0c-4,0-8.42-.29-12.17.44v-.22c-6-.86-13.84,1.68-20.67,2.06l-.28-.26a1.44,1.44,0,0,1-.18.25c.42.38.86.73,1.28,1.1a1.38,1.38,0,0,1,.27-.08l-.22-.21c18.13-2.69,40.44-1,58.05-1.67l3-.12h0l.35-.49v.47c-2.86,2.61-7,5.26-6,9.83a13.23,13.23,0,0,0-.85,5.69c1.52,2.66,4.31,4.59,5,7.51,1.8.54,3.15-.94,4.8-1.48,1.44-2.29-.23-6.26-2-8.57.77-1.79,0-3.43.4-5.33L87,178.67c4,3.16,2.36,9.37,5.46,13.16.16,1.18,1.65,2.89.53,4.49l.57,2.93c-10,.14-20.27-1.25-29.91-2.33-3.77.25-7.81,1.62-11.81,2.25l0,0a.28.28,0,0,0,0,.09c.71.4,1.39.85,2.1,1.24l.06,0-.25-.13c9.47-2.84,22.57-1.34,33,0,6.76.47,11.91-1,18.39,1.21,3.58.81,6-.7,9.34.13a51.09,51.09,0,0,0,9-.8c1.72,1.81,4.53.89,6.89.44,3.39-.71,7.48.79,10.18.21-.82.4.75,1.06-.44,1.09.37.23.73.21,1,.68l0-1.79c3.57.58,7.19-1.08,10.53-.38a.36.36,0,0,0,.13.47c.67-.86,2.72-.23,3.88-.86l.79-.85c-1.31-.31-3.31.11-4.5-.17-1.4.62-3-.28-4.6.26.08-.94-.69-2.68.46-3.57l13.58-.49c-.25-.11-.35.14-.35.25,4,2.1,9.59-3.43,12.38,1.79,2,.16,4.69-1.11,6.79-1.68a60.34,60.34,0,0,0,8.3.52c5.06-.54,9.68-.72,14.23.53,1.18,0,2.61.49,3.91.46l.34-.39-.11.25c1.43.17,3.46.59,4.61-.16,1.37,1.6,3.55-.14,5.14,1.24,2.11-.21,4.82-.54,6.79-1.69.47-.13,1,.43,1.29-.28,1.16-.64,3.67.1,4.58-.88l0-.58-5.44,0c-2-4.64-2.84-9.71-5.72-14,2-1.13,2.22-3.74,3.23-5.32l-1.37-2.44c.48.11.57-.24.91-.5v.47c.25,0,1.2.07,1.16-.75l.23-.12c-1.21-1-4,.75-3.87-2.21l.25,0,1.4-6.91c.71.1,1.44.77,2.13.16h.05l-.25-.23a5.29,5.29,0,0,0,2.38.39c5.92.13,11.81-.44,17.65.76,2.12-.31,3.8.45,5.3-.54l-.09.23a12.43,12.43,0,0,0,5.06-.42V164c4-.27,7.65-1.23,12,.14,2.62.38,7.66-.19,10.14-.52l-.24.27a3.33,3.33,0,0,1,.84.05c.36-.4.74-.77,1.1-1.17a1.3,1.3,0,0,1-.43-.35l-.15.13c-3.54.24-9.83,1.29-13.08-.23-7.72-.32-15.68,1.75-22.59.36-7-.33-12.68-.14-19.77-.09.41-1.55-.69-2.59-1.21-3.75,2.85,0,4.88.66,7-.27h0v.14c15.72-.47,34.09.27,47.32-.45l5.27.08a1.11,1.11,0,0,1,.6,0h.13l0,.05a1.29,1.29,0,0,1,.47.37c.34-.4.7-.77,1-1.17ZM89.87,180.21c.31-1.29-3.05-2.7-.13-3.65.82,0,.93-.16,1.89-.2A9.42,9.42,0,0,0,89.87,180.21Zm4.95,18.53a13.37,13.37,0,0,1-.59-3.19c1.07.07,2-.89,2.94-.45.82-.26.67-1.2,1.23-1.83a26.24,26.24,0,0,1,.68,5.31C97.87,198,95.78,199.05,94.82,198.74Zm9.13,1-3.79-.23c.71-3.34-1.34-7.41.71-9.62-1.24-1.62-1.68-3.84-3.63-5.18.52-2.26-.94-6.49,2.46-7.2h0c-.43,1.32,1,.31,1,1l.58-.64.24.26c.22-.14,0-.59.32-.5l.71,0c2,6.19.77,11,3,16.92A7.83,7.83,0,0,1,104,199.71Zm20.51-5.88-11.46.42-.46.5.48.33c4.83-1,9.13.38,13.81-.85a9,9,0,0,1-2.84,6c-3.32-.22-8.6,1.14-11.83.2-.8-2.33,3-2.71,1-4.64-1.2-.44-.31-1.88-.93-2.58A90.18,90.18,0,0,1,111,181.81l0,0h0a34.72,34.72,0,0,1,.24-5.81c.72.33,1.68.89,2.49.38,0,.25.13.37.25.34s.23-.11.23-.34l.37.34a1,1,0,0,1,1-.41c-.19,1.19.67,2,1.06,2.91l0-2.12H117l0-.83c1.08.31,3.87-.74,5.75-1h0c.52,1.28,2.08,1.81,1.78,3.25-.21.94,1.48,1.6.31,2.1-4.71.18-9.39,1.42-13.77,1.22v0c2,1.8,5.22.63,7.46.78a58.94,58.94,0,0,0,7.41-1.09l3.68,6.83C127.74,190.17,128.53,195.36,124.46,193.83Zm13.84,6.47c-1.28.41-2.26-.37-3.66,0a5.76,5.76,0,0,0-2.26-.4c-1.16-2.78,2.59-3.41,1.9-5.86.52-2,.92-4.17,2.52-5.78l-1.06-6,.86.92,0-1.3c.92,2.34,4.85,3.12,4.47,5.75C140.13,191.83,140.31,196.81,138.3,200.3Zm35.55-11.48c-.54,1.31-2.07,1.49-3.1,2.47l-.25-.22c-2.1.79-3.1,5.56-6,4.24l-.59.26c-.26-.82-1.53-.06-2.14-.51-5-.4-8.85.56-13.82.51.86-2.17-.41-4.25.82-6.3l1-1.7.86.81a.57.57,0,0,0-.22.47,3.85,3.85,0,0,0,4,.09c1.54.18,2.74.36,4.12-.38l0,.22c2.08-1.14,5.86,1.8,7.55-.52-1.93-1-3.3.37-5.12-.87-3.59-1.16-11,4.44-12.65-3a9.86,9.86,0,0,1-1.45-3.72l-.86-.92a4.69,4.69,0,0,0,2.15.38h0l-.56.86c.64,1.16.46-.37,1.18-.28,2.77,1.44,6.46,2,9.55,2.47,1.3.07,2.24,3.25,4.37,3.39v.24c2.75.72,5.08-.31,8.05.18,1.69.66,2.86.25,4.79,1.13A2,2,0,0,1,173.85,188.82ZM184,182.05c0-1.65.84-3,.77-4.77-1.29-.06-2.88-1.3-3.9,0-.79,1-.49,2.49-.45,3.79-3.43.14-7.12-.45-10.89-.17a6,6,0,0,1,.14-2.61c-.42-1.65-1.78-.28-2.62-.38l-.32.5c-4.14.13-7-.59-10.7-1.28a8.17,8.17,0,0,0,2.12-3.5c-1.23-1-2.95.33-4.3-.92-.75-1.26-.35-3.17-.53-4.68,10.33.78,20.47,3,31.38,3.79a73.69,73.69,0,0,1,7.18,2,11,11,0,0,0-3.68,6.19c0,.22,0,.47.26.55a3.79,3.79,0,0,0-.61,2.42l-1-.75v0C186,182,185.09,182.46,184,182.05Zm17.36,8.48c.17,1.52.4,4.36-.62,5.56-.5-.78-2.16-.73-3-.7,0-.83-1.08-.19-1.32-.42-3.8-.45-6.2,1.52-10.63.39,1.92-2.07,2.77-4.72,5.33-5.88,2.33-7.43,10.2-12.33,15.87-15.74C206.05,179.7,200.53,183.91,201.37,190.53Zm-6.88-19.28c-1.13-1.95-4.38-.31-6.19-1.3-8.64.07-18.41-1.81-27.2-2.78-1.8-.77-6-.25-8.09-1.23l.42-1.33c1.3.31,3.92.2,5.71.74v0a89.82,89.82,0,0,1,23.19-.24c5.52-.71,10.49-.52,15.92-1.42,2.83.22,6.94-.63,10-.85C203.76,165.58,198.75,168.14,194.49,171.25Zm14.32-9.53a13.29,13.29,0,0,0-6.7,1c-9.59.11-18.15,2-27.9.56-7-.7-13.76,2.17-20.69.54a5.49,5.49,0,0,0-.38-4.82s26.13-.41,29.09-.41,25.84-.58,25.84-.58c1.68.4,2.63.49,2.23,2.4C209.6,160.76,209.5,161.23,208.81,161.72ZM210,196.47c.61-2.62,0-5.34,0-8.4a28.84,28.84,0,0,1,3.94,7.31C213.22,197.41,211.17,196.32,210,196.47Z"/><path d="M78,169.41c0-.47-.5-.58-.74-.92a47.42,47.42,0,0,0-10.87.41l-.37-.36c-13,.38-27.95-.49-42,.26-.81-.29-5.54-.3-10.88,0a1.66,1.66,0,0,1-.45.7c.35.35.71.68,1.06,1a2.2,2.2,0,0,1,.26-.15l-.19-.18c2.87-.54,10-.47,13.41-.5C44.82,168.62,62.07,171,78,169.41Z"/><path d="M219.66,182.61l.47,0a.66.66,0,0,0-.46.28c.49.8,1-.41,1.55.54.24,0,1.28-.66,2.12-.21,3.88-.49,6.28.47,9.54-1.06,1,.8,1.26-.87,2.28.63,4.38.43,7.94.41,11.33-.65l.25.21a13,13,0,0,0,4-.85c1.9,0,3.39-.52,5.29-.26l-.12.12a1.41,1.41,0,0,1,.47.12c.5-.41,1-.79,1.52-1.21a1.14,1.14,0,0,1-.27-.31l-.07.07c-6.81,1.2-13.32,1.21-19.23,1.69l-.16.22a.37.37,0,0,0,0-.2c-6.33-1.44-11.09.87-17.5.52a1.53,1.53,0,0,0-1.66-.41C218.71,182.42,219.41,182.4,219.66,182.61Z"/><path d="M227.38,190.26v.23c.25.35.58-.14.81-.25a.92.92,0,0,0,1.08.29c.23,0,.22-.34.2-.58-.1.36.27.47.5.56l1.65-.18-.23.14c.25.35.72.33.85.68.81-.51,1.78-.05,2.82-.57a7,7,0,0,0,3.78-.16c.47,0,1.19.2,1.53-.29,0-.11-.13-.23-.24-.34-.37-.12.7.09.8-.26-.09.35.25.47.49.58l1.9.27c.12,0,.22-.12.34-.15a1.39,1.39,0,0,1,1,.1l.46-.32s-.05-.09-.09-.14l-.07,0-1.78-.68-.7-.59c-6.32,2.1-12.55-.25-18.9.94C224.23,191.32,226.2,190.31,227.38,190.26Z"/><path d="M225.94,201.54c-5.3-.68-11.59.78-16.53-.79-5.8-.38-11.19-1.83-17.33-1.48-6.6.59-13.3,1.69-20,0-4.81.9-9.75-1-13.81,1,6.21,1.55,13.7-.52,20,.68,9.46-.12,21.59-1.39,30.81,1.23a51.78,51.78,0,0,0,7,.2,29.64,29.64,0,0,1-7.2.27c3,1.41,7.24,1.26,10.64.2l-.25-.58,3.52.28.1,0a1.84,1.84,0,0,1,.25.05l1.19.1a1,1,0,0,0-.29.18l.34-.16c.57-.29,1.12-.61,1.68-.91C226,201.71,226,201.63,225.94,201.54Z"/><path d="M242.07,82.62V89h0a1.54,1.54,0,0,1-.38,1h.12l-12.49,14.19c-.44.1-.51.61-2.89,2.86.68-.25.52.7.81.88s1.23-1.35,1.77-1.5c0,4.19-.73,16.57-.73,16.57l-5.67,1.44,8.29-.07-.85-1.08h34c1.77,0,30.4,1.44,30.4,1.44l.35-18.88,1.85,2.52,1.3-.91-1.42-1.89h0c-.75-.9-1.44-1.85-2.11-2.82h0L278.71,86.16l-9.3-.61-17.15,2.09-.34-6.77-1.6-3.46-4.56.19-2.08,1.14Z"/><path d="M250.33,80.89l.54,23.12,2.18,3.18.29,14.57-15.92.32.42-14.37,4-3.9,1.87-22.4,2.75-2.82,2.29-.37,1.6,2.67" fill="#fff"/><path d="M264.08,101c-.38-.77-.75-1.48-1.48-1.72-2.19-1.57-3.36-4.25-5.76-5.34-1.24-1.62-3.64-2.47-4.88-3.83l.43-1.33c5.41-.55,10.84-1.23,16.38-1.91,3.09.25,6,.14,9.36.61,5.26,4.64,8.61,8.56,13.72,15.59-8.22.17-16.25.06-24,.47L264.08,101" fill="#fff"/><path d="M263.58,102.46c-1.67-1.5-2.78-4.44-5.05-4.58l.56-.62A56.23,56.23,0,0,0,252,91.39c-.12,3.07-1,13,2.58,14.72.86,1-.08,4.69-.08,4.69a2.52,2.52,0,0,1,1.31.18l-1.52.78c-.47,3.32.49,6.73-.21,10.18l10.77.19a113.2,113.2,0,0,0,.87-17.88l-2.15-1.81" fill="#fff"/><path d="M238.91,104.25c-1.36,1.73-2.42,2.36-2.34,4.52,1,1.13-.35,3.76.22,5.88-.48.14-1.2-.06-1.54.3.26.69,1,.31,1.56.41l-.23,6.75-6.85.26.45-16.59,2.3-3.29c3.85-3.87,5.3-5.39,8.83-9.31-.36,3.1.38,10.16-2.4,11.07" fill="#fff"/><path d="M289.42,105c1.06-.39,2.59-.2,3.54-.36a109.81,109.81,0,0,1-.37,18.81l.49.36a93.67,93.67,0,0,1-10.09-.69,92.51,92.51,0,0,0-.72-10.16,4.48,4.48,0,0,0-3.46-.56c-1.41.27-4.62-.31-6.36.92a87.24,87.24,0,0,1-.12,9.37c-2.24.06-3.31.22-5.1-.29,0-5.67-1.14-11.68-.41-17.37,8.54.26,14.3-.44,22.6,0" fill="#fff"/><path d="M278.25,113l3,0,.37,9.8-7.7-.31-.1-8.75c1.39-.9,3.07-.22,4.47-.76" fill="#fff"/><path d="M82.85,147.21c-.12,3-1.67,6-2.87,8.89-3.5,1.43-.49,5.91-4.39,6-.51-.8-3.09-.37-2.21-2.05l-.33-2.84c-1.18.05-1,1.36-1.46,2,.15-2.38,1.56-5.74,1.21-8.68l.25.11.09-.12c-.26-.82-.85-.8-.65-1.76l1.69.77c.33-.59-.41-1.39-1.13-1.62l-.34,0-.37-3.65c1.31.43,3,1.44,3.65-.49l.3-1.08a15.06,15.06,0,0,0,6.56,4.59" fill="#fff"/><path d="M99.18,150.29c.13.22.48.22.6.22l.21-.27c1.09.92,1.78,3.5,1.27,5.53-.41,1.78-1.15,4.07-3.25,4.73-.58.14-1.18-.05-1.64.3l-.61-.56a1.8,1.8,0,0,1-2.33.9c-1.45-.52-1.84-1.58-2.93-2.24l-2,2.19.44-.49-.24-.1c.21-.49.69-.5.77-1.34,1.14-1.2,3.26-1.41,4.41-2.52-.38-.57.54-1.34.76-1.91-.15-.84,1.11-1.71.15-2.39-1.39.89-1.28,3.95-3.3,3.91a1.43,1.43,0,0,0-1,.51l.25.23c-2.2,1-2.81,3.88-5.12,5.27.33-.25.2-.7.2-1.06L85.5,161a10.87,10.87,0,0,1-3.68,3.07c-.37-.09-.84-.31-.86-.78,0-.94,1.6-1.59,1.54-2.79-1.07-.42-2.09.56-2.66,1.17-2.16-3.81,3-6,3.18-9.71,1.91-2.66.12-6.16,2.65-8.24l1.12,1.72c.43-1.32,1.59-2.19,2.25-3.27,2.39,3.92,8.42,3.48,10.13,8.14" fill="#fff"/><path d="M105.66,146.6c.36,6.4,2.38,12.94-.84,18.62-2.4,2.1-6.5,3.45-9.85,2.26.23-.25.31-1.19,1.13-1.1-1.69-1-3.82-1-4.15-3.51.11-.25-.14-.72.2-.84.16,1.17,1.23,1,1.73,1.82.45-.6,1.05-.27,1.75-.65l-.73-.7c1.32.43,1.94-1.95,3-.69.19-.94.83.2,1.16-.51,3.37-1.42,3.59-5.23,3.83-8.42-1.11-1.27-.51-4.12-2.76-4.38.29-1.44.59-3.13,2.21-3.88,1.74-1.13,3.2.24,3.27,2" fill="#fff"/><path d="M213,147.12c.16,1.19-.16,2,1.16,2.44.45-.59.25.48.84.21,1.1,1.16,4.93-1,3.74,2-4.49.17-8.78-.63-13.24.49.11-.47-.39-.81-.28-1.41,3.57.69,1.73-4.3,5.19-3.62l2.59-.11" fill="#fff"/><path d="M140.06,154.93c2.24,3,5.78,6.16,3.92,10.27-5-.65-11.26-.54-15.77-.84.22-.6-.38-.69-.62-1-.46.49-.93.5-.79,1.23-5.11-.66-11.46.53-16.49-1.06a7,7,0,0,1-2.72-.38c-.2-2.47.62-5.11.55-7.22,6,3.43,12.4-.59,18.3-1l.34-.5v.23c4.84-.3,8.94-1.39,13.27.34" fill="#fff"/><path d="M216.19,152.93c-.08,1.19-1,2.4-.22,3.68-1.54.18-3.65.6-4.21,1.46.11-.37.57-.49.32-1-.84-.21-2.24.31-2.39-.5-.48-.23-.67-2.35-1.95-1.59.22-.5.07-1.3.4-2.16,3.07-.33,5.09.07,8.05.07" fill="#fff"/><path d="M151.23,159.37a22.11,22.11,0,0,1,.25,6.85,26,26,0,0,0-5.46-.62c-.42-1.53-.5-3.66-1.15-5.29,1-1.22-1.26-2.2-.71-3.41,2.28,1.1,5.78-.21,7.07,2.47" fill="#fff"/><path d="M90.62,161.86c0,1.16.1,2.82,1.09,3.86-1.26,1.34-3.15,1.29-4.42,2.28-.28-1-.82.38-1.29.17-1.08-.08-2.82.45-3.81-.44,0-.72-1.11-1.26-.77-1.89.33-.47,1.29-.15,1.78.3,1-1.69,3.72-1.8,5-3.73.38.59.58-.24,1-.26.11-.47.11-.25.57-.64l-.37-.44c.73.56,1-.4,1.22.79" fill="#fff"/><path d="M218.38,161c.72,3.28-.46,6.87-1.75,10-.61-.45-1.64.54-2.48.32-.32.85-.83,0-1.3,0a6,6,0,0,0,1.09-5.59c-.22,0-.57.13-.7-.2-.87,2-.16,5.32-2.74,5.89-2.8,1-5.07.77-7.58,3l-3.11,2.27-.07-1.92H200c-.46-2.82,3.85-1.67,5.19-3.63,1.64-3.72,2.71-6.72,5.8-9.55,1.6-1.36,1.84-4.57,5.07-3.74l2.35,3.11" fill="#fff"/><path d="M127.44,165.8c-.53,1.8.95,3.29,1.48,4.91-3-.33-6.58-2-9.67-2.47-.25-.22-.5-.58-.84-.31a12.73,12.73,0,0,1-3.23-.82,3,3,0,0,0-2.15-.52c-1-.43-2-.4-3.11-.94l-1.92-.77c6.19,1,13.64.92,19.44.94" fill="#fff"/><path d="M130.48,174.33c0-.3,0-.57-.39-.68l.23-.25c-.5-1.05-1.56-.53-2.37-.41l-.47,0c0-.34-.38-.59-.62-.81-1.06.29-1.52.76-2.6.34-2.28-.85-4.65-1.23-7-1.86-4.62-.18-7.84-4-12.67-3.56l1.59-1.83c5.41,2.52,11.85,3.95,17.23,5.17A84,84,0,0,0,135,174.52c10.73,2.21,19.92,4.58,31.08,5.48.45-.5,1.41-.05,1.49-1l.36,0c.51,1-.49,2.73,1.41,3.13.58-.6.85.45,1.55.18,3.29-.72,7.26,1.14,10.41.1a10.19,10.19,0,0,0,.44-4.29l1.53.18c.17,1.41-.93,3.12-.42,4.65,1.45.75,2.74.24,4.41.89l1.93-.45c.1-.83.05-1.75.1-2.35a9.55,9.55,0,0,1,4.25-6.77l-.25-.23c.86.79,1.89,0,3.1.58-1.83,1.72-4.47,3.84-5.33,6.35l.62.58a17.25,17.25,0,0,1,6.37-6.64c.4,1.06-.74,2,.34,2.82a39.36,39.36,0,0,0-9.16,11c-1-1.72-3-1.65-4.6-2.41-.1.22-.56.6-.2.83-1.78-.19-4.23.87-5.69,0l.59-.38c-1.92-.41-4.6.29-6.65-.58a43.12,43.12,0,0,0-9.61-.36c-1.66-.41-2.21-2.4-3.54-3.29-2.28-.75-4.67-1.36-7.32-2.45-4.64-1-9.79-2.35-14-3.26a33.12,33.12,0,0,0-6-1.93l-1.78-.52" fill="#fff"/><path d="M131.68,175.71c.37.31.72.62,1.23.29-.7.05.13.47-.33.75,2,3.58,2,8.09,2.69,11.86-2.27,2.44-1.3,6.54-4,9l-.15,2.37a14.58,14.58,0,0,0-5.56.19c2.61-2.92,2.9-8.14,5.12-11.89-.93-2.81-3.26-5-3.73-7.91-2.17-1-1-3.39-1.72-4.92l-.85-.78c-.34.36-.08,1.06-.18,1.53a1.29,1.29,0,0,1-.4-1.76c.59.7,1-.26,1.63-.28l.5,1c.48.1.33-.59.56-.84l-.24-.22a11.18,11.18,0,0,0,1.14,2l.64-1.79c.47,0,1.66,0,1.92.76l1.77.65" fill="#fff"/><path d="M143.7,167c.87,1.25-.47,3.32-.28,5.34-.45.6-.76,1.79-.15,2.24v.25c-4.3-1.4-9.76-1.55-13-4v-.33c.24.1.34-.26.57-.5l-.49-.34.23-.24a16.87,16.87,0,0,1-1.21-3.86c4.52.65,9.51.94,14.38,1.48" fill="#fff"/><path d="M120,172.48l3.47.7a28.39,28.39,0,0,1-5.74,1.74c.1-.24-.13-.35-.14-.47-.58.14-.45.61-1,.75-.51-.92-1,.4-1.77.31a7.62,7.62,0,0,0-1.89-.19l.56-.71c-1.21-.56-2.58.45-3.78.14.1-.25-.25-.34-.49-.56-.34.61-1.05.63-1.63.87-.46-.09-1.45-.65-2.13-.16-.46.39-1.52.3-2.09,1a3.78,3.78,0,0,1-2.6.09l1.73-1.36c-1.81-1-2.55,1.74-3.95,2-3,.94-1.82,5-3.15,7.33,1.37,2.33,2.54,5.24,2.41,7.85l-1.48,1.34L96,193l-.33.36.24.24-1,.52c-1.12-1.39.08-4-2.18-4.42C90.27,184,90.51,178.17,95.18,173c4-1.56,9.31-.83,12.39-4.14-2.36.09-5.34,2.8-7.11,0,.93-.74,2.12-.79,3-1.41,5.82.71,10.9,3.6,16.5,4.95" fill="#fff"/><path d="M95.6,208.46s-16.75,7,20.25,12.08,60.44-.71,64.66-1.95c6.62-2,23.64-10.73,19.09-11.69-8.88-1.86-18.32,1-24.58.65s-9.31-3.76-25.67-2.59c-13.31.94-20,2-24.29,2.85s-6,1.54-9.45,1.72c-6.84.36-20.21-1.26-20-1.07Z" fill="none" stroke="#000" fill-rule="evenodd"/><path d="M98.33,169a8.22,8.22,0,0,0,.78,1.75c-1.41.18-3.66.13-4.68,1.36-1.84,1.74-1.76,3.84-4.73,3.37-.45.74-1.29.29-1.76.53-1.87,3.63-8.57,4.83-6.37,10-1.18,3.25,3.39,5.2,2.21,8.79-1.14,1-2.7.36-3.77,0-1.64-2.54-5-4.54-4.2-8a8.16,8.16,0,0,0,.71-3c1.32.44.15,3.88,2.1,2.52.15-2.6-2.53-4.29-1.32-7l2.4-2.22.25.22.45-.49-.24-.12c1.83-1.72,3.76-3.79,6.44-4.73.2-.82-.74-.8-.76-1.74,1.76-.07,3.27-.81,5-1,.33-.5,1.4-.4,2-.43.69-.49,2.11-.2,3.2.24l2.24-.08" fill="#fff"/><path d="M148.79,167.15c.74.55,2,.51,3,.71.41,1.75,0,2.83.87,4.47-.7.26-1-.79-1.54-.19,1.58,1,2.51,3.7,4.14,3-.26-.35-.39-.92-.88-1.15.71,0,1.35,1,2.14.3-1.23,5.1-4.94.87-8.46,1.36l-3.47-.7c1.23-2.17.52-5.22,1.25-8,.94.07,1.92.73,3,.11" fill="#fff"/><path d="M206.71,165.46c-1.57,2.09-1.44,6-5,6.35-2-.4-3.1,2.36-4.83.4l-.5-.44c1.72-1.48,6.48-4.15,9.36-6.26l.94,0" fill="#fff"/><path d="M238.77,168.31v.23a2.83,2.83,0,0,1,2.52,1c.32-1,1.06-.05,1.53-.07.5.58,1.63-.4,2.48.26,5.48.75,10.27-1.1,15.83-.71,0,.13-.09.49.15.6a1.93,1.93,0,0,1,2-.67c0,.12-.1.47.14.59.44-.5,1.52-.3,2.11-.54.38.8-.31,1.41-.79,1.07-.85-.56-1.9.06-3.21-.22-3.54.24-6.55-1.06-10.14.71,0-.1-.13-.22-.26-.33s-.34.13-.44.25c.33-.12-1.19.15-1.67-.16a2.61,2.61,0,0,1-2.35.31.91.91,0,0,0-1.43,0c-3.22-.68-7.4-2-11.18-1.58a.37.37,0,0,0,.47-.14c-.13-.35-.48-.2-.72-.2-.32.72-1.86.76-2.93.7l-.25-.23a5.29,5.29,0,0,1-3.78,0,4.33,4.33,0,0,1-2.11.21c0-.14,0-.47-.26-.59-.33.61-.46.24-1.28.63.12,0,.23-.11.22-.37a4.52,4.52,0,0,1-2.34.44c.1-.23-.25-.34-.38-.56l-.22.57c0-.1,0-.47-.25-.55a20.31,20.31,0,0,1,7.45,0c2.84-.22,7.65-1.12,11.1-.65"/><path d="M167.14,173.56a.59.59,0,0,0,.24.35c.09-.85.48.21.81-.4.5.37,1.53.07,2.37.05,2.72.13,3.68.67,6.15,0v.23c1,.44,3.29-1.06,3.46.47-6.72.85-12.33-.5-19.16.35l1.27-.87v.12c1.43-.05,2.69-1,4.26-.17l.59-.13"/><path d="M50.76,178.47c1.63-.65,4.14,0,5.8,0,6.5-.13,12.18-.23,18.92-.11.28,1.19-1.13,1.24-1.21,2.18.39-2.25-2-.63-3-1.31-3.66.14-5.21.07-8.87.09-11.25-.18-22.4-.71-34.06.43.55-1,1.65-.07,2.22-.57,7.43-.73,13.19-1.53,20.21-.73"/><path d="M108.65,176.09c.54,4.95,1.41,9.28,1.58,14,.59,3,1.31,6.34.83,9.55-1.49,1.12-4.26.05-5.77.45.54-1.31.41-1.19,1.58-1.83.25.46.59,0,.93-.15l-.49-.44-.21.22c.65-1.07,1.14-3.94.52-5.09a3.62,3.62,0,0,0,0-3.1,23.1,23.1,0,0,1-1.21-4,27.31,27.31,0,0,1-2.17-7.38c.22-.24.43-.83.19-1.06,1.54.19,1.67-2.78,3.38-1.18l.83,0" fill="#fff"/><path d="M219.21,177c-.32.94-2.18,2-2,3l1.27-.77c-1.14,1-2.38,2.7-.91,4,2.85,3.67,2.77,7.93,4.7,12.13l-6.61.24a26.4,26.4,0,0,0-4.56-8.11l-.58.27c1.21-2.2,2.55-4.6,2.47-7-1.7,2.31-2.29,5.41-4.22,7.85-.25,2.74.21,5.67-.3,7.94-3.29.25-3.3-.22-6.39-.47,1.92-2.67.24-6.4.93-9.84,2.21-4.11,4.42-8.21,5.67-12.77l-.24-.22c2.67-1.27,5.7.74,8.23-1.36.42,1.88,3.54,2.57,2.56,5.11" fill="#fff"/><path d="M257.74,174.58c-.37-.13-.81-.29-.87.27-.73-.8-2,1-1.92-1h0c-8.88-.14-21.91-.5-31.88-1.31l-.33.61.23-.25.37.45a30.93,30.93,0,0,0,7.47.31c1.75-.29,3.7,1.16,5.56,0a.71.71,0,0,1,.26.47c2-.3,3.43.24,5.08.4a.57.57,0,0,1,.22-.47.56.56,0,0,1,.25.45c1.53-.54,2.39.38,4,.33,2.36-.2,5.19-.31,7,.56a6.83,6.83,0,0,0,4.46-.62C257.71,174.76,257.72,174.67,257.74,174.58Z"/><path d="M145,179.84c.25,3.65,6.25,6,2,9.75-1,2.4.8,5.51-1.12,7.72l.32,2.35c-2.09,1-4.26-.09-6.61.47-.4-1.39,1.18-3,1.49-4.53a51.5,51.5,0,0,1,.94-9.27c-.92-2.45-5.32-3.25-4-5.77-.76-1.29-1,.62-2,.08-.54-1.77-1.76-2.78-2.64-4.17,3.68.68,8.25,2.42,11.61,3.37" fill="#fff"/><path d="M127.75,186.85c-.78,1.46-3.27,1.19-4.81,1.26-3.65.5-6.91-1.31-10.4.38l-.24-.11c4.28-2.54,10.32.44,15.33-1.63l.12.1"/><path d="M188,189.36a53.17,53.17,0,0,0-2.73,5.9c-.36,0-.84-.2-1.07.15v-.1c-3.68-.58-6.6.57-10.35,1.56-1.61-1.83-3.15-2-5.41-2.05,1.93-2.56,5-4.09,7.38-5.23l.46-.39c1.13,1.38,2.33-1,3.77-.85a36.3,36.3,0,0,1,7.95,1" fill="#fff"/><path d="M75.71,194.12c-8.25.79-18.11-.27-27.87,1.5l-.49-.45c5.63-1.27,11.91-1,17.24-1,3.09.33,7.44-.41,11.12-.07"/><path d="M92.53,194.44c-2.1.78-4.25.4-6.37.57l0-.57h6.39"/><path d="M67,196c-.45.47-1.87.54-2.93.56-.12-.09-.36-.2-.26-.45A5.77,5.77,0,0,1,67,196"/><path d="M87.16,153.77c-.41,0-.76-.5-.76-1.13s.35-1.15.76-1.15.75.52.75,1.15-.34,1.13-.75,1.13"/><path d="M76.48,152.17c-.41,0-.75-.49-.75-1.12s.34-1.14.75-1.14.76.52.76,1.14-.34,1.12-.76,1.12"/><path d="M248.71,88.92c.09,14.51-.1,14.8-.1,14.8" fill="none" stroke="#000" stroke-linejoin="round"/><path d="M250.36,107.4c.09,14.51-.1,14.8-.1,14.8" fill="none" stroke="#000" stroke-linejoin="round"/></svg>