<svg xmlns="http://www.w3.org/2000/svg" width="600" height="400" viewBox="0 0 600 400"><path d="M0 400h600V0H0z" fill="#002a86"/><circle cx="300" cy="199.23" r="116.81" fill="#efae0e" stroke="#000" stroke-width=".38"/><circle cx="300" cy="199.16" r="108.67" fill="#002a86"/><circle cx="300" cy="199.12" r="89.75" fill="#efae0e"/><path d="M299.93 113.4a86 86 0 00-86.11 85.86h172.36c0-47.43-38.55-85.86-86.25-85.86z" fill="#fff"/><path d="M299.91 86.88c-62.26 0-112.73 50.29-112.73 112.4 0 61.91 50.47 112.22 112.73 112.22 62.45 0 112.92-50.31 112.92-112.22 0-62.09-50.47-112.4-112.92-112.4z" fill="none" stroke="#000" stroke-width=".34"/><path d="M297.52 155l5.13-.16-2 31.29-1.2-.15-1.88-31" fill="#efae0e"/><path d="M303 186.45l5.31-22.76m-16.43-.17l5 22.75" fill="none" stroke="#000" stroke-width=".34"/><path d="M278 160.78l4.6-2.38 11.81 28.9-1.19.34L278 160.78" fill="#efae0e"/><path d="M276.65 170.88l14.55 18.3" fill="none" stroke="#000" stroke-width=".34"/><path d="M263.14 174.47l3.08-4.1 23.44 20.35-.69.86-25.83-17.11M256 193.13l.85-5 30.11 8-.34 1.19-30.62-4.19" fill="#efae0e"/><path d="M266.56 184l21.21 10" fill="none" stroke="#000" stroke-width=".34"/><path d="M322 160.78l-4.44-2.38-11.81 28.9 1 .34L322 160.78" fill="#efae0e"/><path d="M323.35 170.88l-14.54 18.3" fill="none" stroke="#000" stroke-width=".34"/><path d="M336.87 174.47l-2.9-4.1-23.62 20.35.68.86 25.84-17.11M344.06 193.13l-.85-5-30.11 8 .33 1.19 30.63-4.25" fill="#efae0e"/><path fill="none" stroke="#000" stroke-width=".34" d="M333.44 184.04l-21.21 9.93"/><path d="M289.74 199.26a10.31 10.31 0 0120.62 0" fill="#efae0e"/><path d="M345.35 244.55c-.07 0-24 0-24-.25-14.69 2.44-74.37 6.62-79.8 7.74a35.34 35.34 0 01-8.85.71 86.4 86.4 0 00141.3-9.64c-3.73-.52-12.81-.69-14.3-.73s-8.84 1.79-14.35 2.17z" fill="#4f9eff"/><path d="M284.35 251.8a26.61 26.61 0 0113.86-2.74c4.94.69 7.68-.33 8.89-1.19a6.44 6.44 0 015.46-1.39 13.92 13.92 0 006.84-.84 10.57 10.57 0 015.49-.85c5.29 1.19 28.9-.18 33.36-2.23-5.13.68-32.67.68-35.24-.33s-5.49-.53-8.73 1c-3.43 1.37-5.82 1.55-7.36.86a2.85 2.85 0 00-3.06.33c-.87.86-.52 1.72-4.11 1.72a202.18 202.18 0 00-22.75 2.24c2.73 2.89 6.15 2.56 7.35 3.42z" fill="#fff" stroke="#000" stroke-width=".34"/><path d="M289.31 278.83c.86-2.4 2.23-9.77 1.71-13a6 6 0 000-2.56c-1.36 0-3.41-.17-5.47-.17 1.72 8.73-1.71 13.51-.51 16.93 1.54 1.71 3.42 1.2 4.27-1.2zM318.23 261.72c-1.54 1-3.08.86-4.12 1.19a9.07 9.07 0 01-2.55 4.1 2.13 2.13 0 01.33 2.91c-1.36 2.4-.51 8.21.34 9.75 1 1.54 2.23 1.21 3.42-.33.35-2.23 0-3.25.17-7 .18-3.1 1.88-7.03 2.41-10.62z" fill="#efae0e" stroke="#000" stroke-width=".34"/><path d="M214 199.28s-.88 6 2 19.55l5.48.62 7 .69 18.13 1.19 21.55 1L291 223l21.88.7 18.82.33h13.7l6.34-.17 1.54-.16 1.54.16 2.72.52 2.23.16 2.23-.16 2.22-.35 2.38-.68 3.08-.51 4.63-.68 8.93-.61a84.3 84.3 0 002.94-22.32H213.99" fill="#4f9eff"/><path d="M361 242.4l-141.66-13.18" fill="none" stroke="#000" stroke-width=".34"/><path d="M349.74 318.87c-4.65-2.14-10.85 0-14.88 3.6-3.39 3.06-4.81 8.83-5.79 10.76a12.94 12.94 0 01-2.8 3.18c-4.35 1.24-7.83 2.61-13.61 3.52l-.43.05c1.27-1.7 1.78-2.05 4.42-3.09 3.51-1.38 6.66-.89 9.4-4.82 1.9-2.74 2.05-9 2.05-9-2 1.83-5 1-8.21 3.56-3.56 2.88-4.58 7.8-6.65 10.63a9.5 9.5 0 01-3.91 3s-3.14.33-4 .39c3.35-2.36 2.95-9.58 3.05-10.94a2.72 2.72 0 001.3-.5 2.71 2.71 0 10-2.11.47c.22 1-.21 8.07-5.54 10.64-4.35 1.2-7.5 3.37-11.29 5-3.26 1.43-5.88 2.11-5.85 2.47.23 2.34 7 2.19 7.5 2.06s3.47-4 8.9-6.15c.85-.34 7.47-1.45 7.47-1.45h1.93c3.22.22 10 5 11.6 6.22a2.35 2.35 0 003.5 2.95 2.36 2.36 0 00-2.81-3.78 1.55 1.55 0 00-.23.21c-2.88-2.22-5.32-3.6-6.55-4.8a1.28 1.28 0 01.08-1.83l.45.08s16.62 9.47 28.47 2.43c-8.63-8.19-19.8-3.55-23-3.44l-3.43.24c2.82-1.09 11.26-4.15 18.76-5.14 8.22-1.08 9.29-.58 12.09-.45a2.54 2.54 0 00.3 2.54 2.58 2.58 0 10.52-3.61 2.46 2.46 0 00-.5.52c-2.85-1.07-10.87-.58-16.83.44l-1.42.22s.3-.82 2.77-1.64c4.92-1.63 8.48-4.08 9.9-8.46 1.29-3.9 5.38-6.08 5.38-6.08zM412.05 263.87c-5.08.61-9.26 5.66-10.79 10.85-1.29 4.38.52 10 .69 12.2a12.78 12.78 0 01-.72 4.18c-3.05 3.32-5.3 6.32-9.75 10.11l-.35.27c.2-2.1.46-2.67 2.16-4.94 2.26-3 5.2-4.24 5.48-9 .19-3.32-3-8.76-3-8.76-.75 2.61-3.75 3.43-5.13 7.33-1.53 4.32.18 9-.1 12.53a9.61 9.61 0 01-1.76 4.6s-2.51 1.92-3.18 2.4a8.37 8.37 0 00-.61-7.77 2.71 2.71 0 00.85-1.11 2.67 2.67 0 10-3.48 1.5 2.63 2.63 0 001.93 0c.7.73 2.42 3.33-1.21 9.16-1.21.87-2.59 1.88-3.18 2.39-1.26 1.1-.07 2.11.39 1.8 1-.67 2.36-1.42 3.2-1.87.85.28 2.31.77 2.9 1 1 .4 3 3.75 5 3.84 3.06.13 6.23-2.36 8.33-3.81s2-1.46 3.08-1.6c0 0-5.39-2.59-8.45-1.67-2.55.76-3.21 3.27-8.06 2.41a4 4 0 01-1.67-.81l6.44-4.87c2.86-1.5 11.11-.94 13.14-.77a2.34 2.34 0 10.15-1.06 1.38 1.38 0 00-.08.29c-3.61-.38-6.42-.28-8.09-.66a1.28 1.28 0 01-.89-1.6l.43-.17s19.11-.63 25.52-12.82c-11.64-2.47-18.72 7.33-21.39 9.1l-2.81 2c1.84-2.4 7.42-9.43 13.3-14.2 6.44-5.22 7.61-5.35 10.07-6.71a2.56 2.56 0 001.58 2 2.58 2.58 0 10-1.44-3.35 2.53 2.53 0 00-.16.7c-3 .58-9.56 5.2-14.11 9.19-.49.43-1.1.92-1.1.92s-.17-.85 1.51-2.84c3.34-4 5.09-7.92 4-12.39-.98-4 1.36-7.99 1.36-7.99zM428.57 181.94c-3.7 3.53-4 10.07-2.14 15.15 1.58 4.28 6.43 7.73 7.85 9.35a13 13 0 011.93 3.78c-.46 4.5-.47 8.24-1.76 13.95l-.12.42c-1.1-1.81-1.24-2.42-1.23-5.25 0-3.77 1.63-6.52-1-10.51-1.84-2.78-7.63-5.24-7.63-5.24 1 2.53-.95 5 .28 8.94 1.36 4.37 5.55 7.13 7.41 10.1a9.57 9.57 0 011.34 4.74s-.85 3-1.1 3.83a8.38 8.38 0 00-5.14-5.87 2.62 2.62 0 000-1.39 2.67 2.67 0 10-.33 2.14c1 .16 3.93 1.21 4.51 8.06-.45 1.42-.95 3.05-1.11 3.82-.36 1.63 1.2 1.73 1.38 1.2.41-1.14 1-2.54 1.45-3.41.85-.29 2.31-.77 2.92-.93 1-.29 4.63 1.22 6.29.08 2.53-1.73 3.59-5.62 4.4-8s.71-2.36 1.51-3.13c0 0-5.87 1.15-7.77 3.71-1.59 2.15-.61 4.55-5 6.77a4.14 4.14 0 01-1.83.35l2.24-7.76c1.4-2.91 8.34-7.4 10.07-8.48a2.34 2.34 0 10-.52-.94 2.33 2.33 0 00.11.28c-3.12 1.86-5.31 3.62-6.88 4.32a1.29 1.29 0 01-1.67-.75l.25-.39s14.92-12 12.76-25.56c-10.79 5-10.6 17.09-11.68 20.1l-1 3.28c0-3 .29-12 2.15-19.33 2-8 2.89-8.85 4-11.4a2.58 2.58 0 10-.68-1.17 2.52 2.52 0 00.29.67c-2 2.25-4.55 9.88-5.81 15.8-.13.64-.32 1.4-.32 1.4s-.65-.58-.5-3.18c.3-5.18-.66-9.39-4.21-12.32-3.19-2.64-3.71-7.23-3.71-7.23zM391.66 106.77c-.85 5 2.82 10.48 7.37 13.41 3.84 2.48 9.78 2.33 11.9 2.78a13 13 0 013.8 1.86c2.33 3.87 4.57 6.88 7 12.22.05.13.1.27.16.4-2-.78-2.44-1.19-4.13-3.46-2.26-3-2.61-6.19-7.12-7.8-3.14-1.13-9.25.38-9.25.38 2.29 1.46 2.24 4.57 5.59 7 3.71 2.69 8.72 2.38 12 3.63a9.56 9.56 0 013.91 3s1.14 3 1.41 3.73a8.35 8.35 0 00-7.62-1.61 2.66 2.66 0 00-4.58-.67 2.67 2.67 0 104.21 3.3 2.61 2.61 0 00.55-1.84c.9-.47 3.88-1.39 8.45 3.74.49 1.41 1.07 3 1.4 3.72.69 1.52 2 .67 1.83.14-.36-1.16-.69-2.66-.88-3.61.5-.73 1.38-2 1.77-2.49.67-.86 4.44-1.8 5.09-3.71 1-2.89-.51-6.64-1.3-9.06s-.85-2.31-.67-3.41c0 0-4 4.44-4 7.63 0 2.67 2.24 4 .05 8.42a4 4 0 01-1.26 1.38l-2.85-7.55c-.64-3.16 2.23-10.92 3-12.83a2.35 2.35 0 10-1.38-3.75 2.36 2.36 0 00.4 3.31 2.26 2.26 0 00.26.16c-1.39 3.36-2.08 6.08-2.92 7.58a1.26 1.26 0 01-1.78.4v-.45s4.78-18.52-5.11-28.11c-5.65 10.47 1.76 20 2.7 23.09l1.13 3.26c-1.79-2.45-7-9.78-9.87-16.77-3.2-7.65-3-8.81-3.61-11.54a2.88 2.88 0 10-.61-.17c-.29 3 2.29 10.64 4.83 16.13.28.59.58 1.31.58 1.31s-.87-.07-2.3-2.24c-2.87-4.32-6.16-7.12-10.76-7.34-4.22-.2-7.39-3.57-7.39-3.57zM317.06 70.6c2.45 4.5 8.69 6.5 14.08 6 4.54-.42 9.13-4.2 11.07-5.16a13 13 0 014.15-.87c4.22 1.6 7.84 2.58 13 5.31l.38.22c-2 .6-2.66.57-5.39-.17-3.64-1-5.87-3.26-10.42-1.75-3.16 1.06-7 6-7 6 2.7-.27 4.58 2.21 8.71 2 4.58-.18 8.33-3.51 11.68-4.54a9.56 9.56 0 014.92-.07s2.72 1.62 3.41 2.07a8.37 8.37 0 00-7 3.43 2.64 2.64 0 00-1.34-.37 2.68 2.68 0 102.69 2.74 2.64 2.64 0 00-.71-1.8c.42-.92 2.2-3.49 9-2.27 1.26.81 2.7 1.71 3.4 2.07 1.48.76 2-.71 1.52-1-1-.69-2.18-1.66-2.92-2.28-.05-.89-.14-2.43-.14-3.06 0-1.09 2.38-4.16 1.71-6.06-1-2.89-4.5-4.92-6.62-6.33s-2.09-1.29-2.63-2.27c0 0-.4 6 1.58 8.47 1.65 2.09 4.23 1.77 5.23 6.59a4 4 0 01-.14 1.86l-6.91-4.18c-2.45-2.09-5-10-5.58-11.91a2.35 2.35 0 10-1.05.25 3 3 0 00.31 0c1 3.5 2.11 6.07 2.38 7.76.16 1-.69 1.31-1.16 1.42l-.31-.34s-7.67-17.52-21.37-19c2 11.73 13.75 14.68 16.38 16.5l2.9 1.87c-2.91-.82-11.51-3.4-18.11-7.1-7.24-4.05-7.8-5.08-10-6.86a2.57 2.57 0 00-1.3-4.8 2.58 2.58 0 100 5.16 2.46 2.46 0 00.72-.11c1.64 2.56 8.37 7 13.75 9.71.59.29 1.27.67 1.27.67s-.73.48-3.2-.34c-4.92-1.63-9.24-1.8-13 .87-3.36 2.37-7.94 1.67-7.94 1.67z" fill="#efae0e"/><path d="M255.46 325c1.41 4.38 5 6.83 9.9 8.46 2.47.82 2.77 1.64 2.77 1.64s-.78-.11-1.42-.22c-6-1-14-1.51-16.83-.44a2.79 2.79 0 00-.51-.52 2.6 2.6 0 10.83 1.07c2.8-.13 3.86-.63 12.09.45 7.5 1 15.93 4.05 18.76 5.14l-3.44-.24c-3.2-.11-14.36-4.75-23 3.44 11.85 7 28.46-2.43 28.46-2.43l.45-.08a1.27 1.27 0 01.08 1.83c-1.22 1.2-3.67 2.58-6.54 4.8-.08-.07-.15-.15-.23-.21a2.4 2.4 0 10.68.83c1.65-1.21 8.39-6 11.61-6.22h1.92s6.62 1.11 7.47 1.45c5.43 2.16 8.24 6 8.9 6.15s7.28.28 7.5-2.06c0-.36-2.58-1-5.84-2.47-3.8-1.67-6.95-3.84-11.29-5-5.33-2.57-5.76-9.65-5.54-10.64a2.61 2.61 0 001.63-1 2.71 2.71 0 10-2.44 1.05c.1 1.36-.3 8.58 3.05 10.94-.82-.06-4-.39-4-.39a9.57 9.57 0 01-3.91-3c-2.06-2.83-3.08-7.75-6.64-10.63-3.22-2.59-6.21-1.73-8.21-3.56 0 0 .14 6.29 2.05 9 2.74 3.93 5.89 3.44 9.39 4.82 2.64 1 3.16 1.39 4.43 3.09l-.44-.05c-5.77-.91-9.26-2.28-13.6-3.52a12.54 12.54 0 01-2.8-3.18c-1-1.93-2.41-7.7-5.8-10.76-4-3.62-10.22-5.74-14.87-3.6.04-.07 4.12 2.11 5.38 6.06zM189.17 271.85c-1.09 4.47.67 8.42 4 12.39 1.67 2 1.5 2.84 1.5 2.84s-.6-.49-1.09-.92c-4.55-4-11.13-8.61-14.11-9.19a3 3 0 00-.16-.7 2.61 2.61 0 10.14 1.34c2.45 1.36 3.62 1.49 10.06 6.71 5.88 4.77 11.46 11.8 13.3 14.2l-2.8-2c-2.67-1.77-9.76-11.57-21.4-9.1 6.42 12.19 25.53 12.82 25.53 12.82l.43.17a1.28 1.28 0 01-.89 1.6c-1.67.38-4.48.28-8.09.66a2.46 2.46 0 00-.09-.29 2.35 2.35 0 10-1.31 3.05 2.33 2.33 0 001.46-2c2-.17 10.29-.73 13.14.77l6.44 4.87a4.09 4.09 0 01-1.68.81c-4.85.86-5.5-1.65-8.06-2.41-3.06-.92-8.45 1.67-8.45 1.67 1.11.14 1 .15 3.09 1.6s5.27 3.94 8.32 3.81c2-.09 4-3.44 5-3.84.58-.23 2-.72 2.89-1 .85.45 2.2 1.2 3.21 1.87.46.31 1.64-.7.38-1.8-.59-.51-2-1.52-3.17-2.39-3.64-5.83-1.92-8.43-1.21-9.16a2.6 2.6 0 001.92 0 2.67 2.67 0 10-3.47-1.5 2.61 2.61 0 00.84 1.11 8.35 8.35 0 00-.6 7.77c-.67-.48-3.18-2.4-3.18-2.4a9.61 9.61 0 01-1.76-4.6c-.29-3.49 1.42-8.21-.11-12.53-1.38-3.9-4.38-4.72-5.13-7.33 0 0-3.17 5.44-3 8.76.27 4.79 3.21 6 5.48 9 1.7 2.27 2 2.84 2.15 4.94l-.34-.27c-4.45-3.79-6.7-6.79-9.76-10.11a13 13 0 01-.72-4.18c.17-2.16 2-7.82.7-12.2-1.54-5.19-5.71-10.24-10.79-10.85.03.03 2.37 4.02 1.39 8.01zM167.6 189.15c-3.55 2.93-4.51 7.14-4.21 12.32.15 2.6-.5 3.18-.5 3.18s-.18-.76-.32-1.4c-1.26-5.92-3.76-13.55-5.81-15.8a2.54 2.54 0 00.3-.67 2.61 2.61 0 10-.69 1.17c1.15 2.55 2 3.36 4 11.4 1.85 7.33 2.11 16.31 2.15 19.33l-1-3.28c-1.08-3-.89-15.1-11.69-20.1-2.16 13.61 12.77 25.56 12.77 25.56l.24.39a1.28 1.28 0 01-1.67.75c-1.56-.7-3.75-2.46-6.88-4.32a1.36 1.36 0 00.11-.28 2.37 2.37 0 10-.51.94c1.72 1.08 8.67 5.57 10.06 8.48l2.25 7.76a4.13 4.13 0 01-1.83-.35c-4.4-2.22-3.43-4.62-5-6.77-1.9-2.56-7.76-3.71-7.76-3.71.8.77.69.71 1.51 3.13s1.87 6.3 4.39 8c1.67 1.14 5.25-.37 6.3-.08.6.16 2.07.64 2.91.93.41.87 1.05 2.27 1.45 3.41.19.53 1.74.43 1.39-1.2-.17-.77-.66-2.4-1.11-3.82.57-6.85 3.51-7.9 4.51-8.06a2.67 2.67 0 10-.34-2.14 2.62 2.62 0 000 1.39 8.37 8.37 0 00-5.13 5.87c-.25-.79-1.11-3.83-1.11-3.83a9.57 9.57 0 011.34-4.74c1.86-3 6.06-5.73 7.42-10.1 1.23-3.95-.69-6.41.28-8.94 0 0-5.8 2.46-7.63 5.24-2.65 4-1 6.74-1 10.51 0 2.83-.12 3.44-1.23 5.25 0-.14-.08-.28-.11-.42-1.3-5.71-1.31-9.45-1.76-13.95a13 13 0 011.92-3.78c1.43-1.62 6.27-5.07 7.86-9.35 1.88-5.08 1.56-11.62-2.15-15.15-.04.02-.55 4.61-3.72 7.23zM200.93 110.33c-4.6.22-7.9 3-10.76 7.34-1.44 2.17-2.31 2.24-2.31 2.24s.31-.72.58-1.31c2.54-5.49 5.12-13.1 4.84-16.13a2.8 2.8 0 00.63-.35 2.61 2.61 0 10-1.25.52c-.61 2.73-.41 3.89-3.6 11.54-2.92 7-8.09 14.32-9.88 16.77l1.13-3.26c.95-3.06 8.35-12.62 2.71-23.09-9.89 9.59-5.11 28.11-5.11 28.11v.45a1.28 1.28 0 01-1.79-.4c-.83-1.5-1.53-4.22-2.92-7.58a2.26 2.26 0 00.26-.16 2.38 2.38 0 10-1 .44c.73 1.91 3.59 9.67 3 12.83l-2.86 7.55a4 4 0 01-1.25-1.38c-2.19-4.41 0-5.75 0-8.42 0-3.19-4-7.63-4-7.63.17 1.1.13 1-.67 3.41s-2.29 6.17-1.3 9.06c.65 1.91 4.42 2.85 5.09 3.71.38.5 1.26 1.76 1.77 2.49-.2 1-.53 2.45-.89 3.61-.16.53 1.14 1.38 1.83-.14.33-.71.91-2.31 1.41-3.72 4.56-5.13 7.55-4.21 8.44-3.74a2.62 2.62 0 00.56 1.84 2.67 2.67 0 10.45-3.75 2.6 2.6 0 00-.83 1.12 8.35 8.35 0 00-7.62 1.61c.27-.78 1.41-3.73 1.41-3.73a9.56 9.56 0 013.91-3c3.27-1.25 8.29-.94 12-3.63 3.35-2.42 3.29-5.53 5.58-7 0 0-6.11-1.51-9.24-.38-4.52 1.61-4.87 4.78-7.12 7.8-1.69 2.27-2.17 2.68-4.13 3.46.05-.13.1-.27.16-.4 2.38-5.34 4.62-8.35 7-12.22a12.89 12.89 0 013.81-1.86c2.11-.45 8.06-.3 11.9-2.78 4.54-2.93 8.21-8.36 7.37-13.41-.04.01-3.24 3.38-7.31 3.57zM274.88 68.92c-3.75-2.67-8.08-2.5-13-.87-2.47.82-3.2.34-3.2.34s.69-.38 1.27-.67c5.39-2.75 12.11-7.15 13.76-9.71a2.4 2.4 0 00.71.11 2.6 2.6 0 10-1.3-.36c-2.17 1.78-2.72 2.81-10 6.86-6.6 3.7-15.2 6.28-18.12 7.1l2.9-1.87c2.63-1.82 14.36-4.77 16.38-16.5-13.7 1.44-21.37 19-21.37 19l-.31.34a1.28 1.28 0 01-1.16-1.42c.27-1.69 1.41-4.26 2.38-7.76h.31a2.37 2.37 0 10-1-.25c-.6 1.94-3.14 9.82-5.59 11.91l-6.91 4.18a4 4 0 01-.13-1.86c1-4.82 3.57-4.5 5.23-6.59 2-2.5 1.57-8.47 1.57-8.47-.54 1-.51.86-2.63 2.27s-5.61 3.44-6.62 6.33c-.66 1.9 1.72 5 1.72 6.06 0 .63-.09 2.17-.15 3.06-.73.62-1.92 1.59-2.92 2.28-.46.32 0 1.79 1.53 1 .69-.36 2.14-1.26 3.4-2.07 6.76-1.22 8.54 1.35 9 2.27a2.7 2.7 0 10.63-.51 8.35 8.35 0 00-7-3.43c.69-.45 3.41-2.07 3.41-2.07a9.58 9.58 0 014.92.07c3.35 1 7.11 4.36 11.68 4.54 4.14.16 6-2.32 8.71-2 0 0-3.88-5-7-6-4.54-1.51-6.78.76-10.41 1.75-2.74.74-3.36.77-5.39.17l.38-.22c5.17-2.73 8.78-3.71 13-5.31a12.86 12.86 0 014.14.87c1.94 1 6.53 4.74 11.08 5.16 5.39.5 11.63-1.5 14.07-6-.06-.05-4.63.65-7.97-1.73zM305.91 65.16l9.4-6.84-11.94.08-3.59-10.61-3.29 10.51h-11.63l9.42 6.86-3.77 11.29 9.58-7 9.57 7-3.75-11.29" fill="#efae0e"/><path d="M220.54 92.36l9.23-7.18-11.79.5-3.98-10.6-3.25 10.78-11.46.51 9.3 6.63-3.1 11.21 9.41-7.36 9.74 6.68-4.1-11.12M169.07 171.64l12-.94-10.1-6.15 2.57-11-8.6 7.45-10.1-6 4.62 10.63-9.05 7.67 11.8-1 4.3 11 2.56-11.64M180 258.22l8.69-8.14-11.64 1.54-4.78-10.1-2.22 11.14-11.44 1.34 10.09 5.63-2.39 11.64 8.72-8.2L185 269l-5-10.76M240.22 319l2.05-11.64-8.7 8.3-9.91-5.29 5.1 10.18-8.39 8 11.47-1.54 5 10.76L239 326l11.63-1.53L240.2 319M379.46 92.7l-9.06-7.17 11.63.33L386 75.43l3.25 10.76 11.64.51-9.62 6.3 3.24 11.46-9.4-7.34-9.75 6.5 4.1-11M430.62 171.91l-11.63-1 10.09-6-2.57-11 8.73 7.36 9.93-6-4.46 10.61 9.06 7.69-12-1-4.46 10.78-2.73-11.47M419.84 258.48l-8.55-8.05 11.45 1.57 4.8-10.27 2.39 11.11 11.63 1.55-10.25 5.61 2.37 11.64-8.68-8.22-10.26 5.64 5.13-10.58M359.8 319.2l-2.06-11.47 8.39 8.23 10.09-5.32-4.79 10.28 8 8L368 327.4l-4.79 10.6-2.21-11.61-11.65-1.55 10.45-5.64" fill="#efae0e"/><path d="M299.93 113.4a86 86 0 00-86.11 85.86c0 47.29 38.55 85.72 86.11 85.72s86.25-38.43 86.25-85.72-38.55-85.86-86.25-85.86z" fill="none" stroke="#000" stroke-width=".33"/><path d="M349.53 237.42c1.7 0 2.74-.17 2.74-.33.16-1 .52-2.91.69-4.79l-6.16-.17a6 6 0 002.73 5.31zM347.3 228a5.21 5.21 0 00-.34 1.52 13.87 13.87 0 00-.16 2.56l6.16.18a42.15 42.15 0 00.68-4.44l-6.34.16z" fill="#de1c2c" stroke="#000" stroke-width=".34"/><path d="M353.64 224.08c-2.75 0-4.29.18-5.47 1.7-.18.51-.52 1.21-.7 1.9l-.17.35 6.34-.18a13.86 13.86 0 000-3.77z" fill="#de1c2c" stroke="#000" stroke-width=".34"/><path d="M333.1 207.83v3.93l5.49.17V208l-5.49-.18M326.43 207.83l.17 3.75 6.16.18v-3.93h-6.33" fill="#fff"/><path d="M285.71 150v.18a2.41 2.41 0 01-2 2.38c2 .7 3.77 0 3.77-1a2.79 2.79 0 012.92-1.87c-1.94-.02-2.12-.69-4.69.31z" fill="#de1c2c" stroke="#000" stroke-width=".34"/><path d="M291.54 145.06c.85 1.52-.18 3.07-1.54 2.89-1.54-.33-3.93.35-4.29 2.05 2.57-1 2.75-.33 4.64-.33 4.09 0 2-3.44 1.19-4.63z" fill="#de1c2c" stroke="#000" stroke-width=".34"/><path d="M291.2 144.71c.16.17.16.33.34.33.85 1.19 2.9 4.63-1.19 4.63 1.52 0 3.75-.53 4.27-2.23.33-1.54-1.37-3.59-1.54-4.63a9.78 9.78 0 00-2.57.86 3.35 3.35 0 00.69 1z" fill="#de1c2c" stroke="#000" stroke-width=".34"/><path d="M322.68 146.23a11.67 11.67 0 01-9.07-2.38c-6.51-5.12-17.79-7.37-22.59-2.23a1.69 1.69 0 00-.51 2 9.78 9.78 0 012.57-.86c3.75-.84 10.26-.15 14 2.76a30.26 30.26 0 0014.92 5.69 6.37 6.37 0 01.7-5zM277.68 147.77c-4.27-1-14.89-.33-15.23 5a5.13 5.13 0 013.77-1.54 15.33 15.33 0 012.57.33 50 50 0 008.37.51c-.16-1.52-.33-2.91.51-4.28zM265.71 158.91c0 .68-.18 1.19-1.38 1.87-1.7.86-6 3.42-6.83 7 2.56-2.56 5.47-4.61 7.36-5.11a3.24 3.24 0 002.39-1.9c0-.67-.87-1.18-1.54-1.86z" fill="#de1c2c" stroke="#000" stroke-width=".34"/><path d="M266.56 156.35a4.18 4.18 0 01-.34-5.14 5.13 5.13 0 00-3.77 1.54 7.45 7.45 0 002.41 5.47c.34.16.5.51.85.67.67.7 1.54 1.21 1.54 1.89.67-1 .67-2.73-.69-4.45z" fill="#de1c2c" stroke="#000" stroke-width=".34"/><path d="M373.82 243.07l-12.82-.69m15.22-3.24l-27.72-2.58-87.59-8.2L257 228l-39.38-3.6" fill="none" stroke="#000" stroke-width=".34"/><path d="M255.62 203.05l.34 2.56.17 2.55 4.78 1.55v-5l-5.29-1.7M271.34 207.32l-.16 4.79 5.13.84v-4.61l-5-1M263.66 205.61l-.18 4.78 5.13 1.19.18-4.78-5.13-1.19M325.06 213.3l.18 3.59 4.78.18-.16-3.59-4.8-.18M317.54 213v3.77l5.14.15.17-3.76-5.31-.16M332.76 213.48l.18 3.59h4.78v-3.59h-5M309.84 212.44v3.95l5.31.15v-3.75l-5.31-.35M343.88 213.48h-3.41l.17 3.41h3.08l.16-3.41M286.58 209.88l.16 4.46 5.13.5.16-4.1-5.45-.86M279 208.87v4.43l5.13.68v-4.45l-5.13-.66M301.63 211.76l.17 4.1 5.65.35v-3.92l-5.82-.53M294.62 211.07l-.18-.15v4.28h.18l4.44.5.18-4.27-4.62-.36M268.61 227.85l5 .69.18-3.27-5-.33-.18 2.91M314.8 232.46l3.59.35.18-4.45-3.93-.18.16 4.28M325.58 233.5l4.62.35-.2-4.85-4.62-.17.18 4.63M303 231.27l4.11.33v-3.75l-4.27-.35.16 3.77M279.39 229.22l5.65.51v-3.42l-5.65-.51v3.42M291.54 230.23l4.44.53V227l-4.44-.35v3.59M346.11 241.52l-3.93-17.09v-1l.5-.69.69.18.69 1 6.49 17.61h-4.44M333.44 240.84l-2.73-16.07v-1.2l.51-.86.34-.17.34.35.69 1.54 5.29 16.76-4.45-.35M322 240.16l-1.2-8.16-1.54-9.06v-.68l.34-.51.51.16.51.85 4.78 17.45H322M309.66 240l.36-8.38.16-9.39.17-.69.34-.35.51.18.34.86 1.72 17.61-3.6.16M297.7 239.14l.51-8.55.49-9.07.18-.52.34-.51.51.17.36.86 1.54 17.62h-3.95M284.69 239l3.94-18 .16-.69.34-.15.35.33.16.51-.51 18.14-4.44-.17M272 237.07l4.46-15 .51-.68h.67l.68.35.17.84-1.49 7.83-1.36 7-3.59-.35M258.52 236.05l7.86-14.53.69-.86h.5l.53.34-.18.7-6.16 14.35h-3.26" fill="#fff"/><circle cx="345.68" cy="111.25" r="1.78" fill="#efae0e"/><circle cx="299.84" cy="100.43" r="1.78" fill="#efae0e"/><circle cx="202.15" cy="182.82" r="1.78" fill="#efae0e"/><circle cx="204.87" cy="227.91" r="1.78" fill="#efae0e"/><path d="M235.15 272a2 2 0 00.42-1 2.22 2.22 0 00-.88-1.68 3.57 3.57 0 00-1-.72 1.16 1.16 0 00-1.45.24.85.85 0 00-.21.86 5.15 5.15 0 00.7 1.3l.64.92a6.82 6.82 0 011.08 2.07 2.43 2.43 0 01-.74 2.29 2.93 2.93 0 01-2.26 1 4.25 4.25 0 01-2.75-1.35 4.44 4.44 0 01-1.44-2.49 3 3 0 01.8-2.61l1.48 1.38a1.47 1.47 0 00-.29 1.5 2.75 2.75 0 00.75 1 2.38 2.38 0 001.19.67 1 1 0 001-.33.87.87 0 00.2-.92 6.57 6.57 0 00-.7-1.22l-1-1.51a4.54 4.54 0 01-.78-1.73 2.48 2.48 0 01.75-2.12 2.9 2.9 0 012.34-.94 4.48 4.48 0 012.83 1.39 4.91 4.91 0 011.67 2.79 3 3 0 01-.85 2.59zM218.28 261.32l3.38 4.13 1.65-1.36-3.1-3.79 1.36-1.1 3.1 3.78 2-1.64-3.53-4.34 1.4-1.15 4.84 5.91-7.8 6.38-4.68-5.72zM211.59 254.65l-1.24-2 6.74-8.29 1.19 2-1.42 1.64 1.93 3.17 2.13-.5 1.14 1.88zm5.41-3.15l-1.34-2.2-2.66 3.15zM205.85 244.27l-.85-1.93 7.57-3.32-2-4.61 1.66-.72 2.87 6.53zM205.23 207.2a5.22 5.22 0 01.76 6.56 5.45 5.45 0 01-4 2 5.38 5.38 0 01-4.31-1 5.22 5.22 0 01-.76-6.56 5.35 5.35 0 013.95-2 5.49 5.49 0 014.36 1zm-1.37 1.48a5.08 5.08 0 00-5.21.61 2.38 2.38 0 00-.69 2.08 2.41 2.41 0 001.14 1.87 5 5 0 005.22-.6 2.47 2.47 0 00.69-2.09 2.42 2.42 0 00-1.15-1.87zM195.76 200.15l.18-7.18h1.77l-.13 5.09 2.32.06.11-4.47 1.75.05-.11 4.46 4.22.1-.05 2.09zM201 166.56l1.72.5-.84 2.89 8 2.3-.59 2-8-2.3-.84 2.91-1.71-.5zM212.12 165.44l-9.23-4 .84-1.92 3.52 1.54 1.57-3.59-3.52-1.54.83-1.91 9.24 4-.84 1.92-4.12-1.8-1.57 3.59 4.12 1.8zM215 142.25l-2.81 4.53 1.81 1.13 2.59-4.16 1.48.93-2.58 4.15 2.2 1.37 2.94-4.74 1.54 1-4 6.48-8.56-5.31 3.89-6.28zM234.84 127.25a2 2 0 001 .53 2.23 2.23 0 001.76-.7 3.94 3.94 0 00.83-.93 1.18 1.18 0 00-.08-1.48.85.85 0 00-.84-.29 4.58 4.58 0 00-1.37.55l-1 .54a6.79 6.79 0 01-2.18.86 2.49 2.49 0 01-2.2-1A2.92 2.92 0 01230 123a4.22 4.22 0 011.63-2.59 4.49 4.49 0 012.63-1.16 3 3 0 012.5 1.07l-1.53 1.33a1.42 1.42 0 00-1.46-.45 2.75 2.75 0 00-1.11.63 2.33 2.33 0 00-.79 1.12 1 1 0 00.22 1 .87.87 0 00.9.29 6.72 6.72 0 001.28-.56l1.61-.85a4.63 4.63 0 011.8-.58 2.47 2.47 0 012 1 2.91 2.91 0 01.69 2.44 4.52 4.52 0 01-1.68 2.66 5 5 0 01-3 1.37 3 3 0 01-2.48-1.12zM247.19 109.52l1 1.5-2.53 1.63 4.48 7-1.78 1.14-4.49-7-2.54 1.63-1-1.5zM255.14 105.38l2.16-1 7.48 7.64-2.08 1-1.47-1.6-3.37 1.57.26 2.16-2 .93zm2.51 5.74L260 110l-2.83-3zM274.21 98.39l.5 1.71-2.89.86 2.37 8-2 .6-2.37-8-2.9.87-.51-1.71zM288.58 97.6l-5.28.78.32 2.12 4.84-.72.26 1.73-4.84.72.38 2.56 5.52-.82.26 1.79-7.55 1.13-1.48-10 7.3-1.09zM318.18 106.11a5.24 5.24 0 01-6.53-1 5.47 5.47 0 01-.86-4.34 5.29 5.29 0 012.15-3.87 5.24 5.24 0 016.53 1 5.36 5.36 0 01.86 4.34 5.45 5.45 0 01-2.15 3.87zm-1.06-1.71a5.07 5.07 0 00.81-5.19 2.61 2.61 0 00-3.93-.62 4.1 4.1 0 00-1.15 2.48 4.16 4.16 0 00.33 2.71A2.46 2.46 0 00315 105a2.42 2.42 0 002.12-.6zM327.14 98.79l6.88 2.08-.52 1.7-4.87-1.48-.67 2.22 4.27 1.29-.51 1.68-4.27-1.3-1.22 4-2-.61zM358.65 113.22l1.77 1.31-1 8 4.18-5.65 1.58 1.17-6 8.1-1.7-1.25 1-8.19-4.25 5.75-1.57-1.17zM375.66 130.32l-3.74-3.79-1.52 1.47 3.43 3.48-1.24 1.23-3.44-3.48-1.85 1.81 3.92 4-1.29 1.27-5.36-5.44 7.18-7.07 5.18 5.26zM383.69 137.23l-4 4.36-1.16 1.14 1.46-.64 5.44-2.34 1.25 1.83-4.08 4.25-1.17 1.17 1.45-.62 5.57-2.18 1.21 1.77-9.91 3.35-1.14-1.67 4.17-4.33 1.41-1.39-1.81.81-5.55 2.32-1.1-1.61 6.7-8.05zM389.35 169.5l9.68-2.79.58 2-3.69 1.06 1.08 3.76 3.69-1.06.58 2-9.68 2.79-.58-2 4.32-1.25-1.08-3.76-4.32 1.25zM403.08 184.05l.32 2.36-9.5 4.9-.31-2.26 2-.94-.5-3.68-2.19-.43-.3-2.18zm-6.23.71l.35 2.56 3.75-1.8zM404.16 202.76l-.05 3-10.11-.14v-2l6.82.11h1.64l-8.43-2v-2.05l8.49-1.76H401l-6.81-.11v-2l10.07.16v3.06l-8 1.71zM396.74 218.3a3.87 3.87 0 01-.33-2.61l.33-2.07-3.57-.58.33-2.06 9.95 1.59-.69 4.28a3.51 3.51 0 01-1.15 2.23 3 3 0 01-2.52.49 3.13 3.13 0 01-2.35-1.27zm3.84-1a1.74 1.74 0 00.51-1.06l.3-1.87-2.93-.47-.3 1.87a1.58 1.58 0 00.18 1.17 1.49 1.49 0 001.07.58 1.39 1.39 0 001.17-.23zM393.66 225.77a2 2 0 00-1.1.07 2.22 2.22 0 00-1.12 1.53 4.2 4.2 0 00-.2 1.23 1.18 1.18 0 00.86 1.21.86.86 0 00.86-.2 4.54 4.54 0 00.86-1.2l.55-1a6.79 6.79 0 011.38-1.89 2.46 2.46 0 012.38-.34 2.85 2.85 0 011.86 1.61 4.2 4.2 0 010 3.06 4.51 4.51 0 01-1.61 2.39 3 3 0 01-2.69.43l.59-1.94a1.44 1.44 0 001.47-.4 2.89 2.89 0 00.61-1.13 2.42 2.42 0 00.07-1.37 1 1 0 00-.73-.74.85.85 0 00-.91.23 6.11 6.11 0 00-.79 1.16l-.92 1.57a4.43 4.43 0 01-1.2 1.46 2.46 2.46 0 01-2.23.26 2.9 2.9 0 01-1.89-1.68 4.55 4.55 0 010-3.16 4.85 4.85 0 011.77-2.73 3 3 0 012.69-.37zM387.1 235.44l9.13 4.25-.88 1.9-3.48-1.59-1.65 3.55 3.48 1.62-.88 1.9-9.14-4.25.89-1.9 4.07 1.9 1.65-3.55-4.07-1.9zM380 249.16l1.09-1.79 8.61 5.23-1.09 1.79zM380.89 264.79a2.42 2.42 0 01-1.14.32 3 3 0 01-1-.12 2.78 2.78 0 01-.95-.49 3.12 3.12 0 01-.9-1.15 2.07 2.07 0 01-.05-1.55 1.88 1.88 0 01-1.23.3 3.38 3.38 0 01-1.43-.73l-.53-.42a4.77 4.77 0 00-.78-.52.84.84 0 00-.69-.05l-.2-.15 1.42-1.84c.21.08.38.16.51.22a4.78 4.78 0 01.74.46l.75.56a1.93 1.93 0 001.22.52 1.72 1.72 0 001-.75l1.25-1.63-3.13-2.41 1.26-1.63 8 6.14-2.94 3.82a4.25 4.25 0 01-1.18 1.1zm1.47-4.35l-2.14-1.66-1.39 1.8a2.49 2.49 0 00-.48.9 1.12 1.12 0 00.53 1.17 1.27 1.27 0 001.33.29 2.12 2.12 0 00.73-.66zM369 275.25l3.81-3.73-1.51-1.52-3.49 3.43-1.23-1.25 3.49-3.43-1.81-1.85-4 3.91-1.26-1.3 5.45-5.35 7.06 7.19-5.28 5.18zM263.14 289.61l.43-4.71-3.08 3.6-4.36-1.8 2.22 3.93-3.09 3.59 4.63-1 2.39 4.28.51-4.94 4.8-1-4.45-1.87M337.21 289.61l-.43-4.71 3.26 3.75 4.18-1.95-2.39 4.1 3.08 3.59-4.62-1-2.39 4.1-.51-4.8-4.78-1 4.6-2.05M273.13 292.4l.33-1.29a7.2 7.2 0 001.28.2 1.75 1.75 0 001.05-.26 1.79 1.79 0 00.55-.6 1.57 1.57 0 00.17-.37l1.57.41-2.44 9.6-1.93-.49 1.68-6.63zM294.92 294.62a14.28 14.28 0 00-1.35 1.42 12.79 12.79 0 00-2.45 4.34 9.46 9.46 0 00-.53 2.15l-2-.18a11.93 11.93 0 012.23-5.37 13.57 13.57 0 012-2.32l-4.92-.43.18-1.74 7 .61zM310.25 294.21a13.07 13.07 0 00-1.11 1.62 13.6 13.6 0 00-1.14 2.37 13.87 13.87 0 00-.59 2.3 10 10 0 00-.19 2.2l-2 .14a11.87 11.87 0 011.36-5.65 13.5 13.5 0 011.62-2.61l-4.93.35-.09-1.75 7-.49zM323.32 292.71a1 1 0 00-.3-.47 1.08 1.08 0 00-1-.24 1.42 1.42 0 00-1.08 1.35 6.88 6.88 0 00.11 1.76 2.23 2.23 0 01.67-.81 3 3 0 011-.44 2.85 2.85 0 012.31.38 3.21 3.21 0 011.35 2 3.9 3.9 0 01-.25 2.57 3.09 3.09 0 01-2.26 1.62 3 3 0 01-3.05-.9 6.38 6.38 0 01-1.39-2.91 16.11 16.11 0 01-.33-1.82 5.75 5.75 0 01.17-2.21 3.31 3.31 0 01.82-1.37 3 3 0 011.5-.8 3.27 3.27 0 012.3.18 2.73 2.73 0 011.33 1.63zm-1 6a1.36 1.36 0 001.18.25 1.25 1.25 0 00.89-.71 2.08 2.08 0 00.07-1.32 1.9 1.9 0 00-.72-1.2 1.42 1.42 0 00-1.9.28 1.7 1.7 0 00-.23 1.53 1.94 1.94 0 00.73 1.13z" fill="#efae0e"/><circle cx="224.59" cy="135.13" r="1.78" fill="#efae0e"/><path d="M216.06 218.74l5.5.71 7 .69 18.13 1.19 21.55 1 83.48 1.53 1.54-.16 1.54.16 2.72.52 2.23.16 2.23-.16 2.22-.35 2.38-.68 3.08-.51 4.63-.68 8.93-.67M253.77 251.27l-2.57-.18h-2.56l-5.47.69-5.49.86-2.55.15-2.45-.12M374 243.11l-6.2-.57-6.83-.16-2.74.18" fill="none" stroke="#000" stroke-width=".33"/><path d="M253.72 258.81l1.54.86 1.74.33 2 .18h2.05l3.93-.51 2.23-.51L270 258l1.72-.33 2.55-.35 2.9-.16 2.75-.68 2.38-1 2.41-2 .85-.86v-.68l-.51-.53-.69-.51-2.73-1.52-1.71-1-1.37-1.36-.51-.36h-.51l-1.37.36-.69.35-1.2-.18-2.55-.51-2.74-.17h-5l-5.13.51-1.88.5-1.36.69-2.07 1.54-1.88 1.7-.51 1-.34 1 .18 1.19.67 1.52 1 1.55z" fill="#efae0e" stroke="#000" stroke-width=".34"/><path fill="#9e4d3c" stroke="#000" stroke-width=".34" d="M246.54 206.8l-14.7-13.85 14.7 15.74"/><path d="M347 229.55l-.16 1.72v1.87l.5 1.72 1.2 1.7-87.59-8.2L257 228l-2.56-6.68-1.54-3.6-1.9-3.56-2-3.09-1.19-1.36-1.2-1 .16-6.66v-.68l-7.35-3.42-4.11-2.23-3.41-2.56 5.47 2.23 9.4 3.07 11.47 3.26 12 2.91 1.88.33 2.21.51 20.67 3.07 20 2.55 2.74.34h1.36l7.19.17-.16-3.75h-.87v-1.38h21.05l.16-1.37 5.65 1 5.82.69 1.72.15 3.08.18-1.74.88-.51.68-.52.86-.51 1.88-.16 2v1.89l.34 1.88-1.88.15-1.71.35-1 3.07-1.36 2.91v.35h-1.88l-1.38.35-1.19.51-1 .84-1.24 3.83z" fill="#9e4d3c" stroke="#000" stroke-width=".33"/><path fill="none" stroke="#000" stroke-width=".34" d="M277 177.56l1.7.15M277 179.59l1.88.18M277 183.89l2.57.15M277 186.27l2.91.18M277.16 192.42l3.6 1.04M241.25 196.72l33.17-22.25M282.47 206.8l-4.28-31.82M280.07 206.29l-2.22-31.31M277.16 198.24l4.29.86M277.16 201.15l4.8.86M277.16 203.55l5.14 1.2M277 174.8v31.16M325.76 206.47l-1.37-33.72M327.97 206.47l-3.42-33.72M333.96 206.47l-8.56-33.72 4.29 33.72M322.5 211.58l.51-38.65M321.98 172.93l-1.87 38.5M324.55 179.08l2.23-.33M324.39 176.17h1.88M324.39 174.8l1.37-.15M318.23 198.09h4.45M318.57 195.18l4.28.15M318.73 192.6l4.12.17M318.9 190.21l3.95.16M319.26 187.46l3.59.18M319.42 185.08h3.43M319.6 182.68h3.25M319.93 180.47l2.92.16M319.93 178.75h3.08M320.27 176.7l2.74.18M320.44 174.65l2.57.15M317.36 206.62h5.32M317.7 204.24l4.98.17M317.88 202.19l4.8.17M318.06 200.29l4.62.18M325.4 197.58l5.65-2.4M325.24 194.67l5.12-1.9M325.06 190.9l4.29-2.23M324.89 188.5l4.12-1.37M324.89 186.8l3.59-1.55M324.73 185.08l3.41-1.37M324.73 183.03l3.08-.51M324.73 181.13l2.74-.15M325.58 206.47l7.52-3.42M325.58 203.91l7.01-2.76M325.58 201.66l6.49-2.03M325.4 200.14l6.16-2.56"/><path d="M317 211.25l3.59-38.32" fill="#9e4d3c"/><path d="M260.91 228.36a20.53 20.53 0 00-2.23-4.45c2.92.35 6.34.68 10.11 1a43 43 0 005 .33c1.87.18 3.75.36 5.64.51s3.75.35 5.63.51c2.23.18 4.29.35 6.5.35a40 40 0 004.44.39c2.39.16 4.62.33 6.83.51a38 38 0 014.29.33c2.56 0 5.13.18 7.52.35a32.21 32.21 0 003.93.16c2.23.18 4.62.35 6.85.51 1.52 0 3.06.17 4.62.17 7.86.36 14 .53 16.92.53a10.56 10.56 0 011.38-3.77c-11.81.51-74.08-1.89-93.93-4.45 1.21 3.08 2.22 5.64 2.57 6.68l3.93.33zm87.08-21l-.69 7.88 9.93.15 1.7-7zm-.85 9.07l3.59 6.83 2.57-.17 2-6.31z" fill="#de1c2c" stroke="#000" stroke-width=".34"/><path d="M317 211.25l3.59-38.32" fill="none" stroke="#000" stroke-width=".34"/><path d="M322.85 145.21l-1.71 14 1 .17zM322 162.15h-1l-1 7.36h1.54z" fill="#9e4d3c" stroke="#000" stroke-width=".34"/><path d="M325.24 169.69l-3.77-.18h-1.54l-2.57-.17.7 3.59h3.25l4.09-.18zM322 162.15l1.88.17.35-2.73-3.07-.33h-1.37l-.19 2.74 1.36.18zM270.15 204.57l1.88.35 2.23.51 2.23-30.63-2.07-.33z" fill="#9e4d3c" stroke="#000" stroke-width=".33"/><path d="M278.37 146.93l-2.06 15.22 1 .17zM276 164.55l-1.21 7.52h1.88l.51-7.52z" fill="#9e4d3c" stroke="#000" stroke-width=".34"/><path d="M277.34 162.32l-1-.17h-1.74l.17 2.23 1.21.17h1.18l1.72.33.16-2.56zM274.77 172.07l-2.74-.16v2.39l2.39.17 2.05.33 1.72.18.16-2.73-1.7-.18z" fill="#9e4d3c" stroke="#000" stroke-width=".33"/><path fill="#9e4d3c" stroke="#000" stroke-width=".34" d="M319.6 172.93l-4.62 38.14 2.72.36h1.37l2.24-38.5h-1.71zM345.6 170l-.85 7.87h.67z"/><path d="M344.39 180.8L342 206.47h3.08l.33-25.67zM345.42 177.89h-3.59l-.16 1.37 2.72 1.54h1l2.05-1.72v-1.19z" fill="#9e4d3c" stroke="#000" stroke-width=".33"/><path d="M344.39 169v1h1.21l.69-.18.16-.84z" fill="#9e4d3c" stroke="#000" stroke-width=".34"/><path d="M255.09 211.76c7.54 4.78 22.59 7 31 7.69 15.38 1.37 37.63 1.88 51.49 1a10.21 10.21 0 010 2.21c-11.63.85-42.78-.51-47.56-.84-4.82-.49-24.49-2.02-34.93-10.06z" fill="#de1c2c" stroke="#000" stroke-width=".34"/><path d="M333.1 207.83v3.93c1.9 0 3.77.17 5.49.17V208zM326.43 207.83l.17 3.75c1.88.18 4.11.18 6.16.18v-3.93zM346.29 208h-7.36v3.92h7.36zM255.62 203.05a27.47 27.47 0 01.51 5.11 18.2 18.2 0 004.78 1.55v-5a46.81 46.81 0 01-5.29-1.66zM271.34 207.32l-.16 4.79c2.63.51 4.11.64 5.13.84v-4.61c-1.71-.34-3.25-.68-4.97-1.02zM263.66 205.61l-.18 4.78c1.72.51 4.17 1.6 5.87 2l-.56-5.54c-1.72-.38-3.43-.91-5.13-1.24zM325.06 213.3l.18 3.59a42.44 42.44 0 014.78.18l-.16-3.59a41.22 41.22 0 00-4.8-.18zM317.54 213v3.77c1.72 0 3.42.15 5.14.15l.17-3.76c-1.85-.03-3.59-.16-5.31-.16zM332.76 213.48l.18 3.59h4.78v-3.59zM309.84 212.44v3.95c2.57 0 4 .15 5.31.15v-3.75c-1.89-.17-3.59-.35-5.31-.35zM343.88 213.48h-3.41l.17 3.41h3.08c0-1.01.16-2.4.16-3.41zM286.58 209.88l.16 4.46c2.77.23 4.15.39 5.13.5l.16-4.1c-1.7-.35-3.57-.51-5.45-.86zM279 208.87v4.43a39.14 39.14 0 005.13.68v-4.45c-1.66-.15-3.37-.53-5.13-.66zM301.63 211.76l.17 4.1a51.63 51.63 0 005.65.35v-3.92zM294.62 211.07l-.18 4.13h.18c2.27.27 3.46.39 4.44.5l.18-4.27a43.25 43.25 0 00-4.62-.36zM349.71 209l-.36 5 1.21.18.17-5.14zM356.54 209.53h-.85l-.18 5 .87.18zM351.92 209.2l-.16 5 .85.18v-5.18zM353.81 209.38l-.17 5 .86.15.16-5.11zM268.61 227.85c1.37.18 2.91.51 5 .69l.18-3.27a43 43 0 01-5-.33c0 .69-.18 1.7-.18 2.91zM314.8 232.46c1.2.18 2.39.18 3.59.35l.18-4.45a28.58 28.58 0 01-3.93-.18zM325.58 233.5c1.54.15 3.08.15 4.62.35a37 37 0 00-.2-4.85c-1.54 0-3.08-.17-4.62-.17zM303 231.27c1 .18 3.95.33 4.11.33v-3.75a33.39 33.39 0 00-4.27-.35zM279.39 229.22c1.7.17 3.6.33 5.65.51v-3.42l-5.65-.51zM291.54 230.23c1.36.18 2.9.36 4.44.53V227a40 40 0 01-4.44-.35z" fill="#fff" stroke="#000" stroke-width=".34"/><path d="M364.4 185.59s-3.19-2.61-12.15.83c-2.63 1-4.05 2.56-7.68 3.27 0 0 .47 3.26-2.56 11.64a8.82 8.82 0 006.33-1.83c3.3-2.65 6.32-4.16 12.48-2.12" fill="#fff"/><path d="M353.55 189.53a9.58 9.58 0 00-5.6 2.32 6.63 6.63 0 01-3.55 1.79 4.5 4.5 0 00-.47 1.37c.51 0 2.21-.13 4.51-2.1a8.7 8.7 0 015-2.28 10 10 0 00.11-1.1zM344.57 191.07a13.58 13.58 0 004-1.6c.56-.3 1.14-.6 1.73-.87a12.39 12.39 0 013.56-1.1c.05 0 .32-1.28.6-1.9-.78.23-1.35.49-2.24.83-2.63 1-4.05 2.56-7.69 3.27a6.67 6.67 0 010 1.38zM356.28 192.89a10.54 10.54 0 015.51 1.05l.57-1.62c-2.37-1.22-5.75-.95-8.19-.41a9.17 9.17 0 00-4.82 1.82 13.53 13.53 0 01-5.73 2.78s-.28.72-.42 1.2a15.85 15.85 0 006.54-2.88 12 12 0 016.54-1.94z" fill="#de1c2c"/><path d="M361.24 195.63c-2.63-1.58-8-1.47-11.88 1.25s-6.59 3-6.82 3l-.53 1.46a8.81 8.81 0 006.33-1.83c3.3-2.65 6.33-4.16 12.48-2.12z" fill="#de1c2c"/><path d="M364.4 185.59s-3.19-2.61-12.15.83c-2.63 1-4.05 2.56-7.68 3.27 0 0 .47 3.26-2.56 11.64a8.82 8.82 0 006.33-1.83c3.3-2.65 6.32-4.16 12.48-2.12" fill="none" stroke="#000" stroke-width=".34"/><path d="M364.42 185.59l-3.6 11.79-2.9 9.42c.67 0 1.18.17 1.7.17l5.31-23.26z" fill="#fff" stroke="#000" stroke-width=".34"/><path d="M354.66 185.59c-1 1.43-1.37 6.5-1.37 6.5a15.74 15.74 0 019.07.18l2-6.68c-4.52-2.04-9.7 0-9.7 0z" fill="#002a86"/><path d="M354.66 185.59c-1 1.43-1.36 6.5-1.36 6.5a15.61 15.61 0 019.06.18" fill="none" stroke="#000" stroke-width=".34"/><path d="M353.91 187.66a12.31 12.31 0 00-3.51 1.08c-2 .9-3.72 2.14-5.8 2.49M344.25 193.46s1.45.21 3.56-1.56a10.44 10.44 0 015.76-2.54M353.43 190.63a8.11 8.11 0 00-4.88 2.14c-2.52 2.16-4.28 2.2-4.62 2.19M353.3 192.09s-1.47-.14-4.05 1.71a12.41 12.41 0 01-5.66 2.54M343.15 197.89a15.64 15.64 0 006.69-2.93c3.47-2.54 9.76-2.25 11.86-.88" fill="none" stroke="#000" stroke-width=".34"/><path d="M342.54 199.79s2.63 0 6.71-2.84 9.53-2.8 12.07-1.27" fill="none" stroke="#000" stroke-width=".34"/><path d="M346.11 241.52s-3.59-15.56-3.93-17.09 1-2.73 1.88-.52c.69 2.05 6.5 17.61 6.5 17.61zM333.44 240.84s-2.39-14.53-2.73-16.07 1-3.77 1.88-.34c1 3.25 5.31 16.76 5.31 16.76zM322 240.16s-2.38-16.08-2.72-17.27.67-1.89 1.36-.18c.52 1.72 4.78 17.45 4.78 17.45zM309.66 240s.52-16.76.52-17.77c-.16-1 1.2-1.55 1.38 0 .16 1.36 1.7 17.61 1.7 17.61zM297.7 239.14s1-16.78 1-17.62c-.17-.86 1.19-1.89 1.37 0s1.54 17.62 1.54 17.62zM284.69 239s3.77-16.94 3.94-18 1-1 1 0c0 1.21-.49 18.14-.49 18.14zM272 237.07s4.28-13.85 4.46-15a1.05 1.05 0 012 .51c0 1.37-2.91 14.88-2.91 14.88zM258.52 236.05s7.19-13.16 7.86-14.53c.69-1.54 2.06-1 1.54.18-.67 1-6.14 14.35-6.14 14.35z" fill="#fff" stroke="#000" stroke-width=".34"/><circle cx="245.92" cy="243.41" r="2.14" fill="#de1c2c" stroke="#000" stroke-width=".34"/><circle cx="263.27" cy="260.24" r="2.14" fill="#de1c2c" stroke="#000" stroke-width=".34"/><circle cx="258.22" cy="271.2" r="2.14" fill="#de1c2c" stroke="#000" stroke-width=".34"/><circle cx="236.77" cy="251.45" r="2.14" fill="#de1c2c" stroke="#000" stroke-width=".34"/><circle cx="223.25" cy="223.66" r="2.14" fill="#de1c2c" stroke="#000" stroke-width=".34"/><circle cx="234.55" cy="219.13" r="2.14" fill="#de1c2c" stroke="#000" stroke-width=".34"/><circle cx="221.03" cy="189.94" r="2.14" fill="#de1c2c" stroke="#000" stroke-width=".34"/><circle cx="241.51" cy="165.54" r="2.14" fill="#de1c2c" stroke="#000" stroke-width=".34"/><circle cx="230.65" cy="160.22" r="2.14" fill="#de1c2c" stroke="#000" stroke-width=".34"/><circle cx="259.01" cy="144.44" r="2.14" fill="#de1c2c" stroke="#000" stroke-width=".34"/><circle cx="251.32" cy="135.13" r="2.14" fill="#de1c2c" stroke="#000" stroke-width=".34"/><circle cx="279.54" cy="122.72" r="2.14" fill="#de1c2c" stroke="#000" stroke-width=".34"/><path d="M282.76 263.64c-4.41-2.93-5.18-1-7.71-2.36-4.45-2.46-6-3.23-7.09-3.72 2.67 3.16 1.7 7.77 6.39 10.36a16 16 0 007.66 1.53 3.43 3.43 0 013.6 3 78.06 78.06 0 01-19.19-6.65A10.26 10.26 0 01264 261l-.63-1.22c-.14.06-.62 1.48.63 4.74-1.54-.84-3-1.74-4.49-2.69 1.62-1.5 4.25-3.87.53-10-2.75-4.52-4.28-3.07-6-5.41-3-4.12-4.06-5.48-4.84-6.39 1.08 4-1.76 7.76 1.38 12.1a16.1 16.1 0 006.27 4.64 3.35 3.35 0 011.84 4.54 63.76 63.76 0 01-11.13-9.35 10.9 10.9 0 01-1.24-7.61l-.08-1.37c-.17 0-1.42 1.38-1.37 5.93-.68-.83-1.33-1.67-1.95-2.54s-1.24-1.75-1.84-2.65c1.66-1.09 6.18-2 3.92-9.93-1.46-5.1-3.32-4.1-4.33-6.81-1.79-4.76-2.47-6.35-3-7.43 0 4.14-3.75 7-1.86 12a16 16 0 004.82 6.14c2 1.57 1.67 4.59-.07 5.26a45.32 45.32 0 01-4.88-9 68.3 68.3 0 01-2.75-7.08 11.69 11.69 0 011.56-6.59L235 219c-.14-.06-1.58.76-3.1 4.25-.45-1.65-.87-3.36-1.24-5.11 2.76-.19 5.22-.16 5.66-7.09.24-3.79-2-5.66-1.93-7.06.3-5.76-.36-5.86-.46-6.92-1.25 3.46-4.8 2.95-4.79 9.14 0 2.46 1.84 5.85 2.74 7.27a2.52 2.52 0 01-1.42 3.72 101.77 101.77 0 01-1.91-16.27 97.67 97.67 0 01.82-12c2.08.69 5.48 2 9.13-4.31 2.65-4.59.51-6.17 1.75-8.78a34.89 34.89 0 002.56-7c-3 2.87-6.81 2.06-9.1 6.9-1.18 2.51-1.25 6.62-1.06 8.5a3.34 3.34 0 01-3.16 3.79c1.06-7.47 1.5-10.76 4.36-17.22l.14-.25a10.89 10.89 0 016.76-4.18l1.24-.58c-.06-.17-2-.87-6.57 1.18.92-2.06 1.91-4.06 3-6 1.7 1.13 4.48 4.55 10.55-.74 4-3.48 2.18-4.87 4.32-6.81a26.69 26.69 0 005.24-6c-3.75 1.74-7.72-.27-11.46 3.57a16.07 16.07 0 00-3.5 7c-.57 2.42-3.32 3.42-4.71 2.26.82-1.4 1.67-2.77 2.59-4.09a89.28 89.28 0 018.68-10.35 10.92 10.92 0 017.9-.94h1.37c0-.18-1.41-1.6-6.42-1.7a49.86 49.86 0 015.59-4c1.24 1.31 1.83 6.59 10.23 4 5.06-1.54 4-3.38 6.72-4.44 4.73-1.86 6.31-2.58 7.39-3.1-4.14 0-7.09-3.63-12.06-1.66a16.09 16.09 0 00-6.06 4.92c-1.62 2.14-4.9 1.72-5.36-.28a82.25 82.25 0 0118.45-7.73l.1-.62c1.76.67 7.34 2.5 11.81.59 3.7-1.58 5.53-4 7.71-4.93-3-2-7.87-1.72-7.87-1.72s3.56-2.28 3.76-6c-2.56.18-6.93 1-8.71 3.58a37.71 37.71 0 01-6.21 6.55c2.07-4.34.78-4.68.63-4.76s-.73 4.42-6.86 7.32a72.55 72.55 0 00-13.55 6.41c-1.36-1.46-.37-3.49 1.83-3.32 1.76.13 4-.81 6.35-2.31 6.88-4.38 7.44-8.1 6.86-10-3.24 5.1-8.22 1.69-13.34 5.4-4.77 3.45-3.68 9.63-3.3 11.27-.89.59-1.76 1.19-2.61 1.82s-1.51 1.14-2.24 1.72c.94-5.52-.85-6.53-1-6.53a12.82 12.82 0 01-2 9.13 66 66 0 00-11.93 14.4c-1.45-.84-1.22-2.56.6-3.5a13.16 13.16 0 004.63-4.75c4.47-6.81 3.47-10.43 2.14-12-.88 6-6.4 4.81-9.59 10.27-3.37 5.76.18 8.9 1.42 11.3-.9 1.54-1.73 3.11-2.51 4.71-1.3-4.26-3-4.44-3.18-4.38a12.27 12.27 0 011.91 7.14 76.38 76.38 0 00-5.46 19.55c-1.74-.21-2.39-2.14-.89-3.57 1.28-1.21 2.09-3.52 2.55-6.26 1.35-8-1-11-2.87-11.82 1.61 5.82-4.25 7.23-4.93 13.52-.6 5.55 4.16 8.84 5.91 9.86-.18 1.49-.32 3-.43 4.5-3.52-4.18-5.42-3.49-5.53-3.36a14.6 14.6 0 015.36 7.09v3.8a90.4 90.4 0 001.68 16.29c-1.49.41-2.73-.94-2.05-2.7.6-1.53.36-3.8-.34-6.3-2-7.33-5.07-9.66-7-9.67 3.67 4.28-.74 7.94 1.19 13.52 1.61 4.66 6.38 6.11 8.46 6.54q.67 3.06 1.62 6.05c-5-2.41-6.44-1-6.49-.82a12.54 12.54 0 017.49 3.75c.24.68.48 1.37.76 2a92.48 92.48 0 007.15 14.16c-1.51 1.51-3.64.46-3.4-1.8.19-1.76-.69-4-2.11-6.42-4.18-7-7.88-7.67-9.85-7.14 5 3.38 1.45 8.26 5 13.48s10.37 3.82 11.43 3.57q1.62 2.46 3.4 4.79c-5.19-.79-6.14.92-6.14 1.09a12.6 12.6 0 018.22 1.48 67.58 67.58 0 0011.26 10.65c-1.06.83-3.26.19-4-1.34s-1.37-3.58-3.68-4.65c-6.21-2.9-10.26-1.82-11.56-.49 7.44-.43 4.66 5 10.25 7.8a10.1 10.1 0 0010-.54 62.72 62.72 0 005.29 3.4c-4.54 1.49-4.67 3.55-4.6 3.7a11 11 0 017.32-2.23 67.31 67.31 0 0018.57 6.2c-.16 1.88-2.22 2.55-3.63.92-1.16-1.33-3.43-2.24-6.14-2.82-8-1.71-11 .54-11.94 2.34 5.88-1.35 7 4.56 13.28 5.52 5.77.89 9.33-4.18 10.24-5.66 1.25.19 2.51.37 3.79.51l.58-2.87c-1.3-.18-2.59-.41-3.88-.66.85-2.05 1.86-5.21-3.85-9z" fill="#3f863f" stroke="#000" stroke-width=".33"/><circle cx="336.73" cy="260.24" r="2.14" fill="#de1c2c" stroke="#000" stroke-width=".34"/><circle cx="341.78" cy="271.2" r="2.14" fill="#de1c2c" stroke="#000" stroke-width=".34"/><circle cx="354.08" cy="243.41" r="2.14" fill="#de1c2c" stroke="#000" stroke-width=".34"/><circle cx="363.23" cy="251.45" r="2.14" fill="#de1c2c" stroke="#000" stroke-width=".34"/><circle cx="376.75" cy="223.66" r="2.14" fill="#de1c2c" stroke="#000" stroke-width=".34"/><circle cx="365.45" cy="219.13" r="2.14" fill="#de1c2c" stroke="#000" stroke-width=".34"/><circle cx="378.97" cy="189.94" r="2.14" fill="#de1c2c" stroke="#000" stroke-width=".34"/><circle cx="358.49" cy="165.54" r="2.14" fill="#de1c2c" stroke="#000" stroke-width=".34"/><circle cx="369.35" cy="160.22" r="2.14" fill="#de1c2c" stroke="#000" stroke-width=".34"/><circle cx="340.99" cy="144.44" r="2.14" fill="#de1c2c" stroke="#000" stroke-width=".34"/><circle cx="348.68" cy="135.13" r="2.14" fill="#de1c2c" stroke="#000" stroke-width=".34"/><circle cx="320.46" cy="122.72" r="2.14" fill="#de1c2c" stroke="#000" stroke-width=".34"/><path d="M317.24 263.64c4.41-2.93 5.18-1 7.71-2.36 4.45-2.46 6-3.23 7.09-3.72-2.67 3.16-1.7 7.77-6.39 10.36a16 16 0 01-7.66 1.53 3.43 3.43 0 00-3.6 3 78.06 78.06 0 0019.19-6.65A10.26 10.26 0 00336 261l.63-1.22c.14.06.62 1.48-.63 4.74 1.54-.84 3-1.74 4.49-2.69-1.62-1.5-4.25-3.87-.53-10 2.75-4.52 4.28-3.07 6-5.41 3-4.12 4.06-5.48 4.84-6.39-1.08 4 1.76 7.76-1.38 12.1a16.1 16.1 0 01-6.27 4.64 3.35 3.35 0 00-1.84 4.54 63.76 63.76 0 0011.13-9.35 10.9 10.9 0 001.24-7.61l.08-1.37c.17 0 1.42 1.38 1.37 5.93.68-.83 1.33-1.67 1.95-2.54s1.24-1.75 1.84-2.65c-1.66-1.09-6.18-2-3.92-9.93 1.46-5.1 3.32-4.1 4.33-6.81 1.79-4.76 2.47-6.35 3-7.43 0 4.14 3.75 7 1.86 12a16 16 0 01-4.82 6.14c-2 1.57-1.67 4.59.07 5.26a45.32 45.32 0 004.88-9 68.3 68.3 0 002.75-7.08 11.69 11.69 0 00-1.56-6.59L365 219c.14-.06 1.58.76 3.1 4.25.45-1.65.87-3.36 1.24-5.11-2.76-.19-5.22-.16-5.66-7.09-.24-3.79 2-5.66 1.93-7.06-.3-5.76.36-5.86.46-6.92 1.25 3.46 4.8 2.95 4.79 9.14 0 2.46-1.84 5.85-2.74 7.27a2.52 2.52 0 001.42 3.72 101.77 101.77 0 001.91-16.27 97.67 97.67 0 00-.82-12c-2.08.69-5.48 2-9.13-4.31-2.65-4.59-.51-6.17-1.75-8.78a34.89 34.89 0 01-2.56-7c3 2.87 6.81 2.06 9.1 6.9 1.18 2.51 1.25 6.62 1.06 8.5a3.34 3.34 0 003.16 3.79c-1.06-7.47-1.5-10.76-4.36-17.22l-.14-.25a10.89 10.89 0 00-6.76-4.18l-1.24-.58c.06-.17 1.95-.87 6.57 1.18-.92-2.06-1.91-4.06-3-6-1.7 1.13-4.48 4.55-10.55-.74-4-3.48-2.18-4.87-4.32-6.81a26.69 26.69 0 01-5.24-6c3.75 1.74 7.72-.27 11.46 3.57a16.07 16.07 0 013.5 7c.57 2.42 3.32 3.42 4.71 2.26-.82-1.4-1.67-2.77-2.59-4.09a89.28 89.28 0 00-8.68-10.35 10.92 10.92 0 00-7.9-.94h-1.37c0-.18 1.41-1.6 6.42-1.7a49.86 49.86 0 00-5.59-4c-1.24 1.31-1.83 6.59-10.23 4-5.06-1.54-4-3.38-6.72-4.44-4.73-1.86-6.31-2.58-7.39-3.1 4.14 0 7.09-3.63 12.06-1.66a16.09 16.09 0 016.06 4.92c1.62 2.14 4.9 1.72 5.36-.28a82.25 82.25 0 00-18.45-7.73l-.1-.62c-1.76.67-7.34 2.5-11.81.59-3.7-1.58-5.53-4-7.71-4.93 3-2 7.87-1.72 7.87-1.72s-3.56-2.28-3.76-6c2.56.18 6.93 1 8.71 3.58a37.71 37.71 0 006.21 6.55c-2.07-4.34-.78-4.68-.63-4.76s.73 4.42 6.86 7.32a72.55 72.55 0 0113.55 6.41c1.36-1.46.37-3.49-1.83-3.32-1.76.13-4-.81-6.35-2.31-6.88-4.38-7.44-8.1-6.86-10 3.24 5.1 8.22 1.69 13.34 5.4 4.77 3.45 3.68 9.63 3.3 11.27.89.59 1.76 1.19 2.61 1.82s1.51 1.14 2.24 1.72c-.94-5.52.85-6.53 1-6.53a12.82 12.82 0 002 9.13 66 66 0 0111.93 14.4c1.45-.84 1.22-2.56-.6-3.5a13.16 13.16 0 01-4.63-4.75c-4.47-6.81-3.47-10.43-2.14-12 .88 6 6.4 4.81 9.59 10.27 3.37 5.76-.18 8.9-1.42 11.3.9 1.54 1.73 3.11 2.51 4.71 1.3-4.26 3-4.44 3.18-4.38a12.27 12.27 0 00-1.91 7.14 76.38 76.38 0 015.46 19.55c1.74-.21 2.39-2.14.89-3.57-1.28-1.21-2.09-3.52-2.55-6.26-1.35-8 1-11 2.87-11.82-1.61 5.82 4.25 7.23 4.93 13.52.6 5.55-4.16 8.84-5.91 9.86.18 1.49.32 3 .43 4.5 3.52-4.18 5.42-3.49 5.53-3.36a14.6 14.6 0 00-5.36 7.09c0 1.26.05 2.52 0 3.8a90.4 90.4 0 01-1.56 16.25c1.49.41 2.73-.94 2.05-2.7-.6-1.53-.36-3.8.34-6.3 2.05-7.33 5.07-9.66 7-9.67-3.67 4.28.74 7.94-1.19 13.52-1.61 4.66-6.38 6.11-8.46 6.54q-.68 3.06-1.62 6.05c5-2.41 6.44-1 6.49-.82a12.54 12.54 0 00-7.49 3.75c-.24.68-.48 1.37-.76 2a92.48 92.48 0 01-7.15 14.16c1.51 1.51 3.64.46 3.4-1.8-.19-1.76.69-4 2.11-6.42 4.18-7 7.88-7.67 9.85-7.14-5 3.38-1.45 8.26-5 13.48s-10.37 3.82-11.43 3.57q-1.62 2.46-3.4 4.79c5.19-.79 6.14.92 6.14 1.09a12.6 12.6 0 00-8.22 1.48 67.58 67.58 0 01-11.26 10.65c1.06.83 3.26.19 4-1.34s1.37-3.58 3.68-4.65c6.21-2.9 10.26-1.82 11.56-.49-7.44-.43-4.66 5-10.25 7.8a10.1 10.1 0 01-10-.54 62.72 62.72 0 01-5.29 3.4c4.54 1.49 4.67 3.55 4.6 3.7a11 11 0 00-7.32-2.23 67.31 67.31 0 01-18.57 6.2c.16 1.88 2.22 2.55 3.63.92 1.16-1.33 3.43-2.24 6.14-2.82 8-1.71 11 .54 11.94 2.34-5.88-1.35-7 4.56-13.28 5.52-5.77.89-9.33-4.18-10.24-5.66-1.25.19-1.35.29-2.63.43l-.05-3.22c1.3-.18.9 0 2.19-.23-.97-2.01-1.98-5.17 3.73-8.96z" fill="#3f863f" stroke="#000" stroke-width=".33"/><path d="M306.43 267.19a5.45 5.45 0 00-1.54 2.4 13.72 13.72 0 00-.87 5.64c2.41-2.4 5.98-8.37 2.41-8.04zM297 279a7.08 7.08 0 01-3.24 4.11c.85 1.19 1.52 1.69 2.21 1.36a15.81 15.81 0 003.59-4.27A3.13 3.13 0 01297 279z" fill="#efae0e" stroke="#000" stroke-width=".34"/><path d="M296.67 275.06c-2.05-3.75-1.54-7 .51-7.87a8.53 8.53 0 00-.35-1.7c-1-2.76-5.47-1-5.81.33.52 3.24-.85 10.61-1.71 13s-2.73 2.89-4.27 1.19c-.35 4.45 5 5 8.73 3.09A7.08 7.08 0 00297 279a5 5 0 00.35-1.71 8 8 0 01.16-.86 12.5 12.5 0 01-.84-1.37z" fill="#efae0e" stroke="#000" stroke-width=".34"/><path d="M297.36 269.41a8.61 8.61 0 00-.18-2.22c-2.05.86-2.56 4.12-.51 7.87a12.5 12.5 0 00.85 1.37 47.25 47.25 0 00-.16-7.02zM304.19 277.64a5.11 5.11 0 01-2.74 2.2c1 1.72 3.26 4 3.95 4.13 1 .5 1.54.15 2.21-.86a7.64 7.64 0 01-3.42-5.47z" fill="#efae0e" stroke="#000" stroke-width=".34"/><path d="M304 276.43v-1.2a13.72 13.72 0 01.87-5.64c-1.9-1.7-6.34-1.37-7.53-.18a47.25 47.25 0 01.16 7 8 8 0 00-.16.86A5 5 0 01297 279a3.13 3.13 0 002.56 1.2 8.21 8.21 0 001.88-.36 5.11 5.11 0 002.74-2.2c.01-.35-.18-.86-.18-1.21z" fill="#efae0e" stroke="#000" stroke-width=".34"/><path d="M312.23 279.69a18.41 18.41 0 01-1-3.77 14.87 14.87 0 010-2.91 8.42 8.42 0 01.67-3.07 2.12 2.12 0 00-.33-2.91 3.82 3.82 0 00-3.44-.68 5.57 5.57 0 00-1.69.84c3.59-.33 0 5.66-2.41 8v1.2c0 .35.17.86.17 1.21a7.64 7.64 0 003.42 5.47 6.38 6.38 0 003.61 1.19c2.55 0 4.43-1.7 4.43-5-1.2 1.62-2.4 1.97-3.43.43z" fill="#efae0e" stroke="#000" stroke-width=".34"/><path d="M253.55 208.05l.53-.84v-1l-.36-1-1-1-1.72-1.11-2.05-.68-2.23-.5-.18 3.07v3.6h6.16z" fill="#efae0e" stroke="#000" stroke-width=".33"/></svg>