<svg xmlns="http://www.w3.org/2000/svg" width="276" height="300"><path d="M271.68 244.55c-.93-6.59-14.25-32.68-20.56-40.25-8.15-9.78-15.31-19.06-15.14-19.64.33-1.13-19.08-21.91-31.09-33.29-18.61-17.63-26.87-25.18-35.28-32.29-9.85-8.33-31.32-25.39-35.18-27.95-1.57-1-2.86-2.33-2.86-2.87a21.08 21.08 0 012-4.85c2-3.81 2-3.91.58-5.46-2.47-2.73-4-3.21-6.06-1.87-1.8 1.18-1.94 1.09-7-4A47.87 47.87 0 00111 64.34c-5.11-2.69-4.85-2.65-16.73-2.29a40 40 0 01-5.94-.43c-2.6-.4-3.59-.21-4.83.91-2.38 2.16-1.57 7.52 1.56 10.32a12.41 12.41 0 012.36 2.47 20.46 20.46 0 01-1.9 3.16 24.81 24.81 0 00-2.76 5.66c-.7 2.32-1.44 3.09-4 4.08l-3.11 1.22-2.79-2.73c-3.71-3.63-5.86-3.35-8 1a13.88 13.88 0 01-3.25 4.44c-1.25.87-1.65 1.84-1.53 3.67.2 3-2 5.25-11.3 11.24l-12.1 7.84c-4.62 3-6.91 5.18-10.74 10.27-2.67 3.56-7 8.77-9.56 11.6-5.29 5.77-6.17 7.51-5.52 11 .92 4.91 16.07 24.17 25.4 32.27 3 2.6 5.43 5 5.43 5.24 0 1.2 15.32 12 29.15 20.57 2.37 1.46 4.31 3 4.32 3.49s-1.41 1.4-3.14 2.08c-3.07 1.2-3.28 1.18-8.18-.84-4.38-1.8-6.06-2.07-13-2.07-7.13 0-8.42.22-12.11 2s-4.3 2-6.24.95c-2.9-1.5-11-3.35-14.79-3.36-4.33 0-10.49 2-13.17 4.22A9.82 9.82 0 003.91 227c3.94 3.84 10.91 5.76 20.78 5.71 9.08 0 14.56-1.34 19.38-4.6a11.61 11.61 0 013.48-1.78 41.6 41.6 0 016.61 3c9.5 4.92 16 4.94 25.94.06l4.77-2.34 4.91 2.29c9.5 4.45 16.94 4.65 25.73.71 5.79-2.6 5.62-2.59 9.64-.64 4.56 2.2 13.75 4 18.27 3.54a34.81 34.81 0 008.75-2.59l4.89-2.21 4.5 1.81a53.51 53.51 0 0010.65 2.63c6.32.83 9.82.21 18.5-3.29 2.24-.91 2.83-.81 6.47 1 5.13 2.59 9.3 3.24 14.18 2.19 8.5-1.82 13.21-10.11 9.34-16.44-3-5-13.78-8.52-23.62-7.82a67.37 67.37 0 00-12.08 2.52l-6.85 2.1-5.23-2.16c-4.69-1.94-6.1-2.16-13.6-2.13-7.06 0-9.25.34-14 2-5.19 1.85-5.8 1.92-7.8.88s-2.17-1.45-2.17-5.49c0-3.43-.42-5-2-7.24a55.19 55.19 0 01-3.61-6.45c-3.1-6.67-4.87-8.9-7.89-10-6.56-2.32-14-6.49-18.12-10.17l-4.38-3.9-1.64 2.05c-2.8 3.51-8.46 2.32-13.33-2.8-1.44-1.51-3.35-2.75-4.24-2.75s-2.88-1.41-4.69-3.43c-2.45-2.78-3.45-3.36-5.71-3.36-2.43 0-2.81-.28-3.59-2.67s-4.14-5.68-7-6.7c-2.47-.87-1.38-3.23 3.26-7a40.27 40.27 0 006.91-7.35 19.65 19.65 0 014.68-5.12 14 14 0 003.55-3.17c3.65-5.36 4.58-6 7.56-5.57 2.43.39 3.24.13 5.45-1.79a29.69 29.69 0 014.29-3.14c2.61-1.37 3-4.36.91-6.61-1.76-1.87-1.76-1.87-.27-3.86s1.93-2 8.83-2.23 7.4-.16 8.52 1.56a6.46 6.46 0 002.76 2.31c2 .63 5.31-1.45 5.31-3.32 0-3.52 1-3 14 6.85 24.19 18.41 84.9 71.76 84.9 74.61 0 .41 3.13 4.05 7 8.08 12.58 13.29 33 38.42 40.82 50.12 2.72 4.16 4.5 4.88 4.05 1.65zM76.38 101.8c.64-2.58 1.54-3.57 2.63-2.9 1.25.78 1 4-.38 4.53-2.27.87-2.78.5-2.25-1.63zm-3-1.67c-1.3 2.5-2.45 2.86-3.18 1-.3-.81.14-1.77 1.25-2.66 2.32-1.93 3.31-1.07 1.9 1.66zM69.92 94c1.07-2 2.28-2.65 3.2-1.74.5.51.17 1.17-1 2-2.34 1.67-3.12 1.58-2.2-.26zm-3.2-2a3.91 3.91 0 01-.12 2.3c-.51 2-2.25 2.59-3.2 1.06-.54-.84 2.6-4.03 3.32-3.36zm-34 137.11c-9.78 2.3-22.28.17-27.06-4.61-3.61-3.61-1.72-9 4.06-11.63 4.23-1.89 13.88-1.68 19.14.41s14.83 8.55 14.83 10-5.82 4.66-10.96 5.87zm43.07-2.06c-5.66 2-14.88 1.52-21.09-1-4.4-1.8-16.5-10.46-16.5-11.81 0-.37 1.41-1.32 3.13-2.1 6-2.73 17.63-1.56 25.62 2.58 4.88 2.53 13.25 8.87 13.07 9.9-.08.59-2.02 1.69-4.22 2.47zm39-.05a11.17 11.17 0 01-3.92 1.61 2.26 2.26 0 00-1.76.76 2 2 0 01-1.75.66c-6.64-.52-12-1.55-15.09-2.9-5.45-2.38-17.82-10.9-17.59-12.11.11-.57 2.25-1.7 4.76-2.51 7-2.24 18.37-1.62 23.59 1.29a38.69 38.69 0 016.08 4.21c1.26 1.16 3.64 3.29 5.3 4.74l3 2.64zm-37.24-22c0-.44.34-.59.76-.33s.76.62.76.8-.34.34-.76.34a.79.79 0 01-.76-.81zm114.76 6c9.47-2.23 21.58-.17 26.21 4.46 3.5 3.5 1.67 8.77-3.93 11.27-4.11 1.83-13.45 1.63-18.54-.4s-14.38-8.28-14.38-9.69 5.65-4.51 10.64-5.64zm-42.49 1.54c5.85-2 15.36-1.57 21.77 1.05 4.54 1.86 17 10.8 17 12.19 0 .38-1.45 1.36-3.23 2.17-6.21 2.82-18.19 1.61-26.44-2.66-5-2.62-13.68-9.16-13.5-10.22.14-.63 2.1-1.77 4.4-2.57zm-13.85.6c5.28 2.31 17.27 10.57 17 11.74-.1.55-2.18 1.64-4.61 2.43-6.75 2.17-17.8 1.57-22.85-1.25a37.8 37.8 0 01-5.9-4.09c-1.22-1.11-3.53-3.18-5.13-4.59l-2.92-2.56 2.55-1.55a10.45 10.45 0 013.8-1.56 2.18 2.18 0 001.7-.74 2 2 0 011.7-.64c6.47.46 11.69 1.46 14.69 2.77zm-33.62-27.43a9 9 0 00.76-5.6l-.45-3.32 2.09 1.38c1.15.75 5.3 3 9.23 5s7.6 4 8.17 4.51a34 34 0 013.81 5.91c5.81 10.59 5.89 10.78 5.13 12.92-.7 2-.8 2-6.88 1.74s-14.71 1.4-14.71 2.87c0 1.36-2 1.34-4.55 0a12.58 12.58 0 00-3.58-1.42c-2.6 0-3.33-7.53-1.37-14a26.1 26.1 0 001.14-5.71 11.14 11.14 0 011.21-4.32zM73.53 122c-.49-.17-2.43.67-4.29 1.85a15.59 15.59 0 01-4.39 2.15.94.94 0 00-1 .86c0 .56.93.71 2.66.43 1.47-.24 2.66-.29 2.66-.11a33.64 33.64 0 01-2.24 4c-2.41 3.92-3.75 5.25-9.38 9.28-2 1.43-3.83 3.41-4.08 4.39-.75 3 1 12.47 2.6 14.07 1.25 1.24 1.56 1.29 2.36.33s.55-1.51-1-3.2c-3.52-3.81-2.09-5.4 2.4-2.66 1.72 1 2.83 2.62 3.8 5.39a21 21 0 003.85 6.47c2.85 2.94 3.34 5.29 1 4.53-2.12-.67-2 1.48.17 3s4.18 1.49 5.16-.34.09-3.81-2.77-5.9q-2-1.48-1.56-2.73c.76-2 2.46-1.47 4.66 1.42a14.07 14.07 0 004.76 3.8 24.71 24.71 0 015.62 3.76c2.9 2.62 5 3.29 11.33 3.65 3.13.17 3.45.39 4.11 2.69 1 3.69-2.22 16.9-4.19 16.9-2.54 0-11.09-9.16-10.08-10.79.24-.39 0-1.81-.58-3.14l-1-2.43-.5 3.43c-.56 3.9.74 7.6 4.68 13.34 1.33 1.92 2.24 3.67 2 3.88s-1.47-.18-2.79-.86c-3.51-1.82-4.57-1-1.31 1 2.77 1.71 5.86 5 5.86 6.28 0 1.23-4.18.66-6.85-.94-4.08-2.44-7.73-6.26-13.83-14.47-4.46-6-6.1-7.65-8.23-8.26-5.19-1.49-5.62-1-2.24 2.46a72.18 72.18 0 016.26 7.77 63.55 63.55 0 006.57 7.91l3.47 3.36-4.6-2.57c-8.18-4.51-21.94-13.93-26.22-18l-10.57-9.91c-5.4-5.06-15.41-17.33-20.2-24.76-1.84-2.85-1.08-4.72 4.1-10.12a82.9 82.9 0 007.68-9.49c4.75-7.12 8-10 18.22-16a130.76 130.76 0 0013.69-9.22l4.59-3.83 6.3 6.31-2.69 1.84c-2.54 1.72-6.37 3-11.63 3.72-1.25.19 1 .18 5 0 5.67-.29 7.69-.7 9.39-1.93l2.18-1.56 3.34 3.28c1.84 1.81 3.33 3.64 3.32 4.08-.1 1.33-4.6 5.86-5.57 5.59zm7.83-13.69c-1.73 2.85-1.78 2.87-3.07 1.31-.8-1-.66-1.48.81-3 1.68-1.79 3.78-2.52 3.77-1.31a12.8 12.8 0 01-1.51 3zm3.44.16c1.49-2.89 4.16-3.1 4.16-.33a2.54 2.54 0 01-1.96 2.61c-3.66 1.4-4 1.08-2.2-2.33zm4.51 6.69c-1.16 1.66-3.39 2.36-3.39 1.07 0-1 2.87-3.35 3.77-3.05.52.13.39.82-.38 1.93zM112.88 97c-2.71 2.38-3 2.45-8.6 2.18a33 33 0 01-7-.87c-.92-.43-1.66.1-2.87 2-2.54 4.13-3.48 4-8.57-.82-6.91-6.6-7.36-8.52-2-8.55 1.89 0 2.09-.28 2.09-2.71 0-4.45 4.3-11.34 6.54-10.48 1.56.6 2.66 5.62 2.1 9.67L94.08 91l2-.78a9.76 9.76 0 019.5 1.06c2.1 1.55 2.81 1.72 4.33 1 1.93-.87 2.07-1.23 1.85-4.62-.15-2.13 1.07-4.33 2.39-4.33.39 0 1.39 1.53 2.22 3.41 1.37 3.09 1.41 3.6.38 5.59a20.27 20.27 0 01-3.87 4.67zm-3.07-12.42c-1.16 2.76-2.59 3.28-4.07 1.5-1.12-1.36-.14-3.51 3.24-7.09 2.49-2.63 4.37-3.11 5.74-1.46.65.78.3 1.41-1.5 2.74a12.25 12.25 0 00-3.41 4.31zM106.4 79c-3.61 4.21-6 4.79-6 1.43 0-1.45 1-3.27 2.88-5.43 2.32-2.61 3.2-3.14 4.56-2.7 2.44.75 2.05 2.6-1.44 6.7zm-5.68-4.25c-1.27 1.66-2.59 2.54-3.81 2.54-2.71 0-2.41-2.74.72-6.44 2.23-2.64 2.72-2.9 3.79-2 1.73 1.43 1.55 3-.7 5.9zm17.53 7.11c.64 0 1.14.67 1.14 1.52 0 1.81-1.16 2-1.82.32s-.57-1.87.68-1.87zm.43 18.5c-.27 1.33-1 2.51-1.69 2.64-2.27.44-2.06-2 .53-6 1.43-2.23 2.6-5 2.62-6.13a13.47 13.47 0 011.26-4.67c1.83-3.85.86-6.31-4.57-11.52s-11.64-8.87-15.46-9c-2.67-.07-3.43.52-7.91 6.13-.68.86-3.64.67-5.45-.35-1.18-.66-2.82-4.73-2.38-5.88.69-1.8 3.93-1.42 6.07.71a9.29 9.29 0 002.3 1.9 12.49 12.49 0 002.66-2.25c1.85-1.85 2.7-2.18 4.7-1.84 4.59.8 11.78 4.85 16 9 5.54 5.45 6.82 8 6.14 12l-.5 3.19 1.73-1.52a16.94 16.94 0 003.18-4.77c1.43-3.21 2.38-3.93 3.27-2.49.64 1-.61 3.17-6.69 11.3-2.92 3.92-5.49 8.19-5.81 9.52zm145.09 131.76c-.18.18-2.41-2.66-4.95-6.32-4.84-7-16.34-20.69-27.49-32.81-3.61-3.93-6.78-7.7-7-8.37-.65-1.69-18.54-19-31.18-30.14-26.52-23.41-38.28-33.3-55.83-46.92-6.69-5.2-12.27-10-12.4-10.66s.57-2.13 1.55-3.27l1.78-2.07 5.29 3.62c2.92 2 7.7 5.54 10.63 7.9 18.17 14.66 22.91 18.57 30.43 25.1 25.79 22.42 55.53 51.75 57.39 56.62.35.89 3.85 5.56 7.78 10.38 10.63 13 14.88 19.23 21.74 31.81 1.4 2.64 2.49 4.95 2.26 5.13z"/><path d="M39.51 152.3c0 1 .27 1.8.6 1.8 1.15 0 2.44-1.83 2.44-3.46 0-2.07 2.12-4 5.84-5.33 2.14-.76 2.45-1 1.17-1.07-4.56-.09-10.05 4.34-10.05 8.06zM44.6 151.45c-1.91 2.8-2.7 7.06-1.53 8.23 1.57 1.56 2.79-.26 1.84-2.75-.53-1.42-.34-2.45.8-4.33 2.21-3.6 1.29-4.6-1.11-1.15z"/></svg>