<svg xmlns="http://www.w3.org/2000/svg" width="286" height="300" viewBox="0 0 286 300"><path d="M38.3 101.63c5.41-.92 13.28 1.5 6.38 3.45s-10.8 2.42-9.35 0a12 12 0 013-3.45"/><path d="M234 229.38c1.19-5.11 4.51-10.21 4.13-16.08 2-7.79 5.51-17.13 3.93-23.36-13-16.68-11-36.94-7.09-55.25 2.77 3.47 3.93 8.51 4.32 13.2 2.73 20.23.77 42.85 18.46 56.06 5.13-1.18 9.83 2 15 2.74-1.58-14.39-20.86-15.95-21.24-31.9-5.51-22.62.77-50.28-15.7-70.89-10.21-4.24-25.56-.77-36.58-.77-23.2.77-52.3 7.79-75.9-.73-13-10.53-35.8-2.36-51.14-9.8-14.93-2.74-2.36-16.68-13.38-22.93-7.06 1.94-3.12 8.93-8.25 12.41-9.83 5.1-23.2 3.19-31.45-3.48l-.39-.77c-3.9 2.33-2.74 7.79-3.13 10.47 1.55 7 15.31 5.87 5.87 14.1C17 107 10 111.11 3.88 114.81c-3.19 3.73.09 5.23.48 7.59.48 5.71 2.32 9 5 10.79 10.41 1.72 25.36-3.39 35.22 3.41 7.87 2 14.57 10.53 16.92 17.52 7.09 12.82 9.06 29.95 25.56 36.56 0 12.86-.39 27.69-13.37 33.47-2 2.36-2.65 5.36-5 6.18l20.72-.33c7.48-7.37 2.39-18.25 9.06-26.87 3.54.39 5.12 5.11 6.28 7.79 4.25 7.08-4.7 12.08-4.7 19.08l16.11-.2c0-5 5.13-10.65 1.94-17.32-1.94-7.78-7-16.19-4.64-23.94 12.18-3.92 23.52-2.54 36.12-2.09l2.74 3.47c6.68-5.87 14.54-8.55 22.4-11.29 3.16 5.07.42 12.09 2.39 17.52-2.77 10.11-9.06 21.82-19.27 27.66 0 0-1.1 3.89-2.1 6.31l20.85-.32-.26-2.48c6.26-15.22 24-17.14 24.76-35 .77-3.86 5.51-3.09 7.86-2.36 3.55 3.48 9.83 1.95 11.41 7.05a31.63 31.63 0 01-7.86 31.46l-1.87.93H234z" fill="none" stroke="#000" stroke-linecap="round" stroke-width="2"/><path d="M64.08 85.15a10.26 10.26 0 01-5.41 7.31M3.34 120.19a4.54 4.54 0 004.41 2.73l4.94-2M99 203.26l-8.16-28.76m82.24 5s12.94-6.08 17.06-4c4.93 2.94 5.41 1.95 9.34 8.3s5.59 5.71 5.59 5.71m-144.23-89C70.67 99 76.09 94.6 76.09 94.6M114 188.67a144.72 144.72 0 001-16.08m121-36l-3.93-17.51" fill="none" stroke="#000" stroke-linecap="round" stroke-width="2"/></svg>