<svg xmlns="http://www.w3.org/2000/svg" width="120" height="300" viewBox="0 0 120 300"><title>flag-georgia-icon-militia</title><path d="M67.47,61.43s1.85-2,2.45-.55.73,2.75.22,3.31-.46.9-1.18,1.83-.41,1.47-1.11,1.91-1,.25-1.8.21l-.31,2.31-.5,1.93.29,1.85,1.32,3-1-2.21,1.41,2.41C68.31,80.2,78.44,83,82.12,84.66c7.64,3.42,6.44,19.67,7.25,21.28s4,23.12,4,26.74-4,23.13-4.43,27.15c-.2,2-.7,6.8-1.2,11.66-.1,1-1.47-.3-1.91.56-.58,1.15-.49,4.44-.36,5.53-.24,2.38-.91,4.22-1,5.43A5.16,5.16,0,0,1,80,187.84S79.84,203,79,206.59,77.69,210.9,78.9,221s-1.61,22.52-1.61,22.52-4.16,18.33-5,21.14.53,5.4.93,7.41a33.42,33.42,0,0,1,.41,5.23H38.31c-.9,0,.62-3.18,1.81-5.43a6.67,6.67,0,0,1,4.62-3c2.41-.4,2.61-3,4-6.23s.81-10-.4-14.28a101.44,101.44,0,0,1-2.81-18.1c0-3.61-2-11.86-4-17.49s-3-17.9-3-19.1a7,7,0,0,0-.65-2.27c-.55-1.38-.64-3.41-1.77-6.58-2-5.63-1.83-12.47-2-18.3s-2.41-12.26-3.43-13.69L30,150.25l-6.21,1.94-6,4.69c-1.32,1.19-2.76,1.39-5.19,1.61-4.69.42-9.38-5.09-10.48-13.05-1.22-8.8.52-12.57,10.31-12.54h4.35l3.78.12h1.83s1.1,2.14-.61,2.9a17,17,0,0,1-2.19.88l2.18,2.51a52.25,52.25,0,0,1,4.83-2.82L28,133.33a14.83,14.83,0,0,0-.15-4.67c-.41-2.21-1.19-14.93-1.19-18s.09-6.58.4-10.06c.28-3.17.23-10.23,1.77-13.23,1.91-3.72,12.24-5.33,12.24-5.33s4.47-.48,5.07-1.69C46.36,80,47.48,78,48,77.27c-2.88-1-3.82-4.56-4.24-5.42a47.5,47.5,0,0,1-1.31-5.43c-.14-.59-1-4.33-1.55-5.8a11.49,11.49,0,0,1-.07-4.18l-3.28-.36-3.95-.3a22.27,22.27,0,0,1-2.78-.54c-.57-.22-2.49-.61-2.49-.61s-3.14-2.69,0-4.85,6.79-4.17,7.38-4.53a1.61,1.61,0,0,0,.74-.77c-.72-1.1-1.37-3.54-2.26-6.79s7.62-4.6,7.62-4.6c2.46-.21,10.71.89,9.86.7,1.73.38,2.86.32,6.15.3s7.59,1.17,10,1.68a10.23,10.23,0,0,1,6.07,5C75,43.09,80.05,46,81.52,47.42c2.24,2.17,4.89,6.72,5.91,8.38,1.78,2.9-.14,2.21-.74,2.56-2.79,1.66-18.33-1.84-17-1.68,1.11.14.85-.25-.35-.9l-.92,4.51Z" fill="none" stroke="#000" stroke-linecap="round" stroke-linejoin="round" stroke-width="2" fill-rule="evenodd"/><path d="M51,104.93c.49-8.24,1.17-15,2.41-20.31a3.91,3.91,0,0,0,0-2.51c-2.14,0-3.58-.22-5.79-2.78" fill="none" stroke="#000" stroke-linecap="round" stroke-linejoin="round" stroke-width="2"/><path d="M37.87,191.34s1.06-2,.65-5.78a99.61,99.61,0,0,1,1-19.9c.95-5.14,9-21.12,9.82-25.34.7-3.64.81-15.88.81-16.89,0-.33-.2.21,0-4.33" fill="none" stroke="#000" stroke-linecap="round" stroke-linejoin="round" stroke-width="2"/><path d="M56.79,127.65c.2,1.61-.21,11.91,4,18.5,1.81,2.82,9.72,18.15,11.47,20.11,1,1.17,3.72,1.63,4.39,3.22,3.5,8.26-.19,16.39,4.74,17.57h0" fill="none" stroke="#000" stroke-linecap="round" stroke-linejoin="round" stroke-width="2"/><path d="M67.25,77.38c-.84,1.17-5.92,4.27-9.23,4.27-1.21,0-.49,2.47-1,5.38-.56,3.08-.6,20.52-.2,22.73.17.9-.15,1.35-.2,4.22" fill="none" stroke="#000" stroke-linecap="round" stroke-linejoin="round" stroke-width="2"/><path d="M73,98.68l2,8.06,2.82,14.88,1,9,.2,8-.2,6.84-.8,4.83-1,4.42-1.81,14.48c5.83-1.41,9.67-.05,12.47,2.21" fill="none" stroke="#000" stroke-linecap="round" stroke-linejoin="round" stroke-width="2"/><path d="M34.55,83.87l.39,1.38c-.55-3,9.18,40,42.36,60.1l1,.59" fill="none" stroke="#000" stroke-linecap="round" stroke-linejoin="round" stroke-width="2"/><path d="M41.06,82.1C44.55,93.17,55,120.85,78.81,135.29" fill="none" stroke="#000" stroke-linecap="round" stroke-linejoin="round" stroke-width="2"/><path d="M46.65,148c6.12,1.29,9.5,1.29,15-.19" fill="none" stroke="#000" stroke-linecap="round" stroke-linejoin="round" stroke-width="2"/><path d="M55.66,179.31c1.2,8.35,2.69,18.33,3.14,19.93.81,2.81,1.61,16.89,1.61,16.89l.4,13.67.41,17.29V267.2c-3.31,2.31-5,5.1-5.17,9.68" fill="none" stroke="#000" stroke-linecap="round" stroke-linejoin="round" stroke-width="2"/><path d="M22.58,136.28c-2.06,3.09-12.19-2.77-12.7,6-.4,6.72.9,14.32,7.4,15.15l4.78-3.16L23.34,153" fill="none" stroke="#000" stroke-linecap="round" stroke-linejoin="round" stroke-width="2"/><path d="M16.55,132.65C13.76,89,15.06,50.76,22.3,21.8,2.8,50.1,10.82,132.68,10.82,132.68Z" fill="none" stroke="#000" stroke-linecap="round" stroke-linejoin="round" stroke-width="2" fill-rule="evenodd"/><path d="M28,132.68l-1.41,3.82c-3.64,2-4.77,2.1-4.73,2.1" fill="none" stroke="#000" stroke-linecap="round" stroke-linejoin="round" stroke-width="2"/><path d="M21.41,137.65s3.58,9.5.65,16.59" fill="none" stroke="#000" stroke-linecap="round" stroke-linejoin="round" stroke-width="2"/><path d="M40.76,53.25v3.68" fill="none" stroke="#000" stroke-linecap="round" stroke-linejoin="round" stroke-width="2"/><path d="M40.79,56.44a11.49,11.49,0,0,0,.07,4.18c.51,1.48,1.41,5.21,1.56,5.8a47.26,47.26,0,0,0,1.3,5.43c.44.9,1.44,4.68,4.59,5.53A11.38,11.38,0,0,0,57,76.28" fill="none" stroke="#000" stroke-linecap="round" stroke-linejoin="round" stroke-width="2"/><path d="M47.4,70s1.53-.56,2.06-.34a10.84,10.84,0,0,0,2,.4A9.11,9.11,0,0,1,54,69.91a6.52,6.52,0,0,0,1.9.15" fill="none" stroke="#000" stroke-linecap="round" stroke-linejoin="round" stroke-width="2"/><path d="M48.75,72s3.66.72,5.2.07" fill="none" stroke="#000" stroke-linecap="round" stroke-linejoin="round" stroke-width="2"/><path d="M53.83,56.29a6.75,6.75,0,0,1,6.19.78" fill="none" stroke="#000" stroke-linecap="round" stroke-linejoin="round" stroke-width="2"/><path d="M49.62,56.09a6.54,6.54,0,0,1-.66,3.5,28.5,28.5,0,0,0-.83,2.86,6.46,6.46,0,0,0-.6,2.24c0,.59,0,.54.91,1s1.53.07,2.22-.14a3.35,3.35,0,0,1,1.92-.22c.62.17,1.52-.31,1.5-.94a3,3,0,0,0-.63-1.92,15.6,15.6,0,0,0-1.3-.94" fill="none" stroke="#000" stroke-linecap="round" stroke-linejoin="round" stroke-width="2"/><path d="M43.05,56.28c.5-.07,3.67-1.85,6.31,0" fill="none" stroke="#000" stroke-linecap="round" stroke-linejoin="round" stroke-width="2"/><ellipse cx="46.21" cy="58.64" rx="0.54" ry="2.17" transform="translate(-13.23 103.81) rotate(-89)" stroke-width="2" stroke="#000" stroke-linecap="round" stroke-linejoin="round" fill="none"/><path d="M48,77.27l.35.11A11.38,11.38,0,0,0,57,76.28" fill="none" stroke="#000" stroke-linecap="round" stroke-linejoin="round" stroke-width="2"/><path d="M36.38,44.48a54.7,54.7,0,0,1,2.75,6.41c.47,1.16.18,3.28,2.1,2.34,10.91-5.37,34.39,3.92,29.34,3.51" fill="none" stroke="#000" stroke-linecap="round" stroke-linejoin="round" stroke-width="2"/><path d="M60.09,206.79a19.8,19.8,0,0,0,19-.2" fill="none" stroke="#000" stroke-linecap="round" stroke-linejoin="round" stroke-width="2"/><path d="M40.3,208a21.61,21.61,0,0,0,18.75-.56" fill="none" stroke="#000" stroke-linecap="round" stroke-linejoin="round" stroke-width="2"/><ellipse cx="56.72" cy="58.92" rx="0.57" ry="2.28" transform="translate(-7.81 109.17) rotate(-84)" stroke-width="2" stroke="#000" stroke-linecap="round" stroke-linejoin="round" fill="none"/><path d="M44.11,153.5c5.82,2.17,14.8,1.58,20.42-.2" fill="none" stroke="#000" stroke-linecap="round" stroke-linejoin="round" stroke-width="2"/></svg>