<svg xmlns="http://www.w3.org/2000/svg" width="600" height="412" viewBox="0 0 600 412"><title>flag-new-hampshire-dimensions</title><path d="M28.13,381.13H598.19V1.09H28.13Z" fill="#fff" stroke="#50d6cc" stroke-linecap="round" stroke-linejoin="round"/><path d="M231.49,190.43v4.71l.49,4.71.64,4.54,1,4.56,5,.64,6.67.66,17.23,1.13,20.47,1,21.63.63,20.79.67,17.87.31h13l6-.16,1.46-.15,1.46.15,2.6.49,2.11.16,2.11-.16,2.11-.33,2.27-.64,2.93-.49,4.39-.65,8.28-.65,1.31-5.19.81-5.2.48-5.38.16-5.34H231.49Z" fill="none" stroke="#50d6cc" stroke-width="0.3"/><path d="M357.78,219.19l-.16,1.63v1.78l.49,1.63,1.14,1.62L276,218.06l-3.74-.32-2.44-6.34L268.39,208l-1.79-3.41-1.94-2.94-1.14-1.29-1.14-1h5.86l.8-.49.5-.81v-1l-.33-1-1-1-1.63-1-1.95-.64-2.11-.49v-.65l-7-3.24-3.9-2.12-3.24-2.44,5.18,2.12,9,2.92,10.88,3.1,11.39,2.76,1.78.32,2.11.48,19.67,2.94,19,2.42L330,202h1.3l6.84.16-.17-3.56h-.81v-1.31h20l.15-1.3,5.37,1,5.53.65,1.62.14,2.93.18-1.63.81-.49.65-.49.82-.48,1.78-.16,1.95v1.79l.32,1.79-1.78.14-1.63.34-1,2.91-1.3,2.77V214h-1.79l-1.3.33-1.14.49-1,.8-1.14,3.58Z" fill="#fff" stroke="#50d6cc" stroke-width="0.3"/><path d="M313.08,79.4h-5.69l-5.68.5-5.53.65-5.51,1-5.37,1.3-5.2,1.46-5.2,1.78-5,2-5,2.29-4.71,2.43-4.72,2.59-4.55,2.94-4.39,3.08-8.12,6.83-3.9,3.74-3.74,3.74-3.41,4-3.41,4.24-3.09,4.38-2.93,4.4-2.59,4.69-2.44,4.71-2.27,5-2,5-1.79,5.05-1.45,5.34-1.3,5.38-1,5.52-.66,5.53-.48,5.53-.16,5.84.16,5.67.48,5.54.66,5.69,1,5.35,1.3,5.38,1.45,5.35,1.79,5,2,5,2.27,5,2.44,4.72,2.59,4.72,2.93,4.37,3.09,4.38,3.41,4.24,3.41,4,3.74,3.74,3.9,3.75L242.4,276l4.06,3.24,4.39,3.09,4.54,2.93,4.72,2.6,4.72,2.42,5,2.29,5,1.93,5.2,1.8,5.19,1.47,5.37,1.29,5.52,1,5.53.65,5.68.48,5.69.17,5.85-.17,5.7-.48,5.52-.65,5.52-1L341,297.8l5.2-1.47,5.21-1.8,5-1.93,5-2.29,4.72-2.42,4.71-2.6,4.54-2.93,4.4-3.09,4.06-3.24,4.07-3.58,3.88-3.75,3.75-3.74,3.41-4,3.41-4.24,3.09-4.38,2.92-4.37,2.61-4.72,2.44-4.72,2.26-5,2-5,1.78-5L421,218l1.31-5.38,1-5.35.64-5.69.49-5.54.16-5.67-.16-5.84-.49-5.53-.64-5.53-1-5.52L421,162.59l-1.46-5.34-1.78-5.05-2-5-2.26-5-2.44-4.71-2.61-4.69-2.92-4.4-3.09-4.38L399,119.7l-3.41-4-3.75-3.74L388,108.17l-4.07-3.42-4.06-3.41-4.4-3.08-4.54-2.94-4.71-2.59L361.5,90.3l-5-2.29-5-2-5.21-1.78L341,82.82l-5.36-1.3-5.52-1-5.52-.65-5.7-.5Z" fill="none" stroke="#50d6cc" stroke-width="0.3"/><path d="M313.08,87.07l-5.2.14-5.35.34-5.21.63-5,1-5,1.13-4.88,1.29-4.87,1.63-4.71,2-4.55,2-4.55,2.29L259.47,102l-4.23,2.62-4.06,2.91-3.9,3.1-3.91,3.25-3.57,3.4-3.41,3.58-3.24,3.73-3.1,3.91-2.92,4.07-2.6,4.21-2.6,4.23-2.27,4.55-2,4.55-1.94,4.71-1.62,4.71-1.3,5.05-1.31,4.86-.8,5.2-.66,5.21-.48,5.19-.17,5.37.17,5.2.48,5.36.66,5,.8,5.2,1.31,4.86,1.3,5,1.62,4.71,1.94,4.71,2,4.55,2.27,4.54,2.6,4.24,2.6,4.21,2.92,4.07,3.1,3.89,3.24,3.76,3.41,3.56,3.57,3.41,3.91,3.25,3.9,3.1,4.06,2.91,4.23,2.6,4.22,2.61,4.55,2.27,4.55,1.95,4.71,1.95,4.87,1.63,4.88,1.29,5,1.14,5,1,5.21.65,5.35.5h10.57l5.37-.5,5.19-.65,5-1,5-1.14L344,289l4.87-1.63,4.72-1.95,4.55-1.95,4.55-2.27,4.22-2.61,4.22-2.6,4.06-2.91,3.91-3.1,3.73-3.25,3.73-3.41,3.42-3.56,3.24-3.76,3.09-3.89,2.93-4.07,2.6-4.21,2.43-4.24,2.45-4.54,1.94-4.55,1.95-4.71,1.63-4.71,1.3-5,1.3-4.86.81-5.2.65-5,.49-5.36V185l-.49-5.19-.65-5.21-.81-5.2-1.3-4.86-1.3-5.05-1.63-4.71-1.95-4.71-1.94-4.55L404.23,141l-2.43-4.23-2.6-4.21-2.93-4.07-3.09-3.91-3.24-3.73-3.42-3.58-3.73-3.4-3.73-3.25-3.91-3.1-4.06-2.91L366.87,102l-4.22-2.57-4.55-2.29-4.55-2-4.72-2L344,91.59l-4.88-1.29-5-1.13-5-1-5.19-.63-5.37-.34-5.37-.14" fill="none" stroke="#50d6cc" stroke-width="0.3"/><path d="M313.08,105.08l-8.61.5-8.61,1.13-8.13,2.12-7.8,2.92-7.63,3.57-7,4.24-6.51,5L252.64,130l-2.77,3.1-2.76,3.08-4.88,6.5-4.38,7-3.58,7.48-2.76,8-2.11,8.1-.81,4.24-.5,4.23-.32,4.38-.16,4.4.48,8.61.5,4.21.81,4.23,2.11,8.3,2.76,7.79,3.58,7.48,4.38,7,4.88,6.51,5.53,6.16,2.92,2.77L258.8,256l3.1,2.61,3.41,2.44,7,4.22,3.73,2,3.89,1.62,3.75,1.46,4.06,1.44,4.06,1.15,4.07,1,4.22.65,4.39.66,4.21.33h4.39l8.78-.33,8.62-1.31,8.12-2.12,7.81-2.92,7.47-3.56,7.15-4.24,6.49-5,6.18-5.36,5.53-6.18,4.87-6.49,4.23-7,1.95-3.73,1.78-3.73,2.77-7.81,1.13-4.05,1-4.23.81-4.23.48-4.23.33-4.21.16-4.38-.49-8.78-.48-4.23-.81-4.24L394.81,165l-2.76-8-3.73-7.48-4.23-7-4.87-6.5L373.69,130l-2.93-2.77-3.25-2.59-3.08-2.6L361,119.54l-3.41-2.1-3.74-2.12-3.57-1.79-3.9-1.78-3.74-1.47-4.07-1.45-4-1.15-4.06-1-4.23-.64-4.39-.49-4.23-.5h-4.55" fill="none" stroke="#50d6cc" stroke-width="0.3"/><path d="M269.2,239.84c6.83.82,16.09-1.8,22.1-2.76A192.6,192.6,0,0,1,312.92,235c3.41,0,3.09-.82,3.9-1.62a2.71,2.71,0,0,1,2.92-.33c1.46.66,3.74.49,7-.82,3.09-1.46,5.86-1.94,8.3-1s28.61,1,33.48.32a14.23,14.23,0,0,1,2.6-.15L236.52,218.87a82.21,82.21,0,0,0,12.84,22.27c5.69.65,13.66-2.1,19.83-1.3ZM233.61,209a32.63,32.63,0,0,0,1.46,5.36l150.5,14a86.27,86.27,0,0,0,6.5-16.74" fill="none" stroke="#50d6cc" stroke-width="0.3"/><path d="M318.77,63l8.94-6.5-11.34.08L313,46.5l-3.13,10H298.78L307.72,63l-3.58,10.73,9.11-6.67,9.09,6.67L318.77,63" fill="none" stroke="#50d6cc" stroke-linecap="round" stroke-linejoin="round" stroke-width="0.75"/><path d="M237.67,88.84,246.44,82l-11.21.48-3.74-10.08-3.08,10.25-10.9.48,8.81,6.25-3,10.65,8.94-7,9.27,6.35-3.9-10.57" fill="none" stroke="#50d6cc" stroke-linecap="round" stroke-linejoin="round" stroke-width="0.75"/><path d="M188.77,164.17l11.35-.9-9.59-5.84L193,147l-8.12,7-9.6-5.7,4.39,10.1L171,165.71l11.21-1,4.1,10.48,2.43-11.06" fill="none" stroke="#50d6cc" stroke-linecap="round" stroke-linejoin="round" stroke-width="0.75"/><path d="M199.17,246.43l8.27-7.74-11.06,1.47-4.55-9.6-2.11,10.58-10.89,1.3,9.59,5.35-2.27,11,8.28-7.79,9.46,5.6-4.72-10.22" fill="none" stroke="#50d6cc" stroke-linecap="round" stroke-linejoin="round" stroke-width="0.75"/><path d="M256.36,304.19l1.95-11.06L250.05,301l-9.42-5,4.84,9.68-8,7.63,10.9-1.46,4.71,10.22,2.1-11.2,11-1.45-9.91-5.2" fill="none" stroke="#50d6cc" stroke-linecap="round" stroke-linejoin="round" stroke-width="0.75"/><path d="M288.7,66.24l-1.3-.65L286.11,65l-2.77-.32-2.6.17-2.11.48-2.6.65-2.12.15,3.26-1.79,4.22-2.42,4.22-2.94,1.47-1.46,1.14-1.3.81.16,1-.33.66-.48.48-.65.17-1-.17-1-.48-.82-.82-.48-1-.32-.8.18-.81.48-.65.81-.16,1,.16.81.33.82.64.65-.16.15-2.59,2.28-3.09,2.12-3.26,1.77-3.41,1.79-7,2.93-7,2.12,1.3-.82,1.33-.89L268.58,65l3.71-2.18,1.62-1.47,1.47-1.63,1.46-1.63,1-1.95,1-2.1.49-2.28-2.11.31-1.79.51-2,.79-1.62,1-3.24,2.27-2.76,2.77-2.44,2.92-2,2.92-1.47,2.61-1,1.93-.31.34-.82-.34-.32-.62.15-1,.32-1.14,1-2.77.81-2.91h.82l.81-.33.65-.65.32-.82v-.8l-.32-.82-.65-.64-.81-.33h-1l-.82.33-.47.64-.33.82-.16.8.33.66.32.47.65.48-.81,2.63-1.14,2.9-1.47,3.1-1.46,2.43-7,4.22-.16-.63v-1l.64-2.12.66-1.13,1.13-1,2.28-1.8.82-1.13.64-1.78.32-2.28V60.4l-.48.81-1,.66-2.43,1.6-2.6,2L246,66.58,245,68l-.33,1,.17,1.31.48,1.3.81,1.61.32,1v1l-.16,2.12-2.1,1.62-.66.49-.16.48.16.32.17.17,1,.16,1-.48,2.6-1.63,2.12-.32h2.43l1.14.32,1.14.48,1,.65.64,1-.48.82-.15.79.15,1,.32.8.82.65,1,.33,1-.16,1-.49.65-.81.31-1-.15-1-.48-.82-.66-.63-.81-.34h-1l-.81.34-1.46-1.47-1.63-1.13L252.46,77l-1.78-.17,3.24-1.94,1.78-.34,1.64.17,1.78.33,1.79.8,2.44,1.47,3.09,1.29,1.63.49,1.62.17h1.79l1.62-.49,2.77-1.15,1-.31H278l-.81-1.14-1.47-1.31-2.91-2.59-1.95-.81-2.12-.34-2.11.18-1.78.64-2.28,1-2.28.67-2.11.31-1.95-.49,2.92-1.46,2.28-1.13L269,68.2l2,.14,2.11.82,1.94,1,1.79,1.29,2.76,1.47,2.76.82,2.93.33,2.93-.33,2.6-.82,2.42-1.13,2.12-1.63,1.47-1.95-2,.16L292.75,68l-2.11-.65-1.95-1.14" fill="none" stroke="#50d6cc" stroke-linecap="round" stroke-linejoin="round" stroke-width="0.75"/><path d="M218.49,106.38l-1.46.17-1.47.34-2.28,1.46L211.34,110l-1.46,1.79-1.62,2.11-1.63,1.3,1.46-3.25L210,107.2l1.46-4.71.32-2.12V98.75l.82-.47.48-.82.33-.82v-.81l-.49-1-.65-.65-1-.31-1,.14-.82.33-.65.82-.33.8v1l.33.81.65.63.82.33,1,.15v.18l-.8,3.41-1.14,3.58-1.47,3.56-1.62,3.43-3.74,6.64-4.06,5.87,1.13-3.25,2.28-4.88,1.46-3.72.33-2.12.32-2.28V107.2l-.32-2.26-.65-2.12-1-2.12-1.3,1.47-1.3,1.64-1,1.6-.82,1.79-1.14,3.89-.48,3.92v3.73l.16,3.41.49,2.94.48,2.26-.16.48-.81.17-.65-.34-.49-.79-.49-1.15-.8-2.77-1.14-2.76.64-.49.32-.82.18-.79-.18-.81-.64-.66-.65-.48-1-.14-.81.31-.65.48-.48.82-.17.8.33.82.48.64.49.49.65.16H192l1,2.43.82,3.1.8,3.25.16,2.91L192,139.85l-.65-.47-.47-.82-.82-1.95-.16-1.47.32-1.44.66-2.77v-1.3l-.66-1.8-1.14-2.09-1.94-2.62v1l-.33,1.13L186,128l-1,3.25-.16,1.63.16,1.62.32,1,.82,1,1.29.82,1.62.65.82.48.65.82L191.7,141l-.81,2.6v.81l.16.49.16.16h.32l.81-.49.65-1,1-2.92,1.3-1.46,2.11-1.47,1.14-.48,1.13-.33h1.14l1.14.33v.82l.47.81.66.63.81.49H205l.8-.32.82-.8.32-.81.17-1.15-.49-.8-.64-.82-1-.48h-.82l-1,.31-.66.49-.48.81-2-.31-1.95.15-1.79.65-1.46,1,1.3-3.59,1.14-1.13,1.46-1,1.63-.79,1.94-.51,2.77-.31,3.24-.82,1.62-.64,1.47-1,1.3-1,1-1.44,1.46-2.46.65-.79.8-.82-1.3-.33-1.94-.32-3.9-.17-1.95.49-2,1.15L204,123.94l-1,1.46-1.13,2.26-1.46,2L199,130.91l-1.78,1,1.3-2.93,1.13-2.27,4.39-6.83,1.78-1,1.83-.72,2.55-.41,2-.14,3.09-.5,2.76-1,2.44-1.62,2.11-2,1.79-2.26,1.14-2.44.64-2.43v-2.61l-1.46,1.46-1.78,1-2.12.82-2.27.33" fill="none" stroke="#50d6cc" stroke-linecap="round" stroke-linejoin="round" stroke-width="0.75"/><path d="M187,181.48l-1.14,1-.8,1.15-1.14,2.59-.49,2.43v4.89l-.48,2.11-.81-3.58-1.3-4.71-1.79-4.7-1-2-1-1.46.33-.8v-.82l-.33-.81-.49-.65-1-.49h-1l-.81.18-.81.64-.49.82v1l.33,1,.64.66.66.49,1,.15.8-.15.81-.65V180l1.47,3.25,1.3,3.41,1,3.59.8,3.73,1,7.64.32,7.14-.77-1.36-.49-1.81-.84-5.26-1.14-3.9-1-2-1.13-1.94-1.31-1.8-1.62-1.44-1.79-1.48-1.95-1-.33,2v1.93l.65,3.9,1.46,3.75,2,3.41,2.26,3.08,2.28,2.6,2.11,2.11,1.79,1.47v.48l-.49.65-.63.17-1-.34-1-.64-2.27-1.79-1.3-.82-1.31-.64.17-.82-.17-1-.47-.65-.66-.49-.8-.33-.82.17-.81.48-.49.65-.33.82.17,1,.49.65.65.65.64.17h.81l.65-.33.49-.49,2.27,1.47,2.6,1.94,2.61,2.12,1.94,2.12,2.27,7.79h-.65l-1-.31-1.79-1.15-1-1-.66-1.3-1.14-2.6-1-1.15-1.45-1-2.12-1.15-3.09-.63.48.63.49,1.15,1,2.76,1.13,3.08.82,1.47,1.14,1.13,1,.65,1.14.17h1.46l1.78-.66h1l1,.33,1.95.64,1,2.62.49.63.33.33h.32l.32-.33.34-.82-.18-1.13-1-2.74.32-2.12.64-2.43.5-1.15.81-.82,1-.8,1-.33.65.65.82.31,1,.17.81-.17.81-.63.66-.81.16-1-.33-1-.49-1-1-.49-1-.15-1,.32-.8.48-.48.65-.17,1v.81l-1.79,1-1.46,1.29-1,1.64-.65,1.61-1-3.58.15-1.78.64-1.63.82-1.45,1.13-1.64,2.12-1.95,1.95-2.59,1-1.46.64-1.62.33-1.63v-1.79l-.33-2.92-.16-1,.33-1.15-1.31.66-1.78,1-3.09,2.12-1.3,1.61-.81,1.95-.49,2.11.17,1.95.48,2.45v2.26l-.32,2.12-1,1.79L184.19,209l-.65-8,.81-2,1.3-1.78,1.47-1.62,1.62-1.47,2.12-2.11,1.62-2.6,1-2.77.5-2.76v-2.75l-.66-2.76-1-2.28-1.46-2.1-.33,1.93-.81,2-1.14,2L187,181.48" fill="none" stroke="#50d6cc" stroke-linecap="round" stroke-linejoin="round" stroke-width="0.75"/><path d="M207.92,260.31l-.32,1.47.16,1.29.49,2.77,1.13,2.28,1.3,1.78,1.62,2.28.81,1.79-2.75-2.29-3.9-3.08-4.23-2.76-1.78-.82-1.79-.47-.16-1-.5-.67-.8-.48-.82-.16-1,.16-.81.48-.64.82-.16,1,.16,1,.47.63.82.65,1,.17L197,267l.8-.32.5-.64.32-1,.32.17,3.09,1.64,3.09,2.09,2.92,2.29L211,273.8l5.36,5.37,4.56,5.53-1.59-.73L218,282.75l-3.89-3.58-3.41-2.43-1.79-1-2.12-.82-2.11-.48-2.11-.32h-2.28l-2.28.32,1,1.8,2.61,2.92,1.46,1.29,3.41,2.12,3.57,1.63,3.58,1L217,286l2.92.33,2.27.15.5.34v.81l-.5.49-1,.31H220.1l-2.92.17-3.08.32-.32-.82-.5-.63-.81-.34h-.81l-1,.34-.5.63-.32.82-.15.81.47,1,.5.49.81.31,1,.17.65-.33.49-.49.48-.48.16-.82,2.6-.14h3.25l3.41.14,2.77.51,6.49,4.71-.48.48-1,.32-2.11.31-1.47-.31-1.3-.65-2.43-1.3-1.3-.31h-2l-2.26.48-2.93,1.13.81.31,1,.49,2.43,1.79,2.93,1.64,1.46.63,1.63.34h1.14l1-.66,1.14-1,1.14-1.45.8-.48.82-.5,2.11-.48,2.28,1.3.65.33h.49l.32-.17.16-.31-.33-1-.81-.8-2.44-1.63-1.13-1.81-.82-2.26-.16-1.3v-1.13l.33-1.15.65-1,.81.16,1-.16.81-.49.48-.81.32-1v-1l-.48-.82-.81-.64-1-.33h-1l-1,.49-.64.81-.32,1,.15.82.33.81.65.65-1,1.78-.33,1.95v1.95l.66,1.63-3.09-2.28-.82-1.45-.47-1.63-.32-1.79.16-1.79.31-2.94V276.4l-.15-1.78L227.1,273l-.82-1.63-1-1.3L223.19,268l-.64-.82-.34-1-.8,1.15-.82,1.79-1.13,3.73-.16,2,.65,2.11.8,1.94,1.3,1.48,1.79,1.77,1.46,1.79,1,2,.32,1.77-2.43-2-1.8-1.78-5.35-6-.66-1.95v-2.26l.17-2.29.49-2.09.48-2.94-.32-3.08-.82-2.76-1.29-2.45-1.8-2.26L211.16,254l-2.11-1.3-2.44-.67,1,1.81.49,1.95.16,2.26-.33,2.28" fill="none" stroke="#50d6cc" stroke-linecap="round" stroke-linejoin="round" stroke-width="0.75"/><path d="M388.66,89.17,380,82.35l11.06.32,3.73-9.91L397.92,83l11.06.49-9.1,6L403,100.37l-8.93-7-9.26,6.18,3.89-10.4" fill="none" stroke="#50d6cc" stroke-linecap="round" stroke-linejoin="round" stroke-width="0.75"/><path d="M437.26,164.42l-11.05-1,9.59-5.68-2.44-10.4,8.29,7,9.43-5.7-4.22,10.08,8.6,7.31-11.37-1-4.23,10.24-2.6-10.9" fill="none" stroke="#50d6cc" stroke-linecap="round" stroke-linejoin="round" stroke-width="0.75"/><path d="M427,246.67,418.89,239l10.89,1.46,4.55-9.76,2.28,10.56,11.05,1.47-9.74,5.36,2.26,11.06-8.28-7.81-9.76,5.36L427,246.67" fill="none" stroke="#50d6cc" stroke-linecap="round" stroke-linejoin="round" stroke-width="0.75"/><path d="M370,304.36,368,293.47l8,7.82,9.58-5.06L381,306l7.59,7.63-10.88-1.47-4.51,10.09-2.11-11.05-11.06-1.48,9.92-5.36" fill="none" stroke="#50d6cc" stroke-linecap="round" stroke-linejoin="round" stroke-width="0.75"/><path d="M337.63,66.58l1.3-.82,1.3-.48L343,65l2.6.16,2.11.48,2.6.65h2.11l-3.24-1.61-4.23-2.45-4.06-2.91-1.62-1.47-1.14-1.3h-.82l-.81-.17-.82-.47L335.2,55l-.16-1,.16-.82.47-.82.82-.64,1-.15,1,.15.82.5.48.8.16,1v.8l-.48.81-.66.49.17.16,2.76,2.29,2.92,2.09,3.25,1.95,3.42,1.8,7.14,2.94,6.83,2.09-1.3-1-1.62-1-4.72-2.28L354,63l-1.62-1.3L351,60.08l-1.3-1.79-1.14-1.79-.82-2.12-.48-2.28,1.95.33,1.94.49,1.8.65,1.79,1L357.94,57l2.76,2.74L363,62.66l2,2.76L366.38,68l1,2.11.49.15.81-.32.16-.64v-.82l-.32-1.13-1.14-2.75-.81-2.93h-.81l-.81-.32-.49-.67-.32-.8v-.82l.32-.8.49-.66,1-.31h.82l.8.31.66.66.32.8v.66l-.16.82-.49.48-.49.48.66,2.6L369.3,67l1.3,3.1,1.63,2.43,6.83,4.23.16-.81v-.8l-.66-2.14-.64-1.11-1.14-1-2.11-1.78L373.86,68l-.81-1.79-.32-2.42V60.71l.64.66.81.81,2.43,1.62,2.77,2,1.14,1.15.82,1.44.32,1v1.29l-.49,1.3-1,1.64-.33.79V75.5l.33,2,2.11,1.62.48.64.17.49v.33l-.33.15-1,.17-1-.48-2.44-1.64-2.11-.31H373.7l-1.29.31-1.14.49-1,.66-.65,1,.49.81.16.8v1l-.49.81-.81.65-1,.15h-1l-1-.48-.65-.82-.16-1v-1l.49-1,.81-.48.81-.32h.82l1,.32,1.3-1.47,1.62-1.14,1.8-.64h1.79L372.41,75l-1.63-.16L369,75l-1.78.33-1.63.8L363,77.6l-2.93,1.3-1.78.48-1.63.17h-1.78l-1.63-.48-2.6-1.15-1-.32h-1.14l.81-1.13L350.79,75l2.93-2.43,1.78-.81,2.12-.32,2.27.15,1.63.64,2.28,1,2.26.65,2.12.15,1.95-.31-2.93-1.62-2.26-1-7.48-2.59-2.12.14-2.11.82-2,1-1.78,1.15-2.6,1.61L344,74l-2.93.16L338.29,74l-2.77-.82-2.44-1.28-1.95-1.48-1.62-1.93,2.11.14,2-.31,2.1-.65,2-1.13" fill="none" stroke="#50d6cc" stroke-linecap="round" stroke-linejoin="round" stroke-width="0.75"/><path d="M407.84,106.71l1.63.18,1.3.31,2.43,1.32,1.95,1.78,1.3,1.78,1.63,2.11,1.62,1.3-1.46-3.41-1.79-4.55-1.62-4.71-.33-2.12V98.92l-.8-.48-.5-.65-.32-.81.16-.82.33-1,.81-.65.81-.33h1l1,.49.64.64.33,1-.16,1-.33.82-.64.64-.82.33h-.81v.33l.81,3.41,1,3.56,1.46,3.43,1.62,3.56,3.74,6.5,4.23,6-1.14-3.25-2.44-4.87-1.3-3.91-.48-2.1-.32-2.11v-2.12l.32-2.28.64-2.12,1-2.09,1.46,1.47,1.13,1.61,1,1.63.81,1.78,1.14,3.9.49,3.89.16,3.75-.32,3.4-.33,2.93-.65,2.26.32.51.82.15.64-.32.48-.82.33-1.13.81-2.77,1.14-2.76-.65-.65-.33-.64-.15-.82.31-.8.5-.82.8-.31.82-.17.81.17.82.63.32.66.16,1-.16.82-.49.63-.65.33-.65.33-.63-.16-1,2.59-1,3.09-.65,3.26-.33,2.92,2.76,7.47.66-.33.48-.8.82-2.11.15-1.3-.15-1.47-.65-2.76V129.8l.48-1.8,1.13-2.11,2-2.44v1l.32,1.16,1,2.77.81,3.08.16,1.77v1.64l-.49,1-.81,1-1.13.65-1.8.8-.64.49-.82.8-1,1.81.64,2.59v1.13l-.33.34h-.31l-.82-.48-.48-1-1-2.93-1.46-1.45-1.95-1.46-1.13-.65-1.14-.17-1.3-.17-1.14.5v.8l-.32.82-.65.64-1,.35-1,.16-1-.51-.65-.64-.48-1v-1l.32-1,.65-.65,1-.48h1l.8.32.65.5.49.8,2.11-.32,2,.15,1.79.67,1.44,1-1.44-3.58L429,133.53l-1.47-1.15-1.62-.63-1.79-.49-2.92-.33-3.09-1-1.63-.66-1.46-.8-1.29-1-1.14-1.45-1.47-2.62-.48-.79-1-.65,1.3-.34,2.11-.31,3.75-.17,2.1.48,1.79,1.16,1.63,1.44,1.14,1.47,1.14,2.28,1.3,1.78,1.61,1.46,1.63,1-1.3-3.07L426.69,127l-4.38-6.83-1.79-1.14-2.11-.64-2.11-.34-2.12-.15-3.09-.48-2.76-1-2.44-1.61-2.11-2-1.63-2.27L401,108.2l-.64-2.6v-2.45l1.46,1.3,1.79,1.15,2.11.8,2.1.33" fill="none" stroke="#50d6cc" stroke-linecap="round" stroke-linejoin="round" stroke-width="0.75"/><path d="M439.54,181.65l1,1.13.81,1.13,1.13,2.45.48,2.6.16,2.27v2.61l.49,1.93.81-3.39,1.31-4.89,1.62-4.71,1-1.8,1-1.45-.32-.82v-.81l.32-.8.65-.82.81-.33,1-.14,1,.31.65.65.48.81v1l-.16,1-.64.66-.81.47-.81.15-1-.31-.65-.49-.17.18-1.46,3.24L446.84,187l-1,3.58-.81,3.73-1,7.65-.33,7.15.65-1.46.49-1.79,1.13-5.2,1.14-4.07.81-1.94,1.14-1.78,1.46-1.79,1.46-1.63,1.79-1.29,2.12-1.14.15,2.12v1.94l-.15,1.93-.5,2L454,198.7l-2,3.41-2.11,3.08-2.28,2.61-2.1,2.11-1.8,1.3-.15.65.48.65h.81l.82-.32,1-.65,2.44-1.63,1.3-1,1.3-.65-.32-.82.16-.81L452,206l.64-.48.82-.34,1,.19.64.32.66.79.16.82-.16.82-.33.82-.81.48-.66.31h-.64l-.66-.31L452,209l-2.27,1.46-2.6,2-2.44,2.1-2.11,2.11-2.28,7.81h.82l.8-.33,2-1.13.81-1,.82-1.28.95-2.61,1-1.13,1.47-1.13,2.28-1,3.08-.65-.65.65-.49,1.15-.81,2.74-1.29,3.11-.81,1.29-1.14,1.3-.82.49-1.29.33-1.46-.17-1.8-.47h-.81l-1.14.14-2,.82-1,2.6-.33.47-.48.34h-.33l-.33-.17-.32-.79.16-1.15,1-2.92-.16-2-.66-2.43-.64-1.13-.82-1-.81-.65-1.14-.49-.65.8-.81.34-.8.16-1-.33-.82-.48-.48-.82-.16-1.13.16-1,.66-.82.8-.48,1-.15,1,.15.82.64.48.66.34,1-.18.8,1.8,1,1.46,1.3,1,1.63.66,1.62,1.13-3.73-.32-1.63-.49-1.64-.82-1.61-1.3-1.47-2-1.94-2.11-2.61-.81-1.61-.65-1.47-.48-1.63V200l.48-2.93v-1l-.33-1.13,1.3.48,1.79,1,3.09,2.26,1.31,1.62,1,1.95.32,2.1-.16,1.81-.33,2.59-.16,2.27.49,2.11.65,1.79.81-3.25.48-2.43.66-8-.82-1.95-1.3-1.8-1.45-1.78-1.63-1.31-2.12-2.26-1.62-2.45-1-2.76-.47-2.75.15-2.92.49-2.61,1-2.43,1.46-2,.49,2,.64,2L437.9,180l1.62,1.64" fill="none" stroke="#50d6cc" stroke-linecap="round" stroke-linejoin="round" stroke-width="0.75"/><path d="M418.57,260.48l.16,1.46v1.47l-.64,2.74L417,268.44l-1.31,1.78L414,272.34l-.82,1.94L416,272l3.9-3.1,4.23-2.77,1.94-1,1.62-.48.33-.82.48-.65.66-.48,1-.17,1,.17.81.48.49.65.16,1-.16,1-.49.81-.81.66-.8.14-1-.14-.82-.5-.48-.64-.33-.82-.16.15-3.09,1.64-3.08,2.12-3.09,2.26L415.32,274l-5.2,5.51L405.4,285l2.93-1.95,4.07-3.58,3.24-2.43,1.94-1,2-.8,2.11-.64,2.27-.34H426l2.28.49-1,1.63L426.2,278l-1.46,1.45-1.47,1.3-3.4,2.11-3.57,1.47-3.58,1.14-3.41.81-2.93.32H404.1l-.32.49v.8l.48.48.82.34h4.22l2.92.32.33-.66.64-.64.82-.32h.82l.81.32.65.64.32.82V290l-.32.81-.65.63-.81.34H414l-.82-.17-.48-.48-.32-.65-.16-.64-2.76-.33h-3.25l-3.25.33-2.93.49-6.49,4.71.64.49.82.31,2.27.17,1.3-.17,1.3-.65,2.44-1.46,1.46-.32h1.78l2.44.65,2.92,1.13-1,.34-1,.48-2.44,1.64-2.76,1.77-1.63.66-1.46.31-1.12-.17-1.14-.48-1.14-1-1.14-1.47-.65-.48-1-.49-1.94-.5-2.44,1.32-.64.31H389l-.32-.16V297l.16-1,.82-.8,2.43-1.63,1.14-1.78.81-2.43.32-1.15V287l-.32-1.15-.65-1-1,.15-.81-.15-.82-.33-.65-.82-.32-1,.16-1,.49-.8.65-.81,1-.17h1.14l.82.48.65.82.33.81v1l-.33.82-.65.65.81,1.78.48,1.95-.15,1.95-.66,1.63,3.09-2.29.82-1.44.65-1.64.16-1.77v-1.95l-.33-2.77-.16-3.42.16-1.63.49-1.62.65-1.63,1-1.27,2.12-2.12.65-.82.48-1.13.66,1.3.82,1.78,1.29,3.73v2l-.49,2.1-1,1.95-1.13,1.46-1.95,1.62-1.51,2-1,2-.27,1.78,2.59-2.11,1.79-1.62,5.37-6,.48-2.12V274l-.16-2.29-.48-2.11-.33-3.08.17-2.93,1-2.75,1.31-2.61,1.61-2.1,2.12-1.81,2.27-1.29,2.28-.82-.82,1.8-.64,2.12v2.1l.32,2.28" fill="none" stroke="#50d6cc" stroke-linecap="round" stroke-linejoin="round" stroke-width="0.75"/><polygon points="364.75 319 364.1 318.36 363.13 318.19 362.32 318.19 361.5 318.52 360.86 319.18 359.24 318.69 357.13 318.52 352.08 318.69 347.21 319.18 343.63 319.65 345.26 318.52 347.69 317.56 349.81 316.57 351.92 315.27 353.86 313.32 354.68 312.03 355.16 310.73 356.14 308.61 357.44 306.82 358.9 305.36 360.53 304.38 358.25 303.75 355.65 303.58 352.89 304.07 350.29 305.03 347.85 306.5 345.74 308.45 343.95 310.87 342.65 313.65 341.99 315.76 341.03 317.7 339.73 319.49 338.27 320.95 330.63 323.4 328.19 323.89 324.94 324.36 326.24 322.9 328.03 321.77 330.31 320.95 332.74 320.47 334.36 319.98 336.32 318.67 337.78 317.22 338.74 315.42 339.72 311.69 339.88 309.74 340.05 308.28 339.07 308.93 338.1 309.27 335.17 310.07 333.72 310.73 332.25 311.55 330.95 312.83 329.97 314.12 328.35 317.06 327.22 319.65 326.25 321.29 325.11 322.74 323.82 323.89 322.35 324.69 318.45 325.02 319.27 324.36 319.75 323.23 320.88 320.31 321.37 317.22 321.53 314.63 322.33 314.45 323.15 313.81 323.64 313.16 323.81 312.19 323.64 311.21 323.15 310.25 322.33 309.76 321.37 309.43 320.4 309.6 319.59 310.07 318.93 310.89 318.61 311.86 318.77 312.83 319.26 313.65 319.9 314.29 320.72 314.63 320.87 315.93 320.55 317.37 319.26 320.47 317.46 323.23 316.65 324.2 315.68 324.69 314.22 325.02 313.55 325.3 312.11 324.87 310.65 324.36 309.83 323.89 308.87 322.9 307.09 320.31 305.79 317.06 305.61 315.59 305.61 314.29 306.43 313.98 307.09 313.32 307.56 312.51 307.72 311.71 307.39 310.73 306.92 309.91 306.11 309.27 304.97 309.12 304 309.43 303.18 310.07 302.69 310.89 302.54 311.86 302.69 312.85 303.18 313.5 304 314.14 304.81 314.29 304.97 316.89 305.61 320.14 306.58 322.9 307.24 324.05 307.88 324.69 304.14 324.36 302.69 323.55 301.39 322.42 300.09 321.12 299.28 319.34 298.14 316.74 296.35 313.81 295.38 312.51 294.08 311.36 292.78 310.4 291.15 309.76 288.23 309.1 287.41 308.61 286.45 307.96 286.45 309.43 286.76 311.38 287.58 315.11 288.55 316.9 290.17 318.52 291.96 319.65 293.76 320.14 296.19 320.64 298.31 321.6 300.09 322.59 301.56 324.03 298.31 323.55 295.87 323.07 288.06 320.64 286.6 319.34 285.47 317.37 284.49 315.44 283.69 313.5 282.55 310.56 280.76 308.28 278.48 306.33 276.05 304.72 273.44 303.75 270.85 303.25 268.25 303.41 265.8 304.07 267.43 305.03 269.05 306.5 270.36 308.28 271.17 310.4 271.82 311.86 272.47 312.99 274.42 314.94 276.68 316.41 278.64 317.22 281.07 318.19 282.87 319.49 278.99 318.93 274.25 318.36 269.38 318.19 267.26 318.36 265.48 318.83 264.83 318.19 264.02 317.88 263.2 317.88 262.39 318.19 261.58 318.83 261.25 319.65 261.09 320.64 261.42 321.44 262.07 322.25 262.88 322.74 263.86 322.74 264.83 322.42 265.47 321.94 265.96 321.12 266.13 320.14 265.8 319.34 266.13 319.34 269.7 319.18 273.27 319.34 277.01 319.65 280.91 320.31 288.22 322.25 295.05 324.52 291.63 324.36 286.27 323.4 282.2 323.07 280.1 323.21 277.99 323.55 275.88 324.2 273.76 325.02 271.81 326.15 270.18 327.61 271.97 328.58 273.76 329.4 275.71 329.87 277.66 330.22 281.57 330.22 285.46 329.73 289.2 328.74 292.44 327.61 295.05 326.31 297.16 325.33 297.64 325.33 298.13 326.15 297.97 326.8 297.32 327.45 296.34 328.27 293.75 329.73 292.61 330.53 291.47 331.51 290.82 331.01 290.01 330.86 289.04 331.01 288.39 331.51 287.9 332.16 287.58 332.98 287.74 333.94 288.23 334.6 288.87 335.24 289.69 335.41 290.66 335.24 291.31 334.76 291.79 334.27 292.12 333.61 292.12 332.81 291.95 332.16 294.07 330.53 296.83 328.92 299.75 327.28 302.36 326.31 304.63 326.31 306.74 326.8 308.68 327.28 308.96 327.32 307.08 328.58 304.96 329.56 301.55 330.86 299.43 331.68 298.95 331.99 299.12 332.31 300.73 333.46 302.68 333.94 304.63 333.94 306.1 333.78 306.11 333.78 308.22 331.99 310.82 330.05 313.41 328.58 313.51 328.54 315.68 329.87 318.12 331.66 320.23 333.61 323.65 333.61 325.6 333.12 327.39 332.16 327.39 331.83 327.07 331.35 324.79 330.53 321.38 329.23 319.42 328.27 318 327.5 319.6 327.11 321.7 326.63 323.97 326.63 326.73 327.61 329.66 329.07 332.43 330.86 334.54 332.5 334.37 333.12 334.37 333.78 334.54 334.6 335.02 335.07 335.83 335.56 336.64 335.73 337.46 335.41 338.27 334.91 338.59 334.09 338.46 333.37 338.59 332.48 338.11 331.83 337.29 331.35 336.48 331.18 335.67 331.35 335.03 331.83 333.89 330.84 332.59 330.05 330.15 328.41 329.18 327.76 328.53 327.11 328.36 326.3 328.85 325.67 329.34 325.5 331.29 326.63 334.05 327.93 337.29 329.07 340.87 330.05 344.77 330.53 348.83 330.53 350.78 330.22 352.57 329.73 354.52 328.92 356.31 327.93 354.52 326.48 352.57 325.33 350.62 324.36 348.51 323.89 346.23 323.55 344.12 323.4 340.06 323.72 334.86 324.69 331.29 324.85 338.12 322.42 345.58 320.64 349.32 319.97 353.06 319.49 356.8 319.49 360.38 319.65 360.54 319.65 360.38 320.47 360.54 321.44 360.86 322.08 361.5 322.74 362.48 323.07 363.46 322.9 364.26 322.59 364.92 321.77 365.24 320.95 365.24 319.97 364.75 319" fill="none" stroke="#50d6cc" stroke-linecap="round" stroke-linejoin="round" stroke-width="0.75"/><path d="M310.81,148.32l4.87-.15-1.94,29.73-1.14-.15-1.79-29.41" fill="none" stroke="#50d6cc" stroke-width="0.3"/><path d="M316,178.24l5-21.63m-15.61-.16,4.71,21.62" fill="none" stroke="#50d6cc" stroke-width="0.3"/><path d="M292.28,153.85l4.38-2.26,11.22,27.46-1.14.32-14.46-25.52" fill="none" stroke="#50d6cc" stroke-width="0.3"/><path d="M291,163.44l13.82,17.39" fill="none" stroke="#50d6cc" stroke-width="0.3"/><path d="M278.14,166.86l2.92-3.9,22.27,19.33-.65.82-24.54-16.25" fill="none" stroke="#50d6cc" stroke-width="0.3"/><path d="M271.31,184.58l.81-4.72,28.61,7.63-.32,1.13-29.1-4" fill="none" stroke="#50d6cc" stroke-width="0.3"/><path d="M281.39,176l20.16,9.43" fill="none" stroke="#50d6cc" stroke-width="0.3"/><path d="M334.05,153.85l-4.23-2.26-11.21,27.46,1,.32,14.46-25.52" fill="none" stroke="#50d6cc" stroke-width="0.3"/><path d="M335.35,163.44l-13.81,17.39" fill="none" stroke="#50d6cc" stroke-width="0.3"/><path d="M348.2,166.86l-2.77-3.9L323,182.29l.65.82,24.55-16.25" fill="none" stroke="#50d6cc" stroke-width="0.3"/><path d="M355,184.58l-.81-4.72-28.61,7.63.33,1.13,29.09-4" fill="none" stroke="#50d6cc" stroke-width="0.3"/><path d="M344.94,176l-20.15,9.43M291.3,169.79l1.63.14m-1.63,1.79,1.79.17m-1.79,3.92,2.45.14m-2.45,2.12,2.77.17m-2.6,5.67,3.41,1M257.34,188l31.52-21.14" fill="none" stroke="#50d6cc" stroke-width="0.3"/><path d="M360.23,226.66c1.61,0,2.59-.16,2.59-.31.16-1,.49-2.76.65-4.55l-5.85-.16a5.66,5.66,0,0,0,2.61,5Z" fill="#fff" stroke="#50d6cc" stroke-width="0.3"/><path d="M358.11,217.74a4.75,4.75,0,0,0-.33,1.45,12.46,12.46,0,0,0-.16,2.43l5.85.17a35.56,35.56,0,0,0,.65-4.22l-6,.15Z" fill="#fff" stroke="#50d6cc" stroke-width="0.3"/><path d="M364.12,214c-2.6,0-4.07.17-5.2,1.62a18.13,18.13,0,0,0-.65,1.8l-.16.33,6-.17A13.28,13.28,0,0,0,364.12,214Z" fill="#fff" stroke="#50d6cc" stroke-width="0.3"/><path d="M344.62,198.55v3.74l5.2.16v-3.73l-5.2-.17" fill="none" stroke="#50d6cc" stroke-width="0.3"/><path d="M338.28,198.55l.16,3.56,5.85.18v-3.74h-6" fill="none" stroke="#50d6cc" stroke-width="0.3"/><path d="M299.59,143.61v.17a2.31,2.31,0,0,1-1.95,2.26c1.95.66,3.57,0,3.57-1a2.67,2.67,0,0,1,2.78-1.78C302.19,143.29,302,142.64,299.59,143.61Z" fill="#fff" stroke="#50d6cc" stroke-width="0.3"/><path d="M305.12,138.91c.82,1.45-.16,2.92-1.46,2.75-1.47-.31-3.74.33-4.07,2,2.44-1,2.6-.32,4.4-.32,3.89,0,1.95-3.27,1.13-4.4Z" fill="#fff" stroke="#50d6cc" stroke-width="0.3"/><path d="M304.8,138.58c.16.16.16.31.32.31.82,1.13,2.76,4.4-1.13,4.4,1.45,0,3.57-.5,4.06-2.12.32-1.46-1.31-3.41-1.47-4.39a9.42,9.42,0,0,0-2.44.81,3.1,3.1,0,0,0,.66,1Z" fill="#fff" stroke="#50d6cc" stroke-width="0.3"/><path d="M334.71,140a11.07,11.07,0,0,1-8.62-2.26c-6.18-4.86-16.9-7-21.46-2.12a1.62,1.62,0,0,0-.49,2,9.42,9.42,0,0,1,2.44-.81c3.57-.8,9.75-.15,13.33,2.62a28.93,28.93,0,0,0,14.14,5.36,6.12,6.12,0,0,1,.66-4.72Z" fill="#fff" stroke="#50d6cc" stroke-width="0.3"/><path d="M292,141.49c-4.06-1-14.14-.32-14.46,4.73a4.83,4.83,0,0,1,3.57-1.46,14.42,14.42,0,0,1,2.44.31,48.18,48.18,0,0,0,8,.48,5.87,5.87,0,0,1,.47-4.06Z" fill="#fff" stroke="#50d6cc" stroke-width="0.3"/><path d="M280.58,152.07c0,.65-.16,1.13-1.3,1.78-1.63.82-5.69,3.25-6.5,6.66,2.43-2.43,5.19-4.38,7-4.86a3,3,0,0,0,2.27-1.8C282,153.2,281.22,152.72,280.58,152.07Z" fill="#fff" stroke="#50d6cc" stroke-width="0.3"/><path d="M281.39,149.64a4,4,0,0,1-.33-4.88,4.83,4.83,0,0,0-3.57,1.46,7.12,7.12,0,0,0,2.28,5.2c.32.15.49.48.81.63.64.67,1.46,1.15,1.46,1.8.65-1,.65-2.6-.65-4.23Zm55.91,39.17,5.37-2.28m-5.53-.48,4.87-1.81m-5-1.77,4.06-2.12m-4.23-.16,3.91-1.31m-3.91-.31,3.42-1.47m-3.58-.16,3.25-1.31m-3.25-.64,2.93-.49m-2.93-1.32,2.61-.14m-2.77-1.8,2.11-.32m-2.27-2.45h1.79m-1.79-1.3,1.3-.14m-7.15,22.27h4.23m-3.91-2.77,4.07.14M331,184.08l3.91.16m-3.75-2.43,3.75.15m-3.41-2.76,3.41.17m-3.26-2.43h3.26m-3.09-2.28h3.09m-2.77-2.1,2.77.15m-2.77-1.79H335m-2.6-1.95,2.6.18M332.59,167l2.44.14" fill="#fff" stroke="#50d6cc" stroke-width="0.3"/><path d="M317,262.59v0Zm0,1.14c0,.33.16.82.16,1.15C317.15,264.55,317,264.06,317,263.73Z" fill="none" stroke="#000" stroke-width="0.31"/><path d="M317,263.73m42.26-37.88L276,218.06l-3.74-.32-37.22-3.42c.48,1.46,1,2.92,1.46,4.55l134.58,12.51a72.79,72.79,0,0,1,12.19.65c.81-1.3,1.47-2.43,2.27-3.73Z" fill="none" stroke="#50d6cc" stroke-width="0.3"/><path d="M322.84,190.43l-.16-2-.5-1.95-.8-1.47-1-1.46-1.47-1.13-1.62-.82-1.79-.65-2.27-.15-2,.15-1.62.5-1.79.79-1.3,1.15-1.3,1.31-1,1.61-.65,1.95-.33,2.12h19.51" fill="none" stroke="#50d6cc" stroke-width="0.3"/><path d="M272.29,138.25l.16-.66.33-.64.63-.49.66-.15.81.15.65.49.49.64.16.66-.32,1.46-.49.49-.82.16-.81-.16-.65-.33-.64-.64-.16-1" fill="#fff" stroke="#50d6cc" stroke-width="0.3"/><path d="M265,129.3l.16-.63.32-.65.65-.34.64-.16.82.16.65.34.48.65.16.63-.32,1.46-.48.5-.82.16-.81-.16-.65-.33-.65-.64-.15-1" fill="#fff" stroke="#50d6cc" stroke-width="0.3"/><path d="M255.88,159.05l-.18-.63v-.68l.34-.62.64-.51.82-.14.81.14.64.34.33.48.32,1.63-.32.49-.49.48-.81.32h-.81l-.81-.49-.48-.81" fill="#fff" stroke="#50d6cc" stroke-width="0.3"/><path d="M245.47,154l-.16-.66.16-.81.32-.65.49-.31.81-.17h.8l.66.33.48.65.17,1.47-.17.63-.64.48-.82.17h-.81l-.65-.31-.64-.82" fill="#fff" stroke="#50d6cc" stroke-width="0.3"/><path d="M236.69,183l-.32-.66-.33-.64.17-.65.32-.65.65-.49.81-.33.81.17.49.33.8,1.31v.47l-.32.82-.64.48-.65.32h-.81l-1-.48" fill="#fff" stroke="#50d6cc" stroke-width="0.3"/><path d="M239.62,215.46l-.66-.34-.48-.65-.16-.64v-.64l.48-.81.5-.48.8-.34.66.17,1.29.8.17.48v.82l-.32.82-.49.47-.82.34h-1" fill="#fff" stroke="#50d6cc" stroke-width="0.3"/><path d="M261.89,234.31l-.82-.17-.64-.31-.5-.49-.16-.81.16-.82.5-.65.48-.48.66-.16,1.61.33.32.48.33.65-.15,1-.33.65-.65.48-.81.33" fill="#fff" stroke="#50d6cc" stroke-width="0.3"/><path d="M274.24,260.64l-.65.32-.81-.15-.66-.33-.32-.49-.32-.81.16-.8.32-.67.49-.48,1.46-.31.65.31.48.48.33.82v.82l-.33.82-.81.47" fill="#fff" stroke="#50d6cc" stroke-width="0.3"/><path d="M291.79,117.61,292,117l.33-.65.64-.48.66-.17.8.17.81.48.33.65.16.65-.32,1.46-.49.32-.81.33-.82-.16-.64-.31-.48-.68-.33-1" fill="#fff" stroke="#50d6cc" stroke-width="0.3"/><path d="M278.63,196.44l-.17,4.54,4.88,1.13.16-4.54-4.87-1.13" fill="none" stroke="#50d6cc" stroke-width="0.3"/><path d="M337,203.75l.16,3.41,4.55.17-.16-3.41-4.55-.17" fill="none" stroke="#50d6cc" stroke-width="0.3"/><path d="M344.29,203.92l.16,3.41H349v-3.41h-4.71" fill="none" stroke="#50d6cc" stroke-width="0.3"/><path d="M354.86,203.92h-3.25l.16,3.24h2.93l.16-3.24" fill="none" stroke="#50d6cc" stroke-width="0.3"/><path d="M354.37,138.1l-.16-.65-.49-.66-.48-.33-.65-.15-.81.15-.81.33-.33.66-.16.65.32,1.44.49.48.81.18h.82l.65-.49.47-.65.33-1" fill="#fff" stroke="#50d6cc" stroke-width="0.3"/><path d="M361.68,129.3l-.16-.8-.33-.65-.64-.33-.66-.15-.8.15-.81.33-.33.65-.16.66.33,1.44.49.5.8.16h.82l.64-.33.49-.64.32-1" fill="#fff" stroke="#50d6cc" stroke-width="0.3"/><path d="M370.78,159.05l.17-.82v-.63l-.33-.65-.65-.5-.81-.15-.81.15-.65.33-.33.65-.32,1.46.16.49.64.48.82.34h.81l.66-.34.64-.81" fill="#fff" stroke="#50d6cc" stroke-width="0.3"/><path d="M381.18,153.85l.18-.65-.18-.8-.32-.5-.64-.48-.66-.15h-.81l-.81.48-.33.48-.15,1.46.15.66.65.49.82.14h.81l.65-.31.64-.82" fill="#fff" stroke="#50d6cc" stroke-width="0.3"/><path d="M278.14,276.25l.41-4.47-2.93,3.42-4.14-1.71,2.11,3.73-2.93,3.41,4.39-1,2.28,4.07.48-4.69,4.55-1-4.22-1.78" fill="#50d6cc"/><path d="M348.52,276.25l-.41-4.47,3.09,3.56,4-1.85-2.27,3.89,2.92,3.41-4.38-1-2.28,3.9-.49-4.56-4.54-1,4.38-1.95" fill="#50d6cc"/><path d="M312.92,94.86l-.65.17-.48.31-.33.49-.16.64.16.65.33.48.48.49.74.07.57-.07.64-.49.32-.48.17-.65-.17-.64-.32-.49-.64-.31-.66-.17" fill="#50d6cc"/><path d="M241.9,127.52l-.66.16-.48.34-.32.48-.17.64.17.66.32.49.48.47h1.31l.57-.41.39-.55.18-.66-.18-.64L243,128l-.48-.34-.65-.16" fill="#50d6cc"/><path d="M220.28,173l-.65.14-.66.34-.32.48-.16.66.16.64.32.65.66.32.73.26.57-.26.49-.32.32-.65.15-.64-.15-.66-.32-.48-.49-.34-.65-.14" fill="#50d6cc"/><path d="M222.88,215.94l-.66.15-.64.33-.33.49-.16.66.16.64.33.64.64.34.66.17.73-.1.41-.41.32-.64.16-.64-.16-.66-.32-.49-.5-.33-.64-.15" fill="#50d6cc"/><path d="M356.64,105.08l.65.17.49.33.33.49.15.64-.15.66-.33.65-.49.31-.65.17-.57-.08-.73-.4-.32-.65-.16-.66.16-.64.32-.49.66-.33.64-.17" fill="#50d6cc"/><path d="M289.68,279.5,287.4,279l.33-1.33,1.3.18,1-.18.48-.62.17-.33,1.7.55-2.43,9.11-2-.55,1.79-6.35" fill="#50d6cc"/><path d="M308.45,279.58l-.08,1.38-1.29,1.3-1.31,2.11-.81,2.1-.49,2.12h-1.78l.48-2.6,1.3-2.59,1.79-2.44-4.71-.17.16-1.62,6.74.41" fill="#50d6cc"/><path d="M323.09,279.74l-.09,1.39-1.14,1.45-1.13,2.12-.82,2.11-.31,2.12h-2l.49-2.61,1.29-2.61,1.63-2.43h-4.71l.08-1.54h6.67" fill="#50d6cc"/><path d="M252.63,261.13l-1.31-1.31.49-1v-.81l-.65-.82-.81-.82-.82-.15-.65.32-.16.32-.07.57.64,1.3.41.72.81,2.14-.16,1.13-.64,1-1.14.64h-1.14l-1.3-.33-1.14-1-.81-1.29-.32-1.3.16-1.13.81-1.15,1.3,1.29-.49.68V261l.65,1,1.14.82h.48l.33-.33.32-.32v-.48l-.48-1.32-.81-1.45-.65-1.63.16-1,.65-1,1.13-.64,1.14-.16L251,255l1.3,1.13,1,1.3.49,1.46-.33,1.31-.8,1" fill="#50d6cc"/><path d="M234.25,250.07l1.3-1L238.8,253l1.46-1.3-2.91-3.56,1.29-1.15,2.92,3.58,1.95-1.63-3.42-4.05,1.31-1.15,4.79,5.77-7.47,6.18-4.48-5.61" fill="#50d6cc"/><path d="M232.71,229.35l-8.78,3.91-.89-2,7.32-3.09-2-4.38,1.61-.66,2.69,6.25" fill="#50d6cc"/><path d="M217.11,167.44l1.7-7.75,1.63.51-.65,2.76,7.64,1.79-.49,1.94-7.64-1.78-.56,2.84-1.63-.33" fill="#50d6cc"/><path d="M230.68,156.28l-.73,1.87-8.78-3.72.57-1.88,3.42,1.3,1.45-3.41L223.2,149l.82-1.78,8.94,3.74-.82,2-3.9-1.81-1.63,3.42,4.07,1.78" fill="#50d6cc"/><path d="M231,135.33l1.46,1-2.76,4.24,1.79,1.13,2.44-4.07,1.46,1-2.6,3.92,2.11,1.3,2.92-4.4,1.47.82-3.82,6.25-8.14-5.2,3.66-5.94" fill="#50d6cc"/><path d="M250,123.63l1.47-1.31,1,.32h.65l1-.63.65-.82.16-.81-.33-.66-.33-.16-.48-.15-1.3.63-.81.5-2.12,1-1-.17-1.13-.8-.65-1v-1.13l.33-1.3,1-1.3,1.13-.82,1.3-.32,1.3.16,1.14.81-1.3,1.3-.82-.32h-.65l-1,.49-.81,1.13v.48l.32.51.32.14h.48l1.3-.49,1.46-.81,1.63-.65,1,.17,1,.65.63,1.13.25,1.22-.57,1.21-1,1.3-1.46,1-1.3.49-1.3-.18-1.14-.78" fill="#50d6cc"/><path d="M256.84,109.15l6.51-4.38,1,1.46-2.42,1.61,4.29,6.6-1.7,1L260.1,109l-2.44,1.46-.82-1.3" fill="#50d6cc"/><path d="M281.56,96.64,289,94.52l.49,1.64-2.77.82,2.11,7.62-1.86.57-2.12-7.64-2.84.75-.48-1.64" fill="#50d6cc"/><path d="M301.55,92.26l.32,1.62-5,.82.33,1.94,4.55-.65.32,1.63-4.55.8.32,2.45,5.21-.82.32,1.62-7.23,1.22-1.3-9.59,6.75-1.06" fill="#50d6cc"/><path d="M336.08,104l3.09-9.1,6.42,2.19-.65,1.63-4.55-1.63-.65,2.12,4.07,1.3-.66,1.63-3.89-1.3L338,104.6l-1.86-.57" fill="#50d6cc"/><path d="M363.07,115.9l6-7.48,1.7,1.23-1.3,7.63,4.23-5.2,1.45,1.15L369,120.69l-1.46-1.3,1.3-7.63-4.39,5.2-1.37-1.06" fill="#50d6cc"/><path d="M386.55,123.79l-1.14,1.13-3.57-3.58-1.46,1.47,3.25,3.24-1.14,1.13-3.25-3.24-1.79,1.8,3.73,3.73-1.13,1.29-5.11-5.12,6.81-6.8,4.8,5" fill="#50d6cc"/><path d="M391.51,130l1.22,1.71-3.91,4.07-1,1.13,1.31-.66,5.19-2.26,1.14,1.79-3.74,4.05L390.62,141l1.29-.65,5.37-2.11,1.14,1.77L389,143.29l-1.14-1.63,4.06-4.21,1.3-1.3-1.78.8-5.21,2.28-1.05-1.54,6.34-7.65" fill="#50d6cc"/><path d="M398.42,163.61l-.41-1.7,9.26-2.61.41,1.86-3.42,1,1,3.57,3.42-1,.64,1.94-9.26,2.6-.65-1.95,4.23-1.13-1-3.75-4.23,1.15" fill="#50d6cc"/><path d="M404.76,191.07l7.47,1.62v2.93h-9.58v-1.78h8.12l-8.12-1.78v-2l8.12-1.95h-8.12l.07-1.69h9.59l-.08,2.84-7.47,1.77" fill="#50d6cc"/><path d="M403.13,213.51l-.65,1.78h-1l-.66.49-.47,1-.16,1.13.16.81.63.33h.5l.32-.18.82-1.13.48-.81,1.3-1.79,1.13-.47,1.14.16,1.14.65.64.81.32,1.3-.32,1.62-.64,1.3-.82,1-1.29.48-1.3-.14.48-1.79h.82l.64-.33.65-1.13v-1.3l-.16-.33-.49-.32h-.48l-.49.17-.64,1.13-1,1.47-1.13,1.29-1,.49-1.13-.17-1-.65-.82-1-.16-1.3.16-1.64.82-1.61,1.05-.9,1.05-.57,1.46.17" fill="#50d6cc"/><path d="M395.17,226.5l.89-1.69,8.77,3.9-.89,1.71-3.41-1.48-1.46,3.43,3.25,1.46-.81,1.78-8.78-3.9,1-1.8,3.89,1.8,1.47-3.41-3.9-1.8" fill="#50d6cc"/><path d="M397.28,242.76l-8.29-5,1.22-1.54,8.12,5-1.05,1.55" fill="#50d6cc"/><path d="M379.89,264.06l-1.14-1.15,3.57-3.56-1.3-1.47-3.41,3.25L376.47,260l3.42-3.24L378.1,255l-3.9,3.58-1.14-1.13,5.28-5,6.66,6.83-5.11,4.79" fill="#50d6cc"/><path d="M223.93,191.31h-9.58l-.09-6.9h1.63v4.89h2.28v-4.24h1.62v4.24h4.06l.08,2" fill="#50d6cc"/><path d="M272.62,100.05l-2,1,1,10,1.78-.79-.16-2.12,3.34-1.37,1.21,1.37,2-.81Zm.48,6.5-.48-4,2.59,2.9Z" fill="#50d6cc"/><path d="M411.17,175.4l-9.91-2,.24,2h0l1.94.34.49,3.56-1.79.82.32,2.1,8.94-4.71Zm-5.61,3.17-.32-2.45,3.91.65Z" fill="#50d6cc"/><path d="M402.4,201.08l-.25,2,3.41.33-.32,2.12V207l.32,1,1,.81,1.3.49,1.47-.16,1-.49h0l.65-1,.49-1.13.56-4.13Zm7.39,4.79-.48,1.15-.5.14h-.64l-.65-.14-.32-.34h0l-.32-.48v-.65l.32-1.8,2.76.33Z" fill="#50d6cc"/><path d="M337.78,282.26l-.65-1-1-.49-1.13-.16-1.14.33-.64.65.15-1.63.33-.81.81-.33H335l.48.33.17.47,1.79-.14-.33-1-.65-.82v0l-.89-.21-1.23-.1-.8.17-.82.32-.81,1.13-.48,2.13v1.78l.48,1.62.49,1.3.64.64.66.34,1.45.31,1.46-.48,1-.81.49-1.13v-1.3ZM336,285l-.33.33-.48.16h-.65l-.49-.33-.32-.47-.16-.66v-.82l.32-.64.82-.32h.64l.33.32.47.5.17.63Z" fill="#50d6cc"/><path d="M238,238.85l-2,.49-1.95-2.91,1.3-1.63L234.25,233l-6.34,8,1.39,2,9.91-2.26Zm-7.63,2,2.6-3.08,1.29,2.1Z" fill="#50d6cc"/><path d="M224.17,199.37l-.82-1.3-.8-.65-.81-.48-2.44-.17-2.27.32-.82.48-.81.67v0l-.82,1.32-.16,1.93.33,1.79.81,1.31.81.64,1,.32,2.28.34,2.27-.34.82-.48.89-.58.72-1.54.16-1.78Zm-1.45,2.91-.66.82-1.13.65-1.3.17-1.46-.17-1.14-.49-.65-.81-.32-1.13.32-1,.48-.8,1.14-.66,1.47-.16,1.46.16,1,.49.65.82.32,1Z" fill="#50d6cc"/><path d="M331.6,95.34l-.31-1-.65-.62v0l-1.3-1-1.79-.34-1.79.34-1.46.64-.65.82-.48.82-.32,2.43.15,2.26.48.82.66.82,1.29,1,1.87.39,1.71-.39,1.31-.81.8-.65.34-1,.47-2.26Zm-2,3.74-.48,1-.82.65-1.12.17-1-.17-.82-.65L325,98.92l-.16-1.46L325,96l.65-1,.81-.66,1.14-.16,1,.16.81.66.48,1.13.16,1.46Z" fill="#50d6cc"/><path d="M386.47,242.35l-1.38,1.56,3.09,2.26-1.3,1.62-.48.66-.48.15-.5-.15-.81-.33-.65-.49-.65-.48-.48-.33-1.46,1.8.33.14h.64l.65.68.48.31,1.47.65,1.13-.16-.15.64.15.82.82,1.13,1,.49h1l1-.32,1.14-1,3-3.64Zm3.49,8.22-.8.65-.5.17-.81-.34-.33-.48v-.66l.5-1,1.3-1.79,2.11,1.63Z" fill="#50d6cc"/><path d="M389.8,182.78l.49-.65.16-.65v-.65l-.32-.64-.65-.49-.82-.31-.81.14-.49.33-.81,1.3-.16.49.49.82.48.48.82.33H389l.81-.48" fill="#fff" stroke="#50d6cc" stroke-width="0.3"/><path d="M376.31,211.06l.66-.48.47-.49.16-.64v-.82l-.48-.65-.65-.48-.64-.32-.66.15-1.29.82-.33.48.16.82.32.82.49.47.81.32h1" fill="#fff" stroke="#50d6cc" stroke-width="0.3"/><path d="M373.55,241.79l.65-.17.64-.33.48-.49.16-.81-.16-.79-.48-.66-.48-.48-.65-.17-1.47.32-.48.48-.16.67v1l.32.64.66.49,1,.33" fill="#fff" stroke="#50d6cc" stroke-width="0.3"/><path d="M347.7,250.07l.66.17H349l.65-.33.49-.66.32-.8-.16-.82L350,247l-.47-.32-1.64-.33-.48.16-.48.65-.34.65v.82l.34.82.8.63" fill="#fff" stroke="#50d6cc" stroke-width="0.3"/><path d="M352.42,260.64l.65.15h.65l.64-.31.49-.66.16-.8v-.82l-.32-.64-.49-.33-1.63-.33-.48.16-.48.48-.33.82v.82l.33.81.81.65" fill="#fff" stroke="#50d6cc" stroke-width="0.3"/><path d="M334.71,117.44v-.65l-.5-.65-.48-.48-.81-.17-.82.17-.63.48-.5.65v.65l.32,1.46.5.49.64.17.81-.17.81-.32.49-.64.17-1" fill="#fff" stroke="#50d6cc" stroke-width="0.3"/><path d="M313.08,83.64c-59.16,0-107.1,47.78-107.1,106.79,0,58.82,47.94,106.62,107.1,106.62,59.34,0,107.28-47.8,107.28-106.62C420.36,131.44,372.42,83.64,313.08,83.64Z" fill="none" stroke="#50d6cc" stroke-width="0.31"/><path d="M371.11,231.38l-2.6.17-2.27.64-3.74.66-9.43.8-9.75.47-3.89-.14-2.61-.33h-2.44l-2.76.82-2.92.64-1.62.16h-1.95l-1.79-.16-1.3.33-1.14.49-1,.64-1.14.66-1.78.47-2.28.18-3.24-.18h-3.42l-3.57.49-3.26.82-2.91,1.3-1.14-.49-1.79-.33-2.12-.82-1.95-1.61-10.71,2.12-5.86.64-2.92.16-2.61-.16-2.43-.17h-2.44l-5.2.66-5.2.82-2.44.14-2.11-.14,2.76,3.41,3.09,3.25,3.25,3.07,3.42,2.94,3.57,2.76,3.73,2.44,3.91,2.42,4.07,2.12,4,1.78,4.39,1.63,4.23,1.47,4.55,1.13,4.55,1,4.71.64,4.71.48,4.71.16,5.53-.16,5.53-.63,5.2-.82,5.2-1.31,5-1.46,5-1.94,4.72-2.12,4.55-2.43,4.39-2.76,4.22-2.92,4.06-3.27,3.74-3.41,3.58-3.73,3.25-3.9,3.09-4.22,2.91-4.24.17-.48-5.69-.48Z" fill="none" stroke="#50d6cc" stroke-width="0.3"/><path d="M269.2,247l1.46.81,1.63.32,1.94.17h1.95l3.73-.49,2.12-.48,2.61-1.15,1.62-.31,2.43-.34,2.76-.15,2.6-.64,2.27-1,2.28-1.93.81-.82v-.64l-.49-.51-.64-.48-2.6-1.45-1.62-1-1.3-1.3-.49-.34h-.49l-1.3.34-.65.34-1.14-.17-2.43-.49-2.59-.16H279l-4.87.48-1.79.48-1.3.65-2,1.47-1.78,1.61-.49,1-.32,1,.16,1.13.65,1.44,1,1.48,1,1.13" fill="#fff" stroke="#50d6cc" stroke-width="0.3"/><path d="M319.27,255a5.4,5.4,0,0,0-1.47,2.28,13.3,13.3,0,0,0-.81,5.36C319.27,260.31,322.68,254.64,319.27,255Z" fill="none" stroke="#50d6cc" stroke-width="0.3"/><path d="M303,266c.81-2.28,2.11-9.28,1.62-12.36a5.72,5.72,0,0,0,0-2.43c-1.3,0-3.24-.17-5.2-.17,1.63,8.3-1.63,12.84-.49,16.09C300.41,268.77,302.19,268.29,303,266Z" fill="none" stroke="#50d6cc" stroke-width="0.3"/><path d="M310.33,266.17a6.74,6.74,0,0,1-3.09,3.9c.81,1.14,1.45,1.61,2.11,1.3a15.36,15.36,0,0,0,3.41-4.06A2.94,2.94,0,0,1,310.33,266.17Z" fill="none" stroke="#50d6cc" stroke-width="0.3"/><path d="M310,262.43c-1.94-3.57-1.45-6.66.5-7.48a7.41,7.41,0,0,0-.34-1.62c-1-2.62-5.19-1-5.52.32.49,3.08-.81,10.08-1.62,12.36s-2.6,2.74-4.07,1.13c-.32,4.23,4.72,4.71,8.3,2.93a6.74,6.74,0,0,0,3.09-3.9,4.86,4.86,0,0,0,.32-1.62,7,7,0,0,1,.16-.82C310.49,263.24,310.15,262.76,310,262.43Z" fill="none" stroke="#50d6cc" stroke-width="0.3"/><path d="M310.65,257.06a8.7,8.7,0,0,0-.16-2.11c-1.95.82-2.44,3.91-.5,7.48.16.33.5.81.82,1.3A45.27,45.27,0,0,0,310.65,257.06Z" fill="none" stroke="#50d6cc" stroke-width="0.3"/><path d="M330.48,249.75c-1.47,1-2.93.82-3.91,1.13a8.65,8.65,0,0,1-2.43,3.9,2,2,0,0,1,.32,2.76c-1.3,2.28-.49,7.8.33,9.27,1,1.46,2.11,1.15,3.25-.32.32-2.12,0-3.08.16-6.67C328.35,256.9,330,253.16,330.48,249.75Z" fill="none" stroke="#50d6cc" stroke-width="0.3"/><path d="M317.15,264.88a4.91,4.91,0,0,1-2.61,2.09c1,1.63,3.09,3.75,3.75,3.92,1,.48,1.46.14,2.11-.82A7.15,7.15,0,0,1,317.15,264.88Z" fill="none" stroke="#50d6cc" stroke-width="0.3"/><path d="M317,263.73v-1.14a13.3,13.3,0,0,1,.81-5.36c-1.79-1.62-6-1.3-7.15-.17a45.27,45.27,0,0,1,.16,6.67,7,7,0,0,0-.16.82,4.86,4.86,0,0,1-.32,1.62,2.94,2.94,0,0,0,2.43,1.14,7.87,7.87,0,0,0,1.78-.34,4.91,4.91,0,0,0,2.61-2.09C317.15,264.55,317,264.06,317,263.73Z" fill="none" stroke="#50d6cc" stroke-width="0.3"/><path d="M324.79,266.83a16.8,16.8,0,0,1-1-3.59,14.94,14.94,0,0,1,0-2.76,7.9,7.9,0,0,1,.64-2.92,2,2,0,0,0-.32-2.76,3.62,3.62,0,0,0-3.26-.65,5.28,5.28,0,0,0-1.61.8c3.41-.31,0,5.38-2.28,7.64v1.14c0,.33.16.82.16,1.15a7.15,7.15,0,0,0,3.25,5.19,6.05,6.05,0,0,0,3.42,1.14c2.43,0,4.22-1.62,4.22-4.72C326.9,268,325.77,268.29,324.79,266.83Z" fill="none" stroke="#50d6cc" stroke-width="0.3"/><path d="M387,215.29l.65-.31.49-.66.15-.64V213l-.48-.8-.65-.48-.65-.17h-.64l-1.31.82-.33.48.17.82.33.79.48.67.81.15h1" fill="#fff" stroke="#50d6cc" stroke-width="0.3"/><path d="M364.77,234.14l.81-.16.66-.31.32-.49.16-.81v-.82l-.48-.64-.66-.49-.64-.17-1.47.33-.32.48-.33.82v.82l.33.64.65.64,1,.16" fill="#fff" stroke="#50d6cc" stroke-width="0.3"/><path d="M356.48,162.63l-.81,7.48h.65Z" fill="#fff" stroke="#50d6cc" stroke-width="0.3"/><path d="M355.34,172.87l-2.27,24.39H356l.32-24.39Z" fill="#fff" stroke="#50d6cc" stroke-width="0.3"/><path d="M356.32,170.11h-3.41l-.16,1.3,2.59,1.46h1l1.95-1.63v-1.13Z" fill="#fff" stroke="#50d6cc" stroke-width="0.3"/><path d="M355.34,161.66v1h1.14l.66-.17.15-.8Z" fill="#fff" stroke="#50d6cc" stroke-width="0.3"/><path d="M334.87,139.06l-1.63,13.33,1,.16Z" fill="#fff" stroke="#50d6cc" stroke-width="0.3"/><path d="M334.05,155.15h-1l-1,7h1.47Z" fill="#fff" stroke="#50d6cc" stroke-width="0.3"/><path d="M337.14,162.31l-3.57-.17H332.1l-2.44-.16.66,3.41h3.08l3.9-.17Z" fill="#fff" stroke="#50d6cc" stroke-width="0.3"/><path d="M334.05,155.15l1.79.16.32-2.59-2-.17-1-.15h-1.3l-.16,2.58,1.29.17Z" fill="#fff" stroke="#50d6cc" stroke-width="0.3"/><path d="M284.81,195.45l1.78.34,2.11.48,2.12-29.1-2-.31-4.05,28.59" fill="#fff" stroke="#50d6cc" stroke-width="0.3"/><path d="M292.61,140.69l-1.95,14.46,1,.16Z" fill="#fff" stroke="#50d6cc" stroke-width="0.3"/><path d="M290.34,157.43l-1.14,7.15H291l.49-7.15Z" fill="#fff" stroke="#50d6cc" stroke-width="0.3"/><path d="M291.63,155.31l-1-.16H289l.17,2.12,1.14.16h1.13l1.62.31.16-2.43Z" fill="#fff" stroke="#50d6cc" stroke-width="0.3"/><path d="M289.2,164.58l-2.61-.16v2.27l2.27.17,1.95.31,1.63.17.16-2.59-1.63-.17H289.2Z" fill="#fff" stroke="#50d6cc" stroke-width="0.3"/><path d="M364.44,179.37c-3.08.16-6.49,3.26-8.94,3.58-.16.65-.32,1.29-.48,2.11,2.44,0,5.37-3.9,9.1-4.06A4.92,4.92,0,0,1,364.44,179.37Zm-.64,2.76c.16-.32.16-.79.32-1.13-3.73.16-6.66,4.06-9.1,4.06a5.06,5.06,0,0,1-.32,1.3C357.29,186.53,360.55,182.47,363.8,182.13Zm0,0c-3.25.34-6.51,4.4-9.1,4.23-.17.49-.17,1-.33,1.3,3.58-.17,6.34-3.75,9.43-4.23ZM361,187.49c2.61-1.61,7.64-2.11,10.41-.48l.48-1.47c-2.76-1.77-8-1.13-10.73.34-1.46,1-4.87,3.25-7.15,3.25a6,6,0,0,0-.65,1.78c2.28.33,6-2.6,7.64-3.4Zm2.77-3.89c2.59-.82,6.82-.65,8.62.17l1.94-6.35c-2.28-1.61-6.17-1-9.26,0a20.78,20.78,0,0,0-1.3,6Zm0-.17v0Z" fill="#fff" stroke="#50d6cc" stroke-width="0.3"/><path d="M364.44,179.37l-2.27.64-2.44,1.15-2.27,1.13-1.95.66-.48,2.11,1-.16,1-.49,2.12-1.3,2.27-1.46,1.3-.49,1.46-.16Z" fill="#fff" stroke="#50d6cc" stroke-width="0.3"/><path d="M365.1,177.42a8.68,8.68,0,0,0-2.77,1.15,25.34,25.34,0,0,1-6.83,2.75V183c2.45-.32,5.86-3.42,8.94-3.58C364.61,178.71,364.94,178.07,365.1,177.42Z" fill="#fff" stroke="#50d6cc" stroke-width="0.3"/><path d="M363.8,182.13l-1.14.34-1.3.48-2.27,1.46-2.28,1.31-1.14.47-1,.17-.33,1.3,1.3-.17L357,187l2.28-1.29,2.26-1.48,1.14-.47,1.14-.34Z" fill="#fff" stroke="#50d6cc" stroke-width="0.3"/><path d="M361,187.49c-1.62.82-5.36,3.75-7.64,3.42a4.92,4.92,0,0,1-.32,1.47c1.79.48,5.2-.82,6.66-2.28,3.09-2.75,7.64-2.75,11.22-1.48l.49-1.61C368.67,185.38,363.64,185.88,361,187.49Z" fill="#fff" stroke="#50d6cc" stroke-width="0.3"/><path d="M361,187.49l2.28-1,2.93-.48,2.75.14,1.3.17,1.14.65.48-1.47-1.14-.48-1.3-.48-2.92-.17-2.91.49-2.45,1L358,187.82l-2.12,1-1.79.32-.65,1.78h1l1-.32,2.12-1,3.57-2.1Z" fill="#fff" stroke="#50d6cc" stroke-width="0.3"/><path d="M371.92,185.54l.5-1.77c-1.8-.82-6-1-8.62-.17v-.17c-3.09.48-5.85,4.08-9.43,4.23a4.74,4.74,0,0,0-.33,1.47c2.28,0,5.69-2.28,7.15-3.25C364,184.41,369.16,183.77,371.92,185.54Z" fill="#fff" stroke="#50d6cc" stroke-width="0.3"/><path d="M363.8,183.6l2.11-.32,2.44-.17,2.26.17,1.8.49,1.94-6.35-1-.48-.95-.32-2.45-.17-2.44.32-2.43.65-1,3.1-.32,2.91Z" fill="#fff" stroke="#50d6cc" stroke-width="0.3"/><path d="M374.36,177.42,371,188.62l-2.76,8.95c.64,0,1.13.16,1.62.16l5-22.1Zm-77.85,20.15-4.06-30.23m1.78,29.75-2.11-29.75m45.51,29.92-1.3-32m3.41,32-3.25-32m8.94,32-8.13-32,4.07,32m-6.83,4.85.49-36.72m-1,0L332.26,202m-40.79-12.53,4.06.82m-4.06,1.94L296,193m-4.55,1.46,4.87,1.14m-5-28.45v29.6m46.17.49,7.15-3.25m-7.15.82,6.66-2.63m-6.66.49,6.17-1.93m-6.34.48,5.85-2.43m-13.49,8.59h5M330,195.14l4.73.16m-4.56-2.11,4.56.16m-4.39-2,4.39.17" fill="none" stroke="#50d6cc" stroke-width="0.3"/><path d="M329.34,201.8l3.41-36.41" fill="#9e4d3c"/><path d="M331.78,165.39l-4.39,36.24L330,202h1.31l2.11-36.58h-1.62" fill="#fff" stroke="#50d6cc" stroke-width="0.3"/><path d="M331.78,165.39l-4.39,36.24L330,202h1.31l2.11-36.58Zm-69.41,32.18-14-13.16,14,15" fill="none" stroke="#50d6cc" stroke-width="0.3"/><path d="M268.23,199.37l.8-.51.5-.79v-1l-.33-1-1-1-1.63-1-2-.64-2.11-.49-.17,2.92v3.43h5.86Z" fill="none" stroke="#50d6cc" stroke-width="0.3"/><path d="M270.5,202.29c7.15,4.54,21.45,6.66,29.42,7.3,14.62,1.3,35.75,1.79,48.92,1a9.22,9.22,0,0,1,0,2.1c-11,.81-40.63-.49-45.18-.8C299.11,211.38,280.42,209.92,270.5,202.29Z" fill="none" stroke="#50d6cc" stroke-width="0.3"/><path d="M253.11,242l-.65-.17-.65-.33-.49-.66-.15-.64.15-.8.33-.67.64-.48.66-.15,1.46.32.49.49.16.64v.82l-.32.81-.65.48-1,.34" fill="#fff" stroke="#50d6cc" stroke-width="0.3"/><path d="M344.62,198.55v3.74c1.79,0,3.58.16,5.2.16v-3.73Z" fill="none" stroke="#50d6cc" stroke-width="0.3"/><path d="M338.28,198.55l.16,3.56c1.79.18,3.9.18,5.85.18v-3.74Z" fill="none" stroke="#50d6cc" stroke-width="0.3"/><path d="M357.14,198.72h-7v3.73h7Z" fill="none" stroke="#50d6cc" stroke-width="0.3"/><path d="M271,194a26.41,26.41,0,0,1,.49,4.85,17.18,17.18,0,0,0,4.54,1.48v-4.72A43.53,43.53,0,0,1,271,194Z" fill="none" stroke="#50d6cc" stroke-width="0.3"/><path d="M285.94,198.07l-.16,4.55c2.5.48,3.9.61,4.88.8V199C289,198.72,287.57,198.39,285.94,198.07Z" fill="none" stroke="#50d6cc" stroke-width="0.3"/><path d="M337,203.75l.16,3.41a40.71,40.71,0,0,1,4.55.17l-.16-3.41A39.39,39.39,0,0,0,337,203.75Z" fill="none" stroke="#50d6cc" stroke-width="0.3"/><path d="M329.82,203.43V207c1.64,0,3.25.14,4.89.14l.16-3.57C333.07,203.59,331.46,203.43,329.82,203.43Z" fill="none" stroke="#50d6cc" stroke-width="0.3"/><path d="M344.29,203.92l.16,3.41H349v-3.41Z" fill="none" stroke="#50d6cc" stroke-width="0.3"/><path d="M322.52,202.93v3.75c2.43,0,3.74.15,5,.15v-3.57C325.77,203.1,324.14,202.93,322.52,202.93Z" fill="none" stroke="#50d6cc" stroke-width="0.3"/><path d="M354.86,203.92h-3.25l.16,3.24h2.93C354.7,206.2,354.86,204.88,354.86,203.92Z" fill="none" stroke="#50d6cc" stroke-width="0.3"/><path d="M300.41,200.5l.16,4.24c2.62.21,3.94.37,4.87.47l.15-3.89C304,201,302.19,200.83,300.41,200.5Z" fill="none" stroke="#50d6cc" stroke-width="0.3"/><path d="M293.25,199.54v4.21a36.65,36.65,0,0,0,4.88.64v-4.22C296.51,200,294.88,199.68,293.25,199.54Z" fill="none" stroke="#50d6cc" stroke-width="0.3"/><path d="M314.72,202.29l.15,3.89a48.27,48.27,0,0,0,5.37.33v-3.72Z" fill="none" stroke="#50d6cc" stroke-width="0.3"/><path d="M308.05,201.63l-.17-.14v4.06h.17c2.16.26,3.29.37,4.22.48l.17-4.06A41.32,41.32,0,0,0,308.05,201.63Z" fill="none" stroke="#50d6cc" stroke-width="0.3"/><path d="M360.39,199.68l-.34,4.71,1.14.18.17-4.89Z" fill="none" stroke="#50d6cc" stroke-width="0.3"/><path d="M366.89,200.17h-.82l-.16,4.71.81.17Z" fill="none" stroke="#50d6cc" stroke-width="0.3"/><path d="M362.5,199.85l-.17,4.72.82.17v-4.89Z" fill="none" stroke="#50d6cc" stroke-width="0.3"/><path d="M364.28,200l-.16,4.72.82.14.16-4.86Z" fill="none" stroke="#50d6cc" stroke-width="0.3"/><path d="M283.34,217.57c1.3.17,2.77.49,4.72.66l.16-3.11a41.42,41.42,0,0,1-4.72-.31C283.5,215.46,283.34,216.42,283.34,217.57Z" fill="none" stroke="#50d6cc" stroke-width="0.3"/><path d="M327.23,222c1.13.17,2.27.17,3.41.33l.16-4.22a27.32,27.32,0,0,1-3.73-.17Z" fill="none" stroke="#50d6cc" stroke-width="0.3"/><path d="M337.47,222.94c1.46.14,2.92.14,4.38.33a37.6,37.6,0,0,0-.16-4.57c-1.46,0-2.93-.16-4.39-.16Z" fill="none" stroke="#50d6cc" stroke-width="0.3"/><path d="M316,220.82c1,.17,3.74.32,3.9.32v-3.57a32.08,32.08,0,0,0-4.06-.33Z" fill="none" stroke="#50d6cc" stroke-width="0.3"/><path d="M293.59,218.87c1.61.17,3.41.32,5.35.49v-3.25l-5.35-.49Z" fill="none" stroke="#50d6cc" stroke-width="0.3"/><path d="M305.12,219.83c1.3.17,2.76.35,4.23.51v-3.58a38.32,38.32,0,0,1-4.23-.34Z" fill="none" stroke="#50d6cc" stroke-width="0.3"/><path d="M357,230.56s-3.41-14.78-3.74-16.24,1-2.59,1.79-.49c.65,1.95,6.17,16.73,6.17,16.73Z" fill="#fff" stroke="#50d6cc" stroke-width="0.3"/><path d="M344.94,229.91s-2.27-13.8-2.6-15.26,1-3.59,1.79-.33c1,3.09,5,15.93,5,15.93Z" fill="#fff" stroke="#50d6cc" stroke-width="0.3"/><path d="M334.05,229.27s-2.27-15.28-2.59-16.41.64-1.8,1.29-.17c.49,1.63,4.55,16.58,4.55,16.58Z" fill="#fff" stroke="#50d6cc" stroke-width="0.3"/><path d="M322.34,229.1s.5-15.93.5-16.89c-.16-1,1.13-1.47,1.3,0,.15,1.3,1.62,16.73,1.62,16.73Z" fill="#fff" stroke="#50d6cc" stroke-width="0.3"/><path d="M311,228.3s1-15.94,1-16.74,1.14-1.8,1.31,0,1.46,16.74,1.46,16.74Z" fill="#fff" stroke="#50d6cc" stroke-width="0.3"/><path d="M298.62,228.14s3.57-16.1,3.73-17.08,1-1,1,0c0,1.15-.47,17.24-.47,17.24Z" fill="#fff" stroke="#50d6cc" stroke-width="0.3"/><path d="M279,250.24l-.64.16h-.82l-.65-.33-.33-.63-.32-.82.16-.82.32-.65.5-.31,1.46-.34.65.17.48.48.32.82v.79l-.32.82-.82.66" fill="#fff" stroke="#50d6cc" stroke-width="0.3"/><path d="M286.59,226.33s4.07-13.16,4.23-14.29a1,1,0,0,1,1.95.49c0,1.3-2.77,14.13-2.77,14.13Z" fill="#fff" stroke="#50d6cc" stroke-width="0.3"/><path d="M250.35,211.06l-.65-.32-.49-.47-.16-.66v-.82l.48-.64.49-.49.81-.33.66.17,1.29.82.17.47v.82l-.32.82-.5.48-.81.32-1-.17" fill="#fff" stroke="#50d6cc" stroke-width="0.3"/><path d="M273.75,225.36s6.83-12.5,7.47-13.8c.66-1.47,2-1,1.47.17-.65,1-5.85,13.63-5.85,13.63Z" fill="#fff" stroke="#50d6cc" stroke-width="0.3"/><path d="M305.12,124.59l3.09-2.27,2.6-1.61-1.79-1-1.78-.47-3.91-.18,1.3-1,1.14-1.47.81-1.61.33-1.64-2.44.17-2.44.82-2.11,1.28-1,.67-.64,1-2.43,3.09-3.42,3.26.81-2.13.49-1.13.16-1.13-.16-.35-.16-.14h-.33l-.16.33-1,2.1-1.63,2-2.11,1.46-2.11,1-6.18,2.62-6.18,3.25-.48-.68-.16-.8.32-.64.66-.65,1.13-.31h1.29l1.47-.34,1.78-.82,2.12-1.29,2.11-1.48,2-1.77,1.46-2,.81-2.12v-1l-.16-1-.49.82-.65.65-1.79,1-2.28.63-2.76.33-1.79.33-1.79.64-1.45,1-1.3,1.29-1,1.46-.65,1.63L272,128l.16,1.94.33,2.44-4.55,3.24.16-2.59-.33-2.29-.64-1h-.17v2.26l-.16,1.81-.63,2.11-.82,2L262.08,141l-2.93,3.41-2.92,3.74-2.61,3.89-.64-.48-.33-.49v-.81l.33-.8,1-.67,1-.63,1.3-1,1.3-1.46,1.46-1.95,1.14-2.27,1-2.44.65-2.44-.15-2.12-.49-1-.48-1-.49,1.94L259,136.15l-1.79,1.46-2.44,1.46-1.46,1.14-1.29,1.3-1,1.61-.48,1.64-.33,1.63v1.78l.49,1.78,1,1.47,1.12,1.94-2.26,4.38-.81-2.09-1.14-1.47-1-.64-.16.15.32.64,1,2.62.65,3.56-1.79,4.07-1.46,4.55L245,173.84l-1,5.2-.82-.16-.48-.33-.32-.82.16-.79.48-1,.82-1.13.64-1.13.82-1.95.48-2.43.33-2.45v-2.6l-.33-2.43-1-2-.64-.8-1-.64.32,1v1l-.47,1.94L242,164.42l-1.64,2.27-1,1.47-.65,1.77-.32,1.64v1.78l.32,1.8.82,1.62,1,1.3L242,179.2l1.94,1.46-.49,4.24-1.79-2-1.94-1.15-1.14-.32-.16.32.64.48,1,.81,1.14,1.48,1.14,1.62,1,2v4.69l.32,4.71.5,5,.8,4.88-.8.14-.5-.14-.63-.67-.17-.8.17-2.11.15-1.3-.15-1.79-.49-2.28-.82-2.28-1-2.26-1.3-2-1.62-1.47-1-.47-.81-.35,1,1.64.32,1.8-.16,2.09-.32,2.44-.16,1.63.16,1.63.32,1.62.82,1.63,1,1.3,1.3,1.14,1.46,1,1.63.66,1.79.49,1.45,5.69-2.42-1-2.28-.34-1.14.34v.15l.81.33,1.14.33,1.62.64,1.62,1,1.63,1.3,3.09,7.46,2.11,4.08,2.27,3.9-.65.48-.65.17L253,233l-.49-.81-.32-1.13-.16-1.31-.32-1.46-.82-1.78-1.13-2.11-1.48-2.12-1.78-1.93-2-1.48-1.94-.8-1.14-.17-1,.17.81.64.66.66,1,1.78.64,2.27.17,2.76.33,1.8.8,1.61.82,1.47,1.3,1.3,1.47,1.13,1.62.64,1.63.35,1.93-.17,2.11-.34,3.42,4.72h-2.6l-2.11.33-1,.64.15.33.82-.16h1.14l1.62.16,3.9,1,5.05,5.52,2.75,2.44,3.09,2.43-.49.48L271,252l-1-.17-1-.79-1-1.15-.65-1.31-.65-1.13-1.14-1.13-1.62-1-1.95-.63-2.12-.51-2.26-.17-2.11.35-2,.8,1.79.16,1.62.33.66.33.64.48.65.8.49,1.3.8,1.47,1.14,1.46,1.47,1,1.62.65,1.79.48,1.63.17,1.79-.17,1.45-.65,1.95-.81L278,255.4l-2.11,1-1.62,1.13-.66,1,.16.32.82-.49,2.28-1,3.41-.65,4.07,1.95,4.38,1.61,4.71,1.47,4.89,1.13-.18.65-.48.67-.81.15-.81-.15-1-.5-1-.82-1.3-.79-1.95-.67-2.28-.64-2.61-.48h-2.59l-2.44.32-1.95.8-.82.67-.47,1,.81-.32h1l1.94.66,2.12,1.13,2.11,1.63,1.63,1.13,1.62.65,1.8.31h1.78l1.63-.16,1.62-.8,1.46-1,1.14-1.45,1-1.15.66-.48,3.57.33.65-2.77-3.74-.64.49-1.79.17-1-.17-1-1.3-2.09-2.27-2.12-1.3-1-1.47-.65-1.46-.5-1.63-.14-1.12-.18-1.14-.48-2.28-1.3-2.11-1.29-1-.34-1-.32,1.13,2.27.81,2.28.49,1.62.82,1.3,1.13,1.29,1.45,1,1.79.82,1.79.48,2.11.16h2.12l1.13.15.82.65.64,1,.33,1-4.55-1-4.72-1.47-4.54-1.78-4.39-2.12-1-1.3-.65-1.13-.65-2-.32-1-.33-.32-.17.32v1l.66,3.1-4.07-2.42,1.47-1.64.48-.82.33-1.3-.16-2.43-1.14-2.76-.82-1.31-1-1.29-1.3-1.13-1.3-.82-1-.65-1-.82L268,232.83l-1.3-2-.82-.81-.81-.68.17,2.45-.33,2.44-.16,1.63.16,1.61.65,1.64.81,1.46,1.31,1.45,1.45,1.13,1.8,1.16,1.94.8,1,.82.5,1.14.16,1.13-.32,1.13L268.27,245l-2.76-2.45-2.6-2.59-.65-2.12-.32-1.93.16-1.46.16-1.16v-.81l-.16-.49-.33.17-.33,1-.47,2.1-.16,2.28-3.59-4.86L258,232l1.14-.63,1.13-.82.81-1.31.32-1.11V226.8l-.32-3.08L260,220.78l-.81-1.3L258,218.35l-.82-1-.48-1-1-2.43-.81-2.28-.47-1-.5-.81-.64,2.43-.82,2.12-.64,1.61-.17,1.64v1.63l.49,1.78.82,1.63,1.14,1.62,1.46,1.46,1.61,1.3.49.65.32.65.16,1.47-.48,1.3-1,.79-2.11-3.56-1.95-3.75-1.63-3.9-1.46-4.06v-2.09l.33-1.81.64-1.46.49-1,.33-.82v-.47h-.33l-.65.81-1.14,1.63-.81,1.79-1.3-5.05,2-.32,1.14-.16.81-.65,1.14-1.79.48-2.59v-2.94l-.48-1.46-.49-1.45-.48-1-.33-1.13v-4.55l-.49-1.95-1.14,1.79-1.45,1.46-1,1-.66,1.3-.32,1.32v1.62l.16,1.63.49,1.78.81,1.94,1.13,1.79.33,1.13-.15,1.15L248,207l-.81.62-1.14-7-.64-7,.16-6.67.48-6.49,2.26.48h1.31l1.3-.32,1-.65,1-1,1.8-2.44.65-1.3.65-1.61.15-1.47v-2.93l.33-1.13,1-2.28,1-2.27.34-1.15.15-1L256.74,163l-2.11,1-1.62.82-1.31,1-1,1.3-.81,1.63-.49,1.78-.32,2v1.94l.32,2.29v.65l-.16.65-.81,1-1.14.82-1.14.16.66-4.22,1-4.23,1.3-4.38,1.45-4.23,1.95-1.62,1.64-1.13,1.46-.65,1.29-.33.82-.16.32-.33-.16-.14-1.14-.19-2.59.5-2.28,1,2.76-5.51,1.13.32,1,.81,1.13.66,1.46.14,2.44-.82,2.6-1.44,1.14-1.13,1.14-1.3.81-1.3.49-1.47.48-1.15.64-1,1.8-1.78,1.78-1.8.65-.8.48-1-2.43.66-2.28.16h-1.78l-1.47.49-1.46,1-1.45,1.14L261.77,146l-1,1.63-.65,2-.49,2.11-.33.66-.48.64-1.13.66-1.46.16-1.14-.5,2.44-3.9,2.6-3.58,2.93-3.39,3.23-3.1,2.28-.82,1.95-.15H272l1.3.31h1.3l-.16-.31-1-.48-2.26-.65-2.28-.17,5-3.58.65.81.65,1.14.81,1.13,1.31.67,1.13.31,1.31.17,2.91-.48,3.1-1.15,1.29-.82,1.14-1.13.81-.82,1.13-.63,2.28-1,2.44-.82,1-.48.81-.49-2.43-.47-2.28-1-1.62-.48-1.63-.32-1.63.15-1.62.51-1.79.8-1.45,1.15-1.46,1.44-1.47,1.8-.48.48-.66.31h-1.45l-1.29-.31-.82-.82,4.07-2.43,4.22-2.11,4.38-1.79,4.88-1.46v-.82l2.11.82,2,.49,1.94.31H300l3.09-.63,2.11-1Z" fill="#fff" stroke="#50d6cc" stroke-width="0.3"/><path d="M326.25,260l-2.43.49v2.93l2.75-.5.82.65.81,1.3,1.3,1.31,1.46,1.14,1.62.65,1.62.31,1.8-.16,1.78-.32,1.63-.65L341,266l2.11-1.64,2.12-1.13,1.95-.65,1.79.32-.49-.8-.82-.81-2.11-.82-2.28-.31h-2.59l-2.6.47-2.44.66-1.79.64-1.3.82-1,.8-1,.66-1,.15L329,264l-.48-.63-.32-.82,4.86-1,4.56-1.44,4.38-1.64,4.07-1.95,3.58.65,2.43,1,.66.49.16-.16-.49-1.13-1.79-1.16-2.27-1,5-3.25,2.11,1,1.47.48,1.63.17,1.79-.17,1.78-.32,1.63-.81,1.45-1,1.13-1.31.82-1.63.49-1.3.65-.8.65-.49.65-.32,1.63-.34,1.78-.14-1.95-.82-2.28-.33-2.11.16-2.11.49-2,.81-1.63.8-1.14,1.15-.64,1.13-.64,1.3-1,1.15-1,.8-1,.17-.65-.17-.48-.65,2.92-2.27,2.77-2.43,5-5.38,1.95-.62,2-.51,1.79-.17,1.29.17h.82l.15-.31-1-.66-2.27-.31h-2.76l3.41-4.71,2.44.31,1.79.17,1.78-.33,1.63-.66,1.45-1,1.14-1.32,1-1.61.65-1.62.32-1.79.32-2.75.66-2.28,1-1.78.64-.67.81-.64-1-.16-1.13.16-2,.8-1.94,1.47-1.79,1.95L377,224.25l-1.3,2.1-.66,2-.32,1.3-.16,1.29-.32,1.14-.49.82-.65.31-.82-.15-.64-.5,2.28-4,2.11-3.92,1.78-3.73,1.47-3.73,1.62-1.13,1.63-1.15,1.45-.65,1.3-.31.66-.35v-.14l-1.14-.33-2.11.33-2.43,1,1.45-5.67,1.79-.5,1.62-.65,1.46-.82,1.3-1.28,1-1.3.66-1.64.48-1.61.16-1.63-.16-1.63-.48-2.43v-2.12l.32-1.78,1-1.63-1,.33-.81.49-1.63,1.46-1.3,1.95-1,2.26-.82,2.29-.48,2.26-.15,1.79.15,1.31.16,1.13v1l-.32.8-.49.65-.64.17-.65-.17.81-4.87.48-5,.33-4.71L383.3,188l1-1.94,1.14-1.62,1.14-1.46,1-.82.66-.48v-.17l-1.14.17-1.95,1.3-2,1.78-.32-4.21,2-1.31,1.29-1.15,1.14-1.44.65-1.63.49-1.79v-1.63l-.32-1.78-.66-1.79-1-1.46-1.62-2.28-1.14-2.12-.49-1.93.33-2-1,.64-.65.82-1,1.95-.48,2.43v2.62l.48,2.59.5,2.27.64,1.94.81,1.31.82,1,.47,1,.16,1-.32.67-.48.31-.81.17-1-5L380.54,169l-1.46-4.55-1.79-4.06.65-3.58.81-2.6.49-.65-.16-.17-1,.66L377,155.68l-.82,2-2.27-4.4,1.13-1.79,1-1.63.48-1.78v-1.61l-.32-1.81-.66-1.62-1-1.62-1.14-1.3-1.45-1-2.44-1.63L367.71,136l-1.14-1.62-.32-.82-.17-1-.64.8-.32,1-.16,2.1.48,2.45,1,2.43,1.31,2.28,1.46,2,1.3,1.45,1.14,1,1.14.65.81.66.48.8V151l-.32.64-.65.33-2.6-3.9-2.93-3.75L364.45,141l-3.08-3.24-.81-2-.66-2.11-.32-1.79.16-1.46v-.65l-.32-.15-.66,1-.15,2.28v2.74l-4.55-3.41.32-2.43.16-1.79-.16-1.79-.64-1.62-1.14-1.46-1.13-1.3-1.63-1-1.62-.65-1.79-.33-2.77-.31-2.28-.66-1.78-1-.65-.67-.48-.8-.16,1v1l.8,2.12,1.47,1.94,1.95,1.79,2.1,1.46,2.11,1.3,1.8.8,1.46.33,1.3.17,1,.32.82.47.32.66-.16.82-.65.81-6-3.42-6.17-2.59-2.11-1L336.18,123l-1.62-1.93-.64-1-.33-1-.16-.5h-.33l-.15.17-.17.33.17,1.13.32,1.13,1,2.12-3.41-3.25-2.6-3.09-.65-.8-.82-.82-2.11-1.3-2.6-.82-1.14-.14-1.12.14.32,1.47.8,1.61,1.14,1.47,1.14,1-3.74.33-1.79.35-1.79,1,2.61,1.63,3.09,2.26,1.94,1,1.47.48,1.62.15h2l1.95-.32,1.93-.48,2.12-.82v1l4.88,1.46,4.39,1.64,4.22,2.1,4.06,2.45-.81.8-1.46.49-1.3-.16-.66-.33-.64-.49-1.3-1.78-1.46-1.47L342.86,129l-1.63-.81-1.62-.49-1.79-.16-1.63.33-1.46.49-2.28,1-2.44.5.82.65,1,.48,2.27.82,2.44.81,1,.63,1,.82,1.14,1.13,1.3.82,1.46.81,1.47.49,3.08.33,2.44-.33,1.3-.82.82-1.13.63-1,.66-1,5,3.58-2.28.32-2.27.48-1,.49-.16.33.32.16,1-.16,1.14-.33h1.63l1.95.33,2.28.65,3.25,3.07,2.92,3.42,2.6,3.75,2.43,3.73-1.13.49-1.47-.17-1.29-.63-.33-.66-.32-.64-.49-2.12-.81-2-1-1.63-1.12-1.47-1.31-1.13-1.46-.81-1.46-.49-1.79-.15-2.44-.16-2.43-.49.48.82.81.8,1.79,1.77,1.63,1.81.81,1,.33,1.15.65,1.44.8,1.47,1,1.15,1.3,1.12,2.61,1.62,2.27.66,1.46-.16,1.3-.66,1-.64,1-.47,2.77,5.51-2.27-.82-2.44-.48h-1.14l-.32.17.32.31,1,.33,1.14.16,1.63.64L374.2,161l1.79,1.62,1.62,4.22,1.14,4.38,1.14,4.23.65,4.24-1.14-.17-1.14-.65-1-1.13-.16-.65v-.65l.32-2.28.16-1.95-.32-1.94-.49-1.79-.81-1.64-1.14-1.29-1.13-1-1.63-.81-2.11-1-2.12-1.45.18,1,.32,1.15,1,2.26,1,2.28.32,1.31v1.13l-.16,1.61.32,1.48.5,1.62.8,1.47,1.8,2.42,1,.82,1,.66,1.29.31h1.3l1.13-.31,1.14-.17.49,6.49v6.67l-.49,7-1.14,7-.81-.65-.64-.8-.16-1.15.32-1.13,1.13-1.78.82-1.8.48-1.78.16-1.79V195l-.48-1.3-.66-1.3-1-1-1.3-1.47-1.3-1.78-.32,1.93v2.28l-.17,2.28-.17,1.14-.48,1-.65,1.45L374,199.7l-.15,2.94.64,2.57,1,1.81,1,.64,1,.32,1.95.17-1.14,5-1-1.79-1-1.64-.65-.8h-.48v.49l.48.82.49,1,.48,1.46.5,1.78v2.29l-1.47,3.89L374,224.56l-1.95,3.74-2.27,3.56L369,231l-.48-1.28.16-1.46.15-.65.65-.48,1.63-1.46,1.47-1.48,1.13-1.61.81-1.63.33-1.78.16-1.64-.16-1.61-.65-1.64-1-2.11-.48-2.43-.66.82-.47,1-.65,2.29-1,2.42-.65,1-.81,1-1,1.13-1,1.29-.65,1.47-.33,1.64-.48,2.9.48,2.44.81,1.3,1.14.82,1,.64,1,.65-3.57,4.88-.16-2.28-.48-2.1-.49-1-.33-.17-.16.51.16.95.16,1v1.62l-.16,1.77-.64,2.12-2.61,2.6-2.76,2.45-2.92,2.27-2.92,2.11-.33-1V247l.49-1.13,1-.66,2.11-1,1.79-1,1.46-1.29,1.14-1.45,1-1.46.48-1.64.33-1.61-.33-1.64-.31-2.43.15-2.44-.81.66-.65.8-1.3,2.12-1.46,2-1,1-1,.63-1.3.67-1.29,1.13-1,1.3-.8,1.29-1.14,2.77-.32,1.45v1.13l.32,1.15.65,1,1.45,1.46-4.23,2.6.82-3.1v-1.11l-.15-.33-.34.33-.32,1-.64,1.94-.65,1.14-1,1.3-4.39,2.11-4.54,1.78-4.71,1.47-4.55,1,.32-1,.65-1,.81-.65,1-.17h2.28l2.11-.16,1.79-.49,1.63-.79,1.47-1,1.29-1.3.81-1.31.49-1.63.65-2.26,1.31-2.28-1.14.31-1,.5-2,1.3-2.27,1.14-1.14.47-1.3.17-1.46.17-1.62.48-1.3.65-1.47,1-2.11,2.12-.81,1-.49,1.16-.15,1,.15,1,.49,1.8Z" fill="#fff" stroke="#50d6cc" stroke-width="0.3"/><polyline points="19.63 1.09 3.53 1.09 3.53 190.36" fill="none" stroke="#a3a3a3" stroke-linecap="round" stroke-linejoin="round" stroke-dasharray="5 5"/><polyline points="17.8 381.13 3.53 381.13 3.53 218.09" fill="none" stroke="#a3a3a3" stroke-linecap="round" stroke-linejoin="round" stroke-dasharray="5 5"/><path d="M3.57,200a3,3,0,0,1,3.07,3,4.79,4.79,0,0,1-1.86,3.34,13.93,13.93,0,0,0-2.89,3.3H6.34a.22.22,0,0,0,.18-.07.23.23,0,0,1,.23-.07v1.19H.53v-.75A12.64,12.64,0,0,1,3.61,206c.76-.69,1.85-1.62,1.85-2.92a2,2,0,0,0-2-2,2.2,2.2,0,0,0-1.81,1c-.09.14-.05.24-.15.39l-.87-.69A3.47,3.47,0,0,1,3.57,200Z"/><path d="M313,404.12a2.86,2.86,0,0,1,1.82,2.74,3.08,3.08,0,0,1-3.26,3.09,3.71,3.71,0,0,1-2.78-1.21l.89-1.07c.15.16.08.32.22.49a2.34,2.34,0,0,0,1.66.71,2.12,2.12,0,0,0,2.13-2.16c0-1.26-1.05-2-2.49-2a4.55,4.55,0,0,0-.53,0v-.95a4.27,4.27,0,0,0,1.67-.27,1.86,1.86,0,0,0,1.13-1.67,1.73,1.73,0,0,0-1.84-1.65,2.55,2.55,0,0,0-1.83.81l-.66-.73a3.45,3.45,0,0,1,2.55-1.13,2.79,2.79,0,0,1,2.91,2.68A2.44,2.44,0,0,1,313,404.12Z"/><polyline points="598.19 389.59 598.19 404.61 326.06 404.61" fill="none" stroke="#a3a3a3" stroke-linecap="round" stroke-linejoin="round" stroke-dasharray="5 5"/><polyline points="28.13 389.59 28.13 404.61 296.39 404.61" fill="none" stroke="#a3a3a3" stroke-linecap="round" stroke-linejoin="round" stroke-dasharray="5 5"/></svg>