<svg xmlns="http://www.w3.org/2000/svg" width="600" height="315.79"><path fill="#bf0a30" d="M0 0h600v315.79H0z"/><path fill="#fff" d="M0 24.29h600v24.29H0zM0 72.87h600v24.29H0zM0 121.46h600v24.29H0zM0 170.04h600v24.29H0zM0 218.62h600v24.29H0zM0 267.21h600v24.29H0z"/><path fill="#002664" d="M0 0h240v170.04H0z"/><path fill="#fff" d="M124.36 71.73L120 58.3l-4.36 13.43h-14.12l11.42 8.3-4.36 13.42L120 85.16l11.42 8.29-4.36-13.42 11.42-8.3h-14.12zM122.73 107.99l-2.73-8.4-2.73 8.4h-8.82l7.14 5.18-2.73 8.4 7.14-5.19 7.14 5.19-2.73-8.4 7.14-5.18h-8.82zM117.82 38.7l2.18 6.71 2.18-6.71h7.06l-5.71-4.15 2.18-6.72-5.71 4.15-5.71-4.15 2.18 6.72-5.71 4.15h7.06zM122.65 155.52l1.63-5.04-4.28 3.11-4.28-3.11 1.63 5.04-4.28 3.11h5.29l1.64 5.03 1.64-5.03h5.29l-4.28-3.11zM142.72 46.47l-2.73-8.4-2.73 8.4h-8.82l7.14 5.18-2.73 8.4 7.14-5.19 7.14 5.19-2.73-8.4 7.14-5.18h-8.82zM163.9 84.49h-8.83l-2.73-8.39-2.72 8.39h-8.83l7.14 5.18-2.73 8.4 7.14-5.19 7.14 5.19-2.72-8.4 7.14-5.18zM150.74 67.75h7.06l2.18 6.71 2.18-6.71h7.06l-5.71-4.16 2.18-6.71-5.71 4.15-5.71-4.15 2.18 6.71-5.71 4.16zM148.24 110.6l2.18-6.72-5.71 4.15-5.71-4.15 2.18 6.72-5.71 4.15h7.06l2.18 6.71 2.18-6.71h7.06l-5.71-4.15zM142.85 26.41l3.18 5.51.66-6.32 6.21-1.32-5.8-2.59.66-6.31-4.25 4.72-5.8-2.59 3.17 5.51-4.25 4.72 6.22-1.33zM162.41 46.46l3.18-5.5 6.21 1.32-4.25-4.72 3.18-5.5-5.81 2.58-4.25-4.72.67 6.32-5.81 2.58 6.22 1.33.66 6.31zM187.88 84.87l-5.8-2.59.67-6.31-4.26 4.72-5.8-2.59 3.18 5.51-4.25 4.72 6.21-1.33 3.18 5.51.66-6.32 6.21-1.32zM174.86 107.14l3.18-5.5-5.8 2.58-4.26-4.72.67 6.32-5.81 2.58 6.22 1.32.66 6.32 3.18-5.5 6.21 1.32-4.25-4.72zM135.27 134.28l.66-6.32-4.25 4.72-5.8-2.59 3.17 5.51-4.25 4.72 6.21-1.32 3.18 5.5.67-6.32 6.21-1.32-5.8-2.58zM164.59 16.36l1.64 5.04 1.63-5.04h5.3l-4.29-3.11 1.64-5.04-4.28 3.11-4.29-3.11 1.64 5.04-4.29 3.11h5.3zM196.43 104.29h5.29l-4.28-3.12 1.64-5.03-4.29 3.11-4.28-3.11 1.64 5.03-4.29 3.12h5.3l1.63 5.03 1.64-5.03zM100.01 54.86l7.14 5.19-2.73-8.4 7.14-5.18h-8.82l-2.73-8.4-2.73 8.4h-8.82l7.14 5.18-2.73 8.4 7.14-5.19zM87.66 92.88l7.14 5.19-2.73-8.4 7.14-5.18h-8.83l-2.72-8.39-2.73 8.39h-8.82l7.13 5.18-2.72 8.4 7.14-5.19zM80.02 61.03l-5.71-4.15 2.18 6.71-5.71 4.16h7.06l2.18 6.71 2.18-6.71h7.06l-5.71-4.16 2.18-6.71-5.71 4.15zM97.47 114.75h7.06l-5.71-4.15 2.18-6.72-5.71 4.15-5.71-4.15 2.18 6.72-5.71 4.15h7.06l2.18 6.71 2.18-6.71zM93.31 25.6l.66 6.32 3.18-5.51 6.22 1.33-4.26-4.72 3.18-5.51-5.8 2.59-4.25-4.72.66 6.31-5.8 2.59 6.21 1.32zM78.67 36.24l.66-6.32-4.25 4.72-5.81-2.58 3.18 5.5-4.25 4.72 6.21-1.32 3.18 5.5.66-6.31 6.22-1.33-5.8-2.58zM62.17 87l6.22 1.33-4.26-4.72 3.18-5.51-5.8 2.59-4.25-4.72.66 6.31-5.8 2.59 6.21 1.32.66 6.32L62.17 87zM71.35 105.82l.67-6.32-4.25 4.72-5.81-2.58 3.18 5.5-4.25 4.72 6.21-1.32 3.18 5.5.66-6.32 6.22-1.32-5.81-2.58zM108.98 139l6.22 1.32-4.25-4.72 3.18-5.51-5.81 2.59-4.25-4.72.66 6.32-5.8 2.58 6.21 1.32.67 6.32 3.17-5.5zM72.14 16.36l1.63 5.04 1.64-5.04h5.29l-4.28-3.11 1.64-5.04-4.29 3.11-4.28-3.11 1.64 5.04-4.29 3.11h5.3zM47.85 101.17l1.64-5.03-4.29 3.11-4.28-3.11 1.64 5.03-4.29 3.12h5.3l1.63 5.03 1.64-5.03h5.3l-4.29-3.12z"/></svg>