<svg xmlns="http://www.w3.org/2000/svg" width="296.47" height="300"><path d="M241.66 231.92l-.35 3.57v3.89l1.06 3.57 2.49 3.53-182-17-8.17-.69-5.33-13.88-3.2-7.47L42.3 200l-4.24-6.42-2.49-2.82-2.49-2.12h12.79l1.77-1.06 1.08-1.79v-2.1l-.72-2.21-2.12-2.1-3.55-2.16-4.26-1.41-4.63-1.06v-1.41l-15.27-7.11-8.54-4.63-7.09-5.32 11.34 4.64 19.55 6.37 23.81 6.78 24.88 6 3.91.69 4.61 1.06 43 6.41 41.59 5.3 5.67.71h2.84l14.94.35-.35-7.79h-1.79V184h43.73l.33-2.84 11.74 2.14 12.09 1.43 3.57.27 6.4.38-3.56 1.78-1.08 1.42-1.05 1.78-1.06 3.91-.36 4.26v3.92l.71 3.91-3.91.31-3.55.73-2.12 6.37-2.84 6.05v.73h-3.91l-2.84.72-2.5 1.06-2.12 1.75-2.49 7.83z" fill="none" stroke="#000" stroke-linecap="round" stroke-linejoin="round" stroke-width="2"/><path d="M247 248.27c3.53 0 5.67-.36 5.67-.69.35-2.16 1.08-6 1.43-10l-12.79-.35a12.4 12.4 0 005.69 11zm-4.63-19.51a10 10 0 00-.71 3.16 27.4 27.4 0 00-.35 5.32l12.79.37a83.19 83.19 0 001.42-9.22l-13.15.33zm13.15-8.2c-5.7 0-8.9.37-11.37 3.53a40.26 40.26 0 00-1.43 3.94l-.35.73 13.15-.37a29 29 0 000-7.83zm-42.65-33.76v8.2c3.92 0 7.83.36 11.38.36v-8.15zm-13.86 0l.36 7.79c3.9.37 8.53.37 12.79.37v-8.16zm41.24.37H225v8.15h15.29z" fill="none" stroke="#000" stroke-linecap="round" stroke-linejoin="round" stroke-width="2"/><path d="M96.31 123.92l3.55.31m-3.55 3.91l3.91.37m-3.91 8.56l5.34.31M96.31 142l6 .38m-5.7 12.4l7.46 2.16m-81.73 6.54L91 117.5" fill="none" stroke="#000" stroke-linecap="round" stroke-linejoin="round"/><path d="M212.87 186.8v8.2l11.38.36v-8.15l-11.38-.37M199 186.8l.36 7.79 12.79.37v-8.16H199M114.42 66.67V67c-.35 2.14-.7 3.89-4.25 4.95 4.25 1.45 7.81 0 7.81-2.12.37-2.1 2.86-3.89 6.06-3.89-3.92.06-4.28-1.39-9.62.73z" fill="none" stroke="#000" stroke-linecap="round" stroke-linejoin="round" stroke-width="2"/><path d="M126.51 56.41c1.79 3.16-.35 6.37-3.19 6-3.2-.68-8.17.73-8.9 4.26 5.34-2.12 5.7-.69 9.62-.69 8.52 0 4.26-7.14 2.47-9.61z" fill="none" stroke="#000" stroke-linecap="round" stroke-linejoin="round" stroke-width="2"/><path d="M125.81 55.68c.35.35.35.69.7.69 1.79 2.47 6 9.61-2.47 9.61 3.18 0 7.81-1.1 8.87-4.63.71-3.2-2.84-7.46-3.2-9.62a20.25 20.25 0 00-5.33 1.79 7.21 7.21 0 001.43 2.12z" fill="none" stroke="#000" stroke-linecap="round" stroke-linejoin="round" stroke-width="2"/><path d="M191.2 58.84c-7.83.73-12.09-.33-18.84-5-13.5-10.63-37-15.31-46.9-4.63-1.42 1.41-1.79 2.85-1.08 4.26a20.25 20.25 0 015.33-1.79c7.81-1.74 21.32-.31 29.15 5.74 8.16 6.35 21 11 30.91 11.71-1.06-2.84-.35-7.45 1.43-10.3zM97.72 62c-8.87-2.1-30.91-.69-31.61 10.34a10.58 10.58 0 017.81-3.2 31.62 31.62 0 015.34.69c5.31 1.06 13.5 1.06 17.4 1.06-.35-3.16-.7-6.05 1-8.89zM72.86 85.18c0 1.41-.36 2.47-2.85 3.88-3.55 1.79-12.44 7.11-14.21 14.56 5.32-5.31 11.37-9.57 15.29-10.62 3.53-1.1 4.26-2.51 5-4-.03-1.35-1.82-2.41-3.23-3.82z" fill="none" stroke="#000" stroke-linecap="round" stroke-linejoin="round" stroke-width="2"/><path d="M74.62 79.86c-2.82-3.57-2.82-7.48-.7-10.68a10.58 10.58 0 00-7.81 3.2 15.51 15.51 0 005 11.36c.71.34 1.06 1.06 1.77 1.4 1.41 1.45 3.2 2.51 3.2 3.92 1.41-2.1 1.41-5.67-1.44-9.24z" fill="none" stroke="#000" stroke-linecap="round" stroke-linejoin="round" stroke-width="2"/><path fill="none" stroke="#000" stroke-linecap="round" stroke-linejoin="round" d="M196.87 165.51l11.74-4.99M196.52 159.46l10.66-3.94M196.17 151.63l8.89-4.63M195.81 146.65l8.54-2.85M195.81 143.11l7.46-3.22M195.46 139.54l7.1-2.84M195.46 135.28l6.4-1.06M195.46 131.34l5.69-.32M195.11 127.08l4.61-.69M194.75 121.03h3.91M194.75 118.19l2.85-.32M181.96 166.57h9.24M182.66 160.52l8.9.31M183.02 155.16l8.54.36M183.37 150.2l8.19.33M184.1 144.49l7.46.37M184.43 139.54h7.13M184.8 134.56h6.76M185.51 129.96l6.05.34M185.51 126.39h6.4M186.22 122.13l5.69.38M186.57 117.87l5.34.32M51.9 176.87l.7 5.32.36 5.3 9.93 3.22V180.4l-11-3.53M84.57 185.74l-.33 9.95 10.66 1.75v-9.58l-10.33-2.12M68.6 182.19l-.37 9.93 10.67 2.47.36-9.93-10.66-2.47M196.17 198.16l.35 7.46 9.95.37-.35-7.45-10-.38M180.52 197.48v7.83l10.68.31.36-7.81-11-.33M212.16 198.54l.36 7.45h9.95v-7.45h-10.31M164.55 196.38v8.2l11 .31v-7.79l-11-.72M235.26 198.54h-7.1l.35 7.08h6.4l.35-7.08M116.21 191.06l.35 9.26 10.66 1 .33-8.52-11.34-1.78M100.57 189v9.2l10.66 1.42v-9.25L100.57 189M147.5 195l.33 8.52 11.73.73v-8.15L147.5 195M132.91 193.53l-.35-.31v8.89h.35l9.25 1 .35-8.87-9.6-.75M78.9 227.31l10.31 1.43.35-6.79-10.3-.69-.36 6.05M174.85 236.88l7.46.73.35-9.24-8.16-.37.35 8.89M197.25 239l9.57.73-.35-10-9.6-.36.38 9.62M150.32 234.41l8.54.69v-7.79l-8.89-.73.35 7.83M101.3 230.15l11.7 1.06v-7.1l-11.71-1.06v7.1M126.51 232.25l9.25 1.1v-7.83l-9.25-.73v7.46"/><path d="M236.32 106.14v2.12h2.49l1.44-.38.33-1.74zm-4 68.46l-1 9.37h6.39l.15-10m.32-25.76l.24-17.59h-2.14l-3.95 37.17m6.09-43.21H231l-.35 2.84 5.67 3.2h2.14l4.26-3.57v-2.47z" fill="none" stroke="#000" stroke-linecap="round" stroke-linejoin="round" stroke-width="2"/><path d="M238.81 108.26l-1.76 16.35h1.41zM191.56 56.72L188 85.86l2.12.36zM189.77 91.91h-2.14l-2.12 15.29h3.2z" fill="none" stroke="#000" stroke-linecap="round" stroke-linejoin="round" stroke-width="2"/><path d="M196.52 107.57l-7.81-.37h-3.2l-5.34-.36 1.43 7.46h6.76l8.51-.37zM189.77 91.91l3.9.35.71-5.67-4.26-.37-2.12-.31h-2.84l-.36 5.62 2.83.38zM82.1 180l3.91.72 4.61 1.06 4.63-63.62-4.25-.66-8.9 62.5M99.16 60.29L94.9 91.91l2.12.35zM94.19 96.89l-2.49 15.63h3.9l1.06-15.63z" fill="none" stroke="#000" stroke-linecap="round" stroke-linejoin="round" stroke-width="2"/><path d="M97 92.26l-2.12-.35h-3.53l.35 4.63 2.49.35h2.47l3.56.69.35-5.32zM91.7 112.52l-5.7-.34v5l5 .35 4.26.69 3.55.37.36-5.67-3.56-.37H91.7z" fill="none" stroke="#000" stroke-linecap="round" stroke-linejoin="round" stroke-width="2"/><path d="M256.22 144.86c-6.75.35-14.21 7.12-19.55 7.83-.35 1.41-.7 2.83-1.06 4.61 5.34 0 11.74-8.51 19.91-8.87a10.78 10.78 0 01.7-3.57zm-1.41 6c.35-.7.35-1.74.71-2.47-8.17.36-14.57 8.87-19.91 8.87a11.11 11.11 0 01-.7 2.85c5.67.41 12.79-8.48 19.9-9.21zm0 0c-7.11.73-14.23 9.62-19.9 9.25a27.82 27.82 0 01-.71 2.84c7.81-.37 13.86-8.2 20.61-9.26zm-6.05 11.72c5.7-3.53 16.71-4.61 22.75-1.06l1.06-3.2c-6.05-3.88-17.41-2.47-23.45.73-3.2 2.12-10.66 7.1-15.65 7.1a12.89 12.89 0 00-1.41 3.91c5 .73 13.15-5.69 16.7-7.44zm6.05-8.52c5.67-1.78 14.91-1.41 18.84.38l4.26-13.88c-5-3.53-13.5-2.16-20.26 0-1.43 4.26-2.84 9.24-2.84 13.13zm0-.37v0z" fill="none" stroke="#000" stroke-linecap="round" stroke-linejoin="round"/><path d="M256.22 144.86l-5 1.41-5.34 2.52-5 2.47-4.26 1.43-1.05 4.61 2.13-.35 2.1-1.06 4.64-2.85 5-3.2 2.85-1.05 3.2-.36z" fill="none" stroke="#000" stroke-linecap="round" stroke-linejoin="round"/><path d="M257.65 140.6a18.82 18.82 0 00-6 2.51c-5 2.48-9.24 4.95-14.94 6v3.57c5.34-.71 12.8-7.48 19.55-7.83.31-1.42 1.04-2.85 1.39-4.25zM254.81 150.9l-2.49.73-2.85 1.06-5 3.2-5 2.85-2.47 1-2.12.38-.71 2.84 2.85-.37 2.82-1.06 5-2.82 4.94-3.22 2.5-1 2.49-.75zM248.76 162.62c-3.55 1.79-11.71 8.21-16.7 7.48a10.65 10.65 0 01-.7 3.2c3.9 1.06 11.36-1.79 14.56-5 6.75-6 16.7-6 24.53-3.22l1.06-3.53c-6.04-3.55-17.05-2.46-22.75 1.07z" fill="none" stroke="#000" stroke-linecap="round" stroke-linejoin="round"/><path d="M248.76 162.62l5-2.1 6.4-1.06 6 .31 2.83.38 2.49 1.41 1.06-3.2-2.49-1.06-2.85-1-6.38-.37-6.36 1.07-5.34 2.14-7.12 4.21-4.63 2.16-3.91.68-1.41 3.91h2.14l2.12-.71 4.63-2.14 7.81-4.59z" fill="none" stroke="#000" stroke-linecap="round" stroke-linejoin="round"/><path d="M272.57 158.36l1.08-3.88c-3.93-1.79-13.17-2.12-18.84-.38v-.37c-6.75 1.06-12.8 8.93-20.61 9.26a10.32 10.32 0 00-.73 3.2c5 0 12.45-5 15.65-7.1 6.02-3.2 17.4-4.61 23.45-.73z" fill="none" stroke="#000" stroke-linecap="round" stroke-linejoin="round"/><path d="M254.81 154.1l4.61-.68 5.34-.38 4.94.38 3.93 1.06 4.26-13.88-2.14-1.06-2.1-.68-5.34-.38-5.34.69-5.32 1.43-2.13 6.77-.71 6.36z" fill="none" stroke="#000" stroke-linecap="round" stroke-linejoin="round"/><path d="M277.91 140.6l-7.46 24.49-6 19.57c1.41 0 2.47.35 3.55.35l11-48.31zm-170.22 44.06l-8.89-66.1m3.91 65l-4.61-65M197.6 184l-2.85-70m7.46 70l-7.1-70m19.54 70l-17.78-70 8.89 70m-14.91 10.62l1.06-80.29m-2.14 0l-3.91 80m-89.2-27.4l8.89 1.78m-8.89 4.26l10 1.79m-10 3.2l10.66 2.49m-11-62.21v64.73M197.25 184l15.62-7.1m-15.62 1.79l14.56-5.74M197.25 174l13.48-4.21m-13.86 1.06l12.8-5.32m-29.5 18.78h11m-10.32-4.95l10.32.36m-9.95-4.62l9.95.36m-9.6-4.3l9.6.37M179.47 193.9l7.45-79.6" fill="none" stroke="#000" stroke-linecap="round" stroke-linejoin="round"/><path d="M184.8 114.3l-9.59 79.23 5.67.75h2.84l4.64-80h-3.56" fill="none" stroke="#000" stroke-linecap="round" stroke-linejoin="round" stroke-width="2"/><path d="M184.8 114.3l-9.59 79.23 5.67.75h2.84l4.64-80zM33.06 181.13L2.5 155.89l30.56 32.7" fill="none" stroke="#000" stroke-linecap="round" stroke-linejoin="round"/><path d="M33.41 174.75l-.35 6.38v7.5M50.82 195c15.64 9.93 46.9 14.57 64.33 16 32 2.84 78.17 3.9 107 2.16.36 1.41 0 3.2 0 4.59-24.16 1.76-88.84-1.06-98.79-1.75-9.99-1.16-50.86-4.33-72.54-21zM212.87 186.8v8.2c3.92 0 7.83.36 11.38.36v-8.15zM199 186.8l.36 7.79c3.9.37 8.53.37 12.79.37v-8.16zM240.25 187.17H225v8.15h15.29z" fill="none" stroke="#000" stroke-linecap="round" stroke-linejoin="round" stroke-width="2"/><path d="M164.55 196.38v8.2c5.32 0 8.18.31 11 .31v-7.79c-3.9-.35-7.45-.72-11-.72zM247.35 189.27l-.73 10.31 2.5.37.35-10.68zM261.56 190.33h-1.79l-.35 10.3 1.79.38zM252 189.65l-.35 10.3 1.79.37v-10.67zM255.87 190l-.35 10.3 1.78.31.35-10.61z" fill="none" stroke="#000" stroke-linecap="round" stroke-linejoin="round"/><path d="M239.87 256.78s-7.45-32.32-8.16-35.5 2.14-5.67 3.9-1.08c1.44 4.26 13.51 36.58 13.51 36.58zM213.57 255.37s-5-30.18-5.67-33.38 2.12-7.83 3.91-.71c2.12 6.75 11 34.82 11 34.82zM189.77 254s-5-33.4-5.67-35.88 1.41-3.92 2.82-.37c1.08 3.57 10 36.25 10 36.25zM164.18 253.58s1.08-34.81 1.08-36.91c-.36-2.16 2.47-3.22 2.84 0 .33 2.83 3.53 36.58 3.53 36.58zM139.31 251.84s2.12-34.86 2.12-36.6c-.33-1.79 2.49-3.93 2.87 0s3.17 36.6 3.17 36.6zM112.31 251.49s7.81-35.19 8.16-37.33 2.12-2.12 2.12 0c0 2.51-1 37.68-1 37.68zM86 247.54s8.89-28.77 9.24-31.24a2.2 2.2 0 014.26 1.06c0 2.84-6.05 30.91-6.05 30.91zM57.92 245.42s14.94-27.34 16.35-30.18c1.43-3.2 4.28-2.14 3.2.37-1.41 2.1-12.78 29.81-12.78 29.81z" fill="#fff" stroke="#000" stroke-linecap="round" stroke-linejoin="round" stroke-width="2"/></svg>