<svg xmlns="http://www.w3.org/2000/svg" width="600" height="315.79" viewBox="0 0 600 315.79"><path fill="#bf0a30" d="M0 0h600v315.79H0z"/><path fill="#fff" d="M0 24.29h600v24.29H0zM0 72.87h600v24.29H0zM0 121.46h600v24.29H0zM0 170.04h600v24.29H0zM0 218.62h600v24.29H0zM0 267.21h600v24.29H0z"/><path d="M0 0h240v170H0z" fill="#002868"/><path d="M227.38 19.83L221.63 24l2.19 6.77-5.75-4.18-5.75 4.18 2.19-6.77-5.75-4.18h7.11l2.2-6.76 2.2 6.76zM199.36 19.83L193.61 24l2.19 6.77-5.75-4.18-5.75 4.18 2.19-6.77-5.75-4.18h7.11l2.2-6.76 2.2 6.76zM171.34 19.83L165.59 24l2.19 6.77L162 26.6l-5.75 4.18 2.22-6.78-5.75-4.18h7.11l2.2-6.76 2.2 6.76zM143.32 19.83L137.57 24l2.19 6.77L134 26.6l-5.75 4.18 2.2-6.78-5.75-4.18h7.11l2.2-6.76 2.2 6.76zM115.3 19.83L109.55 24l2.19 6.77L106 26.6l-5.75 4.18 2.18-6.78-5.75-4.18h7.11l2.2-6.76 2.2 6.76zM87.28 19.83L81.53 24l2.19 6.77L78 26.6l-5.75 4.18L74.41 24l-5.75-4.18h7.11L78 13.07l2.2 6.76zM59.26 19.83L53.51 24l2.19 6.77L50 26.6l-5.8 4.18L46.39 24l-5.75-4.18h7.11L50 13.07l2.2 6.76zM31.24 19.83L25.49 24l2.19 6.77-5.75-4.17-5.75 4.18L18.37 24l-5.75-4.18h7.11l2.2-6.76 2.2 6.76zM213.37 51l-5.75 4.18 2.19 6.76-5.75-4.18-5.75 4.18 2.19-6.76-5.75-4.18h7.11l2.2-6.77 2.2 6.77zM185.35 51l-5.75 4.18 2.19 6.76-5.79-4.19-5.75 4.18 2.19-6.76-5.71-4.17h7.11l2.2-6.77 2.2 6.77zM157.33 51l-5.75 4.18 2.19 6.76-5.77-4.19-5.75 4.18 2.19-6.76-5.73-4.17h7.11l2.2-6.77 2.2 6.77zM129.31 51l-5.75 4.18 2.19 6.76-5.75-4.19-5.75 4.18 2.19-6.76-5.75-4.17h7.11l2.2-6.77 2.2 6.77zM101.29 51l-5.75 4.18 2.19 6.76L92 57.75l-5.75 4.18 2.19-6.76L82.67 51h7.11L92 44.22 94.18 51zM73.27 51l-5.75 4.18 2.19 6.76L64 57.75l-5.75 4.18 2.19-6.76L54.65 51h7.11L64 44.22 66.16 51zM45.25 51l-5.75 4.17 2.19 6.76-5.75-4.18-5.75 4.18 2.19-6.76L26.63 51h7.11l2.2-6.77 2.2 6.77zM213.37 82.14l-5.75 4.18 2.19 6.77-5.75-4.19-5.75 4.19 2.19-6.77-5.75-4.18h7.11l2.2-6.76 2.2 6.76zM185.35 82.14l-5.75 4.18 2.19 6.77L176 88.9l-5.75 4.19 2.19-6.77-5.75-4.18h7.11l2.2-6.76 2.2 6.76zM157.33 82.14l-5.75 4.18 2.19 6.77L148 88.9l-5.75 4.19 2.19-6.77-5.75-4.18h7.11l2.2-6.76 2.2 6.76zM129.31 82.14l-5.75 4.18 2.19 6.77L120 88.9l-5.75 4.19 2.19-6.77-5.75-4.18h7.11l2.2-6.76 2.2 6.76zM101.29 82.14l-5.75 4.18 2.19 6.77L92 88.9l-5.75 4.19 2.19-6.77-5.75-4.18h7.11l2.2-6.76 2.2 6.76zM73.27 82.14l-5.75 4.18 2.19 6.77L64 88.9l-5.75 4.19 2.19-6.77-5.75-4.18h7.11l2.2-6.76 2.2 6.76zM45.25 82.14l-5.75 4.18 2.19 6.77-5.75-4.19-5.75 4.19 2.19-6.77-5.75-4.18h7.11l2.2-6.76 2.2 6.76zM213.37 113.3l-5.75 4.17 2.19 6.77-5.75-4.18-5.75 4.18 2.19-6.77-5.75-4.17h7.11l2.2-6.77 2.2 6.77zM185.35 113.3l-5.75 4.17 2.19 6.77-5.79-4.18-5.75 4.18 2.19-6.77-5.75-4.17h7.11l2.2-6.77 2.2 6.77zM157.33 113.3l-5.75 4.17 2.19 6.77-5.77-4.18-5.75 4.18 2.19-6.77-5.75-4.17h7.11l2.2-6.77 2.2 6.77zM129.31 113.3l-5.75 4.17 2.19 6.77-5.75-4.18-5.75 4.18 2.19-6.77-5.75-4.17h7.11l2.2-6.77 2.2 6.77zM101.29 113.3l-5.75 4.17 2.19 6.77-5.73-4.18-5.75 4.18 2.19-6.77-5.75-4.17h7.11l2.2-6.77 2.2 6.77zM73.27 113.3l-5.75 4.17 2.19 6.77-5.71-4.18-5.75 4.18 2.19-6.77-5.75-4.17h7.11l2.2-6.77 2.2 6.77zM45.25 113.3l-5.75 4.17 2.19 6.77-5.75-4.18-5.75 4.18 2.19-6.77-5.75-4.17h7.11l2.2-6.77 2.2 6.77zM227.38 144.45l-5.75 4.18 2.19 6.76-5.75-4.18-5.75 4.18 2.19-6.76-5.75-4.18h7.11l2.2-6.77 2.2 6.77zM199.36 144.45l-5.75 4.18 2.19 6.76-5.75-4.18-5.75 4.18 2.19-6.76-5.75-4.18h7.11l2.2-6.77 2.2 6.77zM171.34 144.45l-5.75 4.18 2.19 6.76-5.78-4.18-5.75 4.18 2.19-6.76-5.75-4.18h7.11l2.2-6.77 2.2 6.77zM143.32 144.45l-5.75 4.18 2.19 6.76-5.76-4.18-5.75 4.18 2.19-6.76-5.75-4.18h7.11l2.2-6.77 2.2 6.77zM115.3 144.45l-5.75 4.18 2.19 6.76-5.74-4.18-5.75 4.18 2.19-6.76-5.75-4.18h7.11l2.2-6.77 2.2 6.77zM87.28 144.45l-5.75 4.18 2.19 6.76-5.72-4.18-5.75 4.18 2.19-6.76-5.75-4.18h7.11l2.2-6.77 2.2 6.77zM59.26 144.45l-5.75 4.18 2.19 6.76-5.7-4.18-5.75 4.18 2.19-6.76-5.75-4.18h7.11l2.2-6.77 2.2 6.77zM31.24 144.45l-5.75 4.18 2.19 6.76-5.75-4.18-5.75 4.18 2.19-6.76-5.75-4.18h7.11l2.2-6.77 2.2 6.77z" fill="#fff"/></svg>