<svg xmlns="http://www.w3.org/2000/svg" width="600" height="400" viewBox="0 0 600 400"><path fill="#036" d="M0 0h600v400H0z"/><path d="M33.22 74.68c-16.92 56.4 51.1 102 97.44 61.08 48.6-51-5.63-119.94-61.95-97.94 41.1-7.07 65.6 40.42 38 70.05-26.71 27.27-75.42 9.35-73.49-33.19z" fill="#fff" fill-rule="evenodd"/><path d="M339.84 335.14a23.26 23.26 0 00-9.27-2.13c-3.47-.32-7-.17-10.46-.68-1.47-1.07-1.23-.12-1 .19-2 2.94-5.71 2.37-8.81 2.93-4.33.41-8.7.84-12.81 2.39-2.83.36-5.34-2.14-7.39-3.88a29.2 29.2 0 01-2-4.3c-5.94.16-11.91 0-17.84.17-2.57 1.64-5.53 2.71-7.54 5.08-1.52 2.13 2.55 4 4.64 3.48 1.06.7 4.82-.67 4.18 1.31-1 2.85-4.2 3.36-6.32 5.08-1.3 2.72 1.8 6.09 4.13 3.5 1.38-1.31 2.58-1.46 3.55.16 1.62 1.26-1.13 4.68 2.42 4.5 2.31-1.17 4.38-3.21 6.55-4.75 1.45-1.85 3.78-3.9 4.7-.41 2.11 1.81 4.77 1.36 7.3 1.19 3.12-.11 6.54-.52 8.33-3.45 2.9-1.39 5.68 1.44 7.14 3.72 2 1.29 5.24 1.46 4.24-1.81-.77-2.13-.11-4.39 2.46-3 2.82.54 5 2.67 7.7 3.42-.16-2.06-.19-5.92 2.66-3.29a24.1 24.1 0 007.81 4.19c.1-1.21-.22-2.54.17-3.67 1.87-1.92 5.61 3.71 4.79-.58.39-1.47-1.63-4.73.42-4.51a41.43 41.43 0 008.86 2.57c-1.98-3.35-5.56-5.18-8.61-7.42zM297.61 226.77c2-1.21-.2-1.15-1.28-1.86-.14 1.84-.49 4.15 1.28 1.86zM311 197.7c-.42 1.25-4.45 5-1.47 2.64 1.54-.94 1.76-.33 1.48-2.4v-.24z" fill="#fff"/><path d="M377.87 153.12c2 .7 6.17-.5 7 1.21 2 .65 5.58-.19 8.18 0 3.61-.31 7.57.18 11-.71 1.18-1.83 4.7-2.43 4.63-4.81-.23-2.2-.26-4.48-.62-6.65-.75-.82-.91-2.48-2.18-2.56a55.31 55.31 0 01-9.89-2.65c-6.71-.16-13.46-.1-20.15-.5-2.18-.14-4.76 1.82-7.25 1.68-3.86.39-7.79.07-11.53 1.26-1.44 1.12-3.44-.49-1.13-.78a32.7 32.7 0 018.8-1.24 23.63 23.63 0 008.93-1.57c1.73-1.18 2.11.82 2.45-1.36 1.59-.6 6.66-.17 5.46-1.84-6.25.21-12.51.28-18.77.4-2.25-.22-5.12 1.17-7.35 2.24-2.61 1.06-.46-1.59 1.16-1.66 2.77-1.64 6.22-1.24 8.91-3 4.2-2 8.15-4.44 12.25-6.6 1.07-.94 4-2.41.9-2.71-2.46-.57-5.09.85-7.64.88-3.36.59 0-2.34 1.27-2.9 3.92-2 7.76-4.23 11.51-6.57 1.19-.9 4.71-1.53 3.58-3-3.18 1.06-6.33 2.58-9.59 3.47-1.1.26-6.1.88-3.63-1.07 4.8-3.16 9.52-6.45 14.27-9.68 1.59-2.12.44-2.18-1.46-1.31-2.2.67-3.85 2.47-5.9 3.52-.7 1.23-4.65 2.28-2.55.14 2.12-1.85 4.2-3.75 6.42-5.49 1.12-1.56 2.27-5.28-.78-3.53-2 1-4.48 1.19-5.85 3.1-2.42 2.51-4.88 5-7.27 7.53-1.74-1.64 2.77-3.45 3.33-5.18 2-2.24 4-4.43 5.78-6.83.38-2 .46-3.35-1.54-2l-2.91 1.25c.29 2-4 4.15-5.39 6.17-2.31 2-5.46 2.8-7.5 5.16-1.62-1.74 2.85-3.06 4-4.08 3.25-1.58 5.45-4.57 8.07-7-2.86.58-6.17.46-7.85 3.32-4.34 4.13-8.57 8.4-13 12.41-5.42 3.75-10.92 7.44-16.48 10.95-2.55 1-6.16.18-7.37 3.25-2.12 3-4.64 5.66-7 8.45a10.89 10.89 0 017.27 1.15c2.2.77 4.08 2.3 6.2 3.25-.47 2.11-3.37 3.7-5.66 3.32-1.43 0-2.73-1-4.11-1.43.14-1.65 1.54-.32 2.48-.08a4.68 4.68 0 005.69-1c-.71-1.45-4.46-2.92-6.64-3.73-2-1.19-4.24-.37-6.38-.34-2.54.57.7-1.67 1.08-2.55a113.62 113.62 0 007.93-9.86c-.18-2.55 2.65-4.35 3.59-6.7 2.76-4.08 4.19-8.89 6.32-13.32.9-1.85.43-4 .67-6-.07-1.09.32-2.27-.06-3.29-2 3.62-4 7.25-5.89 10.9-2.33.13-.24-3.56.43-4.52 1.79-3.63 3.81-7.19 5.49-10.83.05-1.53.09-3.06.14-4.59-1.51-1.31-2.27 3.17-3.47 4.22-2.62 4.36-5 8.88-7.78 13.16-.26 1.45-3.16 2.5-2 .45 3.91-7.19 7.92-14.35 11.93-21.46 1.61-2.86 1.09-6.19 1.32-9.33-1.54-2.44-2.62 1.32-3.86 2.28-1.58 2-2.16 4.55-3.38 6.76-2 4.29-4 8.54-6 12.81-2.24-.93 1.29-4.28 1.32-6.16q2.9-7.45 5.75-14.91c-1-2-3.11 3.27-4.13 4.48-1.82 4.08-3.94 8-6 12-2.16-.94 1.32-4.26 1.22-6.07 1.05-3 2.42-6 3.44-9-.16-1.13 1.44-4.05 0-4.11-2.16 1-3.75 3.92-4.66 6.22-2.16 6.43-4.38 12.84-6.55 19.26-1.13 2.88-2.22 5.82-3.36 8.68-2.09-.29.82-3.86.66-5.39.69-3.14 2.23-6.21 2.36-9.42-.52-2.4.06-5.51-1.13-7.47-1.78 4.11-4 8-5.57 12.23-1.15 5-2.69 10-3.34 15.12a43.68 43.68 0 01-1.71 7.84c-2.13-.2-1.57-4-2.82-5.5-1.14-3.62-3.43-6.74-5.09-10.14-.84-.84-2.78-6.75-2.75-3.45-.19 2.38-.35 4.76-.57 7.13q-7.09-13.26-14.22-26.52c.39 2.87 0 6 1 8.68 2.3 5 4.4 10 6.6 15-1.16 1.09-1.39-.71-2-1.45q-6.57-11.59-13.13-23.19c-1.77 1.24-.54 3.53-.77 5.32.72 2.52 2.39 4.76 3.52 7.14 2.07 3.88 4.2 7.74 6.33 11.58-1.52 1.68-2.35-3.08-3.45-4.16-4-6.87-7.87-13.76-11.95-20.56a2.92 2.92 0 00-2 3.66 6 6 0 001.43 4.6q4.59 8 9.24 15.88c-1.05 1.21-1.37-.56-2-1.27L259.25 73.9c-1.21-.54-2.92-2-2.53.41-.57 3 2.7 5.13 3.78 7.74 4.42 6.84 9 13.72 13.38 20.49-.93 1.24-1.35-.34-1.94-1l-8.38-11.89c-1.05-.27-2.39-.95-2 .74-.07 1.08-.36 2.21.55 3 4.47 6.71 9 13.38 13.44 20.11 1.43 2.93 2.74 6 4.25 8.82l7.66 7.88c-1.84 1.48-3.69-3.21-5.52-4-1.93-2.18-4.53-3.91-5.62-6.7-1.32-2.07-2.08-4.54-4.13-6.06-2.26-1.7-4-4.79-6.63-5.56-.85 1.87-.16 6.08 2.39 7.53.25.7 3.82 3.1 1.86 2.61a47.1 47.1 0 01-11-3.1c-2.18 2.09 5.19 3.76 1.05 4.61-3 0-5.29-2.67-8-3.67-6.81-3.73-13.79-7.16-20.75-10.58l-4.34-1.3c-.4 2.52 3.54 3.23 4.85 5 5.28 2.86 10.7 5.56 16 8.43-.17 1.59-1.61.38-2.57.23L215.26 108c-1.66-.4-1.37.47-.7 1.6.17 1.29 1.46 1.36 2.46 1.73 7.78 2.61 15.55 5.25 23.33 7.84.31 1.23.57 2.47.83 3.7-1.76-1.45-3.51-3.12-5.93-3.28-5.06-1.25-10.28-.19-15.42-.13-2.74-.66-3.1 1.56-.37 2 2.2 1.7 5 .75 7.57.88q6.22-.18 12.44-.4c.74 2.36-4.05.78-4.23 2.7-.48 2.27 3.82 2.27 5.37 1.81 2.38 0 4-3.48 6-2.88-.52 2.26-4.48 2.76-4.93 5.09s4.47 1.65 5.84.65c1.59-1.32 4.33-3.32 4.48.23.46 3.2 4.7 2 7 3 4.1.63 8.3.89 12.36 1.56 3.89 1.76 7.79 3.51 11.67 5.29-.8 2.2-4.22-1.14-6-1-2.93-.82-5.64-2.49-8.76-2.52a27.55 27.55 0 00-8.11-.12c-8.2.69-16.41 1.24-24.6 2-7.62 1.29-15.26 2.52-22.88 3.78-1.94.6-6.15 1.73-2.12 2.51 8.66-.4 17.29-1.13 25.93-1.78.62 1.51-1.23 1-2.16 1.23l-21.55 2.19c-2.21 1.63-5.16 2.53-6.37 5.21.35 3.81 5.11.32 7.48.58a133.12 133.12 0 0018.39-3.95c1.79.14 6.25-3.05 6.52-.76-6.77 2.09-13.57 4.21-20.4 6.1l-4.36 1c-.43 3.5 4.86 1.46 7 2 4.74-1.11 9.26-3 14-4.35 2.5-.21 6.28-3.14 8.09-1.94-1.61 1.65-5.34 2.51-7.68 3.87-4.82 2.11-9.71 4-14.41 6.44-3.1 3.14 3.29 2.85 4.86 1.23 5-2.3 10-4.74 14.92-7.22 1.21 1-.57 1.49-1.2 2.18a66.48 66.48 0 01-8.66 6.18c-1.21 1-3.19 1.31-3.43 3.1 2.75 1.56 5.37-.34 7.83-1.56q9.65-6.26 19.48-12.21c2.83-1.27 5.73-2.37 8.61-3.52 1.11 1.1-.71 1.44-1.4 2.09-3.15 2.12-6.32 4.21-9.48 6.34-3.43 3.7-6.57 7.62-10.57 10.51a45 45 0 00-5.33 4.77c-3 3-6.06 5.87-9 8.89-.92 3.05-2.88 5.92-2.66 9.19 0 3.52-.37 7.08 0 10.58.37 1.46 1.2 4.77 1.49 1.46.16-1.52 1.2-6.74 2.33-3.08.61 1.38 1.22 5.51 1.95 4.79 1.07-2.12 1.27-5.1 3-6.7 1.54.89 2.75 3.1 4.21.56 1.86-2.16 1.59-5.41 2.51-8q1.18-5.13 2.39-10.24c1.46-.42 1.11 1.34 1.48 2.24.46 2.11.93 4.21 1.39 6.31 3.18-1.37 1.88-5.66 2.91-8.38.2-2 .85-7.39 3-3.3 1.29 3.08 4.84-.47 4.73-2.71.73-3.55 1.43-7.1 2.17-10.65.95 1.7 1.94 3.37 2.92 5.06 3.31-.15 4.45-3.48 6.6-5.45 1.94-2 3.66-4.33 5.81-6.08 2.44-1.26 4.73-2.94 7.24-4 2.46 2.27-1.25 5.33-2.64 7.27-3.11 3.84-6.95 7-10.2 10.73-1.29 1.48-3.3 2.73-2.76 4.94 1.63.72 3.34 1.39 5 2.12a74.66 74.66 0 00-7.45 3.83c-2.22 1.92-4.61 3.63-6.94 5.41-.63 1.69-1 3.6 1.46 2.9 1.79-.31 6.59.45 2.82 2.21-3.55 2.32-7.66 3.77-11.18 6.07-1 1.3-3.58 3.33-.4 3.24 2.12-.3 5.31-3.54 6.89-1.9-2.24 2.47-5.13 4.85-7.58 7.32-1.25 1-4 3.64-2.37 4.39 3.87-1.85 6.59-5.33 9.89-8 1.16-1.85 4.27-3.48 3.29.11-3.83 4.77-7.54 9.68-11.48 14.32.4 4.67 3.4-1.34 4.87-2.59 2.31-2.72 4.45-5.64 7.46-7.62 1-.23 3.81-4.16 3.95-2.55-.07 1.33.35 2.82-.79 3.86-2.38 3.21-4 6.89-5.93 10.36-.32 1.5-.65 5.81 1.51 3.78 2.58-4.81 5.73-9.31 7.76-14.41 2.08-4.36 3.49-9 5.23-13.53 1.47-2.19 2.19-1.45 2 .84.24 2.13.15 6.69 1.62 7 2.67-6.11 6-11.88 8.88-17.9 1-2.94 2.16-5.82 3.38-8.68 1.53-.16.83 1.51 1 2.48-.11 1.94.2 4-.15 5.85-1.66 4.76-2.9 9.66-5.21 14.17-1.4 2.89-3.38 5.5-4.74 8.41-1.35 1.77-.85 1.78.68.74 2.7-1.24 4.52-3.56 6.4-5.77 2.94-2.36.75 3 .08 4.16-1.61 4.54-2.65 9.32-4.46 13.81 0 1.36-.5 4.49 1.24 2.09 3.25-2.54 4.44-6.62 6.38-10.1 1.18 1.73 3.41 2.73 4.48.6-.18-2.69-1.42-5.47-.21-8.07a111.22 111.22 0 002.85-13.1c.32-2.68.5-5.4.84-8.07 1.49-.77.86 1.6 1 2.5v6.14c1.46.16 4.14-2.43 4.91-.73-1.48 1.26-3.73 2-5.07 3.42-.06 1.71-.11 3.42-.17 5.13l5.46-3.32c1.29.91-.42 1.54-1 2.29l-4.48 4.18c0 1.21-.05 2.41-.08 3.62 1.27-.4 2.54-.77 3.8-1.18 1 1.18-.75 1.45-1.49 2.06-.84.78-2.73.92-2.46 2.38-.09 3.69-.23 7.38-.38 11.06.67-1.31 3-4.49 2.67-4.67-.77 1.51-3.57 1.61-1.66 0 .79-1 5.11-4 3.59-1-1.49 2.14-2.78 5-4.34 6.76-.45 0-1 3.11.36 2.49 1.12.76 4.57 1.1 2.19 2.43a39.54 39.54 0 00-3.16 3c.07 3.09-.71 8.23-.1 10 .91-1.28 3.9-3.59 3.27-4.19-1.26.6-5.11.31-2.42-.67 1.65-.62 6.23-.79 3.3 1.79-1.56 2.78-5.28 3.66-4.58 6.7 0 2.25-.9 3.62 1.85 3.21 3.14-.27 3.36 2.79.53 3.63-1.95 1.14-3.66 1.06-2.48 3.65.61 1.7 4.8 2.85 3.75 4.61-.16-2-.6.76-1.69-1.23-1.33-1.07-3.06-3.6-2.49-.24l-.75 19.23c1.32-.4 3.67 1.45 3.69 2.31-1.36 1.26-4.62-4.26-3.77.12 0 2-.48 5.61-.08 6.52.66-.55 1.7 1 2.51 1.3l2.76 1.91c-.51 1.56-1.59 0-2.45-.46l-3-2.11c.24 2.61-.91 7.4.14 8.75 1.2.88 4.32 3.42 4.25 4.84-1.55.41-3.78-4.2-4.76-3.94l-.44 11.67c1.63.54 4.92 2.66 5.78 4-1.47 1.24-4.57-3.37-5.84-2.79-.23 3.15 0 6.36-.49 9.46-.6 2.26 5.62 1.71 4.28 4-2.3-.75-5.48-4-5.5.21-.49 3.38-3.57 6.83-1.17 10 .92 2.6 3.88 3.71 6.09 5 2.61-.41 5.12-1.7 7.84-1.81 4-.62 8.1-.84 12.09-1.49 1.69-1.23 3.79-2.39 1.24-4-2-2.49-1.55-6-2.72-8.86 0-2.3-.48-3.3-2.5-1.64-1.59.31-4.05 3.69-4.95 1.59 2.37-1.15 4.52-2.64 6.92-3.75a80.72 80.72 0 01-.81-9c-1.89 1.22-4.69 3.77-6.51 3.42.74-1.7 4.37-2.44 5.91-4.22 1.12 0 .39-1.61.58-2.55l-.08-7.87a10.93 10.93 0 01-6.51 3.82c-2-1.73 3-1.1 3.66-2.58 1.2-1.35 3.41-2.19 2.81-4.3l-.06-7c-1.54 1-4.37 4.71-5.87 3.18 1.62-1.44 5.11-2.81 5.84-5l-.09-9a12 12 0 01-6.63 4.45c-1.32 1.46-4 .16-1.33-.57s5.26-1.82 6.89-4.2c1.48-.79 1-2.2 1-3.66q0-3.23-.07-6.44c-3.13 2.77-6 5.85-9.06 8.66-1.64-1.73 3-3.23 3.7-4.94 1.54-1.85 4.16-3.64 5.35-5.23l-.07-7c-1.19 1.1-3.12 2.5-.68 1.18 1.1 1.23-.82 1.36-1.63 1.89l-3.33 1.56c-1.15-2.18 3.75-3.24 4.72-5.15 1.33.32.84-.92.9-2.21 0-1.63 0-3.27-.05-4.9-1.64 3-4.9 1.25-7.5.71-1.92-.16-.11-.74.69-1.22l6.18-3.32c1.16 1.18-.76 1.4-1.53 2l-3.83 2.08c2.29 1.28 5.09.46 5.79-1.76 0-3.92-.11-7.78-.3-11.71-1.81 1.81-2.84 3.8-5.09 4.61 1.05-.49 5.38.14 2.47.9-1.67.34-7.24.55-3.34-1.58a10.68 10.68 0 004.55-3.9c1.51-.87 1.49-1.46 1.29-3.23-.1-2.42-.21-4.83-.31-7.24-.91 1.12-4.81 4.2-3.81 4.19 1.16-.73 5.73-.94 3 .37-1.74-.11-5.5 2.32-6.12.19 2.43-1.39 4.21-3.57 6.24-5.48 1.18.15.4-1.6.55-2.67q-.43-10.87-.88-21.75c-1.14 1-5.91 4.87-4.16 1 1.17-1.34 2.36-3.68 3.66-4.14.85-.43.07-2 .27-2.91.2-2.22-1.16-4.11-1.82-6.15 0-.83-1.6-2.28-.28-2.53 1.45 1.23 2.13 4.56 3.3 6.53 1.78 4.11 3.81 8.14 5.38 12.34a52.42 52.42 0 011.91 10.6c.89-.33 2.55.21 2.48-1.18.21-1.36 1.2-2.76.33-4.07-3.9-10.61-8.33-21-12.45-31.52 1-1 1.3.37 1.68 1.19 2.4 4.78 4 9.92 6 14.88 2 5.37 4.15 10.72 6.59 15.92 3.76-2.19.65-6.1.12-9.28-1.75-5.81-4.12-11.42-6.16-17.14-.6-1-1.92-1.5-2.8-2.31-1.29-.95-2.62-1.91-3.89-2.86 1.06-2 3.41 1.52 5 1.69 2.79 2.95 3.48-1.58 6-2.1.69 2.55-4 4.62-1.51 7.56 1.81 6.17 3.43 12.41 5.83 18.38.39 1.08.8 2.16 1.19 3.24-.81 1.16.34 6.15 2 4.86.56-2.69 2.28-5.35.82-8.07-2.14-8.2-5.09-16.17-7.57-24.27 0-3 1.88 1.25 2.08 2.52 2.85 7.75 5.94 15.42 8.46 23.27-.54 2.31-.52 7.19 2.49 4.43.13-3.08.38-6.23-.91-9.14-2.6-6.93-4.67-14.07-7-21.11-1.33 1.44-3.82.06-4.21-1.53.45-3.5-2.44-3.4-5.05-3.18-1.14-.11 2-1.74 2.36-2.34 1.41-.77 4.41-3.14 1.52-3.78l-2.77-1.19a42 42 0 014.65-6.78c1.13-2.06.27-5.75-1.92-7-1.59-.87-1.41-2.89-2-4.38-.82-.87 0-2.56.67-1.29.41 1.42.82 2.83 1.24 4.25a6.26 6.26 0 013.44 6c1.09 2.48-1.78 4-2.84 5.86-.63.91-1.17 1.9-1.76 2.85 1.33.63 2.69 1.2 4 1.86.27 2.5-4 4.16-3.73 5 4.19-1.12 1.65 4.71 4.81 5.19 1.08 0 2-1.08 3-1.52 1.81.34-.76 1.19-.34 2 3.39 9.19 6.86 18.4 10.07 27.63-.3 3.34 2.88 3.77 4.86 5.16.27 1.78 1.13 5.16 3 4.43.08-4.76.38-9.55.4-14.3.27-1.63-2.49-5.57-.23-5.76 1.27 3.72 2.95 7.35 3.83 11.19.61 2.49-.61 6.53 3 6.9 1.58.65.36-5.08 2-3.52l2.8 2.21c3.78.1 1-4 1-6.16-1.19-3-2.32-5.95-3.5-8.91 1.76-.73-.94.26-.43-1.63-.41-2.92-2.3-5.12-4-7.41-.72-1.54-.67-3.38-2-1.18-1.6 1.32-.9 3.51.22 4.9 1.83 2.82 1.65 6.55 3.92 9.1 1 1.65 2.35 3.3 2 5.34.09.94.16 2.81-1 1.9-.15-1.59.43-3.31-.56-4.58-1.2-2.37-2.93-3.85-3.41-6.52s-2-5-3.15-7.4c.25-.58-3.76.33-3.45-.93 1.11-.15.91-.64 2.8-.22a3.94 3.94 0 00.45-5c-1.89-4.23-4.8-7.95-6.92-12-.54-2.68.53-6-2-7.85-2.66-2.59-4-6.07-5.49-9.39-1.7-2.38-4.48-3.78-6.47-5.94-1.08.34-5.15.47-3.13-.75 2.79-1.12 4.71.47 6.48 2.36 2 1.57 4.17 3.2 4.85 5.78a24.39 24.39 0 005.24 8.11c2 1.93 1 5 1.54 7.5 2.53 4.6 5.92 8.79 7.62 13.79-.36 2.19.61-.7 1.65-.44-.1-2.48.76-5.83-.84-8.14-1.67-3.11-3.62-6.11-5.13-9.29-1.06-2.26-2.35-5.1-3.52-7.57a54.78 54.78 0 00-4.71-8c1.68-1.76 2.56 3.32 3.87 4.2 3 5.22 4.8 11 8 16 .94 2.23 2.93 4.18 3.35 6.55.32 1.41-.56 6 .59 5.62.57-1.11 1.16-2.21 1.72-3.32.92-.43 2.74-.15 3-1.16.32-3.09-2.79-5.34-3.11-8.37a42.37 42.37 0 00-4.59-11.74c-2.21-4.85-5.46-9.16-7.2-14.22-.47-2.95 1.93.82 2 2.2 1.7 3.87 4.18 7.34 5.94 11.2a46.19 46.19 0 014.19 9.75 28.52 28.52 0 003.66 9.1c.29 1.3 0 2.31 1.07 2.43.51 1.19-2 .58-1 2.41.28 1.15-.3 5.47-1.16 3 .08-2 1-5.33-1.86-3.77-.78.66-1.07 1.94-1.66 2.83-.49 1.22-2.32 1.14-1.07 2.87 1.62 2.42 3.78 4.57 4.21 7.58.34 2.69 2.57 4.51 3.92 6.83 1.47 1.5 3.18 6.11 4.65 5.28.66-2.86-1.85-4.76-2.77-7.25-2-4.2-3.75-8.49-5.62-12.73 1.52 1.1 3.46 1.74 4.33 3.54 3.49 4.65 6.93 9.35 10.51 13.92 3.76 1.81 1.45-2.88.31-4.35-2.87-5.79-6.8-11-10.18-16.45-.74-.75-3.09-4.4-.89-3.28l11.59 14.32c1.31.89 3.67 1.63 2.89-.59-3.32-6.05-7.54-11.55-11.23-17.38-3.86-5.49-7.14-11.36-10.61-17.12 1.83-1.47 4.22 2.23 6.25 2.72a41.15 41.15 0 018.81 6.6c4.48 3.9 8.79 8 13.45 11.71 2.32 1.27 4.13 3.49 6.63 4.32 0-.84-2.56-4-1.47-4a42.59 42.59 0 017.51 3c1.62.8 6.69 2.71 4.15-.6-.81-1.65-4.66-2.54-4-4.34.72-.38 1.88.82 2.76 1a17.33 17.33 0 006.66 2.11c3.41-.15 1.26-3.71-1-3.73-5.29-2.82-10.54-5.72-15.8-8.58 1.09-2.21 4.66 1.3 6.72 1.19 1.2-.38 5.62.53 4.07-1.56-.65-.8-2-.83-2.94-1.32-7.21-2.61-14.44-5.19-21.64-7.82-3.08-2.07-6.2-4.08-9.29-6.12.47-1.89 3.57.55 5.11.36a31.34 31.34 0 008.21 1.25c1.8.05 5.58.51 6.23.21-1.19-.65-6.45-2.17-3.45-3 1.51-.09 6.24-.19 2.21-.34-2.86-.3-5.86-.19-8.62-.95.22-.93 1.65-.54 3.52-.34zM295 266.54v-.48c1.52.92 5.4 1.15 5.3 2.88-1.05-.16-5.07-1.09-5.3-2.4zm13.64-46.74c-2.6 2.12 3.1-2.1 2.65 0-1.1.77-5.06 3.26-6.43 1.88 1.71-1.95 4.17-3.22 5.77-5.4 2.43.07-1.27 2.48-1.95 3.52zm1.64-13.11l.05-.05c2.91.49-3.62 3.29-2.22 3.36.86-.62 2.68-.54 1.73.54l-4.24 1.31c-1.02-2.27 3.62-3.39 4.72-5.16zm3.87-46.34c-.81 1.37-1.19 4.68-3.52 3.35 1.69 1.73-.23 5.37-2.31 4.76-.47-1.55-.5-3.35-.75-.71-.07 2.19-1.61 3.93-2.4 5.92-1.9 1-5.32 2.18-4.07-1.35a61.59 61.59 0 000-11.36c0-1.25.64-5.15 0-4.39-.87 1.77-1.71 3.57-2.58 5.34-1.09-1.62-.66-5.44-3.22-5-1.42-.28-1.92-2-2.27.32-.63.68-1.41 4.48-2.54 2.77-.28-2.09-.11-5.34-2.49-2.79-.44-1.7-.86-3.41-1.29-5.11 1.41-.86 1.16 1.07 1.54 1.95-.09 2.89 3 .07 3.37-1.42l.65-1.34c2.46 1-2 3.44-1.27 5 .11 1.67.31 2.86 1.1.55.36-1.08.69-2.18 1.08-3.25a4.68 4.68 0 004.18 2.57c.8 1.38 1.19 4.51 2 1.62a19.83 19.83 0 012.49-4.44c1.81 1-.25 4.73.28 6.62-.15 3 .48 6 .06 9 .26 1.78-1.5 6.3 1.66 4.14 1.1-.52 1.24-2 1.91-3 1.21-2.34.76-5.19 1.55-7.67 2.35-.6.22 6.52 2.48 4.26.66-2.41-1.13-4.44-1.32-7.1v-4.74c1.57-.47.85 1.34 1 2.28a11.31 11.31 0 00.91 5.53c2.59 1.39 2.17-3.42 4.23-4.38 2.24-.9 1-5.57 3.25-5.06a11.51 11.51 0 01-3.67 7.13zm17.69 3.65c2.68 5.44 5.52 10.81 8.4 16.16 1.56 3.79 3.44 7.5 4.09 11.58-.61 1.94 4 4.57 1.73 5.08-2.47-1.93-2.72-5-3.4-7.8a79.45 79.45 0 00-6.51-14.42c-1.86-3.3-3.44-6.74-5.17-10.1zm-4.63 9.2c1.65.27 1.23 2.61 2.72 3 3.77.22-.41 5.58 3.47 4.79 1.86 1.46-.1 5.25 2.82 6.22 2.42 1.16 1.73 4 2.86 6 .27 1.52 1.15 1.3 2.2.54.78-.52 2.35-1.32 2.05.11l-4.09 2a18.37 18.37 0 01-2.29-6.67c-2.14-1.6-4.07-3.38-3.73-6.32.5-2.24-3.78.05-2.65-2.78 1.48-2.88-1.84-2.51-2.52-4.44-.19-1.93-3.09-1.62-3.26-3.32.48-.84 1.08-1.6 1.56-2.44 2.57.34-2.35 3.01.86 3.31zm5.35-20.81c.53-2.08 2.38-4.65.81-7-.2-2.62-2.92-3.35-4.77-4.61l-4.16-1.48.35-.93c2.34.88 4.83 1.44 6.8 3 2.56.91 2.68 3.83 3.42 6 .07 1.47-1.16 5.99-2.45 5.02zM345 133.82c-1.91.48-1.1-3.75-3.37-4.14-1.05-1.81-2.38-1.35-3.79-.35-1.12.6-2.27 1.17-3.37 1.8-1.88-2.56.2-4.63 2.9-4.94s4.24-2.73 6.26-4.27h.25c.5 2-2.49 2.89-3.72 4.42-1.55.58-7.08 1.94-4.7 3.18l4.72-2.5c2.02 1.84 5.06 3.88 4.82 6.8zm8.31-3.28c-1.72.83-3.46 3.38-5 3.36-1.7-.33 2-2 2.63-2.89 2.15-1.72 4.34-3.31 7.18-3.63.2 2.24-3.74 1.27-4.8 3.16zm51.59 20.38c-3.35.7-6.77-.23-10.15.2-2.7.95-4.92-1.33-6.86-1.83a7.86 7.86 0 01-4.68.92h-7.06c-.48-1.57 1.33-.86 2.27-1h7.07a18.21 18.21 0 013.09-1.14c2 2.11 4.9 2.48 7.81 2 3.41-.22 6.91.71 10.22-.57 2.89-.28-.2 1.61-1.7 1.42zm2.73-6.93c-.47 2.08-4.83.07-6.69.7a109.07 109.07 0 01-16.46-1c-1.06 0-1.38-.14-1.21-1.16a96.16 96.16 0 0014.78 1.07c3.13.21 6.78-.11 9.59.4zm-32.82-4.15A15.17 15.17 0 00383 139c2.46-.44 5.06-.14 7.56-.41 4.74.2 9.53.4 14.24.86.53.55-.94.59-.73.88-6.11-.28-12.22-1-18.33-.52-2.87-.36-5.37 1.82-8.27 1.21-1.47.29-5.08-.54-2.65-1.18z" fill="#fff"/><path d="M297.06 249.5c1.68-.74 2.95-2.06.23-2l-1.82-.28c-.04 1.69-.7 4.44 1.59 2.28z" fill="#fff"/></svg>