<svg xmlns="http://www.w3.org/2000/svg" width="600" height="410" viewBox="0 0 600 410"><title>flag-north-carolina-dimensions</title><rect x="46.69" y="1.93" width="549.52" height="366.32" fill="#fff" stroke="#50d6cc" stroke-linecap="round" stroke-linejoin="round"/><line x1="596.21" y1="185.15" x2="229.89" y2="185.15" fill="none" stroke="#50d6cc" stroke-linecap="round" stroke-linejoin="round"/><line x1="229.89" y1="1.9" x2="229.89" y2="368.25" fill="none" stroke="#50d6cc" stroke-linecap="round" stroke-linejoin="round"/><path d="M74.09,87.85c-11.45,6.4-13.53,9.06-19.81,14l13.92.29c-.16,1.3-3.2,17.43-3.49,18.57,10.48-7,15.45-10.15,29.75-14.18,5.68-1.58-.45-7.35-1-8.89A37.22,37.22,0,0,0,83.69,104" fill="none" stroke="#50d6cc" stroke-linecap="round" stroke-linejoin="round" fill-rule="evenodd"/><path d="M83.87,103.86c21.35-19.55,92-19.09,111.68.61.63-.23,13.36-21.7,12.73-21.48-38.63-27.06-107.85-22.42-136.9-1.07l.34,1.28Z" fill="none" stroke="#50d6cc" stroke-linecap="round" stroke-linejoin="round" fill-rule="evenodd"/><path d="M69.73,213l7.3.1-.23-31.65,14,31.81h7.6V166.74l-7.42.1.11,29.43L78,167l-8.17.1Z" fill="none" stroke="#50d6cc" stroke-linecap="round" stroke-linejoin="round" fill-rule="evenodd"/><path d="M203.22,181.51H211l-.1-4.11a13.23,13.23,0,0,0-3.83-8.48,12.61,12.61,0,0,0-6.47-3.76c-2.27-.89-7.82-.63-10.64,1-3.33,1.86-6.15,5.18-8,10.52-2.46,9-1.35,20.29.21,25.59,1.86,5.63,4.78,8.63,8.66,10.52a19.4,19.4,0,0,0,10.58.37c4.3-1.63,6.27-4.45,8-7.46a21.81,21.81,0,0,0,2-10.28l-8.12.1a21,21,0,0,1-.71,5c-.92,2.22-2.34,3.7-5.87,3.7a6.21,6.21,0,0,1-5.28-2.72c-1.79-1.73-2.25-5.58-2.37-6.67a38.74,38.74,0,0,1,.86-14.94,8.56,8.56,0,0,1,3-4.93,8.08,8.08,0,0,1,6-.67,5.7,5.7,0,0,1,3.87,3.58A15.49,15.49,0,0,1,203.22,181.51Z" fill="none" stroke="#50d6cc" stroke-linecap="round" stroke-linejoin="round" fill-rule="evenodd"/><path d="M158.06,214.55,140.62,201l-17.9,13.47,7.1-21.09L111.67,180l21.82.52,6.68-21.72,6.4,21.41,22.27-.07L151,192.87Z" fill="none" stroke="#50d6cc" stroke-linecap="round" stroke-linejoin="round" fill-rule="evenodd"/><path d="M83.93,103.88c.77.78,2.29.59,4.39.19,1.67-.2,3.58-.28,5.08-.45,2.48.2,3.9.78,2.88,2" fill="none" stroke="#50d6cc" stroke-linecap="round" stroke-linejoin="round"/><path d="M205.43,88.54c11.45,6.4,13.53,9.06,19.8,14l-13.92.29c.17,1.3,3.21,17.43,3.5,18.57-10.48-7-15.46-10.15-29.76-14.18-5.68-1.58.66-7.45,1.25-9a28,28,0,0,1,9.53,6.49" fill="none" stroke="#50d6cc" stroke-linecap="round" stroke-linejoin="round" fill-rule="evenodd"/><path d="M195.42,104.57c-1.29.59-2.62.33-4.22.19a46.2,46.2,0,0,0-5-.54c-2.87,0-3.91,1.22-3,2" fill="none" stroke="#50d6cc" stroke-linecap="round" stroke-linejoin="round"/><path d="M87.54,95.38c-.1-.28-6.2-11.64-6.2-11.64l10,8.8L89,79.68l6.54,11" fill="none" stroke="#50d6cc" stroke-linecap="round" stroke-linejoin="round" stroke-width="2.29"/><path d="M123.77,75.75c0-3.47,2.82-3.71,4.74-3.11a4.14,4.14,0,0,1,.37,5.25l-2.71,2.3c-.93,1.17-2,2.51-1.9,4l6.11-.23" fill="none" stroke="#50d6cc" stroke-linecap="round" stroke-linejoin="round" stroke-width="2.29"/><path d="M134.86,72a3.27,3.27,0,0,0-1.75,2.69,28.94,28.94,0,0,0,.21,6.38,4.2,4.2,0,0,0,1.33,2.47,2.58,2.58,0,0,0,2.54.07,3.71,3.71,0,0,0,1.57-2.41,21.24,21.24,0,0,0,.1-6.85,4,4,0,0,0-1.4-2.34A3.32,3.32,0,0,0,134.86,72Z" fill="none" stroke="#50d6cc" stroke-linecap="round" stroke-linejoin="round" stroke-width="2.29"/><path d="M164.05,75.38a7.46,7.46,0,0,0,3-2.22l-1.72,12.1" fill="none" stroke="#50d6cc" stroke-linecap="round" stroke-linejoin="round" stroke-width="2.29"/><path d="M173,74.76l5.81,1.7a51.63,51.63,0,0,0-6.88,10.42" fill="none" stroke="#50d6cc" stroke-linecap="round" stroke-linejoin="round" stroke-width="2.29"/><path d="M183.75,77.77l5.63,2.78a35.18,35.18,0,0,0-8.51,8.89" fill="none" stroke="#50d6cc" stroke-linecap="round" stroke-linejoin="round" stroke-width="2.29"/><path d="M198,85.05l-3.69-2.16-3.25,4.41c2.34-.47,3.91.24,4.58,2.36.41,3.13-1.46,4.92-3.49,5s-3.23-1.22-3.53-3.67" fill="none" stroke="#50d6cc" stroke-linecap="round" stroke-linejoin="round" stroke-width="2.29"/><path d="M98.67,89.11S99,76,99.16,76c0-.53,7.41,10.89,7.41,10.89h0" fill="none" stroke="#50d6cc" stroke-linecap="round" stroke-linejoin="round" stroke-width="2.29"/><path d="M98.91,84.43l5-1.47" fill="none" stroke="#50d6cc" stroke-linecap="round" stroke-linejoin="round" stroke-width="2.29"/><path d="M141.48,76.54c2.22,0,4.36.13,4.36.13" fill="none" stroke="#50d6cc" stroke-linecap="round" stroke-linejoin="round" stroke-width="1.65"/><path d="M152.89,84.69c.62-7.59-.37-7.86-4-7.84" fill="none" stroke="#50d6cc" stroke-linecap="round" stroke-linejoin="round" stroke-width="1.65"/><path d="M143.21,73.26,143.05,82c0,1.67.49,2.14,1.94,2.14" fill="none" stroke="#50d6cc" stroke-linecap="round" stroke-linejoin="round" stroke-width="1.65"/><path d="M105.75,74.41l5.43,5.51,1,6" fill="none" stroke="#50d6cc" stroke-linecap="round" stroke-linejoin="round" stroke-width="2.29"/><path d="M114.28,72.51l-3,7.67" fill="none" stroke="#50d6cc" stroke-linecap="round" stroke-linejoin="round" stroke-width="2.29"/><path d="M148.29,73.64,148,84.21" fill="none" stroke="#50d6cc" stroke-linecap="round" stroke-linejoin="round" stroke-width="1.65"/><path d="M74.55,285.78c-11.45-6.25-13.53-8.86-19.8-13.66l13.92-.28c-.17-1.27-3.21-17-3.5-18.16,10.48,6.81,15.45,9.93,29.75,13.87,5.68,1.54-.44,7.18-1,8.69A37.11,37.11,0,0,1,84.15,270" fill="none" stroke="#50d6cc" stroke-linecap="round" stroke-linejoin="round" fill-rule="evenodd"/><path d="M84.34,270.12c21.35,19.13,92,18.67,111.67-.59.63.23,13.36,21.23,12.73,21-38.63,26.47-107.85,21.93-136.9,1.05l.34-1.25Z" fill="none" stroke="#50d6cc" stroke-linecap="round" stroke-linejoin="round" fill-rule="evenodd"/><path d="M84.4,270.11c.76-.77,2.28-.58,4.38-.19,1.67.2,3.58.28,5.08.44,2.48-.19,3.9-.76,2.88-1.91" fill="none" stroke="#50d6cc" stroke-linecap="round" stroke-linejoin="round"/><path d="M205.89,285.11c11.45-6.26,13.53-8.86,19.8-13.66l-13.92-.29c.17-1.26,3.21-17,3.5-18.16-10.48,6.81-15.46,9.93-29.75,13.87-5.69,1.54.65,7.29,1.24,8.79a27.86,27.86,0,0,0,9.53-6.34" fill="none" stroke="#50d6cc" stroke-linecap="round" stroke-linejoin="round" fill-rule="evenodd"/><path d="M195.88,269.44c-1.29-.59-2.61-.33-4.22-.19a46.33,46.33,0,0,1-5,.52c-2.87,0-3.91-1.19-3-2" fill="none" stroke="#50d6cc" stroke-linecap="round" stroke-linejoin="round"/><path d="M139.54,295.2c.92-3.15,3-2.77,4.89-2.33,1.5,1,1.71,3.83.28,5.47l-2.63,2A4.54,4.54,0,0,0,139.9,304l6.37-.12" fill="none" stroke="#50d6cc" stroke-linecap="round" stroke-linejoin="round" stroke-width="2.29"/><path d="M133.11,294.78a5.16,5.16,0,0,0,2.31-2.16L134.93,304" fill="none" stroke="#50d6cc" stroke-linecap="round" stroke-linejoin="round" stroke-width="2.29"/><path d="M119.06,289.76c0,.07-1.94,11.92-2,12.4l6.18.88" fill="none" stroke="#50d6cc" stroke-linecap="round" stroke-width="2.29"/><path d="M111.81,301.53l1.9-12.93" fill="none" stroke="#50d6cc" stroke-linecap="round" stroke-linejoin="round" stroke-width="2.29"/><path d="M89.77,294.75l4.7-11.95c1.42.71,3.23,1,4.8,2.38,1,1.69.55,5.16-2.37,5.49A15.48,15.48,0,0,1,92.54,289" fill="none" stroke="#50d6cc" stroke-linecap="round" stroke-width="2.29"/><path d="M166.79,292.33a7.88,7.88,0,0,0,2.09-3.3l2.41,12.69" fill="none" stroke="#50d6cc" stroke-linecap="round" stroke-linejoin="round" stroke-width="2.26"/><path d="M172.22,288.68c.15,0,6.16-2.14,6.16-2.14a66.75,66.75,0,0,0,.22,13.1" fill="none" stroke="#50d6cc" stroke-linecap="round" stroke-linejoin="round" stroke-width="2.29"/><path d="M181.54,285.45,187.7,283c-.26,4.66-.55,9.63.31,13.13" fill="none" stroke="#50d6cc" stroke-linecap="round" stroke-linejoin="round" stroke-width="2.29"/><path d="M196.19,280.62a2.67,2.67,0,0,0-3.29-1.2,4.56,4.56,0,0,0-1.77,3.7,12.57,12.57,0,0,0,1.41,5.32,4.72,4.72,0,0,0,2.77,2.86,2.42,2.42,0,0,0,2.72-.45,5.2,5.2,0,0,0,.89-3.24,4.26,4.26,0,0,0-2.24-3.37,2.67,2.67,0,0,0-2.52-.12c-1.49.89-1.77,2.52-1.54,4.19" fill="none" stroke="#50d6cc" stroke-linecap="round" stroke-linejoin="round" stroke-width="2.29"/><path d="M147.8,296.23c2.22-.1,4.37-.16,4.37-.16" fill="none" stroke="#50d6cc" stroke-linecap="round" stroke-linejoin="round" stroke-width="1.65"/><path d="M149.32,292.84l.4,8.78c.09,1.67.63,2.11,2.08,2" fill="none" stroke="#50d6cc" stroke-linecap="round" stroke-linejoin="round" stroke-width="1.65"/><path d="M153.61,292.75l1.22,10.5" fill="none" stroke="#50d6cc" stroke-linecap="round" stroke-linejoin="round" stroke-width="1.65"/><path d="M159.71,303.05c-.45-7.6-1.47-7.73-5.09-7.2" fill="none" stroke="#50d6cc" stroke-linecap="round" stroke-linejoin="round" stroke-width="1.65"/><path d="M78.75,289.42s9.44-9.92,9.53-9.81c.41-.38-1.86,13.59-1.86,13.59h0" fill="none" stroke="#50d6cc" stroke-linecap="round" stroke-linejoin="round" stroke-width="2.29"/><path d="M82.2,286l4.9,2.35" fill="none" stroke="#50d6cc" stroke-linecap="round" stroke-linejoin="round" stroke-width="2.29"/><path d="M100,299c0-.07,3.44-12.83,3.44-12.83,1.47.36,3,.58,4.41,1.07a2.84,2.84,0,0,1,1.9,3.51,5,5,0,0,1-1.67,2.89" fill="none" stroke="#50d6cc" stroke-linecap="round" stroke-width="2.29"/><path d="M102,292.45l4.7,1.2a2.45,2.45,0,0,1,1.57,1.63c.24,1-.55,5.52-.55,5.52" fill="none" stroke="#50d6cc" stroke-linecap="round" stroke-linejoin="round" stroke-width="2.29"/><line x1="22.54" y1="194.94" x2="22.54" y2="197.44" fill="none" stroke="#a3a3a3" stroke-linecap="round" stroke-linejoin="round"/><line x1="22.54" y1="202.57" x2="22.54" y2="364.07" fill="none" stroke="#a3a3a3" stroke-linecap="round" stroke-linejoin="round" stroke-dasharray="5.13 5.13"/><polyline points="22.54 366.64 22.54 369.14 25.04 369.14" fill="none" stroke="#a3a3a3" stroke-linecap="round" stroke-linejoin="round"/><line x1="27.89" y1="369.14" x2="32.18" y2="369.14" fill="none" stroke="#a3a3a3" stroke-linecap="round" stroke-linejoin="round" stroke-dasharray="2.86 2.86"/><line x1="33.61" y1="369.14" x2="36.11" y2="369.14" fill="none" stroke="#a3a3a3" stroke-linecap="round" stroke-linejoin="round"/><line x1="36.11" y1="2.19" x2="33.61" y2="2.19" fill="none" stroke="#a3a3a3" stroke-linecap="round" stroke-linejoin="round"/><line x1="30.75" y1="2.19" x2="26.46" y2="2.19" fill="none" stroke="#a3a3a3" stroke-linecap="round" stroke-linejoin="round" stroke-dasharray="2.86 2.86"/><polyline points="25.04 2.19 22.54 2.19 22.54 4.69" fill="none" stroke="#a3a3a3" stroke-linecap="round" stroke-linejoin="round"/><line x1="22.54" y1="9.85" x2="22.54" y2="131.31" fill="none" stroke="#a3a3a3" stroke-linecap="round" stroke-linejoin="round" stroke-dasharray="5.17 5.17"/><line x1="22.54" y1="133.89" x2="22.54" y2="136.39" fill="none" stroke="#a3a3a3" stroke-linecap="round" stroke-linejoin="round"/><line x1="354.92" y1="392.54" x2="357.42" y2="392.54" fill="none" stroke="#a3a3a3" stroke-linecap="round" stroke-linejoin="round"/><line x1="362.44" y1="392.54" x2="590.71" y2="392.54" fill="none" stroke="#a3a3a3" stroke-linecap="round" stroke-linejoin="round" stroke-dasharray="5.02 5.02"/><polyline points="593.21 392.54 595.71 392.54 595.71 390.04" fill="none" stroke="#a3a3a3" stroke-linecap="round" stroke-linejoin="round"/><line x1="595.71" y1="387.18" x2="595.71" y2="382.9" fill="none" stroke="#a3a3a3" stroke-linecap="round" stroke-linejoin="round" stroke-dasharray="2.86 2.86"/><line x1="595.71" y1="381.47" x2="595.71" y2="378.97" fill="none" stroke="#a3a3a3" stroke-linecap="round" stroke-linejoin="round"/><path d="M6.72,173.81l-.42-.36c.41-.6.57-.79.81-2.6l.16-1.15H5.89c-1.06,0-2.24,0-2.92,0l0,0-.27-1.18,0-.05,5.41-6.78h0l1.7-.5.05,0c-.16.88-.32,1.91-.44,2.81l-.62,4.44H9.2a1.48,1.48,0,0,0,1.18-.34l.23.16-.74,1.47,0,0c-.38,0-.76-.06-1.19-.08l-.23,1.63c-.12.9-.1,1-.51,1.43A13,13,0,0,1,6.72,173.81Zm.73-5.34L7.93,165c.12-.89.23-1.84.3-2.48-2.82,3.58-4,5.13-4.42,5.86.65,0,1.37.07,2.15.07Z" fill="#727272"/><path d="M16.45,174.55l-1.18-1.26,1.43-10.23H15.29l.1-.73h1.42l.17-1.25a3.85,3.85,0,0,1,1.45-2.78c.9-1,1.22-1.22,2.21-1.22h1.14v0l-.23.62c-.17.46-.24.53-.42.53s-.74,0-1.2,0c-1.05,0-1.28.39-1.45,1.59l-.36,2.51h2.21v.73H18l-.78,5.53c-.23,1.59-.43,3.29-.55,4.53l.51.78h0Z" fill="#727272"/><path d="M23.26,169.86c-2.17,0-3-.86-2.74-2.83l.23-1.66a3.74,3.74,0,0,1,1.91-2.79,3.4,3.4,0,0,1,2-.6c1.37,0,2.06.63,2.06,1.8a9,9,0,0,1-.27,1.77l-1.27.69H21.92l-.07.49c-.23,1.63.49,2.16,2.08,2.16a4.48,4.48,0,0,0,2.62-.85h0v.21A3.7,3.7,0,0,1,23.26,169.86ZM22,165.48h3.24a8,8,0,0,0,.19-1.42c0-.83-.49-1.25-1.57-1.25s-1.55.58-1.71,1.7Z" fill="#727272"/><path d="M30.59,169.86c-2.18,0-3-.86-2.74-2.83l.23-1.66A3.74,3.74,0,0,1,30,162.58a3.4,3.4,0,0,1,2-.6c1.36,0,2.05.63,2.05,1.8a9,9,0,0,1-.27,1.77l-1.27.69H29.24l-.07.49c-.23,1.63.5,2.16,2.09,2.16a4.5,4.5,0,0,0,2.62-.85h0v.21A3.68,3.68,0,0,1,30.59,169.86Zm-1.24-4.38h3.23a8.11,8.11,0,0,0,.2-1.42c0-.83-.5-1.25-1.57-1.25s-1.56.58-1.72,1.7Z" fill="#727272"/><path d="M37.61,169.83c-1.42,0-2-.53-1.82-1.88l.74-4.89H35.12l.1-.73h1.43l.34-2.25,1.33-.19,0,0L38,162.33h2.37v.73H37.87l-.72,4.72c-.11.7.18,1,1.25,1a3.38,3.38,0,0,0,1.45-.36h0l0,.16A3,3,0,0,1,37.61,169.83Z" fill="#727272"/><path d="M296.78,397.79c-1.81,0-2.78-1-2.48-3.26l.19-1.45a8.28,8.28,0,0,1,2.07-4.95A5.72,5.72,0,0,1,300,386l.06,0,.12.77c.05.34,0,.41-.28.5-1,.33-2.07.25-2.81,1.11-.43.5-.62.87-.94,3a3.51,3.51,0,0,1,2.55-1A2.12,2.12,0,0,1,301,393l-.16,1.17a3.58,3.58,0,0,1-1.77,2.86A4.14,4.14,0,0,1,296.78,397.79Zm.77-.92c1.24,0,1.54-.5,1.75-1.95l.2-1.38c.23-1.59-.32-2.15-1.56-2.15a2.17,2.17,0,0,0-1.92.86l-.29,2C295.48,396,296.16,396.87,297.55,396.87Z" fill="#727272"/><path d="M306.81,402.47l-1.19-1.25L307.05,391h-1.41l.1-.73h1.42l.18-1.25a3.82,3.82,0,0,1,1.45-2.78c.9-1,1.22-1.22,2.21-1.22h1.13l0,0-.23.62c-.18.46-.25.53-.43.53s-.74,0-1.2,0c-1,0-1.27.39-1.45,1.59l-.35,2.51h2.21V391h-2.32l-.78,5.54c-.23,1.59-.42,3.28-.55,4.52l.52.78v0Z" fill="#727272"/><path d="M313.62,397.79c-2.18,0-3-.87-2.75-2.83l.23-1.66a3.78,3.78,0,0,1,1.91-2.8,3.45,3.45,0,0,1,2-.6c1.36,0,2,.64,2,1.8a8.88,8.88,0,0,1-.27,1.77l-1.27.69h-3.22l-.07.5c-.23,1.63.5,2.16,2.09,2.16a4.58,4.58,0,0,0,2.62-.85h0v.21A3.68,3.68,0,0,1,313.62,397.79Zm-1.24-4.39h3.23a8,8,0,0,0,.2-1.41c0-.83-.5-1.26-1.57-1.26s-1.56.59-1.72,1.7Z" fill="#727272"/><path d="M320.94,397.79c-2.18,0-3-.87-2.74-2.83l.23-1.66a3.75,3.75,0,0,1,1.91-2.8,3.4,3.4,0,0,1,2-.6c1.36,0,2.05.64,2.05,1.8a8.75,8.75,0,0,1-.26,1.77l-1.28.69h-3.22l-.07.5c-.23,1.63.5,2.16,2.09,2.16a4.55,4.55,0,0,0,2.62-.85h0v.21A3.71,3.71,0,0,1,320.94,397.79Zm-1.24-4.39h3.24a8.91,8.91,0,0,0,.19-1.41c0-.83-.49-1.26-1.57-1.26s-1.56.59-1.72,1.7Z" fill="#727272"/><path d="M328,397.75c-1.41,0-2-.53-1.82-1.87l.74-4.9h-1.41l.11-.73H327l.33-2.24,1.33-.2,0,0-.37,2.42h2.37V391h-2.47l-.73,4.72c-.1.71.18,1,1.26,1a3.4,3.4,0,0,0,1.45-.35h0l0,.16A3,3,0,0,1,328,397.75Z" fill="#727272"/><line x1="46.64" y1="378.97" x2="46.64" y2="381.47" fill="none" stroke="#a3a3a3" stroke-linecap="round" stroke-linejoin="round"/><line x1="46.64" y1="384.33" x2="46.64" y2="388.61" fill="none" stroke="#a3a3a3" stroke-linecap="round" stroke-linejoin="round" stroke-dasharray="2.86 2.86"/><polyline points="46.64 390.04 46.64 392.54 49.14 392.54" fill="none" stroke="#a3a3a3" stroke-linecap="round" stroke-linejoin="round"/><line x1="54.07" y1="392.54" x2="268.59" y2="392.54" fill="none" stroke="#a3a3a3" stroke-linecap="round" stroke-linejoin="round" stroke-dasharray="4.93 4.93"/><line x1="271.05" y1="392.54" x2="273.55" y2="392.54" fill="none" stroke="#a3a3a3" stroke-linecap="round" stroke-linejoin="round"/></svg>