<svg xmlns="http://www.w3.org/2000/svg" width="600" height="400"><defs><clipPath id="a"><path fill="none" d="M0 0h262.33v262.33H0z"/></clipPath></defs><path fill="#bf0a30" d="M0 0h600v400H0z"/><g clip-path="url(#a)"><path fill="#fff" d="M241.54 278.78L130.08 167.32 18.62 278.78l-37.24-37.24L92.84 130.08-18.62 18.62l37.24-37.24L130.08 92.84 241.54-18.62l37.24 37.24-111.46 111.46 111.46 111.46-37.24 37.24z"/><path fill="#002868" d="M246.49 273.83L130.08 157.42 13.67 273.83l-27.34-27.34 116.41-116.41L-13.67 13.67l27.34-27.34 116.41 116.41L246.49-13.67l27.34 27.34-116.41 116.41 116.41 116.41-27.34 27.34z"/><path fill="#fff" d="M26.02 13.01L23.1 22h-9.46l7.65 5.55-2.92 8.99 7.65-5.56 7.64 5.56-2.92-8.99L38.39 22h-9.45l-2.92-8.99zM60.7 47.7l-2.92 8.99h-9.45l7.65 5.55-2.92 8.99 7.64-5.56 7.65 5.56-2.92-8.99 7.65-5.55h-9.45L60.7 47.7zM95.39 82.39l-2.92 8.98h-9.45l7.65 5.56-2.92 8.99 7.64-5.56 7.65 5.56-2.92-8.99 7.64-5.56h-9.45l-2.92-8.98zM167.69 160.75l-2.92-8.99-2.92 8.99h-9.45l7.64 5.56-2.92 8.98 7.65-5.55 7.65 5.55-2.92-8.98 7.64-5.56h-9.45zM202.38 195.44l-2.92-8.99-2.92 8.99h-9.45l7.64 5.55-2.92 8.99 7.65-5.55 7.64 5.55-2.92-8.99 7.65-5.55h-9.45zM237.07 230.13l-2.92-8.99-2.92 8.99h-9.45l7.64 5.55-2.92 8.99 7.65-5.55 7.64 5.55-2.92-8.99 7.65-5.55h-9.45zM226.5 36.54l7.65-5.56 7.64 5.56-2.92-8.99 7.65-5.55h-9.45l-2.92-8.99-2.92 8.99h-9.45l7.64 5.55-2.92 8.99zM199.46 47.7l-2.92 8.99h-9.45l7.64 5.55-2.92 8.99 7.65-5.56 7.64 5.56-2.92-8.99 7.65-5.55h-9.45l-2.92-8.99zM164.77 82.39l-2.92 8.98h-9.45l7.64 5.56-2.92 8.99 7.65-5.56 7.65 5.56-2.92-8.99 7.64-5.56h-9.45l-2.92-8.98zM98.31 160.75l-2.92-8.99-2.92 8.99h-9.45l7.65 5.56-2.92 8.98 7.64-5.55 7.65 5.55-2.92-8.98 7.64-5.56h-9.45zM63.63 195.44l-2.93-8.99-2.92 8.99h-9.45l7.65 5.55-2.92 8.99 7.64-5.55 7.65 5.55-2.92-8.99 7.65-5.55h-9.45zM28.94 230.13l-2.92-8.99-2.92 8.99h-9.46l7.65 5.55-2.92 8.99 7.65-5.55 7.64 5.55-2.92-8.99 7.65-5.55h-9.45zM133 126.06l-2.92-8.99-2.92 8.99h-9.45l7.65 5.56-2.92 8.98 7.64-5.55 7.65 5.55-2.92-8.98 7.64-5.56H133z"/></g><path d="M260.16 0H600v266.67H0v-6.51h260.16z" fill="#fff"/><path fill="#002868" d="M266.67 0H600v133.33H266.67z"/></svg>