<svg xmlns="http://www.w3.org/2000/svg" width="600" height="315.79" viewBox="0 0 600 315.79"><path fill="#fff" d="M0 0h600v315.79H0z"/><path fill="#bf0a30" d="M0 0h600v24.29H0zM0 48.58h600v24.29H0zM0 97.17h600v24.29H0zM0 145.75h600v24.29H0zM0 194.33h600v24.29H0zM0 242.91h600v24.29H0zM0 291.5h600v24.29H0z"/><path fill="#002664" d="M0 0h240.02v170.04H0z"/><path fill="#fff" d="M116.99 15.11l-1.87 5.74 4.89-3.55 4.88 3.55-1.86-5.74 4.88-3.55h-6.03l-1.87-5.74-1.87 5.74h-6.03l4.88 3.55zM121.88 119.89l-1.87-5.75-1.87 5.75h-6.03l4.88 3.55-1.87 5.74 4.89-3.55 4.88 3.55-1.86-5.74 4.88-3.55h-6.03zM126.94 40.03h-6.04l4.88 3.55-1.86 5.75 4.88-3.55 4.89 3.55-1.87-5.75 4.89-3.55h-6.04l-1.87-5.74-1.86 5.74zM137.61 71.46l4.89 3.55-1.87-5.74 4.89-3.55h-6.04l-1.87-5.75-1.86 5.75h-6.04l4.88 3.55-1.86 5.74 4.88-3.55zM146.62 99.19h-6.04l4.88 3.55-1.86 5.74 4.88-3.55 4.89 3.55-1.87-5.74 4.89-3.55h-6.04l-1.87-5.74-1.86 5.74zM157.28 132.01l4.88 3.55-1.87-5.74 4.89-3.55h-6.04l-1.86-5.74-1.87 5.74h-6.04l4.89 3.55-1.87 5.74 4.89-3.55zM167.95 153.34l-1.86-5.74-1.87 5.74h-6.04l4.88 3.56-1.86 5.74 4.89-3.55 4.88 3.55-1.87-5.74 4.89-3.56h-6.04zM163.06 69.27l-1.86 5.74 4.89-3.55 4.88 3.55-1.87-5.74 4.89-3.55h-6.04l-1.86-5.75-1.87 5.75h-6.04l4.88 3.55zM197.58 69.27l4.88-3.55h-6.04l-1.86-5.75-1.87 5.75h-6.04l4.89 3.55-1.87 5.74 4.89-3.55 4.88 3.55-1.86-5.74zM173.39 82.45l-1.87-5.74-1.87 5.74h-6.03L168.5 86l-1.87 5.75 4.89-3.55 4.89 3.55-1.87-5.75 4.88-3.55h-6.03zM144.93 136.61l-1.87-5.74-1.86 5.74h-6.04l4.88 3.55-1.86 5.74 4.88-3.55 4.89 3.55-1.87-5.74 4.89-3.55h-6.04zM108.2 43.58l-1.87 5.75 4.89-3.55 4.88 3.55-1.87-5.75 4.89-3.55h-6.04l-1.86-5.74-1.87 5.74h-6.04l4.89 3.55zM104.27 65.72l-1.86-5.75-1.87 5.75H94.5l4.89 3.55-1.87 5.74 4.89-3.55 4.88 3.55-1.86-5.74 4.88-3.55h-6.04zM88.52 102.74l-1.87 5.74 4.89-3.55 4.88 3.55-1.86-5.74 4.88-3.55H93.4l-1.86-5.74-1.87 5.74h-6.04l4.89 3.55zM85.76 129.82l4.89-3.55h-6.04l-1.87-5.74-1.86 5.74h-6.04l4.88 3.55-1.86 5.74 4.88-3.55 4.89 3.55-1.87-5.74zM75.8 153.34l-1.87-5.74-1.86 5.74h-6.04l4.88 3.56-1.86 5.74 4.88-3.55 4.89 3.55-1.87-5.74 4.89-3.56H75.8zM70.91 69.27l-1.86 5.74 4.88-3.55 4.89 3.55-1.87-5.74 4.89-3.55H75.8l-1.87-5.75-1.86 5.75h-6.04l4.88 3.55zM47.33 65.72l-1.87-5.75-1.87 5.75h-6.03l4.88 3.55-1.86 5.74 4.88-3.55 4.89 3.55-1.87-5.74 4.89-3.55h-6.04zM68.5 88.2l4.88 3.55L71.52 86l4.88-3.55h-6.04l-1.86-5.74-1.87 5.74h-6.04L65.48 86l-1.87 5.75 4.89-3.55zM98.82 136.61l-1.87-5.74-1.86 5.74h-6.04l4.89 3.55-1.87 5.74 4.88-3.55 4.89 3.55-1.87-5.74 4.89-3.55h-6.04z"/></svg>