<svg xmlns="http://www.w3.org/2000/svg" width="600" height="315.79" viewBox="0 0 600 315.79"><path fill="#bf0a30" d="M0 0h600v315.79H0z"/><path fill="#fff" d="M0 24.29h600v24.29H0zM0 72.87h600v24.29H0zM0 121.46h600v24.29H0zM0 170.04h600v24.29H0zM0 218.62h600v24.29H0zM0 267.21h600v24.29H0z"/><path d="M239.92 0H0v170h239.92z" fill="#002868" fill-rule="evenodd"/><path d="M213.33 20.62l-5.75 4.18 2.19 6.77-5.77-4.18-5.75 4.18 2.19-6.77-5.75-4.18h7.11l2.2-6.76 2.2 6.76zM185.31 20.62l-5.75 4.18 2.19 6.77-5.75-4.18-5.75 4.18 2.19-6.77-5.75-4.18h7.11l2.2-6.76 2.2 6.76zM157.29 20.62l-5.75 4.18 2.19 6.77-5.73-4.18-5.75 4.18 2.19-6.77-5.75-4.18h7.11l2.2-6.76 2.2 6.76zM129.27 20.62l-5.75 4.18 2.19 6.77-5.71-4.18-5.75 4.18 2.19-6.77-5.75-4.18h7.11l2.2-6.76 2.2 6.76zM101.25 20.62L95.5 24.8l2.19 6.77-5.75-4.18-5.75 4.18 2.19-6.77-5.75-4.18h7.11l2.2-6.76 2.2 6.76zM73.23 20.62l-5.75 4.18 2.19 6.77-5.75-4.18-5.75 4.18 2.19-6.77-5.75-4.18h7.11l2.2-6.76 2.2 6.76zM45.21 20.62l-5.75 4.18 2.19 6.77-5.75-4.18-5.75 4.18 2.19-6.77-5.75-4.18h7.11l2.2-6.76 2.2 6.76zM227.34 114.08l-5.75 4.18 2.19 6.77-5.78-4.18-5.72 4.15 2.19-6.77-5.75-4.18h7.11l2.2-6.76 2.2 6.76zM199.32 114.08l-5.75 4.18 2.2 6.77-5.77-4.18-5.74 4.15 2.19-6.77-5.75-4.18h7.11l2.2-6.76 2.2 6.76zM171.3 114.08l-5.75 4.18 2.19 6.77-5.74-4.18-5.76 4.15 2.19-6.77-5.75-4.18h7.11l2.2-6.76 2.2 6.76zM143.28 114.08l-5.75 4.18 2.19 6.77-5.72-4.18-5.78 4.15 2.19-6.77-5.75-4.18h7.11l2.2-6.76 2.2 6.76zM115.26 114.08l-5.75 4.18 2.19 6.74-5.7-4.15-5.8 4.15 2.19-6.77-5.75-4.18h7.11l2.2-6.76 2.2 6.76zM87.24 114.08l-5.75 4.18 2.19 6.74-5.75-4.18-5.75 4.18 2.19-6.77-5.75-4.18h7.11l2.2-6.76 2.2 6.76zM59.22 114.08l-5.75 4.18 2.19 6.74-5.75-4.18-5.75 4.18 2.19-6.77-5.75-4.18h7.11l2.2-6.76 2.2 6.76zM31.2 114.08l-5.75 4.18 2.19 6.74-5.75-4.18-5.75 4.18 2.19-6.77-5.75-4.18h7.11l2.2-6.76 2.2 6.76z" fill="#fff" fill-rule="evenodd"/><path d="M227.34 82.93l-5.75 4.18 2.19 6.77-5.78-4.19-5.75 4.19 2.19-6.77-5.75-4.18h7.11l2.2-6.76 2.2 6.76zM199.32 82.93l-5.75 4.18 2.2 6.77-5.77-4.19-5.75 4.19 2.19-6.77-5.75-4.18h7.11l2.2-6.76 2.2 6.76zM171.3 82.93l-5.75 4.18 2.19 6.77-5.74-4.19-5.75 4.19 2.19-6.77-5.75-4.18h7.11l2.2-6.76 2.2 6.76zM143.28 82.93l-5.75 4.18 2.19 6.77-5.72-4.19-5.75 4.19 2.19-6.77-5.75-4.18h7.11l2.2-6.76 2.2 6.76zM115.26 82.93l-5.75 4.18 2.19 6.77-5.7-4.19-5.75 4.19 2.19-6.77-5.75-4.18h7.11l2.2-6.76 2.2 6.76zM87.24 82.93l-5.75 4.18 2.19 6.77-5.75-4.19-5.75 4.19 2.19-6.77-5.75-4.18h7.11l2.2-6.76 2.2 6.76zM59.22 82.93l-5.75 4.18 2.19 6.77-5.75-4.19-5.75 4.19 2.19-6.77-5.75-4.18h7.11l2.2-6.76 2.2 6.76zM31.2 82.93l-5.75 4.18 2.19 6.77-5.75-4.19-5.75 4.19 2.19-6.77-5.75-4.18h7.11l2.2-6.76 2.2 6.76z" fill="#fefefe" fill-rule="evenodd"/><path d="M227.34 51.78L221.59 56l2.19 6.76-5.78-4.22-5.75 4.18 2.22-6.72-5.75-4.18h7.11L218 45l2.2 6.77zM199.32 51.78L193.57 56l2.2 6.76-5.77-4.22-5.75 4.18 2.2-6.72-5.75-4.18h7.11L190 45l2.2 6.77zM171.3 51.78L165.55 56l2.19 6.76-5.74-4.22-5.75 4.18 2.18-6.72-5.75-4.18h7.11L162 45l2.2 6.77zM143.28 51.78L137.53 56l2.19 6.76-5.72-4.22-5.75 4.18 2.16-6.72-5.75-4.18h7.11L134 45l2.2 6.77zM115.26 51.78L109.51 56l2.19 6.76-5.7-4.22-5.75 4.18 2.14-6.72-5.75-4.18h7.11L106 45l2.2 6.77zM87.24 51.78L81.49 56l2.19 6.76-5.75-4.18-5.75 4.18L74.37 56l-5.75-4.18h7.11l2.2-6.82 2.2 6.77zM59.22 51.78L53.47 56l2.19 6.76-5.75-4.18-5.75 4.18L46.35 56l-5.75-4.22h7.11l2.2-6.78 2.2 6.77zM31.2 51.78L25.45 56l2.19 6.76-5.75-4.18-5.75 4.18L18.33 56l-5.75-4.18h7.11l2.2-6.82 2.2 6.77zM213.33 145.24l-5.75 4.18 2.19 6.76L204 152l-5.75 4.18 2.19-6.76-5.75-4.18h7.11l2.2-6.77 2.2 6.77zM185.31 145.24l-5.75 4.18 2.19 6.76L176 152l-5.75 4.18 2.19-6.76-5.75-4.18h7.11l2.2-6.77 2.2 6.77zM157.29 145.24l-5.75 4.18 2.19 6.76L148 152l-5.75 4.18 2.19-6.76-5.75-4.18h7.11l2.2-6.77 2.2 6.77zM129.27 145.24l-5.75 4.18 2.19 6.76L120 152l-5.75 4.18 2.19-6.76-5.75-4.18h7.11l2.2-6.77 2.2 6.77zM101.25 145.24l-5.75 4.18 2.19 6.76-5.75-4.18-5.75 4.18 2.19-6.76-5.75-4.18h7.11l2.2-6.77 2.2 6.77zM73.23 145.24l-5.75 4.18 2.19 6.76-5.75-4.18-5.75 4.18 2.19-6.76-5.75-4.18h7.11l2.2-6.77 2.2 6.77zM45.21 145.24l-5.75 4.18 2.19 6.76L35.9 152l-5.75 4.18 2.19-6.76-5.75-4.18h7.11l2.2-6.77 2.2 6.77z" fill="#fff" fill-rule="evenodd"/></svg>