<svg xmlns="http://www.w3.org/2000/svg" width="132.46" height="300" viewBox="0 0 132.46 300"><title>flag-new-jersey-icon-cap</title><path d="M76.82,106.63s22.9,15.61,29.42,28,13.6,21.08,0,37.5-22.09,26.39-32.06,34.69-29.89,26.39-35.61,31S20,253.22,14.21,245.4-.18,169.37,3,155s15.47-48.7,22.68-53.6" fill="none" stroke="#000" stroke-linecap="round" stroke-linejoin="round" stroke-width="2"/><path d="M96.77,125.81s-13.89.56-21.39,5.83c-7,4.9-64.78,63.79-69,70.79a32.15,32.15,0,0,0-4.27,18.23c.37,3.1,6.19,18.22,8.55,20.52s2.73,3.47,3.91-.81,7-9.67,10.47-13.57,44.95-49.6,47.67-52S96.77,152.78,101,151.23c4-1.43,11.22-1.55,10.17-4.46-.81-2.24-1.92-7.94-6.2-14.14S96.77,125.81,96.77,125.81Z" stroke="#000" stroke-miterlimit="10" stroke-width="4"/><polygon points="54.12 183.28 47.73 185.57 45.75 192.02 41.97 186.75 35.27 187.12 39.3 181.6 37.19 175.41 43.45 177.26 48.78 173.05 48.72 179.68 54.12 183.28" fill="#fff"/><polygon points="38.99 199.76 32.6 202.06 30.62 208.5 26.84 203.23 20.14 203.6 24.17 198.09 22.06 191.89 28.32 193.75 33.66 189.53 33.59 196.16 38.99 199.76" fill="#fff"/><polygon points="23.94 215.49 17.55 217.78 15.57 224.23 11.79 218.96 5.09 219.33 9.12 213.81 7.01 207.61 13.27 209.47 18.61 205.26 18.54 211.89 23.94 215.49" fill="#fff"/><polygon points="69.8 168.77 63.29 170.51 60.81 176.77 57.4 171.19 50.77 171.07 55.17 165.92 53.56 159.53 59.7 161.89 65.34 158.11 64.72 164.74 69.8 168.77" fill="#fff"/><polygon points="85.79 153.96 79.28 155.69 76.81 161.95 73.39 156.44 66.76 156.25 71.16 151.1 69.55 144.78 75.69 147.07 81.33 143.29 80.71 149.93 85.79 153.96" fill="#fff"/><polygon points="101.48 146.15 94.72 145.46 90.13 150.36 89.02 143.98 82.82 141.43 88.83 138.21 89.64 131.7 94.47 136.1 101.11 134.62 98.13 140.57 101.48 146.15" fill="#fff"/><path d="M20.14,133.77S29.5,75.25,33.66,63.66c4.52-12.59,10-20.47,28-21.09S81,54.4,81,54.4s14.51,9.07,1.18,22.13c-11.36,11.13-32.65,3.77-22-15.43" fill="none" stroke="#000" stroke-linecap="round" stroke-linejoin="round" stroke-width="2"/><path d="M77,80.1s-2.07,6.32,7.7,31.16" fill="none" stroke="#000" stroke-linecap="round" stroke-linejoin="round" stroke-width="2"/></svg>