<svg xmlns="http://www.w3.org/2000/svg" width="600" height="400" viewBox="0 0 600 400"><title>flag-michigan</title><path d="M0,400.15H600V-.15H0Z" fill="#00287e"/><path d="M283.82,245.78h57.66l.4-.34v15.7c0,3.56.5,6.62-6.28,8.31s-35.3,9.34-35.3,9.34-28.53-7.65-35.3-9.34-6.28-4.75-6.28-8.31v-.26l.59-.09h0l1.8-.28,0,0,.5-.08h.1l.48-.07h.09l.46-.08.16,0,.42-.06.17,0,.42-.06.18,0,.38-.06.21,0,.39-.07.15,0,.54-.08c2.86-.5,5,0,9.41-.67s7.39-.5,12.77-1,11.43-1.17,13.12-1.69a55.54,55.54,0,0,1,7.56-2c4.36-.84,2.69-1,2.69-1a35.24,35.24,0,0,1-3.53-1.17c-2.18-.84-1.85-1.18-4.71-1.68s-.84.5-3.36,0a11.06,11.06,0,0,1-3-.83,40,40,0,0,1-4.21-.69c-1.17-.33-2-.16-2.68-.66a24.1,24.1,0,0,0-3.54-1.52s-1.54-.4-2.85-.83" fill="#9ed9ff"/><path d="M300.63,282.57c1.69,0,4,.69,1.69,5.05s5,6.89,5,6.89l2.76-2.85c-3.36-3-3.36-4,.67-6.72s5.72,3.69,5.72,3.69l3-1.35.34-3.69c8.07.67,12.78,0,19.83-4.36-13.44,4.36-21.18-.68-21.18-.68s14.8-4,20.18-5.38,8.73-2.68,8.73-9.74V195.52c0-21.52,8.07-19.16,8.07-19.16l-8.74-14.12c-22.19,7.73-26.9-6.4-46.06-6.4s-23.86,14.13-46.06,6.4l-8.73,14.12s8.06-2.36,8.06,19.16v67.91c0,7.06,3.37,8.4,8.75,9.74s20.16,5.38,20.16,5.38-7.73,5-21.18.68c7.07,4.36,11.77,5,19.84,4.36l.33,3.69,3,1.35s1.68-6.39,5.71-3.69,4,3.69.42,6.8l2.52,2.95s7.82-2.7,5.46-7.07,0-5.05,1.68-5.05l-.33-3.78s-28.53-7.65-35.3-9.34-6.27-4.75-6.27-8.31V200.4h83.15v60.74c0,3.56.5,6.62-6.28,8.31s-35.29,9.34-35.29,9.34l.33,3.78" fill="#006fff"/><path d="M267.86,264.93c4,0,5.54-1,8.07-1a22.43,22.43,0,0,0,7.55-1c3.54-1,13.62-2,9.08-.5s-3,2,4,1.5,11.6-1,11.1-2.51.16-.5-3.87-.17-4.37-.33-4.37-.33a4.55,4.55,0,0,1,4-1.36,30.12,30.12,0,0,0,8.24-.49c1.51-.34,3.2,1.51,1.34,1.85s-.83,1.51.51,1.67,2.36,3.37-5.55,2.87-10.41.33-15.8.5-11.93.33-9.07-.5,4.36-1.35-2.19-.34-5.7.17-10.92.5-7.9.34-7.9.34l5.72-1" fill="#006fff"/><path d="M313,255.43c-4,.38,5.49-.62,7.46-.82s6.35-.84,2.51.12-3.64,1-.37,1a29.72,29.72,0,0,0,5.6-.64c.29-.05,2.09,0,2.09,0s2.31.05-3.57.84-10.42,1-8.48.65,6.15-.91,1.3-.69-6,0-4-.3-.54-.32-2.5-.11" fill="#006fff"/><path d="M341.48,251.68s2.69.32-2.52.12-7.06-.12-7.06-.12-2-.1,2.18.44,9.42,1.09,5.21,1.31-6.22.65-4.87.87a8.46,8.46,0,0,0,3.36-.12,10.43,10.43,0,0,1,2.69,0l1.35.23v2.18s.84.11-3,.11-9.58.21-6.72.32,4,.1,5.88.1h4" fill="#006fff"/><path d="M303,247.13c1.51,0,6.05.48,4,.48s-2.86.51.34.68,5.87.17,5.87.17L307,249s-4,0-3.19-.34-1.51-.83-1.51-.83l-1.18-.84,1.85.16" fill="#006fff"/><path d="M323.32,268c6.39-.18,5.05-.68,12.45-2s.67-2.68-3.87-3.51,7.56-1.51,6.22-1.85-9.24.34-14.29.34-1,3,4.2,3.53-5.88,1.16-11.09,1.34c0,0,2.19,1-8.4,1.5s-18.16.67-13.62,1.35,22.52.84,10.08,2-16.13.52-18.65,1-7.74,1.16-7.74,1.16,6.05,1.52,6.56,1.52-1.68-.67,5.89-.67a150,150,0,0,0,18.65-1.18c6.05-.66,16-2,10.09-2.52s-9.58-1.34-4.88-1.34a52.27,52.27,0,0,0,8.4-.67" fill="#006fff"/><path d="M286.18,126.26l-2-1.35a9.13,9.13,0,0,0,1.34,4.88" fill="#35b336"/><path d="M290.72,137.36a28.17,28.17,0,0,1-3-1.35,11.38,11.38,0,0,0-2.86-.83,4.39,4.39,0,0,0,.06-1,1.68,1.68,0,0,0,.17-.74,1.71,1.71,0,0,0-.52-1.24,6.53,6.53,0,0,0-1.05-1.94c-1.85-2.35-2.53-2.18-5.88-3a24.29,24.29,0,0,1-5.72-2.18s-.66,2.35,2.86,3.7a68.06,68.06,0,0,1,7.23,3.36s-.34,1.35-2.69,1.18a6.72,6.72,0,0,1-1.41-.24,1.54,1.54,0,0,0,.12-.61,1.74,1.74,0,0,0-3.37-.6,15.2,15.2,0,0,1-2.74-1.75,14.45,14.45,0,0,0-8.06-3.19s1.34,1,3.52,2.69c.78.59,1.65,1.3,2.47,2a1.74,1.74,0,0,0-1.69,1.74,2.58,2.58,0,0,0,0,.38,6.18,6.18,0,0,1-2.47-1.23,2,2,0,0,0,0-.32,1.75,1.75,0,0,0-1.75-1.76,1.8,1.8,0,0,0-1.45.77L261,131a24.47,24.47,0,0,0-5.38,0,5.29,5.29,0,0,0,2,1.17c1.17.35,2.68,0,3,1.51a3.89,3.89,0,0,1,0,1.8h-.19a2.54,2.54,0,0,0,.07-.47,1.74,1.74,0,1,0-3.48,0,1.64,1.64,0,0,0,.11.6,1.8,1.8,0,0,0-.73-.15,1.74,1.74,0,1,0,1.75,1.73,1.45,1.45,0,0,0-.12-.59,2.21,2.21,0,0,0,.73.15,1.87,1.87,0,0,0,.34,0,1.84,1.84,0,0,0-.07.47,1.74,1.74,0,0,0,1.59,1.73c-.12.73-.62.66-2,1.48a65.51,65.51,0,0,0-5.88,4.37s2.85-.85,4.87-1.35,3.7-1,4.37-2.86a13.45,13.45,0,0,1,2.34-3.69s.27-.23.65-.49a1.6,1.6,0,0,0,0,.3,1.74,1.74,0,1,0,3.48,0,1.58,1.58,0,0,0-.09-.52c.59.27,1,.54,1,.54a6.28,6.28,0,0,1-1.51,4.37,38.47,38.47,0,0,1-5.21,3.87s3.53.5,5.54-1,1.85-2.34,2.86-4.19,1.85-2.2,1.85-2.2.34,0,.93,0a1.78,1.78,0,0,0-.15.71,1.74,1.74,0,0,0,1.74,1.74,1.42,1.42,0,0,0,.36,0,6.87,6.87,0,0,1-.69.49,22.79,22.79,0,0,0-4.71,4s1.68,1.19,4.53-1.17,3.54-3.86,5-4.54a5.71,5.71,0,0,1,3.36-.16s-.5,2.18-3.53,3.86a19.05,19.05,0,0,0-5,4.21,11.42,11.42,0,0,0,4-1.18c1.84-1,4-2.35,4-2.35" fill="#35b336"/><path d="M258.78,239.89a9.17,9.17,0,0,1,6.05,1.51c2.69,1.69,3.53,2.35,5.38,2.68s1.84,0,3.87.85,1,1,3.19.84,3.86-.67,5.21-.18,3.86,1.19,3.86,1.19a24.45,24.45,0,0,1,3.53,1.51c.67.5,1.51.33,2.69.67a42,42,0,0,0,4.2.68,11.21,11.21,0,0,0,3,.84c2.52.49.5-.51,3.36,0s2.52.83,4.7,1.67a31.87,31.87,0,0,0,3.54,1.17s1.67.18-2.7,1a53,53,0,0,0-7.56,2c-1.68.51-7.73,1.18-13.11,1.68s-8.4.34-12.77,1-6.56.17-9.41.67-7.23,1.18-7.23,1.18l.16-21" fill="#35b336"/><path d="M277.48,292.45c6.3,5.05,8.95,4.67,16,14.25-3.28-8.57-4-10.59-8.57-14.37,7.56,5.29,9.83,5.29,15.38,14.12-12.36-36.81-62.53-17.14-75.89-11.6,17.4-4,30.51,1.26,37.31,9.59,0,0-3-8.07-6.05-11.6,11.6,7.06,11.35,6.3,17.4,12.86,0,0-4.28-10.34-5.05-12.36,9.08,2.52,15.89,12.86,15.89,12.86a81.49,81.49,0,0,0-6.43-13.75" fill="#35b336"/><path d="M323.11,292.45c-6.3,5.05-8.94,4.67-16,14.25,3.28-8.57,4-10.59,8.58-14.37-7.56,5.29-9.84,5.29-15.38,14.12,12.36-36.81,62.53-17.14,75.89-11.6-17.4-4-30.51,1.26-37.32,9.59,0,0,3-8.07,6.05-11.6-11.59,7.06-11.34,6.3-17.39,12.86,0,0,4.28-10.34,5-12.36-9.08,2.52-15.88,12.86-15.88,12.86a82,82,0,0,1,6.42-13.75" fill="#35b336"/><path d="M175.74,87c-.63-2.64,0-4.41.51-2.51A6.88,6.88,0,0,0,177,86.6" fill="#86473f"/><path d="M253.91,195.52c0-21.52-8.07-19.17-8.07-19.17l8.74-14.11c7.71,2.68,13.31,2.73,18.13,1.65l.11-.4s-.51-2-1.77-6.05-2.26-4-5-4.28-9.08,3.79-14.12,5.29S241.3,162,241.3,162s-3.78-6.8-5-8.32-3-2.26-4.28-6-1.77-3.77-4.29-6.55c-2.16-2.38-6-6.78-7-8a6.61,6.61,0,0,1,1-1.34c.88-1,2.9-.61,6.18-1s3.15-3.66,3.91-4.78.37-1,.12-3.79-2.64-3.65-4-4a16.27,16.27,0,0,1-5.93-3c-2.39-1.88-9.2-5.17-10.59-6s-.12-2.39,1.26-2.89,10,0,13.11-.25,1.14-1-.12-1.39-7.57-.89-7.57-.89,3.53-.49,12.49-4.65a22.36,22.36,0,0,0,11.47-12.74c-2.78,4-9,6.56-10.72,6.94s-.63-1.65.13-4.29-.51-1.14-2.53,2.64-7.43,5.68-10.08,6.69-2.27.88.12-1.38,2.65-3.79,3.79-7,.63-3.89-1.51.13-9.59,9.2-11.48,10.34-.5-2,.63-4.91.63-3-.75-.63a18.64,18.64,0,0,1-5,6.17c-2.28,1.65-1.89.76-1.89-.51,0-5.29-1.89-6.54-2.52-7.3s-1.26-1.65-.51,1a14.93,14.93,0,0,1,0,6.81c-.25,1.13-1.13.63-2,.12a2.82,2.82,0,0,1-.88-3.64c4.54-8.33,3.91-13.25,3.91-17.15s-1.14-1-1.14-1c.63,14.5-6.68,17.9-6.68,17.9-1.39-5.68-2.27-4.91-2.27-4.91a10.43,10.43,0,0,1-.88,4.28s-6.3-7.06-5-13.49-.5-9.84-.5-9.84c-1.65,19.8-15.76,12.87-15.76,12.87l6.93,4.66c-2.39,9.07-14,4.28-14,4.28,3.66,7,24.72,4,24.72,4a29.17,29.17,0,0,0,5.92,5.17l7.69,5.29-1.13.59c-5-3.7-10.09-3.7-13.11-2.36a16.89,16.89,0,0,0-4.71,3c1.68,6.39,10.42,7.73,10.42,7.73-1.34,3.37-1.68,9.75-.67,17.15a36.14,36.14,0,0,1-1.34,14.45l2.68-1.69a12,12,0,0,1,0,3.7c-.32,1.68.67,2.36,2,3a2.77,2.77,0,0,1,1.35,2.36v4l2.35-1.35s1,7.74,1,10.77a29.17,29.17,0,0,1-1,7c-.34,1.34-.67,4.36-.67,4.36l2-1s-2.36,9.07-4,12.76-10.42,9.09-19.5,18.51-7.06,18.13-7.72,22.51,2.69,1.68,2.69,1.68a27.07,27.07,0,0,1,4.69,14.45c0,8.07-5,12.78-6.72,14.46s-.33,3-.66,6.05a15.76,15.76,0,0,0,1.67,9.41c1.68,3,.34,14.12,0,17.15s0,3,1.34,4,3,3.35,5,5,3-1,3.36-3.34-.67-2.7-.67-2.7l.5-.26a18.16,18.16,0,0,1-3.78-4c-2.27-3-1.26-11.09-.51-19.41s1.26-6.81,9.84-14.62S198,242.16,198,242.16s2.78,1.77,8.83,5.8,4.29,3.78,2.77,10.6-1.26,8.57,0,10.32,2.77,3.27,6.56,5.05,4,2,7.81,7.05,5.8,6.32,9.33,6.82,3.52,2,3.52,2l5.8-2.51c-1.26-3.53-4.29-3-7.56-3.29s-3.53-1-7.3-5a38.2,38.2,0,0,1-8.58-13.61c-2.52-6.3.25-11.34,4-21.93s-1.51-14.63-1.51-14.63a122.65,122.65,0,0,1,9.32-9.58c4.54-4,9.59-14.12,10.09-16.88s1-2.78,4.79-2.53,2,7.31,1.51,13.11-1,6.3.51,8.07,1,3.27.25,7.31c-.64,3.39,3.56,5.36,5.8,4.84V195.52" fill="#86473f"/><path d="M414.76,108.27c10.59-1.26,19.17-10.33,22.7-15.13s-1-3.53-2.52-1.75-.26,1-3.54,4-4.28,2.28-3-.74-2.52.49-6.56,3.27-4.28,1.26-1.76-1.52-.25-1.75-2.77-.49-8.07,3.27-8.07,3.27-.5-2,5.81-5.54,14.87-10.6,16.12-13.88.25-5.29-1.5-1.25-3.79,3.53-6.81,1c-7.32,6.3-7.06-.76-7.06-.76s-.75,1.27-2,3.29a2.88,2.88,0,0,1-4.29,1c-1.25-.76-1.76-1.26-5.54,2.27s-7.82-3.79-8.07-7.57-.5-4-1.76-.24-.25,8.56,1.76,13.61-1.51,3-3.78,2.77-7.31-4.79-10.09-7.56-2.26-2-2.26.5a17.25,17.25,0,0,0,1.51,5.8s-7.82-3.27-10.58-6.06-3.28-1.25-2,1,2,7.3,14.62,9.07,15.62,4.54,15.13,8.83c-15.38,1.26-20.68-4.79-21.93-5.8s-.51,3-.51,3-5.29-1.76-7.57-4.29-2,.25,0,2.78c9.08,11.6,30.1,8.9,30.1,8.9a29.13,29.13,0,0,0-5.72,3.7,6.7,6.7,0,0,1-4.87,2.18c-5.38.34-8.24.18-12.95,2.36s-4,6.73-3.36,9.59,5,2.85,6.05,4a4.69,4.69,0,0,0,4.54.84c.84-.51,1-1.51,2.52-2.19s2.35-.33,1.51,1.68-6.72,8.24-9.59,11.1-2.17,2.52-2.51,4.53,1.18,2.51,1,3.71-.33,1.5-1.85,3.69-3.53,4-3.69,5.55-4.38,5-4.38,5c-5.54-3.36-12.94-7.57-16-9.58s-3-2.52-7.91-2.52-6.72,5.55-7.06,10.42l.41.3a36.93,36.93,0,0,0,12-2.32l8.74,14.11a4,4,0,0,0-3.39.94l.46.34,3,2.77L349,183.15h-.26a46.17,46.17,0,0,0-1.34,12.35v36.2c2.84-1.64,2.59-7,1.86-11.5,3.52-.5,2.51-4,1.76-4.28s-1.26-12.61-.25-18.16,2.77-4.52,6.05-5,2.27,3,3.28,7.32a25.63,25.63,0,0,0,3.78,8.06l-.26-3s-1-3,2.28,1.78,20.41,14.62,20.41,14.62-3.27,2.26-6,10.59,3.28,18.15,1.27,31.51c-1.32,8.76-8.07,17.14-12.61,19.66s-5.55,4.54-5.55,4.54l5,2.77a15.69,15.69,0,0,1,2-2.51c1.26-1.27,0-1.27,3.27-1.27s4.29-4.53,6.31-8.82,9.33-12.1,9.33-12.1c3-4.54,2.26-4,1.76-6.31s-1.51-4.53-.25-9.07c3.19-11.48,14.12-18.91,14.12-18.91v4.54c0,9.58,2.77,10.59,10.84,21.94s6.05,25.21,5.3,32-3.79,9.33-3.79,9.33l2,7.31a19.42,19.42,0,0,1,1-2.26c.76-1.52,2.27-4.79,3.78-5.8s2,.51,1.76-6.05a102.87,102.87,0,0,1,1.77-21.94c1.51-9.07.75-6.8-2.28-15.37s-1-9.59,1.52-15.13a102.65,102.65,0,0,0,4-10.34s2.27.25,2-2.53c0-6.3-5-11.84-14.37-20.41s-10.84-17.4-10.84-17.4H408c-1.26-4.8,1.76-2.51,1.76-2.51-1.51-5.56,2-11.6,2-11.6-2.27-4.54-2-6.06-2-6.06l2-1.26c-2.76-8.83-2-9.32-2-9.32l2-.52a47,47,0,0,1,.25-8.06l2.53.26a55,55,0,0,1,1.26-12.61c1.51-7.06,3.28-3.28,0-17.4,8.57-2.52,8.07-6.8,8.07-6.8a22.73,22.73,0,0,0-9.58-2.27c-5.3,0-3.28-2.77.5-3" fill="#86473f"/><path d="M317.44,109.28l2.53,2,1-3.52c.33,1,3.37,3.18,3.37,3.18l.83-2.69,2.52,4.37,2-1.51c.67,1.68,3,2.53,3,2.53l1.51-3.2s-1.84-3.52.51,0,4.87,3,4.87,3l.84-2.52,3.37,3.53,1.84-2.68c1.86,6.54,4,9.41,4,9.41l1.18-.5a18.57,18.57,0,0,0,2,7l1.34-3.86s.68,3.53,1.35,6.89a14.28,14.28,0,0,0,1.84,5l.67-3,2.52,5.21c5-34.78-9.91-50.59-15.46-57.31s-18.31-11.27-26.89-11.77-7.22,8.58-.67,12.43c5.11,3-3.36,9.76-3.36,9.76s-.87-1.32-1.91-2.93l-.11.07a3.72,3.72,0,0,0,.34,2,8.1,8.1,0,0,1,.5,2.53l-1.18.17a13.57,13.57,0,0,1-.5,2.18,3.43,3.43,0,0,0,.5,2.35l-2.35-2-.5,2.85-2.52-1.68-.84,2.53-1.86-1.69-1.17,1.69-2-1-1.18,2.52-1.83-2.36-1.69,2.36-1.17-2.52-.34.67-1-1.52-1.18,2.86s-.84-2.18-2-2.35-1.52-.16-2-.51-.51-2.68-.51-2.68l-1.68.5,1.68-7.39.17.16c-5.71-4.19-10.25-7.4-8.07-15.12,1.52-5.72-4.37-11.77-18.49.16-16.3,15.47-21.18,44.21-20,62.86l2.69-5.38,1.18,1.35,2.51-5.21,1.17.84s4.21-4,5.05-7.4.17.5.17.5l1,1.52s1,.66,2-1.18l4.21-7.73s-.51,3.19,1.34,3.87c0,0,2.18-.67,4-4l1.34,2s3.2-1.35,3.87-3.2l.84,2.69a22,22,0,0,0,4.87-4.7l1.52,3.35a9.31,9.31,0,0,0,3.19-3.52l3.7,2.68s-1.68,2.36.84,5.39a29.81,29.81,0,0,0,0,5.71s-.34,1.51-.67,3a13.75,13.75,0,0,0-.51,4.69c.17,1.85.84,3.53,2.86,3.87s2.69.84,4.87,1.19a13,13,0,0,0,5.72-.68,3.37,3.37,0,0,0,2.35-3.7,14.14,14.14,0,0,1-.33-3.36c0-2.36-.84-4.21.84-4.21s2-.67,3.19,2,1.18,2,1.18,4.86,0,4.71,1.67,5.06.84.67,3.86.48,3.54-.15,5.55-.33a4.21,4.21,0,0,0,3.87-2.85,6.5,6.5,0,0,0,.17-3.53c-.17-1.34.5.5-.68-2.34a48.21,48.21,0,0,1-2.69-10.09,44.85,44.85,0,0,1-.67-8.07" fill="#86473f"/><path d="M285.43,146v-7.05l34.79-.63v7.06l-34.79.62" fill="#86473f"/><path d="M291.55,135.77s1.52.58-2.35,3-6.38,2.53-6.38,4.71.42,2.27.42,2.27a17.58,17.58,0,0,1,2.35,0,9.3,9.3,0,0,0,3,.08c.58-.24,1.51,1,2.93.68a15.32,15.32,0,0,0,2.95-1.09,6.18,6.18,0,0,0,1.17.41c1.27.42.76.33,2.53,0s2.94-.67,2.94-.67,2.1-2.51-.67-4.19-4-1.94-4.38-2.28a4.7,4.7,0,0,1-.92-2.27" fill="#ffef6f"/><path d="M311.39,136.6s1.43,1.09-1.59,2.86-5.05,1.09-5.3,3.61c-.21,2.14.42,2.77.42,2.77a21.09,21.09,0,0,1,2.44-.34s.5-.16,1.18-1.42a12.87,12.87,0,0,1,2.68-2.86s.84-.43.26,1.94.92,3.1.92,3.1l1.85-.16s.16-1.52.24-2.35a20.56,20.56,0,0,0,0-2.44s.34-.17,1.18.67a4.59,4.59,0,0,1,1.51,2.53c.51,1.49.42,1.33.76,1.33s2-.41,2-.41,2.1-2.36.25-3.71-4.79-2.26-6-4.86" fill="#ffef6f"/><path d="M320.49,142.36l9.42-2.28.24.81,2.79-2.33-3.6-.43.21.74-9.35,2.26" fill="#ffef6f"/><path d="M320.55,145.06l13.28,3.16-.16.84,3.55-.81-3-2-.14.77-13.22-3.18" fill="#ffef6f"/><path d="M320.8,143.78l17.2-.19.05.77,3.24-1.67-3.43-1.19.05.82-17.13.21" fill="#ffef6f"/><path d="M341.88,245.94V200.4H258.72l.06,39.49a9.17,9.17,0,0,1,6.05,1.51c2.69,1.69,3.53,2.35,5.37,2.7s1.85,0,3.87.83,1,1,3.2.85,3.86-.68,5.21-.19l59.39.35" fill="#ffef6f"/><path d="M285.68,253.33c1.34-.66,2-.83,3.19.17,0,0,1-4.69,1.17-5.71s2-6,2-6,.17,2,.33,5.39-.49,4.86,1.68,5.37a6.7,6.7,0,0,0,3.54,0s-1.35-.35-1.35-2.69-.84-11.1-1-12.11a22.34,22.34,0,0,1-.16-2.69l.66-2.68a14.93,14.93,0,0,0,3,0c1.68-.18,2.35-.85,3-.85a5,5,0,0,0,1.52-.33l.34-1.16a31.25,31.25,0,0,0-4-.34,10.63,10.63,0,0,1-3.53-.68,2.93,2.93,0,0,1-.5-1.51,5.71,5.71,0,0,0-1.68-2.52,2.57,2.57,0,0,0,.67-1.68c0-1,.84-1.51.17-2.69s-1-2-2.7-1.51-1.67.34-2.34,2-.34,1.5-.17,2.34a1.34,1.34,0,0,1-.17,1.19s-1-1-1.51-.18a6.78,6.78,0,0,1-1,1.34l-1.84.17-.51-1.85a9.66,9.66,0,0,1-.51-1.84c-.17-1-.84-3.7-.84-3.7L282,217.2a6,6,0,0,0-.5,2.2,12.2,12.2,0,0,1,.84,3.51v4.21a2.09,2.09,0,0,0,1.67,2,22.72,22.72,0,0,0,3.7.33s.51.67.67,3.52a16,16,0,0,0,.17,2.37c.17,1.51-.17.83-.5,3.86a72.71,72.71,0,0,1-1.51,8.06c-.34,1.34-.84,6.05-.84,6.05" fill="#86473f"/><path d="M222,228.8l-4.71,4.37s5.05,7.39,1,18.15.67,14.11.67,14.11-2-7.72,2.7-19.49,3.68-12.11.33-17.14" fill="#b37535"/><path d="M168.85,280.58c1.68-2.7,3.7-10.44-.67-14.46l-1,1,.34,9.73,1,2.37" fill="#b37535"/><path d="M175.91,260.06c2.36-9.41.34-11.44,2.36-23.53s.67-24.54,5.71-22.86,11.43,5.05,10.42,12.77S188,245.27,183,252s-7.07,10.42-6.73,6.72" fill="#b37535"/><path d="M175.91,234.51c4.68-7.79-.33-18.82,7.07-23.53s4.37-3,4.37-3-12.78,1.35-13.45,16.48,1,11.76,2,10.08" fill="#b37535"/><path d="M205.5,185.42c-7.05,19.39-9.42,26.56-5.72,30.27s9.41,3.36,14.8-4.71,8.4-19.16,9.07-21.85.34-4.37,6-2,13.11,5,16.47,6,6.38,0,6.05,11.43-2,10.08-1.34,15.81-.67,10.75,2.69,11.75l-.33-41s-16.15-6.38-18.5-8.07-6.05-19.84-11.09-29.24-12.44-16.14-17.14-23.53-5-11.1-1.68-9.42,6.72,6.06,12.77,6.73a57.9,57.9,0,0,1-4.71-4.71c-1.68-2-2.69-3-1-3s3.37.34,3.37,2-.34,1.69,2.68,2.69,4.71,0,1.68-1.68a6.11,6.11,0,0,1-3-5,18.17,18.17,0,0,1,5.38,2,16.28,16.28,0,0,1,3.36,3l5.38-2.68a10.59,10.59,0,0,0-4.37-.68,16.33,16.33,0,0,1-8.41-3c-1-1-5.37-5.37-11.09-4s-7.06,3.36-7.06,3.36h-2.35l1,1.68s-1.68,1.34-2,4.7,1.68,1.68,1.68,1.68,1,1.68,1.35,7.74-1.35,3.69-1.35,8.4.34,5.71.34,5.71,1.34-4,1.68.34-1,7.39,2.35,12.44,3,8.39,3,8.39l-3.37-3.36s2.36.67.34,7.74,1,6.38,1,6.38,2,.67.67,3.7,1.68,1,1.68,1,1-.66-.33,3" fill="#b37535"/><path d="M182,111.13s5-3.35,9.42-2.35,6.72,5.38,6.72,5.38-6.39,3-8.74,1.68-7.4-4.71-7.4-4.71" fill="#b37535"/><path d="M166.5,97.35c5.72,0,8.4-1,9.41-5.71-.33,4.71,2.36,4.71-9.41,5.71" fill="#b37535"/><path d="M175.58,88.61c-2.71,0,6.38-2,7.73-5.37s1.34-2.7,0,1-1.68,4.37-7.73,4.37" fill="#b37535"/><path d="M414.93,249c-6-9.38-5.38-11.42-5.71-18.47s-2.35-7.41-.34-12.12,11.1-7.39,13.12,0,4.36,11.43.33,20.17-5,14.13-7.4,10.42" fill="#b37535"/><path d="M404.51,229.14s-3.36-3-8.74,6-7.4,8.4-7.73,15.46a45.91,45.91,0,0,0,.67,11.43l2.69-.33s-2-7.4-.67-11.1,4.37-9.74,8.07-13.1,6.05-5.72,6.05-5.72l-.34-2.68" fill="#b37535"/><path d="M380,189.13s.67,10.42,8.4,16.48,11.43,9.06,14.13,6.7,4-2.34.33-10.41-6.05-14.12-6.05-16.81V175l2.35,3.71-.33-10.77,2,1.35a58.08,58.08,0,0,1-1-7c-.33-4-.33-6.4-.33-6.4l2.35,2.36a80.66,80.66,0,0,0-1.68-9.41c-1-3.69-.67-2-.67-2l2.69,1.67,1-7.39,1.34-8.74s1-1,1.69-6.38,1-6.73,1-6.73a41,41,0,0,0,5.71-.66c4-.67,9.08-4,9.08-4s-5.05-3.35-10.76-1.34-7.06,2-7.06,2-4.37-4.36-8.06-2-6.05,4.71-9.75,5-9.42-.33-11.09,2.68-3.37,5.39-.34,6.39c0,0,0-4,2-4.71l5.05-1.68s6.05-.33,8.74-2,4.36-3,7-2.68,5.05-1,3,2.68a8.61,8.61,0,0,1-5.37,4.37s2.68.67.66,4.38-4.36,4.69-5.37,6-4.37,6.06-4.37,6.06l4.37-1L383,149.8l4-1.35-3.7,3.37,2,.67-6.4,7.73s-.33,2.35-3.35,5.71-3.37,3-4.71,4.71a37.5,37.5,0,0,0-2.68,4,18.93,18.93,0,0,1-8.41,6.72c-5.38,2-12.1,4-12.1,4s-1.34,4.71-1,16.14.34,16.13.34,16.13,1.34-.67,1.68-10.09-3-18.13,6.38-20.16,15.47-4.7,22.19-5,8.41,1,5,2.69a27.25,27.25,0,0,1-4.7,2s2-2,2.35,2" fill="#b37535"/><path d="M335.6,164.58s-.34-7.39,3.69-7.72,4.37-.33,9.08,4,4.37,7.74,3.36,9.42l-4.7-7.74-11.43,2" fill="#b37535"/><path d="M390.39,95.67s6.73,0,7.73,2.69,2.7,11.09,2.7,11.09,4,2.36,6.72.68,1.34-1.68,4.7-3.71,14.45-6.72,14.45-6.72S424,99,425.68,97s-.33,1-.33,1-5.71,3-8.06,3.36-2-1.34-1-2.35l-7.4,2s-2-.34-1-2.69A14.21,14.21,0,0,1,411.23,94s-4.36-1.35-5.38,3a38.18,38.18,0,0,0-.66,9.4H402.5s-.34-3-1-6.38a96.51,96.51,0,0,0-3.36-10.43s1,3.71-.34,5.4-7.39.66-7.39.66" fill="#b37535"/><path d="M368.88,85.92s3.69,4.36,6.39,6.06,8.4,2.34,8.4,2.34l-4-9.41.67,6.72s-8.74-3.36-11.43-5.71" fill="#b37535"/><path d="M367.19,97.35a95.62,95.62,0,0,0,8.41,4.71V99a25.86,25.86,0,0,0,8.06,5c5,2,6.39,1.68,14.46,1l-.67,1.68a103,103,0,0,1-12.1-.67,24.32,24.32,0,0,1-8.07-3.37l1,2.36s-.67.66-3-.34-8.41-6.38-8.41-6.38" fill="#b37535"/><path d="M286.35,253s1-5.54,1.51-7.73.84-4.2,1.18-5.88,1-2.36.67-3.37a6.46,6.46,0,0,1-.34-2.18c-.17-1.51-.67-3-.67-4s-.5-.83.5-1.83,1.68-3.71,2.19-.85.51,3,.51,3l2.34-4,.51.34-2.85,5.05s-.51-.69-.51,1.84.66,3.87-.17,4.36a1.12,1.12,0,0,0-.16,1.86c.49.33.33.5-.51,2.69a49.85,49.85,0,0,0-1.85,6.39c-.34,1.5-1,4.19-1,4.19l-1.34.17" fill="#b37535"/><path d="M294.25,252s.16.68-.17-2.85-.84-7.07-.84-7.07l.67-2.18s-.5.5.17,3a50.9,50.9,0,0,1,1,7.06,8,8,0,0,0,.66,2.36l-1.51-.33" fill="#b37535"/><path d="M294.41,222.06s-1.34,0-1.84-.66-1,.16-1,.16a2.56,2.56,0,0,0,0,1.69c.35.83.68,1.68.68,1.68h1.51l1-1.34-.34-1.53" fill="#b37535"/><path d="M291.06,235.36a7.61,7.61,0,0,0,2.51.33l.84-.18-2,.68h1l-2.68,1.67" fill="#b37535"/><path d="M282.31,222.4a3,3,0,0,1,1,2.53,8.79,8.79,0,0,0,1.51,4s-2,.69-2.35-1a35.19,35.19,0,0,1-.17-5.56" fill="#b37535"/><path d="M287.86,87.93s5.38-8.05,2.18-11.08-3.69-2.7-3.69-2.7a2.08,2.08,0,0,1-.67-1.68,7.54,7.54,0,0,0-2.53.17c-1.51.33-1.68-1-1-3.18s3-4,7.22-2.36a5.75,5.75,0,0,1,5.72-.67c4.2,1.51,7.9,3.36,10.08,9.07s2.69,6.06,3.87,7.74c.63.89,2.08,3.1,3.3,5l-.1.07a3.7,3.7,0,0,0,.33,2,7.93,7.93,0,0,1,.5,2.51l-1.18.17a13.57,13.57,0,0,1-.5,2.18,3.43,3.43,0,0,0,.5,2.35l-2.35-2-.5,2.85-2.52-1.68-.84,2.53-1.85-1.69-1.18,1.69-2-1-1.17,2.52-1.84-2.36-1.68,2.36-1.18-2.52-.34.67-1-1.51-1.17,2.85s-.84-2.18-2-2.35-1.52-.16-2-.5-.49-2.69-.49-2.69l-1.69.5,1.69-7.39.16.16" fill="#fff"/><path d="M318.29,118.54c3.52,3.52,11.08,7.39,7.22,8.73a3.74,3.74,0,0,1-3-.83c-1.17-1.18.17.49.17.49a1.78,1.78,0,0,1-1.17,1.68,34.66,34.66,0,0,1-3.19-10.07" fill="#fff"/><path d="M306.18,130.12c-1.68,0-5,.28-5-3.35,0-1.35-.84-1.68.67-2.19s1.18-1.84,2.52.68c0,0,2,2.68,1.85,4.86" fill="#fff"/><path d="M282.27,217.54l-.12-.17,0,0,.14.15" fill="#fff"/><path d="M282.31,223.25v-.34a12,12,0,0,0-.84-3.53,2.57,2.57,0,0,1,.15-1.14l-.48.81,1,2.68.16,1.52" fill="#fff"/><path d="M290.68,245.65h1.64c-.14-2.48-.26-3.92-.26-3.92s-.78,2.14-1.38,3.91" fill="#fff"/><path d="M288,239.22c.33-3,.67-2.36.5-3.86a16.34,16.34,0,0,1-.17-2.37c-.16-2.85-.67-3.52-.67-3.52a22.72,22.72,0,0,1-3.7-.33,2.09,2.09,0,0,1-1.68-2v-2a13.07,13.07,0,0,1-4.87,4.39c-4,2.35-4.36,4.71-1.68,4.71s2-1.35,5.38,1.34,3,2.36-3.37,1-4.69-1.35-7.39-.67-4.37,1-2,2,4.37,2,1.68,2.69a34.4,34.4,0,0,1-5.21.83c2.69,1.69,3.53,2.35,5.38,2.7s1.85,0,3.87.83,1,1,3.19.85,3.87-.68,5.21-.19l4.42,0c.39-1.73.88-4.23,1.13-6.4" fill="#fff"/><path d="M337.61,217.37c-3.36,1-5,1.35-6.05-1.35s-5-1.68-6.72-1a16.64,16.64,0,0,1-5,1c-1,0-4.71-2.35-2.69-3s1-5.38-4.7-3.37-10.09,1.35-6.05,3,6.38,4.38,1.68,5.71-6.39,3-8.07,3.36-1.35,1-3.36-2-3-5.38-6.05-3-2.36,4.37-3.7,5.37a4.34,4.34,0,0,1-2.35,1l-1.15-3.71c.21.87.53,2.22.64,2.86a9.63,9.63,0,0,0,.51,1.85l.5,1.86,1.85-.18a7.33,7.33,0,0,0,1-1.35c.5-.83,1.51.18,1.51.18s.34-.33.17-1.17-.5-.67.17-2.36.67-1.51,2.35-2,2,.33,2.69,1.5-.17,1.68-.17,2.7a2.57,2.57,0,0,1-.67,1.68,5.66,5.66,0,0,1,1.68,2.51,2.87,2.87,0,0,0,.5,1.51,10.59,10.59,0,0,0,3.54.69,32.13,32.13,0,0,1,4,.33l-.33,1.17a5,5,0,0,1-1.52.33c-.67,0-1.34.67-3,.85a15.86,15.86,0,0,1-3,0l-.67,2.68a22.34,22.34,0,0,0,.16,2.69c.11.67.52,4.65.78,8l45.85.26V215.68a16.65,16.65,0,0,1-4.27,1.68" fill="#fff"/><path d="M300.3,308.13c-34.63.67-52.78-3.69-81.69-14.45s-29.92,2-39,9.08l-3.45,4.68,2-.93.41.28c28.91,26.56,58.49,53.62,121.7,53.95,61.52-.67,89.09-27.73,118-54.29l.46-.35c.69.34,1.39.67,2.13,1l-2.93-5c-9.08-7.07-12.44-17.15-36-8.41-28.92,10.74-47.06,15.12-81.69,14.45v14.8c52.92-.3,73.76-10.06,87.4-16.27-17.08,13.82-40.28,35.25-87.4,33.91C253,341.91,226.18,320.64,209,306.85c14.28,6.15,38,15.78,91.28,16.08v-14.8" fill="#fff"/><path d="M325.64,245.92a5.53,5.53,0,1,0-8.54-.26" fill="#ffb935"/><path d="M302.2,243.53h12.49v-1.31H302.2Z" fill="#ffb935"/><path d="M314.65,240.9l-11-1.32-.11,1,10.94,1.32.13-1" fill="#ffb935"/><path d="M315,239.54l-11.54-5.11-.4.93,11.54,5.1.4-.92" fill="#ffb935"/><path d="M315.77,238.26l-9.47-5.65-.52.86,9.48,5.65.51-.86" fill="#ffb935"/><path d="M316.6,237.13,307,226.53l-.75.68,9.63,10.6.74-.68" fill="#ffb935"/><path d="M317.88,236.28l-6.39-9-.82.57,6.38,9,.83-.59" fill="#ffb935"/><path d="M319.09,235.59l-5.25-15.78-.95.31,5.24,15.79,1-.32" fill="#ffb935"/><path d="M320.59,235.35l-2.19-10.82-1,.21,2.2,10.8,1-.21" fill="#ffb935"/><path d="M322,235.2l1.6-16.56-1-.1L321,235.1l1,.1" fill="#ffb935"/><path d="M323.46,235.56l2.37-10.76-1-.22-2.37,10.78,1,.2" fill="#ffb935"/><path d="M324.8,236,333,221.5l-.88-.49-8.15,14.5.88.5" fill="#ffb935"/><path d="M326,236.94l6.53-8.88-.81-.6-6.53,8.88.81.6" fill="#ffb935"/><path d="M327,237.89l13.32-10-.6-.81-13.33,10,.61.81" fill="#ffb935"/><path d="M327.75,239.24l9.57-5.5-.5-.87-9.57,5.48.5.89" fill="#ffb935"/><path d="M328.32,240.5l11.23-2.57-.22-1-11.23,2.57.22,1" fill="#ffb935"/><path d="M328.43,242l11-1.15-.11-1-11,1.15.1,1" fill="#ffb935"/><path d="M328.44,243.43l10.22,2,.19-1-10.22-2-.19,1" fill="#ffb935"/><path d="M300.05,55.59c22.18,0,46.14,5.54,64.29,15.12,0,0,1.76,0,3-2.52s1.77-2.77,1.77-2.77S379.22,74.24,384.25,76A27.06,27.06,0,0,1,382,65.67l12.1-3.52c-8.82-4-19.66-10.85-25.21-16.91s-14.62-8.31-15.63-3S351,49.28,351,49.28,329.79,41,300,41s-50.92,8.32-50.92,8.32-1.26-1.76-2.28-7.05-10.08-3-15.62,3S214.82,58.1,206,62.15l12.1,3.52A27.16,27.16,0,0,1,215.84,76c5-1.77,15.11-10.59,15.11-10.59s.51.25,1.77,2.77,3,2.52,3,2.52c18.15-9.58,42.1-15.12,64.29-15.12" fill="#ef1439"/><path d="M203.65,114.49c2.69-.16,4-1.5,6.39-.66a13.59,13.59,0,0,1,5.38,3.19c1.84,1.68,1,.83,1,.83s-2.18-.83-3,.17-3.87,1.18-4.88,0-.67-1.68-2-2a23.92,23.92,0,0,1-3.87-.84c-1.85-.68-1.85-.84-1.85-.84l4.37.68c1.18.15,2-.18,2.86.83s.5.84,1.17.33,1.18-1.34,1.69-1,1.84.18,1.34,1.35-.34,1.18-.34,1.18a3.86,3.86,0,0,1,1.34-.5,7,7,0,0,1,1.18-.17s-3.36-1.68-4.21-2.19a4.87,4.87,0,0,0-3.35-.5c-1.68.16-3.19.16-3.19.16"/><path d="M230.88,120.38c-1.52-.33-1.52.34-3.19,1s-2.7,1-2.7,1a3.44,3.44,0,0,0,2.53.66,20.48,20.48,0,0,1,4-1l-.67-1.68"/><path d="M184.32,111.3c2.18-1,1.85-1.17,4.71-.67s4.36.33,5.87,2.36-2.85,1.68-4,1-6.38-1.68-7.06-2.69"/><path d="M379.47,125.67c-3,4.28-6.14.93-3.53-2a5.36,5.36,0,0,1,2-1.56,11.44,11.44,0,0,1,3.79-1.21s-3.28,1.08-4.42,2.47-.19,1.25-.44,2.2-.12.89.63.31.88.07,1.39-1,1.07.11.57.81"/><path d="M390.23,118.87c2.18-1.52,3.69-2.7,5-3a5.16,5.16,0,0,1,3.54.33,11.27,11.27,0,0,1,1.68.85l-2.86-.34s-1,4-2.52.51l-2.52.83-2.35.85"/><path d="M406.87,117.19a4.29,4.29,0,0,1,2.68-1.52c2-.5,2.36-1.18,3.7-.84s3.87.84,3.87.84a8.38,8.38,0,0,1-5,1.52h-5.21"/><path d="M289.37,67a34.43,34.43,0,0,1,6.72,3.51c3.12,2,.42,1.61-.5.85a2.23,2.23,0,0,0-1.51-.67s-1.26,1.34-2-.33.17-1.26-.75-1.86-2.44-1.42-2.44-1.42l.5-.08"/><path d="M287,144.84c0-1.85-.17-2.7.67-3.45s1.35-1.52.93.68-.84,3.1-.42,3.6l-1.35-.07.17-.76"/><path d="M293.83,145.43a1.67,1.67,0,0,0,.33-2c-.42-1.18-1-2.52-.59-2.77s.68-.42.93,1,0,2.94.92,3.86l-.84-.33-.75.26"/><path d="M283.15,145.93l.84,1.26.67-1.34"/><path d="M290.21,146.43a3.53,3.53,0,0,1,.92,1.68c.35,1.18.35.68.35.68s.32-.85.49-1.18a6.41,6.41,0,0,0,.34-1.09l-2.1-.09"/><path d="M297.78,146a15.15,15.15,0,0,1,.84,1.87,2.39,2.39,0,0,1,.5-.85,3.61,3.61,0,0,0,.58-1.42l-1.67.25"/><path d="M305,145.76c-.16.43.42,1.85.42,1.85l1.1-1.85H305"/><path d="M312.24,146.35,313.5,148l.58-1.92-1.84.25"/><path d="M317.53,145.85l1.18,1.84a4.82,4.82,0,0,0,.42-.67c.33-.59.75-1.59.75-1.59l-2.35.42"/><path d="M302.82,229.47l.84-4.88.5.17-.67,4.88"/><path d="M302.32,231.48l-1.85,14.46-.84,1.52-.68.33.51.5-1,3.7,1.33.33.68-4.36a11.2,11.2,0,0,0,1-2.53c.34-1.35,1.52-14.11,1.52-14.11"/><path d="M285.68,253.33s1.84-1,3-.16-.17,1.35-.84,1.35-2.18-1.19-2.18-1.19"/><path d="M297.61,252.67l.34.5a8.87,8.87,0,0,1-2.19.16,4,4,0,0,1-2.69-1"/><path d="M243.15,288.37l-1.34-3-4.11,3.76,1.08-1.08-7.56-.74a22.9,22.9,0,0,1,4.28,1.26,11.42,11.42,0,0,1,1.48,1.21l-.31.29,6.48-1.69"/><path d="M172.22,304.18c2,.26,6.05-.26,6.8-.76l-1,4.29-1.52.5-4.28-4"/><path d="M368.12,291.57l.25-1-4.53-3.79-2,2.78,6.3,2"/><path d="M418.8,297.88l3.78,2.26-1,1.53-3-1.53.25,6.06-1.26-5.05L416,300.4l2.78-2.52"/><path d="M214.68,302.9a1,1,0,0,0,.69,1.22,1,1,0,0,0,1.22-.59c.24-.77-.33-1.22-.85-1.6a2.9,2.9,0,0,1-1-1.05,2.1,2.1,0,0,1,2.64-2.88,2.19,2.19,0,0,1,1.41,2.69l-1.35-.43a.82.82,0,0,0-.55-1,.73.73,0,0,0-.95.52c-.18.51.23.87.61,1.15A4.55,4.55,0,0,1,217.7,302a2,2,0,0,1,.22,1.86,2.42,2.42,0,0,1-4.61-1.44l1.37.45"/><path d="M220.82,299.28l1.31.43-2.31,7.08-1.32-.43,2.32-7.08"/><path d="M231.85,310.84a3,3,0,0,1-1.68-1.13,4.06,4.06,0,0,1-2.21-.1,3.92,3.92,0,0,1-2.62-4.88,3.78,3.78,0,0,1,1.88-2.29,4,4,0,0,1,5.67,4.68,3.45,3.45,0,0,1-1.58,2,1.89,1.89,0,0,0,.7.44l.21.06-.37,1.18"/><path d="M236.55,304.29l-1.33,4.45a2.15,2.15,0,0,0-.16,1,1.15,1.15,0,0,0,.77.9,1.18,1.18,0,0,0,1-.23,2.06,2.06,0,0,0,.51-1l1.33-4.45,1.32.4-1.33,4.45a3,3,0,0,1-1.1,1.77,2.63,2.63,0,0,1-2.16.36,2.7,2.7,0,0,1-1.57-1.41,2.82,2.82,0,0,1,0-2.17l1.33-4.45,1.32.4"/><path d="M245.23,306.84l3.3.88-.35,1.29-2.13-.57-.44,1.66,2,.54-.34,1.29-2-.54-.44,1.66,2.14.56-.35,1.3-3.46-.92.49-1.87-1.91-.5-1.61,1.56-1.55-.41,6.67-5.93"/><path d="M250.68,308.17l2.11.45a2.9,2.9,0,0,1,1.77.93,2.44,2.44,0,0,1,.46,2,2.68,2.68,0,0,1-1,1.46,2.39,2.39,0,0,1-1.45.42l1.39,3.11-1.66-.35L251,313l-.6,2.78-1.35-.29,1.59-7.29"/><path d="M256.66,309.4l1.36.26L256.7,317l-1.36-.24,1.32-7.35"/><path d="M259.83,315.39a1,1,0,0,0,2,.27c.11-.8-.53-1.13-1.11-1.42a3,3,0,0,1-1.18-.86,2.18,2.18,0,0,1-.38-1.5,2.14,2.14,0,0,1,2.49-1.78,2.18,2.18,0,0,1,1.85,2.41l-1.41-.2a.81.81,0,0,0-.72-.9.73.73,0,0,0-.84.68c-.08.54.38.82.8,1a4.61,4.61,0,0,1,1.34.89,2,2,0,0,1,.53,1.79,2.41,2.41,0,0,1-2.73,2,2.38,2.38,0,0,1-2-2.61l1.42.21"/><path d="M267.62,318.46l.6-7.43,1.75.15a3.26,3.26,0,0,1,2,.55,2.26,2.26,0,0,1,.83,1.95,2.35,2.35,0,0,1-1,1.82,3.41,3.41,0,0,1-2.25.27h-.26l-.23,2.81-1.38-.11"/><path d="M274.15,311.49l4,.19-.07,1.34-2.62-.14-.08,1.72,2.51.13-.07,1.33-2.51-.13-.09,1.72,2.62.14-.07,1.33-4-.21.39-7.44"/><path d="M279.7,311.75l1.55.06,2.94,5.52.16-5.44,1.38,0-.22,7.44-1.53,0-3-5.52-.17,5.42-1.38,0,.23-7.46"/><path d="M287.49,312l1.38,0-.13,7.45-1.38,0,.13-7.44"/><path d="M290.66,312l1.56,0,3,5.48.06-5.44h1.38l-.08,7.45-1.54,0L292,314.06l-.06,5.43-1.38,0,.08-7.45"/><path d="M299.34,317.46a1,1,0,0,0,2,0c0-.82-.67-1.07-1.29-1.28a2.77,2.77,0,0,1-1.28-.69,2.09,2.09,0,0,1-.58-1.44,2.19,2.19,0,0,1,4.37,0h-1.42a.8.8,0,0,0-.83-.78.72.72,0,0,0-.74.78c0,.54.49.76.93.91a4.32,4.32,0,0,1,1.45.69,2,2,0,0,1,.77,1.7,2.42,2.42,0,0,1-4.83.05h1.45"/><path d="M305.41,312.11l.07,4.64a2,2,0,0,0,.15,1,1.07,1.07,0,0,0,1.91.08,2,2,0,0,0,.19-1.12l-.06-4.64,1.38,0,.06,4.65a2.88,2.88,0,0,1-.51,2,2.49,2.49,0,0,1-3.88.12,2.94,2.94,0,0,1-.64-2.08l-.05-4.65h1.38"/><path d="M310.79,312l1.38-.05.21,6.11,2.28-.08,0,1.33-3.66.13-.26-7.44"/><path d="M318,311.7l1.08-.06,3.56,7.25-1.52.08-.91-1.87-2.64.16-.71,2-1.53.08L318,311.7"/><path d="M323.25,311.38l1.87-.18,2.53,5.49,1.47-5.86,1.87-.17.7,7.42-1.38.13-.51-5.57-1.4,5.75-1.17.1-2.43-5.38.51,5.56-1.37.13-.69-7.42"/><path d="M338.12,309.7l1.07-.15,4.2,6.91-1.51.22-1.08-1.79-2.62.39-.53,2-1.5.23,2-7.83"/><path d="M343.29,308.92l1.85-.35,3,5.21.91-6,1.85-.35,1.39,7.33L351,315l-1.05-5.48-.84,5.84-1.15.23L345,310.49l1.05,5.48-1.36.27-1.4-7.32"/><path d="M359.9,313l-.2-.79a3.47,3.47,0,0,1-2.1,1.52,3.88,3.88,0,0,1-1.84-7.53,3.29,3.29,0,0,1,2.56.39l-.2-.82,3.47-.85.32,1.3-2.15.52.41,1.67,2-.5.32,1.3-2,.5.42,1.66,2.14-.52.32,1.31-3.47.84"/><path d="M363,304.46l1.48-.43,4.53,4.33-1.55-5.22,1.32-.39,2.13,7.15-1.48.43L364.91,306l1.55,5.2-1.32.39L363,304.46"/><path d="M372.77,301.43l1-.34,5.35,6.06-1.44.49-1.38-1.57-2.5.84-.17,2.1-1.44.48.55-8.06"/><path d="M377.73,299.75l1.76-.67,3.9,4.6-.14-6L385,297l2.65,6.95-1.29.51-2-5.22.19,5.91-1.09.41L379.69,301l2,5.22-1.29.48-2.66-6.95"/><path d="M221.58,327.24c.21-1.18.33-2.63-1-3.49-1.5-1-3,.19-3.87,1.59-1.11,1.68-1.69,3.71-.14,4.72,1.18.78,2.44.08,3.5-.51l1.29,1.51c-1.4,1.11-3.57,1.55-6-.08-2.76-1.82-4-4.67-2-7.6s5.05-2.93,7.45-1.34a3.4,3.4,0,0,1,1.5,1.76l.39-.28,1.14.76-.43,3.64-1.82-.67"/><path d="M225.28,335.48l.41.24c.78.44,1.35.71,1.79-.08l2.76-4.86c.44-.77-.08-1.13-.86-1.56L229,329l.63-1.13,6.47,3.65-.65,1.13-.4-.23c-.78-.44-1.36-.69-1.8.08l-2.76,4.85c-.43.78.08,1.14.86,1.58l.41.24-.64,1.12-6.46-3.67.64-1.13"/><path d="M237.12,342.06l.43.18c.82.36,1.42.56,1.78-.26l2.21-5.13c.36-.81-.19-1.12-1-1.48l-.43-.18.52-1.19,6.51,2.82c3.15,1.36,4.37,3.62,3.81,4.92s-2.06,1.67-3.68,1.29l.53,2.5a2,2,0,0,0,1.46,1.79l.59.24-.52,1.2-4.49-1.95-.85-4.87-.74-.31-.75,1.71c-.35.82.17,1.1.88,1.41l.45.21-.51,1.18-6.7-2.89.52-1.19"/><path d="M265.68,347c-.16-1.2-.51-2.62-2-3-1.74-.46-2.74,1.12-3.18,2.72-.52,2-.44,4.05,1.35,4.55,1.38.36,2.34-.7,3.16-1.59l1.7,1c-1,1.49-2.91,2.58-5.74,1.81-3.18-.87-5.22-3.2-4.31-6.58s3.87-4.38,6.66-3.61a3.32,3.32,0,0,1,2,1.18l.3-.38,1.31.36.75,3.59-2-.05"/><path d="M279.84,345.68l-.16,1.28-.46,0c-.7-.09-1.05,0-1.12.54l-.66,5.18c-.13,1.06.47,1.75,1.76,1.91s2-.29,2.21-1.59l.63-5c.06-.5-.17-.71-.83-.79l-.75-.1.16-1.28,5.61.72-.16,1.28-.63-.08c-.84-.1-1.1,0-1.16.54l-.69,5.38c-.29,2.28-2.59,2.54-4.95,2.25-4.5-.58-4.78-2.33-4.55-4.11l.59-4.75c.07-.48-.28-.71-1.15-.83l-.45-.05.16-1.3,6.61.85"/><path d="M291.29,355.64h.47c.89,0,1.52-.05,1.52-.94l0-5.61c0-.88-.64-.93-1.53-.92h-.48v-1.3l6.39-.05,2.34,5.53h0l2.24-5.57,6.32,0V348h-.47c-.88,0-1.52.08-1.51,1l0,5.58c0,.9.64.95,1.53.94h.48v1.29l-7,.05v-1.28h.53c.87,0,1.24-.13,1.24-.72l0-5.78h0l-3.22,7.82h-1.34l-3.37-7.83h0l.05,5.84c0,.61.38.71,1.25.71h.52v1.28l-5.89.05v-1.3"/><path d="M314.67,353l1.55-.79c1,.69,2.89,1.86,4.86,1.55,1.13-.17,1.8-.76,1.74-1.18-.1-.64-.76-.8-2.14-1L317,351a2.91,2.91,0,0,1-2.62-2.11c-.27-1.69,1.49-3.37,3.93-3.75a6.58,6.58,0,0,1,2.48.12l0-.33,1.36-.22,2.1,2.52-1.58.8a5.09,5.09,0,0,0-4-1.49c-1,.15-1.45.66-1.37,1.16s1.18.8,2.31,1l3.5.54c1.54.23,2.46,1,2.64,2.15.28,1.78-1.77,3.43-4.32,3.83a7.44,7.44,0,0,1-2.87-.12l0,.39-1.6.25L314.66,353"/><path d="M332.17,351.7l.46-.14c.86-.23,1.45-.44,1.22-1.3l-1.47-5.39c-.23-.86-.86-.75-1.72-.51l-.46.12-.34-1.25,6.66-1.82c2.78-.76,5.74-.57,6.32,1.54s-2.61,3.62-5.33,4.36l-.84.23.5,1.8c.23.86.85.77,1.71.52l.74-.21.34,1.26-7.45,2-.34-1.24"/><path d="M350,346.42l.44-.15c.83-.32,1.41-.59,1.1-1.43l-2-5.23c-.31-.84-.93-.67-1.76-.36l-.44.17-.46-1.22,7-2.59.46,1.21-.45.16c-.83.3-1.4.59-1.09,1.42l2,5.24c.31.83.92.67,1.76.36l.44-.17.45,1.2-7,2.61-.45-1.21"/><path d="M368.82,332.92c-.91-.78-2.11-1.63-3.5-1-1.62.77-1.34,2.63-.62,4.13.87,1.82,2.31,3.35,4,2.56,1.28-.62,1.31-2.07,1.34-3.28l2-.33c.23,1.77-.52,3.87-3.16,5.12-3,1.44-6,1-7.56-2.15s.07-5.83,2.67-7.09a3.45,3.45,0,0,1,2.27-.37l0-.49,1.23-.59,2.9,2.24-1.5,1.21"/><path d="M378.15,333.74l.4-.27c.73-.48,1.22-.88.73-1.63l-3.13-4.63c-.49-.73-1-.43-1.79.07l-.39.27-.73-1.08,8.7-5.87,3.23,1.19L384,323.2c-1.77-.76-3.46-.08-5.16,1.06l-.37.25,1.68,2.47.67-.44c.6-.42.79-.81.42-1.36l-.23-.34,1.51-1,2.29,3.4-1.5,1-.24-.36c-.35-.5-.71-.72-1.48-.19l-.67.45,1.74,2.57.56-.38c2.16-1.45,2.85-2.41,3.14-4.66l1.7-.6-.05,3.59-9.13,6.17-.73-1.07"/><path d="M240.22,54.24l4.92-1.71.57,1.65-3.22,1.11.73,2.11,3.08-1.07.57,1.64L243.79,59l.73,2.1L247.74,60l.57,1.66-4.92,1.71-3.17-9.15" fill="#fff"/><path d="M258.24,58.65l-2.44-9.37L258,48.7a4.33,4.33,0,0,1,2.66-.16,3,3,0,0,1,1.86,2,3.09,3.09,0,0,1-.5,2.68,4.49,4.49,0,0,1-2.64,1.3l-.34.08.92,3.55-1.73.46" fill="#fff"/><path d="M263.72,47.29l1.76-.39,1.69,7.76,2.89-.63.37,1.71-4.65,1-2.06-9.48" fill="#fff"/><path d="M272,45.59l1,6a2.71,2.71,0,0,0,.4,1.26,1.45,1.45,0,0,0,1.4.6,1.49,1.49,0,0,0,1.08-.89,2.54,2.54,0,0,0,0-1.47l-1-6,1.78-.3,1,6a3.91,3.91,0,0,1-.26,2.7,3.48,3.48,0,0,1-2.32,1.69,3.54,3.54,0,0,1-2.65-.75,3.77,3.77,0,0,1-1.22-2.53l-1-6,1.77-.3" fill="#fff"/><path d="M279.47,44.41l2.78-.32a3.82,3.82,0,0,1,2.58.38,3.17,3.17,0,0,1,1.39,2.25,3.4,3.4,0,0,1-.55,2.18,3.18,3.18,0,0,1-1.6,1.13l3,3.26-2.2.24-2.95-3.39.42,3.69-1.78.2-1.1-9.63" fill="#fff"/><path d="M287.84,43.54l1.79-.13.72,9.66-1.79.13-.72-9.66" fill="#fff"/><path d="M292.34,43.22l1.75,0a5.47,5.47,0,0,1,2.6.28,2.53,2.53,0,0,1,1.42,2.13,2,2,0,0,1-1,1.88,2.35,2.35,0,0,1,1.73,2.29,2.78,2.78,0,0,1-1.11,2.34,4.54,4.54,0,0,1-2.65.73l-2.43.08-.31-9.68" fill="#fff"/><path d="M302.69,43.06l-.16,6a2.83,2.83,0,0,0,.15,1.33,1.44,1.44,0,0,0,1.26.85,1.46,1.46,0,0,0,1.24-.65,2.59,2.59,0,0,0,.3-1.45l.16-6,1.79,0-.15,6a3.9,3.9,0,0,1-.78,2.61,3.25,3.25,0,0,1-5.05,0,3.69,3.69,0,0,1-.71-2.73l.16-6,1.79,0" fill="#fff"/><path d="M310.81,50.39a1.31,1.31,0,0,0,2.6.21c.09-1.05-.78-1.46-1.56-1.78a3.55,3.55,0,0,1-1.59-1,2.65,2.65,0,0,1-.61-1.91,2.8,2.8,0,0,1,3.07-2.52,2.85,2.85,0,0,1,2.6,3l-1.84-.15a1.07,1.07,0,0,0-1-1.1,1,1,0,0,0-1,.95c-.07.7.56,1,1.12,1.28a5.5,5.5,0,0,1,1.81,1,2.63,2.63,0,0,1,.83,2.28,3.14,3.14,0,0,1-6.26-.4l1.87.15" fill="#fff"/><path d="M328.39,45.62l-1.14,5.94a3,3,0,0,0-.07,1.32,1.42,1.42,0,0,0,2.43.61,2.52,2.52,0,0,0,.53-1.38l1.15-5.94,1.75.35-1.13,5.92a3.89,3.89,0,0,1-1.19,2.45,3.22,3.22,0,0,1-5-.88,3.64,3.64,0,0,1-.26-2.8l1.13-5.93,1.77.34" fill="#fff"/><path d="M335.79,47.11l2,.5,2.17,7.85,1.74-6.87,1.74.44L341,58.42l-1.93-.49-2.21-7.82-1.73,6.83-1.75-.44,2.38-9.39" fill="#fff"/><path d="M347.78,50.34,346,56.11a2.79,2.79,0,0,0-.22,1.3,1.49,1.49,0,0,0,1,1.18,1.5,1.5,0,0,0,1.36-.29A2.71,2.71,0,0,0,348.8,57l1.79-5.78,1.71.54-1.79,5.76a3.89,3.89,0,0,1-1.45,2.3,3.21,3.21,0,0,1-4.84-1.43,3.67,3.67,0,0,1,0-2.8l1.78-5.78,1.73.54" fill="#fff"/><path d="M355,52.6l2.29.84-.13,7.85,5-6,2.29.85-3.36,9.09-1.68-.62,2.51-6.81L357,63.7l-1.42-.53.17-7.67-2.52,6.81-1.68-.63L355,52.6" fill="#fff"/><path d="M258.28,191.38h.59c.9,0,1.55-.07,1.55-1.34V180.7c-1.69.23-2.28,1.17-3.51,3.1l-1.74-.66,2.15-4.29h9.86l2,4.12-1.63.85c-.91-1.5-1.82-2.78-3.62-3.12V190c0,1.27.65,1.34,1.56,1.34h.59v1.87h-7.79v-1.87" fill="#fff"/><path d="M276.45,178.84v1.86H276c-.73,0-1.07.23-1.07,1v7.47c0,1.53.7,2.4,2,2.4s2-.78,2-2.66v-7.2c0-.72-.26-1-1-1h-.76v-1.86H283v1.86h-.65c-.86,0-1.11.27-1.11,1v7.77c0,3.28-2.3,4.07-4.72,4.07-4.63,0-5.14-2.44-5.14-5v-6.83c0-.7-.38-1-1.28-1h-.46v-1.86h6.79" fill="#fff"/><path d="M284.28,191.38h.48c.91,0,1.55-.07,1.55-1.34v-8c0-1.27-.64-1.36-1.55-1.36h-.48v-1.85H295l2.06,4-1.79.73c-1.07-2.31-2.89-2.87-5-2.87h-.45V185h.83c.75,0,1.13-.33,1.13-1.29v-.57h1.85V189h-1.85v-.64c0-.86-.19-1.41-1.13-1.41h-.83v4.43h.69c2.66,0,3.79-.55,5.32-3l1.78.66-2.1,4.21H284.28v-1.87" fill="#fff"/><path d="M298.81,191.38h.49c.91,0,1.55-.07,1.55-1.34v-8c0-1.27-.64-1.36-1.55-1.36h-.49v-1.85h5.51c3,0,6.35.43,6.39,3.78,0,1.8-1.17,3-3.75,3.22v0c3,0,4.62,1.65,4.66,3.27,0,3.82-3.39,4.08-6.27,4.08h-6.54v-1.86" fill="#fff"/><path d="M319.76,178.58c4.28,0,6,3.71,6,7.46s-1.75,7.47-6,7.47c-3.36,0-6-2.45-6-7.47s2.64-7.46,6-7.46" fill="#fff"/><path d="M327.54,191.38H328c.92,0,1.56-.07,1.56-1.34v-8c0-1.27-.64-1.36-1.56-1.36h-.47v-1.85h7.23c3.51,0,5.57,2.26,5.57,4.28a3.76,3.76,0,0,1-2.92,3.78l1.51,3c.53,1.08.88,1.48,2.09,1.48h.65v1.87h-5l-2.75-5.89h-.83V190c0,1.27.6,1.34,1.39,1.34h.5v1.86h-7.43v-1.86" fill="#fff"/><path d="M230.51,308.07a2.29,2.29,0,0,0,1.06-1.35,2.56,2.56,0,0,0-3.67-3,2.5,2.5,0,0,0-1.21,1.37l-.11.4.1,1.19a2.55,2.55,0,0,0,1.82,1.72,1.74,1.74,0,0,0,.88,0l1.13-.32" fill="#fff"/><path d="M244,310.83l.49-1.85-1.61,1.55,1.12.3" fill="#fff"/><path d="M252,312.09a1.71,1.71,0,0,0,1.14-.07,1.14,1.14,0,0,0,.51-.72,1,1,0,0,0-.22-.89,1.5,1.5,0,0,0-.95-.48l-.75-.15-.47,2.15.74.16" fill="#fff"/><path d="M269.59,314.45a3.84,3.84,0,0,0,1.07,0,1,1,0,0,0,.74-.86.92.92,0,0,0-.64-.95,3.91,3.91,0,0,0-1-.13l-.25,0-.16,1.94.26,0" fill="#fff"/><path d="M319.59,315.79l-.92-2.2L318,315.9l1.59-.11" fill="#fff"/><path d="M354.37,310.55a2.42,2.42,0,1,0,4.69-1.16,2.48,2.48,0,0,0-2.95-1.89,2.44,2.44,0,0,0-1.74,3.05" fill="#fff"/><path d="M375.39,305l-1.48-1.89,0,2.4,1.51-.51" fill="#fff"/><path d="M244.34,340.59c1.25.54,2.81.94,3.32-.27s-.75-2-2.24-2.66l-.4-.18-1.24,2.88.56.23" fill="#fff"/><path d="M336.31,346.2,337,346c1.22-.33,2.43-1,2.12-2.14-.35-1.29-2-1.14-3.3-.79l-.37.11.83,3" fill="#fff"/><path d="M340.06,313.65,339,311.54l-.46,2.34,1.57-.23" fill="#fff"/><path d="M258.93,52.88a5.17,5.17,0,0,0,1.32-.46A1.25,1.25,0,0,0,260.8,51a1.17,1.17,0,0,0-1.19-.87,5.42,5.42,0,0,0-1.32.26l-.32.07.64,2.46.32-.08" fill="#ef1439"/><path d="M282.75,48.69a2.15,2.15,0,0,0,1.37-.57,1.46,1.46,0,0,0,.33-1.1,1.35,1.35,0,0,0-.65-1,2,2,0,0,0-1.36-.17l-1,.11.33,2.84,1-.09" fill="#ef1439"/><path d="M295.13,51.07a2.46,2.46,0,0,0,1.48-.38,1.13,1.13,0,0,0-.24-1.93,2.62,2.62,0,0,0-1.27-.15l-.79,0,.08,2.48.74,0" fill="#ef1439"/><path d="M294.59,46.87a3.12,3.12,0,0,0,1.22-.18,1,1,0,0,0,.52-.91.93.93,0,0,0-.63-.83,3.1,3.1,0,0,0-1.18-.05h-.33l.06,2,.33,0" fill="#ef1439"/><path d="M304.77,184.87A2,2,0,0,0,307,183a2,2,0,0,0-2.27-2.05h-.33v4h.41" fill="#006fff"/><path d="M304.77,191.38c1.85,0,2.86-.85,2.86-2.14,0-1.69-1.71-2.3-2.81-2.3h-.46v4.44h.41" fill="#006fff"/><path d="M319.76,191.53c1.74,0,2.16-3,2.16-5.44s-.42-5.44-2.16-5.44-2.13,3-2.13,5.44.43,5.44,2.13,5.44" fill="#006fff"/><path d="M333.7,185.38c1.4,0,3-.35,3-2.24s-1.53-2.23-3.19-2.23h-.44v4.47h.62" fill="#006fff"/><path d="M178.27,301.41s1,.33.67,2.7-1.34,5-3.36,3.34-3.7-4-5.05-5-1.68-1-1.34-4,1.68-14.12,0-17.15a15.69,15.69,0,0,1-1.68-9.41c.34-3-1-4.37.67-6.05s6.72-6.39,6.72-14.46a27,27,0,0,0-4.7-14.45s-3.36,2.69-2.69-1.68-1.34-13.11,7.73-22.51,17.82-14.8,19.5-18.51,4-12.76,4-12.76l-2,1s.33-3,.67-4.36a29.28,29.28,0,0,0,1-7c0-3-1-10.77-1-10.77l-2.35,1.35v-4a2.79,2.79,0,0,0-1.35-2.36c-1.35-.67-2.35-1.35-2-3a12,12,0,0,0,0-3.7L189,150.14a36.14,36.14,0,0,0,1.34-14.45c-1-7.4-.67-13.78.67-17.15,0,0-8.74-1.34-10.42-7.73a16.89,16.89,0,0,1,4.71-3c3-1.33,8.06-1.33,13.1,2.36l1.13-.59-7.68-5.29A29.17,29.17,0,0,1,186,99.09s-21.06,2.89-24.71-4c0,0,11.59,4.79,14-4.28l-6.92-4.66S182.42,93,184.06,73.24c0,0,1.76,3.42.51,9.84s5,13.49,5,13.49a10.43,10.43,0,0,0,.88-4.28s.88-.77,2.27,4.91c0,0,7.31-3.4,6.68-17.9,0,0,1.14-2.9,1.14,1s.63,8.82-3.91,17.15a2.83,2.83,0,0,0,.87,3.64c.89.51,1.77,1,2-.12a15.22,15.22,0,0,0,0-6.81c-.76-2.65-.12-1.76.5-1s2.53,2,2.53,7.3c0,1.27-.38,2.16,1.89.51a18.64,18.64,0,0,0,5-6.17c1.38-2.4,1.89-2.27.75.63s-2.51,6-.63,4.91S219,94.05,221.12,90s2.64-3.27,1.51-.13-1.39,4.67-3.78,7-2.78,2.39-.13,1.38,8.07-2.9,10.08-6.69,3.28-5.29,2.53-2.64-1.89,4.66-.13,4.29,7.94-2.9,10.72-6.94A22.36,22.36,0,0,1,230.45,99c-9,4.16-12.49,4.65-12.49,4.65s6.3.52,7.57.89,3.27,1.13.12,1.39-11.72-.26-13.1.25-2.65,2-1.27,2.89,8.2,4.17,10.59,6a16.32,16.32,0,0,0,5.92,3c1.39.38,3.78,1.26,4,4s.63,2.65-.13,3.79-.63,4.4-3.91,4.78-5.29,0-6.17,1a5.65,5.65,0,0,0-1,1.4M175.74,87c-.63-2.64,0-4.41.51-2.51A6.88,6.88,0,0,0,177,86.6m43.37,46.14s4.78,5.54,7.31,8.31,3,2.77,4.27,6.56,3,4.53,4.29,6,5,8.32,5,8.32,5.55-2,10.59-3.53,11.35-5.56,14.12-5.3,3.78.26,5.05,4.29,1.76,6,1.76,6m-24.7,14.38c-1.27,1.26-3.28,2.53-3.53,3.79s-1,5.3-1,5.3l10.34,4.27m-.17,42c-2.28.38-6.25-1.57-5.63-4.89.75-4,1.26-5.54-.25-7.32s-1-2.25-.51-8.05,2.27-12.86-1.51-13.11-4.29-.25-4.78,2.51-5.55,12.86-10.09,16.9a119.77,119.77,0,0,0-9.33,9.58s5.29,4,1.51,14.61-6.55,15.63-4,22A38.28,38.28,0,0,0,227.69,279c3.78,4,4,4.79,7.32,5s6.3-.25,7.55,3.27m-5.8,2.53s0-1.51-3.53-2S227.69,286,223.9,281s-4-5.28-7.81-7.05-5.3-3.27-6.56-5.05-1.51-3.52,0-10.32,3.28-6.56-2.77-10.6-8.82-5.8-8.82-5.8-5,13.11-13.62,20.93-9.08,6.31-9.83,14.62-1.76,16.39.5,19.41a18.3,18.3,0,0,0,3.79,4m63.53-101.6a25.62,25.62,0,0,1-5.29-2c-1.52-1-2.78-1.25-6.06-1s-9.58-3.53-9.58-3.53m22.19-6.3s-8.07-3-9.33-4.54-4.54-5.55-4.54-5.55m11.6-14.86s1,1.25,2,5.8,2.27,6.54,2,9.06a15.4,15.4,0,0,1-.75,3.78m-46.65,61.78s1.77-7.81,1.52-12.1a15.6,15.6,0,0,1,1.76-7.81" fill="none" stroke="#000" stroke-width="0.6"/><path d="M221.64,228.8a45.35,45.35,0,0,1-4.8,4.53c-1.26.76-2.26,3.53-6.8,4.79a59,59,0,0,0-7.82,2.77m-27-150.43a17.17,17.17,0,0,1,6.39,4.87s-4.37.51-3.53-2.85M192.89,97s-1.85,1.68-3.19-.17m8.91,4.53s3.36.51,4.87,1.68,5.21,5.21,5.21,5.21m8.57-9.91a43.58,43.58,0,0,0-5.54,3.35c-1.35,1.19-2.7.85-2,3.38s1.18,3,1.18,3m20.67,17.64s-2.69.83-4.7,1.34a8.09,8.09,0,0,0-3.54,2c-.66.5-2.68.34-3.19.16m114.13,35c.34-4.88,2.19-10.42,7.06-10.42s4.88.5,7.9,2.52,10.42,6.22,16,9.58c0,0,4.2-3.53,4.37-5s2.18-3.36,3.69-5.55,1.68-2.52,1.85-3.69-1.35-1.68-1-3.71-.34-1.68,2.52-4.53,8.75-9.08,9.59-11.1,0-2.34-1.52-1.68-1.68,1.68-2.52,2.18a4.63,4.63,0,0,1-4.54-.83c-1-1.18-5.38-1.18-6.05-4s-1.34-7.39,3.36-9.59,7.57-2,12.95-2.34a6.82,6.82,0,0,0,4.87-2.18,28.64,28.64,0,0,1,5.72-3.7s-21,2.68-30.1-8.9c-2-2.53-2.26-5.3,0-2.79s7.57,4.3,7.57,4.3-.75-4,.51-3,6.55,7.06,21.93,5.8c.5-4.28-2.52-7.07-15.13-8.83s-13.36-6.81-14.62-9.07-.76-3.79,2-1,10.59,6.05,10.59,6.05a17.25,17.25,0,0,1-1.51-5.8c0-2.52-.51-3.28,2.26-.51s7.82,7.32,10.09,7.57,5.8,2.27,3.78-2.77-3-9.83-1.77-13.62,1.52-3.52,1.77.25,4.28,11.1,8.07,7.57,4.28-3,5.54-2.27a2.88,2.88,0,0,0,4.28-1c1.27-2,2-3.28,2-3.28s-.25,7,7.06.75c3,2.53,5,3,6.81-1s2.77-2,1.51,1.27S421.31,90.14,415,93.66s-5.8,5.55-5.8,5.55,5.54-2,8.06-3.27,5.3-2.27,2.77.5-2.26,4.29,1.77,1.52,7.82-6.32,6.56-3.29-.26,3.78,3,.76,2-2.28,3.53-4,6.05-3,2.52,1.75-12.1,13.88-22.7,15.13c-3.77.26-5.78,3-.49,3a22.65,22.65,0,0,1,9.57,2.27s.51,4.29-8.07,6.8c3.28,14.13,1.52,10.34,0,17.41a55.22,55.22,0,0,0-1.25,12.6l-2.52-.25a46,46,0,0,0-.25,8.07l-2,.5s-.75.51,2,9.33l-2,1.25s-.26,1.52,2,6.06c0,0-3.53,6-2,11.6,0,0-3-2.27-1.77,2.52m-.23,0s1.51,8.82,10.84,17.39,14.37,14.11,14.37,20.41c.25,2.79-2,2.53-2,2.53a102.65,102.65,0,0,1-4,10.34c-2.52,5.55-4.54,6.55-1.52,15.13s3.79,6.3,2.28,15.37a103,103,0,0,0-1.77,21.95c.25,6.55-.25,5-1.76,6s-3,4.28-3.78,5.8a18.94,18.94,0,0,0-1,2.27l-2-7.32s3-2.51,3.79-9.32,2.77-20.67-5.3-32-10.84-12.35-10.84-21.94v-4.54S394,239,390.82,250.48c-1.26,4.53-.25,6.81.25,9.07s1.26,1.76-1.76,6.3c0,0-7.32,7.82-9.33,12.11s-3,8.81-6.31,8.81-2.16-.13-3.27,1.27l-2,2.52-5-2.78s1-2,5.55-4.54,11.29-10.9,12.61-19.65c2-13.37-4-23.2-1.27-31.52s6-10.59,6-10.59-17.13-9.84-20.41-14.62-2.28-1.77-2.28-1.77l.26,3a25.75,25.75,0,0,1-3.78-8.07c-1-4.28,0-7.82-3.28-7.31s-5.05-.51-6.05,5-.51,17.9.25,18.15,1.76,3.79-1.76,4.29c.75,4.54,1,10.08-2,11.6M349,183.17l6.55-2.78-3-2.77m3,2.52,6.81-2.28s.26-3.52,1-4.54-.25-1.5,1.51-3.27,3.78-2,5.55-3.27,3-2.27,3-2.27" fill="none" stroke="#000" stroke-width="0.6"/><path d="M366.1,168.29a12.26,12.26,0,0,1,1.26-4m2-2.77s1.26,2.27,3.53.24m2-10.84s.5,1.27,2.78-1.24a41.59,41.59,0,0,0,3.27-4m-22.44,47.14s12.1-2.26,16.39-3.27a35.14,35.14,0,0,1,5-1m24.71,43.12s.5-2.78-1.26-7.07m-26.73-93a2.92,2.92,0,0,0,3.79-.25c1.76-1.76,3.53-4,7.81-3m27.31-8s-.33-.19-3,0-4.54.15-4.54.15M241.3,135.84c-1.18-18.65,3.7-47.39,20-62.85,14.12-11.95,20-5.89,18.49-.18-2.18,7.73,2.36,10.93,8.07,15.12,0,0,5.37-8.05,2.18-11.08s-3.7-2.7-3.7-2.7a2.08,2.08,0,0,1-.67-1.68,7.68,7.68,0,0,0-2.52.18c-1.51.34-1.68-1-1-3.19s3-4,7.22-2.36a5.75,5.75,0,0,1,5.72-.67c4.2,1.51,7.9,3.36,10.08,9.07s2.68,6.06,3.87,7.74,5.21,7.89,5.21,7.89,8.48-6.73,3.35-9.74c-6.54-3.87-7.89-12.94.68-12.45S339.62,74,345.17,80.71s20.51,22.53,15.47,57.31l-2.52-5.21-.68,3a14,14,0,0,1-1.84-5c-.67-3.36-1.35-6.89-1.35-6.89l-1.34,3.86a18.47,18.47,0,0,1-2-7l-1.19.5s-2.18-2.85-4-9.41l-1.84,2.69L340.48,111l-.84,2.51s-2.53.5-4.88-3-.5,0-.5,0l-1.52,3.2s-2.35-.85-3-2.53l-2,1.53-2.53-4.38-.84,2.7s-3-2.2-3.36-3.2l-1,3.53-2.51-2M241.3,135.84l2.69-5.37,1.18,1.33,2.51-5.21,1.17.85s4.21-4,5.05-7.41.17.52.17.52l1,1.51s1,.67,2-1.18,4.21-7.74,4.21-7.74-.51,3.2,1.34,3.88c0,0,2.18-.68,4-4l1.34,2s3.2-1.35,3.87-3.2l.84,2.68a21.87,21.87,0,0,0,4.87-4.69l1.52,3.36a9.38,9.38,0,0,0,3.19-3.53l3.7,2.68s-1.68,2.36.84,5.38a29.92,29.92,0,0,0,0,5.72s-.34,1.5-.67,3a13.72,13.72,0,0,0-.51,4.7c.17,1.84.84,3.52,2.86,3.86s2.69.84,4.87,1.18a13,13,0,0,0,5.72-.67,3.39,3.39,0,0,0,2.35-3.71,13.9,13.9,0,0,1-.33-3.35c0-2.36-.84-4.2.84-4.2s2-.67,3.19,2,1.18,2,1.18,4.88,0,4.7,1.67,5,.84.67,3.86.49,3.54-.16,5.55-.32a4.27,4.27,0,0,0,3.87-2.85,6.51,6.51,0,0,0,.17-3.53c-.17-1.35.5.5-.68-2.36a47.8,47.8,0,0,1-2.69-10.08,45,45,0,0,1-.67-8.08M244,130.3c.84-1.51,1.51-20,6-29.92m-2.52,26.21c.67-1.68,1.85-17.81,5.72-24M254.41,119c.67-4.71.84-7.58,3.53-14m3.19,8.39,1.35-4.86m4,4.37,1-2.53m90.6,22.35s-.34-6.55-1.17-11.76a51.56,51.56,0,0,0-1.52-7.22m-1.34,10.42s-.34-4.71-1-8.91a40.48,40.48,0,0,0-2.18-7.91m.16,13.29a130.83,130.83,0,0,0-3.53-15.3M345.68,112c-.84-3-3-8.74-3-8.74m-2,7.56-2-6m-4.71,4.53-1.34-3M287.69,87.77,286,95.16l1.68-.49s0,2.35.51,2.68.84.34,2,.5,2,2.36,2,2.36l1.17-2.86,1,1.52.34-.67,1.17,2.51,1.69-2.35,1.84,2.35,1.18-2.51,2,1,1.17-1.69,1.86,1.69.84-2.52L309,98.36l.5-2.86,2.35,2a3.42,3.42,0,0,1-.5-2.34,13.82,13.82,0,0,0,.5-2.18l1.18-.18a8,8,0,0,0-.5-2.51,3.75,3.75,0,0,1-.34-2" fill="none" stroke="#000" stroke-width="0.6"/><path d="M285.68,72.31s2.18-.34,5.54,1.35M256.09,96.5c0,1.86-.33,4.55,3.7-.83m-2.52-4.88c0,1.85-.34,4.54,3.7-.84m-.34,6.73c0,1.84-.34,4.53,3.69-.84M265.84,93c0,1.84-.34,4.53,3.7-.84M263.83,90c0,1.86-.34,4.54,3.69-.84m-6.22-6c0,1.85-.33,4.54,3.7-.84m-.17,19.16c0,1.86-.33,4.54,3.7-.84m2-10.93c0,1.87-.34,4.55,3.69-.83m-1.51,7.9c0,1.84-.33,4.53,3.7-.84m-3.2,7.9c0,1.85-.33,4.53,3.7-.84M279.62,99c0,1.85-.33,4.54,3.7-.83m-17.48-1c0,1.84-.34,4.52,3.7-.84M255.92,86.26c0,1.85-.33,4.53,3.7-.84m-7.23,7.39c0,1.86-.33,4.54,3.7-.83m6.05-13.29c0,1.85-.33,4.55,3.7-.84M345.18,96.5c0,1.86.34,4.55-3.7-.83M344,90.79c0,1.85.34,4.54-3.69-.84m.33,6.73c0,1.84.34,4.53-3.7-.84M335.43,93c0,1.84.34,4.53-3.7-.84M337.45,90c0,1.86.33,4.54-3.7-.84m6.21-6c0,1.85.35,4.54-3.69-.84m.17,19.16c0,1.86.33,4.54-3.7-.84m-2-10.93c0,1.87.34,4.55-3.7-.83m1.51,7.9c0,1.84.35,4.53-3.69-.84m3.19,7.9c0,1.85.34,4.53-3.69-.84M321.64,99c0,1.85.34,4.54-3.7-.83m17.49-1c0,1.84.34,4.52-3.7-.84m13.61-10.09c0,1.85.34,4.53-3.69-.84m7.22,7.39c0,1.86.34,4.54-3.69-.83m-6.06-13.29c0,1.85.34,4.55-3.69-.84m-17.14,40.69c3.52,3.52,11.08,7.39,7.22,8.73a3.74,3.74,0,0,1-3-.83c-1.17-1.18.17.49.17.49a1.78,1.78,0,0,1-1.17,1.68m-15.3,1.51c-1.68,0-4,.18-5-3.35m-9.59,9s1.52.58-2.35,3-6.38,2.53-6.38,4.71.42,2.27.42,2.27a17.58,17.58,0,0,1,2.35,0,9.3,9.3,0,0,0,3,.08c.58-.24,1.51,1,2.93.68a15.32,15.32,0,0,0,2.95-1.09,6.18,6.18,0,0,0,1.17.41c1.27.42.76.33,2.53,0s2.94-.67,2.94-.67,2.1-2.51-.67-4.19-4-1.94-4.38-2.28a4.7,4.7,0,0,1-.92-2.27m16.22.17s1.43,1.09-1.59,2.86-5.05,1.09-5.3,3.61c-.21,2.14.42,2.77.42,2.77a21.09,21.09,0,0,1,2.44-.34s.5-.16,1.18-1.42a12.87,12.87,0,0,1,2.68-2.86s.84-.43.26,1.94.92,3.1.92,3.1l1.85-.16s.16-1.52.24-2.35a20.56,20.56,0,0,0,0-2.44s.34-.17,1.18.67a4.59,4.59,0,0,1,1.51,2.53c.51,1.49.42,1.33.76,1.33s2-.41,2-.41,2.1-2.36.25-3.71-4.79-2.26-6-4.86m-83-71.7s-1.77-4.29-2.78-6.56-3.78-4.53,2.27-7.06S247.1,48,246.34,41.47M226.68,55.33c1.26,2.77,2.26,2,5.8.5s11.09-5,16.37-6.8m51.2,6.56c22.18,0,46.14,5.54,64.29,15.12,0,0,1.76,0,3-2.52s1.77-2.77,1.77-2.77S379.22,74.24,384.25,76A27.06,27.06,0,0,1,382,65.67l12.1-3.52c-8.82-4-19.66-10.85-25.21-16.91s-14.62-8.31-15.63-3S351,49.28,351,49.28,329.79,41,300,41s-50.92,8.32-50.92,8.32-1.26-1.76-2.28-7.05-10.08-3-15.62,3S214.82,58.1,206,62.15l12.1,3.52A27.16,27.16,0,0,1,215.84,76c5-1.77,15.11-10.59,15.11-10.59s.51.25,1.77,2.77,3,2.52,3,2.52c18.15-9.58,42.1-15.12,64.29-15.12Z" fill="none" stroke="#000" stroke-width="0.6"/><path d="M368.88,65.16s1.76-4.29,2.77-6.56,3.78-4.53-2.27-7.06S353,48,353.75,41.47m19.67,13.86c-1.27,2.77-2.27,2-5.81.5s-11.08-5-16.38-6.8m-55.09,89.69,15-.27m4.41-.09,4.67-.08v3.53m-2.53,3.58-3.4.05m-2.65.05-4.29.09m-2.64,0-5,.09m-14.24-4.78v-2l3.65-.07m1.64-1.48a28.17,28.17,0,0,1-3-1.35,11.38,11.38,0,0,0-2.86-.83,4.39,4.39,0,0,0,.06-1,1.68,1.68,0,0,0,.17-.74,1.71,1.71,0,0,0-.52-1.24,6.53,6.53,0,0,0-1.05-1.94c-1.85-2.35-2.53-2.18-5.88-3a24.29,24.29,0,0,1-5.72-2.18s-.66,2.35,2.86,3.7a68.06,68.06,0,0,1,7.23,3.36s-.34,1.35-2.69,1.18a6.72,6.72,0,0,1-1.41-.24,1.54,1.54,0,0,0,.12-.61,1.74,1.74,0,0,0-3.37-.6,15.2,15.2,0,0,1-2.74-1.75,14.45,14.45,0,0,0-8.06-3.19s1.34,1,3.52,2.69c.78.59,1.65,1.3,2.47,2a1.74,1.74,0,0,0-1.69,1.74,2.58,2.58,0,0,0,0,.38,6.18,6.18,0,0,1-2.47-1.23,2,2,0,0,0,0-.32,1.75,1.75,0,0,0-1.75-1.76,1.8,1.8,0,0,0-1.45.77L261,131a24.47,24.47,0,0,0-5.38,0,5.29,5.29,0,0,0,2,1.17c1.17.35,2.68,0,3,1.51a3.89,3.89,0,0,1,0,1.8h-.19a2.54,2.54,0,0,0,.07-.47,1.74,1.74,0,1,0-3.48,0,1.64,1.64,0,0,0,.11.6,1.8,1.8,0,0,0-.73-.15,1.74,1.74,0,1,0,1.75,1.73,1.45,1.45,0,0,0-.12-.59,2.21,2.21,0,0,0,.73.15,1.87,1.87,0,0,0,.34,0,1.84,1.84,0,0,0-.07.47,1.74,1.74,0,0,0,1.59,1.73c-.12.73-.62.66-2,1.48a65.51,65.51,0,0,0-5.88,4.37s2.85-.85,4.87-1.35,3.7-1,4.37-2.86a13.45,13.45,0,0,1,2.34-3.69s.27-.23.65-.49a1.6,1.6,0,0,0,0,.3,1.74,1.74,0,1,0,3.48,0,1.58,1.58,0,0,0-.09-.52c.59.27,1,.54,1,.54a6.28,6.28,0,0,1-1.51,4.37,38.47,38.47,0,0,1-5.21,3.87s3.53.5,5.54-1,1.85-2.34,2.86-4.19,1.85-2.2,1.85-2.2.34,0,.93,0a1.78,1.78,0,0,0-.15.71,1.74,1.74,0,0,0,1.74,1.74,1.42,1.42,0,0,0,.36,0,6.87,6.87,0,0,1-.69.49,22.79,22.79,0,0,0-4.71,4s1.68,1.19,4.53-1.17,3.54-3.86,5-4.54a5.71,5.71,0,0,1,3.36-.16s-.5,2.18-3.53,3.86a19.05,19.05,0,0,0-5,4.21,11.42,11.42,0,0,0,4-1.18c1.84-1,4-2.35,4-2.35m3.37-16.82-2-1.35a9.13,9.13,0,0,0,1.34,4.88m35,12.57,9.42-2.28.24.81,2.79-2.33-3.6-.43.21.74-9.35,2.26m.35,3.93,13.28,3.16-.16.84,3.55-.81-3-2-.14.77-13.22-3.18m0,0,17.2-.19.05.77,3.24-1.67-3.43-1.19.05.82-17.13.21M300.3,278.79s-28.53-7.65-35.3-9.34-6.28-4.75-6.28-8.31V200.4h83.16v60.74c0,3.56.5,6.62-6.28,8.31s-35.29,9.34-35.29,9.34m-6.82,15.81s7.82-2.61,5.46-7,0-5,1.68-5" fill="none" stroke="#000" stroke-width="0.6"/><path d="M284.83,288.37s1.69-6.13,5.72-3.43,3.7,4.12.33,7.15m28.67-5.31.25-3.19c8.06.67,12.77,0,19.83-4.36-13.45,4.36-21.18-.68-21.18-.68s14.79-4,20.17-5.36,8.73-2.7,8.73-9.76V195.52c0-21.51,8.07-19.16,8.07-19.16l-8.74-14.11c-22.19,7.72-26.89-6.41-46.05-6.41s-23.86,14.13-46.06,6.41l-8.73,14.11s8.06-2.35,8.06,19.16v67.91c0,7.06,3.36,8.41,8.74,9.76s20.17,5.36,20.17,5.36-7.73,5-21.18.68c7.06,4.36,11.77,5,19.83,4.36l.34,3.45m28.25,4.62c-3.37-3-3.37-4,.67-6.72s5.55,3,5.55,3m-15.64-5.4c1.69,0,4,.69,1.69,5.05s4.87,6.81,4.87,6.81m-48.41-54.54a9.17,9.17,0,0,1,6.05,1.51c2.69,1.69,3.53,2.35,5.38,2.68s1.84,0,3.87.85,1,1,3.19.84,3.86-.67,5.21-.18,3.86,1.19,3.86,1.19m10.43,2.86a11.18,11.18,0,0,0,3,.84c2.53.51.51-.51,3.37,0s2.52.84,4.7,1.67a31.28,31.28,0,0,0,3.53,1.18s1.67.17-2.69,1a50.83,50.83,0,0,0-7.56,2c-1.68.5-7.73,1.17-13.11,1.68s-8.41.34-12.77,1-6.56.17-9.42.69-7.22,1.16-7.22,1.16m82.86-15.11H296.14m-4,0h-1.71m-3.78,0h-3.93m2.93,7.55c1.34-.66,2-.83,3.19.17,0,0,1-4.69,1.17-5.71s2-6,2-6,.17,2,.33,5.39-.49,4.86,1.68,5.37a6.7,6.7,0,0,0,3.54,0s-1.35-.35-1.35-2.69-.84-11.1-1-12.11a22.34,22.34,0,0,1-.16-2.69l.66-2.68a14.93,14.93,0,0,0,3,0c1.68-.18,2.35-.85,3-.85a5,5,0,0,0,1.52-.33l.34-1.16a31.25,31.25,0,0,0-4-.34,10.63,10.63,0,0,1-3.53-.68,2.93,2.93,0,0,1-.5-1.51,5.71,5.71,0,0,0-1.68-2.52,2.57,2.57,0,0,0,.67-1.68c0-1,.84-1.51.17-2.69s-1-2-2.7-1.51-1.67.34-2.34,2-.34,1.5-.17,2.34a1.34,1.34,0,0,1-.17,1.19s-1-1-1.51-.18a6.78,6.78,0,0,1-1,1.34l-1.84.17-.51-1.85a9.66,9.66,0,0,1-.51-1.84c-.17-1-.84-3.7-.84-3.7L282,217.2a6,6,0,0,0-.5,2.2,12.2,12.2,0,0,1,.84,3.51v4.21a2.09,2.09,0,0,0,1.67,2,22.72,22.72,0,0,0,3.7.33s.51.67.67,3.52a16,16,0,0,0,.17,2.37c.17,1.51-.17.83-.5,3.86a72.71,72.71,0,0,1-1.51,8.06C286.18,248.62,285.68,253.33,285.68,253.33Zm4.2-5.37,2.52.85m-14.92,43.64c6.3,5.05,8.95,4.67,16,14.25-3.28-8.57-4-10.59-8.57-14.37,7.56,5.29,9.83,5.29,15.38,14.12-12.36-36.81-62.53-17.14-75.89-11.6,17.4-4,30.51,1.26,37.31,9.59,0,0-3-8.07-6.05-11.6,11.6,7.06,11.35,6.3,17.4,12.86,0,0-4.28-10.34-5.05-12.36,9.08,2.52,15.89,12.86,15.89,12.86A81.49,81.49,0,0,0,277.48,292.45Zm45.63,0c-6.3,5.05-8.94,4.67-16,14.25,3.28-8.57,4-10.59,8.58-14.37-7.56,5.29-9.84,5.29-15.38,14.12,12.36-36.81,62.53-17.14,75.89-11.6-17.4-4-30.51,1.26-37.32,9.59,0,0,3-8.07,6.05-11.6-11.59,7.06-11.34,6.3-17.39,12.86,0,0,4.28-10.34,5-12.36-9.08,2.52-15.88,12.86-15.88,12.86A82,82,0,0,1,323.11,292.45ZM418,302.08c-9.08-7.06-12.44-17.14-36-8.4-28.92,10.74-47.06,15.12-81.69,14.45-34.63.67-52.78-3.69-81.69-14.45s-29.92,2-39,9.08m240,4c-9.75-4.36-13.11-8.08-26.89-2.35s-32.61,18.14-92.45,18.49c-59.84-.34-82.37-12.45-96.15-18.16s-17.14-2-26.89,2.35" fill="none" stroke="#000" stroke-width="0.6"/><path d="M388.37,306.12c-17.14,13.78-40.33,35.8-88.07,34.45-47.74,1.35-74.64-20.33-91.78-34.12m209.78,0c-28.91,26.55-56.48,53.62-118,54.29-63.21-.33-92.79-27.39-121.7-53.95M285.68,72.31s2.18-.34,5.54,1.35" fill="none" stroke="#000" stroke-width="0.6"/></svg>