<svg xmlns="http://www.w3.org/2000/svg" width="1200" height="900" viewBox="0 0 3600 2700"><defs><style>.str1{stroke:#000;stroke-width:4}.str2,.str3{stroke:#000;stroke-linecap:round;stroke-linejoin:round}.str3{stroke-width:8}.str2{stroke-width:12}.fil5{fill:none}.fil3{fill:#ffca00}.fil0{fill:#fff}</style></defs><path class="fil0" d="M0 0h3600v2700H0z"/><path fill="#bf0a30" d="M0 0h3600v1350H0z"/><path fill="#002868" d="M0 0h900v2700H0z"/><path class="fil3" d="M113.178 1487.3l35.888.48-1.134-155.47 68.79 156.29h37.339v-228.69l-36.449.49.554 144.59-64.297-143.94-40.137.49zm655.892-154.83h38.222c-.524-22.913-1.098-44.565-19.303-61.854-19.338-21.525-58.81-27.94-84.063-13.813-16.375 9.145-30.205 25.456-39.437 51.734-12.114 44.247-6.642 99.656 1.033 125.73 9.139 27.635 23.475 42.382 42.555 51.685 38.762 13.02 71.23.242 91.137-34.865 5.092-10.01 10.935-29.203 9.917-50.474l-39.881.487c.077 21.863-6.256 42.716-32.335 42.712-25.03-.026-35.3-24.945-37.615-46.145-2.643-24.196-2.718-48.151 4.255-73.395 5.506-21.153 21.735-34.04 44.167-27.489 17.309 5.346 21.007 19.64 21.348 35.687z"/><path class="fil0" d="M547.187 1494.81l-85.676-66.58-87.933 66.17 34.844-103.63-89.149-65.6 107.209 2.54L459.318 1221l31.416 105.19 109.443-.35-87.792 62.47z"/><path class="fil3 str1" d="M182.695 950.993c104.9-96.097 452.007-93.8 548.681 2.97 3.12-1.123 65.662-106.637 62.544-105.515-189.804-132.966-529.9-110.186-672.639-5.253l1.694 6.263 59.72 101.535zm-48.074-78.683c-56.272 31.424-66.474 44.529-97.315 68.627l68.392 1.432c-.813 6.37-15.744 85.665-17.16 91.26 51.49-34.218 75.922-49.902 146.173-69.693 27.914-7.75-2.195-36.11-5.1-43.655-19.085 8.615-33.76 18.842-47.83 31.376m-47.16-79.347zm645.3 3.395c56.27 31.422 66.473 44.527 97.313 68.625l-68.392 1.432c.814 6.37 15.745 85.664 17.16 91.26-51.49-34.218-75.922-49.903-146.172-69.693-27.914-7.752 3.202-36.613 6.108-44.158 19.084 8.615 35.27 18.842 46.819 31.878m47.163-79.344z"/><path class="fil5 str1" d="M182.993 951.052c3.772 3.86 11.18 2.594 21.527.95 8.174-1.3 17.536-2.275 24.954-2.22 12.239.09 19.187 3.85 14.173 9.64m487.097-4.976c-6.317 2.92-12.86 1.854-20.726.949-7.515-.865-15.977-2.58-24.387-2.65-14.093-.116-19.188 5.982-14.74 10.068m-487.898-11.761zm547.752 3.395z"/><path class="fil5 str2" d="M200.724 909.295c-.52-1.371-30.5-57.2-30.5-57.2l49.07 43.245-11.416-63.186 32.138 54.066m92.076-89.266l-15.249 36.369m-26.681-27.07l26.681 27.07 4.818 29.392m-65.1-7.218l24.563-7.228m-25.746 30.215l2.397-64.46 36.44 53.499m-38.837 10.96zm1.183-22.986zm320.072-44.465c5.716-2.387 10.064-5.31 14.828-10.906l-8.436 59.436m160.437-1.032l-18.092-10.608-15.998 21.663c11.49-2.263 19.213 1.208 22.519 11.636 2.028 15.363-7.178 24.133-17.13 24.407-10.47-.24-15.874-5.989-17.346-18.056m-23.978-64.776l27.619 13.625c-16.396 11.72-29.881 26.467-41.813 43.712m-38.692-72.145c.685.261 28.55 8.361 28.55 8.361-13.59 16.974-24.73 32.054-33.81 51.216M378.696 812.86c.213-17.067 15.73-18.901 23.31-15.264 7.578 3.635 9.602 19.12 1.8 25.769l-13.292 11.329c-5.598 4.77-9.684 12.303-9.354 19.527l30.032-1.145m13.412-45.244c-.818 7.22-.454 24.292 1.023 31.348 4.376 17.479 22.198 18.884 26.752.655 2.134-6.73 1.973-26.426.493-33.646-5.137-18.107-24.601-16.447-28.268 1.643z"/><path class="fil5 str3" d="M465.746 816.726c10.893.2 21.43.627 21.43.627m-12.934-16.742l-.8 43.161c-.117 8.187 2.428 10.518 9.55 10.518m38.808 2.475c3.038-37.267-1.84-38.596-19.844-38.513m-2.758-15.762l-1.27 51.923m-23.686-53.802z"/><path class="fil3 str1" d="M136.889 1844.82c-56.271-30.728-66.474-43.544-97.313-67.11l68.391-1.399c-.815-6.228-15.745-83.767-17.16-89.24 51.49 33.461 75.922 48.8 146.172 68.15 27.914 7.58-2.194 35.312-5.099 42.69-19.084-8.423-33.76-18.425-47.828-30.682m-47.163 77.59zm645.296-3.318c56.271-30.728 66.475-43.543 97.315-67.108l-68.392-1.4c.814-6.227 15.744-83.767 17.16-89.239-51.49 33.46-75.922 48.797-146.173 68.15-27.914 7.58 3.203 35.804 6.108 43.18 19.083-8.424 35.27-18.423 46.82-31.172m47.162 77.589zm-597.222-73.624c104.901 93.97 452.007 91.726 548.682-2.902 3.118 1.096 65.661 104.276 62.543 103.178-189.804 130.024-529.899 107.748-672.638 5.138l1.693-6.124 59.72-99.29z"/><path class="fil5 str1" d="M185.72 1766.65c3.775-3.775 11.807-1.196 21.067.242 9.261 1.439 15.127 2.24 24.955 2.17 9.825-.07 19.187-3.766 14.173-9.424m487.097 4.862c-6.318-2.853-12.839-1.59-20.726-.927-7.486 1.066-15.98 2.315-24.388 2.592-14.092-.096-19.187-5.85-14.739-9.846m-487.9 11.502zm547.753-3.32z"/><path class="fil5 str2" d="M424.604 1889.02c5.668-3.083 7.029-4.305 11.37-10.611l-2.423 56.073m22.652-43.368c4.518-15.503 16.959-16.57 24-11.483 6.847 4.948 6.277 23.148-.806 28.54l-10.733 8.174c-5.218 3.972-10.89 10.364-10.686 17.892l31.3-.619m-133.705-69.264c-.008.342-9.539 58.567-9.95 60.952l30.324 4.286m-104.42-52.025l23.067 5.915c6.214 2.234 7.72 7.672 7.728 8.012 1.156 5.103-2.732 27.088-2.732 27.088m-37.503-8.621c-.008-.343 16.87-63.025 16.87-63.025 7.228 1.754 14.778 2.817 21.683 5.268 14.465 4.75 10.879 23.943 1.14 31.437m-127.31-37.925l24.048 11.534m-40.992 5.427l46.808-48.206-9.114 66.81m16.423 7.62l23.134-58.739c7.452 3.046 15.857 4.846 23.558 11.714 4.998 8.313 2.697 25.361-11.63 26.98-7.891-1.056-14.49-4.878-21.41-8.01m94.675 61.352l9.333-63.516m260.765 18.324c4.576-4.446 7.689-8.932 10.303-16.238l11.828 62.345m122.333-103.657c-13.748-11.494-23.959-1.005-24.837 12.293.284 9.113 2.79 18.11 6.93 26.153 3.808 10.059 16.84 20.584 26.955 11.827 12.98-11.146-.249-41.035-19.014-33.061-7.34 4.337-9.03 13.045-7.94 21.234m-54.067-14.705l30.29-11.852c-1.3 22.921-2.718 47.33 1.494 64.527m-77.58-36.807c.74-.191 30.285-10.521 30.285-10.521-1.36 22.607-1.781 44.309 1.044 64.375"/><path class="fil5 str3" d="M496.807 1896.15c10.883-.506 21.424-.758 21.424-.758m37.064 34.274c-2.184-37.327-7.199-37.963-25.014-35.374m-4.93-15.222l5.976 51.592m-27.081-51.143l1.984 43.12c.412 8.18 3.104 10.344 10.213 9.883m-12.197-53.003z"/></svg>