<svg xmlns="http://www.w3.org/2000/svg" width="600" height="315.79" viewBox="0 0 600 315.79"><path fill="#bf0a30" d="M0 0h600v315.79H0z"/><path fill="#fff" d="M0 24.29h600v24.29H0zM0 72.87h600v24.29H0zM0 121.46h600v24.29H0zM0 170.04h600v24.29H0zM0 218.62h600v24.29H0zM0 267.21h600v24.29H0z"/><path fill="#002664" d="M0 0h239.85v169.93H0z"/><path fill="#fff" d="M125.63 92.82l-2.18-6.71 5.71-4.14h-7.05l-2.19-6.71-2.17 6.71h-7.06l5.71 4.14-2.18 6.71 5.7-4.14 5.71 4.14zM119.92 52.92l-2.17 6.71h-7.06l5.71 4.15-2.18 6.71 5.7-4.15 5.71 4.15-2.18-6.71 5.71-4.15h-7.05l-2.19-6.71zM116.4 19.11l-2.18 6.71 5.7-4.15 5.71 4.15-2.18-6.71 5.71-4.15h-7.05l-2.19-6.71-2.17 6.71h-7.06l5.71 4.15zM122.11 148.97l-2.19-6.71-2.17 6.71h-7.06l5.71 4.15-2.18 6.71 5.7-4.15 5.71 4.15-2.18-6.71 5.71-4.15h-7.05zM144.69 79.21l5.71-4.15h-7.05l-2.18-6.7-2.18 6.7h-7.06l5.71 4.15-2.18 6.71 5.71-4.14 5.7 4.14-2.18-6.71zM127.34 110.89l5.71-4.14 5.71 4.14-2.18-6.71 5.71-4.15h-7.06l-2.18-6.7-2.18 6.7h-7.05l5.71 4.15-2.19 6.71zM135.91 39.48l-2.18-6.71-2.18 6.71h-7.06l5.71 4.15-2.18 6.71 5.71-4.15 5.71 4.15-2.18-6.71 5.7-4.15h-7.05zM158.24 55.71L156.06 49l-2.18 6.71h-7.05l5.7 4.15-2.18 6.71 5.71-4.15 5.71 4.15-2.18-6.71 5.71-4.15h-7.06zM166.77 81.97l-2.18-6.71-2.18 6.71h-7.05l5.71 4.14-2.18 6.71 5.7-4.14 5.71 4.14-2.18-6.71 5.71-4.14h-7.06zM158.24 108.22l-2.18-6.71-2.18 6.71h-7.05l5.7 4.15-2.18 6.71 5.71-4.15 5.71 4.15-2.18-6.71 5.71-4.15h-7.06zM135.91 124.45l-2.18-6.71-2.18 6.71h-7.06l5.71 4.15-2.18 6.71 5.71-4.15 5.71 4.15-2.18-6.71 5.7-4.15h-7.05zM137.1 22.39l-2.18 6.71 5.71-4.15 5.71 4.15-2.18-6.71 5.71-4.15h-7.06l-2.18-6.71-2.18 6.71h-7.05l5.7 4.15zM155.78 31.91l-2.18 6.71 5.71-4.15 5.71 4.15-2.18-6.71 5.7-4.15h-7.05l-2.18-6.71-2.18 6.71h-7.06l5.71 4.15zM171.95 42.58h-7.05l5.7 4.15-2.18 6.71 5.71-4.15 5.71 4.15-2.18-6.71 5.71-4.15h-7.06l-2.18-6.71-2.18 6.71zM181.47 61.26h-7.06l5.71 4.15-2.18 6.71 5.71-4.15 5.71 4.15-2.18-6.71 5.7-4.15h-7.05l-2.18-6.71-2.18 6.71zM189.11 81.97l-2.18-6.71-2.18 6.71h-7.06l5.71 4.14-2.18 6.71 5.71-4.14 5.71 4.14-2.18-6.71 5.7-4.14h-7.05zM185.83 102.67l-2.18-6.71-2.18 6.71h-7.06l5.71 4.15-2.18 6.71 5.71-4.15 5.71 4.15-2.18-6.71 5.7-4.15h-7.05zM176.31 121.35l-2.18-6.71-2.18 6.71h-7.05l5.7 4.15-2.18 6.71 5.71-4.15 5.71 4.15-2.18-6.71 5.71-4.15h-7.06zM161.49 136.17l-2.18-6.71-2.18 6.71h-7.06l5.71 4.15-2.18 6.71 5.71-4.15 5.71 4.15-2.18-6.71 5.7-4.15h-7.05zM142.81 145.69l-2.18-6.71-2.18 6.71h-7.05l5.7 4.15-2.18 6.71 5.71-4.15 5.71 4.15-2.18-6.71 5.71-4.15h-7.06zM104.39 85.92l-2.18-6.71 5.71-4.15h-7.06l-2.18-6.7-2.18 6.7h-7.05l5.71 4.15-2.18 6.71 5.7-4.14 5.71 4.14zM108.98 100.03l-2.18-6.7-2.18 6.7h-7.06l5.71 4.15-2.18 6.71 5.71-4.14 5.7 4.14-2.17-6.71 5.7-4.15h-7.05zM108.3 39.48l-2.18-6.71-2.18 6.71h-7.05l5.7 4.15-2.18 6.71 5.71-4.15 5.71 4.15-2.18-6.71 5.71-4.15h-7.06zM85.97 55.71L83.79 49l-2.18 6.71h-7.06l5.71 4.15-2.18 6.71 5.71-4.15 5.71 4.15-2.19-6.71 5.71-4.15h-7.05zM75.26 88.68l5.71 4.14-2.19-6.71 5.71-4.14h-7.05l-2.18-6.71-2.18 6.71h-7.06l5.71 4.14-2.18 6.71 5.71-4.14zM85.97 108.22l-2.18-6.71-2.18 6.71h-7.06l5.71 4.15-2.18 6.71 5.71-4.15 5.71 4.15-2.19-6.71 5.71-4.15h-7.05zM108.3 124.45l-2.18-6.71-2.18 6.71h-7.05l5.7 4.15-2.18 6.71 5.71-4.15 5.71 4.15-2.18-6.71 5.71-4.15h-7.06zM95.69 22.39l-2.18 6.71 5.71-4.15 5.71 4.15-2.18-6.71 5.71-4.15h-7.06l-2.18-6.71-2.18 6.71h-7.06l5.71 4.15zM77.01 31.91l-2.18 6.71 5.71-4.15 5.71 4.15-2.18-6.71 5.71-4.15h-7.06l-2.18-6.71-2.18 6.71h-7.05l5.7 4.15zM62.19 46.73l-2.18 6.71 5.71-4.15 5.71 4.15-2.18-6.71 5.7-4.15H67.9l-2.18-6.71-2.18 6.71h-7.06l5.71 4.15zM52.67 65.41l-2.18 6.71 5.71-4.15 5.71 4.15-2.18-6.71 5.71-4.15h-7.06l-2.18-6.71-2.18 6.71h-7.05l5.7 4.15zM47.22 92.82l5.7-4.14 5.71 4.14-2.18-6.71 5.71-4.14H55.1l-2.18-6.71-2.18 6.71h-7.05l5.71 4.14-2.18 6.71zM56.2 109.38l5.71 4.15-2.18-6.71 5.71-4.15h-7.06l-2.18-6.71-2.18 6.71h-7.05l5.7 4.15-2.18 6.71 5.71-4.15zM65.72 128.06l5.71 4.15-2.18-6.71 5.7-4.15H67.9l-2.18-6.71-2.18 6.71h-7.06l5.71 4.15-2.18 6.71 5.71-4.15zM82.72 136.17l-2.18-6.71-2.18 6.71h-7.05l5.71 4.15-2.19 6.71 5.71-4.15 5.71 4.15-2.18-6.71 5.71-4.15h-7.06zM101.4 145.69l-2.18-6.71-2.18 6.71h-7.06l5.71 4.15-2.18 6.71 5.71-4.15 5.71 4.15-2.18-6.71 5.71-4.15h-7.06z"/></svg>