<svg xmlns="http://www.w3.org/2000/svg" width="308" height="300" viewBox="0 0 308 300"><title>flag-pennsylvania-icon-ship</title><path d="M20.93,179.92c5.12,4.75,16.21,10.71,24.3,13.06,3.68,1.07,10,4.5,14.18,7.66l7.52,5.72h213.6l3.56-3.71c3.05-3.18,3.46-4.45,2.89-8.75s-.22-5.34,2-6.83c2.69-1.78,2.69-1.8-1.7-6l-4.41-4.25s-1.6-5.18.32-6.52c2.42-1.69,2.83-3.11,2.81-9.7,0-10-.79-11-7.52-10.6l-5.46.37-1.77-6.3c-1-3.46-1.79-11.54-1.81-18,0-8.74-.45-11.65-1.68-11.65-.91,0-8.47,3.92-16.79,8.7-17,9.73-16.58,9.79-16.58-2.5v-7.46H230c-3.61,0-4.67-.6-5.67-3.23-1.39-3.65-1.64-21.14-.43-30,.72-5.22,1.15-5.85,4.1-5.93a19.86,19.86,0,0,0,5.81-1.12c2.52-1,2.52-1,0-2-1.39-.52-4.42-1.71-6.75-2.65s-4.73-1.38-5.35-1-1.15,4.77-1.16,9.75l0,9.06L203.72,103.4c-9.22,9.53-17.11,17.32-17.52,17.32-1.19,0,.48-8.87,2.88-15.33,2.17-5.82,1.57-8.6-1.84-8.6-.73,0-2.9-2-4.84-4.41L178.88,88h5.83c8.51,0,6.66-3-2.34-3.77-6.86-.61-7.31-.88-12-7.13-4.29-5.73-4.78-7.08-4.09-11.34.76-4.74.89-4.84,6.74-5.22,3.29-.21,6-.89,6-1.52s-2.83-2.14-6.3-3.37c-4.33-1.54-6.29-2.94-6.29-4.46a2.08,2.08,0,0,0-1.89-2.23c-1.52,0-1.92,2-2,10.39-.06,5.72-.49,13.51-.94,17.32l-.82,6.93-7.87-.43c-6.54-.36-7.87-.1-7.87,1.57s1.54,2,8.18,2h8.19v8.81h-20.5l-12.42,12.2L116,119.93v-4.72a19,19,0,0,1,1.31-7.18c1.07-2,.48-3.52-3.18-8.32-3.06-4-4.08-6.29-3.2-7.17,2.11-2.11,1.49-3.31-1.71-3.31-1.93,0-4.16-1.53-6.29-4.32-2.85-3.73-3.3-5.56-3.3-13.3,0-5.66-.47-8.69-1.26-8.19s-1.27,3.72-1.27,7.31v6.54L80.43,92c-9.17,8.08-30.85,25-48.16,37.65S.52,152.8.2,153.08c-.72.62.25,2.06,7.91,11.67h0l6.06,7.61,3,4.06ZM286,186.19c-1,.68-7.84,1.11-15.11,1s-60.77-.58-118.88-.93c-97.7-.59-105.76-.8-107-2.78-.74-1.18-1.09-2.4-.76-2.7s38.27-.08,84.33.5,99.91,1.1,119.65,1.15C283.21,182.47,290.58,183.21,286,186.19ZM45.38,177.27l7.79-9.07c4.29-5,8.17-9.22,8.63-9.41.71-.28,2.31,6.33,4,16.72.46,2.76.07,2.82-13.17,2.13Zm64.86-4.37a50.38,50.38,0,0,1,2,5.28c0,.92-39.89.46-40.83-.47-2.55-2.54-4.51-10.28-4.51-17.85,0-7.87.27-8.68,4.16-12.45s4.67-4,13.66-4c5.24,0,13,.36,17.24.81,7.59.79,7.71.86,6.8,4.09C107.24,153.68,108.09,167.76,110.24,172.9Zm41-11.69c-.06,3.61-1.23,5.18-8,10.83h0c-5.16,4.29-9.11,6.61-11.26,6.61-1.83,0-3.32-.25-3.32-.55,0-.62,10.55-10.62,17.95-17l4.72-4.09Zm.07,13c0,4.39-.07,4.45-5.25,4.45h-5.26l3-3.26a27.26,27.26,0,0,1,5.26-4.45C151,169.91,151.28,170.35,151.28,174.2Zm-21.73-2c-5.39,4.82-8.25,6.49-11.11,6.49-6.47,0-4.14-3.68,11.43-18.09,12.42-11.5,15-13.36,18.27-13.08C155.16,148.08,152.45,151.67,129.55,172.16Zm5.1-20.32c-3.23,3.34-5,4.14-9.1,4.14h-5.09l6.43-6.42c6.33-6.34,6.47-6.4,9.1-4.14l2.67,2.28Zm-8.76,7.66a54.93,54.93,0,0,1-6.23,6.29c-3.2,2.92-6.1,5.31-6.46,5.31-.75,0-2.22-6.78-2.22-10.24,0-2.05,1-2.36,7.66-2.36C122.86,158.5,126.12,159,125.89,159.5Zm28.86,4.36c.61-14.88,1.57-18.45,4.25-15.78,1,1,1.14,5.76.5,16-.79,12.76-1.19,14.57-3.14,14.57S154.19,177.4,154.75,163.86Zm54.47,15.21c0,.46-2.55.84-5.67.84s-5.67-.48-5.67-1.06c0-1.43,4.28-5.23,5.89-5.23C205.15,173.62,209.22,177.68,209.22,179.07Zm-3.77-8.9,5.25-6.46c2.89-3.56,5.73-6.47,6.3-6.47,1.23,0,1.35,8.66.23,16.83-.44,3.21-1.43,5.8-2.2,5.74s-3.24-2.25-5.49-4.87Zm-6.16,1.91c-.82,1.54-2.18,2.72-3,2.63-1.62-.18-24.83-23.92-24.83-25.4,0-.49,1.56-.87,3.47-.86,2.58,0,6.33,2.68,14.68,10.43C199.93,168.48,200.67,169.5,199.29,172.08Zm-6.07,7c-2.66,2.66-7.06.07-16.84-9.93-9.48-9.69-10.51-11.22-10.62-15.77-.07-2.77.25-4.89.71-4.7C168.53,149.54,193.93,178.41,193.22,179.12Zm-12.62-.47h-6.22c-3.42,0-6.76-.54-7.43-1.2-1.32-1.33-.81-13,.55-12.4a82.79,82.79,0,0,1,7,7ZM230,173c3.81,3.26,6.92,6.13,6.92,6.4s-3.11.47-6.92.47h-6.93V167.12Zm-6.93-15.77v-5.65L236.3,164.8c7.27,7.25,13.22,13.61,13.22,14.15h0c0,.53-1.55,1-3.46,1-2.47,0-6.26-2.43-13.22-8.5C223.38,163.18,223.07,162.73,223.07,157.27Zm42.21,13c1.05-.4,4.45-.35,7.56.12,4.54.68,6,1.57,7.54,4.48a21.93,21.93,0,0,1,1.88,4.33c0,1-17,.86-18.05-.15C262.59,177.45,263.37,171,265.28,170.29ZM273.13,154l9.76.13V168l-8.87.37c-4.87.2-9.27,0-9.76-.53s-.89-3.82-.89-7.41v-6.53Zm-37.3-18.77,14.71-8.33,14.72-8.33.8,10.85a111,111,0,0,0,2,15.26c.66,2.42,1,5.12.67,6-.64,1.87-4.11,2.14-4.11.32,0-.7-.88-1.26-1.95-1.26-1.67,0-1.93,2.16-1.73,14.8h0l.22,14.8-3.8.39c-2.1.21-4-.19-4.26-.89s-6.82-7.73-14.61-15.62-14.17-14.67-14.17-15.09,2.41-.93,5.35-1.14l5.36-.39Zm-5.66-19.13c.46.45,1,5.23,1.29,10.61s.72,11.34,1,13.25l.59,3.46H218c-15.06,0-15.11,0-16.34-3.23-.68-1.78-1.23-8.23-1.23-14.33V114.72l14.47.26C222.83,115.12,229.71,115.61,230.17,116.07Zm-9.62-24.89-.12,7.53a59.18,59.18,0,0,1-1,10.68c-.73,2.63-1.68,3.17-5.85,3.32a48.1,48.1,0,0,1-9.13-.63l-4.14-.81Zm-29.05,29,6.38-6.25v11.29c0,6.2.59,13.38,1.3,15.95l1.3,4.67,8.44.37c11,.48,11.27,2.06,2,12.79h0c-4,4.6-7.56,8.36-8,8.36-1.07,0-17.67-16.89-17.67-18,0-.5,1.13-.91,2.52-.91,2.94,0,3.23-2.2.75-5.74-1-1.38-2.14-5.62-2.6-9.41l-.85-6.89ZM166.88,77.9c.27,0,1.41,1.42,2.55,3.15,2,3,1.94,3.15-.49,3.15-1.87,0-2.54-.83-2.54-3.15C166.4,79.32,166.62,77.9,166.88,77.9Zm-.72,12.39c.43-2.92,1.15-3.57,3.94-3.57,3.16,0,5.44,1.78,10.05,7.87,1.54,2,1.1,2.2-5.94,2.2C166.07,96.79,165.3,96.17,166.16,90.29Zm-26.74,11.87c1.64-4.06,1.69-4.08,9-3.5,4,.32,14.07.89,22.34,1.27s15.22.87,15.46,1.11-.43,3.75-1.49,7.8c-2.35,9-2.41,25.94-.12,32.35l1.68,4.72-4.57-.22-22.84-1.1c-10-.49-18.93-1-19.75-1s-2.15-3.4-3-7.35C134.48,128.3,136.25,110,139.42,102.16ZM123.9,116c5.31-5.31,10-9.33,10.38-8.94s.1,3.46-.64,6.8A83.17,83.17,0,0,0,132.52,130l.24,10L124.07,148q-13.12,12-13.07,5.82c0-4.73,1.6-7.74,4.2-8.12,3-.43,3.06-.95.71-12.07l-1.67-7.92ZM99.57,86.72a2.71,2.71,0,0,1,2,1.25c.42.7-.11,1.26-1.19,1.26s-2-.56-2-1.26A1.22,1.22,0,0,1,99.57,86.72ZM102,93c2.77,0,4.46,1.24,7.56,5.56,2.19,3.06,4,5.89,4,6.3,0,.9-1.45.76-9.13-.91-5.87-1.27-6-1.38-6-6.12C98.39,93.38,98.66,93,102,93ZM92.4,85.39c3.77-3.15,5-3,4.5.38-.29,2-1.38,3-3.87,3.23C88.83,89.49,88.66,88.51,92.4,85.39ZM79.56,96.86c5.79-4.88,6.71-5.25,11.31-4.47,4.83.82,5,1,5,5.77,0,4.92,0,4.93-5.35,5.16-11.12.49-16.32.37-16.78-.38C73.48,102.52,76.1,99.78,79.56,96.86Zm-10,32.36a96.22,96.22,0,0,1,1.58-16.54l1.45-6.16,15.74-.4c8.66-.22,17.85.15,20.41.83l4.67,1.24-.73,12.25c-.43,7.12-.19,14.22.58,17h0l1.32,4.72-4.62-.18c-2.54-.09-7.74-.61-11.55-1.13a177,177,0,0,0-18-1.08l-11-.13ZM68.1,115.88c-1.59,5.54-1.54,24.63.06,25.62a2.68,2.68,0,0,1,1.26,1.91c0,.63-6.34,8.53-14.1,17.56S40.7,177.4,40.05,177.4s-.89-2.62-.51-6c.47-4.16,4.54-13.64,13.51-31.43C65.7,114.9,70.67,106.94,68.1,115.88Zm-2.75-7.14c.19.15-4.13,8.62-9.6,18.81S43.63,151.14,41,157.33s-5.21,11.25-5.67,11.25-1.14-1.08-1.49-2.41c-1-3.63-10.66-10-18.83-12.46-4-1.17-7.26-2.42-7.23-2.76C7.81,150.17,64.88,108.36,65.35,108.74Zm-56.7,46c7,0,24.25,9.92,24.25,14,0,3.48-13.44-2.85-22.85-10.77C6.91,155.27,6.67,154.72,8.65,154.72ZM9.86,163c-2.86-4-2.2-3.73,6.66,2.52a52.5,52.5,0,0,0,10.71,5.73c2.77.95,5.57,2.58,6.22,3.62a99.11,99.11,0,0,0,7.42,8.51c7.49,7.93,5.66,8.65-6.51,2.57C26.78,182.16,17.13,173.12,9.86,163Z"/></svg>