<svg xmlns="http://www.w3.org/2000/svg" width="281.48" height="300.9" viewBox="0 0 281.48 300.9"><path d="M104.72 107.38a52.48 52.48 0 005.34-10.51 22 22 0 001.67-8.3c-.13-3.47-1.91-5.36-4.42-7.57a30.86 30.86 0 00-5.47-3.88 3 3 0 01-1.74-2.21c-.48-1.74-.07-1.62-2-1.59-1.55 0-3.8 1-5.27.48-2.93-1-1-6.44-.16-8.3a9.11 9.11 0 016.71-5.16 13.82 13.82 0 015.86.32c1.32.33 2.17.93 3.33.55 1-.33 1.84-1.08 2.85-1.42a13.13 13.13 0 015.57-.54c3.63.4 7.38 2.14 10.63 3.77a30.54 30.54 0 0114.83 16.15c2.23 5.41 4 11.06 7.42 15.89 1.81 2.58 3.59 5.17 5.33 7.8 1 1.52 2.91 3.8 3.12 5.25a23.25 23.25 0 00.58 4c.32 1 2 4.85 1.25 5.9-.38.56-2.11 0-2.59.52s-1.14 4.52-1.23 5.42a7.76 7.76 0 001.24 4.5l-5.2-4.45-1.1 6.25-5.54-3.68-1.85 5.54-4.07-3.69c-.5.71-1.86 3.52-2.62 3.68-.93.19-3.49-1.75-4.4-2.21l-2.58 5.56-4.05-5.2-3.69 5.2-2.59-5.56-.75 1.47-2.21-3.31-2.58 6.27a13.17 13.17 0 00-2-3.42c-1.55-1.88-3.09-1.57-5.26-2.16-3-.79-2.74-4-2.76-6.61l-3.69 1.1 3.74-16.23.36.36M171.59 174.65a91.92 91.92 0 009.35 7.7c2.71 2.06 5.95 4.18 7.95 7 1.35 1.89 1.12 3.85-1.41 4.51a7.64 7.64 0 01-3.33-.11c-.83-.18-4.32-1.57-4.39-2.63.12 1.67 1.86 1.37 1.19 3.32-.25.73-1.37 2.64-2.35 2.33-.22-.07-.57-1.16-.66-1.36a70.36 70.36 0 01-6.35-20.76M145 200.11c-3 0-6.62.25-9-1.9-1.63-1.45-1.88-3.4-2.06-5.45-.13-1.46-1.06-3.22.21-4.28.71-.58 1.83-.71 2.63-1.2.39-.24.9-.93 1.35-1 1.4-.23 2 1.71 2.6 2.72 2.05 3.34 4.6 7 4.3 11.11" fill="#fff" stroke="#000" stroke-linecap="round" stroke-linejoin="round" stroke-width="1.5"/><path d="M2.37 212.69C.15 177.56 6.45 140 22.09 108.39c8.47-17.13 20.16-33 36.75-43C66.29 60.91 83.2 54 87 66.78a13.57 13.57 0 01.18 6.49c-.92 4.66-2 9-.87 13.74 2.25 9.3 11.19 15.07 18.42 20.37 3.89-5.95 10.84-17.95 4.78-24.36a25.71 25.71 0 00-7.06-5.65c-.64-.3-1-.21-1.45-.65-.87-.8-.54-2.81-1.13-3.32s-3 0-3.64.07c-1.23.15-3 .92-4.14 0s-.79-2.68-.62-3.82c1.07-7.18 6.72-10.72 13.75-9 1.08.28 2.17.93 3.13.69S110 60.3 110.87 60c3.57-1.37 7.22-.79 10.72.49 6.23 2.29 12.13 5.41 16.3 10.73 4.61 5.88 6.18 13.36 9.55 19.93 1.89 3.69 4.57 7 6.86 10.45q4.24 6.39 8.41 12.83c4.25-3.44 9.16-8.1 10.66-13.51 1.16-4.21-1.14-6.45-4.42-8.62a25.16 25.16 0 01-8.65-9.55c-3.49-6.94-2.1-15.31 6.51-16.86 4.87-.87 10.29.2 15.09 1.1a113 113 0 0116.68 4.56c10.75 3.83 21.7 9.2 29.8 17.42a136.51 136.51 0 0110 12 130.78 130.78 0 0120.9 38.1c8.62 25.15 9.16 52.36 5.38 78.47L259.14 206l-1.48 6.66c-2.26-3.43-3.35-7.62-4.15-11.58-1-4.88-1.92-9.76-2.86-14.64l-2.94 8.56c-2.65-4.64-3.86-10.27-4.44-15.51-.75.32-2.09 1.22-2.73.92s-1.5-2.39-1.84-3a82.17 82.17 0 01-6.89-17.51l-4.05 5.92-7.39-7.82c-.45 1.36-.75 4-1.68 5-.62.7-.88.66-2.1.47a11.79 11.79 0 01-6.39-3.63c-.48-.48-5.17-6.16-5-6.41-.44.71 1.4 2.54 1.43 3.29 0 1.17-1.32 3.08-1.82 4.14-.28.59-.69 2.24-1.24 2.63s.15.16-.85.11c-2.2-.1-5.25-3.44-6-5.27l-4.43 3.35-5.55-9.62-1.83 5.94c-2.33-1.7-6.44-4.15-7.4-7l-2.21 7.75-5.53-4.43M2.37 212.69l5.9-11.81 2.6 2.93 5.53-11.45c1 .7 2 1.89 2.91 1.53 1.41-.54 3.17-3.39 4.08-4.5a41.27 41.27 0 005.15-7.55 20.92 20.92 0 001.52-3.84c.12-.41.4-2.72.89-3-.58.34-.39 4.05-.11 4.73 1.42 3.42 3.82 3.89 6 .55 3.56-5.51 6.37-11.66 9.49-17.43-.29 2.12-.31 8.42 3 8.51.85 0 2.28-1.21 2.87-1.66a22.44 22.44 0 006-7.18c.84 1.25 2.1 4.3 3.44 4.21s3.08-1.65 4-2.32a10.36 10.36 0 004-4.49l1.84 5.89c4-2.82 8-6.19 10.72-10.31l3.32 7.38a19.24 19.24 0 007-7.76l6 4.37c.32.23 2 1.11 2.11 1.52a14.14 14.14 0 01-.94 2.22 9.32 9.32 0 00.16 5 12.57 12.57 0 001.7 3.42c1 1.49.79 1.79.68 3.57-.22 3.39.49 6.86.24 10.2-.31 4.31-2.21 8.49-2.59 12.83-.35 4.09 0 9.91 4.21 12 1.9.95 4.28 1.06 6.32 1.65a41.91 41.91 0 007.49 1.72c4.21.42 11.47-.18 14.61-3.39 2.64-2.68 2.12-5.88 1.61-9.2a53.31 53.31 0 01-.27-5.79c-.1-1.9-.9-4.44-.35-6.31.62-2.1 4.86-2.46 6.61-1.43 1.57.92 2.34 3.53 3 5.06a28.11 28.11 0 011.92 4.53c1 4-.2 8.31.61 12.35.68 3.41 3 4 6 4.84 3.74 1.07 8.11.19 11.94 0s8.39.06 11.62-2.45c4-3.12 4-8.34 3.31-12.93-.33-2.28-1.69-4.78-2.52-7.12a101.44 101.44 0 01-4.38-16.51c-1.18-6.65-2.33-13.76-1.9-20.52M8.27 200.52c1.85-3.34 3.34-44 13.32-65.78M16 192.36c1.47-3.7 4.06-39.15 12.56-52.82m2.59 36.21c1.51-10.35 1.85-16.65 7.79-30.65m7 18.44l3-10.69m8.87 9.62l2.19-5.56M259.16 206c-.75-13.81-1.71-28.47-5.92-41.73m-3 22.9c-.92-12.5-2.32-25.22-7-36.95m.36 29.2s-3.32-19.94-7.75-33.62m-4.07 14.41c-1.85-6.65-6.65-19.2-6.65-19.2m-4.43 16.6l-4.43-13.28m-10.36 9.95l-2.91-6.61M104.34 107l-3.69 16.24 3.69-1.07c0 2.66-.19 5.75 2.77 6.58 2 .58 3.56.22 5.08 1.93a12.64 12.64 0 012.13 3.68l2.57-6.3 2.21 3.34.75-1.47 2.59 5.53 3.69-5.17 4.06 5.17 2.59-5.53c.88.43 3.5 2.36 4.4 2.18s2.08-2.94 2.6-3.68l4.07 3.69 1.85-5.53 5.55 3.7 1.09-6.28 5.17 4.42a7.31 7.31 0 01-.84-6c.2-.77.29-3.13.8-3.68.36-.39.64-.32 1.33-.47.38-.08 1.1 0 1.3-.29.38-.5-.41-3.1-.52-3.54-.51-2.07-1.66-4.14-1.32-6.33" fill="none" stroke="#000" stroke-linecap="round" stroke-linejoin="round" stroke-width="1.5"/><path d="M99.91 73s4.81-.74 12.19 3m-77.21 50.22c0 4.09-.74 10 8.13-1.83m-5.55-10.72c0 4.06-.74 10 8.13-1.86m-.74 14.8c0 4-.75 10 8.12-1.85m3.34-6.29c0 4.06-.76 10 8.13-1.84m-12.57-4.82c0 4.09-.73 10 8.13-1.83M46.34 96.66c0 4.09-.74 10 8.13-1.83m-.38 42.11c0 4.1-.74 10 8.13-1.84m4.43-24c0 4.1-.73 10 8.13-1.83m-3.32 17.37c0 4-.73 10 8.13-1.85m-7 17.37c0 4.06-.74 10 8.13-1.86m5.92-8.49c0 4.06-.74 10 8.13-1.83m-38.42-2.23c0 4.06-.76 9.95 8.13-1.83m-29.94-22.2c0 4.09-.74 10 8.13-1.83m-15.91 16.22c0 4.08-.74 10 8.13-1.84m13.3-29.2c0 4.06-.74 10 8.13-1.86m174.39 41c0 4.09.74 10-8.13-1.83m5.53-10.72c0 4.06.75 10-8.11-1.86m.73 14.8c0 4 .74 10-8.13-1.85m-3.32-6.29c0 4.06.74 10-8.13-1.84m12.56-4.82c0 4.09.74 10-8.13-1.83m13.66-13.32c0 4.09.76 10-8.13-1.83m.38 42.11c0 4.1.74 10-8.13-1.84m-4.43-24c0 4.1.73 10-8.13-1.83m3.32 17.37c0 4 .75 10-8.12-1.85m7 17.37c0 4.06.74 10-8.13-1.86m-5.87-8.51c0 4.06.75 10-8.13-1.83m38.44-2.23c0 4.06.74 9.95-8.13-1.83m29.92-22.2c0 4.09.74 10-8.13-1.83m15.89 16.25c0 4.08.75 10-8.12-1.84m-13.34-29.2c0 4.06.75 10-8.12-1.86m-37.69 89.44a91.92 91.92 0 009.35 7.7c2.71 2.06 5.95 4.18 7.95 7 1.35 1.89 1.12 3.85-1.41 4.51a7.64 7.64 0 01-3.33-.11c-.83-.18-4.32-1.57-4.39-2.63.05.78 1.27 1.32 1.43 2 .34 1.5-1.32 3.27-2.58 3.63M145 200.11c-3.69 0-8.88.41-11.09-7.35m-21.07 19.77c3.94 1.91-11.37 10-12.58 10.63-2.9 1.4-6.39 2.67-6.62 6.34-.06.92-.23 3.83.61 4.63.65.63 1.39.3 2.36.29 2.72 0 5.47.61 8.17.48a12.31 12.31 0 012.32-.26 13.43 13.43 0 012.37 1.11c2.16.86 4 .32 6.16-.43 1-.36 2.68-1.49 3.73-1.53 1.29 0 2.83 1.2 4.12 1.4 1.77.26 3.74-.46 5.46-.82 2.84-.59 5-.4 6.15-3.23 2.1-5.34-3.6-7.9-7.55-9.88a42.93 42.93 0 01-4.07-1.89c-1.79-1.14-2.28-3.38-2.67-5.38m35.65.37c3.11 2.7-3.34 6.28-5.12 7.15-4.38 2.15-9.79 2.1-10.1 8-.05 1-.25 4.33.92 5.05.64.39 4.86-.34 5.59-.72 1.87-1 2.64-3.65 4-5.21.76-.89 3.08-4 4.36-4.13.9-.11.89.49 1 1.27.43 2.8-1.65 5.36-.05 8.13a2.88 2.88 0 002 1.64 8 8 0 003-.26c1.17-.5.27.28.84-1 .87-1.93.55-5.48.51-7.61 0-.33-.25-1.77 0-2 .51-.52 2.34 1.31 2.53 1.49a12.35 12.35 0 013.33 5.56c.63 1.86.42 2.92 2.32 2.85a6.57 6.57 0 004.27-1.45c1.55-1.53 2.34-4.69 1.07-6.53-1.57-2.28-5.24-3.48-7.51-4.9-2.71-1.7-5.26-3.8-6.61-6.78" fill="none" stroke="#000" stroke-linecap="round" stroke-linejoin="round" stroke-width="1.5"/><path d="M122.91 219l33-.59m9.7-.2l10.26-.16v7.76m-5.56 7.87l-7.47.1m-5.82.11l-9.43.2m-5.8.09l-11.09.19m-31.34-10.5a14.29 14.29 0 010-3.52c.34-1.18-.29-.73 1.06-.94a55.82 55.82 0 017-.12M111 216c-3.82-1.48-7.35-3.62-11.37-4.49-.47-.11-1.36-.13-1.54-.46-.47-.8.47-2.72.48-3.57 0-1.54-1.2-3.07-1.85-4.41a17.54 17.54 0 00-2.76-4c-3.11-3.5-7-4.08-11.35-5.16a54 54 0 01-13-4.9 5.89 5.89 0 001.33 4.84c3 3.75 9.27 5 13.49 7 1.89.9 3.77 1.83 5.62 2.79.34.18 1.64.64 1.7 1 .13.68-1.29 1.62-1.74 1.86-2.11 1.16-5 .74-7.23.14 1.89-4.55-5.4-7.34-7.14-2.67-3.91-2-7.08-5-10.91-7.07s-8.35-3.79-12.83-3.79c4.42 3.36 8.83 6.73 13.15 10.21a3.88 3.88 0 00-3.61 4.68 10.33 10.33 0 01-3.69-1.57c-.37-.23-1.54-.73-1.74-1.13s0-1.56-.17-2.06c-1.15-3.13-4-2.59-6.3-1.38-.66.35-.44.41-1.3.48a9.59 9.59 0 01-1.76-.2 54.21 54.21 0 00-6.24-.44 53.48 53.48 0 00-6.45.32c2.34 2.19 4.86 2.51 7.84 3.15a3.71 3.71 0 013.13 2.4c.33.86.83 4.11-.29 4.33 1.69-6.73-9.67-5.67-7.24.28-4-1.75-7.39 3.63-4.07 6.41 2.86 2.39 7.53-.62 6.06-4.23a4.83 4.83 0 002.35.27 3.83 3.83 0 003.34 4.82c-.3 1.84-3.12 2.47-4.46 3.25a60.62 60.62 0 00-5.34 3.65c-2.58 1.92-5.12 3.92-7.6 6 2.25-.66 4.5-1.31 6.76-1.93 3.25-.88 6.9-1.38 9.86-3.07 3.13-1.79 3.69-4.9 5.46-7.79a17.35 17.35 0 014.8-5.65c-1.22 6.13 9.45 5.43 7.4-.49 2.38 1.1 2.48 1.22 2.15 3.72a12.5 12.5 0 01-3.65 7.53 68.4 68.4 0 01-11 8c5.6.71 11.63-.38 15.22-5.11 1.91-2.52 2.64-5.74 4.47-8.33 1.61-2.29 2.31-2.75 4.88-2.92a3.88 3.88 0 004.29 5.31c-4.09 3.3-8.35 5.93-11.88 9.92 5 3 11.07-3.27 14.18-6.38 4.29-4.28 7.53-8.19 14.28-6.53-1.18 4.21-5.07 6.84-8.59 8.95a40.14 40.14 0 00-10.25 8.79c6.62-.61 12.19-4.37 17.71-7.76m7.41-37l-4.43-3a19.9 19.9 0 002.94 10.73M176.44 227l11.69-2.84 7.07-1.71c2-.48 1.86-.79 2.47 1.3l6.14-5.11-7.92-1 .47 1.64-20.57 5m.77 8.64l15.95 3.8 9.93 2.37c.65.15 2.36.23 2.86.68s.33.79.11 1.94l7.81-1.77-6.64-4.44-.32 1.68-29-7m-.09-.08l20.29-.23 13-.14a16.88 16.88 0 013.69 0c1.17.28.82-.06.94 1.68l7.12-3.67-7.54-2.61.12 1.8-37.68.45M99.91 73s4.81-.74 12.19 3" fill="none" stroke="#000" stroke-linecap="round" stroke-linejoin="round" stroke-width="1.5"/><path d="M108 61.41a85.79 85.79 0 0114.77 7.73c.67.44 4.13 2.37 2.78 3.23-.91.58-3.15-.91-3.87-1.37-1.45-.91-2.26-1.6-3.74-1.12-2.26.75-3.36 1-4.38-1.9-.49-1.41-.07-2.14-1.1-3.13-1.45-1.39-3.81-2.29-5.57-3.26a8.55 8.55 0 011.11-.18M102.87 232.47c0-2.11-.49-4.85.72-6.74.29-.44 2.29-2.81 3-2.48.9.44-.67 5.51-.83 6.23-.28 1.25-1.25 3.64-.26 4.83l-3-.18.37-1.66M117.83 233.76c1.59-1.56 1.09-3.4.42-5.3-.38-1.06-2.41-4.86-.55-5.46 1.6-.51 1.67 2.79 1.78 3.73.28 2.39 0 5.35 1.86 7.2-1.6-.64-1.88-.72-3.51-.17"/></svg>