<svg xmlns="http://www.w3.org/2000/svg" width="600" height="400"><path d="M0 0h600v400H0z" fill="#bf0a30" fill-rule="evenodd"/><path d="M.22 369.23v-30.77H600v30.77zM.22 61.54V30.77H600v30.77zM.22 123.08V92.31H600v30.77zM.22 184.62v-30.77H600v30.77zM.22 246.15v-30.76H600v30.76zM.22 307.69v-30.77H600v30.77z" fill="#fff" fill-rule="evenodd"/><path d="M.22 0v215.39h304.27V0z" fill="#002868" fill-rule="evenodd"/><path d="M265.48 48l2.78-8.57-7.26-5.31h9l2.79-8.57 2.78 8.57h9l-7.29 5.3 2.78 8.58-7.29-5.3zM225.4 48l2.79-8.57-7.29-5.3h9l2.78-8.57 2.79 8.57h9l-7.29 5.3L240 48l-7.29-5.3zM185.33 48l2.78-8.57-7.28-5.3h9l2.79-8.57 2.78 8.57h9l-7.29 5.3 2.8 8.57-7.29-5.3zM145.26 48l2.74-8.58-7.29-5.3h9l2.78-8.57 2.79 8.57h9l-7.29 5.3 2.84 8.58-7.29-5.3zM105.18 48l2.82-8.58-7.29-5.3h9l2.78-8.57 2.78 8.57h9l-7.27 5.3 2.76 8.58-7.29-5.3zM65.11 48l2.78-8.57-7.29-5.3h9l2.79-8.57 2.78 8.57h9l-7.29 5.3 2.8 8.57-7.28-5.3zM25 48l2.79-8.57-7.29-5.3h9l2.78-8.57 2.79 8.57h9l-7.28 5.3L39.61 48l-7.29-5.3zM265.48 95.27l2.78-8.57-7.26-5.3h9l2.79-8.57 2.78 8.57h9l-7.29 5.3 2.79 8.57-7.3-5.27zM225.4 95.27l2.79-8.57-7.29-5.3h9l2.78-8.57 2.79 8.57h9l-7.29 5.3 2.82 8.57-7.31-5.27zM185.33 95.27l2.78-8.57-7.28-5.3h9l2.79-8.57 2.78 8.57h9l-7.29 5.3 2.79 8.57-7.28-5.27zM145.26 95.27L148 86.7l-7.29-5.3h9l2.78-8.57 2.79 8.57h9l-7.29 5.3 2.78 8.57-7.23-5.27zM105.18 95.27L108 86.7l-7.29-5.3h9l2.78-8.57 2.78 8.57h9L117 86.7l2.78 8.57-7.31-5.27zM65.11 95.27l2.78-8.57-7.29-5.3h9l2.79-8.57 2.78 8.57h9l-7.27 5.3 2.78 8.57L72.4 90zM25 95.27l2.79-8.57-7.29-5.3h9l2.78-8.57 2.79 8.57h9l-7.28 5.3 2.78 8.57L32.32 90zM265.48 142.55l2.78-8.57-7.29-5.3h9l2.79-8.56 2.78 8.56h9l-7.29 5.3 2.79 8.57-7.29-5.3zM225.4 142.55l2.79-8.57-7.29-5.3h9l2.78-8.56 2.79 8.56h9L237.2 134l2.78 8.57-7.29-5.3zM185.33 142.55l2.78-8.57-7.28-5.3h9l2.79-8.56 2.78 8.56h9l-7.29 5.3 2.79 8.57-7.29-5.3zM145.26 142.55L148 134l-7.29-5.3h9l2.78-8.56 2.79 8.56h9l-7.29 5.3 2.78 8.57-7.29-5.3zM105.18 142.55L108 134l-7.29-5.3h9l2.78-8.56 2.78 8.56h9L117 134l2.78 8.57-7.29-5.3zM65.11 142.55l2.78-8.55-7.29-5.3h9l2.79-8.56 2.78 8.56h9L76.9 134l2.78 8.57-7.28-5.3zM25 142.55l2.82-8.55-7.29-5.3h9l2.78-8.56 2.79 8.56h9l-7.27 5.3 2.78 8.57-7.29-5.3zM265.48 189.83l2.78-8.57L261 176h9l2.79-8.57 2.78 8.57h9l-7.29 5.29 2.79 8.57-7.29-5.29zM225.4 189.83l2.79-8.57-7.29-5.26h9l2.78-8.57 2.79 8.57h9l-7.29 5.29 2.78 8.57-7.29-5.29zM185.33 189.83l2.78-8.57-7.28-5.26h9l2.79-8.57 2.78 8.57h9l-7.29 5.29 2.79 8.57-7.29-5.29zM145.26 189.83l2.78-8.57-7.29-5.26h9l2.78-8.57 2.79 8.57h9l-7.29 5.29 2.78 8.57-7.29-5.29zM105.18 189.83l2.79-8.57-7.29-5.26h9l2.78-8.57 2.78 8.57h9l-7.24 5.26 2.78 8.57-7.29-5.29zM65.11 189.83l2.78-8.57L60.6 176h9l2.79-8.57 2.79 8.57h9l-7.29 5.29 2.78 8.57-7.28-5.29zM25 189.83l2.79-8.57-7.26-5.26h9l2.78-8.57 2.8 8.57h9l-7.28 5.29 2.78 8.57-7.29-5.29z" fill="#fff" fill-rule="evenodd"/></svg>