<svg xmlns="http://www.w3.org/2000/svg" width="156" height="300" viewBox="0 0 156 300"><title>flag-usvi-icon-arrows</title><path d="M60.23,199.88h0l8.4,8.37h0L56.76,258.41,46.2,244.22l-15.66,7.3,11.88-50.15h0l11-3.07h0l11.15-37.67L79.43,97.55h0l-10.35.19h0l24.57-45,1.64,51.89h0l-9.16-5.32h0L70.88,165.15Z" fill="#fff" stroke="#000" stroke-miterlimit="10" stroke-width="1.34"/><path d="M66.11,179.06l-6,11.28h0l6.06,10.37h0L42.33,245.93l-6.72-16.58L18.7,232.14l23.8-45.22h0l11.38,0h0l5.84-11.32,7.41-16L108.38,81h0l-10-2.64h0l34.8-36.77L122,92.16h0l-7.54-7.64h0l-41,78.79Z" fill="#fff" stroke="#000" stroke-miterlimit="10" stroke-width="1.34"/><path d="M67.13,182.34,51.05,202.77h0l3.68,11.55h0L21.89,252.74l-3-17.75L1.81,233.7l32.85-38.42h0L45.75,198h0l17.06-21.69,12-14.56,45.61-53.41h0l-9.23-4.95h0l41.76-27.59-21.68,46.62h0l-5.72-9.22h0L79.73,167.3Z" fill="#fff" stroke="#000" stroke-miterlimit="10" stroke-width="1.34"/></svg>