<svg xmlns="http://www.w3.org/2000/svg" width="600" height="434" viewBox="0 0 600 434"><title>flag-rhode-island-dimensions</title><path d="M115.25,5.46H508.57l-.29,361.59H115.44Z" fill="#fff" stroke="#50d6cc" stroke-linecap="round" stroke-linejoin="round" stroke-width="0.98"/><path d="M489,304.38h20m-20,6.74h20m-20,6.74h20m-20,6.74h20m-20,6.74h20m-20,6.74h20m-20,6.75h20m-20,6.74h20m-20-94.38h20m-20,6.74h20m-20,6.74h20m-20,6.74h20m-20,6.74h20m-20,6.74h20m-20,6.75h20m-20,6.74h20M489,210h20m-20,6.74h20m-20,6.74h20m-20,6.74h20M489,237h20m-20,6.75h20m-20,6.74h20m-20,6.74h20m-20-94.38h20m-20,6.74h20m-20,6.74h20M489,183h20m-20,6.75h20m-20,6.74h20m-20,6.74h20M489,210h20m-20-94.38h20m-20,6.74h20m-20,6.74h20m-20,6.75h20m-20,6.73h20m-20,6.75h20m-20,6.74h20m-20,6.74h20M489,68.43h20m-20,6.74h20m-20,6.75h20m-20,6.73h20M489,95.4h20m-20,6.74h20m-20,6.74h20m-20,6.74h20M489.29,21h20M489,28h20m-20,6.74h20m-20,6.75h20m-20,6.74h20M489,55h20m-20,6.74h20m-20,6.74h20M398.4,367.05l.29-361.59m6.45,361.59.3-361.59m6.45,361.59.29-361.59m6.45,361.59.3-361.59m6.44,361.59.29-361.59m6.45,361.59.3-361.59m6.44,361.59.3-361.59m6.45,361.59.29-361.59M351.21,367.05,351.5,5.46M358,367.05l.3-361.59m6.44,361.59L365,5.46m6.45,361.59.3-361.59m6.45,361.59.29-361.59m6.45,361.59.3-361.59m6.44,361.59L392,5.46m6.45,361.59.29-361.59M304,367.05l.29-361.59m6.44,361.59.3-361.59m6.45,361.59.29-361.59m6.45,361.59.3-361.59M331,367.05l.29-361.59m6.46,361.59L338,5.46m6.45,361.59.29-361.59m6.45,361.59L351.5,5.46M256.82,367.05l.29-361.59m6.45,361.59.3-361.59m6.45,361.59L270.6,5.46m6.45,361.59.29-361.59m6.45,361.59.29-361.59m6.45,361.59.29-361.59m6.45,361.59.3-361.59M304,367.05l.29-361.59M209.63,367.05l.29-361.59m6.45,361.59.29-361.59m6.45,361.59L223.4,5.46m6.45,361.59.3-361.59m6.44,361.59.3-361.59m6.45,361.59.29-361.59m6.45,361.59.29-361.59m6.45,361.59.29-361.59M162.44,367.05l.29-361.59m6.45,361.59.29-361.59m6.45,361.59.29-361.59m6.45,361.59L183,5.46m6.45,361.59.29-361.59m6.45,361.59.3-361.59m6.44,361.59.3-361.59m6.45,361.59.29-361.59M122,367.05l.3-361.59m6.44,361.59L129,5.46m6.45,361.59.3-361.59m6.45,361.59L142.5,5.46M149,367.05l.29-361.59m6.45,361.59L156,5.46m6.46,361.59.29-361.59M445.6,367.05l.29-361.59m6.45,361.59.29-361.59m6.45,361.59.29-361.59m6.45,361.59.3-361.59m6.45,361.59.29-361.59m6.45,361.59L479.6,5.46m6.45,361.59.29-361.59m6.45,361.59.3-361.59M398.4,367.05l.29-361.59m6.45,361.59.3-361.59m6.45,361.59.29-361.59m6.45,361.59.3-361.59m6.44,361.59.29-361.59m6.45,361.59.3-361.59m6.44,361.59.3-361.59m6.45,361.59.29-361.59M351.21,367.05,351.5,5.46M358,367.05l.3-361.59m6.44,361.59L365,5.46m6.45,361.59.3-361.59m6.45,361.59.29-361.59m6.45,361.59.3-361.59m6.44,361.59L392,5.46m6.45,361.59.29-361.59M304,367.05l.29-361.59m6.44,361.59.3-361.59m6.45,361.59.29-361.59m6.45,361.59.3-361.59M331,367.05l.29-361.59m6.46,361.59L338,5.46m6.45,361.59.29-361.59m6.45,361.59L351.5,5.46M256.82,367.05l.29-361.59m6.45,361.59.3-361.59m6.45,361.59L270.6,5.46m6.45,361.59.29-361.59m6.45,361.59.29-361.59m6.45,361.59.29-361.59m6.45,361.59.3-361.59M304,367.05l.29-361.59M209.63,367.05l.29-361.59m6.45,361.59.29-361.59m6.45,361.59L223.4,5.46m6.45,361.59.3-361.59m6.44,361.59.3-361.59m6.45,361.59.29-361.59m6.45,361.59.29-361.59m6.45,361.59.29-361.59M162.44,367.05l.29-361.59m6.45,361.59.29-361.59m6.45,361.59.29-361.59m6.45,361.59L183,5.46m6.45,361.59.29-361.59m6.45,361.59.3-361.59m6.44,361.59.3-361.59m6.45,361.59.29-361.59m279.91,343.6,18.45,18" fill="none" stroke="#50d6cc" stroke-width="2.29"/><path d="M490.12,23.46l18.45-18" fill="none" stroke="#50d6cc" stroke-width="2.29"/><path d="M115.74,19.8h378.5l-.3,332.91H115.44" fill="#fff" stroke="#50d6cc" stroke-linecap="round" stroke-linejoin="round"/><path d="M302.27,126.49s-.61,67.79-.61,72.73,0,11.71-5.44,10.47-12.1-1.23-21.78-8-9.67-8-9.67-8l9.07-3.08s-9.07-1.85-15.12-6.16-10.89-8-10.89-8-.61,9.25,2.42,16,9.07,12.94,9.07,12.94v-8s8.47,8,11.5,9.86,15.12,6.78,19.95,9.87,14.52,11.7,14.52,11.7,8.48-9.86,14.53-12.33,13.91-6.16,17.54-8.62,13.3-11.71,13.3-11.71v10.47s6.66-8,8.47-13.56,2.42-15.41,2.42-15.41a53.76,53.76,0,0,1-9.07,5.55C348.24,185,336.15,190,336.15,190l9.67,2.47s-15.72,12.33-21.16,14.79-17,3.7-17-2.46.61-78.28.61-78.28Zm.6-22.81h4.24v18.49h-4.24Z" fill="none" stroke="#50d6cc" stroke-linecap="round" stroke-linejoin="round" stroke-width="0.98"/><path d="M272.64,122.17s16.93-3.69,32.65-3.69,32.06,3.69,32.06,3.69V129S315.58,132,302.87,132s-30.85-3.7-30.85-3.7Z" fill="#fff" stroke="#50d6cc" stroke-linecap="round" stroke-linejoin="round" stroke-width="0.98"/><path d="M311.35,119.09c0,4.08-2.85,7.4-6.36,7.4s-6.35-3.32-6.35-7.4,2.85-7.4,6.35-7.4S311.35,115,311.35,119.09Zm3-.31a9.69,9.69,0,1,1-9.68-10.17A9.93,9.93,0,0,1,314.37,118.78Z" fill="#fff" stroke="#50d6cc" stroke-linecap="round" stroke-linejoin="round" stroke-width="0.98" fill-rule="evenodd"/><path d="M360.68,237.08s-8,7.34-15.9,8.39-20.24,4.74-20.24,4.74-.33,11.31.06,12.29.63,1.24,1.76,1.28a88.9,88.9,0,0,0,22.3-2.12c12.69-3,25.14-10.59,25.14-10.59-2.9-1.19-9.92-2.24-14.45-3.37Zm-23.53,17.47c.86,2.29-12.72,4.41-12.55,7.95m-75.9-25.42s8,7.34,15.9,8.39,20.24,4.74,20.24,4.74.33,11.31,0,12.29-.63,1.24-1.76,1.28a88.86,88.86,0,0,1-22.3-2.12c-12.69-3-25.14-10.59-25.14-10.59,2.9-1.19,9.92-2.24,14.45-3.37Zm23.53,17.47c-.86,2.29,12.72,4.41,12.56,7.95" fill="none" stroke="#50d6cc" stroke-linecap="round" stroke-linejoin="round" stroke-width="0.98"/><path d="M274.45,254.07a2.14,2.14,0,0,0-2.22.48V235a2.18,2.18,0,0,1,2.33-.13c5.22,2.28,18.67,6.9,30.13,6.9s24.91-4.62,30.13-6.9a2.19,2.19,0,0,1,2.33.12v19.6a2.12,2.12,0,0,0-2.21-.48c-5.56,1.73-20.11,6-30.25,6s-24.68-4.29-30.24-6Z" fill="#fff" stroke="#50d6cc" stroke-linecap="round" stroke-linejoin="round" stroke-width="0.98"/><path d="M304.69,45.9l6.07,14.59,15.75,1.26L314.51,72l3.67,15.37-13.49-8.24L291.21,87.4,294.88,72l-12-10.28,15.75-1.26Z" fill="none" stroke="#50d6cc" stroke-linecap="round" stroke-linejoin="round" stroke-width="0.98"/><path d="M370,62l-1.41,15.74L382,86.18l-15.4,3.52L362.66,105l-8.12-13.57-15.76,1,10.39-11.9L343.32,65.9l14.53,6.2Z" fill="none" stroke="#50d6cc" stroke-linecap="round" stroke-linejoin="round" stroke-width="0.98"/><path d="M420.32,106.58l-8.56,13.28,7.91,13.68-15.28-4-10.56,11.76L393,125.48l-14.44-6.42,14.73-5.71,1.64-15.72,10,12.25Z" fill="none" stroke="#50d6cc" stroke-linecap="round" stroke-linejoin="round" stroke-width="0.98"/><path d="M444.17,169.48l-13.75,7.78.64,15.78-11.64-10.67-14.82,5.5,6.55-14.39-9.8-12.39,15.7,1.79,8.76-13.15L429,165.21Z" fill="none" stroke="#50d6cc" stroke-linecap="round" stroke-linejoin="round" stroke-width="0.98"/><path d="M436.06,236.23l-15.79.5L413.51,251l-5.36-14.87-15.67-2,12.48-9.7-2.91-15.52,13.06,8.88L429,210.21l-4.41,15.17Z" fill="none" stroke="#50d6cc" stroke-linecap="round" stroke-linejoin="round" stroke-width="0.98"/><path d="M397.87,291.57l-14.22-6.9L371,294.17l2.16-15.65-12.94-9.07,15.56-2.78,4.63-15.1,7.44,13.94,15.8-.27-10.95,11.39Z" fill="none" stroke="#50d6cc" stroke-linecap="round" stroke-linejoin="round" stroke-width="0.98"/><path d="M338.33,322.82l-9.39-12.71-15.59,2.54,9.19-12.85-7.24-14,15.06,4.77,11.12-11.23.12,15.81,14.11,7.1-15,5Z" fill="none" stroke="#50d6cc" stroke-linecap="round" stroke-linejoin="round" stroke-width="0.98"/><path d="M239.38,62l1.41,15.74-13.36,8.44,15.4,3.52,3.9,15.32,8.11-13.57,15.77,1-10.4-11.9,5.85-14.68-14.53,6.2Z" fill="none" stroke="#50d6cc" stroke-linecap="round" stroke-linejoin="round" stroke-width="0.98"/><path d="M189.07,106.58l8.56,13.28-7.91,13.68,15.27-4,10.56,11.76.89-15.78,14.44-6.42-14.74-5.71-1.63-15.72-10,12.25Z" fill="none" stroke="#50d6cc" stroke-linecap="round" stroke-linejoin="round" stroke-width="0.98"/><path d="M165.21,169.48,179,177.26,178.32,193,190,182.37l14.81,5.5-6.55-14.39,9.8-12.39-15.7,1.79-8.75-13.15-3.15,15.48Z" fill="none" stroke="#50d6cc" stroke-linecap="round" stroke-linejoin="round" stroke-width="0.98"/><path d="M173.32,236.23l15.79.5L195.88,251l5.35-14.87,15.67-2-12.48-9.7,2.92-15.52-13.07,8.88-13.86-7.58,4.4,15.17Z" fill="none" stroke="#50d6cc" stroke-linecap="round" stroke-linejoin="round" stroke-width="0.98"/><path d="M211.52,291.57l14.22-6.9,12.62,9.5-2.17-15.65,12.94-9.07-15.55-2.78L229,251.57l-7.45,13.94-15.8-.27,11,11.39Z" fill="none" stroke="#50d6cc" stroke-linecap="round" stroke-linejoin="round" stroke-width="0.98"/><path d="M271.06,322.82l9.38-12.71L296,312.65l-9.18-12.85,7.24-14L279,290.53,267.9,279.3l-.11,15.81-14.12,7.1,15,5Z" fill="none" stroke="#50d6cc" stroke-linecap="round" stroke-linejoin="round" stroke-width="0.98"/><path d="M323.22,248.73v-6.46l4.65-1.26,4.67-1.26v2.59l-3,.82-3,.83v2.59l2.29-.62,2.29-.62v2.59l-2.32.63-2.33.63v2.55l3.07-.84,3.08-.83v2.59l-4.67,1.27-4.66,1.26v-6.46Zm-9,.29c1.1-.36,1.64-1,1.44-1.65s-1.18-.93-2.95-.82l-.75,0v2.78l1-.12c.53-.07,1.11-.18,1.3-.23Zm-5.37,1.76v-6.47l2.11-.18a14.59,14.59,0,0,1,4.63,0c2,.41,3.12,1.49,3.24,3.14a3.09,3.09,0,0,1-1.17,2.71,8.82,8.82,0,0,1-4.57,1.75l-1.06.17v5l-1.59.16-1.59.16v-6.47Zm-10.48,3.95a2.63,2.63,0,0,0,1-1.56,9.85,9.85,0,0,0-.2-4.94c-.46-1.12-1.44-1.51-2.31-.9s-1,1.68-1,3.73c.06,2.22.47,3.38,1.29,3.75a1.39,1.39,0,0,0,1.21-.08Zm-1.58,2.65a4.82,4.82,0,0,1-3.45-2.59,7.93,7.93,0,0,1-.77-4,8,8,0,0,1,.76-4c.85-1.67,2.65-2.52,5-2.31,2.49.22,3.94,1.64,4.4,4.33a16.37,16.37,0,0,1,0,3.58c-.33,2.53-1.37,4.12-3.11,4.74a6.17,6.17,0,0,1-2.84.23ZM277,246.2v-6.46l1.59.39,1.59.39v5.19l1.93.48,1.92.47v-5.18l1.62.4,1.62.39v12.92l-1.62-.4-1.62-.4v-5.18l-1.92-.48-1.93-.48v5.19l-1.59-.39-1.59-.39v-6.45Z" fill="#50d6cc"/><line x1="41.35" y1="222.77" x2="41.36" y2="225.27" fill="none" stroke="#a3a3a3" stroke-linecap="round" stroke-linejoin="round"/><line x1="41.37" y1="230.41" x2="41.65" y2="361.61" fill="none" stroke="#a3a3a3" stroke-linecap="round" stroke-linejoin="round" stroke-dasharray="5.15 5.15"/><polyline points="41.65 364.18 41.66 366.68 44.16 366.68" fill="none" stroke="#a3a3a3" stroke-linecap="round" stroke-linejoin="round"/><line x1="49.02" y1="366.68" x2="104.94" y2="366.65" fill="none" stroke="#a3a3a3" stroke-linecap="round" stroke-linejoin="round" stroke-dasharray="4.86 4.86"/><line x1="107.37" y1="366.65" x2="109.87" y2="366.64" fill="none" stroke="#a3a3a3" stroke-linecap="round" stroke-linejoin="round"/><line x1="109.87" y1="6.2" x2="107.37" y2="6.2" fill="none" stroke="#a3a3a3" stroke-linecap="round" stroke-linejoin="round"/><line x1="102.4" y1="6.2" x2="45.25" y2="6.23" fill="none" stroke="#a3a3a3" stroke-linecap="round" stroke-linejoin="round" stroke-dasharray="4.97 4.97"/><polyline points="42.76 6.24 40.26 6.24 40.27 8.74" fill="none" stroke="#a3a3a3" stroke-linecap="round" stroke-linejoin="round"/><line x1="40.28" y1="13.64" x2="40.56" y2="158.33" fill="none" stroke="#a3a3a3" stroke-linecap="round" stroke-linejoin="round" stroke-dasharray="4.9 4.9"/><line x1="40.57" y1="160.78" x2="40.57" y2="163.28" fill="none" stroke="#a3a3a3" stroke-linecap="round" stroke-linejoin="round"/><line x1="364.05" y1="422.35" x2="366.55" y2="422.35" fill="none" stroke="#a3a3a3" stroke-linecap="round" stroke-linejoin="round"/><line x1="371.7" y1="422.33" x2="502.97" y2="422.07" fill="none" stroke="#a3a3a3" stroke-linecap="round" stroke-linejoin="round" stroke-dasharray="5.15 5.15"/><polyline points="505.54 422.06 508.04 422.06 508.04 419.56" fill="none" stroke="#a3a3a3" stroke-linecap="round" stroke-linejoin="round"/><line x1="508.04" y1="414.63" x2="508.02" y2="377.72" fill="none" stroke="#a3a3a3" stroke-linecap="round" stroke-linejoin="round" stroke-dasharray="4.92 4.92"/><line x1="508.02" y1="375.26" x2="508.02" y2="372.76" fill="none" stroke="#a3a3a3" stroke-linecap="round" stroke-linejoin="round"/><line x1="115.74" y1="372.76" x2="115.75" y2="375.26" fill="none" stroke="#a3a3a3" stroke-linecap="round" stroke-linejoin="round"/><line x1="115.75" y1="380.45" x2="115.77" y2="419.39" fill="none" stroke="#a3a3a3" stroke-linecap="round" stroke-linejoin="round" stroke-dasharray="5.19 5.19"/><polyline points="115.77 421.99 115.77 424.49 118.27 424.48" fill="none" stroke="#a3a3a3" stroke-linecap="round" stroke-linejoin="round"/><line x1="123.18" y1="424.47" x2="238.67" y2="424.13" fill="none" stroke="#a3a3a3" stroke-linecap="round" stroke-linejoin="round" stroke-dasharray="4.91 4.91"/><line x1="241.13" y1="424.12" x2="243.63" y2="424.11" fill="none" stroke="#a3a3a3" stroke-linecap="round" stroke-linejoin="round"/><path d="M7.28,200.89l-.42-.35a4.65,4.65,0,0,0,.81-2.61l.15-1.14H6.44c-1.06,0-2.24,0-2.91,0l0,0-.27-1.18,0-.06,5.4-6.78,0,0,1.69-.49.05,0c-.15.89-.31,1.91-.43,2.81l-.61,4.44h.37c.67,0,.94-.1,1.18-.33l.23.15-.74,1.47,0,0-1.19-.07L9,198.41c-.12.9-.1,1-.51,1.43A12.42,12.42,0,0,1,7.28,200.89ZM8,195.55l.47-3.45c.12-.89.23-1.84.29-2.48-2.8,3.58-3.95,5.14-4.41,5.86.66,0,1.38.07,2.16.07Z" fill="#727272"/><path d="M17,201.62l-1.18-1.26,1.41-10.24H15.82l.11-.72h1.41l.18-1.25A3.84,3.84,0,0,1,19,185.36c.9-1,1.22-1.22,2.21-1.23H22.3l0,0-.23.62c-.17.46-.24.53-.42.53s-.74,0-1.2,0c-1,0-1.28.39-1.45,1.59l-.35,2.51h2.21v.72H18.57l-.77,5.53c-.23,1.6-.42,3.29-.54,4.53l.51.78v0Z" fill="#727272"/><path d="M23.81,196.92c-2.17,0-3-.86-2.74-2.83l.22-1.66a3.77,3.77,0,0,1,1.91-2.8,3.4,3.4,0,0,1,2-.6c1.36,0,2.05.63,2.06,1.8A9,9,0,0,1,27,192.6l-1.27.69H22.46l-.07.5c-.22,1.63.5,2.16,2.09,2.15a4.55,4.55,0,0,0,2.62-.85h0v.21A3.72,3.72,0,0,1,23.81,196.92Zm-1.24-4.39H25.8a8.11,8.11,0,0,0,.2-1.42c0-.83-.5-1.25-1.58-1.25s-1.55.59-1.71,1.7Z" fill="#727272"/><path d="M31.14,196.9c-2.18,0-3-.86-2.75-2.82l.23-1.66a3.72,3.72,0,0,1,1.9-2.8,3.37,3.37,0,0,1,2-.61c1.36,0,2,.64,2,1.8a8.75,8.75,0,0,1-.26,1.77l-1.27.69H29.79l-.07.5c-.23,1.62.5,2.15,2.09,2.15a4.52,4.52,0,0,0,2.61-.85h0v.21A3.68,3.68,0,0,1,31.14,196.9Zm-1.25-4.38h3.24a8.91,8.91,0,0,0,.19-1.41c0-.83-.5-1.26-1.57-1.25s-1.56.58-1.72,1.7Z" fill="#727272"/><path d="M38.16,196.86c-1.41,0-2-.53-1.82-1.88l.73-4.9H35.65l.11-.73h1.43l.33-2.25,1.33-.19h0l-.37,2.43h2.37v.73H38.41l-.71,4.72c-.11.71.18,1,1.25,1a3.24,3.24,0,0,0,1.45-.36h0l0,.16A3,3,0,0,1,38.16,196.86Z" fill="#727272"/><path d="M44.33,196.15l1.93-.09c.21-1,.86-5.69.91-6.75l-1.75.05,0,0,.16-.55,3.25-.54.07,0c-.49,3-.9,6.43-1.08,7.77l1.89.09.09.53v0H44.25Z" fill="#727272"/><path d="M51.53,193.81l.24-1.77a3.9,3.9,0,0,1,2-2.94,4.32,4.32,0,0,1,2.26-.75c2,0,2.85,1,2.56,3.08l-.25,1.76a4,4,0,0,1-2,2.94,4.14,4.14,0,0,1-2.24.73C52.08,196.87,51.23,195.93,51.53,193.81Zm5.27.08.3-2.18c.24-1.79-.31-2.44-1.88-2.44-1.24,0-1.73.52-1.95,2.06L53,193.52c-.25,1.77.32,2.42,1.9,2.42C56.11,195.94,56.59,195.41,56.8,193.89Z" fill="#727272"/><path d="M63.74,195.54l.56-3.17a18,18,0,0,0,.33-2.53H63.51l.11-.74,2.6-.09,0,0-1.11,6.1c-.07.42.15.63.71.63a4.67,4.67,0,0,0,.92-.1l0,.14a2.68,2.68,0,0,1-2,1C63.93,196.81,63.58,196.46,63.74,195.54Zm1-9.08c-.18-.33-.11-.44.37-.69s.73-.35.85-.35.25.09.5.56.1.44-.37.69-.73.36-.85.36S65,186.94,64.71,186.46Z" fill="#727272"/><path d="M68.32,196.89l0,0,.77-4.69c.24-1.45-.11-2.18-.89-2.31v-.09l1.16-.8h.08a1.49,1.49,0,0,1,1,1.36A3.26,3.26,0,0,1,73,188.94a2,2,0,0,1,2.06,2.62l-.61,3.64c-.11.67.49.72,1.13.62l0,.14a2.91,2.91,0,0,1-1.77.83c-.71,0-.92-.33-.8-1l.67-4c.21-1.22-.31-1.78-1.48-1.78-1,0-1.59.57-1.81,1.91l-.76,4.62-.08.07Z" fill="#727272"/><path d="M77.18,194l.22-1.66a3.67,3.67,0,0,1,1.84-2.76,3.94,3.94,0,0,1,2.05-.64,4.28,4.28,0,0,1,1.68.3l0,.07-.46,1.23h-.07a4.27,4.27,0,0,0-2.3-.58c-.87,0-1.17.37-1.34,1.61l-.34,2.35c-.19,1.34.52,1.89,1.87,1.89a3.84,3.84,0,0,0,2.4-.87h0v.21a3.75,3.75,0,0,1-3,1.67C77.71,196.82,76.92,196,77.18,194Z" fill="#727272"/><path d="M84,196.86l-.06-.05,1.3-8.65a26,26,0,0,0,.35-3.1l-.89,0,.07-.57,2.35-.09,0,0-.82,5.52a3.57,3.57,0,0,1,2.33-1c1.63,0,2.34,1.08,2.08,2.62l-.62,3.64c-.1.67.5.73,1.14.62l0,.14a2.93,2.93,0,0,1-1.77.84c-.7,0-.91-.34-.79-1.05l.66-4c.21-1.22-.32-1.79-1.4-1.79a2.05,2.05,0,0,0-1.82,1l-.82,5.51-.09.08Z" fill="#727272"/><path d="M95.56,196.79c-2.17,0-3-.86-2.74-2.83L93,192.3A3.77,3.77,0,0,1,95,189.5a3.4,3.4,0,0,1,2-.6c1.36,0,2,.63,2,1.8a8.85,8.85,0,0,1-.26,1.77l-1.27.69H94.21l-.07.49c-.22,1.63.5,2.16,2.09,2.16a4.56,4.56,0,0,0,2.62-.86h0v.21A3.69,3.69,0,0,1,95.56,196.79Zm-1.24-4.38h3.23a7.05,7.05,0,0,0,.19-1.41c0-.84-.49-1.26-1.57-1.26s-1.56.59-1.71,1.7Z" fill="#727272"/><path d="M100,196.52l0,0-.07-1.27.05,0a7.16,7.16,0,0,0,2.85.61c.81,0,1-.28,1.14-1.16s-.09-1.12-.87-1.19l-.72-.07c-1.57-.15-2.16-.33-1.93-1.85a2.21,2.21,0,0,1,1.34-1.91c1-.61,1.31-.7,1.73-.7s1.45.07,2,.09l0,0-.32.77a.39.39,0,0,1-.4.31c-.3,0-1.49-.19-2.27-.19-.6,0-.77.27-.88,1.12s.09,1.11.87,1.18l.73.07c1.57.16,2.15.33,1.93,1.86a2.28,2.28,0,0,1-1.36,1.91,3.4,3.4,0,0,1-2,.71A6.41,6.41,0,0,1,100,196.52Z" fill="#727272"/><path d="M258.08,429.5h-1.21v0l.33-.76c.21-.48.32-.59.55-.59s1.15,0,1.91,0a2.09,2.09,0,0,0,1.43-.44,2.41,2.41,0,0,0,1.08-1.82l.07-.52c.24-1.73-1.1-2.06-3.81-2.29l0-.05,1.34-5.31.05-.05h3.45a1.49,1.49,0,0,0,1.18-.34l.23.16-.77,1.51h0c-.49,0-.95-.05-1.84-.05h-1.84l-.72,2.86c2.92.33,4.53.84,4.22,3.13l-.06.39c-.15,1.18-1.11,2-2.22,2.83A5.06,5.06,0,0,1,258.08,429.5Z" fill="#727272"/><path d="M269.75,430.7l-1.18-1.25L270,419.21h-1.41l.1-.73h1.42l.17-1.25a3.82,3.82,0,0,1,1.45-2.79c.9-.95,1.21-1.22,2.2-1.22h1.14v0l-.22.62c-.18.46-.25.53-.43.53s-.74,0-1.2,0c-1,0-1.27.39-1.45,1.6l-.35,2.51h2.21v.73h-2.31l-.77,5.54c-.23,1.59-.42,3.29-.54,4.53l.51.78h0Z" fill="#727272"/><path d="M276.56,426c-2.18,0-3-.86-2.75-2.82l.23-1.66a3.72,3.72,0,0,1,1.9-2.8,3.34,3.34,0,0,1,2-.61c1.36,0,2.06.64,2.06,1.8a9.53,9.53,0,0,1-.26,1.77l-1.28.69H275.2l-.07.5c-.22,1.62.5,2.15,2.1,2.15a4.55,4.55,0,0,0,2.61-.85h0v.21A3.68,3.68,0,0,1,276.56,426Zm-1.25-4.38h3.24a8.76,8.76,0,0,0,.19-1.41c0-.83-.5-1.26-1.58-1.26s-1.55.59-1.71,1.71Z" fill="#727272"/><path d="M283.88,426c-2.18,0-3-.86-2.75-2.83l.23-1.66a3.78,3.78,0,0,1,1.9-2.8,3.43,3.43,0,0,1,2-.6c1.36,0,2,.63,2,1.8a8.85,8.85,0,0,1-.26,1.77l-1.27.69h-3.22l-.07.49c-.23,1.63.5,2.16,2.09,2.16a4.53,4.53,0,0,0,2.61-.86h0v.21A3.67,3.67,0,0,1,283.88,426Zm-1.25-4.38h3.24a8.91,8.91,0,0,0,.19-1.41c0-.84-.5-1.26-1.57-1.26s-1.56.59-1.72,1.7Z" fill="#727272"/><path d="M290.9,425.94c-1.41,0-2-.53-1.82-1.87l.73-4.9H288.4l.1-.72h1.43l.34-2.24,1.32-.2,0,0-.37,2.42h2.37v.72h-2.48l-.71,4.72c-.11.71.18,1,1.26,1a3.37,3.37,0,0,0,1.44-.36h0l0,.16A3,3,0,0,1,290.9,425.94Z" fill="#727272"/><path d="M300.24,426c-1.8,0-2.78-1-2.48-3.25l.19-1.45a8.22,8.22,0,0,1,2.06-4.95,5.68,5.68,0,0,1,3.43-2.13l.05,0,.13.78c.05.34,0,.41-.28.5-1,.33-2.07.25-2.81,1.12-.43.49-.62.86-.94,3a3.49,3.49,0,0,1,2.55-1,2.12,2.12,0,0,1,2.27,2.6l-.16,1.16a3.58,3.58,0,0,1-1.76,2.87A4.2,4.2,0,0,1,300.24,426ZM301,425c1.24,0,1.54-.5,1.74-2l.2-1.38c.22-1.59-.33-2.16-1.56-2.15a2.2,2.2,0,0,0-1.93.87l-.28,2C299,424.19,299.62,425,301,425Z" fill="#727272"/><path d="M309.58,424.64l.56-3.17a16.52,16.52,0,0,0,.33-2.53h-1.11l.1-.74,2.6-.09h0L311,424.23c-.06.42.15.63.71.63a4.67,4.67,0,0,0,.92-.1l0,.14a2.68,2.68,0,0,1-2,1C309.78,425.91,309.42,425.56,309.58,424.64Zm1-9.08c-.17-.33-.1-.44.37-.69s.73-.35.85-.35.25.09.5.56.11.44-.37.69-.73.36-.85.36S310.8,416,310.55,415.56Z" fill="#727272"/><path d="M314.16,426l-.05-.05.77-4.69c.24-1.45-.11-2.18-.89-2.32v-.08l1.17-.8h.07a1.49,1.49,0,0,1,1,1.36,3.28,3.28,0,0,1,2.62-1.37,2,2,0,0,1,2.05,2.61l-.61,3.65c-.11.67.5.72,1.13.62l0,.14a2.86,2.86,0,0,1-1.77.83c-.71,0-.92-.33-.8-1l.67-4c.21-1.22-.31-1.78-1.47-1.78-1,0-1.59.57-1.82,1.91l-.75,4.62-.09.07Z" fill="#727272"/><path d="M323,423.09l.23-1.66a3.69,3.69,0,0,1,1.83-2.76,3.94,3.94,0,0,1,2.05-.64,4.3,4.3,0,0,1,1.68.29l0,.07-.46,1.24h-.07a4.46,4.46,0,0,0-2.3-.58c-.87,0-1.17.38-1.34,1.62l-.33,2.35c-.2,1.34.51,1.89,1.86,1.89a3.84,3.84,0,0,0,2.4-.87h0v.21a3.8,3.8,0,0,1-3,1.67C323.56,425.92,322.76,425.06,323,423.09Z" fill="#727272"/><path d="M329.8,426l-.05,0,1.29-8.65a26,26,0,0,0,.35-3.1l-.89,0,.07-.57,2.36-.09v0l-.82,5.52a3.57,3.57,0,0,1,2.33-1c1.63,0,2.34,1.08,2.08,2.62l-.61,3.64c-.11.67.49.73,1.13.62l0,.14a2.86,2.86,0,0,1-1.76.83c-.71,0-.92-.33-.8-1l.66-4c.21-1.22-.32-1.79-1.4-1.79a2.09,2.09,0,0,0-1.82,1l-.82,5.52-.09.07Z" fill="#727272"/><path d="M341.4,425.89c-2.17,0-3-.86-2.74-2.83l.22-1.66a3.77,3.77,0,0,1,1.91-2.8,3.4,3.4,0,0,1,2-.6c1.36,0,2.05.63,2.06,1.8a9,9,0,0,1-.27,1.77l-1.27.69h-3.22l-.07.49c-.22,1.63.5,2.16,2.09,2.15a4.48,4.48,0,0,0,2.62-.85h0v.21A3.7,3.7,0,0,1,341.4,425.89Zm-1.24-4.38h3.23a8,8,0,0,0,.2-1.42c0-.83-.5-1.25-1.58-1.25s-1.55.59-1.71,1.7Z" fill="#727272"/><path d="M345.81,425.62l0,0-.07-1.27,0,0a7.53,7.53,0,0,0,2.85.61c.81,0,1-.28,1.15-1.17s-.09-1.11-.87-1.18l-.73-.07c-1.57-.16-2.16-.33-1.93-1.85a2.23,2.23,0,0,1,1.34-1.91c1-.61,1.31-.7,1.73-.7s1.45.07,2,.09l0,0-.31.76a.41.41,0,0,1-.41.32c-.3,0-1.49-.19-2.26-.19-.6,0-.78.27-.89,1.12s.09,1.11.87,1.18l.73.07c1.57.16,2.16.33,1.93,1.85a2.26,2.26,0,0,1-1.36,1.92,3.4,3.4,0,0,1-2.05.71A6.41,6.41,0,0,1,345.81,425.62Z" fill="#727272"/><line x1="347.16" y1="387.17" x2="349.66" y2="387.14" fill="none" stroke="#a3a3a3" stroke-linecap="round" stroke-linejoin="round"/><line x1="353.99" y1="387.1" x2="369.14" y2="386.93" fill="none" stroke="#a3a3a3" stroke-linecap="round" stroke-linejoin="round" stroke-dasharray="4.33 4.33"/><polyline points="371.31 386.9 373.81 386.88 373.81 384.38" fill="none" stroke="#a3a3a3" stroke-linecap="round" stroke-linejoin="round"/><line x1="373.81" y1="379.32" x2="373.79" y2="240.34" fill="none" stroke="#a3a3a3" stroke-linecap="round" stroke-linejoin="round" stroke-dasharray="5.05 5.05"/><line x1="373.79" y1="237.81" x2="373.79" y2="235.31" fill="none" stroke="#a3a3a3" stroke-linecap="round" stroke-linejoin="round"/><line x1="235.58" y1="237.08" x2="235.58" y2="239.58" fill="none" stroke="#a3a3a3" stroke-linecap="round" stroke-linejoin="round"/><line x1="235.58" y1="244.66" x2="235.6" y2="384.27" fill="none" stroke="#a3a3a3" stroke-linecap="round" stroke-linejoin="round" stroke-dasharray="5.08 5.08"/><polyline points="235.6 386.81 235.6 389.31 238.1 389.27" fill="none" stroke="#a3a3a3" stroke-linecap="round" stroke-linejoin="round"/><line x1="242.26" y1="389.21" x2="256.84" y2="389" fill="none" stroke="#a3a3a3" stroke-linecap="round" stroke-linejoin="round" stroke-dasharray="4.16 4.16"/><line x1="258.92" y1="388.97" x2="261.42" y2="388.93" fill="none" stroke="#a3a3a3" stroke-linecap="round" stroke-linejoin="round"/><path d="M279.46,390.68h-6.15l0-.07.28-1.12,0,0c1.06-.73,2.09-1.46,3.25-2.41,1-.78,1.45-1.35,1.54-1.95V385c.13-.9-.51-1.46-1.55-1.46a3.33,3.33,0,0,0-2.18.64l-.19-.16.72-1.31,0,0a5,5,0,0,1,2-.34c1.84,0,2.82.93,2.63,2.24l0,.12c-.11.8-.65,1.36-2.61,2.89a22.53,22.53,0,0,0-2.19,1.91h3.06a2.64,2.64,0,0,0,2-.57l.2.12-.76,1.63Z" fill="#727272"/><path d="M285,394.75l-.43-.35c.41-.6.57-.8.81-2.6l.16-1.15h-1.38c-1.06,0-2.25,0-2.92,0l0,0-.26-1.19v-.05l5.4-6.78,0,0,1.7-.5.05,0c-.16.88-.32,1.91-.44,2.81l-.61,4.44h.37a1.52,1.52,0,0,0,1.19-.34l.23.16-.74,1.47h0c-.37,0-.76,0-1.18-.06l-.23,1.62c-.12.91-.1,1-.51,1.44A14.35,14.35,0,0,1,285,394.75Zm.71-5.34.47-3.45c.13-.88.23-1.84.3-2.47-2.81,3.57-3.95,5.13-4.41,5.86.65,0,1.38.06,2.16.06Z" fill="#727272"/><path d="M294.06,389.48l.56-3.16a18.19,18.19,0,0,0,.33-2.53h-1.12l.11-.74,2.6-.1,0,0-1.11,6.1c-.07.43.15.64.71.64a4.76,4.76,0,0,0,.92-.11l0,.14a2.69,2.69,0,0,1-2,1C294.25,390.76,293.9,390.4,294.06,389.48Zm1-9.07c-.18-.34-.11-.44.37-.69s.73-.36.85-.36.25.09.5.57.1.44-.37.69-.73.35-.85.35S295.28,380.89,295,380.41Z" fill="#727272"/><path d="M298.64,390.84l-.05,0,.77-4.69c.24-1.45-.11-2.18-.89-2.32v-.09l1.16-.79h.08a1.51,1.51,0,0,1,1,1.36,3.26,3.26,0,0,1,2.61-1.37,2,2,0,0,1,2.06,2.61l-.61,3.65c-.11.67.49.72,1.13.61l0,.15a2.86,2.86,0,0,1-1.76.83c-.71,0-.92-.33-.8-1l.66-4c.22-1.22-.3-1.78-1.47-1.78-1,0-1.59.57-1.81,1.91l-.76,4.62-.08.07Z" fill="#727272"/><path d="M307.5,387.94l.22-1.66a3.69,3.69,0,0,1,1.84-2.77,4.13,4.13,0,0,1,2.05-.64,4.47,4.47,0,0,1,1.68.3l0,.07-.46,1.24h-.07a4.48,4.48,0,0,0-2.3-.58c-.87,0-1.17.38-1.34,1.61l-.34,2.36c-.19,1.34.52,1.89,1.86,1.89a3.86,3.86,0,0,0,2.41-.88h0v.22a3.78,3.78,0,0,1-3,1.66C308,390.77,307.24,389.9,307.5,387.94Z" fill="#727272"/><path d="M314.28,390.81l-.06-.05,1.3-8.65a26,26,0,0,0,.35-3.1l-.89,0,.07-.57,2.35-.09,0,0-.82,5.52a3.5,3.5,0,0,1,2.33-1c1.63,0,2.34,1.08,2.08,2.61l-.62,3.65c-.1.67.5.72,1.14.62l0,.14a2.86,2.86,0,0,1-1.77.83c-.7,0-.91-.33-.79-1l.66-4c.21-1.22-.32-1.78-1.4-1.78a2.06,2.06,0,0,0-1.82,1l-.82,5.52-.09.07Z" fill="#727272"/><path d="M325.88,390.74c-2.17,0-3-.86-2.75-2.83l.23-1.66a3.77,3.77,0,0,1,1.91-2.8,3.4,3.4,0,0,1,2-.6c1.36,0,2,.63,2,1.8a8.85,8.85,0,0,1-.26,1.77l-1.27.69h-3.22l-.07.5c-.23,1.63.5,2.16,2.09,2.15a4.58,4.58,0,0,0,2.62-.85h0v.21A3.71,3.71,0,0,1,325.88,390.74Zm-1.25-4.39h3.24a8,8,0,0,0,.19-1.42c0-.83-.49-1.25-1.57-1.25s-1.56.59-1.72,1.7Z" fill="#727272"/><path d="M330.29,390.46l0,0-.07-1.27.05,0a7.53,7.53,0,0,0,2.85.61c.81,0,1-.28,1.14-1.17s-.09-1.11-.86-1.18l-.73-.07c-1.57-.16-2.16-.33-1.93-1.85a2.24,2.24,0,0,1,1.34-1.92c1-.6,1.31-.69,1.73-.69s1.45.07,2,.09l0,0-.32.76a.4.4,0,0,1-.4.32c-.3,0-1.49-.19-2.27-.19-.6,0-.77.27-.88,1.12s.09,1.11.87,1.18l.73.07c1.57.16,2.15.33,1.93,1.85a2.25,2.25,0,0,1-1.36,1.91,3.49,3.49,0,0,1-2.05.72A6.07,6.07,0,0,1,330.29,390.46Z" fill="#727272"/><line x1="569.17" y1="142.59" x2="569.17" y2="140.09" fill="none" stroke="#a3a3a3" stroke-linecap="round" stroke-linejoin="round"/><line x1="569.17" y1="135.13" x2="569.17" y2="107.86" fill="none" stroke="#a3a3a3" stroke-linecap="round" stroke-linejoin="round" stroke-dasharray="4.96 4.96"/><polyline points="569.17 105.38 569.17 102.88 566.67 102.88" fill="none" stroke="#a3a3a3" stroke-linecap="round" stroke-linejoin="round"/><line x1="561.66" y1="102.88" x2="273.9" y2="102.88" fill="none" stroke="#a3a3a3" stroke-linecap="round" stroke-linejoin="round" stroke-dasharray="5 5"/><line x1="271.4" y1="102.88" x2="268.9" y2="102.88" fill="none" stroke="#a3a3a3" stroke-linecap="round" stroke-linejoin="round"/><line x1="569.17" y1="189.78" x2="569.17" y2="192.28" fill="none" stroke="#a3a3a3" stroke-linecap="round" stroke-linejoin="round"/><line x1="569.17" y1="197.25" x2="569.17" y2="224.59" fill="none" stroke="#a3a3a3" stroke-linecap="round" stroke-linejoin="round" stroke-dasharray="4.97 4.97"/><polyline points="569.17 227.07 569.17 229.57 566.67 229.57" fill="none" stroke="#a3a3a3" stroke-linecap="round" stroke-linejoin="round"/><line x1="561.66" y1="229.57" x2="273.9" y2="229.57" fill="none" stroke="#a3a3a3" stroke-linecap="round" stroke-linejoin="round" stroke-dasharray="5 5"/><line x1="271.4" y1="229.57" x2="268.9" y2="229.57" fill="none" stroke="#a3a3a3" stroke-linecap="round" stroke-linejoin="round"/><path d="M541.69,171.39h-6.16l0-.07.28-1.12,0,0c1.06-.73,2.09-1.45,3.25-2.41,1-.78,1.45-1.34,1.54-1.94l0-.13c.12-.9-.51-1.47-1.56-1.47a3.36,3.36,0,0,0-2.17.64l-.2-.16.73-1.31,0,0a5.11,5.11,0,0,1,2-.34c1.84,0,2.82.94,2.62,2.25l0,.12c-.1.8-.65,1.36-2.61,2.88a22.66,22.66,0,0,0-2.2,1.91h3.06a2.64,2.64,0,0,0,2-.56l.19.12-.76,1.63Z" fill="#727272"/><path d="M549.22,171.39h-6.15l0-.07.29-1.12,0,0c1.06-.73,2.08-1.45,3.25-2.41,1-.78,1.45-1.34,1.54-1.94v-.13c.13-.9-.51-1.47-1.55-1.47a3.41,3.41,0,0,0-2.18.64l-.19-.16.72-1.31,0,0a5.08,5.08,0,0,1,2-.34c1.84,0,2.81.94,2.62,2.25l0,.12c-.11.8-.65,1.36-2.62,2.88a23.78,23.78,0,0,0-2.19,1.91h3.06a2.66,2.66,0,0,0,2-.56l.19.12-.76,1.63Z" fill="#727272"/><path d="M555.13,170.22l.57-3.17a18.5,18.5,0,0,0,.34-2.53h-1.12l.11-.74,2.6-.09v0l-1.11,6.1c-.07.43.14.64.71.64a4.94,4.94,0,0,0,.92-.11l0,.14a2.65,2.65,0,0,1-2,1C555.33,171.49,555,171.14,555.13,170.22Zm1-9.07c-.17-.34-.1-.45.38-.69s.72-.36.84-.36.25.09.5.57.11.44-.37.69-.73.35-.85.35S556.37,161.62,556.12,161.15Z" fill="#727272"/><path d="M559.71,171.58l-.05-.05.78-4.69c.25-1.45-.11-2.17-.88-2.32v-.08l1.16-.8h.07a1.49,1.49,0,0,1,1,1.36,3.31,3.31,0,0,1,2.62-1.36,2,2,0,0,1,2.05,2.62l-.62,3.64c-.1.67.5.73,1.14.62l0,.14a2.86,2.86,0,0,1-1.77.83c-.7,0-.92-.33-.79-1l.67-4c.21-1.22-.3-1.78-1.47-1.78-1,0-1.59.56-1.82,1.91l-.76,4.61-.09.07Z" fill="#727272"/><path d="M568.58,168.7l.23-1.66a3.66,3.66,0,0,1,1.84-2.76,3.94,3.94,0,0,1,2.05-.64,4.28,4.28,0,0,1,1.68.3l0,.07-.46,1.24h-.07a4.43,4.43,0,0,0-2.3-.58c-.86,0-1.16.37-1.34,1.6l-.34,2.36c-.19,1.34.52,1.89,1.86,1.89a3.89,3.89,0,0,0,2.41-.87h0v.22a3.75,3.75,0,0,1-3,1.66C569.11,171.53,568.31,170.66,568.58,168.7Z" fill="#727272"/><path d="M575.35,171.58l-.05-.05,1.31-8.65a26,26,0,0,0,.35-3.1l-.88,0,.07-.57,2.35-.08h0l-.83,5.52a3.49,3.49,0,0,1,2.33-1c1.63,0,2.34,1.08,2.07,2.62l-.62,3.64c-.1.67.5.73,1.13.62l0,.14a2.86,2.86,0,0,1-1.77.83c-.71,0-.92-.33-.8-1l.68-4c.21-1.22-.32-1.78-1.4-1.78a2,2,0,0,0-1.82,1l-.83,5.51-.09.07Z" fill="#727272"/><path d="M587,171.53c-2.18,0-3-.87-2.75-2.83l.23-1.66a3.78,3.78,0,0,1,1.91-2.8,3.45,3.45,0,0,1,2-.6c1.36,0,2,.64,2,1.8a8.88,8.88,0,0,1-.27,1.77l-1.27.69h-3.22l-.07.5c-.23,1.62.5,2.16,2.09,2.16a4.58,4.58,0,0,0,2.62-.85h0v.21A3.68,3.68,0,0,1,587,171.53Zm-1.24-4.39H589a8,8,0,0,0,.2-1.41c0-.83-.5-1.26-1.57-1.26s-1.56.59-1.72,1.7Z" fill="#727272"/><path d="M591.36,171.26l0,0-.07-1.28h.06a7.45,7.45,0,0,0,2.84.62c.82,0,1-.29,1.15-1.17s-.09-1.12-.86-1.19l-.73-.07c-1.57-.16-2.16-.33-1.93-1.86a2.24,2.24,0,0,1,1.35-1.9c1-.61,1.31-.69,1.73-.69s1.45.07,2,.08l0,0-.32.76c-.09.23-.21.32-.41.32s-1.48-.2-2.26-.2c-.6,0-.78.27-.88,1.12s.09,1.11.86,1.18l.73.07c1.57.16,2.16.34,1.93,1.86a2.26,2.26,0,0,1-1.37,1.91,3.38,3.38,0,0,1-2.05.71A6.12,6.12,0,0,1,591.36,171.26Z" fill="#727272"/><polyline points="569.17 236.96 569.17 233.65 566.67 233.65" fill="none" stroke="#a3a3a3" stroke-linecap="round" stroke-linejoin="round"/><line x1="561.61" y1="233.65" x2="240.6" y2="233.65" fill="none" stroke="#a3a3a3" stroke-linecap="round" stroke-linejoin="round" stroke-dasharray="5.06 5.06"/><line x1="238.08" y1="233.65" x2="235.58" y2="233.65" fill="none" stroke="#a3a3a3" stroke-linecap="round" stroke-linejoin="round"/><polyline points="569.17 260.47 569.17 264.37 566.67 264.37" fill="none" stroke="#a3a3a3" stroke-linecap="round" stroke-linejoin="round"/><line x1="561.62" y1="264.36" x2="241.1" y2="264.36" fill="none" stroke="#a3a3a3" stroke-linecap="round" stroke-linejoin="round" stroke-dasharray="5.05 5.05"/><line x1="238.58" y1="264.36" x2="236.08" y2="264.36" fill="none" stroke="#a3a3a3" stroke-linecap="round" stroke-linejoin="round"/><path d="M544.15,256.39H543l0,0,.33-.76c.22-.48.32-.59.55-.59s1.15,0,1.91,0a2.09,2.09,0,0,0,1.43-.44,2.35,2.35,0,0,0,1.08-1.82l.07-.52c.25-1.73-1.09-2.07-3.8-2.3l0-.05,1.35-5.31,0-.05h3.45c.67,0,.94-.1,1.18-.33l.24.16-.78,1.5,0,0c-.49,0-.95-.06-1.84-.06h-1.84l-.72,2.87c2.92.33,4.52.85,4.21,3.13l-.06.39c-.16,1.18-1.11,2-2.22,2.83A5.13,5.13,0,0,1,544.15,256.39Z" fill="#727272"/><path d="M555.13,251.62l.57-3.17a18.5,18.5,0,0,0,.34-2.53h-1.12l.11-.74,2.6-.09v0l-1.11,6.1c-.07.43.14.64.71.64a4.94,4.94,0,0,0,.92-.11l0,.14a2.65,2.65,0,0,1-2,1C555.33,252.89,555,252.54,555.13,251.62Zm1-9.07c-.17-.34-.1-.45.38-.69s.72-.36.84-.36.25.09.5.57.11.44-.37.69-.73.35-.85.35S556.37,243,556.12,242.55Z" fill="#727272"/><path d="M559.71,253l-.05,0,.78-4.69c.25-1.45-.11-2.17-.88-2.32v-.08l1.16-.8h.07a1.49,1.49,0,0,1,1,1.36A3.31,3.31,0,0,1,564.4,245a2,2,0,0,1,2.05,2.62l-.62,3.64c-.1.67.5.72,1.14.62l0,.14a2.86,2.86,0,0,1-1.77.83c-.7,0-.92-.33-.79-1l.67-4c.21-1.22-.3-1.78-1.47-1.78-1,0-1.59.56-1.82,1.91l-.76,4.61-.09.07Z" fill="#727272"/><path d="M568.58,250.1l.23-1.66a3.66,3.66,0,0,1,1.84-2.76,3.94,3.94,0,0,1,2.05-.64,4.28,4.28,0,0,1,1.68.3l0,.07-.46,1.24h-.07a4.43,4.43,0,0,0-2.3-.58c-.86,0-1.16.37-1.34,1.6L569.9,250c-.19,1.34.52,1.89,1.86,1.89a3.89,3.89,0,0,0,2.41-.87h0v.22a3.75,3.75,0,0,1-3,1.66C569.11,252.93,568.31,252.06,568.58,250.1Z" fill="#727272"/><path d="M575.35,253l-.05,0,1.31-8.65a26,26,0,0,0,.35-3.1l-.88,0,.07-.57,2.35-.09,0,0-.83,5.52a3.49,3.49,0,0,1,2.33-1c1.63,0,2.34,1.08,2.07,2.62l-.62,3.64c-.11.67.5.72,1.13.62l0,.14a2.89,2.89,0,0,1-1.77.83c-.71,0-.92-.33-.8-1l.68-4c.21-1.22-.32-1.78-1.4-1.78a2,2,0,0,0-1.82,1l-.83,5.51-.09.07Z" fill="#727272"/><path d="M587,252.93c-2.18,0-3-.87-2.75-2.83l.23-1.66a3.78,3.78,0,0,1,1.91-2.8,3.43,3.43,0,0,1,2-.6c1.36,0,2,.64,2,1.8a8.88,8.88,0,0,1-.27,1.77l-1.27.69h-3.22l-.07.5c-.23,1.62.5,2.15,2.09,2.15a4.54,4.54,0,0,0,2.61-.84h0v.21A3.68,3.68,0,0,1,587,252.93Zm-1.24-4.39H589a8,8,0,0,0,.2-1.41c0-.83-.5-1.26-1.58-1.26s-1.55.58-1.71,1.7Z" fill="#727272"/><path d="M591.36,252.66l0,0-.07-1.28h.06a7.47,7.47,0,0,0,2.84.61c.82,0,1-.28,1.15-1.16s-.09-1.12-.86-1.19l-.73-.07c-1.57-.16-2.16-.33-1.93-1.86a2.22,2.22,0,0,1,1.35-1.9c1-.61,1.31-.7,1.73-.7s1.45.08,2,.09l0,0-.32.76c-.09.23-.21.32-.41.32s-1.48-.2-2.26-.2c-.6,0-.78.27-.88,1.12s.08,1.11.86,1.18l.73.07c1.57.16,2.16.34,1.93,1.86a2.28,2.28,0,0,1-1.37,1.91,3.4,3.4,0,0,1-2.05.71A6.12,6.12,0,0,1,591.36,252.66Z" fill="#727272"/></svg>