<svg xmlns="http://www.w3.org/2000/svg" width="600" height="390"><defs><clipPath id="a"><path fill="#fff" stroke="#50d6cc" stroke-miterlimit="10" d="M39.87 354.18V35.96l517.1 59.67-119.33 99.44 119.33 99.45-517.1 59.66z"/></clipPath></defs><path fill="#fff" d="M39.87 354.18V35.96l517.1 59.67-119.33 99.44 119.33 99.45-517.1 59.66z"/><path fill="none" stroke="#50d6cc" stroke-miterlimit="10" d="M39.87 354.18V35.96l517.1 59.67-119.33 99.44 119.33 99.45-517.1 59.66z"/><path fill="#fff" d="M39.87 354.18V35.96l517.1 59.67-119.33 99.44 119.33 99.45-517.1 59.66z"/><g clip-path="url(#a)"><path fill="#fff" d="M39.41 75.69l-1.89-46.21 530.16 62.58-44.15 39.41L39.41 75.69z"/><path fill="none" stroke="#50d6cc" stroke-miterlimit="10" d="M39.41 75.69l-1.89-46.21 530.16 62.58-44.15 39.41L39.41 75.69z"/><path fill="#fff" d="M39.41 361.99v-47.27l481.57-55.06 42.19 37.09-523.76 65.24z"/><path fill="none" stroke="#50d6cc" stroke-miterlimit="10" d="M39.41 361.99v-47.27l481.57-55.06 42.19 37.09-523.76 65.24z"/><path fill="#fff" d="M39.41 216.96v-41.91l423.03.32 2.85 39.81-425.88 1.78z"/><path fill="none" stroke="#50d6cc" stroke-miterlimit="10" d="M39.41 216.96v-41.91l423.03.32 2.85 39.81-425.88 1.78z"/></g><path fill="none" stroke="#50d6cc" stroke-miterlimit="10" d="M39.87 354.18V35.96l517.1 59.67-119.33 99.44 119.33 99.45-517.1 59.66z"/><path d="M39.87 36v318.18l318.21-159.11z" fill="#fff" stroke="#50d6cc" stroke-miterlimit="10"/><circle cx="138.2" cy="195.07" r="59.67" fill="#fff" stroke="#50d6cc" stroke-miterlimit="10"/><circle cx="138.2" cy="195.07" r="39.78" fill="#fff" stroke="#50d6cc" stroke-miterlimit="10"/><path fill="#fff" stroke="#50d6cc" stroke-miterlimit="10" d="M300.04 197.87l8.59-2.8-8.59-2.79v-9.03l-5.3 7.31-8.6-2.79 5.31 7.3-5.31 7.31 8.6-2.79 5.3 7.31v-9.03zM220.49 192.28v-9.03l-5.31 7.31-8.59-2.79 5.31 7.3-5.31 7.31 8.59-2.79 5.31 7.31v-9.03l8.59-2.8-8.59-2.79zM256.56 162.96l-4.01 8.09-8.94-1.31 6.46 6.31-4.01 8.1 8-4.2 6.46 6.32-1.51-8.91 8-4.19-8.94-1.31-1.51-8.9zM259.01 212.78l1.51-8.9-6.46 6.31-8-4.19 4.01 8.1-6.46 6.31 8.94-1.31 4.01 8.09 1.51-8.9 8.94-1.31-8-4.2zM176.67 261.91l-1.35-8.93-4.16 8.01-8.91-1.48 6.34 6.44-4.16 8.01 8.07-4.04 6.34 6.44-1.34-8.93 8.07-4.04-8.9-1.48zM139.25 272.18l3.18-8.46-7.54 4.98-7.06-5.63 2.4 8.7-7.54 4.98 9.02.4 2.41 8.71 3.17-8.46 9.02.41-7.06-5.63zM99.45 257.77l-3.42-8.36-2.14 8.77-9.01.68 7.68 4.75-2.14 8.77 6.89-5.84 7.69 4.75-3.43-8.36 6.89-5.84-9.01.68zM95.57 300.24l-4.78-7.67-.64 9.01-8.76 2.17 8.36 3.4-.64 9.01 5.82-6.91 8.37 3.39-4.78-7.67 5.81-6.91-8.76 2.18zM63.21 280.24l-1.98-8.82-3.58 8.29-8.99-.84 6.78 5.97-3.59 8.29 7.77-4.6 6.78 5.97-1.97-8.82 7.77-4.6-8.99-.84zM67.69 237.58l4.4 7.89 1.07-8.97 8.87-1.74-8.2-3.8 1.08-8.96-6.14 6.62-8.2-3.8 4.4 7.89-6.14 6.62 8.86-1.75zM55.91 206.9l5.31-7.31 8.59 2.79-5.31-7.31 5.31-7.3-8.59 2.79-5.31-7.31v9.03l-8.59 2.79 8.59 2.8v9.03zM178.84 113.79l-6.34 6.43-8.07-4.03 4.16 8.01-6.34 6.44 8.91-1.48 4.16 8.01 1.35-8.93 8.9-1.48-8.07-4.04 1.34-8.93zM134.12 104.29l-2.41 8.71-9.02.4 7.54 4.98-2.4 8.7 7.06-5.63 7.54 4.97-3.18-8.45 7.06-5.63-9.02.4-3.17-8.45zM105 118.86l-7.69 4.75-6.89-5.84 2.14 8.77-7.68 4.75 9.01.68 2.14 8.77 3.42-8.36 9.01.68-6.89-5.84 3.43-8.36zM90.15 88.57l.64 9.01 4.78-7.67 8.76 2.17-5.81-6.91 4.78-7.66-8.37 3.39-5.82-6.91.64 9.01-8.36 3.39 8.76 2.18zM57.65 110.43l3.58 8.29 1.98-8.81 8.99-.84-7.77-4.6 1.97-8.82-6.78 5.97-7.77-4.6 3.59 8.29-6.78 5.97 8.99-.85zM73.16 153.64l-1.07-8.96-4.4 7.88-8.86-1.74 6.14 6.62-4.4 7.89 8.2-3.8 6.14 6.62-1.08-8.96 8.2-3.8-8.87-1.75z"/><path fill="none" stroke="#a3a3a3" stroke-linecap="round" stroke-linejoin="round" d="M4.35 208.16v2.5"/><path fill="none" stroke="#a3a3a3" stroke-linecap="round" stroke-linejoin="round" stroke-dasharray="4.86 4.86" d="M4.35 215.52v133.73"/><path fill="none" stroke="#a3a3a3" stroke-linecap="round" stroke-linejoin="round" d="M4.35 351.68v2.5h2.5"/><path fill="none" stroke="#a3a3a3" stroke-linecap="round" stroke-linejoin="round" stroke-dasharray="4.82 4.82" d="M11.67 354.18h16.88"/><path fill="none" stroke="#a3a3a3" stroke-linecap="round" stroke-linejoin="round" d="M30.97 354.18h2.5M33.47 35.24h-2.5"/><path fill="none" stroke="#a3a3a3" stroke-linecap="round" stroke-linejoin="round" stroke-dasharray="4.82 4.82" d="M26.14 35.24H9.26"/><path fill="none" stroke="#a3a3a3" stroke-linecap="round" stroke-linejoin="round" d="M6.85 35.24h-2.5v2.5"/><path fill="none" stroke="#a3a3a3" stroke-linecap="round" stroke-linejoin="round" stroke-dasharray="5.13 5.13" d="M4.35 42.87v130.85"/><path fill="none" stroke="#a3a3a3" stroke-linecap="round" stroke-linejoin="round" d="M4.35 176.29v2.5M275.71 9.68h-2.5"/><path fill="none" stroke="#a3a3a3" stroke-linecap="round" stroke-linejoin="round" stroke-dasharray="4.9 4.9" d="M268.31 9.68H45.32"/><path fill="none" stroke="#a3a3a3" stroke-linecap="round" stroke-linejoin="round" d="M42.87 9.68h-2.5v2.5"/><path fill="none" stroke="#a3a3a3" stroke-linecap="round" stroke-linejoin="round" stroke-dasharray="4.86 4.86" d="M40.37 17.04v7.28"/><path fill="none" stroke="#a3a3a3" stroke-linecap="round" stroke-linejoin="round" d="M40.37 26.75v2.5M557.47 29.25v-2.5"/><path fill="none" stroke="#a3a3a3" stroke-linecap="round" stroke-linejoin="round" stroke-dasharray="4.86 4.86" d="M557.47 21.9v-7.29"/><path fill="none" stroke="#a3a3a3" stroke-linecap="round" stroke-linejoin="round" d="M557.47 12.18v-2.5h-2.5"/><path fill="none" stroke="#a3a3a3" stroke-linecap="round" stroke-linejoin="round" stroke-dasharray="5.08 5.08" d="M549.89 9.68H308.48"/><path fill="none" stroke="#a3a3a3" stroke-linecap="round" stroke-linejoin="round" d="M305.94 9.68h-2.5M206.48 379.02h2.5"/><path fill="none" stroke="#a3a3a3" stroke-linecap="round" stroke-linejoin="round" stroke-dasharray="5.06 5.06" d="M214.03 379.02h139.03"/><path fill="none" stroke="#a3a3a3" stroke-linecap="round" stroke-linejoin="round" d="M355.58 379.02h2.5v-2.5"/><path fill="none" stroke="#a3a3a3" stroke-linecap="round" stroke-linejoin="round" stroke-dasharray="5.07 5.07" d="M358.08 371.45V191.3"/><path fill="none" stroke="#a3a3a3" stroke-linecap="round" stroke-linejoin="round" d="M358.08 188.77v-2.5"/><g opacity=".46" fill="none" stroke="#a3a3a3" stroke-linecap="round" stroke-linejoin="round"><path d="M40.37 34.97h1"/><path stroke-dasharray="1.99 4.99" d="M46.35 34.97h507.13"/><path d="M555.97 34.97h1v1"/><path stroke-dasharray="1.99 4.97" d="M556.97 40.94v310.59"/><path d="M556.97 354.01v1h-1"/><path stroke-dasharray="1.99 4.99" d="M550.99 355.01H43.86"/><path d="M41.37 355.01h-1"/></g><path fill="none" stroke="#a3a3a3" stroke-linecap="round" stroke-linejoin="round" d="M407.41 379.02h2.5"/><path fill="none" stroke="#a3a3a3" stroke-linecap="round" stroke-linejoin="round" stroke-dasharray="5.09 5.09" d="M415 379.02h17.8"/><path fill="none" stroke="#a3a3a3" stroke-linecap="round" stroke-linejoin="round" d="M435.34 379.02h2.5v-2.5"/><path fill="none" stroke="#a3a3a3" stroke-linecap="round" stroke-linejoin="round" stroke-dasharray="5.07 5.07" d="M437.84 371.45V191.3"/><path fill="none" stroke="#a3a3a3" stroke-linecap="round" stroke-linejoin="round" d="M437.84 188.77v-2.5M509.17 379.02h2.5"/><path fill="none" stroke="#a3a3a3" stroke-linecap="round" stroke-linejoin="round" stroke-dasharray="4.76 4.76" d="M516.42 379.02h35.67"/><path fill="none" stroke="#a3a3a3" stroke-linecap="round" stroke-linejoin="round" d="M554.47 379.02h2.5v-2.5"/><path fill="none" stroke="#a3a3a3" stroke-linecap="round" stroke-linejoin="round" stroke-dasharray="4.79 4.79" d="M556.97 371.73v-83.87"/><path fill="none" stroke="#a3a3a3" stroke-linecap="round" stroke-linejoin="round" d="M556.97 285.46v-2.5M40.37 359.46v2.5"/><path fill="none" stroke="#a3a3a3" stroke-linecap="round" stroke-linejoin="round" stroke-dasharray="4.86 4.86" d="M40.37 366.81v7.29"/><path fill="none" stroke="#a3a3a3" stroke-linecap="round" stroke-linejoin="round" d="M40.37 376.52v2.5h2.5"/><path fill="none" stroke="#a3a3a3" stroke-linecap="round" stroke-linejoin="round" stroke-dasharray="5.06 5.06" d="M47.92 379.02h129"/><path fill="none" stroke="#a3a3a3" stroke-linecap="round" stroke-linejoin="round" d="M179.45 379.02h2.5"/><path d="M7.24 190.92a3 3 0 01-1.69 2.55 3.34 3.34 0 012.05 2.93 3.06 3.06 0 01-3.26 2.91 3 3 0 01-3.22-2.84 3.44 3.44 0 012.12-3A2.85 2.85 0 011.62 191a2.73 2.73 0 012.87-2.61 2.61 2.61 0 012.75 2.53zm-4.9 5.39a2 2 0 002.05 1.93 1.91 1.91 0 002-1.85A2.82 2.82 0 004.13 194a2.71 2.71 0 00-1.79 2.31zm.43-5.39c0 1.4 1.86 2.12 1.86 2.12a2.51 2.51 0 001.45-2 1.63 1.63 0 00-1.69-1.59 1.56 1.56 0 00-1.62 1.47zM198.06 375.81a3 3 0 01-1.69 2.56 3.33 3.33 0 012 2.92 3.05 3.05 0 01-3.26 2.91 3 3 0 01-3.22-2.84 3.44 3.44 0 012.11-3 2.87 2.87 0 01-1.61-2.49 2.73 2.73 0 012.86-2.61 2.62 2.62 0 012.81 2.55zm-4.9 5.4a2 2 0 002.05 1.92 1.91 1.91 0 002-1.85 2.82 2.82 0 00-2.26-2.4 2.71 2.71 0 00-1.79 2.33zm.42-5.4c0 1.4 1.87 2.13 1.87 2.13a2.53 2.53 0 001.45-2.05 1.63 1.63 0 00-1.69-1.59 1.56 1.56 0 00-1.63 1.51zM395.25 373.36a3 3 0 013.07 3 4.79 4.79 0 01-1.86 3.34 14 14 0 00-2.89 3.31H398a.22.22 0 00.18-.07s.12-.12.23-.08V384h-6.22v-.75a12.64 12.64 0 013.08-3.94c.76-.69 1.85-1.62 1.85-2.91a2 2 0 00-2-2 2.2 2.2 0 00-1.81 1c-.09.14-.05.24-.15.39l-.87-.69a3.47 3.47 0 012.96-1.74zM497.24 378.38a2.84 2.84 0 011.82 2.73 3.08 3.08 0 01-3.26 3.1A3.71 3.71 0 01493 383l.89-1.07c.15.15.08.32.22.48a2.29 2.29 0 001.66.72 2.13 2.13 0 002.13-2.16c0-1.26-1.05-2-2.49-2a3.08 3.08 0 00-.53 0v-1a3.9 3.9 0 001.67-.27 1.86 1.86 0 001.13-1.66 1.72 1.72 0 00-1.84-1.65 2.51 2.51 0 00-1.83.81l-.66-.73a3.46 3.46 0 012.55-1.14 2.79 2.79 0 012.91 2.69 2.44 2.44 0 01-1.57 2.36zM286 14.57h-1.18V5.44l-2.13.62-.28-.65L285.18 4h.82zM294.81 8.91a2.85 2.85 0 011.82 2.74 3.08 3.08 0 01-3.26 3.09 3.71 3.71 0 01-2.78-1.21l.89-1.07c.15.16.08.32.22.48a2.29 2.29 0 001.66.72 2.13 2.13 0 002.13-2.16c0-1.26-1.05-2-2.49-2a3.27 3.27 0 00-.54 0v-1a4.18 4.18 0 001.68-.26 1.88 1.88 0 001.13-1.67A1.72 1.72 0 00293.43 5a2.51 2.51 0 00-1.83.81l-.66-.73a3.44 3.44 0 012.54-1.14 2.79 2.79 0 012.92 2.69 2.44 2.44 0 01-1.59 2.28z"/><path fill="none" stroke="#a3a3a3" stroke-linecap="round" stroke-linejoin="round" stroke-dasharray="5 5" d="M358.08 379.03h29.18M437.84 379.03h48.83M563.84 34.97h23.65V53.7M563.84 95.65h23.65V76.92"/><path d="M575.83 70.39h-1.19v-9.13l-2.13.63-.28-.66 2.77-1.46h.83zM583.29 70.57a1 1 0 111-1 1 1 0 01-1 1zM594.91 59.79v1.07h-4.37l-.16 3a3.88 3.88 0 011.72-.41 3.2 3.2 0 013.21 3.55 3.26 3.26 0 01-3.31 3.57 3.75 3.75 0 01-3.14-1.63l1.06-.79c.14.1 0 .27.12.4a2.56 2.56 0 001.94 1 2.56 2.56 0 000-5 2.62 2.62 0 00-2 1l-.76-.31.37-5.38z"/><path fill="none" stroke="#a3a3a3" stroke-linecap="round" stroke-linejoin="round" stroke-dasharray="5 5" d="M587.49 295.88v16.73M563.84 354.56h23.65v-18.73"/><path d="M578.86 329.33h-1.19v-9.13l-2.13.63-.28-.66 2.78-1.46h.82zM586.32 329.51a1 1 0 111-1 1 1 0 01-1 1zM597.94 318.73v1.07h-4.37l-.16 3.05a3.92 3.92 0 011.72-.41 3.19 3.19 0 013.21 3.53 3.26 3.26 0 01-3.35 3.54 3.77 3.77 0 01-3.14-1.63l1.06-.79c.14.1.06.27.13.4a2.51 2.51 0 001.94 1 2.56 2.56 0 000-5.05 2.59 2.59 0 00-2 1l-.76-.31.36-5.38z"/><path fill="none" stroke="#a3a3a3" stroke-linecap="round" stroke-linejoin="round" stroke-dasharray="5 5" d="M587.49 97.64v36.82M563.84 195.76h23.65v-38.08"/><path d="M578.05 140a3 3 0 013.08 3 4.72 4.72 0 01-1.87 3.34 14.21 14.21 0 00-2.88 3.31h4.44a.24.24 0 00.19-.07.21.21 0 01.22-.07v1.18H575v-.74a12.83 12.83 0 013.08-3.95c.77-.69 1.86-1.62 1.86-2.91a2 2 0 00-2-2 2.21 2.21 0 00-1.81 1c-.09.14-.05.25-.15.39l-.86-.68a3.44 3.44 0 012.93-1.8zM586.32 150.85a1 1 0 110-1.95 1 1 0 110 1.95zM597.94 140.07v1.07h-4.37l-.16 3.05a3.92 3.92 0 011.72-.41 3.2 3.2 0 013.21 3.53 3.26 3.26 0 01-3.35 3.54 3.78 3.78 0 01-3.14-1.62l1.06-.8c.14.11.06.27.13.4a2.48 2.48 0 001.94 1 2.55 2.55 0 000-5 2.57 2.57 0 00-2 1l-.76-.3.36-5.39z"/><path fill="none" stroke="#a3a3a3" stroke-linecap="round" stroke-linejoin="round" stroke-dasharray="5 5" d="M587.49 195.76v38.95M563.84 293.88h23.65v-35.95"/><path d="M578.05 239.75a3 3 0 013.08 3 4.76 4.76 0 01-1.87 3.34 13.93 13.93 0 00-2.88 3.3h4.44a.24.24 0 00.19-.07.21.21 0 01.22-.07v1.19H575v-.75a12.66 12.66 0 013.08-3.94c.77-.7 1.86-1.63 1.86-2.92a2 2 0 00-2-2 2.21 2.21 0 00-1.81 1c-.09.14-.05.24-.15.39l-.86-.69a3.44 3.44 0 012.93-1.78zM586.32 250.61a1 1 0 110-2 1 1 0 110 2zM597.94 239.82v1.08h-4.37l-.16 3a3.78 3.78 0 011.72-.41 3.19 3.19 0 013.21 3.53 3.26 3.26 0 01-3.35 3.54 3.77 3.77 0 01-3.14-1.63l1.06-.79c.14.1.06.27.13.4a2.51 2.51 0 001.94 1 2.55 2.55 0 000-5 2.55 2.55 0 00-2 1l-.76-.31.36-5.39z"/><path fill="none" stroke="#a3a3a3" stroke-linecap="round" stroke-linejoin="round" stroke-dasharray="5 5" d="M253.41 290.37l3.8 38.84"/><path d="M263.82 311.72l-.83.08-.63-6.41-1.45.59-.24-.45 1.85-1.21.57-.06zM157.57 195h-.83v-6.45l-1.51.45-.19-.47 2-1h.58zM178.81 174.75a.69.69 0 11.71-.69.7.7 0 01-.71.69zM187 167.14v.75h-3.09l-.11 2.16a2.64 2.64 0 011.22-.29 2.25 2.25 0 012.26 2.49 2.3 2.3 0 01-2.36 2.5 2.67 2.67 0 01-2.22-1.15l.75-.56c.1.07 0 .19.09.28a1.78 1.78 0 001.37.69 1.8 1.8 0 000-3.56 1.81 1.81 0 00-1.4.71l-.54-.22.26-3.8zM193.12 163.09a.69.69 0 11.71-.69.7.7 0 01-.71.69zM201.32 155.48v.76h-3.09l-.11 2.15a2.77 2.77 0 011.22-.29 2.25 2.25 0 012.26 2.5 2.3 2.3 0 01-2.36 2.49 2.67 2.67 0 01-2.22-1.15l.75-.56c.1.08 0 .2.09.29a1.78 1.78 0 001.37.69 1.8 1.8 0 000-3.56 1.83 1.83 0 00-1.4.7l-.54-.22.26-3.8zM208.76 150.5a.69.69 0 11.71-.69.7.7 0 01-.71.69zM217 142.89v.75h-3.08l-.12 2.16a2.67 2.67 0 011.22-.29 2.25 2.25 0 012.26 2.49 2.3 2.3 0 01-2.36 2.5 2.66 2.66 0 01-2.21-1.15l.74-.56c.11.07 0 .19.09.28a1.8 1.8 0 001.37.69 1.8 1.8 0 000-3.56 1.84 1.84 0 00-1.4.7l-.53-.21.25-3.8zM274.48 206.91h-.84v-6.45l-1.5.44-.19-.46 1.95-1h.58z"/><path fill="none" stroke="#a3a3a3" stroke-linecap="round" stroke-linejoin="round" stroke-dasharray="5 5" d="M138.2 195.07l75.91-61.74"/><circle cx="138.2" cy="195.07" r="77.1" fill="none" stroke="#a3a3a3" stroke-linecap="round" stroke-linejoin="round" stroke-dasharray="2 5" opacity=".46"/><circle cx="138.2" cy="196.04" r="98.46" fill="none" stroke="#a3a3a3" stroke-linecap="round" stroke-linejoin="round" stroke-dasharray="2 5" opacity=".46"/><circle cx="138.2" cy="194.35" r="117.85" fill="none" stroke="#a3a3a3" stroke-linecap="round" stroke-linejoin="round" stroke-dasharray="2 5" opacity=".46"/><path d="M268.51 102.08a158.13 158.13 0 01-6 187.19M39.87 35.96l98.33 159.11-5.89-125.3" fill="none" stroke="#a3a3a3" stroke-linecap="round" stroke-linejoin="round" stroke-dasharray="2 5" opacity=".46"/><path fill="none" stroke="#a3a3a3" stroke-linecap="round" stroke-linejoin="round" stroke-dasharray="2 5" opacity=".46" d="M198.97 73.99L138.2 195.07h219.88M185.57 288.35l-47.37-93.28-4.94 121.09M40.37 353.93l97.83-158.86-108.36 60.55M32.26 196.03l105.94-.96-105.94-59.66"/><path fill="none" stroke="#a3a3a3" stroke-linecap="round" stroke-linejoin="round" d="M296.29 194.88l13.1 5.93"/><path d="M310.05 205.78a.69.69 0 11.71-.69.7.7 0 01-.71.69zM317 201.66a2 2 0 011.29 1.93 2.17 2.17 0 01-2.3 2.18 2.62 2.62 0 01-2-.85l.63-.76c.11.11.06.23.16.34a1.6 1.6 0 001.22.5 1.5 1.5 0 001.5-1.52c0-.89-.74-1.42-1.75-1.42h-.38v-.67a2.79 2.79 0 001.18-.19 1.31 1.31 0 00.8-1.18 1.22 1.22 0 00-1.3-1.16 1.79 1.79 0 00-1.29.57l-.47-.51a2.41 2.41 0 011.8-.8 2 2 0 012.05 1.89 1.71 1.71 0 01-1.14 1.65zM322.78 205.65h-.84v-6.44l-1.5.44-.2-.47 2-1h.58zM328.21 198.12a2.12 2.12 0 012.17 2.1 3.34 3.34 0 01-1.32 2.35 9.93 9.93 0 00-2 2.34h3.13a.17.17 0 00.13 0s.09-.08.16-.05v.83h-4.38v-.52a8.67 8.67 0 012.17-2.79 3 3 0 001.3-2.05 1.41 1.41 0 00-1.43-1.42 1.58 1.58 0 00-1.28.68c-.06.1 0 .17-.1.28l-.61-.49a2.44 2.44 0 012.06-1.26zM336.25 198.17v.76h-3.09l-.11 2.15a2.77 2.77 0 011.22-.29 2.25 2.25 0 012.26 2.49 2.3 2.3 0 01-2.36 2.5 2.67 2.67 0 01-2.22-1.15l.75-.56c.1.07 0 .19.09.28a1.78 1.78 0 001.37.69 1.8 1.8 0 000-3.56 1.81 1.81 0 00-1.4.71l-.54-.22.26-3.8z"/><circle cx="296.29" cy="194.99" r="14.22" fill="none" stroke="#a3a3a3" stroke-linecap="round" stroke-linejoin="round" stroke-dasharray="2 5" opacity=".46"/></svg>