<svg xmlns="http://www.w3.org/2000/svg" width="600" height="400" viewBox="0 0 600 400"><path fill="#fff" d="M0 0h600v400H0z"/><path fill="#002868" d="M0 0h235.8v175.22H0z"/><path fill="#bf0a30" d="M550.53 0H600v400h-49.47z"/><path fill="#fff" d="M118.95 31.35l-12.72 39.14H65.07l33.3 24.2-12.72 39.14 33.3-24.19 33.3 24.19-12.72-39.14 33.3-24.2h-41.16l-12.72-39.14z"/><path fill="#966431" d="M388.39 237.25l-6.54 91.7 19.96.72-4.39-90.03"/><path d="M345.73 104.87a4.3 4.3 0 01-6.05-1.89 12.17 12.17 0 00-.69-1.8c-1.45-2.36-5.43-.42-6.13 2.26s.6 7.37.22 10.12-6.79 2.93-7.84-2.07c-.31-1.47-2.09-2.81-3.36-2a2.83 2.83 0 00-1 1.72 16.14 16.14 0 00.09 8.93c.52 1.74 1.34 3.43 1.36 5.24s-.21 4.68-2 4.79c-1.31.08-3.61-1.69-4.79-1.11-2.7 1.3 1.34 5.56.13 8.31-1.13 2.55-6 1-7.62 3.29-1.43 2 1.11 5.17 3.12 6.64s4.46 3.46 3.84 5.87c-1 3.72-8.12 3.65-7.94 7.48 1.8 2.75 7.92 2.14 9.39 5.08 1 2-1.61 4.54-3.4 5.94s-4 2.23-5.64 3.83a3.55 3.55 0 00-1.21 2.23c-.09 1.56 1.4 2.77 2.9 3.22s3.11.44 4.55 1c3.19 1.3 4.56 5.18 4.38 8.62s-2.18 5.44-2.77 8.83a13.62 13.62 0 00.73 4.75c1 3.05 6 3.58 7.63.82 1.93 1 2.16 3.71 1.54 5.79s-1.82 4-1.85 6.2 1.22 6.62 3.25 5.87c1.61-.59 2.79-4.63 3.5-6.18s2.85-2.94 4-1.65a2.85 2.85 0 01.53 1.77 23.91 23.91 0 01-.82 7.71 10.88 10.88 0 00-.69 4 2.87 2.87 0 002.52 2.71c2 0 4.12-3.64 6.09-3.58s1.63 3.74 1.1 5.68-1.57 4-.67 5.82c1.11 2.24 4.5 2.19 6.54.77s3.29-3.73 5-5.51 4.55-3.06 6.69-1.78c4.58 2.75-.71 11.35 3.36 14.8 2.92 2.46 7.35-.5 9.3-3.78s3.58-7.44 7.27-8.44c5.88-1.6 11.38 6.39 17.17 4.49 3.68-1.2 6.24-6.17 10-5.13 2 .57 3.1 2.72 4.34 4.43s3.63 3.2 5.34 1.95c2-1.46.65-4.63 1.13-7.06.55-2.78 3.7-4.41 6.53-4.24s5.38 1.65 7.81 3.1a11.6 11.6 0 002.69-9c-.39-2.88-1.35-6.8 1.34-7.89 3.17-1.29 6.29 5.65 9.2 3.85 1.43-.89 1.8-4.66 1.13-6.21-1.28-2.94-4.32-4.67-6.28-7.21s-2.17-7.16.89-8.12 6.19 2.6 9 1.28c2.05-.95 2.29-3.87 1.42-6s-2.5-3.79-3.29-5.91-.32-5.06 1.82-5.78c1.42-.49 3 .19 4.46-.21 2.38-.66 3-4 2-6.21s-3.1-3.83-4.78-5.65-3.07-4.35-2.26-6.69a4.32 4.32 0 014.94-2.69c1.8.45 6.95 7.8 8.77 4.36s-1.61-5.66-2.42-7.28c-1.49-3 2.5-6.61 1.16-9.68-1.08-2.45-4.46-2.45-7.13-2.53s-6.12-1.84-5.32-4.39a4.55 4.55 0 012-2.18c2-1.34 4.16-2.55 5.3-4.62s2-6-.35-6.54c-1.39-.32-4.35 1.12-5.71.66-4.32-1.46.45-10.51-3.88-11.94-2.48-.82-5.27 2.39-7.5 1-2.24-2.77 4-6.73 2.09-9.74-1.24-2-4.27-.9-6.15.45s-4.6 2.79-6.24 1.16c1.52-1.6 2.42-5.07 1.23-6.92s-4.35-1.9-6.43-1.2c-1.24.43-2.32 1.34-3.63 1.47-3.11.31-4.68-3.58-5.31-6.64s-2.45-6.91-5.52-6.33c.07 3.88-4.51 8.47-7 8s-3.45-6.75-5.75-9.76a3.74 3.74 0 00-1.6-1.38c-1.47-.49-2.89.94-3.56 2.34s-1.16 3.08-2.52 3.83c-1.95 1.06-4.31-.46-5.78-2.12s-2.95-3.7-5.15-4-4.29 1.52-5.59 3.42-2.32 4.1-4.22 5.4-4.79 2.72-5.56.55c-.43-1.23-.24-4.26-.41-5.55-.43-3.29-5.13-4.43-7.9-2.62s-3.9 5.28-4.54 8.52.84 6.5-4.45 8.82" fill="#237864"/><path d="M345 103.58c-3 1.3-4.71-4.53-7.45-4.92a6 6 0 00-5.55 3.06c-1.7 3-.15 6.33-.36 9.48-.15 2.1-1 3.84-3.45 2.21-1.66-1.08-1.55-3.63-3.18-4.84-6-4.42-6.44 7.35-5.91 10.2.47 2.49 2 5 1.71 7.57-.4 3.24-1.25 1.67-3.57 1.29-1.89-.31-3.58.2-4.1 2.28-.8 3.21 3.23 6.08-1.53 7.75-2.26.79-4.73.65-5.41 3.53-.48 2 .86 4.12 2.14 5.56 1.88 2.12 3.81 2.22 3.71 5.47s-1.58 2.69-3.85 4.24c-4.65 3.17-2 6.31 2.22 7.78.69.25 2.07.32 2.61.79 1.29 1.16.67 3.81-.11 4.79-1.27 1.59-3.65 2.26-5.24 3.5-1.88 1.47-3.72 3.53-2.66 6.08 1.81 4.32 8 2.67 10.35 6.37 3.4 5.32-2 10-1.55 15.38s6.44 10.25 10.85 4.9h-2.12c3.24 2.64-1 8.85-.65 12.23.21 2 1 5.14 3.17 5.91 1.63.6 2.82-.26 3.82-1.49a12.07 12.07 0 001.41-2.7 10.7 10.7 0 01.84-2.1c2.74-3.14 2 .63 1.85 2-.23 3-4 14.81 3.79 12.51 2.27-.67 5.71-5 4.49.46-.61 2.74-2 5.72.32 8.11a5.92 5.92 0 005.4 1.19c3.88-.89 4.73-4.86 7.7-6.76l2.66-.6q3.4-2.15 3.46 1.72a12.14 12.14 0 010 2.09c-.07 1.44-.3 2.89-.25 4.34.08 2.15.61 4.34 2.4 5.7 5 3.74 10-2.14 12.32-6 1.31-2.22 2.63-5.3 5.4-6.06 2.4-.65 4.89.85 6.9 1.9 2.56 1.33 5.16 3 8.15 2.92 3.72-.09 5.42-3 8.4-4.59 4.77-2.59 6 4.56 10.14 5.79a4.1 4.1 0 005-2.18c.83-1.74-.24-3.69.33-5.34 2.15-6.25 8.27-3.4 12.2-1.1a1.55 1.55 0 002-.54 13.68 13.68 0 002.86-6.58c.28-2.16-.79-4.66-.43-6.7 1.1-6.12 5.29 1.58 8.77 1.22 2.42-.26 3.35-2.66 3.59-4.78.51-4.34-2.29-6.56-5.07-9.46s-4.69-8 2.12-6.85c1.47.24 2.61 1.07 4.17.79 3.34-.61 4.53-4 3.89-7-.4-1.89-1.64-3.32-2.54-5-1.24-2.31-2.65-4.94.74-6.1.95-.33 2.34.28 3.39-.08 2.82-1 3.93-3.87 3.46-6.64a8.1 8.1 0 00-1.5-3.36 36.14 36.14 0 00-3-3.3c-.74-.83-7-8.87.25-7.9 2.58.35 4.08 4.9 7.13 5.22 2.25.23 3.62-1.42 3.91-3.59a6 6 0 00-.88-3.84c-.35-.63-1.15-1.29-1.45-1.92-1.3-2.71-.34-3.5.34-5.8.79-2.71.72-5.37-1.88-7a9.39 9.39 0 00-4.07-1.06c-1.31-.14-4.27.19-5.11-.87-1.92-2.41 2.71-4.6 3.91-5.74 2.05-1.93 3.82-5.05 3.3-8-.82-4.66-3.78-2.23-6.82-2.65-4.24-.58-1.09-7.48-3.15-10.27a4.1 4.1 0 00-3.07-1.67 5.53 5.53 0 00-2 .21c-.75.26-1.49.54-2.21.85q-2.67.29-1-1.62c.37-2.72 3.72-4.64 1.44-7.63-3.78-5-9 3.54-12.69 1.37l.54 2.06c3.91-5.25 1.33-12-5.78-10.61-3.17.62-5.86 2.72-7.56-1.46-.64-1.59-.78-3.33-1.43-4.92-1.16-2.83-3-5-6.19-4.89a1.52 1.52 0 00-1.5 1.5c-.16 1.69-1.71 5.23-3.64 5.91-2.27.8-2.92-1.25-3.61-2.82a38.62 38.62 0 00-2.13-4.73c-1.47-2.39-3.64-4-6.33-2.35-1.76 1.07-1.68 3.37-3 4.58-3.18 2.86-5.65-2.09-7.76-3.69-2.91-2.2-6.13-1.7-8.69.78-1.84 1.8-2.7 4.35-4.54 6.13-1.49 1.44-3.3 1.85-4.34-.26-.38-.77 0-2.14-.14-3a6 6 0 00-5.63-4.72c-3.72-.33-6.5 2.08-8.09 5.28-2.14 4.33-.69 10.62-5.4 13.07-1.72.89-.2 3.48 1.51 2.59 3.82-2 4.55-4.13 5-8.17.29-2.64 1.95-11.26 6.42-9.83 4.07 1.31 2.71 4.58 3.59 7.47s3.23 3 5.74 2a11.49 11.49 0 004.58-3.63c1-1.23 1.76-3.3 2.91-4.29 4.36-3.77 5.77-.34 7.76 1.65 2.23 2.25 5.51 4.1 8.34 1.76A11.39 11.39 0 00392.4 91c.85-1.07 1.94-2.9 3.91-1.69 1.39.86 2 4.92 2.9 6.48 4.1 7.45 11.54-.7 12.07-6.35l-1.5 1.5c4.51-.08 4.24 10.13 8 12.29a5.44 5.44 0 004.45.29c1.05-.27 1.8-1 2.93-1.12 4.47-.65 5.38 2.67 3 5.9a1.51 1.51 0 00.54 2 4.62 4.62 0 003.52.84c2-.27 3.43-2.3 5.25-2.63 5.7-1 1.69 3 1 4.78a5 5 0 00-.52 3.53c.84 2.46 3.25 2.28 5.34 1.67 2.8-.83 4.46-.86 4.48 2.59 0 1.66-.31 3.44.14 5.08a4.24 4.24 0 004.24 3.46c.57 0 1-.36 1.62-.26l1.29-.31q2.6 1.83.87 4.11c-1.24 2.6-4.57 3.33-6.35 5.41a4.13 4.13 0 00.4 6.1c3.29 3 11.23.68 10.57 6.88-.34 3.2-1.83 4.39.06 7.47.42.68 3.73 3.87.91 4.65-.28.08-1.76-1.37-1.91-1.5-1.1-.93-2.17-2.4-3.5-3a5.64 5.64 0 00-6.62 1.65c-2.17 2.7-1.11 6.18.72 8.72 1.47 2 6.21 5 5.76 7.86-.51 3.28-4.25 2.15-6.2 3-2.44 1.08-3.22 3.9-2.8 6.37.33 1.91 1.55 3.35 2.43 5 1.11 2.09 3.69 6-1.73 6.05a10.6 10.6 0 01-2.29-.87c-2.82-.83-5.76-.66-7.14 2.32-1.47 3.15.17 6.66 2.27 9 1.72 1.93 6.26 4.64 5.19 7.72-1.19 3.4-3.53.35-5.18-.73-2.3-1.52-5.05-1.65-6.6 1-.87 1.5-.61 3.45-.47 5.06.35 4.12.46 7.07-2.15 10.58l2.05-.53c-4.61-2.7-12.65-5.88-16 .55a7.57 7.57 0 00-.7 3.14c0 .66.35 2.12.12 2.63-1.32 2.87-3.19.89-4.42-.6-1.56-1.9-2.76-3.94-5.44-4.18-2.4-.22-4.21 1.21-6 2.62-5 3.92-7.88 2.25-12.94-.27-5.42-2.71-10.09-2.22-13.61 3-1 1.45-1.65 3.09-2.62 4.54-.65 1-2.08 3-3.19 3.2l-2.4-.73q-3 .27-2.58-2.34c-.53-2.69.82-5.52 0-8.25-1.59-5.43-7.51-4.68-11-1.42-1.44 1.35-2.34 3.32-3.89 4.56-4.42 3.52-5-1.64-4.3-5.11.34-1.78.63-4.25-.75-5.69-1.18-1.23-2.63-1.06-4.06-.33-1.85.95-1.72 2.61-3.65.72-1.74-1.71-.39-3.73-.09-6s1-6.58-1.58-8c-2.2-1.18-4.4.54-5.52 2.44-.78 1.31-.76 4.28-2.6 3.83-2.7-.64-.72-5.18-.11-7 1.07-3.21 1.51-6.43-1.38-8.78a1.53 1.53 0 00-2.12 0c-1.82 2.2-4.36.91-5.42-1.21a6.84 6.84 0 010-4.49c.53-1.94 1.68-3.66 2.14-5.63a12.15 12.15 0 00-.85-7.88 8.63 8.63 0 00-5.84-4.63c-.72-.21-3.23-.27-3.8-.91-1.42-1.62.54-3.33 1.58-4a45.86 45.86 0 004.24-2.82c3.43-2.92 5.28-7.31.39-9.74-2.16-1.07-8.16-1.3-4.46-4 1.83-1.33 4.28-1.72 5.46-3.87a5 5 0 00-.27-5.09 11.28 11.28 0 00-2.6-2.74c-2-1.68-4.44-4.66-1.2-6.27 1.74-.87 3.55-.28 4.8-2.15 1.68-2.53-1-4.52-.38-6.72.56-1.91 3.71.51 5.54-.57 1.56-.92 1.89-3.22 2-4.84S320 112 322.3 111.6c1.08-.17 3.88 4.29 5.31 4.88 4.95 2 7.23-1.57 6.94-6-.08-1.3-1.09-5.56-.24-6.69.43-.57 3.87-.22 4.07-.1.43.24.88 1.3 1.31 1.69 2 1.82 4.44 1.76 6.79.74 1.77-.77.24-3.36-1.51-2.59z" fill="#145141"/><path d="M339.88 160.17a13 13 0 00-2.49-5.09c-1.3-1.4-3.51-2.14-5.16-1.19a5.41 5.41 0 00-1.79 1.92c-.93 1.48-1.61 3.49-.57 4.9 1.22 1.66 4 1.34 5.35 2.88a.7.7 0 01.21.44.75.75 0 01-.23.49c-1.51 1.9-3.35 3.58-4.37 5.79a2.2 2.2 0 00-.26 1.12 2.25 2.25 0 00.63 1.22 12.69 12.69 0 003.77 3 1.83 1.83 0 003-.65 33.38 33.38 0 002.75-6 1.49 1.49 0 01.54-.84 1.36 1.36 0 01.8-.08l7.74.74a1.34 1.34 0 00.82-.08 1.23 1.23 0 00.54-.88c.53-2.17-.35-4.41-1.2-6.47a4.08 4.08 0 00-.95-1.56 3.68 3.68 0 00-2.75-.57 21.84 21.84 0 00-6 1.37" fill="#fff"/><path d="M333.66 158a4.16 4.16 0 012.93 3.25M339 164.87a2.44 2.44 0 00-1.1.92 11.5 11.5 0 00-2.06 4.37M342.24 163.69a6.85 6.85 0 014.72.76" fill="none" stroke="#966431" stroke-linecap="round" stroke-linejoin="round" stroke-width="1.5"/><path d="M353.91 121.75a13 13 0 00-5.07-2.54c-1.88-.31-4.09.44-4.83 2.2a5.43 5.43 0 00-.25 2.6c.16 1.75.83 3.76 2.51 4.25 2 .57 4-1.35 6-1a.69.69 0 01.43.22.79.79 0 01.12.53c-.05 2.42-.49 4.88 0 7.25a1.83 1.83 0 001.72 1.64 12.67 12.67 0 004.83.12 2.38 2.38 0 001.92-1.15 2.43 2.43 0 00.05-1.17 33.71 33.71 0 00-1.34-6.4 1.37 1.37 0 01-.08-1 1.31 1.31 0 01.59-.55l6.6-4.1a1.38 1.38 0 00.6-.57 1.27 1.27 0 00-.1-1c-.91-2-3-3.3-4.89-4.42A4 4 0 00361 116a3.7 3.7 0 00-2.53 1.22 22 22 0 00-4 4.74" fill="#fff"/><path d="M347.63 123.79a4.15 4.15 0 014.31.8M356 126.05a2.46 2.46 0 00-.31 1.39 11.33 11.33 0 001 4.73M357.92 123.11a6.86 6.86 0 014.21-2.26" fill="none" stroke="#966431" stroke-linecap="round" stroke-linejoin="round" stroke-width="1.5"/><path d="M406.22 117.09a12.83 12.83 0 002.5-5.09c.3-1.88-.47-4.08-2.23-4.81a5.61 5.61 0 00-2.61-.23c-1.74.17-3.74.86-4.22 2.55-.56 2 1.38 4 1 6a.68.68 0 01-.21.44.82.82 0 01-.53.12c-2.43 0-4.89-.45-7.25.1a2.2 2.2 0 00-1.05.48 2.34 2.34 0 00-.58 1.25 12.46 12.46 0 00-.08 4.83 2.36 2.36 0 001.16 1.91 2.32 2.32 0 001.17 0 33 33 0 006.43-1.49 1.43 1.43 0 011-.09 1.37 1.37 0 01.55.59l4.16 6.57a1.54 1.54 0 00.56.6 1.29 1.29 0 001-.12c2-.91 3.27-3 4.38-4.92a4.12 4.12 0 00.65-1.7 3.7 3.7 0 00-1.24-2.52 21.87 21.87 0 00-4.77-3.92" fill="#fff"/><path d="M404.14 110.83a4.15 4.15 0 01-.77 4.31M401.94 119.24a2.47 2.47 0 00-1.4-.31 11.52 11.52 0 00-4.72 1M404.89 121.11a6.94 6.94 0 012.3 4.19" fill="none" stroke="#966431" stroke-linecap="round" stroke-linejoin="round" stroke-width="1.5"/><path d="M393.15 210.58a12.85 12.85 0 002.61 5c1.33 1.36 3.56 2 5.19 1.06a5.46 5.46 0 001.73-2c.9-1.5 1.54-3.53.47-4.91-1.26-1.63-4-1.25-5.42-2.76a.73.73 0 01-.23-.43.79.79 0 01.22-.49c1.46-1.94 3.27-3.67 4.23-5.89a2.28 2.28 0 00.24-1.14 2.35 2.35 0 00-.66-1.2 12.57 12.57 0 00-3.85-2.94 2.28 2.28 0 00-2.22-.19 2.34 2.34 0 00-.73.91 33.12 33.12 0 00-2.62 6 1.38 1.38 0 01-.52.85 1.32 1.32 0 01-.79.1l-7.76-.56a1.43 1.43 0 00-.82.1 1.23 1.23 0 00-.51.89c-.48 2.19.45 4.4 1.35 6.45a4 4 0 001 1.53 3.65 3.65 0 002.76.5 21.35 21.35 0 006-1.51" fill="#fff"/><path d="M399.42 212.63a4.16 4.16 0 01-3-3.18M394 205.86a2.45 2.45 0 001.08-.94 11.43 11.43 0 002-4.42M390.7 207.12a6.87 6.87 0 01-4.73-.64" fill="none" stroke="#966431" stroke-linecap="round" stroke-linejoin="round" stroke-width="1.5"/><path d="M401.13 141.76a12.83 12.83 0 00-3.81-4.2c-1.64-1-4-1.07-5.29.3a5.52 5.52 0 00-1.18 2.34c-.48 1.68-.58 3.8.81 4.86 1.63 1.26 4.2.19 5.94 1.28a.72.72 0 01.33.36.79.79 0 01-.08.54c-.92 2.24-2.23 4.37-2.59 6.77a2.17 2.17 0 00.06 1.16 2.27 2.27 0 00.95 1 12.52 12.52 0 004.46 1.86 2.29 2.29 0 002.2-.38 2.37 2.37 0 00.48-1.07 33.36 33.36 0 001-6.51 1.39 1.39 0 01.29-1 1.36 1.36 0 01.74-.3l7.64-1.44a1.46 1.46 0 00.77-.3 1.29 1.29 0 00.27-1c-.1-2.23-1.56-4.14-3-5.88a3.93 3.93 0 00-1.32-1.15 3.62 3.62 0 00-2.8.22 22 22 0 00-5.41 3" fill="#fff"/><path d="M394.54 141.39a4.16 4.16 0 013.73 2.3M401.55 146.53a2.41 2.41 0 00-.8 1.19 11.27 11.27 0 00-.77 4.77M404.38 144.48a6.89 6.89 0 014.74-.59" fill="none" stroke="#966431" stroke-linecap="round" stroke-linejoin="round" stroke-width="1.5"/><path d="M424.67 162.22a12.9 12.9 0 00-.89-5.6c-.85-1.71-2.75-3.06-4.6-2.63a5.4 5.4 0 00-2.26 1.32c-1.33 1.14-2.56 2.86-2 4.52.68 1.94 3.42 2.44 4.28 4.31a.74.74 0 01.08.48.78.78 0 01-.36.4c-2 1.38-4.26 2.46-5.86 4.27a1.79 1.79 0 00-.33 2.35 12.48 12.48 0 002.73 4 2.31 2.31 0 002 .88 2.39 2.39 0 001-.64 34.24 34.24 0 004.38-4.93 1 1 0 011.55-.49l7.18 3a1.55 1.55 0 00.81.16 1.27 1.27 0 00.77-.69c1.14-1.92.95-4.32.73-6.55a4.06 4.06 0 00-.45-1.76 3.71 3.71 0 00-2.47-1.34 21.61 21.61 0 00-6.16-.44" fill="#fff"/><path d="M419.36 158.32a4.16 4.16 0 011.86 4M422.42 166.45a2.36 2.36 0 00-1.31.56 11.37 11.37 0 00-3.25 3.58M425.92 166.27a6.9 6.9 0 014.29 2.1" fill="none" stroke="#966431" stroke-linecap="round" stroke-linejoin="round" stroke-width="1.5"/><path d="M364.17 188.1a12.89 12.89 0 005.37 1.84c1.9.06 4-1 4.48-2.83a5.38 5.38 0 00-.1-2.61c-.39-1.71-1.33-3.61-3.06-3.87-2-.3-3.77 1.87-5.82 1.76a.68.68 0 01-.46-.16.76.76 0 01-.19-.51c-.28-2.41-.17-4.9-1-7.18a2.21 2.21 0 00-.6-1 2.32 2.32 0 00-1.32-.41 12.63 12.63 0 00-4.81.53c-.74.24-1.55.64-1.74 1.4a2.43 2.43 0 00.11 1.16 34.07 34.07 0 002.29 6.19 1.36 1.36 0 01.21 1 1.31 1.31 0 01-.5.62l-6 5a1.43 1.43 0 00-.53.64 1.27 1.27 0 00.25 1c1.17 1.9 3.37 2.87 5.44 3.72a3.94 3.94 0 001.77.42 3.68 3.68 0 002.34-1.54 22.22 22.22 0 003.28-5.23" fill="#fff"/><path d="M370.11 185.24a4.15 4.15 0 01-4.37-.21M361.49 184.13a2.37 2.37 0 00.13-1.42 11.38 11.38 0 00-1.64-4.55M360 187.3a6.93 6.93 0 01-3.86 2.81" fill="none" stroke="#966431" stroke-linecap="round" stroke-linejoin="round" stroke-width="1.5"/><path d="M377.41 159.47a12.85 12.85 0 00-5.57-1c-1.9.22-3.81 1.56-4 3.45a5.45 5.45 0 00.48 2.57c.64 1.63 1.85 3.38 3.6 3.38 2.06 0 3.45-2.4 5.5-2.59a.68.68 0 01.48.09.73.73 0 01.25.47c.64 2.34.89 4.83 2.06 6.95a1.81 1.81 0 002.11 1.1 12.69 12.69 0 004.68-1.23c.7-.34 1.45-.86 1.51-1.64a2.31 2.31 0 00-.27-1.14 33.41 33.41 0 00-3.18-5.77 1.48 1.48 0 01-.35-.94 1.4 1.4 0 01.41-.69l5.2-5.78a1.48 1.48 0 00.42-.71 1.27 1.27 0 00-.39-1c-1.43-1.72-3.75-2.35-5.92-2.88a3.91 3.91 0 00-1.82-.16 3.67 3.67 0 00-2.09 1.87 22.14 22.14 0 00-2.52 5.68" fill="#fff"/><path d="M372 163.17a4.15 4.15 0 014.36-.43M380.65 163a2.34 2.34 0 00.08 1.43 11.37 11.37 0 002.29 4.26M381.65 159.65a6.9 6.9 0 013.41-3.34" fill="none" stroke="#966431" stroke-linecap="round" stroke-linejoin="round" stroke-width="1.5"/><path d="M413.16 196.15a12.93 12.93 0 00-5.08 2.53c-1.38 1.32-2.1 3.53-1.13 5.18a5.36 5.36 0 001.93 1.76c1.49.92 3.5 1.58 4.9.53 1.65-1.23 1.31-4 2.84-5.37a.69.69 0 01.43-.22.76.76 0 01.49.22c1.92 1.49 3.62 3.33 5.83 4.32a2.26 2.26 0 001.13.26 2.43 2.43 0 001.22-.65 12.68 12.68 0 003-3.8 2.32 2.32 0 00.23-2.22 2.48 2.48 0 00-.91-.75 33.45 33.45 0 00-6-2.7 1.41 1.41 0 01-.84-.53 1.45 1.45 0 01-.09-.8l.68-7.74a1.55 1.55 0 00-.09-.83 1.29 1.29 0 00-.89-.53c-2.17-.5-4.41.39-6.46 1.27a3.94 3.94 0 00-1.55 1 3.7 3.7 0 00-.54 2.76 22.15 22.15 0 001.42 6" fill="#fff"/><path d="M411 202.39a4.17 4.17 0 013.23-3M417.86 197a2.45 2.45 0 00.93 1.09 11.35 11.35 0 004.39 2M416.65 193.75a6.91 6.91 0 01.71-4.72" fill="none" stroke="#966431" stroke-linecap="round" stroke-linejoin="round" stroke-width="1.5"/><path d="M349.32 212.39a12.8 12.8 0 00-1.59 5.44c0 1.91 1.16 3.94 3 4.35a5.53 5.53 0 002.61-.21c1.68-.47 3.54-1.49 3.73-3.24.21-2-2-3.67-2-5.73a.77.77 0 01.14-.47.81.81 0 01.5-.21c2.39-.38 4.89-.39 7.12-1.33a2.31 2.31 0 001-.65 2.38 2.38 0 00.35-1.34 12.49 12.49 0 00-.74-4.77c-.27-.74-.71-1.53-1.48-1.68a2.45 2.45 0 00-1.16.15 34.12 34.12 0 00-6.07 2.57 1.42 1.42 0 01-1 .26 1.41 1.41 0 01-.65-.48l-5.21-5.76a1.49 1.49 0 00-.67-.5 1.28 1.28 0 00-1 .29c-1.85 1.25-2.71 3.5-3.47 5.6a4 4 0 00-.35 1.79 3.73 3.73 0 001.65 2.27 21.93 21.93 0 005.37 3" fill="#fff"/><path d="M352.45 218.2a4.14 4.14 0 010-4.38M353.17 209.54a2.4 2.4 0 001.43.06 11.49 11.49 0 004.47-1.84M349.94 208.19a6.84 6.84 0 01-3-3.73" fill="none" stroke="#966431" stroke-linecap="round" stroke-linejoin="round" stroke-width="1.5"/></svg>