<svg xmlns="http://www.w3.org/2000/svg" width="600" height="315.79"><path fill="#bf0a30" d="M0 0h600v315.79H0z"/><path fill="#fff" d="M0 24.29h600v24.29H0zM0 72.87h600v24.29H0zM0 121.46h600v24.29H0zM0 170.04h600v24.29H0zM0 218.62h600v24.29H0zM0 267.21h600v24.29H0z"/><path fill="#002664" d="M0 0h240v170.04H0z"/><path fill="#fff" d="M13.52 18.83l-2.18 6.72 5.71-4.15 5.72 4.15-2.18-6.72 5.71-4.15h-7.06l-2.19-6.72-2.18 6.72H7.8l5.72 4.15zM45.1 18.83l-2.19 6.72 5.72-4.15 5.72 4.15-2.19-6.72 5.72-4.15h-7.07l-2.18-6.72-2.18 6.72h-7.07l5.72 4.15zM76.68 18.83l-2.19 6.72 5.72-4.15 5.72 4.15-2.19-6.72 5.72-4.15h-7.07l-2.18-6.72-2.18 6.72h-7.07l5.72 4.15zM108.26 18.83l-2.19 6.72 5.72-4.15 5.72 4.15-2.19-6.72 5.72-4.15h-7.07l-2.18-6.72-2.18 6.72h-7.07l5.72 4.15zM139.84 18.83l-2.19 6.72 5.72-4.15 5.72 4.15-2.19-6.72 5.72-4.15h-7.07l-2.18-6.72-2.18 6.72h-7.07l5.72 4.15zM171.41 18.83l-2.18 6.72 5.72-4.15 5.71 4.15-2.18-6.72 5.72-4.15h-7.07l-2.18-6.72-2.19 6.72h-7.06l5.71 4.15zM202.99 18.83l-2.18 6.72 5.72-4.15 5.71 4.15-2.18-6.72 5.72-4.15h-7.07l-2.18-6.72-2.19 6.72h-7.06l5.71 4.15zM30.66 37.1h-7.07l5.72 4.15-2.18 6.72 5.71-4.15 5.72 4.15-2.18-6.72 5.71-4.15h-7.06l-2.19-6.72-2.18 6.72zM62.24 37.1h-7.07l5.72 4.15-2.19 6.72 5.72-4.15 5.72 4.15-2.19-6.72 5.72-4.15h-7.06l-2.19-6.72-2.18 6.72zM93.82 37.1h-7.07l5.72 4.15-2.19 6.72L96 43.82l5.72 4.15-2.19-6.72 5.72-4.15h-7.07L96 30.38l-2.18 6.72zM125.39 37.1h-7.06l5.72 4.15-2.19 6.72 5.72-4.15 5.72 4.15-2.19-6.72 5.72-4.15h-7.07l-2.18-6.72-2.19 6.72zM156.97 37.1h-7.06l5.72 4.15-2.19 6.72 5.72-4.15 5.72 4.15-2.19-6.72 5.72-4.15h-7.07l-2.18-6.72-2.19 6.72zM188.55 37.1h-7.06l5.71 4.15-2.18 6.72 5.72-4.15 5.71 4.15-2.18-6.72 5.72-4.15h-7.07l-2.18-6.72-2.19 6.72zM220.13 37.1h-7.07l5.72 4.15-2.18 6.72 5.72-4.15 5.71 4.15-2.18-6.72 5.72-4.15h-7.07l-2.18-6.72-2.19 6.72zM11.34 70.39l5.71-4.15 5.72 4.15-2.18-6.72 5.71-4.15h-7.06l-2.19-6.72-2.18 6.72H7.8l5.72 4.15-2.18 6.72zM50.81 59.52l-2.18-6.72-2.18 6.72h-7.07l5.72 4.15-2.19 6.72 5.72-4.15 5.72 4.15-2.19-6.72 5.72-4.15h-7.07zM82.39 59.52l-2.18-6.72-2.18 6.72h-7.07l5.72 4.15-2.19 6.72 5.72-4.15 5.72 4.15-2.19-6.72 5.72-4.15h-7.07zM113.97 59.52l-2.18-6.72-2.18 6.72h-7.07l5.72 4.15-2.19 6.72 5.72-4.15 5.72 4.15-2.19-6.72 5.72-4.15h-7.07zM145.55 59.52l-2.18-6.72-2.18 6.72h-7.07l5.72 4.15-2.19 6.72 5.72-4.15 5.72 4.15-2.19-6.72 5.72-4.15h-7.07zM177.13 59.52l-2.18-6.72-2.19 6.72h-7.06l5.71 4.15-2.18 6.72 5.72-4.15 5.71 4.15-2.18-6.72 5.72-4.15h-7.07zM208.71 59.52l-2.18-6.72-2.19 6.72h-7.06l5.71 4.15-2.18 6.72 5.72-4.15 5.71 4.15-2.18-6.72 5.72-4.15h-7.07zM35.03 81.94l-2.19-6.72-2.18 6.72h-7.07l5.72 4.15-2.18 6.73 5.71-4.16 5.72 4.16-2.18-6.73 5.71-4.15h-7.06zM66.61 81.94l-2.19-6.72-2.18 6.72h-7.07l5.72 4.15-2.19 6.73 5.72-4.16 5.72 4.16-2.19-6.73 5.72-4.15h-7.06zM98.18 81.94L96 75.22l-2.18 6.72h-7.07l5.72 4.15-2.19 6.73L96 88.66l5.72 4.16-2.19-6.73 5.72-4.15h-7.07zM129.76 81.94l-2.18-6.72-2.19 6.72h-7.06l5.72 4.15-2.19 6.73 5.72-4.16 5.72 4.16-2.19-6.73 5.72-4.15h-7.07zM161.34 81.94l-2.18-6.72-2.19 6.72h-7.06l5.72 4.15-2.19 6.73 5.72-4.16 5.72 4.16-2.19-6.73 5.72-4.15h-7.07zM192.92 81.94l-2.18-6.72-2.19 6.72h-7.06l5.71 4.15-2.18 6.73 5.72-4.16 5.71 4.16-2.18-6.73 5.72-4.15h-7.07zM222.32 75.22l-2.19 6.72h-7.07l5.72 4.15-2.18 6.73 5.72-4.16 5.71 4.16-2.18-6.73 5.72-4.15h-7.07l-2.18-6.72zM11.34 115.24l5.71-4.16 5.72 4.16-2.18-6.72 5.71-4.16h-7.06l-2.19-6.72-2.18 6.72H7.8l5.72 4.16-2.18 6.72zM50.81 104.36l-2.18-6.72-2.18 6.72h-7.07l5.72 4.16-2.19 6.72 5.72-4.16 5.72 4.16-2.19-6.72 5.72-4.16h-7.07zM82.39 104.36l-2.18-6.72-2.18 6.72h-7.07l5.72 4.16-2.19 6.72 5.72-4.16 5.72 4.16-2.19-6.72 5.72-4.16h-7.07zM113.97 104.36l-2.18-6.72-2.18 6.72h-7.07l5.72 4.16-2.19 6.72 5.72-4.16 5.72 4.16-2.19-6.72 5.72-4.16h-7.07zM145.55 104.36l-2.18-6.72-2.18 6.72h-7.07l5.72 4.16-2.19 6.72 5.72-4.16 5.72 4.16-2.19-6.72 5.72-4.16h-7.07zM177.13 104.36l-2.18-6.72-2.19 6.72h-7.06l5.71 4.16-2.18 6.72 5.72-4.16 5.71 4.16-2.18-6.72 5.72-4.16h-7.07zM208.71 104.36l-2.18-6.72-2.19 6.72h-7.06l5.71 4.16-2.18 6.72 5.72-4.16 5.71 4.16-2.18-6.72 5.72-4.16h-7.07zM36.38 130.94l5.71-4.16h-7.06l-2.19-6.72-2.18 6.72h-7.07l5.72 4.16-2.18 6.72 5.71-4.16 5.72 4.16-2.18-6.72zM67.95 130.94l5.72-4.16h-7.06l-2.19-6.72-2.18 6.72h-7.07l5.72 4.16-2.19 6.72 5.72-4.16 5.72 4.16-2.19-6.72zM99.53 130.94l5.72-4.16h-7.07L96 120.06l-2.18 6.72h-7.07l5.72 4.16-2.19 6.72L96 133.5l5.72 4.16-2.19-6.72zM131.11 130.94l5.72-4.16h-7.07l-2.18-6.72-2.19 6.72h-7.06l5.72 4.16-2.19 6.72 5.72-4.16 5.72 4.16-2.19-6.72zM162.69 130.94l5.72-4.16h-7.07l-2.18-6.72-2.19 6.72h-7.06l5.72 4.16-2.19 6.72 5.72-4.16 5.72 4.16-2.19-6.72zM194.27 130.94l5.72-4.16h-7.07l-2.18-6.72-2.19 6.72h-7.06l5.71 4.16-2.18 6.72 5.72-4.16 5.71 4.16-2.18-6.72zM224.5 126.78l-2.18-6.72-2.19 6.72h-7.07l5.72 4.16-2.18 6.72 5.72-4.16 5.71 4.16-2.18-6.72 5.72-4.16h-7.07zM19.24 149.21l-2.19-6.73-2.18 6.73H7.8l5.72 4.15-2.18 6.72 5.71-4.15 5.72 4.15-2.18-6.72 5.71-4.15h-7.06zM50.81 149.21l-2.18-6.73-2.18 6.73h-7.07l5.72 4.15-2.19 6.72 5.72-4.15 5.72 4.15-2.19-6.72 5.72-4.15h-7.07zM82.39 149.21l-2.18-6.73-2.18 6.73h-7.07l5.72 4.15-2.19 6.72 5.72-4.15 5.72 4.15-2.19-6.72 5.72-4.15h-7.07zM113.97 149.21l-2.18-6.73-2.18 6.73h-7.07l5.72 4.15-2.19 6.72 5.72-4.15 5.72 4.15-2.19-6.72 5.72-4.15h-7.07zM145.55 149.21l-2.18-6.73-2.18 6.73h-7.07l5.72 4.15-2.19 6.72 5.72-4.15 5.72 4.15-2.19-6.72 5.72-4.15h-7.07zM177.13 149.21l-2.18-6.73-2.19 6.73h-7.06l5.71 4.15-2.18 6.72 5.72-4.15 5.71 4.15-2.18-6.72 5.72-4.15h-7.07zM208.71 149.21l-2.18-6.73-2.19 6.73h-7.06l5.71 4.15-2.18 6.72 5.72-4.15 5.71 4.15-2.18-6.72 5.72-4.15h-7.07z"/></svg>