<svg xmlns="http://www.w3.org/2000/svg" width="276" height="300" viewBox="0 0 276 300"><path d="M64.6 171.33c11.22 1.34 26.44-3 36.33-4.54 10.95-1.86 29.9-3.48 35.51-3.48s5.07-1.35 6.41-2.66a4.42 4.42 0 014.8-.54c2.4 1.07 6.13.79 11.47-1.35 5.07-2.4 9.62-3.2 13.63-1.57s47 1.57 55 .51a23 23 0 014.28-.25L10.92 136.88A134.92 134.92 0 0032 173.47c9.35 1.06 22.44-3.45 32.57-2.14zM6.12 120.6a55.22 55.22 0 002.41 8.8l247.28 23a142.84 142.84 0 0010.68-27.5" fill="none" stroke="#000" stroke-linecap="round" stroke-linejoin="round" stroke-width="2"/><path d="M212.55 148.34l-136.73-12.8-6.13-.54-61.16-5.6c.79 2.39 1.59 4.79 2.4 7.48l221.12 20.54a120.2 120.2 0 0120 1.08c1.33-2.14 2.4-4 3.73-6.14zM112.41 172.13c6.14-2.94 13.88-5.08 21.62-4.28 7.73 1.08 12-.52 13.9-1.86a10 10 0 018.52-2.17 21.76 21.76 0 0010.68-1.31 16.38 16.38 0 018.55-1.33c8.28 1.86 45.13-.28 52.08-3.48-8 1.06-51 1.06-55-.51s-8.56-.83-13.63 1.57c-5.34 2.14-9.07 2.42-11.47 1.35a4.48 4.48 0 00-4.8.51c-1.34 1.34-.81 2.69-6.41 2.69s-24.56 1.62-35.51 3.48c4.26 4.51 9.6 3.99 11.47 5.34zM2.64 90.14v7.74l.81 7.75 1 7.46 1.61 7.48 8.27 1.06 11 1.07 28.3 1.86 33.64 1.61 35.53 1 34.2 1.14 29.37.51h21.37l9.88-.26 2.4-.25 2.41.25 4.26.81 3.48.25 3.46-.25 3.47-.55 3.73-1.06 4.81-.79 7.21-1.07 13.61-1.07 2.14-8.53 1.34-8.54.78-8.85.27-8.77H2.64z" fill="none" stroke="#000" stroke-linecap="round" stroke-linejoin="round" stroke-width="2"/><path d="M232.05 157.42l-4.28.28-3.77 1.06-6.15 1.08-15.48 1.31-16 .78-6.4-.23-4.28-.55h-4l-4.54 1.34-4.79 1.07-2.67.26h-3.2l-2.94-.26-2.14.54-1.87.8L148 166l-1.91 1-2.94.78-3.73.28-5.34-.28h-5.6l-5.87.79-5.36 1.43-4.79 2.14-1.87-.8-2.94-.55-3.48-1.34-3.2-2.65-17.61 3.48-9.61 1.06-4.81.25-4.28-.25-4-.28h-4l-8.53 1.08-8.56 1.34-4 .23-3.46-.23 4.53 5.6 5.07 5.34 5.29 5.02 5.62 4.82 5.87 4.54 6.13 4 6.42 4 6.68 3.48 6.65 2.94 7.21 2.67 6.95 2.42 7.48 1.85 7.47 1.61 7.75 1.05 7.72.79 7.75.27 9.08-.27 9.09-1 8.53-1.34 8.56-2.16 8.26-2.39 8.27-3.2 7.74-3.48 7.48-4 7.21-4.54 6.93-4.79 6.68-5.37 6.14-5.61 5.88-6.13 5.34-6.4 5.08-6.95 4.79-7 .28-.78-9.35-.8z" fill="none" stroke="#000" stroke-linecap="round" stroke-linejoin="round" stroke-width="2"/><path d="M64.6 183.07l2.4 1.34 2.69.52 3.18.28h3.2l6.14-.8 3.48-.79 4.31-1.89 2.67-.52 4-.54 4.53-.25 4.28-1.07 3.73-1.62 3.74-3.17 1.33-1.34v-1.06l-.8-.83-1.06-.8-4.27-2.37-2.66-1.62-2.14-2.13-.79-.56h-.81l-2.14.56-1.06.55-1.88-.28-4-.8-4.27-.26h-7.77l-8 .79-2.93.79-2.14 1.07-3.22 2.41-2.93 2.65-.8 1.61-.53 1.62.27 1.86 1.06 2.37 1.59 2.42 1.59 1.86" fill="#fff" stroke="#000" stroke-linecap="round" stroke-linejoin="round" stroke-width="2"/></svg>