<svg xmlns="http://www.w3.org/2000/svg" width="600" height="400" viewBox="0 0 600 400"><path fill="#002a86" d="M0 0h600v400H0z"/><path d="M417.94 247.7c2.7-.35-2.44-6.56-3.75-12.75s-.38-8.73-1.5-12c-4.4-3.58-16.52-2.57-22.51-.75-4.91 3.91-7.07 7-12 8.25-1.38.92-91.21-.23-130.92.38-11.14.17-25.51 18.38-25.51 18.38s.8 2.15 2.25 2.25c63.87 4.54 170.83-.72 193.94-3.76z" fill="#ffea0f" stroke="#002a86" stroke-width="1.85" fill-rule="evenodd"/><path d="M266.79 203.47s-7.46 9.6-9.44 15.85 1.52 9.75 1.52 9.75l64.29.3s.38-3.05-6.09-4.26-19.81-.61-19.81-.61l-.61-3.05 33.21-4.88-11.58-29.25zM351.19 204.39s-5.33 3.35-4.87 12.49c.3 6.1-1.76 8.68 3 11.88s16.15.92 16.15.92a70 70 0 00-7.62-4s-2.59-3.19-.6-8.53S368 204.69 368 204.69z" fill="#ffea0f" stroke="#ffea0f" stroke-width="1.85" fill-rule="evenodd"/><path d="M412.43 205.3c-3-7.24-9.62-12.26-17.06-17.37-4.89-3.35-12-1.14-18-4.26s-8.07-7.77-10.05-10.06c-12.29-14.18-24-27.06-55.15-27.12-44.41-.07-67.64 48.76-67.64 48.76s-4.11 9.11-18.28 12.49c-14.71 3.5-29.77 1.73-36.87 6.4-2.52 1.65-10.51 9.21-9.45 16.75 1.38 9.71 10.91 23.26 26.15 20.28s28.1-22 34.18-30.94c2.3-3.37 15.85-.61 15.85-.61s41.59 4.42 73.43 4 53.93-5.79 53.93-5.79l14.93-2.13s17.01-3.16 14.03-10.4z" fill="#ffea0f" stroke="#ffea0f" stroke-width="1.85" fill-rule="evenodd"/><path d="M236 213.83l-22.86 11.28M209.2 223.89l-5.54-6.26M213.16 222.36l-5.18-6.7M212.25 216l3.35 3.36M195.49 223.89l3.66 4.26M189.7 222.36l6.1 8.23M192.45 233l-5.18-7M187 234.86l-2.44-5.79M197.32 246.43l-4.87-5.18M190.62 237.9l14.62-7.61M201.28 244.91L196.1 240M199.45 239.12l5.18 4.88M208 241.56l-4.26-4.27M217.13 234.25l-3.36-4M221.7 232.72l-4.88-4.87M225.66 230.89l-4.88-4.89M263.19 200.23c-6.19 6.41-8 14.2-8.79 20.6M265.74 206c-8.53 4.38-8.42 9.64-11.34 14.58M366.44 208.56c-5.69 4.55-9.28 9.51-8.8 15.28M349.31 204.63c-7.92 7.5-4.5 17.77-5.12 19.61M261.81 184c-10.13 5-10.9 7.37-14.82 10.65M268.29 177.08c-14.88 3.32-15.22 11.73-21.53 17.6M273.84 171.3c-9 1.71-12.87 4.18-17.82 6.48M280.56 165.51a37 37 0 00-16.67 5.79M291.2 160c-11.23.53-16.82 3.31-22 6.25M297.45 155.32c-13.76-.64-18 4.59-22.22 7M361.11 172.92c-2.9-2-6-3-9.49-1.39M384.49 192.13c-.24-3.56-10.22-1.29-2.31 3.93M355.79 165.74q-8.81-3.12-13.89.23M350.93 162.5c-6.59-3.61-11.39-2.77-15.51-.23M341.9 158.33c-3.24-3-10.59-1.91-16.67-2.08M338 152.55q-10.87-2.67-19.9.23M232.18 247.22l6 .23M238 241.44h11.11M241.67 236.11h13.42M286.34 239.58h7.18M279.17 239.81l3.93-.23M308.33 240.05c-1.09-.9-1.81-1.92-6.48-1.62M331.48 237a37.17 37.17 0 0114.35 2.77M378 235.88h6.25M396.76 230.32l13.66.47M408.1 236.57c-4.28-.43-8.2-.39-10.65 1.62M410.42 244a21.09 21.09 0 00-9.73-2.08M314.35 197.45h-4.86M299.54 202.78h6.94M301.16 206.48l4.16-.23M312.73 200.69l-5.09-.23M311.11 205.09l-5.09-.46M309 208.56l-4.86-.46M295.37 210.19h9.26M292.82 213.89l8.11-.23M301.39 216.2l-8.33-.46M291.9 219.44l6.94-.46M394.21 206.71l-12.5-2.54M381.71 218.06c5.25-2.41 9.11-3.68 14.35-7.18l-15.27-1.62" fill="none" stroke="#002a86" stroke-width="1.85"/><path d="M397.92 200.23c0 1.28-1.35 2.32-3 2.32s-3-1-3-2.32 1.35-2.31 3-2.31 3 1.08 3 2.31z" fill="navy" stroke="#002a86" stroke-linecap="round" stroke-linejoin="round" stroke-width=".37"/><path d="M269 252.78a24.7 24.7 0 01-2.31-3.24c-1.51-2.38-3.71-6.25-3.71-6.25l3-.23 4.4 3.47c.24-1.46-.37-3.76-.69-5.79l2.54.46.7 5.56c1.11-1 1.71-2.25 5.78-2.08l-3 3.93-.23 6.95-5.32-.47zM389.12 250.93l-5.79-7.87 3.71.23 1.62 1.62 3-3.71.23 3-1.85 1.16 1.39 6.48zM364.35 251.62l-3.7-6.48 4.16 2.08.93-6.94 1.39 7.17 4.63-2.31-2.08 2.55.69 5.55zM314.12 254.17l-.93-6-4.86-2.55.23-2.54 1.63 2.31 3.93-.46-2.55-3.71 2.78.24 1.16 2.31 2.08-3 1.16 4.63 4.63-2.31-2.55 6.48-.69 5.09z" fill="#002a86" stroke="#002a86" stroke-width="1.85" fill-rule="evenodd"/><path d="M406.94 209.72c0 1.16.7 7.41.7 7.41l-1.62-.46-1.85-7.18z" fill="#ffea0f" stroke="#ffea0f" stroke-width="1.85" fill-rule="evenodd"/></svg>