<svg xmlns="http://www.w3.org/2000/svg" width="600" height="400" viewBox="0 0 600 400"><title>flag-connecticut-thumb</title><path d="M0,0H600V400H0V0Z" fill="#0c2d83"/><polygon points="328.2 316.71 332.76 329.38 350.95 332.52 363.23 310.67 328.2 316.71" fill="#fff"/><path d="M290.21,73.75c1.5,5.89,13.67,5.46,16.34,5.25h0l11.2-3.21-.32.18c3.42,8.78,16.44,13.72,27,13.62,10.36-.11,17.19-3.43,21.35-9.42-3.63-3.85-4.59-5-4.16-11.76A7.9,7.9,0,0,1,369,61.24c4.27-.11,7.89,3.31,11,6.31,4.91,4.71,8.75,10.27,14.09,14.44,4.91,4.07,10.36,4,14.84,7.06,4.8,3.43,10.14,8.88,12.28,14.34,1.81,4.7-1.5,9.73-4.59,9.73-3.53,0-7.26-3.1-6.62-6-6.19-4.6-18.15,5.24-21,15.83-3.85,13.8,2,28.67,9.07,34.67-2.24,5.88-10,10.8-14.09,14.54-1.49,5.46.64,13.06,5.23,16.48,5.45.86,14.52.64,20.39,1.07,2.67,1,2.14,4.6,2.88,7.38,1,3.64,2.78,7.81,2.24,11.77-1.81,12.3-5.65,22.78-17.29,30.81a79.08,79.08,0,0,1-18.15,9.41c-3.09-2.78-5.87-6.84-9.28-8.45-11-.21-24.45,5.46-28.19,13.48-1.81,4,2.89,8.24,8.22,12.62-11.21,8.13-24.44,12.2-36.72,17.76-4.16,1.93-7.9,4.71-14.09,11.88-6.41-7.71-9.71-11-15.69-13.8-10.57-4.82-23.27-7.6-31.28-15.84,4.91-2.89,7.9-5.24,8.65-9.73-6.84-8.67-14.84-17.87-25.41-20.54-3.52,1.39-8,7.59-10.78,12.19-26-5.45-47.19-34.23-33.52-58,3,1.18,7.36,3.32,11,1.39,6.84-4.28,15-9.73,15.48-17.76-.21-7.7-6.08-13.15-13-16.68,4.59-3.32,9.61-15.09,9.93-23.54.32-7.92-4.06-15.19-8.22-21.93-1.93-3.32-6.41-6.31-9.08-7.27-1.17,1.81-5.87,5.88-9.39,6.09s-8.65-2.78-8.65-6.42c0-2.78,1.18-7.16,4.38-9.09,8.75-5.35,19-8.88,27-15.3,4.8-4,7-11,12.06-15.08,1.92-1.5,4.06-3.1,6.08-3.64,5.18,21.7,12.87,24.31,23.67,28,11.85,1.39,27.57-3.59,37.82-15.68Z" fill="#c4c4c4"/><rect x="286.46" y="58.44" width="30.46" height="21.18" fill="#129612"/><path d="M272,73.83c0,.46,1.49,1,4.16,1a61.21,61.21,0,0,1,6.66.44c2.08.33,2.66-.24,2-.9C283.84,73.28,272,72.79,272,73.83Z"/><path d="M325.22,73.83,322.56,75l6.09.33c3.26,0,6.39-.49,6.39-.82s-1.15-.83-2.45-.83a9.21,9.21,0,0,1-3.45-.64c-.72-.33-2.29,0-3.92.76Z"/><path d="M301.21,49.19a28.28,28.28,0,0,1-2.61,3.4,5.28,5.28,0,0,0-1.23,2.61c0,1-.2.92-.72-.59-1.18-3.2-2.09-3.72-4.24-2.61a15.89,15.89,0,0,1-4.11,1.37,6.27,6.27,0,0,0-3,1.24c-.33.53-2.22,1-4.05,1.18-3.85.33-5.74,1.37-10.7,5.82a7,7,0,0,1-2.87,1.83c-1.24,0-1.17.39.52,2.29.92,1,1.83,1.5,2.55,1.3a1.41,1.41,0,0,1,1.56.33,3.38,3.38,0,0,0,2.16.72c1.43.07,1.3.2-.92.79a13.13,13.13,0,0,0-5.35,3.66c-3,3.2-3.32,4-1.56,4a3.08,3.08,0,0,1,2,.79c.39.39,2.28.78,4.17.85,3,.06,3.46.33,3.65,1.5.27,1.83,1.11,1.83,5.42-.13A22.58,22.58,0,0,0,291.69,72c1.89-2.61,2-4,.2-4-1.24,0-2-3.14-1.18-4.52,1-1.7,4.05-1.7,5.81,0,1.43,1.38,1.69,1.38,4.24.59,2.35-.78,2.87-.78,4.76.26,2.15,1.18,2.22,1.18,3.85-.52,1.83-1.83,4.24-2.22,5.54-.91,1.11,1.11,1,4.38-.19,4.83s-1.24,1.77.06,4.32c1.44,2.74,3.79,4.64,8.55,7s5.28,2.42,6,.59c.39-1.17,1.05-1.44,3.92-1.5,1.82-.07,3.71-.46,4.11-.85a3,3,0,0,1,1.95-.79c1.83,0,1.44-1.11-1.5-4.11a14.52,14.52,0,0,0-5.41-3.53c-2.22-.59-2.35-.72-.92-.79a3.38,3.38,0,0,0,2.16-.72A1.41,1.41,0,0,1,335.2,67c.72.2,1.63-.26,2.55-1.3,1.69-1.9,1.76-2.29.52-2.29a7.29,7.29,0,0,1-2.87-1.9c-4.37-4.18-7.31-5.62-12.27-5.88-.45-.07-.91-.72-1.11-1.44-.32-1.18-.71-1.31-2.54-1a30.88,30.88,0,0,1-3.46.52,10.46,10.46,0,0,0-3.59,1.64c-2.28,1.5-3.19,1.17-3.26-1.11,0-.53-1-2.16-2.28-3.53a13,13,0,0,1-2.28-3.14c0-1.31-2-.33-3.4,1.57Zm4.18,2.93a11.9,11.9,0,0,1,2.8,3.54c.92,3,1.88,3.44,5,1.74a12.05,12.05,0,0,1,4.12-1.54,3.93,3.93,0,0,0,2.35-.84c1.3-1.3,1.15-.51.11,2.89-1.5,5,.16,1.42-3.76-.87-.13-.13-1.55,3.2-.9,2.48s1.07-1.71.87-1.9c-.39-.4-6.42,3.42-7.53,4.92-.78,1.05-.59,1.11-2.35.2s-1.81-.87-1.81-6c0-3.07-.61-5.26-1-5.26s-.68,2.43-.68,5.5c0,5-.09,4.89-1.72,5.48-2.28.92-3.12.95-2.73,0s-5-6.55-5.71-5.9a3.27,3.27,0,0,0,.93,2.5,3.74,3.74,0,0,1,1.06,1.7c0,.13-.82,0-2.32.08-2.28.13-2.7.27-3.94-1.17a7,7,0,0,1-1.4-2.14c0-1,2.46-2.3,3.83-2.3.78,0,1.26-.31,1.26-.64s.51-.86,1.1-1.06c1.24-.46,2.57,1.45,2.57,3.15a1.92,1.92,0,0,0,.9,1.53c.78.65,1.42.71,2-.79.32-.92.7-1.93.7-2.06a9.12,9.12,0,0,1,1.75-2.22A8,8,0,0,0,303,50.46c0-1,.13-.63,2.42,1.66ZM284.9,58.38c0,1.76-1.95,2.91-4.95,2.91-2.22,0-5.35,1.43-5.35,2.35,0,.32.57.57,1.23.31a17.32,17.32,0,0,1,2.93-.77c1.57-.26,1.66-.28,1.66,1.16a8.56,8.56,0,0,1-.45,2.52c-.46,1.11-2.68,1.31-2.68.26,0-.39-.88-.6-2-.6s-1.74-.33-1.74-.72-.79-.56-1.7-.3c-2.28.59-2.22-.41-.39-2.24,3.32-3.27,6.17-5,9.11-5.54,4.63-.79,4.32-1,4.32.66Zm41.57,0c3.26.52,10.14,5.29,9.3,6.66-.27.33-.53.39-1.44.2s-1.62,0-1.62.46-.69.72-1.79.72-2.26,0-2.26.38c0,1.31-1.86,1.06-2.25-.44s1.67-2.36,3-2.71c2.15.13,4.15-.38,4.15-.65,0-.78-2-1.24-5.28-1.24a10.3,10.3,0,0,1-4.89-1,9.28,9.28,0,0,1-1.57-1c-.07,0-.22-.5,0-1.29.26-1,.29-1.32,1.34-1.12.71.2,2.43.67,3.6.87ZM288,62.2c2.08,2,1.57,3-1.69,3l-3,.3,2.53,1c1.44.4,3.54.86,4.59,1.71l1.82,1.5-2.09,1.11c-2.54,1.24-2.83.79-5.7-.26-1.3-.45-2.09-.74-1.89-1.27a1,1,0,0,0-.25-1.16c-1.11-.72-.23-3.59,1.72-5.35a12.24,12.24,0,0,1,2.25-1.78A3.76,3.76,0,0,1,288,62.2Zm34.25.85c1.5,1.37,2.09,3.29,1.77,6.17-.13,1.17-2.66,2.45-4.94,2.45-1.89,0-4.47-1.82-3.81-2.87.19-.39,2-1.17,3.72-2.28,2-1.31,2.64-2.67,1.85-2.67a4.38,4.38,0,0,0-2.57,1.06c-1.7,1.5-1.17.48.59-1.55s1.37-2.14,3.39-.31Zm-41.6,8.81c.39.59,2.45,1.41,4.61,1.61,3.52.39,3.65,0,2.61,1.15-.66.72-3,1.84-5.12,2.88-3.59,1.83-3.76,2-4,1-.32-1.7-1.42-2.15-3.83-1.76-2.09.39-6.29-.67-6.29-1.58s3.45-4.06,4.75-4.38c2.09-.66,6.51.06,7.3,1.1ZM335.63,73c1,1.17,1.93,1.94,1.93,2.2,0,1-3.67,1.85-6.15,1.46s-3.74.17-3.8,1.87c0,.33-.35.47-1.07.4a23.65,23.65,0,0,1-8.05-4.52c-.92-1-1.11-.59,2.35-.91,2.09-.2,4-.79,4.22-1.18.78-1.24,3.36-1.84,6.1-1.52A6,6,0,0,1,335.63,73Z"/><path d="M302.74,50.33a16.1,16.1,0,0,1-2,2.55,9.32,9.32,0,0,0-2.27,3.46c-.63,1.93-1,2.43-1.58,2.1a5.38,5.38,0,0,1-1.49-2.86c-.52-2.1-2.27-2.89-3.5-1.55a2.93,2.93,0,0,1-1.58.88A5.86,5.86,0,0,0,287,56.67a4.26,4.26,0,0,0-.61.91,8.46,8.46,0,0,0,1.06,1.53c1.49,1.91,2.06,2.17,4.73,2a7.7,7.7,0,0,0,2.39-.26c.09-.1-.05-.48-.33-.84-1.21-1.48-1.94-2.77-1.7-3,.44-.46,4.25,3.07,5.15,4.79a2.48,2.48,0,0,1,.28,1c0,.41.14.5.71.5,1.06,0,3.29-.93,3.59-1.5a25.67,25.67,0,0,0,.45-4.94c.17-4.31.29-5.25.71-5.25s.45,1.22.66,5.75a39.37,39.37,0,0,0,.38,4.51,6.38,6.38,0,0,0,2.91,1.67c.38,0,1.11-.5,2.15-1.5a34.61,34.61,0,0,1,3.57-2.86c2.79-1.89,3.21-1.84,1.77.21a6.25,6.25,0,0,0-.83,1.43c0,.39,2.25,1.36,3.1,1.36a1.62,1.62,0,0,0,1.3-.62,22,22,0,0,0,2.15-6.27c.17-1.19-.07-1.31-1.09-.57a7.08,7.08,0,0,1-2.24.83,25.52,25.52,0,0,0-4,1.43c-3.43,1.53-3.92,1.46-4.75-.74a13.88,13.88,0,0,0-1-2.12c-.66-1.07-3.92-4.41-4.3-4.41-.14,0-.35.26-.47.57Z" fill="#129612"/><path d="M280.66,57.53c-2.81.55-5.48,2.06-8.41,4.7-1.66,1.51-2.46,2.65-2.27,3.18.12.33.38.38,1.63.23s1.49-.09,1.82.34.8.57,1.89.71,1.66.36,1.94.72a1.81,1.81,0,0,0,2.17.24c.67-.24,1.09-1.41,1.09-3,0-1.93-.42-2.1-3.19-1.24a7.36,7.36,0,0,1-2.15.4c-.54-.07-.57-.09-.21-.59.52-.74,2.62-1.46,5.1-1.74,3.59-.41,4.94-1.29,4.94-3.22V57.15l-1.35,0a17.75,17.75,0,0,0-3,.35Z" fill="#129612"/><path d="M321.93,57.44a3.33,3.33,0,0,0-.4.9c-.07.34-.21.77-.26,1-.14.5,1.8,1.79,3.36,2.27a29.69,29.69,0,0,0,4.23.55c3,.21,4.49.57,4.49,1.1a12.3,12.3,0,0,1-3.52.31,13.94,13.94,0,0,0-3.88.33c-.24.21-.28.57-.19,1.31.19,1.48.73,2.36,1.58,2.67s.81.36,1.47-.35a3.09,3.09,0,0,1,2.08-.82c1-.14,1.61-.35,1.82-.64s.64-.43,1.89-.43c1.42,0,1.58-.05,1.66-.5.14-1.07-3.36-4.27-6.67-6.08-2.51-1.36-7.07-2.32-7.66-1.6Z" fill="#129612"/><path d="M285,61.8a8.36,8.36,0,0,0-3.26,4.85,1.87,1.87,0,0,0,.09,1.5,3.63,3.63,0,0,1,.34,1.22c0,.78.8,1.45,2.43,2a6.86,6.86,0,0,0,5.81-.5l2-.93-1-.93a14.91,14.91,0,0,0-5.67-2.89l-1.94-.55,2.17-.12c2.34-.14,3.34-.57,3.34-1.43,0-.57-2.34-3-2.86-3A4.52,4.52,0,0,0,285,61.8Z" fill="#129612"/><path d="M318.93,62.93c-1.13,1.26-1.89,2.52-1.68,2.74.07.07.64-.22,1.25-.62,1.16-.79,2.13-1.15,2.37-.88s-.64,1-2.53,2.41c-3.07,2.21-3.33,2.6-2.51,3.67A6,6,0,0,0,319,71.94a8.27,8.27,0,0,0,4.45-1.55c.87-.76.87-.76.85-2.65a6.31,6.31,0,0,0-2.22-5.2c-1.37-1.17-1.85-1.12-3.17.39Z" fill="#129612"/><path d="M273.31,70.51c-1.3.41-5.22,4.2-5,4.87.12.4,1.58,1.07,3,1.33a27.69,27.69,0,0,0,3.66.24c2.72,0,3.26.22,3.69,1.55.21.65.4.84.85.84.69,0,6.19-2.82,7.59-3.89.94-.74,1.61-1.55,1.42-1.74a22.19,22.19,0,0,0-2.56-.45c-2.95-.46-3.87-.72-4.84-1.44a7.63,7.63,0,0,0-1.94-.93,16.59,16.59,0,0,0-5.84-.38Zm7.47,3.2c2.67.33,4.23.83,4.23,1.38,0,.17-.33.22-1,.1s-3.24-.26-6-.41a42.43,42.43,0,0,1-5.53-.5c-.62-.21-.47-.55.33-.74a40,40,0,0,1,7.94.17Z" fill="#129612"/><path d="M328.5,70.42a7.05,7.05,0,0,0-3.21,1.33c-.62.67-1.18.86-3.85,1.27-3.64.57-3.81.59-3.81.81,0,.78,4.56,3.81,7.4,4.94,1.89.76,2.53.69,2.86-.31.45-1.32.61-1.39,4.25-1.53,2.93-.1,3.5-.19,4.52-.72a4,4,0,0,0,1.23-.81c.11-.38-2.39-3.31-3.27-3.84a11.75,11.75,0,0,0-1.56-.76A15.42,15.42,0,0,0,328.5,70.42Zm.59,3a23.84,23.84,0,0,0,3.17.55c2.29.26,3,.66,1.66,1-.41.07-3.05.14-5.87.12L323,75l1.3-.6a14.24,14.24,0,0,1,3.54-1.24,5.23,5.23,0,0,1,1.3.24Z" fill="#129612"/><path d="M257.57,266.84h0c9.44,11.46,35.1,12.46,42.32,26,11-14.58,34.54-16.36,48.31-27.6h0" fill="none" stroke="#d2d2d2" stroke-width="2.66"/><path d="M246.77,130.77c-1.61.65-3.85,1.07-4.27,2.79.1.64,1.28.74,2.24.53-.11-1.18.21-1.6,1.7-1.28-.21-.65.22-1.29.33-2Z" fill="#b68c5b" stroke="#000" stroke-width="0.32"/><path d="M356.61,130.77c1.6.65,3.84,1.07,4.27,2.79-.1.64-1.28.74-2.24.53.11-1.18-.21-1.6-1.71-1.28.22-.65-.21-1.29-.32-2Z" fill="#b68c5b" stroke="#000" stroke-width="0.32"/><path d="M310.18,186.4c1.38.43,3.52,1,3.84,2.46,0,.65-1.07.65-2,.54.11-1.07-.21-1.5-1.6-1.29.21-.53-.21-1.17-.21-1.71Z" fill="#b68c5b" stroke="#000" stroke-width="0.32"/><path d="M312.84,72.47c1.18,0,2.25.21,3.42.32,7.26,21,42.17,21,49.43,7.38-3.74-3.42-4.49-6-4.06-10.59.32-2.67,1-8,8-8.34,2.66-.11,4.37,1.71,4.59,9.41.53,12.52-15.06,25.36-29.79,24.5-10.25-.64-32.24-7.17-31.6-22.68Z" fill="#c4c4c4"/><path d="M268.54,164.15a10.86,10.86,0,0,0-1.49-4c0,.22-.86.43-.86.22a12.05,12.05,0,0,1,1.39,3.53,4.73,4.73,0,0,0,.86.32h0l.1-.11Zm1.07-37.44a10.86,10.86,0,0,0-1.49-4c0,.21-.86.43-.86.21a12.16,12.16,0,0,1,1.39,3.53,4.37,4.37,0,0,0,.85.33h0l.11-.11Zm-27.86,10.91a10.86,10.86,0,0,1,1.49-4c0,.22.86.43.86.22a12.05,12.05,0,0,0-1.39,3.53,4.73,4.73,0,0,1-.86.32h0l-.1-.11Z" fill="lime" stroke="#000" stroke-width="0.32"/><path d="M267.9,162.23a3.69,3.69,0,0,1,1.28.42c.86.86,2.56,2.68,2.56,3.85,0-.85,1-3.2.11-3.95-.53-.75-3.31-.86-4-.32Zm0,.42c-.53,0-1.07.65-1.39,1.18-.53,1.39-1.49,4.17-1,5.56-.42-1.17-2.56-3.21-2.13-4.6.43-1.07,3.41-2.56,4.48-2.14Zm-.32-1a2.27,2.27,0,0,0-1.17,1.28c-.54,1.29-1.71,4.07-1,5.57-.54-1.18-2.57-3.21-2.25-4.71.33-1.18,3.53-2.57,4.38-2.14ZM269,124.78a3.49,3.49,0,0,1,1.28.43c.85.86,2.56,2.68,2.56,3.85,0-.85,1-3.21.11-4-.53-.74-3.31-.85-3.95-.32Zm0,.43c-.53,0-1.07.64-1.39,1.18-.53,1.39-1.49,4.17-1,5.56-.43-1.18-2.56-3.21-2.13-4.6.42-1.07,3.41-2.57,4.48-2.14Zm-.32-1a2.32,2.32,0,0,0-1.18,1.28c-.53,1.29-1.7,4.07-1,5.56-.53-1.17-2.56-3.2-2.24-4.7.32-1.18,3.53-2.57,4.38-2.14ZM242.39,135.7a3.69,3.69,0,0,0-1.28.42c-.86.86-2.56,2.68-2.56,3.85,0-.85-1-3.21-.11-3.95.53-.75,3.31-.86,3.95-.32Zm0,.42c.53,0,1.07.64,1.39,1.18.53,1.39,1.49,4.17,1,5.56.42-1.17,2.56-3.21,2.13-4.6-.43-1.07-3.41-2.56-4.48-2.14Zm.32-1a2.27,2.27,0,0,1,1.17,1.28c.54,1.29,1.71,4.07,1,5.57.54-1.18,2.57-3.21,2.25-4.71-.32-1.18-3.53-2.57-4.38-2.14Z" fill="#7eff00" stroke="#000" stroke-width="0.32"/><path d="M267.58,161.8a2.59,2.59,0,0,0-1.39.85c-.64.86-1.81,3-1.06,3.85-.54-.85-3-2.24-2.57-3.2.43-.75,3.95-1.82,5-1.5Zm-.11.1a2.22,2.22,0,0,1,1.39,1.4c.54,1.17,1.6,4.06,1,5.45.54-1.07,2.57-3.1,2.25-4.6-.43-1.07-3.53-2.67-4.6-2.25Zm1.18-37.54a2.55,2.55,0,0,0-1.39.85c-.64.86-1.81,3-1.07,3.85-.53-.85-3-2.24-2.56-3.21.43-.75,3.95-1.82,5-1.49Zm-.11.1a2.23,2.23,0,0,1,1.39,1.39c.53,1.18,1.6,4.07,1,5.46.53-1.07,2.56-3.1,2.24-4.6-.42-1.07-3.52-2.68-4.59-2.25Zm-25.83,10.81a2.59,2.59,0,0,1,1.39.85c.64.86,1.81,3,1.06,3.85.54-.85,3-2.24,2.57-3.21-.43-.74-3.95-1.81-5-1.49Zm.11.1a2.23,2.23,0,0,0-1.39,1.39c-.54,1.18-1.6,4.07-1,5.46-.54-1.07-2.57-3.1-2.24-4.6.42-1.07,3.52-2.67,4.59-2.25Z" fill="#7eff00" stroke="#000" stroke-width="0.11"/><path d="M335.15,164.15a11,11,0,0,1,1.5-4c0,.22.85.43.85.22a12,12,0,0,0-1.38,3.53,4.73,4.73,0,0,1-.86.32h0l-.1-.11h0Zm-1.06-37.44a10.86,10.86,0,0,1,1.49-4c0,.21.86.43.86.21a12.16,12.16,0,0,0-1.39,3.53,4.19,4.19,0,0,1-.86.33h0l-.1-.11ZM362,137.62a10.69,10.69,0,0,0-1.5-4c0,.22-.85.43-.85.22a12.05,12.05,0,0,1,1.39,3.53,5,5,0,0,0,.85.32h0l.11-.11Z" fill="lime" stroke="#000" stroke-width="0.32"/><path d="M335.8,162.23a3.83,3.83,0,0,0-1.29.42c-.85.86-2.56,2.68-2.56,3.85,0-.85-1-3.2-.1-3.95.53-.75,3.3-.86,3.95-.32Zm0,.42c.53,0,1.06.65,1.38,1.18.54,1.39,1.5,4.17,1,5.56.43-1.17,2.57-3.21,2.14-4.6-.43-1.07-3.42-2.56-4.48-2.14Zm.32-1a2.34,2.34,0,0,1,1.17,1.28c.53,1.29,1.71,4.07,1,5.57.53-1.18,2.56-3.21,2.24-4.71-.32-1.18-3.52-2.57-4.37-2.14Zm-1.39-36.91a3.49,3.49,0,0,0-1.28.43c-.86.86-2.57,2.68-2.57,3.85,0-.85-1-3.21-.1-4,.53-.74,3.31-.85,4-.32Zm0,.43c.53,0,1.07.64,1.39,1.18.53,1.39,1.49,4.17,1,5.56.42-1.18,2.56-3.21,2.13-4.6-.43-1.07-3.41-2.57-4.48-2.14Zm.32-1a2.27,2.27,0,0,1,1.17,1.28c.54,1.29,1.71,4.07,1,5.56.54-1.17,2.57-3.2,2.25-4.7-.33-1.18-3.53-2.57-4.38-2.14Zm26.26,11.45a3.69,3.69,0,0,1,1.28.42c.85.86,2.56,2.68,2.56,3.85,0-.85,1-3.21.11-3.95-.53-.75-3.31-.86-3.95-.32Zm0,.42c-.53,0-1.07.64-1.39,1.18-.53,1.39-1.49,4.17-1,5.56-.43-1.17-2.56-3.21-2.13-4.6.42-1.07,3.41-2.56,4.48-2.14Zm-.32-1a2.32,2.32,0,0,0-1.18,1.28c-.53,1.29-1.7,4.07-1,5.57-.53-1.18-2.56-3.21-2.24-4.71.32-1.18,3.52-2.57,4.38-2.14Z" fill="#7eff00" stroke="#000" stroke-width="0.32"/><path d="M336.12,161.8a2.52,2.52,0,0,1,1.38.85c.64.86,1.82,3,1.07,3.85.53-.85,3-2.24,2.56-3.2-.42-.75-3.95-1.82-5-1.5Zm.1.1a2.27,2.27,0,0,0-1.39,1.4c-.53,1.17-1.6,4.06-1,5.45-.53-1.07-2.56-3.1-2.24-4.6.43-1.07,3.52-2.67,4.59-2.25Zm-1.17-37.54a2.59,2.59,0,0,1,1.39.85c.64.86,1.81,3,1.06,3.85.54-.85,3-2.24,2.57-3.21-.43-.75-3.95-1.82-5-1.49Zm.1.1a2.24,2.24,0,0,0-1.38,1.39c-.54,1.18-1.6,4.07-1,5.46-.54-1.07-2.57-3.1-2.25-4.6.43-1.07,3.53-2.68,4.59-2.25ZM361,135.27a2.51,2.51,0,0,0-1.39.85c-.64.86-1.81,3-1.07,3.85-.53-.85-3-2.24-2.56-3.21.43-.74,3.95-1.81,5-1.49Zm-.11.1a2.23,2.23,0,0,1,1.39,1.39c.53,1.18,1.6,4.07,1,5.46.53-1.07,2.56-3.1,2.24-4.6-.42-1.07-3.52-2.67-4.59-2.25Z" fill="#7eff00" stroke="#000" stroke-width="0.11"/><path d="M288.5,219a11,11,0,0,1,1.5-4c0,.22.85.43.85.22a12,12,0,0,0-1.38,3.53,4.73,4.73,0,0,1-.86.32h0l-.11-.11Zm-1.06-37.44a10.86,10.86,0,0,1,1.49-4c0,.21.86.43.86.21a12.05,12.05,0,0,0-1.39,3.53,4.19,4.19,0,0,1-.86.33h0l-.1-.11ZM315.3,192.5a10.69,10.69,0,0,0-1.5-4c0,.22-.85.43-.85.22a12.05,12.05,0,0,1,1.39,3.53,5,5,0,0,0,.85.32h0l.11-.11Z" fill="lime" stroke="#000" stroke-width="0.32"/><path d="M289.15,217.11a3.83,3.83,0,0,0-1.29.42c-.85.86-2.56,2.68-2.56,3.85,0-.85-1-3.2-.1-3.95.53-.75,3.3-.86,3.95-.32Zm0,.42c.53,0,1.06.65,1.38,1.18.54,1.39,1.5,4.17,1,5.56.43-1.17,2.57-3.21,2.14-4.6-.43-1.07-3.42-2.56-4.48-2.14Zm.32-1a2.34,2.34,0,0,1,1.17,1.28c.53,1.29,1.71,4.07,1,5.57.53-1.18,2.56-3.21,2.24-4.71-.32-1.18-3.52-2.57-4.37-2.14Zm-1.39-36.91a3.49,3.49,0,0,0-1.28.43c-.86.86-2.57,2.68-2.57,3.85,0-.85-1-3.21-.1-4,.53-.74,3.31-.85,3.95-.32Zm0,.43c.53,0,1.07.64,1.39,1.18.53,1.39,1.49,4.17,1,5.56.42-1.18,2.56-3.21,2.13-4.6-.43-1.07-3.41-2.57-4.48-2.14Zm.32-1a2.27,2.27,0,0,1,1.17,1.28c.54,1.29,1.71,4.07,1,5.56.54-1.17,2.57-3.2,2.24-4.7-.32-1.18-3.52-2.57-4.37-2.14Zm26.26,11.44a3.68,3.68,0,0,1,1.28.43c.85.86,2.56,2.68,2.56,3.85,0-.85,1-3.21.11-3.95-.54-.75-3.31-.86-3.95-.33Zm0,.43c-.53,0-1.07.64-1.39,1.18-.53,1.39-1.49,4.17-1,5.56-.43-1.17-2.56-3.21-2.13-4.6.42-1.07,3.41-2.57,4.48-2.14Zm-.32-1a2.32,2.32,0,0,0-1.18,1.28c-.53,1.29-1.7,4.07-1,5.57-.53-1.18-2.56-3.21-2.24-4.71.32-1.18,3.52-2.57,4.38-2.14Z" fill="#7eff00" stroke="#000" stroke-width="0.32"/><path d="M289.47,216.68a2.52,2.52,0,0,1,1.38.85c.64.86,1.82,3,1.07,3.85.53-.85,3-2.24,2.56-3.2-.42-.75-4-1.82-5-1.5Zm.1.1a2.27,2.27,0,0,0-1.39,1.4c-.53,1.17-1.6,4.06-1,5.45-.53-1.07-2.56-3.1-2.24-4.6.43-1.07,3.52-2.67,4.59-2.25Zm-1.17-37.54a2.59,2.59,0,0,1,1.39.85c.64.86,1.81,3,1.06,3.85.54-.85,3-2.24,2.57-3.21-.43-.75-3.95-1.82-5-1.49Zm.1.1a2.24,2.24,0,0,0-1.38,1.39c-.54,1.18-1.6,4.07-1,5.46-.54-1.07-2.57-3.1-2.25-4.6.43-1.07,3.53-2.68,4.59-2.25Zm25.84,10.81A2.51,2.51,0,0,0,313,191c-.64.86-1.81,3-1.07,3.85-.53-.85-3-2.24-2.56-3.21.43-.74,3.95-1.81,5-1.49Zm-.11.1a2.23,2.23,0,0,1,1.39,1.39c.53,1.18,1.6,4.07,1,5.46.53-1.07,2.56-3.1,2.24-4.6-.42-1.07-3.52-2.67-4.59-2.25Z" fill="#7eff00" stroke="#000" stroke-width="0.11"/><path d="M358.32,316.28c-9.83,12-14.74,7.74-25.28,4.57s-21.76-8.44-32-10.9-35.46-4.23-50.91-4.93c-14.3-.66-19.26-6.43-19.65-10.9.1,0,4.54-1.17,13.8-.25s9.83.72,11.7-2.11a13.51,13.51,0,0,0,1.28-2.34,3,3,0,0,0,1.3-2.69c0-3.53-2.46-8.79-27.74-8.79-8.58,0-14.92-.29-19.77-.76l7.49-19.3c2.28-6.33-8.25-7.38-8.25-7.38-9.83,0-17.39.17-22.3-1.06-9.26-2.32-16.5-3.16-30.54-2.46s-25.28.7-44.24-4.93c1.76,7.22,15.81,17.06,15.81,17.06L107,269.32l6.31,1.58c19,5.63,30.2,5.63,44.24,4.93,10.71-.54,17.46-.18,24.17,1.06l-4.89,15.74c8.87,9.21,15,14.05,43,16.73l-5.38,6.81,1.16.23c10.07,13.84,15.68,18.29,39.09,18.77s34.18.23,52.2,8.44,26.28,11.07,40.56,6.85c0,0,.25.75,2.85-5.37,2.91-6.87,3.63-20,6.44-22.36s6.55-8.91,6.55-8.91l-4.91,2.46" fill="#ffd300"/><path d="M422.92,284.5c3,1.4,6.32,2.34,16.15-.48s38.38-7.73,53.36-6.56c-5.85-5.16-21.29-12.9-21.29-12.9l15.68-12.9a35.2,35.2,0,0,1-9.6-1.18c-16.61-4.68-32.53.71-46.58,6.58-2.78,1.15-5.07,2-7,2.69l-3.32-11.61s-5.71-4.17-19.26.37c-12.36,4.16-15.14,10.89-14.44,12.53s6.56,12.67,6.56,12.67l-.14.4a152.48,152.48,0,0,1-20,7.33c-23.18,7-28.32,10.31-48.92,25.34l5.38,12.9,10,4.5a22.75,22.75,0,0,0,5.68.5l1-.6c11.72-8,18.88-11.19,36.7-16.61,23.17-7,34.63-13.84,32.06-20.4l-4-10.79s5.14-3,7.25-2.11l4.68,10.31" fill="#ffd300"/><path d="M183.3,272.83l2.74-9.6c.39-2.36,4.06-3.8,14.35-2.31,7.11,1,12.78,2.18,16-.42l.15-.06c.42-4.58-6-4.14-6-4.14h-.17c-9.83,0-17.39.17-22.3-1.06-9.27-2.31-16.5-3.17-30.54-2.46-12.87.65-23.39.7-39.64-3.63,3.15,3.87,11.2,9.79,11.2,9.79l-15.8,7.56c19,5.63,30.19,5.63,44.24,4.93,11.6-.59,18.55-.1,25.84,1.37" fill="#fff"/><path d="M231.6,293.51a40.39,40.39,0,0,1,11.94.18c8,1.15,10.9.37,11.54-.65l-5.21,12s-20.26.23-19.32-11.25" fill="#fff"/><path d="M362.82,314.41l-4.21,6c-7.7,10.36-17.18,7.2-28,4.65-10.53-3.15-21.77-8.44-31.95-10.9s-35.46-4.22-50.9-4.93-20-7.39-19.67-12a5.72,5.72,0,0,1,.3-1.43l2.6-4.63.39-.51c1.73-2.15,6.2-1.92,13.92-.81,4.91.7,8.25.8,10.36.26l.17-.61c0-3.53-2.1-7.4-27.38-7.4s-31.07-2.46-36.69-4.92c-3.31-1.45-8.08-6.27-7.18-9.41l-5.7,18.55c9.6,10.1,14.22,15.25,43.48,18.07l-4.91,7.28c10.06,13.83,15.68,18.29,39.08,18.76s34.18.23,52.2,8.43,26.89,10.94,41.17,6.72" fill="#fff"/><path d="M186.57,265.94c1.3,2.83,5.11,6,7.62,7.06,3.74,1.64,7.56,3.28,17.16,4.19l0,0,5.49-14.93c-2.27,6.32-9.7,4.66-18.77,3.33" fill="#fff"/><path d="M421.05,279.33c3,1.41,6.32,2.35,16.15-.47s33.12-7.85,48.1-6.68l-14.77-7.1,10.86-8.74c-.66-.12-1.34-.28-2.06-.45-16.62-4.7-32.54.69-46.58,6.56s-15.68,4.69-17.55,2.57l-3.75-7.27s.23-3.28,3-4.45,3.28-1.41,3.28-1.41-3-4.22-14.75,0-12.4,9.62-12.17,10.56a19.11,19.11,0,0,0,4.68-1.17c2.35-.94,8-4.22,9.6-.23s1.64,4.8,1.64,4.8c2.58,6.56-9.12,13-32.3,20s-27.85,9.85-48.45,24.86l3.27,8.92L340,323c14.65-10.41,21.23-13.69,41.22-19.76,23.17-7,34.64-13.84,32.06-20.41l-3.74-10.32s4.22-3.74,6.79-2.81l4.68,9.62" fill="#fff"/><path d="M191,286.36c-1,1.46-1.18,3.44.49,4.52a2.42,2.42,0,0,0,1.13.3l-.24-2.58,1.87,1,.14,1.37a4,4,0,0,0,1.86-1.46c1-1.41,1.09-3.57-.45-4.56s-3.7-.09-4.8,1.41l-1.69-1.23a5.75,5.75,0,0,1,7.67-1.8c2.56,1.63,2.78,4.91,1,7.37a6.85,6.85,0,0,1-3.34,2.48l.17,2.2-1.84-.94-.08-1.12a4.64,4.64,0,0,1-2.59-.8c-2.57-1.63-2.81-4.89-1-7.39l1.69,1.23"/><path d="M205.43,287l2.13.21-1.67,5.6c-.37,1.23-.77,3,1,3.15s2.44-1.55,2.81-2.79l1.67-5.59,2.13.2-1.79,6c-.73,2.44-2.4,4.17-5.33,3.9s-3.49-2.24-2.76-4.68l1.78-6"/><path d="M219.19,298,217,298l2.16-10.05,2.16.05-2.16,10"/><path d="M227.65,318,226,316.8l5-7.22-1.75-1.21,1-1.48,5.19,3.62-1,1.48-1.75-1.23-5,7.23"/><path d="M241.45,316l-1,1.79.26.07c1.11.35,2.05.28,2.65-.86s-.07-1.62-1.14-1.95l-.27-.09-.54,1-2-.57,1.36-2.56,2.72.81c2,.62,3,1.87,1.94,3.88a3.56,3.56,0,0,1-3.49,1.95l.82,4.84-2.44-.73-.49-4.53,0,0-2,3.78-2-.61,3.63-6.81,2,.57"/><path d="M253.9,319.55l-1.23,2.14,2.54.2-.42-3.85h0l-.87,1.51-1.77-.5,2.7-4.08,1.62.13L257.92,326l-2.23-.15-.3-2.25-3.72-.28-1.41,2.11-2.21-.17,4.08-6.17,1.77.5"/><path d="M265.39,315.46l1.52.09,4.09,7.5h0l1.53-6.93,2.1.11-2.32,10.51-1.51-.09-4.08-7.49h0l-1.54,7-2.1-.1,2.32-10.59"/><path d="M285.25,319.45a1.59,1.59,0,0,0-1.37-1,1.54,1.54,0,0,0-1.61,1c-.47,1.73,4,1.44,3,4.88a4.09,4.09,0,0,1-4.46,3.16,3.1,3.1,0,0,1-2.74-2.33l1.69-1.12a1.77,1.77,0,0,0,1.52,1.68,1.75,1.75,0,0,0,1.77-1.34c.29-1.06-.65-1.46-1.39-1.87-1.22-.68-2.05-1.45-1.62-3a3.72,3.72,0,0,1,6.55-1.33l-1.35,1.28"/><path d="M292.8,329l-2-.39,3.13-8.4-2.08-.4.64-1.72,6.18,1.21L298,321l-2.09-.4L292.8,329"/><path d="M302.5,320.6l1.92.75-2.19,5.52c-.48,1.21-1.05,3,.58,3.62s2.42-1,2.9-2.24l2.17-5.52,1.92.76-2.33,5.9c-1,2.4-2.69,3.83-5.32,2.78s-2.94-3.28-2-5.68l2.33-5.9"/><path d="M313.69,334.7l2.7,1.13-.69,1.66-4.61-1.92,4.05-9.79,1.91.79-3.36,8.13"/><path d="M322.49,340.06l-1.94-.7,3.55-10,1.95.68-3.56,10"/><path d="M331.27,342.29l-2.06-.4,2.42-8.34-2.14-.42.5-1.71,6.32,1.25-.49,1.7-2.13-.42-2.42,8.35"/><path d="M339.74,308.5a1.88,1.88,0,0,0-1.81,0,1.27,1.27,0,0,0-.54,1.69c.87,1.54,4.17-1.17,5.91,1.94A3.36,3.36,0,0,1,342,317a3.72,3.72,0,0,1-3.84-.21l.53-1.79a2.16,2.16,0,0,0,2.41.41,1.41,1.41,0,0,0,.44-2c-.53-.95-1.57-.73-2.45-.6-1.45.17-2.66.05-3.46-1.38a3.1,3.1,0,0,1,1.14-4.29,4.33,4.33,0,0,1,3.1-.38l-.15,1.73"/><path d="M343.25,303.86l1.82-1,2.79,5.23c.61,1.14,1.58,2.72,3.13,1.9s.78-2.51.16-3.67l-2.78-5.23,1.82-1,3,5.6c1.22,2.29,1.18,4.54-1.33,5.87s-4.39.13-5.6-2.15l-3-5.6"/><path d="M359.89,298a1.94,1.94,0,0,0-1.8-.12,1.26,1.26,0,0,0-.66,1.64c.75,1.62,4.24-.84,5.74,2.38a3.35,3.35,0,0,1-1.61,4.76,3.77,3.77,0,0,1-3.83-.47l.66-1.76a2.17,2.17,0,0,0,2.38.58,1.4,1.4,0,0,0,.58-2c-.46-1-1.51-.84-2.39-.78-1.47.07-2.66-.15-3.36-1.62a3.1,3.1,0,0,1,1.45-4.2,4.31,4.31,0,0,1,3.12-.15l-.27,1.7"/><path d="M371.23,302.24l-1.92.76-3.23-8.18-2,.78-.66-1.68,5.89-2.33.66,1.68-2,.78,3.22,8.19"/><path d="M378.42,299.64l-1.95.68-3.42-10,2-.67,3.41,10"/><path d="M379,288l1.4-.5,7.71,5.16h0l-2.35-6.74,1.94-.69,3.58,10.22-1.41.48-7.7-5.13h0l2.38,6.81-1.95.68L379,288"/><path d="M287.33,72.58c-1.6,10-18.59,16.19-28.41,16.54-9.77-.7-17.07-5.1-22.94-11.51,2.35-.54,5-5.57,4.7-9.53A8.11,8.11,0,0,0,234.49,61a9.52,9.52,0,0,0-5.77.43C224.13,84.56,247.94,94.62,260,94.29S290,85,289.12,73v-.24Z" fill="#c4c4c4"/><path d="M394.06,284.59l.94,2.15,3-1.33.72,1.65-3,1.32,1.15,2.63,3.12-1.36.72,1.64-5,2.2-4.25-9.71,5-2.21.72,1.64-3.12,1.38"/><path d="M408.49,286.84l-1.79,1-3.28-8.19-1.86,1.05-.87-1.56,5.5-3.13.89,1.57-1.86,1.06,3.27,8.18"/><path d="M348.92,261.17c.06.09-.07.14-.14.22h-.08v-.21h.22"/><path d="M348.78,262.09l-.14-.2c.14-.15.42.13.14.2"/><path d="M117.43,249.13c16.36,4.38,26.9,4.33,39.81,3.67,14-.7,21.28.15,30.55,2.46,4.9,1.23,12.46,1.06,22.28,1.06M113,266.53c19,5.62,30.19,5.62,44.24,4.93,11.69-.6,17.72-.57,25.08.94m27.76-21.88s10.53,1,8.25,7.39-9,4.84-18.08,3.51c-24.05-3.51-11.94,9.15-6.32,11.61S205.34,278,230.62,278s27.74,5.28,27.74,8.79-3.52,4.57-13.35,3.17-14.39-1.4-14.74,3.16,4.21,11.25,19.66,12,40.73,2.46,50.91,4.92,21.41,7.73,31.94,10.9,15.45,7.39,25.28-4.57m-148.39-60s6.75.31,6.74,4.44M230,293.92c2.28-1,6.37-.66,12.52.22,6.59.94,10.34.78,12.1-.49m1.19-3.47c-.2-5.81-4.27-8-27.69-8-25.28,0-31.07-2.44-36.69-4.91-2.8-1.23-6.67-4.89-7.11-7.85m1.89-3.32c2-.94,5.56-1.27,11.54-.44,7.85,1.08,15.44,1.82,18.43-1.93l1.87-5m-39.72,28c9.59,10.08,14.45,14.9,43.71,17.71m-3.75,4.93c-28-2.7-32.94-7.53-41.81-16.75l9.74-30.11m45.18,27.61-16.85,26c10.06,13.84,16.38,18.53,39.79,19s34.17.23,52.19,8.44,26,11,40.26,6.8a19.06,19.06,0,0,0,4.21-8.08c1.41-5.28,9.48-21.46,11.94-27.44l-2.81,4.56c-9.83,12-19.31,8.8-29.84,5.63s-21.77-8.45-31.95-10.9-35.46-4.21-50.91-4.93c-14.8-.66-19.61-6.83-19.68-11.37l-.33-2.11m122.18,49.95c-14.28,4.23-22.24,2.12-40.26-6.09s-28.79-8-52.19-8.45-29.73-5.16-39.79-19M181.33,276.9c-6.68-1.23-13.42-1.59-24.09-1-14.05.7-25.28.7-44.24-4.93l-6.32-1.58,22.12-10.2s-14-9.85-15.8-17.06c19,5.62,30.19,5.62,44.24,4.92s21.28.14,30.55,2.47c4.91,1.22,12.46,1.05,22.29,1.05" fill="none"/><path d="M216.69,263.29,212,276.66m38.15,27.91,7.73-16.41m154-29.56,11,25.8c3,1.4,6.32,2.34,16.15-.48s38.38-7.74,53.36-6.56c-4.44-5.16-21.53-12.44-21.53-12.44l15.92-13.36a35.39,35.39,0,0,1-9.6-1.17c-16.61-4.69-32.53.7-46.58,6.57s-15.68,4.68-17.55,2.57c-4-2.57-.47-5.15,4.21-7.74s3.75-5.16-.7-5.39c-15.45-1.4-25.75,6.8-28.79,10.56s-.93,8,8,4.22c4.85-2.05,7.73-3.29,9.36-.24,2.58,6.57-8.89,13.37-32.07,20.4s-28.31,10.33-48.91,25.34l5.38,12.66m61.09-56.76c-.23-6.09,18.73-15.95,26.91-11.49m-12.17,10.09,9.6,25.79c2.57,6.58-8.89,13.37-32.06,20.41-18,5.45-25.09,8.66-37,16.8m68.67-59.56c1.87,2.11,4.11,3.6,18.16-2.27s30-11.26,46.58-6.56l1.41.4m-59.69,23c3,1.42,6.32,2.35,16.15-.46s33.23-7.5,48.21-6.34M326.23,310.67c20.6-15,25-17.83,48.22-24.87s34.94-14,32.37-20.55M340.07,322.9c14.61-10.4,21.2-13.67,41.17-19.75,23.17-7,34.64-13.83,32.06-20.39m-26.68-21.58,6.32,12.2m27.38-25.1,3.05,11m-1.64-5.4c-4.22,1.88-9.13,4.7-6.79,6.57m-25.51,5.4c1.17,1.41,3.51,1.16,7.72-.72s8.19-2.34,7.48-.46m4.93,7.51c2.1-1.41,4.45-2.81,7.26-2.35m-6.09,6.34c2.57-1.65,6.09-2.35,7.95-1.88" fill="none"/><path d="M389.34,266c1.37,2.1,5.4.59,9.83-1.29,2.83-.81,5.37-1.55,5.1.33-.35,3.18-10.85,8.65-11.18,8a63.79,63.79,0,0,0-3.75-7Z" fill="#fff"/><path d="M423,259.41a38.88,38.88,0,0,1-3.75,1.19c-2.31.12-4.63,1-4.57-1.5,1.35-2.6,6.86-4.83,6.89-4.73.65,2,.72,2.67,1.43,5Z" fill="#fff"/><path d="M193.26,91.17l8.4-4.4c8.2-5.17,9.12-5.21,13.38-10.54,5.57-7,2.25-5,7.65-10.42.74,9.07,16.63,34.57,33.6,34.38,20.85,0,33.71-13,37.66-21.24a106.13,106.13,0,0,1,14.94-.21c4.59,13.26,21.78,21.72,35.76,21.61,15.16-.11,35.44-9.95,33.74-34,22,28.73,20.8,13.29,38.32,30.6-32-2.47-55.19,40.84-28.82,71.44-3.71,4.63-5.77,11.13-2.63,11.48l12.93,11.56c26.66,24.85-8.06,45.44-25.46,50.15L346.36,260H339.1c-8.32,9.84-29.25,10.06-39.18,21.93-12.81-14.76-29-10.05-36.08-23.11h-4.59s-13-6.3-33.22-17.1c-23.37-10.76-33.75-17.32-25.29-46.75,20.88-13.85,19.36-21.24,14.74-29.86,16.88-25.22,17.36-60.86-25.19-72.5l3-1.4Z" fill="#fff"/><path d="M270.57,164.26a2,2,0,0,1,2.78-.86,1.79,1.79,0,0,1,.21,2.89,1.87,1.87,0,0,1-.32,3.64,1.86,1.86,0,0,1-.53,3.53,2.07,2.07,0,0,1-.86,3.21,1.54,1.54,0,0,1-1.07,1.6,1.73,1.73,0,0,1-.32,2.14,2,2,0,0,1-1,1.29,1.86,1.86,0,0,1-1.81,1.39,3.78,3.78,0,0,1-1.82-5c-1.6-.64-1.81-2.36-.74-3.1a2.08,2.08,0,0,1-.43-1.29,1.7,1.7,0,0,1-.75-2.24,1.86,1.86,0,0,1-1.17-3,1.87,1.87,0,0,1,.42-3.21,1.76,1.76,0,0,1,1.61-2,12.37,12.37,0,0,0,3.73,1.28,1.92,1.92,0,0,1,2-.21Zm1.07-37.44a2,2,0,0,1,2.77-.86,1.79,1.79,0,0,1,.22,2.89,1.87,1.87,0,0,1-.32,3.64,1.86,1.86,0,0,1-.54,3.53,2.07,2.07,0,0,1-.85,3.21,1.54,1.54,0,0,1-1.07,1.6,1.73,1.73,0,0,1-.32,2.14,2,2,0,0,1-1,1.28,1.85,1.85,0,0,1-1.81,1.39,1.8,1.8,0,0,1-1.82-1.81,1.79,1.79,0,0,1,0-3.21c-1.6-.65-1.81-2.36-.75-3.11a2,2,0,0,1-.42-1.28A1.69,1.69,0,0,1,265,134a1.85,1.85,0,0,1-1.17-3,1.86,1.86,0,0,1,.42-3.21,4.57,4.57,0,0,1,5.34-.75,1.92,1.92,0,0,1,2-.21Zm-31.92,10.91a2,2,0,0,0-2.78-.86,1.79,1.79,0,0,0-.21,2.89,1.87,1.87,0,0,0,.32,3.64,1.86,1.86,0,0,0,.53,3.53,2.07,2.07,0,0,0,.86,3.21,1.54,1.54,0,0,0,1.07,1.6,1.73,1.73,0,0,0,.32,2.14,2,2,0,0,0,1,1.29,1.86,1.86,0,0,0,1.81,1.39,1.81,1.81,0,0,0,1.82-1.82,1.79,1.79,0,0,0,0-3.21c1.6-.64,1.81-2.36.74-3.1a2.08,2.08,0,0,0,.43-1.29,1.69,1.69,0,0,0,.75-2.24,1.86,1.86,0,0,0,1.17-3,1.87,1.87,0,0,0-.42-3.21,1.76,1.76,0,0,0-1.61-2,12.37,12.37,0,0,1-3.73,1.28,1.92,1.92,0,0,0-2-.21Z" fill="#b400b4" stroke="#000" stroke-width="0.32"/><path d="M333.13,164.26a2,2,0,0,0-2.78-.86,1.79,1.79,0,0,0-.21,2.89,1.87,1.87,0,0,0,.32,3.64,1.86,1.86,0,0,0,.53,3.53,2.07,2.07,0,0,0,.86,3.21,1.55,1.55,0,0,0,1.06,1.6,1.76,1.76,0,0,0,.32,2.14,2.07,2.07,0,0,0,1,1.29,1.88,1.88,0,0,0,1.82,1.39,3.79,3.79,0,0,0,1.81-5c1.61-.64,1.82-2.36.75-3.1a2.08,2.08,0,0,0,.43-1.29,1.7,1.7,0,0,0,.75-2.24,1.87,1.87,0,0,0,1.17-3,1.86,1.86,0,0,0-.43-3.21,4.61,4.61,0,0,0-5.34-.75,1.9,1.9,0,0,0-2-.21Zm-1.07-37.44a2,2,0,0,0-2.78-.86,1.79,1.79,0,0,0-.21,2.89,1.87,1.87,0,0,0,.32,3.64,1.86,1.86,0,0,0,.53,3.53,2.07,2.07,0,0,0,.86,3.21,1.54,1.54,0,0,0,1.07,1.6,1.73,1.73,0,0,0,.32,2.14,2,2,0,0,0,1,1.28,1.85,1.85,0,0,0,1.81,1.39,1.8,1.8,0,0,0,1.82-1.81,1.79,1.79,0,0,0,0-3.21c1.6-.65,1.81-2.36.74-3.11a2,2,0,0,0,.43-1.28,1.71,1.71,0,0,0,.75-2.25,1.85,1.85,0,0,0,1.17-3,1.87,1.87,0,0,0-.42-3.21,1.76,1.76,0,0,0-1.61-2,13.15,13.15,0,0,1-3.73,1.28,1.92,1.92,0,0,0-2-.21ZM364,137.73a2,2,0,0,1,2.77-.86,1.79,1.79,0,0,1,.22,2.89,1.87,1.87,0,0,1-.32,3.64,1.86,1.86,0,0,1-.54,3.53,2.07,2.07,0,0,1-.85,3.21,1.54,1.54,0,0,1-1.07,1.6,1.75,1.75,0,0,1-.32,2.14,2,2,0,0,1-1,1.29,1.86,1.86,0,0,1-1.81,1.39,1.8,1.8,0,0,1-1.82-1.82,1.79,1.79,0,0,1,0-3.21c-1.6-.64-1.81-2.36-.75-3.1a2.07,2.07,0,0,1-.42-1.29,1.68,1.68,0,0,1-.75-2.24,1.87,1.87,0,0,1-1.18-3,1.87,1.87,0,0,1,.43-3.21,4.61,4.61,0,0,1,5.34-.75,1.92,1.92,0,0,1,2-.21Z" fill="#b400b4" stroke="#000" stroke-width="0.32"/><path d="M267.05,179.24c-.43,1.6.75,3.2,2,2.88a1.91,1.91,0,0,1-3.31-.85c-.32-.54.21-1.82,1.28-2Zm1.28-1.4c-.43,1.4,1.07,2.57,2.35,2.36a2,2,0,0,1-3.31-.75,1.09,1.09,0,0,1,1-1.61Zm1.17-3c-.42,1.5.75,3.1,2,2.78a1.88,1.88,0,0,1-3.31-.75,1.52,1.52,0,0,1,1.28-2Zm-3.41-3c-.54,1.5.74,3.11,2,2.79a2,2,0,0,1-3.42-.75,1.7,1.7,0,0,1,1.39-2Zm2.35-1.39c-.43,1.61.74,3.21,2.13,2.78a2,2,0,0,1-3.42-.64,1.73,1.73,0,0,1,1.29-2.14Zm-3.1-1.92a1.71,1.71,0,0,0,2,2.35,2,2,0,0,1-3.42-.75c-.21-.64.22-1.39,1.39-1.6Zm5.23-.11a2.06,2.06,0,0,0,2,2.78,2,2,0,0,1-3.42-.75,1.66,1.66,0,0,1,1.39-2Zm-2.88-2c-.43,1.6.21,2.89,1.49,2.67a1.49,1.49,0,0,1-2.77-.53,1.75,1.75,0,0,1,1.28-2.14Zm-4.38-1.18c-.43,1.61.75,3.21,2.14,2.89a2,2,0,0,1-3.42-.75,1.72,1.72,0,0,1,1.28-2.14Zm1.07-1.92c-.43,1.6.75,3.1,2,2.88a1.88,1.88,0,0,1-3.31-.75,1.6,1.6,0,0,1,1.28-2.13Zm4.91.85c-.43,1.5.75,3.1,2,2.89a1.92,1.92,0,0,1-3.31-.75,1.68,1.68,0,0,1,1.28-2.14Zm2.56-1a2.11,2.11,0,0,0,2,2.89,1.89,1.89,0,0,1-3.31-.75,1.65,1.65,0,0,1,1.28-2.14Zm-3.73-21.4c-.43,1.61.74,3.21,2,2.89a1.91,1.91,0,0,1-3.31-.85c-.32-.54.22-1.82,1.29-2Zm1.28-1.39c-.43,1.39,1.06,2.57,2.34,2.36a2,2,0,0,1-3.3-.75,1.09,1.09,0,0,1,1-1.61Zm1.17-3c-.43,1.49.75,3.1,2,2.78a1.89,1.89,0,0,1-3.31-.75,1.52,1.52,0,0,1,1.28-2Zm-3.42-3c-.53,1.5.75,3.1,2,2.78a1.94,1.94,0,0,1-3.41-.75,1.69,1.69,0,0,1,1.38-2ZM269.5,133c-.42,1.6.75,3.21,2.14,2.78a2,2,0,0,1-3.42-.64A1.73,1.73,0,0,1,269.5,133Zm-3.09-1.93a1.71,1.71,0,0,0,2,2.36,2,2,0,0,1-3.42-.75c-.21-.64.21-1.39,1.39-1.61Zm5.23-.1a2.05,2.05,0,0,0,2,2.78,2,2,0,0,1-3.42-.75,1.65,1.65,0,0,1,1.39-2Zm-2.88-2c-.43,1.6.21,2.88,1.49,2.67a1.49,1.49,0,0,1-2.78-.54,1.76,1.76,0,0,1,1.29-2.13Zm-4.38-1.18c-.43,1.6.75,3.21,2.13,2.89a2,2,0,0,1-3.41-.75,1.72,1.72,0,0,1,1.28-2.14Zm1.07-1.93c-.43,1.61.74,3.11,2,2.89a1.88,1.88,0,0,1-3.3-.75,1.61,1.61,0,0,1,1.28-2.14Zm4.91.86c-.43,1.5.74,3.1,2,2.89a1.93,1.93,0,0,1-3.31-.75,1.68,1.68,0,0,1,1.28-2.14Zm2.56-1a2.1,2.1,0,0,0,2,2.88,1.89,1.89,0,0,1-3.31-.74,1.64,1.64,0,0,1,1.28-2.14ZM243.24,152.7c.43,1.61-.74,3.21-2,2.89a1.91,1.91,0,0,0,3.31-.85c.32-.54-.21-1.82-1.28-2ZM242,151.31c.43,1.39-1.07,2.57-2.35,2.36a2,2,0,0,0,3.31-.75,1.09,1.09,0,0,0-1-1.61Zm-1.17-3c.42,1.5-.75,3.1-2,2.78a1.88,1.88,0,0,0,3.31-.75,1.52,1.52,0,0,0-1.28-2Zm3.41-3c.54,1.5-.74,3.11-2,2.78a1.94,1.94,0,0,0,3.42-.74,1.7,1.7,0,0,0-1.39-2Zm-2.35-1.39c.43,1.61-.74,3.21-2.13,2.78a2,2,0,0,0,3.42-.64,1.73,1.73,0,0,0-1.29-2.14ZM245,142a1.71,1.71,0,0,1-2,2.35,2,2,0,0,0,3.42-.75c.21-.64-.22-1.39-1.39-1.6Zm-5.23-.11a2.06,2.06,0,0,1-2,2.78,2,2,0,0,0,3.42-.75,1.66,1.66,0,0,0-1.39-2Zm2.88-2c.43,1.6-.21,2.89-1.49,2.67a1.49,1.49,0,0,0,2.77-.53,1.75,1.75,0,0,0-1.28-2.14Zm4.38-1.18c.43,1.61-.75,3.21-2.14,2.89a2,2,0,0,0,3.42-.75,1.72,1.72,0,0,0-1.28-2.14Zm-1.07-1.93c.43,1.61-.75,3.11-2,2.89a1.88,1.88,0,0,0,3.31-.75,1.61,1.61,0,0,0-1.28-2.14Zm-4.91.86c.43,1.5-.75,3.1-2,2.89a1.92,1.92,0,0,0,3.31-.75,1.68,1.68,0,0,0-1.28-2.14Zm-2.56-1a2.11,2.11,0,0,1-2,2.89,1.89,1.89,0,0,0,3.31-.75,1.65,1.65,0,0,0-1.28-2.14Z" fill="#642864" stroke="#000" stroke-width="0.32"/><path d="M195.52,192.39c2.25.43,4.38.75,6.3-.1-10,22.25,5.77,40.54,26.69,50.6-1,1.6-1.92,2.78-2.88,4.17-20.71-9.31-40.89-29.21-30.11-54.67Zm68,67.08h-4.6v5.67h0c9.08,11,33.74,12,40.68,25,10.57-14,33.2-15.72,46.43-26.53h0v-3h-7.26c-8.32,9.84-29.25,10.05-39.17,21.93-12.81-14.77-29-10.06-36.08-23.11Zm133.65-70.18a47.26,47.26,0,0,1,6.72.32c12.71,28.35-2.77,44-26.9,57.34a38.55,38.55,0,0,0-4.59-4.7c17.4-4.71,41.63-24.61,24.77-53Zm-4.81-25.46-4.8,4.17c-26.37-30.59-4.91-75.31,28.82-70.39,3.2.43,5.77,7.49,4.49,7.06-39.07-16-46.44,42.69-28.51,59.16ZM313.06,72.47c.32,2.14,1.81,3.42,3.2,3s1.92-3.11,1.6-4.6c-.21-1.93-1.71-4.82-4.16-4.82-2.14,0-4.81,2.46-4.91,5.67-.11,2.46-.11,5.14-.22,7.7,4.59,13.27,21.78,21.72,35.77,21.61,15.15-.1,35.44-9.94,33.73-34-1.28-1.18-2.46-2.47-3.63-3.64,2.88,19.9-16.23,32-30.21,31.66-11.64-.32-33-9-31.17-22.57ZM294.8,69.58a29.08,29.08,0,0,1-1.17,10.06c-3.95,8.24-9.82,19.47-34.16,20.54-26.26,1.07-39-20.11-35.76-35.84a13.89,13.89,0,0,1,5.12-2.89c-4.59,15.83,11.1,32.84,31.17,32.84,14.2,0,30.75-12,28.83-21.5-5.56,0-6.2-8.56,1.49-8.45,3.84,0,4.59,3.21,4.48,5.24ZM188.05,92.9c43.77,8.67,44.52,49.21,27.12,72.86-1.5-1.82-3-3.64-4.49-5.35,17.19-20,9.29-56.81-27.11-64.94l4.48-2.57ZM365.9,80.07c3.1-3.75,4.27-4.92,4.38-7.92.1-1.71-.43-6.21-2.14-6.21s-2.45,3.54-2.67,5.25c-.21,2.24,2.67,5,.43,8.88Zm44,27c3.63,1,5.66-1.06,7.58.22,1.28.85,1.49,1.92,1,2.78a3,3,0,0,1-3.31,1.28c-2.24-.64-3-2.78-5.23-4.28ZM236.09,77.82c-2.13-2.89-3.63-6.1-3.74-8.56-.1-2,1.18-5.24,2.78-4.49,1.49.53,2.88,3.64,2,6.2s-1.5,4.71-1.07,6.85Zm-39,27c-4.27-2.14-6.62-3.75-10.15-3.32-2.13.22-4.37,2.36-3.95,4.6s3.42,3.43,5.56,2.68c3.2-.86,4.37-3.21,8.54-4Z" fill="#ffd312"/><path d="M336.65,179.24c.43,1.6-.75,3.2-2,2.88a1.91,1.91,0,0,0,3.31-.85c.32-.54-.21-1.82-1.28-2Zm-1.28-1.4c.43,1.4-1.07,2.57-2.35,2.36a2,2,0,0,0,3.31-.75,1.09,1.09,0,0,0-1-1.61Zm-1.18-3c.43,1.5-.74,3.1-2,2.78a1.88,1.88,0,0,0,3.31-.75,1.53,1.53,0,0,0-1.29-2Zm3.42-3c.53,1.5-.75,3.11-2,2.79a2,2,0,0,0,3.42-.75,1.71,1.71,0,0,0-1.39-2Zm-2.35-1.39c.43,1.61-.75,3.21-2.13,2.78a2,2,0,0,0,3.41-.64,1.72,1.72,0,0,0-1.28-2.14Zm3.1-1.92a1.71,1.71,0,0,1-2,2.35,2,2,0,0,0,3.42-.75c.21-.64-.22-1.39-1.39-1.6Zm-5.23-.11a2.06,2.06,0,0,1-2,2.78,2,2,0,0,0,3.41-.75,1.65,1.65,0,0,0-1.38-2Zm2.88-2c.43,1.6-.21,2.89-1.5,2.67a1.49,1.49,0,0,0,2.78-.53A1.76,1.76,0,0,0,336,166.4Zm4.38-1.18c.42,1.61-.75,3.21-2.14,2.89a2,2,0,0,0,3.42-.75,1.73,1.73,0,0,0-1.28-2.14Zm-1.07-1.92c.43,1.6-.75,3.1-2,2.88a1.88,1.88,0,0,0,3.31-.75,1.61,1.61,0,0,0-1.28-2.13Zm-4.91.85c.42,1.5-.75,3.1-2,2.89a1.92,1.92,0,0,0,3.31-.75,1.68,1.68,0,0,0-1.28-2.14Zm-2.56-1a2.11,2.11,0,0,1-2,2.89,1.89,1.89,0,0,0,3.31-.75,1.65,1.65,0,0,0-1.28-2.14Zm3.73-21.4c.43,1.61-.75,3.21-2,2.89a1.91,1.91,0,0,0,3.31-.85c.32-.54-.21-1.82-1.28-2Zm-1.28-1.39c.43,1.39-1.07,2.57-2.35,2.36a2,2,0,0,0,3.31-.75,1.09,1.09,0,0,0-1-1.61Zm-1.17-3c.42,1.49-.75,3.1-2,2.78a1.89,1.89,0,0,0,3.31-.75,1.52,1.52,0,0,0-1.28-2Zm3.41-3c.54,1.5-.74,3.1-2,2.78a1.94,1.94,0,0,0,3.42-.75,1.7,1.7,0,0,0-1.39-2ZM334.19,133c.43,1.61-.74,3.21-2.13,2.78a2,2,0,0,0,3.42-.64,1.73,1.73,0,0,0-1.29-2.14Zm3.1-1.93a1.72,1.72,0,0,1-2,2.36,2,2,0,0,0,3.42-.75c.21-.64-.22-1.39-1.39-1.61Zm-5.23-.1a2.06,2.06,0,0,1-2,2.78,2,2,0,0,0,3.42-.75,1.66,1.66,0,0,0-1.39-2Zm2.88-2c.43,1.6-.21,2.88-1.49,2.67a1.49,1.49,0,0,0,2.77-.54,1.75,1.75,0,0,0-1.28-2.13Zm4.38-1.18c.43,1.6-.75,3.21-2.14,2.89a2,2,0,0,0,3.42-.75,1.72,1.72,0,0,0-1.28-2.14Zm-1.07-1.93c.43,1.61-.75,3.11-2,2.89a1.88,1.88,0,0,0,3.31-.75,1.61,1.61,0,0,0-1.28-2.14Zm-4.91.86c.43,1.5-.75,3.1-2,2.89a1.93,1.93,0,0,0,3.31-.75,1.68,1.68,0,0,0-1.28-2.14Zm-2.56-1a2.1,2.1,0,0,1-2,2.88,1.89,1.89,0,0,0,3.31-.74,1.65,1.65,0,0,0-1.28-2.14Zm29.68,26.95c-.43,1.61.74,3.21,2,2.89a1.91,1.91,0,0,1-3.31-.85c-.32-.54.22-1.82,1.29-2Zm1.28-1.39c-.43,1.39,1.06,2.57,2.34,2.36a2,2,0,0,1-3.3-.75,1.09,1.09,0,0,1,1-1.61Zm1.17-3c-.43,1.5.75,3.1,2,2.78a1.88,1.88,0,0,1-3.31-.75,1.52,1.52,0,0,1,1.28-2Zm-3.42-3c-.53,1.5.75,3.11,2,2.78a1.94,1.94,0,0,1-3.41-.74,1.7,1.7,0,0,1,1.38-2Zm2.35-1.39c-.42,1.61.75,3.21,2.14,2.78a2,2,0,0,1-3.42-.64,1.73,1.73,0,0,1,1.28-2.14ZM358.75,142a1.71,1.71,0,0,0,2,2.35,2,2,0,0,1-3.42-.75c-.21-.64.21-1.39,1.39-1.6Zm5.23-.11a2.05,2.05,0,0,0,2,2.78,2,2,0,0,1-3.42-.75,1.66,1.66,0,0,1,1.39-2Zm-2.88-2c-.43,1.6.21,2.89,1.49,2.67a1.49,1.49,0,0,1-2.78-.53,1.77,1.77,0,0,1,1.29-2.14Zm-4.38-1.18c-.43,1.61.75,3.21,2.13,2.89a2,2,0,0,1-3.41-.75,1.72,1.72,0,0,1,1.28-2.14Zm1.07-1.93c-.43,1.61.74,3.11,2,2.89a1.88,1.88,0,0,1-3.3-.75,1.61,1.61,0,0,1,1.28-2.14Zm4.91.86c-.43,1.5.74,3.1,2,2.89a1.92,1.92,0,0,1-3.31-.75,1.68,1.68,0,0,1,1.28-2.14Zm2.56-1a2.11,2.11,0,0,0,2,2.89,1.89,1.89,0,0,1-3.31-.75,1.64,1.64,0,0,1,1.28-2.14Z" fill="#642864" stroke="#000" stroke-width="0.32"/><path d="M295.66,239.25c.64-2,2.13-2.14,2.13-5h0v-61h0a1.55,1.55,0,0,1,1.6-1.49h0a1.76,1.76,0,0,1,1.82,1.49v61c.85,2.89-.54,4.5,1.92,4.6,6.3.43,13.13.86,19,2.57.64.53.54,1.07,0,1.6h-39.6a1.94,1.94,0,0,1,.74-2.35c6.52-1.92,12.17-.53,12.39-1.39Zm45.47-50c.75-2.25,2.35-2.35,2.35-5.45h0v-67.4h0a1.61,1.61,0,0,1,1.71-1.61h0a1.88,1.88,0,0,1,1.92,1.72c0,22.35,0,44.82.11,67.29.85,3.1-.75,4.92,1.92,5,6.83.43,14.3.86,20.5,2.78.74.54.53,1.18,0,1.82h-42.7a2.26,2.26,0,0,1,.85-2.67c7-2.14,13-.54,13.34-1.5Zm-79,0c-.75-2.25-2.35-2.35-2.35-5.45h0v-67.4h0a1.61,1.61,0,0,0-1.71-1.61h0a1.69,1.69,0,0,0-1.71,1.72c0,22.35,0,44.82-.1,67.29-.86,3.1.53,4.92-1.93,5-6.83.43-14.3.86-20.49,2.78-.75.54-.54,1.18,0,1.82h42.49a2.28,2.28,0,0,0-.86-2.67c-7-2.14-13-.54-13.34-1.5Z" fill="#961e1d" stroke="#000" stroke-width="1.2"/><path d="M293.63,172.6c.85,1.61,1.71,2.36,3.63,2.36a14.57,14.57,0,0,1,8,3.31,17.88,17.88,0,0,1,5.13,8.67c.32,1.71.11,3.42-1,4.38-2.46,2.25-5.45,3.64-8,5.46s-5.44,4.06-7,7.27c-1.18,2.25-.64,5,.42,7.06,2,3.86,6.19,7.07,9.5,10.81.64.64,2.57-.11,2.89,1,1.6,4.71.53,8.77,1.49,13.7.53,3,4.59,3,6.41,3.85-3.63-.22-7.69-.43-10.89-1.93a3.27,3.27,0,0,0,1.28-2.89c0-3.42-1.39-8.56-3.2-10.27-2.67-2.78-6.09-6.1-8.65-9-2-2.14-3.1-3.53-3.52-6-.75-3.64.53-6.64,2.56-9.74,2.67-4.06,8.11-6.2,12.06-8.77,1-.64,2.24-3.21,2.24-5.14-.1-3-3.09-6.31-4.59-6.63-1.92-.32-6.08.11-8-.43-.64-.21-.11-1.07-1.07-1.07a2.25,2.25,0,0,0-2.24,1.71c.1-.85-1.18-1.28-2.46-1a7.65,7.65,0,0,1,5.55-3c.22-1.18-1-2.36-2-3.11,1.07.43,1.5.22,1.5-.64Zm45.26-57c1,1.71,1.82,2.57,3.84,2.57,2.78,0,7,2.14,8.76,3.64a21.55,21.55,0,0,1,5.44,9.63c.32,1.81.11,3.74-1.07,4.81-2.56,2.46-5.76,4.07-8.54,6s-6,4.49-7.68,8c-1.18,2.46-.64,5.57.53,7.81,2.24,4.28,6.62,7.81,10.14,11.88.75.85,2.78,0,3.21,1.17,1.7,5.14.53,9.63,1.49,15.09.64,3.32,5.12,3.32,7.05,4.17-3.95-.21-8.33-.43-11.85-2a3.74,3.74,0,0,0,1.49-3.21c0-3.85-1.6-9.52-3.41-11.45-3-3-6.62-6.63-9.4-9.84-2.24-2.35-3.31-3.85-3.84-6.53-.75-4.06.64-7.38,2.88-10.8,2.78-4.49,8.65-6.85,12.92-9.63,1.06-.75,2.45-3.64,2.35-5.67,0-3.31-3.21-7.06-4.81-7.27-2.13-.43-6.62,0-8.75-.54-.64-.21-.11-1.17-1.18-1.17s-1.81.74-2.34,1.81c.1-.85-1.29-1.28-2.67-1,1.6-2.24,3.52-3,6-3.42.21-1.18-1.07-2.57-2.25-3.32,1.18.43,1.71.22,1.71-.75Zm-74.3,0c-1,1.71-1.81,2.57-3.84,2.57-2.78,0-7.05,2.14-8.75,3.64a21.57,21.57,0,0,0-5.45,9.63c-.32,1.81-.11,3.74,1.07,4.81,2.56,2.46,5.76,4.07,8.54,6s6,4.49,7.69,8c1.17,2.46.64,5.57-.54,7.81-2.24,4.28-6.62,7.81-10.14,11.88-.75.85-2.78,0-3.2,1.17-1.71,5.14-.54,9.63-1.5,15.09-.64,3.32-5.12,3.32-7,4.17,3.95-.21,8.32-.43,11.85-2a3.75,3.75,0,0,1-1.5-3.21c0-3.85,1.6-9.52,3.42-11.45,3-3,6.62-6.63,9.39-9.84,2-2.35,3.1-3.85,3.63-6.53.75-4.06-.64-7.38-2.67-10.8-2.77-4.49-8.64-6.85-12.91-9.63-1.07-.75-2.46-3.64-2.35-5.67,0-3.31,3.2-7.06,4.8-7.27,2.14-.43,6.62,0,8.76-.54.64-.21.1-1.17,1.17-1.17.85-.11,1.6.74,2.13,1.81-.1-.85,1.29-1.28,2.67-1a8.28,8.28,0,0,0-5.76-3.42c-.21-1.18,1.07-2.57,2-3.32-1,.43-1.5.22-1.5-.75Z" fill="#961e1d" stroke="#000" stroke-width="1.2"/><path d="M286.48,219.14a2,2,0,0,0-2.78-.86,1.79,1.79,0,0,0-.21,2.89,1.87,1.87,0,0,0,.32,3.64,1.86,1.86,0,0,0,.53,3.53,2.07,2.07,0,0,0,.86,3.21,1.55,1.55,0,0,0,1.06,1.6,1.76,1.76,0,0,0,.32,2.14,2.07,2.07,0,0,0,1,1.29,1.88,1.88,0,0,0,1.82,1.39,3.79,3.79,0,0,0,1.81-5c1.6-.64,1.82-2.36.75-3.1a2.08,2.08,0,0,0,.43-1.29,1.7,1.7,0,0,0,.75-2.24,1.87,1.87,0,0,0,1.17-3,1.86,1.86,0,0,0-.43-3.21,4.61,4.61,0,0,0-5.34-.75,1.9,1.9,0,0,0-2-.21Zm-1.07-37.44a2,2,0,0,0-2.78-.86,1.79,1.79,0,0,0-.21,2.89,1.87,1.87,0,0,0,.32,3.64,1.86,1.86,0,0,0,.53,3.53,2.07,2.07,0,0,0,.86,3.21,1.54,1.54,0,0,0,1.07,1.6,1.73,1.73,0,0,0,.32,2.14,2,2,0,0,0,1,1.28,1.85,1.85,0,0,0,1.81,1.39,3.77,3.77,0,0,0,1.82-5c1.6-.65,1.81-2.36.74-3.11a2,2,0,0,0,.43-1.28,1.71,1.71,0,0,0,.75-2.25,1.85,1.85,0,0,0,1.17-3,1.86,1.86,0,0,0-.43-3.21,4.55,4.55,0,0,0-5.33-.75,1.92,1.92,0,0,0-2-.21Zm31.92,10.91a2,2,0,0,1,2.77-.86,1.79,1.79,0,0,1,.22,2.89,1.87,1.87,0,0,1-.32,3.64,1.86,1.86,0,0,1-.54,3.53,2.07,2.07,0,0,1-.85,3.21,1.54,1.54,0,0,1-1.07,1.6,1.75,1.75,0,0,1-.32,2.14,2,2,0,0,1-1,1.28,1.85,1.85,0,0,1-1.81,1.4,3.78,3.78,0,0,1-1.82-5c-1.6-.64-1.81-2.36-.75-3.11a2,2,0,0,1-.42-1.28,1.69,1.69,0,0,1-.75-2.25,1.86,1.86,0,0,1-1.18-3,1.87,1.87,0,0,1,.43-3.21,4.61,4.61,0,0,1,5.34-.75,1.92,1.92,0,0,1,2-.21Z" fill="#b400b4" stroke="#000" stroke-width="0.32"/><path d="M290,234.07c.43,1.6-.75,3.21-2,2.89a1.92,1.92,0,0,0,3.31-.86c.32-.53-.21-1.82-1.28-2Zm-1.28-1.39c.43,1.39-1.07,2.57-2.35,2.35a2,2,0,0,0,3.31-.75,1.08,1.08,0,0,0-1-1.6Zm-1.18-3c.43,1.5-.74,3.11-2,2.78a1.89,1.89,0,0,0,3.31-.74,1.53,1.53,0,0,0-1.29-2Zm3.42-3c.53,1.5-.75,3.1-2,2.78a2,2,0,0,0,3.42-.75,1.7,1.7,0,0,0-1.39-2Zm-2.35-1.39c.43,1.6-.75,3.21-2.13,2.78a2,2,0,0,0,3.41-.64,1.72,1.72,0,0,0-1.28-2.14Zm3.1-1.93a1.72,1.72,0,0,1-2,2.36,2,2,0,0,0,3.42-.75c.21-.65-.22-1.39-1.39-1.61Zm-5.23-.11a2.07,2.07,0,0,1-2,2.79,2,2,0,0,0,3.41-.75,1.66,1.66,0,0,0-1.38-2Zm2.88-2c.43,1.61-.21,2.89-1.5,2.68a1.5,1.5,0,0,0,2.78-.54,1.77,1.77,0,0,0-1.28-2.14Zm4.38-1.17c.42,1.6-.75,3.2-2.14,2.88a2,2,0,0,0,3.42-.75,1.72,1.72,0,0,0-1.28-2.13Zm-1.07-1.93c.43,1.6-.75,3.1-2,2.89a1.89,1.89,0,0,0,3.31-.75,1.62,1.62,0,0,0-1.28-2.14Zm-4.91.86c.42,1.49-.75,3.1-2,2.88a1.93,1.93,0,0,0,3.31-.74,1.68,1.68,0,0,0-1.28-2.14Zm-2.56-1a2.11,2.11,0,0,1-2,2.89,1.88,1.88,0,0,0,3.31-.75A1.65,1.65,0,0,0,285.2,218Zm3.73-21.39c.43,1.6-.75,3.21-2,2.89a1.91,1.91,0,0,0,3.31-.86c.32-.54-.21-1.82-1.28-2Zm-1.28-1.39c.43,1.39-1.07,2.56-2.35,2.35a2,2,0,0,0,3.31-.75,1.08,1.08,0,0,0-1-1.6Zm-1.17-3c.42,1.5-.75,3.1-2,2.78a1.88,1.88,0,0,0,3.31-.75,1.52,1.52,0,0,0-1.28-2Zm3.41-3c.54,1.49-.74,3.1-2,2.78a2,2,0,0,0,3.42-.75,1.7,1.7,0,0,0-1.39-2Zm-2.35-1.4c.43,1.61-.74,3.21-2.13,2.79a2,2,0,0,0,3.42-.65,1.73,1.73,0,0,0-1.29-2.14Zm3.1-1.92a1.71,1.71,0,0,1-2,2.35,1.94,1.94,0,0,0,3.42-.75c.21-.64-.22-1.39-1.39-1.6Zm-5.23-.11a2.06,2.06,0,0,1-2,2.78,2,2,0,0,0,3.42-.75,1.66,1.66,0,0,0-1.39-2Zm2.88-2c.43,1.6-.21,2.89-1.49,2.67a1.49,1.49,0,0,0,2.77-.53,1.75,1.75,0,0,0-1.28-2.14Zm4.38-1.18c.43,1.61-.75,3.21-2.14,2.89a2,2,0,0,0,3.42-.75,1.72,1.72,0,0,0-1.28-2.14Zm-1.07-1.92c.43,1.6-.75,3.1-2,2.89a1.89,1.89,0,0,0,3.31-.75,1.62,1.62,0,0,0-1.28-2.14Zm-4.91.85c.43,1.5-.75,3.11-2,2.89a1.92,1.92,0,0,0,3.31-.75,1.68,1.68,0,0,0-1.28-2.14Zm-2.56-1a2.11,2.11,0,0,1-2,2.89,1.89,1.89,0,0,0,3.31-.75,1.65,1.65,0,0,0-1.28-2.14Zm29.67,27c-.42,1.6.75,3.21,2,2.89a1.92,1.92,0,0,1-3.31-.86c-.32-.53.22-1.82,1.28-2Zm1.29-1.39c-.43,1.39,1.06,2.57,2.34,2.35a2,2,0,0,1-3.3-.75,1.08,1.08,0,0,1,1-1.6Zm1.17-3c-.43,1.5.75,3.11,2,2.78a1.89,1.89,0,0,1-3.31-.74,1.53,1.53,0,0,1,1.28-2Zm-3.42-3c-.53,1.5.75,3.1,2,2.78a1.94,1.94,0,0,1-3.41-.75,1.69,1.69,0,0,1,1.38-2Zm2.35-1.39c-.42,1.6.75,3.21,2.14,2.78a2,2,0,0,1-3.42-.64,1.72,1.72,0,0,1,1.28-2.14Zm-3.09-1.93a1.71,1.71,0,0,0,2,2.35,1.94,1.94,0,0,1-3.42-.74c-.21-.65.21-1.39,1.39-1.61Zm5.23-.11a2.06,2.06,0,0,0,2,2.79,2,2,0,0,1-3.42-.75,1.66,1.66,0,0,1,1.39-2Zm-2.88-2c-.43,1.61.21,2.89,1.49,2.68a1.5,1.5,0,0,1-2.78-.54,1.77,1.77,0,0,1,1.29-2.14Zm-4.38-1.18c-.43,1.61.75,3.21,2.13,2.89a2,2,0,0,1-3.41-.75,1.72,1.72,0,0,1,1.28-2.14Zm1.07-1.92c-.43,1.6.74,3.1,2,2.89a1.89,1.89,0,0,1-3.31-.75,1.62,1.62,0,0,1,1.29-2.14Zm4.91.86c-.43,1.49.74,3.1,2,2.88a1.92,1.92,0,0,1-3.3-.75,1.67,1.67,0,0,1,1.28-2.13Zm2.56-1a2.11,2.11,0,0,0,2,2.89,1.88,1.88,0,0,1-3.31-.75,1.65,1.65,0,0,1,1.28-2.14Z" fill="#642864" stroke="#000" stroke-width="0.32"/><path d="M261.28,118.79c1.28-1.5,2.89-2.46,4.38-2-1.71-2.46-3.2-8.67-2.24-11.77.53,1.39.85,1.71,1.81,1.5.22-1.28,1.5-1.82,2.57-2.14a3,3,0,0,1,.21,3.21,1.43,1.43,0,0,1,2.56-.32,3.75,3.75,0,0,1-.32,4.81c1.92.75,4.8-.53,5.76-3.85,1.07,1.07,1.07,1.5.43,2.78,1.18-1,3.2-.32,4.59,1,0,1.6-1.49,3.74-2.77,3.74,1,.11,1.49.75,1.6,2.14a6.18,6.18,0,0,0-6.83,1.28,4.09,4.09,0,0,1,3.2,3.11,1.87,1.87,0,0,1-2,1.6c1.07,0,1.6.75,1.71,2.25-1.07.64-2,.21-3-.43-.64.75-.32,1.28-.21,2.57-3.1-1-5.45-5.89-6.41-9.52-1.6-.54-3.1.21-4.27,1.81-.53.65-1.39-.85-.75-1.71Zm-10,4.07c-.54-1.61-1.71-3-3.31-2.89,2.35-1.82,5.66-6.85,5.55-9.74-.85,1.07-1.17,1.18-2,.75.22-1.28-.64-2-1.49-2.67a2.83,2.83,0,0,0-1.28,2.78,1.33,1.33,0,0,0-2.14-1.07,3.64,3.64,0,0,0-1.17,4.39c-1.92.1-4.17-1.82-3.95-5-1.28.53-1.5.85-1.18,2.24-.74-1.17-2.88-1.17-4.37-.53-.54,1.6.1,3.85,1.28,4.17-.86-.1-1.5.22-2,1.39,2.67-.1,4.27,1,5.66,3.21-2.24-.1-3.1.64-3.74,1.71-.21,1.18.53,1.72,1.39,2.14-1-.32-1.71,0-2.24,1.29.74,1,1.7.85,2.77.53.32.86-.1,1.29-.64,2.36,3.2.1,6.62-3.64,8.54-6.53,1.6,0,2.67,1.07,3.31,2.89.21.64,1.39-.43,1.07-1.39Zm3.63,47.6a5.33,5.33,0,0,0-5-1c1.71-2.67,2.78-8.67,1.28-11.13-.32,1.29-.75,1.5-1.81,1.61-.43-1.07-1.82-1.39-3-1.5a2.4,2.4,0,0,0,0,3.1,1.74,1.74,0,0,0-2.88.11,3.2,3.2,0,0,0,.74,4.39,5.06,5.06,0,0,1-6.72-2.46c-1.18,1.17-1.18,1.6-.11,2.67-1.49-.64-3.74.43-5.12,1.71a3.55,3.55,0,0,0,3.52,3,2.11,2.11,0,0,0-1.71,2.24,7.8,7.8,0,0,1,7.79-.1c-2.45,1.07-3,2.14-3.09,3.42.21,1.07,1.28,1.18,2.45,1.07a1.94,1.94,0,0,0-1.7,2.35c1.17.43,2.24-.1,3.31-1.07.64.65.42,1.18.32,2.57,3.52-1.6,5.55-6.52,6.19-10.16a4.64,4.64,0,0,1,5,1c.65.43,1.5-1.18.54-1.82ZM266,154.74c1.39.75,3.1,1.28,4.27.43-.85,2.67-.75,8.23,1,10.59,0-1.29.21-1.5,1.18-1.61a2.67,2.67,0,0,0,2.66,1.18,2.35,2.35,0,0,0-.42-2.78,1.34,1.34,0,0,0,2.35-.32,3.5,3.5,0,0,0-1.39-4.07c1.39-1.07,4.27-.75,5.87,1.82.64-1.07.75-1.39-.21-2.35,1.28.53,3-.54,3.73-1.93-.32-1.5-2-2.89-3.31-2.57.86-.32,1.18-.85,1-2a6.07,6.07,0,0,1-6.29.43c1.81-1.07,2-2.14,1.92-3.43-.32-1-1.28-1-2.25-.85,1-.22,1.39-.86,1.18-2.35a2.22,2.22,0,0,0-2.46,1.17c-1-.53-.85-1.07-1-2.24-2.56,1.71-3.31,6.41-3.31,9.73-1.28.86-2.88.54-4.27-.43-.64-.64-1,1-.21,1.61Zm30.74,20.75c-1.17-1.39-2.66-2.25-4.05-1.82,1.6-2.24,3-7.91,2-10.7-.43,1.29-.75,1.5-1.6,1.4a3.24,3.24,0,0,0-2.35-2,2.65,2.65,0,0,0-.22,3,1.32,1.32,0,0,0-2.35-.32,3.41,3.41,0,0,0,.22,4.38c-1.82.65-4.49-.53-5.34-3.53-1,1-1.07,1.39-.32,2.57-1.07-.86-3.1-.32-4.27.86,0,1.39,1.28,3.42,2.56,3.42-1,.11-1.39.64-1.49,1.93a5.71,5.71,0,0,1,6.3,1.17,3.77,3.77,0,0,0-3,2.78c.1,1.07,1.06,1.39,1.92,1.5-1-.11-1.5.64-1.6,1.93,1,.64,1.81.32,2.77-.32.54.64.32,1.17.11,2.35,3-.86,5.12-5.35,6.08-8.67,1.39-.53,2.78.22,3.95,1.61.43.64,1.29-.75.64-1.5Zm9.29,3.64c.54-1.39,1.6-2.68,3.1-2.57-2.14-1.71-5.23-6.2-5.23-8.88.85,1,1.17,1.07,1.92.75-.22-1.18.64-1.93,1.49-2.46a2.49,2.49,0,0,1,1.07,2.57,1.23,1.23,0,0,1,2-1,3.17,3.17,0,0,1,1.07,4c1.81.11,3.84-1.71,3.63-4.6,1.28.54,1.38.75,1.17,2,.64-1.07,2.56-1.07,3.95-.43.53,1.39,0,3.42-1.17,3.74a1.69,1.69,0,0,1,1.92,1.29,5.32,5.32,0,0,0-5.23,2.88c2.13-.1,2.77.54,3.41,1.61.22,1-.42,1.5-1.28,1.82.86-.22,1.6.1,2.14,1.28a2.28,2.28,0,0,1-2.57.43c-.32.75,0,1.18.54,2.14-2.88.11-6.09-3.32-7.9-5.89-1.5,0-2.46,1-3,2.57-.21.64-1.39-.43-1.07-1.28Zm-3.41,43.22a5,5,0,0,1,4.69-.86c-1.6-2.46-2.56-7.91-1.17-10.16.32,1.18.64,1.39,1.6,1.5.43-1,1.71-1.29,2.88-1.39a2.23,2.23,0,0,1,0,2.78,1.54,1.54,0,0,1,2.56.1,2.79,2.79,0,0,1-.64,4.07,4.72,4.72,0,0,0,6.2-2.25c1.17,1.07,1.17,1.39.21,2.36,1.39-.54,3.41.42,4.7,1.6a3.22,3.22,0,0,1-3.31,2.67,1.9,1.9,0,0,1,1.6,2,7.89,7.89,0,0,0-7.26-.11c2.35,1,2.77,1.93,3,3.1-.22,1-1.28,1.07-2.35,1.07a1.71,1.71,0,0,1,1.6,2,2.79,2.79,0,0,1-3-.86c-.75.53-.53,1-.43,2.25-3.2-1.5-5-5.89-5.65-9.2a4.48,4.48,0,0,0-4.7.85c-.53.43-1.28-1.07-.53-1.6ZM292.35,208c-1.28.75-2.88,1.29-4,.43.75,2.46.75,7.49-.86,9.63-.1-1.18-.21-1.39-1.06-1.5a2.65,2.65,0,0,1-2.57,1.07,2.21,2.21,0,0,1,.43-2.46,1.22,1.22,0,0,1-2.13-.32,3.19,3.19,0,0,1,1.28-3.75c-1.39-1-3.95-.64-5.45,1.72-.64-1-.64-1.29.22-2.14-1.18.53-2.78-.54-3.53-1.82.32-1.29,1.93-2.57,3.1-2.25a1.38,1.38,0,0,1-.85-1.92,5.59,5.59,0,0,0,5.76.42c-1.71-1-1.92-1.92-1.81-3,.42-1,1.17-1,2.13-.86-1-.21-1.28-.85-1.17-2.14a2.15,2.15,0,0,1,2.34,1.07c.86-.43.86-1,.86-2,2.35,1.5,3.09,5.78,3.09,8.77,1.18.86,2.67.54,4.06-.32.53-.53.75.86.11,1.39Zm49.85-89.22c-1.28-1.5-2.88-2.46-4.38-2,1.71-2.46,3.21-8.67,2.25-11.77-.54,1.39-.86,1.71-1.82,1.5-.21-1.28-1.49-1.82-2.56-2.14a3,3,0,0,0-.21,3.21,1.43,1.43,0,0,0-2.57-.32,3.77,3.77,0,0,0,.32,4.81c-1.92.75-4.8-.53-5.76-3.85-1.07,1.07-1.07,1.5-.43,2.78-1.17-1-3.2-.32-4.59,1,0,1.6,1.5,3.74,2.78,3.74-1,.11-1.5.75-1.6,2.14a6.18,6.18,0,0,1,6.83,1.28,4.06,4.06,0,0,0-3.2,3.11,1.86,1.86,0,0,0,2,1.6c-1.06,0-1.6.75-1.7,2.25,1.06.64,2,.21,3-.43.65.75.32,1.28.22,2.57,3.09-1,5.44-5.89,6.4-9.52,1.6-.54,3.1.21,4.27,1.81.54.65,1.39-.85.75-1.71Zm10,4.07c.53-1.61,1.7-3,3.3-2.89-2.34-1.82-5.65-6.85-5.55-9.74.86,1.07,1.18,1.18,2,.75-.21-1.28.64-2,1.5-2.67a2.86,2.86,0,0,1,1.28,2.78,1.32,1.32,0,0,1,2.13-1.07,3.66,3.66,0,0,1,1.18,4.39c1.92.1,4.16-1.82,3.95-5,1.28.53,1.49.85,1.17,2.24.75-1.17,2.88-1.17,4.38-.53.53,1.6-.11,3.85-1.28,4.17.85-.1,1.49.22,2,1.39-2.66-.1-4.27,1-5.65,3.21,2.24-.1,3.09.64,3.73,1.71.22,1.18-.53,1.72-1.38,2.14,1-.32,1.7,0,2.24,1.29-.75,1-1.71.85-2.78.53-.32.86.11,1.29.64,2.36-3.2.1-6.62-3.64-8.54-6.53-1.6,0-2.67,1.07-3.31,2.89-.21.64-1.39-.43-1.06-1.39Zm-3.63,47.6a5.31,5.31,0,0,1,5-1c-1.71-2.67-2.77-8.67-1.28-11.13.32,1.29.75,1.5,1.82,1.61.42-1.07,1.81-1.39,3-1.5a2.41,2.41,0,0,1,0,3.1,1.74,1.74,0,0,1,2.88.11,3.19,3.19,0,0,1-.75,4.39,5.07,5.07,0,0,0,6.73-2.46c1.17,1.17,1.17,1.6.1,2.67,1.5-.64,3.74.43,5.13,1.71a3.56,3.56,0,0,1-3.53,3,2.11,2.11,0,0,1,1.71,2.24,7.8,7.8,0,0,0-7.79-.1c2.45,1.07,3,2.14,3.1,3.42-.22,1.07-1.29,1.18-2.46,1.07A2,2,0,0,1,364,180c-1.18.43-2.24-.1-3.31-1.07-.64.65-.43,1.18-.32,2.57-3.52-1.6-5.55-6.52-6.19-10.16a4.66,4.66,0,0,0-5,1c-.64.43-1.5-1.18-.53-1.82ZM337.5,154.74c-1.38.75-3.09,1.28-4.27.43.86,2.67.75,8.23-1,10.59,0-1.29-.21-1.5-1.17-1.61a2.69,2.69,0,0,1-2.67,1.18,2.34,2.34,0,0,1,.43-2.78,1.34,1.34,0,0,1-2.35-.32,3.5,3.5,0,0,1,1.39-4.07c-1.39-1.07-4.27-.75-5.88,1.82-.64-1.07-.74-1.39.22-2.35-1.28.53-3-.54-3.74-1.93.32-1.5,2-2.89,3.31-2.57-.85-.32-1.17-.85-1-2a6.09,6.09,0,0,0,6.3.43c-1.82-1.07-2-2.14-1.92-3.43.32-1,1.28-1,2.24-.85-1-.22-1.39-.86-1.18-2.35a2.22,2.22,0,0,1,2.46,1.17c1-.53.85-1.07,1-2.24,2.56,1.71,3.31,6.41,3.31,9.73,1.28.86,2.88.54,4.27-.43.64-.64,1,1,.21,1.61Z" fill="#129612" stroke="#000" stroke-width="1.2"/><path d="M236.66,241c-.15.05-.9.17-1.66.29-1.71.23-2.19.25-2.77,2.21a9.05,9.05,0,0,1-1.39,2.72,7.22,7.22,0,0,0-1.41,4.27c.17,1,1.29,1.33,3.26.89,2.53-.53,3.15-.79,3.27-.21s-1.41,1.84-3.24,3.19-2.21,2.49-2.47,5.33a32.49,32.49,0,0,1-.53,4.18,18.49,18.49,0,0,0-.45,2.86c.23.58,3.88.92,6.2.54,3.65-.58,5.58-2.4,5.95-5.32a10.37,10.37,0,0,1,2.34-5.37c1.05-1.08,1.17-.91,2-.09s.42.64-.48,5.1-.57,6.11,1,7.4c1.25,1.05,2.73.9,3.19-.44a15.71,15.71,0,0,1,1.65-3c1.68-2.22,2-3.83,1-6.26-.75-1.73-1.17-2-.51-2,.18,0,.41.33,1.2,1.15a8,8,0,0,0,2.67,1.73c1.92,0,2.05-8.54.22-9.72-.93-.58-1.25.21-1.25,3.14,0,2.11.28,2.69,0,2.69s-.54-.51-.95-1.86a1.92,1.92,0,0,0-3.1-.84l-1.12.92.15,4.57c.18,3.46.3,3.17-.07,3.17-.61,0-.45-.42-.71-4.11a17.38,17.38,0,0,0-.55-3.84,4.36,4.36,0,0,0-1.62-1.4,3.77,3.77,0,0,0-2.88-.21c-2.56.7-5.18,3.4-6.72,6.51-.84,1.69-.82,2.1-1.46,1.84-.41-.15-.41,0,0-1,.7-1.67,2.44-3.73,4.82-6.31,2.73-3,2.69-3.57,2.26-5.06-.52-1.79-.92-2.5-3.44-2.85-1.45-.21-3-.13-3-.39,0-.68.7-.85,3.42-.85,2.53,0,2.76-.06,3.28-.7a4.66,4.66,0,0,0,.76-1.44c.29-1.2-.5-1.52-3.66-1.49a24.67,24.67,0,0,0-3.07.12Z" fill="#129612"/><path d="M231.51,240.64c-1.92,3-4,7.87-4,9.47,0,2.09,2.8,3.45,4.88,2.25,1.28-.65,1.6-.65,1.12.08A6.31,6.31,0,0,1,231,254c-1.6.64-1.92,1.29-1.92,3.93a12.66,12.66,0,0,1-.72,3.61,22.33,22.33,0,0,0-.23,3.29c0,3.37,2.73,4.61,8.29,3.25,3.19-.78,1.86-.34,4.12-1.84a23.6,23.6,0,0,0,2-4.78,10.22,10.22,0,0,1,1.92-3.93c.48-.32.64-.08.4.56-2.24,5.46-2.4,7.22-1.12,9.95,1.12,2.41,1.76,2.81,4.08,2.81,2.49,0,.79-.69,3.51-3.86a9.65,9.65,0,0,1,2-3c.56-1.11.49-1.06.43-1.7-.12-1.38,1.31-1.08,1.71-1.08,3.12,0,4.32-6.82,2.08-11.23-1.52-3-2.08-3-4.24,0-3.28,4.41-9.77,2.57-9.77-2.81a6.22,6.22,0,0,1,1.28-3.69c.88-1,1-1.76.48-2.81s-2.08-1.44-6.72-1.6c-5.37-.24-6-.08-7.05,1.52Zm12.17,1.45c-.56,2.24-1.84,3-4.48,2.56-1.6-.24-2.88-.08-3.2.49s.24.88,1.68.88c2.8,0,3.84.72,4.56,3,.4,1.36-.08,2.32-2.4,4.41-2.48,2.33-5.13,6.1-5.13,7.46s1.85,0,2.49-1.92c1.2-3.29,5.84-6.74,8.16-6,2.48.72,3,1.76,3,6.1,0,2.24.4,3.85.88,3.85s.72-1.37.32-4.1c-.4-3.12-.32-4.33.48-4.81,1.84-1.2,3.12-.8,3.12.88,0,.89.4,1.61.88,1.61s.72-.88.48-2.17c-.8-4.25,1.36-6,2.24-1.84.72,3.13-.24,7.22-1.6,7.22a3.75,3.75,0,0,1-2.32-1.77c-1.52-2.08-2.8-1.2-1.44,1a5,5,0,0,1-.64,6.57,6.11,6.11,0,0,0-1.6,2.81c0,1.77-2.73,1.13-3.69-.88-.64-1.36-.56-3,.24-6,1.12-4.41.88-5.69-1-5.69-1.28,0-3.6,3.93-3.6,6.17-.08,3.77-3.52,5.62-9.69,5.22-2.08-.16-2.16-.32-1.44-3.21a27.74,27.74,0,0,0,.72-5.38c0-1.84.64-2.88,2.8-4.33,3.21-2.16,3.85-4.57,1-3.61-3.76,1.2-5,.88-4.8-1.28a5.42,5.42,0,0,1,1.36-2.81,4.45,4.45,0,0,0,1.36-2.81c.16-1.6.8-2.09,3.05-2.41,5.2-.72,8.4-.4,8.16.89Z"/><path d="M201.78,160.53c-.18.53-.7.88-1.8,1.26-2.35.82-5.59,2.44-5.68,2.93,0,.27,1.12,1.29,2.49,2.17,3.65,2.4,3.72,2-.34,2.34-3,.26-3.68.93-6,3.09a42.23,42.23,0,0,1-3.23,2.76,6.58,6.58,0,0,0-1.93,2.3c-.17.7.92,1.36,2.66,3,2,2,3.9,2.8,5.26,2.83s2.53-.72,5.2-2.69a30,30,0,0,1,3.56-2.59c1.25-.43,1.24-.28,1.91.16,1,.67.93,1.68,0,2.68a4.31,4.31,0,0,1-1.47,1c-.64,0-4.06,4.12-4.67,5.49-.75,1.67-.77,3.22,0,3.78a1.88,1.88,0,0,0,2.66-.22,5.28,5.28,0,0,1,2-.83c1.11,0,1.72-1.1,2.85-2.16,1.51-1.4,2.65-1.7,2.94-3.4.12-.7-.12-1.45,0-1.54.47-.29.9.32.9,1.28,0,3.46,3,4.22,4.49,1.17a8.12,8.12,0,0,1,1.5-1.6c.64-.73,1.44-3.08,1.24-3.61s-1.55-.17-2.21.53a10.91,10.91,0,0,0-1.63,2.22c-.72,1.47-1.16,2.11-1.56,1.7-.09-.09.55-.75.81-1.69.58-2-.18-2.58-1.74-2.58-1.25,0-2.32.64-4.15,3.07-3.57,4.77-3.33,3.71,0-1.44a8.18,8.18,0,0,0,1.09-3.39,4.78,4.78,0,0,0-1.77-3.69c-1.16-.76-3.73-1-7,.19-1.42.53-3.61,1.39-4.1,1.48-.84.14-.69.51-.25-.2,1-1.52,5.55-3,8.54-3.09,2.41,0,3-.87,3.55-2,.95-1.9,1.29-2.62-.8-4.81-1-1.09-2.09-1.95-2.09-2.07,0-.58.57-.06,2,1,2.17,1.67,3,2,4.29,2s3.77-1.08,3.45-1.9a6.38,6.38,0,0,0-2-1.77,24,24,0,0,1-3.13-2.05c-2.93-2.23-5.3-2.47-5.82-1.16Z" fill="#129612"/><path d="M200.36,159.49a7.11,7.11,0,0,1-3.6,1.61c-3.76.72-5.2,4.73-2.08,5.7,2.32.72,1.92,1.84-.48,1.36-1.68-.32-2.64.16-4.25,2a13.76,13.76,0,0,1-3.44,2.88,2.06,2.06,0,0,0-1.44,1.61,3.5,3.5,0,0,1-1.2,2.16c-1,.89-.72,1.53,2.56,4.5,2.16,1.92,4.48,3.45,5.29,3.53,1.92,0,5.44-1.85,7.28-3.93a5,5,0,0,1,2.64-1.69c.64,0-.24,1.37-2,3-3.92,3.77-5.2,8.5-2.56,9.87,2.24,1.2,6.8-.24,9.85-3,1.2-1.12,2.16-1.68,2.16-1.2a1.79,1.79,0,0,0,1.28,1.36c1.44.56,4.32-.8,4.32-2.09a2.75,2.75,0,0,1,1.12-1.76c.64-.48,1.37-2.25,1.61-3.93l.56-3.05-3.61.48c-3.2.48-3.84.32-5.68-1.52-1.68-1.69-2.08-2.65-1.68-4.34.64-2.56,3.28-5,5.44-5s1.68-3.93-.56-5.14a27,27,0,0,1-3.84-2.72c-2.56-2-6.33-2.33-7.69-.65Zm6.81,2.49a14.24,14.24,0,0,0,3.76,2.49c2,.64,1.68,2.49-.64,2.89-1.36.32-2.72-.16-4.24-1.45-2.08-1.84-3.37-2.4-3.37-1.52a9.08,9.08,0,0,0,2.17,2.33c1.68,1.44,2,2.24,1.52,3.93-.48,1.92-.88,2.16-3.93,2.16-3.44,0-8.64,2.17-9.2,3.85-.16.57,1.2.24,3.2-.64a18.37,18.37,0,0,1,6.32-1.6c2.33,0,3.05.4,3.85,2.16s.72,2.41-.56,4.18c-2.33,3.13-3.53,5.69-2.73,5.69.4,0,1.77-1.44,3-3.21,1.6-2.4,2.72-3.21,3.92-3.05,1.68.33,1.84.73.88,3.21-.32.81-.24,1.45.24,1.45s1.2-1.13,1.68-2.41c1-2.89,3.69-3.45,2.8-.64a3.77,3.77,0,0,1-1.2,2.09,1.25,1.25,0,0,0-.72,1.12,3.44,3.44,0,0,1-1.36,1.92c-1.84,1.29-3.44.08-3.44-2.56,0-1.05-.32-1.93-.8-1.93s-.8.88-.8,1.93c0,2.16-3.36,5.29-5.69,5.29a1.77,1.77,0,0,0-1.68,1c-.16.49-1,.73-1.68.41-1-.41-1.28-1.05-.88-2.73.48-2.25,4.4-6.66,5.76-6.66,1,0,1.93-2.33,1.29-3.29-.81-1.36-3.45-.72-6.09,1.52-4.32,3.77-6.48,3.85-10.17.57-3.12-2.89-3.2-2.89-1.6-4.5a5.79,5.79,0,0,1,2.08-1.52,7.46,7.46,0,0,0,2.49-2.25c1.52-1.68,2.56-2.17,5.12-2.17,4.24,0,4.64-1.2,1-3.12-1.52-.89-2.8-1.77-2.8-2.09,0-.64,2.8-2.09,5.44-2.81,1-.32,1.76-.88,1.76-1.28,0-1.45,3-.72,5.29,1.28Z"/><path d="M399,162.59a14.88,14.88,0,0,0-2.48,1.26c-.81.62-3.11,1.89-3.93,2.36-1.71.94-1.19,1.92,0,2.71s3.64.75,6-1c3.28-2.46,3.28-2.45.47.3-2,1.9-1.88,2.9-1.32,4.66.49,1.55,1.32,2.25,3.67,2.25,2.85,0,7.22,1.73,8.52,3.19,1.16,1.29,1,.34-3.34-1.27-2.82-1-6.56-1.32-7.69-.56-1,.62-2.6,3.65-2.36,4.62.11.38,1.32,1.82,2.25,3.26,1.59,2.46,2,3.38,1.68,3.74s-.5-.59-2.5-3.19c-1.88-2.43-3.17-3-4.71-2.79-.78.08-.63.59-.6,1.67a10.66,10.66,0,0,0,.26,2.17c.38,1.61-.7,1-1.74-.91s-1.9-3.6-2.63-3.6-.59,2.46.31,3.69A14.1,14.1,0,0,1,390,187c.64,1.38,1.89,2.49,2.79,2.49,1.1,0,1.71-.82,2-2.78.43-2.64,1.21-3,1.59-.65a5.89,5.89,0,0,0,2.09,3.78,6.75,6.75,0,0,0,3.83,2,2.58,2.58,0,0,1,1.36.73c.84.8,1.31.88,2.18.44a2.76,2.76,0,0,0,.74-3.34c-.81-2-3.95-5.49-5.58-6.17a2.41,2.41,0,0,1-1.44-2.42,1.14,1.14,0,0,1,.58-1c1.1-.52,2.47.17,5.34,2.28a33.46,33.46,0,0,0,3.33,2.14,5.24,5.24,0,0,0,4.91-.24c1.71-1,5-4,5-4.69s-.85-1.73-2.24-2.67a28.25,28.25,0,0,1-3.12-2.65c-2.15-2-2.63-2.58-5.68-2.85-2.52-.23-3.55-.22-3.26-1a9.74,9.74,0,0,1,2.43-1.84c2.38-1.56,2.47-1.67,2-2.17s-2.52-1.52-5.19-2.52c-.93-.32-1.48-.73-1.65-1.2-.35-.88-1.42-.91-3-.12Z" fill="#129612"/><path d="M403.63,161.49a7.19,7.19,0,0,0,3.6,1.61c3.76.72,5.2,4.73,2.08,5.69-2.32.72-1.92,1.85.48,1.37,1.68-.32,2.64.16,4.24,2a13.63,13.63,0,0,0,3.45,2.89,2,2,0,0,1,1.44,1.61,3.5,3.5,0,0,0,1.2,2.16c1,.88.72,1.53-2.56,4.5-2.17,1.92-4.49,3.45-5.29,3.53-1.92,0-5.44-1.85-7.28-3.94a5.08,5.08,0,0,0-2.65-1.68c-.64,0,.24,1.36,2,3,3.92,3.77,5.2,8.5,2.56,9.87-2.24,1.2-6.81-.24-9.85-3-1.2-1.13-2.16-1.69-2.16-1.21a1.79,1.79,0,0,1-1.28,1.37c-1.44.56-4.33-.8-4.33-2.09a2.75,2.75,0,0,0-1.12-1.76c-.64-.48-1.36-2.25-1.6-3.93l-.56-3.05,3.6.48c3.21.48,3.85.32,5.69-1.53,1.68-1.68,2.08-2.64,1.68-4.33-.64-2.57-3.28-5-5.44-5s-1.69-3.94.56-5.14a26.33,26.33,0,0,0,3.84-2.73c2.56-2,6.32-2.32,7.69-.64ZM396.82,164a14.24,14.24,0,0,1-3.76,2.49c-2,.64-1.68,2.48.64,2.88,1.36.33,2.72-.16,4.24-1.44,2.08-1.85,3.36-2.41,3.36-1.52a9,9,0,0,1-2.16,2.32c-1.68,1.45-2,2.25-1.52,3.93.48,1.93.88,2.17,3.92,2.17,3.45,0,8.65,2.17,9.21,3.85.16.56-1.2.24-3.2-.64a18.45,18.45,0,0,0-6.33-1.61c-2.32,0-3,.41-3.84,2.17s-.72,2.41.56,4.17c2.32,3.13,3.52,5.7,2.72,5.7-.4,0-1.76-1.44-3-3.21-1.6-2.41-2.72-3.21-3.92-3.05-1.68.32-1.84.72-.88,3.21.32.8.24,1.45-.24,1.45s-1.2-1.13-1.68-2.41c-1-2.89-3.69-3.45-2.81-.64a3.69,3.69,0,0,0,1.2,2.08,1.26,1.26,0,0,1,.72,1.13,3.46,3.46,0,0,0,1.37,1.92c1.84,1.29,3.44.08,3.44-2.57,0-1,.32-1.92.8-1.92s.8.88.8,1.92c0,2.17,3.36,5.3,5.68,5.3a1.78,1.78,0,0,1,1.69,1c.16.48,1,.72,1.68.4,1-.4,1.28-1,.88-2.72-.48-2.25-4.41-6.66-5.77-6.66-1,0-1.92-2.33-1.28-3.29.8-1.37,3.44-.73,6.09,1.52,4.32,3.77,6.48,3.85,10.16.56,3.13-2.89,3.21-2.89,1.61-4.49a5.87,5.87,0,0,0-2.09-1.53,7.3,7.3,0,0,1-2.48-2.24c-1.52-1.69-2.56-2.17-5.12-2.17-4.24,0-4.65-1.2-1-3.13,1.52-.88,2.8-1.76,2.8-2.08,0-.64-2.8-2.09-5.44-2.81-1-.32-1.77-.88-1.77-1.28,0-1.45-3-.73-5.28,1.28Z"/><path d="M360.46,241.59c-.9.35-1,.61-.55,1.67.64,1.49,1.28,2.22,3.43,2s3.1-.1,3.31.46.52.26-1.78.5a4.35,4.35,0,0,0-3.26,1.45c-1.77,2-1.53,3.5,1.54,6.78,3.43,3.65,4.57,3,5.12,7-.35.59-.83.06-1.81-1.82-1.74-3.25-4.61-6.16-7-6.6-1.3-.23-3.92.91-4.38,2a34.94,34.94,0,0,0-.24,4.19c-.2,3.37-.15,4.28-.76,3.37-.34-.56-.24-.38.11-3.39s.2-4.8-.87-5.35c-1.37-.7-2.76-.12-2.94.82-.23,1.11-.81,2.22-1.16,2.25-.17,0-.31-1.11-.37-2.72a10,10,0,0,0-.41-3.16c-1.1-1.35-2.09,1.14-1.91,4.83.2,4.42,1.3,5.21,3.74,2.69a1.55,1.55,0,0,1,1.5-.63c.64,0,.25.18-.48,1.79-1.13,2.52-.7,4,.87,6.35a24,24,0,0,1,1.71,3c.55,1.31,2.42,1.22,3.72,0,.82-.74,1-1.24,1.15-2.91a18.56,18.56,0,0,0-.75-4.39c-1-4.19-1.25-5.22.4-5.22,1.45,0,3.13,3.15,3.6,6.34.38,2.63,2.11,4.11,5.36,4.81a17.37,17.37,0,0,0,5.66,0c1.08-.23,1.14-.76.47-4.3a37.6,37.6,0,0,1-.47-3.78c0-2.19-.34-3.31-2.66-5.24-3.39-2.81-4.14-3.69-.92-2.87s4.82,0,4.5-2a9.69,9.69,0,0,0-1.34-2.54,13.68,13.68,0,0,1-1.24-3.45,3.74,3.74,0,0,0-1.51-1.82c-1.16-.79-7.91-.77-9.33-.18Z" fill="#129612"/><path d="M371.76,241.17c1.92,3,4,7.86,4,9.47,0,2.08-2.8,3.45-4.88,2.24-1.29-.64-1.61-.64-1.13.08a6.36,6.36,0,0,0,2.49,1.61c1.6.64,1.92,1.28,1.92,3.93,0,1.76.32,3.37.72,3.61s.72,1.77.72,3.29c0,3.37-3.35,3.84-6.68,3.87a20.42,20.42,0,0,1-6.22-2.21,25.73,25.73,0,0,1-2-5,10.14,10.14,0,0,0-1.92-3.93c-.48-.32-.27,3,0,3.66,2.24,5.45.92,3.13.62,7.59-1.37,1.42-2.05,2.06-4,1.94s-2.26-.81-3.5-2.62c-.8-2-3-5.9-2.82-4.47,0,.49-.88-2.41-1.28-2.41-3.13,0-4.33-6.82-2.08-11.23,1.52-3,2.08-3,4.24,0,3.28,4.41,9.77,2.56,9.77-2.81a6.19,6.19,0,0,0-1.28-3.69c-.89-1.05-1.05-1.77-.48-2.81s2.08-1.44,6.72-1.61c5.36-.24,6-.08,7.05,1.53Zm-12.17,1.44c.56,2.25,1.84,3,4.48,2.57,1.6-.24,2.88-.08,3.2.48s-.24.88-1.68.88c-2.8,0-3.84.73-4.56,3-.4,1.37.08,2.33,2.4,4.42,2.48,2.32,5.12,6.09,5.12,7.46s-1.84,0-2.48-1.93c-1.2-3.29-5.84-6.74-8.16-6-2.49.73-3,1.77-3,6.1,0,2.25-.4,3.85-.88,3.85s-.72-1.36-.32-4.09c.4-3.13.32-4.33-.48-4.81-1.84-1.21-3.12-.8-3.12.88,0,.88-.4,1.6-.88,1.6s-.72-.88-.48-2.16c.8-4.25-1.36-6-2.24-1.85-.72,3.13.24,7.22,1.6,7.22a3.76,3.76,0,0,0,2.32-1.76c1.52-2.09,2.8-1.2,1.44,1a5,5,0,0,0,.64,6.58,6.06,6.06,0,0,1,1.6,2.81c0,1.76,2.72,1.12,3.68-.88.65-1.37.57-3-.24-6-1.12-4.41-.88-5.7,1-5.7,1.28,0,3.6,3.93,3.6,6.18.08,3.77,3.52,5.62,9.69,5.22,2.08-.16,2.16-.33,1.44-3.21a27.84,27.84,0,0,1-.72-5.38c0-1.84-.64-2.89-2.81-4.33-3.2-2.17-3.84-4.58-1-3.61,3.77,1.2,5.05.88,4.81-1.29a5.42,5.42,0,0,0-1.36-2.8,4.48,4.48,0,0,1-1.36-2.81c-.16-1.61-.81-2.09-3.05-2.41-5.2-.72-8.4-.4-8.16.88Z"/><path d="M302.48,66.8a6,6,0,0,1,6,6.1,6.07,6.07,0,0,1-6,6.1,6.15,6.15,0,0,1-6.08-6.1,6.09,6.09,0,0,1,6.08-6.1ZM211.42,198a7,7,0,0,1-7.15-7,7.16,7.16,0,1,1,14.31,0,6.92,6.92,0,0,1-7.16,7Zm.11-30.92a6.9,6.9,0,0,1,0,13.8,6.9,6.9,0,0,1,0-13.8Zm-12.92-16.37a6.85,6.85,0,1,1-6.83,6.85,6.87,6.87,0,0,1,6.83-6.85Zm206.14,3.64a8,8,0,0,0-8,7.92,8.08,8.08,0,0,0,8,8,8,8,0,0,0,7.9-8,7.89,7.89,0,0,0-7.9-7.92Zm-14.09,43.11a7.33,7.33,0,1,0-7.37-7.38,7.36,7.36,0,0,0,7.37,7.38Zm1-30.27a7.38,7.38,0,0,1,0,14.76,7.38,7.38,0,0,1,0-14.76ZM363,233.9a5.51,5.51,0,1,0,5.55,5.46A5.47,5.47,0,0,0,363,233.9ZM354.26,241a5.86,5.86,0,0,1,5.87,5.89,5.87,5.87,0,1,1-11.74,0,5.86,5.86,0,0,1,5.87-5.89Zm-10.36,6.53a7.22,7.22,0,1,1-7.15,7.16,7.2,7.2,0,0,1,7.15-7.16ZM237.2,233.26a6,6,0,1,1-6.08,6c0-3.32,4.75-6,8.06-6Zm11.59,6.1a6.9,6.9,0,1,0,6.94,6.95,6.9,6.9,0,0,0-6.94-6.95Zm11.31,19.89a6.15,6.15,0,1,1,0-12.3,6.15,6.15,0,1,1,0,12.3Z" fill="#ffd300" stroke="#000" stroke-width="1.2"/></svg>