<svg xmlns="http://www.w3.org/2000/svg" width="196" height="300" viewBox="0 0 196 300"><title>flag-nebraska-icon-wheat</title><path d="M171.22,95.53h0c-3.42.88-6.78-2.33-8.69-4.54h0l-.57-.63-.51.26h-2.12L159,90l-.28.14L159,90l-.3-.61h-3v2.32a2.58,2.58,0,0,1-1.4-1.07,6,6,0,0,0-.06-1.62l-.2-.85h-2.33a3.48,3.48,0,0,0-.43-.25l-.79-1.59-1,.5-.79-.78-1.81,1.82-.13,0-1.65-.83h0l-.73-.36-.56.57.78.78.43-.84-.42.84h0l2.45,1.22,2.44-2.44,1.23,2.44h2.43c.36,1.6-1,4,1.22,4.89,1.71.48,2.44-1.6,3.66-2.45h-1.22V90.51H158L159.26,93l2.45-1.23c1.94,2.2,5.47,5.86,9.75,4.88l-.24-1.07.25,1.07.86-.68-.43-.55Zm-9.52-3.8-.45-.89h0l.45.89Z"/><polygon points="162.92 151.53 162.26 150.87 162.92 151.53 162.92 151.53"/><path d="M143.83,87.29l-.26.26a7.63,7.63,0,0,0-3.92-2.74,7.78,7.78,0,0,0-5,.3l-.63.06-.62-1.25h0l-2.06.78c.2.18,0,.44-.35.82l-2.49.36a20.19,20.19,0,0,1-3.27.19c-1-.31-1.31-.56-1.47-1.74l-1.11.07c.25,3.79,4.76,2.69,7.33,3.66.85-1.22,2.93-1.95,2.43-3.66l.89-.44-.84.42-.05,0,1.23,2.44c4-2.44,7.93-1,9.76,2.44l1.21-1.22h0Z"/><path d="M190.33,244.37c-1.07-7.13-1.4-14.25-2.24-21.4-1.83-15.51-4.23-30.91-5.55-46.49a108.67,108.67,0,0,1,0-23.23c1.06-8,3.26-15.85,5.34-23.65a.74.74,0,0,1,.45-.54c-.25-9.64-2.2-19.22-1.28-28.85a.72.72,0,0,1-.76-.71c-1.63,0-3.27,0-4.91,0-3.8-.83-7.56-1.42-9.07-3.52l-.86.68c2.68,3.41,8.9,3.3,13.42,4.88l.58,25.66c-5.21,17.93-8.74,36.66-5.33,56.61l-.18,2.86c.86,6.47,2.79,11.6,1.82,18.92,6.44,17.18,3.92,39.1,6,57.42-14.43,6.59-26.78-5.93-39.48-10.14-9.27-8.65-30-5-29.27-22,7.43-4.15,16.59-4,24.4-7.32v-1.23a14.22,14.22,0,0,0,12.19,0c.37-4.51-4.86-5.73-7.32-8.54-4.4-7.92-6-21.6,0-29.29-2.44-4.15-.85-9.64,1.22-13.43,2.81-2.07,5.14-2.32,8.55-1.21-.25,2.93,2.93,6,0,8.54l2.44,2.44,6.1-18.3-1.21-1.23c9.14-5.73-1.83-12.2,0-19.53-2.69-1.33-6.12-9.76-11-4.87.08-1.46-1-2.44-2.14-3.4-.75-3.52-1.76-7.55-6-7.94-1.49-.13-2.77.57-4.21.71-2.24.21-3.81-.66-5.87-1.11a5.52,5.52,0,0,0-4.91.92c-2.17,1.53-3.44,2.38-5.85.61a4.82,4.82,0,0,0-1.74-1c-.5-.18-1.12.08-1.63,0-1.75-.21-3.74-.86-5.49-1-3.35-.26-5,2.35-8.55.41a22.5,22.5,0,0,0-3.94-2c2.38-.79,5.46-1.13,7.58-2,4.5-6.58,21.24-10.61,15.85-22-6.45-2.45-13-4.88-19.51-7.33-2.44,3.3-4.89-.84-7.33-1.22-2.07,3.67-3.29-1.83-6.1,0l3.67-7.31c2.56.36,8.9-1,12.2,1.21l1.22,2.44,2.43-1.22,1.23,1.22c2.43-3.78,5.36,2.92,7.32-2.44l-1-.37c-.45,1.22-.84,1.41-.92,1.43l-1.09-.26a4.81,4.81,0,0,0-3.19-.57c-2.07-.56-4.15-1.16-6.3-1.65-4-1.79-9.69-.53-11.71-.9l0,.2h0l0-.2L97.6,82l-.15.29c-1,0-2.1,0-2.79-.81-.93-1-.47-3.18-.52-4.42-.08-2.09-.53-4.34,0-6.42a3.43,3.43,0,0,1,2.37-2.85c.65-.2,1.53.14,2.08-.09,2.93-1.2,1-4.62.18-6.21-2.46-4.78-6.08-9.52-9.2-13.9C87.67,45,85.49,43,82.15,42.79c-1.31-.09-2.61.08-3.92-.12-2.94-.43-5.79-1.62-8.71-2.22a4.71,4.71,0,0,1-3.19-1.57c-1.36-1.55-2.16-6.53-4.89-6.32a.88.88,0,0,1-.37-.05c-2.41-.23-6.13-1.27-7.91-.19-2.56,1.57-1.08,6.58-4,8.3-1.56.92-3.46.85-5.16,1.22a14.61,14.61,0,0,0-7.27,4,86.76,86.76,0,0,0-8.25,8.89c-3.18,3.85-5.42,7.91-5.52,13,0,2,.16,4.8-1.4,6.4-1.82,1.85-4.76,1.25-7,1C9.8,74.55,5.25,74.22.89,76c8.88,37.55,26.32,71.56,48.54,103.6,20.63,27.34,50,48.82,74.43,67.13,18.18,4.88,33.85,15.78,51.76,21.22,4.83.56,9.55.14,12.7-2.81C193.37,260.42,191.22,250.3,190.33,244.37Zm-49.38-55-11,1.23v-3.66h3.31c.52,0,1.06,0,1.56,0h-1.56a2.25,2.25,0,0,0-2.1,1.22C133.64,190.34,137.67,189,141,189.36ZM136.07,182c-2.32-5.24,4.14-11.34,3.67-15.86-7.69,2.44-3.43,12.93-9.76,15.86-2.2-1.58-1.1-6.95,0-9.76,1.09-4.15,7.44-6.23,7.32-11,2.44,1.1,0,5.37,3.65,4.89ZM130,204h-1.22v-4.88H130Zm15.85,12.21-.36.36.36.86h-1.22l.86-.86-.21-.49c-2.56-.91-3.33-6.07-6.74-2.32l1.22,2.45-2.44,2.44,1.22,1.22c-6-2.69-3.78,1-3.67-4.89l-2.44-2.44V195.46L130,196.69l3.66-2.45c-.37,1.6,1,4-1.23,4.89l2.44,2.44c1.6-1.34,1.83-3.18,2.45-4.88h2.44c-1.46,4.15-2.81,11.22,1.21,14.64l1.23-2.44,3.08,7.2A2.63,2.63,0,0,0,145.83,216.22Zm-3.65-36.62-2.44,1.22c4.26-3.66,1.21-15.25,7.32-13.42C143.64,170.7,143.76,175.57,142.18,179.6Zm-22-74.44c-2.81,4.15-7.08,9.88-12.2,11l-1.23-1.21C111.31,111.63,115.2,103.45,120.21,105.16ZM92.13,124.69H87.27c10.12-8.55,18.17-22.21,30.5-25.63ZM108,96.61l1.22,1.22L83.6,123.47c-.73-1.47-2.33-1.23-3.66-1.23C89.34,113.7,97.63,102.59,108,96.61ZM97,95.4l3.65,1.21c-8.18,7.33-15.25,17.21-24.4,22l-1.23-1.22ZM42.11,91.73H47L31.12,106.38C30.88,99.91,38.45,96.61,42.11,91.73Zm-20.75,11c6.1-4.52,11.1-15.25,18.3-13.43C33.69,94.18,29.29,102.59,21.36,102.72ZM50.64,93c.73,1.45,2.32,1.22,3.65,1.22h0c-5.23,4-10,13.06-15.84,12.2ZM62.85,95.4,49.43,107.6,47,106.38C48.57,106.38,56.5,92.83,62.85,95.4Zm8.54,1.21c-5.24,4.52-9.51,11.6-15.87,13.43C58.21,104.55,64,95.88,71.39,96.61ZM84.82,93C87,89.29,85.67,84,86,79.53c-2.07-2.2-5.74-.86-8.54-1.22-2.2,4.51-.86,10.61-1.22,15.87-1.23-2.2-4-.86-6.1-1.22V80.74c.24-10.61,8.17-17.93,12.19-26.83,2.81,4,6.48,8.9,8.55,12.2C88.85,73.55,96.05,89.9,84.82,93Zm-4.88,4.87c-6.1,5.26-11.12,13.19-18.31,15.87C65.16,107.35,71.64,98,79.94,97.83Zm4.88,0L86,99.06c3.3.73,1.1-4.27,4.89-2.45L70.18,117.36c-.74-1.47-2.33-1.22-3.67-1.22Zm-9.77,24.41c-3.54,2.45-5.49,8.42-11,6.1C67.73,126.27,70.29,118,75.05,122.24Zm3.66,3.66c0,1.34.26,2.93-1.21,3.66-1.35,0-2.93.25-3.66-1.22C75.3,127,76.4,125.17,78.71,125.9ZM90.92,55.12c.85,2.44,4.51,6,4.87,9.76H93.36L84.82,47.8C87.87,47.68,88.85,52.68,90.92,55.12ZM61.63,34.38C64.68,35.84,64,39,64.06,41.7H61.63Zm-7.33,0c2,0,5.26-.49,4.89,2.43-.36,2.08,1,4.89-1.22,6.11H54.3Zm-6.09,9.76c10,6.59,17.81-3.3,29.29,0C77.25,52.8,62.85,55.49,69,63.67c2.8-7,8.42-14.89,14.65-18.31L70.18,68.54a25,25,0,0,0-7.33,0c-10.62-2.68-25,.25-34.16-2.43l-1.23,1.22L25,66.11C31.73,58.42,36.36,45.48,48.21,44.14Zm-42.72,33c1.71-.25,3.55,2.93,4.89,0l1.22,1.22-6.11,6.1C3.55,82.71,4,78.92,5.49,77.09ZM6.72,93c-2.33-7.08,7-9.29,8.53-14.65.85,2.2,3.3.85,4.89,1.22V82C14.65,83.07,11.22,89.29,6.72,93ZM26.24,80.74c-4.76-1.94-.37-4.76,0-7.31H69c-4.89,5.49-.6,12.2-3.66,19.53-8.42,1.22-13.06-6.72-20.75-7.33C38,87.59,30,82.09,23.79,83.2L25,84.41,9.15,100.27C9.65,91.61,19.53,84.66,26.24,80.74Zm-14.64,22c5.74-5.25,10.86-11.84,17.09-15.87l1.21,1.22L12.81,106.38Zm8.54,11c1.19-.17,2.44,1.32,3.55,1.24A11.13,11.13,0,0,1,25,113.7c-.41.88-.86,1.2-1.34,1.24-1.47,1.54-2.79,3.36-4.78,3.64Zm1.22,9.77c2.81-4.15,7.07-9.89,12.2-11-1.1,5.14-6.83,9.4-11,12.22Zm17.09-8.54h4.87L25,133.22C23.19,126,33.93,121,38.45,114.93Zm-9.76,20.74c6-6.59,12.43-17.33,22-18.31L31.12,136.89Zm4.87,3.66,22-22c.74,1.47,2.33,1.22,3.67,1.22L34.78,143C33.32,142.26,33.56,140.67,33.56,139.33ZM36,151.53v-4.87L62.85,119.8h3.66c-5.38,10-16,12.58-23.19,20.75C44.78,145.8,38.45,147.87,36,151.53ZM38.45,154c1.59-1.22,2.67-3.78,4.87-3.66,0,1.35.25,2.93-1.21,3.66ZM66.56,192.2a6.92,6.92,0,0,1,0,3.26c-.22-1,.17-2.22,0-3.26l-.06-.26a1.79,1.79,0,0,0-1.2-1.35l-1.24,1.22,1.24-2.45c-3.18-.73-1.47-3.17-3.67-4.88l-2.44,2.45L54.3,182l1.23-1.22-2.44-2.44-1.22,1.22c-.61-5.86-6.71-6.34-7.32-12.2H43.32c2.45-2.08.73-6.59-1.21-7.32l2.43-1.22H43.32v-1.23h1.23c0,.4,0,.82,0,1.23h0a2.43,2.43,0,0,0,1.23,2.43c.85-1.21,2.92-1.94,2.44-3.66L47,156.42c1.47-.74,1.23-2.32,1.23-3.67l2.43-1.22c0-1.34.26-2.93-1.21-3.66H47c-1-3.9,5.75-7.08,7.32-9.76-.47,1.71,1.6,2.44,2.46,3.65,1.7-1.46,1.57-3.65,3.66-4.87l1.21,1.22a2.3,2.3,0,0,1,.89-.89l.33-.33a2.71,2.71,0,0,0,.4,0,6.08,6.08,0,0,1,1.77-.08,4,4,0,0,1,1.48.09,5.56,5.56,0,0,0,1.23-.05v1.22a1.8,1.8,0,0,0-1.23-1.17L65,136.85a12,12,0,0,1-1.77.08,2.72,2.72,0,0,0-.73.29l-.89.89c5,3.3,10.5,4.27,15.87,1.22-1.59-5.74,5.11-1.47,6.1-6.11L81.15,132l-1.21,1.22v-2.43h2.43l1.23,2.43c1.46-2.56,4-2.43,6.1-3.66.12,2.2-2.43,3.3-3.66,4.89,4.26,1.83,9.39-1.23,13.42-3.66-1.46-.73-1.21-2.33-1.21-3.66l2.43-1.23c.77-.64,3.12-.6,4.33.27,2.22,1.62,4.68,2.07,7.16,2.78l3.07-1.23c1.34-.67,2.51,1.05,3.9,1s3.1.52,4.58-.25c.68-.34,2.15,2.34,3.65,2.12l1.55-.54,1.79-.12c1.31-.47,2.7-1.54,3.91-1,1.6.74,3.16,0,4.69.65l3.32.08c2.37-1.32,5.1-1.14,7.32,2.14l.78.15c-2.57-.36-4.65.25-6.12,2.45,4.52,2,5.26,5.37,9.77,7.31l1.21-1.21,1.23,1.21,2.44-2.43v2.43L158,140.55,155.59,143c1.47,1.71,3.67,1.6,4.9,3.68a2.32,2.32,0,0,0,1.22-2.17V143c0,.49,0,1,0,1.51v2.17l-2.45,1.21,2.44,2.45h0l.55.56-.19-.2,1.21-1.22.86.86-1.22,1.22h0l2.44,1.21V154h-2.45l1.22-1.22-1.21-1.21h0l-1.22-1.21c-3.65,4.88,1.84,9,0,14.63a13.83,13.83,0,0,1-7.33-4.87c-1.46,1.34-2.56,3.17-4.88,2.43,1.7-6.71-2.81-9.88-3.67-14.64l-2.43-1.21L141,149.09l2.45,2.44,1.21-1.22c0,1.35.25,2.93-1.21,3.66-.74-1-3.19-2.55-4.88-3.66l-6.11,2.44c.25,2.45-1.22-3.16-4.89-1.22L125.09,154c-1.33,0-2.93-.24-3.66,1.23l1.22-2.45c-6.11-8.17-11.11,2.81-15.87,6.11l1.23-1.23-2.44-1.21c1.1,2.55-2.45-4-4.89,0l-1.22-1.22c1.71.48,2.45-1.6,3.66-2.45-4.64-7.81-6.47,5.5-12.2,2.45l2.44-2.45c-4.16-7.44-6.83,3.78-11,3.67L79.94,154c-.86,2.81-3.43,4.89-2.44,8.54L75.05,154c-6.1,3.66-14.28,7-17.08,13.43l-2.44-1.22-1.23,2.44c1.23,2.19,4,.85,6.12,1.22l-3.66,3.65c2.19.86,3.66,3.67,6.09,1.23l-1.22,2.44c3.9,3.54,5,5.13,6.1,9.77l-1.21-1.22c-1.57,1.81-.53,3.9,0,6.23A2.44,2.44,0,0,1,66.56,192.2ZM108,199.13l1.22-2.44,1.22,2.44,1.22-2.44h1.22c-1.22,4.51-2.44,8.91-3.66,13.42C107,207.18,113.86,201,108,199.13Zm-1.23-15.87-2.44-8.53L103.12,176v-2.46c1.35,0,2.93.25,3.66-1.21l-2.44-1.23c-1.83-2.8,3.67-4,0-6.09a16.43,16.43,0,0,0,9.76-6.1c4.9,1.1.61,8,3.67,11L119,167.4c1.33,6-3.8,9.27-3.67,14.64H114.1c.37-3.3,4.52-6.47,1.23-9.76C112.52,176,111.31,182.41,106.78,183.26Zm9.76,6.1,1.23,1.23c1.23-2.19,2.19-2.69,4.88-2.44v3.66h-9.76C114.1,191,114.84,188.87,116.54,189.36Zm3.67-7.32H119l2.43-8.55C124.72,176.31,120.57,179.24,120.21,182Zm-45.16,1.22-1.21-2.44c2.8-2.57-6.23-11.84,3.66-9.77l1.21,2.44c5-3.16,6.23-9.87,11-11-2.07,2.69-4,7.08-2.43,9.77,7.31,0,4.14-13.31,11-11,1.83,4.4-3.67,7.33,0,11-2.2,1.7-.86,4.88-1.22,7.32l1.22,1.22,1.21-2.44V182L97,179.6a2.05,2.05,0,0,0-1.16,1.58,3.2,3.2,0,0,1-.08,2.08,11.08,11.08,0,0,1,.08-2.08c-.45-1.49-1.9-2.54-2.51-4-3.06-.25-2.44,3.3-3.66,4.88a5.88,5.88,0,0,0-7.33,0c-1.83-4,3.67-6.47,0-9.76C76.28,173.38,79.33,180.33,75.05,183.26Zm18.31,6.1c1.59.62,5.62-.24,8.55,0l-1.23,1.23a1.81,1.81,0,0,0,1.37,1.21c.62,0,1.24,0,1.86,0a5.74,5.74,0,0,1,1.66,0h-1.66a6.1,6.1,0,0,1-1.86,0c-8.3.13-17.13,1.38-25.77,2.44C79.33,189,86.89,189.12,93.36,189.36ZM100.68,226l-.84-14.2a31.36,31.36,0,0,1-.48-6.65L97,202.78c-3.31,7,.85,13.8,1.22,20.76H95.79c.62-5.62-.6-11.6-3.66-14.65-3.65,3.66,1.83,6.59,0,11L87.27,204a11.61,11.61,0,0,0,0,11c-3.91-.48-2.45-5.24-4.9-7.31,1.47-.74,1.23-2.33,1.23-3.67-3.66-.61-4.4-3.17-6.1-6.1,7.44-2.93,15.36.25,23.18,0a24.82,24.82,0,0,0-1.32,7.21l.1.1.38,6.55c1.11,6.23,3.74,12.2,5.73,17.87C103.37,229.75,102.27,227.2,100.68,226Zm2.44-13.42c5.74,5.75,3.66,14.65,8.55,20.75C107,228.17,105.94,219.51,103.12,212.55Zm9.77,8.54,0-.07c-.13-1.6-.46-6.91,1.18-8.47l-1.21-1.22-1.22,1.22c1.1-4.64,1.71-9.63,4.87-13.42l-1.21-1.22h2.16a1.3,1.3,0,0,1,.91,0h3l-1.22,1.22c1,1.38-.4-.78-1.81-1.22h-.91a1.9,1.9,0,0,0-.95,1.22A46.37,46.37,0,0,1,112.92,221C113,221.56,113,221.67,112.89,221.09Zm4.88-6.1,2.44-1.22c-.61-2-1.59-3.79-1.21-6.09l2.43,1.21c4.64-3.42-3.43-2.44-1.22-6.11,1.58,1.23,5.12.62,4.88,3.67l-1.23,1.23c1.47,2.68-4.39,10.12,3.66,9.76v3.65c-1.21-2.43-3.4.37-4.87,1.22l-1.22,1.23c-.24-1.72,2.93-3.55,0-4.88-.86,2-4.14.85-3.66,3.65l1.23,1.23-1.23,1.21C114.1,221.46,119.6,219,117.77,215Z"/></svg>