<svg xmlns="http://www.w3.org/2000/svg" width="600" height="376"><path fill="#fff" stroke="#50d6cc" stroke-miterlimit="10" d="M25.78 1.57h527.76v316.66H25.78z"/><path d="M272 229.46c34.61-19.06 56-69 49.79-134.39h-99.62C216 160.45 237.35 210.41 272 229.46" fill="none" stroke="#50d6cc" stroke-miterlimit="10" stroke-width=".85"/><path d="M241 100.55l2.63 7.89 8.27.07-6.65 4.95 2.48 7.94-6.73-4.83-6.73 4.83 2.48-7.94-6.65-4.95 8.27-.07 2.63-7.89z" fill="#fff" stroke="#50d6cc" stroke-miterlimit="10" stroke-width=".85"/><path d="M338.62 182.85c.05-.12.1-.25.16-.38.69-1.67.36-.87-.16.38" fill="#31319c"/><path d="M272 244.69c-4.79 0-9.79-.22-9.79-2.63V232c0 2.41 5 2.63 9.79 2.63m-5.71-.31s1.57-4.95-2.12-4.95-17.41-1.1-27-12.72-13.28-19-13.93-22.55-1.09-4.83.65-5.26l-9.36 3.07s-1.3 3.07-.43 5.47A63.94 63.94 0 00229.3 223c10.88 10.95 19.18 15.61 32.89 16.05m0-6.88c0-1.07.72-1.63 1.82-.76 1.52 1.2 2.53.57 2.39-.55m-43.19-36.66a13.6 13.6 0 002.61-.66c1.08-.44 2.6-3.18 1.08-8.32s-3-7.45-5.77-6.8l-2.06.55m-3 6a12.26 12.26 0 011.53 5.79m-4.24-5l9.35-2.63c-5.39-4.27-8.81-12.65-6-30.23s5.88-31.22-1.3-38.77l-10.45-1.48S208 114.13 209 120s1.47 10.84-2.28 30.56 1.41 32.69 6.64 35.16zm-8.44-73.28s-3.59 1-1.47 5.25 2 4.28.49 7.73-.52 5.73 2.25 7.7a4.26 4.26 0 011.18-6l2.12 3.28m14.16 58.45s2.61-.72 1.43 1.85a7.93 7.93 0 00-.61 1.23c-.45 1 .61 2.09 1.51 1.48m-3.39-10.26c1.39-.42 2.27-1.37.41-2s-1.92-2.54-.94-2.79M272 244.69c4.79 0 9.8-.22 9.8-2.62V232c0 2.41-5 2.63-9.8 2.63m9.77 4.44c13.71-.45 22.95-4.93 33.54-16.17 12.08-12.81 15.24-28.58 16.55-37.13.76-4.6 2.06-6.35 3.59-6l-8.71-2.18a6.59 6.59 0 00-4.46 5.25c-2.94 14.79-2.7 21.48-15.23 34.06-13.28 13.34-23.51 12.5-27.21 12.5s-2.12 4.95-2.12 4.95m4.08-2.14c0-1.07-.72-1.63-1.83-.76-1.52 1.2-2.53.57-2.39-.55m54.27-45.21a11.75 11.75 0 002.62.77c1.41.22 2.39.76 4.35-3.94s-4.24 10.18.11-.33-.22-31.55-.22-31.55c-3.76-19.72-3.26-24.65-2.28-30.56s4.07-7.39 4.07-7.39l-10.5 1.44c-7.19 7.55-4.17 21.2-1.31 38.77 2.28 14 2.88 16.21.82 25.3m10.66-65.72s3.81 1.54 1 7-5 10.41-1 13.14m-4.35-.43s3.16 1.65 4.68.77 2-2.08.66-4.06-.44-3.39.43-4c0 0-2.83.22-3.59 3.94m-3 50.92c1.85.45 1.85 2.53.55 3.62s-2 2.74-.44 3.18" fill="none" stroke="#50d6cc" stroke-width=".93"/><path d="M252.08 133.1c.12.17.22.43.15.56a5.46 5.46 0 01-1.43-.36c-.2 0-.39-.2-.55 0s-.07.45-.36.32a.91.91 0 01.13-.78 1.6 1.6 0 011.37 0 .69.69 0 01.69.29M251.65 134a.7.7 0 01.61.63l-.09.16c-.79-.53-1.74 0-2.52 0a.5.5 0 010-.53 1.84 1.84 0 011.74-.25h.26M252.29 135.5v.4a2.15 2.15 0 00-1.47-.27l-1.11.38c-.2-.1-.13-.36-.13-.51.36-.4.88-.33 1.31-.49s1.14 0 1.43.49M293.19 140.21c-.56 2.46-1.43 4.92-2.12 7.38-.23.39-.24.92-.5 1.28-.63 2.39-1.39 4.69-2.15 7-.56-.93.23-1.68.37-2.54.23-1.07.62-2 .83-3.11.56-1.17.63-2.39 1.25-3.64.47-1.7.93-3.37 1.47-5 .22-.49.25-1 .46-1.48.13 0 .32-.06.38.07M292.11 141.19a.87.87 0 01-.32-.95l.36-.82a2 2 0 010 1.77M293.17 143.33c-.16.1-.26.29-.45.36.39-1.15.37-2.73 1.42-3.54a29.65 29.65 0 01-1 3.18M292 141.81c-.34.65-.44 1.37-.74 2-.48-.81.05-1.7.34-2.52.14.19.66.14.4.49M290.88 145.23c-.23 0-.19-.26-.32-.36a1 1 0 01.23-1c.66.32.16.88.09 1.35M292.94 144.09c-.13.56-.1 1.31-.79 1.47a11.17 11.17 0 01.44-1.67c.12 0 .19.26.35.2M269.78 103.15a13.48 13.48 0 01.06 1.58 13.3 13.3 0 00-1.79-2.29c-.13.07-.09.26 0 .34a7.69 7.69 0 011 1.48 2 2 0 01-1.3-.83 2 2 0 01.2-1.21 1.69 1.69 0 011.89.93M271.52 107.39c0 .12.07.16.1.22s.26-.36.33-.58a2.56 2.56 0 010-.73 2.64 2.64 0 01-.08 2.18c-.43-.56-.62-1.29-1-1.85s-.72-1.22-1-1.82h.06a1.73 1.73 0 00.27-1.45 4.54 4.54 0 011.25 4M269.66 108a6.22 6.22 0 01.77 2.2c0 .07-.06.14-.13.11a31.4 31.4 0 00-4.05-6c-.2 0-.2.24-.13.34a22.53 22.53 0 013.72 6.31c-.23.27-.52-.09-.78-.2-.13-.69-1-.72-1.2-1.38.29-.23.85 0 1-.33-.19-.22-.52-.12-.78-.22-1 .12-1-1-1.46-1.56a1.11 1.11 0 00-.1-.29c.36 0 .88.37 1.21 0-.75-.36-1.89-.76-1.85-1.78a1.08 1.08 0 01.17-1.08c1.79.27 2.79 2.48 3.63 3.92M268.89 104.65c.62-.26.65.69 1 1v.12l-1.23-.37c-.23-.32-.62-.49-.62-.85.29 0 .59.1.88.1M271 107.88c-.38-.46-1.27-.21-1.33-.9a1.45 1.45 0 011.33.9M271.51 109.26c0 .16-.22.16-.36.13-.35-.36-.77-.7-.81-1.22a1.68 1.68 0 011.17 1.09M268.7 117.26a.9.9 0 01.07.53 3.29 3.29 0 01-.13-1.51c.06.42 0 .62.06 1" fill="#50d6cc"/><path d="M253.91 118.11a2.73 2.73 0 00.12 2c0 1.18.25 2.2.21 3.35h-.13c-.09-1.08-.12-2.1-.31-3.28l-.1-.07-.23.22c-.3 2.37-.71 5.19-.88 7.39l.06.07a25.52 25.52 0 00-.24 3.35c.26.13.55.33.55.65.06.7-.2 1.32-.11 1.89.49.68 1.17 1.41.94 2.22-.39.23-.43 1.06-1 .82-.39-.46.33-.88-.12-1.41-.12-.39.33-.78 0-1.18a1.08 1.08 0 000-1 1.47 1.47 0 00-1.18-.76l-.19-.2c.17-1.68.44-3.25.68-5 .44-2.66.71-5.06 1.34-7.72.07-.32-.32-.53-.12-.78s.52-.3.52-.69h.1v-.1c.23-.07.1.13.2.24M277.8 119.48c-.11 1.21.7 2.2 1 3.31.32.4.19 1 .29 1.41-.26-1.34-1.27-2.46-1.26-3.87 0-.07-.1 0-.16-.07-.2.13-.07.33-.13.49-.2-.42 0-.85 0-1.31l.07-1.15c.28.4.09.78.22 1.19M268.73 123.5a17.46 17.46 0 01-.34 1.94 7.54 7.54 0 01.54-4 5.31 5.31 0 00.18-.85 9.19 9.19 0 00-.23-1.87v-.29a6.73 6.73 0 01-.19 5M277.42 120.96l.1.16-.1-.16M277.56 121.21c.1.63.06 1.32.51 1.75a5.72 5.72 0 01.42 1.38c-.16-.79-.78-1.19-.81-2a3.4 3.4 0 01-.25-1.19c0 .07.1 0 .13 0M276.63 123.9v.16l-.16-.06c-.1-.17.17-.36.2-.1M276.11 124.13c.06.1 0 .39-.17.33a.14.14 0 01-.19-.14c0-.16.2-.22.36-.19M275.55 124.66c0 .12-.13.12-.2.22s-.16-.06-.2-.16a.2.2 0 11.4-.06M278.64 124.87l-.09-.33.09.22v.11M276.82 124.66c.07.1 0 .17-.1.23a.17.17 0 01-.22-.16.17.17 0 01.32-.07M276.3 125c-.1.11 0 .24-.14.29s-.19-.1-.25-.18a.26.26 0 01.39-.11M274.4 125.46c-.2.11-.36-.16-.59-.09 0-.43.49 0 .59.09M275.58 125.44c.1.07 0 .17-.07.19s-.13 0-.16-.13.26-.29.23-.06M275 125.63v.31a.33.33 0 01-.29-.11c0-.2.17-.39.33-.2M269.67 126.07l-.33.2c-.07 0 0-.13 0-.2a.25.25 0 01.36 0M263.56 146.34c.13-.2.07-.53.2-.75l-.1.75h-.1M263.46 146.86c-.06-.13 0-.29.1-.46a.63.63 0 01-.1.46M282.94 148c0 .32-.46.32-.69.45-2.44.32-4.41 1.75-7 1.64-.13.14 0 .26.13.3.95.2 1.7-.29 2.54-.21.17-.17.3 0 .5-.11a15.36 15.36 0 014.5-1.09.6.6 0 01.23.43 12.61 12.61 0 01-1.5.22c-.88.22-1.57.78-2.42 1a18.2 18.2 0 01-4.61.57 1.82 1.82 0 00-.38-.11c.19-.12.55.14.68-.19-.26-.26-.78-.13-1.17-.1-1.54.62-2.87-.35-4.3-.58a6.34 6.34 0 01-2.65-.34c-.06-.06-.13-.23 0-.3a5.46 5.46 0 013.59 0 6.39 6.39 0 003.66.5c1-.24 2.15-.15 3.06-.37.07-.09-.06-.13-.09-.2a13.12 13.12 0 00-3.26.15 7.22 7.22 0 01-3.23-.54h-.13c-.2-.06-.46-.17-.65-.23a6 6 0 00-2.67.08h-.36a1.32 1.32 0 000-.85c.42-.29 1 .08 1.53 0s.78.3 1.21.2c2.08.61 3.88.22 6.06.39-.52.1-1.14.13-1.7.26.07.06.07.16.17.16.45-.09 1 .17 1.53.08s1-.16 1.6-.2c.26-.15.65-.05.94-.12v.1c1.93.53 3-1.14 4.78-1.19l.16.2M284 153.79c-.55-.16-.35-.75-.55-1.28.4.3.43.9.55 1.28M284.05 155.47c-.17-.07-.07-.2-.07-.36.13 0 0 .23.07.36M284.79 157.05a2.65 2.65 0 01-.16-.92c.29.24.09.69.16.92M269.68 157.4a1.55 1.55 0 01-.07-.85.87.87 0 01.07.85M278.38 159.58a4.68 4.68 0 01-.27 2.23h-.2a14.59 14.59 0 01.27-2.36.16.16 0 01.2.13M286.3 162.61a18.69 18.69 0 01-1.07 3.73c-1 3.29-2.06 6.54-3.08 9.81-.69-.06 0-.59-.13-.92a11.9 11.9 0 00.53-1.8 1.8 1.8 0 00.2-.39c.23-1.09.63-2 .86-3 .43-1.11.87-2.62 1.2-3.83.16-.07 0-.17.1-.26.26-1 .69-2 1-3 .1-.16.2-.32.4-.35M286.15 165.24h.03v.16h-.03v-.16M286.18 165.5c0 .82.19 1.84.12 2.56.07-.37-.29-.72-.16-1.11a3.53 3.53 0 010-1.45h.06M285 169.56c0-.19-.13-.48 0-.65.06.2.16.49 0 .65M285.54 169.37h.04l-.01.3h-.03v-.3M286.29 170c0-.15 0-.35.07-.45l-.07.45M285.5 170.3l.03-.24v.19l-.03.04M286.34 171.71a.77.77 0 01-.09-.76c0-.16-.1-.49.07-.66.29.47-.1 1 0 1.42M264 172.71a.11.11 0 01-.12-.17c.09 0 .09.11.12.17M271.09 175.31a1 1 0 01-.26.95c-.23.09-.2-.2-.23-.27 0-.26.16-.68.49-.68M282.31 176.71l.1.13c-.1.27-.69.16-.46.56a2.78 2.78 0 01.68.69 8.66 8.66 0 01-1.57 2.06l-.3.23a9 9 0 01-.38-1.58 4 4 0 00-.2-1.31c.33-.19.82-.13 1.22-.29a.59.59 0 000-.4c-.06-.09-.29-.16-.22-.36.41-.06.71.17 1.1.27M277.72 200.56a6.13 6.13 0 002.44 1.23 1.83 1.83 0 00-.72 1.05c-.1.1-.23 0-.33.06a7.6 7.6 0 01-2.27-2.7c.23-.55.65.17.88.36" fill="#50d6cc"/><path d="M282.38 202.13a3.76 3.76 0 011.58 3.59 2.61 2.61 0 01-.14 1.84c-.92.68-1.76-.24-2.64-.38a3.66 3.66 0 01-1.92-2.37c-.25-.36-.32-.85-.61-1.18-.48-.79-2.35-.74-1.56-2.08a13.92 13.92 0 002.38 2c.52 0 .36-.78.75-1a5.08 5.08 0 001.17 1.9c.36.49.78.93 1.46.74a.78.78 0 00.37-.8c-.17-.68-.85-1-1.17-1.64.09 0 .16 0 .2-.13.06-.36-.2-.59-.43-.88a1.24 1.24 0 00-.74-.34c.35-.25.36-.75.62-1.14.13.66.81 1.08.68 1.83M269.88 201.61c0 .17.17 0 .23.14a1.2 1.2 0 01-.75.42 2.87 2.87 0 01-2.58.28c-.23-.26-.16-.59-.22-.89.22.27.74 0 1.07 0 .13-.23.39 0 .56-.16.59 0 1.14.14 1.69.2M266.32 202.32l.26.53a1.66 1.66 0 00-1.31 1c-.39-.79.43-1.54.76-2.26.26.07.13.5.29.73M271.42 202.14c.09.67-.66.83-1 1.18a4.33 4.33 0 01-2.55.81c-.36-.26-.19-.62-.51-.86v-.16a7.24 7.24 0 002.41-.51 8.23 8.23 0 001.08-.66c.19 0 .46-.05.56.2" fill="#50d6cc"/><path d="M280.85 202c0 1.12 1 1.68 1.42 2.63-.39 0-.36-.45-.65-.65a2.4 2.4 0 01-.87-2h.1M281.85 202.65c-.19.14-.1.24-.13.39-.32-.25-.29-.68-.39-1 .3.08.43.44.52.66M266.74 203.34l-.04-.39.07.16-.03.23M265.62 205.8c-.32 0-.36.45-.69.45.33-.36.73-.86 1-1.24a3.13 3.13 0 00.76-1.48 3.83 3.83 0 01-1.09 2.27M266.02 203.72l.04.01v.16h-.04v-.17" fill="#50d6cc"/><path d="M267.78 204.62a9.3 9.3 0 002.94-.67c-.07.43-1.08.22-.62.75l.65-.16c-.72.65-1.73.91-2.49 1.56-.82.82-1.48 2.23-2.75 2.28l-.88.3v.2c.36.19.68-.17 1.07-.14a2.24 2.24 0 01-.91.53c-.46.23-1.11.59-1.54.25a10 10 0 01-.44-2.46c.17-1.54 1.93-1.7 2.43-3a.24.24 0 01.2.2v.23c-.26.68-2.12 1.07-1.08 2a.77.77 0 00.81.2 4.52 4.52 0 002-2.84 1.22 1.22 0 00.61.78" fill="#50d6cc"/><path d="M264.74 205.69c.13-.13.29-.36.46-.42 0 .26-.33.26-.46.42M277.15 125.19l.09-.08zM276.84 120.71s.01 0 0 0zM276.3 111.54c-.23-.26-.59-.49-.68-.78 0-.11.09-.07.16-.11.68.27.94 1.06 1.4 1.59a14.46 14.46 0 01.43 5.23c0 .22-.11.58 0 .75h.06a2.57 2.57 0 00-.06-.72 10.07 10.07 0 00.15-2.93 5.37 5.37 0 00-2.33-4.84c-.16-.13-.39-.13-.52-.23-.4.07-.65-.29-1.08-.17-.42-.16-.91.36-1.11-.16a2 2 0 00-.19-1.35c0 .43-.39.76-.59 1.08 0 .2.29.31.42.41-.1.39-.49.32-.82.48a7.86 7.86 0 00-2.93 6.42l.27-1.7.19-.2c.27.34-.1.76-.1 1.12a9.83 9.83 0 00.6 4.24 3.82 3.82 0 01.05 3.22c-.23 1-.89 2.06-.7 3.08l.23-.65c.17-.2.17-.56.46-.59v-.2c.3-.49.52.26.82.27v-.06c0-.06-.06-.31-.26-.24a.55.55 0 01-.26-.59c.07-.14.26-.23.36-.16s.36.27.29.46l.43.06c-.43 0-.36-.49-.68-.65a.42.42 0 010-.66.69.69 0 01.26 0 1 1 0 00.58.6c-.09.43.46.24.53.43 0 .46.78.06.77.59.1-.19.33-.06.49-.09a.72.72 0 01.2.29l.16-.13a.39.39 0 01.46 0c.16.1.32 0 .42-.14.33-.12.42.2.55.37.1-.26-.06-.72.27-1-.13-.49 0-1.28-.58-1.58a2.76 2.76 0 01-2.15-.5c-.39-.07-.88-.4-1.24-.07a1.5 1.5 0 01-.72.85c-.26-.46.07-1.32-.25-1.74a23.12 23.12 0 01-.76-4.11c-.06-1.84-.11-4.24 1.56-5.51.22.19-.1.36 0 .55.46 0 .72-.42 1.05-.67.09.91.85-.07 1.3.29s.39-.46.92-.32c.35.39.91.3 1.33.5a2.68 2.68 0 011.49 2.07c.35 2.17-.21 4.46-.16 6.51 0 .16-.19.35 0 .48.24-1 0-1.84.34-2.85.06-2.02.4-4.39-.83-6.24z" fill="#50d6cc"/><path d="M287.8 141.72c0 .23-.14.12-.23.19a2.41 2.41 0 01-1-2.14c.06 0 .09-.16.23-.16.35.46.18 1.28.74 1.68-.74-2.5-.89-5.06-1.4-7.66-.93-2.31-1.44-4.84-2.71-7-.25-.94-1.23-1.12-2.08-1.28-.13-.14-.39-.07-.49-.2h-.39c-.09-.26-.39 0-.55-.21-.81-.46-.56.6-1 .86-.17-.11 0-.46-.23-.46v.12a2.7 2.7 0 01-.43 1.94l-.1-.07a2.87 2.87 0 00-.06-2.33 5.9 5.9 0 01-1.28-4.2.09.09 0 01-.06 0c0 1.35-.27 2.69.64 3.91.07.14-.07.34-.18.45.16-.07.38-.21.5 0-.16.43.33.24.42.43.3.33 0 .56-.1.78h.06a.6.6 0 01-.22.72l.19.16a.44.44 0 01-.2.56.41.41 0 01-.49-.09.5.5 0 01.2-.76c-.52-.23.07-.66-.09-1-.33.06-.49.66-.72 1-.23.29-.23.5-.46.76-.26.52-.95.32-1.31.71-.13.14-.2.33-.42.37s0-.21-.1-.27c-.23.23-.3.52-.49.72l-.1-.13c0-.66.53-1.25.34-1.9.26-.33 0-.76.06-1.15-.29.32-.58 0-.91-.1a.49.49 0 01-.46.13c-.25-.11-.25-.33-.25-.57a1 1 0 01.29-.19c.2-.13.39.13.55.2s.17 0 .1-.16a.55.55 0 01-.42-.43c-.13.13-.2.39-.46.32a.54.54 0 01-.29-.59.5.5 0 01-.39.4.74.74 0 01-.39-.51.74.74 0 00-.26.1s-.06 0 0-.1h-.19v.27a.37.37 0 01.64.33c.2 0 .33-.2.56-.06a.75.75 0 01.23.46c-.08.23-.23.36-.46.29s-.33-.27-.39-.43c-.13.1-.33.06-.49.06a.37.37 0 01-.23-.46h-.32a21.23 21.23 0 011.94 2.24c-.36.29-.52-.43-1-.24a1.45 1.45 0 00.39.79c.85.11 1.2.93 1.56 1.55l-.07.17c-.45 0-.42-.53-.61-.79-.29-.56-.95-.51-1.33-.9a10.09 10.09 0 00-1-2v.16l-.13.17-.39-.33c-.1.06-.19.2-.29.2l.26.22a.4.4 0 01-.13.59.42.42 0 01-.59 0l.06.26.49-.09a.55.55 0 01.36.63c-.1.19-.27.42-.52.26-.42-.11-.13-.76-.62-.73-.13-.53-.68-.76-.68-1.32-.49-.13-.35-.72-.58-1a19.18 19.18 0 01-2 .64 2.6 2.6 0 00-1.47.39 6.46 6.46 0 00-1.34 2 4.89 4.89 0 00-.74 3.29 10.47 10.47 0 01-.5 3c-.39.82-.07 1.61-.37 2.36 0 1-.79 1.74-.83 2.82.26.06.4-.23.59-.32.36-.13.85-.46 1.05.07a.58.58 0 01.51.2c.06.52.75.39.81.92.22 1.38.71 2.66.44 4.13a2.22 2.22 0 00-.14.92v-.09c.66-1.38.25-3.25.23-4.73l.09-.26c.3.26.13.69.23 1.08.48 1.15.08 2.31.18 3.32a10.3 10.3 0 00.11-3.91c0-.79-.41-1.51-.28-2.26h.13c.31 1.61 1.19 3.09.69 4.8-.1.19-.16.36 0 .52.59-1.15.24-2.5-.05-3.68-.19-.53.11-1.25-.22-1.74-.09-1.48-.86-2.93-.66-4.44.46.93.19 2.14 1 3 0-.26.07-.52.1-.78a9.75 9.75 0 00-.28-2c-.15-1.68-1.46-3-1.12-4.74h.06c.33 1.09.42 2.3 1.16 3.13h.16c-.41-2-1.41-4-.91-6.09h.12a9.56 9.56 0 01.06 1.41c.33.89.16 1.58.48 2.46.2.31 0 .9.42 1a3.18 3.18 0 01.43-1.08c.19.23 0 .4 0 .59-.23.59-.07 1.49-.24 2.11-.13 1.31.09 2.85 0 4.23a41.38 41.38 0 01.19 7.66c.16.85-.17 1.5.29 2.16.25.07.45.27.74.23.36-.19-.06-.66.2-1 .46.17.62 1 1.17.93.1-.43-.25-.66 0-1 .36.23.22.69.48 1 .16.16.33.37.56.26-.32-2.16.63-4.22.16-6.4.06-.26-.29-.49 0-.73.32.07.32.5.42.76v2.37c0 1.11-.51 2.75.17 3.88 0 .06 0 .26.16.22-.09-.46-.16-.85-.25-1.38a10.23 10.23 0 01.31-2.52c0-.1.09 0 .16 0 0 1.44-.25 3.32.89 4.34a10.83 10.83 0 012.48 0c.62-.23.11-1.11.59-1.47.23.43-.13 1 .26 1.31a12.72 12.72 0 011.76.28c.22-.27 0-.73.33-.92a1.61 1.61 0 00.38.92c1.64.19 1.48-1.61 2-2.52.1-.76.66-1.35.5-2.13a4.35 4.35 0 000-1.25c.42-.36-.1-1 .36-1.32a12.14 12.14 0 01.05 3.23c-.37.72-.11 1.47-.53 2.13 0 .36-.37.72 0 1.08.33-.07.84.3.95-.16a.33.33 0 01.51-.22c.27-.2-.09-.53.14-.76.72 0 .07-.79.56-1a2.87 2.87 0 00-.22-1.8c0-.24-.29-.6 0-.76a5 5 0 01.78 2 6.86 6.86 0 01-.37 2.52 1.47 1.47 0 00.92-.84c-.09-2.83-1.51-5.5-1.4-8.28.1-.7-.12-1.22.24-1.85.42-.06.13.33.26.53a5.86 5.86 0 00.89 4.37c.1-.16 0-.43 0-.65-.62-1-.48-2.23-.7-3.32-.32-1.51.37-3.09.48-4.7a18.25 18.25 0 00.12-4.43c0-.32-.16-.72 0-1 .07-.09.2 0 .26.07.09 1.09.41 2 .44 3a32.29 32.29 0 00-.68 5.85 5.58 5.58 0 00.24-1.19c.06-1.14.52-2.12.37-3.38.06-.06.13-.15.23-.12a4.66 4.66 0 01.08 1.7 32.5 32.5 0 00-.6 4.46 4.31 4.31 0 00.28 2.14c.36-1.21 0-2.59.21-3.71.42.43.16 1.32.35 1.84a13.65 13.65 0 010 4.6c.16 1.09-.67 2.46-.38 3.74a.21.21 0 00.29.2c.5-1.15.77-2.49 1.82-3.37.29-.11.65-.36 1-.1a3.24 3.24 0 012.12 2 4.15 4.15 0 00-.99-2.92zm-18.05-13.25a.51.51 0 01.2-.46.53.53 0 01.52.36c-.1.13.07.33-.16.45a.53.53 0 01-.56-.35zm.36 1c-.13-.2.06-.4.16-.6a.58.58 0 01.52.37c0 .23 0 .49-.2.55a.47.47 0 01-.48-.3zm.38.92c0-.16 0-.36.2-.43s.56 0 .56.3-.13.36-.23.46a.59.59 0 01-.53-.31zm1.14 1.22c-.16-.07-.49 0-.52-.27s0-.36.13-.49a.42.42 0 01.59.36c-.04.12-.01.38-.2.42zm.71.69c-.22 0-.45 0-.52-.29s0-.37.17-.43c.33-.17.16.33.45.23.1.25.03.35-.1.51zm2.55.47c-.27.06-.33-.09-.53-.16-.16.12-.16.39-.42.36a.58.58 0 01-.55-.4c-.17.23-.37.2-.59.16a.5.5 0 01-.16-.42c0-.2.23-.13.33-.26.35 0 .38.82.78.26.33-.23.58.43.78-.1a.5.5 0 01.55 0 .48.48 0 01-.19.58zm2.79-3.66a.41.41 0 01-.16.39c-.11 0-.2 0-.23.1s.19.43 0 .63-.37.06-.23.23c-.16.22.16.65-.33.71h-.25c-.07.13.12.23.06.43a.55.55 0 01-.59.23c0 .23-.06.49-.26.55s-.33.07-.49-.06a.68.68 0 01.2-.6c.87.37.16-1 1.07-.58a1 1 0 01-.06-.59c.16-.13.36-.06.5-.19-.07-.2-.23-.43 0-.6l.32-.19a.75.75 0 01-.09-.65l.36-.2a.69.69 0 01-.19-.63c.19-.19.64-.13.68.17.12.48-.83.41-.31.87zM263.93 172.35s-.07.07-.1 0c-.2-.33.07-.78-.06-1.08v-.56c.33.5-.17 1.09.13 1.61M252.08 133.1c.12.17.22.43.15.56a5.46 5.46 0 01-1.43-.36c-.2 0-.39-.2-.55 0s-.07.45-.36.32a.91.91 0 01.13-.78 1.6 1.6 0 011.37 0 .69.69 0 01.69.29zM251.65 134a.7.7 0 01.61.63l-.09.16c-.79-.53-1.74 0-2.52 0a.5.5 0 010-.53 1.84 1.84 0 011.74-.25zM252.29 135.5v.4a2.15 2.15 0 00-1.47-.27l-1.11.38c-.2-.1-.13-.36-.13-.51.36-.4.88-.33 1.31-.49s1.11-.01 1.4.49z" fill="#50d6cc"/><path d="M261.93 139.83a1.53 1.53 0 00-1.31.35c.16.4.65.69.94 1.08 0 .17.26.4 0 .47a12.84 12.84 0 00-2.12-1.68c-1.13-.8-2.77-.48-3.74-1.67a29.9 29.9 0 01-.34-3.49c-.22-1.63-.38-3.35-.53-5 0-1.84-.34-3.94-.43-5.82 0-.17-.1-.43-.26-.49 0 .17-.07.42.13.46 0 0-.07.1-.13.1a5 5 0 01.12.58c-.06.76.13 1.55.13 2.28.22 1 .08 2.06.21 3 .19 1.38.21 2.82.4 4.34 0 .69.13 1.25.16 1.77s.22 1.25-.11 1.68c-.59-.27-.75-.9-1.07-1.36h-.16c-.1.59-.43 1.08 0 1.64.13.34.39.56.49.9a.24.24 0 01-.2 0c-.46-.33-.65-1.11-1.23-1a.83.83 0 00-.33.55.56.56 0 01-.56 0c-.32-.36-.22-.82-.19-1.28.1-.2.36-.1.46-.22s0-.27-.06-.37c-.39-.29-.62-.75-1.27-.59-.46.29-1.3.19-1.37.8a2.78 2.78 0 001.13 1.49c-.14 1.84-.24 3.45-.22 5.32a176 176 0 00.1 19c.47 4.27.84 8.67 1.44 12.78.92 5.72 2.07 11.21 3.47 16.6a141.89 141.89 0 005 14.84c-.53.82.52.42.58 1.14.1 0 .2.08.26-.05 0-.79-.48-1.42-.31-2.24-.28-4.11-.62-7.95-1-12.09-.15-1.54-.31-3.35-.36-4.93-.19-2.27-.34-4.4-.59-6.63-.27-5.16-.9-10.32-1.16-15.42-.19-1.7-.29-3.21-.37-4.92-.22-.82-.09-1.65-.28-2.46-.34-3.59-.49-6.84-.83-10.46l-.1-.09c0-1.75-.24-3.32-.26-5l.06-.1a6.36 6.36 0 003.31 2.31c.82.41 1.21 1.36 2.35 1.16.62-.19.72-.87 1.11-1.33.07-.13 0-.39.24-.39.13-.17.29-.36.26-.57-.43.4-.56 1-1 1.44 0-.06-.13-.1-.16-.22.1-1.06.86-1.83 1.32-2.75a3.64 3.64 0 00-1.62-3.46zm-11.25-2.46c-.19 0-.29-.16-.35-.33.2-.22.55-.19.85-.29l.06.13a1.33 1.33 0 01-.56.49zm5.61 13.86a50.94 50.94 0 00.46 5.32 23 23 0 00.22 3.28 3.05 3.05 0 01.06.79c.09 1.84.4 3.77.46 5.52.13.36 0 .75.13 1.18a1.08 1.08 0 00.09.73c-.07.58.09 1 0 1.53.16.24 0 .7.1 1a13.29 13.29 0 01.18 2.53c.25 1.38.15 2.79.37 4.27-.07 1.12.31 2.27.27 3.25.19.14-.06.33.06.5a8 8 0 01.13 1.24c0 1.16.25 2 .21 3.23.23 1.28.12 2.65.37 3.85a31.89 31.89 0 00.22 3.54c.21 2.66.36 5 .58 7.56a6.61 6.61 0 01.16 1.31c.09.62.15 1.42.21 2.13 0 .4.13.76 0 1.12a8.93 8.93 0 01-.71-1.88c-.9-2.43-1.53-5-2.31-7.46-.32-1-.5-2-.73-3a3.53 3.53 0 01-.32-1.12 38.89 38.89 0 01-1.34-6.66c-.29-.53 0-1-.35-1.55s.1-.89-.22-1.28a71.72 71.72 0 01-1-10.35c0-.46.46-.79.27-1.28-.28-2.86-.49-6-.67-9-.29-1.22.07-2.6-.64-3.69a14 14 0 01-.44-2.92 113.69 113.69 0 01-.21-16c.32-.06.52.1.78.14.94 1.26 1.94 2.54 2.92 3.7.15 1.87.46 3.74.45 5.65.25.94-.05 1.83.24 2.82zM293.19 140.21c-.56 2.46-1.43 4.92-2.12 7.38-.23.39-.24.92-.5 1.28-.63 2.39-1.39 4.69-2.15 7-.56-.93.23-1.68.37-2.54.23-1.07.62-2 .83-3.11.56-1.17.63-2.39 1.25-3.64.47-1.7.93-3.37 1.47-5 .22-.49.25-1 .46-1.48.13 0 .32-.06.38.07zM282.31 176.71l.1.13c-.1.27-.69.16-.46.56a2.78 2.78 0 01.68.69 8.66 8.66 0 01-1.57 2.06l-.3.23a9 9 0 01-.38-1.58 4 4 0 00-.2-1.31c.33-.19.82-.13 1.22-.29a.59.59 0 000-.4c-.06-.09-.29-.16-.22-.36.41-.06.71.17 1.1.27zm-4.59 23.85a6.26 6.26 0 002.44 1.23 1.89 1.89 0 00-.72 1c-.1.11-.23 0-.33.07a7.6 7.6 0 01-2.27-2.7c.23-.56.65.17.88.36zm4.66 1.57a3.74 3.74 0 011.58 3.59 2.56 2.56 0 01-.14 1.84c-.92.68-1.76-.24-2.64-.38a3.64 3.64 0 01-1.91-2.37c-.26-.36-.32-.85-.62-1.18-.48-.79-2.34-.74-1.55-2.08a13.48 13.48 0 002.37 2c.52 0 .36-.78.76-1a4.93 4.93 0 001.16 1.9c.36.49.78.93 1.46.74a.78.78 0 00.37-.8c-.16-.68-.85-1-1.17-1.64.1 0 .17 0 .2-.13.06-.36-.2-.59-.42-.88a1.29 1.29 0 00-.75-.34c.36-.25.36-.75.62-1.14.13.66.81 1.08.68 1.83zm-12.5-.52c0 .16.17 0 .23.14a1.25 1.25 0 01-.75.42 2.94 2.94 0 01-2.58.28c-.23-.26-.16-.59-.22-.89.22.27.75 0 1.07 0 .13-.24.39 0 .56-.16.59 0 1.14.13 1.69.2zm-3.56.71l.26.52a1.64 1.64 0 00-1.3 1c-.4-.79.43-1.54.76-2.26.25.07.12.5.28.73zm5.1-.18c.09.67-.66.83-1 1.18a4.31 4.31 0 01-2.55.81c-.36-.26-.19-.62-.51-.86v-.16a7.24 7.24 0 002.41-.51 8.23 8.23 0 001.08-.66c.2 0 .46-.06.56.2zm9.43-.15c0 1.12 1 1.69 1.42 2.63-.39 0-.36-.45-.65-.65a2.4 2.4 0 01-.87-2h.1zm1 .66c-.2.14-.1.24-.14.39-.32-.25-.29-.68-.38-1 .3.03.43.39.53.61zm-15.11.69v-.39l.07.16v.23zm-1.13 2.46c-.32 0-.36.45-.69.45.33-.36.73-.86 1-1.24a3 3 0 00.76-1.48 3.83 3.83 0 01-1.09 2.27zm.4-2.08v.16zm1.76.9a9.3 9.3 0 002.94-.67c-.07.43-1.07.22-.62.75l.65-.16c-.72.65-1.73.91-2.49 1.56-.82.82-1.48 2.23-2.75 2.28l-.88.3v.2c.36.19.68-.17 1.07-.14a2.24 2.24 0 01-.91.53c-.46.23-1.11.59-1.53.25a10 10 0 01-.45-2.46c.17-1.54 1.93-1.7 2.43-3a.24.24 0 01.2.2v.23c-.26.68-2.12 1.07-1.08 2a.77.77 0 00.81.2 4.52 4.52 0 002-2.84 1.22 1.22 0 00.61.78zm-3 1.06c.13-.12.3-.35.46-.41-.06.26-.36.26-.49.41zm27.37-64.49a.88.88 0 01-.32-.95l.36-.83a2 2 0 010 1.78zm1.07 2.14c-.17.1-.26.29-.46.35.4-1.14.37-2.72 1.42-3.53a29.41 29.41 0 01-1 3.17zm-1.21-1.52c-.34.66-.44 1.37-.73 2-.49-.81 0-1.7.33-2.52.14.19.66.13.4.49zM272.47 118.94zM276.58 113.52a3.32 3.32 0 00-.81-.82c-1.53-.8-3.13-.31-4.8-.15-.55.12-.65.75-.88 1.14a3.62 3.62 0 00.63 3.68v1.44h-.2a7.4 7.4 0 01.69 1.64c.64 1.38 2.21.27 3.29.74.72-.23 1-1 1.41-1.61a3 3 0 00-.12-2.23c1.04-.91.98-2.42.79-3.83zm-6.27 1.28c.59-.88 1.7-.06 2.35-.47.33.06.16.59.29.75-.13.29-.16.63-.52.72a2.26 2.26 0 01-1.66-.4c.03-.4-.86-.07-.46-.6zm3.37 4.87a.19.19 0 01-.05.21 1.57 1.57 0 01-.19.15.82.82 0 01-.27 0 .42.42 0 00-.29 0 .17.17 0 01-.12 0 .24.24 0 01-.09-.06.94.94 0 01-.12-.22.32.32 0 010-.17v-.16l.2.12a.45.45 0 00.28.09 1 1 0 00.48 0 .48.48 0 00.18 0zm.45-.42a3.77 3.77 0 00-.67 0h-1.24a3.4 3.4 0 00-.64.08c-.2-.2.2-.25.29-.32a2 2 0 01.58-.09h-.05.07a.64.64 0 01.45.12h.13c.07 0 0 0 0 0 .16 0 .33 0 .39-.15h.73l.39.12a.91.91 0 00.22.09s.09 0 .13.06zm1.1-3.57c-.46.43-1.14-.33-1.41.36s.68 1 1 1.61a2 2 0 01.45 1.15c-.53 0-.45-1.15-1.17-.86a1.3 1.3 0 01-1.08.32c-.29-.2-.69-.16-.94-.46-.4.13-.5.59-.82.81h-.14c-.06-.39.27-.59.47-.85s.39-.42.69-.55c.09.1.06.33.25.43.39-.1.85.39 1.14-.13 0-1-.74-2.17-.17-3.22.15 0 .15.26.35.23.56.07.95-.26 1.54-.15a4.16 4.16 0 01.91.53.39.39 0 01-.2.36c-.64-.26-.28.55-.87.42z" fill="#50d6cc"/><path d="M278.3 159.46l.07 1.66-.31.72h-.24l.27-2.21z" fill="#50d6cc" fill-rule="evenodd"/><path d="M287.93 155.92c-.38-3.36 1.26-6.23.69-9.65a1.35 1.35 0 00-.19-.53v1.34c-.1.33.09 1-.3 1.12-.13-.72-.12-1.58-.28-2.33-.35-.73-.25-1.87-1.22-2.11-.69-.16-1.12.43-1.45.78a4.32 4.32 0 00-.92 2.16c.09 1.22.71 2.3.8 3.42a8.39 8.39 0 01.22 1.33c-.07 2 .31 3.79 0 5.5-.1.8-.43 1.72-.54 2.54a.24.24 0 01-.19.09c-.13-1-.19-2.2-.38-3.29l-.16-.23c.12.83-.07 1.65 0 2.37l-.2.19c-.16-.49-.09-1.07-.25-1.54 0-1-.74-1.87-.93-2.93-.59 0-.45-.72-.74-1.08-.16-.14-.39-.17-.46-.36-.42-.31-.91 0-1.3 0-.2.1-.46.13-.62.23s-.4.19-.43-.1c.3-.36.76-.36 1.05-.69a2.66 2.66 0 00-.65.09 12.73 12.73 0 01-5.09.4c-.72-.1-1.34-.27-2.13-.33-.16-.24-.25 0-.45-.2l.07-.07c.88 0 1.72 0 2.64.09 2.84.3 5.55-1.29 8.49-.66a.39.39 0 00.23-.36c-.33-.36-.92-.33-1.44-.33-.39.16-1 .06-1.37.22-.39-.13-.52.26-.91.13-.2.26-.59 0-.79.22-.85 0-1.63.19-2.51.12-1.31.32-2.74-.17-3.95 0-1.63-.14-3-.47-4.57-.64-.32-.07-.65-.27-.94 0 0 .19 0 .36.19.39 1 .11 2 .47 3.1.51.52.43-.3 1-.37 1.47a13.71 13.71 0 010 1.92c-.13.22 0 .41-.16.58-.35-1.09-.22-2.47-.57-3.59-.16 0-.55-.13-.46.14-.39.45-.26 1.14-.27 1.74 0 .1 0 .22-.2.15a6.18 6.18 0 01-.19-1.34c-.06-.36.08-1.11-.52-1-1.37 1.18-1 3-1.39 4.46a25.89 25.89 0 01-1.2 6.2c-.13 1.18-.73 2.43-.73 3.51a8.45 8.45 0 01-.15 3.12v1l.2-.06a7.28 7.28 0 01.22 2.36c.39-.88-.45-2.21.31-3 .35.26.09.85.09 1.18.09 0 .16.06.22.13.38 2 0 3.19.37 5.12a11.59 11.59 0 01.56 4.61c0 1.14.71 2.07 1.09 3.09 0 .46.26.73-.13 1.08-.32-.07-.13-.39-.19-.63a2.56 2.56 0 00-.26-.58 6 6 0 000 2c.07.21-.1.4-.16.6a18.36 18.36 0 00.87 7.16c.1.1 0 .3.13.39s.2.44 0 .6-.26-.17-.39-.2c.05 1.81.73 3.09.59 5a2 2 0 01-.23.79 3.17 3.17 0 01-.72 1.24 1.12 1.12 0 00.65.24c1-.52 2.15-.16 3.2 0a3 3 0 001.43.13 4.69 4.69 0 00-.55-1.37 4.9 4.9 0 00-1.23-.8c0-.1 0-.16.06-.23a.79.79 0 01.59.07c.13 0 .39.14.36-.1a10.65 10.65 0 00-.31-2.07c-.23 0-.53.36-.69 0-.06-.13.1-.16.16-.26 1.25-.33.86-1.83 1-2.76-.3.17-.17.69-.56.62-.2-.19-.13-.42-.09-.65 1.45-2.95 1.26-6.08.83-9.33-.43.53-.11 1.23-.4 1.71-.07.07-.23.1-.27 0a6.29 6.29 0 01.07-1.5c1.36-2.39.85-5.55 1.42-8.27.2-1-.22-1.88.21-2.76-.45-.89.39-1.54.17-2.42 0-.07 0-.24-.16-.2s0 .1 0 .15a9.16 9.16 0 01-1 2.57c.06.06.13.06.16.09s0 .34 0 .4c-.23.26-.23.85-.71.69-.2-.34.26-.56.26-.89-.2 0-.43.33-.59 0s.07-.43.13-.62c-.12 0-.29-.07-.32-.23.29-.53.72-1.18.4-1.84.07-.23.36-.26.4-.49a.53.53 0 01-.76 0c-.16-.43-.58-.56-.71-1 .3-.26-.09-.83.33-1 .26.27.13.63.19.95.46.2 0-.68.37-.88.64.2 0 .92.58 1.12.29-.13 0-.76.23-1.05.42.23.32.79.38 1.21.27-.19.14-.68.27-1a.17.17 0 01.29 0c.2.26-.26.94.22 1.11.17-.29.07-.69.21-1 .62-.2.06.79.38 1 .46-.13 0-.79.5-.95.35.29 0 .85.12 1.14h.13c.16-.26 0-.89.26-1.15.49.2.23.95.26 1.25l.13.13c.39-.23-.16-1.15.46-1.24.32.36 0 .82.16 1.25.06.06.12.15.22.13.26-.46-.16-.9.2-1.31.56.1.1.53.26.92.1.09 0 .32.23.32s.06-.39 0-.59-.09-.72.33-.72c.36.37-.1.85.25 1.25h.23c0-.53-.25-1.06.14-1.42.42 0 .16.43.22.73s.06.56.39.49c.23-.42-.25-.92.14-1.31.46.1.16.82.42 1.12 0 .49-.63.62-.92.88v.07c-.13.13-.32.15-.43.39.16 1.09 0 2 .48 3l.06-.13c.21-.52-.25-1.21.41-1.38.22.27.05.83 0 1.08a34.92 34.92 0 00.13 7 21.11 21.11 0 01.53 4c-.06 0-.09.13-.16.13a18.47 18.47 0 00-.61-2.54 2.29 2.29 0 00-.19 1.35 15.65 15.65 0 00.13 5.78c.08 2.79.5 5.23-.3 7.88.06.53-.56.68-.4 1.18a3.41 3.41 0 001.48-.58c.19 0 .65-.11.58.2-.56.29-1.05.52-1.6.77.09.43.58.53.81.9.74.39 1.49 1.19 2.5.79.53-.26.57-.84.63-1.31-.29-.26-.75-.13-1.11-.26a2.53 2.53 0 01-2.38.19v-.2c1.14.36 1.82-.68 2.93-.48a1.8 1.8 0 01.49.2h.22a6.7 6.7 0 01-.37-.95c-.26-.49.26-.85.16-1.25-.43.29-.59.92-1.18.78v-.2c1.74-1.17 1.16-3.47 1.69-5.27.18-2.11 1.16-4 1.24-6.17a1.07 1.07 0 00.26-.52c-.16-1.08.31-2.24-.08-3.38-.26 0-.29.32-.46.41l-.12-.09c-.13-.72.36-1.28.69-1.87-.33 0-.4.43-.56.56-.13.29-.36.39-.56.59 0-.07-.09-.1-.06-.2a11.88 11.88 0 011.42-2.43 7.1 7.1 0 01-.92.65c-.07-.06-.16-.13-.1-.22a8.44 8.44 0 001.66-4.86c-.13-1.11.6-2.16.05-3.22l-.1.11c-.3 1-.77 2.23-1.06 3.24 0 .63-.82 1.18-.11 1.64a.49.49 0 01-.23.63c-.16.23.07.29.19.45a.7.7 0 01.06.89c-.88.85-1.34 1.86-2.32 2.49a1.3 1.3 0 01-.39-1.19 14.6 14.6 0 01-.45-2.59c.17-.43.63-.4 1-.46 0-.2-.2-.33-.13-.59s.43-.27.69-.3c.43-1.44.89-2.89 1.29-4.32.36-.5 0-.86-.19-1.31a.53.53 0 00-.45-.17c-.2 0-.26-.24-.26-.43.39-.3 0-1 .4-1.28.26.23.22.76.32 1.12.42-.25 0-.79.29-1.12.59 0 .17.89.46 1.23a2.16 2.16 0 00.13-1.19c.1-.16.2 0 .36-.13.37-1 .66-2.09 1-3.15l-.3-.22c-.15-1.48.48-3 .25-4.5l.1-.07a.91.91 0 01.26.66c.42.4.26 1.08.38 1.55.3.06.36-.23.53-.39a.44.44 0 000-.4c0-.86-.86-1.61-.31-2.4.33.43.13 1.09.45 1.49.13.85.81 1.41.58 2.26 1-.23.33-1.38.69-2.1.52-.06.1.59.36.79.29-.13.16-.62.26-1s.36-.1.56-.29c-.07-.56.52-.82.56-1.34a19.48 19.48 0 00-1.04-3.31zm-20.66 13.91c-.1.14-.17.31-.36.24l-.2-.2c-.16.32-.55.23-.78.39a.22.22 0 01-.33 0s-.1-.09-.16-.06-.1.39-.33.46c-.36-.13-.19-.69-.16-1 .07-.1.1-.23.2-.26s.26.1.26.26a.11.11 0 000 .07c.2-.07.1-.33.26-.46.39.33.82-.65 1.05.07.06-.1.06-.3.23-.33.52-.01.22.53.32.82zm.58 0a.37.37 0 01-.29.13c-.2-.26-.06-.69 0-1l.17-.1a1.25 1.25 0 01.12.95zm.59-.06h-.26c0-.29-.13-.59.1-.85.29.08.09.53.16.83zm2.19 6l.35-.49.14.28-.35.69-.14-.1zm-1.6-6a.93.93 0 010-.93c.32.13.19.52.22.82-.03.16-.12.08-.25.13zm9.72.63c-.06.07-.16 0-.26 0a1.78 1.78 0 01-.19-1.18c.06 0 .13-.1.19-.13.2.26.13.55.2.88.03.19.16.32.06.45zm.68-.12c-.35 0-.35-.34-.48-.57a1.47 1.47 0 01.17-.81c.19-.07.26.12.29.22-.07.45.26.88.02 1.18zm.37-.2c0-.4-.29-1 .1-1.37.29.42.19.81.22 1.34a.17.17 0 01-.32.05zm-.73-5.16a4.92 4.92 0 00-.24 1.9.31.31 0 01-.26.23c-.36-.2-.09-.73-.22-1 0-.85-.29-1.35-.35-2.16l.16-.13c.23.09.16.55.49.42a21.28 21.28 0 00.73-2.61A24 24 0 00280 157h.16a32.55 32.55 0 01-1.09 7.94zm1.44 5.06c0-.49-.19-.92.08-1.44.29.39.15.88.25 1.31a.39.39 0 01-.33.15zm1.05-.16c-.17-.06-.27.1-.36 0l-.09-1.09a.36.36 0 01.32-.19c.23.23 0 .7.16.82s-.03.28-.03.48zM329.13 189.05a.32.32 0 01.08-.24 1.44 1.44 0 00.14-.61 1.44 1.44 0 01.14-.61.78.78 0 00.07-.42.82.82 0 01.08-.43 2.82 2.82 0 00.14-.87c.06-.78.05-.83-.14-1a3.67 3.67 0 00-1.14-.64c-.11 0-.05.33.07.43a.36.36 0 01.13.23c0 .06 0 .12.07.12s.13.12.21.26a3 3 0 010 1.74c0 .1-.12.25-.16.32s-.68.23-.68.09-.12-.09-.26-.09a.41.41 0 01-.3-.09c0-.05-.2-.08-.38-.08a1.17 1.17 0 01-.52-.14c-.16-.12-.19-.2-.15-.48a.65.65 0 01.58-.65c.31-.08.39-.26.17-.37l-.32-.16a1.17 1.17 0 00-.41-.1c-.11 0-.23 0-.26-.08a.89.89 0 00-.78 0v.08s.11.07.14.15a1.77 1.77 0 00.21.41c.19.29.23.56.1.56s-.09.1-.09.22 0 .21-.42.21a1 1 0 01-.48-.08.36.36 0 00-.27-.09 1.28 1.28 0 01-.74-.34c-.2-.15-.19-.49 0-.92s.27-.45 1-1c.31-.26.3-.45 0-.45a.5.5 0 00-.31.08c0 .05-.15.09-.28.09-.39 0-.62.1-.62.26a.29.29 0 01-.08.21.36.36 0 00-.09.27c0 .11 0 .21-.08.21a1.53 1.53 0 00-.13.64 2.23 2.23 0 01-.14.69.67.67 0 00-.08.37.77.77 0 01-.08.41 1.94 1.94 0 00-.13.62c-.08.62 0 .69.41.28a.82.82 0 011-.18 3.3 3.3 0 00.73.14 1.19 1.19 0 01.58.12 1.76 1.76 0 00.65.13 1.79 1.79 0 01.69.14.68.68 0 00.38.08c.19 0 .36 0 .38.07a.72.72 0 00.36.12c.4.07.55.2.55.49s.18.49.32.29a.65.65 0 00.11-.34zm-5.73 4.79a.57.57 0 00-.11-.35 2.53 2.53 0 01-.52-1.08c0-.35.19-.41 1.05-.35a3.75 3.75 0 01.88.13 2.92 2.92 0 00.8.14 2.71 2.71 0 01.76.14s.16.07.3.07a1.09 1.09 0 01.4.08 1.43 1.43 0 00.45.13.63.63 0 01.52.63c0 .14.21.14.33 0a2.27 2.27 0 00.15-.73 1.87 1.87 0 01.13-.66.82.82 0 00.08-.43c0-.28 0-.38-.13-.38a.2.2 0 00-.17.08 1.5 1.5 0 01-.74.35.26.26 0 01-.21-.09.6.6 0 00-.39-.09.58.58 0 01-.36-.08 4.16 4.16 0 00-1.16-.15 6 6 0 01-1.14-.11s-.2-.09-.44-.12c-.9-.12-.92-.51-.07-1.34.37-.35.59-.63.55-.69a2.35 2.35 0 00-1.4.14c-.27.12-.28.14-.28.68a1.3 1.3 0 01-.08.6.71.71 0 00-.09.43.78.78 0 01-.07.42 1.42 1.42 0 00-.13.54 3.47 3.47 0 01-.28.95l-.23.44.25.25a2.46 2.46 0 00.78.53.71.71 0 01.24.18.22.22 0 00.2.07c.1 0 .14-.12.13-.32zm1.05 3.34a3.58 3.58 0 00-.45-.18c-.08 0-.15-.09-.15-.13s-.05-.07-.12-.07-.53-.42-.46-.49a3.26 3.26 0 01.77-.1 3 3 0 00.8-.11s.15 0 .24.05.15.19.1.57c-.1.68-.29.81-.77.5zm2.24 2.61a.73.73 0 00.12-.34c0-.1 0-.2.09-.22a1.77 1.77 0 00.14-.69c.06-.76 0-.8-.44-.45-.18.14-.31.19-.35.13a.26.26 0 00-.21-.09c-.33 0-.45-.25-.39-.76a2.63 2.63 0 01.13-.61 1.88 1.88 0 00.13-.46c0-.26.09-.32.24-.32a.48.48 0 00.29-.09c.16-.16.63.09.63.32a.29.29 0 00.47.2 1 1 0 00.18-.5 1.53 1.53 0 01.13-.49 2.34 2.34 0 00.13-.67c.06-.54 0-.57-.12-.57a.29.29 0 00-.23.08c-.14.22-.65.37-1.4.41a2.09 2.09 0 00-.79.12 1.33 1.33 0 01-.6.07 1.57 1.57 0 00-.64.08 5.68 5.68 0 01-1.21.13c-1.37.07-1.68.18-1.68.59s.2.58.4.58.11 0 .11.06.13.15.28.24l.5.32a2.75 2.75 0 00.48.28 1.47 1.47 0 01.37.25.33.33 0 00.2.14 1.36 1.36 0 01.4.24 4.63 4.63 0 00.72.45 4 4 0 011.12.71.82.82 0 01.32.52c0 .13 0 .23.09.23s.08.06.08.13.17.16.31 0zm-5.69 3.32c.06-.11.08-.21 0-.24a2.86 2.86 0 01-.54-1.41v-.41h.47a1 1 0 01.52.09 1.07 1.07 0 00.48.14 1.17 1.17 0 01.47.13.47.47 0 00.29.07.47.47 0 01.3.08.93.93 0 00.46.14 1.86 1.86 0 01.49.13 1.41 1.41 0 00.34.12 1.44 1.44 0 011.21 1c0 .17.06.16.21 0a1.49 1.49 0 00.22-.56 2.64 2.64 0 01.13-.47 3.06 3.06 0 00.3-.88c0-.28 0-.33-.11-.33a.65.65 0 00-.36.22c-.21.21-.63.29-.73.13a1.29 1.29 0 00-.46-.14 1.6 1.6 0 01-.49-.12 1.6 1.6 0 00-.49-.12 1.22 1.22 0 01-.46-.14s-.16-.08-.3-.08a.43.43 0 01-.29-.08.93.93 0 00-.36-.14 2.74 2.74 0 01-.45-.12 3.22 3.22 0 00-.39-.15.67.67 0 01-.34-.22.86.86 0 01.24-.88c.63-.34 1.1-.89.8-.92a4.76 4.76 0 00-1.42.12 1 1 0 00-.11.55 1 1 0 01-.06.46c-.1 0-.28.45-.34.83a1.35 1.35 0 01-.12.42 1.77 1.77 0 00-.11.45 1.43 1.43 0 01-.34.8 1 1 0 00-.12.39c0 .29 0 .38.26.66a1.61 1.61 0 00.38.32.84.84 0 01.28.21c.25.27.35.27.5 0zm-2 3.89c-.58-.29-.89-.53-.89-.69a4.14 4.14 0 01.73-1.34 1 1 0 011.31 0 .66.66 0 01.28.64c0 .55-.55 1.66-.81 1.63a3.69 3.69 0 01-.62-.24zm3.82 2.84a4.72 4.72 0 00.36-.83.61.61 0 01.13-.29c.27-.36 0-.7-.3-.35-.16.18-.8.16-1.18 0a1.5 1.5 0 00-.43-.18c-.06 0-.11 0-.11-.06s-.13-.12-.28-.19a1.88 1.88 0 01-.43-.24c-.21-.19 0-.45.34-.45a.48.48 0 00.33-.09s.28-.08.55-.08a1.29 1.29 0 00.56-.08 3.1 3.1 0 01.88-.13 2 2 0 001-.2c.36-.32.76-1.57.51-1.57a.83.83 0 00-.27.21.67.67 0 01-.44.22c-.13 0-.26 0-.29.08a3.1 3.1 0 01-.88.13 4.21 4.21 0 00-1 .16c-.35.17-.49 0-.51-.68 0-.86-.34-1.39-.88-1.54a2.37 2.37 0 01-.4-.15c-.15-.07-.27-.05-.57.09a2.09 2.09 0 00-.49.31.34.34 0 01-.23.14.21.21 0 00-.18.15 2.94 2.94 0 01-.33.49 1.83 1.83 0 00-.34.58c0 .13-.09.24-.14.24s-.07.07-.07.15a3 3 0 01-.26.67 3.14 3.14 0 00-.26.63.57.57 0 01-.17.31 1.17 1.17 0 00-.22.54c-.05.3 0 .36.08.36s.14 0 .14-.06.51-.37.69-.37.17 0 .17.08.12.11.27.14a2.5 2.5 0 01.54.23c.15.08.33.18.41.21s.16.09.16.13.07.07.17.07a1.42 1.42 0 01.49.18 1.85 1.85 0 00.42.17c.06 0 .12 0 .13.06a6.55 6.55 0 001.24.63c.15 0 .38.39.38.64s.16.51.31.38a4.66 4.66 0 00.45-.8zm-3.33 5.58a2.39 2.39 0 01.35-.56 2 2 0 00.24-.4 2 2 0 01.32-.47 2.09 2.09 0 00.31-.5 2.08 2.08 0 01.37-.56c.39-.37.32-.8-.24-1.52a1.37 1.37 0 01-.24-.41s-.08-.1-.17-.1-.17.06-.17.3a.61.61 0 00.08.35 2.89 2.89 0 010 1.37.69.69 0 00-.14.31c0 .14-.09.25-.13.25a.09.09 0 00-.08.1c0 .19-.28.42-.51.42a1.06 1.06 0 01-.44-.13l-.34-.18a2.25 2.25 0 01-.3-.22l-.4-.47c-.31-.24-.37-.54-.15-.72a.36.36 0 00.13-.2.7.7 0 01.18-.29c.15-.16.28-.2.65-.2s.45 0 .45-.09a1.89 1.89 0 00-.61-.63l-.46-.27a1.47 1.47 0 00-.55-.21c-.18 0-.19 0-.14.23a.44.44 0 00.14.27c.16.06.09.36-.19.87a2.56 2.56 0 00-.16.33c-.08.17-.13.19-.33.15a1.27 1.27 0 01-.41-.23.59.59 0 00-.28-.16 1.52 1.52 0 01-.44-.31c-.4-.36-.45-.65-.16-1a2.88 2.88 0 00.28-.39 1.13 1.13 0 01.44-.37 2.62 2.62 0 00.38-.23 1.25 1.25 0 01.38-.1 1 1 0 00.42-.14c.13-.13-.09-.35-.36-.35a.53.53 0 01-.32-.09.87.87 0 00-.47-.07c-.34 0-.38.06-.57.41a1.77 1.77 0 01-.29.44c-.09.06-.19.22-.47.75a1.36 1.36 0 01-.26.37.32.32 0 00-.12.19 1.23 1.23 0 01-.22.35l-.29.36a1.71 1.71 0 00-.14.3 1 1 0 01-.22.37c-.09.09-.14.2-.11.24s.35.09.46 0 .68-.12 1.86.68l.29.22a.62.62 0 00.17.11 4.13 4.13 0 01.78.52l.4.32a1.15 1.15 0 00.31.13 1.44 1.44 0 01.53.39c.31.33.39.65.21.83s-.08.13 0 .24.15.12.41-.19a2.92 2.92 0 00.37-.5zm-6.84 1.33a1.34 1.34 0 00-.45-.34.21.21 0 01-.17-.15 1 1 0 00-.18-.3c-.1-.12-.1-.17 0-.38a1.82 1.82 0 011.35-1c.29 0 .39.06.67.36.47.51.44.82-.1 1.5-.12.14-.27.35-.34.45-.19.28-.45.23-.82-.16zm2.71 2.26a.53.53 0 01-.2-.16.24.24 0 00-.18-.12 1.93 1.93 0 01-.53-.43 1.79 1.79 0 00-.53-.43c-.06 0-.11-.1-.11-.23s.14-.37.49-.73.5-.5 1-.5a.92.92 0 01.88.35c.37.34.39.38.39.85s0 .53-.13.6a.38.38 0 00-.13.21c0 .14-.43.54-.64.59a.51.51 0 01-.3 0zm-.06 1.42c.32-.35.77-.82 1-1.06a2.49 2.49 0 00.42-.52 1 1 0 01.26-.34 1 1 0 00.26-.32.5.5 0 01.19-.25c.16-.14.19-.25.19-.8a1.69 1.69 0 00-.1-.75.38.38 0 01-.11-.24.66.66 0 00-.24-.35 1.63 1.63 0 00-1.41-.45h-.67v-.38a1.42 1.42 0 00-.11-.58c-.21-.38-.61-.75-.81-.75s-.2 0-.2-.09-.14-.09-.3-.09-.3 0-.3.09-.14.1-.3.14-.52.27-1.42 1.22a11.37 11.37 0 00-1.12 1.26 1 1 0 01-.3.39.9.9 0 00-.3.46c0 .14 0 .15.32.1a1.16 1.16 0 00.43-.15c.08-.06.11-.06.11 0s.08.09.18.09a3.36 3.36 0 01.94.69 6.05 6.05 0 00.83.69 1.74 1.74 0 01.41.34 1.8 1.8 0 00.42.35 4.19 4.19 0 011 1c.08.15.09.24 0 .3s-.11.57 0 .57a3 3 0 00.69-.62zm-2.09 2.32c.91-.94 1-1.18.6-1.18-.14 0-.26 0-.26.08s-.1.09-.23.09-.37-.13-.68-.44a4.68 4.68 0 00-.65-.54.85.85 0 01-.31-.34c-.07-.12-.16-.23-.22-.23a6.32 6.32 0 01-1-.86l-.86-.86v-.52c0-.32 0-.51-.07-.51a9.13 9.13 0 00-1.8 1.87c0 .17 0 .18.47.13h.48l1.1 1.09a10.93 10.93 0 001.18 1.09 3 3 0 01.63.55l.55.55v.43c-.08.76 0 .73 1.05-.35zm-4.91 4.45c.12-.12.24-.22.29-.22a5.58 5.58 0 00.74-.69 5.66 5.66 0 01.75-.68 1.61 1.61 0 00.42-.35 1.35 1.35 0 01.43-.34.48.48 0 00.25-.17c.13-.14.15-.25.1-.57a1.61 1.61 0 00-.13-.5 1.32 1.32 0 01-.14-.44c-.08-.42-.26-.62-.46-.5s-.14.24-.16.64a2.82 2.82 0 01-.85 1.86c-.55.56-.71.52-1.53-.34l-1.01-1.2a2.66 2.66 0 01-.47-.64 1.59 1.59 0 00-.34-.48c-.53-.51-.7-1-.47-1.21a.23.23 0 00.05-.24c-.06-.14-.32-.18-.32 0s0 .08-.11.08a1.7 1.7 0 00-.49.39 2.16 2.16 0 01-.46.39 1.8 1.8 0 00-.74.78.28.28 0 00.43.26c.31-.19.59-.11 1 .28a1.82 1.82 0 01.38.45 3.06 3.06 0 00.48.55 2.07 2.07 0 01.47.57 2.34 2.34 0 00.43.57 4 4 0 01.43.53 2.14 2.14 0 00.3.42c.17.19.27.37.22.38s-.09.13-.09.24 0 .21-.09.21-.11.16 0 .29.45 0 .75-.33zm-10.13 1.55c-.08-.09-.08-.16 0-.29s.07-.21-.12-.46-.32-.76-.15-.76.09-.06.09-.13a.13.13 0 01.13-.13c.07 0 .13 0 .13-.08s.11-.1.25-.13a.6.6 0 00.31-.14.76.76 0 01.41-.08.68.68 0 01.62.27c.22.22.26.32.26.75s-.2.87-.58.87a.42.42 0 00-.28.08 1.45 1.45 0 01-.78.35.39.39 0 01-.29-.12zm1.62 2.72a7.74 7.74 0 01-.7-1.22 1.53 1.53 0 00-.26-.42c-.18-.07 0-.33.23-.44s.3-.15.3-.18.12-.09.26-.12a.6.6 0 00.31-.14.86.86 0 01.45-.08c.37 0 .45 0 .75.35s.34.36.34 1-.07.79-.39.94c-.07 0-.3.15-.5.27-.45.25-.62.27-.79.06zM299 233a.56.56 0 01.26-.13 2.47 2.47 0 00.48-.25 3.79 3.79 0 01.6-.35 2 2 0 00.51-.31 1.23 1.23 0 01.39-.21.6.6 0 00.27-.15 2 2 0 01.42-.26 1.52 1.52 0 00.73-.84l.13-.27a1.85 1.85 0 00-.34-1.66.24.24 0 01-.07-.21.18.18 0 00-.11-.17l-.32-.17a1.23 1.23 0 00-.44-.1h-.25v-.8c0-.76 0-.83-.2-1a1.63 1.63 0 00-1.35-.51 4.34 4.34 0 00-1.62.67 5.22 5.22 0 01-.58.34.82.82 0 00-.32.23s-.11.09-.24.12a2.11 2.11 0 00-.51.27 1.37 1.37 0 01-.35.21.62.62 0 00-.24.17c-.15.17-.15.19 0 .32s.18.13.29.06.52 0 .72.27.08.12 0 .12-.18.12 0 .26a.37.37 0 01.13.22 1 1 0 00.21.36 1.38 1.38 0 01.27.48c0 .13.09.23.13.23s.09.12.12.26a.67.67 0 00.21.36.71.71 0 01.22.33 1.28 1.28 0 00.21.38c.4.46.56 1.21.31 1.42a.35.35 0 00-.07.46c.06.07.39 0 .45-.11zm-4.54 2l.2-.05-.06-3-.05-3 .19-.24a.6.6 0 01.35-.24.15.15 0 00.17-.16c0-.23-.13-.29-.36-.17l-.36.18a2.48 2.48 0 01-.63.13c-.25 0-.46.08-.46.12s-.11.09-.26.12-.28.09-.3.14.12.33.29.33a.72.72 0 01.33.19c.16.15.2.27.2.68a1.08 1.08 0 00.09.55 10.12 10.12 0 010 2.4c-.07.06-.88-.72-.88-.85a3.07 3.07 0 00-.52-.6 3 3 0 01-.52-.61c0-.06-.09-.17-.21-.26s-.31-.66-.13-.77a.41.41 0 00.09-.3c0-.21 0-.26-.2-.26a.72.72 0 00-.37.13.69.69 0 01-.36.13c-.1 0-.19 0-.19.08s-.12.11-.27.14a2.22 2.22 0 00-.49.18 1.27 1.27 0 01-.34.12c-.16 0-.13.35.05.48a.6.6 0 00.29.12 4.63 4.63 0 011.19 1.1 2.23 2.23 0 00.39.45 2.52 2.52 0 01.45.53c0 .07.52.63 1.08 1.22 1 1.09 1.12 1.15 1.58 1zm-7.71 2.16c.08-.1.31-.13 1-.13a4.1 4.1 0 001-.08l.55-.26c.53-.24 1.19-.94 1.19-1.27a.56.56 0 01.1-.35c.08-.07.08-.15 0-.29a2.6 2.6 0 01-.15-.47 1.45 1.45 0 00-.92-.89.51.51 0 01-.3-.1 2.71 2.71 0 00-.95-.14 3.74 3.74 0 01-.92-.11 1.52 1.52 0 00-.59-.08c-.54 0-1.17-.22-1.17-.41a.1.1 0 00-.09-.11c-.14 0-.09-.45.07-.64a1.28 1.28 0 01.91-.47c.17 0 .33 0 .35-.09s.15-.08.27-.08.21 0 .21.08.17.09.39.09a1 1 0 01.67.21c.36.27.68.35.81.19s-.05-.54-.58-1.11l-.42-.45-.24.22c-.22.21-.32.23-1.15.27a2.46 2.46 0 00-1.3.27 3.1 3.1 0 00-1 .94c-.16.25-.2 1.26-.06 1.26a.1.1 0 01.09.11 1.53 1.53 0 00.66.67c.06 0 .11 0 .11.08s.09.09.2.09a.48.48 0 01.29.09 5.57 5.57 0 001.26.14 4.85 4.85 0 011.18.13s.17.07.38.07a.82.82 0 01.51.13.43.43 0 00.22.13c.05 0 .09.05.09.13s0 .12.09.12.1.49-.05.61a.33.33 0 00-.13.2c0 .1-.6.4-.81.4a.23.23 0 00-.17.08 2.69 2.69 0 01-1.38 0 .25.25 0 00-.18-.08 2.11 2.11 0 01-.89-.42c0-.1-.33-.18-.49-.13s-.16.46 0 .46.09.05.09.12a.64.64 0 00.21.31.71.71 0 01.22.29c0 .31.65.52.86.27zM328.38 131.71c.25-.3.37-.32 2.57-.36s2.32 0 2.56.25c.45.52.6.36.6-.62s-.14-1.22-.47-.7c-.23.34-.26.35-2.19.35a8.47 8.47 0 01-1.95-.12 22.2 22.2 0 013.68-1.56c.54-.21.79-.37.77-.51a4.16 4.16 0 00-1.3-.77 13.56 13.56 0 01-3-1.56c0-.07.3-.09.66 0l1.84.17c1 .08 1.22.13 1.51.45s.36.33.47.16a5.76 5.76 0 00.06-2.09 1.51 1.51 0 00-.4.21c-.27.17-.53.19-1.64.07-.72-.08-1.73-.14-2.24-.14-.85 0-1 0-1.23-.38-.42-.53-.59-.26-.54.87v1l1.49.64c1.6.68 2.27 1.07 2.16 1.25a14 14 0 01-1.9.77 5.45 5.45 0 00-2 1 2.31 2.31 0 00-.07 1.06c0 .44.07.84.08.9s.16.11.42-.21zm1.49 7c.4-.07 1.45-.16 2.34-.22 1.48-.09 1.66-.07 1.93.17l.29.26-.09-2c0-1.12-.12-2.17-.17-2.34s-.29-.38-.78-.54a2 2 0 00-.77-.15s.12.25.36.45a2.49 2.49 0 01.93 1.82c.12.91-.13 1.15-1.36 1.27-.85.07-.93.06-1.14-.25a1.37 1.37 0 010-1.59c.51-.47.36-.67-.42-.6s-1 .17-.65.5a3.28 3.28 0 01.4 2 2.55 2.55 0 01-1 .21c-1.05.1-1.21-.06-1.22-1.28a1.78 1.78 0 01.31-1.33c.18-.24.29-.48.25-.52s-.92.25-1 .47a26 26 0 00.34 4.23l.07.34.31-.39a1.4 1.4 0 011-.5zm1.17 7.93a2.12 2.12 0 00-.56-.73c-.52-.51-.72-1.07-.44-1.24.06 0 1.07-.22 2.25-.39 2-.3 2.16-.3 2.54-.08s.4.21.4 0a11 11 0 00-.33-1.94s-.21.09-.39.27-.62.37-2 .57c-.92.14-1.92.26-2.23.27-.55 0-.56 0-.6-.5a1.84 1.84 0 01.32-1.15c.42-.73.28-.8-.65-.33-.47.24-.55.34-.48.59a29.26 29.26 0 01.56 4.06c-.09.24.17.45.78.62s.84.19.84 0zm.14 6.82c.14-.38.32-.44 2.79-1 1.86-.41 2.28-.43 2.52-.14a.59.59 0 00.31.21c.16 0 .15-.08-.41-2.73L336 148l-.55-.19a2.52 2.52 0 00-.84-.13c-.25 0-.21.09.23.39a2.39 2.39 0 011.08 1.8c.14.7.13.79-.12 1a2.93 2.93 0 01-2.12.27 2.34 2.34 0 01-.22-.83c-.07-.61 0-.74.23-1s.25-.32.15-.38a3.08 3.08 0 00-1.61.24c-.27.14-.27.15 0 .26a1.43 1.43 0 01.76 1.38v.63l-.83.16c-1.09.22-1.27.11-1.38-.82a2.83 2.83 0 01.22-1.74c.25-.53.06-.63-.5-.24-.41.28-.52.43-.46.66s.17 1 .3 1.84a6.69 6.69 0 00.57 2.44s.12-.15.2-.34zm1 4.69c0-.28.44-.56 1.15-.71 3.53-.77 3.92-.83 4.09-.56s.35.14.34-.25a3.18 3.18 0 00-.53-1.68c-.09 0-.16.05-.16.17 0 .31-.34.43-2.59.92s-2.33.5-2.66.14c-.14-.16-.3-.24-.36-.18a6.69 6.69 0 00.38 2.15c.1.17.34.16.34 0zm1 6.93c.09-.23.68-.59 2.12-1.29 2.85-1.39 3.13-1.55 3.18-1.79s-.48-.79-1-.79a29.74 29.74 0 01-4.14-1 2.48 2.48 0 01-.71-.44c-.19-.18-.36-.25-.44-.17a5 5 0 00.15 2c.05 0 .29-.06.53-.23l.43-.32 1.36.26c2 .38 2 .45.23 1.38-.83.43-1.55.79-1.61.79a.75.75 0 01-.32-.22c-.35-.35-.53-.11-.43.61.16 1.3.22 1.56.35 1.56s.2-.14.26-.32zm1.34 5.5a1.64 1.64 0 01-1.41-1.85c.17-.94.8-1.24 2.58-1.24a4.28 4.28 0 011.88.23 1.54 1.54 0 01-.45 2.85 7.09 7.09 0 01-2.6 0zm3 .94a2.54 2.54 0 001.27-2.58 14 14 0 010-2.94c.15-1.07 0-1.15-.4-.17a1.78 1.78 0 01-.43.78 1.13 1.13 0 01-.64-.17 5 5 0 00-2.72-.21 3.48 3.48 0 00-2 1.92 2.88 2.88 0 001.47 3.35 4.48 4.48 0 003.43 0zM221.52 202.14a1.93 1.93 0 01-.38-.58 1.59 1.59 0 00-.08-.34c-.09-.22.31-.5 1.18-.83.57-.22.95.25.95 1.14s-.18 1.06-.82 1.06a1 1 0 01-.85-.45zm1.73 1.63a1.52 1.52 0 00.85-1.52c0-.89-1.42-4.2-1.78-4.2-.06 0-.17.21-.24.47-.12.43-.32.58-2.1 1.47-1.95 1-2.57 1.15-2.91.82s-.33.35.12 1.33.82 1.31.9.63c0-.32.22-.49.93-.87a5.45 5.45 0 011-.48c.1 0 .39.4.65.88.76 1.43 1.5 1.86 2.53 1.47zm.27 7.1c.66-.11.74-.47.15-.61-.94-.22-2.09-1.31-2.09-2 0-.17.68-.67 1.94-1.44 1.85-1.14 2-1.19 2.59-1.1s.63.07.54-.17a11.1 11.1 0 00-1.44-2.1c-.06 0-.11.19-.11.43s-.15.54-1.43 1.37c-2.45 1.6-2.82 1.79-3.13 1.59s-.72-.22-.61.09a41.33 41.33 0 002.43 4 .58.58 0 00.39.05l.77-.15zm3.68 2c-.14-.22-.19-.43-.11-.5a3.48 3.48 0 011.31-.42 3.15 3.15 0 01-.82 1.29c-.07 0-.24-.17-.38-.37zm.1 4a10.78 10.78 0 011.53-3c.85-1.4 1.54-2.6 1.54-2.68 0-.34-.45-.5-1-.35l-1.35.38c-.44.12-1.48.43-2.31.69a4.9 4.9 0 01-1.91.36c-.51-.12-.53-.12-.58 0s1.28 1.81 1.44 1.71.1-.24.05-.43c-.1-.38.27-.71 1-.88.32-.08.46 0 .84.46.56.68.6 1.25.12 1.73a.74.74 0 01-.73.27h-.39c0 .37 1.44 2.31 1.63 2.2a.85.85 0 00.13-.53zm5.09 4.18c.68-.43.28-.75-.62-.49a1.29 1.29 0 01-1.17-.08 1.66 1.66 0 01-1-1.5c0-.8 1.35-2.44 2.47-3 .56-.28.66-.28 1.3 0a2.26 2.26 0 011.06 2c0 .66.21.7.51.11s.3-1.11.07-1.25a3.25 3.25 0 01-.5-.65 3.24 3.24 0 00-2.26-1.33 4.19 4.19 0 00-3.64 4c.22 1.87 2.39 3.14 3.78 2.24zm1.67 3.27c-.05-.46.15-.72 2.05-2.71 1.21-1.26 1.34-1.36 1.74-1.27.68.15.54-.22-.43-1.15s-1.26-1-1.13-.34c.09.46 0 .58-1.53 2.25s-1.63 1.77-2.12 1.7c-.72-.1-.66.16.29 1.18s1.21 1 1.13.34zm4.68 3.48c-.74-.31-1.34-.79-1.34-1.07a16.33 16.33 0 013.08-4 2 2 0 01.87.56c.54.51.6.63.6 1.27a3.87 3.87 0 01-1.42 2.59c-.75.72-1.18.87-1.79.62zm2.17.6a4 4 0 001.89-2.11 1.77 1.77 0 00.19-1.53 3.71 3.71 0 00-.68-1.36 11 11 0 00-3.2-2.4c-.23 0-.26 0-.12.17.44.45 0 1.3-1.51 3.06-.32.37-.73.87-.9 1.1a.88.88 0 01-.79.44c-.27 0-.52.08-.54.17s.36.47.86.86 1.12.92 1.36 1.17a2.11 2.11 0 001.88.79 3.15 3.15 0 001.56-.36zm3.31.63l-.36-.22c-.11-.09.48-.63.7-.63a.92.92 0 00.49-.25c.37-.33.47-.17.2.34a5.47 5.47 0 00-.29.68c-.09.29-.32.31-.74.08zm1.73 4.18c.05 0 0-.21-.06-.37a14.55 14.55 0 01.57-4.61 2.28 2.28 0 00.23-1.19c0-1.33-.17-1.34-1.69 0a11.6 11.6 0 01-1.51 1.17 6.3 6.3 0 00-1.14.85c-.78.69-1.22.95-1.52.89-.76-.13-.48.29.59.9a2.26 2.26 0 00.84.35c.06 0 .08-.27 0-.52s0-.52.32-.87c.51-.53.65-.53 1.4-.06s.79.63.62 1.35c-.1.45-.22.58-.6.69s-.47.18-.47.23a13.86 13.86 0 002.21 1.31.38.38 0 00.18-.09zm8 2.73a1.18 1.18 0 00-.18-.44c-.2-.32-.15-.5.94-3.3.43-1.13.66-1.53.93-1.66.56-.25.29-.54-.78-.83l-1-.26-.45.55a15.15 15.15 0 01-2.08 2.38c-.12 0-.14-.46-.09-1.89l.08-2-.82-.39a6.58 6.58 0 00-.91-.4c-.23 0-.47.51-.35.74a3.77 3.77 0 01-.39 1.68l-.76 2.18a1.71 1.71 0 01-.65 1c-.58.33-.45.61.43.91s1.07.17.79-.36c-.14-.26-.09-.54.27-1.56a12.58 12.58 0 01.94-2.45 12 12 0 010 2.38c-.09 2.27-.08 2.51.15 2.7s.18.37 2.15-2.15c1.2-1.54 1.59-1.94 1.39-1.42-.06.15-.27.82-.46 1.48-.43 1.49-.74 2.11-1.11 2.2a.3.3 0 00-.09.58c.57.38 2 .62 2 .34zM299.63 89.66a99.64 99.64 0 00-7.92-9.72 11.67 11.67 0 01-1.35-1.57c0-.55-11.78-10.91-16.48-14.48-2.52-1.92-2.71-2-2.71-1.33 0 .37-.65.77-1 .65a1.33 1.33 0 01-.54-.45c-.22-.33-.29-.35-1.65-.3s-1.45.07-1.72.43-.28.39.06.75a.78.78 0 01-.18 1.28 5.88 5.88 0 00-.83.61 1 1 0 01-1.06.35c-.58-.09-.76 0-1.47 1.08a2.63 2.63 0 01-.69.61 4.06 4.06 0 00-.92 1A7.58 7.58 0 01259.8 70c-.9.73-1.11 1.19-.63 1.36a2.57 2.57 0 011.37 1.3c.15.46.22.52.69.52s.63.11 1.13.66a1.81 1.81 0 00.91.67 1.7 1.7 0 01.82.53c.94 1 2 1.23 2.59.55l.31-.4.85.75a11.73 11.73 0 003.52 2c.59.2.93.64 1.53 1.93a10.49 10.49 0 00.7 1.25 2.09 2.09 0 01.41 1.38c0 .78 0 .86.42 1.07s.51.18 1.52-.18a6.56 6.56 0 012.71-.39 5.17 5.17 0 012.64.41l1 .42 1.32-.4A12.74 12.74 0 01286 83c1.9-.14 4 .55 4.58 1.51.75 1.23-.17 2.84-1.81 3.19a3.87 3.87 0 01-2.76-.42c-.7-.36-.82-.38-1.25-.2a6 6 0 01-3.59.64 10.81 10.81 0 01-2.07-.51l-.87-.36-.95.43a6.56 6.56 0 01-1.7.51 8.75 8.75 0 01-3.54-.69c-.78-.38-.75-.38-1.87.12a5.43 5.43 0 01-5-.13l-.95-.45-.93.46a4.79 4.79 0 01-5 0 8.67 8.67 0 00-1.28-.57 2.25 2.25 0 00-.68.34 6.24 6.24 0 01-3.76.89c-1.91 0-3.27-.36-4-1.1a1.91 1.91 0 01.14-2.86 4.71 4.71 0 012.55-.82 9.35 9.35 0 012.87.66c.38.19.48.18 1.21-.19a4.14 4.14 0 012.36-.39 5.11 5.11 0 012.52.4c.95.39 1 .39 1.59.16.33-.13.61-.31.61-.4a2.48 2.48 0 00-.84-.68c-2.68-1.66-5.66-3.76-5.66-4a7.57 7.57 0 00-1.05-1c-1.81-1.57-4.75-5.31-4.93-6.26-.12-.67 0-1 1.07-2.13.5-.55 1.34-1.56 1.86-2.25a6.85 6.85 0 012.08-2l2.35-1.52c1.79-1.17 2.23-1.6 2.19-2.18a.7.7 0 01.3-.72 2.62 2.62 0 00.63-.86c.41-.85.82-.9 1.54-.2l.55.53.6-.23a1 1 0 00.77-.79 4.82 4.82 0 01.53-1.1 3.27 3.27 0 00.37-.62 2.38 2.38 0 00-.46-.47c-.6-.55-.76-1.59-.3-2 .24-.21.43-.25.94-.17a8 8 0 001.15.08c2.31-.07 2.26-.08 3.25.44a9.66 9.66 0 012 1.51c1 1 1 1 1.35.77s.7-.16 1.18.36c.27.31.27.32-.12 1.06a4.28 4.28 0 00-.39.95c0 .1.25.35.56.55.75.5 4.91 3.81 6.82 5.43 1.64 1.38 3.24 2.84 6.85 6.26 2.33 2.21 6.1 6.24 6 6.46a35.55 35.55 0 002.94 3.81c1.23 1.47 3.81 6.53 4 7.81.09.63-.26.49-.79-.32zm-1.19-3.08a33.5 33.5 0 00-4.22-6.18 20.1 20.1 0 01-1.51-2c-.36-1-6.13-6.64-11.14-11-1.45-1.27-2.37-2-5.9-4.87-.57-.46-1.5-1.15-2.06-1.53l-1-.7-.35.4a1.14 1.14 0 00-.3.63 18.31 18.31 0 002.41 2.07c3.38 2.6 5.63 4.6 10.8 9.11a75.33 75.33 0 016.06 5.84 13.3 13.3 0 001.36 1.65 75.43 75.43 0 015.34 6.36 6.31 6.31 0 001 1.23 4 4 0 00-.45-1zm-44.39.42c1-.23 2.13-.83 2.13-1.12s-1.85-1.53-2.88-2a6.21 6.21 0 00-3.71-.08c-1.12.51-1.49 1.56-.79 2.26.93.93 3.35 1.34 5.25.89zm14.83.06a.41.41 0 01.34-.15 2.1 2.1 0 00.76-.31l.51-.32-.59-.51c-.32-.28-.78-.69-1-.92a8.87 8.87 0 00-1.2-.85 7.14 7.14 0 00-4.58-.25c-.49.16-.9.38-.92.49s2.35 1.89 3.41 2.35a10.13 10.13 0 002.93.56.41.41 0 00.34-.12zm14.8-.3c.34-.15.62-.34.62-.42A12.34 12.34 0 00281 84a6.85 6.85 0 00-4.23-.21c-.44.16-.82.38-.84.49a9.13 9.13 0 002.62 2 6.85 6.85 0 005.13.51zM269 83.49c0-.28 1.66-.61 2.86-.56s1.19 0 1.33-.33.13-.46-1-2.51a5.81 5.81 0 00-.74-1.15c-.11-.09-.82-.48-1.58-.87s-1.57-.83-1.79-1l-.41-.26.09.64a1.75 1.75 0 01-.15 1.09 2.08 2.08 0 00-.23.82 5.2 5.2 0 01-.22 1.11c-.38 1.26-.24 2.72.26 2.72a2.5 2.5 0 01.7.27c.5.27.88.27.88 0zm-3.39-.85c0-.25-.6-.89-1.14-1.22s-.43-.56.25-.2c.26.13.5.2.54.16s-.13-.38-.39-.75a3.6 3.6 0 01-.91-2.59l.1-.66.2.47a1.16 1.16 0 01.11.61c-.2.31 1.46 2.09 1.95 2.09s1-2.56.82-3.28c-.13-.45-.19-.49-.8-.52a2.9 2.9 0 01-2.2-.71 4.72 4.72 0 00-1.09-.73 2.67 2.67 0 01-.92-.74c-.43-.56-.76-.66-.91-.27-.06.16 0 .34.3.53q.84.6.54 1.14c-.19.36-.55.38-1 .07s-.44-.71 0-.58.37-.31-.19-.88a4 4 0 01-.74-1.26 1.82 1.82 0 00-.74-1c-.87-.53-1.15-.23-.47.51.31.33.35.45.2.62s-.21.18-.46-.06a5.21 5.21 0 01-.5-2.73 2.34 2.34 0 01.79-.85 5.17 5.17 0 001.82-1.8 7.64 7.64 0 00.44-.77h-.52c-.28 0-.52 0-.52-.08a.18.18 0 01.2-.17 3.22 3.22 0 00.85-.42 1.89 1.89 0 01.83-.36c.19.07 1.06-.81 1.07-1.07a2.9 2.9 0 00-.64-.79l-.65-.64-.42.3c-.33.24-.73.32-1.83.38h-1a5.59 5.59 0 002.26-.72l.52-.36-1.22-1.22-.89.74a25 25 0 01-2.66 1.79 8.67 8.67 0 00-3.59 3.09 15 15 0 01-1.49 1.84c-1 1-1.16 1.41-.8 2a33.38 33.38 0 003.92 4.8l2 1.92a36.37 36.37 0 005.09 3.49l.88.49-.67-.66a12.28 12.28 0 01-1.2-1.59 14.27 14.27 0 00-1.22-1.51c-.65-.67-.57-.77.44-.48.41.12.73.44 1.59 1.61a10 10 0 002.69 2.8c.52.31 1.33.43 1.33.19zm-9.5-9.13c-.23-.22-.07-1.05.3-1.59s.64-.49.21.22c-.22.37-.26.57-.15.84.18.48-.06.84-.36.53zm-.69-1.43c0-.72 1.07-1.58 1.95-1.56.25 0 .19.06-.23.21-.72.25-1.13.63-1.13 1s-.25.67-.47.67-.12-.16-.12-.35zm7.68 10.32s-.07-.1-.15-.15-.15 0-.15.06a.16.16 0 00.15.16c.05 0 .1-.03.1-.07zm2-17.53c.15-.21.18-.35.08-.39s-.74.39-.74.59.44.12.66-.2zm-.44-.85a.5.5 0 00.37-.52c0-.53-.51-.49-.8.07s-.29.72.43.45zm-1.1-.48a2.59 2.59 0 00.29-.59c0-.24-.4-.1-.73.25s-.31.4-.16.59.26.3.6-.25zm-.56-.94a.6.6 0 00.07-.88c-.21-.13-.38.06-.51.56s0 .49.44.32zm3-.6c.24-.38.38-.48.56-.4a5.94 5.94 0 001.37.17c1.09 0 1.14 0 1.67-.42a4.18 4.18 0 00.76-.9c.2-.39.19-.49-.08-1.09-.16-.36-.35-.66-.43-.66-.25 0-.49.43-.46.84 0 .66 0 .73-.36.9s-.43.1-.84-.2a1.87 1.87 0 00-1.84-.2l-.4.15.09-.69c.11-.79-.1-1.76-.41-1.88s-1.27 1.17-1.27 2c0 .48 0 .53-.4.53-1.05 0-1 .38.38 1.66 1 .94 1.17 1 1.66.16zm4.72 0a8.09 8.09 0 011.13-1.85c1.18-1.57 1.42-2 1.3-2.19s-.36-.14-.64.48a3.33 3.33 0 01-.61.93l-.34.29.1-.61c.14-.79-.11-1.28-1.19-2.34a7.06 7.06 0 00-3.1-1.71c-.39-.07-.55 0-.91.35a2.29 2.29 0 01-.52.44 2 2 0 01-.44-.37c-.42-.41-1.05-.49-1.18-.14a1.55 1.55 0 00.46 1.14c.35.2.93.24 1.06.07.87-1.09 1-1.2 1.53-1.19a5.64 5.64 0 013 1.74c1.06 1 1.25 1.49.89 2.24a3 3 0 00-.25.91 3.32 3.32 0 01-.5 1.19c-.51.79-.55 1.25-.11 1.17.13 0 .28-.25.33-.51zm-8.8 0c.28-.53.09-.7-.37-.33-.21.18-.3.36-.24.52.14.36.36.29.61-.19zm-1.3-1.12a.77.77 0 000-.45c-.14-.14-.75.48-.65.65s.53.19.63-.2zm1.07 0c.22-.16.29-.29.19-.39s-.41 0-.62.34 0 .36.43 0zm7.31-1.94a2.33 2.33 0 01.66-.84c.35-.26.42-.38.29-.53-.26-.32-.63-.23-1.11.28-.66.7-.85 1.12-.63 1.38s.57.24.79-.29zm1.86-.24a.26.26 0 00-.22-.29c-.25 0-.26 0-.13.35s.35.29.35-.06zm-2.52-.85c.68-.79.75-1.15.27-1.3-.26-.08-.43 0-.88.53a1.8 1.8 0 00-.56 1.05c0 .65.47.54 1.17-.28zm-1.1-.82c.43-.57.47-.87.13-1.15s-.3-.12-.73.39c-.61.72-.67 1.25-.14 1.25a1 1 0 00.74-.49zM212.55 126.79a2.83 2.83 0 01-.61-.78 5.6 5.6 0 01-.19-2.21 3.23 3.23 0 011.28-.22h1.17v.91c0 .76 0 1-.25 1.16a.88.88 0 00-.3.37c0 .14.81.15 1.46 0l.47-.1-.32-.24a1.54 1.54 0 01-.46-1c-.19-1-.1-1.2.74-1.31s1.29 0 1.41.45a3.41 3.41 0 01-.37 2.22c-.45.63-.28.82.43.46s.64-.22.42-2.84a8.36 8.36 0 00-.27-1.87c-.07-.07-.27 0-.47.09a9 9 0 01-2.66.39l-2.31.17-.71-.67.1 2c.13 2.73.18 2.93.79 3.23a2.43 2.43 0 00.8.26c.25 0 .23-.07-.19-.46zm4.93 6.35c0-.95-.16-1.18-.44-.65-.14.27-.3.3-1.75.3a5.73 5.73 0 01-1.6-.12 12.9 12.9 0 011.88-1.25 11.41 11.41 0 002-1.35 5.69 5.69 0 000-2.09c-.06 0-.19.13-.29.29s-.34.29-2.65.29-2.49 0-2.77-.32-.34-.27-.39-.22a3.34 3.34 0 00-.16 1c-.06.93.14 1.17.51.58.17-.27.34-.29 2.29-.29a10.29 10.29 0 012.17.12c0 .06-.14.28-.39.48a21 21 0 01-2.51 1.58 10.29 10.29 0 00-1.1.66c-1 .65-1.28 1.1-.78 1.3.13 0 1.35.08 2.71.08 2.43 0 2.48 0 2.79.36.17.19.36.32.43.28a2.74 2.74 0 00.11-1zm-4.16 6.62a7 7 0 001.06-1.71c.73-1.55 1.11-2.06 1.54-2.06 1 0 .88 1.94-.15 3.08-.28.31-.48.62-.42.67a1.73 1.73 0 00.78-.12c.61-.19.69-.27.71-.65a5.55 5.55 0 01.18-1c.38-1.34.07-2.72-.66-3a2.15 2.15 0 00-1.71.21 8.48 8.48 0 00-1.46 2.64c-.33.79-.64 1.1-1.12 1.1s-.86-.35-.86-1.18a2.86 2.86 0 01.93-2.22c.64-.64.68-.87.13-.74-1.13.28-1.13.28-1.15.72a5.22 5.22 0 01-.25 1.13 3.49 3.49 0 000 2.43 1.66 1.66 0 002.48.71zm2.07 6.64c.25-.07.34-.26.46-1.06.09-.53.26-1.58.4-2.33a5.66 5.66 0 00.15-1.44c-.05 0-.21 0-.35.15-.31.28-1.1.25-3.5-.14-1.68-.27-1.76-.29-1.87-.72-.21-.85-.36-.38-.93 2.78-.3 1.67-.26 1.83.61 2.27s.88.26.37-.27a2.09 2.09 0 01-.48-.87 3.15 3.15 0 01.35-2.06c.23-.27.31-.28 1.27-.12l1 .18v.58c0 .93-.19 1.38-.59 1.56s-.24.35.79.49c.78.11.94 0 .5-.31-.26-.19-.32-1-.12-1.75.1-.38.12-.39.88-.31 1.16.12 1.39.28 1.39 1a2.89 2.89 0 01-1 2c-.53.38-.13.6.71.38zm-3.21 7.25a1.7 1.7 0 01-.24-1.09v-.83h.69a5.27 5.27 0 011 .1c.31.08.34.15.28.8a2.25 2.25 0 01-.33 1 1.08 1.08 0 01-1.44 0zm1.62 1.08a3 3 0 00.59-1.2A19.16 19.16 0 00215 150c0-.05-.25 0-.43.23-.43.4-.74.39-3.16 0-1.61-.29-2-.41-2.23-.68-.38-.47-.54-.21-.64 1.05l-.09 1.08.32-.29c.29-.26.41-.27 1.42-.12a4.54 4.54 0 011.21.28 3 3 0 010 1.18 2.27 2.27 0 00.12 1.61 1.37 1.37 0 002.35.41zm-.38 6.2a31.67 31.67 0 00.51-4.76c-.07-.16-.17-.13-.45.16a.77.77 0 01-.7.29c-.18 0-1.18-.14-2.22-.23-2.25-.19-2.37-.22-2.48-.59-.05-.15-.14-.28-.2-.28a38.1 38.1 0 00-.61 4.68c0 .26.89.86 1.28.86.2 0 .18-.06-.07-.33a3 3 0 01-.52-2.44l.13-.8h1.15a2.7 2.7 0 011.28.22 1.84 1.84 0 010 .83 1.42 1.42 0 01-.52 1c-.51.44-.48.47.78.64.72.1.88 0 .47-.37a2.57 2.57 0 010-2 2.63 2.63 0 011.87.26 2.5 2.5 0 01-.53 2.3 1.53 1.53 0 00-.36.65c0 .19.09.2.55.08a2 2 0 00.64-.25zm-.07 6.64c.12-.13.13-.6 0-1.78a17.31 17.31 0 01-.06-2.4l.08-.81-.71-.25a6.41 6.41 0 00-.81-.25c-.21 0 0 .36.35.82a1.45 1.45 0 01.44 1c0 .62 0 .61-2.68.71-2 .07-2 .06-2.37-.29a2.37 2.37 0 00-.42-.35 5.49 5.49 0 00-.07 1.24 4.36 4.36 0 00.09 1.24 1.46 1.46 0 00.44-.37l.34-.37 4.74.08v.55a2.16 2.16 0 01-.39 1.09c-.21.29-.34.58-.3.65s1.06-.24 1.32-.51zm-4.58 4.06c.18 0 .76-.15 1.28-.23l2-.38c1-.21 1.1-.2 1.49.08s.56.38.56-.13c0-1.06-.52-2.48-.7-1.92-.13.38-.5.58-1.23.67-.42.06-1 .16-1.28.22s-1 .2-1.57.3c-1 .19-1.06.18-1.44-.16l-.37-.35.1.8a10.77 10.77 0 00.25 1.38l.15.58.2-.4a1 1 0 01.53-.46zm6.29 6.13l.58-.48-.56-2c-.31-1.07-.58-2.11-.6-2.3-.06-.48-.17-.55-1-.67s-1.13.11-.34.51 1.2 1.2.86 1.52a24.45 24.45 0 01-4.43 1.39.74.74 0 01-.51-.21c-.51-.61-.53.09-.06 1.56.26.8.41.87.61.27.13-.37.3-.48 1.29-.78a13.7 13.7 0 013.61-.79c.31.12.29.9 0 1.63-.45.93-.22 1 .63.31z" fill="#50d6cc"/><path fill="none" stroke="#a3a3a3" stroke-linecap="round" stroke-linejoin="round" stroke-dasharray="5 5" d="M19.64 1.57H3.54v135.75M17.8 318.43H3.54V169.04"/><path d="M4.68 154a2.84 2.84 0 011.82 2.73 3.08 3.08 0 01-3.26 3.1 3.71 3.71 0 01-2.78-1.21l.89-1.07c.16.15.08.32.22.48a2.29 2.29 0 001.66.72 2.13 2.13 0 002.13-2.16c0-1.26-1.05-2-2.48-2a3.12 3.12 0 00-.54 0v-1a3.9 3.9 0 001.66-.18 1.86 1.86 0 001.13-1.66 1.71 1.71 0 00-1.83-1.65 2.53 2.53 0 00-1.83.81l-.66-.73A3.46 3.46 0 013.36 149a2.79 2.79 0 012.91 2.69A2.44 2.44 0 014.68 154zM291.62 363.78v1.07h-4.38l-.16 3a3.93 3.93 0 011.73-.41A3.19 3.19 0 01292 371a3.25 3.25 0 01-3.34 3.54 3.75 3.75 0 01-3.14-1.63l1.05-.79c.15.1.06.27.13.4a2.56 2.56 0 001.94 1 2.56 2.56 0 000-5 2.59 2.59 0 00-2 1l-.76-.31.37-5.38z"/><path fill="none" stroke="#a3a3a3" stroke-linecap="round" stroke-linejoin="round" stroke-dasharray="5 5" d="M25.78 327.24v42.04h249.45M553.54 327.24v42.04H303.28"/><path d="M133.06 340.14a3 3 0 013.07 3 4.75 4.75 0 01-1.86 3.34 14.22 14.22 0 00-2.89 3.31h4.45a.22.22 0 00.18-.07.26.26 0 01.23-.08v1.19H130v-.74a12.68 12.68 0 013.08-3.95c.76-.69 1.85-1.62 1.85-2.91a2 2 0 00-2-2 2.19 2.19 0 00-1.81 1c-.1.14-.05.25-.15.39l-.87-.68a3.46 3.46 0 012.96-1.8zM141.33 351a1 1 0 111-1 1 1 0 01-1 1zM151.17 345.16a2.84 2.84 0 011.82 2.73 3.08 3.08 0 01-3.26 3.09 3.7 3.7 0 01-2.78-1.2l.89-1.07c.15.15.08.32.22.48a2.34 2.34 0 001.66.71 2.12 2.12 0 002.13-2.15c0-1.27-1-2-2.49-2a4.9 4.9 0 00-.54 0v-.95a4.1 4.1 0 001.68-.27 1.86 1.86 0 001.13-1.67 1.73 1.73 0 00-1.85-1.65 2.52 2.52 0 00-1.82.82l-.66-.74a3.47 3.47 0 012.54-1.13 2.79 2.79 0 012.92 2.68 2.46 2.46 0 01-1.59 2.32zM159.67 345.16a2.84 2.84 0 011.82 2.73 3.08 3.08 0 01-3.26 3.09 3.7 3.7 0 01-2.78-1.2l.89-1.07c.15.15.08.32.22.48a2.34 2.34 0 001.66.71 2.12 2.12 0 002.13-2.15c0-1.27-1-2-2.49-2a4.9 4.9 0 00-.54 0v-.95a4.1 4.1 0 001.68-.27 1.86 1.86 0 001.13-1.67 1.73 1.73 0 00-1.85-1.65 2.52 2.52 0 00-1.82.82l-.66-.74a3.47 3.47 0 012.54-1.13 2.79 2.79 0 012.92 2.68 2.46 2.46 0 01-1.59 2.32z"/><path fill="none" stroke="#a3a3a3" stroke-linecap="round" stroke-linejoin="round" stroke-dasharray="5 5" d="M25.78 345.72h95.24M271.79 1.78v343.94H166.36"/><path d="M394.53 340.14a3 3 0 013.07 3 4.75 4.75 0 01-1.86 3.34 14 14 0 00-2.88 3.31h4.44a.22.22 0 00.18-.07.26.26 0 01.23-.08v1.19h-6.22v-.74a12.68 12.68 0 013.08-3.95c.77-.69 1.85-1.62 1.85-2.91a2 2 0 00-2-2 2.19 2.19 0 00-1.81 1c-.09.14-.05.25-.15.39l-.87-.68a3.47 3.47 0 012.94-1.8zM402.8 351a1 1 0 110-1.95 1 1 0 110 1.95zM414.45 341.06l-.82.91c-.16-.11-.16-.27-.26-.38a1.9 1.9 0 00-1.24-.44c-.76 0-2.5.47-2.57 4.09a2.61 2.61 0 012.25-1.27c1.49 0 2.9 1.26 2.9 3.47s-1.41 3.54-3 3.54a3 3 0 01-2.5-1.41 6.47 6.47 0 01-.8-3.59 10.15 10.15 0 01.45-3.26 3.53 3.53 0 013.28-2.63 3.36 3.36 0 012.31.97zm-4.83 5.37c-.14 2 .83 3.49 2.12 3.49.9 0 1.82-.77 1.82-2.42 0-1.83-1-2.49-1.86-2.49a2.52 2.52 0 00-2.08 1.42zM423 341.06l-.82.91c-.16-.11-.16-.27-.26-.38a1.9 1.9 0 00-1.24-.44c-.76 0-2.5.47-2.57 4.09a2.61 2.61 0 012.25-1.27c1.49 0 2.9 1.26 2.9 3.47s-1.41 3.54-3 3.54a3 3 0 01-2.5-1.41 6.47 6.47 0 01-.8-3.59 10.15 10.15 0 01.45-3.26 3.53 3.53 0 013.28-2.63 3.36 3.36 0 012.31.97zm-4.83 5.37c-.14 2 .83 3.49 2.12 3.49.9 0 1.82-.77 1.82-2.42 0-1.83-1-2.49-1.86-2.49a2.52 2.52 0 00-2.13 1.42z"/><path fill="none" stroke="#a3a3a3" stroke-linecap="round" stroke-linejoin="round" stroke-dasharray="5 5" d="M271.79 345.72h113.28M553.54 345.72H430.41M559.77 1.57h24.21v11.65M204.85 54.45h379.13V37.66"/><path d="M579.54 31.39a1 1 0 110-1.95 1 1 0 110 1.95zM591.15 20.61v1.07h-4.37l-.16 3.05a3.93 3.93 0 011.73-.41 3.19 3.19 0 013.2 3.53 3.25 3.25 0 01-3.34 3.54 3.75 3.75 0 01-3.14-1.63l1-.79c.15.1.06.27.13.4a2.56 2.56 0 001.94 1 2.24 2.24 0 002.14-2.52 2.24 2.24 0 00-2.16-2.53 2.59 2.59 0 00-2 1l-.76-.31.37-5.38z"/><path fill="none" stroke="#a3a3a3" stroke-linecap="round" stroke-linejoin="round" stroke-dasharray="5 5" d="M583.98 244.69v24.91M560.59 318.22h23.39v-24.68"/><path d="M570.64 288.78a1 1 0 111-1 1 1 0 01-1 1zM582.42 278v.66q-1.08 2.46-2 5c-.61 1.63-1.17 3.29-1.69 5h-1.33c.62-1.91 1.3-3.8 2-5.67.49-1.27 1-2.54 1.54-3.8h-4.53V278zM591.23 283.47c0 3.64-1.82 5.31-3.36 5.31s-3.44-2-3.44-5.41 1.75-5.45 3.43-5.45 3.37 1.93 3.37 5.55zm-3.39-4.47c-1.05 0-2.29 1.5-2.29 4.21a8 8 0 00.23 2l3.73-4.83c-.45-.97-1.09-1.38-1.67-1.38zm-1.66 7.29c.46.93 1.11 1.44 1.74 1.44.93 0 2.21-1.12 2.21-4.08a9.25 9.25 0 00-.23-2.13zM599.23 280.37a3 3 0 01-1.69 2.55 3.35 3.35 0 012.05 2.93 3.07 3.07 0 01-3.27 2.91 3 3 0 01-3.21-2.84 3.45 3.45 0 012.11-3 2.86 2.86 0 01-1.61-2.48 2.73 2.73 0 012.86-2.61 2.61 2.61 0 012.76 2.54zm-4.9 5.39a2 2 0 002 1.93 1.91 1.91 0 002-1.85 2.81 2.81 0 00-2.26-2.4 2.68 2.68 0 00-1.74 2.32zm.42-5.39c0 1.4 1.87 2.13 1.87 2.13a2.55 2.55 0 001.45-2.05 1.62 1.62 0 00-1.69-1.59 1.56 1.56 0 00-1.63 1.51z"/><path fill="none" stroke="#a3a3a3" stroke-linecap="round" stroke-linejoin="round" stroke-dasharray="5 5" d="M583.98 54.61v83.42M204.85 245.19h379.13v-80.72"/><path d="M571.67 159h-1.18v-9.14l-2.13.64-.28-.66 2.77-1.46h.82zM579.14 159.2a1 1 0 110-1.95 1 1 0 110 1.95zM590.92 148.42v.66c-.72 1.64-1.39 3.29-2 5s-1.17 3.29-1.69 5h-1.33c.62-1.91 1.3-3.79 2-5.66.49-1.28 1-2.55 1.54-3.8h-4.53v-1.13zM593.43 158.22l.82-.91c.18.11.14.29.28.41a2.39 2.39 0 001.28.38 2.22 2.22 0 002.09-1.45 7.25 7.25 0 00.43-2.63 2.64 2.64 0 01-2.18 1.15 3.08 3.08 0 01-2.91-3.35 3.25 3.25 0 013-3.51 3.08 3.08 0 012.88 2.3 9.14 9.14 0 01.37 3 8.48 8.48 0 01-.46 3.14 3.53 3.53 0 01-3.28 2.47 3.35 3.35 0 01-2.32-1zm4.84-5.39c.19-2.13-.82-3.46-2-3.46-1 0-1.85.86-1.85 2.4s.92 2.36 1.86 2.36a2.45 2.45 0 001.99-1.3z"/></svg>