<svg xmlns="http://www.w3.org/2000/svg" width="598.24" height="354"><path fill="#fff" stroke="#50d6cc" stroke-linecap="round" stroke-linejoin="round" d="M164.78 1.15h433.55v289.03H164.78z"/><path d="M381.11 223.92a85.78 85.78 0 1185.78-85.78 85.94 85.94 0 01-85.78 85.78z" fill="#fff" fill-rule="evenodd"/><path d="M380.71 74.17a64 64 0 11-64 64 64.13 64.13 0 0164-64z" fill="#fff" stroke="#50d6cc" stroke-miterlimit="2.61" stroke-width=".36"/><path d="M381.11 50.94a87.21 87.21 0 11-87.1 87.2 87.31 87.31 0 0187.1-87.2z" fill="none" stroke="#50d6cc" stroke-width="2.08"/><path d="M330.33 89.51l-5.88-6c-.51-.51-.51-.75-.09-1.14 1.25-1.29 2.21-1.05 4.54.78l.42-.48-3.23-2.93-6.57 6.72 2.89 3.26.42-.42c-1.61-2.12-2-3.34-.95-4.45.53-.54.77-.75 1.34-.12l5.92 6c.39.41.39.74-.06 1.19l-.72.69.54.48 3.76-3.8-.53-.51-.69.72c-.45.42-.69.42-1.11 0zM333.68 87.39l3.94-3-.42-.6-.65.51c-.51.36-.78.36-1.08-.12L333 80.85l4.24-3.23 2.42 3.29c.33.47.27.74-.23 1.13l-.63.48.42.6 4-3.05-.45-.57-.63.48c-.5.42-.8.36-1.16-.09l-5-6.75c-.3-.45-.27-.75.24-1.14l.66-.45-.48-.55-3.92 3 .39.54.69-.45c.48-.41.75-.41 1.11.09l2.09 2.82-4.19 3.23-2.09-2.81c-.36-.51-.33-.75.18-1.14l.6-.5-.39-.54-4 3 .44.56.63-.5c.48-.36.81-.36 1.11.15l5 6.69c.36.51.3.77-.24 1.13l-.63.51.45.6zM344.41 79.38l8.45-4.38-1.79-4-.51.26c.54 1.8.63 3 .15 3.65a7.8 7.8 0 01-2.36 1.67c-1 .51-1.31.6-1.61-.09l-1.89-3.67.18-.09c1.47-.78 2.24-.54 3.08.86l.6-.32-2.24-4.49-.63.33c.63 1.5.3 2.27-1.14 3l-.14.09-1.62-3.2c-.33-.62-.09-.77.81-1.28a5.17 5.17 0 012.84-.81 4.71 4.71 0 012.24 1.91l.57-.32-2-3.5-8.12 4.24.35.63.72-.36c.54-.27.81-.24 1.08.3l3.79 7.5c.27.54.12.81-.45 1.11l-.71.35.36.66zM364.46 70.33a4.27 4.27 0 003.22.63c2.51-.42 3.62-1.95 3.26-4.19a3.26 3.26 0 00-1.38-2.21 6.9 6.9 0 00-2.95-.69c-2.1-.15-3.26-.08-3.53-1.64-.21-1.17.39-2 1.79-2.21 1.8-.33 3.2.57 4.19 2.81l.59-.09-.86-4-.57.08-.45 1a4 4 0 00-3-.6A3.11 3.11 0 00362 63c.35 2.06 1.64 2.48 4.24 2.69a9.88 9.88 0 012.66.45 1.56 1.56 0 01.95 1.37c.21 1.31-.53 2.39-2.21 2.69-2 .36-3.46-.75-4.42-3.29l-.6.15.87 4.54.51-.09.48-1.22zM378.86 68l-.45-8.49c0-.69.09-.86.66-.89 1.79-.12 2.36.71 2.95 3.67l.57-.06-.45-4.39-9.32.48v4.45h.57c.24-2.69.72-3.86 2.24-4 .78 0 1.05 0 1.08.81l.44 8.49c0 .59-.18.77-.8.8l-1 .06.06.72 5.32-.3-.06-.74-1 .08c-.62 0-.8-.11-.83-.71zM387.73 58l.6.06 3.26 10.31c.2.68.38.86 1 .89h.33l-.09.75-4.6-.3v-.78h.6c.65.06.92.06.92-.29.06-.15 0-.33-.09-.6l-.56-2-4.1-.34-.54 1.16a3.2 3.2 0 00-.32 1c0 .51.32.78 1.07.81l.42.05-.06.78-4.06-.27v-.77h.15c.92 0 1.28-.27 1.73-1.2l4.34-9.26zm1.27 7.13l-1.59-4.72-2 4.45 3.62.27zM398.55 70.12l1.88-8.25c.12-.68.3-.81.9-.68 1.73.41 2.06 1.37 1.79 4.33l.57.12.74-4.31-9.11-2.15-1.13 4.25.53.12c.93-2.54 1.76-3.5 3.26-3.17.72.18 1 .27.81 1.07l-1.89 8.28c-.15.6-.42.72-1 .6l-.93-.24-.18.69 5.13 1.22.18-.75-1-.2c-.59-.15-.71-.36-.59-.93zM402.07 72.87l8.85 3.43 1.76-4-.54-.18c-.95 1.62-1.76 2.42-2.57 2.51a6.86 6.86 0 01-2.81-.63c-1-.41-1.28-.59-1-1.31l1.46-3.89.15.09c1.56.6 1.91 1.35 1.47 2.93l.62.21 1.74-4.72-.63-.21c-.66 1.5-1.47 1.76-2.93 1.17l-.18-.09 1.29-3.35c.21-.69.47-.66 1.46-.27a4.84 4.84 0 012.51 1.62 4.57 4.57 0 01.09 2.95l.63.24 1.19-3.85-8.48-3.32-.27.66.77.27c.57.24.72.5.48 1l-2.92 7.92c-.24.54-.51.63-1.08.42l-.78-.33-.27.69zM424.18 77.5a6.22 6.22 0 013.82-2.33 4.94 4.94 0 014.06 1.22 4.78 4.78 0 011.83 3.83 6 6 0 01-1.56 4.21 5.74 5.74 0 01-3.61 2.33 5.18 5.18 0 01-6.1-5.23 5.76 5.76 0 011.52-4zm1.59 1.31c-2.24 2.66-2.51 4.73-.78 6.22s3.62.78 5.86-1.91 2.54-4.66.8-6.19-3.67-.84-5.88 1.88zM429.77 89.69l3.5 3.91.54-.5-.72-.75c-.42-.48-.42-.75 0-1.11l3-2.77.11.14c1.11 1.23 1.11 2 0 3.23l.45.51 3.73-3.35-.45-.5c-1.25 1-2.12.86-3.2-.3l-.09-.15 2.66-2.45c.54-.51.75-.33 1.44.44a5.25 5.25 0 011.49 2.6A4.36 4.36 0 01441 91.3l.44.48 2.84-2.84-6.14-6.94-.54.48.54.6c.45.5.45.77 0 1.19L432 89.93c-.39.42-.68.36-1.1-.09l-.54-.63-.54.48zM368 215.48l2-9.5-.39-.09a4.89 4.89 0 01-3.55.45l-.12.69 1.43.3c.57.12.75.23.63.65l-1.49 7.17c-.15.66-.42.72-1.23.54l-1.08-.21-.14.72 5.82 1.26.18-.75-1.13-.24c-.81-.18-1.08-.33-.93-1zM375 212.26a2.83 2.83 0 01-1.82-2.75 3.09 3.09 0 013.44-3c1.91.09 3.07 1.16 3 2.66a2.77 2.77 0 01-1.79 2.39 3.17 3.17 0 012.24 3.05c-.09 2-1.73 3.55-4.18 3.43-2.18-.09-3.44-1.31-3.38-3.16a2.93 2.93 0 012.48-2.66zm.63.29a2.49 2.49 0 00-1.82 2.42 2.14 2.14 0 002.33 2.37 2.26 2.26 0 002.6-2.19c.06-1.43-.93-1.82-3.11-2.6zm1.64-1.19a2.59 2.59 0 001.26-2.12 1.88 1.88 0 00-2-2c-1.26 0-2 .62-2.07 1.7s.84 1.79 2.84 2.45zM384.18 212.53a2.78 2.78 0 01-2-2.6 3.06 3.06 0 013.2-3.2c1.91-.06 3.14.92 3.2 2.42a2.79 2.79 0 01-1.62 2.51 3.12 3.12 0 012.42 2.93c.06 2-1.46 3.61-3.94 3.7-2.15.09-3.5-1.1-3.56-2.93-.06-1.28.72-2.3 2.31-2.83zm.62.26a2.45 2.45 0 00-1.61 2.57 2.09 2.09 0 002.45 2.15 2.26 2.26 0 002.45-2.36c-.06-1.43-1-1.76-3.29-2.36zm1.56-1.31a2.56 2.56 0 001.1-2.18 1.87 1.87 0 00-2.15-1.91c-1.26.06-2 .77-1.94 1.82s.95 1.73 3 2.27zM396.19 208.7c.33 1.55-.27 2.72-1.53 3s-2-.51-2.33-2.18.15-2.9 1.35-3.17 2.12.57 2.51 2.36zm.54 2c.65 3.32 0 5.26-1.65 5.62-.65.12-1 0-1.1-.27s.27-.48.15-1a1 1 0 00-1.11-.69 1 1 0 00-.72 1.25c.24 1.11 1.35 1.73 2.87 1.44 2.6-.57 3.95-3.38 3.17-7-.66-3.26-2.57-4.91-4.84-4.43a3.58 3.58 0 00-2.75 4.55 3 3 0 003.64 2.62 3.26 3.26 0 002.34-2.06zM347.63 199.94l-3.63 7.62c-.3.63-.48.72-1 .51-1.61-.83-1.7-1.82-.81-4.69l-.5-.21-1.68 4 8.34 4.18 2.09-3.86-.48-.29c-1.46 2.24-2.51 3-3.88 2.33-.69-.33-.9-.45-.54-1.23l3.68-7.62c.24-.57.5-.6 1.1-.33l.84.45.33-.69-4.78-2.36-.33.69.89.42c.6.27.69.54.42 1zM343.6 196.54l-4.06-2.9-.39.63.65.45c.48.35.54.6.21 1.1l-2.3 3.35-4.3-3.08 2.27-3.38c.36-.44.63-.5 1.14-.11l.65.47.42-.56-4.06-2.93-.42.6.69.44c.48.36.57.69.27 1.14l-4.78 7c-.33.45-.63.48-1.14.12l-.66-.48-.42.57 4.07 2.93.42-.6-.69-.45c-.48-.39-.57-.69-.27-1.13l2-2.93 4.33 3.11-2 2.84c-.33.5-.6.56-1.07.2l-.69-.47-.39.59 4.06 2.9.39-.63-.65-.45c-.51-.35-.6-.62-.27-1.13l4.78-6.9c.3-.51.63-.51 1.1-.15l.69.48.39-.6zM333.2 188.68l-6.63-6.9-3.2 2.87.39.39c1.52-1 2.6-1.44 3.35-1.17a7.57 7.57 0 012.3 1.82c.74.81.92 1.08.38 1.59l-3 2.9-.09-.13c-1.14-1.25-1.2-2.06-.12-3.28l-.45-.51-3.59 3.56.45.44c1.26-1 2.12-.95 3.23.24l.12.12-2.57 2.54c-.51.51-.72.33-1.44-.45a4.84 4.84 0 01-1.61-2.48 4.77 4.77 0 011.17-2.74l-.48-.48-2.69 3 6.3 6.63.54-.51-.6-.6c-.38-.45-.44-.71 0-1.13l6-5.86c.45-.39.72-.39 1.17.09l.53.57.54-.51zM319.25 172.25a4.51 4.51 0 00-.39-3.38c-1.17-2.27-3-2.84-4.93-1.79a3.12 3.12 0 00-1.64 2 7.78 7.78 0 00.26 3c.54 2.09.93 3.22-.38 4-1.08.57-2 .21-2.69-1-.87-1.65-.42-3.32 1.37-5l-.3-.51-3.49 2.06.27.48 1.16.15a4 4 0 00.36 3.13c1 1.86 2.69 2.4 4.36 1.5 1.85-1 1.79-2.36 1.23-5a8.72 8.72 0 01-.42-2.66 1.68 1.68 0 011-1.37c1.17-.63 2.42-.25 3.23 1.31.93 1.76.36 3.58-1.7 5.26l.27.57 4-2.25-.21-.5h-1.31zM316.71 164.66l-3.08-9.11-4.12 1.22.18.54c1.79-.27 2.95-.24 3.52.36a6.81 6.81 0 011.32 2.6c.36 1.07.44 1.4-.33 1.61l-3.83 1.37-.06-.18c-.53-1.58-.21-2.33 1.26-2.95l-.21-.69-4.69 1.7.21.63c1.55-.42 2.27 0 2.81 1.55l.06.18-3.35 1.17c-.72.24-.81 0-1.17-1a5.52 5.52 0 01-.41-3 4.84 4.84 0 012.21-1.94l-.24-.63-3.71 1.53 3 8.78.69-.27-.27-.77c-.18-.6-.09-.87.45-1l7.86-2.78c.53-.18.8 0 1 .6l.27.78.66-.24zM301.29 151.39l-.09-.57 9-5.85c.54-.42.72-.66.57-1.23 0-.09-.09-.24-.09-.33l.72-.15.9 4.64-.75.14-.09-.59c-.15-.69-.24-.9-.6-.87a4.37 4.37 0 00-.48.27l-1.8 1.15.81 4.18 1.25.21a2.15 2.15 0 001 0c.48-.09.66-.48.54-1.23l-.09-.39.74-.15.75 4-.75.15v-.15c-.18-.9-.62-1.17-1.61-1.4l-9.92-1.83zm6.54-3l-4.09 2.72 4.78.87-.69-3.59zM311.57 142.34l.36-9.27-4.34-.38v.59a5.22 5.22 0 013 1.32c.48.54.54 1.55.48 3 0 1-.09 1.28-.81 1.28l-8.3-.33c-.57 0-.75-.18-.72-.8v-.81l-.72-.06-.12 5h.72v-.81c0-.63.21-.86.81-.86l8.3.33c.57 0 .75.2.72.86l-.06.81.72.06zM308 121.39a6.27 6.27 0 01-3.61-2.63 5.16 5.16 0 01-.57-4.27 4.89 4.89 0 012.72-3.26 6 6 0 014.42-.27 5.85 5.85 0 013.53 2.45 5 5 0 01.71 4.4 4.66 4.66 0 01-2.89 3.34 5.73 5.73 0 01-4.31.24zm.6-1.94c3.35 1 5.26.39 5.89-1.82s-.75-3.74-4.07-4.72-5.25-.42-5.88 1.82.71 3.7 4.06 4.72zM317.07 111.44l2.36-4.66-.63-.33-.48.9c-.27.6-.51.66-1 .42l-3.62-1.91.09-.12c.78-1.5 1.49-1.77 3-1.2l.21-.54-4.37-2.33-.29.63c1.31.87 1.55 1.7.77 3.14v.15l-3.22-1.65c-.63-.33-.54-.59-.09-1.49a5.4 5.4 0 011.85-2.42 4.9 4.9 0 012.9.24l.3-.6-3.64-1.67-4.15 8.27.62.33.36-.74c.3-.54.57-.66 1.08-.39l7.41 3.79c.48.27.57.6.27 1.14l-.36.74.63.3zM454 105.14l-.62.27.14.36c.21.56.21.83-.14 1.13l-.84.78-6.31.62 5.41-4.57a2 2 0 01.48-.36c.27-.08.51.12.72.72l.15.42.65-.27-1.61-4.15-.66.27.12.42a.76.76 0 01-.29 1l-8.19 7 .24.57 8.15-.81-6.3 5.46.24.6 9.86-1c1-.09 1.46.09 1.82.87l.63-.27-1.34-3.47-.66.3.12.36c.27.69.15 1-.36 1.26a6 6 0 01-.93.24l-6.21.59 5.46-4.6a3.64 3.64 0 01.48-.3c.33-.12.51.09.72.63l.12.39.69-.27-1.74-4.19zM459.23 119.57l.12.6-8.81 6.21c-.51.42-.66.63-.51 1.23l.12.33-.75.17-1-4.63.71-.18.15.6c.18.66.27.9.63.84a1.63 1.63 0 00.48-.27l1.73-1.17-.93-4.12-1.28-.21a2.53 2.53 0 00-1 0c-.47.12-.65.57-.47 1.29l.09.42-.78.18-.9-4 .72-.21.06.15c.21 1 .63 1.2 1.64 1.38l10 1.43zm-6.45 3.32l4-2.9-4.78-.69.81 3.59zM450.6 130.89a4.33 4.33 0 00-1 3.17c.12 2.54 1.46 3.92 3.65 3.77a3.06 3.06 0 002.36-1.14 7 7 0 001-2.87c.36-2.12.48-3.31 2-3.4 1.2 0 1.92.68 2 2.09.12 1.88-1 3.2-3.26 3.91v.6l4-.36v-.6l-1-.54a4.12 4.12 0 00.95-3 3 3 0 00-3.31-3.23c-2.06.12-2.63 1.34-3.17 3.94a9.2 9.2 0 01-.75 2.64 1.78 1.78 0 01-1.43.83c-1.35 0-2.3-.87-2.39-2.6-.09-2 1.16-3.4 3.73-4v-.66l-4.57.33.06.54 1.11.65zM451 139.29l-.68 5 .72.09.08-.81c.09-.65.33-.77.9-.68l4 .53-.75 5.32-4-.54c-.59-.12-.71-.38-.62-1l.09-.78-.66-.12-.72 5 .72.12.12-.81c0-.62.27-.86.84-.77l8.24 1.19c.57.09.69.3.6 1l-.09.81.72.09.69-5-.72-.09-.09.8c-.09.63-.33.84-.9.75l-3.43-.48.74-5.29 3.44.48c.6.06.71.27.63.93l-.09.8.68.09.72-5-.72-.08-.09.8c-.09.6-.33.84-.89.75l-8.22-1.2c-.6-.09-.72-.33-.63-.95l.09-.81-.72-.09zM449.07 152.5l-1.1 5 .66.15.23-.84c.13-.63.3-.78.9-.63l8.07 1.91c.6.12.71.36.6 1l-.18.87.66.12 1.16-5-.72-.15-.18.77c-.12.69-.36.84-.92.69l-8.1-1.91c-.57-.12-.72-.36-.54-1l.18-.83-.72-.12zM447.79 159.31l-1.85 4 .62.27c.63-1.4 1.32-1.49 2.6-.87l5.95 2.81-11.56 2.3-.27.6 8 3.83c1.29.63 1.71 1.07 1.11 2.39l.63.33 1.82-4-.6-.27c-.62 1.41-1.22 1.5-2.6.87l-5.26-2.57 10.34-2.09 1.29-2.81-.66-.27-.09.21c-.33.75-.6 1.05-1.08 1.05l-6.66-3.09c-1.25-.57-1.64-1-1.1-2.39l-.63-.27zM442.77 178.28l-.45.72c-.36.6-.57.66-1.16.27l-.6-.39a2.31 2.31 0 01-.6-3.5c1.28-2 3.26-2 6.15 0s3.83 3.77 2.57 5.68c-1 1.59-2.65 1.88-5.11 1l-.35.54 3.85 2.3.36-.54-.54-1a4 4 0 002.54-1.94c1.61-2.51.81-5.68-2.18-7.68s-6.19-1.4-7.86 1.23a3.53 3.53 0 00-.42 3.49l-1.61-.36-.3.51 3.35 2.21c.45.33.51.54.15 1.05l-.45.72.63.44 2.66-4.24-.63-.42zM433.18 185.87l6 5.89c.45.45.48.69.09 1.13-1.25 1.29-2.24 1.11-4.6-.68l-.42.47 3.32 2.84 6.48-6.81-3-3.2-.39.39c1.64 2.15 2.06 3.38 1 4.45-.53.6-.71.78-1.31.18l-6-5.88c-.41-.42-.36-.75 0-1.2l.72-.72-.54-.5-3.64 3.91.47.51.66-.75c.45-.44.72-.44 1.14 0zM431.71 192.89a6.35 6.35 0 011.41 4.34 5.28 5.28 0 01-2 3.76 4.82 4.82 0 01-4.07 1 6.93 6.93 0 01-5.23-6.55 5.17 5.17 0 012-4 4.81 4.81 0 014.31-1 5.85 5.85 0 013.58 2.36zm-1.58 1.29c-2.18-2.81-4.06-3.5-5.86-2.06s-1.52 3.46.6 6.24 4 3.5 5.8 2 1.61-3.46-.54-6.21zM419 195.94l-3.89 1.91.3.63c1.34-.69 1.94-.36 2.57 1l2.84 5.94-10.46-5.58-.54.26 3.89 8.13c.62 1.32.62 1.91-.6 2.57l.27.66 3.91-2-.27-.63c-1.43.72-1.91.42-2.6-1l-2.54-5.32 9.3 5 2.78-1.37-.33-.63-.27.15c-.66.3-1.05.39-1.47.09l-3.22-6.69c-.57-1.26-.63-1.85.62-2.57l-.29-.6z" fill="#50d6cc" fill-rule="evenodd"/><path fill="none" d="M291.23 48.89h180.65v179.26H291.23z"/><path d="M381.11 74.14a64 64 0 11-64 64 64.12 64.12 0 0164-64z" fill="none" stroke="#50d6cc" stroke-miterlimit="2.61" stroke-width=".87"/><path d="M430.93 177.27c-.92 0-19.52-21.4-22.79-21.4v-.18H408c0-1.56-2.2-3-.54-5.73l-.18-.06c0-.58.19-2-.72-2 .08-.8.33-1.37.36-2.16h.38c0 1.13.62.71.79 1.23.65-.78.81-1.63 1.95-2l.06.18a6.63 6.63 0 001.17-1.74c.93-.26 1.72-.6 2.37-.78v.18a12.11 12.11 0 002.85-.57l.09-.72h.09l.09-.87h.09c.27-1.51 2.13-1.37 2.22-2.29-.53 0 .46-.61.54-.87.84-.14 1.4-2 1.62-2.37s.31.34.51-.09a12.57 12.57 0 00.81-2.13c.08-.44.06 0 .09 0v-.48a3 3 0 01-1.62-.18.4.4 0 01-.19-.37s-.05 0-.05-.07l-.08-1.22c0 1.29-.65 2.18-1.84 3.64-.44.55.85-1.4 1-1.86a8 8 0 000-2.85c0-.06-.17.06-.18 0-.08-.43.06-.84-.18-1.08s-.45-.43.18-.58a3.24 3.24 0 01.14-.73 2.34 2.34 0 00-.55-1.23l-.37-.24c-.17-.08-.3-.13-.33-.31l-.16-.73c-.05-.33-.67-.51-.92-.7-.18-.15-.05-.32 0-.49v-.17l-1.94-.47-1-.92.32-.64a1.42 1.42 0 01-.05-.22c-.19-1.15-.16-.86 0-1.39s-.57.55-.54.07 1-1.24.9-1.75-.47.31-.6.36c-.28.12.38-1.66.48-1.86.42-.85-.23-.75-.24-.87a2.62 2.62 0 01.41-1.78l-.1-.25c-.09.13-.19.23-.31.23s-.06-.35.11-.73l-.25-.64c-.17.12-.33.21-.4.11s.05-.34.21-.57l-.27-.69c-.12.39-.35.67-.69.51s-.14-1 .25-1.62l-.19-.48c-.24.95-.48 2-.78 1.74s.29-1.49.41-2.69v-.1a2.12 2.12 0 00-.6-1.72s-.28.06-.36-.18c-.3-.89 0-1.06-.72-1.44-.44-.22 0-.23-.18-.36s-.83-.29-1.08-.54-.2-1-.9-.57a1.61 1.61 0 00-.44.31c.2.27-.26.28 0 0l-.1-.1a3.83 3.83 0 00-.57-.18c-.14-.06.37-.52-.09-.18s-.09.59.12.69-.62-.13 0 .18a4.5 4.5 0 012.91 3.81c.06.39.19-.31.18 0s-1.94 3.07-2.37 2.73.38-.76.51-1.14a2.28 2.28 0 00-1.44-3.21c-.13-.05.09-.37-.09-.18s.64.89.87 1.08a3.06 3.06 0 01.24 2c-.19.63-4.37 3.2-5 3.27-.22 0 0 0-.93-.18-.6-.13 1.4-.44 1.45-.45.57-.09 4.5-2.9 2.73-3.54-.55-.2-.66 1.42-1.26 2.13-.93 1.09-3.25.85-3.82.75-.84-.15-.83 0-.15.33 2.66 1.33-2.25 1.69-1.62 2.82.43.76 1.42-1 2-1 .89 0-.81.83.33.42.41-.14.57.12 1.29 0s3-.58 3.79-1.41-.16-.1-.54.09-3.69 1.41-4 .75.78-.36 1.45-.42 2.08-1 2.58-.9-.17.11 0 .21.54-.34.9-.21-.21.16 0 .21a4.4 4.4 0 001.59-.42 5.78 5.78 0 013.87.6c.61.57 0 .28 0 .36s.3.06.36.18c.14.29.64 3 0 2 0 0-.21-.81-.36-1.08 0-.06-.69-.29-.75-.36s.06-.29 0-.36-1.13-.31-1.26-.36 1.22-.07 0-.18-4.16 1.23-5.25 1.59-1.23 0-1.6.27a1.52 1.52 0 01-.92.45c-.68.18-.48-.26-.91-.09s-2.43.29-2.16.54c.76.7 4.92 0 5.77-.21 1.14-.21.58.22.75.3s1.71-.2 2-.18-.23.11 0 .18c.43.15 2.19.79 1.77-.51-.15-.47-.23-.24-.29-.09s0 .06 0 .07v-.07a.36.36 0 00-.07-.09c-1-1-3.07.16-3.63-.18-.2-.11 5.16-2.42 6.18-.39.06.13.09.56.18.72s.17-.15.21 0c.2.81.32 1.36.39 1.73.09-.08.15-.13.15-.11a1.46 1.46 0 01-.09.6v.12c-.33.85-1.19 1.79-1.91 1.69a10.71 10.71 0 011.65-2.06c-.41-.79-1.11-2.52-1.2-2.3s-.2.86-.27 1c-.76 2.16-5.93 2.16-7.05 1.5-.15-.08.62-.1 0-.21s-1.78-.08-2.37-.18.95-.1 0-.18-4 .41-4.72.18h-.15s-.11 0-.21-.13c-.29-.31 1.12-.46.72-.66s-1.12.19-1.44.12.21-.14 0-.18-.93 0-1.08 0-.07-.46-.51-.18.31.46.54.69-.07 1.58.18 1.84.28 0 .36 0 .26.44.36.54 1.16.47 1.26.72-.22.49 0 .72c.63.62 1.59-.3 2.19-.18a11.92 11.92 0 013.07.36c.41.13-.16.11 0 .18s.5.06.75.18.88 1.13 1.2 1h.06c-.07 0-.18 0-.21-.1-.13-.43-.63-1.53.21-1.11.12.06.12.3.36.54s.32-1 .36.18-3.9 2.13-4.57 2 .24-.15 0-.18-1 0-1.26 0 .17-.1 0-.18-2-.51-1.44-.87c-.14.27 5 .1 5.59.09 1 0-.23 0-.34-.12s0-.16 0-.21-.31-.14-.35-.18.54 0-.19-.36-3.57-.16-4.35-.36c.15-.38-2-.59-2.37-.72s.4-.05 0-.18-1.13-.39-1.44-.54-.21-.66-.51-.36 2.26 1.73 2.34 1.77c.76.38 4.25.48 5.43.54s0 .13 0 .18 1.44.11.16.18a32.4 32.4 0 01-4.72-.15c-.47-.15.56 0 0-.18s-1 .49-1.62.18 0-.31-.18-.36-.61-.08-.72-.18-.06-.31-.18-.36-1-.52-.87-.21a11.37 11.37 0 002 1.26c.15.09.13.45.36.57.56.28 3.66.93 3.06 1s-1.37-.58-2-.3 1.8.93 1.89 1 2.3-.35 2.43-.39v-.15c1.16 0 4.2-1.37 4.18-2.7 0-1.06-.15.08-.19 0s.05-.28 0-.36-.49-.61.21-.39l1 2.73c.27.33.49-1.25.45-1.44s-.1.26-.18 0-.11-.85-.18-1.08-.27-.06-.18-.33.54.25.57.3a7 7 0 01.33 2.55c0 .65-.72 1.24-.69 1.62s.32.07.54.18-.17.2.18.36a2.87 2.87 0 011.65 2.37c.06.27 0-.2.18 0s-2.68 1.16-3.12 1.8.13 0-.36-.15-2.37-.12-3.28-.18.24-.15 0-.18-1 0-1.26 0 .09-.16 0-.18-1.63-.19-1.08-.39.5.53 1.44.06-.47-.34-.72-.39.32-.1 0-.18a3.85 3.85 0 01-1.26-.18c-.69-.27 2.47-.23 2.85-.24s-.1 0-.15-.12.18-.15 0-.18-.72 0-.9 0 .7-.13 0-.21a29.21 29.21 0 01-4-.54c-.38-.09.37-.1 0-.18-1.52-.31-.58 1.32 0 1s1.14.23.57.45.2 1.47.57 1.65.13.49.18.54.25-.22.36 0 .11 1 .18 1.26.11-.23.18 0 .1.74.18.93-.25-.86.18 0c.32.63.1-.49.22-.89a4 4 0 01-.42-1.76c0-.06-.14 0-.18 0-.23-.26 4 .08 4.74.15.06 0-.06.16 0 .18 1.84.62.28.14-.36.27s-1.71.23-2.55.36c-.07 0 .18 0 .18.09.11 2.49 4 2.83 5.73 1.62.09-.06 0-.35-.06-.33-.45.11-2.12 1.06-2.43.93-.06 0 .06-.17 0-.18-.46-.06-2.47-.45-2-.78.74-.49 1.78.06 2.67 0 .11 0 .31-.2.21-.24-.51-.18-1 .23-1.26.12-.06 0 .06-.16 0-.18a12.15 12.15 0 01-1.8-.36c-.68-.73 2-.4 2.19-.39s-.06.18 0 .18c1.23.1 2.12.5 2.49-.9.05-.19.45-.13.6 0s-.14.44 0 .54 1.2.12 1.44.18c.06 0-.06.18 0 .18.36 0 2.26.24 2.31-.27s-1.18 0-1.44-.06c-.05 0 .06-.17 0-.18a6.48 6.48 0 01-1.8-.18c-.05 0 .05-.15 0-.18s-.26.06-.36 0c-.57-.33 2.35-.25 2.16-.3-2.46-.57-.32-1.16.21-.63.23.23.48 1.08.66.69.41-.85-.38-.86-.69-1-.05 0 .06-.15 0-.18-.58-.29-1.06.25-.84-.93 0-.18 1.64-.31 1.89-.39.06 0 0-.17 0-.18 1.58-.28 3.72-1.78 3.46-3.57 0-.06-.17.06-.18 0-.35-1.24 1.08-.2.9.69 0 .07-.67 1.24-.51 1.26.37.07.93-1 .69.18-.19.87-2.2 1-2.86 1.11s.83 1.12.91 1.26.06.42.17.54.34.13.37.18.08.54.17.72.17-.05.19 0-.06.37 0 .54.18-.06.18 0c0 3.33-2.08 2.8-4.93 2.76-.06 0 .06-.16 0-.18-.23 0-.48.06-.72 0-.05 0 .05-.13 0-.18s-1-.33-.54-.6.7.17.75.18c.24.06.49-.06.72 0 .07 0-.07.21 0 .21.6.07 1.21-.05 1.81 0h.09a2 2 0 01.23-.25c.19-.17 1.69-.2 1.21-.69-.12-.11-.85.61-.4-.75a2 2 0 00-.06-1.41c0-.05-.15.06-.18 0s.06-.25 0-.36a1.88 1.88 0 00-.54-.36c-.21.62.19.47.22.51a7.21 7.21 0 01.17.9c0 .06.18-.06.18 0 0 2.33-3.39 2-4.74 1.11-.05 0-.09-.24-.09-.18 0 .8.37 2.62-.27 3.24s-.45-.12-.57-.14-.43.16-.66.2a6.58 6.58 0 01-6.14-2.21c-.2.24-.48.4.13.48 1.05.15-.41 1-1.11.93s0-.28 0-.36-.1.08-.18 0c-.42-.42-.41-1.44-.54-2.19-.07-.45-.11.2-.18 0-.29-.87.06-.51-.72-.9-.17-.08-.83-1-1.26-.84s.44.22.54.27.1.6.18.72.28-.08.36 0-.05.28 0 .36.31-.06.39.18a15.34 15.34 0 00.54 1.83c.08.16.46.31.33.54-.29.54-1-1.15-1.08-1.26s-.32-.05-.39-.18c-.33-.67-.16-.7-.72-1.26s0 1.05 0 1.05.12-.12.18 0c.58 1.15-1.25 0-.9-.15s.1-1.05 0-1.44c0-.11-.14.15-.18 0a13.29 13.29 0 00-.27-2.16c-.31.08-.18 1.29-.27 1.77s-.33-1.49-.36-1.59-.14.18-.18 0 0-.75 0-.93-.14.11-.18 0c-.11-.34 0-.63-.18-.9 0-.08-.14 0-.18 0a4.79 4.79 0 01-.36-.72c-.06-.12-.25-.08-.36-.18s-.51-.6-.91-1a13.81 13.81 0 00.61 1.71 33.39 33.39 0 011.19 3.72c.3.89 0 8.63 0 9.67s-1.63 8.48-3.57 11.46-5.06 6-14.13 8.78c-6.43 2-10.59 1.07-13.16 0h-.08v-.06c-.34-.14-.66-.28-.94-.43v.06c-.61.12-.64.09-.6-.35l-.31-.16c0 .61.2.6.2 1.09h.17l.15.54c1.93 1.55 7.92 6.62 8.56 6.9l1.26.18c2.15 0 13.54-2.39 14.08-5.64a5.71 5.71 0 002.19-1.56c.9-.25 1.6-1.65 2.49-1.9v-.33c1.12-.1 3.07-3.42 4.32-3.84.34-1.23 2.5-2.24 2.82-3.42.9-.3 2.95-4.85 3.51-5l.09-.33h.09a6.36 6.36 0 01-1.86 3.39c-.27 1-1.61 1.82-1.89 2.85h-.18c-.08.86-3.55 4.43-4.14 4.59a5.46 5.46 0 01-.93.93 14.91 14.91 0 01-3.24 2.7 27.06 27.06 0 01-4.06 3.27c-1 3.14-13.48 4.69-14.58 4.72l.18.09v.18h.54c0 .12 5.31 4.35 6.15 4.35 0 .09 2.32.29 0 .39v.33a24.09 24.09 0 003.21-.39v-.09c2.25-.72 1.9-.89 2.53-1v-.18c1.45-.06 2.4-1.47 3.72-1.83.14-.42 4.14-1.63 4.38-3.06a8 8 0 002.19-1.56c.93-.26 1.63-1.65 2.37-1.86-.07.88-3 3.45-4 3.72-.43 1.28-3.69 2.41-3.81 2.79-2.41.65-4.6 2.9-7.21 3.36v.09l-.32.09c3.45.25 5.65-3.05 8.61-3.57a15.69 15.69 0 012.7-1.74v.15a3.31 3.31 0 00-.54.72 54 54 0 00-7.35 4.44c1.46.18 4.3-2.57 5.94-2.82-.06.76-.91 1.1-1.11 1.83h-.69c0 .8.13.33 0 1.23h-.09l-.06 2h.18v1.11h.18v.72h.18c0 .92.31 2-.72 2.25a23 23 0 01-2.19 1.62c-.29.88-3.06 1.88-4.14 2v.09h-.09c-.56 2.07-1.8 5.34-2 7.38h.18c-.2 1.23-1.2 1-1.2 2 .27-.36.42-.31.84-.36-.1 1.24-2.67 2.55-1.14 2.13v-.09l.57-.06c0 .7-.78 1-.9 1.62h.54c0 .87-.46 1.19-.54 2h.18v.73h-.09a2.8 2.8 0 01-1.35 2.23l.48.06v-.1l.21-.05c0 1.15-.75 1-.9 1.83 3.35-.07 3.37-11.81 3.54-11.32 1.06 3.12-1 7.4-1.38 10.6h-.09l-.06.69h.18v.18c.72-.05 1-.86 1.05-1.44h.21a12.32 12.32 0 01-.18 1.26h.18v.18c.66 0 1.08-1 1.08-.18 1-.05 1.15-1.37 1.29-2.19h.09v.9h-.09l-.06 1.23c.95-.06.44-.43.87-.57a43.13 43.13 0 00.76-4.33h.28c0 1.77-.63 3.21-.72 4.9 2.19 0 4.12-.64 6.42-.75v-.09a37.54 37.54 0 007.5-1.35c3.13-.74 5.18-1.82 9.71-3.58L420.1 189c.58-.05 4.48-3.6 4.52-4a2.73 2.73 0 001.62-1.62c1.05-.09 1.36-1.94 2.13-2a14.52 14.52 0 012.71-3.26v-.66zm-20.6-66.09c-.56 0 .48-1 .93-.75.74.31-.64.74-.93.75zm1.56-.56a9.5 9.5 0 00.41-1.66c.14-.16-.52-2.34-.05-1.61.75 1.16 1 2.49-.16 3.63 0 .02-.39-.05-.2-.36zM402 124.06a.1.1 0 010-.07h-.16a2 2 0 01-.72-.06h-.08a.67.67 0 01-.28.13v-.18c0-.02-.92-.19-.48-.21 1-.06.93.12.76.26a2.6 2.6 0 01.95 0c0-.12.14-.23.24-.12s-.15.34-.23.25zm12.49-5.82l.06.12v.06h-.12l-.06-.12zm-.27.18c.62.31.17.72-.36.72-.21 0 .14-.83.34-.72zm-.42 1.08l-.84.9c.28-.25 1.07-1.29 1.41-.6.55 1.09-.61.77-1.86.81v-.18h-.36c-.02-1.08 1.52-2.25 1.63-.93zm-.72-2v.18h-.12l-.06-.12zm-.24.18l.06.11v.06h-.12l-.06-.11zm-.12.29c.19.39-.61.77-.93.46s.64-.97.91-.43zm-7.72 2.61h-.29v-.21l.38.06zm1.83-.77a10.1 10.1 0 00-4.11-.18 6.44 6.44 0 01-5.92-1.57s-.41-.57.08-.24c.83.58 2.69 1.68 3.72 1.68.26 0 1.16-.21.23-.47a12.31 12.31 0 01-2.68-1.1c-.58-.47-.8-.62-.8-.62.19-.44 2.09.23 2.65.21s3.83-.81 5.43.43c1.78 1.37 3.14 2.42 1.41 1.86zm.94-1.36c-1.26 0 2.35-.33 2.22-.21-.94.87-1.17.21-2.21.21zm2.19 7.23c-.87-.12 0-.14 0-.18-.4-.4.32-.19.72-.33.7-.25.16.63-.68.51zm.72-.9c-.67-.14-.37-.15-.15-.16-.36-.72 0-.37-.72-.72-.05 0-.1-.33-.18-.36s-1.07-.29-.54-.39c1.91-.39 2.54 1.85 1.6 1.63zm.32-1.86a9.49 9.49 0 01-1.07-.24h-.46c-.3-.91 2.46 0 2.46 1-.01.03-.93-.74-.93-.76zm3.49 2.4c-.09-.14.21-1-.36-.39-.24.24-.95 1.6-1.47 1.29-.08 0 .9-1 0-.66-1.09.45.46-.72.48-1 .07-1.21-.5.44-.69-.12s.08-1-.18-1.26c0 0-.14.07-.18 0-.36-.72 0-.36-.72-.72-.08 0 .11-.15 0-.18s-.43 0-.54 0 .21-.17 0-.21a10 10 0 01-1.62-.18c-.12-.08-.2-.85 0-.87 2.08-.21 3.5-.59 4.92.84.3.3.25 1.07.36 1.65 0 .17.14-.17.18 0 .14.52 0 1.48.3.51 1.03-2.9.31 2.41-.47 1.3zm1.08 17.05c-.13-.14.08-.35.21-.21s-.1.3-.2.21zm.54-7.63c-.12 0 .35-.57.57-.39s-.29.49-.56.39zm.36-1.26c-.08-.1.11-.48.18-.51.97-.33.09.82-.17.51zm.72.72c-.1-.06.33-.49.39-.39a.28.28 0 01-.38.39zm0-1.44v-.18c0-.04-.16.06-.18 0a5.93 5.93 0 01.51-1.35l.09-1.77h.09v-.09l.57-.06v.69h.18v.18h-.09l-.09 1h-.09l-.09.72H418zm2.4-3.3c0 1.62-.6 2.42-1.5 3.84-.23.38.49-1.19.51-1.32a28.41 28.41 0 00.24-3.24c.05-.42.66.72.76.72zm-.69-2.91c.43-.86.56.19.48.57 0 .12-2.35 2.24-2.91 2-.05 0-.25-.45 0-.51 1.47-.35 1.73-.61 2.44-2.06zm-.63-.3c.27 1.6-1.71 1.5-1.62 1.47a2.63 2.63 0 001.5-1.53s.13.02.13.06zm-2.52 1.23c-.57 0-1.34-.12-.18-.57s1.56-.18 2-1.62c.4-1.2.38.68.12 1.08-.35.63-1.87.93-1.93 1.11zm.9 2.16h.39v.36h.18v.72h-.09l-.09.69-1.26 1.32c.83-1.61.85-1.26.88-3.09zm-1.08 7.8c-.05 0-.14.07-.18 0-.73-.58.96-.51.19 0zm-.54-2.16c-.13-.13.08-.34.21-.21s-.1.31-.24.21zm0-2a.84.84 0 01-.54 0c-.69-.21 1.25-.28.51-.01zm-1.47 2.37c-.14-.12.08-.34.24-.21s-.11.31-.23.2zm0-2a1.47 1.47 0 01-.72 0c-.74-.17 1.49-.23.73-.02zm-.9.9a.84.84 0 01-.54 0c-.69-.22 1.25-.27.55-.02zm-1.23-1.26c.05 0-.05.16 0 .18s.26 0 .36 0c.29.16-.53.32-.75.21s-.04-.6.4-.41zm-1.43 1.06c.15.26-.3.73-.57.57-.11-.06.5-.68.57-.57zm-.18-1.26c.15.26-.3.73-.57.57-.11-.06.5-.66.57-.57zm-15.25-7.23c-.13-.14.08-.35.21-.21s-.11.35-.21.21zm.88 1.28a.46.46 0 01-.05.1c-.13 0-.2-.2-.3-.25s0-.08 0-.1.26-.11.38-.11.08.18.08.31zm1.68 3.51c-.13.67-.51-.28-.53-.45-.16-1.87.62.02.53.45zm-1.46-2.87c.37.36.35 3.48 1.11 3.48.05.17.9 1.55 1.36 1.24s.32.25.58.48.7.19.78.43c.62 1.73.41.35.61.27.68-.28 1.25 1.6.68 1.24-.16-.09-.09-.55-.31-.55-1 0 .14.32-.15.6-.43.43-1.34-1.64-1.94-1.64-.39 0 .89 1.92.18 1.92-.46 0-.43-2.22-.83-2.22-.11 0-.36-.34-.43-.28-.36.28 1.11 3.7 1.31 3.91s1.48 1.21 1.21 1.29c-2.23.66-2.12-4.44-3.08-4.44-.5 0 .59 1.33.18 1.66s-.87-2.46-.85-2.95c0 0 1.05.64.83-.23-.06-.2-.31-.38-.36-.55-.38-.1-.63-.58-.9-.81v-2.85zm5.31 8.33h-.14c-.41-.43.27-.44.16 0zm-.47 1a.78.78 0 01-.5 0c-.11-.17-1.84-1-1.19-1.44.48-.28.74.7 1.19.84s.5.01.5.63zm-1.8 1.29c-.06-.12-.89-.77-.62-.81.77-.08.64.88.62.84zm-1.22-.33c-.48.24-1.81-2.9-1.46-2.9.63 0 .87 1.79 1.12 2.27.05.12.7.48.34.66zm-1.62-1.44c.54-.5.24 2 1.31 2.18.51.08.49 1.24 1.42 1.56.12 0 .08.32 0 .4s-4.12-2.77-2.73-4.11zm-.95 9.32c-.06-.06-.18-.3-.1-.38a3.11 3.11 0 01-.38-1.16c.37 0 .45 1 .65 1.24a.82.82 0 01.07.25.72.72 0 01-.24.1zm.8-.48h-.1c-.21-.34-.13-1.17-.43-1.36 0-.24-.32-.44-.32-.76.42 0 .77.85.83 1.19.1-.07.07.86.02.96zm.88-.25c-.22-.46-.55-.83-.52-1.26s-.61-.76-.73-1.19c-.06-.19 0-.53-.08-.71V142c.13 0 2.06 3.25 1.33 3.25zm1-2.22c-.11-.29-.68-1.11-.68-1.26a.13.13 0 00-.13 0c0-.3-1.71-1.82-.9-1.82 1.34 0 2 1.67 2 3.08zm1-.53a1 1 0 00-.2-.38c0-.17-.37-.49-.25-.61.37-.18.73.76.73 1zm3.08-5.36c-.08.23-.44.41-.53.66s-.08.68-.36 1c-.43.44-1.28.82-1.28 0h-.18a.9.9 0 01-.25-.08c-.8-.64 1.51.08 1.64-.63.06-.33-.06-.76 0-1.08s1.03-.24.9.16zm.22-2.72c.15 0-.69.25-.25-.31s.26.28.18.28zm6.69 2.09c.09.1-.12.31-.21.21s.01-.31.15-.18zm-5.29-3.06c.13-.24.37.34.4.36s.6.22.75.36-.06.16 0 .18.25 0 .35 0 0 .16 0 .18c.7.35 2.41.57 3.19-.21.53-.53.54.2.21.39-.68.39-1 .91-2 .75-.06 0 0-.17 0-.18a5.53 5.53 0 01-1.26-.18s-.13-.33-.18-.36-.26 0-.36 0 .05-.15 0-.18c-.33-.11-1.4-.63-1.16-1.08zm1.84 4c0 .06-.14.07-.18 0-.77-.53.49-1.01.12.02zm-.18 9.4c-.14-.16.08-.38.2-.24s-.16.36-.26.26zm0-11.05c.09.1-.12.31-.21.21s.04-.32.18-.19zm-1.69 8.35c0 .05-.1 0-.12 0-.39-.12.28-.8.09.02zm-.17.06c.06.05 0 .36-.07.33-.27-.08-.29-.51.04-.31zm-11.8 15.36c1.4-.39 3.06-3 4.5-3.91a16 16 0 002.25-2.67c.46-.15 4.84-5.91 5.43-8.1h.09v-.09l.24-.06v.54h-.18v.33h-.09c-.49 1.77-2.59 4-3.52 5.52-.73.25-1.2 2.16-1.92 2.4-.67 1.12-2 1.84-2.61 2.85-1.25.42-2.58 3-3.78 3.36a2.26 2.26 0 01-1.05.64l-.06-.12a3.77 3.77 0 00.7-.69zm8.58-2.77c-.54-.27.42-1.12.69-.93s-.14 1.21-.69.93zm-.06 3.46c-.13-.14.08-.35.21-.21s-.11.3-.21.21zm-1.59.15c-.42-.22.19-.95.48-.66a.42.42 0 01-.48.66zm-.6 3.66l.06-.21h.09v-.33c1.22-.03-.27.96-.15.5zm1.14-4.38c-.18-.24.33-.31.15 0-.02.03-.12.03-.15 0zm.15 2h.21v.18h-.18zm-.84-2.16c-.54.54-1.86 1.3-2.07 2s-6.14 5.25-6.81 5.25l-.06-.12a.63.63 0 00.36-.45 6.48 6.48 0 002.13-1.47c2.49-2.49 6.19-4.63 7.89-7.75l.12.06a11.19 11.19 0 01-1.56 2.49zm-9.66 7.89c0 .21-.18.11-.33.06s.29-.26.33-.05zm-.51.24c-.11-.08.12-.23.15-.06s-.06.15-.15.07zm-.06-1l.06-.42h.09v-.09c1.58-.7 10.53-8.64 11.07-10.15l.33-.09v-.09l.15-.06c-.61 2.84-8.77 8.13-8.94 9.1zm.75.63c0 .16 0 .14-.15.06s.12-.27.15-.1zm.21-.18c0 .18-.06.13-.18.06s.15-.28.18-.14zm.36-.18c0 .21-.18.11-.33.06s.29-.31.33-.1zm11-11.86a.42.42 0 01-.48.66c-.41-.25.2-.99.49-.7zm.75 3c.11.29-.11.91-.39.57s.36-.69.4-.61zm-.45-3.24h-.12c.07-.33.71-1.83.9-1.35s-.43.79-.77 1.34zm1 1.47c.85-.29.1.56-.18.36-.1-.06.14-.36.15-.37zm-.12-2.94c-.56-.28.16-.61.51-.72s.02.99-.54.71zm-12.51 11.32a2 2 0 01-1 .48c.28-1 2.49-1.59 2.73-2.31 1-.27 2.37-2.42 3-2.64.16-.48 3.1-2.19 3.48-3.34.38-.22.67-.89 1.05-1 .05-.18 3-4.11 3.09-4.14.12-.23.32-.31.45-.54 1.22.56-10.21 12.76-12.83 13.48zm.33-1.65c.1.15-.13.23-.18.15s.01-.32.15-.15zm.21-.12c0 .16 0 .13-.15.06s.09-.24.12-.07zm9.57-8.83a6.5 6.5 0 00-1.47 1.8c-.24.48-1.75 1.22-2.07 1.87s-5.15 5-6 5l-.06-.12a21.91 21.91 0 003.21-2.82c.27-.27.74-.57 1.08-.91a9.24 9.24 0 012-1.8c.42-.2.95-1.21 1.35-1.62a12.12 12.12 0 002.55-3.06 25.74 25.74 0 013-3.57 32.8 32.8 0 01-3.62 5.18zm4.38-6.69l.12.06c0 .35-.44 1.58-.84 1.38s.46-1 .69-1.45zm-12.75 13c.65.1-2.3 2.21-2.7 2.22s2.02-2.3 2.67-2.2zm-2.7 3.33c.16-.2.16.24.06.12s-.26.1-.09-.1zm0 .18c.1.15-.13.23-.18.15s.04-.28.15-.13zm0 3.81c.1.15-.13.23-.18.15s.04-.28.15-.13zm-.33-3.69c.11.11-.1.32-.21.21s.06-.31.18-.2zm-.39-1c.16-.2.16.24.06.12s-.22.08-.09-.11zm0 .18c.1.15-.13.23-.18.15s.02-.32.15-.15zm0 3.93c-.21.36-.45.3-.72.21s.89-.57.69-.21zm-.18-2.85c.16-.2.16.24.06.12s-.26.08-.04-.12zm0 .18c.1.15-.13.23-.18.15s.05-.31.2-.15zm-.18 1.56c-.21.35-.34.33-.54.21s.74-.56.51-.2zm-.54 1.65c-.3.16 0 .09-.3 0s.56-.16.27 0zm-.33-2.55c.09.11-.09.32-.18.21s.05-.3.15-.21zm-.72 2.94c-.2-.12-.4-.16.18-.33s-.02.45-.21.3zm0-1.29c.11.11-.1.32-.21.21s.09-.33.21-.21zm-1.5 2.76c.63-.19.19.4-.12.3s-.52-.1.12-.3zm-.15.42c0 .22-.21.18-.4.09s.4-.31.4-.09zm-.37-3.18c.12.11-.09.32-.2.21s.09-.33.2-.21zm-2.73 5.26c-.11-.11.1-.32.21-.21s-.09.35-.21.21zm1.62-.39c-.49.14-.22.15-.72 0s1.22-.12.72.02zm0-1.08c-.11-.11.1-.32.21-.21s-.09.35-.21.23zm.72.75c-.16-.11 1.11-.71 1.15-.48s-.95.62-1.15.5zm13.12-8.28c-.66 1.33-2.7 1.95-3.69 2.94-1.89 1.89-3.46 2.47-5.79 3.63-.82.41-1.57 1.17-2.47 1.17l-.05-.12 4.11-2.34a9.16 9.16 0 002.37-1.44c1.24-1.25 3.05-2.1 4.32-3.36.79-.79 2.32-2.86 3.42-3.06l.06.12a1.38 1.38 0 00-.57.78 15.86 15.86 0 00-1.71 1.68zm.51 2.67h.09v-.09l.39-.06v.36l-.33.09v.09h-.18zm-1.14 1.65h.39v.18h-.36zM395 166c-.07.85-.68 1.11-1.44 1.11l-.06-.12a5 5 0 011.5-.99zm-.72 2.91v.18h-.75v-.21zm-.81-1.8l.06.12v.06h-.12l-.06-.12zm-.18.18l.06.12v.06h-.12l-.06-.12zM393 170c.39 0-.32.85-.93.57s.48-.57.93-.57zm1.62 4.23c1.52-1.52 4-3.17 4.95-5.13.22-.45 1.54-1.14 2-.72 1.29 1.29-1 1.86-1.8 2.25-.5.25-.26.3-.57.66s-.72.28-1.08.63c-.82.83-1.56 1.62-2.37 2.43-.63.63-.4-.43-.72.54-.24.74-.66.31-1.05.57s.23 2.55-1.5 2.19c-.05 0-.17-.34-.18-.36-1.59-1.5 1.63-2.44 2.27-3.08zm-4.17 8.5c.13-.47.69-1.82 1.11-1.29s-1.29 1.73-1.16 1.27zm.36 1.26v-.39h.33v-.09c.79-.29-.38.91-.38.49zm.21 5.76c.34-.1-.27 1.15-.57.75s.18-.67.55-.77zm-.39-.87l.06-.39h.09v-.33c1.03-.05-.25.99-.2.7zm.18-1.8c-.43-.18.58-1.32.75-.93s-.37 1.09-.8.91zm-.18-1.29l.06-.39c.09 0 1.08-1.5 1-.36s-1.18 1.16-1.11.73zm-.18-4.5c-.2-.4.88-1.73 1.29-1.5s-1.14 1.88-1.34 1.48zm0-3.46l.06-.75h.09v-.09l.33-.09v-.09c1.18-.23-.56 1.3-.53 1zm1.29 0v.55c0 .48-1.17 1.53-1.08.92a2.23 2.23 0 011.03-1.52zm-.51-6.15h.09v-.09l.39-.06v.36h-.54zm-1 4.56c-.42-.47.33-.71.75-.78s-.34 1.2-.76.73zm-.23-1.34v-.57h.33v-.09c1.28-.24-.33 1.04-.33.66zm.93-2.19c.22.32-.38 1.36-.93.75s.75-1.06 1-.75zm-1.83 21.22c-.2-.27-.69-.6.36-.69s-.12.97-.32.69zm-.54-10.17s.42-.1.18.36h-.18c-.01 0-.5 2.44-.57 1.83s.46-3.32.57-2.94c.1.25-.02.52.04.75zm0-3.09c1.54-.37 0 1.83 0 1.32.01-.15-.14-1.29.01-1.32zm-.51.57c.11 0-.55 1.68-.57 1.47s.03-1.71.58-1.47zm-.54 2.88a9.51 9.51 0 01-.39 2.55c0 .05-.18.08-.18 0a8.42 8.42 0 01.24-2s.26-.94.34-.55zm-.75-2.46c.81-.51-.14 2.09-.36 1.41a2 2 0 01.37-1.41zm-.36 3.72a7.26 7.26 0 01-.69 2.22c.06-.4.77-5.25.7-2.22zm-.69 7.47c-.12-1.22.34-1.18.15 0 0 .02-.14.04-.14 0zm0 .69c0 .05-.17.08-.18 0-.25-.76.47-.79.19 0zm.33-1.62c0 .06-.1 0-.12 0-.36-.18.31-.82.13 0zm-.51-9.6c1-.9-.46 4.58-.54 4a17.37 17.37 0 01.55-4zm-1.62 5.07c0 .06-.13 0-.15 0-.47-.23.34-1.96.16 0zm-.21.54s-.17.08-.18 0c-.17-.77.41-.65.19 0zm-.15-4.53s-.32 1.17-.51 1.08-.04-1.72.52-1.08zm-1.42 10.86s.25-.9.34-.54c.39 1.57-2.78 1.36-.33.54zm-.78 4.54c-.16.3 0 .32-.18 0s.36-.31.19 0zm.19-.55c-.16.67-.05.7-.19 0s.34-.66.2 0zm0-1.23c0-.18-.11-.48.05-.57 1.73-.88-.04.55-.04.55zm.9 2.49c0 .06-.17.09-.18 0-.26-.75.47-.78.19 0zm.17-1.08c0 .06-.16.09-.17 0-.25-1 .47-1.03.18 0zm.37-2.16s-.16.08-.19 0c-.25-.51.49-.54.21 0zm.17-2c-.13-.13.08-.34.21-.21s-.1.33-.2.23zm.37 5.76c0 .06-.11 0-.12 0-.4-.18.31-2.03.13.02zm.39-1.8c0 .06-.17 0-.19 0s-.14 1.21-.2.72a18.35 18.35 0 01.18-2.37c0-.06.16 0 .18 0s0-.36 0-.51c.32-.59.06 2.06.04 2.18zm.05-11.76c-.24-.12.35-3.06.77-3.25s-.3 3.49-.73 3.27zm.13 9.45a6.12 6.12 0 01.17-2c.74-.92-.13 2.58-.16 2.02zm.9-9.09c0 .05-.16.08-.18 0-.26-.49.48-.53.19.02zm.54 7.41c0 .05-.17.08-.18 0-.25-.74.47-.77.19.02zm.29 2.39l.58-2.93c3.91.02-1.62 8.3-.57 2.95zm2.74 1.84c.89-.28-1.8 1.95-1.8 1.23s.91-.92 1.81-1.21zm-2.34 2.71c-.69-.63 2.08-1.11 2.58-1.15s-1.89 1.79-2.57 1.17zm1.8-3.31c-1 .58 1.73-2.37 1.68-1.44s-.7.89-1.7 1.46zm1.29-2.16c-.1.61-1 1.22-1.29.57s2.27-2.69 2.22-1.68-.82.53-.92 1.13zm.72-3.42l.06-.57h.09v-.09l.33-.09v-.09l.39-.06c.02.61-.9 1.36-.9.92zm10.17-3.57c-1.93 1.18-5.76 3-7.2 4.47-.28.83-.53 2-1.78 1.53-.51 0-.48-.57-.41-1 .55-.18.36-.78 1.53-.93 2.39-1.19 4.76-2.95 7.08-4.35 1.15-1.15.59-1.86 2.59-1.6.62 1.26-.76 1.79-1.8 1.9zm1.8-34.11c-.13-.13.08-.34.21-.21s-.13.31-.21.21zm-.12-3.48c-.61-.31.29-1.22.84-1.38s-.24 1.69-.86 1.38zm.67 1.68c-.11-.06.32-.49.38-.39a.28.28 0 01-.4.39zm.71-2c-.05 0 .29-.89.4-.57s-.01.76-.42.56zm.24-3.45c-.29-.14.45-1.5.55-1.23a1.91 1.91 0 01-.57 1.22zm.87 37.52c-.22-.11.18-.32.39-.21s-.18.33-.41.2zm.37 3.27c-.12-.12.09-.33.21-.21s-.12.32-.23.2zm.18-1.44c-.28-.17.59-.14.3 0s-.05.16-.32-.01zm.36.09c-.06-.09 0-.27.12-.12s-.09.2-.14.11zm.36-40.64c-.06-.1.05-.26 0-.36s-.53 0-.18-.21c.72-.41.31.85.16.56zm.36-9.79c-.29-.11 0-.69.21-.57.05 0-.06.16 0 .18s.51-.14.33.18a.46.46 0 01-.54.2zm1.11.72c.28.19-.23.62-.57.39s.18-.64.55-.4zm6.51 24.77c.11.11-.09.32-.21.21s.07-.34.19-.22zm0 6.69c.11.12-.09.33-.21.21s.07-.34.19-.22zm-.09 10.32c-.29.12 0 .2-.3 0s.58-.12.28-.01zm-1-5.4a.14.14 0 010-.21c.52-.26.47.45-.04.2zm-.06 4.87a1.49 1.49 0 01-.66 0c-.14 0 .53 0 0-.17s-.79-.55-.15-.4-.06.16 0 .19 1.08.3.77.37zm-.12 1.83c-.17 0-.16-.1 0-.21s.13.24-.04.2zm-.36-3.61c-.08 0 0 .22-.36 0s1.25 0 .9.15-.43.07-.54 0 .01-.12.01-.16zm-.54-7.08c-.22-.11.17-.32.39-.21s-.21.31-.43.2zm1.2 8.86c.1.14-.06.2-.12.12s-.02-.28.08-.13zm-.09-12c.11.11-.1.32-.21.21s.05-.29.17-.17zm-.18 6.69c.22.12-.35.36-.57.21s0-.58.21-.39c0 0-.05.16 0 .18s.22-.03.32.04zm-.18-6.9c.11.13-.1.37-.21.24s.01-.37.17-.2zm-.39 1.86c-.34-.14-.45-.24-.18-.39s.48.57.14.4zm-.33-3.66c.21.1-.17.31-.39.21s.14-.27.35-.17zm0 3.09c.21.11-.17.32-.39.21s.14-.28.35-.17zm-.27 15.4c-.31 0-.11.08-.3-.06s.56.05.26.1zm-.48-.15c-.17-.05-.16-.1 0-.21s.13.29-.04.25zm0-10.18c.09.1-.11.31-.21.21s.07-.3.2-.17zm-1.11-2.19c-.4.09-.24.06-.54-.06s.92.02.53.1zm-.87 6.54c.34-.09.24.29-.06.12s-.29.04.05-.08zm-.42-.06c-.19-.14.6 0 .3.06s-.12.16-.31-.02zm.78 1.69c.11.11-.1.32-.21.2s.1-.28.2-.16zm.36 3.45c.21.1-.17.32-.39.21s.16-.28.38-.13zm-.45-11.8c-.32.11 0 .2-.33 0s.63-.07.31.04zm-.75 6.54c-.37 0-.21.06-.48-.06s.84.06.47.1zm-.09 4.72c.11.11-.1.32-.21.21s.08-.29.2-.17zm-.39-1.44c-.12-.12.09-.33.21-.21s-.11.36-.22.27zm-.06-3.46c-.3.12 0 .2-.3 0s.57-.07.29.04zm-.24 4.72c.31-.1.21.28-.06.12s-.27.01.05-.08zm-.42-.06c-.19-.15.6 0 .3.06s-.12.12-.31-.02zm.21-15.37c.11.11-.1.32-.21.21s.08-.29.2-.17zm0 10.35c.11.12-.1.33-.21.21s.08-.28.2-.17zm-.36-.21c.11.14-.1.38-.21.24s.08-.33.2-.15zm.18 5c.22.11-.19.28-.39.18s.15-.29.38-.18zm.15 3.78c-.42-.28.19-.48.39-.39s.01.7-.4.39zm.54 5.25c-.12-.11.09-.32.21-.21s-.11.33-.22.21zm1.11-2.7c-.17-.05-.16-.1 0-.21s.16.26-.01.21zm.18.09c-.19-.14.6 0 .3.06s-.12.08-.31-.06zm.54.45c-.28-.14-.42-.3-.12-.39s.38.53.11.39zm.54 1.59c.15-.11.16.26 0 .21s-.16-.1-.01-.21zm.36.57c-.28-.14-.42-.3-.12-.39s.38.53.11.39zm.36.09c-.19-.14.6 0 .3.06s-.12.08-.31-.09zm.57.12c0 .1-.17.19-.21.06s.17-.16.2-.06zm0 .24c-.27-.16-.26 0 .06-.12s.17.28-.1.12zm.54.27c-.17 0-.16-.1 0-.21s.13.26.01.21zm-1.08-2.16c-.14-.07.71-.06-.18-.36s.49-.11.75.15-.2.11 0 .18.79.05.73.31c.34-.05-.16.44-.05.06-.25.16-1.06-.23-1.29-.34zm.54-2c.16-.11.17.26 0 .21s-.2-.11-.04-.22zm.3.18c.09.14-.06.21-.12.12s-.02-.28.08-.13zm.42 4.2c-.06-.08.15-.3.18-.09s-.17.21-.22.08zm.18.09c0-.13.18-.16.21-.06s-.21.18-.25.09zm.18.18c-.06-.09 0-.26.12-.12s-.1.2-.16.11zm.54-5.37c-.42-.18.24-.06 0-.18s-6.62-2.84-6.15-3.09-.14.1.75.36 4.33 1.79 5.07 2.16a1.22 1.22 0 01.29.17h.07c.04.04.35.74-.1.57zm-.36-2.16c.27.2.22.22.11.19s0 0-.11 0c-.27-.14 0 0 .11 0-.09-.12-.64-.57-.15-.2zm.72.31c-.62.3-.22-.49.12 0 .11.23-.27.2-.16-.01zm0-3.22c-.11 0 .27-.09 0-.18a2.49 2.49 0 01-.9-.27c-.36-.25 1.05 0 1.11.06s0 .15 0 .18c.48.3.24.33-.25.2zm.51-1.65c-.32 0-.12.08-.33-.06s.61 0 .29.05zm.72.18c.14.21-.22.19-.13 0-1.07.23-.22-.49.09-.01zm-.12 2c-.11 0 .46 0 0-.18s-.15-.45.21-.24-.08.16 0 .21.15-.12.36 0-.5.27-.61.24zm.9-17.41a1.77 1.77 0 01-.19-.18c0 .19 0 .37-.17-.18-.3-.83.79.78.32.39zm.36 16.12c-.22-.11.18-.32.39-.21s-.19.35-.43.26z" fill="#50d6cc"/><path d="M410.58 124.62h.11c-.01 0-.07-.02-.11 0zM416.1 115.86l-.36-.91a1.12 1.12 0 00.29.91s.05.03.07 0zM420.07 128.19a.11.11 0 010-.08 1.43 1.43 0 010-.22H420c.05.1.09.2.13.3zM420.66 130.25v-.19c-.07-.84-.16-.92-.27-1a6.07 6.07 0 01.27 1.19zM414.31 108.29c-.09-.12-.18-.1-.26 0zM415.21 163.51s-.12 0 0 .17zM412.7 185.2zM413 185.19h-.2c.1.04.26.07.2 0z" fill="#50d6cc"/><path d="M355.4 180.84V179h-.18c0-.06-12.92 7.6-14.38 8.42 2.63 1.31 8.48 5.77 11.63 7.24l.26-.66h.09c.5-2.84 2.14-5.18 2.46-8.28h.09l.09-3.06h.09v-1.74zm-4.53 5.83c.26.22.33.8.06.57-.07-.06-.27-.75-.06-.57zm-2.67 1.11a5.08 5.08 0 01-.36-.75c.59-.32.61.97.36.75zm-3.06 2.16c-.06 0-.05-.17 0-.21.24-.17.26.27 0 .21zm.18.09s.09-.17.12-.12c.14.22-.04.25-.12.09zm1.26-2.43c-.06 0-.05-.17 0-.21.24-.17.26.28 0 .21zm.18 1.26a.14.14 0 010-.21c.56-.3.49.45 0 .21zm.36-.36a2.53 2.53 0 01-.33-.9c.12-.43.84 1.33.33.9zm.36 2.73c-.06 0-.05-.17 0-.21.24-.17.26.28 0 .21zm.36.54c-.07-.05-.27-.74-.06-.57s.33.8.06.57zm.18-1.83s-.45-.84-.36-.93c.4-.4 1.18 1.27.34.93zm1.11-.72c-.22-.55.44-.58.15 0-.02.01-.14.04-.15 0zm.36.54c-.07-.06-.27-.75-.06-.57s.33.81.06.57zm.36-1.8s-.4-1.11 0-.75c.28.21.15 1.02 0 .79zm.54-1.62c-.06 0-.05-.18 0-.21.24-.13.26.28 0 .21zm.18.36c-.16-.46.3-.56.15 0-.01.01-.14.04-.15 0zm.18 2.52c-.06 0-.05-.17 0-.21.25-.17.25.28 0 .21zm.18.09s.08-.17.12-.12c.15.23-.05.26-.12.12zm.36-3.72c-.06 0-.05-.18 0-.21.24-.17.26.28 0 .21zm.36.75a3.68 3.68 0 01-.15-.75c.13-.5.91 1.41.15.75zm1.08 3.21s-.14.06-.18 0-.14-.32-.18-.36c-.67-.64.63-.19.36.36zm.72-5.22c-.06 0-.05-.18 0-.21.24-.12.27.28 0 .21zm.18.09c-.06-.07.17-.21.24-.12s-.11.27-.24.12z" fill="#50d6cc" fill-rule="evenodd"/><path d="M398.32 116.81c-.12 0-.45 0-.12.11.06-.01.09-.08.12-.11zM398.35 116.79s.02.01 0 0zM413.16 132.1c-.13.17.08.06 0 0z" fill="#50d6cc"/><path d="M414.48 109.14a13.06 13.06 0 00-3.07-4.29l-2.7-3.63c-.42-.09-3.78-5.25-6.93-5.25-.27-1-3.76-3-4.5-3.43a23.21 23.21 0 01-3.77-1.54c-1.46-1.46-8.84-2.7-12-3-3.73.83-2.11 0-5 1.15a20.91 20.91 0 00-10.42 3.32c-2.15 1.55-3 3.11-5.14 5.17a23 23 0 01-1.5 1.77c-1.28 1.79-.7 1.29-2.2 3.36-3.05 3.1-2.49 6.57-4.17 9.26l-.13 2.47" fill="none" stroke="#50d6cc" stroke-miterlimit="2.61" stroke-width=".67"/><path d="M357.21 103.69c-.54.38-3.13 5-4.28 10.78-.08.41-1.53 1.69-3.71 5.4-.07.12-.44 1.91-.57 2a20.26 20.26 0 00-.89 2.41c0 .29-.8 1.08-1.18 1.9-.27.61-.29 1.33-.5 1.46 0 .08-.21.47-.48 1a35.63 35.63 0 00-2.29 5.08c0 .77 2 5.42 4.93 6.89a6.36 6.36 0 00.49 1.74c1.3 1.61 5.14 2.44 5.5 2.74.33.66.45.39 1.07 3s2.39 8.45 7.09 9.74c.64.18 1.94 2.72 1.94 2.72s-7.62 1.56-7.62 3.32c0 2.66 1 5.47.09 8-1 2.75-1.8 4.19-1.71 6.91-4.69 2.72-9.71 5.83-14.48 8.76" fill="none" stroke="#50d6cc" stroke-miterlimit="2.61" stroke-width=".67"/><path d="M399.37 98.38c-.37.46-.68 1.27-1.42 1.27-.25-.25-.21-.69-.44-.85a1.74 1.74 0 01-.73-1.65c.26 0 .3.39.44.5.61.47 1.13-.21 1.49-.58 1.58 0-.56-2.46-.56-2.92.66 0 1.72 2.17 1.72 2.92.32.22 1.5.58 1.5 1.17a.26.26 0 01.12.05 4.28 4.28 0 01-.88.27c-.08 0 .1.35 0 .35 0-.52-1.31-.56-1.61-.56l.37-.06zM360.64 146.6v.18l-.6.21-.06-.18h-.18l1.77-.69v-.09a14.17 14.17 0 012.7-.42c.57.57.94.27 1.8.18v.21c.77-.1 3.41-.77 4-.18.39.39-.08-.46.72-.18v.18a5.66 5.66 0 001.26.18c.17 0-.18.14 0 .18 1.9.11 2.61.3 4.53.3v.18h.36v.21h.18v.13h.18l.06.18h.09l.06-.36h-.18v-.18h.33v.21h.18v.15h.16v.3h-.06l-.06-.18h-.36l-.06.3h-.48v-.18h-.18v-.18l-1.29.06-.09.12-.06-.18c-.48.05-.93.46-1.26.36-.58-.18.3-.48-.27.15-.39.42-.31-.75-.54.18 0 .2-.28-.34-.3-.33-.36.13-.45.46-.72.18s0-.82-.75-.54c-.24.09.62.42.33.87s-.43-.46-.48-.51-.15.11-.18 0 .15-1-.57-.54c-.43.29.34.51.36.57.16.71 0 .9-.33.15-.05-.08-.33-.07-.36-.18s.08-.42 0-.54c-.4-.59-3 .34-3.4.18-.06 0 .05-.32-.27-.12s-1.36-.08-1.26.63c0 .28.45-.3.63-.3s-.13.36.09.36.65-.45.9-.36c1 .36-1.09 1-1.41.87-.06 0-.25-.81-.57-.54-.08.07.08.25 0 .33-1.07.76.23-.85.06-1-.66-.79-.54 1.39-1.29.9-.91-.59.82-.18-.48-.18-.26 0-.08-.71-.45-.48-.58.36-.18-.14-.33-.24l-1.83-.39zM361.46 139.07v-.18h-.18l.06-.51c.29.57 1.22.44 1.71.54.17 0-.08.09 0 .18a3.92 3.92 0 00.55.18c.08 0 .07.32.2.36 1.6.38 3.17-.86 5.08-.72.34 0-.26.34.36.15a7.22 7.22 0 011.8 0c1.84-.2 2.08-2.23 1.47-3.46-.1-.2-.13.1-.18 0a3.12 3.12 0 01-.36-1.05h.33c0 .28.31.26.36.36.6 1.22 1.69 2.72 1.62 4.3a1 1 0 00-.36.36c-.4.2-3.17 1.66-3.57 1.47-.05 0 .19-.13 0-.18-.52-.16-3 1.25-3.27 1.11-.09 0 .17-.15 0-.18a10.6 10.6 0 01-3.25-1.29l-.2-.36c-.82-.27-1.29-1.08-2.17-1.08zM381.93 127.12l1.05-.93c.43-.14.72-1.5-.21-.57-.36.36-2.59.64-1.2-.06l1.09-.81s-.15.08-.18 0 .13-.29 0-.36c-.59-.31-.83.7-1.33.87-.9.3-3.21.54-3.57-.87-.16-.64.33-2.28-1.11-.84-.05.06-.14.25-.21.27-1.12.37.41.81 0 1.08s-.56-.28-.66-.33c-.49-.25-2.25.21-2-.51.16-.4 4.54-2.19 5-2 .11 0-.21.17 0 .21s.9 0 1.11 0-.11.14 0 .18a19 19 0 012.52.9c.08 0-.08.14 0 .18s.53.08.72.18.07.32.18.36l.94.18c.08 0-.08.14 0 .18 1 .52.16.14.36 1.08 0 .12.14-.07.18 0 .28.57-.52 0-.67.33a2.18 2.18 0 01-2 1.29zM358 126.37c-.2 0 .12-.14 0-.18a8.94 8.94 0 01-.9-.18c-.08 0 .15-.14 0-.18-.43-.11-1.29.17-.75-.9.68-1.37-.83.29-1.41 0s2.69-1.72 2.85-1.8.73-.58.93-.63a5.91 5.91 0 013.42.12c.12 0-.08.14 0 .18s.28-.09.36 0-.08.27 0 .36.47.11.54.18.1.32.18.36c.24.12 1.54.51 1 1-.77.78-.55-1-1.38-.21s-3.71 1.38-4.11-.33c-.07-.33.22-1.57-.6-.75-1.48 1.48 1.67 1.82.93 2.16s-1.73-.94-2-.69c-.41.41.47.53.54.57s.07.32.18.36.43 0 .54 0-.12.14 0 .18c1.13.36.7.48-.33.33zM413.06 130.54l.06-.51h.09v-.9h-.18v-.18h-.18v-.18h-.18v-.18h-.18v-.18l-.18-.09.33-.06v.18h.18v.18h.18v.18h.18v.2h.18v.54h.18c0 .28-.14 1-.51 1zM384.12 148.61a.43.43 0 00-.39-.36v-.51l.7.84h-.31zM381.57 148.97l.06-.51.24.48-.3.03zM383 149.51l-.17-.69c.45 0 .5.22.47.66h-.3zM381.39 149.87l-.18-.18c.1-.51.33-.14.3.15h-.12zM382.1 151.18c-.31-.11-.54-.21-.17-.56s1.19.89.17.56zM382.84 151.52c.73 0 1.16.43.41 1.08-.12.11-.54-1.08-.41-1.08zM381.76 153c-.2 0-.72-.6-.25-.6s1 .54.25.6zM368.1 158.36c-1.23-.15.35-.79.21-.48l-.21.48zM366.54 157.85l.06-.33h.09v-.09c1-.17-.23.73-.18.45zM364.92 158.03l.06-.32.09-.03.03-.09h.33l-.51.44zM385.75 117.97h.3l-.03.13-.27-.13zM386.8 118.6c-.37-.47.33-.52.12 0 0 0-.1.05-.12 0zM396.4 127.12c0-1.08-1.29-2.5-1.62-2.91-1-1.22-.31-.07-.36-.18a5.23 5.23 0 00-.54-.9h-.39c-.09 0-.44-.67-.54-.72a18.78 18.78 0 00-1.8-.9c-.35.1-.49-1.43.15.18s-.47 0-.87-.21-1.16-.4-1.44-.54 0-.29-.18-.36-1.86-1-1.65-1.17.27.18.51.3a20.79 20.79 0 002.55 1.08c2.69.88-3.24-1.81-2.7-2.34.28-.28 2 1 2.16 1.08s-.11.12 0 .18c.37.18.63.23.9.36s.86 1.15 1.08 1.26c1.44.71 2.28.92 3.09 2.55 0 .07.91.2 1.08.72a7.67 7.67 0 01.69 2.49h-.12z" fill="#50d6cc" fill-rule="evenodd"/><path d="M391.15 123.85c-.27-.76-3.3-3-3.21-3.06.24-.25-.22.09.09.18a8.88 8.88 0 011.29.36c.3.15-.26.14.18.36a2.58 2.58 0 011.65 2.16zM390.61 124.39c-.14-.17-.09-.27-.18-.36s-.61-.25-.72-.36-.28-.5-.36-.54-.26.05-.36 0-.56-1 .15-.69.06.3.18.36a14.63 14.63 0 011.26.9s.17.86 0 .69zM391.17 116.39s-2.49-1.82-2.65-2-.49-.89.13-.35 1.66 1.15 2.17 1.55c.29.23 3.29 2.57 1.62 2a13.8 13.8 0 00-1.27-1.27z" fill="#50d6cc" fill-rule="evenodd"/><path d="M389.17 116l-1.28-.82s-.86-.92-.32-.54a53.83 53.83 0 014.44 3.18c.89.76 2.28 1.24 2.9 2.14.74 1.09-2.13-1.16-1.79-.46.11.21.52.22.84.71s1.76 3.28 3.79 4 4.67 1.67 7.62 1.08c1.49-.3 3-.41 3.25 1.28.17 1.2-.3.41-.16 1.11s-1.26-1-3.26-1.06c-1.6-.07 1-.65-.59-.65-4.45 0-7.35-.66-10.19-4.23-2.11-2.66-5-4.25-6.12-5.11-3.21-2.51 1.13.2 1.81.76a15.75 15.75 0 001.39 1.06c.16.08.65.14-.09-.57s-2.24-1.9-2.24-1.9z" fill="#50d6cc" fill-rule="evenodd"/><path d="M390.77 119.78s-.06-.21-.11-.21c-.56-1.3-4-1.36-4-3 .22 0 .71.56.84.74.4 0 1.17.62 1.57.62a15.88 15.88 0 002.35 1.77c.38.38 1.13.4 1.49.76a7.57 7.57 0 011.09 1.41c.21.21.52.38.52.7-1.08 0-2.65-2.78-3.79-2.78zM407 128.85h-1.05s-.19-.16-.25-.16v-.19c.3 0 .71-.08 1-.08 0-.06.11-.17.11-.3a4.42 4.42 0 00-1.35-.36c0-1.2 2.4.47 2.46.47s-.08.21-.08.24c-.21 0-.49-.16-.7-.16a.75.75 0 00-.14.51zM361.38 157.81c.47.26 2.14.49.85-.07l-.85.07zM354.59 146.12a.66.66 0 01.24-.51l.06.48h-.3zM356.57 147.53V147c.64-.06.29-.39.87-.39a1 1 0 01-.87.9zM355.67 146.6c.08-.43.27-.55.69-.63l-.69.63zM363.42 147.38v-.21h.21l-.03.18-.18.03zM358.55 147.53l.06-.33.06.3-.12.03zM355.31 147.53l.06-.33.06.3-.12.03zM375.42 145.76l.06-.33.09.18.18.06-.03.06-.3.03zM376.86 145.76v-.18l-.18-.09.51-.06v.18l.18.06-.03.06-.48.03zM367.44 148.07c-1-.47 1.23-.1.66 0a1.61 1.61 0 01-.66 0zM356 148.25c-.11-.87.62-.44.12 0-.06.05-.11.14-.12 0zM369.63 148.43c-.15-.19-.64-.69.15-.51.25.06 0 .69-.15.51zM359.48 148.34c-.07-.14.45-.31.51-.18s-.41.38-.51.18zM363.26 148.52c-.07-.38.58-.22.3.06-.07.07-.27 0-.3-.06zM357.11 148.61c-.07-.37.47-.65.51-.45s-.48.6-.51.45zM358 149.33a.23.23 0 01.33-.33c.18.17-.15.5-.33.33zM372.51 149.42c-.08-.38.58-.22.3.06-.07.07-.28.05-.3-.06zM370.35 149.51a.23.23 0 01.33-.33c.17.17-.16.5-.33.33zM363.63 149.51c-.25-.49.26-.33.54-.27.08 0-.54.28-.54.27zM359.48 149.6c0-.16.29-.26.42-.24.5.06-.33.66-.42.24zM362.36 149.87c-.32-.32.29-.49.51-.27s-.39.39-.51.27zM356 149.87a.75.75 0 01.18-.63c.81-.34 0 .93-.18.63zM371.25 150.14c.06-.26.31-.24.51-.18s-.54.31-.51.18zM370.17 150.23c-.33-.21.2-.52.51-.33s-.25.49-.51.33zM368.16 150.14c.07-.14.52.06.3.06-.06 0-.35 0-.3-.06zM367.08 150.14c-.1-.08.09-.14.18-.18.68-.32.35.61-.18.18zM369.27 150.41a.23.23 0 01.33-.33c.17.18-.16.51-.33.33zM361.1 150.41c-.11-.55 1.09-.8.12 0 0 0-.1.11-.12 0zM356.75 150.32c.1-.23.63-.73.48-.12-.06.25-.54.26-.48.12zM377.58 150.5c-.07-.38.58-.22.3.06-.07.07-.28.05-.3-.06zM372.87 150.59c-.08-.38.2-.45.12 0 0 .07-.11.11-.12 0zM358.37 150.77c-.11-.55 1.46-1.1.12 0 0 0-.1.11-.12 0zM360 151.13c-.16-.4.25-.47.33-.27s-.29.37-.33.27zM371.43 151.22c-.1 0 .12 0 .15-.09s-.09-.26 0-.33c.73-.45.72.83-.18.42zM366.72 151.31c-.34-.21.2-.52.51-.33s-.25.5-.51.33zM365.82 151.31c-.17-.4.25-.47.33-.27s-.3.37-.33.27zM380.67 151.49c-.37-.47.34-.5.12 0 0 .07-.08.07-.12 0zM370.17 151.49c-.36-.22.63-.73.69-.27 0 .25-.54.37-.69.27zM369.09 151.4c-.1-.08.09-.14.18-.18.68-.32.36.61-.18.18zM367.8 151.49c-.34-.21.2-.52.51-.33s-.25.5-.51.33zM364.56 151.49c-.29-.2.35-.64.51-.33s-.31.48-.51.33zM373.05 151.7c-.08-.11.11-.45.18-.48.82-.34 0 .76-.18.48zM376.68 151.88c-.15-.42.25-.54.33-.3l-.33.3zM360.92 151.88c-.21-.23.13-.59.33-.36s-.15.55-.33.36zM358.94 151.88c-.15-.42.25-.54.33-.3 0 .06-.28.44-.33.3zM357.11 152.06c-.06-.08 0-.26.06-.33.65-1.53.42.93-.06.33zM371.61 152.15c0-.16.29-.25.42-.24.49.06-.34.66-.42.24zM374.34 152.42c-.12-1 .76-.49.06 0 0 0 0 .1-.06 0zM366.54 152.42c-1-.47 1.22-.1.66 0h-.66zM365.64 152.42c-.16-.4.25-.47.33-.27s-.3.37-.33.27zM370 152.51c-.14-.07.06-.14.18-.18.93-.32.64.59-.18.18zM368.7 152.51c-.14 0 .14 0 .18-.09.65-.56 1 .44-.18.09zM367.8 152.6a.23.23 0 01.33-.33c.17.18-.16.51-.33.33zM362.18 152.6c-.26-.26.62-.74.49-.21 0 .14-.38.32-.49.21zM380.13 152.78c0-.06-.29-.4-.18-.51.48-.48.38.77.18.51zM364.56 152.69c-.08-.38.57-.22.3.06-.08.08-.28.05-.3-.06zM359.84 152.78c0-.82.67-.42.06 0 0 0-.06.07-.06 0zM377.22 153c-.45-.56.53-.09.3 0-.06 0-.23.11-.3 0zM357.83 153.14c-.13-.17.29-.68.42-.69s-.15 1-.42.69zM378.87 153.32c-.07-.38.2-.45.12 0h-.12zM363.26 153.23c-.22-.45 1.15 0 .3.06-.06 0-.25 0-.3-.06zM360.92 153.32c-.23-.3.79-.9.48-.21 0 .13-.37.35-.48.21zM374.52 153.5c-.33-.21.2-.52.51-.33s-.25.5-.51.33zM369.09 153.41c.07-.14.52.06.3.06-.06 0-.35 0-.3-.06zM367.08 153.5c-.16-.4.25-.47.33-.27s-.3.37-.33.27zM366 153.41c-.1-.07.09-.14.18-.18.68-.32.35.61-.18.18zM358.94 153.68c-.11-.55 1.09-.79.12 0 0 0-.1.11-.12 0zM370.35 153.86c-.08-.38.19-.45.12 0 0 .07-.11.11-.12 0zM365.1 153.86c-.08-.38.19-.45.12 0h-.12zM376.5 154s-.27-.41-.18-.51c.35-.35.82.83.18.51zM373.05 154c-.14-.07.06-.14.18-.18.93-.32.64.59-.18.18zM371.07 154c-.63-.31.8-.53.3 0a.3.3 0 01-.3 0zM362 154c-.26-.26.62-.75.48-.21 0 .14-.37.32-.48.21zM377.94 154.4s-.31-.42-.18-.51c.71-.46.73.79.18.51zM375.42 154.4a.23.23 0 01.33-.33c.17.18-.16.51-.33.33zM361.28 154.49c-.07-.38.58-.22.3.06-.07.07-.28 0-.3-.06zM379.77 154.76s-.3-.49-.18-.69c.27-.41.83 1 .18.69zM374.16 154.76c-.28-.2.35-.64.51-.33s-.31.48-.51.33zM373.77 154.67c.05-.1.3.06.15.06s-.18 0-.15-.06zM372.69 154.94c-.63-.31.8-.53.3 0a.28.28 0 01-.3 0zM363.08 154.94c-.16-.4.25-.47.34-.27s-.3.37-.34.27zM359.12 155.3c-.35-.44.22-.84.12 0h-.12zM379.05 155.66c-.11 0-.51-1.23.15-.87.13.07.45 1.17-.15.87zM377.58 155.66c-.13-.15-.09-.32-.18-.54s-.29 0-.18-.09c1-.43.49.79.36.63zM362 155.57c-.07-.38.58-.21.3.06-.07.07-.27.05-.3-.06zM376.5 155.84l.15-.33zM373.77 156c-.13-.06-.43-.56-.3-.69s1.15 1.08.3.69zM375.6 156.2c-.22-.26-.68-.19-.36-.69s.65 1.06.36.69zM359.84 156.38s-.29-.4-.18-.51c.48-.48.39.77.18.51zM371.25 156.59c-.08-.19.19-.25.12 0 0 .05-.1.08-.12 0zM372.87 157c-.45-.56.53-.09.3 0-.06 0-.23.12-.3 0zM362.18 157c-.07-.38.58-.21.3.06a.2.2 0 01-.3-.06zM372 157.49c-.37-.47.33-.5.12 0 0 .07-.09.07-.12 0zM363.63 157.49c-.24-.46.4-.5.15 0 0 .07-.12.11-.15 0zM360.74 157.49c-.18-.2-.18-1.56.51-1.07 0 0-.1 1.53-.51 1.07zM370 157.67l.51-.27c.12.13-.39.39-.51.27zM361.46 144.86v-.33l.33.06-.33.27zM361.1 137.35h.33l-.03.1-.3-.1zM364.38 137.99v-.33h.32l-.02.3-.3.03zM364.19 139.25v-.19l-.36-.09h1.42l-.21.25-.85.03zM365.46 138.79l.69-.23-.03.29-.66-.06z" fill="#50d6cc" fill-rule="evenodd"/><path fill="#50d6cc" fill-rule="evenodd" d="M363.42 147.38v-.21h.21l-.03.18-.18.03zM368.7 179.13l.54-.23-.03.3-.51-.07zM388.24 172.89v-.33h.54l-.03.3-.51.03zM387.34 174.87v-.33h.33v-.09h.33c-.33.27-.27.41-.69.45zM385.75 175.32l.3-.12.03-.08.15.02-.21.24-.27-.06zM387.88 175.5h.33l-.03.06-.3-.06zM386.08 176.43h.51l-.03.06-.48-.06zM388.6 176.7v-.33l.36.06-.36.27zM387.34 177.42v-.33l.51.07-.51.26zM388.06 178.32l.06-.32.06.29-.12.03zM386.8 178.41h.33l-.03.06-.3-.06zM376.5 201.71c-.19-.25 1-1.26.48-.21 0 .06-.38.33-.48.21zM369.81 201.35c0-.68.62-.48.06 0h-.06zM372.69 201.35a1.71 1.71 0 01.42-.72.51.51 0 01-.42.72zM375.24 201.08s.11-.05.15-.09c.55-.56.23.47-.15.09zM374.34 200.6a3 3 0 01-.18-.36c-.33-.5.26-.11.51-.18.09 0 .3-.52.54-.34s-.62 1-.87.88zM376.5 200.42c0-.44.25-1.27.87-1 0 0-.87 1.11-.87 1zM372.33 200.06c-.19-.81.28-.53.87-.45 0 0-.84.56-.87.45zM373.41 199.88c-.05-.31 1-1.69.69-.39a4.43 4.43 0 01-.69.39zM375.6 199.43a2.6 2.6 0 01.54-.72c.84-.35-.21 1-.54.72zM364 199.25s.11-.05.16-.1c.55-.55.23.48-.16.1zM377.76 199.15c-.12-.14.31-.57.42-.69 1.07-1.06-.08 1.13-.42.69zM372.87 198.8c-.1-.13.15-.42.24-.51.6-.6.09.92-.24.51zM374.88 198.61c-.19-.24 1-1.25.48-.21 0 .07-.38.34-.48.21zM371.79 198.43c0-.67.62-.47.06 0h-.06zM360 198c-.09-.1.78-1 .48-.13 0 .11-.33.27-.48.13zM364.2 198.08c0-.06-.14-.34-.19-.36s-.85 0-.2-.37c.2-.11.44-.84.75-1 1.05-.52 1.13.49.66 1-.07.06-.25 0-.3 0s0 .38-.06.48a2.84 2.84 0 01-.66.22zM377 198s.13-.05.15-.1-.06-.27 0-.33c.74-.44.65.8-.18.43zM365.46 197.8s1.05-.68.66-.12c-.06.08-.57.22-.66.12zM368 197.8a3.24 3.24 0 01.9-.18s-.55.54-.9.18zM374.16 197.72c0-.15 0-.58.18-.64 1-.4-.18.74-.18.64zM362.72 197.53c-.1-.56.92-.66.12 0 0 0-.11.06-.12 0z"/><path d="M364.71 197.38c-.09-.25.14-.68.18-.09 0 .07-.17.13-.18.09zM372.51 197.26s.11 0 .15-.09c.55-.55.23.48-.15.09zM361.1 197.17c-.1-.94.62-.53.21-.18 0 0-.2.26-.21.18zM371.25 197.17c-.21-.54.62-.42.12 0 0 0-.11.07-.12 0zM377.76 197.17c-.24-1 1.65-.95.33-.3 0 0-.3.42-.33.3z" fill="#50d6cc" fill-rule="evenodd"/><path d="M364.52 197c-.12-.19.11-.31.22-.15s-.18.2-.22.15zM359.84 196.9c-.08-.08 1-.68.39-.09-.09.1-.17.31-.39.09zM366 197c-.13-.25 0-.59.06-.87 0-.05 0 .16.09.18 1.37.55-.12.76-.15.69zM368 196.9c-.07 0 1.35-.81.66-.12a.49.49 0 01-.66.12zM375.24 196.64c-.32-.41 1.37-1.17.39-.19-.06.06-.24.37-.39.19zM359.12 196.36c0-.05.32-.26.33-.3s0-.24 0-.3c.9-.59-.42 1.05-.36.6zM361.82 196.45c0-.12.27-1.07.51-.69s-.5.73-.51.69zM373.59 196.45c-.19-.48.67-.46.12 0 0 0-.11.06-.12 0zM377 196.27c0-.46 1.08-2.25 1-1.14 0 0-1 1.35-1 1.14zM360.74 196.09c-.36-.36.94-.72.39-.18-.07.07-.21.36-.39.18zM364.2 195.73c-.19-.53.58-.49.12 0 0 0-.11.07-.12 0zM366.36 195.52c-.24-.61 1.61-.6.15-.12 0 0-.11.23-.15.12zM368.52 195.43c-.08-.06 1.19-.8.51-.12-.14.14-.32.28-.51.12zM374.52 195.52c-.34-.42 1-.7.3 0-.07.07-.24.11-.3 0zM376.32 195.25c-.11-.11.72-.35.3.06-.07.08-.23 0-.3-.06zM362.72 195.16c-.35-.17.18-.72.33-.51s0 .68-.33.51zM372.87 195.07c-.12-.11.72-.35.3.06-.07.08-.23 0-.3-.06zM366.18 194.71c.07-.15.45.06.3.06s-.34 0-.3-.06zM364.2 194.53c-.05 0 1.05-.68.66-.12-.06.08-.57.22-.66.12zM375.42 194.35c-.12-.11.72-.35.3.06-.07.08-.23 0-.3-.06zM377 194.44c0-.18.4-.73.42-.69a.49.49 0 01-.42.69zM365.28 193.81c-.12-.11.71-.35.3.06-.08.08-.24 0-.3-.06zM374.52 193.27s.05-.36.51 0c.13.1-.47 0-.51 0zM376.14 193.27c-.08-.08 1-.68.39-.09-.1.1-.17.31-.39.09zM378.3 193.18c-.1-.89 1-.79.51-.39a3.66 3.66 0 01-.51.39zM366.18 192.82c-.1-.52 1.14-1 .3-.21 0 0-.29.26-.3.21zM375.42 192.37s.38-.69.42-.6c.13.29-.07 1-.42.6zM377.4 192.28c0-.68.93-.8.21-.18-.05 0-.21.28-.21.18zM378.3 191.56c-.08-.47.84-.75.3-.21 0 0-.29.26-.3.21zM374.7 191.38s.36-1.64.51-.9c0 .07-.13 1.38-.51.9zM376.5 191.2c-.56-.56 1.07-.3.3 0-.09 0-.23.1-.3 0zM367.8 191c-.21-.23.13-.58.33-.36s-.17.54-.33.36zM375.6 190.63c-.24-.31.66-.8.3 0a.23.23 0 01-.3 0zM379.41 190.63c-.36-.36.9-.69.39-.18-.07.07-.22.35-.39.18zM367.62 190.27a.23.23 0 01.33-.33c.17.17-.16.5-.33.33zM377.58 190.27c-.1-.56.92-.67.12 0 0 0-.11.06-.12 0zM361.82 190.09c-.09-.51 1.41-1.08 1.78-1.26 1.51-.75-1.76 1.36-1.78 1.26zM369.09 189.73c-.21-.55.62-.43.12 0 0 0-.11.06-.12 0zM375.42 189.73c-.22-.11-.11-1.08.18-1.17s.74.08.54-.63c-.4-1.48.46-.39.51-.54.22-.62-.14-.49-.15-.54-.07-.55.29-1 .18-1.47 0 0-.16.05-.18 0s.56-1.13.69-1.26 1.59-.63 1 0c-.47.47-.29-.12-.45.87 0 .17-.45.17-.51.21-.22.15.54.49.51.51-.55.41.21.43.21.45.43 1.18-1.69 1.67-1.44 2.52 0 0 .17-.05.18 0s.16.82.15.84c-.35 1-.6-.49-.66-.51-.83-.38-.05 1.05-.72.72zM366.36 189.55c0-.68.62-.48.06 0h-.06zM378.66 189.55c-.38-.34.94-.7.42-.18-.08.08-.23.35-.42.18zM368.7 189.28c.05-.11.27.06.15.06s-.17 0-.15-.06zM380 189c-.56-.56 1.07-.3.3 0-.08 0-.23.1-.3 0z" fill="#50d6cc" fill-rule="evenodd"/><path d="M377.22 188.83a2.15 2.15 0 01.06-.87c0-.06 0 .17.09.18s.39-.09.54 0-.63.92-.69.69zM378.48 188.29c-.12-.67 1.23-.61.15-.12 0 0-.12.24-.15.12zM364.2 187.84c-.17-.07 1.94-.58 1-.12a1.26 1.26 0 01-1 .12zM379.77 187.75c-.56-.56 1.07-.3.3 0-.08 0-.23.09-.3 0zM364 187.39c-.06-.39.19-.45.13 0 0 0-.12.06-.13 0zM378.48 186.85c-.2-.51.25-.33.54-.27l-.54.27zM377.19 186.7c-.24-.07-.11-.82.39-.45s.12.59-.39.45zM364.2 186.58a.66.66 0 01.69-.18.55.55 0 01-.69.18zM379.41 186.49c-.07-.39.19-.45.12 0 0 0-.11.06-.12 0zM366.72 186.22c.07-.15.45.06.3.06s-.34 0-.3-.06zM366.72 186c-.16-.68.55-.68 1-.93s.16-.58.54-.33.85.13.15.48c-.11.05-1.74.81-1.74.78zM380.31 186c0-.07.54-2.4.48-.42 0 0-.33.73-.48.42zM371.25 185.74c0-.05-.14-.33-.18-.36s-.44 0-.36-.09c.64-.64.72.67.54.45zM364.92 185.47a.66.66 0 01.69-.18.55.55 0 01-.69.18zM378.12 185.38c-.56-.56 1.07-.3.3 0-.08 0-.23.09-.3 0zM371.61 185.2c-.05 0 0-.15 0-.18-1.23-.92 2.27-1.1 1.38-.21-.43.42-.56-.53-.87-.15-.16.19.27.77-.51.54zM365.82 184.84a.23.23 0 01.33-.33c.17.17-.16.5-.33.33zM379.05 184.84c-.25-.18.49-.65.51-.72.47-1.43.43 1.39-.51.72zM368.7 184.48c-.25-.5 1-.46 1.26-.72 0 0 .15-.45.21-.45 1.63-.2 0 .26 0 .27s.1.42 0 .51-.86.08-1.23.27c0 0-.12.25-.18.12zM378.48 183.94c-.21-.14.54-.84.72-.69s-.2 1-.72.69zM373.59 183.49c-.18 0 2.36-1.14 1.5-.27-.42.42-.85.37-1.5.27zM377.76 183.58v-.18c0-.04-.15 0-.18 0s.06-.25 0-.36-.17.05-.18 0c-.17-1 .14-.43.69-.54s0 .09-.12.54c0 0-.07.71-.21.54zM367.62 182.68c-.1-.07.2-.55.24-.51.3.35.17.8-.24.51zM368.34 182.23s.13 0 .15-.09c.21-.54-.33-.27 0-.63a8.47 8.47 0 012.34-.42c.67.24-1.05.32-1.08.33s.06.28 0 .33-.49-.07-.69 0 .13.79-.72.45zM377.58 182c-.44-.72.76-.75.3 0-.05.08-.25.11-.3 0zM367.08 181.6a.23.23 0 01.33-.33c.17.17-.16.5-.33.33zM354.95 132.19v-.36h.33l-.03.33-.3.03zM355.33 133.63c0 .08-.23.17-.3.17 0-.3.06-.49.42-.49.14.14-.08.25-.08.33zM357 133.83s-.12.09-.12.15c-.86 0 .41-.51.12-.15zM355.8 134.82c0 .18-.2.2-.2.28h-.18a.59.59 0 01.24-.51c.33 0 .4.11.14.24zM356.36 136l-.49.45c0-.8 0-.58.68-.58s-.19.17-.19.11zM355.34 137.11c0 .18-.38.52-.56.52-.16-.49.39-.58.39-.82a2.07 2.07 0 01.28 0s0 .33-.11.33zM356.58 137.51a.4.4 0 01-.36.25v-.53l.38.1v.18zM355.66 138.45c-.41 0-.31.41-.72.41-.06-.29.43-.63.69-.63v.22zM357.46 138.58h-.25c0-.22.13-.22.3-.23a.56.56 0 010 .1h-.07c-.07 0 0 0 0 0zM356.3 139.15l.08.42h-.52a3.72 3.72 0 00.46-.38zM355.42 140.18c0 .23-.27.33-.39.46l.49-.63c0 .07-.06.13-.06.18zM356.91 140.19a.4.4 0 010 .24l-.36-.12.4-.12zM355.85 141.31l-.34.37h-.16l.5-.37zM356.42 142a2.71 2.71 0 01.57 0c-.06.06-.2.18-.29.18a1.22 1.22 0 01-.27 0v-.19zM355.12 143.29c1.31-.95.41.82-.11.21l.11-.21zM356.78 143.87c-.51-.3.14-.67.22-.4a.31.31 0 01-.22.4zM358 144.61s0-.33.1-.28c.33.14.07.38-.1.28zM356.74 145.29c1-.85.79.79 0 0zM355.33 145s0-.46.26-.51c1.05-.19-.26.91-.26.51zM365.1 125.38h.33v.11l-.3-.11zM364.56 126.82a.56.56 0 00.24-.24l.06.3-.3-.06zM364.36 128.07l.08-.43.07.39-.15.04zM363.41 128.83l.1-.51c0 .16.06.31.09.46l-.19.05zM363.08 129.82v-.33l.34.06-.34.27zM363.66 130.51v-.26h.29l-.03.23-.26.03zM363.02 131.53h.58l-.06.16-.52-.16zM363.08 133.09l.06-.33.06.3-.12.03zM362.55 134.26l.24-.24.05.3-.29-.06zM363.53 135.13h.37l-.06.12-.31-.12zM362 135.79v-.33l.33.06-.33.27zM359.3 133.72l.18-.21.15.03-.21.24-.12-.06zM357.92 132.98h.52l-.05.1-.47-.1zM360.2 127.3v-.36h.33l-.03.33-.3.03zM360.74 126.37v-.33l.33.06-.33.27zM359.48 126.28h.69l-.03.15-.66-.15zM368.16 135.25s-.3-.51 0-.38c.6-.1.14.17.51.29l-.51.09zM368.91 134.53c-.21-.28.07-.34.15-.51s.06.8-.15.51zM367.98 136.06l.51-.06-.03.3-.48-.24zM368.34 137.45c-.11.08-.18-.43-.18-.52h.33l.18.25-.33.27zM368.34 138.16s.1-.17-.18-.17v-.33h.33l.36.48h-.51zM367.57 138c-.08 0 0-.92.17 0h-.17zM367.27 137.26c-.08 0 0-.92.15 0h-.15zM370.35 138.53c-.23 0 .33-.54-.18-.54l.06-.33.45.18v.65h-.3zM371.25 138.35a12.38 12.38 0 01-.12-1.24l.45.36v.85h-.3zM372 137.8c-.34 0 .43-.9-.18-.9v-.36h.33l.36.39-.21.85h-.3zM375.1 128.53a1.61 1.61 0 01-.38 0v-.67s.32.61.32.62l.05.07zM374.09 129.64c0-.66-1.48-1.23-1.11-2.26a.1.1 0 01.15 0c0 1 1.69 1.94 1.69 2.82-.27 0-.55-.35-.73-.53zM373.82 130.72l-.57-.87c.71 0 1.2 1.22 1.2 1.83h-.15c0-.18-.33-1-.48-1zM372.66 131a3.84 3.84 0 01-.11-.4.58.58 0 010-.19c.56 0 1.75 2.07 1.28 2.06a7.09 7.09 0 01-1.11-1.52zM373.34 133.64c-.31-.3-.64-.5-.64-.94.78 0 .77.46.77.92h-.13zM368.81 133.15c-.19-.37-.74-.17-.74-.76.15 0 2.81 1.15 2.19 1.77l-1.48-1zM368.84 130.71c-.23-.23-.94-.28-.94-.76.07 0 .22-.09.32-.09s.3.27.37.27a2.07 2.07 0 00.56.12c0 .67 2.64 2.39 2.23 2.8-.38 0-.45-.24-.69-.44-.62 0 .18.59 0 .84s-.11.12-.11.14h-.21c0-.62-2.58-2.57-2.54-2.62.42-.22 1.9 1.13 2.43 1.13a5.25 5.25 0 00-1.37-1.41zM370 130.57l-1.93-1.57c.9-.9 3.63 2.32 3.63 3.67a12.73 12.73 0 01-1.68-2.09z" fill="#50d6cc" fill-rule="evenodd"/><path d="M369.84 129.19c-.42-.41-1.08-.93-1.08-.93s-.4-.94.08-.49c1 .94 3.05 2.12 3.05 3.68 0 .58-.53-.66-.61-.74-.32-.37-1.44-1.52-1.44-1.52zM370.19 128.23l-1.14-.88s-.55-1 0-.56a9.49 9.49 0 013 3c.45.8-1.73-1.39-1.85-1.53zM370.29 127s-1.36-.63-1.36-1.13c1 .09 2.23 1.65 2.86 1.65.06-.06 0-.36-.09-.42-.23-.23-.64-.4-.64-.74h.35a10.2 10.2 0 011.16 1.6v.17c-.39 0-.25-.4-.88-.4 0 .31.48.75.67 1a1 1 0 01.15.51c-.33.33-.38-.51-.55-.51 0-.31-1.47-1.38-1.67-1.62l.19.24s-.31-.32-.24-.29zM376.68 125.2c-.47-.59.86.06.48.06-.16 0-.38.06-.48-.06zM378.3 126.55l.33-.33c.05 0-.05.15 0 .18s.27 0 .39.06-.53.17-.72.09zM379.59 126.55l.69-.51c.06 0 0 .15 0 .18s.31 0 .36.06c.17.33-.94.27-1.05.27zM380.31 127.12c-.07 0 0-.15 0-.21s-.24-.07-.18-.09c.9-.32 2.44-.82.51.09v.18h-.3zM381.21 128.56c-.06 0 .05-.14 0-.18s-.47 0-.36-.09c.65-.29 1.13.19.36.27zM382.11 128.38c-.11 0-.1-.28 0-.33 1.6-.77 1.63-1.42 1.38-.06a5.63 5.63 0 01-1.38.39zM383 128.74c-.11 0 0-.39.06-.33.42.28.33.29-.06.33zM383.73 128.38c0-1 .58.52 0 0zM384.67 128.74c0-.17-.11-.47.06-.51s0 .73-.06.51zM384.67 127.84c-.06 0 .05-.16 0-.18-1.16-.38-.58 0-.19-1.2l.52-.06c0 1.07.41 1-.33 1.44zM383.73 129.46c-.43 0 .35-.47.55-.51v.48h-.52zM383 129.82h.13s-.12.07-.13 0zM367.98 120.94l.06-.36.07.33-.13.03zM368.91 117.84h.69l-.03.19-.66-.19zM370.53 117.97l.24-.25.27.25-.03.06-.48-.06zM371.97 117.88v-.33l.33.06-.33.27zM358.34 127.11c.21-.54.59 0 .73 0l-.62.16s-.11 0-.11-.14v-.06zM358.32 127.68c1.05.52-.34.61-.34.19-.27 0 .09-.21.34-.19zM354.54 128c0 .12-.4.18-.4.41h-.05l.1-.39c0-.28.28-.4.4-.64.62 0 .25.35 0 .63zM354.2 125.89c.05.75-.74-.1 0 0zM354.42 125.38c-.09 0-.09.11-.2.11s0-.11 0-.17-.09 0-.15 0c0-.37 0-.33.37-.33 0 .29.29.16.07.38v.06zM351.36 124.87a3.83 3.83 0 01.68-1.64h.08c0 .27-.06.58-.06.88h.66c0 .3-.29.37-.29.69-.61-.15-.6 0-1.07 0zM346.38 129.46a4 4 0 01.68-1.64h.09c0 .27-.06.57-.06.87.16 0 .43.06.65.06 0 .29-.29.37-.29.68-.6-.15-.6 0-1.07 0zM348.94 129.33h-.83s.2-.14.25-.19c1.67 0 2-1.94 2.67-3v-.08h-.11c0-.88.92-.71 1.5-.71v.16c-.81 0-1.51 3.78-3.51 3.78z" fill="#50d6cc" fill-rule="evenodd"/><path d="M347.89 126.4a2.08 2.08 0 01.66-1.37c2.09-2.42 1.21-5.23 2.6-8.11 0 0 1.48-1.72.86-.38-1.05 2.25-1 4.55-1.91 6.86-.13.32-.22.57-.22.57 1.49-2.66 1.87-5.46 3.36-8.06 0 0-.85.34-.95.55-1.1 2.21-.16 4.46-1.23 6.61-.36.71-1.18 1.64-1.12 2.43a17.89 17.89 0 01-.79 2.62c-.9.45 1-3.13-.25-1.23l-.43 1.23a4.64 4.64 0 01.21-2.1c.16-.3-.08-.54-.19-.25a3.84 3.84 0 01-.57 1.23v-.6zM410.36 108.81a4.75 4.75 0 00-1.65-2.73c-.59-.27.11-.07-.18-.36s-1.69-.47-2.16-.9 1.17-.17 1.23-.15.06.32.18.36.42 0 .54 0-.07.11 0 .18a2 2 0 01.75.36c.28.29.77 1.13 1.26 1.62s.07 2.4 0 1.62zM403.66 109.89c.19-.06 1.11-.75 1.2-.41.28 1.17-2.41.8-1.2.41z" fill="#50d6cc" fill-rule="evenodd"/><path d="M405.31 100.9c-.07-.48-.87-1.55.23-.46.35.35.41 2.61.39 3 0 .62-1.3-.06-.83.7s2 3 1.42 3.89c-.19.32-.48.67-.79.64s.39-2.3-.08-2.91c-.12-.15-.23-.07-.23-.07a17.12 17.12 0 01-.78-2.06l.06-2c0-1.16.79.52.61-.74zM404 101.29c-.14-.9-.34 1.25-.46 1.27-.85.12-.37-1-.46-1.76 0-.13-.65-1.52-.42-1.52 0-.19.21-.49.21-.74h.13c.52 1.1 1.49 2.35 1.52 3.63 0 .3.08 1-.34 1-.59 0 0-1.33-.21-1.83zM406.31 100.34c-.14-.24-.55-.36-.68-.67s.09-.57.33-.42c.74.46 1.5 4.07 1.5 4 0-1.36-.62 1.26-.51-.34a4 4 0 00-.64-2.62zM404.82 98.77a2.17 2.17 0 01-.67 0 1.47 1.47 0 00-.31-.88c-.37 0-.74.17-1.1 0a10.79 10.79 0 011.25-.21c.27.27.57.82.83 1.14zM415.43 117.33c-.38 0 .69-1.62.6-1.26l-.3 1.23h-.3zM415.43 119.32c-.41 0 .14-1 .3-.21l-.17.21zM406.91 116.94c-.05 0 0-.16 0-.18-2.12-.66.52-.57.87-.33.69.48-.68.54-.87.51zM394.89 114.24c-.24-.22-1-1.14 0-.51s2 .36 2.44 1.18c.23 0 3.26-.4 1.37.17-1.53.47-2.64.52-3.81-.84zM401.91 103.87l.06-.57.09-.03.03-.09.21-.06-.03.72-.36.03z" fill="#50d6cc" fill-rule="evenodd"/><path d="M401 98.65c1 1.29 1.22 3.8 1.81 5.39.05.13.23-.13.35-.07s0 .54.11.72.27.09.33.21c.38.67.5 2.09-.46 1.9-.18 0 .36-1.72 0-1.72-.8 0-1.19 1.15-1.51.83s1-1.41.32-1.68c-.43-.17-.47 1.49-1.12 1.17-.19-.1-.12-.55.07-.62 1-.38.84-4.29.54-5.11-.16-.43-.77-.48-.77-1h.33zM397.76 95.74c0-.09.09-.44 0-.51-.7 0-.22.32 0 .51zM415.14 110.08c0-.1.09-.45 0-.52-.7 0-.21.32 0 .52zM395 93.55a1.74 1.74 0 01-.81-1.15c.14-.15.76.36 1 .36.06.11 0 .41.09.54.19.55 1.34.93 1.34 1.77h.1c.14.26.12 1-.27 1-.28-.27 0-1.73-.52-1.94s-.88 0-.95-.62zM397 93.86c-.35-.12-1-.09-1-.59l1 .59z" fill="#50d6cc" fill-rule="evenodd"/><path d="M396.09 96.75L394 93.93c1.11 0 2.14 1.72 2.14 2.82zM384.13 117.33l.24-.36.27.25-.03.09-.48.02zM354.05 117.12l.48-1.23c-.85-.3-.06-1.74 1-1.74s-1 .75-.75 1.5.16-.28 1.11-.6c0 0-1.87 2.63-1.8 2.07zM365.46 117.13l.06-.33.27.23-.03.06-.3.04zM367.98 117.13v-.33h.33l-.03.29-.3.04zM370.17 116.67h.33l-.03.06-.3-.06zM356.21 116.58v-.18h-.18v-.33h.69l-.03.3-.33.09-.03.09-.12.03zM356.13 114.17v-.18h-.18v-.33h.69l-.03.3-.33.09-.03.09-.12.03zM386.08 116.49h.33l-.03.06-.3-.06zM394.24 116.58c-.05 0 .05-.15 0-.18s-.55-.08-.75-.18a4 4 0 00-.18-.36c-1.46-1.45-2.95-2.41-4.32-3.78l.69.18v.21c1 .26 4 2.85 4.53 3.42v.18c0 .02.25 0 .36 0s-.05.16 0 .18c.93.46.35.45-.33.33zM372.87 116.4v-.51h.33l-.03.48-.3.03zM385.39 116.4v-.33h.33l-.03.3-.3.03zM358 116.22V116h-.36v-.33c1.36 0 .36.59.36.51zM392.05 116c-1.4-.69-1.88-1.92-3.81-2.88 0 0-.66-.73 0-.51.05 0 0 .17 0 .18 1.55.37 3.9 3.24 3.84 3.21z" fill="#50d6cc" fill-rule="evenodd"/><path fill="#50d6cc" fill-rule="evenodd" d="M354.62 115.86l-.06-.12.15-.06.06.12-.03.06h-.12zM374.16 115.86v-.33h.51l-.03.3-.48.03zM384.13 115.77l.24-.24.27.24-.03.06-.48-.06zM370.17 115.41h.33l-.03.06-.3-.06zM381.93 115.5v-.33h.33l-.02.3-.31.03zM390.61 112.05v-.18l-.54-.18v-.18a24.81 24.81 0 01-2.73-1.53c.6-.27 1.6 1 2.34 1v.18l.9.18v.18c.33.08 5 3.88 4.68 3.93-1.53.27-3-2.86-4.65-3.42zM380.31 115.23h.51l-.03.06-.48-.06zM372.51 115.14v-.33h.33l-.03.3-.3.03zM357.11 114.69l.51-.12.03-.09.15.03-.21.24-.48-.06zM373.77 114.69h.54l-.03.06-.51-.06zM385.39 114.78v-.18l-.18-.09.51-.06v.18l.15.06-.04.06-.44.03zM353.45 114.68v-.18l-.19-.09.16-.09.09-.51.09-.03.03-.09.33-.09.03-.09-.54 1.17zM358.73 114.33h.54l-.03.06-.51-.06zM384.49 114.33h.33l-.03.06-.3-.06zM363.63 114.15h.18l-.04.06-.14-.06zM364.92 114.15h.33l-.03.06-.3-.06zM366.18 114.15h.33l-.03.06-.3-.06zM383.01 114.24v-.33h.34v.18l.18.06-.04.06-.48.03zM386.62 114.24v-.33h.33l-.03.3-.3.03zM368.7 114.06v-.33l.36.06-.36.27zM381.57 113.97l.24-.24.27.24-.03.06-.48-.06zM354.16 113.79l.51-.24-.03.3-.48-.06zM357.83 113.52v-.33l.51.06-.51.27zM372.51 113.52v-.33h.33l-.03.3-.3.03zM385.9 113.52l.05-.33.28.24-.03.06-.3.03zM355.49 113.25l.51-.18-.21.24-.3-.06zM373.77 113.34v-.33h.36l-.03.3-.33.03zM385.21 113.16v-.33h.33l-.03.3-.3.03zM375.06 112.89h.33l-.03.06-.3-.06zM356.75 112.53h.33l-.03.06-.3-.06zM381.39 112.62v-.18h-.18v-.18h.34v.21l.17.06-.03.06-.3.03zM383.74 112.53h.53l-.02.06-.51-.06zM390.79 110.79v-.18h-.18v-.18a9.92 9.92 0 01-2.91-1.26c-.55-.27 2.7.93 2.88.93v.18c1.31 0 3 1.63 4.89 2 .06 0-.05.18 0 .21s.55.11.33.12c-2.19.12-3.17-1.19-5-1.8zM367.08 112.44l.06-.18.06.15-.12.03zM387 112.44v-.21h-.18l.06-.33c.13.27 1.2.48.12.54zM387.16 111.33v-.18H387l.06-.33c.16.33 1.24.56 1 .84s-.64-.33-.84-.33zM385.39 111.51v-.18l-.18-.09.51-.06v.18l.15.06-.04.06-.44.03zM361.1 111.33l.06-.33.06.3-.12.03zM356.56 111.22l.07-.33.06.3-.13.03zM383.94 111.15v-.18l-.2-.09.36-.06-.04.3-.12.03zM366 110.97v-.33l.33.06-.33.27zM367.62 110.79v-.33l.33.06-.33.27zM357.65 110.52h.33l-.03.06-.3-.06zM358.73 110.34l.21-.21.15.03-.21.24-.15-.06zM386.08 109.8h.33l-.03.06-.3-.06zM383.38 109.44h.32l-.02.06-.3-.06zM388.24 108.27h1.26v.18l1.26.72-.15.33c-.83-.27-.88-.85-1.8-1.08 0-.5-.71-.18-.57-.18zM357.29 109.35l.06-.33.09-.03.03-.09h.51l-.69.45zM368.7 108.9h.36l-.03.06-.33-.06zM358.37 108.54l.63-.42.06.3-.36.09-.03.09-.3-.06zM356.75 108.36c-.26-.13.58-1 .66-.48h-.09l-.09.33-.3.06-.06.12-.12-.06zM355.17 112.81c-.26-.13.58-1 .66-.48h-.09l-.09.33-.3.06-.06.12-.12-.06zM385.9 108.45v-.33h.33v.18l.18.06-.03.06-.48.03zM389.53 107.34c-.1-.11-.85-.14-.48-.51 0 0 0 .16.09.18.3.11 1.08.08 1.08.57h.36l.18.36h.18l-.51.51v-.36h-.18v-.18c-.67-.22-.37-.16-.72-.57zM384.67 108.09v-.18l-.18-.09.33-.06-.03.3-.12.03zM394.6 108c0-.48.92-.14.48.06-.14.06-.49.09-.48-.06zM360.2 107.82h.33l-.03.06-.3-.06zM361.46 107.82h.33l-.03.06-.3-.06zM362.55 107.91v-.33l.51.06-.51.27zM393.31 107.73c-.2-.15-.08-.76.33-.54.05 0-.05.16 0 .18s.3-.08.39 0c.32.29-.45.56-.72.36zM364.19 107.55v-.18l.33.06-.02.09-.31.03zM355.6 109.02l.69-.24-.03.3-.66-.06zM356.93 106.98l.06-.33.09-.03.03-.09h.51l-.69.45zM387.16 107v-.18l-.36-.09c.69-.06 1.12.19.36.27zM390.61 107c-.74-.93.81-.45-.36-1.62-1.65-1.65.92-.1.66.87 0 0-.21.86-.3.75zM392.41 107c-.39-.78.93-.32.48 0-.13.08-.41.17-.48 0zM394.06 107c-.05 0-.16-.34-.18-.36-.17-.2-.56-.11-.75-.18s-.48-.85.15-.51c.05 0 0 .15 0 .18s.27-.07.36 0-.06.29 0 .33 2.08.25.39.54zM395 107c-.09 0-.07-.26 0-.33.38-.38.68.75 0 .33zM359.66 106.71h.33l-.03.06-.3-.06zM385.75 106.62v-.18l-.19-.09.31-.06-.04.3-.08.03zM353.34 115.68a1.3 1.3 0 01.9-1.17l-.9 1.17zM358.01 105.99l.6-.42.06.3-.18.18-.48-.06zM389.17 106.08c-.63-.31.81-.54.3 0a.29.29 0 01-.3 0zM392.05 106.08c-.1-.35.26-.37.18-.72 0-.06-.19 0-.18-.09.07-.45.75 0 .48.42 0 .08-.23 0-.3.06s-.12.54-.18.33zM394.06 105.63c-.33-.67 1.15.06.66.06-.22 0-.57.13-.66-.06zM395.14 105.72c-.17-.21 0-.48.33-.09 0 .06-.27.16-.33.09zM387.7 105.36c-.1 0-.09-.26 0-.33.38-.31.43.4 0 .33zM369.45 105.09h.33l-.03.06-.3-.06zM370.89 105.18v-.33l.51.06-.51.27zM390.79 105c-.37-.46.33-.51.12 0h-.12zM386.26 104.73l.24-.24.06.3-.3-.06zM357.77 104.13l.24-.24.06.3-.3-.06zM391.51 104.13h.33c0 .49-.33.57-.33 0zM394.06 104l.33.06c-.32.26-.33.48-.33-.06zM359.12 104.01h.33l-.03.06-.3-.06zM366.54 103.92v-.33l.51.06-.51.27zM367.98 103.74v-.33h.33l-.03.3-.3.03zM387.52 103.74l.06-.33.06.3-.12.03zM393.13 103.74v-.51h.33v.36l.18.06-.03.06-.48.03zM358.94 103.56l.06-.33.09-.03.03-.09h.33l-.21.42-.3.03zM370.89 103.56v-.18l-.18-.09h.51l-.33.27zM391.15 103.56l.06-.33.06.3-.12.03zM372.33 103.38l.06-.33.06.3-.12.03zM389.35 102.84l.06-.36.06.33-.12.03zM359.84 102.66l.24-.36.06.12-.3.24zM392.59 102.66v-.21l-.18-.09.33-.06v.18l.18.06-.03.09-.3.03zM391.15 102.45v-.18h-.18v-.18h-.18v-.33h.33v.18h.36l-.03.48-.3.03zM388.06 102.27l.06-.33.06.3-.12.03zM386.8 101.91v-.18l-.18-.09.51-.06-.03.3-.3.03zM391.69 101.91v-.33h.33l-.03.3-.3.03zM369.81 101.73v-.33l.33.06-.33.27zM372.69 101.55v-.33l.33.06-.33.27zM392.05 101.01v-.18l-.18-.09.33-.06-.03.3-.12.03zM388.06 100.74h.51l-.03.06-.48-.06zM389.35 100.29l.06-.33.06.29-.12.04zM370.35 100.02h.33l-.03.06-.3-.06zM388.24 99.75v-.33h.33l-.03.3-.3.03zM361.1 98.76c-.17-.09 1-.9.12.06l-.12-.06zM386.26 98.85v-.33h.33v.18l.18.06-.03.06-.48.03zM364.38 98.48v-.32l.51.06-.51.26zM385.21 98.48l.05-.32.07.29-.12.03zM366.18 97.86l.24-.28.06.34-.3-.06zM384.31 97.47h.33l-.03.06-.3-.06zM385.02 97.56v-.18h-.17v-.7h.33l-.16.88zM374.16 97.38v-.33l.33.06-.33.27zM364.92 97.19v-.17h-.18v-.34h.33l-.03.49-.12.02zM372.15 96.83l.06-.51.09.18h.18l-.03.31-.3.02zM362.91 96.56c-.21-.1.11-.44.35-.39s-.15.5-.35.39zM366.36 96.65l.06-.33.06.3-.12.03zM390.97 96.56l.15-.09.09-.51.09.18h.18l-.21.48-.3-.06zM373.05 96.47v-.33h.33l-.03.3-.3.03zM374.52 96.47l.06-.33.09-.03.09-.33.06.66-.3.03zM368.34 96.29l.06-.33.06.31-.12.02zM364.38 95.48l.32-.12.04-.09.15.03-.21.24-.3-.06zM373.23 95.58l.06-.34.27.24-.03.06-.3.04zM383.94 95.39l.06-.51.1-.03.03-.33-.19.87zM391.51 95.39v-.33h.33l-.03.3-.3.03zM390.25 94.67v-.33h.33l-.03.3-.3.03zM372.51 94.31l.06-.33.27.24-.03.06-.3.03zM391.15 94.31v-.18h-.18l.06-.51.09.18h.18v.18h.18l-.03.3-.3.03zM385.02 94.13v-.18h-.17v-.33h.33l-.03.48-.13.03zM392.77 93.77c-1.15-.36-.49-.51-.72-1.11l-1.26-1.08c-.46-.63 1.23-.27 1.23.39s1.89 2.16.75 1.8zM389.53 93.41v-.18h-.18v-.54h.33v.21h.18l-.03.48-.3.03z"/><path d="M393.13 92.87l-1.08-1.29c-1 0 1.05-.1 1.05.57s.5 1.28 0 .72zM388.06 92.66v-.18l-.18-.09.24-.24.09.18h.18l-.03.3-.3.03zM385.02 92.03h.34l-.03.06-.31-.06zM388.06 91.13h.33l-.03.06-.3-.06zM399.23 105.08c-.13-.14 0-.32.14-.41a5.14 5.14 0 001.35-4h.13c1.21 1.21.19 4.34-1.62 4.34z" fill="#50d6cc" fill-rule="evenodd"/><path d="M398.69 104.2c.88-.67.57-3 .59-4h.14a4 4 0 010 3.86c-.51.86-1.06.35-.77.14zM396.68 103.26a.27.27 0 010 .3c-.09 0-.63 0-.51-.25.27 0 .06-.19.58-.09zM397.12 108.76c.47-.27 1.49-.68 1.65-1.18 0 0 .56-.07.25.26s-1.36 1.46-1.9.92zM395.49 110.13c-.16-.33 1.48.36.44.36-.13 0-.06-.07-.23-.16a.38.38 0 01-.21-.2zM396.77 112.74c.33-.49 2-.27 2.71-1a5.49 5.49 0 001.46-2.4c0-.12 2-.54 2.16-.7.46-.37.46-1.18 1-1.18 0 0-.37 1.27-1.26 1.6s-1.33.18-1.76 1c-.76 1.36-1.28 2.6-3.11 2.7l-1.25.07z" fill="#50d6cc" fill-rule="evenodd"/><path d="M397.65 111.49l-.37-.21a4.61 4.61 0 002.41-1.13l.75-1c.27 1-.9 2.08-1.79 2.15a3.86 3.86 0 00-1 .16zM399.85 114.24v-.33l.33.06-.33.27zM391.69 130.93l-.19.35h-.38v.09h-.3c.06-.5.87-1.49.87-.87a1.6 1.6 0 000 .36zM400.13 96.32c0 .46 1.16 1.2 1.49 1.2 0-.6-1.6-.65-1.49-1.2zM416.22 112.75c.29-.35-.11-1.67-.37-1.88-.39.45.8 1.53.37 1.88zM407.48 101.55c0 .46 1.15 1.2 1.49 1.2 0-.6-1.6-.65-1.49-1.2zM383.19 148.43l-.18-.27.34.12.08.18-.24-.03zM381.93 148.25v-.33l.33.18.18.06-.03.06-.48.03zM379.41 147.89l.06-.51.09.18.18.06-.33.27zM383.19 147.53a2.38 2.38 0 01-.35-.36.29.29 0 010-.33c.17-.17.84.47.65.66a.27.27 0 01-.3 0zM381 147.17c-.16-.08-.32-.38-.18-.54s.64.35.48.51a.29.29 0 01-.3 0zM384.3 146.6s.06-.15 0-.18-.89-.31-.75-.57.88.22.91.3a.76.76 0 010 .42.1.1 0 01-.13 0zM379.05 146.42l.06-.27.06.24-.12.03zM382.11 146.42s-.3-.46-.18-.63c.28-.37.32.17.33.18s.16-.06.19 0a.48.48 0 010 .42c-.06.08-.21.07-.3 0zM378.3 145.94c0-.38-.22.06-.12-.51l.27.18v.3h-.12zM385.38 145.76c-.12-.16-.7-.55-.56-.85 0 0 .27.05.48.23a.48.48 0 01.21.59s-.1.06-.13 0zM378.87 145.4l.06-.33.06.3-.12.03zM383 145.4c-.05 0-.56-.56-.35-.87s.46.43.51.54.2 0 .18.06a.55.55 0 01-.34.27zM380.49 144.77c.34-.16.93.16.66.42a.29.29 0 01-.3 0c-.05 0-.42-.42-.36-.45zM376.32 144.98l-.18-.21h.15l.18.18-.03.06-.12-.03zM377.58 145.04v-.18l-.18-.09.33-.06-.03.3-.12.03zM375.42 144.5v-.18l-.18-.09.33-.06-.03.3-.12.03zM376.86 144.5v-.18h-.18l.06-.33.09.18h.18l-.03.3-.12.03zM378.3 144.5l-.18-.36v-.33c.18 0 .2.22.28.28s.22.1.2.38h-.3zM383.94 144v-.33c.45 0 .51.29.7.54 0 .05.22 0 .18.06s-.52.46-.52.27c0-.53-.05-.24-.36-.54zM382.11 144l-.18-.09c.26-.05.64.09.48.42 0 0-.11.07-.11 0l-.19-.36zM385.56 143.78l-.18-.18v-.69c.54 0 .48.31.45.84h-.27zM387.16 143.78v-.72l-.18-.18h-.36v-.51c1.56 0 .54 1.76.54 1.41zM375.96 143.6l.06-.33.27.24-.03.06-.3.03zM377.4 143.42c-.5.05 0-.43.06-.51l.09.18h.18v.3h-.3zM375.24 143.24c-.06 0-.16-.26-.18-.27l.33-.06v.3h-.12zM380.85 143.24c-.33 0 .33-.84.33-.15l.18.06v.06h-.48zM383.19 143.24c-.21 0-.54-.51.16-.51v.18h.18v.3h-.3zM376.68 142.52c-.06 0 .05-.16 0-.18l-.18-.09.33-.06v.3h-.12zM384.48 142.52s-.47-.42-.18-.45.71 0 .67.42h-.49zM382.3 142.34c-.22 0-.55-.51.15-.51v.17h.17v.3h-.29zM386.26 142.16c-.05.07-.95-.9 0-.9v.18h.18v.18h.18l-.33.54zM383.73 141.59c-.06 0-.86-.69 0-.69v.18h.21v.48h-.15zM378.48 141.41c-.13 0 .42-.95.33 0h-.33zM380.49 140.78l.33-.06v.18h.18c-.07.73-.19 0-.51-.12zM385 140.87a3 3 0 01-.36-.18v-.36l-.19-.1c.47 0 .89.15.85.61h-.3zM387 140.69c-.25 0 .07-.36-.36-.36V140h.51v.18h.18v.48h-.3zM379.59 140.51s.06-.16 0-.18l-.18-.1h.33v.3h-.12zM382.11 140.51c-.27 0-.27-.83 0-.33h.37v.3h-.3zM381 139.61l-.18-.09.33-.06v.3c-.27.06 0-.11-.12-.15zM383.73 139.61s-.72-.39 0-.51v.18h.21v.3h-.15zM386.08 139.61c-.31.07-.05-.36-.52-.36v-.33c.47 0 .13.18.67.18v.48h-.12zM387.34 139.07a1 1 0 00-.53-.23c.05-.31 0-.33 0-.65.63 0 .34.49.69.49l.15.36h-.3zM382.3 138.71c-.53 0 .15-.77.15-.16l.17.07v.06h-.29zM384.48 138.35c-.66 0 .34-.74.34-.16l.18.07v.06h-.49zM385.9 137.8c-.06 0-.2-.26-.15-.27l.48-.06v.31h-.3zM387 136.51c-.06 0 .06-.18 0-.18h-.36V136h.51v.18h.18v.31h-.3zM387.88 136.33s.53-.72.18-.9l-.18-.09.51-.06-.18.63.18.09v.3h-.48zM385.56 135.61c-.32 0 .78-.68.46 0h-.46zM387 134.89s.15-1.23.15-.33h.18v.3h-.3zM388.42 134.89c-.33.17.18-.9-.36-1.17l.24-.24.09.18c.68 0 .33.32.17.81l.4.15-.54.27zM388.42 132.37c-.33 0 1-.72.69 0h-.69zM388.6 130.72c-.16 0 0-.63.36-.33s-.2.32-.36.33zM390.25 129.85c.56-.56.52.67 0 .51s-.12-.39 0-.51zM389.35 129.46c-.43 0-.29-.3.33-.09v.06h-.3zM389.65 128.06l1.26-.43c-.81.22-1.19.66-.51.78v.3c-.71.07-1.18-.49-.72-.65zM390.79 126.37c-.09 0-.11-.63.33-.09.07.08-.3.09-.33.09zM401.83 119.31v-.17l-.18-.09.33-.09.03-.09h.87l-1.05.44zM354.59 130.9l.24-.51.06.3-.3.21zM354.43 132.81c-.2.42-.41.37-.41-.19h.51s0 .09-.07.11zM354.47 134.56v.31H354.26c0-.13-.1-.45.19-.45a.4.4 0 010 .11zM346.81 139.65l.09-.43-.59-.2 1.17-.11-.04.39-.16.04-.47.31z" fill="#50d6cc" fill-rule="evenodd"/><path fill="#fdd6c6" fill-rule="evenodd" d="M369.06 159.33v-.21h.21l-.03.17-.18.04z"/><path d="M368.31 175.65l.43.65c.27 0 .38-.14 1-.17v-.09l-1.83-.78c-.55-.77-1.32-2.9-2.52-2.7l.06-.57h.09v-.51h.51v-.33c-.83 0-2.75-1.79-1.47-2.22v-.09c2.24-.39-1.15-4.66-1.47-3.69h-.1a31 31 0 01-1 7.77h-.18c.19-2.8.54-5.45.54-8h-.18v-.18H362c0 4.77-1.36 9.57-1.83 14.11h-.09l-.09 1.41h-.18l.06-1.83h.09c.26-4.48 1.61-9 1.65-13.53h-.18v-.18h-.33c-.07 5.1-1.75 10.2-2 15.19h-.18c.14-4.9 1.62-9.78 1.62-14.68h-.18l-.09-.18c-.48 4.79-2 9.59-2.28 14.29h-.18v-.36h-.18c.3-4.61 2.51-8.79 1.74-13.42a33.61 33.61 0 00-.66 4.32h-.18c.05-1.47 0-2.75 0-4h-.18l-.09-.18c-.43 1-.23 3-.27 4.32h-.09c-.33 2.57-1.65 5-1.79 7.69l.12 1v3.22l-.15.09.18.09v1.26h-.09c-.14 4.76-2 7.71-3 11.37v.75h.18v.18c.42 0 1 .54 1.47.54v.19c0 .39 1-1.23 1.92-1.33a11.83 11.83 0 00.23-2h.21v.57h.48v-.06c-1.27-.42 1.6-2 1.29-2.58-.21-.4-1.05.94-1.47 0 .21-2.08 4.1-5.65 4-5.65-.69 0 1.22-1.12 1.23-1.5l.25-.69v.9c.36 0 .46-.53.57-.9l1.74-.75c.24-.74 2.28-1 .6-1 0 .11-.23.14-.57.12 0-.62 1.65-1.4 2.13-1.53v-.3c-.6 0 .37-.72.36-.75h-.36l2.19-1c-.3-.1-1.71-.78-1.83-.78v-.18c-1.74.29.5-1.3.52-1.34zm-13.23 17.8c-.46.57 1.76-3.7 1.51-7.67 0 0 .19-3.74.25-4.45s.07-3.51.07-3.7.25-1 .19-.16c-.39 4.96 1.36 11.74-2.02 15.98zm2.18-.27h-.18v-.33h.21zM394 109.74c-.2-.09-.56-.09-.75-.18s-1.46-2.16-1.59-.93c0 0 .28-.16.06.39s.08.44.15.51c1 1 1.18 1.9 3 1.59.32-.05-.79-1.36-.87-1.38zm-1.65 0c-.09-.08.05-.26 0-.36s-.52 0-.18-.21.82.43.93.54c1.1 1.07-.33.42-.72.03z" fill="#50d6cc" fill-rule="evenodd"/><path d="M360.89 120.25c-.13-.14.08-.35.21-.21s-.11.3-.21.21zM362.51 121c-.12-.1 0-.32.21-.15s-.15.2-.21.15zM379.38 118.27c-.7-.23 1.24-.29.54 0a1 1 0 01-.54 0zM383.53 119c-.73-.23 1.29-.29.57 0a1 1 0 01-.57 0zM383.71 121.69c-.73-.23 1.29-.29.57 0a1 1 0 01-.57 0z" fill="#fff" fill-rule="evenodd"/><path d="M355.13 124c-.23-.3-.21 0-.36-.18s.08-.28 0-.36-.47-.11-.54-.18c-1.92-1.92.71-2.67-.18-4-.31-.47.5-1.55.78-2.17.09-.19 1.32-.09 1.53 0s-.08.3 0 .4a3.46 3.46 0 001.26.15c.47-.11-.66-.35-.69-.37-.4-.23.31-.61.51-.54s-.08.14 0 .18a2.29 2.29 0 001.26.15c.19-.07-.13-.25 0-.32.88-.39.7.34.72.35s.43 0 .54 0-.11.17 0 .21c.37.15.7.06 1.08.19.09 0 .07.32.18.35s.43 0 .54 0 .07.33.18.37.43 0 .54 0 0 .13 0 .18.52.33.54.36-.08.14 0 .18c.81.4 0-.45.36.36.16.31.67.23.76.36s0 .56.18.72.35.17.36.18c.11.32 0 .63.18.9 0 .09.68.16.33.69-.08.11-.26-.07-.33 0-.29.36.34.53.36.57s.24 1.25.09 1-.39-.94-.66-.57c-.1.12-.27-.32-.3-.33-.35-.12-.65 0-.94-.18-.46-.22-.64-1.29-1.08-1.29-.16-.17-1.68-1.22-1.65-1.26.45-.68-2.13.18-2.55.6-1 1-1.5 2.63-2.88 3.09 0 0-.07.21-.15.12zm15.4-5c.41.23.06.82-.36 1.08s.36-.13.36.27-.57.59-.54 1.08.14-.09.18 0c.12.29-.52 1-.54 1.47 0 .26.14 0 .18 0s-.39.15 0 .54-.28.59-.18 1.08c0 .05 1.31.11.69.54-.82.55-.24-.9-1.05-.09-.18.18.69.26.72.27s-.22.14 0 .18.67.88 1 .51c.11-.12-.13-.4 0-.51s1.44 1.12 1.47 1.26 0 .56.12 0-.5-1 .36-1.08-.5-.12-.69-1c0-.17-.15.57-.18 0-.06-1.06.44.28.69-.24a2.21 2.21 0 00-.15-1c-.41-.11.33-.79.18-1.08 0-.07-.2.22-.18 0s1.25-1.29 1.47-1.5 0 .3.33 0-.38-.35.24-.15 1.65-1.84 1.8-1.26.69-.21 1.08 0-.1-.07.15-.18a5.49 5.49 0 011.68.18c.13.08 0 .28 0 .36s.14-.05.18 0c.29.34-1.19.33-1.41 0 0 0-3.09 1.54-3.33 1.59s-.35-.08-.51 0-.17.48-.57.6 0 .06 0 .09c-.79.79 1.11-.18 0 .93-.37.37-.87.19-.45.72 0 0 1.57-1 1.56-1.41s-.15.06-.18 0 .48-.73.6-1a14.54 14.54 0 012.79-.93c.51-.11 0-.07 0-.09.69-.25.07.09.39.12.68 0 2.35-.25 2.55-.18s-.44.14 0 .18 1.78 1.53 2 1.62 0 .3 0 .39.13 0 .17 0-.08.14 0 .18c.36.17.6 0 .43.39a6.53 6.53 0 00.11.69c.41.4.34-.49.37-.54.16-.35 1.59 1.42 1.8 1.62a3.28 3.28 0 002.46.51c.22 0 1.39-.9-.15-.51-1 .24-.62 0-1.62-.15-.66-.11 1.38-.41 1.41-.42.73-.18.79-1-.3-.42-.07 0 1 0 0 .09s-1-.41.15-.57 0-.06 0-.09.45-.31.36-.33c-1.19-.26-1.66.74-3-.06-.4-.23 1.85-.38 2.1-.42 1-.16-.31-2.24-1-2.31-.32 0 .13-.16 0-.18-.55-.1-1 .28-1.77.18-.21 0 .27-.15 0-.18s-1.2 0-1.48 0 .21-.15 0-.18c-.37-.07-1.45.31-1.08-.39.18-.32.14.14.21.18s.58-.25.91-.18c.12 0-.28.14 0 .18s1.19 0 1.46 0-.19.15 0 .18a4.46 4.46 0 001 0c.49-.16-2.31-2.06-2.71-2.1s.09-.14 0-.19a23.62 23.62 0 00-3.42-1.29c-.11 0 .62-.16 0-.18l-2.07.7c-.3.1-1.17.17-.83 0s-.51.54-1.29.81c-.16 0-.4-.22-.56-.16-.41.14-.53.4-.92.54s-.2-.15-.45-.06-.21-.26-.48-.16-1 .9-1.12 1a4.27 4.27 0 00-1.13.49zm6.47-2c-.72-.35 1.68-.78 1.86-.75.61.12-1.41 1-1.86.75zm7.63 4a7 7 0 001.77 0c.11 0 .14-.35 0-.36-.82-.12-1.67 0-2.49 0-.05 0 .05-.18 0-.18s-1.87-.11-1.33.21a6.93 6.93 0 002 .18c.05 0-.05.17 0 .18zm-27.38-2c.27 0 .76 0 .9-.21s-1-.25-1.23-.36c0 0 .06-.18 0-.18s-2.18-.09-1.29.39c.21.11.49-.06.72 0 .05 0-.05.17 0 .18.29 0 .61-.06.9 0 .05 0-.05.17 0 .18zm-2.16.72c.09 0 1.77.14 1.47-.21s-.59-.11-.9-.18c-.05 0 .05-.17 0-.19-.82-.16-.75.56-.57.58zm0 .9c.57.08 1.6.14.39-.21-.05 0 .05-.17 0-.18-1-.31-.44.38-.39.39zm0 .9c-.05 0 0-.16 0-.18s-.9-.07-.36-.21c.9-.25 1.3.64.36.39zm-.18.93c.54.38.56-.33.39-.42-.39-.21-.62.25-.39.42zm.18.9a.28.28 0 00.39-.39c-.06-.11-.49.33-.39.39zm6.15-2.91c.61.6.23-.82 0-.39a.41.41 0 000 .39zm1.45.63s.08-.17.12-.12c.14.22 0 .25-.12.12zm.54.63c-.13-.13.07-.35.21-.21s-.12.3-.21.21zm14.49-4c-.61-.16 2.19-.87 2.94-.78a4.94 4.94 0 01-2.94.78zm2.37.37c2.17.23 2.21-.49 0-.22-.06 0-.06.21 0 .22zm.54.72a22.28 22.28 0 002.71 0s.08-.17 0-.19a11.87 11.87 0 00-2.73 0c-.06 0-.06.21 0 .22zm4 3.06c-.07 0-.06-.2 0-.21.64-.14 1.79 0 2.31-.3.16-.11.48.2.36.3a8.41 8.41 0 01-2.67.21zm-13.24 3.27V125h-.18l.06-.21h.09v-.09l.21-.06v.54h-.18zm.54.36v-.21l.21.06v.09l-.18.06zm2.85-5.37v-.34h.33l-.05.29h-.28zM392.59 176.65l.06-.51h.09v-.09l.33-.06v.18c.71.23-.55.88-.51.51z" fill="#50d6cc" fill-rule="evenodd"/><path d="M357.21 103.69a37.26 37.26 0 00-3.56 9.18" fill="none" stroke="#fdd6c6" stroke-width=".17"/><path fill="#50d6cc" fill-rule="evenodd" d="M355.28 107.83l.06-.51.09-.03.03-.36.33-.03.03-.09-.54 1.02zM356.07 106.36a1.3 1.3 0 01.9-1.17l-.9 1.17zM354.38 109.25a1.33 1.33 0 01.9-1.17l-.9 1.17zM353.77 111.65c-.39-.61 2-2.71 2.1-1.83s-1.71 2.43-2.1 1.83z"/><path d="M353 113.16l1.68-1.62c1.26.2-1.8 2.69-1.68 1.62zM354.36 110.21l.06-.51.09-.03.03-.33.33-.03.05.11-.54.99-.02-.2z" fill="#50d6cc" fill-rule="evenodd"/><path d="M354.54 109.34a2 2 0 011.33-1.21l-.9 1.17zM353.66 112.34l.36-.61.09.57-.48-.06.03.1z" fill="#50d6cc" fill-rule="evenodd"/><path d="M357.43 103.86a1 1 0 00-.35.44 2.07 2.07 0 01-.37.54" fill="none" stroke="#fdd6c6" stroke-width=".17"/><path fill="#50d6cc" fill-rule="evenodd" d="M356.93 104.01l.18-.21.15.03-.21.24-.12-.06zM356.69 104.5l.21-.21.15.03-.21.24-.15-.06zM357.19 103.43l.3-.16-.03.31-.27-.15z"/><path d="M357 103.54c.25-.06.38-.31.52-.41" fill="#50d6cc" stroke="#000" stroke-linecap="round" stroke-width=".1" fill-rule="evenodd"/><path d="M354.2 144c-.16-.13.48-1.2.51-1.32.32-1.34-.68.53-.36-.9.19-.86-.25-.36-.33-.51-.3-.58 1.33-2.31.18-1.65-.52.29 0-1 .24-1.26.47-.47-.2-.25-.24-.34-.24-.59 1-2 .63-2.37-.13-.13-.78 1.24-.81 1.26-.43.34.14-1.4 0-1.62s-.45.19-.57 0c0 0 .15-1.36.18-1.47s.14 0 .18 0c.23-.36-.35-.4-.36-.48a2.2 2.2 0 01.45-1.5c.51-.59 0-.6-.45-.18s-.38-.27-.72.18 0-.89.06-1.08c.4-.8.19-.16.33 0s1.12-1 1.08-1c-.4-.32-.86.21-.9.09-.17-.57 1-.44.54-1s-1.69 2.25-1.89 2.34c-.52.23.91-2.18.93-2.22.31-.61-.08-.54.72-.72.34-.08.34-1.19.24-1.59-.18-.74-1.61 2.44-1.65 2.52-1 2 .16-1.73.24-2s.62-.83.63-1c.06-1.34-.16-.14-.51 0-1 .5-1.11 2.19-1.62 3.09a5.38 5.38 0 01-2.7 1.53c-1.89.45.2-.45-.21-.6-.79-.29-4.61 2.48-4.26 3.6 0 .05.68-.86.84-1 .54-.54 1.1-.44 1.59-.81.07 0-.11-.14 0-.18s1.81-.34 1.62 0c-.38.66-3.78 1-3.51 2.37 0 0 1.45-1 1.53-1a7 7 0 002.31-.63 17.64 17.64 0 012-1.23c.32 1-3.54 2.51-3.75 2.61-.47.23-1.3 1-.06.6l-.48.66s-1.12.25-.54.45c1 .36 3.14-1.4 3.75-2 .26-.25 1.1-.58 1.26-.9.39-.78.05-.67.9-.93.07 0 .46-.89.54-.66.44 1.31-5.73 4.81-6.66 5.43-.15 0 .08-.15 0-.18-.68-.24.12.58.15.52.22-.52.19 0 .24 0 .21 0 .84-.12 1.08 0 1 .53-1.44.32-.9 1.08.08.12.28 0 .36 0s-.05.14 0 .19a4.53 4.53 0 00.84.33c.36-.48.89 0 1.32.21.08 0 .13.33.18.36s1.45.27.9.36a7.79 7.79 0 01-1.08 0c-.21 0-.07-.15-.12-.15a9 9 0 00-.75 1c.32-.44.25 0 1.23.41.08 0-.16.51-.14.55s.44 1 .76 1.6a4.55 4.55 0 002.14 1.09 1.08 1.08 0 01.92.46s.77.07.85.11c.85.41.62.06 1.11.72 0 .19.25-.58.39-.72.71-.69-.3-.46-.38-.52zm-4.33-8.63a17.12 17.12 0 001.92-2.25 5.14 5.14 0 01.54-.91c1.19-1.06-1.15 2.75-2 3.24-.39.18-1.9 1.33-.46-.09zm-2 2.4h.43a.78.78 0 00.51.5c1.74.51-.91.73-.91-.51zm.85-.21c0-.42.35-.26.35-.26a4.24 4.24 0 00.86.26c2.07.44-1.11.78-1.18-.01zm1.25 3.36c-.77-.14.16-.39.14-.41a6.64 6.64 0 001.43-.67c.45-.35.51-.41.51-.41 1.23-.49-.91 1.67-2.05 1.48zm1.11-4.23a1.67 1.67 0 01.19-.39 4.5 4.5 0 001-1.06c.05-.12.55-1.28.56-.33.08 1.72-1.9 2.39-1.72 1.77z" fill="#50d6cc" fill-rule="evenodd"/><path fill="none" stroke="#a3a3a3" stroke-linecap="round" stroke-linejoin="round" stroke-dasharray="5 5" d="M158.38 1.15H75.5v127M156.55 290.18H75.5V155.87"/><path d="M3.62 139.16a2.84 2.84 0 011.82 2.73A3.08 3.08 0 012.18 145a3.71 3.71 0 01-2.79-1.2l.9-1.07c.15.15.07.32.22.48a2.3 2.3 0 001.65.72 2.13 2.13 0 002.14-2.16c0-1.27-1.06-2-2.49-2a4.9 4.9 0 00-.54 0v-1a4 4 0 001.67-.27 1.84 1.84 0 001.13-1.67 1.72 1.72 0 00-1.84-1.65A2.56 2.56 0 00.4 136l-.66-.74a3.49 3.49 0 012.55-1.13 2.79 2.79 0 012.91 2.68 2.45 2.45 0 01-1.58 2.35zM23.43 134.46l-.55 1.13c-.06 0-.13 0-.14-.14s0-.12 0-.2a2 2 0 00-1.7-.89 1.74 1.74 0 00-1.56.86 3.34 3.34 0 00-.28 1.68v.6h2.54v1h-2.59v6.33H18v-6.33h-1.71v-1H18v-.76a3.52 3.52 0 01.42-2 3.06 3.06 0 012.66-1.35 3 3 0 012.35 1.07zM28.25 134.74c.06.17-.06.28-.1.46-.08.43-.19 1.83-.19 1.83h2.54v1h-2.56c-.09 1-.14 2-.14 3a11.66 11.66 0 00.05 1.49 1.27 1.27 0 001.3 1.26 3.07 3.07 0 001.74-.71l.38 1a4.31 4.31 0 01-2.48.86 2.1 2.1 0 01-1.77-.82 3.55 3.55 0 01-.46-2.12c0-1.32.06-2.64.16-4h-1.81v-1h1.85l.15-2.08zM47.13 133.51l1 .51-5.34 11.5-1-.5zM64 134.2v6.63h1.4v1H64v2.92h-1.19v-2.93h-4.27V141l4.46-6.8zm-4.33 6.63h3.11v-4.74zM82.93 134.46l-.55 1.13c-.06 0-.13 0-.14-.14s0-.12 0-.2a2 2 0 00-1.7-.89 1.74 1.74 0 00-1.56.86 3.34 3.34 0 00-.28 1.68v.6h2.54v1h-2.59v6.33h-1.17v-6.33h-1.69v-1h1.69v-.76a3.52 3.52 0 01.42-2 3.06 3.06 0 012.66-1.35 3 3 0 012.37 1.07zM87.75 134.74c.06.17-.06.28-.1.46-.08.43-.19 1.83-.19 1.83H90v1h-2.56c-.09 1-.14 2-.14 3a11.66 11.66 0 000 1.49 1.27 1.27 0 001.3 1.26 3.07 3.07 0 001.74-.71l.38 1a4.31 4.31 0 01-2.48.86 2.1 2.1 0 01-1.77-.82 3.55 3.55 0 01-.46-2.12c0-1.32.06-2.64.16-4h-1.76v-1h1.85l.15-2.08zM106.63 133.51l1 .51-5.34 11.5-1-.5zM124.39 134.21v1.07H120l-.16 3.05a3.92 3.92 0 011.72-.41 3.2 3.2 0 013.21 3.54 3.26 3.26 0 01-3.35 3.54 3.79 3.79 0 01-3.14-1.63l1.06-.8c.15.11.06.27.13.4a2.5 2.5 0 001.94 1 2.55 2.55 0 000-5 2.57 2.57 0 00-2 1l-.76-.3.36-5.39zM142.43 134.46l-.55 1.13c-.06 0-.13 0-.14-.14s0-.12-.05-.2a2 2 0 00-1.7-.89 1.74 1.74 0 00-1.56.86 3.34 3.34 0 00-.28 1.68v.6h2.54v1h-2.54v6.33H137v-6.33h-1.69v-1H137v-.76a3.52 3.52 0 01.42-2 3.06 3.06 0 012.66-1.35 3 3 0 012.35 1.07zM147.25 134.74c.06.17-.06.28-.1.46-.08.43-.19 1.83-.19 1.83h2.54v1h-2.56c-.09 1-.14 2-.14 3a11.66 11.66 0 000 1.49 1.27 1.27 0 001.3 1.26 3.07 3.07 0 001.74-.71l.38 1a4.31 4.31 0 01-2.48.86 2.1 2.1 0 01-1.77-.82 3.55 3.55 0 01-.46-2.12c0-1.32.06-2.64.16-4h-1.81v-1h1.85l.15-2.08zM311.39 337.48v1.07H307l-.16 3.05a3.93 3.93 0 011.73-.41 3.19 3.19 0 013.2 3.53 3.25 3.25 0 01-3.34 3.54 3.75 3.75 0 01-3.14-1.63l1.05-.79c.15.1.06.27.13.4a2.56 2.56 0 001.94 1 2.56 2.56 0 000-5.05 2.6 2.6 0 00-2 1l-.76-.31.37-5.38zM329.43 337.73l-.56 1.13a.14.14 0 01-.14-.14.33.33 0 000-.21 2.06 2.06 0 00-1.7-.88 1.72 1.72 0 00-1.56.86 3.33 3.33 0 00-.29 1.67v.6h2.54v1h-2.54v6.34H324v-6.34h-1.69v-1H324V340a3.5 3.5 0 01.43-2 3.22 3.22 0 015-.29zM334.25 338c.06.17-.07.27-.1.46-.08.43-.2 1.83-.2 1.83h2.54v1h-2.55c-.1 1-.15 2-.15 3a11.84 11.84 0 000 1.49 1.28 1.28 0 001.31 1.25 3.07 3.07 0 001.74-.71l.38 1a4.37 4.37 0 01-2.48.87 2.07 2.07 0 01-1.77-.83 3.54 3.54 0 01-.46-2.11c0-1.32.05-2.64.16-4h-1.77v-1h1.84l.15-2.08zM353.12 336.77l1 .52-5.34 11.5-1-.5zM370.92 338.33l-.83.91c-.15-.12-.15-.27-.25-.38a1.89 1.89 0 00-1.24-.45c-.76 0-2.5.48-2.57 4.1a2.61 2.61 0 012.25-1.28c1.49 0 2.9 1.27 2.9 3.47s-1.41 3.55-3 3.55a3 3 0 01-2.5-1.41 6.41 6.41 0 01-.81-3.59 10.16 10.16 0 01.46-3.26 3.53 3.53 0 013.28-2.63 3.36 3.36 0 012.31.97zm-4.83 5.37c-.14 2 .83 3.49 2.12 3.49.9 0 1.81-.77 1.81-2.43 0-1.82-1-2.49-1.86-2.49a2.54 2.54 0 00-2.07 1.43zM388.93 337.73l-.56 1.13a.14.14 0 01-.14-.14.33.33 0 000-.21 2.06 2.06 0 00-1.7-.88 1.72 1.72 0 00-1.56.86 3.33 3.33 0 00-.29 1.67v.6h2.54v1h-2.54v6.34h-1.17v-6.34h-1.69v-1h1.69V340a3.5 3.5 0 01.43-2 3.22 3.22 0 015-.29zM393.75 338c.06.17-.07.27-.1.46-.08.43-.2 1.83-.2 1.83H396v1h-2.55c-.1 1-.15 2-.15 3a11.84 11.84 0 000 1.49 1.28 1.28 0 001.31 1.25 3.07 3.07 0 001.74-.71l.38 1a4.37 4.37 0 01-2.48.87 2.07 2.07 0 01-1.77-.83 3.54 3.54 0 01-.46-2.11c0-1.32.05-2.64.16-4h-1.78v-1h1.84l.15-2.08zM412.62 336.77l1 .52-5.34 11.5-1-.5zM430.36 339.85a3 3 0 01-1.69 2.56 3.35 3.35 0 012.05 2.93 3.07 3.07 0 01-3.27 2.91 3 3 0 01-3.21-2.84 3.44 3.44 0 012.11-3 2.86 2.86 0 01-1.61-2.48 2.73 2.73 0 012.86-2.61 2.61 2.61 0 012.76 2.53zm-4.9 5.4a2 2 0 002.05 1.93 1.92 1.92 0 002-1.86 2.82 2.82 0 00-2.26-2.4 2.71 2.71 0 00-1.79 2.33zm.42-5.39c0 1.39 1.87 2.12 1.87 2.12a2.53 2.53 0 001.45-2.05 1.63 1.63 0 00-1.69-1.59 1.57 1.57 0 00-1.63 1.52zM448.43 337.73l-.56 1.13a.14.14 0 01-.14-.14.33.33 0 000-.21 2.06 2.06 0 00-1.7-.88 1.72 1.72 0 00-1.56.86 3.33 3.33 0 00-.29 1.67v.6h2.54v1h-2.54v6.34H443v-6.34h-1.69v-1H443V340a3.5 3.5 0 01.43-2 3.22 3.22 0 015-.29zM453.25 338c.06.17-.07.27-.1.46-.08.43-.2 1.83-.2 1.83h2.54v1h-2.55c-.1 1-.15 2-.15 3a11.84 11.84 0 000 1.49 1.28 1.28 0 001.31 1.25 3.07 3.07 0 001.74-.71l.38 1a4.37 4.37 0 01-2.48.87 2.07 2.07 0 01-1.77-.83 3.54 3.54 0 01-.46-2.11c0-1.32.05-2.64.16-4h-1.77v-1h1.84l.15-2.08z"/><path fill="none" stroke="#a3a3a3" stroke-linecap="round" stroke-linejoin="round" stroke-dasharray="5 5" d="M164.78 297.26v45.65h134.34M598.32 297.26v45.65H465.17"/><path d="M312.24 318h-1v-7.53l-1.76.52-.23-.54 2.29-1.2h.67zM316.16 317.35l.68-.75c.15.09.11.24.23.34a1.9 1.9 0 001.05.31 1.82 1.82 0 001.72-1.2 5.55 5.55 0 00.36-2.16 2.19 2.19 0 01-1.8.94 2.53 2.53 0 01-2.4-2.75 2.68 2.68 0 012.5-2.89 2.53 2.53 0 012.37 1.89 7.44 7.44 0 01.3 2.45 7.16 7.16 0 01-.37 2.58 2.91 2.91 0 01-2.71 2 2.76 2.76 0 01-1.93-.76zm4-4.44c.16-1.76-.67-2.85-1.67-2.85-.79 0-1.52.71-1.52 2s.76 1.94 1.53 1.94a2 2 0 001.65-1.09zM333.1 311.59v5.6h1.5v.81h-4.15v-.81h1.63v-4.77h-1.54v-.83zm.24-2.06a.73.73 0 01-1.45 0 .73.73 0 011.45 0zM337 311.61h1v1.12a2.68 2.68 0 012.13-1.28 1.83 1.83 0 011.7 1.13 3.62 3.62 0 01.23 1.54V318h-1v-3.85a2.09 2.09 0 00-.35-1.42 1.12 1.12 0 00-.86-.41 2.17 2.17 0 00-1.54.9 1.59 1.59 0 00-.32 1.1V318h-1zM355.33 308.69l.84.43-4.4 9.47-.83-.41zM367.58 309.21a2.47 2.47 0 012.53 2.45 3.92 3.92 0 01-1.53 2.76 11.59 11.59 0 00-2.38 2.72h3.66a.2.2 0 00.15-.05.19.19 0 01.19-.07v1h-5.12v-.61a10.37 10.37 0 012.53-3.25 3.51 3.51 0 001.53-2.4 1.65 1.65 0 00-1.67-1.66 1.83 1.83 0 00-1.5.79c-.07.12 0 .21-.12.33l-.71-.57a2.84 2.84 0 012.44-1.44zM377 309.27v.89h-3.6l-.13 2.51a3.22 3.22 0 011.42-.34 2.63 2.63 0 012.64 2.91 2.69 2.69 0 01-2.76 2.92 3.11 3.11 0 01-2.59-1.34l.87-.66c.12.09.05.23.11.33a2.08 2.08 0 001.6.81 2.11 2.11 0 000-4.16 2.12 2.12 0 00-1.64.82l-.63-.25.31-4.44zM389.1 311.59v5.6h1.5v.81h-4.15v-.81h1.63v-4.77h-1.54v-.83zm.24-2.06a.73.73 0 01-1.45 0 .73.73 0 011.45 0zM393 311.61h1v1.12a2.68 2.68 0 012.13-1.28 1.83 1.83 0 011.7 1.13 3.62 3.62 0 01.23 1.54V318h-1v-3.85a2.09 2.09 0 00-.35-1.42 1.12 1.12 0 00-.86-.41 2.17 2.17 0 00-1.54.9 1.59 1.59 0 00-.32 1.1V318h-1zM411.33 308.69l.84.43-4.4 9.47-.83-.41zM424.5 313.35a2.35 2.35 0 011.5 2.25 2.54 2.54 0 01-2.69 2.55 3 3 0 01-2.29-1l.73-.89c.13.13.07.27.19.4a1.88 1.88 0 001.36.59 1.75 1.75 0 001.76-1.78c0-1-.87-1.66-2.05-1.66a2.28 2.28 0 00-.45 0v-.79a3.27 3.27 0 001.38-.22 1.53 1.53 0 00.93-1.38 1.42 1.42 0 00-1.51-1.36 2.12 2.12 0 00-1.51.67l-.54-.6a2.82 2.82 0 012.09-.93 2.29 2.29 0 012.4 2.21 2 2 0 01-1.3 1.94zM431.24 318h-1v-7.53l-1.76.52-.23-.54 2.29-1.2h.67zM445.1 311.59v5.6h1.5v.81h-4.15v-.81h1.63v-4.77h-1.54v-.83zm.24-2.06a.73.73 0 01-1.45 0 .73.73 0 011.45 0zM449 311.61h1v1.12a2.68 2.68 0 012.13-1.28 1.83 1.83 0 011.7 1.13 3.62 3.62 0 01.23 1.54V318h-1v-3.85a2.09 2.09 0 00-.35-1.42 1.12 1.12 0 00-.86-.41 2.17 2.17 0 00-1.54.9 1.59 1.59 0 00-.32 1.1V318h-1z"/><path fill="none" stroke="#a3a3a3" stroke-linecap="round" stroke-linejoin="round" stroke-dasharray="5 5" d="M292.23 63.97v249.87h8.73M469.87 63.15v250.69h-8.16"/></svg>