<svg xmlns="http://www.w3.org/2000/svg" width="600" height="315.79" viewBox="0 0 600 315.79"><path fill="#bf0a30" d="M0 0h600v315.79H0z"/><path fill="#fff" d="M0 24.29h600v24.29H0zM0 72.87h600v24.29H0zM0 121.46h600v24.29H0zM0 170.04h600v24.29H0zM0 218.62h600v24.29H0zM0 267.21h600v24.29H0z"/><path d="M240.16 170V0H0v170z" fill="#002868" fill-rule="evenodd"/><path d="M205.81 101.57h7.11l2.2-6.76 2.2 6.76h7.11l-5.75 4.18 2.19 6.76-5.75-4.18-5.75 4.18 2.2-6.76zM174.18 101.57h7.11l2.2-6.76 2.2 6.76h7.11l-5.75 4.18 2.19 6.76-5.75-4.18-5.75 4.18 2.2-6.76zM142.55 101.57h7.11l2.2-6.76 2.2 6.76h7.11l-5.75 4.18 2.19 6.76-5.75-4.18-5.75 4.18 2.2-6.76zM110.92 101.57H118l2.2-6.76 2.2 6.76h7.11l-5.75 4.18 2.19 6.76-5.75-4.18-5.75 4.18 2.2-6.76zM79.29 101.57h7.11l2.2-6.76 2.2 6.76h7.11l-5.75 4.18 2.19 6.76-5.75-4.18-5.75 4.18 2.2-6.76zM47.66 101.57h7.11L57 94.81l2.2 6.76h7.11l-5.75 4.18 2.19 6.76-5.75-4.18-5.75 4.18 2.2-6.76zM16 101.57h7.11l2.2-6.76 2.2 6.76h7.11l-5.75 4.18 2.19 6.76-5.75-4.18-5.75 4.18 2.2-6.76zM205.81 138.89h7.11l2.2-6.77 2.2 6.77h7.11l-5.75 4.18 2.19 6.76-5.75-4.18-5.75 4.18 2.2-6.76zM174.18 138.89h7.11l2.2-6.77 2.2 6.77h7.11l-5.75 4.18 2.19 6.76-5.75-4.18-5.75 4.18 2.2-6.76zM142.55 138.89h7.11l2.2-6.77 2.2 6.77h7.11l-5.75 4.18 2.19 6.76-5.75-4.18-5.75 4.18 2.2-6.76zM110.92 138.89H118l2.2-6.77 2.2 6.77h7.11l-5.75 4.18 2.19 6.76-5.75-4.18-5.75 4.18 2.2-6.76zM79.29 138.89h7.11l2.2-6.77 2.2 6.77h7.11l-5.75 4.18 2.19 6.76-5.75-4.18-5.75 4.18 2.2-6.76zM47.66 138.89h7.11l2.2-6.77 2.2 6.77h7.11l-5.75 4.18 2.19 6.76-5.72-4.18-5.75 4.18 2.2-6.76zM16 138.89h7.11l2.2-6.77 2.2 6.77h7.11l-5.75 4.18 2.19 6.76-5.75-4.18-5.75 4.18 2.2-6.76zM190 64.25h7.11l2.2-6.76 2.19 6.76h7.11l-5.75 4.18 2.2 6.76-5.75-4.19-5.76 4.18 2.2-6.76zM150.46 64.25h7.11l2.2-6.76 2.2 6.76h7.11l-5.76 4.18 2.2 6.76-5.75-4.19-5.77 4.19 2.19-6.76zM110.92 64.25H118l2.2-6.76 2.2 6.76h7.11l-5.75 4.18 2.24 6.76-5.77-4.19-5.75 4.18 2.2-6.76zM71.39 64.25h7.11l2.19-6.76 2.2 6.76H90l-5.75 4.18 2.2 6.76L80.69 71l-5.75 4.18 2.2-6.76zM31.85 64.25H39l2.2-6.76 2.19 6.76h7.11l-5.75 4.18 2.2 6.76L41.16 71l-5.76 4.19 2.2-6.76zM201.08 26.93h7.11l2.19-6.76 2.2 6.76h7.11l-5.75 4.18 2.2 6.76-5.76-4.18-5.75 4.18 2.2-6.76zM165 26.93h7.11l2.19-6.76 2.2 6.76h7.11l-5.75 4.18 2.2 6.76-5.76-4.18-5.75 4.18 2.2-6.76zM129 26.93h7.11l2.2-6.76 2.2 6.76h7.11l-5.75 4.18 2.13 6.76-5.75-4.18-5.75 4.18 2.2-6.76zM92.89 26.93H100l2.2-6.76 2.2 6.76h7.11l-5.75 4.18 2.24 6.76-5.75-4.18-5.75 4.18 2.19-6.76zM56.83 26.93h7.11l2.2-6.76 2.2 6.76h7.11l-5.76 4.18 2.2 6.76-5.75-4.18-5.75 4.18 2.19-6.76zM20.77 26.93h7.11l2.2-6.76 2.19 6.76h7.11l-5.75 4.18 2.2 6.76-5.75-4.18-5.76 4.18 2.2-6.76z" fill="#fff" fill-rule="evenodd"/></svg>