<svg xmlns="http://www.w3.org/2000/svg" width="600" height="315.79" viewBox="0 0 600 315.79"><title>flag-usa</title><rect width="600" height="24.29" fill="#b22234"/><rect y="24.29" width="600" height="24.29" fill="#fff"/><rect y="48.58" width="600" height="24.29" fill="#b22234"/><rect y="72.87" width="600" height="24.29" fill="#fff"/><rect y="97.17" width="600" height="24.29" fill="#b22234"/><rect y="121.46" width="600" height="24.29" fill="#fff"/><rect y="145.75" width="600" height="24.29" fill="#b22234"/><rect y="170.04" width="600" height="24.29" fill="#fff"/><rect y="194.33" width="600" height="24.29" fill="#b22234"/><rect y="218.62" width="600" height="24.29" fill="#fff"/><rect y="242.91" width="600" height="24.29" fill="#b22234"/><rect y="267.21" width="600" height="24.29" fill="#fff"/><rect y="291.5" width="600" height="24.29" fill="#b22234"/><rect width="240" height="170.04" fill="#3c3b6e"/><polygon points="20 7.29 17.82 14 10.76 14 16.47 18.15 14.29 24.86 20 20.71 25.71 24.86 23.53 18.15 29.24 14 22.18 14 20 7.29" fill="#fff"/><polygon points="20 41.3 17.82 48.01 10.76 48.01 16.47 52.16 14.29 58.87 20 54.72 25.71 58.87 23.53 52.16 29.24 48.01 22.18 48.01 20 41.3" fill="#fff"/><polygon points="20 75.3 17.82 82.02 10.76 82.02 16.47 86.17 14.29 92.88 20 88.73 25.71 92.88 23.53 86.17 29.24 82.02 22.18 82.02 20 75.3" fill="#fff"/><polygon points="20 109.31 17.82 116.03 10.76 116.03 16.47 120.17 14.29 126.89 20 122.74 25.71 126.89 23.53 120.17 29.24 116.03 22.18 116.03 20 109.31" fill="#fff"/><polygon points="22.18 150.03 20 143.32 17.82 150.03 10.76 150.03 16.47 154.18 14.29 160.9 20 156.75 25.71 160.9 23.53 154.18 29.24 150.03 22.18 150.03" fill="#fff"/><polygon points="40 24.29 37.82 31 30.76 31 36.47 35.16 34.29 41.87 40 37.72 45.71 41.87 43.53 35.16 49.24 31 42.18 31 40 24.29" fill="#fff"/><polygon points="40 58.3 37.82 65.01 30.76 65.01 36.47 69.16 34.29 75.88 40 71.73 45.71 75.88 43.53 69.16 49.24 65.01 42.18 65.01 40 58.3" fill="#fff"/><polygon points="40 92.31 37.82 99.02 30.76 99.02 36.47 103.17 34.29 109.89 40 105.74 45.71 109.89 43.53 103.17 49.24 99.02 42.18 99.02 40 92.31" fill="#fff"/><polygon points="42.18 133.03 40 126.32 37.82 133.03 30.76 133.03 36.47 137.18 34.29 143.89 40 139.74 45.71 143.89 43.53 137.18 49.24 133.03 42.18 133.03" fill="#fff"/><polygon points="60 7.29 57.82 14 50.76 14 56.47 18.15 54.29 24.86 60 20.71 65.71 24.86 63.53 18.15 69.24 14 62.18 14 60 7.29" fill="#fff"/><polygon points="60 41.3 57.82 48.01 50.76 48.01 56.47 52.16 54.29 58.87 60 54.72 65.71 58.87 63.53 52.16 69.24 48.01 62.18 48.01 60 41.3" fill="#fff"/><polygon points="60 75.3 57.82 82.02 50.76 82.02 56.47 86.17 54.29 92.88 60 88.73 65.71 92.88 63.53 86.17 69.24 82.02 62.18 82.02 60 75.3" fill="#fff"/><polygon points="60 109.31 57.82 116.03 50.76 116.03 56.47 120.17 54.29 126.89 60 122.74 65.71 126.89 63.53 120.17 69.24 116.03 62.18 116.03 60 109.31" fill="#fff"/><polygon points="62.18 150.03 60 143.32 57.82 150.03 50.76 150.03 56.47 154.18 54.29 160.9 60 156.75 65.71 160.9 63.53 154.18 69.24 150.03 62.18 150.03" fill="#fff"/><polygon points="80 24.29 77.82 31 70.76 31 76.47 35.16 74.29 41.87 80 37.72 85.71 41.87 83.53 35.16 89.24 31 82.18 31 80 24.29" fill="#fff"/><polygon points="80 58.3 77.82 65.01 70.76 65.01 76.47 69.16 74.29 75.88 80 71.73 85.71 75.88 83.53 69.16 89.24 65.01 82.18 65.01 80 58.3" fill="#fff"/><polygon points="80 92.31 77.82 99.02 70.76 99.02 76.47 103.17 74.29 109.89 80 105.74 85.71 109.89 83.53 103.17 89.24 99.02 82.18 99.02 80 92.31" fill="#fff"/><polygon points="82.18 133.03 80 126.32 77.82 133.03 70.76 133.03 76.47 137.18 74.29 143.89 80 139.74 85.71 143.89 83.53 137.18 89.24 133.03 82.18 133.03" fill="#fff"/><polygon points="100 7.29 97.82 14 90.76 14 96.47 18.15 94.29 24.86 100 20.71 105.71 24.86 103.53 18.15 109.24 14 102.18 14 100 7.29" fill="#fff"/><polygon points="100 41.3 97.82 48.01 90.76 48.01 96.47 52.16 94.29 58.87 100 54.72 105.71 58.87 103.53 52.16 109.24 48.01 102.18 48.01 100 41.3" fill="#fff"/><polygon points="100 75.3 97.82 82.02 90.76 82.02 96.47 86.17 94.29 92.88 100 88.73 105.71 92.88 103.53 86.17 109.24 82.02 102.18 82.02 100 75.3" fill="#fff"/><polygon points="100 109.31 97.82 116.03 90.76 116.03 96.47 120.17 94.29 126.89 100 122.74 105.71 126.89 103.53 120.17 109.24 116.03 102.18 116.03 100 109.31" fill="#fff"/><polygon points="102.18 150.03 100 143.32 97.82 150.03 90.76 150.03 96.47 154.18 94.29 160.9 100 156.75 105.71 160.9 103.53 154.18 109.24 150.03 102.18 150.03" fill="#fff"/><polygon points="120 24.29 117.82 31 110.76 31 116.47 35.16 114.29 41.87 120 37.72 125.71 41.87 123.53 35.16 129.24 31 122.18 31 120 24.29" fill="#fff"/><polygon points="120 58.3 117.82 65.01 110.76 65.01 116.47 69.16 114.29 75.88 120 71.73 125.71 75.88 123.53 69.16 129.24 65.01 122.18 65.01 120 58.3" fill="#fff"/><polygon points="120 92.31 117.82 99.02 110.76 99.02 116.47 103.17 114.29 109.89 120 105.74 125.71 109.89 123.53 103.17 129.24 99.02 122.18 99.02 120 92.31" fill="#fff"/><polygon points="122.18 133.03 120 126.32 117.82 133.03 110.76 133.03 116.47 137.18 114.29 143.89 120 139.74 125.71 143.89 123.53 137.18 129.24 133.03 122.18 133.03" fill="#fff"/><polygon points="140 7.29 137.82 14 130.76 14 136.47 18.15 134.29 24.86 140 20.71 145.71 24.86 143.53 18.15 149.24 14 142.18 14 140 7.29" fill="#fff"/><polygon points="140 41.3 137.82 48.01 130.76 48.01 136.47 52.16 134.29 58.87 140 54.72 145.71 58.87 143.53 52.16 149.24 48.01 142.18 48.01 140 41.3" fill="#fff"/><polygon points="140 75.3 137.82 82.02 130.76 82.02 136.47 86.17 134.29 92.88 140 88.73 145.71 92.88 143.53 86.17 149.24 82.02 142.18 82.02 140 75.3" fill="#fff"/><polygon points="140 109.31 137.82 116.03 130.76 116.03 136.47 120.17 134.29 126.89 140 122.74 145.71 126.89 143.53 120.17 149.24 116.03 142.18 116.03 140 109.31" fill="#fff"/><polygon points="142.18 150.03 140 143.32 137.82 150.03 130.76 150.03 136.47 154.18 134.29 160.9 140 156.75 145.71 160.9 143.53 154.18 149.24 150.03 142.18 150.03" fill="#fff"/><polygon points="160 24.29 157.82 31 150.76 31 156.47 35.16 154.29 41.87 160 37.72 165.71 41.87 163.53 35.16 169.24 31 162.18 31 160 24.29" fill="#fff"/><polygon points="160 58.3 157.82 65.01 150.76 65.01 156.47 69.16 154.29 75.88 160 71.73 165.71 75.88 163.53 69.16 169.24 65.01 162.18 65.01 160 58.3" fill="#fff"/><polygon points="160 92.31 157.82 99.02 150.76 99.02 156.47 103.17 154.29 109.89 160 105.74 165.71 109.89 163.53 103.17 169.24 99.02 162.18 99.02 160 92.31" fill="#fff"/><polygon points="162.18 133.03 160 126.32 157.82 133.03 150.76 133.03 156.47 137.18 154.29 143.89 160 139.74 165.71 143.89 163.53 137.18 169.24 133.03 162.18 133.03" fill="#fff"/><polygon points="180 7.29 177.82 14 170.76 14 176.47 18.15 174.29 24.86 180 20.71 185.71 24.86 183.53 18.15 189.24 14 182.18 14 180 7.29" fill="#fff"/><polygon points="180 41.3 177.82 48.01 170.76 48.01 176.47 52.16 174.29 58.87 180 54.72 185.71 58.87 183.53 52.16 189.24 48.01 182.18 48.01 180 41.3" fill="#fff"/><polygon points="180 75.3 177.82 82.02 170.76 82.02 176.47 86.17 174.29 92.88 180 88.73 185.71 92.88 183.53 86.17 189.24 82.02 182.18 82.02 180 75.3" fill="#fff"/><polygon points="180 109.31 177.82 116.03 170.76 116.03 176.47 120.17 174.29 126.89 180 122.74 185.71 126.89 183.53 120.17 189.24 116.03 182.18 116.03 180 109.31" fill="#fff"/><polygon points="182.18 150.03 180 143.32 177.82 150.03 170.76 150.03 176.47 154.18 174.29 160.9 180 156.75 185.71 160.9 183.53 154.18 189.24 150.03 182.18 150.03" fill="#fff"/><polygon points="200 24.29 197.82 31 190.76 31 196.47 35.16 194.29 41.87 200 37.72 205.71 41.87 203.53 35.16 209.24 31 202.18 31 200 24.29" fill="#fff"/><polygon points="200 58.3 197.82 65.01 190.76 65.01 196.47 69.16 194.29 75.88 200 71.73 205.71 75.88 203.53 69.16 209.24 65.01 202.18 65.01 200 58.3" fill="#fff"/><polygon points="200 92.31 197.82 99.02 190.76 99.02 196.47 103.17 194.29 109.89 200 105.74 205.71 109.89 203.53 103.17 209.24 99.02 202.18 99.02 200 92.31" fill="#fff"/><polygon points="202.18 133.03 200 126.32 197.82 133.03 190.76 133.03 196.47 137.18 194.29 143.89 200 139.74 205.71 143.89 203.53 137.18 209.24 133.03 202.18 133.03" fill="#fff"/><polygon points="216.47 18.15 214.29 24.86 220 20.71 225.71 24.86 223.53 18.15 229.24 14 222.18 14 220 7.29 217.82 14 210.76 14 216.47 18.15" fill="#fff"/><polygon points="220 41.3 217.82 48.01 210.76 48.01 216.47 52.16 214.29 58.87 220 54.72 225.71 58.87 223.53 52.16 229.24 48.01 222.18 48.01 220 41.3" fill="#fff"/><polygon points="220 75.3 217.82 82.02 210.76 82.02 216.47 86.17 214.29 92.88 220 88.73 225.71 92.88 223.53 86.17 229.24 82.02 222.18 82.02 220 75.3" fill="#fff"/><polygon points="220 109.31 217.82 116.03 210.76 116.03 216.47 120.17 214.29 126.89 220 122.74 225.71 126.89 223.53 120.17 229.24 116.03 222.18 116.03 220 109.31" fill="#fff"/><polygon points="222.18 150.03 220 143.32 217.82 150.03 210.76 150.03 216.47 154.18 214.29 160.9 220 156.75 225.71 160.9 223.53 154.18 229.24 150.03 222.18 150.03" fill="#fff"/></svg>