<svg xmlns="http://www.w3.org/2000/svg" width="500" height="300" viewBox="0 0 500 300"><path fill="#fff" d="M0 0h500v300H0z"/><path d="M233.08 215.91c32.78-18.06 53-65.38 47.17-127.33h-94.34c-5.88 62 14.38 109.27 47.17 127.33" fill="#1f2c5c"/><path d="M203.76 93.78l2.49 7.47 7.83.07-6.3 4.69 2.36 7.52-6.38-4.53-6.38 4.58 2.35-7.52-6.3-4.69 7.84-.07 2.49-7.47" fill="#fff"/><path d="M296.23 171.75l.15-.36c.66-1.59.35-.83-.15.36" fill="#31319c"/><path d="M299.06 116.81a3.22 3.22 0 00-1.34.49l-2.08 3.21c-.09-2 .83-4.38 2.08-7 .3-.6.61-1.22.93-1.83 2.68-5.2-.93-6.65-.93-6.65v.19l-9.64 1.36c-6.8 7.17-3.95 20.1-1.24 36.74 2.17 13.29 2.74 15.35.78 24v.06l-2.69-.67a6.22 6.22 0 00-4.23 5c-2.78 14-2.56 20.34-14.43 32.27C253.71 216.6 244 215.8 240.5 215.8s-2 4.69-2 4.69a45.11 45.11 0 01-5.58.25 42.23 42.23 0 01-5.31-.25s1.49-4.69-2-4.69-16.5-1-25.57-12-12.51-17.91-13.18-21.27a12.73 12.73 0 002.46-.62c1-.41 2.47-3 1-7.88s-2.89-7.06-5.47-6.44l-2 .52v.06c-2.93-4.72-4.25-12.3-2.29-24.76 2.63-16.66 5.57-29.58-1.23-36.74l-9.86-1.39v-.16s-3.4.94-1.39 5 1.85 4 .46 7.32-.49 5.43 2.14 7.29a4 4 0 011.11-5.74l2 3.12.14-.24a148.08 148.08 0 01-2.76 19.39c-3.56 18.67 1.34 31 6.29 33.31l2.57-.73a11.65 11.65 0 011.45 5.49l.1.07-3 1s-1.24 2.91-.41 5.19a60.51 60.51 0 0014.43 24.29c10.4 10.27 18.22 14.69 31.2 15.12v2.85c0 2.23 4.53 2.48 9 2.49h.31c4.63 0 9.28-.23 9.28-2.49V225c13-.42 21.72-4.67 31.75-15.32 11.44-12.13 14.43-27.08 15.67-35.16v-.1a10.77 10.77 0 002.45.71c1.24.2 2.12.65 3.69-2.73.15-.38.33-.82.54-1.31 4.12-10-.21-29.89-.21-29.89a173.35 173.35 0 01-2.63-17.4c.38.18 3.05 1.47 4.39.69s1.86-2 .61-3.83-.41-3.22.42-3.84" fill="#1f2c5c"/><path d="M233.08 230.33c-4.54 0-9.28-.2-9.28-2.48v-9.55c0 2.28 4.74 2.49 9.28 2.49m-5.41-.29s1.49-4.69-2-4.69-16.5-1-25.57-12.05-12.58-18-13.2-21.37-1-4.57.62-5l-8.87 2.91s-1.23 2.91-.41 5.19a60.64 60.64 0 0014.44 24.28c10.3 10.37 18.17 14.78 31.16 15.2m0-6.52c0-1 .68-1.55 1.73-.71 1.44 1.13 2.39.53 2.26-.53m-40.9-34.73a12.75 12.75 0 002.47-.63c1-.41 2.47-3 1-7.88s-2.88-7.06-5.46-6.44l-2 .52m-2.88 5.71a11.68 11.68 0 011.44 5.49m-4-4.76l8.87-2.49c-5.11-4.05-8.36-12-5.73-28.64s5.57-29.58-1.23-36.74l-9.9-1.4s2.94 1.4 3.86 7 1.39 10.28-2.16 29 1.34 31 6.29 33.31zm-8-69.43s-3.41.94-1.4 5 1.86 4 .47 7.32-.49 5.43 2.13 7.29a4 4 0 011.12-5.74l2 3.12m13.42 55.37s2.46-.68 1.35 1.75a6.62 6.62 0 00-.58 1.17c-.43 1 .58 2 1.43 1.4m-3.18-9.74c1.31-.4 2.15-1.29.39-1.91s-1.82-2.41-.89-2.65m47.32 62.88c4.54 0 9.28-.21 9.28-2.49v-9.53c0 2.29-4.74 2.49-9.28 2.49m9.25 4.21c13-.42 21.75-4.67 31.79-15.32 11.44-12.14 14.43-27.08 15.67-35.17.72-4.36 1.95-6 3.4-5.72l-8.25-2.06a6.22 6.22 0 00-4.22 5c-2.79 14-2.57 20.35-14.44 32.27-12.57 12.64-22.27 11.84-25.77 11.84s-2 4.69-2 4.69m3.87-2c0-1-.68-1.55-1.73-.72-1.44 1.13-2.39.53-2.26-.53m51.42-42.83a10.54 10.54 0 002.47.73c1.34.21 2.27.72 4.13-3.74s-4 9.65.1-.31-.21-29.88-.21-29.88c-3.56-18.68-3.09-23.36-2.16-29s3.86-7 3.86-7l-9.9 1.4c-6.8 7.16-3.95 20.09-1.24 36.73 2.17 13.29 2.74 15.36.78 24m10.1-62.26s3.61 1.45.93 6.64-4.74 9.86-.93 12.45m-4.12-.41s3 1.56 4.43.73 1.86-2 .62-3.84-.41-3.22.41-3.84c0 0-2.67.21-3.4 3.74m-2.88 48.24c1.75.42 1.75 2.39.51 3.43s-1.85 2.6-.41 3" fill="none" stroke="#fff" stroke-width=".92"/><path d="M214.24 124.62a.64.64 0 01.15.53 5.35 5.35 0 01-1.36-.35c-.18 0-.37-.19-.52 0s-.07.43-.34.31a.9.9 0 01.12-.74 1.52 1.52 0 011.3 0 .63.63 0 01.65.28M213.83 125.46a.66.66 0 01.59.59l-.09.16c-.75-.51-1.64 0-2.39 0a.5.5 0 010-.5 1.74 1.74 0 011.65-.24h.24M214.45 126.89v.37A2.13 2.13 0 00213 127l-1.05.36c-.19-.09-.12-.34-.12-.49.34-.37.84-.31 1.24-.46s1.08 0 1.36.47M213.45 128.2a1.25 1.25 0 01-.53.46c-.19 0-.27-.16-.34-.31.19-.21.53-.18.81-.28l.06.13M253.19 131.35c-.53 2.34-1.35 4.66-2 7-.22.37-.22.87-.47 1.21-.6 2.27-1.32 4.44-2 6.65-.52-.87.22-1.59.35-2.4.22-1 .6-1.89.79-2.94.53-1.12.6-2.27 1.19-3.45.44-1.62.88-3.2 1.38-4.72.22-.47.25-.91.44-1.41.12 0 .31-.05.37.07M252.17 132.28a.83.83 0 01-.31-.9l.35-.78a1.88 1.88 0 010 1.68M253.18 134.3c-.16.1-.25.29-.43.34.37-1.08.34-2.58 1.34-3.34a27 27 0 01-.91 3M252 132.87c-.31.62-.41 1.3-.69 1.92-.46-.77 0-1.61.32-2.39.13.18.62.13.37.47M251 136.1c-.22 0-.19-.24-.31-.34a1 1 0 01.22-.93c.62.3.15.83.09 1.27M253 135c-.13.54-.1 1.25-.75 1.4a10.36 10.36 0 01.41-1.59c.12 0 .18.25.34.19M231 96.24a12 12 0 01.06 1.49 12.41 12.41 0 00-1.69-2.16c-.13.06-.09.24 0 .32a8.23 8.23 0 01.92 1.4 1.93 1.93 0 01-1.29-.79 1.89 1.89 0 01.2-1.14 1.59 1.59 0 011.78.88M232.66 100.26c0 .11.06.15.1.21s.24-.34.31-.55a2.64 2.64 0 010-.69 2.4 2.4 0 01-.07 2.06c-.4-.54-.58-1.22-.95-1.76s-.68-1.15-.92-1.71h.06a1.63 1.63 0 00.26-1.37 4.28 4.28 0 011.18 3.78M230.9 100.81a6 6 0 01.73 2.08c0 .07-.06.13-.12.1a30.76 30.76 0 00-3.84-5.72c-.19 0-.19.23-.12.32a21.23 21.23 0 013.52 6c-.22.24-.49-.1-.74-.19-.12-.66-1-.69-1.13-1.32.27-.21.8 0 .92-.3-.18-.22-.49-.12-.74-.22-.92.12-1-.91-1.38-1.47a1.48 1.48 0 00-.09-.28c.34 0 .83.35 1.14 0-.71-.34-1.79-.72-1.75-1.69a1 1 0 01.16-1c1.7.26 2.65 2.35 3.44 3.72M230.17 97.66c.59-.24.62.65.92.94v.12l-1.17-.35c-.22-.31-.58-.46-.58-.8.28 0 .55.09.83.09M232.16 100.72c-.36-.44-1.2-.19-1.26-.85a1.36 1.36 0 011.26.85M232.66 102c0 .15-.22.15-.35.12-.33-.34-.73-.66-.76-1.16a1.62 1.62 0 011.11 1M230 109.61a.78.78 0 01.06.5 3.21 3.21 0 01-.11-1.43c.05.4 0 .59.05.93" fill="#e6a300"/><path d="M216 110.41a2.61 2.61 0 00.11 1.87c0 1.11.24 2.09.2 3.17h-.12c-.09-1-.11-2-.29-3.11l-.1-.06-.22.21c-.29 2.24-.67 4.92-.83 7l.06.06a21.55 21.55 0 00-.23 3.18c.24.12.52.31.52.62.06.65-.19 1.24-.1 1.78.46.65 1.1 1.34.88 2.11-.37.22-.4 1-1 .78-.37-.44.32-.84-.11-1.34-.12-.37.31-.74 0-1.12a1 1 0 000-1 1.41 1.41 0 00-1.11-.72l-.19-.19c.17-1.6.42-3.08.65-4.7.41-2.51.67-4.79 1.27-7.31.06-.3-.31-.5-.12-.74s.49-.28.5-.65h.09v-.09c.22-.07.09.12.19.22M238.61 111.71c-.1 1.14.67 2.09.91 3.14.31.38.18.9.27 1.34-.24-1.28-1.19-2.34-1.18-3.68 0-.06-.1 0-.16-.06s-.06.31-.13.47c-.18-.41 0-.81 0-1.25l.07-1.09c.27.38.09.75.21 1.13M230 115.52a16.07 16.07 0 01-.32 1.84 7 7 0 01.51-3.77 4.84 4.84 0 00.16-.81 7.64 7.64 0 00-.21-1.77v-.28a6.4 6.4 0 01-.18 4.79M238.25 113.11l.1.15-.1-.15M238.38 113.35c.1.6.06 1.25.49 1.66a5.27 5.27 0 01.39 1.31c-.15-.75-.73-1.13-.76-1.87a3.29 3.29 0 01-.24-1.13c0 .07.09 0 .12 0M237.5 115.9v.15h-.15c-.1-.16.15-.35.18-.1M237 116.12c.06.09 0 .37-.16.3a.13.13 0 01-.18-.12c0-.15.19-.22.34-.18M236.48 116.62c0 .11-.13.11-.19.21s-.15-.06-.18-.16a.19.19 0 11.37 0M239.41 116.82l-.09-.31.09.21v.1M237.68 116.62c.07.09 0 .16-.09.22a.17.17 0 01-.21-.16.16.16 0 01.3-.06M237.19 116.92c-.1.1 0 .23-.13.28s-.18-.09-.24-.18a.26.26 0 01.37-.1M235.39 117.38c-.18.1-.34-.16-.56-.09 0-.41.47 0 .56.09M236.51 117.36c.09.06 0 .16-.07.18s-.12 0-.15-.13.25-.27.22 0M236 117.54v.29a.28.28 0 01-.28-.11c0-.18.16-.37.31-.18M230.91 118l-.31.19c-.07 0 0-.12 0-.19a.26.26 0 01.35 0M225.12 137.15c.13-.18.07-.5.19-.71l-.09.71h-.1M225 137.65c-.06-.13 0-.28.1-.43a.67.67 0 01-.1.43M243.48 138.74c0 .3-.43.3-.65.43-2.32.3-4.18 1.66-6.62 1.55-.13.13 0 .25.12.29.9.18 1.61-.28 2.41-.21.16-.16.28 0 .47-.1a14.12 14.12 0 014.27-1 .59.59 0 01.21.4 13.94 13.94 0 01-1.42.22c-.84.2-1.49.73-2.3 1a17.13 17.13 0 01-4.36.54 1.21 1.21 0 00-.36-.1c.18-.12.52.13.64-.18-.24-.26-.74-.13-1.11-.1-1.45.58-2.71-.33-4.07-.55a6.16 6.16 0 01-2.51-.32c-.06-.06-.12-.22 0-.28a5.15 5.15 0 013.4 0 6.09 6.09 0 003.47.47c.93-.23 2-.14 2.9-.35.07-.09-.06-.12-.09-.19a12.75 12.75 0 00-3.09.14 6.73 6.73 0 01-3-.51h-.13l-.61-.22a5.69 5.69 0 00-2.54.08h-.34a1.26 1.26 0 000-.81c.4-.27 1 .08 1.45 0s.74.29 1.14.19c2 .58 3.68.21 5.75.38-.49.09-1.08.11-1.61.24.06.06.06.15.15.15.43-.09 1 .16 1.45.07s1-.15 1.52-.18c.25-.15.62 0 .9-.12v.1c1.82.5 2.88-1.08 4.52-1.13l.15.19M244.51 144.22c-.53-.16-.34-.72-.52-1.22.37.29.4.85.52 1.22M244.53 145.81c-.16-.07-.06-.19-.06-.34.12 0 0 .22.06.34M245.23 147.3a2.6 2.6 0 01-.15-.87c.28.23.09.66.15.87M230.92 147.63a1.3 1.3 0 01-.06-.8.85.85 0 01.06.8M239.16 149.7a4.25 4.25 0 01-.26 2.12h-.18a13 13 0 01.26-2.24c.09 0 .18.06.18.12M246.66 152.57a17.63 17.63 0 01-1 3.54c-1 3.11-2 6.19-2.92 9.29-.65-.06 0-.56-.12-.87a11.56 11.56 0 00.51-1.71 2.1 2.1 0 00.18-.37c.22-1 .6-1.89.82-2.83.41-1.05.82-2.48 1.13-3.63.15-.06 0-.16.09-.25.26-1 .66-1.89.95-2.82.09-.16.18-.31.37-.34M246.52 155.06h.03v.15h-.03v-.15M246.55 155.31c0 .77.18 1.74.11 2.43.07-.35-.27-.69-.15-1.06a3.5 3.5 0 010-1.37h.06M245.42 159.15c0-.18-.12-.45 0-.61.06.19.16.46 0 .61M245.94 158.98h.04l-.01.28h-.03v-.28M246.66 159.6c0-.15 0-.34.06-.43l-.06.43M245.91 159.85l.03-.22v.18l-.03.04M246.71 161.19a.73.73 0 01-.09-.71c0-.16-.09-.47.06-.63.28.44-.09.91 0 1.34M225.49 162.14c-.12 0-.15-.12-.12-.16s.1.1.12.16M232.25 164.6c.16.34-.06.65-.25.9-.21.09-.18-.18-.21-.25 0-.24.15-.65.46-.65M242.88 165.93l.1.12c-.1.26-.65.16-.44.53a2.54 2.54 0 01.65.66 8.22 8.22 0 01-1.49 1.95l-.28.22a9.13 9.13 0 01-.37-1.5 4.13 4.13 0 00-.18-1.24c.31-.18.77-.12 1.15-.28a.51.51 0 000-.37c-.06-.09-.27-.16-.21-.34.4-.06.67.16 1 .25M238.54 188.53a5.8 5.8 0 002.31 1.16 1.71 1.71 0 00-.68 1c-.1.1-.22 0-.31.07a7.25 7.25 0 01-2.16-2.57c.22-.52.62.17.84.35" fill="#e6a300"/><path d="M243 190a3.56 3.56 0 011.5 3.39 2.53 2.53 0 01-.13 1.75c-.88.65-1.67-.23-2.51-.36a3.44 3.44 0 01-1.81-2.25c-.24-.34-.3-.81-.58-1.11-.46-.76-2.23-.7-1.48-2a12.86 12.86 0 002.25 1.9c.5 0 .34-.74.72-.92a4.74 4.74 0 001.1 1.8c.34.47.74.88 1.39.7a.74.74 0 00.34-.76c-.15-.64-.8-1-1.1-1.55.09 0 .15 0 .18-.12.06-.34-.18-.56-.39-.84a1.25 1.25 0 00-.71-.32c.33-.24.34-.71.59-1.08.12.62.76 1 .64 1.74M231.11 189.52c0 .16.16 0 .22.13a1.15 1.15 0 01-.71.4 2.75 2.75 0 01-2.45.26c-.21-.24-.15-.55-.21-.83.21.25.71 0 1 0 .12-.22.37 0 .53-.15.55 0 1.08.13 1.6.19M227.74 190.19l.24.5a1.59 1.59 0 00-1.24.95c-.37-.74.41-1.45.72-2.14.25.07.12.47.28.69M232.56 190c.09.63-.62.78-.93 1.11a4.11 4.11 0 01-2.42.77c-.33-.25-.18-.59-.48-.81V191a7.14 7.14 0 002.29-.49 9.27 9.27 0 001-.62c.18 0 .43-.06.52.19" fill="#e6a300"/><path d="M241.5 189.88c0 1.06 1 1.6 1.35 2.5-.37 0-.34-.44-.62-.62a2.27 2.27 0 01-.82-1.88h.09M242.45 190.51c-.19.13-.09.22-.12.37-.31-.24-.28-.65-.37-1 .28.08.4.42.49.63M228.13 191.16l-.03-.37.07.15-.04.22M227.07 193.49c-.31 0-.34.43-.65.42.31-.34.69-.8 1-1.17a2.94 2.94 0 00.72-1.4 3.67 3.67 0 01-1 2.15M227.45 191.52l.04.01v.15h-.04v-.16" fill="#e6a300"/><path d="M229.12 192.38a9.12 9.12 0 002.78-.64c-.06.4-1 .2-.58.71l.61-.15c-.68.61-1.64.86-2.35 1.48-.78.77-1.41 2.11-2.61 2.16l-.84.28v.18c.34.19.65-.15 1-.12a2.18 2.18 0 01-.86.5c-.44.21-1.06.55-1.46.24a10.07 10.07 0 01-.42-2.34c.16-1.46 1.83-1.61 2.3-2.88a.22.22 0 01.19.19v.22c-.25.65-2 1-1 1.92a.73.73 0 00.77.19 4.31 4.31 0 001.9-2.7 1.15 1.15 0 00.58.75" fill="#e6a300"/><path d="M226.24 193.38c.13-.11.28-.34.44-.39 0 .24-.31.24-.44.39M223.57 131a1.46 1.46 0 00-1.24.33c.16.38.62.66.9 1 0 .16.24.38 0 .44a12.44 12.44 0 00-2-1.59c-1.08-.76-2.62-.46-3.54-1.58a27.08 27.08 0 01-.33-3.31c-.2-1.54-.35-3.17-.5-4.72 0-1.74-.32-3.74-.4-5.51 0-.16-.09-.41-.24-.47 0 .16-.07.4.12.44 0 0-.06.09-.13.09a3.57 3.57 0 01.13.55c-.07.73.11 1.47.11 2.16.21 1 .08 2 .2 2.83.18 1.3.21 2.67.38 4.11 0 .65.12 1.18.15 1.68s.21 1.18-.1 1.58c-.55-.25-.71-.84-1-1.28h-.16c-.09.56-.4 1 0 1.55.12.32.36.54.46.85-.07.06-.13 0-.19 0-.43-.32-.61-1.06-1.17-1a.8.8 0 00-.31.52.51.51 0 01-.53 0c-.3-.34-.21-.77-.18-1.21.1-.19.34-.1.44-.21s0-.26-.06-.35c-.37-.28-.59-.71-1.2-.56-.44.27-1.24.18-1.3.76a2.62 2.62 0 001.07 1.41c-.14 1.74-.23 3.26-.21 5a165.24 165.24 0 00.1 18c.44 4 .79 8.21 1.36 12.11.87 5.41 2 10.62 3.29 15.72a134.9 134.9 0 004.69 14.07c-.5.77.49.4.56 1.08.09 0 .18.07.24 0 0-.75-.45-1.35-.3-2.12-.25-3.9-.58-7.54-.9-11.46-.14-1.46-.29-3.17-.34-4.67-.18-2.15-.33-4.17-.56-6.28-.26-4.89-.85-9.77-1.1-14.61-.18-1.61-.27-3-.35-4.66-.21-.78-.09-1.56-.27-2.33-.32-3.4-.46-6.48-.78-9.91l-.09-.09c0-1.65-.24-3.15-.26-4.76l.06-.1a6 6 0 003.14 2.2c.77.38 1.14 1.28 2.22 1.09.59-.18.69-.83 1.06-1.26.06-.13 0-.37.22-.37.12-.16.28-.34.25-.53-.41.37-.53.93-.93 1.36 0-.06-.13-.1-.16-.22a7.81 7.81 0 011.25-2.6 3.43 3.43 0 00-1.54-3.21zm-5.34 10.8c.15 1.87.14 3.36.44 5a23.52 23.52 0 00.2 3.11 2.32 2.32 0 01.07.74c.08 1.75.38 3.58.43 5.24.12.34 0 .71.12 1.11a1.09 1.09 0 00.09.69c-.06.56.09 1 0 1.46.15.22 0 .66.09.93a12 12 0 01.17 2.4c.24 1.31.14 2.65.35 4.05-.06 1.06.3 2.15.26 3.08.19.12-.06.31.06.47a7.13 7.13 0 01.12 1.18c0 1.09.24 1.9.2 3.05.21 1.21.11 2.52.35 3.65a30.9 30.9 0 00.2 3.35c.21 2.53.35 4.76.56 7.17a6.68 6.68 0 01.15 1.24c.08.59.14 1.34.2 2 0 .37.12.72 0 1.06a8.4 8.4 0 01-.67-1.78c-.85-2.3-1.46-4.71-2.19-7.07a27.27 27.27 0 01-.69-2.87 3.5 3.5 0 01-.31-1.06 37 37 0 01-1.26-6.32c-.28-.5 0-.93-.34-1.46s.1-.84-.21-1.21a68.64 68.64 0 01-1-9.81c0-.44.44-.75.25-1.21-.26-2.71-.46-5.68-.64-8.5-.27-1.16.08-2.46-.6-3.49a13.32 13.32 0 01-.41-2.77 107.81 107.81 0 01-.21-15.16c.31-.06.5.09.74.13.89 1.18 1.85 2.4 2.77 3.49.14 1.78.44 3.55.43 5.36.27.9 0 1.74.26 2.68zM238 117.12l.08-.07zM237.7 112.87zM237.19 104.19c-.21-.24-.55-.47-.65-.74 0-.1.1-.07.16-.1.64.25.89 1 1.32 1.5a13.37 13.37 0 01.41 5c0 .22-.1.56 0 .72h.06a3.3 3.3 0 00-.06-.68 9.31 9.31 0 00.14-2.77 5 5 0 00-2.21-4.58c-.15-.13-.37-.13-.49-.22-.37.06-.62-.28-1-.16-.4-.16-.87.34-1-.16a1.89 1.89 0 00-.18-1.28c0 .41-.37.71-.56 1 0 .19.27.29.4.38-.1.38-.47.31-.78.46a7.47 7.47 0 00-2.78 6.08l.26-1.61.18-.18c.25.31-.09.71-.09 1a9.1 9.1 0 00.56 4 3.62 3.62 0 01.05 3.05c-.22 1-.84 1.95-.66 2.92l.21-.62c.16-.18.16-.52.44-.56v-.19c.28-.45.5.26.77.26v-.06c0-.06-.06-.29-.25-.22a.54.54 0 01-.25-.56c.07-.13.25-.21.35-.15s.34.25.27.43l.4.06c-.4 0-.33-.46-.64-.62a.39.39 0 010-.62.64.64 0 01.25 0 1 1 0 00.55.57c-.09.4.44.22.5.4 0 .44.74.06.73.56.1-.18.31-.06.46-.08a.56.56 0 01.19.27l.16-.12a.36.36 0 01.43 0 .3.3 0 00.4-.13c.31-.12.4.19.52.35.1-.26-.05-.69.26-.9-.12-.47 0-1.22-.55-1.5a2.64 2.64 0 01-2-.48c-.37-.06-.83-.37-1.17-.06a1.46 1.46 0 01-.69.8c-.24-.43.07-1.24-.24-1.65a22.46 22.46 0 01-.72-3.89c-.05-1.75-.1-4 1.48-5.22.21.18-.09.34 0 .52.43 0 .68-.39 1-.64.09.87.8-.06 1.23.29s.37-.44.87-.31c.34.37.86.28 1.26.47a2.56 2.56 0 011.42 2c.33 2.06-.21 4.23-.16 6.17 0 .15-.17.33 0 .45.23-1 .05-1.74.33-2.69-.08-1.97.28-4.21-.89-5.96z" fill="#e6a300"/><path d="M248.08 132.78c0 .22-.12.12-.21.18a2.28 2.28 0 01-.92-2c.06 0 .09-.15.21-.15.34.43.18 1.21.71 1.58-.7-2.37-.84-4.79-1.33-7.25-.88-2.19-1.37-4.59-2.56-6.68-.24-.89-1.17-1.06-2-1.22-.13-.12-.37-.06-.47-.19h-.37c-.09-.24-.37 0-.52-.19-.77-.44-.53.56-1 .81-.16-.1 0-.43-.21-.43v.11a2.64 2.64 0 01-.41 1.84l-.1-.07a2.72 2.72 0 00-.05-2.2 5.59 5.59 0 01-1.22-4c0 1.27-.26 2.55.6 3.7.07.13-.06.32-.17.43.16-.07.36-.2.48 0-.16.4.3.22.4.4.27.32 0 .53-.1.74h.06c.06.35 0 .5-.22.69l.19.15a.42.42 0 01-.19.54.39.39 0 01-.46-.1.47.47 0 01.19-.71c-.5-.22.06-.63-.09-.94-.32.06-.47.62-.69.9-.22.28-.23.47-.44.71-.25.5-.9.31-1.24.68-.12.13-.19.31-.41.35s0-.19-.08-.26c-.22.22-.29.5-.47.69l-.1-.13c0-.62.51-1.18.32-1.8.25-.31 0-.71.07-1.09-.28.31-.56 0-.87-.09a.46.46 0 01-.43.12c-.25-.1-.25-.31-.25-.53a1.07 1.07 0 01.28-.19c.19-.12.37.12.53.19s.15 0 .09-.15a.51.51 0 01-.4-.41c-.12.12-.18.37-.43.31a.5.5 0 01-.28-.56c-.06.18-.15.34-.37.37a.64.64 0 01-.36-.48.57.57 0 00-.25.1s-.06 0 0-.1h-.19v.26a.48.48 0 01.37-.13.49.49 0 01.25.45c.18 0 .31-.19.53-.07a.75.75 0 01.21.44c-.07.21-.22.34-.43.27s-.31-.25-.38-.4a.79.79 0 01-.46.06.36.36 0 01-.21-.44h-.31c.49.69 1.42 1.31 1.84 2.12-.34.27-.49-.41-.92-.23a1.29 1.29 0 00.36.75c.81.1 1.14.88 1.48 1.47l-.06.16c-.44 0-.4-.5-.59-.75-.27-.53-.89-.48-1.26-.85a8.77 8.77 0 00-1-1.9v.15l-.12.16-.37-.32c-.1.07-.19.19-.28.19l.24.22a.37.37 0 01-.12.56.41.41 0 01-.56 0l.06.24.47-.09a.53.53 0 01.34.6c-.1.18-.26.4-.5.24-.4-.1-.12-.72-.58-.68-.12-.5-.65-.73-.65-1.26-.46-.12-.33-.68-.55-1a17.14 17.14 0 01-1.92.6 2.41 2.41 0 00-1.39.38 6.34 6.34 0 00-1.28 1.88 4.63 4.63 0 00-.69 3.12 10.05 10.05 0 01-.48 2.89c-.37.77-.07 1.52-.34 2.23 0 1-.75 1.65-.79 2.68.25.06.37-.22.56-.31.34-.12.8-.43 1 .07a.54.54 0 01.48.19c.06.49.72.37.77.87a11.13 11.13 0 01.42 3.91 2 2 0 00-.13.88v-.09c.62-1.31.23-3.08.21-4.48l.09-.25c.28.25.12.65.21 1 .46 1.09.08 2.18.17 3.14a9.62 9.62 0 00.11-3.7c0-.76-.39-1.44-.26-2.15h.12c.29 1.53 1.12 2.93.65 4.55-.09.18-.15.34 0 .5a5 5 0 000-3.49c-.19-.51.1-1.19-.21-1.65-.09-1.4-.82-2.77-.63-4.21.43.88.18 2 1 2.84 0-.25.06-.5.1-.74a9.58 9.58 0 00-.27-1.87c-.15-1.59-1.38-2.82-1.06-4.49h.06a7.23 7.23 0 001.1 3h.15c-.4-1.87-1.34-3.77-.87-5.76h.12a10.09 10.09 0 01.06 1.34c.3.85.15 1.49.45 2.33.18.29 0 .85.4.94a2.83 2.83 0 01.4-1c.18.21 0 .37 0 .56a18.35 18.35 0 00-.22 2c-.13 1.24.08 2.71 0 4a41.57 41.57 0 01.18 7.26c.15.8-.16 1.42.27 2.05.24.06.43.25.7.22.34-.18-.06-.63.19-.94.43.16.59 1 1.11.88.09-.4-.24-.62 0-1 .34.22.22.65.46 1 .16.16.31.35.53.25-.3-2 .6-4 .15-6.06.06-.25-.27-.47 0-.69.31.07.3.47.4.72v2.24c0 1.06-.48 2.61.16 3.68 0 0 0 .24.16.21-.09-.44-.15-.8-.24-1.31a10.15 10.15 0 01.29-2.39c0-.09.09 0 .15 0 0 1.36-.23 3.15.85 4.11a10.27 10.27 0 012.35 0c.58-.21.1-1.05.56-1.39.21.4-.13 1 .24 1.24a11.69 11.69 0 011.67.26c.21-.25 0-.69.31-.87a1.43 1.43 0 00.37.87c1.54.19 1.39-1.52 1.89-2.38.1-.72.63-1.28.48-2a3.94 3.94 0 000-1.19c.4-.34-.08-1 .35-1.24a11.68 11.68 0 010 3.06c-.34.68-.1 1.39-.5 2 0 .35-.34.69 0 1 .31-.07.8.28.9-.15a.32.32 0 01.49-.22c.25-.18-.09-.5.13-.71.68 0 .07-.75.53-.91a2.71 2.71 0 00-.21-1.7c0-.22-.27-.56 0-.72a4.8 4.8 0 01.73 1.91 6.35 6.35 0 01-.35 2.38 1.36 1.36 0 00.87-.8c-.08-2.68-1.43-5.2-1.32-7.84.09-.66-.12-1.16.22-1.75.4-.06.13.32.25.5a5.58 5.58 0 00.84 4.15c.1-.16 0-.41 0-.63-.59-.9-.46-2.11-.67-3.14-.3-1.43.35-2.93.46-4.45a17.38 17.38 0 00.11-4.2c0-.3-.15-.68 0-.93.06-.1.19 0 .25.06.09 1 .39 1.87.42 2.84a30.46 30.46 0 00-.65 5.53 4.44 4.44 0 00.22-1.12 15.08 15.08 0 00.35-3.2c.07-.06.13-.15.22-.12a4.39 4.39 0 01.09 1.61 29.38 29.38 0 00-.58 4.23 4.06 4.06 0 00.27 2c.34-1.14 0-2.45.2-3.51.4.41.15 1.25.33 1.75a13 13 0 010 4.35c.15 1-.63 2.34-.36 3.55a.21.21 0 00.28.19c.47-1.1.72-2.36 1.72-3.2.27-.1.62-.34.92-.09a3 3 0 012 1.88 3.89 3.89 0 00-.9-2.73zM231 120.23a.35.35 0 11.68-.1c-.09.13.06.32-.16.43a.5.5 0 01-.52-.33zm.33 1c-.12-.18.07-.37.16-.56a.52.52 0 01.49.35c0 .21 0 .46-.18.52a.47.47 0 01-.48-.35zm.37.87c0-.15 0-.34.19-.4s.52 0 .52.28-.12.34-.21.44a.55.55 0 01-.51-.36zm1.07 1.16c-.15-.06-.46 0-.49-.25s0-.35.13-.47a.4.4 0 01.55.35c-.04.05.04.3-.2.33zm.68.66c-.21 0-.43 0-.49-.28s0-.35.16-.41.15.31.43.22a.38.38 0 01-.11.43zm2.41.45c-.25 0-.31-.1-.49-.16-.16.11-.16.37-.41.34a.54.54 0 01-.52-.38c-.15.22-.34.19-.56.15a.52.52 0 01-.15-.4c0-.19.22-.12.31-.24.34 0 .37.78.74.24.31-.21.56.41.75-.09a.46.46 0 01.52 0 .47.47 0 01-.2.5zm2.65-3.48a.42.42 0 01-.16.38c-.09 0-.18 0-.21.09s.18.4 0 .6-.34 0-.21.21c-.15.21.16.62-.31.68h-.24c-.07.12.12.21.05.4a.49.49 0 01-.55.22c0 .22-.06.46-.25.52s-.31.07-.46-.06a.64.64 0 01.18-.56c.83.35.16-.9 1-.56a.81.81 0 01-.06-.55c.15-.13.34-.06.46-.19-.06-.19-.21-.4 0-.56l.31-.18a.72.72 0 01-.09-.62l.34-.19a.62.62 0 01-.18-.59c.18-.18.61-.12.64.16.13.39-.77.32-.27.76z" fill="#e6a300"/><path d="M248.21 146.24c-.36-3.19 1.19-5.91.66-9.15a1.36 1.36 0 00-.18-.5v1.27c-.1.31.09 1-.29 1.06-.11-.68-.11-1.5-.26-2.21-.33-.69-.23-1.77-1.16-2-.65-.16-1 .4-1.36.73a4 4 0 00-.88 2.05c.09 1.15.67 2.18.76 3.24a7.76 7.76 0 01.21 1.25c-.07 1.89.29 3.6 0 5.22-.09.75-.41 1.62-.5 2.4a.24.24 0 01-.19.09c-.12-1-.18-2.08-.35-3.12l-.16-.21c.12.78-.07 1.56 0 2.24l-.18.19c-.16-.47-.09-1-.25-1.47 0-.92-.7-1.77-.88-2.77-.55 0-.42-.69-.7-1-.15-.13-.37-.16-.43-.34-.4-.29-.86 0-1.24 0-.18.1-.43.12-.58.22s-.38.18-.41-.1c.28-.34.72-.34 1-.65a2.32 2.32 0 00-.62.09 12.17 12.17 0 01-4.83.38c-.68-.1-1.26-.26-2-.32-.15-.22-.24 0-.43-.19l.07-.06c.83 0 1.63 0 2.5.08 2.69.29 5.26-1.22 8-.62a.39.39 0 00.22-.34c-.31-.34-.87-.32-1.36-.32-.37.15-1 .06-1.3.22-.37-.13-.5.24-.87.11-.18.25-.55 0-.74.21-.8 0-1.55.18-2.38.12-1.24.3-2.6-.17-3.74 0-1.55-.14-2.82-.45-4.33-.61-.3-.07-.62-.26-.89 0 0 .19 0 .34.18.37 1 .11 1.91.45 2.93.49.5.41-.28.93-.34 1.39a12.29 12.29 0 010 1.82c-.13.21 0 .39-.16.55-.33-1-.2-2.34-.54-3.4-.15-.05-.52-.13-.43.13-.37.43-.25 1.08-.26 1.65 0 .09 0 .21-.18.15a5.73 5.73 0 01-.18-1.28c-.06-.34.06-1.05-.49-1-1.31 1.11-.92 2.88-1.32 4.22a24.32 24.32 0 01-1.15 5.88c-.12 1.12-.68 2.3-.69 3.33a7.77 7.77 0 01-.14 2.95v.9l.19-.06a6.82 6.82 0 01.2 2.24c.38-.84-.42-2.09.3-2.83.33.25.08.81.08 1.12.09 0 .15.06.22.12.35 1.9 0 3 .34 4.86a10.89 10.89 0 01.53 4.36c0 1.08.67 2 1 2.93 0 .44.25.69-.13 1-.3-.06-.12-.37-.18-.59a3.15 3.15 0 00-.24-.56 5.24 5.24 0 000 1.9c.06.19-.09.37-.16.56a17.42 17.42 0 00.83 6.79c.09.09 0 .28.12.37s.19.41 0 .56-.25-.16-.37-.18c.05 1.71.7 2.92.56 4.69a1.78 1.78 0 01-.22.75 2.83 2.83 0 01-.68 1.17 1 1 0 00.61.23 4.83 4.83 0 013 0 3.06 3.06 0 001.37.13 5.35 5.35 0 00-.52-1.31 4.62 4.62 0 00-1.18-.75c0-.09 0-.16.07-.22a.74.74 0 01.55.06c.13 0 .38.14.35-.09a11.29 11.29 0 00-.3-2c-.22 0-.5.34-.65 0-.06-.12.09-.15.15-.25 1.18-.3.81-1.73.94-2.61-.28.16-.16.65-.53.59-.18-.18-.12-.4-.08-.62 1.37-2.79 1.2-5.75.78-8.83-.41.5-.1 1.15-.38 1.61a.15.15 0 01-.25 0 5.62 5.62 0 01.07-1.42c1.28-2.27.8-5.26 1.34-7.84.19-1-.21-1.78.2-2.62-.43-.84.37-1.45.17-2.29 0-.07 0-.23-.16-.19s0 .09 0 .15a8.6 8.6 0 01-.91 2.43c.06 0 .13 0 .15.09s0 .31 0 .37c-.22.25-.22.81-.68.65-.18-.31.25-.53.25-.83-.19 0-.4.3-.56 0s.07-.41.13-.58c-.12 0-.28-.08-.31-.23.28-.5.69-1.11.38-1.74.06-.21.34-.24.38-.46a.5.5 0 01-.72 0c-.15-.4-.55-.53-.67-.93.28-.25-.09-.79.31-.94.25.26.12.6.18.91.43.19 0-.65.35-.84.61.19 0 .87.55 1.06.27-.12 0-.71.22-1 .4.22.3.74.36 1.15.25-.19.13-.65.25-.93a.17.17 0 01.28 0c.19.25-.25.9.21 1.06.16-.28.06-.66.19-.93.59-.19.06.74.37 1 .43-.12 0-.75.47-.9.33.28 0 .81.11 1.08h.13c.15-.25 0-.84.25-1.09.46.19.21.9.24 1.19l.12.12c.37-.22-.15-1.09.44-1.17.3.34 0 .77.14 1.18.07.06.13.15.22.12.25-.43-.15-.85.19-1.24.52.09.09.5.24.87.09.09 0 .31.22.31s.06-.37 0-.56-.09-.69.32-.69c.33.35-.11.81.23 1.19h.22c0-.5-.24-1 .13-1.34.4 0 .15.41.21.69s.06.53.37.47c.22-.41-.24-.88.13-1.24.43.09.15.77.4 1.05 0 .47-.6.59-.87.83v.07c-.12.12-.3.15-.4.37a7.85 7.85 0 00.45 2.83l.06-.12c.19-.49-.23-1.15.38-1.31.22.26.06.79 0 1a32.74 32.74 0 00.12 6.6 19.71 19.71 0 01.5 3.77s-.09.12-.15.12a17.89 17.89 0 00-.57-2.4 2.14 2.14 0 00-.19 1.28 14.84 14.84 0 00.12 5.47c.09 2.64.48 4.95-.28 7.47.06.5-.53.64-.38 1.12a3.31 3.31 0 001.4-.56c.19 0 .62-.09.55.19-.52.28-1 .5-1.51.74.08.4.55.5.76.85.71.37 1.42 1.12 2.38.75.5-.25.53-.8.59-1.24-.28-.25-.71-.13-1-.25a2.38 2.38 0 01-2.25.18v-.19c1.08.34 1.73-.64 2.78-.45a1.92 1.92 0 01.46.18h.21a7.33 7.33 0 01-.35-.9c-.25-.46.24-.8.15-1.18-.4.28-.56.87-1.11.74v-.19c1.64-1.11 1.09-3.29 1.6-5 .16-2 1.1-3.82 1.17-5.84a1.08 1.08 0 00.25-.5c-.15-1 .29-2.11-.08-3.2-.25 0-.28.31-.43.4l-.12-.09c-.12-.69.34-1.21.65-1.77-.31 0-.37.4-.52.53s-.34.37-.53.55c0-.06-.09-.09-.06-.19a11 11 0 011.34-2.29 7.3 7.3 0 01-.87.61c-.06-.06-.16-.12-.09-.21a8.11 8.11 0 001.57-4.6c-.12-1.06.56-2 0-3l-.09.1c-.29.93-.72 2.11-1 3.07 0 .59-.77 1.12-.1 1.56a.46.46 0 01-.21.59c-.16.22.06.27.18.43a.66.66 0 01.05.84c-.83.81-1.27 1.77-2.2 2.36a1.21 1.21 0 01-.37-1.12 13.31 13.31 0 01-.42-2.46c.16-.41.59-.38 1-.44 0-.19-.18-.31-.12-.55s.41-.26.65-.28c.41-1.37.85-2.74 1.23-4.11.34-.46 0-.8-.18-1.24a.59.59 0 00-.43-.16c-.19 0-.25-.22-.25-.4.37-.28 0-1 .38-1.21.25.21.21.71.3 1.06.41-.24 0-.75.28-1.06.56 0 .16.84.44 1.16a2 2 0 00.12-1.13c.1-.15.19 0 .34-.12.35-1 .63-2 .94-3l-.27-.22c-.15-1.4.44-2.8.23-4.26l.1-.06a.86.86 0 01.24.62c.4.38.25 1 .37 1.47.27.06.34-.22.49-.37s.06-.29 0-.37c0-.82-.82-1.53-.3-2.28.32.41.13 1 .43 1.41.12.8.76 1.34.55 2.14.95-.21.31-1.3.65-2 .5-.07.09.56.34.75.28-.13.16-.6.25-.91s.34-.09.53-.27c-.06-.54.5-.78.53-1.28a18.73 18.73 0 00-1-3.05zm-19.58 13.18c-.09.12-.15.28-.34.22l-.18-.19c-.16.31-.53.21-.75.37a.2.2 0 01-.31 0s-.09-.08-.14-.05-.1.37-.32.43c-.34-.12-.18-.65-.15-1 .06-.1.09-.23.19-.25s.24.09.24.25a.1.1 0 000 .06c.19-.06.1-.31.25-.44.37.32.78-.61 1 .07.06-.09.06-.28.22-.31.48.07.2.56.29.84zm.56 0a.38.38 0 01-.28.11c-.19-.24-.06-.64 0-.93l.16-.1a1.24 1.24 0 01.12.9zm.55-.06h-.24a.9.9 0 01.1-.81c.27.1.08.51.14.79zm.56 0a.86.86 0 010-.87c.31.12.18.49.21.77-.02.14-.12.07-.21.11zm9.21.6c-.06.07-.15 0-.24 0a1.72 1.72 0 01-.19-1.12c.06 0 .13-.1.19-.12.18.25.12.52.18.84.03.17.15.28.06.44zm.65-.12c-.34 0-.34-.31-.46-.53a1.41 1.41 0 01.16-.77c.18-.07.24.12.28.21-.07.41.24.8.02 1.1zm.65-.21a.17.17 0 01-.31 0c0-.37-.27-.95.1-1.29.28.4.19.77.21 1.27zm-1-4.86a4.78 4.78 0 00-.22 1.8.3.3 0 01-.25.22c-.34-.19-.09-.69-.21-1 0-.81-.27-1.27-.33-2.05l.16-.12c.21.09.15.52.46.4a21 21 0 00.69-2.48 23.11 23.11 0 00.55-4.33h.15a31.26 31.26 0 01-1 7.57zm1.68 4.67a.39.39 0 01-.31.13c0-.47-.18-.88.07-1.37.28.37.15.84.24 1.24zm.68 0c-.15-.06-.25.1-.34 0l-.09-1a.34.34 0 01.31-.18c.22.22 0 .66.15.78s-.03.2-.03.38z" fill="#e6a300"/><path d="M225.47 161.8s-.07.06-.1 0c-.18-.31.07-.74-.05-1v-.53c.31.48-.16 1 .12 1.53M214.24 124.62a.64.64 0 01.15.53 5.35 5.35 0 01-1.36-.35c-.18 0-.37-.19-.52 0s-.07.43-.34.31a.9.9 0 01.12-.74 1.52 1.52 0 011.3 0 .63.63 0 01.65.28z" fill="#e6a300"/><path d="M214.24 124.62a.64.64 0 01.15.53 5.35 5.35 0 01-1.36-.35c-.18 0-.37-.19-.52 0s-.07.43-.34.31a.9.9 0 01.12-.74 1.52 1.52 0 011.3 0 .63.63 0 01.65.28z" fill="none" stroke="#1f2c5c" stroke-miterlimit="10" stroke-width=".2"/><path d="M213.83 125.46a.66.66 0 01.59.59l-.09.16c-.75-.51-1.64 0-2.39 0a.5.5 0 010-.5 1.74 1.74 0 011.65-.24z" fill="#e6a300"/><path d="M213.83 125.46a.66.66 0 01.59.59l-.09.16c-.75-.51-1.64 0-2.39 0a.5.5 0 010-.5 1.74 1.74 0 011.65-.24z" fill="none" stroke="#1f2c5c" stroke-miterlimit="10" stroke-width=".2"/><path d="M214.45 126.89v.37A2.13 2.13 0 00213 127l-1.05.36c-.19-.09-.12-.34-.12-.49.34-.37.84-.31 1.24-.46s1.1-.02 1.38.48z" fill="#e6a300"/><path d="M214.45 126.89v.37A2.13 2.13 0 00213 127l-1.05.36c-.19-.09-.12-.34-.12-.49.34-.37.84-.31 1.24-.46s1.1-.02 1.38.48zm-1 1.31a1.25 1.25 0 01-.53.46c-.18 0-.27-.16-.34-.31.19-.21.53-.18.81-.28z" fill="none" stroke="#1f2c5c" stroke-miterlimit="10" stroke-width=".2"/><path d="M253.19 131.35c-.53 2.34-1.35 4.66-2 7-.22.37-.22.87-.47 1.21-.6 2.27-1.32 4.44-2 6.65-.52-.87.22-1.59.35-2.4.22-1 .6-1.89.79-2.94.53-1.12.6-2.27 1.19-3.45.44-1.62.88-3.2 1.38-4.72.22-.47.25-.91.44-1.41.12 0 .31-.05.37.07zM242.88 165.93l.1.12c-.1.26-.65.16-.44.53a2.54 2.54 0 01.65.66 8.22 8.22 0 01-1.49 1.95l-.28.22a9.13 9.13 0 01-.37-1.5 4.13 4.13 0 00-.18-1.24c.31-.18.77-.12 1.15-.28a.51.51 0 000-.37c-.06-.09-.27-.16-.21-.34.4-.06.67.16 1 .25zm-4.34 22.6a6.07 6.07 0 002.31 1.16 1.71 1.71 0 00-.68 1c-.1.1-.22 0-.31.07a7.13 7.13 0 01-2.15-2.57c.21-.52.61.17.83.35zM243 190a3.52 3.52 0 011.5 3.39 2.47 2.47 0 01-.13 1.75c-.87.65-1.67-.23-2.5-.36a3.49 3.49 0 01-1.82-2.25c-.24-.34-.3-.81-.58-1.11-.46-.76-2.22-.7-1.47-2a13.17 13.17 0 002.24 1.9c.5 0 .35-.74.72-.92a4.86 4.86 0 001.1 1.8c.34.47.74.88 1.39.7a.75.75 0 00.35-.76c-.16-.64-.81-1-1.11-1.55.09 0 .16 0 .19-.12.06-.34-.19-.56-.4-.84a1.25 1.25 0 00-.71-.32c.34-.24.34-.71.59-1.08.12.62.77 1 .64 1.74zm-11.84-.5c0 .16.16 0 .22.13a1.15 1.15 0 01-.71.4 2.75 2.75 0 01-2.45.26c-.21-.24-.15-.55-.21-.84.21.26.71 0 1 0 .12-.22.37 0 .53-.15.55 0 1.08.13 1.6.19zm-3.37.67l.25.5a1.56 1.56 0 00-1.24.95c-.37-.74.4-1.46.72-2.14.24.07.12.47.27.69zm4.83-.16c.08.62-.63.78-.94 1.11a4.11 4.11 0 01-2.41.77c-.34-.25-.19-.59-.49-.81v-.16a6.88 6.88 0 002.29-.48 9.27 9.27 0 001-.62c.18 0 .43-.06.53.19zm8.93-.15c0 1.06 1 1.6 1.35 2.5-.37 0-.34-.44-.62-.62a2.27 2.27 0 01-.82-1.88h.09zm.95.63c-.18.13-.09.22-.12.37-.31-.24-.28-.65-.37-1 .23.14.36.44.44.65zm-14.31.65v-.37l.06.15v.22zm-1.06 2.33c-.31 0-.35.43-.66.42.31-.34.69-.8 1-1.17a2.94 2.94 0 00.72-1.4 3.66 3.66 0 01-1 2.15zm.37-2v.15zm1.67.86a9.26 9.26 0 002.79-.64c-.07.4-1 .2-.59.71l.61-.15c-.68.61-1.64.86-2.35 1.48-.78.77-1.41 2.11-2.61 2.16l-.84.28v.18c.34.19.65-.15 1-.12a2.18 2.18 0 01-.86.5c-.44.21-1.06.55-1.46.24a10.07 10.07 0 01-.42-2.34c.16-1.46 1.83-1.61 2.3-2.88a.22.22 0 01.19.19v.22c-.24.65-2 1-1 1.92a.73.73 0 00.77.19 4.31 4.31 0 001.9-2.7 1.15 1.15 0 00.58.75zm-2.88 1c.13-.12.28-.34.44-.39-.09.29-.36.29-.49.44zm25.93-61.11a.82.82 0 01-.3-.9l.34-.77a1.86 1.86 0 010 1.67zm1 2c-.15.1-.25.28-.43.34.37-1.08.35-2.58 1.34-3.35a26.51 26.51 0 01-.91 3zm-1.22-1.35c-.31.62-.41 1.3-.69 1.92-.46-.77 0-1.61.32-2.39.13.18.62.13.37.47zM237.46 106.07a3.22 3.22 0 00-.77-.79c-1.45-.75-3-.29-4.54-.14-.53.12-.62.72-.85 1.08a3.44 3.44 0 00.61 3.49v1.37h-.19a6.68 6.68 0 01.65 1.56c.6 1.31 2.1.26 3.11.7.69-.22.94-1 1.34-1.52a2.8 2.8 0 00-.11-2.11c.98-.88.93-2.31.75-3.64zm-5.94 1.21c.56-.84 1.6-.06 2.22-.45.31.06.16.56.28.71-.13.28-.16.59-.5.68a2.13 2.13 0 01-1.57-.38c.05-.34-.81-.06-.43-.56zm3.19 4.61a.19.19 0 01-.05.2 1.41 1.41 0 01-.18.14.74.74 0 01-.26 0 .38.38 0 00-.27 0 .15.15 0 01-.11 0 .24.24 0 01-.09-.06.84.84 0 01-.11-.21.32.32 0 010-.17v-.15l.19.12a.57.57 0 00.26.08.9.9 0 00.46 0 .31.31 0 00.17 0zm.42-.39a3.33 3.33 0 00-.63 0h-1.18a2.9 2.9 0 00-.6.07c-.19-.19.19-.24.27-.3a2.26 2.26 0 01.56-.09h-.05.06a.63.63 0 01.43.11.42.42 0 00.12 0c.16 0 .35 0 .4-.13h.7l.37.12a.67.67 0 00.21.09s.09 0 .13.06zm1.05-3.39c-.44.41-1.08-.32-1.34.34s.65.94.93 1.53a1.87 1.87 0 01.42 1.09c-.49 0-.42-1.09-1.1-.82a1.26 1.26 0 01-1 .31c-.27-.19-.64-.16-.89-.44-.37.12-.47.56-.78.77h-.12c-.06-.37.25-.56.44-.81s.37-.4.65-.52c.09.09.06.32.24.41.37-.09.81.37 1.08-.13 0-1-.7-2-.16-3 .15 0 .15.25.33.23.53.06.9-.25 1.46-.15a4.6 4.6 0 01.86.5.35.35 0 01-.18.34c-.62-.27-.29.48-.84.35z" fill="#e6a300"/><path d="M239.09 149.59l.06 1.57-.29.69h-.23l.26-2.1zM232.15 164.58l.13.26-.33.66-.13-.1v-.4zM213.32 128.14l-.1.34-.35.25-.3-.44z" fill="#1f2c5c" fill-rule="evenodd"/><path d="M287.24 177.62a.33.33 0 01.08-.23 1.54 1.54 0 00.13-.58 1.47 1.47 0 01.13-.57.72.72 0 00.07-.4c0-.2 0-.38.08-.4a2.89 2.89 0 00.13-.83c.05-.74.05-.78-.14-1a3.32 3.32 0 00-1.07-.6c-.11 0-.06.31.06.41a.32.32 0 01.13.21c0 .06 0 .11.06.11s.12.12.2.25a2.9 2.9 0 010 1.65c0 .1-.12.23-.15.3s-.65.22-.65.09-.11-.09-.24-.09a.46.46 0 01-.29-.08s-.19-.08-.35-.08a1 1 0 01-.5-.14c-.16-.11-.18-.18-.15-.44a.63.63 0 01.56-.62c.29-.08.36-.25.15-.35l-.3-.15a1 1 0 00-.38-.09c-.11 0-.23 0-.25-.09a.9.9 0 00-.74 0v.09s.1.06.13.14a2.42 2.42 0 00.2.39c.18.26.22.52.09.52s-.08.1-.08.21 0 .2-.4.2c-.22 0-.43 0-.45-.08a.4.4 0 00-.26-.08 1.2 1.2 0 01-.7-.32c-.19-.15-.18-.47 0-.88s.26-.42.93-1c.29-.25.29-.43 0-.43a.46.46 0 00-.29.08.36.36 0 01-.27.09c-.37 0-.59.09-.59.24s0 .18-.08.2a.37.37 0 00-.08.25c0 .11 0 .2-.07.2a1.42 1.42 0 00-.13.61 1.93 1.93 0 01-.13.66.56.56 0 00-.08.35.76.76 0 01-.07.38 1.83 1.83 0 00-.13.59c-.07.59 0 .65.39.26a.8.8 0 01.93-.16 2.72 2.72 0 00.7.12 1.24 1.24 0 01.55.12 1.45 1.45 0 00.61.12 1.76 1.76 0 01.65.14.66.66 0 00.37.07c.17 0 .33 0 .35.07a.78.78 0 00.34.12c.38.06.53.19.53.46s.17.46.3.27a.58.58 0 00.1-.32zm-5.43 4.54a.47.47 0 00-.1-.33 2.47 2.47 0 01-.49-1c0-.33.18-.39 1-.33a3.24 3.24 0 01.83.13 2.83 2.83 0 00.76.13 2.12 2.12 0 01.72.13.44.44 0 00.29.07.86.86 0 01.38.08 2.11 2.11 0 00.43.12.59.59 0 01.48.59c0 .14.2.14.32 0a2.18 2.18 0 00.14-.7 1.81 1.81 0 01.13-.63.83.83 0 00.07-.4c0-.26 0-.36-.12-.36a.22.22 0 00-.17.07 1.43 1.43 0 01-.7.33.25.25 0 01-.2-.08.6.6 0 00-.36-.08c-.17 0-.33 0-.34-.08a3.73 3.73 0 00-1.11-.14 5.51 5.51 0 01-1.08-.11.92.92 0 00-.41-.11c-.86-.11-.88-.48-.07-1.27.35-.33.56-.6.52-.65a2.24 2.24 0 00-1.32.13c-.26.12-.26.13-.26.64a1.13 1.13 0 01-.09.57.76.76 0 00-.08.41.72.72 0 01-.07.4 1.27 1.27 0 00-.12.51 3.22 3.22 0 01-.27.9l-.21.42.24.23a2.37 2.37 0 00.73.51.55.55 0 01.23.17.2.2 0 00.19.06c.1 0 .13-.11.12-.3zm1 3.16a2.19 2.19 0 00-.38-.21c-.08 0-.14-.08-.14-.12s0-.07-.11-.07-.51-.39-.44-.46a3.1 3.1 0 01.73-.09 3.21 3.21 0 00.75-.1.21.21 0 01.23 0c.13.1.15.18.1.54-.09.65-.28.77-.74.47zm2.13 2.47a.62.62 0 00.11-.32c0-.09 0-.19.09-.2a1.8 1.8 0 00.13-.66c.06-.71 0-.76-.42-.42-.17.13-.29.17-.32.12a.26.26 0 00-.21-.09c-.31 0-.43-.23-.36-.71a2.41 2.41 0 01.12-.58 1.89 1.89 0 00.12-.44c0-.25.08-.3.23-.3a.47.47 0 00.28-.09c.14-.15.59.08.59.31a.28.28 0 00.45.19 1.08 1.08 0 00.17-.48 1.51 1.51 0 01.12-.47 2.15 2.15 0 00.12-.63c.05-.51.05-.54-.11-.54a.32.32 0 00-.22.07c-.13.22-.61.36-1.32.4a2.08 2.08 0 00-.76.11s-.25.07-.56.07a1.54 1.54 0 00-.61.07 5.45 5.45 0 01-1.14.12c-1.3.07-1.6.18-1.6.56s.2.55.38.55.11 0 .11.06.12.14.26.23l.47.3a2.9 2.9 0 00.46.26 1.17 1.17 0 01.35.25.35.35 0 00.19.12 1.71 1.71 0 01.38.23 4.53 4.53 0 00.69.43 3.57 3.57 0 011.05.67.78.78 0 01.3.5c0 .11 0 .21.09.21s.08.06.08.12.16.16.29 0zm-5.44 3.15c.06-.1.08-.2 0-.23a2.67 2.67 0 01-.51-1.33V189h.44a1 1 0 01.49.08.93.93 0 00.46.14 1.14 1.14 0 01.45.12s.15.07.28.07a.44.44 0 01.28.08 1 1 0 00.43.13 1.51 1.51 0 01.47.12 1.26 1.26 0 00.32.11 1.36 1.36 0 011.14.9c.05.16.06.16.21 0a1.45 1.45 0 00.21-.52 2.66 2.66 0 01.11-.45 2.52 2.52 0 00.28-.84c.05-.26 0-.3-.1-.3a.62.62 0 00-.34.2c-.19.2-.6.28-.69.13a.86.86 0 00-.43-.14 2 2 0 01-.47-.11 1.36 1.36 0 00-.47-.12 1 1 0 01-.43-.13.4.4 0 00-.28-.08c-.13 0-.26 0-.28-.07a.71.71 0 00-.34-.13 1.93 1.93 0 01-.43-.12 2.43 2.43 0 00-.37-.14.71.71 0 01-.32-.2.83.83 0 01.23-.84c.6-.32 1-.84.76-.87a4.72 4.72 0 00-1.35.11.92.92 0 00-.1.52.91.91 0 01-.06.44c-.09 0-.27.43-.32.79a1.61 1.61 0 01-.11.39 1.67 1.67 0 00-.11.43 1.35 1.35 0 01-.32.76.76.76 0 00-.11.37c0 .27 0 .35.25.62a1.25 1.25 0 00.35.3.83.83 0 01.27.21c.23.25.33.25.47 0zm-1.83 3.64c-.54-.27-.84-.51-.84-.66a4 4 0 01.7-1.27.94.94 0 011.23 0 .63.63 0 01.27.61c0 .52-.53 1.58-.77 1.55a5.66 5.66 0 01-.59-.27zm3.63 2.69a5.22 5.22 0 00.34-.79.52.52 0 01.12-.27c.26-.35 0-.66-.29-.33-.15.17-.75.15-1.12 0a1.53 1.53 0 00-.41-.17c-.05 0-.1 0-.1-.06s-.12-.11-.26-.17a2.11 2.11 0 01-.41-.24c-.2-.17 0-.42.32-.42a.5.5 0 00.31-.08 1 1 0 01.53-.09 1.16 1.16 0 00.52-.07 3.62 3.62 0 01.84-.12 2 2 0 00.94-.19c.34-.3.72-1.49.48-1.49a.75.75 0 00-.25.2.63.63 0 01-.42.21c-.12 0-.25 0-.27.07a2.91 2.91 0 01-.84.13 4.52 4.52 0 00-1 .14c-.34.17-.46 0-.49-.64 0-.81-.32-1.31-.83-1.45a2.13 2.13 0 01-.38-.14c-.15-.07-.26 0-.54.08a1.84 1.84 0 00-.46.29.37.37 0 01-.22.13.21.21 0 00-.17.15 2.81 2.81 0 01-.32.46 2.06 2.06 0 00-.32.55c0 .13-.09.23-.13.23s-.07.06-.07.14a2.65 2.65 0 01-.24.63 2.51 2.51 0 00-.25.61.55.55 0 01-.16.28 1.31 1.31 0 00-.21.52c-.05.28 0 .34.08.34s.13 0 .13-.06.48-.34.66-.34.15 0 .15.07.12.1.26.13a2.2 2.2 0 01.51.21 3.26 3.26 0 00.39.21c.08 0 .15.08.15.12s.07.07.16.07a1.36 1.36 0 01.47.16 1.38 1.38 0 00.4.17s.11 0 .12.06a6.1 6.1 0 001.17.59c.14 0 .37.37.37.6s.14.49.28.37a4 4 0 00.44-.76zm-3.16 5.29a1.88 1.88 0 01.33-.53 3 3 0 00.23-.39 2.16 2.16 0 01.3-.44 2 2 0 00.3-.47 1.87 1.87 0 01.35-.54c.36-.34.3-.75-.23-1.43a1.25 1.25 0 01-.23-.39c0-.05-.07-.09-.16-.09s-.17.05-.17.28a.48.48 0 00.09.33 2.85 2.85 0 010 1.3.6.6 0 00-.13.29c0 .13-.08.24-.12.24a.09.09 0 00-.08.1c0 .17-.27.39-.48.39a1 1 0 01-.42-.12l-.32-.18a1.38 1.38 0 01-.29-.2c-.09-.09-.28-.25-.42-.36-.29-.23-.35-.52-.15-.69a.32.32 0 00.13-.18.58.58 0 01.17-.28c.14-.15.26-.19.61-.19s.44 0 .44-.08a1.72 1.72 0 00-.58-.6l-.44-.25a1.32 1.32 0 00-.52-.2c-.17 0-.18 0-.14.22a.41.41 0 00.14.25c.15.05.09.34-.19.82l-.15.32c-.07.16-.12.18-.3.14a1.07 1.07 0 01-.39-.22.68.68 0 00-.27-.15 1.5 1.5 0 01-.42-.3c-.38-.34-.42-.61-.15-.9a2 2 0 00.26-.36 1 1 0 01.42-.35 2.27 2.27 0 00.36-.22 1.16 1.16 0 01.36-.1.91.91 0 00.4-.13c.13-.12-.09-.33-.34-.33a.52.52 0 01-.31-.09.75.75 0 00-.43-.06c-.33 0-.37.05-.55.39a1.52 1.52 0 01-.28.42c-.08.05-.18.2-.44.7a1.39 1.39 0 01-.25.36.31.31 0 00-.11.17 1 1 0 01-.21.34l-.27.34a.92.92 0 00-.13.28 1.16 1.16 0 01-.21.35c-.08.09-.13.19-.11.23s.33.08.44-.05.65-.11 1.76.65l.28.21a.64.64 0 00.16.1 3.82 3.82 0 01.73.49l.38.3a1.22 1.22 0 00.3.13 1.35 1.35 0 01.5.36c.29.32.37.62.2.79s-.07.13 0 .23.14.11.39-.18a3.22 3.22 0 00.35-.47zm-6.48 1.26a1.31 1.31 0 00-.43-.33.2.2 0 01-.16-.14 1.05 1.05 0 00-.17-.28c-.1-.12-.09-.16 0-.37a1.71 1.71 0 011.28-.92c.27 0 .36.05.63.34.44.48.42.78-.09 1.42-.12.14-.26.33-.33.43-.18.26-.42.21-.77-.15zm2.56 2.14a.49.49 0 01-.19-.16.22.22 0 00-.16-.11 1.66 1.66 0 01-.5-.41 1.73 1.73 0 00-.51-.4c-.06 0-.1-.1-.1-.22s.13-.35.46-.69.48-.48.94-.48a.88.88 0 01.84.34c.35.32.36.35.36.8s0 .5-.12.57a.33.33 0 00-.12.2c0 .13-.41.51-.61.56a.71.71 0 01-.29 0zm0 1.34c.3-.32.73-.78.95-1a2.07 2.07 0 00.4-.5.93.93 0 01.25-.31 1 1 0 00.24-.31c0-.05.08-.15.18-.24s.18-.24.19-.76a1.48 1.48 0 00-.1-.7.37.37 0 01-.1-.23.62.62 0 00-.23-.34 1.54 1.54 0 00-1.34-.42h-.63v-.36a1.5 1.5 0 00-.1-.55c-.2-.36-.59-.71-.77-.71s-.19 0-.19-.09-.13-.08-.29-.08-.28 0-.28.08-.13.1-.29.13-.48.26-1.34 1.16a11.48 11.48 0 00-1.06 1.2 1.07 1.07 0 01-.29.36 1 1 0 00-.28.44c0 .13 0 .15.31.1a1.24 1.24 0 00.4-.15h.1s.08.09.18.09a3 3 0 01.88.66 7.28 7.28 0 00.79.65 1.36 1.36 0 01.39.32 1.63 1.63 0 00.4.33 4.15 4.15 0 01.93 1c.07.13.08.22 0 .28s-.1.54 0 .54a3 3 0 00.65-.59zm-2 2.2c.86-.89 1-1.12.57-1.12-.14 0-.25 0-.25.08s-.1.08-.22.08-.34-.12-.64-.41a3.31 3.31 0 00-.62-.51.93.93 0 01-.3-.32c-.05-.12-.15-.22-.2-.22a6 6 0 01-.91-.82l-.82-.82v-.48c0-.31 0-.49-.07-.49a8.44 8.44 0 00-1.71 1.77c0 .16 0 .17.45.13l.45-.05 1 1a12.17 12.17 0 001.12 1 2.72 2.72 0 01.6.52l.52.52v.42c-.07.71 0 .69 1-.34zm-4.65 4.22a.7.7 0 01.27-.21 4.43 4.43 0 00.7-.65 4.77 4.77 0 01.71-.65 1.46 1.46 0 00.4-.33 1.22 1.22 0 01.41-.32.51.51 0 00.24-.17c.12-.12.14-.24.09-.54a1.51 1.51 0 00-.12-.47 1.43 1.43 0 01-.14-.41c-.07-.41-.24-.59-.43-.48s-.14.23-.16.61a2.63 2.63 0 01-.8 1.76c-.52.53-.68.49-1.45-.32l-1-1.09a2.51 2.51 0 01-.45-.61 1.4 1.4 0 00-.32-.45c-.5-.49-.67-.93-.44-1.15a.22.22 0 000-.22c-.05-.14-.3-.18-.3-.05s0 .08-.1.08a1.56 1.56 0 00-.47.37 1.77 1.77 0 01-.44.37 1.73 1.73 0 00-.7.74.28.28 0 00.42.25c.29-.18.55-.11.93.26a1.66 1.66 0 01.36.43 2.69 2.69 0 00.45.52 1.94 1.94 0 01.45.54 2.21 2.21 0 00.41.54 3 3 0 01.4.5 2 2 0 00.29.4c.16.18.25.35.21.36s-.09.12-.09.23 0 .2-.08.2-.1.14 0 .27.42 0 .71-.31zm-9.6 1.47c-.08-.09-.08-.16 0-.28s.06-.2-.12-.44-.29-.71-.13-.71.08-.06.08-.13a.12.12 0 01.12-.12c.07 0 .12 0 .12-.07s.11-.1.25-.13a.65.65 0 00.29-.13.67.67 0 01.39-.08.65.65 0 01.58.25c.21.22.24.31.24.72s-.18.83-.54.83a.42.42 0 00-.27.07 1.37 1.37 0 01-.74.33.39.39 0 01-.27-.11zm1.54 2.58a8.06 8.06 0 01-.67-1.16 1.73 1.73 0 00-.24-.4c-.18-.07-.05-.32.22-.42s.28-.14.28-.17.11-.08.24-.11a.55.55 0 00.29-.13.84.84 0 01.44-.08c.34 0 .42 0 .7.33s.33.34.33.92-.07.75-.37.9l-.48.26c-.43.24-.58.25-.74.06zm-.82 1.52a1 1 0 01.25-.12 1.81 1.81 0 00.45-.24 4.29 4.29 0 01.57-.32 2.4 2.4 0 00.48-.29 1.14 1.14 0 01.37-.21c.11 0 .23-.09.25-.14a1.91 1.91 0 01.41-.25 1.46 1.46 0 00.69-.79l.12-.26a1.78 1.78 0 00-.32-1.57.29.29 0 01-.07-.2.16.16 0 00-.1-.16l-.31-.16a1.07 1.07 0 00-.41-.09h-.24v-.77c0-.71 0-.78-.19-1a1.53 1.53 0 00-1.28-.48 4 4 0 00-1.53.63 5.71 5.71 0 01-.55.33.78.78 0 00-.31.21s-.1.09-.22.12a1.58 1.58 0 00-.48.25 1.23 1.23 0 01-.34.2.48.48 0 00-.22.16c-.14.16-.14.18 0 .31s.17.12.27.05.5 0 .68.25.07.13 0 .13-.17.11 0 .24a.38.38 0 01.12.21.84.84 0 00.2.34 1.36 1.36 0 01.25.45c0 .12.08.22.12.22s.09.11.12.25a.63.63 0 00.2.34.77.77 0 01.21.31 1.07 1.07 0 00.2.36c.38.44.53 1.15.29 1.35a.32.32 0 00-.07.43c.06.06.37 0 .43-.11zm-4.25 1.83l.19-.05-.06-2.87-.05-2.86.18-.22a.59.59 0 01.33-.22.14.14 0 00.16-.16c0-.22-.12-.28-.34-.16l-.34.17a2.27 2.27 0 01-.59.12 1 1 0 00-.44.11s-.11.09-.24.12a.65.65 0 00-.3.13c-.06.11.12.32.28.32a.71.71 0 01.32.17c.15.15.18.27.18.65a1 1 0 00.09.52 9.56 9.56 0 010 2.27c-.06.07-.84-.67-.84-.8a2.48 2.48 0 00-.49-.57 2.66 2.66 0 01-.49-.58c0-.05-.09-.16-.2-.25s-.29-.62-.12-.72a.46.46 0 00.08-.29c0-.2 0-.24-.19-.24a.61.61 0 00-.34.12.64.64 0 01-.35.12c-.1 0-.18 0-.18.08s-.11.1-.25.13a2.38 2.38 0 00-.47.17 1 1 0 01-.32.11c-.15 0-.12.34 0 .46a.58.58 0 00.28.11 4.2 4.2 0 011.13 1.05 2.44 2.44 0 00.37.42 2.65 2.65 0 01.43.5 13.57 13.57 0 001 1.16c1 1 1.06 1.09 1.5 1zm-7.31 2c.08-.09.29-.12.94-.12a4.47 4.47 0 001-.07 5.31 5.31 0 01.52-.25c.51-.23 1.13-.9 1.13-1.21a.49.49 0 01.1-.32c.07-.08.07-.15 0-.29a2.28 2.28 0 01-.14-.44 1.38 1.38 0 00-.88-.84.41.41 0 01-.28-.1 2.52 2.52 0 00-.9-.13 3.55 3.55 0 01-.87-.1 1.37 1.37 0 00-.56-.08c-.51 0-1.11-.2-1.11-.38s0-.11-.08-.11-.09-.43.06-.61a1.24 1.24 0 01.87-.45c.15 0 .3 0 .33-.08a.37.37 0 01.25-.08c.11 0 .2 0 .2.08s.16.08.37.08a1 1 0 01.63.2c.34.26.65.34.77.19s-.05-.52-.55-1.06l-.39-.42-.24.21c-.21.2-.3.22-1.08.25a2.37 2.37 0 00-1.24.26 3 3 0 00-1 .89c-.15.23-.19 1.2-.05 1.2a.09.09 0 01.08.09 1.39 1.39 0 00.63.64.1.1 0 01.1.08s.09.08.19.08a.44.44 0 01.27.09 6.11 6.11 0 001.2.13 4.61 4.61 0 011.11.12s.16.07.36.07a.85.85 0 01.49.12.36.36 0 00.2.12s.09.06.09.13 0 .12.08.12.1.45 0 .57a.34.34 0 00-.12.19c0 .1-.57.38-.77.38a.21.21 0 00-.17.08 1.64 1.64 0 01-.65.08 1.68 1.68 0 01-.65-.08.2.2 0 00-.17-.08 2 2 0 01-.85-.4c0-.09-.31-.17-.45-.12s-.16.44 0 .44a.09.09 0 01.09.1.61.61 0 00.2.3.69.69 0 01.2.28c0 .29.62.49.82.25zM286.53 123.3c.23-.29.35-.3 2.44-.34s2.2 0 2.42.23c.42.49.57.34.57-.58s-.13-1.16-.45-.67c-.21.33-.24.33-2.07.33a8 8 0 01-1.85-.11 22.16 22.16 0 013.49-1.48q.76-.29.72-.48a3.73 3.73 0 00-1.23-.73 12.45 12.45 0 01-2.84-1.48c0-.06.28-.08.62 0l1.75.16c1 .08 1.15.13 1.43.43s.34.31.44.15a5.15 5.15 0 000-2 1.77 1.77 0 00-.37.2c-.26.17-.51.18-1.55.07-.69-.07-1.65-.13-2.13-.14-.8 0-.91 0-1.17-.35-.39-.51-.55-.25-.5.82v.91l1.4.6c1.52.65 2.15 1 2.05 1.19a14.86 14.86 0 01-1.8.73 5.2 5.2 0 00-1.87.9 2.37 2.37 0 00-.07 1c0 .41.08.79.08.85s.16.1.4-.2zm1.42 6.64c.37-.05 1.36-.14 2.21-.2 1.4-.08 1.57-.07 1.82.16l.29.25-.09-1.92c0-1.06-.12-2-.16-2.21s-.28-.36-.74-.51a1.78 1.78 0 00-.73-.15s.11.24.34.43a2.37 2.37 0 01.88 1.72c.11.87-.13 1.09-1.29 1.2-.8.08-.88.06-1.08-.23a1.3 1.3 0 01.05-1.51c.48-.44.34-.64-.4-.56s-.91.15-.62.47a3 3 0 01.38 1.91 2.6 2.6 0 01-.91.19c-1 .09-1.14-.06-1.15-1.21a1.7 1.7 0 01.29-1.26c.17-.23.28-.45.24-.49s-.87.23-1 .44a25.21 25.21 0 00.32 4l.07.32.3-.37a1.33 1.33 0 011-.48zm1.1 7.52a2 2 0 00-.53-.69c-.5-.49-.68-1-.42-1.18.06 0 1-.2 2.13-.36 1.91-.29 2-.29 2.41-.08s.38.2.38 0a11.25 11.25 0 00-.31-1.84s-.2.08-.37.26-.59.35-1.9.54c-.87.13-1.83.24-2.12.26-.52 0-.53 0-.57-.48a1.78 1.78 0 01.3-1.09c.41-.69.27-.76-.61-.32-.44.23-.52.33-.45.57a28.55 28.55 0 01.53 3.84c-.09.23.16.43.74.59s.79.18.79 0zm.13 6.46c.14-.36.31-.42 2.65-.93 1.76-.38 2.16-.4 2.38-.13a.54.54 0 00.3.2c.15 0 .14-.08-.39-2.58l-.37-1.73-.52-.17a2.51 2.51 0 00-.8-.13c-.23 0-.2.09.22.37a2.24 2.24 0 011 1.71c.14.66.13.75-.11 1a2.78 2.78 0 01-2 .25 2 2 0 01-.2-.79c-.07-.57 0-.7.21-.93s.24-.31.14-.37a3 3 0 00-1.52.23c-.25.14-.25.14 0 .25a1.37 1.37 0 01.72 1.31v.59l-.79.16c-1 .2-1.2.1-1.31-.78a2.7 2.7 0 01.21-1.65c.24-.5.06-.59-.47-.23s-.49.41-.44.63.16.94.28 1.74a6.18 6.18 0 00.55 2.32s.11-.15.18-.33zm.93 4.44c0-.26.42-.52 1.09-.67 3.35-.73 3.72-.78 3.87-.53s.34.13.33-.23a3 3 0 00-.5-1.59c-.09 0-.16 0-.16.16 0 .29-.32.41-2.45.86s-2.2.48-2.51.14c-.14-.15-.29-.23-.35-.17a6.56 6.56 0 00.36 2c.09.15.32.15.32 0zm.91 6.57c.09-.21.65-.55 2-1.22 2.7-1.32 3-1.47 3-1.69s-.46-.75-.91-.75a29.16 29.16 0 01-3.92-.94 2.6 2.6 0 01-.67-.42c-.18-.17-.35-.23-.41-.16a4.49 4.49 0 00.14 1.85c.05.05.27 0 .49-.22l.41-.3 1.29.25c1.9.36 1.91.43.22 1.31a16.75 16.75 0 01-1.52.74.68.68 0 01-.31-.2c-.33-.34-.5-.1-.41.58.16 1.23.21 1.48.34 1.48s.18-.14.25-.31zm1.27 5.22a1.57 1.57 0 01-1.34-1.76c.17-.89.76-1.17 2.45-1.18a4.17 4.17 0 011.78.23 1.46 1.46 0 01-.43 2.7 7.25 7.25 0 01-2.46 0zm2.86.88a2.43 2.43 0 001.2-2.44 12.69 12.69 0 010-2.79c.13-1 0-1.09-.38-.15a1.66 1.66 0 01-.41.73 1 1 0 01-.61-.16 4.65 4.65 0 00-2.58-.2 3.29 3.29 0 00-1.91 1.82 2.72 2.72 0 001.4 3.17 4.26 4.26 0 003.25 0zM185.29 190a2 2 0 01-.36-.54 1 1 0 00-.08-.33c-.08-.21.3-.47 1.13-.79.53-.2.9.24.9 1.09s-.17 1-.78 1a1 1 0 01-.81-.43zm1.64 1.54a1.4 1.4 0 00.8-1.43c0-.85-1.34-4-1.68-4-.06 0-.16.21-.23.46-.11.4-.3.54-2 1.38-1.84.93-2.43 1.09-2.75.78s-.31.33.11 1.27.78 1.23.86.59c0-.31.2-.47.87-.83a5.46 5.46 0 011-.45c.09 0 .37.37.61.84.73 1.35 1.42 1.76 2.4 1.38zm.26 6.73c.62-.1.7-.44.14-.57-.89-.21-2-1.25-2-1.88 0-.16.64-.63 1.84-1.37 1.75-1.07 1.87-1.12 2.45-1s.6.07.51-.16a10.45 10.45 0 00-1.36-2c-.06 0-.11.19-.11.41 0 .37-.14.51-1.35 1.3-2.32 1.51-2.67 1.69-3 1.51s-.68-.21-.57.08a38.24 38.24 0 002.3 3.81.52.52 0 00.37.05l.73-.15zm3.49 1.94c-.14-.21-.18-.41-.11-.47a3 3 0 011.24-.4 3.07 3.07 0 01-.77 1.22c-.07 0-.23-.16-.36-.35zm.08 3.79a10.81 10.81 0 011.46-2.83c.8-1.33 1.46-2.47 1.46-2.53 0-.33-.43-.48-.94-.34l-1.28.36-2.19.65a4.69 4.69 0 01-1.8.35c-.49-.12-.51-.12-.56 0s1.22 1.71 1.37 1.62.09-.23 0-.41c-.09-.36.26-.67.93-.84.31-.07.44 0 .8.44.53.64.56 1.18.11 1.64a.71.71 0 01-.69.25h-.37a5.65 5.65 0 001.54 2.08.8.8 0 00.12-.51zm4.83 4c.65-.41.27-.71-.59-.47a1.21 1.21 0 01-1.1-.08 1.56 1.56 0 01-.9-1.45c0-.76 1.27-2.32 2.34-2.88.52-.27.62-.26 1.23 0a2.15 2.15 0 011 1.89c0 .62.2.66.49.11s.28-1.06.07-1.19a2.86 2.86 0 01-.48-.62 3.08 3.08 0 00-2.15-1.25 4 4 0 00-3.44 3.76c.16 1.81 2.17 3.01 3.53 2.18zm1.58 3.09c0-.43.14-.68 2-2.56 1.14-1.2 1.27-1.29 1.65-1.21.64.14.51-.2-.42-1.09s-1.19-1-1.06-.32c.08.44 0 .55-1.45 2.13s-1.55 1.68-2 1.61c-.68-.09-.62.15.27 1.12s1.15 1 1.07.32zm4.44 3.3c-.7-.3-1.27-.75-1.27-1a15.52 15.52 0 012.91-3.77 2 2 0 01.83.53 1.25 1.25 0 01.56 1.21 3.62 3.62 0 01-1.34 2.45c-.71.69-1.11.83-1.69.59zm2 .57a3.79 3.79 0 001.79-2 1.66 1.66 0 00.18-1.45 3.22 3.22 0 00-.65-1.29 10.11 10.11 0 00-3-2.27c-.22 0-.25 0-.12.16.42.42 0 1.23-1.43 2.9-.3.35-.69.82-.85 1a.84.84 0 01-.75.42c-.26 0-.49.08-.51.15s.34.45.82.82 1 .87 1.29 1.11a2 2 0 001.78.75 2.92 2.92 0 001.47-.34zm3.14.59a2.12 2.12 0 01-.34-.2c-.11-.09.45-.6.66-.6a.94.94 0 00.46-.23c.35-.32.45-.17.2.31a5.06 5.06 0 00-.28.65c-.08.27-.3.3-.7.07zm1.63 4s0-.21-.05-.35a13.87 13.87 0 01.54-4.37 2.15 2.15 0 00.21-1.13c0-1.26-.15-1.27-1.59 0a10.86 10.86 0 01-1.43 1.11 6.32 6.32 0 00-1.08.8c-.74.66-1.16.9-1.45.85-.71-.13-.45.27.56.85a1.89 1.89 0 00.8.33c.06 0 .07-.26 0-.49s0-.5.31-.82c.47-.5.61-.51 1.32-.06s.75.59.59 1.28c-.1.42-.21.54-.57.65s-.45.17-.45.22a14.06 14.06 0 002.09 1.24.3.3 0 00.17-.08zm7.6 2.58a1.12 1.12 0 00-.18-.42c-.19-.3-.14-.47.89-3.13.42-1.06.63-1.44.89-1.56.53-.24.27-.52-.74-.79l-.92-.25-.42.52a15.85 15.85 0 01-2 2.26c-.12 0-.14-.44-.09-1.79l.07-1.85-.77-.38a6 6 0 00-.87-.38c-.21 0-.45.49-.33.7a3.55 3.55 0 01-.37 1.6c-.26.76-.58 1.69-.72 2.06a1.55 1.55 0 01-.62.91c-.54.3-.42.57.42.85s1 .17.74-.34c-.13-.24-.08-.51.25-1.48a12.33 12.33 0 01.9-2.32 11.72 11.72 0 010 2.26c-.09 2.15-.08 2.37.15 2.56s.16.35 2-2c1.14-1.46 1.51-1.83 1.32-1.35-.05.15-.25.78-.43 1.41-.41 1.41-.71 2-1 2.08a.29.29 0 00-.09.55c.55.36 1.91.58 1.91.32zM226.32 50.39c-.41 0-1 .06-.86.63-.14.76.93 1.14.93 1.71-.69.83-.79 2.22-2 2.6-.69.53-1.08-.94-1.81-.75-.45.49-.82 1.1-1.22 1.62 0 1.25-1.41 1.8-2.24 2.48-1.63 1.1-3.41 2.12-4.53 3.8-.75 1.05-1.87 1.89-2.33 3.12.22 1.36 1.34 2.38 2.14 3.45a29.74 29.74 0 007.14 6.33c.77.62 1.82 1 2.4 1.82.06.69-1 .86-1.49.72a7.29 7.29 0 00-5.45-.1c-.83.49-1.67-.37-2.55-.36-1.27-.18-3-.19-3.74 1a1.54 1.54 0 00.38 2c1.23 1 3 .93 4.5.87a8.26 8.26 0 003.08-1.07c1.29.13 2.33 1.3 3.7 1.07 1.23.17 2.3-.69 3.39-.93a7.17 7.17 0 004.06.9c.92 0 1.74-.7 2.59-.81 1.78.8 3.91 1.32 5.74.37 1-.64 1.93.24 2.92.35 1.52.48 3.06-.09 4.49-.63a4.76 4.76 0 003.86.57c1.09-.47 1.69-2.09.66-2.89-1.92-1.32-4.47-1-6.56-.32-1.05.55-2-.62-3.06-.51a10.61 10.61 0 00-4.3.48 1 1 0 01-1.38-.86c0-1.46-1-2.62-1.65-3.88-.84-1-2.27-1.11-3.26-1.93-.55-.32-1.07-.89-1.56-1.15-.61 1-1.92.54-2.6-.1s-1.54-.91-2.18-1.57c-.49-.46-1.43-.31-1.58-1.12s-1.19-.79-1.44-1.45c.29-.85 1.18-1.4 1.72-2.1.89-1 1.85-1.93 2.76-2.91.54-.29 1.26 0 1.73-.53.46-.32 1.29-.83.72-1.46s.24-1.34.88-1.31c.94 0 2.16-.39 2.85.47.47.47.94-.23 1.09-.64.62-.36 1.18.47 1.7.72 5.34 4.14 10.47 8.57 15.41 13.19 1.82 1.88 3.46 3.92 5.21 5.87 1.82 2.13 3.54 4.34 5.19 6.61a30 30 0 00-3.24-6.58 318.96 318.96 0 00-4.22-5.48 126.44 126.44 0 00-16.47-15.07c-.56-.56-1.45-1-1.74-1.7 0-.65 1-1.41.17-1.9-.5-.17-1.17.2-1.59-.33-1.2-1.07-2.47-2.44-4.24-2.28-.72 0-1.44-.06-2.16 0z" fill="#e6a300"/><path d="M259.29 83.46a94.06 94.06 0 00-7.5-9.21 10.28 10.28 0 01-1.28-1.49c0-.52-11.16-10.33-15.61-13.71-2.39-1.82-2.57-1.91-2.57-1.26 0 .34-.61.72-1 .61a1.14 1.14 0 01-.51-.43c-.2-.31-.27-.33-1.56-.28s-1.37.06-1.63.41-.27.36 0 .71a.73.73 0 01-.16 1.21 4.84 4.84 0 00-.79.58 1 1 0 01-1 .33c-.55-.09-.72 0-1.39 1a2.56 2.56 0 01-.66.58 4 4 0 00-.87.94 7.1 7.1 0 01-1.27 1.35q-1.27 1.05-.6 1.29a2.42 2.42 0 011.3 1.23c.14.44.21.5.66.5s.59.1 1.06.63a1.75 1.75 0 00.86.62 1.55 1.55 0 01.78.51c.9.94 1.94 1.16 2.45.52l.3-.38.81.72a11.13 11.13 0 003.33 1.86c.56.2.88.61 1.45 1.84a10.12 10.12 0 00.67 1.18 2 2 0 01.35 1.34c0 .74 0 .81.4 1s.49.17 1.44-.17a6.1 6.1 0 012.57-.37 4.79 4.79 0 012.5.39l1 .4 1.26-.39a12.66 12.66 0 012.22-.45c1.81-.13 3.79.52 4.34 1.43.71 1.17-.15 2.69-1.72 3a3.65 3.65 0 01-2.6-.41c-.67-.33-.78-.35-1.19-.18a5.71 5.71 0 01-3.4.6 9.87 9.87 0 01-2-.48l-.83-.34-.9.41a6.54 6.54 0 01-1.61.48 8.4 8.4 0 01-3.29-.58c-.73-.36-.7-.36-1.77.11a5.12 5.12 0 01-4.73-.11l-.9-.42-.88.43a4.53 4.53 0 01-4.77 0 8 8 0 00-1.21-.55 2.22 2.22 0 00-.64.33 6 6 0 01-3.56.85c-1.82 0-3.1-.35-3.82-1a1.81 1.81 0 01.13-2.71 4.52 4.52 0 012.42-.77 8.52 8.52 0 012.72.62c.35.18.45.17 1.14-.18a3.92 3.92 0 012.23-.37 4.86 4.86 0 012.39.38c.9.37.94.37 1.51.15.32-.12.58-.3.57-.38a2.39 2.39 0 00-.79-.64 36.42 36.42 0 01-5.36-3.78 6.87 6.87 0 00-1-1c-1.71-1.49-4.5-5-4.67-5.93-.12-.63 0-1 1-2 .47-.51 1.27-1.47 1.76-2.13a6.63 6.63 0 012-1.89l2.22-1.44c1.71-1.1 2.12-1.51 2.08-2.06a.66.66 0 01.28-.68 2.65 2.65 0 00.6-.81c.39-.81.78-.86 1.46-.19l.52.5.57-.22a1 1 0 00.73-.75 4.55 4.55 0 01.5-1.05 2.87 2.87 0 00.35-.58 2.3 2.3 0 00-.43-.45 1.43 1.43 0 01-.29-1.9c.23-.2.41-.24.89-.16a7.09 7.09 0 001.09.07c2.19-.06 2.14-.07 3.08.43a8.68 8.68 0 011.86 1.42c.92.94.95.95 1.28.73s.66-.15 1.11.35c.26.28.26.3-.1 1a3.65 3.65 0 00-.37.89c0 .1.23.34.52.53.71.47 4.66 3.61 6.47 5.14 1.55 1.31 3.06 2.69 6.48 5.93a59 59 0 015.72 6.13 34 34 0 002.78 3.61 28.68 28.68 0 013.78 7.4c.09.59-.24.46-.75-.31zm-1.12-2.92a31.61 31.61 0 00-4-5.85 17.79 17.79 0 01-1.43-1.91c-.34-.89-5.81-6.29-10.55-10.41-1.38-1.2-2.26-1.92-5.6-4.61-.54-.44-1.41-1.09-2-1.46l-1-.66-.33.38a1 1 0 00-.28.6 16.5 16.5 0 002.28 2c3.22 2.51 5.38 4.32 10.26 8.63a70.91 70.91 0 015.73 5.54 15.13 15.13 0 001.3 1.54 70.8 70.8 0 015.05 6 7 7 0 00.91 1.16 3.73 3.73 0 00-.42-.94zm-42.06.39c.95-.22 2-.79 2-1.07A7.84 7.84 0 00215.4 78a5.71 5.71 0 00-3.51-.08c-1.07.47-1.42 1.47-.75 2.14.88.88 3.18 1.27 5 .84zm14 0a.44.44 0 01.32-.14 2 2 0 00.72-.29l.49-.3-.56-.48c-.3-.27-.74-.66-1-.88a7.23 7.23 0 00-1.12-.77 6.69 6.69 0 00-4.34-.24 1.84 1.84 0 00-.87.46 11.94 11.94 0 003.23 2.23 9.38 9.38 0 002.78.53.36.36 0 00.32-.12zm14-.27c.33-.15.59-.33.59-.4a11.5 11.5 0 00-3.13-2.24 6.42 6.42 0 00-4-.2c-.42.15-.78.36-.8.47a8.7 8.7 0 002.48 1.88 6.58 6.58 0 004.86.49zm-14-3.1c0-.27 1.57-.57 2.7-.52s1.14 0 1.27-.32.12-.43-.95-2.38a6.24 6.24 0 00-.7-1.09c-.1-.08-.78-.46-1.5-.82s-1.48-.79-1.7-.93l-.23-.2.08.61a1.57 1.57 0 01-.14 1 2.05 2.05 0 00-.22.78 4.57 4.57 0 01-.21 1c-.36 1.19-.22 2.58.25 2.58a2.08 2.08 0 01.66.26c.47.25.84.25.84 0zm-3.22-.8c0-.24-.57-.84-1.07-1.16s-.41-.52.24-.19c.24.13.47.2.51.16s-.13-.36-.37-.72a3.33 3.33 0 01-.86-2.45l.09-.63.18.45a.94.94 0 01.11.57c-.19.31 1.39 2 1.85 2s1-2.43.77-3.11c-.12-.42-.18-.46-.75-.49a2.8 2.8 0 01-2.09-.67 4 4 0 00-1-.69 2.61 2.61 0 01-.87-.7c-.41-.53-.72-.63-.86-.26-.06.15 0 .32.29.5q.78.57.51 1.08c-.18.34-.53.36-.95.07s-.43-.68 0-.56.34-.29-.18-.83a3.88 3.88 0 01-.71-1.19 1.68 1.68 0 00-.7-1c-.82-.5-1.08-.21-.44.49.29.31.33.42.19.59s-.2.17-.43-.06a4.92 4.92 0 01-.48-2.59 2.19 2.19 0 01.75-.81 4.86 4.86 0 001.72-1.7 6.89 6.89 0 00.42-.73 1.14 1.14 0 00-.49 0c-.32 0-.49 0-.49-.08A.17.17 0 01222 62a3.12 3.12 0 00.81-.39 1.72 1.72 0 01.79-.34c.17.06 1-.78 1-1a2.67 2.67 0 00-.61-.75l-.62-.6-.39.28c-.32.23-.69.3-1.73.36h-.91a5.32 5.32 0 002.14-.68l.49-.34-1.16-1.16-.81.62a24.41 24.41 0 01-2.52 1.7 8.24 8.24 0 00-3.35 2.94 15.22 15.22 0 01-1.41 1.75c-.95 1-1.09 1.34-.75 1.86a31.65 31.65 0 003.71 4.55l1.94 1.82a34.6 34.6 0 004.82 3.38l.84.46-.64-.62a11.13 11.13 0 01-1.2-1.46 15 15 0 00-1.15-1.42c-.63-.64-.55-.73.41-.46.39.12.69.42 1.51 1.52a9.38 9.38 0 002.54 2.66c.49.3 1.26.4 1.26.18zm-9-8.65c-.21-.21-.06-1 .29-1.51s.61-.46.2.21c-.21.35-.25.54-.15.8.18.45 0 .79-.34.5zm-.65-1.35c0-.69 1-1.5 1.85-1.49.23 0 .18.06-.21.2-.69.24-1.08.6-1.08 1s-.24.64-.45.64c-.06 0-.11-.15-.11-.33zm7.27 9.78s-.06-.11-.14-.15-.14 0-.14.06a.15.15 0 00.14.15c.2.05.26.02.26-.01zM226.52 60c.14-.2.16-.33.07-.36s-.7.37-.7.56.41.1.63-.2zm-.43-.8a.47.47 0 00.36-.49c0-.51-.49-.47-.76.06s-.27.69.4.43zm-1-.46a2.26 2.26 0 00.27-.56c0-.22-.38-.09-.69.24s-.3.38-.15.56.25.28.57-.24zm-.51-.89c.25-.09.3-.69.07-.83s-.36.06-.48.53 0 .46.41.3zm2.9-.57c.22-.35.35-.45.52-.37a6.22 6.22 0 001.3.16c1 .05 1.08 0 1.58-.4a3.81 3.81 0 00.72-.86c.19-.36.18-.45-.07-1-.15-.35-.34-.63-.41-.63-.24 0-.46.4-.44.8 0 .62 0 .68-.34.85s-.41.09-.79-.19a1.81 1.81 0 00-1.75-.2l-.38.15.09-.66c.1-.74-.1-1.66-.39-1.77s-1.2 1.1-1.2 1.92c0 .45 0 .5-.38.5-1 0-.91.36.36 1.57.93.9 1.11.91 1.57.15zm4.47 0a7.92 7.92 0 011.05-1.77c1.12-1.5 1.35-1.89 1.23-2.08s-.33-.13-.6.46a3.05 3.05 0 01-.58.87l-.32.28.1-.58c.12-.75-.11-1.22-1.13-2.22a6.79 6.79 0 00-3-1.66c-.37-.06-.52 0-.86.34a2.21 2.21 0 01-.49.41A1.69 1.69 0 01227 51c-.39-.39-1-.46-1.11-.13a1.51 1.51 0 00.44 1.08c.33.19.87.23 1 .07.82-1 1-1.14 1.45-1.13a5.36 5.36 0 012.85 1.65c1 1 1.17 1.41.84 2.12a2.39 2.39 0 00-.24.86 3.12 3.12 0 01-.48 1.13c-.47.74-.51 1.19-.1 1.11.13 0 .27-.24.32-.49zm-8.34 0c.26-.5.08-.65-.35-.3-.21.16-.29.34-.23.48.13.35.34.29.58-.18zm-1.24-1.06a.68.68 0 000-.42c-.13-.13-.71.45-.61.62s.5.17.59-.2zm1 0q.31-.22.18-.36c-.17-.17-.39-.05-.59.32s0 .34.41 0zm6.92-1.79a2.3 2.3 0 01.63-.79c.33-.24.4-.36.28-.5-.25-.31-.6-.22-1.06.27-.62.65-.8 1.05-.59 1.3s.53.23.74-.28zm1.77-.22a.25.25 0 00-.21-.28c-.24 0-.25 0-.13.34s.34.27.34-.06zm-2.39-.8c.64-.75.71-1.09.26-1.24-.25-.08-.41 0-.84.5a1.71 1.71 0 00-.53 1c0 .61.44.51 1.11-.26zm-1-.79c.42-.54.45-.82.13-1.08s-.28-.12-.69.37c-.58.68-.64 1.18-.14 1.18a1 1 0 00.7-.47z" fill="#1f2c5c"/><path d="M245.45 77.59c-.92.22-1.95.77-1.95 1a7.6 7.6 0 002.64 1.78 5.61 5.61 0 003.41.07c1-.46 1.36-1.43.72-2.07-.85-.85-3.08-1.23-4.82-.82zm-13.36 0a.39.39 0 01-.31.13 1.91 1.91 0 00-.7.29l-.47.28.54.47c.3.26.72.64.94.85a7.57 7.57 0 001.09.75 6.47 6.47 0 004.2.23c.45-.15.83-.35.85-.45a11.84 11.84 0 00-3.14-2.14 9.09 9.09 0 00-2.68-.51.36.36 0 00-.32.12zm-14.39.22c-.32.14-.58.32-.58.39a11.32 11.32 0 003 2.17 6.22 6.22 0 003.87.19c.41-.15.76-.35.78-.45a8.51 8.51 0 00-2.4-1.83 6.33 6.33 0 00-4.71-.47z" fill="#1f2c5c"/><path d="M176.79 118.64a2.55 2.55 0 01-.57-.75 5.11 5.11 0 01-.18-2.08 2.93 2.93 0 011.21-.21h1.11v.86c0 .72 0 .9-.24 1.1a.84.84 0 00-.29.35c0 .13.77.14 1.38 0l.45-.09-.3-.23a1.49 1.49 0 01-.44-.91c-.18-1-.09-1.13.71-1.24s1.22 0 1.33.43a3.21 3.21 0 01-.35 2.11c-.43.59-.26.77.41.43s.61-.21.4-2.69a8.51 8.51 0 00-.26-1.77c-.07-.07-.26 0-.45.09a8.62 8.62 0 01-2.51.36l-2.19.17-.67-.64.09 1.86c.12 2.59.17 2.78.75 3.07a2.24 2.24 0 00.76.24c.23 0 .21-.06-.19-.43zm4.67 6c0-.9-.14-1.11-.41-.61-.13.25-.29.28-1.66.28a4.78 4.78 0 01-1.52-.12 13.46 13.46 0 011.79-1.18 10.3 10.3 0 001.86-1.28 5.35 5.35 0 000-2c-.06 0-.19.13-.28.28s-.32.27-2.51.27-2.36 0-2.62-.3-.33-.26-.38-.21a3.64 3.64 0 00-.15.93c-.06.88.14 1.11.49.55.16-.26.32-.28 2.16-.28a10.34 10.34 0 012.06.11c0 .06-.13.27-.37.46a19.82 19.82 0 01-2.38 1.5 10.28 10.28 0 00-1 .62c-1 .62-1.21 1-.74 1.23a21.46 21.46 0 002.57.09c2.31 0 2.35 0 2.64.33.17.18.35.3.41.27a2.6 2.6 0 00.1-1zm-3.94 6.28a6.53 6.53 0 001-1.63c.7-1.47 1.06-2 1.47-2 .92 0 .83 1.84-.14 2.92-.27.3-.46.58-.41.63a1.54 1.54 0 00.75-.11c.58-.18.65-.25.67-.61a4.75 4.75 0 01.17-1c.36-1.27.07-2.58-.63-2.84a2 2 0 00-1.62.19 8.24 8.24 0 00-1.38 2.5c-.31.75-.6 1.05-1.06 1.05s-.81-.33-.81-1.12a2.68 2.68 0 01.88-2.1c.6-.61.64-.83.12-.7-1.07.26-1.07.27-1.09.68a5.32 5.32 0 01-.24 1.07 3.29 3.29 0 000 2.3 1.57 1.57 0 002.34.68zm2 6.28c.24-.06.32-.24.44-1 .08-.5.25-1.5.38-2.2a5.42 5.42 0 00.14-1.37s-.19 0-.33.15c-.29.25-1 .22-3.32-.14-1.59-.25-1.66-.28-1.76-.69-.2-.8-.35-.36-.89 2.64-.28 1.58-.24 1.73.58 2.15s.84.25.35-.26a1.91 1.91 0 01-.45-.82 3 3 0 01.33-1.95c.22-.26.29-.26 1.2-.11l1 .16v.56c0 .88-.17 1.3-.55 1.48s-.23.33.74.46c.75.1.89 0 .48-.29-.25-.19-.3-.92-.11-1.66.09-.36.11-.37.83-.3 1.1.11 1.32.27 1.32 1a2.73 2.73 0 01-1 1.86c-.5.37-.12.57.67.36zm-3 6.87a1.55 1.55 0 01-.23-1v-.79h.65a4.72 4.72 0 011 .09c.3.08.33.14.27.75a2 2 0 01-.32.95 1 1 0 01-1.35 0zm1.53 1a2.9 2.9 0 00.56-1.14 17.36 17.36 0 00.52-3.32c0-.05-.23 0-.4.21-.4.38-.7.38-3 0-1.53-.28-1.91-.39-2.11-.65-.37-.44-.52-.2-.61 1l-.09 1 .31-.27c.27-.25.38-.26 1.34-.12a3.94 3.94 0 011.15.27 3.1 3.1 0 010 1.12 2.05 2.05 0 00.12 1.51 1.29 1.29 0 002.22.4zm-.36 5.87a29.66 29.66 0 00.48-4.51c-.06-.16-.15-.12-.43.15a.74.74 0 01-.66.28c-.17 0-1.12-.14-2.1-.22-2.13-.18-2.24-.21-2.35-.56-.05-.15-.14-.27-.19-.27a37.15 37.15 0 00-.57 4.44c0 .25.84.81 1.2.81.19 0 .18 0-.06-.31a2.85 2.85 0 01-.5-2.31l.13-.76h1.09a2.5 2.5 0 011.21.21 1.63 1.63 0 010 .78 1.33 1.33 0 01-.5 1c-.47.42-.44.44.75.61.67.09.83 0 .45-.35a2.41 2.41 0 010-1.9 2.46 2.46 0 011.77.25 2.37 2.37 0 01-.5 2.18 1.53 1.53 0 00-.34.61c0 .18.09.19.52.07a2 2 0 00.61-.23zm-.07 6.29c.11-.12.12-.57 0-1.68a15.63 15.63 0 01-.06-2.28l.08-.76-.67-.24a5.45 5.45 0 00-.77-.24c-.2 0 0 .34.33.78a1.37 1.37 0 01.42.94c0 .59 0 .58-2.54.67-1.88.07-1.92.06-2.25-.26a1.53 1.53 0 00-.4-.34 6.09 6.09 0 00-.06 1.17 3.94 3.94 0 00.09 1.18 1.47 1.47 0 00.41-.35l.32-.35 4.5.08v.52a2 2 0 01-.37 1c-.2.28-.33.56-.29.62s1-.23 1.25-.48zm-4.33 3.84l1.2-.21c.5-.08 1.36-.24 1.93-.36 1-.2 1-.19 1.41.08s.53.36.53-.13c0-1-.49-2.34-.66-1.82-.12.36-.47.55-1.17.64-.4.05-.94.15-1.21.21s-.93.19-1.49.28c-1 .18-1 .17-1.36-.15l-.36-.34.1.76a11.53 11.53 0 00.24 1.31l.14.55.19-.37a1 1 0 01.51-.45zm6 5.82l.54-.46-.53-1.85c-.29-1-.55-2-.57-2.18-.05-.46-.16-.53-1-.64s-1.07.1-.33.48 1.14 1.14.82 1.44a23.21 23.21 0 01-4.2 1.32.7.7 0 01-.48-.2c-.48-.58-.51.08-.06 1.48.25.76.39.82.58.25.13-.35.29-.45 1.23-.74a13.06 13.06 0 013.41-.74c.3.11.27.85-.05 1.54-.42.88-.21 1 .61.3z" fill="#e6a300"/></svg>