<svg xmlns="http://www.w3.org/2000/svg" width="600" height="315.79" viewBox="0 0 600 315.79"><path fill="#bf0a30" d="M0 0h600v315.79H0z"/><path fill="#fff" d="M0 24.29h600v24.29H0zM0 72.87h600v24.29H0zM0 121.46h600v24.29H0zM0 170.04h600v24.29H0zM0 218.62h600v24.29H0zM0 267.21h600v24.29H0z"/><path d="M240.22 170V0H0v170z" fill="#002868" fill-rule="evenodd"/><path d="M195 43.65h7.11l2.2-6.76 2.2 6.76h7.11l-5.75 4.18 2.19 6.77-5.75-4.19-5.75 4.19 2.19-6.77zM167 43.65h7.11l2.2-6.76 2.2 6.76h7.11l-5.75 4.18 2.19 6.77-5.75-4.19-5.75 4.19 2.19-6.77zM139 43.65h7.11l2.2-6.76 2.2 6.76h7.11l-5.75 4.18L154 54.6l-5.75-4.19-5.75 4.19 2.19-6.77zM111 43.65h7.11l2.2-6.76 2.2 6.76h7.11l-5.75 4.18L126 54.6l-5.75-4.19-5.75 4.19 2.19-6.77zM82.93 43.65H90l2.2-6.76 2.2 6.76h7.11l-5.71 4.18L98 54.6l-5.75-4.19-5.76 4.19 2.19-6.77zM54.91 43.65H62l2.2-6.76 2.2 6.76h7.11l-5.75 4.18L70 54.6l-5.75-4.19-5.78 4.19 2.19-6.77zM26.89 43.65H34l2.2-6.76 2.2 6.76h7.11l-5.75 4.18L42 54.6l-5.8-4.19-5.75 4.19 2.19-6.77zM209 17.46h7.11l2.2-6.76 2.2 6.76h7.11l-5.75 4.18 2.19 6.77-5.75-4.18-5.75 4.18 2.19-6.77zM181 17.46h7.11l2.2-6.76 2.2 6.76h7.11l-5.75 4.18 2.19 6.77-5.75-4.18-5.75 4.18 2.19-6.77zM153 17.46h7.11l2.2-6.76 2.2 6.76h7.11l-5.75 4.18 2.13 6.77-5.75-4.18-5.75 4.18 2.19-6.77zM125 17.46h7.11l2.2-6.76 2.2 6.76h7.11l-5.75 4.18 2.13 6.77-5.75-4.18-5.75 4.18 2.19-6.77zM96.94 17.46h7.11l2.2-6.76 2.2 6.76h7.11l-5.75 4.18 2.19 6.77-5.75-4.18-5.75 4.18 2.19-6.77zM68.92 17.46H76l2.2-6.76 2.2 6.76h7.11l-5.75 4.18L84 28.41l-5.75-4.18-5.75 4.18 2.19-6.77zM40.9 17.46H48l2.2-6.76 2.2 6.76h7.11l-5.75 4.18L56 28.41l-5.75-4.18-5.75 4.18 2.19-6.77zM12.88 17.46H20l2.2-6.76 2.2 6.76h7.1l-5.75 4.18 2.19 6.77-5.75-4.18-5.75 4.18 2.19-6.77zM209 148.39h7.11l2.2-6.76 2.2 6.76h7.11l-5.75 4.18 2.19 6.77-5.75-4.18-5.75 4.18 2.19-6.77zM181 148.39h7.11l2.2-6.76 2.2 6.76h7.11l-5.75 4.18 2.19 6.77-5.75-4.18-5.75 4.18 2.19-6.77zM153 148.39h7.11l2.2-6.76 2.2 6.76h7.11l-5.75 4.18 2.19 6.77-5.75-4.18-5.75 4.18 2.19-6.77zM125 148.39h7.11l2.2-6.76 2.2 6.76h7.11l-5.75 4.18 2.19 6.77-5.75-4.18-5.75 4.18 2.19-6.77zM96.94 148.39h7.11l2.2-6.76 2.2 6.76h7.11l-5.75 4.18 2.19 6.77-5.75-4.18-5.75 4.18 2.19-6.77zM68.92 148.39H76l2.2-6.76 2.2 6.76h7.11l-5.75 4.18 2.24 6.77-5.75-4.18-5.75 4.18 2.19-6.77zM40.9 148.39H48l2.2-6.76 2.2 6.76h7.11l-5.75 4.18 2.24 6.77-5.75-4.18-5.75 4.18 2.19-6.77zM12.88 148.39H20l2.2-6.76 2.2 6.76h7.1l-5.75 4.18 2.19 6.77-5.75-4.18-5.75 4.18 2.19-6.77zM195 69.84h7.11l2.2-6.77 2.2 6.77h7.11L207.83 74l2.17 6.78-5.75-4.18-5.75 4.18 2.21-6.78zM166.94 69.84h7.11l2.2-6.77 2.2 6.77h7.11L179.81 74l2.19 6.78-5.75-4.18-5.75 4.18 2.19-6.78zM138.92 69.84H146l2.2-6.77 2.2 6.77h7.11L151.79 74l2.21 6.78-5.75-4.18-5.75 4.18 2.17-6.78zM110.9 69.84h7.1l2.2-6.77 2.2 6.77h7.11L123.77 74l2.23 6.78-5.75-4.18-5.75 4.18 2.15-6.78zM82.88 69.84H90l2.2-6.77 2.2 6.77h7.11L95.75 74l2.19 6.76-5.75-4.16-5.75 4.18L88.63 74zM54.86 69.84H62l2.2-6.77 2.2 6.77h7.11L67.73 74l2.19 6.76-5.75-4.16-5.75 4.18L60.61 74zM26.84 69.84H34l2.2-6.77 2.2 6.77h7.11L39.71 74l2.19 6.76-5.75-4.16-5.75 4.18L32.59 74zM195 96h7.11l2.2-6.76 2.2 6.76h7.11l-5.75 4.18L210 107l-5.75-4.18-5.73 4.18 2.19-6.77zM166.94 96h7.11l2.2-6.76 2.2 6.76h7.11l-5.75 4.18L182 107l-5.75-4.18-5.75 4.18 2.19-6.77zM138.92 96H146l2.2-6.76 2.2 6.76h7.11l-5.75 4.18L154 107l-5.75-4.18-5.77 4.18 2.19-6.77zM110.9 96h7.1l2.2-6.76 2.2 6.76h7.11l-5.75 4.18L126 107l-5.75-4.18-5.79 4.18 2.19-6.77zM82.88 96H90l2.2-6.76L94.39 96h7.11l-5.75 4.18 2.19 6.82-5.75-4.18-5.75 4.18 2.19-6.77zM54.86 96H62l2.2-6.76L66.37 96h7.11l-5.75 4.18 2.19 6.82-5.75-4.18-5.75 4.18 2.19-6.77zM26.84 96H34l2.2-6.76L38.35 96h7.11l-5.75 4.18L41.9 107l-5.75-4.18L30.4 107l2.19-6.77zM195 122.21h7.11l2.2-6.77 2.2 6.77h7.11l-5.75 4.18 2.19 6.76-5.79-4.15-5.75 4.18 2.19-6.76zM166.94 122.21h7.11l2.2-6.77 2.2 6.77h7.11l-5.75 4.18 2.19 6.76-5.75-4.15-5.75 4.18 2.19-6.76zM138.92 122.21H146l2.2-6.77 2.2 6.77h7.11l-5.75 4.18 2.19 6.76-5.72-4.15-5.75 4.18 2.19-6.76zM110.9 122.21h7.1l2.2-6.77 2.2 6.77h7.11l-5.75 4.18 2.19 6.76-5.74-4.15-5.75 4.18 2.19-6.76zM82.88 122.21H90l2.2-6.77 2.2 6.77h7.11l-5.75 4.18 2.19 6.76-5.76-4.15-5.75 4.18 2.19-6.76zM54.86 122.21H62l2.2-6.77 2.2 6.77h7.11l-5.75 4.18 2.19 6.76-5.78-4.15-5.75 4.18 2.19-6.76zM26.84 122.21H34l2.2-6.77 2.2 6.77h7.11l-5.75 4.18 2.19 6.76-5.8-4.15-5.75 4.18 2.19-6.76z" fill="#fff" fill-rule="evenodd"/></svg>