<svg xmlns="http://www.w3.org/2000/svg" xmlns:xlink="http://www.w3.org/1999/xlink" width="600" height="400" viewBox="0 0 600 400"><defs><clipPath id="a"><rect width="349.57" height="200" fill="none"/></clipPath></defs><title>flag-hawaii-thumb</title><rect width="600" height="400" fill="#fff"/><rect y="49.55" width="600" height="50.06" fill="#cf142b"/><rect y="99.62" width="600" height="50.06" fill="#00237d"/><rect y="199.75" width="600" height="50.06" fill="#cf142b"/><rect y="249.81" width="600" height="50.06" fill="#00237d"/><rect y="349.94" width="600" height="50.06" fill="#cf142b"/><g clip-path="url(#a)"><rect width="349.57" height="200" fill="#00237d"/><rect x="141.49" y="-6.06" width="66.58" height="220.79" fill="#fff"/><polygon points="359.83 16.81 359.83 -5.85 318.89 -5.85 -4.97 179.31 -4.97 202.86 34.45 202.86 359.83 16.81" fill="#fff"/><polygon points="-3.82 -2.16 -3.82 21.39 317.21 204.91 358.15 204.91 358.15 182.24 35.59 -2.16 -3.82 -2.16" fill="#fff"/><polygon points="-2.53 201.71 23.95 201.71 184.49 109.95 177.98 98.54 -2.53 201.71" fill="#cf142b"/><polygon points="180.39 88.45 173.87 99.87 357.71 204.9 358.28 190.08 180.39 88.45" fill="#cf142b"/><polygon points="-5.07 12.73 168.69 112.09 175.2 100.67 -5.07 -2.41 -5.07 12.73" fill="#cf142b"/><polygon points="327.07 -1.85 146.39 101.46 152.9 112.88 352.79 -1.42 327.07 -1.85" fill="#cf142b"/><rect x="164.52" y="-111.8" width="13.43" height="371.03" transform="translate(244.95 -97.52) rotate(90)" fill="#fff"/><rect x="164.52" y="-58.36" width="13.43" height="371.03" transform="translate(298.39 -44.08) rotate(90)" fill="#fff"/><rect x="151.23" y="-85.08" width="40.01" height="371.03" transform="translate(271.67 -70.8) rotate(90)" fill="#cf142b"/><rect x="154.79" y="-6.06" width="39.96" height="220.79" fill="#cf142b"/></g></svg>