<svg version="1.1" id="Layer_1" xmlns="http://www.w3.org/2000/svg" x="0" y="0" viewBox="0 0 1200 900" xml:space="preserve"><style>.st0{fill:#fff}</style><path class="st0" d="M0 0h1200v900H0z"/><path fill="#002868" d="M0 0h1200v450H0z"/><path fill="#bf0a30" d="M0 0h450v900H0z"/><path class="st0" d="M338 595.1l-108.7-80.7-108.9 80.5 42.9-128.7-110-79.2 135.3 1.2 41-129.4 40.7 129.5 135.3-.9-110.1 78.8L338 595.1zM37.2 311l8.5-12.9 22.6 7.8-16-17.7 8.5-12.9 31.7 21-5.3 8-24.2-16 20 22.2-4.8 7.3-28.2-9.9 24.2 16-5.3 8L37.2 311zm71.7-72.6l11.4-6.3 12.9 7.6.6-15 11.3-6.2-2.3 26.5 7.6 14-10.3 5.7-7.6-14-23.6-12.3zm6.7 35.2l-10.8 7.8 2.2 6.2-9.7 7-10.6-39.3 10.4-7.5 33.7 22.6-10 7.2-5.2-4m-6.8-5.2l-11.4-8.7 4.6 13.6 6.8-4.9zm112.9-44.8c.4-7.2 2-12.2 4.7-15 2.8-2.7 6.8-4 12.1-3.7 7.2.4 12.2 4.1 13.6 11.3.6 2.9.7 5.8.6 8.9-.4 6.9-1.8 11.9-4.3 15-2.5 3.1-6.6 4.4-12.3 4.1-8-.4-12.8-4.7-14.1-12.6-.4-2.4-.5-5.1-.3-8m10.4.6c-.2 3.3-1.1 12.6 4.3 12.9 5.4.3 5.5-8.6 5.7-12 .2-3.5 1.1-12.8-4.4-13.1-5.4-.3-5.4 8.8-5.6 12.2zM218 243.3l-31.5 3.4c0-3.2.8-6.2 2.3-9.1 1.5-3 4.6-6.6 9.3-10.8 2.8-2.6 4.6-4.6 5.3-5.8 1.2-2.1 1.5-4.7-.7-6.3-1.9-1.5-5-1.1-6.5.7-.8.9-1.2 2.5-1.2 4.6l-10.6.3c.1-3 .6-5.4 1.5-7.2.9-1.8 2.3-3.2 4.2-4.3 4.3-2.5 12.1-3.3 16.9-1.9 4.2 1.2 7.2 4.7 7.7 9.1.2 2.3-.2 4.6-1.3 6.8-2.8 5.6-8.8 9-12.8 13.8l16.4-1.8 1 8.5zm177.1 50.9l12.9 21.5-7.2 4.4-8.7-14.6-5.3 2.2c2 1.3 3.7 3 5 5.1 3.6 6.1 2.5 13.5-3.8 17.3-4.2 2.6-9.8 2.9-14.1.3-4.1-2.5-7.3-7.8-8.7-12.3-1.4-5 0-9.5 3.5-13.3l6.5 8.6c-3.3 2.7-3.6 8.6 1.5 9.4 3 .5 7.7-2.2 8.5-5.2 1.1-3.9-2.3-6.6-5.7-7.3l-3.5-8.4 19.1-7.7zm-29.6-30.5l24.5 18.7-4.3 5.7c-11.9 1-21.9 7.4-29.7 16.2l-8.4-6.4c8.1-8.1 16.3-12.9 27.4-15.7l-14.9-11.4 5.4-7.1zm-29.2-22.5l26.1 16.4-3.8 6c-11.8 2.1-21.2 9.4-28.2 18.8l-8.9-5.6c7.3-8.8 15.1-14.3 25.9-18.1l-15.9-10 4.8-7.5zm-9.8-6.1l-16.9 34.8-9.6-4.7 11.1-22.8c-4.2.8-8.2.8-12.4.1l3.8-7.8c5.9.8 11.4.4 16.2-3.4l7.8 3.8zm-71.7-28.5l15 2.2-.6 4.2-5-.7-1.9 13-4.9-.7 1.9-13-5-.7.5-4.3zm16 2.4l4.9.7-.9 6 5.4.8.9-6 5 .7-2.5 17.2-4.9-.7 1-7-5.4-.8-1 7-4.9-.7 2.4-17.2zM76.5 560.5l9.4 12.3-14.7 18.8 21.9-9.4 9.4 12.2-30.1 23.2-5.8-7.6 23-17.7L62 604.1l-5.3-6.9 18.5-23.6-23 17.7-5.8-7.6 30.1-23.2zm64.7 65.3l10.2 8.1-1.9 14.9 13.9-5.4 10.2 8-25.2 8.3-9.8 12.5-9.2-7.3 9.8-12.5 2-26.6zM107 640.3l-10.6-8.2-5.3 3.9-9.5-7.3 34.5-21.4 10.1 7.8-11.8 38.9-9.7-7.5 2.3-6.2m3.1-8l5-13.4-11.6 8.3 6.6 5.1zm115.3 42.9c0-11.2 3.4-19.5 15.8-19.5 11.8 0 15.2 8.9 15.2 19.4 0 11.1-3 20-15.5 20-12.2 0-15.5-9.2-15.5-19.9m10.5.1c0 3.3-.4 12.6 5 12.6s5.1-8.8 5.1-12.3.4-12.8-5.1-12.8c-5.5-.1-5 9.1-5 12.5zm-15.7 18.5l-31.6-1.7c.5-3.1 1.8-6 3.8-8.6 4.6-6.1 12.5-8.5 17.1-14.1 2.4-3 1.6-7.5-2.8-7.8-3.4-.2-4.7 2.5-5.3 5.5l-10.5-1.4c1.7-8.9 7.2-11.8 15.9-11.3 7.2.4 15.1 3.2 14.7 11.9-.5 9.4-11.1 12.7-17.2 18.1l16.4.9-.5 8.5zm162.5-139.7l29.7 24.7-6.8 8.2-19.5-16.2c-.2 4.3-1.2 8.1-2.8 12.1l-6.7-5.5c2.2-5.5 3.1-11 .5-16.6l5.6-6.7zM375 586l-6.4 8.5c-1.2-.8-2.3-1.2-3.2-1.2-2.9.1-4 3.3-3.2 5.8.4 1.4 2 3.6 4.7 6.7-.1-3.4.9-6.3 3.2-8.7 5-5.1 12.7-4.6 17.6.2 3.4 3.3 5.1 8.3 3.6 12.9-2.6 8.5-11.8 14.5-20.4 11.7-7.5-2.5-16.8-11.9-17.3-20-.4-6.6 4.7-13.8 10.6-16.4 3.7-1.7 7.4-1.3 10.8.5m3.2 28.1c2.9.1 5.4-2.1 5.2-5.1-.2-3-3.9-6.5-6.9-6.7-3-.2-5.3 2.3-5.1 5.2.1 3.1 3.7 6.4 6.8 6.6zm-39.6 19c-3.6.5-6.7-.6-8.9-3.6-4.2-6 .4-12.7 5.4-16.2 5.3-3.8 13.4-6.8 18-.2 2 2.9 1.9 6.2.6 9.4 4.1-.7 7.9.7 10.3 4.1 5.1 7.2.4 14.1-5.7 18.5-6.4 4.5-14.3 7-19.6-.6-2.5-3.8-2.6-7.7-.1-11.4m-.5-8.9c3.3 4.7 10.4-.2 7.1-4.9-3.3-4.8-10.4.2-7.1 4.9m16.4 15.5c5.3-3.8-1.3-13.1-6.7-9.3-5.4 3.8 1.3 13.1 6.7 9.3zm-37-12.5l17 34.8-9.6 4.7-11.1-22.8c-1.9 3.8-4.4 6.9-7.5 9.9l-3.8-7.8c4.3-4.1 7.3-8.8 7.2-14.9l7.8-3.9zM256.3 657l14.8-3.3.9 4.2-5 1.1 2.8 12.8-4.9 1.1-2.8-12.8-5 1.1-.8-4.2zm15.8-3.5l4.8-1.2 1.5 5.9 5.3-1.3-1.5-5.9 4.9-1.2 4.3 16.9-4.9 1.2-1.7-6.8-5.3 1.3 1.7 6.8-4.8 1.2-4.3-16.9z"/></svg>