<svg xmlns="http://www.w3.org/2000/svg" width="600" height="376" viewBox="0 0 600 376"><title>flag-massachusetts-dimensions</title><rect x="25.78" y="1.57" width="573.28" height="343.97" fill="#fff" stroke="#50d6cc" stroke-miterlimit="10" stroke-width="0.92"/><path d="M309.35,249.12c37.59-20.7,60.82-75,54.08-146H255.26c-6.74,71,16.49,125.29,54.09,146" fill="none" stroke="#50d6cc" stroke-miterlimit="10" stroke-width="0.92"/><path d="M275.73,109.09l2.85,8.56,9,.09-7.22,5.37,2.7,8.63-7.31-5.25-7.32,5.25,2.7-8.63-7.22-5.37,9-.09,2.86-8.56Z" fill="#fff" stroke="#50d6cc" stroke-miterlimit="10" stroke-width="0.92"/><path d="M381.75,198.48l.18-.4c.75-1.82.39-1-.18.4" fill="#31319c"/><path d="M309.35,265.66c-5.2,0-10.64-.24-10.64-2.85V251.86c0,2.62,5.44,2.86,10.64,2.86m-6.21-.33s1.71-5.39-2.3-5.39-18.91-1.19-29.32-13.81-14.42-20.69-15.13-24.5-1.18-5.24.71-5.71l-10.17,3.33s-1.42,3.34-.47,5.95A69.44,69.44,0,0,0,263,242.1c11.82,11.89,20.83,17,35.73,17.43m0-7.47c0-1.16.78-1.78,2-.82,1.65,1.29,2.75.61,2.6-.6m-46.9-39.83a14.64,14.64,0,0,0,2.83-.72c1.18-.47,2.84-3.45,1.18-9s-3.3-8.1-6.26-7.39l-2.24.6m-3.31,6.55a13.49,13.49,0,0,1,1.65,6.29m-4.61-5.46,10.17-2.86c-5.86-4.64-9.58-13.74-6.56-32.84s6.38-33.91-1.42-42.11l-11.35-1.61s3.37,1.61,4.43,8,1.6,11.78-2.48,33.2S240,199,245.63,201.65Zm-9.16-79.6s-3.9,1.07-1.6,5.7,2.13,4.64.53,8.4-.56,6.22,2.45,8.36a4.64,4.64,0,0,1,1.28-6.58l2.3,3.57M256.82,205s2.83-.78,1.55,2a7.88,7.88,0,0,0-.66,1.34c-.49,1.12.66,2.27,1.64,1.6m-3.69-11.15c1.51-.45,2.47-1.47.45-2.18-2.17-.77-2.09-2.76-1-3m54.26,72.09c5.2,0,10.64-.24,10.64-2.85V251.86c0,2.62-5.44,2.86-10.64,2.86M320,259.54c14.89-.48,24.93-5.35,36.44-17.56,13.12-13.92,16.55-31,18-40.33.83-5,2.25-6.9,3.91-6.55l-9.46-2.37a7.15,7.15,0,0,0-4.85,5.7c-3.19,16.07-2.93,23.34-16.55,37C333,249.92,321.88,249,317.86,249s-2.31,5.39-2.31,5.39m4.44-2.33c0-1.16-.78-1.77-2-.82-1.66,1.3-2.75.61-2.6-.6m58.95-49.11a12.5,12.5,0,0,0,2.84.83c1.54.24,2.6.83,4.73-4.28s-4.61,11.06.11-.36-.23-34.26-.23-34.26c-4.08-21.42-3.55-26.78-2.48-33.2s4.43-8,4.43-8l-11.35,1.61c-7.8,8.2-4.53,23-1.42,42.11,2.48,15.23,3.13,17.61.89,27.49m11.58-71.39s4.14,1.66,1.07,7.61-5.44,11.31-1.07,14.28m-4.72-.47s3.43,1.79,5.08.83,2.13-2.26.71-4.4-.47-3.69.47-4.4c0,0-3.07.24-3.9,4.28m-3.31,55.32c2,.48,2,2.74.59,3.93s-2.12,3-.47,3.45" fill="none" stroke="#50d6cc" stroke-width="1.01"/><path d="M287.75,144.45a.72.72,0,0,1,.17.61,6.4,6.4,0,0,1-1.56-.4c-.21,0-.42-.22-.6,0s-.07.5-.39.36a1,1,0,0,1,.15-.86,1.82,1.82,0,0,1,1.48,0,.77.77,0,0,1,.75.33" fill="#50d6cc"/><path d="M287.28,145.41a.75.75,0,0,1,.67.68l-.11.18c-.85-.58-1.88,0-2.73,0a.6.6,0,0,1,0-.58,2,2,0,0,1,1.89-.26h.28" fill="#50d6cc"/><path d="M288,147.05l0,.43a2.41,2.41,0,0,0-1.6-.29l-1.21.42c-.21-.11-.14-.39-.14-.56.4-.43,1-.36,1.43-.53s1.23,0,1.55.53" fill="#50d6cc"/><path d="M332.41,152.17c-.62,2.67-1.55,5.34-2.31,8-.25.43-.25,1-.54,1.39-.68,2.6-1.51,5.09-2.34,7.63-.6-1,.26-1.83.4-2.75.26-1.18.69-2.18.9-3.38.61-1.28.69-2.61,1.37-4,.51-1.85,1-3.67,1.59-5.41.25-.53.28-1,.5-1.61.14,0,.35-.06.42.08" fill="#50d6cc"/><path d="M331.24,153.23a1,1,0,0,1-.36-1l.4-.89a2.16,2.16,0,0,1,0,1.92" fill="#50d6cc"/><path d="M332.39,155.55c-.18.11-.28.33-.5.39.43-1.24.4-3,1.55-3.84a31.7,31.7,0,0,1-1.05,3.45" fill="#50d6cc"/><path d="M331.06,153.91c-.37.71-.48,1.49-.8,2.2-.53-.88.05-1.85.37-2.74.14.21.71.15.43.54" fill="#50d6cc"/><path d="M329.9,157.62c-.25,0-.21-.29-.35-.39a1.15,1.15,0,0,1,.25-1.08c.71.36.18,1,.1,1.47" fill="#50d6cc"/><path d="M332.14,156.38c-.15.61-.12,1.43-.86,1.6a13.57,13.57,0,0,1,.47-1.82c.14,0,.21.28.39.22" fill="#50d6cc"/><path d="M307,111.91a13.69,13.69,0,0,1,.06,1.71,14.53,14.53,0,0,0-1.94-2.48c-.14.08-.1.28,0,.37a9,9,0,0,1,1.05,1.6,2.18,2.18,0,0,1-1.42-.9,2.24,2.24,0,0,1,.23-1.31,1.84,1.84,0,0,1,2.05,1" fill="#50d6cc"/><path d="M308.87,116.52c0,.13.07.17.11.24s.28-.39.35-.63a3,3,0,0,1,0-.79,2.79,2.79,0,0,1-.08,2.36c-.46-.61-.67-1.4-1.09-2s-.77-1.33-1.05-2c0,0,0,0,.07,0a1.9,1.9,0,0,0,.29-1.57,4.91,4.91,0,0,1,1.36,4.33" fill="#50d6cc"/><path d="M306.85,117.15a6.62,6.62,0,0,1,.83,2.39c0,.08-.07.14-.14.11a34.7,34.7,0,0,0-4.39-6.55c-.22,0-.22.25-.15.36a24.18,24.18,0,0,1,4,6.86c-.24.29-.56-.1-.84-.21-.14-.76-1.1-.79-1.31-1.51.32-.25.92,0,1.07-.35-.21-.25-.56-.14-.85-.25-1.06.14-1.13-1-1.59-1.69a1.41,1.41,0,0,0-.1-.32c.39,0,.95.4,1.31,0-.81-.39-2.05-.82-2-1.93a1.18,1.18,0,0,1,.18-1.17c2,.29,3,2.69,4,4.26" fill="#50d6cc"/><path d="M306,113.54c.68-.28.71.75,1.06,1.08v.14l-1.35-.4c-.24-.36-.66-.54-.66-.93.31,0,.63.11.95.11" fill="#50d6cc"/><path d="M308.3,117c-.42-.49-1.39-.21-1.45-1a1.6,1.6,0,0,1,1.45,1" fill="#50d6cc"/><path d="M308.86,118.55c0,.17-.25.17-.39.14-.39-.39-.85-.76-.88-1.33a1.84,1.84,0,0,1,1.27,1.19" fill="#50d6cc"/><path d="M305.8,127.24a.89.89,0,0,1,.08.57,3.58,3.58,0,0,1-.14-1.64,10.61,10.61,0,0,1,.06,1.07" fill="#50d6cc"/><path d="M289.74,128.16a3,3,0,0,0,.13,2.14c0,1.28.27,2.4.23,3.64H290c-.1-1.17-.13-2.28-.34-3.57l-.11-.07-.25.24c-.33,2.57-.77,5.64-1,8l.07.07a26.57,26.57,0,0,0-.26,3.65c.28.13.6.35.6.7.06.75-.22,1.43-.12,2,.53.74,1.27,1.53,1,2.42-.43.24-.47,1.14-1.14.89-.42-.5.36-1-.13-1.54-.14-.42.35-.85,0-1.28a1.13,1.13,0,0,0,0-1.1,1.59,1.59,0,0,0-1.27-.83l-.21-.22c.18-1.82.48-3.53.73-5.38.48-2.89.78-5.49,1.46-8.38.08-.35-.35-.57-.13-.85s.56-.32.57-.75h.1v-.11c.25-.07.11.15.22.26" fill="#50d6cc"/><path d="M315.68,129.65c-.11,1.31.77,2.39,1.05,3.6.35.43.21,1,.31,1.53-.27-1.46-1.37-2.68-1.36-4.21,0-.07-.11,0-.17-.07-.22.14-.08.35-.15.53-.21-.46,0-.92,0-1.42l.08-1.25c.31.43.1.85.23,1.29" fill="#50d6cc"/><path d="M305.84,134a17.69,17.69,0,0,1-.37,2.1,8,8,0,0,1,.59-4.31,8,8,0,0,0,.19-.93,10.25,10.25,0,0,0-.25-2l0-.31a7.29,7.29,0,0,1-.2,5.49" fill="#50d6cc"/><polyline points="315.28 131.26 315.39 131.43 315.28 131.26" fill="#50d6cc"/><path d="M315.42,131.53c.11.69.07,1.43.56,1.9a6.29,6.29,0,0,1,.46,1.5c-.17-.86-.85-1.29-.88-2.14a3.71,3.71,0,0,1-.27-1.3c0,.08.1,0,.13,0" fill="#50d6cc"/><path d="M314.42,134.45l0,.18-.18-.07c-.1-.18.18-.39.22-.11" fill="#50d6cc"/><path d="M313.85,134.7c.07.11,0,.43-.18.35a.15.15,0,0,1-.21-.14c0-.17.22-.25.39-.21" fill="#50d6cc"/><path d="M313.24,135.27c0,.14-.14.14-.21.25s-.18-.07-.21-.18a.21.21,0,1,1,.42-.07" fill="#50d6cc"/><polyline points="316.61 135.5 316.51 135.15 316.61 135.39 316.61 135.5" fill="#50d6cc"/><path d="M314.63,135.27c.07.11,0,.19-.11.26a.19.19,0,1,1,.11-.26" fill="#50d6cc"/><path d="M314.06,135.63c-.11.11,0,.25-.15.31s-.21-.1-.28-.2a.29.29,0,0,1,.43-.11" fill="#50d6cc"/><path d="M312,136.15c-.22.11-.39-.18-.64-.11,0-.46.53,0,.64.11" fill="#50d6cc"/><path d="M313.28,136.12c.1.08,0,.19-.08.21s-.14,0-.17-.14.28-.32.25-.07" fill="#50d6cc"/><path d="M312.63,136.33l0,.33a.31.31,0,0,1-.32-.12c0-.21.18-.42.35-.21" fill="#50d6cc"/><path d="M306.86,136.81l-.36.22c-.07,0,0-.15,0-.22a.28.28,0,0,1,.4,0" fill="#50d6cc"/><path d="M300.23,158.82c.14-.21.07-.57.21-.81l-.11.81h-.11" fill="#50d6cc"/><path d="M300.11,159.39c-.07-.14,0-.32.12-.5a.7.7,0,0,1-.12.5" fill="#50d6cc"/><path d="M321.28,160.64c0,.35-.5.35-.75.49-2.66.35-4.8,1.9-7.6,1.78-.14.15,0,.29.14.33,1,.22,1.85-.32,2.76-.24.18-.18.33,0,.54-.11a16.74,16.74,0,0,1,4.9-1.19.66.66,0,0,1,.24.47,12.81,12.81,0,0,1-1.63.24c-1,.24-1.71.84-2.63,1.13a19.85,19.85,0,0,1-5,.62,1.31,1.31,0,0,0-.42-.11c.21-.14.6.14.74-.21-.28-.29-.85-.15-1.27-.12-1.67.67-3.12-.37-4.67-.63a6.94,6.94,0,0,1-2.88-.37c-.06-.06-.14-.24,0-.32a5.87,5.87,0,0,1,3.9,0,7,7,0,0,0,4,.54c1.07-.27,2.34-.16,3.33-.41.08-.09-.07-.13-.1-.21a14.49,14.49,0,0,0-3.55.16,7.86,7.86,0,0,1-3.5-.59h-.14c-.22-.06-.5-.18-.7-.24a6.45,6.45,0,0,0-2.91.08h-.39a1.43,1.43,0,0,0,0-.93c.46-.32,1.1.08,1.66,0s.85.33,1.32.22c2.26.66,4.21.24,6.58.43-.56.1-1.24.13-1.84.27.07.07.06.18.17.18.5-.1,1.1.18,1.67.08s1.13-.17,1.74-.21c.28-.17.7-.06,1-.13v.1c2.09.59,3.3-1.23,5.19-1.29l.17.22" fill="#50d6cc"/><path d="M322.45,166.92c-.61-.18-.39-.82-.6-1.39.43.33.46,1,.6,1.39" fill="#50d6cc"/><path d="M322.48,168.74c-.18-.07-.08-.21-.07-.39.13,0,0,.26.07.39" fill="#50d6cc"/><path d="M323.28,170.46a2.83,2.83,0,0,1-.17-1c.32.26.1.75.17,1" fill="#50d6cc"/><path d="M306.87,170.84a1.57,1.57,0,0,1-.07-.93,1,1,0,0,1,.07.93" fill="#50d6cc"/><path d="M316.32,173.21a5,5,0,0,1-.3,2.42h-.21a16,16,0,0,1,.3-2.56.17.17,0,0,1,.21.14" fill="#50d6cc"/><path d="M324.92,176.5a20.37,20.37,0,0,1-1.16,4.05c-1.11,3.57-2.23,7.1-3.35,10.66-.74-.07,0-.64-.13-1a12.51,12.51,0,0,0,.57-2,3.42,3.42,0,0,0,.22-.42c.25-1.18.68-2.17.93-3.25.47-1.21.94-2.85,1.3-4.16.18-.07,0-.18.11-.28.29-1.11.76-2.17,1.08-3.24.1-.18.21-.36.43-.39" fill="#50d6cc"/><polyline points="324.76 179.35 324.8 179.35 324.79 179.53 324.76 179.53 324.76 179.35" fill="#50d6cc"/><path d="M324.79,179.64c0,.89.21,2,.13,2.78.08-.4-.31-.79-.17-1.21a3.94,3.94,0,0,1,0-1.57h.07" fill="#50d6cc"/><path d="M323.5,184.05c0-.21-.14-.53,0-.71.07.22.18.54,0,.71" fill="#50d6cc"/><polyline points="324.1 183.84 324.14 183.84 324.13 184.17 324.1 184.17 324.1 183.84" fill="#50d6cc"/><path d="M324.91,184.55c0-.17,0-.39.07-.49l-.07.49" fill="#50d6cc"/><polyline points="324.06 184.85 324.09 184.59 324.09 184.8 324.06 184.84" fill="#50d6cc"/><path d="M325,186.38a.83.83,0,0,1-.1-.82c0-.18-.11-.53.07-.71.32.5-.11,1,0,1.53" fill="#50d6cc"/><path d="M300.65,187.47c-.14,0-.18-.13-.14-.18s.11.11.14.18" fill="#50d6cc"/><path d="M308.4,190.29a1,1,0,0,1-.29,1c-.25.1-.21-.22-.25-.29,0-.29.18-.75.54-.75" fill="#50d6cc"/><path d="M320.59,191.82l.1.13c-.1.3-.74.18-.49.61a3.29,3.29,0,0,1,.74.75,9.46,9.46,0,0,1-1.71,2.24l-.33.25a10.25,10.25,0,0,1-.41-1.71,4.32,4.32,0,0,0-.21-1.42c.36-.21.89-.15,1.32-.33a.59.59,0,0,0,0-.42c-.07-.1-.31-.18-.24-.39.45-.07.77.18,1.2.29" fill="#50d6cc"/><path d="M315.6,217.73a6.81,6.81,0,0,0,2.66,1.33,2,2,0,0,0-.79,1.13c-.1.12-.25,0-.35.08a8.16,8.16,0,0,1-2.47-2.94c.25-.6.7.19,1,.4" fill="#50d6cc"/><path d="M320.66,219.43a4.08,4.08,0,0,1,1.72,3.9,2.84,2.84,0,0,1-.15,2c-1,.74-1.91-.27-2.87-.41a4,4,0,0,1-2.08-2.58c-.28-.39-.35-.93-.67-1.28-.52-.86-2.55-.8-1.69-2.26A15.49,15.49,0,0,0,317.5,221c.57,0,.39-.86.82-1.06a5.47,5.47,0,0,0,1.27,2.06c.39.54.84,1,1.59.8a.84.84,0,0,0,.39-.86c-.17-.74-.92-1.11-1.27-1.79.11,0,.18,0,.22-.13.07-.4-.21-.65-.46-1a1.39,1.39,0,0,0-.81-.36c.39-.28.39-.82.68-1.24.14.71.88,1.18.73,2" fill="#50d6cc"/><path d="M307.09,218.86c0,.18.18,0,.25.15a1.35,1.35,0,0,1-.82.46,3.12,3.12,0,0,1-2.8.3c-.25-.28-.17-.63-.24-1,.24.29.81,0,1.16,0,.15-.25.43,0,.61-.18.64,0,1.24.15,1.84.22" fill="#50d6cc"/><path d="M303.22,219.63l.28.58a1.77,1.77,0,0,0-1.42,1.09c-.42-.86.47-1.67.83-2.45.28.07.14.53.31.78" fill="#50d6cc"/><path d="M308.76,219.44c.1.72-.72.9-1.07,1.29a4.78,4.78,0,0,1-2.78.87c-.38-.28-.2-.67-.55-.93v-.17a8.27,8.27,0,0,0,2.62-.56,8.5,8.5,0,0,0,1.17-.71c.21,0,.5-.07.61.21" fill="#50d6cc"/><path d="M319,219.28c0,1.21,1.13,1.83,1.55,2.86-.43,0-.39-.5-.71-.71a2.64,2.64,0,0,1-.95-2.15H319" fill="#50d6cc"/><path d="M320.09,220c-.21.15-.11.26-.14.43-.35-.28-.32-.74-.42-1.14.32.08.46.47.56.71" fill="#50d6cc"/><polyline points="303.68 220.75 303.64 220.32 303.71 220.49 303.68 220.75" fill="#50d6cc"/><path d="M302.46,223.41c-.35,0-.39.5-.75.49.36-.39.79-.93,1.11-1.34a3.31,3.31,0,0,0,.82-1.61,4.16,4.16,0,0,1-1.18,2.46" fill="#50d6cc"/><polyline points="302.89 221.16 302.93 221.17 302.93 221.34 302.89 221.34 302.89 221.16" fill="#50d6cc"/><path d="M304.81,222.14a10.27,10.27,0,0,0,3.19-.74c-.07.47-1.17.24-.68.82l.71-.17c-.78.7-1.88,1-2.7,1.69-.89.89-1.61,2.42-3,2.48l-1,.32v.22c.39.21.74-.19,1.17-.15a2.45,2.45,0,0,1-1,.57c-.5.25-1.21.64-1.67.28a10.92,10.92,0,0,1-.48-2.68c.18-1.67,2.1-1.84,2.64-3.3a.27.27,0,0,1,.21.21V222c-.28.74-2.31,1.16-1.17,2.19a.81.81,0,0,0,.88.22,4.87,4.87,0,0,0,2.18-3.08,1.35,1.35,0,0,0,.67.85" fill="#50d6cc"/><path d="M301.51,223.29c.14-.13.31-.39.49-.45,0,.28-.35.28-.49.45" fill="#50d6cc"/><path d="M315,135.85l.09-.08h0Z" fill="#50d6cc"/><path d="M314.65,131h0S314.65,131,314.65,131Z" fill="#50d6cc"/><path d="M314.06,121c-.25-.27-.64-.53-.74-.85,0-.11.1-.07.18-.11.74.3,1,1.15,1.51,1.72a15.4,15.4,0,0,1,.47,5.68c0,.25-.11.64,0,.82l.07,0a3.6,3.6,0,0,0-.06-.78,10.65,10.65,0,0,0,.15-3.17c0-2-.68-4.22-2.52-5.26-.18-.15-.43-.15-.57-.25-.43.07-.71-.32-1.17-.19-.46-.18-1,.39-1.21-.18h0A2.09,2.09,0,0,0,310,117c0,.46-.43.81-.64,1.17,0,.21.31.33.46.44-.11.42-.54.35-.89.52a8.52,8.52,0,0,0-3.19,7l.29-1.85.21-.21c.29.37-.11.82-.11,1.21a10.68,10.68,0,0,0,.65,4.61,4.16,4.16,0,0,1,.06,3.5c-.25,1.1-1,2.24-.76,3.35l.25-.71c.18-.22.18-.61.5-.64v-.22c.32-.53.56.29.88.3,0,0,0,0,0-.07s-.07-.33-.28-.26a.59.59,0,0,1-.28-.65c.07-.14.28-.24.39-.17s.39.29.31.5l.47.07c-.47,0-.39-.53-.74-.71a.45.45,0,0,1,0-.71.77.77,0,0,1,.28,0,1.14,1.14,0,0,0,.64.65c-.11.47.49.26.56.47,0,.49.85.07.84.64.12-.21.36-.07.54-.1a.84.84,0,0,1,.21.32l.18-.15a.42.42,0,0,1,.49.05.36.36,0,0,0,.47-.15c.35-.13.45.22.59.4.11-.29-.06-.79.3-1-.14-.54,0-1.39-.64-1.72a3,3,0,0,1-2.33-.55c-.43-.06-.95-.43-1.35-.06a1.66,1.66,0,0,1-.78.91c-.28-.5.08-1.43-.27-1.89a25.1,25.1,0,0,1-.83-4.46c-.06-2-.12-4.61,1.7-6,.24.21-.11.39,0,.6.49,0,.78-.45,1.13-.73.11,1,.93-.08,1.42.32s.42-.5,1-.35c.39.42,1,.33,1.45.54a2.92,2.92,0,0,1,1.62,2.25c.38,2.36-.23,4.85-.17,7.07,0,.18-.21.38,0,.52.25-1.09.05-2,.37-3.09C315,125.6,315.4,123,314.06,121Z" fill="#50d6cc"/><path d="M326.55,153.81c0,.24-.14.13-.25.21a2.64,2.64,0,0,1-1.05-2.33c.07,0,.1-.17.25-.17.38.5.2,1.39.8,1.82-.8-2.72-1-5.5-1.52-8.32-1-2.51-1.57-5.26-2.94-7.65-.27-1-1.34-1.22-2.26-1.4-.14-.15-.42-.07-.53-.22l-.43,0c-.1-.28-.42,0-.6-.22-.88-.5-.6.64-1.1.92-.17-.11,0-.49-.24-.49v.13a3,3,0,0,1-.47,2.11l-.11-.08a3.14,3.14,0,0,0-.06-2.53,6.36,6.36,0,0,1-1.39-4.56.11.11,0,0,1-.07,0c0,1.46-.29,2.93.7,4.25.07.15-.08.37-.2.49.18-.08.41-.23.55,0-.18.46.35.25.46.46.31.36,0,.61-.12.85,0,0,0,0,.07,0,.07.4,0,.57-.25.79l.22.17a.48.48,0,0,1-.22.61.43.43,0,0,1-.53-.1.54.54,0,0,1,.22-.82c-.57-.26.07-.72-.11-1.08-.36.07-.53.71-.78,1l0,0c-.25.31-.26.53-.5.82-.29.57-1,.35-1.43.78-.14.14-.21.35-.46.39s0-.22-.1-.3c-.25.26-.32.58-.54.79l-.1-.14c0-.72.57-1.35.36-2.07.28-.36,0-.82.08-1.24-.32.35-.64-.05-1-.11a.54.54,0,0,1-.49.14c-.28-.12-.28-.36-.28-.61a.81.81,0,0,1,.31-.21c.22-.15.43.13.61.21s.18,0,.11-.18a.55.55,0,0,1-.46-.46c-.14.14-.22.43-.5.35a.58.58,0,0,1-.32-.64c-.07.21-.17.39-.42.43a.76.76,0,0,1-.42-.55.59.59,0,0,0-.28.11s-.08,0,0-.11h-.21v.29a.54.54,0,0,1,.42-.14.52.52,0,0,1,.28.5c.21,0,.36-.21.61-.07a.86.86,0,0,1,.24.5c-.08.25-.25.39-.5.32s-.35-.29-.42-.46c-.14.1-.36.06-.53.06a.4.4,0,0,1-.24-.5l-.36,0c.56.79,1.63,1.5,2.11,2.43-.39.32-.56-.46-1.06-.26a1.52,1.52,0,0,0,.42.86c.93.12,1.31,1,1.69,1.69l-.07.18c-.49,0-.46-.57-.67-.86-.31-.61-1-.55-1.44-1a10.7,10.7,0,0,0-1.12-2.18c0,.06,0,.14,0,.17l-.14.18-.43-.36c-.1.07-.21.22-.32.22l.28.24a.43.43,0,0,1-.14.64.47.47,0,0,1-.64,0l.07.28.53-.1a.59.59,0,0,1,.39.68c-.11.21-.29.47-.57.28-.45-.12-.13-.82-.67-.79-.13-.57-.74-.82-.73-1.43-.53-.15-.39-.78-.63-1.15a18.32,18.32,0,0,1-2.21.7,2.76,2.76,0,0,0-1.59.43,7.21,7.21,0,0,0-1.47,2.16,5.29,5.29,0,0,0-.79,3.57,11.48,11.48,0,0,1-.55,3.31c-.42.89-.08,1.76-.4,2.57,0,1.11-.86,1.89-.9,3.07.28.06.43-.25.64-.36.39-.14.92-.49,1.14.08a.64.64,0,0,1,.55.22c.07.57.82.42.89,1,.24,1.49.76,2.89.47,4.49a2.59,2.59,0,0,0-.15,1h0v-.1h0c.72-1.5.27-3.53.24-5.14l.11-.28c.32.28.14.74.25,1.17.52,1.25.09,2.5.19,3.6a11.21,11.21,0,0,0,.12-4.24c0-.86-.45-1.64-.3-2.46h.14c.34,1.75,1.29,3.36.75,5.21-.11.21-.18.39,0,.58.64-1.26.26-2.72-.05-4-.21-.57.11-1.35-.24-1.89-.1-1.6-.94-3.17-.72-4.82.49,1,.2,2.33,1.08,3.25l.12-.85a11.62,11.62,0,0,0-.31-2.14c-.17-1.82-1.58-3.23-1.22-5.14h.07c.35,1.18.45,2.49,1.26,3.39.07,0,.15,0,.17,0-.45-2.15-1.53-4.33-1-6.61l.14,0a11.4,11.4,0,0,1,.06,1.54c.35,1,.17,1.71.52,2.68.21.33,0,1,.46,1.07a3.41,3.41,0,0,1,.46-1.17c.21.24,0,.43,0,.64-.25.64-.08,1.61-.26,2.28-.15,1.43.09,3.11,0,4.61a44.86,44.86,0,0,1,.21,8.31c.17.92-.18,1.63.31,2.35.28.07.5.29.81.25.39-.2-.07-.71.22-1.07.49.18.67,1.12,1.27,1,.11-.46-.28-.71,0-1.1.39.25.24.75.52,1.1.18.18.35.4.6.29-.34-2.35.7-4.59.18-6.95.07-.29-.31-.54,0-.79.35.07.35.54.46.82l0,2.57c0,1.21-.56,3,.18,4.22,0,.06,0,.28.18.24-.11-.5-.18-.92-.28-1.5a11.42,11.42,0,0,1,.34-2.74c0-.11.1,0,.17,0,0,1.56-.27,3.6,1,4.71a11,11,0,0,1,2.69,0c.67-.25.12-1.21.65-1.6.24.46-.15,1.11.27,1.43a13,13,0,0,1,1.91.29c.25-.29,0-.79.37-1a1.61,1.61,0,0,0,.41,1c1.78.22,1.61-1.74,2.18-2.73.11-.82.72-1.46.54-2.32a4.67,4.67,0,0,0,0-1.35c.45-.39-.1-1.11.39-1.43a12.91,12.91,0,0,1,0,3.5c-.39.79-.11,1.6-.57,2.32,0,.39-.4.78,0,1.17.36-.07.92.33,1-.17a.37.37,0,0,1,.57-.25c.28-.21-.11-.57.14-.82.78,0,.08-.85.61-1a3.09,3.09,0,0,0-.24-2c0-.25-.31-.64,0-.82a5.35,5.35,0,0,1,.84,2.18,7.18,7.18,0,0,1-.4,2.74,1.56,1.56,0,0,0,1-.91c-.09-3.08-1.64-6-1.52-9,.11-.75-.13-1.33.26-2,.46-.06.14.37.28.58a6.41,6.41,0,0,0,1,4.75c.11-.18,0-.47,0-.71-.67-1-.52-2.42-.76-3.6-.35-1.65.4-3.37.52-5.11a20.39,20.39,0,0,0,.13-4.81c0-.35-.17-.79,0-1.07.07-.11.21,0,.28.07.1,1.18.45,2.14.48,3.25-.26,2.1-.87,4.24-.74,6.35a5.35,5.35,0,0,0,.25-1.29c.08-1.24.58-2.31.41-3.67.07-.07.14-.17.25-.13a5,5,0,0,1,.09,1.84,33.08,33.08,0,0,0-.65,4.85,4.56,4.56,0,0,0,.3,2.32c.39-1.31,0-2.82.23-4,.46.46.17,1.42.38,2a15.24,15.24,0,0,1,0,5c.17,1.18-.73,2.67-.41,4.06a.23.23,0,0,0,.31.22c.54-1.25.83-2.7,2-3.67.32-.11.71-.39,1.06-.1a3.46,3.46,0,0,1,2.3,2.15A4.5,4.5,0,0,0,326.55,153.81ZM307,139.41a.56.56,0,0,1,.22-.5.58.58,0,0,1,.56.39c-.11.15.07.37-.18.5A.58.58,0,0,1,307,139.41Zm.38,1.11c-.14-.21.08-.43.18-.65a.64.64,0,0,1,.57.4h0c0,.25,0,.54-.22.6A.53.53,0,0,1,307.33,140.52Zm.42,1c0-.17,0-.39.22-.47s.6,0,.6.33-.14.39-.25.5A.63.63,0,0,1,307.75,141.52Zm1.24,1.33c-.18-.08-.53,0-.57-.3s0-.39.15-.53a.46.46,0,0,1,.63.4C309.17,142.53,309.2,142.81,309,142.85Zm.77.75c-.24,0-.5,0-.56-.32s0-.4.18-.46c.35-.18.17.35.49.24h0A.43.43,0,0,1,309.76,143.6Zm2.77.51c-.29.07-.36-.1-.57-.18-.18.14-.18.43-.47.39a.6.6,0,0,1-.59-.43c-.18.25-.4.21-.65.18a.65.65,0,0,1-.17-.46c0-.22.25-.15.36-.29.39,0,.42.9.85.29.36-.25.63.47.85-.11a.54.54,0,0,1,.6,0A.53.53,0,0,1,312.53,144.11Zm3-4a.45.45,0,0,1-.18.43c-.11,0-.21,0-.25.11s.21.46,0,.68-.39.06-.24.24h0c-.18.25.17.71-.36.78h-.28c-.07.14.14.25.07.47a.58.58,0,0,1-.64.24c0,.26-.07.54-.29.61s-.35.07-.53-.07c0-.22,0-.5.22-.65.95.4.17-1,1.17-.63a1,1,0,0,1-.07-.65c.18-.14.39-.06.54-.21-.07-.21-.25-.46,0-.64l.36-.21a.81.81,0,0,1-.1-.71l.39-.22a.75.75,0,0,1-.21-.67c.21-.21.7-.14.74.18h0C316,139.7,315,139.63,315.56,140.13Z" fill="#50d6cc"/><path d="M300.62,187.08s-.07.07-.11,0c-.21-.36.08-.85-.06-1.18l0-.61c.35.55-.19,1.18.13,1.75" fill="#50d6cc"/><path d="M287.75,144.45a.72.72,0,0,1,.17.61,6.4,6.4,0,0,1-1.56-.4c-.21,0-.42-.22-.6,0s-.07.5-.39.36a1,1,0,0,1,.15-.86,1.82,1.82,0,0,1,1.48,0,.77.77,0,0,1,.75.33Z" fill="#50d6cc"/><path d="M287.28,145.41a.75.75,0,0,1,.67.68l-.11.18c-.85-.58-1.88,0-2.73,0a.6.6,0,0,1,0-.58,2,2,0,0,1,1.89-.26h.28Z" fill="#50d6cc"/><path d="M288,147.05l0,.43a2.41,2.41,0,0,0-1.6-.29l-1.21.42c-.21-.11-.14-.39-.14-.56.4-.43,1-.36,1.43-.53S287.66,146.48,288,147.05Z" fill="#50d6cc"/><path d="M298.45,151.75h0a1.71,1.71,0,0,0-1.42.38c.17.44.7.75,1,1.18,0,.19.28.44,0,.51a14,14,0,0,0-2.29-1.83c-1.24-.86-3-.52-4.07-1.81a32.88,32.88,0,0,1-.37-3.79c-.24-1.77-.41-3.64-.57-5.42,0-2-.37-4.28-.47-6.31h0c0-.18-.11-.47-.28-.54,0,.18-.08.46.13.5,0,0-.06.11-.14.11a3.46,3.46,0,0,1,.14.63c-.07.83.14,1.69.14,2.48.24,1.09.09,2.24.23,3.24.2,1.49.23,3.06.43,4.71,0,.75.14,1.36.17,1.92s.24,1.36-.11,1.83c-.64-.29-.82-1-1.17-1.47h-.17c-.11.63-.47,1.17,0,1.78.14.36.41.6.52,1-.07.06-.14,0-.21,0-.5-.35-.71-1.2-1.35-1.1a.92.92,0,0,0-.35.59.58.58,0,0,1-.61,0c-.35-.39-.24-.88-.2-1.39.11-.21.39-.1.5-.24s0-.29-.07-.4c-.42-.32-.67-.82-1.38-.64-.5.31-1.42.21-1.49.87a3.08,3.08,0,0,0,1.23,1.62c-.15,2-.26,3.74-.24,5.78a193.38,193.38,0,0,0,.11,20.59c.51,4.64.92,9.42,1.57,13.88,1,6.21,2.24,12.18,3.77,18a152.49,152.49,0,0,0,5.38,16.13c-.57.88.56.46.63,1.24.11,0,.21.08.28-.06,0-.86-.52-1.55-.34-2.43-.29-4.47-.66-8.64-1-13.14-.17-1.67-.34-3.63-.4-5.35-.2-2.46-.37-4.79-.64-7.21-.29-5.6-1-11.2-1.26-16.74-.21-1.85-.31-3.5-.4-5.35-.24-.89-.1-1.79-.31-2.67-.36-3.9-.53-7.43-.89-11.36l-.11-.1c0-1.9-.27-3.61-.29-5.47l.06-.1a7,7,0,0,0,3.61,2.51c.88.44,1.3,1.47,2.55,1.26.67-.21.78-1,1.2-1.45.08-.14,0-.43.26-.43.14-.18.32-.39.28-.61-.46.43-.61,1.08-1.07,1.57,0-.07-.14-.11-.18-.25.12-1.14.94-2,1.44-3A3.94,3.94,0,0,0,298.45,151.75Zm-12.22-2.67c-.21,0-.31-.18-.38-.36.21-.24.6-.2.92-.31l.07.14A1.43,1.43,0,0,1,286.23,149.08Zm6.09,15h0a56.24,56.24,0,0,0,.51,5.78,24,24,0,0,0,.23,3.57,3.07,3.07,0,0,1,.07.85c.09,2,.44,4.11.5,6,.14.4,0,.82.14,1.29a1.14,1.14,0,0,0,.1.79c-.08.63.1,1.13,0,1.66.17.26,0,.76.1,1.07a14.08,14.08,0,0,1,.2,2.76c.27,1.49.16,3,.4,4.64-.07,1.21.34,2.46.3,3.53.21.14-.07.35.06.53a8.23,8.23,0,0,1,.14,1.36c0,1.25.27,2.18.23,3.5.24,1.39.13,2.88.4,4.18a35.06,35.06,0,0,0,.24,3.85c.23,2.89.39,5.45.63,8.21a6.92,6.92,0,0,1,.17,1.43c.1.67.17,1.53.23,2.31,0,.43.14.83,0,1.22a9.46,9.46,0,0,1-.78-2c-1-2.64-1.67-5.39-2.51-8.1a32.83,32.83,0,0,1-.79-3.29,3.9,3.9,0,0,1-.35-1.22,42.39,42.39,0,0,1-1.45-7.24c-.32-.57,0-1.07-.39-1.68-.2-.46.12-1-.24-1.38a78.53,78.53,0,0,1-1.11-11.25c0-.5.5-.86.29-1.39-.3-3.11-.53-6.51-.73-9.75-.32-1.32.08-2.82-.69-4a15.07,15.07,0,0,1-.48-3.18,122.53,122.53,0,0,1-.23-17.37c.35-.08.56.11.84.14h0c1,1.36,2.12,2.75,3.18,4,.16,2,.51,4.07.49,6.14C292.33,162.1,292.05,163.06,292.32,164.13Z" fill="#50d6cc"/><path d="M332.41,152.17c-.62,2.67-1.55,5.34-2.31,8-.25.43-.25,1-.54,1.39-.68,2.6-1.51,5.09-2.34,7.63-.6-1,.26-1.83.4-2.75.26-1.18.69-2.18.9-3.38.61-1.28.69-2.61,1.37-4,.51-1.85,1-3.67,1.59-5.41.25-.53.28-1,.5-1.61.14,0,.35-.06.42.08Z" fill="#50d6cc"/><path d="M320.59,191.82l.1.13c-.1.3-.74.18-.49.61a3.29,3.29,0,0,1,.74.75,9.46,9.46,0,0,1-1.71,2.24l-.33.25a10.25,10.25,0,0,1-.41-1.71,4.32,4.32,0,0,0-.21-1.42c.36-.21.89-.15,1.32-.33a.59.59,0,0,0,0-.42c-.07-.1-.31-.18-.24-.39.45-.07.77.18,1.2.29Zm-5,25.91a6.77,6.77,0,0,0,2.65,1.33,2,2,0,0,0-.79,1.13c-.1.11-.25,0-.35.08a8.26,8.26,0,0,1-2.47-2.94c.25-.6.71.19,1,.4Zm5.06,1.7a4.07,4.07,0,0,1,1.71,3.9,2.78,2.78,0,0,1-.15,2c-1,.74-1.91-.27-2.87-.41a4,4,0,0,1-2.08-2.58c-.28-.39-.34-.93-.66-1.28-.53-.86-2.55-.8-1.69-2.26A15,15,0,0,0,317.5,221c.57,0,.4-.86.83-1.06a5.32,5.32,0,0,0,1.26,2.06c.39.54.85,1,1.59.8a.83.83,0,0,0,.4-.86c-.18-.74-.92-1.11-1.27-1.79.1,0,.18,0,.21-.13.07-.4-.21-.65-.46-1a1.39,1.39,0,0,0-.81-.36c.39-.28.4-.82.68-1.24.14.71.88,1.18.74,2Zm-13.58-.57c0,.18.18,0,.25.15a1.35,1.35,0,0,1-.82.46,3.15,3.15,0,0,1-2.8.3c-.25-.28-.17-.63-.24-1,.24.29.81,0,1.17,0,.14-.25.42,0,.6-.17.64,0,1.24.15,1.84.22Zm-3.87.77.29.57a1.8,1.8,0,0,0-1.42,1.1c-.43-.86.46-1.68.82-2.46.28.08.14.54.31.79Zm5.54-.19c.1.72-.72.9-1.07,1.28a4.72,4.72,0,0,1-2.77.88c-.39-.29-.21-.68-.56-.93v-.17a8.21,8.21,0,0,0,2.62-.56,7.69,7.69,0,0,0,1.17-.72c.21,0,.5-.06.61.22Zm10.24-.16c0,1.21,1.13,1.83,1.55,2.86-.43,0-.39-.5-.71-.71a2.64,2.64,0,0,1-.95-2.15H319Zm1.09.71c-.21.15-.1.26-.14.43-.35-.28-.31-.74-.42-1.14C319.85,219.36,320,219.75,320.09,220Zm-16.41.75,0-.42.08.17,0,.25Zm-1.22,2.67c-.35,0-.39.5-.75.49.36-.39.79-.93,1.11-1.34a3.26,3.26,0,0,0,.82-1.61,4.08,4.08,0,0,1-1.18,2.46Zm.44-2.25h0v.17h0Zm1.91,1a10.27,10.27,0,0,0,3.19-.74c-.07.47-1.17.24-.67.82l.7-.17c-.78.7-1.88,1-2.7,1.69-.89.89-1.61,2.42-3,2.48l-1,.32v.22c.39.21.75-.19,1.17-.15a2.45,2.45,0,0,1-1,.57c-.5.25-1.21.64-1.67.28a11.41,11.41,0,0,1-.48-2.68c.18-1.67,2.1-1.84,2.64-3.3a.27.27,0,0,1,.21.21V222c-.29.74-2.31,1.16-1.18,2.19a.81.81,0,0,0,.88.22,4.89,4.89,0,0,0,2.18-3.09,1.34,1.34,0,0,0,.67.86Zm-3.3,1.15c.14-.13.31-.39.49-.45C302,223.12,301.65,223.12,301.51,223.29Zm29.73-70.06a1,1,0,0,1-.35-1l.39-.89a2.18,2.18,0,0,1,0,1.93Zm1.15,2.32c-.17.11-.28.32-.49.39.43-1.24.4-3,1.54-3.84a29.63,29.63,0,0,1-1.05,3.45Zm-1.33-1.64c-.37.71-.47,1.49-.8,2.2-.53-.88.05-1.85.37-2.74.15.21.71.15.43.54Z" fill="#50d6cc"/><path d="M309.9,129.07h0Z" fill="#50d6cc"/><path d="M314.37,123.18a4,4,0,0,0-.88-.9c-1.67-.86-3.4-.33-5.21-.16-.61.13-.72.82-1,1.24a3.94,3.94,0,0,0,.69,4l0,1.57-.22,0a7.59,7.59,0,0,1,.74,1.79c.7,1.5,2.41.29,3.58.8.78-.25,1.06-1.1,1.53-1.74a3.2,3.2,0,0,0-.13-2.43C314.63,126.35,314.57,124.71,314.37,123.18Zm-6.82,1.39c.65-1,1.85-.06,2.56-.52.35.07.17.65.31.82-.14.32-.18.68-.57.78a2.48,2.48,0,0,1-1.8-.43C308.09,124.82,307.12,125.14,307.55,124.57Zm3.67,5.29a.22.22,0,0,1-.06.23,1.27,1.27,0,0,1-.21.15.7.7,0,0,1-.29,0,.45.45,0,0,0-.32.06.17.17,0,0,1-.12,0,.23.23,0,0,1-.1-.07A.8.8,0,0,1,310,130h0a.38.38,0,0,1,0-.19.91.91,0,0,0,0-.17l.21.13a.54.54,0,0,0,.3.1h0a1.16,1.16,0,0,0,.52,0,.38.38,0,0,0,.19-.05h0a.35.35,0,0,0,0,.06Zm.48-.46a3.44,3.44,0,0,0-.72,0h-1.35a3.27,3.27,0,0,0-.7.09c-.22-.21.22-.27.32-.35a2.31,2.31,0,0,1,.63-.1l-.05,0c.09,0,.09,0,.07,0h0a.69.69,0,0,1,.48.13l.14,0h0c.08,0,0,0,0,0,.17,0,.35,0,.42-.16h.79l.43.13v0a.87.87,0,0,0,.24.1c0,.05.1,0,.14.07Zm1.2-3.88c-.5.47-1.24-.36-1.53.39s.74,1.08,1.06,1.75a2.22,2.22,0,0,1,.49,1.25c-.57,0-.49-1.25-1.27-.93a1.4,1.4,0,0,1-1.17.35c-.32-.22-.75-.18-1-.5-.43.14-.54.63-.89.88l-.14,0c-.08-.42.28-.63.5-.92s.42-.46.75-.6c.1.1.07.36.28.47.42-.11.92.42,1.23-.15,0-1.13-.8-2.35-.19-3.49.17,0,.17.28.39.25.61.08,1-.28,1.67-.16a5.18,5.18,0,0,1,1,.57.41.41,0,0,1-.22.39C313.15,124.82,313.54,125.67,312.9,125.52Z" fill="#50d6cc"/><path d="M316.23,173.08l.08,1.8-.34.79h-.26l.3-2.41Z" fill="#50d6cc" fill-rule="evenodd"/><path d="M326.69,169.24c-.41-3.66,1.37-6.77.76-10.49a1.5,1.5,0,0,0-.21-.57l0,1.45c-.11.36.1,1.1-.33,1.22-.13-.78-.13-1.72-.31-2.54h0c-.38-.79-.27-2-1.33-2.29-.74-.18-1.21.46-1.57.84a4.64,4.64,0,0,0-1,2.35c.1,1.32.77,2.5.87,3.72a8.52,8.52,0,0,1,.24,1.43c-.08,2.17.33,4.13,0,6-.11.87-.47,1.86-.58,2.76-.07.07-.14.11-.21.09-.14-1.1-.21-2.38-.41-3.56l-.18-.26c.14.9-.08,1.79,0,2.58l-.21.21c-.17-.53-.1-1.17-.27-1.68,0-1.06-.81-2-1-3.18-.63,0-.48-.78-.8-1.17-.18-.15-.42-.19-.49-.4-.46-.33-1,0-1.42,0-.21.11-.5.14-.68.24s-.43.21-.46-.1c.33-.39.82-.39,1.14-.75a2.33,2.33,0,0,0-.71.1,13.82,13.82,0,0,1-5.53.44c-.78-.12-1.45-.3-2.31-.37-.17-.25-.28,0-.49-.21l.07-.08c1,.05,1.88,0,2.87.09,3.09.34,6-1.4,9.22-.71a.42.42,0,0,0,.25-.39c-.35-.39-1-.36-1.55-.36-.43.17-1.1.06-1.49.24-.43-.14-.57.29-1,.14-.21.28-.64,0-.85.24-.92,0-1.78.21-2.73.13-1.42.35-3-.19-4.29.05-1.77-.16-3.22-.52-5-.7-.35-.07-.71-.29-1,0,0,.21,0,.39.2.42,1.14.12,2.2.51,3.37.56.56.47-.33,1.07-.4,1.59a13.3,13.3,0,0,1-.05,2.09c-.14.24,0,.45-.17.63-.38-1.18-.24-2.68-.62-3.9-.18-.06-.6-.14-.5.15-.42.49-.29,1.24-.29,1.89,0,.11,0,.25-.21.17a6,6,0,0,1-.21-1.46c-.07-.39.08-1.21-.56-1.11-1.5,1.28-1.05,3.31-1.52,4.85a27.77,27.77,0,0,1-1.31,6.73c-.14,1.29-.78,2.64-.79,3.82a9,9,0,0,1-.16,3.38h0l0,1,.21-.07a8,8,0,0,1,.24,2.57c.43-1-.49-2.4.33-3.24.39.29.1.92.1,1.27.11,0,.18.08.25.15.41,2.18,0,3.46.4,5.57.34,1.57.93,3.32.61,5-.05,1.24.76,2.25,1.18,3.36,0,.5.28.79-.15,1.17-.34-.07-.13-.43-.2-.68a3.1,3.1,0,0,0-.28-.64,6.28,6.28,0,0,0,0,2.17c.08.22-.1.43-.18.65a20.2,20.2,0,0,0,.95,7.78c.11.11,0,.32.14.42s.22.47,0,.65-.28-.18-.42-.21c.06,2,.8,3.35.64,5.38a2.11,2.11,0,0,1-.25.86,3.53,3.53,0,0,1-.78,1.35,1.19,1.19,0,0,0,.7.25c1.11-.56,2.34-.17,3.47,0a3.51,3.51,0,0,0,1.57.14,5.54,5.54,0,0,0-.6-1.49,5.22,5.22,0,0,0-1.34-.87c0-.1,0-.18.07-.25a.88.88,0,0,1,.64.07c.14,0,.42.16.39-.1a11.62,11.62,0,0,0-.34-2.25c-.25,0-.57.39-.75,0-.07-.14.11-.17.18-.28,1.35-.35.93-2,1.08-3-.32.19-.18.75-.61.68-.21-.21-.14-.47-.1-.71,1.57-3.2,1.38-6.6.9-10.13-.47.57-.11,1.33-.43,1.85-.08.08-.25.11-.29,0a6.37,6.37,0,0,1,.08-1.63c1.47-2.6.92-6,1.53-9,.22-1.1-.23-2,.23-3-.49-1,.43-1.67.19-2.64,0-.07,0-.25-.17-.21s0,.11,0,.17a9.79,9.79,0,0,1-1,2.79c.07.06.14.06.17.1s0,.36,0,.42c-.26.3-.26.94-.79.76-.21-.37.29-.61.29-1-.21,0-.46.36-.64,0s.08-.46.15-.67c-.14,0-.32-.08-.36-.25.32-.58.79-1.28.44-2,.07-.25.39-.28.43-.53a.57.57,0,0,1-.82,0c-.17-.47-.63-.61-.77-1.07.32-.29-.11-.9.36-1.08.28.3.14.69.2,1,.5.22.05-.74.4-1,.7.22,0,1,.63,1.22.32-.14,0-.82.26-1.14.45.25.34.85.41,1.32.28-.21.15-.75.29-1.07.11-.1.21-.1.32,0s-.29,1,.24,1.21c.18-.32.07-.75.22-1.07.67-.22.07.86.42,1.11.49-.15,0-.86.54-1,.38.31,0,.92.13,1.24h.14c.17-.29,0-1,.29-1.25.53.22.24,1,.27,1.36l.15.13c.42-.24-.18-1.24.49-1.34.35.39,0,.89.17,1.35.07.08.14.18.25.15.28-.5-.17-1,.22-1.43.6.11.1.58.28,1,.1.1,0,.36.24.36s.08-.43,0-.65c.11-.21-.1-.78.36-.78.39.4-.11.92.28,1.36.07,0,.17,0,.24,0,0-.57-.27-1.14.15-1.53.46,0,.18.46.25.79s.06.61.42.53c.25-.46-.28-1,.14-1.42.5.11.18.89.46,1.21,0,.54-.68.68-1,1l0,.07c-.14.14-.34.17-.46.43.18,1.18,0,2.17.52,3.25l.07-.15c.22-.56-.27-1.31.44-1.5.24.3.06.9,0,1.18a37.79,37.79,0,0,0,.13,7.56,23.31,23.31,0,0,1,.58,4.33c-.06,0-.1.14-.17.14a21.24,21.24,0,0,0-.66-2.75,2.48,2.48,0,0,0-.22,1.46,17.05,17.05,0,0,0,.15,6.28c.09,3,.54,5.68-.33,8.56.07.58-.6.74-.43,1.29a3.86,3.86,0,0,0,1.6-.64c.21,0,.71-.11.63.22-.6.31-1.13.56-1.73.84.1.46.63.58.87,1,.82.43,1.63,1.29,2.73.86.57-.28.61-.91.68-1.42-.32-.28-.82-.14-1.2-.28a2.73,2.73,0,0,1-2.59.2c0-.07,0-.18,0-.22,1.24.4,2-.73,3.18-.52a2.56,2.56,0,0,1,.53.22h.25a7.89,7.89,0,0,1-.41-1c-.29-.54.28-.93.17-1.35-.46.31-.64,1-1.27.84v-.21c1.88-1.28,1.25-3.78,1.83-5.74.19-2.28,1.26-4.38,1.35-6.69a1.21,1.21,0,0,0,.28-.58c-.17-1.17.33-2.42-.09-3.66-.28,0-.31.35-.49.45l-.14-.1c-.14-.79.39-1.39.75-2-.36,0-.43.47-.61.61-.14.32-.38.43-.6.64,0-.07-.1-.11-.07-.22a12.66,12.66,0,0,1,1.54-2.63,9.78,9.78,0,0,1-1,.71c-.07-.08-.18-.15-.1-.25a9.16,9.16,0,0,0,1.79-5.28c-.13-1.21.66-2.34.06-3.49l-.11.11c-.33,1.07-.83,2.43-1.15,3.53,0,.67-.89,1.28-.12,1.78a.53.53,0,0,1-.25.68c-.18.25.07.31.21.49a.77.77,0,0,1,.07,1c-1,.92-1.46,2-2.53,2.7a1.38,1.38,0,0,1-.42-1.29,14.45,14.45,0,0,1-.48-2.82c.18-.46.68-.43,1.1-.49,0-.22-.21-.37-.14-.64s.46-.3.74-.33c.48-1.57,1-3.14,1.41-4.7.39-.53,0-.92-.21-1.42a.62.62,0,0,0-.49-.18c-.21,0-.28-.26-.28-.47.42-.32,0-1.1.43-1.39.28.25.25.82.35,1.22.46-.28,0-.86.32-1.22.64,0,.18,1,.5,1.33a2.23,2.23,0,0,0,.14-1.29c.11-.17.22,0,.39-.13.4-1.11.72-2.28,1.08-3.42l-.32-.25c-.16-1.61.52-3.22.28-4.89l.1-.07c.22.15.25.47.28.71.46.44.28,1.18.42,1.69.32.06.39-.26.57-.43s.07-.33,0-.43c0-.93-.94-1.75-.34-2.61.36.47.14,1.19.49,1.62.14.92.88,1.53.63,2.46,1.1-.25.36-1.5.75-2.28.57-.07.11.64.39.86.32-.14.18-.68.29-1s.39-.1.6-.31c-.07-.61.57-.89.61-1.46A20.75,20.75,0,0,0,326.69,169.24Zm-22.44,15.11c-.11.14-.18.33-.39.25l-.22-.22c-.17.36-.6.25-.85.43a.23.23,0,0,1-.35,0s-.11-.1-.17-.07c-.15.18-.12.43-.36.5-.39-.14-.21-.75-.17-1.1.07-.12.1-.26.21-.29s.28.1.28.29a.15.15,0,0,0,0,.07c.22-.07.11-.36.29-.5.42.36.89-.71,1.13.07.07-.1.07-.32.25-.35C304.47,183.47,304.14,184,304.25,184.35Zm.63,0a.39.39,0,0,1-.31.14c-.22-.28-.07-.74,0-1.07l.18-.11A1.32,1.32,0,0,1,304.88,184.32Zm.64-.06h-.28c0-.32-.14-.65.11-.93C305.67,183.47,305.45,183.93,305.52,184.26Zm2.39,6.53.37-.52.15.3-.37.75-.15-.11Zm-1.75-6.49a1,1,0,0,1,0-1c.36.14.22.57.25.89C306.37,184.33,306.27,184.25,306.16,184.3Zm10.56.68c-.07.08-.17,0-.28,0a2,2,0,0,1-.21-1.29c.07,0,.14-.11.21-.14.22.29.14.6.21,1C316.69,184.7,316.83,184.84,316.72,185Zm.75-.13c-.39,0-.39-.36-.53-.62a1.63,1.63,0,0,1,.18-.88c.21-.07.28.14.32.24C317.36,184.06,317.72,184.5,317.47,184.85Zm.39-.22c0-.43-.32-1.1.11-1.49.32.46.21.89.24,1.46A.19.19,0,0,1,317.86,184.63Zm-.79-5.6a5.41,5.41,0,0,0-.26,2.07.33.33,0,0,1-.28.24c-.39-.21-.11-.79-.25-1.1,0-.93-.31-1.46-.37-2.35l.17-.15c.25.11.18.61.53.46a21.16,21.16,0,0,0,.79-2.84c.54-1.57.41-3.32.63-5l.18,0h0A35.61,35.61,0,0,1,317.07,179Zm1.57,5.5c0-.54-.21-1,.08-1.57.32.42.17,1,.27,1.42A.4.4,0,0,1,318.64,184.53Zm1.13-.18c-.18-.06-.29.12-.39,0l-.1-1.18a.39.39,0,0,1,.36-.21c.24.25,0,.76.17.89S319.77,184.14,319.77,184.35Z" fill="#50d6cc"/><path d="M371.45,205.22c0-.12,0-.24.09-.26a2.08,2.08,0,0,0,.15-.67,1.76,1.76,0,0,1,.14-.65.81.81,0,0,0,.09-.46.85.85,0,0,1,.08-.47,2.82,2.82,0,0,0,.15-.94c.07-.86.06-.9-.15-1.13a4,4,0,0,0-1.24-.69c-.12,0-.06.36.08.47a.4.4,0,0,1,.14.25c0,.07,0,.13.07.13s.15.13.24.28a3.38,3.38,0,0,1,0,1.89,3.62,3.62,0,0,0-.17.35c-.08.16-.75.25-.75.1s-.12-.1-.27-.1a.53.53,0,0,1-.34-.1.64.64,0,0,0-.4-.09,1.23,1.23,0,0,1-.57-.15c-.18-.13-.21-.21-.17-.51a.73.73,0,0,1,.64-.72c.33-.08.42-.28.18-.39l-.35-.18a1.13,1.13,0,0,0-.44-.1.41.41,0,0,1-.29-.1.69.69,0,0,0-.42-.09.72.72,0,0,0-.42.09c0,.05,0,.1,0,.1s.12.07.15.16a2.52,2.52,0,0,0,.24.44c.19.31.24.61.1.61s-.1.1-.1.23,0,.24-.46.24a1,1,0,0,1-.52-.1.39.39,0,0,0-.28-.09,1.36,1.36,0,0,1-.81-.37c-.22-.17-.21-.53,0-1s.3-.48,1.07-1.13c.33-.28.32-.49,0-.49a.48.48,0,0,0-.33.09c0,.06-.17.1-.31.1-.43,0-.67.1-.67.28a.29.29,0,0,1-.09.23c-.06,0-.1.16-.1.29s0,.22-.08.22a1.65,1.65,0,0,0-.15.7,2,2,0,0,1-.15.76s-.08.21-.08.4a.85.85,0,0,1-.09.44,2.46,2.46,0,0,0-.15.67c-.07.68,0,.75.45.3a.92.92,0,0,1,1.07-.19,3.1,3.1,0,0,0,.79.15,1.46,1.46,0,0,1,.63.13,1.73,1.73,0,0,0,.7.14,2.14,2.14,0,0,1,.76.16.76.76,0,0,0,.41.08.73.73,0,0,1,.41.08.79.79,0,0,0,.39.14c.44.07.6.21.6.52s.2.53.35.32a.71.71,0,0,0,.12-.37Zm-6.23,5.2a.55.55,0,0,0-.12-.38,2.83,2.83,0,0,1-.56-1.17c0-.38.21-.45,1.14-.38a3.58,3.58,0,0,1,.95.14,3,3,0,0,0,.88.15,2.92,2.92,0,0,1,.82.15s.17.08.32.08a1.07,1.07,0,0,1,.44.09,2,2,0,0,0,.49.14.69.69,0,0,1,.56.68c0,.16.23.16.36,0a2.55,2.55,0,0,0,.17-.8,2.07,2.07,0,0,1,.14-.72,1,1,0,0,0,.08-.47c0-.3,0-.41-.14-.41a.23.23,0,0,0-.18.09,1.74,1.74,0,0,1-.81.38.33.33,0,0,1-.23-.1.68.68,0,0,0-.41-.09c-.2,0-.38,0-.4-.1a4.46,4.46,0,0,0-1.26-.15,5.37,5.37,0,0,1-1.24-.13,1.22,1.22,0,0,0-.48-.13c-1-.13-1-.55-.07-1.45.4-.39.64-.69.6-.75a2.6,2.6,0,0,0-1.52.15c-.3.14-.31.15-.31.74a1.43,1.43,0,0,1-.09.65.82.82,0,0,0-.09.47.94.94,0,0,1-.08.46,1.32,1.32,0,0,0-.14.59,4.14,4.14,0,0,1-.31,1l-.24.49.27.26a2.55,2.55,0,0,0,.84.58.73.73,0,0,1,.26.19.24.24,0,0,0,.22.08c.11,0,.15-.12.14-.35Zm1.14,3.63a2.52,2.52,0,0,0-.44-.24c-.09,0-.17-.09-.17-.14s-.05-.08-.12-.08-.58-.45-.5-.53a3.64,3.64,0,0,1,.83-.1,3.75,3.75,0,0,0,.87-.12.25.25,0,0,1,.26,0c.15.11.17.2.11.62-.1.74-.32.88-.84.54Zm2.44,2.83a.67.67,0,0,0,.12-.36c0-.12.05-.22.1-.24a1.77,1.77,0,0,0,.15-.75c.07-.82,0-.87-.47-.49-.2.15-.34.2-.38.14a.31.31,0,0,0-.23-.1c-.36,0-.49-.26-.42-.82a2.83,2.83,0,0,1,.14-.66,2.24,2.24,0,0,0,.14-.5c0-.29.09-.35.26-.35a.51.51,0,0,0,.32-.11c.16-.16.68.1.68.36a.32.32,0,0,0,.51.22,1.24,1.24,0,0,0,.2-.55,1.4,1.4,0,0,1,.14-.53,3.11,3.11,0,0,0,.14-.73c.06-.59.05-.62-.13-.62a.32.32,0,0,0-.25.09c-.15.24-.71.4-1.52.45a2.54,2.54,0,0,0-.87.12c0,.05-.29.08-.64.08a1.87,1.87,0,0,0-.7.08,5.89,5.89,0,0,1-1.31.15c-1.49.08-1.83.19-1.83.64,0,.3.22.63.44.63.06,0,.12,0,.12.07s.14.15.3.26.41.26.54.35a3.69,3.69,0,0,0,.52.29,1.61,1.61,0,0,1,.41.28.41.41,0,0,0,.21.15,1.64,1.64,0,0,1,.44.26,4.94,4.94,0,0,0,.78.49,4.05,4.05,0,0,1,1.21.77.86.86,0,0,1,.35.57c0,.13.05.24.1.24s.09.07.09.14.19.18.34,0Zm-6.24,3.61c.07-.11.09-.23.05-.26a3.08,3.08,0,0,1-.59-1.53v-.44h.5a1.15,1.15,0,0,1,.57.09,1.09,1.09,0,0,0,.52.15,1.48,1.48,0,0,1,.52.14c0,.05.17.09.31.09a.55.55,0,0,1,.33.08,1.11,1.11,0,0,0,.49.16,1.71,1.71,0,0,1,.54.13,1.18,1.18,0,0,0,.37.13,1.55,1.55,0,0,1,1.31,1c.06.17.07.17.23-.05a1.54,1.54,0,0,0,.24-.6,2.78,2.78,0,0,1,.14-.52,3.19,3.19,0,0,0,.32-1c0-.3,0-.35-.12-.35a.74.74,0,0,0-.39.24c-.22.23-.68.32-.79.14a1,1,0,0,0-.5-.15,2.62,2.62,0,0,1-.53-.13,1.94,1.94,0,0,0-.54-.14,1,1,0,0,1-.49-.15.48.48,0,0,0-.33-.09.54.54,0,0,1-.32-.08c0-.05-.2-.11-.39-.15a2.49,2.49,0,0,1-.49-.14,2.79,2.79,0,0,0-.42-.15.88.88,0,0,1-.37-.24.92.92,0,0,1,.27-1c.68-.37,1.19-1,.86-1a5.53,5.53,0,0,0-1.54.13,1,1,0,0,0-.12.6c0,.27,0,.5-.07.5s-.3.49-.36.9a1.36,1.36,0,0,1-.13.45,2.54,2.54,0,0,0-.13.5,1.58,1.58,0,0,1-.36.87.88.88,0,0,0-.13.42c0,.31,0,.4.29.71a1.47,1.47,0,0,0,.41.35,1,1,0,0,1,.3.23c.26.29.38.3.54,0Zm-2.1,4.18c-.62-.32-1-.59-1-.76a4.48,4.48,0,0,1,.8-1.45,1.07,1.07,0,0,1,1.42,0,.73.73,0,0,1,.31.7c0,.59-.6,1.8-.88,1.77a5.19,5.19,0,0,1-.68-.3Zm4.16,3.08a5,5,0,0,0,.39-.91.64.64,0,0,1,.14-.31c.29-.39,0-.75-.33-.38-.17.2-.87.18-1.28-.05a1.84,1.84,0,0,0-.47-.18c-.07,0-.12,0-.12-.07s-.14-.13-.3-.2a2.54,2.54,0,0,1-.46-.27c-.24-.2,0-.49.36-.49a.53.53,0,0,0,.35-.09,1.17,1.17,0,0,1,.61-.1,1.3,1.3,0,0,0,.6-.08,4,4,0,0,1,1-.14,2.12,2.12,0,0,0,1.08-.22c.38-.34.82-1.71.55-1.71a.89.89,0,0,0-.29.24.74.74,0,0,1-.48.23.44.44,0,0,0-.31.09,3.56,3.56,0,0,1-1,.14,5.25,5.25,0,0,0-1.12.17c-.38.19-.53,0-.56-.73,0-.94-.37-1.51-1-1.67l-.44-.16c-.16-.08-.29-.06-.61.09a1.55,1.55,0,0,0-.53.34.42.42,0,0,1-.26.14.25.25,0,0,0-.19.17,3.25,3.25,0,0,1-.36.54,1.86,1.86,0,0,0-.37.63c0,.14-.1.25-.15.25s-.08.08-.08.17a3.11,3.11,0,0,1-.28.72,2.94,2.94,0,0,0-.28.69.64.64,0,0,1-.18.33,1.4,1.4,0,0,0-.25.59c-.05.33,0,.4.09.4s.15,0,.15-.07.55-.4.76-.4.17,0,.17.09.14.11.3.15a2.1,2.1,0,0,1,.59.24,2.4,2.4,0,0,0,.45.23c.09,0,.16.1.16.14s.08.08.19.08a1.63,1.63,0,0,1,.53.19,1.83,1.83,0,0,0,.46.19c.06,0,.13,0,.14.07a7,7,0,0,0,1.34.67c.17,0,.42.43.42.7s.17.56.33.42a5.16,5.16,0,0,0,.5-.87ZM361,233.81a2.15,2.15,0,0,1,.38-.61,2.4,2.4,0,0,0,.26-.44,2.31,2.31,0,0,1,.34-.5,2.09,2.09,0,0,0,.35-.55,2.81,2.81,0,0,1,.39-.61c.42-.39.35-.87-.25-1.65a1.28,1.28,0,0,1-.27-.44c0-.06-.08-.1-.18-.1s-.19.06-.19.32a.63.63,0,0,0,.09.38,3.13,3.13,0,0,1,0,1.49c-.05,0-.11.17-.15.33s-.1.28-.14.28a.1.1,0,0,0-.09.11c0,.2-.31.45-.55.45a1.2,1.2,0,0,1-.48-.14c-.13-.07-.29-.17-.37-.2a2.42,2.42,0,0,1-.33-.24,6.17,6.17,0,0,0-.49-.41c-.33-.26-.4-.59-.16-.79a.35.35,0,0,0,.14-.21.75.75,0,0,1,.2-.32c.16-.17.3-.21.7-.21s.5-.05.5-.1A2,2,0,0,0,360,229l-.5-.29a1.48,1.48,0,0,0-.59-.24c-.2,0-.21,0-.16.26s.1.27.15.28.11.4-.21,1c0,.08-.12.24-.17.36s-.14.21-.35.16a1.5,1.5,0,0,1-.45-.24.62.62,0,0,0-.3-.18,1.76,1.76,0,0,1-.49-.34c-.43-.39-.48-.7-.17-1a2.06,2.06,0,0,0,.3-.42,1.24,1.24,0,0,1,.48-.4,3.11,3.11,0,0,0,.42-.25,1.26,1.26,0,0,1,.41-.11,1.34,1.34,0,0,0,.46-.15c.14-.15-.1-.39-.4-.39a.53.53,0,0,1-.34-.1,1.05,1.05,0,0,0-.51-.07c-.37,0-.42.07-.62.45a1.89,1.89,0,0,1-.32.48c-.1.06-.21.23-.5.8a1.75,1.75,0,0,1-.29.41.36.36,0,0,0-.13.2,1.24,1.24,0,0,1-.24.39l-.31.39a1.2,1.2,0,0,0-.15.32,1.42,1.42,0,0,1-.24.41c-.1.1-.15.22-.13.26s.38.09.51-.06c.25-.31.74-.13,2,.74a1.81,1.81,0,0,1,.31.25.63.63,0,0,0,.19.11,4.6,4.6,0,0,1,.84.56l.44.35a1.24,1.24,0,0,0,.34.14,1.63,1.63,0,0,1,.57.42c.34.37.42.71.22.91s-.07.15,0,.26.16.13.45-.2a3.93,3.93,0,0,0,.4-.55Zm-7.44,1.45a1.49,1.49,0,0,0-.48-.38.25.25,0,0,1-.19-.16,1.08,1.08,0,0,0-.19-.32c-.11-.14-.11-.19,0-.42a2,2,0,0,1,1.47-1.06c.31,0,.42.06.72.39.51.55.49.89-.1,1.63l-.38.49c-.2.3-.48.24-.89-.17Zm2.95,2.45a.49.49,0,0,1-.22-.18.27.27,0,0,0-.19-.13,2.16,2.16,0,0,1-.57-.46,2.21,2.21,0,0,0-.58-.47c-.07,0-.12-.11-.12-.25s.15-.4.53-.79c.53-.54.54-.55,1.08-.55a1,1,0,0,1,1,.39c.4.37.41.4.41.92,0,.36,0,.57-.14.65a.45.45,0,0,0-.14.23c0,.15-.47.58-.7.64a.58.58,0,0,1-.32,0Zm-.06,1.54,1.09-1.15a2.56,2.56,0,0,0,.46-.57,1.13,1.13,0,0,1,.28-.36,1.13,1.13,0,0,0,.28-.36.57.57,0,0,1,.21-.26c.17-.16.2-.28.21-.87a1.53,1.53,0,0,0-.12-.81.49.49,0,0,1-.11-.27.8.8,0,0,0-.26-.38,1.72,1.72,0,0,0-1.53-.48l-.73,0v-.42a1.67,1.67,0,0,0-.12-.63c-.23-.41-.67-.82-.88-.82s-.22,0-.22-.09-.14-.09-.32-.09-.33,0-.33.09-.15.11-.33.15-.56.3-1.54,1.33a12.17,12.17,0,0,0-1.21,1.37,1.31,1.31,0,0,1-.33.42,1.08,1.08,0,0,0-.33.49c0,.16.05.18.35.12a1.46,1.46,0,0,0,.47-.16q.12-.11.12,0c0,.06.09.11.19.11a3.41,3.41,0,0,1,1,.75,6.94,6.94,0,0,0,.9.74,1.65,1.65,0,0,1,.45.38,1.89,1.89,0,0,0,.46.37,4.57,4.57,0,0,1,1.07,1.11c.08.16.08.26,0,.33s-.12.62,0,.62a3.3,3.3,0,0,0,.75-.68Zm-2.27,2.52c1-1,1.11-1.28.65-1.28-.16,0-.28,0-.28.09s-.12.09-.26.09-.39-.14-.73-.47a4.16,4.16,0,0,0-.71-.59.91.91,0,0,1-.34-.36c-.07-.14-.17-.26-.24-.26a7,7,0,0,1-1-.93l-.93-.94,0-.56c0-.35,0-.56-.08-.56a9.69,9.69,0,0,0-1.95,2c0,.18,0,.19.51.14l.52-.06,1.19,1.19a14.44,14.44,0,0,0,1.29,1.18,3.69,3.69,0,0,1,.68.59l.6.6-.05.48c-.08.82,0,.79,1.15-.39Zm-5.33,4.84a.89.89,0,0,1,.3-.24,5.61,5.61,0,0,0,.81-.75,5.07,5.07,0,0,1,.82-.74,1.65,1.65,0,0,0,.45-.38,1.56,1.56,0,0,1,.47-.37.62.62,0,0,0,.28-.19c.13-.14.15-.27.1-.62a1.54,1.54,0,0,0-.14-.54,1.37,1.37,0,0,1-.16-.47c-.08-.47-.28-.68-.49-.55s-.16.26-.18.7a3.09,3.09,0,0,1-.92,2c-.6.6-.78.56-1.66-.38l-1.17-1.24a2.69,2.69,0,0,1-.52-.7,1.6,1.6,0,0,0-.36-.51c-.58-.57-.77-1.07-.51-1.33a.27.27,0,0,0,0-.25c-.07-.16-.35-.2-.35,0s-.05.09-.12.09a1.87,1.87,0,0,0-.53.42,2.08,2.08,0,0,1-.51.42,2.05,2.05,0,0,0-.8.85.32.32,0,0,0,.48.29c.33-.21.63-.13,1.06.3a2,2,0,0,1,.42.49,2.55,2.55,0,0,0,.52.59,2.53,2.53,0,0,1,.51.62,2.27,2.27,0,0,0,.47.63,4.16,4.16,0,0,1,.46.57,2.12,2.12,0,0,0,.34.46c.18.21.28.4.23.42s-.1.13-.1.25,0,.23-.09.23-.12.17,0,.31.48,0,.82-.35Zm-11,1.68c-.08-.1-.08-.17,0-.31s.07-.23-.14-.51-.34-.82-.15-.82.09-.06.09-.14a.14.14,0,0,1,.14-.14c.08,0,.14,0,.14-.09s.13-.11.28-.14a.72.72,0,0,0,.33-.15.76.76,0,0,1,.45-.09.78.78,0,0,1,.68.29.92.92,0,0,1,.27.82c0,.62-.22,1-.62,1a.5.5,0,0,0-.31.08,1.59,1.59,0,0,1-.85.38.49.49,0,0,1-.32-.13Zm1.77,3a8.63,8.63,0,0,1-.76-1.33,1.75,1.75,0,0,0-.28-.45c-.2-.09-.05-.37.25-.49s.33-.15.33-.19.12-.1.27-.13a.72.72,0,0,0,.34-.15.89.89,0,0,1,.49-.09.86.86,0,0,1,.81.38c.37.37.37.39.37,1.06s-.07.86-.42,1l-.55.3c-.49.28-.66.29-.85.07Zm-.93,1.75a.64.64,0,0,1,.28-.14,2.11,2.11,0,0,0,.51-.27,4.58,4.58,0,0,1,.66-.38,3.07,3.07,0,0,0,.56-.33,1.35,1.35,0,0,1,.42-.24.63.63,0,0,0,.29-.15,1.82,1.82,0,0,1,.46-.29,1.69,1.69,0,0,0,.79-.91c0-.08.1-.21.14-.3a2,2,0,0,0-.37-1.79.35.35,0,0,1-.08-.24c0-.06,0-.15-.11-.18l-.35-.18a1.25,1.25,0,0,0-.48-.11h-.27v-.88c0-.81,0-.9-.22-1.13a1.78,1.78,0,0,0-1.46-.55,4.69,4.69,0,0,0-1.76.73,5.49,5.49,0,0,1-.63.37c-.2.1-.35.21-.35.25s-.12.1-.26.13a2.1,2.1,0,0,0-.55.29,1.25,1.25,0,0,1-.39.23.64.64,0,0,0-.25.19c-.16.18-.17.2,0,.35s.2.13.32.06.57,0,.78.29.08.14,0,.14-.2.12,0,.28a.4.4,0,0,1,.14.24,1.06,1.06,0,0,0,.22.39,1.44,1.44,0,0,1,.29.52c0,.14.1.25.14.25s.11.12.14.28a.79.79,0,0,0,.23.4.76.76,0,0,1,.24.35,1.34,1.34,0,0,0,.23.42c.43.5.61,1.31.33,1.54a.38.38,0,0,0-.08.5c.07.07.43,0,.5-.13Zm-4.88,2.09L334,255l-.06-3.28-.06-3.28.21-.26a.63.63,0,0,1,.38-.25.16.16,0,0,0,.18-.18c0-.25-.14-.32-.39-.19a3.64,3.64,0,0,1-.39.2,2.79,2.79,0,0,1-.68.14c-.27,0-.5.09-.5.13s-.12.1-.28.13a.63.63,0,0,0-.33.15c-.08.12.13.36.31.36a.79.79,0,0,1,.37.21c.17.16.21.3.21.74a1.31,1.31,0,0,0,.09.6,10.26,10.26,0,0,1,0,2.6c-.07.07-1-.78-1-.92a3,3,0,0,0-.56-.66,2.76,2.76,0,0,1-.56-.66c0-.06-.1-.18-.23-.28s-.34-.71-.14-.83a.48.48,0,0,0,.09-.33c0-.23,0-.28-.22-.28a.74.74,0,0,0-.39.14.84.84,0,0,1-.39.14c-.12,0-.21,0-.21.09s-.13.11-.29.15a2.47,2.47,0,0,0-.54.19,1.22,1.22,0,0,1-.36.13c-.18,0-.15.38,0,.53a.75.75,0,0,0,.32.12,4.93,4.93,0,0,1,1.29,1.2,2.65,2.65,0,0,0,.43.49,2.89,2.89,0,0,1,.49.57,16,16,0,0,0,1.17,1.33c1.12,1.19,1.22,1.25,1.72,1.12Zm-8.38,2.35c.09-.11.33-.14,1.08-.14a4.7,4.7,0,0,0,1.14-.09c.09,0,.35-.18.59-.28.58-.27,1.3-1,1.3-1.39a.63.63,0,0,1,.11-.37c.08-.08.08-.16,0-.32a2.35,2.35,0,0,1-.16-.51c-.07-.36-.7-1-1-1a.57.57,0,0,1-.33-.11,2.89,2.89,0,0,0-1-.15,3.63,3.63,0,0,1-1-.12,1.6,1.6,0,0,0-.64-.08c-.59,0-1.27-.24-1.27-.45s-.05-.11-.1-.11-.1-.5.07-.7a1.37,1.37,0,0,1,1-.52.62.62,0,0,0,.39-.09.39.39,0,0,1,.28-.09c.13,0,.23,0,.23.09s.19.09.43.09a1.09,1.09,0,0,1,.72.23c.39.3.75.38.89.21s-.06-.59-.64-1.21l-.45-.49-.26.25c-.25.22-.35.25-1.25.29a2.57,2.57,0,0,0-1.41.29,3.26,3.26,0,0,0-1.14,1c-.18.26-.23,1.36-.06,1.36s.09,0,.09.12a1.67,1.67,0,0,0,.72.72.12.12,0,0,1,.12.1c0,.05.1.09.21.09a.51.51,0,0,1,.32.1,6.15,6.15,0,0,0,1.37.15,5.26,5.26,0,0,1,1.27.14s.19.08.42.08a.91.91,0,0,1,.55.14.56.56,0,0,0,.24.14c.06,0,.1.06.1.14s0,.14.1.14.1.52,0,.65a.4.4,0,0,0-.14.22c0,.12-.65.44-.88.44a.27.27,0,0,0-.2.09,1.8,1.8,0,0,1-.74.09,1.86,1.86,0,0,1-.75-.09.25.25,0,0,0-.2-.09,2.31,2.31,0,0,1-1-.46c0-.11-.35-.2-.52-.14s-.18.5,0,.5a.12.12,0,0,1,.1.13.74.74,0,0,0,.23.34.75.75,0,0,1,.23.31c0,.34.71.57.94.3Z" fill="#50d6cc"/><path d="M370.64,142.93c.26-.32.39-.34,2.78-.39s2.53,0,2.78.27c.49.57.66.4.66-.66s-.15-1.33-.52-.77c-.24.37-.27.38-2.37.38a8.87,8.87,0,0,1-2.12-.13,26,26,0,0,1,4-1.7c.59-.22.87-.4.84-.55a4.55,4.55,0,0,0-1.41-.83,14.11,14.11,0,0,1-3.27-1.7c0-.07.33-.09.72,0s1.3.13,2,.19c1.11.08,1.32.15,1.64.49s.39.36.51.17a6.29,6.29,0,0,0,.06-2.27,1.51,1.51,0,0,0-.43.23c-.29.19-.58.21-1.78.08-.79-.08-1.88-.15-2.44-.15-.92,0-1,0-1.33-.41-.46-.58-.64-.29-.59.94l.05,1.05,1.61.69c1.74.74,2.46,1.16,2.34,1.35a14.58,14.58,0,0,1-2.05.85,6,6,0,0,0-2.15,1,2.88,2.88,0,0,0-.08,1.16c.05.47.09.91.09,1,0,.21.18.12.47-.23Zm1.62,7.63c.42-.07,1.56-.17,2.53-.23,1.61-.1,1.8-.09,2.09.17l.33.29-.1-2.2c-.05-1.21-.14-2.35-.19-2.54s-.32-.41-.85-.58a2.08,2.08,0,0,0-.83-.17c-.05,0,.13.27.39.49a2.76,2.76,0,0,1,1,2c.13,1-.15,1.25-1.48,1.37-.92.09-1,.07-1.24-.26a1.49,1.49,0,0,1,.06-1.73c.55-.51.39-.73-.46-.65s-1,.18-.71.54a3.44,3.44,0,0,1,.43,2.19,2.77,2.77,0,0,1-1,.22c-1.14.11-1.3-.07-1.32-1.39a1.94,1.94,0,0,1,.34-1.44c.19-.27.31-.52.27-.57s-1,.27-1.13.51a27.58,27.58,0,0,0,.37,4.6l.08.37.34-.43a1.53,1.53,0,0,1,1.11-.54Zm1.26,8.61a2.29,2.29,0,0,0-.61-.79c-.57-.55-.78-1.16-.48-1.35.07,0,1.17-.23,2.45-.42,2.18-.32,2.34-.33,2.76-.09s.43.24.43,0a11.88,11.88,0,0,0-.36-2.11s-.22.1-.42.3-.67.4-2.18.62c-1,.15-2.09.28-2.43.3-.6,0-.6,0-.65-.55a2,2,0,0,1,.35-1.25c.46-.79.3-.88-.7-.36-.52.26-.6.37-.52.64a31.75,31.75,0,0,1,.6,4.41c-.1.26.19.49.85.68s.91.21.91,0Zm.15,7.42c.16-.42.35-.49,3-1.08,2-.44,2.47-.46,2.73-.15a.59.59,0,0,0,.34.23c.17,0,.16-.09-.45-3l-.42-2-.6-.2a2.73,2.73,0,0,0-.91-.15c-.27,0-.23.1.24.42a2.59,2.59,0,0,1,1.18,2c.16.75.15.85-.13,1.13a3.21,3.21,0,0,1-2.3.29,2.41,2.41,0,0,1-.24-.91c-.07-.66,0-.8.25-1.07s.27-.35.16-.42a3.42,3.42,0,0,0-1.74.27c-.3.15-.3.16,0,.28.48.17.78.72.84,1.5l0,.68-.9.18c-1.19.23-1.38.12-1.5-.89a3.06,3.06,0,0,1,.23-1.89c.28-.58.07-.68-.54-.27-.45.31-.56.47-.5.72s.19,1.08.32,2a7,7,0,0,0,.63,2.66s.13-.17.21-.38Zm1.06,5.08c0-.3.49-.6,1.25-.76,3.84-.84,4.27-.9,4.45-.61s.38.15.37-.27a3.41,3.41,0,0,0-.58-1.83c-.09,0-.17.06-.17.19,0,.34-.37.47-2.81,1s-2.53.55-2.89.15c-.15-.17-.33-.25-.39-.19a7.65,7.65,0,0,0,.4,2.34c.11.18.37.17.37,0Zm1,7.54c.1-.25.74-.64,2.3-1.41,3.1-1.51,3.4-1.68,3.46-1.94s-.53-.86-1.05-.86a32.89,32.89,0,0,1-4.49-1.07,2.77,2.77,0,0,1-.77-.48c-.21-.2-.4-.27-.48-.18a5.11,5.11,0,0,0,.17,2.12c.05.05.3-.06.56-.25l.47-.35,1.48.28c2.18.42,2.19.49.25,1.51a18.17,18.17,0,0,1-1.75.85.85.85,0,0,1-.35-.24c-.38-.38-.57-.11-.47.67.18,1.41.25,1.7.39,1.7s.21-.16.28-.35Zm1.46,6a1.79,1.79,0,0,1-1.54-2c.19-1,.87-1.34,2.8-1.35a4.74,4.74,0,0,1,2.05.26,1.67,1.67,0,0,1-.49,3.09,7.85,7.85,0,0,1-2.82,0Zm3.27,1a2.77,2.77,0,0,0,1.38-2.8,14.43,14.43,0,0,1,0-3.2c.16-1.16-.05-1.25-.43-.18a2,2,0,0,1-.47.85,1.28,1.28,0,0,1-.7-.18,5.24,5.24,0,0,0-3-.24,3.77,3.77,0,0,0-2.18,2.09,3.12,3.12,0,0,0,1.59,3.64,4.92,4.92,0,0,0,3.73,0Z" fill="#50d6cc"/><path d="M254.56,219.44a2,2,0,0,1-.41-.63,1.48,1.48,0,0,0-.1-.37q-.13-.36,1.29-.9c.62-.24,1,.27,1,1.24s-.19,1.15-.89,1.15a1.09,1.09,0,0,1-.92-.49Zm1.87,1.77a1.65,1.65,0,0,0,.93-1.65c0-1-1.54-4.57-1.93-4.57-.07,0-.19.24-.27.52-.13.47-.35.62-2.28,1.59-2.11,1.06-2.79,1.25-3.15.89s-.36.39.13,1.45.89,1.42,1,.68c0-.35.24-.53,1-1a5.65,5.65,0,0,1,1.14-.51c.11,0,.42.43.71,1,.82,1.55,1.62,2,2.74,1.59Zm.3,7.71c.71-.12.8-.51.16-.66-1-.24-2.27-1.43-2.27-2.15,0-.18.74-.73,2.11-1.57,2-1.23,2.14-1.29,2.81-1.19s.69.08.59-.19a11.18,11.18,0,0,0-1.57-2.27c-.06,0-.12.2-.12.46,0,.43-.16.58-1.55,1.49-2.66,1.73-3.06,1.94-3.4,1.73s-.79-.24-.66.09a43.75,43.75,0,0,0,2.64,4.37.62.62,0,0,0,.43.06c.13,0,.5-.11.83-.17Zm4,2.22c-.15-.24-.21-.46-.12-.54a3.55,3.55,0,0,1,1.42-.46,3.41,3.41,0,0,1-.89,1.4c-.08,0-.26-.18-.41-.4Zm.1,4.35a12.18,12.18,0,0,1,1.67-3.25c.92-1.52,1.67-2.82,1.67-2.9,0-.38-.49-.55-1.08-.38l-1.46.41c-.49.13-1.62.47-2.51.74a5.07,5.07,0,0,1-2.07.4c-.56-.14-.58-.14-.64,0s1.39,2,1.57,1.86.1-.26,0-.47c-.1-.41.3-.77,1.07-1,.35-.08.5,0,.91.51.61.73.65,1.35.13,1.87a.83.83,0,0,1-.8.3c-.23,0-.42,0-.42,0,0,.4,1.57,2.51,1.77,2.39a.89.89,0,0,0,.14-.58Zm5.53,4.54c.74-.46.31-.81-.67-.53a1.41,1.41,0,0,1-1.27-.09,1.79,1.79,0,0,1-1-1.62c0-.87,1.46-2.66,2.68-3.29.6-.31.72-.31,1.41,0a2.47,2.47,0,0,1,1.15,2.16c0,.72.23.77.56.13s.32-1.21.08-1.36a3.61,3.61,0,0,1-.55-.71,3.51,3.51,0,0,0-2.46-1.44,4.56,4.56,0,0,0-3.95,4.32C262.49,239.63,264.8,241,266.36,240Zm1.82,3.55c-.06-.49.16-.78,2.23-2.94,1.31-1.36,1.45-1.47,1.89-1.38.74.17.58-.24-.48-1.25s-1.36-1.13-1.22-.37c.1.5,0,.64-1.66,2.45s-1.78,1.92-2.31,1.85c-.78-.11-.71.17.32,1.28s1.32,1.09,1.23.36Zm5.08,3.78c-.8-.33-1.45-.85-1.45-1.15,0-.46,3-4.32,3.34-4.32a2.18,2.18,0,0,1,1,.61,1.42,1.42,0,0,1,.64,1.38,4.17,4.17,0,0,1-1.54,2.81c-.81.79-1.28.95-1.94.67Zm2.35.66a4.36,4.36,0,0,0,2.06-2.3,1.89,1.89,0,0,0,.21-1.66,4,4,0,0,0-.75-1.48,11.74,11.74,0,0,0-3.47-2.6c-.25,0-.28,0-.13.19.48.48,0,1.41-1.64,3.32-.35.4-.79.94-1,1.19a1,1,0,0,1-.87.48c-.29,0-.56.09-.59.18s.4.52.94.94a18.52,18.52,0,0,1,1.48,1.27,2.28,2.28,0,0,0,2,.86,3.4,3.4,0,0,0,1.69-.39Zm3.6.68c-.17-.1-.35-.2-.38-.23s.51-.7.75-.7a1,1,0,0,0,.53-.26c.4-.36.51-.19.23.36a5.48,5.48,0,0,0-.32.74c-.1.32-.35.35-.81.09Zm1.88,4.54c.05-.05,0-.23-.06-.39a16.23,16.23,0,0,1,.61-5,2.25,2.25,0,0,0,.25-1.29c0-1.45-.18-1.45-1.82,0a12.32,12.32,0,0,1-1.65,1.27,6.62,6.62,0,0,0-1.23.92c-.85.75-1.34,1-1.66,1-.82-.15-.52.31.64,1a2.41,2.41,0,0,0,.92.37c.06,0,.08-.29,0-.55s0-.58.36-.95c.55-.58.7-.58,1.51-.07s.86.68.68,1.47c-.11.48-.23.62-.65.75s-.52.19-.52.25a16.33,16.33,0,0,0,2.4,1.42.32.32,0,0,0,.2-.1Zm8.7,3a1.37,1.37,0,0,0-.19-.48c-.22-.35-.16-.54,1-3.59.48-1.22.73-1.66,1-1.79.61-.28.32-.6-.84-.91l-1.06-.29-.49.6a16.49,16.49,0,0,1-2.26,2.59c-.13,0-.16-.5-.09-2.06l.08-2.12-.89-.43a6.54,6.54,0,0,0-1-.43c-.25,0-.52.56-.38.8a4.33,4.33,0,0,1-.42,1.83c-.31.87-.68,1.94-.83,2.37a1.79,1.79,0,0,1-.71,1c-.63.36-.48.66.48,1s1.16.2.85-.38c-.15-.28-.1-.59.29-1.7a12.71,12.71,0,0,1,1-2.66,14.16,14.16,0,0,1,0,2.59c-.11,2.46-.09,2.72.16,2.93s.19.4,2.33-2.34c1.3-1.66,1.73-2.1,1.51-1.54-.06.17-.29.89-.5,1.61-.47,1.62-.8,2.29-1.2,2.39a.33.33,0,0,0-.1.63c.62.41,2.18.67,2.18.37Z" fill="#50d6cc"/><path d="M339.4,97.26a107.33,107.33,0,0,0-8.61-10.56A12.73,12.73,0,0,1,329.33,85c0-.6-12.8-11.84-17.89-15.72-2.74-2.09-3-2.19-3-1.45,0,.4-.7.84-1.11.7a1.33,1.33,0,0,1-.59-.48c-.23-.37-.32-.38-1.79-.33s-1.57.07-1.86.47-.32.42.05.81a.84.84,0,0,1-.19,1.39,6.85,6.85,0,0,0-.9.67,1.1,1.1,0,0,1-1.15.37c-.63-.1-.83,0-1.6,1.18a3.28,3.28,0,0,1-.74.67,4,4,0,0,0-1,1.07,9,9,0,0,1-1.46,1.55c-1,.8-1.21,1.3-.68,1.48a2.73,2.73,0,0,1,1.48,1.41c.16.51.24.56.75.56s.69.13,1.22.73a2.11,2.11,0,0,0,1,.72,1.85,1.85,0,0,1,.9.58c1,1.08,2.22,1.33,2.81.59l.34-.43.92.82a13,13,0,0,0,3.82,2.14c.64.23,1,.7,1.67,2.1a10.27,10.27,0,0,0,.76,1.36,2.31,2.31,0,0,1,.41,1.53c0,.85,0,.94.46,1.16s.55.2,1.64-.19a7.1,7.1,0,0,1,2.95-.43,5.66,5.66,0,0,1,2.87.45l1.1.46,1.44-.44a14.36,14.36,0,0,1,2.55-.53c2.07-.14,4.34.61,5,1.65.81,1.34-.18,3.08-2,3.47a4.24,4.24,0,0,1-3-.46c-.77-.39-.89-.41-1.37-.22a6.42,6.42,0,0,1-3.89.69,10.9,10.9,0,0,1-2.25-.55l-.95-.38-1,.46a7.49,7.49,0,0,1-1.84.55,9.43,9.43,0,0,1-3.85-.75c-.85-.41-.82-.41-2,.14a5.88,5.88,0,0,1-5.42-.15l-1-.49-1,.5a5.23,5.23,0,0,1-5.47,0,8.33,8.33,0,0,0-1.39-.63,2.4,2.4,0,0,0-.73.37,6.85,6.85,0,0,1-4.09,1c-2.08,0-3.55-.39-4.38-1.2a2.07,2.07,0,0,1,.15-3.1,5.1,5.1,0,0,1,2.78-.89,9.7,9.7,0,0,1,3.11.71c.41.21.52.19,1.32-.2a4.35,4.35,0,0,1,2.55-.43,5.44,5.44,0,0,1,2.74.44c1,.42,1.08.43,1.73.17.36-.14.66-.34.66-.44a2.88,2.88,0,0,0-.91-.73c-2.91-1.81-6.14-4.08-6.14-4.34a8.94,8.94,0,0,0-1.15-1.1c-2-1.71-5.16-5.77-5.35-6.8-.14-.73.05-1.1,1.16-2.32.55-.59,1.45-1.69,2-2.44a7.71,7.71,0,0,1,2.26-2.17l2.55-1.65c1.95-1.26,2.43-1.73,2.38-2.37a.75.75,0,0,1,.32-.77,2.86,2.86,0,0,0,.69-.94c.44-.92.9-1,1.68-.21l.59.57.65-.25a1.12,1.12,0,0,0,.84-.86,5.08,5.08,0,0,1,.58-1.2,4.08,4.08,0,0,0,.4-.66,2.42,2.42,0,0,0-.5-.52,1.64,1.64,0,0,1-.33-2.18c.26-.23.47-.27,1-.19a8.08,8.08,0,0,0,1.25.09c2.51-.08,2.45-.08,3.53.48a10.6,10.6,0,0,1,2.13,1.64c1.06,1.07,1.09,1.09,1.47.84s.76-.18,1.28.39c.29.33.29.35-.13,1.15a4.36,4.36,0,0,0-.42,1c0,.11.27.38.6.6.81.54,5.34,4.14,7.42,5.89,1.77,1.5,3.51,3.09,7.43,6.81,2.53,2.4,6.63,6.78,6.56,7a38.39,38.39,0,0,0,3.19,4.14c1.33,1.59,4.14,7.09,4.33,8.48.1.68-.28.53-.86-.35Zm-1.29-3.35a36.59,36.59,0,0,0-4.58-6.71A19.4,19.4,0,0,1,331.89,85c-.39-1-6.66-7.2-12.1-11.93-1.58-1.38-2.58-2.2-6.41-5.29-.62-.5-1.63-1.25-2.24-1.67L310,65.36l-.38.44a1.15,1.15,0,0,0-.32.69,19.29,19.29,0,0,0,2.61,2.24c3.7,2.87,6.18,5,11.77,9.89A80.46,80.46,0,0,1,330.27,85a18,18,0,0,0,1.49,1.76,83,83,0,0,1,5.79,6.92,8.05,8.05,0,0,0,1,1.33,4,4,0,0,0-.48-1.08Zm-48.22.45c1.09-.25,2.32-.9,2.32-1.22s-2-1.67-3.13-2.11a6.63,6.63,0,0,0-4-.09c-1.22.54-1.62,1.69-.86,2.45,1,1,3.64,1.46,5.7,1Zm16.11.06a.46.46,0,0,1,.37-.16,2.36,2.36,0,0,0,.82-.34l.56-.34-.64-.56c-.35-.3-.85-.75-1.11-1a8,8,0,0,0-1.29-.88,7.64,7.64,0,0,0-5-.28c-.53.17-1,.41-1,.53s2.56,2,3.71,2.56a11.1,11.1,0,0,0,3.18.61.44.44,0,0,0,.37-.14Zm16.07-.32c.38-.17.68-.37.68-.46a13.65,13.65,0,0,0-3.59-2.57,7.45,7.45,0,0,0-4.58-.22c-.49.17-.9.41-.92.54a10.09,10.09,0,0,0,2.84,2.15c1.74.9,4.26,1.16,5.57.56Zm-16-3.54c0-.31,1.8-.67,3.1-.61s1.3,0,1.45-.37.14-.49-1.08-2.72a7.2,7.2,0,0,0-.81-1.24,16.36,16.36,0,0,0-1.72-1c-.83-.43-1.7-.9-1.94-1.06l-.44-.29.09.7a1.94,1.94,0,0,1-.16,1.18,2.34,2.34,0,0,0-.26.89,5.17,5.17,0,0,1-.24,1.21c-.41,1.36-.25,3,.29,3a2.51,2.51,0,0,1,.76.3c.54.29,1,.29,1,0Zm-3.69-.93c0-.27-.65-1-1.23-1.32s-.47-.61.27-.22c.28.14.54.22.59.18a2.07,2.07,0,0,0-.43-.82,3.94,3.94,0,0,1-1-2.81l.11-.72.21.51c.12.28.18.58.12.66-.21.34,1.59,2.27,2.13,2.27s1.1-2.78.88-3.56c-.14-.48-.2-.53-.86-.57a3.1,3.1,0,0,1-2.39-.77,5.22,5.22,0,0,0-1.19-.79,3,3,0,0,1-1-.8c-.46-.61-.82-.72-1-.3-.07.18,0,.37.33.58.6.44.79.85.58,1.24s-.6.41-1.09.07-.48-.77,0-.63.4-.34-.2-1a4.4,4.4,0,0,1-.81-1.37,1.94,1.94,0,0,0-.81-1.13c-.94-.58-1.24-.25-.5.56.33.35.37.48.21.67s-.23.19-.49-.07a5.68,5.68,0,0,1-.55-3,2.56,2.56,0,0,1,.86-.92,5.65,5.65,0,0,0,2-2,6.77,6.77,0,0,0,.47-.83s-.25,0-.56,0-.56,0-.56-.09a.19.19,0,0,1,.21-.18,3.22,3.22,0,0,0,.92-.45,2,2,0,0,1,.91-.39c.2.06,1.15-.89,1.16-1.17a3.11,3.11,0,0,0-.7-.86l-.71-.69-.45.33c-.36.26-.79.34-2,.4-.83,0-1.3,0-1,0a6,6,0,0,0,2.45-.79l.57-.38-1.33-1.33-1,.8a28.26,28.26,0,0,1-2.89,2,9.36,9.36,0,0,0-3.84,3.38,17.52,17.52,0,0,1-1.62,2c-1.09,1.13-1.25,1.53-.86,2.13a37,37,0,0,0,4.25,5.22l2.23,2.09a38.57,38.57,0,0,0,5.53,3.78l1,.53-.73-.71a13.7,13.7,0,0,1-1.39-1.66,13.66,13.66,0,0,0-1.32-1.64c-.71-.74-.62-.83.48-.52.45.13.79.48,1.73,1.74A10.77,10.77,0,0,0,301,89.43c.56.34,1.44.46,1.44.2Zm-10.32-9.91c-.24-.25-.08-1.14.33-1.73s.7-.53.23.24a.92.92,0,0,0-.17.91c.2.52-.06.91-.39.58Zm-.75-1.56c0-.78,1.17-1.71,2.12-1.69.27,0,.21.06-.24.22-.79.28-1.23.69-1.23,1.12s-.28.73-.52.73c-.07,0-.13-.17-.13-.38Zm8.34,11.22s-.07-.12-.16-.17-.16,0-.16.07a.17.17,0,0,0,.16.17C299.59,89.45,299.66,89.42,299.66,89.38Zm2.16-19c.16-.23.19-.38.08-.42s-.79.42-.79.64.47.13.71-.22Zm-.48-.92a.54.54,0,0,0,.41-.56c0-.59-.57-.54-.88.06s-.31.79.47.5Zm-1.19-.53a2.55,2.55,0,0,0,.31-.64c0-.25-.44-.1-.79.28s-.34.43-.17.64.28.32.65-.28Zm-.58-1a.65.65,0,0,0,.08-1c-.23-.14-.42.07-.55.61s0,.53.47.34Zm3.32-.65c.25-.41.41-.52.6-.43A6.7,6.7,0,0,0,305,67c1.18.06,1.24.05,1.81-.46a4.27,4.27,0,0,0,.82-1c.22-.42.21-.53-.07-1.18-.18-.4-.39-.72-.47-.72-.28,0-.54.46-.51.91.05.72,0,.79-.39,1s-.47.11-.91-.22a2.07,2.07,0,0,0-2-.22l-.43.16.1-.75c.11-.85-.12-1.91-.45-2s-1.37,1.27-1.37,2.2c0,.52-.05.57-.44.58-1.14,0-1.05.41.41,1.8,1.07,1,1.27,1,1.81.17Zm5.12,0a9,9,0,0,1,1.23-2c1.28-1.72,1.54-2.16,1.41-2.38s-.39-.16-.69.52a3.54,3.54,0,0,1-.67,1l-.37.32L309,64c.14-.86-.13-1.39-1.3-2.54a7.7,7.7,0,0,0-3.38-1.91c-.42-.07-.6,0-1,.39a2.48,2.48,0,0,1-.56.47,1.92,1.92,0,0,1-.49-.4c-.45-.45-1.13-.53-1.28-.15a1.77,1.77,0,0,0,.51,1.24c.38.22,1,.26,1.15.08.94-1.19,1.1-1.31,1.66-1.3a6.14,6.14,0,0,1,3.26,1.9c1.15,1.1,1.35,1.61,1,2.42a3,3,0,0,0-.26,1,3.46,3.46,0,0,1-.55,1.29c-.55.86-.59,1.37-.12,1.28.14,0,.31-.28.36-.56Zm-9.55,0c.29-.58.09-.76-.41-.36-.23.19-.33.39-.26.56.15.4.39.33.67-.2ZM297,66a.85.85,0,0,0,0-.49c-.15-.15-.81.52-.7.71s.57.2.67-.22Zm1.17,0q.36-.27.21-.42c-.2-.2-.45-.06-.68.36s0,.4.47.06Zm7.94-2a2.64,2.64,0,0,1,.72-.91c.38-.28.45-.42.32-.58-.29-.35-.69-.25-1.21.31-.72.75-.92,1.21-.69,1.49s.62.27.86-.31Zm2-.26c0-.18-.1-.32-.24-.32s-.28,0-.14.39.38.31.38-.07Zm-2.74-.92c.74-.86.82-1.25.3-1.42-.28-.09-.47,0-1,.58a1.94,1.94,0,0,0-.61,1.14c0,.71.51.59,1.27-.3Zm-1.19-.9c.47-.62.51-.94.14-1.24s-.33-.14-.8.42c-.66.78-.72,1.36-.15,1.36a1.14,1.14,0,0,0,.81-.54Z" fill="#50d6cc"/><path d="M244.81,137.59a2.92,2.92,0,0,1-.66-.85,5.8,5.8,0,0,1-.2-2.39,3.2,3.2,0,0,1,1.39-.24l1.26-.06.05,1c0,.83,0,1-.28,1.26s-.32.33-.32.4.88.16,1.58,0l.52-.1-.35-.27a1.66,1.66,0,0,1-.5-1c-.21-1.12-.1-1.3.8-1.43s1.41,0,1.53.5a3.66,3.66,0,0,1-.4,2.41c-.49.68-.3.88.47.49s.7-.23.46-3.07a9,9,0,0,0-.3-2c-.08-.08-.29,0-.51.1a10,10,0,0,1-2.88.42l-2.51.19-.78-.73.11,2.13c.15,3,.2,3.19.86,3.52a2.75,2.75,0,0,0,.87.28c.27,0,.24-.07-.21-.5Zm5.36,6.9c0-1-.17-1.28-.48-.7-.15.28-.33.31-1.9.31a5.63,5.63,0,0,1-1.74-.13,14.42,14.42,0,0,1,2-1.35,12.53,12.53,0,0,0,2.14-1.47,6,6,0,0,0,0-2.27c-.06,0-.21.14-.31.32s-.37.31-2.89.31-2.7,0-3-.34-.37-.3-.43-.24a3.68,3.68,0,0,0-.17,1.06c-.07,1,.16,1.27.55.63.19-.29.37-.32,2.49-.32a11.69,11.69,0,0,1,2.36.13c0,.07-.15.31-.43.52a23.15,23.15,0,0,1-2.72,1.73,10.15,10.15,0,0,0-1.2.71c-1.1.71-1.39,1.2-.84,1.41a28,28,0,0,0,2.94.09c2.64,0,2.69,0,3,.39.19.21.4.35.46.3a2.73,2.73,0,0,0,.13-1.09Zm-4.53,7.19a7.23,7.23,0,0,0,1.15-1.86c.81-1.68,1.22-2.23,1.68-2.23,1.06,0,1,2.1-.16,3.34-.31.34-.52.67-.46.72a1.66,1.66,0,0,0,.85-.13c.67-.2.76-.28.77-.7a5.88,5.88,0,0,1,.2-1.1c.41-1.45.08-2.95-.72-3.26a2.35,2.35,0,0,0-1.86.23,9.16,9.16,0,0,0-1.59,2.87c-.35.86-.69,1.19-1.2,1.19-.67,0-.94-.38-.94-1.28a3.09,3.09,0,0,1,1-2.41c.69-.69.73-.95.14-.8-1.23.31-1.23.31-1.25.78a5,5,0,0,1-.28,1.22,3.78,3.78,0,0,0,0,2.64,1.79,1.79,0,0,0,2.68.78Zm2.25,7.21c.28-.08.37-.28.51-1.15.09-.58.28-1.72.43-2.53a6.67,6.67,0,0,0,.17-1.56c-.06-.06-.23,0-.39.16-.33.3-1.19.27-3.8-.15-1.83-.29-1.91-.32-2-.79-.23-.92-.4-.41-1,3-.33,1.81-.28,2,.66,2.47s1,.29.41-.29a2.32,2.32,0,0,1-.53-.95,3.48,3.48,0,0,1,.38-2.24c.26-.29.34-.3,1.38-.12l1.11.19v.63c0,1-.2,1.5-.64,1.7s-.27.38.86.53c.85.11,1,0,.54-.34-.28-.21-.34-1.05-.13-1.9.1-.41.14-.43,1-.34,1.26.13,1.51.31,1.51,1.11a3.17,3.17,0,0,1-1.14,2.14c-.58.42-.14.65.76.41Zm-3.48,7.88a1.84,1.84,0,0,1-.26-1.19v-.9h.75a5.29,5.29,0,0,1,1.13.11c.34.09.37.16.3.87a2.24,2.24,0,0,1-.36,1.08,1.18,1.18,0,0,1-1.56,0Zm1.76,1.17a3.24,3.24,0,0,0,.64-1.3,20.8,20.8,0,0,0,.61-3.81c-.06-.06-.27,0-.47.24-.46.44-.8.43-3.43,0-1.75-.31-2.18-.44-2.42-.73-.41-.52-.59-.24-.7,1.13l-.1,1.17.35-.31c.32-.28.44-.29,1.54-.13a4.43,4.43,0,0,1,1.32.31,3.48,3.48,0,0,1,0,1.28,2.39,2.39,0,0,0,.13,1.74,1.48,1.48,0,0,0,2.55.45Zm-.41,6.74a34.52,34.52,0,0,0,.55-5.18c-.07-.18-.18-.14-.49.17a.81.81,0,0,1-.76.32c-.19,0-1.28-.15-2.41-.25-2.44-.2-2.57-.23-2.7-.63,0-.17-.15-.31-.21-.31a41.11,41.11,0,0,0-.66,5.09c0,.28,1,.92,1.39.92.21,0,.2-.06-.08-.35a3.32,3.32,0,0,1-.57-2.66l.14-.87,1.26,0a2.94,2.94,0,0,1,1.39.24,2,2,0,0,1,0,.9,1.52,1.52,0,0,1-.57,1.13c-.55.48-.51.51.85.7.78.11,1,0,.52-.4a2.8,2.8,0,0,1,0-2.18,2.86,2.86,0,0,1,2,.29,2.73,2.73,0,0,1-.57,2.5,1.56,1.56,0,0,0-.39.7c0,.2.09.22.59.08a2.64,2.64,0,0,0,.7-.26Zm-.08,7.21c.13-.14.14-.66,0-1.93a18.9,18.9,0,0,1-.06-2.62l.09-.87-.78-.27a6.38,6.38,0,0,0-.87-.28c-.23,0-.06.39.38.89a1.6,1.6,0,0,1,.47,1.09c0,.67,0,.67-2.91.77-2.16.07-2.2.07-2.58-.31A2,2,0,0,0,239,178a6.37,6.37,0,0,0-.07,1.34,4.48,4.48,0,0,0,.1,1.35,1.8,1.8,0,0,0,.47-.4l.37-.4L245,180l0,.6a2.3,2.3,0,0,1-.43,1.17c-.22.32-.37.63-.33.71s1.16-.26,1.44-.55Zm-5,4.4,1.38-.24,2.21-.41c1.13-.23,1.19-.23,1.62.09s.6.41.6-.15c0-1.15-.55-2.69-.75-2.09-.14.41-.54.64-1.34.74-.46.06-1.08.16-1.39.23s-1.07.22-1.7.33c-1.13.2-1.16.2-1.56-.18l-.41-.38.11.87a14.2,14.2,0,0,0,.27,1.5l.16.63.22-.43a1.12,1.12,0,0,1,.58-.51Zm6.83,6.67.63-.53-.61-2.12c-.34-1.17-.63-2.29-.65-2.5-.06-.52-.19-.6-1.12-.73s-1.22.12-.37.55,1.3,1.3.94,1.65a26.93,26.93,0,0,1-4.82,1.52.83.83,0,0,1-.56-.24c-.55-.66-.57.1,0,1.7.28.87.43.94.66.29.14-.4.32-.51,1.4-.85a14.85,14.85,0,0,1,3.92-.85c.34.13.31,1-.06,1.77-.48,1-.24,1.13.69.34Z" fill="#50d6cc"/><polyline points="19.64 1.57 3.54 1.57 3.54 159.26" fill="none" stroke="#a3a3a3" stroke-linecap="round" stroke-linejoin="round" stroke-dasharray="5 5"/><polyline points="17.8 345.45 3.54 345.45 3.54 190.98" fill="none" stroke="#a3a3a3" stroke-linecap="round" stroke-linejoin="round" stroke-dasharray="5 5"/><path d="M4.68,176a2.84,2.84,0,0,1,1.82,2.73,3.07,3.07,0,0,1-3.26,3.09,3.7,3.7,0,0,1-2.78-1.2l.89-1.07c.16.15.08.32.22.48a2.33,2.33,0,0,0,1.66.72,2.13,2.13,0,0,0,2.13-2.16c0-1.27-1.05-2-2.48-2a4.56,4.56,0,0,0-.54,0v-.95A4.07,4.07,0,0,0,4,175.35a1.86,1.86,0,0,0,1.13-1.67A1.72,1.72,0,0,0,3.3,172a2.54,2.54,0,0,0-1.83.82l-.66-.74A3.49,3.49,0,0,1,3.36,171a2.79,2.79,0,0,1,2.91,2.68A2.46,2.46,0,0,1,4.68,176Z"/><path d="M309.85,363.78v1.07h-4.37l-.16,3a3.92,3.92,0,0,1,1.72-.41,3.19,3.19,0,0,1,3.21,3.53,3.26,3.26,0,0,1-3.35,3.54,3.75,3.75,0,0,1-3.14-1.63l1.06-.79c.14.1.06.27.12.4a2.56,2.56,0,0,0,1.95,1,2.56,2.56,0,0,0,0-5,2.59,2.59,0,0,0-2,1l-.77-.31.37-5.38Z"/><polyline points="25.78 354.27 25.78 369.28 293.47 369.28" fill="none" stroke="#a3a3a3" stroke-linecap="round" stroke-linejoin="round" stroke-dasharray="5 5"/><polyline points="598.45 354.27 598.45 369.28 321.51 369.28" fill="none" stroke="#a3a3a3" stroke-linecap="round" stroke-linejoin="round" stroke-dasharray="5 5"/></svg>