<svg xmlns="http://www.w3.org/2000/svg" width="600" height="410" viewBox="0 0 600 410"><title>flag-georgia-dimensions</title><line x1="21.82" y1="197.04" x2="21.82" y2="199.54" fill="none" stroke="#a3a3a3" stroke-linecap="round" stroke-linejoin="round"/><line x1="21.82" y1="204.67" x2="21.82" y2="366.18" fill="none" stroke="#a3a3a3" stroke-linecap="round" stroke-linejoin="round" stroke-dasharray="5.13 5.13"/><polyline points="21.82 368.74 21.82 371.24 24.32 371.24" fill="none" stroke="#a3a3a3" stroke-linecap="round" stroke-linejoin="round"/><line x1="27.18" y1="371.24" x2="31.46" y2="371.24" fill="none" stroke="#a3a3a3" stroke-linecap="round" stroke-linejoin="round" stroke-dasharray="2.86 2.86"/><line x1="32.89" y1="371.24" x2="35.39" y2="371.24" fill="none" stroke="#a3a3a3" stroke-linecap="round" stroke-linejoin="round"/><line x1="35.39" y1="4.29" x2="32.89" y2="4.29" fill="none" stroke="#a3a3a3" stroke-linecap="round" stroke-linejoin="round"/><line x1="30.04" y1="4.29" x2="25.75" y2="4.29" fill="none" stroke="#a3a3a3" stroke-linecap="round" stroke-linejoin="round" stroke-dasharray="2.86 2.86"/><polyline points="24.32 4.29 21.82 4.29 21.82 6.79" fill="none" stroke="#a3a3a3" stroke-linecap="round" stroke-linejoin="round"/><line x1="21.82" y1="11.96" x2="21.82" y2="133.41" fill="none" stroke="#a3a3a3" stroke-linecap="round" stroke-linejoin="round" stroke-dasharray="5.17 5.17"/><line x1="21.82" y1="136" x2="21.82" y2="138.5" fill="none" stroke="#a3a3a3" stroke-linecap="round" stroke-linejoin="round"/><line x1="358.21" y1="394.64" x2="360.71" y2="394.64" fill="none" stroke="#a3a3a3" stroke-linecap="round" stroke-linejoin="round"/><line x1="365.65" y1="394.64" x2="590.53" y2="394.64" fill="none" stroke="#a3a3a3" stroke-linecap="round" stroke-linejoin="round" stroke-dasharray="4.94 4.94"/><polyline points="593 394.64 595.5 394.64 595.5 392.14" fill="none" stroke="#a3a3a3" stroke-linecap="round" stroke-linejoin="round"/><line x1="595.5" y1="389.29" x2="595.5" y2="385" fill="none" stroke="#a3a3a3" stroke-linecap="round" stroke-linejoin="round" stroke-dasharray="2.86 2.86"/><line x1="595.5" y1="383.57" x2="595.5" y2="381.07" fill="none" stroke="#a3a3a3" stroke-linecap="round" stroke-linejoin="round"/><line x1="44.43" y1="381.07" x2="44.43" y2="383.57" fill="none" stroke="#a3a3a3" stroke-linecap="round" stroke-linejoin="round"/><line x1="44.43" y1="386.43" x2="44.43" y2="390.71" fill="none" stroke="#a3a3a3" stroke-linecap="round" stroke-linejoin="round" stroke-dasharray="2.86 2.86"/><polyline points="44.43 392.14 44.43 394.64 46.93 394.64" fill="none" stroke="#a3a3a3" stroke-linecap="round" stroke-linejoin="round"/><line x1="52.01" y1="394.64" x2="262.8" y2="394.64" fill="none" stroke="#a3a3a3" stroke-linecap="round" stroke-linejoin="round" stroke-dasharray="5.08 5.08"/><line x1="265.34" y1="394.64" x2="267.84" y2="394.64" fill="none" stroke="#a3a3a3" stroke-linecap="round" stroke-linejoin="round"/><path d="M6,175.91l-.43-.35c.41-.6.57-.8.82-2.6l.16-1.15H5.18c-1.06,0-2.25,0-2.92,0l0,0L2,170.63l0-.06,5.41-6.77,0,0,1.7-.49.05,0c-.15.89-.31,1.91-.44,2.81l-.62,4.44h.37a1.51,1.51,0,0,0,1.19-.33l.23.16-.74,1.46,0,0-1.18-.07-.23,1.63c-.13.9-.11,1-.52,1.43A12.78,12.78,0,0,1,6,175.91Zm.72-5.34.48-3.45c.13-.88.23-1.84.3-2.47-2.81,3.57-4,5.13-4.42,5.85.66,0,1.38.07,2.16.07Z" fill="#727272"/><path d="M15.74,176.66l-1.19-1.26L16,165.16H14.57l.11-.72h1.41l.18-1.26a3.89,3.89,0,0,1,1.45-2.78c.9-1,1.22-1.22,2.21-1.22h1.13l0,0-.23.62c-.18.46-.25.53-.42.53s-.75,0-1.21,0c-1,0-1.27.39-1.45,1.59l-.35,2.52h2.21v.72H17.31l-.77,5.54c-.23,1.59-.43,3.29-.55,4.52l.51.78v0Z" fill="#727272"/><path d="M22.55,172c-2.18,0-3-.87-2.74-2.83l.23-1.66a3.75,3.75,0,0,1,1.91-2.8,3.4,3.4,0,0,1,2-.6c1.36,0,2.05.64,2.05,1.81a8.77,8.77,0,0,1-.26,1.76l-1.28.69H21.2l-.07.5c-.23,1.63.5,2.16,2.09,2.16a4.55,4.55,0,0,0,2.62-.85h0v.21A3.71,3.71,0,0,1,22.55,172Zm-1.24-4.39h3.24a8.91,8.91,0,0,0,.19-1.41c0-.83-.49-1.26-1.57-1.26s-1.56.59-1.72,1.7Z" fill="#727272"/><path d="M29.87,172c-2.17,0-3-.87-2.74-2.83l.23-1.66a3.75,3.75,0,0,1,1.91-2.8,3.4,3.4,0,0,1,2-.6c1.37,0,2.06.64,2.06,1.81a8.9,8.9,0,0,1-.27,1.76l-1.27.69H28.53l-.07.5c-.23,1.63.49,2.16,2.09,2.16a4.55,4.55,0,0,0,2.61-.85h0v.21A3.69,3.69,0,0,1,29.87,172Zm-1.23-4.39h3.23a7.87,7.87,0,0,0,.19-1.41c0-.83-.49-1.26-1.57-1.26s-1.55.59-1.71,1.7Z" fill="#727272"/><path d="M36.89,171.93c-1.41,0-2-.53-1.82-1.87l.75-4.9H34.4l.11-.72h1.43l.34-2.25,1.32-.2,0,0-.37,2.43h2.37v.72H37.16l-.72,4.72c-.11.71.17,1,1.25,1a3.4,3.4,0,0,0,1.45-.35h0l0,.16A3,3,0,0,1,36.89,171.93Z" fill="#727272"/><path d="M297.56,399.89c-1.8,0-2.77-1-2.47-3.25l.19-1.45a8.26,8.26,0,0,1,2.07-4.95,5.72,5.72,0,0,1,3.43-2.13l.05,0,.13.78c.05.33,0,.41-.28.49-1,.34-2.07.25-2.82,1.12-.42.49-.62.86-.93,3a3.48,3.48,0,0,1,2.54-1,2.11,2.11,0,0,1,2.27,2.6l-.16,1.16a3.59,3.59,0,0,1-1.77,2.87A4.25,4.25,0,0,1,297.56,399.89Zm.78-.92c1.24,0,1.54-.49,1.75-1.94l.2-1.38c.23-1.59-.32-2.16-1.56-2.16a2.21,2.21,0,0,0-1.93.87l-.28,2C296.27,398.12,296.94,399,298.34,399Z" fill="#727272"/><path d="M307.59,404.58l-1.18-1.26,1.43-10.24h-1.41l.1-.72H308l.17-1.26a3.85,3.85,0,0,1,1.45-2.77c.91-1,1.22-1.22,2.21-1.22h1.14v0l-.23.62c-.17.46-.24.53-.42.53s-.74,0-1.2,0c-1.05,0-1.28.39-1.45,1.59l-.36,2.51h2.21v.72h-2.31l-.78,5.54c-.23,1.59-.43,3.29-.55,4.53l.51.78h0Z" fill="#727272"/><path d="M314.4,399.89c-2.17,0-3-.86-2.74-2.83l.23-1.66a3.74,3.74,0,0,1,1.91-2.79,3.33,3.33,0,0,1,2-.6c1.37,0,2.06.63,2.06,1.8a9,9,0,0,1-.27,1.77l-1.27.69h-3.22l-.07.49c-.23,1.63.49,2.16,2.08,2.16a4.55,4.55,0,0,0,2.62-.85h0v.21A3.69,3.69,0,0,1,314.4,399.89Zm-1.24-4.38h3.24a8.11,8.11,0,0,0,.2-1.42c0-.83-.5-1.25-1.58-1.25s-1.55.58-1.71,1.69Z" fill="#727272"/><path d="M321.73,399.89c-2.18,0-3-.86-2.75-2.83l.23-1.66a3.76,3.76,0,0,1,1.91-2.79,3.38,3.38,0,0,1,2-.6c1.36,0,2.05.63,2.05,1.8a9,9,0,0,1-.27,1.77l-1.27.69h-3.22l-.07.49c-.23,1.63.5,2.16,2.09,2.16a4.58,4.58,0,0,0,2.62-.85h0v.21A3.68,3.68,0,0,1,321.73,399.89Zm-1.24-4.38h3.23a8.11,8.11,0,0,0,.2-1.42c0-.83-.5-1.25-1.57-1.25s-1.56.58-1.72,1.69Z" fill="#727272"/><path d="M328.75,399.86c-1.42,0-2-.53-1.82-1.88l.74-4.9h-1.41l.1-.72h1.43l.34-2.25,1.33-.19,0,0-.37,2.42h2.37v.72H329l-.72,4.73c-.11.7.18,1,1.25,1a3.37,3.37,0,0,0,1.45-.35h0l0,.16A3,3,0,0,1,328.75,399.86Z" fill="#727272"/><path d="M44.9,4.61h551V371.7H44.9Z" fill="#fff" stroke="#50d6cc" stroke-linecap="round" stroke-linejoin="round"/><path d="M289.63,4.61H595.9V127H289.63Z" fill="none" stroke="#50d6cc" stroke-linecap="round" stroke-linejoin="round"/><path d="M44.9,4.61H289.63V249.34H44.9Z" fill="none" stroke="#50d6cc" stroke-linecap="round" stroke-linejoin="round"/><path d="M172.74,38.07l8.72-6.15-10.67-.15-3.16-10.19-3.43,10.1-10.67-.16,8.54,6.4L158.64,48l8.72-6.15,8.54,6.4Z" fill="none" stroke="#50d6cc" stroke-miterlimit="10" stroke-width="0.92" fill-rule="evenodd"/><path d="M130.82,45.57l4.86-9.49-9.52,4.82-7.53-7.56,1.65,10.54-9.52,4.82,10.54,1.7L123,60.94l4.87-9.5,10.53,1.69Z" fill="none" stroke="#50d6cc" stroke-miterlimit="10" stroke-width="0.92" fill-rule="evenodd"/><path d="M97.05,71.91,97,61.24l-6.19,8.69L80.58,66.74l6.36,8.57L80.75,84l10.12-3.4,6.36,8.56L97.12,78.5l10.12-3.4Z" fill="none" stroke="#50d6cc" stroke-miterlimit="10" stroke-width="0.92" fill-rule="evenodd"/><path d="M79.65,110.84l-5.05-9.4L73.17,112l-10.5,1.91,9.61,4.63-1.44,10.57,7.38-7.71L87.83,126l-5-9.4,7.37-7.71Z" fill="none" stroke="#50d6cc" stroke-miterlimit="10" stroke-width="0.92" fill-rule="evenodd"/><path d="M82.11,153.29l-8.83-6,3.63,10-8.41,6.57,10.66-.37,3.64,10,3-10.26L96.41,163l-8.84-6,3-10.25Z" fill="none" stroke="#50d6cc" stroke-miterlimit="10" stroke-width="0.92" fill-rule="evenodd"/><path d="M104.11,190l-10.59-1.18L101.4,196,97,205.72l9.27-5.28,7.88,7.19L112,197.18l9.26-5.28-10.59-1.18-2.16-10.45Z" fill="none" stroke="#50d6cc" stroke-miterlimit="10" stroke-width="0.92" fill-rule="evenodd"/><path d="M140.72,212l-9.94,3.88,10.32,2.7.62,10.65,5.76-9L157.8,223,151,214.72l5.76-9-9.94,3.88-6.76-8.25Z" fill="none" stroke="#50d6cc" stroke-miterlimit="10" stroke-width="0.92" fill-rule="evenodd"/><path d="M183.14,214.64l-7,8.05,10.4-2.4,5.5,9.14.92-10.62,10.39-2.4-9.82-4.17.92-10.63-7,8.06-9.82-4.17Z" fill="none" stroke="#50d6cc" stroke-miterlimit="10" stroke-width="0.92" fill-rule="evenodd"/><path d="M222.16,197.29l-2.45,10.38,8.09-7,9.12,5.54-4.12-9.84,8.08-6.95-10.63.87-4.12-9.83-2.45,10.38-10.64.87Z" fill="none" stroke="#50d6cc" stroke-miterlimit="10" stroke-width="0.92" fill-rule="evenodd"/><path d="M248.51,163.59l2.65,10.33,3.93-9.92,10.65.67-8.22-6.8,3.93-9.91-9,5.71-8.22-6.79,2.65,10.33-9,5.71Z" fill="none" stroke="#50d6cc" stroke-miterlimit="10" stroke-width="0.92" fill-rule="evenodd"/><path d="M243.7,81l10,3.69-5.93-8.87,6.6-8.38-10.26,2.9-5.93-8.87-.41,10.66L227.51,75l10,3.68-.41,10.66Z" fill="none" stroke="#50d6cc" stroke-miterlimit="10" stroke-width="0.92" fill-rule="evenodd"/><path d="M213.45,50.72,224,49.34l-9.36-5.1,1.94-10.48-7.73,7.33L199.5,36l4.59,9.63L196.35,53l10.57-1.39,4.59,9.63Z" fill="none" stroke="#50d6cc" stroke-miterlimit="10" stroke-width="0.92" fill-rule="evenodd"/><path d="M256.17,121.76l7.15,7.92-1.13-10.61,9.73-4.36-10.43-2.19-1.13-10.61L255,111.16,244.61,109l7.14,7.91-5.32,9.25Z" fill="none" stroke="#50d6cc" stroke-miterlimit="10" stroke-width="0.92" fill-rule="evenodd"/><path d="M187.07,123.49s.34-.37.44-.1.13.49,0,.59-.08.16-.21.33-.07.26-.2.34-.18,0-.32,0l-.06.41-.09.35.06.33.23.53-.18-.4.25.44c.19.5,2,1,2.67,1.3,1.37.62,1.16,3.53,1.3,3.82a38.86,38.86,0,0,1,.72,4.8c0,.65-.72,4.14-.79,4.87,0,.36-.13,1.22-.22,2.09,0,.17-.26-.06-.34.1a2.56,2.56,0,0,0-.06,1c-.05.43-.17.76-.19,1a.92.92,0,0,1-.8.87s0,2.72-.17,3.36a5.37,5.37,0,0,0,0,2.58,14.08,14.08,0,0,1-.29,4s-.74,3.29-.88,3.79a2.56,2.56,0,0,0,.16,1.33,5.53,5.53,0,0,1,.08.94h-6.35c-.16,0,.11-.57.33-1a1.17,1.17,0,0,1,.83-.54c.43-.08.47-.54.72-1.12a4.87,4.87,0,0,0-.07-2.56,18,18,0,0,1-.51-3.25,12.71,12.71,0,0,0-.72-3.14,16.78,16.78,0,0,1-.54-3.42,1.15,1.15,0,0,0-.12-.41c-.1-.25-.11-.61-.31-1.18a11,11,0,0,1-.37-3.28,6.15,6.15,0,0,0-.61-2.46l-.12-.45-1.11.35-1.07.84a1.47,1.47,0,0,1-.93.29c-.85.07-1.69-.92-1.88-2.35s.09-2.25,1.85-2.24H178l.67,0H179s.2.38-.11.52l-.39.16.39.45a8.17,8.17,0,0,1,.87-.51l.24-.57a2.41,2.41,0,0,0,0-.84c-.07-.39-.21-2.67-.21-3.21s0-1.19.07-1.81a8.63,8.63,0,0,1,.32-2.37c.34-.67,2.2-1,2.2-1s.8-.09.91-.3.24-.43.32-.56c-.51-.19-.68-.82-.76-1a8.76,8.76,0,0,1-.23-1c0-.11-.19-.78-.28-1a2,2,0,0,1,0-.75l-.59-.06-.71-.06a3.88,3.88,0,0,1-.5-.09c-.1,0-.44-.12-.44-.12s-.57-.48,0-.87,1.22-.74,1.32-.81a.41.41,0,0,0,.16-.17v-.14a3.35,3.35,0,0,1-.42-1c-.16-.59,1.37-.83,1.37-.83.44,0,1.92.16,1.77.13a5.38,5.38,0,0,0,1.1,0,9.52,9.52,0,0,1,1.79.3,1.82,1.82,0,0,1,1.09.9c.22.41,1.12.94,1.38,1.19a9.18,9.18,0,0,1,1.06,1.5c.32.53,0,.4-.13.46-.5.3-3.29-.33-3-.3s.15,0-.07-.16v.2l-.16.61Z" fill="none" stroke="#50d6cc" stroke-miterlimit="3.86" stroke-width="0.46" fill-rule="evenodd"/><path d="M123,182.21h-3.09v-.35l.37,0,.35-.06a.5.5,0,0,0,.24-.17.68.68,0,0,0,.07-.31v-5a.55.55,0,0,0-.06-.28.38.38,0,0,0-.25-.2,2,2,0,0,0-.36-.1,2.45,2.45,0,0,0-.36-.07v-.34H123v.34l-.36,0a2.45,2.45,0,0,0-.36.08.36.36,0,0,0-.25.19.65.65,0,0,0-.06.29v5a.57.57,0,0,0,.07.29.44.44,0,0,0,.24.19l.33.09a3.22,3.22,0,0,0,.39,0v.35Z" fill="#50d6cc" fill-rule="evenodd"/><path d="M131.43,175.68a2.57,2.57,0,0,0-.41.08,1.53,1.53,0,0,0-.4.15.68.68,0,0,0-.24.47,5.06,5.06,0,0,0-.06.87v5h-.42l-4.16-5.62v3.54a5,5,0,0,0,.07.91.86.86,0,0,0,.24.46,1,1,0,0,0,.46.2,2.37,2.37,0,0,0,.45.09v.35h-2.81v-.35a1.85,1.85,0,0,0,.44-.09,1.39,1.39,0,0,0,.39-.15.72.72,0,0,0,.23-.41,5.28,5.28,0,0,0,.06-1v-3.38a1.41,1.41,0,0,0-.07-.45,1.1,1.1,0,0,0-.21-.34,1.37,1.37,0,0,0-.48-.27,1.61,1.61,0,0,0-.47-.13v-.34H126l3.86,5.24v-3.27a3.66,3.66,0,0,0-.08-.92.69.69,0,0,0-.22-.43,1.77,1.77,0,0,0-.44-.18,2.67,2.67,0,0,0-.47-.1v-.34h2.79v.34Z" fill="#50d6cc" fill-rule="evenodd"/><path d="M141.55,179.46l-.31,0a1.12,1.12,0,0,0-.32.09.53.53,0,0,0-.21.21.91.91,0,0,0-.05.31v1.31c0,.14,0,.25,0,.34a7.47,7.47,0,0,1-1.28.44,5,5,0,0,1-1.25.16,3.27,3.27,0,0,1-1.27-.25,3.06,3.06,0,0,1-1.06-.7,3.34,3.34,0,0,1-.73-1.12,3.85,3.85,0,0,1-.27-1.47,4,4,0,0,1,.25-1.45,3.53,3.53,0,0,1,.74-1.17,3.22,3.22,0,0,1,1.09-.75,3.47,3.47,0,0,1,1.36-.27,3.33,3.33,0,0,1,1,.14,3.56,3.56,0,0,1,.76.34l.2-.33h.39l0,2.4h-.4A5.88,5.88,0,0,0,140,177a2.85,2.85,0,0,0-.38-.69,1.94,1.94,0,0,0-.58-.49,1.74,1.74,0,0,0-.82-.18,2,2,0,0,0-.92.21,2,2,0,0,0-.71.63,3.19,3.19,0,0,0-.45,1,5.08,5.08,0,0,0-.16,1.34,4.53,4.53,0,0,0,.16,1.24,3,3,0,0,0,.45,1,2.1,2.1,0,0,0,1.77.93,2.36,2.36,0,0,0,.78-.13,1.5,1.5,0,0,0,.5-.28,4.36,4.36,0,0,0,0-.51c0-.17,0-.31,0-.43v-.38a1,1,0,0,0-.06-.36.35.35,0,0,0-.23-.23,1.33,1.33,0,0,0-.43-.11l-.43,0v-.35h3v.35Z" fill="#50d6cc" fill-rule="evenodd"/><path d="M148.3,176.15a3.43,3.43,0,0,1,.71,1.15,4.1,4.1,0,0,1,.25,1.48,4,4,0,0,1-.26,1.49,3.22,3.22,0,0,1-.72,1.13,3.18,3.18,0,0,1-2.31,1,3.43,3.43,0,0,1-1.33-.26,3.11,3.11,0,0,1-1-.75,3.42,3.42,0,0,1-.68-1.14,4,4,0,0,1-.25-1.44,4.08,4.08,0,0,1,.26-1.49,3.35,3.35,0,0,1,.72-1.14,3,3,0,0,1,1-.72,3.26,3.26,0,0,1,2.55,0,3.07,3.07,0,0,1,1.05.72Zm-.72,4.87a3.07,3.07,0,0,0,.39-1,5.86,5.86,0,0,0,.12-1.24,5.34,5.34,0,0,0-.14-1.3,3,3,0,0,0-.4-1,1.92,1.92,0,0,0-.66-.64,1.77,1.77,0,0,0-.92-.23,1.74,1.74,0,0,0-1,.26,2.14,2.14,0,0,0-.66.71,3.57,3.57,0,0,0-.36,1,5.81,5.81,0,0,0-.12,1.2A6,6,0,0,0,144,180a3.43,3.43,0,0,0,.4,1,2,2,0,0,0,.66.66,1.79,1.79,0,0,0,.95.24,1.84,1.84,0,0,0,.93-.24,1.93,1.93,0,0,0,.68-.68Z" fill="#50d6cc" fill-rule="evenodd"/><path d="M156.86,178.81a3.38,3.38,0,0,1-.32,1.52,3.11,3.11,0,0,1-.86,1.06,3.73,3.73,0,0,1-1.19.61,4.55,4.55,0,0,1-1.37.21h-2.85v-.35a2.62,2.62,0,0,0,.37,0,1.5,1.5,0,0,0,.3-.06.41.41,0,0,0,.2-.19.56.56,0,0,0,.07-.3v-4.95a.73.73,0,0,0-.06-.3.36.36,0,0,0-.21-.21,1.15,1.15,0,0,0-.33-.1,1.87,1.87,0,0,0-.3,0v-.34h3a3.93,3.93,0,0,1,1.22.19,3.49,3.49,0,0,1,1,.52,2.88,2.88,0,0,1,1,1.12,3.7,3.7,0,0,1,.34,1.64Zm-1.18,0a4.06,4.06,0,0,0-.18-1.25,3.21,3.21,0,0,0-.54-1,2.41,2.41,0,0,0-.82-.62,2.55,2.55,0,0,0-1.08-.23h-.82V181a.67.67,0,0,0,.26.61,1.47,1.47,0,0,0,.79.17,2.41,2.41,0,0,0,1.07-.22,1.82,1.82,0,0,0,.74-.6,2.71,2.71,0,0,0,.44-.94,5.1,5.1,0,0,0,.14-1.24Z" fill="#50d6cc" fill-rule="evenodd"/><path d="M170,175.68l-.29.06a1.51,1.51,0,0,0-.29.13,1.12,1.12,0,0,0-.28.25,1.52,1.52,0,0,0-.17.38c-.23.75-.5,1.62-.8,2.61l-1,3.19h-.45L165,177l-1.8,5.29h-.43l-1-3.52c-.34-1.22-.57-2-.69-2.44a.68.68,0,0,0-.13-.27.74.74,0,0,0-.22-.21.69.69,0,0,0-.29-.12l-.29-.06v-.34h2.8v.34a4.89,4.89,0,0,0-.63.08c-.17,0-.25.09-.25.17a.76.76,0,0,0,0,.14.74.74,0,0,1,0,.12l.4,1.41c.19.65.47,1.63.84,2.93l1.71-5.09h.47l1.73,5.2.6-2.09c.17-.6.3-1.11.41-1.54s.13-.51.15-.62a1.58,1.58,0,0,0,0-.28c0-.11-.08-.2-.23-.28a2.32,2.32,0,0,0-.72-.15v-.34H170Z" fill="#50d6cc" fill-rule="evenodd"/><path d="M176.63,180.18l-.13,2h-5.7v-.35l.39,0,.31-.07a.36.36,0,0,0,.21-.19.56.56,0,0,0,.07-.3v-4.93a.61.61,0,0,0-.06-.28.38.38,0,0,0-.22-.21,1.45,1.45,0,0,0-.35-.11l-.35-.06v-.34h5.31V177h-.36a2.37,2.37,0,0,0-.42-.77,1.08,1.08,0,0,0-.61-.46l-.36,0h-1.55v2.73h.77a1.43,1.43,0,0,0,.54-.07.68.68,0,0,0,.31-.23,1.35,1.35,0,0,0,.18-.38,2.51,2.51,0,0,0,.1-.44h.36V180h-.36a2.29,2.29,0,0,0-.11-.49,1.14,1.14,0,0,0-.17-.38.7.7,0,0,0-.35-.25,1.66,1.66,0,0,0-.5-.06h-.77v2.07a2,2,0,0,0,0,.48.53.53,0,0,0,.17.28.76.76,0,0,0,.34.12l.62,0h.42a2.82,2.82,0,0,0,.44,0,1.69,1.69,0,0,0,.38-.07.52.52,0,0,0,.28-.14,2.91,2.91,0,0,0,.46-.7,4.47,4.47,0,0,0,.32-.7Z" fill="#50d6cc" fill-rule="evenodd"/><path d="M186.72,177.2h-.34a1.7,1.7,0,0,0-.16-.41,2.46,2.46,0,0,0-.25-.45,1.76,1.76,0,0,0-.32-.39.58.58,0,0,0-.32-.19,2,2,0,0,0-.38,0h-.7v5.49a.6.6,0,0,0,.07.3.46.46,0,0,0,.23.2l.36.09a2.34,2.34,0,0,0,.44.06v.35h-3.24v-.35l.41,0a1.49,1.49,0,0,0,.39-.08.47.47,0,0,0,.23-.18.58.58,0,0,0,.08-.32v-5.53h-.66a2.86,2.86,0,0,0-.42,0,.52.52,0,0,0-.33.19,2.08,2.08,0,0,0-.32.39,2.55,2.55,0,0,0-.25.46,2.52,2.52,0,0,0-.16.4h-.34v-1.86h6v1.86Z" fill="#50d6cc" fill-rule="evenodd"/><path d="M194.52,182.21h-1.85c-.41-.64-.78-1.2-1.11-1.67s-.69-.95-1.08-1.44h-.7v2.17a.67.67,0,0,0,.06.3.37.37,0,0,0,.22.2l.31.06.37,0v.35h-2.91v-.35l.34,0,.31-.06a.48.48,0,0,0,.21-.19.68.68,0,0,0,.06-.31v-5a.67.67,0,0,0-.05-.3.32.32,0,0,0-.22-.2,1.65,1.65,0,0,0-.32-.08l-.33,0v-.34H191a3.62,3.62,0,0,1,.82.09,2.11,2.11,0,0,1,.69.29,1.53,1.53,0,0,1,.48.5,1.5,1.5,0,0,1,.18.76,1.94,1.94,0,0,1-.12.7,1.35,1.35,0,0,1-.36.52,2.55,2.55,0,0,1-.52.37,4.17,4.17,0,0,1-.68.25l.85,1.14.82,1.12a2.93,2.93,0,0,0,.38.43,2.25,2.25,0,0,0,.35.22,1.62,1.62,0,0,0,.31.1l.32,0v.35ZM192,177.09a1.34,1.34,0,0,0-.36-1,1.31,1.31,0,0,0-1-.37h-.82v3h.64a1.49,1.49,0,0,0,1.55-1.59Z" fill="#50d6cc" fill-rule="evenodd"/><path d="M201.69,175.68l-.4.06a1.36,1.36,0,0,0-.42.16.69.69,0,0,0-.23.46,5.13,5.13,0,0,0-.06.85v3a2,2,0,0,1-.24,1,2.06,2.06,0,0,1-.62.69,2.71,2.71,0,0,1-.81.38,3.35,3.35,0,0,1-.81.11,3.4,3.4,0,0,1-1.1-.16,2.42,2.42,0,0,1-.81-.44,1.75,1.75,0,0,1-.65-1.37v-4.06a.55.55,0,0,0-.06-.28.58.58,0,0,0-.22-.22,1.25,1.25,0,0,0-.31-.1l-.31-.06v-.34h2.85v.34l-.34,0a2.28,2.28,0,0,0-.3.07.35.35,0,0,0-.22.19.73.73,0,0,0,0,.3v3.79a2.9,2.9,0,0,0,0,.58,2,2,0,0,0,.24.57,1.48,1.48,0,0,0,.52.43,2,2,0,0,0,.89.17,2.14,2.14,0,0,0,.89-.17,1.5,1.5,0,0,0,.57-.44,1.91,1.91,0,0,0,.28-.55,2.25,2.25,0,0,0,.08-.58v-2.81a4.19,4.19,0,0,0-.08-.88.72.72,0,0,0-.22-.45,1.48,1.48,0,0,0-.47-.19l-.44-.08v-.34h2.8v.34Z" fill="#50d6cc" fill-rule="evenodd"/><path d="M206.78,179.06a1.71,1.71,0,0,1,.32.53,2.08,2.08,0,0,1-.57,2.17,2.45,2.45,0,0,1-1.67.59,3.19,3.19,0,0,1-.91-.14,3.7,3.7,0,0,1-.8-.35l-.21.35h-.38l-.07-2.35h.39a6.58,6.58,0,0,0,.28.79,3.05,3.05,0,0,0,.43.65,2.19,2.19,0,0,0,.59.46,1.73,1.73,0,0,0,.78.17,1.68,1.68,0,0,0,.58-.09,1.05,1.05,0,0,0,.41-.25.87.87,0,0,0,.22-.37,1.28,1.28,0,0,0,.08-.5A1.38,1.38,0,0,0,206,180a1.48,1.48,0,0,0-.69-.55l-.72-.27c-.27-.1-.51-.2-.7-.29a2.39,2.39,0,0,1-.91-.68,1.85,1.85,0,0,1-.32-1.11,1.77,1.77,0,0,1,.16-.73,1.93,1.93,0,0,1,.46-.61,1.89,1.89,0,0,1,.66-.39,2.15,2.15,0,0,1,.8-.15,2.21,2.21,0,0,1,.84.15,4,4,0,0,1,.69.34l.2-.33h.39l0,2.28h-.39q-.11-.39-.24-.75a2.67,2.67,0,0,0-.34-.65,1.57,1.57,0,0,0-.51-.45,1.49,1.49,0,0,0-.73-.16,1.12,1.12,0,0,0-.79.29,1,1,0,0,0-.32.72,1.22,1.22,0,0,0,.21.74,1.39,1.39,0,0,0,.6.48l.69.3c.23.08.45.17.66.26a4.87,4.87,0,0,1,.56.28,2,2,0,0,1,.47.38Z" fill="#50d6cc" fill-rule="evenodd"/><path d="M214.2,177.2h-.33a2.25,2.25,0,0,0-.16-.41,3.25,3.25,0,0,0-.25-.45,2.08,2.08,0,0,0-.32-.39.57.57,0,0,0-.33-.19,1.94,1.94,0,0,0-.38,0h-.7v5.49a.73.73,0,0,0,.07.3.54.54,0,0,0,.24.2l.36.09a2.24,2.24,0,0,0,.44.06v.35H209.6v-.35l.41,0a1.49,1.49,0,0,0,.38-.08.45.45,0,0,0,.24-.18.58.58,0,0,0,.07-.32v-5.53h-.65a2.77,2.77,0,0,0-.42,0,.56.56,0,0,0-.34.19,2,2,0,0,0-.31.39,3.42,3.42,0,0,0-.26.46,3.66,3.66,0,0,0-.15.4h-.34v-1.86h6Z" fill="#50d6cc" fill-rule="evenodd"/><path d="M167.51,95.21h0s.86.3.86,1.63c.75-.14,1.06.26.91,1.19,0,0-.89-.24-1,.27a1.11,1.11,0,0,0,.5,1.43s.92.74,1.51-.65.79-1.87.79-1.87a3.54,3.54,0,0,1,2-1.88,1.59,1.59,0,0,1,1,0s.77.16.79.8a1,1,0,0,1-.67,1.11,1.29,1.29,0,0,1-1.07-.24.47.47,0,0,0-.4.12,2,2,0,0,0-.44.61,12.9,12.9,0,0,0-.63,1.59c-.16.54-.51,2.18-2.17,2.42h-3.91c-1.66-.24-2-1.88-2.17-2.42a12.9,12.9,0,0,0-.63-1.59,2,2,0,0,0-.44-.61.46.46,0,0,0-.4-.12s-.59.44-1.06.24a1,1,0,0,1-.68-1.11c0-.64.79-.8.79-.8a1.58,1.58,0,0,1,1,0,3.56,3.56,0,0,1,2,1.88s.21.47.79,1.87,1.51.65,1.51.65a1.12,1.12,0,0,0,.5-1.43c-.15-.51-1-.27-1-.27-.14-.93.16-1.33.91-1.19,0-1.33.85-1.63.86-1.63h0Z" fill="none" stroke="#50d6cc" stroke-miterlimit="3.86" stroke-width="0.69"/><path d="M172.38,139.89h-9.47L164,103h7.28Z" fill="none" stroke="#50d6cc" stroke-miterlimit="3.86" stroke-width="0.69" fill-rule="evenodd"/><path d="M172.34,160.43H162.29V143.65h10.06Z" fill="none" stroke="#50d6cc" stroke-miterlimit="3.86" stroke-width="0.69" fill-rule="evenodd"/><path d="M162.12,141.74h10.19c.71,0,1.29.43,1.29,1s-.58,1-1.29,1H162.12c-.71,0-1.28-.43-1.28-1S161.41,141.74,162.12,141.74Z" fill="none" stroke="#50d6cc" stroke-miterlimit="3.86" stroke-width="0.69"/><path d="M162.88,139.93h8.89a1,1,0,0,1,1.15.9h0a1.06,1.06,0,0,1-1.15.91h-8.89a1.05,1.05,0,0,1-1.15-.91h0A1,1,0,0,1,162.88,139.93Z" fill="none" stroke="#50d6cc" stroke-miterlimit="3.86" stroke-width="0.69" fill-rule="evenodd"/><path d="M164.55,146.79h5.37v11.06h-5.37Z" fill="none" stroke="#50d6cc" stroke-miterlimit="3.86" stroke-width="0.69"/><path d="M164.44,101.66h6.17c.51,0,.92.3.92.67s-.41.67-.92.67h-6.17c-.51,0-.92-.3-.92-.67S163.93,101.66,164.44,101.66Z" fill="none" stroke="#50d6cc" stroke-miterlimit="3.86" stroke-width="0.69"/><path d="M116.94,162.43H219.39v3.46H116.94Z" fill="none" stroke="#50d6cc" stroke-miterlimit="3.86" stroke-width="0.69" fill-rule="evenodd"/><path d="M112.57,165.86H223.84v3.66H112.57Z" fill="none" stroke="#50d6cc" stroke-miterlimit="3.86" stroke-width="0.69"/><path d="M120,87.41h95.66v2.12H120Z" fill="none" stroke="#50d6cc" stroke-miterlimit="3.86" stroke-width="0.69" fill-rule="evenodd"/><path d="M197.61,87.35a32.18,32.18,0,0,0-59.71,0H126c5.5-18.25,22.13-31.63,41.74-31.63S204,69.07,209.51,87.34Z" fill="none" stroke="#50d6cc" stroke-miterlimit="3.86" stroke-width="0.69" fill-rule="evenodd"/><path d="M122.54,89.56a9.21,9.21,0,0,1,3,3.93h85.1s1.4-3.29,3.33-3.94Z" fill="none" stroke="#50d6cc" stroke-miterlimit="3.86" stroke-width="0.69" fill-rule="evenodd"/><path d="M143.65,94.26s7.89,13.53,23.92,13.34c15.83-.18,23.91-12.88,23.91-12.88l4.23,6.25s1.56,2.12-1.47,4.79C183.53,115.19,175.06,117,167.57,117q-16.59-.92-26.76-11.23a3.13,3.13,0,0,1-1.11-3.45Z" fill="#fff" stroke="#50d6cc" stroke-miterlimit="3.86" stroke-width="0.69" fill-rule="evenodd"/><path d="M139.54,103.71s-.48-2.74,3.84-.53l.32-8.88" fill="none" stroke="#50d6cc" stroke-miterlimit="3.86" stroke-width="0.69"/><path d="M196,101.85c-1.37-3-3.9.67-3.9.67l-.63-7.76" fill="none" stroke="#50d6cc" stroke-miterlimit="3.86" stroke-width="0.69"/><path d="M125.11,93.65h85.56a.56.56,0,0,1,.55.58v.19a.56.56,0,0,1-.55.57H125.11a.56.56,0,0,1-.55-.57v-.19A.56.56,0,0,1,125.11,93.65Z" fill="#fff" stroke="#50d6cc" stroke-miterlimit="3.86" stroke-width="0.69"/><path d="M132.67,95.1h0s.86.3.86,1.63c.75-.14,1.06.25.91,1.18,0,0-.89-.24-1,.27a1.11,1.11,0,0,0,.5,1.44s.92.73,1.51-.66.79-1.86.79-1.86a3.52,3.52,0,0,1,2-1.89,1.66,1.66,0,0,1,1,0s.77.17.79.81a1,1,0,0,1-.67,1.1c-.48.21-1.07-.23-1.07-.23a.42.42,0,0,0-.4.12,2,2,0,0,0-.44.6,12.9,12.9,0,0,0-.63,1.59c-.16.54-.51,2.18-2.17,2.42h-3.91c-1.66-.24-2-1.88-2.17-2.42a12.9,12.9,0,0,0-.63-1.59,2,2,0,0,0-.44-.6.41.41,0,0,0-.4-.12s-.59.44-1.06.23a1,1,0,0,1-.68-1.1c0-.64.79-.81.79-.81a1.65,1.65,0,0,1,1,0,3.49,3.49,0,0,1,2,1.89s.21.47.8,1.86,1.51.66,1.51.66a1.13,1.13,0,0,0,.5-1.44c-.15-.51-1-.27-1-.27-.14-.93.16-1.32.91-1.18,0-1.33.85-1.64.86-1.63h0Z" fill="none" stroke="#50d6cc" stroke-miterlimit="3.86" stroke-width="0.69"/><path d="M137.43,139.89H128L129.22,103h7Z" fill="none" stroke="#50d6cc" stroke-miterlimit="3.86" stroke-width="0.69" fill-rule="evenodd"/><path d="M137.72,160.43h-10V143.65h10Z" fill="none" stroke="#50d6cc" stroke-miterlimit="3.86" stroke-width="0.69" fill-rule="evenodd"/><path d="M127.6,141.74h10.19c.71,0,1.29.43,1.29,1h0c0,.53-.58,1-1.29,1H127.6c-.71,0-1.28-.43-1.28-1h0c0-.54.57-1,1.28-1Z" fill="none" stroke="#50d6cc" stroke-miterlimit="3.86" stroke-width="0.69" fill-rule="evenodd"/><path d="M128.25,139.93h8.89a1,1,0,0,1,1.15.9h0a1.05,1.05,0,0,1-1.15.91h-8.89a1.06,1.06,0,0,1-1.15-.91h0A1,1,0,0,1,128.25,139.93Z" fill="none" stroke="#50d6cc" stroke-miterlimit="3.86" stroke-width="0.69" fill-rule="evenodd"/><path d="M130,146.79h5.37v11.06H130Z" fill="none" stroke="#50d6cc" stroke-miterlimit="3.86" stroke-width="0.69"/><path d="M129.61,101.8h6.17c.51,0,.92.3.92.67s-.41.67-.92.67h-6.17c-.51,0-.92-.3-.92-.67s.41-.67.92-.67Z" fill="none" stroke="#50d6cc" stroke-miterlimit="3.86" stroke-width="0.69"/><path d="M125.54,160.47h14.32v1.93H125.54Z" fill="none" stroke="#50d6cc" stroke-miterlimit="3.86" stroke-width="0.69" fill-rule="evenodd"/><path d="M202.87,95.21h0s.86.3.86,1.63c.75-.14,1.06.26.91,1.19,0,0-.89-.24-1,.27a1.1,1.1,0,0,0,.49,1.43s.93.74,1.51-.65.8-1.87.8-1.87a3.51,3.51,0,0,1,2-1.88,1.58,1.58,0,0,1,1,0s.77.16.79.8a1,1,0,0,1-.67,1.11,1.29,1.29,0,0,1-1.07-.24.47.47,0,0,0-.4.12,2,2,0,0,0-.44.61,12.9,12.9,0,0,0-.63,1.59c-.16.54-.51,2.18-2.17,2.42h-3.91c-1.66-.24-2-1.88-2.17-2.42a12.9,12.9,0,0,0-.63-1.59,2,2,0,0,0-.44-.61.47.47,0,0,0-.4-.12,1.29,1.29,0,0,1-1.07.24,1,1,0,0,1-.67-1.11c0-.64.79-.8.79-.8a1.58,1.58,0,0,1,1,0,3.51,3.51,0,0,1,2,1.88s.21.47.8,1.87,1.51.65,1.51.65a1.1,1.1,0,0,0,.49-1.43c-.14-.51-1-.27-1-.27-.15-.93.16-1.33.91-1.19,0-1.33.85-1.63.86-1.63h0Z" fill="none" stroke="#50d6cc" stroke-miterlimit="3.86" stroke-width="0.69"/><path d="M207.81,139.89h-9.47L199.6,103h7Z" fill="none" stroke="#50d6cc" stroke-miterlimit="3.86" stroke-width="0.69" fill-rule="evenodd"/><path d="M208.33,160.43H198.28l-.11-16.78h10.16Z" fill="none" stroke="#50d6cc" stroke-miterlimit="3.86" stroke-width="0.69" fill-rule="evenodd"/><path d="M198.19,141.74h10.19c.71,0,1.28.43,1.28,1s-.57,1-1.28,1H198.19c-.71,0-1.29-.43-1.29-1S197.48,141.74,198.19,141.74Z" fill="none" stroke="#50d6cc" stroke-miterlimit="3.86" stroke-width="0.69"/><path d="M198.7,139.93h8.9a1,1,0,0,1,1.14.9h0a1,1,0,0,1-1.14.91h-8.9a1,1,0,0,1-1.14-.91h0A1,1,0,0,1,198.7,139.93Z" fill="none" stroke="#50d6cc" stroke-miterlimit="3.86" stroke-width="0.69" fill-rule="evenodd"/><path d="M200.53,146.79h5.37v11.06h-5.37Z" fill="none" stroke="#50d6cc" stroke-miterlimit="3.86" stroke-width="0.69"/><path d="M199.94,101.66h6.17c.51,0,.92.3.92.67s-.41.67-.92.67h-6.17c-.5,0-.92-.3-.92-.67S199.44,101.66,199.94,101.66Z" fill="none" stroke="#50d6cc" stroke-miterlimit="3.86" stroke-width="0.69"/><path d="M159.92,160.47h14.32v1.93H159.92Z" fill="none" stroke="#50d6cc" stroke-miterlimit="3.86" stroke-width="0.69" fill-rule="evenodd"/><path d="M106.75,134.28a7.14,7.14,0,0,0-5-1.29,4.12,4.12,0,0,1,4.82-1.24c1.89.78,3.49,3.68,8.27.64s6.62-4.57,10.83-6,7.71-1.75,8.72-2.12,2.59-.94,3.4-5.79c.18-1.11,4.59,9.2,4.59,9.2s-.64,3.4-4.87,5.34-11.54,3.09-15.6,6.35a26.61,26.61,0,0,0-5.63,5.36c-3.76,5.52-7.69,6.14-7.69,6.14a16,16,0,0,0,4.55-7.32c.18-.78-.12-4.3,1.28-5.7-1.49,1.49-5.25-1.45-4.77-1.06a11.56,11.56,0,0,0-2.89-2.53Z" fill="#fff" stroke="#50d6cc" stroke-miterlimit="3.86" stroke-width="0.69" fill-rule="evenodd"/><path d="M197.87,118.58s.73,4.19,8.95,6.31,9.5,4.78,10.83,5.43,4.79,3.12,8.49,1.88c1.46-.48,5.54-1.61,5.87-1.36a11.14,11.14,0,0,1-1.32,2.56c-2.73,3.23-3.77,3.73-4.78,4.23-2.2,1.11-2.37,1.24-3.94,1.34a9.49,9.49,0,0,1,1.69,4.83c.23,3,4.23,6,4.23,6s-5.33-1.38-7.67-4.56a26,26,0,0,0-7.62-6.58c-1.42-.69-8.67-3.17-10.19-3.77s-6.24-3.08-6.89-7.09,2.35-9.25,2.35-9.25Z" fill="#fff" stroke="#50d6cc" stroke-miterlimit="3.86" stroke-width="0.69" fill-rule="evenodd"/><path d="M120,121.8c-5.58-2.18-3.85-3.66-3.85-3.66,1.37-2.45,3.17-5.53,10-8.15,9.09-3.49,18.36-1.93,15.89,2.12-1.51,2.46-4.11,6.76-4.11,6.76s-1.08-2.89-6-1.05-6.49,2.62-6.78,3.59c-.46,1.52-.28,2.48,3.3,1.93-2.34.78-5,0-7.87-1.33Z" fill="#fff" stroke="#50d6cc" stroke-miterlimit="3.86" stroke-width="0.69"/><path d="M205,117.68a14,14,0,0,1,3.82,1.86c5.06,3.63,4.13,6.8,2.73,6.88-1.56.09,9.9-.23,11.28-1s1.84-1.56,1-3.31-7.07-12.42-17.26-14.45-14.23,2.27-13.36,3.73,4.59,6,4.73,7.87c1.05-2,3.4-2.54,7.05-1.61Z" fill="#fff" stroke="#50d6cc" stroke-miterlimit="3.86" stroke-width="0.69"/><path d="M200.07,115.7l-2-2.83.51,3.07-.79.14-.89-5.35.84-.14,2.56,3.57,1.28-4.22.75-.12.89,5.35-1,.17-.51-3.07-1.05,3.33Z" fill="#50d6cc" fill-rule="evenodd"/><path d="M208.19,113.65a2.93,2.93,0,0,1-.95,1.8,2.05,2.05,0,0,1-3-.61,2.86,2.86,0,0,1-.19-2l.06-.31a3.14,3.14,0,0,1,.92-1.77,1.83,1.83,0,0,1,1.71-.41,1.72,1.72,0,0,1,1.36,1,3.17,3.17,0,0,1,.14,2Zm-1.12-.3,0-.15a5.13,5.13,0,0,0,.13-1.49.72.72,0,0,0-.67-.63.73.73,0,0,0-.82.27,4.43,4.43,0,0,0-.49,1.48l0,.13a5,5,0,0,0-.14,1.53.75.75,0,0,0,.68.57.76.76,0,0,0,.79-.3,3.49,3.49,0,0,0,.52-1.41Z" fill="#50d6cc" fill-rule="evenodd"/><path d="M212.54,116a3.17,3.17,0,0,1-1.37,1.48,1.72,1.72,0,0,1-1.59-.14l-1.65-.9,2.58-4.77,1.48.81a1.89,1.89,0,0,1,1.12,1.41,3.21,3.21,0,0,1-.46,1.91Zm-1-.59.07-.13a2.65,2.65,0,0,0,.39-1.34.9.9,0,0,0-.48-.79l-.38-.21-1.81,3.34.46.26a.84.84,0,0,0,.84,0,3,3,0,0,0,.91-1.15Z" fill="#50d6cc" fill-rule="evenodd"/><path d="M215.49,116.22l-1,1,1.09,1.07-.57.59-1.09-1.08-1.07,1.1,1.5,1.48-.56.57-2.33-2.29,3.79-3.87,2.23,2.2-.57.57Z" fill="#50d6cc" fill-rule="evenodd"/><path d="M216,124.8l-.58-1a5.64,5.64,0,0,0,1.49-1.16.75.75,0,0,0,.13-.89l-.14-.24-2.1,1.24-.59-1,4.67-2.76,1,1.75a1.38,1.38,0,0,1,.24,1.08,1.2,1.2,0,0,1-.55.69l-.26.15a1,1,0,0,1-.77.14,1.27,1.27,0,0,1-.7-.53,1.49,1.49,0,0,1-.26,1.22,5.09,5.09,0,0,1-1.6,1.3Zm2.66-3.06.13-.08a.63.63,0,0,0,.34-.41.77.77,0,0,0-.14-.53l-.19-.32-1.23.72.16.28a.85.85,0,0,0,.43.42A.62.62,0,0,0,218.69,121.74Z" fill="#50d6cc" fill-rule="evenodd"/><path d="M201.39,131.49l-1-.7.46-1.27-1.37-1-1.08.82-.76-.55,4.58-3.37.87.63Zm-.24-2.75.66-2L200.16,128Z" fill="#50d6cc" fill-rule="evenodd"/><path d="M207.42,129.24l-1-.49-2,4.15-1-.51,2-4.15-1-.5.36-.73,3.07,1.5Z" fill="#50d6cc" fill-rule="evenodd"/><path d="M209.9,129.34l-2.11,5-1.07-.46,2.11-5Z" fill="#50d6cc" fill-rule="evenodd"/><path d="M214,134.3a3,3,0,0,1-1.32,1.56,2,2,0,0,1-1.67,0,1.91,1.91,0,0,1-1.12-1.24,2.91,2.91,0,0,1,.25-2l.13-.28a3.21,3.21,0,0,1,1.27-1.54,1.88,1.88,0,0,1,1.76,0,1.75,1.75,0,0,1,1.11,1.32,3.28,3.28,0,0,1-.29,2Zm-1-.54.05-.13a4.74,4.74,0,0,0,.46-1.43.87.87,0,0,0-1.38-.67,4.24,4.24,0,0,0-.8,1.33l-.05.12a4.74,4.74,0,0,0-.47,1.47c0,.3.17.53.54.7a.77.77,0,0,0,.84-.12,3.84,3.84,0,0,0,.81-1.27Z" fill="#50d6cc" fill-rule="evenodd"/><path d="M217.62,136.59l1.6-2.78.71.41-2.71,4.7-.43-.25-.52-4.24-1.7,2.95-.72-.41,2.71-4.7.54.31Z" fill="#50d6cc" fill-rule="evenodd"/><path d="M125.19,118.62l-.71.44-4-3.92,1-.61L124,117l-.9-3.47.71-.43,2.64,2.42-1-3.38.81-.48,1.56,5.38-.71.44L124.32,115Z" fill="#50d6cc" fill-rule="evenodd"/><path d="M129.2,110.94l1.58,5.19-1.11.34-1.58-5.19Z" fill="#50d6cc" fill-rule="evenodd"/><path d="M135.42,113.71a1.5,1.5,0,0,1-.36,1.34,2.47,2.47,0,0,1-1.44.62,5.56,5.56,0,0,1-.94.06,3.48,3.48,0,0,1-.65-.08l-.13-.93a1.93,1.93,0,0,0,.64.15,3.2,3.2,0,0,0,.82,0,1.34,1.34,0,0,0,.75-.27.7.7,0,0,0-.07-.94,2.62,2.62,0,0,0-.93-.36,2.33,2.33,0,0,1-1-.49,1.58,1.58,0,0,1-.45-1,1.34,1.34,0,0,1,.35-1.12,2.11,2.11,0,0,1,1.33-.62,4.25,4.25,0,0,1,.78,0l.5.06.11.82-.59,0a3.26,3.26,0,0,0-.62,0,1.1,1.1,0,0,0-.64.24.47.47,0,0,0-.15.41.58.58,0,0,0,.21.4,3.21,3.21,0,0,0,.95.31,2.07,2.07,0,0,1,1.07.53,1.55,1.55,0,0,1,.43.92Z" fill="#50d6cc" fill-rule="evenodd"/><path d="M152.17,110a1.25,1.25,0,0,1-1.84.53,3.38,3.38,0,0,1-.57-.35,1.64,1.64,0,0,1-.29-.32l.38-.74a3.15,3.15,0,0,0,.26.26,2.35,2.35,0,0,0,.37.24.52.52,0,0,0,.38.06.49.49,0,0,0,.32-.3l1.84-3.62,1,.53Z" fill="#50d6cc" fill-rule="evenodd"/><path d="M158.05,112.19a1.61,1.61,0,0,1-.85,1,1.94,1.94,0,0,1-1.44-.09,2,2,0,0,1-1.19-1,2,2,0,0,1,.08-1.45l1.31-3.4,1.08.41-1.36,3.55a1.07,1.07,0,0,0-.06.69.89.89,0,0,0,.54.44.91.91,0,0,0,.66,0,.94.94,0,0,0,.45-.58l1.35-3.53.81.31Z" fill="#50d6cc" fill-rule="evenodd"/><path d="M163.77,113.36a1.49,1.49,0,0,1-.7,1.2,2.43,2.43,0,0,1-1.55.22,4.53,4.53,0,0,1-.92-.18,3.32,3.32,0,0,1-.61-.25l.12-.93a2.07,2.07,0,0,0,.57.31,3.47,3.47,0,0,0,.8.2,1.31,1.31,0,0,0,.79-.06.6.6,0,0,0,.28-.49.67.67,0,0,0-.1-.44,2.92,2.92,0,0,0-.81-.59,2.36,2.36,0,0,1-.8-.72,1.6,1.6,0,0,1-.19-1.07,1.36,1.36,0,0,1,.63-1,2.07,2.07,0,0,1,1.44-.25,4.12,4.12,0,0,1,1.23.35l-.1.83c-.19-.08-.37-.15-.56-.21a3.75,3.75,0,0,0-.6-.13,1.1,1.1,0,0,0-.69.07.44.44,0,0,0-.24.35.55.55,0,0,0,.1.45,3.13,3.13,0,0,0,.83.54,2.1,2.1,0,0,1,.9.79,1.53,1.53,0,0,1,.18,1Z" fill="#50d6cc" fill-rule="evenodd"/><path d="M169.1,110.67l-1.11,0-.08,4.61-1.16,0,.08-4.61-1.15,0,0-.81,3.42.06Z" fill="#50d6cc" fill-rule="evenodd"/><path d="M172.26,109.56l.66,5.38-1.15.14-.66-5.38Z" fill="#50d6cc" fill-rule="evenodd"/><path d="M178.74,113.33a1.29,1.29,0,0,1-.37.27,2.6,2.6,0,0,1-.67.29,2.21,2.21,0,0,1-1.82-.15,2.75,2.75,0,0,1-1.21-1.71l-.06-.21a2.81,2.81,0,0,1,.06-2.07,2.21,2.21,0,0,1,1.39-1.2,4.2,4.2,0,0,1,.7-.16,1.82,1.82,0,0,1,.47,0l.25.83a1.31,1.31,0,0,0-.42,0,2.91,2.91,0,0,0-.58.11,1.13,1.13,0,0,0-.79.78,2.58,2.58,0,0,0,.08,1.46l0,.07a2.58,2.58,0,0,0,.73,1.28,1.07,1.07,0,0,0,1,.18,2.7,2.7,0,0,0,.61-.27l.36-.27Z" fill="#50d6cc" fill-rule="evenodd"/><path d="M180.34,107.58l.66,1.3,1.36-.7.38.73-1.37.7.7,1.36,1.87-1,.37.72-2.91,1.49-2.46-4.83,2.79-1.43.37.72Z" fill="#50d6cc" fill-rule="evenodd"/><path d="M123.3,133.41a3.23,3.23,0,0,1,.51,2,1.72,1.72,0,0,1-1,1.27l-1.65.92-2.62-4.75,1.48-.82a1.88,1.88,0,0,1,1.78-.19,3.23,3.23,0,0,1,1.36,1.42Zm-1,.53-.07-.13a2.63,2.63,0,0,0-.91-1.05.89.89,0,0,0-.93,0L120,133l1.84,3.33.47-.26a.85.85,0,0,0,.47-.69,2.9,2.9,0,0,0-.49-1.39Z" fill="#50d6cc" fill-rule="evenodd"/><path d="M128.18,131.37a2.94,2.94,0,0,1,.23,2,2.07,2.07,0,0,1-2.81,1.19,2.88,2.88,0,0,1-1.29-1.56l-.12-.28a3.15,3.15,0,0,1-.25-2,1.84,1.84,0,0,1,1.18-1.31,1.77,1.77,0,0,1,1.72.08,3.29,3.29,0,0,1,1.23,1.56Zm-1.1.39-.06-.14a4.83,4.83,0,0,0-.73-1.3.71.71,0,0,0-.9-.15.74.74,0,0,0-.53.7,4.39,4.39,0,0,0,.43,1.49l0,.12a4.66,4.66,0,0,0,.75,1.35.74.74,0,0,0,.88.08.75.75,0,0,0,.48-.7,3.53,3.53,0,0,0-.37-1.45Z" fill="#50d6cc" fill-rule="evenodd"/><path d="M132.44,132.74,130,130.32l1.06,2.93-.75.27-1.85-5.1.8-.29,3.16,3.05.5-4.39.71-.26,1.85,5.1-1,.36-1.06-2.92-.42,3.46Z" fill="#50d6cc" fill-rule="evenodd"/><path d="M139.58,79.06a1.73,1.73,0,0,1-.15.51,4.07,4.07,0,0,1-.41.75,2.73,2.73,0,0,1-1.76,1.19,3,3,0,0,1-2.25-.64l-.2-.14a3,3,0,0,1-1.34-1.88,2.61,2.61,0,0,1,.45-2.08,7.43,7.43,0,0,1,.54-.66,2.15,2.15,0,0,1,.42-.34l.79.55a1.71,1.71,0,0,0-.4.29,2.67,2.67,0,0,0-.45.52,1.33,1.33,0,0,0-.2,1.27,2.73,2.73,0,0,0,1.06,1.24l.07,0a2.56,2.56,0,0,0,1.52.6,1.25,1.25,0,0,0,1-.56,3.61,3.61,0,0,0,.37-.68,5.07,5.07,0,0,0,.15-.52Z" fill="#50d6cc" fill-rule="evenodd"/><path d="M142.51,71.81a3.15,3.15,0,0,1,1.1,2,2.36,2.36,0,0,1-.71,1.81,2.32,2.32,0,0,1-1.78.76,3.08,3.08,0,0,1-2-1l-.25-.24a3.46,3.46,0,0,1-1.09-1.94,2.22,2.22,0,0,1,.7-1.92,2.11,2.11,0,0,1,1.87-.72,3.43,3.43,0,0,1,1.95,1Zm-1,.93-.12-.12a5.35,5.35,0,0,0-1.32-1,.86.86,0,0,0-1,.29.87.87,0,0,0-.27,1,4.73,4.73,0,0,0,1.08,1.34l.11.1a4.75,4.75,0,0,0,1.36,1,.87.87,0,0,0,1-.33.89.89,0,0,0,.22-1,3.71,3.71,0,0,0-1-1.33Z" fill="#50d6cc" fill-rule="evenodd"/><path d="M147.88,68.11l-2.09-2.88.78-.57,3.54,4.87-.48.34L145,68.59l2.23,3.06-.78.56-3.54-4.87.59-.42Z" fill="#50d6cc" fill-rule="evenodd"/><path d="M155.38,65.06a1.66,1.66,0,0,1,0,1.56A3,3,0,0,1,154,67.78a6.53,6.53,0,0,1-1,.39,3.57,3.57,0,0,1-.75.14l-.43-.94a2.45,2.45,0,0,0,.75-.07,3.43,3.43,0,0,0,.92-.3,1.6,1.6,0,0,0,.75-.54.76.76,0,0,0-.38-1,3.34,3.34,0,0,0-1.15-.06,2.62,2.62,0,0,1-1.23-.18,1.72,1.72,0,0,1-.82-.89,1.44,1.44,0,0,1,0-1.31,2.54,2.54,0,0,1,1.28-1.13,4.75,4.75,0,0,1,1.44-.42l.39.83-.68.16a4.05,4.05,0,0,0-.69.24,1.41,1.41,0,0,0-.63.49.49.49,0,0,0,0,.48.63.63,0,0,0,.36.36,4.28,4.28,0,0,0,1.16,0,2.46,2.46,0,0,1,1.37.19,1.78,1.78,0,0,1,.77.83Z" fill="#50d6cc" fill-rule="evenodd"/><path d="M160.59,60.08l-1.27.33,1.33,5-1.31.35L158,60.76l-1.29.35-.24-.87,3.87-1Z" fill="#50d6cc" fill-rule="evenodd"/><path d="M164.1,58.74l1.35-.1.42,6-1.35.09Z" fill="#50d6cc" fill-rule="evenodd"/><path d="M172.7,59.79l-1.3-.09L171,64.81l-1.35-.1.36-5.11-1.34-.09.06-.89,4,.28Z" fill="#50d6cc" fill-rule="evenodd"/><path d="M179.29,64.94a1.74,1.74,0,0,1-.89,1.13,2.38,2.38,0,0,1-1.69,0,2.29,2.29,0,0,1-1.46-1,2,2,0,0,1-.05-1.61l1.18-3.87,1.3.4-1.23,4a1,1,0,0,0,0,.76,1,1,0,0,0,.67.46,1.1,1.1,0,0,0,.78,0,1,1,0,0,0,.47-.68l1.22-4,1,.29Z" fill="#50d6cc" fill-rule="evenodd"/><path d="M186.85,64.57l-1.16-.6-2.33,4.57-1.21-.62,2.33-4.56-1.2-.61.41-.8,3.57,1.82Z" fill="#50d6cc" fill-rule="evenodd"/><path d="M190.18,65.64l1.09.8-3.53,4.87-1.1-.8Z" fill="#50d6cc" fill-rule="evenodd"/><path d="M195.46,74.45a3.14,3.14,0,0,1-2,1,2.25,2.25,0,0,1-1.79-.74,2.28,2.28,0,0,1-.74-1.78,3.09,3.09,0,0,1,1-2l.25-.24a3.34,3.34,0,0,1,2-1.06,2.22,2.22,0,0,1,1.91.73,2.14,2.14,0,0,1,.69,1.88,3.51,3.51,0,0,1-1.07,1.94Zm-.91-1,.11-.11a5.56,5.56,0,0,0,1-1.3,1.06,1.06,0,0,0-1.23-1.32,4.76,4.76,0,0,0-1.37,1.06l-.1.1a5.08,5.08,0,0,0-1.07,1.35,1,1,0,0,0,1.26,1.21A3.92,3.92,0,0,0,194.55,73.42Z" fill="#50d6cc" fill-rule="evenodd"/><path d="M199.19,79.69l2.88-2.1.57.78-4.87,3.54-.34-.47,1.29-4.66L195.66,79l-.57-.78L200,74.69l.43.58Z" fill="#50d6cc" fill-rule="evenodd"/><path d="M184.11,131.29a23,23,0,0,1,.43-3.64.68.68,0,0,0,0-.46,1.14,1.14,0,0,1-1-.49" fill="none" stroke="#50d6cc" stroke-miterlimit="3.86" stroke-width="0.46"/><path d="M181.68,147.4l.08-.61a1.92,1.92,0,0,0,.12-1,18.12,18.12,0,0,1,.18-3.57c.17-.92,1.62-3.79,1.76-4.54a28.52,28.52,0,0,0,.15-3,5,5,0,0,1,0-1.09" fill="none" stroke="#50d6cc" stroke-miterlimit="3.86" stroke-width="0.46"/><path d="M185.16,135.36a7.06,7.06,0,0,0,.72,3.32c.32.51,1.74,3.26,2.06,3.61s.66.29.78.58c.63,1.48,0,2.94.85,3.15h0" fill="none" stroke="#50d6cc" stroke-miterlimit="3.86" stroke-width="0.46"/><path d="M187.13,126.3a3.33,3.33,0,0,1-1.75.81c-.22,0-.09.45-.19,1a32.71,32.71,0,0,0,0,4.07c0,.17,0,.25,0,.76" fill="none" stroke="#50d6cc" stroke-miterlimit="3.86" stroke-width="0.46"/><path d="M188.07,130.17l.37,1.44.51,2.67.18,1.63,0,1.44,0,1.22-.15.87-.18.79-.32,2.6a2.4,2.4,0,0,1,2.23.4" fill="none" stroke="#50d6cc" stroke-miterlimit="3.86" stroke-width="0.46"/><path d="M181.17,127.51l.07.25c-.1-.55,1.65,7.17,7.6,10.78l.29.18" fill="none" stroke="#50d6cc" stroke-miterlimit="3.86" stroke-width="0.46"/><path d="M182.34,127.19c.62,2,2.49,6.95,6.77,9.55l0,.36" fill="none" stroke="#50d6cc" stroke-miterlimit="3.86" stroke-width="0.46"/><path d="M183.24,139a5.27,5.27,0,0,0,2.79,0" fill="none" stroke="#50d6cc" stroke-miterlimit="3.86" stroke-width="0.46"/><path d="M185,144.63c.22,1.5.49,3.29.57,3.58.14.5.29,3,.29,3l.07,2.45.07,3.1v3.61a2.21,2.21,0,0,0-.93,1.85" fill="none" stroke="#50d6cc" stroke-miterlimit="3.86" stroke-width="0.46"/><path d="M179,136.91c-.37.56-2.19-.5-2.28,1.07-.07,1.21.16,2.57,1.33,2.72l.86-.57.23-.23" fill="none" stroke="#50d6cc" stroke-miterlimit="3.86" stroke-width="0.46"/><path d="M177.94,136.38c-.5-7.83-.27-14.69,1-19.89-3.5,5.08-2.06,19.89-2.06,19.89Z" fill="none" stroke="#50d6cc" stroke-miterlimit="3.86" stroke-width="0.23" fill-rule="evenodd"/><path d="M180,136.27l-.25.68a3.3,3.3,0,0,1-.85.38" fill="none" stroke="#50d6cc" stroke-miterlimit="3.86" stroke-width="0.46"/><path d="M178.81,137.16a4.78,4.78,0,0,1,.12,3" fill="none" stroke="#50d6cc" stroke-miterlimit="3.86" stroke-width="0.46"/><path d="M182.28,122v.66" fill="none" stroke="#50d6cc" stroke-miterlimit="3.86" stroke-width="0.46"/><path d="M182.38,122.51a1.92,1.92,0,0,0-.08.83c.09.26.25.93.28,1s.16.81.23,1,.26.84.83,1a2,2,0,0,0,1.55-.2" fill="none" stroke="#50d6cc" stroke-miterlimit="3.86" stroke-width="0.46"/><path d="M183.47,125s.28-.1.37-.06a2.12,2.12,0,0,0,.36.07,1.47,1.47,0,0,1,.45,0,1,1,0,0,0,.34,0" fill="none" stroke="#50d6cc" stroke-miterlimit="3.86" stroke-width="0.23"/><path d="M183.72,125.38a2.25,2.25,0,0,0,.93,0" fill="none" stroke="#50d6cc" stroke-miterlimit="3.86" stroke-width="0.23"/><path d="M184.63,122.56a1.22,1.22,0,0,1,1.11.14" fill="none" stroke="#50d6cc" stroke-miterlimit="3.86" stroke-width="0.23"/><path d="M183.87,122.53a1.09,1.09,0,0,1-.12.62c-.07.15-.1.41-.15.52a1,1,0,0,0-.1.4c0,.11,0,.1.16.18s.27,0,.4,0a.58.58,0,0,1,.34,0c.11,0,.27-.06.27-.17a.58.58,0,0,0-.11-.35l-.24-.16" fill="none" stroke="#50d6cc" stroke-miterlimit="3.86" stroke-width="0.23"/><path d="M182.77,122.6a1.24,1.24,0,0,1,1.13,0" fill="none" stroke="#50d6cc" stroke-miterlimit="3.86" stroke-width="0.23"/><ellipse cx="183.26" cy="122.98" rx="0.1" ry="0.39" transform="translate(57.09 304.06) rotate(-89)" fill="none" stroke="#50d6cc" stroke-miterlimit="3.86" stroke-width="0.23"/><path d="M183.57,126.33l.07,0a2,2,0,0,0,1.55-.2" fill="none" stroke="#50d6cc" stroke-miterlimit="3.86" stroke-width="0.46"/><path d="M181.5,120.44c.13.2.4.94.49,1.15s0,.59.38.42c1.95-1,6.17.71,5.26.63" fill="none" stroke="#50d6cc" stroke-miterlimit="3.86" stroke-width="0.46"/><path d="M185.75,149.56a3.53,3.53,0,0,0,3.4,0" fill="none" stroke="#50d6cc" stroke-miterlimit="3.86" stroke-width="0.46"/><path d="M182.07,149.77a4.2,4.2,0,0,0,3.49-.1" fill="none" stroke="#50d6cc" stroke-miterlimit="3.86" stroke-width="0.46"/><ellipse cx="185.15" cy="123.04" rx="0.1" ry="0.41" transform="translate(43.42 294.3) rotate(-84)" fill="none" stroke="#50d6cc" stroke-miterlimit="3.86" stroke-width="0.23"/><path d="M182.88,140a6.54,6.54,0,0,0,3.67,0" fill="none" stroke="#50d6cc" stroke-miterlimit="3.86" stroke-width="0.46"/><path d="M196.14,160.47h14.33v1.93H196.14Z" fill="none" stroke="#50d6cc" stroke-miterlimit="3.86" stroke-width="0.69" fill-rule="evenodd"/><path d="M44.9,249.34h551V371.7H44.9Z" fill="none" stroke="#50d6cc" stroke-linecap="round" stroke-linejoin="round"/></svg>