<svg xmlns="http://www.w3.org/2000/svg" width="600" height="374" viewBox="0 0 600 374"><path d="M25.5 345.08h573.09V1.22H25.5z" fill="#fff" stroke="#50d6cc" stroke-linecap="round" stroke-linejoin="round"/><path d="M278.35 92A25.19 25.19 0 00265 97c.44 1.06 1.24 1 2.13.69l.26-.33c.62 0 1.41-.62 2.13-1a.74.74 0 01.16-.19h.07c.58-.34 1.64-.2 2.15-.69a1 1 0 00.27-.48c3.62-2.22 7.15-1.59 11.74-1.24v.88c-3.09-.62-8.76-1.06-11.41 1.6a12.41 12.41 0 009.74 3.08l2.65-1.14c1.33 5.21 7 7.5 11.32 9.19a7.38 7.38 0 001-3.18c-1.06-1.24-2.93-1.25-3.72-2.67a5.68 5.68 0 014.34 2.22 3.82 3.82 0 01-.81 3.63 1.14 1.14 0 001.36.22h.05l6.21-5h.07a.93.93 0 011.24.57l.19-.17c2 2.57 5.31 3.27 7.43 5.57l-.26.35v.08c-.44 0-1-.61-1.55-.86-2.12-1.86-4.68-2.84-6.8-4.71-1.86 2.3-4.45 3.1-6.57 5.14-4.15-.19-8.13-2.75-11.58-5.4a12.35 12.35 0 01-2.2-3.8c-.88-.09-1.69.8-2.58.89-3.36-.18-7.68-.46-10.34-3.63-2.47.44-5.13 4.07-7.52 1h-.43c-8.32 8.22-19.74 13.34-26.46 22.9 1.42 1.94 3.55-.71 5.23-1.25 2.3-1.94 5.94-3 8.14-5.92l.17-.79c-.35-.15-.93 0-1.24-.14h-.05v-.07a.7.7 0 010-.14v-.07c.44-.66 1.32-.5 1.65-.86a.37.37 0 010-.09c2.83-1.68 6.28-3.21 8.4-5.68l3.8-3.18h.05c.14.06.31.09.43.14h.05v.1a.78.78 0 010 .14c-4.33 3.28-7.35 7.16-12.3 8.93v1c1.15.27 2.13-.94 3.37-1.21 2.39-1.51 4.6-3.37 7.16-4.52a1.36 1.36 0 01.26 1 11.29 11.29 0 01-2.38 1.31l-.27.27.15.16a.48.48 0 01-.12 0h-.19a2.88 2.88 0 00-.82.36v.29l-.16-.19c-.71 1.24-2.2 1.68-3.44 2.39-.89.26-1.62 1-2.41 1.14a.65.65 0 00-.29-.28c-.13-.07-.29-.12-.41-.17h-.05a.61.61 0 01-.12-.15.19.19 0 000-.07c-1.35 4.39-6.21 5.1-9.38 7.74a1.25 1.25 0 00.81 1.36h1.44a115 115 0 0010.77-8 2.57 2.57 0 011.55-.52.45.45 0 01.19.11c-.23.55-1.23.67-1.55 1.07a54.72 54.72 0 01-9.55 7.36v.07a.33.33 0 000 .14.24.24 0 000 .08 2.4 2.4 0 00.66.33c3.9-.52 6.29-4.23 9.39-6 3-2.47 5.49-4.59 8.14-7.16.17.16.5.26.6.43a.94.94 0 01.12.26v.07l-.07.07c-.11.08-.28.15-.38.24a.56.56 0 000 .08v.1l.05.17c-2.56 1.41-4.43 3.88-6.74 5.56-1.85 1.5-4.22 3.1-6 4.78 1.5 1.41 3.35-.71 5.21-.63a4.92 4.92 0 012.74-2.74l.27.36a16.45 16.45 0 00-1.87 2.48 2.44 2.44 0 002.65-1.07c3.72-2.65 4.25-7.52 8.15-9.91.7 1.68-1.78 1.77-1.87 3.36a13.24 13.24 0 00-2.38 4l-.17-.19-1.34 1.77a2.51 2.51 0 002 1c1.95-1.86 2.74-4.06 4.78-6.09a.87.87 0 01.35.19v.05a.87.87 0 010 .35 6.72 6.72 0 00-2.05 2.92c2.29 1 2.91-2.21 4.15-3.37a18.58 18.58 0 012.84-5.21.48.48 0 00.14.09 3 3 0 01.31.15.46.46 0 01.07.07v.08h-.14a20.09 20.09 0 00-2.58 5.13h.05c.3.16.54.71.84.88h.17a1.33 1.33 0 00.16-.12l.05-.05a.87.87 0 00.12-.14c.61-.79 1.16-1.82 1.77-2.53h.05l.1.12a1.85 1.85 0 01.05.71V113.09c-.1.44-.63.84-.82 1.22a.38.38 0 000 .1v.05c0 .05 0 0 0 0a.11.11 0 010 .05 1.06 1.06 0 00.39.36 3.6 3.6 0 002.58-2.29.67.67 0 01.26.24v.07c.24.72-.8 2-.79 2.56a.27.27 0 000 .09 2.51 2.51 0 001.26-.21.61.61 0 00.17-.15v-.07c.08-.14.12-.31.19-.43a.28.28 0 01.19-.12.48.48 0 01.24 0 .58.58 0 01.24.19l.07.09a.87.87 0 01.05.22 1 1 0 01-.17.52 1 1 0 01-.19.22c1 1.23 2.56.89 3.53 2.12l.79-1.31h.45a2.5 2.5 0 010 .4h.05l-.12.09c-.19.21-.24.51-.4.69a.58.58 0 01-.12.1h-.07c.18.48.4.68.62.71a.82.82 0 00.22 0c.3-.07.62-.28.86-.33h.14a.45.45 0 01.12.12 1.74 1.74 0 01.14.64 2.25 2.25 0 00.79.58 1.23 1.23 0 00.55 0c.48-.4.75-1.3 1.38-1.4h.19c.09.88-.27 1.94.27 2.65a.73.73 0 00.45 0h.12a3.67 3.67 0 01.52-.27h.24a1.57 1.57 0 000 .29v.08a2.29 2.29 0 00.45.24l1.1.55a16.18 16.18 0 001.32-4.75 3 3 0 00.76-1.15.58.58 0 000-.19.32.32 0 000-.09.38.38 0 000-.1v-.07a.19.19 0 000-.07v-.05c-.44-1-3-1.2-3.56-2.24-3.62-1.94-6.71-5.84-9.55-8.93l-.09-.09c-.4-.45-.29-1.1-.7-1.51-2.12 3.36-6.18 2.22-9.45 2.22-2.83-.89-6.65-2.92-7.62-6.64l.19-1.14H264.26v.07c.1.33-.05.86 0 1.22s0 0 0 .05l.05.05c.59.41.55 1.4 1.15 1.57h.09a16.1 16.1 0 011.58-1.8c1.33 1.43-2.65 2.49-.26 3.56l1.69-2.22.69.62a5.78 5.78 0 00-1.31 2.22 9.24 9.24 0 011.58 1 11 11 0 012.12-4.16c1 1-.8 2.14-1 3.37-.14.21-.43.38-.55.6s0 0 0 .05c2.56.09 5.64 1.6 7-1.94a.72.72 0 01.26.22l.05.07v.12a.7.7 0 010 .14 3.59 3.59 0 01-.19.77l-.79.62c2.29 1 2.74-1.86 4.25-2.92.62.62.53 1.76 1 2.56 4 4.16 7.33 8.94 12.72 10.89a13.64 13.64 0 002-4.16 5.51 5.51 0 013.73-.52 7.84 7.84 0 012.82 3.08 17.11 17.11 0 01-.27 6c1.24.62 3.2.26 4.61-.36-.18-2.29-2.05-6.18 1-7.6a13 13 0 014.87-.19c.53-2.48-.63-5.3-1.6-7.42a1 1 0 01.17-1 .87.87 0 01.21-.17c.57-.29 1.57-.19 2.1-.5l.1-.07c5-1.15 11.06-3.09 12.92-8.48h.33c-.27 5.39-6.46 7.24-10.53 8.74-1.5.44-3.16.46-4.49 1.34a7.65 7.65 0 001 2.84c2.38-.09 5.41-2.13 7.71-3.46.62 0 1.22-.62 1.58-1 3-.71 4.94-4.58 8-4.58 1 .09 2 1.68 3.11 1.24a5.94 5.94 0 006.18-2 .52.52 0 01.12-.19c.3-.31 1-.24 1.48-.24a23.09 23.09 0 006.19 3.6 3.47 3.47 0 01.78-.07h.1a1.19 1.19 0 00.21-.15c-5.12-4.06-10.25-8-16.88-8.12-7.17-1.77-10.27 8.92-17.53 7.33-1.68.09-4.41 0-5.3-1.76-1.59 1.59-4.06 2.9-6.45 1.93-1.5-1.14-3.09-1.76-4.51-2.91-1.5 1.06-3.08 2.55-5.2 1.77-5.4-1.51-9.39-7.16-15.31-7 .92 2.4.81 2.4.71 2.4zm11.41 7.33a4.23 4.23 0 012.55 2 .87.87 0 01-.31.07h-.38c-.61-.2-1.11-1-1.7-1.29a1.37 1.37 0 01-.24-.64v-.07z" fill="#50d6cc"/><path d="M333.51 120.26a1.12 1.12 0 00-.38.17 42 42 0 01-11.94 7.16 40.26 40.26 0 01-10.27 1.93.49.49 0 000 .07.61.61 0 00-.05.12v.55a.77.77 0 01-.05.19.84.84 0 01-.26.29l.17.16c-1.07 1.51-3.1.9-4.52.81-1.54-.69-4.62.62-5.8-.78a2 2 0 01-.38-.81l-.62-.79c-2.27-.59-4.77-.78-6.83-1.94l-1.94-.57c-1.21-.45-2.83-.86-2.55-2.63H287.75c-.33.13-.52.54-.79.67H286.62l-.12-.07h-.05c-.56-.64-.56-1.71-1.33-2.17a1.31 1.31 0 00-.27-.12c-.18.54-.17 1.16-.62 1.6a11.64 11.64 0 01-3.8-2.65 1.2 1.2 0 00-.23.52 3.53 3.53 0 01-.12 1.08c-1.59-.55-1.49-2.5-3.44-2.42a3.53 3.53 0 00-.19 1.6l-.14.09a.46.46 0 01-.14.07.8.8 0 01-.15 0h-.16c-.7-.12-1.45-1.15-2.3-1.34a1.1 1.1 0 00-.26 0l-.17-.17c-.62.7.09 1.32-.62 1.93-1.15-.54-2.39-1.67-3.63-.78.09 1.32.37 2.28-.69 3.34a1.34 1.34 0 00.45.29h.32c.55-.19 1-1.16 1.52-1.41.76-.06 1.38-.93 2.08-1.14a1 1 0 01.91.16 1.25 1.25 0 010 .89c-.23.57-.87 1-1.1 1.5v.1a.49.49 0 010 .07 1.79 1.79 0 001.48.29H273.97a.18.18 0 00.07 0c.69-.55.75-2.1 1.36-2.77h.05a.54.54 0 01.12-.09.18.18 0 01.07 0h.05l.09-.05c.38-.13.92 0 1.7.48s0 .07.05.1a1.33 1.33 0 01.05.19c.11.69-.57 1.33-.63 1.79V125.99l.05.07a.58.58 0 00.12.1 1.87 1.87 0 00.53.19c.7-.8 1.16-1.85 2.31-2.12.36.45.63 1.15.27 1.6-.09.13-.23.22-.29.33v.16c1.68 1.05 2.47-2.48 4.59-1 .09 1-.27 1.6.26 2.22 1.15-.27 2.21-1.5 3.54-.79l.12.07c.45.49.67 2 1.27 2.36.27.11.64 0 1.13-.46 1.68 0 3.09 1.6 4.77.53 1.15-.44 2.15-.12 3.7 2.62l23.83.72c3.76-3.36 8.46-4.32 12.71-4.32l.24-.19.07-.07V128c-4.6-1.51-7.43 1.32-11.94 1.41a9.5 9.5 0 00-.53-.81v-.26c3.36-1.15 5.93-4.07 9.91-4a11.45 11.45 0 005-2.19 4 4 0 00-2.74-.19c-1.41.88-3.28 2.83-4.78 1.6.44-1.42 2.38-1.7 3.18-2.85v-.07l-.08-.07H333.71zm-15.26 10.46a1.57 1.57 0 01.62.05h.07a.75.75 0 01.17.1.63.63 0 01.12.11 1.09 1.09 0 01.19.39 2.86 2.86 0 01-2.08-.1l-.12-.1v-.05a.84.84 0 01-.12-.31 5.17 5.17 0 001.15-.09zm-4.58 0h.33l.07.07h.05a1.78 1.78 0 01.12.24v.05a.58.58 0 01-.1.12c-.38.32-1.18.08-1.72.17l-.16-.19h.14c.32-.11.76-.46 1.15-.57h.09zM306.1 87a6.62 6.62 0 00-2.34.46c-2.66.79-2.91 4-3.18 6.54-.18 1-.94 2-1.05 2.89l.17-.15a.94.94 0 01.57.12.66.66 0 01.14.15v.1a3.67 3.67 0 001.81.67h.22l.14-.07.1-.07a1.64 1.64 0 00.48-.74.69.69 0 01.84.1.58.58 0 01.14.17c-.16.49 0 1.13-.35 1.5l-.08.07c0 .05 0 .11.05.15l.07.07h.14l.41.1h.14a.61.61 0 01.1.07v.05c2.22.71 3.35-1 4.95-2 .35-1.87-2-4-1-6.19 1-1.32 2.22-.54 3.72-1a2.42 2.42 0 00.41.67l.3.34a.75.75 0 00.72.19 2.8 2.8 0 00-1-3.2 2.89 2.89 0 00-2.82.45 1 1 0 01-.6.39h-.24a.18.18 0 01-.07 0c-.31-.33-.52-1.06-.83-1.27a.77.77 0 01-.19.05 1.6 1.6 0 01-.93-.24l.16-.16a8.5 8.5 0 00-1.1-.21zm.14 1.67c.41-.1.9.41 1.24.74.18.62-.55.88-.81 1.15a1.34 1.34 0 01-.79-1.6.87.87 0 01.12-.14h.05zM343.73 99.55c2.3 1 4.43 3 7.17 2.39 4.33 2.74 9 6.55 13.53 8.75 2.12 2.48 5.48 3.46 7.16 6.2-5.13-3.72-10.61-5.32-15.74-9.2-2-.71-4.16.09-5.92-1.25-2.84-1.14-5.05-4-7.79-5.48-.44-.78-1.15-1.58-.8-2.47 1.24-.7 1.33 1 2.39 1.07M332.59 100.08c-.44 6.72-8.22 11-12.74 15.12-1.06.18-1.85 1.24-3.18 1.07a21.66 21.66 0 01-1.85-7.78c4.95-1.33 9.19-4.78 13.61-7.18a6.67 6.67 0 012.39-2 1.87 1.87 0 011.77.79" fill="#50d6cc"/><path d="M345.15 104.68c-1.07 1.25-2.3 1-3.81.8.18-.54-.44-.54-.44-1-1 .27-1.85 2.21-3 .8-1.85-.62-2.11 1.86-3.88.62l-1.86.18c-.62 2.2 2.12.26 2.83 1.14 1.33 1.24 2.13-2.65 3.54-.35 1.06.35 1.68-.62 2.39-.79.53 1.14 1.59.44 2.65.61.44-.09.79-.44 1.32-.27a12.5 12.5 0 004.95 5.58c.62-1.41-1.5-2.3-2.29-3.18-.89-1.06-2.13-2.57-1.86-3.54l-.35-.36c.26.09.53-.35.79.18l.18-.18-.18.18c2.48 1.15 5.75 4.42 8.14 3a.45.45 0 01-.18.35c2.92-.35 4.86 2.83 7.52 3.63 2 1.41 4.16 2.38 6.37 3.89 2.12 1 3.53 1.67 4.59 4 0 .62 0 1.51-.61 1.69l-.62-.09a145.42 145.42 0 00-11.94-8.49c-.71.35.09 1 .27 1.33 3.53 2.56 7.6 5 10.7 7.78-.36.62-.8 1.85-1.77 1-2.92-.53-5.66-2.9-8.14-4.77-2.47-3.18-6.19-4.68-8-8.22-.26.17-.62.17-.8.44v.53c4.61 4.16 8.76 9.82 14.34 12.38 0 .36.08.8-.27 1-1.23-.8-2.56-1.77-4-1.59-.88 1.23-2.47.35-3.54.17-2.12-2.39-5.3-4.87-7-7.7-.27-.08-.45.18-.62.36.62 2.21 3.63 4.52 5.22 6.55-.44.34-.71 1.23-1.24.87l-2.92-2.83a.34.34 0 01-.62 0c-2.56-2.38-4.6-4.5-5.92-7.6a.75.75 0 00-.8.27c1.15 3.62 3.89 5.75 6.37 8.57-.27.18-.09.45-.09.72-2.3-.89-3.8-3.37-6.1-4-.44-2.38-2.21-3.89-2.65-6.1-.35-.09-.44.17-.71.35.27 2.21 2.21 4 2.3 6 .09 0 .18.1.26.18-1.67 0-2.56-1.85-4.15-2.74a12.31 12.31 0 00-1.06-4.59H338c-.09 1.41 1 3.35.35 4.59-.79-.53-1.23-2.3-2.56-2-1.06 1.94-4.25.71-5 2.83l.18.18h-.26c0-.54 0-1-.53-1.24-.8.62-.36 1.94-1.24 2.65-.62-.53-1.68-.09-1.59-1.23-1.42.07-.26 1.85-1.33 2.38-.7-.17-.44-2-1.59-1.24l-.09 2.21c-.62-.18-1.59-.35-2.12.17-.44.36-.44.89-.61 1.43-.54-.09-1-.89-1.59-.36-.63.36-.45 1.77-1.42 1.32.17-.78-.89-1-.8-1.59-.17-1.5-1.06-3.09-.53-4.32 4.69-.8 7.61-5 11.06-8 3.36-2.3 4.33-5.39 5.39-8.75a8.83 8.83 0 006.54-.8c.44 2.39 3.28 3.1 4.87 5M303.49 115c-.09 4.52-1.06 8.76-1.59 12.93h-1c.17-.8.35-2-.18-2.58-1.5.27.44 4.34-2.56 2.83-.8-.52.35-1.5-.89-1.59-.17.36-.53.8-.17 1.16a5.17 5.17 0 01-1.95-.36c.18-1.42 2.3-2.74 1.33-4.16-1 1.07-2.12 2.48-2.12 3.9h-.8c1.59-3.27.8-6.9 2.57-10.08l-.18-.18.53-.26a5.37 5.37 0 01.8-2.4 2.39 2.39 0 011.59-1.59.53.53 0 00.88-.53c1.77.09 2.92 1.51 3.71 2.92M311.23 113.24h-1.72c-.88.35-1 1.33-1.07 2 1.05 4.33.37 8.77 1.69 12.92a1.28 1.28 0 00.17.22l.14.12h.22c.54.16 1.18-.26 1.76-.26l-.16-.62c.06-.82-.77-2-.41-2.73a1 1 0 01.17-.21 1.3 1.3 0 01.5-.24c.71 1.24.61 2.65.79 4l5-1.32c-.53-.88-.28-2.21-.81-3.17a1.4 1.4 0 01-.14-.27v-.05a.56.56 0 01.05-.08h.05s.11-.06.16-.1c-2.21-3-.8-6.91-3.36-9.74a17.84 17.84 0 00-3.03-.47zm4.2 12.13c.71.36.61 1.32.79 2a.42.42 0 01-.12.08h-.43c-.13-.53-.61-1.18-.5-1.72a.24.24 0 010-.09v-.08l.09-.14zM308.09 121.66c.09 2.74.18 5.84 1.77 8.14.26.62-.44 1-.62 1.32-1.15.53-2-1.32-3.18-.7.09-.53.44-1.42 0-1.86-.45.17-1 .62-1 1.06v1h-1.32c-.44-.8.45-2.22-.79-2.83.26-1.78.26-4.16.7-6.37 1.32.8 3.36-.27 4.42.26M301.28 130.77v-1.59c.53.17.8-.35 1.24-.45l.17 2h-1.41" fill="#50d6cc"/><path d="M259.1 132.39s-2.88-5.37-6.64-5.81-5.89-.31-8.55 1.24-7.64 4.65-10.47 15.1-3.09 16.22-2.21 22.79c0 0 3.54 26.3 17.25 45.1s25.06 27.86 32.94 32.28c6.75 3.78 26.1 10.84 26.1 10.84s24.54-6 43.33-25.88 21.6-27.41 26.9-40.24 5.6-22.77 4.72-30.06-3.76-22.12-10.61-26.76-11.06-4-14.37-2.65-6.19 4.86-6.19 4.86z" fill="none" stroke="#50d6cc" stroke-width="2.54"/><path d="M290.36 139.31h-.19a.58.58 0 00-.24.34c-.13.68.72 1.91.72 1.91l1.35 21.35-2-.15-.46-6.78-3.22.29v5.47H283l-2.22 2-.43-6.35 4.56-.29-.43-1.91-4.46.46-1-10.77h-1.62l.31 19.46-4-.6-2.79-13.11-1.2.14-.57.58-3.25-.29v4.42l3.82.6 1.94 8.69a3.19 3.19 0 00-.93.38.18.18 0 00-.07.05l-.07.09a.25.25 0 010 .07v.21a13.49 13.49 0 001.77 2.37l8.41-.72 1.19-1.34 1.46 1.17 2.82.17 1-1.48 2.06 1.17s5.31-1.62 7.52-1.62 40.52 1 40.52 1l-1.31 2.08a1.7 1.7 0 001.48 1.48c1.33.14 23.88.12 23.88.12l-1.34 3.85.6 2.5-2.65 3.7 2.5.15-3.7 5.28 2.37.31-2.37 2.36 3.39-.17v8.26l1.77-.14v-3h2.36l-.14 3.1h2.36v-4.56l1.32.15v4.73h1.62l.74-13 2.05 1.34-.28-3.53.88-.15s-2.08-3.4-2.08-4.87-.14-3.24-.14-3.24l1.62.74 1 1.76-.71 1.91 1.76-.74-.31 13.28-2.05 2.79 1.91-.88.45 1.05 2.2-4.3v-11.46l.6-3.68 2.36-.29.14-1.17-2.22-1.33 2.37-1.32-1.77-1.79-.31-3.68 2.22-1.91-2.22-.74-.57-3.67 1.45-1.05s-1.16-1.91-1.45-2.63a17.06 17.06 0 01-.6-2.22l3-1a47.88 47.88 0 00-5.47-4.13c-2-1.13-5.46-2.54-6.25-3.18l-.08-.07c-.58-.59-2.36-2.5-2.36-2.5a4.47 4.47 0 00-2.32-.12l-.12.07c-.86.81-10.6 8.71-11 9.41s-1.18 3.71-1.63 4.44-1.91 2.78-2.65 3.82a7.66 7.66 0 00-1 1.91 2.52 2.52 0 00.83.45h.28c.44-.14 2.36-.88 3.1-.59a2.9 2.9 0 011.17.88h-1.91a10 10 0 00-4.42 1.91 17.1 17.1 0 01-2.79 1.62l-.6-.28 4.13-3c-.09-.08-.86-.67-1.29-.46-.45.28-3.1 1.46-4.28 2.05a10.11 10.11 0 00-2.2 1.62v.41c-.22-.38-3.86-6.44-9.29-6.59s-9.06 6.22-9.28 6.61l-11.2-1.76.28 1.19-6.47-.45 3.23-1 .31.6 1.91-.6-10.32-2.65-1 2.65-2.81-.29-2.34-21.22a2.84 2.84 0 00.12-1.77v-.05l-.07-.1a.46.46 0 01-.07-.07l-.1-.07a1.24 1.24 0 00-.4-.14h-.48zM370 147c.15.06 1 .43 1.57.69s.57 1.19.57 2.51a8 8 0 01-.28 2.19l1 1.79 1-1.93h.74l-1.76 3.56.09.07h.05a1.62 1.62 0 00.67.12h.19c.53.17.68 1 .69 1.15s-.14 2.07-.14 3.7a1.88 1.88 0 01-.24 1 1.45 1.45 0 01-.19.23 1.48 1.48 0 01-.27.19 1.7 1.7 0 01-.52.17 9 9 0 001 .9c.59.44.72 1.75.72 5s-2.07 3.95-2.2 4l-2.22-4.42 1.77-.88-2.24-4.3 2.34-1.17a15.92 15.92 0 00-1.46-2.36c-.88-1.18.14-3.68.14-3.68a2.64 2.64 0 00.15-2.2 2 2 0 01.28-2.05 6.05 6.05 0 01-.14-2.05 1.08 1.08 0 000-.19v-.07A4.57 4.57 0 00370 147zm-2 .71l-.69 1.17 1.31 1.46a10.27 10.27 0 00-.19 3.42v.05c.44.74 2.06 1.64.88 4.59s-1.34 4.27-1.19 5.44a16.8 16.8 0 010 2.8l-.72-.15-.45-2.65-.43-1a32.09 32.09 0 00.43-3.7 12.69 12.69 0 00-.89-3.37 45.53 45.53 0 00-5.58 1.31c-.89.44-3 1.2-3 1.2l-.28-.91s6.39-2.32 6.92-2.65a4 4 0 011.63-.29l.88-3.53s-1-1-1-1.48v-.07a10.07 10.07 0 012.37-1.61zm-6.71 11.47h.14a.24.24 0 01.12 0h.12a.75.75 0 01.1.17 2.4 2.4 0 01.12 1l-1.05 2.22.6.58 2.05 1 .74-3.25.88-.43a12.55 12.55 0 01.31 1.91 21.19 21.19 0 01-1.48 4.27 2.28 2.28 0 00.29 2.34l-.43 1.63h-.74V170a2.32 2.32 0 00-.45-1.63l-.1-.09c-.52-.4-1.2-.05-1.62 0h.11a6.51 6.51 0 01-1.77-.89 4.14 4.14 0 00-1 .43h-.1c-.47 0-1.21-.76-1.6-1.53a18.79 18.79 0 01-.88-3.25l-.74.31-.74-.74 3.1-2.51.15 1.17-.89 1a15.16 15.16 0 00.29 2.36 2.36 2.36 0 001.77 1.91l1.34-1 1 1.48 2.06.28.74-1.91s-3.4-1.48-4.13-2.36a1.17 1.17 0 01-.2-.31 2.57 2.57 0 01.79-2.48 5.2 5.2 0 011.1-1l.12-.05zm7 9l-.14 2.19-.88 2.37-.31-.57-.43-3.25zm-4.58 4.27l.88 1.77-.71 1.91-1.05.74v-2.51zm3.39 3.85l1.34.28s.14 1.79.14 2.37a24.08 24.08 0 01-1 3.39l-1-1.79zm-4.1 2.22l.72 1.2-.57 2.19-.89-.14v-2.51zm.58 4.73l.59 1.32-.45.74-1.46-.15zm2.5 1.77l1.48.29-.74 4.72-.74-.16zm-3.39 2.51l1.91.59.17.58-2.22 2.19-.6-.26-.14-2.39z" fill="#50d6cc"/><path d="M294.06 166.92a7.32 7.32 0 00-3.41 1.89.43.43 0 00-.1.09h-.05c-1.19 1.36.32 5.43 1 8.55s6.5 11.7 6.5 11.7l2.8 5.3a6 6 0 00-1.17 1.34 12.68 12.68 0 00-1.34 6.92c.29 3.39 3.4 4.7 4.73 5.45s4.42.28 4.42.28l1 .89-18.12-.89 1.31-5.15 1.05-2.34s.57 3.51.72 4.1a.73.73 0 00.05.09l.07.12h.1a1 1 0 00.17.12 1.18 1.18 0 00.81.14h.07l.08-.07c.29-.44.43-2.37.43-4.87s.15-9.3 0-11.06a2.23 2.23 0 00-1.77-2.05l-4.56-.29a5.54 5.54 0 00-.14-1.34l-.05-.07a6.9 6.9 0 00-2.58-1.21 72.18 72.18 0 00-8.69-.72c-1.77 0-6.79.87-10.77.72s-10.61 1.33-10.61 1.33l-2.65-2.19-1.36 1.18-1.93.14.6 2.51s-1.17 5.75-1.46 6.63a.36.36 0 000 .1.93.93 0 000 .24 4.06 4.06 0 002 2.44 7.06 7.06 0 002.51.43l1.43-1.41a2.3 2.3 0 00-.12.69 4.17 4.17 0 00.45 1.46 9.34 9.34 0 002.77.6c.74-.16 2.65-.46 2.65-.46s1.32 3.09 1.91 4.42-.14 5.47-.14 5.47a10.72 10.72 0 00-2.94.88.47.47 0 00-.1.1.49.49 0 000 .07v.12a.47.47 0 00.05.1 4.93 4.93 0 003 .95c1.62 0 6.2.29 9.88.29s10.9-.3 14.14-.45 6.94-.58 10.62-.58 12.52.58 14.74.58 9.59.59 11.65.59 10.76.17 12.82.32 13.56 1.45 14.59 1.31a2.31 2.31 0 00.48-.14 1.67 1.67 0 00.24-.15l.05-.05.07-.09a.66.66 0 00.07-.15l.05-.09v-.15l-3.39-1.17s-6.52.29-7.07.24l.74-.07c3.54-.3 6.62-3.54 7.36-5.3s.28-5.61.28-5.61a20.72 20.72 0 002.37.28 40.17 40.17 0 014.13 0 3.89 3.89 0 003.1-1.17 13.31 13.31 0 011.63-1.17l-4.88-.45.74-2.8.29 2.51 1.63-.45-.15-6.47-.45-.31-1.77 1.93.6.43-.89.6-1-1.77-2.08 3.82h1.05l-.45 2.22h-2.94s.14-2.95.29-5.75 4.7-12.23 6.32-13.85a4.56 4.56 0 001.34-4.42v-.05l-.05-.07-.1-.1a10.62 10.62 0 00-4.82-1.24c-1.62 0-3.25.9-4.73.31a7.92 7.92 0 00-5.23.52.85.85 0 01-.14.09 6.37 6.37 0 01-5.28-.4c-2.06-1.18-4.14-.45-5.61-.15a4.75 4.75 0 01-4.27-1c-1.48-1.19-3.83-.44-4.42 0h-.1a5 5 0 01-4-.5c-1.33-.89-2.21-.59-5.15-.31s-2.82-.43-4.59-1.17-6 .75-8.4.91-2.51-.31-5-2.22a3.65 3.65 0 00-2.41-.86h-.36zm-40.21 23.71h.09v1a.29.29 0 010 .09.47.47 0 01-.07.12 1 1 0 01-.21.14 2.23 2.23 0 01-.53.17 1 1 0 01-.29-.17.76.76 0 01-.09-.09.59.59 0 01-.12-.22.53.53 0 01.05-.4 1.83 1.83 0 011.17-.64zm5.47 1.48a.66.66 0 01.14 0 1.11 1.11 0 01.45.1h.08a2.72 2.72 0 01-.6 1.17 1.24 1.24 0 01-.24.19h-.24a.42.42 0 01-.12 0h-.05s-.28-1 .31-1.34a1.52 1.52 0 01.27-.12zm88.95 1.31l.31 4a6 6 0 00-2.22-2.2c-1.19-.44-2.65-.6-6.19-.6s-5.62 3.73-5.75 4l-.74-.29.88-3.82-19.58.6a15 15 0 013.22 1.89c1.47 1.17 2.94 4.27 2.94 4.27l-.43.6 7.52.14s-.59 2.79 0 4a27 27 0 001.77 2.81h-12.68s2.35-2.67 2.65-3.7.74-3.22.74-3.22a6 6 0 01-.88-1.62 9.33 9.33 0 00-2.65-3.11c-1.4-1.17-8.38-1.75-8.38-1.75l-1.48-.88zm-23.88 1.77l.59.88v1.46l-1 .17v-1.63zm17.69.74l.74.72-.6 2.51-.43-.15zm-77.25.14l.74 1.63-.74 9.19c-.13-.75-1.17-6.67-1.6-7.26a14.39 14.39 0 01-1.33-2.51zm38.33 0l3 .58-1.66 1.35-1.77-1zm27.72 0l1 .29-.6 2.37-.57-1.63zm9.58 0l.45 2.8-1.34.29-.88-2.66zm-3.25.75l1 2.05-.29.6-1.91-.89zm-26.82.14l1.32.14-.29 2.8-1.91-1.63zm34.06 0l.74.88-1.2 1.63-.57-.29zm-30.67.28l1.32 1.2-.89 2.05h-.88l-.14-.74zM285 198l.46 2 3.08 1.79-1.31 6-5.16.14zm16.53.45l2.65.88-.31.43-2.8-.74zm21.66 0l3.82.14.16.89h-3.84zm-14.74.88l1.32 1.17-.74 1.17-1.46-.14zm27.27.15l2.06 1.31.14 1.05-2.05.72zm-67.67.43l3.53 2.79v5.18l-4.27-.45zm78.42.14l-.14 1.05-2.06.57-.17-1.45zm-30.95.17h.89l.14 2.19-1.77.15-.29-.72zm-14.9.28l3 .6-3 .43zm40.83.58H341.89a.85.85 0 01.31.26l.07.1a1.23 1.23 0 01.14.62 1.14 1.14 0 010 .26 1 1 0 01-.17.4.35.35 0 010 .08l-.09.09-.05.05-.07.05a.74.74 0 01-.36.09.82.82 0 01-.38-.09l-.07-.05-.05-.05-.1-.09v-.08a1 1 0 01-.17-.4 1.14 1.14 0 010-.26 1.33 1.33 0 01.19-.7.85.85 0 01.31-.26h.1s-.03-.03-.02-.03zm-59.84.16l-2.76 6.76-3.25.15a10.18 10.18 0 01-.74-1.91c-.14-.74 0-4.87 0-4.87zm30 1h.39a.42.42 0 01.12 0l.12.07a.82.82 0 01.17.2V202.73a.19.19 0 010 .07s0 .07-.05.1v.07h-.05a.54.54 0 01-.12.09l-.09.05H311.81a.73.73 0 01-.36-.21l-.07-.12v-.14V202.35a.08.08 0 010-.05l.07-.1a.54.54 0 01.12-.09s.07.13.09.13zm-7.62.45l.31.74-2.5 1.34-.75-1.17zm40.41 0l1.45.17-.14.74-1.31-.17zm-37 .17h2.22l.15.88-1.32 1.46zm24 .28h.9l-.16 1.2-.74.57zm6.35.15l.28.88-1.91 1.34-.59-1.77zm-23.14.31l2.05.43-.43 1.17-1.91-.43zm28.44.74l.88 2.5-1.62.72-.29-2.94zm-38.33.14l.6.57-.6 1.48-1.45-.59zm8.26.74h.74l.43 1.62-1 .43zm-2.05.14l1.17.89-.14 1.17-1.91-.15zm27.56.89l-.09 1.75-1-.45zm1.62.59l.74.29v1.46h-1.34z" fill="#50d6cc"/><path d="M352.55 202.26h1.62m1.77-.15l8.4-1.77M353 204.92l2.21-.15m-5 2.21l4.57-.89m.14 1.92s4.13 1 4.87.59" fill="none" stroke="#50d6cc" stroke-linecap="round" stroke-width=".85"/><path d="M245.23 139.91l-1 .17-.14.72-2.54 1.2 2.51.16v1.17l-1.91 1.63-1.48 3.24-.15 3.39-6.35 5.88 7.24 8.4 21.08.46.58-2.22 1.48-1.91.14-4 .74.17.14-.77h-3.82l-.45 2.07 1.17.29-1 1.62-1.62.43.45-8.4 2.06-.58-.15-1.33-4.56-.29.29 10.75-3.82-.15-.17-5 2.36.29v-7.36l-2.19-.31v-1.91l1.76.17-.14-4.44-1.48-.15-.31-2.05h-1.6l-.31 3.1-1.77 1.91-.28 1.32 2.19.31v1.62l-4.1-.31v4.27h-1.34l.14-7.37 2.37-1.75-3.39-.76zm-1.32 14.45l.6 8.09-1.77-.14.15-7.81zM241 156v5.73l-1.6-1.45 1.17-4.13zm9.29 0l1.77.15v6.47h-6.18v-2.77l.88.12-.14.74 3.39-.15zm-12.65 1.46l-.17 1.34-.88-.89z" fill="#50d6cc"/><path d="M339.13 161.28l9-3.69m-10 2.51l11.87-6.33 27-13.56m-1.17-3.69l-38 22.25m33-27.12l-34 25.65m19.45-27.41l-20.34 27.7 29.63-28.88M349 133.86L334 157m6.93-23.29l-8.55 22m4.13-22.26l-5 22.26m.15-22.11l-1.96 21.5m-2.8-21.53l.74 21.53m-6.93-21.38l5.16 20.93m-15-21.08l13.42 21.37-8.7-21.22m-11.06-.15l17.84 22.7m-23.44-22.85l22 24.47m-28.23-24.47l27 25.06m-36.1-25.06l35.81 24.33m-45-24.47l44.37 25.49m-73.11-30.65l72.38 31.54m-78-28.15l76.06 30.66m-79.74-25.5l79.3 26.83m-81.22-22.86L308 161.58m-74.7-15.19l7.81 1.92m30.66 6.79l15.62 4.71m-55.71 4.86l9.58.3M262 165l9 .59" fill="none" stroke="#50d6cc" stroke-width="1.5"/><path d="M239.79 167.76s-1.48-1.17-2.21-1-2.66.74-2.66.74a9 9 0 002.21.73 7.08 7.08 0 002.66-.45M239.88 170.85s-1.47-1.19-2.21-1-2.66.74-2.66.74a8.78 8.78 0 002.21.74 7.38 7.38 0 002.66-.44" fill="#50d6cc" stroke="#50d6cc" stroke-width=".73"/><path d="M244.21 170.86s-1.48-1.18-2.21-1-2.65.74-2.65.74a8.36 8.36 0 002.21.73 6.87 6.87 0 002.65-.44M241 173.51s-1.47-1.18-2.21-1-2.65.73-2.65.73a8.78 8.78 0 002.21.74 7 7 0 002.65-.45" fill="#50d6cc" stroke="#50d6cc" stroke-width=".73"/><path d="M244.23 169.4s-1.48-1.19-2.22-1-2.65.73-2.65.73a8.78 8.78 0 002.21.74 7.17 7.17 0 002.66-.43M249.37 169s-1.48-1.19-2.22-1-2.65.73-2.65.73a8.61 8.61 0 002.21.75 7.3 7.3 0 002.66-.45M249.37 171.46s-1.48-1.19-2.22-1.05-2.65.75-2.65.75a8.78 8.78 0 002.21.74 7.15 7.15 0 002.66-.44M254.67 168.86s-1.47-1.18-2.21-1-2.65.73-2.65.73a9.24 9.24 0 002.21.74 7.08 7.08 0 002.65-.44M248.81 173.25s-1.47-1.17-2.21-1-2.6.75-2.6.75a8.78 8.78 0 002.21.74 7.23 7.23 0 002.65-.45M254.73 173.84s-1.47-1.17-2.21-1-2.66.74-2.66.74a9 9 0 002.21.73 7.08 7.08 0 002.66-.45M252.76 176.47s-1.48-1.18-2.21-1-2.66.72-2.66.72a8.61 8.61 0 002.21.75 7.33 7.33 0 002.66-.44M257.05 170.43s-1.47-1.17-2.21-1-2.65.73-2.65.73a8.51 8.51 0 002.21.73 7.23 7.23 0 002.65-.45M260.42 171.46s-1.47-1.19-2.21-1.05-2.65.75-2.65.75a8.78 8.78 0 002.21.74 7.08 7.08 0 002.65-.44M262.92 169.83s-1.47-1.18-2.21-1-2.65.73-2.65.73a8.51 8.51 0 002.21.73 7.25 7.25 0 002.65-.44M269.41 168.36s-1.47-1.19-2.21-1-2.65.73-2.65.73a9.06 9.06 0 002.21.75 7.23 7.23 0 002.65-.45M268.67 170.86s-1.47-1.18-2.21-1-2.65.74-2.65.74a8.51 8.51 0 002.21.73 6.83 6.83 0 002.65-.44M274 171s-1.47-1.18-2.21-1-2.65.74-2.65.74a9.24 9.24 0 002.21.74A7.23 7.23 0 00274 171M265.14 174.55s-1.48-1.18-2.22-1-2.65.73-2.65.73a8.78 8.78 0 002.21.74 7.1 7.1 0 002.66-.44M269.71 176s-1.48-1.18-2.21-1-2.66.74-2.66.74a8.75 8.75 0 002.22.74 7.23 7.23 0 002.65-.45M277 175.53s-1.47-1.18-2.21-1-2.65.72-2.65.72a8.61 8.61 0 002.21.75 7.3 7.3 0 002.65-.44M259.08 203.88s-1.48-1.18-2.22-1-2.65.74-2.65.74a8.78 8.78 0 002.21.74 7.25 7.25 0 002.66-.45M260 206s-1.47-1.18-2.21-1-2.65.73-2.65.73a8.78 8.78 0 002.21.74A7.3 7.3 0 00260 206M254.67 208.3s-1.47-1.18-2.21-1-2.65.74-2.65.74a8.78 8.78 0 002.21.74 7.23 7.23 0 002.65-.45M261.45 214.64s-1.47-1.18-2.21-1-2.65.74-2.65.74a8.51 8.51 0 002.21.73 6.87 6.87 0 002.65-.44" fill="#50d6cc" stroke="#50d6cc" stroke-width=".73"/><path d="M243.33 200.34l8.54.45-2.06 1.47 3.09-1.92 9-.29" fill="#ffea0f" stroke="#50d6cc" stroke-width="1.69"/><path d="M270.48 219.76s2.95-.59 4.72-.73 2.36.14 4.12 1 .44 1.17.59 2.95-3.83 2.35-7.22 2.65-2.21-2.65-2.06-6.34-.89-3.09-3.84-3.09-7.51 2.5-7.51 2.5l4 2.07-.45 2.65 7.23-.88" fill="none" stroke="#50d6cc" stroke-linecap="round" stroke-width="1.69"/><path d="M351.7 220.65s-4.57-3.69-7.52-4.13-5.16-.45-4.71 2.65a43.63 43.63 0 001 5.06 14.77 14.77 0 013-.19 6.79 6.79 0 013.53.88l.3-3.38zm-75.18-6.49s-1.47 6.19 5.46 5.9 51.74-.15 51.74-.15 3.24-.44 3.09-3.24 1.47-4.86-7.81-5.3-47.91-.45-47.91-.45-4.86-.44-4.57 3.24z" fill="none" stroke="#50d6cc" stroke-width="1.69"/><path d="M332.8 220.24s.09 3.44 2.35 4.42c4.72 2.07 6.78-.14 6.78-.14m-2.8-6.19l-2.5.58" fill="none" stroke="#50d6cc" stroke-linecap="round" stroke-width="1.69"/><path d="M299.7 220.6l1.91 3.22-3.39-1.45-.89 1.31 2.2 2.22-3.68-.6-1.45 3.11 7.21 1.17-.74 5.15-6.64-.59-2.34-6.62-2.22.29 1.48 6.49-8.41-.16 2.37 8h1.62l-1.34-5.61 6.61.47.74 2.79-4-.88.29 2.5 7.09 2.22 1.17 3.54a24.06 24.06 0 006 1.45c3.69.45 13.71-.43 13.71-.43l-.45-3.24a18 18 0 013.1-1.63c2.06-.88 4.27-6.47 4.27-6.47l2.23-.88-2.51-1 3.68-5.32 6.35-.15V228l-6.78-.14-2.51 1.62 1.62-2.65 5.59-.59.14-1.17-6.78-.17-7.81 9.45-1.91-.31.29-5 2.36.6-1-1.48 1.91-.58-1-.88.88-1.62-4.41-.89 2-2.36-1.77-1-2.93 2.51.71-2.51h-5.44l-.29 2.22-.88-2.36h-2.51l-.14 2.05-.74-1.91zm-.6 16.07l.29 1.48-2.65 2.34-1.49-3.68zM284.47 214.07h-1.71v-1h5v1H286v4.11h-1.56v-4.11M288.38 218.18v-5.1H290v2h1.9v-2h1.55v5.1h-1.55v-2.1h-1.91v2.1h-1.56M294.46 218.18v-5.1h4.28v1H296v1.05h2.51v1H296v1.09h2.73v1h-4.28M307.63 213.08v3.23c0 1.41-1.27 2-2.68 2s-2.67-.55-2.68-2v-3.23h1.55v3.16a1.13 1.13 0 002.25 0v-3.16h1.55M308.69 213.08h2.18l1.88 3.79v-3.78h1.39v5.1H312l-1.89-3.91v3.91h-1.4v-5.1M315.15 218.17h1.6v-5.08h-1.6zM317.59 215.63c0-1.68 1.05-2.66 2.91-2.66s2.91 1 2.91 2.66-1.05 2.66-2.91 2.66-2.91-.98-2.91-2.66zm2.91-1.63c-1.06 0-1.27.9-1.27 1.7s.21 1.64 1.27 1.64 1.27-.88 1.27-1.64-.22-1.7-1.27-1.7M324.24 213.08h2.18l1.88 3.79v-3.78h1.4v5.1h-2.16l-1.9-3.91v3.91h-1.4v-5.1" fill="#50d6cc"/><path d="M248.9 314.41h9.62v-33.93h-9.62zM278.23 297.45c-4.13-.58-5.57-3.21-5.57-7.63 0-6.91 5.52-8.85 11.12-8.85 6.08 0 10.69 1.89 10.69 8.85 0 4.18-1.07 7.15-4.76 7.68v.25c4.77.48 7.41 4.5 7.41 9.75 0 8-7.85 8.58-14.27 8.58-5.88 0-12.55-2.45-12.55-9.47 0-5.3 3.07-8.38 7.93-9zm10.77 7.69c0-3.21-2.33-4.62-5.2-4.62s-5.21 1.41-5.21 4.62 2.34 4.62 5.21 4.62 5.2-1.41 5.2-4.62zm-9.73-14.64c0 2.62 1.85 4.18 4.53 4.18s4.52-1.56 4.52-4.18-1.85-4.18-4.52-4.18-4.53 1.55-4.53 4.18M309.8 305.44c.88.59 3.76 2.36 6.19 2.36 3.36 0 4.42-1 4.42-3.84 0-3.1-1.47-5.31-2.94-5.18-1.7.14-6 .78-6.19 2.53l-5.28-2.05 3.33-17.36h18.8v6.32l-11.81-.21-1.18 5.3c.29-.88.58-.29 4.12-.29 6.57 0 10.62 4.05 10.62 10.31 0 7.84-4.7 12.09-12.38 12.09-7.11 0-9.14-2.35-10.62-2.94l2.95-7.08M344.88 308.09c.05 1.12 3.52.47 4.35 1s1.72-.51 2.73-.65c2.06-.3 4.81-1.86 5-6.19-1.9 2.38-4.63 2.17-7.66 1.76-4.43-.59-8.55-4.63-8.55-11.2 0-8.12 4.53-11.64 11.93-11.83 9.88-.25 13.76 8.7 13.42 18.91-.15 4.67-2.18 9.9-4.13 11.8a15.65 15.65 0 01-10.17 4.4 19.71 19.71 0 01-9.58-1.16zm7.66-20.83c-3.26 0-5.26 2-5.26 5.05 0 3.5 2.24 5.06 5.26 5.06a5.06 5.06 0 005.25-5.06c0-3.26-2.09-5.05-5.25-5.05M130.86 53.16l-4.87 4s-2.87-2.88-5.53-2.65-5.51 3.47.45 7.3c6.19 4 7.25 9 7.07 13.05a9.25 9.25 0 01-8.84 8.83c-6.86.23-13.71-4.2-13.71-4.2l4-6.41 7.29 3.1a2.91 2.91 0 002.88-3.76c-.66-3.75-7.39-10.64-9.07-13.71-2.65-4.86 3.32-12.38 7.74-11.94 6.6.66 8.85 1.55 9.95 2.88s2.66 3.53 2.66 3.53M135.5 48.74v8.18l8-.66.22 25.87 8.18-.88-.22-25.65 7.07-1.34-.48-7.26-22.77 1.75M181.93 44.32l-10.61.89-7.52 35.39 8.19-.24 2-5.52L183 74l1.79 3.75 7.29-1.56zm-4.64 10.18l4.42 12.82-7.31 1.1zM193.2 41.88v7.52l9.07-1.1.44 27 9.73-1.54-.22-26.54 6.41-2v-7.75l-25.43 4.41M225.93 36.14l.89 34.05 21.18-3.1-.4-7.09-12.39 1.33.22-5.74 5.57-1.1-.22-6.41-4.86.22-.45-6.86 13-2.42-.66-7.09-21.89 4.21M283.86 30.16c-7.3.31-14.83 4.65-13.94 15.93 1.28 16.34 7.74 20.78 15.26 20.78s13.5-10.16 13.06-19-3.76-18.15-14.38-17.71zm.24 6.64h.43c6.19.23 6.19 7.08 6.19 11.06s-.88 10.83-7.07 10.6-6-6.85-6.64-11.49c-.64-4.48 3.24-9.92 7.09-10.17zM321.44 31.06l-17.9-.45-.22 34.94h8.62V50.74h4l-.22-6.64-4-.22V37l9.95.21-.23-6.18M356.1 33.32c-7.2.14-14.65 4.25-14.21 15.37.64 16.37 6.94 21.06 14.45 21.35s13.85-9.63 13.75-18.48-3-18.27-13.66-18.24zm.26 6.63h.48c6.17.47 5.91 7.32 5.75 11.29s-1.31 10.79-7.49 10.32-5.68-7.08-6.17-11.75c-.45-4.46 3.59-9.71 7.43-9.81zM377.25 35.85a8 8 0 00-1.19.07l-.88 37.13 7.07 1.34.45-8.39 12.15 11.27 1.32-7.73-6.17-6.42s8.63-4.66 8.41-10-1.55-11.72-9.29-14.81a31.9 31.9 0 00-11.87-2.46zm7.69 9.5a8.93 8.93 0 013.94.74c2.88 1.33 2 6.63 1.1 9.29s-7.73 3.08-7.73 3.08l.45-12.82a10.93 10.93 0 012.24-.29zM406.57 43l-2.21 34.27 18.35 4 .44-7.52-9.73-3.09.22-5.54h5.09l.22-7.29-4.64-.89V51l8.84 1.1.44-6.63-17-2.43M453.44 57.14l-5.3 4s-3.1-5.74-8.62-2.66-5.53 8.85-4.65 12.83 2 7.89 5.75 8.41c6.41.88 4.87-3.1 4.87-3.1l-4-.44-.23-7.3 11.94.67s.42 12.9-2.65 15.26c-3.76 2.87-12.49 5.19-17.91-.23-4.64-4.65-6.37-11.12-5.52-18.12.53-4.42 2.65-11.73 6.85-13.94s9.28-2.87 11.94-1.76 7.51 6.41 7.51 6.41M472.51 54c-7.31.3-14.81 4.66-13.92 15.93 1.28 16.34 7.74 20.77 15.26 20.77s13.47-10.15 13-19-3.73-18.1-14.34-17.7zm.28 6.64h.39c6.19.23 6.18 7.07 6.18 11.06s-.88 10.82-7.07 10.6-6-6.84-6.64-11.49c-.65-4.46 3.28-9.92 7.14-10.13zM492.36 55.38l.44 34.27 7.52-.23.22-14.58 9.72 13.26h8.4l-1.1-34.94-7.74.67.88 18.17-12.82-16.8-5.52.23M223.18 161.57l1.49 2.35 2.34.3-1.57 2.08.38 2.63-2.4-1.17-2.61.88.6-2.33-1.63-2.09 2.4-.3 1-2.35M223.13 151.26l1.5 2.36 2.33.29-1.56 2.09.38 2.63-2.4-1.16-2.61.88.59-2.34-1.62-2.09 2.39-.29 1-2.36M226.23 139.77l1.2 2.52 2.28.57-1.8 1.88.06 2.66-2.25-1.4-2.69.54.87-2.25-1.35-2.29H225l1.27-2.22M229.94 129.16l1.2 2.53 2.28.57-1.8 1.88v2.66l-2.24-1.45-2.7.55.88-2.26-1.36-2.26h2.41l1.28-2.22M223.89 171.46l1.53 2.35 2.34.25-1.54 2.1.43 2.64-2.43-1.14-2.59.92.56-2.35-1.66-2.06 2.4-.33 1-2.38M225.16 182.08l1.53 2.34 2.34.27-1.54 2.1.42 2.63-2.42-1.14-2.59.91.55-2.34-1.65-2.06 2.39-.32 1-2.39M228.67 191.83l1.64 2.26 2.35.16-1.44 2.17.55 2.6-2.47-1-2.55 1 .44-2.38-1.75-2 2.38-.42.85-2.43M232.11 200.72l1.64 2.26 2.34.15-1.43 2.18.55 2.6-2.47-1-2.55 1 .44-2.38-1.75-2 2.37-.44.86-2.42M237.41 210l1.64 2.27 2.35.15-1.4 2.17.54 2.6-2.47-1-2.55 1 .45-2.37-1.75-2 2.37-.44.85-2.42M243.16 218.85l1.64 2.27 2.35.14-1.43 2.18.54 2.6-2.47-1-2.55 1 .45-2.37-1.75-2 2.37-.44.85-2.42M249.65 226.81l1.64 2.27 2.35.14-1.44 2.18.55 2.6-2.47-1-2.55 1 .44-2.38-1.75-2 2.37-.44.86-2.42M257.75 234.33l1.64 2.26 2.35.15-1.43 2.17.54 2.61-2.46-1-2.56 1 .45-2.37-1.75-2 2.38-.44.84-2.41M266.9 240.06l1.44 2.39 2.33.34-1.61 2.05.33 2.64-2.39-1.22-2.63.82.64-2.33-1.57-2.12 2.4-.23 1-2.34M275.07 246l1.45 2.39 2.33.35-1.61 2 .32 2.65-2.38-1.22-2.62.81.64-2.33-1.57-2.11 2.39-.24 1.05-2.34M284.36 251.32l1.45 2.39 2.32.34-1.61 2.05.33 2.64-2.38-1.21-2.62.8.64-2.32-1.58-2.12 2.4-.23 1-2.34M295.41 254.56l1.45 2.39 2.33.35-1.61 2.05.32 2.64-2.37-1.22-2.63.81.64-2.33-1.54-2.12 2.41-.23 1-2.34M306.76 256.62l1.45 2.4 2.33.34-1.61 2 .32 2.64-2.37-1.21-2.63.81.64-2.32-1.57-2.12 2.39-.23 1.05-2.35M389.83 162.45l-1.5 2.36-2.33.3 1.56 2.07-.38 2.63 2.4-1.16 2.61.87-.59-2.34 1.62-2.07-2.39-.3-1-2.35M389.88 152.14l-1.5 2.37-2.34.29 1.57 2.08-.39 2.63 2.4-1.16 2.61.86-.58-2.33 1.61-2.08-2.39-.29-1-2.36M386.77 140.64l-1.2 2.54-2.28.57 1.81 1.87-.06 2.67 2.24-1.46 2.7.55-.87-2.25 1.35-2.27h-2.41l-1.28-2.23M383.06 130.05l-1.19 2.52-2.29.58 1.81 1.88-.05 2.65 2.23-1.45 2.7.55-.87-2.25 1.35-2.27h-2.41l-1.28-2.22M389.12 172.35l-1.54 2.34-2.33.26 1.53 2.1-.42 2.64 2.42-1.14 2.6.9-.56-2.34 1.65-2.06-2.39-.32-1-2.38M387.85 183l-1.53 2.34-2.34.26 1.54 2.1-.43 2.63 2.42-1.13 2.6.91-.56-2.34 1.65-2.07-2.39-.32-1-2.38M384.34 192.71L382.7 195l-2.35.14 1.43 2.18-.54 2.6 2.47-1 2.55 1-.45-2.37 1.75-2-2.37-.44-.85-2.42M380.9 201.6l-1.64 2.27-2.35.14 1.44 2.18-.55 2.6 2.47-1 2.55 1-.44-2.37 1.74-2-2.37-.44-.85-2.42M375.6 210.89l-1.6 2.27-2.34.15 1.43 2.16-.55 2.61 2.47-1 2.55 1-.44-2.36 1.74-2-2.37-.44-.84-2.42M369.85 219.74L368.2 222l-2.34.15 1.43 2.17-.54 2.61 2.46-1 2.55 1-.44-2.37 1.74-2-2.37-.43-.84-2.42M363.36 227.7l-1.64 2.3-2.35.14 1.43 2.18-.54 2.59 2.47-1 2.55 1-.45-2.38 1.75-2-2.37-.45-.85-2.41M355.25 235.21l-1.64 2.27-2.35.15 1.44 2.17-.55 2.6 2.47-1 2.55 1-.45-2.37 1.75-2-2.37-.44-.85-2.42M346.11 240.94l-1.45 2.4-2.33.34 1.61 2-.32 2.64 2.37-1.21 2.63.81-.64-2.32 1.57-2.12-2.39-.24-1.05-2.34M337.93 246.89l-1.44 2.4-2.33.34 1.61 2.05-.33 2.64 2.38-1.21 2.63.81-.64-2.33 1.57-2.12-2.4-.23-1.05-2.34M328.65 252.2l-1.45 2.4-2.33.34 1.61 2-.32 2.65 2.37-1.22 2.63.81-.64-2.32 1.58-2.12-2.4-.24-1.05-2.33M317.59 255.44l-1.45 2.4-2.32.34 1.61 2.05-.33 2.64 2.38-1.22 2.63.81-.65-2.33L321 258l-2.4-.24-1.05-2.34" fill="#fff" stroke="#50d6cc" stroke-linecap="round" stroke-linejoin="round"/><path d="M296.54 180.3s-2.07-3.69-2.21-5.16.73-4.57 2.79-2.5 2.66 3.38 2.51 4.27a18.27 18.27 0 00-.15 2.35m2.21-7.07s2.21 5.61 3.1 7.81a22.94 22.94 0 011.18 5.16m3.1-.74l-.89-8.54m10.32 10.75l.44-7.66m9 4.28l.44-4.72m7.52 6.63l.89-7.52m7.81 8.85l2.36-6.93m-39.51 6.93a15.16 15.16 0 013.24.89c.74.43 1.77.58 1.77 1.32v2.2m0-2.2s.15-1.62 2.21-1.48 3.4 0 3.54 1.77.15 2.36.15 2.36m1.92-.14s-.6-3.1 1.62-3.1 4.42.15 4.57 1.18.29 2.06.29 2.06m5.75 0s0-3.24 2.21-3.09m7.37-.88s-2.8.43-2.65 1.91a5 5 0 00.44 1.92m4.27-.31s.74-2.49 1.77-2.79 2.36-.59 2.36-.59m-47.61.29l2.66-1.18m-1.92 2.68l2.65-1.18m-2.25 2.49l2.66-1.18m-1.77 2.5l2.65-1.18m-2.21 2.49l2.65-1.17m-48.31-4a50.45 50.45 0 016.34-1.32c1.33 0 2.65.87 3.1.73s2.06-.59 3.24-.89 9.13.59 9.13.59m9.15.3l-1.92.14m-19 1.63s-1.48.59-1.18 1.33.74 1.92.44 2.35-1.47 1.62-.59 2.07a7.07 7.07 0 001.62.58m1-2.35s-.45-2.06.58-2.36a5.78 5.78 0 012.07-.15m2.21 3.54l1.76 5m25.41 42.81l-1.61 2.35m6.18 1.62l.89-1.62m3.39 2.21l.44-1.62m-6.34-10.47h6.64m4 2.66l-3.54 5.31h4.86" fill="none" stroke="#fff" stroke-linecap="round" stroke-width=".85"/><path fill="none" stroke="#a3a3a3" stroke-linecap="round" stroke-linejoin="round" stroke-dasharray="5 5" d="M19.78 1.46H3.68v157.7M17.95 345.35H3.68V190.87"/><path d="M4.83 175.85a2.85 2.85 0 011.82 2.73 3.09 3.09 0 01-3.26 3.1 3.73 3.73 0 01-2.79-1.21l.9-1.07c.15.16.07.32.22.48a2.26 2.26 0 001.66.72 2.13 2.13 0 002.13-2.16c0-1.26-1.06-2-2.49-2a3.27 3.27 0 00-.54 0v-1a4.06 4.06 0 001.67-.26 1.87 1.87 0 001.13-1.67 1.71 1.71 0 00-1.84-1.65 2.51 2.51 0 00-1.82.81L1 172a3.46 3.46 0 012.55-1.14 2.78 2.78 0 012.91 2.69 2.43 2.43 0 01-1.63 2.3zM310 362.67v1.07h-4.37l-.16 3.05a3.93 3.93 0 011.73-.41c1.77 0 3.2 1.27 3.2 3.54a3.26 3.26 0 01-3.35 3.54 3.77 3.77 0 01-3.13-1.63l1-.79c.15.1.06.27.13.4a2.56 2.56 0 001.94 1 2.55 2.55 0 000-5 2.55 2.55 0 00-2 1l-.76-.31.36-5.39z"/><path fill="none" stroke="#a3a3a3" stroke-linecap="round" stroke-linejoin="round" stroke-dasharray="5 5" d="M25.93 354.16v15.02h269.63M598.59 354.16v15.02H321.25"/></svg>