<svg xmlns="http://www.w3.org/2000/svg" width="600" height="315.79"><path fill="#bf0a30" d="M0 0h600v315.79H0z"/><path fill="#fff" d="M0 24.29h600v24.29H0zM0 72.87h600v24.29H0zM0 121.46h600v24.29H0zM0 170.04h600v24.29H0zM0 218.62h600v24.29H0zM0 267.21h600v24.29H0z"/><path fill="#002664" d="M0 0h193.19v170.04H0z"/><path fill="#fff" d="M81.33 87.44h11.66l3.61 11.09 3.6-11.09 11.66-.01-9.44-6.85 3.6-11.09-9.43 6.86-9.44-6.85 3.61 11.09-9.43 6.85zM53.09 36.56l3.39 5.91.73-6.77 6.67-1.39-6.21-2.79.73-6.78-4.57 5.05L47.61 27 51 32.91l-4.58 5.04 6.67-1.39zM71.71 21.15l-3.13 6.05 6.08-3.06 4.79 4.85-1.02-6.73 6.09-3.06-6.72-1.11-1.03-6.73-3.13 6.05-6.72-1.11 4.79 4.85zM94 18.31l-2.07 6.49 5.5-4 5.52 4-2.12-6.47 5.49-4h-6.81l-2.12-6.51-2.09 6.48h-6.81zM97.35 49.84l2.12-6.47h6.82l-5.5-4 2.12-6.47-5.52 4-5.5-4L94 39.35l-5.52 4h6.81zM80.64 52.86l-4.75-4.88 3.18-6.03-6.11 3.01-4.75-4.89.97 6.74-6.11 3.01 6.71 1.16.97 6.74 3.18-6.02 6.71 1.16zM59 64.2l-3.93-5.56-.09 6.81-6.5 2.02 6.45 2.19-.09 6.81 4.07-5.45 6.46 2.18-3.94-5.56 4.08-5.46L59 64.2zM54 94.42l4.08 5.46-.09-6.81 6.45-2.19-6.51-2.02-.08-6.81-3.94 5.56-6.5-2.02 4.07 5.46-3.93 5.56L54 94.42zM65.83 107.83l-3.65-5.75-.43 6.8-6.6 1.69 6.33 2.51-.43 6.8 4.35-5.25 6.33 2.51-3.65-5.75 4.34-5.25-6.59 1.69zM87.89 126.38l6.81-.32-5.7-3.75 1.8-6.57-5.32 4.26-5.69-3.74 2.41 6.37-5.32 4.26 6.81-.32 2.4 6.38 1.8-6.57zM111.15 119.62l-2.34-6.4-1.87 6.55-6.81.24 5.65 3.81-1.87 6.55 5.37-4.2 5.65 3.8-2.34-6.39 5.37-4.2-6.81.24zM131.58 108.13l-3.33-5.94-.8 6.77-6.68 1.33 6.19 2.85-.79 6.76 4.62-5 6.18 2.84-3.33-5.94 4.62-5-6.68 1.33zM142.07 97.85l.61-6.78 6.65-1.51-6.27-2.69.62-6.78-4.49 5.13-6.26-2.69 3.49 5.85-4.49 5.13 6.65-1.51 3.49 5.85zM136.24 62.76l-4-5.54s0 3.16-.06 6.81l-6.5 2 6.46 2.16c0 3.66-.05 6.81-.05 6.81l4.05-5.47 6.46 2.16-4-5.55 4.05-5.47zM122.27 56.1l.56-6.79 6.63-1.57-6.28-2.63.56-6.78-4.44 5.16-6.29-2.64 3.54 5.83-4.44 5.16 6.63-1.56 3.53 5.82zM101.62 149.25l1.95-6.53-5.42 4.13-5.6-3.87 2.26 6.43-5.42 4.12 6.81-.15 2.25 6.43 1.96-6.53 6.81-.15-5.6-3.88zM116.96 21.53l-3.05 6.09 6.04-3.13 4.86 4.78-1.12-6.72 6.05-3.14L123 18.4l-1.11-6.72-3.05 6.09-6.73-1.02 4.85 4.78zM35.55 51.24l-3.5 5.85 6.26-2.68 4.48 5.14-.6-6.79 6.26-2.67-6.64-1.52-.6-6.79-3.5 5.85-6.64-1.52 4.48 5.13zM35.74 71.72l2.03-6.5-5.46 4.07-5.56-3.94 2.18 6.45-5.46 4.07 6.81-.08 2.18 6.46 2.03-6.51 6.81-.08-5.56-3.94zM31.36 91l-3.88-5.6-.15 6.81-6.53 2 6.43 2.26-.15 6.81 4.13-5.42 6.42 2.14-3.87-5.6 4.13-5.4zM38.64 119.11l6.49 2.09-4.02-5.5 3.99-5.52-6.48 2.12-4.02-5.5.02 6.81-6.47 2.13 6.48 2.08.02 6.82 3.99-5.53zM55.56 132.51l1.59-6.63-5.18 4.43-5.81-3.55 2.61 6.29-5.17 4.43 6.79-.54 2.62 6.29 1.58-6.63 6.79-.54-5.82-3.55zM22.49 147.83l-1.8-6.57-2.41 6.37-6.8-.32 5.31 4.26-2.41 6.37 5.7-3.74 5.31 4.26-1.79-6.57 5.69-3.74zM177.12 153.42l4.59-5.04-6.67 1.38-3.36-5.93-.76 6.77-6.67 1.37 6.2 2.82-.76 6.77 4.59-5.03 6.21 2.81-3.37-5.92zM171 19.74l.66 6.78 3.45-5.87 6.65 1.47-4.57-5.12 3.46-5.88-6.25 2.73-4.52-5.1.66 6.78-6.24 2.72zM19.92 19.31l3.46 5.87.66-6.78 6.65-1.47-6.25-2.72.66-6.78-4.52 5.1-6.24-2.72 3.45 5.87-4.52 5.1 6.65-1.47zM77.12 145.56l3.18-6.03-6.12 3.01-4.75-4.88.98 6.75-6.11 3 6.71 1.16.97 6.74 3.18-6.02 6.71 1.15-4.75-4.88zM138.87 35.62l1.3 6.69 2.88-6.18 6.76.84-4.97-4.65 2.88-6.17-5.96 3.3-4.98-4.65 1.29 6.68-5.96 3.3 6.76.84zM153.06 51l-4.76 4.88 6.7-1.18 3.17 6s.45-3.12 1-6.74l6.72-1.14-6.11-3c.53-3.62 1-6.74 1-6.74L156 48l-6.1-3zM163.38 61.79zM165.58 68.24l-2.2-6.45-2.01 6.51-6.82.09 5.57 3.93-2.01 6.51 5.45-4.08 5.57 3.92-2.2-6.45 5.46-4.08-6.81.1zM171.98 91.57l-6.79.6-2.67-6.26-1.52 6.64-6.79.6 5.85 3.5-1.52 6.64 5.13-4.48 5.85 3.5-2.68-6.26 5.14-4.48zM169.52 102.31zM157.34 115.18l-2.64-6.28-1.55 6.64-6.79.57 5.83 3.53-1.56 6.63 5.16-4.45 5.83 3.52-2.64-6.28 5.15-4.45-6.79.57zM143.52 134.25l2.99-6.13-6.02 3.2-4.9-4.73 1.19 6.71-6.02 3.2 6.75.94 1.18 6.71 2.99-6.12 6.74.95-4.9-4.73zM124.27 145l2.06-6.49-5.48 4.04-5.54-3.97 2.15 6.47-5.48 4.04 6.81-.05 2.15 6.47 2.06-6.49 6.81-.05-5.54-3.97z"/></svg>