<svg xmlns="http://www.w3.org/2000/svg" width="600" height="315.79"><path fill="#bf0a30" d="M0 0h600v315.79H0z"/><path fill="#fff" d="M0 24.29h600v24.29H0zM0 72.87h600v24.29H0zM0 121.46h600v24.29H0zM0 170.04h600v24.29H0zM0 218.62h600v24.29H0zM0 267.21h600v24.29H0z"/><path d="M0 170.08h240V0H0z" fill="#002868" fill-rule="evenodd"/><path d="M220.68 31.58l-5.75-4.19-5.76 4.19 2.2-6.77-5.76-4.18h7.12l2.2-6.77 2.2 6.77h7.11l-5.76 4.18zM189 31.58l-5.76-4.19-5.75 4.19 2.19-6.77-5.68-4.18h7.11l2.2-6.77 2.2 6.77h7.11l-5.75 4.18zM157.39 31.58l-5.75-4.19-5.76 4.19 2.2-6.77-5.76-4.18h7.12l2.2-6.77 2.19 6.77H161l-5.76 4.18zM125.75 31.58L120 27.39l-5.75 4.19 2.19-6.77-5.75-4.18h7.11l2.2-6.77 2.2 6.77h7.11l-5.75 4.18zM94.1 31.58l-5.76-4.19-5.75 4.19 2.2-6.77L79 20.63h7.12l2.19-6.77 2.2 6.77h7.12l-5.73 4.18zM62.45 31.58l-5.75-4.19-5.76 4.19 2.2-6.77-5.75-4.18h7.11l2.2-6.77 2.2 6.77H66l-5.75 4.18zM30.81 31.58l-5.76-4.19-5.75 4.19 2.2-6.77-5.76-4.18h7.12l2.19-6.77 2.2 6.77h7.12l-5.76 4.18zM189 62.74l-5.76-4.19-5.75 4.19 2.23-6.74-5.72-4.21h7.11l2.2-6.77 2.2 6.77h7.11L186.84 56zM157.39 62.74l-5.75-4.19-5.76 4.19 2.2-6.77-5.76-4.18h7.12l2.2-6.77 2.19 6.77H161L155.19 56zM125.75 62.74L120 58.55l-5.75 4.19 2.18-6.74-5.75-4.18h7.11L120 45l2.2 6.77h7.11L123.55 56zM94.1 62.74l-5.76-4.19-5.75 4.19 2.2-6.74L79 51.79h7.12L88.34 45l2.2 6.77h7.12L91.9 56zM62.45 62.74l-5.75-4.19-5.76 4.19 2.2-6.74-5.75-4.18h7.11L56.7 45l2.2 6.77H66L60.26 56zM204.86 93.9l-5.76-4.18-5.75 4.18 2.2-6.77-5.76-4.13h7.12l2.19-6.77 2.2 6.77h7.12l-5.76 4.18zM173.21 93.9l-5.75-4.18-5.76 4.18 2.2-6.77-5.75-4.13h7.11l2.2-6.77 2.2 6.77h7.11L171 87.13zM141.57 93.9l-5.76-4.18-5.75 4.18 2.2-6.77L126.5 83h7.11l2.2-6.77L138 83h7.12l-5.76 4.18zM109.92 93.9l-5.75-4.18-5.76 4.18 2.2-6.77L94.85 83H102l2.2-6.77 2.2 6.77h7.11l-5.75 4.18zM78.28 93.9l-5.76-4.18-5.75 4.18L69 87.13 63.21 83h7.11l2.2-6.77 2.2 6.77h7.12l-5.76 4.18zM46.63 93.9l-5.75-4.18-5.76 4.18 2.2-6.77L31.56 83h7.12l2.2-6.77 2.2 6.77h7.11l-5.76 4.18zM204.86 125.06l-5.76-4.18-5.75 4.18 2.2-6.77-5.76-4.18h7.12l2.19-6.76 2.2 6.76h7.12l-5.76 4.18zM173.21 125.06l-5.75-4.18-5.76 4.18 2.2-6.77-5.75-4.18h7.11l2.2-6.76 2.2 6.76h7.11l-5.77 4.18zM141.57 125.06l-5.76-4.18-5.75 4.18 2.2-6.77-5.76-4.18h7.11l2.2-6.76 2.2 6.76h7.12l-5.76 4.18zM109.92 125.06l-5.75-4.18-5.76 4.18 2.2-6.77-5.76-4.18H102l2.2-6.76 2.2 6.76h7.11l-5.75 4.18zM78.28 125.06l-5.76-4.18-5.75 4.18 2.23-6.77-5.75-4.18h7.11l2.2-6.76 2.2 6.76h7.12l-5.76 4.18zM46.63 125.06l-5.75-4.18-5.76 4.18 2.2-6.77-5.76-4.18h7.12l2.2-6.76 2.2 6.76h7.11l-5.76 4.18zM220.68 156.22l-5.75-4.22-5.76 4.18 2.2-6.77-5.76-4.18h7.12l2.2-6.76 2.2 6.76h7.11l-5.76 4.18zM189 156.22l-5.72-4.22-5.75 4.18 2.19-6.77-5.72-4.14h7.11l2.2-6.76 2.2 6.76h7.11l-5.75 4.18zM157.39 156.22l-5.75-4.22-5.76 4.18 2.2-6.77-5.76-4.18h7.12l2.2-6.76 2.19 6.76H161l-5.76 4.18zM125.75 156.22L120 152l-5.75 4.18 2.19-6.77-5.75-4.18h7.11l2.2-6.76 2.2 6.76h7.11l-5.75 4.18zM94.1 156.22L88.34 152l-5.75 4.18 2.2-6.77-5.79-4.14h7.12l2.19-6.76 2.2 6.76h7.12l-5.76 4.18zM62.45 156.22L56.7 152l-5.76 4.18 2.2-6.77-5.75-4.18h7.11l2.2-6.76 2.2 6.76H66l-5.75 4.18zM30.81 156.22L25.05 152l-5.75 4.18 2.2-6.77-5.76-4.18h7.12l2.19-6.76 2.2 6.76h7.12l-5.76 4.18z" fill="#fff" fill-rule="evenodd"/></svg>