<svg xmlns="http://www.w3.org/2000/svg" width="300" height="300" viewBox="0 0 300 300"><path d="M97.49 86.15s17.78 30.51 53.93 30.09c35.71-.41 53.92-29 53.92-29l9.53 14.11s3.51 4.77-3.32 10.79c-24.13 21.26-43.25 25.44-60.13 25.32q-37.42-2.11-60.34-25.37a7 7 0 01-2.49-7.78z" fill="#fff" stroke="#000" stroke-miterlimit="3.86" stroke-width="2" fill-rule="evenodd"/><path d="M88.23 107.47s-1.09-6.17 8.64-1.19l.73-20M215.54 103.27c-3.11-6.69-8.8 1.51-8.8 1.51l-1.43-17.49" fill="none" stroke="#000" stroke-miterlimit="3.86" stroke-width="2"/><path d="M14.28 176.39A16.05 16.05 0 003 173.49s4.19-5.58 10.87-2.8c4.24 1.76 7.86 8.3 18.63 1.45s14.94-10.31 24.42-13.49c9.75-3.27 17.39-3.94 19.67-4.77s5.84-2.13 7.66-13.07c.41-2.49 10.35 20.75 10.35 20.75s-1.45 7.67-11 12-26 7-35.19 14.32c-3.11 2.49-9.07 6.8-12.68 12.09-8.49 12.45-17.34 13.85-17.34 13.85s8-7 10.25-16.5c.41-1.76-.26-9.7 2.9-12.86-3.36 3.36-11.86-3.27-10.77-2.39 0 0-1-1.76-6.52-5.71zM219.73 141s1.66 9.44 20.19 14.21 21.42 10.79 24.42 12.24 10.8 7 19.15 4.26c3.29-1.1 12.48-3.64 13.23-3.07.28.47-2.63 5.34-3 5.76-6.15 7.29-8.49 8.41-10.77 9.55-5 2.49-5.35 2.79-8.9 3a21.33 21.33 0 013.83 10.89c.52 6.75 9.52 13.59 9.52 13.59s-12-3.11-17.28-10.27A58.13 58.13 0 00253 186.35c-3.21-1.56-19.56-7.16-23-8.51s-14.08-7-15.52-16 5.25-20.84 5.25-20.84z" fill="#fff" stroke="#000" stroke-miterlimit="3.86" stroke-width="2" fill-rule="evenodd"/><path d="M44.08 148.27c-12.58-4.93-8.69-8.27-8.69-8.27 3.09-5.53 7.14-12.48 22.47-18.38 20.49-7.88 41.4-4.35 35.81 4.78-3.4 5.55-9.27 15.25-9.27 15.25s-2.43-6.54-13.61-2.39-14.62 5.91-15.29 8.11c-1 3.42-.62 5.6 7.45 4.35-5.27 1.77-11.16-.07-17.76-3zM235.72 139a32.05 32.05 0 018.63 4.2c11.4 8.19 9.3 15.33 6.14 15.51-3.52.21 22.34-.51 25.45-2.17s4.14-3.53 2.27-7.47-15.94-28-38.91-32.58-32.09 5.12-30.12 8.4c1.86 3.11 10.35 13.49 10.66 17.74 2.35-4.45 7.66-5.72 15.88-3.63z" fill="#fff" stroke="#000" stroke-miterlimit="3.86" stroke-width="2"/><path d="M224.71 134.5l-4.43-6.37 1.15 6.92-1.78.3-2-12.06 1.91-.32 5.76 8.06 2.9-9.51 1.68-.29 2 12.07-2.36.39-1.15-6.92-2.39 7.51zM243 129.88a6.56 6.56 0 01-2.16 4.07 4.67 4.67 0 01-6.74-1.38 6.54 6.54 0 01-.41-4.55l.13-.68a7.26 7.26 0 012.06-4 4.17 4.17 0 013.86-.92 4 4 0 013.08 2.36 7.29 7.29 0 01.31 4.47zm-2.54-.68l.07-.33a11.09 11.09 0 00.3-3.36 1.62 1.62 0 00-1.5-1.42 1.68 1.68 0 00-1.87.61 10 10 0 00-1.09 3.32l-.06.3a10.22 10.22 0 00-.32 3.46c.12.67.62 1.09 1.52 1.27a1.68 1.68 0 001.79-.67 8.06 8.06 0 001.16-3.18zM252.83 135.17a7.23 7.23 0 01-3.09 3.35 3.94 3.94 0 01-3.59-.31l-3.73-2 5.82-10.74 3.35 1.82a4.24 4.24 0 012.52 3.17 7.23 7.23 0 01-1.05 4.32zm-2.27-1.33l.15-.29a5.85 5.85 0 00.89-3 2 2 0 00-1.08-1.8l-.86-.46-4.08 7.54 1 .57a1.87 1.87 0 001.88.06 6.67 6.67 0 002.05-2.61zM259.47 135.68l-2.29 2.32 2.46 2.42-1.3 1.32-2.46-2.42-2.41 2.46 3.39 3.34-1.27 1.3-5.26-5.18 8.55-8.72 5 5-1.27 1.31zM260.69 155l-1.31-2.23a12.68 12.68 0 003.36-2.6 1.71 1.71 0 00.29-2l-.32-.53-4.71 2.77-1.32-2.25 10.5-6.16 2.31 3.94a3 3 0 01.54 2.43 2.65 2.65 0 01-1.25 1.55l-.57.34a2.3 2.3 0 01-1.75.32 2.78 2.78 0 01-1.57-1.19 3.31 3.31 0 01-.6 2.74 11.25 11.25 0 01-3.6 2.93zm6-6.9l.28-.17a1.37 1.37 0 00.77-.92 1.8 1.8 0 00-.3-1.19l-.44-.74-2.78 1.64.36.61a2 2 0 001 1 1.37 1.37 0 001.11-.22zM227.69 170.11l-2.17-1.58 1-2.87-3.09-2.26-2.43 1.86-1.69-1.26 10.33-7.6 2 1.44zm-.55-6.21l1.49-4.48-3.72 2.85zM241.27 165l-2.27-1.08-4.55 9.35-2.34-1.14 4.55-9.36-2.32-1.13.79-1.64 6.93 3.39zM246.87 165.27l-4.77 11.26-2.4-1 4.76-11.26zM256.11 176.45a6.55 6.55 0 01-3 3.5 4.66 4.66 0 01-6.29-2.81 6.51 6.51 0 01.58-4.53l.28-.64a7.16 7.16 0 012.88-3.46 4.16 4.16 0 014-.07 4 4 0 012.5 3 7.3 7.3 0 01-.66 4.43zm-2.33-1.22l.14-.31a11.12 11.12 0 001-3.21 1.65 1.65 0 00-1.16-1.72 1.67 1.67 0 00-2 .2 9.81 9.81 0 00-1.78 3l-.13.28a10.82 10.82 0 00-1.06 3.31c0 .68.38 1.2 1.21 1.57a1.69 1.69 0 001.9-.26 8.1 8.1 0 001.82-2.86zM264.26 181.6l3.61-6.27 1.61.93-6.1 10.59-1-.56-1.19-9.56-3.83 6.66-1.61-.94 6.1-10.59 1.21.7zM55.88 141.09l-1.62 1-9-8.83 2.26-1.37 5.71 5.61-2-7.83 1.58-1 6 5.45-2.36-7.62 1.81-1.09 3.53 12.14-1.62 1-6.25-5.55zM64.91 123.78l3.57 11.69-2.5.77-3.57-11.7zM78.94 130a3.4 3.4 0 01-.82 3 5.6 5.6 0 01-3.26 1.39 12 12 0 01-2.11.14 7 7 0 01-1.46-.18L71 132.3a4.63 4.63 0 001.43.33 7.21 7.21 0 001.86 0A3 3 0 0076 132a1.36 1.36 0 00.32-1.24 1.44 1.44 0 00-.47-.89 6.21 6.21 0 00-2.1-.81 5.34 5.34 0 01-2.21-1.06 3.61 3.61 0 01-1-2.22 3 3 0 01.8-2.51 4.72 4.72 0 013-1.41 8.17 8.17 0 011.75-.07 7.32 7.32 0 011.13.13l.26 1.85-1.34-.12a7.5 7.5 0 00-1.4.07 2.56 2.56 0 00-1.44.55 1 1 0 00-.34.9 1.31 1.31 0 00.48.93 8.38 8.38 0 002.14.69 4.7 4.7 0 012.42 1.15 3.64 3.64 0 011 2.08zM116.69 121.7a3 3 0 01-1.64 1.52 3.07 3.07 0 01-2.5-.32 6.89 6.89 0 01-1.27-.8 3.15 3.15 0 01-.67-.73l.85-1.67a5.42 5.42 0 00.59.59 4.19 4.19 0 00.84.55 1.24 1.24 0 00.86.13 1.09 1.09 0 00.72-.66l4.15-8.17 2.33 1.19zM130 126.59a3.62 3.62 0 01-1.91 2.17 4.23 4.23 0 01-5.74-5.61l3-7.69 2.43.94-3.06 8a2.31 2.31 0 00-.14 1.56 1.87 1.87 0 001.21 1 2 2 0 001.5.1 2.12 2.12 0 001-1.32l3-7.94 1.81.69zM142.85 129.23a3.36 3.36 0 01-1.56 2.7 5.59 5.59 0 01-3.51.5 12.32 12.32 0 01-2.08-.41 6.91 6.91 0 01-1.36-.56l.26-2.09a5 5 0 001.3.69 7.45 7.45 0 001.8.46 3.1 3.1 0 001.78-.14 1.36 1.36 0 00.62-1.12 1.42 1.42 0 00-.22-1 6.48 6.48 0 00-1.82-1.33 5.09 5.09 0 01-1.81-1.63 3.56 3.56 0 01-.42-2.4 3 3 0 011.42-2.23 4.73 4.73 0 013.25-.58 8.65 8.65 0 011.71.38 6 6 0 011.06.43l-.23 1.85c-.42-.17-.84-.32-1.26-.46a7.22 7.22 0 00-1.37-.3 2.58 2.58 0 00-1.53.15 1 1 0 00-.57.79 1.33 1.33 0 00.23 1 7.82 7.82 0 001.89 1.22 4.71 4.71 0 012 1.78 3.57 3.57 0 01.39 2.26zM154.88 123.15h-2.52l-.18 10.4h-2.61l.18-10.41h-2.58v-1.83l7.71.14zM162 120.65l1.48 12.14-2.59.32-1.48-12.11zM176.61 129.15a3.32 3.32 0 01-.83.63 6.85 6.85 0 01-1.51.65 5.11 5.11 0 01-4.11-.34 6.26 6.26 0 01-2.72-3.86l-.14-.47a6.36 6.36 0 01.14-4.67 4.93 4.93 0 013.12-2.71 9.09 9.09 0 011.59-.36 3.71 3.71 0 011.06 0l.57 1.86a4 4 0 00-1 0 5.31 5.31 0 00-1.3.24 2.56 2.56 0 00-1.78 1.76 5.58 5.58 0 00.18 3.29l.05.17a5.56 5.56 0 001.65 2.87 2.35 2.35 0 002.24.41 5.08 5.08 0 001.36-.61 7.8 7.8 0 00.84-.61zM180.22 116.19l1.49 2.93 3.07-1.57.84 1.64-3.07 1.57 1.56 3.08 4.24-2.16.82 1.62-6.56 3.35-5.54-10.89 6.28-3.21.83 1.62zM51.6 174.43a7.13 7.13 0 011.16 4.4 4 4 0 01-2.19 2.87l-3.72 2.06-5.91-10.7 3.33-1.85a4.29 4.29 0 014-.43 7.24 7.24 0 013.09 3.22zm-2.34 1.2l-.16-.29A5.82 5.82 0 0047 173a2 2 0 00-2.09-.05l-.85.47 4.15 7.51 1-.58a1.87 1.87 0 001.05-1.56 6.49 6.49 0 00-1.09-3.13zM62.61 169.83a6.58 6.58 0 01.52 4.57 4.66 4.66 0 01-6.33 2.7 6.45 6.45 0 01-2.92-3.51l-.27-.65a7.22 7.22 0 01-.57-4.47 4.2 4.2 0 012.66-2.95 4 4 0 013.88.2 7.27 7.27 0 012.77 3.5zm-2.48.88l-.13-.31a11.17 11.17 0 00-1.65-2.94 1.61 1.61 0 00-2-.32 1.65 1.65 0 00-1.19 1.56 9.67 9.67 0 001 3.36l.12.28a10.66 10.66 0 001.69 3 1.65 1.65 0 002 .18A1.68 1.68 0 0061 174a7.94 7.94 0 00-.84-3.28zM72.22 172.92l-5.52-5.45 2.4 6.59-1.7.62-4.17-11.49 1.82-.66 7.13 6.87 1.12-9.88 1.61-.59 4.17 11.49-2.25.82-2.39-6.6-1 7.82z" fill-rule="evenodd"/></svg>