<svg xmlns="http://www.w3.org/2000/svg" xmlns:xlink="http://www.w3.org/1999/xlink" width="600" height="300" viewBox="0 0 600 300"><defs><clipPath id="a"><rect width="262.18" height="150" fill="none"/></clipPath></defs><title>flag-hawaii</title><rect width="600" height="300" fill="#fff"/><rect y="37.17" width="600" height="37.55" fill="#cf142b"/><rect y="74.71" width="600" height="37.55" fill="#00237d"/><rect y="149.81" width="600" height="37.55" fill="#cf142b"/><rect y="187.36" width="600" height="37.55" fill="#00237d"/><rect y="262.45" width="600" height="37.55" fill="#cf142b"/><g clip-path="url(#a)"><rect width="262.18" height="150" fill="#00237d"/><rect x="106.12" y="-4.54" width="49.94" height="165.59" fill="#fff"/><polygon points="269.87 12.61 269.87 -4.39 239.17 -4.39 -3.73 134.49 -3.73 152.14 25.83 152.14 269.87 12.61" fill="#fff"/><polygon points="-2.87 -1.62 -2.87 16.04 237.91 153.68 268.62 153.68 268.62 136.68 26.69 -1.62 -2.87 -1.62" fill="#fff"/><polygon points="-1.9 151.28 17.96 151.28 138.37 82.47 133.48 73.9 -1.9 151.28" fill="#cf142b"/><polygon points="135.29 66.34 130.41 74.9 268.28 153.67 268.71 142.56 135.29 66.34" fill="#cf142b"/><polygon points="-3.8 9.55 126.52 84.07 131.4 75.51 -3.8 -1.81 -3.8 9.55" fill="#cf142b"/><polygon points="245.3 -1.39 109.79 76.1 114.67 84.66 264.59 -1.06 245.3 -1.39" fill="#cf142b"/><rect x="123.39" y="-83.85" width="10.07" height="278.27" transform="translate(183.71 -73.14) rotate(90)" fill="#fff"/><rect x="123.39" y="-43.77" width="10.07" height="278.27" transform="translate(223.79 -33.06) rotate(90)" fill="#fff"/><rect x="113.42" y="-63.81" width="30.01" height="278.27" transform="translate(203.75 -53.1) rotate(90)" fill="#cf142b"/><rect x="116.09" y="-4.54" width="29.97" height="165.59" fill="#cf142b"/></g></svg>