<svg xmlns="http://www.w3.org/2000/svg" width="600" height="370.59" viewBox="0 0 600 370.59"><title>flag-illinois-dimensions</title><rect x="54.71" y="4.28" width="540.22" height="324.13" stroke-width="0.91" stroke="#50d6cc" stroke-linecap="round" stroke-linejoin="round" fill="#fff"/><path d="M260,295.46V294h1.24a2.61,2.61,0,0,0,1.56-.32c.25-.22.38-.79.38-1.7V280.54c0-.91-.13-1.48-.38-1.69a2.61,2.61,0,0,0-1.56-.32H260v-1.44H269v1.44h-1.23a2.59,2.59,0,0,0-1.57.32c-.25.22-.37.78-.37,1.69V292c0,.91.13,1.48.38,1.7a2.61,2.61,0,0,0,1.56.32H269v1.46Z" fill="#50d6cc"/><path d="M270.59,277.09h9v1.44h-1.37a2.69,2.69,0,0,0-1.58.32c-.25.21-.37.77-.37,1.68V294h4.38a9.48,9.48,0,0,0,3.08-.39,2.57,2.57,0,0,0,1.52-1.22,5.21,5.21,0,0,0,.52-1.67,15.61,15.61,0,0,0,.16-2.5v-.4h1.43v7.64H270.59V294h1.12a2.71,2.71,0,0,0,1.58-.32c.25-.22.38-.79.38-1.7V280.54c0-.91-.13-1.48-.38-1.69a2.63,2.63,0,0,0-1.57-.32h-1.13v-1.44Z" fill="#50d6cc"/><path d="M289.31,277.09h9v1.44H297a2.67,2.67,0,0,0-1.58.32c-.25.21-.37.77-.37,1.68V294h4.38a9.48,9.48,0,0,0,3.08-.39,2.6,2.6,0,0,0,1.52-1.22,5.48,5.48,0,0,0,.52-1.67,15.61,15.61,0,0,0,.16-2.5v-.4h1.43v7.64H289.31V294h1.12a2.69,2.69,0,0,0,1.58-.32c.26-.22.38-.79.38-1.7V280.54c0-.91-.12-1.48-.38-1.69a2.65,2.65,0,0,0-1.58-.32h-1.12Z" fill="#50d6cc"/><path d="M308.07,295.46V294h1.25a2.61,2.61,0,0,0,1.56-.32c.25-.22.38-.79.38-1.7V280.54c0-.91-.13-1.48-.38-1.69a2.61,2.61,0,0,0-1.56-.32h-1.25v-1.44h9.07v1.44H315.9a2.57,2.57,0,0,0-1.56.32c-.25.22-.37.78-.37,1.69V292c0,.91.13,1.48.38,1.7a2.61,2.61,0,0,0,1.56.32h1.23v1.46Z" fill="#50d6cc"/><path d="M337.15,295.53h-2.33l-11.25-16V292c0,.91.13,1.48.38,1.7a2.61,2.61,0,0,0,1.56.32h1.37v1.46h-8.16V294h1.07a2.65,2.65,0,0,0,1.57-.32c.25-.22.38-.79.38-1.7V280.56c0-.91-.13-1.48-.38-1.7a2.58,2.58,0,0,0-1.57-.33h-1.07v-1.44h6.16l10.43,14.76V280.57c0-.92-.13-1.49-.38-1.71a2.61,2.61,0,0,0-1.56-.32h-1.46V277.1H340v1.44h-.9a2.59,2.59,0,0,0-1.56.32c-.26.22-.38.79-.38,1.71v15h0Z" fill="#50d6cc"/><path d="M344.78,286.26a9,9,0,0,0,1.88,6,6.7,6.7,0,0,0,10,0,10.43,10.43,0,0,0,0-11.93,6.73,6.73,0,0,0-10,0A8.91,8.91,0,0,0,344.78,286.26Zm-3,0a10.09,10.09,0,0,1,.78-4,9.4,9.4,0,0,1,2.26-3.23,9.05,9.05,0,0,1,3.07-1.86,11.11,11.11,0,0,1,7.49,0,9.25,9.25,0,0,1,3.07,1.86,9.42,9.42,0,0,1,2.26,3.23,10.7,10.7,0,0,1,0,8,9.36,9.36,0,0,1-2.26,3.24,9.15,9.15,0,0,1-3.07,1.86,11.11,11.11,0,0,1-7.49,0,9.05,9.05,0,0,1-3.07-1.86,9.35,9.35,0,0,1-2.26-3.24A10.14,10.14,0,0,1,341.8,286.26Z" fill="#50d6cc"/><path d="M363.41,295.46V294h1.25a2.61,2.61,0,0,0,1.56-.32c.25-.22.37-.79.37-1.7V280.54c0-.91-.12-1.48-.37-1.69a2.61,2.61,0,0,0-1.56-.32h-1.25v-1.44h9.06v1.44h-1.23a2.61,2.61,0,0,0-1.57.32c-.24.22-.36.78-.36,1.69V292c0,.91.12,1.48.38,1.7a2.61,2.61,0,0,0,1.56.32h1.23v1.46Z" fill="#50d6cc"/><path d="M374.47,295.46v-7.61H376a7.77,7.77,0,0,0,2.25,4.71,6.41,6.41,0,0,0,4.57,1.71,5,5,0,0,0,3.2-.94,3,3,0,0,0,1.2-2.5,2.49,2.49,0,0,0-.91-2.06,8.34,8.34,0,0,0-3.33-1.28l-2.27-.5q-3.69-.83-4.93-2a4.39,4.39,0,0,1-1.23-3.38,4.46,4.46,0,0,1,1.79-3.71,7.7,7.7,0,0,1,4.83-1.38,8,8,0,0,1,2.86.51,9.32,9.32,0,0,1,2.61,1.54l.8-1.66h1.29v6.95h-1.49a6.82,6.82,0,0,0-1.9-4.26,5.76,5.76,0,0,0-4.14-1.49A5.33,5.33,0,0,0,378,279a2.64,2.64,0,0,0-1.13,2.29,2.27,2.27,0,0,0,.9,1.86,6.59,6.59,0,0,0,2.83,1.09l2.64.55a11.1,11.1,0,0,1,5,2,4.44,4.44,0,0,1,1.46,3.54,5.17,5.17,0,0,1-1.89,4.15,7.35,7.35,0,0,1-4.93,1.6,8.26,8.26,0,0,1-3.25-.63,9.34,9.34,0,0,1-2.86-1.95l-.89,2Z" fill="#50d6cc"/><path d="M363.77,201.21s7.56,14.77,10,14.78,9.73.7,12.34.72,6.66-1.2,10.84-.61,6.32.62,9,0c2.37-.53,7.95.41,10.95.8,4.17-4.12,10.25-15.41,10.25-15.41l-63.29-.3" fill="none" stroke="#50d6cc" stroke-width="0.58"/><path d="M230.65,207.5H216.76m19.81,8.41c-2.81.86-9.64-.56-12.19.39" fill="none" stroke="#50d6cc" stroke-width="0.58"/><path d="M392.74,209.93a4.71,4.71,0,0,1,6.51.26" fill="none" stroke="#50d6cc" stroke-width="0.58"/><path d="M404.15,210.35a4.67,4.67,0,0,1,6.5.26" fill="none" stroke="#50d6cc" stroke-width="0.58"/><path d="M408.65,207.21a4.69,4.69,0,0,1,6.5.26" fill="none" stroke="#50d6cc" stroke-width="0.58"/><path d="M407.28,204.94a4.72,4.72,0,0,1,6.5.26" fill="none" stroke="#50d6cc" stroke-width="0.58"/><path d="M377,205.9a4.72,4.72,0,0,1,6.51.25" fill="none" stroke="#50d6cc" stroke-width="0.58"/><path d="M383.74,211.32a4.71,4.71,0,0,1,6.51.24" fill="none" stroke="#50d6cc" stroke-width="0.58"/><path d="M374.92,213.64a4.69,4.69,0,0,1,6.5.26" fill="none" stroke="#50d6cc" stroke-width="0.58"/><path d="M411.44,212.46a4.71,4.71,0,0,1,6.51.24" fill="none" stroke="#50d6cc" stroke-width="0.58"/><path d="M387,206.39a4.71,4.71,0,0,1,6.51.25" fill="none" stroke="#50d6cc" stroke-width="0.58"/><path d="M370.75,204.61a4.7,4.7,0,0,1,6.5.24" fill="none" stroke="#50d6cc" stroke-width="0.58"/><path d="M382.87,209.05a4.7,4.7,0,0,1,6.5.26" fill="none" stroke="#50d6cc" stroke-width="0.58"/><path d="M399.09,207.86a4.7,4.7,0,0,1,6.51.24" fill="none" stroke="#50d6cc" stroke-width="0.58"/><path d="M402.93,213.82a4.72,4.72,0,0,1,6.51.24" fill="none" stroke="#50d6cc" stroke-width="0.58"/><path d="M399.49,204.38c.89-.71,2.73-2.41,5.62.25" fill="none" stroke="#50d6cc" stroke-width="0.58"/><path d="M380.15,204.21c.88-.72,3.21-2.41,6.09.26" fill="none" stroke="#50d6cc" stroke-width="0.58"/><path d="M415.79,204.55c.89-.71,2.73-2.4,5.62.25" fill="none" stroke="#50d6cc" stroke-width="0.58"/><path d="M395.71,212.61c.89-.73,2.74-2.42,5.62.25" fill="none" stroke="#50d6cc" stroke-width="0.58"/><path d="M394.11,205.36c.89-.73,2.74-2.42,5.62.25" fill="none" stroke="#50d6cc" stroke-width="0.58"/><path d="M388.55,204.34c.27-.76,1.48-2.78,3.48.29" fill="none" stroke="#50d6cc" stroke-width="0.58"/><path d="M374.52,208.31c.88-.71,2.73-2.4,5.62.25" fill="none" stroke="#50d6cc" stroke-width="0.58"/><path d="M383.34,214.55c1.34-1.11,3.14-2.06,5.62.23" fill="none" stroke="#50d6cc" stroke-width="0.58"/><path d="M376.21,210.9c1.34-1.09,3.13-2,5.61.25" fill="none" stroke="#50d6cc" stroke-width="0.58"/><path d="M412,209.47c1.34-1.1,3.13-2,5.62.25" fill="none" stroke="#50d6cc" stroke-width="0.58"/><path d="M414.42,206.81c1.34-1.09,3.14-2,5.62.25" fill="none" stroke="#50d6cc" stroke-width="0.58"/><path d="M391.32,214.78c.89-.72,2.74-2.41,5.62.25" fill="none" stroke="#50d6cc" stroke-width="0.58"/><path d="M223.93,210.14a4.7,4.7,0,0,1,6.5.26" fill="none" stroke="#50d6cc" stroke-width="0.58"/><path d="M228,213.76c.89-.72,2.74-2.41,5.62.25" fill="none" stroke="#50d6cc" stroke-width="0.58"/><path d="M309.63,194.05l1.76-5.71,1.37-1.77L323.15,188l15.3,3.34,8.14,1.5,13,22.11,13.33,1L360.83,230H320.42l-7.5-4-11.16-10.16,15.82-12.69-7.95-9.08Z" fill="#fff"/><path d="M338.06,191c2.5-.43,13.25-1.27,16.45,4.89l-1.41,0c1.66.11,8.79-1.9,11.69,6.66a4.66,4.66,0,0,0-2-.3s6.93-.73,10.93,12.8c.7,2.51-8.93-.91-14.15.8m14.1-.24c2.15.8,2.56,4.47,3.66,5.6s3.61,2.62,3.41,4.53-3.21,4.63-5.93,5.24-10.14-1.32-12.94-1-11.14,2.83-15.76,2.72-9.33-2.12-13.24-2-10.74.6-12.74-.72m-3.82-2.92c-.5-1.82-1.3-7.84,5.53-10.27a39.29,39.29,0,0,1,4.3-1.06c1.55-.48,2.76-.95,3.88-.56s2.15,2.83,6,3.33m2.12-17.74c-1.3-.1-2.3-2.41-5.41-2s-7.74,3.53-8.44,7.66-.76,5.8,2.14,9" fill="#fff" stroke="#50d6cc" stroke-width="0.58"/><path d="M335.13,205.87v5.51c0,.34.17.56.51.56h.72v1h-4.52v-1h.77c.35,0,.51-.22.51-.56v-3.6h-1.25v-1h.29a1.4,1.4,0,0,0,1.47-.93h1.5" fill="#50d6cc"/><path d="M344,207.46c0,.75-.56,1.1-1.19,1.33a2.06,2.06,0,0,1,1.57,2c0,1.78-1.59,2.28-3.27,2.28-1.27,0-3.14-.26-3.14-1.92a1.74,1.74,0,0,1,1.34-1.74,1.76,1.76,0,0,1-1.09-1.5c0-1.79,1.52-2.23,3-2.23C342.33,205.7,344,206.05,344,207.46Zm-3.8,2.46a1.33,1.33,0,0,0-.84,1.06c0,1,.95,1.26,1.79,1.26.62,0,1.43-.22,1.43-1,0-.33-.2-.57-1-.87Zm2-1.72a.78.78,0,0,0,.43-.75c0-.72-.78-.9-1.36-.9s-1.23.14-1.23.8a.57.57,0,0,0,.43.55l1.43.5.3-.2" fill="#50d6cc"/><path d="M347.21,209.14a2.58,2.58,0,0,1,1.78-.53,2.17,2.17,0,0,1,2.39,2.13c0,1.66-1.47,2.35-2.95,2.35-2.29,0-3.36-1.28-3.36-3.39,0-2.38,1.1-4,3.64-4,.91,0,2.38.46,2.38,1.48,0,.72-.42,1-1.15,1a.85.85,0,0,1-.91-.77.69.69,0,0,1,.46-.68,1,1,0,0,0-.6-.18c-1.19,0-1.68.87-1.68,1.93v.65Zm.13,1.72c0,.89.36,1.31,1,1.31s.95-.42.95-1.31-.35-1.32-.95-1.32-1,.41-1,1.32" fill="#50d6cc"/><path d="M358.15,207.46c0,.75-.56,1.1-1.2,1.33a2.06,2.06,0,0,1,1.57,2c0,1.78-1.6,2.28-3.27,2.28-1.27,0-3.15-.26-3.15-1.92a1.73,1.73,0,0,1,1.36-1.74,1.75,1.75,0,0,1-1.1-1.5c0-1.79,1.53-2.23,3-2.23C356.53,205.7,358.15,206.05,358.15,207.46Zm-3.8,2.46a1.35,1.35,0,0,0-.85,1.06c0,1,1,1.26,1.8,1.26.62,0,1.42-.22,1.42-1,0-.33-.19-.57-1-.87Zm2-1.72a.78.78,0,0,0,.43-.75c0-.72-.78-.9-1.36-.9s-1.23.14-1.23.8a.57.57,0,0,0,.43.55l1.43.5.3-.2" fill="#50d6cc"/><path d="M345.91,219.18v5.52a.49.49,0,0,0,.52.56h.72v1h-4.52v-1h.77a.5.5,0,0,0,.52-.56v-3.6h-1.25v-1H343a1.41,1.41,0,0,0,1.46-.94h1.5" fill="#50d6cc"/><path d="M354.75,220.77c0,.75-.56,1.1-1.2,1.32a2.09,2.09,0,0,1,1.57,2c0,1.78-1.6,2.28-3.27,2.28-1.27,0-3.15-.26-3.15-1.92a1.71,1.71,0,0,1,1.36-1.73,1.75,1.75,0,0,1-1.1-1.5c0-1.79,1.53-2.24,3-2.24,1.12,0,2.75.35,2.75,1.76Zm-3.8,2.46a1.32,1.32,0,0,0-.85,1.06c0,1,1,1.26,1.79,1.26.62,0,1.43-.22,1.43-1,0-.34-.2-.57-1-.88l-1.34-.48Zm2-1.71a.78.78,0,0,0,.43-.75c0-.72-.78-.9-1.36-.9s-1.23.12-1.23.79a.53.53,0,0,0,.43.54l1.43.51.3-.19" fill="#50d6cc"/><path d="M360.1,219.18v5.52a.49.49,0,0,0,.51.56h.72v1h-4.52v-1h.77a.49.49,0,0,0,.51-.56v-3.6h-1.25v-1h.29a1.4,1.4,0,0,0,1.46-.94h1.51" fill="#50d6cc"/><path d="M368.93,220.77c0,.75-.55,1.1-1.19,1.32a2.08,2.08,0,0,1,1.56,2c0,1.78-1.59,2.28-3.26,2.28-1.27,0-3.15-.26-3.15-1.92a1.71,1.71,0,0,1,1.36-1.73,1.77,1.77,0,0,1-1.1-1.5c0-1.79,1.53-2.24,3-2.24,1.12,0,2.74.35,2.74,1.76Zm-3.8,2.46a1.31,1.31,0,0,0-.84,1.06c0,1,.95,1.26,1.79,1.26.61,0,1.43-.22,1.43-1,0-.34-.2-.57-1-.88l-1.34-.48Zm2-1.71a.78.78,0,0,0,.43-.75c0-.72-.78-.9-1.36-.9s-1.23.12-1.23.79a.53.53,0,0,0,.43.54l1.43.51.3-.19" fill="#50d6cc"/><path d="M303,179.5c1.5,4.66,11.17,18.05,24.19,17.73-.71,3.79-19.29,41.88-69.05,44.57-14-47.41,11.84-77.14,20.68-80,3,12,19.38,17.48,24.18,17.72Z" fill="#fff" stroke="#50d6cc" stroke-width="0.64"/><path d="M301.63,181.59c1.38,4.26,6.12,23.86,14,30.31-3.07,3.25-22.89,25.32-55,26.6-10.39-32.39,2.7-55.8,7.17-63.29,10.18,7.44,29.42,6.16,33.8,6.38" fill="#fff"/><path d="M277.32,165c5.23,11.33,19.19,15.31,24.25,16.42,1.71,8.52,18.55,18.86,22.29,18-.65,4.63-9.47,14.26-12.41,16.84-.05-.06-47-34.44-47-34.45,1.31-4,9.95-16.76,12.9-16.83" fill="#fff" stroke="#50d6cc" stroke-width="0.64"/><path d="M306.87,216.55s-5.92,8.27-5.92,8.26c1.18-.79,6.41-4.8,8.45-6.46C309.38,218.37,306.89,216.55,306.87,216.55Z" fill="#fff" stroke="#50d6cc" stroke-width="0.64"/><path d="M263.16,184.56c-3.06,6.88-3.24,8.3-4.87,14.78l8.6-12S263.17,184.55,263.16,184.56Z" fill="#fff" stroke="#50d6cc" stroke-width="0.64"/><path d="M269.67,189.31,257,207.08a44.52,44.52,0,0,0-.15,10.14l17.54-24.5Z" fill="#fff" stroke="#50d6cc" stroke-width="0.64"/><path d="M277.1,194.72l-20,27.85a72.75,72.75,0,0,0,1.34,8.11l23.27-32.51Z" fill="#fff" stroke="#50d6cc" stroke-width="0.64"/><path d="M292,205.62l-23,32.22c1.39-.23,7.25-1.38,8.47-2l19.23-26.76Z" fill="#fff" stroke="#50d6cc" stroke-width="0.64"/><path d="M284.64,200.25l-25,34.88c.22.68.84,2.3,1.05,3.32,1.64,0,3.23,0,3.78-.29l24.75-34.53Z" fill="#fff" stroke="#50d6cc" stroke-width="0.64"/><path d="M299.45,211.09,283,234.17c1.86-.51,9.38-4.38,10.59-5l10.56-14.64Z" fill="#fff" stroke="#50d6cc" stroke-width="0.64"/><polygon points="273.67 177.66 274.32 179.4 274.8 177.71 276.52 177.79 275.08 176.74 275.57 175.03 274.12 176.03 272.66 174.96 273.27 176.6 271.83 177.58 273.67 177.66" fill="#50d6cc"/><polygon points="281.28 177.12 281.93 178.85 282.42 177.16 284.13 177.24 282.7 176.19 283.18 174.49 281.73 175.48 280.27 174.41 280.88 176.06 279.44 177.04 281.28 177.12" fill="#50d6cc"/><polygon points="276.64 184.13 277.13 182.43 275.67 183.42 274.21 182.35 274.83 183.99 273.39 184.97 275.22 185.05 275.88 186.79 276.36 185.1 278.07 185.18 276.64 184.13" fill="#50d6cc"/><polygon points="284.27 184.65 285.98 184.72 284.55 183.67 285.04 181.97 283.58 182.96 282.12 181.9 282.74 183.54 281.3 184.52 283.13 184.6 283.79 186.34 284.27 184.65" fill="#50d6cc"/><polygon points="291.5 184.46 292.15 186.2 292.63 184.51 294.35 184.58 292.91 183.53 293.4 181.83 291.94 182.82 290.49 181.75 291.1 183.4 289.66 184.38 291.5 184.46" fill="#50d6cc"/><polygon points="301.82 192 302.47 193.74 302.96 192.04 304.67 192.12 303.24 191.07 303.72 189.37 302.27 190.36 300.81 189.29 301.42 190.94 299.99 191.92 301.82 192" fill="#50d6cc"/><polygon points="294.44 194.05 294.93 192.36 296.64 192.44 295.2 191.39 295.69 189.69 294.24 190.68 292.78 189.61 293.39 191.25 291.95 192.24 293.79 192.31 294.44 194.05" fill="#50d6cc"/><polygon points="287.09 191.64 287.58 189.94 286.12 190.93 284.66 189.86 285.28 191.5 283.84 192.49 285.68 192.56 286.33 194.3 286.81 192.61 288.52 192.69 287.09 191.64" fill="#50d6cc"/><polygon points="297.27 199.22 297.75 197.52 296.3 198.51 294.84 197.45 295.45 199.09 294.01 200.07 295.85 200.15 296.5 201.89 296.99 200.2 298.7 200.27 297.27 199.22" fill="#50d6cc"/><polygon points="304.38 201.24 304.86 199.55 306.58 199.62 305.14 198.57 305.63 196.87 304.17 197.87 302.72 196.8 303.33 198.44 301.89 199.42 303.73 199.5 304.38 201.24" fill="#50d6cc"/><polygon points="310.9 198.78 311.55 200.52 312.04 198.83 313.75 198.9 312.32 197.85 312.8 196.15 311.35 197.14 309.89 196.07 310.5 197.72 309.06 198.7 310.9 198.78" fill="#50d6cc"/><polygon points="306.5 205.98 306.98 204.28 305.53 205.27 304.07 204.2 304.68 205.84 303.24 206.82 305.08 206.9 305.73 208.64 306.21 206.95 307.93 207.03 306.5 205.98" fill="#50d6cc"/><polygon points="313.89 206.3 315.6 206.38 314.17 205.33 314.66 203.63 313.2 204.62 311.74 203.55 312.36 205.19 310.92 206.18 312.75 206.25 313.4 207.99 313.89 206.3" fill="#50d6cc"/><path d="M385.58,194.44s-8.39-4.15-9.29-4.54a9.43,9.43,0,0,0-3-.31s.19,1.85,1,2.22S385,195.75,385,195.75m1.3-2.57s-6.63-4-8.17-4.79a7.19,7.19,0,0,0-3.61-.55s1,1.75,1.8,2.13,9.28,4.48,9.28,4.48m31.51,6.17s4.9-.68,6.26-.9,3.73-3.32,3.73-3.32-2.61-1.48-4-1.22-13.84,3.91-13.84,3.91,13.69-3.56,14.94-4,2.82-3,2.82-3a7,7,0,0,0-3.21-.3L408.6,197s15.61-5.19,16.86-5.82,2.81-3.32,2.81-3.32-2.13-.46-2.8-.11c-.41.21-6.67,3.11-11.49,5.72,4.26-2.08,9.48-4.64,10.58-5.23,1.91-1,5.73-6,5.73-6s-3.64.46-4.72,1.11-17.82,11.48-17.82,11.48,18.2-11.52,19.68-12.48,3.15-5,3.15-5-2.92.17-4.05,1L406.8,193s19.95-14.92,21.24-16,2.56-5,2.56-5-2.92-.16-4.11.71S406,192.09,406,192.09s21.11-20.1,22.8-21.6,3.42-5.84,3.42-5.84-3.19.6-4.17,1.71-22.76,25.18-22.76,25.18,24.61-27.42,25.82-28.7,2-5.15,2-5.15a15.65,15.65,0,0,0-4.22,2.59c-1.25,1.31-24.52,30.45-24.52,30.45L428.21,161a14,14,0,0,0,2-5s-3.08,1.09-4.36,2.77-22.2,31.33-22.2,31.33,17.47-24.9,18-25.63.6-3.32.6-3.32a5.15,5.15,0,0,0-2.26,1.3c-.6.9-17,27.15-17,27.15s17.72-28.3,18.34-29.36a6.44,6.44,0,0,0,.4-3.11,4.77,4.77,0,0,0-2.16,1.2c-.67.83-17.29,30.92-17.29,30.92s18.18-32.65,18.75-33.65.6-4.13.6-4.13a8.25,8.25,0,0,0-3.11,1.77c-.87,1.07-16.83,35.77-16.83,35.77s17.35-36.83,18.34-39a20.11,20.11,0,0,0,1.21-5.74s-2.19.49-3,1.71-17.65,42.4-17.65,42.4L419.4,142.9l.6-4.54s-3.66,2.43-4.22,4.13c-.27.85-7.11,20.35-10.66,31.67,3.75-11.25,10.36-30.66,10.57-31.16.41-1-.05-3.42-.05-3.42s-2.53,2.17-3,3.62c-.18.67-4.88,16.86-7.69,27.26,2.14-7.25,5.69-20,5.88-20.62.5-1.49-.39-4.32-.39-4.32a13.8,13.8,0,0,0-2,4.22c-.4,1.73-5.88,25.32-8.08,34.75,2.14-8.75,7.08-30.62,7.47-32.12.46-1.77-1.09-4.83-1.09-4.83s-1.75,1.58-1.91,2.8c-.12.9-3,20-4.68,30.69,1.82-11,4.51-31,4.68-32.19.23-1.71-1.3-5-1.3-5s-1.56,1.32-1.61,2.19-3.9,41.85-3.9,41.85,4-43,4.21-44.64-1.31-4.33-1.31-4.33a3.92,3.92,0,0,0-1.2,2c-.05.64-1,19.64-1.6,33.26.85-14.16,1.63-34.53,1.7-35.89a6.88,6.88,0,0,0-1.4-4,5.67,5.67,0,0,0-1.11,3.22c-.13,2.5-.45,50.29-.45,50.29s.49-51,.46-52.61-2.2-4.84-2.2-4.84a10.09,10.09,0,0,0-1.61,4.94c.09,1.84,2.46,52.5,2.46,52.5s-1.94-45.1-2.26-47.46-2.81-4.24-2.81-4.24a15.92,15.92,0,0,0-.7,5.63c.21,3,3.8,33.18,3.8,33.18-1.42-11.68-3.29-27.15-3.41-28.12-.17-1.56-2.95-4.64-2.95-4.64a43.26,43.26,0,0,0,.25,7.31c.28,1.48,7,38.44,7,38.44s-6.28-34.83-6.69-36.88a6.8,6.8,0,0,0-2.39-3.53,21.88,21.88,0,0,0,.19,6.65c.31,1.5,8,33.76,8,33.76-.54-2.72-7.59-32.11-8-33.76a8.65,8.65,0,0,0-1.8-3.22,16.19,16.19,0,0,0,0,4.63c.43,1.35,9.1,32.66,9.1,32.66s-9.38-33-10.5-36.08c-.69-1.94-3.35-4.54-3.35-4.54a16.71,16.71,0,0,0,.5,4.58c.39.94,7.11,19.31,11,29.44-4.13-11.07-12-32.18-12.33-33.2-.46-1.42-4.2-4.84-4.2-4.84s-.61,2.21-.1,3.32,18.22,41.57,18.22,41.57L374.79,148c-1.16-2.62-5.22-4.74-5.22-4.74s.32,5.1,1.4,7.17S391.6,189,391.6,189s-18.16-34-18.83-35.19-4.21-2.93-4.21-2.93.72,4.09,1.8,5.75c.78,1.2,17.81,27.82,17.81,27.82-5.43-8.65-15.87-25.16-16.61-25.91a27.12,27.12,0,0,0-4.56-2.77s2,5.49,3.25,7.05,20.35,26.63,20.35,26.63-19-25.07-20-26.06c-1.14-1.15-4-1.86-4-1.86a35.24,35.24,0,0,0,3.31,6c1.4,1.65,19,22.63,19,22.63s-16.1-19.42-17.63-21a8.79,8.79,0,0,0-4.41-1.92,28.2,28.2,0,0,0,4.3,6.66c2.46,2.54,16.85,17,16.85,17" fill="none" stroke="#50d6cc" stroke-width="0.14"/><path d="M384.41,197.16s-12.66-2.59-14.29-2.88-7.18.44-7.18.44,5.27,2.77,7.82,2.94,13.15,1.06,13.15,1.06" fill="none" stroke="#50d6cc" stroke-width="0.14"/><path d="M388,190.87s-12.4-13.17-13.82-14.17-4.73-1-4.73-1,.31,3.06,1.91,4.12,15.8,12,15.8,12-7.68-6-9-7-4.32-.51-4.32-.51a23,23,0,0,0,3.66,3.93c1.49,1,8.79,5,8.79,5M385,195.75s-10.06-3.75-11.89-4.35-7.93-.29-7.93-.29,3.38,2.81,5,3.17,14.29,2.87,14.29,2.87m-.5,1.57s-13.15-1.34-14.34-1.17a39.94,39.94,0,0,0-5.13,1.8,39,39,0,0,0,5.32,1c1.43,0,14.05-.69,14.05-.69" fill="none" stroke="#50d6cc" stroke-width="0.14"/><path d="M405.56,201.2a8.77,8.77,0,1,0-17.53,0" fill="none" stroke="#50d6cc" stroke-width="0.58"/><path d="M243.23,225.5a13.88,13.88,0,0,1-.75-4.25s-.23,3.62-1.07,5" fill="#fff" stroke="#50d6cc" stroke-width="0.55"/><path d="M242.52,220.14c0,1.67.71,5.36,1.36,5.84" fill="#fff" stroke="#fff" stroke-width="0.55"/><path d="M258.13,246.3a11.17,11.17,0,0,1-.61-3.45s-.18,2.94-.87,4.05" fill="#fff" stroke="#50d6cc" stroke-width="0.55"/><path d="M257.55,242c0,1.34.58,4.33,1.1,4.72" fill="#fff" stroke="#fff" stroke-width="0.44"/><path d="M309.39,255.81a13.74,13.74,0,0,0,.62-4.29s.35,3.62,1.24,5" fill="#fff" stroke="#50d6cc" stroke-width="0.55"/><path d="M309.94,250.41c0,1.68-.55,5.4-1.17,5.9" fill="#fff" stroke="#fff" stroke-width="0.55"/><path d="M336.34,254.56a13.68,13.68,0,0,0,.62-4.28s.34,3.62,1.24,5" fill="#fff" stroke="#50d6cc" stroke-width="0.55"/><path d="M336.89,249.17c0,1.67-.55,5.39-1.17,5.89" fill="#fff" stroke="#fff" stroke-width="0.55"/><path d="M245.84,232a13.93,13.93,0,0,0,.61-4.28s.35,3.61,1.24,5" fill="#fff" stroke="#50d6cc" stroke-width="0.55"/><path d="M246.38,226.59c0,1.67-.54,5.4-1.17,5.91" fill="#fff" stroke="#fff" stroke-width="0.55"/><path d="M286.21,253.93a13.74,13.74,0,0,0,.62-4.29s.34,3.62,1.24,5" fill="#fff" stroke="#50d6cc" stroke-width="0.55"/><path d="M286.76,248.53c0,1.67-.55,5.4-1.16,5.89" fill="#fff" stroke="#fff" stroke-width="0.55"/><path d="M365.89,259.6a13.62,13.62,0,0,1-.75-4.26s-.23,3.62-1.08,5" fill="#fff" stroke="#50d6cc" stroke-width="0.55"/><path d="M365.18,254.24c.05,1.65.72,5.36,1.35,5.83" fill="#fff" stroke="#fff" stroke-width="0.55"/><path d="M296.19,257.84a12.37,12.37,0,0,1-.67-3.84s-.21,3.26-1,4.5" fill="#fff" stroke="#50d6cc" stroke-width="0.55"/><path d="M295.55,253c0,1.48.64,4.83,1.22,5.24" fill="#fff" stroke="#fff" stroke-width="0.49"/><path d="M300,260a13.65,13.65,0,0,0,.62-4.28s.34,3.61,1.24,5" fill="#fff" stroke="#50d6cc" stroke-width="0.55"/><path d="M300.49,254.65c0,1.65-.54,5.39-1.15,5.88" fill="#fff" stroke="#fff" stroke-width="0.55"/><path d="M306.68,258.09a13.53,13.53,0,0,1-.75-4.26s-.23,3.63-1.08,5" fill="#fff" stroke="#50d6cc" stroke-width="0.55"/><path d="M306,252.73c0,1.67.72,5.36,1.35,5.85" fill="#fff" stroke="#fff" stroke-width="0.55"/><path d="M304.87,267.27a13.62,13.62,0,0,1-.75-4.26s-.23,3.63-1.09,5" fill="#fff" stroke="#50d6cc" stroke-width="0.55"/><path d="M304.16,261.91c0,1.65.71,5.36,1.34,5.83" fill="#fff" stroke="#fff" stroke-width="0.55"/><path d="M324,253.81a12.42,12.42,0,0,1-.68-3.83s-.2,3.26-1,4.51" fill="#fff" stroke="#50d6cc" stroke-width="0.55"/><path d="M323.36,249c0,1.5.64,4.83,1.21,5.26" fill="#fff" stroke="#fff" stroke-width="0.49"/><path d="M326,264.51a13.88,13.88,0,0,1-.75-4.25s-.23,3.61-1.08,5" fill="#fff" stroke="#50d6cc" stroke-width="0.55"/><path d="M325.28,259.15c.05,1.65.72,5.36,1.36,5.82" fill="#fff" stroke="#fff" stroke-width="0.55"/><path d="M319.17,261.8a13.6,13.6,0,0,0,.62-4.27s.35,3.62,1.24,5" fill="#fff" stroke="#50d6cc" stroke-width="0.55"/><path d="M319.71,256.42c0,1.66-.54,5.38-1.16,5.88" fill="#fff" stroke="#fff" stroke-width="0.55"/><path d="M314.15,267.69a13.81,13.81,0,0,0,.61-4.27s.35,3.6,1.24,5" fill="#fff" stroke="#50d6cc" stroke-width="0.55"/><path d="M314.69,262.31c0,1.66-.54,5.39-1.16,5.88" fill="#fff" stroke="#fff" stroke-width="0.55"/><path d="M315,253.66a10.9,10.9,0,0,0,.5-3.47,12.79,12.79,0,0,0,1,4" fill="#fff" stroke="#50d6cc" stroke-width="0.55"/><path d="M315.46,249.28c0,1.35-.44,4.38-.95,4.78" fill="#fff" stroke="#fff" stroke-width="0.44"/><path d="M334.77,267.08a11.31,11.31,0,0,0,.51-3.47,12.14,12.14,0,0,0,1,4" fill="#fff" stroke="#50d6cc" stroke-width="0.55"/><path d="M335.22,262.7c0,1.35-.44,4.38-.94,4.76" fill="#fff" stroke="#fff" stroke-width="0.44"/><path d="M330.37,253.31a11.14,11.14,0,0,0,.5-3.47s.28,2.93,1,4" fill="#fff" stroke="#50d6cc" stroke-width="0.55"/><path d="M330.81,248.94c0,1.36-.44,4.37-.94,4.77" fill="#fff" stroke="#fff" stroke-width="0.44"/><path d="M320.82,268.81a13.6,13.6,0,0,0,.62-4.27s.35,3.61,1.24,5" fill="#fff" stroke="#50d6cc" stroke-width="0.55"/><path d="M321.36,263.43c0,1.66-.55,5.38-1.16,5.88" fill="#fff" stroke="#fff" stroke-width="0.55"/><path d="M329.35,269.21a13.5,13.5,0,0,0,.61-4.27s.35,3.6,1.25,5" fill="#fff" stroke="#50d6cc" stroke-width="0.55"/><path d="M329.89,263.83c0,1.67-.54,5.39-1.16,5.88" fill="#fff" stroke="#fff" stroke-width="0.55"/><path d="M309.79,266.46a13.62,13.62,0,0,1-.75-4.26s-.23,3.63-1.08,5" fill="#fff" stroke="#50d6cc" stroke-width="0.55"/><path d="M309.07,261.09c0,1.68.72,5.37,1.35,5.84" fill="#fff" stroke="#fff" stroke-width="0.55"/><path d="M311.94,260.85a13.77,13.77,0,0,0,.62-4.29s.35,3.61,1.24,5" fill="#fff" stroke="#50d6cc" stroke-width="0.55"/><path d="M312.49,255.46c0,1.67-.55,5.39-1.17,5.88" fill="#fff" stroke="#fff" stroke-width="0.55"/><path d="M298.15,264.64a13.62,13.62,0,0,1-.75-4.26s-.23,3.61-1.09,5" fill="#fff" stroke="#50d6cc" stroke-width="0.55"/><path d="M297.44,259.27c0,1.68.71,5.38,1.34,5.85" fill="#fff" stroke="#fff" stroke-width="0.55"/><path d="M291.82,262.24a13.58,13.58,0,0,0,.61-4.28s.35,3.62,1.24,5" fill="#fff" stroke="#50d6cc" stroke-width="0.55"/><path d="M292.37,256.85c0,1.66-.55,5.39-1.17,5.89" fill="#fff" stroke="#fff" stroke-width="0.55"/><path d="M272.06,255.62a13.5,13.5,0,0,0,.61-4.27s.35,3.62,1.24,5" fill="#fff" stroke="#50d6cc" stroke-width="0.55"/><path d="M272.6,250.24c0,1.67-.54,5.39-1.16,5.88" fill="#fff" stroke="#fff" stroke-width="0.55"/><path d="M279.23,258.84a13.62,13.62,0,0,1-.75-4.26s-.23,3.61-1.08,5" fill="#fff" stroke="#50d6cc" stroke-width="0.55"/><path d="M278.52,253.48c0,1.66.72,5.35,1.34,5.84" fill="#fff" stroke="#fff" stroke-width="0.55"/><path d="M282.14,260.07a13.74,13.74,0,0,0,.62-4.29s.34,3.62,1.24,5" fill="#fff" stroke="#50d6cc" stroke-width="0.55"/><path d="M282.68,254.68c0,1.67-.54,5.39-1.16,5.89" fill="#fff" stroke="#fff" stroke-width="0.55"/><path d="M289.35,260.84a11.31,11.31,0,0,1-.61-3.46,12.45,12.45,0,0,1-.87,4.05" fill="#fff" stroke="#50d6cc" stroke-width="0.55"/><path d="M288.78,256.48c0,1.35.57,4.36,1.08,4.74" fill="#fff" stroke="#fff" stroke-width="0.44"/><path d="M292.53,255.57a13.62,13.62,0,0,1-.75-4.26s-.23,3.62-1.08,5" fill="#fff" stroke="#50d6cc" stroke-width="0.55"/><path d="M291.82,250.2c0,1.67.72,5.37,1.36,5.84" fill="#fff" stroke="#fff" stroke-width="0.55"/><path d="M278.94,249a13.6,13.6,0,0,0,.62-4.27s.34,3.62,1.24,5" fill="#fff" stroke="#50d6cc" stroke-width="0.55"/><path d="M279.49,243.64c0,1.67-.55,5.39-1.17,5.89" fill="#fff" stroke="#fff" stroke-width="0.55"/><path d="M267.7,253.05a13.75,13.75,0,0,1-.75-4.27s-.23,3.61-1.08,5" fill="#fff" stroke="#50d6cc" stroke-width="0.55"/><path d="M267,247.66c0,1.68.71,5.39,1.35,5.85" fill="#fff" stroke="#fff" stroke-width="0.55"/><path d="M260.68,248.72a14,14,0,0,0,.62-4.28s.34,3.61,1.24,5" fill="#fff" stroke="#50d6cc" stroke-width="0.55"/><path d="M261.21,243.33c0,1.67-.54,5.39-1.15,5.89" fill="#fff" stroke="#fff" stroke-width="0.55"/><path d="M270,248.4a13.62,13.62,0,0,1-.75-4.26s-.23,3.62-1.09,5" fill="#fff" stroke="#50d6cc" stroke-width="0.55"/><path d="M269.3,243c0,1.66.71,5.37,1.35,5.83" fill="#fff" stroke="#fff" stroke-width="0.55"/><path d="M274.84,247.88a11.17,11.17,0,0,0,.5-3.47,12.83,12.83,0,0,0,1,4" fill="#fff" stroke="#50d6cc" stroke-width="0.55"/><path d="M275.29,243.51c0,1.34-.44,4.37-.94,4.77" fill="#fff" stroke="#fff" stroke-width="0.44"/><path d="M318.35,253.49a12.46,12.46,0,0,0,.55-3.85s.31,3.26,1.12,4.47" fill="#fff" stroke="#50d6cc" stroke-width="0.55"/><path d="M318.83,248.65c0,1.5-.48,4.84-1,5.29" fill="#fff" stroke="#fff" stroke-width="0.49"/><path d="M326.55,253.35a13.45,13.45,0,0,0,.63-4.28s.33,3.61,1.23,5" fill="#fff" stroke="#50d6cc" stroke-width="0.55"/><path d="M327.1,248c0,1.65-.55,5.39-1.17,5.89" fill="#fff" stroke="#fff" stroke-width="0.55"/><path d="M334.34,259.92a11.21,11.21,0,0,1-.61-3.45,12.55,12.55,0,0,1-.87,4.06" fill="#fff" stroke="#50d6cc" stroke-width="0.55"/><path d="M333.76,255.56c0,1.36.57,4.34,1.08,4.74" fill="#fff" stroke="#fff" stroke-width="0.44"/><path d="M342.31,265.26a10.08,10.08,0,0,1-.55-3.12,11.38,11.38,0,0,1-.79,3.66" fill="#fff" stroke="#50d6cc" stroke-width="0.55"/><path d="M341.79,261.36c0,1.21.52,3.91,1,4.25" fill="#fff" stroke="#fff" stroke-width="0.4"/><path d="M339.09,261.88a13.75,13.75,0,0,0,.62-4.28s.35,3.61,1.24,5" fill="#fff" stroke="#50d6cc" stroke-width="0.55"/><path d="M339.63,256.48c0,1.67-.54,5.4-1.16,5.9" fill="#fff" stroke="#fff" stroke-width="0.55"/><path d="M343.11,254.44a13.88,13.88,0,0,1-.75-4.26s-.23,3.63-1.08,5" fill="#fff" stroke="#50d6cc" stroke-width="0.55"/><path d="M342.4,249.07c0,1.67.72,5.36,1.35,5.85" fill="#fff" stroke="#fff" stroke-width="0.55"/><path d="M328.45,260.1a13.4,13.4,0,0,0,.63-4.27s.33,3.61,1.23,5" fill="#fff" stroke="#50d6cc" stroke-width="0.55"/><path d="M329,254.71c0,1.66-.55,5.39-1.16,5.88" fill="#fff" stroke="#fff" stroke-width="0.55"/><path d="M345.92,259.39a13.62,13.62,0,0,1-.75-4.26s-.22,3.6-1.08,5" fill="#fff" stroke="#50d6cc" stroke-width="0.55"/><path d="M345.21,254c0,1.67.71,5.38,1.34,5.84" fill="#fff" stroke="#fff" stroke-width="0.55"/><path d="M361.89,252.34a13.42,13.42,0,0,1-.76-4.26s-.22,3.62-1.08,5" fill="#fff" stroke="#50d6cc" stroke-width="0.55"/><path d="M361.17,247c0,1.66.72,5.37,1.36,5.84" fill="#fff" stroke="#fff" stroke-width="0.55"/><path d="M346.68,247.37a13.63,13.63,0,0,0,.62-4.27s.34,3.6,1.23,5" fill="#fff" stroke="#50d6cc" stroke-width="0.55"/><path d="M347.22,242c0,1.66-.54,5.39-1.15,5.88" fill="#fff" stroke="#fff" stroke-width="0.55"/><path d="M360.12,260.31a13.6,13.6,0,0,0,.62-4.27s.34,3.61,1.23,5" fill="#fff" stroke="#50d6cc" stroke-width="0.55"/><path d="M360.66,254.94c0,1.65-.54,5.37-1.16,5.88" fill="#fff" stroke="#fff" stroke-width="0.55"/><path d="M370,249a13.5,13.5,0,0,0,.63-4.29s.34,3.62,1.23,5" fill="#fff" stroke="#50d6cc" stroke-width="0.55"/><path d="M370.56,243.56c0,1.66-.55,5.38-1.16,5.88" fill="#fff" stroke="#fff" stroke-width="0.55"/><path d="M352.29,262.11a13.93,13.93,0,0,1-.75-4.26s-.23,3.62-1.08,5" fill="#fff" stroke="#50d6cc" stroke-width="0.55"/><path d="M351.58,256.75c0,1.65.71,5.36,1.35,5.83" fill="#fff" stroke="#fff" stroke-width="0.55"/><path d="M351.49,252.3a13.63,13.63,0,0,0,.62-4.27s.35,3.61,1.24,5" fill="#fff" stroke="#50d6cc" stroke-width="0.55"/><path d="M352,246.92c0,1.66-.55,5.38-1.17,5.88" fill="#fff" stroke="#fff" stroke-width="0.55"/><path d="M356.28,255.08a11,11,0,0,1-.61-3.46,12.69,12.69,0,0,1-.88,4.07" fill="#fff" stroke="#50d6cc" stroke-width="0.55"/><path d="M355.69,250.73c0,1.36.58,4.35,1.09,4.74" fill="#fff" stroke="#fff" stroke-width="0.44"/><path d="M341.52,245.71a14,14,0,0,0,.61-4.29s.35,3.62,1.24,5" fill="#fff" stroke="#50d6cc" stroke-width="0.55"/><path d="M342.06,240.32c0,1.65-.54,5.39-1.17,5.88" fill="#fff" stroke="#fff" stroke-width="0.55"/><path d="M364.89,252.72a13.77,13.77,0,0,0,.62-4.29s.35,3.61,1.24,5" fill="#fff" stroke="#50d6cc" stroke-width="0.55"/><path d="M365.44,247.33c0,1.67-.55,5.39-1.17,5.89" fill="#fff" stroke="#fff" stroke-width="0.55"/><path d="M357.11,263.28a13.75,13.75,0,0,1-.75-4.27s-.23,3.62-1.09,5" fill="#fff" stroke="#50d6cc" stroke-width="0.55"/><path d="M356.4,257.9c0,1.67.71,5.38,1.34,5.84" fill="#fff" stroke="#fff" stroke-width="0.55"/><path d="M355.66,247.32a11.14,11.14,0,0,0,.5-3.47s.28,2.94,1,4" fill="#fff" stroke="#50d6cc" stroke-width="0.55"/><path d="M356.1,243c0,1.35-.44,4.36-1,4.76" fill="#fff" stroke="#fff" stroke-width="0.44"/><path d="M333.49,239.51a13.85,13.85,0,0,0,.62-4.3s.34,3.62,1.23,5" fill="#fff" stroke="#50d6cc" stroke-width="0.55"/><path d="M334,234.1c0,1.67-.54,5.39-1.16,5.89" fill="#fff" stroke="#fff" stroke-width="0.55"/><path d="M352.21,243.92a10.08,10.08,0,0,1-.55-3.12,11.1,11.1,0,0,1-.79,3.66" fill="#fff" stroke="#50d6cc" stroke-width="0.55"/><path d="M351.69,240c0,1.21.52,3.91,1,4.26" fill="#fff" stroke="#fff" stroke-width="0.4"/><path d="M366.25,245.06a12.73,12.73,0,0,1-.67-3.84s-.2,3.26-1,4.49" fill="#fff" stroke="#50d6cc" stroke-width="0.55"/><path d="M365.61,240.22c0,1.5.64,4.84,1.22,5.26" fill="#fff" stroke="#fff" stroke-width="0.49"/><path d="M340.22,238.87a13.66,13.66,0,0,1-.75-4.26s-.23,3.62-1.08,5" fill="#fff" stroke="#50d6cc" stroke-width="0.55"/><path d="M339.5,233.51c.05,1.66.72,5.36,1.35,5.84" fill="#fff" stroke="#fff" stroke-width="0.55"/><path d="M327.53,238.07a13.66,13.66,0,0,1-.75-4.26s-.24,3.61-1.08,5" fill="#fff" stroke="#50d6cc" stroke-width="0.55"/><path d="M326.8,232.7c.05,1.65.73,5.37,1.36,5.83" fill="#fff" stroke="#fff" stroke-width="0.55"/><path d="M346.8,238.63a10.08,10.08,0,0,1-.55-3.12,11.43,11.43,0,0,1-.79,3.66" fill="#fff" stroke="#50d6cc" stroke-width="0.55"/><path d="M356.92,240.88a11.17,11.17,0,0,0,.5-3.47,12.51,12.51,0,0,0,1,4" fill="#fff" stroke="#50d6cc" stroke-width="0.55"/><path d="M357.36,236.52c0,1.34-.44,4.36-.95,4.76" fill="#fff" stroke="#fff" stroke-width="0.44"/><path d="M361.19,243.62a13.62,13.62,0,0,1-.75-4.26s-.23,3.62-1.08,5" fill="#fff" stroke="#50d6cc" stroke-width="0.55"/><path d="M360.48,238.26c0,1.66.72,5.36,1.35,5.83" fill="#fff" stroke="#fff" stroke-width="0.55"/><path d="M359.49,237.33a12.19,12.19,0,0,0,.56-3.84s.3,3.25,1.11,4.46" fill="#fff" stroke="#50d6cc" stroke-width="0.55"/><path d="M369.51,255.74a12.51,12.51,0,0,0,.55-3.86s.31,3.25,1.12,4.47" fill="#fff" stroke="#50d6cc" stroke-width="0.55"/><path d="M370,250.88c0,1.5-.49,4.86-1.05,5.29" fill="#fff" stroke="#fff" stroke-width="0.49"/><path d="M350.36,238.45a13.72,13.72,0,0,0,.62-4.28s.34,3.61,1.23,5" fill="#fff" stroke="#50d6cc" stroke-width="0.55"/><path d="M350.89,233.05c0,1.67-.54,5.4-1.16,5.9" fill="#fff" stroke="#fff" stroke-width="0.55"/><path d="M348.62,257.42a11.17,11.17,0,0,0,.5-3.47,12.73,12.73,0,0,0,1,4" fill="#fff" stroke="#50d6cc" stroke-width="0.55"/><path d="M349.05,253.05c0,1.34-.43,4.36-.93,4.76" fill="#fff" stroke="#fff" stroke-width="0.44"/><path d="M363.43,237.07a10,10,0,0,0,.45-3.11,11,11,0,0,0,.91,3.6" fill="#fff" stroke="#50d6cc" stroke-width="0.55"/><path d="M355.72,236.84a11.15,11.15,0,0,1-.6-3.46,12.37,12.37,0,0,1-.88,4.06" fill="#fff" stroke="#50d6cc" stroke-width="0.55"/><path d="M355.15,232.48c0,1.36.57,4.36,1.09,4.75" fill="#fff" stroke="#fff" stroke-width="0.44"/><path d="M368,241.58a11.14,11.14,0,0,0,.5-3.47,12.61,12.61,0,0,0,1,4" fill="#fff" stroke="#50d6cc" stroke-width="0.55"/><path d="M368.45,237.23c0,1.35-.44,4.36-.94,4.76" fill="#fff" stroke="#fff" stroke-width="0.44"/><path d="M368.52,236.19a12.56,12.56,0,0,1-.68-3.84s-.21,3.26-1,4.51" fill="#fff" stroke="#50d6cc" stroke-width="0.55"/><path d="M367.88,231.35c0,1.5.65,4.83,1.22,5.26" fill="#fff" stroke="#fff" stroke-width="0.49"/><path d="M374,238.93a13.5,13.5,0,0,0,.62-4.29s.35,3.61,1.25,5" fill="#fff" stroke="#50d6cc" stroke-width="0.55"/><path d="M374.53,233.52c0,1.69-.55,5.41-1.16,5.91" fill="#fff" stroke="#fff" stroke-width="0.55"/><path d="M379.45,251a13.93,13.93,0,0,1-.75-4.26s-.23,3.62-1.08,5" fill="#fff" stroke="#50d6cc" stroke-width="0.55"/><path d="M378.74,245.63c0,1.67.71,5.36,1.35,5.83" fill="#fff" stroke="#fff" stroke-width="0.55"/><path d="M374.27,254a12.19,12.19,0,0,0,.56-3.84s.31,3.25,1.12,4.46" fill="#fff" stroke="#50d6cc" stroke-width="0.55"/><path d="M374.77,249.12c0,1.5-.49,4.85-1.06,5.3" fill="#fff" stroke="#fff" stroke-width="0.49"/><path d="M374.43,245.43a12.58,12.58,0,0,0,.55-3.86s.31,3.25,1.12,4.46" fill="#fff" stroke="#50d6cc" stroke-width="0.55"/><path d="M374.92,240.57c0,1.5-.49,4.87-1.05,5.31" fill="#fff" stroke="#fff" stroke-width="0.49"/><path d="M381.07,235.84a12.12,12.12,0,0,1-.68-3.83s-.2,3.25-1,4.49" fill="#fff" stroke="#50d6cc" stroke-width="0.55"/><path d="M380.43,231c0,1.51.64,4.83,1.21,5.26" fill="#fff" stroke="#fff" stroke-width="0.49"/><path d="M378.49,243.66a13.41,13.41,0,0,0,.62-4.28s.34,3.62,1.24,5" fill="#fff" stroke="#50d6cc" stroke-width="0.55"/><path d="M379,238.27c0,1.66-.55,5.38-1.16,5.89" fill="#fff" stroke="#fff" stroke-width="0.55"/><path d="M382.4,249.17a11.24,11.24,0,0,0,.51-3.47s.27,2.93,1,4" fill="#fff" stroke="#50d6cc" stroke-width="0.55"/><path d="M382.85,244.81c0,1.35-.44,4.36-.94,4.76" fill="#fff" stroke="#fff" stroke-width="0.44"/><path d="M383.79,242.52a10.7,10.7,0,0,1-.61-3.46,12.45,12.45,0,0,1-.88,4" fill="#fff" stroke="#50d6cc" stroke-width="0.55"/><path d="M383.2,238.15c0,1.36.58,4.37,1.09,4.74" fill="#fff" stroke="#fff" stroke-width="0.44"/><path d="M385.23,235.36a13.84,13.84,0,0,0,.62-4.29s.34,3.62,1.23,5" fill="#fff" stroke="#50d6cc" stroke-width="0.55"/><path d="M385.77,230c0,1.68-.54,5.41-1.16,5.9" fill="#fff" stroke="#fff" stroke-width="0.55"/><path d="M390.59,242a12.3,12.3,0,0,0,.56-3.86s.3,3.26,1.11,4.47" fill="#fff" stroke="#50d6cc" stroke-width="0.55"/><path d="M391.08,237.15c0,1.5-.49,4.85-1,5.3" fill="#fff" stroke="#fff" stroke-width="0.49"/><path d="M387.24,243a12.47,12.47,0,0,1-.68-3.84s-.21,3.26-1,4.5" fill="#fff" stroke="#50d6cc" stroke-width="0.55"/><path d="M386.6,238.21c0,1.51.64,4.83,1.21,5.26" fill="#fff" stroke="#fff" stroke-width="0.49"/><path d="M386.35,226.41a13.62,13.62,0,0,1-.75-4.26s-.23,3.61-1.08,5" fill="#fff" stroke="#50d6cc" stroke-width="0.55"/><path d="M385.63,221.05c.05,1.66.72,5.36,1.35,5.83" fill="#fff" stroke="#fff" stroke-width="0.55"/><path d="M389.55,235.25a13.74,13.74,0,0,0,.62-4.29s.34,3.62,1.23,5" fill="#fff" stroke="#50d6cc" stroke-width="0.55"/><path d="M390.09,229.86c0,1.66-.55,5.39-1.17,5.88" fill="#fff" stroke="#fff" stroke-width="0.55"/><path d="M399.38,233.81a12.19,12.19,0,0,0,.56-3.84s.31,3.24,1.11,4.46" fill="#fff" stroke="#50d6cc" stroke-width="0.55"/><path d="M399.87,229c0,1.5-.49,4.85-1.05,5.3" fill="#fff" stroke="#fff" stroke-width="0.49"/><path d="M395.74,232.58a12.52,12.52,0,0,1-.68-3.84s-.19,3.26-1,4.51" fill="#fff" stroke="#50d6cc" stroke-width="0.55"/><path d="M395.1,227.74c0,1.51.64,4.84,1.21,5.27" fill="#fff" stroke="#fff" stroke-width="0.49"/><path d="M396,239a10.08,10.08,0,0,1-.55-3.12,11.43,11.43,0,0,1-.79,3.66" fill="#fff" stroke="#50d6cc" stroke-width="0.55"/><path d="M395.43,235.08c0,1.22.52,3.93,1,4.27" fill="#fff" stroke="#fff" stroke-width="0.4"/><path d="M389.36,225.88a14,14,0,0,0,.61-4.3s.35,3.62,1.24,5" fill="#fff" stroke="#50d6cc" stroke-width="0.55"/><path d="M389.9,220.49c0,1.67-.54,5.39-1.17,5.89" fill="#fff" stroke="#fff" stroke-width="0.55"/><path d="M393.17,224.77a13.84,13.84,0,0,0,.61-4.27s.35,3.61,1.24,5" fill="#fff" stroke="#50d6cc" stroke-width="0.55"/><path d="M393.71,219.39c0,1.65-.54,5.38-1.16,5.88" fill="#fff" stroke="#fff" stroke-width="0.55"/><path d="M398.75,226.94a12.42,12.42,0,0,1-.67-3.85s-.21,3.27-1,4.52" fill="#fff" stroke="#50d6cc" stroke-width="0.55"/><path d="M398.11,222.12c0,1.49.64,4.83,1.22,5.25" fill="#fff" stroke="#fff" stroke-width="0.49"/><path d="M402.77,225a12.52,12.52,0,0,1-.68-3.84s-.2,3.26-1,4.49" fill="#fff" stroke="#50d6cc" stroke-width="0.55"/><path d="M402.13,220.15c0,1.51.64,4.83,1.21,5.26" fill="#fff" stroke="#fff" stroke-width="0.49"/><path d="M405,225.91a12.28,12.28,0,0,0,.56-3.85s.32,3.24,1.12,4.46" fill="#fff" stroke="#50d6cc" stroke-width="0.55"/><path d="M405.45,221.05c0,1.5-.5,4.86-1.06,5.31" fill="#fff" stroke="#fff" stroke-width="0.49"/><path d="M409.39,224.49a10.92,10.92,0,0,1-.62-3.44s-.18,2.93-.88,4" fill="#fff" stroke="#50d6cc" stroke-width="0.55"/><path d="M408.81,220.14c0,1.36.58,4.36,1.09,4.75" fill="#fff" stroke="#fff" stroke-width="0.44"/><path d="M253.25,240.76a13.55,13.55,0,0,0,.63-4.28s.34,3.61,1.23,5" fill="#fff" stroke="#50d6cc" stroke-width="0.55"/><path d="M253.79,235.36c0,1.67-.54,5.41-1.17,5.9" fill="#fff" stroke="#fff" stroke-width="0.55"/><path d="M248.85,239.92a13.28,13.28,0,0,1-.75-4.26s-.23,3.62-1.09,5" fill="#fff" stroke="#50d6cc" stroke-width="0.55"/><path d="M248.13,234.56c0,1.67.72,5.36,1.34,5.85" fill="#fff" stroke="#fff" stroke-width="0.55"/><path d="M245.49,237.33a11.26,11.26,0,0,1-.61-3.45,12.64,12.64,0,0,1-.87,4" fill="#fff" stroke="#50d6cc" stroke-width="0.55"/><path d="M244.92,233c0,1.34.57,4.36,1.09,4.73" fill="#fff" stroke="#fff" stroke-width="0.44"/><path d="M240.32,234.8a13.5,13.5,0,0,0,.61-4.27s.34,3.62,1.24,5" fill="#fff" stroke="#50d6cc" stroke-width="0.55"/><path d="M240.85,229.41c0,1.67-.54,5.39-1.16,5.88" fill="#fff" stroke="#fff" stroke-width="0.55"/><path d="M232.6,225a13.84,13.84,0,0,0,.61-4.27s.34,3.61,1.23,5" fill="#fff" stroke="#50d6cc" stroke-width="0.55"/><path d="M233.14,219.63c0,1.66-.54,5.39-1.16,5.88" fill="#fff" stroke="#fff" stroke-width="0.55"/><path d="M230.62,221.07a10.13,10.13,0,0,1-.56-3.1,11.1,11.1,0,0,1-.78,3.63" fill="#fff" stroke="#50d6cc" stroke-width="0.55"/><path d="M230.1,217.15c0,1.22.53,3.92,1,4.26" fill="#fff" stroke="#fff" stroke-width="0.4"/><path d="M244.87,199.08a20.53,20.53,0,0,0,1.11,9.46,29.75,29.75,0,0,0-12.26-6.38c-2.55-2.48-5.2-11.49-4.25-14.72,4.87-.3,14.39,7.72,15.4,11.64Z" fill="#fff" stroke="#50d6cc" stroke-width="0.55"/><path d="M254.08,217.68c-4.42-2.88-8.48-3.72-18.36-3.47,1.5,5.53,16.55,12.14,19.06,11.68-.21-.95-.95-7.34-.7-8.21Z" fill="#fff" stroke="#50d6cc" stroke-width="0.55"/><path d="M254,217.53c-12.8-5.68-9.37-24.11-7.1-26.25,6.32,3.48,6.86,11.64,7.66,13.81a86.05,86.05,0,0,0-.56,12.44Z" fill="#fff" stroke="#50d6cc" stroke-width="0.55"/><path d="M251.73,216.26a14.41,14.41,0,0,1-5.7-7.62,27,27,0,0,0-17-7.1c.14,6,5.15,11.6,8.12,12.66,4.81,0,9.78-.24,14.59,2.08v0Z" fill="#fff" stroke="#50d6cc" stroke-width="0.55"/><path d="M303.89,243.26c-2.11,2.32-9.29,9.67-21.84,4.17a6.41,6.41,0,0,1,4.58-2.56,19.19,19.19,0,0,0,12.54-3.73,43.75,43.75,0,0,0,4.72,2.12Z" fill="#fff" stroke="#50d6cc" stroke-width="0.55"/><path d="M303.54,235.56c-3.71-2.48-7.63-2.17-11.44-3.33-.41,7.53,11.5,10.51,12.54,11.38a13.35,13.35,0,0,1,5.87-1.15c-1.4-1.07-5.37-3.08-7-6.9Z" fill="#fff" stroke="#50d6cc" stroke-width="0.55"/><path d="M327.47,243.18c1.61-.05,6.52-1.2,7.93-.1s4.21,4.32,2,6.55-4.22-.91-5.12-1.42-3.81-3.52-15.65-1.23c-5.17,1-5.18,4.35-11.1,5.55-4.33.88-4.88.05-9.84-.11,2.06-2.52,3.72-4,5.63-6.64s7.48-3.41,9.18-3.33c-2.56-1.75-8.52-4.38-8.56-14.75,3.91.9,8.58,1.85,14.18,12.84-2.15-4.62-6.05-9.42-7.77-10.18-.38-.16.21-6.79.92-7.9,4.21,4.48,4.8,4.56,6.92,6.66,3.06,3,2.5,7.45,4.11,10a9.34,9.34,0,0,0,7.17,4.1Z" fill="#fff" stroke="#50d6cc" stroke-width="0.55"/><path d="M299.17,241.14a18.86,18.86,0,0,1-18,2.47c4.87-6.15,7.93-6.25,13.16-5.94a16.43,16.43,0,0,0,4.86,3.47Z" fill="#fff" stroke="#50d6cc" stroke-width="0.55"/><path d="M254.77,225.89c-.55-.32-7.22.55-8.18,2,.31,2.62,7.47,6.6,9.48,6.06-.35-2.22-1.35-7.1-1.3-8.07Z" fill="#fff" stroke="#50d6cc" stroke-width="0.55"/><path d="M334.89,247.92c1.36.21,1.56-1.25,1.35-2.11" fill="#50d6cc"/><path d="M311.38,228.33c.61,2,4.45,6.5,5.25,9.34m-11.31-5.28a38.78,38.78,0,0,0,7.06,7.72m-16-4.27c.61.6,5.06,4.26,9.3,5.48m-10.71-1c-1.82-.22-6.88,0-9.71,2.23M298,244.35c-1.61.41-7.68,1-10.91,2.65M312,245.19c-4.85.39-7.08,4.45-11.12,5.26m-53.32-54c0,1.82.39,11.36,3.22,14M231.56,191c1.21,4.66,8.48,8.32,9.09,11.16m9.47,27c1.22-.4,3.44-.6,4.86.61m-14.54-13.41c1.82,0,10.71,2,13.33,5.9M232.36,205c2.22.8,10.1,5.48,11.92,9.15" fill="none" stroke="#50d6cc" stroke-width="0.49"/><path d="M218.78,192.06c1.66.51,6.32.47,7.83-2.7.44-.93.4-2.72,1.81-4.53s3.54-2.16,3.87-4.38c.61-4-3.91-3.49-4.8-5.75-.77-1.9.2-2.46,2.21-2.92,1.3-.29,5.37,1.25,14.14,4.84,6.42,2.63,12.24,1,14.2-.29,2.22-1.48,4.27-5.74,8.09-9.16.65-.58,9.23-3.43,12.25-8.67A14.24,14.24,0,0,0,274,141c-7.82-5.84-18.85-9.68-23.46-11.7s-11.51-3.18-12.29-9c-.35-2.57,1.85-3.6,3.67-3.54,2.4.12,5.55,1,7.46,1.19,1.41.15,6.19.75,6.94-3.74a4.9,4.9,0,0,1-.81-1.1c-.15.8-.55,2.46-3.76,2.25-3.85-.24-7.79-2.75-10.76-2.74-3.6,0-6.1,1.94-9.71,2.95s-7.71.69-9.63,4.22c-1.21,2.21-2.22,10.08,3.59,15.71s9.06,8.36,22.66,13.53c10,3.78,12.46,5.85,13.67,7.27s1.15,2.77.68,3.31c-.61.71-3.67,1.36-11.39-2a39.25,39.25,0,0,0-15.75-3.44c-3.21,0-12.09,1.61-13.65,4.73-1.8,3.62-.4,4.43-.06,9.82.1,1.53-.33,3.62.5,5.5a7.59,7.59,0,0,0,3.1,3.41c3.16,1.36,2,2.94,1,4.14s-2.41,3.47-2.07,5.39c.51,2.86-5.08,4.86-5.08,4.86ZM318.12,54.58c-3.47,1.32-4.13.8-5.32,1.75-2,1.57-3.58,3.28-4,2.57-.59-1,5.14-1.95,6.33-5.57,1-2.94-.34-3.49-1-8.29-1.08-7.4-4.66-8.66-7.27-7.86s-9.64,4.29-21.08,8.26c-8,2.79-21,4.19-23.3,8.24-.89,1.63-3.62,8.29,5.62,14.93,2.1,1.51,2.75,1.92,8.07,3.67A61.08,61.08,0,0,0,258,71.17c-19.1,1.33-39.22,19-36.79,33.07.59,3.46,5.06,2.07,8.68,2.67s4.16,2.31,6.77,1.89,3-4.35,5.67-4.75,2.41,2.23,5.21,2.22,5.13-4.73,7.15-4.53a5.45,5.45,0,0,0-1.92-.45c-1.79,1.42-4.06,2-5.47,1.15s-1.83-2.06-3.9-2c-1.2,0-2.4.63-4.91,2.46,2.1-2.57,11.11-16.26,30.31-12.28,8.78,1.82,9.84-.95,10.24-2.36s-.4-3.72,0-7.5c.33-3.07,2.21-5.24,1.61-7.26s-1.63-3-5-4.18c-1.51-.5-1.36-1.23-.71-1.78s2.76-.68,4.27-.94c2.64-.43,15.76-3.66,24.55-9.19,4.54-2.86,7.13-5.91,7.33-4.11.15,1.25-6.58,2.14-6.39,5.12.09,1.26.18,3.24,3.87,3.52,2.66.21,4.29-1.67,6.12-3.26,2.2-1.93,3.05-2.49,3.41-4.05Z" fill="none" stroke="#50d6cc" stroke-width="0.44"/><path d="M249.77,131.2c-9.75-4.07-17.24-8-12.21-15.59-5.79,2.9-15.52,1-14.94,8.53,1.9,24.83,47.19,20,43.16,40.33,10.28-1.44,19.61-17,2.43-25-6.39-3-12.6-5.82-18.44-8.29Zm26.92-56.45c1.75.43-.13,3.5-.64,6.45-.33,1.93,1.41,5.82-.17,6.7-5.38,3-27.61-8.64-40.23,16.49-1.45,2.88-4.1,0-6.42-.21-4-.39-7,.39-5.95-2.93,9.5-28.7,39.53-29.89,53.41-26.5ZM300.39,42c3.6-1.53,6.57-2.76,8.45-2.2,3.77,1.14,2.81,8.88,4.17,10.66-2.24-.76-5.89,1.69-10,4.38a60.7,60.7,0,0,1-10.35,5.52,68.72,68.72,0,0,1-10.21,3c-6.32,1.33-12.08,2.27-10.51,5-2.41-.89-10-6-7.86-11.77,1.22-3.23,5.57-4.65,10.65-5.95a126.46,126.46,0,0,0,14.17-4c4.66-1.8,7.85-3,11.47-4.58ZM226.14,157.78c17.27-6.43,25.83,6.44,37.47,4.44.2,5.23-4.28,14.48-13.32,13.87-6.26-.41-21.45-11.8-26.41-2.55-.19-6.64-3.9-13.47,2.26-15.76Z" fill="none" stroke="#50d6cc" stroke-width="0.44"/><path d="M229.76,161.2a1.19,1.19,0,0,0-1.2-.48,1.09,1.09,0,0,0-1,1.14c.08.53.64.74,1.1.85l.52.11c1,.24,1.84.68,2,1.84a2.19,2.19,0,0,1-4.29.84l.84-.3a1.32,1.32,0,0,0,1.53,1.11,1.3,1.3,0,0,0,1.06-1.53c-.1-.74-.74-1-1.37-1.14l-.5-.13c-.82-.23-1.6-.56-1.74-1.52a1.87,1.87,0,0,1,1.76-2.07,2,2,0,0,1,1.91.78l-.63.5" fill="#50d6cc"/><path d="M235.72,166.77l-.86-.08.47-6.16-1.64-.12.06-.78,4.15.31-.06.8-1.64-.13-.48,6.16" fill="#50d6cc"/><path d="M240.19,165.78l-1.35,1.34-.87-.33,5.65-5.6.55,7.95-.88-.33-.12-1.91ZM243,163l-2.15,2.19,2.31.87L243,163" fill="#50d6cc"/><path d="M247.7,170.44l-.82-.27,1.94-5.84-1.56-.52.25-.75,3.94,1.31-.25.75-1.56-.52-1.92,5.83" fill="#50d6cc"/><path d="M253.35,165l3.7.45-.1.79-2.83-.36-.24,1.94,2.75.34-.09.79-2.76-.35-.32,2.61,2.84.35-.09.79-3.69-.45.84-6.9" fill="#50d6cc"/><path d="M269.26,156.05a1,1,0,0,0-.31,1.06.94.94,0,0,0,1.06.75c.45-.11.56-.61.61-1l.06-.45c.11-.88.4-1.62,1.36-1.86a1.83,1.83,0,0,1,2.25,1.38,1.85,1.85,0,0,1-1.16,2.18l-.33-.69a1.11,1.11,0,1,0-.58-2.15c-.62.15-.76.72-.84,1.26l-.06.44c-.12.73-.34,1.42-1.14,1.61a1.59,1.59,0,0,1-1.9-1.31,1.69,1.69,0,0,1,.48-1.7l.5.49" fill="#50d6cc"/><path d="M266.85,148.15a3.11,3.11,0,0,1,3.55,5.1,3.11,3.11,0,0,1-3.55-5.1Zm.43.61a2.35,2.35,0,0,0-.62,3.31,2.32,2.32,0,0,0,3.31.57,2.4,2.4,0,0,0,.62-3.32,2.37,2.37,0,0,0-3.31-.56" fill="#50d6cc"/><path d="M264.71,144.68l-4,2.41-.64-.49,5.82-3.39-1.75,6.52-.64-.49,1.26-4.56" fill="#50d6cc"/><path d="M259,146.09l-2.77-1.55.32-.58,2.13,1.19.8-1.46-2.06-1.15.32-.59,2.07,1.15,1.08-2L258.8,140l.32-.59,2.77,1.55L259,146.09" fill="#50d6cc"/><path d="M253.75,136.86l.82.35.56,3,.29.12,1-2.28.67.3-2.42,5.41-.81-.37a3.15,3.15,0,0,1-1.31-.9,1.67,1.67,0,0,1,1.85-2.53Zm1.41,4-.22-.11c-.69-.31-1.48-.52-1.87.35s.37,1.32,1,1.62l.18.08.87-1.94" fill="#50d6cc"/><path d="M250.1,141.77l-2.94-1.22.26-.61,2.25.93.63-1.53-2.18-.91.25-.62,2.19.9.84-2.06-2.25-.94.26-.62,2.93,1.21-2.24,5.48" fill="#50d6cc"/><path d="M247,134.1l.68.28-2.26,5.47-.68-.28L247,134.1" fill="#50d6cc"/><path d="M239,133.83l.09-.22a2.74,2.74,0,0,1,3.74-1.46,3.09,3.09,0,1,1-4.33,3.56l.66-.24a2.39,2.39,0,0,0,1.3,1.65,2.36,2.36,0,0,0,3.14-1.22,2.41,2.41,0,0,0-1.1-3.15,2,2,0,0,0-2.48.79l1.39.64-.27.61-2.14-1" fill="#50d6cc"/><path d="M235.51,135.61l-1-6.37L232,132.87l-.61-.42,3.48-5.1,1,6.37,2.49-3.65.61.42-3.5,5.12" fill="#50d6cc"/><path d="M232.77,125.14l.46.59L229.08,129l.86,1.11-.54.41-2.17-2.82.54-.4.85,1.11,4.15-3.22" fill="#50d6cc"/><path d="M226.14,125.8l-.31-.8,1.82-2.28-2.88-.43-.31-.79,3.81.58,2.4-.94.27.69-2.4.93-2.4,3" fill="#50d6cc"/><path d="M226.23,98.85l6.68-1-3.77-2.64.45-.63,5.31,3.72-6.68,1L232,102l-.44.63-5.34-3.74" fill="#50d6cc"/><path d="M235.85,94.55l.59,1.61-.6.59L233.42,90l6.66,2.55-.6.58-1.59-.61Zm-1.24-3.29,1,2.56,1.58-1.55-2.55-1" fill="#50d6cc"/><path d="M242.46,90.79l-.61.48-3.33-4.4-1.17.9-.42-.57,3-2.25.42.56-1.17.89,3.32,4.39" fill="#50d6cc"/><path d="M246.06,88.38l-.66.4-3.23-5.31.67-.41,3.22,5.32" fill="#50d6cc"/><path d="M252.67,81.81a3.25,3.25,0,1,1-4.24-1.72,3.23,3.23,0,0,1,4.24,1.72Zm-.71.3A2.48,2.48,0,1,0,247.39,84,2.48,2.48,0,1,0,252,82.11" fill="#50d6cc"/><path d="M254.61,77.72l5.47,4-.82-4.54L260,77l1.16,6.38-5.47-4,.84,4.57-.77.15-1.17-6.44" fill="#50d6cc"/><path d="M264.46,81.47,263.71,83h-.83L266,76.56l2.83,6.57-.83,0-.68-1.58-2.85-.06Zm1.5-3.21-1.17,2.51,2.22,0L266,78.27" fill="#50d6cc"/><path d="M271.6,82.9l1.86.32-.12.71-2.63-.46,1.06-6.15.77.13-.94,5.45" fill="#50d6cc"/><path d="M269.77,55.9l.91,3.88c.24,1.07.8,2,2.06,1.7s1.35-1.36,1.1-2.43l-.9-3.89.81-.19,1,4.16a2.47,2.47,0,1,1-4.8,1.13l-1-4.17.82-.18" fill="#50d6cc"/><path d="M277,53.85l6.26,3.8-1.3-4.82.81-.21,1.83,6.78-6.26-3.81,1.31,4.86-.81.23L277,53.85" fill="#50d6cc"/><path d="M288.88,57.74l-.8.27L286,51.59l.8-.27,2.08,6.42" fill="#50d6cc"/><path d="M297.27,50.1a3.52,3.52,0,0,1-6.16,3.42,3.52,3.52,0,0,1,6.16-3.42Zm-.73.41a2.69,2.69,0,1,0-1,3.68,2.71,2.71,0,0,0,1-3.68" fill="#50d6cc"/><path d="M298.3,45.32l6.9,2.44L303,43.31l.74-.38,3.16,6.26L300,46.75l2.28,4.49-.75.38-3.19-6.3" fill="#50d6cc"/><path d="M257.82,153.43c7.22,3.63,5.6,9.79,5.69,10.91" fill="none" stroke="#50d6cc" stroke-width="0.44"/><path d="M331.25,166c2.94,3,3.84,8,3.92,9.24.11,1.9.4,5.65-2.41,6.05a8.54,8.54,0,0,1-5.87-1.07,2.87,2.87,0,0,0-1.28-2.09c-.92-.27-1.07-.48-1.88,0a3.45,3.45,0,0,1-2.65-.77c-1.8-2.36-2-10.51-7.36-15-3.21-2.72-4-3.72-13.24-7.85-18.58-8.29-30.15-30-31.32-31.67-1.51-2.06-4.16-4.76-6-5.24-8.48-2.22-8.58-6.15-8.83-8.47,2.11,3.48,10.43,6.26,10,4.44-.29-1.29-1.38-3.33-4.81-5.64-3-2-3.21-5.35-4.41-5.94a6.92,6.92,0,0,0-4.92-.52c3.82-8.06,13.25-2.9,13.25-2.9,2.41,2.41,4.67,5,6.12,6,1.61,1.17,2.54,2.84,9.53,4.53,9.42,1.5,16.1,3.09,18.61,3.64.77-1.45,1-11.89-.64-14.31s-3.8-4-5-9.28a92.34,92.34,0,0,0-4.81-14.91c-2-4.83,1.61-8.87,8-9.45,17.18-1.62,26,9.39,27.59,10.38" fill="none" stroke="#50d6cc" stroke-width="0.58"/><path d="M352.62,149c10,11.24,19.48,33.59,19.86,36.53-.1,4-2.45,2.28-3.66,1.36,0,1.87-2.66,1.86-4,.25-.61,2.42-3.42,1.67-5-.4.51,2.11-3.16,2.26-4.61,0,.39,1.48-2.37.86-3.21-.4,0,.81.14,2.07-2.21.4-2.6-3.83-19.39-21.56-18.56-20.73" fill="none" stroke="#50d6cc" stroke-width="0.58"/><path d="M335.5,164.26s5.9,6.25,6.71,7.21,2.23,3.2.91,4.25c-1.52,1.22-4.35-1.42-4.65-1.71-.51-.52-9.85-10.82-9.85-10.82s11.81,13.91,14,12.19-7-10.91-7.16-11.12" fill="#50d6cc"/><path d="M352,186.37c0-2.92-7.48-12.42-9.3-14.34m12.52,14.73c-.7-5.18-7.3-14.47-9.17-16.81m13.77,16.82c-.55-3.6-5.95-14.68-8.57-17.93m13.6,18.33c-.38-2.45-7.18-16.5-10.16-19.95m14.23,19.7c.27-3.56-3.93-12.45-13.92-26.5" fill="none" stroke="#50d6cc" stroke-width="0.58"/><path d="M349.46,152.75c.27.35,8.53,11.71,9.79,13.81,1,1.67,1.16,3.49.16,4.11s-2.43-.86-3.49-2-9.95-13.45-10.76-14.46,8.13,10.91,9.2,12.53c.71,1.12,1.19,2.58.6,3.3s-2.52.15-3.14-.55-7-8.58-7.06-8.78,5.55,6.74,6.21,7.77a2.78,2.78,0,0,1-.51,3.85c-.59.4-1.8-.3-3.21-1.49-3.08-2.59-6.43-7.5-8-8.82,1.72,1.54,4.3,5,6,6.85s2,3.56.86,4.27-2.48-.25-3.54-1.42-6.26-6.6-7-7.42,6.09,6.48,6.71,7.21" fill="none" stroke="#50d6cc" stroke-width="0.58"/><path d="M256.49,111.23c-.45-.86.15-.46-.8-1.77,2.85,1.57,4.57-.54,7.12,1.27.65.75,1.86,2.56,1.46,3.12C263.66,114.91,258.59,112.89,256.49,111.23Z" fill="none" stroke="#50d6cc" stroke-width="0.55"/><path d="M263.5,98.54l.19.62s-.93,4.52.81,7.44a14.85,14.85,0,0,1,2.4,6.5c.15,2.94-1.64,5-3.46,4.55" fill="none" stroke="#50d6cc" stroke-width="0.55"/><path d="M263.48,98.53c9.53-3,13,8.37,20.36,8.38-1.71,1.6-5.36,1.6-9.24.8s-11.12-9.18-11.12-9.18Z" fill="#fff" stroke="#50d6cc" stroke-width="0.58"/><path d="M268.28,107.61c1.5,1.21,5.62-.1,5.62-.1a24,24,0,0,1-6.51-4.94C266.18,105.7,267.4,106.89,268.28,107.61Z" fill="#fff" stroke="#50d6cc" stroke-width="0.44"/><path d="M269.13,106.38c.77.63,2.88,0,2.88,0a12.42,12.42,0,0,1-3.33-2.53c-1,1,0,2.21.45,2.59" fill="#50d6cc"/><path d="M301.46,154.93c-2.31.38-2.72,11.88,2,14.87.2-.9,1.5-.85,2.66.5.4.49.39,1.56.14,1.71.62,1.72,2.21,2.38,4.46,2.52a6.93,6.93,0,0,0,7-6.45,15.7,15.7,0,0,0-5-6.59,44.29,44.29,0,0,0-11.22-6.56Z" fill="none" stroke="#50d6cc" stroke-width="0.58"/><path d="M306.46,171.42c0,1.41-3.21,2.21-1,4.64s2,2.21,3.41,2.82,4.22-.21,3.81,2.22-3.71,1.71-4.82-.11c-.52-.86-2-2.62-4-2.11-1.74.43-2,.79-2.81,2.62s-1.42,3-3,2-.59-2,.41-3,1.6-1.4,1.4-2.42-2.4-1.2-4-.8-2.81-1.41-2-2.42,3.21-.8,4.21,0,3.4,1.82,4.41,1.41.81-5,1-6.44,3-.12,3,1.61Z" fill="#fff" stroke="#50d6cc" stroke-width="0.58"/><path d="M326.72,179.55c.86,2.29-2.76,5-.56,7.44s4.51,1.59,6,1.42c.91-.09,4.22-.19,3.81,2.22-.31,1.92-3.89,1.18-7,0-.94-.36-3.11-1.2-4.71-.42s-1.86,1.57-2.21,3.84c-.31,2-1.86,2.91-3.47,1.9s-1-2,0-3a4.56,4.56,0,0,0,1.16-3.72c-.2-1-2.41-1.2-4-.81s-2.8-1.4-2-2.42,3.21-.8,4.21,0,3.42,1.82,4.43,1.42,1.15-7.84,1.35-9.25a2.12,2.12,0,0,1,3,1.4Z" fill="#fff" stroke="#50d6cc" stroke-width="0.58"/><path d="M308.1,161.15a10.64,10.64,0,0,1,4.66,5.78" fill="#50d6cc"/><path d="M307.6,165.42a9.69,9.69,0,0,1,2.62,4.05" fill="#50d6cc"/><path d="M303.05,163.78c.21.92,0,1.74,1.32,3" fill="#50d6cc"/><path d="M322.4,173.28c.1,2.13,3.19,2.65,3.38,3.71" fill="#50d6cc"/><path d="M320.13,167.1a4.11,4.11,0,0,1,4.09,2.94,7,7,0,0,0-4.09-2.94" fill="#50d6cc"/><path d="M332.16,179c-1.69-5.85-4.68-6.7-4.46-5.82,1.67,1.57,1.71,1.29,2.37,2.25,1.38,2,1.79,4.07,2.09,3.57" fill="#50d6cc"/><path d="M333.11,178.21c-.29-2.22-1.36-1.89-1.29-1.22a4.69,4.69,0,0,1,.74.95c.12.29.3.6.55.27" fill="#50d6cc"/><path d="M336,189.83a2.11,2.11,0,0,1,2.06,2.67c-.76-1.66-2-1.37-2.41-1.11,0,0,.65-.87.35-1.56" fill="#50d6cc"/><path d="M313.62,186.19a2.1,2.1,0,0,0-2.3,2.45c.9-1.58,2.13-1.16,2.5-.86a1.88,1.88,0,0,1-.2-1.59" fill="#50d6cc"/><path d="M312.73,180.83a2.11,2.11,0,0,1,1.37,3.08c-.34-1.79-1.63-1.8-2.08-1.65,0,0,.84-.69.71-1.43" fill="#50d6cc"/><path d="M293.64,175.26a2.11,2.11,0,0,0-1.92,2.77c.67-1.7,1.94-1.47,2.36-1.24a1.76,1.76,0,0,1-.44-1.53" fill="#50d6cc"/><path d="M297.42,183a4.12,4.12,0,0,0-.33,2.86c1.12-1.82,1.5-1.87,1.94-2a2.7,2.7,0,0,1-1.61-.86" fill="#50d6cc"/><path d="M318.45,195.45a4.19,4.19,0,0,0-.34,2.86c1.12-1.82,1.49-1.88,1.94-2a2.71,2.71,0,0,1-1.6-.85" fill="#50d6cc"/><path d="M317.87,161.25c-.21,1,1.31,1,1.41,2.23" fill="#50d6cc"/><path d="M310.49,159.78c4.73,2,5.48-2.16,4.5-2.79l-.16-.1c1.57.61,1.36,6.91-4.34,2.89" fill="#50d6cc"/><path d="M281.64,120.32c-2,.84-3.2-1.79-2.47-3.44-2.61,2,.86,5.51,3,4.39,2.59-1.36,1.43-5.45-1.55-4.09,2-.09,2.87,2.34,1,3.14" fill="#50d6cc"/><path d="M278.55,123.83c-1.38,1.16-2.6-.31-2.63-1.71-1.08,1.9,1.65,3.7,3.21,2.45,1.8-1.46.62-5.32-2.73-3.61,2.83,0,3.28,1.93,2.15,2.87" fill="#50d6cc"/><path d="M274.1,127.87c-1.8.11-2.35-1.05-1.65-2.34-1.46,1.13-.33,3.36,1.68,3.27,2.45-.09,3-2.69,1-4,1.13,1.78.81,2.92-1.07,3" fill="#50d6cc"/><path d="M288.58,119.7a1.6,1.6,0,0,1-1.05-2.4c-2,1.7.1,3.15,1,3.35,2.17.47,3.82-2.17,1.25-3.93,1.17,1.67.61,3.42-1.15,3" fill="#50d6cc"/><path d="M278.6,132.45c-.43,1.42-2.22.57-2.58-.64-.39,2.23,2.7,2.46,3.22.88.63-1.92-1-3.07-2.47-1.87,1.34-.34,2.29.15,1.83,1.63" fill="#50d6cc"/><path d="M283.52,135.78c-.18,1.8-2.81,1.25-3.64-.09.12,2.76,4.32,2.21,4.56.21.29-2.44-3.22-4.35-4.47-.63,2.06-2.1,3.73-1.37,3.55.51" fill="#50d6cc"/><path d="M286.55,131.82c-.17,1.82-2.8,1.25-3.63-.09.11,2.76,4.31,2.22,4.55.22.29-2.46-3.22-4.35-4.47-.64,2.06-2.09,3.74-1.36,3.55.51" fill="#50d6cc"/><path d="M294.18,121.41c-1.65-.74-.29-3.07,1.23-3.44-2.63-.75-3.46,3.42-1.64,4.26,2.23,1.06,5.13-1.67,2-4,1.33,2.62.11,4-1.61,3.23" fill="#50d6cc"/><path d="M299.65,117.36c-.17,1.82-2.17,1.21-2.61.37a1.79,1.79,0,0,0,3.55-.24c.29-2.44-3.22-4.35-4.47-.64,2.05-2.09,3.72-1.36,3.53.51" fill="#50d6cc"/><path d="M279.2,111.25c.7.35,1,2.34.45,2.85s-1.57,1.26-1.56.49a3.46,3.46,0,0,0,1.11-1.27,2.69,2.69,0,0,0,0-2.07" fill="#50d6cc"/><path d="M276.51,114.94a2.32,2.32,0,0,0-3-.5c-.69.55-.56,1.8.3,2.8s2.11,1.36,2.8.8A2.37,2.37,0,0,0,276.51,114.94Zm-.59,2.5c-.49.4-1.38.15-2-.54s-.68-1.6-.18-2a1.7,1.7,0,0,1,2.19.25A1.78,1.78,0,0,1,275.92,117.44Z" fill="#50d6cc"/><path d="M273.43,119.68c-.93.86-2.05-.41-2.57-1.4.21,1.86,1.82,2.86,3,2.07,1.42-1,1.15-2.82-.85-3.93,1.44,1.57,1.52,2.3.45,3.26" fill="#50d6cc"/><path d="M271.56,120c-.86-1-2.42-1.36-3.11-.8s-.55,1.81.3,2.81,2.11,1.34,2.8.8A2,2,0,0,0,271.56,120Zm-.69,2.2c-.5.41-1.39.17-2-.53s-.69-1.59-.19-2a1.93,1.93,0,0,1,2.3.54A1.39,1.39,0,0,1,270.87,122.2Z" fill="#50d6cc"/><path d="M283.7,115.72a1.18,1.18,0,0,1,.48-2.29c-2.35-.86-2.68,1.85-1,3,2,1.44,5.8-.2,3.24-2.54,1.2,2.34-1,2.56-2.69,1.79" fill="#50d6cc"/><path d="M286.29,119.91a1.55,1.55,0,0,0-1.12.32c-.69.54-.55,1.79.31,2.79s2.11,1.37,2.79.81a2,2,0,0,0,0-2.79,3.1,3.1,0,0,0-2-1.13Zm-.09.61a2.25,2.25,0,0,1,1.51.72,1.38,1.38,0,0,1-.11,2c-.49.39-1.39.15-2-.55s-.69-1.6-.19-2A1.21,1.21,0,0,1,286.2,120.52Z" fill="#50d6cc"/><path d="M284,123a2,2,0,0,0-1.19.4c-1.2,1,0,2.86.35,3.24,1,1.15,2.44,1.57,3.24.94s.88-2.45-.11-3.59a2.84,2.84,0,0,0-2.29-1Zm.32.6a1.87,1.87,0,0,1,1.31.62c.7.81,1,2.35.39,2.81s-2,0-2.71-.8-.8-1.84-.22-2.3A1.85,1.85,0,0,1,284.28,123.55Z" fill="#50d6cc"/><path d="M291.2,112.79a3,3,0,0,0-2.17,1.06c-.56.86,0,2.2,1.34,3,1.56.93,2.83.69,3.37-.15a2.81,2.81,0,0,0-.92-3.57,2.69,2.69,0,0,0-1.62-.33Zm.31.56a1.59,1.59,0,0,1,.77.21,2.44,2.44,0,0,1,.94,2.74c-.41.62-1.91.65-2.83.11s-1.33-1.51-.93-2.12A2.67,2.67,0,0,1,291.51,113.35Z" fill="#50d6cc"/><path d="M308.42,150.28a2.39,2.39,0,0,1,3.19,2.65c-.31,1.78-3,2.17-4.05,1,1.57.3,2.48.3,3.13-.91s-.54-2.3-2.27-2.76" fill="#50d6cc"/><path d="M309.1,143.65c.62.58,1.19,1.92-.17,2.23s-2.39-.76-1.71-2.06c.28.75.34,1.67,1.36,1.55s.52-1.72.52-1.72" fill="#50d6cc"/><path d="M303.51,145.79c-.35-.39,2-1.92,3.53-.46s.29,3.73-1.22,3.57c.58-.52,1.68-1.35.93-2.64s-2.44-.8-3.24-.47" fill="#50d6cc"/><path d="M302.36,148.23c1.63-.69,5.41,1.82,2.62,4.29s-5.31-1-5.3-2.37c1.1,1.32,3.35,3,4.65,1.71s.44-2.52-2-3.63" fill="#50d6cc"/><path d="M308.55,126c.77-.24,2.33.22,2.17,1.58a1.86,1.86,0,0,1-2.37,1.82c-1.22-.34,1.57.21,1.52-1.77s-1.62-1.53-1.32-1.63" fill="#50d6cc"/><path d="M306,131.54c.35-1.15,3.55-2.67,4.72,0s-.88,3.9-3.22,2.38c1.83.62,3.57-.14,2.64-1.86-1.15-2.09-3-1.18-4.13-.53" fill="#50d6cc"/><path d="M300.09,129.35a1.92,1.92,0,0,0-1.75,1.39c-.86,2.09,1.94,3.24,2.8,3.46s2.64.36,3.44-1c1.14-2-1.92-3.36-2.86-3.55A6.06,6.06,0,0,0,300.09,129.35Zm.68,1c.32,0,.59.09.75.11,1.6.27,2.86,1.32,2.07,2.23a2.71,2.71,0,0,1-2.64.73c-.43-.14-2.51-1.23-1.79-2.32A1.68,1.68,0,0,1,300.77,130.34Z" fill="#50d6cc"/><path d="M303.09,140.25a1.29,1.29,0,0,0-1.18.93c-.58,1.41,1.31,2.2,1.89,2.35a2.07,2.07,0,0,0,2.33-.68c.78-1.34-1.3-2.26-1.93-2.39A4.47,4.47,0,0,0,303.09,140.25Zm.25.67a2.7,2.7,0,0,1,.73.07c1.08.18,1.93.88,1.4,1.51a1.87,1.87,0,0,1-1.79.49c-.29-.1-1.71-.83-1.22-1.56A1.1,1.1,0,0,1,303.34,140.92Z" fill="#50d6cc"/><path d="M299.13,142.62c.37-.53,2.73-.26,3.28,1.27a2.8,2.8,0,0,1-2.68,3.56c1.61-.91,2.07-2.34,1.78-3.1a2.91,2.91,0,0,0-2.38-1.73" fill="#50d6cc"/><path d="M294.33,146c1.5-.64,5.76,2.34,3.18,4.61s-4.9-.91-4.9-2.19c.95,1.85,3.15,2.82,4.29,1.59,1.41-1.53,0-3.15-2.57-4" fill="#50d6cc"/><path d="M304.73,136a1.9,1.9,0,0,0-1.74,1.38c-.87,2.09,1.93,3.25,2.8,3.46s2.64.37,3.43-1c1.14-2-1.91-3.36-2.86-3.55A6,6,0,0,0,304.73,136Zm.69,1a5.65,5.65,0,0,1,.75.11c1.6.27,2.86,1.29,2.07,2.23a2.76,2.76,0,0,1-2.65.72c-.43-.14-2.51-1.23-1.79-2.32A1.7,1.7,0,0,1,305.42,136.94Z" fill="#50d6cc"/><path d="M302.82,126.43c-.32,0-.65.23-.87.94a2,2,0,0,0,1.38,2.38,1.28,1.28,0,0,0,1.71-.7c.56-1.35-1-2.29-1.42-2.42A2.38,2.38,0,0,0,302.82,126.43Zm.37.78a.92.92,0,0,1,.39.06c.8.2,1.37.79,1,1.43a1.15,1.15,0,0,1-1.32.52c-.21-.1-1.24-1-.68-1.6a1.19,1.19,0,0,1,.63-.41Z" fill="#50d6cc"/><path d="M304.85,126.08c0-.41-.6-2.75,1.82-2.49s-1.86-1.12-2.43.16.67,3.13.61,2.33" fill="#50d6cc"/><path d="M306.42,121.87c.41-.62,1.32-2.1,3.79-.81,1.37.72-.09-1.46-1.76-1.42-2.23.07-2.79,3.4-2,2.23" fill="#50d6cc"/><path d="M300.45,134.55c.79-.34,3.19,2,1.66,3.66s-4.79-.3-4.38-3.3c.45,2.55,2.69,3.68,3.58,2.55s-.05-2.25-.86-2.91" fill="#50d6cc"/><path d="M298.63,141.8c1.46-.14,1.71-2.52.55-3.33s-3.23-.71-3.43,1.35c.8-1.21,2.09-1.44,2.88-.71a1.75,1.75,0,0,1,0,2.69" fill="#50d6cc"/><path d="M292.87,145c1.39,1.12,3.63-.73,3.31-2.43S294,139.2,292,140.83c1.73-.38,3.05.54,3.11,1.83a2.11,2.11,0,0,1-2.27,2.34" fill="#50d6cc"/><path d="M287.92,145.34c2.06.18,2.71-2.41,1.58-3.94s-4.31-1.53-4.39,1.14c1-2.37,2.85-1.61,3.71-.49s1,2.59-.9,3.29" fill="#50d6cc"/><path d="M286.65,136.88c1-.45,3.89.31,3.23,2.59s-2.77.2-3-1c.51.62,2.17,2,2.38.75.28-1.75-1.16-2.17-2.58-2.32" fill="#50d6cc"/><path d="M291.18,135.94c1-.48,4.09.32,3.4,2.72s-2.93.22-3.2-1.06c.54.64,2.29,2.14,2.5.8.3-1.85-1.22-2.3-2.7-2.46" fill="#50d6cc"/><path d="M296.69,133.56c-.21,2.1-2.16,1.69-3.27.92,1.4,2.24,4.06,1.56,4.34-.77.34-2.83-2.76-4.8-5.17-1.74,3.16-1.41,4.31-.58,4.1,1.59" fill="#50d6cc"/><path d="M297,128.22c.43,1.42,0,2.25-1.9,1.79,1.79,1.8,3.79,0,2.9-2.18-1.07-2.65-4-2-4.37.11a1.85,1.85,0,0,1,3.37.28" fill="#50d6cc"/><path d="M298.41,124.88a1.47,1.47,0,0,1-.35,2.13c.59.54,2.43-.79,1.21-2.77s-3.61-1.16-3.59.12c1.21-.69,1.84-.78,2.73.52" fill="#50d6cc"/><path d="M302.61,122.89c-.24.91-.94,1.21-2.12,1a1.8,1.8,0,0,0,3.19-.83c.71-2.2-2.42-3.87-4.08-2.18,2-.35,3.43.42,3,2" fill="#50d6cc"/><path d="M302.82,118c.21-.93.9-1.25,2.07-1.14a1.79,1.79,0,0,0-3.13,1c-.61,2.24,2.58,3.79,4.16,2-2,.42-3.44-.29-3.1-1.83" fill="#50d6cc"/><path d="M289.88,131.35c-.32,0-.65.23-.87.94a2,2,0,0,0,1.39,2.38,1.27,1.27,0,0,0,1.71-.69c.57-1.36-1-2.3-1.42-2.43A2.13,2.13,0,0,0,289.88,131.35Zm.37.77a.75.75,0,0,1,.39.08c.79.18,1.37.78,1,1.42a1.09,1.09,0,0,1-1.31.49c-.21-.09-1.23-1-.68-1.57A1.08,1.08,0,0,1,290.25,132.12Z" fill="#50d6cc"/><path d="M289.14,126.92c-.37,0-.75.26-1,1.09-.5,1.67,1.12,2.57,1.61,2.75a1.46,1.46,0,0,0,2-.81c.67-1.57-1.1-2.66-1.63-2.8A3.07,3.07,0,0,0,289.14,126.92Zm.43.91a1,1,0,0,1,.45.07c.92.22,1.58.92,1.13,1.67a1.3,1.3,0,0,1-1.52.57c-.25-.13-1.44-1.14-.79-1.84A1.28,1.28,0,0,1,289.57,127.83Z" fill="#50d6cc"/><path d="M292.78,125.86a1.57,1.57,0,0,1-2.72-.85c-.47,1.87,1.72,2.85,3.29,1.59,1.93-1.53,1.31-4.54-1.71-4,2.2.49,2.58,2,1.14,3.22" fill="#50d6cc"/><path d="M282.23,128.26c-.15,1.65-1.48,1.65-2.63,1.46,1.5,1.51,3.23.49,3.42-1.34.25-2.25-2.37-3.23-3.39-1.3,1.47-.87,2.76-.52,2.6,1.18" fill="#50d6cc"/><path d="M293.29,77.59c-.47,1.18-1.3,1.64-2.91,1.26a2,2,0,0,0,3.34-1.16c.2-.91-.79-2.68-3.08-2.07,2.06.08,2.73,1.57,2.65,2" fill="#50d6cc"/><path d="M301,69.44c-.75,1.67-4,1.82-6.27,1.29,2.19,1.63,6.46,1.57,7.16-.93.3-1.38-.37-3.84-3.85-2.88,2.93.1,3.14,1.58,3,2.52" fill="#50d6cc"/><path d="M294.22,72c-.68,1.48-1.84,1.85-4.09,1.31,2.19,1.63,4.41.51,4.77-1.17.3-1.37-.37-3.83-3.85-2.88,2.93.09,3.36,1.8,3.17,2.74" fill="#50d6cc"/><path d="M298.79,81.86c-.24-2.12-3.59-2.57-6-2.11,2.68-1.41,6.62-.3,6.68,2.13s-2.06,4.26-5.23,2.55c2.87.56,4.79-.44,4.54-2.57" fill="#50d6cc"/><path d="M307.25,70.86c-.13,1.23-2,1.22-3,1,1.37,1,3.21.46,3.46-.9s-.77-2.55-2.94-2c2,.08,2.65.65,2.51,1.88" fill="#50d6cc"/><path d="M312.09,72.39c-.17,1.58-2.63,1.32-3.91,1,.3.23-.35.31,0,.45,1.79.67,4.14.34,4.42-1.35s-1-3.25-3.73-2.51c2.49.1,3.37.82,3.2,2.39" fill="#50d6cc"/><path d="M308.69,75.47c-.17,1.57-2.3,2.82-5.26,2.42,3.63,1.19,5.48-.58,5.79-2.3s-1.74-3.46-4.51-2.73c2.48.09,4.14,1,4,2.61" fill="#50d6cc"/><path d="M310,77.41c2.72,0,4.3,1.28,3.13,2.56s-3.61.85-4,.8c.64.58.58,1.44-.27,2.39a2.28,2.28,0,0,1-2.55.27,2,2,0,0,1,.53,2.55c-.8,1.61-3.93,1-4.35.49a2.09,2.09,0,0,1-.8,2c-.79.58-2.34.8-2.81.25,1.59-.14,2.29-.44,2.87-1.59.31-.63-.32-1.27-1.28-2.07,1.44.86,4.51,2,5.68.48.48-.62.37-2-2.82-3.3,1.55.53,4.24,1.14,5.1.28s.06-2.26-2.54-2.94c2.07.48,6,1.5,6.58.16.48-1.1-.2-1.71-2.44-2.3" fill="#50d6cc"/><path d="M299.8,76.49c-.68,1.47-4.09,1.68-6.33.7,2.3,2,6.63,1.13,7-.57.3-1.37-.37-3.83-3.85-2.88,2.93.09,3.36,1.82,3.18,2.75" fill="#50d6cc"/><path d="M300.15,95.57C300,97.37,297.5,97.34,296,97c2,1.5,4.9.7,5.05-1.31.21-2.69-3.13-4.21-6.31-3.33,2.86.09,5.59.73,5.39,3.21" fill="#50d6cc"/><path d="M303.35,101.41c-.15,1.8-2.65,1.8-4.14,1.44,2,1.5,4.91.71,5.06-1.31.21-2.69-3.13-4.21-6.32-3.34,2.87.09,5.6.73,5.4,3.21" fill="#50d6cc"/><path d="M306.14,107c-.14,1.62-2.28,1.66-3.63,1.35,1.81,1.34,4.18.59,4.57-1.18.48-2.19-1.36-3.47-4.2-2.43,2.72-.11,3.41.4,3.26,2.26" fill="#50d6cc"/><path d="M306,112.7c-.18,1.8-2.65,1.79-4.13,1.43,2,1.49,4.81.71,5.05-1.32.3-2.44-1.78-3.93-5-3.07,2.87.1,4.24,1.09,4.05,3" fill="#50d6cc"/><path d="M311,104.61a2.9,2.9,0,0,1-4.5-1.15c-.49-1.45,1.77-1.62,3.46-1.93-.33-.08.09-.28-.23-.32-2.25-.4-4.55.54-4.17,2.47.42,2.2,3.67,3.38,5.86,1.31-.31.14-.16-.55-.42-.38" fill="#50d6cc"/><path d="M309.18,98.41a3,3,0,0,1-4.94-1.15c-.37-1.27,1.71-2.12,3.23-2-.23,0,0-.27-.25-.29-2-.17-4.23.81-3.9,2.5.44,2.32,3.75,3.51,6,1.32-.17.07-.05-.45-.18-.34" fill="#50d6cc"/><path d="M306.14,91.65c.64,2.24-.85,2.57-2.4,2.4s-2.21-1-1.42-1.8c0-.7-.23-.36-.36-.25-1.58,1.38.48,2.57,1.8,2.72,2.07.22,3.55-.79,2.67-3.1,0,.14-.33-.09-.29,0" fill="#50d6cc"/><path d="M298.38,89.78c-.15,1.81-2.26,1.31-3.92,1.22,1.88,1.33,4.69.85,4.85-1.15.21-2.71-2.87-3.84-6.07-3,2.87.08,5.33.4,5.14,2.89" fill="#50d6cc"/><path d="M318,77.81c0,.23-1.3.64-1.3.64a5.36,5.36,0,0,1-2.43-.08,3.06,3.06,0,0,0,1.78.56l2.42-1.35c.24-1.35-1.51-2.66-3.69-2.06,2,.06,3.46.7,3.22,2.29" fill="#50d6cc"/><path d="M312.93,116.24c-.15,1.5-2.2,1.48-3.42,1.19,1.66,1.23,4,.58,4.19-1.08.23-2-1.48-3.27-4.11-2.54,2.36.07,3.49.88,3.34,2.43" fill="#50d6cc"/><path d="M290.56,111.19c11.38,2.1,16.94,4.64,22,8" fill="none" stroke="#50d6cc" stroke-width="0.58"/><path d="M311.22,121.53c3.82-5.12,2.32-12,1.83-14.2a25,25,0,0,0-3-7c-3.47-5.32-4.8-9.76-3.49-14.21s10.63-7.44,14.26-9.46,4.62-3.92,10.49-6.75c8.82-4.22,15.81-2.3,29.66-.28S399.09,83,405.1,86.84s2.15,6,.2,5.64c3.67,1.39,5.53,4.46,5.45,6.47s-1.75,2.49-8.27.17c3.79,2.49,2.83,5.06-1,4.52-4.66-.23-12.89-3.12-15.05-4.52,1.89,2.35,2,3.89.71,5.09-2.95,1.38-6-.19-11.34-1.46,2.85,7-5.38,5.47-8.24,3.82.8,5.49-4.36,5.28-7.62,3.82,2.6,2.06,9.62,12.3,11,14.72,1.18,2.36,2.87,8.57-4.49,1.15-2.39-2.39-.31.18-4.65-5.24,4.21,5.22,2.41,2.62,5,5.84,5.45,6.92,5.74,8.37,4.37,9.74-2.1.3-4.61-2.14-14.7-13.83,12.76,15.81,6.13,14.38,5,13.88s-6.13-4.72-9.53-8.2l-.67-.64c.81,1.06-.71-.26,0,.65.89,1.15,1.48,3,.16,4.37a2.37,2.37,0,0,1-2.94-.05c-2.06-2-7.47-5.38-8.88-6.56,2.62,2.17,7.27,5.08,8.88,6.56,2.31,2.1,3.65,4.5,2.32,6.23-.65.85-2.82.77-4.29-.51-.37-.32-5.9-4.27-7.78-5.73,3.29,2.44,8.63,6.26,10.2,7.61,2.07,1.77,5.29,6.4,4.24,8a1.55,1.55,0,0,1-.62.55c-1.44.74-4-.54-4.74-1.16s-7.88-6-10.3-7.76c1.31,1,9.2,7,10.1,7.62,1.52,1.09,2.62,5.64,1.16,6.53s-2.42.46-3.69-.15-5.86-4.56-8.64-6.74c2.27,1.83,7.27,5.64,8.33,6.7.57.57,3.69,4.92,1.81,6.33-1.15.88-3.83.61-5.76-.65-.94-.63-2.77-2.13-4-2.8" fill="none" stroke="#50d6cc" stroke-width="0.58"/><path d="M309.62,95a11.37,11.37,0,0,1-.22-6.51c1.31-4.44,10.14-7.25,13.75-9.27s4.63-3.94,10.5-6.75c8.82-4.22,15.91-2.81,29.76-.79,7.58,1.12,18.41,4.77,27.44,8.93C381.47,76.76,372,73.16,363.23,72c-9.69-1.25-19.34-4-29.35.76-6.1,2.95-7.8,5.25-10.53,6.78s-12.28,5.57-13.2,9-.08,3.75.1,4.76c.24,1.36,0,2-.63,1.6" fill="#50d6cc"/><path d="M326,142.88c1.82,1.48,5.86,3.2,6.67,1.68s.46-2.63-2.27-4.47c2.17,1.43,6.82-.5,2.23-4.75,5.5,2.59,6.16-3.4,3.23-5.33,3.13,1.22,5.26-2.73,1.62-5.28,2.38.56,5.21-1.25,1.77-4.51,6.22,4.12,10.56,2.8,8.8-1.56,6.93.35,2.38-5.34-3.27-8.42,6.82,2.49,9.95-2.75,5.31-4.27,5.46.15,7-4,1.32-5.57,3.89.2,9.35-3.61,2.07-5.83,15.67,6.35,21.94,2.08,14.52-2.59,2.21.4,6.42-5.47-1.66-6.19,4.34,1.17,12.73-4,1.92-6.54,0,0-10-2.49-14.15-3.11.35.46,12.17,3.06,14.14,3.67s4.45,2,3.79,3.55-3.09,2.39-6.41,1.77S354.77,83,354.12,82.94c1.22.35,10.66,3,11.62,3.2s4.92,1.38,4.45,3.16c-.56,2.07-2.63,2-4.1,1.87S355.17,88.73,354,88.53s12.69,3.45,13.3,3.85,3.13,2,2.82,3.26-5.2,1.42-7.83.76-20.91-5.5-21.32-5.4c1.57.51,10.92,3.41,12.07,4s3.79,1.31,3.34,2.63-4,2.43-5.46,2.18-14.95-3.31-17-3.71c2,.66,16.23,4.16,17.19,4.67s3.58,1.79,3,2.84-2.07,1.93-4.44,1.47-14.76-4.12-16-4.43c2.17.92,15,5.14,15.81,5.75s2.68,1.42,1.72,2.55-4.5.94-6,.59-12.47-3.76-13.69-4.12,11.6,4.7,12.73,5.29c2.42,1.28,7.58,5.65,6.37,6.55a3.89,3.89,0,0,1-3.95.15c-.35-.15-14.44-6.3-15.1-6.7,1.77.77,15,7.26,15.66,8.08a2.11,2.11,0,0,1-.46,2.94c-.91.45-3.15,0-5.82-1.42-2.92-1.53-10.65-4.22-12.78-4.22,2,.46,9.1,3.3,10.61,4.52,1.26,1,1.87,2.39,1.21,2.94a3.57,3.57,0,0,1-3.23.24,68.27,68.27,0,0,0-9-3.75c2.32,1.1,7.78,4,8.89,4.82,1.41,1,2.46,2.7,2,3.61s-2.12,1.05-3.23.6-11.67-5.19-12.78-5.63S334,129.1,335,130.06s2.37,3.25,1.65,4.22-2.63,1-4.24.15c-1.9-1-9.19-5.49-10.2-6.31,1.41,1.08,9.5,6.9,10.2,7.93s1.81,2.59,1.06,3.24-3.13.2-3.69-.26-9.34-6.39-10.25-6.94c2.07,1.86,9.5,8,10.35,8.71s2.88,2.7,2,3.36-4.39-1.25-5.1-1.57-2.17-.7-2.47-.91,2.47,2,1.45,2.79-1,.46-2.11.62c1.11.81,4.14,3.44,2.42,4.77s-5.2-1.12-5.45-1.63,1.51,2,.4,2.89-2.93-.3-3.19-.56,1.72,1.22.56,2.44-2-.25-2.28-.55c-.14.35-.06,1.46-1.12,1.46-.75,0-1.19-.76-1.61-1.21.05.35.54,2.36,1.82,2,.75-.19,1.17-.71,1.16-1.12.45.51,1.92.91,2.47.36a2,2,0,0,0,.36-2,2.29,2.29,0,0,0,2.37,0,1.63,1.63,0,0,0,.4-2c.71.76,3.65,2,5,.16s-1-3.95-1.56-4.41c.56.15,2.52-1.05.66-2.73" fill="#50d6cc"/><path d="M352.16,70.25c6.47.41,8.79,2,8.23,4.57-.39,1.78-2.63,1.82-3.84,1.62,1.81,1.11,1.56,2.44,1.41,3.76-.2,1.83-2,2.69-3.84,2.72,1.16.36,3.14,1.54,2.82,3.26a2.59,2.59,0,0,1-2.73,2.43c1.07.41,2.78,1.17,2.18,3.51s-2.53,2.38-6.07,1.52c3.18.91,5.46-.65,5.46-1.78a2.69,2.69,0,0,0-2.11-2.74c-1.42-.2-13.7-3.55-14.51-3.55,2.17.2,12.93,2.34,13.75,2.43s2.91-.4,3.08-1.42c.31-1.82-1.31-2.83-2.62-3.14l-12.18-2.85c2.12.27,10.2,1.55,11,1.58,1.92.11,4.75-.46,4.84-2,.06-.94-.4-2.8-1.51-3.3A39.58,39.58,0,0,0,344.42,75a69.34,69.34,0,0,1,11.07.83c2.12.21,4-.4,4.1-1.31.26-1.73-1.52-3.66-7.42-4.27" fill="#50d6cc"/><path d="M389.2,79c11.52,5.17,20.45,9.3,19,12.14-.76,1.51-2.25,1.23-2.95,1.34,4.26,1.35,6.13,5.77,5.12,7.59s-7.27-.77-7.94-1c1.46.74,3.84,3,1.42,4.35s-15.32-2.75-17.47-4.35c1,.89,2.1,2.91,1.2,4.54-1.58,2.8-10.32-.62-11.84-.91.67,1.62.91,3.9-.55,4.66-2.43,1.25-5.81,0-7.63-.72.2,1.16,0,3.73-2.08,4.31a8.36,8.36,0,0,1-6.21-1.06c-3.18-1.83-10.51-4.07-12.47-5.23,1.92.6,11.76,4.12,12.68,4.41,2.42.82,5.27,1.19,6.21.57s1.37-3.19-.25-3.81-15.19-5.68-16.52-6.09,16.93,5.14,18.34,5.65,6.22,2,7.18,1c1.11-1.22.71-4.06-.9-4.67s-19.35-6.66-21.27-7.37c2.52.71,23,7.06,24.34,7.42.77.2,8.24,2.44,9.35,1.53s.71-3.19-1.31-4.41S369,92.44,366.36,91.63c6.41,2,18,5.81,20.56,6.77,1.92.7,12.27,4.35,14.29,4.27,3.39-.16,3.05-1.93-.25-3.66-2.12-1.12-27.82-10.88-34.6-13.22,5.51,1.63,31.79,10.57,35.47,11.89,3.11,1.13,7.11,2.55,7.58,1.3,1.17-3.21-4.08-5.85-6.11-6.67s-15.15-6.3-35.77-13c11.42,1.93,35.17,12,36.79,12.3,1.1.17,3.84.28,3.28-1.67-.32-1.08-1.93-2.85-18.4-10.94" fill="#50d6cc"/><path d="M358.45,109.21c1.92.36,11.7,14.31,12.49,15.88s1.69,3.92.68,4.54-3.95-1-5.87-3.15a16,16,0,0,0,3.29,2.59c.84.45,4.83,6.58,2.49,7.92s-6-3.11-7-4.32-3.79-4.72-4.29-5.22,6.56,8.43,3.74,9.68c-2.44,1.09-5.87-2.22-6.77-2.92s-12.07-11.79-10.91-11.9c.51-.4,10.25,10.11,11.67,11.23s3.68,3.4,5.3,2.89-1.05-4.71-1.51-5.37-8-11.69-9-12.75c2.12,2.5,11.06,11.72,12.22,13.1s4.49,5.8,5.91,4.67-2.43-7-3.38-8c-2.73-2-11.21-13.31-13.53-16.4,4.44,4.61,12.31,13.65,13.07,14.52s3.27,3.15,4,2.7-.71-3.76-1.25-4.47-8.88-12-11.3-15.17" fill="#50d6cc"/><path d="M333.61,79.93c1.56.56,5.74,1.43,4.94,4.25-.56,2-3.54,1.17-4.35,1.27a2.05,2.05,0,0,1,.35,3c-.81,1.32-3.38,1.52-4.75,1,1.31.77,2.06,1.75,1.41,3s-2,1.12-3,1.12c1.07.54,2.64,1.51,1.77,3.39-.61,1.32-1.11,1-2,1.17a2.3,2.3,0,0,1,2,2.53,2.16,2.16,0,0,1-1.92,2.14,3,3,0,0,1-1.32,5.37c.5.41,1.28.57.91,2.44a2.07,2.07,0,0,1-2.12,1.73,2.61,2.61,0,0,1,1.31,3c-.26,1.42-1.92,1.82-2.73,1.73a42.45,42.45,0,0,1-4.65-.92c1.37-.14,3.74.1,4.76.1s1.67-.2,1.81-1a2.15,2.15,0,0,0-1-2.32,20.22,20.22,0,0,0-3.43-1.33c1.46,0,2.68.36,3.43.22s1.82-.46,1.92-1.44.06-1.25-.86-1.66a23,23,0,0,0-4.09-1.17c1.52.1,3.13,0,4,0a2.8,2.8,0,0,0,2.24-1.79,2.18,2.18,0,0,0-1.17-2.53c-.87-.4-4.2-.41-5.15-.77,1.36-.4,4.5-.09,5.21-.2a2,2,0,0,0,1.86-1.67c.14-.69-.5-1.47-1.31-1.78A54.53,54.53,0,0,1,322.32,97c1.32-.15,3.84.66,4.85.56s1.91-.49,2-1.21c.15-1-.61-1.77-1.62-2.29a40,40,0,0,1-4.19-2.22c2.37.36,3.58,1,4.6,1s2.28-.06,2.47-.67a1.62,1.62,0,0,0-.6-1.87c-.71-.61-3.84-2.79-4.79-3.67,2.37.71,3.23,1.56,4.34,1.94,1.67.55,4,.15,4.4-.67s.5-1.56-.41-2.12c-.67-.41-4.59-1.94-5.91-2.69,2.83.55,4.3,1.17,5.62,1.47.84.19,4.24.71,4.69-.61.35-1.06-.45-2.18-4.19-4" fill="#50d6cc"/><path d="M338.76,78.25c-1.6-2-4.09-.41-2.27,1.88-.66-2.29.45-2.84,2.27-1.88" fill="#50d6cc"/><path d="M331.63,75.6c2.81,1.5,5-1.23,2.41-3.12-.16-.12-.16.32-.37.21,1.71,1.91.69,3.16-2,2.91" fill="#50d6cc"/><path d="M327.12,81.57c3.63,1.93,6.33-1.94,2.22-4.22,2.39,3,1.08,4.53-2.22,4.22" fill="#50d6cc"/><path d="M316.81,87.3c3.62,1.93,9.72-3,5.59-5.21,2.4,3-2.3,5.51-5.59,5.21" fill="#50d6cc"/><path d="M319.7,88c.7,1,1.3,4.32-2.43,4.36,1.21.71,1.81,1.37,1.62,2.35-.31,1.46-1.5,1.37-2.53,1.71,2.62.92,5.25,1.27,2.37,4.51,3.39-1.71,1.78-3.9-.35-4.41.45-.26,2.28-2.13.86-3.91,1.17-.1,2.93-3.29.46-4.61" fill="#50d6cc"/><path d="M311.05,89.29c1.07,0,3.23.69,3.13,2.74a2.21,2.21,0,0,1-1,1.87,2.35,2.35,0,0,1,.29,3.31c.06-.87.51-2.85-2.67-3,1-.46,1.67-.3,2.22-1.12a1.94,1.94,0,0,0,.05-2.31,6.46,6.46,0,0,0-2-1.44" fill="#50d6cc"/><path d="M313.28,99c1.71-.23,3.93-.34,3.37,2.71,1.47-.36,4,1.26,2.22,3.44,1,.66,2.07,2.54.4,3.8,1.22,1.92,1.47,3.26.05,4,.51,2,1.77,4.16-2.07,5.38a2.88,2.88,0,0,0,1.56-4c-.75-1.06-.6-1-1.71-1.47,1.41-.61,2.22-.26,2.22-2.09a2.42,2.42,0,0,0-1.76-1.92c1.5-.46,1.56-.92,1.41-2a2.29,2.29,0,0,0-1.81-1.71c.6-.26,2-1.17,1.25-2.18s-2.37-.45-3.38-.26c.75-.81,1.11-2,.65-2.49a6.06,6.06,0,0,0-2.4-1.22" fill="#50d6cc"/><path d="M315.37,122.18c.92-.32,4.55,0,3.94,3.72s-.15-1.22-1.46-2.45c-1.05-1-3.19-1-2.48-1.27" fill="#50d6cc"/><path d="M331,166.25c-2.89-3.26-3.44-4-3.44-4s.17.17,3.93,3.59l-.49.43" fill="#50d6cc"/><path d="M320.54,159.28c2.13.77,3.38-.09,2.84-2.08,2,1.41,4,.93,3.94-1.72,2.53.92,3.29-.3,2.78-2.43,4.89.47,3.89-3.24,2.38-4.67,1.51,1.42,2,4.57-2.88,4.11.5,2.12-.27,3.35-2.78,2.43.05,2.64-1.92,3.15-3.95,1.72.55,2-.2,3.4-2.33,2.64" fill="#50d6cc"/><path d="M332.78,162.59c-.21.55-1.22,1.36-3.45-.12,1.77.31,2.25.5,2.73-.45.81-1.62-2.17-3.7-2.17-3.7.92.35,3.84,1.87,2.89,4.27" fill="#50d6cc"/><path d="M336.32,157.06c-.67.86-1.73,1.27-3.64.1,1.76.29,2.45.28,2.93-.65.81-1.63-.76-3.16-.76-3.16.92.37,2.43,1.31,1.47,3.71" fill="#50d6cc"/><path d="M323.49,140.81c.4,0-1.27.71-.76,1.42s.3.86.86,1-1.67.24-1.72-.76.51-1.73,1.62-1.62" fill="#50d6cc"/><path d="M321,144.71c.1.51-1.22,4-4.55,1.27-2.59-2.11,0-4.16,2.23-3.56-.51.16-3.49.41-1.42,2.89,1.56,1.88,3.49.11,3.74-.6" fill="#50d6cc"/><path d="M315.35,145.36c.46.66,1.38,2.2.31,3.36-.66.71-2,.5-2.78.1,0,.54-2.32,2.92-3.59-.56.5.35,1.51,1.21,2.32.81a1.24,1.24,0,0,0,.46-1.77c-.15-.36,1.95,1.66,3,.76s.25-2.7.25-2.7" fill="#50d6cc"/><path d="M313.25,124.4c-.13-.74,4.75,1.48,3.43,4s-4.2.39-4.55-.15,2.51,1.19,3.44,0c1.26-1.58-2.23-3.3-2.32-3.92" fill="#50d6cc"/><path d="M315.51,131.2c.66.32,2.43,3.76-1.42,4.12s-2.26-3.91-1.71-4.26-1.21,3.5,1.67,3.15,1.46-3,1.46-3" fill="#50d6cc"/><path d="M311.32,134.88a1.79,1.79,0,0,0-1.64,1.28c-.81,2,1.83,3.07,2.64,3.27s2.84.55,3.59-.75c1.07-1.86-2.16-3.35-3.05-3.52A5.45,5.45,0,0,0,311.32,134.88Zm.7.91a7,7,0,0,1,.7.11c1.51.25,3,1.44,2.3,2.32s-2.44.6-2.85.47-2.36-1.16-1.69-2.17a1.65,1.65,0,0,1,1.54-.73Z" fill="#50d6cc"/><path d="M313.38,139.58c1.07.36,3.08,4.56-1.57,4.47S309,140.7,310,139.78c.09.51-2,3.59,1.81,3.41,3.29-.16,1.68-2.95,1.57-3.61" fill="#50d6cc"/><path d="M317.65,137.7c-.43,0-.91.11-1.29,1-.6,1.46,1,2.17,1.57,2.32s1.82.32,2.37-.64c.81-1.4-1.3-2.42-2-2.55A5.76,5.76,0,0,0,317.65,137.7Zm.49.73.25,0h0c1.13.18,2,1,1.42,1.62a1.78,1.78,0,0,1-1.82.46c-.3-.1-1.36-.77-.86-1.52.37-.58.72-.63,1-.6Z" fill="#50d6cc"/><line x1="23.12" y1="193.73" x2="23.12" y2="196.23" fill="none" stroke="#a3a3a3" stroke-linecap="round" stroke-linejoin="round"/><line x1="23.12" y1="201.39" x2="23.12" y2="322.65" fill="none" stroke="#a3a3a3" stroke-linecap="round" stroke-linejoin="round" stroke-dasharray="5.16 5.16"/><polyline points="23.12 325.23 23.12 327.73 25.62 327.73" fill="none" stroke="#a3a3a3" stroke-linecap="round" stroke-linejoin="round"/><line x1="31.27" y1="327.73" x2="39.75" y2="327.73" fill="none" stroke="#a3a3a3" stroke-linecap="round" stroke-linejoin="round" stroke-dasharray="5.65 5.65"/><line x1="42.57" y1="327.73" x2="45.07" y2="327.73" fill="none" stroke="#a3a3a3" stroke-linecap="round" stroke-linejoin="round"/><line x1="45.07" y1="3.97" x2="42.57" y2="3.97" fill="none" stroke="#a3a3a3" stroke-linecap="round" stroke-linejoin="round"/><line x1="36.92" y1="3.97" x2="28.44" y2="3.97" fill="none" stroke="#a3a3a3" stroke-linecap="round" stroke-linejoin="round" stroke-dasharray="5.65 5.65"/><polyline points="25.62 3.97 23.12 3.97 23.12 6.47" fill="none" stroke="#a3a3a3" stroke-linecap="round" stroke-linejoin="round"/><line x1="23.12" y1="11.52" x2="23.12" y2="130.16" fill="none" stroke="#a3a3a3" stroke-linecap="round" stroke-linejoin="round" stroke-dasharray="5.05 5.05"/><line x1="23.12" y1="132.69" x2="23.12" y2="135.19" fill="none" stroke="#a3a3a3" stroke-linecap="round" stroke-linejoin="round"/><line x1="358.42" y1="353.26" x2="360.92" y2="353.24" fill="none" stroke="#a3a3a3" stroke-linecap="round" stroke-linejoin="round"/><line x1="365.85" y1="353.21" x2="590.29" y2="351.78" fill="none" stroke="#a3a3a3" stroke-linecap="round" stroke-linejoin="round" stroke-dasharray="4.93 4.93"/><polyline points="592.75 351.76 595.25 351.74 595.25 349.24" fill="none" stroke="#a3a3a3" stroke-linecap="round" stroke-linejoin="round"/><line x1="595.25" y1="345.55" x2="595.25" y2="340.02" fill="none" stroke="#a3a3a3" stroke-linecap="round" stroke-linejoin="round" stroke-dasharray="3.69 3.69"/><line x1="595.25" y1="338.17" x2="595.25" y2="335.67" fill="none" stroke="#a3a3a3" stroke-linecap="round" stroke-linejoin="round"/><line x1="53.98" y1="337.19" x2="53.98" y2="339.69" fill="none" stroke="#a3a3a3" stroke-linecap="round" stroke-linejoin="round"/><line x1="53.98" y1="343.38" x2="53.98" y2="348.91" fill="none" stroke="#a3a3a3" stroke-linecap="round" stroke-linejoin="round" stroke-dasharray="3.69 3.69"/><polyline points="53.98 350.76 53.98 353.26 56.48 353.26" fill="none" stroke="#a3a3a3" stroke-linecap="round" stroke-linejoin="round"/><line x1="61.56" y1="353.26" x2="292.96" y2="353.26" fill="none" stroke="#a3a3a3" stroke-linecap="round" stroke-linejoin="round" stroke-dasharray="5.09 5.09"/><line x1="295.5" y1="353.26" x2="298" y2="353.26" fill="none" stroke="#a3a3a3" stroke-linecap="round" stroke-linejoin="round"/><path d="M3.2,172.12H1.81l0,0,.33-.76c.22-.46.32-.58.55-.58s1.28.05,2.11.05a2,2,0,0,0,1.43-.46,1.88,1.88,0,0,0,.88-1.56l.06-.39c.19-1.38-.64-1.92-1.93-1.92a7.16,7.16,0,0,0-1.24.1l-.14-.16.51-1.06,0,0c2.26-.14,3-1.07,3.17-2.12l0-.23c.16-1-.44-1.62-1.66-1.62a2.87,2.87,0,0,0-2,.63l-.19-.16.72-1.31,0,0a3.8,3.8,0,0,1,1.85-.34c2.18,0,3,1.06,2.73,2.55l0,.23c-.21,1.38-.92,1.68-2.49,2.48a2.11,2.11,0,0,1,2.09,2.49l-.06.39c-.14,1.06-1,1.75-2.05,2.51A5.13,5.13,0,0,1,3.2,172.12Z" fill="#727272"/><path d="M15,173.35l-1.18-1.26,1.43-10.24H13.83l.11-.73h1.42l.17-1.25A3.89,3.89,0,0,1,17,157.09c.9-1,1.22-1.22,2.21-1.22h1.14v0l-.23.62c-.17.46-.24.53-.42.53s-.74,0-1.2,0c-1,0-1.28.39-1.46,1.59l-.35,2.51h2.21v.73H16.58l-.78,5.54c-.23,1.59-.43,3.28-.55,4.52l.51.78v0Z" fill="#727272"/><path d="M21.81,168.66c-2.17,0-3-.87-2.74-2.83l.23-1.66a3.75,3.75,0,0,1,1.91-2.8,3.4,3.4,0,0,1,2-.6c1.36,0,2,.64,2,1.81a8.77,8.77,0,0,1-.26,1.76l-1.27.69H20.47l-.07.5c-.23,1.63.49,2.16,2.08,2.16a4.55,4.55,0,0,0,2.62-.85h0v.21A3.7,3.7,0,0,1,21.81,168.66Zm-1.24-4.39h3.24a7.87,7.87,0,0,0,.19-1.41c0-.83-.49-1.26-1.57-1.26s-1.56.59-1.72,1.7Z" fill="#727272"/><path d="M29.13,168.66c-2.17,0-3-.87-2.74-2.83l.23-1.66a3.78,3.78,0,0,1,1.91-2.8,3.43,3.43,0,0,1,2-.6c1.36,0,2,.64,2,1.81a8.9,8.9,0,0,1-.27,1.76L31,165H27.79l-.07.5c-.23,1.63.49,2.16,2.09,2.16a4.55,4.55,0,0,0,2.61-.85h0v.21A3.69,3.69,0,0,1,29.13,168.66Zm-1.23-4.39h3.23a8,8,0,0,0,.2-1.41c0-.83-.5-1.26-1.58-1.26s-1.55.59-1.71,1.7Z" fill="#727272"/><path d="M36.16,168.62c-1.42,0-2-.53-1.82-1.87l.74-4.9H33.66l.11-.73H35.2l.34-2.24,1.33-.2,0,0-.37,2.42H38.9v.73H36.42l-.72,4.72c-.11.71.17,1,1.25,1a3.37,3.37,0,0,0,1.45-.35h0l0,.16A3,3,0,0,1,36.16,168.62Z" fill="#727272"/><path d="M312.25,362H311v0l.33-.76c.22-.48.32-.58.55-.58s1.15,0,1.91,0a2.09,2.09,0,0,0,1.43-.44,2.35,2.35,0,0,0,1.08-1.82l.07-.52c.25-1.73-1.09-2.06-3.8-2.29l0-.06,1.35-5.3.05-.06h3.45a1.52,1.52,0,0,0,1.19-.33l.23.16-.78,1.5,0,0c-.49,0-.95-.06-1.84-.06h-1.84l-.72,2.87c2.91.34,4.52.85,4.21,3.13l-.06.39c-.16,1.18-1.11,2-2.23,2.83A5,5,0,0,1,312.25,362Z" fill="#727272"/><path d="M323.92,363.2l-1.18-1.26,1.43-10.24h-1.41l.1-.73h1.42l.17-1.25a3.89,3.89,0,0,1,1.45-2.78c.9-.95,1.22-1.22,2.22-1.22h1.13v0l-.23.62c-.17.46-.24.53-.42.53s-.74,0-1.2,0c-1.05,0-1.28.39-1.45,1.59L325.6,351h2.21v.73H325.5l-.78,5.54c-.23,1.59-.43,3.28-.55,4.52l.51.78v0Z" fill="#727272"/><path d="M330.73,358.51c-2.17,0-3-.87-2.74-2.83l.23-1.66a3.75,3.75,0,0,1,1.91-2.8,3.4,3.4,0,0,1,2-.6c1.37,0,2.06.64,2.06,1.81a8.9,8.9,0,0,1-.27,1.76l-1.27.69h-3.22l-.07.5c-.23,1.63.49,2.16,2.08,2.16a4.55,4.55,0,0,0,2.62-.85h0v.21A3.7,3.7,0,0,1,330.73,358.51Zm-1.24-4.39h3.24a8,8,0,0,0,.2-1.41c0-.83-.5-1.26-1.58-1.26s-1.56.59-1.71,1.7Z" fill="#727272"/><path d="M338.06,358.51c-2.18,0-3-.87-2.75-2.83l.23-1.66a3.78,3.78,0,0,1,1.91-2.8,3.45,3.45,0,0,1,2-.6c1.36,0,2.05.64,2.05,1.81a8.9,8.9,0,0,1-.27,1.76l-1.27.69h-3.22l-.07.5c-.23,1.63.5,2.16,2.09,2.16a4.58,4.58,0,0,0,2.62-.85h0v.21A3.68,3.68,0,0,1,338.06,358.51Zm-1.24-4.39h3.23a8,8,0,0,0,.2-1.41c0-.83-.5-1.26-1.57-1.26s-1.56.59-1.72,1.7Z" fill="#727272"/><path d="M345.08,358.47c-1.42,0-2-.53-1.82-1.87l.74-4.9h-1.41l.1-.73h1.43l.34-2.24,1.33-.2,0,0-.37,2.42h2.37v.73h-2.48l-.72,4.72c-.11.71.18,1,1.25,1a3.37,3.37,0,0,0,1.45-.35h0l0,.16A3,3,0,0,1,345.08,358.47Z" fill="#727272"/></svg>