<svg xmlns="http://www.w3.org/2000/svg" width="600" height="400" viewBox="0 0 600 400"><title>flag-washington-original</title><rect width="600" height="400" fill="#008457"/><path d="M421.7,200c0,66.67-54.72,121-121.38,121s-122-54-122-120.71,55.31-120.71,122-120.71S421.7,133.33,421.7,200Z" fill="#ffd520"/><path d="M372.49,200.37c0,39-33.17,70.06-72.17,70.06s-71.63-31.62-71.63-70.63,32.62-70.62,71.63-70.62S372.49,161.36,372.49,200.37Z" fill="#34c2de"/><polygon points="329.83 159.7 321.37 150.16 311.3 142.67 283.17 150.35 276.95 189.66 284.45 213.01 326.59 225.04 321.83 210.56 331.48 202.7 338.2 184.46 329.83 159.7" fill="#fdd6c6"/><path d="M335.82,233.25c-1.47-2.52-6.92-15.91-11.88-18.94a8.47,8.47,0,0,0,.15-2.45c-.09-1-1.26-2-2.26-1.3-2.07,1.53-2.91,3.72-4.63,5.35-3.8,3.59-10.63,1-14.66-.64a96,96,0,0,1-11.73-5.43c-3-1.71-4.79-4.67-8.16-5.51a1.43,1.43,0,0,0-1.7.82,1.39,1.39,0,0,0-.52,1.52,54.71,54.71,0,0,0,9.21,19.45c4.23,5.66,9.35,10.63,13.33,16.48,3.51,5.17,5.12,11.52,11.23,14.29,5.31,2.41,10.64.91,15.53-1.72,3.27-1.76,6.82-3.4,10-5.25a5.42,5.42,0,0,0,2.77-2.63C344.73,242.2,338,237,335.82,233.25Z" fill="#fff"/><path d="M344.8,181.42a1,1,0,0,0-.18-.41,7.15,7.15,0,0,0-.78-3.71,15.07,15.07,0,0,0-3.14-3.57,8.91,8.91,0,0,1-2-2.24c-.23-.56.32-1.35.08-2-1.17-2.9-3.7-4.32-6.14-6.15-1-.76-2,.1-2.14,1.1a1.24,1.24,0,0,0-.59,1.61,42.56,42.56,0,0,1,2.77,15.71c0,2.11-1,6.19.57,7.91a2.71,2.71,0,0,0,1,.73l-.2.15c-1.39,1.13.38,3.07,1.82,2.36a17,17,0,0,0,4.26-3.15C343,187.64,345.49,185.17,344.8,181.42Z" fill="#fff"/><path d="M302.75,322c-.16-.08-.33-.23-.49-.23-1.85,0-3.7,0-5.55,0-3.07-.11-6.25.13-9.16-.62-2.33-.6-4.66-.46-6.94-1-1.76-.44-3.59-.63-5.34-1.09-5.08-1.33-10.11-2.85-15.21-4.06-4.5-1.07-8.6-3.08-12.76-4.95-2.79-1.25-5.46-2.76-8.2-4.15a12.7,12.7,0,0,1-1.2-.51,12,12,0,0,1-1.2-1c-.16,0-.53.22-.74.11a22.24,22.24,0,0,1-2.1-1.37c-2.13-1.52-4.29-3-6.38-4.59-.91-.68-1.68-1.56-2.54-2.33-1.17-1-2.39-2-3.56-3.08-1.42-1.3-2.79-2.66-4.21-3.95a42.13,42.13,0,0,1-6.1-6.28c-.69-.95-1.88-1.5-2.73-2.35s-1.57-1.93-2.4-2.86c-.7-.78-1.55-1.44-2.21-2.25-.86-1.05-1.6-2.19-2.38-3.31-2.08-3-4.2-5.92-6.22-8.94-1.58-2.35-3.11-4.74-4.49-7.2a41.77,41.77,0,0,1-1.72-4.32c-.64-1.52-1.39-3-2-4.53-.86-2.06-1.75-4.11-2.47-6.21-1.11-3.19-2.15-6.4-3.08-9.64-.6-2.06-.88-4.21-1.41-6.29-.39-1.54-1.09-3-1.4-4.56a31.43,31.43,0,0,1-.52-5c-.14-3.12-.19-6.24-.27-9.37q-.12-4.92-.25-9.86a1.94,1.94,0,0,0-.24-.61v-5.88a2.91,2.91,0,0,0,.24-.74c.18-2.74.26-5.48.53-8.21.13-1.26.72-2.47.9-3.73.11-.83.84-1.62.2-2.56-.13-.19.45-.76.43-1.14-.09-1.81.93-3.34,1.17-5a30,30,0,0,1,.65-3.4c.47-1.81,1.11-3.58,1.67-5.37.2-.64.36-1.29.57-1.93a16.26,16.26,0,0,1,1.33-3.74,32.57,32.57,0,0,0,2.17-4.88c.56-1.21,1.48-2.24,2.07-3.44.69-1.37,1.11-2.88,1.8-4.25a32.13,32.13,0,0,1,2.27-3.65c.78-1.14,1.67-2.19,2.45-3.32.15-.23,0-.65,0-.69.86-1.28,1.58-2.42,2.38-3.51.93-1.26,1.94-2.46,2.89-3.7,1.19-1.56,2.62-3,3.2-4.94a1.57,1.57,0,0,1,.48-.67c1.91-1.77,3.85-3.5,5.75-5.28,1.16-1.09,2.26-2.26,3.38-3.39s2-2.06,3.08-3.06c1.26-1.22,2.5-2.48,3.86-3.59,1.82-1.48,3.75-2.83,5.64-4.22s3.54-2.73,5.43-3.91c2.58-1.61,5.24-3.1,7.92-4.54s5.56-2.94,8.43-4.23c2-.88,4.08-1.4,6.1-2.18,1.44-.56,2.8-1.33,4.23-1.91a23.12,23.12,0,0,1,2.62-.75c.38-.11.77-.19,1.15-.3a25.67,25.67,0,0,0,4.84-1.49c1.41-.74,2.86-.64,4.29-.9,2.12-.38,4.27-.66,6.4-1,3.63-.55,7.26-1.13,10.9-1.64a31.09,31.09,0,0,1,4-.31c3.32,0,6.64-.1,10,0,3.13.12,6.26.46,9.39.72a38.87,38.87,0,0,1,5.73.53c3.09.71,6.12,1.69,9.14,2.65.78.25,1.28.29,1.56-.32,1.88.36,3.68.67,5.46,1a18.84,18.84,0,0,1,2,.72c2.13.74,4.27,1.44,6.39,2.21,1.15.42,2.26.93,3.39,1.41l4.7,2c1.37.59,3,.92,4.08,1.83,1.95,1.58,4.63,1.78,6.36,3.71a5.1,5.1,0,0,0,1.63.93c4,1.91,7.47,4.6,11,7.17,2.76,2,5.3,4.33,7.86,6.58,2.34,2.06,4.69,4.13,6.84,6.38a104.55,104.55,0,0,1,9.36,11.18c1.95,2.7,4.07,5.28,5.79,8.15,1.61,2.69,3.31,5.34,4.87,8.07a50.3,50.3,0,0,1,2.5,5.11,71.88,71.88,0,0,1,2.75,7.19,38,38,0,0,0,2.76,7.22,38.34,38.34,0,0,1,2.5,6.07c.5,1.51.67,3.13,1,4.69.22,1,.54,1.91.72,2.89.52,2.78,1.06,5.56,1.43,8.36a33.88,33.88,0,0,1-.1,3.62c0,1,.25,2,.32,3,.08,1.14.08,2.29.13,3.43s.14,2.42.18,3.62c.1,2.6.05,5.21.28,7.79.36,3.94-.37,7.75-1,11.59-.09.56.12,1.19,0,1.74-.6,2.83-.77,5.73-1.83,8.49-.67,1.76-.72,3.74-1.15,5.6-.31,1.3-.93,2.54-1.17,3.85-.38,2-.54,4.1-1.5,6-.77,1.52-1.57,3-2.32,4.57-.88,1.81-1.69,3.66-2.58,5.47-1.09,2.2-2.18,4.41-3.38,6.56-1.07,1.95-2.21,3.87-3.46,5.71-1.62,2.39-3.36,4.69-5.08,7-1.32,1.78-2.72,3.51-4,5.29a45,45,0,0,1-6.45,7.13c-1.29,1.14-2.46,2.41-3.76,3.54-2.48,2.14-5,4.27-7.52,6.32s-4.87,3.77-7.34,5.6a30.91,30.91,0,0,1-2.77,1.68c-2.21,1.31-4.41,2.64-6.65,3.91a31.66,31.66,0,0,1-5.75,3.09c-3.42,1.11-6.47,3-9.86,4.15-1.61.54-3.18,1.18-4.78,1.76-.41.14-.86.16-1.27.3-1,.36-2.56-.26-2.92,1.47,0,.11-.45.26-.63.2-2-.67-3.63.66-5.47.83-.31,0-.58.66-.82,1-.63-.07-1.38-.41-1.83-.18-2.58,1.33-5.45,1.08-8.17,1.52-4.51.73-9.11.9-13.67,1.33a3.56,3.56,0,0,0-1,.47ZM283.6,80.66l0-.11a13.36,13.36,0,0,1-1.71.51c-2.42.36-4.87.55-7.26,1-3.7.78-7.39,1.67-11,2.71A74.15,74.15,0,0,0,255,87.76,110.53,110.53,0,0,0,239,95.57c-3,1.89-6.11,3.68-9.09,5.65a112.36,112.36,0,0,0-16.84,14.17c-1.79,1.77-3.43,3.67-5.09,5.56-1.43,1.63-2.91,3.24-4.19,5-2.09,2.89-4.11,5.84-6,8.86a88.57,88.57,0,0,0-5.72,9.88c-2,4.43-4.27,8.78-5.56,13.54-1.21,4.43-2.83,8.74-4,13.18-.7,2.61-.65,5.43-1.38,8a34.51,34.51,0,0,0-1.36,8.41c0,.9,0,1.81-.09,2.7-.17,1.72-.53,3.42-.61,5.13s.17,3.31.2,5c0,.68-.28,1.37-.2,2,.24,2.2.53,4.39.89,6.57.28,1.64.82,3.25,1,4.9.34,3,.49,6,.78,9.05a12.11,12.11,0,0,0,.59,2.07c.13.41.27.82.37,1.23.19.86.29,1.74.54,2.58.85,2.87,1.71,5.74,2.64,8.58a67.76,67.76,0,0,0,2.47,6.88c1.13,2.5,2.61,4.84,3.83,7.31,1.32,2.65,2.31,5.5,3.83,8,1.82,3,3.36,6.17,5.58,8.93,1.23,1.53,2.29,3.19,3.54,4.71,2,2.44,4.13,4.82,6.22,7.21a41.92,41.92,0,0,0,3,3.15c1.89,1.76,3.87,3.43,5.81,5.13a83.56,83.56,0,0,0,6.46,5.62c3.8,2.7,7.4,5.71,11.61,7.82,2.56,1.28,5,2.82,7.56,4.12,2.23,1.13,4.54,2.12,6.85,3.08,2.78,1.16,5.55,2.32,8.39,3.3,2.4.84,4.89,1.44,7.35,2.14s4.59,1.44,6.94,1.89c3.38.64,6.81,1.13,10.24,1.49,4.68.49,9.38.92,14.08,1.14,2.69.12,5.4-.25,8.1-.39,1.06-.06,2.12-.05,3.17-.18,1.66-.22,3.33-.83,5-.74,4.2.23,8.06-1.31,12.07-2a68.74,68.74,0,0,0,6.79-1.93c1.87-.56,3.76-1.05,5.6-1.71,2.29-.82,4.53-1.76,6.78-2.7s4.37-1.79,6.49-2.82c1.83-.9,3.56-2,5.33-3,2.8-1.6,5.63-3.14,8.38-4.82,1.33-.81,2.4-2.07,3.76-2.79,3.59-1.88,6.44-4.68,9.47-7.25,1.5-1.27,3-2.59,4.4-3.92s3-2.69,4.38-4.15,2.83-3.2,4.17-4.87c2.45-3.07,5-6,7.22-9.29,2.79-4.16,5.27-8.53,7.81-12.86a53.34,53.34,0,0,0,2.67-5.35c1.19-2.71,2.33-5.43,3.35-8.2.6-1.64.92-3.38,1.38-5.08.67-2.5,1.47-5,2-7.51.69-3.29,1.23-6.61,1.74-9.94.4-2.66.75-5.33,1-8s.18-5.25.27-7.87a11.68,11.68,0,0,0,.2-1.3c-.21-3-.43-6-.7-9-.3-3.33-.48-6.68-1-10s-1.48-6.69-2.39-10c-1-3.5-2.05-7-3.21-10.41-.93-2.75-2-5.45-3.1-8.14q-1.11-2.73-2.44-5.36c-1.31-2.61-2.6-5.25-4.13-7.74-2.11-3.43-4.33-6.81-6.72-10-2.63-3.56-5.39-7-8.31-10.36-2.29-2.62-4.84-5-7.38-7.41-2-1.86-4.1-3.59-6.23-5.28-2.29-1.83-4.61-3.63-7-5.29-2.85-1.94-5.75-3.84-8.75-5.52-3.36-1.88-6.81-3.61-10.32-5.17-3.18-1.41-6.48-2.56-9.76-3.73-3-1.07-6-2.09-9.1-3-2.75-.82-5.54-1.5-8.33-2.13-1.57-.36-3.21-.39-4.76-.77a44.34,44.34,0,0,0-9.58-1.22c-1.57,0-3.14-.2-4.72-.25-3-.09-5.95-.29-8.92-.19C290.62,80,287.11,80.39,283.6,80.66Z"/><path d="M315.2,143.91c-.23-.07-.45-.16-.68-.24a1.47,1.47,0,0,0-.37-.13c-5.22-2-9.31-5.68-15.07-5.77-6.6-.1-9.42,4.62-15.05,7.08-2.71,1.18-5.34,2-7.65,3.92a36.06,36.06,0,0,0-5.34,6.46c-1.38,1.88-3.87,4.21-4.51,6.43-.77,2.65,1.08,4.26.85,6.72l-.18.19a7.26,7.26,0,0,0-1.78,3c-.14.88.5,1.84.27,2.62-.33,1.14-2.67,2.64-3.45,3.7a9.93,9.93,0,0,0-2,4,1.59,1.59,0,0,0,.69,1.69c.9.67,1,.47,2,.74a5,5,0,0,1,2.23.46c.49,2.6,1.78,4,3.85,4.17a1.5,1.5,0,0,0,0,3c2.12,0,.07,2.7,0,4.22a1.51,1.51,0,0,0,1.9,1.44l2.85,1.09a1.52,1.52,0,0,0,2.05.53s3.05,10.76,3.61,11.87c.69,1.37,2.78.67,2.8-.76,0-.66-.07-7.66.36-10.8l2.27-.8a1.55,1.55,0,0,0,.9-2.21c-2-4.57,2.7-7.31-.57-10.91-.78-.87-1.79-1.39-1.83-2.66s1-3,1.46-4.18a24.59,24.59,0,0,0,1.82-7.26c.26-5.84,1.52-13.54,4.63-18.64,4.8-7.85,14.38-6.45,22.3-6.43l.86.31C316.25,147.41,317,144.51,315.2,143.91Z" fill="#fff"/><path d="M291.16,82.41c4.49,0,9-.11,13.49,0,2.78.09,5.56.59,8.34.89,2.37.27,4.74.45,7.09.81A55.53,55.53,0,0,1,326,85.36c3.17.82,6.38,1.58,9.46,2.65,5.51,1.93,11,3.79,16.19,6.61,3.86,2.11,7.67,4.31,11.47,6.53,2.07,1.21,4.15,2.43,6.09,3.83s3.88,3.08,5.78,4.68,4,3.29,5.87,5.07c1.44,1.37,2.66,2.94,4,4.43.11.12.18.3.31.35,2.39,1.09,3.59,3.41,5.24,5.23a87.73,87.73,0,0,1,6.05,7.66c1.52,2.1,2.82,4.37,4.18,6.59s2.6,4.14,3.73,6.29q2.16,4.08,4,8.32c1.33,3,2.66,6,3.69,9.13,1.48,4.47,2.85,9,4,13.58a78.71,78.71,0,0,1,1.54,10.17c.52,5,.91,9.92,1.19,14.88.1,1.75-.41,3.53-.4,5.29a56.4,56.4,0,0,1-1,11.24c-.51,2.59-.67,5.26-1.31,7.81-1,3.94-2.21,7.83-3.41,11.72-.64,2.09-1.42,4.14-2.17,6.19a32.62,32.62,0,0,1-1.54,3.88c-1.75,3.42-3.48,6.86-5.44,10.15-2.12,3.58-4.4,7.08-6.8,10.47s-5.14,7-7.92,10.33a76.81,76.81,0,0,1-5.62,5.5c-.67.64-1.32,1.29-2,1.93A93.2,93.2,0,0,1,365,298.29c-2,1.23-4,2.54-6,3.69s-4.38,2.38-6.66,3.37c-4,1.75-8.08,3.49-12.22,5-3.71,1.32-7.54,2.36-11.35,3.4-3,.82-6,1.59-9.08,2.14-2.49.45-5,.53-7.56.8-1.41.14-2.81.37-4.22.47-1.11.08-2.24,0-3.36,0-1.53,0-3.07.27-4.59.2-3.35-.15-6.69-.36-10-.68-3.57-.34-7.14-.72-10.68-1.29-2.6-.41-5.15-1.13-7.72-1.75-2.21-.54-4.45-1-6.61-1.74q-5.16-1.74-10.21-3.78c-2.86-1.16-5.69-2.41-8.42-3.83-2.95-1.53-5.86-3.18-8.65-5-3.73-2.41-7.4-4.91-11-7.56-2.74-2-5.33-4.31-7.86-6.62-2.35-2.14-4.6-4.4-6.75-6.74s-4-4.67-6-7c-.51-.59-1.29-1-1.71-1.61-2.8-4.24-5.63-8.47-8.26-12.82a100,100,0,0,1-4.8-9.11c-1-2.17-1.72-4.5-2.6-6.74-1-2.4-2.06-4.73-2.88-7.17a57.11,57.11,0,0,1-1.27-5.69c-.33-1.44-.68-2.87-1-4.3-.17-.7-.34-1.39-.45-2.09q-.84-5.52-1.66-11c-.24-1.63-.55-3.25-.71-4.89-.08-.83.23-1.71.14-2.54-.48-4.57.49-9,.76-13.56.18-2.91.46-5.81.74-8.71a19.43,19.43,0,0,1,.51-2.59c.53-2.18,1.15-4.34,1.63-6.53s.76-4.59,1.33-6.84a29.27,29.27,0,0,1,1.65-4.24c1.09-2.63,1.46-5.51,3-8,1.32-2.16,2.31-4.53,3.43-6.82a25.48,25.48,0,0,1,2-4c1.53-2.06,2.41-4.48,4-6.56,1.33-1.74,2.51-3.72,3.73-5.6a73.85,73.85,0,0,1,5.54-6.86c1.57-1.87,3.12-3.76,4.82-5.52a70,70,0,0,1,5.91-5.65c3.44-2.83,6.94-5.59,10.58-8.15a111,111,0,0,1,12-7.73,144.55,144.55,0,0,1,15.11-6.7,98.66,98.66,0,0,1,10.88-3.24c3.32-.88,6.68-1.61,10-2.29,2.09-.42,4.21-.64,6.32-.89s4.25-.43,6.37-.64Zm-5.42,11.37,0-.08L283.5,94c-2.12.35-4.26.61-6.36,1.08-2.76.61-5.53,1.26-8.22,2.12-4.15,1.31-8.29,2.69-12.33,4.3-2.52,1-4.81,2.55-7.28,3.67a49.8,49.8,0,0,0-9.52,5.63c-2,1.5-4.14,2.76-6.14,4.22a97.4,97.4,0,0,0-12.07,10.7c-2.2,2.25-4.19,4.71-6.19,7.13A78.36,78.36,0,0,0,207.65,144c-1.72,3-3.39,6.06-4.86,9.2a96.23,96.23,0,0,0-4.58,11c-1.46,4.47-2.55,9.08-3.57,13.67A100.12,100.12,0,0,0,192.79,189a114.21,114.21,0,0,0-.51,11.41c0,2.91.26,5.83.46,8.74.08,1.11.35,2.21.47,3.33.28,2.4.35,4.83.81,7.19.53,2.73,1.35,5.42,2.13,8.1.58,1.95,1.29,3.86,2,5.79s1.39,4.07,2.17,6.07c.5,1.27,1.25,2.45,1.74,3.72A33.17,33.17,0,0,0,205.6,251a54.12,54.12,0,0,1,3.45,5.22,58.74,58.74,0,0,0,7.14,10c1.34,1.57,2.73,3.1,4.11,4.64,1.55,1.71,3,3.48,4.69,5.09a62.58,62.58,0,0,0,4.87,4.17c3.27,2.6,6.53,5.23,9.91,7.68a77.11,77.11,0,0,0,7.33,4.61,80.57,80.57,0,0,0,8.66,4.47c4.05,1.68,8.23,3.11,12.41,4.47,3.18,1,6.44,1.86,9.69,2.65,1.71.41,3.51.44,5.23.84a62.71,62.71,0,0,0,12.21,1.34c3.73.11,7.47,0,11.2-.19a75.51,75.51,0,0,0,9-.78c4.7-.76,9.39-1.64,14-2.8a75.4,75.4,0,0,0,10.5-3.55c4.21-1.75,8.3-3.81,12.42-5.79a44.15,44.15,0,0,0,4.65-2.5c2.32-1.48,4.57-3.08,6.81-4.67q2.65-1.89,5.21-3.9c1.19-.94,2.3-2,3.43-3,1.81-1.62,3.62-3.23,5.39-4.9.88-.83,1.66-1.76,2.48-2.66a70.52,70.52,0,0,0,5.08-5.73,27.24,27.24,0,0,1,2.55-3.75,7.18,7.18,0,0,0,1-1.22c.79-1.21,1.5-2.48,2.34-3.64a22.36,22.36,0,0,0,2.07-3.28c1.5-3,3.25-6,4.75-9,1.23-2.5,2.35-5.07,3.33-7.69s1.71-5.13,2.45-7.74c.65-2.3,1.25-4.62,1.69-7s.47-5,1.07-7.38c.77-3.07.71-6.18.87-9.28.16-3.29.09-6.6,0-9.89,0-2-.28-4-.48-6-.09-.87-.32-1.73-.47-2.6-.53-3.19-1-6.41-1.62-9.58a51.89,51.89,0,0,0-1.71-6.36c-1.34-4-2.74-8-4.27-11.93a71,71,0,0,0-3.25-6.83q-2-3.93-4.31-7.76c-1.67-2.83-3.7-5.43-5.53-8.17a49.58,49.58,0,0,0-5.2-6.45,135.25,135.25,0,0,0-9.79-9.52c-4.2-3.57-8.67-6.84-13.09-10.15a43.13,43.13,0,0,0-4.63-2.8,105.32,105.32,0,0,0-14.19-7c-4.14-1.59-8.36-3-12.63-4.2a98.41,98.41,0,0,0-10.12-2c-2.22-.37-4.47-.53-6.71-.77s-4.47-.6-6.71-.69c-2.91-.12-5.82,0-8.74,0-1.08,0-2.18.09-3.26.19C289.18,93.41,287.46,93.61,285.74,93.78ZM197.15,148c1.85-.7,3.53-1.42,5.26-2a4.76,4.76,0,0,0,3.19-3.93,2.76,2.76,0,0,1,.65-1.53c.47-.56,1.15-.92,1.65-1.45.22-.23.23-.67.33-1-.4-.08-.88-.34-1.21-.22-1.87.71-3.73,1.45-5.54,2.31-.55.26-.91.91-1.36,1.38l.27.26a31.44,31.44,0,0,1,3.05-.94c.37-.08,1.14.23,1.18.46.09.49,0,1.32-.33,1.52a9.06,9.06,0,0,1-3,1.25A4.71,4.71,0,0,0,197.15,148Zm212.21,64.71c2.87-3.66,6-7.16,5.92-12.26a23.65,23.65,0,0,0-5,5.84C409,208.24,409.8,210.57,409.36,212.73Zm.73-44.71c-.15.73-.27,1.23-.37,1.73a77.1,77.1,0,0,1-1.55,7.61,6,6,0,0,0,0,4,10.78,10.78,0,0,1,.31,1.62l.39,0a12.52,12.52,0,0,0,1-2.11c.54-2,1.07-4.09,1.43-6.16A9.35,9.35,0,0,0,410.09,168ZM351.62,104.2a2.56,2.56,0,0,0-.12-.83c-.95-1.48-1.89-3-2.92-4.4-1.55-2.13-3.05-4.36-5.89-5a4.78,4.78,0,0,0-.76,0,2.36,2.36,0,0,0,0,.84,3.62,3.62,0,0,0,.69.93,21.06,21.06,0,0,1,2.46,2.82A13.35,13.35,0,0,0,351.62,104.2Zm60.62,72.74a18.7,18.7,0,0,1-2.71,8.31c-1.12,1.93-.37,4-.11,6.12C412,189.37,414.16,178.69,412.24,176.94ZM184.82,195.46l.38.09c.19-.45.35-.92.56-1.36a16.73,16.73,0,0,1,1.27-2.41c.86-1.19,1.93-2.23,2.75-3.44a5.89,5.89,0,0,0,.66-4.4c-2.18,1.81-4.44,3.11-5.06,5.79A19.09,19.09,0,0,0,184.82,195.46Zm62.05-97.7L247,98a47.63,47.63,0,0,1,5.37,1,5.39,5.39,0,0,0,4.48-.26,12.29,12.29,0,0,1,2.16-.76c-2.56-1.31-5.09-2.37-7.8-2A19.94,19.94,0,0,0,246.87,97.76ZM369.68,290.92l-.07-.34c-2.09-.12-4.18-.26-6.26-.33a5.2,5.2,0,0,0-2.38.2c-1.66.81-3.21,1.85-5,2.94C361,294,365.36,292.58,369.68,290.92Zm-16.82,10.33v-.38a5.83,5.83,0,0,0-1-.35c-1.54-.3-3.22-.26-4.58-.9-2.71-1.29-4.6.5-6.81,1.34,1.63.55,3.16,1.27,4.93,1.15a18.46,18.46,0,0,1,3.05.2A7.5,7.5,0,0,0,352.86,301.25Zm-5-3.73a2.4,2.4,0,0,0,.59.38c3.44.94,6.87.29,10.29-.14.7-.09,1.33-.73,2-1.11l-.11-.39-1.36-.15-4-.39c-1-.1-2-.51-2.85-.26A37.72,37.72,0,0,0,347.87,297.52ZM371.81,111.7a44.38,44.38,0,0,1,1.61,6.45c.25,2.4,2.28,3.08,3.52,4.84C377.41,118.44,374.33,111.84,371.81,111.7ZM185.5,212.83c1.36-2.47,2.63-4.79,3.89-7.11a2.66,2.66,0,0,0,.26-1c.1-1.43.16-2.87.21-4.3,0-.14-.23-.28-.36-.44-.15.12-.28.18-.33.27-1.28,2.48-2.56,5-3.82,7.46a2.17,2.17,0,0,0-.19,1C185.24,210,185.37,211.34,185.5,212.83ZM376,278.92a9.56,9.56,0,0,0,2.12-.23c2.78-1,5.57-2,8.26-3.18a9.87,9.87,0,0,0,2.31-2.1l-.34-.51c-1.71.61-3.39,1.3-5.13,1.83a30.22,30.22,0,0,1-3.18.59,2.08,2.08,0,0,0-1,.32C378,276.6,377.15,277.62,376,278.92ZM187,221.35c1.49-2.24,1.29-4.86,3.17-6.52a.91.91,0,0,0,.19-.66c-.12-1.85-.26-3.7-.4-5.55-1.31,2.41-2.39,4.78-3.46,7.16C185.66,217.68,186.6,219.36,187,221.35ZM365.5,106.8c.53,1.65,1.06,3.19,1.53,4.75.25.84.14,1.9.62,2.53a44.42,44.42,0,0,0,3.55,3.72C371.06,112.9,368.47,107.43,365.5,106.8Zm47.62,115.25a11.08,11.08,0,0,0-1,.86c-1.45,1.5-2.8,3.1-4.33,4.51a7.75,7.75,0,0,0-2.38,5.23,7,7,0,0,0,1-.55A27.38,27.38,0,0,0,412.1,226C412.86,224.8,413.57,223.74,413.12,222.05ZM224.21,279.33a44.25,44.25,0,0,0,1.45,7,5.72,5.72,0,0,0,3.58,3.4,4.72,4.72,0,0,0,0-.87c-.31-1.55-.67-3.09-1-4.65A6.06,6.06,0,0,0,224.21,279.33Zm184.17-59.4.36.11c1.34-1.75,2.77-3.43,4-5.26a32,32,0,0,0,2.32-4.42c.17-.36-.05-.9-.09-1.36l-.44-.06c-.63.79-1.25,1.59-1.89,2.37-.83,1-1.7,2-2.5,3a9.55,9.55,0,0,0-1.36,2.12,11.88,11.88,0,0,0-.64,2.58C408.09,219.31,408.29,219.63,408.38,219.93Zm-178.56,64c.62,2.37,1.23,4.68,1.83,7,.29,1.12,2.61,2.84,3.75,2.72a5.06,5.06,0,0,0-.09-.68c-.37-1.35-.86-2.67-1.09-4A7.13,7.13,0,0,0,229.82,283.91Zm-34.45-50-.58,0c-.11.65-.27,1.29-.34,1.94a35.11,35.11,0,0,1-.55,5.16c-.58,2.14.54,3.74,1.13,5.85a7.17,7.17,0,0,0,.48-1.16c.2-1.06.32-2.13.53-3.19a17,17,0,0,1,.56-1.8,4.24,4.24,0,0,0-.32-3.63A13.21,13.21,0,0,1,195.37,234Zm-2.66-8.19c-2.24,4.23-2.6,11.36-.55,13.62.17-.75.36-1.34.43-1.94a37.27,37.27,0,0,1,.64-5.21A9.46,9.46,0,0,0,192.71,225.77Zm61.89,73-.4.39c1.77,2.42,3.47,4.88,5.31,7.23a3.77,3.77,0,0,0,3.32,1.32,2.12,2.12,0,0,0-.11-.5c-1.36-2-2.69-4.08-4.13-6.05A6.45,6.45,0,0,0,254.6,298.73Zm-18.14-10-.22.25c.42,1.49.88,3,1.25,4.46a6,6,0,0,0,3.7,4.41,4.58,4.58,0,0,0,.85.19,3,3,0,0,0-.06-.85c-.74-2-1.49-4-2.28-6a2.07,2.07,0,0,0-.72-.95C238.17,289.7,237.3,289.22,236.46,288.72ZM414.92,191.9c-1.5,2.46-2.95,4.89-4.47,7.27-.94,1.47-.72,3-.68,4.68C412.62,202,415.6,194.84,414.92,191.9ZM278,92.58A15,15,0,0,0,271.38,89c-1.2-.3-2.69.55-4.05.87a3,3,0,0,0,1.27,1,28,28,0,0,1,4.2,1.66C274.56,93.59,276.19,93.07,278,92.58ZM190.81,218.09c-2.84,4.23-3.5,9.57-1.44,11.32.28-1.06.51-2.1.82-3.11a5.66,5.66,0,0,1,.8-1.92c1.29-1.56.67-3.25.47-4.91A6,6,0,0,0,190.81,218.09ZM265.5,95.83c-2.71-2.21-7.8-4-10.66-1.42.45.18.84.35,1.25.47,1.17.36,2.55.43,3.48,1.11C261.69,97.53,263.51,96.46,265.5,95.83ZM406.66,174.4c1.95-1.28,2.47-12.84.69-14.23-.07.76-.13,1.51-.22,2.25a45.37,45.37,0,0,1-.94,7.32A6.36,6.36,0,0,0,406.66,174.4Zm-7.38-20,.52,0c.11-.71.18-1.44.35-2.13a15.58,15.58,0,0,0,.11-7.09c-.22-1-.41-2-1.65-2.53a4.31,4.31,0,0,0-.13.71c0,1.15.06,2.3,0,3.43-.08,1-.35,1.95-.52,2.93-.08.46-.3,1-.15,1.38C398.19,152.19,398.76,153.27,399.28,154.38ZM202.18,148a10.81,10.81,0,0,0-1.06.31c-1,.4-1.88.87-2.86,1.23a6.34,6.34,0,0,0-3.8,3.73,3,3,0,0,0-.08.87,3.37,3.37,0,0,0,1-.09,15.9,15.9,0,0,1,3.45-1.53C201.34,152.11,201.81,150.33,202.18,148Zm86,165.11c-1.45-1.85-2.72-3.59-4.12-5.22-1.2-1.4-2.88-1.27-4.57-1.21C280.47,309.52,285.79,313.58,288.14,313.12Zm-85.38-52.57.36-.13c0-1.71,0-3.41,0-5.12,0-.77.5-1.63.28-2.28-.6-1.71-1.47-3.33-2.23-5a3.13,3.13,0,0,0-.15,1.45c0,2.58,0,5.16,0,7.74A4.47,4.47,0,0,0,202.76,260.55ZM333,303.8a9.51,9.51,0,0,0,1.61.48c2.83.27,5.66.5,8.49.75a2.39,2.39,0,0,0,.36.05c.5-.06,1-.14,1.48-.21-.35-.33-.68-.67-1.05-1a1.74,1.74,0,0,0-.55-.21,25.17,25.17,0,0,1-4-1.27C337.66,301.54,334.43,302.57,333,303.8ZM211.51,125.72l.14.39a6.2,6.2,0,0,0,1.22,0c1.43-.26,2.85-.58,4.28-.86.59-.11,1.35,0,1.74-.31a21.91,21.91,0,0,0,2.32-2.58,8.81,8.81,0,0,0-1.41-.17c-1.64.14-3.28.31-4.91.5a1.45,1.45,0,0,0-.87.35C213.15,123.9,212.34,124.82,211.51,125.72Zm90.88,188.34c0-.26.05-.38,0-.41-1.82-1.71-3.63-3.43-5.49-5.09-.63-.57-3.1-.5-3.86,0,1.24,1.1,2.53,2.14,3.7,3.3A7,7,0,0,0,302.39,314.06ZM387,266.83c.5,0,1,.15,1.38,0,2.7-1.31,5.4-2.63,8-4.07.5-.27.72-1.06,1.08-1.62a30.25,30.25,0,0,0-6.39,1.9C389.45,263.78,387.64,264.6,387,266.83ZM305.46,90.69c-.69-.5-1.38-1-2.09-1.5-1.68-1.17-3.31-2.43-5.08-3.43a4.59,4.59,0,0,0-3.79,0c.5.38.76.61,1.06.79,1.59.94,3.41,1.63,4.72,2.86A5.35,5.35,0,0,0,305.46,90.69Zm-30.24-2.36s0,.1,0,.11c2.05,1.24,4.1,2.48,6.16,3.69a1.33,1.33,0,0,0,.72.05,17.5,17.5,0,0,0,1.77-.24,5.2,5.2,0,0,0,.91-.39,3.37,3.37,0,0,0-.62-.76c-1.45-.91-3-1.72-4.37-2.7A3.88,3.88,0,0,0,275.22,88.33Zm-45.06,20.38a33.07,33.07,0,0,1,4.78.42,4.27,4.27,0,0,0,3.92-.87c.14-.12.41-.08.55-.2a9.47,9.47,0,0,0,.74-.81,4.51,4.51,0,0,0-1-.48c-1.14-.19-2.31-.28-3.45-.49C233.59,105.92,231,107,230.16,108.71Zm-45.34,94.81.38.11c.29-.49.58-1,.86-1.48a54.43,54.43,0,0,1,2.88-5.05c1.16-1.62.83-3.23.7-5.21-.63.85-1.11,1.39-1.47,2-1.08,1.85-2.17,3.7-3.15,5.61A6.23,6.23,0,0,0,184.82,203.52Zm197.3,76.34c-3.38-.09-10.26,1.18-11.74,4.08C373.57,284.14,381.61,281.35,382.12,279.86Zm14.5-132c0-3.12.11-6.06-.06-9-.05-.83-.88-1.61-1.35-2.41l-.41.17c0,.47,0,.95,0,1.41a29.82,29.82,0,0,1-.36,4.84c-.42,1.85.53,3.18,1.25,4.63C395.78,147.66,396.21,147.67,396.62,147.81Zm-77.14-55.4c-.81-.66-1.6-1.33-2.42-2-1.29-1-2.67-1.86-3.88-2.94a6,6,0,0,0-4.75-1.5,7.15,7.15,0,0,0,.66.79c1.63,1.35,3.29,2.67,4.92,4A6.24,6.24,0,0,0,319.48,92.41ZM255.59,305l.13-.44a41.49,41.49,0,0,1-3.37-5.67c-.78-1.87-2.32-2.06-3.81-2.65.88,1.91,1.93,3.69,2.85,5.53a6,6,0,0,0,2.77,2.89A6.64,6.64,0,0,0,255.59,305Zm-32.38-20.38c-.06-.58-.09-.92-.14-1.26a36.59,36.59,0,0,1-.76-4.84,4.56,4.56,0,0,0-3.13-4,8,8,0,0,0,0,1.47c.27,1.41.73,2.79.88,4.21.12,1.08.12,2.09,1.09,2.81C221.78,283.43,222.36,283.93,223.21,284.62ZM334.53,91.45c.29.31.6.6.88.92a35.71,35.71,0,0,1,3.42,4,9,9,0,0,0,5.56,4.13,5.57,5.57,0,0,0-.4-.77,57.52,57.52,0,0,1-4.6-5.69A5.34,5.34,0,0,0,334.53,91.45Zm77,138.12c-.51.42-.83.69-1.16,1a40.06,40.06,0,0,1-4.4,3.56,6.6,6.6,0,0,0-2.54,3.34,2.59,2.59,0,0,0,0,1,4.28,4.28,0,0,0,.94-.37q1.94-1.38,3.82-2.85a17.53,17.53,0,0,0,2-1.75A4.68,4.68,0,0,0,411.48,229.57ZM207.21,131.44l.11.46c2.15-.5,4.34-.88,6.44-1.54,1.19-.38,1.79-1.57,2.41-2.74C211.68,127.73,209,128,207.21,131.44Zm80.63-45.17c.29.24.56.51.86.72,1.45,1,3,1.86,4.33,3,1.78,1.45,3.73.89,5.64.93-2-1.4-4.19-2.56-6.09-4C291.06,85.66,289.53,86.07,287.84,86.27ZM295,313.75c-1.45-1.73-2.73-3.36-4.12-4.9s-3-1.14-4.7-1.21c1.07,2.25,1.68,2.69,2.91,2.19C290.47,312.77,292.19,314,295,313.75Zm86.65-40.65c1.67-.08,9.35-3.45,11.29-4.94-.2-.72-.57-.79-1.24-.49a8.39,8.39,0,0,1-2.5.76A9.46,9.46,0,0,0,381.62,273.1Zm-3.4-156c.15,2.16.32,4.25.42,6.33a4.17,4.17,0,0,0,2.68,3.5C381.5,123.41,381.05,117.81,378.22,117.1ZM316.08,312.74l.36-.45a4.06,4.06,0,0,1-.78-.3c-2.07-1.22-4.08-2.53-6.2-3.65a3,3,0,0,0-3.14.24C308.91,311.54,313.74,313.56,316.08,312.74ZM325.42,94c-.72-2.77-7.67-7.61-10.25-7,.63.53,1.17,1,1.72,1.44,1.45,1.21,3.17,2.21,4.29,3.67S323.76,93.77,325.42,94Zm12.21,213.49a18.17,18.17,0,0,0-2-1,21.11,21.11,0,0,1-3.25-1.13c-2.23-1.33-4.21-.43-6.27.37,2.71.85,5.43,1.6,8.16,2.31A3.11,3.11,0,0,0,337.63,307.44Zm60.77-58.57a2.69,2.69,0,0,0,.79-.05c1.82-1,3.67-2,5.44-3a13,13,0,0,0,2.26-1.94c.2-.19.12-.66.17-1-.32,0-.64.08-1,.16a13.66,13.66,0,0,0-2.71.8,12.56,12.56,0,0,0-3.23,2.1A13.47,13.47,0,0,0,398.4,248.87Zm-6-107c.95-3.9,1.47-7.65-1.28-10.9a1.85,1.85,0,0,0-.19,1c0,1.37.06,2.73,0,4.09-.05,1-.6,2.06-.36,2.93A11.83,11.83,0,0,0,392.36,141.88ZM331.49,309.53a17.4,17.4,0,0,0-1.84-.92c-.25-.09-.65.21-.9.11-1.69-.67-3.35-1.43-5.05-2.11a4.79,4.79,0,0,0-3.82.31C322,309,329.05,310.64,331.49,309.53Zm55.32-183.65a3.43,3.43,0,0,0-.07.56c.14,2.44.33,4.88.39,7.32a3,3,0,0,0,2.25,2.66c-.11-2.55-.3-5-.31-7.55C389.07,127.25,387.67,126.84,386.81,125.88ZM329.13,89.71,329,90a3.52,3.52,0,0,0,.38.72,48.8,48.8,0,0,1,4.08,4.71c1.18,1.78,3.17,1.75,4.68,2.8a1.12,1.12,0,0,0-.16-.84c-2.26-2.38-4.51-4.77-6.86-7.06C330.68,89.92,329.81,89.91,329.13,89.71ZM209.43,261.86c0,.61-.08.89-.06,1.17.16,2.16.26,4.33.53,6.48a4.34,4.34,0,0,0,2.33,3.53c0-1.09,0-2,0-3,0-1.13,0-2.26-.06-3.39a2.56,2.56,0,0,0-.07-1.08c-.58-1.05-1.23-2.05-1.89-3.06A4.91,4.91,0,0,0,209.43,261.86Zm182-1.6.29.5a3.37,3.37,0,0,0,1-.15c1.95-1,3.89-2,5.8-3.08.94-.54,2.16-.72,2.64-1.9.11-.27.17-.55.26-.83a2,2,0,0,0-.83,0,59,59,0,0,0-5.94,2.7A22.43,22.43,0,0,0,391.4,260.26Zm-176.85,8.68c-.12.08-.23.13-.23.17.15,2.4.3,4.81.5,7.21,0,.27.32.54.53.77.39.44.8.87,1.23,1.27a5.82,5.82,0,0,0,.79.54l.33-.21c-.27-1-.54-2-.8-3a1.71,1.71,0,0,1-.14-.84A5.13,5.13,0,0,0,214.55,268.94Zm149.27,19.65a5.22,5.22,0,0,0,.88,0c3.48-.65,7-1.3,10.44-2,.17,0,.44-.53.39-.59-.19-.25-.5-.6-.76-.59-2,.08-4,.16-6,.39A7.66,7.66,0,0,0,363.82,288.59ZM312,308a12.6,12.6,0,0,0,1.69.9c2.9,1,5.8,1.91,8.72,2.8a3.25,3.25,0,0,0,1.31-.17c-.3-.34-.54-.83-.91-1-1.42-.66-3.08-.95-4.27-1.87C316.44,307.09,314.42,307.15,312,308Zm-63.4-6.51c-.89-2.16-1.73-3.94-2.34-5.79s-2.2-2.3-3.8-3.21a5.16,5.16,0,0,0,.12.58c1,2.13,2.08,4.23,2.92,6.42C246,300.93,247.12,301,248.55,301.51Zm156-52.37-.3-.31c-.42.16-.85.3-1.27.48a8.2,8.2,0,0,1-1.85.78,6.43,6.43,0,0,0-5.84,4.83,4.36,4.36,0,0,0,1.19-.26c2.35-1.3,4.71-2.59,7-4C404,250.38,404.24,249.66,404.59,249.14Zm-129.6,62a3.79,3.79,0,0,0-.38-.71,60.58,60.58,0,0,1-3.95-5c-1-1.61-2.61-1.36-4-2.08C267.33,306.57,272.63,310.76,275,311.17ZM235.81,104.7l4.7.87a5.82,5.82,0,0,0,5.2-1.56C243.18,102.52,237.52,102.82,235.81,104.7ZM205.26,255.85a14,14,0,0,0-.27,2.35c.09,1.56.28,3.11.47,4.66s.29,3.36,2.08,4.53c0-.86-.1-1.6-.12-2.35a24.43,24.43,0,0,1,0-4.19,3.64,3.64,0,0,0-.56-2.72C206.39,257.4,205.86,256.7,205.26,255.85ZM359.75,109.14l.33-.35c0-2.59-2.35-8.59-5.87-9a1.64,1.64,0,0,0,.07.46c1.21,2.42,2.36,4.88,3.67,7.25C358.32,108.16,359.14,108.6,359.75,109.14Zm47.58,116.49.4.25c.52-.71,1-1.42,1.54-2.15.16-.22.17-.58.36-.73a20,20,0,0,0,4.7-6,4.86,4.86,0,0,0,.18-1.75,4.65,4.65,0,0,0-.57.3,62.72,62.72,0,0,1-5.11,6.1A4.22,4.22,0,0,0,407.33,225.63Zm-190.58-105a7.68,7.68,0,0,0,1.15.14c1.37-.06,2.74-.19,4.1-.23a4.23,4.23,0,0,0,3.6-2.57,34.31,34.31,0,0,0-3.8,0C219.88,118.25,217.64,117.94,216.75,120.67ZM365.19,113l.49-.3c-1.11-2.73-2.13-5.49-3.38-8.15-.32-.67-1.34-1-2.13-1.58.75,2.39,1.71,4.47,2,6.63S364.31,111.73,365.19,113ZM272.57,305c.59,2,7.25,7.25,8.59,7a31.8,31.8,0,0,1-3.53-4.53C276.5,305.3,274.53,305.66,272.57,305ZM251.44,101.24c-2.49-1.75-8.93-1.65-10.31.15a33.92,33.92,0,0,1,5.18.92C248.29,103,249.77,102.27,251.44,101.24Zm153.41,54.59c-.49,2.51-.94,4.89-1.42,7.27-.32,1.59.48,2.8,1.27,4.05C405.62,163.4,406.81,159.68,404.85,155.83ZM199.09,254.48c0-1.08.06-1.88.1-2.68a19.48,19.48,0,0,1,.23-4.27c.46-1.73.42-3.11-1.13-4.19C197,246.78,196.79,252.23,199.09,254.48Zm203.35-93.71c.13-1.47.25-2.79.38-4.1a36.71,36.71,0,0,1,.45-4.07,3.84,3.84,0,0,0-.75-3.06c-.18.19-.31.26-.34.36-.52,2.29-1,4.59-1.54,6.88A5.59,5.59,0,0,0,402.44,160.77ZM281.59,87.16a54.61,54.61,0,0,1,5.17,3.19,4.18,4.18,0,0,0,3.64.86,2.08,2.08,0,0,0,.56-.31c-.12-.19-.2-.46-.38-.57-1.73-1.06-3.49-2.08-5.22-3.15C284.11,86.41,282.88,86.13,281.59,87.16ZM203.37,137.1a24.75,24.75,0,0,1,4.6-1,3.7,3.7,0,0,0,3.54-2c.16-.3.29-.83.14-1a1.23,1.23,0,0,0-1.05-.34,49.5,49.5,0,0,0-4.76,1.49A5,5,0,0,0,203.37,137.1Zm-10,34c-3.21,1.37-6.87,5.51-6.51,7.34a7.79,7.79,0,0,0,1.16-.56c1.17-.83,2.32-1.67,3.44-2.55a4.75,4.75,0,0,0,1.33-1.31,6.62,6.62,0,0,0,.47-1.85C193.28,171.91,193.28,171.61,193.33,171.13Zm106,137.46a31.38,31.38,0,0,0,8.69,5.17c.26.12.67-.11,1.33-.24-2.32-1.75-4.31-3.31-6.38-4.77C302,308,300.81,308.27,299.35,308.59Zm-78.2-192.38h4.63a6.87,6.87,0,0,0,2.54-.11,9.21,9.21,0,0,0,2.14-1.92,3.85,3.85,0,0,0-.91-.31c-1.27,0-2.56.09-3.81,0C223.76,113.61,222.48,114.58,221.15,116.21Zm-35.34,68.92c.4-.5.53-.78.76-.93,1.06-.7,2.17-1.33,3.23-2a4.82,4.82,0,0,0,1.76-4.67c-1.72,1.34-3.43,2.66-5.11,4a1.07,1.07,0,0,0-.3.64C186,183,185.94,183.91,185.81,185.13Zm116.6-99.61-.1.48c.34.27.67.56,1,.83a29.89,29.89,0,0,1,4.07,3.1,4.09,4.09,0,0,0,4.34,1.27c-2.39-1.92-4.85-3.74-7.39-5.43C303.86,85.45,303.06,85.59,302.41,85.52Zm-41.13,6.06c2.12,1,3.93,1.76,5.7,2.61s3.08.81,4.44-.36c-.39-.19-.74-.37-1.09-.52a37.64,37.64,0,0,1-4.7-2C264,90.37,262.87,91.37,261.28,91.58Zm-35.39,20.19c.29.18.45.36.62.37,1.62.14,3.25.2,4.86.37a3.57,3.57,0,0,0,2.89-.94.93.93,0,0,0,.35-.69c0-.18-.37-.4-.59-.44-1.19-.19-2.38-.4-3.58-.48C228.72,109.83,227.06,110,225.89,111.77Zm-33.81,48.74c.72-.37,1.43-.68,2.09-1.08,1.94-1.14,4.59-1.5,4.9-4.62a2.88,2.88,0,0,0-.88.12c-1.47.71-2.93,1.45-4.39,2.18S191.91,158.71,192.08,160.51Zm193.2-28.81a4.1,4.1,0,0,0,.21-1,34.78,34.78,0,0,0-.41-4.79,22.53,22.53,0,0,0-1.42-3.87c-.06-.16-.34-.24-.62-.42a3.09,3.09,0,0,0-.11.65,28.94,28.94,0,0,1,.24,4.9A4,4,0,0,0,385.28,131.7ZM188.44,171.92a40.94,40.94,0,0,1,4-2.51,3,3,0,0,0,2.13-3.58,2.27,2.27,0,0,0-.75.15,36.22,36.22,0,0,0-3.24,2.06C189.33,169,187.93,169.89,188.44,171.92ZM323.18,88.71c2,2.08,3.84,4.11,5.82,6a7.36,7.36,0,0,0,2.15,1l.2-.31a4.18,4.18,0,0,0-.4-.68c-1.13-1.31-2.33-2.57-3.4-3.93A4.74,4.74,0,0,0,323.18,88.71Zm90.92,96.76c-.06.08-.17.15-.2.25-.87,2.57-1.61,5.18-3.42,7.32a4.07,4.07,0,0,0-.6,3.78c.37-.3.69-.45.83-.69C412.58,192.81,414.47,189.5,414.1,185.47Zm-58.29-78.82a32,32,0,0,0-4.93-8.78c-.41-.52-1.23-.71-1.87-1.05l-.19.29c.92,1.29,1.88,2.56,2.74,3.89a9.5,9.5,0,0,1,1.76,3.31,2.54,2.54,0,0,0,1,1.55A6,6,0,0,0,355.81,106.65ZM409.3,236.32c-.75.43-1.39.76-2,1.14-1.36.84-2.67,1.79-4.09,2.54-1.21.64-1.65,1.21-1.47,2.57C405.29,241.25,409.13,238.19,409.3,236.32ZM267.91,309.21a3.05,3.05,0,0,0-.17-.55c-1.21-1.93-2.38-3.89-3.66-5.77-.64-.93-1.74-1-2.72-1.17l-.13.32,1.14.75C262.1,304,265.68,308.27,267.91,309.21Zm-78-143c.25-.18.49-.37.75-.52a34,34,0,0,1,3.64-2,2.52,2.52,0,0,0,1.74-3.07C193.81,162.27,190.35,162.37,190,166.2Z"/><path d="M248.49,256.47a13,13,0,0,1-3.62-.87,2.76,2.76,0,0,1-1.13-3.35c-1-.06-1.91-.09-2.83-.19a1.7,1.7,0,0,1-1.65-1.33c-.14-.52-.63-.93-.81-1.44a4,4,0,0,1-.35-1.84c.1-.73-.11-1-.77-1-1.57.15-2.39-.92-3-2-.4-.76-.62-1.19-1.25-.8a8.26,8.26,0,0,0-.77-.93,3.62,3.62,0,0,1-1.27-3.34c.1-.79-.24-1.05-.69-1.45a8.64,8.64,0,0,1-1.57-1.69,2.56,2.56,0,0,1,0-1.46,6.6,6.6,0,0,1,.33-1.14,3.16,3.16,0,0,1-2.34-5.15c.55-.68.31-.88-.43-1.16a3.53,3.53,0,0,1-1.89-4.38,1.44,1.44,0,0,0-.07-1.08c-.44-.78-1.06-1.45-1.47-2.24-1-1.89-.57-2.89,1.47-3.63.44-.16.92-.24,1.44-.37.15-.84-.13-1-1-.69-1.36.55-2.39.13-2.57-1,.75-.37,2.13.61,2.31-.91a5.06,5.06,0,0,0-.53-1.79l-.48.11.2,1.73-1.39-.56-.63.6c-.87.17-1.2-1.81-.45-2.64a8.44,8.44,0,0,1,1-.8c-.46-.33-.77-.54-1.06-.78s-.49-.4-.45-.53c.36-1.38-1-2.73.1-4.2.36-.48.05-1.68-.29-2.4-1-2.08-1-2.05.35-3.74-1.81-2.41-1.84-3.05-.39-5.62a1.51,1.51,0,0,0,.12-1.14,3.81,3.81,0,0,1,.31-4,1.37,1.37,0,0,0,.22-1,4.7,4.7,0,0,1,2.07-5.42c.06,0,.08-.14.11-.21-1.4-2.12-1.29-2.84.44-4.83.23-.26,0-1-.07-1.46-.17-2,1-3.34,2.36-4.53.12-.11.26-.19.39-.29s0-.06.06-.1c-1.05-1.77-.32-3,1-4.37.09-.09.21-.15.26-.25.91-1.78,1.87-3.52,2.67-5.34s1.43-3.34,3.65-3.46a2.6,2.6,0,0,1,.93-4,3.31,3.31,0,0,0,1.58-2c.5-1.29,1.25-2.3,2.86-2.3.26,0,.71-.49.75-.8.23-1.68.8-3,2.66-3.42.3-.07.75-.5.76-.78.07-1.53,1.08-2.14,2.32-2.57a2.27,2.27,0,0,0,.68-.23c1.53-1.27,2.86-2.83,5-3.24.2,0,.07-1.16.38-1.39a8.9,8.9,0,0,1,2.66-1.43c.62-.19,1.15-.17,1.57-.85a3.4,3.4,0,0,1,2.92-1.67,1.75,1.75,0,0,0,1-.47c.75-.66,1.38-1.45,2.16-2.07,1-.78,1.42-.71,3.21.08a26.73,26.73,0,0,1,2.39-2.48,4,4,0,0,1,2-.86,8.3,8.3,0,0,0,3.76-.89c1.06-.63,2.58-.46,3.88-.69a2.66,2.66,0,0,0,1-.5c.8-.56,1.42-1.34,2.64-.72a8.62,8.62,0,0,0,2.7.29c-.22.17-.12.13-.1.07a2.46,2.46,0,0,1,3.66-1.61,1.44,1.44,0,0,0,1.71-.28,3,3,0,0,1,4.33-.07,1,1,0,0,0,1.65,0c1.71-1.64,2.49-1.66,4.58-.42a1.56,1.56,0,0,0,1.28.1,3.81,3.81,0,0,1,3.88.17,1.92,1.92,0,0,0,1.59,0c2-1.16,2.46-1.14,4.2.39.25.22.8.14,1.22.13.68,0,1.55-.33,2,0,1.79,1.19,3.82,1.08,5.78,1.4.11,0,.27.06.32.14.77,1.28,1.95,1,3.09.82a2,2,0,0,1,2.12,1c.49.8,1,1.4,2.23.79a2.67,2.67,0,0,1,3.25,1,2.43,2.43,0,0,0,2.41.82c1.78-.14,2.69.58,3.12,2.34.08.33.63.85.79.79,2.06-.71,3.13.49,4.07,2l.47.69c1.4,0,3-.72,4,.86a2.17,2.17,0,0,1-.13,2.89c1-.08,1.83-.08,2.63-.22a1.72,1.72,0,0,1,2.22,1.2c.3.82.56,1.59,1.84,1.61,1.51,0,3,1.81,3,3.66,3.05.67,4,2,3.26,4.76.42,0,.8.05,1.18.05,1.82,0,2.91,1,2.78,2.81-.06.86.5,1.12,1,1.31,1.46.58,2.27,1.45,2,3.12,0,.25.43.69.75.81,1.06.43,2.39.53,2.66,1.94a12.87,12.87,0,0,1,0,2.32,15.74,15.74,0,0,1,2.44,2.15c.4.53.3,1.44.46,2.18.06.32.21.89.33.89a1.37,1.37,0,0,1,1.38,1.12c.4,1.13,1,2.21.6,3.48a1.73,1.73,0,0,0,0,.32c2,1.05,2.4,1.91,1.55,3.94-.37.88.25,1.12.69,1.44a2.62,2.62,0,0,1,.79,3.51c-.49.76-.53,1.22.35,1.74a3,3,0,0,1,1.43,3.1,3.53,3.53,0,0,0,.71,2.27,2,2,0,0,1-.12,3.06,1.1,1.1,0,0,0,.18,1.7,3.25,3.25,0,0,1,.44,4.18c-.59.72-.65,1.12.21,1.72,1.27.88,1,3.09-.46,4.19-.28.22-.59.4-.93.63a3.81,3.81,0,0,0,.35.42c2,1.45,2.23,2.51.86,4.6-.58.9-.85,1.65-.05,2.64s.13,2.88-.93,3.46l-1.63.85c1.43.51,2.48,1.32,2.26,2.73a2.16,2.16,0,0,1-2.1,2c0,.31-.09.6,0,.78,1.06,1.76,0,3-.94,4.35a2.42,2.42,0,0,0,0,1.7c.64,2.38.36,3-1.78,4.11a9.91,9.91,0,0,0-1.46,1.16c1.45,1.08.69,2.54-2,3.81.83,1.37-.27,2.48-.55,3.72a1.13,1.13,0,0,1-.66.69c-1.39.32-1.54,1.27-1.44,2.46a2.1,2.1,0,0,1-1.8,2.33c-.41.11-.83.25-1.22.36,0,.74.12,1.37.08,2a2.52,2.52,0,0,1-3.05,2.38c-.75-.15-.89.21-.85.78.16,2.23-.73,3.64-3,4.06a.89.89,0,0,0-.55.52,3.5,3.5,0,0,1-2.84,2.45,1.86,1.86,0,0,0-1.13,1.08,3.3,3.3,0,0,1-2.06,2.37,5.07,5.07,0,0,0-2.62,2.3,3.08,3.08,0,0,1-2.59,1.52c-.76,0-1,.46-1.38,1.1a14.84,14.84,0,0,1-1.78,2.29,2,2,0,0,1-2.51.85c-.27-.11-1,.42-1.25.83-.64,1.11-1.24,1.84-2.76,1.36a2,2,0,0,0-2.8,1.33c-.4,1.1-1.43,1.35-2.63.8a1.64,1.64,0,0,0-2.31.62c-.67,1.12-1.62,1.17-2.72,1.07-.34,0-.88,0-1,.19-1,1.46-2.27,1.67-3.89,1.37a2.2,2.2,0,0,0-1.87.51c-1.15,1.58-2.63,1.62-4.2,1.1a2.29,2.29,0,0,0-2.33.44c-1.11.87-2.38.54-3.62.52a3.05,3.05,0,0,0-1.52.24c-1.73,1-2.84,1-4.3-.11A1.37,1.37,0,0,0,303,278c-1.7,1.57-3.34,1.4-5,0a1.61,1.61,0,0,0-.31-.19c-1.67,1-3.35,1.49-5.23.39a2.57,2.57,0,0,0-1.76-.11,4,4,0,0,1-4.15-1.22c-.23-.24-.81-.45-1-.32-1.8,1-3.19-.2-4.71-.75a4,4,0,0,0-1.75-.32,5.16,5.16,0,0,1-4.4-1.1,2.89,2.89,0,0,0-2.32-.45,2.77,2.77,0,0,1-2.63-.78,8.58,8.58,0,0,0-2.82-1.66,8.66,8.66,0,0,1-2.8-2.27c-.41-.4-.57-.87-1.34-.6a2.32,2.32,0,0,1-1.54-.42c-1.16-.64-2.72-.74-3.2-2.4-.09-.32-.84-.55-1.32-.63a3.41,3.41,0,0,1-2.92-2.36c-.31-.95-.94-1.21-1.95-1.22C249.18,261.54,246.6,259.54,248.49,256.47ZM233,240.74l0,0c.53.55,1.15,1.31,1.89.68a1.2,1.2,0,0,0-.2-1.85c-.62-.55-1.22-1-1.95-.52S232.58,240.23,233,240.74Zm142-40.55c-.15-2.48-.32-4.46-.38-6.44a54.54,54.54,0,0,0-2.15-11.91,80.63,80.63,0,0,0-3.28-9.77,57.34,57.34,0,0,0-3.72-7.69,77.62,77.62,0,0,0-5.3-7.89q-3.21-4.23-6.79-8.17a51.08,51.08,0,0,0-5-4.54,60.55,60.55,0,0,0-5.57-4.44,66.41,66.41,0,0,0-8.05-4.72c-3.95-1.9-7.78-4.12-12.18-5-1.23-.25-2.36-1-3.59-1.31-2.69-.6-5.43-1-8.13-1.54a46.83,46.83,0,0,0-11.32-.94c-2.75.09-5.49.26-8.23.49-1.47.13-2.92.47-4.38.72-2.2.39-4.41.76-6.6,1.21a20.1,20.1,0,0,0-3.1.94c-3.07,1.17-6.18,2.24-9.16,3.63s-5.79,3.08-8.65,4.7a23.77,23.77,0,0,0-3.53,2.3c-3,2.52-6,5.11-8.94,7.72a21.34,21.34,0,0,0-2.18,2.37c-1.11,1.33-2.25,2.64-3.26,4-1.88,2.63-3.77,5.27-5.48,8a56.93,56.93,0,0,0-3.25,6.31c-1.19,2.62-2.39,5.25-3.31,8-.83,2.45-1.31,5-1.9,7.56A67.9,67.9,0,0,0,226,196.76c-.09,2-.09,4,0,6,.08,1.76.34,3.51.53,5.27.1,1,.16,1.92.35,2.86.3,1.57.67,3.13,1.06,4.68.62,2.47,1.13,5,2,7.4,1,2.83,2.21,5.58,3.44,8.32a38.68,38.68,0,0,0,2.68,5.1c1.48,2.29,3.1,4.49,4.73,6.68.9,1.21,1.94,2.32,2.93,3.47.6.7,1.2,1.41,1.85,2.08s1.18,1.06,1.76,1.61c.73.68,1.47,1.35,2.14,2.08a17.12,17.12,0,0,0,1.89,2.31c2.77,2.18,5.55,4.38,8.48,6.34,2.46,1.64,5.12,3,7.73,4.4a37.34,37.34,0,0,0,5.27,2.6c2.7,1,5.49,1.69,8.26,2.46,1,.29,2.24.2,3.16.68,1.75.92,3.64.84,5.48,1.11a46.84,46.84,0,0,0,5.66.5,120.9,120.9,0,0,0,13.6-.11,58.39,58.39,0,0,0,12.64-2.69c1.91-.63,3.77-1.4,5.67-2a54.25,54.25,0,0,0,10.86-5,108.3,108.3,0,0,0,11.72-8.44,57.54,57.54,0,0,0,10.75-11.56,73.77,73.77,0,0,0,5.62-8.67,61.78,61.78,0,0,0,5.93-14.56c.63-2.68,1.52-5.32,1.88-8C374.58,207.71,374.73,203.7,375,200.19Zm-75.44,74.06c-.32.22-.87.45-1.11.86s.1.82.23,1.22a1.53,1.53,0,0,0,.48.81c.47.28,1.2.75,1.49.58a4,4,0,0,0,1.48-1.7c.13-.3-.35-1-.74-1.33A5.9,5.9,0,0,0,299.56,274.25Zm13.89,1.44a2.24,2.24,0,0,0-1.8-2.09c-.89,0-2.24,1.17-2.22,1.89s1.42,1.43,2.67,1.41A1.2,1.2,0,0,0,313.45,275.69Zm-9.57.53a16.59,16.59,0,0,1,1.62,1.08c.8.68,1.48.19,2-.29s.48-2-.15-2.25a3.55,3.55,0,0,0-2.28-.26C304.5,274.74,304.23,275.68,303.88,276.22ZM349.4,139.66a3.85,3.85,0,0,0-.39-1.12c-.46-.7-1.11-1.26-2-.9a1.74,1.74,0,0,0-1.11,1.92c.07,1,.83,1,1.56,1.09a4.37,4.37,0,0,1,.67.22C349.07,141.16,349.44,140.89,349.4,139.66Zm24.48,88.69c.81,0,1.73-.56,1.62-1.28a3,3,0,0,0-1.15-1.85,1.89,1.89,0,0,0-1.8.11,2.21,2.21,0,0,0-.36,3c.48-.5,1-1,1.47-1.5Zm-48.29,44.77c-.54-1.43-2.8-2.26-4-1.38a1.58,1.58,0,0,0-.51,1.23c0,.33.41.92.67.93,1,0,2.13.63,3-.48C324.87,273.21,325.29,273.21,325.59,273.12Zm-87.73-119a1,1,0,0,0-1-1.36c-1-.09-2.31.88-2.33,1.56,0,.9,1,2.17,1.66,2.16S237.83,155.42,237.86,154.17Zm-6.24,5.46c.52.51.95,1.24,1.57,1.48s2.45-1.41,2.12-2.11a3.66,3.66,0,0,0-1.79-1.51C233,157.25,231.88,158.62,231.62,159.63Zm35.81,110.18c.53,0,1.28.24,1.26-.89,0-.84-1-2.29-1.58-2.12-.77.21-1.87.52-2.12,1.1C264.56,268.9,265.68,269.72,267.43,269.81Zm-23-123.29a1.39,1.39,0,0,0-1.25-1.6c-.91,0-1.93.76-1.75,1.55s-.39,2,1,2.21C243.44,148.8,244.44,147.62,244.46,146.52Zm19.3-16.3c-1.05-.15-2,.25-2,1.34s1.1,1.2,2,1.24c1.23,0,2.32-.63,2.14-1.39C265.67,130.32,264.79,130.1,263.76,130.22ZM275.84,125l-2.35,1.21a6.86,6.86,0,0,0,1.07,1.66c.84.72,1.7,0,2.42-.37.33-.19.68-1,.54-1.22A7.38,7.38,0,0,0,275.84,125ZM343.49,264.4c-.58.23-1.14.4-1.65.66a1.26,1.26,0,0,0-.56.68.63.63,0,0,0,.3.55,2.25,2.25,0,0,0,2.42-1c.46-.59.79-1.38.15-1.93a3.1,3.1,0,0,0-2-.8c-.9.1-1.27.93-1.13,1.9C343,263.75,343,263.75,343.49,264.4Zm-6.9-131.75c0,1.53.84,2.54,1.86,2.28a3,3,0,0,0,1.61-1.51c.31-.62-1.28-1.81-2.39-1.65C337.18,131.84,336.78,132.49,336.59,132.65Zm-42,145.26,2.2-1.29a10.64,10.64,0,0,0-2.29-1.94c-.31-.14-1.38.65-1.64,1.23S293.67,277.63,294.6,277.91Zm26.58-151.36c.83,1.6,1.33,2,2.55,1.55.48-.16,1.21-1,1.13-1.14a3.79,3.79,0,0,0-1.46-1.74C322.25,124.63,321.7,125.61,321.18,126.55Zm46.34,32.68c0-.83-.91-2-1.64-1.77a2.47,2.47,0,0,0-1.36,1.44,1.8,1.8,0,0,0,1.45,2C367,161,367.55,160.49,367.52,159.23ZM243.81,249.44c-.56-.68-1.1-1.41-1.72-2.07a1.86,1.86,0,0,0-2.39-.09c-.62.79-.1,1.33.46,1.85.21.19.4.4.61.6C242,250.91,242.61,250.88,243.81,249.44Zm119-93.15c.83.16,1.16-.42,1.22-1.17s-1.36-1.82-2.33-1.89-1.08.47-1.16,1.08C360.45,155.21,361.67,156.27,362.85,156.29Zm-79.49,119a1.2,1.2,0,0,0,1.74-.25,1.48,1.48,0,0,0-.09-1.44,4.37,4.37,0,0,0-2.3-1.06c-.45,0-1,.88-1.37,1.44-.07.1.41.57.69.94l.73-1.12h.34ZM260.77,134.1l-.08-.52a6.43,6.43,0,0,0-1.56-.62c-1-.11-2.19.7-2,1.44s.86,1.2,1.32,1.79Zm80.53,1.47a6.44,6.44,0,0,0,1.13,1.7c.73.54,1.43.1,2-.51.75-.8.13-1.39-.34-1.93-.27-.31-.86-.72-1.06-.62A11.12,11.12,0,0,0,341.3,135.57ZM291,275.11c-.58-1.24-1.4-1.78-2.13-1.34-.56.35-1.27,1-1.33,1.51-.1.88,1.47,2,2.39,1.83.18,0,.44-.18.46-.31a.81.81,0,0,0-.16-.63,9.36,9.36,0,0,0-1-.88ZM226.75,171.64l.55.24a19.69,19.69,0,0,0-.58,2c-.05.21.19.68.32.68.82,0,1.77-1.2,1.39-1.94a2.84,2.84,0,0,0-1.45-1.45c-1.07-.27-1.71.56-2,1.52a3.35,3.35,0,0,0,.12,1.16,4.17,4.17,0,0,0,.91-.73A11.17,11.17,0,0,0,226.75,171.64ZM379,200.2a1.11,1.11,0,0,0,.21-1.8,9.28,9.28,0,0,0-1.71-1.3,12.63,12.63,0,0,0-1,2.15c-.22.88.27,1.42,1.15,1.46l.5-1.65.32.07Zm-156.15-3.31a6.31,6.31,0,0,0,1.23-1.31c.26-.52-.72-2.11-1.21-2.21-1-.22-1.56.33-1.35,1.4a1.18,1.18,0,0,1,.05.58C221.08,196.44,221.77,196.59,222.83,196.89Zm127.74,61.84c1.71-.07,2.94-1.27,2.71-2.54a2.07,2.07,0,0,0-1.12-1.33c-.63-.24-2.18,1.4-2.23,2.31l2.05-1.38.35.27ZM327.71,126.81a1.07,1.07,0,0,0-1.09,1.26c.15.67.9,1.65,1.4,1.66s1.43-.75,1.76-1.39S328.94,126.84,327.71,126.81Zm40.73,111.38a1.87,1.87,0,0,0,1.79-1.88,1.71,1.71,0,0,0-1-1.23,2.21,2.21,0,0,0-1.82.36c-.46.45-1.16,1.2-.35,2.06l1.13-1.44.4.12Zm-2.58,3c.34.53.55.89.8,1.2,0,0,.53-.21.54-.33a3.9,3.9,0,0,0-.1-1.91,1.72,1.72,0,0,0-1.5-.67,3.52,3.52,0,0,0-1.56,1.3c-.13.18.19.72.31,1.09l.86-.38Zm-92.78,31.06c.95-.36.78-1,.36-1.6s-.93-1.75-2.11-1.33c-.72.26-1.52.72-1.25,1.66.21.72.74,1.35,1.41,1.31-.05-.56-.24-1.42-.12-1.46C272.66,270.3,272.46,271.76,273.08,272.22Zm85.48-20.63c1.23.36,1.68-.4,2-1.2a1.36,1.36,0,0,0-.94-1.83,2.29,2.29,0,0,0-1.93.49,1.21,1.21,0,0,0-.13,1.9c1-.06.91-1.79,2.3-1.27ZM296.79,121.38a1.36,1.36,0,0,0-.75,1.52c.09.5.87,1.3,1.23,1.24.64-.11,1.85.17,1.76-1.22C299,122,298.29,121.37,296.79,121.38Zm-68,110.5a1.46,1.46,0,0,0,1.72-1.47,1.68,1.68,0,0,0-1.8-1.51c-.49.12-1.19.92-1.14,1.34C227.64,231,228.09,231.81,228.78,231.88Zm144.4-10.48c1,.22.73,2.39,2.27,1.32a2.78,2.78,0,0,0,.75-2.11c0-.72-.63-1.32-1.43-.83Zm5.54-26.53c.77-1,.95-2,.32-2.53a3.11,3.11,0,0,0-2-.8c-.29,0-.75,1-.81,1.54s.4,1,.62,1.45l.37-.17a4.57,4.57,0,0,1,.06-.83,4.4,4.4,0,0,1,.36-.76,3.3,3.3,0,0,1,.49.64C378.36,193.82,378.49,194.26,378.72,194.87Zm-1.63-7.73,1.26,2.05.41-.19c0-.48.16-1.05,0-1.42a3.25,3.25,0,0,0-1.35-1.48c-.31-.14-1.11.36-1.4.78a2.93,2.93,0,0,0-.22,1.61c0,.19.32.38.49.56.19-.17.45-.31.54-.52A9.46,9.46,0,0,0,377.09,187.14ZM270.64,127.77a3,3,0,0,0-.4.66,8.37,8.37,0,0,0-.18,1c.44,0,1.1.22,1.29,0,.38-.42.81-1,.16-1.67a2.4,2.4,0,0,0-2.86-.45,2.61,2.61,0,0,0-.26,3.58C268.1,129,268.14,127.47,270.64,127.77Zm92.41,119.34c1.06-.31,1.78-.79,1.41-1.81-.25-.7-.78-1.46-1.78-1.14-1.49.48-1.84,1.1-1.4,2.19l1.59-.64Zm7.31-82c.11-2.14-1-3.31-2.49-3.05-1.05.17-.92,1-1,1.79s.62.77,1,.63.59-.63,1-1.08c.18.17.45.38.68.63S370,164.58,370.36,165.11Zm-125-23c.3.77.5,1.29.72,1.8.15.34.27.86.53.95s.74-.18,1-.42a1.64,1.64,0,0,0,0-2.47A1.34,1.34,0,0,0,245.35,142.14Zm72.37,130.72-.25.26c-.24,0-.55-.09-.71,0a13.16,13.16,0,0,0-1.21,1,10.83,10.83,0,0,1,1.28.47c.24.11.57.33.6.54.14,1,.79.81,1.24.43s.61-1,.46-1.28A6.74,6.74,0,0,0,317.72,272.86Zm16.81-3.92a2.52,2.52,0,0,1-.37-.49,1.43,1.43,0,0,0-2-.91,4.11,4.11,0,0,0-1.35,1.62c-.06.11.56.87.74.82C332.48,269.74,333.42,269.34,334.53,268.94Zm44.22-57.09c-.13-1,.33-2.27-1.06-2.56-1.89-.4-1.21,1.51-1.92,2.12,1.05,1.81,1.6.44,2.18-.29ZM239.49,153.4c.11-1.25.15-1.2,1.14-1.83a1.46,1.46,0,0,0,.59-1.16c-.06-.37-.57-.67-.9-1l-1.21,2.11-.41-.17.36-1.8C237.56,150.61,237.56,150.61,239.49,153.4Zm23.4,113.81.05-.2-1.16-1.35.31-.28,1.14.83c.33-1.27-.68-1.6-1.41-1.73a3.42,3.42,0,0,0-1.93.62c-.14.07-.09,1,.08,1C260.91,266.58,261.91,266.87,262.89,267.21Zm90.87-123.73c0-1.1-1.19-2.51-1.93-2.46s-1.46.29-1.54,1.21.85,1.88,1.6,1.79A9.77,9.77,0,0,0,353.76,143.48Zm25.73,61.22h-.27c-.24.29-.53.85-.73.82-1.32-.22-.34-1.44-.9-2.13-1.49,0-1,1.51-1.26,2.22s.64,1.41,1.24,1.51a10.56,10.56,0,0,0,1.44-1.22A4.31,4.31,0,0,0,379.49,204.7Zm-44.82-74.76a1.94,1.94,0,0,0-2.07-1.35c-.23,0-.7.71-.62.92a8.78,8.78,0,0,0,1.26,2.26c.08.11.85-.29,1.23-.44l-1-1.46.27-.23ZM374.51,174l-1.53-.61,1-1.05c-.74-.6-1.84-.8-2-.25a3.38,3.38,0,0,0,.19,2.47C373.15,175.82,374.17,175.42,374.51,174ZM337.18,267.7c.14-1.32,1.36-1.08,2-1.58-1.31-.85-2.46-.57-3.56.83a3,3,0,0,0,2.85,1.57c.24,0,.46-.39.93-.82Zm34.27-37.58c-.56.24-1.16.31-1.38.63s-.37,1.32-.2,1.42a7.48,7.48,0,0,0,2.07.66.52.52,0,0,0,.46-.25,4.21,4.21,0,0,0,.15-1.71C372.47,230.55,371.85,230.38,371.45,230.12Zm.86-62.29.14-.39a5.61,5.61,0,0,0-1.78-.22,1.19,1.19,0,0,0-.74,1.82c.4.63,1.29,1,2,1.42.14-.27.4-.54.38-.8s-.38-.39-.53-.62a7.84,7.84,0,0,1-.43-.93Zm3.44,10.49c.29-1.73-1.07-1.48-1.91-1.87a3.66,3.66,0,0,0-.3.88c0,.3.19.62.16.91-.21,1.58.09,1.9,1.62,1.63l-.6-2.1ZM249.58,141.44a1.58,1.58,0,0,0,2.11-.9,1.88,1.88,0,0,0-.36-1.68c-.69-.68-1.75-.35-2.76.85h2.13Zm3.2,118.18c.34-1-.35-2-1.72-2.4a1.55,1.55,0,0,0-1.33.19,1.85,1.85,0,0,0-.08,1.42c.17.61.56,1.15,1.37.83l-.76-1.43C251.87,257.64,251.82,259.43,252.78,259.62Zm51.8-135.77c.38-1.19-.64-1.64-1.31-1.8s-1.47.33-2.37.57C302.13,124,303.32,124.34,304.58,123.85Zm13.54-.35c-.88-.23-1.47-.07-1.6.82-.06.38-.09,1.06.05,1.11.73.26,1.18,1.41,2.19.78a1.18,1.18,0,0,0,.52-.69c0-.16-.29-.52-.48-.55C317.83,124.83,317.78,124.27,318.12,123.5ZM224,190.75a2,2,0,0,0-.35-2.86,1.67,1.67,0,0,0-1.38.1,15.29,15.29,0,0,0-.28,2.66l1.41-.92Zm57.08-67.3a9.87,9.87,0,0,0-1.19,1.27c.48.66,1,1.54,1.68,1.75.84.26,1.11-.86,1-1.39S281.72,124.13,281.07,123.45Zm75.5,23.31-.46.43-1.79-1.26-.32.25c.39.56.68,1.4,1.21,1.61a2.28,2.28,0,0,0,1.93-.42c.69-.56,0-1.22-.31-1.78a1.33,1.33,0,0,0-1.72-.61Zm-63.49-23.13c-.23-1.1-2.47.4-1.86-1.64-1.56.09-2,.55-1.75,1.72a6,6,0,0,1,1.33.42C291.78,124.71,292.54,124.62,293.08,123.63Zm-71.71,76.26c-.06,1.54.82,2.81,1.76,2.87,1.13.06,1-1.24.94-1.44a6.76,6.76,0,0,0-1.64-2C222.32,199.2,221.63,199.74,221.37,199.89Zm9.18-37.49c-.88.61-1.58,1.23-.91,2a2.38,2.38,0,0,0,2,.58c.73-.21,1.19-1,.59-2.1l-1.31,1.23Zm44.9,109.53c1.22.61,2.11,1.07,3,1.48a.57.57,0,0,0,.53-.13.85.85,0,0,0,.09-.64c-.3-.94-.9-1.71-1.93-1.67C276.62,271,276.1,271.54,275.45,271.93Zm101.73-88c0-1.09-1.14-2.14-2-1.79-.37.17-.9.72-.84,1a5.12,5.12,0,0,0,.89,1.51l1-.92Zm-154.34,0,.94-.49.44,1.89c.59.11.81-.05.92-.89.18-1.47-.25-2.44-1.14-2.35C222.67,182.26,222.89,183.35,222.84,184Zm154.43,32.42.24-.26c-.32-.42-.56-1-1-1.19a1.19,1.19,0,0,0-1.71,1c0,.57-.2,1.81,1.24,1.72C376,216.82,376,216,377.27,216.39ZM225.41,177.24l.39.26a5.39,5.39,0,0,0-.22,1.24,3.44,3.44,0,0,0,.37,1c.3-.27.85-.55.84-.81,0-.55-.15-1.34-.53-1.59a3,3,0,0,0-1.94-.25c-.28,0-.57.61-.71,1-.08.21.13.53.21.8l.33-.42Zm13.1,68.14c.18-.58.62-1.3.43-1.55a5.74,5.74,0,0,0-1.89-1.48c-.18-.09-.7.5-.89.64Zm17.62,15.68-1,.41c.25.31.48.63.73.94a1.1,1.1,0,0,0,.35.33,14.65,14.65,0,0,0,1.6.61c.05,0,.36-.44.3-.55a7.3,7.3,0,0,0-1-1.57C257,261.07,256.62,261.13,256.13,261.06ZM228,225.59l.26-.25c-.37-1.44-1.19-2.37-2-2.08a1.69,1.69,0,0,0-.92,1.18c0,.39.52.82.94,1.42l.65-1.63Zm128.67,26.89a1.39,1.39,0,0,0-1.8-.51c-.73.48-.81,1.8-.2,3ZM326.32,272a18.65,18.65,0,0,0,1.68-.91,4.34,4.34,0,0,0,.76-.88c-.45-.24-.93-.72-1.34-.67C326.31,269.66,325.88,270.69,326.32,272ZM225.07,218.15l1,2.12c.61-1.56.43-2.52-.48-2.85-.67-.24-1.44-.24-1.72.61-.12.32.11.77.24,1.46Zm135.61-66.52-2.38-1.81c-1,.59-.71,1.2-.15,1.72C359.25,152.57,359.86,152.58,360.68,151.63ZM229.26,168.7l.24.28c.34-.35,1-.8.95-1a3,3,0,0,0-1.11-1.53,1.64,1.64,0,0,0-1.45.27c-.31.25-.31.88-.44,1.34l.3.09,1.23-1.32.38.14Zm25.4-33.45-.51-.24-1.21,1.77a15.11,15.11,0,0,0,2.13.87c.18,0,.52-.51.79-.79l-.31-.27-1.18.92Zm54.6-13.19c-.72-.41-1.4-.79-2.06,0s.11,1.14.49,1.61c.15.18.23.52.4.57a4.16,4.16,0,0,0,1.06,0,2.94,2.94,0,0,0-.27-.9,4.16,4.16,0,0,0-.79-.71Zm5.25,2.5-1.72-1.25.83-.46-.17-.34c-.5.25-1.15.39-1.47.79-.16.21.11,1,.42,1.3A1.49,1.49,0,0,0,314.51,124.56ZM245.59,252.08c-.48.12-.82.49-.55,1.28s2.39,1.79,3,1.44c.17-.1.2-.45.29-.68a6.53,6.53,0,0,0-.77-.14c-.36,0-.9.09-1-.1A9.74,9.74,0,0,1,245.59,252.08Zm103.31,8-3.1,1.84C347.18,262.82,348.72,262.05,348.9,260.07Zm-116-25c-1.23-1.39-1.77-1.42-2.44-.18a5.18,5.18,0,0,1,.87.56C232.42,236.53,232.41,236.54,232.93,235.07Zm-9.55-27.61a2.06,2.06,0,0,0,.15-2.64c-.71-.6-1.33-.52-2,.31A2,2,0,0,1,223.38,207.46ZM285.74,125l0,.46a5.62,5.62,0,0,0,1.81-.26c.17-.08.14-1-.08-1.4s-.78-.29-1.2-.42l-.09.29.77.74Zm59.69,135.68.28.37,2.26-1.68C346.48,258.75,345.74,259.25,345.43,260.65Zm24.29-94.22a6.28,6.28,0,0,0-1.28-.66c-.11,0-.54.52-.49.59a2.24,2.24,0,0,0,.88.85C368.94,167.27,369.31,166.8,369.72,166.43Zm-146.31,43,1.88.54-.61-1.72Zm105.85,60,.4-.2c-.12-.38-.14-.86-.39-1.1s-.66.1-1.2.22Z"/><path d="M206.58,244.33c-1.54-1-3-2-3.69-3.79-1.11-3-2.41-5.92-3.33-9s-1.39-5.9-2.07-8.86c-.26-1.08-.66-2.13-.83-3.23-.37-2.34-.62-4.7-.93-7.06a5.47,5.47,0,0,0-.19-.8c-.94-3.34-.61-6.82-1.15-10.21a26.87,26.87,0,0,1,.05-5c.07-2.1.13-4.21.27-6.31.07-1,.31-2,.48-3,.48-2.7,1-5.4,1.45-8.1.14-.81-.28-1.87,1.1-2-1-1-.26-2-.09-2.89.1-.55.19-1.1.34-1.64.42-1.45.8-2.93,1.31-4.35.83-2.37,1.74-4.7,2.63-7,.64-1.69,1.19-3.42,1.95-5.05.94-2,2.05-3.94,3.09-5.91a4.08,4.08,0,0,0,.31-.63c1-2.89,3-5.18,4.66-7.67a79.34,79.34,0,0,1,5.16-7.26c2.88-3.37,5.35-7.12,9-9.8,2-1.43,3.62-3.3,5.48-4.89s3.63-3.09,5.58-4.45a116,116,0,0,1,9.95-6.54,139.58,139.58,0,0,1,12.74-6.16,83.33,83.33,0,0,1,10-3.43c3.49-1,7.06-1.76,10.63-2.45a74.88,74.88,0,0,1,8.57-1.21c3.91-.31,7.85-.55,11.77-.47,3.53.06,7.06.52,10.58.92,2.72.31,5.45.68,8.13,1.2a58.56,58.56,0,0,1,11.68,3.19c2.6,1.1,5.37,1.82,8,3,3.5,1.55,6.92,3.3,10.34,5a52,52,0,0,1,5.93,3.32c3.71,2.54,7.37,5.16,10.92,7.93a85.11,85.11,0,0,1,7.71,6.74,115.12,115.12,0,0,1,8.17,8.93c2.18,2.66,4,5.61,5.94,8.46,1.22,1.8,2.41,3.61,3.47,5.5,1.2,2.12,2.3,4.31,3.36,6.5a64.5,64.5,0,0,1,2.71,6.15c1.4,4,2.72,8,3.9,12.08.91,3.14,1.6,6.35,2.29,9.55a45.17,45.17,0,0,1,.65,4.77c.29,2.85.54,5.7.77,8.55.06.66,0,1.33,0,2,0,3.12.27,6.26.09,9.38a79.82,79.82,0,0,1-1.17,8.39c-.4,2.48-.81,5-1.4,7.43-.64,2.67-1.43,5.32-2.26,7.94a62.5,62.5,0,0,1-2.31,6.31c-1.54,3.53-3.09,7.06-4.9,10.45a105.13,105.13,0,0,1-5.95,9.74c-2,2.88-4.17,5.6-6.41,8.27-2,2.32-4.24,4.38-6.14,6.74a37.08,37.08,0,0,1-6.54,5.8c-3.72,2.86-7.58,5.55-11.47,8.17-2,1.36-4.22,2.45-6.37,3.62s-4.35,2.42-6.6,3.47c-1.95.92-4,1.65-6,2.39-2.7,1-5.39,2-8.17,2.78-3.78,1-7.62,1.8-11.45,2.59a71.34,71.34,0,0,1-12.37,1.23c-3.45.11-6.91.32-10.35.21a78.23,78.23,0,0,1-8.75-.94c-4-.58-7.92-1.2-11.84-2a55.42,55.42,0,0,1-6.89-2c-3.21-1.11-6.41-2.27-9.55-3.56a65.72,65.72,0,0,1-7.82-3.7c-3.81-2.19-7.46-4.65-11.17-7a.94.94,0,0,0-.23-.1c-2.93-1-4.75-3.56-7.11-5.37-1.67-1.27-3.25-2.66-4.8-4.07-.83-.75-1.48-1.72-2.3-2.49a93,93,0,0,1-8.92-10.1,70.26,70.26,0,0,1-6.61-9.39c-.94-1.62-1.73-3.32-2.58-5-.28-.55-.28-1.11.4-1.23a1.35,1.35,0,0,1,1,.62c2.25,3.61,4.28,7.38,6.74,10.84,2.25,3.19,4.94,6.06,7.44,9.06a32.13,32.13,0,0,0,2.85,3.3A131.56,131.56,0,0,0,237.16,281a113.09,113.09,0,0,0,10.71,6.93c2.52,1.41,5,2.93,7.59,4.16,2.9,1.37,5.93,2.43,8.88,3.69A82.58,82.58,0,0,0,278,299.92a68.33,68.33,0,0,0,8.78,1.42c4.45.45,8.93.86,13.4.94,3.5.06,7-.47,10.51-.6a70.28,70.28,0,0,0,10-1.38,102.11,102.11,0,0,0,9.92-2.76c2.68-.8,5.36-1.63,8-2.58,1.57-.56,3-1.4,4.56-2.09,1-.45,2-.77,3-1.28,3.58-1.91,7.25-3.68,10.65-5.86a69.17,69.17,0,0,0,10.82-8c2.11-2,4.63-3.63,6.61-5.76a151.05,151.05,0,0,0,10.65-12.4,81,81,0,0,0,9.18-15.22,105.66,105.66,0,0,0,4.36-10.53,148.41,148.41,0,0,0,4-14.92,84.46,84.46,0,0,0,1-10.57,83.66,83.66,0,0,0,.46-9.08,117.58,117.58,0,0,0-1.05-12.54,121.64,121.64,0,0,0-3.08-14.2,63.73,63.73,0,0,0-4.37-11.76c-.94-1.89-1.62-3.91-2.47-5.85a22.56,22.56,0,0,0-1.19-2.07c-1.73-3.07-3.29-6.26-5.24-9.19a98.06,98.06,0,0,0-6.36-8.19c-2-2.39-4-4.75-6.24-7s-4.49-4.16-6.83-6.13-4.63-3.88-7.11-5.6c-3-2.06-6-4-9.16-5.77a89.53,89.53,0,0,0-16.55-7.63c-3.78-1.23-7.64-2.29-11.52-3.16-4.41-1-8.87-1.77-13.35-2.43a67,67,0,0,0-6.82-.3,38.09,38.09,0,0,0-4.26-.21c-3.58.23-7.14.57-10.71.94-2.63.27-5.27.57-7.89,1a54.31,54.31,0,0,0-6.16,1.4c-4.5,1.27-9,2.54-13.43,4a43.85,43.85,0,0,0-6.23,2.78c-3.43,1.75-6.9,3.46-10.15,5.49s-6.56,4.49-9.72,6.89a58.31,58.31,0,0,0-5.4,4.79c-2.73,2.7-5.54,5.36-8,8.3-2.71,3.27-5.13,6.79-7.56,10.28a74.06,74.06,0,0,0-4.37,7.06c-1.38,2.56-2.46,5.29-3.75,7.91a84.7,84.7,0,0,0-4.2,11.44,75,75,0,0,0-2.33,8.92c-.68,3.7-1,7.47-1.53,11.21-.14,1-.36,2.05-.44,3.09s0,2.05,0,3.08,0,1.81,0,2.72.05,2.08.1,3.12c.11,2.32.2,4.64.36,6.95.11,1.56.27,3.13.52,4.68.44,2.76,1,5.52,1.45,8.28a64.48,64.48,0,0,0,3.44,12.1C203.66,237.26,205.14,240.78,206.58,244.33Z"/><path d="M252.23,127.1c.13-.35.15-.84.4-1,.83-.68.72-1.35.18-2.11l-4.29-6a3.74,3.74,0,0,0-2.45-1.74,1,1,0,0,1-.27-1.7c1.42-.9,2.9-1.71,4.37-2.53q1.31-.73,2.64-1.38c1.53-.74,3.06-1.49,4.62-2.15.75-.32,1.36.21,1.06.87-.79,1.72.26,3,.84,4.37a37.94,37.94,0,0,0,2.69,4.82c1,1.59,1.71,1.65,3,.43.21-.19.44-.36.83-.67-1.27-2.73-2.52-5.53-3.89-8.27a1.77,1.77,0,0,0-1.54-.52c-.79.16-1.29,0-1.51-.71s.26-1.21.94-1.43c1-.34,2.08-.62,3.07-1a7.3,7.3,0,0,0,1.42-1,9.41,9.41,0,0,0,1.67-.23c1.36-.42,2.68-1,4-1.4,1.17-.39,1.75,0,2.2,1.16a24.62,24.62,0,0,0,1.21,2.73,1.36,1.36,0,0,1-.53,1.88c-.62.48-1.32.69-1.91-.1a11.47,11.47,0,0,1-1-1.49c-.92-1.84-2.71-1.53-4.63-.34l1.82,2.89a10.2,10.2,0,0,1,.51-1.35,2.22,2.22,0,0,1,.81-.9,1,1,0,0,1,.86.39,17,17,0,0,1,1.33,3.54c.23,1.13-.47,1.5-1.57,1-.38-.17-.74-.38-1.42-.74.65,1.54,1.14,2.78,1.69,4a1.55,1.55,0,0,0,2.1.25,3,3,0,0,0,1.16-3,2.74,2.74,0,0,1,.5-2c.91-1,1.93-.75,2.49.54.39.88.85,1.73,1.23,2.61.68,1.62.08,2.42-1.62,2.74a41.18,41.18,0,0,0-5.14,1.49c-1.55.51-3.07,1.13-4.61,1.67a4.19,4.19,0,0,1-1,.09,6.07,6.07,0,0,1-1.33,1.09,54.2,54.2,0,0,0-9.12,5.07,4.67,4.67,0,0,1-1.54.43Zm4.6-4.57c1.44,0,2-.76,1.55-1.87a12,12,0,0,0-.95-1.81,1.58,1.58,0,0,0-2.87.09.77.77,0,0,0-.05.64q.84,1.32,1.77,2.58A1.63,1.63,0,0,0,256.83,122.53Zm-4.38-9.82c-.77.93-1.15,1.86-.48,2.9a1.44,1.44,0,0,0,1.86.73c.55-.28,1.36-1,1.28-1.39A2.78,2.78,0,0,0,252.45,112.71Z"/><path d="M210.84,240.36c.74.09,1.49.16,2.23.27a5.57,5.57,0,0,1,2,.41.83.83,0,0,1,0,1.54,10.69,10.69,0,0,1-3.23,1.56c-1.28.2-2.06-1-2.59-2a38.72,38.72,0,0,1-1.84-4.29c-1-2.64-2-5.27-3-7.94a17.57,17.57,0,0,1-.74-3.38,1.44,1.44,0,0,1,.59-1.1,1.17,1.17,0,0,1,1.12,0c1.25,1.36,2.39.37,3.6,0-.26-.95-.49-1.83-.73-2.71,0-.11-.11-.3-.16-.3a8.93,8.93,0,0,0-2.2.1c-.43.11-.78.59-1.11,1s-.43.9-.54.87c-.49-.1-1.23-.27-1.36-.61a23.13,23.13,0,0,1-1.18-4.13c-.19-1.06.59-1.69,1.47-1.13,1.09.7,2,.25,3,.1,2.18-.32,4.34-.73,6.49-1.18.41-.08.74-.5,1.13-.73a5.05,5.05,0,0,1,1.67-.87c.23,0,.72.73.86,1.2a30.21,30.21,0,0,1,.72,3.4,1,1,0,0,1-1.59.94c-1.37-1-2.66-.51-4-.1-.23.07-.6.34-.58.47a12.44,12.44,0,0,0,.62,2.78c.06.17,1.06.16,1.49,0a19.54,19.54,0,0,0,2.71-1.61,1.23,1.23,0,0,1,2,.66c.53,1.38,1,2.79,1.36,4.21a1,1,0,0,1-.44.88c-.36.17-1.05.28-1.22.08-.81-.91-1.69-.52-2.58-.34-1.68.33-3.36.7-5,1-1.88.3-2.54,1.19-1.87,2.7a10.65,10.65,0,0,1,2.2-.33c.41,0,1.07.49,1.11.81a2.08,2.08,0,0,1-.58,1.49,8.51,8.51,0,0,1-1.75,1.14l.08.4a3.81,3.81,0,0,0,1.38,0c2-.68,3.9-1.44,5.85-2.16,1-.37,2-.64,1.64-2.12-.08-.37.47-1.11.9-1.31.67-.31.94.26,1.26.89a9.49,9.49,0,0,1,1.1,5.22c-.1,1-.34,1.18-1.28.75a1.91,1.91,0,0,0-1.37-.09c-2.55,1-5.08,2.06-7.61,3.11Z"/><path d="M378,159.87c.82-.35,1.54-.67,2.27-1s1.49-.36,1.92.4-.1,1.31-.8,1.6c-1.32.55-1.21,1.77-.94,2.69a4.84,4.84,0,0,0,1.73,2.13c.48.38,1.78-.7,1.67-1.39-.19-1.11-.51-2.19-.79-3.28a3.69,3.69,0,0,1,2.74-4.76,4.29,4.29,0,0,1,2.8.37,6,6,0,0,1,3.06,4.33c.05.35.54.61.78.94a5.23,5.23,0,0,1,1.07,1.69c.07.33-.5,1-.93,1.19a12.75,12.75,0,0,1-2.62.85,1.18,1.18,0,0,1-1.25-1.54,7.14,7.14,0,0,0,.85-2.1,6.5,6.5,0,0,0-.65-2.64,1.35,1.35,0,0,0-1.26-.42,1.44,1.44,0,0,0-.63,1.17,10.86,10.86,0,0,0,.48,2.7c.5,1.63-.2,3-.9,4.32a4,4,0,0,0-.51,1.53,32.58,32.58,0,0,1-4.31,0,4.1,4.1,0,0,1-3.2-3c-.33-.89-.24-1.93-.58-2.81a4.77,4.77,0,0,0-1.39-2c-1.38-1.11-1.71-2.78-2.49-4.2-.4-.74-.82-1.47-1.15-2.24-.15-.36-.28-1-.12-1.16a1.91,1.91,0,0,1,1.36-.3c.64.11,1.25.44,1.62-.53-.62-.81-1.24-1.7-1.95-2.51a1.34,1.34,0,0,0-1.07-.44c-.32.09-.53.59-.74.94a12.81,12.81,0,0,0-.59,1.17,6.68,6.68,0,0,1-1.37-.75,11.68,11.68,0,0,1-1.81-2.11,4.75,4.75,0,0,1-.36-1.64c.5-.07,1.19-.38,1.46-.16,1.56,1.25,3.14.87,4.82.41,2.08-.58,4.2-1,6.29-1.5a2.19,2.19,0,0,0,1-.57,1,1,0,0,1,1.75.09,15.15,15.15,0,0,1,1.58,2.7,1.18,1.18,0,0,1-.19,1c-1.44.24-1.95,1.54-2.75,2.43-1.29,1.42-2.26,3.13-3.53,4.57a2.38,2.38,0,0,0-.49,2.92A3.61,3.61,0,0,1,378,159.87Zm-2.21-11,1.31,2,2.2-2.58-.2-.36Z"/><path d="M223.75,156.79a23.41,23.41,0,0,0,.13-2.37,1.08,1.08,0,0,0-.51-.7c-2.24-1.24-4.48-2.47-6.76-3.63a1.33,1.33,0,0,0-1.21.19c-.78.85-1.44.38-2.13,0-.86-.51-.53-1.16-.12-1.73,1.26-1.75,2.51-3.5,3.88-5.17a1.62,1.62,0,0,1,1.53-.21c.36.18.45.9.64,1.4s.17,1.11.49,1.35c2,1.47,4.14,2.88,6.26,4.24a1.33,1.33,0,0,0,1.21-.17,2.1,2.1,0,0,0,.13-3c-.86-1.14-.9-1.8,0-2.34a1.46,1.46,0,0,1,1.26,0c.77.43,1.41,1.07,2.15,1.55a1.24,1.24,0,0,1,.42,1.94c-1.44,2.12-2.95,4.18-4.43,6.27a15.87,15.87,0,0,0-.87,1.42c-1.08,2.05-2.12,4.13-3.22,6.18-.59,1.09-1.16,1.09-2,.08-.91-1.16-1.92-1-2.52.33-.14.33-.56.63-.54.92a3.83,3.83,0,0,0,.54,1.56c0,.1.69-.16,1.07-.24s1-.2,1.47-.3a4,4,0,0,1,.14,1.47c-.39,1.21-.9,2.38-1.4,3.55a1.18,1.18,0,0,1-1.7.67c-.26-.12-.57-.75-.47-.94.61-1.15-.09-2-.7-2.69-1.07-1.26-2.29-2.39-3.43-3.58-1.34-1.38-2.68-2.77-4-4.17-.54-.57-.5-1.07.09-1.69a2.68,2.68,0,0,1,2.75-.92c2.95.57,5.91,1.08,8.89,1.41A9.1,9.1,0,0,0,223.75,156.79Zm-8,5.34c.31-1.38.07-1.6-1.23-1.33Z"/><path d="M310.88,112.51a9.56,9.56,0,0,1,1.32.95,1.31,1.31,0,0,1,.33.89c0,.13-.45.34-.71.35-1.22.07-2.45.13-3.68.11s-2.17-.19-3.26-.21c-1.59,0-3.19,0-4.79,0-.84,0-1.59-.27-1.75-1.14-.06-.35.41-1.12.65-1.12.94,0,1.12-.37,1.32-1.27.58-2.54.19-5-.09-7.53,0-.34-.35-.64-.48-.87a7.87,7.87,0,0,1-1.64,2c-1.09.66-1.72.16-1.78-1.11,0-.84-.16-1.68-.23-2.52-.06-.66.25-1,.92-1,.88.09,1.74.3,2.61.34s2-.05,3,0,2.08.13,3.12.15a8.7,8.7,0,0,1,1.67-.1c.6.14,1.53.47,1.62.87a7.5,7.5,0,0,1,0,3c-.21,1-1.68,1.14-2.46.3a9.46,9.46,0,0,0-1.5-1.61c-.18,1.11-.44,2.21-.51,3.33-.09,1.46,0,2.94,0,4.4a1.82,1.82,0,0,0,1.18,2,2.71,2.71,0,0,0,3.08-.83c1.65-3.1,3.29-6.22,4.89-9.35.51-1,1-1.21,2-.74a3,3,0,0,1,1.7,2.81,61.65,61.65,0,0,0,1.52,8.38c.29,1.25,1.47,1.69,2.68,1.79.14,1.59-.49,2.08-2,1.74s-3.05-.58-4.55-1a2.15,2.15,0,0,1-1.22-.93c-.5-.86.21-1.27.86-1.6-.06-1.48-.9-1.94-2.21-1.93C311.45,111.08,311.37,111.11,310.88,112.51Zm3.18-3.5-.42-1.5-.3,0L312.7,109Z"/><path d="M394.16,172.9a.92.92,0,0,0-.28,0c-2.49.62-2.79,1.26-1.73,3.71.09.21.45.49.6.45.94-.27,2.1,0,2.71-1.18a1.71,1.71,0,0,1,1.36-.66c.26,0,.54.74.7,1.19a22.39,22.39,0,0,1,.84,3c.1.54.12,1.44-.19,1.64a1.92,1.92,0,0,1-1.73-.05c-1.23-.78-2.29,0-3.38.19a42.06,42.06,0,0,0-4.95,1.22c-.46.14-.76.74-1.16,1.11s-.63.75-.95.76a1.44,1.44,0,0,1-1.14-.63,26.43,26.43,0,0,1-1.16-4.27c-.18-1.07.46-1.34,1.51-1.08a7.23,7.23,0,0,0,4.6-.76c.12,0,0-.69,0-1.06s-.2-.86-.24-1.29c-.07-1-.55-1-1.31-.68-.58.27-1.21.43-1.8.67s-1.28.55-1.25,1.54c0,.37-.61.85-1.06,1.1-.12.07-.78-.49-.91-.86a44.71,44.71,0,0,1-1.5-4.68,2.17,2.17,0,0,1,.48-1.52c.1-.13.83.19,1.27.32s.87.45,1.2.35c2.43-.73,4.84-1.53,7.23-2.37.34-.12.56-.61.81-.94s.56-1.17.88-1.19a1.75,1.75,0,0,1,1.42.74c.61,1.38,1,2.85,1.5,4.29,0,.11,0,.26,0,.36.32.58.73,1.24-.13,1.62a1.51,1.51,0,0,1-2-.65C394.34,173.13,394.24,173,394.16,172.9Z"/><path d="M369.37,138.47c-1.32.61-2.31,1.16-3.36,1.54a8.81,8.81,0,0,1-3.14.79c-1.2-.05-1.4-.65-.91-1.74,1.29-2.88,2.59-5.74,3.93-8.6a2,2,0,0,0,0-2.36,1.43,1.43,0,0,1,.15-1.37,1.41,1.41,0,0,1,1.38,0,31.39,31.39,0,0,1,2.67,2.74c.29.33.48.75.75,1.09,1,1.29,1,1.31-.28,2.41l-.52-.23-.67-.28-2.29,4.94c1.63-.46,2.88-.72,4.06-1.18.43-.17.68-.79,1-1.2s.63-1,1-1.11a1.93,1.93,0,0,1,1.46.54,16.56,16.56,0,0,1,1.62,2c-.29.17-.56.45-.8.43-1.21-.1-1.7.53-2,1.62a20,20,0,0,1-.95,2.06,10.21,10.21,0,0,0-.34,1.66c1.25-.43,2.29-.8,3.35-1.14.67-.21.74-.69.77-1.32a6,6,0,0,1,.48-1.48,5.88,5.88,0,0,1,1.65.73,19.54,19.54,0,0,1,2.2,2.43,4.86,4.86,0,0,1,.53,1.3c-.55.17-1.32.66-1.61.46-2.27-1.54-4.3-.33-6.33.45-1.86.72-3.63,1.65-5.47,2.42a1.73,1.73,0,0,1-1.2-.06,3,3,0,0,1,0-1.79c.74-1.59,1.64-3.1,2.47-4.65A9.42,9.42,0,0,0,369.37,138.47Z"/><path d="M208.94,209.75c1.05-.06,2.09-.1,3.14-.19.11,0,.27-.31.28-.47a2.55,2.55,0,0,0-3-2.81c-1,.09-1.45-.29-1.56-1.17s.6-1.49,1.55-1.62c1.32-.17,2.65-.89,3.94,0,.38.27.88.66.94,1.05.4,2.82.7,5.65,1,8.48.13,1.19-.62,1.87-1.52,1.21-2.21-1.64-4.33-.13-6.48-.07a16,16,0,0,0-1.95.51,2.74,2.74,0,0,0-1.88,1.47c-.27.43-.94.61-1.43.9-.19-.48-.41-1-.58-1.46a24.77,24.77,0,0,1-.73-2.51c-.39-2.08-.72-4.18-1.07-6.27a2.16,2.16,0,0,1,0-.44c.18-1.61.65-1.94,3.14-2.13.52,0,1.06,0,1.58,0,.84,0,1.67-.15,1.61,1.17s-.44,1.82-1.65,1.89c-1.54.09-2.23.93-1.76,2.33a1.69,1.69,0,0,0,1.13.92,7.17,7.17,0,0,0,2.14-.23c.18,0,.46-.35.43-.47s-.3-.4-.48-.58-.83-.52-.88-.85c-.1-.61.27-1,1-1,1.23-.15,2.43-.48,3.66-.63a1.15,1.15,0,0,1,1,.49,1.54,1.54,0,0,1-.27,1.2,7.08,7.08,0,0,1-1.33,1Z"/><path d="M376.55,254.45c.72.69,1.23,1.24,1.8,1.7s1.18,1,2,.42a3.31,3.31,0,0,1,1.33-.16c0,.59.32,1.28.11,1.76a16.18,16.18,0,0,1-1.59,2.41,1.64,1.64,0,0,1-2,.72,1.34,1.34,0,0,1-.64-1.88c.42-1-.26-1.46-.84-1.86-1.78-1.24-3.6-2.4-5.43-3.56a11.15,11.15,0,0,0-1.18-.47c-.41-.2-1.1-.46-1.11-.72a2.57,2.57,0,0,1,.48-1.78,2.51,2.51,0,0,1,1.64-.36c3.11,0,6.23,0,9.34,0l.14-.54a15.49,15.49,0,0,0-1.39-.88,28.19,28.19,0,0,0-3.33-1.59c-.33-.12-.87.31-1.31.48s-1,.5-1.1.39c-.37-.41-.94-1.16-.79-1.45a35.69,35.69,0,0,1,2.58-4.1,1.16,1.16,0,0,1,1.06-.16c.3.42.66,1.08.52,1.47-.4,1.09.09,1.38,1,1.84,1.41.73,2.68,1.75,4,2.6a5.68,5.68,0,0,0,1.94.89c.5.08,1.07-.38,1.62-.48a7.55,7.55,0,0,1,1.5,0,4,4,0,0,1-.19,1.46,16.79,16.79,0,0,1-2,2.84,2.78,2.78,0,0,1-1.73.79c-1.68.1-3.37,0-5.05,0A12.68,12.68,0,0,0,376.55,254.45Z"/><path d="M400.33,199.61c.05.57.1,1.15.14,1.72a36.79,36.79,0,0,0,.33,4.08c.14.75-.08,1.23-.63,1.32s-1.28-.3-1.35-.61c-.41-1.74-1.57-1.86-3-1.77-2.35.15-4.7.19-7.05.26-1.64,0-1.67,0-2.11-1.8-.27-1.11.25-1.62,1.34-2.13a17.71,17.71,0,0,0,6.21-4.1l-.11-.41c-1.57.17-3.15.28-4.71.55-.36.07-.6.71-.95,1s-.72.71-1.05.67-.68-.58-.73-.95c-.17-1.19-.14-2.42-.33-3.61-.1-.67-.27-1.25.61-1.34s1.55-.16,1.77.95a1.25,1.25,0,0,0,.95.71c2.25.06,4.5,0,6.75,0,1,0,1.68-.35,1.76-1.54a1.56,1.56,0,0,1,1-1.06c.24-.07.95.52,1,.88a37.08,37.08,0,0,1,.28,4,.88.88,0,0,1-.29.59c-1.71,1.32-3.44,2.64-5.17,3.94-.61.44-1.25.84-1.88,1.26l.1.38a40.29,40.29,0,0,0,4.11-.42c.39-.08.64-.78,1-1.17.47-.55,1-1.07,1.47-1.61Z"/><path d="M211.61,175c1,.2,1.92.44,2.89.58.74.11,1-.36.87-1a2.61,2.61,0,0,0-1.8-2.32,1.92,1.92,0,0,1-1.1-1c-.36-.89.44-1.66,1.45-1.46a23.55,23.55,0,0,1,3.37.77,1.46,1.46,0,0,1,.74,1.21c-.38,1.58-1,3.1-1.41,4.68-.31,1.15-.4,2.36-.67,3.53a2.34,2.34,0,0,1-.7,1.18c-.62.53-1.35.23-1.33-.59a1.22,1.22,0,0,0-1-1.33c-2.45-.56-4.93-1-7.4-1.52a1.22,1.22,0,0,0-1.57.93c-.25.82-.8,1.3-1.63,1s-.78-1.19-.59-2c.33-1.3.54-2.64.93-3.92.61-2,1.29-3.93,2.07-5.84a1.63,1.63,0,0,1,1.36-.73,14.49,14.49,0,0,1,3.19,1,1,1,0,0,1,.39,1,2.8,2.8,0,0,1-1,1,1.66,1.66,0,0,1-1,0c-1.38-.19-1.68.77-1.94,1.8s.21,1.51,1.08,1.84c.69.26,1.32,1,2.21.15a4.57,4.57,0,0,1-1-.74c-.2-.3-.43-.85-.29-1.06.23-.38.79-.87,1.13-.81a21,21,0,0,1,3.8,1c.49.19.8.82,1.2,1.25-.46.23-.91.48-1.38.69-.31.14-.64.23-1,.34Z"/><path d="M392.47,207.39a7.28,7.28,0,0,1,6.18,3.28,5.31,5.31,0,0,1,.5,4.69,4.25,4.25,0,0,0,0,3.25c.58,1.29-.36,2.33-1.75,2.13a13.43,13.43,0,0,1-2.46-.51,1.5,1.5,0,0,1-.89-.94,1.61,1.61,0,0,1,.58-1.13c.65-.6,1.44-1,2.09-1.63a1.92,1.92,0,0,0,.08-2.89c-1.25-1.41-3-1.6-4.69-1.77a22,22,0,0,0-3,.31,1.55,1.55,0,0,0-1.66,1.67,2.51,2.51,0,0,0,4,1.7,2,2,0,0,1,1.56-.22c.8.29.5,1,.33,1.64-.35,1.23-.57,2.5-1,3.7a2.31,2.31,0,0,1-1.05,1.19c-.63.31-1.26.15-1.23-.75,0-1.17-.63-1.24-1.53-1.16a1.35,1.35,0,0,1-1.08-.29c-1.46-2.27-2.85-4.68-1.93-7.46A6.65,6.65,0,0,1,392.47,207.39Z"/><path d="M340.69,115.42l2.77-1c-.16,2-1.18,3.4-1.8,4.87-1.47.08-1.19-1.39-2.1-2.29L337.71,121c1.29.72,2.39,1.7,3.76.61a3.65,3.65,0,0,0,1.08-1.51c.4-1,1.18-.81,1.83-.65.86.21.44.9.25,1.39-.47,1.23-.94,2.47-1.52,3.64-.43.87-1.19.8-2,.42q-3.79-1.78-7.6-3.54a7.07,7.07,0,0,1-1.31-.59,1.44,1.44,0,0,1-.59-1,1.26,1.26,0,0,1,.89-.79c1.76,0,2.37-1,2.81-2.55a30.65,30.65,0,0,1,1.85-3.72c.39-.88,1.26-1.85-.09-2.77a1.14,1.14,0,0,1-.06-1.12c.29-.3,1-.59,1.27-.44,2.16,1.15,4.58,1.85,6.42,3.61.45.43,1.34.36,2,.6,1.32.5,1.41.86.67,2.15-.45.81-.83,1.66-1.33,2.43-.2.31-.68.67-1,.62a1.51,1.51,0,0,1-1-.81,3.24,3.24,0,0,1-.2-2c.49-1.29-.14-1.92-1.11-2.4a1.42,1.42,0,0,0-1.24,0A2.47,2.47,0,0,0,340.69,115.42Z"/><path d="M294.61,100.61c.14,1,.28,1.85.34,2.69,0,.29-.1.78-.28.84a2.56,2.56,0,0,1-1.55.18,3.58,3.58,0,0,1-1.55-1.08c-.71-.85-1.62-.69-2.47-.6-.34,0-.64.56-1,.86.3.25.58.68.9.71a10,10,0,0,1,4.69,1.49,6.43,6.43,0,0,1,3.11,5,3.6,3.6,0,0,1-1.33,2.56,5.76,5.76,0,0,1-6.28,1c-.64-.28-1.09-.46-1.53.42-.2.4-1.08.6-1.64.6-.25,0-.59-.73-.7-1.18-.26-1-.3-2-.6-2.89s-.33-1.5.63-1.87a1.87,1.87,0,0,1,2.41.75c.8,1.93,1.3,2.49,3.92,2.3a1.9,1.9,0,0,0,1.4-.83,1.65,1.65,0,0,0-.29-1.56,5.44,5.44,0,0,0-2.58-1.29,10.33,10.33,0,0,1-3.7-.88,3.51,3.51,0,0,1-2.21-3.17,3.06,3.06,0,0,1,2.1-3,21.76,21.76,0,0,1,4.33-1.16,15.86,15.86,0,0,1,2.75-.31A3.56,3.56,0,0,1,294.61,100.61Z"/><path d="M312.67,283.72c3.82.29,7.6,3.49,7.22,7a8.43,8.43,0,0,1-1.35,3.39,7.62,7.62,0,0,1-5.8,3.88,5.68,5.68,0,0,1-4.56-1.79,1,1,0,0,1,.12-1.58,1.24,1.24,0,0,1,1.83,0c.58.51,1.13,1.32,1.79,1.41a2.56,2.56,0,0,0,2-1,7,7,0,0,0,.72-2.31c-.31-.06-.65-.23-.92-.15-2.85.91-5.19,0-7.26-2a2.07,2.07,0,0,1-.52-2.72,5.26,5.26,0,0,1,3-2.79C310.21,284.77,311.43,284.2,312.67,283.72Zm-.55,2.36a3,3,0,0,0-2.2,2.4c0,1.11,1.65,2.32,3.17,2.34.65,0,1.54-1.08,1.54-1.89C314.64,287.58,313.28,286,312.12,286.08Z"/><path d="M282,289.28c-.45-1.12-.94-2.17-1.26-3.26a1.54,1.54,0,0,1,.48-1.14,5.64,5.64,0,0,1,7-1.14c.51.29,1.19.44,1.54.86.46.58,1.05,1.46.91,2s-1.06,1.19-1.76,1.9a14.51,14.51,0,0,1,1.76,1.85c1.68,2.43,1,4.39-1.3,6.14a7.33,7.33,0,0,1-6.61,1.23,11.53,11.53,0,0,1-2.63-1.62,1.93,1.93,0,0,1-.35-.35c-.43-.48-1.25-1-1.22-1.46.09-1.37.23-2.84,1.55-3.75ZM282,293c0,1.82,1.13,2.89,3.25,3a2.33,2.33,0,0,0,2.24-2c0-1.36-1.65-3.53-2.69-3.49A3,3,0,0,0,282,293Zm1.59-7.24c.93.5,1.8,1,2.72,1.42.34.14,1.13,0,1.19-.16a2,2,0,0,0,0-1.53C286.51,284,284.94,284.07,283.62,285.72Z"/><path d="M301.93,289.81c.57.66,1.12,1.35,1.71,2,1.49,1.66,1.53,3.28.09,4.94-1.89,2.18-4.25,2.58-7.06,2.43-2-.11-3-1.29-4.15-2.42a2.12,2.12,0,0,1,0-3.18l.52-.52c.52-.49,1.33-.91,1.47-1.49s-.59-1.14-.89-1.73a3.56,3.56,0,0,1,1.68-4.33,7.33,7.33,0,0,1,6.08-.45C303.69,285.83,303.84,287.61,301.93,289.81Zm-2.93,7.9a6.36,6.36,0,0,0,2-1.25,2.06,2.06,0,0,0-.23-1.84,5.9,5.9,0,0,0-2.13-1.85c-1.84-.87-3.17.26-2.92,2.29A3.5,3.5,0,0,0,299,297.71Zm-2.3-10.26a2.82,2.82,0,0,0,2.67,1.39c.36,0,1-.35,1.06-.62a1.66,1.66,0,0,0-.49-1.31A2.48,2.48,0,0,0,296.7,287.45Z"/><path d="M206.07,183.86c-.58.57-1.17,1.17-1.79,1.74s-1.45,1.25-1.25,2.33a4.52,4.52,0,0,0,.62,1.13c1.16-1.71,2-3.25,3.17-4.6a5.12,5.12,0,0,1,5.72-1.9,4.85,4.85,0,0,1,2.19,7,2.07,2.07,0,0,0-.21,2.07c.47,1.36-.16,2.05-1.57,1.87-.93-.12-1.88,0-2.8-.19-.49-.09-1.35-.62-1.31-.82a4.54,4.54,0,0,1,.93-1.91c.2-.25.75-.21,1.14-.31a2.92,2.92,0,0,0,2.22-3,1.52,1.52,0,0,0-2.43-.94c-1,.86-1.64,2-2.52,3a24.55,24.55,0,0,1-3,2.79,2,2,0,0,1-1.66.06,4.59,4.59,0,0,1-2.91-5.48,4.79,4.79,0,0,0-.11-1.68c-.3-1.42.07-2.31,1.44-2.34S204.9,182.17,206.07,183.86Z"/><path d="M242.19,119.56c.55.74,1.08,1.49,1.66,2.2,1.38,1.71,2.74,3.44,4.21,5.07a1.84,1.84,0,0,0,1.57.51c.94-.34,1.46,0,2.13.91-.66.57-1.3,1.18-2,1.72-1,.8-2.12,1.59-3.23,2.3-.35.22-1.14.39-1.23.25a1.84,1.84,0,0,1-.37-1.45,1.78,1.78,0,0,0-.47-2.25c-1.59-1.64-3.07-3.38-4.61-5.08a2.53,2.53,0,0,0-.68-.63,3.87,3.87,0,0,0-1-.19,3.14,3.14,0,0,0-.13,1c.1.46.48.89.5,1.34s0,1.31-.37,1.56a1.71,1.71,0,0,1-1.55-.22,28.88,28.88,0,0,1-2.34-2.23c-.62-.59-.23-1.11.19-1.43,2.83-2.17,5.73-4.26,8.55-6.45a1.35,1.35,0,0,1,2.22.26,17.25,17.25,0,0,1,1.44,1.78c.22.39.33,1.17.11,1.4a1.75,1.75,0,0,1-1.46.29,24.49,24.49,0,0,1-2.72-1.09Z"/><path d="M385.15,246.67c-2.73.19-4.52-1.12-6-3.28a7.37,7.37,0,0,1-1.64-4.51,5,5,0,0,1,3.77-4.3,20.77,20.77,0,0,1,4.2-.46c2.71.17,4.16,2.13,5.38,4.29s.54,4.05-.64,5.7A5.4,5.4,0,0,1,385.15,246.67Zm-4.34-9.09c-.29.19-1,.44-1.29.94-.18.33.23,1.13.59,1.53,1.84,2.08,4.36,2.85,7,3.28a2.26,2.26,0,0,0,1.67-.78c.53-.58.18-1.24-.33-1.79C386.46,238.67,383.9,238,380.81,237.58Z"/><path d="M394.47,227.68a2.23,2.23,0,0,0-.64-2.61,1.7,1.7,0,0,1-.45-1.41,1.49,1.49,0,0,1,1.34-.53,10.06,10.06,0,0,1,2.73,1.14c.24.15.29.93.16,1.32-.91,2.59-1.91,5.16-2.85,7.75-.28.74-.48,1.52-.71,2.28s-.58,1-1.35.65c-.94-.44-1.95-.73-2.86-1.22-.43-.23-1-.94-.95-1.16a2.52,2.52,0,0,1,1.29-1.22,10.29,10.29,0,0,1,1.94-.08,1.34,1.34,0,0,0,.79-.64c.06-.11-.27-.59-.52-.69-2-.8-4-1.59-6.05-2.31a1.67,1.67,0,0,0-2.18.75,4.07,4.07,0,0,1-1.47,1.32c-.79.45-1.38,0-1.2-.88a14.73,14.73,0,0,1,.71-2.16c.6-1.69,1.15-3.41,1.85-5.07a1.63,1.63,0,0,1,1.31-.73c.3,0,.75.65.84,1.08a2.46,2.46,0,0,0,1.87,2.05C390.19,226,392.25,226.84,394.47,227.68Z"/><path d="M328.61,115.89c.18.41.37.82.54,1.24s.56,1.05.41,1.26a1.82,1.82,0,0,1-1.32.55,9,9,0,0,1-1.86-.44c-1-.24-2-.42-3-.73-.33-.1-.82-.55-.8-.79.05-.44.36-1.14.68-1.22,1.1-.28,1.35-1,1.6-2,.5-2,1.25-3.85,1.84-5.78a1.42,1.42,0,0,0-.1-1.16,1.28,1.28,0,0,0-1.14-.13,16.07,16.07,0,0,0-1.75,1c-.33.17-.85.5-1,.39-.3-.24-.65-.8-.55-1.09a15.16,15.16,0,0,1,1.45-3.2c.16-.25,1.18-.26,1.55,0,.53.35.87.72,1.57.42.27-.11.7.08,1,.2,2.51.88,5,1.76,7.52,2.68.68.25,1,.73.61,1.52-.35.63-.53,1.34-.91,1.94a1.25,1.25,0,0,1-1,.53,1.91,1.91,0,0,1-1.09-.76c-.36-.52-.5-1.19-.84-1.72s-.83-.66-1.09,0c-.77,2.13-1.49,4.28-2.21,6.43a2.54,2.54,0,0,0,0,.73Z"/><path d="M386.24,191.9c-.21-1.15-.43-2.29-.61-3.44a17.43,17.43,0,0,1-.24-2.39c0-.84.82-1.33,1.25-.74,1.41,1.91,3.15,1,4.83.78,1.42-.2,2.83-.52,4.25-.69a1.52,1.52,0,0,0,1.44-1.18c.17-.43.82-.67,1.25-1,.26.4.68.77.76,1.21.28,1.54.46,3.1.64,4.66,0,.37.06.95-.15,1.08a1.34,1.34,0,0,1-1.22.11c-2.08-1.61-4.32-.33-6.47-.43a8.31,8.31,0,0,1-1.57,0,2.16,2.16,0,0,0-2,.73c-.56.45-1.07,1-1.61,1.46Z"/><path d="M277.37,283.34c-.16.62-.37,1.56-.63,2.48-.59,2.07-1.26,4.11-1.77,6.19a2.42,2.42,0,0,0,1.09,2.75c.32.22.46.69.68,1.05a3.43,3.43,0,0,1-1.35.18c-1.72-.5-3.44-1-5.11-1.7A6.93,6.93,0,0,1,268.7,293a11.08,11.08,0,0,0,1.38-1.17,7.43,7.43,0,0,0,1.41-2c.49-1.26.67-2.64,1.16-3.9a1.54,1.54,0,0,0-.58-2c-.27-.24-.69-.75-.61-.89a1.93,1.93,0,0,1,1-.74c.89-.32,1.85-.48,2.74-.81C276.57,281,277.4,281.53,277.37,283.34Z"/><path d="M242.69,272.18a3.39,3.39,0,0,1-.06.76c-.19.54-.43,1.06-.65,1.58a4.81,4.81,0,0,1-1.54-.75,1.18,1.18,0,0,0-2,0,.18.18,0,0,1-.09.08l-1.57.67a6.48,6.48,0,0,1-.34-1.58c.05-1.61.08-1.6-1.67-2-.73-.17-1.06-.63-.34-1.13a7.27,7.27,0,0,0,3.29-4.5c0-.14.18-.26.36-.51a3,3,0,0,0,4,.71c.63-.33,1.34.71,1.09,1.48a2.24,2.24,0,0,0,1,2.87,7.52,7.52,0,0,1,1.22,1.35c-.57.32-1.13.67-1.72.94A2.64,2.64,0,0,1,242.69,272.18Z"/><path d="M345.88,279.71a8.59,8.59,0,0,1-1.77,0,1.51,1.51,0,0,1-1-.73c-.1-.25.16-.76.4-1s1-.54,1.23-.95a12.25,12.25,0,0,0,.74-2.06c.18-.46.3-1.16.62-1.29a1.92,1.92,0,0,1,1.49.32c.68.42,1.29.7,2,.17s1.28-1,1.9-.34c.39.43.38,1.22.6,2.06l2.49,1.89-.12.48-2.26.74c.08.46.2,1,.27,1.6a6.29,6.29,0,0,1,0,1c-.33,0-.67,0-1-.09a.82.82,0,0,1-.33-.15c-1.28-.6-1.7-.44-2.43.82a6.41,6.41,0,0,1-1,1,10.54,10.54,0,0,1-1.18-1.23,3.33,3.33,0,0,1-.29-1C346.13,280.52,346,280.18,345.88,279.71Z"/><path d="M233.58,139.41c.19,2.32-2.42,3.48-4.05,3.26a4.91,4.91,0,0,1-3.87-2.26c-.58-1-.75-3-.09-3.92a3.64,3.64,0,0,1,3.18-1.36,4.1,4.1,0,0,1,3.79,1.71,20.09,20.09,0,0,1,1.34,2.41Zm-4.75-2.57c-1,0-1.29.72-1.34,1.54-.07,1,1.25,2.21,2.31,2.25a2,2,0,0,0,1.7-1.71A2.53,2.53,0,0,0,228.83,136.84Z"/><path d="M352.52,118.79a2.5,2.5,0,0,1,3,1.65,3.56,3.56,0,0,1-.33,3.26,5.74,5.74,0,0,1-4.93,3,3.32,3.32,0,0,1-2.31-2.14,5.47,5.47,0,0,1,2.68-5.45A7.17,7.17,0,0,1,352.52,118.79Zm-.23,1.68c-.13.09-.6.24-.79.56a10.61,10.61,0,0,0-1,2.14,1.77,1.77,0,0,0,.1,1.06c.5,0,1.17.12,1.49-.15a6.22,6.22,0,0,0,1.39-1.93C354,121.19,353.49,120.43,352.29,120.47Z"/><path d="M232.05,132.29a11.6,11.6,0,0,1,1.66-.2c1.21,0,1.6.62,1.09,1.73-.42.94.25,1.35.74,1.81s.93,1.09.24,1.8a1.18,1.18,0,0,1-2-.2A13.17,13.17,0,0,0,230,134c-1.28-.91-1.28-1.61-.18-2.76.4-.41.74-1,1.22-1.16a2.51,2.51,0,0,1,1.92,0c.79.52.09,1-.39,1.36A4,4,0,0,0,232.05,132.29Z"/><path d="M358.1,125.55c.12.14.3.27.35.44.2.57.35,1.15.51,1.73-.56.06-1.12.11-1.68.2a1.89,1.89,0,0,0-.93.29,16.5,16.5,0,0,1-1.5,1.41,4,4,0,0,1-1.53.19c0-.44-.18-1,0-1.31,1.11-1.66,2.25-3.32,3.52-4.86,1-1.19,2-1.12,3.11-.06a16,16,0,0,1,1.63,1.43,3.73,3.73,0,0,1,.38,1.35,3.94,3.94,0,0,1-1.49.31c-.44-.09-.79-.59-1.21-.87a9,9,0,0,0-1-.52Z"/><path d="M364.58,257.29a2.77,2.77,0,0,1,2.44-2.41,1.94,1.94,0,0,1,2.09,1.87,3.18,3.18,0,0,1-2.54,2.65A2.41,2.41,0,0,1,364.58,257.29Z"/><path d="M306.21,224.58c.13-1.42-1.13-1.45-1.86-1.93-2.53-1.68-5.16-3.19-7.65-4.93a3.84,3.84,0,0,1-1.84-2.74,4.63,4.63,0,0,0-2.12-3.1c-1.47-1-2.91-2.14-4.35-3.24-.86-.65-1.72-1.32-2.51-2-.25-.22-.28-.67-.42-1,.41-.09,1-.4,1.2-.25,1.25.78,2.73,1.46,3.55,2.59,1.66,2.28,4,3.16,6.45,4a5.53,5.53,0,0,1,1.76,1.17,2.4,2.4,0,0,0,2.3.85c.83-.16,1.8.5,2.73.73,1.93.48,3.87.92,5.81,1.38h.13a10.21,10.21,0,0,1,2.81-.35,7.78,7.78,0,0,1,2.26,1.21l.29-.29-.67-1.05,5.6-3.32-.25-.52c-.69.3-1.36.63-2.07.89-1.44.52-2.9,1-4.37,1.48-.11,0-.3-.16-.45-.24.12-.18.19-.45.35-.52.58-.27,1.19-.47,1.79-.69a7.6,7.6,0,0,0,1.48-.69c-3.12-.75-6.13,1-9.48.52l.92-1.29c-.45-.8-1.65.78-2-.59l4.08-.66,0-.21-5.57.56-.14-.58,1.75-.79c-1.14-.14-2.18-.3-3.22-.4-.6-.05-1.29.1-1.08-.91,0-.08-.24-.2-.35-.32s-.37-.46-.55-.69c.27-.19.54-.56.8-.54,1.52.09,3,.28,4.55.43a1,1,0,0,0,.6,0c1.32-.79,2.49-.13,3.6.44a9.28,9.28,0,0,0,6.6,1.15,4.4,4.4,0,0,1,2.33.39c2.28.83,3.87-.38,5.4-1.73s2.89-2.6,4.24-4a13.5,13.5,0,0,0,2.4-3.06c1.36-2.7,1.69-5.7,2.26-8.63a2.81,2.81,0,0,1,.38-1.12,21.51,21.51,0,0,1,1.6-1.84,2,2,0,0,1,2.94-.35c0,1.1,0,2.08,0,3,0,.39,0,1-.23,1.12-1.37.81-.95,2.56-1.95,3.52-.35.33-.74.62-1.12.92s-.6.33-.72.58a9.25,9.25,0,0,0-1.19,3c-.11,1.27-1,1.91-1.54,2.86-1,1.89-2.66,3.08-4.25,4.37a4.44,4.44,0,0,0-1.25,1.45,1.4,1.4,0,0,0,.19,1.3c1.89,1.53,3.88,2.94,5.79,4.46,1.26,1,3.35,1.12,3.5,3.37.05.69.78,1.34.82,2,.11,2,0,4,0,6.07a1.65,1.65,0,0,0,.61,1q2.32,2,4.7,4c1.81,1.51,3.63,3,5.47,4.48.46.36,1.09.53,1.56.89a20.5,20.5,0,0,1,2.31,2c.87.92,1.58,2,2.47,2.89s.4,1.34-.14,2a29.53,29.53,0,0,1-11,7.79c-1.64.71-3.21,1.58-4.8,2.4-2.56,1.33-5,3.11-7.68,3.92-3.88,1.15-7.58,3-11.78,3.08-2.83.08-5.63.78-8.46,1.12-1,.13-2.05-.1-3.05.06-3.42.55-6.68-.67-10-.81a34.61,34.61,0,0,1-7.7-1.21,98.13,98.13,0,0,1-9.47-3.41c-2.82-1.12-5.55-2.47-8.36-3.6-1.2-.49-2.61-.51-3.77-1.06a32.2,32.2,0,0,1-6.07-3.41c-1.45-1.13-2.45-2.86-3.65-4.32a3.2,3.2,0,0,1-.56-.78,8.13,8.13,0,0,1-.43-1.68c-.11-.94.59-.58,1.09-.71s.67-.62,1-.94c1.4-1.35,2.4-3,4.2-4a17.31,17.31,0,0,0,3.2-2.88.74.74,0,0,0,.22-.63c-.69-1.52.36-2.21,1.33-3a12.81,12.81,0,0,0,1-1.07c-1.4.17-1.9-.37-2.06-1.33a.85.85,0,0,0-.35-.58c-1.74-.77-1.88-2.35-2-3.93,0-.17.13-.49.26-.52,1.24-.28,1.18-1.64,1.93-2.32a1.8,1.8,0,0,0,.4-1.22,2.31,2.31,0,0,1,1.81-2.39c.94-.3,1.83-.8,2.84-.15.19.11.61-.09.9-.21a1.58,1.58,0,0,1,2.29.82c.66,1.46,1.17,3,1.85,4.43.53,1.14,1.21,2.21,1.86,3.37,1.61-1.1,1.29-2.8,1.55-4.45-1.39,0-1.51-.83-1.37-1.83,0-.16.08-.38,0-.48-1-1.27-.1-2.05.72-2.86a1.72,1.72,0,0,0-.7-3,4.54,4.54,0,0,0-1.16-.26c-1.09-.13-1.5-.81-.7-1.46,2.09-1.69.73-3.6.49-5.39-.16-1.22-.36-1.19.89-2.15-.66-.06-1.05-.12-1.45-.13s-.62.15-.83,0a4.66,4.66,0,0,1-.88-.79c.3-.24.57-.6.91-.69.85-.23,1.73-.33,2.86-.54a1.86,1.86,0,0,1,.4.81c.13,1.9.23,3.8.25,5.71a8.52,8.52,0,0,1-.38,2.1c-.34,1.3.14,2,1.62,2.15-.05-.36-.09-.69-.16-1a11.27,11.27,0,0,1-.32-1.51c-.06-1.33,0-1.38,1.54-1.11a12.85,12.85,0,0,1-.41-1.95,2.7,2.7,0,0,1,.38-1.14,5.84,5.84,0,0,0,.65-1.23c.12-.63,0-1.31.05-2,.14-1,.39-1.93,1.72-2.11a7.26,7.26,0,0,0,2.4-1c1.12-.61,1.92-.22,2.78.76-.37.09-.69.29-.9.21-1.31-.53-2.26.05-3.44.6-1.41.66-1.31,1.58-1.35,2.71a17.06,17.06,0,0,1-.33,2.75,1.75,1.75,0,0,0,1.34,2.31,1.68,1.68,0,0,1,.9.69c.54.91,1,1.9,1.48,2.82.16.29.48.68.74.69,1.79.07,2.1,1.78,3.12,2.7.74.65,1.46,1.32,2.21,2s1.31,1.06,2.09,1.7c-1.16.68-1.84-.13-2.57-.52a21.89,21.89,0,0,1-2.48-1.55,15,15,0,0,1-1.39-1.26,8.88,8.88,0,0,0-1.75-1.35c1.53,2.7,3.44,4.88,6.52,6a4.69,4.69,0,0,1,3.05,2.82c.32.91,1.4,1.52,2,2.36a5.94,5.94,0,0,0,3.68,2.25,1.9,1.9,0,0,1,1.7,1.72c.12.83.34,1.64.46,2.46a2.29,2.29,0,0,0,2.25,1.86,5.61,5.61,0,0,1,1.92.74,6.59,6.59,0,0,0,5.76.34,7.69,7.69,0,0,1,2.2-.45c.18,0,.56.33.55.48s-.22.72-.44.78c-1.69.5-3.46,1.4-5.11,1.22s-3.54-.13-5-1.43a3.54,3.54,0,0,0-1.1-.45c-.29,2,1.13,3.05,2,4.3,1.1,1.51,2.24,3,3.31,4.52a16.49,16.49,0,0,1,1.33,2.35c.23.49.18,1.12.44,1.59.56,1.05,1.31,2,1.84,3.07.79,1.55,1.46,3.15,2.16,4.74a.83.83,0,0,1,0,.6c-.14.36-.58.8-.48,1a6.74,6.74,0,0,0,1.23,1.93,1.31,1.31,0,0,0,1.13.11c3.64-1.36,7.56-1.76,11.11-3.53a49.26,49.26,0,0,0,8.68-5.15,6.07,6.07,0,0,1,1.6-.77c1-.42,1.61-1.07,1.39-1.88-1.07-.9-1.92-1.58-2.72-2.32a4.08,4.08,0,0,1-.79-1.05,6.55,6.55,0,0,0-3.33-3.29c-1.69-.65-2.34-2.26-3.12-3.64-1.38-2.43-2.54-5-3.81-7.45q-1.23-2.4-2.53-4.76a5.8,5.8,0,0,0-.8-.93l-.41.1-.34,4.42-.6.07a5.54,5.54,0,0,1-.52-1.4c-.13-1.49-.65-2-2.1-2.38s-2.8-1.13-4.24-1.5-2.94-.37-4.38-.69a43.62,43.62,0,0,1-5.25-1.5c-.78-.28-1.29-1-.84-1.7L300.17,216c-.86-.41-1.7-.85-2.58-1.2-.25-.09-.61.1-.92.16.07.3,0,.69.21.89a10.17,10.17,0,0,0,1.93,1.84c1.6,1,3.29,1.89,4.92,2.86,1.31.77,2.53,1.69,3.87,2.38,2.21,1.12,4.49,2.1,6.74,3.13.29.13.68.07.91.25a6.06,6.06,0,0,1,.83,1c-.3.24-.7.74-.9.67a32.89,32.89,0,0,1-4.19-1.66C309.5,225.58,308.14,224.55,306.21,224.58Zm.35-6-.17.65a34.61,34.61,0,0,0,4.3,1.16c3.07.44,6.17.7,9.24,1a8.93,8.93,0,0,0-.06-1c-.05-.35-.19-.69-.23-1-.19-1.45-.8-1.77-2.16-1.41a14.77,14.77,0,0,1-4.58.83c-1.24-.09-2.18,0-2.91.75ZM317,216.53a1.66,1.66,0,0,0,.54.23c.82.06,1.75-.21,2.17.87a1.09,1.09,0,0,0,.63-.18,11.94,11.94,0,0,0,1.54-1.88,12.17,12.17,0,0,0,.79-2.09l-.59-.23c-.17.38-.32.77-.52,1.14s-.32.8-.57.87a2.42,2.42,0,0,1-1.53,0c-.33-.15-.48-.71-.71-1.09l-.24.37Zm19.09-26.9c-.56.26-1.33.38-1.65.82a3.5,3.5,0,0,0-.32,1.91c0,.15.58.45.85.41C336,192.6,336.73,190.6,336.11,189.63Zm-20.65,21.26a5.57,5.57,0,0,0-4.78-.34C312.08,212.32,313.66,210.68,315.46,210.89Z"/><path d="M229.12,214c2.58,1.24,2.81,3.43,3.47,5.39.59,1.73,1.3,3.43,2,5.14s1.28,3.34,2,5a47.27,47.27,0,0,0,5.75,9.84,52,52,0,0,0,3.08,4.23c2.53,2.79,5.09,5.57,7.81,8.16a66,66,0,0,0,6.73,5.51,37.34,37.34,0,0,0,5.57,3.34,107.09,107.09,0,0,0,10.83,4.88,99.1,99.1,0,0,0,11.34,3,59.4,59.4,0,0,0,15.05,1.22,54.55,54.55,0,0,0,11-1.29c2.49-.6,5-1,7.5-1.66,1.5-.4,2.9-1.14,4.38-1.66,1.8-.63,3.7-1,5.43-1.84a45.12,45.12,0,0,0,5.18-3.06c2.8-1.79,5.65-3.54,8.32-5.51a72,72,0,0,0,6-5.21,62.21,62.21,0,0,0,4.73-4.74,53.4,53.4,0,0,0,7-10.59c1-1.84,1.9-3.68,2.89-5.49.15-.27.58-.37.86-.57s.57-.37.54-.48c-.45-1.61.51-2.92.91-4.34.52-1.84,1.07-3.67,1.58-5.51.29-1,.57-2.08.78-3.14.49-2.59,1-5.18,1.38-7.79.25-2,.17-4,.3-6.05a22,22,0,0,1,.39-2.41l-.27.15c-.21-2.2-.35-4.4-.64-6.59-.27-2-.69-4-1.08-6a48.4,48.4,0,0,0-1.11-4.91A54.94,54.94,0,0,0,364,169.36c-1.55-2.66-2.82-5.47-4.39-8.11a44.71,44.71,0,0,0-3.41-4.53,62.24,62.24,0,0,0-4.1-5,55.21,55.21,0,0,0-5.65-5c-3.07-2.39-6.25-4.64-9.43-6.88A17.85,17.85,0,0,0,333.9,138c-3.54-1.58-7-3.33-10.7-4.59a55,55,0,0,0-12.44-3,7.67,7.67,0,0,1-2.3-1.14c1.09-.76,1.52-.83,3.63-.36,3,.66,6,1.25,9,2.17a97.19,97.19,0,0,1,9.29,3.5A60.94,60.94,0,0,1,343.14,142c2.32,1.76,4.5,3.71,6.65,5.68a60.58,60.58,0,0,1,5.3,5.33,71,71,0,0,1,5.55,7.28c1.87,2.87,3.51,5.9,5.1,8.94A60.24,60.24,0,0,1,371,184c.72,3.23,1.08,6.56,1.49,9.86a41.76,41.76,0,0,1,.47,6.51c-.2,5.55-.54,11.1-2.07,16.48-.86,3-1.83,6-2.77,9a29.06,29.06,0,0,1-3.16,6.78c-1.18,1.9-2.21,3.89-3.41,5.79a57.26,57.26,0,0,1-3.61,5.24,61.11,61.11,0,0,1-5.42,6.15c-2.23,2.13-4.75,3.94-7.06,6A55.12,55.12,0,0,1,332.38,264a63.28,63.28,0,0,1-14.93,5.21,66.47,66.47,0,0,1-7.3,1.38c-4.55.35-9.1,1-13.69.35-1.23-.18-2.51-.1-3.74-.28-3.13-.45-6.28-.84-9.37-1.52a56.57,56.57,0,0,1-8-2.41c-2.94-1.13-5.76-2.59-8.63-3.9A57.37,57.37,0,0,1,254.42,255a91.53,91.53,0,0,1-7.31-7c-1.45-1.48-2.66-3.21-4.12-4.69-2.22-2.23-3.52-5.05-5.1-7.68a53.23,53.23,0,0,1-3.65-7.28c-1.68-4.13-3.14-8.34-4.68-12.52A16.67,16.67,0,0,1,229.12,214Z"/><path d="M318.45,150.19l1-.29a9.32,9.32,0,0,0-.86-1.66,2.05,2.05,0,0,0-1.08-.64c-.58-.16-1.28,0-1.78-.29-1.47-.82-3.07-.3-4.8-.56l.42-.41-5.56-1.82.07-.31a8.91,8.91,0,0,1,5.87,1.68c-1.47-2.4-3.6-3-6.23-2.38.83-.82,1.69-.93,5.82-.84-.55-.36-.87-.76-1.11-.71-1.37.24-2.39-.45-3.46-1.08a4.9,4.9,0,0,0-.91-.34l-.34,1.06c-1.36-.57-2.64-1.08-3.9-1.63-.84-.37-.83-.39-.56-1.42a14.78,14.78,0,0,0-2.91-.5c-.87,0-1.75.42-2.66.49,1.41-.65,2.64-1.92,4.45-1a3.84,3.84,0,0,0,1.8.11,7,7,0,0,1,5.08,1.42,5.52,5.52,0,0,0,1.57.79c1.4.56,2.82,1.06,4.22,1.6a13.69,13.69,0,0,1,2.13,1,16.41,16.41,0,0,1,1.28,1.23c1.7,1.41,3.43,2.79,5.15,4.18.18.14.42.36.6.34a2.22,2.22,0,0,1,2.26,1.29c.76,1.27,1.87,2.29,2.31,3.78a3.2,3.2,0,0,0,1.28,1.46,9.15,9.15,0,0,1,3.73,4.65,13.88,13.88,0,0,0,3.66,5.69,8.1,8.1,0,0,0,2.23,1.08c3,1.27,3.67,3,2.29,6,.6.42,1.19.91,1.84,1.28a10,10,0,0,1,3.32,3.41,2.08,2.08,0,0,0,.91.72,3.44,3.44,0,0,1,1.68,5,34.23,34.23,0,0,1-1.89,3.55,10.1,10.1,0,0,1-2.38,1.63,2.67,2.67,0,0,0-.87.93c-.79,1.63-2.38,2-3.4.75,0-.07,0-.2.08-.21,1.45-.33,2.48-1,2.52-2.7,0-.16.84-.35,1.3-.44a10.66,10.66,0,0,1,1.54,0c-1.47-1.36-1.32-2.6,0-3.32.19-.1.45-.37.43-.51a8.35,8.35,0,0,0-.71-2.88,1.78,1.78,0,0,0-2.43-.6c.21,1.3,2.89,1.18,1.91,3.33l-3.44-2.24,1-1.1c-.13-2.15-2.27-.84-3.15-1.88.42-1,1.32-.71,2.09-.62s1.56.32,2.48.52c-.4-1.51-1.23-2-2.37-2-.77,0-1.58-.15-1.73-1.19a11.74,11.74,0,0,0-.35-1.31l-1.32-.11c.05-.67.69-1.56-.61-1.69-.07,0,0-.47-.15-.66a5.38,5.38,0,0,0-1-1.35c-.18-.16-.7-.07-1,.08s0,.54,0,.83c0,.65.49,1.46-.63,1.81l-.77-1.61c-.54.64-.16,2.39,1,3.57a20.64,20.64,0,0,0,3.23,2.26c-.56.82-1.33.45-2,0s-1.35-1-2.18-1.56a3.29,3.29,0,0,0,1.77,2.55c.92.43,1.92.69,2.85,1.2-1.62,1.12-2.81-.68-4.33-.68.23,1.69,2,1.62,2.85,2.51-.13.15-.19.3-.28.32-1.5.35-1.75.89-1,2.27a5.64,5.64,0,0,1,.38.73,3.28,3.28,0,0,0,3.64,1.7c.19-.07.32-.31.48-.46a2.41,2.41,0,0,0-.49-.47c-.74-.41-1.51-.78-2.17-1.12,0-.37,0-.47.06-.52.9-.94,1.37.37,2.1.41s1.63-.42,1.62,1c0,.61.54,1.36-.17,1.75a9.85,9.85,0,0,1-2.54.77,10.89,10.89,0,0,1-1.8.19c-.8,0-1.79.33-2.36,0a2.71,2.71,0,0,1-.8-2.09,26.86,26.86,0,0,0-1.46-9.15c-.29-.82-.44-.79-1.25-.54a14.36,14.36,0,0,1-3.58.26c-.17-.68-.21-1.15.59-1.33a1.55,1.55,0,0,0,.91-.54c.87-1.17,1.12-1.19,2.11,0a2.82,2.82,0,0,0,.36.33c1.18-1.34-.31-10.87-2.11-13.59l-.33.05.47,2.48-.46.24-2.89-3.39,1.63.68.22-.27-2.3-1.63.14-.33,2.62,1.06c-.92-1.8-3-1.87-3.62-3.62l2,.91c-.64-2-2.38-2.08-3.66-2.79-.56-.31-1.23-.34-1.25-1.22,0-.18-.42-.39-.68-.52s-.79-.32-1.18-.48Zm12.36,15.72,2.88-.4-1.84-1.75Zm7.8,4.37c-.62-2.39-1.17-3.05-2.65-3Zm-23.42-24.63-3.08-1.41C314.28,146.44,314.28,146.44,315.19,145.65Zm-10.1-5.81c.12-1.21-.64-1.23-2.89-1Z"/><path d="M308.2,129.23c-1,1.15-2.25.46-3.34.47-2.75,0-5.54-.39-8.26-.13-4.16.4-8.27,1.22-12.4,1.86a25,25,0,0,0-4.26.74c-3.69,1.27-7.39,2.58-11,4.15-2.66,1.17-5.13,2.78-7.68,4.19a50.51,50.51,0,0,0-12,9.53A74.74,74.74,0,0,0,240.13,162a62.7,62.7,0,0,0-5.92,11.88c-1.37,3.73-2.28,7.63-3.31,11.48a36.19,36.19,0,0,0-1,9.68c0,1.62-1,3.47-.51,4.8.75,1.92-.77,3.64.35,5.61.9,1.58.74,3.81.88,5.77,0,.59-.49,1.21-.76,1.82l-.49-.1c-.26-1.52-.64-3-.75-4.55-.24-3.55-.46-7.11-.49-10.66a54.06,54.06,0,0,1,1.45-12.78c.88-3.8,1.52-7.67,3-11.29,1.15-2.81,2.63-5.49,3.93-8.24a57,57,0,0,1,7.07-10.87c3.11-4,6.34-7.83,10.54-10.74,1.39-1,2.61-2.16,4-3.13a50,50,0,0,1,5.56-3.57,104.32,104.32,0,0,1,10.11-4.74,51.67,51.67,0,0,1,13.07-3.45c3.55-.4,7.09-.92,10.66-1.13a57.13,57.13,0,0,1,6.52.37,5.06,5.06,0,0,0,1.1,0A3,3,0,0,1,308.2,129.23Z"/><path d="M318.81,167.49l-.9-.48a7.36,7.36,0,0,1,1.12-1.29,7.24,7.24,0,0,1,1.6-.72,13.85,13.85,0,0,0,1.55-.61c.64-.36,1.22-.83,1.85-1.23.41-.26.92-.75,1.26-.65a4.63,4.63,0,0,1,2.12,1.15A8.29,8.29,0,0,1,328.6,166c.09.18,0,.43,0,.32-1,0-2-.05-3-.13-.44,0-.88-.18-1.12,0-.64.46-1.3.89-1.9,1.39a10.14,10.14,0,0,0-.9,1.13c-.22.25-.52.45-.72.72a7.08,7.08,0,0,0-.49.9c.32,0,.69.16.94.05,1.35-.6,2.62-1.58,4.18-1.21a21.31,21.31,0,0,1,3.53,1.34c.16.06.28.53.2.71a.77.77,0,0,1-.66.37,2.61,2.61,0,0,1-1.09-.45c-.66-.43-1.05-.34-1.43.39-.53,1-1.23,2-2.56,1.86a8,8,0,0,1-2-.67,8.25,8.25,0,0,1-1-.57c.42,1.25.8,2.18,1,3.15.52,2.17.91,4.37,1.49,6.52a10.5,10.5,0,0,0,1.31,2.92c1.27,2,.94,1.6,0,3.41-.59,1.17-1.8,1.41-3.11,1.35a28.19,28.19,0,0,0-4.09.33c-.27,0-.54.29-.79.26a15.31,15.31,0,0,1-1.62-.4c.18-.57.19-1.37.58-1.66a4,4,0,0,1,4-.84,5.72,5.72,0,0,0,2.89-.12,1,1,0,0,0,.73-1.56c-.33-.72-.58-1.48-.91-2.21a10.87,10.87,0,0,1-1.17-3.77,19,19,0,0,0-1.66-5.73,24.62,24.62,0,0,1-1.12-4.73C318.1,168.56,318.58,168,318.81,167.49Z"/><path d="M280.73,187l-1.57-2.49c1-.79,3.19-.49,3.6-2.77-1.9.14-2.56,2.73-4.63,1.93.28,1,.23,1.68-1.33,1.44.72-1.07,1.31-2,2-2.9a.82.82,0,0,1,.77-.14c.87.53,1.4,0,1.84-.59s1-1.54,1.53-2.32l-.17-.28-2.83.74-.27-.28a5.28,5.28,0,0,1,.76-1c1.54-1.24,3.15-2.39,4.65-3.68,1.13-1,1.15-.81,2.13.31.78.89.35,1.9.87,2.72.08.13-.29.51-.4.8a1.56,1.56,0,0,0-.15.85,2.36,2.36,0,0,1-.73,2.43c-.88.57-1.74,1.17-2.6,1.75l.12.38,1.64-.26,1.84,4-4.36,1.53.17.57c1.46.51,2.57-.63,3.95-.92-.52.42-1,.87-1.56,1.26a16.4,16.4,0,0,0-1.78,1.15,8.26,8.26,0,0,0-1.08,1.51l.25.2c-.73,0-1.46.11-2.19.1a1.08,1.08,0,0,1-.82-.33c-.1-.17.07-.59.23-.82.47-.69,1-1.33,1.5-2,.17-.24.39-.73.3-.81a2,2,0,0,0-.93-.4,14.38,14.38,0,0,1-2.45-.71c-.29-.14-.31-.83-.45-1.27a10.62,10.62,0,0,1,1.24.19,3.54,3.54,0,0,1,.68.38Z"/><path d="M277.28,167.59c.58-.33,1.14-.68,1.73-1,1.46-.7,2.93-1.36,4.4-2.06,1.67-.8,1.67-.8,2.52-2.9a11.09,11.09,0,0,0-1.27.45c-1.27.68-2.5,1.41-3.77,2.07a1.12,1.12,0,0,1-.9-.13c2.21-1.28,4.67-2.07,6.41-4-1.43-.18-2.46.58-3.54,1.17s-2,1.5-3.06,1.76a6.22,6.22,0,0,1-4.93-.53l-.07-.49c.54-.14,1.07-.33,1.62-.42s1.21-.08,1.82-.13c.36,0,.85-.26,1-.1,1.38,1.1,2-.24,2.85-.77-.85-1.43-.85-1.43,1-3.19,1.11.41.82,1.26.53,2.24,1.43-.79,2.8-1.16,3.74-2.53.53-.76,1.81-1.11,2.81-1.39.64-.17.87.47.85,1.14s.15,1.36.12,2c-.05,1-.83,1.15-1.76,1.14.28,1.17-.62,1.59-1.35,2.18a8.92,8.92,0,0,0-1.15,1.42l.32.33,1.52-.66c.76.83-.23,1.09-.61,1.37a5.89,5.89,0,0,1-1.56.56,3.88,3.88,0,0,0-2.2,2c-1.17,2.36-3.28,3.47-5.74,4-.15,0-.34-.15-.76-.35.95-.71,1.77-1.31,2.58-1.93a9.45,9.45,0,0,0,1.47-1.27,1.17,1.17,0,0,0,.08-1.06c-.09-.18-.69-.27-1-.15-.79.36-1.52.86-2.31,1.24a6.69,6.69,0,0,1-1.28.34Z"/><path d="M303.88,175.68c-1,1-2.2.56-3.41-.37-.72-.54-1.37-.52-1.83.46-.17.38-.67.61-1.05.85,0,0-.47-.34-.44-.44a3,3,0,0,1,.59-1.23,22.06,22.06,0,0,1,3.08-3,7.42,7.42,0,0,1,3.06-1.17c1.05-.16,2.16.17,3.24.11.35,0,.82-.54,1-.93.23-.69.51-.88,1.14-.5,1,.57,2.22.84,2.41,2.27,0,.1.38.12.47.25.4.6,1.21,1.47,1,1.8a6.05,6.05,0,0,1-2,1.85c-.27.19-.79,0-1.31,0,.32-.72.95-1.48.78-1.91a2.88,2.88,0,0,0-1.71-1.22c-1.89-.61-1.33,1.38-2,2.21l2.66-.65a4.47,4.47,0,0,1-3.63,2.14C305.39,176.35,304.77,176,303.88,175.68Z"/><path d="M282.83,173.23l-4.05,3.18a1.77,1.77,0,0,1-.49.35,9.61,9.61,0,0,1-1.21.25s-.14-.33-.09-.36a4.66,4.66,0,0,1,1-.71c.46-.21,1.09-.21,1.42-.53a1.6,1.6,0,0,0,.44-1.35c-.09-.27-.85-.49-1.28-.44s-.81.48-1.24.68c-.16.07-.4-.05-.61-.08,0-.21,0-.5.11-.6a11.51,11.51,0,0,1,1.12-.68c1.66-1.08,3.3-2.19,5-3.23a8.93,8.93,0,0,1,1.44-.4c.35-.14,1-.43.95-.6-.24-2.18,1.77-2.16,2.75-3.19.87,1.42-.68,1.58-.92,2.22.33.28.71.46.8.74s-.22.63-.46.77c-.57.33-1.24.52-1.81.85-.3.17-.48.54-.71.82a3.51,3.51,0,0,0,1,0c.6-.15,1.22-1,1.72-.2.17.26-.45,1.17-.89,1.6a10.8,10.8,0,0,1-1.94,1.38A1.39,1.39,0,0,1,282.83,173.23Z"/><path d="M302.1,165.59c0-1,1.82-2,2.91-1.52,2.42,1,4.87,1.86,7.25,2.92a5.76,5.76,0,0,1,1.73,1.55.86.86,0,0,1,0,.85,1.35,1.35,0,0,1-.9.41,2.23,2.23,0,0,1-1-.33c-1.53-.76-3-1.63-4.57-2.29a4.82,4.82,0,0,0-2.08-.05,17,17,0,0,0-5.94,1.74,1.3,1.3,0,0,1-.78.2,8.9,8.9,0,0,1-1.32-.64c.25-.41.39-1,.75-1.18a11.76,11.76,0,0,0,3.14-1.59C301.44,165.52,301.82,165.61,302.1,165.59Z"/><path d="M308.62,195c-.41,1.71-1.11,1.36-2,.7l1.59-1.25a1.89,1.89,0,0,0,2.51.28,1.86,1.86,0,0,1,.92-.19h6.91v-.38a2.62,2.62,0,0,1-.79-.13.63.63,0,0,1-.34-.44.59.59,0,0,1,.32-.45c1.21-.21,2.43-.43,3.66-.52.37,0,.77.33,1.31.83l-.93.29.18.22c.1,0,.22.1.31.08.68-.21,1.35-.45,2-.65a2.82,2.82,0,0,1,1.25-.28,3.73,3.73,0,0,1,1.13.74c-.31.25-.58.62-.93.71-1.89.51-3.79,1-5.71,1.37a8.08,8.08,0,0,1-2-.15c-.46,0-1.27-1-1.27.43a1.18,1.18,0,0,1-.57.07c-1.77-.57-3.39.22-5,.57C309.37,197.2,309,197.06,308.62,195Z"/><path d="M303.63,143.06a8.05,8.05,0,0,1-1.1-.28c-.7-.26-1.37-.6-2.07-.85a7.69,7.69,0,0,1-2-.61c-1.57-1.17-3.09-.83-4.76-.29a22.45,22.45,0,0,1-3.77.56l.31,1.25c-3.59.66-7.12,1.68-9.82,4.5.19-1.06.34-2,1.57-2.14.49-.07.84-.83,1.34-1.14,2.49-1.5,5-3,7.54-4.39a6.43,6.43,0,0,1,2.66-.2c1.1,0,2.21-.05,3.3,0a6.85,6.85,0,0,1,1.68.49c1,.34,2,.65,3,1.08.81.36,1.55.88,2.33,1.32Z"/><path d="M268.61,193.72v-2.1l2.12-.46-3.21-1.3c.25-1.22.8-1.33,1.83-1a7.07,7.07,0,0,0,6.31-.9c.54-.34,1.1-.63,1.66-.94l.24.25a4.29,4.29,0,0,1-.22.72,2.44,2.44,0,0,0-.39,1.65c.08.48-.79,1.33-1.42,1.64a32.2,32.2,0,0,1-3.7,1.26C270.74,192.93,269.65,193.34,268.61,193.72Z"/><path d="M284.45,155.5l1.21-1.3L284.8,153l3-.17.16-1.27,1.06.51,2.07-1.46c-.22-.39-.64-.82-.66-1.27,0-.26.6-.55.93-.83l1,1.28c.92-.66.92-.66-.1-3.54.74-.21,3.76,1.23,4.68,2.34h-2.28c-.62.82-1.17,1.56-1.73,2.28-.13.16-.39.28-.41.44-.25,1.89-1.72,2.12-3.17,2.42a3.74,3.74,0,0,0-1,.5l.16,1-4,.49Z"/><path d="M264.36,185c-.57.19-1.22.39-1.85.63-1.4.53-3.27-.62-3.08-2,.05-.4.45-1,.76-1s.82.35,1.21.6.41.51.66.57a3.34,3.34,0,0,0,3.07-1.39c.09-.15.86-.09.87,0a3.13,3.13,0,0,0,2.76,2.65,23.2,23.2,0,0,0,3.9-.09c.23,0,.48-.15.69-.09a.79.79,0,0,1,.49.44.62.62,0,0,1-.31.51c-1.51.3-3,.65-4.54.81a4.2,4.2,0,0,1-3.37-1.24C265.36,185.05,264.87,185.07,264.36,185Z"/><path d="M280.42,145.38c0,2.17-1.67,2.62-2.81,3.33a17.34,17.34,0,0,0-5.16,5.56c-.13.2-.23.47-.41.57-2.45,1.28-3.63,3.55-4.64,5.95a8.29,8.29,0,0,0-.3,1.35c-.08.36-.21.71-.32,1.06-.34-.29-1-.6-1-.86a5.68,5.68,0,0,1,.62-2.39,24.55,24.55,0,0,1,5-6.55,24.8,24.8,0,0,0,2.28-2.51,35.59,35.59,0,0,1,3.27-3.65A17.83,17.83,0,0,1,280.42,145.38Z"/><path d="M265.2,175.78c.76-1,.57-1.51-.27-2.39s-.46-2.48.06-3.71a9.23,9.23,0,0,1,.75-1.51,1.57,1.57,0,0,0,.14-1.84c-.47-.83.37-2.07,1.62-2.61-.1.68-.47,1.49-.21,1.92s1.13.51,1.82.78a2.08,2.08,0,0,1-1.72,2.06c-.74.24-1.18,1.72-1.54,2.72s.47,1.1,1.15,1.34a1,1,0,0,1,.49.8,7.19,7.19,0,0,1-1,2.07C266.28,175.69,265.65,175.67,265.2,175.78Z"/><path d="M288.48,145.75c-.23,1.42-1.44,1.16-2.14,1.23a13,13,0,0,0-5.41,2.09c-1.61,1-3.51,1.63-4.36,3.52a4.34,4.34,0,0,0-.22,1.35,3.69,3.69,0,0,0,0,.74,2.33,2.33,0,0,1-.87,0c-1.06-.42-1.32-1.33-.47-2,1.78-1.5,3.62-3,5.54-4.28a36.68,36.68,0,0,1,4.2-2.25A5.1,5.1,0,0,1,288.48,145.75Z"/><path d="M327.13,235.57c-1.65.39-3.28-.89-4.83.28a1.46,1.46,0,0,1,1.49-1.93,17.56,17.56,0,0,1,3.9.56c.45.13.7,1,1,1.61.12.23,0,.59.08.83.24.53.93,1.13.81,1.48a16.89,16.89,0,0,1-1.57,2.8c-.87-.69-.9-.7-.35-1.48s.72-1.27-.09-2.05C327.14,237.29,327.26,236.35,327.13,235.57Z"/><path d="M327.28,242.09c1-.45,1.43.29,2,.82.88.87,1.77,1.74,2.62,2.63a1.46,1.46,0,0,1,.47.79c.05,1.31,0,2.62,0,3.93a13.07,13.07,0,0,0,.37,1.91c-1.26.37-1.58-.73-1.54-1.47.06-1.2-1.11-2.31-.17-3.6.14-.2-.68-1.12-1.09-1.68a11.51,11.51,0,0,0-1-1.18c-.33-.34-.64-.83-1-.92C327,243.12,327.17,242.64,327.28,242.09Z"/><path d="M273.78,181.86c.35.85-.2,1.23-.79,1.33a19.39,19.39,0,0,1-3.48.29,3.22,3.22,0,0,1-2.9-2.32,1.34,1.34,0,0,1,.27-.95c.06-.1.67,0,.8.18,1.34,1.91,3.16,2,5.16,1.42a1.34,1.34,0,0,1,.49,0C273.49,181.81,273.64,181.84,273.78,181.86Z"/><path d="M273.33,179.61a18,18,0,0,1-2.71-1.55,1.64,1.64,0,0,1-.06-1.55c.45-.77,1-.2,1.32.25a2.28,2.28,0,0,0,2.22.89,11.89,11.89,0,0,1,1.58,0c.52,0,1.11-.1,1.13.71s-.54.73-1.08.76c-.76.06-1.51.18-2.26.27Z"/><path d="M280.72,196.23a2.15,2.15,0,0,1-2.25-1.43c-.11-.23,0-.57,0-.86a2.92,2.92,0,0,1,.85.09,10.92,10.92,0,0,1,1.1.72c.65.4,1.19.42,1.5-.44a6.76,6.76,0,0,1,3-1.19,1.32,1.32,0,0,1,.26.84c-1.44.79-2.91,1.53-4.38,2.26A.19.19,0,0,1,280.72,196.23Z"/><path d="M275.2,195l-2.89,1.43a13.33,13.33,0,0,1-1.35.7c-.46.16-1.11.42-1.43.23a2.74,2.74,0,0,1-.78-1.4c0-.07.64-.57.78-.5a1.72,1.72,0,0,0,2.2-.22c1-.93,2.13-.73,3.28-.67Z"/><path d="M318.08,231.56a1.5,1.5,0,0,1,2.26-.59,2.79,2.79,0,0,1,1,2.77c-.23.82-.76,1.11-2,1C320.7,233.05,319.21,232.39,318.08,231.56Z"/><path d="M270,170a3.31,3.31,0,0,1,.75.68c.66,1.12,1.57,1,2.6.65a12.54,12.54,0,0,1,1.92-.25,3.16,3.16,0,0,1-4.23,1.45C269.56,171.76,269.3,171.18,270,170Z"/><path d="M272.25,198l4.7-1c.43,1.15-.62,1.16-1.19,1.43C273.52,199.5,273.39,199.47,272.25,198Z"/><path d="M285.31,150.35c-.49,1.43-2.7,2.35-3.87,1.58a1.08,1.08,0,0,1-.42-.65.64.64,0,0,1,.41-.5C282.72,150.61,284,150.49,285.31,150.35Z"/><path d="M297.93,173.38c.11-1.32,2.41-3.43,4.23-3.48l-3.9,3.81Z"/><path d="M299.11,147.12c-1.3,1.06-2.64.83-3.66-.58A3,3,0,0,1,299.11,147.12Z"/><path d="M285.46,196.37c-.68.36-1.34.74-2,1.06s-1.57.72-2.37,1a1.74,1.74,0,0,1-.85,0c-.08,0-.19-.37-.16-.39a3.6,3.6,0,0,1,.69-.39c1-.47,2-.95,3-1.38a11.68,11.68,0,0,1,1.54-.42Z"/><path d="M325.51,168.07c1.14-1.06,3.49,0,4,1.72Z"/><path d="M303.84,145.64c1.39-1.14,2.42.37,3.61.59.23.05.37.59.56.91l-.29.25Z"/><path d="M269.78,162.63l2.3-2.93.52.4-2.22,3Z"/><path d="M301.55,145.87a23.75,23.75,0,0,1,2.37.82c.23.11.31.55.45.83a2.26,2.26,0,0,1-.81.06C302.71,147.36,301.85,147.12,301.55,145.87Z"/><path d="M262.53,177.48a9.33,9.33,0,0,1,.87-1.47c.17-.21.6-.19.92-.28.07.36.31.92.17,1.05a10.52,10.52,0,0,1-1.67,1.06Z"/><path d="M322.81,196.77c-.43.65-1,1.12-1.83.69-.16-.08-.25-.31-.37-.47l2.06-.69Z"/><path d="M312.34,185.18c.37,1.09.24,1.67-.62,1.72-.21,0-.44-.5-.67-.77Z"/><path d="M266,187.35a4.9,4.9,0,0,1,1.22-.37,1.41,1.41,0,0,1,.8.41c.08.06,0,.44-.05.48a1.16,1.16,0,0,1-.81.22A6.33,6.33,0,0,1,266,187.35Z"/><path d="M307.32,169.33l-2.79-.22C305.35,168.14,306.09,168.17,307.32,169.33Z"/><path d="M242.18,248.46c-.44.33-.81.67-.87.63a8.15,8.15,0,0,1-1.18-1.17,2.21,2.21,0,0,1,.52-.58C241.12,247.63,241.55,248,242.18,248.46Z"/><path d="M350.8,141.91c.85-.09,1.2.53,1.49,1.18,0,.07-.53.52-.55.5-.45-.41-.87-.86-1.29-1.31Z"/><path d="M223.27,201.54c-1.43.27-1.29-.65-1.48-1.22,0-.07.45-.3.7-.46Z"/><path d="M233,240.74l.28-1.28c.31.08.69.06.9.25a3.53,3.53,0,0,1,.55.95,9.65,9.65,0,0,1-1.17.32c-.16,0-.36-.14-.54-.21Z"/></svg>