<svg xmlns="http://www.w3.org/2000/svg" width="204" height="300"><path d="M19.68 96v29.24c0 1.8.89 3 2.72 3h3.84v5.2h-24v-5.2h4.05c1.87 0 2.73-1.18 2.73-3v-19.11H2.38v-5.2h1.54c3.59 0 6.17-1.15 7.79-5h8M66.58 104.41c0 4-3 5.81-6.36 7 5 1.94 8.33 5 8.33 10.77 0 9.44-8.43 12.09-17.33 12.09-6.75 0-16.69-1.36-16.69-10.19 0-5 2.66-7.61 7.14-9.22-3.08-1.55-5.77-4.34-5.77-8C35.9 97.41 44 95 52 95c5.93 0 14.58 1.91 14.58 9.41zm-20.17 13.06c-2.4.83-4.49 3.59-4.49 5.64 0 5.34 5.06 6.67 9.51 6.67 3.27 0 7.57-1.15 7.57-5.1 0-1.75-1-3.05-5.45-4.63zm10.48-9.11a4.22 4.22 0 002.29-4c0-3.84-4.12-4.77-7.21-4.77-2.83 0-6.57.72-6.57 4.2a3 3 0 002.3 2.94l7.61 2.66 1.58-1M83.8 113.31c3.34-2.3 5.35-2.8 9.44-2.8 6.92 0 12.7 4.09 12.7 11.3 0 8.83-7.79 12.49-15.68 12.49-12.13 0-17.8-6.82-17.8-18 0-12.64 5.85-21.3 19.31-21.3 4.84 0 12.63 2.44 12.63 7.86 0 3.84-2.23 5.38-6.1 5.38-2.66 0-4.81-1.83-4.81-4.09 0-1.9.75-2.72 2.4-3.62a5.47 5.47 0 00-3.15-.93c-6.36 0-8.94 4.59-8.94 10.26v3.41zm.68 9.15c0 4.74 1.9 6.92 5.06 6.92s5.06-2.18 5.06-6.92-1.9-7-5.06-7-5.06 2.19-5.06 7M141.86 104.41c0 4-3 5.81-6.35 7 5 1.94 8.32 5 8.32 10.77 0 9.44-8.46 12.09-17.33 12.09-6.74 0-16.72-1.36-16.72-10.19 0-5 2.66-7.61 7.18-9.22-3.09-1.55-5.82-4.34-5.82-8 0-9.51 8.11-11.88 16.12-11.88 5.99.02 14.6 1.93 14.6 9.43zm-20.17 13.06c-2.4.83-4.48 3.59-4.48 5.64 0 5.34 5.06 6.67 9.51 6.67 3.3 0 7.57-1.15 7.57-5.1 0-1.75-1-3.05-5.49-4.63zm10.52-9.11a4.22 4.22 0 002.29-4c0-3.84-4.12-4.77-7.24-4.77-2.84 0-6.54.72-6.54 4.2a3 3 0 002.3 2.94l7.61 2.66 1.58-1M76.91 166.63v29.28c0 1.73.86 3 2.73 3h3.84v5.17h-24v-5.17h4.12c1.86 0 2.73-1.25 2.73-3v-19.12h-6.64v-5.21h1.54c3.59 0 6.17-1.18 7.79-5h8M123.81 175c0 4-2.94 5.88-6.35 7 5 2 8.32 5 8.32 10.77 0 9.47-8.46 12.13-17.33 12.13-6.74 0-16.72-1.4-16.72-10.23 0-4.92 2.66-7.57 7.18-9.15-3.09-1.58-5.82-4.34-5.82-8 0-9.51 8.11-11.91 16.12-11.91 6 0 14.6 1.87 14.6 9.33zm-20.17 13.06c-2.4.83-4.48 3.59-4.48 5.63 0 5.35 5.06 6.68 9.51 6.68 3.26 0 7.57-1.15 7.57-5.1 0-1.75-1-3-5.49-4.63l-7.11-2.58zm10.48-9a4.17 4.17 0 002.26-4c0-3.8-4.12-4.74-7.21-4.74-2.83 0-6.53.65-6.53 4.2a2.91 2.91 0 002.3 2.87l7.6 2.66 1.58-1M152.2 166.63v29.28c0 1.73.86 3 2.72 3h3.81v5.17h-24v-5.17h4.09c1.86 0 2.72-1.25 2.72-3v-19.12h-6.64v-5.21h1.55c3.59 0 6.13-1.18 7.71-5h8M199.1 175c0 4-2.95 5.88-6.36 7 5 2 8.33 5 8.33 10.77 0 9.47-8.47 12.13-17.33 12.13-6.71 0-16.69-1.4-16.69-10.23 0-4.92 2.66-7.57 7.18-9.15-3.09-1.58-5.82-4.34-5.82-8 0-9.51 8.11-11.91 16.12-11.91 5.95 0 14.57 1.87 14.57 9.33zm-20.17 13.06c-2.41.83-4.49 3.59-4.49 5.63 0 5.35 5.06 6.68 9.51 6.68 3.27 0 7.57-1.15 7.57-5.1 0-1.75-1-3-5.49-4.63l-7.1-2.58zm10.48-9a4.14 4.14 0 002.29-4c0-3.8-4.12-4.74-7.21-4.74-2.83 0-6.53.65-6.53 4.2a2.88 2.88 0 002.3 2.87l7.57 2.66 1.58-1" fill="none" stroke="#000"/></svg>