<svg xmlns="http://www.w3.org/2000/svg" width="300" height="300" viewBox="0 0 300 300"><title>flag-oregon-icon-ships</title><path d="M241.28,210.8h3.22m3.5-.29L264.67,207m-22.52,9.08,4.4-.3m-9.94,4.38,9.06-1.76m.29,3.81s8.18,2,9.65,1.16" fill="none" stroke="#000" stroke-width="1.5"/><path d="M214.67,129.51l17.83-7.33m-19.88,5,23.69-12.56,53.5-26.91m-2.32-7.3L212,124.53m65.5-53.81L210,121.6m38.6-54.37-40.35,55L267,64.88M234.26,75.12,204.44,121m13.74-46.22-17,43.57m8.18-44.15-9.94,44.15m.3-43.87L196,117.24M190.4,74.52l1.47,42.72M178.11,74.82l10.25,41.53M158.52,74.52l26.62,42.41L167.88,74.82M146,74.52l35.38,45M134.84,74.24l43.57,48.54M122.56,74.24,176.07,124M104.43,74.24l71.06,48.25M86.3,74l88,50.57m-145-60.82L172.86,126.3M18.16,70.44l150.89,60.83M10.86,80.67,168.17,133.9M7.06,88.56,153,130.1M4.71,100l15.5,3.81M81,117.24l31,9.34M1.5,136.24l19,.59m41.24,0L79.57,138" fill="none" stroke="#000" stroke-width="1.5"/><path d="M17.58,142.37s-2.92-2.33-4.38-2-5.27,1.47-5.27,1.47a17.65,17.65,0,0,0,4.38,1.46c2,.28,5.27-.89,5.27-.89"/><path d="M17.76,148.48s-2.92-2.35-4.38-2-5.27,1.47-5.27,1.47a16.93,16.93,0,0,0,4.39,1.45c2,.28,5.26-.87,5.26-.87"/><path d="M26.36,148.52s-2.93-2.35-4.4-2.05-5.25,1.46-5.25,1.46a17,17,0,0,0,4.38,1.46c2.05.3,5.27-.87,5.27-.87"/><path d="M19.92,153.77s-2.92-2.34-4.39-2-5.26,1.45-5.26,1.45a17.45,17.45,0,0,0,4.39,1.47c2.05.29,5.26-.89,5.26-.89"/><path d="M26.39,145.61s-2.92-2.35-4.39-2.07S16.74,145,16.74,145a17.45,17.45,0,0,0,4.39,1.47c2,.29,5.26-.86,5.26-.86"/><path d="M36.59,144.71s-2.93-2.34-4.39-2-5.26,1.46-5.26,1.46a17.76,17.76,0,0,0,4.38,1.48c2,.28,5.27-.9,5.27-.9"/><path d="M36.59,149.69s-2.93-2.35-4.39-2.07-5.26,1.48-5.26,1.48a17.21,17.21,0,0,0,4.38,1.46c2,.3,5.27-.87,5.27-.87"/><path d="M47.11,144.54s-2.92-2.35-4.38-2S37.46,144,37.46,144a18.09,18.09,0,0,0,4.39,1.46c2,.3,5.26-.87,5.26-.87"/><path d="M35.49,153.25s-2.92-2.32-4.38-2-5.27,1.45-5.27,1.45a17.29,17.29,0,0,0,4.39,1.48c2,.28,5.26-.9,5.26-.9"/><path d="M47.22,154.43s-2.92-2.32-4.38-2-5.27,1.47-5.27,1.47A17.62,17.62,0,0,0,42,155.32c2,.28,5.26-.89,5.26-.89"/><path d="M43.31,159.64s-2.92-2.35-4.38-2S33.66,159,33.66,159a17.45,17.45,0,0,0,4.39,1.47c2.05.29,5.26-.86,5.26-.86"/><path d="M51.83,147.66s-2.92-2.33-4.39-2-5.26,1.46-5.26,1.46a16.93,16.93,0,0,0,4.39,1.45c2,.28,5.26-.89,5.26-.89"/><path d="M58.52,149.69s-2.92-2.35-4.39-2.07-5.26,1.48-5.26,1.48a17.21,17.21,0,0,0,4.38,1.46c2,.3,5.27-.87,5.27-.87"/><path d="M63.48,146.47s-2.91-2.34-4.38-2-5.26,1.46-5.26,1.46a16.93,16.93,0,0,0,4.39,1.45,14.43,14.43,0,0,0,5.25-.87"/><path d="M76.35,143.54s-2.91-2.35-4.38-2S66.7,143,66.7,143a17.45,17.45,0,0,0,4.39,1.47c2,.28,5.26-.89,5.26-.89"/><path d="M74.89,148.52s-2.92-2.35-4.38-2.05-5.27,1.46-5.27,1.46a17.35,17.35,0,0,0,4.39,1.46c2.05.3,5.26-.87,5.26-.87"/><path d="M85.42,148.8s-2.93-2.33-4.38-2-5.27,1.47-5.27,1.47a17.62,17.62,0,0,0,4.39,1.46c2,.28,5.26-.89,5.26-.89"/><path d="M67.88,155.84s-2.93-2.35-4.4-2.05-5.25,1.44-5.25,1.44a17.48,17.48,0,0,0,4.38,1.47c2,.29,5.27-.86,5.27-.86"/><path d="M76.94,158.75S74,156.4,72.55,156.7s-5.26,1.47-5.26,1.47a17.91,17.91,0,0,0,4.39,1.47c2,.28,5.26-.89,5.26-.89"/><path d="M91.42,157.77s-2.93-2.34-4.39-2-5.26,1.44-5.26,1.44a17.31,17.31,0,0,0,4.38,1.47c2,.29,5.27-.87,5.27-.87"/><path d="M55.85,214s-2.92-2.35-4.39-2-5.26,1.46-5.26,1.46a17.45,17.45,0,0,0,4.39,1.47c2,.28,5.26-.89,5.26-.89"/><path d="M57.65,218.11s-2.93-2.33-4.4-2S48,217.53,48,217.53A17,17,0,0,0,52.38,219c2,.28,5.27-.88,5.27-.88"/><path d="M47.11,222.79s-2.92-2.35-4.38-2-5.27,1.47-5.27,1.47a17.91,17.91,0,0,0,4.39,1.47c2,.28,5.26-.89,5.26-.89"/><path d="M60.57,235.37s-2.92-2.35-4.39-2.05-5.26,1.46-5.26,1.46a17,17,0,0,0,4.38,1.46c2.05.3,5.27-.87,5.27-.87"/><path d="M24.6,207l17,.88-4.1,2.92L43.6,207h194l12.14-5.14" fill="none" stroke="#000" stroke-width="1.5"/><path d="M28.38,87.11l-2,.33-.28,1.42-5,2.33,5,.33v2.32l-3.79,3.22-2.94,6.44-.28,6.73L6.44,121.88,20.8,138.56l41.83.9,1.13-4.41,2.94-3.79.29-7.91,1.46.33.29-1.51H61.16v0l-.9,4.13,2.32.56-2,3.22-3.22.86.9-16.68,4.08-1.13L62,110.51l-9-.57.57,21.32L46,131,45.62,121l4.69.57V107L46,106.39V102.6l3.51.33-.29-8.81-2.93-.28-.62-4.08H42.45l-.62,6.16-3.5,3.79-.57,2.61,4.36.61v3.22L34,105.54V114H31.32l.28-14.64,4.69-3.46-6.73-1.51Zm-2.61,28.66L27,131.83l-3.51-.28.29-15.49ZM19.9,119v11.37l-3.18-2.89,2.33-8.19Zm18.43,0,3.5.29v12.83H29.56v-5.49l1.76.24L31,128.32l6.73-.28Zm-25.11,2.89-.33,2.65-1.76-1.75Z" fill="#fff" stroke="#000" stroke-width="1.5"/><path d="M117.91,85.93v0l-.19.1-.19.09a1.17,1.17,0,0,0-.47.67c-.26,1.36,1.42,3.79,1.42,3.79l2.6,42.11-4.07-.28-.9-13.46-6.39.57v10.85h-6.45l-4.4,4.07L98,121.88l9-.57-.85-3.79-8.86.9-2-21.36H92.14l.62,38.61-7.91-1.19-5.55-26-2.37.28L75.8,109.9l-6.45-.57v8.76l7.58,1.19,3.84,17.24a6.83,6.83,0,0,0-1.85.76l-.14.09,0,0,0,.05,0,0-.14.19,0,.05v.05l0,0a.57.57,0,0,0,0,.14s0,.08,0,.09v0a.17.17,0,0,0,0,.1s0,.07,0,.09a.27.27,0,0,0,0,.09.42.42,0,0,0,0,.1v.05c.59,1.47,3.51,4.69,3.51,4.69l16.67-1.42,2.37-2.66,2.89,2.32,5.59.34,2-2.94,4.07,2.32S126.08,138,130.46,138s80.39,2,80.39,2l-2.6,4.12a3.4,3.4,0,0,0,2.94,2.93c2.63.29,47.37.24,47.37.24L255.9,155l1.19,5-5.26,7.34,5,.29L249.46,178l4.69.61-4.69,4.69,6.73-.33v16.39l3.5-.28v-5.88h4.69l-.28,6.16h4.69v-9l2.6.29V200h3.23l1.46-25.77,4.08,2.65-.57-7,1.75-.28s-4.12-6.76-4.12-9.67-.28-6.44-.28-6.44l3.22,1.47,2,3.5-1.43,3.79,3.51-1.47-.62,26.34-4.07,5.55,3.79-1.76.9,2.09,4.36-8.53v-23.4l1.18-7.3,4.69-.57.29-2.32-4.41-2.65,4.69-2.6-3.5-3.56-.62-7.29,4.4-3.79-4.4-1.47-1.14-7.3,2.89-2.08a59.56,59.56,0,0,1-2.89-5.21,36.49,36.49,0,0,1-1.18-4.41l5.87-2s-6.74-5.85-10.85-8.2c-3.93-2.24-10.84-5-12.41-6.3l-.14-.14c-1.16-1.18-4.69-5-4.69-5s-3.14-.93-4.59-.23a1,1,0,0,0-.24.14l-.1,0,0,0-.05,0c-1.71,1.6-21,17.29-21.89,18.67-.58,1.17-2.34,7.35-3.22,8.81s-3.8,5.51-5.26,7.58a15.79,15.79,0,0,0-2,3.79,5.68,5.68,0,0,0,1.66.9h0l.19,0h.24l.14,0h0c.87-.29,4.69-1.76,6.16-1.19a6,6,0,0,1,2.32,1.75H236c-2.34,0-7,2.34-8.77,3.79a33.68,33.68,0,0,1-5.54,3.23l-1.18-.57,8.19-5.88c-.19-.15-1.71-1.32-2.56-.9l-.09.05c-.87.56-6.13,2.9-8.48,4.07a19.59,19.59,0,0,0-4.36,3.23v.8c-.44-.75-7.66-12.78-18.43-13.07s-18,12.33-18.42,13.12l-22.22-3.51.57,2.37-12.84-.9,6.4-2,.61,1.19,3.79-1.19-20.46-5.25-2,5.25-5.59-.56L120,90.33s.85-2.22.23-3.5l0-.1-.15-.19a1.85,1.85,0,0,0-.14-.14l-.19-.14a2.27,2.27,0,0,0-.8-.29c-.11,0-.26,0-.38,0H118S117.91,85.92,117.91,85.93Zm158,15.3c.29.13,2.06.86,3.12,1.37s1.14,2.37,1.14,5a15.61,15.61,0,0,1-.57,4.35l2,3.56,2-3.84h1.47l-3.5,7.06s0,0,0,.05l.05,0,0,0a1,1,0,0,0,.19.14l.09.05a3.27,3.27,0,0,0,1.33.24h.19l.19,0c1.05.34,1.34,2.05,1.37,2.28,0,0-.28,4.12-.28,7.34a3.66,3.66,0,0,1-.48,1.94,2.65,2.65,0,0,1-.37.48l-.05,0a2.73,2.73,0,0,1-.52.38,3.06,3.06,0,0,1-1.05.33h-.09a15.52,15.52,0,0,0,2,1.8c1.16.87,1.42,3.47,1.42,9.91,0,6.22-4.1,7.81-4.36,7.91l-4.4-8.77,3.5-1.75-4.64-8.81,4.64-2.32a31.54,31.54,0,0,0-2.89-4.69c-1.74-2.33.29-7.3.29-7.3a5.3,5.3,0,0,0,.28-4.36,4.07,4.07,0,0,1,.57-4.07v0a12,12,0,0,1-.28-4.07c0-.1,0-.27,0-.38V105C278.23,103.53,276.36,101.67,275.9,101.23Zm-4,1.42L270.54,105l2.61,2.89s-1,5-.38,6.77v.05l.05.1a.79.79,0,0,1,0,.09c.89,1.46,4.09,3.25,1.76,9.1s-2.66,8.47-2.37,10.8a31.8,31.8,0,0,1,0,5.54l-1.42-.28-.9-5.26-.86-2a63.19,63.19,0,0,0,.86-7.34c0-2.33-1.76-6.68-1.76-6.68s-9.33,1.71-11.08,2.6-5.88,2.37-5.88,2.37l-.56-1.8s12.67-4.61,13.73-5.26a8.14,8.14,0,0,1,3.22-.56l1.76-7s-2-2-2-2.93V106l.05,0C267.9,105,271.44,102.92,271.92,102.65ZM258.6,125.39h.29a1,1,0,0,1,.24,0h0l.24,0h.09l.05,0h.05l0,0h0l.05,0,.1.09,0,0a1.77,1.77,0,0,1,.19.33,4.75,4.75,0,0,1,.24,2l-2.08,4.41,1.18,1.13,4.07,2.09,1.47-6.45,1.75-.85a24.74,24.74,0,0,1,.62,3.79c0,1.16-1.77,5.85-2.94,8.48a4.53,4.53,0,0,0,.57,4.64l-.85,3.22h-1.47v-1.75a4.5,4.5,0,0,0-.9-3.22l-.05-.05,0,0-.19-.19-.05-.05c-1-.81-2.38-.11-3.22.05h-.24c-.87,0-3.5-1.76-3.5-1.76a7.72,7.72,0,0,0-2,.86l-.05,0-.09.05h0l-.1.05h0c-.94.06-2.41-1.5-3.18-3a37.55,37.55,0,0,1-1.75-6.45l-1.47.62-1.47-1.47,6.16-5,.29,2.32-1.76,2a29,29,0,0,0,.57,4.69A4.74,4.74,0,0,0,253,140l2.65-2,2,2.94,4.07.56,1.47-3.79s-6.73-2.95-8.2-4.69a2.43,2.43,0,0,1-.37-.61c-.73-1.71.52-3.9,1.56-4.93a10,10,0,0,1,2.18-1.94l.23-.1Zm14,17.86-.29,4.35-1.75,4.69-.61-1.13-.86-6.44Zm-9.1,8.48,1.76,3.5L263.82,159l-2.09,1.47v-5Zm6.73,7.62,2.65.57s.29,3.54.29,4.69-2,6.73-2,6.73l-2-3.55Zm-8.15,4.36,1.42,2.37-1.13,4.36-1.76-.29v-5Zm1.14,9.38,1.18,2.61-.9,1.46-2.89-.28Zm5,3.51,2.94.56-1.47,9.38-1.47-.33Zm-6.72,5,3.79,1.18.33,1.14-4.41,4.36-1.18-.52-.29-4.74Z" fill="#fff" stroke="#000" stroke-width="1.5"/></svg>