<svg xmlns="http://www.w3.org/2000/svg" width="598.24" height="354"><path fill="#fff" stroke="#50d6cc" stroke-linecap="round" stroke-linejoin="round" d="M164.78 1.15h433.55v289.03H164.78z"/><path d="M381.11 231.07a85.78 85.78 0 1185.78-85.78 85.94 85.94 0 01-85.78 85.78z" fill="#fff" fill-rule="evenodd"/><path d="M380.71 81.31a64 64 0 11-64 64 64.14 64.14 0 0164-64z" fill="#fff" stroke="#50d6cc" stroke-miterlimit="2.61" stroke-width=".36"/><path d="M381.11 58.09a87.21 87.21 0 11-87.1 87.2 87.31 87.31 0 0187.1-87.2z" fill="none" stroke="#50d6cc" stroke-width="2.08"/><path d="M330.33 96.66l-5.88-6c-.51-.5-.51-.74-.09-1.13 1.25-1.29 2.21-1 4.54.77l.42-.47-3.23-2.93-6.57 6.72 2.89 3.26.42-.42c-1.61-2.12-2-3.35-.95-4.45.53-.54.77-.75 1.34-.12l5.92 6c.39.42.39.75-.06 1.2l-.72.69.54.48 3.76-3.8-.53-.51-.69.72c-.45.42-.69.42-1.11 0zM333.68 94.54l3.94-3.05-.42-.6-.65.51c-.51.36-.78.36-1.08-.12L333 88l4.24-3.22 2.42 3.28c.33.48.27.75-.23 1.14l-.63.48.42.59 4-3-.45-.57-.63.48c-.5.42-.8.36-1.16-.09l-5-6.75c-.3-.45-.27-.75.24-1.14l.66-.45-.45-.6-3.92 3.05.39.54.69-.45c.48-.42.75-.42 1.11.09l2.09 2.81-4.19 3.23-2.09-2.81c-.36-.51-.33-.75.18-1.14l.6-.51-.39-.53-4 3 .44.57.63-.51c.48-.35.81-.35 1.11.15l5 6.7c.36.5.3.77-.24 1.13l-.63.51.45.6zM344.41 86.53l8.45-4.39-1.79-4-.51.27c.54 1.8.63 3 .15 3.65a8 8 0 01-2.36 1.67c-1 .51-1.31.6-1.61-.09L344.85 80l.18-.09c1.47-.78 2.24-.54 3.08.86l.6-.33-2.24-4.48-.63.33c.63 1.5.3 2.27-1.14 3l-.14.09-1.62-3.26c-.33-.62-.09-.77.81-1.28a5.17 5.17 0 012.84-.81 4.71 4.71 0 012.24 1.91l.57-.33-2-3.49-8.12 4.24.35.63.72-.36c.54-.27.81-.24 1.08.3l3.79 7.5c.27.54.12.81-.45 1.1l-.71.36.36.66zM364.46 77.48a4.27 4.27 0 003.22.62c2.51-.41 3.62-1.94 3.26-4.18a3.26 3.26 0 00-1.38-2.21 6.9 6.9 0 00-2.95-.69c-2.1-.15-3.26-.09-3.53-1.64-.21-1.17.39-2 1.79-2.21 1.8-.33 3.2.57 4.19 2.81l.59-.09-.86-4-.57.09-.45 1a4 4 0 00-3-.6 3.1 3.1 0 00-2.77 3.81c.35 2.06 1.64 2.48 4.24 2.69a9.56 9.56 0 012.66.44 1.58 1.58 0 01.95 1.38c.21 1.31-.53 2.39-2.21 2.69-2 .36-3.46-.75-4.42-3.29l-.6.15.87 4.54.51-.09.48-1.22zM378.86 75.15l-.45-8.49c0-.69.09-.87.66-.9 1.79-.12 2.36.72 2.95 3.68l.57-.06-.45-4.38-9.32.48v4.45h.57c.24-2.69.72-3.86 2.24-4 .78-.06 1.05-.06 1.08.81l.44 8.49c0 .59-.18.77-.8.8l-1 .06.06.72 5.32-.3-.06-.75-1 .09c-.62 0-.8-.12-.83-.71zM387.73 65.11l.6.06 3.26 10.31c.2.68.38.86 1 .89h.33l-.09.75-4.6-.3v-.78h.6c.65.06.92.06.92-.3.06-.15 0-.32-.09-.59l-.56-2-4.1-.3-.56 1.15a3.2 3.2 0 00-.32 1c0 .51.32.77 1.07.8l.42.06-.06.78-4.06-.27v-.78h.15c.92 0 1.28-.26 1.73-1.19l4.33-9.26zm1.27 7.17l-1.59-4.72-2 4.45 3.62.27zM398.55 77.27l1.88-8.27c.12-.69.3-.81.9-.69 1.73.42 2.06 1.38 1.79 4.34l.57.12.74-4.31-9.11-2.15-1.13 4.24.53.12c.93-2.54 1.76-3.49 3.26-3.16.72.18 1 .27.81 1.07l-1.89 8.28c-.15.6-.42.72-1 .6l-.93-.24-.18.68 5.17 1.23.18-.75-1-.21c-.59-.15-.71-.36-.59-.92zM402.07 80l8.85 3.43 1.76-4-.54-.18c-.95 1.61-1.76 2.42-2.57 2.51a6.86 6.86 0 01-2.81-.63c-1-.42-1.28-.6-1-1.31l1.45-3.82.15.09c1.56.6 1.91 1.35 1.47 2.93l.62.21 1.74-4.72-.63-.21c-.66 1.49-1.47 1.76-2.93 1.17l-.18-.09 1.29-3.38c.21-.69.47-.66 1.46-.27a4.9 4.9 0 012.51 1.61 4.61 4.61 0 01.09 3l.63.24 1.19-3.85-8.48-3.32-.27.66.77.27c.57.23.72.5.48 1l-2.92 7.92c-.24.54-.51.63-1.08.42l-.78-.33-.27.69zM424.18 84.65a6.22 6.22 0 013.82-2.33 4.94 4.94 0 014.06 1.22 4.77 4.77 0 011.83 3.83 6.07 6.07 0 01-1.56 4.21 5.74 5.74 0 01-3.61 2.33 5.18 5.18 0 01-6.1-5.23 5.76 5.76 0 011.52-4zm1.59 1.35c-2.24 2.66-2.51 4.72-.78 6.22s3.62.77 5.86-1.92 2.54-4.66.8-6.18-3.65-.88-5.88 1.88zM429.77 96.84l3.5 3.91.54-.5-.72-.75c-.42-.48-.42-.75 0-1.11l3-2.78.11.15c1.11 1.23 1.11 2 0 3.23l.45.51 3.68-3.38-.45-.51c-1.25 1-2.12.87-3.2-.3l-.09-.14 2.66-2.45c.54-.51.75-.33 1.44.44a5.25 5.25 0 011.49 2.6 4.36 4.36 0 01-1.18 2.69l.44.48 2.84-2.84-6.12-6.9-.54.48.54.6c.45.5.45.77 0 1.19L432 97.08c-.39.42-.68.36-1.1-.09l-.54-.63-.54.48zM368 222.63l2-9.5-.39-.09a4.89 4.89 0 01-3.55.45l-.12.69 1.43.29c.57.12.75.24.63.66l-1.49 7.17c-.15.66-.42.72-1.23.54l-1.08-.21-.14.72 5.82 1.25.18-.74-1.13-.24c-.81-.18-1.08-.33-.93-1zM375 219.4a2.81 2.81 0 01-1.82-2.74 3.09 3.09 0 013.44-3c1.91.09 3.07 1.16 3 2.66a2.77 2.77 0 01-1.79 2.39 3.15 3.15 0 012.24 3c-.09 2-1.73 3.56-4.18 3.44-2.18-.09-3.44-1.31-3.38-3.17a3 3 0 012.49-2.58zm.63.3a2.49 2.49 0 00-1.82 2.42 2.12 2.12 0 002.33 2.36 2.25 2.25 0 002.6-2.18c.06-1.43-.93-1.82-3.11-2.6zm1.64-1.19a2.59 2.59 0 001.26-2.12 1.89 1.89 0 00-2-2c-1.26 0-2 .63-2.07 1.71s.84 1.79 2.84 2.45zM384.18 219.67a2.76 2.76 0 01-2-2.6 3.06 3.06 0 013.2-3.19c1.91-.06 3.14.92 3.2 2.42a2.79 2.79 0 01-1.62 2.51 3.11 3.11 0 012.42 2.92c.06 2-1.46 3.62-3.94 3.71-2.15.09-3.5-1.11-3.56-2.93-.06-1.28.72-2.3 2.31-2.84zm.62.27a2.45 2.45 0 00-1.61 2.57 2.09 2.09 0 002.45 2.15 2.27 2.27 0 002.45-2.36c-.06-1.43-1-1.76-3.29-2.36zm1.56-1.31a2.57 2.57 0 001.1-2.18 1.87 1.87 0 00-2.15-1.92c-1.26.06-2 .78-1.94 1.83s.95 1.73 3 2.27zM396.19 215.85c.33 1.55-.27 2.72-1.53 3s-2-.51-2.33-2.18.15-2.9 1.35-3.17 2.12.57 2.51 2.36zm.54 2c.65 3.32 0 5.26-1.65 5.62-.65.12-1 0-1.1-.27s.27-.48.15-1a1 1 0 00-1.11-.68 1 1 0 00-.72 1.25c.24 1.11 1.35 1.73 2.87 1.43 2.6-.56 3.95-3.37 3.17-7.05-.66-3.25-2.57-4.9-4.84-4.42a3.58 3.58 0 00-2.75 4.54 3 3 0 003.64 2.63 3.28 3.28 0 002.34-2.06zM347.63 207.09l-3.63 7.62c-.3.63-.48.72-1 .51-1.61-.84-1.7-1.82-.81-4.69l-.5-.21-1.68 4 8.34 4.19 2.09-3.86-.48-.3c-1.46 2.25-2.51 3-3.88 2.33-.69-.32-.9-.44-.54-1.22l3.68-7.62c.24-.57.5-.6 1.1-.33l.84.45.33-.69-4.78-2.36-.33.69.89.42c.6.27.69.54.42 1zM343.6 203.69l-4.06-2.9-.39.63.65.44c.48.36.54.6.21 1.11l-2.3 3.35-4.3-3.08 2.27-3.38c.36-.45.63-.5 1.14-.12l.65.48.42-.57-4.06-2.92-.42.59.69.45c.48.36.57.69.27 1.14l-4.78 7c-.33.45-.63.48-1.14.12l-.66-.48-.42.57 4.07 2.93.42-.6-.69-.45c-.48-.39-.57-.69-.27-1.13l2-2.93 4.33 3.1-2 2.84c-.33.51-.6.57-1.07.21l-.69-.48-.39.6 4.06 2.9.39-.63-.65-.45c-.51-.35-.6-.62-.27-1.13l4.78-6.9c.3-.51.63-.51 1.1-.15l.69.47.39-.59zM333.2 195.83l-6.63-6.9-3.2 2.87.39.38c1.52-1 2.6-1.43 3.35-1.16a7.57 7.57 0 012.3 1.82c.74.81.92 1.08.38 1.58l-3 2.9-.09-.12c-1.14-1.25-1.2-2.06-.12-3.28l-.45-.51-3.54 3.59.45.45c1.26-1 2.12-.95 3.23.24l.12.12-2.57 2.54c-.51.51-.72.33-1.44-.45a3.16 3.16 0 01-.44-5.23l-.48-.47-2.69 3 6.3 6.64.54-.51-.6-.6c-.38-.45-.44-.72 0-1.13l6-5.86c.45-.39.72-.39 1.17.09l.53.57.54-.51zM319.25 179.4a4.51 4.51 0 00-.39-3.38c-1.17-2.27-3-2.84-4.93-1.79a3.1 3.1 0 00-1.64 2 7.8 7.8 0 00.26 3c.54 2.09.93 3.22-.38 4-1.08.57-2 .21-2.69-1.05-.87-1.64-.42-3.31 1.37-4.95l-.3-.51-3.49 2.06.27.48 1.16.15a4 4 0 00.36 3.13 3 3 0 004.36 1.5c1.85-1 1.79-2.36 1.23-5a8.72 8.72 0 01-.42-2.66 1.71 1.71 0 011-1.38c1.17-.62 2.42-.24 3.23 1.32.93 1.76.36 3.58-1.7 5.26l.27.56 4-2.24-.21-.51h-1.31zM316.71 171.81l-3.08-9.12-4.12 1.23.18.54c1.79-.27 2.95-.24 3.52.35a7 7 0 011.32 2.6c.36 1.08.44 1.41-.33 1.62l-3.83 1.37-.06-.18c-.53-1.58-.21-2.33 1.26-2.95l-.21-.69-4.69 1.7.21.63c1.55-.42 2.27 0 2.81 1.55l.06.18-3.35 1.17c-.72.24-.81 0-1.17-1a5.52 5.52 0 01-.41-3 4.84 4.84 0 012.21-1.94l-.24-.63-3.71 1.53 3 8.78.69-.27-.27-.78c-.18-.59-.09-.86.45-1l7.86-2.78c.53-.18.8 0 1 .6l.27.78.66-.24zM301.29 158.54l-.09-.57 9-5.85c.54-.42.72-.66.57-1.23 0-.09-.09-.24-.09-.33l.72-.15.9 4.63-.75.15-.09-.59c-.15-.69-.24-.9-.6-.87a4.37 4.37 0 00-.48.27l-1.79 1.1.81 4.19 1.25.21a2.15 2.15 0 001 0c.48-.09.66-.48.54-1.23l-.09-.39.74-.15.75 4-.75.15v-.15c-.18-.9-.62-1.17-1.61-1.41l-9.92-1.82zm6.54-3l-4.09 2.72 4.78.87-.69-3.59zM311.57 149.49l.36-9.27-4.34-.38v.59a5.22 5.22 0 013 1.32c.48.54.54 1.55.48 3 0 1-.09 1.28-.81 1.28l-8.3-.33c-.57 0-.75-.18-.72-.81v-.8l-.72-.06-.12 5h.72v-.81c0-.63.21-.87.81-.87l8.3.33c.57 0 .75.21.72.87l-.06.81.72.06zM308 128.54a6.27 6.27 0 01-3.61-2.63 5.16 5.16 0 01-.57-4.27 4.87 4.87 0 012.72-3.26 5.92 5.92 0 014.42-.27 5.85 5.85 0 013.53 2.45 5 5 0 01.71 4.4 4.68 4.68 0 01-2.89 3.34 5.73 5.73 0 01-4.31.24zm.6-1.94c3.35 1 5.26.39 5.89-1.82s-.75-3.74-4.07-4.73-5.25-.41-5.88 1.83.71 3.7 4.06 4.72zM317.07 118.59l2.36-4.66-.63-.33-.48.9c-.27.6-.51.65-1 .42l-3.66-1.92.09-.12c.78-1.49 1.49-1.76 3-1.19l.24-.57-4.37-2.33-.29.63c1.31.86 1.55 1.7.77 3.14v.15l-3.22-1.65c-.63-.33-.54-.6-.09-1.49a5.4 5.4 0 011.85-2.42 4.9 4.9 0 012.9.24l.3-.6-3.62-1.65-4.15 8.28.62.33.31-.75c.3-.53.57-.65 1.08-.39l7.41 3.8c.48.27.57.6.27 1.14l-.36.74.63.3zM454 112.29l-.62.27.14.35c.21.57.21.84-.14 1.14l-.84.78-6.31.62 5.41-4.57a1.76 1.76 0 01.48-.36c.27-.09.51.12.72.72l.15.42.65-.27-1.61-4.15-.66.27.12.41a.77.77 0 01-.29 1l-8.19 7 .24.57 8.15-.81-6.33 5.44.24.6 9.86-1c1-.09 1.46.09 1.82.87l.63-.27-1.34-3.47-.66.3.12.36c.27.69.15 1-.36 1.26a5.05 5.05 0 01-.93.23l-6.21.6 5.46-4.6a3.64 3.64 0 01.48-.3c.33-.12.51.09.72.63l.12.39.69-.27-1.71-4.16zM459.23 126.72l.12.6-8.81 6.21c-.51.42-.66.63-.51 1.23 0 .09.09.23.12.32l-.75.18-1-4.63.71-.18.15.6c.18.66.27.9.63.84a1.63 1.63 0 00.48-.27l1.73-1.17-.93-4.12-1.28-.21a2.53 2.53 0 00-1 0c-.47.12-.65.57-.47 1.29l.09.41-.78.18-.9-4 .72-.21.06.15c.21 1 .63 1.19 1.64 1.37l10 1.44zm-6.45 3.28l4-2.89-4.78-.69.81 3.58zM450.6 138a4.31 4.31 0 00-1 3.17c.12 2.54 1.46 3.91 3.65 3.77a3.06 3.06 0 002.36-1.14 7 7 0 001-2.87c.36-2.12.48-3.32 2-3.41 1.2 0 1.92.69 2 2.1.12 1.88-1 3.19-3.26 3.91v.6l4-.36v-.6l-1-.54a4.12 4.12 0 00.95-3 3 3 0 00-3.3-3.23c-2.06.12-2.63 1.34-3.17 3.94a9 9 0 01-.75 2.63 1.76 1.76 0 01-1.43.84c-1.35 0-2.3-.87-2.39-2.6-.09-2 1.16-3.41 3.73-4v-.66l-4.57.33.06.54 1.11.65zM451 146.44l-.68 5 .72.09.08-.81c.09-.66.33-.78.9-.69l4 .54-.75 5.32-4-.54c-.59-.12-.71-.39-.62-1l.09-.78-.66-.12-.72 5 .72.12.12-.81c0-.62.27-.86.84-.77l8.24 1.19c.57.09.69.3.6 1l-.09.8.72.09.69-5-.72-.09-.09.81c-.09.63-.33.84-.9.75l-3.39-.54.74-5.29 3.44.48c.6.06.71.27.63.93l-.09.8.68.09.72-5-.72-.09-.09.81c-.09.6-.33.84-.89.75l-8.22-1.2c-.6-.09-.72-.33-.63-1l.09-.8-.72-.09zM449.07 159.65l-1.1 5 .66.15.23-.83c.13-.63.3-.78.9-.63l8.07 1.91c.6.12.71.36.6 1l-.18.87.66.12 1.16-5-.72-.14-.18.77c-.12.69-.36.84-.92.69l-8.1-1.91c-.57-.12-.72-.36-.54-1l.18-.84-.72-.11zM447.79 166.46l-1.85 4 .62.27c.63-1.4 1.32-1.49 2.6-.87l5.95 2.81-11.56 2.33-.27.6 8 3.83c1.29.62 1.71 1.07 1.11 2.39l.63.32 1.82-4-.6-.27c-.62 1.41-1.22 1.5-2.6.87l-5.29-2.51 10.34-2.09 1.29-2.81-.66-.27-.09.21c-.33.75-.6 1-1.08 1l-6.66-3.14c-1.25-.57-1.64-1-1.1-2.39l-.63-.27zM442.77 185.43l-.45.72c-.36.6-.57.66-1.16.27l-.6-.39a2.31 2.31 0 01-.6-3.5c1.28-2 3.26-2 6.15 0s3.83 3.77 2.57 5.68c-1 1.58-2.65 1.88-5.11 1l-.35.53 3.85 2.31.36-.54-.54-1.05a4 4 0 002.54-1.94c1.61-2.51.81-5.68-2.18-7.68s-6.19-1.4-7.86 1.23a3.53 3.53 0 00-.42 3.49l-1.61-.36-.3.51 3.35 2.21c.45.33.51.54.15 1.05l-.45.71.63.45 2.66-4.24-.63-.42zM433.18 193l6 5.89c.45.45.48.68.09 1.13-1.25 1.29-2.24 1.11-4.6-.68l-.42.47 3.32 2.84 6.48-6.81-3-3.2-.39.39c1.64 2.15 2.06 3.38 1 4.45-.53.6-.71.78-1.31.18l-6-5.88c-.41-.42-.36-.75 0-1.2l.72-.72-.54-.51-3.64 3.92.47.51.66-.75c.45-.45.72-.45 1.14 0zM431.71 200a6.35 6.35 0 011.41 4.34 5.29 5.29 0 01-2 3.76 4.88 4.88 0 01-4.07 1.05 6.93 6.93 0 01-5.23-6.55 5.16 5.16 0 012-4 4.78 4.78 0 014.31-1 5.85 5.85 0 013.58 2.36zm-1.58 1.29c-2.18-2.81-4.06-3.5-5.86-2.06s-1.52 3.46.6 6.24 4 3.5 5.8 2 1.61-3.46-.54-6.21zM419 203.09l-3.87 1.91.3.63c1.34-.69 1.94-.36 2.57 1l2.84 5.94-10.46-5.57-.54.27 3.89 8.13c.62 1.31.62 1.91-.6 2.57l.27.66 3.91-2-.31-.63c-1.43.71-1.91.42-2.6-1l-2.54-5.32 9.3 5 2.78-1.37-.33-.63-.27.15c-.66.3-1.05.39-1.47.09l-3.22-6.69c-.57-1.26-.63-1.85.62-2.57l-.29-.6z" fill="#50d6cc" fill-rule="evenodd"/><path fill="none" d="M291.23 56.04h180.64V235.3H291.23z"/><path d="M381.11 81.29a64 64 0 11-64 64 64.12 64.12 0 0164-64z" fill="none" stroke="#50d6cc" stroke-miterlimit="2.61" stroke-width=".87"/><path d="M430.93 184.42c-.92 0-19.52-21.4-22.79-21.4v-.18H408c0-1.56-2.2-3-.54-5.73l-.18-.06c0-.58.19-2-.72-2 .08-.8.33-1.37.36-2.16h.38c0 1.13.62.71.79 1.23.65-.78.81-1.63 1.95-2l.06.19a6.63 6.63 0 001.17-1.74c.93-.26 1.72-.6 2.37-.79v.22a11.64 11.64 0 002.85-.58l.09-.71h.09l.09-.88h.09c.27-1.5 2.13-1.36 2.22-2.28-.53 0 .46-.61.54-.87.84-.15 1.4-2 1.62-2.37s.31.34.51-.09a12.57 12.57 0 00.81-2.13c.08-.44.06 0 .09 0v-.48a3 3 0 01-1.62-.18.4.4 0 01-.19-.37.1.1 0 01-.05-.07l-.08-1.22c0 1.29-.65 2.17-1.84 3.64-.44.54.85-1.4 1-1.86a8 8 0 000-2.85c0-.06-.17.06-.18 0-.08-.43.06-.84-.18-1.08s-.45-.43.18-.58a3.15 3.15 0 01.14-.73 2.34 2.34 0 00-.55-1.23l-.37-.24c-.17-.08-.3-.13-.33-.31l-.16-.74c-.05-.33-.67-.5-.92-.69-.18-.15-.05-.32 0-.49v-.17l-1.94-.48-1-.91.32-.64a1.32 1.32 0 01-.05-.23c-.19-1.14-.16-.85 0-1.38s-.57.55-.54.06 1-1.23.9-1.74-.47.31-.6.36c-.28.12.38-1.66.48-1.86.42-.85-.23-.75-.24-.87a2.61 2.61 0 01.41-1.78l-.1-.25c-.09.13-.19.23-.31.23s-.06-.35.11-.73l-.25-.64c-.17.12-.33.21-.4.11s.05-.34.21-.58l-.27-.68c-.12.39-.35.67-.69.51s-.14-1.05.25-1.62l-.19-.49c-.24 1-.48 2-.78 1.75s.29-1.5.41-2.69v-.1a2.12 2.12 0 00-.6-1.72s-.28.06-.36-.18c-.3-.9 0-1.06-.72-1.44-.44-.22 0-.23-.18-.36s-.83-.3-1.08-.54-.2-1-.9-.57a1.61 1.61 0 00-.44.31c.2.27-.26.27 0 0a.94.94 0 00-.1-.1 2.93 2.93 0 00-.57-.18c-.14-.06.37-.52-.09-.18s-.09.58.12.69-.62-.13 0 .18a4.49 4.49 0 012.91 3.81c.06.39.19-.31.18 0s-1.94 3.07-2.37 2.73.38-.76.51-1.14a2.28 2.28 0 00-1.44-3.21c-.13 0 .09-.37-.09-.18s.64.88.87 1.08a3.06 3.06 0 01.24 2c-.19.63-4.37 3.2-5 3.27-.22 0 0 0-.93-.18-.6-.14 1.4-.44 1.45-.45.57-.09 4.5-2.9 2.73-3.54-.55-.2-.66 1.42-1.26 2.13-.93 1.08-3.25.85-3.82.75-.84-.15-.83 0-.15.33 2.66 1.33-2.25 1.69-1.62 2.82.43.76 1.42-1 2-1 .89 0-.81.83.33.42.41-.14.57.12 1.29 0s3-.58 3.79-1.41-.16-.1-.54.09-3.69 1.41-4 .75.78-.37 1.45-.42 2.08-1 2.58-.9-.17.11 0 .21.54-.34.9-.21-.21.16 0 .21a4.4 4.4 0 001.59-.42 5.72 5.72 0 013.87.6c.61.57 0 .28 0 .36s.3.06.36.18c.14.28.64 3 0 2 0 0-.21-.81-.36-1.08 0-.06-.69-.29-.75-.36s.06-.29 0-.36-1.13-.32-1.26-.36 1.22-.08 0-.18-4.16 1.23-5.25 1.59-1.23 0-1.6.27a1.52 1.52 0 01-.92.45c-.68.18-.48-.27-.91-.09s-2.43.29-2.16.54c.76.7 4.92 0 5.77-.21 1.14-.22.58.22.75.3s1.71-.21 2-.18-.23.11 0 .18c.43.15 2.19.79 1.77-.51-.15-.47-.23-.24-.29-.09a.05.05 0 010 .07v-.07a.36.36 0 00-.07-.09c-1-1-3.07.16-3.63-.18-.2-.12 5.16-2.42 6.18-.39.06.13.09.56.18.72s.17-.15.21 0c.2.81.32 1.36.39 1.73.09-.09.15-.13.15-.11a1.46 1.46 0 01-.09.6v.12c-.33.85-1.19 1.79-1.91 1.68a10.76 10.76 0 011.65-2c-.41-.79-1.11-2.52-1.2-2.3s-.2.86-.27 1.05c-.76 2.16-5.93 2.16-7.05 1.5-.15-.08.62-.1 0-.21s-1.78-.08-2.37-.18.95-.11 0-.18-4 .41-4.72.18l-.15-.05s-.11 0-.21-.13c-.29-.31 1.12-.46.72-.66s-1.12.19-1.44.12.21-.14 0-.18-.93 0-1.08 0-.07-.46-.51-.18.31.46.54.69-.07 1.58.18 1.83.28 0 .36 0 .26.45.36.54 1.16.48 1.26.72-.22.5 0 .72c.63.63 1.59-.29 2.19-.18a12.89 12.89 0 013.07.36c.41.14-.16.12 0 .18s.5.06.75.18.88 1.14 1.2 1.06h.06c-.07 0-.18 0-.21-.1-.13-.43-.63-1.53.21-1.12.12.07.12.31.36.54s.32-1 .36.19-3.9 2.13-4.57 2 .24-.15 0-.18-1 0-1.26 0 .17-.1 0-.18-2-.51-1.44-.87c-.14.27 5 .09 5.59.09 1 0-.23-.05-.34-.13s0-.16 0-.2-.31-.14-.35-.18.54 0-.19-.36-3.57-.16-4.35-.37c.15-.37-2-.59-2.37-.72s.4 0 0-.17-1.13-.39-1.44-.55-.21-.65-.51-.36 2.26 1.74 2.34 1.78c.76.38 4.25.48 5.43.54s0 .13 0 .17 1.44.12.16.19a32.4 32.4 0 01-4.72-.15c-.47-.15.56 0 0-.18s-1 .49-1.62.18 0-.31-.18-.36-.61-.08-.72-.19-.06-.3-.18-.35-1-.52-.87-.22a11.4 11.4 0 002 1.27c.15.08.13.45.36.57.56.27 3.66.93 3.06 1s-1.37-.58-2-.3 1.8.93 1.89 1 2.3-.35 2.43-.39V131c1.16 0 4.2-1.38 4.18-2.71 0-1-.15.09-.19 0s.05-.28 0-.36-.49-.6.21-.39l1 2.74c.27.33.49-1.25.45-1.44s-.1.26-.18 0-.11-.85-.18-1.09-.27 0-.18-.33.54.26.57.31a7 7 0 01.33 2.55c0 .65-.72 1.23-.69 1.62s.32.07.54.18-.17.2.18.36a2.87 2.87 0 011.65 2.37c.06.27 0-.2.18 0s-2.68 1.16-3.12 1.8.13 0-.36-.15-2.37-.12-3.28-.18.24-.15 0-.18-1 0-1.26 0 .09-.16 0-.18-1.63-.19-1.08-.39.5.53 1.44.06-.47-.34-.72-.39.32-.1 0-.18a3.85 3.85 0 01-1.26-.18c-.69-.27 2.47-.23 2.85-.24s-.1-.06-.15-.12.18-.15 0-.18-.72 0-.9 0 .7-.13 0-.21a29.21 29.21 0 01-4-.54c-.38-.09.37-.11 0-.18-1.52-.32-.58 1.32 0 1s1.14.23.57.45.2 1.46.57 1.65.13.49.18.54.25-.22.36 0 .11 1 .18 1.26.11-.23.18 0 .1.74.18.93-.25-.86.18 0c.32.63.1-.49.22-.9a4 4 0 01-.42-1.75c0-.06-.14.05-.18 0-.23-.26 4 .07 4.74.15.06 0-.06.16 0 .18 1.84.61.28.14-.36.27s-1.71.23-2.55.36c-.07 0 .18 0 .18.09.11 2.49 4 2.83 5.73 1.62.09-.06 0-.35-.06-.33-.45.11-2.12 1.06-2.43.93-.06 0 .06-.17 0-.18-.46-.06-2.47-.45-2-.78.74-.49 1.78.06 2.67 0 .11 0 .31-.2.21-.24-.51-.18-1 .23-1.26.12-.06 0 .06-.16 0-.18a12.15 12.15 0 01-1.8-.36c-.68-.73 2-.4 2.19-.39s-.06.18 0 .18c1.23.1 2.12.5 2.49-.9.05-.19.45-.13.6 0s-.14.43 0 .54 1.2.12 1.44.18c.06 0-.06.18 0 .18.36 0 2.26.24 2.31-.27s-1.18 0-1.44-.06c-.05 0 .06-.17 0-.18a6.48 6.48 0 01-1.8-.18c-.05 0 .05-.15 0-.18s-.26.06-.36 0c-.57-.33 2.35-.26 2.16-.3-2.46-.57-.32-1.17.21-.63.23.23.48 1.07.66.69.41-.85-.38-.86-.69-1-.05 0 .06-.15 0-.18-.58-.29-1.06.25-.84-.93 0-.19 1.64-.31 1.89-.39.06 0 0-.17 0-.18 1.58-.29 3.72-1.78 3.46-3.57 0-.06-.17.06-.18 0-.35-1.24 1.08-.2.9.69 0 .07-.67 1.23-.51 1.26.37.07.93-1 .69.18-.19.87-2.2.94-2.86 1.11s.83 1.12.91 1.26.06.42.17.54.34.13.37.18.08.54.17.72.17 0 .19 0-.06.37 0 .54.18-.06.18 0c0 3.33-2.08 2.8-4.93 2.76-.06 0 .06-.16 0-.18-.23-.06-.48.06-.72 0-.05 0 .05-.13 0-.18s-1-.33-.54-.6.7.17.75.18c.24.06.49-.06.72 0 .07 0-.07.21 0 .21.6.07 1.21-.06 1.81 0h.09l.23-.24c.19-.17 1.69-.2 1.21-.69-.12-.11-.85.61-.4-.75a2 2 0 00-.06-1.41c0-.05-.15 0-.18 0s.06-.25 0-.36a1.88 1.88 0 00-.54-.36c-.21.62.19.47.22.51a6.88 6.88 0 01.17.9c0 .06.18-.06.18 0 0 2.32-3.39 2-4.74 1.11-.05 0-.09-.25-.09-.18 0 .8.37 2.62-.27 3.24s-.45-.12-.57-.15-.43.17-.66.21a6.6 6.6 0 01-6.14-2.21c-.2.24-.48.4.13.48 1.05.14-.41 1-1.11.93s0-.28 0-.36-.1.08-.18 0c-.42-.43-.41-1.44-.54-2.19-.07-.46-.11.2-.18 0-.29-.87.06-.51-.72-.9-.17-.08-.83-1-1.26-.84s.44.22.54.27.1.59.18.72.28-.09.36 0-.05.28 0 .36.31-.06.39.18a15.91 15.91 0 00.54 1.83c.08.16.46.31.33.54-.29.54-1-1.16-1.08-1.26s-.32-.05-.39-.18c-.33-.67-.16-.7-.72-1.26s0 1 0 1 .12-.12.18 0c.58 1.15-1.25 0-.9-.15s.1-1.05 0-1.44c0-.11-.14.14-.18 0a13.29 13.29 0 00-.27-2.16c-.31.08-.18 1.29-.27 1.77s-.33-1.49-.36-1.59-.14.18-.18 0 0-.75 0-.93-.14.11-.18 0c-.11-.34 0-.63-.18-.9 0-.08-.14 0-.18 0a4.79 4.79 0 01-.36-.72c-.06-.12-.25-.08-.36-.18s-.51-.61-.91-1a14.42 14.42 0 00.61 1.71 32.74 32.74 0 011.19 3.72c.3.89 0 8.63 0 9.67s-1.63 8.48-3.57 11.46-5.06 5.95-14.13 8.78c-6.43 2-10.59 1.07-13.16 0h-.08c-.34-.14-.66-.29-.94-.43v.06c-.61.12-.64.09-.6-.35l-.31-.16c0 .6.2.59.2 1.08h.17l.15.54c1.93 1.56 7.92 6.63 8.56 6.91l1.26.18c2.15 0 13.54-2.4 14.08-5.65a5.69 5.69 0 002.19-1.55c.9-.25 1.6-1.66 2.49-1.9v-.33c1.12-.1 3.07-3.42 4.32-3.84.34-1.23 2.5-2.24 2.82-3.42.9-.3 2.95-4.85 3.51-5l.09-.33h.09a6.36 6.36 0 01-1.86 3.39c-.27 1-1.61 1.81-1.89 2.85h-.18c-.08.86-3.55 4.43-4.14 4.59a5.46 5.46 0 01-.93.93 14.91 14.91 0 01-3.24 2.7 27.06 27.06 0 01-4.06 3.27c-1 3.14-13.48 4.69-14.58 4.72l.18.09v.18h.54c0 .11 5.31 4.35 6.15 4.35 0 .09 2.32.29 0 .39v.33a24.09 24.09 0 003.21-.39v-.09c2.25-.72 1.9-.89 2.53-1v-.18c1.45-.06 2.4-1.47 3.72-1.83.14-.42 4.14-1.63 4.38-3.06a8.18 8.18 0 002.19-1.56c.93-.26 1.63-1.65 2.37-1.86-.07.87-3 3.45-4 3.72-.43 1.28-3.69 2.41-3.81 2.79-2.41.65-4.6 2.9-7.21 3.36v.09l-.32.09c3.45.25 5.65-3 8.61-3.57a15.12 15.12 0 012.7-1.74v.15a3.31 3.31 0 00-.54.72 54 54 0 00-7.35 4.44c1.46.18 4.3-2.57 5.94-2.82-.06.76-.91 1.1-1.11 1.83h-.69c0 .8.13.33 0 1.23h-.09l-.06 1.95h.18v1.11h.18v.74h.18c0 .92.31 2-.72 2.25a24.9 24.9 0 01-2.19 1.62c-.29.88-3.06 1.87-4.14 2v.09h-.09c-.56 2.07-1.8 5.34-2 7.38h.18c-.2 1.23-1.2 1-1.2 2 .27-.36.42-.32.84-.36-.1 1.24-2.67 2.55-1.14 2.13v-.09l.57-.06c0 .7-.78 1-.9 1.62h.54c0 .86-.46 1.18-.54 2h.18v.72h-.09a2.8 2.8 0 01-1.35 2.23l.48.05v-.09l.21-.06c0 1.15-.75 1-.9 1.84 3.35-.08 3.37-11.81 3.54-11.32 1.06 3.12-1 7.4-1.38 10.6h-.09l-.06.69h.18v.18c.72-.05 1-.86 1.05-1.45h.21a12.13 12.13 0 01-.18 1.27h.18v.18c.66-.05 1.08-1 1.08-.18 1-.05 1.15-1.38 1.29-2.2h.09v.9h-.09l-.06 1.24c.95-.06.44-.43.87-.58a42.94 42.94 0 00.76-4.32h.28c0 1.77-.63 3.21-.72 4.9 2.19 0 4.12-.64 6.42-.76v-.09a36.92 36.92 0 007.5-1.34c3.13-.74 5.18-1.82 9.71-3.58l12.13-7.52c.58-.06 4.48-3.61 4.52-4a2.73 2.73 0 001.62-1.62c1.05-.09 1.36-1.94 2.13-2a14.52 14.52 0 012.71-3.26v-.66zm-20.6-66.09c-.56 0 .48-1 .93-.75.74.31-.64.73-.93.75zm1.56-.56a9.57 9.57 0 00.41-1.67c.14-.15-.52-2.34-.05-1.6.75 1.16 1 2.49-.16 3.63 0 0-.39-.05-.2-.36zM402 131.21a.1.1 0 010-.07h-.16a2 2 0 01-.72-.06h-.08a.67.67 0 01-.28.13v-.18c0-.02-.92-.19-.48-.21 1-.06.93.12.76.25a2.86 2.86 0 01.95.05c0-.12.14-.23.24-.12s-.15.3-.23.21zm12.49-5.83l.06.12v.06h-.12l-.06-.12zm-.27.18c.62.32.17.72-.36.72-.21 0 .14-.82.34-.72zm-.42 1.08l-.84.9c.28-.24 1.07-1.28 1.41-.6.55 1.1-.61.78-1.86.82v-.19h-.36c-.02-1.07 1.52-2.24 1.63-.93zm-.72-2v.18h-.12l-.06-.12zm-.24.18l.06.12v.06h-.12l-.06-.12zm-.12.3c.19.39-.61.76-.93.45s.64-.96.91-.43zm-7.72 2.61h-.29v-.22l.38.07zm1.83-.77a10.1 10.1 0 00-4.11-.18 6.44 6.44 0 01-5.92-1.57s-.41-.58.08-.24c.83.58 2.69 1.68 3.72 1.68.26 0 1.16-.21.23-.47a12.85 12.85 0 01-2.68-1.1c-.58-.47-.8-.62-.8-.62.19-.44 2.09.23 2.65.21s3.83-.81 5.43.43c1.78 1.37 3.14 2.42 1.41 1.9zm.94-1.37c-1.26 0 2.35-.33 2.22-.21-.94.88-1.17.21-2.21.21zm2.19 7.24c-.87-.12 0-.14 0-.18-.4-.4.32-.19.72-.33.7-.25.16.68-.68.51zm.72-.9c-.67-.14-.37-.15-.15-.16-.36-.72 0-.37-.72-.72-.05 0-.1-.33-.18-.36s-1.07-.3-.54-.39c1.91-.39 2.54 1.82 1.6 1.63zm.32-1.87a9.38 9.38 0 01-1.07-.23c-.17 0-.3.05-.46.05-.3-.92 2.46 0 2.46 1-.01-.02-.93-.8-.93-.82zm3.49 2.41c-.09-.14.21-1-.36-.39-.24.24-.95 1.6-1.47 1.29-.08-.05.9-1 0-.66-1.09.45.46-.72.48-1 .07-1.21-.5.44-.69-.12s.08-1-.18-1.26c0-.05-.14.07-.18 0-.36-.72 0-.37-.72-.72-.08 0 .11-.15 0-.18s-.43 0-.54 0 .21-.18 0-.21a11.25 11.25 0 01-1.62-.18c-.12-.08-.2-.86 0-.88 2.08-.2 3.5-.58 4.92.85.3.3.25 1.07.36 1.65 0 .17.14-.17.18 0 .14.52 0 1.48.3.51 1.03-2.9.31 2.41-.47 1.3zm1.08 17.05c-.13-.14.08-.35.21-.21s-.1.3-.2.21zm.54-7.63c-.12 0 .35-.57.57-.39s-.29.5-.56.39zm.36-1.26c-.08-.1.11-.49.18-.51.97-.34.09.82-.17.51zm.72.72c-.1-.06.33-.49.39-.39a.28.28 0 01-.38.39zm0-1.44v-.18c0-.04-.16.05-.18 0a5.76 5.76 0 01.51-1.35l.09-1.77h.09v-.09l.57-.06v.72h.18v.18h-.09l-.09 1h-.09l-.09.72H418zm2.4-3.3c0 1.61-.6 2.42-1.5 3.84-.23.37.49-1.19.51-1.32a28.58 28.58 0 00.24-3.24c.05-.42.66.72.76.72zm-.69-2.91c.43-.86.56.19.48.57 0 .12-2.35 2.24-2.91 2-.05 0-.25-.45 0-.51 1.47-.35 1.73-.63 2.44-2.06zm-.63-.3c.27 1.6-1.71 1.5-1.62 1.47a2.66 2.66 0 001.5-1.53s.13.02.13.06zm-2.52 1.23c-.57 0-1.34-.12-.18-.57s1.56-.18 2-1.62c.4-1.2.38.67.12 1.08-.35.63-1.87.93-1.93 1.11zm.9 2.16h.39v.36h.18v.72h-.09l-.09.69-1.26 1.32c.83-1.61.85-1.26.88-3.09zm-1.08 7.8c-.05 0-.14.07-.18 0-.73-.59.96-.51.19 0zm-.54-2.16c-.13-.13.08-.34.21-.21s-.1.31-.24.21zm0-2a.84.84 0 01-.54 0c-.69-.21 1.25-.27.51-.01zm-1.47 2.37c-.14-.12.08-.34.24-.21s-.11.31-.23.2zm0-2a1.47 1.47 0 01-.72 0c-.74-.17 1.49-.23.73-.02zm-.9.9a.84.84 0 01-.54 0c-.69-.22 1.25-.27.55-.02zm-1.23-1.26c.05 0-.05.16 0 .18s.26-.06.36 0c.29.16-.53.32-.75.21s-.04-.61.4-.41zM410 141.5c.15.26-.3.73-.57.57-.11-.07.5-.68.57-.57zm-.18-1.26c.15.25-.3.73-.57.57-.11-.06.5-.68.57-.57zM394.57 133c-.13-.14.08-.35.21-.21s-.11.31-.21.21zm.88 1.28a.46.46 0 01-.05.1c-.13 0-.2-.2-.3-.25s0-.08 0-.1.26-.11.38-.11.08.18.08.31zm1.68 3.51c-.13.67-.51-.29-.53-.45-.16-1.86.62.03.53.46zm-1.46-2.88c.37.37.35 3.49 1.11 3.49.05.17.9 1.55 1.36 1.24s.32.25.58.48.7.19.78.43c.62 1.73.41.35.61.27.68-.29 1.25 1.6.68 1.24-.16-.09-.09-.56-.31-.56-1 0 .14.32-.15.61s-1.34-1.64-1.94-1.64c-.39 0 .89 1.92.18 1.92-.46 0-.43-2.22-.83-2.22-.11 0-.36-.34-.43-.28-.36.28 1.11 3.7 1.31 3.91s1.48 1.21 1.21 1.29c-2.23.65-2.12-4.44-3.08-4.44-.5 0 .59 1.33.18 1.66s-.87-2.46-.85-2.95c0 0 1.05.64.83-.23-.06-.2-.31-.38-.36-.56-.38-.1-.63-.58-.9-.8v-2.86zm5.31 8.34c0 .05-.11 0-.14 0-.41-.43.27-.43.16.01zm-.47 1a.78.78 0 01-.5 0c-.11-.17-1.84-1-1.19-1.44.48-.29.74.7 1.19.84s.5.02.5.64zm-1.8 1.29c-.06-.12-.89-.77-.62-.81.77-.07.64.89.62.85zm-1.22-.33c-.48.24-1.81-2.9-1.46-2.9.63 0 .87 1.79 1.12 2.26.05.14.7.5.34.68zm-1.62-1.44c.54-.5.24 2 1.31 2.17.51.09.49 1.25 1.42 1.57.12 0 .08.32 0 .4s-4.12-2.77-2.73-4.1zm-.95 9.32c-.06-.06-.18-.3-.1-.38a3.11 3.11 0 01-.38-1.16c.37 0 .45 1 .65 1.24a.82.82 0 01.07.25.72.72 0 01-.24.09zm.8-.48h-.1c-.21-.34-.13-1.17-.43-1.36 0-.24-.32-.45-.32-.76.42 0 .77.85.83 1.19.1-.07.07.87.02.97zm.88-.25c-.22-.46-.55-.84-.52-1.27s-.61-.75-.73-1.18c-.06-.2 0-.53-.08-.71v-.05c.13.04 2.06 3.25 1.33 3.25zm1-2.22c-.11-.29-.68-1.11-.68-1.27a.15.15 0 00-.13 0c0-.3-1.71-1.82-.9-1.82 1.34 0 2 1.66 2 3.08zm1-.53a.91.91 0 00-.2-.38c0-.17-.37-.49-.25-.61.37-.19.73.75.73 1zm3.08-5.36c-.08.23-.44.41-.53.66s-.08.68-.36 1c-.43.44-1.28.82-1.28 0h-.18a.9.9 0 01-.25-.08c-.8-.64 1.51.08 1.64-.63.06-.33-.06-.76 0-1.08s1.03-.23.9.17zm.22-2.72c.15 0-.69.25-.25-.31s.26.28.18.28zm6.69 2.09c.09.1-.12.31-.21.21s.01-.3.15-.17zm-5.29-3.06c.13-.24.37.34.4.36s.6.22.75.36-.06.16 0 .18.25-.05.35 0 0 .16 0 .18c.7.35 2.41.57 3.19-.21.53-.53.54.2.21.39-.68.38-1 .91-2 .75-.06 0 0-.17 0-.18a5.53 5.53 0 01-1.26-.18s-.13-.33-.18-.36-.26.05-.36 0 .05-.15 0-.18c-.33-.1-1.4-.62-1.16-1.07zm1.84 4c0 .06-.14.07-.18 0-.77-.56.49-1 .12.03zm-.18 9.4c-.14-.16.08-.38.2-.24s-.16.37-.26.28zm0-11.05c.09.1-.12.31-.21.21s.04-.31.18-.18zm-1.69 8.35c0 .05-.1 0-.12 0-.39-.15.28-.79.09.03zm-.17.06c.06.05 0 .36-.07.33-.27-.08-.29-.55.04-.3zm-11.8 15.36c1.4-.38 3.06-3 4.5-3.9a16 16 0 002.25-2.67c.46-.15 4.84-5.91 5.43-8.1h.09v-.09l.24-.06v.54h-.18v.33h-.09c-.49 1.77-2.59 4-3.52 5.52-.73.25-1.2 2.16-1.92 2.4-.67 1.12-2 1.84-2.61 2.85-1.25.42-2.58 3-3.78 3.36a2.24 2.24 0 01-1.05.63l-.06-.12a3.28 3.28 0 00.7-.69zm8.58-2.76c-.54-.27.42-1.13.69-.93s-.14 1.21-.69.93zm-.06 3.45c-.13-.13.08-.34.21-.21s-.11.31-.21.21zm-1.59.15c-.42-.21.19-1 .48-.66a.42.42 0 01-.48.66zm-.6 3.67l.06-.21h.09v-.33c1.22-.03-.27.96-.15.54zm1.14-4.39c-.18-.23.33-.3.15 0-.02.04-.12.04-.15 0zm.15 2h.21v.18h-.18zm-.84-2.16c-.54.55-1.86 1.31-2.07 2s-6.14 5.26-6.81 5.26l-.06-.12a.63.63 0 00.36-.45 6.48 6.48 0 002.13-1.47c2.49-2.49 6.19-4.63 7.89-7.75l.12.06a10.91 10.91 0 01-1.56 2.48zm-9.66 7.9c0 .21-.18.11-.33.06s.29-.26.33-.05zm-.51.24c-.11-.08.12-.23.15-.06s-.06.14-.15.07zm-.06-1l.06-.42h.09v-.09c1.58-.7 10.53-8.64 11.07-10.15l.33-.09v-.09l.15-.06c-.61 2.84-8.77 8.13-8.94 9.1zm.75.63c0 .16 0 .13-.15.06s.12-.27.15-.1zm.21-.18c0 .17-.06.13-.18.06s.15-.29.18-.1zm.36-.18c0 .21-.18.11-.33.06s.29-.31.33-.11zm11-11.86a.42.42 0 01-.48.66c-.41-.25.2-.99.49-.7zm.75 3c.11.29-.11.9-.39.57s.36-.69.4-.58zm-.45-3.24h-.12c.07-.33.71-1.83.9-1.35s-.43.79-.77 1.34zm1 1.47c.85-.29.1.55-.18.36-.1-.06.14-.36.15-.37zm-.12-2.94c-.56-.28.16-.62.51-.72s.02.99-.54.71zm-12.51 11.32a2 2 0 01-1 .48c.28-1 2.49-1.6 2.73-2.32 1-.26 2.37-2.42 3-2.64.16-.48 3.1-2.18 3.48-3.33.38-.22.67-.89 1.05-1 .05-.18 3-4.11 3.09-4.14.12-.23.32-.31.45-.54 1.22.56-10.21 12.76-12.83 13.48zm.33-1.65c.1.15-.13.23-.18.15s.01-.3.15-.16zm.21-.12c0 .16 0 .13-.15.06s.09-.24.12-.09zm9.57-8.83a6.5 6.5 0 00-1.47 1.8c-.24.48-1.75 1.22-2.07 1.86-.39.8-5.15 5.05-6 5.05l-.06-.12a22 22 0 003.21-2.83c.27-.27.74-.56 1.08-.9a9 9 0 012-1.8c.42-.21.95-1.21 1.35-1.62a12.12 12.12 0 002.55-3.06 25.16 25.16 0 013-3.57 33.26 33.26 0 01-3.62 5.18zm4.38-6.69l.12.06c0 .35-.44 1.57-.84 1.38s.46-1.01.69-1.45zm-12.75 13c.65.11-2.3 2.22-2.7 2.23s2.02-2.31 2.67-2.22zm-2.7 3.34c.16-.2.16.24.06.12s-.26.09-.09-.11zm0 .18c.1.15-.13.23-.18.15s.04-.3.15-.18zm0 3.81c.1.15-.13.23-.18.15s.04-.3.15-.14zm-.33-3.69c.11.11-.1.32-.21.21s.06-.36.18-.2zm-.39-1c.16-.2.16.24.06.12s-.22.07-.09-.13zm0 .18c.1.15-.13.23-.18.15s.02-.32.15-.16zm0 3.93c-.21.36-.45.3-.72.21s.89-.58.69-.22zm-.16-2.86c.16-.2.16.24.06.12s-.28.08-.06-.12zm0 .18c.1.15-.13.23-.18.15s.03-.31.18-.15zm-.18 1.56c-.21.34-.34.33-.54.21s.72-.56.49-.21zm-.54 1.65c-.3.16 0 .09-.3 0s.54-.16.25 0zm-.33-2.55c.09.11-.09.32-.18.21s.03-.33.13-.21zm-.72 2.94c-.2-.12-.4-.16.18-.33s-.04.44-.23.33zm0-1.29c.11.11-.1.32-.21.21s.07-.33.19-.21zm-1.5 2.76c.63-.2.19.4-.12.3s-.54-.1.1-.3zm-.15.42c0 .22-.21.18-.4.09s.38-.31.38-.09zm-.37-3.18c.12.11-.09.32-.2.21s.07-.33.18-.21zm-2.73 5.28c-.11-.11.1-.33.21-.21s-.11.32-.23.21zm1.62-.39c-.49.14-.22.15-.72 0s1.2-.14.7 0zm0-1.08c-.11-.11.1-.33.21-.21s-.11.32-.23.21zm.72.75c-.16-.11 1.11-.71 1.15-.48s-.97.59-1.17.48zm13.12-8.34c-.66 1.33-2.7 1.95-3.69 2.94-1.89 1.88-3.46 2.47-5.79 3.63-.82.41-1.57 1.17-2.47 1.17l-.05-.12 4.11-2.34a9.44 9.44 0 002.35-1.39c1.24-1.25 3.05-2.1 4.32-3.36.79-.8 2.32-2.86 3.42-3.07l.06.12a1.45 1.45 0 00-.57.78 17 17 0 00-1.71 1.64zm.51 2.67h.09v-.09l.39-.06v.36l-.33.09v.09h-.18zm-1.14 1.65h.39v.18h-.36zm-.33-1.29c-.07.85-.68 1.11-1.44 1.11l-.06-.12a4.83 4.83 0 011.52-.99zm-.72 2.91v.18h-.75v-.21zm-.81-1.8l.06.12v.06h-.12l-.06-.12zm-.18.18l.06.12v.06h-.12l-.06-.12zm-.3 2.7c.39 0-.32.85-.93.57s.51-.53.96-.57zm1.62 4.23c1.52-1.52 4-3.17 4.95-5.13.22-.45 1.54-1.14 2-.72 1.29 1.29-1 1.86-1.8 2.25-.5.25-.26.29-.57.66s-.72.28-1.08.63c-.82.83-1.56 1.62-2.37 2.43-.63.63-.4-.43-.72.54-.24.74-.66.31-1.05.57s.23 2.55-1.5 2.19c-.05 0-.17-.34-.18-.36-1.56-1.48 1.66-2.42 2.3-3.06zm-4.17 8.5c.13-.47.69-1.82 1.11-1.3s-1.26 1.76-1.13 1.3zm.36 1.26v-.39h.33v-.09c.82-.27-.35.93-.35.48zm.21 5.76c.34-.1-.27 1.15-.57.75s.21-.63.58-.75zm-.39-.87l.06-.39h.09v-.33c1.06-.03-.22 1.01-.17.71zm.18-1.8c-.43-.18.58-1.32.75-.93s-.34 1.11-.77.93zm-.18-1.29l.06-.39c.09 0 1.08-1.5 1-.36s-1.15 1.18-1.08.75zm-.18-4.51c-.2-.4.88-1.72 1.29-1.5s-1.11 1.91-1.31 1.5zm0-3.45l.06-.75h.09v-.09l.33-.09v-.09c1.21-.21-.53 1.32-.5 1.06zm1.29 0v.54c0 .49-1.17 1.54-1.08.93a2.2 2.2 0 011.06-1.5zm-.51-6.15h.09v-.09l.39-.06v.36h-.54zm-1 4.56c-.42-.47.33-.71.75-.78s-.31 1.22-.73.75zm-.18-1.29v-.57h.33v-.09c1.26-.25-.35 1.01-.35.63zm.93-2.19c.22.31-.38 1.36-.93.75s.73-1.09.98-.78zm-1.83 21.22c-.2-.28-.69-.6.36-.69s-.14.94-.34.66zm-.54-10.17s.42-.1.18.36h-.18c-.01 0-.5 2.44-.57 1.83s.46-3.32.57-2.94c.08.22-.04.49.02.72zm0-3.1c1.54-.36 0 1.84 0 1.32-.01-.16-.16-1.31-.01-1.35zm-.51.57a3.91 3.91 0 01-.57 1.48c-.05-.36.01-1.77.56-1.51zm-.54 2.89a9.51 9.51 0 01-.39 2.55c0 .05-.18.08-.18 0a8.42 8.42 0 01.24-2s.24-.97.32-.58zm-.75-2.47c.81-.5-.14 2.1-.36 1.42a2 2 0 01.35-1.45zm-.36 3.73a7.26 7.26 0 01-.69 2.22c.04-.43.75-5.28.68-2.25zm-.69 7.47c-.12-1.22.34-1.18.15 0-.02-.03-.16-.03-.16-.03zm0 .69c0 .05-.17.08-.18 0-.27-.79.45-.82.17-.03zm.33-1.62c0 .06-.1 0-.12 0-.38-.21.29-.85.11-.03zm-.51-9.6c1-.9-.46 4.57-.54 4a17.37 17.37 0 01.53-4.03zm-1.62 5.07c0 .06-.13 0-.15 0-.49-.27.32-1.99.14-.03zm-.21.54s-.17.08-.18 0c-.19-.8.39-.68.17-.03zm-.15-4.53s-.32 1.17-.51 1.08-.06-1.75.5-1.11zm-1.42 10.86s.25-.9.34-.54c.37 1.54-2.8 1.33-.35.51zm-.78 4.53c-.16.3 0 .33-.18 0s.34-.33.17-.03zm.19-.54c-.16.67-.05.69-.19 0s.32-.69.18-.03zm0-1.23c0-.18-.11-.48.05-.57 1.71-.91-.06.56-.06.54zm.9 2.49c0 .06-.17.09-.18 0-.28-.78.45-.81.17-.03zm.17-1.08c0 .06-.16.09-.17 0-.27-1.03.45-1.06.16-.03zm.37-2.16c0 .05-.16.08-.19 0-.27-.54.47-.57.19-.03zm.17-2c-.13-.13.08-.34.21-.21s-.12.3-.22.2zm.37 5.76c0 .06-.11 0-.12 0-.42-.21.29-2.02.11-.01zm.39-1.8c0 .06-.17 0-.19 0s-.14 1.22-.2.72a18.48 18.48 0 01.18-2.37c0-.05.16 0 .18 0s0-.36 0-.51c.3-.62.04 2.03.02 2.15zm.05-11.76c-.24-.12.35-3.06.77-3.26s-.32 3.47-.75 3.25zm.13 9.45a6.09 6.09 0 01.17-2c.72-.97-.15 2.55-.18 1.99zm.89-9.1c0 .05-.16.08-.18 0-.27-.52.47-.55.18 0zm.54 7.41c0 .05-.17.08-.18 0-.26-.76.46-.79.18 0zm.29 2.39l.58-2.93c3.9 0-1.63 8.27-.58 2.93zm2.74 1.84c.89-.28-1.8 2-1.8 1.23s.9-.94 1.8-1.23zm-2.34 2.71c-.69-.63 2.08-1.12 2.58-1.15s-1.9 1.8-2.58 1.15zM388 205c-1 .58 1.73-2.37 1.68-1.44s-.68.91-1.68 1.44zm1.29-2.16c-.1.61-1 1.22-1.29.57s2.27-2.69 2.22-1.68-.8.55-.9 1.15zm.72-3.42l.06-.57h.09v-.09l.33-.09v-.09l.39-.06c.04.65-.88 1.37-.88.94zm10.17-3.57c-1.93 1.18-5.76 3-7.2 4.47-.28.83-.53 2-1.78 1.53-.51 0-.48-.57-.41-1 .55-.18.36-.78 1.53-.93 2.39-1.2 4.76-3 7.08-4.35 1.15-1.15.59-1.87 2.59-1.6.64 1.28-.74 1.81-1.78 1.92zm1.82-34.09c-.13-.13.08-.34.21-.21s-.13.31-.21.21zm-.12-3.48c-.61-.31.29-1.22.84-1.38s-.24 1.69-.86 1.38zm.67 1.68c-.11-.06.32-.5.38-.39a.28.28 0 01-.4.43zm.71-2c-.05 0 .29-.89.4-.57s-.01.8-.42.61zm.24-3.45c-.29-.14.45-1.5.55-1.23a1.94 1.94 0 01-.57 1.22zm.87 37.52c-.22-.11.18-.32.39-.21s-.18.31-.41.18zm.37 3.27c-.12-.12.09-.33.21-.21s-.12.31-.23.2zm.18-1.44c-.28-.17.59-.14.3 0s-.05.14-.32-.01zm.36.09c-.06-.09 0-.27.12-.12s-.09.17-.14.11zm.36-40.64c-.06-.1.05-.26 0-.36s-.53 0-.18-.21c.72-.41.31.85.16.56zm.36-9.79c-.29-.11 0-.69.21-.57.05 0-.06.16 0 .18s.51-.14.33.18a.46.46 0 01-.54.2zm1.11.72c.28.19-.23.62-.57.39s.18-.63.55-.4zM413.6 169c.11.12-.09.33-.21.22s.09-.34.21-.22zm0 6.7c.11.11-.09.32-.21.21s.09-.34.21-.22zm-.09 10.3c-.29.12 0 .2-.3 0s.6-.1.3 0zm-1-5.4a.14.14 0 010-.21c.54-.29.49.47-.02.22zm-.06 4.86a1.72 1.72 0 01-.66 0c-.14 0 .53 0 0-.18s-.79-.54-.15-.39-.06.15 0 .18 1.1.34.79.4zm-.12 1.83c-.17 0-.16-.09 0-.21s.15.27-.02.22zm-.36-3.6c-.08 0 0 .22-.36 0s1.25 0 .9.15a.62.62 0 01-.54 0c-.14.01.03-.1.03-.14zm-.54-7.08c-.22-.11.17-.32.39-.21s-.19.33-.41.22zm1.2 8.85c.1.15-.06.21-.12.12s0-.25.1-.11zm-.09-11.94c.11.11-.1.32-.21.21s.07-.32.19-.2zm-.18 6.69c.22.12-.35.36-.57.21s0-.59.21-.39c0 0-.05.15 0 .18s.24-.04.34.01zm-.18-6.9c.11.13-.1.37-.21.24s.03-.37.19-.23zm-.39 1.86c-.34-.14-.45-.25-.18-.39s.5.54.16.4zm-.33-3.66c.21.1-.17.31-.39.21s.16-.31.37-.2zm0 3.09c.21.11-.17.32-.39.21s.16-.31.37-.2zm-.27 15.4c-.31 0-.11.08-.3-.06s.58.06.28.06zm-.48-.15c-.17-.05-.16-.1 0-.21s.15.26-.02.22zm0-10.18c.09.1-.11.31-.21.21s.09-.33.22-.2zm-1.11-2.19c-.4.08-.24 0-.54-.06s.94-.01.55.07zm-.87 6.54c.34-.09.24.29-.06.12s-.27-.01.07-.14zm-.42-.06c-.19-.14.6 0 .3.06s-.1.1-.29-.02zm.78 1.68c.11.12-.1.33-.21.21s.12-.31.22-.2zm.36 3.46c.21.1-.17.32-.39.2s.18-.3.4-.19zm-.45-11.8c-.32.11 0 .19-.33 0s.65-.1.33.01zm-.75 6.54c-.37 0-.21.06-.48-.06s.86.03.49.07zm-.09 4.71c.11.12-.1.33-.21.22s.1-.32.22-.21zm-.39-1.44c-.12-.11.09-.32.21-.21s-.09.34-.2.22zm-.06-3.45c-.3.12 0 .2-.3 0s.59-.1.31.01zm-.24 4.71c.31-.09.21.29-.06.13s-.25-.02.07-.12zm-.42 0c-.19-.15.6 0 .3 0s-.1.1-.29-.04zm.21-15.37c.11.11-.1.32-.21.21s.1-.37.22-.21zm0 10.35c.11.12-.1.33-.21.21s.1-.36.22-.25zm-.36-.21c.11.14-.1.38-.21.24s.1-.38.22-.28zm.18 5c.22.12-.19.29-.39.18s.17-.38.4-.27zm.15 3.79c-.42-.28.19-.48.39-.39s.03.57-.38.3zm.54 5.25c-.12-.12.09-.33.21-.21s-.09.23-.2.12zm1.11-2.7c-.17 0-.16-.1 0-.21s.18.16.01.12zm.18.09c-.19-.14.6 0 .3.06s-.1-.01-.29-.15zm.54.45c-.28-.14-.42-.3-.12-.39s.4.43.13.3zm.54 1.59c.15-.11.16.26 0 .21s-.14-.19.01-.3zm.36.57c-.28-.14-.42-.3-.12-.39s.4.44.13.3zm.36.09c-.19-.14.6 0 .3.06s-.1-.01-.29-.15zm.57.12c0 .1-.17.19-.21.06s.19-.25.22-.15zm0 .24c-.27-.16-.26 0 .06-.12s.19.19-.08.03zm.54.27c-.17-.05-.16-.1 0-.21s.15.17.03.12zm-1.08-2.16c-.14-.07.71-.06-.18-.36s.49-.11.75.15-.2.11 0 .18.79 0 .73.3c.34 0-.16.45-.05.07-.23.02-1.04-.32-1.27-.43zm.54-2c.16-.11.17.26 0 .21s-.18-.2-.02-.31zm.3.18c.09.14-.06.21-.12.12s0-.37.1-.22zm.42 4.2c-.06-.08.15-.3.18-.09s-.15.07-.2-.03zm.18.09c0-.13.18-.16.21-.06s-.19.09-.23-.04zm.18.18c-.06-.09 0-.26.12-.12s-.08.11-.14.02zm.54-5.37c-.42-.18.24-.06 0-.18s-6.62-2.84-6.15-3.09-.14.1.75.36 4.33 1.79 5.07 2.16a1.22 1.22 0 01.29.17h.07c.06-.05.37.65-.08.48zm-.36-2.16c.27.2.22.22.11.19s0 0-.11 0c-.27-.14 0 0 .11 0-.07-.21-.62-.66-.13-.29zm.72.31c-.62.3-.22-.49.12 0 .13.14-.25.11-.14-.1zm0-3.23c-.11 0 .27-.08 0-.17s-.54 0-.9-.27 1.05 0 1.11.06 0 .15 0 .18c.5.26.26.26-.23.1zm.51-1.65c-.32.05-.12.08-.33-.06s.63-.08.31-.04zm.72.18c.14.22-.22.2-.13 0-1.05.15-.2-.57.11-.1zm-.12 2c-.11 0 .46.05 0-.18s-.15-.44.21-.24-.08.17 0 .22.15-.12.36 0-.48.17-.59.14zm.9-17.4l-.19-.18c0 .18 0 .37-.17-.18-.28-.92.81.69.34.29zm.36 16.11c-.22-.11.18-.31.39-.21s-.17.26-.41.15z" fill="#50d6cc"/><path d="M410.58 131.76h.11c-.01 0-.07-.01-.11 0zM416.1 123l-.36-.91a1.13 1.13 0 00.29.91h.07zM420.07 135.34a.11.11 0 010-.08 1.37 1.37 0 010-.23l-.07.05c.05.1.09.2.13.3zM420.66 137.4v-.19c-.07-.84-.16-.92-.27-1a6.07 6.07 0 01.27 1.19zM414.31 115.44c-.09-.13-.18-.1-.26 0zM415.21 170.66s-.12 0 0 .17zM412.7 192.35zM413 192.34h-.2c.1.04.26.06.2 0z" fill="#50d6cc"/><path d="M355.4 188v-1.84h-.18c0-.05-12.92 7.61-14.38 8.43 2.63 1.31 8.48 5.77 11.63 7.24l.26-.66h.09c.5-2.84 2.14-5.18 2.46-8.28h.09l.09-3.06h.09v-1.74zm-4.53 5.83c.26.21.33.79.06.57-.07-.07-.27-.76-.06-.58zm-2.67 1.11a5.08 5.08 0 01-.36-.75c.59-.33.61.95.36.74zm-3.06 2.16c-.06 0-.05-.18 0-.21.24-.18.26.27 0 .2zm.18.09s.09-.17.12-.12c.14.21-.04.24-.12.11zm1.26-2.43c-.06 0-.05-.18 0-.21.24-.18.26.27 0 .2zm.18 1.26a.14.14 0 010-.21c.56-.31.49.44 0 .19zm.36-.36a2.6 2.6 0 01-.33-.9c.12-.44.84 1.32.33.89zm.36 2.73c-.06 0-.05-.17 0-.21.24-.18.26.27 0 .2zm.36.54c-.07-.06-.27-.75-.06-.57s.33.79.06.56zm.18-1.83s-.45-.84-.36-.93c.4-.41 1.18 1.26.34.92zm1.11-.72c-.22-.55.44-.58.15 0-.02 0-.14.03-.15-.01zm.36.54c-.07-.06-.27-.75-.06-.57s.33.79.06.56zm.36-1.8s-.4-1.11 0-.75c.28.2.15 1.01 0 .74zm.54-1.62c-.06 0-.05-.18 0-.21.24-.19.26.27 0 .2zm.18.36c-.16-.46.3-.56.15 0-.01 0-.14.03-.15-.01zm.18 2.52c-.06 0-.05-.18 0-.21.25-.17.25.27 0 .2zm.18.09c0-.05.08-.17.12-.12.15.21-.05.24-.12.11zm.36-3.72c-.06 0-.05-.18 0-.21.24-.19.26.27 0 .2zm.36.75a3.68 3.68 0 01-.15-.75c.13-.52.91 1.44.15.74zm1.08 3.21c0 .05-.14.06-.18 0s-.14-.32-.18-.36c-.67-.65.63-.17.36.35zm.72-5.22c-.06 0-.05-.18 0-.21.24-.18.27.27 0 .2zm.18.09c-.06-.07.17-.21.24-.12s-.11.26-.24.11z" fill="#50d6cc" fill-rule="evenodd"/><path d="M398.32 124c-.12 0-.45 0-.12.12.06-.06.09-.12.12-.12zM398.35 123.94s.02.06 0 0zM413.16 139.24c-.13.18.08.07 0 0z" fill="#50d6cc"/><path d="M414.48 116.29a13.06 13.06 0 00-3.07-4.29l-2.7-3.63c-.42-.09-3.78-5.25-6.93-5.25-.27-1-3.76-3-4.5-3.43a23.21 23.21 0 01-3.77-1.54c-1.46-1.47-8.84-2.71-12-3-3.73.84-2.11 0-5 1.16a20.81 20.81 0 00-10.42 3.32c-2.15 1.55-3 3.1-5.14 5.17a23 23 0 01-1.5 1.77c-1.28 1.79-.7 1.29-2.2 3.35-3.05 3.11-2.49 6.58-4.17 9.27l-.13 2.47" fill="none" stroke="#50d6cc" stroke-miterlimit="2.61" stroke-width=".67"/><path d="M357.21 110.84c-.54.38-3.13 5-4.28 10.78-.08.4-1.53 1.69-3.71 5.4-.07.11-.44 1.91-.57 2a20.26 20.26 0 00-.89 2.41c0 .29-.8 1.07-1.18 1.9-.27.61-.29 1.33-.5 1.46 0 .08-.21.46-.48 1a35.13 35.13 0 00-2.29 5.08c0 .77 2 5.42 4.93 6.89a6.36 6.36 0 00.49 1.74c1.3 1.61 5.14 2.44 5.5 2.74.33.66.45.39 1.07 3s2.39 8.45 7.09 9.74c.64.18 1.94 2.72 1.94 2.72s-7.62 1.56-7.62 3.32c0 2.66 1 5.47.09 8-1 2.75-1.8 4.19-1.71 6.91-4.69 2.72-9.71 5.83-14.48 8.76" fill="none" stroke="#50d6cc" stroke-miterlimit="2.61" stroke-width=".67"/><path d="M399.37 105.53c-.37.46-.68 1.27-1.42 1.27-.25-.25-.21-.69-.44-.85a1.74 1.74 0 01-.73-1.65c.26 0 .3.39.44.5.61.46 1.13-.21 1.49-.58 1.58 0-.56-2.47-.56-2.92.66 0 1.72 2.17 1.72 2.92.32.21 1.5.58 1.5 1.17a.26.26 0 01.12 0 4.28 4.28 0 01-.88.27c-.08 0 .1.35 0 .35 0-.52-1.31-.56-1.61-.56l.37-.06zM360.64 153.75v.18l-.6.21-.04-.14h-.18l1.77-.69v-.09a14.17 14.17 0 012.7-.42c.57.57.94.27 1.8.18v.18c.77-.1 3.41-.77 4-.18.39.39-.08-.47.72-.18v.18a5.66 5.66 0 001.26.18c.17 0-.18.14 0 .18 1.9.11 2.61.3 4.53.3v.18h.36v.18h.18v.18h.18l.06.18h.09l.06-.36h-.18v-.18h.33v.18h.18v.18h.14v.3h-.06l-.06-.18h-.36l-.06.3h-.48v-.18h-.18v-.18l-1.29.06-.09.12-.06-.18c-.48.05-.93.46-1.26.36-.58-.18.3-.48-.27.15-.39.42-.31-.75-.54.18 0 .2-.28-.34-.3-.33-.36.13-.45.46-.72.18s0-.82-.75-.54c-.24.08.62.42.33.87s-.43-.46-.48-.51-.15.11-.18 0 .15-1-.57-.54c-.43.29.34.51.36.57.16.71 0 .9-.33.15-.05-.08-.33-.07-.36-.18s.08-.42 0-.54c-.4-.59-3 .34-3.4.18-.06 0 .05-.32-.27-.12s-1.36-.08-1.26.63c0 .27.45-.3.63-.3s-.13.36.09.36.65-.45.9-.36c1 .36-1.09 1-1.41.87-.06 0-.25-.81-.57-.54-.08.07.08.25 0 .33-1.07.76.23-.85.06-1.05-.66-.79-.54 1.38-1.29.9-.91-.59.82-.18-.48-.18-.26 0-.08-.71-.45-.48-.58.36-.18-.14-.33-.24l-1.83-.39zM361.46 146.21V146h-.18l.06-.51c.29.58 1.22.45 1.71.54.17 0-.08.1 0 .18s.46.14.55.18.07.33.2.36c1.6.39 3.17-.85 5.08-.72.34 0-.26.35.36.15a8.32 8.32 0 011.8 0c1.84-.19 2.08-2.23 1.47-3.45-.1-.2-.13.1-.18 0a3.12 3.12 0 01-.36-1h.33c0 .28.31.26.36.36.6 1.22 1.69 2.72 1.62 4.29a1.23 1.23 0 00-.36.36c-.4.21-3.17 1.67-3.57 1.48-.05 0 .19-.13 0-.19-.52-.15-3 1.26-3.27 1.12-.09 0 .17-.15 0-.18a10.4 10.4 0 01-3.25-1.3s-.2-.35-.2-.36c-.82-.26-1.29-1.08-2.17-1.08zM381.93 134.27l1.05-.93c.43-.14.72-1.5-.21-.57-.36.36-2.59.63-1.2-.06l1.09-.81c0-.05-.15.08-.18 0s.13-.29 0-.36c-.59-.31-.83.7-1.33.87-.9.3-3.21.54-3.57-.87-.16-.65.33-2.29-1.11-.84-.05.05-.14.24-.21.27-1.12.37.41.81 0 1.08s-.56-.29-.66-.33c-.49-.25-2.25.2-2-.51.16-.4 4.54-2.2 5-2 .11 0-.21.16 0 .21s.9 0 1.11 0-.11.14 0 .18a19 19 0 012.52.9c.08 0-.08.14 0 .18s.53.08.72.18.07.32.18.36l.94.18c.08 0-.08.14 0 .18 1 .52.16.14.36 1.08 0 .12.14-.07.18 0 .28.57-.52 0-.67.33a2.2 2.2 0 01-2 1.29zM358 133.52c-.2 0 .12-.14 0-.18a8.94 8.94 0 01-.9-.18c-.08 0 .15-.15 0-.18-.43-.11-1.29.17-.75-.9.68-1.37-.83.29-1.41 0s2.69-1.72 2.85-1.8a11 11 0 01.93-.63 5.82 5.82 0 013.42.12c.12 0-.08.14 0 .18s.28-.09.36 0-.08.27 0 .36.47.11.54.18.1.32.18.36c.24.12 1.54.51 1 1.05-.77.78-.55-1-1.38-.21s-3.71 1.38-4.11-.33c-.07-.33.22-1.57-.6-.75-1.48 1.48 1.67 1.82.93 2.16s-1.73-1-2-.69c-.41.41.47.53.54.57s.07.32.18.36.43 0 .54 0-.12.14 0 .18c1.13.35.7.47-.33.33zM413.06 137.69l.06-.51h.09v-.9h-.18v-.18h-.18v-.18h-.18v-.18h-.18v-.18l-.18-.09.33-.06v.18h.18v.18h.18v.18h.18v.18h.18v.54h.18c0 .28-.14 1.05-.51 1.05zM384.12 155.76a.43.43 0 00-.39-.36v-.51l.7.84h-.31zM381.57 156.12l.06-.51.24.48-.3.03zM383 156.66l-.17-.69c.45 0 .5.22.47.66h-.3zM381.39 157l-.18-.18c.1-.51.33-.14.3.15h-.12zM382.1 158.33c-.31-.11-.54-.21-.17-.56s1.19.89.17.56zM382.84 158.67c.73 0 1.16.43.41 1.08-.12.11-.54-1.08-.41-1.08zM381.76 160.16c-.2 0-.72-.6-.25-.6s1 .53.25.6zM368.1 165.51c-1.23-.15.35-.79.21-.48l-.21.48zM366.54 165l.06-.33h.09v-.09c1-.17-.23.73-.18.45zM364.92 165.18l.06-.33.09-.03.03-.09h.33l-.51.45zM385.75 125.11h.3l-.03.14-.27-.14zM386.8 125.74c-.37-.46.33-.51.12 0 0 0-.1.06-.12 0zM396.4 134.27c0-1.08-1.29-2.5-1.62-2.91-1-1.22-.31-.07-.36-.18a5.23 5.23 0 00-.54-.9h-.39c-.09 0-.44-.67-.54-.72a18.78 18.78 0 00-1.8-.9c-.35.1-.49-1.44.15.18s-.47 0-.87-.21-1.16-.41-1.44-.54 0-.29-.18-.36-1.86-1-1.65-1.18.27.19.51.3a19.48 19.48 0 002.55 1.09c2.69.88-3.24-1.81-2.7-2.35.28-.27 2 1 2.16 1.08s-.11.13 0 .18c.37.19.63.24.9.37s.86 1.15 1.08 1.26c1.44.71 2.28.91 3.09 2.55 0 .07.91.2 1.08.72a7.67 7.67 0 01.69 2.49h-.12z" fill="#50d6cc" fill-rule="evenodd"/><path d="M391.15 131c-.27-.77-3.3-3-3.21-3.06.24-.25-.22.09.09.18a7.77 7.77 0 011.29.36c.3.15-.26.14.18.36a2.58 2.58 0 011.65 2.16zM390.61 131.54c-.14-.17-.09-.27-.18-.36s-.61-.25-.72-.36-.28-.5-.36-.54-.26.05-.36 0-.56-1.05.15-.69.06.3.18.36a14.63 14.63 0 011.26.9c0 .05.17.86 0 .69zM391.17 123.54s-2.49-1.82-2.65-2-.49-.9.13-.35 1.66 1.15 2.17 1.55c.29.22 3.29 2.57 1.62 2a12.66 12.66 0 00-1.27-1.27z" fill="#50d6cc" fill-rule="evenodd"/><path d="M389.17 123.16l-1.28-.82s-.86-.92-.32-.54A53.83 53.83 0 01392 125c.89.76 2.28 1.24 2.9 2.14.74 1.09-2.13-1.16-1.79-.46.11.21.52.22.84.71s1.76 3.28 3.79 4 4.67 1.67 7.62 1.08c1.49-.3 3-.41 3.25 1.28.17 1.2-.3.41-.16 1.11s-1.26-1-3.26-1.06c-1.6-.07 1-.65-.59-.65-4.45 0-7.35-.66-10.19-4.24-2.11-2.65-5-4.24-6.12-5.1-3.21-2.51 1.13.2 1.81.76.46.37 1.22 1 1.39 1.06s.65.13-.09-.57-2.24-1.9-2.24-1.9z" fill="#50d6cc" fill-rule="evenodd"/><path d="M390.77 126.93s-.06-.22-.11-.22c-.56-1.29-4-1.35-4-3 .22 0 .71.56.84.73.4 0 1.17.63 1.57.63a15.82 15.82 0 002.35 1.76c.38.38 1.13.41 1.49.76A8 8 0 01394 129c.21.2.52.37.52.7-1.08 0-2.65-2.78-3.79-2.78zM407 136h-1.05s-.19-.16-.25-.16v-.19c.3 0 .71-.08 1-.08 0-.06.11-.17.11-.3a4.42 4.42 0 00-1.35-.36c0-1.2 2.4.47 2.46.47s-.08.21-.08.24c-.21 0-.49-.16-.7-.16a.75.75 0 00-.14.51zM361.38 165c.47.26 2.14.48.85-.07l-.85.07zM354.59 153.27a.66.66 0 01.24-.51l.06.48h-.3zM356.57 154.68v-.51c.64-.06.29-.39.87-.39a1 1 0 01-.87.9zM355.67 153.75c.08-.43.27-.56.69-.63l-.69.63zM363.42 154.53v-.21h.21l-.03.18-.18.03zM358.55 154.68l.06-.33.06.3-.12.03zM355.31 154.68l.06-.33.06.3-.12.03zM375.42 152.91l.06-.33.09.18.18.06-.03.06-.3.03zM376.86 152.91v-.18l-.18-.09.51-.06v.18l.18.06-.03.06-.48.03zM367.44 155.22c-1-.47 1.23-.1.66 0a1.8 1.8 0 01-.66 0zM356 155.4c-.11-.87.62-.44.12 0-.06 0-.11.13-.12 0zM369.63 155.58c-.15-.19-.64-.7.15-.51.25.06 0 .69-.15.51zM359.48 155.49c-.07-.14.45-.31.51-.18s-.41.38-.51.18zM363.26 155.67c-.07-.39.58-.22.3.06-.07.07-.27 0-.3-.06zM357.11 155.76c-.07-.37.47-.65.51-.45s-.48.59-.51.45zM358 156.48a.23.23 0 01.33-.33c.18.17-.15.5-.33.33zM372.51 156.57c-.08-.39.58-.22.3.06-.07.07-.28 0-.3-.06zM370.35 156.66a.23.23 0 01.33-.33c.17.17-.16.5-.33.33zM363.63 156.66c-.25-.49.26-.33.54-.27.08 0-.54.28-.54.27zM359.48 156.75c0-.16.29-.26.42-.24.5.06-.33.66-.42.24zM362.36 157c-.32-.32.29-.49.51-.27s-.39.39-.51.27zM356 157a.74.74 0 01.18-.63c.81-.34 0 .92-.18.63zM371.25 157.29c.06-.26.31-.24.51-.18s-.54.31-.51.18zM370.17 157.38c-.33-.21.2-.52.51-.33s-.25.49-.51.33zM368.16 157.29c.07-.14.52.06.3.06-.06 0-.35 0-.3-.06zM367.08 157.29c-.1-.08.09-.14.18-.18.68-.32.35.61-.18.18zM369.27 157.56a.23.23 0 01.33-.33c.17.17-.16.5-.33.33zM361.1 157.56c-.11-.55 1.09-.8.12 0 0 0-.1.1-.12 0zM356.75 157.47c.1-.23.63-.73.48-.12-.06.24-.54.26-.48.12zM377.58 157.65c-.07-.38.58-.22.3.06-.07.07-.28 0-.3-.06zM372.87 157.74c-.08-.38.2-.45.12 0 0 .07-.11.1-.12 0zM358.37 157.92c-.11-.55 1.46-1.1.12 0 0 0-.1.1-.12 0zM360 158.28c-.16-.4.25-.47.33-.27s-.29.37-.33.27zM371.43 158.37c-.1 0 .12 0 .15-.09s-.09-.26 0-.33c.73-.45.72.83-.18.42zM366.72 158.46c-.34-.21.2-.52.51-.33s-.25.5-.51.33zM365.82 158.46c-.17-.4.25-.47.33-.27s-.3.37-.33.27zM380.67 158.64c-.37-.47.34-.5.12 0 0 .07-.08.07-.12 0zM370.17 158.64c-.36-.22.63-.73.69-.27 0 .25-.54.37-.69.27zM369.09 158.55c-.1-.08.09-.14.18-.18.68-.32.36.61-.18.18zM367.8 158.64c-.34-.21.2-.52.51-.33s-.25.5-.51.33zM364.56 158.64c-.29-.2.35-.65.51-.33s-.31.48-.51.33zM373.05 158.85c-.08-.11.11-.45.18-.48.82-.34 0 .76-.18.48zM376.68 159c-.15-.42.25-.54.33-.3l-.33.3zM360.92 159c-.21-.23.13-.59.33-.36s-.15.55-.33.36zM358.94 159c-.15-.42.25-.54.33-.3 0 .06-.28.44-.33.3zM357.11 159.21c-.06-.08 0-.26.06-.33.65-1.54.42.93-.06.33zM371.61 159.3c0-.16.29-.26.42-.24.49.06-.34.66-.42.24zM374.34 159.57c-.12-1 .76-.49.06 0 0 0 0 .1-.06 0zM366.54 159.57c-1-.47 1.22-.1.66 0h-.66zM365.64 159.57c-.16-.4.25-.47.33-.27s-.3.37-.33.27zM370 159.66c-.14-.07.06-.14.18-.18.93-.32.64.59-.18.18zM368.7 159.66c-.14 0 .14-.06.18-.09.65-.56 1 .44-.18.09zM367.8 159.75a.23.23 0 01.33-.33c.17.17-.16.5-.33.33zM362.18 159.75c-.26-.26.62-.75.49-.21 0 .14-.38.32-.49.21zM380.13 159.93c0-.06-.29-.4-.18-.51.48-.48.38.77.18.51zM364.56 159.84c-.08-.38.57-.22.3.06-.08.07-.28 0-.3-.06zM359.84 159.93c0-.83.67-.42.06 0 0 0-.06.07-.06 0zM377.22 160.11c-.45-.56.53-.09.3 0-.06 0-.23.11-.3 0zM357.83 160.29c-.13-.17.29-.69.42-.69s-.15 1-.42.69zM378.87 160.47c-.07-.38.2-.45.12 0h-.12zM363.26 160.38c-.22-.45 1.15 0 .3.06-.06 0-.25 0-.3-.06zM360.92 160.47c-.23-.3.79-.9.48-.21 0 .13-.37.35-.48.21zM374.52 160.65c-.33-.21.2-.52.51-.33s-.25.5-.51.33zM369.09 160.56c.07-.14.52.06.3.06-.06 0-.35 0-.3-.06zM367.08 160.65c-.16-.4.25-.47.33-.27s-.3.37-.33.27zM366 160.56c-.1-.08.09-.14.18-.18.68-.32.35.61-.18.18zM358.94 160.83c-.11-.55 1.09-.8.12 0 0 0-.1.11-.12 0zM370.35 161c-.08-.38.19-.45.12 0 0 .07-.11.11-.12 0zM365.1 161c-.08-.38.19-.45.12 0h-.12zM376.5 161.19s-.27-.41-.18-.51c.35-.35.82.83.18.51zM373.05 161.1c-.14-.07.06-.14.18-.18.93-.32.64.59-.18.18zM371.07 161.19c-.63-.31.8-.53.3 0a.3.3 0 01-.3 0zM362 161.19c-.26-.27.62-.75.48-.21 0 .14-.37.32-.48.21zM377.94 161.55s-.31-.43-.18-.51c.71-.46.73.78.18.51zM375.42 161.55a.23.23 0 01.33-.33c.17.17-.16.51-.33.33zM361.28 161.64c-.07-.38.58-.22.3.06-.07.07-.28.05-.3-.06zM379.77 161.91s-.3-.49-.18-.69c.27-.41.83 1 .18.69zM374.16 161.91c-.28-.2.35-.64.51-.33s-.31.48-.51.33zM373.77 161.82c.05-.1.3.06.15.06s-.18 0-.15-.06zM372.69 162.09c-.63-.31.8-.53.3 0a.3.3 0 01-.3 0zM363.08 162.09c-.16-.4.25-.47.34-.27s-.3.37-.34.27zM359.12 162.45c-.35-.44.22-.84.12 0h-.12zM379.05 162.81c-.11-.05-.51-1.23.15-.87.13.07.45 1.17-.15.87zM377.58 162.81c-.13-.16-.09-.32-.18-.54s-.29 0-.18-.09c1-.43.49.79.36.63zM362 162.72c-.07-.38.58-.22.3.06-.07.07-.27.05-.3-.06zM376.5 163l.15-.33zM373.77 163.17c-.13-.06-.43-.56-.3-.69s1.15 1.08.3.69zM375.6 163.35c-.22-.27-.68-.19-.36-.69s.65 1.05.36.69zM359.84 163.53c0-.05-.29-.4-.18-.51.48-.48.39.77.18.51zM371.25 163.74c-.08-.19.19-.25.12 0 0 0-.1.08-.12 0zM372.87 164.1c-.45-.56.53-.09.3 0-.06 0-.23.12-.3 0zM362.18 164.19c-.07-.38.58-.22.3.06-.07.07-.27.05-.3-.06zM372 164.64c-.37-.47.33-.5.12 0 0 .07-.09.07-.12 0zM363.63 164.64c-.24-.46.4-.5.15 0 0 .07-.12.1-.15 0zM360.74 164.64c-.18-.2-.18-1.56.51-1.08 0 0-.1 1.53-.51 1.08zM370 164.82l.51-.27c.12.13-.39.39-.51.27zM361.46 152.01v-.33l.33.06-.33.27zM361.1 144.5h.33l-.03.1-.3-.1zM364.38 145.13v-.33h.32l-.02.3-.3.03zM364.19 146.39v-.18l-.36-.09h1.42l-.21.24-.85.03zM365.46 145.94l.69-.24-.03.3-.66-.06z" fill="#50d6cc" fill-rule="evenodd"/><path fill="#50d6cc" fill-rule="evenodd" d="M363.42 154.53v-.21h.21l-.03.18-.18.03zM368.7 186.28l.54-.24-.03.3-.51-.06zM388.24 180.04v-.33h.54l-.03.3-.51.03zM387.34 182v-.33h.33v-.09h.33c-.33.27-.27.41-.69.45zM385.75 182.47l.3-.12.03-.09.15.03-.21.24-.27-.06zM387.88 182.65h.33l-.03.06-.3-.06zM386.08 183.58h.51l-.03.06-.48-.06zM388.6 183.85v-.33l.36.06-.36.27zM387.34 184.57v-.33l.51.06-.51.27zM388.06 185.47l.06-.33.06.3-.12.03zM386.8 185.56h.33l-.03.06-.3-.06zM376.5 208.85c-.19-.24 1-1.25.48-.21 0 .07-.38.34-.48.21zM369.81 208.5c0-.68.62-.48.06 0h-.06zM372.69 208.5a1.82 1.82 0 01.42-.73.52.52 0 01-.42.73zM375.24 208.23s.11 0 .15-.1c.55-.55.23.48-.15.1zM374.34 207.74s-.15-.31-.18-.35c-.33-.5.26-.11.51-.18.09 0 .3-.53.54-.34s-.62 1-.87.87zM376.5 207.56c0-.43.25-1.26.87-1 0 0-.87 1.12-.87 1zM372.33 207.21c-.19-.81.28-.53.87-.46 0 0-.84.57-.87.46zM373.41 207c-.05-.3 1-1.68.69-.38a4.34 4.34 0 01-.69.38zM375.6 206.57a2.93 2.93 0 01.54-.72c.84-.34-.21 1.05-.54.72zM364 206.39s.11 0 .16-.09c.55-.55.23.48-.16.09zM377.76 206.3c-.12-.15.31-.57.42-.69 1.07-1.06-.08 1.12-.42.69zM372.87 205.94c-.1-.12.15-.41.24-.51.6-.59.09.93-.24.51zM374.88 205.76c-.19-.24 1-1.26.48-.21 0 .06-.38.34-.48.21zM371.79 205.58c0-.68.62-.48.06 0h-.06zM360 205.13c-.09-.09.78-.94.48-.12 0 .11-.33.27-.48.12zM364.2 205.22c0-.05-.14-.34-.19-.36s-.85 0-.2-.36c.2-.11.44-.84.75-1 1.05-.52 1.13.49.66 1-.07.07-.25 0-.3.06s0 .37-.06.48a2.39 2.39 0 01-.66.21zM377 205.13s.13 0 .15-.09-.06-.27 0-.33c.74-.44.65.8-.18.42zM365.46 205s1.05-.68.66-.12c-.06.08-.57.22-.66.12zM368 205a3.24 3.24 0 01.9-.18s-.55.53-.9.18zM374.16 204.86c0-.14 0-.57.18-.63 1-.41-.18.74-.18.63zM362.72 204.68c-.1-.56.92-.66.12 0 0 0-.11.06-.12 0z"/><path d="M364.71 204.53c-.09-.25.14-.68.18-.09 0 .07-.17.13-.18.09zM372.51 204.41s.11 0 .15-.09c.55-.55.23.47-.15.09zM361.1 204.32c-.1-.94.62-.53.21-.18 0 0-.2.26-.21.18zM371.25 204.32c-.21-.54.62-.43.12 0 0 0-.11.06-.12 0zM377.76 204.32c-.24-1 1.65-.95.33-.3 0 0-.3.41-.33.3z" fill="#50d6cc" fill-rule="evenodd"/><path d="M364.52 204.17c-.12-.19.11-.31.22-.15s-.18.2-.22.15zM359.84 204.05c-.08-.08 1-.68.39-.09-.09.1-.17.31-.39.09zM366 204.14c-.13-.25 0-.59.06-.87 0-.05 0 .16.09.18 1.37.55-.12.76-.15.69zM368 204.05c-.07 0 1.35-.81.66-.12a.5.5 0 01-.66.12zM375.24 203.78c-.32-.4 1.37-1.16.39-.18-.06.06-.24.37-.39.18zM359.12 203.51s.32-.26.33-.3 0-.25 0-.3c.9-.59-.42 1-.36.6zM361.82 203.6c0-.12.27-1.07.51-.69s-.5.73-.51.69zM373.59 203.6c-.19-.49.67-.47.12 0 0 0-.11.06-.12 0zM377 203.42c0-.47 1.08-2.25 1-1.14 0 0-1 1.35-1 1.14zM360.74 203.24c-.36-.36.94-.72.39-.18-.07.07-.21.36-.39.18zM364.2 202.88c-.19-.53.58-.5.12 0 0 0-.11.06-.12 0zM366.36 202.67c-.24-.61 1.61-.6.15-.12 0 0-.11.23-.15.12zM368.52 202.58c-.08-.06 1.19-.8.51-.12-.14.14-.32.28-.51.12zM374.52 202.67c-.34-.42 1-.7.3 0-.07.06-.24.1-.3 0zM376.32 202.4c-.11-.11.72-.35.3.06-.07.07-.23 0-.3-.06zM362.72 202.31c-.35-.17.18-.72.33-.51s0 .68-.33.51zM372.87 202.22c-.12-.11.72-.36.3.06-.07.07-.23 0-.3-.06zM366.18 201.86c.07-.15.45.06.3.06s-.34 0-.3-.06zM364.2 201.68c-.05-.05 1.05-.69.66-.12-.06.08-.57.22-.66.12zM375.42 201.5c-.12-.11.72-.36.3.06-.07.07-.23 0-.3-.06zM377 201.59c0-.18.4-.73.42-.69.24.53-.41.72-.42.69zM365.28 201c-.12-.12.71-.36.3.06-.08.07-.24 0-.3-.06zM374.52 200.42s.05-.37.51 0c.13.1-.47 0-.51 0zM376.14 200.42c-.08-.08 1-.68.39-.09-.1.1-.17.3-.39.09zM378.3 200.33c-.1-.89 1-.8.51-.39a3.66 3.66 0 01-.51.39zM366.18 200c-.1-.52 1.14-1.05.3-.21 0 0-.29.26-.3.21zM375.42 199.52s.38-.7.42-.6c.13.29-.07 1-.42.6zM377.4 199.43c0-.68.93-.8.21-.18-.05 0-.21.28-.21.18zM378.3 198.71c-.08-.47.84-.75.3-.21 0 0-.29.26-.3.21zM374.7 198.53s.36-1.65.51-.9c0 .07-.13 1.38-.51.9zM376.5 198.35c-.56-.56 1.07-.3.3 0-.09 0-.23.09-.3 0zM367.8 198.17c-.21-.23.13-.58.33-.36s-.17.54-.33.36zM375.6 197.78c-.24-.31.66-.8.3 0a.23.23 0 01-.3 0zM379.41 197.78c-.36-.36.9-.69.39-.18-.07.07-.22.35-.39.18zM367.62 197.42a.23.23 0 01.33-.33c.17.17-.16.5-.33.33zM377.58 197.42c-.1-.57.92-.67.12 0 0 0-.11.06-.12 0zM361.82 197.24c-.09-.52 1.41-1.08 1.78-1.26 1.51-.75-1.76 1.36-1.78 1.26zM369.09 196.88c-.21-.55.62-.43.12 0 0 0-.11.06-.12 0zM375.42 196.88c-.22-.11-.11-1.08.18-1.17s.74.08.54-.63c-.4-1.48.46-.4.51-.54.22-.62-.14-.49-.15-.54-.07-.55.29-1.05.18-1.47 0-.05-.16.05-.18 0s.56-1.13.69-1.26 1.59-.64 1 0c-.47.47-.29-.13-.45.87 0 .17-.45.17-.51.21-.22.15.54.49.51.51-.55.41.21.43.21.45.43 1.18-1.69 1.67-1.44 2.52 0 0 .17-.05.18 0s.16.82.15.84c-.35 1-.6-.49-.66-.51-.83-.38-.05 1.05-.72.72zM366.36 196.7c0-.68.62-.48.06 0h-.06zM378.66 196.7c-.38-.35.94-.7.42-.18-.08.08-.23.35-.42.18zM368.7 196.43c.05-.11.27.06.15.06s-.17 0-.15-.06zM380 196.16c-.56-.56 1.07-.3.3 0-.08 0-.23.09-.3 0z" fill="#50d6cc" fill-rule="evenodd"/><path d="M377.22 196a2.14 2.14 0 01.06-.87c0-.06 0 .16.09.18s.39-.09.54 0-.63.92-.69.69zM378.48 195.44c-.12-.67 1.23-.61.15-.12 0 0-.12.24-.15.12zM364.2 195c-.17-.08 1.94-.58 1-.12a1.3 1.3 0 01-1 .12zM379.77 194.9c-.56-.56 1.07-.3.3 0-.08 0-.23.09-.3 0zM364 194.54c-.06-.39.19-.45.13 0 0 0-.12.06-.13 0zM378.48 194c-.2-.51.25-.33.54-.27l-.54.27zM377.19 193.85c-.24-.07-.11-.82.39-.45s.12.58-.39.45zM364.2 193.73a.66.66 0 01.69-.18.56.56 0 01-.69.18zM379.41 193.64c-.07-.39.19-.45.12 0 0 0-.11.06-.12 0zM366.72 193.37c.07-.15.45.06.3.06s-.34 0-.3-.06zM366.72 193.1c-.16-.69.55-.69 1-.93s.16-.58.54-.33.85.13.15.48c-.11.05-1.74.81-1.74.78zM380.31 193.1c0-.07.54-2.4.48-.42 0 0-.33.73-.48.42zM371.25 192.89s-.14-.33-.18-.36-.44 0-.36-.09c.64-.64.72.67.54.45zM364.92 192.62a.66.66 0 01.69-.18.56.56 0 01-.69.18zM378.12 192.53c-.56-.56 1.07-.3.3 0-.08 0-.23.09-.3 0zM371.61 192.35c-.05 0 0-.15 0-.18-1.23-.92 2.27-1.1 1.38-.21-.43.42-.56-.53-.87-.15-.16.19.27.77-.51.54zM365.82 192a.23.23 0 01.33-.33c.17.17-.16.5-.33.33zM379.05 192c-.25-.18.49-.65.51-.72.47-1.44.43 1.38-.51.72zM368.7 191.63c-.25-.5 1-.46 1.26-.72 0 0 .15-.45.21-.45 1.63-.2 0 .26 0 .27s.1.42 0 .51-.86.08-1.23.27c0 0-.12.25-.18.12zM378.48 191.09c-.21-.14.54-.84.72-.69s-.2 1-.72.69zM373.59 190.64c-.18 0 2.36-1.14 1.5-.27-.42.41-.85.37-1.5.27zM377.76 190.73v-.18c0-.04-.15 0-.18 0s.06-.26 0-.36-.17.05-.18 0c-.17-1 .14-.43.69-.54s0 .09-.12.54c0 0-.07.71-.21.54zM367.62 189.83c-.1-.08.2-.55.24-.52.3.36.17.81-.24.52zM368.34 189.37s.13 0 .15-.08c.21-.54-.33-.28 0-.63a8.87 8.87 0 012.34-.43c.67.24-1.05.33-1.08.33s.06.29 0 .34-.49-.07-.69 0 .13.79-.72.44zM377.58 189.11c-.44-.72.76-.76.3 0-.05.07-.25.1-.3 0zM367.08 188.74c-.21-.2.12-.53.33-.33s-.16.51-.33.33zM354.95 139.34v-.36h.33l-.03.33-.3.03zM355.33 140.78c0 .08-.23.17-.3.17 0-.3.06-.49.42-.49.14.14-.08.25-.08.33zM357 141s-.12.09-.12.14c-.86 0 .41-.51.12-.14zM355.8 142c0 .18-.2.2-.2.28h-.18a.58.58 0 01.24-.5c.33 0 .4.11.14.24zM356.36 143.18l-.49.46c0-.8 0-.58.68-.58s-.19.17-.19.1zM355.34 144.26c0 .18-.38.51-.56.51-.16-.48.39-.58.39-.81a2.07 2.07 0 01.28 0s0 .33-.11.33zM356.58 144.66a.4.4 0 01-.36.25v-.54l.38.11v.18zM355.66 145.6c-.41 0-.31.41-.72.41-.06-.29.43-.63.69-.63v.22zM357.46 145.72l-.25.06c0-.22.13-.22.3-.23a.64.64 0 010 .09s0 .05-.07.05zM356.3 146.3l.08.42h-.52a3 3 0 00.46-.37zM355.42 147.33c0 .23-.27.33-.39.45l.49-.63c0 .07-.06.14-.06.19zM356.91 147.34a.4.4 0 010 .24l-.36-.12.4-.12zM355.85 148.46l-.34.37h-.16l.5-.37zM356.42 149.17a2.71 2.71 0 01.57 0 .55.55 0 01-.29.19 1.22 1.22 0 01-.27 0v-.2zM355.12 150.44c1.31-.95.41.82-.11.21l.11-.21zM356.78 151c-.51-.3.14-.67.22-.4a.31.31 0 01-.22.4zM358 151.76s0-.33.1-.28c.33.14.07.38-.1.28zM356.74 152.44c1-.85.79.79 0 0zM355.33 152.19s0-.46.26-.51c1.05-.19-.26.91-.26.51zM365.1 132.53h.33v.1l-.3-.1zM364.56 134a.62.62 0 00.24-.24l.06.3-.3-.06zM364.36 135.22l.08-.43.07.39-.15.04zM363.41 136l.1-.51c0 .15.06.31.09.46h-.19zM363.08 137v-.33l.34.06-.34.27zM363.66 137.66v-.27h.29l-.03.24-.26.03zM363.02 138.68h.58l-.06.16-.52-.16zM363.08 140.24l.06-.33.06.3-.12.03zM362.55 141.41l.24-.24.05.3-.29-.06zM363.53 142.28h.37l-.06.12-.31-.12zM362 142.94v-.33l.33.06-.33.27zM359.3 140.87l.18-.21.15.03-.21.24-.12-.06zM357.92 140.13h.52l-.05.1-.47-.1zM360.2 134.45v-.36h.33l-.03.33-.3.03zM360.74 133.52v-.33l.33.06-.33.27zM359.48 133.43h.69l-.03.15-.66-.15zM368.16 142.4s-.3-.51 0-.38c.6-.1.14.17.51.29l-.51.09zM368.91 141.68c-.21-.28.07-.34.15-.51s.06.79-.15.51zM367.98 143.21l.51-.06-.03.3-.48-.24zM368.34 144.59c-.11.09-.18-.42-.18-.51h.33l.18.24-.33.27zM368.34 145.31s.1-.18-.18-.18v-.33h.33l.36.48h-.51zM367.57 145.19c-.08 0 0-.93.17 0h-.17zM367.27 144.41c-.08 0 0-.92.15 0h-.15zM370.35 145.67c-.23 0 .33-.54-.18-.54l.06-.33.45.18v.66h-.3zM371.25 145.49a11.83 11.83 0 01-.12-1.23l.45.36v.84h-.3zM372 145c-.34 0 .43-.9-.18-.9v-.36h.33l.36.39-.21.84h-.3zM375.1 135.68a1.61 1.61 0 01-.38 0v-.67s.32.6.32.62l.05.07zM374.09 136.79c0-.67-1.48-1.23-1.11-2.26a.09.09 0 01.15 0c0 1 1.69 1.93 1.69 2.82-.27 0-.55-.35-.73-.53zM373.82 137.87l-.57-.88c.71 0 1.2 1.23 1.2 1.84h-.15c0-.18-.33-1-.48-1zM372.66 138.19c-.06-.12-.06-.27-.11-.4a.58.58 0 010-.19c.56 0 1.75 2.07 1.28 2.06a7.09 7.09 0 01-1.11-1.52v.05zM373.34 140.79c-.31-.3-.64-.51-.64-.94.78 0 .77.45.77.92h-.13zM368.81 140.3c-.19-.38-.74-.17-.74-.76.15 0 2.81 1.15 2.19 1.77l-1.48-1zM368.84 137.85c-.23-.23-.94-.28-.94-.75.07 0 .22-.09.32-.09s.3.27.37.27a2.07 2.07 0 00.56.12c0 .67 2.64 2.39 2.23 2.8-.38 0-.45-.24-.69-.44-.62 0 .18.58 0 .84s-.11.12-.11.14h-.21c0-.62-2.58-2.57-2.54-2.62.42-.22 1.9 1.13 2.43 1.13a5.44 5.44 0 00-1.37-1.42zM370 137.72l-1.95-1.59c.9-.89 3.63 2.33 3.63 3.68a12.73 12.73 0 01-1.68-2.09z" fill="#50d6cc" fill-rule="evenodd"/><path d="M369.84 136.34c-.42-.41-1.08-.93-1.08-.93s-.4-.94.08-.49c1 .93 3.05 2.12 3.05 3.68 0 .57-.53-.66-.61-.75-.32-.37-1.44-1.51-1.44-1.51zM370.19 135.37l-1.14-.87s-.55-1 0-.56a9.49 9.49 0 013 3c.45.8-1.73-1.4-1.85-1.54zM370.29 134.11s-1.36-.64-1.36-1.13c1 .09 2.23 1.65 2.86 1.65.06-.06 0-.37-.09-.42-.23-.23-.64-.4-.64-.74.07 0 .25-.05.35-.05a10.2 10.2 0 011.16 1.6v.17c-.39 0-.25-.41-.88-.41 0 .32.48.76.67 1a1 1 0 01.15.51c-.33.33-.38-.51-.55-.51 0-.31-1.47-1.38-1.67-1.62l.19.24c0-.05-.31-.32-.24-.29zM376.68 132.35c-.47-.59.86.06.48.06-.16 0-.38.06-.48-.06zM378.3 133.7l.33-.33c.05 0-.05.15 0 .18s.27 0 .39.06-.53.17-.72.09zM379.59 133.7l.69-.51c.06 0 0 .14 0 .18s.31-.05.36.06c.17.33-.94.26-1.05.27zM380.31 134.27c-.07 0 0-.15 0-.21s-.24-.07-.18-.09c.9-.32 2.44-.82.51.09v.18h-.3zM381.21 135.71c-.06 0 .05-.15 0-.18s-.47 0-.36-.09c.65-.3 1.13.19.36.27zM382.11 135.53c-.11 0-.1-.28 0-.33 1.6-.77 1.63-1.42 1.38-.06a6.11 6.11 0 01-1.38.39zM383 135.89c-.11 0 0-.39.06-.33.42.27.33.29-.06.33zM383.73 135.53c0-1 .58.52 0 0zM384.67 135.89c0-.17-.11-.47.06-.51s0 .73-.06.51zM384.67 135c-.06 0 .05-.16 0-.18-1.16-.39-.58 0-.19-1.2l.52-.06c0 1.07.41 1-.33 1.44zM383.73 136.61c-.43 0 .35-.47.55-.51v.48h-.52zM383 137h.13s-.12.07-.13 0zM367.98 128.09l.06-.36.07.32-.13.04zM368.91 124.99h.69l-.03.18-.66-.18zM370.53 125.11l.24-.24.27.24-.03.06-.48-.06zM371.97 125.02v-.33l.33.06-.33.27zM358.34 134.26c.21-.54.59 0 .73 0l-.62.16s-.11 0-.11-.15v-.05zM358.32 134.83c1.05.52-.34.61-.34.19-.27 0 .09-.21.34-.19zM354.54 135.13c0 .12-.4.18-.4.41h-.05l.1-.39c0-.29.28-.41.4-.64.62 0 .25.35 0 .63zM354.2 133c.05.75-.74-.1 0 0zM354.42 132.53c-.09 0-.09.11-.2.11s0-.11 0-.17-.09-.05-.15-.05c0-.37 0-.33.37-.33 0 .29.29.16.07.38v.06zM351.36 132a3.83 3.83 0 01.68-1.64h.08c0 .27-.06.57-.06.87.17 0 .44.06.66.06 0 .3-.29.37-.29.69-.61-.16-.6 0-1.07 0zM346.38 136.6a4.07 4.07 0 01.68-1.64h.09c0 .28-.06.58-.06.88h.65c0 .3-.29.38-.29.69-.6-.15-.6 0-1.07 0zM348.94 136.48h-.83c0-.06.2-.14.25-.19 1.67 0 2-1.95 2.67-2.95v-.08h-.11c0-.88.92-.71 1.5-.71v.16c-.81 0-1.51 3.77-3.51 3.78z" fill="#50d6cc" fill-rule="evenodd"/><path d="M347.89 133.55a2.08 2.08 0 01.66-1.37c2.09-2.42 1.21-5.23 2.6-8.12 0 0 1.48-1.71.86-.37-1.05 2.25-1 4.55-1.91 6.85-.13.32-.22.58-.22.58 1.49-2.66 1.87-5.46 3.36-8.06 0 0-.85.33-.95.55-1.1 2.21-.16 4.45-1.23 6.61-.36.71-1.18 1.64-1.12 2.43a17.89 17.89 0 01-.79 2.62c-.9.45 1-3.14-.25-1.23l-.43 1.23a4.64 4.64 0 01.21-2.1c.16-.3-.08-.54-.19-.25a3.84 3.84 0 01-.57 1.23v-.6zM410.36 116a4.75 4.75 0 00-1.65-2.73c-.59-.27.11-.07-.18-.36s-1.69-.47-2.16-.9 1.17-.17 1.23-.15.06.32.18.36.42 0 .54 0-.07.11 0 .18a2 2 0 01.75.36c.28.28.77 1.13 1.26 1.62s.07 2.4 0 1.62zM403.66 117c.19-.06 1.11-.74 1.2-.4.28 1.17-2.41.8-1.2.4z" fill="#50d6cc" fill-rule="evenodd"/><path d="M405.31 108.05c-.07-.48-.87-1.56.23-.46.35.35.41 2.61.39 3 0 .62-1.3-.06-.83.7s2 3 1.42 3.89c-.19.31-.48.67-.79.64s.39-2.3-.08-2.91c-.12-.15-.23-.07-.23-.07a17.12 17.12 0 01-.78-2.06l.06-2c0-1.16.79.52.61-.74zM404 108.44c-.14-.9-.34 1.25-.46 1.27-.85.12-.37-1-.46-1.76 0-.13-.65-1.52-.42-1.52 0-.19.21-.49.21-.74h.13c.52 1.1 1.49 2.35 1.52 3.63 0 .3.08 1-.34 1-.59 0 0-1.34-.21-1.83zM406.31 107.49c-.14-.24-.55-.36-.68-.67s.09-.57.33-.42c.74.45 1.5 4.07 1.5 4 0-1.36-.62 1.26-.51-.34a4 4 0 00-.64-2.62zM404.82 105.92a2.17 2.17 0 01-.67 0 1.47 1.47 0 00-.31-.88c-.37 0-.74.17-1.1 0a10.63 10.63 0 011.25-.22c.27.27.57.83.83 1.15zM415.43 124.48c-.38 0 .69-1.62.6-1.26l-.3 1.23h-.3zM415.43 126.46c-.41 0 .14-1 .3-.21l-.17.21zM406.91 124.09c-.05 0 0-.16 0-.18-2.12-.66.52-.57.87-.33.69.48-.68.54-.87.51zM394.89 121.39c-.24-.23-1-1.14 0-.51s2 .36 2.44 1.18c.23 0 3.26-.4 1.37.17-1.53.47-2.64.52-3.81-.84zM401.91 111.02l.06-.57.09-.03.03-.09.21-.06-.03.72-.36.03z" fill="#50d6cc" fill-rule="evenodd"/><path d="M401 105.8c1 1.29 1.22 3.8 1.81 5.39.05.13.23-.13.35-.07s0 .53.11.72.27.09.33.21c.38.66.5 2.09-.46 1.9-.18 0 .36-1.72 0-1.72-.8 0-1.19 1.15-1.51.82s1-1.4.32-1.67c-.43-.17-.47 1.49-1.12 1.16-.19-.09-.12-.55.07-.61 1-.39.84-4.29.54-5.11-.16-.43-.77-.48-.77-.95h.05zM397.76 102.89c0-.1.09-.45 0-.51-.7 0-.22.32 0 .51zM415.14 117.23c0-.1.09-.45 0-.52-.7 0-.21.32 0 .52zM395 100.69a1.72 1.72 0 01-.81-1.14c.14-.15.76.35 1 .35.06.11 0 .41.09.54.19.55 1.34.93 1.34 1.77h.1c.14.26.12 1.05-.27 1.05-.28-.27 0-1.73-.52-1.94s-.88 0-.95-.63zM397 101c-.35-.12-1-.09-1-.6l1 .6z" fill="#50d6cc" fill-rule="evenodd"/><path d="M396.09 103.89l-2.09-2.81c1.11 0 2.14 1.72 2.14 2.81zM384.13 124.48l.24-.36.27.24-.03.09-.48.03zM354.05 124.27l.48-1.23c-.85-.3-.06-1.74 1-1.74s-1 .75-.75 1.5.16-.29 1.11-.6c0 0-1.87 2.63-1.8 2.07zM365.46 124.27l.06-.33.27.24-.03.06-.3.03zM367.98 124.27v-.33h.33l-.03.3-.3.03zM370.17 123.82h.33l-.03.06-.3-.06zM356.21 123.73v-.18h-.18v-.33h.69l-.03.3-.33.09-.03.09-.12.03zM356.13 121.32v-.18h-.18v-.33h.69l-.03.3-.33.09-.03.09-.12.03zM386.08 123.64h.33l-.03.06-.3-.06zM394.24 123.73c-.05 0 .05-.15 0-.18s-.55-.09-.75-.18a4 4 0 00-.18-.36c-1.46-1.46-2.95-2.41-4.32-3.78l.69.18v.21c1 .26 4 2.85 4.53 3.42v.18c0 .02.25 0 .36 0s-.05.16 0 .18c.93.46.35.45-.33.33zM372.87 123.55v-.51h.33l-.03.48-.3.03zM385.39 123.55v-.33h.33l-.03.3-.3.03zM358 123.37v-.18h-.36v-.33c1.36 0 .36.59.36.51zM392.05 123.19c-1.4-.69-1.88-1.92-3.81-2.88 0 0-.66-.73 0-.51.05 0 0 .17 0 .18 1.55.37 3.9 3.24 3.84 3.21z" fill="#50d6cc" fill-rule="evenodd"/><path fill="#50d6cc" fill-rule="evenodd" d="M354.62 123.01l-.06-.12.15-.06.06.12-.03.06h-.12zM374.16 123.01v-.33h.51l-.03.3-.48.03zM384.13 122.92l.24-.24.27.24-.03.06-.48-.06zM370.17 122.56h.33l-.03.06-.3-.06zM381.93 122.65v-.33h.33l-.02.3-.31.03zM390.61 119.2v-.2l-.54-.18v-.18a24.81 24.81 0 01-2.73-1.53c.6-.27 1.6 1 2.34 1v.18l.9.18v.18c.33.08 5 3.88 4.68 3.93-1.53.27-3-2.86-4.65-3.42zM380.31 122.38h.51l-.03.06-.48-.06zM372.51 122.29v-.33h.33l-.03.3-.3.03zM357.11 121.84l.51-.12.03-.09.15.03-.21.24-.48-.06zM373.77 121.84h.54l-.03.06-.51-.06zM385.39 121.93v-.18l-.18-.09.51-.06v.18l.15.06-.04.06-.44.03zM353.45 121.83v-.18l-.19-.09.16-.09.09-.51.09-.03.03-.09.33-.09.03-.09-.54 1.17zM358.73 121.48h.54l-.03.06-.51-.06zM384.49 121.48h.33l-.03.06-.3-.06zM363.63 121.3h.18l-.04.06-.14-.06zM364.92 121.3h.33l-.03.06-.3-.06zM366.18 121.3h.33l-.03.06-.3-.06zM383.01 121.39v-.33h.34v.18l.18.06-.04.06-.48.03zM386.62 121.39v-.33h.33l-.03.3-.3.03zM368.7 121.21v-.33l.36.06-.36.27zM381.57 121.12l.24-.24.27.24-.03.06-.48-.06zM354.16 120.94l.51-.24-.03.3-.48-.06zM357.83 120.67v-.33l.51.06-.51.27zM372.51 120.67v-.33h.33l-.03.3-.3.03zM385.9 120.67l.05-.33.28.24-.03.06-.3.03zM355.49 120.4l.51-.18-.21.24-.3-.06zM373.77 120.49v-.33h.36l-.03.3-.33.03zM385.21 120.31v-.33h.33l-.03.3-.3.03zM375.06 120.04h.33l-.03.06-.3-.06zM356.75 119.68h.33l-.03.06-.3-.06zM381.39 119.77v-.18h-.18v-.18h.34v.21l.17.06-.03.06-.3.03zM383.74 119.68h.53l-.02.06-.51-.06zM390.79 117.94v-.18h-.18v-.18a9.92 9.92 0 01-2.91-1.26c-.55-.27 2.7.93 2.88.93v.18c1.31 0 3 1.63 4.89 2 .06 0-.05.17 0 .21s.55.11.33.12c-2.19.11-3.17-1.19-5-1.8zM367.08 119.59l.06-.18.06.15-.12.03zM387 119.59v-.21h-.18l.06-.33c.13.27 1.2.47.12.54zM387.16 118.48v-.18H387v-.3c.16.33 1.24.56 1 .84s-.64-.33-.84-.33zM385.39 118.66v-.18l-.18-.09.51-.06v.18l.15.06-.04.06-.44.03zM361.1 118.48l.06-.33.06.3-.12.03zM356.56 118.37l.07-.33.06.3-.13.03zM383.94 118.3v-.18l-.2-.09.36-.06-.04.3-.12.03zM366 118.12v-.33l.33.06-.33.27zM367.62 117.94v-.33l.33.06-.33.27zM357.65 117.67h.33l-.03.06-.3-.06zM358.73 117.49l.21-.21.15.03-.21.24-.15-.06zM386.08 116.95h.33l-.03.06-.3-.06zM383.38 116.59h.32l-.02.06-.3-.06zM388.24 115.42h1.26v.18l1.26.72-.15.33c-.83-.27-.88-.85-1.8-1.08 0-.5-.71-.18-.57-.18zM357.29 116.5l.06-.33.09-.03.03-.09h.51l-.69.45zM368.7 116.05h.36l-.03.06-.33-.06zM358.37 115.69l.63-.42.06.3-.36.09-.03.09-.3-.06zM356.75 115.51c-.26-.13.58-1 .66-.48h-.09l-.09.33-.3.06-.06.12-.12-.06zM355.17 120c-.26-.13.58-.95.66-.48h-.09l-.09.33-.3.06-.06.12-.12-.06zM385.9 115.6v-.33h.33v.18l.18.06-.03.06-.48.03zM389.53 114.49c-.1-.11-.85-.14-.48-.51 0 0 0 .16.09.18.3.11 1.08.08 1.08.57h.36l.18.36h.18l-.51.51v-.36h-.18v-.18c-.67-.23-.37-.16-.72-.57zM384.67 115.24v-.18l-.18-.09.33-.06-.03.3-.12.03zM394.6 115.15c0-.48.92-.14.48.06-.14.06-.49.09-.48-.06zM360.2 114.97h.33l-.03.06-.3-.06zM361.46 114.97h.33l-.03.06-.3-.06zM362.55 115.06v-.33l.51.06-.51.27zM393.31 114.88c-.2-.15-.08-.76.33-.54.05 0-.05.16 0 .18s.3-.08.39 0c.32.29-.45.56-.72.36zM364.19 114.7v-.18l.33.06-.02.09-.31.03zM355.6 116.17l.69-.24-.03.3-.66-.06zM356.93 114.13l.06-.33.09-.03.03-.09h.51l-.69.45zM387.16 114.13V114l-.36-.09c.69-.06 1.12.19.36.27zM390.61 114.13c-.74-.93.81-.45-.36-1.62-1.65-1.65.92-.1.66.87 0 0-.21.86-.3.75zM392.41 114.13c-.39-.78.93-.32.48 0-.13.08-.41.17-.48 0zM394.06 114.13c-.05 0-.16-.34-.18-.36-.17-.2-.56-.12-.75-.18s-.48-.85.15-.51c.05 0 0 .15 0 .18s.27-.07.36 0-.06.29 0 .33 2.08.25.39.54zM395 114.13c-.09-.06-.07-.26 0-.33.38-.38.68.75 0 .33zM359.66 113.86h.33l-.03.06-.3-.06zM385.75 113.77v-.18l-.19-.09.31-.06-.04.3-.08.03zM353.34 122.83a1.3 1.3 0 01.9-1.17l-.9 1.17zM358.01 113.14l.6-.42.06.3-.18.18-.48-.06zM389.17 113.23c-.63-.32.81-.54.3 0a.29.29 0 01-.3 0zM392.05 113.23c-.1-.35.26-.37.18-.72 0-.06-.19 0-.18-.09.07-.45.75 0 .48.42 0 .08-.23 0-.3.06s-.12.54-.18.33zM394.06 112.78c-.33-.67 1.15.06.66.06-.22 0-.57.13-.66-.06zM395.14 112.87c-.17-.21 0-.48.33-.09 0 .06-.27.16-.33.09zM387.7 112.51c-.1 0-.09-.26 0-.33.38-.31.43.4 0 .33zM369.45 112.24h.33l-.03.06-.3-.06zM370.89 112.33V112l.51.06-.51.27zM390.79 112.15c-.37-.47.33-.51.12 0h-.12zM386.26 111.88l.24-.24.06.3-.3-.06zM357.77 111.28l.24-.24.06.3-.3-.06zM391.51 111.28h.33c0 .49-.33.57-.33 0zM394.06 111.1l.33.06c-.32.26-.33.47-.33-.06zM359.12 111.16h.33l-.03.06-.3-.06zM366.54 111.07v-.33l.51.06-.51.27zM367.98 110.89v-.33h.33l-.03.3-.3.03zM387.52 110.89l.06-.33.06.3-.12.03zM393.13 110.89v-.51h.33v.36l.18.06-.03.06-.48.03zM358.94 110.71l.06-.33.09-.03.03-.09h.33l-.21.42-.3.03zM370.89 110.71v-.18l-.18-.09h.51l-.33.27zM391.15 110.71l.06-.33.06.3-.12.03zM372.33 110.53l.06-.33.06.3-.12.03zM389.35 109.99l.06-.36.06.33-.12.03zM359.84 109.81l.24-.36.06.12-.3.24zM392.59 109.81v-.21l-.18-.09.33-.06v.18l.18.06-.03.09-.3.03zM391.15 109.6v-.18h-.18v-.18h-.18v-.33h.33v.18h.36l-.03.48-.3.03zM388.06 109.42l.06-.33.06.3-.12.03zM386.8 109.06v-.18l-.18-.09.51-.07-.03.31-.3.03zM391.69 109.06v-.34h.33l-.03.31-.3.03zM369.81 108.88v-.33l.33.06-.33.27zM372.69 108.69v-.33l.33.06-.33.27zM392.05 108.16v-.19l-.18-.08.33-.06-.03.3-.12.03zM388.06 107.89h.51l-.03.05-.48-.05zM389.35 107.44l.06-.33.06.29-.12.04zM370.35 107.16h.33l-.03.06-.3-.06zM388.24 106.89v-.33h.33l-.03.3-.3.03zM361.1 105.9c-.17-.08 1-.89.12.06l-.12-.06zM386.26 105.99v-.32h.33v.17l.18.06-.03.06-.48.03zM364.38 105.63v-.33l.51.06-.51.27zM385.21 105.63l.05-.33.07.3-.12.03zM366.18 105l.24-.27.06.33-.3-.06zM384.31 104.61h.33l-.03.06-.3-.06zM385.02 104.7v-.18h-.17v-.69h.33l-.16.87zM374.16 104.52v-.33l.33.06-.33.27zM364.92 104.34v-.18h-.18v-.33h.33l-.03.48-.12.03zM372.15 103.98l.06-.51.09.18h.18l-.03.3-.3.03zM362.91 103.71c-.21-.1.11-.44.35-.39s-.15.49-.35.39zM366.36 103.8l.06-.33.06.3-.12.03zM390.97 103.71l.15-.09.09-.51.09.18h.18l-.21.48-.3-.06zM373.05 103.62v-.33h.33l-.03.3-.3.03zM374.52 103.62l.06-.33.09-.03.09-.33.06.66-.3.03zM368.34 103.44l.06-.33.06.3-.12.03zM364.38 102.63l.32-.12.04-.09.15.03-.21.24-.3-.06zM373.23 102.72l.06-.33.27.24-.03.06-.3.03zM383.94 102.54l.06-.51.1-.03.03-.33-.19.87zM391.51 102.54v-.33h.33l-.03.3-.3.03zM390.25 101.82v-.33h.33l-.03.3-.3.03zM372.51 101.46l.06-.33.27.24-.03.06-.3.03zM391.15 101.46v-.18h-.18l.06-.51.09.18h.18v.18h.18l-.03.3-.3.03zM385.02 101.28v-.18h-.17v-.33h.33l-.03.48-.13.03zM392.77 100.92c-1.15-.36-.49-.51-.72-1.11l-1.26-1.08c-.46-.63 1.23-.27 1.23.39s1.89 2.16.75 1.8zM389.53 100.56v-.18h-.18v-.54h.33v.21h.18l-.03.48-.3.03z"/><path d="M393.13 100l-1.08-1.29c-1 0 1.05-.1 1.05.57s.5 1.28 0 .72zM388.06 99.81v-.18l-.18-.09.24-.24.09.18h.18l-.03.3-.3.03zM385.02 99.18h.34l-.03.06-.31-.06zM388.06 98.28h.33l-.03.06-.3-.06zM399.23 112.23c-.13-.14 0-.32.14-.41a5.14 5.14 0 001.35-4h.13c1.21 1.21.19 4.34-1.62 4.34z" fill="#50d6cc" fill-rule="evenodd"/><path d="M398.69 111.35c.88-.67.57-3 .59-4h.14a4 4 0 010 3.86c-.51.86-1.06.35-.77.14zM396.68 110.41a.27.27 0 010 .3c-.09 0-.63 0-.51-.25.27 0 .06-.19.58-.09zM397.12 115.91c.47-.27 1.49-.68 1.65-1.18 0 0 .56-.07.25.26s-1.36 1.46-1.9.92zM395.49 117.28c-.16-.33 1.48.35.44.35-.13 0-.06-.07-.23-.15a.38.38 0 01-.21-.2zM396.77 119.89c.33-.49 2-.27 2.71-1a5.49 5.49 0 001.46-2.4c0-.12 2-.54 2.16-.7.46-.38.46-1.18 1-1.18 0 0-.37 1.27-1.26 1.6s-1.33.18-1.76 1c-.76 1.36-1.28 2.6-3.11 2.7l-1.25.07z" fill="#50d6cc" fill-rule="evenodd"/><path d="M397.65 118.64l-.37-.21a4.7 4.7 0 002.41-1.13l.75-1c.27 1-.9 2.08-1.79 2.15a3.86 3.86 0 00-1 .16zM399.85 121.39v-.33l.33.06-.33.27zM391.69 138.08l-.19.35h-.38v.09h-.3c.06-.51.87-1.49.87-.87a1.6 1.6 0 000 .36zM400.13 103.47c0 .46 1.16 1.2 1.49 1.2 0-.6-1.6-.65-1.49-1.2zM416.22 119.9c.29-.35-.11-1.67-.37-1.88-.39.45.8 1.53.37 1.88zM407.48 108.7c0 .46 1.15 1.2 1.49 1.2 0-.6-1.6-.65-1.49-1.2zM383.19 155.58l-.18-.27.34.12.08.17-.24-.02zM381.93 155.4v-.33l.33.18.18.06-.03.06-.48.03zM379.41 155.04l.06-.51.09.18.18.06-.33.27zM383.19 154.68a2.38 2.38 0 01-.35-.36.29.29 0 010-.33c.17-.17.84.47.65.66a.29.29 0 01-.3 0zM381 154.32c-.16-.08-.32-.39-.18-.54s.64.35.48.51a.29.29 0 01-.3 0zM384.3 153.75c0-.05.06-.16 0-.18s-.89-.31-.75-.57.88.22.91.3a.76.76 0 010 .42.1.1 0 01-.13 0zM379.05 153.57l.06-.27.06.24-.12.03zM382.11 153.57s-.3-.46-.18-.63c.28-.37.32.17.33.18s.16-.06.19 0a.48.48 0 010 .42c-.06.08-.21.07-.3 0zM378.3 153.09c0-.38-.22 0-.12-.51l.27.18v.3h-.12zM385.38 152.91c-.12-.16-.7-.55-.56-.85 0 0 .27.05.48.23a.48.48 0 01.21.59s-.1.06-.13 0zM378.87 152.55l.06-.33.06.3-.12.03zM383 152.55c-.05 0-.56-.56-.35-.87s.46.43.51.54.2 0 .18.06a.55.55 0 01-.34.27zM380.49 151.92c.34-.16.93.15.66.42a.29.29 0 01-.3 0c-.05 0-.42-.43-.36-.45zM376.32 152.13l-.18-.21h.15l.18.18-.03.06-.12-.03zM377.58 152.19v-.18l-.18-.09.33-.06-.03.3-.12.03zM375.42 151.65v-.18l-.18-.09.33-.06-.03.3-.12.03zM376.86 151.65v-.18h-.18l.06-.33.09.18h.18l-.03.3-.12.03zM378.3 151.65l-.18-.36V151c.18 0 .2.22.28.28s.22.1.2.38h-.3zM383.94 151.11v-.33c.45 0 .51.29.7.54 0 .05.22 0 .18.06s-.52.46-.52.27c0-.53-.05-.24-.36-.54zM382.11 151.11l-.18-.09c.26-.05.64.08.48.42 0 0-.11.07-.11 0l-.19-.36zM385.56 150.93l-.18-.18v-.69c.54 0 .48.31.45.84h-.27zM387.16 150.93v-.72L387 150h-.36v-.51c1.56 0 .54 1.76.54 1.41zM375.96 150.75l.06-.33.27.24-.03.06-.3.03zM377.4 150.57c-.5 0 0-.43.06-.51l.09.17h.18v.31h-.3zM375.24 150.39c-.06 0-.16-.27-.18-.27l.33-.06v.3h-.12zM380.85 150.39c-.33 0 .33-.84.33-.16l.18.07v.06h-.48zM383.19 150.39c-.21 0-.54-.51.16-.51v.18h.18v.3h-.3zM376.68 149.67c-.06 0 .05-.16 0-.18l-.18-.09.33-.06v.3h-.12zM384.48 149.67s-.47-.42-.18-.46.71 0 .67.43h-.49zM382.3 149.49c-.22 0-.55-.51.15-.51v.18h.17v.3h-.29zM386.26 149.31c-.05.07-.95-.9 0-.9v.18h.18v.18h.18l-.33.54zM383.73 148.74c-.06 0-.86-.7 0-.7v.19h.21v.48h-.15zM378.48 148.56c-.13 0 .42-.95.33 0h-.33zM380.49 147.92l.33-.06v.14h.18c-.07.74-.19 0-.51-.12zM385 148c-.06 0-.34-.17-.36-.17v-.37l-.19-.09c.47 0 .89.15.85.61h-.3zM387 147.84c-.25 0 .07-.37-.36-.37v-.33h.51v.18h.18v.48h-.3zM379.59 147.65s.06-.15 0-.18l-.18-.09.33-.06v.31h-.12zM382.11 147.65c-.27 0-.27-.82 0-.33h.37v.31h-.3zM381 146.76l-.18-.1.33-.06v.3c-.27.07 0-.1-.12-.14zM383.73 146.76s-.72-.39 0-.52v.18h.21v.3h-.15zM386.08 146.76c-.31.07-.05-.37-.52-.37v-.33c.47 0 .13.18.67.18v.48h-.12zM387.34 146.21c-.06 0-.15-.19-.53-.22.05-.31 0-.33 0-.65.63 0 .34.49.69.49l.15.35h-.3zM382.3 145.85c-.53.05.15-.76.15-.15l.17.06v.06h-.29zM384.48 145.49c-.66 0 .34-.73.34-.15l.18.06v.06h-.49zM385.9 145c-.06 0-.2-.26-.15-.27l.48-.06v.3h-.3zM387 143.66c-.06 0 .06-.18 0-.18h-.36v-.33h.51v.18h.18v.3h-.3zM387.88 143.48s.53-.72.18-.9l-.18-.09.51-.06-.18.63.18.09v.3h-.48zM385.56 142.76c-.32 0 .78-.68.46 0h-.46zM387 142s.15-1.23.15-.33h.18v.3h-.3zM388.42 142c-.33.17.18-.9-.36-1.17l.24-.24.09.18c.68 0 .33.32.17.81l.4.15-.54.27zM388.42 139.52c-.33 0 1-.72.69 0h-.69zM388.6 137.87c-.16 0 0-.63.36-.33s-.2.32-.36.33zM390.25 137c.56-.56.52.67 0 .51s-.12-.39 0-.51zM389.35 136.61c-.43 0-.29-.3.33-.09v.06h-.3zM389.65 135.21l1.26-.43c-.81.22-1.19.66-.51.78v.3c-.71.07-1.18-.49-.72-.65zM390.79 133.52c-.09 0-.11-.63.33-.09.07.08-.3.09-.33.09zM401.83 126.46v-.18l-.18-.09.33-.09.03-.09h.87l-1.05.45zM354.59 138.05l.24-.51.06.3-.3.21zM354.43 140c-.2.42-.41.37-.41-.19h.51s0 .09-.07.11zM354.47 141.71v.31H354.26c0-.13-.1-.46.19-.46a.48.48 0 010 .12zM346.81 146.79l.09-.42-.59-.21 1.17-.1-.04.39-.16.04-.47.3z" fill="#50d6cc" fill-rule="evenodd"/><path fill="#fdd6c6" fill-rule="evenodd" d="M369.06 166.47v-.21h.21l-.03.18-.18.03z"/><path d="M368.31 182.8l.43.65c.27 0 .38-.14 1-.17v-.09l-1.83-.78c-.55-.77-1.32-2.9-2.52-2.7l.06-.57h.09v-.51h.51v-.33c-.83 0-2.75-1.79-1.47-2.22v-.09c2.24-.4-1.15-4.66-1.47-3.69h-.1a31 31 0 01-1 7.77h-.18c.19-2.8.54-5.46.54-8h-.18v-.18H362c0 4.77-1.36 9.57-1.83 14.1h-.09l-.09 1.42h-.18l.06-1.83h.09c.26-4.48 1.61-9 1.65-13.53h-.18v-.18h-.33c-.07 5.1-1.75 10.2-2 15.19h-.18c.14-4.89 1.62-9.78 1.62-14.67h-.18l-.09-.18c-.48 4.79-2 9.58-2.28 14.28h-.18v-.37h-.18c.3-4.6 2.51-8.78 1.74-13.41a33.61 33.61 0 00-.66 4.32h-.18c.05-1.47 0-2.75 0-4h-.18l-.09-.18c-.43 1-.23 3-.27 4.32h-.09c-.33 2.56-1.65 5-1.79 7.69l.12 1v3.23l-.15.08.18.1v1.26h-.09c-.14 4.76-2 7.71-3 11.37v.75h.18v.18c.42 0 1 .54 1.47.54v.18c0 .4 1-1.22 1.92-1.32a12 12 0 00.23-2h.21v.57h.48v-.06c-1.27-.42 1.6-2 1.29-2.58-.21-.4-1.05.94-1.47 0 .21-2.08 4.1-5.65 4-5.65-.69 0 1.22-1.12 1.23-1.5l.25-.69v.9c.36 0 .46-.53.57-.9l1.74-.75c.24-.74 2.28-1 .6-1 0 .11-.23.15-.57.13 0-.63 1.65-1.4 2.13-1.53v-.31c-.6 0 .37-.71.36-.75h-.36l2.19-1c-.3-.1-1.71-.78-1.83-.78v-.18c-1.74.27.5-1.31.52-1.35zm-13.23 17.8c-.46.57 1.76-3.7 1.51-7.67 0 0 .19-3.74.25-4.45s.07-3.51.07-3.7.25-1 .19-.16c-.39 4.95 1.36 11.73-2.02 15.98zm2.18-.27h-.18V200h.21zM394 116.89c-.2-.09-.56-.09-.75-.18s-1.46-2.16-1.59-.93c0 0 .28-.16.06.39s.08.44.15.51c1 .95 1.18 1.9 3 1.59.32-.05-.79-1.36-.87-1.38zm-1.65 0c-.09-.09.05-.26 0-.36s-.52 0-.18-.21.82.43.93.54c1.1 1.07-.33.42-.72.03z" fill="#50d6cc" fill-rule="evenodd"/><path d="M360.89 127.4c-.13-.14.08-.35.21-.21s-.11.3-.21.21zM362.51 128.11c-.12-.1 0-.31.21-.15s-.15.2-.21.15zM379.38 125.41c-.7-.22 1.24-.28.54 0a.83.83 0 01-.54 0zM383.53 126.13c-.73-.22 1.29-.28.57 0a.86.86 0 01-.57 0zM383.71 128.84c-.73-.23 1.29-.29.57 0a1 1 0 01-.57 0z" fill="#fff" fill-rule="evenodd"/><path d="M355.13 131.18c-.23-.3-.21 0-.36-.18s.08-.28 0-.36-.47-.11-.54-.18c-1.92-1.92.71-2.67-.18-4-.31-.46.5-1.54.78-2.16.09-.19 1.32-.09 1.53 0s-.08.3 0 .39a3.08 3.08 0 001.26.15c.47-.1-.66-.34-.69-.36-.4-.23.31-.61.51-.54s-.08.14 0 .18a2.29 2.29 0 001.26.15c.19-.07-.13-.26 0-.33.88-.38.7.35.72.36s.43 0 .54 0-.11.17 0 .21c.37.15.7 0 1.08.18.09 0 .07.33.18.36s.43 0 .54 0 .07.33.18.36.43 0 .54 0 0 .14 0 .18l.54.36c.05 0-.08.14 0 .19.81.4 0-.45.36.35.16.32.67.24.76.36s0 .57.18.72a2.41 2.41 0 00.36.18c.11.33 0 .64.18.91 0 .09.68.15.33.69-.08.11-.26-.07-.33 0-.29.36.34.53.36.57s.24 1.24.09 1.05-.39-.94-.66-.57c-.1.12-.27-.32-.3-.33-.35-.12-.65 0-.94-.18-.46-.22-.64-1.29-1.08-1.29-.16-.17-1.68-1.22-1.65-1.26.45-.68-2.13.18-2.55.59-1 1-1.5 2.64-2.88 3.1 0 0-.07.21-.15.12zm15.4-5c.41.24.06.83-.36 1.09s.36-.14.36.26-.57.6-.54 1.09.14-.09.18 0c.12.29-.52 1-.54 1.47 0 .26.14 0 .18 0s-.39.15 0 .54-.28.59-.18 1.08c0 .05 1.31.11.69.54-.82.55-.24-.9-1.05-.09-.18.18.69.26.72.27s-.22.14 0 .18.67.88 1 .51c.11-.12-.13-.4 0-.51s1.44 1.12 1.47 1.26 0 .56.12 0-.5-1 .36-1.08-.5-.12-.69-1c0-.17-.15.57-.18 0-.06-1.06.44.28.69-.24a2.19 2.19 0 00-.15-1c-.41-.11.33-.79.18-1.08 0-.08-.2.22-.18 0s1.25-1.29 1.47-1.5 0 .3.33 0-.38-.35.24-.15 1.65-1.84 1.8-1.27.69-.2 1.08 0-.1-.06.15-.18a6.19 6.19 0 011.68.18c.13.09 0 .28 0 .36s.14 0 .18 0c.29.35-1.19.34-1.41 0 0 0-3.09 1.54-3.33 1.6s-.35-.08-.51 0-.17.48-.57.6 0 .06 0 .09c-.79.79 1.11-.18 0 .93-.37.37-.87.19-.45.72 0 0 1.57-1 1.56-1.41s-.15.06-.18 0 .48-.73.6-1a15.14 15.14 0 012.79-.94c.51-.1 0-.06 0-.09.69-.24.07.1.39.12.68 0 2.35-.24 2.55-.17s-.44.14 0 .17 1.78 1.54 2 1.63 0 .3 0 .39.13-.05.17 0-.08.14 0 .18c.36.17.6 0 .43.39a6.53 6.53 0 00.11.69c.41.4.34-.5.37-.54.16-.35 1.59 1.42 1.8 1.62a3.32 3.32 0 002.46.51c.22 0 1.39-.9-.15-.51-1 .24-.62 0-1.62-.15-.66-.11 1.38-.42 1.41-.42.73-.19.79-1-.3-.42-.07 0 1 .05 0 .09s-1-.41.15-.57 0-.06 0-.09.45-.31.36-.33c-1.19-.26-1.66.74-3-.06-.4-.24 1.85-.38 2.1-.42 1-.16-.31-2.24-1-2.32-.32 0 .13-.15 0-.18-.55-.09-1 .29-1.77.18-.21 0 .27-.14 0-.18s-1.2 0-1.48 0 .21-.14 0-.18c-.37-.06-1.45.32-1.08-.39.18-.32.14.15.21.18s.58-.24.91-.18c.12 0-.28.15 0 .18s1.19 0 1.46 0-.19.16 0 .18a3.57 3.57 0 001 0c.49-.15-2.31-2.05-2.71-2.1s.09-.14 0-.18a23.62 23.62 0 00-3.42-1.29c-.11 0 .62-.16 0-.18l-2.07.7c-.3.1-1.17.17-.83.05s-.51.54-1.29.81c-.16.05-.4-.22-.56-.16-.41.14-.53.4-.92.53s-.2-.14-.45 0-.21-.26-.48-.16-1 .9-1.12.95a5.07 5.07 0 00-1.13.48zm6.48-2.07c-.72-.36 1.68-.78 1.86-.75.61.12-1.41 1-1.86.75zm7.63 4a6.56 6.56 0 001.77 0c.11 0 .14-.35 0-.37-.82-.11-1.67.06-2.49 0-.05 0 .05-.18 0-.18s-1.87-.1-1.33.22a7.29 7.29 0 002 .18c.05 0-.05.17 0 .17zm-27.38-2c.27.05.76 0 .9-.21s-1-.24-1.23-.36c0 0 .06-.18 0-.18s-2.18-.09-1.29.39c.21.11.49 0 .72 0 .05 0-.05.18 0 .18.29.06.61 0 .9 0 .05 0-.05.17 0 .18zm-2.16.72c.09 0 1.77.15 1.47-.21-.16-.19-.59-.1-.9-.18-.05 0 .05-.17 0-.18-.82-.16-.75.56-.57.57zm0 .91c.57.08 1.6.14.39-.22-.05 0 .05-.16 0-.17-1-.32-.44.38-.39.39zm0 .9c-.05 0 0-.16 0-.18s-.9-.07-.36-.22c.9-.24 1.3.65.36.4zm-.18.93c.54.38.56-.34.39-.42-.39-.21-.62.25-.39.42zm.18.9a.28.28 0 00.39-.39c-.06-.11-.49.33-.39.39zm6.15-2.92c.61.61.23-.81 0-.38-.05.1-.08.3 0 .38zm1.45.63s.08-.16.12-.11c.14.22 0 .25-.12.11zm.54.64c-.13-.13.07-.35.21-.21s-.12.3-.21.21zm14.49-4c-.61-.16 2.19-.87 2.94-.78a4.94 4.94 0 01-2.94.78zm2.37.36c2.17.23 2.21-.48 0-.21-.06 0-.06.21 0 .21zm.54.72a22.28 22.28 0 002.71 0s.08-.16 0-.18a11.33 11.33 0 00-2.73 0c-.06 0-.06.21 0 .21zm4 3.07c-.07 0-.06-.2 0-.21.64-.14 1.79 0 2.31-.3.16-.11.48.2.36.3a8.41 8.41 0 01-2.67.21zm-13.24 3.27v-.18h-.18l.06-.21h.09v-.09l.21-.06v.54h-.18zm.54.36v-.21l.21.06v.09l-.18.06zm2.85-5.37v-.34h.33l-.05.29h-.28zM392.59 183.8l.06-.51h.09v-.08l.33-.06v.18c.71.23-.55.88-.51.51z" fill="#50d6cc" fill-rule="evenodd"/><path d="M357.21 110.84a37.26 37.26 0 00-3.56 9.18" fill="none" stroke="#fdd6c6" stroke-width=".17"/><path fill="#50d6cc" fill-rule="evenodd" d="M355.28 114.98l.06-.51.09-.03.03-.36.33-.03.03-.09-.54 1.02zM356.07 113.51a1.3 1.3 0 01.9-1.17l-.9 1.17zM354.38 116.4a1.33 1.33 0 01.9-1.17l-.9 1.17zM353.77 118.8c-.39-.61 2-2.71 2.1-1.83s-1.71 2.43-2.1 1.83z"/><path d="M353 120.31l1.68-1.62c1.26.2-1.8 2.69-1.68 1.62zM354.36 117.36l.06-.51.09-.03.03-.33.33-.03.05.11-.54.99-.02-.2z" fill="#50d6cc" fill-rule="evenodd"/><path d="M354.54 116.49a2 2 0 011.33-1.21l-.9 1.17zM353.66 119.49l.36-.61.09.56-.48-.06.03.11z" fill="#50d6cc" fill-rule="evenodd"/><path d="M357.43 111a1 1 0 00-.35.44 2.07 2.07 0 01-.37.54" fill="none" stroke="#fdd6c6" stroke-width=".17"/><path fill="#50d6cc" fill-rule="evenodd" d="M356.93 111.16l.18-.21.15.03-.21.24-.12-.06zM356.69 111.65l.21-.21.15.03-.21.24-.15-.06zM357.19 110.58l.3-.16-.03.3-.27-.14z"/><path d="M357 110.69c.25-.06.38-.31.52-.42" fill="#50d6cc" stroke="#000" stroke-linecap="round" stroke-width=".1" fill-rule="evenodd"/><path d="M354.2 151.14c-.16-.13.48-1.2.51-1.32.32-1.35-.68.52-.36-.9.19-.86-.25-.36-.33-.51-.3-.58 1.33-2.31.18-1.65-.52.29 0-1 .24-1.27.47-.46-.2-.24-.24-.33-.24-.59 1-2 .63-2.37-.13-.13-.78 1.24-.81 1.26-.43.34.14-1.4 0-1.62s-.45.18-.57 0c0 0 .15-1.36.18-1.47s.14 0 .18 0c.23-.36-.35-.4-.36-.48a2.19 2.19 0 01.45-1.5c.51-.59 0-.6-.45-.18s-.38-.27-.72.18 0-.89.06-1.08c.4-.8.19-.16.33 0s1.12-1 1.08-1c-.4-.32-.86.21-.9.09-.17-.57 1-.44.54-1.05s-1.69 2.25-1.89 2.34c-.52.23.91-2.18.93-2.22.31-.62-.08-.54.72-.72.34-.08.34-1.19.24-1.59-.18-.75-1.61 2.44-1.65 2.52-1 1.95.16-1.73.24-2s.62-.83.63-1c.06-1.34-.16-.15-.51 0-1 .5-1.11 2.18-1.62 3.09a5.38 5.38 0 01-2.7 1.53c-1.89.45.2-.45-.21-.6-.79-.29-4.61 2.48-4.26 3.6 0 0 .68-.86.84-1 .54-.54 1.1-.44 1.59-.81.07 0-.11-.14 0-.18s1.81-.34 1.62 0c-.38.66-3.78 1-3.51 2.37 0 0 1.45-1 1.53-1a7.24 7.24 0 002.31-.63 17.64 17.64 0 012-1.23c.32 1-3.54 2.5-3.75 2.61-.47.23-1.3 1-.06.6l-.48.66s-1.12.25-.54.45c1 .36 3.14-1.4 3.75-2 .26-.26 1.1-.58 1.26-.9.39-.78.05-.67.9-.93.07 0 .46-.89.54-.66.44 1.31-5.73 4.8-6.66 5.43-.15 0 .08-.15 0-.18-.68-.24.12.58.15.51.22-.52.19 0 .24 0 .21 0 .84-.12 1.08 0 1 .53-1.44.32-.9 1.08.08.12.28 0 .36 0s-.05.14 0 .18a3.46 3.46 0 00.84.33c.36-.47.89 0 1.32.21.08 0 .13.34.18.36s1.45.28.9.36a5.57 5.57 0 01-1.08 0c-.21 0-.07-.15-.12-.15a10 10 0 00-.75 1c.32-.43.25 0 1.23.42.08 0-.16.51-.14.55.11.19.44 1 .76 1.6a4.55 4.55 0 002.14 1.09 1.08 1.08 0 01.92.46s.77.07.85.11c.85.41.62.06 1.11.72 0 .19.25-.59.39-.72.71-.6-.3-.4-.38-.46zm-4.33-8.63a17.12 17.12 0 001.92-2.25 5.14 5.14 0 01.54-.91c1.19-1.06-1.15 2.75-2 3.24-.39.19-1.9 1.34-.46-.08zm-2 2.4h.43a.78.78 0 00.51.5c1.74.52-.91.78-.91-.5zm.85-.21c0-.42.35-.26.35-.26a4.24 4.24 0 00.86.26c2.07.4-1.11.79-1.18 0zm1.25 3.36c-.77-.14.16-.39.14-.41a6.36 6.36 0 001.43-.68c.45-.34.51-.4.51-.4 1.23-.48-.91 1.68-2.05 1.49zm1.11-4.23a1.67 1.67 0 01.19-.39 4.5 4.5 0 001-1.06c.05-.12.55-1.28.56-.33.08 1.73-1.9 2.4-1.72 1.78z" fill="#50d6cc" fill-rule="evenodd"/><path fill="none" stroke="#a3a3a3" stroke-linecap="round" stroke-linejoin="round" stroke-dasharray="5 5" d="M158.38 1.15H75.5v127M156.55 290.18H75.5V155.87"/><path d="M3.62 139.16a2.84 2.84 0 011.82 2.73A3.08 3.08 0 012.18 145a3.71 3.71 0 01-2.79-1.2l.9-1.07c.15.15.07.32.22.48a2.3 2.3 0 001.65.72 2.13 2.13 0 002.14-2.16c0-1.27-1.06-2-2.49-2a4.9 4.9 0 00-.54 0v-1a4 4 0 001.67-.27 1.84 1.84 0 001.13-1.67 1.72 1.72 0 00-1.84-1.65A2.56 2.56 0 00.4 136l-.66-.74a3.49 3.49 0 012.55-1.13 2.79 2.79 0 012.91 2.68 2.45 2.45 0 01-1.58 2.35zM23.43 134.46l-.55 1.13c-.06 0-.13 0-.14-.14s0-.12 0-.2a2 2 0 00-1.7-.89 1.74 1.74 0 00-1.56.86 3.34 3.34 0 00-.28 1.68v.6h2.54v1h-2.59v6.33H18v-6.33h-1.71v-1H18v-.76a3.52 3.52 0 01.42-2 3.06 3.06 0 012.66-1.35 3 3 0 012.35 1.07zM28.25 134.74c.06.17-.06.28-.1.46-.08.43-.19 1.83-.19 1.83h2.54v1h-2.56c-.09 1-.14 2-.14 3a11.66 11.66 0 00.05 1.49 1.27 1.27 0 001.3 1.26 3.07 3.07 0 001.74-.71l.38 1a4.31 4.31 0 01-2.48.86 2.1 2.1 0 01-1.77-.82 3.55 3.55 0 01-.46-2.12c0-1.32.06-2.64.16-4h-1.81v-1h1.85l.15-2.08zM47.13 133.51l1 .51-5.34 11.5-1-.5zM64 134.2v6.63h1.4v1H64v2.92h-1.19v-2.93h-4.27V141l4.46-6.8zm-4.33 6.63h3.11v-4.74zM82.93 134.46l-.55 1.13c-.06 0-.13 0-.14-.14s0-.12 0-.2a2 2 0 00-1.7-.89 1.74 1.74 0 00-1.56.86 3.34 3.34 0 00-.28 1.68v.6h2.54v1h-2.59v6.33h-1.17v-6.33h-1.69v-1h1.69v-.76a3.52 3.52 0 01.42-2 3.06 3.06 0 012.66-1.35 3 3 0 012.37 1.07zM87.75 134.74c.06.17-.06.28-.1.46-.08.43-.19 1.83-.19 1.83H90v1h-2.56c-.09 1-.14 2-.14 3a11.66 11.66 0 000 1.49 1.27 1.27 0 001.3 1.26 3.07 3.07 0 001.74-.71l.38 1a4.31 4.31 0 01-2.48.86 2.1 2.1 0 01-1.77-.82 3.55 3.55 0 01-.46-2.12c0-1.32.06-2.64.16-4h-1.76v-1h1.85l.15-2.08zM106.63 133.51l1 .51-5.34 11.5-1-.5zM124.39 134.21v1.07H120l-.16 3.05a3.92 3.92 0 011.72-.41 3.2 3.2 0 013.21 3.54 3.26 3.26 0 01-3.35 3.54 3.79 3.79 0 01-3.14-1.63l1.06-.8c.15.11.06.27.13.4a2.5 2.5 0 001.94 1 2.55 2.55 0 000-5 2.57 2.57 0 00-2 1l-.76-.3.36-5.39zM142.43 134.46l-.55 1.13c-.06 0-.13 0-.14-.14s0-.12-.05-.2a2 2 0 00-1.7-.89 1.74 1.74 0 00-1.56.86 3.34 3.34 0 00-.28 1.68v.6h2.54v1h-2.54v6.33H137v-6.33h-1.69v-1H137v-.76a3.52 3.52 0 01.42-2 3.06 3.06 0 012.66-1.35 3 3 0 012.35 1.07zM147.25 134.74c.06.17-.06.28-.1.46-.08.43-.19 1.83-.19 1.83h2.54v1h-2.56c-.09 1-.14 2-.14 3a11.66 11.66 0 000 1.49 1.27 1.27 0 001.3 1.26 3.07 3.07 0 001.74-.71l.38 1a4.31 4.31 0 01-2.48.86 2.1 2.1 0 01-1.77-.82 3.55 3.55 0 01-.46-2.12c0-1.32.06-2.64.16-4h-1.81v-1h1.85l.15-2.08zM311.39 337.48v1.07H307l-.16 3.05a3.93 3.93 0 011.73-.41 3.19 3.19 0 013.2 3.53 3.25 3.25 0 01-3.34 3.54 3.75 3.75 0 01-3.14-1.63l1.05-.79c.15.1.06.27.13.4a2.56 2.56 0 001.94 1 2.56 2.56 0 000-5.05 2.6 2.6 0 00-2 1l-.76-.31.37-5.38zM329.43 337.73l-.56 1.13a.14.14 0 01-.14-.14.33.33 0 000-.21 2.06 2.06 0 00-1.7-.88 1.72 1.72 0 00-1.56.86 3.33 3.33 0 00-.29 1.67v.6h2.54v1h-2.54v6.34H324v-6.34h-1.69v-1H324V340a3.5 3.5 0 01.43-2 3.22 3.22 0 015-.29zM334.25 338c.06.17-.07.27-.1.46-.08.43-.2 1.83-.2 1.83h2.54v1h-2.55c-.1 1-.15 2-.15 3a11.84 11.84 0 000 1.49 1.28 1.28 0 001.31 1.25 3.07 3.07 0 001.74-.71l.38 1a4.37 4.37 0 01-2.48.87 2.07 2.07 0 01-1.77-.83 3.54 3.54 0 01-.46-2.11c0-1.32.05-2.64.16-4h-1.77v-1h1.84l.15-2.08zM353.12 336.77l1 .52-5.34 11.5-1-.5zM370.92 338.33l-.83.91c-.15-.12-.15-.27-.25-.38a1.89 1.89 0 00-1.24-.45c-.76 0-2.5.48-2.57 4.1a2.61 2.61 0 012.25-1.28c1.49 0 2.9 1.27 2.9 3.47s-1.41 3.55-3 3.55a3 3 0 01-2.5-1.41 6.41 6.41 0 01-.81-3.59 10.16 10.16 0 01.46-3.26 3.53 3.53 0 013.28-2.63 3.36 3.36 0 012.31.97zm-4.83 5.37c-.14 2 .83 3.49 2.12 3.49.9 0 1.81-.77 1.81-2.43 0-1.82-1-2.49-1.86-2.49a2.54 2.54 0 00-2.07 1.43zM388.93 337.73l-.56 1.13a.14.14 0 01-.14-.14.33.33 0 000-.21 2.06 2.06 0 00-1.7-.88 1.72 1.72 0 00-1.56.86 3.33 3.33 0 00-.29 1.67v.6h2.54v1h-2.54v6.34h-1.17v-6.34h-1.69v-1h1.69V340a3.5 3.5 0 01.43-2 3.22 3.22 0 015-.29zM393.75 338c.06.17-.07.27-.1.46-.08.43-.2 1.83-.2 1.83H396v1h-2.55c-.1 1-.15 2-.15 3a11.84 11.84 0 000 1.49 1.28 1.28 0 001.31 1.25 3.07 3.07 0 001.74-.71l.38 1a4.37 4.37 0 01-2.48.87 2.07 2.07 0 01-1.77-.83 3.54 3.54 0 01-.46-2.11c0-1.32.05-2.64.16-4h-1.78v-1h1.84l.15-2.08zM412.62 336.77l1 .52-5.34 11.5-1-.5zM430.36 339.85a3 3 0 01-1.69 2.56 3.35 3.35 0 012.05 2.93 3.07 3.07 0 01-3.27 2.91 3 3 0 01-3.21-2.84 3.44 3.44 0 012.11-3 2.86 2.86 0 01-1.61-2.48 2.73 2.73 0 012.86-2.61 2.61 2.61 0 012.76 2.53zm-4.9 5.4a2 2 0 002.05 1.93 1.92 1.92 0 002-1.86 2.82 2.82 0 00-2.26-2.4 2.71 2.71 0 00-1.79 2.33zm.42-5.39c0 1.39 1.87 2.12 1.87 2.12a2.53 2.53 0 001.45-2.05 1.63 1.63 0 00-1.69-1.59 1.57 1.57 0 00-1.63 1.52zM448.43 337.73l-.56 1.13a.14.14 0 01-.14-.14.33.33 0 000-.21 2.06 2.06 0 00-1.7-.88 1.72 1.72 0 00-1.56.86 3.33 3.33 0 00-.29 1.67v.6h2.54v1h-2.54v6.34H443v-6.34h-1.69v-1H443V340a3.5 3.5 0 01.43-2 3.22 3.22 0 015-.29zM453.25 338c.06.17-.07.27-.1.46-.08.43-.2 1.83-.2 1.83h2.54v1h-2.55c-.1 1-.15 2-.15 3a11.84 11.84 0 000 1.49 1.28 1.28 0 001.31 1.25 3.07 3.07 0 001.74-.71l.38 1a4.37 4.37 0 01-2.48.87 2.07 2.07 0 01-1.77-.83 3.54 3.54 0 01-.46-2.11c0-1.32.05-2.64.16-4h-1.77v-1h1.84l.15-2.08z"/><path fill="none" stroke="#a3a3a3" stroke-linecap="round" stroke-linejoin="round" stroke-dasharray="5 5" d="M164.78 297.26v45.65h134.34M598.32 297.26v45.65H465.17"/><path d="M312.24 318h-1v-7.53l-1.76.52-.23-.54 2.29-1.2h.67zM316.16 317.35l.68-.75c.15.09.11.24.23.34a1.9 1.9 0 001.05.31 1.82 1.82 0 001.72-1.2 5.55 5.55 0 00.36-2.16 2.19 2.19 0 01-1.8.94 2.53 2.53 0 01-2.4-2.75 2.68 2.68 0 012.5-2.89 2.53 2.53 0 012.37 1.89 7.44 7.44 0 01.3 2.45 7.16 7.16 0 01-.37 2.58 2.91 2.91 0 01-2.71 2 2.76 2.76 0 01-1.93-.76zm4-4.44c.16-1.76-.67-2.85-1.67-2.85-.79 0-1.52.71-1.52 2s.76 1.94 1.53 1.94a2 2 0 001.65-1.09zM333.1 311.59v5.6h1.5v.81h-4.15v-.81h1.63v-4.77h-1.54v-.83zm.24-2.06a.73.73 0 01-1.45 0 .73.73 0 011.45 0zM337 311.61h1v1.12a2.68 2.68 0 012.13-1.28 1.83 1.83 0 011.7 1.13 3.62 3.62 0 01.23 1.54V318h-1v-3.85a2.09 2.09 0 00-.35-1.42 1.12 1.12 0 00-.86-.41 2.17 2.17 0 00-1.54.9 1.59 1.59 0 00-.32 1.1V318h-1zM355.33 308.69l.84.43-4.4 9.47-.83-.41zM367.58 309.21a2.47 2.47 0 012.53 2.45 3.92 3.92 0 01-1.53 2.76 11.59 11.59 0 00-2.38 2.72h3.66a.2.2 0 00.15-.05.19.19 0 01.19-.07v1h-5.12v-.61a10.37 10.37 0 012.53-3.25 3.51 3.51 0 001.53-2.4 1.65 1.65 0 00-1.67-1.66 1.83 1.83 0 00-1.5.79c-.07.12 0 .21-.12.33l-.71-.57a2.84 2.84 0 012.44-1.44zM377 309.27v.89h-3.6l-.13 2.51a3.22 3.22 0 011.42-.34 2.63 2.63 0 012.64 2.91 2.69 2.69 0 01-2.76 2.92 3.11 3.11 0 01-2.59-1.34l.87-.66c.12.09.05.23.11.33a2.08 2.08 0 001.6.81 2.11 2.11 0 000-4.16 2.12 2.12 0 00-1.64.82l-.63-.25.31-4.44zM389.1 311.59v5.6h1.5v.81h-4.15v-.81h1.63v-4.77h-1.54v-.83zm.24-2.06a.73.73 0 01-1.45 0 .73.73 0 011.45 0zM393 311.61h1v1.12a2.68 2.68 0 012.13-1.28 1.83 1.83 0 011.7 1.13 3.62 3.62 0 01.23 1.54V318h-1v-3.85a2.09 2.09 0 00-.35-1.42 1.12 1.12 0 00-.86-.41 2.17 2.17 0 00-1.54.9 1.59 1.59 0 00-.32 1.1V318h-1zM411.33 308.69l.84.43-4.4 9.47-.83-.41zM424.5 313.35a2.35 2.35 0 011.5 2.25 2.54 2.54 0 01-2.69 2.55 3 3 0 01-2.29-1l.73-.89c.13.13.07.27.19.4a1.88 1.88 0 001.36.59 1.75 1.75 0 001.76-1.78c0-1-.87-1.66-2.05-1.66a2.28 2.28 0 00-.45 0v-.79a3.27 3.27 0 001.38-.22 1.53 1.53 0 00.93-1.38 1.42 1.42 0 00-1.51-1.36 2.12 2.12 0 00-1.51.67l-.54-.6a2.82 2.82 0 012.09-.93 2.29 2.29 0 012.4 2.21 2 2 0 01-1.3 1.94zM431.24 318h-1v-7.53l-1.76.52-.23-.54 2.29-1.2h.67zM445.1 311.59v5.6h1.5v.81h-4.15v-.81h1.63v-4.77h-1.54v-.83zm.24-2.06a.73.73 0 01-1.45 0 .73.73 0 011.45 0zM449 311.61h1v1.12a2.68 2.68 0 012.13-1.28 1.83 1.83 0 011.7 1.13 3.62 3.62 0 01.23 1.54V318h-1v-3.85a2.09 2.09 0 00-.35-1.42 1.12 1.12 0 00-.86-.41 2.17 2.17 0 00-1.54.9 1.59 1.59 0 00-.32 1.1V318h-1z"/><path fill="none" stroke="#a3a3a3" stroke-linecap="round" stroke-linejoin="round" stroke-dasharray="5 5" d="M292.23 63.97v249.87h8.73M469.87 63.15v250.69h-8.16"/></svg>