<svg xmlns="http://www.w3.org/2000/svg" width="600" height="392" viewBox="0 0 600 392"><path d="M28 362.83h541.5v-361H28z" fill="#fff" stroke="#50d6cc" stroke-linecap="round" stroke-linejoin="round"/><path d="M391.23 211.61c-.78-8.42-1-16.14-2.72-23.72-1.13-5.27-3.79-9.9-5.79-14.89-.47-1.15-10.27-16.1-11.13-16.87 0 0-16.28-18-24.9-21.23-4-2.23-18.5-9.09-22.81-9.89-12.61-3-16.44-2.24-22.82-1.92-.09 0-17.6-1.57-38.94 9.1-1.15.29-12.51 7.55-14.52 9.26 0 0-16.6 15.17-20.44 22.29-6.66 11.85-12.31 25-13.4 38.83.19.77 0 12.39.47 19C215.34 235 221 247.69 227.54 259a144.91 144.91 0 0022.15 23.9c5.74 2.51 11.09 5.69 16.73 8.29 5.11 3 19.64 7.29 26.22 7.63 0 0 16.38 1 24.42.27 0 0 16.72-3.49 27.32-10.45 2.69-1.43 6-5.17 8.06-4.77 0-.18 3.73 0 4.69-1.71-.1-.67-.86-1.05-1.23-1.53 7.18-4 11.32-10.7 17-16.52h.28a115 115 0 0012.71-23c3.11-9.11 5.66-19.55 5.34-29.5zm-1.23-2.67s-6.62-.3-7.41.33-8.94.8-11.81 0-17.71.64-21.07.48-8.77 1.6-14.36 1.28-21.22 0-22.34.63-16.51.23-16.51.23c-1.78-1.51-3.54-3.15-5.73-3.73-.76-1.64-1.13-3.08-3-3.94-2-.86-4.89-.78-5-3.84l-.67-.87c.3-.75 2.2.3 2.58-.85 1.63-.47 3.16.87 4.79 1.26 3.73-.55 8.25-2.66 11.77-.15 2.2.38 4.51-1.24 7.09-1.13 7 1.35 14.28-1.2 21.65-.33 3.63.69 7.28-1.32 10.91.42 6.33-.56 12.94-.24 20-1 4.89-.27 10.15 1.28 15.14.05l8.42.21c.39 0 .67.58 1.06.11a23.25 23.25 0 003.64-.28c.35 3.63.67 7.37.85 11.12zm-87.87 4c1 .16 9.58-.15 11-.31s4.79-.64 6.38-.8 10.22-.32 12.61-.15 4.63 0 6.7 0 9.59-1 10.86-1.13 15.8-.64 18-.79a14.3 14.3 0 016.37 1c1.12.65 8.31-.16 9.74-.8s5.75-.15 5.75-.15a1.24 1.24 0 01-.48 1.43c-.8.49-5.27.64-6.86 1.11s-6.06 1.44-8 .81-5.28-.81-8.46-.81a9.09 9.09 0 00-6.22 2.4c-.8.81-8-.16-8.94-.63s-10.37.47-13.56.15-4.64 1.91-5.91 2.88-10.38-1-12.61-1.59-8.46.15-9.73 1.26-4.31.33-4.95 0-2.55-1.9-3.66-2.38a11.76 11.76 0 01-2.4-1.6c.32-.05 3.46-.04 4.39.1zm-47.63 21.35h1.72a1.51 1.51 0 00.57 1.11h-2.3a1.68 1.68 0 00.03-1.11zm3.17 1.61c.32.13.64.23.94.32.47-.2.76.29 1.05.48-.87 1.63-3.26.47-5 1a3.8 3.8 0 01-1.54-.67 2.39 2.39 0 001-.93zm-.79-2.54l-2.68.21c-1-1.56-3.89-2.28-1.8-4.45.3-.85 0-2.48 1.45-2.39 1.43-.38 2.49.48 3.64 1.06.85 1.35.27 3.46 1.13 4.8a8.33 8.33 0 00-1.72.77zm-3.59-7.89c0 .57-.67.37-1 .57a.3.3 0 01.1-.39c-1-1.05-2.4-.1-3.54-.2h-1.06c.19-.38-.38-.58-.57-.87-.77.77-1.15.2-2 .86-.39.38-.87 0-1.25-.19l-5.84.18v.38c-1.34-1.15-2.87-.59-4.5-1.26 0-.67-.86-.09-1.14-.47a22 22 0 01-9.39 1.11c-.48-.28-.38-1.25-.09-1.72a14.21 14.21 0 017.76-1.51l3.11.24c1.75 1.09 4.5.68 6.36 1.33v-.29h.76c-.19.29.19.49.29.67a24.14 24.14 0 004.78-.23l1.65-.73c.52.54.86 1.3 1.89 1.37 1.82.29 3.83-.47 5.46-.75l2.86.16c.67.24 1.64-.44 2.51-.15 1.5-.33 3.08.23 4.1-.79l1.73.14c3.35-1.43 5.84 2 9.19.4l3.31-.19a21.5 21.5 0 006.65 1.09c2.19 1.05 5.55.3 7.75 1.75-1.16.85-3.83 1-5.37 1.12-3.83-2.31-7.85 1-12.16-.9-3.55 1.15-7.18-.68-10.92.84-1.83 1.14-4.69-2.79-7.08-.69-1.07-1.07-3.09-1.17-4.33-.88zm-7.94 8.25l1.52.05a.91.91 0 00-.13.69 2.11 2.11 0 00.19.89l-1.86-.08a1.19 1.19 0 00.33-.81 2.25 2.25 0 00-.03-.74zm2 2.26a5 5 0 001.59 1.07 43.73 43.73 0 01-6.12-.68c.42-.49 1.16-.55 1.74-.78zm0-2.49l-2.33-.57c-1.1-1.82-4-2.95-1.51-5.17.95-.28 1.63-1.23 2.78-1.22v.38c.57.18 1.34-.57 2 0 1.24 1.44-.88 3.83 1 5.17 0 .48.1 1.15-.48 1.15-.22.28-1 .14-1.49.26zm-15 1.55l3.34.31a9.86 9.86 0 012.41 0c.39.76 1.25 1.52.67 2.57-2.87 1.81-5.46-1-8.62.17-.57-.29-1.14-1-.66-1.63.65-.64 1.95-.87 2.86-1.38zm2.18-.33h-1.75a1.63 1.63 0 00.6-1.26l1.13-.12c-.4.32-.51.72.05 1.38zm-1.37-1.85a8.08 8.08 0 01-2.31-2.08 4.36 4.36 0 012.11-3.92c1-1.53 4.42-1.8 4.79.88a4.32 4.32 0 01.57 3.54c-.25 1.1-1.93 1.38-3.08 1.78zm-6-23c.67-1.92 3.26-1.42 3.26-3.72a2 2 0 01.9-.46l1.56 1.17c.83.69 1.28 1.9 2 2.73 1.15.77 2.88-.27 3.07 1.74-1.26 2.58 1.89 5.26-1.17 6.89-3.16-1.46-4.71 3.23-7.48.65-1.14-.11-2.48.17-3.24-.88s-2.11-2.59-1.53-4.12c.27-1.78 3.33-1.96 2.67-3.97zm11 11.24a1.71 1.71 0 001.52.86v.67c-2.1-.68-5.55.27-6.7-2.61 1.16-1.9 3.16.49 4.32-1.51.68-.48 1.15.1 1.25.67a1.8 1.8 0 00-.37 1.95zm34.31-8.71c-.38-.1-.38-.77-.19-1 .1.18.48 0 .39.29.01.25.11.63-.18.74zm-.31 4.3c2.59 1.25.28 4.6 3.53 4.51-.48 1.34-2.21.86-3.07 1.24-1.72-.29-2.87-1.16-4.69-.88-.28-1.92 2.3-1.23 3.17-2.58zm-1.43 0A2.57 2.57 0 01269 219a2.64 2.64 0 00-1.29.31l-3.33.5a2.31 2.31 0 00-.73-.54c-1.15.19-1.63-.76-1.82-1.72.3-2.79-3.72-4.71-.55-7.19 3.26-.09 2.51-6.79 6.23-3.81a37.63 37.63 0 003.25 4.12c-.1 2.13 2.67 4.33-.01 6.05zm-4.38 5l-1.45.06a3.85 3.85 0 00-.17-1.34l2.26-.07c.3.87-.2 1.13-.62 1.37zm-2.53.07a5.59 5.59 0 01-2.87.46c.86-.56.48-1.62.86-2.38.5.87 2.6.21 2.03 1.94zm-7.77-.5a2.23 2.23 0 00-.17-.77c-.29-.29-.09-1-.67-1a7.89 7.89 0 00-.66-3.26 8 8 0 012.11-2.59l2.69-.37c1.23 2.3 1.8 5.56 1 7.76a14.37 14.37 0 01-2.14.92zm1.57 1.09a1.32 1.32 0 00-.31.73l-1.64-.28a2.94 2.94 0 00.33-.8zm-18.39-7.47c.67-.57 1.25-1.34 2-1.52 1.71.19 2.19 2.39 3.82 2.79a1.76 1.76 0 01-1.25 2.1c-.68 1 .76 2.21-.49 3.06-.86.48-1.81-.39-2.2.86-.18-1.15-2.87-.4-1.72-2.21a23.56 23.56 0 01-.14-5.06zm5.64 6.44c.67-.86-.67-2.1.58-2.77 1.05.76-.87 3.15.94 3.82a1.74 1.74 0 01.64.12l-1.26.27a14.67 14.67 0 01-3.78.26c.31-1.31 2.5-.02 2.9-1.68zm1.72-.47a1.75 1.75 0 000-2.3c-1.05-.39 0-1.82-.27-2.87.86-.77 1.54-1.91 2.68-1.71 1.72.66 4.4 1.73 5.07 3.74.28 1.83-3.36 1.24-1.74 3.63-1 .77-2.58.57-3.45 1.35-.45-.86-1.99-.97-2.27-1.82zm5.23 2.24a2.08 2.08 0 001.66-1.37c.29-.76-.67-1.62.58-1.91.86.1.37 1.34.95 1.91-.71 1.19-1.81 1.38-3.19 1.37a2.26 2.26 0 01-.93 0zm6.86-10.83c-1.54.09-3.36.09-4.13 1.81-.19.38-.29.86-.67 1-2-.68-3.63-2.79-5.84-2.22-1.24.28-1.92 2.49-3.35 1.91-1-1.15-1.34-2.11-2.87-2.51a5.81 5.81 0 00-2.78 1.06c.48-.86-.09-1.73-.18-2.58.19-.58.86.47.86-.29a185.66 185.66 0 0120.39-.32c-.26 1.02-.93 1.3-1.41 2.16zm-25.47 9.35l-2-.21c.26-.54.32-1.12 1.3-1a3.48 3.48 0 00.69 1.2zm42.89 1l1-1c.29-.3.38.57.28 1zm2.38-1.21c-.28-2.4-5.08-.21-4.11-3.85-.47-1-2.49-1.35-1.24-2.69-.85-1.05.78-2.09 1.06-3 .68-1.52-.66-3.06.59-4.68.19-.48 1-.38 1.34-.09a1.62 1.62 0 002.11.48c.86-.86 1.83-1.53 2.87-.48.29 1.16 1.43 1.83 2.1 2.7.38 1.82 2.77 3.93.65 5.75v3.26c-1.71.92-4.49.63-5.35 2.64zm-17.13-38h.57c.16-.28.33-.56.51-.82l.73 1.52c.84 1.86 2 3.84 3.05 5.73 2.59 2.51.75 7.19 4.1 9.13a7.79 7.79 0 016.3 5.18c-3.54-.68-4.78-5.08-8.6-5.19-1.15-.86-.48-2.49-.95-3.65.12-6-7.73-8.25-8.48-14 .2-5.07-5.92-7.39-8.68-11.33-.87-.68-.93-1.82-1.23-2.76l-.77-2.18 1.25-1.47c4.21 2.22 1 7.47 5.14 9.88 3.34 2.21 4.2 6 6.78 8.74-.18.61.2.9.3 1.28zM248 169.14c2.39 4.13 8 6.64 9.45 11.33-.59 6.62 7.83 8.17 8.2 14.2.66 1.72-.11 4.21 2.08 5.37 3.74-.56 4.88 5 8.22 5 .58 0 1.06 1.62 1.92.87a.52.52 0 01.19.38c-1.44.86-2.11-1.73-3.64-.2a44.85 44.85 0 00-5.64-1.93c-4.78-4.12-11-4.72-16.55-6.74a17.08 17.08 0 00-2.37-5.57c-4.3-3.55-3.33-9.29-6.87-13.13a7.11 7.11 0 01-.57-4.7v-2.45l4.7-5.56.51 1.57a3.91 3.91 0 01.37 1.56zm34.17 37.46a2.66 2.66 0 00-3-1.16l-.1.1c-1.8-3.25-4.57-7.19-8.59-7.59-1.62-1.63-1.14-4.12-1.9-6-1.65-2.59-2.87-5.39-4.42-8l-1-2.3a20.67 20.67 0 016.53-4.72l1.61 1.35a3.2 3.2 0 011.44 1.58c-.11 6 4.38 10.16 6.66 15.24a5.79 5.79 0 00.32 2.64l.72 1.48c3 1.26 1.71 6.62 5.83 5.48.57.39 1.43.67 2.1 1.06.67 2 2.09 4.21 4.59 4.7 1.62 1.06 2.57 2 4.2 3.09-2.92-.46-6.33-1.65-9.55-1.62l-2.22-.15a46.83 46.83 0 00-3.22-5.18zm-11.43-30.19c.69-.35 1.37-.7 2-1.06 3.82 2 1.71 6.72 3.8 9.88.38 2.79 3.16 4.12 3.53 6.9.38.2 0 .49-.1.67-2.86-3.36-5.33-7-5.71-11.41-.33-1.43-.81-3.16-2.21-4zm77.4 3.47a3.67 3.67 0 001.81 0c3.35 2.21 6.9-1.51 9.38 2a1.78 1.78 0 01-.87 1.43 5.16 5.16 0 01-1.23 0 3.76 3.76 0 01-4.12 0c-.48.19-1.34-.57-1.72 0l-.86-.2c-.1-.09-1.9-.86-1.9-.86-.48-.19-1 .47-1.35-.38 0 .38-.57 0-.57 0-.29.09-1 0-.86.56-.68 1.24-1.24.1-1.33.1l-.86.18c-.1-.67-1.83-.19-2.11-.87-.38-1-3.35-1.25-3.45-1.34.1-.1-1.43-.11-1.33-.2s-4.59.65-4.88.84c-1.34-1-5.27.93-4.79 1.32-1.63 2.1-4.5 2.09-7.09 2.28-2.67.66-3.19 0-5.1 1.17 3.2.67 5.38 1.7 6.34.85 1.44.76 3.26-1.43 4.12.39-.1 1.82-2.3 1.42-3.26 1.71-2.3-.49-4.21-1.26-6.61-.69-1.05.47-1.12.61-2.27.12.09-.09-1.35-.16-1.44-.36 0 0-5-.54-7.3.21-2.2-.3-3.83 1.23-5.46.17a36.07 36.07 0 01-6.79.47c-1.82-.3-8.36 3.63-9.74 5.14l-2 .53-.14-.93c7.3-7.35 18.69-4.73 26.93-6.8 4.79-3.16 10.82-.75 15.71-3.41 5.47-2.19 10.18-7.15 17.06-4.93.76-.19 3.66.54 4.78.53l1.89.31a6.37 6.37 0 001.41.66zm-28 17.46a18 18 0 011.44-3.23c.36-.24 7.18-5 10.65-5.63s5.41.09 8.38-.35c3.23-.48 12 .71 12 .71S352 191 351.13 191s-4.32-1.92-7.55-1.07c-2.89.75-5.27 0-8 .11a12.85 12.85 0 00-7.54 2.75 28.05 28.05 0 00-3.47 4.31zm68.95-1v.39c-5 .07-9.39-.33-14.27.14-4.7 1-9.48-1-14.65 0-5.55 0-12 .55-17.62.82-1.72-.11-2.2-.6-3.82-.88-4 .65-8.47.12-12.6.08h-.39a16.15 16.15 0 013.67-4.4c2.24-1.75 4.11-1.1 7.46-1.46a46.41 46.41 0 017.41-.36c4.08 0 4.67-.12 6.11.95s3-2.26 3.35-2.89-3.47-1.05-6.41-1.34-12.74.15-14.65.14-6.83 2.9-7.66 3.51-3.6 1.9-4.08 2.27-1.67 4.2-1.67 4.2c-3.66.49-7.06.82-10.75-.09-3-.68-5.95 2.76-8.61.35-4.4-1.82-8.64 2.77-13 0-1.87-.46-3.33.58-4.83.66l-1.2-1.07-.24-1.6 2.65-1.63c2.19-1.74 4.72-3.67 7.19-4.49 3 .3 5.46-.55 7.95-.65 4 1 6.52-1 10.06-.83a13.81 13.81 0 014.95 1.23c4.13-1.9 8.84 2 12.39-1 .78-5.56-5.27-.32-7.47-2.61 2.58-1 5.66-.36 8.34-1.7a5.18 5.18 0 013.65-2.76 7.39 7.39 0 004.11-.37c4.7-1.61 7.65 3.75 12.25 2.13l.39-.38.28.39a21.94 21.94 0 016.42 1.35 16.88 16.88 0 005.84-.65c-.38-1.24 1-2.48-.47-3.26l-1.9-.58c-1-.86-2.11-.28-2.59-.28h-1.9c0 .19-1.63.28-1.53 0-1.24.18-1.72-.58-2.77 0l-.86-.67a6.43 6.43 0 012.3-1.43c3.45.19 5.85-2.86 9.11-2.75a5.46 5.46 0 003.64-.66c2.77-.18 5.17-1.13 7.57-.84a6.73 6.73 0 002.1-.85c1.36-1.91 3.44-2.42 5.37-3.31l1.85-.14c4.74 8.45 8.84 17.38 9.51 27.36zm-10.56-28.44c-1.56 1.34-3.37 1-5.58 3.34-1.05 1.62-6.61 1.51-6.61 1.51-1.25 1-4.6 1.14-4.6 1.14a3.16 3.16 0 01-2.29.19 15.85 15.85 0 00-6.32 2.27c-2.14-.15-3.88 1.29-5.75 1.69l-2.33.1c-.14-.1-1.59-.19-1.41.2-.09-.19-.38-.19-.57-.19v-.29c4.89-.37 7.87-5.72 12.95-4.94 6.12-.85 12.93-1.3 17.63-5.7a25 25 0 013.58-1.6zm-120.75-32c2.41-1.66 21.22-11.87 39.13-11.82 2.23-.47 14.2-.16 19.95.48 0 0 9.25 1.12 27.12 9.74 7.34 3 20.81 15.49 23.48 18.86 1.05 1 2.68 2 3.44 3.26a88.08 88.08 0 016 8.34l-.85.77c-4.11.08-6.52 4.48-10.64 4.67-5.56 2.37-13.4-.14-18 4.92-3.65 1.05-7.87 3-11.69 1.69-6.71-.21-11.41 6.28-18.31 6.64-4.87-.58-9.19 2.18-14 2.93-7.86-.31-16.19.34-22.24 5.4a9.26 9.26 0 00-3.23-5.18c-2.2-3.93 0-9.3-4.66-12.08-3-1-4.32 3-7.19 2.94-1.25 1.54-2.69 2.78-4.13 4.3-2.77-3.55-4.48-7.86-8.31-10.75-1.33-2.68-.35-7-4.09-8.25l-1.24.39c-3.08 3.05-5.58 7.06-8.65 10.32-.86.19-2.1-1.25-2.39-2.31-.66-2.11-1.32-5.17-4.1-5.46-.85-1.46-2.11-3.33-3-4.76 8.15-12.32 27.6-25.07 27.6-25.07zm-28.38 26c1.33 1.83 2.34 5.22 5.29 5.52 1.34 2.3 1.14 5.47 4 7 .48-.38 1.05-.19 1.72-.47l1.21-1.42-.18 1.36c-1.65 5.15 4.22 9.09 4.38 14.34 2.2 3.16 4.87 6.05 5.15 9.88a9.51 9.51 0 002.77.87 8.32 8.32 0 005.55 1.36l-.19.18c1.72.49 3.16 1.64 5.17 1.93 1 1 2.39.87 3.06 2.11 1.62 2 7.56.6 5.54 4.43v1.62h-.57c-2.39-1.63-3.05-5.65-6.5-5.77-.85-.47-2.3.95-3.25.19-2.38-4.31-7.17-4.71-11.19-4.35l-.36.32v-.19c-.77.38-2.87-1-2.78.48-.86.18-.85-1.64-1.72-.49.86 1.44 3 2.3 3.15 4.13-2.3-.78-3.73-3.46-6.41-3.27-2-1.07-1.81-3.93-4.29-4.33-1.64-.1-2.88-.57-4.6-.4a10.6 10.6 0 00-3.45 1.05 1.72 1.72 0 01-.9.56l-1.37.17c2.7-1.9 5.53-4.39 9-2.91l3.72 2.6c2.12.1 4.41-.28 6.61-.36a.6.6 0 00.86.47c.58-1-.38-2.21-.56-3.26.69-7-9-8.45-9.25-15-.47-1.83.59-5-2.18-5.18-.66-1.16-.86-2.68-1.71-3.84a80.52 80.52 0 00-6-5.37c-.47-.3-.68-1.49-.77-2.16.7-.2.47-1.16 1.05-1.83zm-9.74 37.84c1.06-.56 1.92.4 2.87.49-2.3 2-4.41 2-7.38 2.57-1.42-3.58 2.85-2.31 4.51-3.09zm-4.51 4.11c3.35-.85 6.7-.84 8.91-3.71-2.58-1.92-5.93-1-8.71-.22 1.38-12.64 6-24.3 12-35.3-.2 2.3 3 2.59 3.62 4.8 4.3.79 2.76 6.14 6.49 7.3.76 2.11-.11 4.69 1.32 6.71 1.52 4.12 7.27 5.57 8.3 10a14 14 0 00.28 3.45c-3.07.38-7 1.13-9.29-2-1.43-.29-3.24-1.07-4.59 0-2.25.33-4 2.09-5.69 3.61l-.94.82 2.23.16 1.14-.19c1.21-.23 2.47-.85 3.72-1.14 2.3.1 4.22-.47 5.85 1.25 1.13 4.6 6.3 2.71 8.31 6.35 1.24.29 2.58 1.74 3.74.68-.1-.67-.86-.57-1.34-.87a3.83 3.83 0 00-1.43-3.44c4.6-.37 9.48-1.31 12.24 3.48.39.86 1.54.58 2.3.86-1.74 5-8.33 1.43-11.59 2.56l-12.46.73-.86.48c-.29-.48-.86-1.25-1.53-1.34-2 .77-2.34-1.46-3.45-2.22l-2-1.59c-.38 0-.79.21-1 .15-1.92.09-1.16 3.16-3.27 2.77l-1 .86c-3.64.18-7.18 0-10.34.25-.19.19-.39.48-.68.38-.77-1.54-.43-3.93-.28-5.66zm4.5 36.9c-2.56-9.68-5.59-19.55-4.51-30.27a80.11 80.11 0 0110.82-.54c.19 1.82-2.3 1.91-2.59 3.62-.49 2.3 1.32 4.51 2.95 5.85.67.87 2.59-.17 3.45.88l.19-.2a.71.71 0 01.09 1.07c-2.31-.1-5.28.08-7 1.22a2.55 2.55 0 00-1.05 3.22l.67.68.19-.2c1.53.87 3.25-.08 4.79.21 1.05.28 1.34-.28 2.1-.19a5.38 5.38 0 013.26-.66c-1.25.86-2.78 2-3.27 3.63a3 3 0 001.05 3.26c.38.77 2.1.58 1.34 1.72-1.34.58-3 .95-3.84 2.3a2.28 2.28 0 001.43 2.59c2.2-.28 3.92.3 6.22.69.57-.29 2.2-.1 3.07-.38.76-.87 1.43-2.3.68-3.45-.57-.76-.86-1.54-1.92-1.73a5.36 5.36 0 01-2.2.18c1.25-.57 2.87-.66 3.84-2.09 1-1.91-.47-3.63-.75-5.46h4.21c-1.25 1.24-1.35 2.47-1.26 4.11.38 1.52 2.77 1.73 2.58 3.65a3.16 3.16 0 00-2.59 1.33 2.21 2.21 0 001.24 1.92c2.2-.38 5.55 1.07 7.56 0 .39-1.82-1.81-1.93-2.38-3a2.64 2.64 0 002.59-1.71 12 12 0 01-.55-6.33c.56.1.95-.37 1.52-.19.47 2.31-2.5 4.49 0 6.42.67.67 1.63.58 1.72 1.72a.91.91 0 01-.68 1.15 1.15 1.15 0 00-1.14.58c-.19 1 .67 1.34 1.34 1.81 1.81 1.16 4.68.69 6.7 0a2 2 0 001.25-1.52 2.88 2.88 0 00-1.72-1.92 1.6 1.6 0 01-1.24-.29 3 3 0 002.11-1.71c-1.14-2.12-.08-3.75-1.42-5.76 2.49 0 4.68 2.13 7.47 1.07 3.45-1.52 5.93.89 9.48-.64 4.2 2.22 8-1.32 12.35 1.1 2.39.09 3.07-1.73 5.36-1.05a2.26 2.26 0 001.06-2.19c-2.87-2.51-7.37-1-10.53-2.61a9.73 9.73 0 01-3.92-.59c-.19-.4.1-1.45.86-1.34 1.44-.39 3.64-.66 4.51-2.29-1.46-2.38 1.3-3.83.87-5.69l2 .11a23.66 23.66 0 014.36 1c4.12 1.45 8.62.31 11.58 4.53 4 1.65 7.84 4 12.34 4.44 1.58.51 3.26 1.61 5 1.81l1.55.55c-1.65 1.64-3.2 3.4-4.67 5.11a19.28 19.28 0 00-3.27 6.21c-2.59.19-4.6 1.63-6.71 1.32-1.14-.09-3.44.19-4.69 0 1.92-2.48 2.51-5.55 4.14-8.13.11-3-3.25-1.34-5-2-1.63 2.11-2.31 4.59-3.75 6.89a43.8 43.8 0 01-2.51 4.1l-4.76-6.91c-1.15-1.14-3 .09-4.7.67-1.35 1.9 1.14 3.63 1.23 5.55-3.16.17-7.66.17-11.39.64-2.59.18-5.92.8-7.38 0-.19-.1-1.15.29-1.25-.39-.76.28-1.91.86-1.72 1.92-.39 2.48.84 4.78.83 7.27 1.43 3 5.08.78 7.57 1.17a62.21 62.21 0 017.47-.06h6.89a5.26 5.26 0 001.92-.18l.47.18-3.47 9.29c-1.05 0-1.81-1.25-3-.59-3.17 4.3-2.61 10.44.15 14.65a6.69 6.69 0 01-.93.27l-.74-1.55c-1.64-4.89-2.94-10-6.52-13.87a2.24 2.24 0 01-1.43-.87l-.1.18c-.57-.67-2-.85-3-1.24-3.07-1-6-.4-9.1.16-1.24-3.26-4.87-5.48-7.25-7.78-10.82-3-22.4-4-34-5.26-.7-.42-1.95-.33-2.52-1.2zm98.64-4.75a2.4 2.4 0 001.24 2.78c1.34.76 2.3-.67 3.26-1.52 3.27-7 9.51-10.8 16-13.56 1.05.3 2.78-.07 3 1.36-1 1.91-3.26 1-4.89 1.9-5.66 3.24-10.18 9.64-14.5 14a12.27 12.27 0 01-2.88 3.34 106.83 106.83 0 00-11.59-1.75 24 24 0 01-4.71 5.63c-.37-1.92-2.47-3.17-3.42-4.79 1.14-1.64 1.54-3.45 3.36-4.49 4.21.77 8.62-.65 12.36-1.4 2.31-6.6 8.08-11.95 13.64-16.15 2.59-.76 5.27-2.76 8.14-1.33-.77 2.39-3.35 1.71-5 2.57-5.84 3.1-10.07 7.88-14.01 13.41zm9.9-9.26l1.43.07c-1.43 2.88-3 1.84-4 4.42-2.12 2.2-2.89 5.44-5.77 6.69a1.19 1.19 0 01-.48-1.26 50.47 50.47 0 018.84-9.92zm-2.85 22c.86 1.53 2.38 2.79 2.57 4.69-.76.29-2.11.19-3 .66-2.1.16-4.66-.2-6.67.17l-1.71.08a5.44 5.44 0 00-1.77-2.29c-1.63.58-2 2.67-3.93 1.81a11.65 11.65 0 01-3.54.18c-1.24-1.81-2.86-3.07-3.05-5.19l3.65-4.09-.19-.2c.87-1.81 3.45-.08 5-.46 2.11.68 4.88.68 6.61 1.36a45.43 45.43 0 015.64.59 2.49 2.49 0 011.44.1c.01 1.08-1.72 1.65-1.05 2.61zm-21.6 16.31l-1.43-.47a23.14 23.14 0 006-2.09c2.11-1.05 2.88-3.64 4.9-4.77a8.12 8.12 0 002-3.25 8.19 8.19 0 01-1.55 8.23 9.41 9.41 0 01-9.92 2.37zm-3.4-15.32l-1.91-2.59.69-2.87c4 5 6.48 10.55 10.28 15.64-.47 1.05-1.53 1.34-2.39 1.71-2.29-3.72-4.76-7.94-6.67-11.87zm.66 3.64l-1.25.19.77-.86zm-12.12 18.44l-2.78.28c.67-1.05-1.05-1.92-1.14-3.07-1.33-3.64-1.32-7.48.7-10.72 3.16.39 5.84 1.93 8.9 2.43-.11 4.03-3.08 7.66-5.68 11.1zm6.93-10.9c.47.2.86-.17 1.53.2.47 3.83-3.38 6.7-5.68 9.08 1.83-2.85 4.14-5.61 4.15-9.26zm-2.57-1.53a17.37 17.37 0 00-3.83-1.26c1.45-4 2.7-8.71 5.1-12.34 1.16-2 1.65-4.4 3.28-6.21.77-3.16 3.27-6.12 4.53-9.28-.47-3 2.57-.87 3.92-1.23-.59 4.89-4.71 8.31-6.73 12.62-1.64 1-1.93 3.06-2.41 4.78a17.29 17.29 0 01-.87 2.1c-.3 3.66-2.23 7.1-2.99 10.84zm-23.42-18l-.67-1.43c2.39-.19 5.08-.19 7.76-.65 3.45-.57 7.57-.17 11-.26l1-.2c2 1.35 2.87 3.38 4.58 5.39l-1.49 3.29c-2.29-.88-4.89.07-7.18-.22a110.74 110.74 0 00-14.85.63c.51-2.21-.06-4.31-.15-6.51zm17.83-8.08c4.32-3.25 5.45 4 7.83 6 .47 1.44-1.06 2.38-1 3.83-.19-.11-.29.09-.39.18-1.71-2-2.76-4.51-5.15-6a12.24 12.24 0 01-1.29-3.97zm21.77 24.38l-1.72-2.79 3.83.2zm3.64-2.39c.28 0 .38-.28.67-.18a13.07 13.07 0 01-3.65 3.92c.76-1.03 2.02-2.54 2.98-3.7zm-44.41-7.88h-.19c0-2.68-1.52-5-.65-7.76 1.53 2.06 1.33 5.35.84 7.8zm14.65 24.99a31.5 31.5 0 01-3.89.37 43.74 43.74 0 01-13.41-2.72c2.78-2.68 7.38-3.72 10.64-6.39a11.16 11.16 0 001.06-3.92c2.15 3.37 3.53 7.37 4.89 11.28l.69 1.38zM256.39 249c1.62.95 2.77 2.68 4.1 3.65a16.33 16.33 0 001.91 2.78 22.37 22.37 0 01-6.43 2 32.13 32.13 0 01-8.22-4.33c2.58 0 4.5-1.22 7.18-1.5.88-.6 1.84-1.4 1.46-2.6zm-15.77 23.87h-.38c-7.35-8.74-15.08-17.19-18.69-27.63l-1.14-3.24a49.46 49.46 0 0010.43 1.76 149.86 149.86 0 0124 4.38 1.44 1.44 0 01.28 1.71 22.28 22.28 0 01-7.95 2.08 1.4 1.4 0 00-.11 2c2.11 2.2 5.17 2.69 7.75 4.32 5.84 1.08 10.55-4.94 17.24-2.53 1.72.67 3.93 1.25 5 3-.87 1.33-.49 3.15-1.45 4.48-3.75 1.91-7.58 4.3-11.52 6.1-5.55-1.35-12-2-16.75-.34-1.05-.28-2 1.15-2.87 1.05-1.46 1.11-2.88 1.29-3.84 2.83zm8.4 8l-8-7.4a12.63 12.63 0 015.18-2.95c.29.1.1.57.48.49.19 0 .19-.31.19-.49 1.91 1.73 4.49 3.37 6 5.57zm1.24 1.05c-.18-.86.87-1.91 1.74-2.95l-.19-.2c.76-1.14 2.39-1.91 1.92-3.24-2-2.6-3.73-3.46-6-5.67 13.33-4.46 23.92 7.54 37.53 3.56.86.38 2.49-.86 3.45.29l.67-.66a61.66 61.66 0 018.62-.26c-1.16 2.29-4.8 2.86-5.67 5.82-1.34 2.39-1.45 4.6-2.41 7.18-3.25-2-8.53.55-12.06-1.57a83.18 83.18 0 00-25.18-1.61c-.68.39-1.85-.06-2.42-.74zm56-3.85a3.22 3.22 0 002.92-1.73c1.43.48 2.49.21 3.64 1.26 1.42 2.21.08 4.41.55 6.7-.67 2.2-.68 5.26-3.17 6-5.77-2-11.06-2.52-14.08-1.58a5.6 5.6 0 01-4.68-.87c0-.67-.76-1.53 0-1.91-.66-.67.68-.95.39-1.92.87-.76.39-1.72 1-2.67 0-1.93 1.26-3.26 2.31-4.88l5.22.63a33.29 33.29 0 005.88.9zm-.62-1.53l.15-2.22a25.1 25.1 0 001.66 2.57 3.25 3.25 0 01-1.83-.4zm-5.54-.7l-3-.39a6.12 6.12 0 002.3-2.4c.2.95.97 1.59.68 2.74zm44.69 11.53c-6.52 4.48-13.24 7-22 9.57-9.59 2.75-20.16 1.13-29.46 1.29a79.69 79.69 0 01-29.12-9.23c-3.63-1.34-8-4.07-10.71-5.39 9-.45 17.14-.14 26.23 2.47l8.9.22c1.63.57 1.14 3.26 3 2.88 3.25 1.73 5.49-.34 9.89-.23 1.14-.38 6 1.62 8.67 2.38a4.14 4.14 0 003.27-2.95l.58-2.2c5.64 1.07 12.44.42 18.29-1.19a81.29 81.29 0 0116.61-.71zm-10.92-3.66c-6.71 1.5-12.26 2.83-19.54 1.46-.47-3.45 2.13-8-2.36-9.28-1.82-1.16-4.6 1-5.36-2.13 7.39-4.48 16 1.67 23.28.06 9 .61 17.92-4.83 26.44-4.51a8.46 8.46 0 001.72.47c-1.92 2.68-5 4.11-6.24 6.88.18 2.39 2.76 3.74 4.1 5.19-6.74 3.15-15.16.09-22.06 1.81zM372.08 264c-4.8 5.54-9.8 11.84-16.13 15.85-1.16.29-2.3-1.44-2.87-2.41v-.76c2-2.57 5-4.48 6.54-6.87-4.31-3.46-10.83-.13-15.33.53a46.72 46.72 0 01-21.54 2.14c-3.17.19-6.71-1.74-10.06-1.08-.09-.66-1.34.09-2.2-.11A30.78 30.78 0 00306 273c-1.34 1-1.15 2.29-1.55 3.54-.95.57-1.81-.49-3.06-.1-.18-1.26-.27-2.88-1.42-3.85l.19-.18c-1.15-1.34-3.44-.3-4.69-.88l-3.45.19c3.36-2.77 6.82-6.4 6.64-10.71-.86-1.34-2.77-.49-4-1a75.71 75.71 0 013.38-11.2 7.73 7.73 0 012 2.88c-.57.76-1.53 1.71-1.34 2.58.57.77 1.81.78 2.86.68 1.25 2.11 2.48 4.22 3.62 6.24-1.43.95-3.06 2.19-5 2.37-.67.38-.38.77-.19 1.24a13.93 13.93 0 0010.52 1.76c2.4-1.34 4.42-2.67 5.86-5.15.35-2.2.84-4.19.51-5.94l1.81.07c.87-.09 1.77-.32 2 0 1.63-.48 2.77.2 4.5-.57a10.75 10.75 0 003.64-.46c.87-2.49-2.29-4.31-2.29-6.52.68 0 .87-.77 1.26-1.06 0-.38 0-1.23-.67-1.43-1.72-.39-3.64-.68-5.75-1 3.85-5.25 9.13-9.82 13.74-14.79a17.07 17.07 0 012.58 3.73c.18 3.46-4.8 3.92-4.24 7.28a7.06 7.06 0 00-2.21 1.71A5.13 5.13 0 01330 246a1.67 1.67 0 001.05 1.35h.57c0 .76 1 .1 1.34.57 3.07-.66 5.85.31 9-1.21 3.83.78 6.51 1.93 10.33 2.8.67.77 2.31.49 3.06 1.73v.45l-1 .33c-.29.1-.57.27-.76.08l-.39.39c-1.44.37-3.15-1.08-4.4 1.13.56 2.39-3.45 1.52-1.73 4 1.61 3.36 5.54.5 7.74 2.42.58.29 2.29 1 3.25.48v.19a13.35 13.35 0 004.8-.84c2.87.78 6.12.5 8.8 1.56l.39-.86c.48.58 1 .38 1.34.68.47.29.38-.39.47-.3a6.16 6.16 0 01-1.78 3.05zm-33.78-29.1c.38 3.65 2.48 7 3.42 10.64-3.26 1.14-6 .65-9.29 1l-1.25-.48c1.44-1.34.4-4.21 2.8-4.69 1-.38.67-1.82 1.06-2.77 1.25-.81 2.96-2.15 3.26-3.68zm17.19 17.6c.66 2.17 2.86 4 4.49 5 .86-.19.86 1.16 1.72 1.25-4.7 2.57-8.52-1.94-12.93-.9-.48-.48-1.14-.87-.86-1.72a2.24 2.24 0 001.73-1.24c.1-.68.2-1.72 1.16-1.83a11.25 11.25 0 003.5-.3zm32.23-20.62a91.27 91.27 0 01-13 28.11c-1.43-1.15-2.87.28-4.11-.87l-.29.29c-3.25-.49-7.56 0-10.32-3.1-1.82-1-3.73-2.88-3.44-5.18-3.34-3.84-8.9-3.75-13.3-5.59a2.43 2.43 0 01-1.05-2.39c-2.66-4.51-2-10.35-6.28-14.2 1.83-1.42 3.55-1 5.47-1.81a2.54 2.54 0 001.25-2.76c-.66-.76-1.05-1.54-2.1-1.74-3.64-.77-6.33 2.48-9.69 3.62l-1.71-.2c2-1.62 4.8-3.15 7.09-3.23a5.76 5.76 0 001.92-2.29c.77-1.15-1.14-1.73-1.71-2.21-4.84.05-8.92 2.54-12.51 5.81l-2.25-.29c-5.55-2.54-12-3.34-17.13-6.19a10.81 10.81 0 003 .69c.64-.17 5.11-1.92 6.39-1.92s6.22 0 7.82.64 4.5.62 6.38.95a6.09 6.09 0 005.26-1.43 6.26 6.26 0 014.47-1.44c2.07.17 8.87-.76 11.49-.47 1.44.17 2.24.81 4.79 1s5.91.32 6.71-.48 3.18-2.07 6.86-1.75c2.41.21 6.06.47 8.3.79s5.42-.95 8.14-1.12a38.8 38.8 0 005.93-1.59c.3 7.04-.04 14.06-2.38 20.37z" fill="#50d6cc"/><path d="M394 209.32s-.23-9.94-1.68-16c-2.45-10.82-6.14-21.36-12.6-30.81-4.67-8.26-10.74-14.78-17.24-20.74-15.09-12.21-30.8-20.43-52.67-22.5-6.32-.51-17.63.22-20.27.47-8.33.55-16.14 3.88-23.62 6.54A92.93 92.93 0 00226.5 158c-9.43 13.28-14.48 29.18-16.25 45.54-.62 13.79.47 26.18 5.1 39.11 4.66 10.64 10.37 22.26 19.15 30.8a83.39 83.39 0 0035 23.3l8.89 3.31c13 3.38 33.56 2.07 33.55 2.27 0 0 6.39-.71 7.92-1.09.76-.57 9.58-2.84 10.54-3.13 0 0 8.7-3.48 10.91-4.24 7.19-2.65 14.12-8.32 20.36-13.11l3.08-2.57c3.07-4.2 6.34-6.11 9.51-10.42a90.89 90.89 0 0017.54-37s2.68-15.13 2.2-21.45zm-10.93 42.41c-2.89 6.88-7.2 12.27-12.29 18.19-.1 0-10.38 11.17-18.83 16.92 0 0-5.91 3.35-9.33 5.26a102.38 102.38 0 01-20.52 7.34 84.84 84.84 0 01-25.05 1.92 87.58 87.58 0 01-18.2-2.23s-18.83-6.86-22-9.25c0 0-13.25-7.83-20.06-16.18-11.28-10.57-17.08-23.61-21.92-36.93-3.35-12.64-4.5-23.21-3-35.95 2.71-24.26 14.66-48.28 36.73-63.44C262 128.67 274.34 122.5 290 121l9.74-.8c11.78 0 22 1.15 32.24 5.1a94.12 94.12 0 0138.41 26.1c3.72 2.79 15.69 21.79 18.88 34.71 3.36 9.42 4 24.1 4 24.1-.6 14.39-3.16 27.63-10.18 41.52z" fill="#50d6cc"/><path d="M256.84 159.7c.77-.85 1-.47 1.73-1.42l.95 1.53c-.87 2.58-2.87-.2-4.6.75a5 5 0 01-5 .95s-.29.09-.19 0a6.71 6.71 0 00-5.75.36c-1.34-.29-2.57-1.54-3.92-.68-1.05.47-1.82.19-3 .47.29-1.14 1.82-1.53 2.78-2l.19.09c1.35-.28 3.17-2.86 4.69-.65.87-.18 1.73-1 2.69-.47.66 1.92 2.2.67 3.35.3.48-.77 1.34-.58 2-.29l.57.49a15.1 15.1 0 001.53-1.06c.57.77.67 2.11 1.92 1.63M283.26 131.63a6.23 6.23 0 00-3.6.72 2.4 2.4 0 01-.82.12c-.74.35-.74 1.42-.49 2.15s1.2 1.07 1.91 1.31a3.2 3.2 0 002.16 0c.6-.11 1.07-.84 1.67-1a11.56 11.56 0 015.39-.12c1 0 2 .36 2.75 0s1.31-.6 1.79-.84c.84-.36 1.79.12 2.62.23a9.9 9.9 0 011.73-.28.81.81 0 001.05.1 7.12 7.12 0 011.9 0 .38.38 0 01.11.25c.49.36.37-.84 1.06.19 0-.08.15-.19 0 0a10 10 0 011.47-.08c.36 0 .24-.48.64-.59s.91-.36 1.39-.6a3.34 3.34 0 012.34-.05c.41.05.41-.43.67-.58a5.14 5.14 0 011.78.15c.24.11 0 .36 0 .43s.28.17.4.17a.81.81 0 00.45.7c1.23.13 2.66.49 3.35-.75.27-.07.75-.07 1-.11a2.8 2.8 0 001.47.27.68.68 0 00-.22-.45 8.17 8.17 0 012.25.45c1.8.72 3.72 1.56 5.63 1.2a1.73 1.73 0 001.19-1.2c0-.48.12-1-.11-1.32a2.47 2.47 0 00-2.73-1.51c-.14 0-.26-.4-.38-.4a17.79 17.79 0 01-4.5-.38c-.05 0-.05-.33-.1-.28a8.83 8.83 0 00-3.78-.41c-1.2.36-2 1.2-3.23 1.56s-2.15-.49-3.33-.7a3.59 3.59 0 00-2.77 1.25c-.24.17-1 .28-1.08-.07s-.6-.6-1-.72a3.11 3.11 0 00-2.46.18c-.29.06-.65-.18-1.05-.09a2.92 2.92 0 00-.79-1.65c-1.08-.6-2.28-.36-3.35-.47-.25 0-.36.36-.64.68a2.88 2.88 0 01-1.44.67c.17.09 0 .09 0 0a4.75 4.75 0 01-3.07.93 18.19 18.19 0 01-2.77.1c-1.54-.47-3.33-.47-4.41.85M282.18 140.73c-.84 0-1.79-.36-2.4.23-.47.37 0 1 .19 1.28a6 6 0 002.21.52 5 5 0 005.63 1.92c.72-.24 1.07-1.43 2-1.54a24.17 24.17 0 015.27.58c1.8.36 3.71.48 5.26-.55.85-.4 1.57.43 2.41.67.24.13 0 .6.46.58 1.09.14 2 0 3.13.26a6.67 6.67 0 002.63.11 4.19 4.19 0 001.33-.83c.23-.12.7.12.95 0a1.12 1.12 0 011.44.11c.11-.47.47-.23.83-.35v-.24c1.56.36 3.24-.11 4.79.36a4 4 0 002.63 0c.72-.24 1.32-1.2.84-1.79-.72-1-2.16-.47-3.24-.84-.83-.12-1.78.24-2.58 0a14.51 14.51 0 00-2-.83c-.83-.36-1.43-1.2-2.15-1.44a2.9 2.9 0 00-3.26.53c.15.07 0 .07 0 0a3 3 0 01-2.6.31 3.59 3.59 0 00-2.08-.32.82.82 0 00-.79.08c-.36.12-.6.72-1.08.6a1.3 1.3 0 00-1.31-.12c-.25.12-.6.36-.55.28-1.12.32-2 1-3 .67-.12-.11-.12-.23-.22-.39s-.5 0-.61-.2c-.61-1.08-1.92-.95-2.83-.95-.05 0-.17.23 0 0a3.87 3.87 0 01-2.56.11c-.84-.36-1.8-.83-2.64-.47-.12 0-.72.23-.36.63a1.66 1.66 0 01-1.34-.11 3.2 3.2 0 00-2.85.07c-.59.36-1.56.36-1.31 1.19-.12 0-.12-.11-.25-.11M324.07 149c-1.2-.71-2.87-.83-3.71.25s-1 2.87.36 3.35a2 2 0 00.84.12c1.31.23 2.75.47 3.71-.73 0-.11.12-.47-.12-.71a9.17 9.17 0 013.11.12c.72.23 1.19 1.07 1.91 1.19.48.13.72.48 1.2.48a4.84 4.84 0 001.32 0 6.56 6.56 0 011.68-1 2.65 2.65 0 011.92 0c.83.25 1.79.61 2.63.83a1.73 1.73 0 001.8-.47 1.77 1.77 0 01.83-.24 1.85 1.85 0 010-.43 6.24 6.24 0 001.16.19c.24.12.48.36.72.48.6.24 1.2 0 1.8.11a1.86 1.86 0 002.27-.6c.36-.24.84-.36 1.2-.59a1.43 1.43 0 011.2.12 1.74 1.74 0 001.31 0c.23 0 .23-.47.49-.55 1.18-.17 2.38.19 3.45-.17s2.16-2.16 1.2-3-2.51-.71-3.83 0c-.24.13-.36-.11-.62-.09-.1 0-.1.33-.19.29h-3.25a4.21 4.21 0 01-3 0 5.29 5.29 0 00-1.7 0c-.11 0-.24-.25-.4-.24-1.27.24-2.35 1.55-3.66 1a3.38 3.38 0 01-1.2-.84c-.12 0-.24.13-.31.07a4 4 0 00-3.4-.31c-.12 0-.48.48-.72.59a9.54 9.54 0 01-5.5-.7 1.75 1.75 0 00-1.2.19 5.1 5.1 0 01-1.56 0c-.72.12-1.07.72-1.79 1M355.56 157.61c-1.2-.13-2.4-.84-3.36-.24s0 1.67.72 2.27a15.62 15.62 0 002 1 7.88 7.88 0 003.35 0c.48-.11 1.08-.36 1.08-1.07h.72c1.06 0 2.15-.36 3.22 0a2.22 2.22 0 01.73.1c.58.48 1.3 1.09 1.78.61 1.08-.71.61-1.92.36-3-.11-.59-1.07-.47-1.67-.47-.12 0-.36-.23-.46-.2a2.91 2.91 0 01-2.54.33c-1.56-.48-3.35-1.08-4.78.11-.11.12-.47 0-.71 0M352.13 163.07c.21.18 0-.2 0 0 0-.2 0 0 0 0a15.32 15.32 0 01-4.35-.09 3 3 0 00-2-.24c-.24 0-.47.13-.83.13v.27c-.3.08-.3 0-.2.19-.93-.22-1.65.25-2.25-.11s-1.55-1-2.27-.6c-.11 0-.36.35-.45.5a2.81 2.81 0 01-1.94 0 5.46 5.46 0 00-3.83.71 1.7 1.7 0 01-1.32.12 14.05 14.05 0 01-1.24-.83 6.18 6.18 0 00-3.07.55c-.72.16-1.56.16-1.91-.55a.46.46 0 01.19-.31c-1.52 0-4.15-.4-4.39 1.63 0 .47.6.94.74 1.14a18 18 0 006.6 1.55c-.16-.19 0 0 0 0a2.34 2.34 0 001.34-.58 3.39 3.39 0 011.37-.08 7.22 7.22 0 004.67 1.2c.48-1.2 1.8-.6 2.77-.89a.61.61 0 01.19.57 1 1 0 011 .1 10.78 10.78 0 002.67-.14c0-.12-.12-.24-.08-.33.32.09.68-.27 1.05 0v-.4a4.9 4.9 0 012.79.21 4.08 4.08 0 00.86 0c.29-.08.65-.44.86-.28s.63.07.86.29a2.94 2.94 0 002.28-.09c1.2-.72.6-2.28.6-3.48 0-.11-.24.25-.67-.15M321.68 171.25a5.18 5.18 0 00-2.39.49c-1 .34-1.92.11-2.87.7-.48.36-1.32.12-2 .12.24.36-.12.83 0 1.2a2.5 2.5 0 001.79 1.31 11.54 11.54 0 003.47-.11c.48 0 .48-.72.84-1.08.72-.71 1.56-.24 2.39-.35 1.32 2 3.83 1.07 5.75 1.43.72-.83 1.92-1.43 1.92-2.75a4.49 4.49 0 01-.93 0c-.75-.52-1.34-1.13-2.18-.76-1.2.36-2.76.95-3.83.36-.6.58-.84-.36-1.56-.36M259.73 156.25l4.5-2 6.46 17-4.31 2.57-6.65-17.54M268.41 151l4.87 20 4.5-1.33-4.34-20.12-5 1.44M280.62 148.17l-.71 21.76 4.06 1.31 1.25-22.68-4.6-.39M284.93 172.33l1.44 3.36 11.61-15-2.28-4.18-10.77 15.79M287.53 177.49l.63 3.1 15.2-7.54-.1-4.81-15.73 9.25M288.4 182.38v3.35l15.21-4.07-.25-3.95-15 4.67" fill="none" stroke="#50d6cc" stroke-linecap="round" stroke-linejoin="round" stroke-width=".9"/><path fill="#50d6cc" d="M379.95 199.25l.29.2.19-.2h-.48zM378 203.91a1.44 1.44 0 01-.33-1 3.9 3.9 0 00.06-.53l-.05.05c.07-.73.31-1.5.31-2-.38.39-.48.39-.67.87l.19.09c-.57.39-.38.87-.38 1.25a.73.73 0 00-.18 1 1.66 1.66 0 00-.08 1c-.72.57 0 1.39.35 1.64a3.88 3.88 0 00-.46 1.4 2.51 2.51 0 00.49-.27c-.09.58-.76 1.54-.76 2.21 1.31-.51 1.29-1.73 1.25-2.8.42-.88.15-2.07.26-2.91zm-.48 1.54a2.66 2.66 0 01-.08-1.2.72.72 0 00.18.12c.43.41-.14.7-.14 1.08z"/><path fill="#50d6cc" d="M376.91 207.84l-.19-.18-.29.2.48-.02zM370.71 198.9c0 .67.66 1.63.76 2.21 0 .38.58.67.09 1a3.45 3.45 0 00.09-.66c-.38.38-.48.38-.67.87l.19.09c-.57.38-.38.86-.38 1.25-.86.67.38 1.72.48 1.72.48.39-.09.67-.09 1.07-.1.56-.77 1.52-.76 2.19 1.34-.53 1.28-1.81 1.23-2.89l.33.31c0-.87-.76-2.59 0-3.44-.13-1.13.45-3.04-1.27-3.72zM370.41 198.72l.29.18.19-.18h-.48zM367.36 207.3l-.19-.18-.29.18h.48zM359.48 204.4c-.1-1.16.48-3.06-1.24-3.74l.18-.18H358l.28.2a2.89 2.89 0 00.29 1 1.44 1.44 0 00-.47.68l.19.09c-.57.38-.38.86-.38 1.25-.86.67.38 1.72.48 1.72.47.39-.09.67-.09 1.06-.1.56-.77 1.52-.76 2.21a2 2 0 001.24-2 1.14 1.14 0 00.25.23l-.19.09c.19.47.28.47.67.85-.04-.86-.8-2.6-.03-3.46zm-1 .12a5.56 5.56 0 01.17-2.52 3.86 3.86 0 01.33.87c0 .37.58.66.1 1a1.9 1.9 0 00-.59.65zM354.89 209.06l-.19-.18-.28.18h.47zM355.94 205.13c-.76-.85 0-2.58 0-3.44-.38.38-.47.38-.66.86l.19.09c-.58.39-.39.86-.38 1.25-.86.67.38 1.73.48 1.73.47.38-.1.67-.1 1-.09.58-.76 1.54-.76 2.21 1.72-.63 1.14-2.54 1.23-3.7zM364.03 198.23l.29.2.19-.19-.48-.01z"/><path d="M362 202.89c-.77-.85 0-2.57 0-3.44-.39.38-.48.38-.67.86l.19.1c-.57.38-.38.85-.38 1.25a.65.65 0 00-.22.26v-.11c-.76-.86 0-2.59 0-3.45-.38.39-.47.39-.67.86l.19.09c-.57.39-.38.87-.38 1.26-.86.66.39 1.73.48 1.72.48.38-.09.68-.09 1.05-.1.57-.76 1.54-.76 2.21 1.38-.54 1.28-1.88 1.23-3a1.87 1.87 0 00.7.82c.48.38-.1.67-.09 1.05-.1.58-.76 1.54-.76 2.21 1.75-.63 1.16-2.58 1.23-3.74zM360.98 206.82l-.19-.18-.29.18h.48zM351.74 199l.29.19.19-.19h-.48zM348.69 207.59l-.19-.19-.29.2.48-.01zM341.69 209.69l-.19-.18-.29.2.48-.02zM339.42 206.53c0-.86-.76-2.58 0-3.45-.09-1.15.5-3.06-1.23-3.74 0 .68.67 1.64.76 2.21 0 .37.58.67.1 1-.1 0-1.34 1.06-.48 1.73 0 .38-.2.86.38 1.25l-.19.09c.18.52.24.52.66.91zM337.9 199.16l.28.18.19-.18h-.47zM335.89 203.81c-.76-.85 0-2.58 0-3.45-.38.39-.47.39-.67.87l.19.1c-.57.38-.38.85-.38 1.24-.85.67.39 1.73.49 1.73.47.38-.1.67-.1 1-.09.58-.76 1.53-.76 2.2l-.28.19h.47l-.18-.18c1.71-.63 1.13-2.51 1.22-3.7zM332.17 205l.11.11a.57.57 0 00-.11-.11zM331.31 201.75l.29.18.19-.18h-.48z" fill="#50d6cc"/><path d="M331.61 201.93a1.92 1.92 0 00.11.56h-.4l.28.19.14-.14a1.86 1.86 0 00.1.25l-.23-.1a23.77 23.77 0 00.88 2.51.27.27 0 01-.17-.08c.38.48-.76 1-.51 1.58a.72.72 0 00.19 1c0 .39-.19.87.38 1.25l-.19.09c.19.49.28.49.67.87a5.43 5.43 0 00-.12-.87l.13.13c0-.49-.24-1.26-.31-2a1.42 1.42 0 01.31-.71 5.76 5.76 0 010-.72v-.15-.79c.02-1.11.05-2.35-1.26-2.87zM328.26 210.33l-.19-.18-.29.18h.48zM329.31 206.41c-.76-.86 0-2.59 0-3.45-.38.39-.47.39-.66.86l.19.09c-.58.4-.39.87-.39 1.26-.86.67.39 1.72.49 1.72.47.38-.1.68-.1 1.05-.09.58-.76 1.54-.76 2.21 1.72-.67 1.14-2.59 1.23-3.74zM325.37 199.19l.28.2.19-.2h-.47zM322.31 207.79l-.19-.19-.28.19h.47zM318.76 202.18l.29.19.19-.19h-.48zM315.71 210.78l-.19-.19-.29.19h.48zM313.78 199.34l.29.19.19-.19h-.48zM315.31 203.28c-.1-1.15.48-3.06-1.24-3.74 0 .67.66 1.63.76 2.21 0 .38.57.68.09 1-.1 0-.19-.08-.29-.19.77.59-1.05 1.25-.19 1.93 0 .38-.19.85.38 1.24l-.19.09c.19.48.28.48.67.86 0-.82-.76-2.55.01-3.4zM309.13 204.14l.29.19.19-.19h-.48zM307.26 204.24a2.58 2.58 0 00-.55.62 2 2 0 00-1.25-2.1c0 .67.66 1.63.76 2.21 0 .21.18.39.25.58a1 1 0 00-.08.4l-.07.07c-.1 0-1.35 1-.49 1.72 0 .38-.19.86.38 1.24l-.19.11a1.62 1.62 0 00.57.75 4.72 4.72 0 00-.55 1.59c1.72-.69 1.14-2.58 1.24-3.74v-.06h.25l-.19-.19-.12.09c-.61-.91.05-2.48.04-3.29zm-.47.95l-.08.06v-.09zm0 4a2.27 2.27 0 01-.13.43 10.21 10.21 0 01-.29-2.35c.26.37.67.73.23 1 .1-.09.19-.18.29-.18.47.46-.1.75-.1 1.13zM306.22 211.61l-.19-.18-.28.19.47-.01zM303.73 200c0 .67.67 1.64.76 2.21 0 .37.58.67.1 1-.1 0-1.34 1.06-.48 1.73 0 .38-.2.86.38 1.25l-.19.09c.19.47.28.47.67.87 0-.87-.76-2.61 0-3.46-.1-1.13.48-3.04-1.24-3.69zM303.44 199.79l.28.18.19-.18h-.47zM301.44 204.45c-.77-.85 0-2.59 0-3.45-.39.39-.48.39-.67.86l.19.09a.88.88 0 00-.4.93 1.94 1.94 0 00-.55-.32 3.38 3.38 0 00.4 1.27 4.34 4.34 0 01.36.93.65.65 0 00.09.29l-.08.06.08-.06c.14.25.35.48 0 .77-.09 0-1.31 1-.49 1.7a1.89 1.89 0 00-.15.66l.12-.06a.83.83 0 00.41.67l-.19.09c.19.48.29.48.67.87 0-.5-.24-1.29-.31-2 .82-.88.44-2.34.52-3.3z" fill="#50d6cc"/><path fill="#50d6cc" d="M300.39 208.38l-.19-.19-.29.19h.48zM297.93 199.16c0 .67.67 1.63.76 2.21 0 .37.57.66.1 1-.1 0-1.34 1-.48 1.71 0 .4-.2.87.38 1.25l-.19.1c.19.48.28.48.66.86 0-.87-.75-2.59 0-3.45-.09-1.1.49-3.01-1.23-3.68zM297.64 198.96l.28.2.19-.2h-.47zM294.58 207.55l-.19-.19-.28.19h.47zM295.24 199.34l.29.19.19-.19h-.48zM292.19 207.94l-.19-.19-.28.19h.47zM293.25 204c-.77-.87 0-2.59 0-3.45-.39.39-.48.39-.68.86l.19.09c-.57.39-.38.87-.38 1.25-.85.67.39 1.73.49 1.73.48.38-.1.68-.1 1.05-.09.57-.76 1.53-.76 2.21 1.72-.66 1.14-2.57 1.24-3.74zM305.16 202.56l.29.2.19-.2h-.48zM302.12 211.16l-.19-.2-.29.2h.48zM303.17 207.23c-.77-.86 0-2.58 0-3.45-.39.38-.48.38-.67.87l.19.09c-.57.38-.38.86-.38 1.24-.86.68.38 1.73.48 1.73.48.38-.1.67-.09 1-.1.57-.76 1.53-.76 2.2 1.71-.62 1.13-2.53 1.23-3.68zM299.7 202.38l.29.18.19-.18h-.48z"/><path d="M297.7 207c-.77-.86 0-2.59 0-3.45-.39.39-.48.39-.67.86l.19.09c-.57.4-.38.87-.38 1.26a.75.75 0 00-.17.19c-.17-.9-.47-2.06.11-2.71-.09-1.15.49-3.06-1.23-3.74 0 .67.66 1.63.76 2.21 0 .38.57.68.09 1a1.84 1.84 0 00-.75 1 .91.91 0 010-.17c-.77-.86 0-2.58 0-3.45-.39.38-.48.38-.67.87l.19.09c-.57.38-.38.86-.38 1.25-.86.67.38 1.72.48 1.72.48.38-.1.67-.1 1.07-.09.56-.76 1.52-.76 2.19 1.51-.59 1.25-2.13 1.23-3.28a.72.72 0 00.27.45c0 .38-.19.85.38 1.24l-.19.09a1.41 1.41 0 00.47.67 1.85 1.85 0 00.75 1c.48.38-.1.67-.09 1-.1.58-.76 1.54-.76 2.21 1.72-.56 1.13-2.47 1.23-3.66zM296.65 210.97l-.19-.19-.29.19h.48zM310.84 199.23a5.26 5.26 0 00.59 1.69 1.29 1.29 0 00-.32.52l.19.09c-.58.39-.39.87-.38 1.25-.4.31-.23.61 0 .91a.74.74 0 00.29.54v.39l-.08.07.08-.07a.81.81 0 00.2.66.58.58 0 00-.09.28 16.77 16.77 0 01-.62 1.58c0-1.06.06-2.29-1.25-2.8 0 .68.66 1.64.76 2.2 0 .39.57.68.09 1.06-.1 0-1.34 1-.48 1.72 0 .39-.19.87.38 1.25l-.19.1c.19.48.28.48.67.86 0-.86-.76-2.59 0-3.45a.57.57 0 010-.13h.07l-.07-.07v-.16a1.88 1.88 0 001.11-1.59l.3.29c0-.46-.21-1.16-.29-1.84a5 5 0 010-.55v-.05a1.54 1.54 0 01.33-1c-.13-1.17.43-3.08-1.29-3.75zm.84 3.25a.8.8 0 00-.23.18 8 8 0 01.16-1.09c.11.32.49.58.07.91zM310.54 199.03l.29.19.19-.19h-.48zM308.55 203.69c-.77-.86 0-2.58 0-3.45-.38.39-.47.39-.66.87l.18.09c-.57.4-.38.87-.38 1.25-.85.67.39 1.72.49 1.72.48.38-.1.67-.1 1.05-.09.58-.76 1.54-.76 2.21 1.68-.68 1.13-2.58 1.23-3.74zM315.97 202.7l.29.18.19-.18h-.48zM314 207.36c-.76-.86 0-2.58 0-3.45-.38.39-.47.39-.67.86l.19.1c-.57.38-.38.86-.38 1.24-.86.67.39 1.72.48 1.72.48.4-.09.68-.09 1.07-.1.57-.77 1.53-.77 2.21 1.71-.68 1.13-2.6 1.24-3.75zM312.93 211.28l-.19-.17-.29.18.48-.01zM322 202.64c-.1-1.16.49-3.07-1.24-3.75 0 .67.67 1.63.76 2.21 0 .37.58.66.1 1-.1 0-1.34 1.06-.48 1.72 0 .4-.2.87.38 1.25l-.19.1c.19.48.28.48.67.86 0-.82-.79-2.54 0-3.39zM320.45 198.71l.28.19.19-.19h-.47z" fill="#50d6cc"/><path d="M318.45 203.37c-.77-.86 0-2.59 0-3.45-.38.39-.47.39-.67.86l.19.09c-.57.39-.38.87-.38 1.25-.85.68 1 1.34.2 1.92.1-.1.19-.18.29-.18.48.37-.1.67-.1 1a6.06 6.06 0 01-.46 1.17c0-1.13.24-2.61-1.23-3.2a2.35 2.35 0 00.2.8 1.35 1.35 0 00-.37.58l.18.1c-.57.38-.38.85-.38 1.25-.85.67 1 1.34.2 1.91a.58.58 0 01.25-.17.65.65 0 00.21.41c-.07.2-.27.4-.27.62-.09.58-.76 1.54-.76 2.21a1.87 1.87 0 001.23-1.71.89.89 0 00.26.25l-.19.09c.19.47.28.47.66.86a14.88 14.88 0 01-.28-2.77h.18l-.15-.15v-.07c1.66-.64 1.09-2.52 1.19-3.67zm-1.83 3.24a4 4 0 010-2.47 4.26 4.26 0 01.36 1c0 .38.57.67.1 1a1.75 1.75 0 00-.46.47zM323 202.7c0-.81.33-1.73.33-2.29-.39.38-.48.38-.67.85l.19.11c-.57.38-.38.85-.38 1.23-.86.69.38 1.74.48 1.74.48.37-.1.67-.09 1-.1.58-.77 1.53-.77 2.21 1.73-.67 1.14-2.58 1.24-3.73a1.66 1.66 0 01-.34-1.15l.27.18.19-.19z" fill="#50d6cc"/><path d="M323.31 202.89c0 .68.67 1.64.76 2.21 0 .38.57.67.1 1.05-.1 0-1.35 1.06-.48 1.73 0 .38-.2.85.38 1.25l-.19.09c.19.47.28.47.67.86 0-.86-.76-2.58 0-3.45-.1-1.15.45-3.05-1.24-3.74zM321 207.37c-.76-.86 0-2.58 0-3.44-.38.38-.47.38-.67.85l.19.11a.78.78 0 00-.21.19c0-1 0-2.21-1.25-2.7 0 .68.66 1.64.76 2.2 0 .39.57.68.09 1.06-.09 0-1.34 1.05-.48 1.72 0 .39-.19.87.38 1.25l-.19.1c.2.48.29.48.67.86a14.69 14.69 0 01-.29-2.75c.23.43.85.85.35 1.24.1-.11.19-.19.29-.19.47.37-.1.67-.1 1-.09.57-.76 1.53-.76 2.21 1.72-.65 1.14-2.56 1.22-3.71zM319.96 211.29l-.19-.17-.28.19.47-.02zM329.4 198.72l.28.18.19-.18h-.47zM329.69 198.9c0 .67.67 1.63.76 2.21 0 .38.58.67.1 1-.1 0-1.34 1.05-.48 1.72 0 .4-.19.87.38 1.25l-.19.11c.19.47.28.47.67.85 0-.87-.76-2.59 0-3.44-.1-1.11.48-3.02-1.24-3.7zM326.34 207.3l-.19-.18-.28.18h.47zM327.39 203.38c-.76-.85 0-2.59 0-3.46-.32.34-.44.4-.58.7a1.78 1.78 0 00-1.14-1.23c0 .67.67 1.62.76 2.21a.67.67 0 00.1.29 1.94 1.94 0 010 .24.69.69 0 00-.26.37v-.05.05a.83.83 0 000 .56c-.25.41-.85.85-.28 1.3 0 .39-.2.86.38 1.25l-.19.1a1.5 1.5 0 00.22.41 2.6 2.6 0 00-.29 1c1.77-.68 1.19-2.59 1.28-3.74zm-.48-2.5a.13.13 0 010-.06zm0 4a2.37 2.37 0 01-.19.57 3.89 3.89 0 01-.06-1.91 1.21 1.21 0 00.35.3c.47.4-.1.69-.1 1.07zM337 199.15c0 .67.67 1.63.76 2.21 0 .38.57.67.09 1-.09 0-1.34 1.05-.48 1.72 0 .39-.19.86.38 1.25l-.19.09c.2.48.29.48.67.87 0-.87-.75-2.59 0-3.46-.12-1.09.46-3-1.23-3.68zM336.68 198.96l.28.19.19-.19h-.47zM333.62 207.55l-.19-.19-.28.19h.47zM334.67 203.62c-.76-.86 0-2.58 0-3.45-.38.38-.47.38-.66.85l.19.11c-.58.38-.39.86-.38 1.25-.86.67.38 1.72.48 1.72.47.38-.1.67-.1 1.06-.09.57-.76 1.53-.76 2.2 1.72-.68 1.14-2.59 1.23-3.74zM340.46 205.94c-.76-.87 0-2.59 0-3.46-.38.39-.47.39-.66.87l.19.09c-.58.4-.39.87-.38 1.25-.86.67.38 1.72.48 1.72.47.38-.1.67-.1 1.05-.09.59-.76 1.54-.76 2.21 1.77-.67 1.14-2.59 1.23-3.73zM339.41 209.86l-.19-.19-.28.19h.47zM346.58 198.63l.29.19.19-.19h-.48zM346.87 198.82c0 .67.66 1.63.76 2.19 0 .4.57.69.09 1.07-.1 0-1.34 1-.48 1.72 0 .39-.19.87.38 1.25l-.19.1c.19.48.28.48.67.86 0-.86-.76-2.59 0-3.45-.1-1.15.5-3.06-1.23-3.74zM344.58 203.3c-.77-.86 0-2.59 0-3.46-.38.39-.48.39-.67.87l.19.09c-.57.39-.38.87-.38 1.25-.8.64.74 1.26.32 1.81a.26.26 0 01.16-.09c.48.38-.09.67-.09 1a5.68 5.68 0 01-.47 1.19c0-1.07.22-2.44-1-3.08a3.8 3.8 0 00.07-.61l-.3.29h-.32l.2.13a1.37 1.37 0 00-.25.45l.19.09c-.58.39-.38.86-.38 1.25-.86.67.39 1.73.48 1.73.48.37-.09.67-.09 1-.1.58-.77 1.54-.77 2.21a1.89 1.89 0 001.23-1.75c0 .38-.19.85.38 1.23l-.19.11c.19.47.29.47.67.86a14.3 14.3 0 01-.29-2.78h.19l-.15-.15v-.06c1.74-.57 1.18-2.44 1.27-3.58zm-1.84 3.26a6.93 6.93 0 010-.79c-.5-.55-.35-1.48-.19-2.29a13.78 13.78 0 01.61 1.53c0 .38.57.68.09 1.05a1.73 1.73 0 00-.51.5zM344 203.86l-.12.11zM349.44 202.82a.88.88 0 000 .16v-.17l.19-.18h-.21c0-.85.33-1.84.33-2.43-.39.39-.48.39-.67.87l.19.09c-.58.39-.38.87-.38 1.25-.87.67.38 1.72.48 1.72.48.39-.1.67-.1 1.05-.09.58-.76 1.54-.76 2.21 1.62-.63 1.2-2.36 1.23-3.53a6.07 6.07 0 01.45 1.15c0 .38.58.68.1 1.06-.1 0-1.35 1-.49 1.73 0 .38-.19.85.39 1.23l-.19.11c.19.47.28.47.67.86 0-.87-.76-2.6 0-3.45-.09-1.15.49-3.06-1.23-3.73zM345.33 209.19l-.19-.19-.28.19h.47zM346.39 205.26a1.2 1.2 0 01-.13-.21c-.06-.63.09-1.48 0-2.23a5.4 5.4 0 00.15-1l-.36.35a1.75 1.75 0 00-1-.86l.18-.19h-.47l.28.19a5.54 5.54 0 00.61 1.73c-.23.33-.11.68-.11 1-.48.38-.3.87 0 1.23-.26.34-.54.68-.1 1 0 .37-.15.8.29 1.17l-.08.17a3.77 3.77 0 00-.44 1.36 1.83 1.83 0 00.89-.69l.2.19a3 3 0 00-.05-.48 8.37 8.37 0 00.14-2.73zm-.34-1.12a.29.29 0 010 .16.81.81 0 010-.16zm-.08 1.57c.39.32.08.57 0 .86a2.88 2.88 0 01.03-.86zM355.53 198.63l.29.19.19-.18-.48-.01zM355.83 198.83c0 .68.66 1.64.76 2.2 0 .39.57.69.09 1.06-.1 0-1.34 1-.48 1.73 0 .38-.19.86.38 1.24l-.19.11c.19.47.28.47.67.85 0-.86-.76-2.59 0-3.45-.06-1.15.48-3.06-1.23-3.74zM352.47 207.24l-.19-.2-.28.2h.47z" fill="#50d6cc"/><path d="M353.53 203.31a1.38 1.38 0 01-.27-.54v-1.5a8.26 8.26 0 00.22-1.42c-.18.19-.3.29-.4.4a1.72 1.72 0 00-1.08-1.06 8.06 8.06 0 00.69 2 1.79 1.79 0 00-.06.91.7.7 0 00-.26.83c-.28.36-.5.88 0 1.27 0 .39-.19.87.38 1.25l-.19.11.11.22a3.7 3.7 0 00-.42 1.3 1.81 1.81 0 00.92-.72l.05.05v-.13c.52-.91.24-2.14.31-2.97zm-.49 1.52v.07a3.81 3.81 0 01-.07-1.25.61.61 0 00.18.13c.46.38-.15.67-.15 1.05zM362.77 201.3c0 .69.67 1.65.76 2.21 0 .39.57.68.1 1.06-.1 0-1.34 1.05-.49 1.73 0 .38-.19.86.38 1.24l-.19.1c.2.47.29.47.67.86 0-.87-.75-2.59 0-3.45-.09-1.16.49-3.05-1.23-3.75zM362.47 201.11l.29.18.19-.18h-.48zM368.13 198.83c0 .68.66 1.64.76 2.21 0 .38.57.68.09 1.05a1.8 1.8 0 00-.75 1c-.41-.91.19-2.37.18-3.15-.38.4-.47.4-.66.87l.18.09c-.57.39-.38.87-.38 1.25-.86.68.39 1.74.49 1.74.47.37-.1.66-.1 1-.09.57-.76 1.53-.76 2.21 1.56-.61 1.23-2.24 1.22-3.4a.81.81 0 00.09.1c0 .38-.19.86.38 1.24l-.19.11c.19.47.29.47.67.85 0-.86-.76-2.59 0-3.45-.09-1.13.49-3.04-1.22-3.72zM367.83 198.64l.29.19.19-.18-.48-.01zM365.83 203.31a1.63 1.63 0 01-.33-1.05.53.53 0 01.06-.1 5 5 0 010-.67 15.69 15.69 0 00.26-1.63l-.27.26a1.85 1.85 0 00-1.22-1.69c0 .67.66 1.63.76 2.19a.68.68 0 00.11.33.77.77 0 00-.26.58v.54a.68.68 0 00-.27.43c-.22.29-.39.6 0 .91 0 .38-.19.86.38 1.24l-.19.1a1.38 1.38 0 00.33.53 6.06 6.06 0 00-.62 1.77c1.75-.68 1.17-2.59 1.26-3.74zm-.43 1.32c-.06-.32-.12-.66-.16-1a.63.63 0 00.2.14c.39.33.1.57-.04.86zM364.78 207.24l-.19-.19-.29.19h.48zM372.69 201.75l.29.19.19-.19h-.48zM373 201.94c0 .67.66 1.62.76 2.2 0 .38.58.68.09 1.06-.09 0-1.34 1.05-.48 1.72 0 .38-.19.85.38 1.24l-.19.1c.2.48.29.48.67.87 0-.87-.75-2.59 0-3.46-.1-1.15.48-3.05-1.23-3.73zM370.56 208.86l-.19-.19-.29.19h.48zM378 198.51c0 .67.67 1.63.76 2.21 0 .38.57.67.1 1-.1 0-1.34 1.05-.49 1.72 0 .39-.19.87.38 1.25l-.18.1c.19.48.28.48.66.86 0-.87-.75-2.59 0-3.44-.06-1.12.52-3.03-1.23-3.7zM377.73 198.31l.29.19.19-.19h-.48zM376.12 202.4c-.76-.86 0-2.58 0-3.45-.38.38-.47.38-.67.86l.19.1c-.57.38-.38.86-.38 1.24-.86.68.39 1.73.48 1.73.48.38-.09.67-.09 1.06-.1.56-.76 1.53-.76 2.2 1.72-.67 1.11-2.59 1.23-3.74zM375.07 206.32l-.19-.18-.29.18h.48zM381.51 201.79a2.14 2.14 0 00-1.26-2.34 3.45 3.45 0 00.38 1.23h-.43l.28.19.17-.17.13.3a2 2 0 00-.29-.14 6.24 6.24 0 00.65 1.82s-1.34 1-.49 1.72a5.82 5.82 0 000 .6.71.71 0 00.24.8c0 .39-.19.86.38 1.23l-.19.11c.19.47.28.47.66.85a8.51 8.51 0 00-.23-1.43 3.75 3.75 0 00-.09-.68 1.8 1.8 0 01.33-1.33 8 8 0 00-.24-2.76zm-.18 2.33a.72.72 0 00-.18.12 1.88 1.88 0 01.2-.83c.14.23.3.45-.02.71zM376.64 209.8l-.19-.19-.28.2.47-.01zM386.69 198.32l.28.2.19-.2h-.47zM387 198.52c0 .67.67 1.62.76 2.2 0 .38.57.67.1 1.05-.1 0-1.35 1-.48 1.72 0 .39-.2.87.38 1.25l-.19.09c.19.49.28.49.66.87 0-.87-.75-2.59 0-3.44-.11-1.16.47-3.07-1.23-3.74zM384.68 203c-.76-.87 0-2.58 0-3.45-.38.38-.47.38-.67.86l.19.1c-.57.38-.38.86-.38 1.24a.85.85 0 00-.2.23c0-1-.06-2-1.25-2.51 0 .67.66 1.64.76 2.21 0 .38.57.66.09 1.05-.09 0-1.34 1.05-.48 1.73 0 .37-.19.85.38 1.24l-.19.09a1.69 1.69 0 00.55.76 1.23 1.23 0 000 .19c1.69-.69 1.11-2.61 1.2-3.74zm-.48 1.54c-.07.43-.48 1.1-.66 1.69-.15-.92-.6-2.28 0-3a5.61 5.61 0 010-.58 1.84 1.84 0 00.7.84c.53.36-.04.65-.04 1.04zM383.63 206.92l-.19-.19-.28.19h.47zM357.68 208.87l-.19-.18-.29.18h.48zM359.89 205.73l-.19-.18-.29.18h.48zM385.4 208.35l-.19-.19-.29.19h.48zM386.45 204.42c-.77-.85 0-2.58 0-3.44-.38.38-.48.38-.67.85l.19.1c-.57.39-.38.86-.38 1.26-.86.67.38 1.71.48 1.71.48.39-.09.68-.09 1-.1.57-.76 1.54-.76 2.21 1.71-.63 1.13-2.54 1.23-3.69zM382.06 199.27l.29.19.19-.19h-.48zM381.26 215.32l.15.23.04-.05-.19-.18z" fill="#50d6cc"/><path d="M380.88 215.23h-.09v.67h.1a1.62 1.62 0 00.72-.08l-.19-.27-.34.34c-.29-.19-.08-.48-.2-.66z" fill="#50d6cc"/><path d="M381.7 215.79h-.1v.08zM381.74 215.7v.09c.07-.04.11-.09 0-.09zM378.68 215.89c.19-.11.28.09.38.19l-.19.1H380c.76 0 .28-.48.38-.86-.38.29-.95.29-1.05.76-.1-.19-.38-.3-.28-.57-.46.35-.82 0-1.18.46.35.16.8.43.81-.08z" fill="#50d6cc"/><path d="M377.81 216.07a.86.86 0 01.07-.1.63.63 0 00-.26-.08zM368.81 217c.58-.29 1.15-.86 1.73-.48a6.66 6.66 0 00.95-.66c-.75 0-2.09.84-2.8 1zM368.34 216.91a.64.64 0 00.35 0l-.16-.16zM371.6 215.85h-.1zM367.28 216.91v-.39a4.38 4.38 0 01-1.53-.67l-.19.28c-.1 0-.19-.19-.29-.09s0 .37-.19.47a2.9 2.9 0 01-.76.44h.09c.86-.44 1.59-.95 2.87-.04zM364.22 216.89a2 2 0 01-.27.17l.37-.11zM353.48 221l.19-.18-.24.12.05.07zM353.43 220.92l-.24-.32c-1.63.38-3.35-.11-4 .85 1.32-.09 2.93.16 4.24-.53zM356.42 226.36a.43.43 0 00-.12.11 1.18 1.18 0 00.38 0c-.08-.1-.15-.16-.26-.11zM355.85 226.16l-.29.28c-.19 0-.19-.28-.18-.47l-.19.19c-.1-.28-.39-.85-.86-.68-.77.87.57.3.85 1.16.19.19.86.38.86-.19a.49.49 0 01.19.38.7.7 0 01.07-.36 1.71 1.71 0 01-.55-.12zM356.91 226.83c-.28.28-.08.17 0 0z" fill="#50d6cc"/><path d="M358.62 226.45c-.09 0-.18-.09-.18-.28-.67-.2-1.15.18-1.76.28a1 1 0 00.22.2c.06 0 0 .12 0 .18a.53.53 0 01.38.2v-.58h.86v.2zM349.72 227.68c1.15-.09 3.06.48 3.74-1.24-.68 0-1.64.67-2.21.77-.38 0-.67.56-1.05.09a.49.49 0 01.19-.29c-.57.77-1.24-1.06-1.92-.2-.38 0-.86-.2-1.24.39l-.1-.19a1.39 1.39 0 00-.65.45c-1.42.15-2.79-.1-3.37.73 1.35-.09 2.95.16 4.26-.53l-.1-.13c.85-.18 1.85-.38 2.45.15z" fill="#50d6cc"/><path fill="#50d6cc" d="M353.65 226.15l-.2.28.2.2v-.48zM361.77 234.59c-.67.87-1.54.58-2.3.19.19.19.57.39.57.68-1.62 1.24-3.35-1.73-4.69-.21-1 .38-2.59.57-3.45-.48l.19-.2c-.28-1.05-1.43-.09-1.53-.19-1.72.57-2.11.38-3.64 1.42a5.93 5.93 0 002.2-.75c1.15.1 2.4-1.35 2.78.57 1.34 1.16 3.17 0 4.31-.37 1.43 1.25 3.16.68 4.79.4.19-.95 1.91-.29 1.44-1.43-.29-.1-.44.19-.67.37zM373.06 240zM358.95 248.82h.01-.01zM360.49 248.45c-.38.38-.57 0-1 .37-.17 0-.11.13-.13.27a.32.32 0 01.13-.07c.71.29.9-.57 1-.57z"/><path d="M359.4 249.09a.27.27 0 00-.06.1.11.11 0 00.06-.1zM359.34 249.49a1.5 1.5 0 010-.3.26.26 0 01-.19 0 .56.56 0 01-.19-.4c-1.82.57-1.71-2.1-3.63-1.92-1.16 0-2.88.76-3.74.36 1 1.54 1.92-.46 3.06.31 1.73-1.21 3.06 2.61 4.69 1.95zM371.3 249.47c.29-.19.86-.19.77-.66h-1.37a1.75 1.75 0 01.32.29.56.56 0 01-.42.13.66.66 0 010 .24z" fill="#50d6cc"/><path d="M370.6 249.23c-.05-.11-.15-.07-.26 0a.75.75 0 00.26 0zM370.35 248.8h.35a.28.28 0 00-.35 0zM375.8 218h-.1v.68h.1a1.57 1.57 0 00.71-.07l-.18-.28-.35.35c-.28-.23-.08-.51-.18-.68zM376.61 218.54h-.1l.05.07zM376.18 218.07l.15.23.04-.04-.19-.19zM376.66 218.45l-.05.09c.12-.05.15-.09.05-.09zM372.73 218.83a1.05 1.05 0 01.07-.11.92.92 0 00-.26-.08zM363.44 219.48l-.19.18a.73.73 0 00.35 0zM365.45 219.29a6.25 6.25 0 00.93-.66 15.69 15.69 0 00-2.78 1l.13.12c.57-.27 1.15-.85 1.72-.46zM366.5 218.62c0-.06 0-.05-.12 0a.29.29 0 01.13 0zM359.13 219.65l-.25.16.35-.11zM362.19 219.66v-.38a4.61 4.61 0 01-1.52-.67l-.19.28c-.1 0-.19-.19-.29-.09s0 .38-.19.47a2.61 2.61 0 01-.76.43h.09c.85-.43 1.67-.9 2.86-.04zM352.23 220.49c1.92-1.26 4.88.34 6.65-.68a6.61 6.61 0 01-2.34.12c-1.62-1-3.63.28-5.55.37.28.28.85.09 1.24.19zM348.39 223.74l.18-.19c-.07 0-.16.08-.23.13l.05.07zM348.34 223.68l-.24-.31c-1.63.37-3.35-.12-4 .83 1.33-.07 2.9.16 4.24-.52zM351.6 229.22c-.08-.09-.16-.16-.26-.11a.27.27 0 00-.13.13 1.64 1.64 0 00.39-.02z" fill="#50d6cc"/><path d="M342.6 230.07c.83-.06 2 .21 2.93-.27a2.47 2.47 0 002.11-.46 10.38 10.38 0 012.58.14.79.79 0 00.45.1l.22.06a2.31 2.31 0 00.79.11 1.67 1.67 0 00.39-.05.44.44 0 01.11.09v-.12a3.37 3.37 0 00.86-.4v.13l.47-.19c-.06 0-.11-.06-.15-.16a3.47 3.47 0 011.71-.78l-.14.15h.34s.08 0 .11.08a9 9 0 002.75-.19 1.65 1.65 0 01.25.15c1-.08 2.7.38 3.51-.82a2.16 2.16 0 00.18-.34.48.48 0 00.12 0l.1.11v-.13h.05a.1.1 0 00-.05 0v-.3l-.17.24h-.11a1.45 1.45 0 00-.28 0 1.39 1.39 0 01-.33-.1l.1-.19-.3.28c-.19 0-.19-.28-.19-.47l-.19.19c-.09-.29-.38-.86-.85-.67-.77.85.57.28.85 1.14a.56.56 0 00.15.1 5.59 5.59 0 01-.97.5c-.38 0-.67.57-1.05.09 0-.09.09-.19.19-.28a.37.37 0 01-.4.18 1.92 1.92 0 00.47-.72 2.88 2.88 0 00-1.1.34c-.29-.22-.59-.36-.89 0-.39 0-.86-.2-1.25.37l-.09-.19-.31.15c-.42-.23-.88-.89-1.34-.3-.39 0-.86-.2-1.25.37l-.09-.19c-.48.2-.48.29-.87.67.48 0 1.23-.22 1.94-.3a4.52 4.52 0 00-.45.61l-.3.12a4.59 4.59 0 00-1.58.32l.13.12a3.64 3.64 0 01-.57 0 .34.34 0 010-.14 1.42 1.42 0 01-.54-.13l.1-.19-.29.28c-.19 0-.19-.28-.19-.47l-.19.19c-.1-.29-.38-.87-.85-.67-.31.34-.28.45-.12.52a9.78 9.78 0 01-3.41.91 1.89 1.89 0 00.62-.85c-.68 0-1.64.66-2.21.76-.37 0-.66.58-1.05.09 0-.09.09-.19.19-.28-.58.77-1.24-1.06-1.91-.2-.39 0-.86-.19-1.25.39l-.1-.2c-.48.2-.48.29-.86.68.87.02 2.61-.74 3.47.02zm19.17-2.82zm-5.62 1l.36-.06a.47.47 0 01-.36.07zm-3.95.94h.12-.12zm-1.11.18h-.16a.48.48 0 000-.18 1 1 0 01.16.19z" fill="#50d6cc"/><path fill="#50d6cc" d="M346.52 228.54l-.18.29.18.19v-.48zM374.79 234.44a1.15 1.15 0 01-.21.23 1.08 1.08 0 00.8-.26 2.64 2.64 0 00-.5.22zM369 234.33h-1.53c-1.62-2.21-4.11-.29-6.21-.4 2 .39 4.4-1.71 5.74.69 1.14.38 2.3-.38 3.25-.66a2.42 2.42 0 012.58.67 1.3 1.3 0 001.71 0c-.92-.08-1.92-1.1-2.28-1.1-1.11-.43-2.16.33-3.26.8zM345.38 239c1.33 1.15 3.16 0 4.31-.37a2 2 0 00.35.24 2 2 0 00-1.57.63 28.15 28.15 0 003-.12h.39a5.92 5.92 0 01-3 .44 2.4 2.4 0 002.58-.29 9.7 9.7 0 013.26.31c2.1.67 2.88-1.73 4.69-1.33.19-.87-.57.08-.57-.67a2 2 0 00-1.52 1.16c-1 .43-2.45 1-3.7.19l.87-.16c.2-1 1.92-.29 1.45-1.43-.29-.09-.49.19-.68.38-.66.86-1.53.58-2.3.19.19.19.58.39.58.67a1 1 0 01-.22.13.48.48 0 01-.11-.09l-.41.16.19-.2-.24.13v.07l-.26.11h-.12a2.49 2.49 0 00.33-.16l-.24-.31a6.65 6.65 0 01-1.08.14c-.92-.44-1.81-1-2.58-.16-1 .38-2.59.57-3.45-.48l.19-.21c-.28-1.06-1.43-.1-1.53-.2-1.73.57-2.11.37-3.64 1.43a6.4 6.4 0 002.2-.76c1.2.11 2.45-1.32 2.83.56zM366.44 243.91c-1.16.47-2.78 1.13-4.12-.11-1.06.38-2.68 1.23-4.32.95a2.44 2.44 0 002.59-.29 9.88 9.88 0 013.25.3c2.11.67 2.88-1.71 4.7-1.32.19-.86-.57.06-.57-.67a1.92 1.92 0 00-1.53 1.14zM368 242.75zM370.07 243.62c-.2-.47-.2 0-.48-.38l-.19.57c.19-.09.6.1.67-.19zM365.39 254.72a.19.19 0 00-.07.11.14.14 0 00.07-.11z"/><path d="M366.47 254.07c-.38.4-.57 0-1 .39-.17-.05-.1.13-.12.26a.42.42 0 01.12-.07c.71.29.91-.58 1-.58zM369.83 254.38h.24c-.07-.06-.14-.04-.24 0zM372.54 224.89l-.19.28.18.2.01-.48zM367.36 225.55c-.39 0-.86-.19-1.25.37l-.09-.18c-.48.19-.48.29-.87.67.87 0 2.6-.75 3.45 0 1.15-.1 3.06.49 3.74-1.24-.68 0-1.64.67-2.21.76-.38 0-.68.59-1.05.1 0-.1.09-.19.19-.29-.57.78-1.27-1.04-1.91-.19zM367.27 222.49l.19-.2-.24.13z" fill="#50d6cc"/><path d="M363 223c1.36-.09 3 .15 4.27-.53l-.24-.31c-1.68.32-3.4-.16-4.03.84zM372.42 228c-.09 0-.19-.1-.19-.29-.66-.2-1.14.18-1.75.29a1.18 1.18 0 00.21.18.15.15 0 010 .2.49.49 0 01.38.19V228h.86v.18z" fill="#50d6cc"/><path d="M370.7 228.34c-.28.27-.08.16 0 0zM370.22 227.86a.3.3 0 00-.13.12 1.64 1.64 0 00.39 0c-.08-.11-.16-.18-.26-.12zM369.65 227.66l-.29.29c-.19 0-.19-.29-.19-.48l-.19.19c-.1-.29-.38-.86-.85-.67-.77.86.57.29.85 1.14.19.2.86.4.86-.17a.48.48 0 01.19.37.67.67 0 01.06-.35 1.66 1.66 0 01-.54-.12zM362.27 228.31c-.38 0-.86-.2-1.24.38l-.1-.19c-.47.19-.48.28-.87.67.87 0 2.6-.76 3.45 0 1.16-.1 3.07.48 3.74-1.24-.67 0-1.63.66-2.19.75-.39 0-.68.58-1.06.09 0-.09.09-.18.19-.27-.58.77-1.19-1.06-1.92-.19zM367.25 227.94h.01-.01zM367.44 227.65l-.18.29.18.18v-.47zM342.09 217.37c-.39 0-.86-.18-1.25.38l-.1-.18c-.48.19-.48.28-.86.67.86 0 2.59-.75 3.45 0 1.15-.09 3.06.48 3.74-1.24-.67 0-1.63.66-2.2.75-.39 0-.68.57-1.06.1 0-.1.09-.19.19-.29-.57.78-1.24-1.04-1.91-.19zM347.26 216.72l-.19.29.19.19v-.48zM343.27 215.34c-1.63.38-3.35-.1-4 .86 1.36-.09 3 .15 4.27-.54z" fill="#50d6cc"/><path d="M343.56 215.72l.19-.18c-.08.05-.16.08-.24.12l.05.07zM347 221.4a.15.15 0 010 .18.51.51 0 01.37.19v-.57h.87v.19l.47-.19c-.09 0-.18-.11-.18-.29-.67-.2-1.15.18-1.76.29a1 1 0 00.23.2zM347 221.58c-.29.27-.09.16 0 0zM346.76 221.2c-.08-.09-.15-.16-.26-.11a.37.37 0 00-.12.13 1.59 1.59 0 00.38-.02zM345.64 221.19c-.19 0-.19-.29-.19-.48l-.19.19c-.09-.29-.38-.86-.85-.67-.77.85.57.29.85 1.14.19.2.86.4.86-.18a.5.5 0 01.19.38.67.67 0 01.07-.35 1.51 1.51 0 01-.55-.13l.1-.19zM343.54 221.19c-.67 0-1.63.66-2.2.75-.38 0-.68.57-1 .09 0-.09.08-.18.18-.28-.57.77-1.24-1.05-1.91-.19-.39 0-.86-.2-1.25.38l-.09-.2c-.48.2-.48.29-.87.67.87 0 2.59-.75 3.45 0 1.15-.08 3.01.49 3.69-1.22zM343.73 220.89l-.19.29.19.18v-.47zM352.86 242.15c-.38 0-.85-.2-1.24.38l-.1-.19c-.47.19-.47.28-.86.66.87 0 2.59-.75 3.45 0 1.15-.09 3.06.48 3.74-1.23-.67 0-1.64.66-2.21.77-.39 0-.67.56-1.06.09 0-.1.1-.2.19-.29-.56.76-1.23-1.05-1.91-.19zM358.05 241.49l-.19.28.19.19v-.47zM355.15 244.26l-.28.29c-.19 0-.19-.3-.19-.49l-.19.19c-.1-.29-.38-.86-.86-.67-.77.85.58.29.86 1.15.19.19.85.39.86-.18a.48.48 0 01.18.38.71.71 0 01.08-.36 1.66 1.66 0 01-.55-.12zM357.92 244.55c-.1 0-.19-.09-.19-.29-.65-.2-1.14.18-1.75.29a1.37 1.37 0 00.22.2.13.13 0 010 .18.51.51 0 01.37.19v-.57h.86v.19z" fill="#50d6cc"/><path d="M356.21 244.93c-.28.27-.07.16 0 0zM355.73 244.46a.19.19 0 00-.12.11 1.51 1.51 0 00.37 0c-.07-.1-.15-.16-.25-.11zM352.51 244.11c-.68 0-1.64.67-2.21.76-.38 0-.66.58-1.05.09 0-.09.1-.18.18-.29-.57.78-1.23-1-1.91-.18-.38 0-.86-.2-1.24.37l-.1-.19c-.47.2-.47.29-.86.67.87 0 2.59-.75 3.45 0 1.15-.09 3.06.49 3.74-1.23zM352.69 243.82l-.18.28.18.19v-.47zM372.63 234.59l-.19.28.19.2v-.48zM367.56 232l-.24.13.05.06z" fill="#50d6cc"/><path d="M367.08 231.81c-1.63.38-3.34-.11-4 .84-.14 0-.26 0-.27-.31a2 2 0 00-1.53 1.15c-1.15.47-2.78 1.13-4.12-.12-1.05.39-2.68 1.24-4.31.94a2.37 2.37 0 002.59-.28 9.9 9.9 0 013.25.3c2.1.67 2.87-1.71 4.7-1.33v-.36c1.29 0 2.76.13 4-.51zM369.74 237.36l-.29.29c-.19 0-.19-.29-.19-.48l-.18.18c-.11-.28-.39-.86-.86-.67-.78.87.57.28.86 1.15.18.2.85.39.85-.18a.52.52 0 01.19.38.7.7 0 01.07-.36 1.71 1.71 0 01-.55-.12zM370.31 237.55a.34.34 0 00-.12.12 1.28 1.28 0 00.39 0c-.08-.1-.16-.17-.27-.12zM367.54 237.34l-.19.29.19.19v-.48zM362.37 238c-.39 0-.86-.2-1.25.38l-.1-.18c-.47.18-.47.27-.86.66.87 0 2.59-.76 3.45 0 1.15-.09 3.06.49 3.74-1.22-.68 0-1.63.67-2.21.76-.37 0-.66.57-1.05.09 0-.1.1-.19.19-.28-.58.79-1.28-1.06-1.91-.21zM352.49 230.41zM352.68 230.12l-.19.29.19.19v-.48zM347.42 227.71l.19-.19-.24.13.05.07zM350.85 233.58c-.28.26-.08.15 0 0zM349.79 232.89l-.29.29c-.19 0-.19-.29-.19-.47l-.18.18c-.1-.28-.38-.85-.86-.67-.77.86.57.29.86 1.15.19.19.85.39.85-.19a.49.49 0 01.19.39.68.68 0 01.07-.36 1.71 1.71 0 01-.55-.12zM350.36 233.1a.43.43 0 00-.12.11 1.64 1.64 0 00.39 0c-.08-.11-.16-.21-.27-.11z" fill="#50d6cc"/><path d="M352.56 233.19c-.09 0-.19-.09-.19-.29-.65-.2-1.13.18-1.74.29a.72.72 0 00.21.18.18.18 0 010 .21.44.44 0 01.37.18v-.57h.86v.18zM342.87 234.33c1.15-.09 3.06.49 3.74-1.23-.67 0-1.63.67-2.2.76-.38 0-.67.58-1.06.09 0-.09.1-.18.19-.29-.57.78-1.24-1.05-1.91-.18-.39 0-.86-.2-1.25.37l-.09-.19a2 2 0 00-.87.67c.87-.01 2.58-.76 3.45 0zM346.8 232.81l-.19.28.18.19.01-.47zM381.96 242.98v-.47l-.19.29.19.18z" fill="#50d6cc"/><path d="M378.76 243.83c1.09-.43 1.85-1.55 3.14-1.28.2-.85-.56.07-.56-.66a1.94 1.94 0 00-1.54 1.11 10.08 10.08 0 01-1.18.43l.08-.09a.38.38 0 01-.09.09l-.34.09c-.47-.13-1-1-1.48-.37a2.69 2.69 0 00-.75 0 2.11 2.11 0 01-.35-.26c-1.06.39-2.69 1.24-4.31 1a2.39 2.39 0 002.58-.28 7.58 7.58 0 011.1 0 4.6 4.6 0 00-.48.46c.48 0 1.23-.22 1.95-.3.24.05.48.1.68.16a2.44 2.44 0 00.76.12h.06c1.15-.09 3.06.5 3.74-1.22-.68 0-1.64.66-2.21.75-.29-.03-.56.3-.8.25zM376.89 239.92c-.08.05-.17.08-.25.12l.06.07zM381.65 245.29c-.66-.2-1.14.18-1.74.29a1 1 0 00.21.19.15.15 0 010 .18.49.49 0 01.37.2v-.58h.86v.2l.48-.2c-.08 0-.18-.09-.18-.28zM379.64 245.48a.26.26 0 00-.12.11 1.7 1.7 0 00.39 0c-.08-.1-.16-.16-.27-.11zM380.13 246c-.28.22-.08.11 0 0zM379.07 245.28l-.29.28c-.19 0-.19-.28-.19-.48l-.19.2c-.09-.29-.38-.87-.85-.68-.77.87.57.29.85 1.16.19.19.86.38.86-.2a.56.56 0 01.19.39.7.7 0 01.07-.36 1.71 1.71 0 01-.55-.12zM376.87 245.26l-.18.29.18.18v-.47z" fill="#50d6cc"/><path d="M373.53 246.21l-.34.08c-.47-.12-1-1-1.49-.37a2.84 2.84 0 00-.77 0 2.29 2.29 0 01-.33-.24c-1.06.38-2.69 1.22-4.31.93a2.39 2.39 0 002.58-.27 6.28 6.28 0 011.1 0 6.35 6.35 0 00-.48.47c.49 0 1.25-.23 2-.3a5.84 5.84 0 01.66.15 2.23 2.23 0 00.73.12l.08.05c1.15-.1 3.06.48 3.74-1.24-.67 0-1.63.67-2.2.77-.3 0-.54.33-.81.26 1.09-.43 1.86-1.56 3.15-1.28.19-.85-.56.08-.57-.66a1.93 1.93 0 00-1.54 1.14c-.35.14-.75.3-1.18.43l.09-.09zM364.45 224.2l-.18.29.18.19v-.48zM360.53 225.73c1.16-.09 3.06.48 3.74-1.24-.68 0-1.63.66-2.2.75-.38 0-.68.57-1.05.1 0-.1.09-.19.19-.29-.58.77-1.25-1-1.92-.2-.39 0-.86-.18-1.25.38l-.09-.18c-.48.19-.48.28-.87.67.92 0 2.59-.72 3.45.01zM362.62 227.45c.06.06 0 .13 0 .2a.49.49 0 01.38.19v-.59h.86v.18l.47-.18c-.09 0-.18-.09-.18-.29-.66-.2-1.14.18-1.75.29a.91.91 0 00.22.2z" fill="#50d6cc"/><path d="M362.63 227.65c-.28.27-.08.16 0 0zM359.37 226.96l-.19.27.19.2v-.47zM382.24 224.91c0-.09.1-.18.19-.29-.57.78-1.24-1-1.92-.19-.38 0-.86-.19-1.24.38l-.1-.19c-.48.2-.48.28-.86.67.81 0 2.37-.64 3.27-.09l-.15.21.19.2v-.39a.67.67 0 01.14.09c1.15-.09 3.06.48 3.74-1.24-.68 0-1.63.66-2.21.75-.38 0-.67.57-1.05.09zM385.5 224.07zM385.69 223.78l-.19.29.19.18v-.47zM380.43 221.37l.18-.18c-.07.05-.16.08-.24.13l.06.07zM382.8 226.54l-.29.29c-.19 0-.18-.29-.18-.47l-.19.18c-.1-.28-.39-.87-.86-.66-.77.85.57.28.85 1.14.19.19.86.39.87-.19a.55.55 0 01.18.39.7.7 0 01.07-.36 1.71 1.71 0 01-.55-.12zM383.86 227.23c-.28.26-.08.15 0 0z" fill="#50d6cc"/><path d="M385.58 226.84c-.1 0-.19-.09-.19-.29-.66-.19-1.14.18-1.75.29a.76.76 0 00.21.19.18.18 0 010 .2.44.44 0 01.37.18v-.58h.86v.17zM383.37 226.74a.34.34 0 00-.12.12 1.67 1.67 0 00.39 0c-.08-.1-.16-.17-.27-.12zM380.41 226.82c-.68 0-1.63.66-2.2.76-.38 0-.68.57-1.06.09 0-.09.1-.19.19-.28-.57.76-1.24-1.07-1.91-.19-.39 0-.86-.2-1.25.38l-.09-.2c-.48.2-.48.29-.87.67.86 0 2.59-.75 3.45 0 1.15-.05 3.06.49 3.74-1.23zM380.41 226.82zM380.6 226.54l-.19.28.18.19.01-.47zM385.11 219.93c0-.1.1-.19.19-.29-.57.77-1.24-1-1.91-.19-.39 0-.86-.19-1.25.38l-.1-.19c-.47.2-.47.29-.86.67.87 0 2.59-.76 3.45 0 1.15-.1 3.06.49 3.74-1.24-.68 0-1.63.67-2.21.77-.38 0-.66.56-1.05.09zM388.37 219.07l.19.2v-.48l-.19.28zM383.3 216.38l.19-.18c-.08.05-.16.08-.24.12l.05.07z" fill="#50d6cc"/><path d="M379 216.86c1.35-.09 2.95.15 4.26-.54L383 216c-1.62.38-3.34-.1-4 .86zM385.67 221.56l-.28.29c-.19 0-.19-.29-.19-.48l-.19.19c-.1-.3-.38-.86-.86-.68-.77.86.58.3.86 1.16.19.19.86.39.86-.19a.52.52 0 01.19.38.62.62 0 01.07-.36 1.46 1.46 0 01-.55-.13z" fill="#50d6cc"/><path d="M386.25 221.76a.26.26 0 00-.12.11 1.59 1.59 0 00.38 0c-.08-.1-.16-.16-.26-.11zM388.25 221.57c-.65-.2-1.14.18-1.74.28a1 1 0 00.21.2.13.13 0 010 .18.52.52 0 01.37.2v-.57h.91v.19l.47-.19c-.13 0-.22-.1-.22-.29z" fill="#50d6cc"/><path d="M386.73 222.23c-.28.28-.07.16 0 0zM380 222.68c0-.09.1-.18.19-.29-.57.78-1.24-1-1.91-.19-.38 0-.86-.19-1.25.38l-.1-.19c-.47.2-.47.28-.86.68.87 0 2.59-.76 3.45 0 1.15-.09 3.07.48 3.74-1.24-.67 0-1.63.66-2.21.75-.36.01-.64.58-1.05.1zM383.47 222.03v-.48l-.19.29.19.19zM383.77 235.36l-.18.29.18.19v-.48zM378.7 232.78l-.23.12v.06zM382.66 239.18a.49.49 0 00-.12.13 2.42 2.42 0 00.39 0c-.08-.11-.16-.18-.27-.13zM382.09 239l-.29.28c-.19 0-.19-.28-.18-.48l-.2.2c-.09-.29-.38-.86-.85-.67-.77.85.57.29.85 1.14.19.2.86.39.86-.18a.47.47 0 01.19.38.67.67 0 01.07-.35 1.51 1.51 0 01-.55-.13zM384.68 239c-.66-.2-1.15.18-1.75.29a.91.91 0 00.21.18.17.17 0 010 .2.51.51 0 01.38.18v-.57h.86v.18l.47-.18c-.08.01-.18-.1-.17-.28z" fill="#50d6cc"/><path d="M383.15 239.67c-.28.26-.08.15 0 0zM378.69 238.13l-.19.28.18.2.01-.48zM375.78 239.67c1 0 2.18 0 2.68-1.25-.68 0-1.64.67-2.21.76a1 1 0 00-.47.2v-.14l-.13.2a.37.37 0 01-.45-.16c0-.11.09-.19.19-.29-.58.77-1.24-1-1.92-.19-.39 0-.86-.19-1.25.37v-.08c.12-.73-.59.12-.59-.62a2 2 0 00-1.53 1.15c-1.14.47-2.77 1.14-4.11-.1-1.06.38-2.69 1.23-4.31.94a2.43 2.43 0 002.58-.27 9.57 9.57 0 013.25.28 2.22 2.22 0 001.12.09c-.06 0-.11.11-.19.19.84 0 2.5-.71 3.38 0a4.28 4.28 0 00-.3.43c-1.15.48-2.78 1.14-4.11-.1l-.84.33a.52.52 0 010-.14 1.47 1.47 0 00-1.08.53 5.29 5.29 0 01-2.38.22 2.34 2.34 0 002.24-.06 5.45 5.45 0 00-.32.45c-1.14.47-2.77 1.13-4.11-.11-1.06.38-2.68 1.23-4.31 1a2.39 2.39 0 002.58-.28 9.43 9.43 0 013.26.3c2.1.67 2.87-1.72 4.69-1.33v-.2a9.17 9.17 0 011.78.3c1.65.52 2.48-.83 3.64-1.25a4.85 4.85 0 002.08-.18l-.16.48c.19-.09.57.1.67-.19-.18-.45-.19-.06-.42-.32a4.77 4.77 0 001.89-.49l-.23-.31a6.2 6.2 0 01-1 .13c0-.06.07-.13.11-.2zm-6.38.59zm5-.34a4.84 4.84 0 00-1.28.17.13.13 0 010-.09 1.24 1.24 0 00-.52.11 1.2 1.2 0 00-.27.16c-.51 0-1.06-1.1-1.62-.38a5.93 5.93 0 00-.61 0 3.08 3.08 0 011.86-.76 3 3 0 00-.59.54c.86 0 2.59-.76 3.45 0h.18c-.19.05-.42.15-.65.25zM317.32 218.11a1.46 1.46 0 01.79.32c1.15-.09 3.06.49 3.74-1.23-.68 0-1.63.67-2.21.76-.38 0-.67.57-1.05.09 0-.09.09-.19.19-.29-.32.42-.66.08-1-.19v-.21l-.09.14c-.27-.19-.54-.28-.81.06-.39 0-.87-.18-1.25.39l-.1-.19c-.48.2-.48.28-.86.67a7.76 7.76 0 001.23-.19 3 3 0 01-.51.17c-.38 0-.68.56-1.06.08 0-.1.1-.19.19-.29-.57.78-1.24-1.05-1.91-.19-.39 0-.86-.2-1.25.38l-.09-.19c-.48.19-.49.29-.87.66.87 0 2.59-.75 3.45 0 1.02-.07 2.65.37 3.47-.75zM323.2 222.08l-.29.28c-.19 0-.19-.28-.19-.47l-.18.18c-.1-.29-.38-.86-.86-.66-.77.84.57.28.86 1.14.18.2.86.38.86-.19a.53.53 0 01.18.39.7.7 0 01.07-.36 1.42 1.42 0 01-.54-.13zM324.26 222.76c-.26.24-.08.15 0 0z" fill="#50d6cc"/><path d="M325.78 222.09c-.66-.21-1.14.18-1.75.28a1 1 0 00.22.19c.06.06 0 .13 0 .2a.46.46 0 01.37.18v-.58h.85v.2l.48-.19c-.07 0-.17-.1-.17-.28zM323.78 222.27a.3.3 0 00-.13.12 1.59 1.59 0 00.38 0c-.03-.1-.15-.17-.25-.12zM322.19 219.22c-.68 0-1.64.66-2.21.75-.38 0-.67.57-1.05.09 0-.09.09-.18.19-.29-.57.78-1.25-1-1.92-.19-.38 0-.86-.19-1.24.39l-.1-.2c-.48.2-.48.29-.86.67.86 0 2.59-.75 3.45 0 1.15-.08 3.06.49 3.74-1.22zM322.38 218.91l-.19.3.19.18v-.48zM327 219.24a.3.3 0 00-.13.12 2.42 2.42 0 00.39 0c-.08-.11-.15-.18-.26-.12zM326.43 219l-.29.28c-.19 0-.19-.28-.19-.48l-.19.2c-.09-.29-.38-.86-.86-.68-.77.87.57.29.86 1.16.19.2.86.38.86-.19a.54.54 0 01.19.39.7.7 0 01.06-.36 2 2 0 01-.54-.13zM336.61 217.92a.68.68 0 01.06-.35 1.46 1.46 0 01-.54-.13l.1-.19-.29.28c-.19 0-.19-.28-.19-.47l-.19.19c-.1-.29-.38-.87-.86-.68-.77.86.57.29.86 1.15.19.2.86.4.86-.19a.54.54 0 01.19.39zM337.27 217.73a.15.15 0 010 .19.49.49 0 01.37.2v-.59h.86v.2l.47-.2c-.09 0-.18-.09-.18-.27-.66-.2-1.14.18-1.74.29a.86.86 0 00.22.18z" fill="#50d6cc"/><path d="M337.07 217.55c-.09-.09-.16-.17-.27-.11a.33.33 0 00-.13.13 1.76 1.76 0 00.4-.02zM337.29 217.92c-.29.28-.08.16 0 0zM350.21 216.78c-.08-.08-.16-.15-.26-.1a.3.3 0 00-.13.12 1.64 1.64 0 00.39-.02zM348.71 217c.19.19.86.39.86-.19a.52.52 0 01.19.38.68.68 0 01.06-.35 1.66 1.66 0 01-.54-.12l.1-.19-.29.29c-.19 0-.19-.3-.19-.48l-.19.18c-.09-.28-.38-.85-.86-.67-.77.82.58.25.86 1.15zM350.43 217a.16.16 0 010 .19.5.5 0 01.37.19v-.57h.86v.19l.48-.19c-.1 0-.19-.1-.19-.29-.66-.2-1.14.18-1.75.29a.79.79 0 00.23.19z" fill="#50d6cc"/><path d="M350.44 217.16c-.29.27-.08.15 0 0zM386.69 213.79l-.19.29.19.18v-.47zM382.76 215.32c1.15-.09 3.06.48 3.74-1.23-.68 0-1.64.67-2.21.76-.38 0-.68.57-1.05.09 0-.1.09-.19.19-.28-.59.76-1.25-1.06-1.92-.2-.39 0-.86-.2-1.25.38l-.1-.19c-.47.19-.47.28-.86.67.88 0 2.6-.77 3.46 0zM361.44 230.44l-.18.29.18.19v-.48z" fill="#50d6cc"/><path d="M356.27 231.11c-.38 0-.87-.19-1.25.38l-.1-.19c-.47.2-.47.28-.86.67.86 0 2.59-.76 3.45 0 1-.09 2.62.36 3.45-.72a9.84 9.84 0 012.8.32c2.1.67 2.87-1.73 4.69-1.33.19-.85-.56.07-.57-.66a2 2 0 00-1.53 1.14c-1.15.47-2.78 1.14-4.12-.11l-1.14.44a1.91 1.91 0 00.16-.32c-.68 0-1.64.66-2.21.77a.65.65 0 00-.33.11 3.48 3.48 0 01-.72 0 .46.46 0 01.18-.27c-.56.72-1.23-1.09-1.9-.23zM375.87 251.4a.26.26 0 01.07-.16c-.55.41-1.17-1.12-1.8-.31-.39 0-.86-.2-1.25.37l-.09-.19c-.48.2-.48.29-.87.67.87 0 2.59-.76 3.45 0 1.16-.09 3.06.49 3.74-1.24-.68 0-1.63.67-2.2.77-.38 0-.68.56-1.05.09zM379.31 250.74v-.47l-.19.27.19.2z" fill="#50d6cc"/><path d="M376.06 251.12a.68.68 0 00-.12.12.68.68 0 00.12-.12zM363.82 219.77zM359.3 223.21c.19-.86-.56.07-.57-.67a2 2 0 00-1.53 1.14c-1.15.47-2.78 1.14-4.12-.11-1.06.38-2.68 1.24-4.31 1a2.41 2.41 0 002.58-.28 9.65 9.65 0 013.26.29c2.1.64 2.87-1.76 4.69-1.37zM358.73 222.53zM351.89 218.17l-.1-.2c-.47.2-.48.29-.87.67.87 0 2.59-.75 3.45 0 1.16-.09 3.07.48 3.74-1.23h-.16l.19-.07.18.19v-.27c1.84-.42 4.16.56 5.65-.27a6.72 6.72 0 01-2.32.11c-1.62-1-3.64.28-5.55.36.23.24.64.17 1 .18a6.32 6.32 0 01-1.17.46c-.38 0-.67.56-1.05.09 0-.09.1-.19.19-.28-.58.76-1.24-1-1.92-.2-.4.06-.88-.12-1.26.46zM370.84 214.14h.01-.01zM367.1 215.38c1.15-.09 3.06.48 3.74-1.24-.67 0-1.63.66-2.2.75-.38 0-.67.57-1.05.1 0-.1.09-.19.19-.29-.58.77-1.25-1-1.92-.2-.39 0-.86-.18-1.25.38l-.1-.18c-.47.19-.47.28-.86.67.87 0 2.6-.75 3.45.01zM371.04 213.85l-.19.29.19.19v-.48zM383.24 219.22c.19-.86-.56.06-.57-.67a1.93 1.93 0 00-1.53 1.14c-1.15.47-2.78 1.14-4.12-.11-1.06.38-2.69 1.24-4.31.95a2.42 2.42 0 002.58-.29 9.86 9.86 0 013.25.3c2.11.68 2.88-1.71 4.7-1.32zM382.66 218.54zM371.93 222.34c-1.06.38-2.68 1.23-4.31.94a2.43 2.43 0 002.58-.27 9.63 9.63 0 013.26.28c2.1.67 2.87-1.71 4.69-1.33a.47.47 0 000-.15 5.16 5.16 0 002.2-.49l-.23-.33c-1.63.38-3.35-.11-4 .85h.39a3.54 3.54 0 00-.45.61c-1.16.46-2.79 1.13-4.13-.11zM377.16 215.89l-.19.29.19.18v-.47zM370.74 216.92l-.1-.19c-.47.2-.47.29-.86.67.87 0 2.59-.75 3.45 0 .55 0 1.26.06 1.94 0l-.15.24c-1.16.48-2.78 1.14-4.12-.11-1.06.39-2.68 1.24-4.32.94a2.28 2.28 0 001.36.24v.19a16.69 16.69 0 001.53.77h.47a.67.67 0 00.37.18 4.94 4.94 0 00-.38.54c-1.15.48-2.78 1.15-4.12-.11a9.72 9.72 0 01-3.78 1c.73-.48 1.39-1 2.36-.85.19-.85-.57.1-.57-.67a2 2 0 00-1.54 1.15c-1.14.48-2.77 1.15-4.11-.1-1.06.38-2.69 1.23-4.31.94a2.3 2.3 0 001.29.23 1.38 1.38 0 00-.27.27c1.36-.09 3 .15 4.27-.53l-.08-.1h.19l-.11.06.05.07.11-.11.38.1a179.94 179.94 0 004.39-.81 9.58 9.58 0 013.25.29c2.11.67 2.88-1.72 4.7-1.33.19-.86-.58.09-.57-.67h-.18c.09-.1.15-.17.2-.17a4.43 4.43 0 01-1.82.39v-.2l-.19.2-.39-.4a2.64 2.64 0 00-1-.41 2.61 2.61 0 001.07-.49 10.21 10.21 0 013.25.31 3.17 3.17 0 00.48.1l-.1.11c.34.16.78.43.79-.08.19-.09.28.09.38.19l-.19.1h1.15c.76 0 .28-.48.38-.86-.38.29-1 .28-1.05.77-.07-.15-.24-.24-.29-.38 1.09-.43 1.86-1.56 3.15-1.29.15-.69-.31-.21-.5-.4a2 2 0 00.35-.58 4.29 4.29 0 00-1.54.51 1.82 1.82 0 01-.68 0v-.18l-.19.18-.39-.38c-.29-.28-.76-.29-1.15-.47v.29c.48.27 1.35.66 1.54.76h.2c-.38 0-.66.58-1.05.1 0-.1.1-.19.19-.3-.58.78-1.24-1-1.92-.18-.36.09-.83-.11-1.22.46zm-14.58 4.74l.28-.18a8.7 8.7 0 011.88 0c-.77.13-1.53.1-2.16.18zM387.14 227.77c-.77 0-1.24.66-1.53 1.14-1.15.47-2.78 1.15-4.12-.12-1.05.39-2.68 1.25-4.31.95a2.37 2.37 0 002.58-.28 9.94 9.94 0 013.26.3c2.1.68 2.87-1.72 4.69-1.33.19-.84-.58.1-.57-.66zM378.18 226.27c0-.11.09-.2.19-.29-.58.76-1.25-1.06-1.92-.2-.38 0-.86-.18-1.24.38l-.1-.19c-.48.19-.48.29-.87.67.87 0 2.6-.75 3.45 0 1.16-.1 3.07.49 3.74-1.23-.67 0-1.63.66-2.2.76-.38-.01-.68.57-1.05.1zM385.9 232.13zM385.9 232.14a2 2 0 00-1.53 1.14c-1.15.48-2.78 1.15-4.11-.11a18.79 18.79 0 01-2.59.89 2.16 2.16 0 00.38-.28 5.28 5.28 0 00-2.06.34l-.51.21-.08.07a3.16 3.16 0 011.12-.1 2.44 2.44 0 002-.47 10.19 10.19 0 013.26.29c2.11.68 2.88-1.71 4.69-1.32.19-.8-.56.09-.57-.66zM373.63 237.08c-.36.13-.79.31-1.25.49a.32.32 0 01-.06-.2c-.66-.2-1.14.18-1.74.28a.64.64 0 00.21.19.18.18 0 010 .16 4.5 4.5 0 01-1.51 0 2.37 2.37 0 001.78.14l.08.06v-.09a2.9 2.9 0 00.73-.39h.13v.11l.33-.13a10.08 10.08 0 012.78.33c1.94.61 2.75-1.36 4.29-1.37a1.07 1.07 0 01.4.23c1.16-.1 3.07.49 3.74-1.24-.68 0-1.63.68-2.21.77-.38 0-.67.57-1.06.09 0-.09.1-.2.19-.29-.57.77-1.24-1.05-1.91-.2-.38 0-.86-.19-1.25.39l-.09-.19c-.48.19-.48.28-.87.67.45 0 1.11-.2 1.78-.29a4 4 0 00-.42.58c-1.11.48-2.7 1.15-4.07-.1zm-2.46.85v-.28h.83a7.94 7.94 0 01-.83.28zM378.85 230.63l-.19.29.19.19v-.48z" fill="#50d6cc"/><path d="M377.94 231.09a1.33 1.33 0 00-.55-.27 3.17 3.17 0 00-2.74.51c-.32-.24-.64-.46-1 0-.35 0-.77-.15-1.13.23-1.62-2.12-4.09-.25-6.17-.35 1.95.37 4.26-1.58 5.61.48a4.38 4.38 0 00-.52.5 8.24 8.24 0 001.26-.2 2.82 2.82 0 00.91-.13 1.73 1.73 0 011.26.33 5.75 5.75 0 01-2.81.36 2.41 2.41 0 002.59-.28 9.9 9.9 0 013.25.3l.25.06c-1.62.35-3.31-.1-4 .84 1.35-.08 3 .16 4.27-.53l-.23-.3c1.18.22 1.93-.54 2.75-1 .73 0 1.34.19 2.15-.54h-.5c0-.54-.59.19-.59-.52a1.85 1.85 0 00-1.47 1.06l-.08.06h.07l-.14.06.09-.08a2.19 2.19 0 00-.5.23l-.09-.19a1.46 1.46 0 01-.2.22h.25l-.47.15a1.07 1.07 0 00.22-.15 2.9 2.9 0 01-1.28-.52 1.91 1.91 0 00.26-.47 2.08 2.08 0 00-.72.14zm-2.54.68a.57.57 0 01.2-.29c-.27.35-.55.16-.84-.07l.61-.22a2.18 2.18 0 011.92.18 4.47 4.47 0 01-.77.29s-.08 0-.12-.09l-.85.33a.58.58 0 01-.15-.13zm1.86.33a2 2 0 00.67-.26 1.43 1.43 0 00.91.34 3 3 0 01-1.58-.08zM367.88 229.58zM362.79 232.33zM344.28 231.43c-1.06.39-2.68 1.24-4.32.94a2.39 2.39 0 002.59-.28 10 10 0 013.26.3c1.24.4 2-.27 2.83-.81a1.05 1.05 0 01.11.07c1.15-.09 3.06.49 3.74-1.24-.68 0-1.63.66-2.2.76-.38 0-.67.56-1.06.09a1.87 1.87 0 011.25-.17c.19-.85-.57.1-.57-.67a1.55 1.55 0 00-1.17.63c-.4-.26-.82-.79-1.25-.26-.38 0-.86-.18-1.24.39l-.1-.19c-.48.2-.48.29-.87.67.78 0 2.23-.59 3.15-.18l-.06.09c-1.13.43-2.75 1.12-4.09-.14zM349.5 224.99l-.18.28.18.19v-.47zM343.08 226l-.09-.19c-.48.19-.48.28-.87.66.87 0 2.6-.75 3.45 0 1.16-.1 3.07.48 3.74-1.24-.68 0-1.64.67-2.2.77-.39 0-.69.56-1.06.09a.49.49 0 01.18-.29c-.57.76-1.23-1.05-1.91-.19-.32.04-.85-.16-1.24.39zM358.83 237.89v.01-.01zM352.18 240.62zM348.06 242.62c2.11.68 2.88-1.71 4.7-1.32.19-.86-.57.07-.58-.67a1.93 1.93 0 00-1.52 1.14c-1.16.47-2.78 1.14-4.12-.11-1.06.38-2.69 1.24-4.32 1a2.43 2.43 0 002.59-.28 9.86 9.86 0 013.25.24zM348.89 235.4l-.18.28.17.19.01-.47zM343.71 236.05c-.38 0-.86-.19-1.24.38l-.1-.19c-.47.2-.47.28-.86.67.86 0 2.59-.75 3.45 0 1.15-.09 3.06.49 3.74-1.23-.68 0-1.64.67-2.21.76-.39 0-.68.57-1.06.09 0-.09.09-.18.19-.29-.56.76-1.23-1.04-1.91-.19zM371.63 238.46h.01-.01zM366.55 241.23zM365.94 236.11zM361 236.47c-.38 0-.86-.19-1.24.38l-.1-.18c-.48.19-.48.27-.86.66.86 0 2.59-.75 3.45 0 1.15-.11 3.06.48 3.74-1.24-.67 0-1.63.66-2.2.75-.39 0-.67.57-1.06.09 0-.09.09-.18.19-.28-.63.79-1.29-1.04-1.92-.18z" fill="#50d6cc"/><path d="M366.13 236c.88-.18 1.94-.42 2.57.14 1.15-.1 3.06.49 3.74-1.24-.67 0-1.63.67-2.21.76-.38 0-.67.57-1.05.1 0-.11.09-.19.19-.29-.58.77-1.24-1.05-1.91-.19-.39 0-.87-.19-1.25.37l-.1-.18c-.48.18-.48.29-.86.66a4.17 4.17 0 00.77-.1l-.08.11.19.18zM381.33 241.88zM376.25 244.63zM372.64 252.33zM366.86 249.12h.01-.01zM359.49 250.81a6.32 6.32 0 01.67 0c-.11.1-.21.22-.41.42.48 0 1.23-.23 1.95-.3a7 7 0 011 .22 2.25 2.25 0 001.1.09c1.12 0 2.54.2 3.1-1.23a6.36 6.36 0 00-1.83.64 3.48 3.48 0 012-.87l-.15.23.19.18v-.41h.31c.09-.42 0-.41-.2-.38l.33-.32c1 .18 1.34-.57 2.2.19a.47.47 0 01.19-.38c.09.36.25.34.38.29-.21-.06-.38-.2-.38-.39-1.08-.36-2.66-.62-2.92.63-.1 0-.18-.07-.18-.31a1.92 1.92 0 00-1.52 1.15 8.62 8.62 0 01-1.65.53.56.56 0 01.18-.26c-.58.76-1.24-1.06-1.91-.2h-.53a1.46 1.46 0 01-.21-.16c-1.06.39-2.69 1.24-4.31.95a2.36 2.36 0 002.6-.31zM366.94 249.98zM377.98 252.9zM378 252.9a2 2 0 00-1.53 1.14c-1.15.47-2.78 1.13-4.12-.11-.24.08-.51.2-.81.31a.36.36 0 000-.24h-.93c.82-.51 1.53-1.22 2.59-1 .19-.85-.57.08-.57-.66a1.92 1.92 0 00-1.53 1.13 8.61 8.61 0 01-1.67.54 4.51 4.51 0 00-2-.27 3 3 0 01-.48-.36 12.68 12.68 0 01-3.14 1c-.81-.51-1.12-2-2.54-1.82-1.15 0-2.88.77-3.74.38 1 1.54 1.92-.48 3.06.29 1-.73 1.92.33 2.82 1.17a3.41 3.41 0 01-.78-.05 2.44 2.44 0 001 .25c.54.47 1.08.81 1.66.57a1.5 1.5 0 010-.3.27.27 0 01-.19 0 .56.56 0 01-.19-.39 1.41 1.41 0 01-.69.05 2.76 2.76 0 001-.46 7.84 7.84 0 011.54 0 1.19 1.19 0 00-.33.81l.57-.58a1.93 1.93 0 00.95-.07c.19 0 .36.08.52.13a2.64 2.64 0 00.7.12 2 2 0 00.43 0h.14a3 3 0 00.56-.23l.13.14a.57.57 0 01-.42.13.42.42 0 010 .24h.25a5.13 5.13 0 01-2.34.22 2.38 2.38 0 002.48-.22h.28l.2-.09a9.78 9.78 0 012.88.33c2.1.67 2.87-1.72 4.69-1.33.29-.96-.45-.01-.45-.77zM372.89 255.65a2 2 0 00-1.53 1.15c-1.15.47-2.77 1.13-4.11-.11-1.06.39-2.69 1.23-4.32.94a2.4 2.4 0 002.59-.27 9.62 9.62 0 013.25.29c2.11.67 2.87-1.72 4.7-1.33.19-.86-.58.1-.58-.67zM372.89 255.65h.01-.01zM372.47 250.25l-.19.28.19.19v-.47z" fill="#50d6cc"/><path d="M367.29 250.9c-.38 0-.85-.19-1.24.38l-.1-.2c-.48.2-.48.29-.86.67.86 0 2.59-.75 3.45 0 1.15-.09 3.06.5 3.74-1.22-.67 0-1.63.67-2.21.76-.38 0-.67.57-1.05.09 0-.1.09-.18.19-.29-.58.77-1.21-1.09-1.92-.19zM327.86 219.86v-.53h.86v.2l.47-.2c-.09 0-.18-.09-.18-.27-.66-.21-1.14.17-1.75.28a1.9 1.9 0 00.21.19 2 2 0 00-1.47 1.17c-1.16.48-2.78 1.14-4.12-.11-1.06.38-2.69 1.24-4.32.95a2.41 2.41 0 002.59-.28 9.62 9.62 0 013.25.3c2.1.67 2.88-1.72 4.7-1.33.12-.47-.05-.41-.24-.37zm-.29-.12a.47.47 0 01.24.13.19.19 0 01-.24-.13zM322.03 216.91l-.18.28.18.19v-.47zM261.52 277a3.59 3.59 0 113.58 3.6 3.26 3.26 0 01-3.58-3.6zm3.58-2.26c-1.3 0-1.57 1.2-1.57 2.28s.27 2.23 1.57 2.23 1.57-1.2 1.57-2.23-.27-2.28-1.57-2.28M272.82 281.74h-1.92v-6.92h3.2c1.17 0 2.68.32 2.68 1.78 0 1-.79 1.58-1.76 1.7 1.23 0 1.45.65 1.58 1.72a7.44 7.44 0 00.32 1.68h-2.08a12.22 12.22 0 01-.21-1.46c-.08-.84-.11-1.18-1.09-1.18h-.72v2.64zm.75-4c.61 0 1.2-.09 1.2-.79s-.59-.8-1.2-.8h-.75v1.59h.75M278.44 279.35A3.59 3.59 0 11282 283a3.27 3.27 0 01-3.56-3.65zm3.58-2.26c-1.29 0-1.56 1.21-1.56 2.29s.27 2.23 1.56 2.23 1.57-1.2 1.57-2.23-.27-2.29-1.57-2.29M316 283.05v-6.92h3.17c1.7 0 2.81.55 2.81 2.22s-1.12 2.22-2.81 2.22H318V283h-2zm2.9-3.81c.75 0 1.06-.37 1.06-.88s-.31-.84-1.06-.89h-1v1.77h1M322.77 282.93V276h1.92v5.57h3.12v1.34h-5M328.62 282.09l2.73-6.9h2.33l2.72 6.9h-2.15l-.46-1.35H331l-.45 1.35h-1.91zm4.71-2.69l-.88-2.87-.93 2.87h1.85M338.17 276.16h-2.12v-1.34h6.2v1.34h-2.17v5.58h-1.91v-5.58M341.91 281.26l2.72-6.91H347l2.72 6.91h-2.16l-.46-1.35h-2.8l-.45 1.35h-1.91zm4.7-2.69l-.88-2.88-.94 2.88h1.85M294.03 283.63h4.79v1.15h-4.79zM306 283.49h4.79v1.15H306zM301.36 284.07l-2.62-4.33h2.2l1.5 2.86 1.55-2.86h1.95l-2.69 4.33-.09 3.69h-1.9l.1-3.69" fill="#50d6cc"/><path d="M140.31 94.39V60.13h10.42l6.82 26.07 6.72-26.07h10.47v34.26h-6.61V66.76l-7 27.63H154l-7-27.63v27.63h-6.61M201.18 77.29q0 5.65 2.51 8.8a8.55 8.55 0 007 3.11 8.64 8.64 0 007.09-3.11q2.53-3.15 2.54-8.8c0-3.76-.85-6.69-2.54-8.77a9.53 9.53 0 00-14.12 0q-2.5 3.12-2.51 8.79m-7.18 0q0-8.3 4.51-13.16t12.21-4.89q7.68 0 12.21 4.89t4.56 13.16q0 8.28-4.56 13.17t-12.21 4.88q-7.68 0-12.21-4.88T194 77.29M246.66 94.39V60.13H254l13.91 23.54V60.13h6.95v34.26h-7.28l-14-23.54v23.54h-7M302.69 94.39V66.25h-10.16v-6.12h27.3v6.12h-10.09v28.14h-7.05M350.21 67l-4.74 14.58H355L350.21 67m-4.09-6.86h8.14l12.35 34.26h-7.4l-2.32-7h-13.28l-2.26 7h-7.42l12.19-34.26M383.71 94.39V60.13h7.37L405 83.67V60.13h6.95v34.26h-7.28l-14-23.54v23.54h-7M445.39 67l-4.74 14.58h9.51L445.39 67m-4.09-6.86h8.14l12.35 34.26h-7.39l-2.33-7h-13.28l-2.26 7h-7.42l12.19-34.27" fill="none" stroke="#50d6cc" stroke-linecap="round" stroke-linejoin="round" stroke-width=".9"/><path fill="none" stroke="#a3a3a3" stroke-linecap="round" stroke-linejoin="round" stroke-dasharray="5 5" d="M21.88 1.83H5.79v172.32M20.05 362.83H5.79V201.88"/><path d="M5.82 180.26a3 3 0 013.07 3A4.76 4.76 0 017 186.58a14 14 0 00-2.88 3.31h4.47a.22.22 0 00.18-.07s.12-.12.23-.08v1.19H2.78v-.75a12.64 12.64 0 013.08-3.94c.77-.69 1.85-1.62 1.85-2.91a2 2 0 00-2-2 2.21 2.21 0 00-1.81 1c-.09.14-.05.24-.15.39l-.89-.72a3.44 3.44 0 012.96-1.74z"/><path fill="none" stroke="#a3a3a3" stroke-linecap="round" stroke-linejoin="round" stroke-dasharray="5 5" d="M133.88 59.04h458.57v6.27M133.88 95.39h458.57v-5.92"/><path d="M586 81.27a1 1 0 110-2 1 1 0 110 2zM594.74 70.41a3 3 0 013.07 3 4.72 4.72 0 01-1.87 3.34 14.21 14.21 0 00-2.88 3.25h4.45a.23.23 0 00.18-.07.22.22 0 01.23-.07v1.18h-6.22v-.74a12.68 12.68 0 013.08-4c.76-.69 1.85-1.62 1.85-2.91a2 2 0 00-2-2 2.21 2.21 0 00-1.82 1c-.09.14 0 .25-.14.39l-.87-.68a3.46 3.46 0 012.94-1.69zM302.9 384.07a2.85 2.85 0 011.82 2.74 3.08 3.08 0 01-3.26 3.09 3.71 3.71 0 01-2.78-1.21l.89-1.07c.15.16.08.32.22.48a2.29 2.29 0 001.66.72 2.12 2.12 0 002.13-2.16c0-1.26-1.05-2-2.49-2a3.27 3.27 0 00-.54 0v-.95a4.29 4.29 0 001.68-.27 1.87 1.87 0 001.13-1.67 1.73 1.73 0 00-1.84-1.65 2.51 2.51 0 00-1.83.81l-.66-.73a3.43 3.43 0 012.54-1.13 2.78 2.78 0 012.92 2.68 2.44 2.44 0 01-1.59 2.32z"/><path fill="none" stroke="#a3a3a3" stroke-linecap="round" stroke-linejoin="round" stroke-dasharray="5 5" d="M28.03 369.54v15.02h263.86M569.53 369.54v15.02H315.94"/></svg>