<svg xmlns="http://www.w3.org/2000/svg" width="82" height="300" viewBox="0 0 82 300"><path d="M27.76 137.26l5.81 105.42c2.78-2.29 5.46-4.74 8.29-7l-3.61-91.3c13.91-4.58 30.15 15.6 40.25-1.62-7-33.48-25.54-74.56-59.64-85.45-6.15 6.18-7 11.7-4.61 19.43 4.61 3.83-1.54 10.89 0 17.08 2.47 1.41 3.34 6 5.21 7.86l-3.07 1.82c-3.74-.88-7.75 2.69-11.77 2.69-6.95 4.57-1.54 9.28 1.47 13.92zm10.49.14l1.54-6.12c5.41 2.95 10.83 4.57 15.44 8.53zM17.72 109l10.76-11.14-8.08-9.41c3.14-1.62 5.41-4 9.29-3.16 1.54 2.35 4.68 3.16 7 3.16l1.54-1.62c-3.88-10.08-24.81-11.63-17-24.14C32 67.27 37.44 75.2 46.74 83.74l-4.62 4.71c9.23 7.73 19.33 17.07 17 28.77l-10.83-5.51c.8 10.89 20.12 17.82 23.19 31.06-2.27 1.62-5.41 3.16-8.48 0-7.76-17-26.28-30.32-45.67-29.51a4.18 4.18 0 00-1.54 3.16c2.34 8.54 18.59-.81 12.37 12.43-7.75-3.09-16.25-8.67-19.32-17.14 2.33-2.89 5.94-1.48 8.88-2.71z"/></svg>