<svg xmlns="http://www.w3.org/2000/svg" width="600" height="315.79" viewBox="0 0 600 315.79"><path fill="#fff" d="M0 0h600v315.79H0z"/><path fill="#bf0a30" d="M0 0h600v21.05H0zM0 42.11h600v21.05H0zM0 84.21h600v21.05H0zM0 126.32h600v21.05H0zM0 168.42h600v21.05H0zM0 210.53h600v21.05H0zM0 252.63h600v21.05H0zM0 294.74h600v21.05H0z"/><path d="M0 168.39h210.51V0H0z" fill="#002868" fill-rule="evenodd"/><path d="M122.8 49.72l2.2 6.76h7.12l-5.76 4.18 2.2 6.77-5.75-4.18-5.81 4.18 2.2-6.77-5.75-4.18h7.11zM122.8 101l2.19 6.76h7.12l-5.76 4.18 2.2 6.77-5.75-4.18-5.8 4.15 2.2-6.77-5.75-4.18h7.11zM193 49.72l2.19 6.76h7.11l-5.75 4.18 2.2 6.77-5.75-4.18-5.76 4.18 2.2-6.77-5.75-4.18h7.11zM193 101l2.19 6.76h7.11l-5.75 4.18 2.2 6.77-5.75-4.21-5.76 4.18 2.2-6.77-5.75-4.18h7.11z" fill="#fff" fill-rule="evenodd"/><path d="M193 49.72l2.19 6.76h7.11l-5.75 4.18 2.2 6.77-5.75-4.18-5.76 4.18 2.2-6.77-5.75-4.18h7.11zM193 101l2.19 6.76h7.11l-5.75 4.18 2.2 6.77-5.75-4.21-5.76 4.18 2.2-6.77-5.75-4.18h7.11zM52.63 49.72l2.19 6.76h7.12l-5.76 4.18 2.2 6.77-5.75-4.18-5.76 4.18 2.2-6.77-5.75-4.18h7.11zM52.63 101l2.19 6.76h7.12l-5.76 4.18 2.2 6.77-5.75-4.18-5.76 4.18 2.2-6.77-5.75-4.18h7.11zM157.88 24.09l2.2 6.77h7.11L161.44 35l2.19 6.76-5.75-4.18-5.75 4.18 2.19-6.76-5.75-4.18h7.11zM157.88 75.34l2.2 6.77h7.11l-5.75 4.18 2.19 6.76-5.75-4.18-5.75 4.18 2.19-6.76-5.75-4.18h7.11zM157.88 126.59l2.2 6.77h7.11l-5.75 4.18 2.19 6.76-5.75-4.18-5.75 4.18 2.19-6.76-5.75-4.18h7.11zM87.71 24.09l2.2 6.77H97L91.27 35l2.19 6.76-5.75-4.18L82 41.8l2.16-6.8-5.76-4.14h7.11zM87.71 75.34l2.2 6.77H97l-5.75 4.18 2.19 6.76-5.75-4.18L82 93.05l2.2-6.76-5.8-4.18h7.11zM87.71 126.59l2.2 6.77H97l-5.75 4.18 2.19 6.76-5.75-4.18L82 144.3l2.2-6.76-5.76-4.18h7.11zM17.54 24.09l2.2 6.77h7.11L21.1 35l2.2 6.76-5.76-4.18-5.75 4.22L14 35l-5.77-4.14h7.12zM17.54 75.34l2.2 6.77h7.11l-5.75 4.18 2.2 6.76-5.76-4.18-5.75 4.18L14 86.29l-5.77-4.18h7.12zM17.54 126.59l2.2 6.77h7.11l-5.75 4.18 2.2 6.76-5.76-4.18-5.75 4.18 2.2-6.76-5.76-4.18h7.12z" fill="#fff" fill-rule="evenodd"/></svg>