<svg xmlns="http://www.w3.org/2000/svg" width="600" height="411.08" viewBox="0 0 600 411.08"><path d="M46.76 368.82h551.06V1.45H46.76z" fill="#fff" stroke="#50d6cc" stroke-linecap="round" stroke-linejoin="round"/><path d="M377.19 208c-.15.52-.45 1.25-.09 1.76a.26.26 0 00.21-.1c-.01-.41.46-1.4-.12-1.66zM377.01 203.21l-.01.01h.01v-.01zM378.86 200.3c-.39 3 0 6.12-.72 8.78h.36c.87-2.66.32-6.13.73-8.94-.16-.14-.23.05-.37.16zM378.26 196.87H378c-.62 1.2-.56 2.71-1.07 4h.26a20.17 20.17 0 001.07-4zM376.8 203.22l-.55 2.71c-.16.62-.46 1.4-.15 2 0-.05 0-.1.16-.1a19.83 19.83 0 00.75-4.58zM318 239.87a1.56 1.56 0 00.11 1.35c.11 0 .21 0 .26-.1-.21-.37.15-1.04-.37-1.25zM318.08 236.44c-.1.47-.51 1.21-.09 1.56a2.42 2.42 0 00.35-1.56zM358.32 181.83v-.01h-.01l.01.01zM318.42 215.65l-.83.95c-.1.35.11.35.26.56l.47-.57.11.46c-.82 2.29-.34 5-.69 7.23h.37c.56-2.14-.13-4.27.58-6.19-.21-.52.46-1.3-.16-1.77l.25-.31c-.16-.01-.1-.31-.36-.36zM313.31 231.56c-.44.86-.08 2.3-.79 3.13.62-.58 1.36-1.11 1.07-2.27.25-.51-.27-1.56.82-1.67a1.81 1.81 0 001.08-1.5c-.88 1-2.06 2-3.42 1.72l-.34-4.87a22 22 0 011.7-1.52 18.18 18.18 0 00-.38-3c-.57-.05-.77.73-1.4.47-.41-.41-.06-1-.42-1.39-.06-1-.28-2.76.18-3.75 1.3-.22 2.75-.69 4.1-1.06-.42-.73-1.52-1.3-1.52-2.22a5.16 5.16 0 011.14-1.63 5.24 5.24 0 002.48 2 7.19 7.19 0 01-2.45-2.09c-1 .32-1.08 1.26-1.7 2 0 .73.79 1.5 1.36 2a1.32 1.32 0 01-.67.22c-1 .68-2.6.16-3.37 1.11.06 1.91-.24 3.48.34 5.24.47.47 1-.06 1.46-.16a6.8 6.8 0 01.33 2.49c-2.91 1-.71 3.58-1.48 5.52-.56 1.56 1.31 1.13 1.88 1.23zM263.49 61.54a3.4 3.4 0 01.51.46 16.68 16.68 0 006.45 9.16c.73.36 1.57.66 1.88 1.54a14.3 14.3 0 008.14 4.37c.47 0 .89 1.08 1.24.25-1.15-2.07-3.65-2.68-5.37-4 0 0-.21-.26-.37-.2l-5.36-2.35c-5.38-3.66-6.46-10.1-8.21-15.6a12 12 0 011.89 1.83c.26.15-.2.67.26.36 2.46 2.32 2 6.06 4.47 8.49 1.67 1.7 4 1.69 6.1 2.51.88.72 2 1.7 3.28 1.28 0-2.81-3-4.71-5-6.26-2.19-1.85-2.83-4.91-4.88-7.14-1.58-2.12-4.5-3.85-5-6.51l.81-.67a38 38 0 014.66 3.6c2.09 1.54 4.9 2.41 6.06 5 1.06 3.72 3.94 6.77 5 10.52 1.16 1.49 0 3.17.4 4.77.15.41.37 1.4.94 1.13a4.75 4.75 0 00-.47-.93c.08-2.7 0-5.09-1.35-7.42-3.62-5-1.69-10.9-2.91-16.72-.16-.19-.16-.3 0-.56a4.67 4.67 0 00-.88-.36c1.54 4.35.41 8.25 1.17 12.62.06.15.37.41 0 .56a26.26 26.26 0 01-1.78-3.93 8.55 8.55 0 00-3.3-3c-2.08-.92-3.49-2.74-5.42-4-.77-.16-1.39-1.12-2.08-1.24h-1l-.17 1a8.88 8.88 0 01.17 1.2c2.57 3.84 6.49 6.61 8 11-.88-.1-1.61-1-2.7-.92-.26 0-.31.32-.26.52.69 1.82 2 3.47 2.53 5.24-4.54-2.32-3.18-8.46-7.45-11.08-.63-.26-1.1-1.55-1.88-1.13a34.52 34.52 0 011.27 3.84 17.4 17.4 0 01.61 2.77zm17 15a13.49 13.49 0 01-2.6-.71c.7-1.33 1.74.32 2.58.69zm-2.71-1.65c-.21.26-.47.73-.83.62l-1.72-1.07c.7-1.53 1.77.17 2.53.43zm-5.08-2.69a10.57 10.57 0 002.81 1.29l-.67.72-2.25-1.95zM269 61.36c.94.2 1.72.87 2.71 1 .84 1.35 2.45 1.79 3.45 2.93s2.66 2.38 2.68 4.09a4.76 4.76 0 01-2.09-1.18c-1.25-1-3.07-.55-4.22-1.84-.75-1.69-1.9-3.23-2.53-5zM263.45 61.51l-.11-.15-.2-.06a3.37 3.37 0 01.31.21zM318.71 228.64a16 16 0 01-.54 4.89c-.21.57-.78 1-.77 1.67h.31a6.57 6.57 0 001.28-3.29c-.27-.98.5-2.39-.28-3.27zM356.29 181.48c.72-.12 1.5.54 2 .34-.47-.51-1.35-.46-2-.71zM359.35 180.78h.21a20.6 20.6 0 00.34-3.07 5.63 5.63 0 00-.55 3.07zM347.82 238.85h-.26c-.19 1.62 0 3.07-.17 4.68.15.1.21.25.41.21.41-1.57-.12-3.07.02-4.89zM293.48 248.66c-.11.52-.88.78-.46 1.3a3.45 3.45 0 00.81-3.18 6.88 6.88 0 00-.35 1.88zM294.33 212.42a10.59 10.59 0 01-.28-4.25c-.42.36-1.14 1.05-1 1.57.25-.32.3-.58.67-.74.11 1 .17 1.88.28 3-.42.42-1.4.74-1.19 1.41.33-.41.95-1.08 1.52-.99zM293.78 222.93c0 .62-.72 1.09-.46 1.66a5.22 5.22 0 00.72-1.66zM294.31 217.57c-.15-.26-.15-.68-.42-.82.53 1.5-.08 3.16-.12 4.78-.1.46-.67.67-.56 1.2h.2a9.54 9.54 0 00.9-5.15zM294.15 223.66H294a25.35 25.35 0 00-.24 2.54 5.24 5.24 0 00.35-2.55zM333.71 80.85a5.19 5.19 0 00-3-.81v-4.79c-1.87-.61-3.64-.54-5.51-1a11.93 11.93 0 00-.45 3.27c.28 3.07-3.16.7-4.51 2.06a35.52 35.52 0 00-.33 5c.89.87 2.55.29 3.75.69-.25 2 .13 4-.23 5.72.17.68-.91 2.45.54 2.7 1.61.2 3.33.86 4.68-.13.81-2.4.74-5.15 1.09-7.75.94-.21 1.61.3 2.55.24 1.66.46 1-1.51 1.54-2.24 0-.99.51-2.18-.12-2.96zm-.91 4.58c-1.19.37-2.8-.71-3.73.23a42.9 42.9 0 01-.89 7.74c-.83.48-1.87 0-2.7.13a3.34 3.34 0 01-1.67-.57 59.55 59.55 0 00.31-8.1 9 9 0 00-2.6-.19l-.93-.15a15.76 15.76 0 01.33-4.79c1.5-.52 2.39.1 3.9-.38.66-1.36.29-3.07.64-4.53l4.68.75c.32 1.35-.18 3.38.14 4.73.42.41 1.14 0 1.66.3l1.4.57a10.83 10.83 0 01-.54 4.26zM334.2 141.08c-.68-.15-.72.73-.56 1.15.42.51.37 1.4.89 1.66.36-.89-1.05-1.89-.33-2.81zM294.12 235.29h-.26a13.06 13.06 0 01-.82 3.18c.48 0 .37-.52.63-.78a9.08 9.08 0 01.22 2h.11c.34-1.59-.19-2.83.12-4.4zM352.66 215.32l.15-.36c-.73-.61-.73-1.6-1.31-2.23l-.15.38c.26.82.42 1.81 1.31 2.21zM348.74 220.13c-.45 2.08.08 4.26.36 6.29l.15.16c.05 0 .11-.11.21-.06.09-2.13-.7-3.9-.35-6.08 0-.26.46-.42.2-.68a.54.54 0 00-.57.37zM348.1 233.55a5.45 5.45 0 00.12 2.59c.72-.53.09-1.77.14-2.6z" fill="#50d6cc"/><path d="M313.44 225.61a10.1 10.1 0 001.55-1.16 1.78 1.78 0 00-1.09.33c-.2.3-.72.42-.46.83zM283.67 65.75c1.12 3.93-1.82 8.07.86 11.43.26.36.32 1.35.83 1.18-1.36-2.9.75-5.3 1.15-8 .28-4.47-.32-9.51-2.42-13.45a.35.35 0 01.17-.34h-.34a1 1 0 00-.15 1 25.8 25.8 0 012.23 8.64l-.92.68c-.29.27-.53.67-1 .42.12-6.81-2.83-12.41-6.19-17.79a3 3 0 00-1.25-1.13 30.81 30.81 0 017.03 17.36zm1.88 1.06l.54-.18c0 .75.06 1.5 0 2.26-.34.39-.84.59-1.1.93h-.75a13.73 13.73 0 000-2c.39-.47.96-.67 1.31-1.01zm-1.32 3.8l1.21-.5c.2-.22.39-.49.6-.55.32 2.56-1.64 4.43-1.46 7a5.33 5.33 0 01-.85-1.66c.12-1.4.37-2.85.5-4.29zM348.15 225.12c-.12-2.59-.66-5-.36-7.43h-.15c-.88 2.24 0 5.09 0 7.44zM347.6 228.4l.14-2.18c-.62.68-.35 1.71-.81 2.66-.1.46-.57.88-.46 1.29.78.05.77-1 1.13-1.62-.09 2.29 0 4.79-1.2 6.87h.21c1.85-1.67 1-4.63 1.46-7zM316.51 250.59h.36c.52-.94 1.81-2.25 1.54-3.81-.16-.67 0-1.66-.54-2a11.77 11.77 0 01-.07 3.83c-.36.72-1.09 1.25-1.29 1.98zM295.49 214.23l.1-.09c-.32-.73-.16-1.67-.48-2.23a3.9 3.9 0 00.38 2.32zM395.57 171.76a6.54 6.54 0 00-1.29 2.09 3.3 3.3 0 001.29-2.09zM324 227a5.4 5.4 0 00-1.1-.76l-.1.31a2.29 2.29 0 001.05.72zM246.82 169.55c.47.25.26.94.69 1.3a.25.25 0 00.2-.12c-.94-1.44-.28-3.42-.24-4.77l-.36.94c.33 1.65-.81 2.91-1.48 4.22.52-.27.83-1.05 1.19-1.57zM320.45 224.06a4.63 4.63 0 00-.35 3.27c.27.52.48 1.19 1 1.4.1-.11.31-.26.1-.37-1.05-1.13-.8-2.7-.6-4.1zM319.24 237.85a2.56 2.56 0 001.09 2.22c-.06-.74-.68-1.44-.83-2.22zM247.24 161.22a3.3 3.3 0 00-.13 1.41 3 3 0 00.13-1.41zM269.45 205.52l-.31.36c-.05.89-.3 2.09.23 2.92a.57.57 0 00.46-.21c-.68-.94.17-2.19-.38-3.07z" fill="#50d6cc"/><path d="M248.52 167.3c0-1.74-1.21-3.09-1.41-4.67-.46 1.45-1.74 2.64-.93 4.27h.16l-.07-2.13c.26-.37.31-1 .82-1.15a31.74 31.74 0 011.22 3.84zM398.71 158.54l.16 2.23c.57-.47.41-1.4.3-2a.61.61 0 00-.46-.23zM397.83 168.84h.26a2.58 2.58 0 00.2-1.51c-.46.31-.29 1.04-.46 1.51zM402.77 151.81c.1.36.62.57.83.94.26 0 .11-.21.26-.42a.88.88 0 00-1.09-.52zM399 143.88a24.23 24.23 0 001.59 3.63c.3-1.09-.69-1.86-.75-2.91-.24-.25-.35-.93-.84-.72zM401.87 157.89c.21.73.27 1.78.95 2a8.85 8.85 0 00-.69-2.44c-.27-.07-.31.24-.26.44zM398.28 165.87l.16.15c.67-.82 0-2.24.34-3.27-.72.62-.5 2.14-.5 3.12zM266.29 222.84c-.1.63-.67 1.36-.56 1.77a2.8 2.8 0 001-2.54c-.4 0-.44.47-.44.77zM268.55 211.39c-.21-.06-.26.11-.41.11v4.31c.06.26.27.37.47.16a34 34 0 00-.06-4.58zM268.39 218.31c-.82 1.57-.65 3.6-1.16 5.26h.15c.62-.06.47-.62.36-.94.67-1.4.4-3 .86-4.31zM268.07 208.8c-.16-.11-.21-.26-.42-.2 0 .93-1.08 2.34 0 2.7zM266.28 238.17a7 7 0 00-.55 2.81h.27c.05-.21.36-.36.1-.57.57-.52.37.89.94.72.25-.52-.32-1.34-.48-2-.07-.49.14-.75-.28-.96zM246.2 146.27c.62-.47.41-1.46.56-2.18a.26.26 0 00-.47-.14c.11.81-.2 1.59-.09 2.32zM306.74 57.93l-1.26.28zM246.67 154.22a8.08 8.08 0 001.17-3.49c.47.51.64 1.24 1.15 1.65.32-.31 0-.66-.1-1-2-1.24-.6-3.12-.87-4.68-1.23 2.2 0 5.46-1.92 7.5.15.13.47.28.57.02zM246.18 151.31c.21.05.26-.1.47-.21v-1.87c-.65.22-.47 1.46-.47 2.08zM270.7 198.86a21.68 21.68 0 00-.9 4.21l.15.36c.63-.15.25-1.4.77-1.76l.27.57c.51-.58-.11-1.14-.17-1.72s.46-1.3-.12-1.66zM268.16 199.35c-.26.16-.83 0-.93.37.31.67.52.1.94.25a3.3 3.3 0 01-1.28 3.23c.15.05.15.26.26.36l.67-.47a8.61 8.61 0 01-.19 2c-.1.77-1.14 1-1.4 1.4a1.57 1.57 0 00.89.05c.46-.21.67-.72 1-1.1.19-2.18.7-3.64.63-5.81.26-.47 1-.69.67-1.31zM249.34 133.62l-.2.15c-.25 2.2-.91 4-1.16 6.3h.16c.31-.15.36-.62.46-.94.37.41.42 1.09.94 1.4a2.51 2.51 0 00-.37-1.5c-.89-.67-.06-1.93.08-2.81.42.25.58.83.85 1.19.15.1.26-.06.36-.16-.05-.37-.48-.63-.48-1-.83-.46-.48-1.72-.38-2.55-.1-.03-.26.03-.26-.08z" fill="#50d6cc"/><path d="M404.78 146.23l.36-.38c-.32-.93-1.36-.56-2.13-.66l-1.8-4c-.36-.77.2-1.3.57-1.86.09-.48.61-1.25-.12-1.62a1.35 1.35 0 00-1.86.59c-1.4 1.28-1.56-.41-2-1.58l-1.11-1.33a4.81 4.81 0 00-1.42-3.35c1-5.57-1-10.5-1.3-15.68 0-2-1.06-3.64-1-5.51.1 0 .2 0 .26.1.46-.15.51-.63.46-1a7.8 7.8 0 00-2.83-3.26l-.16-.67c.16-.41-.37-.63-.32-1 .36-.26 1 .2 1.25-.37.35-2-1.84-3.2-3.3-4.07 0-1.05-.73-1.78-.84-2.7-2.21-4-4.22-8.09-7.2-11.76 3.3-3.08 6.35-6.58 10-9.78.92-1.1 2.16-2.09 2.32-3.66a8.17 8.17 0 00-1.61-3.21l.73-.68a6.67 6.67 0 001.47-1.43c-.48-.92-1.62-1.64-2.25-2.42a5.35 5.35 0 00-2.17 2.15c-.52-.47-1.05-1.4-1.88-1.66a2.87 2.87 0 00-2.6.6c-2.66 2.8-5.73 4.82-8 7.92l-.84.34c-1.61-.93-1.81 1.21-2.9 1.63-.57-1.35-2.54-.3-3.07-2l.1-.11c.62-.42.41-1.09 0-1.56a5.85 5.85 0 00-3.15-.13l-.52-.83c-.33-.6-1.24-1-1.59-1.56-4.23-2.82-8.2-5.6-12.78-7.5a71.15 71.15 0 00-16.2-5l.05-.09a1.43 1.43 0 00.21-1.21c-.48-.82-1.3 0-2 0-1.09.94-3 .58-4.36.7.46-.58 1.19-1.3.92-2.18a12.68 12.68 0 00-4.77 1.79c-2.6-.24-4.79-.2-7.33-.21-3.67.58-7.47 1.09-11.18 1.85 3-.61 6.07-1.07 9.22-1.52a35.62 35.62 0 019-.06 10.67 10.67 0 01-1 1.3c-.17.3-.38.61-.55.92h-.75c-2.21 0-4.54.51-6.59.42-5.77 1-10.81 1.11-16.25 2.91-1.66.38-3.27 1.17-4.82 1.54a5.9 5.9 0 00.74-2.26 5.19 5.19 0 011.94-.77c.33-.13.66-.23 1-.35-1 .29-2.73.87-2.73.87-.15-.73-.87-.5-1.45-.86-2 .73-1.94 3.28-4.08 3.76a26.64 26.64 0 00-2.26-4.2 7 7 0 00-3-2.87 15.2 15.2 0 015.28 8.8c.31 1.45 1 3 .9 4.72-.95 3.7-3.12 6.57-4.45 10-1 2.83 1.33 4.63 2 6.91.21.41 0 .88.21 1.14.81-3.58 2-7.91 0-11.54.19-1.45 1.49-2.7 1.95-4.22 3.25 4.86 2.52 12 .11 16.84-.93 2.76 1.84 4.35 2.94 6.48h.68a4.14 4.14 0 00.82-2.44 15.29 15.29 0 01-.84-9.19c.81-2.77-.76-5.2-.11-8 1 .77 1.32 2.11 2.16 3.1 2.15 3.41 2.23 8.56 1.48 12.4-.82 2-.44 4.42-2 6.1-.3 1.4 1.06 2.54 1.53 3.83l.47.2.13 3.8c.11 1 1.72.92 1.16 2.28a1.1 1.1 0 001.4.46c-1-1.4-.44-3.85-.6-5.45l-.32-.26c.22 1.86-.34 3.64.51 5.24l-.16.16c-.94-.47-.38-2-1.63-2.33 0-1.19-.38-2.85-.12-3.9s1.39-1.25 2.17-1.61c3.75 1.42.39 4.36.77 6.8h.21c0-.31.25-.73.15-1a15.52 15.52 0 00.7-10.4c-.11-2.75-3.45-4.45-2.38-7.47a7.66 7.66 0 01.45-2.66l2.45 1.86c4.81 3.66 4.48 10.06 4.67 15.25.23 2.86-1.26 5.2-2.49 7.6 0 2.23.86 4.67 2.94 5.49.68-.11-.16-.57.47-.78.8-3.38 1.56-7.23.65-10.81.08-4.57-1.46-9.34-.25-14.14.51-2.28-.6-4.2-.5-6.28a3.38 3.38 0 011.31 1.24c3.67 6.47 4.61 15.15 4.14 22.32-.13 3.64-1.88 6.61-3.37 9.64.69 1.8 2.41 3.2 3.31 5 .62.67.95 2.12 2.24 1.91 1.13-3.19-.87-5.87-.89-8.89-.95-2.85.43-6.34.52-9-.34-3.12.21-7.23-.53-9.82.2-.12.31.14.52.09 2.56 2.74 3.05 6.37 4.37 9.69-.07 4.31.58 8.73-.64 13.1-.61 2.24-1.48 4.69-1.46 6.81l4.92 5.59.26-.16c-.39-4.2-1.92-7.73-2.21-11.88-1-4.2 1.36-7.45 1.33-11.61 0-1.8-.91-3.31-1-5 2.2 2.73 4.14 5.69 4.79 9.16a34 34 0 01-.36 16.94c-.56 1.78.44 3.85-.49 5.51.68.58.94 1 1.68 1.66-.16.11-.05.31-.1.47.21.1.31-.11.36-.16a23.29 23.29 0 001.06-12.3c-.22-.94-.49-2.34.18-3.18h-.1c-.69-1.6 0-3.12 0-5a25 25 0 013.12-7l.21.35c-.17 6.66 2.79 13.55 1.22 19.63-.44 3.54-2.2 6.73-3.79 10a11.1 11.1 0 001.9 2.48l.1-.1c.63 1.6 2 2.84 3.14 4.18.46 0 .62-.26.93-.52.45-2.35 1.27-4.53 1.05-6.76 0-3.48-2.8-6.69-1.26-10.17-.33-3.08.79-6.67.76-10a9.86 9.86 0 011.06 1.52c1.42 3.77 2 7.93 3 11.81 1.18 5.92 2.42 12.05-2.28 16.7.21.46.26 1 .53 1.51.16 1 1.2 2 1.63 3 .36.36.68 1.09 1.2 1.18 0-.77-1.05-1.39-.95-2.38.72-1.56.65-3.48 2.52-4.43a1.67 1.67 0 011.4.1 19.71 19.71 0 00-.54 5.72c1.21 1.76-1.53 2.6-1 4.21.61-1.51 2.16-2.5 1.68-4.32-.64-2.55.7-5.05.21-7.79-2.74-6.53 4.56-10.9 7.59-15.65a12.47 12.47 0 01.89 7.74c-1.69 6-2.68 12.28-5.51 17.81-.66 1.77-2.31 3.18-2.56 5.06l3.19 3.66c.36-.1.63.47.94 0 0-3.63 1.51-7 2.26-10.41.44-5.45.5-11.37 5.52-15.1a8.85 8.85 0 01.28 3.74c-1.46 6.87 1.24 14.49-3.61 20.24-.77 1.1-1.38 2.45-2.57 3.09-.36.57.16 1 .27 1.6a10.89 10.89 0 011.41 2.59c1.46-.22 1.81-1.67 2.54-2.71 2.41-4.39 3.14-11.62 9.63-12.23l.32.24a12.46 12.46 0 00-2.23 9.38c-1.85 3.13-4.8 5.8-8.27 6.56.31.25.16.77.21 1.18a12.07 12.07 0 002.15 3.06c.74 1.4-.81 2.76-.23 4.16a4.1 4.1 0 00-1.87-.67 9.91 9.91 0 00-2.58-3.62c-1.2-1.5-3-.45-4.31-.08-3.88 2.42-7.65 5.46-12.22 6.53-2.54.54-4.92 1.75-7.52 1.76-.26-.05-.63-.31-.57-.56 6-3.52 11-9.48 18.06-10.88 1.3-.21 2.75 0 3.84-.59-.21-.88-.94-1.51-1.26-2.33h-.37v.26c-2.54 1.47-5.66 1.49-8.67 1.88-2.69.84-6-1.06-8.51 1a9.4 9.4 0 01-6.65.4c-1.25-1-3.39-2.1-3.09-3.92.57-.1 1.09-.16 1.65-.28a11.65 11.65 0 009.82-1.36 20.53 20.53 0 016.84-2.32c1.7.18 3.07-.63 4.83-.34l-1.76-2a8.09 8.09 0 01-4.32 1.15c-2-.93-4.62.13-7.17-.32-2.86.18-5.38 2.64-8.15 1.35-2.51-1.59-5.16-2.77-7.72-4.15-.73-.47-1.56-1.19-1.47-2.13.83-.89 2.55-.32 3.43-.49 4.68-.65 8.07 1.92 12.18 2.64 1.75.25 3.91.88 5.56.19l1.16-.3a12 12 0 002.17 1.23 1.24 1.24 0 01.21-.36 8.39 8.39 0 002.8-.49v-.2c-1-.41-2.08.48-3.27.34a7.61 7.61 0 01-4.82-5.9 6.42 6.42 0 012.7-.38 3.78 3.78 0 012.71 1.69c.31.62 1.15 1.4.58 2a3.92 3.92 0 00-2.45-.81 11.37 11.37 0 013.24 2s.05-.15.15-.09c.16-.21-.16-.62.31-.68-.68-1.2-1.11-2.64-2.31-3.52.11-.21.26 0 .42 0-.21-.47-.22-1.3-.89-1.3-.63-.83-1.42-1.49-2.15-2.32-.57-.21-1.14-.52-1.77-.2-3.35 2.83-7.39 6.13-12 4.65-3.34-2.11-7.09-3.33-10.78-4.6A10.1 10.1 0 01308 150a1.14 1.14 0 01.45-1.61c3.73-1.78 7.43.06 11.33.14 3.59.8 7.75 1.5 11.12.77.57-.38 1.77-.33 1.71-1.16-.67.31-1.4.57-2.07.89-1.25-.1-3.17.59-4.11-.17-.41-.9-1-1.77-.74-2.81a3.7 3.7 0 013.73-1.53c.05.1.26.21.16.35a7.79 7.79 0 013 2c0-.11.11-.16.16-.26-.11-.41-.47-.52-.74-.83-.67-.47-1.66-.62-2-1.35l-.62-.82a2.54 2.54 0 00-1.25-.61c-2.09 0-3.65-.86-5.62 0a73.18 73.18 0 01-8.49 4.26 16 16 0 00-5.4.5c-2.56-.6-5.11-1.26-7.14-2.86 2.48-1.67 5.39-1.17 8.25-1.34 4.21-.61 7.72-3.07 11.67-4.4a27.5 27.5 0 003.06-.38 13 13 0 00-1.89-2.43c-1.61-.25-2.69 1.37-4.2 1.59-2.17 1.62-4.09 1.21-6.54 1.38-.46-.09-.82.48-1.19 0l1.76-1.4a41.16 41.16 0 002.79-3 8.14 8.14 0 01.46-.94h1.1c.76 0 1.36.38 2.17 0 .36-.21.93-.37.82-.93a19.22 19.22 0 00-2.92-3l-.26.32c-.7 4.57-5.3 8.34-9.18 10.39-3.52 2.73-9 3.75-12.93 1.43 2.58-1.83 5.37-4 8.12-5.86 2.64-1.37 6.12-1.19 8.18-3.59-.62-.26-1.3.06-2 .06-.31 0-.73.42-1 0l.05-.05a47.47 47.47 0 01-9.13 2c-1.56 0-2.49-.66-4-.8a24.67 24.67 0 01-7.36-4.33c2.17-1.77 5.19-.33 7.48.12 3.13 1 5.24-1.34 7.94-2.08 3.48-.59 7.65 1.2 10.39-1h-.11l.31-.43a10.86 10.86 0 00-3.32-4.63c-.73-.16-1.56-.46-2.23 0-4.1 2-7.85 6.49-12.91 4.08-3-.24-5.32-1.94-7.51-4-1.15-1.65-2.15-3.37-3.2-5.07l.36-.16a26.2 26.2 0 017.24 2.92c4.32 2.26 7.17-.46 10.75-.69 1-.22 2.55-.28 2.8-1.43l-1.88-2.17c-2.19 0-3.73 2-5.92 2.22-3.1 1.17-6.08-1.49-8.78-2.25a22.57 22.57 0 01-8.43-1.27c-3.12-.4-4.13-3.71-6-5.78-.21-.36-.83-.52-.94-.94 1.92-.47 3.49.65 5.15 1.17 1.83 1.08 4.22 1 6.35 1.1 3.59.14 5.58 3.49 9.11 3.68.67-.63 1.05.46 1.67.36 1 .56 2 .25 3.12.45a.27.27 0 00.15-.48c-1.66.11-3.38.08-4.68-1.37-.73-.82-.42-1.87-.48-2.9.92-1.41 3.06-.44 4.51-.5 1.66.4 2.19 2.17 3.19 3.2.26 0 .21.31.47 0-.16-.62-.89-.93-1.15-1.55a4.42 4.42 0 00-2-1.73l-.26-1c-.92-3.23-3-6-5-8.71-.67-.25-1.09.57-1.71.69-3.51 4.43-9.49 2.81-14.07 1.75-2.92-1.44-5.87-.17-9.1-.88A17.76 17.76 0 01271 98.1c1.14-.16 2.33-1.31 3.43-.49.25-.26-.06-.47-.17-.62a9.93 9.93 0 014.68-1.07c-1.72-.55-3.64.18-5.15.87-2.24-2.11-2.06-5.4-4.56-7.25-.52-.52-1.57-1.13-1.21-2 4.83 0 7 5.15 10.6 7.52 1.83 1.12 4.21.9 6.4 1.14 2.34.4 4.47 1.43 6.82 1.57.57.1.77-.52.67-.89a10.44 10.44 0 00-3.41-4.65c-1.87-.35-3.54-1.17-5.42-1.37-4.36.08-8.37-.67-11.45-3.56-1.31-1.24-2.67-2.69-4-4.19a8.94 8.94 0 01-2.4-2.11c-.11-.36-.63-.77-.32-1.14 2.08 1.24 4.07 2.67 6.21 3.7 1.92.82 4.16 1 6.19 1.68 3.28-.08 5.52 2.35 8.13 3.94l.94.1a1 1 0 00.41-.94c-1.36-2.48-3-4.76-4.25-7.3-2.35-.35-4.89-.28-7-1-3.85-.7-7-3.75-8.78-7.28C265.77 68.1 263 64 260 59.93l.1-.11a5.57 5.57 0 001.85.94 8.46 8.46 0 00-2.84-1.4l-.31.25c2.83 2.69 4.35 6.06 6.25 9.22 1.32 3.47 2.69 7 5.78 9.62-.47.61-1.06 1.1-1.48 1.65l-1.15 1.17a19.62 19.62 0 00-2.62-1.48c-.57-.2-.56.47-.56.83l1.87 2.74-.8.57-.09.07-.49.5c-3.42 4.68-6.23 9-8 14.39-.58-.11-1.46-.57-1.77 0-1 1.21-.28 2.43.46 3.58l-.64 1.14a2.8 2.8 0 00-1-1.09c-2.18 1.11-.24 3.28-.18 4.78a64 64 0 00-3.55 14.85c-1 1.14-2.32 2.29-2.88 3.8l.1.1a4.09 4.09 0 00-.55 1.63 1.33 1.33 0 01-.81.44 3.75 3.75 0 01.58 0v1.68h-.43c-.89-.4-1.92.43-2.66-.39.05-.26-.05-.68.1-.94.56-.06 1.09-.21 1.63-.31a11.57 11.57 0 00-1.56.1c-.77.21-.35 1-.46 1.51.58 1 1.67.3 2.6.66l.68.09c-.09 1.77-2.12 1.47-3.26 1.95s-2.75.22-3.63 1.07c.42.14.58.61.84.92a1 1 0 01-.1.8 4.78 4.78 0 01.6-.38 2.17 2.17 0 00-.48-1.61c2-.74 4.42-.44 6-2 .22 1-.55 2.92-.54 4.53a9.63 9.63 0 01-1.85 2.51c.26.06.42.51.67.2l.93-1.15a7.24 7.24 0 01-.54 4.89c-.3.52-1.5.58-1 1.31a3.22 3.22 0 002.07-1.89c.66-2-.08-4.21.53-6.08.56-2.81-.2-6.65 1-9.46a7.91 7.91 0 012.47-3.91c0 1-.05 2.06-.07 3.07l-.72.7c-1.24 1.64-1.39 4-1.38 5.95.26-.16.31-.57.68-.27 2.28.51.59 3.39 1.48 4.83.5 4.32.16 8.31 1.49 12.62-.73.21-.77 1.25-.46 1.77.22 1.65 2.77 1.79 2.1 3.67l.22.26-.11.47c-.16-.05-.26.1-.36.21a1.62 1.62 0 01-.46 1.87h-.1l.15-1.72c-.11-.1-.37-.4-.53-.14-.56 1.62-1.9 2.66-1.79 4.58-.21-.1-.16-1.5-1-1.4-.67 1.62.28 3.59 1 5-.29 1.72.65 3.12-.07 4.79.95 1.5-1.86 2-.75 3.43v1.14c-.16 0-.26-.25-.47-.2-.2.26-.25.68-.62.79-.57-.31-.68-1.09-1.3-1.14-.06-.16.05-.42-.11-.57-.57.11-.51 1.1-1.24 1.05-.52-.37 0-1.77-1-1.3a5.35 5.35 0 01-2.27 2.15c-.48-.94.24-2.5-.65-3.17l-.93.22a11.74 11.74 0 011-4.9c.26-.21.58.11.84-.36-.37-.52-1.05-.1-1.51-.35 0-3.07-.4-5.62-.53-8.63 1.2.56 1.61-.85 2.54-1.53-.11-.51.36-.92 0-1.45-.57-.15-1 .63-1.51.07.2-.79-.58-1.35-1.15-1.66-1 .06-.42-1.14-.48-1.61.73-.26 1.61-.17 2.34-.48.1-.16-.11-.26-.16-.36l-2.18.32c.05-.15-.11-.2-.16-.31-.21.11-.26.36-.47.32a16.13 16.13 0 01.23-6.5c.46-.31 1.61.36 1.6-.53-.52-.52-1.61-.15-1.72-1 .48-2-.78-4.3.21-5.92a3 3 0 00-.74.82c.06 2.09 0 3.81.14 5.94.46.35.1.78-.1 1.19a49.21 49.21 0 00-.32 6.18c-.1.58.52.31.73.63v5.81c.21.47.67.21.93.46-.65 2.71.56 5.67.16 8.63.21.35.63.26.83.51-.24 1-.92 2-1 3-.19 2.86-.69 6-.62 8.89l.21.21c.16.16.31-.06.47 0-.05.15 0 .32-.1.41-.81 3.28.77 6.34.16 9.82.32.58 1.2.36 1.77.36a4 4 0 01-1.13 1.77c-1.55 2.08-.13 4.06-.59 6.45l.74.35c0 .36-.36.53-.36.89.32 1.46.38 3.58 1.79 4.72.79.09.73-.83 1.14-1.31a11.24 11.24 0 01.71-2.44c2.07-1.63 1.85-3.76 1.94-6.15-.32-1.6 1-3 1.06-4.68-.22-1.82 1.11-3.23 1.36-5-.57-1.81 1.08-3 .91-4.67-1.63-2.54 1.11-5-.2-7.5 1.24-.83.71-2.07 1.07-3.28 1-1.92-1.22-3 .43-4.77 1.29-1.68-.39-4.94 2.3-6l.95 1 .1-.11.37.36a75.78 75.78 0 005.39 12.62c2 4 5 7.71 7.56 11.53-1.86 2-3.77 4.14-5.79 5.92-1.41-2.11-2-4.76-3.83-6.78l-.11.1-.21-.2a3.57 3.57 0 00-3.73 1.06 6.55 6.55 0 00-2.48 3.29c-1.17 3 2.74 4.19 3.94 5.79.57.47 1.71.51 1.72 1.29-2.31 4.12-6.66 6.9-9.7 10.45-2 2.77-6.15 5.24-6.54 8.93a.81.81 0 001.2.62c7.19-4.82 12.91-11.25 19.63-17.54.31-.21.37.47.63.1a1.91 1.91 0 001.6.36 4.34 4.34 0 00-.37-2.13c2.17-2.3 5.27-4.55 7.8-6.86a27.73 27.73 0 01-1.62 5.31c-.57 1-1.57 1.13-2.41 1.6.54-.2 1.06-.46 1.58-.6 2-1.67 2.25-4.22 3-6.52.36.27.83.62.94 1a5.56 5.56 0 01-.46 1.25c0 .53-.4 1-.35 1.46.22.88-.77 1.67-.45 2.44.59 2.59 4.24 4.5 2.75 7.37a5.57 5.57 0 00.22 2.44c-.41.56-.83.11-1.25.21-1.49 1.2-1 2.66-.54 4.21.28 3.18-2.67 5.27-1.35 8.33-.82 1.76 0 3.43 0 5.35-.31.58-1.25.68-1.29 1.46.89 2.23-1.17 4.27-.69 6.65-1.86 1.47.86 3.59-1.1 5.05-.05.89.11 1.76 0 2.55-.62-.52-.53-2.29-1.67-1.65a10.32 10.32 0 01.11 2.13c-.3.15-.73-.46-1 0-.15 1.75.9 3 1.58 4.4l.47-.21a3.9 3.9 0 01-.14 2.54l-.57.53.11.1c-.52.21-.53-.77-1.15-.82s-.47.21-.73.68.07 1.46.12 2c-.26-.2-.57 0-.78.22-1.25-1.24.92-2.77-.49-3.74-.31-.11-.41.21-.73.11-.41-.68.05-1.41-.78-1.87 1.4-.21 1.85-1.72 2.16-2.82-.11-.67.15-1.35-.22-2a7.48 7.48 0 001.7-2.45c-.05-.21-.16-.51-.42-.57-.57.95-1 1.78-1.54 2.82-.52.11-.68.68-1 1-.12-.93-.89-1.55-1.16-2.44 1.09-.37 1.6-1.73 2.53-2.15 1.08-1 1.08-2.49 1-3.84-.79-1.14-1.6.63-2.54.69 0-.88 1.65-2.4.34-3.12-.67 0-.82.68-1.39.95a4.23 4.23 0 00-.64-2.14l-.36-.09c.46-.89.35-2.09 1.54-2.57.1-.47.82-.77.56-1.3-.72-.14-.72.84-1.18 1.25l-.88.63a11.43 11.43 0 01.08-3.73 17.11 17.11 0 01.27-5.3c.36-.94 1.61-.63 1.86-1.63 0-.52.26-1.24 0-1.66-.57.11-1.14.68-1.76.48-.48-2.08 1-4 .17-5.82 1.35-1 1.59-2.45 1.84-4 .37 0 .48 1 .95.46-.06-.56-.64-.92-1.16-1.08a1.31 1.31 0 01-1-.66c.15-1.1 0-2.45 1-3a2 2 0 002.08-.59 2.86 2.86 0 01-.39-2.65 2.05 2.05 0 001.6.25c-.72 0-1.34-.52-1.95-.24-.78.83-.15 2 .12 2.91-.47.62-1.2-.1-1.77.26-1.4.69-.81 2.35-1.22 3.49a2.23 2.23 0 001.36.93 14.4 14.4 0 01-.66 2.44c-.36.79-1.4 1.26-1.39 2.24.63 1.72-.34 3.34-.23 5.05l.37.57a7.09 7.09 0 001.66-.22c.21 1.19-1 1.62-1.76 2.09-1.07 2-.38 4.67-.68 6.8-.14 1.15-.19 2.82.39 3.49-.1.83-1 1.76-.35 2.6.11 1.56.75 3.79.4 5.45 0 .93-.55 2.82.49 3.32 0 2.14.49 3.74.3 5.82 1.2.93-.3 2.19.22 3.16.11.47.48.68.84.93a6.26 6.26 0 00.5 5c-.09 1.55.79 3 1.32 4.35.78-.32.78-1.36 1-2a7.42 7.42 0 001.56-7.23c1.86-1.42 1.07-3.86.95-5.73.88-1.5.71-3.18.65-4.94.87-1.41.71-2.49.44-4.06 1.24-1.82.59-4 1.57-6 .46-.83-.63-1.66.14-2.44 1-.27 1-1.51.81-2.24-.53-2.34.29-4.62 0-7.12a18.4 18.4 0 001.38-4.11c.46-1.25-.49-2.49-.29-3.74.42-.43.46-1.67 1.5-1.21.73.05.57-.89.46-1.3-.68-1.46.82-2.34.45-3.7-.75-2.07-2.73-3.67-3.31-5.84.45-1.46.91-2.92 1.37-4.43a3.26 3.26 0 01.5.54l.42.8a2.89 2.89 0 00-.33.74c.9 2.64 4 .49 5.21 2.87a1.08 1.08 0 00-.26.84c.22 1.24 1.57 1.64 2.56 1.95.89.47 1.82-.63 2.35.56 3 1.59 5.89 4 9 5.6v.22c0 .15-.25.05-.46.1-.09.6-.76 1.06-1.22 1.46a1.2 1.2 0 001.13-.66c.63 1.24-1 .89-1.5 1.46a2.67 2.67 0 01-2.14-.51 1.35 1.35 0 01-.32-1h.27a3.29 3.29 0 00-.89 0c-.05.37.21.52.11.88a2.66 2.66 0 001.41 1.2 4.61 4.61 0 002.8-.28 22 22 0 01-.92 2.24 8.37 8.37 0 01-5.95 3.57 7 7 0 01-.19 1.76c.11.68.62.84 1.14 1 .26.46 0 1-.09 1.39-.15 1.26-.66 2.77.85 3.49.16.82-.56 1.3-.45 2.13.06.57.63.72.94 1 .11.21-.1.31-.15.47.37 1.82-.49 3.74 1.12 5.14-1.29 1 .23 2.54-.49 3.63-.05.58.78.31.63.93-.57.64-.41 1.57-.46 2.45 1.31 1.24-.39 2.91-.33 4.47a9.7 9.7 0 01.62 7.22c-.05.62.73.37.94.57.05.15-.1.15-.21.25 0 2-1.12 3.91-.43 6 1.07 3.68.06 8.42 2.78 11.52a1.87 1.87 0 001.14-.85 30.09 30.09 0 002.18-7.8c1.45-1.26 1.49-3.18 1.73-4.8 0-2.53.75-5 .73-7.63 1.13-2.93 2.19-6.67.77-9.73a1.35 1.35 0 01-.68-.93c.72-1.62 1.43-4.07.43-5.92-.27-.53.26-.32.57-.48a1.16 1.16 0 00.67-.94c.1-.57.25-1-.22-1.5-1.06-2.64 1.11-5 .62-7.54-2-2 .29-4.48-.61-7-.58-1-1.77-.24-2.6-.7-2.14-1-.34-3.47-.5-5l.83.14c2.87 2.16 6.61 2.24 10 3.16.42.26 1.2.25 1.25.93a2 2 0 001.67.82c1.14.14 1.91-1.48 2.9-.79.78-.17.83.66 1.31 1.12 1 .67 2.44 0 3.48-.59l.43 1.3c-.22 1.41-.12 2.84-.24 4.21l-.1.13a2.1 2.1 0 00.48-.06c.29-1.24 0-3.15.19-4.71v-.93c.57.1 1.19.11 1.77.18.05.21-.21.15-.26.31-.09 1.09.23 2.49.13 3.43.64 2.54-1.27 4.48-.74 6.86-.08 2 1.63 3.37 2.22 5.13l.36-.21a8.62 8.62 0 00-1.63-2.78 8 8 0 01-.38-3.65 13.43 13.43 0 01.45-2.81c.72.21 1.66-.06 2 .82.22 1.77 2.19 2.75 2.83 4.29.68.73-.46 1-.72 1.41-.46.48.06 1 .17 1.51.21 1.56.28 3.9-1.06 4.94-.36.94.58 1.56.64 2.44a37.54 37.54 0 00-.69 6.81c-.46.58-.25 1-.56 1.62a11.47 11.47 0 01-.94-2.23 3.75 3.75 0 00-1.21-1.6 18.08 18.08 0 00.4 5.45l-.21.16a3 3 0 01-.94-.25.19.19 0 000-.08l-.14.34a37.91 37.91 0 011.32 3.57c1.31 1 .54 2.41.6 3.74l-.73.23a5.66 5.66 0 00-.62-.79c-.73-.15-.05.79-.51 1-.37-.26-.48-.73-.94-.57-.63.16-.41 1-.3 1.41.47 1.13 1.42 2.73.8 3.73-.21-.1-.47-.31-.68-.1l-.09 2.7c-.1.1-.2.26-.36.21s-.26-.2-.26-.37c-.42-.1-.78-.61-1.25-.29.38 2.23 2.88 3.3 3 5.59-.09 1.61-1.18 2.87-2 4.12-.94-.31-1.1-1.46-2-1.87a2.62 2.62 0 00-.14 2.82c.74 2 0 4.88-1.1 6.76-.73-1.24-.07-3.12-1-4.21l-.94.74c.16-.52 0-1.45.46-2l.31.16a.83.83 0 001.09-.27c.3-1.61-.48-3.38-.65-4.94a2.44 2.44 0 00-1.72-1.13c.25-1.45.13-2.75.91-4a9.48 9.48 0 003.16-1.88c.2-.68.87-1.3.45-2.09-1.46 0-3.21 2.26-4.26.24.09-.42 0-1.2.72-1a28.87 28.87 0 003.49-3.5c-.94-1.35-2.8.22-3.95-1.06 0-1.3-.27-2.56.34-3.65a1 1 0 01-.94-.3 34.86 34.86 0 011-6.09c-.52-.1-1.14 0-1.51-.56a1.52 1.52 0 01.45-1.78 1.89 1.89 0 01-.68.35c-.46.36-.3 1-.3 1.61.06.83 1.1.72 1.52 1a37.1 37.1 0 00-1 5.57c0 .57.58.61.84.92a7.33 7.33 0 00-.14 3.17c-1.18 1.31-1 3.45-.64 4.69.05.3.26.2.47.35-.15.16-.05.47-.1.68-.46 1.51-1.17 3 .34 4.2a33.51 33.51 0 00-.8 5.31c.38 2 1.64 4 .77 6.18-.5 3.23 1.33 6.13 1.35 9.46 1.41 0 1.5-1.68 2.07-2.72.61-1.93 1.43-3.69 1.52-5.83-.07-2.49 1.32-4.63 2.4-6.77.77-1.21.55-2.76.44-4.1.77-1.16.81-2.71 1-4 0-.46-.47-.77-.21-1.24 1.33-2.35 1.26-5.52 1.45-8.32 1-1.83.75-4.33.89-6.36 1-2.81.9-5.87 1.24-8.79-.11-.92-1.46-2.06.09-2.65.3-1.71 1-3.84.07-5.51l.93-1.13c.25-.69-.38-1.2-.59-1.77a14.91 14.91 0 01-2.72-4c-.53-.72-1.51-.09-2-.67.14-2 .08-3.16.07-5.29l-.21-.42c2.18-.11 4.62-.13 6.49-.4a51.53 51.53 0 0019.05-3.11c.47.72 1.46.25 2 .35a18.64 18.64 0 01-.44 3.38c-.11.15-.37.26-.26.52-1.35.95-1.47-1.34-2.56-1.64a3.39 3.39 0 00-1.18 1.87c-.21.73-1.08 1.72-.24 2.34-.57.47-1.3.42-1.87.69-.83.31-.67 1-.56 1.67s.84.71 1.1 1c-.41.47-1.14.16-1.56.63a13.76 13.76 0 00.5 5.61c.11.67.9 1.6-.19 1.86a3.07 3.07 0 00-.13 3.12c.52.16.93-.21 1.4.16a12.53 12.53 0 00-1 1.82c-.29 3.43.88 6.9.9 10.33l1.19.1c-.45 1.25-1.33 2.28-1.27 3.75a12.06 12.06 0 01.63 8.31 21 21 0 01.38 3.11c.11.57.52.1.83.36l.13 3.53c.16.94 0 2.19.84 2.65l-.25.36a60.91 60.91 0 00-.21 7.59c-.05.47.32 1.09.83.83a2.88 2.88 0 001.75-2.25 7.77 7.77 0 01.56-2.54l-.11-.11c1.66-1.63 1.9-4 2.1-5.68a64.29 64.29 0 011.66-8.17c-.39-3.48 1.36-6.71.56-10.08 1.19-1.21.7-2.76 1.69-4.07.3-1.5-.44-3.11.33-4.57.2-1.41-.74-2.49-.85-3.64.66-2.13-1.58-3.57-1.54-5.49 1-.63 2.54 0 3.16-1.17.15-.72-.27-1.4-.38-2.12a2.54 2.54 0 011-.42c1.3-.27 0-1.36.56-1.88l-.21.21-1.52-2.06c-.37-.58.36-1.05.1-1.56a16.09 16.09 0 01-3.11-6.07c-1.62-.76-1.22-2.85-1.17-4.05 2.19.88 4.89.91 7.13 1.11 2.91-.33 4.59 2.83 7.6 1.81.78.1 1.86-.52 2.8-.58.73 1.4 1.47 2.79 2.26 4.19a1.24 1.24 0 01-.36.21 12 12 0 01-.4 3.64 1.51 1.51 0 00.9 2c-.93 1-.71 2.55-1.12 3.85.06.62.68 0 1 .36-1.85 1.36-.9 4.11-2.19 5.78-.36.79.16 1.41.47 2-1 2-.17 4.06.77 5.82a3.7 3.7 0 00-.71 3.17c1.21 1.39-.66 2.4-.44 3.85a6.39 6.39 0 01-.74 5.87c-.93 1.31.59 2.34.33 3.59-.71 1.87 1 3.32.4 5.19a1.16 1.16 0 001.67 1.14 2.8 2.8 0 001.13-2.45c-1.06-2.44 2.88-3.71 2.29-6.26 0-2.64 1.95-4.43 2.3-7a3.13 3.13 0 001.28-3.08c-1.16-2.58 1.16-4.58 1.15-6.91-.35-2.26.84-3.8 1.06-5.88l.12-.88a42.51 42.51 0 013.58 5.12c1.1 1.86 2.83 3.46 3.63 5.43.26.11.25-.21.35-.31 1.58 2.27 4 3.3 6.22 4.47 1-.89-.33-2.29-.59-3.37-.11-.57-.74-1-.69-1.5-.32-.73-1.2-1.5-1.31-2.12a2.36 2.36 0 00-1.41-1.34c-1.47-2.49-2.37-5.19-4-7.62-1.21-2.33-3-4.5-3.68-7l1-.57a8.52 8.52 0 00-.87-4.42 7.34 7.34 0 01-.78-1.66c.47.26.94.78 1.4.82a3.2 3.2 0 001.39-2.23c.31-1.2-1-2-1.68-2.9a6.75 6.75 0 011.51-.12c1-.47 1-1.66 1.38-2.61 0-.62-.62-.93-.84-1.49 2.22-2.72-2.05-3.94-2.59-6.54.42-.42.68-.37 1.3-.37 1.3 0 .72-1.77 1.13-2.6-.06-1.15-1.41-1.35-1.89-2.28-2.56-2.37.23-5.3-.41-8.31 2.25-1.32 2.06-3.73 1.61-6.09l.57-.34c.08.51.19 1 .28 1.59a.93.93 0 001.15.5c.87-.78.84-2.18.62-3.49l.56-.45a26.41 26.41 0 002-3.82l1.8-4.45.19.51c-.17 1.64.47 3.43.35 5.07 0 .67.83.62 1.3.72l-.92 1.19c-1.34 1.89 0 3.81-1.11 5.63.74 1.87-1.64 4 .14 5.56-.31.36-.83.63-.93 1.1-.36 1 .59 1.7 1.06 2.43a4.92 4.92 0 01-.72 1.4c-.88 1.41.07 2.76-.08 4.22a2.94 2.94 0 00-.81 3c1.62 1.44.07 3.42.76 5.19-1.86 2.45.65 4.93.77 7.48h.32c1-1.26 2.37-2.57 2.67-4.23 1.14-1.3 1.49-3 2.52-4.39 1.67.88-.63-.67.51-1.14-.53-2.13 1.54-3.39.9-5.31.19-2.75 1.63-4.94 2.71-7.34.19-2.86 1.68-5.83 1.87-8.69 1.85-2.14 1.79-5 2.23-7.71-.43-2.64.69-5.09.41-7.95 2.49-2.35-.23-5.5 1.15-8.32-.32-2.15.89-4.74.46-6.51zm-115.47-60c-.84-.88-1-2.23-1.79-3.26a6.18 6.18 0 01.2-2.88h.77a2.28 2.28 0 011.25.58 37.44 37.44 0 01-.43 5.51zm.38-6.35a3.47 3.47 0 01-1.19-.25l-.59-.11a14 14 0 011-2.07 19.71 19.71 0 01.78 2.38zm29.66 65.42a7.71 7.71 0 001.67-1.07c1.86-1.83 5.24-1 7.22-.77a1.94 1.94 0 01.77.39l.15.41a5.89 5.89 0 00-3 .86c-1.81 1.06-.45 2.6-.39 4a35.1 35.1 0 01-3.74-.49 41.28 41.28 0 00-4.58-.75c.41-.79 1.24-1.25 1.7-2zm-.45.26c-1.14.53-1.54 3.06-3 2l-1.15-.09a27.2 27.2 0 014.15-1.96zm-2.07-14.6c.31-.06.37.24.57.41-.2.41-.72.67-.92 1.09-.01-.46.41-.99.35-1.55zm.84.65a6.37 6.37 0 011.62 1.66l-.36.32c-.74.46-1.54 0-2.25 0l-.83.1a7.42 7.42 0 011.82-2.13zm-44.56-51.87c3.12.86 6.45 1.82 9.73 1.65 1.05 2.59 3 4.76 4.1 7.34-2.45-.39-3.71-3.09-6.1-3.49-3.39-.65-7-1.1-10-2.84.41-1.04 1.55-1.83 2.27-2.66zm-3.69.46a9.67 9.67 0 001.6-1.86 17.59 17.59 0 011.72.93 17.5 17.5 0 00-2.42 3l-1.83-1.11zm-18.94 52a9.43 9.43 0 00-1.51-.93 15.07 15.07 0 011.22-4.48l.59-.26c-.05 1.9-.18 3.72-.3 5.64zm-9.62 24c-.37-.94-.12-2.39-.23-3.64.47.31.94.46 1.15 1-.05.42 0 .89.47 1l1.15-.11c0 .77-.72 1.1-1.24 1.61-.41.05-.83.37-1.3.12zm5.62 17.38h.21a.66.66 0 01-.21.37zm-4.95-2.11c.26 0 .57-.42.83 0l.23 3c1.14.1 2.18-1.09 2.84-2 .32.88.74 1.86 0 2.71-.56.73-1.45.89-2.12 1.41-.88 0-1.29 1-2.12 1.31a22 22 0 01.34-6.45zm.37 16.84a19.92 19.92 0 00-.51-5.93 1.72 1.72 0 01.83-1c.32 1.45.95 2.7 1.17 4.21.88.4.16 1.5.12 2.23-.51.25-1.09.82-1.61.47zm.26 8.57c-.67-.15-.37-1.35-.32-1.76.46-.16.25-.78.56-1.1a1 1 0 001.15.52l.93-.85a3.65 3.65 0 01-2.32 3.19zm1.6 5.55c-1.21-1-1.11-2.75-1.49-4.2 0-.36.1-.83.52-.94a11.49 11.49 0 001.17 4.35zm3.2-11.24h-.16a6.16 6.16 0 01-1-3.58.9.9 0 001.29-.63l.35-1.83c.36.05.47.47.78.67a24.37 24.37 0 01-1.22 5.35zm2.74-11.09c-1 1.25.12 3.17-.92 4.31.16.21-.2.42-.25.68l.11.05a.3.3 0 00-.21.1c-.11-.66-1.36-.56-1-1.48-1.4-1.4-.43-3.12-.6-4.84l-.26-.3c-.51.83 0 2.07-.71 2.8.17 1-.77 1.87-.86 2.92.88.09.61-1.26 1.13-1.77a17.85 17.85 0 01.95 2.06c-.41.79-.35 1.72-.71 2.5l-.68-.62c-.83.58-.41 1.72-.56 2.4-.72.89-.8 2.81-2.58 2.19a4.16 4.16 0 00-.54.23l-.09.27c.18.54.87-.07 1.2.08a2.15 2.15 0 001.46-.48 9.07 9.07 0 01.87-1.41c.32.67.42 1.71 1.31 1.92-.3 1.55 0 3.16-.33 4.78.21 1.3-2.07 2.08-1.85 3.6-.42.15 0 .62-.41.83a14.83 14.83 0 01-.75-4.05c1.13-1.1 2.26-2.72 1.64-4.49-.89.33-1 1.42-1.92 1.52-.21-.3-.31-.82-.78-.82-.41.15-.2.62-.46.94a3.65 3.65 0 010-2.42 1 1 0 010-.13.58.58 0 01.13-.14c0-.07.05-.15.08-.22 1.34-.63 1.12-2.51 2-3.5.09-.94.72-1.92-.17-2.34a16.17 16.17 0 00-1.44-4.66c-.57-.1-.72.42-1 .79.09-.89-.69-2.39.24-3.22l1.34-1.32.15.21a7.73 7.73 0 002.64-1.78 8.91 8.91 0 01.85 2.8c.16.15.52-.06.57-.32-.11-1-.69-2.12-.9-3.27.62-.1.72-.78.92-1.19.75 2.38.87 4.62 2.39 6.79zm.29-1.66a1.75 1.75 0 010 1 21.41 21.41 0 01-1.91-5.91c.37.3.79 1.12 1.31.56l.36-.37.1.1.25-.47c-.28 1.58-.89 3.35-.1 5.07zm1.31-15.35a6.84 6.84 0 01-1-2.9c.2.26.31.62.62.73 1.19-.69.41-2.45 1.39-3.4.21.57-.26 1.1-.36 1.62.05 1.38.28 2.86-.65 3.93zm11.32 71.39c-.13-3.12.22-5.77-.63-8.79.42.68.22 1.72.95 2.23a2.17 2.17 0 001.4-.84c-.15 1-1.29 2.15-.45 3a3.71 3.71 0 002-1 9.93 9.93 0 01-.24 2.71c-1.17.74-1.65 2.21-3.03 2.67zm.48 1.56c.67.45.12 2.65 1.46 1.7l.47-.47c.11 1 .07 2.44-1 3.07-.21-.1-.47.21-.67.32.33-1.37-.2-3.08-.26-4.66zm2.9 17.47c-1.37-1.45-.49-3.69-1.75-5.24-.43-1.24 1-3.07-.6-4.1 0-.62-.42-.93 0-1.5a1.33 1.33 0 00.47.82h.88a4 4 0 00.38 3.83 1.27 1.27 0 01.47-.1 4.74 4.74 0 00-.45 2.92c1.74.29.24 2.23.6 3.37zm1.38-2.92l-.57.83c-.21-.51.46-1.5-.58-1.66l-.1.11a2.16 2.16 0 010-1.4 6.47 6.47 0 01.46-1.41c.52 1.09.17 2.39.8 3.53zm.46-.94a26.49 26.49 0 00-.69-2.81c0-.72-.53-1.54-.23-2.43a5 5 0 01.94 5.24zm1.23-11.34c-.83.89 0 1.78-.3 2.76a9.65 9.65 0 01-1.32-3.26c.27-.06.47.2.68 0a1.59 1.59 0 00.35-1.25 2.31 2.31 0 01.61 1.75zm43.35 10.12l.57-.84c1 .88 2.08.25 3.28.67-1.24 1.14-2.11 2.76-3.83 3.18-.44-.93.01-1.97 0-3.01zm.24 5c.37.2.58.67 1.1.88a17.21 17.21 0 002.54-.91l.1-.15a2.82 2.82 0 01-1.49 2.24 23 23 0 00-2.23 1c-.76-.78-.04-1.98 0-3.02zm-.15 7.69c.56-.26.77.46 1.14.67.27 1.6 1.06 3.37.66 4.93-.88.16-.94-.51-1-1.19-.4-1.36-1.19-2.71-.78-4.37zm3.81 11.93a28.66 28.66 0 01-1.73 4.54c-.22-.69-.22-1.78-.49-2.55-.32-1.82-1.32-3.73-1-5.87a2.61 2.61 0 00.57-.68 3.58 3.58 0 01.37 1.3 5.25 5.25 0 00.59 3 2 2 0 001-1c.71-2.23 1.73-5.1.47-7.48v-.94c.74.47.9 1.82 2 1.71l.31-.31c-1.64 2.4-.79 5.66-2.07 8.32zm4.29-19.57a6.25 6.25 0 01-.64 5 15.14 15.14 0 01-2.36-3.1l.11-.11c.2.11.46.2.57.46.36.17.94.58 1.2 0 0-.89.09-1.82.19-2.65.1.05.3-.05.36.1l.36-.27a3.79 3.79 0 00-.17-2.17c-.21-.89-1.15-1.77-.69-2.7.37.21.32.78.84.67.36 0 .35-.37.46-.58a.51.51 0 01.18.09l.94.66c-.31 1.59-.05 3.48-1.33 4.64zm1.71-9.06c-.37-1.34-1.15-2.43-1.53-3.73.63.1.88.2 1.25-.31-.07-1.52-.7-3-.61-4.47a27 27 0 001.53 3.16 13.5 13.5 0 01-.62 5.39zm74-109.18c0 .26-.3.62-.15.83-1.1-1.71-3.45-3.51-4.19-5.59l.1-.25c1 .61 2.5.81 2.93 2.1 1.08.67 1.2 1.85 1.36 2.95zm-.43 5.51c.11.31.32.93-.15 1-1.46-1-1.78-2.7-2.68-4-.58-1.14-1.62-2.06-1.89-3.26.21-.41.62-.26.94-.32.62.05 1 1 1.51 1a9.42 9.42 0 012 3.46 5 5 0 00.49 1l.16.95c-.29-.18-.36-.71-.75-.71 0 .45.26.66.42.92zm-.86-4.32c-.16-1.08-1.93-1.38-1.42-2.69.63.92 2.14 1.69 1.47 2.73zM395 125.1c0 2 .44 4.25 0 6.18-.53-.73-1.67-.61-1.88-1.49-.3-5.25-.49-10.86-1.77-15.79a26.15 26.15 0 00-1.28-4.88c.64 1.2 3.18.86 2.72 2.8 1.33 4.08 1.1 9.18 2.21 13.18zm-1.6-15c-2.87 0-4.08-3.5-6.69-4.15-.26-.42-1-.72-.83-1.25 2.97.74 6.41 2.38 7.53 5.43zm-3-4.81h-.14l.06.72a18.15 18.15 0 00-2-1.09l-.51-.92a1.7 1.7 0 01-.34-1.2 9.58 9.58 0 012.14 1.18c.87.07.65.82.82 1.34zm1-1.72c-.05.21.15.53-.15.63-2-.92-3.55-2.11-5.53-2.82a2.16 2.16 0 01-.79-1.14c2.64.06 5.19.98 6.46 3.36zm-4.25-5.68l.79 2.12c-3.12.33-2.77-3.46-4.34-5.12a45.41 45.41 0 00-4.82-6.42l-.33-.83a5.44 5.44 0 001.56-1.5h.16a97.89 97.89 0 016.97 11.78zm-6.65-6.69l-.46-.53a5.27 5.27 0 00-2.36-1.37 1.49 1.49 0 01.45-1.34l.3.81 1.61 1.9a3.63 3.63 0 01.46.53zm10.27-26a10.87 10.87 0 011.89 1.75c-.2.63-.88.88-1.28 1.34l-.67.59c-.53-.62-1.09-1.18-1.59-1.7a5.83 5.83 0 011.65-2.03zm-14.24 8.92c2.42-3.26 5.87-5.87 8.74-8.41a2.12 2.12 0 012.08.09c1.42 2 3.87 3.3 4.4 5.69l.1-.11.21.16c.48 1.08 0 1.81-.65 2.66-4.49 4.49-9.09 8.83-13.48 13.53-.17-4 .45-9.13-2.06-13.1zM372.25 77c.41-1.26 1.71-1.53 2.33-2.61.72-.38 1 .66 1.4 1.07 1.58 4 1.46 8.52 1.12 12.83l-.09.84c-.16 0-.37-.06-.47.1 3 .61 4.85 3.76 5.44 6.41a20.55 20.55 0 01-1.39 9.25c-.79-1.33-1.89-2.53-2.67-3.87-1.17-2.74-1.92-5.7-2.86-8.5-.27 0-.26.31-.37.46 1.12 4.26 2.09 8.61 5.23 12 .84 3.32 1.7 6.64.05 10a45.35 45.35 0 01-3.21-7.46 37.1 37.1 0 00-2.26-4.5c-.06-.11.15-.21 0-.37l-.36-.09c-2.41-3.06-.41-7.07.4-10.2.13-.2.34-.42.46-.63l.46-1.91c1.12-3.7.62-7.59.13-11.23-.36-.74-.37-1.56-1.15-2.12-.63-.26-.93.32-1.09.83a14.65 14.65 0 001.09 7.6l1 1.42c0 .42-.08.85-.13 1.26s0 .88-.2 1.24H375a19.24 19.24 0 00-1.21-3.22 15.43 15.43 0 01-1.54-8.6zm4.81 52.82c-.75-3-3.26-5.13-3.95-8.19-.17-2.44-.3-5.4.67-7.8a29.39 29.39 0 013.93 12l-.26.26a11.28 11.28 0 01-.39 3.7zm-1.38 12.06c.06 1.35-.46 2.13-.66 3.38h-.1c-1.69-4.4-4.32-9.38-2.53-14.22.89 1.81 1.94 3.47 2.84 5.23-.72 1.85.59 3.61.45 5.58zm-2.22 10.62c-1.11-2.44-2.58-4.77-3.22-7.42-.06-2 1-3.49 1.84-5.15.79 1.71 1.48 3.64 2.22 5.44l-.21.15c.28 2.41.4 4.86-.63 6.95zm-.71 2.5c-.95-1.61-2.47-3.68-1.65-5.7a30.71 30.71 0 002 3.71c-.15 0-.26.21-.36.32zm-.65 4.11c-1-1.5-2.42-3.79-1-5.61a6.27 6.27 0 011.43 4.31c0 .15-.1-.42-.41-.27a4 4 0 00-.02 1.54zm-1.84 4.07a2.28 2.28 0 01.19-2.09 2.85 2.85 0 011.06 3.11c-.51.03-.94-.69-1.25-1.05zm.95 2.32a3.39 3.39 0 00-.36 1.19 8.94 8.94 0 01-.17-2.12c.52-.03.37.6.53.9zm-.57-7.32l.15-.06c.43 1 1.58 2.18.86 3.32a3.12 3.12 0 01-1.01-3.29zm1.7-34.78a1.27 1.27 0 01.4-1c.7 3.21 3.94 5.48 3.81 9 0 1.56.07 3.32-.75 4.68-1.95-3.99-5.04-8.08-3.46-12.71zm5.07-2.68c-1-4.15-4.1-7.51-4.13-11.92a22.19 22.19 0 011-4.8c2.1 3.53 2.76 7.57 5 11 .37.46-.2 1 .42 1.4.28 2.86.56 6.14-1.29 8.43a26.38 26.38 0 00-1-4.14zm-2.32-36.22a12.4 12.4 0 01-.87-7.65 18.42 18.42 0 011.31 8.57zm-3.53-9.19a1.06 1.06 0 01.42.62 6.21 6.21 0 01-2.44.48c-.83 0-1.61.59-2.34.22 0-.25.26-.47.47-.68.52.21.57-.36.93-.47a4.8 4.8 0 012.96-.17zm0 2.38c-.47 0-.78-.41-1.14-.61a3.27 3.27 0 001.3-.37 1.53 1.53 0 00-.2.98zm-1.89-3.15c-.93 0-1.86 1.57-2.54.23.67-.59 1.66-.38 2.33-1-.25.1-.04.57.17.77zm-.11-1.87v.47a8.34 8.34 0 01-5.92 1h-.15c.2-.79 1.29-1.06 2-1.58a4.78 4.78 0 014.03.11zm-3.6-1L364 72.82c-1.29-.91-3.2-2.34-4.51-3-6.68-3.38-13.3-6.83-20.53-8.75-1.88-1.13-4.27-.91-6.2-1.94l2.17-1.72c11.07 2.01 22.25 6.8 30.99 14.31zm-30.76-16c.27 1.2-1.19 1.57-1.65 2.24-1.19.79-2.43 1.52-3.57 2.21-.06-.41.31-.94.57-1.36a7.93 7.93 0 014.61-3.07zm-3.63 1.17l-1.72 1.94-1.27-.07a5.45 5.45 0 01-1.31-.28l1.65-1.79c.7.14 1.68.01 2.61.22zm-5-1a13 13 0 013.15-1.05c-.66 1.45-2.42 2.46-3.45 3.76-1 .42-1.55 1.42-2.59 1.79-.04-1.77 1.32-3.34 2.81-4.5zM295 60.26c1.58 1.92-1.32 3.44-1.83 5.27a2.57 2.57 0 01-.72.93 6 6 0 012.55-6.2zm-4.08 3.92c.37-.11.52-.62.94-.62-.41.51-.2 1.4-.67 1.87-.14-.43-.19-.84-.31-1.25zm3.74 31.32c-.89-1.87-3.66-3.41-2.74-6 .73.36 1.66.08 2.35.55.07 1.86 1.8 3.72.35 5.45zm.66-19.44c-.32 0-.57-.37-.89-.1-1 2.55.66 5.19.06 7.85a17.16 17.16 0 00-.34 5.34 8.48 8.48 0 01-2-.19c2.31-4.95 2.73-11.92-.62-16.73a5.06 5.06 0 01.5-1.76 9.72 9.72 0 014.06 1.11c0 1.67-.4 2.86 0 4.37 1.5.19 3.12.24 4.32 1l-.18 4.47c-.42.42-1.15 0-1.61.32a22.39 22.39 0 00-3.34-5.68zm27.14 51.06c.06 1.14.48 2.07.59 3.22-.42-.83-1.72-1.34-1.62-2.28.31-.25.72-.72 1-.93zm-.16-.46c-.62.47-.72 1.09-1.39 1.36a22.22 22.22 0 01-2-2.33 27.36 27.36 0 011.46-7l.36-1.51a48.43 48.43 0 001.53 9.48zm5.2 8.8l-1.36-1.25c.83-1.45 0-3.21.39-4.83.29-2.54 1.16-4.88 1.35-7.49.67 4.26.8 9.51-.42 13.57zm5-26.34c-.47-.3-.06-1.25-.88-1-1.14 1.31-1.45 2.92-2.21 4.43-1.18 2.08-1.17 4.42-1.36 6.81-.15.74.37 1.45-.14 2.08-.4-6.28-.71-13-5-18-.42-.51-.63-.93-1.31-1a1.31 1.31 0 00-.35 1.15c1.89 3.36.88 7.69-.14 11.12-.17-1.82-.08-3.58-.13-5.24.32-4.89-1.72-9.35-4.2-13.24-.47-.3-1.09-.65-1.6-.29-.32.31.15.72.1 1.14a70.09 70.09 0 01-.52 16.16 75.35 75.35 0 001.5 7.47c.06 1 .38 2-.13 2.91-.36-.25-.68-.82-1-1.12-.9-1.87-2.63-3.57-3.68-5.49 1.08-2 1.95-4.07 2.87-6.1 1.72-7.55.36-16.73-2.49-24-.79-1.25-1.37-3.22-3.14-3.36-.46.21-.25.78-.36 1 2.16 4.87-1.18 9.83.67 15 .08 4.94 1.63 10.28-.11 15.44-.15.1-.31.37-.57.26a5.37 5.37 0 01-2.06-5.39 13 13 0 002.2-6.19c-.09-5.51.34-11.6-4.11-16-1.35-.61-2.3-2.22-3.75-2.41a12.32 12.32 0 00-.27 6.29 13.63 13.63 0 012.6 9.7l-1.81-1.25c-1.05-.15-2 .9-2.7 1.57a28.76 28.76 0 01-1.68-3.05 1.83 1.83 0 01.72-1.15c1.27-4.73 3-9.27 1.31-14.3-.58-1.5 1.5-.48 2-1.41l.18-5.15a28.59 28.59 0 00-4.32-1c-.32-1.3.08-2.86 0-4.2A9.61 9.61 0 00292 70.1a10.69 10.69 0 00-.5-3.1c0-.36-.53-1 0-1.19.37.46.11.83.58 1.19 1.66-.27 1.65-2.25 2.89-3.08a62.46 62.46 0 0110.63-3.14c5.8-.7 11.75-1.76 17.1-1.83l.65.09a2 2 0 00-.13 1.53c1.66.56 2.48-2.15 4.35-1.74.36.2.4-.15 1.3.37 1 0-.1 1 .69 1.32 1.14.31 1.86-.9 2.79-1.26.52.3 1.2.2 1.67.56 3.28.4 6 2 9.11 2.75 6.8 3.22 14 5.64 20.18 10.2l.2.55-.3.24c-.06 0-.11-.05-.11-.15s-.05.1-.15.1v1c1.51.45 3.74-.7 4.22 1.32-.42.21-.36.58-.46.94.58 1.29 1.76.14 2.81.24l2 1.39-.1.47a43.34 43.34 0 00-4.86 4.33c-.72.64-1.6 1.68-2.8 1.12-.42-.15 0-.46 0-.73-.22-1.35.45-2.55-.18-3.84a15.89 15.89 0 00-4.89-.54 11.33 11.33 0 00-.45 1.87 16.82 16.82 0 01-.66 2.76h-4.11c-.56 1.3-.39 3.12-.44 4.46.32.26 1 .52 1.41.26.52.41 1.92 0 2.55.39.16 1-.4 2.56.38 3.17-7.84 8.06-16.32 15.9-23.95 24.17h-.32c-.36-2.18-.43-5.15-.66-7.17zm32.17-24.26a69.92 69.92 0 01-7.13 7.06v-3.38c-1.25-.56-2.44 0-3.85-.44a11.81 11.81 0 01.18-3.78c1.14-.23 3.07.28 4.37-.15.51-1.5.55-3.12 1-4.57 1.45-.12 2.49.45 3.85.12l.36.37a41.46 41.46 0 01-.18 4.42 1.52 1.52 0 001.34.35zm-29.15 57.72c-.3.83 0 1.61-.66 2.23-.94-1.18-2.2-2.22-2.73-3.61.26-.27.05-.79.36-1.21a2.65 2.65 0 012.07-1.61c.24-.14.46 0 .67.18l.93.56a8.08 8.08 0 01-.7 3.46zm.59-4.49h-.29c-.11-.12-.25-.23-.33-.33a3.51 3.51 0 00-3.11 1.27 3.6 3.6 0 00-.72 2c-.36-.78-1.15-1.56-1.62-2.39.3-1.61 1.9-2.81 2.15-4.32.52-1.09 1-2.5 2.22-3.13.39 2.59 1.59 4.18 1.64 6.9zm-.35-21.09c-.2 0-.36 0-.46.21.79 2.59-.64 5.19-.52 8 .37 1.81-.65 3.64-.54 5.46l-1 .63c1.79-4.69.93-9.25 0-14l.1-.47c8.72-9.05 17.35-17.21 26.29-26.05 3.87-3.61 7.74-7.74 11.82-11.4 0 4 2.06 7.18 3.33 10.54l-.5 1.5a.61.61 0 01-.26.31c-.09.58-.61.89-1.08 1.3-9.76 9.26-20.15 18.9-29 28.36a59 59 0 01-4.55 4.24c-.99-3.08-1.02-6.63-3.63-8.63zm21.1 56.92c-.47-.67-.78-1.45-1.31-2.13.62-.42-.32-.66-.21-1.13a10.22 10.22 0 004.4-2.36 13.17 13.17 0 003-3.3c.08 3.07.56 5.72-1 8.32-1.71.07-3.27.12-4.19 1.43-.26-.19-.27-.82-.69-.87zm-2.93 3.5c-.78.73-2.54 1.48-2 2.87.1.26.47.47.47.78-2.34 0-5 1.58-7.48.51a.91.91 0 01.82-1.25 15.69 15.69 0 013.54-.07c.72-1.41.29-2.28.54-3.75 1.29-.05 3.88-1.57 4.11.87zm-14.43 2.69a49.36 49.36 0 006-3.42c.73-.31 1.4-1.2 2.33-1.41 1.19-.68 2-1.31 3.43-1 .41.52.94.72 1.3 1.25a4.57 4.57 0 00-2.34.27 1.71 1.71 0 00-.93.22c-.15.92-.24 2.38-.34 3.63-1.56.11-3.17 0-4.57.86v1c-2.49.38-4.37-.65-6.76-.53.53-.33 1.38-.34 1.88-.91zm3.78-9.63a14.48 14.48 0 005-1.29l.63 1.25c-1.45.37-3.27-.09-4.57.75-1.61 0-3.11 1.37-4.77 1.8.42-.73 1.14-1.46 1.13-2.24.66-.41 1.75-.1 2.58-.31zm-9.83.23a49.43 49.43 0 006.77 0c-.72 2.55-3.15 4.13-5.22 5.54-2.17 2.72-5.85 3.05-9.08 2.71-.83-.46-2.13-.5-2.71-1.7.57-.42 1.24-.37 1.87-.63 3.16-.37 6.69-2 7.94-5.12zm-17.8 11.17l-2.86-.09a10.8 10.8 0 01.33-5.61 18.08 18.08 0 003.64-.23l.2-.16.35-3c1.29-.78 2.6-.12 4.1-.23.28 1.87 0 3.28.14 5 .11.2.37.15.57.15.93-.53 1 .87 1.88 1.13l.93.25c-.09 1.3.22 2.39-.28 3.48a12.07 12.07 0 00-4.1.76c-.09 2.08-.08 4.16-.32 6.28a18.09 18.09 0 01-4.69-.17 36.57 36.57 0 01.32-7.38zm-2.21-29.76c3.33.69 6.14 2.91 9.38 4 4.15.29 7.82-2.64 11-5.21 1.14-.26 1.93 1.08 2.66 1.81.06.41 1.05.87.17 1.19-1-.62-2.23 0-3.28-.19-.62 0-.82.79-.72 1.26a7.85 7.85 0 002.8 4.23l-.67.45-1.78.34c-3-.19-6-1.31-8.9-2.18a12.26 12.26 0 00-2.44-.91c-2.76-.14-5.83-.54-8.32.2a2.69 2.69 0 00.28 2c2.55 1.95 5.47 2.87 8.08 4.62 2.92 2 5.51-.09 8.31-.78l5.45-.14a4.83 4.83 0 011.87.25 5.72 5.72 0 004.8-1l1.4 1.39c-.61-.27-1.36 0-2.19 0-1 .26-2.5.16-3.43.49-.67.36-1.56.21-2.18.63-3.11.65-5.28 2.95-8.55 3.18-2.29.37-4.43-1.17-6.66-.07.12 1.92 1.48 3.11 2.84 4.29 2 1.41 5.15 1 7 0h.11a8 8 0 012.28-1.23l-.25 1.16a10.21 10.21 0 01-8.08 4.63c-.84.06-1.51.79-2.34.49.05-1.45.24-3.48-.24-4.79-.42-.14-.93-.46-1.4-.19-1.4-.67-2.59.07-3.94.49.42.73.06 2 0 2.91-1.29.63-2.59 0-3.94.6-.05.62-.41 1.2-.25 1.76a8.25 8.25 0 000 4.22c.42.41.93-.11 1.4.19.63.05 1-.1 1.46.1-.2 2.54-.33 4.88-.32 7.27a17.14 17.14 0 005.61.43 39 39 0 00.64-6.44l4-.8c.67-.74.24-2.4.35-3.28l.2-.26a17.8 17.8 0 005.51-.14c-1.29 1-2.79 1.94-4.09 2.83l.37.78a2.37 2.37 0 002.34.24l.1.1a11 11 0 012.55-.69c-.36.93-1.35 1.31-1.7 2.25.53 1.24 2.18.82 3.27.75a12.83 12.83 0 016.55-.34 55.81 55.81 0 017.71 2.69 13.81 13.81 0 01-4.1.76 27.58 27.58 0 01-9.46-.51l-.21.2c.12 1.56 1.32 3 2.26 4.31 1.88 1.9 4.07 1.68 6.51 1.51a14.19 14.19 0 004.56-.66l.12.91a4.12 4.12 0 000 .86 21.72 21.72 0 006.08.33 10.3 10.3 0 00.34-3.48c.36-.58 1.09 0 1.56-.17 2.35.86 5.56-.19 6.57 2.87-1.75 1.09-3.29 2.29-5.09 3.28h.32a1.36 1.36 0 01-.25.11l-.11-.05-.57.06a7.26 7.26 0 00-3.94-1.05c-2-.77-4.73-.13-6.76.2-3.32 1-5.93-1.68-9-.88a1.22 1.22 0 00-.67 1.25c1.9 3.66 6 4.33 9.74 5.3l-.58.17a39.79 39.79 0 01-6.1 1.69c-6.24.4-12.83 1.32-18.91 1.52l-.36-.26a6.07 6.07 0 001.12-2.81c-.42-.21-.58-.93-1.15-.67-1.39 1-2.11 2.92-3.61 3.76a16.37 16.37 0 00-2.34-.6c.62-1.15 3.21-2 2-3.6-.1-.17-.41 0-.52-.16-.46 0-.93 0-1.14.58-1.5.58-2.11 1.94-3.35 2.83-.16.21-.47-.1-.58-.2-8.38-1.5-15.73-5.63-23-9.88-1.15-.56-.12-1.3-.33-2.23-.78-1.41-1.87-.41-2.81-.36-.83.63-1.4-.65-2-1 .26-.36.63-.36.88-.73a2.48 2.48 0 00-.11-1.71c-1.52-.56-3.18-.34-4.58-.5a40.74 40.74 0 00-3-3l-.1.1-.63-.92c2.48-2.46 5.32-4.83 7.58-7.43.13 2.85-.06 5.24 0 8.1l.42.46c1.35-.26 3.32 0 4.67-.38.5-2.14.44-4 .79-6.2 1-.89 2.65 0 3.9-.27l.06-6.3c-.89-1.24-3.84 1.06-3.29-1.53 2.22-2.31 5.33-4.51 7.29-7.07.72-.73-.59-1.29-.69-2 .12-.12.23-.22.34-.35l.48.84c.5.8 1.17 1.8 2.25 1.61 5.39-3.1 9.3-8.23 13.8-12.72a7.49 7.49 0 01.88.45zm34.94 42.22l.15-1.18a29.3 29.3 0 015.17-1.23 6.58 6.58 0 010 3.06 22.51 22.51 0 01-5.3-.17zm14.44.59a7 7 0 01.58 1c-1.37 1-2.91 1.74-4.18 2.63l-1 .28c-.23-.16-.46-.33-.7-.47l1-.81c1.48-.76 2.85-1.8 4.3-2.67zM283 177l5.58-5.34c.32.41-.3 1.21.59 1.31s2-.27 2.69.08l-.06 5.71c-1.3.43-3.12-1-4 .5a42.34 42.34 0 01-.64 6c-1.45.11-2.85.17-4.21.18-.06-2.59.12-5.77.16-8.32zm25.08-28.84c-.16.15-.42.31-.47.57a1.54 1.54 0 00.69 1.92 10.54 10.54 0 013.85 1A136.49 136.49 0 01301.8 162c-1.24.89-2.22 2-3.72 1.89a4 4 0 01-1.3-1.17l-.54-1.11a3.56 3.56 0 01.57-.51 5.19 5.19 0 00-1.42-2.23c-.72.06-1.24 1.21-1.91.75a3.65 3.65 0 01-.6-3.33 5.18 5.18 0 013.76 2.31c.53 1.72 2.46 3.1 2 5 .16 0 .26-.21.37-.31.09-2.14-1.53-3.53-2.27-5.29a5.64 5.64 0 00-3.6-2.21c3.46-3.14 6.71-6.33 10.07-9.52 1.62 1.17 3.07 1.07 4.85 1.84zm-.52-6.85a17.76 17.76 0 012.46-1.39 46.13 46.13 0 006.26-.44c1.92-1.05 4.05-1.64 6-2.74l1.41 1.65c-4.57 0-7.72 3.06-11.87 4.24a15.52 15.52 0 01-5.76.4 5.59 5.59 0 001.48-1.77zm-.62.41c-.93.73-1.65 1.72-2.9 1.58a7.52 7.52 0 002.88-1.63zm-10.71-1.33c-.06-.89-1.88-.83-2.61-1.7a3.11 3.11 0 01-1.52-2.59c2-.37 3.54 1 5.61.58a18.05 18.05 0 015.24-1c-2.45 1.15-4.31 3.03-6.74 4.66zm-19.77-49.92c.42.16 1.09.15 1.19.41a35.52 35.52 0 019.47 1.35c2.55.19 4.12 2.83 4.92 4.89-2.24.6-4-.91-6.09-1.15-1.88-.51-4-.18-6-.63-4.18-2.06-6.08-7.55-11.13-8.14a1.09 1.09 0 00-1.29.26c-.26.42.17.94.26 1.4 3.19 1.7 3.27 5.55 5.31 8.13-.73.42-1.66.27-2.34.84a10.46 10.46 0 00-2.68 2.72c.27.53.73.11 1.2.36 6.74-1.19 12.18 3.41 18.82 1.59 1.71-.84 3.31-2.52 5-3.25a26.8 26.8 0 014.89 8l.08 1.07a10.18 10.18 0 00-4.49-.08 5 5 0 00-.3 2.91c.11.52.64.93.59 1.39a11.37 11.37 0 01-2.35-.55 13.13 13.13 0 00-5.52-2.67c-2-.87-3.85-.23-5.72-.79a30 30 0 00-5.62-1.93c-.68.1-1.72-.36-2.08.47a22.65 22.65 0 012.46 2.54h-.1c.57.41.47 1.14 1 1.39a4 4 0 002.09 2.27c1.3.26 2 1 3.38 1.18 1.05.66 2.51.6 3.55 1 4.87-1.33 7.76 3.59 12.43 2 2.13-.32 3.52-1.58 5.55-2.16l1.94 2.32c-2.33 1.27-5.15.71-7.53 1.81-3.73 1.17-6.92-1.26-10-2.63-1.1.12-2-1.07-3.28-.65-.11.15-.52.36-.36.78 1.26 1.6 2.05 3.47 3.3 5.12 2.36 2.54 5.74 3.5 9 4.3 1.72.51 3.74-.12 5.3-.6 1.71-.84 3.37-2.1 5-3.1a4.88 4.88 0 012.69-1 3.83 3.83 0 012 1.6c.31.41 1 1 .89 1.55.47.21.58.88 1 1.24-2.22 2.6-5.67.56-8.41 1.09-2.5-.29-4.47 1.69-7 2.17-3.84.76-7.39-2.7-10.76.18a8.21 8.21 0 003.5 2.46c2.2 1.92 5.06 2.41 7.61 3.18 3.8.09 7.79-1.76 11.78-2-3 2.41-7.31 1.81-10.48 2.56-2.22 1.36-5-.44-7-.32-.26.1-.78.22-.57.67-.09 2.61 2.57 3.67 4.55 4.45-.94.37-1.61 1.15-2.54 1.42v.36c.21.15.47.56.84.4a32.43 32.43 0 003.38 1.08c1.51.51 3.38-.13 4.89-.19-.52.42-1.3.68-1.87 1.21a9.22 9.22 0 001.88 1.49c-3.25 3.2-6.5 6.38-9.86 9.32-.78 1-.35 2.6-.19 3.63-.52-.1-.88-.62-1.51-.56-.26.26 0 .37-.26.57l-16.67 17.28-3.35 3.52a97.19 97.19 0 01-10.5-16.88c-.32-1.08-1.21-2.27-1.43-3.42h.57c.42-.27 1.14-.57.83-1.15-.95-1.24-2.51-1.59-3.76-2.57.26-.63-.06-1.2-.07-1.82.68-.06 1.41.1 1.92-.54-.05-1.34-1.67-1.64-2.5-2.52a40.92 40.92 0 00-.88-5.71c-2.12-7.89-2.13-16.31-1.3-24.78 0 0 1.57-7.39 2.53-10.77l.42-.47.94.67c.31.09.51-.17.72-.38a5.79 5.79 0 00-.95-3.21l.82-1.3c.26.62 1 .72 1.31 1.13.4-1.41-.7-2.8-.87-4.31 1.53-5 4.78-9.38 7.76-13.72.47-.92 1.28-1.76 1.79-2.64l.88-.79a18.6 18.6 0 007.38 5.65zm-12.55-3.35a23.17 23.17 0 013.09-3.77l1.65 1.13c-4.31 6-8.14 10.88-10.13 16.81a23 23 0 01-1-2.34c1.86-4.11 3.48-8.18 6.39-11.83zm-8.18 13.51a1.73 1.73 0 01.56-1.87 1.14 1.14 0 011.15.72c.74 2 1.17 4.2 1.91 6.17-1.62-1.29-2.52-3.31-3.62-5.02zm.86 2.09a6.55 6.55 0 01.51.92c.79.77.53 1.39.17 2.34a4.8 4.8 0 01-1.4-2.16zm-2.25.15c1 .16.94 1.25 1.42 1.87.73 1.6 2.25 2.94 2.21 4.76a4.85 4.85 0 01-2.93-3c.21-.15-.26-.2-.26-.2-.16-1.19-1.42-2.3-.44-3.43zm-3.22 31.36l.09-.93v.1s-.11-2.54-.07-3.63c.39-4.17-.32-9.36 1.21-13.89a51.26 51.26 0 012.38-8.48c.26.56.84 1 1.21 1.65-1.72 5.89-3.4 12.34-3.26 18.37a46.38 46.38 0 00.43 10.64c.24 4.36 1.87 8.15 2.37 12.72-.83-1-3.22-.75-2.77-2.53-1.23-4.93-.99-9.14-1.59-14.02zm1.19 16.47a1.74 1.74 0 01-.06-.73l.37-.21a28.8 28.8 0 015.38 3.44c.11.53-.46.43-.72.64-1.88-.36-4.48-.75-4.97-3.14zm2.2 2.9c.63-.11 1 .52 1.56.56l.22 1.66a3.19 3.19 0 01-1.77-1.28zm.13 3.17c0-.23.16-.54.16-.8l-.17-.61c1.48 1.29 3.55 1.82 5.16 3.13 0 .17.27.26.16.47-.36.53-1.09.27-1.56.23-1.39-.78-2.81-1.03-3.75-2.42zm1.67 2.06a14.72 14.72 0 012.09 1c2.16 5.7 5.48 11 8.57 16.16l.1-.11 3.15 4.4c.21.62-.77 1.05-1.13 1.56a80.17 80.17 0 01-12.78-23.01zm1.72 33c0 .11-.2.11-.31.11-1.57-1.82-5.63-3.24-4.71-6.16a6.82 6.82 0 014.64-4.13c1-.11 1.52.82 2.09 1.49l2.27 4.93a19.76 19.76 0 00-3.88 3c0 .28-.41.49-.13.75zm-15.3 20.78c-.36-.2-.32-.78-.32-1.25l.93-1.56c4.22-4.81 8.62-8.94 13-13.49a11.8 11.8 0 002.16-3.29c1.15.83 2.4 1.39 3.54 2.17-6.39 5.9-12.04 12.48-19.31 17.41zm20.36-17.9a11.68 11.68 0 01-4.59-2.62c.46-1.78 2.48-2.46 3.82-3.56.63.57.69 1.6.95 2.44a8.79 8.79 0 01.75 2.95c.37.2.37.93.48 1.4-.5-.11-1.25 0-1.41-.62zm1.39-1.89a19.32 19.32 0 01-1.22-4.2c2.12-1.67 3.66-4.07 5.94-5.64 6.86-7.95 14.92-15.48 22.19-23.43l.36-.19c1.08.36 1.83 1.63 2.92.54l.57-.47 1.05 1.49c-.41.31-1.4.9-1.13 1.57s1.25 1.24.37 1.86c-6.66 6-12.91 11.94-19.32 18.47-3.87 3.18-7.85 6.8-11.73 9.99zm10.74-4.27c-.64-.79-1.4-1.57-2.1-2.33a5.27 5.27 0 001.34-1.15 40.15 40.15 0 003.82 3.56 8.34 8.34 0 01-2.49.28zm.21 1.76a1.05 1.05 0 01.26-.93c2.23-.07 5.08-.6 7.22.16l.16.46c.32.83-.36 1-.93 1.31-2.14.47-5.14.85-6.71-1.01zm4.48 1.95l2.34-.58c-.16.05-.05.26-.1.36.26.36.73.41.83.82a4.14 4.14 0 01-1.87.32c-.21-.52-.83-.52-1.2-.93zm1.32 2.7a1.53 1.53 0 01-.84-1.19c2.34.45 3.94-1.22 6.08-1l.36.46a2 2 0 01-1 1.78 5.88 5.88 0 01-4.6-.01zm8.17 34.29a7.15 7.15 0 003.27-.48c.68 1.09-.66 1.46-1.39 1.77-.52.32-1.14.17-1.66.47-.52-.31.15-1.19-.22-1.77zm3.66 3.41a9.17 9.17 0 01-2.59 2c-.31-.2-.72-.2-.93-.57v-.72a6.47 6.47 0 003.52-.72zm-3.19 13.22a12.6 12.6 0 00-.3-6.54c.83.88 1.78 1.85 1.79 3.16l.31.21a8.56 8.56 0 011.91-1.53 11.78 11.78 0 01-2.93 4.9V246zm3.8 16.08c-.31.58-.46 1.41-1.14 1.68-1.89-2.43-1.43-5.5-1.92-8.52.36-.05.3-.56.72-.57.74 2.08.08 4.1 1.39 5.81.42.2.62-.32.82-.58a25.24 25.24 0 001-3.17c.4 1.8-.63 3.52-.87 5.39zm3.87-19.14l-.18 3.38h-.05c-.59-1.93-1.95-3.89-1.55-5.76.58.62-.08 1.87.95 2.23.88-.42.51-1.31.71-2l-.12-3.27c.53 1.67 1.58 3.84.24 5.41zm.4-10.81c-.36.05-.46.52-.25.83l.16.15c-.94.21-1.06-1.76-2.45-1.18-.08-2.9.48-5.2.52-8.06h.2c.79 1.41.65 3.38 2.37 4.1a8.61 8.61 0 01-.55 4.15zm-2.5-25.66a24.38 24.38 0 00.71 4.67c.26.15.15.47.47.47.3-.53-.22-1.2-.33-1.77l-.27-1.5c.68 1 1.93.91 3.07 1 .48 1.5 0 3.06-.23 4.52-.09 1.3 1.37 2.33.86 3.78.22 1.82-1.07 3.33-.8 5.15 0 1 1.21 2.08.13 2.91l-.94.11c-.36.58.16 1.05.27 1.61-1.15-1.14-.85-3.06-2.16-4.19-.69-2.5-.29-4.94-.46-7.43l-.16-.16-.2.26c.06 1.88-.39 4.74.35 6.76.06.89-.66 1.66-.55 2.7.17 2.4-.65 4.17-.32 6.82.26.56.93.09 1.3.29.32 1.93 3 .61 2.72 2.69a16.19 16.19 0 01-.23 4.89c-.32-1.36-.49-3-1.54-3.84a1.68 1.68 0 00-.3 1.2l-.13 4.51a4.56 4.56 0 00-.83-2.27c-.37-.11-.68.31-.68.57-.55 3.39 2.74 6.43 1.72 9.81-.19 2-.49 4.06-1.83 5.62v.84a1.48 1.48 0 00-.73-1.09c-.36.52-.19 1.31-.45 1.88-.52.83-.46 1.88-1.13 2.6a36.27 36.27 0 00-1-5.39c-.21-.21-.52-.41-.78-.21l-.36.37c-.58-1.67-1-4.52-.3-6.24.41-.36.25-1.14.51-1.61a13.34 13.34 0 003.54-6.26l-.31-.31c-.72.73-1.81.79-2.33 1.78a4.66 4.66 0 00-2.36-3.26 9.53 9.53 0 01.76-3.27c1.55-.69 3.37-1.79 4.09-3.46l-.22-.31c-1.34.54-2.69 1.36-4.25 1.07.2-1.09.56-1.3 1.76-1.57.52-.21 1.34-.33 1.65-1 .05-.62.36-1.62-.27-2-1.08.64-2.13.38-3.37.6l-.21-.21.66-1.41c-1.82-1.18-.85-3.15-1.23-4.92.32-.11 0-.52.37-.47-.42-.58-.84-.57-1.15-1.14.09-1 1.12-2.56-.49-3.17-.17-1.39.29-2.29.28-3.63-.31-.58-1-.52-1.24-1l.19-1.76a7.42 7.42 0 006.06-3.79c.46-1.34 1.59-2.66 1-4.2.36 0 .25-.38.51-.48.58.62 1.92.56 1.88 1.29-.52.82-.05 1.76-.72 2.54zm13 .7c0-.17-.17-.62-.48-.58-3.43-.9-7.38-.93-10.1-3.09l.1-.12a17.49 17.49 0 01-3.59-1.47c-3.23-1.49-6.21-4.22-9.5-5.92a4.19 4.19 0 001.82-1.05c2.29 2.07 5.06 3.08 7.56 4.62a55.94 55.94 0 0016.15 6c-.57.7-1.5.81-1.96 1.56zm3.63.07c-.77.32-1.5 1.06-2.49.65l-.47-.47a48.83 48.83 0 005.59-4.6c.15-.11.72-.17.46-.48a2 2 0 01.94.36c-1.19 1.5-2.69 2.92-4.03 4.53zm.89 0l1.08-1.31a11.41 11.41 0 002.34.46c-1.03.61-2.17 1.78-3.38.89zm2.6 1.39c-.26 0-.72-.05-.73-.35a11.1 11.1 0 003.78-3c.62-.78 1-1.83 2-2.29l.21.21a7.31 7.31 0 01-5.26 5.47zm30.89-4.8a3 3 0 00-.3.8 59.54 59.54 0 01-7.42 2.18c-4 1.07-8.67.68-12.62 1.23-2.39 0-5.55.45-7.95 0l2-1.73c3.23.35 6.18-.19 9.46-.32 5.83-.74 11.05-.31 16.32-2.54l.61-.17zm.32 1.27c-.4-.39 0-.73.1-1.09l.23-.89c.59.17 1.18.35 1.75.56a2.36 2.36 0 01-2.08 1.44zm-4.36 33.29c.2-1.66-.33-3.07-.28-4.68.93.1.92-1.4 1.91-1.41-.1.77-1.34 1.72-.35 2.34l1.4.1c.43 1.65-.86 2.81-2 3.64-.21.04-.52.51-.68.05zm1 14.91c-.81-3.64.94-7.18-1-10.7a5.59 5.59 0 01.12-.82l.62.44a6.94 6.94 0 01.77.84.72.72 0 001.09.09c.42-.26.68-.58 1.25-.47-.09 2.24-2.94 3.65-2.15 5.93.26.26.79.67 1.25.36l1.3-1.41c.09 2.43-1.66 4.15-3.21 5.78zm.94 1.39l.57-.31a6.77 6.77 0 01.47.93c.11.16.37.31.47.21l-.1.1c.73.46 1-.69 1.66-.69.17 1.93-1.07 3.54-2.31 5.06h-.47a35.33 35.33 0 01-.25-5.26zm.45 14.3a35.12 35.12 0 01.07-6.56c.36.62-.46 1.88.74 2.08.2-.31.46-.27.67-.42a.19.19 0 01-.1-.05l.1.05c.44.18.6-.52 1-.48-1.28 1.62-.05 4.72-2.44 5.42zm3-5.9c-.83-.36-1.34.64-2.18.64-.26-.63.2-1.67-.74-1.87.1-1.14.93-1.71 1.65-2.61a5.73 5.73 0 001.38-3.59c.42.52.32 1.46.9 2a10.47 10.47 0 01-.99 5.46zm1.16-6.18c.2-1-1.32-2.6.29-3.18.51-1.61.09-2.85 0-4.53.26.47.42 1.35 1 1.31h.2c-.51 2.26-.81 4.24-1.45 6.44zm3.94-25.18c.37.83-.56 1.76-.24 2.59-.68-1.13-1.73-2.07-2-3.36.32.09.58.56.84.36.1-.11.25-.21.2-.37.27.31.47-.11.73-.11.23.35.07.82.49.93zm-3.76-18.42c.17 1.35 1.68 2.22 1.33 3.62.21.21.52 0 .57-.25.92-1.78-2.57-2.69-.76-4.52a45.41 45.41 0 00-.39-4.68c1.46 1.66 1.06 4.15 3 5.54.1.43.57.63.57 1.09-1 1.73 1.32 2.75 1.64 4.31-.41.73-1.45.06-1.7.95s1 1.8.11 2.53a3.85 3.85 0 01-1.66.28c-.36.31-1-.1-1.34.47a19.34 19.34 0 001.9 4.56c-.26.89-.51 1.51 0 2.35a.38.38 0 00-.46.31c0 .15.1.41-.05.52-.16-.26-.53-.67-.89-.46s0 .3-.05.56c-.31-.31-.52-.87-1.14-.82l-.21.27a12.8 12.8 0 002.47 4.66c.21.2.31 0 .46-.06.85 1.76-1 3.39-.89 5.3a1.67 1.67 0 00-.46 1.87c-.09 1.2.33 3.12-.33 4.32h-.1c-.33-1.46-1.27-2.69-1.69-4.1-.16-.09-.27-.26-.47-.2a5.87 5.87 0 00-.09 2.7 23.83 23.83 0 001.69 4.31c.21.1.26-.11.41-.16a11.41 11.41 0 01-.09 1.67c-.94-.89-.84-2.14-1.63-3.07-.26-.1-.36.11-.56.27-.2 2.12 1.11 4.15.24 6.08-.57.94-1.81.79-2.54 1.62-.47-.47-.42-1.81-1.41-1.33v.1c-.1-.21.16-.31 0-.57l-.15-.16c.72-1 1.6-1.47 1.74-2.55.88-.95.93-2.45 1.17-3.66-.1-.2-.05-.62-.46-.56l-1.86 2.09c-.63-.25-.32-1.19-.28-1.72.31-1.71 2.59-2.61 1.85-4.58-.84-.36-1.51.33-2.08.69a4.58 4.58 0 01-1-1.14l-.87-.52a2.73 2.73 0 01.26-.51l-.1-.05c.5-2.55 3.66-3.36 2.76-6.31-.37-.31-1.14-.15-1.61-.46a19.56 19.56 0 00.92-2.13c-.42-.73-1.19.06-1.77.17a5.8 5.8 0 00-1.18 1.5c-.33-2.33-1.23-5.18.68-7-.57-.72-2.28.38-1.88-1.29a1.93 1.93 0 01.93-1.87c.77-.68-.17-1.3-.28-2a14.23 14.23 0 01-.59-5 2.62 2.62 0 002-1.26c-.63-.36-1.72-.46-1.41-1.55v-.31c1-.11 1.76-.85 2.8-.86.1-.09.26-.2.26-.36-.31-.35-1.4-.35-.84-1.14l1.13-2.49c.78.51 1 2 2.24 1.85l.37-.32a22.28 22.28 0 01.49 4.63 1 1 0 00.37.16c.46-.37 0-1 .09-1.51.2-1.61-.9-3.12-.13-4.47a31.71 31.71 0 00.45-3.64l.36-.37c0 2.93 1.29 5.68.16 8.7zm1.48 34.85a22.63 22.63 0 01-1.54-4.67 15.54 15.54 0 011.56 4.71zm23.47-26.24a12.1 12.1 0 01-6.31 4.61c.3-2.38 2.95-3.08 4.65-4.24l1.55-1.4c.44.3.08.87.13 1.07zm-6 7.52a2.24 2.24 0 00.25-1.3 6.4 6.4 0 001.4-.47l.79 1.66c.27.77 1.15.41 1.67.29a5.6 5.6 0 01-3.25 3.41c-.59-1.05-1.69-2.24-.87-3.55zm.61 5.51c.63.2.94 1.39 1.77.92l.67-.73v.57c-1 1.36-1.49 3-2.73 4.23h-.26c1.65-1.48-.59-3.18.54-4.95zm.14 21.35c-1 .38-.58-.82-.95-1.23l.1-1c.52 0 .89.26 1.3 0l-.11.11.47.09a2.11 2.11 0 01-.82 2.07zm3-7.34c-.14 1.92-2.78 2.77-2.2 4.79l-1.66-.13c-.89-1.2-.12-3-.5-4.43l-.42-1.19c.73.73 1.4-.27 2.18-.22 1.45-.48 1.17-4.32 3.05-2zm.66-3.64c-.52-.31-.89-.93-1.62-.83-1.4.85-1.28 3.08-3.15 3.19-.26-.2-.83-.25-.47-.72.89-1.61 1.68-3.74.89-5.53l.46.16a5.33 5.33 0 001.32.94c.78.2 1.14-.64 1.5-.95.11.05.16-.06.21-.11.01 1.45 1.94 2.47.86 3.89zm2.4-5.16a2.69 2.69 0 01-1.51-1.4c-.74-1.45-.59-2.33-.49-4 .27 1.66 1.57 2.95 2.47 4.35a1.94 1.94 0 01-.47 1.09zm1.06-6.46a9.32 9.32 0 01-1.44-5 17.5 17.5 0 001.89 3.16zm.65-2.54c-.83-1.14-1.16-2.85-2.56-3.42a7.74 7.74 0 00.12 3.44 8.89 8.89 0 001.52 3.21 6.25 6.25 0 00-.17 3.9c-1.2-1.24-1.63-2.85-2.47-4.3-.16 0-.26.11-.36.21l.1.36-.47.21a5.32 5.32 0 001.81 5.86 8.57 8.57 0 01-.81 3c-.79-.82-.74-2.07-1.53-2.89-.83 0-.93 1-1.65 1.19a5.53 5.53 0 01-1.25-.91l-.81-.2a.34.34 0 00-.14-.31c2.29-.28 2.48-3 3.72-4.56 0-.35.35-.83.09-1.18s-.68-.2-.93-.11-.47.95-.93.69l-1.05-.93c.31-.27.21-.68.31-.94 2.18-.38 3.15-2.62 3.87-4.34-.89-.77-1.66 1.16-2.14-.3-.26-.51-.26-1.13-.73-1.54-.94-.41-2 1.3-2.29-.19a15.31 15.31 0 006.72-4.89c0-.46.36-.87.1-1.34-1-1.14-1.92 1-2.91 1.36s-2 1.42-3 2c.2-1.41-.22-2.86 1.38-3.81a.53.53 0 00-.47-.67h-.47c.25-1.21 0-2.65 1.07-3.54.1-1-1.56-.62-1.05-1.72a10.45 10.45 0 00.39-4c2.52 3.77 4.73 7.65 7.25 11.43-.11.21-.95-.93-1.2 0a5.94 5.94 0 001.22 3.62c-.47-.25-.94-.92-1.57-1-1.39.73-.14 2.13 0 3.16.58.47.74 1.31 1.47 1.56-.08.74.21 1.46-.18 1.93zm.25-2.4c-.74-1-1.78-2.17-1.53-3.58.78.52 1.77 1.4 1.83 2.23a2.07 2.07 0 00-.3 1.39zm1.13-5l-.13 1.1a9.39 9.39 0 01-.34 1.56c-.37-.16-.47-.53-.68-.78l.46-.12a6.24 6.24 0 01-1.05-3.31 12.28 12.28 0 011.75 1.55zm9.95 7.62c.21.36.27.79.64 1.09.77-.63.73.73 1.3.87a16.44 16.44 0 012.32 5c-2.45-1.38-5.22-2.83-6.69-5.21-.31-.62.25-1.29.83-1.51s1-.58 1.6-.27zm-6-38.16l.11.09c-.52.16-1.66.13-2.08.8-.09 1.82 1.68 2.53 2.63 3.88.21.47.89 1 .48 1.71a1.74 1.74 0 00-.62 1.46c1.15.67.64 1.71.38 2.65-.35 1.56-3.07-.4-2.22 1.67.37.88 2 1.19 1.52 2.33-.41.58-.35 1.61-1.13 1.77a4.3 4.3 0 00-1.77-1c-.52.47.06 1.19.37 1.66a8.7 8.7 0 011.33 4.92c-.36.16-.73.16-1 .43-2.57-4.4-5.35-8.8-7.93-13.26l-.26-1c2-3.34 4.95-6.11 6.48-9.65a17.87 17.87 0 01-1.72 6.34.5.5 0 00.47.21 18.48 18.48 0 001.82-7.11h-.31a23.17 23.17 0 001.12-3.39c.39 2.33 4.18 2.82 2.39 5.54zm-4.12-2.31c-1.58 3.92-4.63 6.74-6.79 10.33.85 2.49 2.58 5 3.89 7.47 4.16 7.36 9.14 14.28 12.56 21.89-.93.22-2.33.69-2.69 1.84-6.34-8.58-11.7-17.55-17.16-26.5.26-.41.63.15.73-.46l-.37-.26c-2.49 1.36-6.17 1.65-8.53-.31-2.91-1-5.87-.28-8.78-1.25-2.71-.6-5.11-1.83-8-2-2.13-.77-4.27-1.68-5.74-3.81-.21-.41-.16-1.14.46-1.2 2.8-.49 4.84 1.52 7.75 1.05 2.7 0 5.39-1.55 7.95-.21l3 .6a31.15 31.15 0 005.47 3.61c-1-.6-1.9-1.32-2.83-2l.63-.53c1.43-.81 2.81-2 4.26-2.3l2.06 5.28c.26.21-.15.31.21.47a.32.32 0 01-.15.25h.67l.2-.36a54.26 54.26 0 00-2.59-6.38 18.5 18.5 0 00-1-1.86c-1.17-2.39-3.6-2.22-5.64-2.77-1.14-.31-2.28 0-3.38-.34-3.22.64-6.22 2.16-9.7 2.39-3.06.08-6.54.61-8.23-2.64-.31-.78-1-1.39-1.05-2.23 4.89 1.06 10.29.41 14.86-.67 1.61.4 3.43-.49 5 .08s3.28 1.53 5.05 2.09c.94-.31.1-1.14 0-1.66a25.75 25.75 0 00-1.89-2.79c-2.84 1.73-7.05 1-10.12 1.36-4.11-1.53-8.39-3.53-13.16-2.51-1.14.16-2.54.9-3.48.06 1.14-1 1.59-2.7 3.35-2.71 2.44-1 5.05.32 7.65.26 2.7-.48 4.94 1.06 7.48 0l3-.63c.89.35 1.41 1.27 2.24 1.48l.1-.1a1.9 1.9 0 001.77.25c.26-.27-.1-.62-.36-.73-1.92.42-3-1.32-4-2.42-.22-.72.56-1.14.92-1.61.26.21.48.67 1 .41 1.25-.63 1.41.71 2.56.7a21.38 21.38 0 002 2.44c.1.16.25-.05.35-.11-.21-.93-1.2-1.7-1.78-2.33a3.47 3.47 0 01.35-3.73c-.48-.47.4-1 .66-1.31 1-.94 2.39-.17 3.63-.7 0 1.77.8 3.58.66 5.25-.31.92-1.34 1.51-1.54 2.55.1 0 .21.25.36.16 1-1.1 2.27-2.16 1.74-3.86-.84-1.45 0-3.12-.65-4.57 2.2-6.1-2-14.81 4.08-19.67l1.29-1.21c.6 4.32-.93 9.16-.74 13.68a91.79 91.79 0 00.24 12.52 7 7 0 01-3 6.2 5.37 5.37 0 00-1.5.84 10.44 10.44 0 001.16 2.8l1.42 1.76c1.75-1.51 2.26-4.17 2.45-6.29.09-2.66-.19-5.3.73-7.86 1.27-4.17 4.89-7.41 5.44-11.88 1.36 3.47 2.75 7.88.33 11.27-1.74 4.17-.93 9.57-4 13.22l-2.33 2.26-1.29 1.15a1.43 1.43 0 00-.41.65c.32 2 1.48 3.73 2.27 5.6.73.09.36-.73.72-1a17.3 17.3 0 003.1-10.52c.4-3.64 3.86-6.68 3.68-10.67.41-1.62 1.8-2.87 2.88-4.13.77 6.23 1.44 13.07-1.44 18.91zm-29-3.24c.26-.36.78-.11 1.15-.21-.19.41-.66.05-1.08.26zm2.09-.12c.46-.31 1.08 0 1.66-.11a3.51 3.51 0 01-1.57.16zm3.37-.12c1.09-.07 2.49-1 3.53-1a12.1 12.1 0 011.73 3 8.58 8.58 0 01-3.12-1.49c-.66-.06-1.34-.37-2.07-.46zm9.52-1.31c1.5-.84 3.16-1.94 3.77-3.77a16 16 0 01-1.05 6c0 .49-.47.83-.74 1.18l-1-1.26a15.2 15.2 0 00-.98-2.15zm4.18 6.26l-.67.82c-.05-.15-.1-.31-.14-.45a1.54 1.54 0 01.19-.28l1.27-1.1c.38-.4.92-.73 1.07-1.08l.11.1a13.61 13.61 0 002.21-2.82c.75 2.79-2.34 3.38-4.02 4.81zm3.75-1.57c-.19 2.33-1.68 4.42-2.7 6.57-.45-.91-1.07-2.06-1.53-3.25l.8-.91c1.06-.91 2.44-1.59 3.43-2.41zm8.92-10.78c-.22-2-.08-4.36-.66-6.38-.32-.68.4-1.78 1.08-1.58.43 2.44 2.22 6.13-.42 7.96zm1.44-6l-.18-.9.06.14.58-.45c0 .38.1.76.17 1.15zm.77-4.59a7.51 7.51 0 00-.36 2.72l-.71.4c0-.1 0-.21-.05-.3l-.36-.52c-.63-.57-1 .15-1.41.47-.56-.2.41-1.14-.57-1-1.55 1.41-3.2 3.24-3.6 5.33.22 1.82-1 3.95-1.84 5.46-.76-5.2 4.05-8.91 2.14-13.78-.52-1.51-.84-2.59-1.42-4-.27-.47-.22-1.24-.74-1.39.12 3-1.57 5.88-3.32 8.44-.72 1.77-1.75 3.38-2.51 5.15l-.17-.35a114.46 114.46 0 011-20.07 10 10 0 00-.5-4.26 11.34 11.34 0 00-2.54 2l-1.23.2a1.54 1.54 0 01-.68.2c-2.6-.08-4.3 2.41-5.59 4.14-1.95 3.45-2.65 7.45-5.39 10.48-.47-1.09-1.51-2-1.68-3.26a16.49 16.49 0 003.45-4.38c3.3-4.65 2-10.83 2.39-16.29a13.34 13.34 0 00.17-6.86c-.21-.26-.11-.89-.68-.72.05.31-.36.47-.47.73-6.72 4.87-3.75 13.85-6.67 20.51-.77 1.58-.45 3.28-.8 4.89a42.28 42.28 0 00-3.25-3.46l-.05-.46 2.31-3.82a56.48 56.48 0 003.12-8.18c.75-4.57 3-8.74 2.88-13.36-.38-1.92-.19-4.1-1.81-5.55a14.76 14.76 0 01-3.6 4.65c-3.67 3.24-6 8-4 13l-.2.58c-.26-.05-.32-.46-.63-.31-2.18.33-3.25 2.93-3.66 4.91a4.93 4.93 0 01-1.32-3.37 13.75 13.75 0 003.21-9.58c-.33-4-1.61-8-2.2-12.15 4.08-3.3 7-6.64 10.68-10.51l15.6-15c2.64-2.67 5.32-5.13 8.11-7.65a39.92 39.92 0 00-1.36 6.35c0 1.51 1.16 2.8 1.43 4.31a13.09 13.09 0 00-.3 9.71 16 16 0 00-1.09 8.17c-1.91 2.61-1.05 6-.3 9-1.55 2.45-1 6.13-.16 8.88-1.18 1.88-2.42 3.87-2.3 6.15.06 1.55 2 2.89.71 4.41-.41 1.2.37 2.23.38 3.26a2.71 2.71 0 00-.92 2.25c0 .84.74 1.61.48 2.34a2.76 2.76 0 00-.08 3 2.15 2.15 0 00-.72 1 2.48 2.48 0 00.64 2.12 9.1 9.1 0 00.12 3.17c.31.42.78-.16.93-.48-.16-.62.77-1 .36-1.55a11.58 11.58 0 00.38-3.49 7.07 7.07 0 00.5-3.75l.21.21.36-.42.07-4.25.37-.11a3.17 3.17 0 00.66-1.51 10.91 10.91 0 00.54-5l.52-.47c.2-1.93 1.12-2.93.91-4.9a7.65 7.65 0 00-.38-2c-.21-1.09-.74-2.13.45-3l-.11-.1c1.13-1.72.75-3.48.85-5.15a8 8 0 00.91-3.07c-.42-1 .72-1.35.46-2.34 2.68-2.83 2.19-6.66 1.81-10 2.05-3 1.15-6.76.66-10a22.08 22.08 0 001.59-10.66 14.26 14.26 0 01-.53-1.67 28.82 28.82 0 013.47 6.33l-.15.2c-.11-.16-.26-.1-.42-.1-.36.16-.05.58-.26.73a3.79 3.79 0 002.46 2 5.64 5.64 0 00.53 1.52l.21.77a5.18 5.18 0 01-1.51-.67.64.64 0 00-.83.1c0 2.5 2.82 2.33 4.08 4.35 2.38 6.63 2.84 13.9 3 21.23H392c-.83 1.3.58 2.43 1.31 3.41-.3.32.27 1.19-.46 1-.05 0-.1-.1-.1-.15-.57-.2-1.25-.46-1.66.16-.25 1.83 1.63 3 2.16 4.57-1.85 10.86-4.28 21.75-9.05 31.49l-.58-.72a1 1 0 00-.76-.33zm1.45 6.27a.33.33 0 01-.46.27c-.84-1.71-.81-4-.82-6a1.86 1.86 0 01.68 1.29l-.1.11a5.45 5.45 0 01.7 4.31zm.85-3.49l-.39.33c-.11-.56-.24-1.09-.33-1.51 4.41-8.86 6.74-18.34 8.6-28.12a24.74 24.74 0 01.66-3c2.34 1.71.65 4 .71 6.19-1 4.2-1.66 8.32-3.3 12.07-.2 1-1 2.24-1.12 3-1.91 3.55-2.72 7.62-4.83 11.02zm3.44 16.8l1.16-.4c.95-.43 2-.72 2.94-1a5.54 5.54 0 01-.19 1.56c-.82 1.3-2.49 1.31-3.84.95a3.47 3.47 0 01-.07-1.13zm1.11 18.21c-.22-1.88-1.89-3.63-1.12-5.61.26.41.62 0 .93 0 .63.77-.14 2.38 1.06 2.79a2 2 0 00.93-.78h.26c-.25 1.33-1.44 2.32-2.06 3.58zm-.66-6.18l-.31.16a3.7 3.7 0 000-2.6c-.06-.88.94-.27 1.35-.69 0 .52.63 1 1.1.67-.05 1.41-1.66 1.36-2.23 2.35zm1.58 2.79c-.43-1 .14-2.13-.85-2.9l1.29-.94c-.72 1.38 2.51 2.92-.44 3.82zm1.86-1.52c-.11-.78-1.15-1.29-.64-2.23.42.11.42.62.84.73l.57-.17a4.21 4.21 0 01-.77 1.65zm2.15-4a3.91 3.91 0 00-1.85 1.83 1.2 1.2 0 00-1.15-.67l-.11.11c0-.1.88-2.19-.84-1.61a1.35 1.35 0 00-.47-.83c-.46-.1-.67.27-1.09.27a2.13 2.13 0 00-.1-.73c1.4-.74 2.63-1.62 4.3-1.54.57.26.73 1 1.41 1.24a2.74 2.74 0 01-.1 1.95zm.15-2.49a2.29 2.29 0 00-2.35-1.39 24.75 24.75 0 00-3.63 1.68c-.11-.41-.42-.87-.37-1.29.57-.16.72-.94 1.18-1.21 1.31 1.08 2.5.3 3.85 0 .32.26.63.57 1.15.46a4.36 4.36 0 00.93-.94c0 .78.06 2.18-.76 2.71zm1.67-6.41a4.66 4.66 0 01-.18.74l-.44-.39a5 5 0 01-.63-2.26c.16 0 .31 0 .41.15.95.52 1-.73 1.45-1.1.99 1-.51 1.89-.61 2.88zm1.75-3.44c-.26.1-.21.36-.21.57-.73.59-.37-.83-1-.93a9.68 9.68 0 00-.88 1.77c-.52.12-.73-.66-1.4-.34a3.44 3.44 0 00.81 3l.59.56c-.05.12-.09.25-.13.37.11 1.14-.82 1.56-1.38 2.55-.42.37-.58-.31-.95-.36-1.55.07-2.85 1.17-4.2-.07l-1.4 1.41c-.42-1.09.61-1.81.92-2.7.1-.52-.11-.94.1-1.36 1.35.51 2.39-.06 3.63-.54a5 5 0 00.35-2.75 18 18 0 00-3.31 1.08l-1.12.49a4 4 0 01.94-1.81.9.9 0 00-.18-1.18l.87-.22c1.42 0 2.5-.84 3.82-1.43.05.09.21.15.15.25.16.31.32.82.79.78.83-.12.82-1 1.18-1.62s-.32-1.2.19-1.87c.64 1 .91 2.38 2 2.9a6.62 6.62 0 01-.18 1.47zm1.85-8.2a44.9 44.9 0 01-1.66 6.34l-.21-.21c-.79-.93-.85-2.91-2.35-2.78 0 1.08.06 2.59-.71 3.58-.68-.21-.27-1.3-1.05-1.34a8.3 8.3 0 01-3.81 1.85l-1 .35c-.35-.38-.76-.76-.71-1.28s.51-.89 1-1.15a13.34 13.34 0 004.51-1.17c1-1.1 2.17-1.84 2.58-3.19l1.15.82c1.14.27 1.23-1.13 1.65-2l.61.19zm1.08-2.94a8.6 8.6 0 01-1.89-3.63c.64 1.27 3.13 2.24 1.89 3.65zm2.86-16.84c.48 1.09-.71 1.79-1 2.71.48 2.39-1.16 4.85-.32 7.18-.61 1.82-.28 3.64-.79 5.46-.89-1-2-1.75-2.93-2.78-.16-.2-.06-.84-.57-.67a14.94 14.94 0 001.42 4c.16.62.94 1 .94 1.67-.21.56-.38 1.13-.54 1.69h-.86c-.67.23-.73 1.46-1.27 2-.27-.2-.58-.36-.84-.56-1 .1-.84-.68-.84-1.51h-.31c-.31.73.48 2.33-.71 2.66-1.07 2.24-3.57 2.56-5.59 2.84-2-1.5.24-3.33-.4-5.15 1-1.29.35-2.9.55-4.31.14-1.2 1.08-2.13 1.64-3.17-.47-.11-1.09.21-1.41-.31-.1-1-.22-2.81-.28-4.11a4.34 4.34 0 01-.17-1.16l-.15-1.11c2.61-6.53 5-13.09 5.79-20.36-.27-1 .67-.63 1.08-1.25a7 7 0 01.38 3.74c-.09 1-.76 1.81-.91 2.65h.31c1.8-1.82 1.2-5 .59-7.21l-.35-1.39c-.43-1.11-1.35-2.13-.79-3.4l.58.77c.16.52 0 1.51.53 1.66-.05-.78.2-1.76-.53-2.23l.46-.31.77.7c0 .5.55.87.65 1.36.18 4 .26 8.83.56 13.46.66-1.15.23-2.7.33-4.1.57.56.68 1.44 1.2 2 .36-.73-.37-1.4-.63-2.08-.26-.05-.57.12-.67-.14-.07-2.5-.3-5.92-.27-8.42 1.09.56 1.71-1.1 2.74-1.16.58.78-.29 1.61-.65 2.35-.15 1.09.58 1.86.85 2.79a15 15 0 011.26 2.9c.36-.41.88-.32 1.45-.21a9.43 9.43 0 010 3.85c.55 3.11-1.41 5.36-.3 8.66z" fill="#50d6cc"/><path d="M395.7 160.28c.47.15.73-.26 1.14-.42.21-.17.93-.64.51-.84-.51.47-1.24.64-1.65 1.26zM398.92 152.31h-.25v3.16c.95-.78.16-2.03.25-3.16zM304 58.55h-.1zM396.86 155.59c-.56.11-1.13.84-1.65 1.1a1.75 1.75 0 001.65-1.1zM397.31 151.74a2.2 2.2 0 00-1.45 1.31c.63-.16 1.14-.84 1.45-1.31zM395.84 165.68h.94c.36-.21 1-.52.72-1-.42.57-1.19.64-1.66 1zM392 178.9c-.11 0-.37-.09-.37.11.73.51 1.61-.21 2.34-.48-.73-.05-1.35.53-2 .48zM246.48 156.61a11 11 0 001.53 3.68l.25-.32a12.26 12.26 0 01-1.32-3.36c-.26-.31.31-1-.36-1.1a11.29 11.29 0 01-1.24 2.35c.73.14.83-.78 1.14-1.25zM394.76 175.77a8.38 8.38 0 001.24-2c-.52.43-1.4 1.23-1.24 2z" fill="#50d6cc"/><path d="M206.71 290.34a39.52 39.52 0 015.11.26 11.79 11.79 0 013.25.83 9.12 9.12 0 015.48 6.95 50.44 50.44 0 01.42 8.22 49.45 49.45 0 01-.33 7.08q-.91 5.42-5.15 7.41a14.94 14.94 0 01-3.93 1.1 44.63 44.63 0 01-5.92.32 34.83 34.83 0 01-5.78-.37 10.34 10.34 0 01-3.65-1.35 9.33 9.33 0 01-4.41-6.57 36.19 36.19 0 01-.35-6.11q0-8 .83-11 1.17-4.15 6.11-5.9c1.61-.57 4.39-.86 8.32-.88m-.26 7.29a11.92 11.92 0 00-4 .45 2.93 2.93 0 00-1.83 2.16 33.84 33.84 0 00-.4 6.66 22.6 22.6 0 00.56 6.37 2.59 2.59 0 001.6 1.55 13.83 13.83 0 004 .4 10 10 0 003.67-.47 3.06 3.06 0 001.6-1.81c.42-1.05.63-3.34.63-6.85 0-2.18 0-3.67-.12-4.46a6.33 6.33 0 00-.46-2.07 2.58 2.58 0 00-1.56-1.51 12.19 12.19 0 00-3.67-.42m27.06-7.06v12h2.56l8.17-12h10.22l-11.17 15.57 12.1 16.14H245l-8.82-12.5h-2.63v12.5H225v-31.7h8.52m32.71 0V315h13.33v7.3h-21.87v-31.73h8.53m35.14 26.25H290l-1.54 5.46h-8.86l9.52-31.71H302l9.64 31.71H303l-1.63-5.46m-1.7-6.16l-4-13.77-3.88 13.77h7.87M342 290.57v31.71h-8.52v-12.47h-11v12.47h-8.58v-31.71h8.53v11.94h11v-11.94H342m19.35-.23a39.52 39.52 0 015.11.26 11.79 11.79 0 013.25.83 9.1 9.1 0 015.48 6.95 50.44 50.44 0 01.42 8.22 51.53 51.53 0 01-.32 7.08q-.93 5.42-5.16 7.41a14.86 14.86 0 01-3.92 1.1 44.9 44.9 0 01-5.93.32 34.92 34.92 0 01-5.78-.37 10.34 10.34 0 01-3.65-1.35 9.39 9.39 0 01-4.41-6.57 37.22 37.22 0 01-.35-6.11q0-8 .84-11Q348 293 353 291.22q2.42-.86 8.31-.88m-.25 7.29a12 12 0 00-4.05.45 2.93 2.93 0 00-1.83 2.16 34.67 34.67 0 00-.4 6.66 22.6 22.6 0 00.56 6.37 2.61 2.61 0 001.6 1.55 13.83 13.83 0 004 .4 10 10 0 003.67-.47 3.06 3.06 0 001.6-1.81c.42-1.05.63-3.34.63-6.85 0-2.18 0-3.67-.11-4.46a6.58 6.58 0 00-.47-2.07 2.57 2.57 0 00-1.55-1.51 12.29 12.29 0 00-3.67-.42m57.79-7.06v31.71h-8.37v-9.5q0-3.51.42-11.1l.21-3.7h-.28l-1.11 3.63-1.12 3.6-2.39 7.22-3.28 9.85h-7.34l-3.34-9.87q-2.46-7.32-4.72-14.43h-.27l.2 3.7c.31 5.29.48 9 .49 11.1v9.5h-8.36v-31.71h13.26l3 9.08q1.29 4 3.23 10.85h.32l.72-2.69q1.11-4.23 2.3-8.11l2.88-9.13h13.57m24 26.25h-11.4l-1.54 5.46h-8.81l9.52-31.71h12.87l9.64 31.71h-8.64l-1.63-5.46m-1.69-6.16l-4-13.77-3.88 13.77h7.88" fill="#fff" stroke="#50d6cc" stroke-linecap="round" stroke-linejoin="round" stroke-width=".99"/><path fill="none" stroke="#a3a3a3" stroke-linecap="round" stroke-linejoin="round" d="M16.65 200.03v2.5"/><path fill="none" stroke="#a3a3a3" stroke-linecap="round" stroke-linejoin="round" stroke-dasharray="4.96 4.96" d="M16.65 207.5v156.34"/><path fill="none" stroke="#a3a3a3" stroke-linecap="round" stroke-linejoin="round" d="M16.65 366.32v2.5h2.5"/><path fill="none" stroke="#a3a3a3" stroke-linecap="round" stroke-linejoin="round" stroke-dasharray="4.36 4.36" d="M23.51 368.82h6.53"/><path fill="none" stroke="#a3a3a3" stroke-linecap="round" stroke-linejoin="round" d="M32.22 368.82h2.5M34.72 1.45h-2.5"/><path fill="none" stroke="#a3a3a3" stroke-linecap="round" stroke-linejoin="round" stroke-dasharray="4.36 4.36" d="M27.86 1.45h-6.53"/><path fill="none" stroke="#a3a3a3" stroke-linecap="round" stroke-linejoin="round" d="M19.15 1.45h-2.5v2.5"/><path fill="none" stroke="#a3a3a3" stroke-linecap="round" stroke-linejoin="round" stroke-dasharray="5 5" d="M16.65 8.95v147.57"/><path fill="none" stroke="#a3a3a3" stroke-linecap="round" stroke-linejoin="round" d="M16.65 159.02v2.5M360.61 394.61h2.5"/><path fill="none" stroke="#a3a3a3" stroke-linecap="round" stroke-linejoin="round" stroke-dasharray="4.94 4.94" d="M368.05 394.61h224.8"/><path fill="none" stroke="#a3a3a3" stroke-linecap="round" stroke-linejoin="round" d="M595.32 394.61h2.5v-2.5"/><path fill="none" stroke="#a3a3a3" stroke-linecap="round" stroke-linejoin="round" stroke-dasharray="2.86 2.86" d="M597.82 389.26v-4.29"/><path fill="none" stroke="#a3a3a3" stroke-linecap="round" stroke-linejoin="round" d="M597.82 383.54v-2.5M46.76 381.04v2.5"/><path fill="none" stroke="#a3a3a3" stroke-linecap="round" stroke-linejoin="round" stroke-dasharray="2.86 2.86" d="M46.76 386.4v4.28"/><path fill="none" stroke="#a3a3a3" stroke-linecap="round" stroke-linejoin="round" d="M46.76 392.11v2.5h2.5"/><path fill="none" stroke="#a3a3a3" stroke-linecap="round" stroke-linejoin="round" stroke-dasharray="5.05 5.05" d="M54.31 394.61h229.94"/><path fill="none" stroke="#a3a3a3" stroke-linecap="round" stroke-linejoin="round" d="M286.78 394.61h2.5"/><path d="M6 176.7v6.63h1.34v1.06H6v2.92H4.74v-2.93H.47v-.89L5 176.7zm-4.32 6.63h3.08v-4.73zM24.87 177l-.56 1.13a.14.14 0 01-.14-.15.27.27 0 00-.05-.2 2 2 0 00-1.69-.88 1.72 1.72 0 00-1.56.86 3.31 3.31 0 00-.29 1.67v.6h2.54v1h-2.54v6.34h-1.17V181h-1.69v-1h1.69v-.76a3.5 3.5 0 01.43-2 3.22 3.22 0 015-.29zM29.68 177.25c.06.17-.06.27-.09.45-.08.44-.2 1.83-.2 1.83h2.54v1h-2.55q-.15 1.51-.15 3a12 12 0 00.05 1.5 1.28 1.28 0 001.31 1.25 3.09 3.09 0 001.74-.71l.38 1a4.38 4.38 0 01-2.49.87 2 2 0 01-1.76-.83 3.46 3.46 0 01-.46-2.11c0-1.32.05-2.64.16-4h-1.82v-1h1.86l.15-2.08zM316.88 390l-.82.91c-.16-.11-.15-.27-.26-.38a1.86 1.86 0 00-1.24-.45c-.76 0-2.5.48-2.57 4.1a2.63 2.63 0 012.25-1.28c1.5 0 2.9 1.27 2.9 3.47s-1.41 3.55-3 3.55a3 3 0 01-2.5-1.41 6.49 6.49 0 01-.8-3.59 10.44 10.44 0 01.45-3.26 3.53 3.53 0 013.29-2.63 3.34 3.34 0 012.3.97zm-4.83 5.37c-.14 2 .83 3.49 2.12 3.49.9 0 1.82-.77 1.82-2.43 0-1.82-1-2.48-1.86-2.48a2.52 2.52 0 00-2.08 1.4zM334.89 389.38l-.56 1.13c-.05 0-.12 0-.13-.14a.37.37 0 00-.05-.2 2 2 0 00-1.7-.89 1.72 1.72 0 00-1.56.86 3.32 3.32 0 00-.28 1.67v.61h2.54v1h-2.54v6.34h-1.18v-6.34h-1.68v-1h1.68v-.77a3.5 3.5 0 01.43-2 3.05 3.05 0 012.66-1.35 3 3 0 012.37 1.08zM339.71 389.66c.06.17-.06.27-.1.46-.08.43-.19 1.83-.19 1.83H342v1h-2.6c-.1 1-.15 2-.15 3a11.84 11.84 0 00.05 1.49 1.28 1.28 0 001.31 1.25 3.07 3.07 0 001.74-.71l.38 1a4.34 4.34 0 01-2.48.87 2.08 2.08 0 01-1.77-.83 3.5 3.5 0 01-.46-2.11c0-1.32.06-2.64.16-4h-1.81v-1h1.85l.15-2.08z"/></svg>