<svg xmlns="http://www.w3.org/2000/svg" width="600" height="400" viewBox="0 0 600 400"><path d="M0 400h600V0H0z" fill="#002d72"/><path d="M243.21 308.25c7.95.43 15.26 1.77 13.07 8.33-2.88 8.59-2.46 14.35-6.15 21.73 23 4.49 25.44 6.86 49.23 6.86h.83c23.78 0 26.65-1.74 49.63-6.25-3.69-7.39-3.69-13.75-6.56-22.36s10.67-8.2 20.52-8.6c1.86-.07 5.47-.1 10.2-.07l49.84.79c9.66.2 17.8.39 22 .51 13.95.42 14.77-.82 26.25 5.74-3.68 5.74-7.79 15.59-10.24 20.09s-3.28 6.57-10.66 4.94l-1.64 4.92c-10.26-.41-14.77-1.24-10.67-6.15s4.93-8.63 4.93-8.63l-47.8.27 6.37 11.24s-36.11 24.18-102.57 24.18h0c-66.46 0-102.56-24.18-102.56-24.18l7-11.09-48.4-.42s.81 3.71 4.91 8.63-.41 5.74-10.66 6.15l-1.64-4.94c-7.38 1.65-8.2-.39-10.66-4.92s-6.56-14.35-10.25-20.09c11.49-6.56 12.31-5.32 26.25-5.74 4.22-.12 12.51-.31 22.27-.53z" fill="#fff" stroke="#000" stroke-width=".62"/><path d="M248.73 348.15a5.43 5.43 0 00-4.33-5.15c-1.17-.29-1.66-.1-1.89.83l-.71 2.78c1.84.43 3.33.37 4.3-1.26l-1.32 5.28v.06c-.05-1.91-1.35-2.73-3.19-3.2l-1.27 5.27c-.23.95.08 1.34 1.27 1.63a5.85 5.85 0 006.6-2.75l-1.35 5-12.13-3h-.07c1.42.35 2.42-1.47 2.65-2.43l2.05-8.16a1.88 1.88 0 00-1.39-2.46l11.83 2.93-1 4.73M256.68 358.63l.15-.75c1.31.25 1.57.14 1.64-.16a1.85 1.85 0 00-.21-1.07l-1.2-3.24-2.47 2.44a1.76 1.76 0 00-.52.8c-.08.45.29.76 1.58 1l-.13.79-5.47-1.05h-.06c1.09.1 2.37-1 3.2-1.75l3.5-3.26-2.07-5.51c-.3-.81-.6-2.57-1.7-2.74l6.65 1.26a1.3 1.3 0 00-1.69 1.06 1.74 1.74 0 00.16.86l1 2.8 2.16-2.11a1.68 1.68 0 00.55-.8 1.53 1.53 0 00-1.17-1.63l5.14 1c-1.56-.2-2.25.88-3.36 1.9l-2.89 2.63 2.43 6.55c.28.75.65 1.95 1.69 2.27h-.05l-6.81-1.31M279.62 353.36h-.06c-.68-2.89-2.31-4.6-4.58-4.87-2.42-.31-3.74 1.77-4.23 5.61s.57 6.24 3.23 6.55a4.52 4.52 0 005.26-4l.4.06c-.43 3.41-2.63 5.24-6.19 4.8-4.61-.58-6.76-4.1-6.29-7.85a7.07 7.07 0 017.72-6.09 7.86 7.86 0 013.7 1.63l1.67-.6-.59 4.75M294.92 354.2v.06a5.62 5.62 0 00-5.26-4.26c-1.22-.05-1.64.2-1.7 1.16l-.08 2.92c1.89.08 3.38-.37 4-2.2v.08l-.27 5.48c-.42-1.87-1.84-2.39-3.71-2.49l-.32 5.4c-.06 1 .34 1.27 1.55 1.35a5.88 5.88 0 006-4l-.37 5.15-12.48-.62a1.86 1.86 0 002-2l.46-9.35a1.85 1.85 0 00-1.76-2.21h-.06l12.17.59-.12 4.84M298.28 363a1.83 1.83 0 001.85-2.12l-.25-9.35c0-1-.46-2.06-1.92-2h-.07l7.17-.19a1.86 1.86 0 00-1.89 2.12l.26 9.33c0 .94.38 1.21 1.37 1.18 2-.06 4.3-2.14 4.74-4.39v5.19l-11.36.3M312.62 357.24c.74 2.08 3.12 4.21 5.61 3.95a2.19 2.19 0 002.27-2.51c-.28-2.84-7.77-1.08-8.23-5.59a4.33 4.33 0 014.12-4.88c2.12-.2 2.94.75 3.46.7a2.57 2.57 0 001.5-.94l.48 4.65c-.77-2.06-3-3.73-5.05-3.53a2.06 2.06 0 00-2.07 2.22c.32 3 7.85.76 8.38 5.82a4.64 4.64 0 01-4.36 4.94c-2.42.26-3.44-.68-4.07-.62a3.19 3.19 0 00-1.48.93h-.05l-.53-5.16M326.86 360.84a1.87 1.87 0 001.59-2.35l-1.53-9.25a1.88 1.88 0 00-2.27-1.75l7.07-1.17a1.84 1.84 0 00-1.54 2.35l1.52 9.26a1.85 1.85 0 002.21 1.74l-7.07 1.13M340.65 344.17a7 7 0 11-5.14 8.38 7.11 7.11 0 015.14-8.38zm3 12.78c2.24-.51 2.6-3 1.74-6.69s-2.27-5.72-4.51-5.2-2.59 3-1.74 6.68 2.26 5.74 4.5 5.21M364.49 352c-.83.27-1.23.43-1.23.43-1.91.59-3-.21-3.79-2.37s-1.1-2.84-3.22-2.51l1.21 3.94c.32 1.07 1 2.18 2.52 1.66v.05l-6.67 2a1.85 1.85 0 001.21-2.56l-2.74-9a1.84 1.84 0 00-2.43-1.4l6.6-2c3.2-1 5.21-.19 5.88 2 .74 2.47-1.52 3.84-3.61 4.5v.06a3.61 3.61 0 014.12 1.81c1.15 1.67 1.42 2.43 1.87 2.31 1.84-.57 2.08.44.29 1.06zm-8.49-5.12c2-.73 3.2-1.45 2.52-3.59-.47-1.57-1.58-2.37-2.89-2a1.1 1.1 0 00-.88 1.51l1.25 4.08"/><path d="M139.07 337.4c-2.46-4.5-.06-7.58 16.71-7.28M148.4 339.94c6.15-.39 9.43-5.9 13.54.66M204.19 330.52c3.28-5.76 3.29-11.9 9.85-9s38.56 11.91 42.25-4.91M208.37 322.11c-2.47 6.57 9.36 10.89 41.77 16.2M460.41 337.54c2.47-4.5.59-7-16.63-7.42M451.16 340c-6.06-.65-9.44-5.93-13.54.63M396.36 331c-3.27-5.76-4.28-12.42-10.84-9.55s-38.52 11.95-42.26-4.87M391.76 322.5c2.46 6.57-10.13 8.85-41.94 16.43" fill="none" stroke="#000" stroke-width=".62"/><path d="M336.92 280.32h-.29.29M336 280.44a3.77 3.77 0 01-.47 0 3.62 3.62 0 00.47 0M336.43 280.39h-.32.32M337.4 280.2a1.19 1.19 0 01-.27.07l.27-.07" fill="#0077c8"/><path d="M256.18 144.73A31.44 31.44 0 01230 167.88l-5.43 9.76 2.17 1.45a22.66 22.66 0 012 36.5l-2.12 2.31v64.62c0 4.14-.32 8.75 6.61 12.61s66.92 38.4 66.92 38.4h.09s60-34.56 66.93-38.4 6.61-8.47 6.61-12.61V217.9l-2.12-2.31a22.64 22.64 0 012-36.5l2.17-1.45-5.43-9.76c-12.71-1.68-23-11.92-26.17-23.15z" fill="#fff" stroke="#000" stroke-width=".62"/><path d="M362.51 228.37l-.26-.29v-5.52a34.07 34.07 0 01-3-45.74 42.38 42.38 0 01-22.94-20.63H264a42.39 42.39 0 01-22.94 20.61 34.09 34.09 0 01-3 45.76v1.93h-.25v13.94h124.33v-10.15a3.25 3.25 0 00.37.09zm-113.87-3.88h-2.91a3.68 3.68 0 012.91 0z" fill="#0077c8"/><path fill="#002d72" d="M362.28 258.63l.01 26.05-62.01 35.68-62.17-35.67.13-25.94 124.04-.12z"/><path d="M362.34 283.07v-.53-14 .06h-.58l-34.46 1.23 5.74 2.87-4.1.4 5.34 1.24-3.28 1.22 5.74.4-4.91 1.22 8.21.4-8.21 2.05 7.78-.4-2.11.94a15.72 15.72 0 003.35-1.35s-2.05-5.34 3.7-1.64 8.62 4.11 8.62 4.11 4.1-4.93 3.27-.85 4.92 3.71 4.92 3.71l1 .53v-1.63M248.91 285c4.51 1.22 5.33 0 5.33 0s4.52-3.3 7.39-2.87a21.65 21.65 0 012.36.51l.91-1.33-6.15-.83 7.37-1.23-7-.82 5.33-1.22-5.74-.81 4.5-1.25-4.5-1.22 7-.83-8.21-.8 12.31-1.25s2.05-1.63-6.15-1.63-25-1.23-25-1.23h-.58V283.08l.2-.13c7 0 6.14.83 10.66 2.05M266.79 282.2h-.11a.22.22 0 01.11 0" fill="#0077c8"/><path d="M302.23 208.06a10.45 10.45 0 10-10.43-10.43 10.44 10.44 0 0010.43 10.43" fill="#ffd100"/><path d="M262.06 223.74c.37 0 .71-2.15 1.82-2.58a30.17 30.17 0 008.54-5.78h-.94a39.52 39.52 0 01-15.17 6.41l-.91-.77c3.52-3.88 8.53-5.64 12.52-8.8l.26-1.34-.72-.14-4 1.12-5.24.44-.2-.45 2.18-1.33c.4-.82-1.18-.42-1.68-1l-.18-.67 5.65-2.36.27-.78c-.74-.58-2.17.58-2.85-.57.53-.93 2-.95 3.48-1.29-.09-.17.94.55.72-.37 1.33-.34 3.21-.63 3.44-2.14-1.13-.3-2.34 0-3.63-.08-3.13-1.39 1.53-1.08 1.06-2.54-2.62-.47-5.26 0-8.15-.08-2.09-.15-5.17.33-6.16-1.32a20.78 20.78 0 015.22-1.48 3.32 3.32 0 01-2.17-1.23l7.73-.45 6.58-1.35c.67-.67-.37-1.21-.59-1.47-3.47-1.2-7.36-3-11.35-4.44-.75-.52-2-1.15-1.82-2.13 2.95-.36 5.46 2.08 8.17 1.69 2.93-.24 6.5 2.22 9.7 1.35-.08-.45-.26-1-.91-.91-4.65-3.27-9.64-5.86-13.76-9-.15-.87.8-.46 1-.74l-.25-.6-5.45-3.47.74-.58c6.08.5 10.64 4.09 16.46 6.45.41.16.74-.62.34-.92a48.15 48.15 0 01-6.83-4.92c1.26-2.09-1.83-2.56-1.65-4.34h.56c5.78 3.26 12.08 8.53 18.33 10.87l.85-.47c-4.5-5.36-9.58-8.81-14.21-14.21.07-.59-1.19-1.41-.16-1.8l5.19 3.45.06-1.21c4 2.35 7.42 6.41 11.12 8.35-2.22-3-3-6.3-5.44-9.29l-.82-2.18c1.16-.57-.49-1.18-.1-2 .23-.49.72.17 1.1.16l9.14 11 .74-.52-.35-.85c.29-.35-.24-.63-.48-.61-1.13-2.66-2.37-4.39-3.27-7 1-.67 1.25 1.74 2.25.91-.36-1.2.88-.74 1.16-1.52.17-1-1.16-3-.28-4.38.83-.15 1.21.94 1.53 1.34a27.06 27.06 0 005.53 10.76c1.55 1.08.92 2.87 2.86 3.32 2-1.44 1.7-4.33 3.33-6.32a2.5 2.5 0 012.2 1.48l1.51-.89 1.32 1.13c.55-.05 1.23-1.61 1.93-.74.46 2-.25 4.18-.67 6.32l.37.59.38-.2 5.77-13.49.91-1 .51.37-1.53 5.65c.52.42 1.06-.57 1.49 0-1.11 2.17 1.1.07 1.59.73.1 3.1-1.6 5.76-.54 7.93a3 3 0 003.16-1.08 103.33 103.33 0 015.56-8.75h.94c-1.48 4-3.58 7.34-4.62 10.89.55.47.48-1.2 1.4-1.1l.6-.86a22.07 22.07 0 015.87-5.25 7.69 7.69 0 012.47-2.2c1.19.31.45 1.46.59 1.86l.56-.05c1.05.58 0 1.48.32 2.21.6.11 1.67-1.19 2.51-.87v.87l-3.57 4.62-.4.28-2 2.24-2.6 4.15.28.73c2.95-2.73 5.94-3.46 8.64-6.13l1.72-1.12 1.14-.24c.26 1.62 1.68 1.61.57 2.76l1.1.13.5.49c-2.3 1.28-3.85 3.55-6.33 4.21-2.41 1.65-4.76 1.65-6.33 3.65l.33.83.3-.32c3.29-.75 6.17-1.7 9.84-2.49 1-1.12 2-1 3.23-1.3s.76.93.62 1.61c.36.21 2.25-.19 1.85 1.3l-.78.91 1 .78a8.27 8.27 0 01-4.12 2.78 49.92 49.92 0 00-8.66 2.23l-.06.61 2.12-.09c3.39.05 7.56-2 11.5-1.67A7.86 7.86 0 00348 193l-.85 1c.36.66 2.2.73 1.48 1.83-5.31.41-9 .64-13.5 1.22l-1.22 1 .75 1 .54.14c3.73-.71 7.19.46 11.26 1.21v1.05c-.42 1 .89.9 1.21 1.42l-1.09 1c-.52 1.37 1.25.45.93 1.64l-2.54.66-10.51-.68-1.06.55c1.55.67 3.16 2.45 4.62 2.59 2.75 2.53 7 3.29 10.24 5.43.44.61 1.16.75 1 1.23l.43 1.16c-.06 0-1 .26-1.32-.26-4.53-1.05-8.17-2.31-12.55-3.58l.31.53c1.08.9-.66 1-.72 1.59a30.91 30.91 0 0012.07 6.88c2.49.39 3.68 3.15 6.09 3.29l.78 1.32" fill="#ffd100"/><path d="M307.38 206.69a10.45 10.45 0 10-6.8 1.21" fill="#f2a900"/><path d="M237.83 229.2a20.47 20.47 0 014.92-3.27c3.27-1.65 4.5-2.47 7-.83a22.22 22.22 0 004.91 2.46s3.29-2.07 6.16-4.12 2-3.28 5.74-2.45 12.71-1.64 16-3.28 4.92.42 7.79-3.27 2.87-3.3 7-4.93 3.27-4.5 8.61-2.88 8.2.83 16 7 12.72 8.2 16 11.47a43.06 43.06 0 006.57 5.35s3.28-1.25 6.56-2.88 4.51-2.86 7-1.23a13.64 13.64 0 004.51 2l-.1 30.48-124.18-.1-.44-29.55" fill="#197352"/><path d="M264.49 291.15c4.51-.39 5.74 1.24 9.44.81s15.59-3.68 15.59-3.68c6.15-2.88-3.29-3.7-3.29-3.7l-4.51-.41s-.81-.41-4.51-2.86-4.51-1.24-9 .41a3.8 3.8 0 01-.72.24h-.1l-.58.2h-.11l-.49.15h-.07l-.44.13-.38.08h-.05a1.7 1.7 0 01-.31.06H264.11c-.58-.1-1.14-.36-2.36-.53-2.87-.39-7.39 2.89-7.39 2.89s-.82 1.22-5.32 0-3.7-2.07-10.67-2.07l-.19.14v1.62c.17.11.39.24.71.46 1.74.94 8 4.51 16.13 9.18 1.25-.65 5.74-2.83 9.59-3.18" fill="#2c5234"/><path d="M361.31 284.17s-5.75.39-4.92-3.71-3.27.85-3.27.85-2.88-.43-8.62-4.12-3.7 1.65-3.7 1.65a15.72 15.72 0 01-3.35 1.35h-.05l-.26.07-.22.05h-.28a.68.68 0 01-.2 0l-.32.05H336a3.77 3.77 0 01-.47 0c-2.46 0-8.21 2.47-8.21 2.47a4.42 4.42 0 01-4.91 0c-2.88-1.64-6.56-3.29-10.25-2.88s-5.75 5.75-5.75 5.75-2 1.64.41 4.11-.82 1.63-4.5 2.46-4.53 0-7.8 0c-9 .41-19.28 4.09-9.85 5.33s25.44.82 30 1.22-2.47 4.11-11.9 4.11-18.47-.83-19.28-2.47-6.56-3.68-7.79-1.64-7.79 2.47-7.79 2.47l-6.1-3.19c12.95 7.44 28.4 16.36 38.45 22.16h.11c18.79-10.87 56.63-32.63 61.36-35.23.32-.18.54-.33.71-.44l-1-.52M317.42 241.93s2.46-3.71-3.7-4.12-7.78-2-13.12-1.23-9 .82-9-1.63 2.87-3.28 5.34-1.63 2.87-.42 5.74.39 3.69.81 5.75-.81 2-2.06 5.32-1.65 4.11 0-.81-2.05-5.34-.83-2.88-4.94 1.64-6.54-2-6.13-3.7 2-5.34 4.92 3.28 4.51-3.27 6.15-13.53.41-16.41.41-2.87-.83-4.92 2.86-2.05 3.28-8.61 4.13-6.57 2.45-4.93 3.66-.4 1.65-3.28 1.65a55.43 55.43 0 00-8.19.82c-2.87.41-.83 2.88-.83 2.88s4.11 1.23-1.63 1.64-14.77 4.5-7.8 4.92 11.49.39 12.72 2 3.09 4.43 3.09 4.43l-20.36.12v-19.31c6.16-3.27 10.67-6.12 14.78-5.73s7 3.28 9.43 1.63a15.22 15.22 0 015.74-2s5.75 1.63 6.57.39 2.44-3.71 2.44-3.71a60 60 0 00-6.55-2.86c-1.63-.41-2.47-1.65.82-2.45s.83-4.11.83-4.11l3.7-.42s2.45 3.28 1.21 5.33c3.7 0 3.29-1.23 7.4 1.65a9.31 9.31 0 008.61.82s9-3.7 7.79-7.8-2.87-7.79 1.23-8.2 3.69 2 3.69 2a24.47 24.47 0 017.4-1.63 20 20 0 005.73-.82l4.52 3.28c-6.57.81-7.39 0-8.62 3.3s-1.63 5.74-2.46 7 3.27 1.24 3.27 1.24a6.5 6.5 0 006.15-2.45 45.38 45.38 0 016.16-5.74s4.92 3.27 7.79 5.74 7.38 4.91 9.43 7 5.53 5.7 9.64 6.53a27.82 27.82 0 017.16 2.49l-.4 5.33s-6.14-3.27-11.07 0-4.52 1.26-8.22 1.26-8.19-1.26-10.65-1.26-9.43 2.47-12.72 2.47-3.68 0-8.2-1.65-4.1-.39-7 .83-5.33 0-9.44 2.45-7 1.24-7 1.24 3.29-1.24.41-4.13-1.63-4.91-1.63-4.91-4.11-6.14 0-4.92 4.51 3.7 9.84 4.52a101.52 101.52 0 0012.72.83h8.62" fill="#2c5234"/><path d="M275.21 263.29c1.85-2.61.92-3.83.92-3.83l8.47-.19 1.84 5.1a6.19 6.19 0 01-2.94-.76l-8.44.14-1.39 1.37M275.36 258.05c2.77-.9 7.85-.12 7.85-.12a4.59 4.59 0 00.15-4.32l-8.3-.61s1.68.93.28 5.07M277.06 252.22l5.06.46a3.13 3.13 0 00.63-2.31l-5.54-.31s.29.46-.15 2.16M284.44 255.75l.77 4.18 2.62-.18-2.47-4h-.92M273.68 262.37v-3.08l-10.16-1.36s.92 1.22 0 5.53l10.16-1.09" fill="#fff"/><path d="M265.83 257.61a7.74 7.74 0 00.93-6.92l9.22.3s-1.06.15-1.53 2.62l-.47 2.46-8.15 1.54M274.6 250.69c-3.54-.76-7.7-1.23-7.7-1.23l.16-2.77 6.45.47a6.85 6.85 0 011.08 3.53" fill="#fff"/><path d="M266.44 255.75l-6-.46a8.57 8.57 0 00-.77-5.36l6.77.76M263.22 257.93l-4.77-.2c.77 3.88 1.07 4.18 0 6.18l4.77-.76v2.16M336.19 267.15c-5.34-6.57-5.23-15.58-5.23-15.58l-4.71 2V269l12.41-2.33" fill="#fff"/><path d="M372.52 177.44l.62-.43-4.06-7.29c-12.46-2-22.6-11.77-26.4-23h-85a33.15 33.15 0 01-26.4 23l-4 7.29.61.43a24.63 24.63 0 012.28 39.6l-1.52 1.67v64.34c0 3.88 0 7.22 5.6 10.35 6.4 3.55 58.78 33.68 66 37.85 7.2-4.17 59.57-34.3 66-37.85 5.61-3.12 5.6-6.47 5.59-10.35v-.51-63.83l-1.6-1.71a24.64 24.64 0 012.28-39.6zm-18.64 20.66a31.92 31.92 0 0010.42 23.62c-.07 14.54 0 57.33 0 60.82v.53a12.07 12.07 0 01-.14 2.63 5.51 5.51 0 01-1.61 1.2c-5 2.76-44.71 25.59-62.35 35.77h-.07c-17.63-10.21-57.32-33-62.34-35.77a5.5 5.5 0 01-1.62-1.2 13.6 13.6 0 01-.14-2.63v-.53c0-3.49.09-46.28 0-60.82a32.05 32.05 0 001.51-45.81 40.41 40.41 0 0025.17-21.72h74.86a40.37 40.37 0 0025.16 21.72 32.06 32.06 0 00-8.85 22.19z" fill="#ffd90f"/><path d="M257.83 264.69l1.69 3.07h23.4a11.69 11.69 0 003.37-3.07c-4.61 1-20.92.75-23.69.75a14.89 14.89 0 01-4.76-.75M295.84 195.39c.53-1.08.83-1.2 2.09-1.14s1.37-.45 2.22-.41a1 1 0 011 .75s-.58-.71-1.45 0a3.68 3.68 0 01-2.9.65l-1 .53.12-.43M308.84 195.39c-.54-1.08-.82-1.2-2.08-1.14s-1.37-.45-2.22-.41a1 1 0 00-1 .75 1 1 0 011.45 0 3.71 3.71 0 002.91.65l1.05.53-.13-.43M300.24 199.12a7.21 7.21 0 002.16.13c.61-.13 1.24-.13 1.64-.21s.8 0 .1.29a4.68 4.68 0 01-1.65.62 4.21 4.21 0 01-1.64-.4c-.4-.22-.61-.62-.3-.52M299.41 201.59c1.65-.1 1.43 0 2.56-.1a27.87 27.87 0 012.87 0l.25.47a6.43 6.43 0 01-1.06 0 25.57 25.57 0 00-2.77 0 9.77 9.77 0 01-2 0l.17-.37M304 203.46c-.93 0-1.75-.44-2.47-.44s-1.33.74-.51.62M299.88 197.92l-2.05 2c-.3.33-.11.22-.11 1.25s-.61 1.21-.61 1.21 1.33-3.38 2.47-4.41M304.39 197.92l2.05 2c.3.33.1.22.1 1.25s.62 1.21.62 1.21-1.34-3.38-2.47-4.41" fill="#d18644"/><path d="M228.89 221.46c0 2.84 6.82 1 6.82 3.84m-2.19-11.38c-1.91 2.08 4.35 5.35 2.44 7.43m-.13-10.57c-1.57 2.36 5.14 4.59 3.57 7m-1.81-10.41c-1.17 2.57 5.8 3.69 4.63 6.3m-3.44-10c-.74 2.75 6.32 2.75 5.58 5.49m-5-9.32c-.3 2.82 6.67 1.71 6.37 4.54m-6.41-8.42c.16 2.83 6.86.62 7 3.47m-7.66-7.32c.61 2.79 6.87-.46 7.48 2.31m-8.71-6c1 2.66 6.69-1.53 7.73 1.11m-9.56-4.5c1.44 2.42 6.38-2.64 7.82-.2m-10.16-2.92c1.82 2.16 5.88-3.59 7.69-1.42m-10.49-1.27c2.14 1.88 5.23-4.47 7.37-2.59m.86-8.64c-2.61 1.09 1.74 6.64-.87 7.76m4.43-9.6c-2.47 1.4 2.46 6.42 0 7.81m3.38-10c-2.31 1.64 3.15 6.11.83 7.75m2.24-10.31c-2.12 1.89 3.78 5.76 1.66 7.63m1.11-10.52c-1.9 2.1 4.39 5.32 2.47 7.42m0-10.57c-1.66 2.3 4.93 4.81 3.27 7.1m-1.16-10.5c-1.39 2.47 5.41 4.24 4 6.71m-1.81-11.47c-1.68 2.27 5.47 5 3.81 7.28M229.41 218c-.28 2.83 6.69 1.69 6.4 4.51m-6.92 2.49c0 2.84 6.82 1 6.82 3.84m29.51-75c2.83 0 1-6.8 3.83-6.8m.89 6.8c2.84 0 1-6.8 3.82-6.8m.9 6.8c2.83 0 1-6.8 3.83-6.8m.88 6.8c2.84 0 1-6.8 3.84-6.8m.88 6.8c2.83 0 1-6.8 3.83-6.8m.89 6.8c2.84 0 1-6.8 3.83-6.8m.89 6.8c2.83 0 1-6.8 3.83-6.8m.88 6.8c2.84 0 1-6.8 3.84-6.8m.88 6.8c2.84 0 1-6.8 3.83-6.8m.89 6.8c2.84 0 1-6.8 3.83-6.8m.89 6.8c2.84 0 1-6.8 3.83-6.8m.89 6.8c2.84 0 1-6.8 3.83-6.8m.88 6.8c2.84 0 1-6.8 3.83-6.8m.89 6.8c2.85 0 1-6.8 3.83-6.8m.89 6.8c2.85 0 1-6.8 3.84-6.8m.88 6.8c2.84 0 1-6.8 3.83-6.8m-110.93 82.12c0 2.82 6.82 1 6.82 3.83m-6.82.33c0 2.82 6.82 1 6.82 3.82m-6.82.32c0 2.82 6.82 1 6.82 3.84m-6.82.33c0 2.82 6.82 1 6.82 3.81m-6.82.33c0 2.83 6.82 1 6.82 3.84m-6.82.32c0 2.84 6.82 1 6.82 3.82m-6.82.32c0 2.85 6.82 1 6.82 3.84m-6.82.31c0 2.83 6.82 1 6.82 3.83m-6.82.35c0 2.82 6.82 1 6.82 3.8m-6.82.34c0 2.82 6.82 1 6.82 3.84m-6.82.31c0 2.85 6.82 1 6.82 3.83m-6.82.32c0 2.82 6.82 1 6.82 3.84m-6.51.92c0 2.83 6.81 1 6.81 3.84m-2.09 9.38c2.45 1.45 4.28-5.38 6.72-4m-2.72 6.29c2.45 1.44 4.28-5.38 6.72-4m-2.73 6.29c2.46 1.4 4.28-5.41 6.72-4m-2.72 6.3c2.46 1.39 4.28-5.41 6.72-4m-2.73 6.25c2.46 1.45 4.28-5.37 6.72-4m-2.72 6.28c2.46 1.44 4.28-5.37 6.72-4m-2.72 6.3c2.46 1.43 4.28-5.4 6.72-4m-2.73 6.47c2.47 1.41 4.28-5.42 6.72-4m-2.72 6.3c2.47 1.42 4.28-5.41 6.72-4m-2.73 6.26c2.47 1.44 4.28-5.38 6.72-4m-2.72 6.28c2.47 1.43 4.28-5.4 6.72-4m-2.72 6.29c2.47 1.4 4.28-5.41 6.72-4m-2.72 6.29c2.46 1.42 4.27-5.4 6.72-4M285.88 322.84c2.46 1.42 4.27-5.4 6.72-4m-2.73 6.26c2.46 1.45 4.27-5.36 6.72-4m-3.33 5.9c2.46 1.43 4.27-5.4 6.71-4m-71.43-38.19c.94 2.69 6.76-1.29 7.7 1.37m-6 3.2c2 2 5.51-4.13 7.52-2.13m-.4-111.92c-1-1.71-3-1.89-4.73-1.71a5.56 5.56 0 01-2.85-.39m141.74 48.19c0 2.84-6.81 1-6.81 3.84m2.17-11.38c1.92 2.08-4.34 5.35-2.43 7.43m.13-10.57c1.57 2.36-5.14 4.59-3.57 7m1.81-10.41c1.18 2.57-5.79 3.69-4.63 6.3m3.44-10c.75 2.75-6.32 2.75-5.57 5.49m5-9.32c.29 2.82-6.68 1.71-6.38 4.54m6.32-8.44c-.15 2.83-6.86.62-7 3.47m7.65-7.32c-.6 2.79-6.87-.46-7.47 2.31m8.72-6c-1 2.66-6.71-1.53-7.75 1.11m9.57-4.5c-1.45 2.44-6.38-2.61-7.82-.16m10.16-3c-1.83 2.16-5.89-3.59-7.69-1.42m10.48-1.3c-2.13 1.87-5.23-4.46-7.37-2.6m-.86-8.6c2.62 1.09-1.74 6.64.88 7.76m-4.43-9.6c2.47 1.4-2.45 6.42 0 7.81m-3.4-10c2.31 1.64-3.15 6.11-.83 7.75m-2.24-10.31c2.13 1.89-3.77 5.76-1.66 7.63m-1.13-10.52c1.9 2.1-4.38 5.32-2.47 7.42m0-10.57c1.66 2.3-4.92 4.81-3.26 7.1m1.15-10.5c1.4 2.47-5.42 4.24-4 6.71M371 218c.28 2.83-6.68 1.69-6.4 4.51m6.92 2.48c0 2.84-6.81 1-6.81 3.84m6.81.33c0 2.82-6.81 1-6.81 3.83m6.81.33c0 2.82-6.81 1-6.81 3.82m6.81.32c0 2.82-6.81 1-6.81 3.84m6.81.33c0 2.82-6.81 1-6.81 3.81m6.81.33c0 2.83-6.81 1-6.81 3.84m6.81.32c0 2.84-6.81 1-6.81 3.82m6.81.32c0 2.85-6.81 1-6.81 3.84m6.81.31c0 2.83-6.81 1-6.81 3.83m6.81.35c0 2.82-6.81 1-6.81 3.8m6.81.34c0 2.82-6.81 1-6.81 3.84m6.81.31c0 2.85-6.81 1-6.81 3.83m6.81.32c0 2.82-6.81 1-6.81 3.84m6.5.92c0 2.83-6.81 1-6.81 3.84m2.1 9.4c-2.47 1.41-4.27-5.42-6.73-4m2.73 6.3c-2.47 1.42-4.27-5.38-6.73-4m2.73 6.32c-2.46 1.38-4.27-5.43-6.72-4m2.72 6.3c-2.46 1.38-4.27-5.41-6.72-4m2.73 6.25c-2.46 1.43-4.27-5.39-6.72-4m2.72 6.28c-2.46 1.44-4.27-5.37-6.72-4m2.72 6.3c-2.46 1.4-4.27-5.42-6.72-4m2.73 6.31c-2.46 1.41-4.28-5.42-6.72-4m2.72 6.3c-2.46 1.39-4.28-5.42-6.72-4m2.73 6.29c-2.46 1.44-4.28-5.38-6.72-4m2.72 6.26c-2.46 1.42-4.28-5.38-6.72-4m2.72 6.31c-2.46 1.4-4.28-5.41-6.72-4m2.73 6.27c-2.46 1.42-4.28-5.4-6.72-4m2.72 6.3c-2.46 1.41-4.28-5.42-6.72-4m2.73 6.26c-2.47 1.45-4.28-5.38-6.72-4m3.32 5.87c-2.45 1.43-4.27-5.4-6.71-4m71.43-38.21c-.94 2.69-6.75-1.29-7.7 1.37m6.05 3.2c-2 2-5.51-4.11-7.52-2.13m.4-111.92c.95-1.71 3-1.89 4.73-1.71a5.54 5.54 0 002.84-.39m-107.29-19.25c1.32-.82-.76-5.84.18-6.41m75.08 7.8s4.45-4.55 4.53-6" fill="none" stroke="#000" stroke-linecap="round" stroke-width="1.02"/><path d="M306.91 206.92a11.23 11.23 0 005.77-9.31 10.44 10.44 0 10-20.88 0 9.84 9.84 0 008.36 10.08" fill="none" stroke="#d18644" stroke-width=".62"/><path d="M300.1 156.19h36.28a42.35 42.35 0 0022.94 20.61 34.09 34.09 0 003 45.76c-.06 14.28 0 56.49 0 60V284.71c-.16.09-.37.24-.69.44-4.73 2.63-42.57 24.36-61.36 35.23h-.12c-18.79-10.87-56.63-32.6-61.36-35.23-.32-.18-.54-.33-.7-.44V282.56c0-3.49.09-45.7 0-60a34.08 34.08 0 003-45.76 42.4 42.4 0 0023-20.61h36.12" fill="none" stroke="#000" stroke-width=".62"/><path d="M300.13 146.74h-42.45a33.18 33.18 0 01-26.4 23l-4.05 7.26.61.39a24.63 24.63 0 012.28 39.6l-1.52 1.67V283c0 3.89 0 7.24 5.59 10.36 6.41 3.54 58.78 33.67 66 37.85h0c7.2-4.18 59.57-34.31 66-37.85 5.61-3.12 5.6-6.46 5.59-10.36v-.51-63.85l-1.54-1.64a24.64 24.64 0 012.28-39.6l.62-.39-4.06-7.31c-12.46-2-22.6-11.79-26.4-23h-42.55z" fill="none" stroke="#000" stroke-width=".62"/><path d="M300.17 154.17h37.46a40.34 40.34 0 0025.16 21.72 32.06 32.06 0 001.52 45.82c-.07 14.53 0 57.32 0 60.81v.53a12 12 0 01-.14 2.63 5.09 5.09 0 01-1.61 1.2c-5 2.78-44.71 25.58-62.36 35.77h-.07c-17.64-10.21-57.32-33-62.35-35.77a4.92 4.92 0 01-1.61-1.2 13.44 13.44 0 01-.14-2.63v-.53c0-3.49.09-46.28 0-60.81a32.09 32.09 0 001.51-45.82 40.4 40.4 0 0025.17-21.72h37.41z" fill="none" stroke="#000" stroke-width=".62"/><path fill="none" stroke="#000" stroke-width=".62" d="M238.08 259.15l.16-.4h20.36M287.21 258.73h32.57M322.34 258.73h4M332.19 258.73h29.53l.56.42M254.9 294.33c1.25-.63 5.75-2.83 9.59-3.18 4.51-.39 5.74 1.24 9.44.81s15.59-3.68 15.59-3.68c6.15-2.88-3.29-3.7-3.29-3.7l-4.51-.41s-.81-.41-4.51-2.86-4.51-1.24-9 .41a3.8 3.8 0 01-.72.24h-.1l-.58.2h-.11l-.49.15h-.07l-.44.13h0l-.38.08h-.05a1.7 1.7 0 01-.31.06H264.11s0 0 0 0h0c-.58-.1-1.14-.36-2.36-.53-2.87-.39-7.39 2.89-7.39 2.89s-.82 1.22-5.32 0-3.7-2.07-10.67-2.07l-.19.14M362.3 284.69l-1-.52s-5.75.41-4.92-3.69-3.27.83-3.27.83-2.88-.43-8.62-4.12-3.7 1.63-3.7 1.63a16.4 16.4 0 01-3.35 1.37h-.05l-.26.07h-.5l-.2.05a1.72 1.72 0 01-.32 0h-.64c-2.46 0-8.21 2.48-8.21 2.48a4.44 4.44 0 01-4.91 0c-2.88-1.63-6.56-3.28-10.25-2.87s-5.75 5.75-5.75 5.75-2 1.64.41 4.09-.82 1.65-4.5 2.46-4.53 0-7.8 0c-9 .41-19.28 4.09-9.85 5.33s25.44.83 30 1.24-2.47 4.11-11.9 4.11-18.47-.83-19.28-2.47-6.56-3.7-7.79-1.63-7.79 2.46-7.79 2.46M257.83 264.69l1.69 3.07h23.4a11.69 11.69 0 003.37-3.07c-4.61 1-20.92.75-23.69.75a14.89 14.89 0 01-4.76-.75z"/><path fill="none" stroke="#000" stroke-width=".62" d="M258.13 264.84l-4.3-.79 4.77-4.9M284.6 259.27c.15 2.14-.78 2.64-1.24 4l-1.53 1.73M287.83 259.75l2.46 3.09-4 1.85M270.75 243.3v3.38M270.44 249.73l-.15.79M270.44 256.52l-.31 2.31M270.13 262.83l.16 2.46M263.52 250.06v-3.54M263.68 255.29l-.16 2.64M280.13 247.44v2.62M280.13 252.52v1.09M279.83 257.61v1.83M279.83 263.75l.15 1.4M259.87 257.79l1.88-2.5M281.22 263.44l.61 1.55M273.68 262.2l-1.76 3.16M275.21 258.2l-4.3 7.26M273.98 256.05l-1.54 2.94"/><path d="M275.21 263.29c1.85-2.61.92-3.83.92-3.83l8.47-.19 1.84 5.1a6.19 6.19 0 01-2.94-.76l-8.44.14-1.73 1.71M275.36 258.05c2.77-.9 7.85-.12 7.85-.12a4.59 4.59 0 00.15-4.32l-8.3-.61s1.68.93.28 5.07h0v0zM277.06 252.22l5.06.46a3.13 3.13 0 00.63-2.31l-5.54-.31s.29.46-.15 2.16zM284.44 255.75l.77 4.18 2.62-.18-2.47-4h-.92zM273.68 262.37v-3.08l-10.16-1.36s.92 1.22 0 5.53z" fill="none" stroke="#000" stroke-width=".62"/><path d="M265.83 257.61a7.74 7.74 0 00.93-6.92l9.22.3s-1.06.15-1.53 2.62l-.47 2.46zM274.6 250.69c-3.54-.76-7.7-1.23-7.7-1.23l.16-2.77 6.45.47a6.85 6.85 0 011.08 3.53z" fill="none" stroke="#000" stroke-width=".62"/><path d="M266.44 255.75l-6-.46a8.57 8.57 0 00-.77-5.36l6.77.76M263.22 257.93l-4.77-.2c.77 3.88 1.07 4.18 0 6.18l4.77-.76v2.16" fill="none" stroke="#000" stroke-width=".62"/><path d="M322.34 272.05h13.22a2.68 2.68 0 001-3.18 146 146 0 01-15.18.72s-.31.84.92 2.46z" fill="#d18644" stroke="#000" stroke-width=".62"/><path fill="none" stroke="#000" stroke-width=".62" d="M322.86 269.59l-8.01-3.16M325.32 269.49v-21.02M326.24 253.61v15.36l12.41-2.36M336.19 267.15c-5.34-6.57-5.23-15.58-5.23-15.58"/><path d="M323.16 253.61s-5.23 7.29-7.48 12.91l8.83 2.16s-3.51-10.78-1.35-15.07z" fill="#fff" stroke="#000" stroke-width=".62"/><path fill="none" stroke="#000" stroke-width=".62" d="M323.16 253.61l2.15-4.41M325.31 254.27l6.68-3.34M237.83 229.2a20.47 20.47 0 014.92-3.27c3.27-1.65 4.5-2.47 7-.83a22.22 22.22 0 004.91 2.46s3.29-2.07 6.16-4.12 2-3.28 5.74-2.45 12.71-1.64 16-3.28 4.92.42 7.79-3.27 2.87-3.3 7-4.93 3.27-4.5 8.61-2.88 8.2.83 16 7 12.72 8.2 16 11.47a43.06 43.06 0 006.57 5.35s3.28-1.25 6.56-2.88 4.51-2.86 7-1.23a13.64 13.64 0 004.51 2M344.91 230.42a56.4 56.4 0 007.37 5.72c2.88 1.66 9.44 3.3 9.44 3.3"/><path d="M324.09 130.13a26.11 26.11 0 10-44.06.09 43.59 43.59 0 0022 5.66 48.47 48.47 0 0022-5.75" fill="#0077c8"/><path d="M298 98.84c-.61-1.25-.3-1.68.16-2.76a2.4 2.4 0 00.14-2c-.14-.62-1.38-1.38.46-.92a8.26 8.26 0 002.61.28c1.09.17 1.7.94 1.24 1.7s0 1.24-1.24 1.85-1.83.91-2.14 1.39-1.24.47-1.24.47M295.06 97.75c.46-.31.15-.78.77-.91s.61-.15.45-1.09.15-1.07-.76-1.53-1.7-.61-1.08.14a2 2 0 01.47 1.55L293.82 97s.78 1.09 1.24.77M318 130.83a4.75 4.75 0 01.63-3.24c.61-1.19 1.22-2.44.15-3.23a1.78 1.78 0 01-.93-2c0-.76 1.08-1.38-.76-1.53a8.48 8.48 0 00-4.46.94 3 3 0 01-3.54-.94 7 7 0 01-1.54-2.3c-.31-.61.15-1.55-.16-2.63a3.86 3.86 0 01.61-3.23 14.2 14.2 0 011.55-2l.45-1.36s-.3-.63 1.09-.78a8.63 8.63 0 003.08-1.24c.92-.46.92-.15 1.38.45s.6.31 1.69.62 1.38.15 1.23-.31.15-.45 1.07-.62 1.84-.45 1.54-1.51-.3-.94-1.08-.61-.76 0-1.22-.64-.62-1.07 0-1.54 1.53-.92.3-1.53-2.77-.78-2 .47 1.23 1.22.61 2.12.46 2.31-.46 1.41.46-1.55-1.85-2.31-2.3 0-1.07.61 2 1.23 1.84 1.84-.6-.14-.6-.14-.46-.29-1.54-.93-2.05-.48-2.15.64c-.16 1.67.46 2-1.23 2.43s-1.54.16-1.84-.91-1.09-1.85.45-1.85 1.85-.46 1.08-1.06-.77-.63-.16-1.56.47-1.68 1.7-2.15 1.23-1.23 1.08-1.69-.62-.62-1.39-1.07-2-1.83-1.39-.78a10 10 0 001.54 2c.3.3-.31 1.19-.91.43s-.63.34-1.24-.28a3 3 0 01-.92-2.47c.16-.91-.63-1.69.61-1.69s1.85 0 1.85-.91.3-.63-1.7-1.4-3.69-1.05-3.84-1.82v-.23a26.14 26.14 0 0120.53 15.7l-.26-.7a21.56 21.56 0 00.16 2.45 8.55 8.55 0 01-.16 3.86c-.44 1.55-.75.14-1.38-1.07a20.27 20.27 0 00-2.45-3.22l-.62.43s1.54 2 2.62 3.55 1.68 2.45 1.68 2.45l.92-1.23a16.31 16.31 0 01-.31 5.21 19.72 19.72 0 00-1.06 5.24c-.3 2.76-.62 2.15-1.08 3.39a37.22 37.22 0 01-2.14 4.15l-2.32 1.62-1.68-1.32" fill="#63666a"/><path d="M286.44 131.76a4.94 4.94 0 00-1.53-2.61 10.47 10.47 0 01-2.47-4.47c-.62-1.69-.77-2.62-.15-3.69s1.07-1.24 0-2.16-1.54-.59-1.69-2.63-1.06-2.45-1.68-3.66-1.08-1.39-.32-4 .47-5.06 1.09-6.12l-.71 1.53a26.1 26.1 0 0113.39-12l.11.67a2.73 2.73 0 00.43 1.77c.91 1.71 1.07 1.38-1.08 2s-2.61.6-2.3 2a4.82 4.82 0 010 2.32 15 15 0 011.38-1.23c.61-.47.61-.77 1.21-1.4s.94.16 1.4.31.15-.62.62 1.56.91 4.44.14 3.68-.14-1.08-1.38-1.24a2.07 2.07 0 00-1.69.31s1.07 1.07 0 1.4-1.07-.33-1.68.28-1.24.17-2.17 1.23a12 12 0 01-2 1.85s-1.07-.12-1.07 1.24-.47 2-.62 1-.15-1.37-1.39-1.85-2.16-.76-2.46 1-.14 4.14.62 3.23 1.68-.81 1 .26c-1 1.46-.48 1.57 0 2.18s.31.47.16 1.39 0 1.7.45 1.7.63.63 1.39 0a1.73 1.73 0 012.46.14c.92.77 1.85.16 2.92 1.86s1.23 1.36 2.16 1.85.15-.47 1.69 1.68 1.85 1.85 3.38 2.47 4.93 1.22 3.39 2.6-1.39 1.23-1.54 2.17a2.16 2.16 0 01-.46 1.21 9.48 9.48 0 00-4.76-1.27 23.12 23.12 0 00-5.94 2l-.22-.61" fill="#63666a"/><path d="M297.93 88.69a9 9 0 01-.61-2.26l-1.68.14a7.5 7.5 0 01.44 2.12c0 1.39.28 2.3-1.33 2.75s-2.15.78-2.39 2.32c.7-.69 1.23-1.7 1.93-1.07a6 6 0 001.69 1s-1.07-1.39.46-1.86a17.66 17.66 0 014.24-.39s-1.94-.89-2.24-1.51a10.32 10.32 0 01-.52-1.24M308.8 89.08s-.2.83-.61-2.47a4.33 4.33 0 00-.14-.83l-1.46.22a10.33 10.33 0 00.36 2.47c.15.61-.9.83-1.51 1.59 0 0 2.39-.3 2.16.86a3.26 3.26 0 00.23 2 4.94 4.94 0 011.09-.77 12.32 12.32 0 012 .47 3.07 3.07 0 011.76 1.14 2.53 2.53 0 00-1.38-3.06 16 16 0 01-2.38-1.31" fill="#f2a900"/><path d="M324.09 130.13a26.12 26.12 0 00-11.33-37.76M307.53 90.63a26.91 26.91 0 00-5.49-.55 30.17 30.17 0 00-3.17.16M295.84 90.81A26.1 26.1 0 00280 130.22" fill="none" stroke="#000" stroke-width=".62"/><path d="M295.64 86.57a7.5 7.5 0 01.44 2.12c0 1.37.28 2.3-1.33 2.77s-2.15.76-2.39 2.3c.7-.68 1.23-1.21 1.93-.62a2.46 2.46 0 001.69.53s-1.07-1.37.46-1.84a17.16 17.16 0 014.23-.37s-1.93-.91-2.23-1.55a9.37 9.37 0 01-.52-1.22 9 9 0 01-.61-2.26M306.6 86a10.45 10.45 0 00.36 2.49c.14.59-.9.83-1.51 1.57 0 0 2.38-.3 2.16.86a3.26 3.26 0 00.22 2 4.73 4.73 0 011.08-.77 12.06 12.06 0 012 .47 3 3 0 011.77 1.16 2.55 2.55 0 00-1.39-3.08 16.13 16.13 0 01-2.37-1.31" fill="none" stroke="#000" stroke-width=".62"/><path d="M287.65 133a8.8 8.8 0 00-6.55-2.73c-1.71 0-3.17 1.24-5.22 1.9.24.24.53.53.86.83 2 1.89 1.92 5.12 5.87 5.94s10.92 0 10.92 0c-3.7-.72-3.86-4.05-5.88-5.94z" fill="#f2a900" stroke="#000" stroke-width=".62"/><path d="M282.59 139c-3.69-.72-3.86-4.05-5.88-5.92a8.83 8.83 0 00-6.54-2.75c-3.09 0-4.66 1.65-4.35 4.55s2.62 4.12 5.54 4.12zM298.56 133a8.8 8.8 0 00-6.56-2.7c-1.72 0-3.19 1.24-5.24 1.9.25.24.53.53.87.83 2 1.89 2.17 5.37 5.88 5.94s10.9 0 10.9 0c-3.7-.72-3.86-4.05-5.88-5.94z" fill="#0077c8" stroke="#000" stroke-width=".62"/><path d="M309.48 133a8.76 8.76 0 00-6.48-2.7c-1.71 0-3.18 1.24-5.23 1.9.24.24.54.53.87.83 2 1.89 2.39 5.3 5.87 5.94s10.91 0 10.91 0c-3.7-.72-3.86-4.05-5.89-5.94z" fill="#ffd90f" stroke="#000" stroke-width=".62"/><path d="M320.42 133a8.81 8.81 0 00-6.54-2.73c-1.71 0-3.19 1.24-5.23 1.9.25.24.53.53.87.83 2 1.89 2.49 5.68 5.87 5.94s10.9 0 10.9 0c-3.69-.72-3.85-4.05-5.87-5.94z" fill="#0077c8" stroke="#000" stroke-width=".62"/><path d="M308.8 89.08s-.2.83-.61-2.47a4.33 4.33 0 00-.14-.83" fill="none" stroke="#000" stroke-width=".62"/><path d="M306.61 86.14c-.06-.63-.35-1.06-1.91-2.18-2.88-2-4.1-6.16-4.1-6.16l-1.6-.39s-.4.61.21 3.47 1 4.1 1 4.1l-1.85-1.22s-.82.2-1 1.64a4.27 4.27 0 000 1.13l-2 .26a1 1 0 00-1-.56c-1.43 0-.82.83-2-1.85s-2.47-3.68-1.85-4.91-.4-2.45-5.33-.83-3.07.41-7-.64-9.43-4.69-9.43-4.69l-2.88-.41.81-1.43h-3.49l.62-1.65-3.69-.39.63-1.26-2.68-.59.83-1.23-3.5-.63.83-1.21-3.7-.82.4-2-2.66-.69.41-1.43a7.89 7.89 0 01-3.27-2.06c.21-1.23.61-1.86 1.63-1.86a7.52 7.52 0 01-4.1-1.21 59.35 59.35 0 01-5.94-6.33c-.82-1.22-1.63-2.67-1.63-2.67a6.59 6.59 0 01-3.28-2.44c-1.23-1.83-1.43-2-1.43-2a21.53 21.53 0 00-3.9-3.28c-2.46-1.63-2.66-3.28-2.66-3.28s11.28 3.06 19.48 4.51 22.16 3.88 26.46 7 3.09 4.92 4.11 8.41 2.05 4.71 6.36 5.33c5.12.2 9.63 1.83 9-7.39s-2-8-3.69-8.61-4.11.43-4.11.43a3.66 3.66 0 014.3-2.7 6.68 6.68 0 017.8-.82c3.29 1.64 4.72 2.47 4.72 2.47l-1.64.82 1.64 3.07h-1.64a71.23 71.23 0 003.28 8 6.47 6.47 0 0010 1c5.95-6.16 2-10 6.76-11.48s14-2.47 24.62-3.7 19.08-2.65 19.08-2.65a7.58 7.58 0 01-4.45 4.87 43.47 43.47 0 01-7 2.05l-.18 1.41-1.64.83.83 1a6.1 6.1 0 00-2.87 3.06 6 6 0 01-3.48 3.07v.22l.4 1.42-2.25.21.21 1.43-1.84.81v1.25l-1.24.39.61 2.06-1.43.41.82 1.24-1.84.61-.2 2.25h-2.48l.83 1.62-.83.42.22 1.23-2.67.4-.4 1.24-3.28.21-.21 1.83-2.26.43v1.44s-.21 1-2.26.83-2.46.41-2.46.41.62.81-1.65 1.41-1.62 2.86-3.45 2.86-6.16.64-6.16.64.41 2.88-1 3.08-1.42-1-1.12 1.33z" fill="#b3875a" stroke="#000" stroke-width=".62"/><path d="M305.71 60.57c1.85 2.67 11.49.63 16.21-6.34s5.74-7 10.45-8.41c4.24-1.3 19.4-4.25 27.94-7.06-3.25.51-9.46 1.43-16.67 2.26l-1.48.18c-10 1.15-18.6 2.15-23.08 3.52-2.13.65-2.34 1.76-2.68 3.62a13.38 13.38 0 01-3.95 7.77 6.49 6.49 0 01-5.68 2 7.35 7.35 0 01-2.77-1 11.11 11.11 0 001.71 3.46zM275.85 54.36a17.33 17.33 0 01-.5-2.61c-.27-2-.47-3.48-3.49-5.64-4.26-3.06-18.62-5.57-26.33-6.92-6.62-1.19-15.33-3.4-18.39-4.19 2.74 2.67 6.16 3 12.13 4.48 6.57 1.63 17.22 4.5 17.22 4.5 9.45 2.66 7.19 3.5 13.95 10.86s8.81 7.59 15 7 4.52-.41 4.71 1.63a17.92 17.92 0 00.83 3.69l4.92-.61c3.29-1.65 4.52-4.53 4.73-8.43.12-2.4.72-3.16 1.16-3.39a75.33 75.33 0 01-3.18-7.73l-.14-.41H300l-1.55-2.9 1.41-.7c-.68-.37-2-1.1-4.2-2.18a6.35 6.35 0 00-7.11.54l1.13.91-.44 1.42c.58.18 1.1.55 1.53 1.8a26 26 0 011 6.74c.23 3.44-.23 5.59-1.42 6.78-1.41 1.4-3.57 1.24-6.08 1.05-.6 0-1.22-.09-1.85-.11-4.42-.68-5.51-1.94-6.57-5.58z" fill="#ffe8b8"/><path d="M289.1 40.27c1.85 0 3.09-.19 4.72 1s-.61.23-2.25 0a4.35 4.35 0 01-2.47-1"/><path fill="none" stroke="#000" stroke-width=".62" d="M232.66 40.94l3.12.35M237.37 45.44l3.95-.03M239 48.11l7.04.77M242.69 52.16l7.04.19M248.59 55.73l5.24-1.09M250.68 59.6l5.6-1.28M252.93 61.64l4.39-1.06M260.39 63.05l-4.16 1.46M258.96 66.32l3.89-1.42M260.75 68.17l3.95-2.03M263.61 69.8l3.96-2.25M266.68 71.47l3.96-2.27M268.75 73.31l3.53-2.27M270.23 74.37a14.48 14.48 0 004.52-2.31M272.63 75.63a8.83 8.83 0 004.18-2.12M275.67 77.11c1.83-.24 4.21-2.58 4.21-2.58M318.44 78.87l-2.66-1.07M321.29 76.78l-2.85-1.23M326.01 74.1l-4.5-1.61M328.47 71.86l-5.09-1.63M332.15 70.41l-8.37-2.45M334.6 68.78l-5.28-1.64M334.65 66.73l-5.33-1.42M337.27 64.49l-5.08-1.25M338.29 62.64l-4.47-1.03M339.11 60.17l-3.44-.82M340.35 58.53l-3.44-.63M341.98 56.29l-3.63-.83M343.83 54.44l-3.85-.83M347.56 50.73l-4.91.23M349.35 47.29l-3.42-.06M351.47 44.99l-4.11.21"/><path d="M288.13 41.65H288a3.36 3.36 0 00-3.77 1.88 6.47 6.47 0 013.46-.29l.33.1c.19.06.39.11.58.15l.39.1.29.07.44-1.48-1.13-.86c-.12.09-.24.16-.36.26z" fill="#f2a900"/><path d="M306.94 78.63a3.83 3.83 0 001.24-1.41 39.19 39.19 0 01-1.24-5.76c-.4-3.07-4.91-3.68-5.53-2s-1.73 5.38-.94 8l.37.09.05.17s1.23 4.05 4 6c1.33 1 1.83 1.47 2 2.11h.66c-.13-1-.15-1.22.06-1.4h.07c-.13-.42-.29-.89-.5-1.43-1.05-2.74-1.26-3.54-.24-4.37zM295.54 86.45l1.45-.19a3.86 3.86 0 010-.91c.23-1.62 1.21-1.88 1.25-1.89h.13l1.26.83c-.18-.66-.45-1.74-.79-3.31-.61-2.85-.25-3.59-.17-3.71l.12-.18h.15a8.2 8.2 0 00-1.86-5c-2-2.47-6.76-5.12-7-1a41.3 41.3 0 01-.72 6.42 2.79 2.79 0 01.3.15 1.72 1.72 0 011 .48 1.31 1.31 0 01.08 1.49 1.11 1.11 0 00-.12.71c.2.9 1.07 2 2 3.86a15.64 15.64 0 00.88 1.87h.09a3.82 3.82 0 01.8-.09 1.47 1.47 0 01.77.21 1 1 0 01.38.26z" fill="#ffe8b8"/><path d="M324.79 130.3c-1.71 0-3.17 1.24-5.23 1.9.25.24.53.53.87.83 2 1.89 2.18 5.22 5.87 5.94 0 0 6.91 1.48 6.91-2.78 0-3.58-4-5.63-8.42-5.87v0z" fill="#f2a900" stroke="#000" stroke-width=".62"/><path d="M303.52 97.46c.77-.3 1.86 0 .92.45s-.92-.45-.92-.45M308.44 102.54c0-.79.47-1.1-.31-1.7s-1.39-1.52-.31-.91 2.78 1.21 1.85 2-1.23.61-1.23.61" fill="#63666a"/><path d="M307.06 102.22c0-.92.91-1.69.76-.78s-.76.78-.76.78M284.63 114.45c.61-.34.12-.7.81-.54s.62.15.92.51.5.68-.11.51-.45.07-.89-.07a2.18 2.18 0 01-.73-.41M283.79 112.92c-.25-1.09-.62-1.27-1.08-1.11s-1-.45-.43-.45.63-.26 1.43.55 1.61 1.89.92 1.74-.77-.4-.84-.73" fill="#63666a"/><path d="M392.89 132.72c-.62-1.25-2.16-2.76-.45-3.73.77-1.53-1.38-1.7-.31-2.92s1.55-4.59 3.39-5.53 3.23-.61 2.31-2.93a6.43 6.43 0 01.13-6c1.09-1.86 1.54-2.9 2.63-3.53a2.41 2.41 0 001.23-1.55v-2.62a3.91 3.91 0 011.07-2.77c1.22-1.39 2.45-2.77 4.15-2.77a7.7 7.7 0 015.22 1.38c1.84 1.39 2.31 1.39 2.77 3.22l1.08 3.11s-.45.91.79 3.85 2 4.43 2.15 8-.31 4 1.22 5.38 2.15 1.07 2.92 3.39 1.08 3 .46 3.37a1.25 1.25 0 00-.77 1.39c.16.45 1.11 2.32 1.11 2.32" fill="#d18644" stroke="#000" stroke-width=".62"/><path d="M398.58 145.87l1.7-16.17 2.27-.82a12.93 12.93 0 001.22-5.73 27.05 27.05 0 00-.61-5.93l-1.44-.64s2-1.22 1.86-2a10.27 10.27 0 01-.21-2.05l1.23-4.74h0c.41-2.24 1.23-2 1.85-.82s2.67.22 3.08-1.42 1.64-1 1.85-.19a14 14 0 001.44 2.64l2.35 5.07s.1.75.21 1.31c.23 1.33.61 1.31.42 3.06-.31 2.58-1.13 1.86-1.13 5.35a56.2 56.2 0 01-.41 6.56l2.21.93 6.82 13.8" fill="#ffd9ee" stroke="#000" stroke-width=".62"/><path d="M407.06 119.67c.82-.83 1-.83 2.26-.83s1.43.32 2 .09 1.43.72 1.43.72a5.26 5.26 0 00-1.85.43c-1 .39-1.22-.23-2.05-.23a11.5 11.5 0 01-1.84-.2" fill="#ff3515"/><path d="M414.71 121.45s-1.5 3.75-4.17 3.54a11.66 11.66 0 01-4.51-1.26" fill="none" stroke="#000" stroke-width=".62"/><path d="M402.13 106.32c3.09-1.64 5.75-2.88 7.39-2.45s6.57 2 6.57 2 .35-2.2-.83-2.66c-4.72-1.85-7.78-2.67-10.46-1s-.43.78-2.67 1.65c-.81.31-.76 2.93 0 2.46z" fill="#f2a900" stroke="#000" stroke-width=".62"/><path d="M415.21 113.16s2.15 1.83 1.7-.32-.79-2.32-2-3.85-1.84-.93-1.84-.93h-8.77c-.92-.15-1.23.91-1.85 2.29s-.92 2.31-.92 2.31.16 0 1.85-.16z" fill="#fff" stroke="#000" stroke-width=".62"/><path d="M408.29 116.17c1 .62.82.62 1.64.41l1.63-.41-.4-1.65s2 1.65.82 2.06a4.42 4.42 0 01-2.66.41 1.39 1.39 0 01-1-.82" fill="#d18644"/><path d="M362.6 307.9a13 13 0 012.93-2.59c1.85-1.24 2.46-1.55 3.07-4s.93-2.77 3.38-5.85 3.07-6.77 3.39-12.61 1.23-30.45 1.53-39.71-.61-49.22 0-53.53 0-5.24.32-6.77-1.24-4.59-1.24-4.59l18.8-37.94 36.59 15.62 6.45 15.83s5.23 44.91 5.84 48.32-2.15.61-1.85 3.68 3.09 4.92.31 7.08-4.92 2.46-5.22 7.68.92 48 1.84 55.06.93 8 3.38 10.47a16.37 16.37 0 013.39 4.63" fill="#ff3515" stroke="#000" stroke-width=".62"/><path d="M378.1 300.19l-2.89 5.59s-3.55 4.12-.77 6.12 3.84 3.71 6.92 1.68a14.56 14.56 0 004.46-3.84 8.14 8.14 0 012.3-2M413.82 302l-3.69 6.21c5.08 4.14 7.08 5.35 10.62 5.06s4-.61 4-.61l-.63-1.84s.48-.94-.76-1.83-3.54-2.32-3.54-2.32" fill="#d18644" stroke="#000" stroke-width=".62"/><path d="M382.6 303.29l-2 2.61a11.86 11.86 0 00-3.39-1.67l2.41-3.51M383.67 304.52l-1.39 2a3.83 3.83 0 011.85 1.85c.47 1.24.31.64.31.64a2.55 2.55 0 01.63-.94c.44-.46 1.37-1.7 1.37-1.7M418 305.47c-1.85.47-4.21 2.9-4.21 2.9a8 8 0 001.85 1.53 4.42 4.42 0 002.77 1.08c.76 0 .29-.14 1.24.14s1.05.93 1.68.32.45-.32 1.07-.32h1.05l.64-.27s.48-.94-.76-1.83-3.54-2.32-3.54-2.32" fill="#ffd9ee" stroke="#000" stroke-width=".62"/><path fill="#bbbcbc" stroke="#000" stroke-width=".62" d="M437.97 149.91l.77-23.22 1.7-.15.47 23.53"/><path d="M440.91 150.07l-.25-12.37s-2 .12-2.34-1.57a8.07 8.07 0 01-.2-2.37s-1.72-.34-1.26-.95l.34-.59s-1.85-1.7 0-1.82 3.24-.16 3.7-.16.61 0 1.84 1.37 1.85 1.08 2.31 4a48.38 48.38 0 01-.15 14.77l-.46 2.14c-1.69 6.77-4.46 17.4-7.07 20s-4.61 2.16-4.93-1.05-.45-4.78-.45-4.78l1.53-.95" fill="#ffd9ee" stroke="#000" stroke-width=".62"/><path fill="none" stroke="#000" stroke-width=".62" d="M438.12 133.76l1.85-.46M437.2 132.22l2.01-.48M438.44 135.78l1.38-.3"/><path d="M439.58 127.13a1.54 1.54 0 10-1.52-1.52 1.52 1.52 0 001.52 1.52z" fill="#bbbcbc" stroke="#000" stroke-width=".62"/><path d="M339.44 139.15s.09 2.31.09 3.23 1.77 1.94 1.77.06-.07-3.6-.07-3.6" fill="#ffd100" stroke="#000" stroke-width=".62"/><path d="M342.62 134.51s-3.67-1.43-4.69-2-2.87-.41-2.26.83a5.3 5.3 0 01.52 3.09c0 1.32 0 2.44 1.13 2.54a17.63 17.63 0 002.88-.14" fill="#ffd9ee" stroke="#000" stroke-width=".62"/><path fill="#fff" stroke="#000" stroke-width=".62" d="M342.29 129.29l-1.24-64.15h-1.23l-1.23 64.15"/><path d="M375.49 176.21s-1.83-6.21-2.25-8.86l5.43 1.79s-.55 4.45-3.18 7.07" fill="#b3875a"/><path d="M373.24 167.35a50.73 50.73 0 002.14 9.16" fill="none" stroke="#000" stroke-width=".62"/><path d="M336.68 131.93l5.84 2.29 1.38-2.68-7.22.35"/><path d="M379.16 169.31A36 36 0 01369 165c-5-3.19-17.78-20.81-19.64-23s-1.54-.85-5-1.76-3.08-1.71-3.08-1.71l.11-.11c-1.33.87-1.23.33-1.87-.35s.92-1.36 1.52-1.85 1.12-.56 1.54-1.69 1-2.44 1-2.44 5.53.92 8 4 4.62 4.33 9.24 8.62 9.54 8.31 9.54 8.31l11.61 4.64z" fill="#ffd9ee" stroke="#000" stroke-width=".62"/><path d="M435.72 150.17c-1.66-1.66-2.57-4-3.6-7.16a36.7 36.7 0 00-3.06-7.08c-1.09-2.77-8.94-4.61-11.09-5.53a5.34 5.34 0 00-2.32-.5s.93.27 1.47 3.9c.83 4.52 1.85 8.82 1.85 8.82l-14.17.61s-1.64-8.62-4.52-13.53c0 0-12.15 1.74-14 4.82a16.46 16.46 0 01-2.15 5.68 17 17 0 00-2.16 4.18s2.47 8-.61 10.14a37.86 37.86 0 01-4 2.61s5.51 10.81-2 19.39c0 0 2 4 3.85 2.48s.3-2.95 2.62-6.77 10.75-15.69 10.75-15.69 3.23 8.75 1.85 12.47-1.85 5.51-.61 6.3L392 181.9a32.59 32.59 0 01-2.16 7.08c-1.54 3.38-1.54 8-2.75 19.06a69.92 69.92 0 00.61 22.16c.91 6.14-.61 7.39-1.85 17.52s-1.85 17.87-3.08 24.62-1.54 8.93-.92 13.22-1.23 6.46-3.08 9.84-3.7 6.77-3.7 10.15c1.55-3.36 4.61-4.91 7.39-2.47s5.84 4.64 5.84 4.64l20 1.21a10.77 10.77 0 005.22-2.76c2.77-2.45 3.08-2.15 4.93-.31s4.91.9 4.91.9a12.76 12.76 0 014-3c2.15-.94-1.54-18.16-1.54-28.32s.93-36 1.86-42.16l2.46-57.19a49.8 49.8 0 01.93-9.21c.91-4.15.29.32 1.38 0s1.53-2.15 2.3-4.59 2.16-3.09 3.08-6.18c.65-2.18 1.16-2.9.51-3.71" fill="#f2a900" stroke="#000" stroke-width=".62"/><path d="M395.09 162.44c.62-1.4.62-1.4.32-3.23s-.47-2 0-3.68.61-.63.3-3.69-.15-1.55-1.39-2.32-1.85-.62-.92-3.08 2.31-1.7 1.38-4.47-2.16-3.84-1.69-4.29-.47 1.67-.77 4.29 0 3.09-.32 5.85-.76 4.47-.3 5.06a18.88 18.88 0 011.24 3.23l2 6.77M400.6 297.91c2.46-16 4.91-29.84 5.84-34.47s2.77-10.76 2.77-17.22.3-8.31 1.84-16.32a103 103 0 002.16-21.82 104.7 104.7 0 00-1.85-17.56s1.53-1.52 2.14 1.85 1.24 4 1.85 2.15 1.24-3.06 2.15-.91 2.17 2.15 2.17 2.15l.92-.62 1.53 1.53 2.16-2.15 1.84-3.06a24.42 24.42 0 01-.92 10.75c-1.84 5.55-1.84 4.31-1.84 8.31a33.06 33.06 0 00.31 5.56s-.92.57-1.23-3.39-.93-7.08-1.85.92-4 15.69-2.77 7.38 2.15-18.47 0-16.62-3.08-.29-3.38 7.39.62 7.38-.62 12 0 6.16-1.54 15.1-2.46 8.62-2.77 14.45.93 9.21.31 16.91-.92 8.62-2.46 9.24-.91 0-1.53 7.38-1.54 12.62-1.54 12.62l-3.69-.3M424.64 232s-2.46 15.38-3.38 28.6-.31 22.15-1.85 28.3a33.26 33.26 0 00-.3 12.61s-.31 2.46-1.24-2.44-4-11.39-2.75-4.92 1.83 9.53 1.83 9.53 2.17 2.47 4 1.85.91-.93 2.45-3.38 2.47-.32.92-8.63.32-21.22.93-26.77-.31-6.14-.31-16-.3-18.77-.3-18.77M396.6 297.91c2.63-7 4.61-17.53 5.23-23.69s.61-14.15-.93-5.85-3.08 15.39-4 22.47-1.24 9.51-.31 7.07" fill="#b3875a"/><path d="M400.28 259.44c.32-5.53 1.24-6.75 3.09-11.38s1.23-4.31 2.75-12.31 2.47-11.67 2.77-16.29a29.14 29.14 0 01.93-6.46s-.31 1.54-2.77 10.46-3.7 12-4.61 17.53-.92 6.79-2.77 11.38-.92 4-1.23 8 1.23 1.85 1.84-.93M381.51 172.05c.62-3.36.32-5.23-.61-8.9s-1.54-5.54-1.54-5.54.3.3 1.24 0 .91-.93 2.15 1.83.92 2.79.3 5.56-1.54 7.05-1.54 7.05M386.13 162.84c1.24-1.26 1.55-.61 1.55-4.61s-.92-4.32-.61-6.18-.31-3.05-.94.33-.3 4-.61 6.14-.61 5.24-.61 5.24l1.22-.92M409.68 148.82s-.32 4.62-4.61 4.76a61.23 61.23 0 01-6.31 0 50.77 50.77 0 005.68 1.39 6.67 6.67 0 003.69-.45l1.55-4.76M428.51 152.22a5.14 5.14 0 01-.38 1.24 6.42 6.42 0 01-1.84 2.61s1.69 1.69 2.15 8.3-.61 6.31-.61 6.31 1.24 1.84.92 1.39.32-6 .93-9.07a38.76 38.76 0 011.69-7.07c.77-1.86 2-1.86 2.61-2.32s.16-.9-1.38-.29-1.53-.76-1.53-.76M430.83 150.49l-.09-.42-.62-2.92c-1.38-3.69-1.06-4.46-1.68-6.31s-2.32-3.69-1.54-.91.3 5.22 1.07 6.59a9.58 9.58 0 01.82 4.3" fill="#b3875a"/><path d="M422.74 219.44l-.92 11.7 1.24-1.53v2.76l1.54-2.47v3.1l.91-2.15v1.53l1.55-1.53s-1.55 2.46-.31 1.85.92-.32.92-.32l.61 1.53 1.54-2.46.61 2.46 1.85-2.76V233l1.22-3.09.94 2.47s.3-.29.3-3.07l.15-6.47" fill="#ff3515" stroke="#000" stroke-width=".62"/><path d="M424.59 209.9a221.89 221.89 0 001.85-27.69c-1.55-1.84-5.53-3.69-9.24-4.31s-2.14-1.22-7.38-.92-8.92.61-12.31 1.54a12.32 12.32 0 00-5.51 3.38l1.81-6.89c2-1.84 3.89-2.17 8.19-2.94a29.12 29.12 0 018-.76c4.15 0 6.62.16 8.92.92a30.63 30.63 0 003.08.93s.31-.32 1.24-1.4 5.37-1.84 6 1.85l.91 1.83s4.32 20.93 4.62 34.76.91 13.54-1.84 14.48-5.23-2.78-5.23-2.78h-.62c-2.46-1.53-4.31-2.46-4.31-2.46s.58-1.15 1.82-9.54z" fill="#0077c8" stroke="#000" stroke-width=".62"/><path d="M424.5 182.88c0 3.37-4.09 6.1-9.14 6.1s-9.14-2.73-9.14-6.1c0 0 6.07-.78 9-.78 3.16 0 9.29.78 9.29.78M472.51 182.65c0 3.37-4.09 6.1-9.13 6.1s-9.15-2.73-9.15-6.1c0 0 6.07-.32 9-.32s9.3.32 9.3.32M439.67 152.38l24.46.62v-1.24c-.46-.15-22.46-1.54-22.46-1.54l-1.7.16h-.3l-1.7-.16s-22 1.36-22.46 1.54V153l24.46-.62" fill="#bbbcbc"/><path d="M439.49 152.38l24.64.62v-1.24c-.47-.15-23.22-1.69-23.22-1.69L438 150s-22 1.6-22.46 1.75V153zM424.5 182.88c0 3.37-4.09 6.1-9.14 6.1s-9.14-2.73-9.14-6.1c0 0 6.07.76 9 .76s9.29-.76 9.29-.76zM472.51 182.88c0 3.37-4.09 6.1-9.13 6.1s-9.15-2.73-9.15-6.1c0 0 6.07.76 9 .76s9.28-.76 9.28-.76z" fill="none" stroke="#000" stroke-width=".62"/><path d="M417.51 183.31l-2-30.31-9.29 29.88s8.06-.65 18.22-.34l-8.15-29.38M465.52 183.31l-2-30.31-9.39 29.68c6.77-.45 14.46-.14 18.31-.14l-8.16-29.38M421.72 311.12l-1.28-1.07M423.75 310.91l-1.47-.87M419.68 311.12l-.93-.89" fill="none" stroke="#000" stroke-width=".62"/><path d="M383.21 309.44c-2.46 3.08-3.24 4.14-3.85 3.24s-1.24-.76-1.24-.76-.3.13-.76-.31-.93-.45-1.38-1.56-1.38-1-.61-2.29 1.53-2.3 1.53-2.3 3.22 1.22 2.46 3.38-.45 1.68-.45 1.68a4.92 4.92 0 001.69-1.38c.91-1.09 1.68-.94 2.45-.14z" fill="#ffd9ee" stroke="#000" stroke-width=".62"/><path d="M377.83 157.29s-4 2.15-5.85-.29-1.85-3.69-1.85-3.69a8.76 8.76 0 013.09-3.71c2.46-1.82 4.3 0 4.91-3.69s.63-5.53 2.47-6.45a22.82 22.82 0 003.38-2.15s2-3.09 2.14-3.09.16.3.16.3a16.46 16.46 0 01-2.15 5.68 17 17 0 00-2.16 4.18s2.47 8-.61 10.14a20.89 20.89 0 00-3.53 2.77z" fill="#ff3515" stroke="#000" stroke-width=".62"/><path d="M334.52 131.68s10.24-.14 12.68-.07 2.47-2.09 0-2.09h-12.76c-2.46 0-3.47 2 .08 2.16z" fill="#ffd100" stroke="#000" stroke-width=".62"/><path d="M341.32 138.51a6.32 6.32 0 011.33-.9 5.82 5.82 0 012.47-.82M336 134a18.51 18.51 0 002.05.82c1.23.4 3.74.87 3.74.87M336.39 135.88a13.29 13.29 0 003.9.86M336.21 137.46a8.14 8.14 0 003.16.47" fill="none" stroke="#000" stroke-width=".62"/><path d="M400.28 129.7c2.88 4.91 4.52 13.53 4.52 13.53l14.17-.61s-1-4.3-1.85-8.82c-.54-3.63-1.47-3.9-1.47-3.9a5.34 5.34 0 012.32.5c.27.12.63.25 1 .39l3.27 14.52-8.54.19-4.19.1-6.5.14s-3.18-12.76-5-15.66z" fill="#ffd100" stroke="#000" stroke-width=".62"/><path d="M403.19 171.86s2.64-9 3.57-12.1 3.07-8 3.07-10.47-.88-5.65.35-6.26l4.34-.22c-2.25.75-.39 1-.69 5.57s-.93 6.14-2.76 11.67-3.8 11.28-3.8 11.28z" fill="#ffd100" stroke="#000" stroke-width=".62"/><path fill="none" stroke="#000" stroke-width=".62" d="M378.6 311.58l.47-.44M376.9 310.82l.47-.77M375.52 309.14l.61-.6"/><path d="M182.9 301.14l4.75 3.58 2.19-1.16.59 1.13a65 65 0 01-5.68 4.6c-1.7 1-5.76 1.27-5.76 1.27l-3.32-2.8z" fill="#d18644"/><path d="M182 302.23a7.41 7.41 0 00-3.55 2.45c-1.07 1.68-2.16 2-.16 2.78 3.52 1.52 8.16-2.17 8.16-2.17s-1.42-2.1-2.46-1.71a21 21 0 00-3.08 1.86c-.4-1.51 1.85-2.76 1.85-2.76M182.74 301.32l5.22 3.39 1.78-1.1-6.55-2.89-.45.6" fill="#ffd9ee"/><path d="M190.8 304.61c-4.1 2.88-5.07 5-8.56 5.62s-3.08.41-4.92-.83-1.89-2.09-1-2.47c1.84 2.26 4.31 2.68 7.59 1s2.87-2 2.87-2 0-.81-1.22-1.85-1.43-.82-3.09.21-1.63 1.62-1.63 1.62-.21-1.44.4-2a14.63 14.63 0 011.44-1.26 1.15 1.15 0 00-1.16-.29 6 6 0 00-3.16 2.33c-.4.82-2 2.16-.4 2.46" fill="none" stroke="#000" stroke-width=".62"/><path d="M178.83 306.05c-.31.36-1 1.2-.63 1.43.79.42.36.22.36.22M179.56 306.28c-.8 1.25-.9 1.66.21 1.6" fill="none" stroke="#000" stroke-width=".62"/><path d="M180.68 306.64c-.93.89-1.31 1.3-.62 1.3s.12-.11 1.26-.2.71 0 2.17-.76a18.47 18.47 0 002.45-1.59M187.82 305c-.53-1-1.84-1.69-2.76-2.38a11.31 11.31 0 00-2.31-1.25l-1 .92M177.93 305.29l-1.63 1.64" fill="none" stroke="#000" stroke-width=".62"/><path d="M232.05 311.63l6.91-5.2c.62-.3.71-.12 1.43.09s.83 1 1.55.72 1.74-1.12 1 .29-.83 1.13-.52 2 .09.8.82.53 1.23-.44 1.23.39-.1.94-1 1a2.05 2.05 0 01-1.24-.09l-9.47 2.46z" fill="#f2a900" stroke="#000" stroke-width=".62"/><path d="M230.13 325s-.51 1-2.15-2.36-7.15-16.42-7.15-16.42l1.93-.41 4.05-.5 5.58 15.06z" fill="#ff3515" stroke="#000" stroke-width=".62"/><path d="M229.83 302.31l-2.66 4 4.33 5c.31.21 2.42-1.41 3.66-2.73s1.23-2.68 1.74-4.53-7.07-1.74-7.07-1.74zM241.83 313.9c-.11-.8-2.05-.5-4-.41a5.81 5.81 0 00-2.87.82l1.75 4.62 1.33 2.15a6.67 6.67 0 004-2.85c1.03-1.65-.1-3.5-.21-4.33z" fill="#ff3515"/><path d="M243.9 312.41c-4.9-2.36-7.2-.92-9.88.27l-.62-.56c2.57-1.46 4.83-2.26 5.85-7.61s-5.13-6.46-7-6.57a3.35 3.35 0 00-3.48 1.76s-2.2 4.87-6 6.11c0 0 .3.42 1.74 2.15s3 5.85 4.61 10.68 1.33 6 1.33 6a10.14 10.14 0 014.81-1.43 47.14 47.14 0 016.18-.08c1.28.2 2.61.28 3.61-1.27s3.76-7.11-1.15-9.45zm-11.62-2l-1.52-2 .81-.8.52.41.91-.72-.3-.62.41-.5-.83-1-.5.31-.52-.74-.82.64v.5l-.71.41-1.23-2s1.54-2.27 2.26-3.59 1.84-.61 4.2 0 2.26 2.56 1.85 4.4a8.69 8.69 0 01-4.21 5.33zm12.13 7.69c-.9 2.26-1 3.6-2.5 3.38s-4.22-.32-4.22-.32l-.93-2.21.75-.33.41.31 1-.29-.28-.83.56-.25-.34-1.25-.65.05-.32-.62-1.13.31v.65l-1.14.18-.66-2.39.18-.26v0a9 9 0 016.8-.2c1.76.73 3.38 1.78 2.47 4.07z" fill="#f2a900" stroke="#000" stroke-width=".62"/><path d="M239.57 308.52a.87.87 0 10-.87-.86.88.88 0 00.87.86z" fill="#fff" stroke="#000" stroke-width=".62"/><path d="M241.22 308.82a.86.86 0 00.87-.86.87.87 0 00-1.74 0 .86.86 0 00.87.86zM240.7 310.68a.88.88 0 10-.86-.87.87.87 0 00.86.87zM238.85 310.58a.87.87 0 10-.87-.88.87.87 0 00.87.88zM243.16 310.05a.86.86 0 00.87-.86.87.87 0 10-.87.86z" fill="#fff" stroke="#000" stroke-width=".62"/><path d="M245.22 312.84a.88.88 0 10-.87-.9.88.88 0 00.87.9zM246.76 314.27a.86.86 0 00.86-.87.88.88 0 00-.86-.88.88.88 0 100 1.75zM247.47 316.23a.87.87 0 10-.87-.86.88.88 0 00.87.86zM247.68 318.49a.87.87 0 10-.87-.86.88.88 0 00.87.86zM247.47 320.52a.87.87 0 00.87-.86.87.87 0 00-1.74 0 .88.88 0 00.87.86zM246.55 322.47a.85.85 0 00.85-.86.86.86 0 00-.85-.86.87.87 0 00-.87.86.86.86 0 00.87.86z" fill="none" stroke="#000" stroke-width=".62"/><ellipse cx="240.19" cy="305.31" rx=".87" ry=".86" fill="#fff" stroke="#000" stroke-width=".62"/><path d="M240.49 304.31a.87.87 0 00.87-.85.86.86 0 00-.87-.86.86.86 0 100 1.71z" fill="#fff" stroke="#000" stroke-width=".62"/><path d="M240.29 302.58a.86.86 0 10-.86-.86.87.87 0 00.86.86zM239 300.93a.86.86 0 100-1.72.86.86 0 100 1.72z" fill="#fff" stroke="#000" stroke-width=".62"/><path d="M208.93 305.58s5.4 6.75 9.71 7.66 6.48-.18 6.48-.18l-.2-2.11-4-4.47-.44-.63-2.77-1.21-4.85-1.1-3 1.4-.93.62" fill="#d18644"/><path d="M209.67 304.82l3.33 2.49a2.23 2.23 0 012.22-1.85 22.1 22.1 0 004-.74s-6.32-3.14-9.54.1M214.45 307.86s2.92 3.77 3.69 4.06c.92.13 1.59.62 2.05.62s1-.61 1.84.09c.76.15 1.19-1.08 1.19-1.08s.43.74 1.06.27 1.55-.74.16-1.83a19.89 19.89 0 01-3.08-3.36s-1.39-.21-.92 2c-1.68-1.38-4.76-3.38-6-.78" fill="#ffd9ee"/><path d="M221 306.2h-.09s.56 1.47.09 0" fill="#ff3515"/><path d="M214.29 309.31s-.46-2.17 1.38-2.47 3.24.3 5.23 2.47c0 0-1.54-2.75.32-2.43" fill="none" stroke="#000" stroke-width=".62"/><path d="M213.06 308.23c0-1.71.92-2.65 2.16-2.77s3.07-.32 3.07-.32M221.37 312.29l-.93-1.47M219.22 312.05l-.32-1.23M220.91 306.23a25.1 25.1 0 002.92 3.38c2 2 .62 1.68.62 1.68v.47a1.27 1.27 0 01-1.08 0c-.46-.3-1.09 1.7-1.7.76s-1.23.48-1.84-.15-.77.15-1.69-.45a43.85 43.85 0 01-3.69-3.75" fill="none" stroke="#000" stroke-width=".62"/><path d="M213.22 307.29a10.49 10.49 0 01-3.34-2.35l-1 .55c2.16 2.78 7.67 8.29 12.12 8.09s4.86-.5 4-2.27" fill="none" stroke="#000" stroke-width=".62"/><path d="M173.83 132.51c2.36-4.73 2.66-9.87 5.43-12.84a35.94 35.94 0 013.9-3.82 25 25 0 01-.22-5.41c.31-1.75-.1-2.07.31-3.19s.11-1.42 1.75-2c.6-.24 2.2-1.1 2.2-1.1l.58-2.7a34 34 0 011.85-3.45c.71-1 1.63-2.15 4.41-2.15s4-.31 5.84 2.33 1.52 2.37 1.17 2.79 2.08 2.88 2.08 2.88c1.13 1.53 4.2 7.06 2.66 12.19 2.36 3.28 2.57 5 3.38 7.4s-.81 1.53 1 2.15a2 2 0 011.24 1.29c.14.2.24-.06 1 1.87 1.55 3.91 1.44 4.73 1.44 4.73" fill="#d18644" stroke="#000" stroke-width=".62"/><path d="M190.38 140.2c-1.33-3-4-13.25-4-13.25h0a5.25 5.25 0 002.25-2.35c.52-1.42.42-2.36.31-5.32a34.87 34.87 0 00-.2-3.59s-1.74.82-1.85-.83a24.09 24.09 0 01.1-3.48s.91-.08 1.44-1.84 2.86-4.92 4.3-5.33a14.31 14.31 0 003.59-2.15 4.49 4.49 0 002.24 2.77c1.64.61 4 .61 4.41 4a13.69 13.69 0 01-.3 5.94c-.41 2.26-1 2.47-1.13 5.94s-.63 5.63.71 8.23l-.3-.83s1 11 .34 13.59" fill="#ffd9ee" stroke="#000" stroke-width=".62"/><path d="M193.37 116.47a6.33 6.33 0 01.78-.11 7.81 7.81 0 012.53-.4 3.6 3.6 0 011.52.41 4.21 4.21 0 001 .21 8.08 8.08 0 00-1.88.41 1.79 1.79 0 01-1.74 0 10.82 10.82 0 00-2.19-.52" fill="#ff3515"/><path d="M201.52 108.08c1.12.75-3.8-.52-3.89.6a9.41 9.41 0 00.72 3.59c.3.81.3 2-1 1.93s-2.56.41-2.26-.4.4-.72.4-.72-.3.63.21.72a4.83 4.83 0 001.13.09c.52 0 1.13 0 1.23-.61a4.34 4.34 0 00-.4-2.25c-.41-1.25-.63-2.26-.22-2.88a2 2 0 012.15-.83 3.37 3.37 0 012 .74M195.27 109.49a1.48 1.48 0 00-1-2 3.34 3.34 0 00-3.29.71 4.82 4.82 0 001.64-.09 2.56 2.56 0 012.26.41 5 5 0 01.41 1M195.06 117.91c-.65-.42 1.54.2 2.05.2a1.75 1.75 0 01-2.05-.2" fill="#d18644"/><path d="M191.48 109.61c.71-.21 1.22-1 1.84-.53a3.38 3.38 0 00.93.64l-1 .5c-.63.3-.53 0-.94-.19l-.81-.4M198.44 109.71c.72-.22 1.24-1 1.85-.51a3.1 3.1 0 00.94.6l-1 .5c-.63.31-.52 0-.93-.2l-.83-.39"/><path d="M202.06 117.21c-.82 2.17-1.87 4-4.84 4.19a8.17 8.17 0 01-4.62-.82" fill="none" stroke="#000" stroke-width=".62"/><path d="M201.69 100.78c-.52-.41-1 .93-1.81.13s-1 .39-1.33 0c-1.07-1.45-1.23 0-1.94-.83s-.82.71-1.85.2-.31.51-1.44.11-.71.4-1.72.29-.92.23-1.55.23a1.6 1.6 0 00-1 .39 2.24 2.24 0 00-1.33.29 3.73 3.73 0 00-.51 2.5c.15.1 1-.77 1.89-1.14a16.1 16.1 0 014.5-1.14 26.49 26.49 0 014.73.22c2.05.09 3.7.31 4.82 1.84-.02 0-.95-2.7-1.46-3.09z" fill="#f2a900" stroke="#000" stroke-width=".62"/><path d="M160.56 171.14l-10.42 73.23s.3 1.24 3.08 1.85c0 0-1.54 16.93-1.85 20.93a22.94 22.94 0 003.08 2.44s-3.08 15.7 2.78 22.46 9.53 14.77 12.61 14.46a22.76 22.76 0 002.76-.31l1.84-.62c1.55-2.44 3.58-4.79 5.12-5.41l37.12.31 4.23 5.75a11.26 11.26 0 002.15-.62c1.84-.61 3.6-1.91 5.74-5.91 0 0-4.81-.86-5.74-10.39s-.61-23.69-.93-35.38.93-30.45 2.16-44.61-.38-47.57-.38-47.57l-11.7-17-32.28-5.19z" fill="#ff3515" stroke="#000" stroke-width=".62"/><path d="M215.67 174c1 3.45 2.12 5.65 3.24 2.65 1.37-3.67 3.69-13.53 3.69-13.53l2.3-12.93-1.49-3.92-9.08.76.74 24.76z" fill="#61619e" stroke="#000" stroke-width=".62"/><path d="M210.44 170.23s.62-13.23 1.39-17.85a84.77 84.77 0 003.08 18.76c.17.74.37 1.49.57 2.2h0c-.62-7.37-.11-20.82 2.36-23.74 2-2.44 6.45-2.16 7.06.62l.32 1.07c0-2 .46-3.36-2.62-6.6s-6-10.76-8.77-11.23a20.43 20.43 0 01-7.32-1.68c-1.17-.59-1 9.47-5.28 9-1.67-.19-9.17-.41-10.85-.57-5.21-.48-7.94-11.36-7.94-11.36a83.07 83.07 0 01-8.61 2.5c-1.38-.24-2.52.67-4.51 3.71-3.09 4.71-8.82 17-8.82 17l2.42 24.16c1.68 6 5.33 1.14 7.17-4.86 0 0 3.33-11.91 3.73-13.95a10 10 0 011.44-3.49s-.21 5.14 1 6.14 1 1 .41 3.1a9.39 9.39 0 001.63 8.14l-.06 3.92c-3.68 4-5 8.57-6 15.63a79.93 79.93 0 00-.3 16.94c-3.39 12.91 4 32.61 4 32.61a55.4 55.4 0 00.93 19.68c-1.86 3.71-2.48 3.39-2.48 3.39s3.39 5.85 2.48 9.85-.63 4.29 1.84 6.76c-1.23 1.84 2.78 9.84.62 20.3 3.22 0 8.92 3.39 14.76 5.83s13.85.31 17.54-1.52 9.23 1.52 9.23 1.52.93 2.48-.62-2.15a28 28 0 00-4.3-8s-2.47-25.53-1.54-33.83 1.84-8.61 1.84-8.61a31.61 31.61 0 01-1.84-9.53c-.32-5.86 1.22-12.33 2.15-16.94a13.08 13.08 0 00-.31-7.38z" fill="#0077c8" stroke="#000" stroke-width=".62"/><path d="M265.27 282.6" fill="#0077c8"/><path d="M191.51 170.39a29.84 29.84 0 009.38 2.15c2.47.15 3.07.47 5.07-.62a24.6 24.6 0 014.17-1.65v-.05c0-.14.63-13.31 1.4-17.89h.61c.1 1.67.23 3.17.37 4.54.05-.39.12-.85.22-1.42.61-3.39 1.69-5.53 4.61-9.23s-.76-1.09-2.61.46-1.69 2.3-1.38-2-1.39-4.64-1.7-7.7-.91 3.39-.77 5.21a19 19 0 01.16 6.17c-.45 3.24-2 2.77-3.69 4.61s-1.54 2.15-.91 3.54 2.16 3.69 2.45 6.75-.77 2.94-3.09 5.4-4.3.77-6 .77a56.45 56.45 0 01-6.76-.15c-3.54-.31-.45-1.68-2.46-1.4s-4 0-5.83.29-2.32.94-5.09.8a10.43 10.43 0 01-2.44-.35 8.94 8.94 0 001.09 2.13 28.5 28.5 0 006.26-1.17c2.48-.86 3.71-.58 6.94.81z" fill="#61619e"/><path d="M266.18 282.37h-.07.07" fill="#0077c8"/><path d="M202 128.09a35.9 35.9 0 01-.72 6.25c-.61 2.56.1 3.38-1.94 3.38s-5.54.09-6.87.21-1.74.83-3.08-2.15a84.39 84.39 0 01-3-8.83h0l-4 1.91a75.26 75.26 0 002.79 10c1.38 3.38 1.21 4 4 3.86 4.3-.25 9.82-.25 11.06-.3 2.77-.18 4.47.3 5.08-3.7s1.14-6.9 1.14-6.9a17.3 17.3 0 01-4.46-3.73z" fill="#9bd9f4" stroke="#000" stroke-width=".62"/><path d="M163.52 169.76s4.15 1.85 3.69 4.47c0 0 .46-10.18 0-12.94 0 0-.15 6-3.69 8.45" fill="#61619e"/><path d="M171.06 157.15l-4.15-3.1c1.53 1.73 2.47 5.1 2 6.18l.2-.28a38.56 38.56 0 01.26 7.34c-.31 3.39.15 6.32.3 2.17.13-3.88.54-8.92.36-10.84l1-1.47M180.6 151.58c2.54 1.28 5.68 2 8 1.26l-1.08 10.92s0 2.76.61.31 3.69-18.47 4-20 0-2.31-.31-1.07-1.07 6.6-2.77 7.68-8 .63-8.61.16-.78.31.15.77M196.6 143.16s1.22 9.53 1.54 12.6 1.23 4.15.77.61-1.85-5.08 1.23-4.46 6 3.7 9.38-.45 2.61-3.86 2.61-3.86-.91-6.14-1.53-3.22-1.39 5.08-3.7 5.82-3.7 1.56-5.38 1.09-2.76 2-3.08-.29-1.07-6.46-1.07-7.24-.93-2.14-.77-.61M180.29 175a28.19 28.19 0 00-1.69 6.44c-.32 1.85.31 1.85 1.22-.3a37 37 0 013.24-5.85l-2.77-.29M188 176.52c2.16 2 5 2.32 5.75 5.07s1.06 7.09 1.84 3.88 2.31-4.33 3.84-4.47 3.34-.79 3.65 3.23.75 3.38.14 10.91-1.54 17.37-.6 14.32 1.37-7.56 2-13.09.6-5.25 1.06-4.47 1.24 2.31 1.24 2.31V179l-13.84.9s-2.3-3.67-4.92-3.85M174.65 232.88c-3-9.63-3.09-16.21-2.26-20.51s1.65-3.05 1.24.63 1.43 14.56 1.84 18.25.21 4.92-.82 1.65" fill="#523178"/><path d="M193.73 204c-.82 10-1.44 1-.41 11.29s2.66 13.11.61 23.17a125.25 125.25 0 00-2.25 25.43c0 6.37.83 13.34 1.64 3.71s3.08-25.65 2.66-32 .82-15.18 1-22.36 1-13.75.81-19.87-1.63-4.14-2.45-1.65-.41 3.27-.41 3.27l-1.22 9M206.65 203.14c-1.24 9-2.05 14.58-3.28 23.8s-3.7 17.23-4.72 25.85-.83 15.38 0 8 2.66-14.16 4.51-23.8 3.49-20.32 3.49-20.32l.6-3.45-.6-10.06" fill="#523178"/><path d="M205 298.54c-5.52-2.47-8.82-4.32-11.27-9s-2.87-6.14-3.49-14.14-2.26-20.31-1.85-12.92-.6 18.24-.21 26.24 3.89 7.78.21 7.78-8-.18-.21 1.86 2.87 6.36 8.62 4.11 1.44-4.5 8.2-3.89M177.94 257.08c.4-.82 4.5-9 4.5-9a41.2 41.2 0 00.62-4.72c.2-2.65-1.23-1.85-2.66-.82s-2.66-1-3.08 3.92.21 7.17.62 10.64M186.55 245.4c4.11-9.23 5.74-13.94 5.34-18.88s.21-9.83-.41-6.76-2.66 10.26-1.84 4.93.81-8 1.63-8 1.43 0 1.43 5.92 1 9.47-1.43 19.32-3.08 14.35-3.08 14.35.21-4.32-1-6.35-1.84-2.08-.61-4.53M194.13 145.15c-.61 6.43-.31 12-.92 17.22s.92 5.83 1.07-.44.32-13.86.32-16.19-.16-3.22-.47-.58" fill="#523178"/><path d="M223.52 150.07a7.46 7.46 0 013.39 4.93c4.92-2.78 12.45-7.07 16.46-10.31s3.54-2.31 5.85-4.15 3.22-2.14 6.59-3.08 5.07-1.06 6.46-1.53 2.62-.29 2.47.61a3.34 3.34 0 01-.16.47s2.31 1.68 3.23 2.47 2 2.74.16 1.53a33.69 33.69 0 01-2.87-2.13s-.52 2.28-1 2.28-.29-2.16-.29-2.16-.76-.29-2.47.63a14 14 0 01-4.76 1.05s-.48.48 1.07 1.25 3.08 1.67 2.46 2.29-.62.62-2.46-.13-.61-.61-2.61-.46-3.85-1.09-5.4 1.83-10.15 15.23-17.53 18.79c-2.46 1-2.76 1.68-5.53.61s-7.07-3.55-8.15-5.7c.3-4.16 0-9.56 5.07-9.09z" fill="#ffd9ee" stroke="#000" stroke-width=".62"/><path d="M264.58 137s-.45-.49-2.14 0M263.25 138.97l1.8-.3" fill="none" stroke="#000" stroke-width=".62"/><path d="M207.79 211.76s-2 6.76.2 7.38 3.08 1.23 4 .62.93-.93 3.08-.3a17.63 17.63 0 004.31.62 90.26 90.26 0 00-.83-10.42" fill="#ff3515" stroke="#000" stroke-width=".62"/><path d="M177.91 170.73a15.32 15.32 0 005-.6c2.86-.82 4.1-1.64 7.79 0a31.74 31.74 0 0011.88 2.45c3.48 0 1.63 1 4.51-1s6.14-1 4.3 2.25c2.66 2.47 2.46 4.1.62 5.34 0 0 7 27.27 7 32.39a34.16 34.16 0 00-11.68 1.65l-.42-34.47s-8 .84-11.9 1-1.63-1.22-5.93-3.27-11.28-1-11.28-1a26 26 0 00.2-4.71" fill="#f2a900" stroke="#000" stroke-width=".62"/><path d="M153.21 246.2a69.5 69.5 0 007.39 3.41c4 1.53 4.3 2.46 1.22 5.22s-12.3 12-9.85 13.22M154.44 269.59s7.7 2.46 5.23 6.48-6.15 6.77-5.23 10.15M164.29 251.44s-1.85-10.75.93-26.45" fill="none" stroke="#000" stroke-width=".62"/><path d="M162 102.14l-3.59-.06c-2.16 0-2.31-.64-2.31-.64a7.64 7.64 0 00-1.39-2.6 13.23 13.23 0 00-1.23-3.7c.15-.77.62-2.77-.15-4.15 1.7-.3 2.46-1.69 3.24-3.38s.46-1.06-1.08-1.22-4.6-.31-5.22 3.52c-1.7 1.7-2.61 3.55-2 5.7-.91 2.76-.15 3.08.3 3.71a2.46 2.46 0 00.14 2.29 4.54 4.54 0 000 4.61c.78 1.39.93-1.38.17.47s-.54 3.24-.69 4.92" fill="#d18644" stroke="#000" stroke-width=".62"/><path d="M156.29 109.3c3.54-2.46 5.07-4.31 5.53-5.69s.46-2.31-3.38-.31a52.89 52.89 0 00-9.23 6c-1.54 1.38-1.39 2.76-.15 2.59a36.8 36.8 0 006-1.86" fill="#d18644" stroke="#000" stroke-width=".62"/><path d="M155.06 90a14.47 14.47 0 01-3.09.61c-1.43.1-2.35.72-1 1.13S154 93 154 92.69a8.23 8.23 0 00-.62-1.55l1.68-1.14M154.24 97.71c-1.64 1.23-1.73 1.83-.82 1.64a7.17 7.17 0 001.34-.41l-.53-1.23M148.6 99.35a6 6 0 002.25.11 1.93 1.93 0 00-1.13-1c-.92-.42-1.53-1.24-1.64-.42a1.58 1.58 0 00.52 1.33M148.92 107.25c-.49 1.2 1.32-.81 2.87-1.93l2.34-1.75s.61-1.13-1 .1a8.17 8.17 0 01-3.28 1.65c-.82.17-1.23.27-1.23.27a1.47 1.47 0 01.32 1.65M154.53 108v.23s.21-.22 0-.23"/><path d="M158.14 103.34c-2.16.72-3 1.86-4.82 2.78s-1.75 1.53-1.75 1.53-1 .61-2 1.32c0 0-.72 1-1 1.55s.29.51 1-.2 1.32-.73 3.48-1.74a4.3 4.3 0 011.52-.55l-.09-1 1.54-.83.22.83.23-.24h.08c1.31-.4 1.21.52 2.14-1.12a18.25 18.25 0 00.92-2 6.7 6.7 0 001.53-.64c.93-.61-.81-.42-3 .29"/><path fill="#fff" stroke="#000" stroke-width=".62" d="M157.83 121.76l-2-15.23-1.39.77 1.85 14.63"/><path d="M160.1 171.14c-3.9-2-7.18-8.4-8.62-19.89s-2.87-18.87-1.22-21.53 2-6.38 2.66-7.81.61-3.47 1.84-5.12 3.28-2.67 2.25-1.23-1 1.25-1.63 3.7-.84 3.9 1 3.08 5.54 0 4.3 1-.81.83-.81.83 1.84 1.23.6 1.64l-.6.22s1.64.61.81 1.43c-.27.3-.81.41-.6.41.82.61 1 1.23-.21 1.83a34.37 34.37 0 00-3.49 3.7c-1.85 2.26-2.46 1-1.63 4.3a33.72 33.72 0 003.47 7.61l2.27 8.19c3.48-.62 7.54 1.18 6.76 6.55-.82 5.76-1.63 9-4.72 10.07z" fill="#ffd9ee" stroke="#000" stroke-width=".62"/><path fill="none" stroke="#000" stroke-width=".62" d="M159.88 124.17l-3.07-.21M159.88 126.03l-2.05-.42M160.09 127.87l-2.46-.4"/><path d="M157.22 132.48s15 172 15.38 174.45 2.26 1.65 2.26 1.65l-16.14-177.65z" fill="#fff" stroke="#000" stroke-width=".62"/><path d="M167.22 157.29c.16 7.07 1.33 18.3-.67 20.91M192.44 142.66c-.91.14-1.38-.76-.45-3.09M196 137.76c1.54.32 1.69.46 1.84 2.46s-.15 1.37-.15 1.37M223.22 311.76l-1.39-1.39" fill="none" stroke="#000" stroke-width=".62"/><path d="M175 153.73l.6-.84v2.9c.51.11 1.8.06 1.18-3.44-.77-4.31-1.08-4.16-.77-5.84s.77-2.16-.16-5.08-2.3.16-2.3.16a15.48 15.48 0 01.15 4.76c-.3 2.77-.62 1.67-.92 2.77s.13 4.4-.76 7.67c-.74 2.72-1 8.27-.69 9 .93-3.41 2-7.35 2.21-8.43a10.41 10.41 0 011.46-3.63z" fill="#523178"/><path d="M176.92 159.44a5 5 0 01-1.14-1.46 3.27 3.27 0 00.7 1.83c1.12.94 1.14 1.17.75 2.52-.06.25-.15.54-.24.89a9.31 9.31 0 000 4.78 1.23 1.23 0 00.19-.56c.16-1.07.31-4.44 1.39-6s-.74-1.24-1.65-2z" fill="#61619e"/><path d="M206.66 246.86c1.85-3.29 3.48-6.78 3.89.39s1.45 22.56 1.45 30.58.61 14.36 2.26 17.42a15.23 15.23 0 003.82 4.55 25.59 25.59 0 00-2.32-3.55l-.06-.07v-.1c0-.21-1.71-17.81-1.74-28.47a34.94 34.94 0 011.1-11.38 8.17 8.17 0 01.89-2.69 32.84 32.84 0 01-1.79-9.44c-.28-5.24.89-10.88 1.83-15.4.11-.56.23-1.11.33-1.62a12.87 12.87 0 00-.29-7.19v-.22l-3-.91s-1.23 1.24-4.72.61c-.41 8.79.62 8-2.47 21.34s-3.69 14.36-4.91 23.79-1.43 3.48-2.46 12.92-2.87 10 .61 13.53a18.25 18.25 0 007.38 4.51 25.14 25.14 0 01-4.3-4.29c-1.63-2.27-2.66-4.31-2.46-5.57s2.46-.18 2.46-.18-1.63-.82-1.44-4.3 2.46-3.91 2.46-3.91a87.86 87.86 0 01.83-13.53c.99-7.63.8-13.56 2.65-16.82z" fill="#523178"/></svg>