<svg xmlns="http://www.w3.org/2000/svg" width="600" height="423.73" viewBox="0 0 600 423.73"><path fill="#0f204b" d="M0 0h600v423.73H0z"/><path fill="#ffb612" d="M498.68 79.72l12.95-9.41h-16l-4.95-15.22-4.95 15.22h-16.01l12.95 9.41-4.94 15.22 12.95-9.41 12.95 9.41-4.95-15.22zM99.98 163.74l-2.95-9.08-2.95 9.08h-9.54l7.72 5.61-2.95 9.07 7.72-5.61 7.72 5.61-2.94-9.07 7.72-5.61h-9.55zM170.75 190.01l-2.95-9.08-2.95 9.08h-9.55l7.73 5.61-2.96 9.07 7.73-5.6 7.72 5.6-2.95-9.07 7.72-5.61h-9.54zM205.91 227.72l-2.94-9.08-2.95 9.08h-9.55l7.72 5.61-2.94 9.08 7.72-5.61 7.72 5.61-2.95-9.08 7.72-5.61h-9.55zM238.56 258.05l-2.95 9.08h-9.54l7.72 5.61-2.95 9.07 7.72-5.61 7.72 5.61-2.95-9.07 7.72-5.61h-9.54l-2.95-9.08zM349.26 310.45l7.72-5.61h-9.54l-2.95-9.08-2.95 9.08H332l7.72 5.61-2.95 9.07 7.72-5.6 7.72 5.6-2.95-9.07zM236.85 322.64l-2.95-9.08-2.95 9.08h-9.54l7.72 5.61-2.95 9.07 7.72-5.61 7.72 5.61-2.95-9.07 7.72-5.61h-9.54zM316.51 348.91l-2.95-9.08-2.95 9.08h-9.54l7.72 5.61-2.95 9.07 7.72-5.61 7.72 5.61-2.95-9.07 7.72-5.61h-9.54z"/></svg>