<svg xmlns="http://www.w3.org/2000/svg" width="600" height="360"><path fill="#fff" d="M0 0h600v360H0z"/><path d="M227.82 323.38v-1.62h1.38a3 3 0 001.74-.35c.28-.24.41-.87.41-1.89V306.8c0-1-.13-1.64-.41-1.87a2.87 2.87 0 00-1.74-.36h-1.38V303h10.07v1.6h-1.37a2.79 2.79 0 00-1.74.36c-.28.24-.41.86-.41 1.87v12.72q0 1.53.42 1.89a2.85 2.85 0 001.73.35h1.37v1.62zM239.63 303h10v1.61h-1.52a3 3 0 00-1.75.35c-.28.24-.42.86-.42 1.87v15h4.87a10.83 10.83 0 003.42-.42A2.94 2.94 0 00256 320a6 6 0 00.57-1.86 17.69 17.69 0 00.18-2.78v-.44h1.59v8.48h-18.71v-1.62h1.24a3 3 0 001.75-.35c.29-.24.43-.87.43-1.89V306.8c0-1-.14-1.64-.42-1.87a2.89 2.89 0 00-1.75-.36h-1.25V303zM260.42 303h10v1.61h-1.52a3 3 0 00-1.75.35c-.28.24-.42.86-.42 1.87v15h4.87a10.71 10.71 0 003.41-.42 3 3 0 001.7-1.36 6 6 0 00.57-1.86 17.69 17.69 0 00.18-2.78v-.44h1.59v8.48h-18.63v-1.62h1.25a3 3 0 001.75-.35q.42-.36.42-1.89V306.8c0-1-.14-1.64-.42-1.87a2.87 2.87 0 00-1.75-.36h-1.25zM281.26 323.38v-1.62h1.38a3 3 0 001.74-.35q.42-.36.42-1.89V306.8c0-1-.14-1.64-.42-1.87a2.87 2.87 0 00-1.74-.36h-1.38V303h10.07v1.6H290a2.81 2.81 0 00-1.74.36c-.28.24-.41.86-.41 1.87v12.72q0 1.53.42 1.89a2.85 2.85 0 001.73.35h1.37v1.62zM313.55 323.47H311l-12.5-17.74v13.79q0 1.53.42 1.89a2.87 2.87 0 001.74.35h1.52v1.62h-9.07v-1.62h1.19a2.94 2.94 0 001.74-.35c.29-.24.43-.87.43-1.89v-12.69c0-1-.14-1.66-.43-1.9a2.87 2.87 0 00-1.74-.36h-1.18V303h6.84l11.58 16.41v-12.57c0-1-.14-1.66-.42-1.9a2.87 2.87 0 00-1.74-.36h-1.62V303h9v1.61h-1a2.85 2.85 0 00-1.74.36c-.28.24-.42.87-.42 1.9v16.64zM322 313.16a10 10 0 002.08 6.64 7.44 7.44 0 0011.09 0 11.6 11.6 0 000-13.27 7.47 7.47 0 00-11.1 0 10 10 0 00-2.07 6.63zm-3.31 0a11.31 11.31 0 01.86-4.42 10.55 10.55 0 012.51-3.59 10.07 10.07 0 013.41-2.07 12.22 12.22 0 018.32 0 10.07 10.07 0 013.41 2.07 10.46 10.46 0 012.52 3.59 12 12 0 010 8.86 10.4 10.4 0 01-2.52 3.6 10 10 0 01-3.41 2.06 12.22 12.22 0 01-8.32 0 10 10 0 01-3.41-2.06 10.59 10.59 0 01-2.51-3.6 11.41 11.41 0 01-.83-4.44zM342.72 323.38v-1.62h1.38a3 3 0 001.74-.35q.42-.36.42-1.89V306.8c0-1-.14-1.64-.42-1.87a2.87 2.87 0 00-1.74-.36h-1.38V303h10.07v1.6h-1.37a2.81 2.81 0 00-1.74.36c-.28.24-.41.86-.41 1.87v12.72q0 1.53.42 1.89a2.87 2.87 0 001.74.35h1.36v1.62zM355 323.38v-8.45h1.68a8.59 8.59 0 002.5 5.23 7.08 7.08 0 005.08 1.91 5.6 5.6 0 003.55-1.05 3.36 3.36 0 001.33-2.78 2.77 2.77 0 00-1-2.29 9.38 9.38 0 00-3.69-1.42l-2.53-.55q-4.1-.93-5.47-2.21a5.51 5.51 0 01.62-7.88 8.57 8.57 0 015.37-1.53 8.72 8.72 0 013.16.56 10 10 0 012.91 1.72l.89-1.85h1.42v7.73h-1.64a7.65 7.65 0 00-2.12-4.74 6.36 6.36 0 00-4.59-1.65 5.9 5.9 0 00-3.52.91 3 3 0 00-1.26 2.55 2.51 2.51 0 001 2.07 7.16 7.16 0 003.14 1.21l2.94.61a12.42 12.42 0 015.53 2.19 4.93 4.93 0 011.63 3.94 5.75 5.75 0 01-2.1 4.61 8.15 8.15 0 01-5.47 1.78 9.13 9.13 0 01-3.62-.7 10.15 10.15 0 01-3.17-2.17l-1 2.26H355zM202.65 235l-6.36-9.46h-1v-.18h-15.45l.21.58a77.26 77.26 0 007.54 9.17 4.61 4.61 0 00.81.59c1.39-.52 4.1-.37 6.71-.23s5.24.28 6.82-.19v-.12a6.39 6.39 0 00.72-.16zM343.21 218.59h-.09s8.4 16.41 11.07 16.41h.7v.07c1.3 0 4.07.28 6.74.54s5.7.58 7.18.58a29 29 0 003.66-.36 30.44 30.44 0 018.34-.32c4.85.69 7.12.69 10.13 0a21.35 21.35 0 016 .23 29.59 29.59 0 005.18.26c4.64-4.58 11.4-17.13 11.4-17.13zm47.27 16.49l-.94.18.42-.09a3.74 3.74 0 01.52-.09z" fill="#00205b"/><path d="M375.3 228.3a5.21 5.21 0 017.22.29M388 228.77a5.2 5.2 0 017.22.28M393 225.27a5.22 5.22 0 017.22.29M391.44 222.76a5.23 5.23 0 017.23.28M357.83 223.82a5.22 5.22 0 017.22.27M365.31 229.84a5.21 5.21 0 017.22.27M355.5 232.42a5.21 5.21 0 017.22.29M396.07 231.11a5.21 5.21 0 017.22.27M369 224.36a5.21 5.21 0 017.22.28M350.87 222.39a5.22 5.22 0 017.23.26M364.33 227.32a5.22 5.22 0 017.22.28M382.35 226a5.2 5.2 0 017.22.28M386.62 232.62a5.24 5.24 0 017.23.27M382.79 222.13c1-.79 3-2.68 6.24.28M361.31 221.94c1-.8 3.57-2.68 6.77.29M400.9 222.32c1-.79 3-2.67 6.24.28M378.6 231.27c1-.8 3-2.68 6.24.28M376.82 223.21c1-.8 3-2.69 6.24.28M370.64 222.09c.3-.85 1.64-3.09 3.87.31M355.06 226.5c1-.8 3-2.67 6.24.28M364.85 233.43c1.49-1.23 3.5-2.29 6.24.26M356.93 229.38c1.49-1.22 3.48-2.27 6.24.28M396.7 227.78c1.49-1.21 3.48-2.26 6.24.28M399.37 224.83c1.5-1.22 3.49-2.27 6.25.28M373.72 233.69c1-.8 3-2.68 6.24.28M187.8 228.54a5.21 5.21 0 017.22.28M192.3 232.56c1-.81 3-2.69 6.24.28" fill="none" stroke="#fff" stroke-width=".86"/><path d="M283 210.64l2-6.35 1.53-2 11.47 1.57 17 3.72 9 1.66 14.47 24.58 14.81 1.09-13.47 15.64H295l-8.34-4.41-12.4-11.3 17.58-14.12-8.84-10.08z" fill="#b4b4b4"/><path d="M314.56 207.25c2.79-.48 14.72-1.41 18.28 5.44 0 0-.17 0-1.57.05 1.84.12 9.76-2.12 13 7.4a5.34 5.34 0 00-2.18-.34s7.7-.8 12.14 14.24c.78 2.79-9.91-1-15.71.88m15.65-.26c2.4.88 2.85 5 4.07 6.23s4 2.9 3.79 5-3.57 5.16-6.59 5.84-11.25-1.47-14.37-1.15-12.37 3.15-17.5 3-10.36-2.36-14.7-2.25-11.94.66-14.15-.81m-4.25-3.24c-.56-2-1.44-8.71 6.14-11.42a43.17 43.17 0 014.78-1.17c1.72-.54 3.07-1.06 4.31-.63s2.38 3.15 6.62 3.71m2.36-19.73c-1.45-.12-2.56-2.68-6-2.24s-8.6 3.92-9.37 8.51-.85 6.45 2.38 10" fill="#b4b4b4" stroke="#000" stroke-width=".64"/><path d="M311.31 223.78v6.13c0 .38.19.62.57.62h.8v1.09h-5v-1.09h.85c.39 0 .57-.24.57-.62v-4h-1.39v-1.09h.29a1.56 1.56 0 001.63-1h1.67M321.12 225.55c0 .84-.62 1.22-1.33 1.47a2.32 2.32 0 011.75 2.26c0 2-1.77 2.53-3.63 2.53-1.41 0-3.49-.28-3.49-2.13a1.9 1.9 0 011.49-1.93 2 2 0 01-1.21-1.67c0-2 1.69-2.49 3.37-2.49 1.24 0 3.05.41 3.05 1.96zm-4.22 2.74a1.47 1.47 0 00-.94 1.18c0 1.12 1.06 1.4 2 1.4.69 0 1.59-.24 1.59-1.07 0-.37-.22-.64-1.14-1zm2.2-1.91a.9.9 0 00.48-.84c0-.8-.87-1-1.51-1s-1.38.15-1.38.88a.63.63 0 00.48.62l1.59.56.34-.22M324.73 227.42a2.85 2.85 0 012-.59 2.41 2.41 0 012.66 2.37c0 1.85-1.63 2.61-3.28 2.61-2.54 0-3.73-1.43-3.73-3.76 0-2.66 1.23-4.46 4-4.46 1 0 2.65.51 2.65 1.65 0 .8-.47 1.12-1.28 1.12a.94.94 0 01-1-.85.76.76 0 01.51-.76 1.11 1.11 0 00-.66-.2c-1.33 0-1.87 1-1.87 2.15v.72zm.14 1.91c0 1 .4 1.45 1.06 1.45s1.06-.46 1.06-1.45-.4-1.46-1.06-1.46-1.06.46-1.06 1.46M336.88 225.55c0 .84-.63 1.22-1.33 1.47a2.32 2.32 0 011.74 2.26c0 2-1.77 2.53-3.63 2.53-1.41 0-3.5-.28-3.5-2.13a1.91 1.91 0 011.51-1.93 2 2 0 01-1.22-1.67c0-2 1.7-2.49 3.37-2.49 1.25 0 3.06.41 3.06 1.96zm-4.22 2.74a1.45 1.45 0 00-.94 1.18c0 1.12 1.06 1.4 2 1.4.69 0 1.58-.24 1.58-1.07 0-.37-.22-.64-1.15-1zm2.2-1.91a.9.9 0 00.48-.84c0-.8-.87-1-1.52-1s-1.37.15-1.37.88a.65.65 0 00.48.62l1.6.56.33-.22M323.29 238.59v6.13a.54.54 0 00.57.62h.8v1.09h-5v-1.09h.86a.54.54 0 00.57-.62v-4h-1.39v-1.09h.3a1.57 1.57 0 001.63-1h1.67M333.1 240.34c0 .85-.62 1.24-1.33 1.48a2.32 2.32 0 011.74 2.25c0 2-1.77 2.54-3.62 2.54-1.42 0-3.5-.29-3.5-2.14a1.91 1.91 0 011.5-1.92 2 2 0 01-1.22-1.66c0-2 1.7-2.5 3.37-2.5 1.25 0 3.06.39 3.06 2zm-4.22 2.74a1.47 1.47 0 00-.94 1.18c0 1.12 1.06 1.4 2 1.4.68 0 1.58-.24 1.58-1.07 0-.37-.21-.63-1.14-1l-1.49-.54zm2.19-1.89a.89.89 0 00.47-.85c0-.79-.86-1-1.5-1s-1.37.14-1.37.88a.6.6 0 00.48.6l1.59.56.33-.2M339 238.59v6.13a.54.54 0 00.57.62h.8v1.09h-5v-1.09h.86a.54.54 0 00.57-.62v-4h-1.39v-1.09h.32a1.54 1.54 0 001.61-1h1.69M348.85 240.34c0 .85-.61 1.24-1.33 1.48a2.32 2.32 0 011.75 2.25c0 2-1.78 2.54-3.63 2.54-1.4 0-3.49-.29-3.49-2.14a1.91 1.91 0 011.5-1.92 2 2 0 01-1.22-1.66c0-2 1.7-2.5 3.37-2.5 1.25 0 3.05.39 3.05 2zm-4.22 2.74a1.47 1.47 0 00-.94 1.18c0 1.12 1.06 1.4 2 1.4.69 0 1.59-.24 1.59-1.07 0-.37-.22-.63-1.15-1l-1.49-.54zm2.2-1.89a.88.88 0 00.48-.85c0-.79-.87-1-1.51-1s-1.37.14-1.37.88a.6.6 0 00.48.6l1.59.56.33-.2"/><path d="M275.57 194.46c1.67 5.19 12.41 20.07 26.87 19.72-.79 4.21-21.42 46.56-76.69 49.55-15.59-52.71 13.15-85.77 23-89 3.29 13.37 21.53 19.43 26.86 19.69z" fill="#ffe60f" stroke="#000" stroke-width=".71"/><path d="M274.11 196.78c1.52 4.74 6.79 26.54 15.54 33.71-3.42 3.62-25.43 28.15-61 29.57-11.54-36 3-62 8-70.36 11.31 8.26 32.68 6.84 37.54 7.08" fill="#fff"/><path d="M247.11 178.32c5.8 12.59 21.31 17 26.93 18.26 1.9 9.47 20.6 21 24.76 20-.73 5.15-10.53 15.86-13.79 18.72-.05-.06-52.25-38.28-52.23-38.3 1.46-4.42 11.05-18.63 14.33-18.71" fill="#00205b"/><path d="M279.92 235.66s2.79 2 2.82 2c-2.27 1.84-8.08 6.3-9.39 7.18 0 0 6.6-9.19 6.57-9.18M231.38 200.09l4.14 3-9.52 13.43c1.81-7.2 2-8.78 5.41-16.43M238.61 205.38l5.21 3.78-19.48 27.25c-.55-3.54-.15-7.95.16-11.28l14.11-19.75M246.86 211.38l5.17 3.84-25.84 36.15a81 81 0 01-1.49-9l22.16-31M263.41 223.51l5.17 3.81-21.35 29.75c-1.35.73-7.86 2-9.41 2.25l25.59-35.81M255.24 217.54l5.09 3.75-27.49 38.39c-.61.34-2.37.28-4.19.32-.24-1.13-.92-2.93-1.17-3.69l27.76-38.77M271.68 229.59l5.19 3.79-11.73 16.28c-1.35.72-9.7 5-11.76 5.59l18.3-25.66" fill="#be0a2f"/><path d="M245.16 189.5l-1.39 4.86-1.84-4.94 4.28 3.14-5.2-.23zM253.62 188.89l-1.39 4.86-1.85-4.94 4.29 3.14-5.21-.22zM246.89 197.72l-1.39 4.85-1.85-4.94 4.29 3.15-5.2-.23zM255.67 197.21l-1.38 4.86-1.85-4.94 4.29 3.14-5.21-.22zM265 197.06l-1.39 4.85-1.88-4.91 4.28 3.14-5.2-.22zM276.43 205.44l-1.43 4.85-1.85-4.94 4.29 3.15-5.2-.23zM267.51 205.79l-1.39 4.86-1.85-4.94 4.29 3.14-5.2-.23zM258.5 206.07l-1.39 4.85-1.85-4.92 4.29 3.14-5.2-.23zM269.8 214.5l-1.39 4.86-1.85-4.94 4.29 3.14-5.2-.22zM278.55 213.78l-1.39 4.86-1.85-4.94 4.29 3.14-5.21-.23zM286.51 213l-1.39 4.85-1.84-4.94 4.29 3.15-5.21-.23zM280.05 222l-1.39 4.86-1.85-4.94 4.29 3.14-5.2-.23zM288.57 221.29l-1.39 4.86-1.85-4.94 4.29 3.14-5.2-.23z" fill="#fff"/><path d="M351.48 218.34l53.59.08-39.27-17.78-14.32 17.7z" fill="#ffe60f" stroke="#fff" stroke-width=".15"/><path d="M367.34 211.07s-9.31-4.6-10.31-5a10.74 10.74 0 00-3.34-.35s.21 2.06 1.11 2.47 11.87 4.38 11.87 4.38m1.45-2.85s-7.37-4.43-9.08-5.33a8 8 0 00-4-.61s1.08 1.94 2 2.37 10.31 5 10.31 5m35 6.86s5.44-.75 7-1 4.14-3.69 4.14-3.69-2.89-1.64-4.47-1.36-15.38 4.36-15.38 4.36 15.22-4 16.6-4.45 3.13-3.38 3.13-3.38-2.32-.75-3.56-.33-16.84 5.8-16.84 5.8 17.34-5.77 18.73-6.47 3.12-3.7 3.12-3.7-2.37-.51-3.12-.12c-.45.24-7.4 3.46-12.75 6.37 4.73-2.32 10.52-5.16 11.75-5.82 2.12-1.11 6.36-6.72 6.36-6.72s-4 .52-5.24 1.24S392 211.43 392 211.43s20.21-12.8 21.85-13.87 3.51-5.61 3.51-5.61-3.25.2-4.51 1.11l-21.91 16.41s22.16-16.59 23.59-17.75 2.84-5.54 2.84-5.54-3.24-.17-4.56.8S390 208.46 390 208.46s23.45-22.35 25.32-24 3.8-6.49 3.8-6.49-3.53.66-4.63 1.9-25.28 28-25.28 28 27.34-30.48 28.68-31.91 2.24-5.72 2.24-5.72a17.71 17.71 0 00-4.7 2.87c-1.38 1.47-27.22 33.86-27.22 33.86l26.45-33c1.53-1.93 2.22-5.6 2.22-5.6s-3.42 1.21-4.84 3.08-24.66 34.83-24.66 34.83 19.4-27.68 20-28.49.66-3.7.66-3.7a5.67 5.67 0 00-2.5 1.45c-.67 1-18.87 30.18-18.87 30.18s19.68-31.46 20.37-32.65a7 7 0 00.45-3.45 5.32 5.32 0 00-2.4 1.33c-.75.93-19.2 34.38-19.2 34.38s20.19-36.3 20.82-37.4.67-4.6.67-4.6a9.09 9.09 0 00-3.45 2c-1 1.18-18.7 39.77-18.7 39.77s19.28-41 20.37-43.41a22.49 22.49 0 001.35-6.39s-2.44.55-3.29 1.91-19.61 47.14-19.61 47.14l20.79-50.5.67-5s-4.07 2.7-4.69 4.59c-.3.94-7.9 22.62-11.85 35.2 4.17-12.5 11.51-34.08 11.74-34.64.46-1.08 0-3.8 0-3.8s-2.81 2.42-3.29 4c-.21.75-5.43 18.75-8.55 30.31 2.38-8.06 6.32-22.25 6.53-22.92.56-1.66-.43-4.8-.43-4.8a15.21 15.21 0 00-2.23 4.69c-.45 1.92-6.53 28.15-9 38.63 2.38-9.72 7.86-34 8.3-35.71.51-2-1.21-5.37-1.21-5.37s-1.94 1.76-2.13 3.12c-.13 1-3.37 22.22-5.19 34.12 2-12.19 5-34.42 5.19-35.79.26-1.9-1.44-5.5-1.44-5.5s-1.74 1.46-1.79 2.43-4.32 46.53-4.32 46.53 4.49-47.84 4.67-49.63-1.45-4.82-1.45-4.82a4.32 4.32 0 00-1.34 2.23c-.06.72-1.07 21.84-1.78 37 .95-15.75 1.81-38.4 1.89-39.9a7.67 7.67 0 00-1.55-4.47 6.31 6.31 0 00-1.23 3.59c-.15 2.77-.51 55.91-.51 55.91s.55-56.7.52-58.49-2.44-5.39-2.44-5.39-1.92 2.92-1.79 5.5c.1 2 2.72 58.37 2.72 58.37s-2.15-50.14-2.5-52.77-3.12-4.71-3.12-4.71a17.48 17.48 0 00-.78 6.26c.23 3.35 4.22 36.89 4.22 36.89-1.58-13-3.66-30.19-3.79-31.27-.19-1.73-3.28-5.15-3.28-5.15a48.38 48.38 0 00.28 8.12c.32 1.64 7.76 42.74 7.76 42.74s-7-38.73-7.44-41a7.55 7.55 0 00-2.65-3.93 24.14 24.14 0 00.21 7.39c.34 1.67 8.87 37.54 8.87 37.54-.6-3-8.43-35.7-8.87-37.54a9.58 9.58 0 00-2-3.58s-.49 3.66 0 5.15 10.11 36.31 10.11 36.31-10.42-36.65-11.66-40.12c-.77-2.15-3.72-5-3.72-5s-.06 3.63.55 5.1c.43 1 7.9 21.46 12.2 32.72-4.59-12.31-13.31-35.77-13.7-36.91-.51-1.57-4.67-5.38-4.67-5.38s-.67 2.46-.11 3.69S375 204.46 375 204.46l-19.68-45c-1.29-2.9-5.79-5.27-5.79-5.27s.34 5.67 1.54 8S374 205 374 205s-20.17-37.83-20.91-39.13-4.68-3.25-4.68-3.25.8 4.55 2 6.4c.87 1.33 19.78 30.92 19.78 30.92-6-9.61-17.63-28-18.45-28.8a30.49 30.49 0 00-5.06-3.09s2.23 6.11 3.61 7.84 22.6 29.61 22.6 29.61-21.06-27.87-22.16-29c-1.27-1.28-4.45-2.06-4.45-2.06s2.11 4.87 3.67 6.72 21.14 25.15 21.14 25.15-17.85-21.57-19.55-23.31-4.9-2.14-4.9-2.14a31 31 0 004.78 7.41c2.73 2.82 18.71 18.89 18.71 18.89M366.05 214.1s-14.07-2.88-15.88-3.2-8 .49-8 .49 5.85 3.08 8.69 3.26 14.6 1.19 14.6 1.19" fill="#ffe60f" stroke="#fff" stroke-width=".15"/><path d="M370.06 207.11s-13.78-14.65-15.36-15.75-5.25-1.13-5.25-1.13.35 3.4 2.12 4.59 17.55 13.3 17.55 13.3-8.53-6.69-10-7.79-4.8-.57-4.8-.57a25.64 25.64 0 004.07 4.37c1.66 1.13 9.76 5.55 9.76 5.55m-1.47 2.85s-11.17-4.17-13.2-4.83-8.8-.33-8.8-.33 3.74 3.13 5.51 3.52 15.88 3.2 15.88 3.2m-.56 1.74s-14.6-1.49-15.93-1.3a44.25 44.25 0 00-5.69 2 43 43 0 005.9 1.13c1.59 0 15.6-.77 15.6-.77" fill="#ffe60f" stroke="#fff" stroke-width=".15"/><path d="M389.54 218.39a9.74 9.74 0 10-19.47 0h19.47" fill="#ffb316"/><path d="M209.25 245.61c-.73-1.36-.84-4.73-.84-4.73s-.25 4-1.19 5.56" fill="#fff" stroke="#3f863f" stroke-width=".61"/><path d="M208.45 239.65c.05 1.86.8 6 1.51 6.5" fill="#fff" stroke="#fff" stroke-width=".61"/><path d="M225.8 268.74a12.27 12.27 0 01-.69-3.84s-.2 3.27-1 4.5" fill="#fff" stroke="#3f863f" stroke-width=".49"/><path d="M225.15 263.91c0 1.49.65 4.82 1.22 5.25" fill="#fff" stroke="#fff" stroke-width=".49"/><path d="M282.72 279.3c.69-1.38.69-4.76.69-4.76s.39 4 1.38 5.52" fill="#fff" stroke="#3f863f" stroke-width=".61"/><path d="M283.33 273.31c0 1.86-.61 6-1.29 6.55" fill="#fff" stroke="#fff" stroke-width=".61"/><path d="M312.65 277.91c.69-1.38.69-4.75.69-4.75s.38 4 1.38 5.53" fill="#fff" stroke="#3f863f" stroke-width=".61"/><path d="M313.26 271.93c0 1.85-.61 6-1.29 6.54" fill="#fff" stroke="#fff" stroke-width=".61"/><path d="M212.14 252.81c.68-1.39.68-4.75.68-4.75s.39 4 1.38 5.52" fill="#fff" stroke="#3f863f" stroke-width=".61"/><path d="M212.74 246.82c0 1.86-.6 6-1.3 6.57" fill="#fff" stroke="#fff" stroke-width=".61"/><path d="M257 277.21c.68-1.38.69-4.76.69-4.76s.38 4 1.38 5.54" fill="#fff" stroke="#3f863f" stroke-width=".61"/><path d="M257.59 271.21c0 1.86-.61 6-1.29 6.55" fill="#fff" stroke="#fff" stroke-width=".61"/><path d="M345.47 283.52c-.72-1.37-.83-4.73-.83-4.73s-.25 4-1.2 5.55" fill="#fff" stroke="#3f863f" stroke-width=".61"/><path d="M344.69 277.56c.05 1.84.79 6 1.5 6.48" fill="#fff" stroke="#fff" stroke-width=".61"/><path d="M268.06 281.56a13.62 13.62 0 01-.75-4.26s-.23 3.62-1.08 5" fill="#fff" stroke="#3f863f" stroke-width=".55"/><path d="M267.35 276.19c0 1.65.71 5.37 1.35 5.83" fill="#fff" stroke="#fff" stroke-width=".55"/><path d="M272.24 284c.68-1.38.69-4.76.69-4.76s.38 4 1.37 5.52" fill="#fff" stroke="#3f863f" stroke-width=".61"/><path d="M272.84 278c0 1.83-.6 6-1.28 6.54" fill="#fff" stroke="#fff" stroke-width=".61"/><path d="M279.72 281.84c-.75-1.35-.84-4.73-.84-4.73s-.25 4-1.2 5.56" fill="#fff" stroke="#3f863f" stroke-width=".61"/><path d="M278.93 275.88c0 1.86.8 6 1.49 6.51" fill="#fff" stroke="#fff" stroke-width=".61"/><path d="M277.7 292.05c-.73-1.37-.84-4.73-.84-4.73s-.25 4-1.2 5.55" fill="#fff" stroke="#3f863f" stroke-width=".61"/><path d="M276.91 286.08c0 1.85.8 6 1.49 6.49" fill="#fff" stroke="#fff" stroke-width=".61"/><path d="M299 277.09a14 14 0 01-.75-4.27s-.23 3.63-1.08 5" fill="#fff" stroke="#3f863f" stroke-width=".55"/><path d="M298.24 271.72c0 1.68.71 5.37 1.35 5.85" fill="#fff" stroke="#fff" stroke-width=".55"/><path d="M301.16 289c-.72-1.38-.83-4.74-.83-4.74s-.26 4-1.2 5.55" fill="#fff" stroke="#3f863f" stroke-width=".61"/><path d="M300.38 283c.05 1.84.79 6 1.5 6.48" fill="#fff" stroke="#fff" stroke-width=".61"/><path d="M293.59 286c.69-1.38.69-4.75.69-4.75s.38 4 1.37 5.53" fill="#fff" stroke="#3f863f" stroke-width=".61"/><path d="M294.19 280c0 1.85-.61 6-1.29 6.54" fill="#fff" stroke="#fff" stroke-width=".61"/><path d="M288 292.52c.68-1.38.67-4.75.67-4.75s.39 4 1.39 5.51" fill="#fff" stroke="#3f863f" stroke-width=".61"/><path d="M288.61 286.53c0 1.85-.6 6-1.29 6.54" fill="#fff" stroke="#fff" stroke-width=".61"/><path d="M289 276.91a12.21 12.21 0 00.55-3.85s.32 3.24 1.12 4.47" fill="#fff" stroke="#3f863f" stroke-width=".49"/><path d="M289.46 272.05c0 1.5-.48 4.86-1 5.31" fill="#fff" stroke="#fff" stroke-width=".49"/><path d="M310.91 291.83a12.31 12.31 0 00.56-3.85s.31 3.24 1.11 4.47" fill="#fff" stroke="#3f863f" stroke-width=".49"/><path d="M311.41 287c0 1.5-.49 4.86-1.05 5.29" fill="#fff" stroke="#fff" stroke-width=".49"/><path d="M306 276.52a12.25 12.25 0 00.56-3.85s.31 3.26 1.12 4.47" fill="#fff" stroke="#3f863f" stroke-width=".49"/><path d="M306.52 271.67c0 1.51-.49 4.85-1 5.3" fill="#fff" stroke="#fff" stroke-width=".49"/><path d="M295.42 293.77c.69-1.39.69-4.75.69-4.75s.38 4 1.37 5.52" fill="#fff" stroke="#3f863f" stroke-width=".61"/><path d="M296 287.78c0 1.84-.61 6-1.29 6.53" fill="#fff" stroke="#fff" stroke-width=".61"/><path d="M304.89 294.21c.69-1.38.68-4.75.68-4.75s.39 4 1.38 5.51" fill="#fff" stroke="#3f863f" stroke-width=".61"/><path d="M305.5 288.23c0 1.85-.61 6-1.3 6.54" fill="#fff" stroke="#fff" stroke-width=".61"/><path d="M283.16 291.15c-.73-1.37-.83-4.74-.83-4.74s-.25 4-1.2 5.57" fill="#fff" stroke="#3f863f" stroke-width=".61"/><path d="M282.37 285.18c0 1.87.79 6 1.5 6.49" fill="#fff" stroke="#fff" stroke-width=".61"/><path d="M285.56 284.91c.68-1.4.68-4.76.68-4.76s.39 4 1.39 5.51" fill="#fff" stroke="#3f863f" stroke-width=".61"/><path d="M286.16 278.91c0 1.86-.6 6-1.29 6.55" fill="#fff" stroke="#fff" stroke-width=".61"/><path d="M270.23 289.13c-.72-1.37-.83-4.74-.83-4.74s-.25 4-1.2 5.56" fill="#fff" stroke="#3f863f" stroke-width=".61"/><path d="M269.45 283.15c0 1.87.78 6 1.49 6.5" fill="#fff" stroke="#fff" stroke-width=".61"/><path d="M263.21 286.45c.69-1.39.68-4.75.68-4.75s.39 4 1.37 5.53" fill="#fff" stroke="#3f863f" stroke-width=".61"/><path d="M263.81 280.46c0 1.85-.6 6-1.29 6.56" fill="#fff" stroke="#fff" stroke-width=".61"/><path d="M241.26 279.1c.69-1.38.68-4.75.68-4.75s.39 4 1.37 5.52" fill="#fff" stroke="#3f863f" stroke-width=".61"/><path d="M241.87 273.12c0 1.85-.61 6-1.3 6.54" fill="#fff" stroke="#fff" stroke-width=".61"/><path d="M249.22 282.68c-.72-1.37-.83-4.74-.83-4.74s-.25 4-1.2 5.56" fill="#fff" stroke="#3f863f" stroke-width=".61"/><path d="M248.44 276.72c0 1.84.79 5.94 1.49 6.48" fill="#fff" stroke="#fff" stroke-width=".61"/><path d="M252.46 284c.68-1.39.69-4.77.69-4.77s.38 4 1.37 5.54" fill="#fff" stroke="#3f863f" stroke-width=".61"/><path d="M253.06 278.06c0 1.84-.6 6-1.29 6.54" fill="#fff" stroke="#fff" stroke-width=".61"/><path d="M260.47 284.9a12.52 12.52 0 01-.68-3.84s-.2 3.25-1 4.49" fill="#fff" stroke="#3f863f" stroke-width=".49"/><path d="M259.83 280.05c0 1.5.64 4.85 1.21 5.27" fill="#fff" stroke="#fff" stroke-width=".49"/><path d="M264 279c-.73-1.37-.83-4.73-.83-4.73s-.26 4-1.2 5.56" fill="#fff" stroke="#3f863f" stroke-width=".61"/><path d="M263.21 273.07c0 1.86.8 6 1.51 6.49" fill="#fff" stroke="#fff" stroke-width=".61"/><path d="M248.9 271.77c.69-1.38.69-4.75.69-4.75s.38 4 1.38 5.53" fill="#fff" stroke="#3f863f" stroke-width=".61"/><path d="M249.51 265.78c0 1.85-.61 6-1.29 6.54" fill="#fff" stroke="#fff" stroke-width=".61"/><path d="M236.42 276.24c-.73-1.39-.83-4.75-.83-4.75s-.26 4-1.2 5.55" fill="#fff" stroke="#3f863f" stroke-width=".61"/><path d="M235.63 270.25c0 1.86.78 6 1.49 6.5" fill="#fff" stroke="#fff" stroke-width=".61"/><path d="M228.62 271.43c.68-1.41.69-4.77.69-4.77s.38 4 1.37 5.53" fill="#fff" stroke="#3f863f" stroke-width=".61"/><path d="M229.21 265.44c0 1.84-.6 6-1.28 6.53" fill="#fff" stroke="#fff" stroke-width=".61"/><path d="M239 271.07c-.73-1.37-.83-4.73-.83-4.73s-.26 4-1.2 5.55" fill="#fff" stroke="#3f863f" stroke-width=".61"/><path d="M238.19 265.1c.05 1.85.79 6 1.51 6.49" fill="#fff" stroke="#fff" stroke-width=".61"/><path d="M244.35 270.49a12.28 12.28 0 00.56-3.85s.31 3.24 1.12 4.47" fill="#fff" stroke="#3f863f" stroke-width=".49"/><path d="M244.85 265.63c0 1.5-.49 4.86-1 5.31" fill="#fff" stroke="#fff" stroke-width=".49"/><path d="M292.67 276.73a13.68 13.68 0 00.62-4.28s.34 3.62 1.24 5" fill="#fff" stroke="#3f863f" stroke-width=".55"/><path d="M293.21 271.34c0 1.67-.54 5.39-1.16 5.89" fill="#fff" stroke="#fff" stroke-width=".55"/><path d="M301.79 276.58c.69-1.39.69-4.77.69-4.77s.37 4 1.37 5.52" fill="#fff" stroke="#3f863f" stroke-width=".61"/><path d="M302.39 270.58c0 1.84-.61 6-1.29 6.54" fill="#fff" stroke="#fff" stroke-width=".61"/><path d="M310.43 283.88a12.41 12.41 0 01-.67-3.84s-.2 3.26-1 4.51" fill="#fff" stroke="#3f863f" stroke-width=".49"/><path d="M309.78 279c0 1.51.64 4.83 1.21 5.27" fill="#fff" stroke="#fff" stroke-width=".49"/><path d="M319.29 289.81a11.06 11.06 0 01-.62-3.46 12.5 12.5 0 01-.87 4.06" fill="#fff" stroke="#3f863f" stroke-width=".44"/><path d="M318.7 285.47c0 1.36.59 4.35 1.1 4.73" fill="#fff" stroke="#fff" stroke-width=".44"/><path d="M315.71 286.06c.69-1.41.69-4.76.69-4.76s.38 4 1.37 5.51" fill="#fff" stroke="#3f863f" stroke-width=".61"/><path d="M316.31 280.05c0 1.85-.6 6-1.28 6.56" fill="#fff" stroke="#fff" stroke-width=".61"/><path d="M320.18 277.79c-.73-1.36-.84-4.74-.84-4.74s-.25 4-1.2 5.56" fill="#fff" stroke="#3f863f" stroke-width=".61"/><path d="M319.39 271.82c0 1.85.79 6 1.49 6.5" fill="#fff" stroke="#fff" stroke-width=".61"/><path d="M303.9 284.08c.69-1.39.69-4.75.69-4.75s.37 4 1.37 5.52" fill="#fff" stroke="#3f863f" stroke-width=".61"/><path d="M304.51 278.09c0 1.85-.61 6-1.3 6.54" fill="#fff" stroke="#fff" stroke-width=".61"/><path d="M323.3 283.29c-.74-1.37-.83-4.74-.83-4.74s-.25 4-1.2 5.54" fill="#fff" stroke="#3f863f" stroke-width=".61"/><path d="M322.5 277.31c.05 1.86.79 6 1.5 6.5" fill="#fff" stroke="#fff" stroke-width=".61"/><path d="M341 275.45c-.74-1.37-.84-4.74-.84-4.74s-.25 4-1.2 5.56" fill="#fff" stroke="#3f863f" stroke-width=".61"/><path d="M340.23 269.49c0 1.85.81 6 1.51 6.49" fill="#fff" stroke="#fff" stroke-width=".61"/><path d="M324.14 269.92c.68-1.39.68-4.75.68-4.75s.39 4 1.38 5.51" fill="#fff" stroke="#3f863f" stroke-width=".61"/><path d="M324.74 263.93c0 1.85-.6 6-1.28 6.54" fill="#fff" stroke="#fff" stroke-width=".61"/><path d="M339.06 284.31c.69-1.38.69-4.75.69-4.75s.38 4 1.38 5.52" fill="#fff" stroke="#3f863f" stroke-width=".61"/><path d="M339.67 278.34c0 1.84-.6 6-1.29 6.54" fill="#fff" stroke="#fff" stroke-width=".61"/><path d="M350.05 271.78c.7-1.38.7-4.77.7-4.77s.38 4 1.37 5.54" fill="#fff" stroke="#3f863f" stroke-width=".61"/><path d="M350.66 265.68c0 1.85-.61 6-1.29 6.54" fill="#fff" stroke="#fff" stroke-width=".61"/><path d="M330.37 286.31c-.72-1.37-.83-4.74-.83-4.74s-.26 4-1.2 5.56" fill="#fff" stroke="#3f863f" stroke-width=".61"/><path d="M329.58 280.35c0 1.84.79 6 1.5 6.49" fill="#fff" stroke="#fff" stroke-width=".61"/><path d="M329.48 275.41c.69-1.39.69-4.75.69-4.75s.38 4 1.37 5.52" fill="#fff" stroke="#3f863f" stroke-width=".61"/><path d="M330.09 269.42c0 1.85-.61 6-1.29 6.54" fill="#fff" stroke="#fff" stroke-width=".61"/><path d="M334.8 278.49a12.13 12.13 0 01-.68-3.84s-.21 3.27-1 4.52" fill="#fff" stroke="#3f863f" stroke-width=".49"/><path d="M334.15 273.66c0 1.51.64 4.83 1.21 5.27" fill="#fff" stroke="#fff" stroke-width=".49"/><path d="M318.4 268.07c.69-1.38.69-4.76.69-4.76s.39 4 1.37 5.52" fill="#fff" stroke="#3f863f" stroke-width=".61"/><path d="M319 262.08c0 1.84-.6 6-1.29 6.54" fill="#fff" stroke="#fff" stroke-width=".61"/><path d="M344.36 275.87c.69-1.4.69-4.77.69-4.77s.39 4 1.38 5.52" fill="#fff" stroke="#3f863f" stroke-width=".61"/><path d="M345 269.88c0 1.85-.61 6-1.29 6.54" fill="#fff" stroke="#fff" stroke-width=".61"/><path d="M335.72 287.61c-.73-1.38-.83-4.74-.83-4.74s-.26 4-1.2 5.55" fill="#fff" stroke="#3f863f" stroke-width=".61"/><path d="M334.93 281.63c.05 1.86.79 6 1.5 6.5" fill="#fff" stroke="#fff" stroke-width=".61"/><path d="M334.11 269.87a12.3 12.3 0 00.56-3.86s.31 3.27 1.12 4.48" fill="#fff" stroke="#3f863f" stroke-width=".49"/><path d="M334.6 265c0 1.51-.49 4.85-1.05 5.29" fill="#fff" stroke="#fff" stroke-width=".49"/><path d="M309.49 261.18c.69-1.4.68-4.77.68-4.77s.39 4 1.38 5.52" fill="#fff" stroke="#3f863f" stroke-width=".61"/><path d="M310.09 255.17c0 1.85-.6 6-1.29 6.54" fill="#fff" stroke="#fff" stroke-width=".61"/><path d="M330.28 266.09a11.2 11.2 0 01-.6-3.47 12.69 12.69 0 01-.88 4.07" fill="#fff" stroke="#3f863f" stroke-width=".44"/><path d="M329.71 261.74c0 1.34.57 4.35 1.09 4.73" fill="#fff" stroke="#fff" stroke-width=".44"/><path d="M345.88 267.35a14 14 0 01-.75-4.27s-.23 3.63-1.08 5" fill="#fff" stroke="#3f863f" stroke-width=".55"/><path d="M345.17 262c0 1.66.71 5.37 1.35 5.85" fill="#fff" stroke="#fff" stroke-width=".55"/><path d="M317 260.47c-.73-1.37-.83-4.73-.83-4.73s-.26 4-1.19 5.55" fill="#fff" stroke="#3f863f" stroke-width=".61"/><path d="M316.17 254.51c.05 1.85.79 6 1.5 6.5" fill="#fff" stroke="#fff" stroke-width=".61"/><path d="M302.87 259.58c-.74-1.38-.84-4.74-.84-4.74s-.26 4-1.2 5.56" fill="#fff" stroke="#3f863f" stroke-width=".61"/><path d="M302.06 253.61c.06 1.84.81 6 1.51 6.49" fill="#fff" stroke="#fff" stroke-width=".61"/><path d="M324.27 260.2a11.26 11.26 0 01-.61-3.46 12.59 12.59 0 01-.88 4.06" fill="#fff" stroke="#3f863f" stroke-width=".44"/><path d="M335.51 262.71a12.33 12.33 0 00.56-3.86s.31 3.24 1.11 4.47" fill="#fff" stroke="#3f863f" stroke-width=".49"/><path d="M336 257.86c0 1.49-.49 4.85-1.05 5.29" fill="#fff" stroke="#fff" stroke-width=".49"/><path d="M340.26 265.76c-.74-1.37-.84-4.74-.84-4.74s-.25 4-1.2 5.56" fill="#fff" stroke="#3f863f" stroke-width=".61"/><path d="M339.47 259.8c0 1.84.79 6 1.5 6.48" fill="#fff" stroke="#fff" stroke-width=".61"/><path d="M338.36 258.76a13.43 13.43 0 00.63-4.27s.33 3.62 1.24 5" fill="#fff" stroke="#3f863f" stroke-width=".61"/><path d="M349.49 279.23a13.74 13.74 0 00.62-4.29s.34 3.61 1.24 5" fill="#fff" stroke="#3f863f" stroke-width=".55"/><path d="M350 273.82c0 1.67-.55 5.41-1.16 5.89" fill="#fff" stroke="#fff" stroke-width=".55"/><path d="M328.23 260c.68-1.4.68-4.76.68-4.76s.38 4 1.37 5.53" fill="#fff" stroke="#3f863f" stroke-width=".61"/><path d="M328.82 254c0 1.86-.6 6-1.29 6.56" fill="#fff" stroke="#fff" stroke-width=".61"/><path d="M326.29 281.1a12.54 12.54 0 00.55-3.86s.32 3.24 1.12 4.48" fill="#fff" stroke="#3f863f" stroke-width=".49"/><path d="M326.78 276.24c0 1.49-.48 4.85-1 5.29" fill="#fff" stroke="#fff" stroke-width=".49"/><path d="M342.74 258.47a11.09 11.09 0 00.5-3.46 12.35 12.35 0 001 4" fill="#fff" stroke="#3f863f" stroke-width=".44"/><path d="M334.18 258.21a12.33 12.33 0 01-.67-3.84s-.2 3.26-1 4.51" fill="#fff" stroke="#3f863f" stroke-width=".49"/><path d="M333.54 253.37c0 1.51.64 4.85 1.22 5.29" fill="#fff" stroke="#fff" stroke-width=".49"/><path d="M347.83 263.49a12.3 12.3 0 00.56-3.86s.31 3.27 1.11 4.47" fill="#fff" stroke="#3f863f" stroke-width=".49"/><path d="M348.31 258.65c0 1.5-.48 4.85-1 5.3" fill="#fff" stroke="#fff" stroke-width=".49"/><path d="M348.4 257.5a14 14 0 01-.76-4.28s-.23 3.63-1.08 5" fill="#fff" stroke="#3f863f" stroke-width=".55"/><path d="M347.69 252.11c0 1.67.71 5.37 1.35 5.85" fill="#fff" stroke="#fff" stroke-width=".55"/><path d="M354.46 260.53c.7-1.4.69-4.76.69-4.76s.39 4 1.38 5.52" fill="#fff" stroke="#3f863f" stroke-width=".61"/><path d="M355.07 254.53c0 1.87-.61 6-1.29 6.56" fill="#fff" stroke="#fff" stroke-width=".61"/><path d="M360.54 273.94c-.73-1.36-.84-4.73-.84-4.73s-.25 4-1.2 5.56" fill="#fff" stroke="#3f863f" stroke-width=".61"/><path d="M359.74 268c.05 1.87.8 6 1.5 6.49" fill="#fff" stroke="#fff" stroke-width=".61"/><path d="M354.79 277.26a13.91 13.91 0 00.62-4.27s.34 3.62 1.24 5" fill="#fff" stroke="#3f863f" stroke-width=".55"/><path d="M355.33 271.87c0 1.67-.54 5.39-1.17 5.89" fill="#fff" stroke="#fff" stroke-width=".55"/><path d="M355 267.77a14.07 14.07 0 00.61-4.3s.35 3.62 1.24 5" fill="#fff" stroke="#3f863f" stroke-width=".55"/><path d="M355.51 262.36c0 1.67-.55 5.41-1.18 5.91" fill="#fff" stroke="#fff" stroke-width=".55"/><path d="M362.33 257.11a13.41 13.41 0 01-.75-4.27s-.22 3.62-1.08 5" fill="#fff" stroke="#228b22" stroke-width=".55"/><path d="M361.62 251.73c0 1.68.71 5.38 1.35 5.86" fill="#fff" stroke="#fff" stroke-width=".55"/><path d="M359.47 265.8c.7-1.4.69-4.76.69-4.76s.38 4 1.38 5.52" fill="#fff" stroke="#3f863f" stroke-width=".61"/><path d="M360.08 259.81c0 1.84-.61 6-1.29 6.54" fill="#fff" stroke="#fff" stroke-width=".61"/><path d="M363.81 271.92a12.25 12.25 0 00.56-3.85s.3 3.25 1.12 4.47" fill="#fff" stroke="#3f863f" stroke-width=".49"/><path d="M364.31 267.07c0 1.51-.49 4.85-1.05 5.3" fill="#fff" stroke="#fff" stroke-width=".49"/><path d="M365.35 264.53a12.26 12.26 0 01-.68-3.85s-.2 3.26-1 4.5" fill="#fff" stroke="#3f863f" stroke-width=".49"/><path d="M364.7 259.68c0 1.51.64 4.85 1.21 5.27" fill="#fff" stroke="#fff" stroke-width=".49"/><path d="M367 256.57c.69-1.42.69-4.77.69-4.77s.37 4 1.36 5.52" fill="#fff" stroke="#228b22" stroke-width=".61"/><path d="M367.56 250.55c0 1.87-.6 6-1.29 6.56" fill="#fff" stroke="#fff" stroke-width=".61"/><path d="M372.9 264a13.53 13.53 0 00.63-4.29s.34 3.61 1.24 5" fill="#fff" stroke="#3f863f" stroke-width=".55"/><path d="M373.45 258.56c0 1.67-.54 5.39-1.15 5.89" fill="#fff" stroke="#fff" stroke-width=".55"/><path d="M369.19 265.11a13.71 13.71 0 01-.75-4.27s-.24 3.63-1.08 5" fill="#fff" stroke="#3f863f" stroke-width=".55"/><path d="M368.47 259.74c0 1.67.72 5.37 1.36 5.85" fill="#fff" stroke="#fff" stroke-width=".55"/><path d="M368.2 246.62c-.73-1.37-.84-4.73-.84-4.73s-.25 4-1.2 5.55" fill="#fff" stroke="#3f863f" stroke-width=".61"/><path d="M367.4 240.66c.05 1.84.8 6 1.5 6.49" fill="#fff" stroke="#fff" stroke-width=".61"/><path d="M371.75 256.45c.69-1.39.69-4.77.69-4.77s.38 4 1.37 5.54" fill="#fff" stroke="#3f863f" stroke-width=".61"/><path d="M372.35 250.45c0 1.85-.61 6-1.29 6.54" fill="#fff" stroke="#fff" stroke-width=".61"/><path d="M382.67 254.85a13.68 13.68 0 00.62-4.28s.34 3.61 1.24 5" fill="#fff" stroke="#3f863f" stroke-width=".55"/><path d="M383.21 249.45c0 1.67-.54 5.4-1.16 5.9" fill="#fff" stroke="#fff" stroke-width=".55"/><path d="M378.63 253.48a13.71 13.71 0 01-.75-4.27s-.22 3.62-1.08 5" fill="#fff" stroke="#3f863f" stroke-width=".55"/><path d="M377.91 248.1c0 1.68.72 5.38 1.35 5.86" fill="#fff" stroke="#fff" stroke-width=".55"/><path d="M378.86 260.62a11.26 11.26 0 01-.61-3.46 12.69 12.69 0 01-.88 4.07" fill="#fff" stroke="#3f863f" stroke-width=".44"/><path d="M378.28 256.26c0 1.36.58 4.36 1.09 4.75" fill="#fff" stroke="#fff" stroke-width=".44"/><path d="M371.54 246c.68-1.39.68-4.78.68-4.78s.38 4 1.38 5.53" fill="#fff" stroke="#3f863f" stroke-width=".61"/><path d="M372.14 240c0 1.85-.6 6-1.29 6.54" fill="#fff" stroke="#fff" stroke-width=".61"/><path d="M375.77 244.8c.69-1.39.68-4.75.68-4.75s.39 4 1.38 5.51" fill="#fff" stroke="#3f863f" stroke-width=".61"/><path d="M376.37 238.81c0 1.84-.6 6-1.29 6.54" fill="#fff" stroke="#fff" stroke-width=".61"/><path d="M382 247.21a13.56 13.56 0 01-.76-4.28s-.23 3.64-1.08 5" fill="#fff" stroke="#3f863f" stroke-width=".55"/><path d="M381.26 241.85c0 1.66.72 5.37 1.35 5.84" fill="#fff" stroke="#fff" stroke-width=".55"/><path d="M386.44 245a13.81 13.81 0 01-.76-4.27s-.22 3.62-1.07 5" fill="#fff" stroke="#3f863f" stroke-width=".55"/><path d="M385.72 239.66c0 1.68.72 5.37 1.35 5.85" fill="#fff" stroke="#fff" stroke-width=".55"/><path d="M388.86 246.06a13.68 13.68 0 00.62-4.28s.35 3.6 1.24 5" fill="#fff" stroke="#3f863f" stroke-width=".55"/><path d="M389.41 240.66c0 1.67-.55 5.4-1.17 5.91" fill="#fff" stroke="#fff" stroke-width=".55"/><path d="M393.79 244.49a12.22 12.22 0 01-.69-3.83s-.2 3.25-1 4.5" fill="#fff" stroke="#3f863f" stroke-width=".49"/><path d="M393.14 239.65c0 1.51.65 4.84 1.21 5.28" fill="#fff" stroke="#fff" stroke-width=".49"/><path d="M220.37 262.58c.7-1.41.7-4.77.7-4.77s.38 4 1.36 5.52" fill="#fff" stroke="#3f863f" stroke-width=".61"/><path d="M221 256.57c0 1.86-.61 6-1.3 6.57" fill="#fff" stroke="#fff" stroke-width=".61"/><path d="M215.48 261.64c-.74-1.35-.83-4.74-.83-4.74s-.26 4-1.21 5.57" fill="#fff" stroke="#3f863f" stroke-width=".61"/><path d="M214.68 255.68c0 1.86.8 6 1.5 6.5" fill="#fff" stroke="#fff" stroke-width=".61"/><path d="M211.75 258.76a12.79 12.79 0 01-.68-3.83s-.2 3.25-1 4.48" fill="#fff" stroke="#3f863f" stroke-width=".49"/><path d="M211.12 253.93c0 1.49.63 4.84 1.21 5.26" fill="#fff" stroke="#fff" stroke-width=".49"/><path d="M206 256c.68-1.38.68-4.75.68-4.75s.38 4 1.37 5.52" fill="#fff" stroke="#3f863f" stroke-width=".61"/><path d="M206.6 250c0 1.85-.6 6-1.29 6.54" fill="#fff" stroke="#fff" stroke-width=".61"/><path d="M197.44 245.07c.68-1.39.67-4.75.67-4.75s.38 4 1.38 5.53" fill="#fff" stroke="#3f863f" stroke-width=".61"/><path d="M198 239.08c0 1.85-.6 6-1.3 6.54" fill="#fff" stroke="#fff" stroke-width=".61"/><path d="M195.24 240.68a11 11 0 01-.62-3.45s-.18 2.93-.87 4" fill="#fff" stroke="#3f863f" stroke-width=".44"/><path d="M194.66 236.32c0 1.36.58 4.36 1.1 4.75" fill="#fff" stroke="#fff" stroke-width=".44"/><path d="M211.06 216.24a23 23 0 001.24 10.51 33.17 33.17 0 00-13.62-7.09c-2.84-2.75-5.78-12.78-4.72-16.37 5.4-.33 16 8.59 17.1 13zM221.29 236.92c-4.91-3.21-9.42-4.15-20.39-3.87 1.67 6.15 18.39 13.5 21.17 13-.23-1.06-1.06-8.15-.78-9.12z" fill="#3f863f" stroke="#000" stroke-width=".61"/><path d="M221.24 236.75c-14.22-6.31-10.41-26.8-7.89-29.19 7 3.87 7.62 12.95 8.5 15.36a95.78 95.78 0 00-.61 13.83z" fill="#3f863f" stroke="#000" stroke-width=".61"/><path d="M218.68 235.34a16.06 16.06 0 01-6.33-8.47 29.85 29.85 0 00-18.89-7.9c.15 6.69 5.72 12.9 9 14.08 5.35 0 10.87-.27 16.22 2.31v0zM276.61 265.35c-2.34 2.59-10.32 10.75-24.25 4.64a7.16 7.16 0 015.08-2.85 21.31 21.31 0 0013.94-4.14 50 50 0 005.23 2.35z" fill="#3f863f" stroke="#000" stroke-width=".61"/><path d="M276.23 256.79c-4.13-2.75-8.47-2.41-12.71-3.7-.46 8.38 12.77 11.69 13.92 12.65a14.84 14.84 0 016.53-1.27c-1.56-1.19-6-3.42-7.74-7.68z" fill="#3f863f" stroke="#000" stroke-width=".61"/><path d="M302.8 265.26c1.8-.05 7.25-1.33 8.81-.11s4.68 4.81 2.22 7.28-4.68-1-5.68-1.58-4.23-3.91-17.39-1.36c-5.74 1.12-5.75 4.84-12.33 6.17-4.8 1-5.41.06-10.92-.12 2.29-2.8 4.13-4.48 6.25-7.38s8.31-3.8 10.2-3.7c-2.85-1.95-9.47-4.87-9.51-16.41 4.34 1 9.53 2.06 15.75 14.28-2.39-5.14-6.73-10.48-8.63-11.32-.43-.18.23-7.55 1-8.79 4.67 5 5.34 5.08 7.69 7.41 3.39 3.36 2.77 8.28 4.56 11.08a10.35 10.35 0 008 4.55z" fill="#3f863f" stroke="#000" stroke-width=".61"/><path d="M271.37 263c-1.84 1.51-10.21 6.67-20 2.74 5.41-6.84 8.8-6.95 14.61-6.6a18.39 18.39 0 005.4 3.86zM222.06 246c-.61-.35-8 .62-9.08 2.24.34 2.91 8.3 7.34 10.53 6.73-.39-2.46-1.51-7.89-1.45-9z" fill="#3f863f" stroke="#000" stroke-width=".61"/><path d="M312.43 268c.78 1.11.42 3.73-1.62 2.5m.24.08c1.5.22 1.72-1.4 1.5-2.35" fill="none" stroke="#000" stroke-width=".61"/><path d="M312.55 267.33c2.39 4.55-1.23 4.49-2.29 2.77" fill="none" stroke="#3f863f" stroke-width=".61"/><path d="M284.94 248.76c.67 2.26 4.93 7.22 5.82 10.38m-12.56-5.87a43 43 0 007.85 8.59m-17.74-4.75c.67.67 5.61 4.73 10.33 6.09m-11.9-1.12c-2-.25-7.64 0-10.79 2.48m14.15 2c-1.8.45-8.53 1.14-12.13 2.94m27.62-2c-5.38.44-7.87 5-12.35 5.86M214 213.28c0 2 .44 12.64 3.59 15.58m-21.3-21.66c1.34 5.17 9.41 9.24 10.09 12.41m10.52 30c1.35-.44 3.81-.67 5.39.68m-16.14-14.91c2 0 11.89 2.27 14.8 6.56m-23.79-19.19c2.48.89 11.23 6.09 13.24 10.17" fill="none" stroke="#000" stroke-width=".54"/><path d="M182.09 208.43c1.84.56 7 .52 8.69-3 .49-1 .45-3 2-5s3.93-2.39 4.31-4.87c.67-4.48-4.35-3.88-5.34-6.39-.85-2.12.22-2.74 2.45-3.25 1.45-.32 6 1.4 15.7 5.39 7.14 2.91 13.6 1.13 15.78-.33 2.47-1.65 4.74-6.38 9-10.18.72-.65 10.26-3.81 13.61-9.64a15.82 15.82 0 00-4.89-19.49c-8.68-6.5-20.94-10.76-26.06-13s-12.78-3.53-13.64-10c-.39-2.86 2.06-4 4.08-3.94 2.66.13 6.16 1.12 8.28 1.32 1.56.17 6.87.83 7.7-4.15a6.12 6.12 0 01-.89-1.22c-.17.88-.62 2.72-4.18 2.5-4.27-.27-8.64-3.06-12-3-4 0-6.77 2.15-10.78 3.27s-8.57.78-10.7 4.69c-1.35 2.47-2.46 11.21 4 17.48s10.06 9.29 25.17 15c11.09 4.21 13.83 6.51 15.18 8.09s1.27 3.08.75 3.69c-.67.78-4.07 1.51-12.65-2.19a43.62 43.62 0 00-17.48-3.82c-3.57 0-13.44 1.79-15.16 5.26-2 4-.46 4.92-.07 10.92.1 1.69-.37 4 .55 6.11a8.44 8.44 0 003.44 3.79c3.51 1.51 2.17 3.26 1.05 4.6s-2.67 3.87-2.29 6c.57 3.18-5.64 5.4-5.64 5.4zM292.42 55.58c-3.86 1.47-4.58.89-5.91 2-2.18 1.74-4 3.64-4.47 2.86-.66-1.07 5.71-2.18 7-6.21 1.06-3.26-.39-3.87-1.16-9.2-1.2-8.23-5.18-9.64-8.08-8.75s-10.68 4.72-23.38 9.13c-8.94 3.11-23.35 4.66-25.87 9.17-1 1.81-4 9.22 6.23 16.59 2.34 1.69 3.06 2.14 9 4.09A67.26 67.26 0 00225.67 74c-21.21 1.47-43.56 21.14-40.86 36.76.66 3.85 5.62 2.3 9.64 3s4.61 2.58 7.51 2.11 3.4-4.83 6.3-5.28 2.68 2.48 5.79 2.47 5.7-5.26 7.94-5a5.86 5.86 0 00-2.13-.49c-2 1.57-4.51 2.18-6.07 1.27s-2-2.29-4.33-2.28c-1.34 0-2.68.71-5.46 2.73 2.33-2.85 12.34-18.07 33.67-13.65 9.74 2 10.92-1 11.37-2.63s-.45-4.13 0-8.33c.37-3.41 2.47-5.83 1.79-8.08s-1.81-3.39-5.56-4.63c-1.67-.57-1.51-1.37-.79-2s3.07-.75 4.74-1c2.94-.48 17.51-4.07 27.27-10.22 5.05-3.18 7.92-6.57 8.15-4.57.15 1.39-7.31 2.38-7.1 5.69.09 1.41.2 3.61 4.3 3.92 3 .23 4.76-1.87 6.79-3.63 2.44-2.14 3.39-2.77 3.79-4.5z" fill="#fff" stroke="#000" stroke-width=".49"/><path d="M216.5 140.77c-10.83-4.53-19.14-8.94-13.55-17.34-6.43 3.22-17.24 1.07-16.6 9.49 2.11 27.6 52.41 22.26 47.94 44.83 11.41-1.59 21.77-18.89 2.69-27.76-7.09-3.3-14-6.48-20.48-9.22zM246.41 78c1.94.48-.15 3.89-.71 7.17-.37 2.14 1.56 6.47-.19 7.45-6 3.3-30.67-9.61-44.69 18.33-1.61 3.2-4.55 0-7.12-.23-4.48-.44-7.84.43-6.61-3.26C197.64 75.55 231 74.24 246.41 78zm26.32-36.42c4-1.71 7.29-3.08 9.38-2.45 4.19 1.27 3.12 9.87 4.63 11.87-2.49-.84-6.53 1.88-11.08 4.88A67.34 67.34 0 01264.17 62a76.53 76.53 0 01-11.35 3.33c-7 1.48-13.41 2.52-11.67 5.54-2.67-1-11.14-6.64-8.72-13.09 1.34-3.59 6.18-5.17 11.82-6.61a140.23 140.23 0 0015.75-4.5c5.17-2 8.72-3.35 12.74-5.08zm-82.47 128.74c19.18-7.15 28.69 7.15 41.62 4.94.22 5.81-4.75 16.1-14.79 15.41-7-.45-23.83-13.11-29.34-2.83-.21-7.38-4.33-15 2.51-17.52z" fill="#be0a2f" stroke="#000" stroke-width=".49"/><path d="M194.28 174.12a1.31 1.31 0 00-1.33-.53 1.22 1.22 0 00-1.12 1.27c.09.58.72.82 1.23.94l.58.13c1.14.26 2 .75 2.23 2a2.43 2.43 0 01-4.76.94l.93-.34a1.46 1.46 0 102.88-.46c-.11-.82-.83-1.08-1.52-1.26l-.56-.15c-.92-.25-1.78-.63-1.94-1.7a2.1 2.1 0 011.95-2.3 2.2 2.2 0 012.13.88l-.7.55M200.9 180.31l-1-.08.53-6.85-1.83-.14.07-.87 4.61.35-.07.88-1.82-.13-.53 6.84M205.87 179.21l-1.5 1.49-1-.37 6.27-6.22.61 8.84-1-.37-.14-2.12zm3.07-3.13l-2.38 2.45 2.56 1-.18-3.41M214.21 184.39l-.91-.3 2.15-6.49-1.74-.58.29-.83 4.37 1.46-.28.82-1.72-.57-2.14 6.48M220.48 178.29l4.11.5-.11.88-3.14-.4-.27 2.15 3.06.38-.11.88-3.06-.39-.35 2.9 3.15.39-.1.88-4.1-.5.93-7.67M238.15 168.39a1.11 1.11 0 00-.34 1.18 1 1 0 001.17.84c.51-.13.63-.69.69-1.12l.06-.51c.12-1 .45-1.8 1.5-2.06a2 2 0 012.51 1.53 2.05 2.05 0 01-1.29 2.42l-.37-.77a1.24 1.24 0 10-.64-2.39c-.69.18-.84.8-.93 1.41l-.07.48c-.13.81-.38 1.58-1.26 1.8a1.79 1.79 0 01-2.12-1.46 1.88 1.88 0 01.54-1.89l.55.54M235.48 159.61a3.39 3.39 0 014.77.87 3.43 3.43 0 11-5.61 3.94 3.49 3.49 0 01.84-4.81zm.47.67a2.62 2.62 0 00-.68 3.69 2.58 2.58 0 003.67.63 2.63 2.63 0 10-3-4.32M233.1 155.75l-4.5 2.68-.71-.54 6.46-3.77-1.94 7.25-.71-.55 1.4-5.07M226.79 157.32l-3.08-1.73.36-.64 2.36 1.32.9-1.62-2.3-1.28.36-.66 2.3 1.28 1.2-2.18-2.36-1.31.36-.66 3.08 1.72-3.18 5.76M220.93 147.05l.91.4.62 3.35.32.13 1.13-2.54.75.34-2.69 6-.9-.41a3.36 3.36 0 01-1.45-1 1.86 1.86 0 012-2.82zm1.56 4.51l-.24-.12c-.76-.34-1.65-.57-2.08.39s.41 1.47 1.15 1.8l.2.09 1-2.16M216.87 152.52l-3.26-1.35.28-.69 2.51 1 .69-1.7-2.42-1 .28-.7 2.43 1 .94-2.29-2.5-1 .28-.7 3.26 1.36-2.49 6.09M213.47 144l.76.31-2.51 6.08-.76-.3 2.51-6.09M204.58 143.69l.11-.24a3 3 0 014.15-1.63 3.43 3.43 0 11-4.81 4l.74-.27a2.59 2.59 0 004.93.48 2.7 2.7 0 00-1.22-3.51 2.19 2.19 0 00-2.75.89l1.53.71-.3.68-2.38-1.07M200.66 145.67l-1.15-7.08-2.74 4-.68-.47 3.87-5.66 1.15 7.08 2.77-4.06.67.46-3.89 5.7M197.63 134l.5.65-4.61 3.58 1 1.24-.6.46-2.41-3.14.6-.45 1 1.24 4.61-3.58M190.26 134.76l-.34-.88 2-2.54-3.2-.48-.35-.88 4.24.65 2.66-1 .3.76-2.66 1-2.67 3.38M190.36 104.8l7.42-1.15-4.18-2.93.49-.7 5.9 4.13-7.42 1.14 4.21 3-.49.71-5.93-4.16M201.05 100l.65 1.79-.66.65-2.69-7.44 7.39 2.83-.66.64-1.77-.68zm-1.38-3.66l1.08 2.85 1.75-1.73-2.83-1.12M208.39 95.83l-.68.54-3.71-4.89-1.3 1-.47-.63 3.29-2.5.48.65-1.3 1 3.69 4.87M212.39 93.16l-.74.44-3.58-5.91.73-.45 3.59 5.92M219.73 85.85a3.61 3.61 0 01-1.94 4.74 3.55 3.55 0 01-4.71-1.93 3.61 3.61 0 016.65-2.81zm-.79.34a2.71 2.71 0 00-3.62-1.51 2.8 2.8 0 002.16 5.16 2.78 2.78 0 001.46-3.65M221.88 81.31l6.12 4.43-.92-5 .85-.15 1.29 7.09-6.07-4.43.85 5.05-.85.16-1.3-7.15M232.82 85.48l-.82 1.71h-.92l3.44-7.19 3.14 7.31h-.92l-.74-1.77-3.17-.06zm1.66-3.57l-1.29 2.79h2.46l-1.17-2.83M240.75 87.07l2.07.35-.14.79-2.92-.51 1.18-6.84.85.14-1 6.07M238.72 57l1 4.32c.27 1.19.89 2.22 2.29 1.89s1.5-1.51 1.22-2.71l-1-4.31.9-.22 1.08 4.62a2.75 2.75 0 11-5.34 1.26l-1.06-4.63.91-.2M246.72 54.77l6.95 4.23-1.45-5.35.9-.24 2 7.53-7-4.23 1.46 5.41-.9.25-2-7.59M259.94 59.09l-.89.3-2.3-7.14.88-.29 2.31 7.13M269.26 50.6a3.88 3.88 0 01-1.53 5.31 3.83 3.83 0 01-5.3-1.51 3.91 3.91 0 016.83-3.8zm-.81.45a3 3 0 10-5.22 2.89 3 3 0 004.07 1.21 3 3 0 001.15-4.1M270.41 45.28l7.66 2.72-2.5-4.94.82-.42 3.52 6.95-7.66-2.7 2.53 5-.83.43-3.54-7"/><path d="M225.44 165.49c8 4 6.22 10.87 6.33 12.12" fill="none" stroke="#000" stroke-width=".64"/><path d="M307 179.47c3.26 3.28 4.27 8.93 4.36 10.27.12 2.11.44 6.28-2.68 6.72a9.44 9.44 0 01-6.52-1.18 3.21 3.21 0 00-1.42-2.33c-1-.3-1.19-.52-2.09 0a3.85 3.85 0 01-2.95-.87c-2-2.62-2.26-11.68-8.17-16.71-3.56-3-4.4-4.14-14.7-8.73-20.64-9.22-33.49-33.4-34.79-35.21-1.68-2.3-4.61-5.3-6.63-5.82-9.42-2.48-9.53-6.84-9.81-9.42 2.34 3.87 11.59 7 11.14 4.93-.31-1.43-1.53-3.71-5.34-6.27-3.34-2.26-3.56-6-4.9-6.61a7.68 7.68 0 00-5.46-.57c4.24-9 14.72-3.23 14.72-3.23 2.67 2.68 5.19 5.54 6.79 6.73 1.79 1.3 2.82 3.15 10.59 5 10.46 1.68 17.88 3.44 20.67 4.05.85-1.6 1.07-13.22-.71-15.9s-4.23-4.49-5.56-10.32a102.5 102.5 0 00-5.34-16.58C256 72.09 260 67.6 267.13 67c19.08-1.8 28.85 10.44 30.64 11.54" fill="#785a3c" stroke="#000" stroke-width=".64"/><path d="M306.89 180.44l24.51-19.5-28.76-20.18 4.25 39.68z" fill="#785a3c"/><path d="M330.74 160.58c11.05 12.5 21.63 37.35 22.06 40.62-.12 4.47-2.73 2.52-4.07 1.51-.05 2.07-3 2.06-4.4.27-.67 2.7-3.8 1.86-5.58-.44.57 2.35-3.5 2.51-5.12 0 .44 1.64-2.63.95-3.56-.45 0 .9.16 2.3-2.45.45-2.89-4.26-21.54-24-20.62-23.05" fill="#d2b78c" stroke="#000" stroke-width=".64"/><path d="M311.72 177.52s6.56 6.94 7.46 8 2.47 3.56 1 4.73c-1.68 1.35-4.82-1.58-5.16-1.91-.57-.58-10.94-12-10.94-12s13.12 15.47 15.59 13.55-7.73-12.13-7.95-12.36"/><path d="M330.06 202.1c0-3.24-8.31-13.8-10.33-15.94m13.9 16.38c-.77-5.76-8.11-16.09-10.18-18.69m15.3 18.7c-.62-4-6.61-16.33-9.53-19.93M344.33 203c-.42-2.72-8-18.34-11.28-22.18m15.8 21.91c.3-4-4.36-13.84-15.46-29.46" fill="none" stroke="#000" stroke-width=".68"/><path d="M330.81 201.54c0-3.26-8.35-13.87-10.39-16m14 16.46c-.78-5.79-8.16-16.18-10.24-18.8m15.37 18.8c-.62-4-6.65-16.41-9.57-20.05m15.18 20.5c-.41-2.74-8-18.45-11.35-22.3m15.9 22c.29-4-4.39-13.91-15.55-29.63" fill="none" stroke="#fff" stroke-width=".69"/><path d="M327.23 164.73c.3.38 9.47 13 10.87 15.35 1.12 1.85 1.29 3.88.17 4.57s-2.69-1-3.87-2.2-11-15-11.95-16.08 9 12.13 10.21 13.93c.8 1.25 1.33 2.87.67 3.67-.78 1-2.8.17-3.48-.61s-7.74-9.55-7.85-9.76 6.17 7.49 6.9 8.63a3.09 3.09 0 01-.56 4.29c-.65.44-2-.33-3.57-1.66-3.41-2.88-7.14-8.34-8.88-9.81 1.91 1.71 4.77 5.54 6.62 7.62s2.19 4 .95 4.75-2.75-.29-3.93-1.58-6.95-7.34-7.74-8.25 6.76 7.21 7.46 8" fill="none" stroke="#000" stroke-width=".68"/><path d="M238.36 130.46l4.5 7.54 3.34 5v-6.2l5.34 1-1.5-6.36 6.5.84-3-4.69 5.34 1-3.17-5.36 6 1.51-4.33-5.19 7.34.34-9.84-2-6.34-1-10.17 13.56z" fill="#d2b78c"/><path d="M224 118.56c-.5-1 .17-.51-.89-2 3.17 1.74 5.07-.61 7.91 1.41.72.83 2.06 2.85 1.62 3.46-.71 1.22-6.33-1.02-8.64-2.87z" fill="#be0a2f" stroke="#000" stroke-width=".61"/><path d="M238.07 131.5c-1.67-2.3-4.61-5.29-6.63-5.82-9.41-2.48-9.53-6.84-9.8-9.42 2.34 3.87 11.59 7 11.14 4.93-.32-1.43-1.53-3.71-5.35-6.27-3.33-2.26-3.56-6-4.89-6.61a7.68 7.68 0 00-5.46-.57c4.24-9 14.72-3.23 14.72-3.23 2.67 2.68 5.18 5.54 6.79 6.73 1.79 1.3 2.82 3.15 10.59 5" fill="#fff" stroke="#000" stroke-width=".64"/><path d="M232 105.14s-1 5 .9 8.28 2.59 5.59 2.67 7.22c.17 3.27-1.58 5.32-3.6 4.8-9.42-2.48-9.31-5.86-10.13-9 2.24 4.41 10.78 7 11.47 5.26.36-.9-1.53-4.15-5.35-6.7-3.33-2.26-3.23-4.75-4.46-6.39-1.34-1.11-3-1.57-5.68-1.44 5-7.89 14.18-2 14.18-2z" fill="#ffb316"/><path d="M231.73 104.44c10.59-3.35 14.48 9.31 22.62 9.32-1.9 1.78-6 1.78-10.26.89s-12.36-10.21-12.36-10.21z" fill="#fff" stroke="#000" stroke-width=".64"/><path d="M237.07 114.54c1.66 1.34 6.24-.11 6.24-.11a26.88 26.88 0 01-7.23-5.49c-1.35 3.47.01 4.8.99 5.6z" fill="#fff" stroke="#000" stroke-width=".49"/><path d="M238 113.17c.85.7 3.19 0 3.19 0a13.72 13.72 0 01-3.7-2.81c-1.09 1.14 0 2.46.51 2.88"/><path d="M273.91 167.15c-2.56.42-3 13.21 2.21 16.53.23-1 1.68-.94 3 .55.44.55.43 1.74.16 1.9.69 1.92 2.45 2.65 4.95 2.81a7.7 7.7 0 007.75-7.17 17.38 17.38 0 00-5.57-7.32 49 49 0 00-12.47-7.3z" fill="#785a3c" stroke="#000" stroke-width=".64"/><path d="M279.47 185.48c0 1.57-3.57 2.46-1.12 5.16s2.23 2.46 3.79 3.13 4.68-.22 4.23 2.47-4.13 1.91-5.35-.12c-.59-1-2.23-2.91-4.46-2.35-1.93.49-2.23.89-3.13 2.92s-1.57 3.34-3.35 2.23-.66-2.25.45-3.36 1.78-1.56 1.56-2.69-2.67-1.34-4.45-.9-3.12-1.56-2.23-2.69 3.57-.88 4.69 0 3.78 2 4.9 1.57.89-5.6 1.11-7.16 3.36-.13 3.36 1.79zM302 194.52c1 2.55-3.07 5.59-.62 8.28s5 1.76 6.68 1.57c1-.1 4.69-.21 4.24 2.47-.35 2.13-4.33 1.31-7.8 0-1.05-.39-3.46-1.33-5.24-.45s-2.06 1.74-2.45 4.26c-.34 2.18-2.07 3.24-3.85 2.11s-1.11-2.23 0-3.36a5.1 5.1 0 001.29-4.14c-.23-1.12-2.68-1.34-4.46-.9s-3.12-1.56-2.22-2.69 3.56-.89 4.67 0 3.8 2 4.91 1.57 1.29-8.71 1.51-10.28c.95-.63 2.68-.23 3.34 1.56z" fill="#ffb30f" stroke="#000" stroke-width=".64"/><path d="M281.3 174.06c1.46.57 4.49 3.72 5.16 6.43M280.73 178.81a10.74 10.74 0 012.92 4.5M275.69 177c.22 1 0 1.93 1.45 3.38M297.18 187.55c.1 2.37 3.53 2.94 3.75 4.12M294.65 180.68a4.57 4.57 0 014.55 3.32 7.72 7.72 0 00-4.55-3.27M308 194c-1.88-6.5-5.19-7.45-4.95-6.46 1.86 1.74 1.9 1.42 2.63 2.5 1.53 2.25 2 4.52 2.32 4M309.06 193c-.32-2.46-1.51-2.1-1.42-1.36a5.33 5.33 0 01.81 1.06c.14.32.34.67.61.3M312.28 206a2.32 2.32 0 012.28 3c-.83-1.84-2.23-1.52-2.67-1.24 0 0 .72-1 .39-1.72M287.42 201.9a2.35 2.35 0 00-2.56 2.73c1-1.76 2.37-1.29 2.78-1a2.09 2.09 0 01-.22-1.77M286.43 195.94a2.36 2.36 0 011.53 3.42c-.38-2-1.81-2-2.32-1.82 0 0 .94-.77.79-1.6M265.23 189.75a2.35 2.35 0 00-2.13 3.08c.74-1.89 2.15-1.64 2.61-1.37 0 0-.78-.9-.48-1.71M269.43 198.36a4.66 4.66 0 00-.37 3.18c1.25-2 1.66-2.09 2.16-2.23a3 3 0 01-1.79-.95M292.78 212.19a4.66 4.66 0 00-.37 3.18c1.24-2 1.66-2.08 2.15-2.22a3 3 0 01-1.78-1M292.14 174.17c-.23 1.07 1.45 1.13 1.57 2.48M284 172.54c5.25 2.21 6.09-2.4 5-3.1l-.17-.11c1.74.68 1.51 7.68-4.82 3.21M251.9 128.67c-2.2.94-3.55-2-2.74-3.82-2.9 2.16 1 6.12 3.32 4.88 2.88-1.52 1.59-6.06-1.72-4.55 2.18-.1 3.19 2.6 1.14 3.49"/><path d="M248.47 132.58c-1.54 1.28-2.89-.36-2.92-1.9-1.2 2.1 1.83 4.1 3.56 2.72 2-1.63.69-5.92-3-4 3.14 0 3.65 2.14 2.39 3.2M243.53 137.06c-2 .12-2.61-1.16-1.84-2.6-1.61 1.26-.37 3.73 1.87 3.64 2.72-.1 3.37-3 1.15-4.41 1.26 2 .9 3.25-1.18 3.37M259.61 128a1.78 1.78 0 01-1.16-2.67c-2.24 1.89.1 3.5 1.05 3.73 2.41.52 4.24-2.42 1.39-4.37 1.29 1.86.68 3.8-1.28 3.31M248.53 142.15c-.48 1.58-2.47.64-2.86-.7-.45 2.48 3 2.73 3.57 1 .7-2.13-1.08-3.41-2.75-2.08 1.5-.37 2.55.17 2 1.81M254 145.86c-.2 2-3.12 1.39-4-.1.13 3.07 4.8 2.45 5.06.23.33-2.72-3.58-4.84-5-.7 2.28-2.33 4.15-1.53 3.94.57"/><path d="M257.36 141.45c-.2 2-3.12 1.39-4-.09.12 3.06 4.79 2.46 5.06.24.32-2.73-3.58-4.84-5-.71 2.29-2.33 4.16-1.52 4 .56M265.83 129.88c-1.83-.82-.32-3.41 1.37-3.82-2.93-.84-3.84 3.8-1.82 4.74 2.47 1.17 5.7-1.87 2.24-4.51 1.48 2.91.12 4.45-1.79 3.59M271.91 125.38c-.2 2-2.41 1.35-2.9.41a2 2 0 003.94-.26c.32-2.72-3.58-4.84-5-.72 2.28-2.32 4.14-1.51 3.93.57M249.19 118.58c.79.4 1.06 2.6.5 3.17s-1.74 1.41-1.73.55a3.82 3.82 0 001.23-1.41 3 3 0 000-2.31M246.31 126.13c.77-.6.84-2.33-.1-3.45a2.6 2.6 0 00-3.34-.55c-.76.61-.61 2 .34 3.11s2.33 1.51 3.1.89"/><path d="M245.55 125.47a2 2 0 000-2.55 1.88 1.88 0 00-2.44-.27c-.55.44-.45 1.42.21 2.21s1.66 1 2.21.61" fill="#d2b78c"/><path d="M242.79 128c-1 1-2.28-.45-2.86-1.54.23 2.06 2 3.17 3.3 2.29 1.57-1.07 1.27-3.14-.95-4.37 1.61 1.74 1.69 2.56.51 3.62"/><path d="M240.69 131.43a2.19 2.19 0 000-3.12c-.95-1.09-2.68-1.51-3.44-.89s-.62 2 .33 3.13 2.34 1.49 3.1.88"/><path d="M239.94 130.76a1.54 1.54 0 00.13-2.2 2.16 2.16 0 00-2.55-.61c-.56.45-.46 1.42.21 2.22s1.65 1.05 2.21.59" fill="#d2b78c"/><path d="M254.2 123.56a1.31 1.31 0 01.52-2.55c-2.61-1-3 2-1.14 3.38 2.21 1.6 6.44-.22 3.6-2.83 1.33 2.61-1.08 2.85-3 2M257.07 128.22a1.69 1.69 0 00-1.25.35c-.76.59-.61 2 .34 3.1s2.35 1.52 3.11.91a2.19 2.19 0 000-3.12 3.43 3.43 0 00-2.2-1.24zm-.1.67a2.52 2.52 0 011.68.8 1.55 1.55 0 01-.13 2.22 1.74 1.74 0 01-2.21-.62c-.68-.77-.77-1.77-.22-2.2a1.27 1.27 0 01.91-.2z"/><path d="M254.48 131.59a2.23 2.23 0 00-1.32.45c-1.33 1.06 0 3.18.39 3.6 1.1 1.27 2.71 1.75 3.6 1s1-2.72-.13-4a3.15 3.15 0 00-2.54-1.11zm.35.67a2 2 0 011.46.69c.77.9 1.07 2.61.43 3.12s-2.24 0-3-.88-.88-2.05-.24-2.56a2 2 0 011.35-.37zM262.52 120.29a3.41 3.41 0 00-2.41 1.18c-.62 1 0 2.45 1.49 3.33 1.73 1 3.14.76 3.75-.17a3.14 3.14 0 00-1-4 3 3 0 00-1.8-.37zm.34.63a1.7 1.7 0 01.86.23c1 .63 1.49 2.38 1 3s-2.12.72-3.14.12-1.48-1.68-1-2.36a3 3 0 012.28-.99zM281.65 162c2.18-.56 3.87 1 3.53 2.94s-3.37 2.42-4.49 1.14c1.74.33 2.75.33 3.47-1s-.6-2.55-2.51-3.06M282.4 154.61c.69.64 1.33 2.13-.19 2.47s-2.65-.83-1.9-2.28c.32.83.38 1.85 1.52 1.72s.57-1.91.57-1.91"/><path d="M276.19 157c-.39-.44 2.26-2.13 3.93-.51s.32 4.14-1.36 4c.64-.57 1.87-1.49 1-2.93s-2.71-.89-3.6-.52"/><path d="M274.91 159.7c1.81-.77 6 2 2.92 4.77s-5.9-1.1-5.89-2.64c1.22 1.48 3.72 3.35 5.16 1.9s.49-2.8-2.19-4M281.79 135c.86-.27 2.58.24 2.41 1.76a2.06 2.06 0 01-2.63 2c-1.36-.38 1.74.23 1.68-2s-1.8-1.7-1.46-1.81M278.91 141.14c.4-1.27 3.95-3 5.25 0s-1 4.33-3.58 2.64c2 .69 4-.16 2.93-2.07-1.28-2.32-3.3-1.3-4.59-.59M272.39 138.71a2.13 2.13 0 00-1.94 1.54c-1 2.32 2.15 3.61 3.11 3.85s2.93.41 3.82-1.12c1.26-2.2-2.14-3.74-3.18-3.95a7.14 7.14 0 00-1.81-.32zm.76 1.1a6.37 6.37 0 01.83.13c1.78.29 3.18 1.45 2.31 2.48a3 3 0 01-2.94.8c-.48-.15-2.79-1.37-2-2.58a1.86 1.86 0 011.8-.83zM275.73 150.83a1.42 1.42 0 00-1.31 1c-.65 1.57 1.45 2.45 2.1 2.61a2.28 2.28 0 002.58-.75c.87-1.49-1.44-2.52-2.15-2.66a4.64 4.64 0 00-1.22-.2zm.27.74a2.8 2.8 0 01.81.08c1.2.2 2.15 1 1.56 1.68a2.08 2.08 0 01-2 .54c-.33-.11-1.9-.92-1.35-1.73a1.22 1.22 0 01.98-.57zM271.32 153.47c.42-.6 3-.3 3.65 1.41a3.11 3.11 0 01-3 4c1.8-1 2.31-2.6 2-3.45a3.21 3.21 0 00-2.65-1.91M266 157.25c1.68-.72 6.4 2.59 3.54 5.12s-5.45-1-5.45-2.43c1.06 2.05 3.5 3.13 4.77 1.76 1.57-1.7 0-3.51-2.86-4.45M277.55 146.05a2.13 2.13 0 00-1.94 1.55c-1 2.32 2.15 3.6 3.11 3.84s2.94.41 3.81-1.12c1.27-2.2-2.12-3.72-3.17-3.94a6.67 6.67 0 00-1.81-.33zm.76 1.09c.36 0 .66.09.84.12 1.78.31 3.17 1.45 2.3 2.49a3 3 0 01-2.95.8c-.47-.15-2.78-1.37-2-2.58a1.91 1.91 0 011.81-.83zM275.42 135.46c-.35 0-.72.26-1 1a2.25 2.25 0 001.53 2.64 1.42 1.42 0 001.9-.77c.63-1.5-1.06-2.56-1.57-2.69a2.6 2.6 0 00-.86-.18zm.42.87a1.08 1.08 0 01.43.07c.89.21 1.53.87 1.08 1.59a1.25 1.25 0 01-1.45.57c-.24-.11-1.39-1.09-.76-1.77a1.26 1.26 0 01.7-.46zM277.68 135.07c0-.46-.67-3.06 2-2.76s-2.07-1.25-2.69.17.73 3.49.67 2.59M279.43 130.4c.45-.7 1.46-2.34 4.21-.91 1.51.8-.11-1.63-2-1.58-2.48.08-3.1 3.78-2.25 2.49M272.79 144.49c.88-.38 3.54 2.27 1.85 4.07s-5.32-.33-4.87-3.67c.5 2.83 3 4.1 4 2.83s-.05-2.49-1-3.23"/><path d="M270.77 152.55c1.63-.15 1.9-2.8.61-3.71s-3.59-.79-3.81 1.51c.89-1.34 2.33-1.6 3.2-.79a2 2 0 010 3M264.37 156.11c1.55 1.24 4-.81 3.68-2.7s-2.46-3.75-4.6-1.94c1.92-.42 3.38.6 3.44 2a2.34 2.34 0 01-2.52 2.6M258.88 156.49c2.28.19 3-2.68 1.75-4.38s-4.79-1.7-4.87 1.27c1.15-2.64 3.17-1.8 4.12-.55s1.07 2.88-1 3.66"/><path d="M257.47 147.08c1.06-.5 4.32.35 3.59 2.88s-3.09.22-3.37-1.14c.56.69 2.41 2.26 2.64.84.32-1.94-1.29-2.41-2.86-2.58M262.5 146c1.12-.52 4.54.36 3.77 3s-3.25.24-3.54-1.18c.59.71 2.53 2.38 2.77.89.33-2.05-1.36-2.56-3-2.74M268.61 143.39c-.23 2.33-2.39 1.88-3.62 1 1.55 2.49 4.5 1.73 4.82-.85.37-3.15-3.07-5.35-5.75-1.94 3.52-1.57 4.79-.64 4.55 1.77"/><path d="M269 137.46c.48 1.57-.06 2.49-2.11 2 2 2 4.2 0 3.22-2.43-1.2-3-4.49-2.24-4.85.12a2.05 2.05 0 013.74.32M270.53 133.74a1.64 1.64 0 01-.39 2.37c.65.59 2.7-.88 1.34-3.08s-4-1.29-4 .13c1.35-.77 2-.86 3 .58M275.2 131.52c-.27 1-1.05 1.35-2.36 1.18.47.76 2.73 1.55 3.54-.93s-2.68-4.3-4.53-2.43c2.24-.38 3.81.48 3.35 2.18"/><path d="M275.42 126c.24-1 1-1.4 2.31-1.27a2 2 0 00-3.48 1.06c-.68 2.48 2.86 4.21 4.62 2.24-2.22.47-3.82-.32-3.45-2M261.05 140.93c-.35 0-.72.25-1 1a2.26 2.26 0 001.55 2.64 1.4 1.4 0 001.89-.76c.64-1.52-1.06-2.56-1.58-2.71a2.47 2.47 0 00-.86-.17zm.41.86a1.08 1.08 0 01.44.08c.88.21 1.52.87 1.08 1.59a1.22 1.22 0 01-1.46.54c-.23-.1-1.37-1.07-.75-1.75a1.19 1.19 0 01.69-.46zM260.23 136c-.41 0-.83.3-1.11 1.21-.55 1.86 1.24 2.87 1.79 3.06a1.62 1.62 0 002.19-.89c.74-1.75-1.22-3-1.82-3.11a3.26 3.26 0 00-1.05-.27zm.48 1a1.07 1.07 0 01.5.08c1 .24 1.76 1 1.25 1.85a1.44 1.44 0 01-1.69.63c-.27-.13-1.59-1.26-.88-2a1.47 1.47 0 01.82-.56zM264.28 134.83a1.75 1.75 0 01-3-1c-.51 2.08 1.91 3.18 3.66 1.77 2.14-1.71 1.45-5.05-1.9-4.4 2.44.54 2.87 2.24 1.27 3.58M252.56 137.5c-.17 1.83-1.65 1.83-2.92 1.62 1.66 1.68 3.58.55 3.8-1.48.27-2.51-2.64-3.6-3.77-1.46 1.63-1 3.07-.57 2.89 1.32M264.84 81.16c-.52 1.31-1.45 1.83-3.23 1.4a2.25 2.25 0 003.71-1.29c.22-1-.88-3-3.42-2.3 2.29.09 3 1.74 2.94 2.19M273.45 72.1c-.84 1.86-4.46 2-7 1.43 2.42 1.82 7.17 1.75 7.95-1 .33-1.53-.41-4.27-4.28-3.21 3.26.12 3.49 1.77 3.29 2.81"/><path d="M265.88 74.89c-.76 1.65-2.05 2.06-4.54 1.45 2.42 1.82 4.88.58 5.29-1.3.33-1.51-.41-4.25-4.28-3.19 3.26.1 3.74 2 3.53 3M271 85.91c-.28-2.36-4-2.85-6.67-2.35 3-1.56 7.36-.33 7.43 2.38s-2.29 4.72-5.81 2.82c3.18.63 5.32-.49 5-2.85M280.35 73.68C280.21 75 278.1 75 277 74.77c1.52 1.13 3.56.51 3.84-1s-.85-2.84-3.26-2.18c2.17.09 2.95.73 2.79 2.09M285.73 75.38c-.19 1.75-2.93 1.47-4.35 1.14.34.25-.39.34 0 .49 2 .75 4.6.39 4.91-1.5s-1.07-3.61-4.14-2.78c2.76.1 3.74.91 3.56 2.65"/><path d="M281.94 78.81c-.19 1.74-2.55 3.13-5.83 2.69 4 1.32 6.08-.65 6.42-2.56s-1.93-3.85-5-3c2.75.09 4.6 1.16 4.41 2.9M283.38 81c3 0 4.78 1.42 3.48 2.84s-4 .94-4.48.89c.71.64.64 1.6-.3 2.66-.63.69-1.66.7-2.83.3a2.19 2.19 0 01.58 2.83c-.89 1.79-4.36 1.08-4.83.54a2.33 2.33 0 01-.88 2.19c-.88.65-2.6.89-3.13.28 1.77-.15 2.55-.49 3.19-1.77.35-.69-.36-1.41-1.42-2.3 1.6 1 5 2.26 6.3.53.54-.69.42-2.24-3.12-3.66 1.71.59 4.7 1.27 5.66.3s.06-2.5-2.82-3.26c2.3.54 6.65 1.66 7.31.17.54-1.21-.23-1.9-2.71-2.54M272.07 79.94c-.75 1.64-4.54 1.87-7 .77 2.54 2.2 7.35 1.26 7.77-.63.33-1.52-.42-4.25-4.28-3.19 3.26.09 3.73 2 3.53 3M272.46 101.16c-.16 2-2.95 2-4.59 1.58 2.22 1.67 5.44.78 5.62-1.46.23-3-3.48-4.67-7-3.69 3.18.09 6.21.8 6 3.57"/><path d="M276 107.64c-.17 2-2.95 2-4.61 1.6 2.23 1.67 5.45.79 5.63-1.45.23-3-3.48-4.68-7-3.72 3.18.11 6.21.82 6 3.57M279.11 113.87c-.16 1.8-2.53 1.85-4 1.5 2 1.5 4.64.66 5.07-1.31.53-2.43-1.52-3.86-4.67-2.7 3-.12 3.79.45 3.62 2.51M279 120.2c-.2 2-3 2-4.59 1.58 2.22 1.66 5.35.79 5.62-1.46.32-2.71-2-4.37-5.53-3.42 3.18.12 4.71 1.21 4.5 3.3"/><path d="M284.52 111.2a3.22 3.22 0 01-5-1.28c-.54-1.61 2-1.8 3.85-2.14-.38-.09.1-.31-.26-.36-2.5-.45-5.05.61-4.64 2.75.48 2.45 4.09 3.76 6.51 1.45-.33.17-.18-.61-.45-.42M282.49 104.31A3.36 3.36 0 01277 103c-.42-1.41 1.89-2.36 3.58-2.26-.26-.06 0-.31-.28-.33-2.21-.19-4.7.9-4.33 2.78.49 2.57 4.17 3.9 6.71 1.46-.19.08-.06-.49-.2-.37M279.12 96.79c.7 2.5-1 2.86-2.68 2.67s-2.44-1.09-1.57-2c0-.79-.26-.41-.4-.29-1.76 1.54.53 2.86 2 3 2.29.25 3.94-.87 3-3.44 0 .16-.36-.1-.31 0M270.5 94.71c-.17 2-2.51 1.46-4.36 1.36 2.09 1.48 5.21 1 5.39-1.28.23-3-3.2-4.27-6.74-3.29 3.18.1 5.92.45 5.71 3.21M292.24 81.41c0 .26-1.45.71-1.45.71a6 6 0 01-2.69-.12 3.42 3.42 0 002 .62l2.68-1.5c.27-1.5-1.67-3-4.09-2.3 2.18.08 3.84.79 3.57 2.56M286.66 124.14c-.17 1.66-2.44 1.63-3.8 1.31 1.84 1.38 4.43.65 4.64-1.19.27-2.26-1.63-3.64-4.56-2.83 2.63.07 3.88 1 3.72 2.71"/><path d="M261.81 118.51c12.64 2.34 18.81 5.17 24.41 9" fill="none" stroke="#000" stroke-width=".65"/><path d="M284.76 130c4.24-5.69 2.57-13.32 2-15.78a27.42 27.42 0 00-3.33-7.74c-3.86-5.91-5.34-10.86-3.88-15.8s11.81-8.27 15.83-10.52 5.13-4.36 11.66-7.5c9.79-4.7 17.55-2.56 32.94-.32s42.34 14.83 49 19.1 2.39 6.72.22 6.26c4.08 1.55 6.15 5 6.06 7.2-.11 2.4-1.95 2.77-9.19.19 4.21 2.76 3.14 5.63-1.12 5-5.17-.25-14.32-3.47-16.71-5 2.09 2.61 2.17 4.33.79 5.66-3.28 1.54-6.71-.21-12.6-1.63 3.17 7.79-6 6.09-9.15 4.25.89 6.1-4.85 5.88-8.47 4.25 2.89 2.29 10.69 13.68 12.25 16.36 1.3 2.63 3.18 9.53-5 1.29-2.65-2.67-.34.2-5.15-5.83 4.67 5.8 2.67 2.91 5.5 6.49 6.06 7.69 6.38 9.3 4.85 10.83-2.33.34-5.12-2.38-16.32-15.38 14.17 17.58 6.81 16 5.58 15.44s-6.8-5.25-10.58-9.12l-.74-.71c.9 1.18-.79-.29 0 .72 1 1.28 1.64 3.37.17 4.85a2.61 2.61 0 01-3.26 0c-2.29-2.22-8.3-6-9.86-7.29 2.91 2.41 8.08 5.65 9.86 7.29 2.56 2.33 4.05 5 2.58 6.93-.73 1-3.14.86-4.77-.57-.41-.35-6.55-4.74-8.63-6.37 3.64 2.72 9.58 7 11.32 8.46 2.3 2 5.87 7.12 4.71 8.85a1.68 1.68 0 01-.69.61c-1.6.82-4.44-.6-5.26-1.28s-8.76-6.65-11.44-8.64c1.45 1.14 10.21 7.74 11.21 8.48 1.69 1.21 2.92 6.27 1.29 7.26s-2.69.51-4.1-.16-6.5-5.08-9.59-7.51c2.52 2 8.07 6.27 9.25 7.45.63.64 4.09 5.48 2 7.05-1.28 1-4.25.67-6.39-.73-1.06-.7-3.09-2.36-4.49-3.11" fill="#785a3c" stroke="#000" stroke-width=".64"/><path d="M283 100.47c-.93-2-.73-5.61-.25-7.24 1.46-4.93 11.26-8 15.28-10.3s5.14-4.38 11.66-7.51c9.79-4.69 17.67-3.12 33.05-.87 8.42 1.25 20.45 5.3 30.48 9.93-10.43-4.24-21-8.25-30.68-9.5-10.76-1.39-21.48-4.5-32.59.85-6.78 3.27-8.67 5.84-11.7 7.53s-13.64 6.19-14.66 10-.1 4.17.11 5.29c.27 1.52.05 2.19-.7 1.78"/><path d="M301.19 153.75c2 1.65 6.51 3.56 7.41 1.87s.51-2.93-2.52-5c2.41 1.59 7.58-.55 2.47-5.29 6.11 2.89 6.85-3.77 3.6-5.92 3.47 1.36 5.83-3 1.79-5.86 2.65.61 5.79-1.4 2-5 6.9 4.58 11.73 3.11 9.77-1.74 7.7.4 2.65-5.93-3.63-9.36 7.57 2.77 11.06-3 5.9-4.75 6.06.17 7.75-4.49 1.46-6.19 4.33.22 10.39-4 2.31-6.48 17.4 7.06 24.36 2.31 16.12-2.88 2.45.45 7.13-6.08-1.85-6.88 4.82 1.3 14.14-4.43 2.13-7.28 0 0-11.15-2.76-15.71-3.45.4.51 13.52 3.4 15.71 4.08s4.94 2.25 4.21 4-3.43 2.65-7.13 2-12.07-2.32-12.8-2.43c1.35.39 11.84 3.28 12.91 3.55s5.47 1.54 4.94 3.52c-.62 2.3-2.92 2.2-4.55 2.08s-12.13-2.72-13.47-2.94 14.09 3.84 14.76 4.29 3.49 2.22 3.14 3.61-5.78 1.58-8.7.85-23.22-6.11-23.68-6c1.74.56 12.13 3.78 13.41 4.42s4.21 1.45 3.71 2.92-4.5 2.7-6.07 2.42-16.61-3.68-18.91-4.12c2.19.73 18 4.62 19.09 5.19s4 2 3.36 3.15-2.3 2.15-4.94 1.64-16.39-4.57-17.79-4.92c2.41 1 16.66 5.71 17.56 6.39s3 1.58 1.91 2.83-5 1-6.68.66-13.85-4.18-15.21-4.57 12.89 5.21 14.14 5.87c2.69 1.42 8.41 6.28 7.07 7.28a4.29 4.29 0 01-4.38.17c-.4-.16-16-7-16.77-7.45 2 .85 16.61 8.08 17.39 9a2.35 2.35 0 01-.51 3.27c-1 .49-3.5-.05-6.46-1.59-3.25-1.7-11.84-4.69-14.2-4.69 2.19.51 10.11 3.67 11.79 5 1.39 1.12 2.07 2.65 1.33 3.27a4 4 0 01-3.58.27 76.91 76.91 0 00-10-4.18c2.58 1.23 8.65 4.49 9.87 5.36 1.57 1.14 2.74 3 2.19 4s-2.36 1.18-3.6.67-13-5.76-14.19-6.26 12.78 6.32 13.91 7.39 2.64 3.61 1.84 4.69-2.92 1.11-4.71.17c-2.11-1.13-10.21-6.11-11.33-7 1.57 1.2 10.55 7.68 11.33 8.81s2 2.89 1.17 3.61-3.47.22-4.1-.29-10.42-7.17-11.42-7.78c2.31 2.07 10.55 8.9 11.5 9.69s3.2 3 2.19 3.73-4.88-1.39-5.67-1.74-2.4-.78-2.74-1 2.74 2.21 1.61 3.11-1.12.51-2.35.69c1.23.89 4.61 3.83 2.69 5.3s-5.77-1.25-6.05-1.81 1.68 2.25.44 3.21-3.25-.33-3.53-.62 1.9 1.36.61 2.71-2.18-.27-2.53-.61c-.16.39-.06 1.63-1.24 1.63-.84 0-1.33-.85-1.79-1.35.06.39.6 2.63 2 2.26.84-.22 1.3-.79 1.29-1.25.5.56 2.13 1 2.75.4a2.21 2.21 0 00.39-2.26 2.56 2.56 0 002.63 0 1.81 1.81 0 00.45-2.21c.79.84 4.05 2.26 5.57.17s-1.07-4.39-1.74-4.9c.62.17 2.8-1.16.73-3"/><path d="M330.22 73c7.19.46 9.77 2.25 9.15 5.08-.44 2-2.92 2-4.27 1.8 2 1.24 1.73 2.71 1.57 4.18-.23 2-2.2 3-4.27 3 1.29.4 3.49 1.71 3.14 3.63a2.87 2.87 0 01-3 2.69c1.18.46 3.08 1.3 2.41 3.91s-2.84 2.71-6.77 1.71c3.54 1 6.06-.73 6.07-2a3 3 0 00-2.35-3c-1.58-.22-15.22-4-16.12-4 2.41.23 14.37 2.61 15.28 2.71s3.23-.45 3.42-1.58c.34-2-1.46-3.15-2.91-3.5S319.5 84.83 318 84.5c2.35.29 11.33 1.72 12.24 1.75 2.13.13 5.27-.5 5.38-2.24.07-1-.44-3.11-1.68-3.67s-8.64-2.26-12.35-2c4.78-.23 9.93.67 12.3.92s4.39-.45 4.55-1.46c.28-1.93-1.69-4.07-8.24-4.75"/><path d="M371.36 82.72c12.8 5.75 22.72 10.34 21.15 13.49-.84 1.68-2.49 1.38-3.27 1.5 4.73 1.49 6.8 6.41 5.68 8.43s-8.08-.86-8.82-1c1.63.82 4.26 3.36 1.57 4.83s-17-3.06-19.4-4.83c1.11 1 2.34 3.24 1.34 5-1.76 3.12-11.46-.68-13.15-1 .74 1.8 1 4.33-.62 5.18-2.69 1.39-6.45 0-8.47-.79.23 1.28 0 4.14-2.3 4.78a9.21 9.21 0 01-6.9-1.18c-3.53-2-11.67-4.51-13.85-5.81 2.13.67 13.06 4.58 14.08 4.91 2.69.91 5.86 1.32 6.9.63s1.52-3.54-.28-4.24-16.88-6.32-18.35-6.77 18.8 5.71 20.37 6.29 6.91 2.24 8 1.07c1.23-1.35.79-4.51-1-5.19s-21.48-7.41-23.62-8.2c2.8.79 25.57 7.86 27 8.26.85.22 9.15 2.71 10.38 1.7s.79-3.54-1.45-4.91-17.44-7.19-20.35-8.1c7.13 2.25 20 6.46 22.84 7.53 2.13.77 13.63 4.84 15.88 4.74 3.76-.17 3.38-2.14-.28-4.06-2.36-1.25-30.91-12.1-38.43-14.7 6.12 1.81 35.3 11.75 39.39 13.22 3.46 1.25 7.9 2.84 8.42 1.44 1.3-3.57-4.54-6.5-6.78-7.41s-16.84-7-39.73-14.47c12.68 2.15 39.05 13.39 40.85 13.68 1.23.19 4.27.31 3.65-1.86-.36-1.2-2.14-3.17-20.44-12.16"/><path d="M337.21 116.32c2.13.4 13 15.91 13.87 17.65s1.88 4.36.75 5.05-4.37-1.14-6.51-3.5c.8.55 1.3 1.58 3.65 2.88.93.5 5.37 7.31 2.77 8.8s-6.71-3.45-7.82-4.8-4.21-5.25-4.76-5.81 7.28 9.37 4.14 10.77c-2.7 1.21-6.51-2.47-7.51-3.25s-13.41-13.11-12.11-13.22c.56-.45 11.38 11.23 12.95 12.47s4.09 3.78 5.89 3.22-1.17-5.24-1.68-6-8.91-13-10-14.16c2.35 2.77 12.28 13 13.57 14.56s5 6.44 6.56 5.19-2.7-7.73-3.75-8.91c-3-2.27-12.45-14.8-15-18.23 4.93 5.13 13.67 15.18 14.52 16.15s3.64 3.5 4.43 3-.79-4.17-1.39-5-9.87-13.37-12.56-16.86M309.62 83.76c1.73.63 6.37 1.59 5.49 4.73-.62 2.2-3.93 1.29-4.83 1.41 1 .68 1.23 1.91.39 3.28s-3.76 1.69-5.28 1.11c1.46.86 2.29 1.95 1.57 3.39s-2.19 1.25-3.31 1.24c1.19.61 2.93 1.69 2 3.78-.68 1.46-1.23 1.07-2.25 1.3a2.54 2.54 0 012.25 2.81 2.38 2.38 0 01-2.13 2.37 3.34 3.34 0 01-1.47 6c.57.46 1.43.64 1 2.71a2.3 2.3 0 01-2.36 1.93 2.89 2.89 0 011.45 3.37c-.28 1.58-2.13 2-3 1.93a47.51 47.51 0 01-5.16-1c1.52-.16 4.16.11 5.28.11s1.86-.23 2-1.12a2.41 2.41 0 00-1.12-2.59 22.12 22.12 0 00-3.81-1.47c1.63-.05 3 .4 3.81.24s2-.51 2.14-1.6.07-1.39-1-1.84a24.79 24.79 0 00-4.54-1.3c1.68.11 3.48 0 4.49 0a3.07 3.07 0 002.48-2 2.43 2.43 0 00-1.29-2.82c-1-.44-4.67-.46-5.72-.85 1.51-.45 5-.1 5.78-.22a2.25 2.25 0 002.07-1.86c.16-.77-.56-1.63-1.46-2s-5.11-1.46-6-2c1.46-.17 4.26.73 5.38.62s2.13-.55 2.25-1.35c.17-1.07-.67-2-1.79-2.54a45.28 45.28 0 01-4.66-2.53c2.64.4 4 1.06 5.11 1.07s2.53-.06 2.75-.74a1.82 1.82 0 00-.67-2.08c-.79-.67-4.27-3.1-5.33-4.08 2.64.79 3.59 1.74 4.83 2.16 1.85.62 4.43.16 4.88-.74s.56-1.74-.45-2.37c-.75-.45-5.1-2.14-6.56-3 3.14.62 4.77 1.3 6.23 1.64.94.21 4.71.79 5.22-.68.38-1.17-.51-2.42-4.66-4.47M315.35 81.89c-1.79-2.21-4.54-.45-2.53 2.1-.73-2.55.5-3.17 2.53-2.1M307.43 79c3.12 1.67 5.5-1.37 2.67-3.47-.18-.13-.17.35-.41.23 1.9 2.12.76 3.51-2.26 3.24"/><path d="M302.41 85.59c4 2.14 7-2.17 2.47-4.69 2.65 3.32 1.2 5-2.47 4.69M291 92c4 2.14 10.8-3.29 6.22-5.8 2.65 3.31-2.56 6.13-6.22 5.8M294.17 92.77c.78 1.07 1.45 4.8-2.69 4.85 1.34.79 2 1.52 1.79 2.6-.34 1.63-1.66 1.53-2.81 1.91 2.92 1 5.84 1.42 2.64 5 3.76-1.91 2-4.35-.39-4.91.5-.29 2.53-2.37 1-4.35 1.3-.11 3.26-3.65.51-5.12M284.57 94.17c1.19 0 3.58.76 3.48 3a2.52 2.52 0 01-1.12 2.09 2.62 2.62 0 01.33 3.68c.06-1 .56-3.17-3-3.39 1.13-.52 1.86-.34 2.47-1.25a2.15 2.15 0 00.06-2.57 7.12 7.12 0 00-2.24-1.6M287 105c1.91-.27 4.37-.39 3.75 3 1.63-.4 4.43 1.41 2.47 3.83 1.12.73 2.29 2.82.44 4.22 1.35 2.14 1.63 3.63.05 4.47.57 2.25 2 4.62-2.3 6 2.07-.89 2.58-3.28 1.74-4.46s-.67-1.07-1.91-1.64c1.57-.68 2.47-.28 2.47-2.32a2.7 2.7 0 00-2-2.14c1.68-.5 1.74-1 1.57-2.2a2.54 2.54 0 00-2-1.9c.67-.3 2.24-1.3 1.4-2.43-1-1.28-2.64-.51-3.77-.29.85-.9 1.24-2.26.73-2.77A6.54 6.54 0 00287 105M289.37 130.74c1-.36 5.05.06 4.37 4.13s-.17-1.35-1.62-2.72c-1.17-1.08-3.54-1.12-2.75-1.41M306.71 179.73c-3.21-3.62-3.82-4.47-3.82-4.47s.19.19 4.36 4l-.54.47M295.1 172c2.37.85 3.77-.11 3.16-2.32 2.24 1.57 4.43 1 4.38-1.91 2.8 1 3.65-.34 3.09-2.7 5.43.52 4.31-3.6 2.63-5.19 1.69 1.58 2.25 5.07-3.19 4.57.55 2.35-.3 3.72-3.09 2.7.06 2.93-2.13 3.5-4.39 1.91.62 2.2-.22 3.78-2.59 2.94M308.7 175.67c-.23.61-1.36 1.51-3.83-.14 2 .34 2.5.55 3-.5.89-1.8-2.41-4.12-2.41-4.12 1 .39 4.26 2.09 3.2 4.76M312.64 169.51c-.75 1-1.92 1.42-4.05.12 2 .32 2.73.31 3.25-.72.9-1.82-.84-3.52-.84-3.52 1 .41 2.7 1.46 1.64 4.12M298.39 151.45c.44 0-1.42.79-.85 1.58s.33.95.95 1.07-1.85.27-1.91-.85.57-1.92 1.81-1.8M295.63 155.78c.11.57-1.35 4.41-5.05 1.41-2.88-2.33-.06-4.62 2.47-3.95-.56.17-3.87.45-1.57 3.22 1.73 2.08 3.87.11 4.15-.68M289.34 156.51c.52.74 1.54 2.44.34 3.74-.73.79-2.19.55-3.08.1 0 .61-2.58 3.26-4-.62.56.39 1.68 1.35 2.58.91a1.39 1.39 0 00.51-2c-.16-.39 2.17 1.85 3.37.85s.27-3 .27-3M287 133.21c-.14-.83 5.27 1.64 3.81 4.47s-4.67.44-5.06-.16 2.8 1.32 3.82 0c1.41-1.76-2.47-3.66-2.57-4.35M289.52 140.77c.73.35 2.7 4.17-1.57 4.58s-2.52-4.35-1.9-4.74-1.35 3.9 1.85 3.5 1.62-3.34 1.62-3.34"/><path d="M284.87 144.85a2 2 0 00-1.83 1.43c-.9 2.2 2 3.41 2.93 3.63s3.16.62 4-.83c1.19-2.07-2.39-3.72-3.38-3.91a6 6 0 00-1.72-.32zm.77 1a5.67 5.67 0 01.78.12c1.68.28 3.39 1.6 2.56 2.57s-2.71.68-3.16.53-2.63-1.28-1.88-2.41a1.79 1.79 0 011.7-.81z"/><path d="M287.16 150.08c1.18.4 3.42 5.08-1.75 5s-3.08-3.73-2-4.75c.1.57-2.27 4 2 3.8 3.66-.18 1.86-3.28 1.75-4M291.9 148c-.48 0-1 .12-1.44 1.15-.66 1.62 1.08 2.41 1.75 2.58s2 .35 2.63-.71c.9-1.56-1.45-2.69-2.18-2.84a5.7 5.7 0 00-.76-.18zm.54.82l.28.05c1.25.21 2.19 1.09 1.57 1.81a2 2 0 01-2 .51c-.33-.11-1.51-.85-.95-1.69.41-.64.8-.7 1.12-.66z"/><path d="M299.44 152.33c2 1.65 6.51 3.56 7.41 1.87s.51-2.93-2.52-5c2.41 1.59 7.58-.55 2.47-5.29 6.12 2.89 6.85-3.77 3.6-5.92 3.47 1.36 5.83-3 1.79-5.86 2.65.61 5.79-1.4 2-5 6.9 4.59 11.73 3.12 9.77-1.73 7.7.4 2.65-5.93-3.63-9.37 7.57 2.77 11.06-3 5.9-4.74 6.06.17 7.75-4.5 1.46-6.19 4.33.22 10.39-4 2.31-6.48 17.4 7 24.36 2.31 16.12-2.88 2.46.45 7.13-6.08-1.85-6.88 4.82 1.3 14.14-4.44 2.14-7.28 0 0-11.16-2.76-15.72-3.45.4.51 13.52 3.4 15.71 4.08s4.94 2.25 4.21 4-3.43 2.65-7.13 2-12.07-2.32-12.8-2.43c1.35.39 11.84 3.27 12.91 3.55s5.47 1.54 4.94 3.52c-.62 2.3-2.92 2.2-4.55 2.08s-12.13-2.72-13.47-2.94 14.09 3.84 14.76 4.29 3.49 2.22 3.14 3.61-5.78 1.58-8.7.85-23.22-6.11-23.68-6c1.74.57 12.13 3.79 13.41 4.42s4.21 1.46 3.71 2.93-4.5 2.7-6.07 2.42-16.61-3.68-18.91-4.12c2.19.73 18 4.62 19.09 5.19s4 2 3.36 3.15-2.3 2.15-4.94 1.64-16.39-4.58-17.79-4.92c2.41 1 16.66 5.71 17.57 6.39s3 1.58 1.9 2.83-5 1-6.68.66-13.85-4.18-15.21-4.57 12.89 5.21 14.14 5.87c2.69 1.42 8.41 6.28 7.07 7.28a4.29 4.29 0 01-4.38.17c-.4-.16-16-7-16.77-7.45 2 .85 16.61 8.08 17.39 9a2.35 2.35 0 01-.51 3.27c-1 .49-3.5-.05-6.46-1.59-3.25-1.7-11.84-4.68-14.2-4.69 2.18.51 10.11 3.66 11.79 5 1.4 1.12 2.07 2.65 1.34 3.27a4 4 0 01-3.59.27 76.91 76.91 0 00-10-4.18c2.58 1.23 8.65 4.48 9.87 5.36 1.57 1.14 2.74 3 2.19 4s-2.36 1.18-3.6.67-13-5.76-14.19-6.26 12.78 6.32 13.91 7.39 2.64 3.61 1.84 4.69-2.92 1.11-4.71.16c-2.11-1.12-10.21-6.1-11.33-7 1.57 1.2 10.55 7.68 11.33 8.81s2 2.88 1.17 3.61-3.46.22-4.1-.29-10.37-7.11-11.38-7.72c2.31 2.07 10.55 8.9 11.5 9.69s3.2 3 2.18 3.73-4.88-1.39-5.67-1.74-2.4-.78-2.74-1 2.74 2.21 1.62 3.11-1.12.51-2.35.68c1.23.9 4.6 3.83 2.68 5.3s-5.77-1.25-6.05-1.81 1.68 2.25.45 3.21-3.26-.33-3.54-.62 1.91 1.36.61 2.72-2.18-.28-2.53-.62c-.16.39-.06 1.63-1.24 1.63-.84 0-1.32-.85-1.78-1.35.05.39.59 2.63 2 2.25.83-.22 1.29-.79 1.28-1.25.5.57 2.13 1 2.75.4a2.18 2.18 0 00.39-2.26 2.6 2.6 0 002.64 0 1.84 1.84 0 00.45-2.21c.78.84 4 2.25 5.56.17s-1.07-4.39-1.73-4.9c.61.16 2.8-1.17.72-3" fill="#d2b78c"/><path d="M328.48 71.57c7.19.46 9.77 2.26 9.15 5.08-.44 2-2.92 2-4.27 1.81 2 1.23 1.73 2.7 1.56 4.18-.22 2-2.18 3-4.26 3 1.29.4 3.48 1.71 3.14 3.63a2.89 2.89 0 01-3 2.7c1.19.45 3.09 1.3 2.42 3.9s-2.81 2.64-6.74 1.69c3.54 1 6.06-.73 6.07-2a3 3 0 00-2.36-3c-1.58-.22-15.21-4-16.12-4 2.41.23 14.37 2.61 15.28 2.71s3.23-.45 3.42-1.58c.34-2-1.46-3.15-2.91-3.49s-12.07-2.84-13.53-3.17c2.35.29 11.33 1.72 12.24 1.75 2.13.13 5.28-.5 5.38-2.24.07-1-.44-3.11-1.68-3.67s-8.64-2.26-12.35-2c4.78-.23 9.93.68 12.3.92s4.39-.45 4.55-1.46c.28-1.93-1.69-4.07-8.24-4.75" fill="#d2b78c"/><path d="M369.62 81.3c12.8 5.75 22.72 10.34 21.15 13.49-.84 1.68-2.49 1.38-3.28 1.5 4.73 1.49 6.81 6.41 5.69 8.43s-8.08-.86-8.82-1c1.63.82 4.27 3.36 1.57 4.83s-17-3.06-19.4-4.83c1.11 1 2.34 3.24 1.34 5-1.76 3.12-11.46-.68-13.15-1 .74 1.79 1 4.33-.62 5.18-2.69 1.39-6.45 0-8.47-.8.23 1.28 0 4.14-2.3 4.79a9.25 9.25 0 01-6.9-1.18c-3.53-2-11.67-4.52-13.86-5.81 2.13.67 13.06 4.57 14.08 4.9 2.69.91 5.86 1.32 6.9.63s1.52-3.54-.28-4.23-16.88-6.33-18.35-6.78 18.8 5.72 20.37 6.28 6.91 2.24 8 1.08c1.23-1.36.79-4.51-1-5.2s-21.48-7.4-23.62-8.19c2.8.79 25.57 7.85 27 8.25.85.23 9.15 2.71 10.38 1.7s.79-3.54-1.45-4.9-17.45-7.18-20.37-8.08c7.13 2.25 20 6.46 22.84 7.52 2.13.78 13.63 4.84 15.88 4.75 3.76-.18 3.38-2.15-.28-4.07-2.36-1.24-30.91-12.09-38.43-14.7 6.12 1.82 35.3 11.75 39.39 13.23 3.46 1.24 7.9 2.83 8.42 1.43 1.3-3.56-4.54-6.49-6.78-7.41s-16.84-7-39.73-14.46C358.23 83.78 384.6 95 386.41 95.3c1.22.2 4.25.32 3.64-1.86-.35-1.19-2.14-3.15-20.43-12.14M307.88 82.33c1.73.63 6.37 1.59 5.49 4.73-.62 2.2-3.93 1.3-4.83 1.42a2.28 2.28 0 01.39 3.27c-.9 1.47-3.76 1.69-5.28 1.12 1.46.85 2.29 1.94 1.57 3.39s-2.22 1.24-3.31 1.24c1.18.6 2.93 1.68 2 3.77-.68 1.47-1.24 1.07-2.25 1.3a2.54 2.54 0 012.25 2.81 2.4 2.4 0 01-2.14 2.38 3.33 3.33 0 01-1.46 6c.56.46 1.43.64 1 2.72a2.29 2.29 0 01-2.35 1.92 2.9 2.9 0 011.45 3.38c-.28 1.57-2.13 2-3 1.92a43.71 43.71 0 01-5.17-1c1.53-.16 4.16.11 5.29.11s1.86-.23 2-1.12a2.42 2.42 0 00-1.12-2.59 23.33 23.33 0 00-3.81-1.47c1.63 0 3 .4 3.81.24s2-.51 2.14-1.6.06-1.39-1-1.84a25.63 25.63 0 00-4.54-1.3c1.68.11 3.48 0 4.49 0a3.12 3.12 0 002.48-2 2.43 2.43 0 00-1.29-2.82c-1-.44-4.67-.46-5.73-.85 1.51-.45 5-.1 5.79-.22a2.25 2.25 0 002.07-1.86c.16-.77-.56-1.63-1.46-2s-5.11-1.45-6-2c1.47-.17 4.27.73 5.39.61s2.12-.55 2.25-1.34c.17-1.07-.67-2-1.79-2.55a43.41 43.41 0 01-4.66-2.47c2.64.4 4 1.07 5.11 1.08s2.53-.07 2.75-.75a1.79 1.79 0 00-.67-2.07c-.79-.68-4.27-3.11-5.33-4.08 2.64.79 3.59 1.73 4.82 2.15 1.86.62 4.44.17 4.89-.74s.56-1.74-.45-2.36c-.75-.45-5.1-2.15-6.56-3 3.14.61 4.77 1.3 6.23 1.64.94.21 4.71.79 5.22-.69.38-1.16-.52-2.41-4.66-4.46M305.68 77.52c3.12 1.67 5.5-1.37 2.67-3.47-.18-.13-.17.35-.41.23 1.9 2.12.77 3.52-2.26 3.24" fill="#d2b78c"/><path d="M300.67 84.17c4 2.14 7-2.17 2.47-4.69 2.64 3.32 1.19 5-2.47 4.69M289.22 90.53c4 2.14 10.79-3.29 6.21-5.8 2.66 3.32-2.56 6.14-6.21 5.8M292.43 91.34c.79 1.07 1.45 4.8-2.69 4.86 1.34.78 2 1.52 1.79 2.6-.35 1.63-1.66 1.53-2.81 1.91 2.91 1 5.84 1.42 2.64 5 3.76-1.92 2-4.35-.39-4.91.5-.29 2.53-2.37 1-4.35 1.29-.11 3.25-3.66.5-5.13M282.83 92.75c1.18 0 3.58.76 3.47 3a2.47 2.47 0 01-1.12 2.09 2.62 2.62 0 01.34 3.68c.06-1 .56-3.17-3-3.39 1.13-.52 1.86-.34 2.47-1.25a2.15 2.15 0 00.06-2.57 7.23 7.23 0 00-2.24-1.6M285.29 103.52c1.91-.27 4.37-.39 3.75 3 1.63-.39 4.43 1.41 2.47 3.83 1.12.74 2.29 2.83.44 4.22 1.35 2.14 1.63 3.63.05 4.47.57 2.25 2 4.62-2.29 6 2.06-.89 2.57-3.27 1.73-4.46s-.67-1.07-1.91-1.63c1.57-.69 2.47-.29 2.48-2.32a2.69 2.69 0 00-2-2.14c1.67-.5 1.74-1 1.57-2.2a2.57 2.57 0 00-2-1.91c.67-.29 2.24-1.3 1.39-2.42-.95-1.28-2.63-.51-3.76-.29.84-.9 1.23-2.26.73-2.77a6.79 6.79 0 00-2.68-1.36" fill="#d2b78c"/><path d="M325.35 140.63c-2.3-2.22-8.3-6-9.87-7.29 2.91 2.42 8.08 5.65 9.87 7.29 2.56 2.33 4 5 2.58 6.93-.74.94-3.14.85-4.77-.57-.42-.36-6.56-4.75-8.64-6.37 3.65 2.71 9.58 7 11.33 8.46 2.29 2 5.87 7.11 4.7 8.85m-.69.62c-1.6.82-4.44-.6-5.26-1.29s-8.76-6.64-11.44-8.63c1.45 1.13 10.21 7.74 11.21 8.47 1.69 1.21 2.92 6.27 1.29 7.27s-2.69.51-4.1-.17-6.5-5.07-9.59-7.5c2.52 2 8.07 6.27 9.25 7.45.62.63 4.09 5.47 2 7-1.28 1-4.26.68-6.4-.73-1.05-.7-3.08-2.36-4.49-3.1" fill="none" stroke="#d2b78c" stroke-width=".64"/></svg>