<svg xmlns="http://www.w3.org/2000/svg" width="260" height="300" viewBox="0 0 260 300"><title>flag-new-york-icon-eagle</title><path d="M136.46,172.76c-1.15-2.35-.57-3.15.3-5.19a4.65,4.65,0,0,0,.27-3.79c-.27-1.16-2.61-2.6.85-1.73s2.89.3,4.9.53,3.19,1.76,2.32,3.19,0,2.32-2.32,3.47-3.43,1.72-4,2.61-2.32.88-2.32.88" fill="none" stroke="#000" stroke-linecap="round" stroke-linejoin="round" stroke-width="1.5"/><path d="M164,160.56c.05.06.08.14.13.2.8.89-.49,2.21-1.33,1.32-.42-.45-1.24-.39-2-.25.31.25.18.55.18,1.4,0,1.71-1.15,1.71-3.47,1.71s-.85,1.47-1.16,3.18a5.58,5.58,0,0,0,1.74,4.64c1.15,1.15,1.15-.88,2.32.52s2.29-.25,1.72-.8a18,18,0,0,1-2.89-3.79c-1.15-2,1.17.59,2.61,1.47s2.31,1.17,2.6,2,.28,2.28-2,3.17-2,2.29-3.19,4-1.15,1.73.3,2.92.87,2-2,2-1.46,1.44-.85,3.49.28,2.59,3.45,1.7,2-1.43,2.32-4.57c.18-2.08,2-2.35,4-1.2s2.88,1.75,2.88,1.75.89,1.4,1.14.27-1.15-2.29-3.45-3.46-2.32-2.58,2-1.15,1.73,2.59,3.47,4.34-.29-.88.87-2.63.28-1.71-1.16-4,1.44-2,3.76-.89.57,2-.57,2.87-.87,1.74,0,2.89.87,1.75,2.3,1.2,1.46-.92,2,1.15-1.15,2.57-2.88,2.84-2.32.32-2,1.17-.3,1.18-2.3.58-2.34,0-3.18-1.17-.86-1.7-2.58-.85-3.19,2-5.79,2.34-2,1.45-2,1.45l-.85,2.55a26.23,26.23,0,0,0-2.9,3.76c-1.4,2.32-1.69,4.07-1.15,6.07s-.29,3.79.3,4.94a13.44,13.44,0,0,0,2.88,4.32c1.72,1.76,3.76,2.87,6.64,1.76s4.89-2,8.38-1.76,1.44,1.44,1.44,2.87-.29,2.32,1.73,3.73.87,3.83-.28,6.07A9,9,0,0,0,174,232.8l0,0,3.17,2.49,4.36-3.06a70.34,70.34,0,0,0,4-7.79c.85-2.32,1.45-1.17,2-6.36a36.78,36.78,0,0,1,2-9.83c1.17-3.42.57-9.78.57-9.78l-1.72,2.31s-1.13-1.7-3.15-4.61-4.93-6.66-4.93-6.66l1.17-.81s3.95,2.42,5.1,4.72,1.76,4.93,2.59,2,.07-3.59-.19-5.91a40.38,40.38,0,0,1-.3-4.32" fill="none" stroke="#000" stroke-linecap="round" stroke-linejoin="round" stroke-width="1.5"/><path d="M115.2,235.64l-.4-1.13" fill="none" stroke="#000" stroke-linecap="round" stroke-linejoin="round" stroke-width="1.5"/><path d="M125.93,159.78l.2,1.25a5.18,5.18,0,0,0,.8,3.34c1.72,3.2,2,2.59-2,3.75s-4.9,1.12-4.32,3.76a8.94,8.94,0,0,1,0,4.35,30.84,30.84,0,0,1,2.59-2.32c1.15-.88,1.15-1.43,2.28-2.62s1.76.3,2.62.59.29-1.17,1.17,2.92,1.7,8.34.27,6.91-.27-2-2.6-2.32-3.18.57-3.18.57,2,2,0,2.63-2-.62-3.15.52-2.32.33-4.07,2.32a22.89,22.89,0,0,1-3.76,3.47s-2-.23-2,2.32-.88,3.75-1.17,2-.28-2.58-2.6-3.47-4-1.43-4.62,1.77-.27,7.78,1.15,6.08,3.17-1.52,1.82.48c-1.85,2.74-.92,2.95-.09,4.09s.59.88.31,2.62,0,3.19.85,3.19,1.16,1.18,2.6,0,2.9-1.17,4.62.26,3.47.3,5.48,3.49,2.31,2.55,4,3.47.28-.88,3.17,3.16,3.47,3.47,6.36,4.64,9.24,2.28,6.36,4.87-2.61,2.32-2.89,4.07a4.11,4.11,0,0,1-.87,2.29" fill="none" stroke="#000" stroke-linecap="round" stroke-linejoin="round" stroke-width="1.5"/><path d="M114.8,234.56a9.3,9.3,0,0,0-2.89-4.91c-2.6-2.57-3.47-5.16-4.64-8.39s-1.43-4.91-.26-6.93,2-2.32,0-4.05-2.91-1.11-3.17-4.93-2-4.6-3.17-6.87-2-2.62-.59-7.54.84-9,2-11" fill="none" stroke="#000" stroke-linecap="round" stroke-linejoin="round" stroke-width="1.5"/><path d="M119.79,62.79c3.47,0,5.79-.36,8.86,1.89s-1.15.43-4.22,0a8.1,8.1,0,0,1-4.64-1.89" stroke="#000" stroke-linecap="round" stroke-linejoin="round" stroke-width="0.5"/><path d="M117.07,236.94c-3.77-3.5-7.24-5.12-12.3-5.12-3.22,0-6,2.32-9.81,3.57.47.45,1,1,1.62,1.55,3.77,3.54,4.1,9.8,11,11.15a6.47,6.47,0,0,0-.67,0c6.16,1,21.16,0,21.16,0-6.94-1.35-7.24-7.61-11-11.15ZM86.48,248.09h21.08c-6.93-1.35-7.24-7.61-11-11.11s-7.25-5.16-12.28-5.16c-5.8,0-8.75,3.09-8.16,8.54s4.92,7.73,10.39,7.73m51.06-11.15c-3.77-3.5-7.24-5.12-12.26-5.12-3.22,0-6,2.32-9.83,3.57.47.45,1,1,1.64,1.55,3.77,3.54,4.08,9.8,11,11.15a6.8,6.8,0,0,0-.69,0c6.16,1,21.15,0,21.15,0-7-1.35-7.25-7.61-11-11.15Zm20.51,0c-3.77-3.5-7.22-5.12-12.26-5.12-3.22,0-6,2.32-9.83,3.57.47.45,1,1,1.63,1.55,3.78,3.54,4.11,9.8,11,11.15a6.8,6.8,0,0,0-.69,0c6.18,1,21.16,0,21.16,0-6.94-1.35-7.24-7.61-11-11.15Zm20.53,0c-3.77-3.5-7.24-5.12-12.28-5.12-3.21,0-6,2.32-9.81,3.57.46.45,1,1,1.63,1.55,3.77,3.54,4.07,9.8,11,11.15a6.39,6.39,0,0,0-.66,0c6.14,1,21.14,0,21.14,0-6.94-1.35-7.24-7.61-11-11.15Zm8.21-5.12c-3.22,0-6,2.32-9.83,3.57.48.45,1,1,1.64,1.55,3.77,3.54,4.1,9.8,11,11.15a6.8,6.8,0,0,0-.69,0c7.8.48,13.65,1.44,13.65-5.27s-7.42-10.57-15.8-11v0Zm-1.32-.32a49,49,0,0,0-21.28-70.89m-9.81-3.27a50.08,50.08,0,0,0-10.31-1,58.33,58.33,0,0,0-5.94.3m-5.69,1.07a49,49,0,0,0-29.67,74m52.66-83.16c-.56-4.42-.36-2.14,2.11-2.5,2.7-.37,1.92-5.78,1.92-5.78S167.55,139,171,139s2.27-4.18,6.49-5.37S180.6,131,180.6,131s.77-1.2,4.62-.77,4.24-1.55,4.24-1.55V126l4.22-.77.4-3.43,6.16-.4.75-2.32,5-.75-.4-2.32,1.55-.77-1.55-3.06h4.64l.36-4.22,3.46-1.15-1.54-2.32,2.69-.77-1.15-3.86,2.32-.74V96.75l3.45-1.51-.38-2.7,4.22-.39-.75-2.66v-.41a11.25,11.25,0,0,0,6.52-5.77c2.32-4.6,5.39-5.75,5.39-5.75l-1.55-1.9,3.07-1.57.4-2.67a81.42,81.42,0,0,0,13.1-3.86,14.23,14.23,0,0,0,8.48-9.22s-15.79,2.66-35.83,5-37.35,4.25-46.21,7-1.53,10-12.7,21.54c-6.49,6.7-16.18,3-18.85-1.94s-6.16-15-6.16-15h3.09l-3.09-5.77,3.09-1.54S139,66,132.81,62.92,122,61.39,118.17,64.46c-6.91-.73-8.08,5.07-8.08,5.07s4.63-2,7.71-.81,5.76-1.16,6.93,16.17-7.31,14.25-16.94,13.87c-8.08-1.17-10-3.45-11.93-10s.38-10-7.71-15.79S53.89,62.58,38.47,59.88,1.89,51.42,1.89,51.42s.39,3.09,5,6.15a40.87,40.87,0,0,1,7.31,6.16,46.47,46.47,0,0,1,2.68,3.83,12.38,12.38,0,0,0,6.16,4.63s1.52,2.71,3.07,5A110.27,110.27,0,0,0,37.27,89.13C40,91.41,45,91.41,45,91.41c-1.92,0-2.67,1.17-3.05,3.49a14.87,14.87,0,0,0,6.14,3.86l-.77,2.7,5,1.13-.75,3.84L58.46,108l-1.55,2.28,6.56,1.17-1.55,2.32,5,1.11-1.17,2.35,6.93.74L71.53,121h6.56l-1.54,2.7,5.41.77s10.38,6.91,17.7,8.8,3.86,4.26,13.1,1.2,11.15-.77,10,1.55,1.15,4.24,3.47,9.22,1.15,3.48,3.84,3.48a2,2,0,0,1,1.85,1" fill="none" stroke="#000" stroke-linecap="round" stroke-linejoin="round" stroke-width="2"/><path d="M152.66,148.9c-.11-1.16-.66-2-3.58-4.07-5.41-3.83-7.71-11.57-7.71-11.57l-3.09-.74s-.75,1.15.4,6.52a78.17,78.17,0,0,0,1.92,7.69l-3.47-2.28s-1.54.38-1.92,3.07a7.93,7.93,0,0,0,0,2.12M15.08,63.94l4.6.78m3.37,7.47,7,.25m-3.52,5.38L38.94,79m-5.39,6.18,12.33.34m-1.76,5.9,10-1.29m-6,8.67,10.11-2.08m-5.75,6.18,7.71-1.92m5.77,4.63-7.73,2.34m5,3.79L70.51,109m-3.57,5.82,7-3.5M72.7,118,79.37,114m-1.55,7,7.31-3.86M81,124.18l7.19-3.61m-2.31,5.81a16,16,0,0,0,6.93-3.9m-3.6,6.21a21.9,21.9,0,0,0,7.47-3.48m-1.27,6.47c2.31-.77,7-4.57,7-4.57m72.92,7.45-5.52-1.3M180.6,131l-5.73-2m16.35-3.46-10.59-2.3m14.65-1.79-11.14-2.44m18.51-.34-17.76-3.92m21.2.95-10.81-2.5m10.54-.63-10.54-2.8m16.21-2.16-10.82-1.74m14-2.22-10.93-.83m10.32-3-6.85-1.22m8.87-1.94-6.55-.77m11.4-3.5-8.69-1.09M224,88.67l-8.67-.83m14.23-5.41-9.23.43m14.07-7.76-7.91.77m9.92-4.18-7.23.36m-97.09,77.66c.65,1.15.59,3,.82,4,0,2.58.53,4.31-2.5,5.2s-4,1.43-4.48,4.32c1.31-1.27,2.31-2.27,3.62-1.17a4.61,4.61,0,0,0,3.18,1s-2-2.57.86-3.45,7.93-.7,7.93-.7-3.62-1.71-4.19-2.91a20.1,20.1,0,0,1-1-2.29,16.93,16.93,0,0,1-1.15-4.24m17.44-.81a21.1,21.1,0,0,0,.68,4.68c.27,1.11-1.68,1.54-2.83,2.95,0,0,4.47-.57,4.05,1.61a6.09,6.09,0,0,0,.42,3.71,9.15,9.15,0,0,1,2-1.44,24.25,24.25,0,0,1,3.75.87,5.62,5.62,0,0,1,3.32,2.19,4.78,4.78,0,0,0-2.6-5.79A29.23,29.23,0,0,1,157,155m-.23-.53s-.39,1.55-1.15-4.64a8.31,8.31,0,0,0-.25-1.56" fill="none" stroke="#000" stroke-linecap="round" stroke-linejoin="round" stroke-width="2"/></svg>