<svg xmlns="http://www.w3.org/2000/svg" width="600" height="315.79" viewBox="0 0 600 315.79"><path fill="#bf0a30" d="M0 0h600v315.79H0z"/><path fill="#fff" d="M0 24.29h600v24.29H0zM0 72.87h600v24.29H0zM0 121.46h600v24.29H0zM0 170.04h600v24.29H0zM0 218.62h600v24.29H0zM0 267.21h600v24.29H0z"/><path fill="#002664" d="M0 0h240.02v170.04H0z"/><path fill="#fff" d="M15 4.4l-2.18 6.73H5.75l5.72 4.15L9.28 22 15 17.84 20.72 22l-2.19-6.72 5.72-4.15h-7.07L15 4.4zM45 4.4l-2.18 6.73h-7.07l5.72 4.15L39.29 22 45 17.84 50.72 22l-2.18-6.72 5.71-4.15h-7.06L45 4.4zM75.01 4.4l-2.19 6.73h-7.07l5.72 4.15L69.29 22l5.72-4.16L80.72 22l-2.18-6.72 5.72-4.15h-7.07L75.01 4.4zM105.01 4.4l-2.19 6.73h-7.06l5.71 4.15L99.29 22l5.72-4.16 5.71 4.16-2.18-6.72 5.72-4.15h-7.07l-2.18-6.73zM135.01 4.4l-2.18 6.73h-7.07l5.72 4.15-2.19 6.72 5.72-4.16 5.72 4.16-2.19-6.72 5.72-4.15h-7.07l-2.18-6.73zM165.01 4.4l-2.18 6.73h-7.07l5.72 4.15-2.19 6.72 5.72-4.16 5.72 4.16-2.18-6.72 5.71-4.15h-7.06l-2.19-6.73zM195.01 4.4l-2.18 6.73h-7.07l5.72 4.15L189.3 22l5.71-4.16 5.72 4.16-2.18-6.72 5.71-4.15h-7.06l-2.19-6.73zM221.48 15.28L219.3 22l5.72-4.16 5.71 4.16-2.18-6.72 5.72-4.15h-7.07l-2.18-6.73-2.19 6.73h-7.06l5.71 4.15zM15 32.74l-2.18 6.73H5.75l5.72 4.15-2.19 6.72L15 46.19l5.72 4.15-2.19-6.72 5.72-4.15h-7.07L15 32.74zM45 32.74l-2.18 6.73h-7.07l5.72 4.15-2.18 6.72L45 46.19l5.72 4.15-2.18-6.72 5.71-4.15h-7.06L45 32.74zM75.01 32.74l-2.19 6.73h-7.07l5.72 4.15-2.18 6.72 5.72-4.15 5.71 4.15-2.18-6.72 5.72-4.15h-7.07l-2.18-6.73zM105.01 32.74l-2.19 6.73h-7.06l5.71 4.15-2.18 6.72 5.72-4.15 5.71 4.15-2.18-6.72 5.72-4.15h-7.07l-2.18-6.73zM135.01 32.74l-2.18 6.73h-7.07l5.72 4.15-2.19 6.72 5.72-4.15 5.72 4.15-2.19-6.72 5.72-4.15h-7.07l-2.18-6.73zM165.01 32.74l-2.18 6.73h-7.07l5.72 4.15-2.19 6.72 5.72-4.15 5.72 4.15-2.18-6.72 5.71-4.15h-7.06l-2.19-6.73zM195.01 32.74l-2.18 6.73h-7.07l5.72 4.15-2.18 6.72 5.71-4.15 5.72 4.15-2.18-6.72 5.71-4.15h-7.06l-2.19-6.73zM225.02 32.74l-2.19 6.73h-7.06l5.71 4.15-2.18 6.72 5.72-4.15 5.71 4.15-2.18-6.72 5.72-4.15h-7.07l-2.18-6.73zM15 61.08l-2.18 6.73H5.75l5.72 4.15-2.19 6.72L15 74.53l5.72 4.15-2.19-6.72 5.72-4.15h-7.07L15 61.08zM45 61.08l-2.18 6.73h-7.07l5.72 4.15-2.18 6.72L45 74.53l5.72 4.15-2.18-6.72 5.71-4.15h-7.06L45 61.08zM75.01 61.08l-2.19 6.73h-7.07l5.72 4.15-2.18 6.72 5.72-4.15 5.71 4.15-2.18-6.72 5.72-4.15h-7.07l-2.18-6.73zM105.01 61.08l-2.19 6.73h-7.06l5.71 4.15-2.18 6.72 5.72-4.15 5.71 4.15-2.18-6.72 5.72-4.15h-7.07l-2.18-6.73zM135.01 61.08l-2.18 6.73h-7.07l5.72 4.15-2.19 6.72 5.72-4.15 5.72 4.15-2.19-6.72 5.72-4.15h-7.07l-2.18-6.73zM165.01 61.08l-2.18 6.73h-7.07l5.72 4.15-2.19 6.72 5.72-4.15 5.72 4.15-2.18-6.72 5.71-4.15h-7.06l-2.19-6.73zM195.01 61.08l-2.18 6.73h-7.07l5.72 4.15-2.18 6.72 5.71-4.15 5.72 4.15-2.18-6.72 5.71-4.15h-7.06l-2.19-6.73zM225.02 61.08l-2.19 6.73h-7.06l5.71 4.15-2.18 6.72 5.72-4.15 5.71 4.15-2.18-6.72 5.72-4.15h-7.07l-2.18-6.73zM15 89.42l-2.18 6.72H5.75l5.72 4.16-2.19 6.72 5.72-4.16 5.72 4.16-2.19-6.72 5.72-4.16h-7.07L15 89.42zM45 89.42l-2.18 6.72h-7.07l5.72 4.16-2.18 6.72 5.71-4.16 5.72 4.16-2.18-6.72 5.71-4.16h-7.06L45 89.42zM75.01 89.42l-2.19 6.72h-7.07l5.72 4.16-2.18 6.72 5.72-4.16 5.71 4.16-2.18-6.72 5.72-4.16h-7.07l-2.18-6.72zM105.01 89.42l-2.19 6.72h-7.06l5.71 4.16-2.18 6.72 5.72-4.16 5.71 4.16-2.18-6.72 5.72-4.16h-7.07l-2.18-6.72zM135.01 89.42l-2.18 6.72h-7.07l5.72 4.16-2.19 6.72 5.72-4.16 5.72 4.16-2.19-6.72 5.72-4.16h-7.07l-2.18-6.72zM165.01 89.42l-2.18 6.72h-7.07l5.72 4.16-2.19 6.72 5.72-4.16 5.72 4.16-2.18-6.72 5.71-4.16h-7.06l-2.19-6.72zM195.01 89.42l-2.18 6.72h-7.07l5.72 4.16-2.18 6.72 5.71-4.16 5.72 4.16-2.18-6.72 5.71-4.16h-7.06l-2.19-6.72zM225.02 89.42l-2.19 6.72h-7.06l5.71 4.16-2.18 6.72 5.72-4.16 5.71 4.16-2.18-6.72 5.72-4.16h-7.07l-2.18-6.72zM15 117.76l-2.18 6.72H5.75l5.72 4.16-2.19 6.72 5.72-4.15 5.72 4.15-2.19-6.72 5.72-4.16h-7.07L15 117.76zM45 117.76l-2.18 6.72h-7.07l5.72 4.16-2.18 6.72 5.71-4.15 5.72 4.15-2.18-6.72 5.71-4.16h-7.06L45 117.76zM75.01 117.76l-2.19 6.72h-7.07l5.72 4.16-2.18 6.72 5.72-4.15 5.71 4.15-2.18-6.72 5.72-4.16h-7.07l-2.18-6.72zM105.01 117.76l-2.19 6.72h-7.06l5.71 4.16-2.18 6.72 5.72-4.15 5.71 4.15-2.18-6.72 5.72-4.16h-7.07l-2.18-6.72zM135.01 117.76l-2.18 6.72h-7.07l5.72 4.16-2.19 6.72 5.72-4.15 5.72 4.15-2.19-6.72 5.72-4.16h-7.07l-2.18-6.72zM165.01 117.76l-2.18 6.72h-7.07l5.72 4.16-2.19 6.72 5.72-4.15 5.72 4.15-2.18-6.72 5.71-4.16h-7.06l-2.19-6.72zM195.01 117.76l-2.18 6.72h-7.07l5.72 4.16-2.18 6.72 5.71-4.15 5.72 4.15-2.18-6.72 5.71-4.16h-7.06l-2.19-6.72zM225.02 117.76l-2.19 6.72h-7.06l5.71 4.16-2.18 6.72 5.72-4.15 5.71 4.15-2.18-6.72 5.72-4.16h-7.07l-2.18-6.72zM17.18 152.82L15 146.1l-2.18 6.72H5.75l5.72 4.16-2.19 6.72 5.72-4.15 5.72 4.15-2.19-6.72 5.72-4.16h-7.07zM47.19 152.82L45 146.1l-2.18 6.72h-7.07l5.72 4.16-2.18 6.72 5.71-4.15 5.72 4.15-2.18-6.72 5.71-4.16h-7.06zM77.19 152.82l-2.18-6.72-2.19 6.72h-7.07l5.72 4.16-2.18 6.72 5.72-4.15 5.71 4.15-2.18-6.72 5.72-4.16h-7.07zM107.19 152.82l-2.18-6.72-2.19 6.72h-7.06l5.71 4.16-2.18 6.72 5.72-4.15 5.71 4.15-2.18-6.72 5.72-4.16h-7.07zM137.19 152.82l-2.18-6.72-2.18 6.72h-7.07l5.72 4.16-2.19 6.72 5.72-4.15 5.72 4.15-2.19-6.72 5.72-4.16h-7.07zM167.2 152.82l-2.19-6.72-2.18 6.72h-7.07l5.72 4.16-2.19 6.72 5.72-4.15 5.72 4.15-2.18-6.72 5.71-4.16h-7.06zM197.2 152.82l-2.19-6.72-2.18 6.72h-7.07l5.72 4.16-2.18 6.72 5.71-4.15 5.72 4.15-2.18-6.72 5.71-4.16h-7.06zM227.2 152.82l-2.18-6.72-2.19 6.72h-7.06l5.71 4.16-2.18 6.72 5.72-4.15 5.71 4.15-2.18-6.72 5.72-4.16h-7.07z"/></svg>