<svg xmlns="http://www.w3.org/2000/svg" width="600" height="380" viewBox="0 0 600 380"><title>flag-illinois-dimensions</title><rect x="25.94" y="1.25" width="573.24" height="343.94" stroke-width="0.91" stroke="#50d6cc" stroke-linecap="round" stroke-linejoin="round" fill="#fff"/><path d="M243.73,310.22v-1.55h1.32a2.76,2.76,0,0,0,1.65-.34c.27-.23.4-.83.4-1.8V294.39c0-1-.13-1.57-.4-1.79a2.76,2.76,0,0,0-1.65-.34h-1.32v-1.53h9.61v1.53H252a2.75,2.75,0,0,0-1.66.34c-.26.23-.39.82-.39,1.79v12.14c0,1,.14,1.57.4,1.8a2.74,2.74,0,0,0,1.66.34h1.31v1.55Z" fill="#50d6cc"/><path d="M255,290.72h9.59v1.54h-1.45a2.83,2.83,0,0,0-1.67.33c-.27.23-.4.83-.4,1.79v14.29h4.65a10.18,10.18,0,0,0,3.26-.41,2.75,2.75,0,0,0,1.62-1.29,5.83,5.83,0,0,0,.55-1.78,17.36,17.36,0,0,0,.17-2.65v-.42h1.52v8.1H255v-1.55h1.19a2.86,2.86,0,0,0,1.67-.34c.27-.23.4-.83.4-1.8V294.39c0-1-.13-1.57-.4-1.79a2.81,2.81,0,0,0-1.67-.34H255v-1.54Z" fill="#50d6cc"/><path d="M274.87,290.72h9.59v1.54H283a2.83,2.83,0,0,0-1.67.33c-.27.23-.4.83-.4,1.79v14.29h4.65a10.18,10.18,0,0,0,3.26-.41,2.75,2.75,0,0,0,1.62-1.29,5.83,5.83,0,0,0,.55-1.78,17.36,17.36,0,0,0,.17-2.65v-.42h1.52v8.1H274.87v-1.55h1.2a2.88,2.88,0,0,0,1.67-.34c.27-.23.4-.83.4-1.8V294.39c0-1-.13-1.57-.4-1.79a2.81,2.81,0,0,0-1.67-.34h-1.2Z" fill="#50d6cc"/><path d="M294.78,310.22v-1.55h1.32a2.82,2.82,0,0,0,1.66-.34c.27-.23.4-.83.4-1.8V294.39c0-1-.13-1.57-.4-1.79a2.82,2.82,0,0,0-1.66-.34h-1.32v-1.53h9.62v1.53h-1.31a2.75,2.75,0,0,0-1.66.34c-.26.23-.39.82-.39,1.79v12.14c0,1,.13,1.57.4,1.8a2.74,2.74,0,0,0,1.66.34h1.31v1.55Z" fill="#50d6cc"/><path d="M325.63,310.3h-2.46l-11.94-16.94v13.17c0,1,.13,1.57.4,1.8a2.69,2.69,0,0,0,1.65.34h1.46v1.55h-8.66v-1.55h1.13a2.86,2.86,0,0,0,1.67-.34c.27-.23.4-.83.4-1.8V294.42c0-1-.13-1.58-.4-1.81a2.77,2.77,0,0,0-1.67-.35h-1.13v-1.53h6.54l11.06,15.66v-12c0-1-.13-1.58-.4-1.81a2.74,2.74,0,0,0-1.66-.34h-1.55v-1.53h8.58v1.53h-1a2.72,2.72,0,0,0-1.66.34c-.26.23-.4.84-.4,1.81v15.89h0Z" fill="#50d6cc"/><path d="M333.73,300.46a9.57,9.57,0,0,0,2,6.34,7.13,7.13,0,0,0,10.6,0,11.1,11.1,0,0,0,0-12.67,7.16,7.16,0,0,0-10.61,0A9.52,9.52,0,0,0,333.73,300.46Zm-3.16,0a10.7,10.7,0,0,1,.83-4.22,10.17,10.17,0,0,1,2.39-3.43,9.84,9.84,0,0,1,3.26-2,11.64,11.64,0,0,1,7.95,0,9.84,9.84,0,0,1,3.26,2,10,10,0,0,1,2.4,3.43,11.32,11.32,0,0,1,0,8.46,10.15,10.15,0,0,1-2.4,3.43,9.68,9.68,0,0,1-3.26,2,11.64,11.64,0,0,1-7.95,0,9.68,9.68,0,0,1-3.26-2,10.07,10.07,0,0,1-2.39-3.43A10.83,10.83,0,0,1,330.57,300.46Z" fill="#50d6cc"/><path d="M353.5,310.22v-1.55h1.32a2.82,2.82,0,0,0,1.66-.34c.27-.23.4-.83.4-1.8V294.39c0-1-.13-1.57-.4-1.79a2.82,2.82,0,0,0-1.66-.34H353.5v-1.53h9.62v1.53h-1.31a2.75,2.75,0,0,0-1.66.34c-.26.23-.39.82-.39,1.79v12.14c0,1,.13,1.57.4,1.8a2.74,2.74,0,0,0,1.66.34h1.3v1.55Z" fill="#50d6cc"/><path d="M365.24,310.22v-8.08h1.6a8.23,8.23,0,0,0,2.38,5,6.79,6.79,0,0,0,4.86,1.82,5.32,5.32,0,0,0,3.39-1,3.21,3.21,0,0,0,1.27-2.65,2.66,2.66,0,0,0-1-2.19,8.88,8.88,0,0,0-3.53-1.36l-2.41-.52q-3.91-.89-5.23-2.1a5.27,5.27,0,0,1,.59-7.53,8.15,8.15,0,0,1,5.13-1.46,8.74,8.74,0,0,1,3,.53,9.85,9.85,0,0,1,2.77,1.64l.85-1.76h1.36v7.38h-1.57a7.3,7.3,0,0,0-2-4.53,6.1,6.1,0,0,0-4.39-1.57,5.7,5.7,0,0,0-3.37.87,2.83,2.83,0,0,0-1.2,2.43,2.42,2.42,0,0,0,1,2,7.09,7.09,0,0,0,3,1.16l2.81.58a11.81,11.81,0,0,1,5.29,2.09,4.72,4.72,0,0,1,1.54,3.75,5.49,5.49,0,0,1-2,4.41,7.83,7.83,0,0,1-5.23,1.69,8.87,8.87,0,0,1-3.45-.66,9.64,9.64,0,0,1-3-2.07l-.95,2.15Z" fill="#50d6cc"/><path d="M353.88,210.21s8,15.67,10.58,15.68,10.33.75,13.09.77,7.08-1.27,11.5-.65,6.71.66,9.58,0c2.51-.56,8.44.44,11.62.85,4.42-4.37,10.88-16.35,10.88-16.35L354,210.2" fill="none" stroke="#50d6cc" stroke-width="0.58"/><path d="M212.63,216.89H197.89m21,8.92c-3,.91-10.23-.59-12.94.41" fill="none" stroke="#50d6cc" stroke-width="0.58"/><path d="M384.63,219.47a5,5,0,0,1,6.9.27" fill="none" stroke="#50d6cc" stroke-width="0.58"/><path d="M396.73,219.91a5,5,0,0,1,6.9.28" fill="none" stroke="#50d6cc" stroke-width="0.58"/><path d="M401.5,216.58a5,5,0,0,1,6.9.27" fill="none" stroke="#50d6cc" stroke-width="0.58"/><path d="M400.05,214.18a5,5,0,0,1,6.9.27" fill="none" stroke="#50d6cc" stroke-width="0.58"/><path d="M367.93,215.19a5,5,0,0,1,6.9.26" fill="none" stroke="#50d6cc" stroke-width="0.58"/><path d="M375.08,220.94a5,5,0,0,1,6.9.26" fill="none" stroke="#50d6cc" stroke-width="0.58"/><path d="M365.71,223.4a5,5,0,0,1,6.9.27" fill="none" stroke="#50d6cc" stroke-width="0.58"/><path d="M404.47,222.15a5,5,0,0,1,6.9.25" fill="none" stroke="#50d6cc" stroke-width="0.58"/><path d="M378.58,215.7a5,5,0,0,1,6.9.28" fill="none" stroke="#50d6cc" stroke-width="0.58"/><path d="M361.29,213.82a5,5,0,0,1,6.9.26" fill="none" stroke="#50d6cc" stroke-width="0.58"/><path d="M374.15,218.53a5,5,0,0,1,6.9.27" fill="none" stroke="#50d6cc" stroke-width="0.58"/><path d="M391.36,217.27a5,5,0,0,1,6.9.26" fill="none" stroke="#50d6cc" stroke-width="0.58"/><path d="M395.44,223.6a5,5,0,0,1,6.91.25" fill="none" stroke="#50d6cc" stroke-width="0.58"/><path d="M391.79,213.58c.94-.75,2.89-2.56,6,.27" fill="none" stroke="#50d6cc" stroke-width="0.58"/><path d="M371.26,213.39c.93-.76,3.41-2.55,6.47.28" fill="none" stroke="#50d6cc" stroke-width="0.58"/><path d="M409.08,213.76c.94-.75,2.9-2.55,6,.27" fill="none" stroke="#50d6cc" stroke-width="0.58"/><path d="M387.78,222.3c.94-.76,2.9-2.56,6,.27" fill="none" stroke="#50d6cc" stroke-width="0.58"/><path d="M386.08,214.61c.94-.76,2.9-2.56,6,.27" fill="none" stroke="#50d6cc" stroke-width="0.58"/><path d="M380.17,213.54c.3-.81,1.57-2.95,3.7.3" fill="none" stroke="#50d6cc" stroke-width="0.58"/><path d="M365.29,217.75c.94-.76,2.89-2.55,6,.26" fill="none" stroke="#50d6cc" stroke-width="0.58"/><path d="M374.65,224.36c1.42-1.17,3.33-2.18,6,.25" fill="none" stroke="#50d6cc" stroke-width="0.58"/><path d="M367.08,220.5c1.42-1.17,3.32-2.16,6,.26" fill="none" stroke="#50d6cc" stroke-width="0.58"/><path d="M405.07,219c1.42-1.17,3.32-2.16,6,.26" fill="none" stroke="#50d6cc" stroke-width="0.58"/><path d="M407.63,216.16c1.42-1.17,3.33-2.17,6,.26" fill="none" stroke="#50d6cc" stroke-width="0.58"/><path d="M383.12,224.61c.94-.76,2.91-2.56,6,.27" fill="none" stroke="#50d6cc" stroke-width="0.58"/><path d="M205.49,219.69a5,5,0,0,1,6.9.28" fill="none" stroke="#50d6cc" stroke-width="0.58"/><path d="M209.79,223.53c.94-.77,2.9-2.56,6,.27" fill="none" stroke="#50d6cc" stroke-width="0.58"/><path d="M296.43,202.61l1.87-6.05,1.46-1.88,11,1.46L327,199.69l8.64,1.59,13.83,23.46,14.15,1-12.87,14.93H307.89l-8-4.21-11.84-10.78,16.79-13.47-8.44-9.64Z" fill="#fff"/><path d="M326.6,199.38c2.66-.46,14.06-1.35,17.46,5.19,0,0-.16,0-1.49,0,1.75.12,9.31-2,12.39,7.07a5,5,0,0,0-2.08-.32s7.36-.77,11.6,13.58c.74,2.67-9.47-1-15,.85m14.95-.25c2.29.84,2.72,4.74,3.89,5.94s3.83,2.78,3.62,4.8-3.41,4.92-6.29,5.57-10.76-1.4-13.73-1.09-11.83,3-16.73,2.88-9.89-2.25-14-2.15-11.4.64-13.52-.76m-4.06-3.1c-.53-1.93-1.37-8.32,5.87-10.9a40.21,40.21,0,0,1,4.57-1.12c1.64-.51,2.93-1,4.11-.59s2.28,3,6.33,3.53m2.25-18.82c-1.38-.12-2.45-2.56-5.75-2.15s-8.21,3.75-8.95,8.13-.81,6.15,2.27,9.56" fill="#fff" stroke="#50d6cc" stroke-width="0.58"/><path d="M323.49,215.16V221a.52.52,0,0,0,.55.59h.76v1H320v-1h.81a.52.52,0,0,0,.55-.59v-3.82H320v-1h.31a1.5,1.5,0,0,0,1.56-1h1.59" fill="#50d6cc"/><path d="M332.87,216.84c0,.8-.6,1.17-1.27,1.41a2.2,2.2,0,0,1,1.66,2.15c0,1.89-1.68,2.42-3.46,2.42-1.35,0-3.34-.27-3.34-2a1.82,1.82,0,0,1,1.43-1.84,1.88,1.88,0,0,1-1.16-1.59c0-1.9,1.62-2.38,3.22-2.38C331.14,215,332.87,215.35,332.87,216.84Zm-4,2.62a1.38,1.38,0,0,0-.89,1.12c0,1.07,1,1.34,1.9,1.34.65,0,1.51-.23,1.51-1,0-.35-.21-.61-1.09-.93Zm2.1-1.83a.82.82,0,0,0,.46-.79c0-.77-.83-1-1.44-1s-1.32.15-1.32.84a.61.61,0,0,0,.46.59l1.52.53.32-.21" fill="#50d6cc"/><path d="M336.31,218.62a2.77,2.77,0,0,1,1.89-.56,2.31,2.31,0,0,1,2.54,2.26c0,1.77-1.56,2.5-3.14,2.5-2.42,0-3.56-1.36-3.56-3.59,0-2.54,1.17-4.26,3.86-4.26,1,0,2.53.49,2.53,1.57,0,.77-.45,1.08-1.22,1.08a.9.9,0,0,1-1-.82.72.72,0,0,1,.48-.72,1.08,1.08,0,0,0-.63-.19c-1.27,0-1.79.92-1.79,2.05v.68Zm.14,1.83c0,1,.38,1.39,1,1.39s1-.44,1-1.39-.38-1.4-1-1.4-1,.44-1,1.4" fill="#50d6cc"/><path d="M347.92,216.84c0,.8-.6,1.17-1.27,1.41a2.2,2.2,0,0,1,1.66,2.15c0,1.89-1.69,2.42-3.46,2.42-1.35,0-3.35-.27-3.35-2a1.82,1.82,0,0,1,1.44-1.84,1.88,1.88,0,0,1-1.16-1.59c0-1.9,1.62-2.38,3.22-2.38C346.2,215,347.92,215.35,347.92,216.84Zm-4,2.62a1.39,1.39,0,0,0-.9,1.12c0,1.07,1,1.34,1.9,1.34.66,0,1.51-.23,1.51-1,0-.35-.2-.61-1.09-.93Zm2.1-1.83a.82.82,0,0,0,.46-.79c0-.77-.83-1-1.45-1s-1.31.15-1.31.84a.61.61,0,0,0,.46.59l1.52.53.32-.21" fill="#50d6cc"/><path d="M334.93,229.28v5.86a.52.52,0,0,0,.55.59h.77v1h-4.8v-1h.82a.53.53,0,0,0,.55-.59v-3.83h-1.33v-1h.31a1.48,1.48,0,0,0,1.55-1H335" fill="#50d6cc"/><path d="M344.31,231c0,.81-.59,1.18-1.27,1.41a2.2,2.2,0,0,1,1.66,2.15c0,1.9-1.69,2.43-3.46,2.43-1.35,0-3.34-.28-3.34-2a1.82,1.82,0,0,1,1.43-1.83,1.88,1.88,0,0,1-1.16-1.59c0-1.9,1.62-2.38,3.22-2.38,1.19,0,2.92.37,2.92,1.86Zm-4,2.61a1.42,1.42,0,0,0-.9,1.13c0,1.07,1,1.33,1.9,1.33.65,0,1.52-.22,1.52-1,0-.36-.21-.61-1.1-.93l-1.42-.52Zm2.09-1.8a.84.84,0,0,0,.45-.81c0-.76-.82-.94-1.44-.94s-1.3.12-1.3.84a.57.57,0,0,0,.46.57l1.52.53.31-.19" fill="#50d6cc"/><path d="M350,229.28v5.86a.53.53,0,0,0,.55.59h.76v1H346.5v-1h.81a.52.52,0,0,0,.55-.59v-3.83h-1.33v-1h.31a1.46,1.46,0,0,0,1.54-1H350" fill="#50d6cc"/><path d="M359.36,231c0,.81-.59,1.18-1.27,1.41a2.2,2.2,0,0,1,1.66,2.15c0,1.9-1.69,2.43-3.46,2.43-1.34,0-3.34-.28-3.34-2a1.82,1.82,0,0,1,1.44-1.83,1.88,1.88,0,0,1-1.16-1.59c0-1.9,1.62-2.38,3.22-2.38,1.19,0,2.91.37,2.91,1.86Zm-4,2.61a1.42,1.42,0,0,0-.9,1.13c0,1.07,1,1.33,1.9,1.33.66,0,1.52-.22,1.52-1,0-.36-.21-.61-1.1-.93l-1.42-.52Zm2.09-1.8a.83.83,0,0,0,.46-.81c0-.76-.82-.94-1.44-.94s-1.31.12-1.31.84a.57.57,0,0,0,.46.57l1.52.53.31-.19" fill="#50d6cc"/><path d="M289.35,187.17c1.59,5,11.85,19.16,25.67,18.82-.76,4-20.47,44.44-73.27,47.29-14.89-50.3,12.56-81.85,21.94-84.9,3.13,12.76,20.57,18.54,25.65,18.79Z" fill="#fff" stroke="#50d6cc" stroke-width="0.64"/><path d="M288,189.39c1.46,4.52,6.49,25.32,14.84,32.17-3.26,3.45-24.29,26.86-58.32,28.22-11-34.37,2.87-59.21,7.61-67.16,10.8,7.9,31.21,6.54,35.86,6.77" fill="#fff"/><path d="M262.15,171.77c5.55,12,20.36,16.24,25.74,17.43,1.81,9,19.67,20,23.65,19.11-.7,4.92-10.06,15.13-13.17,17.87-.05-.06-49.92-36.54-49.91-36.55,1.4-4.22,10.56-17.79,13.69-17.86" fill="#fff" stroke="#50d6cc" stroke-width="0.64"/><path d="M293.5,226.49s-6.27,8.77-6.27,8.76c1.24-.84,6.8-5.09,9-6.85C296.16,228.42,293.53,226.49,293.5,226.49Z" fill="#fff" stroke="#50d6cc" stroke-width="0.64"/><path d="M247.13,192.55c-3.25,7.29-3.44,8.81-5.17,15.68l9.12-12.77S247.14,192.54,247.13,192.55Z" fill="#fff" stroke="#50d6cc" stroke-width="0.64"/><path d="M254,197.59l-13.48,18.85a47.65,47.65,0,0,0-.15,10.76l18.61-26Z" fill="#fff" stroke="#50d6cc" stroke-width="0.64"/><path d="M261.92,203.32l-21.17,29.56a75.9,75.9,0,0,0,1.42,8.61L266.86,207Z" fill="#fff" stroke="#50d6cc" stroke-width="0.64"/><path d="M277.73,214.89l-24.45,34.19c1.48-.25,7.7-1.46,9-2.15l20.4-28.4Z" fill="#fff" stroke="#50d6cc" stroke-width="0.64"/><path d="M269.92,209.2l-26.52,37c.24.73.89,2.45,1.12,3.52,1.73,0,3.42,0,4-.3l26.27-36.64Z" fill="#fff" stroke="#50d6cc" stroke-width="0.64"/><path d="M285.63,220.7l-17.49,24.49c2-.55,9.95-4.65,11.24-5.34l11.21-15.54Z" fill="#fff" stroke="#50d6cc" stroke-width="0.64"/><polygon points="258.28 185.23 258.97 187.07 259.48 185.28 261.3 185.36 259.78 184.24 260.29 182.44 258.75 183.49 257.2 182.36 257.85 184.1 256.33 185.14 258.28 185.23" fill="#50d6cc"/><polygon points="266.35 184.65 267.05 186.49 267.56 184.7 269.38 184.78 267.86 183.66 268.37 181.86 266.83 182.91 265.28 181.78 265.93 183.52 264.4 184.56 266.35 184.65" fill="#50d6cc"/><polygon points="261.43 192.09 261.94 190.28 260.4 191.33 258.85 190.2 259.5 191.94 257.98 192.98 259.93 193.07 260.62 194.91 261.13 193.12 262.95 193.2 261.43 192.09" fill="#50d6cc"/><polygon points="269.52 192.64 271.34 192.72 269.82 191.6 270.34 189.8 268.79 190.85 267.25 189.72 267.9 191.46 266.37 192.5 268.32 192.59 269.01 194.43 269.52 192.64" fill="#50d6cc"/><polygon points="277.19 192.44 277.88 194.28 278.4 192.49 280.22 192.57 278.69 191.45 279.21 189.65 277.67 190.7 276.12 189.57 276.77 191.31 275.25 192.35 277.19 192.44" fill="#50d6cc"/><polygon points="288.15 200.44 288.84 202.28 289.35 200.49 291.17 200.57 289.65 199.45 290.17 197.65 288.62 198.7 287.07 197.57 287.73 199.31 286.2 200.35 288.15 200.44" fill="#50d6cc"/><polygon points="280.32 202.62 280.83 200.82 282.65 200.9 281.13 199.79 281.64 197.98 280.1 199.04 278.55 197.91 279.2 199.65 277.68 200.69 279.63 200.77 280.32 202.62" fill="#50d6cc"/><polygon points="272.52 200.06 273.04 198.25 271.49 199.3 269.94 198.17 270.6 199.91 269.07 200.95 271.02 201.04 271.71 202.88 272.22 201.09 274.04 201.17 272.52 200.06" fill="#50d6cc"/><polygon points="283.31 208.1 283.83 206.3 282.29 207.35 280.74 206.22 281.39 207.96 279.87 209 281.81 209.09 282.5 210.93 283.02 209.14 284.84 209.22 283.31 208.1" fill="#50d6cc"/><polygon points="290.86 210.24 291.38 208.45 293.19 208.53 291.67 207.42 292.19 205.61 290.64 206.66 289.1 205.53 289.75 207.27 288.22 208.31 290.17 208.4 290.86 210.24" fill="#50d6cc"/><polygon points="297.78 207.63 298.47 209.48 298.99 207.68 300.81 207.76 299.28 206.65 299.8 204.84 298.26 205.9 296.71 204.76 297.36 206.51 295.83 207.55 297.78 207.63" fill="#50d6cc"/><polygon points="293.11 215.27 293.63 213.47 292.08 214.52 290.53 213.39 291.19 215.13 289.66 216.17 291.61 216.25 292.3 218.1 292.81 216.31 294.63 216.38 293.11 215.27" fill="#50d6cc"/><polygon points="300.95 215.62 302.77 215.7 301.25 214.58 301.77 212.78 300.22 213.83 298.68 212.7 299.33 214.44 297.8 215.48 299.75 215.56 300.44 217.41 300.95 215.62" fill="#50d6cc"/><path d="M377,203s-8.89-4.4-9.85-4.82a10.21,10.21,0,0,0-3.19-.33s.2,2,1.06,2.36,11.34,4.18,11.34,4.18m1.39-2.73s-7-4.22-8.67-5.08a7.62,7.62,0,0,0-3.84-.58s1,1.85,1.92,2.26S377,203,377,203m33.43,6.55s5.2-.71,6.64-1,4-3.52,4-3.52-2.77-1.57-4.27-1.3S402.1,208,402.1,208s14.53-3.78,15.85-4.24,3-3.23,3-3.23a7.31,7.31,0,0,0-3.4-.31c-1.18.39-16.09,5.54-16.09,5.54s16.56-5.51,17.89-6.18,3-3.53,3-3.53-2.27-.49-3-.11c-.43.22-7.07,3.3-12.19,6.07,4.52-2.21,10.06-4.93,11.23-5.55,2-1.06,6.07-6.41,6.07-6.41s-3.86.49-5,1.18-18.91,12.17-18.91,12.17,19.31-12.21,20.88-13.23,3.35-5.35,3.35-5.35-3.11.18-4.3,1.06l-20.94,15.65s21.17-15.83,22.54-16.94,2.71-5.28,2.71-5.28-3.1-.17-4.35.76-21.74,20.5-21.74,20.5,22.41-21.33,24.19-22.91,3.63-6.2,3.63-6.2-3.38.64-4.42,1.81S398,200,398,200s26.11-29.09,27.4-30.45,2.13-5.46,2.13-5.46a16.6,16.6,0,0,0-4.48,2.74c-1.33,1.4-26,32.32-26,32.32l25.27-31.53a15.1,15.1,0,0,0,2.13-5.35s-3.28,1.16-4.63,2.94-23.56,33.25-23.56,33.25,18.54-26.42,19.14-27.2.64-3.53.64-3.53a5.5,5.5,0,0,0-2.4,1.39c-.64,1-18,28.8-18,28.8s18.8-30,19.46-31.16a6.83,6.83,0,0,0,.43-3.3,5.09,5.09,0,0,0-2.29,1.28c-.72.88-18.35,32.81-18.35,32.81s19.29-34.65,19.9-35.7.64-4.38.64-4.38a8.66,8.66,0,0,0-3.3,1.87c-.93,1.13-17.87,38-17.87,38s18.42-39.09,19.47-41.43a21.71,21.71,0,0,0,1.28-6.1s-2.32.53-3.14,1.83-18.73,45-18.73,45l19.85-48.19.64-4.81s-3.89,2.57-4.47,4.37c-.29.91-7.55,21.6-11.32,33.61,4-11.94,11-32.54,11.22-33.07.43-1-.05-3.62-.05-3.62s-2.69,2.3-3.15,3.84c-.21.71-5.19,17.89-8.17,28.92,2.28-7.69,6-21.23,6.24-21.87.53-1.59-.41-4.59-.41-4.59a14.69,14.69,0,0,0-2.13,4.48c-.43,1.83-6.25,26.87-8.58,36.87,2.27-9.28,7.51-32.49,7.93-34.08.49-1.88-1.16-5.13-1.16-5.13s-1.85,1.68-2,3c-.12.95-3.22,21.2-5,32.56,1.92-11.63,4.78-32.85,5-34.15.25-1.82-1.38-5.26-1.38-5.26s-1.66,1.4-1.71,2.32-4.13,44.41-4.13,44.41,4.29-45.66,4.46-47.36-1.38-4.6-1.38-4.6a4.11,4.11,0,0,0-1.28,2.13c-.06.68-1,20.84-1.7,35.29.91-15,1.73-36.64,1.81-38.08a7.32,7.32,0,0,0-1.49-4.26,6,6,0,0,0-1.17,3.43C389.35,145.31,389,196,389,196s.51-54.12.49-55.83-2.34-5.14-2.34-5.14-1.83,2.79-1.7,5.25c.09,1.95,2.6,55.71,2.6,55.71s-2.06-47.86-2.4-50.37-3-4.49-3-4.49a16.6,16.6,0,0,0-.75,6c.22,3.2,4,35.21,4,35.21-1.5-12.39-3.49-28.81-3.61-29.84-.19-1.66-3.14-4.92-3.14-4.92a45.87,45.87,0,0,0,.27,7.75c.3,1.57,7.41,40.79,7.41,40.79s-6.67-37-7.1-39.13a7.29,7.29,0,0,0-2.54-3.75,23.27,23.27,0,0,0,.2,7.06c.33,1.58,8.48,35.83,8.48,35.83-.58-2.9-8.06-34.08-8.48-35.83a9.12,9.12,0,0,0-1.9-3.42s-.47,3.49,0,4.91,9.66,34.66,9.66,34.66-9.95-35-11.14-38.29c-.74-2.06-3.55-4.81-3.55-4.81a17.78,17.78,0,0,0,.52,4.86c.42,1,7.55,20.49,11.66,31.24-4.39-11.75-12.72-34.15-13.09-35.23-.49-1.5-4.46-5.14-4.46-5.14s-.65,2.35-.11,3.52,19.34,44.11,19.34,44.11-17.58-40.15-18.81-42.94-5.53-5-5.53-5,.33,5.41,1.48,7.61,21.89,40.86,21.89,40.86-19.27-36.1-20-37.34-4.46-3.11-4.46-3.11.76,4.35,1.9,6.11c.84,1.27,18.9,29.51,18.9,29.51-5.76-9.17-16.84-26.69-17.62-27.48a28.38,28.38,0,0,0-4.84-3s2.13,5.83,3.45,7.48,21.59,28.26,21.59,28.26-20.11-26.6-21.17-27.65c-1.21-1.22-4.25-2-4.25-2s2,4.65,3.51,6.41,20.2,24,20.2,24-17.09-20.6-18.71-22.26a9.37,9.37,0,0,0-4.69-2,29.93,29.93,0,0,0,4.57,7.06c2.61,2.7,17.87,18,17.87,18" fill="none" stroke="#50d6cc" stroke-width="0.14"/><path d="M375.79,205.91s-13.44-2.74-15.17-3-7.62.47-7.62.47,5.59,2.94,8.3,3.11,13.95,1.14,13.95,1.14" fill="none" stroke="#50d6cc" stroke-width="0.14"/><path d="M379.62,199.24s-13.16-14-14.67-15-5-1.08-5-1.08.33,3.25,2,4.38,16.76,12.7,16.76,12.7-8.15-6.39-9.57-7.44-4.58-.54-4.58-.54a24.42,24.42,0,0,0,3.89,4.17c1.57,1.08,9.32,5.3,9.32,5.3m-1.4,2.72s-10.68-4-12.62-4.61-8.41-.32-8.41-.32,3.58,3,5.27,3.37,15.17,3,15.17,3m-.54,1.67s-13.95-1.42-15.22-1.24a42.77,42.77,0,0,0-5.43,1.91,42.16,42.16,0,0,0,5.64,1.09c1.52,0,14.9-.74,14.9-.74" fill="none" stroke="#50d6cc" stroke-width="0.14"/><path d="M398.23,210.2a9.3,9.3,0,1,0-18.6,0" fill="none" stroke="#50d6cc" stroke-width="0.58"/><path d="M226,236c-.69-1.3-.8-4.52-.8-4.52s-.24,3.85-1.14,5.31" fill="#fff" stroke="#50d6cc" stroke-width="0.55"/><path d="M225.22,230.3c0,1.77.76,5.69,1.44,6.2" fill="#fff" stroke="#fff" stroke-width="0.55"/><path d="M241.79,258.06a12,12,0,0,1-.65-3.66s-.19,3.12-.93,4.3" fill="#fff" stroke="#50d6cc" stroke-width="0.55"/><path d="M241.18,253.45c0,1.42.61,4.6,1.16,5" fill="#fff" stroke="#fff" stroke-width="0.44"/><path d="M296.18,268.15c.66-1.32.66-4.55.66-4.55s.36,3.84,1.31,5.27" fill="#fff" stroke="#50d6cc" stroke-width="0.55"/><path d="M296.76,262.42c0,1.78-.58,5.73-1.23,6.26" fill="#fff" stroke="#fff" stroke-width="0.55"/><path d="M324.77,266.82c.66-1.32.66-4.54.66-4.54s.36,3.84,1.32,5.28" fill="#fff" stroke="#50d6cc" stroke-width="0.55"/><path d="M325.36,261.11c0,1.76-.59,5.72-1.24,6.24" fill="#fff" stroke="#fff" stroke-width="0.55"/><path d="M228.74,242.86c.66-1.33.66-4.54.66-4.54s.37,3.83,1.31,5.28" fill="#fff" stroke="#50d6cc" stroke-width="0.55"/><path d="M229.32,237.15c0,1.77-.58,5.72-1.24,6.26" fill="#fff" stroke="#fff" stroke-width="0.55"/><path d="M271.59,266.15c.65-1.32.66-4.55.66-4.55s.35,3.84,1.31,5.29" fill="#fff" stroke="#50d6cc" stroke-width="0.55"/><path d="M272.17,260.42c0,1.78-.58,5.73-1.24,6.25" fill="#fff" stroke="#fff" stroke-width="0.55"/><path d="M356.13,272.17a14.73,14.73,0,0,1-.79-4.52s-.25,3.84-1.15,5.3" fill="#fff" stroke="#50d6cc" stroke-width="0.55"/><path d="M355.38,266.48c.05,1.76.76,5.69,1.43,6.19" fill="#fff" stroke="#fff" stroke-width="0.55"/><path d="M282.18,270.3a12.78,12.78,0,0,1-.72-4.07s-.22,3.46-1,4.77" fill="#fff" stroke="#50d6cc" stroke-width="0.55"/><path d="M281.49,265.18c0,1.57.69,5.12,1.29,5.56" fill="#fff" stroke="#fff" stroke-width="0.49"/><path d="M286.16,272.63c.66-1.32.66-4.55.66-4.55s.36,3.84,1.32,5.27" fill="#fff" stroke="#50d6cc" stroke-width="0.55"/><path d="M286.74,266.92c0,1.75-.58,5.72-1.23,6.24" fill="#fff" stroke="#fff" stroke-width="0.55"/><path d="M293.31,270.57c-.71-1.29-.8-4.52-.8-4.52s-.24,3.85-1.15,5.31" fill="#fff" stroke="#50d6cc" stroke-width="0.55"/><path d="M292.56,264.88c0,1.77.76,5.69,1.42,6.21" fill="#fff" stroke="#fff" stroke-width="0.55"/><path d="M291.38,280.31c-.7-1.3-.8-4.52-.8-4.52s-.24,3.85-1.14,5.3" fill="#fff" stroke="#50d6cc" stroke-width="0.55"/><path d="M290.63,274.62c0,1.75.76,5.69,1.42,6.19" fill="#fff" stroke="#fff" stroke-width="0.55"/><path d="M311.68,266A13.4,13.4,0,0,1,311,262s-.21,3.47-1,4.79" fill="#fff" stroke="#50d6cc" stroke-width="0.55"/><path d="M311,260.91c0,1.6.68,5.13,1.29,5.59" fill="#fff" stroke="#fff" stroke-width="0.49"/><path d="M313.8,277.39a14.56,14.56,0,0,1-.8-4.52s-.24,3.83-1.15,5.3" fill="#fff" stroke="#50d6cc" stroke-width="0.55"/><path d="M313,271.69c0,1.76.77,5.7,1.44,6.18" fill="#fff" stroke="#fff" stroke-width="0.55"/><path d="M306.56,274.51c.66-1.32.66-4.54.66-4.54s.37,3.84,1.31,5.28" fill="#fff" stroke="#50d6cc" stroke-width="0.55"/><path d="M307.13,268.79c0,1.77-.58,5.72-1.23,6.24" fill="#fff" stroke="#fff" stroke-width="0.55"/><path d="M301.23,280.76c.65-1.32.64-4.54.64-4.54s.38,3.83,1.32,5.26" fill="#fff" stroke="#50d6cc" stroke-width="0.55"/><path d="M301.8,275.05c0,1.76-.57,5.71-1.23,6.24" fill="#fff" stroke="#fff" stroke-width="0.55"/><path d="M302.15,265.86a11.57,11.57,0,0,0,.53-3.68s.3,3.1,1.07,4.27" fill="#fff" stroke="#50d6cc" stroke-width="0.55"/><path d="M302.62,261.22c0,1.43-.47,4.64-1,5.07" fill="#fff" stroke="#fff" stroke-width="0.44"/><path d="M323.11,280.1a12,12,0,0,0,.54-3.68s.29,3.1,1.06,4.27" fill="#fff" stroke="#50d6cc" stroke-width="0.55"/><path d="M323.58,275.46c0,1.43-.46,4.64-1,5.05" fill="#fff" stroke="#fff" stroke-width="0.44"/><path d="M318.44,265.49a11.81,11.81,0,0,0,.53-3.68s.29,3.11,1.07,4.27" fill="#fff" stroke="#50d6cc" stroke-width="0.55"/><path d="M318.91,260.86c0,1.44-.46,4.63-1,5.06" fill="#fff" stroke="#fff" stroke-width="0.44"/><path d="M308.31,282c.66-1.32.66-4.54.66-4.54s.37,3.83,1.31,5.28" fill="#fff" stroke="#50d6cc" stroke-width="0.55"/><path d="M308.88,276.23c0,1.77-.58,5.72-1.23,6.24" fill="#fff" stroke="#fff" stroke-width="0.55"/><path d="M317.36,282.37c.66-1.32.65-4.53.65-4.53s.37,3.82,1.32,5.26" fill="#fff" stroke="#50d6cc" stroke-width="0.55"/><path d="M317.94,276.66c0,1.77-.58,5.72-1.24,6.24" fill="#fff" stroke="#fff" stroke-width="0.55"/><path d="M296.6,279.45c-.7-1.3-.79-4.52-.79-4.52s-.25,3.85-1.15,5.31" fill="#fff" stroke="#50d6cc" stroke-width="0.55"/><path d="M295.84,273.76c0,1.77.76,5.69,1.44,6.19" fill="#fff" stroke="#fff" stroke-width="0.55"/><path d="M298.89,273.5a14.78,14.78,0,0,0,.65-4.55s.38,3.83,1.32,5.26" fill="#fff" stroke="#50d6cc" stroke-width="0.55"/><path d="M299.46,267.77c0,1.77-.57,5.73-1.23,6.25" fill="#fff" stroke="#fff" stroke-width="0.55"/><path d="M284.25,277.52c-.7-1.3-.8-4.52-.8-4.52s-.24,3.83-1.15,5.31" fill="#fff" stroke="#50d6cc" stroke-width="0.55"/><path d="M283.5,271.82c0,1.78.75,5.71,1.42,6.2" fill="#fff" stroke="#fff" stroke-width="0.55"/><path d="M277.54,275a14.69,14.69,0,0,0,.65-4.54s.37,3.84,1.31,5.28" fill="#fff" stroke="#50d6cc" stroke-width="0.55"/><path d="M278.11,269.25c0,1.77-.57,5.72-1.23,6.26" fill="#fff" stroke="#fff" stroke-width="0.55"/><path d="M256.57,268c.65-1.32.65-4.53.65-4.53s.37,3.84,1.31,5.27" fill="#fff" stroke="#50d6cc" stroke-width="0.55"/><path d="M257.14,262.24c0,1.77-.57,5.72-1.23,6.24" fill="#fff" stroke="#fff" stroke-width="0.55"/><path d="M264.18,271.37c-.7-1.31-.8-4.52-.8-4.52s-.24,3.83-1.15,5.3" fill="#fff" stroke="#50d6cc" stroke-width="0.55"/><path d="M263.42,265.68c.05,1.76.76,5.67,1.43,6.19" fill="#fff" stroke="#fff" stroke-width="0.55"/><path d="M267.27,272.67a14.85,14.85,0,0,0,.66-4.55s.36,3.84,1.3,5.28" fill="#fff" stroke="#50d6cc" stroke-width="0.55"/><path d="M267.84,267c0,1.77-.57,5.72-1.23,6.25" fill="#fff" stroke="#fff" stroke-width="0.55"/><path d="M274.91,273.48a12.26,12.26,0,0,1-.64-3.66s-.19,3.1-.93,4.29" fill="#fff" stroke="#50d6cc" stroke-width="0.55"/><path d="M274.31,268.86c0,1.43.6,4.62,1.15,5" fill="#fff" stroke="#fff" stroke-width="0.44"/><path d="M278.29,267.89c-.7-1.3-.79-4.52-.79-4.52s-.25,3.85-1.15,5.31" fill="#fff" stroke="#50d6cc" stroke-width="0.55"/><path d="M277.54,262.2c0,1.77.76,5.69,1.44,6.19" fill="#fff" stroke="#fff" stroke-width="0.55"/><path d="M263.87,261c.66-1.32.66-4.54.66-4.54s.36,3.84,1.31,5.28" fill="#fff" stroke="#50d6cc" stroke-width="0.55"/><path d="M264.45,255.24c0,1.76-.58,5.72-1.24,6.24" fill="#fff" stroke="#fff" stroke-width="0.55"/><path d="M251.94,265.22a14.6,14.6,0,0,1-.79-4.54s-.25,3.84-1.15,5.31" fill="#fff" stroke="#50d6cc" stroke-width="0.55"/><path d="M251.18,259.5c0,1.78.76,5.72,1.43,6.21" fill="#fff" stroke="#fff" stroke-width="0.55"/><path d="M244.49,260.63a14.88,14.88,0,0,0,.66-4.55s.36,3.84,1.31,5.27" fill="#fff" stroke="#50d6cc" stroke-width="0.55"/><path d="M245.06,254.91c0,1.76-.58,5.72-1.23,6.24" fill="#fff" stroke="#fff" stroke-width="0.55"/><path d="M254.39,260.29c-.7-1.31-.8-4.52-.8-4.52s-.24,3.84-1.14,5.3" fill="#fff" stroke="#50d6cc" stroke-width="0.55"/><path d="M253.64,254.59c0,1.77.75,5.71,1.43,6.2" fill="#fff" stroke="#fff" stroke-width="0.55"/><path d="M259.52,259.74a11.88,11.88,0,0,0,.53-3.68s.3,3.09,1.07,4.27" fill="#fff" stroke="#50d6cc" stroke-width="0.55"/><path d="M260,255.1c0,1.42-.46,4.64-1,5.06" fill="#fff" stroke="#fff" stroke-width="0.44"/><path d="M305.68,265.68a13.06,13.06,0,0,0,.59-4.08s.33,3.46,1.19,4.74" fill="#fff" stroke="#50d6cc" stroke-width="0.55"/><path d="M306.2,260.55c0,1.59-.52,5.14-1.11,5.62" fill="#fff" stroke="#fff" stroke-width="0.49"/><path d="M314.39,265.54c.66-1.32.66-4.55.66-4.55s.36,3.84,1.32,5.28" fill="#fff" stroke="#50d6cc" stroke-width="0.55"/><path d="M315,259.82c0,1.75-.58,5.72-1.24,6.25" fill="#fff" stroke="#fff" stroke-width="0.55"/><path d="M322.65,272.51a11.89,11.89,0,0,1-.64-3.66s-.19,3.11-.93,4.3" fill="#fff" stroke="#50d6cc" stroke-width="0.55"/><path d="M322,267.89c0,1.44.61,4.6,1.16,5" fill="#fff" stroke="#fff" stroke-width="0.44"/><path d="M331.12,278.17a10.37,10.37,0,0,1-.59-3.3,12.06,12.06,0,0,1-.84,3.88" fill="#fff" stroke="#50d6cc" stroke-width="0.55"/><path d="M330.56,274c0,1.29.56,4.14,1,4.51" fill="#fff" stroke="#fff" stroke-width="0.4"/><path d="M327.69,274.6a14.6,14.6,0,0,0,.66-4.55s.37,3.83,1.32,5.26" fill="#fff" stroke="#50d6cc" stroke-width="0.55"/><path d="M328.27,268.86c0,1.77-.58,5.74-1.23,6.26" fill="#fff" stroke="#fff" stroke-width="0.55"/><path d="M332,266.7c-.69-1.29-.79-4.52-.79-4.52s-.25,3.84-1.15,5.31" fill="#fff" stroke="#50d6cc" stroke-width="0.55"/><path d="M331.21,261c0,1.77.76,5.69,1.43,6.21" fill="#fff" stroke="#fff" stroke-width="0.55"/><path d="M316.41,272.7c.66-1.32.66-4.53.66-4.53s.36,3.84,1.31,5.27" fill="#fff" stroke="#50d6cc" stroke-width="0.55"/><path d="M317,267c0,1.77-.58,5.72-1.23,6.24" fill="#fff" stroke="#fff" stroke-width="0.55"/><path d="M335,272c-.71-1.31-.8-4.52-.8-4.52s-.24,3.82-1.15,5.29" fill="#fff" stroke="#50d6cc" stroke-width="0.55"/><path d="M334.19,266.24c0,1.78.75,5.72,1.42,6.2" fill="#fff" stroke="#fff" stroke-width="0.55"/><path d="M351.88,264.47c-.7-1.31-.8-4.52-.8-4.52s-.24,3.84-1.14,5.3" fill="#fff" stroke="#50d6cc" stroke-width="0.55"/><path d="M351.12,258.78c.05,1.76.77,5.69,1.45,6.19" fill="#fff" stroke="#fff" stroke-width="0.55"/><path d="M335.75,259.19c.65-1.32.65-4.53.65-4.53s.37,3.82,1.32,5.26" fill="#fff" stroke="#50d6cc" stroke-width="0.55"/><path d="M336.32,253.47c0,1.77-.57,5.72-1.22,6.25" fill="#fff" stroke="#fff" stroke-width="0.55"/><path d="M350,272.92c.66-1.32.66-4.53.66-4.53s.35,3.84,1.31,5.27" fill="#fff" stroke="#50d6cc" stroke-width="0.55"/><path d="M350.59,267.23c0,1.75-.58,5.69-1.24,6.24" fill="#fff" stroke="#fff" stroke-width="0.55"/><path d="M360.51,261c.66-1.32.66-4.54.66-4.54s.36,3.83,1.31,5.28" fill="#fff" stroke="#50d6cc" stroke-width="0.55"/><path d="M361.09,255.15c0,1.76-.58,5.71-1.23,6.24" fill="#fff" stroke="#fff" stroke-width="0.55"/><path d="M341.7,274.83c-.69-1.3-.79-4.52-.79-4.52s-.25,3.85-1.15,5.3" fill="#fff" stroke="#50d6cc" stroke-width="0.55"/><path d="M340.94,269.14c.05,1.76.76,5.7,1.44,6.19" fill="#fff" stroke="#fff" stroke-width="0.55"/><path d="M340.85,264.43c.66-1.33.66-4.53.66-4.53s.37,3.82,1.31,5.27" fill="#fff" stroke="#50d6cc" stroke-width="0.55"/><path d="M341.43,258.71c0,1.77-.58,5.72-1.23,6.24" fill="#fff" stroke="#fff" stroke-width="0.55"/><path d="M345.93,267.37a11.69,11.69,0,0,1-.65-3.67s-.2,3.13-.92,4.32" fill="#fff" stroke="#50d6cc" stroke-width="0.55"/><path d="M345.31,262.76c0,1.44.61,4.61,1.16,5" fill="#fff" stroke="#fff" stroke-width="0.44"/><path d="M330.27,257.43c.65-1.32.65-4.55.65-4.55s.38,3.84,1.32,5.27" fill="#fff" stroke="#50d6cc" stroke-width="0.55"/><path d="M330.84,251.71c0,1.75-.57,5.72-1.23,6.24" fill="#fff" stroke="#fff" stroke-width="0.55"/><path d="M355.07,264.87c.66-1.34.66-4.55.66-4.55s.37,3.83,1.31,5.26" fill="#fff" stroke="#50d6cc" stroke-width="0.55"/><path d="M355.65,259.15c0,1.77-.58,5.72-1.23,6.25" fill="#fff" stroke="#fff" stroke-width="0.55"/><path d="M346.81,276.07a14.77,14.77,0,0,1-.79-4.52s-.25,3.83-1.15,5.3" fill="#fff" stroke="#50d6cc" stroke-width="0.55"/><path d="M346.06,270.36c0,1.78.75,5.71,1.43,6.21" fill="#fff" stroke="#fff" stroke-width="0.55"/><path d="M345.28,259.14a11.81,11.81,0,0,0,.53-3.68s.29,3.12,1.07,4.27" fill="#fff" stroke="#50d6cc" stroke-width="0.55"/><path d="M345.74,254.52c0,1.43-.46,4.62-1,5" fill="#fff" stroke="#fff" stroke-width="0.44"/><path d="M321.75,250.85c.66-1.34.66-4.56.66-4.56s.36,3.84,1.31,5.28" fill="#fff" stroke="#50d6cc" stroke-width="0.55"/><path d="M322.33,245.12c0,1.76-.58,5.71-1.24,6.24" fill="#fff" stroke="#fff" stroke-width="0.55"/><path d="M341.62,255.53a10.56,10.56,0,0,1-.58-3.3,12.06,12.06,0,0,1-.84,3.88" fill="#fff" stroke="#50d6cc" stroke-width="0.55"/><path d="M341.07,251.39c0,1.27.55,4.14,1,4.51" fill="#fff" stroke="#fff" stroke-width="0.4"/><path d="M356.52,256.74a13.13,13.13,0,0,1-.72-4.08s-.21,3.46-1,4.77" fill="#fff" stroke="#50d6cc" stroke-width="0.55"/><path d="M355.84,251.61c0,1.59.68,5.13,1.29,5.58" fill="#fff" stroke="#fff" stroke-width="0.49"/><path d="M328.89,250.17a14.68,14.68,0,0,1-.79-4.51s-.25,3.83-1.14,5.3" fill="#fff" stroke="#50d6cc" stroke-width="0.55"/><path d="M328.13,244.49c.05,1.75.76,5.68,1.44,6.19" fill="#fff" stroke="#fff" stroke-width="0.55"/><path d="M315.43,249.32c-.71-1.31-.8-4.52-.8-4.52s-.25,3.84-1.15,5.3" fill="#fff" stroke="#50d6cc" stroke-width="0.55"/><path d="M314.66,243.62c0,1.76.77,5.7,1.44,6.2" fill="#fff" stroke="#fff" stroke-width="0.55"/><path d="M335.87,249.92a11,11,0,0,1-.58-3.31,12.06,12.06,0,0,1-.84,3.88" fill="#fff" stroke="#50d6cc" stroke-width="0.55"/><path d="M346.61,252.31a11.85,11.85,0,0,0,.53-3.68s.3,3.09,1.07,4.26" fill="#fff" stroke="#50d6cc" stroke-width="0.55"/><path d="M347.08,247.68c0,1.43-.47,4.63-1,5" fill="#fff" stroke="#fff" stroke-width="0.44"/><path d="M351.15,255.22c-.71-1.31-.8-4.52-.8-4.52s-.24,3.84-1.15,5.3" fill="#fff" stroke="#50d6cc" stroke-width="0.55"/><path d="M350.39,249.53c.05,1.76.76,5.69,1.44,6.18" fill="#fff" stroke="#fff" stroke-width="0.55"/><path d="M349.34,248.54a13.06,13.06,0,0,0,.59-4.08s.33,3.45,1.19,4.74" fill="#fff" stroke="#50d6cc" stroke-width="0.55"/><path d="M360,268.07a13.11,13.11,0,0,0,.59-4.09s.33,3.45,1.19,4.74" fill="#fff" stroke="#50d6cc" stroke-width="0.55"/><path d="M360.49,262.92c0,1.59-.52,5.15-1.11,5.61" fill="#fff" stroke="#fff" stroke-width="0.49"/><path d="M339.65,249.72c.66-1.33.66-4.54.66-4.54s.36,3.84,1.31,5.27" fill="#fff" stroke="#50d6cc" stroke-width="0.55"/><path d="M340.22,244c0,1.77-.57,5.72-1.23,6.25" fill="#fff" stroke="#fff" stroke-width="0.55"/><path d="M337.8,269.86a11.85,11.85,0,0,0,.53-3.68s.3,3.09,1.06,4.27" fill="#fff" stroke="#50d6cc" stroke-width="0.55"/><path d="M338.27,265.22c0,1.43-.46,4.63-1,5" fill="#fff" stroke="#fff" stroke-width="0.44"/><path d="M353.52,248.27A10.58,10.58,0,0,0,354,245a11.9,11.9,0,0,0,1,3.82" fill="#fff" stroke="#50d6cc" stroke-width="0.55"/><path d="M345.34,248a11.93,11.93,0,0,1-.64-3.67s-.19,3.11-.93,4.3" fill="#fff" stroke="#50d6cc" stroke-width="0.55"/><path d="M344.73,243.4c0,1.44.61,4.62,1.16,5" fill="#fff" stroke="#fff" stroke-width="0.44"/><path d="M358.38,253.05a11.61,11.61,0,0,0,.54-3.68s.29,3.12,1.06,4.27" fill="#fff" stroke="#50d6cc" stroke-width="0.55"/><path d="M358.84,248.43c0,1.44-.46,4.63-1,5.06" fill="#fff" stroke="#fff" stroke-width="0.44"/><path d="M358.92,247.33a13.49,13.49,0,0,1-.72-4.08s-.22,3.47-1,4.79" fill="#fff" stroke="#50d6cc" stroke-width="0.55"/><path d="M358.25,242.19c0,1.6.68,5.13,1.29,5.59" fill="#fff" stroke="#fff" stroke-width="0.49"/><path d="M364.72,250.23c.67-1.34.66-4.55.66-4.55s.36,3.83,1.32,5.27" fill="#fff" stroke="#50d6cc" stroke-width="0.55"/><path d="M365.3,244.5c0,1.79-.58,5.74-1.23,6.26" fill="#fff" stroke="#fff" stroke-width="0.55"/><path d="M370.52,263a14.73,14.73,0,0,1-.79-4.52s-.25,3.85-1.15,5.31" fill="#fff" stroke="#50d6cc" stroke-width="0.55"/><path d="M369.76,257.34c.05,1.78.76,5.7,1.44,6.19" fill="#fff" stroke="#fff" stroke-width="0.55"/><path d="M365,266.19a13,13,0,0,0,.59-4.07s.33,3.45,1.19,4.73" fill="#fff" stroke="#50d6cc" stroke-width="0.55"/><path d="M365.55,261.05c0,1.59-.52,5.14-1.12,5.62" fill="#fff" stroke="#fff" stroke-width="0.49"/><path d="M365.19,257.13a13.15,13.15,0,0,0,.59-4.09s.33,3.45,1.18,4.73" fill="#fff" stroke="#50d6cc" stroke-width="0.55"/><path d="M365.72,252c0,1.59-.53,5.16-1.12,5.63" fill="#fff" stroke="#fff" stroke-width="0.49"/><path d="M372.24,247a12.78,12.78,0,0,1-.72-4.07s-.22,3.45-1,4.77" fill="#fff" stroke="#50d6cc" stroke-width="0.55"/><path d="M371.56,241.83c0,1.6.68,5.13,1.29,5.59" fill="#fff" stroke="#fff" stroke-width="0.49"/><path d="M369.5,255.26c.67-1.34.66-4.55.66-4.55s.36,3.84,1.32,5.28" fill="#fff" stroke="#50d6cc" stroke-width="0.55"/><path d="M370.09,249.54c0,1.75-.59,5.71-1.24,6.24" fill="#fff" stroke="#fff" stroke-width="0.55"/><path d="M373.65,261.1a11.92,11.92,0,0,0,.54-3.68s.29,3.11,1.06,4.27" fill="#fff" stroke="#50d6cc" stroke-width="0.55"/><path d="M374.12,256.47c0,1.44-.46,4.63-1,5" fill="#fff" stroke="#fff" stroke-width="0.44"/><path d="M375.12,254a11.62,11.62,0,0,1-.64-3.66s-.2,3.1-.94,4.29" fill="#fff" stroke="#50d6cc" stroke-width="0.55"/><path d="M374.5,249.41c0,1.45.61,4.63,1.15,5" fill="#fff" stroke="#fff" stroke-width="0.44"/><path d="M376.66,246.44a14.51,14.51,0,0,0,.66-4.54s.36,3.83,1.3,5.26" fill="#fff" stroke="#50d6cc" stroke-width="0.55"/><path d="M377.23,240.71c0,1.78-.57,5.73-1.23,6.26" fill="#fff" stroke="#fff" stroke-width="0.55"/><path d="M382.34,253.51a13.16,13.16,0,0,0,.59-4.1s.33,3.46,1.19,4.75" fill="#fff" stroke="#50d6cc" stroke-width="0.55"/><path d="M382.86,248.35c0,1.6-.51,5.15-1.1,5.62" fill="#fff" stroke="#fff" stroke-width="0.49"/><path d="M378.79,254.6a13.08,13.08,0,0,1-.72-4.07s-.22,3.45-1,4.77" fill="#fff" stroke="#50d6cc" stroke-width="0.55"/><path d="M378.11,249.47c0,1.6.68,5.13,1.29,5.58" fill="#fff" stroke="#fff" stroke-width="0.49"/><path d="M377.84,237c-.7-1.3-.8-4.52-.8-4.52s-.24,3.83-1.14,5.31" fill="#fff" stroke="#50d6cc" stroke-width="0.55"/><path d="M377.08,231.26c.05,1.76.76,5.69,1.43,6.2" fill="#fff" stroke="#fff" stroke-width="0.55"/><path d="M381.23,246.33c.66-1.32.66-4.55.66-4.55s.37,3.84,1.32,5.29" fill="#fff" stroke="#50d6cc" stroke-width="0.55"/><path d="M381.81,240.61c0,1.77-.58,5.72-1.24,6.24" fill="#fff" stroke="#fff" stroke-width="0.55"/><path d="M391.66,244.81a12.86,12.86,0,0,0,.6-4.08s.33,3.43,1.18,4.73" fill="#fff" stroke="#50d6cc" stroke-width="0.55"/><path d="M392.19,239.66c0,1.59-.53,5.15-1.11,5.62" fill="#fff" stroke="#fff" stroke-width="0.49"/><path d="M387.8,243.5a13.33,13.33,0,0,1-.71-4.07s-.21,3.45-1,4.78" fill="#fff" stroke="#50d6cc" stroke-width="0.55"/><path d="M387.12,238.37c.05,1.6.68,5.13,1.29,5.58" fill="#fff" stroke="#fff" stroke-width="0.49"/><path d="M388,250.32a10.66,10.66,0,0,1-.58-3.31,12,12,0,0,1-.84,3.88" fill="#fff" stroke="#50d6cc" stroke-width="0.55"/><path d="M387.47,246.16c0,1.29.56,4.16,1,4.52" fill="#fff" stroke="#fff" stroke-width="0.4"/><path d="M381,236.39c.66-1.33.66-4.56.66-4.56s.36,3.84,1.31,5.27" fill="#fff" stroke="#50d6cc" stroke-width="0.55"/><path d="M381.61,230.68c0,1.76-.58,5.71-1.24,6.24" fill="#fff" stroke="#fff" stroke-width="0.55"/><path d="M385.08,235.22c.65-1.33.64-4.54.64-4.54s.38,3.83,1.32,5.26" fill="#fff" stroke="#50d6cc" stroke-width="0.55"/><path d="M385.65,229.5c0,1.75-.57,5.72-1.23,6.24" fill="#fff" stroke="#fff" stroke-width="0.55"/><path d="M391,237.52a13.08,13.08,0,0,1-.71-4.09s-.23,3.47-1,4.79" fill="#fff" stroke="#50d6cc" stroke-width="0.55"/><path d="M390.32,232.4c0,1.58.68,5.13,1.29,5.57" fill="#fff" stroke="#fff" stroke-width="0.49"/><path d="M395.27,235.43a13.08,13.08,0,0,1-.72-4.07s-.22,3.46-1,4.77" fill="#fff" stroke="#50d6cc" stroke-width="0.55"/><path d="M394.58,230.31c.05,1.6.69,5.13,1.3,5.58" fill="#fff" stroke="#fff" stroke-width="0.49"/><path d="M397.58,236.42a13.25,13.25,0,0,0,.6-4.09s.33,3.44,1.18,4.74" fill="#fff" stroke="#50d6cc" stroke-width="0.55"/><path d="M398.11,231.26c0,1.6-.53,5.16-1.12,5.64" fill="#fff" stroke="#fff" stroke-width="0.49"/><path d="M402.29,234.92a11.68,11.68,0,0,1-.65-3.66s-.2,3.11-.94,4.29" fill="#fff" stroke="#50d6cc" stroke-width="0.55"/><path d="M401.67,230.3c0,1.44.62,4.62,1.16,5" fill="#fff" stroke="#fff" stroke-width="0.44"/><path d="M236.61,252.18a14.55,14.55,0,0,0,.66-4.54s.37,3.83,1.31,5.26" fill="#fff" stroke="#50d6cc" stroke-width="0.55"/><path d="M237.19,246.45c0,1.77-.58,5.74-1.24,6.26" fill="#fff" stroke="#fff" stroke-width="0.55"/><path d="M231.94,251.29c-.71-1.29-.8-4.52-.8-4.52s-.24,3.84-1.15,5.31" fill="#fff" stroke="#50d6cc" stroke-width="0.55"/><path d="M231.18,245.6c0,1.77.76,5.69,1.42,6.2" fill="#fff" stroke="#fff" stroke-width="0.55"/><path d="M228.38,248.54a12.15,12.15,0,0,1-.66-3.66s-.19,3.11-.91,4.28" fill="#fff" stroke="#50d6cc" stroke-width="0.55"/><path d="M227.77,243.93c0,1.42.61,4.62,1.16,5" fill="#fff" stroke="#fff" stroke-width="0.44"/><path d="M222.89,245.86c.65-1.32.64-4.54.64-4.54s.37,3.84,1.32,5.27" fill="#fff" stroke="#50d6cc" stroke-width="0.55"/><path d="M223.46,240.14c0,1.76-.58,5.72-1.24,6.24" fill="#fff" stroke="#fff" stroke-width="0.55"/><path d="M214.7,235.48c.65-1.33.64-4.54.64-4.54s.36,3.84,1.31,5.27" fill="#fff" stroke="#50d6cc" stroke-width="0.55"/><path d="M215.27,229.76c0,1.76-.57,5.72-1.23,6.24" fill="#fff" stroke="#fff" stroke-width="0.55"/><path d="M212.59,231.29A11,11,0,0,1,212,228a11.92,11.92,0,0,1-.84,3.86" fill="#fff" stroke="#50d6cc" stroke-width="0.55"/><path d="M212.05,227.12c0,1.3.55,4.17,1,4.53" fill="#fff" stroke="#fff" stroke-width="0.4"/><path d="M227.72,208a21.8,21.8,0,0,0,1.17,10,31.61,31.61,0,0,0-13-6.77c-2.71-2.63-5.53-12.2-4.52-15.62,5.17-.31,15.28,8.19,16.35,12.36Z" fill="#fff" stroke="#50d6cc" stroke-width="0.55"/><path d="M237.49,227.69c-4.69-3.06-9-3.95-19.48-3.69,1.59,5.87,17.56,12.89,20.22,12.4-.22-1-1-7.78-.74-8.71Z" fill="#fff" stroke="#50d6cc" stroke-width="0.55"/><path d="M237.44,227.53c-13.58-6-9.95-25.58-7.54-27.85,6.71,3.69,7.28,12.35,8.13,14.65a91.16,91.16,0,0,0-.59,13.2Z" fill="#fff" stroke="#50d6cc" stroke-width="0.55"/><path d="M235,226.18a15.36,15.36,0,0,1-6.05-8.08,28.46,28.46,0,0,0-18.05-7.53c.15,6.37,5.48,12.3,8.62,13.43,5.11,0,10.38-.25,15.49,2.21v0Z" fill="#fff" stroke="#50d6cc" stroke-width="0.55"/><path d="M290.34,254.83c-2.23,2.47-9.86,10.26-23.17,4.43a6.8,6.8,0,0,1,4.85-2.72,20.36,20.36,0,0,0,13.32-4,49,49,0,0,0,5,2.24Z" fill="#fff" stroke="#50d6cc" stroke-width="0.55"/><path d="M290,246.66c-3.94-2.63-8.09-2.3-12.14-3.54-.43,8,12.21,11.17,13.31,12.08a14.29,14.29,0,0,1,6.23-1.22c-1.49-1.13-5.7-3.26-7.4-7.32Z" fill="#fff" stroke="#50d6cc" stroke-width="0.55"/><path d="M315.36,254.74c1.72-.05,6.92-1.27,8.42-.1s4.47,4.59,2.12,6.95-4.48-1-5.43-1.51-4-3.74-16.61-1.3c-5.49,1.07-5.49,4.62-11.78,5.89-4.59.93-5.17.05-10.44-.12,2.19-2.67,3.95-4.27,6-7s7.94-3.63,9.75-3.53c-2.72-1.86-9-4.65-9.09-15.66,4.16,1,9.11,2,15.05,13.63-2.28-4.91-6.42-10-8.24-10.81-.41-.17.22-7.2,1-8.38,4.47,4.75,5.1,4.84,7.35,7.06,3.24,3.21,2.65,7.91,4.36,10.58a9.86,9.86,0,0,0,7.6,4.34Z" fill="#fff" stroke="#50d6cc" stroke-width="0.55"/><path d="M285.33,252.59a20,20,0,0,1-19.12,2.61c5.18-6.52,8.42-6.63,14-6.3a17.85,17.85,0,0,0,5.16,3.69Z" fill="#fff" stroke="#50d6cc" stroke-width="0.55"/><path d="M238.23,236.4c-.59-.34-7.67.59-8.68,2.14.32,2.77,7.92,7,10,6.42-.37-2.35-1.43-7.53-1.37-8.56Z" fill="#fff" stroke="#50d6cc" stroke-width="0.55"/><path d="M323.24,259.78c1.44.22,1.65-1.33,1.43-2.24" fill="#50d6cc"/><path d="M298.29,239c.64,2.16,4.72,6.89,5.57,9.91m-12-5.61a40.78,40.78,0,0,0,7.5,8.2M282.41,247c.64.64,5.36,4.52,9.87,5.81m-11.37-1.07c-1.93-.23-7.3,0-10.31,2.37M284.12,256c-1.72.43-8.15,1.09-11.59,2.81m26.39-1.92c-5.14.41-7.52,4.72-11.8,5.58m-56.58-57.32c0,1.93.41,12.06,3.42,14.86M213.6,199.33c1.28,4.94,9,8.82,9.64,11.84m10,28.65c1.29-.43,3.65-.64,5.15.64M223,226.24c1.93,0,11.36,2.16,14.15,6.26m-22.73-18.32c2.36.85,10.72,5.81,12.65,9.71" fill="none" stroke="#50d6cc" stroke-width="0.49"/><path d="M200,200.5c1.76.54,6.71.5,8.31-2.86.47-1,.43-2.88,1.92-4.81s3.75-2.29,4.11-4.65c.65-4.27-4.15-3.7-5.1-6.09-.81-2,.22-2.62,2.35-3.11,1.38-.3,5.7,1.33,15,5.14,6.81,2.79,13,1.08,15.07-.31,2.36-1.57,4.53-6.09,8.58-9.72.69-.61,9.8-3.63,13-9.19a15.08,15.08,0,0,0-4.67-18.6c-8.29-6.21-20-10.28-24.89-12.42s-12.21-3.37-13-9.52c-.37-2.73,2-3.82,3.9-3.75,2.54.12,5.89,1.06,7.91,1.25,1.49.16,6.56.8,7.36-4a5.29,5.29,0,0,1-.85-1.17c-.17.85-.59,2.61-4,2.39-4.08-.26-8.26-2.92-11.41-2.91-3.83,0-6.47,2.06-10.3,3.13s-8.19.73-10.23,4.47c-1.28,2.36-2.35,10.7,3.82,16.68s9.61,8.87,24,14.35c10.6,4,13.22,6.21,14.51,7.72s1.21,2.93.71,3.51c-.64.75-3.89,1.45-12.08-2.08a41.71,41.71,0,0,0-16.71-3.65c-3.4,0-12.83,1.71-14.48,5-1.92,3.84-.43,4.7-.07,10.42.11,1.62-.35,3.85.53,5.83a8.16,8.16,0,0,0,3.29,3.63c3.35,1.44,2.07,3.11,1,4.39s-2.56,3.68-2.19,5.72c.54,3-5.4,5.15-5.4,5.15ZM305.44,54.63c-3.68,1.39-4.38.84-5.65,1.85-2.08,1.66-3.79,3.48-4.26,2.73-.64-1,5.45-2.07,6.71-5.92,1-3.11-.37-3.69-1.1-8.79-1.15-7.85-4.95-9.19-7.72-8.34s-10.23,4.55-22.37,8.76c-8.54,3-22.31,4.45-24.72,8.75-1,1.72-3.84,8.8,6,15.83,2.23,1.61,2.92,2,8.56,3.91a64.15,64.15,0,0,0-19.18-1.18c-20.27,1.41-41.62,20.18-39,35.09.63,3.67,5.37,2.19,9.21,2.83s4.41,2.45,7.18,2,3.24-4.61,6-5,2.56,2.36,5.53,2.35,5.45-5,7.59-4.81a5.79,5.79,0,0,0-2-.47c-1.91,1.51-4.32,2.08-5.81,1.22s-1.95-2.19-4.14-2.18c-1.27,0-2.55.67-5.21,2.61,2.23-2.72,11.79-17.25,32.16-13,9.32,1.93,10.44-1,10.87-2.51s-.43-3.94,0-8c.35-3.25,2.36-5.56,1.71-7.71s-1.73-3.23-5.32-4.42c-1.59-.54-1.44-1.31-.75-1.9s2.94-.72,4.54-1c2.8-.46,16.72-3.88,26-9.75,4.83-3,7.57-6.27,7.79-4.36.15,1.33-7,2.28-6.78,5.43.08,1.35.19,3.45,4.1,3.74,2.82.22,4.55-1.78,6.49-3.46,2.34-2.05,3.24-2.64,3.62-4.29Z" fill="none" stroke="#50d6cc" stroke-width="0.44"/><path d="M232.91,135.93c-10.34-4.32-18.29-8.54-12.95-16.55-6.14,3.08-16.47,1-15.85,9.05,2,26.35,50.07,21.25,45.8,42.79,10.9-1.52,20.8-18,2.57-26.5-6.78-3.14-13.36-6.18-19.57-8.79ZM261.49,76c1.85.46-.15,3.71-.69,6.84-.35,2,1.5,6.18-.18,7.11-5.71,3.16-29.29-9.17-42.69,17.5-1.53,3-4.35,0-6.81-.23-4.27-.41-7.48.42-6.31-3.1C214.89,73.69,246.76,72.43,261.49,76Zm25.14-34.76c3.82-1.63,7-2.94,9-2.34,4,1.2,3,9.42,4.42,11.31-2.38-.81-6.24,1.79-10.59,4.65a64.91,64.91,0,0,1-11,5.86,73.92,73.92,0,0,1-10.84,3.17c-6.7,1.41-12.81,2.41-11.15,5.28-2.55-.94-10.64-6.33-8.33-12.49,1.28-3.43,5.9-4.93,11.29-6.31a133.2,133.2,0,0,0,15-4.28c4.94-1.9,8.33-3.19,12.17-4.85ZM207.85,164.13c18.32-6.82,27.4,6.83,39.75,4.71.22,5.55-4.54,15.37-14.13,14.72-6.64-.44-22.76-12.52-28-2.71-.2-7-4.13-14.29,2.41-16.72Z" fill="none" stroke="#50d6cc" stroke-width="0.44"/><path d="M211.68,167.76a1.22,1.22,0,0,0-1.27-.51,1.17,1.17,0,0,0-1.07,1.21c.09.56.69.78,1.17.9l.56.12c1.09.25,2,.72,2.13,2a2.32,2.32,0,0,1-4.55.89l.9-.32a1.39,1.39,0,1,0,2.74-.45c-.1-.78-.79-1-1.45-1.2l-.53-.14c-.88-.24-1.7-.6-1.85-1.62a2,2,0,0,1,1.86-2.19,2.1,2.1,0,0,1,2,.83l-.67.53" fill="#50d6cc"/><path d="M218,173.66l-.92-.07.5-6.54-1.74-.13.07-.83,4.4.34-.06.83-1.75-.12-.5,6.52" fill="#50d6cc"/><path d="M222.75,172.62,221.32,174l-.93-.35,6-5.94.58,8.43-.92-.35-.14-2Zm2.94-3L223.41,172l2.45.92-.17-3.25" fill="#50d6cc"/><path d="M230.72,177.56l-.86-.29,2-6.19-1.66-.55.27-.8,4.18,1.39-.27.79-1.65-.55-2,6.19" fill="#50d6cc"/><path d="M236.71,171.73l3.93.48-.1.84-3-.38-.25,2.06,2.92.35-.1.84-2.93-.36-.33,2.77,3,.37-.1.84-3.92-.48.89-7.32" fill="#50d6cc"/><path d="M253.59,162.29a1.07,1.07,0,0,0-.32,1.12,1,1,0,0,0,1.12.81c.48-.13.6-.66.65-1.07l.06-.48c.12-.94.43-1.73,1.44-2a1.93,1.93,0,0,1,2.39,1.47,2,2,0,0,1-1.23,2.31l-.35-.73a1.19,1.19,0,1,0-.61-2.29c-.66.17-.81.76-.89,1.35l-.07.45c-.12.78-.36,1.51-1.2,1.72a1.71,1.71,0,0,1-2-1.39,1.8,1.8,0,0,1,.52-1.8l.52.51" fill="#50d6cc"/><path d="M251,153.91a3.3,3.3,0,0,1,3.77,5.41,3.3,3.3,0,0,1-3.77-5.41Zm.45.64a2.5,2.5,0,0,0-.65,3.52,2.46,2.46,0,0,0,3.51.6,2.51,2.51,0,1,0-2.86-4.12" fill="#50d6cc"/><path d="M248.77,150.23l-4.29,2.55-.69-.52,6.17-3.59-1.85,6.92-.68-.53,1.34-4.83" fill="#50d6cc"/><path d="M242.74,151.73l-2.94-1.65.34-.62,2.26,1.26.86-1.54-2.2-1.23.35-.62,2.19,1.22,1.15-2.08-2.25-1.26.34-.62,2.94,1.63-3,5.51" fill="#50d6cc"/><path d="M237.14,141.93l.87.38.6,3.19.3.13L240,143.2l.71.33-2.57,5.73-.86-.39a3.33,3.33,0,0,1-1.38-1,1.78,1.78,0,0,1,2-2.69Zm1.5,4.29-.23-.1c-.74-.33-1.58-.56-2,.36s.39,1.41,1.1,1.72l.19.09.93-2.07" fill="#50d6cc"/><path d="M233.26,147.14l-3.11-1.29.27-.65,2.39,1,.67-1.62-2.32-1,.27-.66,2.32.95.9-2.19-2.39-1,.27-.66,3.11,1.29-2.38,5.81" fill="#50d6cc"/><path d="M230,139l.72.29-2.4,5.81-.72-.29L230,139" fill="#50d6cc"/><path d="M221.53,138.71l.1-.23a2.9,2.9,0,0,1,4-1.55,3.28,3.28,0,1,1-4.59,3.78l.71-.25a2.47,2.47,0,0,0,4.7.45,2.57,2.57,0,0,0-1.16-3.35,2.09,2.09,0,0,0-2.63.85l1.47.68-.29.65-2.27-1" fill="#50d6cc"/><path d="M217.78,140.61l-1.1-6.76-2.62,3.84-.65-.44,3.7-5.41,1.09,6.76,2.65-3.88.65.45-3.72,5.44" fill="#50d6cc"/><path d="M214.88,129.49l.48.63-4.4,3.41.91,1.19-.57.43-2.3-3,.57-.43.91,1.19,4.4-3.43" fill="#50d6cc"/><path d="M207.85,130.19l-.33-.84,1.93-2.42-3.06-.46-.33-.84,4.05.62,2.53-1,.29.73-2.54,1-2.54,3.22" fill="#50d6cc"/><path d="M207.94,101.6l7.09-1.1-4-2.79.47-.67,5.64,3.94-7.09,1.09,4,2.82-.46.68-5.67-4" fill="#50d6cc"/><path d="M218.15,97l.62,1.71-.63.62-2.57-7.12L222.63,95l-.63.61-1.69-.65Zm-1.32-3.5,1,2.72,1.67-1.65-2.7-1.07" fill="#50d6cc"/><path d="M225.16,93l-.65.51L221,88.88l-1.24,1-.45-.61,3.14-2.39.45.61-1.24.94L225.16,93" fill="#50d6cc"/><path d="M229,90.49l-.7.42-3.43-5.64.71-.43L229,90.49" fill="#50d6cc"/><path d="M236,83.52A3.44,3.44,0,0,1,234.15,88a3.4,3.4,0,0,1-4.51-1.85A3.45,3.45,0,0,1,236,83.52Zm-.76.32a2.63,2.63,0,1,0-4.85,2,2.63,2.63,0,1,0,4.85-2" fill="#50d6cc"/><path d="M238.05,79.18l5.81,4.23L243,78.59l.81-.14L245,85.22,239.22,81l.89,4.85-.81.16-1.25-6.83" fill="#50d6cc"/><path d="M248.5,83.16l-.79,1.63h-.88l3.3-6.84,3,7h-.88l-.72-1.69-3,0Zm1.59-3.41-1.23,2.66,2.34,0-1.11-2.7" fill="#50d6cc"/><path d="M256.08,84.68l2,.34-.13.74-2.79-.48,1.12-6.53.81.14-1,5.79" fill="#50d6cc"/><path d="M254.14,56l1,4.12c.26,1.14.85,2.12,2.19,1.8s1.43-1.44,1.17-2.58l-1-4.12.86-.21,1,4.42a2.62,2.62,0,1,1-5.09,1.2l-1-4.42.87-.2" fill="#50d6cc"/><path d="M261.78,53.85l6.64,4L267,52.77l.86-.23,1.94,7.19-6.64-4,1.39,5.16-.86.25-2-7.25" fill="#50d6cc"/><path d="M274.41,58l-.84.28-2.21-6.81.85-.28,2.2,6.81" fill="#50d6cc"/><path d="M283.32,49.87a3.69,3.69,0,0,1-1.47,5.06,3.65,3.65,0,0,1-5.06-1.44,3.73,3.73,0,0,1,6.53-3.62Zm-.78.43a2.85,2.85,0,1,0-5,2.76,2.85,2.85,0,1,0,5-2.76" fill="#50d6cc"/><path d="M284.41,44.8l7.32,2.58-2.39-4.71.79-.4,3.36,6.63-7.31-2.58,2.41,4.75-.79.41-3.39-6.68" fill="#50d6cc"/><path d="M241.46,159.52c7.66,3.84,5.94,10.38,6,11.57" fill="none" stroke="#50d6cc" stroke-width="0.44"/><path d="M319.37,172.86c3.12,3.14,4.08,8.52,4.17,9.81.12,2,.42,6-2.56,6.41a9,9,0,0,1-6.23-1.13,3,3,0,0,0-1.36-2.22c-1-.29-1.13-.5-2,0a3.69,3.69,0,0,1-2.81-.83c-1.91-2.5-2.16-11.15-7.81-15.95-3.4-2.89-4.2-4-14-8.33-19.72-8.8-32-31.88-33.24-33.6-1.6-2.2-4.41-5.06-6.34-5.56-9-2.36-9.1-6.53-9.37-9,2.24,3.69,11.08,6.64,10.65,4.7-.3-1.36-1.46-3.53-5.11-6-3.18-2.15-3.4-5.67-4.68-6.31a7.35,7.35,0,0,0-5.21-.54c4-8.56,14.06-3.09,14.06-3.09a88.87,88.87,0,0,0,6.49,6.42c1.71,1.25,2.69,3,10.12,4.81,10,1.6,17.08,3.28,19.74,3.87.82-1.54,1-12.62-.67-15.18s-4-4.28-5.32-9.85a97.7,97.7,0,0,0-5.1-15.82c-2.12-5.13,1.71-9.41,8.53-10,18.23-1.71,27.56,10,29.28,11" fill="none" stroke="#50d6cc" stroke-width="0.58"/><path d="M342.06,154.83c10.56,11.93,20.66,35.65,21.07,38.77-.11,4.27-2.61,2.41-3.88,1.44-.05,2-2.83,2-4.22.26-.63,2.58-3.62,1.77-5.32-.42.54,2.24-3.35,2.4-4.89,0,.41,1.57-2.51.91-3.4-.43,0,.86.15,2.2-2.35.43-2.76-4.06-20.57-22.87-19.7-22" fill="none" stroke="#50d6cc" stroke-width="0.58"/><path d="M323.88,171s6.27,6.63,7.13,7.66,2.36,3.39,1,4.51c-1.61,1.29-4.61-1.51-4.94-1.82-.53-.55-10.44-11.48-10.44-11.48s12.53,14.76,14.89,12.93-7.39-11.58-7.6-11.8" fill="#50d6cc"/><path d="M341.4,194.46c0-3.09-7.93-13.17-9.86-15.21m13.28,15.63c-.74-5.5-7.75-15.35-9.73-17.84m14.61,17.85c-.58-3.82-6.31-15.58-9.09-19M355,195.32c-.39-2.61-7.61-17.52-10.77-21.18m15.1,20.91c.28-3.78-4.17-13.21-14.77-28.12" fill="none" stroke="#50d6cc" stroke-width="0.58"/><path d="M338.7,158.79c.29.37,9.05,12.43,10.39,14.65,1.07,1.77,1.23,3.71.16,4.36s-2.57-.91-3.7-2.09S335,161.43,334.14,160.36s8.63,11.58,9.75,13.3c.76,1.19,1.27,2.74.64,3.5-.74.92-2.67.16-3.33-.58s-7.39-9.11-7.49-9.32,5.89,7.15,6.59,8.24a3,3,0,0,1-.54,4.09c-.62.42-1.91-.32-3.41-1.59-3.26-2.74-6.82-7.95-8.48-9.35,1.82,1.63,4.56,5.28,6.32,7.27s2.09,3.77.91,4.53-2.63-.27-3.75-1.51-6.65-7-7.4-7.87,6.46,6.88,7.12,7.65" fill="none" stroke="#50d6cc" stroke-width="0.58"/><path d="M240.05,114.73c-.48-.9.16-.48-.85-1.87,3,1.66,4.85-.58,7.55,1.35.7.79,2,2.72,1.55,3.3C247.65,118.64,242.28,116.49,240.05,114.73Z" fill="none" stroke="#50d6cc" stroke-width="0.55"/><path d="M247.49,101.26l.19.66s-1,4.8.86,7.9,2.47,5.34,2.55,6.9c.17,3.12-1.74,5.33-3.67,4.83" fill="none" stroke="#50d6cc" stroke-width="0.55"/><path d="M247.46,101.26c10.12-3.2,13.84,8.88,21.61,8.89-1.82,1.7-5.69,1.7-9.8.85s-11.81-9.74-11.81-9.74Z" fill="#fff" stroke="#50d6cc" stroke-width="0.58"/><path d="M252.56,110.89c1.59,1.29,6-.1,6-.1a25.67,25.67,0,0,1-6.91-5.24C250.33,108.86,251.63,110.13,252.56,110.89Z" fill="#fff" stroke="#50d6cc" stroke-width="0.44"/><path d="M253.46,109.59c.82.66,3,0,3,0a13.13,13.13,0,0,1-3.53-2.68c-1,1.09,0,2.35.48,2.75" fill="#50d6cc"/><path d="M287.76,161.11c-2.44.4-2.88,12.6,2.11,15.77.22-1,1.6-.9,2.83.53.42.52.41,1.66.15,1.81.66,1.83,2.35,2.53,4.73,2.69a7.38,7.38,0,0,0,7.41-6.85,16.73,16.73,0,0,0-5.32-7,47.25,47.25,0,0,0-11.92-7Z" fill="none" stroke="#50d6cc" stroke-width="0.58"/><path d="M293.07,178.6c0,1.5-3.41,2.35-1.07,4.92s2.13,2.35,3.62,3,4.48-.21,4.05,2.36-3.95,1.82-5.12-.11c-.56-.91-2.13-2.78-4.26-2.25-1.84.47-2.13.85-3,2.79s-1.49,3.19-3.2,2.13-.63-2.15.44-3.21,1.7-1.49,1.48-2.57-2.55-1.28-4.25-.85-3-1.49-2.13-2.57,3.41-.85,4.48,0,3.61,1.93,4.68,1.5.85-5.35,1.07-6.84,3.2-.12,3.2,1.71Z" fill="#fff" stroke="#50d6cc" stroke-width="0.58"/><path d="M314.57,187.23c.91,2.43-2.93,5.33-.59,7.9s4.78,1.68,6.38,1.5c1-.1,4.48-.2,4.05,2.36-.34,2-4.13,1.25-7.46,0-1-.37-3.3-1.27-5-.44s-2,1.67-2.34,4.07c-.32,2.08-2,3.09-3.67,2s-1.07-2.13,0-3.21a4.85,4.85,0,0,0,1.22-3.95c-.21-1.07-2.55-1.28-4.26-.86s-3-1.49-2.12-2.56,3.4-.86,4.47,0,3.62,1.93,4.69,1.49,1.23-8.31,1.43-9.81a2.26,2.26,0,0,1,3.2,1.49Z" fill="#fff" stroke="#50d6cc" stroke-width="0.58"/><path d="M294.82,167.7c1.39.54,4.29,3.55,4.93,6.14" fill="#50d6cc"/><path d="M294.28,172.24a10.22,10.22,0,0,1,2.78,4.29" fill="#50d6cc"/><path d="M289.46,170.5c.21,1,0,1.84,1.39,3.22" fill="#50d6cc"/><path d="M310,180.58c.1,2.26,3.38,2.8,3.59,3.93" fill="#50d6cc"/><path d="M307.58,174a4.36,4.36,0,0,1,4.34,3.12,7.4,7.4,0,0,0-4.34-3.12" fill="#50d6cc"/><path d="M320.34,186.68c-1.79-6.2-5-7.1-4.73-6.16,1.77,1.66,1.82,1.36,2.51,2.38,1.47,2.15,1.9,4.32,2.22,3.78" fill="#50d6cc"/><path d="M321.35,185.81c-.31-2.35-1.45-2-1.37-1.3a4.89,4.89,0,0,1,.78,1c.13.3.32.64.59.29" fill="#50d6cc"/><path d="M324.42,198.14A2.23,2.23,0,0,1,326.6,201c-.8-1.76-2.13-1.45-2.56-1.18,0,0,.7-.92.38-1.65" fill="#50d6cc"/><path d="M300.67,194.28a2.24,2.24,0,0,0-2.45,2.6c1-1.69,2.27-1.23,2.66-.92a2,2,0,0,1-.21-1.68" fill="#50d6cc"/><path d="M299.72,188.59a2.24,2.24,0,0,1,1.46,3.26c-.36-1.89-1.73-1.91-2.21-1.74,0,0,.9-.73.75-1.52" fill="#50d6cc"/><path d="M279.47,182.67a2.26,2.26,0,0,0-2,3c.71-1.8,2.05-1.57,2.5-1.32a1.87,1.87,0,0,1-.46-1.63" fill="#50d6cc"/><path d="M283.48,190.89a4.39,4.39,0,0,0-.35,3c1.19-1.93,1.58-2,2.06-2.12a2.85,2.85,0,0,1-1.71-.91" fill="#50d6cc"/><path d="M305.79,204.1a4.46,4.46,0,0,0-.36,3c1.19-1.93,1.59-2,2.06-2.12a2.89,2.89,0,0,1-1.7-.91" fill="#50d6cc"/><path d="M305.17,167.81c-.21,1,1.4,1.08,1.5,2.37" fill="#50d6cc"/><path d="M297.35,166.25c5,2.11,5.82-2.29,4.77-3l-.17-.11c1.67.66,1.45,7.33-4.6,3.07" fill="#50d6cc"/><path d="M266.73,124.38c-2.1.9-3.39-1.9-2.62-3.65-2.77,2.06.92,5.84,3.18,4.66,2.75-1.45,1.51-5.78-1.64-4.34,2.08-.1,3,2.48,1.08,3.33" fill="#50d6cc"/><path d="M263.46,128.11c-1.47,1.23-2.76-.34-2.79-1.82-1.15,2,1.74,3.92,3.4,2.6,1.91-1.55.66-5.64-2.9-3.83,3,0,3.49,2,2.29,3.05" fill="#50d6cc"/><path d="M258.74,132.39c-1.92.12-2.5-1.11-1.76-2.48-1.54,1.2-.35,3.56,1.79,3.47,2.59-.1,3.21-2.86,1.09-4.21,1.21,1.89.86,3.11-1.12,3.22" fill="#50d6cc"/><path d="M274.1,123.73a1.71,1.71,0,0,1-1.11-2.56c-2.14,1.81.1,3.35,1,3.56,2.29.5,4-2.3,1.32-4.17,1.24,1.77.65,3.63-1.22,3.17" fill="#50d6cc"/><path d="M263.51,137.25c-.46,1.51-2.36.61-2.74-.68-.42,2.37,2.87,2.62,3.42.94.67-2-1-3.26-2.63-2,1.43-.36,2.44.17,1.95,1.73" fill="#50d6cc"/><path d="M268.72,140.79c-.18,1.9-3,1.32-3.85-.1.12,2.93,4.59,2.34,4.84.22.31-2.59-3.43-4.62-4.75-.67,2.19-2.22,4-1.46,3.76.55" fill="#50d6cc"/><path d="M271.94,136.58c-.18,1.93-3,1.33-3.85-.09.12,2.93,4.58,2.35,4.83.24.31-2.62-3.42-4.62-4.74-.69,2.19-2.22,4-1.45,3.76.54" fill="#50d6cc"/><path d="M280,125.53c-1.75-.78-.3-3.25,1.31-3.64-2.8-.8-3.67,3.62-1.74,4.52,2.36,1.12,5.44-1.78,2.14-4.31,1.42,2.79.12,4.25-1.71,3.43" fill="#50d6cc"/><path d="M285.85,121.24c-.19,1.93-2.3,1.29-2.77.39a1.9,1.9,0,0,0,3.76-.25c.31-2.59-3.42-4.62-4.74-.68,2.17-2.22,3.95-1.44,3.75.54" fill="#50d6cc"/><path d="M264.14,114.75c.75.38,1,2.48.48,3s-1.66,1.34-1.66.52a3.53,3.53,0,0,0,1.18-1.35,2.88,2.88,0,0,0,0-2.2" fill="#50d6cc"/><path d="M261.29,118.67a2.46,2.46,0,0,0-3.18-.53c-.74.59-.59,1.91.32,3s2.23,1.44,3,.85S262.2,119.73,261.29,118.67Zm-.62,2.65c-.53.43-1.47.17-2.11-.57s-.73-1.69-.2-2.12a1.8,1.8,0,0,1,2.32.26A1.89,1.89,0,0,1,260.67,121.32Z" fill="#50d6cc"/><path d="M258,123.7c-1,.91-2.18-.43-2.74-1.48.23,2,1.94,3,3.16,2.19,1.5-1,1.21-3-.91-4.17,1.53,1.66,1.61,2.44.49,3.46" fill="#50d6cc"/><path d="M256,124c-.91-1.05-2.56-1.44-3.29-.85s-.59,1.92.32,3,2.23,1.43,3,.85A2.09,2.09,0,0,0,256,124Zm-.72,2.33a1.63,1.63,0,0,1-2.12-.56c-.64-.76-.73-1.69-.2-2.11a2,2,0,0,1,2.44.58A1.46,1.46,0,0,1,255.31,126.37Z" fill="#50d6cc"/><path d="M268.92,119.5a1.25,1.25,0,0,1,.51-2.43c-2.5-.91-2.84,2-1.09,3.23,2.11,1.52,6.15-.22,3.43-2.7,1.27,2.48-1,2.72-2.85,1.9" fill="#50d6cc"/><path d="M271.67,124a1.59,1.59,0,0,0-1.19.34c-.73.56-.59,1.9.32,3s2.24,1.45,3,.86a2.07,2.07,0,0,0,0-3,3.25,3.25,0,0,0-2.1-1.19Zm-.1.64a2.44,2.44,0,0,1,1.61.76,1.48,1.48,0,0,1-.12,2.12,1.66,1.66,0,0,1-2.12-.59c-.65-.74-.73-1.69-.21-2.1A1.28,1.28,0,0,1,271.57,124.59Z" fill="#50d6cc"/><path d="M269.2,127.17a2.21,2.21,0,0,0-1.27.42c-1.27,1,0,3,.38,3.45,1.05,1.21,2.59,1.66,3.43,1s.94-2.6-.12-3.81a3,3,0,0,0-2.42-1Zm.33.64a2,2,0,0,1,1.4.65c.74.86,1,2.5.41,3s-2.14,0-2.88-.85-.84-1.95-.23-2.44A2,2,0,0,1,269.53,127.81Z" fill="#50d6cc"/><path d="M276.87,116.39a3.18,3.18,0,0,0-2.29,1.12c-.6.92,0,2.33,1.42,3.17,1.66,1,3,.74,3.58-.15a3,3,0,0,0-1-3.79,2.89,2.89,0,0,0-1.73-.35Zm.33.59a1.62,1.62,0,0,1,.82.22,2.59,2.59,0,0,1,1,2.92c-.43.65-2,.69-3,.11s-1.41-1.6-1-2.25A2.8,2.8,0,0,1,277.2,117Z" fill="#50d6cc"/><path d="M295.15,156.17c2.09-.53,3.7.92,3.38,2.81s-3.22,2.31-4.3,1.08c1.67.32,2.64.33,3.33-1s-.58-2.43-2.41-2.92" fill="#50d6cc"/><path d="M295.87,149.14c.66.61,1.27,2-.18,2.36s-2.53-.8-1.81-2.18c.3.79.35,1.77,1.44,1.64s.55-1.82.55-1.82" fill="#50d6cc"/><path d="M289.94,151.41c-.38-.42,2.16-2,3.75-.49s.31,4-1.3,3.78c.62-.54,1.79-1.42,1-2.79s-2.59-.86-3.44-.5" fill="#50d6cc"/><path d="M288.72,154c1.73-.73,5.74,1.93,2.78,4.56s-5.63-1.06-5.62-2.52c1.16,1.41,3.56,3.19,4.93,1.82s.47-2.68-2.09-3.86" fill="#50d6cc"/><path d="M295.29,130.44c.82-.26,2.47.23,2.3,1.68a2,2,0,0,1-2.52,1.93c-1.29-.37,1.67.21,1.62-1.88s-1.72-1.62-1.4-1.73" fill="#50d6cc"/><path d="M292.54,136.28c.37-1.21,3.77-2.83,5,0s-.93,4.14-3.42,2.52c1.95.66,3.78-.15,2.8-2-1.22-2.22-3.15-1.25-4.38-.57" fill="#50d6cc"/><path d="M286.31,134a2,2,0,0,0-1.85,1.47c-.92,2.22,2.05,3.45,3,3.68s2.79.38,3.64-1.07c1.21-2.1-2-3.57-3-3.77A6.65,6.65,0,0,0,286.31,134Zm.72,1a6.07,6.07,0,0,1,.8.12c1.7.28,3,1.39,2.2,2.37a2.88,2.88,0,0,1-2.8.77c-.46-.15-2.67-1.31-1.91-2.46A1.78,1.78,0,0,1,287,135Z" fill="#50d6cc"/><path d="M289.5,145.53a1.36,1.36,0,0,0-1.26,1c-.61,1.49,1.4,2.33,2,2.49a2.22,2.22,0,0,0,2.47-.72c.83-1.43-1.38-2.4-2.05-2.54A4.35,4.35,0,0,0,289.5,145.53Zm.26.71a3,3,0,0,1,.77.07c1.15.19,2.05.93,1.49,1.61a2,2,0,0,1-1.9.51c-.31-.1-1.81-.88-1.29-1.65A1.17,1.17,0,0,1,289.76,146.24Z" fill="#50d6cc"/><path d="M285.29,148.05c.4-.57,2.9-.28,3.49,1.34a3,3,0,0,1-2.85,3.78c1.71-1,2.2-2.48,1.88-3.29a3,3,0,0,0-2.52-1.83" fill="#50d6cc"/><path d="M280.19,151.65c1.6-.68,6.12,2.48,3.38,4.9s-5.2-1-5.2-2.33c1,2,3.35,3,4.56,1.68,1.5-1.62,0-3.34-2.74-4.25" fill="#50d6cc"/><path d="M291.24,141a2,2,0,0,0-1.86,1.47c-.91,2.22,2.06,3.45,3,3.68s2.81.38,3.65-1.07c1.21-2.1-2-3.56-3-3.77A6.57,6.57,0,0,0,291.24,141Zm.73,1a6.15,6.15,0,0,1,.79.12c1.7.28,3,1.37,2.2,2.36a2.9,2.9,0,0,1-2.81.77c-.46-.14-2.66-1.3-1.9-2.46A1.82,1.82,0,0,1,292,142Z" fill="#50d6cc"/><path d="M289.21,130.86c-.34,0-.69.25-.92,1a2.17,2.17,0,0,0,1.46,2.53,1.38,1.38,0,0,0,1.82-.74c.59-1.44-1-2.44-1.51-2.57A2.37,2.37,0,0,0,289.21,130.86Zm.39.83a1.07,1.07,0,0,1,.42.06c.84.21,1.45.84,1,1.52a1.2,1.2,0,0,1-1.39.55c-.22-.11-1.32-1-.73-1.69a1.26,1.26,0,0,1,.67-.44Z" fill="#50d6cc"/><path d="M291.36,130.49c0-.44-.63-2.92,1.93-2.64s-2-1.19-2.57.17.7,3.32.64,2.47" fill="#50d6cc"/><path d="M293,126c.44-.67,1.4-2.23,4-.87,1.45.77-.1-1.55-1.87-1.51-2.37.08-2.95,3.61-2.15,2.38" fill="#50d6cc"/><path d="M286.69,139.48c.84-.36,3.38,2.17,1.77,3.88s-5.09-.31-4.66-3.5c.48,2.7,2.86,3.91,3.81,2.7s-.05-2.38-.92-3.08" fill="#50d6cc"/><path d="M284.76,147.17c1.55-.14,1.82-2.67.59-3.54s-3.43-.75-3.65,1.44c.86-1.28,2.23-1.52,3.06-.75a1.86,1.86,0,0,1,0,2.85" fill="#50d6cc"/><path d="M278.65,150.57c1.48,1.18,3.86-.77,3.51-2.58s-2.35-3.57-4.4-1.85c1.84-.4,3.23.57,3.3,2a2.24,2.24,0,0,1-2.41,2.48" fill="#50d6cc"/><path d="M273.4,150.93c2.18.19,2.87-2.55,1.67-4.18s-4.57-1.62-4.65,1.21c1.09-2.52,3-1.71,3.94-.52s1,2.75-1,3.49" fill="#50d6cc"/><path d="M272.05,142c1-.49,4.13.33,3.43,2.74s-3,.21-3.22-1.09c.54.66,2.3,2.16,2.53.81.3-1.86-1.24-2.31-2.74-2.46" fill="#50d6cc"/><path d="M276.86,141c1.07-.5,4.33.35,3.6,2.89s-3.11.23-3.39-1.12c.57.67,2.43,2.26,2.65.84.32-2-1.29-2.44-2.86-2.61" fill="#50d6cc"/><path d="M282.7,138.43c-.22,2.23-2.29,1.8-3.47,1,1.49,2.38,4.31,1.66,4.61-.81.36-3-2.93-5.1-5.49-1.85,3.36-1.5,4.58-.61,4.35,1.69" fill="#50d6cc"/><path d="M283.06,132.77c.46,1.49-.05,2.38-2,1.9,1.89,1.9,4,0,3.08-2.32-1.14-2.81-4.29-2.14-4.64.11a2,2,0,0,1,3.57.31" fill="#50d6cc"/><path d="M284.53,129.22a1.56,1.56,0,0,1-.37,2.26c.62.57,2.58-.84,1.28-2.94s-3.82-1.23-3.8.13c1.28-.74,1.95-.83,2.89.55" fill="#50d6cc"/><path d="M289,127.1c-.26,1-1,1.29-2.25,1.12a1.91,1.91,0,0,0,3.38-.88c.75-2.33-2.56-4.11-4.33-2.32,2.14-.36,3.65.46,3.2,2.08" fill="#50d6cc"/><path d="M289.21,121.87c.22-1,1-1.34,2.2-1.21a1.89,1.89,0,0,0-3.32,1c-.66,2.37,2.73,4,4.41,2.13-2.12.46-3.65-.3-3.29-1.93" fill="#50d6cc"/><path d="M275.47,136.08c-.33,0-.68.24-.91,1A2.14,2.14,0,0,0,276,139.6a1.34,1.34,0,0,0,1.81-.72c.61-1.45-1-2.45-1.5-2.59A2.58,2.58,0,0,0,275.47,136.08Zm.4.82a1,1,0,0,1,.42.08c.83.2,1.44.83,1,1.52a1.16,1.16,0,0,1-1.39.51c-.23-.09-1.32-1-.73-1.67A1.17,1.17,0,0,1,275.87,136.9Z" fill="#50d6cc"/><path d="M274.69,131.38c-.39,0-.79.28-1.06,1.16-.53,1.77,1.18,2.73,1.71,2.92a1.56,1.56,0,0,0,2.09-.86c.71-1.67-1.17-2.82-1.73-3A3.1,3.1,0,0,0,274.69,131.38Zm.45,1a1,1,0,0,1,.49.08c1,.23,1.67,1,1.19,1.76a1.38,1.38,0,0,1-1.61.61c-.27-.13-1.52-1.21-.84-2A1.38,1.38,0,0,1,275.14,132.35Z" fill="#50d6cc"/><path d="M278.56,130.26a1.67,1.67,0,0,1-2.89-.9c-.5,2,1.82,3,3.49,1.68,2-1.63,1.39-4.82-1.81-4.2,2.33.52,2.74,2.14,1.21,3.42" fill="#50d6cc"/><path d="M267.36,132.81c-.16,1.75-1.57,1.75-2.79,1.54,1.59,1.61,3.42.52,3.63-1.41.27-2.39-2.52-3.44-3.6-1.39,1.56-.92,2.93-.55,2.76,1.26" fill="#50d6cc"/><path d="M279.1,79c-.5,1.25-1.39,1.74-3.09,1.33a2.15,2.15,0,0,0,3.55-1.23c.2-1-.85-2.84-3.27-2.19,2.18.08,2.89,1.66,2.81,2.09" fill="#50d6cc"/><path d="M287.32,70.39c-.8,1.78-4.26,1.93-6.65,1.37,2.32,1.73,6.85,1.66,7.6-1,.31-1.46-.4-4.07-4.09-3.06,3.11.12,3.33,1.69,3.14,2.68" fill="#50d6cc"/><path d="M280.09,73.06c-.73,1.57-2,2-4.34,1.38,2.31,1.74,4.67.55,5.05-1.24.32-1.45-.39-4.06-4.08-3,3.11.09,3.57,1.9,3.37,2.91" fill="#50d6cc"/><path d="M284.94,83.57c-.26-2.25-3.81-2.72-6.37-2.24,2.85-1.49,7-.32,7.1,2.26s-2.19,4.52-5.55,2.7c3,.6,5.08-.46,4.82-2.72" fill="#50d6cc"/><path d="M293.91,71.9c-.13,1.3-2.14,1.29-3.22,1,1.46,1.08,3.41.49,3.67-1s-.81-2.71-3.11-2.08c2.07.08,2.81.69,2.66,2" fill="#50d6cc"/><path d="M299.05,73.52c-.18,1.67-2.79,1.4-4.16,1.09.33.24-.37.32,0,.47,1.9.71,4.39.36,4.69-1.44s-1-3.44-4-2.65c2.64.1,3.58.87,3.4,2.53" fill="#50d6cc"/><path d="M295.43,76.79c-.18,1.66-2.44,3-5.57,2.57,3.84,1.26,5.81-.61,6.14-2.44s-1.85-3.68-4.79-2.9c2.64.09,4.4,1.11,4.22,2.77" fill="#50d6cc"/><path d="M296.81,78.85c2.88.05,4.56,1.36,3.32,2.71s-3.83.9-4.28.85c.68.62.62,1.53-.29,2.54-.59.66-1.58.67-2.7.29a2.09,2.09,0,0,1,.56,2.7c-.85,1.71-4.17,1-4.62.52a2.21,2.21,0,0,1-.84,2.09c-.84.62-2.48.85-3,.27,1.69-.15,2.43-.47,3-1.69.34-.66-.33-1.35-1.35-2.2,1.53.91,4.79,2.15,6,.51.51-.66.4-2.15-3-3.5,1.64.57,4.49,1.21,5.41.29s.06-2.39-2.7-3.11c2.2.51,6.36,1.59,7,.16.52-1.16-.21-1.81-2.58-2.43" fill="#50d6cc"/><path d="M286,77.87c-.72,1.56-4.33,1.79-6.71.74,2.43,2.1,7,1.2,7.43-.6.31-1.45-.4-4.06-4.09-3.05,3.11.09,3.56,1.92,3.37,2.91" fill="#50d6cc"/><path d="M286.37,98.12c-.15,1.91-2.81,1.87-4.38,1.52,2.12,1.59,5.2.73,5.36-1.4.23-2.85-3.32-4.46-6.7-3.53,3,.1,5.94.77,5.72,3.41" fill="#50d6cc"/><path d="M289.77,104.31c-.16,1.92-2.81,1.91-4.4,1.53,2.13,1.59,5.21.75,5.38-1.38.22-2.86-3.32-4.47-6.71-3.55,3,.1,5.94.77,5.73,3.4" fill="#50d6cc"/><path d="M292.73,110.25c-.15,1.72-2.42,1.77-3.85,1.44,1.92,1.43,4.44.63,4.85-1.25.51-2.32-1.45-3.69-4.46-2.58,2.88-.12,3.62.43,3.46,2.39" fill="#50d6cc"/><path d="M292.59,116.29c-.18,1.92-2.81,1.9-4.38,1.52,2.12,1.58,5.11.75,5.36-1.39.31-2.59-1.89-4.18-5.28-3.27,3,.11,4.5,1.16,4.3,3.14" fill="#50d6cc"/><path d="M297.89,107.71a3.08,3.08,0,0,1-4.78-1.22c-.52-1.54,1.88-1.72,3.68-2-.36-.08.09-.29-.25-.34-2.39-.43-4.82.58-4.43,2.62.45,2.34,3.9,3.59,6.22,1.39-.32.16-.17-.58-.44-.4" fill="#50d6cc"/><path d="M296,101.13a3.21,3.21,0,0,1-5.24-1.22c-.4-1.35,1.81-2.25,3.42-2.16-.24,0,0-.3-.26-.32-2.11-.17-4.5.87-4.14,2.66.47,2.46,4,3.72,6.41,1.4-.18.08-.06-.48-.19-.36" fill="#50d6cc"/><path d="M292.74,94c.67,2.39-.92,2.74-2.56,2.55s-2.34-1-1.51-1.9c0-.75-.24-.39-.38-.27-1.67,1.47.51,2.73,1.92,2.88,2.19.24,3.76-.83,2.83-3.28,0,.15-.35-.1-.3,0" fill="#50d6cc"/><path d="M284.5,92c-.16,1.92-2.4,1.4-4.16,1.3,2,1.41,5,.9,5.14-1.22.22-2.87-3.05-4.08-6.43-3.15,3,.1,5.65.43,5.45,3.07" fill="#50d6cc"/><path d="M305.27,79.28c0,.24-1.38.67-1.38.67a5.82,5.82,0,0,1-2.57-.08,3.26,3.26,0,0,0,1.89.59L305.77,79c.26-1.42-1.6-2.81-3.91-2.18,2.08.07,3.67.75,3.41,2.44" fill="#50d6cc"/><path d="M299.94,120.05c-.16,1.59-2.33,1.57-3.63,1.26,1.76,1.31,4.23.62,4.44-1.14.25-2.15-1.57-3.47-4.36-2.7,2.51.07,3.71.94,3.55,2.58" fill="#50d6cc"/><path d="M276.2,114.69c12.07,2.23,18,4.93,23.32,8.54" fill="none" stroke="#50d6cc" stroke-width="0.58"/><path d="M298.12,125.66c4.06-5.43,2.46-12.72,1.94-15.06a26.3,26.3,0,0,0-3.19-7.38c-3.68-5.65-5.1-10.37-3.7-15.08s11.28-7.9,15.13-10,4.9-4.16,11.13-7.16c9.35-4.48,16.77-2.44,31.47-.3s40.46,14.15,46.83,18.22,2.29,6.42.22,6c3.89,1.47,5.87,4.73,5.78,6.86-.1,2.3-1.86,2.65-8.77.19,4,2.63,3,5.36-1.08,4.79-4.93-.24-13.67-3.31-16-4.79,2,2.49,2.07,4.12.75,5.4-3.13,1.46-6.4-.21-12-1.56,3,7.44-5.7,5.81-8.73,4.06.84,5.82-4.64,5.61-8.1,4,2.77,2.19,10.21,13.06,11.71,15.62,1.24,2.51,3,9.09-4.78,1.22-2.53-2.53-.33.2-4.92-5.56,4.46,5.54,2.55,2.78,5.25,6.2,5.79,7.34,6.1,8.88,4.64,10.33-2.23.33-4.89-2.26-15.6-14.67,13.54,16.78,6.51,15.26,5.34,14.73s-6.5-5-10.11-8.7l-.71-.68c.86,1.12-.75-.28,0,.69.94,1.22,1.57,3.22.17,4.63a2.51,2.51,0,0,1-3.12-.05c-2.19-2.12-7.93-5.71-9.42-7,2.78,2.3,7.72,5.39,9.42,7,2.45,2.22,3.87,4.78,2.46,6.61-.69.91-3,.82-4.55-.54-.4-.34-6.26-4.53-8.25-6.08,3.48,2.59,9.15,6.65,10.82,8.07,2.19,1.88,5.61,6.8,4.49,8.46a1.71,1.71,0,0,1-.65.58c-1.53.78-4.25-.58-5-1.23s-8.36-6.34-10.93-8.24c1.39,1.08,9.76,7.39,10.72,8.09,1.6,1.15,2.78,6,1.22,6.93s-2.56.49-3.91-.16-6.22-4.84-9.16-7.16c2.41,1.95,7.71,6,8.83,7.11.61.6,3.91,5.22,1.93,6.72-1.23.94-4.07.65-6.12-.69-1-.67-2.94-2.26-4.29-3" fill="none" stroke="#50d6cc" stroke-width="0.58"/><path d="M296.42,97.47c-.89-1.92-.69-5.36-.23-6.91,1.39-4.71,10.76-7.69,14.59-9.83s4.91-4.18,11.15-7.17c9.35-4.48,16.88-3,31.57-.83,8,1.19,19.54,5,29.12,9.47-10-4-20-7.87-29.31-9.07-10.28-1.32-20.52-4.29-31.14.82-6.48,3.12-8.28,5.57-11.18,7.19s-13,5.91-14,9.58-.09,4,.11,5c.25,1.45,0,2.09-.68,1.7" fill="#50d6cc"/><path d="M313.83,148.32c1.93,1.57,6.21,3.4,7.07,1.78s.49-2.79-2.4-4.74c2.3,1.52,7.24-.53,2.36-5.05,5.84,2.76,6.54-3.6,3.43-5.65,3.32,1.3,5.58-2.9,1.72-5.6,2.52.59,5.52-1.33,1.88-4.79,6.59,4.38,11.2,3,9.33-1.66,7.35.38,2.53-5.66-3.47-8.93,7.24,2.64,10.57-2.91,5.64-4.53,5.79.16,7.4-4.29,1.4-5.91,4.13.21,9.92-3.83,2.2-6.19,16.62,6.74,23.27,2.21,15.4-2.74,2.35.43,6.81-5.81-1.76-6.57,4.6,1.24,13.51-4.23,2-6.94,0,0-10.66-2.64-15-3.3.38.48,12.92,3.25,15,3.89s4.72,2.15,4,3.78S359.4,87.7,355.87,87s-11.53-2.22-12.23-2.33c1.29.38,11.32,3.13,12.33,3.4s5.23,1.46,4.72,3.35c-.59,2.2-2.79,2.1-4.34,2s-11.59-2.6-12.87-2.8,13.46,3.66,14.1,4.09,3.33,2.11,3,3.45-5.52,1.5-8.31.81-22.19-5.84-22.62-5.73c1.66.54,11.58,3.62,12.81,4.22s4,1.39,3.54,2.79-4.3,2.58-5.79,2.31-15.87-3.51-18.08-3.93c2.1.7,17.22,4.41,18.24,5s3.8,1.9,3.21,3-2.2,2-4.72,1.57-15.66-4.37-17-4.7c2.3,1,15.92,5.45,16.78,6.1s2.84,1.51,1.82,2.7-4.77,1-6.38.63-13.24-4-14.53-4.37,12.31,5,13.5,5.61c2.58,1.36,8,6,6.76,7a4.12,4.12,0,0,1-4.18.16c-.38-.16-15.33-6.68-16-7.11,1.88.81,15.87,7.71,16.61,8.58a2.23,2.23,0,0,1-.48,3.12c-1,.47-3.34,0-6.17-1.52-3.11-1.62-11.31-4.47-13.57-4.47,2.1.48,9.66,3.5,11.26,4.8,1.34,1.06,2,2.53,1.28,3.12a3.82,3.82,0,0,1-3.43.25,74,74,0,0,0-9.59-4c2.47,1.17,8.26,4.28,9.43,5.11,1.5,1.09,2.62,2.87,2.09,3.83s-2.25,1.12-3.44.64-12.38-5.5-13.55-6,12.21,6,13.29,7.06,2.52,3.44,1.76,4.47-2.79,1.06-4.5.16c-2-1.08-9.76-5.82-10.83-6.69,1.5,1.14,10.08,7.32,10.83,8.41s1.91,2.75,1.12,3.44-3.32.21-3.92-.28-9.91-6.78-10.87-7.36c2.2,2,10.07,8.49,11,9.25S321,149,320,149.67s-4.66-1.32-5.41-1.66-2.3-.74-2.62-1,2.62,2.11,1.54,3-1.07.49-2.24.66c1.17.86,4.39,3.66,2.56,5.06s-5.51-1.19-5.78-1.73,1.61,2.16.43,3.07-3.11-.32-3.38-.59,1.82,1.3.58,2.59-2.08-.27-2.41-.59c-.15.37-.06,1.56-1.19,1.56-.8,0-1.27-.81-1.7-1.29.05.37.56,2.51,1.93,2.15.79-.2,1.23-.75,1.22-1.19.48.54,2,1,2.63.38a2.08,2.08,0,0,0,.37-2.16,2.45,2.45,0,0,0,2.52,0,1.74,1.74,0,0,0,.43-2.11c.75.81,3.87,2.15,5.32.17s-1-4.19-1.66-4.68c.59.16,2.67-1.11.69-2.9" fill="#50d6cc"/><path d="M341.56,71.25c6.87.44,9.33,2.15,8.74,4.85-.42,1.88-2.79,1.93-4.08,1.72,1.93,1.18,1.65,2.58,1.5,4-.22,1.94-2.1,2.85-4.08,2.89,1.24.38,3.33,1.63,3,3.46a2.75,2.75,0,0,1-2.9,2.57c1.14.43,2.95,1.24,2.31,3.73s-2.69,2.52-6.44,1.61c3.38,1,5.79-.7,5.8-1.89a2.87,2.87,0,0,0-2.25-2.91c-1.51-.21-14.53-3.77-15.39-3.77,2.3.22,13.72,2.49,14.59,2.59s3.09-.43,3.27-1.51c.32-1.93-1.39-3-2.78-3.34l-12.93-3c2.25.28,10.82,1.65,11.69,1.68,2,.12,5-.48,5.15-2.14.06-1-.43-3-1.61-3.51s-8.25-2.15-11.8-1.94a73.27,73.27,0,0,1,11.75.87c2.25.22,4.19-.42,4.35-1.39.27-1.84-1.61-3.88-7.87-4.53" fill="#50d6cc"/><path d="M380.87,80.52c12.22,5.49,21.7,9.88,20.2,12.88-.8,1.61-2.38,1.31-3.13,1.43,4.52,1.43,6.5,6.12,5.43,8s-7.72-.82-8.42-1c1.55.79,4.07,3.21,1.5,4.62s-16.25-2.92-18.54-4.62c1.06.94,2.24,3.1,1.28,4.82-1.68,3-10.95-.66-12.56-1,.71,1.71,1,4.13-.59,4.94-2.58,1.33-6.16,0-8.09-.76.21,1.23,0,4-2.21,4.57a8.88,8.88,0,0,1-6.59-1.13c-3.37-1.94-11.15-4.31-13.23-5.54,2,.64,12.48,4.37,13.45,4.67,2.57.88,5.6,1.27,6.6.61s1.45-3.38-.27-4-16.13-6-17.53-6.47,18,5.46,19.46,6,6.6,2.14,7.62,1c1.18-1.29.75-4.31-1-5s-20.53-7.07-22.57-7.82c2.68.75,24.43,7.5,25.83,7.88.81.21,8.75,2.59,9.92,1.62s.76-3.38-1.39-4.68-16.67-6.85-19.45-7.71c6.8,2.14,19.09,6.16,21.81,7.18,2,.74,13,4.62,15.18,4.53,3.59-.17,3.22-2.05-.27-3.88-2.25-1.19-29.53-11.55-36.72-14,5.85,1.73,33.73,11.21,37.64,12.62,3.3,1.19,7.55,2.7,8,1.37,1.24-3.4-4.33-6.2-6.48-7.07s-16.08-6.69-38-13.81c12.12,2.06,37.32,12.78,39,13.05,1.17.19,4.07.3,3.49-1.77-.35-1.15-2.06-3-19.53-11.61" fill="#50d6cc"/><path d="M348.23,112.59c2,.38,12.42,15.19,13.26,16.85s1.79,4.16.72,4.82-4.18-1.09-6.22-3.35a16.51,16.51,0,0,0,3.48,2.76c.89.47,5.13,7,2.64,8.4s-6.4-3.3-7.46-4.58-4-5-4.55-5.55,7,8.95,4,10.28c-2.58,1.16-6.22-2.36-7.18-3.11s-12.81-12.51-11.57-12.61c.53-.43,10.87,10.72,12.37,11.9s3.91,3.61,5.63,3.07-1.12-5-1.6-5.7-8.52-12.4-9.53-13.52c2.24,2.65,11.73,12.44,13,13.9s4.77,6.15,6.27,4.95-2.57-7.37-3.59-8.5c-2.89-2.17-11.88-14.13-14.35-17.4,4.71,4.9,13.06,14.49,13.87,15.41s3.48,3.34,4.23,2.86-.75-4-1.33-4.74-9.42-12.77-12-16.1" fill="#50d6cc"/><path d="M321.88,81.52c1.65.6,6.09,1.52,5.24,4.51-.59,2.1-3.75,1.24-4.61,1.35a2.18,2.18,0,0,1,.37,3.13c-.86,1.4-3.59,1.61-5,1.06,1.39.82,2.18,1.86,1.5,3.24S317.24,96,316.17,96c1.14.58,2.8,1.61,1.87,3.6-.64,1.4-1.17,1-2.14,1.24a2.42,2.42,0,0,1,2.14,2.69,2.27,2.27,0,0,1-2,2.26,3.19,3.19,0,0,1-1.4,5.71c.54.43,1.36.61,1,2.59a2.19,2.19,0,0,1-2.26,1.83,2.77,2.77,0,0,1,1.4,3.22c-.28,1.51-2,1.93-2.9,1.84a43.51,43.51,0,0,1-4.94-1c1.46-.16,4,.1,5.05.1s1.78-.21,1.93-1.07a2.31,2.31,0,0,0-1.07-2.46,20.72,20.72,0,0,0-3.65-1.41c1.56,0,2.85.38,3.65.23s1.93-.49,2-1.53.07-1.33-.91-1.76a25.56,25.56,0,0,0-4.34-1.24c1.61.11,3.32,0,4.29,0a3,3,0,0,0,2.37-1.89,2.31,2.31,0,0,0-1.23-2.69c-.93-.43-4.46-.44-5.47-.81,1.44-.44,4.77-.11,5.52-.22a2.13,2.13,0,0,0,2-1.77c.15-.74-.53-1.56-1.39-1.89a58.59,58.59,0,0,1-5.74-1.93c1.4-.16,4.08.7,5.15.59s2-.52,2.15-1.28c.16-1-.65-1.88-1.72-2.43A42.07,42.07,0,0,1,311,94.19c2.51.38,3.8,1,4.87,1s2.42-.06,2.63-.71a1.72,1.72,0,0,0-.64-2c-.75-.65-4.07-3-5.08-3.9,2.51.75,3.42,1.66,4.6,2.06,1.77.59,4.24.16,4.67-.71s.53-1.66-.43-2.25c-.72-.43-4.88-2-6.27-2.86,3,.59,4.56,1.24,6,1.57.89.2,4.49.75,5-.66.37-1.12-.49-2.31-4.45-4.26" fill="#50d6cc"/><path d="M327.35,79.74c-1.71-2.11-4.34-.44-2.42,2-.69-2.44.48-3,2.42-2" fill="#50d6cc"/><path d="M319.78,76.93c3,1.59,5.26-1.31,2.56-3.31-.18-.13-.17.33-.39.22,1.81,2,.72,3.35-2.17,3.09" fill="#50d6cc"/><path d="M315,83.26c3.85,2,6.72-2.06,2.36-4.47,2.53,3.17,1.15,4.8-2.36,4.47" fill="#50d6cc"/><path d="M304.05,89.34c3.84,2,10.31-3.13,5.94-5.53,2.54,3.16-2.45,5.85-5.94,5.53" fill="#50d6cc"/><path d="M307.12,90.12c.75,1,1.38,4.58-2.58,4.62,1.29.76,1.93,1.46,1.72,2.49-.33,1.55-1.59,1.46-2.68,1.82,2.78,1,5.57,1.35,2.51,4.79,3.6-1.82,1.89-4.15-.37-4.68.48-.28,2.42-2.26.91-4.15,1.24-.11,3.11-3.49.49-4.89" fill="#50d6cc"/><path d="M297.94,91.46c1.14,0,3.43.72,3.33,2.9a2.4,2.4,0,0,1-1.07,2,2.49,2.49,0,0,1,.31,3.51c.06-.93.54-3-2.84-3.24,1.08-.49,1.77-.32,2.36-1.19a2.06,2.06,0,0,0,.06-2.45,7,7,0,0,0-2.15-1.52" fill="#50d6cc"/><path d="M300.3,101.74c1.83-.25,4.18-.37,3.58,2.87,1.56-.38,4.24,1.34,2.36,3.65,1.07.7,2.2,2.7.43,4,1.29,2,1.55,3.46.05,4.26.54,2.15,1.87,4.41-2.2,5.71,2-.85,2.46-3.13,1.66-4.26s-.64-1-1.82-1.56c1.5-.65,2.36-.27,2.36-2.21a2.62,2.62,0,0,0-1.88-2c1.6-.48,1.66-1,1.5-2.1a2.42,2.42,0,0,0-1.92-1.81c.64-.28,2.15-1.25,1.34-2.32-.92-1.22-2.52-.48-3.6-.27.81-.86,1.18-2.16.7-2.65a6.43,6.43,0,0,0-2.56-1.29" fill="#50d6cc"/><path d="M302.53,126.35c1-.34,4.83.06,4.17,4s-.15-1.29-1.54-2.6c-1.12-1-3.39-1.07-2.63-1.35" fill="#50d6cc"/><path d="M319.1,173.11c-3.07-3.46-3.65-4.26-3.65-4.26s.18.18,4.17,3.81l-.52.45" fill="#50d6cc"/><path d="M308,165.72c2.26.81,3.59-.1,3-2.21,2.15,1.5,4.23,1,4.18-1.82,2.69,1,3.5-.32,3-2.58,5.19.49,4.12-3.44,2.52-5,1.6,1.5,2.14,4.84-3.06,4.36.53,2.25-.28,3.55-2.95,2.58.06,2.79-2,3.34-4.19,1.82.59,2.1-.21,3.61-2.47,2.8" fill="#50d6cc"/><path d="M321,169.24c-.22.58-1.3,1.44-3.66-.13,1.88.32,2.39.52,2.9-.48.85-1.72-2.3-3.93-2.3-3.93,1,.37,4.07,2,3.06,4.54" fill="#50d6cc"/><path d="M324.76,163.36c-.71.91-1.84,1.35-3.87.11,1.88.31,2.61.3,3.11-.69.86-1.73-.8-3.35-.8-3.35,1,.39,2.57,1.39,1.56,3.93" fill="#50d6cc"/><path d="M311.14,146.12c.43,0-1.35.76-.81,1.51s.33.91.91,1-1.76.26-1.82-.81.54-1.83,1.72-1.72" fill="#50d6cc"/><path d="M308.51,150.26c.11.54-1.29,4.2-4.83,1.34-2.74-2.23-.05-4.41,2.37-3.77-.54.17-3.7.43-1.51,3.07,1.66,2,3.71.11,4-.64" fill="#50d6cc"/><path d="M302.51,151c.48.7,1.46,2.33.32,3.57-.7.75-2.1.53-2.95.1,0,.58-2.46,3.1-3.81-.6.54.37,1.61,1.29,2.47.87A1.34,1.34,0,0,0,299,153c-.16-.37,2.06,1.77,3.21.81s.27-2.86.27-2.86" fill="#50d6cc"/><path d="M300.27,128.71c-.13-.79,5,1.57,3.64,4.27s-4.45.42-4.83-.16,2.67,1.27,3.66.05c1.34-1.68-2.36-3.5-2.47-4.16" fill="#50d6cc"/><path d="M302.68,135.93c.69.33,2.57,4-1.51,4.37s-2.4-4.15-1.81-4.52-1.29,3.71,1.76,3.34,1.56-3.19,1.56-3.19" fill="#50d6cc"/><path d="M298.23,139.82a1.9,1.9,0,0,0-1.74,1.37c-.86,2.1,1.93,3.25,2.79,3.46s3,.59,3.81-.79c1.15-2-2.28-3.55-3.22-3.73A6,6,0,0,0,298.23,139.82Zm.74,1a5.93,5.93,0,0,1,.75.11c1.6.27,3.23,1.53,2.43,2.46s-2.59.64-3,.5-2.51-1.23-1.79-2.3a1.71,1.71,0,0,1,1.63-.77Z" fill="#50d6cc"/><path d="M300.42,144.82c1.12.38,3.26,4.84-1.67,4.74s-2.94-3.56-1.93-4.53c.1.54-2.16,3.8,1.93,3.62,3.49-.17,1.78-3.13,1.67-3.83" fill="#50d6cc"/><path d="M305,142.82c-.46,0-1,.12-1.37,1.09-.64,1.55,1,2.31,1.66,2.47a2.17,2.17,0,0,0,2.52-.68c.86-1.49-1.39-2.57-2.09-2.71A6.46,6.46,0,0,0,305,142.82Zm.51.78.27.05v0c1.2.2,2.09,1,1.5,1.73a1.87,1.87,0,0,1-1.93.48c-.31-.1-1.44-.81-.91-1.61.4-.61.77-.67,1.07-.63Z" fill="#50d6cc"/><polyline points="19.79 1.25 3.69 1.25 3.69 158.94" fill="none" stroke="#a3a3a3" stroke-linecap="round" stroke-linejoin="round" stroke-dasharray="5 5"/><polyline points="17.96 345.14 3.69 345.14 3.69 190.66" fill="none" stroke="#a3a3a3" stroke-linecap="round" stroke-linejoin="round" stroke-dasharray="5 5"/><path d="M4.84,175.64a2.84,2.84,0,0,1,1.82,2.73,3.07,3.07,0,0,1-3.26,3.09,3.7,3.7,0,0,1-2.78-1.2l.89-1.07c.15.15.08.32.22.48a2.33,2.33,0,0,0,1.66.72,2.13,2.13,0,0,0,2.13-2.16c0-1.26-1-2-2.49-2a4.89,4.89,0,0,0-.54,0v-.95A4.1,4.1,0,0,0,4.17,175a1.86,1.86,0,0,0,1.13-1.66,1.72,1.72,0,0,0-1.85-1.65,2.51,2.51,0,0,0-1.82.81L1,171.79a3.47,3.47,0,0,1,2.54-1.13,2.79,2.79,0,0,1,2.92,2.68A2.46,2.46,0,0,1,4.84,175.64Z"/><path d="M310,363.46v1.07h-4.38l-.16,3.05a3.93,3.93,0,0,1,1.73-.41,3.19,3.19,0,0,1,3.2,3.53,3.25,3.25,0,0,1-3.34,3.54,3.75,3.75,0,0,1-3.14-1.63l1.05-.79c.15.11.06.27.13.4a2.56,2.56,0,0,0,1.94,1,2.56,2.56,0,0,0,0-5.05,2.59,2.59,0,0,0-2,1l-.76-.31.37-5.38Z"/><polyline points="25.94 353.95 25.94 368.96 293.62 368.96" fill="none" stroke="#a3a3a3" stroke-linecap="round" stroke-linejoin="round" stroke-dasharray="5 5"/><polyline points="599.17 353.95 599.17 368.96 322.17 368.96" fill="none" stroke="#a3a3a3" stroke-linecap="round" stroke-linejoin="round" stroke-dasharray="5 5"/></svg>