<svg xmlns="http://www.w3.org/2000/svg" width="256" height="300" viewBox="0 0 256 300"><title>flag-nmi-icon-mwaar</title><path d="M159.09,236.58s9.54-10.09,18.72-8.16c2.75-10.65,13.12-11.47,13.12-11.47s-1-11.75,12.3-14.32c.36-8,8.44-14.59,8.44-14.59s-1.65-12.39,6.79-15.23c-5.14-9.82,1.74-17,1.65-17.16s-8.72-15.51-1-19.92c-8.17-6.88-5.5-14.68-5.5-14.68s-8.91-2.29-5.69-12.94C200.57,106.83,199.1,95,199.1,95s-11.29,2.29-12.67-7.53c-7.43,1.2-8.26-6.14-8.35-6.14s-14.77,3.94-17.71-7.16c-5.69,2.94-8.17-2.3-8.17-2.3s-8.16,4-13-3.76c-9.72,6.06-15.14-.27-15.14-.27s-12.75,8.44-17,1.92c-7.53,7.62-14.23,4.32-14.23,4.32S87.14,84.16,78,81.59C75.86,91,65.3,91.14,65.3,91.14s1.1,8.25-11.56,10.46C52.09,111.32,45.48,113,45.48,113s.64,9.45-5.32,12.48c2.11,5.32-3.4,11.83-3.4,11.83s5.88,7.34-2.11,15.6c7.71,2,2.11,15.33,2.11,15.33s10.65,4.77,4,13.58c7.62,2.48,5.23,8.53,5.32,12.11,4.87,2.21,9.18,1.1,7.07,10.92,15,1.66,7.89,9.91,7.89,9.91s7,.28,4.22,5.79c12.76-.28,14.59,9.54,14.59,9.54s11.84-3.12,13.4,1.47-5.14,35.51-5.14,35.51a25.94,25.94,0,0,1-17.44-8c-17.43-.46-13.58-11.93-13.85-11.93s-5.78,2.11-8.63-7.44c-11.65,2.39-11.29-7.43-11.38-7.52s-5.23-2.39-3.3-7.25c-12,1.1-11.1-10.64-11.1-10.64a5.25,5.25,0,0,1-3.22-6c-1.56-.55-12.2-.73-6.69-14.77-10.19-6.15-3.86-13.22-3.86-13.22s-14-7.25-3.21-15.6C-2.7,152.8,6,146.84,6,146.84s-11.19-11.38.19-19.46C4.37,110.13,14.65,106,14.65,106S9.23,92,23.92,86.09C24.83,71.86,35.11,71.5,35.11,71.5s.28-11.29,16.43-10.19c3.12-10.09,14.13-8.07,14.13-8.07S69.06,41,84,46.9c7.62-14.86,18.91-7.25,18.91-7.25s7.15-4.68,10.73-3.21c4.55-7.81,14.22-.3,20.48,1.21,2.26-.88,10.36-7,16.6.72,8.26-5.41,15.32,4.31,15.32,4.31s11.38-5.78,16.7,7.44c24.14-2.21,20.65,13.58,20.65,13.58s19-4.32,14.87,14.59c17.25,1.19,15.5,12.57,15.5,12.57s10.92,8.26,6.15,15.69c9.73.46,6.15,9.82,6.15,9.82s7.43,2.85,1.29,14.41c14.22,11.38,2.75,22.66,2.66,22.57s7.61,9.18.64,19.82c2.11,16.89-6.42,21.2-6.42,21.2s2.2,10.92-7.35,14c-.18,12.85-12.29,14.41-12.29,14.41s3.21,5.58-8.81,11.45c-.48,8.6-13,9.29-13,9.29s-1.2,15.78-17.16,11.56c-3.88,12.66-22.58,8.9-22.94,8.72s-3.58-27.16-3.58-27.26Z" fill="#fff" stroke="#000" stroke-width="1.05"/><path d="M181.38,249.86s-1.41,2.72,4.25,5.12" fill="none" stroke="#000" stroke-width="1.05"/><path d="M192.71,243.43s6.32-1.53,10.57,0" fill="none" stroke="#000" stroke-width="1.05"/><path d="M211.56,227.53c0,.11-.87,2.83,4.14,6.75" fill="none" stroke="#000" stroke-width="1.05"/><path d="M215.15,220.45a17.29,17.29,0,0,0,9.92,2.61" fill="none" stroke="#000" stroke-width="1.05"/><path d="M177.79,228.4s.22,7.19-3.49,10.56" fill="none" stroke="#000" stroke-width="1.05"/><path d="M190.21,217.29s6.1,1.52,11.11-1" fill="none" stroke="#000" stroke-width="1.05"/><path d="M229.31,206.72s1.31,1.85,8.06,1.53" fill="none" stroke="#000" stroke-width="1.05"/><path d="M203,202.47c.22.11,8,2.62,12.86.33" fill="none" stroke="#000" stroke-width="1.05"/><path d="M218.42,172.84s.32-.44,2.72,7.95" fill="none" stroke="#000" stroke-width="1.05"/><path d="M224.41,149.2s-.33,4.47-3.92,6.43" fill="none" stroke="#000" stroke-width="1.05"/><path d="M247.4,130.9s-5.23,4.25-4.25,6" fill="none" stroke="#000" stroke-width="1.05"/><path d="M221.36,127.85s2.73,4.57-1.74,7.73" fill="none" stroke="#000" stroke-width="1.05"/><path d="M208.18,108.24s4.69-.22,6.76,3.81" fill="none" stroke="#000" stroke-width="1.05"/><path d="M218,78.61c0,.11,1,1-.87,2.83" fill="none" stroke="#000" stroke-width="1.05"/><path d="M184.54,79a15.38,15.38,0,0,1,2.07,8.72" fill="none" stroke="#000" stroke-width="1.05"/><path d="M199,65.75A30.42,30.42,0,0,0,203.82,64" fill="none" stroke="#000" stroke-width="1.05"/><path d="M182.9,50.18c-.1,0-1.41,4.9,1,6.64" fill="none" stroke="#000" stroke-width="1.05"/><path d="M176.91,72.51c0,5.23,4.14,3.92,1.31,8.93" fill="none" stroke="#000" stroke-width="1.05"/><path d="M166.79,68.15c-.11,0-6.54,5-6.54,5.88" fill="none" stroke="#000" stroke-width="1.05"/><path d="M150,65.43a7.91,7.91,0,0,1,2.07,6.43" fill="none" stroke="#000" stroke-width="1.05"/><path d="M127.56,62.16c-.1.22-2.28,4.9-3.81,5.77" fill="none" stroke="#000" stroke-width="1.05"/><path d="M107.74,62.27c.11,0,2.18,4.36-.54,7.52" fill="none" stroke="#000" stroke-width="1.05"/><path d="M72.45,80.35A54.79,54.79,0,0,0,78,81.44" fill="none" stroke="#000" stroke-width="1.05"/><path d="M58.83,93c.11-.11,6.64-2.07,6.64-2.07" fill="none" stroke="#000" stroke-width="1.05"/><path d="M48.26,101.16c.22,0,4.58.76,5.67.22" fill="none" stroke="#000" stroke-width="1.05"/><path d="M45.21,105.19s1.42.76.22,8.06" fill="none" stroke="#000" stroke-width="1.05"/><path d="M24,86l2.61,3.92" fill="none" stroke="#000" stroke-width="1.05"/><path d="M15,106.17c0-.11,2.62,3.92,6.1,4.68" fill="none" stroke="#000" stroke-width="1.05"/><path d="M35.62,126.65a30.16,30.16,0,0,0,4.91-1.31" fill="none" stroke="#000" stroke-width="1.05"/><path d="M33.77,141.46A5.72,5.72,0,0,1,37,136.89" fill="none" stroke="#000" stroke-width="1.05"/><path d="M29.31,148.22c0,.11,3.16,4,5.34,4.57" fill="none" stroke="#000" stroke-width="1.05"/><path d="M27.46,155.74c.32-.11,3.7-3.05,7.62-2.83" fill="none" stroke="#000" stroke-width="1.05"/><path d="M26.36,165.86s.11,3.38,10.13,2.51" fill="none" stroke="#000" stroke-width="1.05"/><path d="M27.35,177.74c0-.11,2.94-6.75,8.93-9.26" fill="none" stroke="#000" stroke-width="1.05"/><path d="M35.41,186.24s.87-2.83,5.88-4.79" fill="none" stroke="#000" stroke-width="1.05"/><path d="M41,197.46s3.6-2.94,4.9-3.38" fill="none" stroke="#000" stroke-width="1.05"/><path d="M45.43,206.17s2.18,2.29,7.63-1.63" fill="none" stroke="#000" stroke-width="1.05"/><path d="M19.17,208c.66-.1,8.61-2,11.33,2.18" fill="none" stroke="#000" stroke-width="1.05"/><path d="M22.34,214.56s8.38-1.09,9.47-.21" fill="none" stroke="#000" stroke-width="1.05"/><path d="M52.29,216.31s-1.09,2.28,9.26-1.53" fill="none" stroke="#000" stroke-width="1.05"/><path d="M65.15,220.45c-1.86,3.16.43,5.66-2,7.08" fill="none" stroke="#000" stroke-width="1.05"/><path d="M33.66,224.8c.33-.21,3.82-1.41,3.27-6.42" fill="none" stroke="#000" stroke-width="1.05"/><path d="M36.83,232.32c.43-.11,6.21-2.62,7.4-1.31" fill="none" stroke="#000" stroke-width="1.05"/><path d="M48.15,239.62s.77-5.12,2.4-5.67" fill="none" stroke="#000" stroke-width="1.05"/><path d="M56.87,247.35s4.79-.11,6.86-1.63" fill="none" stroke="#000" stroke-width="1.05"/><path d="M66.12,230c.11.11,4.47,2.4,13.73.11" fill="none" stroke="#000" stroke-width="1.05"/><path d="M69.61,250.84s1.31,6.64,1.2,8.17" fill="none" stroke="#000" stroke-width="1.05"/><path d="M199.35,95H203" fill="none" stroke="#000" stroke-width="1.05"/><path d="M142.05,63.25s-1.41,4.14-3.26,5.23" fill="none" stroke="#000" stroke-width="1.05"/><path d="M103.16,39.72a8.7,8.7,0,0,1-1.63,6.21" fill="none" stroke="#000" stroke-width="1.05"/><path d="M83.56,47.13c0,.11.87,3.7-4.9,4.9" fill="none" stroke="#000" stroke-width="1.05"/><path d="M161.2,251.81s54.41-15.37,70.85-82.15C222.51,238.21,163,259.94,163,259.94l-1.76-8.13Z" fill="#fff" stroke="#000" stroke-linejoin="round" stroke-width="1.31" fill-rule="evenodd"/><path d="M89.88,250.37S36,234.72,19.68,166.74c9.45,69.78,68.45,91.9,68.45,91.9l1.75-8.27Z" fill="#fff" stroke="#000" stroke-linejoin="round" stroke-width="1.31" fill-rule="evenodd"/><path d="M166.78,256c1.68,0,5.84-4.61,8.23-5.14s2.66-2.92-.09-3-5.13,3.1-5.13,3.1a10.67,10.67,0,0,1-4.87,2.3c-2.48.27-.88,3.37,1.86,2.75Z"/><path d="M178.37,247.48s-1.68-.62,2.66-2.3,4.07-3.63,5.49-4.43,4.42-2.92,5-1.68-3.18,3.72-4.07,4-5.22,4.25-6.46,4.61a3.22,3.22,0,0,1-2.66-.18Z"/><path d="M84.35,254.61c-1.67,0-5.79-4.69-8.16-5.23s-2.63-3,.09-3.06,5.09,3.15,5.09,3.15a10.54,10.54,0,0,0,4.82,2.34c2.46.27.88,3.43-1.84,2.8Z"/><path d="M72.86,246s1.66-.63-2.63-2.35-4-3.69-5.44-4.5-4.39-3-5-1.71,3.16,3.78,4,4,5.18,4.33,6.41,4.69a3.07,3.07,0,0,0,2.63-.18Z"/><path d="M198.11,232.6s-5.66,3.28-4.86,4.08,5.84-3.1,5.93-3.19,2.12-2.57-1.07-.89Z" stroke="#000" stroke-width="1.31"/><path d="M53.3,230.82s5.61,3.33,4.82,4.14-5.79-3.15-5.88-3.24-2.1-2.61,1.06-.9Z" stroke="#000" stroke-width="1.31"/><path d="M206.53,224.28c-3.72,4.17-3.72,4.08-3.72,4.08" fill="none" stroke="#000" stroke-linecap="round" stroke-width="1.7"/><path d="M212.1,217.47l-3.54,4.34" fill="none" stroke="#000" stroke-linecap="round" stroke-width="1.57"/><path d="M217.68,208.61l-4,6.38" fill="none" stroke="#000" stroke-linecap="round" stroke-width="1.44"/><path d="M222.37,199.59l-3.27,6.55" fill="none" stroke="#000" stroke-linecap="round" stroke-width="1.31"/><path d="M224.5,194.81l-1.07,2.3" fill="none" stroke="#000" stroke-linecap="round" stroke-width="1.31"/><path d="M226.89,188.52l-.89,2.75" fill="none" stroke="#000" stroke-linecap="round" stroke-width="0.79"/><path d="M45,222.35c3.68,4.23,3.68,4.14,3.68,4.14" fill="none" stroke="#000" stroke-linecap="round" stroke-width="1.71"/><path d="M39.44,215.41,43,219.82" fill="none" stroke="#000" stroke-linecap="round" stroke-width="1.58"/><path d="M33.91,206.4l4,6.48" fill="none" stroke="#000" stroke-linecap="round" stroke-width="1.45"/><path d="M29.26,197.2l3.25,6.67" fill="none" stroke="#000" stroke-linecap="round" stroke-width="1.31"/><path d="M27.16,192.34l1.05,2.34" fill="none" stroke="#000" stroke-linecap="round" stroke-width="1.31"/><path d="M24.79,185.94l.88,2.79" fill="none" stroke="#000" stroke-linecap="round" stroke-width="0.79"/><path d="M43.12,85.13a10.26,10.26,0,0,1,3.3,8.7c-.75,5.23-3.77,12.5-3.16,17.92a39.6,39.6,0,0,1,.23,6.06s-3.63-5.16-3.68-10.67,3.93-10.73,3.93-14.8a55.7,55.7,0,0,0-.62-7.21Z" fill="#fff" stroke="#000" stroke-linejoin="round" stroke-width="1.05"/><path d="M41.13,86.69s-5.25,5-5.92,9.88c-.5,2.51-.69,14.21-.75,19.4-.12,1.6-.78,7.88-.92,10.17s3.86-3.9,4.09-9C37.5,112,37.5,101,38,99.33c.48-2.13.37-4.47,1.1-6.6,1-3,2-6,2-6Z" fill="#fff" stroke="#000" stroke-linejoin="round" stroke-width="1.05"/><path d="M6.77,120.08s3.56,4.93,4.2,7.76,1.82,8.39,3.37,10.67,10.4,15,10.86,20.26c.09,3.47-3.65,9.4-9.22,9.49-3.46-.09-12.4-2.37-12.77-10s2.74-7.85,3.1-12.5.46-25.54.46-25.64Z" fill="none" stroke="#000" stroke-linejoin="round" stroke-width="1.05"/><path d="M67.9,53a18.8,18.8,0,0,0-6.52,1.8c-2.2,1.36-5.92,3.31-8.52,6.92-6.62,5.15-16.57,7.56-19.71,11.84-1.88,2.92-1.76,9.93,2.94,12.9,3,1.72,11.84,4.42,16.13-1.94S54,76.38,56.07,72.22C59.54,62.67,67.85,53.07,67.9,53Z" fill="none" stroke="#000" stroke-linejoin="round" stroke-width="0.54"/><path d="M157.26,43.69a18.56,18.56,0,0,0-5.83-3.44c-2.5-.63-6.67-.35-11-.78-8.31-1.16-16.87-7.17-22.14-6.45-3.4.68-8.35,5.64-7.21,11.09.85,3.36,4.61,10.16,12.17,8.82s7.49-3,12-4.37a40.67,40.67,0,0,1,22-4.87Z" fill="none" stroke="#000" stroke-linejoin="round" stroke-width="0.54"/><path d="M245.89,129.82c.62-1.42-.53-4.08-1.34-7.2a26.55,26.55,0,0,0-4.84-9.67c-3.41-7.66-2.83-18.17-6.23-22.24-2.38-2.53-9.22-4.1-13.23-.24-2.39,2.51-7.13,10.43-2,16.12s7.38,3.55,10.92,6.59c8.44,5.67,12.57,15.6,16.71,16.64Z" fill="none" stroke="#000" stroke-linejoin="round" stroke-width="0.54"/><path d="M242.86,196.74c1.15-1.59,3.22-4.66,3-7.22-.19-2,.93-8.18,1-10.86.76-8.35,6-15.13,4.57-22.39-.84-3.37-5.77-8.17-11.15-6.76-3.32,1-10.7,5.08-9,12.56s4.12,7.36,5.72,11.74C241.61,182.88,238.67,193.64,242.86,196.74Z" fill="none" stroke="#000" stroke-linejoin="round" stroke-width="0.54"/><path d="M123.35,37.08c0-1.18-1.32-2.13-3-2.13s-3,.95-3,2.13,1.33,2.13,3,2.13S123.35,38.26,123.35,37.08Z"/><path d="M124.62,42c0-1.13-1.36-2-3.05-2s-3,.91-3,2,1.37,2.05,3,2.05S124.62,43.18,124.62,42Z"/><path d="M128.41,36.17s-3.49,2.61-2,3.65,5.4-2.26,5.4-2.26Z"/><path d="M230.8,96a2.16,2.16,0,0,0-.91-1.8,1.65,1.65,0,0,0-1.83,0,2.13,2.13,0,0,0-.91,1.8,2.11,2.11,0,0,0,.91,1.8,1.61,1.61,0,0,0,1.83,0A2.16,2.16,0,0,0,230.8,96Z"/><path d="M229.48,91a1.94,1.94,0,1,0-1.92,2.24A2.11,2.11,0,0,0,229.48,91Z"/><path d="M230.39,101.14c0-.64-.33-1.16-.75-1.16s-.75.52-.75,1.16.34,1.17.75,1.17S230.39,101.79,230.39,101.14Z"/><path d="M233.46,92.09c0-.73-.33-1.33-.74-1.33s-.75.6-.75,1.33.33,1.33.75,1.33S233.46,92.82,233.46,92.09Z"/><path d="M225.07,93c0-.59-.34-1.08-.75-1.08s-.75.49-.75,1.08.34,1.08.75,1.08S225.07,93.6,225.07,93Z"/><path d="M226.4,100.15a1.59,1.59,0,1,0-1.58,1.74A1.68,1.68,0,0,0,226.4,100.15Z"/><path d="M222.24,97a1.33,1.33,0,1,0-1.33,1.49A1.42,1.42,0,0,0,222.24,97Z"/><path d="M221.58,92.76a1.29,1.29,0,0,0-.58-1.09,1.1,1.1,0,0,0-1.16,0,1.3,1.3,0,0,0,0,2.17,1.1,1.1,0,0,0,1.16,0A1.28,1.28,0,0,0,221.58,92.76Z"/><path d="M240.52,114.3c-1.71-2.27-4.46-3.22-6.13-2.13s-1.64,3.8.07,6.07,4.47,3.22,6.14,2.13S242.24,116.56,240.52,114.3Z"/><path d="M245.4,156.08c.33-2.78-1-5.23-3-5.47s-3.9,1.82-4.23,4.6,1,5.23,3,5.47S245.07,158.86,245.4,156.08Z"/><path d="M246.43,180.4c.57-2.74-.57-5.29-2.55-5.7s-4,1.47-4.61,4.21.57,5.3,2.55,5.71,4-1.48,4.61-4.22Z"/><path d="M251.12,157.64a1.69,1.69,0,1,0-1.67,2A1.86,1.86,0,0,0,251.12,157.64Z"/><path d="M247.05,162.21l-3.41,3.86s-3.2.08-3,1.12,4.4,4.15,4.36,5.4,2.82-.29,2.82-.29,2.29-6.94,2.29-7-.13-4.82-1.37-4.73-1.59,1.53-1.66,1.62Z"/><path d="M23,160.68a1.62,1.62,0,1,0-1.62,1.62A1.62,1.62,0,0,0,23,160.68Z"/><path d="M24.52,155.73a1.62,1.62,0,1,0-1.62,1.71A1.66,1.66,0,0,0,24.52,155.73Z"/><path d="M11.21,132.17c-.61-1.37-1.88-2.13-2.83-1.7s-1.24,1.87-.63,3.24,1.88,2.12,2.83,1.69S11.82,133.53,11.21,132.17Z"/><path d="M15.23,146.84c-.84-1.76-2.58-2.75-3.89-2.19s-1.69,2.43-.86,4.19,2.58,2.75,3.89,2.2S16.06,148.61,15.23,146.84Z"/><path d="M19.53,157.61c.27-2.21-.64-4.24-2-4.53s-2.75,1.26-3,3.46.64,4.23,2,4.53S19.26,159.81,19.53,157.61Z"/><path d="M12.63,159.18c.86-2.05.54-4.25-.73-4.91s-3,.45-3.85,2.5-.54,4.25.72,4.91S11.76,161.23,12.63,159.18Z"/><path d="M9.48,154.55a1.85,1.85,0,0,0-1.8-1.89,1.89,1.89,0,0,0,0,3.78A1.85,1.85,0,0,0,9.48,154.55Z"/><path d="M8,149.87a1.67,1.67,0,0,0-1.62-1.71,1.71,1.71,0,0,0,0,3.42A1.67,1.67,0,0,0,8,149.87Z"/><path d="M9.57,140.86c0-1.59-.71-2.88-1.58-2.88s-1.58,1.29-1.58,2.88.71,2.89,1.58,2.89S9.57,142.46,9.57,140.86Z"/><path d="M14.42,140.17c.21-1.58-.32-2.95-1.19-3.06s-1.73,1.07-1.94,2.64.32,2.95,1.18,3.07S14.21,141.75,14.42,140.17Z"/><path d="M49,71.22c.64-2.23,0-4.48-1.48-5s-3.17.84-3.81,3.07,0,4.48,1.48,5S48.33,73.46,49,71.22Z"/><path d="M42.42,81.17c1.92-1.64,2.74-3.9,1.83-5.06S41,75.35,39.12,77,36.37,80.89,37.28,82,40.49,82.81,42.42,81.17Z"/><path d="M38.58,75.65c1.91-1.41,2.72-3.35,1.82-4.34s-3.17-.66-5.08.74-2.71,3.36-1.81,4.35S36.68,77.06,38.58,75.65Z"/><path d="M53.35,65.94c1.28-1,1.83-2.34,1.22-3s-2.14-.46-3.42.52-1.84,2.34-1.23,3S52.06,66.92,53.35,65.94Z"/><path d="M45.65,75.35c.88-1.36.94-2.82.14-3.27s-2.17.29-3,1.65-.94,2.82-.13,3.26S44.78,76.7,45.65,75.35Z"/><path d="M56.76,69.53c1.38-1.16,1.91-2.7,1.2-3.44s-2.42-.39-3.8.77-1.92,2.71-1.2,3.45S55.37,70.7,56.76,69.53Z"/><path d="M36.69,83.09C38,83,39,82.39,38.87,81.66s-1.21-1.27-2.5-1.21-2.27.71-2.18,1.44,1.21,1.27,2.5,1.2Z"/><path d="M61,62.33c.88-1.36.94-2.82.13-3.27s-2.17.29-3,1.65-.94,2.82-.13,3.26S60.1,63.68,61,62.33Z"/><path d="M156.61,70.32s6.81-3.14,8.75-9-5.89-5.91-6.92-4.05.88,6.49.38,7.71-3.26,4.18-2.21,5.32Z" fill="#fff" stroke="#000" stroke-linejoin="round" stroke-width="1.31"/><path d="M96.29,72.46s4.42-6.06,3.27-12.11-8-2.3-8-.17,3.93,5.24,4.1,6.55-.82,5.23.65,5.73Z" fill="#fff" stroke="#000" stroke-linejoin="round" stroke-width="1.31"/><path d="M84.34,76.06S88.76,70,87.62,64s-8-2.3-8-.17,3.93,5.24,4.09,6.55-.82,5.23.65,5.73Z" fill="#fff" stroke="#000" stroke-linejoin="round" stroke-width="1.31"/><path d="M71.09,80.15S75.51,74.09,74.36,68s-8-2.29-8-.16,3.93,5.23,4.09,6.54-.81,5.24.66,5.73Z" fill="#fff" stroke="#000" stroke-linejoin="round" stroke-width="1.31"/><path d="M61.76,89.48S66.18,83.42,65,77.37s-8-2.3-8-.17,3.92,5.24,4.09,6.55-.82,5.23.65,5.72Z" fill="#fff" stroke="#000" stroke-linejoin="round" stroke-width="1.31"/><path d="M51.94,98.48s4.42-6.06,3.28-12.11-8-2.29-8-.17,3.93,5.24,4.09,6.55-.82,5.24.65,5.73Z" fill="#fff" stroke="#000" stroke-linejoin="round" stroke-width="1.31"/><path d="M74.51,46s-5.88,4.65-6.4,10.79,7.1,4.36,7.67,2.31-2.37-6.1-2.18-7.4,2.2-4.83.91-5.7Z" fill="#fff" stroke="#000" stroke-linejoin="round" stroke-width="1.31"/><path d="M94.15,40s-5.88,4.64-6.41,10.78,7.11,4.36,7.68,2.32-2.37-6.1-2.18-7.41,2.2-4.82.91-5.69Z" fill="#fff" stroke="#000" stroke-linejoin="round" stroke-width="1.31"/><path d="M21,93s1.24,7.39,6.37,10.8,7.24-4.13,5.72-5.62-6.49-.85-7.54-1.65S22.36,92.29,21,93Z" fill="#fff" stroke="#000" stroke-linejoin="round" stroke-width="1.31"/><path d="M11.17,118.1s.06,7.49,4.59,11.67,7.8-2.94,6.54-4.65-6.28-1.86-7.19-2.81-2.47-4.7-3.94-4.21Z" fill="#fff" stroke="#000" stroke-linejoin="round" stroke-width="1.31"/><path d="M33.79,146.14s-2.67-7-8.37-9.34-6.29,5.48-4.5,6.64,6.53-.45,7.71.13,3.95,3.53,5.16,2.57Z" fill="#fff" stroke="#000" stroke-linejoin="round" stroke-width="1.31"/><path d="M29.1,134s4.53-6,3.5-12.05-8-2.44-8-.32,3.83,5.32,4,6.63-.92,5.22.55,5.74Z" fill="#fff" stroke="#000" stroke-linejoin="round" stroke-width="1.31"/><path d="M170.52,76.38s6.81-3.14,8.75-9-5.89-5.9-6.92-4,.88,6.48.39,7.7-3.27,4.18-2.22,5.33Z" fill="#fff" stroke="#000" stroke-linejoin="round" stroke-width="1.31"/><path d="M191.1,86.64s4-6.33,2.46-12.3-8.15-1.75-8,.38,4.27,5,4.52,6.25-.47,5.28,1,5.67Z" fill="#fff" stroke="#000" stroke-linejoin="round" stroke-width="1.31"/><path d="M247.27,145s-2.68-7-8.39-9.32-6.28,5.49-4.49,6.64,6.53-.45,7.72.12,3.95,3.53,5.16,2.56Z" fill="#fff" stroke="#000" stroke-linejoin="round" stroke-width="1.31"/><path d="M219.81,149.31s.15-7.5,4.74-11.62,7.76,3,6.47,4.73-6.3,1.79-7.22,2.73-2.52,4.66-4,4.16Z" fill="#fff" stroke="#000" stroke-linejoin="round" stroke-width="1.31"/><path d="M215.39,69.84s-7-2.66-12.55,0-.09,8.34,2,7.78,4-5.17,5.24-5.68,5.26-.59,5.35-2.14Z" fill="#fff" stroke="#000" stroke-linejoin="round" stroke-width="1.31"/><path d="M199.35,56.42s-7-2.66-12.54,0-.09,8.34,2,7.78,4-5.17,5.23-5.67,5.27-.6,5.35-2.15Z" fill="#fff" stroke="#000" stroke-linejoin="round" stroke-width="1.31"/><path d="M175.43,43.63s-5.94,4.57-6.54,10.7,7.06,4.45,7.65,2.41-2.3-6.13-2.09-7.43,2.26-4.8,1-5.68Z" fill="#fff" stroke="#000" stroke-linejoin="round" stroke-width="1.31"/><path d="M159.87,39.88s-2.71,7,0,12.54,8.34.15,7.79-1.91-5.14-4-5.64-5.27-.56-5.27-2.11-5.36Z" fill="#fff" stroke="#000" stroke-linejoin="round" stroke-width="1.31"/><path d="M115.7,66.81s4.85-5.72,4.14-11.84-7.83-2.87-8-.74,3.53,5.5,3.6,6.82-1.19,5.16.24,5.76Z" fill="#fff" stroke="#000" stroke-linejoin="round" stroke-width="1.31"/><path d="M236.92,148.66a7,7,0,0,0-2.77-5,3.13,3.13,0,0,0-4.21.53,7.82,7.82,0,0,0,1.33,10.63,3.13,3.13,0,0,0,4.21-.53,7,7,0,0,0,1.44-5.58Z" fill="#fff" stroke="#000" stroke-width="1.29"/><path d="M236,137.59a7.07,7.07,0,0,0-2.77-5.05,3.15,3.15,0,0,0-4.22.53,7.82,7.82,0,0,0,1.33,10.63,3.15,3.15,0,0,0,4.22-.53,7,7,0,0,0,1.44-5.58Z" fill="#fff" stroke="#000" stroke-width="1.29"/><path d="M233.77,125.77a7.06,7.06,0,0,0-3.2-4.79,3.13,3.13,0,0,0-4.15.9,7.82,7.82,0,0,0,2.25,10.47,3.15,3.15,0,0,0,4.16-.89,7.08,7.08,0,0,0,.94-5.69Z" fill="#fff" stroke="#000" stroke-width="1.29"/><path d="M229.68,113.42a7.07,7.07,0,0,0-4.32-3.81,3.14,3.14,0,0,0-3.79,1.92,7.81,7.81,0,0,0,4.85,9.55,3.14,3.14,0,0,0,3.79-1.92A7.08,7.08,0,0,0,229.68,113.42Z" fill="#fff" stroke="#000" stroke-width="1.29"/><path d="M225.3,103.51A7.07,7.07,0,0,0,221,99.7a3.14,3.14,0,0,0-3.79,1.92,7.83,7.83,0,0,0,4.85,9.55,3.13,3.13,0,0,0,3.79-1.92A7.08,7.08,0,0,0,225.3,103.51Z" fill="#fff" stroke="#000" stroke-width="1.29"/><path d="M219.07,93.55a7.06,7.06,0,0,0-4.62-3.44,3.13,3.13,0,0,0-3.61,2.24,7.8,7.8,0,0,0,5.64,9.1,3.13,3.13,0,0,0,3.61-2.23A7,7,0,0,0,219.07,93.55Z" fill="#fff" stroke="#000" stroke-width="1.29"/><path d="M212.15,83.94a7.08,7.08,0,0,0-4.94-3,3.13,3.13,0,0,0-3.37,2.58,7,7,0,0,0,1.56,5.54,7.1,7.1,0,0,0,4.93,3,3.14,3.14,0,0,0,3.38-2.58A7.05,7.05,0,0,0,212.15,83.94Z" fill="#fff" stroke="#000" stroke-width="1.29"/><path d="M203.89,75a7.08,7.08,0,0,0-5.31-2.23,3.14,3.14,0,0,0-3,3,7.83,7.83,0,0,0,7.66,7.49,3.14,3.14,0,0,0,3-3A7.06,7.06,0,0,0,203.89,75Z" fill="#fff" stroke="#000" stroke-width="1.29"/><path d="M194.59,66.75a7.09,7.09,0,0,0-5.5-1.73,3.15,3.15,0,0,0-2.67,3.3,7.8,7.8,0,0,0,8.32,6.75,3.13,3.13,0,0,0,2.67-3.3A7,7,0,0,0,194.59,66.75Z" fill="#fff" stroke="#000" stroke-width="1.29"/><path d="M184.74,60.17a7.1,7.1,0,0,0-5.71-.78,3.13,3.13,0,0,0-2.09,3.69,7.82,7.82,0,0,0,9.32,5.28,3.15,3.15,0,0,0,2.1-3.7A7.11,7.11,0,0,0,184.74,60.17Z" fill="#fff" stroke="#000" stroke-width="1.29"/><path d="M173.71,54.34a7.06,7.06,0,0,0-5.75-.27,3.14,3.14,0,0,0-1.75,3.87A7.83,7.83,0,0,0,176,62.35a3.15,3.15,0,0,0,1.74-3.88,7,7,0,0,0-4-4.13Z" fill="#fff" stroke="#000" stroke-width="1.29"/><path d="M162.9,50a7.09,7.09,0,0,0-5.76.12,3.15,3.15,0,0,0-1.48,4,7.82,7.82,0,0,0,10,3.73,3.14,3.14,0,0,0,1.49-4A7.07,7.07,0,0,0,162.9,50Z" fill="#fff" stroke="#000" stroke-width="1.29"/><path d="M151.91,46.54a7.05,7.05,0,0,0-5.73.55A3.14,3.14,0,0,0,145,51.18a7.82,7.82,0,0,0,10.3,3,3.14,3.14,0,0,0,1.17-4.08A7,7,0,0,0,151.91,46.54Z" fill="#fff" stroke="#000" stroke-width="1.29"/><path d="M139.81,44.47a7.09,7.09,0,0,0-5.58,1.44,3.13,3.13,0,0,0-.53,4.21,7.81,7.81,0,0,0,10.63,1.34,3.13,3.13,0,0,0,.53-4.21A7.07,7.07,0,0,0,139.81,44.47Z" fill="#fff" stroke="#000" stroke-width="1.29"/><path d="M127.87,43.8a7.08,7.08,0,0,0-5.43,1.9,3.14,3.14,0,0,0-.17,4.25,7.8,7.8,0,0,0,10.7.43,3.14,3.14,0,0,0,.17-4.25,7.1,7.1,0,0,0-5.27-2.33Z" fill="#fff" stroke="#000" stroke-width="1.29"/><path d="M116.93,44.19a7,7,0,0,0-5.43,1.9,3.14,3.14,0,0,0-.17,4.25,7.83,7.83,0,0,0,10.7.43,3.14,3.14,0,0,0,.17-4.25,7,7,0,0,0-5.27-2.33Z" fill="#fff" stroke="#000" stroke-width="1.29"/><path d="M104.11,45.71A7.07,7.07,0,0,0,99.36,49a3.14,3.14,0,0,0,1,4.14,7.83,7.83,0,0,0,10.44-2.39,3.12,3.12,0,0,0-1-4.14A7,7,0,0,0,104.11,45.71Z" fill="#fff" stroke="#000" stroke-width="1.29"/><path d="M92.45,48.63A7,7,0,0,0,88,52.27a3.15,3.15,0,0,0,1.29,4,7.82,7.82,0,0,0,10.21-3.24,3.15,3.15,0,0,0-1.29-4A7,7,0,0,0,92.45,48.63Z" fill="#fff" stroke="#000" stroke-width="1.29"/><path d="M81.81,53.19a7,7,0,0,0-4,4.14,3.14,3.14,0,0,0,1.76,3.87,7.81,7.81,0,0,0,9.75-4.43,3.14,3.14,0,0,0-1.76-3.87A7,7,0,0,0,81.81,53.19Z" fill="#fff" stroke="#000" stroke-width="1.29"/><path d="M71.19,58.63a7,7,0,0,0-3.63,4.47,3.13,3.13,0,0,0,2.08,3.7A7.82,7.82,0,0,0,79,61.56a3.14,3.14,0,0,0-2.08-3.71A7.06,7.06,0,0,0,71.19,58.63Z" fill="#fff" stroke="#000" stroke-width="1.29"/><path d="M61.15,65.44A7,7,0,0,0,58,70.28a3.13,3.13,0,0,0,2.47,3.45,7.82,7.82,0,0,0,8.71-6.23,3.13,3.13,0,0,0-2.47-3.45A7,7,0,0,0,61.15,65.44Z" fill="#fff" stroke="#000" stroke-width="1.29"/><path d="M51.86,72.48a7,7,0,0,0-2.7,5.09,3.13,3.13,0,0,0,2.75,3.23,7.84,7.84,0,0,0,8.16-7,3.15,3.15,0,0,0-2.76-3.23A7.05,7.05,0,0,0,51.86,72.48Z" fill="#fff" stroke="#000" stroke-width="1.29"/><path d="M43.66,81.05a7,7,0,0,0-2.33,5.27,3.13,3.13,0,0,0,3,3,7.81,7.81,0,0,0,7.63-7.51,3.14,3.14,0,0,0-3-3A7.06,7.06,0,0,0,43.66,81.05Z" fill="#fff" stroke="#000" stroke-width="1.29"/><path d="M36.59,90.57A7.1,7.1,0,0,0,34.71,96a3.15,3.15,0,0,0,3.23,2.77,7.82,7.82,0,0,0,7-8.13,3.15,3.15,0,0,0-3.23-2.77A7.11,7.11,0,0,0,36.59,90.57Z" fill="#fff" stroke="#000" stroke-width="1.29"/><path d="M30.14,100.33a7,7,0,0,0-1.29,5.61,3.13,3.13,0,0,0,3.5,2.41,7,7,0,0,0,4.78-3.21,7,7,0,0,0,1.29-5.61,3.13,3.13,0,0,0-3.5-2.41A7,7,0,0,0,30.14,100.33Z" fill="#fff" stroke="#000" stroke-width="1.29"/><path d="M24.76,111.39a7,7,0,0,0-.31,5.75,3.14,3.14,0,0,0,3.86,1.77,7.83,7.83,0,0,0,4.47-9.74,3.15,3.15,0,0,0-3.86-1.77A7,7,0,0,0,24.76,111.39Z" fill="#fff" stroke="#000" stroke-width="1.29"/><path d="M20.5,122.94a7.07,7.07,0,0,0,.21,5.76,3.14,3.14,0,0,0,4,1.41A7.83,7.83,0,0,0,28.29,120a3.14,3.14,0,0,0-4-1.41A7,7,0,0,0,20.5,122.94Z" fill="#fff" stroke="#000" stroke-width="1.29"/><path d="M16.8,144.82a4.93,4.93,0,0,0,1.62,4.43,3.72,3.72,0,0,0,4.23.32,5.46,5.46,0,0,0,2.61-4.12A5,5,0,0,0,23.64,141a3.72,3.72,0,0,0-4.23-.32,5.4,5.4,0,0,0-2.61,4.12Z" fill="#fff" stroke="#000" stroke-width="1.15"/><path d="M17.78,134.61a7.09,7.09,0,0,0,.88,5.69,3.14,3.14,0,0,0,4.15.94,7.84,7.84,0,0,0,2.38-10.44,3.14,3.14,0,0,0-4.15-.94A7.06,7.06,0,0,0,17.78,134.61Z" fill="#fff" stroke="#000" stroke-width="1.29"/><path d="M228.11,129.37c1.34-1.44,2.59-1.85,4.18-1.32-.56-3.8-1.76-5.09-3.23-4.63s-2.13,2.41-.95,6Z"/><path d="M230.16,140.84c1.45-1.33,2.73-1.64,4.27-1-.27-3.83-1.37-5.21-2.87-4.86s-2.3,2.24-1.4,5.86Z"/><path d="M225.3,118.91c.93-1.74,2-2.45,3.7-2.34-1.5-3.53-3-4.48-4.29-3.66s-1.45,2.87.59,6Z"/><path d="M220.19,108.47c.94-1.73,2.05-2.44,3.71-2.34-1.5-3.53-3-4.47-4.3-3.66s-1.44,2.88.59,6Z"/><path d="M208,89.36c.65-1.87,1.63-2.75,3.29-2.91-2.06-3.25-3.68-3.93-4.83-2.92s-1,3.06,1.54,5.83Z"/><path d="M200,81c.58-1.89,1.52-2.81,3.18-3-2.18-3.17-3.83-3.8-4.94-2.74s-.85,3.1,1.76,5.77Z"/><path d="M183.14,66.84c0-2,.58-3.14,2.09-3.86-3-2.34-4.81-2.43-5.54-1.09s.15,3.22,3.45,5Z"/><path d="M191.89,73.4c.31-2,1.11-3,2.72-3.44-2.59-2.83-4.31-3.23-5.27-2s-.41,3.19,2.55,5.47Z"/><path d="M173.16,61.33c-.24-2,.25-3.18,1.67-4.06-3.27-2-5-1.92-5.62-.5s.48,3.18,3.95,4.56Z"/><path d="M163,56.87c-.51-1.9-.2-3.18,1.08-4.25-3.52-1.52-5.25-1.18-5.63.31s.92,3.07,4.55,3.94Z"/><path d="M152,53.47c-.67-1.85-.47-3.16.71-4.33-3.64-1.22-5.33-.73-5.58.78s1.18,3,4.87,3.55Z"/><path d="M141.16,51.38c-.81-1.8-.7-3.11.4-4.37-3.72-1-5.37-.35-5.52,1.18s1.4,2.9,5.12,3.19Z"/><path d="M129.72,50.5c-1-1.71-1-3-.05-4.38-3.8-.57-5.38.21-5.37,1.74s1.69,2.74,5.42,2.64Z"/><path d="M107.34,52.19c-1.37-1.42-1.72-2.69-1.11-4.25-3.83.37-5.17,1.51-4.79,3s2.3,2.25,5.9,1.26Z"/><path d="M118.36,50.74c-1.17-1.59-1.34-2.9-.53-4.36-3.84-.15-5.32.79-5.15,2.32s2,2.53,5.68,2Z"/><path d="M96.52,54.52c-1.56-1.2-2.08-2.41-1.7-4-3.74.91-4.91,2.23-4.31,3.65s2.6,1.89,6,.39Z"/><path d="M75.82,64c-1.76-.88-2.5-2-2.45-3.64C69.89,62,69,63.52,69.84,64.8s2.91,1.36,6-.76Z"/><path d="M85.8,58.94c-1.64-1.09-2.24-2.26-2-3.91-3.66,1.17-4.74,2.57-4,3.94s2.73,1.7,6,0Z"/><path d="M57.25,77c-1.91-.5-2.86-1.41-3.15-3-3.08,2.3-3.64,4-2.54,5s3.13.73,5.69-2Z"/><path d="M66.11,69.72c-1.86-.65-2.74-1.63-2.9-3.29-3.25,2-3.94,3.67-2.93,4.83s3.06,1,5.83-1.54Z"/><path d="M49.38,84.73c-2-.33-3-1.14-3.42-2.75-2.85,2.56-3.26,4.28-2.07,5.24s3.18.44,5.49-2.49Z"/><path d="M42.32,93.88c-2-.15-3.07-.87-3.65-2.43-2.61,2.82-2.86,4.56-1.59,5.41s3.21.15,5.24-3Z"/><path d="M36.42,103.25c-2,.15-3.16-.39-4-1.85-2.15,3.18-2.13,4.95-.74,5.6s3.2-.35,4.72-3.75Z"/><path d="M31.23,113.24c-1.92.41-3.18,0-4.18-1.31-1.72,3.43-1.47,5.18,0,5.64s3.13-.75,4.19-4.33Z"/><path d="M27.09,123.5c-1.84.71-3.14.53-4.34-.63-1.15,3.66-.63,5.34.88,5.57s3-1.24,3.46-4.94Z"/><path d="M24.31,134.94c-1.79.83-3.1.74-4.37-.34-.91,3.73-.27,5.37,1.26,5.5s2.87-1.44,3.11-5.16Z"/><path d="M23.18,144.45a4.42,4.42,0,0,1-4.37.32c-.5,3,.3,4.25,1.83,4.14s2.7-1.51,2.54-4.46Z"/><path d="M215.64,99.17c.67-1.85,1.66-2.71,3.33-2.85-2-3.28-3.62-4-4.79-3s-1,3.06,1.46,5.85Z"/><path d="M231.42,152.46c1.45-1.34,2.73-1.65,4.27-1-.27-3.83-1.38-5.2-2.87-4.86s-2.3,2.25-1.4,5.87Z"/><path d="M207.31,103.49s4-6.33,2.45-12.3-8.15-1.75-8,.38,4.27,5,4.52,6.25-.47,5.28,1,5.67Z" fill="#fff" stroke="#000" stroke-linejoin="round" stroke-width="1.31"/><path d="M216.38,90.1s-4.34,4.3-3.59,9.53,4.06,11.67,3.45,17.08a64.12,64.12,0,0,1-1.59,9s5-5.75,5.09-11.26-3.45-12.74-3.45-16.8.19-7.66.09-7.57Z" fill="#fff" stroke="#000" stroke-linejoin="round" stroke-width="1.05"/><path d="M224.37,107.66s-3.37,2.47-3,8.17S227.54,132,227.54,132s4.3,8.82,4.16,11.11.79-2.19.37-7.23-6.91-16.16-6.91-16.16a11.61,11.61,0,0,1-1.26-6.07c.14-3.78.51-5.93.47-6Z" fill="#fff" stroke="#000" stroke-linejoin="round" stroke-width="1.05"/><path d="M130.85,50.79s14.43.56,14.52,9.9a61.34,61.34,0,0,1-.51,7.33c2.84-1.54,4.76-5.84,4.38-8.59,0-9.48-12.88-16-18.39-8.64Z" fill="#fff" stroke="#000" stroke-linejoin="round" stroke-width="1.31"/><path d="M121.7,50.37s11.63-2.43,11.72,6.91-3.69,10.83-3.69,10.83,8.92-1.91,9-11.39-11.49-13.68-17-6.35Z" fill="#fff" stroke="#000" stroke-linejoin="round" stroke-width="1.31"/><path d="M234.63,157.37c.27,4.19,4.37,8.2,2.76,15.51-2,8.28-9.27,28-8,31.46-2.14-2.94-1.78-5.71-2-9.81s6-19.34,6.51-24.51a119.6,119.6,0,0,1,.71-12.65Z" fill="#fff" stroke="#000" stroke-linejoin="round" stroke-width="1.31"/><path d="M234.63,157.46s6.68,8.47,6.33,15.15-4.1,14.53-2.86,18c-2.13-2.94-2.67-4.81-2.85-8.91s3.3-8.64,2.59-13.1-3.3-11.14-3.21-11.14Z" fill="#fff" stroke="#000" stroke-linejoin="round" stroke-width="1.31"/><path d="M15.65,159.33c-.27,4.19-3.39,7.93-1.78,15.24,2.05,8.29,9.36,18.8,8.2,30.84,2.14-2.95,2.76-6.24,2.94-10.34S16.9,177.15,16.36,172a119.6,119.6,0,0,0-.71-12.65Z" fill="#fff" stroke="#000" stroke-linejoin="round" stroke-width="1.31"/><path d="M15.65,159.42s-6.51,8.2-6.15,14.88c.09,4.46,8.29,23.09,7,26.56,2.14-2.94,2.77-2.58,2.68-7-2.41-11.41-6.69-18.72-6-23.17s2.5-11.23,2.41-11.23Z" fill="#fff" stroke="#000" stroke-linejoin="round" stroke-width="1.31"/></svg>