<svg xmlns="http://www.w3.org/2000/svg" width="300" height="300" viewBox="0 0 300 300"><title>flag-michigan-icon-elk-moose</title><path d="M46.25,72.24c3-.18,4.78-1.44,7.74-.2,1.79.75,4.38,2.19,5.48,3.83-.48-.71-2.2-.58-2.83-.36-1.67.59-3.07,1.94-5,.68-.71-.46-.86-1.36-1.46-1.87a4.8,4.8,0,0,0-2.51-.79,11.52,11.52,0,0,1-4.33-1.46c1.32.21,2.65.47,4,.63a14.58,14.58,0,0,1,1.76.13c.88.24,1.41,1.14,2.07,1.34,1,.3,1.48-1.47,2.85-1.09,1.53.42.88,1.2.64,2.42a6,6,0,0,1,2.56-.68c-1.38-.7-2.73-1.52-4.14-2.15-2.21-1-4.45-.45-6.82-.43"/><path d="M74,78.25c-1.83-.4-4.27,1.45-6,2.06,2.26,1.62,4.31-.36,6.69-.36L74,78.24"/><path d="M26.53,69c2.54-1.15,4.32-.87,7.09-.32,1.18.23,5.45,1.91,3.49,3.43-1.25,1-3.81-.37-5-.81C30.52,70.73,27,70.46,26,69"/><path d="M225.58,83.64c-1.53,2.17-5.74,2.88-4.36-.85.93-2.52,4.26-3.71,6.68-4a12,12,0,0,0-3.84,1.9c-.28.24-2.14,3.28-1.18,3.6a11.57,11.57,0,0,0,1.8-.9c.15-.1.48-1,.71-1,.55.1.41,1,.19,1.26"/><path d="M236.56,76.7c3.57-2.47,6.23-4.4,10.46-1.88-.6-.07-2.44-.6-2.93-.3-.76.46-.19,2.27-1.67,1.8-.63-.2-.6-1.1-1.15-1.24s-1.46.48-1.91.63c-.94.32-1.87.66-2.8,1"/><path d="M253.53,75a11.57,11.57,0,0,1,5.38-2.45c1.59-.22,3.52.59,5.08.91C261,75.61,257,75,253.53,75"/><path d="M86.54,249.6l-1.37-3.08L81,250.36l1.1-1.1-7.71-.76c2.28.49,4.12.93,5.88,2.53l-.31.28,6.6-1.71"/><path d="M14.19,265.72c1.85.23,5.31.31,6.94-.77-.32,1.38-.31,5.15-2.49,4.86-1.25-.17-3.47-3.17-4.45-4.09"/><path d="M214,252.85c1-1.62-3.25-3.94-4.37-4.87l-2.06,2.82,6.43,2"/><path d="M265.71,259.29l3.85,2.31c-.47.71-.66,1.4-1.35,1.4s-2.06-1.05-2.77-1.4l.27,6.18-1-3.81c-.36-1.44-.52-1.43-1.88-2.11l2.84-2.57"/><path d="M20.36,262.9c1.54,1.05.7,5.47-.74,6.39-2.11,1.33-5.89-4.19-7.34-5.5-1.77-1.61-1.25-3.27-1-5.55.32-3,.6-5.93.66-8.91a16.85,16.85,0,0,0-1.06-7.43c-1.79-4.06-1.19-7.63-1.55-11.87-.24-2.77,1-3.6,2.71-5.54a19.91,19.91,0,0,0,4.38-8.31c1.54-6.44-.5-13.78-4.29-19.11-1.25,1-2.62,1.26-2.82-.67A46.66,46.66,0,0,1,9.72,189c.67-8.56,5.3-14.61,11.37-20.33,3.08-2.91,6.33-5.62,9.55-8.36,2-1.74,4.43-3.51,6-5.77,2.62-3.88,3.51-9.51,4.69-14l-2.06,1c.48-4.23,1.83-8.31,1.69-12.6-.11-3.35-.58-6.71-1-10l-2.4,1.38c0-1.53.38-3.58-.17-5.06s-2.58-1.61-3.19-3.13.17-3.59-.07-5.19l-2.74,1.72a35.35,35.35,0,0,0,1.42-14.23c-.62-5.75-1.59-12.45.63-18a18.17,18.17,0,0,1-5.16-1.74c-1.68-.87-6.08-3.88-5.42-6.19.28-1,3.08-2.23,3.87-2.62a11.06,11.06,0,0,1,4.58-1.24,14.26,14.26,0,0,1,6.27,1.24c1.4.62,3.15,2.71,4.55,1.38-4.33-3-9.08-5.72-12.79-9.49-.63-.64-.78-1-1.49-1.13-1-.21-2.55.27-3.53.34a59.6,59.6,0,0,1-11.87-.13c-3.2-.4-7.72-1.2-9.4-4.38,3.47,1.36,8.29,2.21,11.53-.12,1-.68,2.53-2.32,2.54-3.59,0-1.09-.3-1-1.37-1.71l-5.5-3.7a12.31,12.31,0,0,0,7.41,1C24,43,25.81,35.74,26.27,30.17c1.9,4.19.06,8.41.39,12.7C27,46.94,29.29,50.92,31.93,54c.32-.71,1-4.4,1.06-4.4,1.24.06,2,4.45,2.15,5a11.86,11.86,0,0,0,4.7-5.44,23.29,23.29,0,0,0,2-8.3c.06-.78-.64-5.59.93-5.52.55,0,.32,6,.28,6.64a27.58,27.58,0,0,1-2.19,9.2c-.71,1.7-2.6,4-2,6,.29.88,1.79,2.54,2.83,1.88,1.46-.93.22-9.36,0-9.34.85-.09,2.53,3.21,2.71,3.72.61,1.64.21,3.38.63,5,.37,1.36.72.94,2,.06a16,16,0,0,0,3.84-4.18c.2-.29,2.4-4,2.58-3.83,1.19,1-3.6,6.83-1.75,7.59,1.09.44,5.67-3.82,6.35-4.38a29.17,29.17,0,0,0,6.63-7.6c2.48-4,.68,1.66.18,3a13.19,13.19,0,0,1-2.3,4.21,33.77,33.77,0,0,1-2.83,2.94c1,.16,2.92-1,3.85-1.4a26.61,26.61,0,0,0,4.59-2.3,11.81,11.81,0,0,0,3.67-3.74c.29-.46,1.9-4.21,2.71-4.05,1.49.29-4.22,7.24,1.2,5.27,3.53-1.28,7.3-3.47,9.46-6.62A22.31,22.31,0,0,1,76.2,55a45.43,45.43,0,0,1-15.35,6.2c1.9.15,3.81.32,5.7.56.94.13,4.64.54,3.3,1.58s-6.46.23-8.17.21c-2,0-4.83-.5-6.7.39-3.55,1.7.23,3.45,1.94,4.35a69.33,69.33,0,0,1,7.54,4.32c2.58,1.82,5.15,2.54,7.88,3.9,2.26,1.12,3.41,4.13,2.94,6.6-.37,2-1.74,4.92-3.69,5.59-3,1-6.23-.72-8,2.58M17.79,44.17c-.09-.36-.65-4,.32-3.12.54.47.59,2.07,1,2.74M63.31,90.85c3.11,3.6,6.43,7.05,9.5,10.67,1.93,2.29,2.2,5.33,3.93,7.73,1.28,1.75,2.93,3.06,4.11,4.92,1.05,1.67,2,4.59,3.45,5.89.66.59,0,.37.71.49s2.7-1,3.48-1.22c3.59-1.23,7.29-2.19,10.79-3.7,2.89-1.25,5.78-3,8.87-3.75,6.57-1.5,7.39,5.45,8.64,10.33M91.6,136.88c-1.15,1.14-2.83,2.07-3.5,3.58a16.14,16.14,0,0,0-.66,3.16c-.37,2-.9,2.1.56,2.95,2.87,1.69,6.43,2.66,9.51,3.93m-.16,42.8c-2.35.39-5.33-1.29-5.77-3.71-.5-2.71,1.66-5.41.24-8.07-.93-1.73-1.59-2.25-1.45-4.35.23-3.44.76-6.87,1.11-10.31.21-2,.94-5.9-1.1-7.24-1.52-1-4.82-.88-5.66.89s-1.18,4-2.09,5.92a55.15,55.15,0,0,1-4.92,8.44c-3.68,5.17-8.94,9.16-13.1,14,3.11,2.68,3.29,7.54,2.56,11.26-1.44,7.35-6.71,14.36-6.08,22.08.57,7,5.77,13.6,10.37,18.56,1.85,2,3.36,4,6.18,4.35,3.16.44,7-.37,8.3,3.4M80,251.07c-.52-2.34-4.54-2-6.31-2.73-3.53-1.41-5.75-4.94-8-7.82a17.61,17.61,0,0,0-6.81-5.66c-2.75-1.35-5.81-3.07-7.19-6-1.13-2.36-.39-5.34.09-7.77s2.54-6.43,1.8-8.86c-.83-2.74-5.4-4.68-7.52-6.08-1.89-1.25-3.78-2.49-5.69-3.72a69.39,69.39,0,0,1-6.12,11.83,48.65,48.65,0,0,1-7.17,9c-2.39,2.3-5.09,4.27-7.45,6.59-4,4-3.43,10.92-3.83,16.13-.5,6.53-.74,12.43,5,16.67M85.69,159a27.92,27.92,0,0,1-5.17-1.92c-2.29-1.16-3.84-1.16-6.41-1.17-3.45,0-6.86-1.89-9.77-3.6M87,145.89a48.91,48.91,0,0,1-8.16-3.64c-2.47-1.51-4.18-4.43-6-6.66m11.82-15.16c1.84,2.72,2.11,6.47,3,9.54,1,3.3,1.5,6.1.32,9.48m-47.58,63a65.2,65.2,0,0,0,1.47-9.3c.3-3.86,0-7.47,1.88-11" fill="none" stroke="#000" stroke-linecap="round" stroke-linejoin="round" stroke-width="1.5"/><path d="M64.6,188.84c-2.21,2.34-4.63,4.42-6.92,6.67-3.37,3.32-8.67,3.78-12.89,5.66M17.27,47.73a16.15,16.15,0,0,1,6.52,5c-1.92.18-4.19-.53-3.6-2.91m15.09,4.63s-1.89,1.71-3.26-.17m9.09,4.61c4.67.78,7.21,3.7,10.28,7m8.75-10.1a46.75,46.75,0,0,0-6.41,4c-1.45,1.08-1.65,1.43-1.18,3.35a8.25,8.25,0,0,0,1.07,2.65m21.09,18c-2.14.66-4.61,1-6.58,2.08-1.75,1-2.83,2.28-5.08,1.52M179.46,123c.36-5.08,2.22-10.7,8.14-10.62,4.57.05,7.68,3,11.46,5.24,2.73,1.64,5.49,3.24,8.22,4.86.77.46,2.93,2.33,3.73,2.23.42,0,1.25-1.11,1.52-1.37a13.46,13.46,0,0,0,3.18-4.58c1.22-2.63,3.82-4.45,5-7.13.82-1.89-.41-2.66-.64-4.47-.27-2,.64-3.39,1.95-4.76,3.34-3.47,7.36-6.88,9.89-11,.89-1.46,1.42-3.66-1-2.68s-2.95,3.74-6.3,2c-1.47-.76-2.83-1.49-4.38-2.17-2.31-1-2.89-2.6-3.11-5-.65-7.17,6.72-9,12.52-9.47,3.6-.27,6.62-.06,9.5-2.49A30.42,30.42,0,0,1,245,67.79a46,46,0,0,1-20.16-2c-4-1.4-11.13-4.91-12-9.65-.53-3,2.92,1,4.08,1.75A26.93,26.93,0,0,0,222,60.25c-.27-1.51-.81-3.72,1-2.65,1.53.9,2.77,2.18,4.41,3a27.28,27.28,0,0,0,9.38,2.48c2.17.21,4.94.58,7.07.08,1.4-.32.91,0,1.06-1.1a3.89,3.89,0,0,0-.24-1.44c-2-6.12-13.21-6-18.07-7-5.44-1.14-9.51-3.32-11.89-8.38-.31-.67-1.6-2.67-.34-2.94,1.08-.24,3.57,2.7,4.52,3.32A53.12,53.12,0,0,0,227.38,50c-.72-1.64-2.53-5.81-1.58-7.59.46-.87.46-.59,1.39.21,1.34,1.16,2.55,2.51,3.87,3.7,2.09,1.87,4.43,4.12,7.18,4.92,1.23.36,4.14,1.41,4.66-.23.41-1.35-1.15-3.94-1.54-5.1A26.43,26.43,0,0,1,240,39.61a13.91,13.91,0,0,1,.67-5.55c.29-.88.6-2.71,1.36-1.82.64.74.31,3.19.57,4.21a13.51,13.51,0,0,0,1.72,3.93c1.5,2.35,3.67,4,6.22,2.13,2-1.49,3-3.34,5.53-2.39,3.73,1.41,4.76-1.31,6.55-4.3a4.18,4.18,0,0,0,.72,2.68c1.79,2.07,4.06-.56,5.72-1.27,1.2-.52.74-.51,2,.33a5.89,5.89,0,0,0,1.68.89c1.47.35,2.35-.22,3.21-1.4.52-.71,1.21-3.57,2.18-3.67s.72,1.3.58,2c-1,5.37-8.19,9.82-12.29,12.67-2.83,2-6.18,3.38-8.71,5.72-.78.72-1.81,1.69-1.8,2.84q2.86-1,5.69-2.2c1-.42,6-3.28,6.32-2,.19.9-4.43,4.2-1.76,4.33,1.4.07,3.61-2.13,4.61-2.87s2.78-2.68,4.07-2.88c2.4-.37-1.21,2.81.43,3.66,1.48.77,4.94-3.44,5.73-4.45.93-1.2,1.62-2.43,3.16-2.95,2.87-1,1.51,1.8.55,3.17A42.75,42.75,0,0,1,272.26,62a27.48,27.48,0,0,1-9.87,3.77c-1,.16-5.45.56-4.41,2.5.54,1,3.27.68,4.08.73a23.41,23.41,0,0,1,5.56,1c.84.26,2.94.65,3.21,1.53.32,1.08-1.2,2.78-1.83,3.39a11.65,11.65,0,0,1-3.1,2,23.42,23.42,0,0,0-2.37.95c-.86.54-.61-.14-.81.81a6.73,6.73,0,0,0,.44,2c.91,4.09,1.88,7.75.45,11.75a45.17,45.17,0,0,0-2.29,16.37c-1.93-.2-2.55-.85-2.73,1.19-.12,1.41-.17,2.83-.17,4.25,0,.52.27,2.28,0,2.55s-.71.08-1,.24c-1.08.69-.81-.15-1.12.77-.38,1.09.54,3.36.8,4.36s1.68,3.93,1.35,4.64-1.66.63-1.94,1.2c-.43.86.34,2.52.65,3.35s1.27,2.29,1.19,3.08a12.1,12.1,0,0,1-1.07,2.36,15.31,15.31,0,0,0-.89,9.3c-2.15-1.7-2.22,1-1.8,2.57m-.24,0C256.14,157.63,263,164,269.25,170c3.72,3.57,7.86,7.51,9.85,12.38a12.71,12.71,0,0,1,1,4.87,2.5,2.5,0,0,1-.94,2.35c-.3.23-.93.08-1.14.28-.86.79-1.37,3.91-1.78,5-1.08,2.79-2.28,5.52-3.63,8.19-2.24,4.48-1.88,8-.23,12.76,1.19,3.42,3.26,6.71,3.05,10.43-.36,6.1-1.94,12.11-2.38,18.23-.2,2.88-.26,5.75-.18,8.63,0,1.5.73,4.86-.35,6.2-.71.86-2,1.14-2.79,2.18a27.89,27.89,0,0,0-3.52,6.79L264.77,263c-.45-1.62-.66-1.65,0-2.85,2.87-5.06,3.57-10.15,3.92-15.93.43-7.19-.29-14.57-3.46-21.13-3.05-6.3-8.53-11-11.74-17.2-2.3-4.42-1.94-9.42-1.94-14.25a41.34,41.34,0,0,0-9.52,9.47A29.52,29.52,0,0,0,236.9,212c-.72,3.34.16,6,.78,9.18.78,4.06-4.82,8.46-7.12,11.32a35.48,35.48,0,0,0-5.19,8.14c-1.44,3.37-2.38,7.21-6.57,7.35-1.52,0-1.44,0-2.33,1.11-.35.41-1.57,2.65-2.19,2.75-1.09.18-4.11-2.26-5.14-2.82a13.72,13.72,0,0,1,4.78-4.13,26.6,26.6,0,0,0,7.31-6.48c5.35-6.85,7.37-14.83,6.71-23.44-.52-6.81-3.34-14-2.06-20.89.8-4.25,3.12-9.9,6.66-12.69a151.22,151.22,0,0,1-15.69-10.16,34.58,34.58,0,0,1-3.87-3.28c-.88-.89-2.21-3.85-3.29-4.06-.79-.15-.22.12-.31.74a15.17,15.17,0,0,0,.27,3.13,24.05,24.05,0,0,1-3.85-8.23c-.5-2.09.13-7.1-2.74-7.51-6.93-1-7.14,6-7.31,11.14a79,79,0,0,0,.18,9.36,12.61,12.61,0,0,0,1.15,3.94,2.64,2.64,0,0,1-.45,2.77c-.32.35-1.79.68-1.89.87-.24.45.32,2.22.37,2.78.25,2.75.59,7.54-2.43,9m1.78-49.62,6.69-2.83-3.08-2.83m3.08,2.57,5-1.67c2.19-.73,1.81-.58,2.23-2.89s1.22-4.94,3-6.34c1.29-1,2.88-1.47,4.28-2.29a34.93,34.93,0,0,0,3.77-2.75" fill="none" stroke="#000" stroke-linecap="round" stroke-linejoin="round" stroke-width="1.5"/><path d="M183.92,234.11c3.47-.87,7.07-2,8.34-5.69.89-2.62.57-5.67.57-8.41V167.14c0-8.59-1.25-18.5,2-26.64,1-2.46,3.13-5.83,6.27-5.15l-4.46-7.2-2.95-4.77c-.31-.5-1-2.16-1.5-2.43s-4.41,1.33-5.31,1.53a34.8,34.8,0,0,1-3.94.65,28.58,28.58,0,0,1-8.05-.25c-4.48-.8-8.58-2.78-12.74-4.55-10-4.24-20.24-5.18-30.51-1.36-4.25,1.58-8.27,3.74-12.61,5a30.36,30.36,0,0,1-15.49.46c-.91-.2-4.66-1.85-5.32-1.52-.23.12-.38.7-.55.89a36.69,36.69,0,0,0-3,4.9l-5.32,8.6c2.2-.48,4.09,1.21,5.18,2.93,4.23,6.67,3.05,16.32,3.05,23.82v53.2c0,4.84-1.42,13,2.78,16.34,2.23,1.79,5.21,2.05,7.81,3s4.89,2.09,7.3,3.22c6.71,3.14,13.35,6.46,20.07,9.59,3.09,1.43,7.64,4.58,11.19,3.5,6.6-2,12.92-5.72,19.11-8.7C171.54,239.48,177.66,235.66,183.92,234.11Z" fill="none" stroke="#000" stroke-linecap="round" stroke-linejoin="round" stroke-width="1.5"/></svg>