<svg xmlns="http://www.w3.org/2000/svg" width="600" height="315.79" viewBox="0 0 600 315.79"><path fill="#fff" d="M0 0h600v315.79H0z"/><path fill="#bf0a30" d="M0 0h600v24.29H0zM0 48.58h600v24.29H0zM0 97.17h600v24.29H0zM0 145.75h600v24.29H0zM0 194.33h600v24.29H0zM0 242.91h600v24.29H0zM0 291.5h600v24.29H0z"/><path d="M240.22 170V0H0v170z" fill="#002868" fill-rule="evenodd"/><path d="M216.59 26.94l-5.76 4.18 2.2 6.76-5.75-4.18-5.76 4.18 2.2-6.76-5.72-4.18h7.11l2.2-6.77 2.2 6.77zM173.08 26.94l-5.76 4.18 2.2 6.76-5.75-4.18-5.77 4.18 2.2-6.76-5.75-4.18h7.11l2.2-6.77 2.2 6.77zM129.57 26.94l-5.75 4.18 2.18 6.76-5.75-4.18-5.75 4.18 2.19-6.76-5.69-4.18h7.11l2.2-6.77 2.2 6.77zM86.06 26.94l-5.75 4.18 2.19 6.76-5.75-4.18L71 37.88l2.19-6.76-5.75-4.18h7.11l2.2-6.77L79 26.94zM42.55 26.94l-5.75 4.18 2.2 6.76-5.76-4.18-5.75 4.18 2.2-6.76-5.76-4.18H31l2.2-6.77 2.2 6.77zM216.59 64.27l-5.76 4.18 2.2 6.76-5.75-4.21-5.76 4.18 2.2-6.76-5.72-4.15h7.11l2.2-6.77 2.2 6.77zM173.08 64.27l-5.76 4.18 2.2 6.76-5.75-4.21-5.77 4.21 2.2-6.76-5.75-4.18h7.11l2.2-6.77 2.2 6.77zM129.57 64.27l-5.75 4.18 2.18 6.76-5.74-4.21-5.75 4.18 2.19-6.76-5.7-4.15h7.11l2.2-6.77 2.2 6.77zM86.06 64.27l-5.75 4.18 2.19 6.76L76.75 71 71 75.21l2.19-6.76-5.75-4.18h7.11l2.2-6.77L79 64.27zM42.55 64.27l-5.75 4.18 2.2 6.76L33.24 71l-5.75 4.18 2.2-6.76-5.76-4.18H31l2.2-6.77 2.2 6.77zM216.59 101.59l-5.76 4.18 2.2 6.77-5.75-4.18-5.76 4.18 2.2-6.77-5.72-4.18h7.11l2.2-6.76 2.2 6.76zM173.08 101.59l-5.76 4.18 2.2 6.77-5.75-4.18-5.77 4.18 2.2-6.77-5.75-4.18h7.11l2.2-6.76 2.2 6.76zM129.57 101.59l-5.75 4.18 2.19 6.77-5.75-4.18-5.75 4.18 2.19-6.77-5.7-4.18h7.11l2.2-6.76 2.2 6.76zM86.06 101.59l-5.75 4.18 2.19 6.77-5.75-4.18-5.75 4.18 2.19-6.77-5.75-4.18h7.11l2.2-6.76 2.2 6.76zM42.55 101.59l-5.75 4.18 2.2 6.77-5.76-4.18-5.75 4.18 2.2-6.77-5.76-4.18H31l2.2-6.76 2.2 6.76zM216.59 138.92l-5.76 4.18 2.2 6.77-5.75-4.18-5.76 4.18 2.2-6.77-5.72-4.18h7.11l2.2-6.76 2.2 6.76zM173.08 138.92l-5.76 4.18 2.2 6.77-5.75-4.18-5.77 4.18 2.2-6.77-5.75-4.18h7.11l2.2-6.76 2.2 6.76zM129.57 138.92l-5.75 4.18 2.19 6.77-5.75-4.18-5.75 4.18 2.19-6.77-5.7-4.18h7.11l2.2-6.76 2.2 6.76zM86.06 138.92l-5.75 4.18 2.19 6.77-5.75-4.18-5.75 4.18 2.19-6.77-5.75-4.18h7.11l2.2-6.76 2.2 6.76zM42.55 138.92l-5.75 4.18 2.2 6.77-5.76-4.18-5.75 4.18 2.2-6.77-5.76-4.18H31l2.2-6.76 2.2 6.76z" fill="#fff" fill-rule="evenodd"/></svg>