<svg xmlns="http://www.w3.org/2000/svg" width="300" height="300" viewBox="0 0 300 300"><path d="M119.94 85.5c-3.56.48-6.61 3.06-9 5-.09.07-.16.17-.25.25l-.12.12c-3.15 3.59.84 14.29 2.7 22.48 1.94 8.52 17.07 30.63 17.07 30.63l7.34 13.93a15.47 15.47 0 00-3.07 3.51 33.63 33.63 0 00-3.52 18.21c.77 8.9 8.95 12.36 12.43 14.31s11.61.75 11.61.75l2.7 2.32-47.64-2.32 3.45-13.56 2.76-6.15s1.5 9.24 1.89 10.8v.06c0 .06.09.18.12.25s.13.23.19.32a.34.34 0 01.06.06l.13.12.13.13a3.85 3.85 0 00.43.31 3.21 3.21 0 002.14.38l.19-.06.12-.07.13-.06.19-.19.06-.06c.77-1.16 1.13-6.21 1.13-12.8s.38-24.43 0-29.06a5.87 5.87 0 00-4.65-5.4l-12-.76a15.52 15.52 0 00-.38-3.51v-.06l-.06-.07a1.18 1.18 0 00-.13-.18c-.89-1.11-4.32-2.49-6.78-3.21-2.67-.78-18.15-1.92-22.81-1.92s-17.83 2.28-28.3 1.88-27.87 3.52-27.87 3.52l-7-5.78-3.86 3.08-5.08.38L6 139.67s-3.1 15.12-3.87 17.45l-.07.25A3.13 3.13 0 002 158v.06c.22 2.31 3.13 5.39 5.15 6.4 2.31 1.16 6.59 1.13 6.59 1.13l3.76-3.7a5.66 5.66 0 00-.31 1.82 10.87 10.87 0 001.19 3.83s5.27 1.89 7.28 1.56h.07c1.94-.39 7-1.19 7-1.19s3.48 8.13 5 11.61-.37 14.38-.37 14.38-5.83 1-7.72 2.32l-.06.06-.26.25-.06.07-.06.06a.49.49 0 00-.06.13l-.07.18v.32l.07.06a1.42 1.42 0 00.12.25l.06.13.07.12.06.07.06.06c1.24 1.26 4.76 2.51 7.85 2.51 4.26 0 16.31.75 26 .75s28.64-.79 37.16-1.19 18.24-1.51 27.93-1.51 32.91 1.51 38.73 1.51 25.21 1.57 30.63 1.57 28.28.44 33.71.81 35.64 3.83 38.35 3.46a4.39 4.39 0 001.25-.38 2.7 2.7 0 00.63-.38l.13-.12.12-.13.06-.06.19-.25a2.69 2.69 0 00.19-.38l.13-.25v-.38l-8.92-3.07s-17.14.74-18.58.63H245v-.07h0c.27 0 .93-.1 1.95-.18 9.29-.8 17.39-9.31 19.33-13.94s.76-14.75.76-14.75a53.13 53.13 0 006.21.75c1.92 0 7.39-.38 10.86 0s5.83-1.14 8.16-3.07a34.91 34.91 0 014.27-3.08l-12.81-1.19 1.95-7.34.75 6.59 4.27-1.2-.38-17-1.19-.81-4.64 5.08 1.56 1.13-2.32 1.57-2.7-4.64-5.46 10h2.76l-1.19 5.84h-7.72s.36-7.77.75-15.13 12.37-32.14 16.64-36.4 4.3-9.68 3.51-11.62l-.06-.12a1.27 1.27 0 00-.13-.19l-.06-.06-.25-.25c-2-1.7-8.9-3.27-12.68-3.27-4.25 0-8.55 2.36-12.43.82C261 97.12 253 98.52 251 100l-.07.06-.12.06-.06.07a4.18 4.18 0 01-.38.25c-2.22 1.29-8.86 1.8-13.87-1.07-5.42-3.08-10.88-1.16-14.75-.38a12.52 12.52 0 01-11.24-2.69c-3.88-3.11-10-1.15-11.61 0l-.12.06-.13.06c-1.89 1-7.25.86-10.55-1.32-3.49-2.34-5.82-1.56-13.55-.81s-7.4-1.15-12.05-3.08-15.89 2-22.1 2.39-6.59-.8-13.18-5.84a9.76 9.76 0 00-6.34-2.26h-.75c-.06.01-.13-.01-.19 0zm-105.7 62.33a.54.54 0 01.25 0v2.7a1.14 1.14 0 01-.06.25 1.44 1.44 0 01-.19.31l-.13.13a2.86 2.86 0 01-.56.37 5.75 5.75 0 01-1.38.44 2.63 2.63 0 01-.75-.44 2 2 0 01-.26-.25 1.91 1.91 0 01-.31-.56 1.55 1.55 0 01.13-1.07c.62-1.26 2.57-1.71 3.26-1.88zm14.37 3.89a2.41 2.41 0 01.38 0 3.08 3.08 0 011.19.25 1.18 1.18 0 00.19.06 7.08 7.08 0 01-1.57 3.08 2.64 2.64 0 01-.63.5 2.58 2.58 0 01-.31.13s-.1 0-.13.06h-.31a1.11 1.11 0 01-.31-.13l-.13-.06-.12-.06s-.74-2.73.81-3.52a3 3 0 01.94-.31zm233.81 3.45l.82 10.42s-2.74-4.63-5.84-5.77-6.95-1.57-16.26-1.57c-9 0-14.77 9.8-15.12 10.42l-2-.76 2.32-10-51.47 1.57a40.76 40.76 0 018.48 5c3.87 3.09 7.72 11.24 7.72 11.24l-1.07 1.54 19.77.38s-1.54 7.32 0 10.42a71.37 71.37 0 004.64 7.41h-33.34s6.19-7 7-9.73 2-8.48 2-8.48a15.89 15.89 0 01-2.32-4.26c-.79-2.33-3.49-5.07-7-8.16l-.06-.07c-3.69-3.06-22-4.58-22-4.58l-3.89-2.32zm-62.77 4.65l1.57 2.32V166l-2.7.44v-4.27zm46.51 1.94l2 1.88-1.57 6.59-1.13-.37zm-203 .38l2 4.27-2 24.16c-.34-2-3.08-17.54-4.2-19.08v-.06c-1.17-1.16-3.52-6.59-3.52-6.59zm100.74 0l7.79 1.5-4.27 3.52-4.65-2.7zm72.88 0l2.7.75-1.57 6.21-1.51-4.26zm25.17 0l1.19 7.34-3.52.75-2.32-7zm-8.54 1.94l2.7 5.4-.75 1.57-5-2.32zm-70.49.38l3.45.38-.75 7.34-5-4.27zm89.51 0l1.94 2.32-3.13 4.27-1.51-.75zm-80.59.75l3.45 3.14-2.32 5.4h-2.33l-.37-1.95zm-75.58 1.95l1.2 5.4 8.09 4.7-3.45 15.88-13.56.38zm43.44 1.19l7 2.32-.82 1.13-7.34-1.94zm56.93 0l10 .38.44 2.32H197zm-38.73 2.32l3.45 3.08-1.94 3.08-3.83-.38zm71.68.38l5.4 3.45.38 2.76-5.4 1.89zm-177.93 1.13l9.29 7.34v13.62L49.7 192zm206.13.38l-.38 2.76-5.4 1.51-.44-3.83zm-81.35.44h2.32l.38 5.77-4.65.38-.75-1.89zm-39.17.75l7.79 1.57-7.79 1.13zm107.34 1.51h.4a1.13 1.13 0 01.26 0l.18.06h.07c.08 0 .18.1.25.12a2.43 2.43 0 01.81.69l.19.26a3.27 3.27 0 01.38 1.63 4 4 0 01-.06.69 3.65 3.65 0 01-.44 1.07l-.13.18-.25.25a.8.8 0 01-.13.13l-.18.13a2.1 2.1 0 01-.95.25 2 2 0 01-1-.25l-.19-.13-.12-.13a1.48 1.48 0 01-.25-.25l-.13-.18a3.18 3.18 0 01-.44-1.07 4 4 0 01-.06-.69 3.46 3.46 0 01.5-1.82l.06-.07a2.56 2.56 0 01.82-.69l.25-.12h.06s.07-.05.1-.06zm-157.3.44L80 193.52l-8.54.38a25.72 25.72 0 01-1.94-5c-.39-1.93 0-12.81 0-12.81zm78.9 2.63h.88a1.2 1.2 0 01.31.13 1.5 1.5 0 01.32.19 1.87 1.87 0 01.43.5l.07.12s0 .1.06.13l.06.12v.07a.75.75 0 00.07.12v.44s-.05.15-.07.19a1.06 1.06 0 01-.06.19 2 2 0 01-.13.25l-.14.22-.13.12a1.89 1.89 0 01-.31.25l-.25.13a1.14 1.14 0 01-.25.06l-.06.07h-.51l-.12-.07a1.74 1.74 0 01-.94-.56 1.69 1.69 0 01-.19-.32 1.27 1.27 0 01-.07-.12l-.06-.13v-.25s0-.09-.06-.12v-.19l.06-.13v-.19l.06-.12.07-.13.06-.12s0-.1.06-.13a2.35 2.35 0 01.19-.25 2 2 0 01.32-.25l.12-.06c.08-.06.15-.14.21-.16zm-20 1.19l.81 1.95-6.61 3.53-1.94-3.08zm106.2 0l3.83.44-.38 1.95-3.45-.44zm-97.29.44h5.84l.37 2.33-3.45 3.82zm63.14.76h2.39l-.44 3.14-2 1.5zm16.7.37l.75 2.33-5 3.51-1.57-4.64zm-60.82.82l5.4 1.13-1.13 3.07-5-1.12zm74.75 2l2.33 6.59-4.27 1.88-.76-7.72zm-100.74.37l1.57 1.51-1.57 3.89-3.83-1.57zm21.72 2h1.95l1.13 4.27-2.7 1.13zm-5.4.37l3.08 2.33-.38 3.07-5-.37zm72.43 2.33l-.37 4.64-2.76-1.19zm4.27 1.57l2 .75v3.7h-3.52z" fill="none" stroke="#000" stroke-linecap="round" stroke-linejoin="round" stroke-width="2"/><path d="M126.45 120.68S121 111 120.64 107.1s1.92-12 7.35-6.57 7 8.9 6.59 11.22a48.83 48.83 0 00-.39 6.2m5.81-18.6s5.81 14.74 8.14 20.53a59.65 59.65 0 013.09 13.58m8.15-2L157.06 109m27.11 28.26l1.17-20.13M209 128.42l1.16-12.4m19.76 17.44l2.33-19.77m20.53 23.25l6.2-18.21m-103.86 18.21s6.59 1.16 8.52 2.34 4.65 1.53 4.65 3.48v5.79m0-5.79s.38-4.26 5.81-3.89 8.91 0 9.3 4.64.39 6.22.39 6.22m5-.38s-1.55-8.14 4.27-8.14 11.62.39 12 3.11.79 5.41.79 5.41m15.11 0s0-8.52 5.81-8.13m19.36-2.32s-7.36 1.14-7 5 1.16 5 1.16 5m11.24-.8s1.94-6.57 4.65-7.34 6.2-1.56 6.2-1.56m-125.15.77l7-3.11m-5 7l7-3.09m-5.91 6.54l7-3.11m-4.65 6.59l7-3.11m-5.81 6.55l7-3.09m-127-10.42s13.17-3.49 16.65-3.49 7 2.31 8.15 1.93 5.42-1.55 8.51-2.34 24 1.56 24 1.56m24 .78l-5 .38m-50 4.29s-3.87 1.53-3.09 3.48 1.94 5 1.15 6.18-3.87 4.27-1.54 5.44a19 19 0 004.19 1.69m2.73-6.19s-1.17-5.41 1.54-6.19a15 15 0 015.42-.4m5.82 9.29L71 170.65" fill="none" stroke="#000" stroke-linecap="round" stroke-linejoin="round" stroke-width="2"/></svg>