<svg xmlns="http://www.w3.org/2000/svg" width="264" height="300"><path d="M130.41 21.71L136 35.23l14.59 1.17-11.11 9.52 3.4 14.24-12.5-7.63-12.49 7.63 3.4-14.24-11.09-9.52 14.59-1.17zM190.92 36.63l-1.3 14.58L202 59l-14.27 3.26-3.61 14.19-7.52-12.53-14.61 1 9.63-11-5.42-13.6L179.66 46zM237.54 77.93l-7.93 12.31 7.33 12.67-14.15-3.74-9.79 10.89-.82-14.62-13.38-5.94 13.65-5.3L214 69.64 223.22 81zM259.64 136.21l-12.74 7.21.6 14.62-10.8-9.89-13.7 5.1 6.07-13.33-9.07-11.48 14.54 1.66 8.12-12.19 2.91 14.35zM252.13 198.06l-14.63.46-6.27 13.23-5-13.77-14.52-1.87 11.56-9-2.7-14.39 12.15 8.28 12.84-7-4.08 14zM216.74 249.33l-13.17-6.39-11.7 8.8 2-14.5-12-8.4 14.41-2.58 4.29-14 6.9 12.91 14.64-.24L212 235.49zM161.57 278.29l-8.69-11.78-14.45 2.36 8.51-11.87-6.71-13 14 4.42L164.5 238l.1 14.64 13.08 6.58-13.89 4.63zM69.9 36.63l1.3 14.58L58.83 59l14.26 3.26 3.61 14.22 7.52-12.56 14.61 1-9.63-11 5.42-13.6L81.16 46zM23.28 77.93l7.93 12.31-7.33 12.67L38 99.17l9.79 10.89.82-14.62L62 89.5l-13.64-5.3-1.51-14.56L37.6 81zM1.18 136.21l12.74 7.21-.6 14.58 10.79-9.89 13.73 5.1-6.07-13.33 9.08-11.48-14.55 1.7-8.11-12.19-2.92 14.35zM8.69 198.06l14.63.46 6.27 13.23 5-13.77 14.52-1.87-11.57-9 2.71-14.39L28.1 181l-12.85-7 4.08 14zM44.08 249.33l13.17-6.39 11.7 8.8-2-14.5 12-8.4-14.41-2.58-4.29-14-6.9 12.91-14.64-.24 10.15 10.55zM99.25 278.29l8.69-11.78 14.45 2.36-8.52-11.87 6.71-13-14 4.42L96.32 238l-.11 14.64-13.07 6.58 13.86 4.6z" fill="none" stroke="#000" stroke-linecap="round" stroke-linejoin="round" stroke-width="2"/></svg>