<svg xmlns="http://www.w3.org/2000/svg" width="600" height="315.79" viewBox="0 0 600 315.79"><path fill="#bf0a30" d="M0 0h600v315.79H0z"/><path fill="#fff" d="M0 24.29h600v24.29H0zM0 72.87h600v24.29H0zM0 121.46h600v24.29H0zM0 170.04h600v24.29H0zM0 218.62h600v24.29H0zM0 267.21h600v24.29H0z"/><path d="M240 170V0H0v170z" fill="#002868" fill-rule="evenodd"/><path d="M208.81 17.46h7.11l2.2-6.76 2.19 6.76h7.12l-5.76 4.18 2.2 6.77-5.75-4.18-5.76 4.18 2.2-6.77zM194.8 43.65h7.11l2.2-6.77 2.2 6.77h7.11l-5.76 4.18 2.2 6.76-5.75-4.18-5.76 4.18 2.2-6.76zM208.81 69.83h7.11l2.2-6.76 2.19 6.76h7.12L221.67 74l2.2 6.77-5.75-4.18-5.76 4.18 2.2-6.77zM208.81 96h7.11l2.2-6.77 2.19 6.77h7.12l-5.76 4.18 2.2 6.76-5.75-4.18-5.76 4.24 2.2-6.76zM194.75 122.2h7.11l2.2-6.76 2.2 6.76h7.11l-5.76 4.18 2.2 6.77-5.75-4.15-5.76 4.19 2.2-6.77zM208.81 148.39h7.11l2.2-6.77 2.19 6.77h7.12l-5.76 4.18 2.2 6.76-5.75-4.18-5.76 4.18 2.2-6.76zM180.79 17.46h7.11l2.2-6.76 2.2 6.76h7.11l-5.75 4.18 2.19 6.77-5.75-4.18-5.75 4.18 2.19-6.77zM166.78 43.65h7.11l2.2-6.77 2.2 6.77h7.11l-5.75 4.18 2.19 6.76-5.75-4.18-5.75 4.18 2.19-6.76zM180.79 69.83h7.11l2.2-6.76 2.2 6.76h7.11L193.66 74l2.19 6.77-5.75-4.17-5.75 4.18 2.19-6.78zM180.79 96h7.11l2.2-6.77 2.2 6.77h7.11l-5.75 4.18 2.19 6.76-5.75-4.18-5.75 4.24 2.19-6.76zM166.73 122.2h7.11l2.2-6.76 2.2 6.76h7.11l-5.75 4.18 2.19 6.77L176 129l-5.75 4.19 2.19-6.77zM180.79 148.39h7.11l2.2-6.77 2.2 6.77h7.11l-5.75 4.18 2.19 6.76-5.75-4.18-5.75 4.18 2.19-6.76zM152.77 17.46h7.11l2.2-6.76 2.2 6.76h7.11l-5.75 4.18 2.19 6.77-5.75-4.18-5.75 4.18 2.19-6.77zM138.76 43.65h7.11l2.2-6.77 2.2 6.77h7.11l-5.75 4.18 2.2 6.76-5.76-4.18-5.75 4.18 2.2-6.76zM152.77 69.83h7.11l2.2-6.76 2.2 6.76h7.11L165.64 74l2.19 6.77-5.75-4.18-5.75 4.18 2.19-6.77zM152.77 96h7.11l2.2-6.77 2.2 6.77h7.11l-5.75 4.18 2.19 6.76-5.75-4.18-5.75 4.24 2.19-6.76zM138.71 122.2h7.11l2.2-6.76 2.2 6.76h7.11l-5.75 4.18 2.2 6.77L148 129l-5.75 4.19 2.2-6.77zM152.77 148.39h7.11l2.2-6.77 2.2 6.77h7.11l-5.75 4.18 2.19 6.76-5.75-4.18-5.75 4.18 2.19-6.76zM124.75 17.46h7.11l2.2-6.76 2.2 6.76h7.11l-5.75 4.18 2.2 6.77-5.76-4.18-5.75 4.18 2.2-6.77zM110.74 43.65h7.12l2.19-6.77 2.2 6.77h7.11l-5.75 4.18 2.2 6.76-5.76-4.18-5.75 4.18 2.2-6.76zM124.75 69.83h7.11l2.2-6.76 2.2 6.76h7.11L137.62 74l2.2 6.77-5.76-4.18-5.75 4.18 2.2-6.77zM124.75 96h7.11l2.2-6.77 2.2 6.77h7.11l-5.75 4.18 2.2 6.76-5.76-4.18-5.75 4.24 2.2-6.76zM110.69 122.2h7.12l2.19-6.76 2.2 6.76h7.11l-5.75 4.18 2.2 6.77L120 129l-5.75 4.19 2.2-6.77zM124.75 148.39h7.11l2.2-6.77 2.2 6.77h7.11l-5.75 4.18 2.2 6.76-5.76-4.18-5.75 4.18 2.2-6.76zM96.73 17.46h7.12L106 10.7l2.2 6.76h7.11l-5.75 4.18 2.2 6.77-5.76-4.18-5.75 4.18 2.2-6.77zM82.72 43.65h7.12L92 36.88l2.2 6.77h7.11l-5.75 4.18 2.2 6.76L92 50.41l-5.75 4.18 2.2-6.76zM96.73 69.83h7.12l2.15-6.76 2.2 6.76h7.11L109.6 74l2.2 6.77-5.8-4.17-5.75 4.18 2.2-6.77zM96.73 96h7.12l2.15-6.75 2.2 6.77h7.11l-5.75 4.18 2.2 6.76-5.76-4.18-5.71 4.22 2.2-6.76zM82.67 122.2h7.12l2.21-6.76 2.2 6.76h7.11l-5.75 4.18 2.2 6.77L92 129l-5.75 4.19 2.2-6.77zM96.73 148.39h7.12l2.19-6.77 2.2 6.77h7.11l-5.75 4.18 2.2 6.76-5.8-4.18-5.75 4.18 2.2-6.76zM68.72 17.46h7.11L78 10.7l2.19 6.76h7.11l-5.75 4.18 2.2 6.77L78 24.23l-5.76 4.18 2.2-6.77zM54.71 43.65h7.11L64 36.88l2.19 6.77h7.12l-5.76 4.18 2.2 6.76L64 50.41l-5.76 4.18 2.2-6.76zM68.72 69.83h7.11L78 63.07l2.19 6.76h7.11L81.58 74l2.2 6.77L78 76.6l-5.76 4.18L74.47 74zM68.72 96h7.11L78 89.25 80.22 96h7.11l-5.75 4.18 2.2 6.76-5.78-4.16-5.73 4.22 2.2-6.76zM54.66 122.2h7.11l2.2-6.76 2.19 6.76h7.12l-5.76 4.18 2.2 6.77L64 129l-5.76 4.19 2.2-6.77zM68.72 148.39h7.11l2.2-6.77 2.19 6.77h7.11l-5.75 4.18 2.2 6.76-5.78-4.18-5.76 4.18 2.2-6.76zM40.7 17.46h7.11L50 10.7l2.19 6.76h7.12l-5.76 4.18 2.2 6.77L50 24.23l-5.76 4.18 2.2-6.77zM26.69 43.65h7.11l2.2-6.77 2.2 6.77h7.11l-5.76 4.18 2.2 6.76L36 50.41l-5.76 4.18 2.2-6.76zM40.7 69.83h7.11L50 63.07l2.19 6.76h7.12L53.56 74l2.2 6.77L50 76.6l-5.76 4.18L46.45 74zM40.7 96h7.11L50 89.25 52.2 96h7.12l-5.76 4.18 2.2 6.76-5.76-4.16-5.75 4.22 2.2-6.76zM26.64 122.2h7.11l2.2-6.76 2.2 6.76h7.11l-5.76 4.18 2.2 6.77L36 129l-5.76 4.19 2.2-6.77zM40.7 148.39h7.11l2.2-6.77 2.19 6.77h7.12l-5.76 4.18 2.2 6.76-5.76-4.18-5.76 4.18 2.2-6.76zM12.68 17.46h7.11L22 10.7l2.2 6.76h7.1l-5.76 4.18 2.2 6.77L22 24.23l-5.76 4.18 2.2-6.77zM12.68 69.83h7.11L22 63.07l2.2 6.76h7.1L25.54 74l2.2 6.77L22 76.6l-5.76 4.18L18.43 74zM12.68 96h7.11L22 89.25 24.19 96h7.11l-5.76 4.18 2.2 6.76-5.74-4.16-5.77 4.22 2.2-6.76zM12.68 148.39h7.11l2.2-6.77 2.2 6.77h7.11l-5.76 4.18 2.2 6.76-5.74-4.18-5.76 4.18 2.2-6.76z" fill="#fff" fill-rule="evenodd"/></svg>