<?xml version="1.0" encoding="utf-8"?>
<!-- Generator: Adobe Illustrator 23.0.1, SVG Export Plug-In . SVG Version: 6.00 Build 0)  -->
<svg version="1.1" id="Layer_1" xmlns="http://www.w3.org/2000/svg" xmlns:xlink="http://www.w3.org/1999/xlink" x="0px" y="0px"
	 viewBox="0 0 600 400" style="enable-background:new 0 0 600 400;" xml:space="preserve">
<style type="text/css">
	.st0{fill-rule:evenodd;clip-rule:evenodd;fill:#FFFFFF;}
	.st1{fill-rule:evenodd;clip-rule:evenodd;fill:#AA0000;}
	.st2{fill:#D45500;}
</style>
<g transform="translate(-125 -366.6479)">
	<path class="st0" d="M125,366.6h600v400H125L125,366.6z"/>
	<path class="st1" d="M262.7,511.4L219,479.9l-43.3,32.1l16.5-51.3l-43.9-31.3l53.9-0.2l16.2-51.4l16.9,51.2l53.9-0.5l-43.5,31.9
		L262.7,511.4L262.7,511.4z"/>
	<path class="st2" d="M403,484.5c-3.2-0.7-1.8-3.2,2-3.7c4.1-0.5,4.8-3,4.1-15.9c-0.3-5.5-0.1-10.2,0.5-10.6c1.3-0.8-2.2-7.8-4.9-10
		c-5.9-4.7-11.4-6.5-18.9-6.2c-4.2,0.2-8.2-0.1-8.9-0.5s-1.5-0.3-1.7,0.3c-0.4,1.1-11.6-1.2-14.4-2.9c-1.3-0.8,3.2-10.4,5-10.4
		c0.6,0,1.1-0.8,1.1-1.8c0-1,0.5-1.8,1-1.8c1.4,0,18-16.1,18.3-17.6c0.1-0.7,0.9-1.2,1.7-1.2s2.2-0.8,3-1.8c1.3-1.6,1.5-1.6,2.2,0.2
		c0.5,1.3,2.2,2,4.6,2c2.1,0,6.9,0.6,10.6,1.2c3.7,0.7,7.2,0.8,7.9,0.3c1.5-1.1,2.1-1.2,15.2-2c18.2-1.1,30.2-1,31.8,0.4
		c0.9,0.7,6.3,1.6,11.9,2c9.1,0.6,22.6,1.9,26.1,2.5c5.1,0.8,14.2,5.5,18.3,9.4c2.7,2.6,5.5,4.7,6.3,4.7c2.6,0,3.9,4,1.8,5.6
		c-1.1,0.8-2,3.1-2.1,5.2c-0.1,2.1-0.5,4.1-0.9,4.5c-0.4,0.4-0.3,2,0.3,3.4c0.6,1.5,0.5,3.6-0.1,4.7c-0.7,1.3-0.7,2.1,0,2.1
		c0.6,0,1.2,2.3,1.3,5.2c-0.7,21.6-0.5,1.8,1.9,17.5c2,13.1-4,13.4-9.7,14.9c-7.5,1.9-9.1,1.7-9.1-1.1c0-1.3,0.8-2.4,1.8-2.4
		c4.1,0,5.7-12.5,2.3-17.7c-2.8-4.3-4.6-3-4.3,3.2c0.5,9.3,0.3,10.6-2,14.7c-2,3.7-2.8,4.1-8.5,4.4c-6.2,0.4-8.6-1.4-4.2-3.1
		c1.2-0.4,2.4-1.3,2.8-1.8c1.5-2.2,1-10.6-0.7-13.9c-1-1.9-1.8-4.2-1.8-5c0-0.9-0.5-1.3-1.2-0.9c-0.6,0.4-1.5-0.7-2-2.4
		c-0.8-3-1-3.1-8.8-2.5c-4.8,0.3-8.6,0.1-9.6-0.7c-1.2-1-1.6-0.8-1.6,0.7c0,1.6-0.5,1.8-2.2,0.8c-1.5-0.8-2.7-0.8-3.5,0.1
		c-0.9,0.9-2.4,0.7-5-0.7c-2.2-1.1-3.8-1.4-3.8-0.7c0,1.5-9.7,0.3-11.5-1.4c-0.6-0.6-2.6-1.1-4.4-1.1c-2.8,0-3.2,0.4-2.6,3.2
		c0.4,2.1,0.2,2.9-0.7,2.4c-1.3-0.8-1.4,1.2-0.2,3.5c1.1,2.1,0.4,10.8-1.1,13.6c-0.8,1.5-1.5,3.5-1.5,4.5c0,2.1-4.5,5.6-7.3,5.6
		c-4.1,0-5-1.8-3.1-5.7c1.8-3.7,1.4-15-0.6-15c-1.2,0-4.9,9.8-4.9,13c0,1.4-0.8,3.3-1.9,4.1C415.2,483.6,406.5,485.2,403,484.5
		L403,484.5z"/>
	<path class="st1" d="M125,711.4h600v55.3H125L125,711.4z"/>
	<path d="M180.7,528l0.5,7.7h-0.5c-0.7-2.3-1.7-3.9-2.9-5c-1.3-1-2.8-1.5-4.6-1.5c-1.5,0-2.8,0.4-4.1,1.1c-1.2,0.8-2.2,2-2.9,3.6
		c-0.7,1.7-1,3.7-1,6.2c0,2,0.3,3.8,1,5.3c0.7,1.5,1.6,2.6,3,3.4c1.3,0.8,2.8,1.2,4.5,1.2c1.5,0,2.8-0.3,3.9-0.9
		c1.1-0.6,2.3-1.9,3.7-3.7l0.5,0.3c-1.1,2-2.4,3.5-4,4.4c-1.5,0.9-3.3,1.4-5.4,1.4c-3.7,0-6.6-1.4-8.7-4.2c-1.5-2.1-2.3-4.5-2.3-7.3
		c0-2.2,0.5-4.3,1.5-6.2c1-1.9,2.4-3.3,4.2-4.4c1.8-1,3.7-1.6,5.8-1.6c1.6,0,3.2,0.4,4.8,1.2c0.5,0.2,0.8,0.4,1,0.4
		c0.3,0,0.6-0.1,0.8-0.3c0.3-0.3,0.5-0.7,0.6-1.2L180.7,528z M198.5,543.5h-8.7l-1.5,3.6c-0.4,0.9-0.6,1.5-0.6,2
		c0,0.3,0.2,0.6,0.5,0.9c0.3,0.3,1,0.4,2.1,0.5v0.6h-7.1v-0.6c0.9-0.2,1.6-0.4,1.8-0.6c0.6-0.5,1.2-1.6,1.9-3.2l7.9-18.5h0.6
		l7.8,18.7c0.6,1.5,1.2,2.5,1.7,2.9c0.5,0.4,1.2,0.7,2.2,0.8v0.6h-8.9v-0.6c0.9,0,1.5-0.2,1.8-0.4c0.3-0.3,0.5-0.6,0.5-0.9
		c0-0.5-0.2-1.3-0.7-2.3L198.5,543.5z M198.1,542.2l-3.8-9.1l-3.9,9.1H198.1z M227.1,544.8l0.5,0.1l-1.9,6.1h-17.5v-0.6h0.8
		c1,0,1.6-0.3,2-0.9c0.2-0.4,0.3-1.2,0.3-2.5v-14.5c0-1.4-0.2-2.3-0.5-2.6c-0.4-0.5-1.1-0.7-1.9-0.7h-0.8v-0.6h10.2v0.6
		c-1.2,0-2,0.1-2.5,0.3c-0.5,0.2-0.8,0.5-1,0.9c-0.2,0.4-0.3,1.2-0.3,2.5V547c0,0.9,0.1,1.6,0.3,1.9c0.1,0.2,0.3,0.4,0.6,0.5
		c0.3,0.1,1.1,0.2,2.6,0.2h1.6c1.7,0,2.9-0.1,3.6-0.4c0.7-0.3,1.3-0.7,1.9-1.4C225.9,547.2,226.5,546.2,227.1,544.8z M238.9,550.4
		v0.6h-9.7v-0.6h0.8c0.9,0,1.6-0.3,2-0.8c0.3-0.4,0.4-1.2,0.4-2.6v-14.6c0-1.1-0.1-1.9-0.2-2.3c-0.1-0.3-0.3-0.5-0.7-0.7
		c-0.5-0.3-1-0.4-1.5-0.4h-0.8v-0.6h9.7v0.6h-0.8c-0.9,0-1.6,0.3-2,0.8c-0.3,0.4-0.4,1.2-0.4,2.6V547c0,1.1,0.1,1.9,0.2,2.3
		c0.1,0.3,0.3,0.5,0.7,0.7c0.5,0.3,1,0.4,1.5,0.4H238.9z M246.7,529.7v8.9h4.1c0.9,0,1.6-0.2,2.1-0.6c0.4-0.4,0.7-1.2,0.9-2.5h0.6
		v7.6h-0.6c0-0.9-0.1-1.5-0.3-1.9c-0.2-0.4-0.5-0.7-0.9-0.9c-0.4-0.2-1-0.3-1.7-0.3h-4.1v7.1c0,1.1,0.1,1.9,0.2,2.3
		c0.1,0.3,0.3,0.5,0.7,0.7c0.5,0.3,1,0.4,1.5,0.4h0.8v0.6h-9.7v-0.6h0.8c0.9,0,1.6-0.3,2-0.8c0.3-0.4,0.4-1.2,0.4-2.6v-14.6
		c0-1.1-0.1-1.9-0.2-2.3c-0.1-0.3-0.3-0.5-0.7-0.7c-0.5-0.3-1-0.4-1.5-0.4h-0.8v-0.6h16.8l0.2,5h-0.6c-0.3-1.1-0.6-1.8-1-2.3
		s-0.9-0.9-1.4-1.1c-0.6-0.2-1.4-0.3-2.6-0.3L246.7,529.7z M271.1,528c2.9,0,5.5,1.1,7.6,3.3c2.1,2.2,3.2,5,3.2,8.3
		c0,3.4-1.1,6.3-3.2,8.5c-2.2,2.3-4.8,3.4-7.8,3.4c-3.1,0-5.7-1.1-7.8-3.3c-2.1-2.2-3.2-5.1-3.2-8.6c0-3.6,1.2-6.5,3.7-8.8
		C265.7,529,268.2,528,271.1,528z M270.8,529.2c-2,0-3.6,0.7-4.9,2.2c-1.5,1.9-2.3,4.6-2.3,8.2c0,3.7,0.8,6.5,2.4,8.5
		c1.2,1.5,2.8,2.3,4.8,2.3c2.1,0,3.9-0.8,5.2-2.5s2.1-4.3,2.1-7.8c0-3.9-0.8-6.7-2.3-8.6C274.7,529.9,273,529.2,270.8,529.2z
		 M306.3,551h-6l-7.6-10.5c-0.6,0-1,0-1.4,0c-0.1,0-0.3,0-0.5,0c-0.2,0-0.3,0-0.5,0v6.5c0,1.4,0.2,2.3,0.5,2.6
		c0.4,0.5,1.1,0.7,1.9,0.7h0.9v0.6h-9.7v-0.6h0.8c1,0,1.6-0.3,2-0.9c0.2-0.3,0.3-1.2,0.3-2.4v-14.6c0-1.4-0.2-2.3-0.5-2.6
		c-0.4-0.5-1.1-0.7-1.9-0.7h-0.8v-0.6h8.2c2.4,0,4.2,0.2,5.3,0.5c1.1,0.3,2.1,1,2.9,1.9s1.2,2.1,1.2,3.3c0,1.4-0.5,2.6-1.4,3.6
		c-0.9,1-2.3,1.7-4.2,2.2l4.7,6.5c1.1,1.5,2,2.5,2.7,3c0.8,0.5,1.8,0.8,3,0.9V551z M290.3,539.4c0.2,0,0.4,0,0.5,0
		c0.2,0,0.3,0,0.4,0c2.1,0,3.8-0.5,4.9-1.4c1.1-0.9,1.6-2.1,1.6-3.6c0-1.4-0.4-2.6-1.3-3.4c-0.9-0.9-2-1.3-3.5-1.3
		c-0.6,0-1.5,0.1-2.6,0.3V539.4z M305.6,528.5h6.1l13.8,16.9v-13c0-1.4-0.2-2.2-0.5-2.6c-0.4-0.5-1.1-0.7-1.9-0.7h-0.8v-0.6h7.8v0.6
		h-0.8c-1,0-1.6,0.3-2,0.9c-0.2,0.4-0.4,1.2-0.4,2.4v19h-0.6l-14.9-18.1v13.9c0,1.4,0.1,2.2,0.4,2.6c0.4,0.5,1.1,0.7,1.9,0.7h0.8
		v0.6h-7.8v-0.6h0.8c1,0,1.6-0.3,2-0.9c0.2-0.4,0.4-1.2,0.4-2.4v-15.7c-0.7-0.8-1.1-1.3-1.5-1.5c-0.3-0.2-0.8-0.5-1.5-0.7
		c-0.3-0.1-0.8-0.1-1.5-0.1V528.5z M341.1,550.4v0.6h-9.7v-0.6h0.8c0.9,0,1.6-0.3,2-0.8c0.3-0.4,0.4-1.2,0.4-2.6v-14.6
		c0-1.1-0.1-1.9-0.2-2.3c-0.1-0.3-0.3-0.5-0.7-0.7c-0.5-0.3-1-0.4-1.5-0.4h-0.8v-0.6h9.7v0.6h-0.8c-0.9,0-1.6,0.3-2,0.8
		c-0.3,0.4-0.4,1.2-0.4,2.6V547c0,1.1,0.1,1.9,0.2,2.3c0.1,0.3,0.3,0.5,0.7,0.7c0.5,0.3,1,0.4,1.5,0.4H341.1z M357.6,543.5h-8.7
		l-1.5,3.6c-0.4,0.9-0.6,1.5-0.6,2c0,0.3,0.2,0.6,0.5,0.9c0.3,0.3,1,0.4,2.1,0.5v0.6h-7.1v-0.6c0.9-0.2,1.6-0.4,1.8-0.6
		c0.6-0.5,1.2-1.6,1.9-3.2l7.9-18.5h0.6l7.8,18.7c0.6,1.5,1.2,2.5,1.7,2.9c0.5,0.4,1.2,0.7,2.2,0.8v0.6h-8.9v-0.6
		c0.9,0,1.5-0.2,1.8-0.4c0.3-0.3,0.5-0.6,0.5-0.9c0-0.5-0.2-1.3-0.7-2.3L357.6,543.5z M357.1,542.2l-3.8-9.1l-3.9,9.1H357.1z
		 M398.1,551h-6l-7.6-10.5c-0.6,0-1,0-1.4,0c-0.1,0-0.3,0-0.5,0s-0.3,0-0.5,0v6.5c0,1.4,0.2,2.3,0.5,2.6c0.4,0.5,1.1,0.7,1.9,0.7
		h0.9v0.6h-9.7v-0.6h0.8c1,0,1.6-0.3,2-0.9c0.2-0.3,0.3-1.2,0.3-2.4v-14.6c0-1.4-0.2-2.3-0.5-2.6c-0.4-0.5-1.1-0.7-1.9-0.7h-0.8
		v-0.6h8.2c2.4,0,4.2,0.2,5.3,0.5c1.1,0.3,2.1,1,2.9,1.9c0.8,0.9,1.2,2.1,1.2,3.3c0,1.4-0.5,2.6-1.4,3.6c-0.9,1-2.3,1.7-4.2,2.2
		l4.7,6.5c1.1,1.5,2,2.5,2.7,3c0.8,0.5,1.8,0.8,3,0.9V551z M382.1,539.4c0.2,0,0.4,0,0.5,0c0.2,0,0.3,0,0.4,0c2.1,0,3.8-0.5,4.9-1.4
		s1.6-2.1,1.6-3.6c0-1.4-0.4-2.6-1.3-3.4c-0.9-0.9-2-1.3-3.5-1.3c-0.6,0-1.5,0.1-2.6,0.3V539.4z M405,529.7v8.9h5
		c1.3,0,2.1-0.2,2.6-0.6c0.6-0.5,0.9-1.4,1-2.7h0.6v7.8h-0.6c-0.2-1.1-0.3-1.8-0.5-2.1c-0.2-0.4-0.5-0.7-1-0.9
		c-0.5-0.2-1.2-0.3-2.1-0.3h-5v7.4c0,1,0,1.6,0.1,1.8c0.1,0.2,0.2,0.4,0.5,0.5s0.6,0.2,1.3,0.2h3.8c1.3,0,2.2-0.1,2.8-0.3
		c0.6-0.2,1.1-0.5,1.7-1c0.7-0.7,1.4-1.7,2.1-3.1h0.7l-1.9,5.7h-17.4v-0.6h0.8c0.5,0,1-0.1,1.5-0.4c0.4-0.2,0.6-0.4,0.7-0.8
		c0.1-0.4,0.2-1.1,0.2-2.2v-14.6c0-1.4-0.1-2.3-0.4-2.6c-0.4-0.4-1.1-0.7-2-0.7h-0.8v-0.6h17.4l0.2,4.9h-0.6c-0.2-1.2-0.5-2-0.8-2.4
		c-0.3-0.4-0.7-0.8-1.3-1c-0.4-0.2-1.2-0.2-2.3-0.2H405z M425.6,540.5v6.6c0,1.4,0.2,2.3,0.5,2.6c0.4,0.5,1.1,0.7,1.9,0.7h0.9v0.6
		h-9.7v-0.6h0.8c1,0,1.6-0.3,2-0.9c0.2-0.3,0.3-1.2,0.3-2.4v-14.6c0-1.4-0.1-2.3-0.4-2.6c-0.4-0.5-1.1-0.7-1.9-0.7h-0.8v-0.6h8.3
		c2,0,3.6,0.2,4.8,0.6c1.2,0.4,2.1,1.1,2.9,2.1c0.8,1,1.2,2.2,1.2,3.5c0,1.8-0.6,3.3-1.8,4.5c-1.2,1.2-2.9,1.7-5.1,1.7
		c-0.5,0-1.1,0-1.8-0.1C427,540.7,426.3,540.6,425.6,540.5z M425.6,539.5c0.6,0.1,1.1,0.2,1.6,0.2c0.5,0.1,0.8,0.1,1.2,0.1
		c1.2,0,2.1-0.4,3-1.3c0.8-0.9,1.3-2,1.3-3.5c0-1-0.2-1.9-0.6-2.7c-0.4-0.8-1-1.5-1.7-1.9c-0.7-0.4-1.6-0.6-2.5-0.6
		c-0.6,0-1.3,0.1-2.2,0.3V539.5z M453.8,529.1v-0.6h8v0.6H461c-0.9,0-1.6,0.4-2,1.1c-0.2,0.3-0.3,1.1-0.3,2.4v9.1
		c0,2.3-0.2,4-0.7,5.3c-0.4,1.2-1.3,2.3-2.6,3.2c-1.3,0.9-3.1,1.3-5.4,1.3c-2.5,0-4.3-0.4-5.6-1.3c-1.3-0.9-2.2-2-2.7-3.4
		c-0.4-1-0.5-2.8-0.5-5.6v-8.8c0-1.4-0.2-2.3-0.6-2.7c-0.4-0.4-1-0.6-1.9-0.6h-0.8v-0.6h9.7v0.6h-0.9c-0.9,0-1.6,0.3-2,0.9
		c-0.3,0.4-0.4,1.2-0.4,2.5v9.8c0,0.9,0.1,1.9,0.2,3c0.2,1.1,0.5,2,0.9,2.6c0.4,0.6,1,1.2,1.8,1.6c0.8,0.4,1.8,0.6,2.9,0.6
		c1.5,0,2.8-0.3,4-1c1.2-0.6,2-1.5,2.4-2.5c0.4-1,0.6-2.7,0.6-5.1v-9.1c0-1.4-0.2-2.3-0.5-2.6c-0.4-0.5-1.1-0.7-1.9-0.7L453.8,529.1
		z M477.9,539.5c1.6,0.3,2.7,0.9,3.5,1.6c1.1,1,1.6,2.3,1.6,3.7c0,1.1-0.4,2.2-1.1,3.2c-0.7,1-1.7,1.8-2.9,2.2
		c-1.2,0.5-3.1,0.7-5.7,0.7h-10.6v-0.6h0.8c0.9,0,1.6-0.3,2-0.9c0.3-0.4,0.4-1.2,0.4-2.5v-14.6c0-1.4-0.2-2.3-0.5-2.6
		c-0.4-0.5-1.1-0.7-1.9-0.7h-0.8v-0.6h9.7c1.8,0,3.3,0.1,4.4,0.4c1.7,0.4,2.9,1.1,3.8,2.1c0.9,1,1.3,2.2,1.3,3.5c0,1.1-0.3,2.1-1,3
		C480.3,538.4,479.3,539.1,477.9,539.5L477.9,539.5z M469.2,538.6c0.4,0.1,0.9,0.1,1.4,0.2c0.5,0,1.1,0.1,1.7,0.1
		c1.6,0,2.8-0.2,3.6-0.5c0.8-0.3,1.4-0.9,1.9-1.6c0.4-0.7,0.6-1.5,0.6-2.4c0-1.3-0.5-2.4-1.6-3.4c-1.1-0.9-2.6-1.4-4.7-1.4
		c-1.1,0-2.1,0.1-3,0.4V538.6z M469.2,549.4c1.3,0.3,2.6,0.4,3.8,0.4c2,0,3.5-0.5,4.6-1.4c1.1-0.9,1.6-2,1.6-3.3
		c0-0.9-0.2-1.7-0.7-2.5c-0.5-0.8-1.3-1.4-2.3-1.9c-1.1-0.5-2.4-0.7-4-0.7c-0.7,0-1.3,0-1.8,0c-0.5,0-0.9,0.1-1.2,0.1V549.4z
		 M504.4,544.8l0.5,0.1l-1.9,6.1h-17.5v-0.6h0.8c1,0,1.6-0.3,2-0.9c0.2-0.4,0.3-1.2,0.3-2.5v-14.5c0-1.4-0.2-2.3-0.5-2.6
		c-0.4-0.5-1.1-0.7-1.9-0.7h-0.8v-0.6h10.2v0.6c-1.2,0-2,0.1-2.5,0.3c-0.5,0.2-0.8,0.5-1,0.9s-0.3,1.2-0.3,2.5V547
		c0,0.9,0.1,1.6,0.3,1.9c0.1,0.2,0.3,0.4,0.6,0.5c0.3,0.1,1.1,0.2,2.6,0.2h1.6c1.7,0,2.9-0.1,3.6-0.4c0.7-0.3,1.3-0.7,1.9-1.4
		C503.3,547.2,503.9,546.2,504.4,544.8z M516.2,550.4v0.6h-9.7v-0.6h0.8c0.9,0,1.6-0.3,2-0.8c0.3-0.4,0.4-1.2,0.4-2.6v-14.6
		c0-1.1-0.1-1.9-0.2-2.3c-0.1-0.3-0.3-0.5-0.7-0.7c-0.5-0.3-1-0.4-1.5-0.4h-0.8v-0.6h9.7v0.6h-0.8c-0.9,0-1.6,0.3-2,0.8
		c-0.3,0.4-0.4,1.2-0.4,2.6V547c0,1.1,0.1,1.9,0.2,2.3c0.1,0.3,0.3,0.5,0.7,0.7c0.5,0.3,1,0.4,1.5,0.4H516.2z M537.6,528l0.5,7.7
		h-0.5c-0.7-2.3-1.7-3.9-2.9-5c-1.3-1-2.8-1.5-4.6-1.5c-1.5,0-2.8,0.4-4.1,1.1s-2.2,2-2.9,3.6s-1,3.7-1,6.2c0,2,0.3,3.8,1,5.3
		c0.7,1.5,1.6,2.6,3,3.4c1.3,0.8,2.8,1.2,4.5,1.2c1.5,0,2.8-0.3,3.9-0.9s2.3-1.9,3.7-3.7l0.5,0.3c-1.1,2-2.4,3.5-4,4.4
		c-1.5,0.9-3.3,1.4-5.4,1.4c-3.7,0-6.6-1.4-8.7-4.2c-1.5-2.1-2.3-4.5-2.3-7.3c0-2.2,0.5-4.3,1.5-6.2c1-1.9,2.4-3.3,4.2-4.4
		c1.8-1,3.7-1.6,5.8-1.6c1.6,0,3.2,0.4,4.8,1.2c0.5,0.2,0.8,0.4,1,0.4c0.3,0,0.6-0.1,0.8-0.3c0.3-0.3,0.5-0.7,0.6-1.2H537.6z"/>
</g>
</svg>
