<svg xmlns="http://www.w3.org/2000/svg" width="600" height="364" viewBox="0 0 600 364"><path d="M57.24 2.91h491.81v327.66H57.24z" fill="#fff" stroke="#50d6cc" stroke-linecap="round" stroke-linejoin="round"/><path d="M275.68 2.91h273.37v109.22H275.68zM57.24 2.91h218.44v218.44H57.24z" fill="none" stroke="#50d6cc" stroke-linecap="round" stroke-linejoin="round"/><path d="M171.35 32.78l7.78-5.49-9.52-.13-2.82-9.1-3.07 9-9.52-.13 7.63 5.7-3.07 9 7.78-5.49 7.63 5.71zM133.93 39.48l4.34-8.48-8.5 4.31-6.72-6.75 1.47 9.44-8.52 4.27 9.4 1.51 1.48 9.41 4.34-8.48 9.4 1.51zM103.79 63l-.09-9.52-5.53 7.76-9.08-2.85L94.76 66l-5.52 7.75 9-3 5.67 7.64-.09-9.52 9-3zM88.26 97.73l-4.51-8.39-1.28 9.44-9.37 1.7 8.58 4.13-1.29 9.44 6.61-6.89 8.57 4.14-4.5-8.39L97.63 96zM90.45 135.62l-7.88-5.33 3.24 9-7.5 5.86 9.51-.33 3.25 8.95 2.63-9.15 9.52-.33-7.89-5.33 2.67-9.2zM110.09 168.38l-9.46-1.06 7 6.42-3.93 8.68 8.3-4.72 7 6.42-1.92-9.33 8.27-4.71-9.41-1.08-1.94-9.3zM142.76 188l-8.86 3.46 9.21 2.42.55 9.5 5.14-8 9.21 2.41-6-7.37 5.14-8-8.87 3.46-6-7.37zM180.63 190.38l-6.25 7.19 9.28-2.15 4.91 8.16.83-9.48 9.27-2.14-8.77-3.72.83-9.49-6.25 7.19-8.76-3.72zM215.46 174.89l-2.19 9.27 7.22-6.21 8.14 4.94-3.63-8.78 7.22-6.21-9.49.78-3.73-8.77-2.19 9.26-9.49.78zM239 144.82l2.36 9.21 3.51-8.85 9.5.6-7.37-6.07 3.5-8.85-8 5.1-7.33-6.06 2.36 9.22-8 5.1zM234.68 71.1l8.93 3.29-5.29-7.92 5.89-7.47-9.16 2.59-5.29-7.91-.37 9.51-9.16 2.6 8.93 3.29-.37 9.51zM207.69 44.07l9.43-1.23-8.36-4.55 1.74-9.36-6.91 6.55-8.36-4.55 4.09 8.6-6.9 6.55 9.44-1.24 4.14 8.59zM245.81 107.48l6.38 7.06-1-9.46 8.7-3.89-9.32-2-1-9.47-4.76 8.28-9.32-2 6.38 7.07-4.75 8.25z" fill="none" stroke="#50d6cc" stroke-miterlimit="10" stroke-width=".92" fill-rule="evenodd"/><path d="M184.14 109s.3-.33.39-.09.12.44 0 .53-.08.14-.19.29-.07.24-.18.31-.16 0-.29 0v.37l-.08.31.05.3.21.47-.16-.35.22.38c.18.45 1.8.9 2.39 1.17 1.22.54 1 3.15 1.16 3.4a37.73 37.73 0 01.64 4.29c0 .58-.64 3.7-.71 4.34 0 .32-.11 1.09-.19 1.87 0 .15-.24 0-.31.09a2.23 2.23 0 00-.05.89c0 .38-.15.67-.17.86a.83.83 0 01-.72.78 29.2 29.2 0 01-.15 3 4.84 4.84 0 000 2.3 12.82 12.82 0 01-.26 3.61s-.66 2.93-.79 3.38a2.26 2.26 0 00.15 1.19 5.75 5.75 0 01.06.83h-5.66c-.14 0 .1-.5.29-.86a1.08 1.08 0 01.74-.49c.39-.06.42-.48.64-1a4.24 4.24 0 00-.06-2.28 16.66 16.66 0 01-.45-2.9 11.36 11.36 0 00-.64-2.8 15 15 0 01-.48-3.06 1.12 1.12 0 00-.11-.36c-.09-.22-.1-.55-.28-1.06a9.63 9.63 0 01-.33-2.93 5.36 5.36 0 00-.55-2.19l-.1-.4-1 .31-1 .75a1.3 1.3 0 01-.83.26c-.75.07-1.5-.82-1.68-2.09s.08-2 1.65-2H176.91s.17.35-.1.47a2.79 2.79 0 01-.35.14l.35.4a8.45 8.45 0 01.77-.45l.22-.51a2.41 2.41 0 000-.75c-.06-.35-.19-2.39-.19-2.87s0-1.06.07-1.61a7.58 7.58 0 01.28-2.12c.31-.6 2-.85 2-.85s.72-.08.81-.28.22-.38.3-.5c-.46-.16-.62-.73-.68-.86a7.13 7.13 0 01-.21-.87c0-.1-.17-.7-.25-.93a1.83 1.83 0 010-.67l-.53-.06h-.63s-.35 0-.44-.08a3.75 3.75 0 00-.4-.1s-.51-.43 0-.78 1.09-.67 1.18-.72a.37.37 0 00.14-.15v-.13a3.23 3.23 0 01-.37-.93c-.14-.52 1.22-.74 1.22-.74.39 0 1.72.14 1.58.11a4.32 4.32 0 001 0 8.44 8.44 0 011.6.27 1.65 1.65 0 011 .8c.19.37 1 .84 1.23 1.06a8.28 8.28 0 011 1.35c.28.46 0 .35-.12.41-.45.26-2.94-.3-2.72-.27s.14 0-.06-.15v.18l-.14.55z" fill="none" stroke="#50d6cc" stroke-miterlimit="3.86" stroke-width=".46" fill-rule="evenodd"/><path d="M126.92 161.43h-2.76v-.3h.34a1.3 1.3 0 00.31 0 .49.49 0 00.21-.15.55.55 0 00.06-.28v-4.44a.49.49 0 000-.25.37.37 0 00-.22-.17 1.87 1.87 0 00-.33-.1 1.48 1.48 0 00-.32 0v-.31h2.76v.31h-.32a2.21 2.21 0 00-.32.07.36.36 0 00-.22.17.55.55 0 00-.06.26v4.44a.51.51 0 00.06.25.48.48 0 00.22.17 1.58 1.58 0 00.29.08 3.24 3.24 0 00.35 0v.3zM134.48 155.61a1.34 1.34 0 00-.37.07 1.1 1.1 0 00-.36.13.56.56 0 00-.21.42 4.07 4.07 0 00-.06.77v4.49h-.37l-3.71-5v3.16a4.29 4.29 0 00.06.82.79.79 0 00.21.4 1 1 0 00.41.18l.41.09v.3H128v-.3l.39-.09a1.22 1.22 0 00.35-.13.7.7 0 00.2-.37 4.15 4.15 0 00.06-.85v-3a1.09 1.09 0 00-.07-.4.78.78 0 00-.19-.31 1.37 1.37 0 00-.42-.24 1.23 1.23 0 00-.43-.11v-.31h1.75l3.45 4.68v-2.92a4.07 4.07 0 00-.07-.82.78.78 0 00-.2-.39 2.16 2.16 0 00-.4-.16 1.78 1.78 0 00-.41-.08v-.31h2.49v.31zM143.51 159l-.28.05a.88.88 0 00-.28.07.44.44 0 00-.19.19.78.78 0 000 .28v1.47a7.38 7.38 0 01-1.14.4 4.82 4.82 0 01-1.12.13 2.92 2.92 0 01-1.13-.22 2.74 2.74 0 01-1-.62 3.14 3.14 0 01-.65-1 3.43 3.43 0 01-.24-1.31 3.66 3.66 0 01.22-1.3 3.18 3.18 0 01.66-1 2.8 2.8 0 011-.67 3.31 3.31 0 012.12-.12 4.2 4.2 0 01.67.3l.18-.29h.34v2.14h-.35c-.06-.23-.14-.46-.22-.69a2.49 2.49 0 00-.35-.62 1.56 1.56 0 00-.52-.43 1.47 1.47 0 00-.72-.17 1.71 1.71 0 00-1.46.75 2.67 2.67 0 00-.4.9 4.35 4.35 0 00-.15 1.19 4.3 4.3 0 00.14 1.1 2.81 2.81 0 00.41.89 2 2 0 00.67.61 2 2 0 001.6.1 1.31 1.31 0 00.45-.24 3.44 3.44 0 000-.46v-.72a.79.79 0 00-.06-.32.3.3 0 00-.2-.21 1.41 1.41 0 00-.39-.09l-.38-.05v-.31h2.69v.27zM149.53 156a2.93 2.93 0 01.63 1 3.52 3.52 0 01.23 1.32 3.75 3.75 0 01-.23 1.33 2.92 2.92 0 01-3.89 1.64 2.7 2.7 0 01-.93-.67 3.1 3.1 0 01-.61-1 3.64 3.64 0 01-.22-1.29 3.47 3.47 0 01.23-1.33 3 3 0 01.64-1 2.74 2.74 0 01.94-.65 2.93 2.93 0 011.13-.23 3 3 0 011.15.23 2.79 2.79 0 01.93.65zm-.64 4.34a3.06 3.06 0 00.35-.89 5.35 5.35 0 00.11-1.11 4.6 4.6 0 00-.13-1.15 2.65 2.65 0 00-.36-.9 1.53 1.53 0 00-.59-.57 1.59 1.59 0 00-.82-.21 1.54 1.54 0 00-.88.24 1.79 1.79 0 00-.59.63 3.23 3.23 0 00-.33.89 5.32 5.32 0 00-.1 1.07 5.55 5.55 0 00.11 1.13 3.08 3.08 0 00.36.89 1.73 1.73 0 00.58.59 1.78 1.78 0 001.68 0 1.78 1.78 0 00.61-.61zM157.18 158.4a2.9 2.9 0 01-.3 1.36 2.72 2.72 0 01-.76.94 3.2 3.2 0 01-1.07.55 4.14 4.14 0 01-1.22.18h-2.54v-.3h.33a1 1 0 00.27 0 .37.37 0 00.18-.17.53.53 0 00.06-.26v-4.43a.71.71 0 000-.26.39.39 0 00-.19-.19 1.4 1.4 0 00-.29-.09 1.76 1.76 0 00-.27 0v-.31H154a3.7 3.7 0 011.09.17 3.37 3.37 0 01.93.46 2.62 2.62 0 01.85 1 3.31 3.31 0 01.31 1.46zm-1.06 0a3.6 3.6 0 00-.17-1.12 2.44 2.44 0 00-.47-.87 2.17 2.17 0 00-1.7-.76h-.73v4.71a.62.62 0 00.23.55 1.3 1.3 0 00.7.15 2.19 2.19 0 001-.2 1.68 1.68 0 00.66-.54 2.32 2.32 0 00.39-.84 4 4 0 00.13-1.1zM168.87 155.61a.85.85 0 00-.25 0 1 1 0 00-.26.12.76.76 0 00-.25.22 1.2 1.2 0 00-.16.34l-.71 2.33c-.27.89-.56 1.83-.88 2.84H166l-1.55-4.72-1.61 4.72h-.38c-.28-1-.58-2-.88-3.14s-.51-1.81-.62-2.18a.66.66 0 00-.11-.24.78.78 0 00-.21-.19.63.63 0 00-.25-.1.91.91 0 00-.26 0v-.31h2.5v.31a3.84 3.84 0 00-.56.06c-.15 0-.23.09-.23.16a.57.57 0 000 .12.65.65 0 010 .11c.07.26.19.67.35 1.26s.42 1.45.75 2.62l1.53-4.55h.43l1.54 4.65c.2-.72.38-1.34.53-1.87s.27-1 .37-1.38.11-.45.13-.55a1.29 1.29 0 000-.25c0-.1-.07-.18-.21-.25a1.9 1.9 0 00-.64-.13v-.31h2.22zM174.82 159.63l-.12 1.8h-5.08v-.3h.34a1.22 1.22 0 00.28-.06.36.36 0 00.19-.17.53.53 0 00.06-.26v-4.41a.66.66 0 00-.05-.25.4.4 0 00-.2-.18 1.41 1.41 0 00-.31-.1 1.6 1.6 0 00-.31 0v-.31h4.73v1.48H174a2.08 2.08 0 00-.37-.7.94.94 0 00-.55-.4h-1.7v2.44h.69a1.4 1.4 0 00.48-.06.66.66 0 00.27-.21 1 1 0 00.16-.34 1.55 1.55 0 00.09-.39h.33v2.39h-.33a1.84 1.84 0 00-.07-.6 1 1 0 00-.16-.34.69.69 0 00-.3-.22 1.87 1.87 0 00-.45 0h-.69v1.84a1.78 1.78 0 000 .44.38.38 0 00.15.24.7.7 0 00.3.11h1.32l.34-.06a.45.45 0 00.25-.13 2.45 2.45 0 00.41-.62 5.56 5.56 0 00.29-.62zM183.82 157h-.3a1.54 1.54 0 00-.14-.36 2.67 2.67 0 00-.22-.41 1.62 1.62 0 00-.29-.34.55.55 0 00-.29-.18h-.96v4.9a.6.6 0 00.06.27.48.48 0 00.21.18l.32.08.39.06v.3h-2.89v-.3h.37l.34-.06a.39.39 0 00.21-.16.52.52 0 00.07-.29v-4.94h-.96a.49.49 0 00-.3.18 1.88 1.88 0 00-.28.34 2.82 2.82 0 00-.23.42 2.52 2.52 0 00-.14.35h-.3v-1.74h5.33v1.7zM190.78 161.43h-1.65c-.36-.57-.69-1.07-1-1.48s-.61-.85-1-1.3h-.62v1.95a.59.59 0 00.05.27.32.32 0 00.2.17l.27.06h.33v.3h-2.59v-.3h.3l.27-.06a.35.35 0 00.19-.17.54.54 0 00.06-.27v-4.43a1 1 0 000-.27.32.32 0 00-.21-.18 1.26 1.26 0 00-.28-.07 1.81 1.81 0 00-.29 0v-.31h2.83a3.31 3.31 0 01.72.08 2 2 0 01.62.26 1.24 1.24 0 01.43.45 1.3 1.3 0 01.16.67 1.73 1.73 0 01-.11.63 1.27 1.27 0 01-.32.47 2 2 0 01-.46.32 3.92 3.92 0 01-.6.23l.75 1 .73 1a2.36 2.36 0 00.35.39 1.66 1.66 0 00.3.19 1 1 0 00.28.09h.28v.3zm-2.27-4.57a1.12 1.12 0 00-1.22-1.21h-.73v2.63h.56a1.32 1.32 0 001.39-1.42zM197.19 155.61a2.29 2.29 0 00-.36 0 1.21 1.21 0 00-.38.14.68.68 0 00-.2.41 4.1 4.1 0 00-.06.76v2.67a1.76 1.76 0 01-.21.88 1.74 1.74 0 01-.55.62 2.37 2.37 0 01-.72.34 3.2 3.2 0 01-.73.1 3 3 0 01-1-.15 1.91 1.91 0 01-.72-.39 1.56 1.56 0 01-.44-.56 1.52 1.52 0 01-.15-.66v-3.63a.49.49 0 00-.05-.25.46.46 0 00-.2-.19.85.85 0 00-.27-.09 1.28 1.28 0 00-.28 0v-.31h2.55v.31a1.38 1.38 0 00-.31 0l-.26.06a.32.32 0 00-.2.17.81.81 0 000 .27v3.39a3.14 3.14 0 000 .51 1.44 1.44 0 00.22.51 1.25 1.25 0 00.46.38 1.7 1.7 0 00.79.16 1.82 1.82 0 00.79-.16 1.28 1.28 0 00.51-.39 1.52 1.52 0 00.25-.49 1.82 1.82 0 00.08-.52V157a4 4 0 00-.07-.78.64.64 0 00-.21-.4 1 1 0 00-.41-.17 2 2 0 00-.4-.07v-.31h2.51v.31zM201.73 158.62a1.34 1.34 0 01.28.47 1.57 1.57 0 01.1.6 1.71 1.71 0 01-.6 1.34 2.19 2.19 0 01-1.49.53 2.6 2.6 0 01-.82-.13 3.1 3.1 0 01-.71-.31l-.18.32H198l-.06-2.1h.35a5.16 5.16 0 00.25.7 2.76 2.76 0 00.38.58 1.76 1.76 0 00.53.41 1.54 1.54 0 00.7.15 1.33 1.33 0 00.51-.08.91.91 0 00.37-.22.79.79 0 00.2-.33 1.5 1.5 0 00.07-.44 1.22 1.22 0 00-.21-.69 1.27 1.27 0 00-.62-.48l-.64-.25c-.24-.09-.45-.18-.62-.26a2 2 0 01-.81-.61 1.6 1.6 0 01-.29-1 1.44 1.44 0 01.15-.65 1.72 1.72 0 01.4-.54 2 2 0 01.59-.35 2.17 2.17 0 01.71-.13 2.2 2.2 0 01.76.13 4.33 4.33 0 01.61.3l.18-.29h.34v2h-.35a5.85 5.85 0 00-.22-.67 2.12 2.12 0 00-.3-.58 1.46 1.46 0 00-.46-.4 1.28 1.28 0 00-.65-.15 1 1 0 00-.7.26.86.86 0 00-.29.65 1.09 1.09 0 00.19.66 1.31 1.31 0 00.54.42 6.34 6.34 0 00.61.27c.21.07.4.15.59.23a3.93 3.93 0 01.5.26 1.7 1.7 0 01.42.33zM208.36 157h-.3a2.17 2.17 0 00-.14-.36 2.71 2.71 0 00-.23-.41 1.59 1.59 0 00-.28-.34.54.54 0 00-.3-.18h-.96v4.9a.6.6 0 00.06.27.48.48 0 00.21.18l.33.08.38.06v.3h-2.89v-.3h.37l.39-.2a.41.41 0 00.2-.16.52.52 0 00.07-.29v-4.94h-.96a.51.51 0 00-.3.18 2.42 2.42 0 00-.28.34 2.82 2.82 0 00-.23.42c-.06.14-.11.26-.14.35H203v-1.6h5.34z" fill="#50d6cc" fill-rule="evenodd"/><path d="M166.68 83.78h0a1.44 1.44 0 01.77 1.46c.67-.13.94.23.81 1.06 0 0-.8-.22-.93.24a1 1 0 00.45 1.28s.83.65 1.35-.59l.7-1.66a3.16 3.16 0 011.79-1.68 1.39 1.39 0 01.9 0s.69.15.71.72a.89.89 0 01-.6 1c-.43.19-1-.21-1-.21a.38.38 0 00-.35.11 2.13 2.13 0 00-.4.54 14.9 14.9 0 00-.56 1.42c-.14.48-.45 1.94-1.93 2.16H165c-1.48-.22-1.8-1.68-1.94-2.16a12.46 12.46 0 00-.56-1.42 2.18 2.18 0 00-.39-.54.41.41 0 00-.36-.11s-.53.4-1 .21a.88.88 0 01-.6-1c0-.57.7-.72.7-.72a1.39 1.39 0 01.9 0 3.13 3.13 0 011.79 1.68s.19.42.71 1.66 1.34.59 1.34.59a1 1 0 00.45-1.28c-.13-.46-.92-.24-.92-.24-.13-.83.14-1.19.81-1.06 0-1.19.76-1.46.76-1.46h0z" fill="none" stroke="#50d6cc" stroke-miterlimit="3.86" stroke-width=".69"/><path d="M171 123.66h-8.45l1-33h6.5zM171 142h-9v-15h9z" fill="none" stroke="#50d6cc" stroke-miterlimit="3.86" stroke-width=".69" fill-rule="evenodd"/><path d="M161.87 125.31H171c.64 0 1.15.39 1.15.86s-.51.87-1.15.87h-9.09c-.64 0-1.15-.39-1.15-.87s.47-.86 1.11-.86z" fill="none" stroke="#50d6cc" stroke-miterlimit="3.86" stroke-width=".69"/><path d="M162.54 123.69h7.94a.93.93 0 011 .81h0a.93.93 0 01-1 .81h-7.94a.93.93 0 01-1-.81h0a.94.94 0 011-.81z" fill="none" stroke="#50d6cc" stroke-miterlimit="3.86" stroke-width=".69" fill-rule="evenodd"/><path d="M164 129.82h4.79v9.87H164zM163.94 89.54h5.51c.45 0 .82.26.82.59s-.37.6-.82.6h-5.51c-.45 0-.82-.27-.82-.6s.37-.59.82-.59z" fill="none" stroke="#50d6cc" stroke-miterlimit="3.86" stroke-width=".69"/><path d="M121.54 143.78H213v3.08h-91.46z" fill="none" stroke="#50d6cc" stroke-miterlimit="3.86" stroke-width=".69" fill-rule="evenodd"/><path d="M117.64 146.84H217v3.26h-99.36z" fill="none" stroke="#50d6cc" stroke-miterlimit="3.86" stroke-width=".69"/><path d="M124.24 76.82h85.39v1.89h-85.39zM193.55 76.76a28.73 28.73 0 00-53.3 0h-10.61c4.91-16.29 19.75-28.23 37.25-28.23s32.37 11.92 37.28 28.23zM126.54 78.74a8.19 8.19 0 012.7 3.51h76s1.25-2.94 3-3.51z" fill="none" stroke="#50d6cc" stroke-miterlimit="3.86" stroke-width=".69" fill-rule="evenodd"/><path d="M145.38 82.93s7 12.08 21.35 11.91c14.13-.16 21.35-11.5 21.35-11.5l3.77 5.59s1.39 1.88-1.32 4.27c-9.55 8.41-17.12 10.07-23.8 10q-14.8-.81-23.89-10a2.78 2.78 0 01-1-3.08z" fill="#fff" stroke="#50d6cc" stroke-miterlimit="3.86" stroke-width=".69" fill-rule="evenodd"/><path d="M141.72 91.37s-.43-2.44 3.42-.47l.28-7.93M192.11 89.71c-1.23-2.65-3.48.59-3.48.59l-.57-6.92" fill="none" stroke="#50d6cc" stroke-miterlimit="3.86" stroke-width=".69"/><path d="M128.83 82.39h76.37a.5.5 0 01.5.51v.17a.51.51 0 01-.5.52h-76.37a.5.5 0 01-.49-.52v-.17a.5.5 0 01.49-.51z" fill="#fff" stroke="#50d6cc" stroke-miterlimit="3.86" stroke-width=".69"/><path d="M135.58 83.68h0s.76.27.77 1.45c.67-.12.94.23.81 1.06 0 0-.79-.21-.92.24a1 1 0 00.44 1.28s.83.66 1.35-.58.71-1.67.71-1.67a3.14 3.14 0 011.78-1.68 1.49 1.49 0 01.91 0s.68.15.7.72a.89.89 0 01-.6 1 1.13 1.13 0 01-1-.21.39.39 0 00-.36.11 1.66 1.66 0 00-.39.54 11.67 11.67 0 00-.56 1.42c-.15.48-.46 1.94-1.94 2.16h-3.49c-1.48-.22-1.79-1.68-1.94-2.16a11.67 11.67 0 00-.56-1.42 1.66 1.66 0 00-.39-.54.4.4 0 00-.36-.11 1.13 1.13 0 01-1 .21.89.89 0 01-.6-1c0-.57.7-.72.7-.72a1.45 1.45 0 01.9 0 3.13 3.13 0 011.79 1.68s.19.43.71 1.67 1.35.58 1.35.58a1 1 0 00.44-1.28c-.13-.45-.92-.24-.92-.24-.13-.83.14-1.18.81-1.06 0-1.18.76-1.45.77-1.45h0z" fill="none" stroke="#50d6cc" stroke-miterlimit="3.86" stroke-width=".69"/><path d="M139.83 123.66h-8.45l1.12-33h6.25zM140.09 142h-9v-15h9z" fill="none" stroke="#50d6cc" stroke-miterlimit="3.86" stroke-width=".69" fill-rule="evenodd"/><path d="M131.06 125.31h9.09c.64 0 1.15.39 1.15.86h0c0 .48-.51.87-1.15.87h-9.09c-.64 0-1.15-.39-1.15-.87h0c0-.47.51-.86 1.15-.86z" fill="none" stroke="#50d6cc" stroke-miterlimit="3.86" stroke-width=".69" fill-rule="evenodd"/><path d="M131.63 123.69h7.94a.94.94 0 011 .81h0a.94.94 0 01-1 .81h-7.94a.93.93 0 01-1-.81h0a.94.94 0 011-.81z" fill="none" stroke="#50d6cc" stroke-miterlimit="3.86" stroke-width=".69" fill-rule="evenodd"/><path d="M133.21 129.82H138v9.87h-4.79zM132.85 89.66h5.51c.45 0 .82.27.82.6s-.37.6-.82.6h-5.51c-.45 0-.82-.27-.82-.6s.37-.6.82-.6z" fill="none" stroke="#50d6cc" stroke-miterlimit="3.86" stroke-width=".69"/><path d="M129.21 142H142v1.72h-12.79z" fill="none" stroke="#50d6cc" stroke-miterlimit="3.86" stroke-width=".69" fill-rule="evenodd"/><path d="M198.24 83.78h0a1.44 1.44 0 01.77 1.46c.67-.13.94.23.81 1.06 0 0-.8-.22-.93.24a1 1 0 00.45 1.28s.83.65 1.35-.59l.7-1.66a3.16 3.16 0 011.79-1.68 1.39 1.39 0 01.9 0s.69.15.71.72a.89.89 0 01-.6 1c-.43.19-1-.21-1-.21a.38.38 0 00-.35.11 2.13 2.13 0 00-.4.54 12.46 12.46 0 00-.56 1.42c-.14.48-.45 1.94-1.93 2.16h-3.49c-1.48-.22-1.8-1.68-1.94-2.16A12.46 12.46 0 00194 86a1.91 1.91 0 00-.4-.54.38.38 0 00-.35-.11s-.53.4-1 .21a.88.88 0 01-.6-1c0-.57.7-.72.7-.72a1.39 1.39 0 01.9 0 3.13 3.13 0 011.79 1.68s.19.42.71 1.66 1.34.59 1.34.59a1 1 0 00.45-1.28c-.13-.46-.92-.24-.92-.24-.13-.83.14-1.19.81-1.06 0-1.19.76-1.46.76-1.46h0z" fill="none" stroke="#50d6cc" stroke-miterlimit="3.86" stroke-width=".69"/><path d="M202.65 123.66h-8.45l1.12-33h6.24zM203.11 142h-9l-.09-15h9.06z" fill="none" stroke="#50d6cc" stroke-miterlimit="3.86" stroke-width=".69" fill-rule="evenodd"/><path d="M194.06 125.31h9.09c.64 0 1.15.39 1.15.86s-.51.87-1.15.87h-9.09c-.64 0-1.15-.39-1.15-.87s.51-.86 1.15-.86z" fill="none" stroke="#50d6cc" stroke-miterlimit="3.86" stroke-width=".69"/><path d="M194.52 123.69h7.94a.94.94 0 011 .81h0a.93.93 0 01-1 .81h-7.94a.93.93 0 01-1-.81h0a.94.94 0 011-.81z" fill="none" stroke="#50d6cc" stroke-miterlimit="3.86" stroke-width=".69" fill-rule="evenodd"/><path d="M196.15 129.82h4.79v9.87h-4.79zM195.63 89.54h5.5c.46 0 .82.26.82.59s-.36.6-.82.6h-5.5c-.46 0-.82-.27-.82-.6s.36-.59.82-.59z" fill="none" stroke="#50d6cc" stroke-miterlimit="3.86" stroke-width=".69"/><path d="M159.9 142h12.78v1.72H159.9z" fill="none" stroke="#50d6cc" stroke-miterlimit="3.86" stroke-width=".69" fill-rule="evenodd"/><path d="M112.44 118.65a6.35 6.35 0 00-4.44-1.15 3.67 3.67 0 014.3-1.11c1.68.7 3.11 3.29 7.37.58s5.92-4.08 9.67-5.34 6.89-1.56 7.79-1.89 2.31-.84 3-5.18c.16-1 4.1 8.22 4.1 8.22a7.31 7.31 0 01-4.35 4.76c-3.77 1.73-10.3 2.76-13.93 5.67a24 24 0 00-5 4.79c-3.36 4.92-6.86 5.48-6.86 5.48a14.26 14.26 0 004.06-6.53c.16-.7-.11-3.84 1.15-5.09-1.33 1.33-4.7-1.3-4.27-1a10.22 10.22 0 00-2.58-2.26zM193.77 104.64s.66 3.74 8 5.63 8.48 4.27 9.67 4.85 4.28 2.79 7.58 1.68c1.3-.43 4.94-1.44 5.24-1.21a9.73 9.73 0 01-1.18 2.28c-2.44 2.88-3.36 3.33-4.26 3.78-2 1-2.12 1.1-3.53 1.19a8.46 8.46 0 011.52 4.31c.2 2.67 3.77 5.38 3.77 5.38s-4.75-1.23-6.84-4.07a23.19 23.19 0 00-6.81-5.87c-1.27-.61-7.74-2.83-9.09-3.37s-5.57-2.75-6.15-6.32 2.09-8.26 2.09-8.26z" fill="#fff" stroke="#50d6cc" stroke-miterlimit="3.86" stroke-width=".69" fill-rule="evenodd"/><path d="M124.24 107.52c-5-2-3.44-3.27-3.44-3.27 1.22-2.19 2.83-4.94 8.89-7.27 8.11-3.13 16.39-1.73 14.18 1.88-1.35 2.2-3.67 6-3.67 6s-1-2.59-5.39-.94-5.79 2.34-6.05 3.2c-.41 1.36-.25 2.22 3 1.73-2.09.7-4.42 0-7-1.19zM200.1 103.83a12.69 12.69 0 013.42 1.67c4.51 3.24 3.68 6.06 2.43 6.14s8.84-.21 10.07-.86 1.64-1.4.9-3-6.31-11.09-15.4-12.9-12.7 2-11.93 3.33 4.1 5.34 4.22 7c.94-1.76 3-2.26 6.29-1.44z" fill="#fff" stroke="#50d6cc" stroke-miterlimit="3.86" stroke-width=".69"/><path d="M195.74 102.07L194 99.55l.45 2.74-.7.12-.8-4.78.76-.13 2.28 3.2 1.15-3.77.66-.11.8 4.77-.93.16-.47-2.75-.93 3zM203 100.24a2.65 2.65 0 01-.85 1.61 1.86 1.86 0 01-2.67-.54 2.6 2.6 0 01-.17-1.81l.06-.27a2.88 2.88 0 01.81-1.58 1.67 1.67 0 011.53-.37 1.58 1.58 0 011.22.94A2.88 2.88 0 01203 100zm-1-.27v-.13a4.34 4.34 0 00.12-1.33.64.64 0 00-.59-.56.66.66 0 00-.74.24 4.11 4.11 0 00-.44 1.31v.12a4.56 4.56 0 00-.13 1.37c0 .27.25.43.61.51a.66.66 0 00.7-.27A3.18 3.18 0 00202 100zM206.87 102.33a2.81 2.81 0 01-1.22 1.33 1.55 1.55 0 01-1.42-.13l-1.48-.8 2.31-4.25 1.32.72a1.68 1.68 0 011 1.25 2.83 2.83 0 01-.41 1.71zm-.9-.52l.07-.12a2.32 2.32 0 00.35-1.19.81.81 0 00-.43-.71l-.34-.19-1.62 3 .42.23a.73.73 0 00.74 0 2.54 2.54 0 00.81-1zM209.5 102.53l-.91.93 1 1-.51.52-1-1-1 1 1.34 1.32-.5.51-2.08-2 3.38-3.46 2 2-.5.52zM210 110.19l-.52-.88a5.23 5.23 0 001.33-1 .67.67 0 00.11-.8l-.12-.21-1.87 1.11-.53-.89 4.16-2.46.92 1.56a1.23 1.23 0 01.21 1 1.05 1.05 0 01-.49.61l-.23.14a.93.93 0 01-.69.13 1.15 1.15 0 01-.62-.48 1.3 1.3 0 01-.24 1.09 4.65 4.65 0 01-1.42 1.16zm2.37-2.73l.11-.07a.61.61 0 00.31-.36.78.78 0 00-.12-.48l-.17-.29-1.11.65.15.24a.84.84 0 00.38.39.58.58 0 00.44-.08zM196.92 116.16l-.86-.62.41-1.14-1.22-.89-1 .74-.68-.5 4.08-3 .78.57zm-.21-2.45l.58-1.78-1.47 1.13zM202.3 114.15l-.9-.44-1.8 3.71-.93-.46 1.8-3.7-.92-.45.32-.65 2.74 1.34zM204.51 114.25l-1.88 4.45-.95-.4 1.88-4.46zM208.17 118.67a2.61 2.61 0 01-1.18 1.39 1.85 1.85 0 01-2.49-1.06 2.65 2.65 0 01.23-1.8l.11-.25a2.88 2.88 0 011.14-1.37 1.67 1.67 0 011.57 0 1.58 1.58 0 011 1.18 2.89 2.89 0 01-.26 1.76zm-.92-.48l.05-.12a4.28 4.28 0 00.41-1.27.65.65 0 00-.46-.68.66.66 0 00-.77.07 3.9 3.9 0 00-.71 1.19l-.05.11a4.24 4.24 0 00-.42 1.32c0 .26.15.47.48.62a.67.67 0 00.75-.11 3.12 3.12 0 00.72-1.13zM211.4 120.71l1.43-2.48.64.37-2.42 4.19-.38-.22-.47-3.78-1.52 2.63-.64-.37 2.42-4.19.48.28zM128.91 104.68l-.64.38-3.58-3.49.9-.54 2.26 2.22-.8-3.1.63-.38 2.36 2.16-.94-3 .72-.43 1.4 4.81-.64.38-2.45-2.2zM132.48 97.82l1.42 4.63-1 .31-1.41-4.63zM138 100.29a1.34 1.34 0 01-.33 1.2 2.15 2.15 0 01-1.29.55 4.31 4.31 0 01-.83.06 2.9 2.9 0 01-.55-.1l-.12-.82a2.42 2.42 0 00.57.13 3.64 3.64 0 00.74 0 1.23 1.23 0 00.66-.24.52.52 0 00.13-.49.53.53 0 00-.19-.35 2.29 2.29 0 00-.83-.32 2.18 2.18 0 01-.86-.44 1.37 1.37 0 01-.4-.88 1.15 1.15 0 01.31-1 1.83 1.83 0 011.18-.56 3.76 3.76 0 011.15 0l.1.73h-.53a2.57 2.57 0 00-.55 0 1 1 0 00-.58.21.43.43 0 00-.13.36.53.53 0 00.19.37 3.42 3.42 0 00.85.27 2 2 0 011 .47 1.53 1.53 0 01.38.82zM153 97a1.16 1.16 0 01-.65.6 1.2 1.2 0 01-1-.12 3.67 3.67 0 01-.5-.32 1.13 1.13 0 01-.26-.29l.33-.66a2.76 2.76 0 00.24.23 1.46 1.46 0 00.33.22.43.43 0 00.63-.21l1.64-3.23.92.47zM158.23 98.94a1.39 1.39 0 01-.75.85 1.69 1.69 0 01-1.29-.08 1.73 1.73 0 01-1.06-.85 1.78 1.78 0 01.07-1.29l1.17-3 1 .37-1.21 3.17a.89.89 0 00-.05.61.72.72 0 00.47.4.85.85 0 00.6 0 .86.86 0 00.4-.53l1.21-3.14.71.27zM163.34 100a1.32 1.32 0 01-.62 1.07 2.24 2.24 0 01-1.39.2 4.58 4.58 0 01-.82-.16 2.86 2.86 0 01-.54-.22l.1-.83a1.88 1.88 0 00.52.27 3 3 0 00.71.18 1.2 1.2 0 00.7 0 .56.56 0 00.25-.44.54.54 0 00-.09-.39 2.46 2.46 0 00-.72-.53 2 2 0 01-.72-.65 1.42 1.42 0 01-.16-1 1.18 1.18 0 01.56-.88 1.89 1.89 0 011.29-.23 3.25 3.25 0 01.68.15 2.83 2.83 0 01.41.17l-.09.73-.5-.18a3.61 3.61 0 00-.54-.12 1.11 1.11 0 00-.61.06.43.43 0 00-.22.32.51.51 0 00.09.4 3 3 0 00.75.48 1.89 1.89 0 01.8.71 1.4 1.4 0 01.16.89zM168.1 97.58h-1l-.07 4.12h-1l.07-4.12h-1v-.78h3.05zM170.92 96.59l.59 4.8-1 .13-.59-4.81zM176.7 100a1.14 1.14 0 01-.33.25 2.84 2.84 0 01-.6.26 2 2 0 01-1.62-.14 2.46 2.46 0 01-1.08-1.53v-.18a2.49 2.49 0 010-1.85 1.92 1.92 0 011.24-1.07 3 3 0 01.63-.14 1.21 1.21 0 01.42 0l.22.74a1.44 1.44 0 00-.38 0 2.17 2.17 0 00-.51.1 1 1 0 00-.71.69 2.31 2.31 0 00.07 1.31v.06a2.33 2.33 0 00.65 1.14.93.93 0 00.89.16 2.29 2.29 0 00.54-.24c.14-.09.25-.18.33-.24zM178.13 94.82l.59 1.16 1.22-.62.33.65-1.22.62.62 1.22 1.68-.86.32.65-2.59 1.36-2.2-4.31 2.49-1.27.33.64zM127.22 117.87a2.8 2.8 0 01.45 1.75 1.55 1.55 0 01-.86 1.13l-1.47.82-2.34-4.24 1.32-.73a1.71 1.71 0 011.6-.17 2.87 2.87 0 011.21 1.27zm-.93.48l-.06-.12a2.33 2.33 0 00-.82-.93.8.8 0 00-.83 0l-.33.18 1.64 3 .42-.23a.76.76 0 00.41-.62 2.57 2.57 0 00-.43-1.24zM131.57 116.05a2.61 2.61 0 01.21 1.81 1.7 1.7 0 01-1 1.09 1.73 1.73 0 01-1.49 0 2.57 2.57 0 01-1.15-1.39l-.11-.25a2.83 2.83 0 01-.22-1.77 1.62 1.62 0 011-1.17 1.56 1.56 0 011.53.08 2.88 2.88 0 011.1 1.38zm-1 .35l-.05-.12a4.52 4.52 0 00-.65-1.17.65.65 0 00-.81-.12.66.66 0 00-.47.62 4.1 4.1 0 00.38 1.33v.11a4.2 4.2 0 00.67 1.2.66.66 0 00.78.07.65.65 0 00.43-.62 3.16 3.16 0 00-.33-1.3zM135.38 117.28l-2.19-2.16.95 2.61-.67.24-1.65-4.54.72-.27 2.82 2.72.44-3.91.64-.23 1.65 4.55-.89.32-.94-2.61-.38 3.09zM141.75 69.36a2 2 0 01-.13.46 3.61 3.61 0 01-.38.67 2.42 2.42 0 01-1.56 1.07 2.67 2.67 0 01-2-.58l-.18-.12a2.67 2.67 0 01-1.19-1.68 2.35 2.35 0 01.4-1.86 3.89 3.89 0 01.48-.58 1.56 1.56 0 01.38-.31l.7.49a1.66 1.66 0 00-.36.26 2.36 2.36 0 00-.4.46 1.22 1.22 0 00-.18 1.13 2.37 2.37 0 001 1.11h.06a2.38 2.38 0 001.36.54 1.11 1.11 0 00.91-.51 2.18 2.18 0 00.33-.61 4.19 4.19 0 00.14-.45zM144.37 62.9a2.76 2.76 0 011 1.78 2.24 2.24 0 01-2.24 2.32 2.71 2.71 0 01-1.81-.89l-.22-.22a3.07 3.07 0 01-1-1.73 2 2 0 01.63-1.71 1.87 1.87 0 011.66-.64 3 3 0 011.75.92zm-.9.82l-.1-.1a4.75 4.75 0 00-1.18-.9.77.77 0 00-.92.25.81.81 0 00-.24.87 4.24 4.24 0 001 1.2l.09.09a4.52 4.52 0 001.22.93c.28.11.56 0 .86-.3a.78.78 0 00.2-.84 3.53 3.53 0 00-.9-1.2zM149.16 59.59L147.29 57l.69-.51 3.16 4.35-.42.31-4.16-1.15 2 2.73-.7.5-3.16-4.34.53-.38zM155.85 56.87a1.46 1.46 0 010 1.39 2.67 2.67 0 01-1.27 1 5.3 5.3 0 01-.91.36 3.41 3.41 0 01-.67.12l-.39-.84a2.2 2.2 0 00.67-.06 3.59 3.59 0 00.82-.27 1.41 1.41 0 00.67-.48.68.68 0 00-.34-.88 3 3 0 00-1-.05 2.37 2.37 0 01-1.1-.16 1.58 1.58 0 01-.73-.79 1.33 1.33 0 010-1.18 2.28 2.28 0 011.14-1 4.29 4.29 0 01.77-.28 3.67 3.67 0 01.52-.1l.34.75-.61.13a4 4 0 00-.6.22 1.15 1.15 0 00-.57.44.43.43 0 000 .42.56.56 0 00.33.33 3.76 3.76 0 001 0 2.14 2.14 0 011.22.17 1.56 1.56 0 01.69.74zM160.5 52.42l-1.13.3 1.18 4.42-1.17.31L158.2 53l-1.16.31-.2-.78 3.45-.92zM163.64 51.22l1.2-.08.38 5.36-1.21.08zM171.31 52.17l-1.16-.09-.32 4.57-1.21-.09.32-4.56-1.19-.08.05-.8 3.57.25zM177.19 56.77a1.57 1.57 0 01-.79 1 2.11 2.11 0 01-1.51 0 2.09 2.09 0 01-1.31-.88 1.9 1.9 0 010-1.44L174.6 52l1.16.35-1.1 3.6a.93.93 0 000 .68.88.88 0 00.6.41 1 1 0 00.69 0 .9.9 0 00.42-.6l1.09-3.58.86.26zM183.94 56.43l-1-.53-2.11 4.1-1.08-.55 2.07-4.07-1.06-.54.36-.72 3.19 1.63zM186.91 57.39l1 .71-3.16 4.35-1-.72zM191.62 65.25a2.79 2.79 0 01-1.8.94 2.24 2.24 0 01-2.25-2.26 2.71 2.71 0 01.93-1.79l.21-.21a3 3 0 011.75-1 2 2 0 011.7.66 1.86 1.86 0 01.61 1.67 3.05 3.05 0 01-.94 1.73zm-.81-.92l.1-.1a4.82 4.82 0 00.93-1.16.78.78 0 00-.24-.92.78.78 0 00-.86-.25 4.14 4.14 0 00-1.22.94l-.09.09a4.35 4.35 0 00-1 1.2.92.92 0 001.12 1.08 3.31 3.31 0 001.26-.88zM195 69.92l2.57-1.86.5.69-4.34 3.16-.31-.42 1.15-4.16-2.73 2-.5-.7 4.34-3.16.32.53z" fill="#50d6cc" fill-rule="evenodd"/><path d="M181.5 116a20.35 20.35 0 01.38-3.25.59.59 0 000-.4 1.06 1.06 0 01-.93-.45M179.32 130.36l.08-.54a1.75 1.75 0 00.11-.93 15.58 15.58 0 01.16-3.18c.15-.83 1.44-3.38 1.57-4.06a26.85 26.85 0 00.13-2.71 3.63 3.63 0 010-1M182.43 119.62a6.42 6.42 0 00.64 3c.29.45 1.56 2.91 1.84 3.22s.6.26.7.52c.56 1.32 0 2.62.76 2.81h0M184.19 111.53a3 3 0 01-1.56.73c-.2 0-.08.39-.17.86a29.66 29.66 0 000 3.64 5.1 5.1 0 010 .67" fill="none" stroke="#50d6cc" stroke-miterlimit="3.86" stroke-width=".46"/><path d="M185 115l.33 1.29.45 2.38.16 1.45v2.39l-.13.77-.16.71-.29 2.32a2.15 2.15 0 012 .35" fill="none" stroke="#50d6cc" stroke-miterlimit="3.86" stroke-width=".46"/><path d="M178.87 112.61l.06.22c-.09-.48 1.47 6.4 6.78 9.62l.26.17" fill="none" stroke="#50d6cc" stroke-miterlimit="3.86" stroke-width=".46"/><path d="M179.91 112.33c.56 1.77 2.23 6.2 6.05 8.51v.33M180.72 122.87a4.66 4.66 0 002.49 0M182.25 127.89c.19 1.34.43 2.94.5 3.19.13.45.26 2.71.26 2.71l.06 2.19.07 2.76V142a2 2 0 00-.83 1.66M177 121c-.33.5-1.95-.44-2 1-.06 1.07.14 2.29 1.18 2.42l.77-.5.2-.21" fill="none" stroke="#50d6cc" stroke-miterlimit="3.86" stroke-width=".46"/><path d="M176 120.53c-.45-7-.24-13.12.92-17.75-3.12 4.53-1.84 17.75-1.84 17.75z" fill="none" stroke="#50d6cc" stroke-miterlimit="3.86" stroke-width=".23" fill-rule="evenodd"/><path d="M177.83 120.43l-.23.61a2.38 2.38 0 01-.76.33M176.77 121.22a4.27 4.27 0 01.1 2.66M179.86 107.71v.59M180 108.15a1.72 1.72 0 00-.07.74c.08.23.22.83.25.93a7.13 7.13 0 00.21.87c.07.14.23.75.73.88a1.82 1.82 0 001.39-.17" fill="none" stroke="#50d6cc" stroke-miterlimit="3.86" stroke-width=".46"/><path d="M180.93 110.39s.24-.09.33 0a2.31 2.31 0 00.32.06 1.43 1.43 0 01.39 0 1.9 1.9 0 00.31 0M181.14 110.71a2 2 0 00.83 0M182 108.19a1.1 1.1 0 011 .13M181.28 108.16a1.15 1.15 0 01-.1.56c-.07.13-.09.36-.14.46a1 1 0 00-.09.36c0 .09 0 .09.14.16s.25 0 .36 0a.68.68 0 01.31 0c.09 0 .24 0 .24-.15a.54.54 0 00-.1-.3 2.54 2.54 0 00-.21-.15M180.29 108.23a1.08 1.08 0 011 0" fill="none" stroke="#50d6cc" stroke-miterlimit="3.86" stroke-width=".23"/><ellipse cx="180.74" cy="108.57" rx=".09" ry=".35" transform="rotate(-89 180.73 108.572)" fill="none" stroke="#50d6cc" stroke-miterlimit="3.86" stroke-width=".23"/><path d="M181 111.55h0a1.82 1.82 0 001.39-.17M179.16 106.3a8.39 8.39 0 01.44 1c.08.19 0 .53.34.37 1.75-.86 5.51.63 4.7.57M183 132.29a3.18 3.18 0 003 0M179.67 132.48a3.77 3.77 0 003.12-.09" fill="none" stroke="#50d6cc" stroke-miterlimit="3.86" stroke-width=".46"/><ellipse cx="182.42" cy="108.62" rx=".09" ry=".36" transform="rotate(-84 182.407 108.615)" fill="none" stroke="#50d6cc" stroke-miterlimit="3.86" stroke-width=".23"/><path d="M180.4 123.76a5.77 5.77 0 003.27 0" fill="none" stroke="#50d6cc" stroke-miterlimit="3.86" stroke-width=".46"/><path d="M192.24 142H205v1.72h-12.76z" fill="none" stroke="#50d6cc" stroke-miterlimit="3.86" stroke-width=".69" fill-rule="evenodd"/><path d="M57.24 221.35h491.81v109.22H57.24z" fill="none" stroke="#50d6cc" stroke-linecap="round" stroke-linejoin="round"/><path fill="none" stroke="#a3a3a3" stroke-linecap="round" stroke-linejoin="round" stroke-dasharray="5 5" d="M30.14 2.91H3.33v152.26M48.55 330.57H3.33V187.98"/><path d="M4.17 175.46H3v-9.14L.86 167l-.28-.66 2.77-1.45h.82z"/><path fill="none" stroke="#a3a3a3" stroke-linecap="round" stroke-linejoin="round" stroke-dasharray="5 5" d="M50.45 2.91H30.14v92.08M48.55 221.35H30.14V127.8"/><path d="M17.2 115.46a1 1 0 111-1 1 1 0 01-1 1zM28.84 105.53l-.82.9c-.15-.11-.15-.27-.26-.38a1.86 1.86 0 00-1.23-.44c-.76 0-2.51.47-2.57 4.1a2.59 2.59 0 012.24-1.28c1.5 0 2.91 1.26 2.91 3.47s-1.42 3.54-3 3.54a3 3 0 01-2.51-1.4 6.52 6.52 0 01-.8-3.6 10.48 10.48 0 01.45-3.26 3.55 3.55 0 013.29-2.63 3.31 3.31 0 012.3.98zM24 110.89c-.14 2 .82 3.5 2.11 3.5.9 0 1.82-.77 1.82-2.43 0-1.83-1-2.49-1.86-2.49a2.52 2.52 0 00-2.07 1.42zM37.34 105.53l-.82.9c-.15-.11-.15-.27-.26-.38a1.86 1.86 0 00-1.23-.44c-.76 0-2.51.47-2.57 4.1a2.59 2.59 0 012.24-1.28c1.5 0 2.91 1.26 2.91 3.47s-1.42 3.54-3 3.54a3 3 0 01-2.51-1.4 6.52 6.52 0 01-.8-3.6 10.48 10.48 0 01.45-3.26 3.55 3.55 0 013.25-2.63 3.31 3.31 0 012.34.98zm-4.82 5.36c-.14 2 .82 3.5 2.11 3.5.9 0 1.82-.77 1.82-2.43 0-1.83-1-2.49-1.86-2.49a2.52 2.52 0 00-2.07 1.42zM45.84 105.53l-.82.9c-.15-.11-.15-.27-.26-.38a1.86 1.86 0 00-1.23-.44c-.76 0-2.51.47-2.57 4.1a2.59 2.59 0 012.24-1.28c1.5 0 2.91 1.26 2.91 3.47s-1.42 3.54-3 3.54a3 3 0 01-2.51-1.4 6.52 6.52 0 01-.8-3.6 10.48 10.48 0 01.45-3.26 3.55 3.55 0 013.29-2.63 3.31 3.31 0 012.3.98zM41 110.89c-.14 2 .82 3.5 2.11 3.5.9 0 1.82-.77 1.82-2.43 0-1.83-1-2.49-1.86-2.49a2.52 2.52 0 00-2.07 1.42z"/><path fill="none" stroke="#a3a3a3" stroke-linecap="round" stroke-linejoin="round" stroke-dasharray="5 5" d="M549.05 341.01v15.02H394.98M57.24 341.01v15.02h172.35"/><path d="M245.25 361.16h-1.19V352l-2.13.63-.28-.66 2.77-1.45h.83zM252.71 361.34a1 1 0 111-1 1 1 0 01-1 1zM264.33 350.55v1.08H260l-.16 3.05a3.75 3.75 0 011.72-.41 3.19 3.19 0 013.21 3.53 3.26 3.26 0 01-3.35 3.54 3.75 3.75 0 01-3.14-1.63l1.06-.79c.14.1.06.27.12.4a2.56 2.56 0 001.95 1 2.56 2.56 0 000-5.05 2.55 2.55 0 00-2 1l-.77-.31.37-5.39zM280.57 349.85l1 .51-5.34 11.51-1-.5zM296.25 361.16h-1.19V352l-2.13.63-.28-.66 2.77-1.45h.83zM303.71 361.34a1 1 0 111-1 1 1 0 01-1 1zM315.36 351.41l-.82.91c-.16-.12-.16-.28-.26-.39a1.93 1.93 0 00-1.24-.44c-.76 0-2.5.47-2.57 4.1a2.61 2.61 0 012.25-1.28c1.5 0 2.9 1.27 2.9 3.47s-1.41 3.54-3 3.54a3 3 0 01-2.5-1.4 6.52 6.52 0 01-.8-3.6 10.09 10.09 0 01.45-3.25 3.52 3.52 0 013.29-2.63 3.3 3.3 0 012.3.97zm-4.83 5.37c-.14 2 .83 3.49 2.12 3.49.9 0 1.82-.77 1.82-2.43 0-1.83-1-2.49-1.86-2.49a2.54 2.54 0 00-2.08 1.43zM331.57 349.85l1 .51-5.34 11.51-1-.5zM347.25 361.16h-1.19V352l-2.13.63-.28-.66 2.77-1.45h.83zM354.71 361.34a1 1 0 111-1 1 1 0 01-1 1zM366.36 351.41l-.82.91c-.16-.12-.16-.28-.26-.39a1.93 1.93 0 00-1.24-.44c-.76 0-2.5.47-2.57 4.1a2.61 2.61 0 012.25-1.28c1.5 0 2.9 1.27 2.9 3.47s-1.41 3.54-3 3.54a3 3 0 01-2.5-1.4 6.52 6.52 0 01-.8-3.6 10.09 10.09 0 01.45-3.25 3.52 3.52 0 013.29-2.63 3.3 3.3 0 012.3.97zm-4.83 5.37c-.14 2 .83 3.49 2.12 3.49.9 0 1.82-.77 1.82-2.43 0-1.83-1-2.49-1.86-2.49a2.54 2.54 0 00-2.08 1.43zM374.86 351.41l-.82.91c-.16-.12-.16-.28-.26-.39a1.93 1.93 0 00-1.24-.44c-.76 0-2.5.47-2.57 4.1a2.61 2.61 0 012.25-1.28c1.5 0 2.9 1.27 2.9 3.47s-1.41 3.54-3 3.54a3 3 0 01-2.5-1.4 6.52 6.52 0 01-.8-3.6 10.09 10.09 0 01.45-3.25 3.52 3.52 0 013.29-2.63 3.3 3.3 0 012.3.97zm-4.86 5.37c-.14 2 .83 3.49 2.12 3.49.9 0 1.82-.77 1.82-2.43 0-1.83-1-2.49-1.86-2.49a2.54 2.54 0 00-2.08 1.43zM383.36 351.41l-.82.91c-.16-.12-.16-.28-.26-.39a1.93 1.93 0 00-1.24-.44c-.76 0-2.5.47-2.57 4.1a2.61 2.61 0 012.25-1.28c1.5 0 2.9 1.27 2.9 3.47s-1.41 3.54-3 3.54a3 3 0 01-2.5-1.4 6.52 6.52 0 01-.8-3.6 10.09 10.09 0 01.45-3.25 3.52 3.52 0 013.29-2.63 3.3 3.3 0 012.3.97zm-4.83 5.37c-.14 2 .83 3.49 2.12 3.49.9 0 1.82-.77 1.82-2.43 0-1.83-1-2.49-1.86-2.49a2.54 2.54 0 00-2.08 1.43z"/><path fill="none" stroke="#a3a3a3" stroke-linecap="round" stroke-linejoin="round" stroke-dasharray="5 5" d="M558.69 3.17h24.2v41.92M558.69 112.18h24.2V71.53"/><path d="M570 64.26a1 1 0 110-2 1 1 0 110 2zM579.79 58.42a2.84 2.84 0 011.82 2.73 3.07 3.07 0 01-3.26 3.09 3.7 3.7 0 01-2.78-1.2l.89-1.07c.15.15.08.32.22.48a2.33 2.33 0 001.66.72 2.13 2.13 0 002.13-2.17c0-1.26-1.05-2-2.49-2a4.89 4.89 0 00-.54 0v-1a4.1 4.1 0 001.68-.27 1.86 1.86 0 001.13-1.66 1.72 1.72 0 00-1.85-1.65 2.51 2.51 0 00-1.82.81l-.66-.74a3.47 3.47 0 012.54-1.13 2.79 2.79 0 012.92 2.68 2.46 2.46 0 01-1.59 2.38zM588.29 58.42a2.84 2.84 0 011.82 2.73 3.07 3.07 0 01-3.26 3.09 3.7 3.7 0 01-2.78-1.2L585 62c.15.15.08.32.22.48a2.33 2.33 0 001.66.72A2.13 2.13 0 00589 61c0-1.26-1.05-2-2.49-2a4.89 4.89 0 00-.54 0v-1a4.1 4.1 0 001.68-.27 1.86 1.86 0 001.13-1.66 1.72 1.72 0 00-1.85-1.65 2.51 2.51 0 00-1.82.81l-.66-.74a3.47 3.47 0 012.55-1.05 2.79 2.79 0 012.92 2.68 2.46 2.46 0 01-1.63 2.3zM596.79 58.42a2.84 2.84 0 011.82 2.73 3.07 3.07 0 01-3.26 3.09 3.7 3.7 0 01-2.78-1.2l.89-1.07c.15.15.08.32.22.48a2.33 2.33 0 001.66.72 2.13 2.13 0 002.13-2.17c0-1.26-1.05-2-2.49-2a4.89 4.89 0 00-.54 0v-1a4.1 4.1 0 001.68-.27 1.86 1.86 0 001.13-1.66 1.72 1.72 0 00-1.85-1.65 2.51 2.51 0 00-1.82.81l-.66-.74a3.47 3.47 0 012.54-1.13 2.79 2.79 0 012.92 2.68 2.46 2.46 0 01-1.59 2.38z"/><path fill="none" stroke="#a3a3a3" stroke-linecap="round" stroke-linejoin="round" stroke-dasharray="5 5" d="M582.89 112.18v39.91M558.69 221.19h24.2v-41.16"/><path d="M570 169.23a1 1 0 111-1 1 1 0 01-1 1zM579.79 163.39a2.84 2.84 0 011.82 2.73 3.07 3.07 0 01-3.26 3.09 3.7 3.7 0 01-2.78-1.2l.89-1.07c.15.15.08.32.22.48a2.33 2.33 0 001.66.72 2.13 2.13 0 002.13-2.16c0-1.27-1.05-2-2.49-2a4.89 4.89 0 00-.54 0v-.95a4.1 4.1 0 001.68-.27 1.86 1.86 0 001.13-1.67 1.73 1.73 0 00-1.85-1.65 2.52 2.52 0 00-1.82.82l-.66-.74a3.47 3.47 0 012.54-1.13 2.79 2.79 0 012.92 2.68 2.46 2.46 0 01-1.59 2.32zM588.29 163.39a2.84 2.84 0 011.82 2.73 3.07 3.07 0 01-3.26 3.09 3.7 3.7 0 01-2.78-1.2l.89-1.07c.15.15.08.32.22.48a2.33 2.33 0 001.66.72A2.13 2.13 0 00589 166c0-1.27-1.05-2-2.49-2a4.89 4.89 0 00-.54 0v-.95a4.1 4.1 0 001.68-.27 1.86 1.86 0 001.13-1.67 1.73 1.73 0 00-1.85-1.65 2.52 2.52 0 00-1.82.82l-.66-.74a3.47 3.47 0 012.54-1.13 2.79 2.79 0 012.92 2.68 2.46 2.46 0 01-1.62 2.3zM596.79 163.39a2.84 2.84 0 011.82 2.73 3.07 3.07 0 01-3.26 3.09 3.7 3.7 0 01-2.78-1.2l.89-1.07c.15.15.08.32.22.48a2.33 2.33 0 001.66.72 2.13 2.13 0 002.13-2.16c0-1.27-1.05-2-2.49-2a4.89 4.89 0 00-.54 0v-.95a4.1 4.1 0 001.68-.27 1.86 1.86 0 001.13-1.67 1.73 1.73 0 00-1.85-1.65 2.52 2.52 0 00-1.82.82l-.66-.74a3.47 3.47 0 012.54-1.13 2.79 2.79 0 012.92 2.68 2.46 2.46 0 01-1.59 2.32z"/><path fill="none" stroke="#a3a3a3" stroke-linecap="round" stroke-linejoin="round" stroke-dasharray="5 5" d="M582.89 221.19v39.41M558.69 330.2h24.2v-41.16"/><path d="M570 278.28a1 1 0 110-2 1 1 0 110 2zM579.79 272.44a2.84 2.84 0 011.82 2.73 3.07 3.07 0 01-3.26 3.09 3.7 3.7 0 01-2.78-1.2l.89-1.07c.15.15.08.32.22.48a2.33 2.33 0 001.66.72 2.13 2.13 0 002.13-2.16c0-1.27-1.05-2-2.49-2a4.9 4.9 0 00-.54 0v-.95a4.1 4.1 0 001.68-.27 1.86 1.86 0 001.13-1.67 1.73 1.73 0 00-1.85-1.65 2.52 2.52 0 00-1.82.82l-.66-.74a3.47 3.47 0 012.54-1.13 2.79 2.79 0 012.92 2.68 2.46 2.46 0 01-1.59 2.32zM588.29 272.44a2.84 2.84 0 011.82 2.73 3.07 3.07 0 01-3.26 3.09 3.7 3.7 0 01-2.78-1.2L585 276c.15.15.08.32.22.48a2.33 2.33 0 001.66.72A2.13 2.13 0 00589 275c0-1.27-1.05-2-2.49-2a4.9 4.9 0 00-.54 0v-.95a4.1 4.1 0 001.68-.27 1.86 1.86 0 001.13-1.67 1.73 1.73 0 00-1.85-1.65 2.52 2.52 0 00-1.82.82l-.66-.74a3.47 3.47 0 012.54-1.13 2.79 2.79 0 012.92 2.68 2.46 2.46 0 01-1.62 2.35zM596.79 272.44a2.84 2.84 0 011.82 2.73 3.07 3.07 0 01-3.26 3.09 3.7 3.7 0 01-2.78-1.2l.89-1.07c.15.15.08.32.22.48a2.33 2.33 0 001.66.72 2.13 2.13 0 002.13-2.16c0-1.27-1.05-2-2.49-2a4.9 4.9 0 00-.54 0v-.95a4.1 4.1 0 001.68-.27 1.86 1.86 0 001.13-1.67 1.73 1.73 0 00-1.85-1.65 2.52 2.52 0 00-1.82.82l-.66-.74a3.47 3.47 0 012.54-1.13 2.79 2.79 0 012.92 2.68 2.46 2.46 0 01-1.59 2.32z"/></svg>