<svg xmlns="http://www.w3.org/2000/svg" width="300" height="300" viewBox="0 0 300 300"><path d="M148.32 182.14c11.94 1.46 11.94-9.51 16.42-9.51s6.71 8.77 14.42 7.07c9.22-2 8.45-10 13.92-10 3.74 0 5 5.61 11.45 6.09s8-6.34 11.93-6.34c3.49 0 4.73 2.2 11.69 8.29 3.89 2.72 9.7 2.93 16.42-3.66 4-3.94 9.2-2.43 11.19.73s2.91 7.78 8 9.76c3.73 1.46 7-2.44 11.44-3.17s11.52 8.35 16.41 3.9c3.48-3.17 6.21-6.58 1.74-12.43l-.62-.65a198.09 198.09 0 00-288.24 0l-.61.65c-4.48 5.85-1.75 9.26 1.73 12.43 4.89 4.45 11.94-4.63 16.42-3.9s7.71 4.63 11.44 3.17c5-2 6-6.59 8-9.76s7.17-4.67 11.18-.73c6.72 6.59 12.53 6.38 16.42 3.66 7-6.09 8.2-8.29 11.69-8.29 4 0 5.49 6.83 11.93 6.34s7.71-6.09 11.44-6.09c5.48 0 4.71 7.94 13.93 10 7.71 1.7 10-7.07 14.43-7.07s4.47 11 16.41 9.51h-.5" fill="none" stroke="#000" stroke-linecap="round" stroke-linejoin="round" stroke-width="2"/><path d="M140.82 174.42l3-9-7.82-5.51h9.63l3-9 3 9h9.62l-7.78 5.54 3 9-7.78-5.54-7.78 5.54M143.09 149.59l2.06-6.21-5.39-3.84h6.67l2.06-6.22 2.06 6.22h6.66l-5.39 3.84 2.06 6.22-5.39-3.85-5.4 3.84M170.49 172.37l3.33-5.66-4.47-4.85 6.52 1.36 3.34-5.66.7 6.5 6.51 1.35-6.08 2.67.7 6.49-4.47-4.86-6.08 2.66M164.67 150.54l2.93-5.86-4.78-4.55 6.59.92 2.93-5.86 1.15 6.44 6.6.91-5.89 3.06 1.14 6.44-4.78-4.55-5.9 3M186.17 154.27l3.75-5.4-4.09-5.16 6.4 1.82 3.75-5.41.21 6.54 6.4 1.82-6.27 2.22.2 6.52-4.08-5.16-6.27 2.21M206.66 161.11l4.49-4.84-3.3-5.68 6.07 2.7 4.49-4.83-.74 6.49 6.08 2.69-6.53 1.36-.73 6.5-3.3-5.68-6.53 1.33M226.26 170.53l5.13-4.17-2.45-6.07 5.63 3.5 5.13-4.16-1.65 6.37 5.62 3.5-6.65.41-1.66 6.33-2.45-6.08-6.65.41M154.63 129.28l2.47-6.07L152 119l6.65.42 2.47-6.06 1.64 6.32 6.66.43-5.64 3.49 1.63 6.34-5.12-4.19-5.64 3.49M178.15 131.34l3.29-5.69-4.5-4.82 6.53 1.31 3.29-5.69.75 6.51 6.53 1.3L188 127l.75 6.5-4.5-4.83-6.07 2.71M201.07 137l4.05-5.19-3.79-5.38 6.29 2.17 4-5.19-.16 6.52 6.29 2.17-6.34 1.9-.16 6.54-3.79-5.38-6.39 1.84M223.13 145.52l4.73-4.61-3-5.83 5.93 3 4.73-4.6-1.06 6.45 5.93 3-6.58 1-1.06 6.45-3-5.83-6.59 1M244 156.75l5.32-3.94-2.18-6.17 5.46 3.75 5.33-3.94-2 6.25 5.47 3.74-6.67.12-1.94 6.25-2.18-6.17-6.66.11M262.72 170.88l5.81-3.19-1.3-6.4 4.9 4.43 5.81-3.2-2.79 5.94 4.9 4.44-6.62-.77-2.8 5.93-1.3-6.41-6.61-.77M126.6 172.19l-3.33-5.66 4.46-4.86-6.52 1.33-3.33-5.65-.7 6.49-6.52 1.35 6.09 2.67-.7 6.5 4.46-4.86 6.09 2.66M132.43 150.36l-2.94-5.87 4.79-4.55-6.6.92-2.93-5.86-1.15 6.43-6.59.92 5.89 3.06-1.15 6.43 4.79-4.54 5.89 3.06M110.88 154.16l-3.75-5.4 4.08-5.16-6.4 1.81-3.75-5.41-.2 6.53-6.4 1.82 6.27 2.21-.21 6.53 4.08-5.09 6.28 2.21M90.3 160.86L85.81 156l3.3-5.68L83 153l-4.48-4.83.73 6.5-6.07 2.69 6.52 1.32.74 6.5 3.3-5.68 6.53 1.32M70.88 170.33l-5.14-4.17 2.46-6.08-5.63 3.5-5.14-4.16 1.66 6.33-5.63 3.5 6.66.41 1.66 6.34 2.45-6.08 6.65.4M142.73 129.14l-2.48-6.07 5.13-4.17-6.65.42-2.48-6.06-1.63 6.33-6.62.41 5.64 3.48-1.64 6.36 5.13-4.18 5.64 3.48M119 131.34l-3.28-5.69 4.49-4.82-6.53 1.31-3.29-5.69-.75 6.51-6.53 1.3 6.07 2.7-.74 6.5 4.49-4.83 6.07 2.71M96 136.85l-4-5.2 3.79-5.37-6.28 2.16-4-5.19.16 6.53-6.4 2.22 6.38 1.87.16 6.53 3.79-5.4 6.4 1.85M73.72 145.46l-4.72-4.6 3-5.86-5.93 3-4.73-4.61 1.06 6.46-5.93 3 6.59 1 1.06 6.45 3-5.83 6.59 1M53.39 156.88L48.07 153l2.17-6.18-5.46 3.74-5.32-3.94 1.94 6.25-5.46 3.75 6.66.12 1.95 6.24 2.17-6.17 6.67.12M34.43 171.09l-5.82-3.19 1.31-6.41-4.92 4.43-5.81-3.18 2.81 5.93-4.9 4.44 6.62-.77 2.79 5.93 1.3-6.41 6.62-.77" fill="none" stroke="#000" stroke-linecap="round" stroke-linejoin="round" stroke-width="2"/></svg>