<svg xmlns="http://www.w3.org/2000/svg" width="300" height="300"><path d="M291.92 210.78c.15-.37-2.05-2.08-2.35-2.4a11.91 11.91 0 01-2.16-3.21 21.84 21.84 0 01-2.12-7.62c-.17-2.12 0-4-1.2-5.88a15.21 15.21 0 00-4.71-4.17c-7.42-4.48-14.86-9.34-20.1-16.42a38.44 38.44 0 01-2.2-3.29c-.44-.74-.73-2-1.62-2.07s-2.27.67-3 1a37.35 37.35 0 00-3.52 1.62 15.11 15.11 0 00-4.74 4.12c-.47.59-1.31 1.2-1.2 1.94s1.25 1.86 1.72 2.47c5.1 6.6 13.2 10.62 21 13 3 .93 6 1.66 9 2.4a6.73 6.73 0 013.61 1.63c1.17 1.26 1.38 3.45 2 5a23.84 23.84 0 004.81 8.19c.58.66 6.2 5.21 6.78 3.69zM3.82 209.53c5.57-1.72 8.86-7.12 10.66-12.32.76-2.21.85-4.47 3.24-5.46a49 49 0 016.91-1.75c8.06-2 16.14-5.29 22.43-10.85a26.45 26.45 0 002.75-2.85c.51-.63 1.87-1.84 2-2.71.17-1.21-1.87-3.12-2.68-3.93a18 18 0 00-5.94-3.66c-1-.43-3.56-1.9-4.52-1.18s-1.63 2.76-2.3 3.75a35.78 35.78 0 01-2.55 3.33 58.66 58.66 0 01-4.69 4.64 62.12 62.12 0 01-10.77 7.9c-2.52 1.45-4.94 2.7-6.88 4.91s-1.89 4-2.12 6.79a21 21 0 01-3 9.3 11.29 11.29 0 01-2.85 3.11c-.86.7-1.03 1.45.31.98z" fill="none" stroke="#000" stroke-width="1.4"/><path d="M238.33 176.13c2.89-.61 4.55-2.95 6.36-5a14.84 14.84 0 014.78-3.56c5.35-2.62 11-3.48 16.67-5.12 2.45-.71-.93-1.18-1.92-1.69a20.35 20.35 0 01-5.77-4.84c-3.48-3.93-6.21-8.47-9.07-12.86a121.66 121.66 0 00-43.16-39.84C189.63 94 170.65 89.5 151.77 89c-19.79-.56-39.35 2.9-57.32 11.32a119.13 119.13 0 00-43 34.17c-2.84 3.67-5.36 7.56-8.08 11.31-2.94 4-5.69 8.42-9.58 11.64a15.15 15.15 0 01-2.79 1.88c-.4.21-3.41 1-3.53 1.29-.2.51.35.5.9.67 4.79 1.45 9.73 2.16 14.4 4.05A20 20 0 0149 169c1.91 1.78 3.15 4.22 5.53 5.47C60 177.39 65 172.89 68 168.73c2.75-3.74 4.6-8.12 7.36-11.9a82.36 82.36 0 018.38-9.89 87.79 87.79 0 0152.79-25.06c18.51-2 38 1 54.44 10a82.18 82.18 0 0119.58 14.84 97.5 97.5 0 018.63 10.28c2.78 3.78 4.68 8 7.23 11.95s6.81 8.25 11.92 7.18z" fill="none" stroke="#000" stroke-width="1.4"/><path d="M82.42 134.48a6.59 6.59 0 00-.94-1.37 6 6 0 00-3-1.48c-1.32-.2-1.27-.16-1.42-1.06a4.67 4.67 0 00-2.16-3.36 3.44 3.44 0 00-2.4-.64c-1.47.11-2.83.85-4.61 2.52-3.83 3.58-4.83 4.58-4.83 4.8a8.6 8.6 0 001.52 1.79l4.35 4.5 4.37 4.51a13.69 13.69 0 001.7 1.58 71.57 71.57 0 006-5.65 5.44 5.44 0 001.86-4.39 3.5 3.5 0 00-.44-1.75zm-12.06 1.59c-.22 0-.55-.25-1.41-1.12a4.7 4.7 0 01-1.12-1.35 18.86 18.86 0 013.17-3.31 2 2 0 012.82.49 1.78 1.78 0 01.14 1.85 14.53 14.53 0 01-1.75 1.92c-1.21 1.17-1.62 1.52-1.85 1.52zm9 1.81A23.57 23.57 0 0176 141.3c-.42.26-.47.26-.94-.06a14.86 14.86 0 01-2.42-2.63c0-.16.42-.66 1.55-1.78 2.06-2 2.29-2.19 3-2.19a2.44 2.44 0 01.91.16 4.43 4.43 0 011.35 1.45 2.21 2.21 0 01-.11 1.63zM229.91 131a7.93 7.93 0 00-1.77 1.72c-.3.36-2.23 2.4-5.39 5.67-.45.48-.75.6-.84.34s1-5.13 1.8-8.45c.49-2 .89-3.82.89-4.1a8.39 8.39 0 00-2.51-2.38c-.17 0-.71.49-1.73 1.58-4.25 4.51-5.07 5.39-7.06 7.54a35.24 35.24 0 00-3.11 3.45 22.74 22.74 0 002.37 2.29c.18.1.32 0 1-.75.43-.47 1.54-1.64 2.45-2.59s2.18-2.3 2.81-3c1.32-1.46 1.53-1.66 1.74-1.66s.25.09-.56 3.8c-.09.42-.3 1.26-.45 1.87s-.35 1.44-.43 1.84-.25 1.14-.38 1.63-.38 1.55-.57 2.35c-.41 1.73-.48 1.52 1 2.88a4.77 4.77 0 001.21.92 7.58 7.58 0 001.58-1.47c.75-.81 2.11-2.24 3-3.19s2.29-2.39 3-3.21 2-2.18 2.84-3a15.74 15.74 0 001.47-1.66 14.21 14.21 0 00-2.36-2.42zM95.47 124.39c-1.69-1.21-3-2.16-4.83-3.56-.82-.61-2-1.46-2.59-1.89s-1.36-1-1.66-1.18l-1.39-1a3.87 3.87 0 00-1-.61 25.23 25.23 0 00-3.15 2.1c-.21.22-.21.23.05 1.19.34 1.26.66 2.42 1.14 4.13.7 2.44 1.54 5.47 1.63 5.82 0 .18.29 1 .54 1.88.78 2.7 1.13 3.93 1.13 4a1.51 1.51 0 00.1.38c.14.35.39.36.85 0l1.17-.81c1.23-.85 1.18-.7.72-2.37s-.5-2-.16-2.29 4.73-3.18 4.89-3.18a5.44 5.44 0 011 .63 8.76 8.76 0 002 1.26 16.73 16.73 0 002.78-1.89c.1-.26.2-.18-3.22-2.61zm-6 1.11l-1.12.81a9.36 9.36 0 01-.84.58c-.65.4-.71.34-1.27-1.4-1.09-3.39-1.27-4.22-.89-4.19a13.52 13.52 0 011.7 1.11l2.29 1.59c.96.73.98.9.13 1.5zM215.5 119.39a6.55 6.55 0 00-2.43-2.41l-2.86-2c-.93-.65-1.83-1.26-2-1.35a5.57 5.57 0 01-.57-.37c-1.05-.77-1.54-1-1.74-.92a19.2 19.2 0 00-2.14 3c-.3.49-1 1.54-1.55 2.33s-1.73 2.54-2.63 3.88-2 3-2.44 3.6a4.3 4.3 0 00-.78 1.38 10.31 10.31 0 002.65 1.94c.24 0 .56-.41 2.11-2.77 1.36-2.06 1.75-2.54 2-2.54a23.87 23.87 0 013.88 2.54 1.91 1.91 0 010 2.7c-1.59 2.21-1.93 2.81-2 3.56-.06.51 0 .53.44.93.27.22.93.68 1.47 1a11.1 11.1 0 001.05.62c.2 0 .33-.33.33-.82s.18-1 1.5-3c1-1.5 1.06-1.68 1.15-2.28a3.35 3.35 0 00-.07-1.28c-.2-.89-.14-1 .76-1.07a4.1 4.1 0 002.67-1.39 4.71 4.71 0 001.37-2.27 3.73 3.73 0 00-.17-3.01zm-4.65 3.78c-.9.46-1.57.36-2.67-.4-2.55-1.75-3.3-2.34-3.3-2.59a24.35 24.35 0 011.88-2.82c.23-.29.44-.45.61-.45a23.42 23.42 0 014.61 3.14 2.22 2.22 0 01-1.13 3.12zM101.84 115.08c-1.91-3.78-2.15-4.3-2.11-4.66a19.14 19.14 0 013.25-1.89c.56-.28.86-.48.86-.61a9.7 9.7 0 00-1.19-2.39c-.19-.07-.55.1-4.85 2.27-5.09 2.58-7.3 3.75-7.42 4s0 .44.44 1.24a4.89 4.89 0 00.73 1.15c.12.07.55-.08 1.44-.51a12.8 12.8 0 013.2-1.32.85.85 0 01.33.31c.18.28 3.45 6.72 4.86 9.55.51 1 1.05 2 1.2 2.25s.31.36.36.36.72-.31 1.49-.68c1.15-.55 1.4-.72 1.4-.91s-.22-.73-3.99-8.16zM197.8 108.42a10.54 10.54 0 00-6.57-3.29 6 6 0 00-3.47.7 10.21 10.21 0 00-5.16 6.17 9.64 9.64 0 00-.51 4 6.47 6.47 0 002.29 5.06 9.09 9.09 0 004.26 2.34 8.81 8.81 0 004.25-.15 10 10 0 005.36-5.13c1.58-3.22 1.38-7.41-.45-9.7zm-1.8 5.14c-.3 3.06-2.14 5.77-4.41 6.47a4.94 4.94 0 01-3.32-.22A5.38 5.38 0 01186 118a6.71 6.71 0 01.25-5.87 8.17 8.17 0 013-3.38 3.13 3.13 0 011.77-.27 3.23 3.23 0 012 .4 4.69 4.69 0 012.98 4.68zM118.07 103a7.93 7.93 0 001.38-.55c.13-.12.1-.3-.22-1.27-.52-1.54-.49-1.51-1.22-1.29-.33.09-1 .31-1.43.47s-3 1.05-5.76 2-5 1.73-5.09 1.81-.1.52.39 1.82.28 1.11 1.89.59c.78-.25 1.79-.59 2.24-.75.62-.22.88-.27 1.06-.19s.19 0 3.61 10c.54 1.58 1 3 1.1 3.07a.4.4 0 00.31.2 15.88 15.88 0 003-1c.1-.11.06-.35-.16-1-.16-.44-.54-1.53-.83-2.42s-.93-2.72-1.39-4.09c-1.74-5.11-2-6-2-6.16a12 12 0 013.12-1.24zM180.84 106.77c.24-.5.27-.69.27-2s0-1.51-.32-2c-.78-1.33-2.26-2.23-4.77-2.89s-3.5-.93-4.88-1.27l-1.5-.39a.35.35 0 00-.35.13c-.15.17-2.25 8.28-3.37 13-.2.88-.5 2-.65 2.55a10.78 10.78 0 00-.28 1.08c0 .21.33.31 3.21 1l3.11.78 1.33.33a7.84 7.84 0 002.27.18 4.08 4.08 0 002.08-.33 6.2 6.2 0 002.3-2.14 5.36 5.36 0 00.5-1.4 6.06 6.06 0 00-.66-4l-.13-.4.81-.81a6.73 6.73 0 001.03-1.42zm-4.37 5.73a1.93 1.93 0 01-1.11 1.43 3.86 3.86 0 01-2.34 0c-3.1-.72-3.71-.92-3.71-1.22a27.9 27.9 0 01.95-3.68c.22-.33.42-.32 2.47.19 2.66.66 3 .76 3.33 1.12a2.17 2.17 0 01.41 2.16zm.38-5.92c-.75.38-1.53.3-4.38-.46-1.07-.28-1.45-.51-1.34-.8 0-.08.13-.5.22-.95s.22-1 .28-1.14.13-.47.17-.63c.09-.44.36-.66.71-.58a29.57 29.57 0 014.49 1.18 2 2 0 01-.15 3.38zM138 113c0-.26-.15-.8-.21-1.2a2.82 2.82 0 00-.23-.82 50.84 50.84 0 00-6.26 1c-.8.15-1.51.27-1.58.27-.29 0-.47-.62-.85-2.88-.22-1.31-.47-2.78-.55-3.27s-.19-1.09-.23-1.33-.26-1.51-.5-2.82-.45-2.68-.5-3c-.08-.71-.29-1-.65-.92-.12 0-.8.17-1.5.3a6.09 6.09 0 00-1.44.39c-.14.13-.11.4.21 2.12.2 1.08.46 2.56.58 3.3.21 1.36.35 2.17.81 4.65.14.79.47 2.66.73 4.15a28.49 28.49 0 00.58 2.86.34.34 0 00.19.13c.1 0 3.92-.73 4.54-.87.28-.07 1.25-.25 2.16-.41 4.34-.75 4.52-.78 4.66-1a.87.87 0 00.04-.65zM153.93 110.74c-.16-.16-.62-.17-4.62-.1s-4.46.06-4.6-.11a6 6 0 01-.18-2.11c0-1.83 0-1.93.21-2.08s.87-.16 3.79-.17c2 0 3.71 0 3.89-.1l.33-.09v-2.85l-.28-.08h-3.93c-3.25 0-3.68 0-3.84-.12a8.87 8.87 0 01-.16-3.4c.12-.28.13-.28 2.06-.35 1.07 0 3-.07 4.27-.08a8.73 8.73 0 002.47-.15 6.22 6.22 0 000-2.68c-.13-.19-.44-.2-6.25-.12-4.77.07-6.14.12-6.23.23a64.9 64.9 0 000 6.88c.06 3.7.13 7.51.14 8.47a5.1 5.1 0 00.18 1.9c.1.13.27.17.6.13s7.38-.16 10.38-.16a9.72 9.72 0 001.74-.09 3.41 3.41 0 00.18-1.33c.02-1.06 0-1.29-.15-1.44z"/><path d="M270.35 160.91c5.57-2.91.68-10.34-1.9-13.68-3.62-4.66-8.58-8.28-11.07-13.75a13.62 13.62 0 01-1.2-4.85c-.08-1.2 0-1.95-.85-.77-1.57 2.25-2.57 4.87-4 7.2-.71 1.16-1.49 2.29-2.29 3.4s-1.28 1.35-.44 2.65q2.5 3.84 5 7.65a45.14 45.14 0 007.32 9.07c2.25 1.94 6.34 4.69 9.43 3.08zM28.63 159.8c5.59-1.45 9.24-7.22 12.42-11.59 1.81-2.49 3.61-5 5.33-7.55.88-1.31.36-1.6-.46-2.77s-1.59-2.33-2.32-3.53-1.47-2.66-2.2-4c-.41-.74-1.21-3.07-2-3.46s-.48 1.17-.53 1.77a12.41 12.41 0 01-1.19 4.42c-2.35 5.15-7.16 8.64-10.78 12.84-2.18 2.54-4.72 5.9-5 9.38-.36 4.05 3.44 5.34 6.73 4.49z" fill="none" stroke="#000" stroke-width="1.4"/><path d="M259 131.71a29.17 29.17 0 0112.55-7.36c2.13-.65 5-.71 6.57-2.46.64-.73 1.08-1.63 1.68-2.39.46-.59 2.81-2.48 2.81-3.16 0-1.4-9-.08-10.46.15-4.61.73-9.56 2.13-12.89 5.61a8.76 8.76 0 00-2.58 7.1 7.23 7.23 0 00.73 3c.59.85.79.3 1.59-.49zM37.89 131.54c4.23-12.06-12-15.71-20.54-16.18-.63 0-4.47-.6-4.89 0s2.67 3.21 3.11 3.79c1.1 1.43 1.78 2.92 3.64 3.45 2.21.64 4.43 1.12 6.59 1.91a30.32 30.32 0 017.2 3.96 26 26 0 012.85 2.39c.68.68 1.52 2.14 2.04.68zM283.54 115.05c1.43-.57 1.39-1.65 1.62-3a6.43 6.43 0 011.57-3.47 10.3 10.3 0 013.27-2.39c.49-.23 3.56-.93 3.61-1.49.07-.82-6.79.11-7.6.35a9.79 9.79 0 00-6 4.38c-.53 1-2.36 4.86-1.31 5.8.4.35 1.75.1 2.18.09a7.75 7.75 0 002.66-.27z" fill="none" stroke="#000" stroke-width="1.4"/><path d="M16.54 114.58c.65-.65-.32-2.93-.57-3.69a9.4 9.4 0 00-2.85-4.37 12.86 12.86 0 00-6.07-2.66c-.75-.13-5.17-.89-5.55-.08-.14.32 3.7 1.71 4.11 1.93a8.33 8.33 0 014.26 4.48c.49 1.51 0 3.41 1.7 4.22.91.43 4.2.94 4.97.17z" fill="none" stroke="#000" stroke-width="1.4"/></svg>