<svg xmlns="http://www.w3.org/2000/svg" width="300" height="300" viewBox="0 0 300 300"><path d="M195.08 167.5c-7.6 9.25-11.4 6-19.55 3.54s-16.82-6.53-24.7-8.43-27.42-3.27-39.37-3.81c-11-.51-14.89-5-15.19-8.43.08 0 3.51-.91 10.67-.19s7.6.55 9-1.63a11.11 11.11 0 001-1.82 2.32 2.32 0 001-2.08c0-2.72-1.9-6.79-21.45-6.79-6.64 0-11.54-.23-15.28-.59L87 122.34c1.77-4.89-6.38-5.7-6.38-5.7-7.6 0-13.44.13-17.24-.83-7.16-1.79-12.76-2.44-23.61-1.9s-19.55.55-34.21-3.81c1.36 5.58 12.22 13.19 12.22 13.19L.7 131.19l4.89 1.22c14.66 4.36 23.35 4.36 34.21 3.81 8.28-.41 13.5-.13 18.69.82l-3.79 12.18c6.86 7.12 11.62 10.86 33.24 12.94l-4.16 5.26.9.18c7.78 10.7 12.12 14.14 30.23 14.51s26.42.18 40.36 6.52 20.32 8.57 31.36 5.31c0 0 .2.57 2.2-4.16 2.26-5.31 2.82-15.47 5-17.29s5.07-6.89 5.07-6.89l-3.8 1.9"/><path d="M245 142.93c2.35 1.08 4.89 1.81 12.49-.37s29.68-6 41.26-5.08c-4.52-4-16.47-10-16.47-10l12.13-10a27.32 27.32 0 01-7.42-.9c-12.85-3.63-25.16.54-36 5.08-2.15.89-3.92 1.57-5.4 2.08l-2.57-9s-4.41-3.23-14.89.28c-9.56 3.22-11.71 8.42-11.17 9.69s5.07 9.79 5.07 9.79l-.1.31a117.33 117.33 0 01-15.46 5.67c-17.92 5.45-21.9 8-37.83 19.6l4.16 10 8.69 2.72a11.35 11.35 0 004 .55l.22.14c9.06-6.2 14.6-8.66 28.38-12.85 17.92-5.44 26.78-10.7 24.79-15.78l-3.07-8.34s4-2.35 5.61-1.63l3.62 8"/><path d="M59.75 133.9l2.11-7.42c.31-1.82 3.14-2.94 11.1-1.78 5.5.8 9.88 1.68 12.37-.33l.11-.05c.33-3.54-4.65-3.19-4.65-3.19h-.14c-7.6 0-13.44.13-17.24-.83-7.16-1.79-12.76-2.45-23.62-1.9-9.95.5-16.94.83-29.51-2.51 2.44 3 8.72 7.57 8.72 7.57l-12.47 5.83c14.66 4.35 22.4 4.08 33.26 3.53 9-.45 14.35-.08 20 1.06M97.09 149.9a31.21 31.21 0 019.24.13c6.16.89 8.43.3 8.92-.49l-4 9.27s-15.66.18-14.94-8.71" fill="#fff"/><path d="M198.56 166.06l-3.25 4.65a16 16 0 01-3 3.14c-5.35 4.08-11.63 2.1-18.64.45-8.15-2.44-16.84-6.52-24.71-8.43s-27.42-3.26-39.36-3.81-15.48-5.71-15.21-9.25a3.89 3.89 0 01.23-1.1l2-3.58.3-.4c1.34-1.66 4.8-1.48 10.76-.62 3.8.53 6.38.61 8 .19l.13-.47c0-2.72-1.63-5.72-21.17-5.72s-24-1.9-28.38-3.8c-2.56-1.12-6.25-4.85-5.55-7.28l-4.4 14.35c7.42 7.81 11 11.79 33.62 14l-3.8 5.62c7.78 10.69 12.12 14.14 30.22 14.5s26.43.18 40.37 6.52c13.63 6.22 20.49 8.37 31.12 5.4l.71-.2" fill="#fff"/><path d="M62.27 128.58a13.64 13.64 0 005.9 5.46c2.89 1.27 5.84 2.53 13.27 3.24l4.25-11.55c-1.76 4.89-7.5 3.6-14.52 2.57M244 139.16c2.35 1.09 4.89 1.82 12.49-.36s24.13-6 35.71-5.11l-10.61-5.88 7.48-6.78c-12.85-3.63-25.16.54-36 5.08s-12.13 3.63-13.57 2l-2.9-5.62A4.26 4.26 0 01239 119c2.18-.9 2.54-1.09 2.54-1.09s-2.35-3.26-11.41 0-9.59 7.44-9.41 8.17a14.85 14.85 0 003.62-.91c1.81-.73 6.16-3.26 7.43-.18a15.06 15.06 0 011.26 3.72c2 5.07-7.06 10.06-25 15.5s-21.54 7.62-37.47 19.23l2.65 6.76 8.19 2.71c11.33-8.05 16.42-10.58 31.87-15.27 17.92-5.44 26.79-10.71 24.8-15.79l-2.9-8s3.26-2.89 5.25-2.17l3.62 7.44" fill="#fff"/><path d="M65.68 144.37a2.34 2.34 0 00.38 3.49 1.85 1.85 0 00.88.24l-.19-2 1.45.77.11 1.06a3.1 3.1 0 001.43-1.13 2.46 2.46 0 00-.34-3.52c-1.29-.82-2.87-.07-3.72 1.09l-1.3-1a4.45 4.45 0 015.93-1.4 3.89 3.89 0 01.78 5.7 5.37 5.37 0 01-2.59 1.92l.13 1.7-1.42-.73-.06-.86a3.68 3.68 0 01-2-.62c-2-1.26-2.17-3.78-.76-5.71l1.3 1M76.86 144.83l1.64.16-1.29 4.33c-.28 1-.59 2.31.8 2.44s1.89-1.2 2.18-2.16l1.29-4.32 1.64.16-1.38 4.63c-.57 1.88-1.86 3.22-4.12 3s-2.7-1.73-2.14-3.62l1.38-4.63M87.5 153.39h-1.67l1.67-7.77h1.67l-1.67 7.77M94 168.82l-1.31-.91 3.89-5.58-1.35-1 .79-1.14 4 2.8-.79 1.14-1.35-.94-3.88 5.63M104.71 167.25l-.74 1.39.2.05c.86.26 1.59.22 2-.67s0-1.25-.88-1.51l-.21-.07-.42.81-1.57-.44 1-2 2.11.62c1.57.49 2.32 1.45 1.5 3a2.75 2.75 0 01-2.7 1.51l.63 3.75-1.88-.57-.38-3.5-1.55 2.92-1.55-.48 2.8-5.26 1.57.43M114.34 170l-1 1.66 2 .15-.32-3-.67 1.16-1.37-.38 2.08-3.16 1.26.1 1.13 8.4-1.72-.12-.23-1.74-2.87-.22-1.1 1.64-1.7-.13 3.15-4.78 1.37.39M123.23 166.87l1.17.07 3.16 5.8 1.18-5.36 1.62.08-1.79 8.13-1.17-.06-3.15-5.8-1.19 5.41-1.62-.08 1.8-8.19M138.58 170a1.23 1.23 0 00-1.06-.76 1.19 1.19 0 00-1.25.78c-.36 1.34 3.06 1.11 2.33 3.77a3.15 3.15 0 01-3.44 2.45 2.4 2.4 0 01-2.12-1.8l1.31-.87a1.37 1.37 0 001.17 1.3 1.35 1.35 0 001.37-1c.22-.82-.5-1.13-1.08-1.44-.94-.53-1.58-1.12-1.25-2.35a2.88 2.88 0 015.07-1l-1 1M144.42 177.32l-1.56-.3 2.42-6.5-1.61-.31.49-1.33 4.78.93-.49 1.32-1.61-.31-2.42 6.5M151.92 170.84l1.48.59-1.69 4.26c-.37.94-.81 2.3.45 2.8s1.87-.79 2.24-1.73l1.68-4.27 1.48.59-1.79 4.56c-.74 1.86-2.08 3-4.12 2.15s-2.27-2.54-1.53-4.39l1.8-4.57M160.58 181.75l2.08.87-.53 1.28-3.56-1.48 3.13-7.57 1.47.61-2.59 6.29M167.38 185.89l-1.51-.54 2.76-7.72 1.5.53-2.75 7.73M174.17 187.62l-1.6-.31 1.87-6.45-1.65-.33.38-1.32 4.89 1-.38 1.31-1.64-.32-1.87 6.46M180.72 161.49a1.43 1.43 0 00-1.4 0 1 1 0 00-.42 1.3c.67 1.2 3.22-.9 4.57 1.51a2.59 2.59 0 01-1 3.76 2.89 2.89 0 01-3-.16l.41-1.39a1.66 1.66 0 001.86.32 1.1 1.1 0 00.35-1.55c-.42-.73-1.22-.56-1.9-.46-1.12.13-2.06 0-2.68-1.07a2.39 2.39 0 01.89-3.31 3.31 3.31 0 012.39-.3l-.11 1.34M183.43 157.9l1.41-.75 2.16 4c.47.88 1.22 2.1 2.42 1.46s.6-1.94.12-2.84l-2.15-4 1.4-.75 2.31 4.33c.94 1.77.9 3.5-1 4.53s-3.4.11-4.34-1.66l-2.3-4.33M196.3 153.39a1.49 1.49 0 00-1.39-.09 1 1 0 00-.52 1.27c.59 1.25 3.28-.66 4.44 1.84a2.59 2.59 0 01-1.24 3.68 2.91 2.91 0 01-3-.37l.5-1.35a1.72 1.72 0 001.85.45 1.09 1.09 0 00.45-1.52c-.36-.77-1.17-.65-1.85-.6-1.14 0-2.06-.12-2.6-1.26a2.39 2.39 0 011.12-3.24 3.37 3.37 0 012.42-.13l-.21 1.32M205.06 156.65l-1.48.58-2.5-6.32-1.53.6-.51-1.29 4.56-1.8.51 1.29-1.54.6 2.49 6.34M210.63 154.64l-1.51.52-2.64-7.76 1.51-.52 2.64 7.76M211.05 145.64l1.08-.38 6 4-1.83-5.26 1.49-.54 2.77 7.9-1.08.38-6-4 1.84 5.26-1.51.53-2.78-8M222.72 143l.73 1.66 2.32-1 .56 1.27-2.33 1 .89 2 2.41-1.05.56 1.27-3.87 1.7-3.29-7.51 3.88-1.7.56 1.27-2.42 1.09M233.88 144.74l-1.39.79-2.49-6.34-1.44.81-.68-1.2 4.26-2.42.69 1.21-1.44.82 2.53 6.33"/><path d="M8.81 115.57c12.65 3.39 20.8 3.36 30.78 2.84 10.86-.53 16.46.12 23.63 1.91 3.79 1 9.63.82 17.23.82M5.39 129c14.66 4.34 23.34 4.34 34.2 3.81 9-.47 13.71-.45 19.4.72m21.46-16.92s8.15.81 6.38 5.72-7 3.74-14 2.71c-18.6-2.71-9.23 7.08-4.88 9s8.82 3.81 28.37 3.81 21.44 4.08 21.44 6.8-2.71 3.53-10.32 2.45-11.1-1.1-11.37 2.46 3.25 8.71 15.2 9.26 31.49 1.9 39.36 3.81 16.56 6 24.71 8.43 11.94 5.71 19.54-3.54M80.14 121.14s5.21.24 5.21 3.43m10.54 25.64c1.77-.76 4.93-.5 9.68.17 5.09.73 8 .61 9.35-.37m.92-2.69c-.15-4.49-3.29-6.19-21.4-6.19-19.55 0-24-1.89-28.38-3.8-2.16-1-5.15-3.78-5.49-6.07m1.43-2.57c1.51-.72 4.29-1 8.92-.33 6.07.83 11.94 1.4 14.25-1.5l1.48-3.86m-30.72 21.68c7.42 7.79 11.17 11.52 33.8 13.69m-2.9 3.81c-21.61-2.08-25.47-5.82-32.32-13L62 126m35 21.3l-13 20.14c7.78 10.69 12.66 14.33 30.77 14.69s26.42.18 40.36 6.52 20.09 8.53 31.13 5.26a14.79 14.79 0 003.26-6.25c1.08-4.08 7.33-16.59 9.22-21.21l-2.22 3.55c-7.61 9.25-14.94 6.81-23.08 4.36s-16.84-6.54-24.71-8.43-27.42-3.26-39.36-3.81c-11.45-.52-15.17-5.29-15.22-8.8l-.26-1.63m94.48 38.62c-11 3.28-17.2 1.64-31.13-4.7s-22.24-6.2-40.36-6.61-23-4-30.77-14.68m-27.89-27.27c-5.17-1-10.38-1.23-18.63-.81-10.86.55-19.54.55-34.2-3.81L.5 131.2l17.1-7.88S6.74 115.7 5.39 110.13c14.66 4.34 23.34 4.34 34.2 3.8s16.46.11 23.63 1.91c3.79.94 9.63.81 17.23.81" fill="none"/><path d="M85.57 126.53L82 136.86m29.5 21.59l6-12.69m119.1-22.86l8.5 19.95c2.35 1.09 4.89 1.81 12.49-.37s29.68-6 41.26-5.07c-3.43-4-16.65-9.62-16.65-9.62l12.31-10.33a27.13 27.13 0 01-7.42-.91c-12.85-3.62-25.16.55-36 5.08s-12.12 3.63-13.57 2c-3.08-2-.36-4 3.26-6s2.89-4-.55-4.17c-11.94-1.09-19.9 5.26-22.26 8.16s-.72 6.16 6.16 3.27c3.75-1.59 6-2.55 7.24-.19 2 5.08-6.88 10.34-24.8 15.77s-21.9 8-37.83 19.6l4.17 9.79M220 126c-.18-4.71 14.49-12.33 20.82-8.88m-9.41 7.8l7.42 19.94c2 5.08-6.88 10.34-24.8 15.78-13.88 4.21-19.4 6.69-28.59 13m53.1-46.06c1.45 1.64 3.18 2.79 14-1.75s23.17-8.7 36-5.07l1.09.31m-46.16 17.81c2.35 1.1 4.89 1.82 12.49-.36s25.7-5.79 37.28-4.89m-122.97 29.53c15.93-11.6 19.37-13.78 37.29-19.22s27-10.82 25-15.89M181 172.62c11.3-8 16.39-10.57 31.84-15.27 17.91-5.44 26.78-10.69 24.79-15.77M217 124.9l4.88 9.43M243 114.92l2.36 8.53m-1.27-4.18c-3.26 1.45-7.06 3.63-5.25 5.08m-19.73 4.17c.9 1.09 2.71.9 6-.55s6.34-1.81 5.79-.36m3.8 5.81c1.63-1.09 3.44-2.18 5.62-1.82m-4.71 4.91a9.24 9.24 0 016.15-1.46" fill="none"/><path d="M219.07 128.63c1.06 1.63 4.18.46 7.6-1 2.19-.62 4.16-1.19 4 .26-.27 2.46-8.39 6.69-8.65 6.16a47.74 47.74 0 00-2.9-5.42zM245.12 123.53c-2.28.83-1.31.4-2.89.92-1.79.09-3.59.78-3.55-1.16 1-2 5.31-3.74 5.34-3.66.5 1.58.55 2.06 1.1 3.9z" fill="#fff"/></svg>