<svg xmlns="http://www.w3.org/2000/svg" width="100" height="300"><path d="M45.65 45.38v-.01.01zM58.84 55c-1.37-1.05-5.63.21-6.41 1.59-1.25 2.06 5.36-.62 5.75.24.18.42-2.47 1.33-2.53 1.93-.12 1.07 6.35-1.29 3.19-3.76zM54.82 48.82c1-1-.37-3.46-1-4.34a4.54 4.54 0 00-8.2.89c.76.63 5.79-3.72 3.48.28-.3.52-2.31 1.08-2.29 1.85 0 1.25 4.19.33 4.73.47 1.08.27 2.27 1.85 3.28.85zM9 173.3c.13.28.27.55.41.82.46-.47 4.38-3.22 3.85-4.08-.17-.26-4.5 2.36-4.26 3.26zM13.72 165.73c-.52-1.17-4.55 2.4-4.77 3.2a9.2 9.2 0 00.41 2.88c.15.19 4.69-3.42 4.24-4-.86-1.1-1.81 1.35-2.56.7-.32-.25 2.96-2.21 2.68-2.78zM9.76 174.76c0 1.75 3.76-1.78 3.43-2.09s-3.43 1.54-3.43 2.09zM67.64 234.15c-.72 0-.6 4.78.5 4.68.86-.09.37-4.67-.5-4.68zM57.46 171.41c-.72.3.31 3.1 1.17 2.76s-.41-3.07-1.17-2.76z"/><path d="M96.82 109.16c-.39-3.65-1.15-7.81-3-11a18.48 18.48 0 00-4.49-5 6.73 6.73 0 00-.77-.47 1.12 1.12 0 01-1-.11c-3.89-2.34-3.41-6.79-5.92-10.09a1 1 0 01-.2-.82c-.63-1.15-1.44-2.44-1.62-2.67-1.45-1.89-1.36-1.64-2-3.62s-.12-3-2-4.7c-1.65-1.55-3.66-1.74-5.6-2.62-2.4-1.06-6.22-3.43-6.81-5.56-.07-.22.46-1.24.46-1.31 0-.84-.26-1.59-.28-2.43 0-1.36.06-2.18 0-3.6-.13-2.1 0-4.19-.07-6.46-.16-3.19-2.11-4.82.38-7.23 2.22-2.13 5.81-3 7.18-6.09 1.81-4.09-2.33-5.75-5.7-6.14-1.42-.16-4.8.72-6 0-.8-.48-.63-2.72-1.1-3.4-1.3-1.86-3-1.58-5.12-1.43a35.91 35.91 0 00-12.37 3.21 22.25 22.25 0 00-6 3.61c-1.89 1.8-1.33 2.78-1.86 5s.47.76-.9 2.29c-1.18 1.33-3.31 2.16-4.63 3.41-2.55 2.39-4.8 6.89-.11 8.64 2.14.8 5.86-.77 7.69.38a51.4 51.4 0 014.74 6.4c0 1.4-3.31 3.22-4.19 4.24-2.3 2.69-5.3 5.91-8.65 7.29s-5.38.82-8.51 3.12c-1.91 1.42-4.18 2.59-5.77 4.41-3.75 4.34-3.72 10.34-5.83 15.4C3.68 99.2 2 108 .94 115.81c-.78 5.89-.32 12.73.44 18.78.37 3 1.81 6 2.09 8.88.25 2.68-1.34 4.88-1.16 7.57.17 2.49.81 8.05 1.92 10.08.62 1.15 2.12 1.54 2.72 2.68 1.27 2.39-.26 3.95-.84 6.33-1 4.32 1.41 7.62 1.32 11.62s-1.71 7.88-1.83 11.91c-.23 8.22-.33 16.55.88 24.71.58 3.92 2.16 7.69 2.67 11.52s-.14 8 0 11.91c.07 1.6.29 11 4.11 8.23 2-1.46.48-7.69.34-9.69-.09-1.16-.89-4.26-.4-5.42.61-1.46 0-.53 1.33-.75.91-.16 2.14.78 3.39.51a7.63 7.63 0 003.1-2c.9-.82 3.09-3 3.09-4.27 0 5-.77 9.85 0 14.81a58.83 58.83 0 01.8 14.95c-.21 2.45-.33 4.91-.3 7.38 0 .6.55 4.07.52 5.6a11.31 11.31 0 002.76 4.18c4.33.83 9.51.11 13.1-.33 1.92-.23 3.83-.48 5.73-.7a5 5 0 001.66-1.91c0-1.46 1.09-4 2.68-4-.45 0 2 1.74 2 1.75a15.55 15.55 0 005 .37c2.22-.07 1.8-.63 4.48.86 3.64 2 7.46 1.45 11.05 2.89l.62.27a20.63 20.63 0 004 1 4.36 4.36 0 001.07-2.09c-.16-.23-.11-.16 0 0 0-.15.07-.28.08-.43a1 1 0 01.09-.36c-.06-.17-.14-.36-.23-.57-.48-1.18-.23-2.06-1-3.28-2-3-3-2.62-3.53-6.58-.34-2.65-1.52-4.92-2-7.46-.45-2.17-.32-4.48-.69-6.73-.91-5.59.07-10.19.65-15.8.54-5.25.82-10.48 1.76-15.68 3.62-20-1.37-39.82-1.09-59.9a17 17 0 011.14-5.54 52.92 52.92 0 002.43-14.78 104.37 104.37 0 00-.65-11.86c-.18-2-.8-4.91.22-6.84 0 .06 2.88 3 3.11 3.14 1.59 1.24 3 1.72 4.64 3.13a8.53 8.53 0 005.09 2.34c1.35.1 2.89-.53 3.54-.35a4.54 4.54 0 003-1.42 40.23 40.23 0 00.98-15.31zM75.65 270.62c.24.89-2 1.38-2.17.74s1.93-1.62 2.17-.74zM47 27.79c1.83-2.53 5.57.41 3.89 2.78S45.43 30 47 27.79zm-2.85 1.1c.89-1.18 2 1.8 1.62 2.55-.55 1.11-2.1-1.9-1.61-2.55zM31.9 42.3c-.62.42-4.09 3.64-4.72 3.17-.8-.59 4.83-4.5 5.45-4.9a62.59 62.59 0 0114.66-6.85c4.34-1.43 16.29-6.43 20-2.26-.77-.88-6.2.44-7.33.6a71.25 71.25 0 00-14.53 3.64 61.43 61.43 0 00-13.53 6.6zm13.6 29c.28-.38 2.84 2.26 3.23 1.66.57-.84-2.67-2.08-2.23-2.71s2.76 1.77 3 1.34-1.71-1.28-1.34-1.81c.14-.2 1.36.62 1.43.43-.55-2.38.09.11.63-1.44.17-.48-1-.91-.82-1.45-.16.41 5.22.71 5.84.85 2.65.61-1.85 5.88-2.62 6.7s-1.47 1.97-2.62 1.81c-.86-.12-3.48-2.58-1.49-2.49.28-.76-3.51-2.19-3.01-2.85zM52 62c-1.46-.82-4.57-3.34-5.18-4.87-.27-.67.57-1.61.23-2.34-.5-1.12-1.54-1.51-2.18-2.5l.21-1.29a3.13 3.13 0 01-1.55-2.78 9.89 9.89 0 010-3.39c.31-2.43 1.24-5 4.11-5.17 2.11-.11 14.3-4.89 12 .46-.28.65-2.4 1.39-2.86 2.29-.68 1.34-.36 2.06 0 3.42s2.59 4.75 1.14 6.08c-1.13 1-3.46-.47-4.21.34-2.24 2.38 1.24 1.87 2.43 1.61 5.48-1.19.7-7 4.07-7.79 2.08-.49 1.8 8.91 1.7 10.69-.37 5.13-5.42 7.75-9.91 5.24zm8.54-19.63a8.11 8.11 0 01-2.05.57c.45-1.12 1.13-1.31 2.07-.6zm-22.92 9.04c-.3-1.82 2.09-3.22 2.09-2.9 0 .89-1.2 1.19-1 2.39.13.78 1.06 1.38 1.57 1.87s4.07 1.74 1.26 2.37c-1.41.31-3.71-2.45-3.92-3.73zm-8.2 17.86c.9.09 1.39 2.13 2.59 1.62s-.13-1.6.55-2.18c3-2.62 1.52.82 4.14 1.17s-1.18-6.62 1.15-8.57c3.78-3.17 1.94 6.69 2.71 8.18 1.15 2.15 7.08 9.22 9.8 9.18 3.37 0 6-6.46 7.31-8.83 2.71-4.74 4.13-4.1 8.59-1.89 1.17.58 8.72 3.14 8.72 4.53 0-1.19-10 .07-10.66.38a48 48 0 01-7.76 2.88A7.34 7.34 0 0053 77.48c-.77.67-.88 1.87-1.88 2.32-2.34 1-5.14-1.39-7.24-2.18-3.24-1.22-6.56-.8-9.9-1.41s-6-2.8-9.17-3.35c-.52-.09-5.23.3-5.25.24-.15-.37 8.83-3.93 9.86-3.83zM54.83 134c.19 3.69 2.34 3.25 4.15 1.6 1 3-3.59 4.8-5.56 2.9-1.25-1.2-2-6.78.12-7.59 3.94-1.52 5.47.13 5.43 3.76-1-.29-1-2.59-2.27-3-2.24-.67-1.94.87-1.87 2.33zm3-5c.69-.48-4 .16-3.14.58-.62-.32.64-2 .09-2.16-.84-.33-1 2-1.92 1.78-.75-.21 1.49-3.49.77-3.84s-2.24 4.13-3.7 3.66 1.73-3.25.83-4.14c-.24-.24-1 1.09-1.35.86-.72-.44 1.82-2.93.57-3.41-1.67-.65-3 9.9-6.13 7.58-1.21-.91-.37-4.54-.27-5.51.29-2.7-.38-3.74-.84-6.19-.2-1-.54-12.68.78-12.4.69.14.83 1.72 1.83 1.51 1.49-.33.76-2.78 1.63-4.15A15.42 15.42 0 0152 99c.32-.16 3.19-1.41 2.77-.51-.56 1.16 1 3.45.92 4.7 0 1.74-1 3.56-1.33 5.29a21.85 21.85 0 00.2 10.39c.39 1.24 1.93 6.14 4.08 5 1.11-.58 1.12-6.29 1.33-7.35 1.41-7.1 3.17-1.16 3.66 2.67.22 1.82.86 5.43-.47 7-2.52 2.93-1.76-1-2.1-1.13-1.13-.38-2.46 3.38-3.28 3.94zm-13-41.39c.45.76 3 1.37 3.1 1.8.38 1.26-2.54 2.82-3.09 3.76-.94 1.6-.89 6.33-2.93 3.55-1.3-1.72-.91-6.8-.91-8.87.11-3.61 1.83-3.54 3.79-.23zM42.7 80c0-.59 4.24 1.75 2.23 2.75-.31.14-2.23-2.32-2.23-2.75zm9.21 8.33C50 90 48.3 84.69 50.82 83.54c-1.82.92 2.57 3.46 1.09 4.77zm-1.53 8.11c1 1.39-4.5 1.83-4.55 1.88.42-.53 4.08-2.57 4.55-1.9zm-4.26-1.74c-.36-.5 2.05-1.46 2-1.71.15.95-.9 3.23-2 1.71zm7.12-4.94a3.52 3.52 0 011.08-1.24c-.32.12.14 1.19-1.08 1.24zm2 4.65c.41-1.56 1.75 1.85 2 2.23.48.88 2.25 2.56 2.44 3.33s-1.52.1-1.36 1.41c.13.94 1.52 2 1.92 2.78.63.49.54 1-.27 1.43l.92.82c0 .57.57 2.32-.21 2.7-1.69.83-5.81-13-5.41-14.7zm1-13c-.65-.24-.83-2.45-.47-2.37 1.39.35-.08 2.2.46 2.41zm3.35 29.76c0 .24-.76 5-1.41 4.29s.56-3.78 1.4-4.25zm-31.18 34.25c-.2-.66-4.4-2.64-3.53-3.74.45-.56 4.42 4.09 5.14 4.11 1.61.06 4.2-3.92 5-5a13.18 13.18 0 002.77-8.89c0-.56-.58-6.45-.1-6.56 3.82-.93.75 11.23.44 12a24 24 0 01-6.73 9.22s-5.34 3.18-5.19 2.62c.62-2.32 2.93-1.4 2.2-3.76zm.87-6.79c-1 .88-4.87-3.69-4.17-4.72-.2.33 5.45 3.55 4.17 4.72zm1.12-5.82c0 .05-4.91-3.67-4.28-4.8-.02.04 5.17 3.76 4.28 4.8zm.62 8c1.65 1.64-1.66 1.69-1.63 1.67.2-.17-.25-3.54 1.61-1.65zm-1.3-14.7c.25-.51-4.12-2.73-3.45-4.22-.27.59 4.2 2.73 3.45 4.24zm-1.58.91c-.36.53-2.41-1.94-2-2.15s2.33 1.69 2 2.13zm1.91 8.47c-.47.88-5.22-3.45-4.26-4.62.06-.05 4.8 3.65 4.26 4.64zm-2.78 5.07c-.2.32-2.51-1.45-2.1-2.06.14-.2 2.5 1.5 2.1 2.08zm6-5.81c1.5 0 1.51 2.69.1 2.84-1.66.19-1.75-2.82-.1-2.82zm.68-6c1.59 0 2 2.5.52 3-1.87.55-2.57-2.98-.47-2.98zm5.28-21.06c0-.09-8.26-6.88-8.68-6.51-1.78 1.6 7.44 6.48 6.73 7.93-.15.3-5.87-4.37-6.17-3.95-1.32 1.87 6.18 4.17 5.46 6.18-.26.73-3.92-2.38-4.22-1.81-1.05 2.1 6.65 3.94 6.17 6.41 0 .19-4.62-1.88-4.51-2.32-.74 2.77 6.38 3.5 5.51 6.36 0-.07-3.86-1.52-3.8-2-.25 1.85 4.37 2.74 3.7 4.51-.45 1.16-1.46-1.35-2-.47-.21.32 3.92 4.27.91 3.11-1.53-.59-2.58-3.8-3.18-5.14a109.4 109.4 0 01-5.7-16.9c-.61-2.32-1.57-5.23-1.19-7.59.54-3.29 5.12-3.23 5.3-5.48s-5.71-4.23-6.35-6.94c-.26-1.07-.39-6.73.91-7s9.63 5.93 9.3 6.32c-.93 1.07-6.25-5.26-7.79-4.13-1.06.77 6.09 6 5.51 6.64-.76.86-5-3.53-5.5-2.61-.88 1.61 3.55 2.15 3.13 3.42-.12.4-3.54-1.52-3.56-1.19-.15 2.57 4.35 1.75 5.64 2.64.58.41 3.69 5.06 3.38 5.67s-3.29-2.21-3.72-1.39c-.9 1.69 4.94 2.81 4.05 4.81-.17.37-6.49-5.72-6.91-2.7s8.78 3.52 7.43 7.11c.26-.65-9.59-7.47-9.46-5.64.19 2.89 11.43 6.8 10 9.82.61-1.29-10-5.77-9.45-7.26-1.38 3.91 10.69 6.41 9.06 10.12zm.14 3.11c-.21.39-1.44-.58-1.2-1s1.43.61 1.2 1.02zm-33.56 34c-.45.44.22 1.51-.52 1.75.19-.06-2.91-22.85-3-25.33-.18-7 2.4-14.19 3.5-21.1.29-1.88.51-6.36 2.13-7.68 2.46-2 2.25 2.55 2.85 2.16 1.18-.76-.17-8 0-9.45.39-4.4 3.2-9.84 8-10.68.68-.11 5.4 1.17 4.94 2.33-.28.7-3.74-1.43-3.86-1-.71 2.48 6 3.2 5.22 5.88 0 0-4.82-4-5.12-2-.27 1.78 5.46 3.49 4.17 5.43 0 0-5.12-3.53-5.22-3-.14.67 6.1 6.78 5.41 7 .11 0-6.2-3.84-6.12-3.21.12.92 7.59 6.56 6.4 7.27.72-.43-10.9-7.32-8.34-4.1.54.68 6.07 2.68 5 3.92-.6.69-5.27-2.43-5.43-1.87-.61 2 10.79 4.92 7.41 8.31.66-.66-5.91-6.14-7-6.21-3.49-.23 3.32 3.63 3.88 4.59 2.63 4.43-2.9-.35-4.34-.76-2.11-.59-.75.32 0 1.22 1 1.23 4.28 2 3.92 4.12.11-.63-5.63-3.84-6.18-3.08s7.21 4.64 6.83 6.35c.25-1.17-10.64-3.35-10.45-4.57-.48 3.17 8 2.78 7.54 6 .15-1-7.88-2.4-7.77-3.2-.39 2.83 7.35 2.91 6.7 5.52-.07.29-5.51-2-5.64-1.37-.37 1.85 5.29 2.13 5.43 3.66.23 2.54-4-.92-4.36 0-.61 1.72 4.78 1.44 4.45 3.09-.13.64-3.57-.78-3.68-.07-.12.9 4.51 3.69 4.57 3.62-2.72 3-9.25-8.11-9-10.56a14.16 14.16 0 001.9 7.51c.22.44 2 2.73 1.72 3.17-.15.23-4.13-6.48-4.75-6.53 0 0 5.68 11 8 13.54.47.34.79.53.85.47-.16.16-.46 0-.85-.47-2.24-1.61-8.08-6.77-8-7.07-.54 1.44 4.9 5.17 4 6.06-.31.31-5.41-4.13-5.4-4.15-2.21 4.59 16 10.53 14.12 14.18.37-.7-14.9-9.74-13.88-11.63-1.14 2.16 9.32 9.49 8.49 10.32.07-.07-9.75-7.3-9.56-7.77-1.05 2.64 9 6.74 7.89 8.42-.17.28-8.17-4.56-8-5.28-.81 2.69 8.88 6.28 7.89 8-.31.56-6.95-4.74-7.35-4.09-.9 1.43 9.11 5.65 8.3 7.06-.31.55-7.34-4-7.53-3.56-.61 1.41 6.53 3.31 5.81 4.75-.36.72-4.9-3.11-5.4-2.32-.67 1.08 4.42 2.4 4.1 3.56-.13.45-3.57-1.75-4-1.18s2.57 1.8 2.37 2.49c-.14.5-1.94-.92-2.31-.48-.49.6 1.17 1.53.83 2.2s-1.2-.49-1.56-.13zm17.35 52.24a2.78 2.78 0 011.23-3c.29 1.17.02 2.65-1.23 3.05zm1.46.47c.51 1.24.29 2.79-1.24 3.14a4.06 4.06 0 011.24-3.09zm-2-4.9a2.55 2.55 0 011.46-2.8 2 2 0 01-1.5 2.85zm-.39-3.61a3 3 0 011.16-3 2 2 0 01-1.16 3zm.41-7a2.06 2.06 0 01-.58 3.09 2.71 2.71 0 01.58-3.04zm-1.52-.94a2.38 2.38 0 01.76-2.73 1.74 1.74 0 01-.76 2.78zm1.65-6.06c-1.77 1.44-1-1.51-1.66-2.32-1.39-1.67-1.88 0-1.95 2.1 0 1.12 2.23 6.48-.07 6.8-1.76.25-2.32-3.11-3-4.17-3.78-6.18.39 3.41-.09 3.93-1.9 2.1-3.32-3.37-3.71-4.08-1-1.71-1.76-2.91-1.46 0 .07.68 2.61 4 1.66 4.54s-4-3.52-4.35-4.29c-.9-2-1.32-13 2.46-12.56-1.4 3.35 1.09 1.25 2.13.3 1.35-1.23 2.83-3.66 4.93-3.62 3.34.03 7.75 11.23 5.11 13.37zm-2.17 2.69c-.78-.05-.58-1.43 0-1.57.03.13.57 1.59 0 1.56zm-10.14 38.05a2.31 2.31 0 01.93-2.8 2.24 2.24 0 01-.93 2.8zm1.28.64a2.6 2.6 0 01-.7 2.91 2.24 2.24 0 01.7-2.91zm-1.22 14.75a3.38 3.38 0 011 3.09 2.28 2.28 0 01-1-3.09zm1.39-10.44a2.26 2.26 0 01-.11 3.1c-1.2-.79-.8-2.26.11-3.1zm.41-12.64c-1.16.4 4.67 17.08 3.89 17.49-1.43.75-5.95-16.81-3.89-17.49zm-2.1-17.55a1.37 1.37 0 01-.76-1.87 1.35 1.35 0 01.76 1.87zm.71-6.47c0 .77 0 3.49-1.12 3.56-.92.05.46-3.32 1.12-3.59zm-.35 8.34c1 4.11-3.54-.12 0 0zm0 3.55a1.78 1.78 0 01-1.05 2.46c-.42-1-.22-2.25 1.04-2.46zm.18 3.56A1.69 1.69 0 019.58 202a2 2 0 011.17-2.52zm-2.63-12.54c-1.11-.32 0-3.14.29-3.79.44.53.79 4.11-.29 3.79zm10.95-28.36c1.82 1.5-2.8 1.85-3.64 2.1-2.06.62-6 3.75-7.84 1.61.87.99 9.16-5.63 11.48-3.71zm-11.48-.14c.07.21 2 .08 2.21.64-.01-.08-1.94.35-2.21-.64zm10.85-36c.15-.36 2.18.88 1.8 1.46-.2.35-2-1-1.8-1.42zm1.55 5.23c-.42.6-2.1-1-1.63-1.58s2.07.98 1.63 1.58zm-.82-7.52l.82.7c-.15.27-1.08-.36-.8-.7zm-3.09 9c-.22.28-1.65-.84-1.45-1.16s1.75.83 1.47 1.19zm1 8.68c.08-.22 2 .54 1.8 1.06s-1.99-.45-1.78-1.03zm.63 2.69c-.15.21-1.26-.39-1.1-.65s1.25.5 1.12.68zM6.5 156.29c.43-.85 5.94.72 5.94-.06 0-1.23-4.08-.34-4.43-1.51-.07-.25 2.5.11 2.45-.36-.12-1.08-4.74-1.38-3.5-2.5.33-.31 4.72.42 4.72-.12 0-1.22-4.07-.32-4.07-1.46 0-.77 2-.31 2-1.05 0-.49-1.61 0-1.69-.52s1.32-.48 1.4-1-1.59-.26-1.52-.92c.15-1.25 4.38-1.77 5.26-2 .87-.28 5.44-1 5.71.35-2.61 1.22.17.3.17 1.57 0 .48-1.56.11-1.63.69-.1.75 2.1.52 2 1.12s-1.88-.18-2 .47c-.15.89 2.56.49 2.56 1.33 0 .62-2.6-.19-2.68.82s2.61.05 2.68 1.11c0 .65-2.18 0-2.28.76s1.35.51 1.35 1.16c0 .49-2 .07-1.8.87.39 1.43 9.31 2.87 1.23 2 .63-.04-13.07 1.59-11.87-.75zm.76 32.06c1 .3 1.29 1 .87 2a1.71 1.71 0 01-.87-2zM7 191a1.54 1.54 0 011 2.33A1.92 1.92 0 017 191zm1.17 15a4.31 4.31 0 01-1.4-3.27A2.41 2.41 0 018.13 206zm-1.5-11.53c3.3.76-.46 4.1 0 0zm-.12 3.61a2.21 2.21 0 011.22 3c-1.35-.36-1.59-1.88-1.22-3zm.12 9.21c.1-.33 2 1.87 1.63 2.91-.77-.53-1.94-1.84-1.63-2.91zm.7 3.67a4.65 4.65 0 011.46 4.43C8.3 214 6.8 212.64 7.37 211zm.46 4.9a2.8 2.8 0 011.35 3.2 2.9 2.9 0 01-1.35-3.2zm1.69 7.34a3.3 3.3 0 01-1.28-3.61 3.13 3.13 0 011.28 3.61zm1.17-20a2.75 2.75 0 01-.64 3.49 3.33 3.33 0 01.64-3.54zm.3 5.07a3.8 3.8 0 01-.88 3.68c-.23-1.2-.23-2.95.89-3.73zm-.47 26.29c1 .51.82 3.07.17 2.68s-.36-2.17-.17-2.73zm.23 6.82a3 3 0 01.93-3.27 2.51 2.51 0 01-.93 3.22zm1.05 4.42c-.66.38-.63-2.23-.58-2.5l.87-.64c-.4.73.63 2.53-.29 3.09zm1.11-21a2.13 2.13 0 01-.59 2.8 2.14 2.14 0 01.59-2.83zm1 3.09c4.22 2.84-4.35 2.47 0 0zm2.86 5.25c-.38-.32-2.11-2-1.29-2.57 1.52-1.02 1.76 1.69 1.28 2.54zm.32-11.36c-2-1.4-2.15-9.17-2.42-11.31-.34-2.69-.51-5.38-.73-8.07s-3-24.49 5-18.16c1.76 1.39 1.16 9 1.28 11.12.14 2.57.17 5.07.07 7.63-.18 4.39-.41 8.8-.93 13.17-.18 1.27-.3 6.97-2.28 5.59zm1.42 11a14 14 0 00-.52-2.1c1.44.12 1.63 1.32.51 2.08zm-.11-5.83c1.7.59 3.6-26.33 3.73-26.34 1.69-.16-.26 27.47-3.74 26.32zm3 2.16c-.47 2.84-3.77-.2 0 0zm-.82-.88a1.89 1.89 0 011.87-1.75 1.39 1.39 0 01-1.91 1.73zm1.05-2.39a3 3 0 011.52-2.5c.53 1.21-.42 2.2-1.56 2.48zm.7-3a2.61 2.61 0 011.57-2.62 2.21 2.21 0 01-1.61 2.57zm.64-3.61a2.09 2.09 0 011.28-2.39 1.67 1.67 0 01-1.32 2.34zm.35-3.5a2.86 2.86 0 011.34-2.56 1.78 1.78 0 01-1.38 2.51zm.35-3.5a2.66 2.66 0 011.23-2.38 1.8 1.8 0 01-1.27 2.33zm.12-3.55A2.26 2.26 0 0125 206a2.06 2.06 0 01-1.25 2.63zm-.06-3.79a3.19 3.19 0 011.16-3.5 2.37 2.37 0 01-1.2 3.45zm5.16 67.61c.58 0 .8.22.67.78-.56.96-1.68-.7-.71-.83zm8.92-.58c.17-1.37 5.16-1.91 5.28-.57.12 1.56-5.36.86-5.32.52zm-2.92-.59c.37-.34 2.7-2.65 3.33-1.75s-2.91 1.6-3.37 1.7zm13.25-3.13c-1.2 1.3-5-2-6.48-2.26-4.19-.84-6.48 1.56-9.63 3.63-1 .67-2.49 1.93-3.79 1.34-.55-.25-1.66-2.09-1.21-2.68.32-.42 2.45 2.78 2.22.11-.1-1.12-3.5-3-2.34-4.46.26-.34 2.11 2 2.53 1.42.82-1.19-3.77-3.9-3.08-5.55.84-2 3.83 2.4 3.91 2.23 1-1.75-4.15-4.13-2.49-5.77.28-.28 4.66 5.74 5.7 4.77s-7.5-6.52-5.36-9.5c-.26.36 5.57 5.48 5.63 5.4 2-2.34-7.74-6.72-6.05-9.65 0 0 2.76 2.9 3.25 2.53 1.58-1.18-6.14-6.54-4.24-8.5-.4.43 3.23 3.76 4.66 4.13-1.78-.75-6.14-8.05-5-9.12.36-.34 5.41 6 2.56.57-.9-1.71-4.35-7.28-.57-2.79 1.35 1.61 4.56 5.43 2.62 1.05-.73-1.65-6.37-6.6-4.46-8.56.36-.34 2.86 4.77 3.76 4 1.37-1.2-4.75-5.64-3.08-7.24.75-.71 3.69 5 2.86.83-.3-1.5-4.83-5.16-3.49-6.72.18-.22 4.33 5.86 4.36 3.16 0-1.86-5.59-5.14-4-7.12.55-.65 3.44 4.07 3 .9-.19-1.27-4.5-4.23-3.16-5.65.54-.55 3.46 3.46 3.76 3.09 1.26-1.47-3.45-4.56-3.43-6 0-2.86 3 2.81 3.71 2.08 1.36-1.4-4.68-5.38-3.09-7.16.36-.4 6.59 7.61 1.85-.94-4.22-7.62 3.18.24 3.22.18 1.73-2.69-8.07-7.89-5.62-10.6.24-.26 3.45 3.79 3.68 3.48 1.41-1.83-4.07-6.21-4.43-8-.9-4.45 2.48 1.57 3.1 1 2.09-1.82-5.36-6-3.7-8.34.16-.22 3.51 3.35 3.53 3.33 1.37-1.95-4.1-4.16-3.33-5.73.9-1.81 2.78 1.63 3 1.2 1-1.79-3.34-4.59-3.74-5.92-.83-2.8.71-.08 2.07.17.11 0-4.79-7.34-4.55-7.64.55-.7 2.81 2.73 3.52 2.18.51-.4-3.53-3.84-3.2-4.74.75-2 3.32 2.66 4.11 1.77s-3.84-3.34-3-4.51c.59-.79 4.1 4.06 5.22 2.92.76-.75-5.89-5.15-4.73-6.27s4.06 4.8 5.29 3.94c.83-.57-3.79-4.14-2.89-5.26.7-.87 3.61 3.34 4.31 2.57s-3-2.47-2-3.67c.67-.81 4.24 4.43 5 3.71s-4.74-4.14-3-5c1-.51 4.75 4.32 5.42 3.51s-5.18-4.11-4.05-5.29 4.35 4.21 5.4 3.07c.9-1-4.54-3.46-3.53-4.66.68-.83 4.13 3.58 4.91 2.57s-4.35-2.86-3.4-4.31c.64-1 3.89 2.78 4.78 1.81.64-.7-4.57-2.86-3.51-4.22.7-.91 3.52 3.28 4.46 2.32s-4.1-3.27-3-4.54c.77-.84 3.42 3.38 4.28 2.37.7-.82-3.36-2.91-3.07-4.12.38-1.55 3.76 2.63 4.49 1.83s-2.09-1.66-1.22-2.61c.55-.59 1.69 1.32 2.2 1.19.76-.19.86-1 1.68-1.15 2.87-.55 4.92 2.57 7.55 2.06-.34 7.39-.88 14.2-2.76 21.36-1.69 6.38-3.33 11.6-3.45 18.33-.19 10.07 1 22.4-3.94 30.62-1.31 2.17-5.66 3.84-6 6.51-.56 3.75 4-3.36 5.39-3.35 3.33 0 .63 5.78.06 7.27-.36.94-2 3.52-1.56 4.51.87 2 1.16-.82 2-.64.43.09 2.13 22.45.71 22.83 0 0-1.82-11.26-2.18-3.48-.25 5.31 2.81 9.58 4 14.46.32 1.26 2.03 8.21 1.01 9.36zm1.3-42.1a59.3 59.3 0 00-.27 9.52c.07 4.85.17 9.69.21 14.54 0 .93-.7 7.1-.14 7.57-3-2.51-1.62-9.6-1.48-12.76a133.72 133.72 0 00-.92-18.55 78.88 78.88 0 01.16-12.91c.11-1.57 1.55-9.36 2.93-9.8.49-.16.64 3.6.67 3.91a1.86 1.86 0 001 1.27 2 2 0 01.24 2.4 25.81 25.81 0 00.11 3.31c-.31 3.73-1.95 7.62-2.55 11.45zM52 266.94c-.28.41-1.64-.7-1.08-1.16s1.32.73 1.08 1.16zm15.69.5c-.36-.43 1.07-1.36 1.41-.75s-1.1 1.15-1.46.75zm1.66 1.34c-.26-.45 1-1.37 1.34-.83s-1.11 1.28-1.39.83zm4.16-76c-.08 1-1.42 1.52-1.42 2.53 0 .28 1.55 0 1.53.11-1.16 2.17-.28 1.23-.25 2.9-.18.48-.37 1-.56 1.44l.76 1.15-.93 1.26a14 14 0 01.31 1.43c-.16.92-.19 2-.38 2.93s-2.35 6.51-2.4 6.44c.57.71 2.54-1.95 2.79-1.48.36.69 0 3.49-.28 4.16-.44.92-1.75.79-1.48.24-1.35 2.78 0 6.22-.1 9.09-.06 1.43-.14 3.08-.34 4.55-.45 3.3.1 7.69-1.36 10.87l-1.26-.66c-1.9 2.81 1.76 7.64 1.81 10.43 0 2.1.63 1.25-1 3.1-.91 1-3.18 1.71-2.26 3.53-.14-.29 2.74-1.31 3.06-1.21 1.33.4 1.27 1.67 1.6 3 1.16 4.6-.54 3.73-4.65 4.28-3.66.49-6.58 3-10.15 3.66-1.57.29-2.26.41-3.42-.59-.36-.3-1.89-2.7-1.52-3.18-.3.38 5 1.67 5.31 2-.92-1.14-6.9-3.85-5.28-5.88-.62.78 7.6 3.33 7.54 3s-11.35-8.12-4.7-5.56c1.15.44 4.33 3.18 3 .57-.94-1.85-5.51-3.07-4.89-5.76-.15.68 6.44 4.19 6.91 3.24.2-.43-3.11-2.06-3.48-2.32-2-1.42-4.09-3.29-4.2-5.92.06 1.16 5.78 4.64 5.7 2.8-.1-2.39-7.61-4-5.37-7.34.15-.23 4.86 5.57 5.31 3.46.6-2.86-7.66-4.41-5.36-8.13-.27.44 4.5 4.1 4.54 4 .69-1.53-5-6.69-5.52-8.27-2-5.53 2-.47 3.57.68 4.64 3.5-.24-2.09-1.29-3.47-4.7-6.15 2.43-.58 2.32-.46 1.23-1.32-4.49-4.66-2.7-6.26.78-.67 2.72 4 3.62 3.45.73-.41-4.07-5.9-3.1-6.78s2.54 4.21 3.69 4.59c3.46 1.14-4.22-10.81-3.46-11.37s6 8.17 6.88 7.65c.63-.39-1.66-3.25-1.86-3.62s-1.29-1.62-1.18-2.23c.26-1.51.48-.16.95-.59.26-.24 1.2 1.45 1.69-.05.29-.89-1.09-1.82-1.67-2.34-.39-.35-5.83-2.83-4.38-4.21 1.28-1.23 7.38 5.05 9.16 3.63.25-.2-5.14-3.91-5.46-4.31-3.1-3.93 1.59.15 2.26-.93s-6.57-3.83-5.78-5.91c.17-.46 2.64 1.35 3.26.37.46-.77-4.47-2.67-4.31-3.92.3-2.24 3.6 2 4.36.73.39-.68-4.84-3.32-4.84-4.5 0-3 3.08 1.75 4 .61.47-.58-3.92-3.36-4-4.29-.2-3 2.91 1.8 3.54 1s-3.1-3.5-3.29-4.14c-1.16-3.81 1.1-.1 1.81-1s-1.64-2.26-1.89-2.92c-.66-1.69-.08-1.24.38-1.79.14-.16 1.58 1.68 1.51-.05 0-.94-2.88-2-2.2-3.14.43-.7 1.72 1.06 2.09.6 1-1.32-3.06-2.78-2.25-4.22.37-.67 1.82.95 2.14.39s-1.21-1.43-1.25-2c-.14-1.66-.06-.37.26-2.08.11-.57-.21-1.38 0-1.9a4 4 0 011.54-1.05c0-1.27-.58-2.58-.57-3.88s.1-2.83 0-4.3c-.19-3.86.42-7.77.76-11.59.09-1 .66-9 2.58-6.69a5.07 5.07 0 01-.11 1.1c.78.41 2.81-3.48 3-3.34 1.07 1-1.51 2.82-.38 3.78.34.28 2.35-3.57 2.19-4.06.67 2.12-4.55 8.13-3.45 9.32 0 0 6.57-8.23 6.26-9.76.16.8-.27 5.07-1.08 5.51.6-.32 3.24-3.57 3.05-4.31.57 2.31-2.31 4.18-1.59 6.48-.15-.47 2.84-2.65 2.74-2.8 1.36 2.24-4.52 5.72-2.64 7.81.2.22 3.3-3.67 3.23-3.79 1.5 2.93-2.62 4.2-2.34 6.73.38 3.49 2-1.18 2.4-.69.52.72-.78 2.41-.66 3.34 0 .29 1.18-.7 1.35-.62 1.5.71-2.52 4.31-2.06 4.85a3.23 3.23 0 001.65-.28c.32 1.86-1.42 5-.26 6.49a6 6 0 001-1.06c1.15 1.19.6 1.34.85 2.37-.19-.75 0 1.8.23 1.77a10.23 10.23 0 00-.92 1.91c0 1.31 1.15.52 1.27 1.14.19.9-1.32 1.75-1.48 2.56l.94.52c-.31.72-.61 1.45-.89 2.19 0 .5 1.26-.19 1.32.21-.67 1.32-1.25 1.84.39 2.08 0 1-1.54 1.43-1.44 2.36 0 .18 1.11.17 1.11.17 0-.21 0 1.7-.17 1.41S71 185 71 184.9c0 .28 1.06.13 1.17.35q-1.83 2 .66 2.19c0 1.52-.78 3.24-.65 4.94.07.5 1.31.04 1.28.43zm-.69-84.16c-2.4 8.67-2.89 15.41-1.18 24 .38 1.92 4 15.43 1.24 16.33-.38.13-1-8.27-1.15-9.08-.53-2.86-1.78-5.58-2.23-8.47-.11-.68-.23-1.31-.29-1.94-.15-1.53-.7-.05-.89-1 1.74-3.1-.39-.26-.3-2.17 0-.54 1.52-1.1 1.31-1.62-.32-.77-2.15.92-2.33-.54-.12-.93 2.47-.92 2.09-2.1-.14-.41-2.45 1.35-2.83.49-.63-1.36 3.23-1.72 2.87-2.74-.27-.77-2.53 1.33-3 .38s3.58-1.5 3.12-2.73c-.35-.87-3 1.58-3.31.48-.39-1.44 4.65-1.62 4.31-3.32-.09-.46-4.77 2.25-4.94 1.35-.37-2 5.93-1.9 5.38-3.89 0-.13-5.72 3.25-5.43 1.14.24-1.71 6.94-1.72 6.39-3.82-.2-.71-6.23 3-6.82 2.11-.93-1.43 7.09-2.89 7-4.61 0-.09-7.12 2.35-7.16 2.07-.33-2.11 6.6-2.82 7.58-4 1.9-2.38-2.9.07-3.86.5-9.69 4.25 4.78-4 4.73-4.18-.29-.76-8.78 4.39-8.95 2.75-.22-2.1 10.26-2.87 9.72-5.3-.12-.45-9.62 3.24-9.65 3.07-.37-2.34 10.88-4 10.17-5.9-.09-.25-10.2 3.84-10.22 3.69-.3-2.12 10.92-4 10-5.9-.33-.69-10.54 4.11-10.61 3.74C63 94.48 75.78 93.83 75 91c-.11-.38-11.06 4.58-11.24 4-.65-2 10.26-3.42 9.61-5.23-.45-1.19-10.28 4.31-10.62 3.31-.52-1.49 8.08-3.57 7.73-4.27-.92-1.69-7 3.59-7.59 1.81-.65-2.11 5.61-2 5.48-3.39 0-.51-5.37 1.45-5.42.86-.2-2.31 11-2.53 10.27-4.94-.23-.81-9.74 3.11-9.84 2.68-.67-2.65 10.18-2.78 9.84-4.46-.05-.22-9.75 1.43-9.89 2.45.24-1.81 8.56-4.1 8.35-4.71-.28-.8-6.17 2-6.33 1.16s5.62-2.68 5.28-3.12c-.48-.64-5.31 1.94-5.43 1.3-.22-1.19 5.05-1.9 4.61-2.89S66 77.15 65.68 76c-.15-.58 3.8-1.9 4.37-1.73 2 .59 5.43 5.88 5.27 8s-5 3.44-4.83 4.78c.23 2.2 5.89 1 6.31 4.83.55 5.12-2.67 11.9-4.03 16.77zm14.01-14.54c.19-.41 8.54 4.71 5.08 6.48-2.25 1.15-5.8-4.97-5.08-6.48zm-5.89 5.32c.4.62-1.24 2.3-1.87 1.92s1.58-2.38 1.87-1.92zm1.42 1.89c0 .89-3.81 4-3.86 3.63-.19-1.19 3.91-5.35 3.86-3.63zm-4.25 7.37c-1.19-1.35 6.13-6.63 6-6.86.55 1.01-6.11 6.71-6 6.86zm.57 3c-1.21-1.36 6.07-10.08 7.2-9.16.26.22-7.72 8.59-7.2 9.18zm1 1.73c-.16 0 4.21-10.14 6.72-8.78-.94-.5-5.8 9.06-6.71 8.8zm9.36-9.26c.45.75-9 10.31-8.4 10.75-2.1-1.52 8.3-10.88 8.41-10.73zm-6.67 12.28c-1.24-.32 3.05-7.13 3.65-6.76.3.21-3.17 6.91-3.64 6.78zm8.21-10.36c.33.36-6 9.81-5.72 9.94-2.51-1.26 5.25-10.39 5.73-9.92zm-4.32 9.75c.49-1.34 5.45-10 6.41-9 .39.41-2.08 2.9-2.39 3.33-1.28 1.69-2.62 5.32-4.01 5.69zm2.25 1.29a.83.83 0 01-.57-.43c.4-1.35 5.2-9.57 5.89-8.53.44.67-4.83 8.02-5.31 8.98zm1.59 0s2.55-7 3.83-6.43c.43.26-3.36 6.72-3.82 6.5zm2.11 1.39s1.34-5.41 2.2-4.74c.66.57-1.63 4.88-2.19 4.81z"/><path d="M59.74 173.35c-.85.54 1.6 3.21 2.47 3.16.01 0-.65-4.31-2.47-3.16zM55.29 185.35c-.35.43.87 1.36 1.25.83s-.91-1.25-1.25-.83zM56.38 173c1-.44-1.31-3.82-1.67-3.5-.71.68.65 3.95 1.67 3.5z"/></svg>