<svg xmlns="http://www.w3.org/2000/svg" width="300" height="300" viewBox="0 0 300 300"><path d="M100.5 54.23c0 .51 1.67 1.13 4.67 1.13a66.69 66.69 0 017.47.5c2.34.37 3-.27 2.26-1-1.1-1.25-14.4-1.81-14.4-.63zM160.25 54.23l-3 1.33 6.85.38c3.66 0 7.17-.55 7.17-.92s-1.29-.93-2.76-.93a10.27 10.27 0 01-3.86-.72c-.81-.37-2.57.05-4.4.86z"/><path d="M133.3 26.56a32.82 32.82 0 01-2.93 3.82 6 6 0 00-1.37 2.93c0 1.18-.22 1-.8-.66-1.32-3.59-2.35-4.18-4.76-2.93a18.32 18.32 0 01-4.62 1.54 6.89 6.89 0 00-3.36 1.39c-.37.59-2.49 1.18-4.54 1.32-4.32.37-6.45 1.54-12 6.53a7.81 7.81 0 01-3.22 2.06c-1.4 0-1.32.44.58 2.57 1 1.17 2 1.68 2.86 1.46a1.57 1.57 0 011.75.37 3.78 3.78 0 002.42.81c1.61.07 1.46.22-1 .88a14.62 14.62 0 00-6 4.11c-3.37 3.59-3.73 4.47-1.76 4.47a3.45 3.45 0 012.2.88c.44.45 2.56.89 4.69 1 3.36.07 3.88.37 4.1 1.69.29 2.05 1.24 2.05 6.07-.15 5.13-2.27 8.35-4.77 11.06-8.44 2.12-2.93 2.2-4.47.22-4.47-1.39 0-2.27-3.53-1.32-5.07 1.17-1.91 4.54-1.91 6.52 0 1.61 1.54 1.9 1.54 4.76.66 2.63-.88 3.22-.88 5.34.3 2.42 1.32 2.49 1.32 4.32-.59 2.05-2.06 4.76-2.5 6.23-1 1.24 1.25 1.1 4.92-.22 5.43s-1.39 2 .07 4.84c1.61 3.09 4.25 5.21 9.59 7.86s5.93 2.71 6.74.66c.44-1.32 1.17-1.62 4.39-1.69 2.05-.08 4.18-.51 4.62-1a3.45 3.45 0 012.19-.88c2.05 0 1.61-1.24-1.68-4.62a16.61 16.61 0 00-6.08-4c-2.49-.66-2.63-.81-1-.88a3.83 3.83 0 002.41-.81 1.59 1.59 0 011.76-.37c.81.22 1.83-.29 2.86-1.46 1.9-2.13 2-2.57.58-2.57a8.16 8.16 0 01-3.22-2.13c-4.91-4.7-8.2-6.31-13.77-6.6-.51-.08-1-.81-1.24-1.62-.37-1.32-.81-1.46-2.86-1.1a33.41 33.41 0 01-3.88.59 11.52 11.52 0 00-4 1.83c-2.57 1.69-3.59 1.32-3.67-1.24 0-.59-1.17-2.43-2.56-4a14.51 14.51 0 01-2.56-3.52c0-1.47-2.27-.37-3.81 1.76zm4.7 3.29a13.65 13.65 0 013.16 4c1 3.37 2.1 3.86 5.61 2a13.72 13.72 0 014.62-1.73 4.37 4.37 0 002.64-.94c1.47-1.46 1.3-.58.13 3.24-1.69 5.58.18 1.59-4.22-1-.14-.14-1.74 3.59-1 2.79s1.2-1.92 1-2.14c-.44-.44-7.21 3.84-8.45 5.53-.88 1.18-.66 1.25-2.64.22s-2-1-2-6.7c0-3.45-.69-5.9-1.13-5.9s-.76 2.72-.76 6.17c0 5.65-.1 5.49-1.93 6.16-2.56 1-3.51 1.06-3.07 0s-5.6-7.35-6.4-6.62c-.22.29.16 1.85 1 2.8a4.27 4.27 0 011.2 1.91c0 .14-.92-.06-2.6.09-2.56.15-3 .3-4.43-1.31a7.75 7.75 0 01-1.56-2.41c0-1.1 2.75-2.57 4.29-2.57.88 0 1.41-.35 1.41-.72s.58-1 1.24-1.19c1.39-.51 2.89 1.62 2.89 3.53a2.13 2.13 0 001 1.72c.87.73 1.59.8 2.25-.89.36-1 .79-2.16.79-2.31A10.08 10.08 0 01133 31a9 9 0 002.31-3c0-1.1.15-.7 2.71 1.86zm-23 7c0 2-2.19 3.27-5.56 3.27-2.49 0-6 1.6-6 2.63 0 .37.64.65 1.37.36a18.56 18.56 0 013.3-.87C109.86 42 110 42 110 43.57a9.78 9.78 0 01-.5 2.83c-.52 1.25-3 1.47-3 .29 0-.44-1-.67-2.23-.67s-2-.37-2-.81-.88-.63-1.91-.34c-2.56.66-2.49-.46-.44-2.52 3.74-3.67 6.94-5.63 10.23-6.22 5.2-.88 4.85-1.09 4.85.75zm46.66.06c3.66.59 11.38 5.93 10.43 7.47-.29.37-.58.44-1.61.22s-1.82 0-1.82.52-.77.81-2 .81-2.53 0-2.53.43c0 1.47-2.09 1.19-2.53-.5s1.88-2.65 3.35-3c2.42.14 4.67-.44 4.67-.73 0-.88-2.2-1.4-5.93-1.4a11.43 11.43 0 01-5.49-1.16 11.14 11.14 0 01-1.77-1.14c-.07 0-.24-.56.06-1.44.29-1.18.32-1.49 1.49-1.27.81.22 2.73.76 4 1zm-43.14 4.22c2.34 2.21 1.76 3.33-1.9 3.4l-3.3.35 2.84 1.17c1.61.44 4 1 5.14 1.91l2 1.69-2.3 1.27c-2.86 1.4-3.18.89-6.4-.29-1.47-.51-2.35-.83-2.13-1.42a1.13 1.13 0 00-.27-1.31c-1.25-.8-.27-4 1.93-6a13.66 13.66 0 012.53-2 4.23 4.23 0 011.85 1.27zm38.45 1c1.69 1.54 2.34 3.69 2 6.92-.15 1.32-3 2.76-5.54 2.76-2.13 0-5-2-4.28-3.22.22-.44 2.27-1.32 4.18-2.56 2.19-1.47 3-3 2.08-3a4.93 4.93 0 00-2.89 1.19c-1.91 1.69-1.31.54.66-1.73s1.54-2.41 3.81-.36zM110.26 52c.44.66 2.76 1.58 5.18 1.8 4 .44 4.1 0 2.92 1.3-.73.8-3.32 2.06-5.74 3.23-4 2.06-4.22 2.28-4.52 1.11-.36-1.91-1.59-2.43-4.3-2-2.35.44-7.07-.74-7.07-1.77s3.88-4.55 5.34-4.92c2.35-.73 7.31.07 8.19 1.24zm61.66 1.26c1.18 1.32 2.17 2.17 2.17 2.47 0 1.17-4.12 2.07-6.9 1.63s-4.19.19-4.27 2.1c0 .37-.39.53-1.19.46-2-.37-7.65-3.54-9-5.08-1-1.17-1.24-.66 2.64-1 2.34-.22 4.51-.89 4.73-1.33.88-1.39 3.77-2.06 6.85-1.7a6.76 6.76 0 014.97 2.46zM186.84 264.49c.08.1-.08.16-.15.24h-.09v-.23h.24M186.69 265.53l-.16-.24c.16-.16.48.16.16.24M55.07 241.45c-2.16 3.33-4.5 8.83-4.5 10.63 0 2.34 3.15 3.87 5.49 2.52 1.43-.72 1.79-.72 1.25.09a7 7 0 01-2.78 1.8c-1.8.72-2.16 1.44-2.16 4.41 0 2-.5 2.53-.81 4.06a25.43 25.43 0 00-.25 3.69c0 3.78 3.06 5.17 9.3 3.64 3.58-.87 2.09-.38 4.63-2.06a26.65 26.65 0 002.23-5.36c.63-2.08 1.62-4.06 2.16-4.42s.71-.09.44.63c-2.51 6.13-2.69 8.11-1.25 11.17 1.25 2.7 2 3.15 4.58 3.15 2.79 0 .88-.78 3.93-4.33a10.84 10.84 0 012.2-3.36c.63-1.25.55-1.19.49-1.9-.14-1.56 1.47-1.21 1.92-1.21 3.5 0 4.85-7.66 2.33-12.61-1.7-3.33-2.33-3.33-4.76 0-3.68 4.95-11 2.88-11-3.15a7 7 0 011.49-4.15c1-1.17 1.17-2 .54-3.15s-2.33-1.62-7.54-1.8c-6-.27-6.74-.09-7.91 1.71zm13.66 1.62c-.63 2.52-2.07 3.42-5 2.88-1.79-.27-3.23-.09-3.59.54s.27 1 1.89 1c3.14 0 4.31.82 5.12 3.34.45 1.53-.09 2.61-2.7 5-2.78 2.61-5.75 6.84-5.75 8.37s2.07 0 2.79-2.16c1.35-3.69 6.56-7.56 9.16-6.75 2.79.81 3.33 2 3.33 6.84 0 2.52.45 4.33 1 4.33s.81-1.54.36-4.6c-.45-3.51-.36-4.86.54-5.4 2.06-1.35 3.5-.9 3.5 1 0 1 .45 1.8 1 1.8s.81-1 .54-2.43c-.9-4.77 1.53-6.75 2.51-2.07.81 3.51-.27 8.1-1.79 8.1a4.23 4.23 0 01-2.61-2c-1.71-2.34-3.14-1.35-1.62 1.08a5.64 5.64 0 01-.72 7.39 6.85 6.85 0 00-1.79 3.15c0 2-3.06 1.26-4.14-1-.72-1.53-.63-3.33.27-6.76 1.26-4.95 1-6.39-1.08-6.39-1.43 0-4 4.41-4 6.94-.09 4.23-3.95 6.3-10.87 5.85-2.34-.18-2.43-.36-1.62-3.6a31.08 31.08 0 00.81-6c0-2.07.72-3.24 3.14-4.86 3.6-2.43 4.32-5.13 1.17-4-4.22 1.35-5.66 1-5.39-1.44a6.18 6.18 0 011.53-3.16 5 5 0 001.53-3.15c.18-1.8.89-2.34 3.41-2.7 5.84-.81 9.44-.45 9.17 1zM20.11 150.37a8.09 8.09 0 01-4.05 1.8c-4.22.81-5.84 5.31-2.34 6.4 2.61.81 2.16 2.07-.53 1.53-1.89-.36-3 .18-4.77 2.25a15.47 15.47 0 01-3.86 3.24 2.3 2.3 0 00-1.62 1.8 3.93 3.93 0 01-1.35 2.43c-1.16 1-.81 1.71 2.88 5.05 2.43 2.16 5 3.87 5.93 4 2.16 0 6.11-2.07 8.18-4.42a5.68 5.68 0 013-1.89c.72 0-.27 1.53-2.24 3.34-4.41 4.23-5.84 9.54-2.88 11.07 2.52 1.35 7.64-.27 11-3.42 1.35-1.26 2.43-1.89 2.43-1.35a2 2 0 001.44 1.53c1.62.63 4.85-.9 4.85-2.34a3.09 3.09 0 011.26-2c.72-.54 1.53-2.52 1.8-4.41l.62-3.43-4 .54c-3.59.54-4.31.36-6.38-1.71-1.89-1.89-2.34-3-1.89-4.86.72-2.88 3.69-5.58 6.11-5.58s1.89-4.42-.62-5.77a30.32 30.32 0 01-4.32-3.06c-2.87-2.25-7.1-2.61-8.62-.72zm7.63 2.79A15.93 15.93 0 0032 156c2.24.72 1.88 2.8-.72 3.25-1.53.36-3.06-.18-4.76-1.63-2.34-2.07-3.78-2.7-3.78-1.71a10.29 10.29 0 002.43 2.62c1.88 1.62 2.24 2.52 1.7 4.41-.53 2.16-1 2.43-4.4 2.43-3.86 0-9.7 2.43-10.33 4.32-.18.63 1.35.27 3.59-.72a20.62 20.62 0 017.1-1.8c2.61 0 3.42.45 4.31 2.43s.81 2.7-.62 4.68c-2.61 3.52-4 6.4-3.06 6.4.45 0 2-1.62 3.32-3.6 1.8-2.71 3.06-3.61 4.41-3.43 1.89.36 2.07.81 1 3.61-.36.9-.27 1.62.27 1.62s1.34-1.26 1.88-2.7c1.08-3.25 4.14-3.88 3.15-.72a4.15 4.15 0 01-1.35 2.34 1.41 1.41 0 00-.81 1.26 3.86 3.86 0 01-1.53 2.16c-2.06 1.44-3.86.09-3.86-2.88 0-1.17-.36-2.16-.9-2.16s-.9 1-.9 2.16c0 2.43-3.77 5.94-6.38 5.94a2 2 0 00-1.88 1.08c-.18.54-1.08.81-1.89.45-1.17-.45-1.44-1.17-1-3.06.54-2.52 4.94-7.47 6.47-7.47 1.08 0 2.16-2.62 1.44-3.7-.9-1.58-3.9-.86-6.9 1.66-4.85 4.24-7.28 4.33-11.41.63-3.51-3.24-3.6-3.24-1.8-5a6.6 6.6 0 012.33-1.71c.36 0 1.62-1.08 2.79-2.52 1.71-1.89 2.88-2.43 5.75-2.43 4.76 0 5.21-1.35 1.17-3.51-1.71-1-3.15-2-3.15-2.35 0-.72 3.15-2.34 6.12-3.15 1.07-.36 2-1 2-1.44 0-1.62 3.33-.81 5.93 1.44zM248.25 152.61a8 8 0 004 1.8c4.22.81 5.84 5.32 2.34 6.4-2.61.81-2.16 2.07.54 1.53 1.88-.36 3 .18 4.76 2.25a15.47 15.47 0 003.86 3.24 2.3 2.3 0 011.62 1.8 3.93 3.93 0 001.35 2.43c1.17 1 .81 1.72-2.88 5.05-2.42 2.16-5 3.87-5.93 4-2.15 0-6.11-2.07-8.18-4.41a5.64 5.64 0 00-3-1.89c-.72 0 .27 1.53 2.25 3.33 4.4 4.23 5.84 9.54 2.87 11.07-2.51 1.36-7.64-.27-11.05-3.42-1.35-1.26-2.43-1.89-2.43-1.35a2 2 0 01-1.44 1.53c-1.61.63-4.85-.9-4.85-2.34a3.09 3.09 0 00-1.26-2c-.72-.54-1.52-2.52-1.79-4.41l-.63-3.42 4 .54c3.6.54 4.31.36 6.38-1.72 1.89-1.89 2.34-3 1.89-4.86-.72-2.88-3.69-5.58-6.11-5.58s-1.89-4.41.63-5.77a30.3 30.3 0 004.31-3.06c2.88-2.25 7.1-2.61 8.63-.72zm-7.64 2.79a15.9 15.9 0 01-4.22 2.8c-2.25.72-1.89 2.79.71 3.24 1.53.36 3.06-.18 4.77-1.62 2.33-2.07 3.77-2.7 3.77-1.71a10.15 10.15 0 01-2.43 2.61c-1.88 1.62-2.24 2.52-1.7 4.41.54 2.16 1 2.43 4.4 2.43 3.86 0 9.71 2.43 10.33 4.32.18.63-1.34.27-3.59-.72a20.62 20.62 0 00-7.1-1.8c-2.6 0-3.41.45-4.31 2.43s-.81 2.71.63 4.69c2.6 3.51 3.95 6.39 3 6.39-.45 0-2-1.62-3.32-3.6-1.8-2.7-3.06-3.6-4.41-3.42-1.88.36-2.06.81-1 3.6.35.9.27 1.62-.27 1.62s-1.35-1.26-1.89-2.7c-1.08-3.24-4.13-3.87-3.15-.72a4.15 4.15 0 001.35 2.34 1.41 1.41 0 01.81 1.26 3.86 3.86 0 001.53 2.16c2.06 1.44 3.86.09 3.86-2.88 0-1.17.36-2.16.9-2.16s.9 1 .9 2.16c0 2.43 3.77 5.94 6.38 5.94a2 2 0 011.89 1.08c.18.54 1.08.81 1.88.45 1.17-.45 1.44-1.17 1-3.06-.54-2.52-4.94-7.47-6.47-7.47-1.08 0-2.15-2.61-1.44-3.69.9-1.54 3.87-.82 6.83 1.71 4.86 4.23 7.28 4.32 11.42.63 3.5-3.25 3.59-3.25 1.79-5.05a6.43 6.43 0 00-2.33-1.71c-.36 0-1.62-1.08-2.79-2.52-1.71-1.89-2.87-2.43-5.75-2.43-4.76 0-5.21-1.35-1.17-3.51 1.71-1 3.15-2 3.15-2.34 0-.72-3.15-2.35-6.11-3.16-1.08-.36-2-1-2-1.44 0-1.62-3.33-.81-5.93 1.44z"/><path d="M212.48 242c2.15 3.33 4.49 8.83 4.49 10.63 0 2.34-3.15 3.87-5.48 2.52-1.44-.72-1.8-.72-1.26.09a7.09 7.09 0 002.79 1.8c1.79.72 2.15 1.44 2.15 4.41 0 2 .36 3.79.81 4.06s.81 2 .81 3.69c0 3.78-3.75 4.31-7.5 4.34a22.93 22.93 0 01-7-2.48 28.83 28.83 0 01-2.23-5.64c-.63-2.07-1.62-4.06-2.16-4.42s-.3 3.39 0 4.11c2.51 6.12 1 3.52.7 8.52-1.54 1.59-2.3 2.31-4.44 2.18s-2.55-.91-3.94-2.94c-.89-2.25-3.31-6.62-3.16-5 0 .55-1-2.7-1.44-2.7-3.51 0-4.85-7.66-2.34-12.61 1.71-3.33 2.34-3.33 4.76 0 3.69 4.95 11 2.88 11-3.15a7 7 0 00-1.44-4.15c-1-1.17-1.17-2-.54-3.15s2.34-1.62 7.55-1.8c6-.27 6.74-.09 7.91 1.71zm-13.66 1.62c.63 2.52 2.06 3.43 5 2.88 1.8-.27 3.24-.09 3.59.55s-.26 1-1.88 1c-3.15 0-4.32.81-5.12 3.33-.45 1.53.09 2.61 2.69 5 2.79 2.61 5.75 6.84 5.75 8.38s-2.06 0-2.78-2.17c-1.35-3.69-6.56-7.56-9.17-6.75-2.79.81-3.32 2-3.32 6.84 0 2.53-.45 4.33-1 4.33s-.81-1.53-.36-4.6c.45-3.51.36-4.86-.54-5.4-2.07-1.35-3.51-.9-3.51 1 0 1-.45 1.8-1 1.8s-.81-1-.54-2.43c.89-4.77-1.53-6.75-2.52-2.07-.81 3.51.27 8.1 1.8 8.1a4.22 4.22 0 002.6-2c1.71-2.34 3.15-1.35 1.62 1.08a5.64 5.64 0 00.72 7.39 6.79 6.79 0 011.8 3.15c0 2 3 1.26 4.13-1 .72-1.53.63-3.33-.27-6.75-1.26-5-1-6.4 1.08-6.4 1.44 0 4 4.41 4 6.94.09 4.23 4 6.3 10.88 5.85 2.33-.18 2.42-.36 1.61-3.6a31.81 31.81 0 01-.8-6c0-2.07-.72-3.24-3.15-4.86-3.59-2.43-4.31-5.13-1.17-4.05 4.23 1.35 5.66 1 5.39-1.44a6.1 6.1 0 00-1.52-3.15 5 5 0 01-1.53-3.16c-.18-1.8-.9-2.34-3.42-2.7-5.84-.81-9.43-.45-9.16 1z"/><path d="M134.73 46.33a6.74 6.74 0 016.71 6.85 6.81 6.81 0 01-6.71 6.82 6.91 6.91 0 01-6.83-6.84 6.83 6.83 0 016.83-6.85zM32.52 193.54a7.84 7.84 0 01-8-7.8 8 8 0 1116.06 0 7.76 7.76 0 01-8 7.8zm.12-34.7a7.75 7.75 0 010 15.49 7.75 7.75 0 010-15.49zm-14.5-18.37a7.69 7.69 0 010 15.37 7.69 7.69 0 010-15.37zm231.37 4.08a9 9 0 00-9 8.89 9.06 9.06 0 009 9 9 9 0 008.87-9 8.86 8.86 0 00-8.87-8.89zm-15.82 48.39a8.23 8.23 0 10-8.26-8.29 8.27 8.27 0 008.26 8.29zm1.08-34a8.29 8.29 0 010 16.57 8.29 8.29 0 010-16.57zm-32.11 74.92a6.19 6.19 0 106.23 6.13 6.15 6.15 0 00-6.23-6.13zm-9.82 7.93a6.58 6.58 0 016.59 6.6 6.59 6.59 0 11-13.18 0 6.57 6.57 0 016.59-6.6zm-11.63 7.32a8.11 8.11 0 11-8 8.05 8.1 8.1 0 018-8.05zm-119.75-16a6.79 6.79 0 11-6.83 6.73c0-3.72 5.33-6.73 9-6.73zm13 6.85a7.75 7.75 0 107.79 7.8 7.75 7.75 0 00-7.79-7.8zm12.7 22.33a6.91 6.91 0 110-13.81 6.91 6.91 0 110 13.81z" fill="#fff" stroke="#000" stroke-linecap="round" stroke-linejoin="round" stroke-width="2"/></svg>