<svg xmlns="http://www.w3.org/2000/svg" width="300" height="300" viewBox="0 0 300 300"><title>flag-delaware-icon-agriculture</title><path d="M146.92,223.31H254s-13.43,16.52-50.49,16.52c-27.54-.51-47.8-7.78-56.63-16.52" fill="none" stroke="#000" stroke-width="2"/><path d="M254.23,231a14.79,14.79,0,0,0,5-1.36,19.16,19.16,0,0,0,4.35-4.2c-2.25,1.47-5.44,3.43-9.39,5.56" fill="#fff"/><path d="M144.87,229.61c1.78,1.62,3.62,3.25,5.54,4.91h3.64a77.41,77.41,0,0,1-9.18-4.91" fill="#fff"/><path d="M73.12,50.24s-.78-.14-1.56-5.23,3,0,3,0l3.27-4.16s-.32.93-1.87-2.6,4-9.56,7.93-10c0,0-13.84,2.75-18.9,5.3s-8.55,7-6.53,9.86,5.29,7,7.31,11.07" fill="#fff"/><path d="M256.59,101.72c-7.06-12.32-12-16-20.74-17.64l-.24.1a6.29,6.29,0,0,1,.89,3.19A6.46,6.46,0,0,1,224,89.6a43.28,43.28,0,0,0-9.36,7.57c-4.83,5.34-7.9,6.6-10.62,6.1-1.65,2-5.4.38-8.2.38a9,9,0,0,1-6.82-3.09c-4.72-1.39-10.72-6.91-14.36-11.31a6.45,6.45,0,0,1-12.86-.66,5.78,5.78,0,0,1,.05-.71l-.86,1c-1.24-1.59-2.24-1-4-.85-1.86.61-4.59,1.23-6.22,2-2,1.22-2.48,2-4.47,3.31-1.88,1.74-4,4.82-5.61,6.41.38.73-1.85,2.34-1.36,3.31-2.44,4.86-1.64,11.71-.9,16.4a7,7,0,1,1,3.26,13.11,7,7,0,0,1-1.85-.24,32.76,32.76,0,0,1,7.18,7.14c14.21.75,18.43,0,30.14-2.78,13.06-3.08,21.77-4.32,40.43-.61,15.67,3.1,23.44,3.59,32.89,1.49a9,9,0,0,1,2.7-3.07,7,7,0,1,1,4.59-13C259.29,118.62,262.05,111.28,256.59,101.72Z" fill="none" stroke="#000" stroke-width="2"/><path d="M173.51,104.76l-.2,0a.4.4,0,0,0,.2,0" fill="#ffd93c"/><path d="M171.06,101.62a2.32,2.32,0,0,1-.53,0,2.16,2.16,0,0,0,.53,0" fill="#ffd93c"/><path d="M173.37,103.89a3.27,3.27,0,0,1,.44,0,1.57,1.57,0,0,0-.44,0" fill="#ffd93c"/><path d="M172.93,104.72a3,3,0,0,1-.74,0c.21.12.54,0,.74,0" fill="#ffd93c"/><path d="M171,104.78a.13.13,0,0,0,.07,0l0,0-.05.06" fill="#ffd93c"/><path d="M170.69,105.21l.32-.43c-.2.1-.23.06-.32.43" fill="#ffd93c"/><path d="M171.52,105.67c-.18,0-.13,0,0,0" fill="#ffd93c"/><path d="M238.75,95a7.45,7.45,0,0,0-4.23,2c.74-.75,1.74-2.09,2.85-2.2a8.42,8.42,0,0,1,1.87-.14l-.49.37"/><path d="M237.69,97.33c-.75,0-1.25,1.71-2.24.48,1-.25,1.49-1.73,2.24-.48"/><path d="M234.46,97.21c-.5.49-1,1.22-1.75,1,1.25.25.5-1.72,1.75-1"/><path d="M238.55,100c-.24.5-.74.5-1.24.5l.5-2.23c.74-.48,1.74.76.74,1.73"/><path d="M241.24,99.1l.49.26h-1V98.6h1l-.49.5"/><path d="M226.86,107.59l-1.74.75V107.1c.5,0,1.5-.23,1.74.49"/><path d="M236,108.34c0,.74-1,1.22-1.49,1.72-.26-1,1-1,1.49-1.72"/><path d="M232.09,110.32l.75-1.72v1.72h-.75"/><path d="M227.12,110.43v-.75" fill="none" stroke="#000" stroke-width="0.84"/><path d="M223.61,113.15a1.25,1.25,0,0,0-1,.5c-1-1,.24-2,1-2.73v2.23"/><path d="M229.73,113.59c-.5,2.21-2.75,3.45-4.49,4.41-1,0-.49-.49-1.73-1.22v-1.22l.5.24-.5.48,1.49,1.49c.74-.5.24-1.22.24-2-.24,1.71,1,1,1.5,1.47-1-1.71,1.24-3.68,3-3.68"/><path d="M233.27,116.28l-.25-.48c-.25,1-1.49,2.2-2.23,1.71-1-.73,0-2,.74-2.47.74.26,2.49-1,1.74,1.24"/><path d="M223.51,116.55l.5-.27c.49-1.24.49,2.21,1.73.27l-1.24,1.94.5.27c-1-.27-2.49-1.25-2-3,0,.48.24.73.5.73"/><path d="M221,119.5l2-2-1.5,2H221"/><path d="M223.13,120.29l.74-1.72v1.72h-.74"/><path d="M236.57,101.51h.5v-1h.24l-.74,1"/><path d="M234.52,102.19l.5.5-1,1v-1.71h1l-.5.23"/><path d="M169.4,105.71c.55.68,2.78.13,3.06,1.65v1c-1-1.79-3.62-1.1-4.74-1a14.74,14.74,0,0,0-6.55,3c-.7.41-2.37.7-2.79,1.94l.28.82c-1,.28-.14.28-.84,1-1.67-.41-.28,1.25-1.95,1.66v2.09l-1.25-.16c.83-1.37-.83-4.83,1.53-4.56.42-.27.14-.82.28-1.24a7.48,7.48,0,0,1,3.49-3v-1a1.23,1.23,0,0,0,1,.41c0-.27.28-1.79,1.25-1.37,1.27-1.11,2.1-.56,3.21-1.8,1.4,1.66,2.51,0,4.05.56"/><path d="M177.4,120.72c-1.36-.26-1.74,1-2.48,1.72,0-.12-.13-.24-.25-.35a8.73,8.73,0,0,1-5.85,3.31c-.12,1.22-3.35,1-1.49,2.6v.47c0-2.33-3.61-1.6-3.36-4.44h1.12c.88.75,2.12.5,3.36.26.49-.75,1.87-.61,2-1.6l.25.24a40.1,40.1,0,0,0,5.59-5.54,2.24,2.24,0,0,1,1.49,2c-.37.24-.11.62-.11.87"/><path d="M237,107.16v-.61l.37.38-.37.23"/><path d="M173.17,113.82c-.24.26-1.24-2.46-1.11-3.93l1.11,3.93"/><path d="M174.43,116.28c-.5.12-1-.48-1.12-.86v-.73c.62.24.74,1.11,1.12,1.59"/><path d="M171.56,182.32c1.72-.29,4.2.47,2,1.09s-3.41.77-3,0a3.73,3.73,0,0,1,.94-1.09"/><path d="M83.07,36.24a15,15,0,0,1,4.05-3.39c.92-.62,1.09-.31,1.09-.31l.3,1.55a7.33,7.33,0,0,0-2.64.61,23.28,23.28,0,0,0-2.8,1.52"/><path d="M86,36.53c1.71-1.06,3.42,1.09,1.86,1.09a16.06,16.06,0,0,0-3,.3L86,36.53"/><path d="M89.29,44.08c-.84-1.38.47-2,.78-1.08s-.31,1.85-.78,1.08"/><path d="M69.17,32.91c-.87.23-1.74,1.35-2.62,1.35a2.14,2.14,0,0,1,2.62-1.35"/><path d="M71.66,33.66l.74-.75v.75h-.74"/><path d="M71.28,34.76H69.92l-.26-1.36c.13.86,1.12.61,1.62,1.36"/><path d="M66.05,33.78l-.62.72c-.24.5-.12-1.59.62-.72"/><path d="M67.17,38.7c-.12.12-.24.24-.36.24l-.26-.24.38-.49c.12.12.37.24.24.49"/><path d="M64.69,40.42l-.62-.85c.12-.26.87.12.87-.63.62.49-.13,1-.25,1.48"/><path d="M73.65,41.15c.37,0-.88.37-1.12.25l.5-.49.5.49.12-.25"/><path d="M70.28,44.74l-.12.11v-2c.75.12.38,1.36.12,1.86"/><path d="M67.92,44.24c0,.24-.25.73.13.87-.62.23-.62-.37-.62-.87h.49"/><path d="M71.41,46.44l-.13.25-.74-1.35-.62.27.62-.5a3,3,0,0,0,.87,1.33"/><path d="M65.69,48.07c-.63.6-.88.6-1,1.22a.61.61,0,0,0-.37.23v.75c.12-1.72-2.12-2-1.62-3.83.87.76,1.62,2.11,3,1.63"/><path d="M70.16,48.07l1.12-.76.38.76c-.62.11-1,.85-1.5,1.22L69,47.57l-.24.24-.5-1.37c.87,1,1.12.87,1.86,1.63"/><path d="M75.88,30.33c1,1-.62,1.47-.62,2.32,0-.11-.12-.23-.25-.36-.86-.25-.62,1-1.36,1.11l-.12-2c-.76.12-1.5.61-2.11.37l-.37-.37c1.36-1.6,3.35,1.22,4-1.1h.87"/><path d="M74.77,35.87c-.13-.12-.25.11-.38.11,1.25,1.24-.62,3.08,0,4.32-1.12-.5-.5-3.33-2.73-3.33l-.25.14c-.37-.14-.49-.87-1.12-.64-.36.27-.12.75-.12,1.11.87.75,2.24.75,2.86,2.22l-.62.62c-.49-.24-1-1.22-1.86-.87-1.5,1-.88,3.21-1.37,4.93-.87-1.37-.87-4.18-.37-5.8.62-.49,1.62-1.59.86-2.7,1.87-.87,2.87,1.11,4.73,0,.13-.49-.24-.61-.5-1.1h-.62l.26-.87c.74.49,1.61.49,1.24,1.86"/><path d="M66.31,35.11a.63.63,0,0,0,.24.5c-2.23.74.75,2.84-1.86,2.58-.5,1.12-1.25-.35-1.75,1-.12,1.49,2.37,1.61,1.13,3.33.37.12.49.87,1.12.6,0-1.22.74-2.32.86-3.56.26.61,1.75,2,1.62,3.33-.86.62-2.11.87-2.73,1.84-.87-1.72-1.62-3.32-3.11-4.42-.37.61-.13,1.46-.25,2.21-.25,0-.38-.12-.38-.26l-.49.38c1.12.25-.5.48,0,1-.75,0-.38-1.22-.5-1.36V42c.12,0,.12.75.75.5,1.12-.75-1.24-1.11-.49-2.21,1-2.84,5.35-1.62,5.35-5.19h.49"/><path d="M68.05,37c-.25.14-.5.61-.88.37s.88-1.24.5-1.73c.38.12.5.74.38,1.36"/><path d="M70.54,42.27l.5-.87.87,1.25-1.37-.38"/><path d="M68.05,49.17c-.5-.14-1.12.12-1.5-.25L65.81,50l-.38-.5c.13-1.34,2.74-.72,1.74-2.81a3.12,3.12,0,0,1,.88,2.46"/><path d="M64.32,37c-1.12.14-1.38-.5-1.62-1.1.62,1.24,1.12-.62,1.86,0l.13-.5c-.13.61.37,1.24-.37,1.6"/><path d="M61.58,37.58c-.87,0-.62,1.48-1.37,1.73a5,5,0,0,1,1-2c0,.12.13.24.38.24"/><path d="M62.08,45.61,61.58,44l.5.87v.76"/><path d="M75.26,41.52c.25.87-.87.75-.87,1.13a.73.73,0,0,1,.25-1.25c0,.26.37.12.62.12"/><path d="M62.94,43.61a.57.57,0,0,1-.24.37l-.62-1.1c.62-.12.62.23.86.73"/><path d="M64.69,47.06h-.37l-.25-1.45c.12.35,1.49.83.62,1.45"/><path d="M149,93.88l.59,1.69,1.82,0L150,96.67l.52,1.74-1.49-1-1.49,1,.52-1.74-1.44-1.06,1.82,0,.58-1.69"/><path d="M144.19,100.58l.59,1.7,1.81,0-1.43,1.08.52,1.71-1.49-1-1.49,1,.52-1.71-1.45-1.08,1.82,0,.59-1.7"/><path d="M142.59,108.05l.6,1.69,1.81,0-1.44,1.1.53,1.72-1.5-1-1.48,1,.52-1.72-1.45-1.1,1.82,0,.59-1.69"/><path d="M155.18,122.46l.6,1.7,1.82,0-1.45,1.08.53,1.71-1.5-1-1.49,1,.52-1.71-1.44-1.08,1.82,0,.58-1.7"/><path d="M151,129.29l.59,1.7,1.81,0L152,132.12l.53,1.73-1.49-1-1.49,1,.51-1.73L148.57,131l1.81,0,.6-1.7"/><path d="M161.11,130.28l.59,1.7,1.82,0-1.45,1.08.53,1.71-1.49-1-1.5,1,.53-1.71L158.7,132l1.81,0,.59-1.7"/><path d="M156.41,133.2l.6,1.71,1.82,0-1.45,1.1.53,1.72-1.5-1-1.49,1,.52-1.72-1.44-1.1,1.81,0,.59-1.71"/><path d="M182.83,102.67l.6,1.69,1.81,0-1.44,1.08.52,1.72-1.49-1-1.49,1,.52-1.72-1.44-1.08,1.81,0,.59-1.69"/><path d="M178.12,109.06l.59,1.69,1.81,0-1.43,1.08.52,1.72-1.49-1-1.49,1,.51-1.72-1.43-1.08,1.8,0,.6-1.69"/><path d="M188.75,107.8l.6,1.69,1.82,0-1.45,1.09.52,1.72-1.49-1-1.49,1,.52-1.72-1.43-1.09,1.81,0,.58-1.69"/><path d="M200.58,109.06l.6,1.69,1.81,0-1.44,1.08.52,1.72-1.49-1-1.49,1,.52-1.72-1.45-1.08,1.82,0,.59-1.69"/><path d="M193.94,113.9l.59,1.7,1.82,0-1.45,1.08.53,1.71-1.49-1-1.49,1,.51-1.71-1.44-1.08,1.82,0,.59-1.7"/><path d="M182.34,116.11l.59,1.7,1.81,0-1.44,1.08.53,1.71-1.49-1-1.49,1,.52-1.71-1.45-1.08,1.82,0,.6-1.7"/><path d="M189.88,121.84l.59,1.7,1.82,0-1.45,1.08.53,1.72-1.49-1-1.49,1,.52-1.72-1.44-1.08,1.81,0,.59-1.7"/><path d="M194.9,126.4l.6,1.71,1.82,0-1.45,1.11.53,1.72-1.5-1.05L193.41,131l.52-1.72-1.44-1.11,1.82,0,.58-1.71"/><path d="M203.56,123.68l.61,1.7,1.81,0-1.45,1.08.52,1.71-1.49-1-1.48,1,.52-1.71-1.45-1.08,1.81,0,.59-1.7"/><path d="M222.06,95.87l.59,1.69,1.81,0L223,98.68l.53,1.72-1.49-1-1.49,1,.52-1.72-1.45-1.08,1.82,0,.6-1.69"/><path d="M246.76,98l.6,1.69,1.82,0-1.45,1.06.52,1.72-1.49-1-1.49,1,.52-1.72-1.43-1.06,1.8,0,.59-1.69"/><path d="M251,104.62l.59,1.69,1.82,0-1.45,1.08.53,1.72-1.49-1-1.49,1,.52-1.72-1.43-1.08,1.81,0,.58-1.69"/><path d="M245.77,111l.6,1.7,1.82,0-1.45,1.08.53,1.74-1.5-1-1.48,1,.52-1.74-1.44-1.08,1.81,0,.59-1.7"/><path d="M252.66,113l.61,1.7,1.8,0-1.44,1.09.51,1.71-1.49-1-1.48,1,.53-1.71-1.45-1.09,1.81,0,.59-1.7"/><path d="M241.83,131l.6,1.69,1.8,0-1.43,1.09.51,1.72-1.49-1-1.49,1,.53-1.72-1.45-1.09,1.82,0,.59-1.69"/><path d="M231.7,132l.6,1.71,1.82,0-1.45,1.1.52,1.72-1.49-1-1.49,1,.52-1.72-1.44-1.1,1.81,0,.59-1.71"/><path d="M222.08,130.28l.6,1.7,1.81,0-1.44,1.08.51,1.71-1.49-1-1.49,1,.53-1.71L219.66,132l1.82,0,.59-1.7"/><path d="M156.89,90.49l.59,1.69,1.82,0-1.45,1.08.53,1.72-1.49-1-1.49,1,.51-1.72-1.43-1.08,1.81,0,.59-1.69"/><path d="M41.76,276.6l.82-1.24c6.22-2.44,10.79-1.22,16.59-4.51s3.33-3.69,13.28.83c1.3.59,3.45,1.81,6.32,3.48" fill="none" stroke="#000" stroke-linecap="round" stroke-width="2"/><path d="M226.77,120.58c3.2-2.13,5.95-4,8.23-5.26,2.7-4.23,4.33-9,7.63-14.74,3.88-6.76-4.2-6.62-8.25-3.68A94.36,94.36,0,0,0,221,108.73C220.4,116.8,217.52,126.76,226.77,120.58ZM198.47,122c5.28-4.78,8.4-8,10.89-12.93s12.12-9.1,11.65-.93-3.73,18.78,5.75,12.45,15.09-10.44,15.86-3.21.16,6.92-1.86,9.07a35.3,35.3,0,0,1-3.57,3.39s.15-4.61.15-7.69-.62-4.16-6.06.93-8.56,7.52-12,6.92-3.27-.31-3.27-.31l-2.49,2.93-2.33-1.4,2.64-4s-2.49-2-1.09-8.61,3.58-13.38-.77-7.38S207.33,118.76,198.47,122Zm-43.16-6c1.87.85,7.55,4.24,9.8,6.55m-7.39-9.47c3.11,2.84,7.15,5.92,9.56,8.62m-6.84-11.31c1.24,1.53,7.63,9.31,7.63,9.31m-4.37-11.39a73.17,73.17,0,0,0,6.15,10.92m-3-12.23a29.74,29.74,0,0,0,4.74,10.94m-2.18-11.08c.08,2.83,2.49,9.14,3.34,10.38m-.54-5.54a68.73,68.73,0,0,0-2.33-7.31,2,2,0,0,1,1.46.22,1.64,1.64,0,0,1-.23.16c.25.45.61.47,1,.7-.06.19-.37.23-.54.23l.29,0c.12,1.1.62.11.62,1.22l.74-.38c-.24,0-.62,0-.74-.24-.37-.74,1.73-.37,1.37-1.1a5.59,5.59,0,0,1-2.5-.26,1.32,1.32,0,0,1,.88-.21.2.2,0,0,1-.13-.16l.12-.24c.5,0,1.25-.26,1.63.24-.09.08-.17.18-.29.18.7.1,1.51-.29,1.4-.42l-1.74-.26c0-.09.07-.15.19-.19a.58.58,0,0,1-.69-.27c.25,0,.25-.39.25-.64-1-.35-1.24.64-2,.25.49-.25-.38-.72.36-.72-.24,0-.48.12-.61-.13l.25-.25c-.5-.12-1.24.13-1.62-.23a1.69,1.69,0,0,1,1.21-.22.52.52,0,0,1-.33-.27l.24-.14h-.87l.24.14c-1.23.72-.61-.38-1.36-.62a2.53,2.53,0,0,1-2.48-.87c-.76.12-1.75-.37-2.25.36,0-.73-1.36-.24-1.62-.36a.61.61,0,0,1,.26-.49c-1.13.61-1.75-1.1-2.61-.25l-.26-.12c0,.12,0,.49-.24.61l-.5-.49c.12.37-.26.49-.38.74l-.49-.49-.24.24c-.38.37-2.74,1.86-3.11,1.74l.24.23c-1.24,1-3.35,3-3.85,4.07l.24.13c-1.24.12-.86.73-1.36,1.11.25.72-.75,1.1,0,2.09l-.87.37.5.5-.26.23c.26,0,.75-.23.88.12l-.38.49.13.26-1.25,1.34h.62l-.62.6c.12,0,.5,0,.62.27.38-.15-1.24,1.34.26,1.47a4.24,4.24,0,0,0,.24,2.21h.38c.36.49,1.86.14,2.23,1.1.87-.11,1.49,1.48,2.24.24a3.44,3.44,0,0,1,0-.71c4.47,1.28,7.09,2.6,9.24,5.54,2.49,3.37,3.74,2.15,4.05,5.83s.31,5.25.31,5.25,2.8.91,7.15-1.56,5.6-3.37,8.4-8C177.47,120.29,173.43,116.59,172.18,111.67Zm-4,13.92a25.38,25.38,0,0,1,1.63,8.4m.32-9h0a57.43,57.43,0,0,1,3.41,8.4m-1.63-9.7c1.87,2.38,4.12,8.3,4.12,8.3m-2.56-9.31c1.31,1.55,4.74,5.94,5.75,6.76m-3.73-8.06a46.76,46.76,0,0,0,6.45,5.15m51.48,96.21c.37-1.62,1.42-3.23,1.3-5.09.62-2.46,1.75-5.42,1.25-7.39-4.11-5.27-3.49-11.68-2.25-17.48a7.83,7.83,0,0,1,1.37,4.18c.87,6.4.24,13.56,5.84,17.73,1.62-.37,3.11.62,4.73.87-.5-4.55-6.59-5-6.72-10.09-1.74-7.16.25-15.91-5-22.43-3.23-1.34-8.09-.24-11.57-.24-7.34.24-16.55,2.47-24-.23-4.11-3.33-11.33-.75-16.18-3.1-4.72-.87-.75-5.28-4.23-7.25-2.24.61-1,2.82-2.61,3.92a9.58,9.58,0,0,1-9.95-1.1l-.13-.24c-1.23.74-.86,2.46-1,3.31.49,2.23,4.85,1.86,1.86,4.46a28.21,28.21,0,0,1-5.54,3.93c-1,1.18,0,1.65.16,2.4a4.22,4.22,0,0,0,1.58,3.41c3.29.54,8-1.07,11.14,1.08,2.49.62,4.61,3.33,5.35,5.54,2.25,4.06,2.87,9.48,8.09,11.57,0,4.06-.12,8.76-4.23,10.58-.63.75-.84,1.7-1.59,2l6.56-.1c2.37-2.33.76-5.77,2.87-8.5,1.12.12,1.62,1.62,2,2.46,1.36,2.24-1.48,3.83-1.48,6l5.09-.06c0-1.6,1.62-3.37.62-5.48-.62-2.46-2-5.3-1.24-7.75,3.86-1.24,7.21-.63,11.2-.49l.86,1.1c2.11-1.85,4.6-2.7,7.09-3.57,1,1.61.13,3.83.75,5.54-.87,3.2-2.86,6.91-6.09,8.75,0,0-.35,1.23-.67,2l6.6-.1-.08-.79c2-4.81,7.58-5.42,7.83-11.08.24-1.22,1.74-1,2.49-.75,1.12,1.1,3.11.62,3.6,2.23a10,10,0,0,1-2.48,10l-.59.29h7.38Z" fill="none" stroke="#000" stroke-width="2"/><path d="M179.49,176.94a3.24,3.24,0,0,1-1.71,2.31M160.52,188a1.44,1.44,0,0,0,1.4.75l1.56-.62m28,26.8-3.26-9.86m26.44,1.4s3.42-2,5-1.09,1.71.62,3,2.62a6.18,6.18,0,0,0,3.73,2.47M178.4,182a10.87,10.87,0,0,0,4.83-1.86m12.28,29.42a45.34,45.34,0,0,0,.31-5.09m38.26-11.39-1.24-5.54M42.17,277l-5.39-3.29c-.41-2.47-2.9-1.64,2.07-3.69s5.81-2.46,9.13-4.12a35.43,35.43,0,0,0,6.22-4.1l-2.07-1.23s.82-7.8-2.49-20.93-9.54-30-5.81-40.64c2.42-6.94,4.67-17,6.29-25.43m2.17-12.68A123,123,0,0,0,53,142.76c0-2.88,2.07-6.56,2.07-6.56s8.72-.42,14.11-2.47S77,130.46,77,130.46s.84,1.64,8.71,2a64.44,64.44,0,0,0,15.35-1.24l2.07,4.51s-2.48,7,1.25,9a22.41,22.41,0,0,1,5.81,4.54s2.89,3.27,1.64,16.42-1,8.57-2.06,15.59c-1.24,8.61-.42,8.61-2.08,15.2s-3.31,7.78-.83,20.1,4.57,14,4.57,25.45,1.25,19.71-.42,23.4-2.9,3.29-2.9,3.29l5.81,2.46c-6.08,10.1-22.81,7-22.81,7s-2.48-.83-1.65-4.1l1.24-4.93a6.06,6.06,0,0,1-3.32-6.15c.42-4.51,2.91-7.8,0-17.25s-3.31-11.9-2.89-19.3-.42-8.61-2.5-15.18-1.65-16.83-2.49-20.12a21.29,21.29,0,0,0-2.07-5.34s-.81,7-2.89,9.46-1.25,3.69-3.32,7.37-2.07,6.59-1.66,7.81,0,4.93,0,4.93,2.49,3.69,3.32,11.49.83,4.1,2.07,15.18,5,23.81,2.9,23.81-2.07.83-2.07.83l3,8.41M54.61,261.82c3.37,1.54,8.51,2.45,13.3,3.09m5.14.66c1.14.13,1.75.21,2.71.35m14.93,2.88c5.81.81,11.62,2.05,17.42-.41" fill="none" stroke="#000" stroke-linecap="round" stroke-width="2"/><path d="M77,67.22s2.91,2,1.25,15.6-.83,18.07-.83,28.35-.83,19.27-.83,19.27m22-68.95c-2.5,3.69-5.4,12.29-7.48,18.45s-4.55,2.88-6.62.83-5-4.91-5.82-8.21a26.07,26.07,0,0,1-4.14,6.16C71.61,82,70,81.6,65.82,77.48s-4.56-6.57-6.64-9.43a26.2,26.2,0,0,0-5.8-5.34m47.68,67.75c-.83-1.65,0-2.87,2.9-3.29a16.3,16.3,0,0,0,4.57-1.24c5.39-1.23,8.28.42,4.55-5.33s-5.39-6.56-6.22-9.85a29.51,29.51,0,0,1-.82-3.69s-3.73,4.11-1.25,7,2.49,4.51,2.9,7a29.76,29.76,0,0,1,.42,4.49M23.51,80s-2.91,6.56-1.24,9,3.73,6.16,6.21,6.57,3.74-.1,5.82-3.8M25.37,79s1.87-8,3.74-10.17S30.35,67,32.22,66.1s2.48-.61,5.29.3,6.45-.54,4.89,5c.15,1.24-.07,4.24-1.08,5a5.78,5.78,0,0,1-1.33,5C39.76,83.48,37.58,85,37.58,85l-.39-.93m5.09-11.95L38.75,70.4a6.31,6.31,0,0,1,1.45,0,3.11,3.11,0,0,1,2,.92m-.83,5.44A6.35,6.35,0,0,0,39,75.54a10.91,10.91,0,0,1-2.69-1.12s1.65-1.24,1.65.41M40,81.5l-4.45-2m-1.47-14-.94-4.82,13.45-2.38L44.66,47.73a8.53,8.53,0,0,0-16.57-1.81l-1.4.21a8.5,8.5,0,0,0-14.48,8.23L14,64.11l14.87-2.62L30,67.7M74.17,272.86l-36.54-189m-3.93,3L69,270M55.86,135.37c-5-1.64-7.06-6.56-7.88-11.5,0,0,0,1-2.39,1.31m57.54,11c2.07,1.63,2.91,2.87,5,5.75s4.15,5.33,4.15,5.33,2.49-1.64,7.88-4.94,7.46-6.64,10.37-10.66a13.7,13.7,0,0,1,2.42-2l-7.15-12V104.5a21.89,21.89,0,0,0-.26-7.29c-.82-3.7-6.22-11.91-7.46-16.42s-1.65-4.12-3.31-5.75-1.67-2.06-4.15-7-5-5.32-7.47-4.51-2.9-.81-4.55-2.46-2.5-1.22-6.64-2a26.42,26.42,0,0,1-8.3-3.69A25.37,25.37,0,0,0,82.81,59c-.4,2.46-2.08,4.51-2.9,6.56s-3.32,2-5,.83-2.48-2-5.8-6.15-3.32-5.76-3.32-5.76S61.67,57.38,59.18,59s-4.56.83-5.39,2.88-1.65,1.22-5,2-4.13,2.47-3.73,4.93S44.27,78.72,43,84.47a50.15,50.15,0,0,1-3.72,10.67L37.21,84.06a33.58,33.58,0,0,0-5,4.53,27.72,27.72,0,0,0-2.91,4.5S28.09,91.45,26,89s-2.49-2.87-1.25-5.34a7.48,7.48,0,0,0,.83-4.51,10.17,10.17,0,0,1-3.73,1.24c-2.49.42-1.25,2-2.49,4.52s-.41,3.7,0,5.73,6.22,19.31,9.12,27.11,4.57,6.56,12,7.38M73.12,50.24s-.47-.7-1.56-5.23c-1.19-5,3,0,3,0l3.19-4a6.86,6.86,0,0,1-1.79-2.75c-1.6-3.55,4-9.56,7.93-10,0,0-13.84,2.75-18.9,5.3s-8.55,7-6.53,9.86,5.29,7,7.31,11.07a35.82,35.82,0,0,0,2.1,4.32c.47.45,1.17,1.07,1.17,1.07s-.62-3.3-1-4.7-.47-2.39.93-3S73.12,50.24,73.12,50.24Zm10.57,4a15.6,15.6,0,0,0,3.27.9c1.87.32,4.82.32,4.51-2.15s-.32-4.46-1.87-4.77a3.73,3.73,0,0,0,2.34-3.07c.14-1.54-.32-1.85.61-2.17s1.87-.14.31-2.46a15.32,15.32,0,0,1-2.64-6.16c-.31-1.82-2.49-6.62-6.38-6.14M73.27,49.94c.47.9,1.25,1.54,1.87.3a12.35,12.35,0,0,1,1.24-2" fill="none" stroke="#000" stroke-width="2"/><path d="M95.05,24.12c-1.11,0-2.91.23-5.12.52a13.28,13.28,0,0,1-4.22-6.47c-.61-2.47-.83-3.27-6.22-2.67s-22.17,5.73-24.88,7.4S53,25.14,53.17,26.79c.17,1.41,1.24,3.1,1.42,5.46-1.11.38-2.09.75-2.88,1.11C43.42,37.07,40.93,38.9,43.63,42s5,2.27,7.87,2.05a41.49,41.49,0,0,0,6.22-1s-.4-4.3,2.29-6.15,5.59-4.73,10.15-5.54,11-2.88,12.44-3.07,4.15-.83,5.61,2.05a29.77,29.77,0,0,1,2.07,5.32c7.88-2.86,3.11.22,8.3-2.66S101.47,23.92,95.05,24.12Z" fill="none" stroke="#000" stroke-width="2"/></svg>