<svg xmlns="http://www.w3.org/2000/svg" width="236" height="300" viewBox="0 0 236 300"><title>flag-wisconsin-icon-1848</title><path d="M37.18,159.84c0,7-.32,14.06.16,21,.24,3.36,1.82,8.22-2.38,9-3.89.71-8.2-.32-12.14-.32-1.65,0-2.77.43-3.65-1-1-1.7-.13-6.06-.13-8.05V129.8c-5,3.9-10.24,7.62-16.14,10,0-3.15,0-6.3,0-9.45,0-2-.76-4.93-.25-6.88.92-3.49,6.26-4.31,9.07-6.06,3.54-2.21,6.7-6.57,10.43-8.18S33,109,37.18,109Z" fill="none" stroke="#000" stroke-miterlimit="10" stroke-width="4"/><path d="M73,107.23c-11,.41-24.43,4.16-27.08,16.42a22,22,0,0,0,2,14.67,17.1,17.1,0,0,0,4.84,5.78c1,.71,6,2.63,6,2.92-12.1,1.91-14.91,16.72-12.2,26.71,3.56,13.13,17.54,18.21,30,17.42,12.14-.77,24.41-6.09,26.84-19.16,1.74-9.33-.32-24.46-12-25.93,10.51-1.83,13.42-15.45,10.92-24.24C98.77,109.38,84.12,106.82,73,107.23Zm.67,12.93c13.8-.82,14.87,21.49,1.32,22.1S60.29,120.92,73.62,120.16ZM74,154c13.83-.82,15,21.5,1.37,22.1S60.7,154.78,74,154Z" fill="none" stroke="#000" stroke-miterlimit="10" stroke-width="4"/><path d="M108.22,158.91c6.39-11.41,23.53-45.09,27.17-48.53,3-2.85,9.4-1.4,13.28-1.43,2.35,0,7.75-1.46,9.31.61.86,1.15-.61,43.17-.32,47.05.27,3.64,2.48,2.76,5.56,2.37,5.1-.64,5.32.81,5,5.66-.14,2.19,1.22,7,.07,8.78-1.67,2.59-6.34-.32-8.73.39-6,1.77,3.41,14.56-3.82,16-3,.59-6.23-.3-9.26-.25-3.22,0-6.63,1.77-6.93-2.26-.23-3.14,1.88-11.53-1-13.22-1.72-1-29.62.72-30.51-.5S108.22,161.86,108.22,158.91Zm31.69,0V129c-3.28,3.09-5.19,9.74-7.23,13.7l-8.33,16.23Z" fill="none" stroke="#000" stroke-miterlimit="10" stroke-width="4"/><path d="M201.75,108.77c-11,.17-24.93,3.58-28,15.81a22.05,22.05,0,0,0,1.72,15,17.23,17.23,0,0,0,4.64,5.81c.83.65,6.35,3,6.35,3.19-12.09,1.91-14.85,16.74-12.14,26.71,3.55,13.12,17.49,18.21,29.94,17.42,12.14-.77,24.42-6.1,26.85-19.16,1.74-9.34-.31-24.51-12-26,10.35-1.81,13.28-15,11-23.72C226.94,111.47,212.87,108.57,201.75,108.77Zm-.72,13c13.76-1.07,15.47,20.86,2.17,22.08C189.49,145.07,187.65,122.78,201,121.74Zm.72,33.85c13.8-.81,14.87,21.5,1.32,22.1S188.47,156.36,201.75,155.59Z" fill="none" stroke="#000" stroke-miterlimit="10" stroke-width="4"/></svg>