<svg xmlns="http://www.w3.org/2000/svg" width="600" height="315.79" viewBox="0 0 600 315.79"><defs><clipPath id="a"><path fill="none" d="M0 0h170.04v170.04H0z"/></clipPath></defs><path d="M0 0h600v315.79H0z" fill="#bf0a30"/><path d="M0 24.29h600v24.29H0zM0 72.87h600v24.3H0zM0 121.46h600v24.29H0zM0 170h600v24.29H0zM0 218.62h600v24.3H0zM0 267.21h600v24.29H0z" fill="#fff"/><g clip-path="url(#a)"><path fill="#002868" d="M0 0h170.04v170.04H0z"/><path d="M0 85h170M85 0v170"/><path fill="#fff" d="M105.26 170.04H64.78v-64.78H0V64.78h64.78V0h40.48v64.78h64.78v40.48h-64.78v64.78z"/><path d="M0 0l170 170m0-170L0 170"/><path fill="#fff" d="M161.45 178.63L85.02 102.2 8.59 178.63l-17.18-17.18 76.43-76.43L-8.59 8.59 8.59-8.59l76.43 76.43 76.43-76.43 17.18 17.18-76.43 76.43 76.43 76.43-17.18 17.18z"/><path d="M0 85h170M85 0v170"/><path fill="#bf0a30" d="M97.17 170.04H72.88V97.17H0V72.88h72.88V0h24.29v72.88h72.87v24.29H97.17v72.87z"/></g></svg>