<svg xmlns="http://www.w3.org/2000/svg" width="1200px" height="800px" viewBox="0 0 1200 800">
<rect fill="#fff" width="1200" height="800"/>
<polygon fill="#002868" points="0,0 1160,0 600,800 0,800"/>
<polygon fill="#BF0A30" points="0,0 600,0 40,800 0,800"/>
<path fill="#002868" d="M999.711 526.98c0,8.60433 5.62441,9.35551 13.0524,9.35551l14.0646 0 0 8.88071 -71.0799 0 0 -8.88071 12.6744 0c7.45157,0 13.1469,-0.702756 13.1469,-9.35551l0 -87.2303c0,-5.80157 -4.05945,-6.19488 -8.9752,-6.19488l-18.1417 0 0 -8.15315c13.9181,-0.777165 29.8287,-3.6874 40.1705,-13.8756l5.08819 0 0 115.454zm67.8567 -45.9224c7.71378,-10.6866 18.5421,-17.9516 32.048,-17.9516 23.1307,0 36.2197,17.3752 36.2197,39.4429 0,25.5 -16.8567,45.9224 -43.2366,45.9224 -34.0524,0 -45.4795,-34.2236 -45.4795,-62.7673 0,-22.0606 5.0563,-39.9177 15.1701,-53.6339 12.9437,-17.4591 41.6717,-29.0043 60.7465,-14.0965 7.17874,5.57126 11.9657,18.2409 4.9937,25.8213 -4.19409,4.6252 -11.6575,4.77756 -16.0559,0.379134 -4.11142,-4.11024 -3.84331,-9.69331 -1.20118,-14.4744 1.32756,-2.43425 1.99134,-3.79252 1.99134,-4.07717 0,-4.69961 -8.58071,-5.56299 -11.7567,-5.56299 -10.6843,0 -18.9012,5.24646 -24.6531,15.7394 -5.72126,10.4929 -8.65984,25.5685 -8.78622,45.2587zm1.29567 24.5256c0,14.902 4.97598,34.3547 23.3563,34.3547 18.4039,0 23.8949,-18.3035 23.8949,-33.5965 0,-14.498 -4.80118,-31.6677 -22.3146,-31.6677 -17.1756,0 -24.9366,15.6591 -24.9366,30.9094z"/>
<path fill="gold" d="M261.092 631.394l-26.1496 -45.2929 -13.278 7.66654 -5.32795 -9.22795 35.5181 -20.5063 5.32795 9.22795 -13.2402 7.64409 26.1496 45.2929 -9 5.19567zm28.1173 -16.2331l-31.4776 -54.5209 9.00118 -5.19685 12.385 21.4524 17.7083 -10.2236 -12.3862 -21.4524 9.0378 -5.21811 31.4776 54.5209 -9.0378 5.21811 -13.7634 -23.8394 -17.7083 10.2236 13.7646 23.8394 -9.00118 5.19685zm45.0768 -26.0256l-31.4776 -54.5209 33.1819 -19.1575 5.32795 9.22795 -24.1807 13.9618 6.97677 12.085 22.4681 -12.972 5.29843 9.17717 -22.4681 12.972 8.56772 14.8394 24.9945 -14.4307 5.30669 9.19134 -33.9957 19.6264zm70.4008 -40.6453l-47.4343 -45.3083 9.78661 -5.65039 34.598 33.8303 -12.3697 -46.6642 9.59646 -5.54055 15.4949 63.7488 -9.67205 5.58425zm12.9024 -43.3488c-8.01024,-13.872 -10.7823,-31.8071 5.21339,-41.0409 15.6768,-9.05197 30.137,2.1248 37.9594,15.6756 7.88976,13.6642 10.3157,31.6193 -5.37402,40.6772 -15.6083,9.00945 -29.8807,-1.59921 -37.7988,-15.3118zm9.07913 -5.73189c4.49055,7.77638 13.4858,17.2984 23.289,11.6374 9.94016,-5.7378 5.83819,-18.2965 1.32992,-26.1047 -4.59331,-7.95709 -13.0512,-17.2087 -23.0161,-11.4579 -10.037,5.79567 -6.22677,17.9138 -1.60276,25.9252zm57.1146 3.41457l-31.2213 -54.078 9 -5.19567 25.9157 44.8866 22.4563 -12.965 5.30551 9.19016 -31.4563 18.1618zm6.35079 -76.3606l9 -5.19685 17.0469 29.5264c2.65276,4.59567 4.47756,7.5189 5.50512,8.77087 3.48189,4.26024 8.33976,5.25591 13.1327,2.48858 3.61772,-2.08701 5.78268,-5.52992 4.75276,-9.76772 -0.464173,-1.91575 -2.26772,-5.59724 -5.40472,-11.0291l-17.413 -30.1618 9.0378 -5.21811 16.5343 28.637c4.22126,7.3122 6.88346,12.8339 7.98543,16.5295 2.56417,8.68701 -2.45551,16.0264 -9.79606,20.263 -7.2815,4.20354 -15.1524,5.61024 -22.1303,0.0153543 -2.93268,-2.35276 -6.74764,-7.61339 -11.4602,-15.776l-16.7906 -29.0811zm76.7315 28.3925l-31.4776 -54.5209 8.78504 -5.07165 39.3106 25.8449 -21.0189 -36.4051 8.40354 -4.85197 31.4776 54.5209 -9.07559 5.23937 -38.5287 -25.1634 20.5276 35.5559 -8.40354 4.85197zm55.0417 -31.7776l-26.1496 -45.2929 -13.278 7.66535 -5.32795 -9.22795 35.5181 -20.5063 5.32795 9.22795 -13.2402 7.64409 26.1496 45.2929 -9 5.19685zm28.1173 -16.2343l-31.4776 -54.5209 33.1819 -19.1575 5.32795 9.22795 -24.1819 13.9618 6.97795 12.085 22.4681 -12.972 5.29843 9.17717 -22.4681 12.972 8.56772 14.8394 24.9945 -14.4307 5.30551 9.19134 -33.9945 19.6264zm41.6492 -24.0461l-31.4776 -54.5209 33.1819 -19.1575 5.32795 9.22795 -24.1819 13.9618 6.97795 12.085 22.4681 -12.972 5.29843 9.17717 -22.4681 12.972 8.56772 14.8394 24.9945 -14.4307 5.30551 9.19134 -33.9945 19.6264zm41.6492 -24.0461l-31.4776 -54.5209 19.0028 -10.9713c6.38386,-3.68504 12.463,-6.55866 19.3394,-2.41535 6.14882,3.69094 10.9394,12.4028 9.91063,19.5992 -0.555118,3.78898 -2.51575,7.10551 -5.89252,9.93425 6.80433,0.701575 12.072,4.0252 17.7189,7.67717l11.5618 7.50827 -10.7386 6.20079 -13.4031 -8.08819c-3.40276,-2.06339 -9.00827,-6.42638 -13.4138,-5.96457 -2.39882,0.277559 -4.68307,1.89094 -6.74882,3.08386l13.1409 22.761 -9 5.19567zm-9.1689 -36.665c4.41378,-2.54764 10.8165,-5.19921 14.2016,-8.90906 4.25315,-4.67126 -1.39488,-14.0988 -7.55315,-12.8197 -4.63346,0.947244 -10.422,5.47677 -14.6291,7.90512l7.98071 13.8236zm59.074 -15.7925l8.20157 -6.13937c5.01378,6.39685 10.278,8.01142 15.7878,4.83071 4.46693,-2.57835 7.30748,-7.59921 4.47638,-12.5031 -1.40197,-2.43071 -3.58346,-3.55984 -6.37559,-3.39331 -6.78661,0.406299 -13.4539,3.87638 -20.3528,2.94803 -11.9764,-1.50591 -19.9193,-16.5791 -13.2094,-26.9858 4.41378,-6.74528 14.5831,-11.7343 22.5437,-9.7311 4.60039,1.13504 8.52047,4.32165 11.7508,9.53268l-8.74843 5.69291c-3.55866,-4.57559 -7.49055,-6.18661 -12.7394,-3.15591 -3.27638,1.89213 -6.82677,5.70472 -4.5189,9.70157 2.75079,4.76339 10.0547,2.33622 14.1,1.32165 6.8752,-1.69134 13.9358,-2.91378 20.1071,1.40551 6.64016,4.66654 10.6453,13.9063 8.94449,21.8835 -1.05945,4.90984 -4.68543,9.15236 -10.8791,12.7287 -10.9547,6.3248 -20.6598,3.61772 -29.0882,-8.13661zm64.226 -13.4362l-26.1496 -45.2929 -13.278 7.66654 -5.32795 -9.22795 35.5181 -20.5063 5.32795 9.22795 -13.2402 7.64409 26.1496 45.2929 -9 5.19567zm63.8256 -36.8492l-9.8126 5.66457 -11.0634 -10.1315 -17.8476 10.3051 3.47126 14.5146 -9.59646 5.54055 -14.0728 -64.5697 9.55866 -5.51811 49.363 44.1945zm-29.0681 -11.974l-17.8264 -16.6866 5.62677 23.7295 12.1996 -7.04291zm39.3366 6.04488l-26.1496 -45.2929 -13.278 7.66654 -5.32795 -9.22795 35.5181 -20.5063 5.32795 9.22795 -13.2402 7.64409 26.1496 45.2929 -9 5.19567zm28.1173 -16.2331l-31.4776 -54.5209 33.1819 -19.1575 5.32795 9.22795 -24.1819 13.9606 6.97795 12.085 22.4681 -12.972 5.29843 9.17717 -22.4681 12.972 8.56772 14.8406 24.9945 -14.4307 5.30551 9.19016 -33.9945 19.6276z"/>
</svg>