<svg xmlns="http://www.w3.org/2000/svg" xmlns:xlink="http://www.w3.org/1999/xlink" width="600" height="340" viewBox="0 0 600 340"><defs><clipPath id="a"><polygon points="156.14 26.22 443.7 26.22 443.86 313.65 156.14 313.78 156.14 26.22" fill="none" stroke="#000" stroke-linecap="round" stroke-linejoin="round" stroke-width="2"/></clipPath></defs><title>flag-mississippi-southern-cross</title><g clip-path="url(#a)"><polygon points="423.13 334.38 299.93 211.18 176.72 334.38 135.56 293.22 258.76 170.01 135.56 46.8 176.72 5.64 299.93 128.84 423.13 5.64 464.3 46.8 341.09 170.01 464.3 293.22 423.13 334.38" fill="none" stroke="#000" stroke-linecap="round" stroke-linejoin="round" stroke-width="2"/><polygon points="428.61 328.91 299.93 200.23 171.25 328.91 141.03 298.69 269.7 170.01 141.03 41.33 171.25 11.11 299.93 139.79 428.61 11.11 458.83 41.33 330.15 170.01 458.83 298.69 428.61 328.91" fill="none" stroke="#000" stroke-linecap="round" stroke-linejoin="round" stroke-width="2"/><polygon points="184.9 40.6 181.67 50.53 171.22 50.53 179.67 56.67 176.44 66.61 184.9 60.47 193.35 66.61 190.12 56.67 198.57 50.53 188.12 50.53 184.9 40.6" fill="none" stroke="#000" stroke-linecap="round" stroke-linejoin="round" stroke-width="2"/><polygon points="223.24 78.94 220.01 88.88 209.56 88.88 218.02 95.02 214.79 104.95 223.24 98.81 231.69 104.95 228.46 95.02 236.91 88.88 226.47 88.88 223.24 78.94" fill="none" stroke="#000" stroke-linecap="round" stroke-linejoin="round" stroke-width="2"/><polygon points="261.58 117.29 258.36 127.22 247.91 127.22 256.36 133.36 253.13 143.3 261.58 137.16 270.04 143.3 266.81 133.36 275.26 127.22 264.81 127.22 261.58 117.29" fill="none" stroke="#000" stroke-linecap="round" stroke-linejoin="round" stroke-width="2"/><polygon points="341.5 203.91 338.27 193.97 335.04 203.91 324.6 203.91 333.05 210.05 329.82 219.99 338.27 213.84 346.72 219.99 343.5 210.05 351.95 203.91 341.5 203.91" fill="none" stroke="#000" stroke-linecap="round" stroke-linejoin="round" stroke-width="2"/><polygon points="379.85 242.25 376.62 232.32 373.39 242.25 362.94 242.25 371.39 248.39 368.17 258.33 376.62 252.19 385.07 258.33 381.84 248.39 390.29 242.25 379.85 242.25" fill="none" stroke="#000" stroke-linecap="round" stroke-linejoin="round" stroke-width="2"/><polygon points="418.19 280.6 414.96 270.66 411.73 280.6 401.29 280.6 409.74 286.74 406.51 296.67 414.96 290.53 423.41 296.67 420.18 286.74 428.64 280.6 418.19 280.6" fill="none" stroke="#000" stroke-linecap="round" stroke-linejoin="round" stroke-width="2"/><polygon points="406.51 66.61 414.96 60.47 423.41 66.61 420.18 56.67 428.64 50.53 418.19 50.53 414.96 40.6 411.73 50.53 401.29 50.53 409.74 56.67 406.51 66.61" fill="none" stroke="#000" stroke-linecap="round" stroke-linejoin="round" stroke-width="2"/><polygon points="376.62 78.94 373.39 88.88 362.94 88.88 371.39 95.02 368.17 104.95 376.62 98.81 385.07 104.95 381.84 95.02 390.29 88.88 379.85 88.88 376.62 78.94" fill="none" stroke="#000" stroke-linecap="round" stroke-linejoin="round" stroke-width="2"/><polygon points="338.27 117.29 335.04 127.22 324.6 127.22 333.05 133.36 329.82 143.3 338.27 137.16 346.72 143.3 343.5 133.36 351.95 127.22 341.5 127.22 338.27 117.29" fill="none" stroke="#000" stroke-linecap="round" stroke-linejoin="round" stroke-width="2"/><polygon points="264.81 203.91 261.58 193.97 258.36 203.91 247.91 203.91 256.36 210.05 253.13 219.99 261.58 213.84 270.04 219.99 266.81 210.05 275.26 203.91 264.81 203.91" fill="none" stroke="#000" stroke-linecap="round" stroke-linejoin="round" stroke-width="2"/><polygon points="226.47 242.25 223.24 232.32 220.01 242.25 209.56 242.25 218.02 248.39 214.79 258.33 223.24 252.19 231.69 258.33 228.46 248.39 236.91 242.25 226.47 242.25" fill="none" stroke="#000" stroke-linecap="round" stroke-linejoin="round" stroke-width="2"/><polygon points="188.12 280.6 184.9 270.66 181.67 280.6 171.22 280.6 179.67 286.74 176.44 296.67 184.9 290.53 193.35 296.67 190.12 286.74 198.57 280.6 188.12 280.6" fill="none" stroke="#000" stroke-linecap="round" stroke-linejoin="round" stroke-width="2"/><polygon points="303.16 165.56 299.93 155.63 296.7 165.56 286.25 165.56 294.7 171.71 291.48 181.64 299.93 175.5 308.38 181.64 305.15 171.71 313.6 165.56 303.16 165.56" fill="none" stroke="#000" stroke-linecap="round" stroke-linejoin="round" stroke-width="2"/></g><polygon points="156.14 26.22 443.7 26.22 443.86 313.65 156.14 313.78 156.14 26.22" fill="none" stroke="#000" stroke-linecap="round" stroke-linejoin="round" stroke-width="2"/></svg>