<svg xmlns="http://www.w3.org/2000/svg" width="230" height="300" viewBox="0 0 230 300"><title>flag-oregon-icon-beaver</title><path d="M217.65,155c-2.75-6.71-8.93-11.38-15.83-16.12-4.54-3.11-11.17-1.06-16.69-4s-7.49-7.21-9.33-9.33c-11.41-13.16-22.26-25.12-51.19-25.17-41.22-.07-62.78,45.25-62.78,45.25s-3.81,8.46-17,11.59c-13.64,3.26-27.62,1.61-34.22,5.94C8.3,164.78.89,171.8,1.88,178.8c1.27,9,10.12,21.58,24.26,18.82S52.22,177.2,57.87,168.9c2.13-3.13,14.71-.57,14.71-.57l1,.11C72,174,75.12,177.1,75.12,177.1l59.67.28s.36-2.82-5.65-4-18.38-.56-18.38-.56l-.32-1.59c10,.53,20.61.88,30.29.74,5.47-.08,10.62-.31,15.39-.64,0,2.14.37,3.7,3,5.45,4.46,3,15,.85,15,.85A63.18,63.18,0,0,0,167,174a7,7,0,0,1-1.21-3.45,210,210,0,0,0,25-3.9l13.86-2S220.41,161.76,217.65,155Z" fill="none" stroke="#000" stroke-width="2" fill-rule="evenodd"/><path d="M53.91,163,32.7,173.42" fill="none" stroke="#000" stroke-width="1.39"/><path d="M29,172.29l-5.15-5.8" fill="none" stroke="#000" stroke-width="1.39"/><path d="M32.7,170.88l-4.81-6.22" fill="none" stroke="#000" stroke-width="1.39"/><path d="M31.85,164.94,35,168.05" fill="none" stroke="#000" stroke-width="1.39"/><path d="M16.3,172.29l3.39,4" fill="none" stroke="#000" stroke-width="1.39"/><path d="M10.93,170.88l5.65,7.63" fill="none" stroke="#000" stroke-width="1.39"/><path d="M13.47,180.78l-4.81-6.51" fill="none" stroke="#000" stroke-width="1.39"/><path d="M8.38,182.47,6.12,177.1" fill="none" stroke="#000" stroke-width="1.39"/><path d="M18,193.22l-4.53-4.81" fill="none" stroke="#000" stroke-width="1.39"/><path d="M11.77,185.3l13.58-7.07" fill="none" stroke="#000" stroke-width="1.39"/><path d="M21.67,191.81l-4.81-4.53" fill="none" stroke="#000" stroke-width="1.39"/><path d="M20,186.43l4.8,4.53" fill="none" stroke="#000" stroke-width="1.39"/><path d="M27.89,188.7l-4-4" fill="none" stroke="#000" stroke-width="1.39"/><path d="M36.38,181.91l-3.11-3.68" fill="none" stroke="#000" stroke-width="1.39"/><path d="M40.62,180.49,36.1,176" fill="none" stroke="#000" stroke-width="1.39"/><path d="M44.3,178.8l-4.53-4.53" fill="none" stroke="#000" stroke-width="1.39"/><path d="M81.5,150C75.75,156,74,163.19,73.34,169.14" fill="none" stroke="#000" stroke-width="1.39"/><path d="M83.86,155.39c-7.92,4.07-7.81,8.94-10.52,13.53" fill="none" stroke="#000" stroke-width="1.39"/><path d="M173.62,156.35c-5.27,4.22-8.61,8.82-8.16,14.18" fill="none" stroke="#000" stroke-width="1.39"/><path d="M161.11,153.7c-7.35,7-4.17,16.49-4.75,18.2" fill="none" stroke="#000" stroke-width="1.39"/><path d="M77.85,135.3c-9.4,4.6-10.11,6.84-13.75,9.88" fill="none" stroke="#000" stroke-width="1.39"/><path d="M83.86,128.85c-13.8,3.08-14.12,10.89-20,16.33" fill="none" stroke="#000" stroke-width="1.39"/><path d="M89,123.48c-8.39,1.6-12,3.88-16.54,6" fill="none" stroke="#000" stroke-width="1.39"/><path d="M95.25,118.11a34.3,34.3,0,0,0-15.47,5.37" fill="none" stroke="#000" stroke-width="1.39"/><path d="M105.13,113c-10.42.49-15.61,3.07-20.41,5.8" fill="none" stroke="#000" stroke-width="1.39"/><path d="M110.93,108.66c-12.77-.6-16.67,4.26-20.62,6.44" fill="none" stroke="#000" stroke-width="1.39"/><path d="M170,125c-2.69-1.9-5.55-2.82-8.81-1.29" fill="none" stroke="#000" stroke-width="1.39"/><path d="M191.72,142.82c-.23-3.3-9.49-1.2-2.15,3.65" fill="none" stroke="#000" stroke-width="1.39"/><path d="M165.08,118.32q-8.18-2.89-12.89.22" fill="none" stroke="#000" stroke-width="1.39"/><path d="M160.57,115.32c-6.11-3.35-10.57-2.57-14.4-.22" fill="none" stroke="#000" stroke-width="1.39"/><path d="M152.19,111.45c-3-2.8-9.83-1.77-15.47-1.93" fill="none" stroke="#000" stroke-width="1.39"/><path d="M148.53,106.08q-10.09-2.47-18.47.21" fill="none" stroke="#000" stroke-width="1.39"/><path d="M50.35,194l5.58.22" fill="none" stroke="#000" stroke-width="1.39"/><path d="M55.72,188.58H66" fill="none" stroke="#000" stroke-width="1.39"/><path d="M59.16,183.64H71.62" fill="none" stroke="#000" stroke-width="1.39"/><path d="M100.62,186.86h6.66" fill="none" stroke="#000" stroke-width="1.39"/><path d="M94,187.08l3.65-.22" fill="none" stroke="#000" stroke-width="1.39"/><path d="M118,188.07c-1-.83-1.69-1.78-6-1.51" fill="none" stroke="#000" stroke-width="1.39"/><path d="M142.52,184.5a34.48,34.48,0,0,1,13.32,2.58" fill="none" stroke="#000" stroke-width="1.39"/><path d="M185.7,183.42h5.8" fill="none" stroke="#000" stroke-width="1.39"/><path d="M203.11,178.27l12.67.43" fill="none" stroke="#000" stroke-width="1.39"/><path d="M213.63,184.07c-4-.4-7.61-.37-9.88,1.5" fill="none" stroke="#000" stroke-width="1.39"/><path d="M215.78,190.94a19.47,19.47,0,0,0-9-1.93" fill="none" stroke="#000" stroke-width="1.39"/><path d="M126.62,147.76h-4.51" fill="none" stroke="#000" stroke-width="1.39"/><path d="M112.87,152.7h6.44" fill="none" stroke="#000" stroke-width="1.39"/><path d="M114.37,156.14l3.87-.22" fill="none" stroke="#000" stroke-width="1.39"/><path d="M125.11,150.77l-4.72-.22" fill="none" stroke="#000" stroke-width="1.39"/><path d="M123.61,154.85l-4.73-.43" fill="none" stroke="#000" stroke-width="1.39"/><path d="M121.68,158.07l-4.51-.43" fill="none" stroke="#000" stroke-width="1.39"/><path d="M109,159.58h8.6" fill="none" stroke="#000" stroke-width="1.39"/><path d="M106.64,163l7.52-.21" fill="none" stroke="#000" stroke-width="1.39"/><path d="M114.59,165.16l-7.74-.43" fill="none" stroke="#000" stroke-width="1.39"/><path d="M105.78,168.17l6.44-.43" fill="none" stroke="#000" stroke-width="1.39"/><path d="M200.74,156.35,189.14,154" fill="none" stroke="#000" stroke-width="1.39"/><path d="M189.14,166.88c4.87-2.23,8.45-3.41,13.32-6.66l-14.18-1.5" fill="none" stroke="#000" stroke-width="1.39"/><path d="M204.18,150.34c0,1.18-1.25,2.15-2.79,2.15s-2.8-1-2.8-2.15,1.25-2.15,2.8-2.15S204.18,149.15,204.18,150.34Z"/><path d="M212.56,159.15c0,1.07.64,6.87.64,6.87l-1.5-.43L210,158.93Z" stroke="#000" stroke-width="2" fill-rule="evenodd"/><path d="M219.28,182.56c-1.22-5.75-.35-8.1-1.39-11.14-4.08-3.33-15.33-2.39-20.89-.7-4.56,3.63-6.56,6.46-11.14,7.66-1.28.85-84.66-.22-121.51.35-10.35.16-23.68,17.06-23.68,17.06s.74,2,2.09,2.09c12.55.9,26.9,1.38,41.92,1.57l-.17-.34a23.63,23.63,0,0,1-2.15-3c-1.4-2.2-3.44-5.8-3.44-5.8l2.8-.22,4.08,3.23c.22-1.36-.34-3.49-.65-5.37l2.37.43.64,5.15c1-.94,1.59-2.08,5.37-1.93l-2.79,3.65-.14,4.27c11.73.08,23.78,0,35.63-.22l-.69-4.48L121,192.45l.22-2.37,1.5,2.15,3.65-.43L124,186.51l2.58.21,1.07,3.39,1.94-2.17,1.07,4.29,4.3-2.15-2.37,6-.41,3.07c14.29-.31,28.16-.79,40.68-1.35l-3.31-5.8,3.87,1.93.86-6.44,1.28,6.66,4.3-2.15L178,194.38l.4,3.18c6.12-.29,10-.61,15.23-.93l-3-6.55,3.44.22,1.51,1.5,2.79-3.43,2.69,2.79-1.72,1.07-.33,4.26c11.37-.72,18.92-1.46,23.74-2.09C225.27,194.07,220.5,188.3,219.28,182.56Z" fill="none" stroke="#000" stroke-width="2" fill-rule="evenodd"/></svg>