<svg xmlns="http://www.w3.org/2000/svg" width="600" height="315.79" viewBox="0 0 600 315.79"><path fill="#bf0a30" d="M0 0h600v315.79H0z"/><path fill="#fff" d="M0 24.29h600v24.29H0zM0 72.87h600v24.29H0zM0 121.46h600v24.29H0zM0 170.04h600v24.29H0zM0 218.62h600v24.29H0zM0 267.21h600v24.29H0z"/><path fill="#002868" d="M0 0h200v170.04H0z"/><path fill="#fff" d="M95.85 29.77l-2.56 7.89 6.71-4.88 6.71 4.88-2.56-7.89 6.71-4.88h-8.3L100 17l-2.56 7.89h-8.3l6.71 4.88zM124.28 38.77l3.67 7.43 1.4-8.18 8.21-1.19-7.35-3.86 1.4-8.17-5.94 5.79-7.34-3.86 3.67 7.44-5.93 5.79 8.21-1.19zM143.12 50.22l-7.95 2.37 7.82 2.76-.2 8.29 5.04-6.59 7.82 2.75-4.71-6.83 5.04-6.59-7.95 2.38-4.71-6.83-.2 8.29zM154.35 74.24l-8.14-1.59 5.65 6.07-4.03 7.25 7.52-3.49 5.65 6.07-1-8.23 7.52-3.5-8.14-1.59-1-8.24-4.03 7.25zM157.13 103.94l2.94-7.75-6.94 4.54-6.47-5.19 2.18 8-6.93 4.55 8.28.4 2.18 8 2.94-7.75 8.29.4-6.47-5.2zM139.74 123.63l-3.31-7.61-1.79 8.1-8.26.8 7.15 4.21-1.79 8.1 6.21-5.5 7.15 4.2-3.31-7.6 6.21-5.5-8.26.8zM117.25 137.67l.6-8.27-5.35 6.34-7.68-3.13 4.38 7.05-5.35 6.34 8.05-1.99 4.38 7.05.6-8.27 8.05-1.99-7.68-3.13zM90.8 139.66l4.38-7.05-7.68 3.13-5.35-6.34.6 8.27-7.68 3.13 8.05 1.99.6 8.27 4.38-7.05 8.05 1.99-5.35-6.34zM65.36 124.12l-1.79-8.1-3.31 7.61-8.26-.8 6.21 5.5-3.31 7.6 7.15-4.2 6.21 5.5-1.79-8.1 7.15-4.21-8.26-.8zM49.81 108.49l8.28-.4-6.93-4.55 2.18-8-6.47 5.19-6.94-4.54 2.94 7.75-6.47 5.2 8.29-.4 2.94 7.75 2.18-8zM40 80.32l-1 8.23 5.65-6.07 7.52 3.49-4.03-7.25 5.65-6.07-8.14 1.59-4.03-7.25-1 8.24-8.14 1.59 7.52 3.5zM49.06 52.97l-4.71 6.83 7.82-2.75 5.04 6.59-.2-8.29 7.82-2.76-7.95-2.37-.2-8.29-4.71 6.83-7.95-2.38 5.04 6.59zM70.65 38.02l1.4 8.18 3.67-7.43 8.21 1.19L78 34.17l3.67-7.44-7.34 3.86-5.94-5.79 1.4 8.17-7.35 3.86 8.21 1.19z"/></svg>