<svg xmlns="http://www.w3.org/2000/svg" width="178" height="300" viewBox="0 0 178 300"><path d="M20.18 172.16H12v-33.43a26.08 26.08 0 01-10.5 6.74v-8a21.26 21.26 0 006.88-4.36 16.68 16.68 0 005.2-7.44h6.6v46.49zM54.17 148.14a10.9 10.9 0 01-5.34-4.21 11.09 11.09 0 01-1.68-5.9 12.08 12.08 0 013.79-9.13c2.53-2.39 6.18-3.51 10.81-3.51s8.29 1.12 10.82 3.51a11.87 11.87 0 013.79 9.1 9.89 9.89 0 01-1.83 6 10.83 10.83 0 01-4.91 4.07 13.43 13.43 0 016.18 4.78 12.62 12.62 0 012.1 7.16 14.93 14.93 0 01-4.35 11.1c-3 2.8-6.74 4.21-11.52 4.21-4.49 0-8.14-1.12-11.09-3.51-3.51-2.67-5.2-6.46-5.2-11.38a14.52 14.52 0 012-7.3 14.91 14.91 0 016.46-5.06m1 11.52a8.89 8.89 0 002 6 6.38 6.38 0 004.8 2.21 6.1 6.1 0 004.78-2.1 8.7 8.7 0 002-6 8 8 0 00-2-5.48 6.41 6.41 0 00-4.92-2.11 5.73 5.73 0 00-5 2.39 9.12 9.12 0 00-1.69 5.2m.83-20.97a6.12 6.12 0 001.55 4.36 6.22 6.22 0 004.21 1.54 5.34 5.34 0 005.76-5.9 6.22 6.22 0 00-1.52-4.21 5.22 5.22 0 00-4.25-1.52 6.34 6.34 0 00-4.35 1.55 6.33 6.33 0 00-1.4 4.18M112 173.7V164H92.23v-8l21.07-30.62h7.86v30.48h6V164h-6v9.69zm0-17.7v-16.43L100.94 156zM142.65 134.94v-8.43h33.57v6.6a45.19 45.19 0 00-8.43 10.82 62.68 62.68 0 00-6.6 15 51.07 51.07 0 00-2.25 14.18h-9.41a58 58 0 014.36-19.94A66.31 66.31 0 01165 135.08l-22.33-.14z" fill="#fff" stroke="#000" stroke-linejoin="round" stroke-width="1.5"/></svg>