<svg xmlns="http://www.w3.org/2000/svg" width="196" height="300" viewBox="0 0 196 300"><title>flag-new-jersey-icon-shield</title><path d="M87.94,44.47s25.33,6.76,35.33,6.76,21.54-5.95,21.54-5.95L170.2,68.47s-12.7,22.65-12.29,34.24c0,0-.41,11.32,9.81,43.07,5,15.64,5.51,37.28-1.94,53.84-6.49,14.45-16.85,29-42,36.45S88.07,250.84,87,255.53h-.48c-1.11-4.69-11.73-12-36.86-19.46s-35.46-22-42-36.45c-7.45-16.56-7-38.2-1.94-53.84C16,114,15.53,102.71,15.53,102.71,16,91.12,3.24,68.47,3.24,68.47L28.63,45.28s11.53,5.95,21.54,5.95S85.5,44.47,85.5,44.47Z" fill="none" stroke="#000" stroke-linecap="round" stroke-linejoin="round" stroke-width="2"/><path d="M86.73,243.22c-5.83-4.35-16.17-9.57-34.74-15.09-22.79-6.76-31.37-19.93-36.77-31.9-6.86-15.23-5.75-35-1.61-47.91,9.72-30.22,10.22-43,10.2-45.54.25-10-6.09-24.25-10.25-32.5L30.22,55.07c5,2,12.58,4.44,20,4.44,9.94,0,30.58-4.79,36.54-6.72,6,1.93,26.6,6.72,36.54,6.72,7.37,0,15-2.45,20-4.44l16.65,15.21c-4.16,8.25-10.5,22.56-10.25,32.5,0,2.53.48,15.32,10.2,45.54,4.14,12.87,5.25,32.67-1.6,47.91-5.39,12-14,25.14-36.78,31.9C102.9,233.65,92.56,238.88,86.73,243.22Z" fill="none" stroke="#000" stroke-linecap="round" stroke-linejoin="round" stroke-width="2"/></svg>