<svg xmlns="http://www.w3.org/2000/svg" width="600" height="400" viewBox="0 0 600 400"><title>flag-usvi</title><rect width="600" height="400" fill="#fff"/><path d="M187.17,270.82s-.48-3.29,5.77-5.7,6.73-11.4,5.48-17.4c0,0-3.26,5.7-7.22,7.61,0,0-6.45,3.36-6.75,9.78a21,21,0,0,1-.54,4.18c-.26,1-3.12-8,2.29-14.77,5.59-6.94,7.15-12.57,2.71-23.54,0,0-.42,6.66-4.79,10.46s-4.93,4.09-4.86,13.15c0,0,.07,3.15-1.59,4.17,0,0-3.41-5-4.31-8.26s-1.32-4.68,2.57-8.48c0,0,12.45-8.05,3.47-25.66,0,0-.28,6.07-4.58,9.65s-4,6-4.17,12.21-.62,5.78-1.11,6.65c0,0-7.91-14.54-1.8-22.29s9.51-9.36,2.78-23.76c0,0,.29,7.38-5.09,11s-4.15,12.21-4.15,12.21a12.09,12.09,0,0,1-.76,5.55s-7.62-14.87-.35-22.88c6.18-6.8,6.6-11.55,3.27-21.2,0,0-.42,4.46-3.82,6.87s-6.11,4.83-5.48,14.11c0,0,.27,6.51-.56,8.33,0,0-3.19-5.92-4.09-9.79s-1.25-6.14,1.11-10,11.73-15,.55-31a24.5,24.5,0,0,1-3.19,9.87c-2.85,4.68-1.53,10.23-.9,14.47a15.82,15.82,0,0,1-1.46,8.34s-4.86-8.92-3.82-19.16-3.12-18.64-12.56-24.7c0,0-6.87,15.93,2.5,24,0,0,8,7.89,10,17.47,0,0-6-.59-11.52-11.26s-16.87-9-17.63-9.06a26.15,26.15,0,0,0,19.37,21.2s11.17,1.9,13.25,10.08c0,0,1.88,5.63,2.64,8.63,0,0-3.54-1.39-6.8-6.21s-2.85-5.41-13.88-6.51c0,0-4.45-.51-6.81-3.66,0,0,4.65,17.47,16.59,17.33,0,0,10.9-1.17,17,13.16,0,0-1.18-.73-2.78-1.83s-5.62-3.14-13.6-2.19-10.21-.37-12.22-1c0,0,8,14.77,19.44,10.38s16.88,11.61,17,11.92a42,42,0,0,1-3.54-3.15c-2-2-6.19-4.4-14.09-1.9a19.53,19.53,0,0,1-11.45.44,18.14,18.14,0,0,0,18.53,8.92c13-1.83,16.24,9.57,16.24,9.57a29.5,29.5,0,0,1-2.91-2c-1.18-.95-5.56-3.43-14.93-.66s-12.77-.44-12.77-.44,5.21,9.51,15.2,10.6c0,0,5.56-.07,7.92-.95s8.6-2.26,12.91,3.95a5.56,5.56,0,0,1-3-.58s-6.66-2.42-11.73,1.82c0,0-4.51,4.61-10.9,3.73,0,0,8.26,8,21.38,1.24,0,0,4.44-3.21,7.71-.73S187.17,270.82,187.17,270.82Z" fill="#009639" stroke="#010002" stroke-miterlimit="10" stroke-width="1.41"/><path d="M260.19,72.73s-1.52-13.61,9.35-14.92c11.34-1.36,16.94,1,16.94,1l5.09,10-1.76,6.72-7,3.22s1.21-10.33-8.26-10.55c-2.4,0-3.81.9-7.61.3S261,72.11,260.19,72.73Z" fill="#fce300" stroke="#010002" stroke-miterlimit="10" stroke-width="1.41"/><path d="M336.68,106.4c-1.62,2.1-8.1,2.83-8.1,2.83s6.67,5.11,9.54,12.42-77.23,0-77.23,0a21.19,21.19,0,0,0,5.83-7.16s-3.54,1.31-7.08-2.19c0,0,2.64.87,6.11-4.39,0,0,5.13-6.58,8.74-8.33,0,0-1.66,1-5.69-1.17,0,0,6.94-.88,9.44-12.72a17.59,17.59,0,0,1,3.05-6.43c2.64-3.81,2.09.73,6.94-5.12,0,0,2.23-4.14.28-6.68s-4-1.61-8.1-4-5.87-3.8-4.48-7.56,5-3.16,5.5-3.16.79-3.27,5.23-5.51,16.24-1.27,18-.29,8.89,3.07,13,13.59S316.6,75,327.94,90.9c0,0-4.54,1-7.45.1C320.49,91,326.36,101.43,336.68,106.4Z" fill="#fce300" stroke="#010002" stroke-miterlimit="10" stroke-width="1.41"/><path d="M287.12,62c-9.23-.44-5.69-9.23-5.69-9.23" fill="none" stroke="#010002" stroke-miterlimit="10" stroke-width="1.41"/><path d="M303.16,63.19a9.1,9.1,0,0,1-3-2.6c-1.94-2.56-6.26-3.8-8.58-1.39,0,0-2.36,2.63-4.45,2.78a12.07,12.07,0,0,1,4,2.23c1.63,1.5,3.33,2.6,5.76,2.27s2.81-1.61,3.95-2.38A5.91,5.91,0,0,1,303.16,63.19Z" fill="#fce300" stroke="#010002" stroke-miterlimit="10" stroke-width="1.41"/><path d="M363.2,194.65s8.6,7,15.82,0c0,0,2.92,3.51,8.75,2.49s6.8-4.09,7.35-5.85c0,0,5.05,2.94,9.31.62s4.25-5.83,4.25-5.83,7.41,1.46,11.2-3.56,1.48-10-.55-10.58c0,0,8,2.1,10.18-4.77,1.85-5.85-2.32-8.87-2.32-8.87s16.87-.08,23.79-5.36c0,0,5.73-3.61,2.31-7.41,0,0,15.18-2.43,19-8.48a5.21,5.21,0,0,0,1.11-4.58,1.86,1.86,0,0,0-1.76-1.75s17.31-2.68,22.31-8.38a6.47,6.47,0,0,0,1.2-6.14,6.12,6.12,0,0,0-.67-1.55s15.76-3.33,23.53-10.35c0,0,4.49-4,2.17-9.35,0,0,26.33-7.21,20.23-18.81,0,0,12.3-4,8.42-15.11,0,0,10.18-5.16,5.74-13.35-4.26-7.84-17.31,1.36-32.77,5.64,0,0-41.83,13.17-62.43,16.67l-58.52,87.14-34.15,13.16Z" fill="#fce300" stroke="#010002" stroke-width="1.41"/><path d="M362.78,130.47s5.49-4.11,15.27.73c0,0,3.29,2.27,5.89-.21a5.28,5.28,0,0,0-.61-8.12c-7.29-5.41-10-21.64,1.11-28.36,0,0,16.1-9.55,75.15-24.58,0,0,4.94-1.37,7.58-.71a7.33,7.33,0,0,1,5.32,5.35s2.64,7.5-6.24,11.8a65.52,65.52,0,0,1-8.15,3,5.82,5.82,0,0,1,6.48,3.51c1.85,4.29-.83,8.68-9.16,11.5a47.08,47.08,0,0,1-5.46,1.66s7.12,2,3.7,7.8c0,0-3.05,6-13.84,7.11,0,0,8.06.88,2.36,8.53,0,0-2.49,4.19-10.36,5.75,0,0,6,.19,3,5.55s-10.08,8.39-17,8.87a29.05,29.05,0,0,1-6.41-.39s6.62,3.32,2.73,8.87c0,0-2.87,3.95-10,3.76,0,0,1.86,6.2-3.4,8.55a7.43,7.43,0,0,1-7.5-1.1s1.39,6.65-4.58,9a10,10,0,0,1-7.43,0s-3.4,7.6-15.47,2.27S362.78,130.47,362.78,130.47Z" fill="#fce300" stroke="#010002" stroke-width="1.41"/><path d="M548.8,61s-19,11-78.06,22" fill="none" stroke="#010002" stroke-width="1.41"/><path d="M210,255.28s-7,12.08-15.54,12.28c0,0-14.65-1.79-18.79,2-2.89,2.67-5.83,4.88-7,11.7s2.31,8.28,3.14,8.58c0,0,.65,4.87,5.46,3.6,0,0,.28,5.07,8.79,2.63s12-1.65,13.7-10.13,3.21-8.34,4.72-9.36c2-1.36,5.86-2.65,8.7-4.29,2.55-1.47,12.31-6.43,15.64-6.82s2.59-11.6,2.59-11.6h-8.6l-4.17-6.14Z" fill="#fce300" stroke="#010002" stroke-width="1.41"/><path d="M540.38,76.14S489,92.89,465.11,95" fill="none" stroke="#010002" stroke-width="1.41"/><path d="M520.15,95a554.57,554.57,0,0,1-65.39,15.42" fill="none" stroke="#010002" stroke-width="1.41"/><path d="M494.45,114.65s-34,8.17-50.28,9.53" fill="none" stroke="#010002" stroke-width="1.41"/><path d="M471.61,130.72s-28.78,6-36.08,6.72" fill="none" stroke="#010002" stroke-miterlimit="10" stroke-width="1.41"/><polygon points="439.21 174.5 440.65 220.18 440.65 220.18 432.59 215.5 432.59 215.5 419.16 273.47 413.62 269.49 426.69 213.95 426.69 213.95 417.57 214.12 417.57 214.12 439.21 174.5" fill="#69b3e7" stroke="#010002" stroke-miterlimit="10" stroke-width="1.41"/><path d="M453.29,145.53s-21,3.19-29.37,3" fill="none" stroke="#010002" stroke-miterlimit="10" stroke-width="1.41"/><path d="M427.19,158.3s-8.49-.4-12.57-1.08" fill="none" stroke="#010002" stroke-miterlimit="10" stroke-width="1.41"/><path d="M419.33,172s-7.22-1.95-11.48-4.68" fill="none" stroke="#010002" stroke-miterlimit="10" stroke-width="1.41"/><path d="M408.68,186.08a16.57,16.57,0,0,1-8.23-8" fill="none" stroke="#010002" stroke-miterlimit="10" stroke-width="1.41"/><path d="M395.12,191.29s-4.3-3.85-4.58-8.14" fill="none" stroke="#010002" stroke-miterlimit="10" stroke-width="1.41"/><polygon points="491.38 194.81 472.29 235.86 472.29 235.86 467.25 227.74 467.25 227.74 426.95 275.36 422.59 270.47 462.74 223.46 462.74 223.46 454.62 219.1 454.62 219.1 491.38 194.81" fill="#69b3e7" stroke="#010002" stroke-miterlimit="10" stroke-width="1.41"/><path d="M379,194.65s1.61-1.39.51-7.43" fill="none" stroke="#010002" stroke-miterlimit="10" stroke-width="1.41"/><polygon points="473.97 164.68 464.13 209.2 464.13 209.2 457.49 202.48 457.49 202.48 421.42 271.84 415.86 268.6 452.18 199.38 452.18 199.38 443.33 197.06 443.33 197.06 473.97 164.68" fill="#69b3e7" stroke="#010002" stroke-miterlimit="10" stroke-width="1.41"/><path d="M381.1,178.35a8.9,8.9,0,0,0,.56-4.46" fill="none" stroke="#010002" stroke-miterlimit="10" stroke-width="1.41"/><path d="M237.08,194.65s-8.61,7-15.82,0c0,0-2.92,3.51-8.75,2.49s-6.8-4.09-7.36-5.85c0,0-5,2.94-9.3.62s-4.26-5.83-4.26-5.83-7.4,1.46-11.19-3.56-1.48-10,.55-10.58c0,0-8,2.1-10.18-4.77-1.85-5.85,2.32-8.87,2.32-8.87s-16.87-.08-23.79-5.36c0,0-5.74-3.61-2.31-7.41,0,0-15.18-2.43-19-8.48a5.23,5.23,0,0,1-1.12-4.58,1.87,1.87,0,0,1,1.76-1.75s-17.31-2.68-22.3-8.38a6.45,6.45,0,0,1-1.2-6.14,6.12,6.12,0,0,1,.67-1.55S90.07,111.32,82.3,104.3c0,0-4.49-4-2.18-9.35,0,0-26.33-7.21-20.22-18.81,0,0-12.31-4-8.42-15.11,0,0-10.18-5.16-5.74-13.35C50,39.84,63.05,49,78.51,53.32c0,0,41.82,13.17,62.42,16.67l58.53,87.14,34.15,13.16Z" fill="#fce300" stroke="#010002" stroke-width="1.41"/><path d="M411.46,91.83s-9.72,3.9-13,9.26-1.1,10.57,0,13.56c.56,1.5,7.41,14.7-.64,24.25" fill="none" stroke="#010002" stroke-miterlimit="10" stroke-width="1.41"/><path d="M237.5,130.47s-5.49-4.11-15.27.73c0,0-3.3,2.27-5.89-.21a5.27,5.27,0,0,1,.61-8.12c7.29-5.41,10-21.64-1.11-28.36,0,0-16.1-9.55-75.15-24.58,0,0-4.95-1.37-7.58-.71a7.33,7.33,0,0,0-5.32,5.35s-2.64,7.5,6.24,11.8a65.52,65.52,0,0,0,8.15,3,5.82,5.82,0,0,0-6.48,3.51c-1.85,4.29.83,8.68,9.16,11.5a47.08,47.08,0,0,0,5.46,1.66s-7.13,2-3.7,7.8c0,0,3,6,13.83,7.11,0,0-8,.88-2.36,8.53,0,0,2.5,4.19,10.37,5.75,0,0-6,.19-3,5.56s10.08,8.38,17.05,8.86a29.05,29.05,0,0,0,6.41-.39s-6.62,3.32-2.73,8.87c0,0,2.87,3.95,10,3.76,0,0-1.86,6.2,3.4,8.55a7.43,7.43,0,0,0,7.5-1.1s-1.39,6.65,4.58,9a10,10,0,0,0,7.42,0s3.41,7.61,15.48,2.27S237.5,130.47,237.5,130.47Z" fill="#fce300" stroke="#010002" stroke-width="1.41"/><path d="M411.32,149.28s-.05,0-3.47-1.12" fill="none" stroke="#010002" stroke-miterlimit="10" stroke-width="1.41"/><path d="M431.82,135.25a69.78,69.78,0,0,1-11.48,1.22" fill="none" stroke="#010002" stroke-miterlimit="10" stroke-width="1.41"/><path d="M439.82,121s-6.8.68-13.18.59" fill="none" stroke="#010002" stroke-miterlimit="10" stroke-width="1.41"/><path d="M450,106.06s-9.81,2-15.09,2" fill="none" stroke="#010002" stroke-miterlimit="10" stroke-width="1.41"/><path d="M458.1,89.39A185.38,185.38,0,0,1,437,94.07" fill="none" stroke="#010002" stroke-miterlimit="10" stroke-width="1.41"/><path d="M417,101.19s8.7,8.08-1.76,15.59c0,0,4.35,6.82-4.35,13.94" fill="none" stroke="#010002" stroke-miterlimit="10" stroke-width="1.41"/><path d="M238.21,199.56s-1.77,9.52-15.82,21.49c0,0-10.84,9.57-10.56,20.58.28,11.22-2,12.48-6.21,16.28,0,0,8.8.68,13-5.17,0,0-.18,9.75-1.48,10.63,0,0,2.76.17,6.76-4.19a17.9,17.9,0,0,1,4.63-3.51s-2.6,6.72-.56,13c0,0,.65-2.44,4.07-3.51,0,0,6.2-1.27,8.61-10.23,0,0,1.57-5.95,11.29-11.21,0,0,11-4.16,10.74-9.58S238.21,199.56,238.21,199.56Z" fill="#fce300" stroke="#010002" stroke-width="1.41"/><path d="M413.22,134.08s1.29,13-14.62,13c0,0,3,11.6-12.31,11.21,0,0-1.76,9.26-12.87,7.41" fill="none" stroke="#010002" stroke-miterlimit="10" stroke-width="1.41"/><path d="M390.32,255.28s7,12.08,15.55,12.28c0,0,14.64-1.79,18.78,2,2.89,2.67,5.83,4.88,7,11.7s-2.32,8.28-3.15,8.58c0,0-.65,4.87-5.46,3.6,0,0-.28,5.07-8.79,2.63s-12-1.65-13.7-10.13-3.2-8.34-4.72-9.36c-2-1.36-5.86-2.65-8.7-4.29-2.55-1.47-12.31-6.43-15.64-6.82s-2.59-11.6-2.59-11.6h8.61l4.16-6.14Z" fill="#fce300" stroke="#010002" stroke-width="1.41"/><path d="M362.08,199.56s1.77,9.52,15.82,21.49c0,0,10.85,9.57,10.57,20.58-.28,11.22,1.94,12.48,6.2,16.28,0,0-8.79.68-13.05-5.17,0,0,.19,9.75,1.48,10.63,0,0-2.76.17-6.75-4.19a18.1,18.1,0,0,0-4.63-3.51s2.59,6.72.55,13c0,0-.64-2.44-4.07-3.51,0,0-6.2-1.27-8.61-10.23,0,0-1.57-5.95-11.29-11.21,0,0-11-4.16-10.73-9.58S362.08,199.56,362.08,199.56Z" fill="#fce300" stroke="#010002" stroke-width="1.41"/><path d="M397.89,267.56a28.07,28.07,0,0,0,8,0" fill="none" stroke="#010002" stroke-width="1.41"/><path d="M421.23,274.38s7.68-1.17,7.31,15.5" fill="none" stroke="#010002" stroke-miterlimit="10" stroke-width="1.41"/><path d="M416.6,278.18s6.94-.88,6.48,15.3" fill="none" stroke="#010002" stroke-miterlimit="10" stroke-width="1.41"/><path d="M349.6,239.2a11.41,11.41,0,0,1,5.65,3.31c2.31,2.63,6.75,2.14,6.75,2.14s-2.41-2-3.24-6.82-3.51-6.33-3.51-6.33" fill="none" stroke="#010002" stroke-width="1.41"/><path d="M363.19,226.88a11.41,11.41,0,0,1,5.65,3.31c2.31,2.64,6.75,2.15,6.75,2.15s-2.4-2-3.24-6.82-3.51-6.34-3.51-6.34" fill="none" stroke="#010002" stroke-width="1.41"/><path d="M365.48,245.8a9.9,9.9,0,0,1,4.93,2.89c2,2.3,5.9,1.87,5.9,1.87s-2.1-1.7-2.83-5.95-3.07-5.53-3.07-5.53" fill="none" stroke="#010002" stroke-width="1.41"/><path d="M311,322.23s2.53,11.14,11.29,10.24c0,0,6.21-.59,5.74-10.92,0,0,9.16,4.88,10.65-7.21,0,0,8.32,2,8.23-9.36,0,0,7.78,1.37,6.85-8.67,0,0,8.42,2.24,8.42-7.21,0,0,19.71-3.27-21.38-40.74l-36.64,21.83Z" fill="#fce300" stroke="#010002" stroke-miterlimit="10" stroke-width="1.41"/><path d="M307,272.27s6.11,5.42,10.46-2.67c0,0,5.92-.29,6.85-4.77,0,0,4.81-.49,5.74-5.07,0,0,6.57-.68,6.38-6.24,0,0,11.95-.92,0-14.44s-32.21,22.43-32.21,22.43Z" fill="#fce300" stroke="#010002" stroke-width="1.41"/><path d="M328.06,321.55s-.92-19.59-17.9-47.66" fill="none" stroke="#010002" stroke-miterlimit="10" stroke-width="1.41"/><path d="M338.71,314.34s2.63-11.31-21.29-44.74c0,0,2.78-8-5.74-13.1" fill="none" stroke="#010002" stroke-miterlimit="10" stroke-width="1.41"/><path d="M346.94,305s.74-12.23-22.67-40.15c0,0,2.07-7.21-6.42-13" fill="none" stroke="#010002" stroke-miterlimit="10" stroke-width="1.41"/><path d="M353.79,296.31s-.88-12.38-23.78-36.55c0,0,1.14-7.41-7.07-12" fill="none" stroke="#010002" stroke-miterlimit="10" stroke-width="1.41"/><path d="M362.21,289.1s-1.66-14.14-25.82-35.58c0,0,.83-5.55-7.22-11.21" fill="none" stroke="#010002" stroke-miterlimit="10" stroke-width="1.41"/><path d="M289.26,322.23s-2.52,11.14-11.29,10.24c0,0-6.2-.59-5.74-10.92,0,0-9.16,4.88-10.64-7.21,0,0-8.33,2-8.24-9.36,0,0-7.77,1.37-6.85-8.67,0,0-8.42,2.24-8.42-7.21,0,0-19.71-3.27,21.38-40.74l36.65,21.83Z" fill="#fce300" stroke="#010002" stroke-miterlimit="10" stroke-width="1.41"/><path d="M293.33,272.27s-6.11,5.42-10.46-2.67c0,0-5.92-.29-6.84-4.77,0,0-4.82-.49-5.74-5.07,0,0-6.57-.68-6.39-6.24,0,0-11.94-.92,0-14.44s32.21,22.44,32.21,22.44Z" fill="#fce300" stroke="#010002" stroke-width="1.41"/><path d="M272.23,321.55s.93-19.59,17.91-47.66" fill="none" stroke="#010002" stroke-miterlimit="10" stroke-width="1.41"/><path d="M261.59,314.34S259,303,282.87,269.6c0,0-2.77-8,5.74-13.1" fill="none" stroke="#010002" stroke-miterlimit="10" stroke-width="1.41"/><path d="M300.15,268.92c5.92,0,12.63,37,10.89,59.27-.64,8.1-5,14.71-10.89,14.71s-10.26-6.61-10.89-14.71c-1.74-22.28,5-59.27,10.89-59.27" fill="#fce300" stroke="#010002" stroke-width="1.41"/><path d="M253.35,305s-.74-12.23,22.68-40.15c0,0-2.07-7.21,6.41-13" fill="none" stroke="#010002" stroke-miterlimit="10" stroke-width="1.41"/><path d="M246.5,296.31s.88-12.38,23.79-36.55c0,0-1.15-7.41,7.06-12" fill="none" stroke="#010002" stroke-miterlimit="10" stroke-width="1.41"/><ellipse cx="300.15" cy="268.63" rx="8.19" ry="12.13" fill="#fce300" stroke="#010002" stroke-width="1.41"/><path d="M238.08,289.1s1.67-14.14,25.82-35.58c0,0-.83-5.55,7.22-11.21" fill="none" stroke="#010002" stroke-miterlimit="10" stroke-width="1.41"/><path d="M300.15,266s69.48-30.79,69.66-102H230.49C230.66,235.19,300.15,266,300.15,266Z" fill="#fff" stroke="#010002" stroke-width="1.41"/><line x1="262.64" y1="163.95" x2="273.35" y2="163.95" fill="none" stroke="#010002" stroke-miterlimit="10" stroke-width="1.41"/><line x1="241.2" y1="163.95" x2="251.92" y2="163.95" fill="none" stroke="#010002" stroke-miterlimit="10" stroke-width="1.41"/><line x1="284.07" y1="163.95" x2="294.79" y2="163.95" fill="none" stroke="#010002" stroke-miterlimit="10" stroke-width="1.41"/><path d="M241.2,164v45.52s5.33,10.55,10.72,17.17V164Z" fill="#e03c31" stroke="#010002" stroke-width="1.41"/><path d="M262.64,164v75s6.7,6.57,10.71,9.74V164Z" fill="#e03c31" stroke="#010002" stroke-width="1.41"/><path d="M284.07,164v92.74s7.65,4.94,10.72,6.56V164Z" fill="#e03c31" stroke="#010002" stroke-width="1.41"/><line x1="241.2" y1="163.95" x2="251.92" y2="163.95" fill="none" stroke="#010002" stroke-width="1.41"/><line x1="262.64" y1="163.95" x2="273.35" y2="163.95" fill="none" stroke="#010002" stroke-width="1.41"/><line x1="284.07" y1="163.95" x2="294.79" y2="163.95" fill="none" stroke="#010002" stroke-width="1.41"/><path d="M359.09,164v45.52s-5.32,10.55-10.72,17.17V164Z" fill="#e03c31" stroke="#010002" stroke-width="1.41"/><path d="M337.66,164v75s-6.71,6.57-10.72,9.74V164Z" fill="#e03c31" stroke="#010002" stroke-width="1.41"/><path d="M316.22,164v92.74s-7.64,4.94-10.72,6.56V164Z" fill="#e03c31" stroke="#010002" stroke-width="1.41"/><line x1="373.55" y1="334.86" x2="367.09" y2="342.76" fill="none"/><line x1="359.09" y1="333.99" x2="376.88" y2="350.43" fill="none"/><path d="M412.49,293,409.79,304h0l7.39,7.37h0l-10.45,44.15-9.3-12.49-13.78,6.44,10.46-44.16h0l9.69-2.71h0l2.51-11A6.6,6.6,0,0,1,412.49,293Z" fill="#69b3e7" stroke="#010002" stroke-miterlimit="10" stroke-width="1.41"/><path d="M415,285.7l-5.32,9.94h0l5.33,9.13h0l-21,39.81L388.11,330l-14.89,2.45,20.95-39.8h0l10,0h0l5.14-10A7.07,7.07,0,0,1,415,285.7Z" fill="#69b3e7" stroke="#010002" stroke-miterlimit="10" stroke-width="1.41"/><path d="M415.86,288.59l-14.16,18h0L405,316.75h0L376,350.57,373.39,335l-15-1.14L387.27,300h0L397,302.4h0l15-19.11S416.09,285.3,415.86,288.59Z" fill="#69b3e7" stroke="#010002" stroke-miterlimit="10" stroke-width="1.41"/><path d="M51.48,61s19,11,78.06,22" fill="none" stroke="#010002" stroke-width="1.41"/><path d="M59.9,76.14S111.25,92.89,135.16,95" fill="none" stroke="#010002" stroke-width="1.41"/><path d="M80.12,95a555.05,555.05,0,0,0,65.4,15.42" fill="none" stroke="#010002" stroke-width="1.41"/><path d="M105.83,114.65s34,8.17,50.28,9.53" fill="none" stroke="#010002" stroke-width="1.41"/><path d="M128.66,130.72s28.79,6,36.08,6.72" fill="none" stroke="#010002" stroke-miterlimit="10" stroke-width="1.41"/><path d="M147,145.53s21,3.19,29.37,3" fill="none" stroke="#010002" stroke-miterlimit="10" stroke-width="1.41"/><path d="M173.09,158.3s8.49-.4,12.57-1.08" fill="none" stroke="#010002" stroke-miterlimit="10" stroke-width="1.41"/><path d="M181,172s7.22-1.95,11.48-4.68" fill="none" stroke="#010002" stroke-miterlimit="10" stroke-width="1.41"/><path d="M191.59,186.08a16.57,16.57,0,0,0,8.24-8" fill="none" stroke="#010002" stroke-miterlimit="10" stroke-width="1.41"/><path d="M205.15,191.29s4.31-3.85,4.58-8.14" fill="none" stroke="#010002" stroke-miterlimit="10" stroke-width="1.41"/><path d="M221.26,194.65s-1.62-1.39-.51-7.43" fill="none" stroke="#010002" stroke-miterlimit="10" stroke-width="1.41"/><path d="M219.17,178.35a9,9,0,0,1-.55-4.46" fill="none" stroke="#010002" stroke-miterlimit="10" stroke-width="1.41"/><path d="M188.82,91.83s9.72,3.9,13,9.26,1.11,10.57,0,13.56c-.55,1.5-7.4,14.7.65,24.25" fill="none" stroke="#010002" stroke-miterlimit="10" stroke-width="1.41"/><path d="M189,149.28s0,0,3.47-1.12" fill="none" stroke="#010002" stroke-miterlimit="10" stroke-width="1.41"/><path d="M168.46,135.25a69.74,69.74,0,0,0,11.47,1.22" fill="none" stroke="#010002" stroke-miterlimit="10" stroke-width="1.41"/><path d="M160.45,121s6.81.68,13.19.59" fill="none" stroke="#010002" stroke-miterlimit="10" stroke-width="1.41"/><path d="M185.74,291s-.21-5.92,7.28-6.36l22.07,30.7s-.83,2-10.82,1.75a1.89,1.89,0,0,0-1.62,1.16C201.8,320.06,185.74,291,185.74,291Z" fill="#009639" stroke="#010002" stroke-miterlimit="10" stroke-width="1.41"/><path d="M150.32,106.06s9.81,2,15.08,2" fill="none" stroke="#010002" stroke-miterlimit="10" stroke-width="1.41"/><path d="M142.18,89.39a184.81,184.81,0,0,0,21.1,4.68" fill="none" stroke="#010002" stroke-miterlimit="10" stroke-width="1.41"/><path d="M183.27,101.19s-8.7,8.09,1.75,15.59c0,0-4.35,6.82,4.35,13.94" fill="none" stroke="#010002" stroke-miterlimit="10" stroke-width="1.41"/><path d="M187.06,134.08s-1.3,13,14.62,13c0,0-3.05,11.6,12.31,11.21,0,0,1.76,9.26,12.87,7.41" fill="none" stroke="#010002" stroke-miterlimit="10" stroke-width="1.41"/><path d="M202.39,267.56a28.16,28.16,0,0,1-8,0" fill="none" stroke="#010002" stroke-width="1.41"/><path d="M179,274.38s-7.68-1.17-7.31,15.5" fill="none" stroke="#010002" stroke-miterlimit="10" stroke-width="1.41"/><path d="M183.67,278.18s-6.94-.88-6.48,15.3" fill="none" stroke="#010002" stroke-miterlimit="10" stroke-width="1.41"/><path d="M250.69,239.19a11.42,11.42,0,0,0-5.64,3.32c-2.31,2.63-6.76,2.14-6.76,2.14s2.41-2,3.24-6.82,3.52-6.33,3.52-6.33" fill="none" stroke="#010002" stroke-width="1.41"/><path d="M237.1,226.88a11.36,11.36,0,0,0-5.64,3.31c-2.32,2.64-6.76,2.15-6.76,2.15s2.41-2,3.24-6.82,3.52-6.34,3.52-6.34" fill="none" stroke="#010002" stroke-width="1.41"/><path d="M234.81,245.8a9.9,9.9,0,0,0-4.93,2.89c-2,2.3-5.9,1.87-5.9,1.87s2.1-1.7,2.83-5.95,3.07-5.54,3.07-5.54" fill="none" stroke="#010002" stroke-width="1.41"/><path d="M369.81,112.2s-34.1,17.83-69.66-1.46c-35.57,19.29-69.66,1.46-69.66,1.46V164H369.81V112.2Z" fill="#00205b" stroke="#010002" stroke-miterlimit="10" stroke-width="1.41"/><path d="M57,246.41c3.37-1.38,5.8-2.71,5.79-6.31a25.53,25.53,0,0,0-1.43-5.7L38.68,165.11a60.1,60.1,0,0,0-2.82-7.47c-1-1.95-3-2.74-5.72-3.86H59c-3.13,1.47-6,2.65-6,6a19.7,19.7,0,0,0,1.1,5.36l17.37,54.37,17.35-54.37a18.26,18.26,0,0,0,1.1-5.36c0-3.41-3-4.64-5.92-6h27.92c-2.55,1-4.63,1.82-5.7,3.86a61.19,61.19,0,0,0-2.83,7.47L80.72,234.4a36.2,36.2,0,0,0-1.44,5.77s-1,4.38,5.8,6.24Z" fill="#69b3e7" stroke="#010002" stroke-miterlimit="10" stroke-width="1.41"/><path d="M540.14,239.28V160.83a6,6,0,0,0-.67-3.12,12.42,12.42,0,0,0-5.17-3.93h26a10.67,10.67,0,0,0-5.17,3.9,6.11,6.11,0,0,0-.68,3.15v78.45a6.2,6.2,0,0,0,.7,3.23,14.17,14.17,0,0,0,5.15,3.9h-26a13.62,13.62,0,0,0,5.17-3.94A6.09,6.09,0,0,0,540.14,239.28Z" fill="#69b3e7" stroke="#010002" stroke-miterlimit="10" stroke-width="1.41"/></svg>