<svg xmlns="http://www.w3.org/2000/svg" width="300" height="300" viewBox="0 0 300 300"><path d="M295.94 116.63a3.63 3.63 0 00-.92-1.69c-1.88-.71-3.75-1.45-5.61-2.18-4.51-1.76-9.15-3.59-13.76-5-3.45-8.33-11.53-8.74-17.54-9-2.88-.15-5.6-.28-7.61-1.1L249 97l-1.49.64a164.33 164.33 0 01-27.21 9l2.3-1.88-5-2.79c-5.69-3.19-11-7.77-16.65-12.62-10.64-9.16-21.65-18.62-35.81-18.62a32.67 32.67 0 00-4.06.26l-.8.1-.7.42c-3.75 2.25-7.86 4.34-11.84 6.37-7.84 4-15.93 8.09-22.44 13.93a13.12 13.12 0 00-2 .34l3.06-3.25-4.79-2.3c-7.51-3.6-16.1-7.72-26.57-7.72a40.87 40.87 0 00-6.12.46l-1 .15-.8.62C77.62 87.44 66.78 92.83 56.29 98s-21.52 10.69-31.1 18.16l.09-.62.48-3.94-3.94-.4a65.11 65.11 0 00-6.54-.34 67.88 67.88 0 00-12.44 1.19c-.18.23-.36.46-.52.71-1.53 2.42.93 2.8 2.72 2.84a64 64 0 0110.24-.85 61 61 0 016.14.31c-1 7.91-9.58 8.89-15.26 11.11a12.77 12.77 0 01-3.05.9 1.42 1.42 0 00-.1 1c7.24-1.65 14.81-2.49 21.19-6.08 19-16.52 44.69-22.9 65.24-38.86a36.77 36.77 0 015.56-.37c9.36 0 17.18 3.63 25 7.37-6.52 6.93-16.24 15.12-22.2 23.58-2.36 1.8-7.91 1.67-6.94 5.56 7.21-5.15 15-6 18-15.27l1.4 1.38c6.57-.41 8.4-9.72 16.3-9.72h.34c9.44-9 23.17-13.88 34.71-20.81a28.86 28.86 0 013.56-.23c19.7 0 33.53 21.19 50.56 30.75a13.45 13.45 0 01-8.88 2.9c-.72 0-1.47 0-2.22-.11-3.54 3.41-9 10.13-14.4 10.13a6.19 6.19 0 01-2.26-.42c-1.1 3.88-6.52 3.74-9.71 5.54-6 3.62-14.86 2.92-19.44 7 3.47-1.66 7.91-.42 11.11-2.78a31.59 31.59 0 003.56.2c12.48 0 19.19-8 29.74-14.08A170 170 0 00249 101.23c7.91 3.19 20.4-1.81 23.59 9.71 7.08 2 14.19 5.07 21.61 7.85 1.13-.25 1.97-.88 1.74-2.16zM215.8 134.25c-10.27 5.55-17.35-4.44-27.76-2.78-6 .15-10.56 4.31-12.49 9.72 18.45-.42 37.9 1.11 55.51-1.39 11.66 6.25 26.24 0 37.48 0-14.99-8.05-36.08-1.67-52.74-5.55zm16.66 4.17c-18.74-1.25-35.25 2.77-54.14 1.38 2.38-2.76 6.66-6.52 11.1-6.93 9 .27 17.07 7.35 26.38 2.77 15.26 3.47 34.15-1.39 48.58 4.16-7.38-2.49-22.21 5.28-31.92-1.38zM163.05 135.64c-5.41-1.8-9.43 3.61-13.86 0-6 1-15.83-8.61-18.05 2.78l2.76 2.77c11.25 0 22.76.27 33.32-1.39zm-30.53 2.78c5.28-6.8 16.52 1.24 23.6-1.38 2.36.41 5.55-1.12 6.93 1.38a75.47 75.47 0 01-30.53 0zM86.72 137v-1.4c-5.12-3.19-11.1-.27-15.27 2.78.52 10.15 12.42 2.89 18 6.9-3.35-6.46-15.26 1.69-15.26-6.9 9.31-5.83 18.61 5.13 30.54 1.38-3.06 3.88-10.12 3.75-15.25 5.54a5.55 5.55 0 011.36 1.41c5.71-2.5 14.73 0 16.66-8.33-6.9-.38-14.66 1.14-20.78-1.38zM112 137.1l11.42 2.53c.5 0 .8 0 .8.17l-.8-.17c-2.37.1-9.43 1.61-11.6-2.45a4.44 4.44 0 00-1.49 1.24c4.31 4.57 14.16 3 18.06 1.38-4.7-1.67-12.29-4.69-16.39-2.7z"/><path fill="#0088a5" d="M32.6 184.21v.01-.01zM54.81 184.21l-.01.01h.01v-.01zM89.5 184.21v.01h.01l-.01-.01zM78.4 182.83l.01-.01h-.01v.01zM79.79 184.22h-.01.01zM63.13 178.67zM90.89 181.45v-.01.01zM95.06 184.22l-.01-.01v.01h.01z"/><path d="M76.38 173.46h-4.09v-4.1h4.09zm-3.12-1h2.14v-2.15h-2.14zM80.9 173.46h-4.1v-4.1h4.1zm-3.12-1h2.15v-2.15h-2.15zM85.41 173.46h-4.1v-4.1h4.1zm-3.13-1h2.16v-2.15h-2.16zM89.93 173.46h-4.11v-4.1h4.11zm-3.14-1H89v-2.15h-2.21zM94.43 173.46h-4.1v-4.1h4.1zm-3.13-1h2.16v-2.15H91.3zM111.43 173.12h-4.1V169h4.1zm-3.13-1h2.16V170h-2.16zM115.94 173.12h-4.08V169h4.08zm-3.11-1H115V170h-2.14zM120.44 173.12h-4.08V169h4.08zm-3.11-1h2.14V170h-2.14zM125 173.12h-4.09V169H125zm-3.12-1H124V170h-2.15zM129.47 173.12h-4.09V169h4.09zm-3.12-1h2.15V170h-2.15zM61.12 172.41H57v-4.09h4.09zm-3.12-1h2.15v-2.15H58zM145.09 173.46H141v-4.1h4.1zm-3.13-1h2.16v-2.15H142zM149.6 173.46h-4.1v-4.1h4.1zm-3.13-1h2.16v-2.15h-2.16zM154.11 173.46H150v-4.1h4.11zm-3.13-1h2.16v-2.15H151zM158.61 173.46h-4.08v-4.1h4.08zm-3.11-1h2.14v-2.15h-2.14zM163.13 173.46H159v-4.1h4.09zm-3.12-1h2.14v-2.15H160zM180.13 173.12H176V169h4.09zm-3.12-1h2.15V170H177zM184.64 173.12h-4.1V169h4.1zm-3.12-1h2.15V170h-2.15zM189.14 173.12h-4.08V169h4.08zm-3.11-1h2.14V170H186zM193.66 173.12h-4.1V169h4.1zm-3.13-1h2.16V170h-2.16zM198.18 173.12h-4.11V169h4.11zm-3.14-1h2.17V170H195zM214.89 173.46h-4.09v-4.1h4.09zm-3.12-1h2.15v-2.15h-2.15zM219.41 173.46h-4.09v-4.1h4.09zm-3.12-1h2.15v-2.15h-2.15zM223.91 173.46h-4.09v-4.1h4.09zm-3.11-1h2.14v-2.15h-2.14zM228.42 173.46h-4.08v-4.1h4.08zm-3.11-1h2.14v-2.15h-2.14zM232.94 173.46h-4.1v-4.1h4.1zm-3.13-1H232v-2.15h-2.15zM249.87 174.5h-4.1v-4.1h4.1zm-3.13-1h2.16v-2.16h-2.16zM254.38 174.5h-4.11v-4.1h4.11zm-3.14-1h2.17v-2.16h-2.17zM258.88 174.5h-4.08v-4.1h4.08zm-3.11-1h2.14v-2.16h-2.14zM263.4 174.5h-4.09v-4.1h4.09zm-3.12-1h2.14v-2.16h-2.14zM267.91 174.5h-4.1v-4.1h4.1zm-3.13-1h2.16v-2.16h-2.16z"/><path d="M299.43 187.38a.92.92 0 00-.32-.25c-3.7 0-22-.19-23.45-.22l-.06.08c-1.81-.42-4.58 1.12-5.55-1.39l1.38-1.38-1.38-2.78c2.49-3.75 1-9.29 1.38-13.88a68.5 68.5 0 00-29.14 0c-1.26 6.39 2.64 14-1.37 18-1.82-.41-4.59 1.12-5.57-1.38l1.4-1.39-1.4-2.77c2.51-3.76 1-9.3 1.4-13.88a68.87 68.87 0 00-29.15 0v15.26l1.39 2.78-1.39 1.38c-2.36-.41-5.56 1.12-6.93-1.38l1.37-1.39-1.37-2.77c2.49-3.76 1-9.3 1.37-13.88a68.82 68.82 0 00-29.14 0v15.26l1.38 2.78-1.38 1.38c-2.36-.41-5.55 1.12-6.94-1.38l1.39-1.39-1.35-2.73c2.49-3.76 1-9.3 1.39-13.88a68.87 68.87 0 00-29.15 0v15.26l1.39 2.78-1.39 1.38c-2.36-.41-5.55 1.12-6.94-1.38l1.39-1.39-1.39-2.77c2.5-3.76 1-9.3 1.39-13.88a68.82 68.82 0 00-29.14 0c-.42 4.15 1.11 9.16-1.4 12.49h-2.81c-2.49-3.33-1-8.34-1.37-12.49a68.87 68.87 0 00-29.15 0c-.42 4.15 1.1 9.16-1.39 12.49h-2.78c-2.5-3.33-1-8.34-1.39-12.49h-8.33c0 1.53.29 3.33-1.38 4.15-5.55.15-.71-6.38-4.17-8.32-5.55-.14-.7 6.38-4.16 8.32L43.83 169c-3.74-1.67-3.9 2.63-5.56 4.15-3.19-5.82.44-11.1-2.77-15.26 4.43.28 2.5-5.83 6.94-5.56 1.39-12.2 12.91.43 19.44-5.54 2.22-2.37 5.42-4.45 4.17-8.33-10.29-.7-25.68-5.55-33.32 4.16-5.27 6 1.39 13.33-2.77 18l1.38 1.38c3.74 2.77-1 5.55-1.38 8.32-1.81-1.8-1.67-6.93-5.56-5.55V169c1.94-.57 2.78 1.8 4.16 2.76-1.81 2.78-3.37 13.51-9.33 12.12-4.93.58-10.24.93-15.69 1.12a2.47 2.47 0 00-.36.11c-.79.28-1.9 1.06-1.49 2a2.07 2.07 0 001.4 1h295.63c1 .03.81-.6.71-.73zM32.6 156.46c-3.06-5.83 1.81-8.61 2.77-13.88 7.08-7.21 20.26-3.88 29.15-2.78v1.39c-2.77 6.24-9.3 3.75-13.89 5.56-1-2.5-3.74-1-5.54-1.4-4.31 4.87-8.09 8.75-12.49 11.11zm2.4 26.13l-2.32 1.17-1.2-1.2-.2-.19-.24.12-2.51 1.26-1.27-2.31 1.27-2.3 2.47 1.25.17.09.16-.09L34 179.1c1.11.66 1 2.04 1 3.49zm-3.79-6.7c-.28-6.66 5.83-6.66 5.56 0zm38.87-8.33h25c2.5 2.36 1 6.53 1.39 9.72-8.89.28-17.9-3.33-26.36 0zm-12.88 15l-2.31 1.17-1.21-1.2-.18-.19-.25.12-2.51 1.27-1.28-2.32 1.28-2.31 2.51 1.26.17.09.16-.09 2.59-1.29c1.15.7 1.07 2.07 1.03 3.52zm3.15-5.31a30.86 30.86 0 00-19.42 0c.42-2.36-1.12-5.56 1.38-6.95.83 1.67 2.64 1.39 4.17 1.39l1.39-5.54c1.94 1 1.24 8.32 6.93 5.54 1.67-.83 1.4-2.63 1.4-4.16h5.55c-.42 3.23 1.11 7.39-1.4 9.75zm11.05 6.33l-1.06-1.05-.29-.29-.26.31c-1.63 1.94-5.59 1.55-7.59.09l1.13-3.41a10.56 10.56 0 008 1.22l1.22 1.23v.06zm6.74-1.05l-1.06 1.06-1.25-1.85.06-.06 1.11-1.04 1.24 1.86zm11.17 1.26c-1.74-.19-5.49.44-8.29-.17.73-1.07.41-3.87.41-3.87l-.73-.75c2.87 0 5.72-.3 7.07 2.57l.23.47.39-.37 1.11-1.13 1.12 1.13.06.06zm16.79-.19l-1.1-1.04-.35-.36-.24.45c-1.06 2.1-3.93.91-6.46 1.18l-1.26-1.27-.28-.27-.27.27-1.06 1.06-1.23-1.85.05-.06 1.12-1.13 1.12 1.13.35.35.25-.43c1-2.1 3.93-.92 6.46-1.19l1.27 1.27.27.27.26-.27 1.12-1.13 1.12 1.13.06.07zm6.73-1.07l-1.07 1.06-1.23-1.85.06-.06 1.06-1.06 1.24 1.86zm11.17 1.29c-1.73-.21-5.49.44-8.3-.17.73-1.07.54-3.76.54-3.76l-.11-.11-.74-.74c2.88 0 5.72-.3 7.07 2.57l.23.47 1.5-1.49 1.12 1.12.06.06zm5.8-.19l-1.24-1.85 1.07-1.09 1 2.06zm1.32-6.35c-8.87.28-17.9-3.33-26.36 0v-9.72h25c2.48 2.36.96 6.53 1.37 9.72zm9.77 6.18l-1-1.94.92-.94 1.12 1.13.06.06zm6.62-.9l-1.06 1.06-1.23-1.85.05-.06 1.06-1.06 1.24 1.85zm12.55-.79l-1.38 2c-1.83-.2-5.84.48-8.66-.3a3 3 0 00.63-1.27l.46-.81-.46-.81a3 3 0 00-.89-1.56c3 0 6-.42 7.42 2.57l.23.47.37-.37 1.12-1.12 1.13 1.12.26-.27-.26.26zm4.44 1.85l-1.24-1.85v-.06l1-1 1 2.06zm1.32-6.34c-8.88.28-17.89-3.33-26.36 0v-9.72h25c2.54 2.36.97 6.53 1.37 9.72zm9.77 6.18l-1-1.94.93-.93 1.12 1.12.05.06zm5.56.16l-1.23-1.84.06-.07 1-1.07 1.24 1.86zm12.24.2c-1.83-.2-5.85.48-8.68-.3a3.15 3.15 0 00.62-1.24l.47-.84-.47-.83a3 3 0 00-.87-1.53c3 0 6-.42 7.41 2.57l.23.47.38-.37 1.12-1.13 1.13 1.13.05.06zm5.8-.2l-1.19-1.85.06-.06 1-1 1 2.06zm1.34-6.34c-8.9.28-17.91-3.33-26.39 0v-9.72h25c2.5 2.36.97 6.53 1.4 9.72zm9.75 6.18l-1-1.94.93-.94 1.17 1.19zm6.67-.86l-1.06 1.05-1.24-1.84v-.06l1.06-1.07 1.24 1.87-.05.05zm11.14 1.22c-1.83-.2-5.85.48-8.68-.3a3.15 3.15 0 00.62-1.24l.47-.84-.47-.83a3 3 0 00-.87-1.53c3 0 6-.42 7.41 2.57l.23.47 1.51-1.5 1.12 1.13.05.06zm5.8-.2l-1.24-1.85.06-.06 1-1 1 2.06zm1.32-6.34c-8.88.28-17.9-3.33-26.36 0v-9.72h25c2.48 2.36.96 6.53 1.37 9.72zm9.62 7.79l-1.24-1h-.08l.35-1.11 1.07-1.06 1.13 1.11.05.06zm6.77-1.12l-1.05 1.05-1.24-1.86.06-.06 1.06-1.05 1.24 1.85zm11.18 1.27c-1.85-.21-5.86.46-8.68-.31a3.06 3.06 0 00.63-1.26l.46-.82-.46-.81a3 3 0 00-.87-1.55c3 0 6-.42 7.41 2.54l.23.49.37-.38L263 182l1.11 1.11.06.06zm5.8-.2l-1.23-1.86 1.07-1.08 1 2.06zm1.33-6.35c-8.88.27-17.9-3.33-26.37 0V169h25c2.46 2.31.97 6.48 1.38 9.67zM106.15 184.22z"/><path d="M107.54 181.45v-.01l.01.01h-.01zM111.71 184.22h-.01.01zM114.48 184.21l.01.01h-.01v-.01zM114.48 178.67zM175.55 184.21l.01.01h-.01v-.01zM174.15 181.44h.01-.01z"/></svg>