<svg xmlns="http://www.w3.org/2000/svg" width="600" height="400" viewBox="0 0 600 400"><title>flag-oregon-thumb</title><path d="M0,400H600V0H0Z" fill="#002a86"/><path d="M262.4,105.55a29.19,29.19,0,0,0-15.59,5.87c.51,1.23,1.44,1.11,2.47.8l.31-.39a7.29,7.29,0,0,0,2.47-1.14.83.83,0,0,1,.2-.22l.08,0c.67-.4,1.91-.24,2.5-.81a1.17,1.17,0,0,0,.31-.56c4.21-2.58,8.31-1.85,13.66-1.44v1c-3.6-.72-10.19-1.23-13.28,1.86a14.49,14.49,0,0,0,11.34,3.58l3.08-1.33c1.54,6.06,8.13,8.73,13.17,10.69a8.6,8.6,0,0,0,1.14-3.69c-1.24-1.45-3.41-1.46-4.34-3.11a6.62,6.62,0,0,1,5.06,2.58,4.43,4.43,0,0,1-1,4.22,1.32,1.32,0,0,0,1.59.25l.05,0,7.23-5.78.08-.06a1.08,1.08,0,0,1,1.44.67l.23-.2c2.36,3,6.16,3.81,8.63,6.48l-.3.41,0,.09c-.51,0-1.2-.71-1.8-1-2.47-2.16-5.45-3.3-7.92-5.48-2.16,2.68-5.17,3.61-7.64,6-4.83-.22-9.45-3.2-13.47-6.28a14.66,14.66,0,0,1-2.55-4.42c-1-.1-2,.93-3,1-3.91-.21-8.94-.53-12-4.22-2.88.51-6,4.73-8.75,1.14h-.5c-9.68,9.56-23,15.52-30.78,26.64,1.65,2.26,4.13-.82,6.08-1.45,2.68-2.26,6.9-3.5,9.48-6.89l.19-.91,0,0,0,0-.05,0-.06,0c-.4-.17-1.08,0-1.44-.16l0,0,0,0,0-.05,0,0,0,0,0-.05s0,0,0,0l0-.06s0-.06,0-.08a1,1,0,0,1,0-.17v-.08c.51-.77,1.53-.58,1.92-1,0,0,0,0,0,0a0,0,0,0,0,0,0l0,0a.17.17,0,0,1,0-.06.43.43,0,0,0,0-.11s0,0,0,0c3.29-2,7.31-3.74,9.78-6.62l4.42-3.69.05,0a0,0,0,0,1,0,0l.06,0,0,0c.16.07.37.11.5.17l.06,0,0,0s0,0,0,0,0,0,0,0l0,0v.12a.55.55,0,0,1,0,.16c-5,3.82-8.54,8.33-14.3,10.39v1.22c1.34.31,2.47-1.1,3.91-1.41,2.78-1.75,5.36-3.92,8.34-5.25a1.62,1.62,0,0,1,.3,1.14,13.93,13.93,0,0,1-2.78,1.52l-.3.31.17.19a.65.65,0,0,1-.14,0h-.23a3,3,0,0,0-.94.42v.33l-.19-.22c-.83,1.44-2.56,2-4,2.78-1,.31-1.89,1.12-2.81,1.33a.75.75,0,0,0-.33-.33c-.16-.08-.34-.14-.48-.2l-.05,0-.06,0,0,0a.47.47,0,0,1-.14-.17l0-.08c-1.57,5.1-7.23,5.93-10.92,9,0,0,0,0,0,.06a1.45,1.45,0,0,0,.95,1.58h1.67a134,134,0,0,0,12.52-9.36,3,3,0,0,1,1.81-.61.46.46,0,0,1,.22.14l0,0v.14s0,.05,0,.06v0c-.27.64-1.43.78-1.8,1.25a62.77,62.77,0,0,1-11.12,8.55.27.27,0,0,1,0,.09v.16l0,.09,0,.05,0,.06,0,0,0,0a3,3,0,0,0,.78.39c4.53-.61,7.32-4.92,10.92-7,3.5-2.88,6.38-5.34,9.47-8.33.2.19.58.31.69.5v0a.88.88,0,0,1,.14.31v.08l0,0v0l0,0-.09.09c-.12.09-.32.17-.44.27l0,0a.41.41,0,0,0-.05.09v0s0,0,0,0v.11a1,1,0,0,0,.05.2c-3,1.64-5.15,4.51-7.83,6.47-2.16,1.75-4.92,3.61-7,5.55,1.75,1.65,3.89-.82,6.05-.72a5.73,5.73,0,0,1,3.2-3.19l.3.41a19.07,19.07,0,0,0-2.16,2.89,2.82,2.82,0,0,0,3.08-1.25c4.32-3.08,5-8.74,9.47-11.52.82,2-2.06,2.06-2.16,3.91a15.36,15.36,0,0,0-2.78,4.64l-.2-.22-1.55,2.05a2.91,2.91,0,0,0,2.28,1.14c2.26-2.15,3.18-4.71,5.55-7.08a1.16,1.16,0,0,1,.42.22s0,0,0,.06l0,0,0,0v0l0,.06v.05s0,0,0,0a1.65,1.65,0,0,1,0,.42,7.8,7.8,0,0,0-2.39,3.39c2.67,1.22,3.39-2.58,4.83-3.92a21.46,21.46,0,0,1,3.31-6.06l0,0a.57.57,0,0,0,.16.11,3.17,3.17,0,0,1,.37.17l.08.08,0,0s0,0,0,0,0,0,0,0l0,0a.94.94,0,0,0,0,.09v0s0,0,0,.06v0l0,0v0h0l0,0s0,0,0,0l-.17,0s0,0,0,0l0,0s0,0,0,0,0,0,0,0,0,0,0,0a23.39,23.39,0,0,0-3,6h.05l0,0c.35.2.62.83,1,1h0l0,0h.05l.06,0h.08l.06,0h0l.05,0h0l.19-.14.06-.06.14-.16c.71-.92,1.34-2.12,2.05-2.95l.06,0,0,0a.76.76,0,0,1,.11.14.13.13,0,0,0,0,.05l0,0a2.08,2.08,0,0,1,.06.83v.06s0,.06,0,.08c-.11.51-.73,1-.94,1.42a.11.11,0,0,0,0,.06l0,.05v.06s0,.08,0,.11,0,0,0,.05V133l0,.05a.11.11,0,0,0,0,.06,1.19,1.19,0,0,0,.44.42,4.15,4.15,0,0,0,3-2.67.84.84,0,0,1,.31.28l0,0,0,.08c.28.84-.93,2.33-.91,3a.4.4,0,0,0,0,.11s0,0,0,0l0,0v0l0,0h0l0,0h0l0,0h0a3.18,3.18,0,0,0,1.47-.25s0,0,0,0a.52.52,0,0,0,.19-.17l.06-.08c.08-.16.14-.36.22-.5l0,0a.42.42,0,0,1,.22-.14.87.87,0,0,1,.28,0,.93.93,0,0,1,.28.23l.08.11a.7.7,0,0,1,0,.25,1.07,1.07,0,0,1-.19.61,1.36,1.36,0,0,1-.22.25c1.13,1.43,3,1,4.11,2.47l.92-1.53h.52v0a3.59,3.59,0,0,1,0,.47v.06l0,0v0l0,0,0,0,.06,0s0,.05,0,.05l-.14.11c-.22.25-.28.59-.47.81a.53.53,0,0,1-.14.11l-.08.06h0c.21.56.46.79.72.83a.69.69,0,0,0,.25,0c.35-.07.72-.32,1-.39l.06,0h.08l.09,0,.05,0a.62.62,0,0,1,.14.14,2,2,0,0,1,.17.75,2.69,2.69,0,0,0,.91.67,1.34,1.34,0,0,0,.64.05c.56-.47.87-1.52,1.61-1.64h.23c.1,1-.32,2.27.3,3.09a.78.78,0,0,0,.53.05l.14-.05a2.92,2.92,0,0,1,.61-.31.66.66,0,0,1,.28,0,1.43,1.43,0,0,0,0,.33.11.11,0,0,0,0,.06s0,0,0,.06,0,0,0,.05l0,.06,0,0,.06.09,0,0a3.23,3.23,0,0,0,.53.27l0,0,1.28.64a18.73,18.73,0,0,0,1.52-5.53,3.34,3.34,0,0,0,.89-1.33,1.92,1.92,0,0,0,0-.22s0-.08,0-.11,0-.09,0-.12,0-.06,0-.08a.26.26,0,0,0,0-.08s0,0,0-.06c-.51-1.16-3.44-1.39-4.14-2.61l0,0c-4.22-2.26-7.82-6.79-11.11-10.39a.57.57,0,0,1-.11-.11c-.46-.52-.34-1.27-.81-1.75-2.47,3.91-7.19,2.59-11,2.59-3.3-1-7.73-3.4-8.86-7.73l.22-1.33a.8.8,0,0,1,.22,0l.12,0,.08,0,.11,0a0,0,0,0,0,0,0l0,0s0,0,0,0,0,.06,0,.08,0,0,0,0v0c.12.38,0,1,.05,1.42a.11.11,0,0,1,0,.06l0,0v0s0,0,0,0a.13.13,0,0,0,0,0s0,0,0,0l.06.06c.68.48.63,1.63,1.33,1.83l.11,0a18.62,18.62,0,0,1,1.84-2.09c1.54,1.66-3.08,2.9-.31,4.14l2-2.58.81.72a6.65,6.65,0,0,0-1.53,2.59,10.13,10.13,0,0,1,1.83,1.11c.31-1.85,1.45-3.3,2.48-4.84,1.13,1.14-.94,2.49-1.14,3.92-.16.24-.5.44-.64.69,0,0,0,0,0,0v.06s0,0,0,0,0,0,0,0v.06c3,.1,6.57,1.86,8.11-2.25a.73.73,0,0,1,.31.25l.06.08s0,.1,0,.14a1,1,0,0,1,0,.17,3.24,3.24,0,0,1-.22.88l-.92.73c2.67,1.12,3.2-2.17,4.95-3.39.72.71.62,2,1.14,3,4.62,4.84,8.52,10.41,14.8,12.67a16.37,16.37,0,0,0,2.36-4.84,6.35,6.35,0,0,1,4.34-.61,9.14,9.14,0,0,1,3.27,3.59,20,20,0,0,1-.3,7c1.44.72,3.71.3,5.36-.42-.21-2.67-2.39-7.19,1.11-8.83a15.17,15.17,0,0,1,5.67-.23c.62-2.88-.73-6.17-1.86-8.64a1.22,1.22,0,0,1,.19-1.19.92.92,0,0,1,.25-.19c.66-.35,1.82-.23,2.44-.59l.12-.08c5.86-1.33,12.86-3.59,15-9.86h.39c-.31,6.27-7.51,8.42-12.25,10.16-1.75.52-3.68.53-5.22,1.56a9.13,9.13,0,0,0,1.11,3.31c2.78-.11,6.3-2.48,9-4,.72,0,1.43-.73,1.84-1.14,3.5-.83,5.75-5.33,9.36-5.33,1.13.11,2.27,2,3.61,1.44a6.89,6.89,0,0,0,7.19-2.28.69.69,0,0,1,.14-.22c.35-.35,1.12-.28,1.72-.28a27,27,0,0,0,7.2,4.2,3.75,3.75,0,0,1,.92-.09l.05,0s0,0,.06,0l.05,0a1.59,1.59,0,0,0,.25-.17c-6-4.72-11.92-9.25-19.64-9.44-8.33-2.07-11.95,10.37-20.39,8.52-1.95.1-5.13,0-6.16-2-1.85,1.85-4.72,3.38-7.5,2.25-1.75-1.33-3.6-2-5.25-3.39-1.75,1.24-3.59,3-6.06,2.06-6.28-1.76-10.91-8.32-17.8-8.12C262.64,105.56,262.52,105.55,262.4,105.55Zm13.27,8.53h0c1.13.41,2.56,1.23,3,2.36a1.19,1.19,0,0,1-.36.09c-.05,0-.12,0-.16,0l-.14,0-.14,0c-.71-.23-1.3-1.12-2-1.5a1.51,1.51,0,0,1-.28-.75v-.08l0,0v0h0Z" fill="#ffea0f"/><path d="M326.56,138.47a1.5,1.5,0,0,0-.44.2c-4,3.7-9.26,6.37-13.89,8.33a47.09,47.09,0,0,1-12,2.25l0,0,0,.08a.84.84,0,0,0-.06.14s0,.08,0,.11,0,.36,0,.53a1,1,0,0,1-.06.22.93.93,0,0,1-.31.33l.2.2c-1.24,1.75-3.6,1-5.25.94-1.79-.81-5.38.72-6.75-.91a2.27,2.27,0,0,1-.45-.95l-.72-.92c-2.64-.67-5.54-.9-7.94-2.25l-2.25-.66c-1.41-.53-3.31-1-3-3.06h-.34l-.05,0h-.06c-.38.16-.61.63-.92.78l0,0h-.06l0,0h-.11l-.05,0H272l-.05,0-.06,0-.06,0a.57.57,0,0,1-.13-.08l-.06-.06c-.65-.74-.65-2-1.56-2.52a1.38,1.38,0,0,0-.3-.14c-.21.63-.21,1.35-.72,1.86a13.19,13.19,0,0,1-4.42-3.09,1.5,1.5,0,0,0-.28.62,3.56,3.56,0,0,1-.14,1.25c-1.85-.63-1.72-2.91-4-2.81a4.13,4.13,0,0,0-.22,1.86l0,0-.16.11a.65.65,0,0,1-.17.08.51.51,0,0,1-.17,0h-.19c-.81-.14-1.68-1.33-2.67-1.55a1.45,1.45,0,0,0-.3,0l-.2-.2c-.72.81.1,1.53-.72,2.25-1.34-.63-2.78-1.95-4.22-.91.1,1.54.42,2.66-.81,3.89a1.38,1.38,0,0,0,.53.33h.28l.08,0c.65-.22,1.12-1.35,1.78-1.64.88-.07,1.6-1.08,2.42-1.33a1.19,1.19,0,0,1,1,.19,1.47,1.47,0,0,1,0,1c-.27.66-1,1.14-1.28,1.75l0,.11s0,0,0,0a.26.26,0,0,0,0,.08,2.08,2.08,0,0,0,1.72.34l.08,0,.06,0,.08-.05,0,0c.8-.64.88-2.45,1.58-3.22l.06-.06.14-.11.08-.06.06,0,.11-.06a2.5,2.5,0,0,1,2,.56l0,.05.05.11a1,1,0,0,1,.06.22c.13.81-.66,1.55-.72,2.09a.21.21,0,0,0,0,.11v.05s0,.07,0,.09a0,0,0,0,1,0,0l.06.08,0,0,.13.11a2.29,2.29,0,0,0,.62.22c.82-.93,1.35-2.16,2.69-2.47.41.52.72,1.34.31,1.86-.11.16-.26.26-.34.39a.13.13,0,0,1,0,.05v0l0,0v.14s0,0,0,.05v0l0,.06,0,0c2,1.23,2.86-2.88,5.33-1.13.1,1.13-.31,1.86.31,2.58,1.33-.32,2.57-1.74,4.11-.92a.55.55,0,0,1,.14.09l0,0c.52.58.78,2.31,1.47,2.75l0,0c.32.14.75,0,1.31-.53,2,0,3.6,1.86,5.56.61,1.33-.5,2.49-.13,4.3,3.06l27.72.83c4.38-3.91,9.84-5,14.78-5l0,0,.28-.22.08-.09,0,0v-.13c-5.35-1.75-8.64,1.53-13.89,1.63a10.19,10.19,0,0,0-.61-.94l0-.06v0a.81.81,0,0,0,0-.11v-.14l0,0v0c3.91-1.33,6.9-4.74,11.53-4.64a13.4,13.4,0,0,0,5.78-2.55,4.8,4.8,0,0,0-3.2-.23c-1.64,1-3.81,3.31-5.55,1.87.5-1.65,2.76-2,3.69-3.31l0-.08,0-.06,0,0-.09-.08,0,0,0,0-.06,0-.08,0-.11,0h-.31Zm-17.75,12.17a2.1,2.1,0,0,1,.72.05l.09,0a1.18,1.18,0,0,1,.19.11.93.93,0,0,1,.14.14,1.05,1.05,0,0,1,.22.45,3.33,3.33,0,0,1-2.41-.12l0,0-.14-.11,0,0s0,0,0-.06a.86.86,0,0,1-.13-.36A6.32,6.32,0,0,0,308.81,150.64Zm-5.33,0h.17l.08,0,.08,0,.06,0,0,0,0,0,.09.09.05.05a1.46,1.46,0,0,1,.14.28l0,.06,0,0a.87.87,0,0,1-.12.14c-.44.37-1.38.1-2,.2l-.19-.22h.08l.09,0c.36-.13.89-.54,1.33-.67l.11,0Z" fill="#ffea0f"/><path d="M294.67,99.75a7.88,7.88,0,0,0-2.72.53c-3.09.92-3.38,4.62-3.69,7.61-.21,1.21-1.1,2.34-1.23,3.36l.2-.17h.08a1,1,0,0,1,.67.14.91.91,0,0,1,.17.17s0,0,0,0l0,0s0,0,0,0l0,.11a4.28,4.28,0,0,0,2.11.78,1.29,1.29,0,0,0,.25-.06.8.8,0,0,0,.16-.08l.12-.08a1.84,1.84,0,0,0,.55-.87.82.82,0,0,1,.75.12.79.79,0,0,1,.17.19c-.19.58,0,1.32-.42,1.75l-.08.08c0,.06,0,.13.05.17a.34.34,0,0,1,.06.06l.08.08.06,0,.08,0,.08,0,.48.11.08,0,.08,0a.44.44,0,0,1,.11.08s.05,0,.06.06c2.58.82,3.89-1.13,5.75-2.37.41-2.16-2.37-4.62-1.14-7.19,1.14-1.54,2.58-.63,4.33-1.14a3.17,3.17,0,0,0,.48.78l.14.14a.88.88,0,0,0,.83.22,3.24,3.24,0,0,0-1.14-3.72,3.33,3.33,0,0,0-3.28.53,1.18,1.18,0,0,1-.69.44h-.09l0,0a.19.19,0,0,1-.08,0l-.06,0s0,0,0,0l-.08-.06,0,0c-.37-.39-.61-1.23-1-1.48a1,1,0,0,1-.22.06,2,2,0,0,1-1.09-.28l.2-.19A9.42,9.42,0,0,0,294.67,99.75Zm.17,1.94c.48-.12,1.05.47,1.44.86.21.72-.63,1-.94,1.34a1.57,1.57,0,0,1-.92-1.86,1.27,1.27,0,0,1,.14-.17l0,0,0,0,.05,0,0,0h0s0,0,0,0Z" fill="#ffea0f"/><path d="M338.45,114.38c2.68,1.13,5.15,3.5,8.34,2.78,5,3.19,10.49,7.62,15.74,10.18,2.47,2.88,6.38,4,8.33,7.21-6-4.33-12.34-6.18-18.31-10.7-2.37-.83-4.84.1-6.89-1.45-3.3-1.33-5.87-4.62-9.06-6.37-.51-.92-1.34-1.85-.93-2.88,1.45-.82,1.55,1.13,2.78,1.24" fill="#ffea0f"/><path d="M325.49,115c-.51,7.82-9.56,12.75-14.81,17.59-1.24.2-2.16,1.44-3.7,1.24a25.24,25.24,0,0,1-2.16-9.05c5.76-1.55,10.69-5.56,15.84-8.35a7.65,7.65,0,0,1,2.77-2.35,2.16,2.16,0,0,1,2.06.92" fill="#ffea0f"/><path d="M340.1,120.35c-1.24,1.45-2.68,1.13-4.43.92.21-.62-.51-.62-.51-1.13-1.13.31-2.16,2.57-3.5.93-2.15-.72-2.46,2.16-4.52.72L325,122c-.72,2.57,2.47.31,3.3,1.34,1.54,1.44,2.47-3.08,4.11-.41,1.24.41,2-.72,2.78-.93.62,1.34,1.85.52,3.09.72.51-.1.91-.51,1.53-.31a14.58,14.58,0,0,0,5.76,6.49c.72-1.65-1.75-2.68-2.67-3.71-1-1.23-2.47-3-2.16-4.11l-.41-.42c.3.11.62-.4.92.21l.21-.21-.21.21c2.88,1.34,6.69,5.15,9.47,3.5a.52.52,0,0,1-.21.41c3.4-.41,5.66,3.29,8.75,4.22,2.37,1.64,4.83,2.78,7.41,4.52,2.46,1.13,4.11,2,5.34,4.63,0,.72,0,1.75-.72,2l-.71-.11c-4.63-3.49-9.16-7-13.89-9.87-.82.41.1,1.12.31,1.54,4.11,3,8.85,5.76,12.45,9.05-.42.72-.93,2.16-2.06,1.23-3.4-.61-6.59-3.38-9.47-5.55-2.88-3.7-7.2-5.45-9.25-9.56-.31.19-.72.19-.93.51V128c5.35,4.84,10.18,11.43,16.67,14.41,0,.42.1.93-.31,1.13-1.43-.92-3-2.06-4.63-1.85-1,1.44-2.88.42-4.12.21-2.46-2.78-6.17-5.67-8.12-9-.31-.1-.52.21-.72.42.72,2.57,4.22,5.25,6.07,7.61-.51.41-.82,1.44-1.44,1l-3.4-3.29a.39.39,0,0,1-.72,0c-3-2.77-5.35-5.24-6.89-8.84a.87.87,0,0,0-.93.31c1.34,4.21,4.53,6.69,7.41,10-.31.21-.1.52-.1.83-2.67-1-4.42-3.91-7.09-4.63-.52-2.78-2.57-4.52-3.09-7.11-.41-.09-.51.21-.82.42.31,2.57,2.57,4.63,2.68,7,.1,0,.2.11.3.2-2,0-3-2.15-4.83-3.18a14.36,14.36,0,0,0-1.24-5.34h-.62c-.1,1.64,1.14,3.9.42,5.34-.93-.61-1.44-2.68-3-2.37-1.23,2.26-4.94.83-5.76,3.3l.21.21h-.31c0-.63,0-1.14-.62-1.44-.92.72-.41,2.26-1.43,3.08-.72-.61-2-.1-1.85-1.44-1.65.1-.31,2.16-1.55,2.78-.82-.2-.51-2.27-1.85-1.44l-.1,2.57c-.72-.21-1.85-.41-2.47.2-.52.41-.52,1-.72,1.65-.62-.1-1.13-1-1.85-.41-.72.41-.52,2.06-1.65,1.54.21-.92-1-1.13-.92-1.86-.21-1.73-1.24-3.59-.62-5,5.45-.92,8.85-5.86,12.86-9.26,3.91-2.68,5-6.28,6.28-10.19a10.26,10.26,0,0,0,7.6-.92c.52,2.78,3.81,3.6,5.66,5.76" fill="#ffea0f"/><path d="M291.64,132.38c-.1,5.25-1.23,10.19-1.85,15h-1.13c.2-.92.41-2.27-.21-3-1.75.32.52,5-3,3.29-.93-.61.41-1.75-1-1.85-.2.42-.62.92-.2,1.35a5.85,5.85,0,0,1-2.26-.43c.21-1.64,2.68-3.18,1.54-4.83-1.13,1.24-2.47,2.89-2.47,4.54h-.92c1.85-3.81.92-8,3-11.73l-.2-.21.61-.3a6.39,6.39,0,0,1,.93-2.79,2.81,2.81,0,0,1,1.85-1.85.62.62,0,0,0,1-.61c2.06.1,3.4,1.75,4.32,3.39" fill="#ffea0f"/><path d="M300.65,130.3c-.56,0-1.2,0-2,0-1,.41-1.15,1.54-1.25,2.36,1.23,5,.43,10.2,2,15a1.81,1.81,0,0,0,.19.25,1,1,0,0,0,.17.14l0,0a.11.11,0,0,1,.06,0l.14.05c.63.18,1.37-.3,2-.3l-.19-.73c.08-.95-.89-2.35-.47-3.16a1.1,1.1,0,0,1,.19-.25,1.54,1.54,0,0,1,.59-.28c.82,1.44.7,3.08.91,4.61l5.78-1.53c-.62-1-.33-2.57-.94-3.69a1.21,1.21,0,0,1-.17-.31l0-.05v-.25l0-.06v0l0,0a.41.41,0,0,1,.05-.09l.06-.05,0,0,0,0a1.8,1.8,0,0,1,.2-.11c-2.58-3.5-.94-8-3.92-11.33A20.78,20.78,0,0,0,300.65,130.3Zm4.88,14.12c.83.41.71,1.54.92,2.36v0l0,0,0,0,0,0-.14.08a.51.51,0,0,1-.17,0h-.33c-.16-.62-.7-1.37-.58-2a.43.43,0,0,1,0-.11s0-.07,0-.09l.11-.16A1.52,1.52,0,0,1,305.53,144.42Z" fill="#ffea0f"/><path d="M297,140.1c.11,3.19.21,6.79,2.06,9.47.31.72-.51,1.12-.72,1.54-1.34.61-2.36-1.54-3.7-.82.1-.62.51-1.65,0-2.16-.52.2-1.14.72-1.14,1.23v1.14H292c-.51-.93.51-2.58-.93-3.29.31-2.07.31-4.84.83-7.41,1.53.93,3.91-.32,5.13.3" fill="#ffea0f"/><path d="M289.07,150.7v-1.85c.62.2.93-.41,1.44-.52l.2,2.37h-1.64" fill="#ffea0f"/><path d="M240,152.59s-3.34-6.26-7.72-6.77-6.86-.36-9.94,1.44-8.89,5.41-12.18,17.58-3.6,18.86-2.57,26.5c0,0,4.12,30.6,20.06,52.47s29.15,32.4,38.32,37.55c7.85,4.39,30.36,12.6,30.36,12.6s28.54-6.95,50.41-30.1S371.86,232,378,217.06s6.51-26.49,5.48-35-4.36-25.72-12.34-31.13-12.86-4.62-16.72-3.08-7.2,5.66-7.2,5.66Z" fill="none" stroke="#ffea0f" stroke-width="3.09"/><path d="M276.37,160.64v0l-.11.05-.11.06a.61.61,0,0,0-.28.39c-.15.79.83,2.22.83,2.22l1.53,24.69-2.39-.16-.53-7.89-3.75.33v6.36h-3.78l-2.58,2.39-.5-7.39,5.31-.33-.5-2.22-5.2.52-1.16-12.52h-1.89l.36,22.63-4.64-.69-3.25-15.25-1.39.17-.67.66-3.77-.33v5.14l4.44.69,2.25,10.11a3.88,3.88,0,0,0-1.08.45l-.09.05,0,0s0,0,0,0l0,0a.76.76,0,0,0-.08.11l0,0v0l0,0,0,.09v.25l0,.05v0a16.12,16.12,0,0,0,2.06,2.75l9.77-.83,1.39-1.56,1.7,1.36,3.28.2,1.19-1.73,2.39,1.36s6.18-1.88,8.75-1.88,47.14,1.19,47.14,1.19l-1.53,2.42a2,2,0,0,0,1.72,1.72c1.55.16,27.78.14,27.78.14l-1.56,4.47L358,204l-3.08,4.3,2.91.17-4.3,6.14,2.75.36-2.75,2.75,3.94-.2v9.62l2.06-.17v-3.45h2.75l-.17,3.62h2.75v-5.31l1.53.17v5.5h1.89l.86-15.11,2.39,1.55-.34-4.11,1-.17s-2.42-4-2.42-5.66-.16-3.78-.16-3.78l1.89.86,1.19,2.06-.83,2.22,2.05-.86L373.56,220l-2.39,3.25,2.23-1,.52,1.23,2.56-5V204.69l.69-4.27,2.75-.34.17-1.36-2.58-1.55,2.75-1.53-2.06-2.09-.36-4.27,2.58-2.23-2.58-.86-.67-4.27,1.7-1.23s-1.36-2.21-1.7-3.05a21.38,21.38,0,0,1-.69-2.59l3.44-1.19a56.08,56.08,0,0,0-6.36-4.81c-2.3-1.31-6.36-3-7.28-3.69l-.08-.08c-.68-.69-2.75-2.92-2.75-2.92a5.14,5.14,0,0,0-2.69-.14l-.14.08-.06,0,0,0,0,0c-1,.94-12.33,10.14-12.84,10.94-.34.69-1.37,4.32-1.89,5.17s-2.23,3.23-3.08,4.44a9.27,9.27,0,0,0-1.19,2.23,3.28,3.28,0,0,0,1,.52h0l.11,0h.14l.08,0h0c.51-.16,2.75-1,3.61-.69a3.46,3.46,0,0,1,1.36,1h-2.22c-1.37,0-4.11,1.37-5.14,2.22a20.26,20.26,0,0,1-3.25,1.89l-.7-.34,4.81-3.44c-.11-.09-1-.78-1.5-.53l-.06,0c-.51.33-3.59,1.7-5,2.39a10.94,10.94,0,0,0-2.55,1.89v.47c-.26-.44-4.5-7.5-10.81-7.67s-10.55,7.24-10.8,7.7l-13-2.06L298,190l-7.53-.53,3.75-1.19.36.69,2.23-.69-12-3.08-1.2,3.08-3.28-.33-2.72-24.7a3.28,3.28,0,0,0,.14-2.05l0-.06-.08-.11-.08-.08-.11-.09a1.42,1.42,0,0,0-.48-.16l-.22,0h-.33Zm92.64,9c.17.08,1.2.5,1.83.81s.67,1.38.67,2.91a8.9,8.9,0,0,1-.34,2.56l1.2,2.08,1.19-2.25h.86l-2.05,4.14,0,0,0,0,0,0,.11.09.06,0a1.74,1.74,0,0,0,.78.14h.11l.11,0c.61.2.78,1.2.8,1.33s-.16,2.42-.16,4.31A2.19,2.19,0,0,1,374,187a2.09,2.09,0,0,1-.22.28l0,0a1.55,1.55,0,0,1-.31.23,1.78,1.78,0,0,1-.61.19h-.05a9,9,0,0,0,1.16,1.06c.69.5.84,2,.84,5.8s-2.41,4.59-2.56,4.64l-2.58-5.14,2.05-1L369,187.89l2.72-1.36a18.31,18.31,0,0,0-1.69-2.75c-1-1.37.17-4.28.17-4.28a3.13,3.13,0,0,0,.16-2.56,2.39,2.39,0,0,1,.34-2.39v0a7.15,7.15,0,0,1-.17-2.39,1.66,1.66,0,0,0,0-.22v-.09A5.34,5.34,0,0,0,369,169.61Zm-2.34.83-.8,1.36,1.53,1.7s-.6,2.93-.23,4v0l0,.05,0,.06c.52.85,2.4,1.9,1,5.33s-1.56,5-1.39,6.34a18.68,18.68,0,0,1,0,3.25l-.84-.17-.52-3.08-.5-1.2a37.32,37.32,0,0,0,.5-4.3,14.86,14.86,0,0,0-1-3.92,54.19,54.19,0,0,0-6.5,1.53c-1,.5-3.45,1.39-3.45,1.39l-.33-1.06s7.44-2.7,8.06-3.08a4.84,4.84,0,0,1,1.89-.34l1-4.11S364,173,364,172.47v-.08l0,0A11.71,11.71,0,0,1,366.67,170.44Zm-7.8,13.34h.33l.14,0h.06l0,0h0l0,0h0l0,0,.06.05,0,0a1,1,0,0,1,.11.2,2.91,2.91,0,0,1,.14,1.16l-1.22,2.59.69.66,2.39,1.22.86-3.77,1-.5a14.5,14.5,0,0,1,.36,2.22,25,25,0,0,1-1.72,5,2.65,2.65,0,0,0,.33,2.72l-.5,1.89h-.86v-1a2.64,2.64,0,0,0-.53-1.88l0,0,0,0-.12-.11,0,0c-.6-.47-1.4-.06-1.89,0h-.14a7.63,7.63,0,0,1-2.06-1,4.6,4.6,0,0,0-1.19.5l0,0-.05,0h0l-.06,0h0c-.55,0-1.4-.87-1.86-1.77a21.79,21.79,0,0,1-1-3.78l-.87.36-.86-.86,3.61-2.92.17,1.36-1,1.2a17.62,17.62,0,0,0,.34,2.75,2.75,2.75,0,0,0,2.05,2.22l1.56-1.19,1.19,1.72,2.39.33.86-2.22s-3.94-1.73-4.8-2.75a1.56,1.56,0,0,1-.23-.36,3,3,0,0,1,.92-2.89,6.07,6.07,0,0,1,1.28-1.14l.14-.06Zm8.19,10.47-.16,2.55-1,2.75-.36-.66-.5-3.78Zm-5.33,5,1,2.06-.84,2.22-1.22.86v-2.92Zm3.94,4.47,1.56.34s.17,2.07.17,2.75a28.18,28.18,0,0,1-1.2,3.94L365,208.64Zm-4.77,2.56.83,1.39-.67,2.55-1-.16v-2.92Zm.66,5.5.7,1.53-.53.86L360,214Zm2.92,2.05,1.72.34-.86,5.5-.86-.2Zm-4,2.92,2.23.7.19.66-2.58,2.56-.7-.31-.16-2.78Z" fill="#ffea0f"/><path d="M280.67,192.75a8.77,8.77,0,0,0-4,2.19,1.14,1.14,0,0,1-.11.11l-.06.06c-1.39,1.58.38,6.32,1.2,9.94.86,3.78,7.55,13.56,7.55,13.56l3.25,6.17a7,7,0,0,0-1.36,1.55,15,15,0,0,0-1.55,8.06c.34,3.94,4,5.47,5.5,6.33s5.14.33,5.14.33l1.19,1-21.08-1,1.53-6,1.22-2.72s.66,4.09.83,4.78v0a.6.6,0,0,0,.06.11,1,1,0,0,0,.08.14l0,0,.05.05.06.06.19.14a1.41,1.41,0,0,0,.95.16l.08,0,.06,0,.05,0,.09-.08,0,0c.34-.51.5-2.75.5-5.67s.17-10.81,0-12.86a2.6,2.6,0,0,0-2.05-2.39l-5.31-.33a6.63,6.63,0,0,0-.16-1.56v0l0,0-.06-.09a8.07,8.07,0,0,0-3-1.41,85.5,85.5,0,0,0-10.11-.84c-2.05,0-7.89,1-12.53.84s-12.33,1.55-12.33,1.55l-3.08-2.55-1.73,1.36-2.25.16.7,2.92s-1.35,6.69-1.7,7.72c0,0,0,.08,0,.11a1.33,1.33,0,0,0,0,.28v0a4.67,4.67,0,0,0,2.28,2.83,8,8,0,0,0,2.91.5l1.67-1.64a2.44,2.44,0,0,0-.14.81,4.72,4.72,0,0,0,.53,1.69,10.77,10.77,0,0,0,3.22.7h0c.86-.18,3.08-.53,3.08-.53s1.54,3.6,2.22,5.14-.16,6.36-.16,6.36a12.33,12.33,0,0,0-3.42,1l0,0-.11.11,0,0,0,0,0,.06,0,.08v.14l0,0,.05.11,0,.06,0,.05,0,0,0,0a5.69,5.69,0,0,0,3.47,1.11c1.89,0,7.21.33,11.5.33s12.67-.35,16.44-.53,8.08-.66,12.36-.66,14.57.66,17.14.66,11.16.7,13.56.7,12.51.19,14.91.36,15.78,1.69,17,1.53a2,2,0,0,0,.55-.17,1.22,1.22,0,0,0,.28-.17l.06-.05.05-.06,0,0,.08-.11.09-.16.05-.11V245l-3.94-1.36s-7.59.33-8.23.28h0v0h0l.87-.09c4.11-.35,7.69-4.11,8.55-6.16s.33-6.53.33-6.53a24,24,0,0,0,2.75.33,44.87,44.87,0,0,1,4.81,0,4.52,4.52,0,0,0,3.61-1.36,15.28,15.28,0,0,1,1.89-1.36l-5.67-.53.86-3.25.34,2.92,1.89-.53-.17-7.53-.53-.36-2.05,2.25.69.5-1,.7L352,220.83l-2.42,4.45h1.22l-.52,2.58h-3.42s.16-3.44.33-6.69,5.48-14.23,7.36-16.12a5.31,5.31,0,0,0,1.56-5.13l0-.06-.05-.08,0,0-.11-.11c-.91-.75-3.94-1.45-5.61-1.45-1.89,0-3.79,1.05-5.5.36a9.2,9.2,0,0,0-6.09.62l0,0-.06,0,0,0a.91.91,0,0,1-.16.11,7.4,7.4,0,0,1-6.14-.47c-2.4-1.37-4.82-.52-6.53-.17a5.55,5.55,0,0,1-5-1.19c-1.72-1.38-4.45-.51-5.14,0l-.06,0-.05,0a5.83,5.83,0,0,1-4.67-.58c-1.55-1-2.58-.69-6-.36s-3.27-.51-5.33-1.36-7,.87-9.78,1.05-2.92-.35-5.83-2.58a4.33,4.33,0,0,0-2.81-1h-.42ZM233.9,220.33a.31.31,0,0,1,.11,0v1.2l0,.11-.08.14-.06.05a1.56,1.56,0,0,1-.25.17,2.64,2.64,0,0,1-.61.19,1.1,1.1,0,0,1-.33-.19l-.12-.11a.85.85,0,0,1-.13-.25.66.66,0,0,1,0-.47A2.16,2.16,0,0,1,233.9,220.33Zm6.36,1.72h.16a1.25,1.25,0,0,1,.53.12l.08,0a3.12,3.12,0,0,1-.69,1.36,1.35,1.35,0,0,1-.28.23l-.14.05,0,0h-.14a.45.45,0,0,1-.14-.06l-.06,0-.05,0s-.33-1.21.36-1.56A1.59,1.59,0,0,1,240.26,222.05Zm103.47,1.53.36,4.61s-1.21-2.05-2.58-2.55-3.08-.7-7.2-.7-6.54,4.34-6.69,4.61l-.86-.33,1-4.44-22.77.69a18.41,18.41,0,0,1,3.75,2.22c1.71,1.37,3.41,5,3.41,5l-.5.69,8.75.17s-.68,3.24,0,4.61a32.89,32.89,0,0,0,2.06,3.28H307.73s2.74-3.11,3.08-4.31.86-3.75.86-3.75a7,7,0,0,1-1-1.89c-.35-1-1.55-2.24-3.09-3.61,0,0,0,0,0,0-1.63-1.35-9.75-2-9.75-2l-1.72-1ZM316,225.64l.7,1v1.69l-1.2.19v-1.88Zm20.58.86.87.83-.7,2.92-.5-.17Zm-89.86.17.86,1.88-.86,10.7c-.15-.87-1.36-7.76-1.86-8.45,0,0,0,0,0,0a16.52,16.52,0,0,1-1.55-2.92Zm44.59,0,3.44.66-1.89,1.56-2.05-1.2Zm32.25,0,1.19.33-.69,2.75-.67-1.89Zm11.14,0,.52,3.25-1.55.33-1-3.08Zm-3.78.86,1.19,2.39-.33.69-2.22-1Zm-31.2.16,1.53.17-.33,3.25-2.22-1.89Zm39.61,0,.87,1-1.39,1.89-.67-.33Zm-35.66.34,1.53,1.39-1,2.38h-1l-.17-.86Zm-33.45.86.53,2.39,3.58,2.08-1.52,7-6,.16Zm19.23.53,3.08,1-.36.5-3.25-.86Zm25.19,0,4.44.16.2,1h-4.47Zm-17.14,1L299,231.8l-.86,1.37-1.7-.17Zm31.72.17,2.39,1.53.17,1.22-2.39.83Zm-78.72.5,4.11,3.25v6l-5-.53Zm91.22.17-.16,1.22-2.39.67-.2-1.7Zm-36,.19h1l.17,2.56-2.06.16-.33-.83Zm-17.33.33,3.44.7-3.44.5Zm47.5.67h.31l.08,0h0l.11.05a1.17,1.17,0,0,1,.36.31l.08.11a1.42,1.42,0,0,1,.17.72,1.63,1.63,0,0,1,0,.31,1.65,1.65,0,0,1-.19.47l-.06.08-.11.12-.06.05-.08.06a1,1,0,0,1-.42.11,1,1,0,0,1-.44-.11l-.08-.06-.06-.05-.11-.12-.06-.08a1.65,1.65,0,0,1-.19-.47,1.63,1.63,0,0,1,0-.31,1.59,1.59,0,0,1,.22-.8l0,0a1.17,1.17,0,0,1,.36-.31l.11-.05h0Zm-69.61.2L263,240.55l-3.78.17a11.53,11.53,0,0,1-.86-2.22c-.17-.85,0-5.67,0-5.67Zm34.92,1.16h.38a.59.59,0,0,1,.14.06.64.64,0,0,1,.14.08,1,1,0,0,1,.2.22s0,0,0,.06a.13.13,0,0,1,0,.05l0,.06v0l0,.05v.2l0,.08,0,.08s0,.09-.05.12L302,235l-.05.05-.14.12-.11.05-.12,0,0,0h-.23l0,0a.82.82,0,0,1-.42-.25.64.64,0,0,1-.08-.14l0-.06a.13.13,0,0,0,0-.05v-.11s0,0,0-.06v0s0,0,0-.05l0-.06v-.08l0-.06,0-.05,0-.06s0,0,0-.05.06-.09.09-.11a.38.38,0,0,1,.14-.11l.05,0Zm-8.87.53.37.86-2.92,1.56-.86-1.36Zm47,0,1.7.19-.17.87-1.53-.2Zm-43,.19h2.58l.17,1-1.53,1.7Zm27.94.34h1.06l-.2,1.39-.86.66Zm7.39.16.34,1-2.23,1.56-.69-2.06Zm-26.91.37,2.38.5-.5,1.36-2.22-.5Zm33.08.86,1,2.91-1.89.84-.34-3.42Zm-44.58.16.69.67-.69,1.72-1.7-.69Zm9.61.86h.86l.5,1.89-1.2.5Zm-2.39.17,1.36,1-.17,1.36-2.22-.17Zm32.05,1-.16,2.05L331,240Zm1.89.69.86.34v1.69h-1.55Z" fill="#ffea0f"/><path d="M283.55,208.32s-2.4-4.29-2.57-6,.85-5.31,3.25-2.91,3.09,3.94,2.92,5a21.84,21.84,0,0,0-.17,2.74m2.57-8.23s2.57,6.52,3.6,9.08a26.33,26.33,0,0,1,1.37,6m3.61-.86-1-9.94m12,12.51.52-8.91m10.45,5,.52-5.48m8.74,7.71,1-8.74m9.09,10.28,2.74-8m-45.95,8a18,18,0,0,1,3.77,1c.86.51,2.06.68,2.06,1.54v2.56m0-2.56s.17-1.89,2.57-1.72,3.95,0,4.12,2,.17,2.75.17,2.75m2.23-.16s-.69-3.61,1.89-3.61,5.14.18,5.31,1.38l.34,2.39m6.69,0s0-3.77,2.57-3.59m8.57-1s-3.26.51-3.08,2.23A5.64,5.64,0,0,0,334,221m5-.36s.86-2.91,2.06-3.25,2.75-.69,2.75-.69m-55.39.35,3.09-1.38" fill="none" stroke="#002a86" stroke-linecap="round" stroke-width="1.03"/><path d="M348.71,233.86h1.89m2-.17,9.78-2.06M349.22,237l2.58-.17M346,239.35l5.31-1m.17,2.23s4.8,1.19,5.66.68" fill="none" stroke="#ffea0f" stroke-linecap="round" stroke-width="1.03"/><path d="M289.21,218.79l3.08-1.37m-2.61,2.9,3.09-1.38m-2.06,2.92,3.09-1.37m-2.57,2.89,3.08-1.36" fill="none" stroke="#002a86" stroke-linecap="round" stroke-width="1.03"/><path d="M238.11,217.4a58.7,58.7,0,0,1,7.37-1.54c1.55,0,3.09,1,3.61.85s2.4-.68,3.76-1,10.63.69,10.63.69m10.64.34-2.23.17m-22.12,1.9s-1.71.68-1.37,1.54.86,2.23.51,2.74-1.71,1.88-.68,2.4a8.45,8.45,0,0,0,1.88.68m1.21-2.74s-.52-2.39.68-2.74a6.55,6.55,0,0,1,2.4-.17M257,224.6l2,5.83" fill="none" stroke="#002a86" stroke-linecap="round" stroke-width="1.03"/><path d="M223.87,161.33l-1.2.2-.16.83-2.92,1.36,2.92.2v1.36l-2.23,1.89-1.72,3.77-.16,3.95L211,181.72l8.41,9.78L244,192l.67-2.59,1.72-2.22.17-4.64.86.2.16-.89h-4.44v0l-.53,2.41,1.36.34-1.19,1.88-1.89.5.53-9.77,2.39-.67-.17-1.56-5.31-.33.34,12.5-4.45-.17-.19-5.83,2.75.33V173l-2.56-.36v-2.22l2.06.19-.17-5.17-1.72-.16-.36-2.39h-1.86l-.36,3.61-2.06,2.22-.33,1.53,2.55.36v1.89l-4.77-.36v5h-1.56l.17-8.58,2.75-2-3.95-.89Zm-1.53,16.81.69,9.41-2.05-.16.17-9.09ZM218.9,180v6.66L217,185l1.37-4.81Zm10.8,0,2.06.16v7.53h-7.2V184.5l1,.14-.17.86,4-.17ZM215,181.72l-.2,1.56-1-1Z" fill="#ffea0f"/><path d="M333.1,186.19l10.46-4.29m-11.66,2.92,13.89-7.37,31.38-15.78m-1.37-4.28-44.24,25.88M370,151.72l-39.61,29.84M353,149.67,329.33,181.9l34.47-33.6m-19.21,6L327.1,181.23m8.06-27.1-9.94,25.54m4.8-25.88-5.83,25.88m.17-25.72L322.13,179M318.87,154l.86,25.05m-8.06-24.87,6,24.34M300.18,154l15.61,24.87-10.12-24.69M292.81,154l20.75,26.41m-27.27-26.57,25.56,28.46m-32.76-28.46,31.38,29.14m-42-29.14,41.67,28.29m-52.3-28.46,51.61,29.65m-85.05-35.66,84.2,36.7m-90.71-32.75,88.48,35.67m-92.77-29.67,92.25,31.21m-94.47-26.59,85.56,24.36M210,168.87l9.09,2.23m35.67,7.9,18.17,5.47m-64.81,5.67,11.14.35m24.18,0,10.46.68" fill="none" stroke="#ffea0f" stroke-width="2.06"/><path d="M217.54,193.73s-1.72-1.36-2.57-1.19-3.09.86-3.09.86a10.43,10.43,0,0,0,2.57.86,8.47,8.47,0,0,0,3.09-.53" fill="#ffea0f" stroke="#ffea0f" stroke-width="0.89"/><path d="M217.64,197.32s-1.71-1.38-2.57-1.2S212,197,212,197a10.15,10.15,0,0,0,2.57.85,8.62,8.62,0,0,0,3.09-.51" fill="#ffea0f" stroke="#ffea0f" stroke-width="0.89"/><path d="M222.68,197.34s-1.71-1.38-2.57-1.2S217,197,217,197a10.15,10.15,0,0,0,2.57.85,8.18,8.18,0,0,0,3.09-.51" fill="#ffea0f" stroke="#ffea0f" stroke-width="0.89"/><path d="M218.91,200.42s-1.72-1.37-2.57-1.19-3.09.85-3.09.85a10,10,0,0,0,2.57.86,8.32,8.32,0,0,0,3.09-.52" fill="#ffea0f" stroke="#ffea0f" stroke-width="0.89"/><path d="M222.7,195.63s-1.71-1.37-2.57-1.21-3.08.85-3.08.85a10.25,10.25,0,0,0,2.57.87,8.32,8.32,0,0,0,3.08-.51" fill="#ffea0f" stroke="#ffea0f" stroke-width="0.89"/><path d="M228.68,195.11s-1.71-1.38-2.57-1.2-3.09.86-3.09.86a10,10,0,0,0,2.57.86,8.32,8.32,0,0,0,3.09-.52" fill="#ffea0f" stroke="#ffea0f" stroke-width="0.89"/><path d="M228.68,198s-1.71-1.38-2.57-1.21-3.09.86-3.09.86a10,10,0,0,0,2.57.86,8.39,8.39,0,0,0,3.09-.51" fill="#ffea0f" stroke="#ffea0f" stroke-width="0.89"/><path d="M234.85,195s-1.71-1.38-2.57-1.2-3.09.85-3.09.85a10.3,10.3,0,0,0,2.58.85,8.18,8.18,0,0,0,3.08-.5" fill="#ffea0f" stroke="#ffea0f" stroke-width="0.89"/><path d="M228,200.12s-1.71-1.36-2.57-1.2-3.09.86-3.09.86a10.43,10.43,0,0,0,2.57.86,8.32,8.32,0,0,0,3.09-.52" fill="#ffea0f" stroke="#ffea0f" stroke-width="0.89"/><path d="M234.92,200.81s-1.71-1.36-2.57-1.2-3.09.86-3.09.86a10.43,10.43,0,0,0,2.57.86,8.54,8.54,0,0,0,3.09-.52" fill="#ffea0f" stroke="#ffea0f" stroke-width="0.89"/><path d="M232.62,203.86s-1.71-1.37-2.57-1.2-3.08.84-3.08.84a10.25,10.25,0,0,0,2.57.87,8.32,8.32,0,0,0,3.08-.51" fill="#ffea0f" stroke="#ffea0f" stroke-width="0.89"/><path d="M237.62,196.84s-1.72-1.37-2.57-1.19-3.09.86-3.09.86a10.15,10.15,0,0,0,2.57.85,8.32,8.32,0,0,0,3.09-.52" fill="#ffea0f" stroke="#ffea0f" stroke-width="0.89"/><path d="M241.54,198s-1.71-1.38-2.57-1.21-3.09.86-3.09.86a10,10,0,0,0,2.57.86,8.39,8.39,0,0,0,3.09-.51" fill="#ffea0f" stroke="#ffea0f" stroke-width="0.89"/><path d="M244.45,196.14s-1.71-1.37-2.57-1.2-3.08.86-3.08.86a9.73,9.73,0,0,0,2.57.85,8.32,8.32,0,0,0,3.08-.51" fill="#ffea0f" stroke="#ffea0f" stroke-width="0.89"/><path d="M252,194.42s-1.71-1.37-2.57-1.19-3.09.85-3.09.85a10,10,0,0,0,2.57.86,8.32,8.32,0,0,0,3.09-.52" fill="#ffea0f" stroke="#ffea0f" stroke-width="0.89"/><path d="M251.14,197.34s-1.71-1.38-2.57-1.2-3.09.86-3.09.86a10.3,10.3,0,0,0,2.58.85,8.11,8.11,0,0,0,3.08-.51" fill="#ffea0f" stroke="#ffea0f" stroke-width="0.89"/><path d="M257.32,197.5s-1.72-1.36-2.57-1.19-3.09.86-3.09.86a10.43,10.43,0,0,0,2.57.86,8.47,8.47,0,0,0,3.09-.53" fill="#ffea0f" stroke="#ffea0f" stroke-width="0.89"/><path d="M247,201.63s-1.72-1.37-2.58-1.2-3.08.84-3.08.84a10.25,10.25,0,0,0,2.57.87,8.39,8.39,0,0,0,3.09-.51" fill="#ffea0f" stroke="#ffea0f" stroke-width="0.89"/><path d="M252.34,203.34s-1.71-1.38-2.57-1.2-3.09.86-3.09.86a10.58,10.58,0,0,0,2.58.86,8.25,8.25,0,0,0,3.08-.52" fill="#ffea0f" stroke="#ffea0f" stroke-width="0.89"/><path d="M260.83,202.77s-1.72-1.38-2.57-1.2-3.09.84-3.09.84a10,10,0,0,0,2.57.86,8.24,8.24,0,0,0,3.09-.5" fill="#ffea0f" stroke="#ffea0f" stroke-width="0.89"/><path d="M221.65,231.63l9.94.52-2.4,1.71,3.6-2.23,10.46-.34" fill="#ffea0f" stroke="#ffea0f" stroke-width="2.06"/><path d="M240,235.74s-1.72-1.37-2.58-1.19-3.08.85-3.08.85a10.25,10.25,0,0,0,2.57.87,8.47,8.47,0,0,0,3.09-.53" fill="#ffea0f" stroke="#ffea0f" stroke-width="0.89"/><path d="M241,238.15s-1.72-1.37-2.58-1.2-3.08.86-3.08.86a9.73,9.73,0,0,0,2.57.85,8.39,8.39,0,0,0,3.09-.51" fill="#ffea0f" stroke="#ffea0f" stroke-width="0.89"/><path d="M234.85,240.89s-1.71-1.38-2.57-1.2-3.09.86-3.09.86a10.58,10.58,0,0,0,2.58.86,8.25,8.25,0,0,0,3.08-.52" fill="#ffea0f" stroke="#ffea0f" stroke-width="0.89"/><path d="M242.74,248.27s-1.71-1.38-2.57-1.2-3.09.85-3.09.85a10,10,0,0,0,2.57.86,8.39,8.39,0,0,0,3.09-.51" fill="#ffea0f" stroke="#ffea0f" stroke-width="0.89"/><path d="M253.24,254.22s3.43-.68,5.49-.85,2.75.17,4.8,1.2.51,1.36.68,3.42-4.45,2.75-8.4,3.09-2.57-3.09-2.4-7.38-1-3.59-4.46-3.59-8.74,2.91-8.74,2.91l4.63,2.4-.51,3.09,8.4-1" fill="none" stroke="#ffea0f" stroke-linecap="round" stroke-width="2.06"/><path d="M347.72,255.25s-5.31-4.28-8.74-4.8-6-.52-5.49,3.09a51,51,0,0,0,1.16,5.87,17.25,17.25,0,0,1,3.47-.22,7.89,7.89,0,0,1,4.11,1l.35-3.93Zm-87.45-7.55s-1.71,7.2,6.35,6.87,60.19-.18,60.19-.18,3.77-.51,3.6-3.77,1.7-5.65-9.09-6.17-55.73-.52-55.73-.52S259.93,243.42,260.27,247.7Z" fill="none" stroke="#ffea0f" stroke-width="2.06"/><path d="M325.73,254.78s.12,4,2.74,5.14c5.49,2.41,7.89-.17,7.89-.17m-3.26-7.2-2.91.68" fill="none" stroke="#ffea0f" stroke-linecap="round" stroke-width="2.06"/><path d="M287.23,255.19l2.22,3.75-3.94-1.69-1,1.53,2.55,2.58-4.27-.69-1.7,3.61,8.39,1.36-.86,6-7.72-.7-2.72-7.69-2.59.33,1.72,7.56-9.77-.2,2.75,9.28h1.89l-1.56-6.53,7.72.53.86,3.25-4.64-1,.34,2.92,8.25,2.58,1.36,4.11a27.43,27.43,0,0,0,7,1.7c4.28.52,15.94-.5,15.94-.5l-.53-3.78a21.31,21.31,0,0,1,3.61-1.89c2.4-1,5-7.53,5-7.53l2.58-1-2.92-1.2,4.28-6.19,7.39-.17v-1.72l-7.89-.17L316,265.47l1.89-3.08,6.5-.7.17-1.36-7.89-.19-9.08,11-2.22-.36.33-5.84,2.75.7-1.2-1.72,2.23-.67-1.2-1,1-1.89-5.14-1,2.39-2.75-2.06-1.19-3.41,2.92.83-2.92h-6.33l-.34,2.58-1-2.75h-2.92l-.17,2.39-.86-2.22Zm-.7,18.7.34,1.72-3.09,2.72-1.72-4.28Z" fill="#ffea0f"/><path d="M288.59,280.22,286.7,283m7.2,1.88,1-1.88m3.94,2.57.52-1.89M292,271.47h7.71m4.63,3.1-4.11,6.17h5.65" fill="none" stroke="#002a86" stroke-linecap="round" stroke-width="2.06"/><path d="M269.52,247.6h-2v-1.16h5.85v1.16h-2.05v4.78h-1.81V247.6" fill="#ffea0f" stroke="#ffea0f" stroke-width="0.89"/><path d="M274.07,252.38v-5.94h1.82v2.35h2.21v-2.35h1.8v5.94h-1.8v-2.44h-2.22v2.44h-1.81" fill="#ffea0f"/><path d="M281.14,252.38v-5.94h5v1.16h-3.17v1.22h2.92V250h-2.92v1.27h3.17v1.14h-5" fill="#ffea0f"/><path d="M296.45,246.44v3.76c0,1.65-1.47,2.3-3.11,2.3s-3.11-.64-3.12-2.3v-3.76H292v3.68a1.31,1.31,0,0,0,2.62,0v-3.68h1.8" fill="#ffea0f"/><path d="M297.69,246.44h2.53l2.19,4.42h0v-4.41h1.62v5.94h-2.5l-2.21-4.55h0v4.55h-1.63v-5.94" fill="#ffea0f"/><path d="M305.21,252.37h1.86v-5.92h-1.86Z" fill="#ffea0f"/><path d="M308.05,249.41c0-1.95,1.21-3.09,3.38-3.09s3.38,1.14,3.38,3.09-1.22,3.1-3.38,3.1S308.05,251.37,308.05,249.41Zm3.38-1.95c-1.23,0-1.48,1-1.48,2s.25,1.92,1.48,1.92,1.48-1,1.48-1.92-.25-2-1.48-2" fill="#ffea0f"/><path d="M315.78,246.44h2.53l2.19,4.42h0v-4.41h1.63v5.94h-2.51l-2.21-4.55h0v4.55h-1.63v-5.94" fill="#ffea0f"/><path d="M198.21,186.53l1.74,2.73,2.72.35L200.85,192l.45,3.06-2.8-1.36-3,1,.68-2.72-1.88-2.43,2.78-.35,1.16-2.73" fill="#ffea0f"/><path d="M198.16,174.54l1.74,2.73,2.72.35L200.8,180l.45,3.06-2.8-1.36-3,1,.68-2.72-1.88-2.43,2.78-.35,1.16-2.73" fill="#ffea0f"/><path d="M201.77,161.16l1.4,2.94,2.65.67-2.1,2.17.07,3.11-2.61-1.69L198,169l1-2.62-1.58-2.64h2.81l1.48-2.59" fill="#ffea0f"/><path d="M206.09,148.83l1.39,2.94,2.65.66-2.1,2.19.07,3.09L205.49,156l-3.14.63,1-2.62-1.58-2.64h2.81l1.49-2.58" fill="#ffea0f"/><path d="M199.05,198l1.78,2.73,2.72.29-1.79,2.44.49,3.07-2.82-1.33-3,1.07.65-2.73-1.93-2.4,2.79-.37,1.12-2.77" fill="#ffea0f"/><path d="M200.52,210.39l1.78,2.72,2.72.31-1.79,2.44.49,3.06-2.81-1.32-3,1.06.65-2.73-1.92-2.39,2.78-.38,1.12-2.77" fill="#ffea0f"/><path d="M204.6,221.72l1.91,2.64,2.73.18-1.67,2.53.64,3-2.87-1.18-3,1.2.52-2.76-2-2.3,2.77-.5,1-2.83" fill="#ffea0f"/><path d="M208.6,232.07l1.91,2.63,2.73.17-1.67,2.54.64,3-2.87-1.18-3,1.2.52-2.76-2-2.3,2.76-.51,1-2.81" fill="#ffea0f"/><path d="M214.77,242.87l1.91,2.63,2.73.18-1.66,2.52.63,3-2.87-1.17-3,1.19.52-2.75-2-2.31,2.76-.51,1-2.81" fill="#ffea0f"/><path d="M221.46,253.16l1.91,2.64,2.73.16-1.66,2.54.63,3-2.87-1.18-3,1.19.52-2.76-2-2.29,2.75-.52,1-2.81" fill="#ffea0f"/><path d="M229,262.42l1.91,2.64,2.73.17L232,267.75l.63,3-2.87-1.18-3,1.21.52-2.77-2-2.3,2.76-.51,1-2.81" fill="#ffea0f"/><path d="M238.44,271.16l1.91,2.64,2.73.17-1.67,2.53.63,3-2.87-1.18-3,1.2.53-2.76-2-2.3,2.76-.52,1-2.81" fill="#ffea0f"/><path d="M249.08,277.83l1.68,2.78,2.71.4-1.88,2.38.38,3.07-2.76-1.41-3.06.94.75-2.7-1.83-2.46,2.79-.28,1.22-2.72" fill="#ffea0f"/><path d="M258.59,284.76l1.68,2.78,2.71.4-1.88,2.38.38,3.07L258.71,292l-3,.95.75-2.71-1.83-2.46,2.79-.28,1.22-2.71" fill="#ffea0f"/><path d="M269.39,290.93l1.68,2.78,2.71.4-1.88,2.39.38,3.07-2.76-1.42-3.06.94.75-2.7-1.83-2.47,2.79-.27,1.21-2.72" fill="#ffea0f"/><path d="M282.25,294.7l1.68,2.78,2.7.4-1.87,2.39.38,3.07-2.76-1.42-3.06.95.75-2.71-1.84-2.47,2.8-.27,1.21-2.72" fill="#ffea0f"/><path d="M295.45,297.1l1.68,2.79,2.71.4L298,302.66l.38,3.07-2.77-1.41-3.06.94.75-2.7-1.83-2.46,2.79-.27,1.22-2.73" fill="#ffea0f"/><path d="M228.13,364.32h11.2V324.85h-11.2Z" fill="#ffea0f"/><path d="M262.26,344.6c-4.81-.68-6.48-3.74-6.48-8.89,0-8,6.42-10.29,12.93-10.29,7.07,0,12.44,2.2,12.44,10.29,0,4.87-1.24,8.33-5.54,8.94v.29c5.55.56,8.62,5.24,8.62,11.35,0,9.28-9.13,10-16.6,10-6.84,0-14.6-2.86-14.6-11,0-6.16,3.57-9.75,9.23-10.48Zm12.5,8.94c0-3.73-2.71-5.38-6.05-5.38s-6,1.65-6,5.38,2.71,5.37,6,5.37S274.76,357.27,274.76,353.54Zm-11.31-17c0,3.05,2.14,4.86,5.26,4.86s5.26-1.81,5.26-4.86-2.15-4.87-5.26-4.87-5.26,1.81-5.26,4.87" fill="#ffea0f"/><path d="M299,353.89c1,.69,4.37,2.74,7.21,2.74,3.9,0,5.13-1.13,5.13-4.46,0-3.61-1.7-6.18-3.42-6-2,.16-6.92.91-7.2,2.95l-6.18-2.4,3.89-20.18,21.86,0v7.35l-13.74-.25-1.37,6.18c.34-1,.67-.35,4.8-.35,7.63,0,12.34,4.71,12.34,12,0,9.12-5.46,14.07-14.4,14.07-8.26,0-10.63-2.74-12.35-3.43l3.43-8.23" fill="#ffea0f"/><path d="M339.79,357c.06,1.3,7.06.5,8.23.34,2.4-.34,5.61-2.17,5.83-7.2-2.2,2.77-5.38,2.52-8.91,2.05-5.15-.69-9.95-5.39-9.95-13,0-9.45,5.28-13.54,13.88-13.76,11.49-.29,16,10.11,15.62,22-.18,5.44-2.54,11.52-4.8,13.73a18.25,18.25,0,0,1-11.84,5.12c-6.93.65-11.15-1.35-11.15-1.35Zm8.91-24.24c-3.79,0-6.11,2.31-6.11,5.88,0,4.06,2.6,5.88,6.11,5.88a5.88,5.88,0,0,0,6.11-5.88c0-3.79-2.44-5.88-6.11-5.88" fill="#ffea0f"/><path d="M90.82,60.42l-5.66,4.63S81.82,61.7,78.73,62s-6.41,4,.52,8.49c7.2,4.63,8.43,10.48,8.23,15.18A10.77,10.77,0,0,1,77.19,95.91c-8,.26-15.95-4.89-15.95-4.89l4.63-7.45,8.49,3.6s4.11,0,3.34-4.38S69.1,70.42,67.16,66.85c-3.09-5.66,3.86-14.4,9-13.88,7.68.76,10.29,1.8,11.57,3.34s3.09,4.11,3.09,4.11" fill="#ffea0f"/><path d="M96.22,55.27v9.52l9.26-.76.26,30.08,9.51-1L115,63.25l8.23-1.55-.52-8.47L96.22,55.29" fill="#ffea0f"/><path d="M150.23,50.14l-12.33,1-8.75,41.16,9.52-.28L141,85.64l10.53-1L153.59,89l8.47-1.8ZM144.84,62,150,76.89l-8.5,1.28Z" fill="#ffea0f"/><path d="M163.35,47.3v8.75l10.55-1.28.51,31.37,11.31-1.8-.25-30.87,7.46-2.31v-9L163.35,47.3" fill="#ffea0f"/><path d="M201.42,40.62l1,39.6,24.69-3.6-.52-8.23-14.4,1.54.25-6.68L218.9,62l-.25-7.45-5.66.26-.52-8L227.65,44l-.77-8.24-25.46,4.9" fill="#ffea0f"/><path d="M268.81,33.67c-8.49.35-17.25,5.4-16.22,18.52,1.49,19,9,24.17,17.75,24.17s15.71-11.82,15.19-22.11S281.16,33.15,268.81,33.67Zm.28,7.72h.5c7.2.26,7.19,8.23,7.19,12.86s-1,12.59-8.22,12.33-6.95-8-7.72-13.36C260.09,48,264.61,41.68,269.09,41.39Z" fill="#ffea0f"/><path d="M312.53,34.7l-20.83-.52-.26,40.65h10V57.6h4.63l-.26-7.72-4.63-.26v-8l11.58.25-.26-7.2" fill="#ffea0f"/><path d="M352.84,37.33c-8.38.17-17,5-16.53,17.89.75,19,8.07,24.5,16.81,24.83s16.11-11.2,16-21.5-3.53-21.25-15.89-21.22Zm.31,7.72.55,0c7.18.55,6.88,8.52,6.7,13.14s-1.54,12.55-8.73,12-6.6-8.24-7.16-13.67C344,51.33,348.67,45.22,353.15,45.05Z" fill="#ffea0f"/><path d="M377.45,40.28a9.58,9.58,0,0,0-1.39.08l-1,43.19,8.23,1.56.52-9.78,14.14,13.11,1.53-9L392.26,72s10-5.42,9.77-11.58-1.8-13.64-10.8-17.23A37,37,0,0,0,377.45,40.28Zm8.95,11a10.52,10.52,0,0,1,4.58.86c3.34,1.54,2.31,7.71,1.28,10.81s-9,3.58-9,3.58l.52-14.91A12.08,12.08,0,0,1,386.4,51.33Z" fill="#ffea0f"/><path d="M411.55,48.59,409,88.45l21.35,4.64.51-8.75-11.31-3.59.25-6.44h5.92l.26-8.48-5.41-1V57.86l10.29,1.28.51-7.72-19.8-2.82" fill="#ffea0f"/><path d="M466.08,65.05l-6.18,4.63s-3.6-6.68-10-3.09-6.43,10.29-5.41,14.91,2.36,9.18,6.69,9.79c7.46,1,5.66-3.61,5.66-3.61l-4.63-.51-.26-8.49,13.89.78s.49,15-3.08,17.75c-4.38,3.34-14.54,6-20.84-.27-5.4-5.4-7.41-12.93-6.42-21.08.62-5.13,3.08-13.64,8-16.21s10.8-3.34,13.88-2,8.75,7.46,8.75,7.46" fill="#ffea0f"/><path d="M488.26,61.44c-8.5.35-17.23,5.42-16.2,18.53,1.49,19,9,24.17,17.75,24.17S505.49,92.32,505,82,500.6,60.93,488.26,61.44Zm.33,7.73a3.23,3.23,0,0,1,.44,0c7.2.26,7.2,8.22,7.2,12.86s-1,12.59-8.22,12.33-6.95-8-7.73-13.36C479.54,75.76,484.09,69.41,488.59,69.17Z" fill="#ffea0f"/><path d="M511.35,63l.51,39.86,8.75-.26.25-17,11.32,15.43H542l-1.29-40.64-9,.77,1,21.09L517.77,62.74l-6.43.26" fill="#ffea0f"/><path d="M392.08,187.55l-1.74,2.75-2.72.34,1.82,2.42-.44,3.06,2.79-1.35,3,1-.69-2.72,1.89-2.42-2.79-.34-1.16-2.74" fill="#ffea0f"/><path d="M392.13,175.56l-1.74,2.75-2.72.34,1.82,2.42-.44,3.06,2.79-1.35,3,1-.68-2.72,1.88-2.42-2.78-.34-1.16-2.74" fill="#ffea0f"/><path d="M388.52,162.18l-1.39,2.95-2.66.67,2.11,2.17-.07,3.11,2.6-1.7,3.14.64-1-2.62,1.57-2.63H390l-1.49-2.6" fill="#ffea0f"/><path d="M384.21,149.86l-1.39,2.93-2.66.67,2.1,2.19-.06,3.09,2.6-1.69,3.14.64-1-2.62,1.58-2.64h-2.8l-1.49-2.58" fill="#ffea0f"/><path d="M391.25,199.07l-1.78,2.72-2.72.3,1.78,2.45L388,207.6l2.82-1.32,3,1.05-.65-2.72,1.92-2.41-2.78-.36-1.12-2.77" fill="#ffea0f"/><path d="M389.78,211.42,388,214.14l-2.72.3,1.79,2.45-.49,3.06,2.81-1.32,3,1.06-.66-2.72,1.92-2.41-2.77-.37-1.12-2.77" fill="#ffea0f"/><path d="M385.69,222.76l-1.91,2.63-2.73.17,1.67,2.53-.63,3,2.86-1.18,3,1.2-.52-2.76,2-2.3-2.76-.51-1-2.81" fill="#ffea0f"/><path d="M381.69,233.1l-1.91,2.63-2.73.17,1.67,2.53-.63,3,2.86-1.18,3,1.2-.52-2.75,2-2.31-2.76-.51-1-2.81" fill="#ffea0f"/><path d="M375.52,243.9l-1.91,2.64-2.73.17,1.66,2.52-.63,3,2.87-1.19,3,1.2-.52-2.75,2-2.3-2.75-.52-1-2.81" fill="#ffea0f"/><path d="M368.83,254.19l-1.91,2.64-2.73.17,1.67,2.53-.63,3,2.87-1.19,3,1.2-.52-2.76,2-2.3-2.76-.5-1-2.82" fill="#ffea0f"/><path d="M361.29,263.46l-1.91,2.63-2.73.17,1.66,2.53-.63,3,2.87-1.18,3,1.2-.52-2.76,2-2.29-2.75-.52-1-2.8" fill="#ffea0f"/><path d="M351.86,272.19,350,274.83l-2.73.18,1.67,2.52-.64,3,2.87-1.19,3,1.21-.52-2.76,2-2.31-2.76-.5-1-2.82" fill="#ffea0f"/><path d="M341.22,278.86l-1.68,2.78-2.71.41,1.87,2.37-.38,3.07,2.76-1.41,3.06.94-.75-2.7,1.84-2.46-2.79-.28-1.22-2.72" fill="#ffea0f"/><path d="M331.71,285.78,330,288.57l-2.71.4,1.87,2.38-.38,3.07,2.77-1.41,3.05.94-.74-2.71,1.83-2.46-2.79-.27-1.22-2.72" fill="#ffea0f"/><path d="M320.91,292l-1.68,2.8-2.71.39,1.87,2.37L318,300.6l2.76-1.43,3.06.95-.75-2.7,1.84-2.47-2.79-.27L320.91,292" fill="#ffea0f"/><path d="M308,295.72l-1.68,2.8-2.7.39,1.87,2.39-.38,3.07,2.76-1.43,3.06.95-.75-2.71,1.84-2.45-2.8-.29L308,295.72" fill="#ffea0f"/></svg>