<svg xmlns="http://www.w3.org/2000/svg" width="286" height="300" viewBox="0 0 286 300"><title>flag-florida-icon-ship</title><path d="M102.87,84.42c-.61,4.25-1,8.61-2.53,12.66-1.74,4.62-5.09,7-8.46,10.42-7.75,7.78-15.58,15.48-23.59,23-16.11,15.15-32.93,29.6-51,42.38-2.07,1.47-4.15,2.91-6.26,4.32-1,.65-4.77,2.34-4.71,3.84s2.93-.32,3.77-.78c6.64-3.62,12.67-8.77,18.63-13.37,17.94-13.82,34.68-29.12,51.07-44.72C81.09,120.93,91,110.36,92,111.1c1.4,1-2.87,6.23-3.49,7.14-2.13,3.1-3.61,7.08-7.17,8.78-1.42.68-4.41,1.11-5.21,2.69-.91,1.79,1.57,1.81,2.9,1.82-2.31,5.69-6.13,10.61-9.75,15.51-3.85,5.22-7.5,10.56-11.47,15.69A373.24,373.24,0,0,1,31.47,193c2.83,2.82,8.54-5.87,9.92-7.53,4.84-5.84,9.84-11.52,14.47-17.56,5.51-7.18,10.8-14.51,16-21.89q4-5.64,8-11.31c.44-.64,1.16-2.24,1.83-2.61.23-.12.75,0,1-.05,1-.27,2-.42,3-.7,1.71-.49,8.23-3.42,8.2,0,0,1.14-.91,2.31-1.41,3.27-1,2-2,4-3,6-2,4-4.07,8-6.34,11.91-1.57,2.68-2.93,6.22-6,7.28-2,.69-4,1.2-6,1.92-.74.26-3.48,1-3.25,2.13.1.55,1.16.8,1.57.94,1.42.52,2.43.53,2.92,2.16,1.51,5-6.36,10.2-8.84,13.71-4.8,6.79-10.73,14-17.75,18.63,3,3,6,.22,7.95-2.4,2.48-3.25,4.56-6.53,7.33-9.52,5.14-5.55,9.4-12.27,13.84-18.38,3.33-4.6,13.28-4.41,18.33-3.51-2.73,13.84-7.87,27.07-10.61,40.91,2.69-1.79,3.41-6.44,4.09-9.31,1-4,1.78-8,3-11.89.43-1.4,4.89-16.71,5.19-16.54.49.28-1.59,7.64-1.78,8.52q-1.14,5-2.27,10c-1.46,6.51-2.86,13-3.94,19.62,2,.29,3.17-7.09,3.58-8.37.23-.68.43-2.08,1.19-1.62,1.46.89-.44,5.26-.39,6.49.09,2.13,1.27,5.14,3.92,4.46,1.92-.5,2.25-2,2.52-3.71q.61-3.79,1.19-7.62c.27-1.85,2-21.89,3.42-21.87.53,0,.74,30.79,1.06,33.71,1.43-8.21.65-16.78,1.08-25.08.07-1.34-.67-12.73,1-12.71,1.15,12.39-.11,24.93,2.08,37.23,1.28-3.85.84-8.27.56-12.24-.34-4.83-.94-9.66-.84-14.52.07-3.5-.12-7-.23-10.49,0-1.37-.87-6.82.5-7.76,1.85,14.85,1.55,29.88,3.7,44.7,2.42-.23,1-7.4.79-8.69-.58-4.75-.72-9.47-1.11-14.24-.57-6.84-1.33-13.69-1.37-20.56,0-1.31-.31-3.59.39-4.52a6.58,6.58,0,0,1,1.48-.95c1.54-1,3-2.13,4.65-3.08,2.33-1.39,6.27-3.66,8.57-1.07,1.4,1.59,1.62,4.54,2.33,6.47,1.17,3.21,2.44,6.38,3.68,9.56,1.12,2.86,2.22,5.73,3.23,8.63s2.68,6.6,2.9,9.8c.08,1.28.11,1.13-.73,2.11l-1.58,1.83c-.83,1-1.67,1.95-2.48,2.94-1.8,2.19-3.32,4.62-5.13,6.76a18,18,0,0,0-3,4.49c-.51,1.23-.76,1.78.52,1.11,1-.51,1.81-2,2.55-2.75,1.38-1.52,2.73-3,4-4.61,2.4-2.89,4.7-5.85,7.28-8.57,1.6,4.38,6.21,9.17,4.8,14.17-1.09,3.84-4.91,4.75-8.43,4.68-3.76-.09-7.44-.95-11.22-.84-6.38.17-12.87-.37-19.27-.58-13.18-.45-27-.12-40-2.4-11.79-2.06-22.76-7.06-33.51-12.13-5.46-2.57-11.15-4.82-16.52-7.56-3.34-1.71-8.65-6.08-12.67-5.18,5.88,4.79,12.51,8.52,19.07,12.26,6,3.41,11.64,7.37,17.71,10.58,5.47,2.89,11.32,5.5,15.63,10.08,2.43,2.58,2.88,10.93,7.59,11a3.73,3.73,0,0,0,2.6-1.32c1.37-1.34,1.26-2.13,3.31-2.46,3.49-.57,7,.1,10.38.93,6.75,1.64,12.89,2.56,19.86,1.72,3.59-.44,7.13-1.26,10.72-1.67a34.4,34.4,0,0,1,4.87-.25c2,0,3.91.69,5.8.29,7.45-1.57,14.47.16,22,.06a6.14,6.14,0,0,0,4.76-1.86c.64-.59,2.41-3,3.45-2.76.7.17.72,1.06.81,1.65.26,1.6-.4,2.29,1.59,2.21,2.49-.09,4.61-1.37,5.29,2.1,3.11-3.2,6.1-1.8,9.55-.09,1.36-3.41,2.92-3.85,5.86-1.67,1.59-3.4,5.55-3.56,8.77-4.15A8.72,8.72,0,0,0,185,217.6a4.36,4.36,0,0,0,1.3-1.65c.21-.46.23-2.82.47-3,1-.83,3.08.71,3.7,1.38a18.74,18.74,0,0,1,2.2,3.65c2.24,3.84,3.1.08,6.13.21,3.67.17,5.68,4.49,9.54,4.11,1.26-.12,1.8-.52,3-.29,1.48.27,2.9.95,4.42,1.2a39,39,0,0,0,10.41,0c6.64-.71,12.91-2.79,19.64-3.08,3.4-.15,6.81-.08,10.22,0,1.63,0,3.35.39,4.78-.31a22.39,22.39,0,0,0,4.05-3.22,32.51,32.51,0,0,1,6.9-4.65,10.29,10.29,0,0,0,3.94-2.94c1.22-1.54,3.72-5.7,1-7-1.62-.77-4.35.35-6,.52l-12.1,1.19q-11,1.06-22,2c-15,1.25-30.14,2.21-45.24,2.56-2,0-4.88.72-6.28-1.2-1.12-1.55-1-3.94-.75-5.72a91.8,91.8,0,0,1,2-9.47c.52-2,1.95-8.29,5.09-7.22,1.53.51,2.66,3.09,3.63,4.25a26.9,26.9,0,0,1,3.46,6.08c1.68,3.68,3.36,8.57,7.42,10.25a5.75,5.75,0,0,0,2.7.56c1.4-.2,2.73-1.45,4.18-1.93,3.17-1.06,6.6-1,9.88-1.38.53,5.32,1.55-2.88,3.39-1.68,1.28.84.35,4.35,2.36,2.42,1.57-1.52,2.16-2.37,3.05.62,2.12-3.74,6.67-4.84,10.62-5.37,2-.27,4-.39,5.93-.56,2.59-.23,4.57-1.43,7.11-1.88a36.31,36.31,0,0,1,7.87-.17c1.44.06,2.62-.23,3.45.64.62.65.87,1.68,1.55,2.36.39.39,1.55,1.56,2.19,1,.93-.76-1.65-3.37-1.89-3.9-.92-2.13,1.5-2.85,3-3.79,2.32-1.43.43-1.94-1.59-1.85-3.24.14-5.21-.65-7-3.54-1.66-2.71-2.51-5.87-3.65-8.81-1.45-3.77-3.74-7-5.43-10.69-2.5-5.41-4.81-10.9-7-16.43-4.56-11.38-8.73-22.92-13.4-34.27-2.08-5.06-4.25-10.36-5.86-15.6a20.62,20.62,0,0,1-1.2-7.73c.16-1.82.94-3.41.93-5.31,0-2.11-1.16-6.43-2.65-2.37-1.89,5.17-2.47,11-3.62,16.37-2.8,13-9.27,24.49-14.31,36.71-5.35,13-10.24,26.11-16.13,38.83-3.45-2.41-.24-6.58-1.81-9.55-1-1.82-3.4-1.13-5-1.1-1.8,0-3.09.19-3.92,2-1.66,3.65-.15,8.49-.63,12.36-.22,1.76-.92,3.3-1.13,5.07a26.65,26.65,0,0,1-1.16,6.39c-.68,1.72-1.78,2.92-3.75,2.71a13.34,13.34,0,0,1-3.19-1.26c-.73-.27-1.65-.2-2.06-1-1.33-2.55,4.45-7.34,5.81-8.91.94-1.08,2.34-2.45,2.54-4,.24-1.76-.53-1.38-1.58-.45a36.63,36.63,0,0,0-6.4,8.11c-1,1.66-2.06,3.66-4.14,2.19-1.64-1.16-2.56-3.7-3.37-5.44-.9-2-1.73-3.91-2.75-5.79-2.15-4,.27-7.16.1-11.29-2.26.76-4.85-.67-7.15-.57-3.17.14-2.46,3.39-2.54,5.82-.07,1.9.05,3.85-1.17,5.42-.8,1-1.91,1.93-2.76,2.95-1,1.22-3.19,4.57-5.19,3.79-1.24-.48-1.82-2.94-2.27-4-1-2.32-2-4.66-3-7q-3-7.29-5.69-14.71c-.8-2.21-1.58-4.42-2.33-6.65-.28-.82-1.28-2.7-1.19-3.59s.58-.86,1.37-1.44c1-.77,3.77-3.26,1-3.17-.85,0-1.52.73-2.32.54a5.18,5.18,0,0,1-1.65-1.33,13.6,13.6,0,0,1-2.46-3.72c-1.49-3.14-2.25-6.6-3.24-9.92a41.86,41.86,0,0,0-1.48-4.34c-.53-1.25-1.51-2.54-1.53-3.94,0-2.22,2.08-3.43,3.68-4.54s4-2.63,4.07-4.88c.14-2.42-2.41-1.72-4-1.19-1.87.63-3.83,1.84-5.85,1.86-2.92,0-2.62-2.35-3.16-4.47-.64-2.49-2.08-4.76-2.64-7.35a34.59,34.59,0,0,1-.73-7.11c0-4.64,1.31-8.82,2-13.31.19-1.32.35-6.53-1.57-7C103.86,73.22,103.08,83.16,102.87,84.42Zm126,25c5.29,13.95,10.43,28,15.93,41.84,2.63,6.66,5.23,13.38,8.35,19.83s6.71,12.76,9.71,19.32c-6.86,3.06-14.88,2.33-22.15,3.6-2.19.39-5.1,1.54-7.32.83-2.91-.93-2-5.39-2.31-7.74-2.11-18.67-3.84-37.38-6.06-56-1.2-10.09-3.13-20.42.25-30.31C227.25,103.2,227.56,106.58,228.84,109.4ZM108,109.87c3.57,3-1.33,8.19-1.94,3.53-.2-1.56-.84-5-.08-6.41C106.93,105.17,107.65,108.92,108,109.87Zm-10.09,2.48c1.08,5.46-4.65,11.82-10.31,11,3.56-5.38,6.06-12.55,11.06-16.8C98.49,108.47,98.2,110.41,97.91,112.35Zm6.63,1.09c.07,8.5-3.69-1.7-.45-3.6A10,10,0,0,1,104.54,113.44Zm112.81,7.91a11.6,11.6,0,0,0-.23,2.06,25.53,25.53,0,0,0,1.62-3.73Q216.83,139.9,214.1,160q-.66,4.89-1.37,9.78c-.5,3.41-.48,7.63-1.64,10.86a18.84,18.84,0,0,0-1.48,4.34,54.07,54.07,0,0,0-.19,5.55c-.08,3.11-.51,7.15-4.22,7.94-1.35.28-1.38.1-2.21-1s-1.53-1.94-2.3-2.9a66.66,66.66,0,0,1-4.87-6.71,19.24,19.24,0,0,1-2.76-6.86c-.5-3.22,1.08-5.74,2.33-8.62q4-9.25,7.84-18.58,4.35-10.59,8.58-21.23c1.34-3.37,2.74-6.73,4-10.13C216.36,121.11,218.41,117.31,217.35,121.35Zm-102.88,5.94c.66,5,4.24,9.15,5.55,14,.49,1.84.7,3.92-.69,5.42a6.15,6.15,0,0,1-2.83,1.54c-1.33.39-2.5,1.07-3.83,1.44-4.34,1.25-4.78-3.78-4.92-6.9-.09-2.12,0-4.25-.14-6.38-.12-2-.86-3.75-1-5.71-.14-2.25.19-5.54,2-7.1a2.7,2.7,0,0,1,2.7-.55C113.37,123.6,113.82,125.55,114.47,127.29Zm-8.89,3.06c.43,4.23-4,6.32-5.37,9.92-1.62-2.84-.3-8.24,1-11,.54-1.13,1.52-2.78,3-2.47S105.49,129.08,105.58,130.35Zm119.56,16.27c.89,11.27,2.24,22.5,3.33,33.75.28,2.9.54,5.81.77,8.71.07.86.91,5.81-.19,5.58-1.45-.3-1.29-5.24-1.34-6.22-1.08-19.93-3.53-39.77-4.73-59.69C224.31,134.62,224.47,140.66,225.14,146.62Zm-133,.12c.36,6.55-3.3,11.48-10.1,11.6,2.14-3.65,3.92-7.5,5.85-11.26,1.51-2.93,3-6.57,5.54-8.81C93.11,141.11,92.63,143.92,92.14,146.74ZM221,154.53c-.22,10.26.31,20.53.76,30.78.11,2.56.22,5.13.31,7.69.06,1.8.26,2.34-1.22,3.18s-4.56,2-6.27,1.28c-.94-.41-.94-.77-.91-1.75.06-2.18,1-4.72,1.33-6.9.83-5,1.51-10.08,2.12-15.15,1.21-10.12,2.12-20.27,3.38-30.38C221.77,146.81,220.81,150.86,221,154.53Zm-114.66-3.12c-2.19-1.55,1.14-7.83.38-1.06Zm117.37,4.21c.13,13.22,2.64,26.33,2.23,39.57-2.48-.72-2.32-5-2.36-7-.07-3.26.3-6.55,0-9.8a192.48,192.48,0,0,1-.41-31.67A75.23,75.23,0,0,1,223.7,155.62ZM99.29,152.74c-2.47,1.84-1.45-3.1-.78-4.09C100.31,146,99.67,151.67,99.29,152.74Zm6.41,14.08c0,4.4-2.3-.77-.58-2.31A3.77,3.77,0,0,1,105.7,166.82Zm-10.16,12.4a55,55,0,0,0-.94,6.26c-.18,1.21-.36,4.69-1.74,5.29s-.68-1.44-.56-2.17q.6-3.6,1.35-7.18c.92-4.42,2-8.82,3.28-13.16C96.71,171.94,96.07,175.58,95.54,179.22Zm93,3.87c-1.81,5.71-.6-9.25.42-1.05Zm-31.51-1.79c1.3,3.35,4.35,6.14,5.15,9.67a2.32,2.32,0,0,1-1.09,2.93,6.31,6.31,0,0,1-2.72.48c-.82,0-2.39.46-3.16.22-2.52-.8.19-6.46.52-8.14a21.07,21.07,0,0,0,.13-3.64C155.9,181.93,156.09,179.08,157.05,181.3Zm-10,2.65c-1,3.16-1,6.67-1.16,10-.1,1.7.28,6-1.18,7.28-4.29-6.69-5.13-15.24,2.4-19.94A8.8,8.8,0,0,1,147.07,184Zm25.51,13.74c4.17,2.17,8.95,6.4,10.36,11,.51,1.67.61,4.51-1.13,5.63-1.32.85-5.2.81-6.63.2-2.45-1,1.95-1.12,2.82-1.23,1.67-.22,3-.93,1.77-2.78a3,3,0,0,0-4.06-1c-1.09.65-4.3,4-6,2.75s3.06-3.12,3.81-3.53c1.32-.71,3.62-2.81,2.95-4.54a1.75,1.75,0,0,0-1.76-1.07c-1.23,0-1.1.61-1.76,1.57s-2.64,3.51-4.05,3.64c-1.81.17-.18-2.24.56-3,1.32-1.33,3.36-2.18,2.28-4.59-1.87-4.15-4.68,3.17-5.34,4.71-.22.52-1.11,3.3-1.73,2.95s.5-4.6.52-5.22c0-.89.26-4-.76-4.64-1.65-1-2.36,2-2.42,3.1-.09,1.82.65,4.24.08,6s-1.06-.08-1.34-1.41c-.45-2.09,0-5.27-2.59-6.29a2,2,0,0,0-2.51.75c-1,1.24-.16,1.61.57,2.6a13.92,13.92,0,0,1,2.61,5.16c.26,1.65-.23,1.25-1.2.09-1.31-1.57-1.57-4.16-3.81-4.79-1.61-.46-3.79.62-3,2.58.6,1.57,3.59,2.36,4.7,3.88,1.3,1.78-.28,1.19-1.6.57s-2.54-3-4.38-2.8a3.42,3.42,0,0,0-2.59,2.65c-.37,1.8.71,2.35,2.3,2.43.85,0,6.62.28,6.65,1.9,0,.26-11.67,1.36-12.12-3.47-.13-1.41.7-2.58,1.39-3.71.89-1.46,1.57-3.07,2.59-4.48a17.54,17.54,0,0,1,6.77-5.54A21.79,21.79,0,0,1,172.58,197.69Z"/></svg>