<svg xmlns="http://www.w3.org/2000/svg" width="154" height="300" viewBox="0 0 154 300"><path stroke="#000" stroke-linejoin="round" stroke-width=".5" d="M133.64 217.32v.01h0v-.01zM112.55 193.19v-.01h-.01l.01.01zM20 70.78s-.24-.28-.41-.22l-6.03-2.66C7.49 63.78 6.28 56.51 4.3 50.3a14.21 14.21 0 012.13 2c.29.17-.24.75.29.4 2.77 2.62 2.21 6.84 5.05 9.58 1.88 1.93 4.52 1.92 6.87 2.84 1 .81 2.3 1.92 3.71 1.44 0-3.16-3.44-5.31-5.68-7.06-2.47-2.09-3.2-5.55-5.5-8.06-1.79-2.44-5.08-4.36-5.61-7.36l.9-.75a42.66 42.66 0 015.27 4.06c2.35 1.73 5.53 2.72 6.84 5.58 1.2 4.21 4.44 7.65 5.64 11.88 1.3 1.68 0 3.57.45 5.39.17.46.42 1.57 1.06 1.27a4.9 4.9 0 00-.53-1.05c.09-3 0-5.74-1.52-8.38-4.09-5.65-1.9-12.29-3.29-18.86-.18-.23-.18-.34 0-.64a4.89 4.89 0 00-1-.4c1.73 4.91.47 9.31 1.32 14.24.06.17.42.46 0 .63a29.47 29.47 0 01-2-4.43 9.53 9.53 0 00-3.7-3.43c-2.35-1-4-3.1-6.12-4.54-.87-.19-1.57-1.26-2.34-1.41H5.35l-.18 1.08a11.67 11.67 0 01.19 1.36c2.9 4.33 7.32 7.46 9.05 12.44-1-.11-1.82-1.16-3.05-1-.3 0-.35.36-.29.59.77 2 2.25 3.91 2.85 5.91-5.15-2.62-3.61-9.55-8.44-12.51-.7-.29-1.24-1.74-2.12-1.27a36.62 36.62 0 011.44 4.33 20.07 20.07 0 01.72 3.25 3.45 3.45 0 01.59.56 18.82 18.82 0 007.28 10.33c.82.41 1.76.75 2.12 1.74A16.09 16.09 0 0024.69 75c.53 0 1 1.23 1.41.29-1.3-2.36-4.1-3.05-6.1-4.51zm-8.3-13.56c1 .23 1.94 1 3 1.16 1 1.52 2.77 2 3.9 3.31s3 2.68 3 4.61a5.41 5.41 0 01-2.25-1.3c-1.42-1.11-3.47-.63-4.77-2.09-.84-1.91-2.13-3.7-2.85-5.69zM22.14 73.7a6.5 6.5 0 01-.62-.22c-.16-.07-.39-.28-.57-.29h-.06a.34.34 0 01-.2 0l-2-1.21h0l-.27-.16a.51.51 0 01-.32-.23l-2.35-2 .11-.06A12.71 12.71 0 0019 70.89a1.63 1.63 0 01.84.44 7.79 7.79 0 011.32.91c.42.1.78.36 1.21.49.15 0 1.66 1.33 2.28 1.6a18.34 18.34 0 01-2.45-.62zM5.47 57.39l-.12-.17-.23-.07a2.71 2.71 0 01.35.24zM110.26 192.79c.81-.13 1.69.61 2.28.39-.54-.58-1.53-.53-2.29-.8zM113.71 192h.29a23 23 0 00.38-3.47 6.38 6.38 0 00-.67 3.47zM85.33 147.19c-.77-.17-.82.83-.64 1.3.48.58.43 1.58 1 1.87.42-1-1.18-2.11-.36-3.17z"/><path d="M28.77 52.26a.41.41 0 01.19-.39h-.38a1.09 1.09 0 00-.18 1.18 28.72 28.72 0 012.43 9 .34.34 0 01.08.17c.05.3.07.6.09.9h0v1.53a.5.5 0 01.07.26 5.9 5.9 0 01-.06.59v.17h0c0 .25-.08.5-.12.75h0c.37 2.88-1.85 5-1.65 7.93a5.86 5.86 0 01-.95-1.86c.13-1.62.41-3.27.56-4.89h.05v-1.09-.07a14.49 14.49 0 000-2h.06a2 2 0 00-.23-.52c.12-7.69-3.2-14-7-20.07a3.28 3.28 0 00-1.4-1.27 34.74 34.74 0 017.97 19.59c1.26 4.44-2.06 9.11 1 12.9.3.41.36 1.52.95 1.34-1.54-3.27.84-6 1.29-9 .28-5.02-.4-10.71-2.77-15.15z" stroke="#000" stroke-linejoin="round" stroke-width=".5"/><path d="M150 254c-.12-.65-.83-1.17-.77-1.69-.36-.82-1.36-1.7-1.48-2.4a2.71 2.71 0 00-1.6-1.51c-1.66-2.81-2.67-5.85-4.51-8.6-1.28-2.48-3.18-4.79-4-7.4-.22-.4-.45-.8-.68-1.19h-.05c-2.9-5-6-9.94-8.95-15l-.3-1.16c2.18-3.62 5.31-6.66 7.09-10.43.34-1 .81-2 1.22-3 .19-.65.38-1.34.57-1.94v.15a7 7 0 00.23-1.58v0c.12-1.84 1.11-3.84.81-5.89a5.54 5.54 0 010-2 .3.3 0 010-.1 32.19 32.19 0 00-.69-6.51 1.12 1.12 0 01-.05-.68 7.17 7.17 0 01-.07-1c-.36-.32.48-1.21-.54-1.09-1.75 1.59-3.61 3.66-4.07 6 .25 2-1.08 4.46-2.07 6.17-.86-5.87 4.57-10.05 2.42-15.56-.6-1.7-1-2.92-1.61-4.51-.3-.53-.24-1.4-.83-1.57.14 3.33-1.78 6.64-3.75 9.52-.81 2-2 3.82-2.84 5.82l-.18-.4a128.49 128.49 0 011.09-22.65 11.56 11.56 0 00-.56-4.81 12.74 12.74 0 00-2.87 2.23l-1.39.23h0a2 2 0 01-.77.22c-2.93-.1-4.85 2.72-6.3 4.67-2.21 3.9-3 8.41-6.08 11.83-.54-1.23-1.72-2.21-1.9-3.68a18.71 18.71 0 003.89-5c3.72-5.25 2.27-12.22 2.7-18.38.57-2.58 1-5.29.18-7.74-.23-.3-.12-1-.76-.82.06.36-.41.53-.53.83-7.59 5.5-4.24 15.63-7.53 23.15-.87 1.78-.5 3.69-.9 5.52a45 45 0 00-3.57-3.83l-.06-.51 2.62-4.32a64.23 64.23 0 003.51-9.23c.85-5.16 3.34-9.87 3.25-15.08-.43-2.17-.21-4.63-2-6.26a16.73 16.73 0 01-4.06 5.24c-4.14 3.66-6.81 9-4.54 14.69l-.23.65c-.29-.06-.35-.52-.71-.35-2.46.37-3.67 3.31-4.13 5.54a5.52 5.52 0 01-1.48-3.8A15.6 15.6 0 0093.76 144c-.38-4.51-1.82-9-2.49-13.7h0a6.21 6.21 0 01-.2-.74c-1-3.36-1.1-7.31-4-9.54-.23 0-.41 0-.53.24.9 2.92-.72 5.86-.58 9 .41 2-.68 4-.6 6a.29.29 0 010 .1c.06.38.2.74.23 1.13a.52.52 0 010 .18c.57 2.52 1.71 4.29 1.79 7.14h-.32c-.13-.13-.29-.26-.38-.36a3.93 3.93 0 00-3.51 1.42 4 4 0 00-.8 2.29c-.42-.88-1.3-1.75-1.84-2.69.34-1.81 2.15-3.17 2.43-4.88.21-.44.41-.91.64-1.38.19-.72.38-1.44.59-2.16h0s0-.09.05-.13v-.12a.05.05 0 010 0c1.87-5.19.92-10.25-.09-15.55v0a3.88 3.88 0 01-.14-1.07c-.42-2.46-.5-5.78-.75-8-.53-.34-.07-1.41-1-1.16-1.28 1.48-1.63 3.29-2.49 5-1.34 2.35-1.32 5-1.53 7.68-.17.84.42 1.65-.16 2.36-.46-7.09-.8-14.66-5.64-20.27-.48-.57-.72-1-1.48-1.15a1.46 1.46 0 00-.4 1.29c2.14 3.79 1 8.67-.15 12.55-.2-2-.09-4-.16-5.92.45-5.56-1.86-10.56-4.65-14.99-.53-.35-1.24-.74-1.81-.33-.36.35.17.81.11 1.28a79.23 79.23 0 01-.58 18.25A82.7 82.7 0 0065 124.2c.07 1.18.43 2.23-.14 3.28-.41-.28-.77-.93-1.18-1.27-1-2.11-3-4-4.15-6.2 1.22-2.24 2.2-4.59 3.24-6.87 1.94-8.52.4-18.89-2.81-27.09-.89-1.4-1.55-3.62-3.55-3.78-.52.23-.28.88-.4 1.17 2.44 5.5-1.34 11.09.75 16.89.1 5.57 1.84 11.59-.12 17.42-.18.11-.35.42-.64.29-2.12-1.39-2.61-3.9-2.33-6.08a14.64 14.64 0 002.48-7c-.1-6.22.39-13.09-4.63-18-1.54-.7-2.6-2.51-4.24-2.72A13.87 13.87 0 0047 91.3a15.38 15.38 0 012.94 11L48 100.79c-1.18-.16-2.29 1-3 1.78a32.56 32.56 0 01-1.9-3.44 2 2 0 01.81-1.3c1.43-5.34 3.39-10.46 1.48-16.14a1 1 0 01-.09-.63.53.53 0 010-.33c0-.13-.09-.27-.13-.39a5.65 5.65 0 01-.17-.71 27.87 27.87 0 00-3.56-5.82c-.36 0-.65-.41-1-.11-1.1 2.87.74 5.85.06 8.85-.28 2.11-.74 4.1-.38 6H40c0 .34.06.67.1 1l.09.05c.13 2 2.08 4.15.45 6.1-.86-1.78-3.2-3.3-3.29-5.46a.52.52 0 01-.09-.41 2.5 2.5 0 01.18-.48 2.66 2.66 0 01.1-.38h.07a5.65 5.65 0 00.29-.67h-.06c2.6-5.59 3.07-13.45-.71-18.88a6 6 0 01.56-2v-.44h0a12.14 12.14 0 00-.55-3.52c0-.3-.34-.78-.23-1.09l-.15-.67h0v-.15c0-.07 0-.14-.05-.21-.15-.52-.4-1-.51-1.46h0a30.49 30.49 0 00-2.55-4.73 7.93 7.93 0 00-3.5-3.15c3.27 2.49 5 6.09 6 9.92.36 1.64 1.13 3.4 1 5.34-1.07 4.17-3.52 7.41-5 11.34-1.15 3.19 1.5 5.22 2.28 7.8.23.46 0 1 .24 1.28.91-4 2.23-8.92 0-13 .22-1.64 1.68-3.05 2.2-4.76 3.67 5.48 2.84 13.53.12 19-1 3.1 2.09 4.91 3.33 7.31h.76a4.54 4.54 0 00.93-2.75 17.28 17.28 0 01-1-10.38c.92-3.12-.86-5.86-.12-9 1.12.88 1.48 2.39 2.43 3.5 2.43 3.85 2.52 9.66 1.67 14-.92 2.24-.49 5-2.3 6.88-.34 1.59 1.2 2.88 1.73 4.33l.53.23.15 4.29c.12 1.16 1.94 1 1.3 2.57a1.25 1.25 0 001.59.51c-1.12-1.57-.5-4.34-.69-6.15l-.35-.29c.25 2.1-.38 4.11.57 5.92l-.18.18c-1.06-.53-.42-2.23-1.83-2.64 0-1.34-.43-3.22-.15-4.39s1.58-1.42 2.45-1.83c4.24 1.61.44 4.93.88 7.68h.23c0-.35.29-.82.17-1.11a17.57 17.57 0 00.8-11.74c-.14-3.1-3.9-5-2.69-8.42a8.33 8.33 0 01.5-3l2.77 2.09c5.43 4.14 5.06 11.35 5.28 17.21.25 3.23-1.44 5.88-2.82 8.59 0 2.51 1 5.26 3.32 6.18.76-.11-.18-.63.52-.87.92-3.82 1.77-8.16.74-12.2.09-5.16-1.65-10.55-.28-16 .58-2.58-.67-4.74-.56-7.1A3.89 3.89 0 0158.11 84c4.15 7.3 5.21 17.09 4.68 25.19-.15 4.1-2.12 7.46-3.81 10.88.78 2 2.72 3.61 3.73 5.6.71.75 1.08 2.4 2.54 2.16 1.27-3.6-1-6.63-1-10-1.08-3.21.48-7.16.58-10.2-.38-3.52.24-8.15-.6-11.07.23-.14.35.16.59.1 2.89 3.09 3.45 7.19 4.93 10.93-.08 4.87.65 9.86-.72 14.79-.69 2.53-1.67 5.29-1.65 7.69l5.55 6.31.29-.19c-.44-4.74-2.16-8.72-2.49-13.41-1.14-4.74 1.53-8.4 1.5-13.1 0-2-1-3.73-1.09-5.61 2.48 3.09 4.68 6.42 5.4 10.34 1.33 6 1.49 13.07-.4 19.12-.63 2 .5 4.34-.55 6.22.77.65 1.06 1.11 1.89 1.87-.18.12 0 .35-.12.53.24.12.36-.12.41-.18A26.15 26.15 0 0079 128c-.24-1.06-.55-2.64.21-3.59h-.12c-.77-1.8 0-3.52 0-5.68a29 29 0 013.53-7.93l.24.4c-.19 7.51 3.14 15.29 1.37 22.15-.5 4-2.48 7.59-4.27 11.24a12.37 12.37 0 002.14 2.8l.11-.12c.71 1.82 2.25 3.21 3.55 4.73.52 0 .7-.29 1-.59.51-2.65 1.43-5.11 1.18-7.64 0-3.92-3.16-7.54-1.42-11.47-.38-3.47.89-7.52.86-11.23a11.41 11.41 0 011.19 1.71c1.61 4.26 2.22 9 3.43 13.34 1.33 6.68 2.72 13.59-2.58 18.85.24.52.3 1.16.6 1.7.18 1.16 1.36 2.22 1.84 3.44.41.41.77 1.23 1.35 1.34 0-.88-1.18-1.58-1.07-2.69.81-1.76.74-3.93 2.84-5a1.86 1.86 0 011.58.11 22.29 22.29 0 00-.6 6.46c1.36 2-1.73 2.93-1.14 4.74.69-1.7 2.45-2.82 1.9-4.87-.71-2.88.79-5.7.24-8.79-3.09-7.38 5.14-12.3 8.57-17.66a14.1 14.1 0 011 8.74c-1.9 6.75-3 13.85-6.21 20.09-.75 2-2.62 3.59-2.9 5.71l3.61 4.14c.4-.12.7.53 1 0 0-4.11 1.71-7.87 2.56-11.75.49-6.15.56-12.84 6.23-17.05a10.29 10.29 0 01.32 4.22c-1.66 7.75 1.39 16.36-4.08 22.85-.87 1.23-1.56 2.77-2.91 3.48-.4.65.19 1.16.31 1.81a12.31 12.31 0 011.6 2.93c1.64-.25 2-1.89 2.85-3.07 2.72-5 3.55-13.11 10.88-13.8l.36.27a14.09 14.09 0 00-2.52 10.59c-2.09 3.54-5.41 6.55-9.34 7.4.36.28.19.87.25 1.34A13.52 13.52 0 00111 185c.83 1.58-.91 3.12-.26 4.7a4.72 4.72 0 00-2.11-.76 11.14 11.14 0 00-2.9-4.08c-1.36-1.69-3.35-.51-4.87-.09-4.38 2.73-8.64 6.16-13.79 7.37-2.87.61-5.56 2-8.49 2-.3-.06-.71-.35-.65-.64 6.72-4 12.42-10.7 20.39-12.28 1.46-.23 3.1 0 4.33-.66-.24-1-1.07-1.7-1.42-2.63h-.41v.29c-2.86 1.67-6.38 1.69-9.78 2.12-3 .95-6.81-1.19-9.61 1.11a10.61 10.61 0 01-7.51.45c-1.41-1.1-3.82-2.37-3.48-4.42.64-.12 1.23-.19 1.87-.32a13.13 13.13 0 0011.08-1.53 23 23 0 017.72-2.63c1.91.2 3.46-.71 5.44-.38l-2-2.26c-1.53.7-3.08 1.5-4.86 1.3-2.3-1.05-5.22.14-8.1-.37-3.22.21-6.08 3-9.19 1.53-2.83-1.8-5.84-3.13-8.72-4.69-.82-.53-1.77-1.34-1.66-2.4.94-1 2.87-.37 3.87-.55 5.28-.73 9.1 2.17 13.75 3 2 .29 4.41 1 6.28.22l1.31-.34a13.2 13.2 0 002.44 1.39 2.17 2.17 0 01.23-.41 9.57 9.57 0 003.17-.55v-.23c-1.12-.46-2.35.55-3.7.39a8.6 8.6 0 01-5.43-6.65 7.29 7.29 0 013.06-.43 4.27 4.27 0 013 1.91c.36.7 1.3 1.58.66 2.28a4.39 4.39 0 00-2.76-.92 12.82 12.82 0 013.65 2.32c0-.05.06-.17.17-.11.18-.23-.18-.69.35-.76-.77-1.35-1.25-3-2.6-4 .11-.23.29 0 .47 0-.24-.53-.25-1.47-1-1.47-.71-.92-1.6-1.68-2.42-2.61-.65-.23-1.29-.58-2-.22-3.78 3.19-8.34 6.92-13.51 5.24-3.77-2.37-8-3.76-12.17-5.19-1.06-.29-2.24-.22-3.18-.81a1.29 1.29 0 01.51-1.81c4.22-2 8.39.06 12.79.15 4 .9 8.75 1.69 12.56.86.64-.42 2-.37 1.92-1.31-.75.36-1.57.65-2.33 1-1.41-.11-3.57.67-4.64-.19-.47-1-1.12-2-.84-3.17a4.23 4.23 0 014.22-1.73c.06.12.29.24.18.4a8.65 8.65 0 013.41 2.22c-.06-.12.12-.18.17-.29-.12-.47-.53-.59-.83-.93-.76-.53-1.87-.7-2.23-1.53l-.71-.93a2.74 2.74 0 00-1.41-.68c-2.35 0-4.11-1-6.33 0a84.29 84.29 0 01-9.59 4.82c-2.11 0-4.11-.14-6.1.56-2.88-.68-5.76-1.42-8.05-3.22 2.8-1.9 6.08-1.33 9.31-1.52 4.75-.68 8.71-3.46 13.16-5 1.12-.19 2.41-.13 3.47-.43a14.83 14.83 0 00-2.14-2.75c-1.82-.28-3 1.55-4.74 1.79-2.45 1.84-4.62 1.38-7.38 1.57-.52-.11-.93.54-1.35 0l2-1.59a41.52 41.52 0 003.14-3.42 11.49 11.49 0 01.53-1.05l1.24.05v0c.86 0 1.54.43 2.45 0 .41-.24 1-.42.93-1.06a21.91 21.91 0 00-3.3-3.38l-.29.36c-.79 5.16-6 9.41-10.37 11.72-4 3.08-10.12 4.24-14.59 1.62 2.92-2.07 6.07-4.54 9.16-6.62 3-1.54 6.92-1.33 9.24-4-.7-.28-1.46.07-2.23.07-.34 0-.81.47-1.11 0l.06-.06a53.22 53.22 0 01-10.31 2.24c-1.76 0-2.81-.74-4.52-.9a28 28 0 01-8.3-4.88c2.45-2 5.86-.39 8.45.12 3.52 1.09 5.91-1.51 9-2.34 3.92-.67 8.63 1.35 11.72-1.08h-.12l.35-.48A12.39 12.39 0 0058 125.2c-.82-.17-1.76-.52-2.52 0-4.62 2.21-8.86 7.33-14.57 4.61-3.35-.27-6-2.19-8.48-4.46-1.3-1.86-2.42-3.8-3.61-5.72l.41-.19c2.93.51 5.52 2 8.17 3.3 4.88 2.55 8.09-.52 12.14-.78 1.17-.25 2.87-.31 3.15-1.61l-2.12-2.45c-2.47 0-4.21 2.2-6.68 2.51-3.5 1.31-6.86-1.69-9.91-2.54a25.5 25.5 0 01-9.52-1.44c-3.52-.45-4.66-4.18-6.79-6.52-.24-.41-.94-.58-1.06-1.06 2.17-.53 3.94.74 5.82 1.32 2.05 1.22 4.76 1.15 7.16 1.24 4.05.16 6.3 3.94 10.28 4.16.76-.71 1.18.52 1.88.4 1.13.64 2.24.28 3.53.51a.31.31 0 00.17-.54c-1.88.13-3.81.08-5.29-1.55-.82-.93-.47-2.1-.54-3.28 1-1.59 3.46-.48 5.09-.56 1.88.45 2.48 2.45 3.6 3.61.29 0 .24.35.53.06-.18-.7-1-1-1.3-1.75a4.89 4.89 0 00-2.26-2L45 109.3c-1-3.65-3.35-6.82-5.61-9.84-.77-.28-1.23.65-1.93.78-4 5-10.72 3.18-15.89 2-3.29-1.62-6.63-.2-10.27-1a20.56 20.56 0 012.7-2.56c1.29-.18 2.63-1.47 3.87-.54.29-.3-.06-.53-.18-.7A11.19 11.19 0 0123 96.22c-1.94-.62-4.1.21-5.8 1-2.59-2.4-2.38-6.1-5.2-8.22-.59-.58-1.77-1.27-1.37-2.21 5.46 0 7.84 5.81 12 8.49 2.06 1.27 4.75 1 7.22 1.29 2.64.45 5 1.61 7.69 1.77.65.11.88-.59.76-1a11.77 11.77 0 00-3.85-5.25c-2.11-.4-4-1.33-6.11-1.55-4.92.09-9.45-.76-12.93-4-1.47-1.39-3-3-4.49-4.72a10.25 10.25 0 01-2.71-2.39c-.12-.4-.71-.87-.36-1.28 2.35 1.39 4.6 3 7 4.16 2.17.93 4.7 1.1 7 1.91 3.69-.09 6.23 2.64 9.18 4.45l1 .1a1.13 1.13 0 00.47-1c-1.54-2.8-3.44-5.37-4.81-8.24-2.64-.39-5.51-.32-7.92-1.18-4.35-.79-7.95-4.23-9.91-8.21C8.09 64.82 5 60.16 1.58 55.6l.11-.11a6.42 6.42 0 002.09 1A9.57 9.57 0 00.58 55l-.35.29c3.19 3 4.91 6.83 7.05 10.4 1.45 3.81 3 7.66 6.24 10.6a2.62 2.62 0 01.45.21v-.07a17.11 17.11 0 011.94 1l-.07.08c.23.15.45.32.68.5 3.47 1 7.16 2 10.79 1.8h0c1.19 2.93 3.37 5.38 4.63 8.29-2.77-.44-4.19-3.48-6.89-3.94-3.67-.7-7.67-1.16-11.05-3.06-.27-.07-.78-.27-.79-.25l-.41-.24h-.11l-.24-.17-.85-.52a1.74 1.74 0 00-.63-.17.29.29 0 01-.14 0v0h0-.07A22.41 22.41 0 007.88 78c-.64-.23-.64.53-.63.94l1.94 2.86a3.38 3.38 0 01.43.3c.29.22.6.43.91.64l.83.57.47.43a20.8 20.8 0 008.33 6.33c.47.18 1.23.17 1.35.47a40 40 0 0110.68 1.52c2.87.21 4.65 3.19 5.55 5.52-2.52.67-4.52-1-6.87-1.3-2.12-.58-4.52-.21-6.75-.71-4.71-2.33-6.86-8.52-12.56-9.19a1.23 1.23 0 00-1.45.3c-.3.47.18 1.06.29 1.58 3.59 1.92 3.68 6.26 6 9.18-.82.47-1.88.29-2.64 1-1 .88-2.5 2-3 3.06.29.6.82.12 1.35.41 7.61-1.35 13.74 3.85 21.24 1.79 1.92-1 3.73-2.84 5.66-3.67a30.29 30.29 0 015.52 9h0l.09 1.2a11.44 11.44 0 00-5.07-.09 5.71 5.71 0 00-.33 3.28c.12.59.72 1 .66 1.58a13 13 0 01-2.65-.63 14.74 14.74 0 00-6.23-3c-2.3-1-4.34-.26-6.46-.9a34.52 34.52 0 00-6.34-2.17c-.77.11-1.94-.41-2.35.53a24.26 24.26 0 012.78 2.87h-.12c.65.47.54 1.28 1.19 1.57a4.53 4.53 0 002.3 2.6c1.47.28 2.3 1.1 3.82 1.32 1.18.75 2.83.68 4 1.15 5.5-1.51 8.77 4 14 2.31 2.4-.37 4-1.78 6.26-2.44l2.19 2.62c-2.63 1.43-5.8.8-8.49 2-4.22 1.33-7.81-1.41-11.34-3-1.23.13-2.3-1.21-3.7-.73-.12.17-.58.41-.41.88 1.42 1.81 2.31 3.92 3.74 5.78 2.65 2.86 6.47 4 10.17 4.86 1.94.57 4.23-.14 6-.68 1.93-.95 3.8-2.37 5.61-3.5a5.43 5.43 0 013-1.18 4.25 4.25 0 012.3 1.8c.35.46 1.12 1.1 1 1.74.52.24.65 1 1.12 1.41-2.51 2.93-6.39.62-9.49 1.23-2.82-.34-5 1.91-7.91 2.45-4.33.85-8.35-3.06-12.14.19a9.14 9.14 0 003.95 2.79c2.48 2.16 5.7 2.72 8.58 3.59 4.29.09 8.79-2 13.31-2.31-3.39 2.72-8.26 2.05-11.84 2.89-2.51 1.53-5.68-.5-7.91-.37-.29.12-.88.25-.64.77-.1 2.94 2.89 4.14 5.13 5-1 .41-1.81 1.3-2.86 1.6v.41c.24.17.53.63.94.45 1.41.7 2.35.64 3.82 1.21 1.71.58 3.81-.14 5.52-.2-.59.47-1.47.76-2.11 1.36a6.79 6.79 0 001.69 1.38 2.64 2.64 0 01.69.35h.11a.64.64 0 01.22.1h0c1.83 1.33 3.47 1.21 5.47 2.07-.18.18-.47.36-.52.65a1.73 1.73 0 00.77 2.17 13.59 13.59 0 014 1 2.72 2.72 0 01.51.13.88.88 0 01.28.06h0a7.49 7.49 0 011.06.53c3.76.78 6.94 3.29 10.59 4.55 4.69.33 8.83-3 12.39-5.88 1.29-.29 2.18 1.22 3 2 .07.46 1.18 1 .19 1.34-1.13-.69-2.52 0-3.7-.21-.7 0-.94.89-.81 1.42a8.74 8.74 0 003.16 4.77l-.77.51-1.94.4c-3.35-.22-6.76-1.49-10-2.46a13.19 13.19 0 00-2.76-1c-3.11-.16-6.57-.61-9.38.22a3 3 0 00.31 2.24c2.88 2.2 6.17 3.24 9.12 5.22 3.3 2.21 6.22-.1 9.38-.89l6.15-.15a5.35 5.35 0 012.12.28 6.41 6.41 0 005.41-1.17l1.58 1.58c-.69-.31-1.54 0-2.48 0-1.11.29-2.81.18-3.86.55-.76.41-1.76.24-2.46.72-3.52.72-6 3.32-9.66 3.58-2.58.42-5-1.32-7.51-.08.14 2.17 1.67 3.51 3.2 4.85 2.24 1.58 5.81 1.08 7.92 0l.12.05a8.83 8.83 0 012.58-1.39l-.34 1.24a11.54 11.54 0 01-9.13 5.22 8.72 8.72 0 00-1.68.56 1.2 1.2 0 00-.32.39c0 .1.07.19.1.28.46.27.73 1.1 1.39 1.31l1.06.28a7.41 7.41 0 01.8.25h0c2.11.45 4.22 0 6.21-.16-1.46 1.18-3.15 2.19-4.61 3.19l.42.89a2.71 2.71 0 002.64.27l.12.12a12.13 12.13 0 012.87-.78c-.41 1-1.52 1.47-1.92 2.53.59 1.4 2.46.92 3.7.85a14.4 14.4 0 017.38-.39 63 63 0 018.7 3 16 16 0 01-4.62.86 31.13 31.13 0 01-10.68-.58l-.24.23c.14 1.76 1.49 3.34 2.56 4.86 2.12 2.15 4.59 1.9 7.34 1.71a16.11 16.11 0 005.15-.75v.06a.25.25 0 01.12 0 4.52 4.52 0 00.64-.12v-.1a32.93 32.93 0 015.84-1.39s0 0 0 0c.33 0 .64-.15 1-.21.44-.24 1.09.22 1.53 0 2.54.93 6-.11 7.25 2.84a3 3 0 011 1.33c.08.17.14.34.2.5h0v0c.08.12.17.24.24.36a2.18 2.18 0 01.22.81L121 216c.29.24-.18.36.24.53a.33.33 0 01-.18.28c.26 0 .5.06.76.06l.23-.4a64.17 64.17 0 00-2.92-7.2 23.49 23.49 0 00-1.18-2.1c-1.32-2.7-4.07-2.51-6.36-3.13-1.29-.35-2.58 0-3.82-.38-3.63.72-7 2.44-10.94 2.7-3.46.08-7.39.69-9.29-3-.36-.88-1.13-1.58-1.19-2.52 5.52 1.19 11.62.46 16.77-.75 1.82.45 3.87-.56 5.63.09s3.71 1.72 5.71 2.36c1-.36.1-1.3 0-1.88a30 30 0 00-2.13-3.15c-3.21 1.95-8 1.16-11.42 1.53-4.64-1.72-9.47-4-14.86-2.83-1.29.18-2.87 1-3.92.07 1.28-1.17 1.79-3.05 3.78-3.06 2.75-1.19 5.69.37 8.63.29 3-.54 5.57 1.2 8.44 0l3.4-.72c1 .4 1.59 1.44 2.53 1.67l.12-.1a2.17 2.17 0 002 .28c.3-.31-.12-.7-.41-.83-2.17.48-3.36-1.49-4.54-2.73-.24-.82.64-1.29 1-1.82.29.24.53.76 1.12.46 1.4-.71 1.58.81 2.88.8a25.83 25.83 0 002.24 2.75c.12.18.29-.06.4-.13-.23-1-1.35-1.92-2-2.62a4 4 0 01.38-4.22c-.53-.53.46-1.12.76-1.47 1.16-1.07 2.69-.19 4.09-.8 0 2 .9 4.05.74 5.93-.35 1-1.51 1.7-1.74 2.88.12.06.24.28.41.18 1.11-1.25 2.57-2.43 2-4.35-.95-1.65 0-3.52-.74-5.17 2.48-6.87-2.21-16.7 4.61-22.2l1.46-1.36c.67 4.87-1.05 10.33-.84 15.44a105.78 105.78 0 00.26 14.13 7.85 7.85 0 01-3.41 7 6.33 6.33 0 00-1.69.94 11.72 11.72 0 001.3 3.17l1.6 2h0c2-1.71 2.55-4.71 2.77-7.1.09-3-.22-6 .82-8.87 1.43-4.7 5.52-8.36 6.13-13.41 1.55 3.92 3.1 8.9.37 12.72-2 4.71-1 10.8-4.53 14.93l-2.63 2.55-1.4 1.2a1.59 1.59 0 00-.46.74c.37 2.27 1.67 4.21 2.56 6.31.82.11.41-.82.82-1.17a19.59 19.59 0 003.5-11.87c.44-4.12 4.35-7.54 4.14-12.05.46-1.82 2-3.24 3.26-4.65.86 7.09 1.62 14.76-1.62 21.41-1.8 4.41-5.23 7.6-7.67 11.66 1 2.81 2.91 5.61 4.39 8.42 4.69 8.31 10.31 16.12 14.18 24.71-1 .25-2.63.78-3 2.08-7.16-9.69-13.21-19.81-19.37-29.91.29-.47.71.17.82-.53l-.41-.29c-2.81 1.54-7 1.87-9.62-.35-3.29-1.15-6.63-.31-9.92-1.4-3.06-.68-5.77-2.07-9-2.29-2.41-.86-4.83-1.9-6.48-4.3-.24-.46-.19-1.28.52-1.34 3.16-.56 5.46 1.71 8.74 1.17 3 0 6.09-1.74 9-.24l3.4.68a35.41 35.41 0 006.17 4.08c-1-.61-2-1.34-2.91-2.06a.45.45 0 01-.21-.12c-.51-.47-1-1-1.48-1.41l-.09-.07h0a4 4 0 00-.74-.46h0a8.24 8.24 0 00-4.45-1.19c-2.3-.86-5.34-.14-7.63.23-3.74 1.13-6.7-1.89-10.21-1a1.41 1.41 0 00-.75 1.42c2.14 4.12 6.72 4.88 11 6a7.12 7.12 0 011.88.56c.39.12.8.24 1.18.38h0c.63.18 1.27.35 1.91.51a.44.44 0 01.31.23 40.32 40.32 0 006.69.82c3.28-.37 5.19 3.2 8.58 2.05.88.11 2.1-.59 3.16-.66.64 1.23 1.31 2.46 2 3.69a5 5 0 01.88 1.21c2.8 4.2 5.26 8.52 8.06 12.72h0a13.74 13.74 0 012.18 3.41 59.08 59.08 0 013.45 5.23c1.24 2.11 3.19 3.91 4.09 6.14.29.12.29-.24.4-.36 1.78 2.57 4.55 3.73 7 5 1.12-.96-.35-2.54-.69-3.78zM35 77.72a3.3 3.3 0 01.28 1.68.41.41 0 01-.08.25v0a.57.57 0 010 .18c0 1.91-.38 3.38-.52 5.38-.94-1-1.12-2.51-2-3.68a6.78 6.78 0 01.16-3 1.85 1.85 0 01.43-1.22 19.67 19.67 0 01.95-2c.24.84.58 1.57.78 2.41zm36.76 52.83h0c.12.56.24 1.17.37 1.87a26 26 0 01.54 2.63c-.34-.67-1.17-1.15-1.59-1.75h0a3.25 3.25 0 01-.76-.9h-.06a25.66 25.66 0 01-2.26-2.57c0-2.87 1-5.4 1.65-7.93l.4-1.71a53.2 53.2 0 001.72 10.36zm6 10.3l-1.53-1.41c.93-1.64 0-3.62.43-5.45.34-2.87 1.31-5.51 1.53-8.45.81 4.8.91 10.73-.47 15.31zm9 8c-.35.94 0 1.83-.75 2.53-1.06-1.34-2.48-2.51-3.07-4.08.28-.31 0-.89.39-1.36a3 3 0 012.34-1.83c.28-.16.53 0 .75.21h0l1 .63a9.18 9.18 0 01-.67 3.93zm-19 3.42a1.57 1.57 0 01.48-.33 2.44 2.44 0 01.48-.15 8.11 8.11 0 001.72-1.13c2.1-2.07 5.92-1.1 8.15-.87a2.18 2.18 0 01.87.44l.17.47a6.56 6.56 0 00-3.43 1c-2 1.19-.51 2.94-.44 4.52-1.17-.27-2.76-.09-4.23-.56a49.15 49.15 0 00-5.16-.84s0 0 0 0c-.22 0-.46-.06-.73-.07h-.11a18.1 18.1 0 01-2.24-.38 30.78 30.78 0 014.48-2.07zm-2.55-14.39a.31.31 0 010-.1.61.61 0 010-.12 1 1 0 010-.29h0v0a6 6 0 01.31-1v0a1.71 1.71 0 00.08-.63c.34-.06.41.24.62.43a.48.48 0 01.16.13 2.06 2.06 0 01.26.25 7.23 7.23 0 011.74 1.8l-.41.36c-.83.53-1.74 0-2.53 0l-.94.11a10 10 0 01.72-.91zm-25.71 6.56a3.56 3.56 0 01-1.72-2.92c2.23-.42 4 1.09 6.34.66A19.89 19.89 0 0150 141c-2.75 1.38-4.84 3.5-7.59 5.34-.03-.99-2.08-.91-2.91-1.9zm15 3.42c-.17.13-.34.28-.5.42.06 0 1-.52 1.2-.89a21.1 21.1 0 012.8-1.56 51.1 51.1 0 007.07-.5c2.16-1.19 4.57-1.84 6.73-3.09l1.59 1.86c-5.16 0-8.71 3.45-13.4 4.78a17.4 17.4 0 01-6.51.45 7.64 7.64 0 01-2.22.31 8.68 8.68 0 003.28-1.78zm41 32.47a16.36 16.36 0 005.62-1.45l.72 1.4c-1.64.42-3.7-.1-5.16.85-1.82 0-3.51 1.55-5.38 2 .46-.83 1.28-1.65 1.27-2.53.83-.38 2.07-.04 3-.27zM76 190c-.94-.52-2.4-.56-3.06-1.92.64-.47 1.4-.42 2.11-.71 3.57-.42 7.55-2.27 9-5.78h0l.48-.95a55.63 55.63 0 007.63 0c-.8 2.87-3.54 4.65-5.88 6.25-2.5 3.11-6.65 3.44-10.28 3.11zm36.07 8.4a13.58 13.58 0 012 3.38 9.92 9.92 0 01-3.53-1.68c-.82-.17-1.59-.52-2.41-.62 1.17-.13 2.75-1.19 3.92-1.13zm-5.92 1.09a4.12 4.12 0 01-1.87.13c.51-.41 1.21-.07 1.85-.18zm-2.93 0c-.29.41-.82 0-1.29.24.27-.44.86-.15 1.27-.27zm2.18-8.05c.12.28.53.52.53.87-2.41 0-5.14 1.49-7.71.82a.38.38 0 01-.3 0 3.35 3.35 0 00-1-.2.65.65 0 01-.21 0c-2.75.38-4.85-.74-7.51-.61.58-.41 1.52-.42 2.1-1.07a56.67 56.67 0 006.78-3.86c.82-.35 1.58-1.36 2.63-1.6 1.34-.76 2.28-1.47 3.87-1.07.39.48.86.73 1.24 1.14a2.64 2.64 0 011.1 1 1.6 1.6 0 01.67 1.34c-.88.8-2.87 1.63-2.21 3.21zm11-7.88c-1.93.08-3.69.14-4.74 1.62-.29-.17-.29-.88-.76-.94-.54-.75-.89-1.63-1.49-2.4.71-.47-.36-.75-.24-1.28a11.38 11.38 0 005-2.66 15 15 0 003.43-3.73c.07 3.44.61 6.43-1.19 9.36zm5.39 16.86c0 .55-.53.93-.83 1.33l-1.11-1.42h0a18.1 18.1 0 00-1.13-2.39c1.7-1 3.57-2.2 4.26-4.26a18.19 18.19 0 01-1.18 6.71zm6.3.8a6 6 0 01-.24 1.51c-.07.26-.13.52-.22.78-.31 2.51-1.9 4.79-3 7.12-.47-1-1.13-2.19-1.64-3.46h0l-.06-.16v0a2.89 2.89 0 01-.21-1h0c0-.17-.11-.34-.15-.5a1.6 1.6 0 01.21-.32l1.43-1.24c.44-.45 1-.82 1.22-1.22l.11.11a15 15 0 002.5-3.18 3 3 0 01.06 1.52.29.29 0 010 .01zM143.24 251c-.35-.7.28-1.46.93-1.71s1.11-.65 1.81-.3h0c.24.41.31.89.72 1.23.87-.71.83.82 1.47 1a18.69 18.69 0 012.62 5.68c-2.79-1.54-5.89-3.17-7.55-5.9z" stroke="#000" stroke-linejoin="round" stroke-width=".5"/></svg>