<svg xmlns="http://www.w3.org/2000/svg" width="600" height="400" viewBox="0 0 600 400"><title>flag-wyoming-thumb</title><rect width="600" height="400" fill="#bf0a30"/><rect x="30" y="30" width="540" height="340" fill="#fff"/><rect x="45" y="45" width="510" height="310" fill="#002868"/><path d="M201.32,230.14c-2-9.94-8.28-18.22-10.27-18.88s-5.63-1.66-5.63-1.66a4.86,4.86,0,0,0,1.32-5.63c-1.32-3.64-7.28-13.57-7.61-19.2s1.32-12.92,0-17.55-6.29-8.61-6.63-17.23,13.91-20.53,22.19-20.86,15.9,2.65,20.53,2.32,10.27-6.29,13.91-7.62,5.3.67,7.62-.33,21.19-16.56,40.07-16.56,33.12,7,37.42,7,12.26-2,18.22,0,13.24,10.93,21.85,13.24,58.29,11.26,63.92,20.21,9.27,21.85,9.27,28.14-1.66,23.19-1.66,26.5,1.66,7.61,1,11.92-2.65,6-2.65,6-1.33-7.29-1.66-11.59,2.65-16.23,2.32-23.18-3.31-15.57-3.31-15.57-2,9.94-3.64,16.23-6.63,24.18-6.63,34.44,3,25.17,3,25.17-8.28,14.24-8.94,19.87-2,18.88-1.65,20.53-2-.66-2.65,1.33a12.28,12.28,0,0,0-.33,4.63l-7.62-.66a16.76,16.76,0,0,1,1.65-5.63c1.33-2.32,3.32-4,3-6.95s.33-15.9.33-15.9-5.63,9.6-7.29,13.25-1.66,8.28-2.32,9.93-2,1.66-2.65,3.64-1.65,2-1.65,2l-6,.33s11.59-28.48,12.25-35.76-7.29-22.19-8.94-27.16-1.66-8.94-3.31-10.93-7.29-4.3-9.28-3.31S356,225.83,353.65,228.81a114.26,114.26,0,0,1-8.28,8.61s-13.25-7.28-20.2-8.94-24.17-3-24.17-3,1.32,25.5.66,29.47-4,5.3-4,8v8.28c0,2-5.29,2.65-6.62,4.31s0,3-1.65,5.29-4,1.66-5,3-.33,9.28-.33,9.28l-13.25-.33s5.3-10.93,5-17.22S270.2,259.94,269.2,255s-4-12.58-7.94-12.58a15.79,15.79,0,0,0-7.29,2s1-16.56-4.64-23.52-19.2-6.29-23.51-5.29-8.94,7.28-10.6,7.94-3,0-5.62,1-6,3.64-8.28,5.63Z" fill="#fff" fill-rule="evenodd"/><path d="M261.52,128c0-2.73,2.35-2,4.61-3a25.7,25.7,0,0,0,4.23-2.54l.1,7.05H261.8l-.28-1.5Z" fill="#fff" stroke="#002868" stroke-linejoin="bevel" stroke-width="0.6" fill-rule="evenodd"/><path d="M298.86,134.76c-2.35,1.41-2.91.1-4.42-1.32s-6-4.7-6-4.7l12,2-1.6,4Z" fill="#fff" stroke="#002868" stroke-width="0.6" fill-rule="evenodd"/><path d="M261.53,127.57c-.29,2.71-.1,4.67,1.3,6s2.54.84,3.58.66,13.64-5.27,17.5-5.27,9.12.19,12,2.91c1.31,1.23,2.63,2.17,2.44,2.92s4.71-2.63,4.61-4.8-6.86-6.49-14.11-7.52S272,127.24,265,127.8c-2.51.24-3.47.61-3.47-.23Z" fill="#fff" stroke="#002868" stroke-linejoin="bevel" stroke-width="0.6" fill-rule="evenodd"/><path d="M298.65,130.64a.64.64,0,0,0,.18.94c.22.18.58.35.8.07s0-.49-.14-.7a2.91,2.91,0,0,1-.5-.72.7.7,0,0,1,.67-.83,1.2,1.2,0,0,1,1.09.84.73.73,0,0,1-.17.67l-.26-.2a.68.68,0,0,0,.11-.33.82.82,0,0,0-.73-.68.37.37,0,0,0-.35.47,3.92,3.92,0,0,0,.51.7.7.7,0,0,1,.08.95c-.37.46-.92.3-1.32,0a.91.91,0,0,1-.23-1.35l.26.2Z" fill="#002868" fill-rule="evenodd"/><polygon points="298.94 128.66 298.76 128.91 298.05 128.4 296.72 130.27 296.43 130.06 297.76 128.2 297.04 127.69 297.22 127.44 298.94 128.66" fill="#002868" fill-rule="evenodd"/><polygon points="294.11 126.08 294.43 126.23 293.98 127.21 295.21 127.77 295.66 126.79 295.98 126.94 294.9 129.31 294.58 129.16 295.08 128.05 293.85 127.49 293.35 128.59 293.02 128.45 294.11 126.08" fill="#002868" fill-rule="evenodd"/><path d="M291.46,125.42a1.38,1.38,0,0,1,.58.29,1,1,0,0,1,.29.81l-.34-.09a.67.67,0,0,0-.15-.46.89.89,0,0,0-.46-.25.78.78,0,0,0-.66.11,1.16,1.16,0,0,0-.44.72,1.28,1.28,0,0,0,0,.78.76.76,0,0,0,.57.45.8.8,0,0,0,.61-.06.78.78,0,0,0,.39-.58l-.78-.2.07-.28,1.1.28-.34,1.35-.22-.06v-.34a1.36,1.36,0,0,1-.37.18,1.16,1.16,0,0,1-.61,0,1.1,1.1,0,0,1-.69-.48,1.38,1.38,0,0,1-.1-1.09,1.5,1.5,0,0,1,.6-.92A1.12,1.12,0,0,1,291.46,125.42Z" fill="#002868" fill-rule="evenodd"/><polygon points="288.61 124.97 288.96 125.01 288.7 127.59 288.34 127.56 288.61 124.97" fill="#002868" fill-rule="evenodd"/><path d="M286.61,126a.65.65,0,0,0,.39-.07.42.42,0,0,0,.17-.35.38.38,0,0,0-.18-.39.59.59,0,0,0-.29-.07l-.86,0,0,.89.81,0m-1.1-1.25,1.2.07a1.06,1.06,0,0,1,.48.11.62.62,0,0,1,.34.63.71.71,0,0,1-.12.38.69.69,0,0,1-.28.22.47.47,0,0,1,.29.51V127a1.28,1.28,0,0,0,0,.22.24.24,0,0,0,.11.17v0l-.43,0a.2.2,0,0,1,0-.09.93.93,0,0,1,0-.2v-.44a.34.34,0,0,0-.17-.35.73.73,0,0,0-.31-.06l-.8,0-.06,1.12-.35,0,.14-2.6Z" fill="#002868" fill-rule="evenodd"/><polygon points="275.46 126.52 275.8 126.44 276.28 128.69 277.57 128.41 277.63 128.71 276 129.06 275.46 126.52" fill="#002868" fill-rule="evenodd"/><path d="M273.91,128.66l-.68-1-.1,1.22.78-.22m-1-1.33.39-.1,1.59,2.26-.37.1-.46-.68-1,.27L273,130l-.35.1.26-2.77Z" fill="#002868" fill-rule="evenodd"/><path d="M269.71,128.55l.33,1.58a.94.94,0,0,0,.2.44.56.56,0,0,0,.57.17.65.65,0,0,0,.54-.43,1,1,0,0,0,0-.45l-.33-1.58.35-.07.3,1.43a1.78,1.78,0,0,1,0,.75.93.93,0,0,1-.79.64.9.9,0,0,1-1-.28,1.6,1.6,0,0,1-.27-.69l-.3-1.43.35-.08Z" fill="#002868" fill-rule="evenodd"/><polygon points="263.43 130.58 265.23 130 265.33 130.3 263.85 130.78 264.1 131.53 265.46 131.09 265.55 131.38 264.19 131.82 264.46 132.66 265.96 132.17 266.06 132.47 264.23 133.06 263.43 130.58" fill="#002868" fill-rule="evenodd"/><path d="M269.16,131.47l-.12.25-.46-.19a1.41,1.41,0,0,1-.62.34,1.16,1.16,0,0,1-1-.14,1.46,1.46,0,0,1-.53-.86,1.5,1.5,0,0,1,0-.94,1.17,1.17,0,0,1,.84-.72,1.21,1.21,0,0,1,1.1.17,1.68,1.68,0,0,1,.38,1.91l.41.18m-1,0a.3.3,0,0,0,.14-.1l-.33-.14.12-.26.39.17a1.3,1.3,0,0,0,.06-.89,1.09,1.09,0,0,0-.42-.65.83.83,0,0,0-.71-.11.9.9,0,0,0-.58.43,1.23,1.23,0,0,0,0,.86,1.12,1.12,0,0,0,.42.66,1,1,0,0,0,.94,0Z" fill="#002868" fill-rule="evenodd"/><path d="M295.35,192.71a21,21,0,0,1-2.77-2.63c-.56-.84-2.09-3.48-2.09-3.48l3.89-4s2.92,3.61,2.92,4.3a56.4,56.4,0,0,1-1.95,5.83Z" fill="#fff" stroke="#002868" stroke-width="0.6" fill-rule="evenodd"/><path d="M295.91,173.13s-4.86-4-5.28-5a22.58,22.58,0,0,1-.55-4.44l2.36-.56a14.52,14.52,0,0,0,2.22,1.53,8.78,8.78,0,0,0,3.06.84l-1.81,7.63Z" fill="#fff" stroke="#002868" stroke-width="0.6" fill-rule="evenodd"/><path d="M299.28,138.29s-.07-1.6-.1-2.33-1.05-1.66-1.05-1.66-1.21,1.18-1.28,1.63-.09,2.64-.09,2.64l2.52-.28Z" fill="#fff" stroke="#002868" stroke-width="0.6" fill-rule="evenodd"/><polygon points="301.16 194.43 300.29 147.66 295.27 147.84 294.57 194.78 301.16 194.43" fill="#fff" stroke="#002868" stroke-width="0.6" fill-rule="evenodd"/><path d="M296.26,194.88l.44-48.73m-.44,48.73Z" fill="none" stroke="#002868" stroke-width="0.6"/><path d="M295.37,194.88l.09-48.73m-.09,48.73Z" fill="none" stroke="#002868" stroke-width="0.6"/><path d="M298.92,195.14l.36-49.17m-.36,49.17Z" fill="none" stroke="#002868" stroke-width="0.6"/><path d="M297.59,195.06c-.09-.45.36-49.18.36-49.18m-.36,49.18Z" fill="none" stroke="#002868" stroke-width="0.6"/><path d="M300.43,195.23l.09-49.35m-.09,49.35Z" fill="none" stroke="#002868" stroke-width="0.6"/><polygon points="302.2 197.89 302.2 194.95 301.33 194.26 295.09 194.26 293.54 195.12 293.88 198.24 302.2 197.89" fill="#fff" stroke="#002868" stroke-width="0.6" fill-rule="evenodd"/><polygon points="300.97 140.77 300.04 139.31 301.89 137.68 294.4 137.55 296.03 139.31 295.29 140.74 300.97 140.77" fill="#fff" stroke="#002868" stroke-width="0.6" fill-rule="evenodd"/><path d="M300.34,145.39,299,144s3-2.87,3.44-2.87.67.67,1.11.64.71-.23.71-.7-.45-.7-1.12-.67l-9.81-.13c-.71,0-.93.45-.9.8a.91.91,0,0,0,.93.67c.41,0,.54-.71,1-.67s2.35,2.67,2.35,2.86l-1.59,1.53,5.27,0Z" fill="#fff" stroke="#002868" stroke-width="0.6" fill-rule="evenodd"/><path d="M301.49,146.89c1.36,1.52,2.27,2.48,2.2,4.86s-3.42,6.29-6,8.58-7.11,4-7.11,6,.4,2.23.89,2.87A6.64,6.64,0,0,1,289,164c0-3.34,2.77-6.95,6-8.89s7.08-4.58,7.08-6a4,4,0,0,0-.53-2.22Z" fill="#fff" stroke="#002868" stroke-width="0.6" fill-rule="evenodd"/><path d="M300.81,167.85c.05,1.37,0,2.51.1,3.62.12,1.31-4,4-5.69,5.69s-5.84,3.47-6.11,6,2.18,4.83,2.76,5.78c-.63-1.32.8-2.86,2.45-4.2,1.45-1.17,4.58-2.91,6.17-4.63s3.34-4.45,3.34-7.09-1.77-4.72-3-5.14Z" fill="#fff" stroke="#002868" stroke-width="0.6" fill-rule="evenodd"/><polygon points="302.03 146.49 300.28 147.78 295.2 147.94 293.51 146.54 295.2 145.39 300.34 145.39 302.03 146.49" fill="#fff" stroke="#002868" stroke-width="0.6" fill-rule="evenodd"/><path d="M277.5,134c-3.59.57-4.45,5.17-4.45,5.17s1.58.29,1.58,1.72.14,3.16.14,3.16l3.16-3.45-.43-6.6Z" fill="#fff" stroke="#002868" stroke-width="0.6" fill-rule="evenodd"/><path d="M273.34,139a9,9,0,0,0-1.87,2.88s-1.72-3.88-1.29-4.74,1.58-1.87,1.44-2.73-.87-1-1.73-.86-.86,5-.86,6.32.29,3.58,1,4.45,1.29,2.15,2,2.29,2.72-2.87,2.72-2.87.29-2.87-.14-3.59A3.66,3.66,0,0,0,273.34,139Z" fill="#fff" stroke="#002868" stroke-width="0.6" fill-rule="evenodd"/><path d="M286.69,135.31c4.74,2.73,4.16,6.46,4,7.75a8.3,8.3,0,0,0,0,2.16,30.06,30.06,0,0,1,2.87,3.3c.86,1.29,3.3,5,3.3,5l-.86.86a36.88,36.88,0,0,1-5-4.3c-1.43-1.72-7.75-12.06-7.75-12.06l3.45-2.73Z" fill="#fff" stroke="#002868" stroke-width="0.6" fill-rule="evenodd"/><path d="M274.77,183l-3.58-50.56M274.77,183Z" fill="none" stroke="#002868" stroke-width="0.6"/><path d="M287.22,182.15H274.79c0-.35,1.69-42,1.69-44.31s-.34-4.06.15-4.6,4.84-.39,5.82,0,4,1.32,4.2,1.86-.58,3.77-.58,4.89,1.27,4.16,1.17,5.72,1.28,17.68,1.28,18.76c0,1.33-1.09-.68-1.59-.05s1.73,17.09.29,17.74Z" fill="#fff" stroke="#002868" stroke-width="0.6" fill-rule="evenodd"/><path d="M280.05,129.52s-.14,3.08-.14,3.91a3.42,3.42,0,0,0,2.24,2.39c.88.15,1.81-.83,1.72-2.2s-.54-1.17-.54-2.78a12.39,12.39,0,0,0-.3-2.79l-3,1.47Z" fill="#fff" stroke="#002868" stroke-width="0.6" fill-rule="evenodd"/><path d="M279.42,125.85a14.53,14.53,0,0,0-.05,4.16c.14.53.14,2,1,2.15s2.35-1.76,2.79-2.59a7.91,7.91,0,0,0,.64-1.86l-2.35-3.43Z" fill="#fff" stroke="#002868" stroke-width="0.6" fill-rule="evenodd"/><path d="M279.51,130.74l1.32-.1m-1.32.1Z" fill="#fff" stroke="#002868" stroke-width="0.6" fill-rule="evenodd"/><path d="M280.88,127.76h1m-1,0Z" fill="#fff" stroke="#002868" stroke-width="0.6" fill-rule="evenodd"/><path d="M279.17,125.9a2,2,0,0,1,1.81-2.69c1.66.05,3.47,2.44,3.47,3.67s-.34,2.34-.63,2.34-1.67-3.86-2.79-3.91S280,126,279.17,125.9Z" fill="#fff" stroke="#002868" stroke-width="0.6" fill-rule="evenodd"/><path d="M282.35,140.27c-2.49,4.9-4.4,6.61-5.28,6.66a14.43,14.43,0,0,1-2-.1l.5,10.15,7.14.18m-.35-16.89Z" fill="#fff" stroke="#002868" stroke-width="0.6" fill-rule="evenodd"/><path d="M284.5,140.42a27.19,27.19,0,0,1-10,14.77l.93,15.08,7.41-7.35m1.63-22.5Z" fill="#fff" stroke="#002868" stroke-width="0.6" fill-rule="evenodd"/><path d="M283.28,147.71c-2,15.65-8.9,13.15-8.9,13.15l.38,13.87c5.76-1.38,6.19-6,6.19-6a3.74,3.74,0,0,0,3.44-.86c1.44-1.44.15-6.17.58-8.33a37.94,37.94,0,0,0,.57-4.45m-2.26-7.41Z" fill="#fff" stroke="#002868" stroke-width="0.6" fill-rule="evenodd"/><path d="M285,148.81c-.58,2.44-1.15,7.6-1.15,7.6m1.15-7.6Z" fill="none" stroke="#002868" stroke-width="0.6"/><path d="M276.93,156.7c2.44-1.15,5.45-8.9,5.45-8.9m-5.45,8.9Z" fill="none" stroke="#002868" stroke-width="0.6"/><path d="M283.1,162.44a12.14,12.14,0,0,0,.14,3.74m-.14-3.74Z" fill="none" stroke="#002868" stroke-width="0.6"/><path d="M283.24,172.78c.15-3.59-.29-4-.29-4m.29,4Z" fill="none" stroke="#002868" stroke-width="0.6"/><path d="M284.25,138.61a10.82,10.82,0,0,0,1-4m-1,4Z" fill="none" stroke="#002868" stroke-width="0.6"/><path d="M287.41,164.31A19.41,19.41,0,0,1,285,163m2.44,1.29Z" fill="none" stroke="#002868" stroke-width="0.6"/><path d="M267.22,193A21.21,21.21,0,0,0,270,190.4c.56-.83,2.08-3.47,2.08-3.47l-3.88-4s-2.92,3.61-2.92,4.31a57.44,57.44,0,0,0,1.94,5.83Z" fill="#fff" stroke="#002868" stroke-width="0.6" fill-rule="evenodd"/><path d="M266.67,173.46s4.86-4,5.28-5a22.58,22.58,0,0,0,.55-4.44l-2.36-.56a15.39,15.39,0,0,1-2.22,1.53,8.91,8.91,0,0,1-3.06.83l1.81,7.64Z" fill="#fff" stroke="#002868" stroke-width="0.6" fill-rule="evenodd"/><path d="M263.3,138.61s.07-1.59.1-2.32,1.05-1.66,1.05-1.66,1.21,1.18,1.27,1.62.1,2.65.1,2.65Z" fill="#fff" stroke="#002868" stroke-width="0.6" fill-rule="evenodd"/><polygon points="261.42 194.75 262.29 147.99 267.31 148.16 268 195.1 261.42 194.75" fill="#fff" stroke="#002868" stroke-width="0.6" fill-rule="evenodd"/><path d="M266.32,195.2l-.44-48.73m.44,48.73Z" fill="none" stroke="#002868" stroke-width="0.6"/><path d="M267.21,195.2l-.09-48.73m.09,48.73Z" fill="none" stroke="#002868" stroke-width="0.6"/><path d="M263.66,195.47l-.36-49.18m.36,49.18Z" fill="none" stroke="#002868" stroke-width="0.6"/><path d="M265,195.38c.09-.44-.36-49.17-.36-49.17m.36,49.17Z" fill="none" stroke="#002868" stroke-width="0.6"/><path d="M262.15,195.56l-.09-49.35m.09,49.35Z" fill="none" stroke="#002868" stroke-width="0.6"/><polygon points="260.38 198.22 260.38 195.27 261.25 194.58 267.48 194.58 269.04 195.45 268.7 198.56 260.38 198.22" fill="#fff" stroke="#002868" stroke-width="0.6" fill-rule="evenodd"/><polygon points="261.61 141.1 262.54 139.63 260.69 138.01 268.18 137.88 266.55 139.63 267.29 141.07 261.61 141.1" fill="#fff" stroke="#002868" stroke-width="0.6" fill-rule="evenodd"/><path d="M262.25,145.62l1.37-1.34s-3-2.86-3.44-2.86-.67.67-1.11.63-.71-.22-.71-.7.45-.7,1.12-.67l9.81-.12c.71,0,.93.44.9.79a.91.91,0,0,1-.93.67c-.41,0-.54-.7-1-.67s-2.36,2.68-2.36,2.87l1.59,1.53-5.26-.13Z" fill="#fff" stroke="#002868" stroke-width="0.6" fill-rule="evenodd"/><path d="M261.18,147.29c-1.36,1.66-2.32,2.43-2.29,4.78,0,2.5,3.41,6.3,6,8.59s7.11,4,7.11,6-.4,2.23-.89,2.86a6.62,6.62,0,0,0,2.54-5.23c0-3.33-2.78-6.94-6-8.88s-7.08-4.59-7.08-6a3.88,3.88,0,0,1,.62-2.14Z" fill="#fff" stroke="#002868" stroke-width="0.6" fill-rule="evenodd"/><path d="M261.77,168.18c0,1.36,0,2.5-.1,3.61-.12,1.31,4,4,5.69,5.7s5.84,3.47,6.11,6-2.18,4.82-2.76,5.77c.63-1.32-.8-2.86-2.45-4.19-1.45-1.18-4.58-2.91-6.17-4.64s-3.34-4.44-3.34-7.08,1.77-4.73,3-5.14Z" fill="#fff" stroke="#002868" stroke-width="0.6" fill-rule="evenodd"/><polygon points="260.55 146.82 262.3 148.11 267.38 148.27 269.07 146.87 267.38 145.72 262.24 145.72 260.55 146.82" fill="#fff" stroke="#002868" stroke-width="0.6" fill-rule="evenodd"/><path d="M272,162l.2.18-.64.72,1.36-.08.27.24-1.14.05-.15,1.44-.26-.23.14-1.2-.44,0-.45.52-.2-.18L272,162m-.81-.79a.85.85,0,0,1,.3.53.66.66,0,0,1-.13.49l-.19-.17a.6.6,0,0,0,.07-.34.55.55,0,0,0-.21-.33.6.6,0,0,0-.49-.16.93.93,0,0,0-.55.35,1,1,0,0,0-.25.53.57.57,0,0,0,.22.48.53.53,0,0,0,.49.13.88.88,0,0,0,.3-.16l.19.18a.87.87,0,0,1-.52.24.9.9,0,0,1-.93-.77,1.08,1.08,0,0,1,.33-.85,1.13,1.13,0,0,1,.65-.38.87.87,0,0,1,.72.23m-.05,0h0m-1.54-1.37a.87.87,0,0,1,.35.76,1,1,0,0,1-.29.63,1.17,1.17,0,0,1-.66.4.86.86,0,0,1-.79-.24.89.89,0,0,1-.34-.7,1.18,1.18,0,0,1,.32-.7,1.09,1.09,0,0,1,.6-.38.84.84,0,0,1,.81.23m-1.21,1.4a.59.59,0,0,0,.55.15,1.07,1.07,0,0,0,.51-.34.81.81,0,0,0,.23-.54.6.6,0,0,0-.23-.49.65.65,0,0,0-.51-.17.88.88,0,0,0-.56.34,1,1,0,0,0-.24.52.64.64,0,0,0,.25.53m1.21-1.4h0m-.86-.69-.16.17-.49-.44-1.16,1.31-.2-.18,1.15-1.31-.5-.44.16-.17,1.2,1.06m-3.18-1a.47.47,0,0,0,.1.72,1.58,1.58,0,0,0,.24.15.3.3,0,0,0,.37-.07.24.24,0,0,0,.08-.24.89.89,0,0,0-.16-.3l-.16-.22a1,1,0,0,1-.19-.34.4.4,0,0,1,.1-.4.54.54,0,0,1,.43-.21.75.75,0,0,1,.5.22.88.88,0,0,1,.3.46.53.53,0,0,1-.16.5l-.18-.16a.55.55,0,0,0,.09-.24.48.48,0,0,0-.21-.39.41.41,0,0,0-.32-.15.29.29,0,0,0-.23.1.23.23,0,0,0-.05.24,1.9,1.9,0,0,0,.2.32l.16.23a.84.84,0,0,1,.15.3.45.45,0,0,1-.12.42.51.51,0,0,1-.49.2,1.15,1.15,0,0,1-.51-.27.82.82,0,0,1-.31-.52.61.61,0,0,1,.19-.51l.18.16m1.33-.68h0M265,155.76l1.07,1-.16.18-.88-.78-.4.45.82.72-.15.17-.82-.72-.44.5.9.8-.16.17-1.09-1,1.31-1.47m.54.48h0m-1.83-1.62-.69,1.64,1.54-.89.22.2-1.85,1-.21-.19.77-2,.22.2m-.64-.57.2.18-1.31,1.48-.2-.18,1.31-1.48m.1.09h0M261.86,153l.2.18-1.15,1.3.75.66-.16.18-.94-.84,1.3-1.48Z" fill="#002868" fill-rule="evenodd"/><path d="M268.12,180.3l.24.21-.31,1.85,1.06-1.19.19.17L268,182.81l-.23-.19.31-1.87L267,181.94l-.2-.16,1.31-1.48m.58.5h0m-1.1-1,.2.18-1.31,1.48-.2-.18,1.31-1.48m.1.09h0m-1.55.19.36-.85-.82.44.46.41m.45-1.17.22.21-.77,1.95-.22-.2.24-.57-.58-.52-.55.3-.21-.18,1.87-1m.1.1h0m-1.91-.49a.5.5,0,0,0,.27.14.3.3,0,0,0,.26-.13.31.31,0,0,0,.08-.32.66.66,0,0,0-.14-.17l-.49-.44-.45.51.47.41m-.07-1.27.69.61a.86.86,0,0,1,.23.3.47.47,0,0,1-.1.53.49.49,0,0,1-.25.17.61.61,0,0,1-.27,0,.41.41,0,0,1,.05.21.56.56,0,0,1-.12.23l-.17.2a1,1,0,0,0-.09.14.17.17,0,0,0,0,.15l0,0-.25-.22,0-.06.1-.13.2-.25a.3.3,0,0,0,.07-.29.64.64,0,0,0-.16-.19l-.46-.4-.56.63-.2-.18,1.31-1.48m-.94-.89a.91.91,0,0,1,.29.4.69.69,0,0,1-.09.64l-.19-.18a.43.43,0,0,0,0-.36.62.62,0,0,0-.22-.33.58.58,0,0,0-.48-.15.91.91,0,0,0-.55.33,1,1,0,0,0-.26.53.58.58,0,0,0,.23.5.63.63,0,0,0,.43.18.65.65,0,0,0,.47-.26l-.46-.41.15-.16.65.57-.7.79-.13-.11.12-.23a1.06,1.06,0,0,1-.32,0,.89.89,0,0,1-.4-.22.85.85,0,0,1-.3-.57,1.26,1.26,0,0,1,1-1.18.84.84,0,0,1,.68.23m0,0Z" fill="#002868" fill-rule="evenodd"/><path d="M298,156.53a.59.59,0,0,0,.25.18.55.55,0,0,0,.52-.14.86.86,0,0,0,.21-.22.33.33,0,0,0,0-.41.3.3,0,0,0-.24-.13,1.08,1.08,0,0,0-.34.11l-.27.12a1.16,1.16,0,0,1-.41.13.42.42,0,0,1-.4-.19.59.59,0,0,1-.12-.49.8.8,0,0,1,.33-.49,1,1,0,0,1,.55-.21.6.6,0,0,1,.5.26l-.22.17a.6.6,0,0,0-.23-.16.59.59,0,0,0-.46.14.53.53,0,0,0-.22.31.32.32,0,0,0,.06.27.25.25,0,0,0,.24.1,2.12,2.12,0,0,0,.38-.14l.28-.13a1.13,1.13,0,0,1,.34-.1.6.6,0,0,1,.53.78,1.1,1.1,0,0,1-.38.48.89.89,0,0,1-.62.22.72.72,0,0,1-.51-.3l.22-.16m-.45-1.55h0m-2.12,1.7,1.23-.94.16.2-1,.77.39.52.94-.72.15.2-.94.71.44.57,1-.78.16.2-1.25,1-1.29-1.68m.63-.48h0M293.76,158l.27-.21,1.9.72-1-1.37.21-.16,1.29,1.69-.25.19-1.91-.7,1,1.36-.22.17L293.76,158m.66-.5h0m-1.26,1,.23-.18,1.29,1.69-.23.18-1.29-1.69m.12-.09h0M291.13,160l.33-.25,1.57,1-.6-1.79.32-.25,1.29,1.69-.22.17-.76-1-.13-.17-.19-.26.61,1.79-.23.17-1.57-1,0,0,.14.19.15.18.76,1-.22.17L291.13,160Z" fill="#002868" fill-rule="evenodd"/><path d="M293.55,180.25l.23-.17,1.13,1.48.86-.65.15.2-1.08.83-1.29-1.69m-.6.46.23-.18,1.29,1.69-.23.18L293,180.71m.11-.09h0m-1.3.92a1,1,0,0,1,.88-.22,1.24,1.24,0,0,1,.61.45,1.26,1.26,0,0,1,.28.77,1.06,1.06,0,0,1-1.22,1,1.21,1.21,0,0,1-.68-.48,1.18,1.18,0,0,1-.28-.71.94.94,0,0,1,.41-.81M293,183.1a.59.59,0,0,0,.27-.55,1.13,1.13,0,0,0-.25-.6.86.86,0,0,0-.52-.36.67.67,0,0,0-.56.15.67.67,0,0,0-.29.5,1,1,0,0,0,.24.66,1,1,0,0,0,.5.36.65.65,0,0,0,.61-.16m-1.22-1.56Z" fill="#002868" fill-rule="evenodd"/><path d="M242.44,197.2l79.41.12-8.47,12.47s-32.12,11.76-33.53,11.53-33.76-11.77-33.76-11.77l-3.65-12.35Z" fill="#fff" stroke="#002868" stroke-width="0.6" fill-rule="evenodd"/><polygon points="272.44 184.26 272.44 202.03 274.2 201.56 274.2 184.03 272.44 184.26" fill="#fff" stroke="#002868" stroke-width="0.6" fill-rule="evenodd"/><polygon points="288.44 184.03 288.79 202.03 290.55 202.03 290.32 184.03 288.44 184.03" fill="#fff" stroke="#002868" stroke-width="0.6" fill-rule="evenodd"/><polygon points="270.79 201.67 270.91 204.73 291.73 204.73 291.61 201.67 270.79 201.67" fill="#fff" stroke="#002868" stroke-width="0.6" fill-rule="evenodd"/><polygon points="269.73 203.44 269.73 206.26 292.55 206.38 292.44 203.44 269.73 203.44" fill="#fff" stroke="#002868" stroke-width="0.6" fill-rule="evenodd"/><polygon points="298.05 211.16 298.05 216.24 294.21 215.89 294.26 209.83 298.05 211.16" fill="#fff" stroke="#002868" stroke-width="0.6" fill-rule="evenodd"/><polygon points="267.9 210.23 267.75 215.6 264.35 213.82 264.74 210.52 267.9 210.23" fill="#fff" stroke="#002868" stroke-width="0.6" fill-rule="evenodd"/><path d="M264.5,212.49c-.2-2.61.79-3.94,1.57-3.94s28.44-.1,30,0a2.27,2.27,0,0,1,2,2.47v2.8s-.16-1.52-3.41-1.71-1.27.68-13.63.58-12.08-.58-13.95-.73-2.36,0-2.56.53Z" fill="#fff" stroke="#002868" stroke-width="0.6" fill-rule="evenodd"/><path d="M294.34,209.15a.71.71,0,0,1,.67.38,1.71,1.71,0,0,1,.16.82,2.07,2.07,0,0,1-.14.81.73.73,0,0,1-.7.46.7.7,0,0,1-.64-.38,1.69,1.69,0,0,1-.18-.84,2.06,2.06,0,0,1,.11-.7.72.72,0,0,1,.72-.55m0,2.19a.46.46,0,0,0,.38-.2,1.56,1.56,0,0,0,.14-.78,2.06,2.06,0,0,0-.1-.67.39.39,0,0,0-.4-.27.44.44,0,0,0-.39.25,1.81,1.81,0,0,0-.12.74,1.86,1.86,0,0,0,.08.59.43.43,0,0,0,.41.34Z" fill="#002868" fill-rule="evenodd"/><path d="M292,211a.39.39,0,0,0,.19.35.46.46,0,0,0,.21.05.46.46,0,0,0,.37-.18,1.6,1.6,0,0,0,.22-.73.58.58,0,0,1-.25.22.87.87,0,0,1-.32.06.72.72,0,0,1-.55-.21.77.77,0,0,1-.2-.56.87.87,0,0,1,.2-.58.72.72,0,0,1,.59-.24.71.71,0,0,1,.72.47,1.73,1.73,0,0,1,.11.65,2.09,2.09,0,0,1-.13.78.78.78,0,0,1-.75.57.72.72,0,0,1-.53-.18.67.67,0,0,1-.19-.47H292m.46-.49a.52.52,0,0,0,.33-.12.5.5,0,0,0,.15-.41.54.54,0,0,0-.14-.4.45.45,0,0,0-.34-.13.44.44,0,0,0-.35.15.57.57,0,0,0-.13.4.6.6,0,0,0,.11.37A.47.47,0,0,0,292.41,210.48Z" fill="#002868" fill-rule="evenodd"/><path d="M290.52,210.16a.45.45,0,0,0,.31-.11.4.4,0,0,0,.11-.27.38.38,0,0,0-.11-.25.44.44,0,0,0-.32-.11.37.37,0,0,0-.42.38.29.29,0,0,0,.13.26.49.49,0,0,0,.3.1m0,1.19a.51.51,0,0,0,.35-.12.42.42,0,0,0,.14-.34.45.45,0,0,0-.14-.35.57.57,0,0,0-.37-.12.51.51,0,0,0-.35.12.46.46,0,0,0-.14.34.44.44,0,0,0,.13.33.49.49,0,0,0,.38.14m-.43-1.08a.69.69,0,0,1-.19-.12.48.48,0,0,1-.13-.35.6.6,0,0,1,.19-.46.74.74,0,0,1,.55-.2.73.73,0,0,1,.54.19.53.53,0,0,1,.2.42.57.57,0,0,1-.11.36.67.67,0,0,1-.2.16.59.59,0,0,1,.23.16.57.57,0,0,1,.16.43.76.76,0,0,1-.21.54.78.78,0,0,1-.6.22.94.94,0,0,1-.6-.19.66.66,0,0,1-.24-.55.65.65,0,0,1,.11-.37.73.73,0,0,1,.3-.24Z" fill="#002868" fill-rule="evenodd"/><path d="M288,209.85v-.23a1.16,1.16,0,0,0,.45-.11.52.52,0,0,0,.2-.35h.23v2.39h-.32v-1.7Z" fill="#002868" fill-rule="evenodd"/><path d="M273.68,210.91a.4.4,0,0,0,.2.35.45.45,0,0,0,.57-.13,1.49,1.49,0,0,0,.22-.73.58.58,0,0,1-.25.22.87.87,0,0,1-.32.06.74.74,0,0,1-.55-.21.82.82,0,0,1-.2-.56.87.87,0,0,1,.2-.58.72.72,0,0,1,.59-.24.71.71,0,0,1,.72.47,1.55,1.55,0,0,1,.11.65,2.09,2.09,0,0,1-.13.78.77.77,0,0,1-.75.57.72.72,0,0,1-.53-.18.66.66,0,0,1-.18-.47h.3m.46-.49a.52.52,0,0,0,.33-.12.5.5,0,0,0,.15-.41.54.54,0,0,0-.14-.4.5.5,0,0,0-.69,0,.62.62,0,0,0-.13.4.55.55,0,0,0,.12.37.43.43,0,0,0,.36.14Z" fill="#002868" fill-rule="evenodd"/><path d="M272.32,209.08a.66.66,0,0,1,.56.21.74.74,0,0,1,.16.43h-.3a.61.61,0,0,0-.09-.23.37.37,0,0,0-.33-.15.45.45,0,0,0-.4.24,1.42,1.42,0,0,0-.17.67A.67.67,0,0,1,272,210a.66.66,0,0,1,.32-.07.79.79,0,0,1,.53.2.7.7,0,0,1,.22.57.88.88,0,0,1-.21.58.83.83,0,0,1-1.19,0,1.2,1.2,0,0,1-.25-.86,2.35,2.35,0,0,1,.11-.76.78.78,0,0,1,.77-.6m0,2.2a.41.41,0,0,0,.35-.15.64.64,0,0,0,.12-.38.62.62,0,0,0-.1-.35.41.41,0,0,0-.39-.17.48.48,0,0,0-.34.13.47.47,0,0,0-.15.39.56.56,0,0,0,.14.38.45.45,0,0,0,.37.15Z" fill="#002868" fill-rule="evenodd"/><path d="M270.33,210.1a.46.46,0,0,0,.32-.11.4.4,0,0,0,.11-.27.38.38,0,0,0-.11-.25.45.45,0,0,0-.33-.11.4.4,0,0,0-.31.11.38.38,0,0,0-.1.27.29.29,0,0,0,.13.26.48.48,0,0,0,.29.1m0,1.19a.51.51,0,0,0,.35-.12.42.42,0,0,0,.14-.34.45.45,0,0,0-.14-.35.57.57,0,0,0-.37-.12.51.51,0,0,0-.35.12.46.46,0,0,0-.14.34.48.48,0,0,0,.12.33.53.53,0,0,0,.39.14m-.43-1.08a.57.57,0,0,1-.19-.12.48.48,0,0,1-.14-.35.61.61,0,0,1,.2-.46.74.74,0,0,1,.55-.2.73.73,0,0,1,.54.19.56.56,0,0,1,.2.42.58.58,0,0,1-.31.52.67.67,0,0,1,.23.16.57.57,0,0,1,.16.43.76.76,0,0,1-.21.54.78.78,0,0,1-.6.22.92.92,0,0,1-.6-.19.66.66,0,0,1-.24-.55.64.64,0,0,1,.1-.37.76.76,0,0,1,.31-.24Z" fill="#002868" fill-rule="evenodd"/><path d="M267.82,209.79v-.23a1.16,1.16,0,0,0,.45-.11.55.55,0,0,0,.2-.35h.23v2.39h-.32v-1.7Z" fill="#002868" fill-rule="evenodd"/><polygon points="248.79 205.32 313.85 205.67 312.79 208.14 251.73 208.26 248.79 205.32" fill="#fff" stroke="#002868" stroke-width="0.6" fill-rule="evenodd"/><polygon points="271.26 183.56 271.38 184.85 275.49 184.85 275.61 183.44 271.26 183.56" fill="#fff" stroke="#002868" stroke-width="0.6" fill-rule="evenodd"/><polygon points="287.49 183.44 287.61 184.85 291.14 184.85 291.26 183.44 287.49 183.44" fill="#fff" stroke="#002868" stroke-width="0.6" fill-rule="evenodd"/><polygon points="272.44 181.56 272.32 183.44 289.97 183.44 289.97 181.67 272.44 181.56" fill="#fff" stroke="#002868" stroke-width="0.6" fill-rule="evenodd"/><path d="M283.38,191.2c-.24-1.29-.83-7-2.83-7.17a2.5,2.5,0,0,0-2.58,1.53s2.82.35,2.58,1.53-1.41,4.11-2,4.47,3.77-.24,4.83-.36Z" fill="#fff" stroke="#002868" stroke-width="0.6" fill-rule="evenodd"/><polygon points="279.38 190.61 278.91 198.61 284.55 198.73 284.32 190.97 279.38 190.61" fill="#fff" stroke="#002868" stroke-width="0.6" fill-rule="evenodd"/><path d="M274.2,196.7a45.19,45.19,0,0,1,.24-6.32c.23-1.41,1.06-2.35,2.47-2.24s3.88,2.71,3.88,2.71,3.76-3.41,5.18-3.29a3.37,3.37,0,0,1,2.59,2.93c0,1,.13,6.27.13,6.27s-2.94-3.32-3.9-3.68-2.47-.47-2.47-.47l-.23,6.4-1.3,0s-.12-3.06-.24-4.24a8.12,8.12,0,0,0-.58-2.23,12.62,12.62,0,0,0-2.83,1.88c-.85.77-2.94,2.32-2.94,2.32Z" fill="#fff" stroke="#002868" stroke-width="0.6" fill-rule="evenodd"/><path d="M274.32,197.16l14.12,0v5.88c-.11,5.18-7.14,12.48-7.14,12.48s-7.1-6.71-7.1-12.71S274.32,197.16,274.32,197.16Z" fill="#fff" stroke="#002868" stroke-width="0.6" fill-rule="evenodd"/><polygon points="276.3 203.97 276.3 209.27 277.3 210.83 277.3 203.97 276.3 203.97" fill="#002868" fill-rule="evenodd"/><polygon points="278.5 203.97 278.52 212.46 279.5 213.64 279.5 203.97 278.5 203.97" fill="#002868" fill-rule="evenodd"/><polygon points="280.7 203.97 280.7 214.97 281.3 215.56 281.9 214.9 281.9 203.97 280.7 203.97" fill="#002868" fill-rule="evenodd"/><polygon points="283.1 203.97 283.11 213.5 284.1 212.25 284.09 203.97 283.1 203.97" fill="#002868" fill-rule="evenodd"/><polygon points="285.29 203.97 285.31 210.58 286.29 209.04 286.29 203.97 285.29 203.97" fill="#002868" fill-rule="evenodd"/><polygon points="274.3 203.97 275.3 203.97 275.3 207.13 274.3 203.97" fill="#002868" fill-rule="evenodd"/><polygon points="287.3 203.97 287.31 207.15 288.38 203.97 287.3 203.97" fill="#002868" fill-rule="evenodd"/><polygon points="274.2 197.05 288.44 197.2 288.44 202.8 274.2 202.85 274.2 197.05" fill="#fff" stroke="#002868" stroke-width="0.6" fill-rule="evenodd"/><path d="M281.33,197.7l.59,1.81h1.91l-1.55,1.13.59,1.81-1.54-1.12-1.55,1.12.59-1.81-1.54-1.13h1.91l.59-1.81Z" fill="#002868" fill-rule="evenodd"/><polygon points="317 194.12 317.49 174.96 318.81 174.96 318.65 194.29 317 194.12" fill="#fff" stroke="#002868" stroke-width="0.6" fill-rule="evenodd"/><path d="M319,165.37v5.29c0,1.49-2.32,3.64-2.15,4.79s1.65,1,2.15.66,3.14-4.79,3.14-7.43.33-6.61-.33-6.78-3,2.48-3,2.48l.17,1Z" fill="#fff" stroke="#002868" stroke-width="0.6" fill-rule="evenodd"/><path d="M308.24,190.82s-.33,6.28-.33,7.93-.17,3.47-1.32,4.46-2.15.66-2.48,1.32a1,1,0,0,0,.16,1.16l7.44-.16s-.33-5.95-.17-8.1,1.65-5.45.83-6.11S308.9,190.65,308.24,190.82Z" fill="#fff" stroke="#002868" stroke-width="0.6" fill-rule="evenodd"/><path d="M300.47,189s4,3.14,3.8,4.3-2,2.48-1.32,3.14,1.16.49,1.16.49l5.45-5-6.28-5.13L300.47,189Z" fill="#fff" stroke="#002868" stroke-width="0.6" fill-rule="evenodd"/><path d="M313.36,191.48s1.65,2.32,3.8,2.32,5-6,5-6-1,8.09-4.79,7.93-4-2.65-4-4.3Z" fill="#fff" stroke="#002868" stroke-width="0.6" fill-rule="evenodd"/><path d="M312.7,171.49c1-.83,1.32-5.62,1.32-5.62l1.49-2.81s2.48,2.81,3.63,2.65,2.81-.17,2.81-1.16.5-2.48-.33-3.31a76.13,76.13,0,0,0-5.95-4.79c-.82-.49-9.41-1.48-10.07-1.48s-3.31,1.65-3.64,3.13a66.89,66.89,0,0,0-1,7.77c0,1.32.14,3.33.14,3.33l2.5-1.68.83,2.32,8.26,1.65Z" fill="#fff" stroke="#002868" stroke-width="0.6" fill-rule="evenodd"/><path d="M303.94,155.63c1.82,2,2.32,7.1,2.32,7.1s.49-2.81,1.81-3.8,4.46-1.16,4.46-2.64-3.47-2-4.46-2a6.65,6.65,0,0,0-4.13,1.33Z" fill="#fff" stroke="#002868" stroke-width="0.6" fill-rule="evenodd"/><path d="M306.26,154.8c0,1.65.66,2.31,1.48,2.48s2.81-.83,2.65-1.65-4.13-.83-4.13-.83Z" fill="#fff" stroke="#002868" stroke-width="0.6" fill-rule="evenodd"/><path d="M306.92,154.63s0,2,1,1.82,1.82-2.15,1.82-2.15l-2.81.33Z" fill="#fff" stroke="#002868" stroke-width="0.6" fill-rule="evenodd"/><path d="M306.33,146.79a10.17,10.17,0,0,1-.36,2.75,5.53,5.53,0,0,0-.86,1.72c-.06.49.55.43.55.43s-.12,2.27-.18,2.7,1,.06,1.41.8.43,1.78.67,1.59a19.23,19.23,0,0,0,1.66-1.65c.49-.56,1.22-.13,1.41-.86S311,148,311,148l-4.67-1.22Z" fill="#fff" stroke="#002868" stroke-width="0.6" fill-rule="evenodd"/><path d="M310.22,191c-1.82.16-2.48-.17-2.64-1s-.17-6.11-.5-7.93a8.74,8.74,0,0,0-.82-2.64s-4.3,3.14-4.3,4.63a4,4,0,0,0,1.32,2.64L300.64,189s-5.45-3.14-5.45-4.95,5.61-7.93,6.61-9.26,1.32-5.12,2.31-5.28,7.1.33,8.09,1.15,3.14,4.46,3,6.78-1,2-1.16,2.81,0,1.48-.16,2.64-1,.33-1,1.32.33,5.29-.17,6.12-.83.66-2.48.66Z" fill="#fff" stroke="#002868" stroke-width="0.6" fill-rule="evenodd"/><path d="M307.08,145.05c-1.15,1-1.82,1.32-1.49,2s3,.83,3.31,1.66a4.32,4.32,0,0,1,0,2.14l1.32-.33v3.8s3.31-2.64,3-5.28-3.64-3-4.63-3.14a1.92,1.92,0,0,1-1.49-.83Z" fill="#fff" stroke="#002868" stroke-width="0.6" fill-rule="evenodd"/><path d="M300.94,169.48c.06.86.24,5.4-.07,6.07s-.85,1.78-.12,2.64,1.6,1.22,2,.55-.12-3.8.31-5.58.49-5,.19-5.4-2.15-.24-2.27,1.72Z" fill="#fff" stroke="#002868" stroke-width="0.6" fill-rule="evenodd"/><path d="M306.27,179.41a8.56,8.56,0,0,1-.86-3.92m.86,3.92Z" fill="none" stroke="#002868" stroke-width="0.6"/><path d="M303.7,167.82l.06-6.56m-.06,6.56Z" fill="none" stroke="#002868" stroke-width="0.6"/><path d="M314.06,165.92a12.61,12.61,0,0,1-1.29-1.1c-.3-.37-.67-.92-.67-.92m2,2Z" fill="none" stroke="#002868" stroke-width="0.6"/><path d="M317.86,165.25c-.06-3.13,3.93-3.75,3.93-3.75m-3.93,3.75Z" fill="none" stroke="#002868" stroke-width="0.6"/><path d="M305.54,152.8l1,.06m-1-.06Z" fill="none" stroke="#002868" stroke-width="0.6"/><path d="M306.09,149l1.41,1.23M306.09,149Z" fill="none" stroke="#002868" stroke-width="0.6"/><path d="M250.25,150.16s-.52-1.94-.06-2.33,3.36-2.46,4.2-2.4,2.46,2.46,2.46,2.46l-6.6,2.27Z" fill="#fff" stroke="#002868" stroke-width="0.6" fill-rule="evenodd"/><path d="M251.9,156.26s-10.7,7.85-10.82,9.87,4.76,7.85,4.76,7.85l2-1.91a18.35,18.35,0,0,0-.71-2.73,13,13,0,0,0-1.55-2.74s.24.12,1.43-.35a10.85,10.85,0,0,0,2-1.07,8.28,8.28,0,0,0,.24,3.68c.59,1.31,2.49,4.52,2.49,4.52l7-.47s.24-9.28.12-11.42-2.74-6.18-2.74-6.18l-4.28.95Z" fill="#fff" stroke="#002868" stroke-width="0.6" fill-rule="evenodd"/><path d="M253.57,191.69s2.85,2,3.92,3a11.59,11.59,0,0,1,1.43,1.43l.11,1.08h-3L253,193.6l.6-1.91Z" fill="#fff" stroke="#002868" stroke-width="0.6" fill-rule="evenodd"/><path d="M252.19,156.06c-.13.52,2.92,2.34,3.75,3.29a21.68,21.68,0,0,0,2.62,2.26,7.18,7.18,0,0,0-.95-3.57c-1.07-2-.62-2.34-1.09-2.46s-4.79-.18-4.33.48Z" fill="#fff" stroke="#002868" stroke-width="0.6" fill-rule="evenodd"/><path d="M251.19,174.69a86.59,86.59,0,0,0-2.14,14.15,52.1,52.1,0,0,0,1.31,12.6l4.52-.59v-7.49s8.44-8.68,8.44-10-4.64-7.61-4.4-8.44a4.34,4.34,0,0,0-.12-2l-7.61,1.78Z" fill="#fff" stroke="#002868" stroke-width="0.6" fill-rule="evenodd"/><path d="M255,188.13s1.22-3.8,1.58-4.87a11.26,11.26,0,0,0,.47-1.9s1.4,1.18,1.28,1.89-1.78-.24-3.33,4.88Z" fill="#fff" stroke="#002868" stroke-width="0.6" fill-rule="evenodd"/><path d="M248.24,190.92a41.85,41.85,0,0,0-.38-4.59,27.47,27.47,0,0,1-1.23-6.28,8.16,8.16,0,0,1,1.87-5.63,7.82,7.82,0,0,1,2.91-2.39s1.43,0,3.56-.07,4.08-.19,4.08-.19L259,174a20.88,20.88,0,0,1-4.46.78,20.59,20.59,0,0,1-3.62-.39s-3,2.85-2.85,5.57.91,6.66.84,7.76a20.18,20.18,0,0,1-.65,3.17Z" fill="#002868" stroke="#002868" stroke-width="0.6" fill-rule="evenodd"/><path d="M251.73,156.33a23.49,23.49,0,0,1,.05-4,41.85,41.85,0,0,1,1.31-4.05l4.16-.12-.11,5.59-.84-.12.36,1.91a9.2,9.2,0,0,1-2.74.83,8.62,8.62,0,0,1-2.19,0Z" fill="#fff" stroke="#002868" stroke-width="0.6" fill-rule="evenodd"/><path d="M252.54,152c-2.61.6-4,1.75-4.8.92s.95-3.33,4.76-4.88,7.37-.71,7.61,0-1.67,2-2.62,2.14-2.73,0-3.45.48a10.57,10.57,0,0,0-1.5,1.34Z" fill="#fff" stroke="#002868" stroke-width="0.6" fill-rule="evenodd"/><path d="M251.68,155c-1.47.07-1.76-1.38-1.08-2.4s2-3,3.56-3.45,2.86,0,3,.84a2.43,2.43,0,0,1,0,1.5s-2.19-1.71-3.14-.79-.95,2.74-1.66,3.57c-.23.35-.3.71-.7.73Z" fill="#fff" stroke="#002868" stroke-width="0.6" fill-rule="evenodd"/><path d="M250.24,172.31a2.56,2.56,0,0,1,2.38-2.5c.45,0,1.19,2.26,1.19,3.81s-1,4.64-1.79,4.76-.59-4-.59-4h-1Z" fill="#fff" stroke="#002868" stroke-width="0.6" fill-rule="evenodd"/><path d="M250.48,201.32l-.12,4.28,9.27-.23a1.34,1.34,0,0,0-.35-1.31c-.6-.6-3.22-.83-3.69-1.67a5.85,5.85,0,0,1-.6-1.3l-4.51.23Z" fill="#fff" stroke="#002868" stroke-width="0.6" fill-rule="evenodd"/><path d="M254.52,156.24a13.57,13.57,0,0,1,4,4.66,3.52,3.52,0,0,1,.13.71m-4.08-5.37Z" fill="none" stroke="#002868" stroke-width="0.6"/><path d="M245.2,173.26a2.77,2.77,0,0,1,2.46-1.75s2.27,1.16,2.2,1.75-1.81-.07-1.94.32,1,1.62.39,2.2S245.78,174.62,245.2,173.26Z" fill="#fff" stroke="#002868" stroke-width="0.6" fill-rule="evenodd"/><path d="M256.48,154.59l-.73-.1m1,.13Z" fill="#fff" stroke="#002868" stroke-width="0.6"/><path d="M254.91,193.38a31,31,0,0,1,.13-5.56m-.13,5.56Z" fill="none" stroke="#002868" stroke-width="0.6"/><path d="M256.33,151.94a.65.65,0,1,0-.64.61A.63.63,0,0,0,256.33,151.94Z" fill="#002868" fill-rule="evenodd"/><path d="M257,181.34a20.85,20.85,0,0,0,.13-4.85m-.13,4.85Z" fill="none" stroke="#002868" stroke-width="0.6"/><path d="M340.92,168.21a59.65,59.65,0,1,1-59.65-59.56,59.62,59.62,0,0,1,59.65,59.56ZM329.06,168a47.79,47.79,0,1,1-47.79-48A47.89,47.89,0,0,1,329.06,168Z" fill="#fff" stroke="#002868" stroke-width="0.6" fill-rule="evenodd"/><path d="M296.57,112.53a3.62,3.62,0,0,1,1.49,1,2.53,2.53,0,0,1,.54,2.27l-.89-.32a1.71,1.71,0,0,0-.28-1.31,2.46,2.46,0,0,0-1.17-.81,2.13,2.13,0,0,0-1.81.12,3.2,3.2,0,0,0-1.39,1.83,3.58,3.58,0,0,0-.19,2.13,2,2,0,0,0,1.43,1.36,2.32,2.32,0,0,0,1.68,0,2.3,2.3,0,0,0,1.22-1.47l-2.08-.76.28-.75,2.92,1.07L297,120.43l-.58-.21.1-.94a3.7,3.7,0,0,1-1.07.4,3.15,3.15,0,0,1-1.63-.22,3.11,3.11,0,0,1-1.75-1.51,3.83,3.83,0,0,1,0-3,4,4,0,0,1,1.88-2.33,3,3,0,0,1,2.57-.12Z" fill="#002868" fill-rule="evenodd"/><polygon points="249.79 120.42 250.78 119.88 256.67 123.22 253.93 118.17 254.73 117.74 258.11 123.96 257.17 124.48 251.24 121.17 253.98 126.21 253.17 126.65 249.79 120.42" fill="#002868" fill-rule="evenodd"/><polygon points="244.49 124.55 245.21 123.89 249.97 129.14 249.25 129.79 244.49 124.55" fill="#002868" fill-rule="evenodd"/><path d="M234.84,134.27l.84-1.08,6,2.07L238.18,130l.83-1.07,5.59,4.35L244,134l-3.3-2.57-.56-.45-.84-.67,3.47,5.27-.58.75-6-2.07.17.14.64.48.62.46,3.3,2.57-.56.73-5.59-4.36Z" fill="#002868" fill-rule="evenodd"/><path d="M230.28,141.57a3.27,3.27,0,0,1,2.23-2,4,4,0,0,1,2.48.33,4.23,4.23,0,0,1,2.09,1.81,3.18,3.18,0,0,1,0,3,3.25,3.25,0,0,1-2,1.92,4.6,4.6,0,0,1-4.71-2,3.11,3.11,0,0,1-.1-3m6.1,2.6a2,2,0,0,0-.09-2,3.81,3.81,0,0,0-1.68-1.37,3,3,0,0,0-2.11-.22,2.27,2.27,0,0,0-1.42,1.33,2.35,2.35,0,0,0,0,1.94,3.16,3.16,0,0,0,1.75,1.54,3.28,3.28,0,0,0,2.06.26,2.27,2.27,0,0,0,1.52-1.44Z" fill="#002868" fill-rule="evenodd"/><polygon points="226.19 154.45 226.44 153.36 230.23 152.16 227.38 149.4 227.64 148.3 231.14 151.88 233.92 152.54 233.7 153.48 230.92 152.82 226.19 154.45" fill="#002868" fill-rule="evenodd"/><polygon points="224.17 166.21 229.99 165.15 224.31 163.28 224.36 162.24 230.2 160.91 224.5 159.3 224.56 158.25 231.54 160.45 231.49 161.46 225.55 162.81 231.33 164.74 231.29 165.74 224.12 167.25 224.17 166.21" fill="#002868" fill-rule="evenodd"/><polygon points="226.82 185.17 225.42 180.46 226.26 180.22 227.38 184.01 229.44 183.4 228.46 180.06 229.26 179.82 230.25 183.16 233.34 182.24 233.61 183.16 226.82 185.17" fill="#002868" fill-rule="evenodd"/><path d="M230,193.39a3.25,3.25,0,0,1-.73-2.94,3.86,3.86,0,0,1,1.48-2,4.17,4.17,0,0,1,2.58-1,3.59,3.59,0,0,1,3.33,4.09,4.06,4.06,0,0,1-1.58,2.26,4.24,4.24,0,0,1-2.39.93,3.09,3.09,0,0,1-2.69-1.35m5.2-4.11a2,2,0,0,0-1.83-.9,3.87,3.87,0,0,0-2,.82,3,3,0,0,0-1.2,1.74,2.21,2.21,0,0,0,.48,1.88,2.34,2.34,0,0,0,1.7,1,3.15,3.15,0,0,0,2.18-.81,3.21,3.21,0,0,0,1.22-1.67,2.27,2.27,0,0,0-.54-2Z" fill="#002868" fill-rule="evenodd"/><polygon points="241.4 208.97 238.01 205.08 238.66 204.51 241.44 207.7 243.06 206.28 240.49 203.33 241.11 202.8 243.68 205.75 245.49 204.17 242.67 200.92 243.3 200.37 246.74 204.32 241.4 208.97" fill="#002868" fill-rule="evenodd"/><polygon points="244.4 211.98 244.87 211.28 246.85 212.63 250.36 207.47 251.16 208.01 247.65 213.17 249.63 214.52 249.15 215.21 244.4 211.98" fill="#002868" fill-rule="evenodd"/><path d="M254.7,213.93l-.56,3.26,2.51-2.2-1.95-1.06m-.62,4.42-1-.52,1.14-7.45.92.51-.39,2.2,2.46,1.35,1.69-1.5.87.48-5.74,4.93Z" fill="#002868" fill-rule="evenodd"/><polygon points="259.55 221.23 259.82 220.43 262.08 221.2 264.09 215.29 265.01 215.61 263 221.52 265.26 222.28 264.99 223.08 259.55 221.23" fill="#002868" fill-rule="evenodd"/><path d="M272.4,219.87a1.89,1.89,0,0,0-.13-1,1.85,1.85,0,0,0-1.55-1,3,3,0,0,0-1,0,1.1,1.1,0,0,0-1,.92,1,1,0,0,0,.23.88,3.78,3.78,0,0,0,1.06.59l.92.37a4.46,4.46,0,0,1,1.24.67,1.47,1.47,0,0,1,.46,1.41,2.06,2.06,0,0,1-.9,1.45,2.67,2.67,0,0,1-2,.31,3.29,3.29,0,0,1-1.78-.83,1.93,1.93,0,0,1-.5-1.82l.89.14a1.72,1.72,0,0,0,.17.91,1.79,1.79,0,0,0,1.38.78,1.69,1.69,0,0,0,1.26-.16,1.12,1.12,0,0,0,.5-.76.83.83,0,0,0-.31-.82,6.5,6.5,0,0,0-1.21-.58l-.94-.38a3.14,3.14,0,0,1-1-.62,1.69,1.69,0,0,1-.44-1.53,1.82,1.82,0,0,1,1.12-1.53,3.83,3.83,0,0,1,2-.18,2.93,2.93,0,0,1,1.93,1,2.25,2.25,0,0,1,.44,1.91l-.89-.14Z" fill="#002868" fill-rule="evenodd"/><polygon points="292.67 224.21 287.58 225.12 287.43 224.26 291.59 223.52 291.21 221.4 287.36 222.09 287.22 221.28 291.07 220.59 290.64 218.23 286.41 218.99 286.26 218.16 291.42 217.23 292.67 224.21" fill="#002868" fill-rule="evenodd"/><polygon points="304.02 220.78 303.1 221.09 302.18 218.31 298.68 219.46 299.6 222.24 298.68 222.55 296.46 215.82 297.38 215.52 298.42 218.66 301.92 217.51 300.88 214.36 301.8 214.06 304.02 220.78" fill="#002868" fill-rule="evenodd"/><polygon points="309.02 218.23 308.57 217.51 310.59 216.24 307.27 210.96 308.09 210.44 311.41 215.72 313.44 214.45 313.88 215.17 309.02 218.23" fill="#002868" fill-rule="evenodd"/><polygon points="325.98 204.22 322.72 207.89 322.07 207.32 324.69 204.36 323.08 202.93 320.78 205.54 320.14 204.98 322.45 202.37 320.04 200.24 320.67 199.52 325.98 204.22" fill="#002868" fill-rule="evenodd"/><path d="M330.64,198.73a3.25,3.25,0,0,1-2.75,1.28,3.87,3.87,0,0,1-2.27-1.07,4.21,4.21,0,0,1-1.44-2.35,3.16,3.16,0,0,1,.87-2.83,3.21,3.21,0,0,1,2.51-1.21,4,4,0,0,1,2.52,1.12,4.14,4.14,0,0,1,1.37,2.16,3.09,3.09,0,0,1-.81,2.9m-5-4.32a2,2,0,0,0-.53,2,3.89,3.89,0,0,0,1.18,1.82,3,3,0,0,0,1.95.84,2.25,2.25,0,0,0,1.75-.83,2.35,2.35,0,0,0,.62-1.85,3.2,3.2,0,0,0-1.2-2,3.28,3.28,0,0,0-1.88-.87,2.23,2.23,0,0,0-1.89.91Z" fill="#002868" fill-rule="evenodd"/><polygon points="337.46 179.91 337.21 180.84 331.19 179.17 330.23 182.63 329.42 182.4 330.63 178.02 337.46 179.91" fill="#002868" fill-rule="evenodd"/><path d="M334.3,173.43l3.24-.69-3-1.52-.27,2.21m4.34-1.06-.13,1.07-7.34,1.7.12-1,2.2-.45.34-2.78-2-1,.12-1,6.71,3.51Z" fill="#002868" fill-rule="evenodd"/><polygon points="337.98 160.67 338.37 165.82 337.5 165.88 337.19 161.67 335.04 161.83 335.33 165.73 334.52 165.79 334.23 161.89 331.83 162.07 332.15 166.36 331.31 166.42 330.92 161.2 337.98 160.67" fill="#002868" fill-rule="evenodd"/><path d="M331.25,152.1a2,2,0,0,0-.83.6,1.9,1.9,0,0,0-.09,1.82,3.51,3.51,0,0,0,.48.88,1.1,1.1,0,0,0,1.3.44.92.92,0,0,0,.65-.62,3.7,3.7,0,0,0,0-1.22l-.12-1a4.44,4.44,0,0,1,0-1.41,1.5,1.5,0,0,1,1-1.09,2.09,2.09,0,0,1,1.7.09,2.65,2.65,0,0,1,1.21,1.55,3.27,3.27,0,0,1,.14,2,2,2,0,0,1-1.35,1.32l-.31-.85a1.48,1.48,0,0,0,.73-2.17,1.69,1.69,0,0,0-.75-1,1.16,1.16,0,0,0-.91-.07.81.81,0,0,0-.56.67,5.87,5.87,0,0,0,.07,1.34l.13,1a3,3,0,0,1-.05,1.2,1.68,1.68,0,0,1-1.13,1.13,1.81,1.81,0,0,1-1.87-.24,3.83,3.83,0,0,1-1.15-1.69,3,3,0,0,1-.07-2.18,2.28,2.28,0,0,1,1.46-1.31l.31.85Z" fill="#002868" fill-rule="evenodd"/><polygon points="330.8 139.67 330.08 140.1 328.84 138.06 323.5 141.29 323 140.46 328.34 137.23 327.1 135.19 327.82 134.75 330.8 139.67" fill="#002868" fill-rule="evenodd"/><path d="M320.85,133.41l1.75-2.81-3.15,1.09,1.4,1.72m2.25-3.86.68.84-3.88,6.47-.66-.82,1.19-1.89L318.67,132l-2.13.75-.62-.77,7.18-2.4Z" fill="#002868" fill-rule="evenodd"/><polygon points="313.38 120.89 317.49 124.03 316.96 124.72 313.6 122.15 312.29 123.86 315.4 126.24 314.9 126.89 311.79 124.51 310.33 126.42 313.75 129.03 313.24 129.7 309.08 126.52 313.38 120.89" fill="#002868" fill-rule="evenodd"/><path d="M263.08,113.69a3.69,3.69,0,0,1,1.77,0,2.5,2.5,0,0,1,1.72,1.57l-.92.24a1.7,1.7,0,0,0-1-.92,2.43,2.43,0,0,0-1.42,0,2.18,2.18,0,0,0-1.43,1.12,3.2,3.2,0,0,0-.11,2.3,3.44,3.44,0,0,0,1,1.86,2,2,0,0,0,1.94.33,2.07,2.07,0,0,0,1.59-2.83l-2.15.54-.19-.77,3-.76.93,3.68-.6.15-.45-.83a3.87,3.87,0,0,1-.65.93,3.28,3.28,0,0,1-1.47.74,3.15,3.15,0,0,1-2.3-.27,3.86,3.86,0,0,1-1.65-2.48,4.08,4.08,0,0,1,.25-3,3.08,3.08,0,0,1,2.06-1.55Z" fill="#002868" fill-rule="evenodd"/><path d="M305.35,120.06a1.93,1.93,0,0,0,1.07.26,1.1,1.1,0,0,0,.8-.68,1,1,0,0,0,0-1.17,1.73,1.73,0,0,0-.62-.5l-2.08-1.08L303.39,119l2,1M304,115.71l2.91,1.52a3.4,3.4,0,0,1,1.07.83,1.68,1.68,0,0,1,.11,2,2,2,0,0,1-.72.8,1.86,1.86,0,0,1-1,.23,1.53,1.53,0,0,1,.35.68,1.56,1.56,0,0,1-.21.9l-.41.86a2.74,2.74,0,0,0-.22.57.62.62,0,0,0,.07.53l-.07.14-1-.55a.75.75,0,0,1,0-.24,5.53,5.53,0,0,1,.21-.52l.5-1.08a1,1,0,0,0,0-1.06,2.39,2.39,0,0,0-.71-.52l-1.93-1-1.41,2.69-.85-.44,3.28-6.28Z" fill="#002868" fill-rule="evenodd"/></svg>