<svg xmlns="http://www.w3.org/2000/svg" width="600" height="444" viewBox="0 0 600 444"><path stroke-width="1.07" stroke="#50d6cc" stroke-linecap="round" stroke-linejoin="round" fill="#fff" d="M26.58 1.31h551.73v386.21H26.58z"/><path stroke-width="1.07" stroke="#50d6cc" stroke-linecap="round" stroke-linejoin="round" fill="#fff" d="M54.17 28.9h496.55v331.04H54.17z"/><path stroke-width="1.07" stroke="#50d6cc" stroke-linecap="round" stroke-linejoin="round" fill="#fff" d="M67.96 42.69h468.97v303.45H67.96z"/><path d="M211.7 222.13c-1.83-9.14-7.62-16.75-9.44-17.36s-5.18-1.52-5.18-1.52a4.48 4.48 0 001.22-5.18c-1.22-3.35-6.7-12.48-7-17.66s1.22-11.88 0-16.14-5.78-7.92-6.09-15.83 12.79-18.88 20.41-19.19 14.61 2.44 18.88 2.13 9.44-5.78 12.79-7 4.87.61 7-.31 19.49-15.22 36.85-15.22 30.45 6.39 34.41 6.39 11.27-1.82 16.75 0 12.18 10.05 20.1 12.18S406 137.78 411.16 146s8.52 20.1 8.52 25.88-1.52 21.32-1.52 24.37 1.52 7 .91 11-2.43 5.48-2.43 5.48-1.22-6.7-1.52-10.66 2.43-14.92 2.13-21.31-3.05-14.32-3.05-14.32-1.82 9.14-3.35 14.92-6.09 22.23-6.09 31.67 2.74 23.15 2.74 23.15-7.61 13.09-8.22 18.27-1.83 17.36-1.52 18.88-1.83-.61-2.44 1.22a11.41 11.41 0 00-.3 4.26l-7-.61a15.47 15.47 0 011.53-5.18c1.21-2.13 3-3.65 2.74-6.39s.3-14.62.3-14.62-5.18 8.83-6.7 12.18-1.52 7.62-2.13 9.14-1.83 1.52-2.44 3.35-1.52 1.83-1.52 1.83l-5.48.3s10.66-26.19 11.27-32.89-6.7-20.4-8.22-25-1.53-8.22-3.05-10-6.7-4-8.53-3-11.87 10.35-14 13.09a106.4 106.4 0 01-7.62 7.92s-12.18-6.7-18.57-8.22-22.23-2.74-22.23-2.74 1.22 23.44.61 27.1-3.66 4.87-3.66 7.31v7.61c0 1.83-4.87 2.44-6.09 4s0 2.74-1.52 4.87-3.65 1.52-4.57 2.74-.3 8.53-.3 8.53l-12.18-.31s4.87-10.05 4.56-15.83-5.22-14.45-6.1-18.99-3.65-11.57-7.3-11.57a14.55 14.55 0 00-6.7 1.82s.88-15.25-4.27-21.65-17.66-5.78-21.62-4.87-8.22 6.7-9.74 7.31-2.74 0-5.18.91-5.48 3.35-7.61 5.18z" fill="#fff" stroke="#50d6cc" stroke-linecap="round" stroke-linejoin="round" stroke-width="1.07" fill-rule="evenodd"/><path d="M267.06 128.2c0-2.51 2.16-1.82 4.23-2.77a23.59 23.59 0 003.9-2.33l.08 6.48h-7.95l-.26-1.38z" fill="#fff" stroke="#50d6cc" stroke-linejoin="bevel" stroke-width=".55" fill-rule="evenodd"/><path d="M301.4 134.43c-2.17 1.3-2.68.08-4.07-1.21s-5.53-4.33-5.53-4.33l11.07 1.82-1.47 3.72z" fill="#fff" stroke="#50d6cc" stroke-width=".55" fill-rule="evenodd"/><path d="M267.07 127.82c-.27 2.48-.1 4.29 1.2 5.48s2.33.78 3.28.61 12.55-4.85 16.09-4.85 8.4.18 11.08 2.69c1.2 1.13 2.42 2 2.25 2.68s4.32-2.42 4.23-4.41-6.31-6-13-6.92-15.55 4.41-22 4.93c-2.31.22-3.19.55-3.19-.21z" fill="#fff" stroke="#50d6cc" stroke-linejoin="bevel" stroke-width=".55" fill-rule="evenodd"/><path d="M301.2 130.64a.58.58 0 00.16.86c.21.16.54.32.75.07s0-.45-.14-.65a2.66 2.66 0 01-.45-.66.64.64 0 01.61-.77 1.11 1.11 0 011 .78.65.65 0 01-.16.62l-.24-.19a.58.58 0 00.11-.3.73.73 0 00-.67-.62.33.33 0 00-.32.43 2.64 2.64 0 00.47.64.65.65 0 01.06.88c-.34.42-.84.27-1.21 0a.84.84 0 01-.2-1.25l.23.19zM301.47 128.81l-.16.24-.66-.47-1.22 1.72-.27-.19 1.22-1.72-.66-.47.17-.23 1.58 1.12zM297.02 126.45l.3.13-.41.9 1.13.52.41-.9.3.14-1 2.17-.3-.14.47-1.01-1.13-.52-.47 1.02-.3-.14 1-2.17zM294.59 125.84a1.15 1.15 0 01.54.27.88.88 0 01.26.74l-.31-.08a.61.61 0 00-.15-.43.77.77 0 00-.42-.23.75.75 0 00-.6.1 1.08 1.08 0 00-.4.67 1.17 1.17 0 000 .72.7.7 0 00.52.41.84.84 0 00.57 0 .79.79 0 00.36-.54l-.73-.18.07-.26 1 .26-.32 1.23-.2-.05v-.31a1.33 1.33 0 01-.34.17 1.2 1.2 0 01-.56 0 1.06 1.06 0 01-.64-.45 1.29 1.29 0 01-.09-1 1.35 1.35 0 01.55-.84 1 1 0 01.89-.2zM291.97 125.42l.32.04-.24 2.38-.33-.04.25-2.38zM290.13 126.38a.57.57 0 00.36-.07.37.37 0 00.15-.32.35.35 0 00-.16-.36.9.9 0 00-.27-.06h-.79v.81h.75m-1-1.15l1.1.06a1.14 1.14 0 01.45.11.54.54 0 01.3.58.51.51 0 01-.11.34.64.64 0 01-.25.21.54.54 0 01.2.16.63.63 0 01.06.31v.32a.88.88 0 000 .2.17.17 0 00.09.15v.06h-.4v-.09a1.11 1.11 0 010-.19V127a.34.34 0 00-.16-.33.85.85 0 00-.29-.06h-.73l-.06 1h-.32l.13-2.39zM279.88 126.85l.31-.07.44 2.06 1.18-.25.06.28-1.5.32-.49-2.34zM278.45 128.82l-.62-.92-.1 1.12.72-.2m-.88-1.22l.36-.1 1.46 2.08-.34.1-.43-.63-.91.25-.06.75-.32.09.24-2.54zM274.59 128.72l.3 1.45a.87.87 0 00.18.4.53.53 0 00.53.16.6.6 0 00.5-.39 1 1 0 000-.42l-.3-1.45.32-.07.27 1.32a1.67 1.67 0 010 .69 1 1 0 01-1.62.33 1.55 1.55 0 01-.25-.64l-.27-1.31.32-.07zM268.81 130.59l1.66-.54.09.28-1.36.44.23.69 1.25-.41.09.26-1.26.41.25.77 1.38-.45.09.28-1.68.54-.74-2.27zM274.09 131.4l-.11.24-.43-.18a1.23 1.23 0 01-.57.31 1.06 1.06 0 01-.93-.13 1.38 1.38 0 01-.5-.79 1.47 1.47 0 010-.86 1.06 1.06 0 01.78-.66 1.1 1.1 0 011 .15 1.54 1.54 0 01.34 1.76l.39.16m-1 0a.38.38 0 00.13-.09l-.31-.13.11-.24.36.16a1.16 1.16 0 00.05-.82 1 1 0 00-.38-.6.77.77 0 00-.65-.1.79.79 0 00-.53.4 1 1 0 000 .79 1 1 0 00.38.61.92.92 0 00.87 0z" fill="#50d6cc" fill-rule="evenodd"/><path d="M298.17 187.72a19.42 19.42 0 01-2.55-2.43c-.52-.76-1.92-3.19-1.92-3.19l3.58-3.7s2.68 3.32 2.68 3.95a52.47 52.47 0 01-1.79 5.37zM298.68 169.71s-4.47-3.7-4.85-4.59a20.74 20.74 0 01-.51-4.09l2.17-.51a14 14 0 002 1.4 8.13 8.13 0 002.81.77l-1.66 7zM301.78 137.67s-.06-1.47-.09-2.14-1-1.52-1-1.52-1.11 1.08-1.17 1.49-.09 2.43-.09 2.43l2.32-.26z" fill="#fff" stroke="#50d6cc" stroke-width=".55" fill-rule="evenodd"/><path fill="#fff" stroke="#50d6cc" stroke-width=".55" fill-rule="evenodd" d="M303.5 189.29l-.79-43-4.62.16-.64 43.16 6.05-.32z"/><path d="M299 189.71l.41-44.81m-.41 44.81zM298.19 189.71l.08-44.81m-.08 44.81zM301.45 190l.33-45.22m-.33 45.22zM300.23 189.87c-.08-.41.32-45.22.32-45.22m-.32 45.22zM302.84 190l.08-45.38m-.08 45.38z" fill="none" stroke="#50d6cc" stroke-width=".55"/><path fill="#fff" stroke="#50d6cc" stroke-width=".55" fill-rule="evenodd" d="M304.46 192.48v-2.71l-.79-.63h-5.74l-1.43.79.32 2.87 7.64-.32zM303.33 139.96l-.85-1.35 1.7-1.5-6.89-.11 1.5 1.61-.67 1.32 5.21.03z"/><path d="M302.76 144.2l-1.28-1.31s2.79-2.64 3.17-2.64.61.61 1 .58.65-.2.65-.64-.41-.65-1-.62l-9-.11c-.65 0-.85.41-.82.73a.84.84 0 00.85.61c.38 0 .5-.64.91-.61s2.16 2.46 2.16 2.64l-1.46 1.4h4.85zM303.81 145.58c1.25 1.4 2.09 2.28 2 4.47s-3.14 5.79-5.47 7.89-6.54 3.65-6.54 5.52.36 2 .81 2.63a6.11 6.11 0 01-2.33-4.81c0-3.06 2.55-6.38 5.49-8.17s6.51-4.21 6.51-5.49a3.7 3.7 0 00-.49-2zM303.19 164.86c0 1.25 0 2.3.09 3.32.11 1.21-3.7 3.7-5.24 5.24s-5.36 3.19-5.62 5.49 2 4.44 2.55 5.31c-.59-1.22.73-2.63 2.25-3.86 1.33-1.08 4.21-2.68 5.68-4.26s3.1-4.1 3.1-6.51-1.62-4.35-2.77-4.73z" fill="#fff" stroke="#50d6cc" stroke-width=".55" fill-rule="evenodd"/><path fill="#fff" stroke="#50d6cc" stroke-width=".55" fill-rule="evenodd" d="M304.31 145.22l-1.61 1.18-4.67.15-1.56-1.29 1.56-1.06h4.73l1.55 1.02zM281.75 133.75c-3.3.52-4.09 4.75-4.09 4.75s1.45.26 1.45 1.58.14 2.91.14 2.91l2.9-3.17-.4-6.07z"/><path d="M277.93 138.37a8 8 0 00-1.72 2.64s-1.58-3.57-1.19-4.36 1.45-1.72 1.32-2.51-.79-.92-1.58-.79-.76 4.65-.76 5.81.26 3.3.92 4.09 1.19 2 1.85 2.11 2.51-2.64 2.51-2.64.26-2.64-.14-3.3a3.19 3.19 0 00-1.21-1.05zM290.2 134.93c4.36 2.51 3.83 5.94 3.7 7.13a8 8 0 000 2 27.39 27.39 0 012.64 3c.79 1.19 3 4.62 3 4.62l-.79.79a34 34 0 01-4.62-4c-1.29-1.47-7.13-11.03-7.13-11.03l3.17-2.51z" fill="#fff" stroke="#50d6cc" stroke-width=".55" fill-rule="evenodd"/><path d="M279.25 178.76l-3.3-46.5m3.3 46.5z" fill="none" stroke="#50d6cc" stroke-width=".55"/><path d="M290.69 178h-11.43c0-.31 1.56-38.63 1.56-40.74s-.32-3.73.13-4.23 4.45-.36 5.35 0 3.64 1.22 3.87 1.71-.54 3.46-.54 4.5 1.17 3.82 1.08 5.26 1.17 16.26 1.17 17.25c0 1.22-1-.63-1.45-.05s1.58 15.72.26 16.31z" fill="#fff" stroke="#50d6cc" stroke-width=".55" fill-rule="evenodd"/><path d="M284.1 129.61s-.14 2.83-.14 3.59a3.18 3.18 0 002.07 2.21c.81.13 1.67-.77 1.58-2s-.5-1.08-.5-2.56a11.65 11.65 0 00-.27-2.56l-2.74 1.35z" fill="#fff" stroke="#50d6cc" stroke-width=".55" fill-rule="evenodd"/><path d="M283.51 126.23a13.57 13.57 0 000 3.82c.13.5.13 1.85.94 2s2.16-1.62 2.57-2.38a7.1 7.1 0 00.58-1.71l-2.16-3.15zM283.6 130.73l1.22-.09m-1.22.09zM284.86 128h.95m-.95 0z" fill="#fff" stroke="#50d6cc" stroke-width=".55" fill-rule="evenodd"/><path d="M283.29 126.28a1.8 1.8 0 011.71-2.48c1.53 0 3.2 2.25 3.2 3.38s-.32 2.16-.59 2.16-1.53-3.56-2.56-3.6-1 .58-1.76.54zM286.21 139.5c-2.29 4.49-4 6.07-4.85 6.11a11.46 11.46 0 01-1.85-.09l.46 9.34 6.56.17m-.32-15.53z" fill="#fff" stroke="#50d6cc" stroke-width=".55" fill-rule="evenodd"/><path d="M288.19 139.63a25 25 0 01-9.19 13.58l.86 13.87 6.81-6.76m1.5-20.69z" fill="#fff" stroke="#50d6cc" stroke-width=".55" fill-rule="evenodd"/><path d="M287.07 146.33c-1.85 14.39-8.19 12.1-8.19 12.1l.35 12.75c5.3-1.27 5.69-5.49 5.69-5.49a3.43 3.43 0 003.17-.79c1.32-1.32.13-5.68.53-7.66a37.14 37.14 0 00.53-4.09m-2.08-6.82z" fill="#fff" stroke="#50d6cc" stroke-width=".55" fill-rule="evenodd"/><path d="M288.62 147.34c-.53 2.25-1.06 7-1.06 7m1.06-7zM281.22 154.6c2.25-1 5-8.18 5-8.18m-5 8.18zM286.9 159.88a11.32 11.32 0 00.13 3.43m-.13-3.43zM287 169.39c.13-3.3-.26-3.7-.26-3.7m.26 3.7zM288 138a10 10 0 00.92-3.7M288 138zM290.86 161.6a17.18 17.18 0 01-2.24-1.19m2.24 1.19z" fill="none" stroke="#50d6cc" stroke-width=".55"/><path d="M272.3 188a19.34 19.34 0 002.56-2.43c.51-.76 1.91-3.19 1.91-3.19l-3.57-3.7s-2.68 3.32-2.68 4a52.67 52.67 0 001.78 5.32zM271.79 170s4.47-3.7 4.85-4.6a20 20 0 00.52-4.08l-2.18-.51a14 14 0 01-2 1.4 8.13 8.13 0 01-2.81.77l1.66 7zM268.7 138s.06-1.47.08-2.14 1-1.52 1-1.52 1.12 1.08 1.17 1.49.09 2.43.09 2.43z" fill="#fff" stroke="#50d6cc" stroke-width=".55" fill-rule="evenodd"/><path fill="#fff" stroke="#50d6cc" stroke-width=".55" fill-rule="evenodd" d="M266.97 189.59l.79-43 4.62.16.64 43.16-6.05-.32z"/><path d="M271.47 190l-.41-44.81m.41 44.81zM272.29 190l-.08-44.81m.08 44.81zM269 190.25l-.3-45.25m.32 45.22zM270.25 190.17c.08-.41-.33-45.22-.33-45.22m.33 45.22zM267.64 190.33l-.09-45.33m.09 45.38z" fill="none" stroke="#50d6cc" stroke-width=".55"/><path fill="#fff" stroke="#50d6cc" stroke-width=".55" fill-rule="evenodd" d="M266.01 192.78v-2.71l.8-.63h5.73l1.44.79-.32 2.87-7.65-.32zM267.14 140.25l.85-1.34-1.69-1.5 6.88-.12-1.49 1.62.67 1.31-5.22.03z"/><path d="M267.73 144.42l1.26-1.24s-2.78-2.63-3.16-2.63-.62.61-1 .58-.64-.2-.64-.64.41-.65 1-.62l9-.11c.64 0 .85.41.82.73a.84.84 0 01-.85.61c-.38 0-.5-.64-.91-.61s-2.17 2.46-2.17 2.64l1.47 1.4-4.84-.11zM266.75 146c-1.25 1.53-2.14 2.24-2.11 4.4s3.14 5.79 5.48 7.89 6.53 3.65 6.53 5.52-.36 2.05-.81 2.63a6.11 6.11 0 002.34-4.81c0-3.06-2.56-6.38-5.49-8.17s-6.52-4.21-6.52-5.49a3.62 3.62 0 01.58-2zM267.28 165.15c0 1.26 0 2.31-.08 3.33-.12 1.21 3.7 3.7 5.23 5.24s5.36 3.19 5.62 5.49-2 4.44-2.54 5.31c.58-1.22-.74-2.63-2.25-3.86-1.34-1.08-4.22-2.68-5.68-4.26s-3.07-4.09-3.07-6.52a5.23 5.23 0 012.77-4.73z" fill="#fff" stroke="#50d6cc" stroke-width=".55" fill-rule="evenodd"/><path fill="#fff" stroke="#50d6cc" stroke-width=".55" fill-rule="evenodd" d="M266.16 145.51l1.61 1.19 4.68.15 1.55-1.29-1.55-1.06h-4.73l-1.56 1.01z"/><path d="M276.7 159.46l.18.16-.58.66 1.25-.07.25.22h-1.05l-.14 1.33-.24-.22.13-1.1h-.4l-.42.47-.18-.16 1.2-1.36m-.75-.73a.75.75 0 01.29.49.66.66 0 01-.12.45l-.18-.16a.44.44 0 00.06-.31.5.5 0 00-.19-.31.54.54 0 00-.45-.14.87.87 0 00-.5.32.82.82 0 00-.23.49.5.5 0 00.2.44.47.47 0 00.45.12.78.78 0 00.27-.14l.18.15a.76.76 0 01-.48.22.77.77 0 01-.59-.21.78.78 0 01-.27-.49 1 1 0 01.31-.78 1 1 0 01.59-.35.76.76 0 01.66.21m-1.42-1.26a.82.82 0 01.32.7.91.91 0 01-.27.58 1 1 0 01-.6.37.92.92 0 01-1-.86 1 1 0 01.29-.65 1.1 1.1 0 01.55-.35.82.82 0 01.75.21m-1.11 1.29a.49.49 0 00.5.13 1 1 0 00.47-.3.76.76 0 00.21-.5.54.54 0 00-.21-.45.64.64 0 00-.47-.16.79.79 0 00-.51.31.83.83 0 00-.23.48.61.61 0 00.24.49M273.78 156.77l-.15.16-.46-.41-1.06 1.2-.18-.16 1.06-1.2-.46-.41.14-.16 1.11 1m-2.92-.95a.45.45 0 00-.12.24.51.51 0 00.21.42.85.85 0 00.21.14.28.28 0 00.35-.06.25.25 0 00.07-.22 1 1 0 00-.15-.28l-.15-.2a1.12 1.12 0 01-.17-.32.37.37 0 01.09-.37.52.52 0 01.4-.18.65.65 0 01.46.2.8.8 0 01.27.42.49.49 0 01-.14.46L272 156a.42.42 0 00.08-.22.58.58 0 00-.48-.5.27.27 0 00-.21.1.2.2 0 000 .22 1.77 1.77 0 00.18.29l.15.21a.73.73 0 01.14.28.42.42 0 01-.12.39.46.46 0 01-.45.18 1.13 1.13 0 01-.46-.24.8.8 0 01-.29-.49.59.59 0 01.17-.47l.18.15m-.55-2.13l1 .88-.15.17-.81-.72-.37.41.75.67-.14.15-.75-.66-.41.46.83.73-.29.14-1-.89 1.21-1.36m-1.18-1.04l-.64 1.5 1.41-.81.21.18-1.7.92-.2-.17.71-1.8.21.18m-.6-.52l.19.16-1.2 1.36-.19-.16 1.2-1.36M267.34 151.22l.19.16-1.06 1.2.69.61-.15.16-.87-.77 1.2-1.36zM273.13 176.3l.22.19-.29 1.71 1-1.1.18.16-1.2 1.35-.21-.18.28-1.72-1 1.11-.17-.16 1.2-1.36M272.67 175.87l.18.17-1.2 1.36-.19-.17 1.21-1.36M271.34 176.13l.32-.79-.75.41.43.38m.41-1.07l.2.18-.71 1.8-.2-.18.23-.53-.54-.48-.51.28-.22-.13 1.72-.9m-1.67-.37a.47.47 0 00.25.13.28.28 0 00.24-.12.25.25 0 00.07-.29.51.51 0 00-.12-.16l-.45-.4-.41.47.42.37m-.06-1.16l.63.56a.75.75 0 01.22.27.44.44 0 01-.1.49.54.54 0 01-.22.16.53.53 0 01-.25 0 .43.43 0 010 .19.36.36 0 01-.11.21l-.15.19a.36.36 0 00-.09.12.19.19 0 000 .14l-.23-.2v-.06l.08-.11.19-.24a.24.24 0 00.06-.27.61.61 0 00-.14-.17l-.42-.37-.52.58-.18-.16 1.2-1.36m-.86-.83a1 1 0 01.27.37.64.64 0 01-.09.59l-.18-.16a.43.43 0 00.06-.34.69.69 0 00-.21-.3.54.54 0 00-.44-.14.79.79 0 00-.5.31.86.86 0 00-.25.49.54.54 0 00.22.46.56.56 0 00.39.16.6.6 0 00.43-.23l-.42-.38.13-.15.6.52-.64.73-.12-.1.11-.22a.92.92 0 01-.29 0 .88.88 0 01-.37-.21.77.77 0 01-.28-.52 1 1 0 01.29-.71 1.08 1.08 0 01.66-.38.82.82 0 01.63.21m0 0M300.64 154.44a.51.51 0 00.23.17.5.5 0 00.48-.13.72.72 0 00.19-.2.29.29 0 000-.37.26.26 0 00-.22-.13 1.23 1.23 0 00-.32.1l-.24.12a1.66 1.66 0 01-.37.12.4.4 0 01-.37-.18.54.54 0 01-.12-.45.7.7 0 01.31-.45.86.86 0 01.5-.2.52.52 0 01.46.25l-.2.15a.43.43 0 00-.21-.14.49.49 0 00-.42.13.45.45 0 00-.21.28.34.34 0 00.06.24.22.22 0 00.22.1 2.43 2.43 0 00.35-.13l.25-.12a.78.78 0 01.32-.09.47.47 0 01.39.2.51.51 0 01.09.52 1 1 0 01-.35.44.82.82 0 01-.56.2.65.65 0 01-.47-.28l.2-.15M298.22 154.58l1.13-.86.15.19-.93.7.36.47.86-.65.13.18-.85.65.4.53.94-.72.14.19-1.15.87-1.18-1.55M296.65 155.78l.25-.19 1.74.66-1-1.26.2-.15 1.18 1.55-.23.18-1.76-.65 1 1.26-.2.15-1.18-1.55M296.09 156.2l.22-.16 1.18 1.55-.21.16-1.19-1.55m-1.89 1.42l.3-.23 1.45 1-.56-1.65.3-.23L297 158l-.2.15-.7-.91-.12-.16-.17-.24.55 1.65-.21.16-1.44-1v.05l.13.17a1.1 1.1 0 01.13.17l.7.91-.2.16-1.18-1.56zM296.51 176.26l.21-.16 1 1.36.79-.6.14.19-1 .76-1.18-1.55m-.55.42l.21-.16 1.18 1.55-.21.16-1.1-1.55M294.9 177.45a.92.92 0 01.81-.21 1.09 1.09 0 01.56.41 1.17 1.17 0 01.27.72.89.89 0 01-.39.72.9.9 0 01-.74.19 1.11 1.11 0 01-.63-.44 1.15 1.15 0 01-.25-.65.84.84 0 01.37-.74m1.13 1.43a.53.53 0 00.25-.5 1.09 1.09 0 00-.22-.56.84.84 0 00-.48-.33.64.64 0 00-.52.13.66.66 0 00-.27.47.91.91 0 00.22.6.93.93 0 00.46.34.62.62 0 00.56-.15m-1.12-1.44" fill="#50d6cc" fill-rule="evenodd"/><path d="M249.51 191.85l73 .1-7.79 11.47s-29.53 10.82-30.83 10.6-31.05-10.82-31.05-10.82l-3.35-11.35z" fill="#fff" stroke="#50d6cc" stroke-width=".55" fill-rule="evenodd"/><path fill="#fff" stroke="#50d6cc" stroke-width=".55" fill-rule="evenodd" d="M277.1 179.95v16.33l1.62-.43v-16.12l-1.62.22zM291.81 179.73l.32 16.55h1.63l-.22-16.55h-1.73z"/><path fill="#fff" stroke="#50d6cc" stroke-width=".55" fill-rule="evenodd" d="M275.58 195.96l.11 2.81h19.15l-.11-2.81h-19.15z"/><path fill="#fff" stroke="#50d6cc" stroke-width=".55" fill-rule="evenodd" d="M274.61 197.58v2.6l20.99.1-.11-2.7h-20.88zM300.65 204.68v4.67l-3.53-.32.04-5.57 3.49 1.22zM272.92 203.82l-.13 4.94-3.13-1.63.36-3.04 2.9-.27z"/><path d="M269.8 205.91c-.18-2.4.72-3.63 1.45-3.63s26.14-.09 27.59 0a2.08 2.08 0 011.81 2.27v2.58s-.14-1.4-3.13-1.58-1.17.63-12.54.54-11.11-.54-12.83-.67-2.17 0-2.35.49z" fill="#fff" stroke="#50d6cc" stroke-width=".55" fill-rule="evenodd"/><path d="M297.23 202.83a.65.65 0 01.62.35 1.61 1.61 0 01.15.75 1.83 1.83 0 01-.13.75.66.66 0 01-.64.42.63.63 0 01-.59-.34 1.59 1.59 0 01-.16-.78 2.08 2.08 0 01.09-.65.68.68 0 01.66-.5m0 2a.43.43 0 00.35-.19 1.5 1.5 0 00.12-.72 1.75 1.75 0 00-.09-.61.35.35 0 00-.36-.25.39.39 0 00-.36.23 1.71 1.71 0 00-.11.68 1.67 1.67 0 00.07.55c.08.2.2.31.38.31zM295 204.51a.37.37 0 00.18.32.38.38 0 00.19 0 .44.44 0 00.34-.16 1.44 1.44 0 00.2-.68.51.51 0 01-.23.21.73.73 0 01-.3.06.65.65 0 01-.5-.2.7.7 0 01-.19-.51.78.78 0 01.19-.53.63.63 0 01.54-.23.65.65 0 01.66.43 1.5 1.5 0 01.11.6 1.81 1.81 0 01-.13.72.69.69 0 01-.68.52.62.62 0 01-.49-.17.54.54 0 01-.17-.42h.28m.42-.46a.47.47 0 00.3-.1.61.61 0 000-.75.45.45 0 00-.32-.12.42.42 0 00-.32.14.52.52 0 00-.12.36.54.54 0 00.11.35.42.42 0 00.39.16zM293.72 203.76a.44.44 0 00.29-.1.35.35 0 00.1-.25.32.32 0 00-.1-.23.38.38 0 00-.3-.1.33.33 0 00-.38.35.29.29 0 00.12.24.44.44 0 00.27.09m0 1.09a.49.49 0 00.32-.1.41.41 0 00.13-.31.39.39 0 00-.14-.33.5.5 0 00-.33-.11.52.52 0 00-.33.11.42.42 0 00-.12.32.48.48 0 00.11.3.49.49 0 00.36.12m-.4-1a.78.78 0 01-.18-.11.44.44 0 01-.12-.32.58.58 0 01.18-.43.69.69 0 01.51-.18.72.72 0 01.5.17.51.51 0 01.18.39.53.53 0 01-.11.34.7.7 0 01-.18.14.71.71 0 01.22.15.57.57 0 01.14.4.67.67 0 01-.19.49.73.73 0 01-.56.2.81.81 0 01-.54-.17.62.62 0 01-.23-.51.65.65 0 01.1-.34.63.63 0 01.28-.22zM291.4 203.48v-.22a1.33 1.33 0 00.42-.09.51.51 0 00.18-.33h.22V205h-.3v-1.56zM278.24 204.45a.35.35 0 00.18.32.41.41 0 00.19 0 .44.44 0 00.34-.17 1.39 1.39 0 00.2-.67.55.55 0 01-.23.2.72.72 0 01-.29.06.63.63 0 01-.51-.2.73.73 0 01-.19-.51.84.84 0 01.19-.53.65.65 0 01.54-.23.68.68 0 01.67.44 1.71 1.71 0 01.1.6 2 2 0 01-.12.72.72.72 0 01-.69.52.68.68 0 01-.49-.17.61.61 0 01-.17-.43h.28m.42-.45a.48.48 0 00.3-.11.43.43 0 00.14-.38.49.49 0 00-.12-.36.43.43 0 00-.31-.12.42.42 0 00-.33.13.55.55 0 00-.12.37.51.51 0 00.11.34.39.39 0 00.33.13zM277 202.77a.59.59 0 01.51.19.64.64 0 01.15.39h-.28a.52.52 0 00-.07-.2.37.37 0 00-.31-.15.42.42 0 00-.37.22 1.21 1.21 0 00-.15.61.61.61 0 01.24-.21.73.73 0 01.3-.06.72.72 0 01.48.18.65.65 0 01.21.53.81.81 0 01-.2.53.71.71 0 01-.56.23.74.74 0 01-.53-.23 1.14 1.14 0 01-.23-.8 2.41 2.41 0 01.1-.7.72.72 0 01.71-.54m0 2a.36.36 0 00.32-.14.54.54 0 00.11-.35.62.62 0 00-.09-.32.39.39 0 00-.36-.16.45.45 0 00-.31.12.46.46 0 00-.14.36.48.48 0 00.13.35.4.4 0 00.34.14zM275.16 203.7a.38.38 0 00.29-.1.33.33 0 00.1-.25.3.3 0 00-.1-.22.38.38 0 00-.3-.11.37.37 0 00-.29.11.36.36 0 00-.09.24.27.27 0 00.12.24.44.44 0 00.27.09m0 1.1a.5.5 0 00.32-.11.39.39 0 00.13-.31.41.41 0 00-.13-.32.49.49 0 00-.34-.12.48.48 0 00-.33.12.4.4 0 00-.12.31.44.44 0 00.11.3.49.49 0 00.36.13m-.4-1a.57.57 0 01-.18-.12.44.44 0 01-.12-.32.58.58 0 01.18-.42.69.69 0 01.51-.18.72.72 0 01.5.17.51.51 0 01.18.39.49.49 0 01-.11.33.71.71 0 01-.18.15.93.93 0 01.22.14.59.59 0 01.14.4.69.69 0 01-.19.5.77.77 0 01-.56.2.84.84 0 01-.54-.18.58.58 0 01-.22-.5.59.59 0 01.09-.34.57.57 0 01.28-.22zM272.85 203.42v-.21a1.06 1.06 0 00.42-.1.45.45 0 00.17-.33h.22V205h-.29v-1.57z" fill="#50d6cc" fill-rule="evenodd"/><path fill="#fff" stroke="#50d6cc" stroke-width=".55" fill-rule="evenodd" d="M255.35 199.31l59.82.32-.97 2.28-56.14.1-2.71-2.7zM276.01 179.3l.11 1.19h3.79l.11-1.3-4.01.11zM290.94 179.19l.11 1.3h3.25l.1-1.3h-3.46zM277.1 177.46l-.11 1.73h16.22v-1.62l-16.11-.11zM287.16 186.33c-.22-1.19-.76-6.49-2.6-6.6a2.31 2.31 0 00-2.38 1.41s2.6.32 2.38 1.4-1.3 3.79-1.84 4.11 3.46-.21 4.44-.32z"/><path fill="#fff" stroke="#50d6cc" stroke-width=".55" fill-rule="evenodd" d="M283.48 185.79l-.43 7.35 5.19.11-.22-7.14-4.54-.32z"/><path d="M278.72 191.38a40.39 40.39 0 01.22-5.81c.21-1.3 1-2.16 2.27-2s3.57 2.48 3.57 2.48 3.46-3.13 4.76-3a3.14 3.14 0 012.39 2.7c0 .94.11 5.76.11 5.76s-2.7-3.05-3.58-3.37a22.29 22.29 0 00-2.28-.43l-.2 5.88h-1.2s-.11-2.81-.22-3.9a7.64 7.64 0 00-.54-2 11.34 11.34 0 00-2.6 1.73c-.78.71-2.7 2.13-2.7 2.13z" fill="#fff" stroke="#50d6cc" stroke-width=".55" fill-rule="evenodd"/><path d="M278.82 191.8h13v5.4c-.1 4.77-6.56 11.47-6.56 11.48s-6.54-6.17-6.53-11.69.09-5.19.09-5.19z" fill="#fff" stroke="#50d6cc" stroke-width=".55" fill-rule="evenodd"/><path fill="#50d6cc" fill-rule="evenodd" d="M280.65 198.07v4.87l.92 1.44v-6.31h-.92zM282.67 198.07l.02 7.81.9 1.08v-8.89h-.92zM284.69 198.07l.01 10.11.55.55.55-.61v-10.05h-1.11zM286.9 198.07l.01 8.76.91-1.15v-7.61h-.92zM288.92 198.07l.01 6.08.91-1.42v-4.66h-.92zM278.81 198.07h.92v2.91l-.92-2.91zM290.77 198.07V201l.98-2.93h-.98z"/><path fill="#fff" stroke="#50d6cc" stroke-width=".55" fill-rule="evenodd" d="M278.72 191.71l13.09.13V197l-13.09.04v-5.33z"/><path d="M285.27 192.3l.54 1.67h1.76l-1.42 1 .54 1.67-1.42-1-1.42 1 .54-1.67L283 194h1.76l.54-1.67z" fill="#50d6cc" fill-rule="evenodd"/><path fill="#fff" stroke="#50d6cc" stroke-width=".55" fill-rule="evenodd" d="M318.07 189.01l.46-17.62h1.21l-.15 17.78-1.52-.16z"/><path d="M319.89 162.58v4.86c0 1.37-2.12 3.34-2 4.41s1.52.91 2 .6 2.89-4.4 2.89-6.83.3-6.08-.3-6.23-2.74 2.28-2.74 2.28l.15.91zM310 186s-.31 5.77-.31 7.29-.15 3.19-1.21 4.1-2 .61-2.28 1.22a.92.92 0 00.15 1.06l6.84-.15s-.31-5.47-.15-7.45 1.52-5 .76-5.62-3.18-.63-3.8-.45z" fill="#fff" stroke="#50d6cc" stroke-width=".55" fill-rule="evenodd"/><path d="M302.88 184.31s3.64 2.88 3.49 3.95-1.82 2.27-1.21 2.88 1.06.46 1.06.46l5-4.56-5.77-4.71-2.58 2zM314.73 186.59s1.52 2.12 3.49 2.12 4.56-5.47 4.56-5.47-.91 7.45-4.41 7.3-3.64-2.44-3.64-3.95zM314.12 168.2c.91-.76 1.22-5.17 1.22-5.17l1.36-2.58s2.28 2.58 3.35 2.43 2.58-.15 2.58-1.06.45-2.28-.31-3a68.53 68.53 0 00-5.46-4.41c-.76-.45-8.67-1.36-9.27-1.36s-3 1.52-3.35 2.88a62.29 62.29 0 00-.91 7.14c0 1.22.13 3.07.13 3.07l2.3-1.55.76 2.13 7.6 1.52z" fill="#fff" stroke="#50d6cc" stroke-width=".55" fill-rule="evenodd"/><path d="M306.07 153.61c1.67 1.83 2.12 6.54 2.12 6.54s.46-2.59 1.68-3.5 4.1-1.06 4.1-2.43-3.19-1.82-4.1-1.82a6.1 6.1 0 00-3.8 1.21z" fill="#fff" stroke="#50d6cc" stroke-width=".55" fill-rule="evenodd"/><path d="M308.19 152.85c0 1.52.61 2.13 1.37 2.28s2.59-.76 2.43-1.52-3.8-.76-3.8-.76z" fill="#fff" stroke="#50d6cc" stroke-width=".55" fill-rule="evenodd"/><path d="M308.8 152.7s0 1.83.91 1.67 1.68-2 1.68-2l-2.59.3z" fill="#fff" stroke="#50d6cc" stroke-width=".55" fill-rule="evenodd"/><path d="M308.27 145.48a9.27 9.27 0 01-.34 2.54 5.08 5.08 0 00-.79 1.58c-.06.45.51.4.51.4s-.12 2.08-.17 2.48.9.05 1.29.73.4 1.64.62 1.47a18.06 18.06 0 001.53-1.53c.45-.5 1.13-.11 1.29-.78s.34-5.76.34-5.76l-4.28-1.13zM311.84 186.13c-1.67.15-2.28-.15-2.43-.91s-.15-5.62-.46-7.3a8 8 0 00-.75-2.43s-4 2.89-4 4.26a3.7 3.7 0 001.22 2.43l-2.42 2.13s-5-2.89-5-4.56 5.16-7.3 6.07-8.51 1.22-4.71 2.13-4.86 6.53.3 7.45 1.06 2.88 4.1 2.73 6.23-.91 1.82-1.06 2.58 0 1.37-.16 2.43-.91.31-.91 1.22.31 4.86-.15 5.62-.76.61-2.28.61z" fill="#fff" stroke="#50d6cc" stroke-width=".55" fill-rule="evenodd"/><path d="M309 143.89c-1.06.91-1.67 1.22-1.36 1.82s2.73.76 3 1.52a4.06 4.06 0 010 2l1.21-.31v3.5s3-2.43 2.74-4.86-3.35-2.74-4.26-2.89a1.74 1.74 0 01-1.37-.76zM303.3 166.35c.06.79.23 5-.05 5.59s-.79 1.63-.12 2.42 1.47 1.13 1.81.51-.11-3.5.28-5.13.45-4.57.17-5-2-.22-2.09 1.58z" fill="#fff" stroke="#50d6cc" stroke-width=".55" fill-rule="evenodd"/><path d="M308.21 175.49a7.91 7.91 0 01-.79-3.61m.79 3.61zM305.84 164.83l.06-6m-.06 6zM315.37 163.08a11.23 11.23 0 01-1.18-1c-.28-.34-.62-.85-.62-.85m1.8 1.86zM318.87 162.46c-.06-2.88 3.61-3.44 3.61-3.44m-3.61 3.44zM307.53 151l.9.06m-.9-.06zM308 147.51l1.3 1.13m-1.3-1.13z" fill="none" stroke="#50d6cc" stroke-width=".55"/><path d="M256.69 148.59s-.47-1.79-.05-2.15 3.09-2.26 3.86-2.2 2.26 2.26 2.26 2.26l-6.07 2.09zM258.21 154.2s-9.84 7.21-9.95 9.07 4.38 7.22 4.38 7.22l1.86-1.75a16.44 16.44 0 00-.66-2.52 12 12 0 00-1.42-2.51s.22.11 1.31-.33a10.27 10.27 0 001.86-1 7.66 7.66 0 00.22 3.39c.54 1.2 2.29 4.15 2.29 4.15l6.46-.44s.21-8.52.1-10.49-2.51-5.69-2.51-5.69l-3.94.88zM259.75 186.78s2.62 1.86 3.6 2.73a10.75 10.75 0 011.32 1.32l.1 1H262l-2.84-3.29.55-1.75z" fill="#fff" stroke="#50d6cc" stroke-width=".55" fill-rule="evenodd"/><path d="M258.48 154c-.12.47 2.69 2.14 3.45 3a20.16 20.16 0 002.41 2.08 6.56 6.56 0 00-.88-3.28c-1-1.86-.57-2.16-1-2.27s-4.4-.17-4 .45zM257.56 171.14a79.46 79.46 0 00-2 13 48.15 48.15 0 001.2 11.59l4.16-.55v-6.89s7.76-8 7.76-9.18-4.26-7-4-7.77a4.19 4.19 0 00-.11-1.86l-7 1.64z" fill="#fff" stroke="#50d6cc" stroke-width=".55" fill-rule="evenodd"/><path d="M261.06 183.5s1.12-3.49 1.45-4.47a10.47 10.47 0 00.43-1.75s1.29 1.08 1.18 1.74-1.64-.22-3.06 4.48z" fill="#fff" stroke="#50d6cc" stroke-width=".55" fill-rule="evenodd"/><path d="M254.85 186.07a37 37 0 00-.36-4.23 25 25 0 01-1.13-5.77 7.46 7.46 0 011.73-5.17 7.1 7.1 0 012.68-2.2s1.3 0 3.27-.06 3.75-.18 3.75-.18l-.06 2.08a13.68 13.68 0 01-7.44.36s-2.74 2.61-2.62 5.11.83 6.13.78 7.14a19.23 19.23 0 01-.6 2.92z" fill="#50d6cc" stroke="#50d6cc" stroke-width=".55" fill-rule="evenodd"/><path d="M258.06 154.27a21 21 0 01.05-3.68 35.29 35.29 0 011.2-3.72l3.83-.11-.14 5.14-.77-.11.33 1.75a8.31 8.31 0 01-2.52.77 8.74 8.74 0 01-2 0z" fill="#fff" stroke="#50d6cc" stroke-width=".55" fill-rule="evenodd"/><path d="M258.8 150.29c-2.4.55-3.65 1.61-4.41.84s.87-3.06 4.37-4.48 6.78-.65 7 0-1.53 1.86-2.41 2-2.51 0-3.17.44a9.24 9.24 0 00-1.38 1.23z" fill="#fff" stroke="#50d6cc" stroke-width=".55" fill-rule="evenodd"/><path d="M258 153c-1.35.07-1.62-1.27-1-2.2s1.86-2.74 3.28-3.17 2.63 0 2.74.76a2.23 2.23 0 010 1.38s-2-1.57-2.89-.72-.87 2.51-1.53 3.28c-.21.32-.27.66-.64.67zM256.68 169a2.35 2.35 0 012.19-2.3c.42 0 1.09 2.08 1.09 3.5s-.87 4.26-1.64 4.37-.54-3.71-.54-3.71h-.88zM256.9 195.64l-.11 3.93 8.53-.22a1.22 1.22 0 00-.33-1.2c-.54-.55-2.95-.77-3.39-1.53a5.7 5.7 0 01-.54-1.2l-4.16.22z" fill="#fff" stroke="#50d6cc" stroke-width=".55" fill-rule="evenodd"/><path d="M260.62 154.18a12.48 12.48 0 013.63 4.28 3.25 3.25 0 01.12.66m-3.75-4.94z" fill="none" stroke="#50d6cc" stroke-width=".55"/><path d="M252.05 169.83a2.54 2.54 0 012.26-1.61s2.09 1.07 2 1.61-1.67-.06-1.79.29.89 1.49.36 2-2.29-1.04-2.83-2.29z" fill="#fff" stroke="#50d6cc" stroke-width=".55" fill-rule="evenodd"/><path d="M262.42 152.66l-.67-.09m.89.12z" fill="#fff" stroke="#50d6cc" stroke-width=".55"/><path d="M261 188.33a28.93 28.93 0 01.12-5.12m-.12 5.12z" fill="none" stroke="#50d6cc" stroke-width=".55"/><path d="M262.29 150.22a.58.58 0 00-.6-.56.57.57 0 00-.59.56.58.58 0 00.59.57.59.59 0 00.6-.57z" fill="#50d6cc" fill-rule="evenodd"/><path d="M262.94 177.26a19.1 19.1 0 00.12-4.46m-.12 4.46z" fill="none" stroke="#50d6cc" stroke-width=".55"/><path d="M340.07 165.18a54.85 54.85 0 11-54.85-54.77 54.82 54.82 0 0154.85 54.77zm-10.91-.18a43.94 43.94 0 11-43.94-44.1 44 44 0 0143.94 44.1z" fill="#fff" stroke="#50d6cc" stroke-width=".55" fill-rule="evenodd"/><path d="M299.29 114a3.45 3.45 0 011.37.88 2.34 2.34 0 01.5 2.09l-.82-.3a1.58 1.58 0 00-.27-1.2 2.24 2.24 0 00-1.07-.75 2 2 0 00-1.66.11 2.93 2.93 0 00-1.28 1.69 3.22 3.22 0 00-.17 2 1.89 1.89 0 001.31 1.26 2.1 2.1 0 001.54 0 2.16 2.16 0 001.13-1.35l-1.91-.7.25-.69 2.68 1-1.2 3.27-.53-.2.09-.86a3.2 3.2 0 01-1 .37 3 3 0 01-1.5-.2 2.88 2.88 0 01-1.61-1.39 3.56 3.56 0 010-2.74 3.73 3.73 0 011.73-2.13 2.8 2.8 0 012.37-.12zM256.27 121.24l.92-.49 5.41 3.06-2.52-4.64.73-.39 3.11 5.72-.86.47-5.45-3.04 2.51 4.63-.74.41-3.11-5.73zM251.4 125.03l.66-.59 4.38 4.82-.66.6-4.38-4.83zM242.52 134l.78-1 5.5 1.91-3.21-4.91.77-1 5.14 4-.51.66-3-2.36c-.1-.09-.28-.22-.51-.42l-.78-.61 3.2 4.84-.54.69-5.49-1.9.16.12.58.44.58.44 3 2.36-.52.66-5.14-4zM238.33 140.69a3 3 0 012-1.88 3.61 3.61 0 012.28.3 3.87 3.87 0 011.92 1.66 3 3 0 010 2.73 3 3 0 01-1.87 1.76 4.2 4.2 0 01-4.32-1.8 2.86 2.86 0 01-.1-2.77m5.61 2.39a1.84 1.84 0 00-.08-1.88 3.67 3.67 0 00-1.55-1.26 2.71 2.71 0 00-1.93-.19 2 2 0 00-1.31 1.21 2.15 2.15 0 000 1.79 2.9 2.9 0 001.61 1.41 3 3 0 001.89.25 2.08 2.08 0 001.4-1.33zM234.57 152.53l.23-1 3.48-1.1-2.61-2.54.24-1.01 3.21 3.29 2.56.61-.21.86-2.55-.61-4.35 1.5zM232.71 163.35l5.36-.97-5.23-1.73.05-.96 5.36-1.21-5.23-1.48.05-.97 6.42 2.02-.04.93-5.47 1.24 5.32 1.77-.04.93-6.59 1.38.04-.95zM235.15 180.78l-1.28-4.33.76-.22 1.04 3.48 1.89-.56-.91-3.06.75-.23.91 3.07 2.84-.84.25.84-6.25 1.85zM238.07 188.34a3 3 0 01-.68-2.7 3.58 3.58 0 011.36-1.86 3.86 3.86 0 012.38-.89 3.28 3.28 0 013.06 3.75 3.77 3.77 0 01-1.46 2.09 3.83 3.83 0 01-2.19.85 2.83 2.83 0 01-2.47-1.24m4.78-3.78a1.84 1.84 0 00-1.69-.83 3.53 3.53 0 00-1.84.76 2.75 2.75 0 00-1.11 1.6 2.05 2.05 0 00.45 1.73 2.13 2.13 0 001.55.88 2.87 2.87 0 002-.73 3 3 0 001.12-1.55 2.05 2.05 0 00-.49-1.86zM248.55 202.67l-3.11-3.58.6-.53 2.55 2.94 1.49-1.3-2.36-2.72.57-.49 2.36 2.71 1.67-1.45-2.6-2.98.59-.51 3.16 3.63-4.92 4.28zM251.31 205.44l.44-.65 1.82 1.24 3.22-4.75.74.51-3.22 4.74 1.81 1.24-.43.64-4.38-2.97zM260.79 207.23l-.52 3 2.31-2-1.79-1m-.57 4.06l-.88-.47 1.05-6.85.85.46-.36 2 2.26 1.23 1.56-1.37.79.43-5.27 4.54zM265.25 213.94l.25-.73 2.07.7 1.85-5.43.85.29-1.85 5.43 2.08.71-.25.74-5-1.71zM277.06 212.69a1.81 1.81 0 00-.11-.93 1.74 1.74 0 00-1.43-.89 2.84 2.84 0 00-.92 0 1 1 0 00-.93.85.82.82 0 00.21.8 3.49 3.49 0 001 .55l.84.33a4 4 0 011.14.62 1.35 1.35 0 01.42 1.3 1.88 1.88 0 01-.83 1.33 2.44 2.44 0 01-1.78.29 3 3 0 01-1.64-.77 1.77 1.77 0 01-.46-1.67l.82.13a1.6 1.6 0 00.15.84 1.7 1.7 0 001.27.72A1.59 1.59 0 00276 216a1 1 0 00.46-.7.73.73 0 00-.28-.75 5.49 5.49 0 00-1.12-.54l-.87-.35a2.81 2.81 0 01-.94-.57 1.56 1.56 0 01-.4-1.41 1.63 1.63 0 011-1.4 3.46 3.46 0 011.88-.17 2.75 2.75 0 011.78.91 2.09 2.09 0 01.4 1.76l-.82-.13zM295.7 216.68l-4.68.83-.14-.78 3.83-.69-.35-1.95-3.54.64-.13-.74 3.54-.64-.39-2.17-3.9.7-.13-.77 4.74-.85 1.15 6.42zM306.14 213.53l-.85.28-.84-2.56-3.22 1.07.85 2.55-.85.28-2.04-6.18.84-.28.96 2.89 3.21-1.06-.95-2.9.84-.28 2.05 6.19zM310.74 211.18l-.42-.66 1.86-1.17-3.05-4.86.75-.47 3.06 4.86 1.86-1.17.41.66-4.47 2.81zM326.33 198.29l-3 3.39-.59-.53 2.41-2.72-1.48-1.31-2.12 2.39-.59-.52 2.12-2.39-2.21-1.96.58-.66 4.88 4.31zM330.61 193.25a3 3 0 01-2.52 1.18 3.66 3.66 0 01-2.09-1 3.9 3.9 0 01-1.32-2.17 2.93 2.93 0 01.79-2.6 3 3 0 012.31-1.12 4.25 4.25 0 013.58 3 2.83 2.83 0 01-.75 2.66m-4.62-4a1.83 1.83 0 00-.49 1.81 3.6 3.6 0 001.09 1.67 2.76 2.76 0 001.79.78 2.05 2.05 0 001.61-.77 2.11 2.11 0 00.57-1.7 2.92 2.92 0 00-1.1-1.83 3 3 0 00-1.73-.8 2.1 2.1 0 00-1.74.84zM336.89 175.95l-.24.85-5.52-1.54-.89 3.18-.74-.2 1.11-4.03 6.28 1.74zM334 170l3-.63-2.77-1.37-.25 2m4-1l-.12 1-6.75 1.56.12-1 2-.42.32-2.56-1.85-.94.1-.89L338 169zM337.37 158.25l.35 4.74-.79.06-.29-3.88-1.97.14.26 3.59-.75.06-.27-3.59-2.2.17.29 3.94-.77.06-.36-4.8 6.5-.49zM331.17 150.37a1.79 1.79 0 00-.75.55 1.74 1.74 0 00-.09 1.68 2.69 2.69 0 00.45.8 1 1 0 001.19.41.86.86 0 00.6-.57 3.43 3.43 0 000-1.12l-.11-.9a4 4 0 010-1.3 1.38 1.38 0 01.93-1 1.9 1.9 0 011.61.08 2.45 2.45 0 011.11 1.43 3 3 0 01.13 1.8 1.81 1.81 0 01-1.24 1.22l-.29-.78a1.62 1.62 0 00.66-.54 1.69 1.69 0 000-1.47 1.6 1.6 0 00-.69-.94 1 1 0 00-.84-.06.74.74 0 00-.52.61 5.61 5.61 0 00.07 1.24l.11.93a2.78 2.78 0 010 1.1 1.54 1.54 0 01-1 1 1.65 1.65 0 01-1.73-.22 3.47 3.47 0 01-1.06-1.56 2.78 2.78 0 01-.06-2 2.1 2.1 0 011.34-1.2l.28.78zM330.76 138.94l-.66.4-1.14-1.88-4.91 2.98-.46-.77 4.91-2.97-1.14-1.88.67-.4 2.73 4.52zM321.61 133.19l1.61-2.58-2.9 1 1.29 1.58m2.07-3.55l.63.77-3.56 6-.61-.75 1.09-1.75-1.62-2-2 .69-.57-.7 6.6-2.21zM314.75 121.68l3.77 2.88-.48.64-3.09-2.37-1.2 1.57 2.85 2.19-.46.6-2.85-2.19-1.35 1.75 3.14 2.41-.47.62-3.82-2.93 3.96-5.17zM268.49 115.05a3.36 3.36 0 011.63 0 2.28 2.28 0 011.58 1.44l-.84.22a1.58 1.58 0 00-.9-.85 2.28 2.28 0 00-1.3 0 2 2 0 00-1.32 1 3 3 0 00-.1 2.11 3.3 3.3 0 00.95 1.71 1.88 1.88 0 001.79.3 2.08 2.08 0 001.29-.85 2.13 2.13 0 00.18-1.75l-2 .5-.18-.71 2.77-.7.85 3.38-.55.14-.41-.76a3.49 3.49 0 01-.6.86 3 3 0 01-1.35.67 2.88 2.88 0 01-2.12-.24 3.57 3.57 0 01-1.51-2.28 3.71 3.71 0 01.23-2.74 2.79 2.79 0 011.89-1.43zM307.36 120.91a1.7 1.7 0 001 .23 1 1 0 00.73-.62 1 1 0 000-1.08 1.77 1.77 0 00-.58-.45l-1.91-1-1 2 1.8 1m-1.2-4l2.67 1.4a3 3 0 011 .76 1.56 1.56 0 01.1 1.79 1.73 1.73 0 01-.66.74 1.82 1.82 0 01-.88.21 1.26 1.26 0 01.32.63 1.46 1.46 0 01-.19.83l-.38.79a3.07 3.07 0 00-.2.52.54.54 0 00.07.48l-.07.13-1-.5a1.24 1.24 0 010-.23c0-.08.09-.24.2-.47l.46-1a.9.9 0 000-1 2 2 0 00-.65-.47l-1.78-.93-1.29 2.47-.78-.41 3-5.77z" fill="#50d6cc" fill-rule="evenodd"/><path d="M530.28 356.64a.75.75 0 01-.77-.74.77.77 0 011.54 0 .75.75 0 01-.77.74zM537 348.34a2.29 2.29 0 012.35 2.28 3.66 3.66 0 01-1.42 2.55 10.76 10.76 0 00-2.21 2.53h3.4a.19.19 0 00.14-.05.17.17 0 01.18-.06v.91h-4.76v-.57a9.66 9.66 0 012.35-3 3.27 3.27 0 001.42-2.23 1.53 1.53 0 00-1.55-1.54 1.69 1.69 0 00-1.39.74c-.07.11 0 .19-.11.3l-.66-.53a2.63 2.63 0 012.26-1.33zM545.66 348.4v.82h-3.34l-.12 2.33a2.93 2.93 0 011.31-.31 2.44 2.44 0 012.46 2.7 2.49 2.49 0 01-2.56 2.7 2.86 2.86 0 01-2.4-1.24l.8-.61c.11.08.05.21.1.31a2 2 0 001.49.75 2 2 0 000-3.86 2 2 0 00-1.52.76l-.58-.24.28-4.11z"/><path fill="none" stroke="#a3a3a3" stroke-linecap="round" stroke-linejoin="round" stroke-dasharray="5 5" d="M20.43 1.31H4.33v178.37M18.6 387.52H4.33v-181.6"/><path d="M7.42 189v.66q-1.08 2.45-2 5t-1.69 5H2.38c.63-1.91 1.31-3.79 2-5.66.49-1.28 1-2.55 1.54-3.8h-4.5V189z"/><path fill="none" stroke="#a3a3a3" stroke-linecap="round" stroke-linejoin="round" stroke-dasharray="5 5" d="M229.3 109.43h366.03v41.1M231.13 220.45h364.2v-43.69"/><path d="M595.37 158.25a3 3 0 013.07 3 4.75 4.75 0 01-1.86 3.34 14.22 14.22 0 00-2.89 3.31h4.45a.23.23 0 00.18-.07.25.25 0 01.23-.08v1.19h-6.22v-.75a12.75 12.75 0 013.08-3.94c.76-.69 1.85-1.62 1.85-2.91a2 2 0 00-2-2 2.19 2.19 0 00-1.81 1c-.1.14 0 .25-.15.39l-.87-.69a3.47 3.47 0 012.94-1.79zM288.37 441.58h-1.19v-9.14l-2.13.63-.28-.66 2.77-1.46h.83zM299.42 436.44c0 3.64-1.82 5.31-3.35 5.31s-3.44-2-3.44-5.4 1.74-5.45 3.42-5.45 3.37 1.93 3.37 5.54zm-3.39-4.5c-1 0-2.29 1.49-2.29 4.2a8.53 8.53 0 00.23 2l3.73-4.82c-.45-.94-1.09-1.38-1.7-1.38zm-1.66 7.28c.46.93 1.11 1.45 1.74 1.45.93 0 2.21-1.13 2.21-4.09a9.43 9.43 0 00-.22-2.13z"/><path fill="none" stroke="#a3a3a3" stroke-linecap="round" stroke-linejoin="round" stroke-dasharray="5 5" d="M26.58 395.36v41.04h247.4M578.31 395.36v41.04H310.75"/><path d="M281.1 403v6.63h1.36v1.06h-1.36v2.92h-1.23v-2.91h-4.27v-.89l4.5-6.79zm-4.33 6.63h3.11v-4.74zM287.33 413.82a1 1 0 111-1 1 1 0 01-1 1zM296.06 403a3 3 0 013.07 3 4.76 4.76 0 01-1.86 3.34 14 14 0 00-2.88 3.31h4.44a.22.22 0 00.18-.07s.12-.12.23-.08v1.19H293v-.75a12.64 12.64 0 013.08-3.94c.77-.69 1.85-1.62 1.85-2.91a2 2 0 00-2-2 2.21 2.21 0 00-1.81 1c-.09.14-.05.25-.15.39l-.86-.69a3.44 3.44 0 012.95-1.79zM307.45 403v1.07h-4.37l-.16 3.05a3.88 3.88 0 011.72-.41 3.19 3.19 0 013.21 3.53 3.26 3.26 0 01-3.35 3.54 3.75 3.75 0 01-3.14-1.63l1.06-.79c.14.1.06.27.12.4a2.56 2.56 0 001.95 1 2.56 2.56 0 000-5 2.59 2.59 0 00-2 1l-.77-.31.37-5.38z"/><path fill="none" stroke="#a3a3a3" stroke-linecap="round" stroke-linejoin="round" stroke-dasharray="5 5" d="M184.2 124.79v283.68h81.35M420.18 124.79v283.68H319.64"/><path d="M560.43 356.64a.75.75 0 01-.77-.74.77.77 0 011.54 0 .75.75 0 01-.77.74zM569.31 348.4v.82H566l-.12 2.33a2.94 2.94 0 011.32-.31 2.44 2.44 0 012.45 2.7 2.49 2.49 0 01-2.56 2.7 2.89 2.89 0 01-2.4-1.24l.81-.61c.11.08 0 .21.09.31a2 2 0 001.49.75 2 2 0 000-3.86 2 2 0 00-1.52.76l-.58-.24.28-4.11z"/></svg>