<svg xmlns="http://www.w3.org/2000/svg" width="310" height="300" viewBox="0 0 310 300"><title>flag-georgia-icon-pillars</title><path d="M152.14,60.64l.06,0s2.33.83,2.35,4.46q3.09-.57,2.49,3.25s-2.44-.66-2.83.73A3,3,0,0,0,155.57,73s2.54,2,4.13-1.8,2.17-5.1,2.17-5.1c.44-1.4,3.08-4.69,5.48-5.15a4.41,4.41,0,0,1,2.76-.06s2.1.46,2.16,2.21a2.75,2.75,0,0,1-1.84,3c-1.31.56-2.92-.64-2.92-.64a1.15,1.15,0,0,0-1.09.33,5.52,5.52,0,0,0-1.21,1.66,38.1,38.1,0,0,0-1.72,4.34c-.44,1.48-1.4,6-5.93,6.63h-10.7c-4.53-.68-5.5-5.15-5.93-6.63a38.1,38.1,0,0,0-1.72-4.34A5.7,5.7,0,0,0,138,65.8a1.16,1.16,0,0,0-1.09-.33s-1.61,1.2-2.92.64a2.75,2.75,0,0,1-1.84-3c.06-1.75,2.16-2.21,2.16-2.21a4.41,4.41,0,0,1,2.76.06c2.4.46,5,3.75,5.48,5.15,0,0,.57,1.29,2.17,5.1s4.12,1.8,4.12,1.8a3,3,0,0,0,1.37-3.93c-.4-1.39-2.83-.73-2.83-.73q-.6-3.83,2.48-3.25c0-3.63,2.34-4.47,2.36-4.46l.06,0Z" fill="#fff" stroke="#000" stroke-miterlimit="10" stroke-width="2"/><path d="M165.45,182.84H139.56l3.05-101h19.91Z" fill="#fff" stroke="#000" stroke-miterlimit="10" stroke-width="2" fill-rule="evenodd"/><path d="M165.34,239h-27.5V193.14h27.5Z" fill="#fff" stroke="#000" stroke-miterlimit="10" stroke-width="2" fill-rule="evenodd"/><path d="M137.39,187.91h27.88c1.94,0,3.51,1.18,3.51,2.64s-1.57,2.64-3.51,2.64H137.39c-1.94,0-3.51-1.18-3.51-2.64S135.45,187.91,137.39,187.91Z" fill="#fff" stroke="#000" stroke-miterlimit="10" stroke-width="2"/><path d="M139.46,183h24.33c1.73,0,3.13,1.11,3.13,2.48h0c0,1.37-1.4,2.48-3.13,2.48H139.46c-1.73,0-3.13-1.11-3.13-2.48h0C136.33,184.06,137.73,183,139.46,183Z" fill="#fff" stroke="#000" stroke-miterlimit="10" stroke-width="2" fill-rule="evenodd"/><path d="M144.05,201.73h14.69V232H144.05Z" fill="#fff" stroke="#000" stroke-miterlimit="10" stroke-width="2"/><path d="M143.74,78.29h16.88c1.38,0,2.51.82,2.51,1.82s-1.13,1.83-2.51,1.83H143.74c-1.38,0-2.51-.82-2.51-1.83S142.36,78.29,143.74,78.29Z" fill="#fff" stroke="#000" stroke-miterlimit="10" stroke-width="2"/><path d="M13.81,244.51H294.05V254H13.81Z" fill="#fff" stroke="#000" stroke-miterlimit="10" stroke-width="2" fill-rule="evenodd"/><path d="M1.86,253.88H306.2v10H1.86Z" fill="#fff" stroke="#000" stroke-miterlimit="10" stroke-width="2"/><path d="M22.1,39.32H283.75v5.79H22.1Z" fill="#fff" stroke="#000" stroke-miterlimit="10" stroke-width="2" fill-rule="evenodd"/><path d="M29.13,45.18s4.52,2.71,8.29,10.76H270.19s3.83-9,9.1-10.76Z" fill="#fff" stroke="#000" stroke-miterlimit="10" stroke-width="2" fill-rule="evenodd"/><path d="M36.16,56.38h234A1.54,1.54,0,0,1,271.7,58v.52a1.55,1.55,0,0,1-1.51,1.58h-234a1.55,1.55,0,0,1-1.51-1.58V58A1.54,1.54,0,0,1,36.16,56.38Z" fill="#fff" stroke="#000" stroke-miterlimit="10" stroke-width="2"/><path d="M56.85,60.35l.06,0s2.33.83,2.35,4.46q3.08-.57,2.49,3.25s-2.44-.66-2.84.73a3,3,0,0,0,1.37,3.93s2.53,2,4.13-1.8,2.16-5.1,2.16-5.1c.45-1.4,3.09-4.69,5.48-5.15a4.44,4.44,0,0,1,2.77-.06s2.09.46,2.15,2.21a2.74,2.74,0,0,1-1.84,3c-1.3.56-2.92-.64-2.92-.64a1.16,1.16,0,0,0-1.09.33,5.54,5.54,0,0,0-1.2,1.66,36.17,36.17,0,0,0-1.72,4.34c-.44,1.48-1.4,5.95-5.94,6.62H51.57c-4.54-.67-5.5-5.14-5.94-6.62a36.17,36.17,0,0,0-1.72-4.34,5.73,5.73,0,0,0-1.2-1.66,1.16,1.16,0,0,0-1.09-.33s-1.62,1.2-2.92.64a2.74,2.74,0,0,1-1.84-3c.06-1.75,2.15-2.21,2.15-2.21a4.44,4.44,0,0,1,2.77.06c2.39.46,5,3.75,5.48,5.15,0,0,.57,1.29,2.16,5.1s4.13,1.8,4.13,1.8a3.06,3.06,0,0,0,1.37-3.93c-.4-1.39-2.84-.73-2.84-.73q-.59-3.83,2.49-3.25c0-3.63,2.34-4.47,2.35-4.46l.06,0Z" fill="#fff" stroke="#000" stroke-miterlimit="10" stroke-width="2"/><path d="M69.86,182.84H44l3.44-101H66.54Z" fill="#fff" stroke="#000" stroke-miterlimit="10" stroke-width="2" fill-rule="evenodd"/><path d="M70.66,239H43.17V193.14H70.66Z" fill="#fff" stroke="#000" stroke-miterlimit="10" stroke-width="2" fill-rule="evenodd"/><path d="M43,187.91H70.85c1.94,0,3.52,1.18,3.52,2.64h0c0,1.46-1.58,2.64-3.52,2.64H43c-1.94,0-3.52-1.18-3.52-2.64h0c0-1.46,1.58-2.64,3.52-2.64Z" fill="#fff" stroke="#000" stroke-miterlimit="10" stroke-width="2" fill-rule="evenodd"/><path d="M44.75,183H69.08c1.73,0,3.13,1.11,3.13,2.48h0c0,1.37-1.4,2.48-3.13,2.48H44.75c-1.73,0-3.13-1.11-3.13-2.48h0C41.62,184.06,43,183,44.75,183Z" fill="#fff" stroke="#000" stroke-miterlimit="10" stroke-width="2" fill-rule="evenodd"/><path d="M49.57,201.73H64.26V232H49.57Z" fill="#fff" stroke="#000" stroke-miterlimit="10" stroke-width="2"/><path d="M48.48,78.68H65.35c1.39,0,2.51.81,2.51,1.82s-1.12,1.83-2.51,1.83H48.48c-1.39,0-2.51-.82-2.51-1.83s1.12-1.82,2.51-1.82Z" fill="#fff" stroke="#000" stroke-miterlimit="10" stroke-width="2"/><path d="M37.33,239.13H76.5v5.29H37.33Z" fill="#fff" stroke="#000" stroke-miterlimit="10" stroke-width="2" fill-rule="evenodd"/><path d="M248.85,60.64l.06,0s2.34.83,2.35,4.46q3.09-.57,2.49,3.25s-2.44-.66-2.83.73A3,3,0,0,0,252.28,73s2.54,2,4.13-1.8,2.17-5.1,2.17-5.1c.44-1.4,3.08-4.69,5.48-5.15a4.41,4.41,0,0,1,2.76-.06s2.1.46,2.16,2.21a2.75,2.75,0,0,1-1.84,3c-1.31.56-2.92-.64-2.92-.64a1.15,1.15,0,0,0-1.09.33,5.52,5.52,0,0,0-1.21,1.66,38.1,38.1,0,0,0-1.72,4.34c-.44,1.48-1.4,6-5.93,6.63h-10.7c-4.53-.68-5.5-5.15-5.93-6.63a38.1,38.1,0,0,0-1.72-4.34,5.7,5.7,0,0,0-1.21-1.66,1.16,1.16,0,0,0-1.09-.33s-1.61,1.2-2.92.64a2.75,2.75,0,0,1-1.84-3c.06-1.75,2.16-2.21,2.16-2.21a4.41,4.41,0,0,1,2.76.06c2.4.46,5,3.75,5.48,5.15,0,0,.57,1.29,2.17,5.1s4.12,1.8,4.12,1.8a3,3,0,0,0,1.37-3.93c-.4-1.39-2.83-.73-2.83-.73q-.6-3.83,2.48-3.25c0-3.63,2.34-4.47,2.36-4.46l.06,0Z" fill="#fff" stroke="#000" stroke-miterlimit="10" stroke-width="2"/><path d="M262.36,182.84h-25.9l3.45-101H259Z" fill="#fff" stroke="#000" stroke-miterlimit="10" stroke-width="2" fill-rule="evenodd"/><path d="M263.79,239h-27.5L236,193.14h27.79Z" fill="#fff" stroke="#000" stroke-miterlimit="10" stroke-width="2" fill-rule="evenodd"/><path d="M236,187.91h27.87c1.94,0,3.51,1.18,3.51,2.64s-1.57,2.64-3.51,2.64H236c-1.95,0-3.52-1.18-3.52-2.64S234.09,187.91,236,187.91Z" fill="#fff" stroke="#000" stroke-miterlimit="10" stroke-width="2"/><path d="M237.45,183h24.33c1.73,0,3.13,1.11,3.13,2.48h0c0,1.37-1.4,2.48-3.13,2.48H237.45c-1.73,0-3.13-1.11-3.13-2.48h0C234.32,184.06,235.72,183,237.45,183Z" fill="#fff" stroke="#000" stroke-miterlimit="10" stroke-width="2" fill-rule="evenodd"/><path d="M242.44,201.73h14.69V232H242.44Z" fill="#fff" stroke="#000" stroke-miterlimit="10" stroke-width="2"/><path d="M240.84,78.29h16.88c1.38,0,2.51.82,2.51,1.82s-1.13,1.83-2.51,1.83H240.84c-1.38,0-2.51-.82-2.51-1.83S239.46,78.29,240.84,78.29Z" fill="#fff" stroke="#000" stroke-miterlimit="10" stroke-width="2"/><path d="M131.37,239.13h39.17v5.29H131.37Z" fill="#fff" stroke="#000" stroke-miterlimit="10" stroke-width="2" fill-rule="evenodd"/><path d="M230.45,239.13h39.17v5.29H230.45Z" fill="#fff" stroke="#000" stroke-miterlimit="10" stroke-width="2" fill-rule="evenodd"/></svg>