<svg xmlns="http://www.w3.org/2000/svg" width="1200px" height="900px" viewBox="0 0 3600 2700">
 <defs>
  <style type="text/css">
   <![CDATA[
    .str1 {stroke:#000;stroke-width:4}
    .str3 {stroke:#000;stroke-width:8;stroke-linecap:round;stroke-linejoin:round}
    .str2 {stroke:#000;stroke-width:12;stroke-linecap:round;stroke-linejoin:round}
    .fil5 {fill:none}
    .fil2 {fill:#002868}
    .fil1 {fill:#BF0A30}
    .fil3 {fill:#ffca00}
    .fil0 {fill:white}
   ]]>
  </style>
 </defs>
<rect class="fil0" width="3600" height="2700"/>
<rect class="fil1" width="3600" height="1350"/>
<rect class="fil2" width="900" height="2700"/>
<polygon class="fil3" points="113.178,1487.3 149.066,1487.78 147.932,1332.31 216.722,1488.6 254.061,1488.6 254.061,1259.91 217.612,1260.4 218.166,1404.99 153.869,1261.05 113.732,1261.54"/>
<path class="fil3" d="M769.07 1332.47l38.2217 0c-0.523228,-22.9134 -1.09724,-44.5654 -19.3028,-61.8543 -19.3382,-21.5244 -58.8094,-27.9402 -84.0626,-13.813 -16.3748,9.14528 -30.2055,25.4563 -39.437,51.7346 -12.1146,44.2465 -6.64252,99.6555 1.03228,125.73 9.13937,27.6343 23.4756,42.3815 42.5551,51.685 38.7626,13.0205 71.2311,0.242126 91.1374,-34.865 5.09173,-10.011 10.9346,-29.2028 9.91654,-50.4744l-39.8811 0.486614c0.0779528,21.8634 -6.25512,42.7169 -32.335,42.7122 -25.0287,-0.0259843 -35.2996,-24.9449 -37.6146,-46.1445 -2.64331,-24.1961 -2.71772,-48.1512 4.25551,-73.3949 5.50512,-21.1535 21.7346,-34.0406 44.1661,-27.489 17.3091,5.34567 21.0071,19.6394 21.3484,35.687z"/>
<polygon class="fil0" points="547.187,1494.81 461.511,1428.23 373.578,1494.4 408.422,1390.77 319.273,1325.17 426.482,1327.71 459.318,1221 490.734,1326.19 600.177,1325.84 512.385,1388.31"/>
<path class="fil3 str1" d="M182.695 950.993c104.9,-96.0969 452.007,-93.7996 548.681,2.96929 3.11929,-1.12205 65.6622,-106.636 62.5441,-105.514 -189.804,-132.966 -529.9,-110.186 -672.639,-5.25354l1.6937 6.26339 59.7201 101.535zm-48.0744 -78.6827c-56.2713,31.4232 -66.4736,44.5287 -97.3146,68.6268l68.3917 1.4315c-0.812598,6.36969 -15.7441,85.6654 -17.1602,91.2602 51.4913,-34.2177 75.9224,-49.9016 146.173,-69.6933 27.9142,-7.75039 -2.19449,-36.1098 -5.09882,-43.6547 -19.0854,8.61496 -33.7606,18.8421 -47.8299,31.376m-47.1614 -79.3465l0 0 0 0zm645.3 3.39449c56.2713,31.422 66.4736,44.5276 97.3134,68.6256l-68.3917 1.4315c0.81378,6.36969 15.7453,85.6642 17.1602,91.2602 -51.4902,-34.2177 -75.9224,-49.9028 -146.172,-69.6933 -27.9142,-7.75157 3.20197,-36.613 6.10748,-44.1579 19.0843,8.61496 35.2701,18.8421 46.8189,31.878m47.1638 -79.3441l0 0 0 0z"/>
<path class="fil5 str1" d="M182.993 951.052c3.77244,3.85984 11.1803,2.5937 21.5268,0.949606 8.17441,-1.30039 17.5358,-2.2748 24.9543,-2.22047 12.2386,0.0909449 19.187,3.85157 14.1732,9.64016m487.097 -4.9748c-6.31772,2.91969 -12.861,1.85315 -20.726,0.948425 -7.51535,-0.864567 -15.9768,-2.57953 -24.3874,-2.64921 -14.0929,-0.116929 -19.1882,5.9811 -14.7402,10.0677m-487.898 -11.7614l0 0 0 0zm547.752 3.39449l0 0 0 0z"/>
<path class="fil5 str2" d="M200.724 909.295c-0.520866,-1.37126 -30.4996,-57.1996 -30.4996,-57.1996l49.0701 43.2449 -11.4165 -63.1866 32.1378 54.0661m92.0764 -89.2654l-15.2492 36.3685m-26.6811 -27.0697l26.6811 27.0697 4.81772 29.3917m-65.1 -7.21772l24.5634 -7.22835m-25.7457 30.215l2.39646 -64.4598 36.4394 53.4992 0 0m-38.8358 10.9606l0 0 0 0zm1.18228 -22.9866l0 0 0 0zm320.072 -44.465c5.71654,-2.38701 10.0642,-5.31024 14.8287,-10.9063l-8.43661 59.4366m160.437 -1.03228l-18.0921 -10.6075 -15.998 21.6626c11.4909,-2.26299 19.213,1.20827 22.5189,11.6362 2.02795,15.3626 -7.17756,24.1323 -17.1295,24.4063 -10.4705,-0.239764 -15.874,-5.98819 -17.3457,-18.0555m-23.9787 -64.7764l27.6189 13.6252c-16.3961,11.7201 -29.8807,26.4673 -41.8122,43.7126m-38.6929 -72.1453c0.685039,0.261024 28.5496,8.36102 28.5496,8.36102 -13.5886,16.9736 -24.7287,32.0539 -33.8091,51.2161m-236.595 -54.7051c0.212598,-17.0669 15.7299,-18.9012 23.3091,-15.2646 7.57913,3.63543 9.60236,19.1209 1.80118,25.7693l-13.2921 11.3291c-5.59843,4.76929 -9.68386,12.3035 -9.35433,19.5272l30.0319 -1.14567m13.4126 -45.2433c-0.818504,7.22008 -0.454724,24.2917 1.02283,31.3476 4.37598,17.4791 22.1976,18.8846 26.752,0.655512 2.13425,-6.7311 1.97244,-26.426 0.49252,-33.6461 -5.13661,-18.1075 -24.6012,-16.4469 -28.2673,1.64291z"/>
<path class="fil5 str3" d="M465.746 816.726c10.8933,0.199606 21.4299,0.627165 21.4299,0.627165m-12.9343 -16.7421l-0.799606 43.161c-0.116929,8.1874 2.42835,10.5177 9.55039,10.5177m38.8075 2.47559c3.0378,-37.2673 -1.83898,-38.5961 -19.8437,-38.5134m-2.75787 -15.7618l-1.27087 51.9224m-23.6858 -53.8016l0 0 0 0z"/>
<path class="fil3 str1" d="M136.889 1844.82c-56.2713,-30.7276 -66.4736,-43.5437 -97.3134,-67.1091l68.3917 -1.39961c-0.814961,-6.22795 -15.7453,-83.7673 -17.1602,-89.2394 51.489,33.4606 75.9224,48.7984 146.172,68.1496 27.9142,7.58031 -2.19449,35.3114 -5.09882,42.6886 -19.0843,-8.42244 -33.7606,-18.424 -47.8287,-30.6815m-47.1626 77.5913l0 0 0 0zm645.296 -3.3189c56.2713,-30.7276 66.4748,-43.5425 97.3146,-67.1079l-68.3917 -1.39961c0.81378,-6.22795 15.7441,-83.7673 17.1602,-89.2394 -51.4902,33.4594 -75.9224,48.7972 -146.173,68.1508 -27.9142,7.57913 3.20315,35.8028 6.10748,43.1799 19.0831,-8.4248 35.2713,-18.424 46.8201,-31.1728m47.1626 77.589l0 0 0 0zm-597.222 -73.624c104.901,93.9709 452.007,91.7256 548.682,-2.90197 3.11811,1.09606 65.661,104.276 62.5429,103.178 -189.804,130.024 -529.899,107.748 -672.638,5.1378l1.69252 -6.12402 59.7201 -99.2894z"/>
<path class="fil5 str1" d="M185.72 1766.65c3.7748,-3.7748 11.8075,-1.19646 21.0673,0.242126 9.26102,1.43858 15.1264,2.24055 24.9543,2.16969 9.82559,-0.069685 19.187,-3.76535 14.1732,-9.42402m487.097 4.8626c-6.31772,-2.85354 -12.8386,-1.59094 -20.726,-0.927165 -7.48583,1.06535 -15.9791,2.31496 -24.3874,2.59134 -14.0929,-0.0956693 -19.187,-5.84882 -14.739,-9.84567m-487.9 11.5016l0 0 0 0zm547.753 -3.32008l0 0 0 0z"/>
<path class="fil5 str2" d="M424.604 1889.02c5.66811,-3.08268 7.02874,-4.30512 11.3705,-10.611l-2.42362 56.0728m22.6524 -43.3677c4.51772,-15.5031 16.9583,-16.5697 24,-11.4827 6.84685,4.94764 6.27638,23.1472 -0.806693,28.5402l-10.7327 8.17323c-5.21811,3.97205 -10.8898,10.3642 -10.6854,17.8925l31.3004 -0.618898m-133.706 -69.2646c-0.00826772,0.34252 -9.53858,58.5673 -9.94961,60.952l30.3236 4.28622m-104.42 -52.0252l23.0669 5.91496c6.21378,2.23465 7.71969,7.67244 7.72795,8.0126 1.1563,5.10236 -2.73189,27.0874 -2.73189,27.0874m-37.5024 -8.62087c-0.00826772,-0.34252 16.8697,-63.0248 16.8697,-63.0248 7.22835,1.75394 14.778,2.81693 21.6827,5.26772 14.465,4.74921 10.8791,23.9433 1.13976,31.4374m-127.309 -37.9252l24.0472 11.5335m-40.9913 5.42717l46.8071 -48.2055 -9.11339 66.8091 0 0m16.4232 7.62047l23.1331 -58.7386c7.45276,3.04606 15.8575,4.84606 23.5583,11.7142 4.99843,8.3126 2.69764,25.3606 -11.6291,26.9787 -7.89213,-1.05472 -14.4909,-4.87677 -21.411,-8.00906m94.6748 61.3524l9.33307 -63.5161m260.765 18.3236c4.57677,-4.44567 7.68898,-8.9315 10.3039,-16.2378l11.8276 62.3445m122.333 -103.657c-13.748,-11.4933 -23.9587,-1.00512 -24.8374,12.2929 0.284646,9.11339 2.79094,18.111 6.93071,26.1531 3.80787,10.0594 16.8402,20.5843 26.9551,11.8276 12.9803,-11.1461 -0.249213,-41.035 -19.0146,-33.0614 -7.33937,4.33701 -9.02953,13.0453 -7.94055,21.2339m-54.0661 -14.7047l30.2894 -11.8524c-1.29921,22.9217 -2.71772,47.3303 1.49409,64.5272m-77.5795 -36.8067c0.740551,-0.191339 30.2846,-10.5213 30.2846,-10.5213 -1.36063,22.6075 -1.7811,44.3091 1.04409,64.3748"/>
<path class="fil5 str3" d="M496.807 1896.15c10.8827,-0.505512 21.424,-0.758268 21.424,-0.758268m37.0642 34.2744c-2.18386,-37.3276 -7.19882,-37.963 -25.0146,-35.374m-4.92992 -15.222l5.97638 51.5917m-27.0815 -51.1429l1.98425 43.1209c0.412205,8.17913 3.10394,10.3429 10.213,9.88228m-12.1972 -53.0031l0 0 0 0z"/>
</svg>