<svg xmlns="http://www.w3.org/2000/svg" width="240" height="300" viewBox="0 0 240 300"><title>flag-new-hampshire-icon-stars</title><path d="M124,49.87l7.38-5.36-9.36.07-2.82-8.32-2.58,8.24h-9.11l7.37,5.37-3,8.85,7.52-5.5,7.5,5.5-3-8.85" fill="none" stroke="#000" stroke-linecap="round" stroke-linejoin="round" stroke-width="2"/><path d="M57.05,71.19l7.23-5.63L55,66,52,57.65,49.41,66.1l-9,.4,7.26,5.15-2.44,8.79,7.38-5.77,7.64,5.24-3.21-8.72" fill="none" stroke="#000" stroke-linecap="round" stroke-linejoin="round" stroke-width="2"/><path d="M16.71,133.33l9.36-.74-7.91-4.82,2-8.59L13.47,125l-7.92-4.7,3.62,8.33-7.1,6,9.25-.79,3.38,8.64,2-9.12" fill="none" stroke="#000" stroke-linecap="round" stroke-linejoin="round" stroke-width="2"/><path d="M25.29,201.19l6.82-6.38L23,196l-3.75-7.92-1.74,8.73-9,1.07,7.91,4.41-1.88,9.12L21.38,205l7.8,4.62-3.89-8.43" fill="none" stroke="#000" stroke-linecap="round" stroke-linejoin="round" stroke-width="2"/><path d="M72.46,248.84l1.61-9.12-6.81,6.5-7.78-4.14,4,8-6.57,6.3,9-1.21,3.88,8.43,1.74-9.24,9.11-1.2-8.17-4.28" fill="none" stroke="#000" stroke-linecap="round" stroke-linejoin="round" stroke-width="2"/><path d="M181.6,71.46l-7.1-5.62,9.12.26,3.07-8.18,2.55,8.44,9.12.4-7.5,5,2.54,9L186,75,178.39,80l3.21-8.58" fill="none" stroke="#000" stroke-linecap="round" stroke-linejoin="round" stroke-width="2"/><path d="M221.69,133.54l-9.11-.81,7.91-4.68-2-8.59,6.84,5.77,7.78-4.7-3.49,8.32,7.1,6-9.38-.79-3.49,8.45-2.15-9" fill="none" stroke="#000" stroke-linecap="round" stroke-linejoin="round" stroke-width="2"/><path d="M213.24,201.39l-6.7-6.31,9,1.21,3.75-8,1.88,8.71,9.12,1.21-8.05,4.42,1.87,9.13-6.83-6.45-8.05,4.42,4-8.29" fill="none" stroke="#000" stroke-linecap="round" stroke-linejoin="round" stroke-width="2"/><path d="M166.19,249l-1.61-9,6.57,6.45,7.91-4.17-3.76,8.06,6.26,6.29-9-1.21-3.71,8.33-1.74-9.12L158,253.4l8.19-4.42" fill="none" stroke="#000" stroke-linecap="round" stroke-linejoin="round" stroke-width="2"/></svg>