<svg xmlns="http://www.w3.org/2000/svg" width="600" height="400" viewbox="0 0 600 400"><path fill="#cd0a30" d="M0 0h600v400H0z"/><path fill="#002868" d="M0 161.11h600v70.34H0z"/><path fill="#002868" d="M264.83 0h70.34v400h-70.34z"/><path d="M175.83 42.44c-.09-.17-1-2.57-1-2.66s-3.2-5.94-3.2-5.94l-.26 3.37-5.77-10.73s.27 4.17.36 4.17 2.75 6.21 2.75 6.21L163 26.66l-.62.71s.09 1.77.09 1.95 3.9 7.36 3.9 7.27-5.76-10.11-5.85-10.11a11 11 0 00-1.07.71v1.86c0 .09 4.26 7.36 4.26 7.36L157.3 26.3l-1.25-.62s-.17 1.51-.17 1.6 6.91 10.64 6.91 10.64L159 32.51l-1.06-.26-.09 1.59 5.59 8.34 1.68 3.55 3.1 3.19s-3.81-3.73-3.81-3.9-1.24-2.22-1.24-2.31-3.1-3-3.1-3-.8 0-.8.08.26 2.13.26 2.22 1.6 1.69 1.6 1.69a17.47 17.47 0 01-2-.45c-.44-.18-2.22-.8-2.22-.8s-.35.8-.26.89 1.06.8 1.15.89-.8.18-.89.09-5-2.75-5-2.75l-5.68-2.84-2-.62-.09.8s2.22 1.77 2.31 1.77 6.12 3.19 6.12 3.19l-12.68-4.08H139l.62 1.42 10 3.37.18.8-.8-.62a10.56 10.56 0 00-2.92-.62c-.45 0-5.68.27-5.68.27s.18.79.27.79a11.92 11.92 0 011.5.71c.09.09 7.27-.17 7.27-.17a14.42 14.42 0 00-1.86.53 3.5 3.5 0 000 1 14.35 14.35 0 001.86.45 13.17 13.17 0 001.6-.62 8.26 8.26 0 011.07-.8c.08 0-2 1.51-2 1.59a4 4 0 000 1 8.3 8.3 0 002.13.09c.18-.09 1.69-1.15 1.69-1.07s.53 1.42.53 1.51 2.22.44 2.39.53 5.06.62 5.06.62l4.7 2.13s-4.44-1.51-4.52-1.59-2.93-.36-2.93-.36l-11.16.83s-9.13 1.51-9.22 1.51-2.22.79-2.22.79a9.93 9.93 0 001.16.62c.26.09 10.46-.7 10.46-.7l-9.49 1s-1.68 1.07-1.86 1.15A4.14 4.14 0 00136 57c0 .09.18 1 .45 1s2.75-.53 2.92-.53 4.79-.89 4.79-.89 4.7-1.33 4.79-1.33-7.63 2.31-7.63 2.31l-2.3.53s0 1.07.18 1.07a24.13 24.13 0 002.83.08 27 27 0 003.2-1c.35-.09 5.49-1.77 5.49-1.77s-4.78 2.21-5 2.21-3.9 1.78-3.9 1.78-.71 1.15-.54 1.15 1.51.18 1.6.18 2.57-1.24 2.66-1.24 4.35-2.13 4.35-2.13l-2.75 2.13-2.58 1.59s-.35.8-.26.8 1.33.35 1.33.35a20.5 20.5 0 002.13-1c.35-.27 3.63-2.31 3.63-2.31s3.55-2.21 3.82-2.39 3.63-1.51 3.63-1.51l-4.52 3-2.7 2.92c-.09.09-3.1 2.49-3.19 2.66s-3.9 3.82-4 4-1.07 2.84-1.07 2.84-.09 4.35-.09 4.79a7.72 7.72 0 00.71 2.13c.09 0 .71-2.93.71-2.93a21.23 21.23 0 001.07 3.11c.09-.27 1.15-3.2 1.24-3.2s.89.8 1 .8 1.16-.8 1.25-1.15 1.59-6.83 1.59-6.83l.8 3.64s1-.36 1.06-.89.71-4.61.8-4.52 1.07 1.42 1.24 1.33a8.77 8.77 0 001.33-1.16c0-.08.89-4.43.89-4.43l1 1.68s1.42-.35 1.42-.53 3.54-4.08 3.63-4.08 2.75-1.59 2.84-1.59a1.06 1.06 0 01-.09 1.15 35.62 35.62 0 01-2.3 2.75c-.45.35-4 4.08-4 4.17v1l1.69.71s-2.57 1.24-2.57 1.33S155.7 71 155.7 71s-.35 1.42-.18 1.42a20.18 20.18 0 012.49.18 10.5 10.5 0 01-1.25.79c-.26.18-3.72 1.87-3.72 2s-1.04 1.2-1.04 1.29a2.22 2.22 0 001 .32c.09-.09 2.57-1.06 2.57-1.06s-4.17 3.9-4.17 4a4.9 4.9 0 000 1.15c.09 0 1.16-.62 1.33-.71s3.91-3.46 4-3.55.09.62.09.62l-3.72 4.7a11.21 11.21 0 00-.89 1.07c0 .09.36 1.33.44 1.24s.89-.89 1.16-1.24 2.48-3 2.66-3.11 2.22-1.77 2.22-1.77v.8c0 .09-1.25 1.86-1.25 2s-1.33 2.48-1.42 2.66a17.43 17.43 0 00-.08 2s1 .09 1-.09 1.86-3.28 2-3.55 1.77-3.72 1.86-4.07 1.24-3.29 1.24-3.46.45-.54.45-.54.18 1.87.18 2.31.71 2 .71 1.69a27.25 27.25 0 011.24-2.75s1.5-3 1.68-3.29a14.46 14.46 0 001-2.12c0-.18 1.15-2.93 1.15-2.93v3s-1.15 3.45-1.15 3.54a30.82 30.82 0 01-1.42 3.11 18.26 18.26 0 00-1.24 2.12c0 .09-1 1.6-1 1.6l1.15-.62a12.44 12.44 0 001.51-1c.27-.26 1.6-1.95 1.6-1.68s-.8 2-.8 2.13-.89 2.92-.89 3-.71 2-.71 2-.09 1.6.09 1.6a10.26 10.26 0 001.78-1.69c.17-.26 1.41-2.74 1.41-2.74a5.82 5.82 0 01.71.7 7.43 7.43 0 001.25-.53s-.36-2.48-.36-2.57.53-1.86.62-2.3.53-2.58.62-2.84.45-4.17.45-4.08v3.63s2-.62 1.95-.62S172 74 172 74v2.59l2.48-1.51-2.48 2.31v1.79l1.76-.54L172 79.7a15.33 15.33 0 00-.1 2c0 .09-1.6 41.15-1.6 41.15s-1.33 4.7-1.5 4.79-7.19 0-7.28.08-2.39 1.34-2.39 1.42a10.51 10.51 0 01-1.06 1s.71 1.06.79 1.15a18.31 18.31 0 003.11.36c.09-.09-.53.88-.53.88s-2 1.16-2 1.25-.18 1.24 0 1.41.88.8 1.06.71l1.5-.9.62.62a5.36 5.36 0 00-.09 1.24c.09.09 1 .62 1.33.35s1.42-1.15 1.86-1.42 1.51-1.41 1.6-1.41.44.71.53.79a6 6 0 001.33.62c.18 0 1.42-.08 1.95-.08a10.63 10.63 0 002-.36 7.79 7.79 0 001.24-1.15 4.6 4.6 0 011.51.35c.09.09.71 1.16 1.15 1.33a10.76 10.76 0 001.51.36 1.39 1.39 0 00.35-.89 12.52 12.52 0 01-.08-1.59 7.89 7.89 0 011.24.26 13.15 13.15 0 011.59.8c.18.18 1.16.62 1.25.35s0-1.59.08-1.59a4.58 4.58 0 011.07.62c.17.18 1.15.71 1.24.8s1.77.79 1.77.62v-1.51c0-.09.62-.09.71 0a4.76 4.76 0 001.16.62c.17 0 .08-1.15.08-1.24s-.17-1.51-.17-1.42a11.5 11.5 0 001.95.71c.35.09 2 .53 2 .35a5.72 5.72 0 00-1-1.33c-.26-.26-2.22-1.68-2.66-2a19.39 19.39 0 00-2.48-.79s-4.61-.27-5.15-.27-1.5-1.42-1.59-1.69-.53-2.74-.62-2.74-.53-4.26-.53-4.26l-.27-26.69-.8-20-1.06-2.66s3.38 7.39 3.38 7.48.62 2.57.62 2.66.18 1.87.18 1.87l1.24-.18.44-1.69-4.26-11.17-.88-1.86s5.14 13 5.41 13 1.33-1.42 1.33-1.42l-3.55-9.57-2.66-1.95s3 1.77 3 1.5a3.42 3.42 0 011.13-1.3c.18 0-1.07 1.69-1.07 1.69s3.42 11.65 3.42 11.71.75.5.82.25.69-2.38.69-2.44-.76-3-.88-3.33-2.51-7.77-2.51-7.77 4 10.41 3.89 10.66-.06 2.07-.06 2.13a5.8 5.8 0 001.44-.06c0-.07.06-2.07.06-2.39a9.74 9.74 0 00-.56-2c-.13-.19-2.7-8.22-2.7-8.22s4.08 11.1 4.08 11.16a9.86 9.86 0 00.43 1.45c.07 0 1.51.69 1.51.69a10.28 10.28 0 00.5 1.63 8.57 8.57 0 001.07.5c0-.06.19-6 .19-6l-.51-2.32s1.51 4.07 1.51 4.26.25 2.45.31 2.57a5.5 5.5 0 001.44.63c0-.06.32-1.57.32-1.57l1.19.94s1.07-.25 1.07-.37-.38-2.26-.44-2.39-1.34-3.48-1.34-3.48 2.51 3.58 2.57 3.76 1 .88 1 .76a7.92 7.92 0 00-.06-1.7 18.57 18.57 0 01-1.32-2.38l-1.69-3.89.69.44s4.58 6.15 4.64 6.15a6.78 6.78 0 001.06.25 2.38 2.38 0 00.07-.94c-.07 0-1.38-2.57-1.44-2.7s-4.14-6.39-4.14-6.39L202 75.2a8.6 8.6 0 001.32.5 2.07 2.07 0 00.19-.88c-.07-.12-1-1.81-1.13-1.94s-4.33-6.52-4.45-6.65S194.8 61 194.8 61s3.95 2.38 4.2 2.63 6.34 5.65 6.52 5.77 2.39 1.63 2.39 1.69a11.26 11.26 0 001.13.44c-.07 0-.88-1.69-.88-1.69a13.18 13.18 0 011.94.75c.19.19 1.69.69 1.88.82a5.19 5.19 0 001.32.06 8.92 8.92 0 00-.69-1.25c-.13-.07-1.63-1.32-1.63-1.32l2 1c.12.07 1.75.38 1.75.38a7.89 7.89 0 00.88-.31c.06-.07 0-1-.13-1S208.16 65 208.16 65s2.57.88 2.63.88l2.07-.25-.44-.88-9.72-3.51s-3.7-2.45-3.64-2.38 3.58.87 3.7.87 5 .32 5 .26-2.76-1.22-2.76-1.22l3.89-.19 5.64-.19a7.43 7.43 0 011-.87 8.66 8.66 0 001.13-.94l-.25-3.08-.69-1.13s-2.82-.56-2.82-.62a12.56 12.56 0 00-1.5-.5s-8.09-.13-7.91-.19 0-.44.13-.44 2.45-.38 2.45-.38-.07-.81-.07-.75-7.77.19-7.77.19 2.32-1.19 2.38-1.19 3.07-1.76 3.32-1.82a8.21 8.21 0 001.57-1.26 5.41 5.41 0 00-1.38-.5 29.9 29.9 0 01-3.07.5 8.07 8.07 0 011.82-1.25c.81-.31 3.89-2.26 3.95-2.26a14.42 14.42 0 001.63-.94c0-.06-.32-.63-.5-.56s-3.64 1.38-3.7 1.38a13.76 13.76 0 01-1.63.12c0-.06 2.5-1.69 2.5-1.69s3.33-2.32 3.39-2.32a5.78 5.78 0 00.57-1.25 11.91 11.91 0 00-1.95.62 31.08 31.08 0 01-2.8 1.74c-.06 0 2.7-2.38 2.76-2.38s.75-1.63.75-1.63a3.94 3.94 0 00-.69-.38c0 .06-2.44 1-2.44 1l-3.39 3.51s4-4.32 4-4.57.13-1.45.13-1.45l-2.32 1s-2.45.44-2.45.5-5.7 5.52-5.83 5.64-4 2.7-4 2.7-2.63 1.69-2.7 1.75-2.32.51-2.32.51-.18-.63 0-.69 1.89-2.89 1.95-2.95 2.13-4.83 2.13-4.83l.13-3.2-.26-.56s-2.5 4.58-2.5 4.64-.13-.44-.07-.5 2.79-5.3 2.79-5.3l.07-2s-.44-.56-.57-.38-4.14 7.09-4.14 7.09a7.3 7.3 0 01-.69.75c0-.06 4.58-8.34 4.64-8.34a8.25 8.25 0 00.63-1.5c.06-.25.13-2.76.13-2.76l-.69-.63s-1.57 1.88-1.57 2-3.39 7.27-3.39 7.27l.57-1.44c.25-.63 2.63-6.84 2.63-6.84s-.38-.87-.38-.75-1.63 2.2-1.63 2.38-2.38 4.83-2.38 4.83 2.04-5.49 2.1-5.49.38-2.07.38-2.14-.94-.12-1 .13-1.26 1.44-1.45 2.19-2.26 6.5-2.26 6.69-1.76 4.58-1.7 4.52 1.57-5.27 1.57-5.39-.31-3.33-.31-3.33-.51-.31-.51-.19-.68 1.51-.68 1.51-1.57 3.26-1.57 3.45-1 4.07-1 4.07l-.62 3.77-.38 1.31v-.06" fill="#fff" stroke="#cd0a30" stroke-width=".88" fill-rule="evenodd"/><path d="M168.28 57.39l.43 1.76s1.13-.76 1.2-.82.56-1.13.56-1.13m-.94 1.51s.25 1.82.25 1.88.63-1.19.63-1.19l.31-.94a6.57 6.57 0 00.63.69 3.69 3.69 0 01.81.06c.07.06.63 1.63.63 1.63l.75-1.57s.63-1.19.63-1.13S174 61 174 61s.13 1.57.13 1.75-.19 3.45-.19 3.52a11.35 11.35 0 001.32-.44l.81-1.63s.38-2.7.38-2.57a20.76 20.76 0 00.37 2.19c.07 0 .88-.63.82-.94a8.73 8.73 0 00-.38-1.07m-.33-3.29v1.88a4.85 4.85 0 00.44 1.38c.12.06.63.25.75.19s.63-1.38.69-1.38a14.65 14.65 0 001.07-1.32 10.58 10.58 0 00.37-1.44m1.26-1.94l.56 1.94s1.13.94 1.13 1 .31 1.88.31 2-1.25 1.63-1.25 1.63l-.75 1.25 1.63.75s-.25.82-.44.88a19.24 19.24 0 00-1.57 1.19 6.66 6.66 0 011.57.13c.06.12.25 1.13.31 1.44s.94.57.94.57l1.26-.76" fill="#fff" stroke="#cd0a30" stroke-width=".88" fill-rule="evenodd"/><path d="M184 64.6c-.06.19-.62.94-.62 1a8.37 8.37 0 001 .56l.44.88a7.14 7.14 0 01.94.5 11.12 11.12 0 00-.06 1.5c.06 0 1-.06 1 .19a12.18 12.18 0 00.2 1.77 10.29 10.29 0 011.25 1.13c0 .12.32 1.38.32 1.38l.5 1.06 1.5-.75m1.32 1.32l-.88-1.07s-.5-2-.5-2.13-1.19-3-1.32-3.26-2.69-5-2.69-5.14a11.35 11.35 0 00-.63-1.26" fill="#fff" stroke="#cd0a30" stroke-width=".88" fill-rule="evenodd"/><path d="M182.51 56.58l1.51-.13c.06 0 1 .94 1.06.94a9.16 9.16 0 011.63 1.51c0 .18 1 2.13 1.13 2.44s1.63 1.88 1.69 2.13.13 2.26.19 2.39 2.32 3.82 2.38 4 .63 1.38.63 1.44-.19 1.76-.19 1.82.82 1.5.88 1.69a19.3 19.3 0 00.75 2.26 10.28 10.28 0 011.2 2v1.44" fill="#fff" stroke="#cd0a30" stroke-width=".88" fill-rule="evenodd"/><path d="M191.1 72.69a6.51 6.51 0 001.07.13l1.25-1.51.88-.19.75-1.44 1.82-.44" fill="#fff" stroke="#cd0a30" stroke-width=".88" fill-rule="evenodd"/><path d="M188.09 57.83c.06.06 1.38 2.13 1.51 2.38s1.81 3.89 1.81 3.95 2.39 4.2 2.39 4.27 0 3.38.12 3.63 1.32 1.82 1.38 2 .57 1.88.57 1.88m.31-4.31c.06-.51.13-3.14.13-3.2a18.81 18.81 0 01-1.26-2.7 18.64 18.64 0 00-1.05-3.26c-.13-.12-1.57-3.13-1.7-3.26s-.81-1.57-1-1.76a23.17 23.17 0 01-1.08-2.45m-3.95 2.64a5.18 5.18 0 00.76-1.82 11 11 0 00-.63-2c-.06-.07-1.57-1-1.57-1l-1.76-.62m.93-.33l1.37.57 1.13-.07c.07 0 1.26-.94 1.13-.94s-1.94-1.06-1.94-1.06-1.82-.69-1.88-.69l-1.81.12s2.13-2.44 2.32-2.69l1.5-2m4.91.56c-.07 0-1.45 1.31-1.57 1.37s-2.2.69-2.26 1a2.29 2.29 0 00.19.87l2.13-1.13s1 1 1.25 1.13a4.38 4.38 0 01.57 1.38m5.33-2.43a7.41 7.41 0 00-1.51.5c-.06.06-1.56 1.13-1.56 1.19s-.88.63-.88.69m10.47 7.65c0 .13 4.08.38 4.08.38m-3.45-1.76h3.7c.06 0 1.25-.56 1.31-.44a3.21 3.21 0 00.94.76 20.21 20.21 0 002.7 0c.13 0 1.82.12 2.26.06s1.63-.38 1.63-.38m-9.72-2.63c.12 0 2.88.38 3.32.38l3.33.06 3 .06m-13.29-1.63a15.23 15.23 0 002.07.13c.57 0 1.63-.57 2.13-.51s2.39-.12 3-.06 4.89.25 4.89.32m-19.74-.26c.25 0 2.2-.5 2.45-.5s3.26-.12 3.7-.25 2.07-.69 2.07-.69m-8.47-.12a12.06 12.06 0 012.07-.94 13.27 13.27 0 011.63-.32m4.83-15.3c-.31.44-2.2 2.13-2.32 2.32s-2.13 1.26-2.26 1.38l-.69.63M172.1 83.16c.13-.06 1.88-1.5 1.63-1.13s-1.82 3-1.82 3m-.06 1.08l1.25.57-1.63 1.5m.25 2.32c.19 0 2-.38 1.89-.12s-2 2.25-2 2.25m-.14 2.37c.07.07 1.95.19 1.76.57s-1.82 1.19-1.82 1.25m-.12.89c.06.38 1.75 1.69 1.69 1.69m-1.63 3.45c.06 0 2.13.88 2.13.88m-2.26 2.89c.07.31 1.32.94 1.32.94m-1.54 2.69l2 1.38m-2.09 2.37c.13.25 1.76 1.88 1.76 1.88m-2.14 3.12c.07.06 2.32 1.57 2.32 1.57m-2.85 2.91c.13.13 2.13 1.07 2.13 1.07m-3.35 3.14c0 .31.56 1.25.56 1.44s.63.75.82.88a10.13 10.13 0 001.75 1c.25 0 1.63-.5 2-.57s2.38-.37 2.69-.37 3-.38 3.2-.38 1.19-1 1.19-.94m-1.8-5.75c-.19.13-1.76.88-1.76.94a9.13 9.13 0 01-1.13.63m2.39-5.57a8.28 8.28 0 01-1.07.81c-.19.13-1.57.88-1.57.88m2.7-6.24c-.19.13-1.32 1.2-1.38 1.26s-1.44.44-1.51.5m2.83-5.77c-.07.13-1 .94-1.07 1s-1.32.82-1.32.82m2.32-6.15a10.62 10.62 0 01-1.44 1.51c-.12.06-2.26.88-2.26.88m3.64-6.5c-.13.25-1.57 1.44-1.69 1.63s-2.14 2.07-2.14 2.07m3.64-6.86c-.25.31-2.26 1.88-2.26 1.88l2.14-1m0-5.02l-2.7 1.44s2.13.57 2.13.38.82-.82.82-.82m-.19-5.26c-.31.19-1.32 1.5-1.38 1.5s-1.51.88-1.51.88l2.2-.12m.5-6.4c-.25.25-1.69 1.63-1.69 1.69s-1.07.57-.88.63a24 24 0 002.57-.5m-.38-5.12c0 .06-1.12 1.19-1.12 1.19s-1.38.94-1.13.94 2.25-.88 2.32-.88m-.19-5.1a7.21 7.21 0 01-1.13.94l-1 .88 1.82-.57m.18-5.01c.07.19-1.12 1.5-1.12 1.5s-.44.76-.32.69 1.63-1.19 1.63-1.19" fill="#fff" stroke="#cd0a30" stroke-width=".88" fill-rule="evenodd"/><path d="M86.06 23.62a54.55 54.55 0 1014.36 107.16 54.52 54.52 0 010-105.21 54.46 54.46 0 00-14.36-1.95zm225.27 39.66l-11.44-8.51-11.57 8.33 4.56-13.51-11.5-8.44 14.26.17 4.47-13.54 4.25 13.61 14.26.06L307 49.7zm0 43.97l-11.44-8.51-11.57 8.33 4.56-13.51-11.5-8.44 14.26.17 4.47-13.54 4.25 13.61 14.26.06L307 93.67zm0 43.97l-11.44-8.51-11.57 8.29 4.56-13.51-11.5-8.44 14.26.17 4.47-13.54 4.25 13.61 14.26.06-11.62 8.29zm0 115.83l-11.44-8.51-11.57 8.32 4.56-13.51-11.5-8.43 14.26.16 4.47-13.54 4.25 13.61 14.26.07-11.62 8.25zm0 46.95l-11.44-8.51-11.57 8.32 4.56-13.51-11.5-8.43 14.26.16 4.47-13.54 4.25 13.61 14.26.07-11.62 8.22zm0 46.91l-11.44-8.52-11.57 8.33 4.56-13.51-11.5-8.44 14.26.17 4.47-13.54 4.25 13.6 14.26.06-11.62 8.26zm-77-146.91l-11.44-8.51-11.58 8.32 4.56-13.51-11.49-8.43 14.25.16 4.47-13.54 4.26 13.61 14.26.07-11.62 8.28zm-63.51 0l-11.44-8.51-11.57 8.32 4.56-13.51-11.5-8.43 14.26.16 4.47-13.54 4.25 13.61 14.26.07-11.63 8.25zm-63.5 0l-11.44-8.51-11.57 8.32 4.56-13.51-11.5-8.43 14.26.16 4.47-13.54 4.25 13.61 14.26.07-11.61 8.28zm-63.5 0l-11.44-8.51-11.58 8.35 4.56-13.51-11.49-8.43 14.25.16 4.47-13.54 4.26 13.61 14.26.07-11.63 8.25zm341.48 0l-11.44-8.51-11.58 8.32 4.56-13.51-11.49-8.43 14.25.16 4.47-13.54 4.26 13.61 14.26.07-11.59 8.28zm64.3 0l-11.44-8.51-11.58 8.32 4.56-13.51-11.49-8.43 14.26.16 4.47-13.54 4.25 13.61 14.26.07-11.63 8.25zm64.3 0l-11.44-8.51-11.57 8.32 4.56-13.51-11.45-8.4 14.26.16 4.47-13.54 4.25 13.61 14.26.07-11.63 8.25zm64.3 0l-11.44-8.51-11.57 8.32 4.56-13.51-11.5-8.43 14.26.16 4.49-13.51 4.25 13.61 14.26.07-11.63 8.25zm-256.8 15.81l-21.6-16.08-21.87 15.73 8.61-25.52L264.83 188l26.93.31 8.45-25.58 8 25.71 26.93.13-22 15.58z" fill="#fff"/></svg>
