<svg xmlns="http://www.w3.org/2000/svg" width="600" height="400" viewBox="0 0 600 400"><path fill="#fff" d="M0 0h600v400H0z"/><path d="M228 343.39v-1.62h1.38a2.93 2.93 0 001.73-.35q.42-.36.42-1.89v-12.71c0-1-.14-1.63-.42-1.86a2.84 2.84 0 00-1.73-.36H228V323h10v1.6h-1.37a2.83 2.83 0 00-1.74.36c-.27.24-.41.86-.41 1.86v12.71q0 1.53.42 1.89a2.89 2.89 0 001.74.35H238v1.62zM239.77 323h10v1.6h-1.51a3 3 0 00-1.76.36c-.28.24-.41.86-.41 1.87v14.95H251a10.8 10.8 0 003.41-.42 2.88 2.88 0 001.69-1.36 5.93 5.93 0 00.58-1.85 17.69 17.69 0 00.18-2.78v-.44h1.59v8.47h-18.69v-1.62H241a3 3 0 001.75-.35q.42-.36.42-1.89v-12.72c0-1-.14-1.63-.42-1.86a2.85 2.85 0 00-1.74-.36h-1.25V323zM260.56 323h10v1.6h-1.51a3 3 0 00-1.76.36c-.28.24-.42.86-.42 1.87v14.95h4.88a10.8 10.8 0 003.41-.42 2.91 2.91 0 001.69-1.36 5.93 5.93 0 00.58-1.85 17.85 17.85 0 00.17-2.78v-.44h1.59v8.47h-18.63v-1.62h1.25a3 3 0 001.74-.35c.29-.24.43-.87.43-1.89v-12.72c0-1-.14-1.63-.42-1.86a2.89 2.89 0 00-1.75-.36h-1.25zM281.4 343.39v-1.62h1.38a2.93 2.93 0 001.73-.35q.42-.36.42-1.89v-12.71c0-1-.14-1.63-.42-1.86a2.84 2.84 0 00-1.73-.36h-1.38V323h10.06v1.6h-1.37a2.83 2.83 0 00-1.74.36c-.27.24-.4.86-.4 1.86v12.71c0 1 .14 1.65.41 1.89a2.89 2.89 0 001.74.35h1.37v1.62zM313.69 343.48h-2.59l-12.49-17.73v13.78c0 1 .14 1.65.41 1.89a2.89 2.89 0 001.74.35h1.53v1.62h-9.07v-1.62h1.19a3 3 0 001.74-.35q.42-.36.42-1.89v-12.67c0-1-.14-1.66-.42-1.9a2.89 2.89 0 00-1.74-.36h-1.19V323h6.84l11.58 16.39v-12.53q0-1.53-.42-1.89a2.82 2.82 0 00-1.73-.36h-1.62V323h9v1.61h-1a2.82 2.82 0 00-1.73.36q-.42.36-.42 1.89v16.63zM322.16 333.18a10 10 0 002.09 6.64 7.46 7.46 0 0011.09 0 11.63 11.63 0 000-13.26 7.47 7.47 0 00-11.1 0 9.91 9.91 0 00-2.08 6.62zm-3.3 0a11.13 11.13 0 01.86-4.42 10.47 10.47 0 012.51-3.58 10 10 0 013.4-2.07 12.25 12.25 0 018.33 0 10.16 10.16 0 013.41 2.07 10.39 10.39 0 012.51 3.58 11.84 11.84 0 010 8.86 10.57 10.57 0 01-2.51 3.59 10 10 0 01-3.41 2.06 12.25 12.25 0 01-8.33 0 10 10 0 01-3.4-2.06 10.42 10.42 0 01-2.51-3.59 11.26 11.26 0 01-.86-4.44zM342.86 343.39v-1.62h1.38a2.91 2.91 0 001.73-.35q.42-.36.42-1.89v-12.71c0-1-.14-1.63-.42-1.86a2.82 2.82 0 00-1.73-.36h-1.38V323h10.06v1.6h-1.37a2.83 2.83 0 00-1.74.36c-.27.24-.4.86-.4 1.86v12.71q0 1.53.42 1.89a2.83 2.83 0 001.73.35h1.37v1.62zM355.14 343.39v-8.45h1.68a8.59 8.59 0 002.49 5.24 7.11 7.11 0 005.08 1.9 5.58 5.58 0 003.55-1.05 3.37 3.37 0 001.34-2.77 2.83 2.83 0 00-1-2.3 9.31 9.31 0 00-3.7-1.41l-2.52-.56q-4.1-.92-5.47-2.19a5.5 5.5 0 01.61-7.88 8.61 8.61 0 015.37-1.53 8.78 8.78 0 013.17.56 10.27 10.27 0 012.9 1.71l.89-1.84H371v7.72h-1.7a7.67 7.67 0 00-2.11-4.74 6.44 6.44 0 00-4.6-1.64 5.94 5.94 0 00-3.52.91 3 3 0 00-1.26 2.55 2.54 2.54 0 001 2.07 7.46 7.46 0 003.19 1.21l2.93.61a12.36 12.36 0 015.54 2.18 4.91 4.91 0 011.62 3.93 5.77 5.77 0 01-2.09 4.62 8.22 8.22 0 01-5.48 1.77 9.29 9.29 0 01-3.61-.7 10.17 10.17 0 01-3.17-2.16l-1 2.25h-1.56zM202.78 255.05l-6.35-9.45h-1v-.18H180l.21.58a76.31 76.31 0 007.54 9.16 4.23 4.23 0 00.81.59c1.39-.52 4.09-.37 6.7-.23s5.25.29 6.82-.19v-.11a4.93 4.93 0 00.7-.17zM343.35 238.71h-.1s8.4 16.4 11.08 16.41h.69v.07c1.31 0 4.07.28 6.75.54s5.7.58 7.18.58a29.16 29.16 0 003.66-.36 30.35 30.35 0 018.33-.32c4.85.69 7.13.69 10.13 0a21 21 0 016 .24 30.55 30.55 0 005.19.25c4.63-4.57 11.39-17.11 11.39-17.11zm47.27 16.47l-.94.18.41-.09a3.89 3.89 0 01.53-.09z" fill="#00205b"/><path d="M375.43 248.41a5.22 5.22 0 017.23.29M388.1 248.88a5.21 5.21 0 017.23.28M393.1 245.38a5.22 5.22 0 017.22.29M391.58 242.87a5.23 5.23 0 017.22.28M358 243.94a5.24 5.24 0 017.23.27M365.44 250a5.21 5.21 0 017.22.27M355.63 252.53a5.22 5.22 0 017.23.28M396.2 251.22a5.23 5.23 0 017.23.26M369.1 244.47a5.24 5.24 0 017.23.28M351 242.5a5.22 5.22 0 017.22.26M364.46 247.43a5.24 5.24 0 017.23.28M382.49 246.11a5.19 5.19 0 017.22.27M386.75 252.73a5.25 5.25 0 017.25.27M382.93 242.25c1-.79 3-2.68 6.24.27M361.45 242.05c1-.8 3.56-2.67 6.76.29M401 242.43c1-.78 3-2.66 6.24.28M378.73 251.38c1-.81 3-2.68 6.24.27M377 243.33c1-.81 3-2.69 6.24.28M370.77 242.2c.31-.85 1.65-3.09 3.88.32M355.2 246.61c1-.8 3-2.67 6.24.28M365 253.53c1.49-1.22 3.49-2.28 6.24.26M357.07 249.48c1.48-1.21 3.47-2.26 6.24.28M396.84 247.89c1.48-1.21 3.47-2.26 6.24.28M399.51 244.94c1.49-1.21 3.48-2.27 6.25.28M373.86 253.79c1-.8 3-2.68 6.24.28M187.94 248.64a5.22 5.22 0 017.22.29M192.43 252.66c1-.8 3-2.68 6.24.28" fill="none" stroke="#fff" stroke-width=".86"/><path d="M283.12 230.76l2-6.33 1.52-2 11.51 1.57 17 3.72 9 1.66 14.48 24.55 14.83 1.07L340 270.64h-44.89l-8.33-4.4-12.4-11.24L292 240.85l-8.84-10.09z" fill="#b4b4b4"/><path d="M314.69 227.38c2.79-.47 14.72-1.41 18.28 5.43l-1.56.05c1.84.12 9.75-2.12 13 7.4a5.16 5.16 0 00-2.18-.34s7.69-.81 12.14 14.22c.77 2.79-9.92-1-15.72.89m15.66-.27c2.4.88 2.85 5 4.07 6.22s4 2.91 3.78 5-3.56 5.16-6.58 5.83-11.26-1.46-14.37-1.14-12.38 3.14-17.51 3-10.35-2.36-14.7-2.25-11.93.66-14.15-.8m-4.25-3.24c-.55-2-1.43-8.71 6.15-11.41a42.63 42.63 0 014.78-1.17c1.72-.53 3.06-1.06 4.3-.62s2.39 3.14 6.62 3.7m2.36-19.71c-1.45-.12-2.56-2.68-6-2.24s-8.6 3.92-9.37 8.51-.85 6.43 2.38 10" fill="#b4b4b4" stroke="#000" stroke-width=".64"/><path d="M311.44 243.9v6.1a.55.55 0 00.57.62h.81v1.09h-5v-1.09h.85c.39 0 .57-.25.57-.62v-4h-1.39v-1.09h.33a1.56 1.56 0 001.63-1h1.66M321.26 245.66c0 .84-.63 1.22-1.33 1.47a2.32 2.32 0 011.74 2.26c0 2-1.76 2.53-3.63 2.53-1.41 0-3.49-.29-3.49-2.13a1.91 1.91 0 011.5-1.93 2 2 0 01-1.21-1.67c0-2 1.69-2.49 3.37-2.49 1.24 0 3.05.39 3.05 1.96zM317 248.4a1.45 1.45 0 00-.94 1.17c0 1.12 1.06 1.4 2 1.4.68 0 1.58-.24 1.58-1.06 0-.37-.21-.64-1.14-1zm2.19-1.91a.89.89 0 00.48-.83c0-.81-.86-1-1.51-1s-1.37.15-1.37.88a.62.62 0 00.48.61l1.59.56.33-.22M324.86 247.52a2.9 2.9 0 012-.58 2.41 2.41 0 012.66 2.36c0 1.85-1.63 2.62-3.29 2.62-2.53 0-3.72-1.43-3.72-3.76 0-2.66 1.22-4.46 4-4.46 1 0 2.64.51 2.64 1.65 0 .8-.46 1.12-1.27 1.12a.94.94 0 01-1-.85.77.77 0 01.5-.76 1.18 1.18 0 00-.66-.2c-1.33 0-1.87 1-1.87 2.15v.71zm.14 1.92c0 1 .4 1.45 1.06 1.45s1.06-.46 1.06-1.45-.4-1.46-1.06-1.46-1.06.45-1.06 1.46M337 245.66c0 .84-.62 1.22-1.33 1.47a2.31 2.31 0 011.74 2.26c0 2-1.77 2.53-3.62 2.53-1.41 0-3.5-.29-3.5-2.13a1.9 1.9 0 011.5-1.93 2 2 0 01-1.22-1.67c0-2 1.7-2.49 3.38-2.49 1.26 0 3.05.39 3.05 1.96zm-4.22 2.74a1.47 1.47 0 00-.94 1.17c0 1.12 1.06 1.4 2 1.4.69 0 1.59-.24 1.59-1.06 0-.37-.22-.64-1.15-1zm2.2-1.91a.89.89 0 00.48-.83c0-.81-.86-1-1.51-1s-1.37.15-1.37.88a.62.62 0 00.48.61l1.59.56.33-.22M323.42 258.68v6.13a.54.54 0 00.57.62h.8v1.09h-5v-1.09h.85a.55.55 0 00.58-.62v-4h-1.39v-1.09h.32a1.57 1.57 0 001.63-1h1.67M333.23 260.44c0 .84-.61 1.23-1.32 1.47a2.32 2.32 0 011.74 2.25c0 2-1.77 2.54-3.63 2.54-1.41 0-3.5-.29-3.5-2.14a1.9 1.9 0 011.5-1.91 2 2 0 01-1.21-1.67c0-2 1.69-2.49 3.37-2.49 1.24 0 3.05.39 3.05 1.95zm-4.23 2.73a1.47 1.47 0 00-.93 1.18c0 1.12 1.05 1.4 2 1.4.68 0 1.58-.24 1.58-1.07 0-.37-.22-.63-1.15-1l-1.49-.54zm2.2-1.89a.87.87 0 00.47-.84c0-.8-.86-1-1.51-1s-1.37.13-1.37.88a.62.62 0 00.48.6l1.6.55.33-.2M339.17 258.68v6.13a.54.54 0 00.57.62h.8v1.09h-5v-1.09h.86a.54.54 0 00.57-.62v-4h-1.39v-1.09h.33a1.54 1.54 0 001.61-1h1.68M349 260.44c0 .84-.62 1.23-1.33 1.47a2.32 2.32 0 011.74 2.25c0 2-1.77 2.54-3.63 2.54-1.4 0-3.49-.29-3.49-2.14a1.9 1.9 0 011.5-1.91 2 2 0 01-1.21-1.67c0-2 1.7-2.49 3.37-2.49 1.25 0 3.05.39 3.05 1.95zm-4.22 2.73a1.49 1.49 0 00-.94 1.18c0 1.12 1.06 1.4 2 1.4.68 0 1.58-.24 1.58-1.07 0-.37-.21-.63-1.14-1l-1.49-.54zm2.19-1.89a.86.86 0 00.48-.84c0-.8-.86-1-1.51-1s-1.36.13-1.36.88a.6.6 0 00.48.6l1.58.55.33-.2"/><path d="M275.71 214.61c1.67 5.18 12.4 20 26.87 19.69-.79 4.21-21.43 46.51-76.69 49.5-15.59-52.65 13.14-85.68 23-88.87 3.28 13.36 21.53 19.41 26.85 19.68z" fill="#ffe60f" stroke="#000" stroke-width=".71"/><path d="M274.24 216.93c1.53 4.73 6.79 26.5 15.54 33.67-3.42 3.61-25.43 28.12-61 29.54-11.54-36 3-62 8-70.3 11.31 8.26 32.67 6.85 37.54 7.09" fill="#fff"/><path d="M247.24 198.48c5.81 12.58 21.31 17 26.94 18.24 1.9 9.46 20.59 20.95 24.75 20-.72 5.15-10.52 15.84-13.78 18.7-.06-.06-52.25-38.24-52.23-38.26 1.45-4.41 11-18.61 14.32-18.69" fill="#00205b"/><path d="M280.06 255.76s2.78 2 2.81 2c-2.27 1.84-8.08 6.29-9.38 7.17 0 0 6.6-9.18 6.57-9.17M231.52 220.23l4.14 3.05-9.56 13.36c1.81-7.19 2-8.77 5.42-16.41M238.74 225.51l5.21 3.78-19.48 27.22c-.54-3.53-.15-7.94.16-11.27l14.11-19.73M247 231.51l5.18 3.84-25.85 36.11a81.42 81.42 0 01-1.48-9L247 231.51M263.54 243.62l5.18 3.81-21.36 29.72c-1.35.73-7.86 2-9.41 2.25l25.59-35.78M255.37 237.66l5.1 3.75L233 279.76c-.61.33-2.38.27-4.19.32-.25-1.13-.93-2.93-1.18-3.69l27.76-38.73M271.82 249.69l5.19 3.79-11.73 16.26c-1.35.72-9.7 5-11.77 5.59l18.31-25.64" fill="#be0a2f"/><path d="M245.3 209.65l-1.39 4.85-1.85-4.93 4.29 3.14-5.21-.23zM253.75 209l-1.39 4.85-1.84-4.85 4.28 3.14-5.2-.23zM247 217.86l-1.38 4.85-1.85-4.94 4.29 3.14-5.21-.22zM255.81 217.35l-1.39 4.85-1.85-4.93 4.29 3.14-5.2-.23zM265.1 217.2l-1.39 4.85-1.85-4.94 4.29 3.14L261 220zM276.56 225.57l-1.38 4.85-1.85-4.93 4.29 3.13-5.21-.22zM267.64 225.92l-1.39 4.85-1.84-4.93 4.29 3.16-5.21-.23zM258.63 226.2l-1.39 4.85-1.84-4.93 4.28 3.14-5.2-.23zM269.93 234.62l-1.38 4.86-1.85-4.94 4.29 3.14-5.21-.22zM278.68 233.9l-1.39 4.85-1.84-4.93 4.28 3.14-5.2-.23zM286.65 233.1l-1.39 4.9-1.85-5 4.29 3.14-5.2-.23zM280.18 242.13l-1.39 4.87-1.79-5 4.29 3.14L276 245zM288.71 241.41l-1.39 4.85-1.85-4.94 4.29 3.14-5.21-.22z" fill="#fff"/><path d="M351.62 238.46l53.58.08-39.26-17.76-14.32 17.68z" fill="#ffe60f" stroke="#fff" stroke-width=".15"/><path d="M367.48 231.2s-9.32-4.6-10.31-5a10.69 10.69 0 00-3.35-.34s.21 2.05 1.12 2.46 11.87 4.38 11.87 4.38m1.45-2.86s-7.37-4.42-9.08-5.31a7.89 7.89 0 00-4-.62s1.08 1.95 2 2.37 10.31 5 10.31 5m35 6.85s5.45-.75 7-1 4.14-3.68 4.14-3.68-2.9-1.65-4.47-1.36-15.38 4.35-15.38 4.35 15.21-4 16.59-4.45 3.14-3.37 3.14-3.37-2.33-.75-3.56-.33S393 234 393 234s17.34-5.77 18.73-6.47 3.12-3.69 3.12-3.69-2.37-.51-3.11-.12c-.45.23-7.41 3.45-12.76 6.36 4.73-2.32 10.53-5.16 11.75-5.82 2.13-1.11 6.36-6.71 6.36-6.71s-4 .52-5.23 1.24-19.8 12.74-19.8 12.74 20.25-12.76 21.94-13.83 3.5-5.6 3.5-5.6-3.25.19-4.5 1.11-21.91 16.38-21.91 16.38 22.11-16.59 23.55-17.73 2.84-5.53 2.84-5.53-3.25-.17-4.56.8-22.75 21.46-22.75 21.46 23.45-22.33 25.32-24 3.8-6.48 3.8-6.48-3.54.66-4.64 1.9-25.27 28-25.27 28 27.33-30.45 28.68-31.88 2.23-5.71 2.23-5.71a17.71 17.71 0 00-4.69 2.87c-1.39 1.46-27.23 33.83-27.23 33.83l26.46-33c1.53-1.92 2.22-5.59 2.22-5.59s-3.42 1.21-4.84 3.08-24.66 34.79-24.66 34.79 19.4-27.65 20-28.46.67-3.7.67-3.7a5.73 5.73 0 00-2.51 1.45c-.67 1-18.86 30.15-18.86 30.15s19.68-31.42 20.37-32.61a7.09 7.09 0 00.44-3.45 5.31 5.31 0 00-2.39 1.33c-.75.93-19.2 34.34-19.2 34.34s20.18-36.26 20.82-37.36.67-4.59.67-4.59a9.11 9.11 0 00-3.46 2c-1 1.17-18.69 39.72-18.69 39.72s19.27-40.91 20.37-43.37a22.56 22.56 0 001.34-6.37s-2.43.55-3.29 1.91-19.6 47.08-19.6 47.08L405 174l.67-5s-4.07 2.7-4.68 4.58c-.31.95-7.9 22.6-11.85 35.17 4.16-12.49 11.51-34 11.74-34.61.46-1.08-.05-3.79-.05-3.79s-2.81 2.41-3.3 4c-.21.74-5.43 18.73-8.54 30.28 2.38-8 6.31-22.23 6.53-22.9.55-1.66-.44-4.8-.44-4.8a15.46 15.46 0 00-2.23 4.69c-.44 1.91-6.53 28.12-9 38.59 2.37-9.71 7.85-34 8.3-35.67.51-2-1.22-5.37-1.22-5.37s-1.94 1.76-2.12 3.12c-.13 1-3.38 22.19-5.19 34.08 2-12.18 5-34.38 5.19-35.75.26-1.9-1.45-5.5-1.45-5.5s-1.73 1.46-1.78 2.43-4.26 46.45-4.26 46.45 4.49-47.79 4.67-49.57-1.45-4.82-1.45-4.82a4.33 4.33 0 00-1.33 2.23c-.06.72-1.07 21.82-1.78 36.95.94-15.74 1.81-38.36 1.89-39.86a7.68 7.68 0 00-1.56-4.46 6.3 6.3 0 00-1.23 3.58c-.15 2.77-.5 55.85-.5 55.85s.54-56.64.51-58.43-2.44-5.38-2.44-5.38-1.91 2.92-1.79 5.49c.1 2 2.73 58.31 2.73 58.31s-2.16-50.09-2.51-52.72-3.12-4.7-3.12-4.7a17.48 17.48 0 00-.78 6.26c.24 3.35 4.22 36.84 4.22 36.84-1.57-13-3.65-30.15-3.78-31.23-.2-1.73-3.28-5.15-3.28-5.15a48.38 48.38 0 00.28 8.12c.31 1.64 7.75 42.69 7.75 42.69s-7-38.69-7.43-40.95a7.55 7.55 0 00-2.66-3.93 24.5 24.5 0 00.21 7.39c.35 1.66 8.88 37.5 8.88 37.5-.6-3-8.44-35.67-8.87-37.5a9.68 9.68 0 00-2-3.58s-.49 3.65 0 5.14S376 224.31 376 224.31s-10.41-36.61-11.66-40.07c-.76-2.16-3.72-5-3.72-5s-.06 3.63.55 5.09c.44 1.05 7.9 21.45 12.2 32.7-4.58-12.3-13.3-35.75-13.69-36.88-.52-1.57-4.67-5.38-4.67-5.38s-.68 2.47-.11 3.69 20.23 46.17 20.23 46.17-18.39-42-19.68-45-5.79-5.26-5.79-5.26.35 5.66 1.55 8 22.92 42.77 22.92 42.77S354 187.33 353.25 186s-4.67-3.25-4.67-3.25.79 4.55 2 6.39c.87 1.32 19.78 30.89 19.78 30.89-6-9.61-17.62-27.94-18.44-28.77a30.47 30.47 0 00-5.07-3.09s2.23 6.11 3.61 7.84 22.6 29.57 22.6 29.57-21.06-27.81-22.16-28.91c-1.27-1.27-4.46-2.06-4.46-2.06s2.12 4.87 3.67 6.71 21.15 25.13 21.15 25.13-17.89-21.56-19.58-23.3-4.91-2.13-4.91-2.13a31.18 31.18 0 004.79 7.4c2.72 2.82 18.7 18.87 18.7 18.87M366.18 234.22s-14.06-2.87-15.88-3.19-8 .49-8 .49 5.84 3.07 8.68 3.25 14.6 1.19 14.6 1.19" fill="#ffe60f" stroke="#fff" stroke-width=".15"/><path d="M370.19 227.24s-13.78-14.63-15.35-15.74-5.25-1.12-5.25-1.12.34 3.39 2.12 4.58 17.55 13.29 17.55 13.29-8.54-6.68-10-7.79-4.8-.56-4.8-.56a25.32 25.32 0 004.07 4.36c1.65 1.14 9.75 5.55 9.75 5.55m-1.46 2.85s-11.17-4.17-13.2-4.83-8.81-.33-8.81-.33 3.75 3.12 5.51 3.52 15.88 3.19 15.88 3.19m-.56 1.74s-14.6-1.48-15.93-1.3a44.83 44.83 0 00-5.69 2 43 43 0 005.9 1.13c1.6 0 15.61-.77 15.61-.77" fill="#ffe60f" stroke="#fff" stroke-width=".15"/><path d="M389.67 238.51a9.74 9.74 0 10-19.47 0h19.47" fill="#ffb316"/><path d="M209.38 265.7c-.73-1.36-.83-4.73-.83-4.73s-.26 4-1.2 5.56" fill="#fff" stroke="#3f863f" stroke-width=".61"/><path d="M208.59 259.75c0 1.85.79 5.95 1.51 6.49" fill="#fff" stroke="#fff" stroke-width=".61"/><path d="M225.93 288.8a12.38 12.38 0 01-.68-3.83s-.2 3.27-1 4.5" fill="#fff" stroke="#3f863f" stroke-width=".49"/><path d="M225.29 284c0 1.49.64 4.81 1.21 5.24" fill="#fff" stroke="#fff" stroke-width=".49"/><path d="M282.86 299.36c.69-1.38.69-4.76.69-4.76s.38 4 1.37 5.52" fill="#fff" stroke="#3f863f" stroke-width=".61"/><path d="M283.47 293.37c0 1.86-.61 6-1.3 6.54" fill="#fff" stroke="#fff" stroke-width=".61"/><path d="M312.79 298c.69-1.38.69-4.75.69-4.75s.37 4 1.37 5.52" fill="#fff" stroke="#3f863f" stroke-width=".61"/><path d="M313.4 292c0 1.85-.61 6-1.3 6.54" fill="#fff" stroke="#fff" stroke-width=".61"/><path d="M212.27 272.9c.69-1.4.69-4.76.69-4.76s.39 4 1.37 5.52" fill="#fff" stroke="#3f863f" stroke-width=".61"/><path d="M212.87 266.91c0 1.86-.6 6-1.3 6.56" fill="#fff" stroke="#fff" stroke-width=".61"/><path d="M257.12 297.27c.68-1.38.69-4.76.69-4.76s.37 4 1.37 5.54" fill="#fff" stroke="#3f863f" stroke-width=".61"/><path d="M257.72 291.27c0 1.86-.6 6-1.29 6.55" fill="#fff" stroke="#fff" stroke-width=".61"/><path d="M345.61 303.57c-.73-1.36-.83-4.73-.83-4.73s-.26 4-1.21 5.55" fill="#fff" stroke="#3f863f" stroke-width=".61"/><path d="M344.82 297.62c.05 1.84.8 5.95 1.5 6.47" fill="#fff" stroke="#fff" stroke-width=".61"/><path d="M268.2 301.61a13.62 13.62 0 01-.75-4.26s-.23 3.62-1.08 5" fill="#fff" stroke="#3f863f" stroke-width=".55"/><path d="M267.49 296.25c0 1.64.71 5.36 1.35 5.83" fill="#fff" stroke="#fff" stroke-width=".55"/><path d="M272.37 304.05c.69-1.38.7-4.76.7-4.76s.37 4 1.37 5.52" fill="#fff" stroke="#3f863f" stroke-width=".61"/><path d="M273 298.08c0 1.83-.61 6-1.29 6.53" fill="#fff" stroke="#fff" stroke-width=".61"/><path d="M279.85 301.9c-.74-1.35-.83-4.73-.83-4.73s-.26 4-1.2 5.55" fill="#fff" stroke="#3f863f" stroke-width=".61"/><path d="M279.07 295.94c0 1.86.79 6 1.49 6.5" fill="#fff" stroke="#fff" stroke-width=".61"/><path d="M277.83 312.09c-.72-1.36-.83-4.73-.83-4.73s-.26 4-1.2 5.55" fill="#fff" stroke="#3f863f" stroke-width=".61"/><path d="M277.05 306.13c0 1.84.79 6 1.49 6.48" fill="#fff" stroke="#fff" stroke-width=".61"/><path d="M299.08 297.14a13.88 13.88 0 01-.75-4.25s-.22 3.62-1.07 5" fill="#fff" stroke="#3f863f" stroke-width=".55"/><path d="M298.37 291.78c.05 1.68.71 5.37 1.35 5.85" fill="#fff" stroke="#fff" stroke-width=".55"/><path d="M301.3 309c-.73-1.37-.83-4.73-.83-4.73s-.26 4-1.21 5.55" fill="#fff" stroke="#3f863f" stroke-width=".61"/><path d="M300.51 303.07c.05 1.84.8 6 1.5 6.47" fill="#fff" stroke="#fff" stroke-width=".61"/><path d="M293.72 306c.69-1.38.69-4.75.69-4.75s.39 4 1.38 5.52" fill="#fff" stroke="#3f863f" stroke-width=".61"/><path d="M294.32 300c0 1.85-.61 6-1.29 6.54" fill="#fff" stroke="#fff" stroke-width=".61"/><path d="M288.14 312.56c.69-1.38.68-4.75.68-4.75s.39 4 1.38 5.51" fill="#fff" stroke="#3f863f" stroke-width=".61"/><path d="M288.74 306.58c0 1.85-.6 6-1.29 6.54" fill="#fff" stroke="#fff" stroke-width=".61"/><path d="M289.1 297a12 12 0 00.56-3.85s.32 3.24 1.12 4.47" fill="#fff" stroke="#3f863f" stroke-width=".49"/><path d="M289.6 292.11c0 1.5-.49 4.86-1.05 5.3" fill="#fff" stroke="#fff" stroke-width=".49"/><path d="M311.05 311.88a12.68 12.68 0 00.56-3.86s.31 3.24 1.11 4.47" fill="#fff" stroke="#3f863f" stroke-width=".49"/><path d="M311.54 307c0 1.49-.49 4.86-1 5.28" fill="#fff" stroke="#fff" stroke-width=".49"/><path d="M306.16 296.58a12.46 12.46 0 00.55-3.85s.31 3.26 1.12 4.47" fill="#fff" stroke="#3f863f" stroke-width=".49"/><path d="M306.65 291.74c0 1.5-.49 4.84-1 5.29" fill="#fff" stroke="#fff" stroke-width=".49"/><path d="M295.55 313.81c.7-1.39.7-4.75.7-4.75s.38 4 1.37 5.52" fill="#fff" stroke="#3f863f" stroke-width=".61"/><path d="M296.16 307.82c0 1.85-.61 6-1.3 6.53" fill="#fff" stroke="#fff" stroke-width=".61"/><path d="M305 314.25c.69-1.38.69-4.75.69-4.75s.39 4 1.38 5.51" fill="#fff" stroke="#3f863f" stroke-width=".61"/><path d="M305.63 308.27c0 1.85-.61 6-1.29 6.54" fill="#fff" stroke="#fff" stroke-width=".61"/><path d="M283.3 311.19c-.74-1.36-.83-4.73-.83-4.73s-.26 4-1.2 5.56" fill="#fff" stroke="#3f863f" stroke-width=".61"/><path d="M282.5 305.23c.05 1.86.8 6 1.51 6.48" fill="#fff" stroke="#fff" stroke-width=".61"/><path d="M285.7 305c.68-1.4.68-4.76.68-4.76s.39 4 1.38 5.51" fill="#fff" stroke="#3f863f" stroke-width=".61"/><path d="M286.3 299c0 1.85-.6 6-1.3 6.54" fill="#fff" stroke="#fff" stroke-width=".61"/><path d="M270.37 309.17c-.73-1.36-.83-4.73-.83-4.73s-.26 4-1.21 5.56" fill="#fff" stroke="#3f863f" stroke-width=".61"/><path d="M269.58 303.2c.05 1.87.79 6 1.5 6.5" fill="#fff" stroke="#fff" stroke-width=".61"/><path d="M263.35 306.5c.68-1.39.67-4.75.67-4.75s.4 4 1.38 5.52" fill="#fff" stroke="#3f863f" stroke-width=".61"/><path d="M264 300.52c0 1.84-.6 6-1.29 6.54" fill="#fff" stroke="#fff" stroke-width=".61"/><path d="M241.4 299.16c.68-1.39.68-4.75.68-4.75s.39 4 1.37 5.52" fill="#fff" stroke="#3f863f" stroke-width=".61"/><path d="M242 293.18c0 1.85-.6 6-1.29 6.53" fill="#fff" stroke="#fff" stroke-width=".61"/><path d="M249.36 302.73c-.73-1.37-.83-4.73-.83-4.73s-.26 4-1.21 5.55" fill="#fff" stroke="#3f863f" stroke-width=".61"/><path d="M248.57 296.78c.05 1.84.8 5.94 1.5 6.48" fill="#fff" stroke="#fff" stroke-width=".61"/><path d="M252.6 304.09c.68-1.39.69-4.76.69-4.76s.37 4 1.36 5.53" fill="#fff" stroke="#3f863f" stroke-width=".61"/><path d="M253.2 298.11c0 1.85-.6 6-1.29 6.54" fill="#fff" stroke="#fff" stroke-width=".61"/><path d="M260.6 305a12.52 12.52 0 01-.68-3.84s-.2 3.25-1 4.49" fill="#fff" stroke="#3f863f" stroke-width=".49"/><path d="M260 300.1c0 1.5.64 4.85 1.21 5.27" fill="#fff" stroke="#fff" stroke-width=".49"/><path d="M264.14 299.1c-.74-1.37-.84-4.73-.84-4.73s-.26 4-1.2 5.55" fill="#fff" stroke="#3f863f" stroke-width=".61"/><path d="M263.35 293.13c0 1.86.79 6 1.5 6.48" fill="#fff" stroke="#fff" stroke-width=".61"/><path d="M249 291.84c.69-1.39.69-4.75.69-4.75s.37 4 1.37 5.52" fill="#fff" stroke="#3f863f" stroke-width=".61"/><path d="M249.64 285.85c0 1.85-.6 6-1.29 6.53" fill="#fff" stroke="#fff" stroke-width=".61"/><path d="M236.56 296.3c-.74-1.39-.84-4.75-.84-4.75s-.25 4-1.2 5.55" fill="#fff" stroke="#3f863f" stroke-width=".61"/><path d="M235.76 290.31c0 1.86.79 6 1.5 6.5" fill="#fff" stroke="#fff" stroke-width=".61"/><path d="M228.76 291.49c.68-1.4.69-4.76.69-4.76s.37 4 1.37 5.52" fill="#fff" stroke="#3f863f" stroke-width=".61"/><path d="M229.35 285.51c0 1.84-.6 6-1.29 6.53" fill="#fff" stroke="#fff" stroke-width=".61"/><path d="M239.12 291.14c-.73-1.38-.84-4.73-.84-4.73s-.25 4-1.2 5.55" fill="#fff" stroke="#3f863f" stroke-width=".61"/><path d="M238.33 285.17c0 1.85.79 6 1.5 6.48" fill="#fff" stroke="#fff" stroke-width=".61"/><path d="M244.49 290.56a12.52 12.52 0 00.55-3.85s.32 3.23 1.12 4.46" fill="#fff" stroke="#3f863f" stroke-width=".49"/><path d="M245 285.7c0 1.49-.49 4.86-1 5.3" fill="#fff" stroke="#fff" stroke-width=".49"/><path d="M292.81 296.78a13.81 13.81 0 00.61-4.27s.35 3.62 1.25 5" fill="#fff" stroke="#3f863f" stroke-width=".55"/><path d="M293.35 291.41c0 1.66-.54 5.38-1.17 5.88" fill="#fff" stroke="#fff" stroke-width=".55"/><path d="M301.92 296.63c.69-1.38.69-4.76.69-4.76s.38 4 1.38 5.52" fill="#fff" stroke="#3f863f" stroke-width=".61"/><path d="M302.52 290.65c0 1.83-.61 6-1.29 6.53" fill="#fff" stroke="#fff" stroke-width=".61"/><path d="M310.57 303.93a12.36 12.36 0 01-.67-3.83s-.21 3.25-1 4.5" fill="#fff" stroke="#3f863f" stroke-width=".49"/><path d="M309.92 299.09c0 1.51.64 4.82 1.21 5.26" fill="#fff" stroke="#fff" stroke-width=".49"/><path d="M319.43 309.86a10.76 10.76 0 01-.62-3.46 12.64 12.64 0 01-.88 4.06" fill="#fff" stroke="#3f863f" stroke-width=".44"/><path d="M318.84 305.52c0 1.36.59 4.34 1.1 4.73" fill="#fff" stroke="#fff" stroke-width=".44"/><path d="M315.84 306.11c.69-1.41.69-4.76.69-4.76s.39 4 1.38 5.51" fill="#fff" stroke="#3f863f" stroke-width=".61"/><path d="M316.44 300.1c0 1.86-.6 6-1.28 6.56" fill="#fff" stroke="#fff" stroke-width=".61"/><path d="M320.31 297.84c-.73-1.35-.83-4.73-.83-4.73s-.26 4-1.2 5.56" fill="#fff" stroke="#3f863f" stroke-width=".61"/><path d="M319.52 291.88c.05 1.85.8 5.95 1.5 6.5" fill="#fff" stroke="#fff" stroke-width=".61"/><path d="M304 304.13c.69-1.38.69-4.75.69-4.75s.38 4 1.38 5.52" fill="#fff" stroke="#3f863f" stroke-width=".61"/><path d="M304.64 298.14c0 1.85-.61 6-1.29 6.54" fill="#fff" stroke="#fff" stroke-width=".61"/><path d="M323.44 303.34c-.74-1.37-.84-4.73-.84-4.73s-.25 4-1.2 5.53" fill="#fff" stroke="#3f863f" stroke-width=".61"/><path d="M322.64 297.37c0 1.85.79 6 1.49 6.49" fill="#fff" stroke="#fff" stroke-width=".61"/><path d="M341.16 295.51c-.73-1.37-.84-4.73-.84-4.73s-.24 4-1.19 5.55" fill="#fff" stroke="#3f863f" stroke-width=".61"/><path d="M340.37 289.55c0 1.85.8 6 1.51 6.49" fill="#fff" stroke="#fff" stroke-width=".61"/><path d="M324.28 290c.68-1.39.68-4.75.68-4.75s.38 4 1.37 5.51" fill="#fff" stroke="#3f863f" stroke-width=".61"/><path d="M324.88 284c0 1.85-.6 6-1.29 6.54" fill="#fff" stroke="#fff" stroke-width=".61"/><path d="M339.2 304.36c.69-1.38.69-4.75.69-4.75s.37 4 1.37 5.52" fill="#fff" stroke="#3f863f" stroke-width=".61"/><path d="M339.8 298.4c0 1.83-.6 6-1.29 6.53" fill="#fff" stroke="#fff" stroke-width=".61"/><path d="M350.19 291.84c.69-1.38.69-4.76.69-4.76s.38 4 1.37 5.54" fill="#fff" stroke="#3f863f" stroke-width=".61"/><path d="M350.8 285.75c0 1.85-.61 6-1.29 6.54" fill="#fff" stroke="#fff" stroke-width=".61"/><path d="M330.51 306.36c-.73-1.37-.83-4.73-.83-4.73s-.26 4-1.21 5.55" fill="#fff" stroke="#3f863f" stroke-width=".61"/><path d="M329.71 300.4c.05 1.84.8 6 1.5 6.48" fill="#fff" stroke="#fff" stroke-width=".61"/><path d="M329.62 295.47c.69-1.39.69-4.75.69-4.75s.38 4 1.37 5.52" fill="#fff" stroke="#3f863f" stroke-width=".61"/><path d="M330.22 289.48c0 1.85-.6 6-1.29 6.54" fill="#fff" stroke="#fff" stroke-width=".61"/><path d="M334.93 298.55a12.37 12.37 0 01-.67-3.84s-.21 3.27-1 4.51" fill="#fff" stroke="#3f863f" stroke-width=".49"/><path d="M334.29 293.72c0 1.51.63 4.83 1.2 5.26" fill="#fff" stroke="#fff" stroke-width=".49"/><path d="M318.54 288.14c.68-1.38.68-4.76.68-4.76s.39 4 1.38 5.52" fill="#fff" stroke="#3f863f" stroke-width=".61"/><path d="M319.14 282.16c0 1.83-.6 6-1.29 6.53" fill="#fff" stroke="#fff" stroke-width=".61"/><path d="M344.5 295.93c.69-1.4.69-4.76.69-4.76s.38 4 1.37 5.51" fill="#fff" stroke="#3f863f" stroke-width=".61"/><path d="M345.11 289.94c0 1.86-.61 6-1.3 6.54" fill="#fff" stroke="#fff" stroke-width=".61"/><path d="M335.86 307.66c-.73-1.39-.84-4.74-.84-4.74s-.25 4-1.2 5.55" fill="#fff" stroke="#3f863f" stroke-width=".61"/><path d="M335.07 301.68c0 1.86.79 6 1.49 6.49" fill="#fff" stroke="#fff" stroke-width=".61"/><path d="M334.25 289.94a12.51 12.51 0 00.55-3.86s.31 3.26 1.12 4.47" fill="#fff" stroke="#3f863f" stroke-width=".49"/><path d="M334.74 285.09c0 1.5-.49 4.85-1.05 5.29" fill="#fff" stroke="#fff" stroke-width=".49"/><path d="M309.63 281.26c.69-1.41.68-4.77.68-4.77s.38 4 1.37 5.52" fill="#fff" stroke="#3f863f" stroke-width=".61"/><path d="M310.23 275.26c0 1.84-.6 6-1.29 6.53" fill="#fff" stroke="#fff" stroke-width=".61"/><path d="M330.42 286.16a11.26 11.26 0 01-.61-3.46 12.64 12.64 0 01-.88 4.06" fill="#fff" stroke="#3f863f" stroke-width=".44"/><path d="M329.84 281.82c0 1.33.58 4.34 1.1 4.72" fill="#fff" stroke="#fff" stroke-width=".44"/><path d="M346 287.42a14 14 0 01-.75-4.27s-.22 3.62-1.07 5" fill="#fff" stroke="#3f863f" stroke-width=".55"/><path d="M345.3 282.05c.05 1.66.71 5.37 1.35 5.84" fill="#fff" stroke="#fff" stroke-width=".55"/><path d="M317.1 280.55c-.73-1.37-.84-4.73-.84-4.73s-.25 4-1.19 5.55" fill="#fff" stroke="#3f863f" stroke-width=".61"/><path d="M316.3 274.59c.05 1.84.8 6 1.5 6.49" fill="#fff" stroke="#fff" stroke-width=".61"/><path d="M303 279.66c-.73-1.38-.83-4.73-.83-4.73s-.26 4-1.2 5.54" fill="#fff" stroke="#3f863f" stroke-width=".61"/><path d="M302.2 273.69c.05 1.84.8 6 1.51 6.48" fill="#fff" stroke="#fff" stroke-width=".61"/><path d="M324.4 280.28a11.47 11.47 0 01-.6-3.46 12.64 12.64 0 01-.88 4.06" fill="#fff" stroke="#3f863f" stroke-width=".44"/><path d="M335.64 282.78a12.28 12.28 0 00.56-3.85s.32 3.23 1.12 4.47" fill="#fff" stroke="#3f863f" stroke-width=".49"/><path d="M336.13 277.94c0 1.49-.49 4.84-1.05 5.28" fill="#fff" stroke="#fff" stroke-width=".49"/><path d="M340.39 285.83c-.74-1.37-.83-4.73-.83-4.73s-.26 4-1.2 5.55" fill="#fff" stroke="#3f863f" stroke-width=".61"/><path d="M339.6 279.87c0 1.84.8 6 1.5 6.48" fill="#fff" stroke="#fff" stroke-width=".61"/><path d="M338.5 278.84a13.63 13.63 0 00.62-4.27s.34 3.61 1.24 5" fill="#fff" stroke="#3f863f" stroke-width=".61"/><path d="M349.63 299.28a13.86 13.86 0 00.61-4.28s.35 3.61 1.25 5" fill="#fff" stroke="#3f863f" stroke-width=".55"/><path d="M350.17 293.89c0 1.66-.54 5.39-1.16 5.87" fill="#fff" stroke="#fff" stroke-width=".55"/><path d="M328.36 280.08c.68-1.4.68-4.76.68-4.76s.39 4 1.38 5.52" fill="#fff" stroke="#3f863f" stroke-width=".61"/><path d="M329 274.08c0 1.86-.6 6-1.29 6.55" fill="#fff" stroke="#fff" stroke-width=".61"/><path d="M326.42 301.15a12.28 12.28 0 00.56-3.85s.32 3.24 1.11 4.47" fill="#fff" stroke="#3f863f" stroke-width=".49"/><path d="M326.91 296.3c0 1.49-.48 4.84-1 5.28" fill="#fff" stroke="#fff" stroke-width=".49"/><path d="M342.88 278.55a11.09 11.09 0 00.5-3.46 12.31 12.31 0 001 4" fill="#fff" stroke="#3f863f" stroke-width=".44"/><path d="M334.32 278.29a12 12 0 01-.67-3.84s-.21 3.25-1 4.51" fill="#fff" stroke="#3f863f" stroke-width=".49"/><path d="M333.68 273.45c0 1.51.64 4.85 1.21 5.28" fill="#fff" stroke="#fff" stroke-width=".49"/><path d="M348 283.56a12.46 12.46 0 00.55-3.85s.31 3.26 1.11 4.47" fill="#fff" stroke="#3f863f" stroke-width=".49"/><path d="M348.45 278.72c0 1.51-.48 4.85-1.05 5.3" fill="#fff" stroke="#fff" stroke-width=".49"/><path d="M348.53 277.58a14.16 14.16 0 01-.75-4.28s-.23 3.63-1.08 5" fill="#fff" stroke="#3f863f" stroke-width=".55"/><path d="M347.82 272.19c.05 1.68.72 5.37 1.36 5.85" fill="#fff" stroke="#fff" stroke-width=".55"/><path d="M354.6 280.61c.7-1.4.69-4.76.69-4.76s.38 4 1.38 5.51" fill="#fff" stroke="#3f863f" stroke-width=".61"/><path d="M355.21 274.61c0 1.87-.61 6-1.3 6.55" fill="#fff" stroke="#fff" stroke-width=".61"/><path d="M360.67 294c-.73-1.37-.83-4.74-.83-4.74s-.26 4-1.2 5.56" fill="#fff" stroke="#3f863f" stroke-width=".61"/><path d="M359.88 288.05c0 1.86.79 6 1.5 6.48" fill="#fff" stroke="#fff" stroke-width=".61"/><path d="M354.92 297.32a13.6 13.6 0 00.62-4.27s.34 3.61 1.24 5" fill="#fff" stroke="#3f863f" stroke-width=".55"/><path d="M355.47 291.93c0 1.67-.54 5.39-1.17 5.89" fill="#fff" stroke="#fff" stroke-width=".55"/><path d="M355.09 287.83a13.72 13.72 0 00.62-4.28s.34 3.61 1.24 4.95" fill="#fff" stroke="#3f863f" stroke-width=".55"/><path d="M355.64 282.43c0 1.67-.55 5.41-1.17 5.91" fill="#fff" stroke="#fff" stroke-width=".55"/><path d="M362.47 277.19a13.36 13.36 0 01-.75-4.26s-.23 3.61-1.09 5" fill="#fff" stroke="#228b22" stroke-width=".55"/><path d="M361.75 271.82c0 1.67.72 5.37 1.36 5.85" fill="#fff" stroke="#fff" stroke-width=".55"/><path d="M359.61 285.87c.69-1.4.69-4.76.69-4.76s.37 4 1.37 5.52" fill="#fff" stroke="#3f863f" stroke-width=".61"/><path d="M360.21 279.88c0 1.84-.6 6-1.29 6.54" fill="#fff" stroke="#fff" stroke-width=".61"/><path d="M364 292a12.61 12.61 0 00.56-3.86s.3 3.25 1.11 4.47" fill="#fff" stroke="#3f863f" stroke-width=".49"/><path d="M364.44 287.14c0 1.5-.49 4.85-1 5.29" fill="#fff" stroke="#fff" stroke-width=".49"/><path d="M365.49 284.6a11.91 11.91 0 01-.68-3.84s-.2 3.25-1 4.49" fill="#fff" stroke="#3f863f" stroke-width=".49"/><path d="M364.83 279.75c0 1.51.65 4.85 1.21 5.27" fill="#fff" stroke="#fff" stroke-width=".49"/><path d="M367.09 276.64c.69-1.41.69-4.76.69-4.76s.38 4 1.37 5.52" fill="#fff" stroke="#228b22" stroke-width=".61"/><path d="M367.69 270.64c0 1.87-.6 6-1.29 6.55" fill="#fff" stroke="#fff" stroke-width=".61"/><path d="M373 284a13.74 13.74 0 00.62-4.29s.34 3.62 1.24 5" fill="#fff" stroke="#3f863f" stroke-width=".55"/><path d="M373.59 278.64c0 1.67-.54 5.39-1.16 5.88" fill="#fff" stroke="#fff" stroke-width=".55"/><path d="M369.32 285.18a14 14 0 01-.75-4.26s-.23 3.62-1.07 5" fill="#fff" stroke="#3f863f" stroke-width=".55"/><path d="M368.61 279.81c0 1.68.71 5.37 1.35 5.85" fill="#fff" stroke="#fff" stroke-width=".55"/><path d="M368.33 266.71c-.73-1.37-.83-4.73-.83-4.73s-.26 4-1.2 5.55" fill="#fff" stroke="#3f863f" stroke-width=".61"/><path d="M367.54 260.76c0 1.84.79 5.95 1.5 6.48" fill="#fff" stroke="#fff" stroke-width=".61"/><path d="M371.88 276.52c.69-1.38.69-4.76.69-4.76s.39 4 1.38 5.54" fill="#fff" stroke="#3f863f" stroke-width=".61"/><path d="M372.48 270.54c0 1.85-.6 6-1.29 6.53" fill="#fff" stroke="#fff" stroke-width=".61"/><path d="M382.8 274.93a13.6 13.6 0 00.62-4.27s.35 3.6 1.24 5" fill="#fff" stroke="#3f863f" stroke-width=".55"/><path d="M383.35 269.54c0 1.67-.55 5.39-1.16 5.89" fill="#fff" stroke="#fff" stroke-width=".55"/><path d="M378.76 273.56a14 14 0 01-.75-4.26s-.22 3.61-1.07 5" fill="#fff" stroke="#3f863f" stroke-width=".55"/><path d="M378.05 268.19c0 1.67.71 5.37 1.35 5.85" fill="#fff" stroke="#fff" stroke-width=".55"/><path d="M379 280.7a11.15 11.15 0 01-.6-3.46 12.64 12.64 0 01-.88 4.06" fill="#fff" stroke="#3f863f" stroke-width=".44"/><path d="M378.42 276.34c0 1.36.57 4.36 1.08 4.74" fill="#fff" stroke="#fff" stroke-width=".44"/><path d="M371.67 266.12c.69-1.39.69-4.77.69-4.77s.38 4 1.37 5.52" fill="#fff" stroke="#3f863f" stroke-width=".61"/><path d="M372.27 260.14c0 1.85-.6 6-1.29 6.53" fill="#fff" stroke="#fff" stroke-width=".61"/><path d="M375.91 264.89c.68-1.39.67-4.74.67-4.74s.39 4 1.39 5.5" fill="#fff" stroke="#3f863f" stroke-width=".61"/><path d="M376.51 258.91c0 1.83-.6 6-1.29 6.53" fill="#fff" stroke="#fff" stroke-width=".61"/><path d="M382.11 267.3a13.76 13.76 0 01-.75-4.28s-.23 3.64-1.09 5" fill="#fff" stroke="#3f863f" stroke-width=".55"/><path d="M381.4 261.94c0 1.66.71 5.37 1.35 5.84" fill="#fff" stroke="#fff" stroke-width=".55"/><path d="M386.57 265.12a14 14 0 01-.75-4.27s-.23 3.62-1.07 5" fill="#fff" stroke="#3f863f" stroke-width=".55"/><path d="M385.86 259.76c0 1.67.71 5.37 1.35 5.84" fill="#fff" stroke="#fff" stroke-width=".55"/><path d="M389 266.15a14 14 0 00.62-4.28s.34 3.6 1.24 5" fill="#fff" stroke="#3f863f" stroke-width=".55"/><path d="M389.54 260.76c0 1.66-.54 5.39-1.17 5.9" fill="#fff" stroke="#fff" stroke-width=".55"/><path d="M393.92 264.58a12.07 12.07 0 01-.68-3.82s-.2 3.25-1 4.49" fill="#fff" stroke="#3f863f" stroke-width=".49"/><path d="M393.28 259.74c0 1.51.64 4.85 1.21 5.28" fill="#fff" stroke="#fff" stroke-width=".49"/><path d="M220.51 282.65c.69-1.41.69-4.76.69-4.76s.38 4 1.37 5.51" fill="#fff" stroke="#3f863f" stroke-width=".61"/><path d="M221.11 276.65c0 1.86-.6 6-1.3 6.56" fill="#fff" stroke="#fff" stroke-width=".61"/><path d="M215.61 281.71c-.74-1.35-.83-4.73-.83-4.73s-.25 4-1.2 5.56" fill="#fff" stroke="#3f863f" stroke-width=".61"/><path d="M214.82 275.76c0 1.85.79 5.95 1.49 6.49" fill="#fff" stroke="#fff" stroke-width=".61"/><path d="M211.89 278.84a12.47 12.47 0 01-.68-3.83s-.21 3.25-1 4.48" fill="#fff" stroke="#3f863f" stroke-width=".49"/><path d="M211.25 274c.05 1.49.64 4.83 1.22 5.26" fill="#fff" stroke="#fff" stroke-width=".49"/><path d="M206.15 276c.68-1.38.67-4.75.67-4.75s.38 4 1.38 5.52" fill="#fff" stroke="#3f863f" stroke-width=".61"/><path d="M206.74 270c0 1.85-.6 6-1.29 6.54" fill="#fff" stroke="#fff" stroke-width=".61"/><path d="M197.57 265.16c.68-1.39.68-4.74.68-4.74s.37 4 1.37 5.52" fill="#fff" stroke="#3f863f" stroke-width=".61"/><path d="M198.17 259.18c0 1.85-.6 6-1.29 6.53" fill="#fff" stroke="#fff" stroke-width=".61"/><path d="M195.37 260.78a11.37 11.37 0 01-.62-3.45 12.32 12.32 0 01-.87 4" fill="#fff" stroke="#3f863f" stroke-width=".44"/><path d="M194.8 256.42c0 1.35.58 4.36 1.1 4.74" fill="#fff" stroke="#fff" stroke-width=".44"/><path d="M211.2 236.36a22.9 22.9 0 001.23 10.5 33.05 33.05 0 00-13.61-7.08C196 237 193 227 194.09 223.43c5.41-.33 16 8.57 17.11 12.93zM221.43 257c-4.91-3.21-9.42-4.14-20.39-3.86 1.67 6.14 18.38 13.48 21.17 13-.24-1.06-1.06-8.15-.78-9.11z" fill="#3f863f" stroke="#000" stroke-width=".61"/><path d="M221.37 256.85c-14.21-6.31-10.4-26.78-7.89-29.16 7 3.87 7.62 12.93 8.51 15.34a95.84 95.84 0 00-.62 13.82z" fill="#3f863f" stroke="#000" stroke-width=".61"/><path d="M218.81 255.44a16.1 16.1 0 01-6.33-8.46 29.82 29.82 0 00-18.89-7.89c.16 6.68 5.73 12.88 9 14.06 5.35 0 10.86-.26 16.21 2.31v0zM276.74 285.42c-2.33 2.59-10.31 10.74-24.24 4.64a7.09 7.09 0 015.07-2.85 21.29 21.29 0 0013.94-4.14 48.86 48.86 0 005.23 2.35z" fill="#3f863f" stroke="#000" stroke-width=".61"/><path d="M276.36 276.87c-4.12-2.75-8.47-2.41-12.7-3.7-.46 8.37 12.77 11.68 13.92 12.64a14.83 14.83 0 016.52-1.27c-1.56-1.19-6-3.42-7.74-7.67z" fill="#3f863f" stroke="#000" stroke-width=".61"/><path d="M302.94 285.33c1.79-.05 7.24-1.33 8.8-.11s4.68 4.81 2.23 7.28-4.69-1-5.69-1.58-4.23-3.91-17.38-1.36c-5.75 1.12-5.75 4.83-12.33 6.16-4.81 1-5.41.06-10.93-.12 2.29-2.8 4.13-4.48 6.25-7.38s8.31-3.79 10.21-3.69c-2.85-1.95-9.47-4.87-9.52-16.39 4.35 1 9.53 2.05 15.76 14.26-2.39-5.13-6.73-10.46-8.63-11.3-.43-.18.22-7.54 1-8.78 4.68 5 5.34 5.07 7.69 7.39 3.4 3.36 2.78 8.28 4.57 11.07a10.33 10.33 0 008 4.55z" fill="#3f863f" stroke="#000" stroke-width=".61"/><path d="M271.5 283.07c-1.84 1.51-10.2 6.66-20 2.74 5.42-6.83 8.81-6.94 14.61-6.59a18.5 18.5 0 005.4 3.85zM222.2 266.13c-.62-.35-8 .62-9.09 2.24.34 2.91 8.3 7.33 10.53 6.72-.39-2.46-1.5-7.88-1.44-9z" fill="#3f863f" stroke="#000" stroke-width=".61"/><path d="M312.56 288c.78 1.11.42 3.72-1.62 2.49m.24.08c1.51.23 1.73-1.39 1.5-2.34" fill="none" stroke="#000" stroke-width=".61"/><path d="M312.69 287.4c2.39 4.55-1.23 4.48-2.29 2.76" fill="none" stroke="#3f863f" stroke-width=".61"/><path d="M285.07 268.84c.67 2.26 4.94 7.22 5.83 10.37m-12.56-5.86a42.6 42.6 0 007.84 8.58m-17.73-4.74c.67.66 5.61 4.73 10.32 6.08m-11.9-1.12c-2-.25-7.64 0-10.78 2.48m14.14 2c-1.79.45-8.53 1.14-12.12 2.93m27.62-2c-5.39.44-7.87 4.95-12.36 5.85m-59.22-60c0 2 .44 12.62 3.58 15.56m-21.31-21.64c1.35 5.17 9.42 9.23 10.09 12.39m10.52 30c1.36-.45 3.82-.67 5.4.67m-16.15-14.89c2 0 11.89 2.27 14.81 6.56m-23.79-19.18c2.47.88 11.23 6.08 13.24 10.16" fill="none" stroke="#000" stroke-width=".54"/><path d="M182.22 228.56c1.84.56 7 .52 8.7-3 .49-1 .45-3 2-5s3.93-2.4 4.3-4.87c.68-4.47-4.35-3.87-5.34-6.38-.84-2.12.23-2.74 2.46-3.25 1.45-.31 6 1.4 15.7 5.38 7.13 2.92 13.6 1.13 15.78-.33 2.47-1.64 4.73-6.37 9-10.16.72-.65 10.25-3.81 13.6-9.63 1.66-2.88 3.81-13-4.88-19.47s-20.94-10.75-26.06-13-12.78-3.53-13.64-10c-.4-2.86 2-4 4.07-3.93 2.67.13 6.17 1.11 8.29 1.31 1.56.17 6.87.84 7.7-4.14a5.43 5.43 0 01-.89-1.22c-.18.88-.62 2.72-4.19 2.5-4.27-.27-8.64-3.06-11.94-3-4 0-6.78 2.15-10.79 3.27s-8.56.77-10.7 4.69c-1.34 2.46-2.46 11.19 4 17.45s10.06 9.29 25.16 15c11.09 4.2 13.84 6.51 15.18 8.08s1.28 3.07.75 3.68c-.66.78-4.07 1.51-12.64-2.18a43.65 43.65 0 00-17.49-3.82c-3.57 0-13.43 1.79-15.16 5.26-2 4-.45 4.92-.07 10.9.11 1.7-.36 4 .55 6.11a8.51 8.51 0 003.45 3.79c3.5 1.51 2.16 3.26 1 4.59s-2.67 3.86-2.29 6c.56 3.17-5.65 5.39-5.65 5.39zM292.55 75.87c-3.85 1.46-4.58.89-5.91 1.95-2.18 1.73-4 3.63-4.47 2.85-.66-1.07 5.71-2.17 7-6.2 1.06-3.26-.38-3.86-1.15-9.19-1.21-8.23-5.19-9.63-8.08-8.74s-10.71 4.76-23.42 9.17c-8.93 3.1-23.34 4.66-25.87 9.16-1 1.8-4 9.21 6.24 16.57 2.33 1.69 3.05 2.14 9 4.09a67.26 67.26 0 00-20.09-1.23c-21.21 1.47-43.56 21.12-40.86 36.72.66 3.85 5.62 2.3 9.64 3s4.62 2.57 7.52 2.1 3.39-4.82 6.3-5.27 2.67 2.47 5.79 2.47 5.7-5.26 7.93-5a5.7 5.7 0 00-2.12-.5c-2 1.58-4.51 2.18-6.08 1.28s-2-2.29-4.33-2.29c-1.33 0-2.67.71-5.46 2.74 2.34-2.86 12.35-18.06 33.67-13.64 9.75 2 10.93-1 11.37-2.63s-.44-4.13 0-8.32c.37-3.41 2.46-5.82 1.79-8.07s-1.81-3.39-5.57-4.63c-1.66-.57-1.51-1.37-.79-2s3.08-.75 4.75-1c2.94-.48 17.5-4.06 27.26-10.2 5.05-3.18 7.93-6.57 8.15-4.57.16 1.39-7.3 2.38-7.09 5.69.09 1.4.19 3.6 4.29 3.91 2.95.23 4.76-1.86 6.8-3.63 2.44-2.14 3.38-2.76 3.78-4.49z" fill="#fff" stroke="#000" stroke-width=".49"/><path d="M216.64 161c-10.83-4.52-19.14-8.94-13.56-17.32-6.43 3.22-17.24 1.07-16.59 9.47 2.11 27.58 52.41 22.24 47.93 44.79 11.42-1.59 21.78-18.87 2.7-27.73-7.1-3.29-14-6.48-20.48-9.21zm29.9-62.7c2 .48-.15 3.89-.71 7.16-.37 2.14 1.57 6.47-.19 7.44-6 3.31-30.66-9.59-44.68 18.32-1.61 3.2-4.55 0-7.13-.23-4.47-.44-7.83.43-6.61-3.26 10.55-31.88 43.91-33.19 59.32-29.43zm26.32-36.38c4-1.71 7.29-3.07 9.39-2.45 4.19 1.26 3.12 9.86 4.62 11.83-2.48-.84-6.53 1.88-11.08 4.88a68.39 68.39 0 01-11.49 6.13 76.51 76.51 0 01-11.3 3.28c-7 1.48-13.41 2.53-11.67 5.54-2.68-1-11.15-6.63-8.73-13.07 1.35-3.59 6.18-5.17 11.82-6.61A136.88 136.88 0 00260.13 67c5.16-2 8.72-3.34 12.73-5.07zM190.4 190.49c19.18-7.14 28.68 7.15 41.61 4.93.23 5.8-4.75 16.08-14.79 15.4-6.95-.46-23.82-13.1-29.34-2.83-.21-7.37-4.32-15 2.52-17.5z" fill="#be0a2f" stroke="#000" stroke-width=".49"/><path d="M194.42 194.29a1.3 1.3 0 00-1.33-.54A1.23 1.23 0 00192 195c.09.59.72.82 1.22.94l.58.13c1.15.26 2 .75 2.23 2a2.43 2.43 0 01-4.76.94l.94-.34a1.45 1.45 0 102.87-.46c-.11-.82-.82-1.08-1.52-1.26l-.56-.15c-.91-.25-1.77-.63-1.93-1.69a2.09 2.09 0 012-2.3 2.22 2.22 0 012.13.87l-.7.56M201 200.47l-1-.09.52-6.84-1.82-.13.07-.87 4.61.35-.07.88-1.82-.14-.53 6.84M206 199.37l-1.5 1.49-1-.37 6.28-6.22.61 8.83-1-.37-.14-2.11zm3.07-3.12l-2.38 2.44 2.56 1-.18-3.4M214.35 204.54l-.91-.3 2.14-6.48-1.73-.58.29-.83 4.37 1.46-.28.82-1.73-.57-2.14 6.48M220.62 198.45l4.1.5-.1.88-3.15-.4-.26 2.15 3 .37-.1.88-3.06-.38-.36 2.9 3.16.39-.11.88-4.1-.51.93-7.66M238.28 188.56a1.13 1.13 0 00-.33 1.18 1 1 0 001.17.84c.5-.13.63-.69.68-1.12l.06-.5c.13-1 .45-1.81 1.51-2.07a2 2 0 012.5 1.53 2 2 0 01-1.28 2.42l-.37-.77a1.23 1.23 0 10-.65-2.38c-.68.17-.84.79-.93 1.4l-.07.48c-.12.81-.37 1.58-1.26 1.8a1.78 1.78 0 01-2.11-1.46 1.86 1.86 0 01.54-1.89l.54.54M235.61 179.79a3.45 3.45 0 013.94 5.67 3.45 3.45 0 01-3.94-5.67zm.47.67a2.61 2.61 0 00-.68 3.68 2.57 2.57 0 003.68.63 2.63 2.63 0 10-3-4.31M233.23 175.93l-4.49 2.68-.71-.54 6.45-3.76-1.93 7.23-.72-.54 1.4-5.07M226.92 177.5l-3.08-1.72.36-.65 2.37 1.32.89-1.61-2.29-1.29.36-.65 2.29 1.28L229 172l-2.36-1.31.36-.69 3.08 1.71-3.19 5.76M221.07 167.25l.9.39.63 3.35.31.13 1.14-2.54.74.34-2.69 6-.9-.4a3.51 3.51 0 01-1.45-1 1.87 1.87 0 012.05-2.82zm1.56 4.49l-.24-.11c-.77-.34-1.65-.58-2.08.38s.4 1.48 1.15 1.81l.2.09 1-2.17M217 172.71l-3.26-1.36.29-.68 2.5 1 .7-1.7-2.43-1 .28-.69 2.43 1 .94-2.29-2.5-1 .29-.7 3.26 1.35-2.5 6.08M213.61 164.18l.76.31-2.52 6.08-.76-.3 2.52-6.09M204.72 163.88l.1-.24A3 3 0 01209 162a3.43 3.43 0 11-4.82 3.95l.75-.26a2.59 2.59 0 001.44 1.83 2.62 2.62 0 003.48-1.35 2.69 2.69 0 00-1.21-3.51 2.2 2.2 0 00-2.76.89l1.54.7-.3.69-2.38-1.08M200.8 165.87l-1.16-7.08-2.74 4-.67-.47 3.86-5.66 1.15 7.07 2.77-4 .68.46-3.89 5.7M197.77 154.23l.5.66-4.61 3.57 1 1.24-.59.46-2.46-3.16.59-.45 1 1.24 4.61-3.59M190.4 155l-.35-.88 2-2.53-3.19-.48-.35-.88 4.23.65 2.66-1.05.3.76-2.65 1-2.65 3.41M190.5 125l7.42-1.15-4.19-2.85.5-.7 5.89 4.13-7.42 1.14 4.22 3-.49.7-5.93-4.27M201.18 120.26l.66 1.79-.67.65-2.68-7.45 7.39 2.84-.67.63-1.77-.67zm-1.38-3.65l1.08 2.84 1.75-1.72-2.83-1.12M208.53 116.08l-.69.53-3.69-4.88-1.3 1-.47-.63 3.29-2.5.47.63-1.3 1 3.69 4.87M212.52 113.41l-.74.44-3.58-5.85.74-.45 3.58 5.91M219.86 106.11a3.61 3.61 0 11-6.65 2.8 3.64 3.64 0 011.94-4.72 3.6 3.6 0 014.71 1.92zm-.78.34a2.75 2.75 0 10-5.08 2.13 2.77 2.77 0 003.62 1.52 2.8 2.8 0 001.46-3.65M222 101.57l6.07 4.43-.91-5 .85-.15 1.29 7.09-6.08-4.43.93 5.08-.85.16-1.3-7.14M233 105.73l-.82 1.72h-.93l3.46-7.16 3.14 7.3h-.93l-.75-1.77-3.17-.06zm1.67-3.56l-1.34 2.83 2.45.06-1.16-2.83M240.88 107.33l2.07.35-.13.78-2.92-.5 1.18-6.84.85.15-1.05 6.06M238.85 77.33l1 4.31c.27 1.19.89 2.22 2.29 1.89s1.5-1.51 1.22-2.7l-1-4.31.9-.22 1.07 4.62a2.74 2.74 0 11-5.33 1.25l-1-4.63.91-.2M246.85 75.06l7 4.21-1.44-5.34.9-.24 2 7.53-6.97-4.22 1.46 5.4-.91.25-2-7.58M260.07 79.38l-.88.3-2.31-7.14.89-.29 2.3 7.13M269.39 70.89a3.91 3.91 0 01-6.83 3.79 3.91 3.91 0 016.83-3.79zm-.81.45a3 3 0 10-5.22 2.89 3 3 0 105.22-2.89M270.54 65.58l7.66 2.71-2.5-4.94.83-.42 3.47 6.95-7.65-2.71 2.52 5-.82.43-3.55-7"/><path d="M225.58 185.66c8 4 6.22 10.86 6.32 12.11" fill="none" stroke="#000" stroke-width=".64"/><path d="M307.13 199.63c3.27 3.28 4.28 8.92 4.37 10.26.12 2.11.43 6.27-2.68 6.71a9.38 9.38 0 01-6.52-1.18 3.15 3.15 0 00-1.43-2.32c-1-.3-1.19-.53-2.09 0-.22.26-2.38-.15-2.94-.86-2-2.62-2.26-11.67-8.18-16.7-3.56-3-4.4-4.14-14.69-8.72-20.64-9.21-33.49-33.36-34.8-35.17-1.67-2.3-4.61-5.29-6.63-5.82-9.42-2.47-9.53-6.83-9.81-9.41 2.35 3.87 11.6 7 11.15 4.93-.32-1.43-1.53-3.7-5.35-6.26-3.33-2.26-3.56-5.94-4.89-6.6a7.69 7.69 0 00-5.46-.58c4.24-9 14.71-3.22 14.71-3.22 2.68 2.68 5.19 5.53 6.8 6.72 1.79 1.3 2.82 3.15 10.59 5 10.46 1.67 17.88 3.43 20.66 4 .86-1.6 1.08-13.2-.7-15.88s-4.23-4.49-5.57-10.31a102 102 0 00-5.34-16.56c-2.21-5.37 1.8-9.85 8.93-10.51 19.09-1.79 28.85 10.43 30.65 11.54" fill="#785a3c" stroke="#000" stroke-width=".64"/><path d="M307 200.6l24.51-19.48L302.77 161l4.23 39.6z" fill="#785a3c"/><path d="M330.88 180.76c11.05 12.48 21.63 37.31 22.05 40.57-.11 4.47-2.73 2.53-4.06 1.51-.05 2.08-3 2.06-4.41.27-.67 2.7-3.79 1.86-5.57-.44.56 2.35-3.51 2.52-5.12 0 .43 1.63-2.63.94-3.56-.46 0 .91.16 2.3-2.46.46-2.89-4.26-21.53-23.95-20.62-23" fill="#d2b78c" stroke="#000" stroke-width=".64"/><path d="M311.86 197.68s6.55 6.94 7.45 8 2.47 3.55 1 4.73c-1.68 1.35-4.83-1.58-5.17-1.91-.56-.58-10.93-12-10.93-12s13.13 15.5 15.6 13.5-7.74-12.12-7.95-12.35"/><path d="M330.19 222.23c0-3.23-8.3-13.78-10.32-15.91m13.9 16.35c-.78-5.75-8.11-16.07-10.18-18.67m15.29 18.69c-.61-4-6.61-16.31-9.52-19.92m15.1 20.36c-.41-2.73-8-18.33-11.28-22.16M349 222.85c.29-4-4.36-13.82-15.46-29.43" fill="none" stroke="#000" stroke-width=".68"/><path d="M330.94 221.68c0-3.26-8.35-13.86-10.38-16m14 16.44c-.77-5.78-8.15-16.15-10.24-18.78m15.39 18.8c-.61-4-6.64-16.4-9.57-20m15.18 20.48c-.41-2.74-8-18.43-11.34-22.29m15.89 22c.3-4-4.38-13.89-15.55-29.6" fill="none" stroke="#fff" stroke-width=".69"/><path d="M327.36 184.9c.3.38 9.47 13 10.88 15.33 1.11 1.86 1.29 3.89.17 4.57s-2.7-1-3.88-2.19-11-15-11.94-16.07 9 12.12 10.21 13.92c.8 1.25 1.33 2.87.67 3.66-.78 1-2.8.18-3.49-.61s-7.73-9.53-7.84-9.75 6.17 7.49 6.9 8.63a3.08 3.08 0 01-.57 4.28c-.65.44-2-.33-3.56-1.66-3.42-2.88-7.14-8.33-8.89-9.79 1.91 1.7 4.78 5.52 6.63 7.6s2.18 4 .94 4.75-2.75-.29-3.92-1.58-7-7.33-7.75-8.24 6.77 7.2 7.46 8" fill="none" stroke="#000" stroke-width=".68"/><path d="M238.49 150.67l4.51 7.53 3.33 5V157l5.34 1-1.5-6.35 6.5.83-3-4.68 5.34 1-3.17-5.35 6 1.51-4.33-5.19 7.33.34-9.83-2-6.34-1-10.18 13.54z" fill="#d2b78c"/><path d="M224.11 138.78c-.51-.95.16-.5-.9-2 3.17 1.74 5.08-.6 7.91 1.41.73.84 2.07 2.85 1.62 3.46-.67 1.22-6.3-1.02-8.63-2.87z" fill="#be0a2f" stroke="#000" stroke-width=".61"/><path d="M238.21 151.71c-1.68-2.3-4.61-5.29-6.63-5.82-9.42-2.47-9.53-6.83-9.81-9.41 2.34 3.87 11.6 7 11.15 4.93-.32-1.43-1.54-3.71-5.35-6.26-3.34-2.26-3.56-5.94-4.9-6.6a7.67 7.67 0 00-5.46-.58c4.25-9 14.72-3.22 14.72-3.22 2.67 2.68 5.19 5.53 6.8 6.72 1.78 1.3 2.81 3.15 10.58 5" fill="#fff" stroke="#000" stroke-width=".64"/><path d="M232.1 125.38s-1 5 .9 8.26 2.58 5.59 2.66 7.22c.18 3.27-1.57 5.32-3.59 4.79-9.42-2.47-9.31-5.85-10.13-9 2.23 4.4 10.78 7 11.46 5.25.36-.9-1.53-4.14-5.34-6.7-3.34-2.25-3.23-4.73-4.46-6.38-1.34-1.11-3-1.57-5.68-1.44 5-7.88 14.18-2 14.18-2z" fill="#ffb316"/><path d="M231.86 124.68c10.59-3.35 14.49 9.29 22.62 9.31-1.9 1.78-5.95 1.77-10.26.89s-12.36-10.2-12.36-10.2z" fill="#fff" stroke="#000" stroke-width=".64"/><path d="M237.2 134.76c1.67 1.35 6.24-.1 6.24-.1a26.88 26.88 0 01-7.23-5.49c-1.34 3.47.02 4.83.99 5.59z" fill="#fff" stroke="#000" stroke-width=".49"/><path d="M238.15 133.4c.85.69 3.19-.05 3.19-.05a13.72 13.72 0 01-3.7-2.81c-1.09 1.14 0 2.46.51 2.88"/><path d="M274.05 187.33c-2.56.42-3 13.19 2.21 16.5.22-1 1.67-.94 3 .56.44.54.42 1.73.15 1.9.69 1.91 2.46 2.64 5 2.8a7.7 7.7 0 007.75-7.16 17.53 17.53 0 00-5.57-7.32 49.48 49.48 0 00-12.59-7.29z" fill="#785a3c" stroke="#000" stroke-width=".64"/><path d="M279.61 205.63c0 1.57-3.57 2.46-1.12 5.15s2.23 2.47 3.78 3.13 4.69-.22 4.24 2.48-4.13 1.9-5.36-.12c-.58-1-2.23-2.91-4.46-2.36-1.93.49-2.23.89-3.12 2.92s-1.57 3.34-3.35 2.23-.66-2.25.45-3.36 1.78-1.56 1.55-2.69-2.66-1.33-4.44-.89-3.12-1.56-2.23-2.69 3.57-.88 4.68 0 3.78 2 4.9 1.57.89-5.59 1.12-7.15 3.36-.13 3.36 1.78zM302.11 214.67c.95 2.54-3.07 5.57-.62 8.26s5 1.77 6.68 1.57c1-.1 4.69-.21 4.23 2.47-.35 2.13-4.32 1.31-7.8 0-1-.4-3.45-1.33-5.23-.46s-2.07 1.74-2.46 4.25c-.33 2.18-2.06 3.24-3.84 2.11s-1.12-2.23 0-3.35a5.06 5.06 0 001.28-4.14c-.22-1.12-2.67-1.34-4.46-.89s-3.11-1.56-2.22-2.69 3.57-.89 4.68 0 3.79 2 4.91 1.57 1.28-8.7 1.5-10.27a2.36 2.36 0 013.35 1.55v0z" fill="#ffb30f" stroke="#000" stroke-width=".64"/><path d="M281.43 194.23c1.46.56 4.5 3.71 5.17 6.42M280.87 199a10.72 10.72 0 012.91 4.5M275.82 197.15c.23 1 0 1.93 1.46 3.38M297.31 207.7c.11 2.37 3.54 2.94 3.76 4.12M294.79 200.83a4.57 4.57 0 014.54 3.27 7.8 7.8 0 00-4.54-3.27M308.15 214.1c-1.88-6.5-5.2-7.45-5-6.46 1.86 1.74 1.91 1.42 2.64 2.5 1.53 2.24 2 4.51 2.32 4M309.2 213.18c-.32-2.46-1.51-2.1-1.43-1.36a5 5 0 01.82 1.06c.14.31.33.67.61.3M312.41 226.09a2.33 2.33 0 012.29 3c-.84-1.84-2.24-1.52-2.68-1.24 0 0 .73-1 .39-1.72M287.56 222a2.34 2.34 0 00-2.56 2.73c1-1.77 2.37-1.3 2.78-1 0 0-.63-1-.22-1.76M286.57 216.08a2.35 2.35 0 011.52 3.42c-.37-2-1.81-2-2.31-1.82 0 0 .94-.77.79-1.6M265.37 209.9a2.34 2.34 0 00-2.13 3.08c.73-1.89 2.14-1.64 2.61-1.38a2 2 0 01-.48-1.7M269.57 218.5a4.57 4.57 0 00-.37 3.17c1.24-2 1.66-2.08 2.15-2.22a3 3 0 01-1.78-.95M292.92 232.32a4.67 4.67 0 00-.38 3.18c1.25-2 1.66-2.08 2.16-2.23a3 3 0 01-1.78-1M292.27 194.34c-.22 1.07 1.46 1.13 1.57 2.48M284.08 192.7c5.26 2.22 6.09-2.39 5-3.09l-.17-.11c1.74.68 1.51 7.67-4.82 3.2M252 148.88c-2.19.94-3.55-2-2.74-3.81-2.9 2.15 1 6.11 3.33 4.87 2.87-1.52 1.58-6.05-1.72-4.54 2.18-.11 3.18 2.59 1.13 3.48"/><path d="M248.61 152.78c-1.54 1.29-2.89-.35-2.92-1.9-1.2 2.11 1.82 4.1 3.56 2.72 2-1.62.69-5.91-3-4 3.15-.05 3.65 2.14 2.4 3.19M243.67 157.27c-2 .12-2.62-1.17-1.84-2.6-1.62 1.25-.37 3.72 1.87 3.63 2.72-.1 3.36-3 1.15-4.4 1.26 2 .9 3.25-1.18 3.37M259.74 148.2a1.8 1.8 0 01-1.16-2.68c-2.24 1.9.11 3.5 1.06 3.73 2.4.52 4.23-2.41 1.38-4.36 1.3 1.85.68 3.79-1.28 3.31M248.66 162.35c-.48 1.58-2.47.64-2.86-.7-.44 2.47 3 2.73 3.57 1 .7-2.13-1.08-3.41-2.74-2.08 1.49-.37 2.54.17 2 1.81M254.12 166.05c-.19 2-3.12 1.39-4-.09.13 3.06 4.8 2.44 5.06.23.32-2.72-3.58-4.84-5-.71 2.28-2.33 4.14-1.52 3.93.57"/><path d="M257.49 161.65c-.19 2-3.11 1.39-4-.1.12 3.07 4.79 2.47 5 .25.33-2.73-3.58-4.83-5-.71 2.29-2.33 4.15-1.52 3.94.56M266 150.09c-1.83-.82-.32-3.41 1.37-3.82-2.93-.84-3.85 3.8-1.83 4.73 2.48 1.18 5.7-1.86 2.25-4.5 1.48 2.91.12 4.44-1.79 3.59M272 145.59c-.19 2-2.41 1.35-2.89.41a2 2 0 003.93-.26c.32-2.71-3.57-4.83-5-.71 2.27-2.32 4.13-1.51 3.92.56M249.32 138.8c.79.4 1.07 2.6.51 3.17s-1.75 1.41-1.74.55a3.82 3.82 0 001.23-1.41 3 3 0 000-2.31M246.45 146.35c.76-.61.84-2.34-.11-3.45a2.58 2.58 0 00-3.33-.55c-.77.61-.62 2 .33 3.11s2.34 1.51 3.11.89"/><path d="M245.69 145.68a2 2 0 000-2.54 1.87 1.87 0 00-2.43-.27c-.56.44-.46 1.41.21 2.21s1.66 1 2.21.6" fill="#d2b78c"/><path d="M242.92 148.17c-1 1-2.28-.45-2.86-1.55.24 2.06 2 3.17 3.31 2.29 1.57-1.07 1.27-3.13-1-4.36 1.61 1.74 1.69 2.55.51 3.62"/><path d="M240.83 151.64a2.18 2.18 0 000-3.11c-1-1.1-2.68-1.51-3.45-.9s-.62 2 .33 3.13 2.34 1.49 3.11.88"/><path d="M240.08 151a1.54 1.54 0 00.13-2.2 2.15 2.15 0 00-2.56-.6c-.55.44-.45 1.42.21 2.21s1.66 1.05 2.22.59" fill="#d2b78c"/><path d="M254.33 143.77a1.31 1.31 0 01.53-2.54c-2.62-1-3 2.05-1.15 3.38 2.22 1.6 6.45-.23 3.6-2.83 1.33 2.6-1.08 2.85-3 2M257.21 148.43a1.73 1.73 0 00-1.25.35c-.77.6-.62 2 .34 3.1s2.34 1.52 3.11.9a2.17 2.17 0 000-3.1 3.47 3.47 0 00-2.2-1.25zm-.11.67a2.54 2.54 0 011.68.8 1.56 1.56 0 01-.12 2.22 1.76 1.76 0 01-2.22-.62c-.68-.77-.77-1.77-.22-2.2a1.35 1.35 0 01.88-.2zM254.62 151.8a2.32 2.32 0 00-1.33.44c-1.32 1.06 0 3.18.39 3.61 1.11 1.27 2.72 1.74 3.6 1s1-2.71-.13-4a3.15 3.15 0 00-2.53-1.1zm.35.67a2.11 2.11 0 011.46.68c.77.9 1.07 2.62.42 3.13s-2.23 0-3-.89-.88-2-.24-2.55a2.08 2.08 0 011.39-.37zM262.65 140.51a3.39 3.39 0 00-2.4 1.18c-.63 1 0 2.44 1.48 3.32 1.74 1 3.14.77 3.75-.16a3.14 3.14 0 00-1-4 3 3 0 00-1.8-.37zm.35.63a1.67 1.67 0 01.85.23c1 .62 1.5 2.38 1 3s-2.12.72-3.14.12-1.48-1.68-1-2.36a3 3 0 012.29-.99zM281.78 182.16c2.19-.56 3.88 1 3.54 2.94s-3.37 2.41-4.5 1.13c1.74.33 2.76.34 3.48-1s-.6-2.55-2.52-3.06M282.53 174.79c.7.64 1.33 2.14-.18 2.47s-2.65-.83-1.9-2.28c.31.83.37 1.86 1.51 1.72s.57-1.91.57-1.91"/><path d="M276.32 177.17c-.39-.44 2.26-2.13 3.93-.51s.32 4.14-1.36 4c.65-.57 1.87-1.49 1-2.93s-2.71-.89-3.61-.52"/><path d="M275.05 179.88c1.81-.77 6 2 2.91 4.76s-5.89-1.1-5.89-2.63c1.22 1.47 3.73 3.34 5.16 1.9s.5-2.8-2.18-4M281.93 155.22c.85-.27 2.58.25 2.41 1.76a2.07 2.07 0 01-2.64 2c-1.35-.38 1.74.23 1.69-2s-1.8-1.69-1.46-1.81M279.05 161.34c.39-1.27 3.94-3 5.24 0s-1 4.34-3.57 2.65c2 .69 3.95-.16 2.93-2.07-1.28-2.32-3.3-1.3-4.59-.59M272.52 158.91a2.12 2.12 0 00-1.93 1.54c-1 2.32 2.14 3.61 3.11 3.85s2.92.4 3.81-1.12c1.27-2.2-2.13-3.74-3.18-4a7.05 7.05 0 00-1.81-.27zm.76 1.1a6.29 6.29 0 01.84.13c1.78.29 3.17 1.45 2.3 2.47a3 3 0 01-2.93.81c-.48-.15-2.8-1.37-2-2.58a1.84 1.84 0 011.79-.84zM275.87 171a1.42 1.42 0 00-1.32 1c-.64 1.56 1.46 2.44 2.1 2.61a2.33 2.33 0 002.59-.75c.86-1.5-1.44-2.52-2.15-2.66a4.73 4.73 0 00-1.22-.2zm.27.74a3.35 3.35 0 01.81.07c1.2.21 2.15 1 1.55 1.69a2.07 2.07 0 01-2 .54c-.32-.12-1.89-.93-1.35-1.74a1.25 1.25 0 01.99-.54zM271.46 173.65c.42-.59 3-.29 3.65 1.41a3.11 3.11 0 01-3 3.95c1.79-1 2.3-2.59 2-3.44a3.2 3.2 0 00-2.64-1.92M266.13 177.43c1.67-.71 6.39 2.59 3.53 5.12s-5.44-1-5.44-2.43c1.06 2 3.5 3.13 4.77 1.75 1.57-1.69 0-3.5-2.86-4.44M277.68 166.25a2.11 2.11 0 00-1.93 1.54c-1 2.32 2.14 3.6 3.1 3.84s2.94.41 3.82-1.12c1.27-2.2-2.13-3.72-3.18-3.94a7.14 7.14 0 00-1.81-.32zm.77 1.09a6.7 6.7 0 01.83.12c1.78.3 3.18 1.44 2.3 2.47a3 3 0 01-2.94.81c-.48-.15-2.79-1.37-2-2.58a1.91 1.91 0 011.81-.82zM275.56 155.67c-.35 0-.72.25-1 1a2.25 2.25 0 001.53 2.64 1.42 1.42 0 001.9-.77c.62-1.5-1.06-2.55-1.58-2.69a2.56 2.56 0 00-.85-.18zm.41.86a1.13 1.13 0 01.44.07c.88.22 1.52.88 1.08 1.59a1.26 1.26 0 01-1.46.57c-.23-.11-1.38-1.09-.76-1.77a1.29 1.29 0 01.7-.46zM277.82 155.28c0-.46-.67-3.06 2-2.77s-2.07-1.24-2.7.18.74 3.48.68 2.59M279.56 150.61c.46-.7 1.46-2.34 4.21-.91 1.52.8-.1-1.62-2-1.58-2.47.08-3.09 3.78-2.25 2.49M272.93 164.69c.88-.38 3.54 2.26 1.85 4.06s-5.33-.33-4.88-3.67c.51 2.84 3 4.1 4 2.84s-.05-2.5-.95-3.23"/><path d="M270.9 172.74c1.63-.15 1.91-2.8.62-3.71s-3.59-.78-3.82 1.51c.9-1.34 2.33-1.6 3.2-.79a2 2 0 010 3M264.51 176.29c1.55 1.24 4-.81 3.67-2.7s-2.45-3.74-4.6-1.93c1.92-.42 3.38.6 3.45 2a2.34 2.34 0 01-2.52 2.59M259 176.67c2.28.2 3-2.67 1.75-4.38s-4.79-1.69-4.88 1.27c1.15-2.63 3.17-1.79 4.12-.55s1.07 2.89-1 3.66"/><path d="M257.6 167.28c1.06-.51 4.32.34 3.59 2.87s-3.08.22-3.37-1.14c.57.69 2.41 2.26 2.65.84.31-1.94-1.3-2.41-2.87-2.57M262.64 166.23c1.11-.53 4.53.36 3.76 3s-3.25.24-3.54-1.18c.59.71 2.54 2.38 2.77.89.33-2.05-1.35-2.55-3-2.73M268.75 163.58c-.24 2.34-2.4 1.89-3.63 1 1.56 2.5 4.51 1.74 4.82-.84.38-3.15-3.06-5.34-5.74-1.94 3.51-1.57 4.79-.64 4.55 1.76"/><path d="M269.13 157.66c.48 1.57-.06 2.49-2.11 2 2 2 4.21 0 3.22-2.43-1.19-2.94-4.48-2.24-4.85.12a2.05 2.05 0 013.74.32M270.66 154a1.62 1.62 0 01-.38 2.36c.65.6 2.7-.87 1.34-3.07s-4-1.29-4 .13c1.34-.77 2-.86 3 .58M275.33 151.73c-.27 1-1.05 1.35-2.35 1.17a2 2 0 003.53-.92c.79-2.44-2.68-4.3-4.53-2.42 2.24-.39 3.82.47 3.35 2.17"/><path d="M275.56 146.25c.23-1 1-1.39 2.3-1.27a2 2 0 00-3.47 1.06c-.69 2.49 2.86 4.21 4.61 2.24-2.21.47-3.82-.32-3.44-2M261.19 161.13c-.36 0-.72.25-1 1.05a2.24 2.24 0 001.54 2.63 1.4 1.4 0 001.89-.75c.64-1.52-1.05-2.57-1.57-2.71a2.33 2.33 0 00-.86-.22zm.41.86a1 1 0 01.43.08c.88.21 1.52.87 1.09 1.59a1.24 1.24 0 01-1.46.54c-.23-.1-1.37-1.07-.76-1.75a1.18 1.18 0 01.7-.45zM260.37 156.21c-.42 0-.84.29-1.11 1.21-.56 1.85 1.24 2.86 1.78 3.05a1.63 1.63 0 002.2-.89c.73-1.75-1.23-3-1.82-3.11a3.35 3.35 0 00-1.05-.26zm.47 1a1.19 1.19 0 01.5.08c1 .25 1.76 1 1.26 1.85a1.44 1.44 0 01-1.69.63c-.28-.13-1.59-1.26-.88-2a1.46 1.46 0 01.81-.55zM264.42 155a1.75 1.75 0 01-3-.95c-.52 2.07 1.91 3.17 3.66 1.77 2.14-1.71 1.45-5.05-1.9-4.4 2.44.54 2.86 2.24 1.27 3.58M252.69 157.7c-.17 1.84-1.64 1.84-2.92 1.62 1.67 1.68 3.58.55 3.8-1.48.28-2.5-2.63-3.6-3.77-1.45 1.64-1 3.07-.58 2.89 1.31M265 101.42c-.53 1.31-1.45 1.83-3.24 1.4a2.25 2.25 0 003.72-1.29c.22-1-.89-3-3.43-2.29 2.29.08 3 1.73 3 2.18M273.58 92.37c-.83 1.86-4.46 2-7 1.43 2.43 1.82 7.17 1.74 7.95-1 .34-1.53-.41-4.26-4.28-3.2 3.26.12 3.5 1.76 3.29 2.8"/><path d="M266 95.16c-.75 1.65-2.05 2-4.54 1.45 2.43 1.82 4.89.57 5.3-1.3.33-1.52-.42-4.25-4.28-3.19 3.25.1 3.73 2 3.52 3M271.09 106.16c-.27-2.35-4-2.84-6.66-2.34 3-1.56 7.35-.33 7.43 2.37s-2.29 4.72-5.82 2.82c3.19.63 5.32-.48 5-2.85M280.48 94c-.14 1.36-2.24 1.35-3.37 1.09 1.53 1.13 3.57.51 3.85-1s-.85-2.84-3.26-2.18c2.17.09 2.94.73 2.78 2.09M285.86 95.65c-.19 1.75-2.92 1.46-4.35 1.13.34.26-.39.34 0 .5 2 .74 4.59.38 4.91-1.5s-1.08-3.61-4.15-2.78c2.76.1 3.75.91 3.56 2.65"/><path d="M282.08 99.07c-.19 1.74-2.56 3.13-5.84 2.69 4 1.32 6.08-.64 6.43-2.56s-1.94-3.84-5-3c2.76.09 4.6 1.16 4.42 2.9M283.52 101.23c3 0 4.77 1.42 3.47 2.84s-4 .94-4.48.88c.72.65.65 1.6-.3 2.66-.62.69-1.65.71-2.83.3a2.19 2.19 0 01.59 2.83c-.89 1.79-4.37 1.08-4.83.54a2.32 2.32 0 01-.89 2.19c-.88.65-2.6.89-3.12.28 1.76-.15 2.54-.49 3.18-1.77.35-.69-.35-1.41-1.42-2.3 1.6 1 5 2.26 6.31.54.53-.69.41-2.25-3.12-3.67 1.71.6 4.7 1.27 5.66.31s.06-2.5-2.83-3.26c2.3.53 6.66 1.66 7.31.17.54-1.21-.22-1.9-2.7-2.54M272.2 100.2c-.75 1.64-4.53 1.87-7 .77 2.55 2.2 7.36 1.26 7.77-.63.33-1.51-.41-4.25-4.28-3.19 3.26.1 3.73 2 3.53 3M272.59 121.4c-.16 2-2.94 2-4.59 1.58 2.23 1.67 5.45.77 5.62-1.46.23-3-3.48-4.67-7-3.69 3.17.1 6.21.8 6 3.57"/><path d="M276.15 127.88c-.16 2-2.94 2-4.6 1.6 2.22 1.66 5.45.79 5.62-1.45.24-3-3.47-4.68-7-3.72 3.19.11 6.22.81 6 3.57M279.25 134.09c-.16 1.81-2.54 1.85-4 1.51 2 1.49 4.64.66 5.08-1.31.53-2.43-1.52-3.86-4.67-2.7 3-.12 3.79.45 3.62 2.5M279.1 140.42c-.19 2-2.94 2-4.59 1.58 2.23 1.66 5.35.79 5.62-1.46.32-2.71-2-4.37-5.53-3.41 3.19.11 4.71 1.21 4.5 3.29"/><path d="M284.65 131.43a3.22 3.22 0 01-5-1.28c-.54-1.6 2-1.79 3.86-2.14-.38-.09.09-.31-.26-.36-2.51-.44-5.05.61-4.64 2.75.47 2.45 4.08 3.75 6.51 1.45-.34.16-.18-.61-.46-.42M282.62 124.54a3.36 3.36 0 01-5.48-1.27c-.42-1.41 1.9-2.36 3.58-2.26-.25-.06 0-.31-.27-.33-2.21-.18-4.7.9-4.34 2.78.5 2.57 4.17 3.89 6.72 1.46-.19.08-.06-.5-.21-.38M279.25 117c.71 2.5-.95 2.87-2.67 2.67s-2.45-1.09-1.58-2c0-.79-.25-.41-.4-.29-1.75 1.54.54 2.87 2 3 2.29.25 3.93-.87 3-3.44 0 .16-.36-.09-.32 0M270.63 115c-.16 2-2.51 1.46-4.35 1.35 2.08 1.48 5.21 1 5.38-1.27.23-3-3.19-4.27-6.73-3.29 3.18.1 5.91.45 5.7 3.21M292.37 101.67c0 .26-1.44.71-1.44.71a6.06 6.06 0 01-2.7-.09 3.43 3.43 0 002 .62l2.68-1.5c.27-1.5-1.68-3-4.1-2.29 2.18.07 3.84.79 3.57 2.55M286.79 144.35c-.16 1.66-2.44 1.64-3.8 1.32 1.84 1.37 4.43.64 4.65-1.2.26-2.25-1.64-3.63-4.57-2.82 2.63.07 3.89 1 3.72 2.7"/><path d="M261.94 138.74c12.64 2.33 18.81 5.15 24.42 8.94" fill="none" stroke="#000" stroke-width=".65"/><path d="M284.89 150.22c4.24-5.68 2.58-13.31 2-15.76a27.94 27.94 0 00-3.33-7.73c-3.86-5.91-5.34-10.85-3.89-15.79s11.81-8.26 15.84-10.51 5.13-4.35 11.65-7.49c9.8-4.69 17.56-2.56 32.95-.32s42.34 14.81 49 19.08 2.4 6.71.23 6.26c4.08 1.54 6.14 5 6.05 7.18-.1 2.41-1.94 2.77-9.18.2 4.21 2.76 3.14 5.62-1.13 5-5.16-.26-14.31-3.47-16.71-5 2.1 2.6 2.17 4.32.79 5.65-3.28 1.54-6.7-.21-12.6-1.63 3.17 7.78-6 6.09-9.14 4.25.88 6.09-4.85 5.87-8.47 4.24 2.89 2.29 10.68 13.67 12.24 16.35 1.31 2.62 3.19 9.52-5 1.28-2.65-2.66-.35.2-5.16-5.82 4.67 5.8 2.67 2.91 5.51 6.49 6.06 7.68 6.37 9.29 4.85 10.81-2.33.34-5.12-2.37-16.33-15.36 14.17 17.56 6.81 16 5.59 15.42s-6.8-5.24-10.58-9.11l-.75-.71c.91 1.18-.78-.29 0 .72 1 1.28 1.65 3.37.18 4.85a2.64 2.64 0 01-3.26-.05c-2.3-2.22-8.31-6-9.87-7.28 2.92 2.41 8.08 5.63 9.87 7.28 2.56 2.33 4 5 2.57 6.92-.72 1-3.13.86-4.76-.57-.42-.35-6.56-4.74-8.64-6.36 3.65 2.71 9.58 6.95 11.32 8.45 2.3 2 5.88 7.11 4.71 8.84a1.71 1.71 0 01-.68.61c-1.6.82-4.45-.6-5.26-1.28-1-.79-8.76-6.64-11.45-8.63 1.46 1.13 10.21 7.74 11.22 8.47 1.68 1.21 2.91 6.26 1.28 7.25s-2.68.52-4.1-.16-6.5-5.07-9.58-7.49c2.52 2 8.07 6.26 9.25 7.44.63.63 4.09 5.46 2 7-1.29 1-4.26.68-6.4-.73-1-.69-3.09-2.35-4.49-3.1" fill="#785a3c" stroke="#000" stroke-width=".64"/><path d="M283.11 120.71c-.93-2-.73-5.61-.25-7.23 1.46-4.93 11.27-8 15.29-10.29s5.13-4.37 11.66-7.5c9.79-4.69 17.67-3.12 33-.87 8.42 1.24 20.46 5.29 30.48 9.91-10.42-4.23-21-8.23-30.68-9.49-10.75-1.38-21.47-4.49-32.59.85-6.78 3.28-8.66 5.84-11.7 7.53s-13.63 6.18-14.65 10-.1 4.17.11 5.28c.26 1.52 0 2.19-.71 1.78"/><path d="M301.33 173.94c2 1.64 6.5 3.56 7.4 1.87s.51-2.93-2.51-5c2.41 1.59 7.57-.55 2.47-5.28 6.11 2.88 6.85-3.77 3.59-5.92 3.47 1.36 5.84-3 1.8-5.86 2.64.62 5.78-1.39 2-5 6.9 4.58 11.73 3.11 9.77-1.74 7.69.4 2.65-5.92-3.64-9.35 7.58 2.77 11.06-3 5.9-4.74 6.06.17 7.75-4.49 1.47-6.18 4.32.22 10.38-4 2.3-6.48 17.4 7 24.36 2.31 16.12-2.88 2.46.45 7.13-6.07-1.84-6.87 4.82 1.3 14.14-4.43 2.13-7.27 0 0-11.16-2.76-15.72-3.44.4.5 13.53 3.39 15.71 4.07s4.94 2.25 4.22 4-3.44 2.65-7.13 2-12.08-2.32-12.8-2.44c1.35.39 11.84 3.28 12.9 3.55s5.47 1.54 4.95 3.52c-.63 2.3-2.93 2.19-4.56 2.08s-12.12-2.72-13.47-2.94 14.09 3.83 14.77 4.28 3.48 2.22 3.13 3.61-5.78 1.58-8.69.85-23.23-6.1-23.68-6c1.74.56 12.12 3.79 13.41 4.42s4.2 1.45 3.71 2.92-4.5 2.69-6.07 2.42S312.33 122.4 310 122c2.2.73 18 4.62 19.09 5.18s4 2 3.37 3.16-2.31 2.14-4.94 1.63-16.4-4.57-17.79-4.92c2.41 1 16.66 5.71 17.56 6.39s3 1.58 1.91 2.83-5 1.05-6.69.66-13.85-4.18-15.2-4.57 12.88 5.21 14.13 5.87c2.7 1.42 8.42 6.27 7.07 7.27a4.29 4.29 0 01-4.37.16c-.4-.16-16-7-16.78-7.44 2 .86 16.61 8.07 17.39 9a2.34 2.34 0 01-.51 3.27c-1 .49-3.49-.05-6.46-1.59-3.25-1.69-11.83-4.68-14.2-4.68 2.2.51 10.11 3.66 11.79 5 1.4 1.12 2.08 2.65 1.34 3.27a4 4 0 01-3.59.27 76.91 76.91 0 00-10-4.18c2.58 1.23 8.65 4.48 9.88 5.36 1.56 1.14 2.74 3 2.18 4s-2.36 1.17-3.6.66-13-5.76-14.19-6.25 12.79 6.31 13.92 7.38 2.63 3.6 1.84 4.69-2.93 1.11-4.71.16c-2.11-1.13-10.21-6.1-11.33-7 1.57 1.19 10.55 7.66 11.33 8.8s2 2.88 1.17 3.6-3.47.22-4.1-.29-10.37-7.1-11.38-7.71c2.3 2.07 10.55 8.89 11.5 9.68s3.2 3 2.18 3.73-4.88-1.39-5.66-1.75-2.41-.77-2.75-1 2.75 2.21 1.62 3.1-1.12.51-2.35.69c1.23.9 4.6 3.82 2.69 5.3s-5.78-1.25-6.06-1.81 1.69 2.25.45 3.2-3.25-.33-3.54-.61 1.91 1.36.62 2.71-2.19-.28-2.53-.62c-.16.39-.06 1.63-1.24 1.63-.84 0-1.33-.85-1.79-1.35.05.39.59 2.63 2 2.26.83-.22 1.29-.79 1.28-1.25.51.57 2.14 1 2.75.4a2.18 2.18 0 00.39-2.26 2.58 2.58 0 002.64 0 1.82 1.82 0 00.45-2.21c.79.84 4.05 2.25 5.56.17s-1.06-4.38-1.73-4.89c.61.16 2.8-1.17.73-3"/><path d="M330.36 93.27c7.18.46 9.77 2.25 9.14 5.07-.43 2-2.92 2-4.26 1.81 2 1.23 1.73 2.7 1.56 4.17-.22 2-2.19 3-4.26 3 1.29.4 3.48 1.7 3.13 3.62a2.87 2.87 0 01-3 2.69c1.19.45 3.09 1.3 2.42 3.9s-2.82 2.64-6.74 1.69c3.53 1 6.06-.73 6.06-2a3 3 0 00-2.35-3c-1.57-.22-15.21-4-16.11-4 2.41.23 14.36 2.61 15.27 2.71s3.24-.45 3.43-1.58c.33-2-1.46-3.15-2.92-3.49s-12.06-2.83-13.53-3.16c2.36.29 11.33 1.72 12.24 1.75 2.13.12 5.28-.51 5.39-2.24.06-1-.45-3.11-1.69-3.67s-8.63-2.26-12.34-2c4.77-.22 9.93.68 12.29.92s4.39-.44 4.55-1.46c.29-1.92-1.68-4.06-8.24-4.74"/><path d="M371.5 103c12.8 5.74 22.71 10.33 21.15 13.48-.85 1.68-2.5 1.37-3.28 1.49 4.73 1.49 6.8 6.41 5.69 8.43s-8.08-.86-8.82-1.06c1.62.83 4.26 3.36 1.57 4.83s-17-3.05-19.4-4.83c1.11 1 2.34 3.24 1.33 5-1.75 3.12-11.46-.68-13.15-1 .75 1.79 1 4.32-.61 5.17-2.7 1.39-6.45 0-8.47-.8.22 1.29 0 4.14-2.31 4.79a9.26 9.26 0 01-6.9-1.18c-3.53-2-11.67-4.51-13.84-5.81 2.12.67 13.05 4.58 14.08 4.9 2.68.92 5.85 1.32 6.9.63s1.51-3.54-.28-4.23-16.88-6.31-18.35-6.76 18.8 5.7 20.37 6.28 6.91 2.23 8 1.07c1.23-1.35.79-4.51-1-5.19s-21.49-7.4-23.63-8.18c2.8.78 25.57 7.84 27 8.24.85.23 9.16 2.71 10.39 1.7s.79-3.54-1.46-4.9-17.48-7.15-20.35-8.07c7.12 2.24 20 6.45 22.83 7.52 2.13.77 13.63 4.83 15.88 4.73 3.77-.17 3.38-2.14-.27-4.06-2.36-1.24-30.91-12.08-38.44-14.68 6.12 1.81 35.3 11.74 39.4 13.21 3.45 1.25 7.9 2.83 8.41 1.43 1.3-3.56-4.53-6.48-6.78-7.4s-16.83-7-39.73-14.45c12.69 2.15 39.06 13.38 40.86 13.66 1.22.2 4.27.32 3.65-1.85-.36-1.2-2.15-3.17-20.44-12.15"/><path d="M337.34 136.54c2.13.4 13 15.9 13.88 17.64s1.88 4.36.75 5-4.38-1.13-6.51-3.5a17.7 17.7 0 003.65 2.88c.93.5 5.37 7.3 2.76 8.8s-6.7-3.46-7.82-4.8-4.2-5.24-4.76-5.81 7.29 9.37 4.15 10.76c-2.7 1.21-6.51-2.47-7.52-3.25s-13.4-13.09-12.11-13.21c.56-.44 11.38 11.23 12.95 12.47s4.1 3.78 5.9 3.21-1.17-5.23-1.68-6-8.92-13-10-14.15c2.35 2.77 12.29 13 13.57 14.55s5 6.44 6.57 5.18-2.7-7.72-3.76-8.89c-3-2.27-12.44-14.79-15-18.21 4.93 5.12 13.67 15.16 14.51 16.13s3.64 3.49 4.43 3-.79-4.16-1.39-5-9.86-13.36-12.55-16.85M309.75 104c1.74.62 6.38 1.59 5.49 4.72-.61 2.2-3.92 1.3-4.83 1.42 1 .67 1.24 1.9.4 3.27s-3.77 1.68-5.28 1.11c1.45.86 2.29 1.95 1.57 3.39s-2.2 1.24-3.32 1.24c1.19.61 2.93 1.68 2 3.77-.67 1.46-1.23 1.07-2.24 1.3a2.52 2.52 0 012.24 2.8 2.38 2.38 0 01-2.13 2.38 3.27 3.27 0 011.29 3.32 3.32 3.32 0 01-2.75 2.65c.56.45 1.42.63 1 2.71a2.29 2.29 0 01-2.39 1.92 2.89 2.89 0 011.46 3.37c-.29 1.58-2.13 2-3 1.92a43.31 43.31 0 01-5.17-1c1.52-.16 4.16.11 5.29.11s1.86-.22 2-1.11a2.41 2.41 0 00-1.12-2.59 22.45 22.45 0 00-3.81-1.47c1.63 0 3 .4 3.81.24s2-.51 2.13-1.6.07-1.39-.95-1.84a27.09 27.09 0 00-4.54-1.3c1.68.12 3.47 0 4.49 0a3.06 3.06 0 002.47-2 2.41 2.41 0 00-1.29-2.82c-1-.44-4.66-.46-5.72-.85 1.51-.45 5-.1 5.78-.22a2.26 2.26 0 002.08-1.86 2 2 0 00-1.46-2 63.26 63.26 0 01-6-2c1.47-.17 4.27.73 5.39.61s2.12-.54 2.25-1.34c.16-1.07-.68-2-1.8-2.54a45.18 45.18 0 01-4.65-2.47c2.63.4 4 1.07 5.1 1.08s2.53-.06 2.75-.75a1.79 1.79 0 00-.67-2.07c-.78-.68-4.26-3.1-5.32-4.08 2.64.79 3.59 1.74 4.82 2.16 1.86.61 4.44.16 4.89-.75s.56-1.73-.45-2.35c-.75-.45-5.11-2.15-6.56-3 3.13.61 4.76 1.3 6.23 1.63.94.22 4.71.79 5.22-.68.38-1.17-.51-2.42-4.67-4.46M315.48 102.15c-1.78-2.21-4.54-.45-2.53 2.1-.73-2.55.51-3.16 2.53-2.1M307.56 99.22c3.13 1.66 5.51-1.38 2.67-3.47-.18-.13-.17.35-.4.23 1.89 2.12.76 3.51-2.27 3.24"/><path d="M302.55 105.85c4 2.14 7-2.17 2.47-4.69 2.65 3.32 1.2 5-2.47 4.69M291.09 112.21c4 2.14 10.8-3.29 6.22-5.79 2.66 3.3-2.56 6.12-6.22 5.79M294.31 113c.78 1.06 1.45 4.8-2.7 4.84 1.35.79 2 1.52 1.8 2.61-.35 1.62-1.66 1.52-2.81 1.9 2.91 1 5.83 1.41 2.63 5 3.77-1.91 2-4.34-.39-4.9.51-.29 2.53-2.37 1-4.34 1.3-.11 3.26-3.65.51-5.12M284.7 114.42c1.19 0 3.59.76 3.48 3a2.47 2.47 0 01-1.12 2.09 2.6 2.6 0 01.33 3.67c.06-1 .57-3.16-3-3.38 1.13-.51 1.85-.34 2.47-1.25A2.18 2.18 0 00287 116a7.33 7.33 0 00-2.25-1.59M287.17 125.18c1.91-.26 4.37-.38 3.75 3 1.63-.4 4.44 1.4 2.47 3.82 1.12.73 2.3 2.82.45 4.22 1.35 2.13 1.62 3.62.05 4.46.56 2.25 2 4.62-2.3 6 2.06-.89 2.58-3.27 1.73-4.46s-.66-1.06-1.9-1.63c1.57-.68 2.47-.28 2.47-2.32a2.73 2.73 0 00-2-2.14c1.67-.5 1.73-1 1.57-2.2a2.57 2.57 0 00-2-1.9c.67-.29 2.25-1.29 1.4-2.42-.95-1.28-2.63-.5-3.76-.29.84-.9 1.23-2.26.73-2.77a6.76 6.76 0 00-2.68-1.35M289.5 150.94c1-.35 5.06.06 4.37 4.13s-.16-1.35-1.61-2.71c-1.17-1.08-3.55-1.12-2.76-1.42M306.85 199.89c-3.22-3.62-3.82-4.46-3.82-4.46s.18.19 4.36 4l-.54.47M295.24 192.15c2.36.85 3.76-.1 3.15-2.31 2.25 1.57 4.43 1 4.38-1.91 2.81 1 3.66-.33 3.09-2.7 5.43.52 4.31-3.6 2.64-5.18 1.68 1.58 2.25 5.07-3.2 4.56.56 2.36-.29 3.72-3.08 2.7.06 2.93-2.14 3.5-4.39 1.91.62 2.2-.23 3.77-2.59 2.93M308.84 195.83c-.23.61-1.36 1.51-3.83-.13 2 .34 2.5.55 3-.5.9-1.8-2.41-4.12-2.41-4.12 1 .39 4.27 2.09 3.21 4.75M312.77 189.68c-.74 1-1.92 1.42-4 .12 2 .32 2.72.31 3.25-.72.9-1.81-.84-3.51-.84-3.51 1 .4 2.69 1.46 1.63 4.11M298.52 171.64c.44 0-1.41.79-.85 1.58s.34.95 1 1.06-1.85.27-1.91-.85a1.54 1.54 0 011.8-1.79M295.76 176c.12.58-1.35 4.4-5.05 1.42-2.87-2.34 0-4.62 2.48-3.95-.56.17-3.88.45-1.58 3.21 1.74 2.08 3.88.11 4.15-.68M289.48 176.69c.51.74 1.53 2.44.34 3.73-.73.79-2.19.56-3.09.11 0 .61-2.57 3.25-4-.62.57.39 1.69 1.35 2.59.91a1.41 1.41 0 00.51-2c-.17-.39 2.16 1.85 3.36.85s.28-3 .28-3M287.14 153.42c-.14-.83 5.28 1.64 3.81 4.46s-4.66.45-5.05-.16 2.79 1.32 3.82 0c1.4-1.75-2.47-3.65-2.58-4.34M289.66 161c.73.34 2.7 4.17-1.58 4.57s-2.51-4.34-1.9-4.73-1.34 3.89 1.85 3.5 1.63-3.34 1.63-3.34"/><path d="M285 165.05a2 2 0 00-1.82 1.42c-.9 2.2 2 3.41 2.93 3.63s3.16.62 4-.83c1.19-2.07-2.4-3.72-3.38-3.91a6.65 6.65 0 00-1.73-.31zm.78 1a4.61 4.61 0 01.78.12c1.67.28 3.39 1.59 2.55 2.57s-2.71.67-3.16.52-2.63-1.28-1.88-2.41a1.79 1.79 0 011.71-.8z"/><path d="M287.29 170.27c1.18.4 3.42 5.07-1.74 5s-3.08-3.73-2-4.75c.11.57-2.26 4 2 3.79 3.65-.18 1.86-3.27 1.74-4M292 168.19c-.47-.05-1 .12-1.43 1.14-.67 1.62 1.07 2.41 1.74 2.58s2 .35 2.64-.71c.9-1.56-1.45-2.69-2.19-2.84a5.14 5.14 0 00-.76-.17zm.54.81l.29.05c1.25.21 2.18 1.09 1.57 1.81a2 2 0 01-2 .51c-.33-.12-1.51-.85-1-1.69.42-.64.81-.7 1.12-.66z"/><path d="M299.58 172.52c2 1.64 6.5 3.56 7.4 1.87s.51-2.93-2.51-5c2.41 1.59 7.57-.55 2.47-5.28 6.11 2.88 6.85-3.77 3.6-5.92 3.46 1.36 5.83-3 1.79-5.86 2.64.62 5.78-1.39 2-5 6.9 4.58 11.73 3.11 9.77-1.74 7.69.4 2.65-5.92-3.64-9.35 7.58 2.76 11.06-3 5.9-4.74 6.06.17 7.75-4.49 1.47-6.18 4.32.22 10.38-4 2.3-6.48 17.4 7 24.36 2.31 16.13-2.88 2.45.45 7.12-6.07-1.85-6.87 4.82 1.3 14.14-4.43 2.13-7.27 0 0-11.16-2.76-15.72-3.44.4.5 13.53 3.39 15.71 4.07s4.94 2.25 4.22 4-3.44 2.65-7.13 2-12.07-2.32-12.8-2.44c1.35.39 11.84 3.28 12.9 3.56s5.47 1.53 4.95 3.51c-.63 2.3-2.93 2.19-4.55 2.08s-12.13-2.72-13.48-2.94 14.09 3.83 14.77 4.28 3.48 2.22 3.14 3.62-5.79 1.57-8.7.84-23.23-6.1-23.68-6c1.74.57 12.12 3.79 13.41 4.42s4.2 1.45 3.71 2.92-4.5 2.69-6.07 2.42-16.61-3.68-18.92-4.12c2.2.73 18 4.62 19.09 5.18s4 2 3.37 3.16-2.31 2.14-4.94 1.63-16.4-4.57-17.79-4.92c2.41 1 16.66 5.71 17.56 6.39s3 1.58 1.91 2.83-5 1.05-6.69.66-13.85-4.18-15.2-4.57 12.88 5.21 14.13 5.87c2.7 1.42 8.42 6.27 7.07 7.27a4.27 4.27 0 01-4.37.16c-.4-.16-16-7-16.78-7.44 2 .86 16.61 8.07 17.39 9a2.34 2.34 0 01-.51 3.27c-1 .49-3.49 0-6.46-1.59-3.25-1.69-11.83-4.67-14.2-4.68 2.19.51 10.11 3.65 11.79 5 1.4 1.12 2.08 2.65 1.34 3.27a4 4 0 01-3.59.27 76.91 76.91 0 00-10-4.18c2.58 1.23 8.65 4.48 9.88 5.36 1.57 1.14 2.74 3 2.18 4s-2.36 1.17-3.6.66-13-5.75-14.19-6.25 12.79 6.31 13.92 7.38 2.63 3.61 1.84 4.69-2.92 1.11-4.71.16c-2.11-1.12-10.21-6.1-11.33-7 1.57 1.19 10.55 7.66 11.33 8.8s2 2.87 1.17 3.6-3.47.22-4.1-.29-10.37-7.1-11.38-7.71c2.3 2.07 10.55 8.89 11.49 9.68s3.2 3 2.19 3.73-4.88-1.39-5.67-1.74-2.4-.78-2.74-1 2.74 2.21 1.61 3.1-1.12.51-2.35.69c1.23.89 4.6 3.82 2.69 5.29s-5.77-1.25-6.05-1.81 1.68 2.25.44 3.21-3.25-.33-3.54-.62 1.91 1.36.62 2.71-2.19-.28-2.53-.61c-.17.39-.06 1.63-1.24 1.63-.84 0-1.33-.85-1.79-1.36.06.39.6 2.63 2 2.26.84-.22 1.29-.79 1.29-1.25.5.56 2.13 1 2.75.4a2.23 2.23 0 00.39-2.26 2.56 2.56 0 002.63-.05 1.81 1.81 0 00.45-2.21c.79.85 4.05 2.26 5.57.18s-1.07-4.39-1.74-4.9c.62.17 2.8-1.16.73-3" fill="#d2b78c"/><path d="M328.62 91.84c7.18.46 9.77 2.25 9.14 5.08-.43 2-2.92 2-4.26 1.8 2 1.23 1.72 2.7 1.56 4.18-.23 2-2.19 3-4.27 3 1.3.4 3.49 1.71 3.14 3.62a2.89 2.89 0 01-3 2.7c1.19.45 3.09 1.3 2.42 3.89s-2.82 2.65-6.75 1.69c3.54 1 6.06-.73 6.07-2a3 3 0 00-2.36-3c-1.57-.22-15.21-3.94-16.11-3.94 2.41.22 14.36 2.6 15.27 2.7s3.24-.45 3.43-1.58c.33-2-1.46-3.14-2.92-3.49s-12.06-2.83-13.53-3.16c2.36.29 11.33 1.72 12.24 1.75 2.13.13 5.28-.5 5.39-2.24.06-1-.45-3.11-1.69-3.67s-8.63-2.25-12.34-2c4.77-.23 9.93.67 12.29.91s4.39-.44 4.55-1.45c.29-1.93-1.68-4.07-8.24-4.75" fill="#d2b78c"/><path d="M369.76 101.56c12.79 5.74 22.71 10.33 21.14 13.48-.84 1.68-2.49 1.37-3.27 1.49 4.73 1.5 6.8 6.41 5.68 8.43s-8.08-.86-8.81-1c1.63.82 4.26 3.35 1.57 4.82s-17-3-19.41-4.82c1.12 1 2.35 3.23 1.34 5-1.76 3.11-11.46-.69-13.15-1 .75 1.79 1 4.33-.61 5.17-2.7 1.39-6.45 0-8.47-.79.22 1.28 0 4.14-2.31 4.78a9.26 9.26 0 01-6.9-1.18c-3.53-2-11.67-4.51-13.85-5.8 2.12.67 13.06 4.57 14.08 4.89 2.68.92 5.85 1.32 6.9.63s1.51-3.53-.28-4.22-16.88-6.32-18.35-6.77 18.8 5.71 20.37 6.27 6.91 2.24 8 1.07c1.24-1.35.79-4.5-1-5.18s-21.49-7.4-23.63-8.19c2.81.79 25.57 7.85 27 8.25.85.22 9.16 2.71 10.39 1.69s.79-3.53-1.46-4.89-17.45-7.17-20.36-8.07c7.12 2.24 20 6.45 22.83 7.51 2.14.78 13.63 4.84 15.88 4.74 3.77-.17 3.38-2.14-.27-4.06-2.36-1.24-30.91-12.08-38.43-14.68 6.12 1.81 35.29 11.73 39.39 13.21 3.45 1.24 7.9 2.83 8.41 1.43 1.3-3.56-4.53-6.49-6.78-7.4s-16.83-7-39.73-14.45c12.69 2.15 39.06 13.38 40.86 13.66 1.22.19 4.26.31 3.65-1.86-.35-1.19-2.15-3.15-20.43-12.13M308 102.59c1.74.63 6.38 1.59 5.49 4.73-.61 2.19-3.93 1.29-4.83 1.41 1 .68 1.23 1.91.39 3.27s-3.76 1.69-5.28 1.11c1.46.86 2.29 2 1.57 3.39s-2.19 1.25-3.31 1.24c1.19.61 2.93 1.68 2 3.77-.67 1.46-1.24 1.07-2.24 1.3a2.54 2.54 0 012.24 2.81 2.39 2.39 0 01-2.13 2.37 3.34 3.34 0 01-1.46 6c.56.46 1.42.64 1 2.71a2.3 2.3 0 01-2.36 1.92 2.89 2.89 0 011.46 3.37c-.29 1.58-2.13 2-3 1.93a45.66 45.66 0 01-5.16-1c1.52-.16 4.16.11 5.28.11s1.87-.23 2-1.12a2.42 2.42 0 00-1.12-2.58 22.18 22.18 0 00-3.82-1.48c1.63 0 3 .4 3.82.24s2-.51 2.13-1.6.07-1.38-.95-1.83a25.19 25.19 0 00-4.55-1.3c1.69.11 3.48 0 4.49 0a3.07 3.07 0 002.48-2 2.39 2.39 0 00-1.29-2.81c-1-.45-4.66-.46-5.72-.85 1.51-.45 5-.11 5.78-.23a2.22 2.22 0 002.07-1.85c.16-.78-.55-1.63-1.45-2s-5.12-1.45-6-2c1.46-.17 4.26.73 5.38.61s2.13-.55 2.26-1.34c.16-1.07-.68-2-1.8-2.54a47.21 47.21 0 01-4.65-2.47c2.63.4 4 1.06 5.1 1.07s2.53-.07 2.75-.74a1.79 1.79 0 00-.67-2.07c-.79-.68-4.26-3.11-5.32-4.08 2.63.79 3.59 1.73 4.82 2.15 1.85.62 4.44.17 4.89-.74s.55-1.73-.45-2.36c-.75-.45-5.11-2.15-6.57-3 3.14.62 4.77 1.3 6.24 1.64.93.21 4.7.79 5.22-.68.38-1.16-.52-2.41-4.67-4.46M305.81 97.79c3.13 1.67 5.51-1.38 2.68-3.47-.19-.13-.18.35-.41.23 1.9 2.12.77 3.52-2.27 3.24" fill="#d2b78c"/><path d="M300.8 104.43c4 2.14 7-2.17 2.47-4.69 2.65 3.32 1.2 5-2.47 4.69M289.35 110.78c4 2.14 10.8-3.28 6.22-5.79 2.66 3.31-2.56 6.13-6.22 5.79M292.57 111.59c.78 1.07 1.45 4.8-2.7 4.85 1.34.79 2 1.53 1.8 2.61-.35 1.62-1.66 1.52-2.81 1.9 2.91 1 5.83 1.42 2.63 5 3.76-1.91 2-4.34-.39-4.9.51-.29 2.53-2.37 1-4.34 1.29-.11 3.25-3.66.51-5.13M283 113c1.19 0 3.58.76 3.48 3a2.49 2.49 0 01-1.12 2.08 2.61 2.61 0 01.33 3.68c.06-1 .56-3.17-3-3.39 1.12-.51 1.85-.34 2.47-1.25a2.18 2.18 0 00.06-2.57A7.33 7.33 0 00283 113M285.43 123.75c1.9-.26 4.37-.38 3.74 3 1.63-.4 4.44 1.4 2.47 3.82 1.12.74 2.3 2.82.45 4.22 1.35 2.13 1.63 3.62.05 4.46.56 2.25 2 4.62-2.3 6 2.07-.9 2.58-3.28 1.73-4.46s-.66-1.07-1.9-1.63c1.57-.69 2.47-.29 2.48-2.31a2.71 2.71 0 00-2-2.14c1.67-.51 1.73-1 1.57-2.2a2.56 2.56 0 00-2-1.9c.67-.3 2.25-1.3 1.4-2.43s-2.64-.5-3.76-.29c.84-.9 1.23-2.26.73-2.77a7.07 7.07 0 00-2.68-1.36" fill="#d2b78c"/><path d="M325.49 160.83c-2.3-2.22-8.31-6-9.87-7.29 2.9 2.42 8.07 5.65 9.87 7.29 2.56 2.32 4 5 2.57 6.92-.73.95-3.14.86-4.77-.57-.41-.35-6.55-4.74-8.63-6.36 3.65 2.71 9.58 7 11.32 8.45 2.3 2 5.87 7.11 4.71 8.84m-.69.63c-1.6.81-4.45-.61-5.27-1.3s-8.75-6.63-11.44-8.62c1.46 1.13 10.21 7.73 11.22 8.47 1.68 1.21 2.91 6.26 1.28 7.25s-2.68.51-4.1-.17-6.5-5.06-9.59-7.49c2.53 2 8.08 6.26 9.26 7.44.62.63 4.09 5.47 2 7-1.29 1-4.26.67-6.4-.73-1.05-.7-3.09-2.36-4.49-3.1" fill="none" stroke="#d2b78c" stroke-width=".64"/></svg>