<svg xmlns="http://www.w3.org/2000/svg" xmlns:xlink="http://www.w3.org/1999/xlink" width="600" height="400" viewBox="0 0 600 400"><defs><linearGradient id="a" x1="421.43" y1="12678.09" x2="449.08" y2="12678.09" gradientTransform="matrix(1, 0, 0, -1, 0, 12955.24)" gradientUnits="userSpaceOnUse"><stop offset="0" stop-color="#fff"/><stop offset="1" stop-color="#8c8c8c"/></linearGradient><linearGradient id="b" x1="152.95" y1="12678.57" x2="179.21" y2="12678.57" gradientTransform="matrix(1, 0, 0, -1, 0, 12955.24)" gradientUnits="userSpaceOnUse"><stop offset="0" stop-color="#8c8c8c"/><stop offset="1" stop-color="#fff"/></linearGradient><linearGradient id="c" x1="426.66" y1="12684.04" x2="450.81" y2="12685.99" xlink:href="#b"/><linearGradient id="d" x1="153.59" y1="12684.36" x2="173.85" y2="12681.92" xlink:href="#a"/></defs><title>flag-louisiana-thumb</title><rect width="600" height="400" fill="#00447b"/><path d="M307.47,343.11c4.59-.12,7-.25,15.44-.85a270.56,270.56,0,0,0,44-6.79,355,355,0,0,0,56-18.52,202.29,202.29,0,0,0,19.25-9.55,122.58,122.58,0,0,0,13.57-8.65c1.65-1.21,1.63-1.16,1.63-2.86,0-1.37-.14-2-1.1-5.15-.34-2-2.35-6-1.3-7.37a29.3,29.3,0,0,1,3.86-3.66,34.48,34.48,0,0,1,4.06-2.33c.58-.31.87-.52.87-.64a14.26,14.26,0,0,0-1.15-1.82c-3-4.3-3.79-5.87-4.74-9.68a30.78,30.78,0,0,1-1.05-7c-.22-3-.37-3.88-.85-4.85s-1.19-2-1.45-1.93-.29.22-.43.48c-1,1.86-2.23,3.06-4.94,4.87a66.75,66.75,0,0,1-7.23,4.22,74.23,74.23,0,0,0-8.65,5.29c-2.3,1.6-3.72,2.64-4.6,3.37a57.1,57.1,0,0,0-6.83,7.43,4.1,4.1,0,0,0-.72,2.27.55.55,0,0,0,.43.51c.94.4,2.88-.35,8.12-3.12,4.21-2.22,6.29-3.23,11.4-5.54,4.27-1.94,5.78-2.52,6.95-2.7.83-.13,1.24,0,1.44.31s-.07.85-1.14,2a31.68,31.68,0,0,1-5.9,4.57c-3.36,2.23-5.27,3.41-7.85,4.86-2.07,1.15-8.78,4.55-10.7,5.41-.69.31-3,1.42-5.2,2.46-6.28,3-9.74,4.54-15.1,6.64-10.53,4.14-26.79,9.42-39.3,12.77a202.64,202.64,0,0,1-26.29,5.36c-15.88,2.22-27.41,3.05-38.53,2.76-2.59-.06-5.66-.16-6.81-.21l-4.65-.2c-4-.17-14.75-.76-17.4-1s-9.17-1.15-14.8-2.16c-15.67-2.83-23.46-4.54-34.74-7.6a140,140,0,0,1-17.73-6,194.29,194.29,0,0,1-21.51-9.77c-12.9-6.66-21.51-11.9-26.09-15.88-2-1.73-3-3.13-3.06-4.06s.68-1.26,2-1.14c2.55.23,9.49,2.8,16,5.93,6,2.88,7.78,3.59,8.59,3.38a.51.51,0,0,0,.25-.77c-.37-.7-.84-1.14-5.09-4.59-5.2-4.24-7.12-5.51-11.9-7.88a42.8,42.8,0,0,0-6.2-2.57c-.91-.31-1.94-.7-2.29-.85a47.79,47.79,0,0,1-6.47-4,10,10,0,0,0-1.71-1.08c-.37.08-1,2.83-1.43,5.81-.51,3.95-1,5.72-2,7.82a13.48,13.48,0,0,1-2,3,20.25,20.25,0,0,0-3.19,5.09,6.48,6.48,0,0,0-.7,2.57,3,3,0,0,0,1,.43,22.39,22.39,0,0,1,5.78,2.36,13.35,13.35,0,0,1,2.45,2.31,7.57,7.57,0,0,1-.46,1.66c-1.5,4.3-2.51,8-2.52,9.29,0,.81.24,1.22,1.5,2.46,3.82,3.77,10.56,8.31,18.73,12.6,1.73.91,3.81,2,4.62,2.47,5.65,3.1,14,6.65,27.1,11.55,9.77,3.65,14,5.13,19,6.59a291.29,291.29,0,0,0,60.49,10.81C286.35,343,298.49,343.35,307.47,343.11Z" fill="#fff" fill-rule="evenodd"/><path d="M427.55,283.44A108.75,108.75,0,0,0,440,276.5c5.13-3.3,7.87-5.45,8.77-6.87.35-.54.36-.68,0-.8-.57-.22-1.94.16-4.5,1.25-4.22,1.79-9.49,4.29-13.45,6.38-5.52,2.91-7.36,3.72-8.73,3.83-.45,0-.71.11-.74.2a43.07,43.07,0,0,0,1.6,4.91.31.31,0,0,0,.21.12C423.3,285.52,425.24,284.59,427.55,283.44Z" fill-rule="evenodd" fill="url(#a)"/><path d="M176.51,285.12c.34-.72,2.73-7.37,2.7-7.54s-.13-.22-.54-.28c-1.28-.18-3-.88-7.28-3a104.74,104.74,0,0,0-12.5-5.25c-3.06-1-4.86-1.34-5.55-1-.31.16-.36.24-.38.6-.08,1,1.35,2.71,4.38,5.15a126.52,126.52,0,0,0,15.7,9.91C176.46,285.66,176.28,285.58,176.51,285.12Z" fill-rule="evenodd" fill="url(#b)"/><path d="M175.05,295.44l-1.56-.57c.1,0-1.09,1.62-2.13,3.46s-2,3.65-.88,4.9c1.54,2,4.15,3,5.55,1.34a56.53,56.53,0,0,0,3.93-6.2l-.46-.26c-1.13,1.85-2,3.44-3.05,5.08-1,1.79-2.42,2-3.76,1.19a2.54,2.54,0,0,1-1.19-1.47,3.44,3.44,0,0,1,.36-2.18A48.54,48.54,0,0,1,175.05,295.44Z" fill="#004279" fill-rule="evenodd"/><path d="M184.25,300.09l-4.05,8.56.51.33,3.17-6.63h.21l2.75,9.51,4.09-8.6-.5-.25-2.62,5.46-.18,0-2.08-7.68Z" fill="#004279" fill-rule="evenodd"/><path d="M195.7,305.67c.21.91-2.32,6.72-3.52,8.66l1.89.78.14-.92c1-2.66,3.25-7.83,3.25-7.83Z" fill="#004279" fill-rule="evenodd"/><path d="M213.67,312.12,210.41,321l.5.19,2.6-6.9.25.1,3.6,9.18,3.18-9-.48-.16L218,320h-.17l-2.8-7.45Z" fill="#004279" fill-rule="evenodd"/><path d="M203.52,308.66a4.44,4.44,0,0,0-2.92,1c-1.86,1.78-2.11,5.26-.67,6.71a7,7,0,0,0,4.77,1.92,4.26,4.26,0,0,0,4.29-3c.94-2.87-.15-4.83-2.17-5.89A6.84,6.84,0,0,0,203.52,308.66Zm1,.71h.16a2.77,2.77,0,0,1,2.33,1.48,4.11,4.11,0,0,1,.13,2.39c-.27,2.25-1.42,4.92-4.26,4.16-2.5-.68-1.88-4.78-.47-6.78A2.75,2.75,0,0,1,204.49,309.37Z" fill="#004279" fill-rule="evenodd"/><path d="M242,319.34l-1.9,0s-1.46,6-2.28,7.37-2.61.75-3.13-.27c-.22-.44.18-1.85.4-2.85l-1.21.17s-.21.8-.25.93c-.86,2.68,2,3.45,3.8,3.42,2.09.05,2.61-1.69,3.17-3.7Z" fill="#004279" fill-rule="evenodd"/><path d="M247.28,320.51h-1.66c.11,0-.47,1.89-.81,4s-.68,4.13.85,4.91c2.12,1.34,4.93,1.42,5.66-.64a56.26,56.26,0,0,0,1.58-7.17l-.52-.09c-.43,2.12-.74,3.93-1.14,5.82s-1.59,2.67-3.11,2.41a2.61,2.61,0,0,1-1.63-1,3.47,3.47,0,0,1-.41-2.17A50.18,50.18,0,0,1,247.28,320.51Z" fill="#004279" fill-rule="evenodd"/><path d="M263.59,325l-.19-1.63a7.35,7.35,0,0,0-5.45-.78c-1.05.45-1.76,1.23-1.66,2,.28,2.13,3.59,2.9,5,4.51a1.21,1.21,0,0,1,.34.72,1.11,1.11,0,0,1-.38.85,2.47,2.47,0,0,1-1.83.49,3.94,3.94,0,0,1-3.71-2.48l-.19.34c.39,2.35,3.24,2.87,4.81,2.87,2.06,0,3.29-1.55,3.06-2.6a4.06,4.06,0,0,0-1.91-2.33c-.83-.61-2.64-1.35-3.25-2.37a.91.91,0,0,1,.31-1.23,4.43,4.43,0,0,1,4.3.48l.44,1.17Z" fill="#004279" fill-rule="evenodd"/><path d="M267.35,323.49l-.25.59,3.21.29-.48,5.64s-.13,1.52-.28,2.27c-.07.31-.26.91-.26.91l2,.15a6.92,6.92,0,0,1-.14-.89,15.76,15.76,0,0,1,.11-1.82l.63-6.09,3.16.26.11-.57Z" fill="#004279" fill-rule="evenodd"/><path d="M278.53,324.57c.47.81-.25,7.11-.84,9.32l2,.19-.13-.92c.21-2.85.81-8.44.81-8.44Z" fill="#004279" fill-rule="evenodd"/><path d="M334.84,323.73a4.45,4.45,0,0,0-2.16,2.23c-.89,2.41.41,5.65,2.34,6.33a7,7,0,0,0,5.12-.38,4.24,4.24,0,0,0,2.54-4.59c-.41-3-2.25-4.27-4.53-4.34A7,7,0,0,0,334.84,323.73ZM336,324l.15-.07a2.73,2.73,0,0,1,2.74.31,4.1,4.1,0,0,1,1.17,2.08c.74,2.14.88,5.05-2,5.61-2.55.49-3.78-3.47-3.4-5.89A2.77,2.77,0,0,1,336,324Z" fill="#004279" fill-rule="evenodd"/><path d="M328.63,326.49l-.5-1.59a7,7,0,0,0-2.41-.54c-3.57-.13-5.44,2-5.44,4.72a4.46,4.46,0,0,0,2,4c1,.61,4.73,1.46,6.39-.59.13-.17.38-.53.38-.53l0-.55a4.08,4.08,0,0,1-.56.76,3.71,3.71,0,0,1-3,.88,3.15,3.15,0,0,1-2.76-3.26c-.12-2,.23-4.36,2.26-4.83a3.2,3.2,0,0,1,2.75.56,9,9,0,0,1,.66,1Z" fill="#004279" fill-rule="evenodd"/><path d="M302.83,327l-.39-1.33-6.23-.1,0,.31c.17,0,.33.87.31,1.61,0,2.6.07,6.35-.13,7.24l0,.29s3.71,0,5.86,0a.5.5,0,0,0,.43-.21,1.13,1.13,0,0,0,.12-.39,2.26,2.26,0,0,1-.39.1,25.77,25.77,0,0,1-3.74,0l-.08,0,0,0,0-4.1.07-.08,2.68,0,.1-.47-2.67,0-.16-.08,0-3.51.1-.1,2,0c.92,0,1.09,0,1.46.36a2.25,2.25,0,0,1,.36.57Z" fill="#004279" fill-rule="evenodd"/><path d="M346,321.6l1.48,9.33.56-.09-1.2-7.26.29,0,7.62,6.22-1.52-9.35-.54.06,1,6h-.23l-6-5.16Z" fill="#004279" fill-rule="evenodd"/><path d="M358,319.41l.52,1.1c.33,1.4,1,4.52,1.48,7,0,.35,0,1.06,0,1.06l2.34-.53a8.74,8.74,0,0,1-.38-.83,33.26,33.26,0,0,1-.83-3.74l2.64-.64.08-.53-2.84.61c-.55-2.33-.73-3.29-.79-3.55,1.36-.52,3.29-.92,4,.07l.38-.07-.53-1.29Z" fill="#004279" fill-rule="evenodd"/><path d="M368.1,316.66c.71.6,2.19,6.76,2.39,9l2-.52-.45-.82c-.77-2.75-2.12-8.21-2.12-8.21Z" fill="#004279" fill-rule="evenodd"/><path d="M380.62,313.13a8.17,8.17,0,0,0-1.49.12,15.69,15.69,0,0,0-2.37.75l-2.49.89.58.75,1.12,3.61,1.1,3.22.11,1.22,3.61-1.06a5.4,5.4,0,0,0,3.34-1.95,4.67,4.67,0,0,0-2-7.28A4.49,4.49,0,0,0,380.62,313.13Zm-1.59.73.37,0a4,4,0,0,1,2,.7c1.73,1.42,2.82,5.52.25,7.1a13.83,13.83,0,0,1-2.59.95s-2.38-7.63-2.49-8.05A7.24,7.24,0,0,1,379,313.86Z" fill="#004279" fill-rule="evenodd"/><path d="M292.36,327.66l-.5-1.59a7.2,7.2,0,0,0-2.4-.54c-3.58-.13-5.44,2-5.44,4.72a4.49,4.49,0,0,0,1.94,4c1.05.6,4.73,1.46,6.39-.6.14-.17.39-.53.39-.53l0-.55a4.63,4.63,0,0,1-.56.76,3.64,3.64,0,0,1-3,.88,3.16,3.16,0,0,1-2.77-3.26c-.11-2,.24-4.36,2.27-4.83a3.15,3.15,0,0,1,2.74.57,8.81,8.81,0,0,1,.67.95Z" fill="#004279" fill-rule="evenodd"/><path d="M417.11,301.68,416,300.42a6.9,6.9,0,0,0-2.42.43c-3.34,1.28-4.23,4-3.17,6.48a4.47,4.47,0,0,0,3.37,2.94c1.2.15,4.92-.5,5.65-3,.06-.21.14-.64.14-.64l-.23-.5a4.76,4.76,0,0,1-.22.92,3.68,3.68,0,0,1-2.44,2,3.14,3.14,0,0,1-3.82-1.92c-.91-1.83-1.49-4.1.19-5.33a3.17,3.17,0,0,1,2.75-.55,9.67,9.67,0,0,1,1,.62Z" fill="#004279" fill-rule="evenodd"/><path d="M393.63,309.85l-.8-1.12L387,310.6l.08.3c.15-.09.51.78.74,1.48a71.71,71.71,0,0,1,2.23,6.9l.07.27s3.53-1.18,5.55-1.91a.51.51,0,0,0,.34-.33,1.16,1.16,0,0,0,0-.41,2.62,2.62,0,0,1-.33.23,29.51,29.51,0,0,1-3.71,1.25h-.09l0,0-1.21-3.89,0-.1,2.52-.9-.05-.47-2.55.82-.17,0-1.17-3.3.07-.13,1.92-.64c.88-.26,1-.33,1.49-.13a2.41,2.41,0,0,1,.53.42Z" fill="#004279" fill-rule="evenodd"/><path d="M397.72,307.07,401,316l.54-.2L399,308.87l.2-.14,8.68,4.72-3.15-8.87-.53.17,2,5.74-.43-.07-6.57-3.87Z" fill="#004279" fill-rule="evenodd"/><path d="M426.65,296.29l-1-1-5.49,2.77.13.28c.14-.11.63.69,1,1.35,1.22,2.29,3,5.58,3.29,6.46l.11.26s3.29-1.72,5.18-2.75a.54.54,0,0,0,.28-.39,1.18,1.18,0,0,0-.08-.4,3.18,3.18,0,0,1-.3.28,28.3,28.3,0,0,1-3.46,1.81l-.09,0h0l-1.81-3.66,0-.11,2.35-1.28-.13-.46-2.39,1.21h-.17l-1.67-3.09,0-.14,1.8-.92c.84-.4,1-.49,1.46-.37a2.53,2.53,0,0,1,.59.34Z" fill="#004279" fill-rule="evenodd"/><path d="M440.19,227.23a83,83,0,0,1-6.21-8.1c-.13,0-.32,0-.34.18s-.12.19-.2.27h0c-1-1-3.35-4.79-4.45-6.27L420.06,200c-1.44-2.19-3.19-4.4-4.49-6.67s-2.53-4.07-3.73-6.05c-11.07-18.21-19.35-37.62-27.69-57.36-2.09-4.94-8-22.19-9.85-27.88l-4.36-14.15h0a37,37,0,0,0-3.45-7c-1.66-2.3-2.87-2.64-6-3.72-4.67-.21-8.8-.52-10.86,2.61h0c-5.29,3.1-10.38,26.42-12.07,34.48-2.65,12.65-5.71,25.37-8.2,37.92-.89-1.63-.65-1.31-.91-3.31-1.73-13.5-5.13-36.94-4-48.5a25.12,25.12,0,0,0,2.79-5.17c.4-.39.38-.39.45-1.25h0c1.86-1.27,1.73-2.87,1.89-5.53h0c1.22-4,1-7.68,4-14.7a24.82,24.82,0,0,1,2.12-3.88L336,69l-1.77,1.67c-1.69,1.45-1.54,1.85-2.91,3.67-.22-3.51,1.46-7.59,1.88-10.74l-1.6,3.24a20.34,20.34,0,0,0-2.54,5.56h0c-.05-.1-.15-.35-.17-.29l-.28-1.05c-.34-3.69.92-8.63,1.71-12.14a11.19,11.19,0,0,0-1.66,3,21.68,21.68,0,0,0-2.6,7l-.48-1.71-.28,1.19-1-4.41-.82,2.38-.51.21c-1.13-2-2.74-5.16-4.54-6.51a15.35,15.35,0,0,0-8.23-2.79h0l-1.42-.42c-5.09-.28-7.72.52-11.17,2.92-2.19,1.53-4.37,5.19-5.41,8.82-1.38,4.74-4.34,19.63-3.08,24.16h0c-.65,13,4.87,31.83,8.23,43.92.13,1.67.92,3.42,1.14,5.29.39,3.29-1,15.15-1.64,18.28-1,4.87-3.85,15.26-9.22,16.62h0c-2.53-.13-3.28,1.07-6.13.13-8.94-2.92-11.78-25.29-17.3-31.21-.87-2.42-1.95-5.22-1.94-7.86-.78-.86-9.07-35.49-11.66-43.19a106,106,0,0,0-3.8-10l-1.36-1.9s-.13-.07-.15-.17-.1-.11-.14-.16c-1.43-.56-.05,0-1.35-.64-4.87-2.54-12.47-1.9-15.35,1.16-3.33,3.54-9.09,26-10.71,32-1.52,5.6-3.21,10.64-4.66,16-5.63,16.22-11.24,33.29-18.27,48.23-4.84,10.27-10.83,23.33-16.36,33.09-2,3.46-3.89,7.5-6.16,10.53h0c-1.16.49-1.24,1.25-2.69,3.24l-5,7.58a41.39,41.39,0,0,0-2.45,3.61c-1,1.29-2,2.57-2.79,3.73-1.46,2-1.47,2.44-.25,4,7.18-1.89,3.51-.36,7.38.33a5.74,5.74,0,0,0,2.93-1.31l2-.12,1.82,1.2c.65-.53,1.15-1,1.55-1.37h0l1.34-.08,1.81,2.35,3.66-1,1.07-.64h0a6.72,6.72,0,0,0,1.24.45l.19,0a4.21,4.21,0,0,0,.61,0,3.33,3.33,0,0,0,.6-.16l.18-.08a4.39,4.39,0,0,0,.44-.21l.18-.1c.18-.11,1-.71,1.17-.88l.17-.16a5.29,5.29,0,0,0,.41-.41c.06-.06.12-.11.17-.17s.91-1.05,1.09-1.27l.14-.19.4-.51.14-.19.5-.7a22,22,0,0,1,2-1.24c1.07-1,7.34-11.23,7.74-11.52,2-1.42,3.74-.61,5.75-2.57a8,8,0,0,0,2.79-3c2.26-1.57,4.73-1.34,7-4.84l5.74-.52c2.59-1.25.55-.46,2.63-.31,1.84.12,1.16-.41,2.89-.46s1.68.29,3.32-.42c4.2-1.81,3.94,2.19,7-1.76,1.27-1.64,6-11,7.42-13.94l1.82-3.2c1-1.22,0-.21,1.06-.94l-1.68,7.42c-.92,3.43.39,4.82.84,7.83.42,2.84-.63,5.26.41,8.24.76,2.21,2.23,3.72,3.1,5.85-2.41,0-10.81-.55-12.63.62l9.81,1.37c3.61.37,2,.3,2.63.74-2.58.85-5.16,1.29-6.11,2.93,1.23,1.45,2.4,1.72,4.81,2.2h0c-.6,1.19-.15.45-1.25,1.6a31.7,31.7,0,0,1-3.23,4.27c-1.45-.4-.34.73-1.32-.86h0c-2.21-3.79-.47-4-3-4.49-.41,1.74-.34.93,0,2l.15,1.36c-2.4,0-1.14-.07-2.21.91l-1-.41a6.5,6.5,0,0,0-5.72-4.15c.29,1.66,0,.91,1.53,1.92a14.85,14.85,0,0,1,1.69,1.26L233,237.3l-.14,1.07-2.61.53.38,4.71a4.25,4.25,0,0,1-.46.67,11.4,11.4,0,0,0-.67,1h0c-1.43.17-2.9,1.85-4,3l.21,2.83a2.63,2.63,0,0,0,2.1-1.61h0l1.75.26h0l1,5.68.55,1.8c0,1.64.28.65-.56,1-1.62-.35-1.76-1-3.4-.56,2.34,2.63,2,2.64,5.64,4v.86a3.72,3.72,0,0,0-.94,1.55,3.28,3.28,0,0,0-.2,1.37c0,2.61.84,2.4.85,2.4l0-.27,0,.27.43,1.35-2.26,1.13c1.2,2.23,1.53,1.23,3.68,1.95a8.39,8.39,0,0,1,3,2.21h0a19.23,19.23,0,0,0,4.1,2.2,5.38,5.38,0,0,0,.72.7c.41.33.05,0,.51.34s6.32,3.56,9.1,5.15c3,1.7,4.07,3.21,7.53,4.62.87,1,2.65,1.46,3.87,1.87,3.18,2.51,13.75,7.44,19.29,5.25l6.27,1.9c1.63.12,2.36-.19,4.09.12,5.88,1.06,13.21.24,18.89-1a10.62,10.62,0,0,1,3.92-2.29c-.61.4-.46.15-.79.47-1.31,1.24-.2-.11-1,1.34,2.76-.18,3.09-.28,4.82-1.57h0c-.25.77-.2.36.09.64l1.61-.19c2.1-.55,4.35-.6,6.57-1.41,2.05-.75,3.94-1.4,5.7-2.16h0c1.61-.71,2.56-.94,3.61-2.24,1-.11,8.38-4.93,9.5-5.87h0a9.77,9.77,0,0,0,2.54-2.19h0c1.36-.16,1.36-.77,2.43-1.68l1.84-.15c.89-.68.37-.36.8-1h0a3.36,3.36,0,0,0,1.5-1.69s6.3-3.17,7.62-4c2.13-1.26,3.24-.58,3.24-3.28-.69-.66.83-.61-1-.53l-1.37.31.58-2h0l-.16-.19c.33-.43.2-.1.59-1,.26-.57.07-.23.15-.83,1-.61,2.53-1.48,2.77-2.92.86-.9.29.29.88-1.56.24-.77.18-.81.3-1.15l.29-.66c1.2-.08.24.46,1.39-.78a11.21,11.21,0,0,0,1-1.3h0c.49-.54.44.79.73-1.53-2,.44-.87.17-1.43,1h0l-1.78,1c-1.12-.89-.76.76-.39-1.7.11-.74.2-1.42.3-2.16,3.06-2.34,5.73-3,5.43-5.24-4.52,1.28-1.84.48-4.73,2.29-.67-.29-.37-.79-.37-.79,1.13-2.72,2.94-3.5,2.88-6.67-1.8,0-1.6-.43-1.76.84h0c-1.26-.74-.59.36-1-1.25,0,0,.08-1.71.08-1.71a5.33,5.33,0,0,1,.55-2.84l3.4-1.11,1.18-.58-.06-2.49c-.53.13-.41,0-.85.26-.74.4-.28.16-.8.68l-6.33,2.32-1.39.12-.37-.72c0-1.33.76-.06-.26-1.35-1.66.59-1.1.2-1.89,1.29l-1.56-.46h0c-.81.4-1,.37-1-.69,1.9-.49,2.21-.67,3-2l-4.75-2.52,13.79-5-18.59,2-.42-.1,4.05-9.93-.34-3.35,1.68-.93c-.54-5.59,1.24-6.27.91-10.42l.14-10.12a79.65,79.65,0,0,0,5.05,9.61c3.76,6.13,3.12,5,11.66,5.57,2.46,3.75,3.12.84,6.48,2.2,2.29.94,2.37-.49,3.53-.09l4.29,1.09c1,3.37,4.55,5.22,7.61,6.67h0l.21.31a3.78,3.78,0,0,0,2.62,1.09h0a6.44,6.44,0,0,1,1.35.94c.63.64,1.94,5.06,4.89,8.58.52.62,1.27,1.86,1.93,2.69a21.32,21.32,0,0,0,4.43,4.78l3,.34h0a4.2,4.2,0,0,0,.62.07h0l3.18.36c2.29,1.18.8,2.87,7.12-.29,2.56,2.25,3.31,2.31,6.22.61,3,1.41,2.74.87,5-1.19l5,.69C445.48,233.46,442.51,230.08,440.19,227.23Zm-281,16.89Zm19.07,1Zm22.62-19Zm18.39-10.44h0ZM367.84,91.23s0,0,0,0,0,0,0,0Zm7,114.71Zm4.88,2Zm39.2,27.6h0Zm7.14-.38Zm5.84.9Zm5.23-.25Z" fill="#fff" fill-rule="evenodd"/><path d="M455,286.42c-.62-2.68-.61-2.41-.12-3.05a29.3,29.3,0,0,1,3.86-3.66,34.48,34.48,0,0,1,4.06-2.33c.58-.31.87-.52.87-.64a14.26,14.26,0,0,0-1.15-1.82c-3-4.3-3.79-5.87-4.74-9.68a30.78,30.78,0,0,1-1.05-7c-.22-3-.37-3.88-.85-4.85s-1.19-2-1.45-1.93-.29.22-.43.48c-1,1.86-2.23,3.06-4.94,4.87a66.75,66.75,0,0,1-7.23,4.22,74.23,74.23,0,0,0-8.65,5.29c-2.3,1.6-3.72,2.64-4.6,3.37a57.1,57.1,0,0,0-6.83,7.43,4.1,4.1,0,0,0-.72,2.27.55.55,0,0,0,.43.51c.94.4,2.88-.35,8.12-3.12,4.21-2.22,6.29-3.23,11.4-5.54,4.27-1.94,5.78-2.52,6.95-2.7.83-.13,1.24,0,1.44.31s-.07.85-1.14,2" fill-rule="evenodd" fill="url(#c)"/><path d="M287.44,267.34c-.18,0-.41-.07-.54.15l-1.9.17.8-1s-.55-2.14-.72-1.77c0,.09-.26-.09-.49-.43s-.34-.35-.22-1l.31.19c.6.25,0,.34,1.36-.09l-1.31-1.06.87-1.88-1.84-.29-.32-1c-.19.31-9.82-1.62-8.65-4.13-1.52-6.81.24-6.35-1.5-8.59-1,2.32-.55.91-.56,3.24,0,.46-.1,1.15-.11,1.53l0,.85a2.41,2.41,0,0,0,.08.25l.61,3.49a1.82,1.82,0,0,0-.06.24l-2.66.18.85,1-1.37.87c3.78,3.07,1.09-.06,3.45,2.13,0-.05.23,0,.53,0l-.33.12-.88-.42-2.42,1.74v.43c.4,4.19,14,11.64,17,6.13.06-.12.28-.15.43-.21Z" fill="#d7d7d8" fill-rule="evenodd"/><path d="M306.32,211.76c-3.55,2.54-2.45,1.86-5,4.64-.72.77-.29-.06-.83.86-.68,1.16,0,1.65-1.09,2.25l.58-4.28-1.52,2.58c.26-2.85.29-2.08-.35-3l-1,4c-.35.78-.26.44-.65.91l1.66-5.88c.39-2.14,0-.9-.3-1.32l-3.3,11.53,1.66-9.45-2,3.87,1.07-5.75c-1.85,2-.64,1.76-1.91,3.41.09-2.74,0-1.87-.63-2.66l-.63.07-1.87,1.63.88-3.69-1.83,3.66c-.71,1.9-.17,3-1.57,4.76l1.25-6.13c-1.4,1.8-.23,1-1.58,2.63l.55-3.89c-1.12,1.73-.55,1.78-1.25,3.15l.07-5.42-.87,1a8.12,8.12,0,0,0-.47.79c-.47.77-.66,1.1-1.07,1.84-1.79,3.19-1.66,1.29-2,3.47l.58-.76c.31,1.44.41,1.16-.39,1.88l-.19-1.12c-.83.32-.12-.09-.82.4-.06,0-.47.54-.49.57-.56.8-.8,1.14-1.31,1.79-.07.08-.52.64-.59.69a1.82,1.82,0,0,0-.32.31c.06,0-.07.09,0,0s-.22,0-.7.16c-.18.56.3.39-.69,1.21s-.33.64-.71,0c-1.37.87-1.27,7-1.56,10.32-3,1-6.92,4.2-9.58,6.25-3.33,2.57-4.11,3.78-5.05,6.18.21-.23.47-.45.77-.82.53-.62.41-.67.85-1.24,2.27-3,9.54-7.37,12.88-9.18l2,3.17c-5.1.94-8.53,4.05-11.85,5.26l-1.71.69,15.26-4.93L275,252.42c.12,1,1.69,0,.38,3.78,3.22,7.34,8.62,0,8.62,0,.41.55.4-.09.33,1.89l5.94,1.65c2.8-2.6,3.63-13.56,4.08-17.47-.88,1-.63-1-.44,1.77a9.77,9.77,0,0,1-.07,2.64c-.42,2.56-2.9,9.58-3.8,12.32l-7-13.12c-.82.6-.35-.25-1.23,1.64-1.46,3.15-2.43,2.19-3.5,4h0l-2.31.8a45,45,0,0,1,2.74-4.14c1.28-1.68,5-7.32,6.21-8L289,239l-1.51,11.79c.69-.93,1-10.05,2.74-11.55,1.53-1.29,6-2.77,8.42-6.24,2.87-4.08-1.25-9.5,4.19-17.18.85-1.2,2.66-2,3.9-3.78Zm-22,11.73c-.34,1.85-.88,7.66-1.44,8.51-1-2.14.88-9.06,1.05-11.76C284.73,222.57,284.64,221.7,284.32,223.49Z" fill="#a5a5a9"/><path d="M335.46,245.59c-.36.48-1-1.34-.17,3.92l.72,4.67-9.25-3.69-5,7,2.77-10L329,248l-1.63-9.51c.1-.06.23-.27.29-.17s.23-.13.32-.14c1.33-.18-.67-.21,2.68.1,1.17-4.83,3.89-13.72-1.14-16.89-.35.17.52,1.13-.77-.4a5.94,5.94,0,0,1-.85-1.34c-.73-1.37-.41-1.83-1.5-2.75L325,213.5l.21,6.33-1.58-7.12.3,7.11-1.77-8.24c-.54,1.81-.24,2.22.17,5a17.49,17.49,0,0,1,.46,4.66c-.64-2.07-.78-3.69-1.54-4.6l1.88,16.17c-1.21-2-.76-1.31-1-4.72-.16-2.52-1.51-11.44-2.59-12.78.3,2.84,1.41,8.16.84,9.35l-3.32-12.47,1.2,9.15L317,216c-.62-1.9-.39-.88-.92-1.37l1.11,5.9-1.44-3.18c.76,6.44,1.31,10.18,1.61,16.85-1.09-1.83-.64-1.87-.82-4.82-.13-2.17-1.18-10.94-2.38-12.64l.94,9.39c-.76-1.43-2.33-10.87-2.5-12.27h0c-.78-.43-.3.58-.89-1l-.47-.29-.65,0c.83,2,1.5,1.4,1.68,4.22a25.15,25.15,0,0,1-.29,5.42c-.24,1.14-2.32,7.42-3.53,8.14l1-5c-1.61,2.41-1.33,6.08-1.94,9.88l2.67,3.6c1.71,2.09,3.59,1.83,2.06,10.47-.66,3.71-1.39,2.58-1,5l.4-.57a2.85,2.85,0,0,1,.2-.38l.09-.23c1.57-3.85,1.33-6.84,1.53-11,2.67.4,3.45,2.47,4.51,6.13l2.28,8.71-4-6.93c-1.59,1.18-.77,2-2.63,5.28l-2.58,5.36-3.56-.24.42-16.29c-1.16,1.45-2.13,11.71-2,13.31.76,7.48,6.45,3,6.68,2.11l.62-1.32c0-1,2.94,4.42,3.43,6.83,0,0,14.06-1.86,15.32-8.9l4.93-1.42Zm-10.42-25c.84,4,2,8.67,1.5,11.14l-.26.5-1.44-9.15C324.31,219.77,324.81,221,325,220.58Z" fill="#a2a1a6"/><path d="M311.86,253.33c-.21.53.07-.1,0,0Z" fill="#a2a1a6"/><path d="M152.59,268.81c0-.87.68-1.26,2-1.14,2.55.23,9.49,2.8,16,5.93,6,2.88,7.78,3.59,8.59,3.38a.51.51,0,0,0,.25-.77c-.37-.7-.84-1.14-5.09-4.59-5.2-4.24-7.12-5.51-11.9-7.88a42.8,42.8,0,0,0-6.2-2.57c-.91-.31-1.94-.7-2.29-.85a47.79,47.79,0,0,1-6.47-4,10,10,0,0,0-1.71-1.08c-.37.08-1,2.83-1.43,5.81-.51,3.95-1,5.72-2,7.82a13.48,13.48,0,0,1-2,3,20.25,20.25,0,0,0-3.19,5.09,6.48,6.48,0,0,0-.7,2.57,3,3,0,0,0,1,.43,22.39,22.39,0,0,1,5.78,2.36,13.35,13.35,0,0,1,2.45,2.31" fill-rule="evenodd" fill="url(#d)"/><path d="M326.23,186.33l-.37-.31a5.59,5.59,0,0,1-3.23-.44l2.3-4.12c-1.54-3.32-1.05-2-1.72-5.68-2.32-12.91-2.86-16.75-5.93-30.17-1-4.24-2.46-7.25-2.74-11.82l.83,1.6c.12.33.28,1,.38,1.31a7.19,7.19,0,0,0,.83,2.18c-2-8-2.87-14-4.59-21.53-.78-3.38-1.9-7.24-2.87-10.55-1.42-4.84-2.46-5-.81-9.34a2.57,2.57,0,0,1,.48-.94c4.13,13,7.12,24.53,10.61,37.75.47,1.78.93,2.64,1.37,4.18l3.87,17.46c.56,3.27,1.45,5.38,2,8.43.53-1.48.56-.94,0-2.49a45.47,45.47,0,0,1-2.06-8.07c-.74-3.57-1.62-7.06-2.2-10.79-.7-4.49-.43-2-1.3-3.81l-3.77-16.64c-.42-.46-5.52-19.86-5.16-21-.06-2.18-1.1-7.31-3.33-7.82l-1.52,5.14-2.16-12.58,5,4.43c4.13,3,3.21,1.85,7,2.21.73,2.15,1.39,5.48,3.25,6.86-.22-1.2-1.12-3.26-1.59-4.73-.63-2-.69-3.25-1.15-5.13H317c-.34.72,0,.46-.74.62-.6.75,0,.89-2,.59a7,7,0,0,1-3-1.6s-.56-.55-.63-.63l-.34-.54a12.7,12.7,0,0,1-2-3.38c-.89-1.81-.68-3.1-2.2-3.95a15.15,15.15,0,0,0,1.51,5.37c.83.93.14-1.57.76,1.41-1.48-.72-.43.22-1.28-1.19A37.83,37.83,0,0,0,302.19,80c0,1.8.67,2,1.41,3.4l-.23,4-2.56-.76-.5,2.87-2.95-.56a4.66,4.66,0,0,0-.65,2.69c-.29,3.76.38,6.18,1.48,9.81C303.8,119.93,310,121.48,318,156.24l5.18,25.22L322,182.65c-1.08,1.32-.66,1.36.63,4.1,2.4.37,2.7.47,3.59-.42Z" fill="#592101" fill-rule="evenodd"/><path d="M237.43,249.83l1.23,3.84,1.29,3c.63,1.76,1.28,2.73,1.39,4.81.55.49,3.33,6.74,3.79,7.88l-.58-.53c-1.54-1.71-1.19-2.78-2.72-4.54,2.84,8.74,2.63,9.68,6.28,13.43.18.18.28.35.57.64l.73.62c.66.65.19.13.75.94l-6.69-4.34c-1.11-2.08-3.08-4.25-3.9-6.69-.57-.36-.3,0-.85-.59a4.54,4.54,0,0,1-.39-.48c-1-1.55-.74-6.28-2.5-9.64L240.6,274c-2.06-1.65-1-1.19-2.12-2.47s-1.25-.54-1.92-2.37l1.36.92c-2.62-6.92-1.62-3.24-3.24-6.58-.5-1-1-2.12-1.47-3.15-1-2-2.07-1-2.38-1.9-.05-.16-.18-.17-.28-.26-1.62-.35-1.76-1-3.4-.56,2.34,2.63,2,2.64,5.64,4v.86l.33,1.66-.92.33.3,3.33,1.58,2.72a14.22,14.22,0,0,1,3.28,3.92,18.91,18.91,0,0,0,4.09,2.2l.59-.8c.23.25.54.63.75.88a16.33,16.33,0,0,1,1.28,1.81c2.47,1.44,4.93,2.71,7.71,4.3,3,1.7,4.07,3.21,7.53,4.62,0-.1-.08-.24-.12-.31s-.1-.25-.14-.33-.14-.26-.18-.35l3.78,1.38c2.51,1,10.6,3.14,12.54,4.61l-13-4,.64.53c.05-.11.19.25.32.33,3.18,2.51,13.75,7.44,19.29,5.25l6.27,1.9c1.63.12,2.36-.19,4.09.12,5.88,1.06,13.21.24,18.89-1a10.62,10.62,0,0,1,3.92-2.29l1.46-.18c.49-.58.18-.89.24-1.27-1.65-1.36-4.84,1.48-9.12,2.4a39.55,39.55,0,0,1-11.47.75l-10.6-1.73,8.56-.23c-3.86-2.42-14.53-.37-16.83-.36l-2.68-.47,11.76-.94-2-1.48c-2.71.09-2.16.22-4.1,1.32a9.21,9.21,0,0,1-8.86-.93c-4.51-2.74-1.89-1.47-7.52-3.75,2.46.53,3.86,1.51,6.67,2.09,2.49.51,5.43.93,7.86.2-1.75-1.76-.18-1.23-2.83-2l-6.39-.26c-2.75-.63-4.54-1.36-7-2-.91-1.17-1.83-.42-4.2-3.45l-3.55-4.51c-.69-1.3-1.66-2.19-2.45-3.5l-1.53-.78a10.81,10.81,0,0,0-.68-2.87c-1.71,2.32-.23,2.79,1.05,6.09l-1.91-1.27-.4-5-2.26-.6,0-2.55-2-5.42c-1.68-3.23-.79-2.38-.64-4a16.7,16.7,0,0,0-.59-6.67l-1.36-.06c-1,8.46,2.16,15.44,5.09,21.31-1.58-1.92-2.52-5.45-3.68-8.24a30.64,30.64,0,0,1-1.46-4.4c-.5-1.81-1.08-2.91-1.47-4.47a4.64,4.64,0,0,1-1-3.58c-.88-.86-1.36-3-2.07-4.23s-.49-.71-.87-1.12l.67,4.67Z" fill="#fbbc54" fill-rule="evenodd"/><path d="M172.26,222.91c-1.16.49-1.24,1.25-2.69,3.24l-5,7.58a41.39,41.39,0,0,0-2.45,3.61c-1,1.29-2,2.57-2.79,3.73-1.46,2-1.47,2.44-.25,4,7.18-1.89,3.51-.36,7.38.33a5.74,5.74,0,0,0,2.93-1.31l6.77-.38,1.81,2.35,3.66-1,10.75-6.47c1.07-1,7.34-11.24,7.74-11.52,2.29-1.65,4.29-.29,6.73-3.73,2.69-3.8,5.91-2.18,8.84-6.65l5.74-.52c2.59-1.25.55-.46,2.63-.31,1.84.12,1.16-.41,2.89-.46s1.68.29,3.32-.42c4.2-1.81,3.94,2.19,7-1.76,1.27-1.64,6-11,7.42-13.94l1.82-3.2c1-1.22,0-.21,1.06-.94l-1.68,7.42c-.92,3.43.39,4.82.84,7.83.42,2.84-.63,5.26.41,8.24.76,2.21,2.23,3.72,3.1,5.85l1.14.1a10.8,10.8,0,0,0-1-2.59c-4.08-3.37-2-9.1-3.13-13.89-1.61-6.86,1.94-8.14,1.22-13.83l-3.08,1.2c-1.16,3.54-7.82,16.27-10.44,18.56l-2.95-.76c-.63-.1-3.53,2-8.76,1.44,1.83-3.6,4.88-9.56,5.89-13.18-2.41,3.54-1.9,3.95-3.88,8-1.39,2.83-2.6,5.67-5.91,6.17l4.89-10.89c-2.42,1.54-1.89,2.9-3.39,6.16-2,4.39-1.85,4.45-4.32,4.57.53-1.86,3.56-13,4.37-14.65,0-.07.17-.12.19-.29s.14-.17.21-.26c-.11-1.54.36-1.37-.1-2.46l-4.41,13.2c-.92,3.89-4.07,9.28-7.62,9.44l4.93-15.39c-1.89,5.68-6.22,20.35-13.14,21,1.68-3.53,9.6-21.58,10.42-24.8.47-1.87-.1-1.07-.24-1.3-5.49,14.55-9.42,24.29-18.88,37.16-2.17,2.95-5.89,9.59-9.5,7.26,1.56-2,4.93-6.3,6.23-8.46,3.17-5.25,14.63-23.38,15.08-27.65a8.74,8.74,0,0,0-1.58,2.61c-5.69,11.17-8.9,16.91-16.07,27.08-1.4,2-5.24,7.51-8.08,7.06.32-5.87-.4-2.91,3-7.52,13.78-18.47,12-18.86,21.94-38.8,2-4.12,3.23-9.35,4.88-13.55.68-1.73,1.45-3.08.79-4.14l-6.81,18.23c-3.74,9.07-12.7,27.52-19,34.64l-5.89,6.66c-1.11,1.36-.81,2-4,4.59l-3.06-2,4.83-5.66c5.35-6.33,15.87-24,19.05-31.64l6.28-14.13c-5.19,9.72-9.83,20.3-15.53,29.61-3,5-6.14,10.81-10,15.08a66.62,66.62,0,0,1-6.71,7.12c-1.4,1.24-2.46.73-3.71.06,2-2.78,5.55-6.7,6.19-7.65a304.32,304.32,0,0,0,30.6-57.38c.82-2,.75-3.62,2.82-3.82l-1.2,7.95.78-.43-.8-8.46c-3,5.63-2.21,4.22-4.57,9.77-7.42,17.48-9.7,21.6-19.23,37.74-2.76,4.68-12.77,22.84-19.75,22.78a24.77,24.77,0,0,1,3.3-5.75c3.69-5,6.5-10.18,9.74-15.46Z" fill="#2b220a" fill-rule="evenodd"/><path d="M352.14,225.74c-.5.54-.2.54-.54,1.19l1.26-.28,4.05-9.93-.34-3.35,1.68-.93c-.54-5.59,1.24-6.27.91-10.42l.14-10.12a79.65,79.65,0,0,0,5.05,9.61c3.76,6.13,3.12,5,11.66,5.57,2.46,3.75,3.12.84,6.48,2.2,2.29.94,2.37-.49,3.53-.09l4.29,1.09c1.52,5.34,9.67,6.88,11.8,9,.63.64,1.94,5.06,4.89,8.58.52.62,1.27,1.86,1.93,2.69a21.32,21.32,0,0,0,4.43,4.78l6.82.77c2.29,1.18.8,2.87,7.12-.29,2.56,2.25,3.31,2.31,6.22.61,3,1.41,2.74.87,5-1.19l5,.69c2-2.47-1-5.85-3.32-8.7a83,83,0,0,1-6.21-8.1c-.13,0-.32,0-.34.18s-.12.19-.2.27l5.34,7.38c1.4,1.79,4.76,6,4.19,8.06l-6.83-1.89,1,2.72-5.82-2c.59,1.29.88,1.49.59,2.27l-5.27-2.76c-3.74-2.91-17.82-26-20.73-30.34-.87-1.29-2.3-4.15-3.52-4.64,2.8,4.88,19.3,31.25,22.39,34.34,1.14,1.13,1.21.7,1.29,2.5l-5.66-.2-3.54-4.41a101,101,0,0,1-9.91-14.8c-1.8-3.09-7.73-14.87-8.49-15.44l-4.9-8.31c.21.92,10.36,20,11.7,22.5a122.56,122.56,0,0,0,6.56,10.61l7.1,10.43c-4.51,1.11-7.13-2.82-8.83-5.31-4-5.9-2.1-2.36-6-9.46-3.09-5.54-3.29-7.39-7.81-14.81-1.83-3-.44-1.36-3.2-5l8.33,17.25c-3.85.6-2.8-2.08-5.72-3.72-3.28-1.84-2.77-1.71-4.91-5.14-4.87-.45-4.85-1.69-8.58-6.89l2.63,5.27c-.41.39.87.76-1.31.68-1,0-1.53-.93-3.34-2.27l-.42,1.77-6.48-6.19,1.6,4.15-6.42-4.26,1.72,4c-3.72-.72-4-3.64-7-8.46-2.52-4.06-2.17-4.36-5.74-9.67-.6,2.1.11,9.31.44,12,.54,4.39-.29,7.3-.72,11.92l-1.66.13c-.11,1.74.54,2.55-.05,4-.34.85-.42-.45-.63,1.46-.16,1.43.55,5.16-2.65,8.59Z" fill="#2b220a" fill-rule="evenodd"/><path d="M329.08,72.41c-.54,1.27-.28,2.67-1.66,2.71-.46,1.57-.79,3.13-.79,3.13L322,79.43s-2.06-1-1.2-4.31l.39-1c-.95-.47-1.19,2.53-1.19,2.53l-.64.43-.21,1.37a12,12,0,0,1-1.83,1.29c-.79.06-1.82-4.85-2.21-1.94l.77,5.38c1,2.16,2.13,3.61,1.77,6.73.46,1.88.52,3.16,1.15,5.13.47,1.47,1.37,3.53,1.59,4.73a4.26,4.26,0,0,0,3,1.25l1.18-.55a11,11,0,0,0,2.79-5.17l.45-1.25c1.86-1.27,1.73-2.87,1.89-5.53a34,34,0,0,1,4.62-17.83c-1.69,1.45-1.54,1.85-2.91,3.67l-1.46,3.15c-.4-3.9,1-7.15,1.74-10.65a14.46,14.46,0,0,0-2.54,5.56Z" fill="#e9961a" fill-rule="evenodd"/><path d="M313.25,258.17l.67,4.39a18.87,18.87,0,0,1-2.2,7.81c4-.62,9.42-5.33,12.43-8,.66-.59-.22-.8,1.74-.28,1.44,3-14.27,9.7-15.74,10.39.32.17-.32,1.11,1.94,0L324,269.23c-.31.4-.07.4-.93,1-.71.5,0,.12-.93.39,2.16-.3,6.56-4.41,8.12-5.82l1.79-1c.31-1.64.83-1.84,2.16-3.16.24.38,1.47-.51-.4,2.69a14.43,14.43,0,0,0-1.22,2.46l1.13-2.06c1,.71,0-.39.9.71-.79-2.59.23-1.34.16-3.69-1-.58-.6-.41-1.81-.26l-.49-2.73L332,256.1c-.56-.83-.13-.13-.54-1.46s.32-.41-.67-1.2l-.68,3.06c0-.06-.15.21-.22.32l-.05-4.4c-1.3,2.32-.5,1.41-1.09,2.63l-.8-3.42c-.63,1.44-.37,2.2-.32,4.14,0,.55.08,1.64,0,2.13a2.89,2.89,0,0,1-.68,1.87l0-8.46-.73,3.41c-1.2-2.35-.48-1.23-.9-1l-.75,4.26c-.52-1.06-.2-1-.19-2.46l-2.05,7.25.39-3.81c.13-2.13.1-.33-.26-1l-1.09,2.81c-.36-2.62.31-2.36-3.35-4.41L316.68,265c-.49-2.41,1.82-6.55.39-10.57l-.64,3.14c-.57,3.54-.57,2.4-1.1,3l.8-8.83-1.21,4.61-.93-.39a2.72,2.72,0,0,0-.74,2.24Z" fill="#592101" fill-rule="evenodd"/><path d="M335.54,206.55c-.39.79.65,1.76-1.51,0-.36.81.91-.39-.38.37-.08.05-.44.17-.54.23-1,.63-.79,0-1.11,1.19,1.24-.48,1.11-.82,2.21-.8,2.85.06,5.52,6.37,5.8,10,.26,3.22-.88,3.27-1.29,5.48-.37,2,2.4,10.8,9.29,8.83,4.43-1.28,2.95-.08,5.35-1.32-2.62-1-1.51.86-8.94-1.68,1.47-3.12,6.68-.6,8.86-2.15l-.42-.1-1.26.28c.34-.65,0-.65.54-1.19-.53-.29-.59-3.39-.86-4.35l-4.14-12.3c-.21.33-.94-.81-.22,1.9l1.43,4.13c.39,1.19.33.79,0,2.15-.43-1.47-1-3.15-1.61-4.72-1-2.45-.83-3.14-2.09-4.61-.43,1.17.31,3,.76,4.23.26.69.57,1.44.8,2.16.37,1.16.33.66,0,2.11a34.06,34.06,0,0,0-4.49-11l4,15.68-3.47-7.67a20.67,20.67,0,0,1-2.32-4.55c-.49-1.07-.12-.66-1.14-1.42l3.87,13.16c-.85-1.17-.83-2.18-1.35-3.87a23.1,23.1,0,0,0-5.78-10.18Z" fill="#a5a5a9" fill-rule="evenodd"/><path d="M324.5,100.46l-1.18.55c.37,8,.24,15,1.06,23.13,1.4,13.94,4.35,30.33,5.39,43.39.32,4.09,1.26,7.05.67,11.41-.63,4.58-2.18,5.25-4.58,7.08l.37.31c4-.43,5.36-6.45,5.25-11.17s-2-11.37-1.61-15.55c.37-3.7,4.57-22.75,5.66-27.6,2.91-13,8-43.43,14.11-52.15-5.29,3.11-10.38,26.43-12.07,34.49-2.65,12.65-5.71,25.37-8.2,37.92-.89-1.64-.65-1.31-.91-3.31-1.73-13.5-5.13-36.94-4-48.5Z" fill="#2b220a" fill-rule="evenodd"/><path d="M325.25,278.54c-.08.07-.19.18-.25.22l-.54.4c-3.4,2.14-9.89,3.37-13.63,3.49-.06.08-.15.1-.19.23-.11.36-1.93.94-2.38,1.1l11.05-.6c-1.35,1-3.31,1.27-5.22,1.59-2.48.42-2.9,1.28-5.22,2-.39-.57-6.39,2.33-6.9,3l-.89.82c-2.59,1-11.44-.28-16.06-3.2-.85-.54-1.39-1-2.21-1.56-1.6-1.17-1.17-.6-2.14-2.13,3.84,2.93,1.73,2.1,9,.7,2.39-1.43.84.09,3.27-2.5l-13,1.65c-1.19-1.36-.73-.87-2.37-.5l.11,1.08a5,5,0,0,1,1.89,1.13L283,288.3c1.31.93,1.13.17,2,1.5,2.53.25,12.81,4.51,19.25,1.71,1.22-.53,2.17-1.34,3.49-1.95,2.4-1.12,10.82-5,12.15-5.17.66-.8-1.35-.39.83-.73l-1.42-.61c8.78-3.09,4.11-2.43,7.81-3.76-1.52,2.51-1.86,3.81-4.38,4.59-1-.07.15-.68-3.2,2-.64.52-1,.79-1.63,1.26-1.37,1-1.06.89-1.32,1.61-.48,1.14.42-.1-.48.85-.07.07-.54.44-.69.55a3.83,3.83,0,0,1-1.78.88c.08.1.24.08.31.23s.23.16.32.17a4.32,4.32,0,0,0,3.08-.53,15.65,15.65,0,0,1,3.11-1.37c2.6-.75,2.72-1.69,3.33-1.88.9,0,.05.09.15-.63a14.11,14.11,0,0,1,2.62-3.72c1.87-1.79,1-2.3,3.32-3.08.2-1.58,1-1.92,1.9-3.43.65-1.06.86-2.13,1.73-3,.25-1.08,1.76-5.1.73-5.65a84.41,84.41,0,0,1-5.15,8.56c-1.33,1.84-.19.25-2.16,1.08-.43.18-1,.5-1.67.77Z" fill="#fbbc54" fill-rule="evenodd"/><path d="M357.84,255.24l-.91,1.19c-.84,1-.26.26-1.11.95-2,1.66-1.59,1.62-1.75,2.38,1.33,1.91,1.93.26,4.39-2.24l1.75-1.5-4.49,5c-1.88,1.73.44-1-4.52.85-3.3,1.21-1.23,1.07-3.35,2.38l3.53-.18c-2.17,2.45-2.72,1.56-5.43,4.69l2-.53c2.55-1.37,5.68-2.58,7.12-4.5,3.34-4.43,1.81-1.4,3.61-3.95,1.11-1.58.65-.65,2-1.72a3.92,3.92,0,0,0,.81-.83l1.21-1.21c-.39,1.65-1,3.06-1.49,4.66a11.34,11.34,0,0,1-2,4.31,6.32,6.32,0,0,1-2.08,3.74c-.72,1.24-1.26,1.9-1.95,3.09a6.57,6.57,0,0,1-.94,1.59c-.66.82-.49.31-1.12,1.28a4.4,4.4,0,0,0-1.32,3.27c1.57-.27.13.35,1.53-.71a3.36,3.36,0,0,0,1.5-1.69c.85-2.43,1.11-1.18,1.21-1.2.86-.15,1.24-.23,2.26-.48,1.31-.81,2.83-1.49,4.15-2.27,2.13-1.26,3.24-.58,3.24-3.28-.69-.66.83-.61-1-.53-.54.45.36,0-.82.6-.35.18-.83.34-1.23.5a7.56,7.56,0,0,1-2.14.63l-1,.84c-2.8,1.75-.93.08-2.28,1.86l-.77.85L358,270c.85-1.17.34-.45.85-.77l2.47-5.14c.12-1.72,2-6.84,2.85-8.78l-.26-.07-.15-.09-.37-.26c1.49-1.09.22-.77,2.39-2.22l-1,2.79a7,7,0,0,1,3.88-3.15c3.06-2.34,5.73-3,5.43-5.24-4.52,1.28-1.84.48-4.73,2.29l-2.64,2.16,2.27-2.95c1.13-2.72,2.94-3.5,2.88-6.67-1.8,0-1.6-.43-1.76.84a4.71,4.71,0,0,1-1.22,2.15l-.45.58.47-7.56c-2.63,1.06-1.53,2-2.05,4.86l-.19,5.33a9.22,9.22,0,0,0,.64-1.07c.06-.09.11-.21.17-.3l.76-.92a12.73,12.73,0,0,1-1.68,3.34c-.31.44-.68.92-.9,1.19-.78,1-.48.67-1.6,1.42l1.34-5c-2,2.55,0,1.09-3.41,4.15-1.94,1.76-2.16,3.24-4.1,4.33Z" fill="#fbbc54" fill-rule="evenodd"/><path d="M311.72,270.37c-2.89,1.87-13,3.67-16,3.71a20,20,0,0,1-3.18-.16c-.69-.2-.77-.54-1.72-.85-2.16.9-.4,1.08-3.54.72-1.09,1.3-.38-.18-.89,1.58h4.31c5.88,0,15.78-2,16.65-1.78a22.59,22.59,0,0,0,4.57,1.59c3.34.38,3.92.67,7.18-.68l5.69-2.53c-2.1,2.1-5.19,3.06-7.41,4.21a34.68,34.68,0,0,1-4,1.84c-1.65.63-2.43,1.23-3.93,1.73l-16.24,3.32c2.85,2.36,10.21,1.69,13.41,1.14l4.26-1.55.73-1c1.33-1.51,5.6-3.55,7.42-4.32a15.11,15.11,0,0,0,6-4c1.45-1.55.83-1.12,2-1.44.9.42.6.41.32-.53l-1-.41,3.85-4.81c0-.11.11-.12.16-.18l-.08-1.16c-1.56,1.41-6,5.52-8.12,5.82-1.6.1-1.34.14-2.68.9a17.79,17.79,0,0,1-1.85,1,9.36,9.36,0,0,1-5.52,0c-2.26,1.13-1.62.19-1.94,0,1.47-.69,17.18-7.37,15.74-10.39-2-.52-1.08-.31-1.74.28-3,2.65-8.45,7.36-12.43,8Z" fill="#f4b653" fill-rule="evenodd"/><path d="M301.33,91.2l-3.47-1c-.59,5.37-.47,5.76,1.35,10.59,3,8,9.1,17.54,13.49,25.1-.43-6.26-2.81-14.1-4.65-19.71-2.66-8.1-2.36-6.43-4.09-14.36-.64-2.91,0-2-2.37-3.87l-.26,3.24Z" fill="#f99d31" fill-rule="evenodd"/><path d="M236.85,236.78c1,3.78.45,2,.13,2.6-1.19-2-1.22-2.66-2.63-3.57L233,237.3l2-.53.64,1.38c-.83.56-.78-.45-2.25,1.24l-.53-1-2.61.53.38,4.7a3.88,3.88,0,0,1-.46.68,11.4,11.4,0,0,0-.67,1l1.15-.87.3,2.57c-1.57,1.08-2.27,1.3-3.1,2.5l1.75.26c0-1.49-.68-.93,1.16-1.88a6.27,6.27,0,0,1,.67,2.63l1.29,8.22c-1.62-2.33-1-2.19-2.12-3.29l.55,1.8c0,1.64.28.66-.56,1,.1.09.23.1.28.26.31.93,1.4-.11,2.38,1.9.51,1,1,2.13,1.47,3.15,1.62,3.34.62-.34,3.24,6.58l-1.36-.92c.67,1.83.92,1.18,1.92,2.37s.06.82,2.12,2.47l-4.77-15.84c1.76,3.36,1.47,8.09,2.5,9.64a4.54,4.54,0,0,0,.39.48c.55.55.28.23.85.59l-1.43-4.22,1.35,1.12c-.49-2-1.79-3.22-2.42-5.53-.44-1.6-1.56-5.4-.53-6.72.06-.87.31-.75-.43-.69-1,2.37-.83,5.81-.91,8.49l-.69-7.2c.07-1.47,1-5.37,2.1-6.16l.11,2.75c.57-.7-.07.68.71-.9l-.67-4.67c.38.41.24,0,.87,1.12s1.19,3.37,2.07,4.23l-.17-2.87-.21,1.22c-.6-2-1-2.28-1.25-4.42-.15-1.49,0-3.86-.16-4.17l-.1-2.59c1.33.65,1,.53,1.24,2.3l.79-.63c-.51-.56-.17.57-.64-1.35a8.83,8.83,0,0,0-.39-1.61c1.52.65,1.64,1,2.13,2.48l.71,0c-.29-.75-.52-1.33-.76-2-.4-1.13.07-.1-.33-.95a3.54,3.54,0,0,0-.68-.94l.15,1.36c-2.4,0-1.14-.07-2.21.91l-1-.41Z" fill="#a15e1a" fill-rule="evenodd"/><path d="M278.28,251.55l-.14,2.31-.78.24-.79-1.27c-.37,3.58-.23,2.89-1.19,3.37-1-.48-.43-.19-.59-.93-.83.76-.36-.77-.68,1.32l-.09,2.94c-.17.74-.22.53-.46.89l.2.14c-.34,2-.21,1.71-1.31,2.93-1.56-.26-.62.26-1.43-.61-.28,2.25-1.06,4.24-.73,6.76.26,2.05,1.27,4.93.57,6.34l3.27,2c-2.32-1.69-2.72-1.23-2.92-5.18l2.37,2c1.75.46.48-.5.16-1.88a9.28,9.28,0,0,1-.39-2.63l-1.68-2.51,2.38-.43-3.42-.93a5.52,5.52,0,0,1,.28-1.63c.65-1.95,0-.25.71-1.13l3.76,1.47.68,2.25-.45-1.8c3.07,0,2.31.7,3.85,2.63-.24-1.54-.18-.29.5-.71a13.92,13.92,0,0,1,3.64,2.13l.52-.74a18.4,18.4,0,0,1-1.32-7.28,7.36,7.36,0,0,1,.14-1.24,1.93,1.93,0,0,1,.5-1,4.65,4.65,0,0,1,.56-3.16l-.45-2.28c-.09,2.4.07,2.15-.55,3.14-.12-6,.47-4.86-1.33-7.9-1.84,4.72-.16,5.6-1,9.34l-.45-7.91-2,.92Z" fill="#5d2401" fill-rule="evenodd"/><path d="M243.63,249.46V250a16.7,16.7,0,0,1,.59,6.67c-.15,1.58-1,.73.64,4l.28.05-.5-2.87c1,.24,2.52,2,3.66,3,.42.39.39.42.61.64l.7.73-.29-1.54c2.79,0,2.2,1.17,4.56,2.56l4.71,2.39-3.43-.18c.33,1.17.14.58.82,1.5l.81,1.23a5.92,5.92,0,0,1-1.84-.65c.36,1.34-.11.66-1.69.46l11.22,2.49c.13-1.92-1.84-3.7-2.56-5.69s-1.9-4.09-2-6.4c-.38.41-.16-.16-.48.85,0,.11-.12.6-.15.72l-.24.82-7.1-1.59c-.62-1.51-.18-4.42-.09-6.65l-1.45-.48c1.21-3,.8-2.58-.16-2.87l-.75-.76-2.64,6.41c-.26-2.31.21-2.31-.5-4.65a12.7,12.7,0,0,1-.15-4.85h-.51l0,3.37c-1.31.12-1,.26-2.05.82Z" fill="#a15e1a" fill-rule="evenodd"/><path d="M336.44,261.82l-.83,3.23c-.34-.26-.62-.05-1-.61.39,1.11.23.28.23,1.41-1.24.26-1.26.39-2.26-.06a2.61,2.61,0,0,0-.57.81c-.25.43-.35.74-.57,1.13-.49.88-.81,1.19-1.29,2.19,2-.12,3.1-.48,4.07-1.79,1,.55-.48,4.57-.73,5.65l.14,0c.8-.86.81-1.39,1.05-2.79a23.24,23.24,0,0,1,.62-3.16,20.67,20.67,0,0,1,2.24-5.72c1,2-1.43,8.92-1.58,11.66,1.15,1.21,3.12.74,4.52,1.43,4.95-2.17,4.39-1.36,11.26-4.77l-1,1.67,2.9-2.06-2.14,2.84c2.57-.33,3-1.08,5.14-2.79-.39-.83.12-.3-.64-1.26-3.08.42-6,1.52-9.25,1.86s-6.47.52-9.78.83l.42-1.84,6.38-.85.14-.42-2,.17c.87-1,4.33-4.43,4.28-5.74l-4.09.57c.9.61-.06.56,2.93.31-2.94,2.15-2.2,2-7,2.54l.61-3.07a3.06,3.06,0,0,0-1.1-1.89c-.17.09-.94.48-1.06.56Z" fill="#a35c0a" fill-rule="evenodd"/><path d="M244.27,238.23c-1.45-.4-.34.73-1.32-.87.42,1.93.64,2.12-1,2.76l-.34-1.29-.71,0-1.1.48-.79.63.48,7.66.17,2.87a4.63,4.63,0,0,0,1,3.58c.39,1.56,1,2.66,1.47,4.47a30.64,30.64,0,0,0,1.46,4.4c1.16,2.79,2.09,6.32,3.68,8.24-2.93-5.87-6.1-12.85-5.09-21.31l1.36.06v-.49a12.72,12.72,0,0,0,.73-3.11c.24-1.76-.12-1.68,1-2.45.35.51.49-.54.39,1.37h.51l.94-3.15c-.19-1.26.14-.58-.4-1.46-.73-.32-.18,0-.53-.42l.71-1.81,1-.32,0-.93c-1.14,1-.89.95-1.57,2.26l-2.67-.17.58-1Z" fill="#642b01" fill-rule="evenodd"/><path d="M288.84,269l-.95-.75c-.15.06-.31.15-.43.21-1.42.69-.79,1-3.34.47l-.52.74.21.8h-2.28l-1.53.79c-3.42-2.86-1.95-1.86-3.05-3.19l-.89-.65-2,0a19.79,19.79,0,0,0,2.62,4.32l1.24,1.26c-.05-1.43-.11-.32.46-.68l.86.42,12.4-1.89c-1,.73-1.42.42-2.48,1,.58-.08,2.3-.47,2.42-.12l1.69,1c.29.14,1.1.43,1.16.46s.53.3.64.38l.65.6c3,0,13.12-1.84,16-3.71l-1.38.22c-3.13.69-2,1.11-5.18-.3-1.61-.72-3-1.89-4.55-1l-1.09,1.51-1.39-.69a13.83,13.83,0,0,1-3.88-1.43,18,18,0,0,0-3.49-1.55l1.18.94c3.51,2,7.57,3.07,11.37,4.31-5.42,1.9-7.82-1.55-11.18-2.42-2.26-.59.17.19-1.8.19s-1-.28-1.49-1.16Z" fill="#a15e1a" fill-rule="evenodd"/><path d="M264.47,270.41c-.48,1.63.4.94.82,1s.11-.55.92.67a3.14,3.14,0,0,1,.48,1.69c-3.62,1.33-10.08-.47-12.06-2a23.85,23.85,0,0,1-3.24-1.78,2.7,2.7,0,0,0,1.21,2.5c2.05,1,6.55,3,8.94,3.4,2.41.17,3.41-.39,5.5-.51a3.27,3.27,0,0,1,2.35.66c1.94,1.25,1.18.66,1,1.34l7,3.19c-.65-1-.18-.43-1-1-1.1-.75-.35,0-1.57-1.34,3.09,1.17.75,1.46,3.82.82-1.8-1.52-3.75-2.29-5-4.26l-2.37-2c.2,3.95.6,3.49,2.92,5.18l-3.27-2c-1.54-.62-2-1.42-2.68-3.06a40.05,40.05,0,0,1-4.19-8.18c-1.61-1,.44,1.44-.81-.6-.44-.72-.24-.32,0-1-1.25-1.52-1.41-3.09-2-5l-1.29.19c.07,2.31,1.21,4.3,2,6.4s2.69,3.77,2.56,5.69Z" fill="#fbbc54" fill-rule="evenodd"/><path d="M325.32,68.41l-.59,1.67-1.17-3.41L322,79c-.56-.94-.34-.63-.55-1.77-.28-1.55-.08-1.13-.71-2.11-.86,3.28-.22,4.17,1.35,5.44l.61-1.12,1.44.42,0,5c1.16,1,.72.36,1.48,1.59l.15-7.85c1.05.85.58-1.27,1.07,2.46l.92,3.57a27.17,27.17,0,0,0-.26-4.4,12.28,12.28,0,0,1-.07-5.15c.6-2.14,0-5,.19-7.33A38.31,38.31,0,0,1,328.68,62a21.68,21.68,0,0,0-2.6,7l-.48-1.71-.28,1.19Z" fill="#f1b013" fill-rule="evenodd"/><path d="M391,168.33c1.54,1.27.7,1.4,3.88,4.38,3.06,1.39,1-.9,5.26,6.27,1.49,2.53,3.26,4.81,4.8,7.34l8.8,15.07c1.54,2.53,2.86,4.66,4.61,7.12,1.57,2.22,3.44,4.56,5.13,7a111,111,0,0,0,10.79,12.83,91.4,91.4,0,0,0-5.5-7.66,153.58,153.58,0,0,1-11.58-15.21c-5.15-8-9.75-17.15-15.38-25.67a174.56,174.56,0,0,1-10-17.22c.15,2.84,2.6,6.42,3.83,8.6.42.82.51-1,.33,1l-.76-.47c-1.83-.66-2.57-2.73-3.76-4.6-.86-1.36-2.07-4.12-3.43-5.15.62,2.33,2.51,4.49,3,6.36Z" fill="#531a01" fill-rule="evenodd"/><path d="M363,239.78c-.24.88.32.45-.49.89l1.19.13v7.79c-1.07-2.71-.45-3.22-.93-5.32l-.3-.56c-.39,1.82-1.09,2-1.74,3.28a38.72,38.72,0,0,0-1.18,3.84l-1-2-.05.4c.51,3.32.46,4.16-.68,7,1.94-1.09,2.16-2.57,4.1-4.33,3.37-3.06,1.39-1.6,3.41-4.15l-1.34,5c1.12-.75.82-.43,1.6-1.42.22-.27.59-.75.9-1.19a12.73,12.73,0,0,0,1.68-3.34l-.76.92c-.06.09-.11.21-.17.3a9.22,9.22,0,0,1-.64,1.07l.19-5.32c.52-2.91-.58-3.81,2.05-4.87l-.47,7.56.45-.58a4.71,4.71,0,0,0,1.22-2.15c-1.26-.74-.59.36-1-1.25,0,0,.08-1.71.08-1.71a5.33,5.33,0,0,1,.55-2.84c-1.89.86-5.05,2.74-6.71,2.8Z" fill="#975618" fill-rule="evenodd"/><path d="M285,289.8l2,1.48-11.76.94,2.68.47c2.3,0,13-2.06,16.83.36l-8.56.23,10.6,1.73c2.27-1.94,6.95-.48,8.95-2.74-.8-.38-.35-.2-.84-.78,9-2.3,8.42-1.21,13.78-6l1.09-.9c0-.1.11-.12.16-.17-1.33.14-9.75,4.05-12.15,5.17-1.32.61-2.27,1.42-3.49,1.95-6.44,2.8-16.72-1.46-19.25-1.71Z" fill="#995507" fill-rule="evenodd"/><path d="M284.25,274.89c-.61,1-.09.42-.89,1-1.06,1.18-1.48,1.64-2.64,2.81,0,.86.11.46-1.05.1-.79-.49-.6-.5-.3.34-.36,1.09.76.35-2.41,2.2-4.39,2.57-5.87,2.15-12.06,3.14,2.53,1.46,3.15,1.15,6.28,1.1l4-.94,2.41-1.3,4.52-4,.81,1.36,2.87-.79,1.67-.28c.53-.5.05-.15.19-1,.21-.62-.17-.17.35-.8s-.22,0,.73-.58a4.28,4.28,0,0,1,1.45-.59c-.5-.55,1.2-1.12-1.78-.69l-4.51,1.88,3.4-4.22,0-1.18c-1.37-.36-1.66.37-2.51,1.66-.33.5-.34.64-.37.55s-.13.19-.2.29Z" fill="#fbbc54" fill-rule="evenodd"/><path d="M277.59,283.32c1.64-.37,1.18-.86,2.37.5l13-1.65c-2.43,2.59-.88,1.07-3.27,2.5,3.5-.6,3.09,1.41,6.24,2.09,2.5-.05,6.8.83,10.48-1.55,1.64-1.07.79-.28.19-1-3.2.55-10.56,1.22-13.41-1.14l16.24-3.32a51.21,51.21,0,0,1-11.93,2.49c-3.13.24-9.64-.52-11.68-2.35l-2.87.79-.81-1.36Z" fill="#642b01" fill-rule="evenodd"/><path d="M287.6,176.88c-2.53-.13-3.28,1.07-6.13.13-8.94-2.92-11.78-25.29-17.3-31.21,2.59,7.36,5,14.47,7.64,21.61,1.06,2.89,3.76,7.84,5.49,9.17,3.45,2.64,6.88,3.45,10.3.3Z" fill="#291d05" fill-rule="evenodd"/><path d="M346.18,262.8c.05,1.31-3.41,4.72-4.28,5.74l2-.17a16.4,16.4,0,0,0,4-4.08c.41-.71.68-1.24,1-1.77.59-.93.09-.33.53-.74.63-.6.1-.18.82-.36.83-.41.05.23.79-.52l3-4.17c1.14-1.89,2.69-3.58,2.62-5.58l-2.29-.83c-1.17,1.47-4.25,7.58-6.13,9.48a6.49,6.49,0,0,0-2,3Z" fill="#f4b653" fill-rule="evenodd"/><path d="M347.15,277.49c-.81.38-9.9,3.21-9.93,3.21-1.64,0-4.09,2-5.36,2.78-1.23,0,0-.14-.37.82L330,285.87c2.4-.62,5.13-2.13,7.46-2.16,1.65-1.91,8.22-2.34,10.89-3.59,1.36-.15,1.36-.76,2.43-1.67a2,2,0,0,0,.3-1.82l-3.88.86Z" fill="#fbbc54" fill-rule="evenodd"/><path d="M261.54,275.94c.52.74-.55.35.44.57l-6.87,0,3.55,4.51c2.37,3,3.29,2.28,4.2,3.45l.78-.69c1-.4,0-.33,2.58-.27l2.12.17-6.5-2.54-4.27-2.58,5.74.36c2-1.43,4.9-1,7.33-.7l-.27-.76c.2-.68,1-.09-1-1.34a3.27,3.27,0,0,0-2.35-.66c-2.09.12-3.09.68-5.5.51Z" fill="#a35c0a" fill-rule="evenodd"/><path d="M391,168.33l-2.51.44c-2.85-2.63-14.17-30.52-14.19-30.55l-.38-1.2c-.35.49-.78-.32-.07,1.6.24.67.65,1.44.9,2.11,3,8.07,4.8,11.48,8.22,19,1.4,3.08,2.82,6,2.62,7.4l-.27.65-2.35.21c-2.43-2.24-3.37-7.88-5.17-11.47l-5.48-11,7.07,18c-2.61.14-2.54-.55-4.32-4.58l-2.79-6.07a.69.69,0,0,0-.15.31l-.9,1.44c-2.78-2.6-5.1-11.76-6.1-15.88-.73,1.35-.18,2.58.48,4.52a120.16,120.16,0,0,0,5.13,12.47l2.32.08c.63,1.83,1.64,3.69,2.41,5.65.88,1.08,12.5,7.24,14.83,8.42l.7-1.48Z" fill="#5d2401" fill-rule="evenodd"/><path d="M273.58,274.82c1.27,2,3.22,2.74,5,4.26-3.07.64-.73.35-3.82-.82,1.22,1.34.47.59,1.57,1.34.86.59.39,0,1,1l-7-3.19.27.76,2,.93c-3.65,1.87-5.7.06-9.32-.23a7,7,0,0,0,3,1.09c6.29,1.32,6.2-1.4,9.16,1,.07.05.21.35.26.26s.18.2.26.29L269,282.68c-2.48-.31-5-1.66-7.2-1.57l6.5,2.54-2.12-.17c-2.56-.06-1.61-.13-2.58.27l-.78.69c2.43.65,4.22,1.38,7,2l1.35-.89c-3.13.05-3.75.36-6.28-1.1,6.19-1,7.67-.57,12.06-3.14,3.17-1.85,2.05-1.11,2.41-2.2-2.34-2.43-3.47-7.3-6-8.81a9.28,9.28,0,0,0,.39,2.63c.32,1.38,1.59,2.34-.16,1.88Z" fill="#995507" fill-rule="evenodd"/><path d="M340.49,275.16l-5.4,3c-.33,1.44-.56,1.36,0,2.37l12.1-5.76a15.78,15.78,0,0,0,3.33-2.55,39,39,0,0,0-3.35,4.51c2.54-.07,1.62-.31,3.09-1.39.3-1.86.27-.94,1.19-2.46L353.6,270l-2.89,2.06,1-1.67C344.88,273.8,345.44,273,340.49,275.16Z" fill="#fdbe56" fill-rule="evenodd"/><path d="M351.89,237.8c2,1.27,2.54,2.39,4.22,4.32a10.6,10.6,0,0,1,2.41,6.15l.05-.4a19,19,0,0,1,1.86-5.2l2.07,0,0-2c.81-.44.25,0,.49-.89-.82-.77-1.16-1-1.77-1.59l-1.57.42c-.62-.26-1.44-.42-2.3-.85l-4.05-.63-.18,0-.67-.06c-.56.8.4.07-.59.76Z" fill="#591e01" fill-rule="evenodd"/><path d="M311.91,275.17c-1.19-.19-.21-.13-.65.59l5.19.15a17.67,17.67,0,0,1-8.1,2.65c-2.58.27-6.89.13-9.19-.71-.88.82-.44,1-2.94.49-.79-.15-1.59-.29-2.35-.48-1.3-.32-2.6-1-3.69-1.26a4.28,4.28,0,0,0-1.45.59c-1,.6-.33.09-.73.58s-.14.18-.35.8c2.22-.33,5.19,2.32,10.69,1.57,4.1-.55,7.47-1,11.69-1.2-1.43.56,0,0-.63.8,1.5-.5,2.28-1.1,3.93-1.73a33.13,33.13,0,0,0,4-1.85c2.22-1.15,5.31-2.1,7.41-4.2l-5.69,2.53c-3.26,1.35-3.84,1.06-7.18.68Z" fill="#a35c0a" fill-rule="evenodd"/><path d="M285.79,279.88c2,1.83,8.55,2.59,11.68,2.35a51.21,51.21,0,0,0,11.93-2.49c.63-.84-.8-.24.63-.8-4.22.22-7.59.65-11.69,1.2-5.5.75-8.47-1.9-10.69-1.57-.14.88.34.53-.19,1l-1.67.28Z" fill="#f3c283" fill-rule="evenodd"/><path d="M310.83,282.65c3.74-.12,10.23-1.35,13.63-3.49l.54-.4c.06,0,.17-.15.25-.22a6.23,6.23,0,0,0,.63-1.89c-2.24.89-2.38.7-4.81.47l5.9-5.24c-1.2.32-.58-.11-2,1.44a15.11,15.11,0,0,1-6,4c-1.82.77-6.09,2.81-7.42,4.32l-.73,1Z" fill="#a35c0a" fill-rule="evenodd"/><path d="M337.41,283.71c-.69.18-11.1,6.12-12.67,5.22a8.62,8.62,0,0,0-2.69,2l13.15-3.34c-1.41,2.38-1.66.13-2.55,2.88,1.61-.71,2.56-.94,3.61-2.24l-.75.13c4.67-4.17,4.72-5.87,10.88-7L346,282c0-.1-.11.26-.21.36a6.4,6.4,0,0,0,2.54-2.19c-2.67,1.24-9.24,1.67-10.89,3.58Z" fill="#a35c0a" fill-rule="evenodd"/><path d="M299.16,277.85c2.3.84,6.61,1,9.19.71a17.67,17.67,0,0,0,8.1-2.65l-5.19-.15c-6.87,2.19-8.77-.4-18-.31A9.61,9.61,0,0,0,299.16,277.85Z" fill="#fdbe56" fill-rule="evenodd"/><path d="M290.69,275.36l.06.56c.06,1,.36.92-.57.68,1.09.3,2.39.94,3.69,1.26.76.19,1.56.33,2.35.48,2.5.5,2.06.33,2.94-.49a9.61,9.61,0,0,1-5.91-2.4c9.24-.09,11.14,2.5,18,.31.44-.72-.54-.78.65-.59a22.59,22.59,0,0,1-4.57-1.59c-.87-.25-10.77,1.77-16.65,1.78Z" fill="#5d2401" fill-rule="evenodd"/><path d="M321.24,195.11c.83,1,8.13,15.39,8.53,16.82v1.24a5,5,0,0,0,1.36-2.14,23.41,23.41,0,0,0,.87-2.66l-.24-1c-1.83,1.43.18.57-1.9.91-.8-1.71-1.95-3.53-2.16-4.67l-5-9.72c-.88-1.72.19-1-1.41-1.27l-1.75.19c.54,1.22.8,1,1.7,2.29Z" fill="#e59b4e" fill-rule="evenodd"/><path d="M335.11,280.49A15.41,15.41,0,0,1,332,282.1a68.55,68.55,0,0,0-8.06,4.95c-.1.72.75.63-.16.63-.6.19-.72,1.13-3.32,1.88a35.07,35.07,0,0,0-3.11,2.3c-.06.38.25.69-.24,1.27l-1.46.18c-.61.4-.46.15-.79.47-1.31,1.24-.2-.11-1,1.34,2.76-.18,3.09-.28,4.82-1.57l.71-1.11c.48-.62.05-.22.58-.65a5.6,5.6,0,0,1,2.08-.9,8.62,8.62,0,0,1,2.69-2,9.92,9.92,0,0,1,1.6-1.18c.74-.51.91-.75,1.67-1.26,1.19-.8,2.17-1.34,3.48-2.19.33-1-.86-.82.37-.82,1.27-.81,3.72-2.77,5.36-2.78,2-1.34-1,1.24.54-.57l-2.65.36Z" fill="#f3c283" fill-rule="evenodd"/><path d="M289.09,92.77c.69-7.73,2.34-22.76,6.47-29.13,3.1-4.77,8.69-6.74,14.62-6.35l-1.43-.42c-5.09-.28-7.72.52-11.17,2.92-2.19,1.53-4.37,5.19-5.41,8.82-1.38,4.74-4.34,19.64-3.08,24.16Z" fill="#2b220a" fill-rule="evenodd"/><path d="M306.57,284.2c.6.73,1.45-.06-.19,1-3.68,2.38-8,1.5-10.48,1.55,3.22,3.82,9.87.8,13.62-.58-1,.19,0,0-.65.83,2.32-.76,2.74-1.62,5.22-2,1.91-.32,3.87-.55,5.22-1.59l-11.05.6c.45-.16,2.27-.74,2.38-1.1,0-.13.13-.16.19-.23l-4.26,1.55Z" fill="#a35c0a" fill-rule="evenodd"/><path d="M322.05,290.89a5.6,5.6,0,0,0-2.08.9c-.53.43-.1,0-.58.65l-.71,1.11c-.25.77-.2.36.09.64l1.61-.19c2.1-.55,4.35-.6,6.57-1.41,2.05-.75,3.94-1.4,5.7-2.16.89-2.75,1.14-.5,2.55-2.88l-13.15,3.34Z" fill="#fbbc54" fill-rule="evenodd"/><path d="M355.07,263.77c.81.51.44-.53.27.7a10.66,10.66,0,0,1-.46,1.19c-.3.71-.48,1.28-.82,2l3.44-.27c-.77,1.53,0,.39-1,1.64l.7-.23a6.32,6.32,0,0,0,2.08-3.74,11.34,11.34,0,0,0,2-4.31c.48-1.6,1.1-3,1.49-4.66l-1.21,1.21a3.92,3.92,0,0,1-.81.83c-1.39,1.08-.93.14-2,1.72-1.8,2.55-.27-.48-3.61,3.95Z" fill="#a35c0a" fill-rule="evenodd"/><path d="M332.05,263.8a6.35,6.35,0,0,1-.61,1.31c-.64.87-.41.45-1.1.84-.24,2.07-2.13,3.87-3,5.4.28.94.58.95-.32.53l-5.9,5.24c2.43.23,2.57.42,4.81-.47,1.94-1.69,3.27-4.44,4.28-6.73.48-1,.8-1.31,1.29-2.19.22-.39.32-.7.57-1.13a2.61,2.61,0,0,1,.57-.81,14.43,14.43,0,0,1,1.22-2.46c1.87-3.2.64-2.31.4-2.69-1.33,1.32-1.85,1.52-2.16,3.16Z" fill="#f3c283" fill-rule="evenodd"/><path d="M354.06,267.63l-6.11.64-2,.53h-2.21l-6.38.85-.42,1.84c3.31-.31,6.54-.49,9.78-.83s6.17-1.44,9.25-1.86l.5.21c1-1.25.26-.11,1-1.64Z" fill="#f3c283" fill-rule="evenodd"/><path d="M306.32,211.76l.4.26c.53-.42.17.28,1.09-1.72a49.58,49.58,0,0,0,3.35-12.91c.4-3.16.22-3.83,1.77-5,1.12,2.49-3.16,14.91-2.32,20.14l.65,0c-.47-4.36.76-13.34,2.37-16.7l-1.9,17c.59,1.6.11.59.89,1-.26-5.85,2.05-12.42,1.73-18.54l-.64-3.33c-4.33-.07-1.85,7.3-5.2,14.85-.72,1.63-1.65,3.36-2.19,4.92Z" fill="#554b34" fill-rule="evenodd"/><path d="M368.7,256.21c-.32.34-.18.34-.78.74-.09.06-.2.1-.3.16l-1.76.77c-3.08,1.49-2.33.75-3.36,3.34l1.16,1.37-2.34,1.54-.16,1.36c1.73-.42,1.53-.85,3.37-1.31,1-.61,2.53-1.48,2.77-2.92l1.47-3.37c1.2-.08.24.46,1.39-.78a11.21,11.21,0,0,0,1-1.3l.27-1-1,.44Z" fill="#fbbc54" fill-rule="evenodd"/><path d="M333.64,273.74a15.48,15.48,0,0,1-1.21,5.13l-.3,2.38,1.82-.62,1.22-3.3.8-3.61c.15-2.73,2.61-9.67,1.58-11.65a20.67,20.67,0,0,0-2.24,5.72,23.24,23.24,0,0,0-.62,3.16c-.24,1.4-.25,1.93-1.05,2.79Z" fill="#fdbe56" fill-rule="evenodd"/><path d="M261.84,281.11c2.23-.09,4.72,1.26,7.2,1.57l6.92-1.12c-.08-.09-.21-.37-.26-.29s-.19-.21-.26-.26c-3-2.43-2.87.29-9.16-1a7,7,0,0,1-3-1.09l-5.73-.36,4.27,2.58Z" fill="#fbbc54" fill-rule="evenodd"/><path d="M327.7,203.62c.21,1.14,1.36,3,2.16,4.67,2.08-.34.07.52,1.9-.91a110.65,110.65,0,0,0-3-15.83l-1.29-1.49c1.4-.54,1.81.14,2.3,1.18.07,1.92,1.26,5.43,1.89,7.51.52,1.72,2.2,6.43,2.39,7.83,2.16,1.73,1.12.76,1.51,0-2.58-3.73-4.76-12.19-6.07-17-1.63-.41-.93-.52-3,.27.59,2.68-.26.37,1.17,1.61,2.13,1.84,2.54,13.2,2.8,15.89-.85-.36-.17.62-1.49-1.72C328.48,204.79,328.08,204.31,327.7,203.62Z" fill="#544930" fill-rule="evenodd"/><path d="M246.89,266l.85.31c1.83.65,3.11,1.57,5.51,1.61,1.58.2,2.05.88,1.69-.46-1.45-.95-4.19-4.2-5.34-5.31a4.22,4.22,0,0,1,1,1.63c-2.87-1.08-3.38-2.28-5.43-3.15l-.28-.05,2,5.42Z" fill="#591e01" fill-rule="evenodd"/><path d="M313.63,291.06a20.54,20.54,0,0,1-7.92,1.21c-2,2.26-6.69.8-9,2.74a39.55,39.55,0,0,0,11.47-.75c4.28-.92,7.47-3.76,9.12-2.4a35.07,35.07,0,0,1,3.11-2.3,15.65,15.65,0,0,0-3.11,1.37,4.32,4.32,0,0,1-3.08.53c-.09,0-.26,0-.32-.17s-.23-.13-.31-.23Z" fill="#5d2401" fill-rule="evenodd"/><path d="M261.74,271.56c1,.1,3.1.74,3.55-.1-.42-.11-1.3.58-.82-1l-11.22-2.49c-2.4,0-3.68-1-5.51-1.61-.37.62-.26.62-.29,1.64C248.59,268.78,259.45,271,261.74,271.56Z" fill="#f3c283" fill-rule="evenodd"/><path d="M241.11,264.08c.68,1.46.54,1.63.54,3.46-1.1-.65-.46-.31-1.18-1-.87-.85-.2-.34-1-.74a7,7,0,0,0,1.85,2.38c.9,1,.15-.46.94,1.22,1.1,2.34.14,1.27-.27,1.57l1,.77a5.59,5.59,0,0,0,.71,2.87c.41,2.07.27.43-.24,1l6.69,4.34c-.56-.81-.09-.29-.75-.94l-.73-.62c-.29-.29-.39-.46-.57-.64-3.65-3.75-3.44-4.68-6.28-13.43,1.53,1.76,1.18,2.83,2.72,4.54l.58.53c-.46-1.14-3.24-7.38-3.79-7.88l-.23,2.6Z" fill="#975618" fill-rule="evenodd"/><path d="M324.64,206.64l2.91,10.1c1-1.64.36-2.12,1.8-3.2.68.26.52.36.42-.37v-1.24l-1.23,0a70.7,70.7,0,0,1-3-6.65c-.52-1.18-.93-2.22-1.51-3.51-.74-1.65-.74-2.29-2-3.25l2.66,8.1Z" fill="#e8932e" fill-rule="evenodd"/><path d="M288.63,268.15c.1.83-.27.39.21.83.49.88-.55,1.16,1.49,1.16s-.46-.78,1.8-.19c3.36.87,5.76,4.32,11.18,2.42-3.8-1.24-7.86-2.32-11.37-4.31l-1.18-.94c-2-.43-.49-.77-2.83-.82l.6,1.5C288.55,267.73,288.6,268,288.63,268.15Z" fill="#f3c283" fill-rule="evenodd"/><path d="M317.25,122.54l-3.4-15.85c-.6-2.18-.81-3.71-1.76-5.17-.36,1.16-1.76-5.26-2.09-5.68l-1.62-1.19c2.95,6.3,4.76,13.85,6.37,20.68.3,1.27.68,2.38,1,3.61.17.66.22,1,.4,1.66a4.11,4.11,0,0,0,.33,1c.47.86.35.49.77,1Z" fill="#e8932e" fill-rule="evenodd"/><path d="M366.27,236.06a9.3,9.3,0,0,1-5,2.13c.61.63.95.82,1.77,1.59,1.66-.06,4.82-1.94,6.71-2.8l3.4-1.11a3.51,3.51,0,0,0,.74-2.44l-1.27.31-6.33,2.32Z" fill="#fdbe56" fill-rule="evenodd"/><path d="M403.67,194.23c3.12,4.24,2.89,5.7,8.58,12.45-.76-2.16-7.33-11.5-9.81-16.2l-9.2-16.43c-.74.29-.43-.58-.66.86,1.72,1.35,4.28,6.88,5.58,9.37,1.87,3.61,3.54,6.55,5.51,9.95Z" fill="#591e01" fill-rule="evenodd"/><path d="M282.14,211.3l-.62.57c-1.74,2.27-1.2,2.12-3.54,3.23l.19-2.82-.67,1.8c1,2.12.75.79.65,4.25l1.37-2.46c.24-.32,3-2.83,4.88-5.15,1.19-1.5,1.67-2.35,2.87-3.85l2.26-2.81c1.42-1.44.58-.49.86-.5l2.49-3.49a2,2,0,0,1,.35-1l-1.3-.05-.23.06c-.22,2.15-1.62,3.48-3.59,5.26-1,.94-.37.25-1.05,1.45s-3.66,3.75-4.92,5.49Z" fill="#e8932e" fill-rule="evenodd"/><path d="M289.66,284.67l-.53,1,1,.66c1.84.13,1.06.36,2.72.88a13.48,13.48,0,0,1,1.64.45c2,.93.63.36,1.1,1.06,2.53,1.16,3.66,2.11,6.42,1.31.51-.7,6.51-3.6,6.9-3,.66-.87-.35-.64.65-.83-3.75,1.38-10.4,4.4-13.62.58C292.75,286.08,293.16,284.07,289.66,284.67Z" fill="#f3c283" fill-rule="evenodd"/><path d="M361.32,264.13l2.34-1.54-1.16-1.37c1-2.59.28-1.85,3.36-3.34l1.76-.77c.1-.06.21-.1.3-.16.6-.4.46-.4.78-.74-1.12-.89-.76.76-.39-1.7.11-.74.2-1.42.3-2.16a7,7,0,0,0-3.88,3.15l1-2.79c-2.17,1.46-.9,1.13-2.39,2.22l.37.26.15.09.26.07c-.89,1.94-2.73,7.06-2.85,8.78Z" fill="#a35c0a" fill-rule="evenodd"/><path d="M275.18,284.62c1.55.81.26.07,1.38,1.09.5.45,0,.2.74.49l-1.08.51c2.65.79,1.08.26,2.83,2,.76.53.35.18.94,1l.54.79.18.3a3.54,3.54,0,0,1,.19.31c1.94-1.1,1.39-1.23,4.1-1.32-.83-1.33-.65-.57-2-1.5l-3.45-2.77a5,5,0,0,0-1.89-1.13l-.11-1.08Z" fill="#a35c0a" fill-rule="evenodd"/><path d="M330.16,269.92c-1,2.29-2.34,5-4.28,6.73a6.23,6.23,0,0,1-.63,1.89c.65-.27,1.24-.59,1.67-.77,2-.83.83.76,2.16-1.08a84.41,84.41,0,0,0,5.15-8.56c-1,1.31-2,1.67-4.07,1.79Z" fill="#591e01" fill-rule="evenodd"/><path d="M430.93,233.1c-.59-2.1-7-10.72-8.34-12.51l-6.45-9.05c-1.22-1.78-1.08-1.89-2.58-2.88.44,1.34,3.2,5.31,4,6.48l3.08,4.45a19.08,19.08,0,0,0,1.39,1.53c2.48,3,4.16,5.91,6.38,9.12.87,1.26,1.25,2.29,2.5,2.86Z" fill="#591e01" fill-rule="evenodd"/><path d="M295.55,288.73c-.47-.7.88-.13-1.1-1.06a13.48,13.48,0,0,0-1.64-.45c-1.66-.52-.88-.75-2.72-.88a4.35,4.35,0,0,0-3-.5c1.42,2.41,1.5,3.35,4.12,4a27,27,0,0,0,6.92.54c-3.05-1.24-3-.83-2.58-1.68Z" fill="#f4b653" fill-rule="evenodd"/><path d="M280.9,291.12a3.54,3.54,0,0,0-.19-.31l-.18-.3-.54-.79c-.59-.81-.18-.46-.94-1-2.43.73-5.37.31-7.86-.2-2.81-.58-4.21-1.56-6.67-2.09,5.63,2.28,3,1,7.52,3.75a9.21,9.21,0,0,0,8.86.93Z" fill="#5d2401" fill-rule="evenodd"/><path d="M277.5,214.08c-.65,4.13.73,3.6-.85,8.47.38.63-.29.83.71,0s.51-.65.69-1.21l-.61-.51c1.75-3-.05-.6,2.48-3.31a11,11,0,0,0,1.22-1.71c.74-1,1-.88,1.67-1.66l4.67-6.24c.77-.88.35-.39.94-.82l2-3.52c-.28,0,.56-.94-.86.5l-2.26,2.81c-1.2,1.5-1.68,2.35-2.87,3.85-1.84,2.32-4.64,4.83-4.88,5.15l-1.37,2.46c.1-3.46.32-2.13-.65-4.25Z" fill="#492e11" fill-rule="evenodd"/><path d="M343.39,124.32c.9-1.88,1.45-8.09,2.22-10.76l2.89-10.62,1.57,5.69c.56-.87-.43-4.49-1-6-.77-2-.34-1.71.81-5.83-1.8.89-6.88,25.21-6.77,26.75.06.77.16.51.28.73Z" fill="#7a431a" fill-rule="evenodd"/><path d="M235.73,241.5c-.06,3.83-5,13.72-1.6,19.08-.11-9.65-.07-7,2.23-15.51a17.12,17.12,0,0,1,1.55-4.8L237,240Z" fill="#fbbc54" fill-rule="evenodd"/><path d="M319.89,284.39c-.05.05-.14.07-.16.17l-1.09.9c-5.36,4.82-4.74,3.73-13.78,6,.49.58,0,.4.85.78a20.54,20.54,0,0,0,7.92-1.21l1.46-1.22c.58-.45.79-.58,1.49-1.06.26-.72-.05-.58,1.32-1.61.62-.47,1-.74,1.63-1.26,3.35-2.71,2.22-2.1,3.2-2l-.61-.36-2.23.87Z" fill="#f9c587" fill-rule="evenodd"/><path d="M335.11,280.49l2.65-.36c-1.5,1.81,1.51-.77-.54.57,0,0,9.12-2.83,9.93-3.21l-.61.11c0-.21.22-.74.27-.57s.27-.21.38-.34a39,39,0,0,1,3.35-4.51,15.78,15.78,0,0,1-3.33,2.55Z" fill="#5d2401" fill-rule="evenodd"/><path d="M302,290c-2.76.8-3.89-.15-6.42-1.31-.39.85-.47.44,2.58,1.68a27,27,0,0,1-6.92-.54c-2.62-.68-2.7-1.62-4.12-4a4.35,4.35,0,0,1,3,.5l-1-.66.53-1c-7.26,1.4-5.15,2.23-9-.7,1,1.53.54,1,2.14,2.13.82.59,1.36,1,2.21,1.56,4.62,2.92,13.47,4.19,16.06,3.2L302,290Z" fill="#975618" fill-rule="evenodd"/><path d="M332.43,278.87l-2.69,1.26.13.12c-2.29.78-1.45,1.29-3.32,3.08a14.11,14.11,0,0,0-2.62,3.72A68.55,68.55,0,0,1,332,282.1a15.41,15.41,0,0,0,3.12-1.61c-.58-1-.35-.93,0-2.37l.08-.79-1.22,3.3-1.82.62Z" fill="#995507" fill-rule="evenodd"/><path d="M273.35,270.31c2.55,1.51,3.68,6.38,6,8.81-.3-.84-.49-.83.3-.34.25-2.4-1.46-3.45-1.76-5.83l-1.24-1.26a19.79,19.79,0,0,1-2.62-4.32l-2.38.43Z" fill="#f3c283" fill-rule="evenodd"/><path d="M249.6,262.15c1.15,1.11,3.89,4.36,5.34,5.31a5.92,5.92,0,0,0,1.84.65l-.81-1.23c-.68-.92-.49-.33-.82-1.5l3.43.18-4.71-2.39c-2.36-1.39-1.77-2.55-4.56-2.56l.29,1.54Z" fill="#fbbc54" fill-rule="evenodd"/><path d="M315.07,77.79c.88-1.34-.09-.7,1.94,2.14-.16.91-.22.28.26,0l.64-.44a12.44,12.44,0,0,0,.22,2.12c.27,1,.6,1.21,1.33,2l.09-7.88L318.73,73l.26,5.11c-1.19-2-.23-1.84-1.89-3.21-.62,1.3-.28,2.11-.18,4.38l-2-4.41h-1.17a11.56,11.56,0,0,0,.47,1.56C314.7,77.56,314.5,77.12,315.07,77.79Z" fill="#fcd14b" fill-rule="evenodd"/><path d="M257,262.1a12.73,12.73,0,0,1-5-3l-2.93-1c.26,3.23.47,1.08,2.69,2.6a24.75,24.75,0,0,0,2.79,2.19l7.24,3c-1.18-3.36-2.94-1.5-4.81-3.81Z" fill="#fdbe56" fill-rule="evenodd"/><path d="M239.49,265.79c.78.4.11-.11,1,.74.72.7.08.36,1.18,1,0-1.83.14-2-.54-3.46-1.22-.85-1.83-2.09-2.47-3.89l-1.24-2.85-.86-3.8c-1,1.32.09,5.12.53,6.72.63,2.31,1.93,3.54,2.42,5.53Z" fill="#fbbc54" fill-rule="evenodd"/><path d="M252.66,273l-.06-.44a2.7,2.7,0,0,1-1.21-2.5,23.85,23.85,0,0,0,3.24,1.78L252.8,270l8,2.15c.33-.86-.67-.71,1-.62-2.29-.6-13.15-2.78-14.29-3.61,0-1-.08-1,.29-1.64l-.85-.31,0,2.55,2.26.6.4,5,1.91,1.27c-1.28-3.3-2.76-3.77-1.05-6.09a10.81,10.81,0,0,1,.68,2.87l1.53.78Z" fill="#a15e1a" fill-rule="evenodd"/><path d="M278.05,221.33a9.26,9.26,0,0,1,1.43-1.72c1-1.06.19-.52,1.49-1.23,0,0,.43-.53.49-.57.7-.49,0-.08.82-.4.36-2.18.23-.28,2-3.47.41-.74.6-1.07,1.07-1.84a8.12,8.12,0,0,1,.47-.79l.86-1,1.72-3.23c-.59.43-.17-.06-.94.82l-4.67,6.24c-.66.78-.93.63-1.67,1.66a11,11,0,0,1-1.22,1.71c-2.53,2.71-.73.31-2.48,3.31l.61.51Z" fill="#f79a2b" fill-rule="evenodd"/><path d="M266.19,265.07c.18,1.43.57,2.67.81,4.15a16.82,16.82,0,0,0,1.18,3.7c1.47-.93.06-4.4-.29-5.87a35.94,35.94,0,0,1-.79-6.68,3.07,3.07,0,0,1-.93-.37c-.09,0-.84-.51-.89-.54l.91,5.61Z" fill="#fdbe56" fill-rule="evenodd"/><path d="M322,198.54c1.31,1,1.31,1.6,2,3.25.58,1.29,1,2.33,1.51,3.51a70.7,70.7,0,0,0,3,6.65l1.23,0c-.4-1.43-7.7-15.81-8.53-16.82l-.28.25,1,3.18Z" fill="#291d05" fill-rule="evenodd"/><path d="M281.09,210.83c.51.7-.4.6,1.05.47,1.26-1.74,4.19-4.2,4.92-5.49s0-.51,1.05-1.45c2-1.78,3.37-3.11,3.59-5.26-2.76,1.09-.84,1.29-2.74,3.19-1.32,1.31-.2-.47-2.68,2.75-2.11,2.75-1.49,1.45-2.7,2.7-.49.5-.65.87-1.14,1.41l-.82.84-.19.25c-.05.07-.13.22-.17.28s-.11.21-.17.31Z" fill="#b19b8d" fill-rule="evenodd"/><path d="M214.08,176.79l.68-3.14-2.21,4.52L209.91,177l.18,2.13c2.85,1.37,1.38-.86,4.09-1.18l2.85-3.48,4.18-1.23a15,15,0,0,1,2.82-6,2,2,0,0,0,.44-2.1c-3.15,4.3-2.62,6.19-3.76,7.15s-2.77.87-3.73,1.72C215.19,175.49,216.72,176.44,214.08,176.79Z" fill="#642b01" fill-rule="evenodd"/><path d="M270.86,276c.71-1.41-.31-4.29-.57-6.34-.33-2.52.45-4.51.73-6.76.23-1.05.45-.9-.56-.57l-1,.48-.26,7.26c-.19,4.9.3,4.25,1.64,5.93Z" fill="#f3c283" fill-rule="evenodd"/><path d="M336.26,288.19c1-.11,8.38-4.93,9.5-5.87.1-.1.18-.46.21-.36l.42-.61c-6.16,1.1-6.22,2.8-10.88,7Z" fill="#fdbe56" fill-rule="evenodd"/><path d="M268.18,272.92c.66,1.64,1.14,2.44,2.68,3.06-1.34-1.68-1.83-1-1.64-5.93l.25-7.26,1-.48v-.43l-2.13.83-1-2.14c0-.13-.13-.13-.19-.2a35.94,35.94,0,0,0,.79,6.68c.35,1.47,1.76,4.94.29,5.87Z" fill="#975618" fill-rule="evenodd"/><path d="M249.72,234.45l-1.79,2.73,0,.93-.23.34c1.53.44.45.45,1.13-.87.19-.37.38-1.07.62-1.54,2,.46.67-.06,1.84.94,1.3-.88,1.8-1.84,3.56-2.63l-.19-1-4.53-.71C250.39,233.58,250.93,234.36,249.72,234.45Z" fill="#014279" fill-rule="evenodd"/><path d="M229.46,245.24c-1.43.17-2.9,1.85-4,3l.21,2.83a2.63,2.63,0,0,0,2.1-1.61c.83-1.2,1.53-1.42,3.1-2.5l-.3-2.57Z" fill="#fbbc54" fill-rule="evenodd"/><path d="M215.29,144.47a2.71,2.71,0,0,0,1.14-1.75l2.69-6.95,2.61-10.62c-1.16,1.1-1.16,2.43-1.82,4.7-.48,1.66-.94,3.56-1.53,5.18C217.66,137,214.76,143.11,215.29,144.47Z" fill="#531a01" fill-rule="evenodd"/><path d="M247.5,234c-.44,1.08-2.46,2.82-3.23,4.27l-.58,1.05,2.67.17c.68-1.31.43-1.25,1.57-2.26l1.79-2.73,0-1.42c-.76-.17-.14-.3-1,.12C248.31,233.39,248.33,233.51,247.5,234Z" fill="#fdbe56" fill-rule="evenodd"/><path d="M327.29,95.29c.4-.39.37-.39.45-1.25a9.37,9.37,0,0,0,0-7.26l-1-2.3c-.6,2.94-.24,7.44-.21,10.74l.72.07Z" fill="#f1b013" fill-rule="evenodd"/><path d="M334.25,70.68a34,34,0,0,0-4.62,17.83c1.22-4,1-7.67,4-14.7a24.82,24.82,0,0,1,2.12-3.88L336,69Z" fill="#2b220a" fill-rule="evenodd"/><path d="M328.68,62a38.31,38.31,0,0,0-1.07,5.83c-.2,2.38.41,5.19-.19,7.33,1.38,0,1.12-1.44,1.66-2.71-.05-.1-.15-.35-.17-.29l-.28-1.05c-.34-3.69.92-8.63,1.71-12.14a11.19,11.19,0,0,0-1.66,3Z" fill="#352b16" fill-rule="evenodd"/><path d="M261.74,271.56c-1.64-.09-.64-.24-1,.62l1.79,1.22c.07.05.22.35.27.26s.18.2.27.29c-7.37-1.21-5.77-1.53-8.47-2.13,2,1.53,8.44,3.33,12.06,2a3.15,3.15,0,0,0-.48-1.7c-.81-1.22-.47-.42-.92-.67-.45.84-2.51.2-3.55.1Z" fill="#683406" fill-rule="evenodd"/><path d="M331.49,284.3c-1.31.85-2.29,1.39-3.48,2.19-.76.51-.93.75-1.67,1.26a9.92,9.92,0,0,0-1.6,1.18c1.57.9,12-5,12.67-5.22-2.33,0-5.06,1.54-7.46,2.16l1.54-1.57Z" fill="#5d2401" fill-rule="evenodd"/><path d="M229.56,249.7l1,5.68c1.17,1.1.5,1,2.12,3.29l-1.29-8.22a6.27,6.27,0,0,0-.67-2.63c-1.84,1-1.15.39-1.16,1.88Z" fill="#fdbe56" fill-rule="evenodd"/><path d="M332.48,257.76l.49,2.73c1.21-.15.83-.32,1.81.26.07,2.35-.95,1.1-.16,3.69.37.56.65.35,1,.61l.83-3.23c-.89-.6.88-.82-1.12-.45a2.49,2.49,0,0,0,1.12-1.55l-1.93-.9c2.14-.38,1.52,0,2.31-.63l-2.86-.73.25,1.12Z" fill="#d7d7d8" fill-rule="evenodd"/><path d="M311.26,212.54l.47.3,1.9-17c-1.61,3.36-2.84,12.34-2.37,16.7Z" fill="#f79a2b" fill-rule="evenodd"/><path d="M364.67,191.91c.25-.55.36.75.19-.67a10.86,10.86,0,0,0-.39-1.14l-2.91-6.76a35,35,0,0,0-4.52-8.56c.23,1.32,6.88,16.29,7.63,17.13Z" fill="#a86518" fill-rule="evenodd"/><path d="M310.34,270.59l1.38-.22a18.87,18.87,0,0,0,2.2-7.81c-1.74.75-.48,0-1.14.87l-.75-.18c-.17,1,.32.51-.84,1.07l-.13,2.15,1,1.47-2.38.79c1.85.78.9-.06,1.67.82l-1.29.19Z" fill="#d3d3d5" fill-rule="evenodd"/><path d="M243.22,188.6c-1,2.45-3.58,5.83-4.08,8.43,1.85-.87.91-1.9,2.64-3.23.14-2,5.31-9.89,6.32-13.49-2,.71-3.13,7.06-4.88,8.29Z" fill="#a86518" fill-rule="evenodd"/><path d="M255.1,276.48l6.88,0c-1-.22.08.17-.44-.57-2.39-.4-6.89-2.37-8.94-3.4l.06.44c.78,1.31,1.76,2.2,2.44,3.5Z" fill="#591e01" fill-rule="evenodd"/><path d="M390.73,208.49c-.89-3.63-7.49-15.18-10-19.23.48,1.65,7.07,14.44,8.9,17.85.79,1.48.32.71,1.11,1.38Z" fill="#5d2401" fill-rule="evenodd"/><path d="M351.84,211.08c1-2-1.51-5.42-2.29-7.25l-2.69-7.72c-.46.6-1.2-1.11.38,3.73.68,2.1,4,10.25,4.6,11.24Z" fill="#a2a1a6" fill-rule="evenodd"/><path d="M274.05,267.37l2,0-.68-2.25-3.76-1.47c-.7.88-.06-.82-.71,1.13a5.52,5.52,0,0,0-.28,1.63l3.42.93Z" fill="#fbbc54" fill-rule="evenodd"/><path d="M342.09,263.37l-3.49-.23-.61,3.08c4.83-.51,4.09-.39,7-2.54-3,.25-2,.3-2.93-.31Z" fill="#f4b653" fill-rule="evenodd"/><path d="M287.33,272.39l0,1.18v.22c3.13.36,1.37.18,3.53-.72.95.31,1,.65,1.72.85a20,20,0,0,0,3.18.16l-.65-.6c-.11-.08-.51-.31-.64-.38s-.87-.32-1.16-.46l-1.69-1c-.12-.35-1.84,0-2.42.12l-1.3-.07Z" fill="#561e00" fill-rule="evenodd"/><path d="M229.94,95.68c1.46-1.32,1.37-3,2.71-4.22l6.61-.49c-.85-1.32-1.26-1.36-3.1-1.32-3.76.09-5.79,1.75-6.22,6Z" fill="#531a01" fill-rule="evenodd"/><path d="M387.5,159.51l-7.34-16.63c-.29.49-.32-.43-.28.69.06,1.45,6.22,15.26,7.62,15.94Z" fill="#683406" fill-rule="evenodd"/><path d="M240.74,254.09l1.06,1c.57-5.23,1.37-7.19-.75-11l-.31,10Z" fill="#fbbc54" fill-rule="evenodd"/><path d="M234.47,195.32c-.63,2.56-2.58,4.59-2.71,6.09,2.11-.64,2.87-4.29,4-6.54,1-2,3.6-5.85,3.83-7.69a20.76,20.76,0,0,0-2.78,4.13C236.19,192.45,235.34,194.53,234.47,195.32Z" fill="#a86518" fill-rule="evenodd"/><path d="M315,89.47h0c.5-.17.35.37,1.16-.5a1.26,1.26,0,0,0,.29-.89,4.77,4.77,0,0,0-.4-1.7l-4.27-1.64h0a3.16,3.16,0,0,0,.33-.53s-.09,0-.11-.13a1.81,1.81,0,0,1,.08-.58c-1.08.64-.39.17-1.21,1-.95,1,0,.32-1.48,1.19,1.07,2.23,1.19.12.9,2.6l.34.54c.07.08.59.59.63.63a7,7,0,0,0,3,1.6c1.92.3,1.35.16,2-.59Z" fill="#b6b6b9" fill-rule="evenodd"/><path d="M276.06,267.4l.89.65c1.1,1.33-.37.33,3.05,3.19l1.53-.79a4.12,4.12,0,0,1-2.07-2.22c-1.54-1.93-.78-2.6-3.85-2.63Z" fill="#fdbe56" fill-rule="evenodd"/><path d="M263.31,278.89c3.61.29,5.66,2.1,9.31.23l-2-.93c-2.43-.29-5.35-.73-7.33.7Z" fill="#f3c283" fill-rule="evenodd"/><path d="M250.27,249.12l-.92.32-2.49,9.36,1.7,1.58c-.38-10.39,2.92-8.07,1.71-11.26Z" fill="#fbbc54" fill-rule="evenodd"/><path d="M326.42,216.91c1.09.92.77,1.38,1.5,2.75a5.94,5.94,0,0,0,.85,1.34c1.29,1.53.42.57.77.4-1.24-3.47-2-3.83-.19-7.85-1.44,1.07-.81,1.55-1.8,3.19l-2.91-10.1Z" fill="#492e11" fill-rule="evenodd"/><path d="M343.88,268.37l-.14.42H346c2.71-3.13,3.26-2.24,5.43-4.69l-3.53.18a16.4,16.4,0,0,1-4,4.08Z" fill="#591e01" fill-rule="evenodd"/><path d="M234.35,235.81c1.41.91,1.44,1.53,2.63,3.57.32-.58.87,1.18-.13-2.6a6.52,6.52,0,0,0-5.72-4.15c.29,1.66,0,.91,1.53,1.92a14.85,14.85,0,0,1,1.69,1.26Z" fill="#fbbc54" fill-rule="evenodd"/><path d="M319.89,284.39l2.23-.87.61.36c2.52-.78,2.86-2.08,4.38-4.59-3.7,1.33,1,.67-7.81,3.76l1.42.61c-2.18.34-.17-.07-.83.73Z" fill="#a96923" fill-rule="evenodd"/><path d="M331.62,66.85c-.7,3.5-2.14,6.75-1.74,10.65l1.46-3.15c-.22-3.51,1.46-7.59,1.88-10.74l-1.6,3.24Z" fill="#352b16" fill-rule="evenodd"/><path d="M358.64,185.52c-.83-2.34-2.42-4.68-3.47-7.1l-3-7.8c-.72,1.49,3,9.64,4.1,11.75,2,3.8.81,3,2.39,3.15Z" fill="#a86518" fill-rule="evenodd"/><path d="M353.15,237.1l.18,0c3.17-.95,4.16-1.55,5.85.66l-1.8,0c.86.43,1.68.59,2.3.85v-1.54l2.19.29c-.9.47-.39.52-.63.83a9.3,9.3,0,0,0,5-2.13l-1.39.12-.37-.72-.08.95-1.13,0-.31.7-5.59-1.32.75-.75a12.83,12.83,0,0,0-2.48.7c-.35.13-.9.3-1.24.45C352.77,237,353.8,236.39,353.15,237.1Z" fill="#975618" fill-rule="evenodd"/><path d="M239.88,234.92a3.54,3.54,0,0,1,.68.94c.4.85-.07-.18.33.95.24.69.47,1.27.76,2l.34,1.29c1.6-.64,1.38-.83,1-2.76-2.21-3.79-.47-4-3-4.49C239.49,234.61,239.56,233.8,239.88,234.92Z" fill="#fdbe56" fill-rule="evenodd"/><path d="M254.63,271.82c2.7.6,1.1.92,8.47,2.13-.09-.09-.22-.37-.27-.29s-.2-.21-.27-.26l-1.79-1.22-8-2.15Z" fill="#fbbc54" fill-rule="evenodd"/><path d="M358.57,247.87l1,2a38.72,38.72,0,0,1,1.18-3.84c.65-1.32,1.35-1.46,1.74-3.28l-2.07,0a19,19,0,0,0-1.86,5.2Z" fill="#fbbc54" fill-rule="evenodd"/><path d="M312.09,272.48a9.36,9.36,0,0,0,5.52,0,17.79,17.79,0,0,0,1.85-1c1.34-.76,1.08-.81,2.68-.9,1-.27.22.11.93-.39.86-.59.62-.59.93-1l-11.91,3.25Z" fill="#f9c587" fill-rule="evenodd"/><path d="M259.94,258.32l1.29-.19c.58,1.95.74,3.52,2,5,.16-1.64.23-.79.47-1.08,1.84.25,1.59.56,1.74,2.53.44.25.35,0,.76.45l-.91-5.61c.05,0,.8.5.89.54a3.07,3.07,0,0,0,.93.37l-2.3-1.56.22,2.94-4.25-4.25C258.93,258.06,260.39,257.52,259.94,258.32Z" fill="#a96923" fill-rule="evenodd"/><path d="M259.31,287.5c.87,1,2.65,1.46,3.87,1.87-.13-.08-.27-.44-.32-.33l-.64-.53,13,4c-1.94-1.47-10-3.63-12.54-4.61l-3.78-1.38c0,.09.14.25.18.35s.11.25.14.33S259.27,287.4,259.31,287.5Z" fill="#a15e1a" fill-rule="evenodd"/><path d="M367,98.43c.56-.55.35.11.22-.9a3.69,3.69,0,0,0-.3-.94,40.93,40.93,0,0,1-2-6.36l-1.15-1a5.42,5.42,0,0,1-.74-1.37c-1.42-3-1.93-2.37-7.94-3,.94.47.81.12,2.09.11,4.9,0,5.2,3.42,5.66,4.3.92,1.8,1.38,1.13,2.2,4.14a18.56,18.56,0,0,0,2,5Z" fill="#592101" fill-rule="evenodd"/><path d="M237.91,240.27c.14.31,0,2.68.16,4.17.22,2.14.65,2.45,1.25,4.42l.21-1.22-.48-7.66c-.25-1.77.09-1.65-1.24-2.3l.1,2.59Z" fill="#fbbc54" fill-rule="evenodd"/><path d="M358.85,269.27c0,1.55,0,.36.36.64l1.34-.34.41-.33.52-.27c1.87-1.07.7-.43,2.24-2.51a2.38,2.38,0,0,1,.23-.27l-.16-.19c-.32-1.41.74-.27-.57-1-5.56,3.32-1.55,1.69-4.37,4.26Z" fill="#fdbe56" fill-rule="evenodd"/><path d="M238.64,260.2c.64,1.79,1.25,3,2.47,3.88l.23-2.6c-.11-2.07-.76-3.05-1.39-4.81l-1.31,3.53Z" fill="#591e01" fill-rule="evenodd"/><path d="M289.61,196.06c.07-.06.78-.72.84-.75.61-.36.39-.29,1.36-.1.49,2.26-1.18,1-2.81,3.32-4.64,6.42-4.24,4.61-8.72,12.84l1.24.5.62-.57c-1.45.13-.54.23-1.05-.47l-.18-.84,9-11.43c1.28-1.5.88-.44,1.94-1.39l.14-2.56c-1.46.06-1.7.47-2.35,1.45Z" fill="#352b16" fill-rule="evenodd"/><path d="M236.11,252.85l.61-2.12-.11-2.75c-1.07.79-2,4.69-2.1,6.16l.69,7.2c.08-2.68-.06-6.12.91-8.49Z" fill="#f3c283" fill-rule="evenodd"/><path d="M245.13,260.63c2.05.87,2.56,2.07,5.43,3.15a4.22,4.22,0,0,0-1-1.63l-.7-.73c-.22-.22-.19-.25-.61-.64-1.14-1-2.66-2.78-3.66-3Z" fill="#f3c283" fill-rule="evenodd"/><path d="M231.14,163.06c-.94,0-1.47.3-2-.61s.19-.21-.65-2.37l-.2,2.91,7.12-7.68c-.49.47-.27,0-.72.77s-1.31,4.75-3.57,7Z" fill="#591e01" fill-rule="evenodd"/><path d="M204,208.33c.06-.07.17-.28.19-.21s.16-.18.19-.23l1.92-4.41,5.56-15.59c-.76.73-7.68,18.82-7.86,20.44Z" fill="#352b16" fill-rule="evenodd"/><path d="M277.91,273a2.75,2.75,0,0,1,.23.2l1.19,2.19c.32.86.74,1.86,1,2.65l2.11-2.58c-.94-.81-2.43-2-3.21-2.72l-.86-.42c-.57.36-.51-.75-.46.68Z" fill="#fdbe56" fill-rule="evenodd"/><path d="M348,268.27l6.11-.64c.34-.69.52-1.26.82-2a10.66,10.66,0,0,0,.46-1.19c.17-1.23.54-.19-.27-.7C353.63,265.69,350.5,266.9,348,268.27Z" fill="#591e01" fill-rule="evenodd"/><path d="M335.17,277.33l-.08.79,5.4-3c-1.4-.69-3.37-.23-4.52-1.44Z" fill="#591e01" fill-rule="evenodd"/><path d="M236.72,250.73l-.61,2.12c.74-.06.49-.18.43.69l.86,3.8a11.42,11.42,0,0,0,.74-1.67c.69-1.8.41-.22.52-2l-1.23-3.84c-.78,1.58-.14.2-.71.9Z" fill="#561e00" fill-rule="evenodd"/><path d="M237.36,274.49a14.22,14.22,0,0,0-3.28-3.92l-1.58-2.72.43,1.35-2.26,1.13c1.2,2.22,1.53,1.23,3.68,1.95A8.51,8.51,0,0,1,237.36,274.49Z" fill="#894c15" fill-rule="evenodd"/><path d="M249,257.57l2,.48.33-5.47c-2.55,1-2.28,2-2.36,5Z" fill="#fdbe56" fill-rule="evenodd"/><path d="M260.46,245.3a3.12,3.12,0,0,0-.71,1.91Z" fill="#a5a5a9"/><path d="M265.38,251.44l6.63-2.39c-.16-.15.93-1-1.54-.45-.62.14-3.17,2.11-4.79,1.84l-6-2.64c0-.21,0-.41.07-.59-.17.45-.34.92-.55,1.45A7.24,7.24,0,0,0,265.38,251.44Z" fill="#a5a5a9"/><path d="M351.47,272.84c-.92,1.52-.89.6-1.19,2.46.37.07.13,0,1-.23a11,11,0,0,1,1.9-.34c.63-1,.46-.46,1.12-1.28a6.57,6.57,0,0,0,.94-1.59c.69-1.19,1.23-1.85,1.95-3.09l-.7.23-.5-.21c.76,1,.25.43.64,1.26C354.51,271.76,354,272.51,351.47,272.84Z" fill="#5d2401" fill-rule="evenodd"/><path d="M271.18,285.56l-1.35.89,6.39.26,1.08-.51c-.71-.29-.24,0-.74-.49-1.12-1,.17-.28-1.38-1.09l-4,.94Z" fill="#561e00" fill-rule="evenodd"/><path d="M268.18,272.92a16.82,16.82,0,0,1-1.18-3.7c-.24-1.48-.63-2.72-.81-4.15-.41-.41-.32-.2-.76-.45l-1.44.12A40.05,40.05,0,0,0,268.18,272.92Z" fill="#5d2401" fill-rule="evenodd"/><path d="M239.57,268.89,242,271c.41-.3,1.37.77.27-1.56-.79-1.69,0-.26-.94-1.23a7,7,0,0,1-1.85-2.38l-1.35-1.12Z" fill="#f9c587" fill-rule="evenodd"/><path d="M279.13,208.46c-1.22.13-1,.44-1-.69l-2.87-.07-.07-.19-.26-.42c-1.94,1.95-.26.67-2.37,1.85l-.84-.23c0-.06-.13-.22-.18-.28l-.34-.51.75-2.22c-1.38.74-2,2.25-2.56,3.8-.87,2.41-.79,2.83-2.12,4.49l4.7-11.4c-2.22,1.64-2.54,3.85-4.21,5.85l2.12-5c-1.75,1.38-.76,1.14-2.63,2.54.86-2.42,2.13-2.95,3.85-6.14l-3.82,3.2,3.58-5.68c-3.95,1.63-3.7,5.11-6.58,7.32l2.11-4.63c-1.2.23.08-1.11-2.34,2.82l1.94-5.14c-1.5,1.08-1.54,1.93-2.46,4.26-.24-.43-.59.43,0-1.91l-2.64,5.45c-.57-.88-.92,1.4.29-2.66l.43-2.41-3.34,7.3,1.2-5.68-2.86,5.37c-.4-1.13.09-.37-.9-1.64-.46,2.13-1.12,4.57-1.62,6.82-.27,1.18-.5,2.22-.74,3.36-.41,2-.11,1.82-1.05,3.35-.17-4.55,1.08-3.12.13-6-1.62,2.17-1.15,6.32-2.08,8.74a10.88,10.88,0,0,1,1,2.58l7.6.95a10.41,10.41,0,0,0-2.15,2.7l6.3.42c-1.08,2.46-6.87,3.92-8.42,4.72l.19,1a25.82,25.82,0,0,1,4.41-1.88c3.47-1.41,8.48-7.57,9.17-9.66,1.08-3.25-.54-7.42,1.8-10.8l8.5-2.38-.61,2.65.25-.3C279.21,210.88,279.45,210.93,279.13,208.46Zm-21.39,3.92c-.62,2.6-1.27,7.25-2,8.46-.93-2.5,1.43-8.39,1.86-11.44C258.21,211.48,258.16,210.63,257.74,212.38Zm3.67-2.55.37-2.43-.67.55-.21.19h0l-.31.26c.09-.09.24-.3.31-.26l.23-.19.67-.61v.06l.05,0,1.27-3.62A7.3,7.3,0,0,1,261.41,209.83Z" fill="#a5a5a9" fill-rule="evenodd"/><path d="M247.75,238.45c0,.94.2,2-1,2.21.54.88.21.2.4,1.46l3-3.75c1.24-1.21.54.09,1.19-1.39-1.17-1,.2-.48-1.84-.94-.24.47-.43,1.17-.62,1.54-.68,1.32.4,1.31-1.13.87Z" fill="#bb8236" fill-rule="evenodd"/><path d="M350.28,275.3c-1.47,1.08-.55,1.32-3.09,1.39-.11.13-.34.48-.38.34s-.27.36-.27.57l.61-.11,3.88-.86a2,2,0,0,1-.3,1.82l1.84-.15c.89-.68.37-.36.8-1-1.4,1.06,0,.44-1.53.71a4.4,4.4,0,0,1,1.32-3.27,11,11,0,0,0-1.9.34C350.41,275.31,350.65,275.37,350.28,275.3Z" fill="#8f5010" fill-rule="evenodd"/><path d="M354.07,259.76c-.93.85-2.57,2-3.86,1.66-.72.18-.19-.24-.82.36-.44.41.06-.19-.53.74-.33.53-.6,1.06-1,1.77,2.12-1.31,0-1.17,3.35-2.38,5-1.81,2.64.88,4.52-.85l4.49-5-1.75,1.5c-2.46,2.5-3.06,4.15-4.39,2.24Z" fill="#975618" fill-rule="evenodd"/><path d="M206.89,172.69c.76-.6,0,.52.89-.9a14,14,0,0,0,.59-1.49l3.1-8.83c-1.61,1.33-4,8.56-4.58,11.22Z" fill="#5d2401" fill-rule="evenodd"/><path d="M359.25,265l2.1-6.79c-.88.75-3.6,6.9-4.46,8.56,1.84-.51.7,0,2.14-1.57a1.5,1.5,0,0,1,.22-.2Z" fill="#fcc05a" fill-rule="evenodd"/><path d="M241,106c.83-1,.32,1,.67-1.39l.44-4.64h-1l-.41-2.76c-.66,1.18.09,7.18.27,8.79Z" fill="#834c26" fill-rule="evenodd"/><path d="M237.4,257.34l1.24,2.85,1.31-3.52-1.29-3c-.11,1.78.17.2-.52,2A11.42,11.42,0,0,1,237.4,257.34Z" fill="#a35c0a" fill-rule="evenodd"/><path d="M329.87,280.25l-.13-.12,2.69-1.26a15.48,15.48,0,0,0,1.21-5.13l-.14,0c-.87.91-1.08,2-1.73,3C330.84,278.33,330.06,278.67,329.87,280.25Z" fill="#561e00" fill-rule="evenodd"/><path d="M243.47,275.58c.51-.55.65,1.09.24-1a5.59,5.59,0,0,1-.71-2.87l-1-.77-2.44-2.07c.82,2.44,2.79,4.61,3.9,6.69Z" fill="#561e00" fill-rule="evenodd"/><path d="M227.75,213.37c2.15-.86,3.65-6.44,4.47-8.64C231.15,205.16,227.79,213.15,227.75,213.37Z" fill="#5d2401" fill-rule="evenodd"/><path d="M358.15,235.08l-.75.75,5.59,1.32.31-.7a5.27,5.27,0,0,1-2.5-1.52c-.81.41-1,.38-1-.68Z" fill="#f4b653" fill-rule="evenodd"/><path d="M235.73,110.4c.09-.09.24-.34.28-.27s.21-.21.25-.28l.47-1.21-1.5-.23c.07-2.61,0-1.68-.95-4.84-.65,1.66-.35,1.58.3,5.21.31,1.68.25,1,1.15,1.62Z" fill="#724e2d" fill-rule="evenodd"/><path d="M375.08,123.07a21.76,21.76,0,0,0-1.65-5.4c-.6-1.5-1.17-4.39-2.26-5.11a74.55,74.55,0,0,0,3.22,9.59l.69.92Z" fill="#6f3c15" fill-rule="evenodd"/><path d="M381.68,199.38,377,187.59C377.25,190,379.88,198.23,381.68,199.38Z" fill="#591e01" fill-rule="evenodd"/><path d="M243.63,249.46c1-.56.74-.7,2.05-.82l0-3.37c.1-1.91,0-.86-.39-1.37-1.09.77-.73.69-1,2.45A12.72,12.72,0,0,1,243.63,249.46Z" fill="#f4b653" fill-rule="evenodd"/><path d="M282.44,275.41l.92.46c.8-.56.28,0,.89-1-.4-.52-.11-.31-.72-.83a4.52,4.52,0,0,0-.77-.52,5.74,5.74,0,0,0-1.7-.66l-1.83-.19C280,273.4,281.5,274.6,282.44,275.41Z" fill="#591e01" fill-rule="evenodd"/><path d="M279.67,278.78c1.16.36,1.05.76,1.05-.1,1.16-1.17,1.58-1.63,2.64-2.81l-.92-.46L280.33,278c-.26-.79-.68-1.79-1-2.65l-1.19-2.19a2.75,2.75,0,0,0-.23-.2C278.21,275.33,279.92,276.38,279.67,278.78Z" fill="#a15e1a" fill-rule="evenodd"/><path d="M232.43,212c1.55-.54,2-2.4,2.66-3.93a13,13,0,0,0,1.48-4.64c-1.18,1.49-2.23,4.79-3.12,6.35-.76,1.33-.79.67-1,2.22Z" fill="#592101" fill-rule="evenodd"/><path d="M364.69,184.3c-.09-1.71-.51-.76-.74-5.25l-.88.73-2.58-4.31c.06.29,3.06,7.86,4.2,8.83Z" fill="#b6762a" fill-rule="evenodd"/><path d="M281.06,272.88a5.74,5.74,0,0,1,1.7.66,4.52,4.52,0,0,1,.77.52c.61.52.32.31.72.83.07-.1.17-.36.2-.29s0-.05.37-.55c.85-1.29,1.14-2,2.51-1.66l.52-.69-6.79,1.18Z" fill="#a35c0a" fill-rule="evenodd"/><path d="M290.18,276.6c.93.24.63.36.57-.68l-.06-.56h-4.31c.51-1.76-.2-.28.9-1.58v-.22l-3.4,4.22,4.51-1.88c3-.43,1.28.14,1.78.69Z" fill="#8f5010" fill-rule="evenodd"/><path d="M315.19,88.42c.42-1.75-.53-2.9-2.34-3.12C312.35,87.23,313,88.71,315.19,88.42Z" fill="#241a01" fill-rule="evenodd"/><path d="M257,262.1l3.73,1.26-.72-2.12-4.16-.58,1,1.19Z" fill="#fdbe56" fill-rule="evenodd"/><polygon points="284.55 280.77 282.64 280.95 283.19 283.63 285.63 283.65 284.55 280.77" fill="#ab650d" fill-rule="evenodd"/><path d="M362.5,242.71l.3.56c.48,2.1-.14,2.61.93,5.32V240.8l-1.19-.13,0,2Z" fill="#fdbe56" fill-rule="evenodd"/><path d="M279.46,268.23a5,5,0,0,1,2.07,2.22h2.28l-.21-.8a13.92,13.92,0,0,0-3.64-2.13c-.68.42-.74-.83-.5.71Z" fill="#fdbe56" fill-rule="evenodd"/><path d="M251.63,278l1.21,1.28,5.19,4a4.18,4.18,0,0,0-1.31-1.68c-2.33-2.1-.92-.36-3.39-4.24-.08.09-.19.14-.23.29-.28,1-1.46.33-1.47.32Z" fill="#975618" fill-rule="evenodd"/><path d="M312.08,83.5c2.06,0,2.73-.45,3.88,1.29s1.61,2.69,1,5.11h.65c.36-3.12-.81-4.57-1.77-6.73a4.59,4.59,0,0,0-2.08-.48,2.38,2.38,0,0,0-1.05.28,1.48,1.48,0,0,0-.63.53Z" fill="#a2a2a4" fill-rule="evenodd"/><path d="M239.49,117.92a3,3,0,0,0,1.31-1.24l1.39.79c-.36-.87.9-1.22-2.33-1.44l-.32-.06-.24-3.59c-.65,1-.65,2.16-.42,3.84a2.92,2.92,0,0,0,.61,1.7Z" fill="#9a6846" fill-rule="evenodd"/><path d="M319.49,77l.53,1.21c.06-.09.16-.3.18-.25s.13-.2.14-.27c.59-3.06-.9-2.3.81-3.53l-1.39-4.69c-.13,2.38.53,6.37-.27,7.53Z" fill="#fbd66d" fill-rule="evenodd"/><path d="M225.79,127.67l-1.67-1.2c-.09,5.14,3.54,1.87,3-1.58l-.19-.47C226.32,125.88,226.72,126.24,225.79,127.67Z" fill="#683406" fill-rule="evenodd"/><path d="M375.19,199.29c-.68-2.63-1.7-5.85-3.53-7.88C372.17,193.26,373.82,198.43,375.19,199.29Z" fill="#a96923" fill-rule="evenodd"/><path d="M224.13,200.56l.23.88c1.69-1.57,2.76-5.06,3.77-7.26C226.94,194.72,225.12,199.22,224.13,200.56Z" fill="#a96923" fill-rule="evenodd"/><path d="M251.59,137.63c1.24-2.15.45-3.2-.42-6.09,0,.08-.15.1-.16.24s-.12.2-.13.26c-.17,1.41.31,1.24.13,2.69S250.06,135.71,251.59,137.63Z" fill="#592101" fill-rule="evenodd"/><path d="M212.46,169.31c1.18-.83,3.22-6.64,2.93-7.8A24.81,24.81,0,0,0,212.46,169.31Z" fill="#6f3c15" fill-rule="evenodd"/><path d="M310.08,221.57c.43-1.33-.37-.85.52-3a4.51,4.51,0,0,0-.45-3.8c-.66,1.88-.95,5.12-.07,6.8Z" fill="#463a25" fill-rule="evenodd"/><polygon points="324.73 70.08 325.32 68.41 324.29 64 323.46 66.38 323.56 66.67 324.73 70.08" fill="#fbcd94" fill-rule="evenodd"/><path d="M370.53,110.93c.17-2.89-1.18-5.12-1.77-7.59l-.55-.08c.14,1.26,1.63,6.93,2.32,7.67Z" fill="#6f3c15" fill-rule="evenodd"/><path d="M364.94,246.07a6.09,6.09,0,0,0,1.37-4.15l-1.91.06Z" fill="#fbbc54" fill-rule="evenodd"/><path d="M263.22,263.17c-.28.65-.48.25,0,1,1.25,2-.8-.37.81.6l1.44-.12c-.15-2,.1-2.28-1.74-2.53C263.45,262.38,263.38,261.53,263.22,263.17Z" fill="#f0af4f" fill-rule="evenodd"/><path d="M231.47,119.86l-2,.94-1.25-1.38C227,122.21,230.54,123.69,231.47,119.86Z" fill="#5d2401" fill-rule="evenodd"/><path d="M353.33,237.13l4.05.63,1.8,0c-1.69-2.21-2.68-1.61-5.85-.66Z" fill="#fdbe56" fill-rule="evenodd"/><path d="M353.28,100.71l-1.07-9c-.48.5-.87-.82-.47,2,.13.93.35,1.43.47,2.54C352.39,97.83,352.35,99.55,353.28,100.71Z" fill="#6f3c15" fill-rule="evenodd"/><path d="M214.87,201.16l3.68-5.29a4.45,4.45,0,0,0-1.1,1.61l-1.33,1.73c-.45-.9-.51,1.26-.31-1.26l1.2-4.35c-1.14,1.5-2.8,5.85-2.14,7.56Z" fill="#5d2401" fill-rule="evenodd"/><path d="M256.11,149.83c.16-1.22-.64-3.32-1.18-5.3-.32-1.14-.1-.72-1-1.77.32,2.33.7,5.82,2.14,7.07Z" fill="#683406" fill-rule="evenodd"/><path d="M228.34,187.49c1.19-.64.37.69,1.38-1.2.8-1.52-.63.07,2.21-4-2.48.28-1.76,1.3-3.59,5.25Z" fill="#a86518" fill-rule="evenodd"/><path d="M359.22,253c.77-.45.25,0,.83-.57l1.65-2.11-1.14-1.46A7,7,0,0,0,359.22,253Z" fill="#fdbe56" fill-rule="evenodd"/><path d="M364.25,133.21a2.12,2.12,0,0,0,.64-1.69c0-1.22-1.32-4.55-1.79-5.87-.61.8-.93-1.56.56,3.1C364.32,130.81,363.64,131.91,364.25,133.21Z" fill="#6f3c15" fill-rule="evenodd"/><path d="M327.29,271.35c.92-1.53,2.81-3.33,3-5.4,0,.06-.14.07-.16.18l-3.85,4.81,1,.41Z" fill="#975618" fill-rule="evenodd"/><path d="M257.85,161.41c.78-1.75-.65-5.58-1.25-7.37-.54,1.25.39,3.9.67,5.32Z" fill="#642b01" fill-rule="evenodd"/><path d="M345.82,129.09c-1.18,1.38-.14.77-1.69,1.16l-1.24-3.34C342.93,132.6,346.07,133.07,345.82,129.09Z" fill="#5d2401" fill-rule="evenodd"/><path d="M279.23,272.69l1.83.19,6.79-1.18,1.3.07c1.06-.55,1.46-.24,2.48-1l-12.4,1.89Z" fill="#f9c587" fill-rule="evenodd"/><path d="M244.08,123l1.35-1.62c-.63-.24-.91-.1-1.77,0l-.36-3.37a5.28,5.28,0,0,0-.39,2.94C243,122.92,243,122.56,244.08,123Z" fill="#663a24" fill-rule="evenodd"/><path d="M223.21,160.21,222,158.53l3.88-.71C224,159.49,225.62,159.49,223.21,160.21Z" fill="#5d2401" fill-rule="evenodd"/><path d="M380.4,138.93l.73,2.4c.53-.61,2,1.4-.52-3.21-.85-1.53-.5-2-1.64-3.54l0,1.24,1.38,3.11Z" fill="#834c26" fill-rule="evenodd"/><path d="M358.85,269.27c2.82-2.57-1.19-.94,4.37-4.26,1.31.72.25-.42.57,1,.33-.43.2-.1.59-1,.26-.57.07-.23.15-.83-1.84.46-1.64.89-3.37,1.31l.16-1.36-2.47,5.14Z" fill="#975618" fill-rule="evenodd"/><path d="M243,178.75c1.91-1.5,3.11-5.39,3.95-7.62A41.18,41.18,0,0,0,243,178.75Z" fill="#a96923" fill-rule="evenodd"/><path d="M351.94,110.6c.29.16.82,2.21,1.59-1.88l1.56,1.89-1.27-3.46c-1.22.73-.53.62-1,2C352.43,110.3,352.1,110,351.94,110.6Z" fill="#834c26" fill-rule="evenodd"/><path d="M348.81,117c.46-.5.76.61.77-2.64l-1.18,1.3-1.3-2C347.22,115.75,347,116.39,348.81,117Z" fill="#6f3c15" fill-rule="evenodd"/><path d="M367.61,180.8l2.13.75c-.45-2.09-.33-.79-2.64-4.11C366.23,179.12,368.25,178.18,367.61,180.8Z" fill="#a86518" fill-rule="evenodd"/><path d="M221.33,193.43l3.74-4.06c-2.19,1.92.69.91-3,2.44l.14-3.5C221,189.22,221,191.78,221.33,193.43Z" fill="#642b01" fill-rule="evenodd"/><path d="M232.82,238.37l.53,1c1.47-1.69,1.42-.68,2.25-1.24l-.64-1.38-2,.53Z" fill="#fbbc54" fill-rule="evenodd"/><path d="M233.71,186.36c2-1.71,2.72-4,3.63-6.47-.71.76-1.14,2.18-1.82,3.05C234.57,184.17,233.57,184.8,233.71,186.36Z" fill="#a86518" fill-rule="evenodd"/><path d="M235.73,241.5l-1-2.71c-1.39,1.47-.62,2.73.35,4C235.12,242.56,234.87,242.52,235.73,241.5Z" fill="#fbbc54" fill-rule="evenodd"/><path d="M357.79,109.83a45.05,45.05,0,0,1-2.3-5.66c-.09.17-.76-.52-.13,1.36.3.91.26.08.67,1.49.15.5.21,1.51.31,1.74C357.09,110.43,356.12,109.27,357.79,109.83Z" fill="#7a431a" fill-rule="evenodd"/><path d="M364.32,241.08c.54.23-.57.58,2.19,0l.09-1.83a6.91,6.91,0,0,0-1.61.52C363.61,240.65,364.47,239.69,364.32,241.08Z" fill="#fbbc54" fill-rule="evenodd"/><path d="M246.82,120c1.38-.42.94-.63.7-2.41-.19-1.41-.16-2.21-.85-3.18l.15,5.59Z" fill="#834c26" fill-rule="evenodd"/><path d="M232.5,267.85l-.3-3.33.92-.33-.33-1.66a3.72,3.72,0,0,0-.94,1.55,3.28,3.28,0,0,0-.2,1.37C231.62,268.06,232.49,267.84,232.5,267.85Z" fill="#724e2d" fill-rule="evenodd"/><path d="M249.86,126c.4-.49,1.21,1.29-.22-3.46l-1.25-.15C248.65,123.14,249.46,125.06,249.86,126Z" fill="#5d2401" fill-rule="evenodd"/><path d="M242.34,113.86c1.06-1.23,1.66-4,2.29-6.08-.61.57-.26-.14-.94,1.11a21.85,21.85,0,0,0-1.35,5Z" fill="#6f3c15" fill-rule="evenodd"/><path d="M358.46,98.78c-.12-3.34.32-3.87-.47-5.25,0,.09-.11.13-.12.28a.83.83,0,0,1-.09.28l-.15,3.34c.24,1.72.45,1,.83,1.35Z" fill="#8d5731" fill-rule="evenodd"/><path d="M332.59,265.79c1,.45,1,.32,2.26.06,0-1.13.16-.3-.23-1.41-.94-1.1.11,0-.89-.71Z" fill="#f4b653" fill-rule="evenodd"/><path d="M239.41,110c-1.14-2.19-.5-.92-.77-2.78s-.53-1.79-1.46-2.48c2.1,3.19-.69,5,2.23,5.26Z" fill="#8d5731" fill-rule="evenodd"/><path d="M356,99.16l-.36-4.63c-.19-1.13,0-.59-.76-1.84a32.25,32.25,0,0,0,.27,3.54c.22,1.63.22,2,.85,2.93Z" fill="#683406" fill-rule="evenodd"/><path d="M239.84,239.35l1.1-.48c-.49-1.45-.61-1.83-2.13-2.48a8.83,8.83,0,0,1,.39,1.61C239.67,239.92,239.33,238.79,239.84,239.35Z" fill="#fdbe56" fill-rule="evenodd"/><path d="M338.38,152.69c.77-.61,1.27-1.09,0-3.94A4.53,4.53,0,0,0,338.38,152.69Z" fill="#9a6846" fill-rule="evenodd"/><path d="M298.13,270.1l1.39.69,1.09-1.51c-.46-1,.31-.42-.62-.76C298.15,269.4,298.83,269,298.13,270.1Z" fill="#dfdee1" fill-rule="evenodd"/><path d="M303,213c1.27-.72,1.72-2.92,1.66-4.52C303.59,209.39,303.16,211.4,303,213Z" fill="#a5a5a9" fill-rule="evenodd"/><path d="M276,201.33c.12-.07.31-.29.37-.19.31.51,3.8-4.62,3.91-4.79-1.39,1.24-3.64,3.19-4.28,5Z" fill="#a1a0a5" fill-rule="evenodd"/><path d="M360.55,269.57l-1.34.34c-.38-.28-.37.91-.36-.64-.51.32,0-.4-.85.77l-1.48,3.08.77-.85c1.35-1.78-.52-.11,2.28-1.86Z" fill="#975618" fill-rule="evenodd"/><path d="M236.57,103.75l-.73-7.33C235.42,98.36,235.45,102.07,236.57,103.75Z" fill="#6f3c15" fill-rule="evenodd"/><path d="M253.26,211.87c.35-.49.05.31.57-.9a9,9,0,0,0,.42-3.72c-.71,1.09-1.44,3.38-1,4.62Z" fill="#a8a7ab" fill-rule="evenodd"/><path d="M340.08,142.76c.89-1.1.44-.65.67-2.29a8.18,8.18,0,0,0,.27-2c-1.48.36-1,2.9-.94,4.26Z" fill="#683406" fill-rule="evenodd"/><path d="M373.6,188.66c.39-.42,1.09,0,.19-2-.48-1.12-.44-.89-1.51-1.8Z" fill="#a86518" fill-rule="evenodd"/><path d="M378.14,132.13c.48-.5.66.87.35-1.39a10.2,10.2,0,0,0-.53-1.29,18.45,18.45,0,0,1-.9-2c-.29,1.43.65,3.06,1.08,4.64Z" fill="#6f3c15" fill-rule="evenodd"/><path d="M360.55,269.57a7.56,7.56,0,0,0,2.14-.63c.4-.16.88-.32,1.23-.5,1.18-.61.28-.15.82-.6l-1.37.31.58-2a2.38,2.38,0,0,0-.23.27c-1.54,2.08-.37,1.44-2.24,2.51l-.52.27Z" fill="#7a431a" fill-rule="evenodd"/><path d="M246.77,240.66c1.18-.21,1-1.27,1-2.21l.23-.34-1,.32-.71,1.81C246.59,240.67,246,240.34,246.77,240.66Z" fill="#fbbc54" fill-rule="evenodd"/><path d="M351.89,237.8c1-.69,0,0,.59-.76L349.56,236C350.17,237.38,350.24,237.36,351.89,237.8Z" fill="#a5a5a9" fill-rule="evenodd"/><path d="M234.08,270.57c-1.24-.72-1.22-.52-2.93-.16l3.37,1.34Z" fill="#fdbe56" fill-rule="evenodd"/><path d="M319.78,194.55l1.18.81.28-.25c-.9-1.34-1.16-1.07-1.7-2.29l1.75-.19-2.24-.06c-.18,1,0,1,.56,1.78A2.12,2.12,0,0,1,319.78,194.55Z" fill="#544930" fill-rule="evenodd"/><path d="M360.8,234.93a5.27,5.27,0,0,0,2.5,1.52c-.06-.06-.15-.24-.17-.19l-.49-1.13c2.47-.62,1-.66,1.87.33,0-1.33.76-.06-.26-1.35-1.66.59-1.1.2-1.89,1.29Z" fill="#724e2d" fill-rule="evenodd"/><path d="M326.36,164.62l-.53.09.38,3.22C327.83,167,326.71,166.61,326.36,164.62Z" fill="#2b220a" fill-rule="evenodd"/><path d="M363.3,236.45l1.13,0,.08-.95c-.9-1,.6-1-1.87-.33l.49,1.13S363.24,236.39,363.3,236.45Z" fill="#fbbc54" fill-rule="evenodd"/><path d="M395.7,213.3l-2.5-5.23A8.18,8.18,0,0,0,395.7,213.3Z" fill="#6f3c15" fill-rule="evenodd"/><path d="M328.74,191.55l1-.31c-.49-1-.9-1.72-2.3-1.18Z" fill="#f79a2b" fill-rule="evenodd"/><path d="M359.68,238.61l1.57-.42c.24-.31-.27-.36.63-.83l-2.19-.29Z" fill="#fbbc54" fill-rule="evenodd"/><path d="M241.45,276.69a5.38,5.38,0,0,0,.72.7c.41.33.05,0,.51.34s.84.5,1.39.85a16.33,16.33,0,0,0-1.28-1.81c-.21-.25-.52-.63-.75-.88l-.59.8Z" fill="#8f5010" fill-rule="evenodd"/><path d="M280.36,206.69a10.25,10.25,0,0,0,3.33-3.38c-1.3.62-.69.55-1.77,1.53-.47.41-.67.43-.95.73C280.24,206.35,280.67,205.68,280.36,206.69Z" fill="#463a25" fill-rule="evenodd"/><path d="M247.5,234c.83-.44.81-.56,1.28-.8.82-.42.2-.29,1-.12l0,1.42c1.21-.09.67-.87.46-1.78l-1.43-.31C248.15,233.55,248.6,232.81,247.5,234Z" fill="#834c26" fill-rule="evenodd"/><path d="M372.6,233.74l1.27-.31a3.51,3.51,0,0,1-.74,2.44l1.18-.58-.06-2.49c-.53.13-.41,0-.85.25-.74.41-.28.17-.8.69Z" fill="#4e3330" fill-rule="evenodd"/><path d="M288.63,268.15c0-.12-.08-.42-.1-.35l-.6-1.5c2.34.05.85.39,2.83.82-1.21-1.58-1.28-1.2-3.64-.64l1.51,1.67Z" fill="#975a26" fill-rule="evenodd"/><path d="M278.16,207.77c0,1.13-.25.82,1,.69.45-.86,0,0,.6-.77s.34-.27.63-1Z" fill="#362b12" fill-rule="evenodd"/><path d="M206,178.67l.88-.88L205.78,176C205.56,177.68,205.35,177.33,206,178.67Z" fill="#592101" fill-rule="evenodd"/><path d="M330.26,264.79l.08,1.16c.69-.39.46,0,1.1-.84a6.35,6.35,0,0,0,.61-1.31Z" fill="#b6762a" fill-rule="evenodd"/><path d="M231.72,127.05l.5-1.44-.66-1.89C230.92,124.8,231.46,125.86,231.72,127.05Z" fill="#6f3c15" fill-rule="evenodd"/><path d="M278.05,221.33c1.43-.47.12.28,1-.47.07-.05.52-.61.59-.69.51-.65.75-1,1.31-1.79-1.3.71-.51.17-1.49,1.23a9.26,9.26,0,0,0-1.43,1.72Z" fill="#785b46" fill-rule="evenodd"/><path d="M271.9,201.21c1.1-.6.43-.06,1.25-1a6.45,6.45,0,0,1,.78-1C272.28,199.26,272.29,199.52,271.9,201.21Z" fill="#aaaaad" fill-rule="evenodd"/><path d="M354.87,275.6l3.47-1.68c-1,.25-1.4.33-2.25.48-.11,0-.37-1.23-1.22,1.2Z" fill="#894c15" fill-rule="evenodd"/><path d="M292.88,200.07c1.4-.51.67.08,1.19-1-.86-.57.39-.37-.83-.45-2.34-.16-.64,0-1.31.4l1.3.05A2,2,0,0,0,292.88,200.07Z" fill="#6c562e" fill-rule="evenodd"/><path d="M346.85,126.05l.1-1.48c-.44-1.47,0-.87-1.33-2.23Z" fill="#683406" fill-rule="evenodd"/><path d="M287.44,198.69c1-.44,0,.6,1.19-1a9.83,9.83,0,0,0,1-1.66A5.29,5.29,0,0,0,287.44,198.69Z" fill="#736952" fill-rule="evenodd"/><path d="M251.63,278l-1.81-1.58c-.85-.73-.38-.86-1.75-2A6.12,6.12,0,0,0,251.63,278Z" fill="#8f5010" fill-rule="evenodd"/><path d="M313.63,291.06a3.83,3.83,0,0,0,1.78-.88c.15-.11.62-.48.69-.55.9-.95,0,.29.48-.85-.7.48-.91.61-1.49,1.06Z" fill="#8f5010" fill-rule="evenodd"/><path d="M369.31,249.4c-.67-.29-.69.54-.37-.79l-2.27,2.95Z" fill="#492e11" fill-rule="evenodd"/><path d="M352.29,108.58c-.36-.65.09-.35-.75-1.26-.59-.64-.14-.3-.89-.51C351.05,108.24,350.93,108,352.29,108.58Z" fill="#642b01" fill-rule="evenodd"/><path d="M361.05,255.08c1.09-.56.38.47,2.21-2.34C361.9,253.51,362.2,253.44,361.05,255.08Z" fill="#975618" fill-rule="evenodd"/><path d="M285.39,201.27c1.15-.5-.08.84,1.21-1a10.53,10.53,0,0,0,.84-1.61L287,199Z" fill="#655a43" fill-rule="evenodd"/><path d="M268.18,265c.44-.43,1.41.71.1-1.93A2.14,2.14,0,0,0,268.18,265Z" fill="#fbbc54" fill-rule="evenodd"/><path d="M281.53,270.45a5,5,0,0,0-2.07-2.22A4.12,4.12,0,0,0,281.53,270.45Z" fill="#8f5010" fill-rule="evenodd"/><path d="M371.18,255.81c.49-.54.44.79.73-1.53-2,.44-.87.16-1.43,1l1-.44Z" fill="#975618" fill-rule="evenodd"/><path d="M307.58,86.38l-.52.22c.85,1.41-.2.47,1.28,1.19-.62-3,.07-.47-.76-1.41Z" fill="#b3886a" fill-rule="evenodd"/><path d="M283.69,203.31c.71-.39.36,0,1-.78a8.62,8.62,0,0,0,.74-1.26c-.88.43.1-.56-.93.68A6.58,6.58,0,0,0,283.69,203.31Z" fill="#554b34" fill-rule="evenodd"/><path d="M375.82,125.43l.46-.23-.56-1.43-.18-.26-.46-.44Z" fill="#7a431a" fill-rule="evenodd"/><path d="M272.47,208.31c1-.42.76.2,1.12-1.17C273,207.34,272.68,207,272.47,208.31Z" fill="#bbbbbd" fill-rule="evenodd"/><path d="M236.56,269.18a5.11,5.11,0,0,0-1.84-2.25l1.12,1.76C236.4,269.25,236,268.87,236.56,269.18Z" fill="#8f5010" fill-rule="evenodd"/><path d="M336.34,212.14l-2-2.48-.14,3.46,2,1.07.44,1.91A4.2,4.2,0,0,0,336.34,212.14Zm-.86.86-.28-1.18,1.14.32Z" fill="#352b16" fill-rule="evenodd"/><path d="M272.45,215.72l.45-1.81,2.49-.11a6.88,6.88,0,0,0,.43-1.69l.72-1.57C274.12,210.89,271.67,213.17,272.45,215.72Zm1.54-3.36c.78,0,.49-.13.77.59C273.2,213.31,274,212.67,274,212.36Z" fill="#544930" fill-rule="evenodd"/><path d="M325.83,164.71l.53-.09-.48-1.14C325.5,164.06,325.52,164.11,325.83,164.71Z" fill="#a49b88" fill-rule="evenodd"/><path d="M368.3,101.56c-.29-1.28.19-.28-1-.9C368,101.92,366.93,101.43,368.3,101.56Z" fill="#724e2d" fill-rule="evenodd"/><path d="M367.3,261.26c.86-.9.29.29.88-1.56a7.22,7.22,0,0,1,.59-1.81Z" fill="#894c15" fill-rule="evenodd"/><path d="M238.9,111.6c1.19-.5.61,0,1.08-1.09C237.73,111.25,240.3,110.53,238.9,111.6Z" fill="#834c26" fill-rule="evenodd"/><path d="M352.54,119.65l-.15-1.34-2.28-3.9c3.17,3.08.3,3.2,2.43,5.24Z" fill="#7a431a" fill-rule="evenodd"/><path d="M395.19,171.72l.76.47c.18-2,.09-.17-.33-1C395.67,171.88,395.84,171.73,395.19,171.72Z" fill="#bb9579" fill-rule="evenodd"/><path d="M247.35,271.2l1.91,2.23c-.23-.31-.64-.91-.77-1.08s-.28-.41-.37-.51C247.56,271.23,247.92,271.6,247.35,271.2Z" fill="#8f5010" fill-rule="evenodd"/><path d="M299.39,193.22s-1.46,2-2.11,2.88-1.65,1.37-1.87,2.34a1.36,1.36,0,0,0,2.18,1.57,3.77,3.77,0,0,0,1.25-2.27A27.82,27.82,0,0,0,299.39,193.22Z" fill="#ff2a2a" fill-rule="evenodd"/><path d="M302.21,193.76a26,26,0,0,0,1.72,4.22c.58.81,1.65,1.36,1.87,2.34a2.06,2.06,0,0,1-.46,1.87,1.73,1.73,0,0,1-1.8-.16c-.72-.46-.93-1.59-1.17-2.41C302,198.19,302.21,193.76,302.21,193.76Z" fill="#ff2a2a" fill-rule="evenodd"/><path d="M300,200.24l-.86,2.26c-.29,1.08-.71,2.12-.93,3.2a3.32,3.32,0,0,0-.16,1.64,1.57,1.57,0,0,0,.86.94c1,.19,1.42-.2,1.64-1.09a4.92,4.92,0,0,0,.23-1.25,7,7,0,0,0-.23-1.64,10.76,10.76,0,0,1-.47-3.28C300.07,200.76,300,200.24,300,200.24Z" fill="#ff2a2a" fill-rule="evenodd"/></svg>