<svg xmlns="http://www.w3.org/2000/svg" width="600" height="400"><path fill="#002868" d="M0 0h300.32v400H0z"/><path d="M152.76 304.32c4.86-.31 10.33-.76 11.52-.94l3-.45c.91-.14 2.32-.39 3.13-.56a14.63 14.63 0 012.34-.3c1.69 0 8.68-1.73 12.1-3 .65-.24 2.37-.77 3.8-1.18a56.32 56.32 0 008.87-3.43 6.21 6.21 0 011.33-.67 9.87 9.87 0 001.9-1.06 18.64 18.64 0 012.15-1.32 43.5 43.5 0 004.77-2.93 1.91 1.91 0 01.68-.4c.57 0 7.2-5.65 10.23-8.7 2-2 2.23-2.26 4.32-4.62l2.51-2.8a18.33 18.33 0 001.3-1.58c.23-.33.84-1.22 1.37-2A97.38 97.38 0 00237 253c.81-1.9 1-2.27 1.41-2.19a.6.6 0 00.59-.13c.14-.21-.35-.34-.92-.25-.12 0-.09-.09.06-.26a84.72 84.72 0 003.31-8c.59-1.54 2-5.84 2.59-8.18.19-.71.45-1.67.59-2.15.44-1.6 1.76-8.34 2-10.11.07-.59.23-1.56.36-2.15.23-1 .56-5 .89-10.64.22-3.54.22-12.57 0-17.1a43.8 43.8 0 00-.46-6.13c-.12-.89-.38-2.68-.56-4-.42-3-1-6.47-1.41-8.39-.18-.83-.39-2-.47-2.58s-.36-1.85-.6-2.8-.72-2.83-1-4.19-.76-2.91-1-3.43-.52-1.54-.7-2.26a15.46 15.46 0 00-.86-2.38c-.28-.59-.92-2.09-1.41-3.33a89.65 89.65 0 00-6.42-13.55l-2-3.34c-.86-1.42-2.1-3.35-2.76-4.3s-1.38-2-1.59-2.28a64.25 64.25 0 00-5.79-6.69 6.61 6.61 0 01-1.36-1.58c0-.14-.29-.43-.64-.64a7.25 7.25 0 01-1.25-1 24.21 24.21 0 00-3.38-3c-.56-.4-1.6-1.2-2.33-1.77a70.8 70.8 0 00-10.22-6.55 11.17 11.17 0 01-1.54-.91 71.89 71.89 0 00-6.57-3.56 25.46 25.46 0 00-2.67-1 5.85 5.85 0 01-1.67-.69 9.67 9.67 0 00-3.09-1.2 2 2 0 01-.79-.22c-.76-.42-10.83-3.42-12.64-3.76l-1.42-.31c-.61-.17-5.52-.84-8.55-1.17-.52 0-2.49-.29-4.38-.53s-4.46-.45-5.7-.46l-4.52-.08c-2.18 0-8.86.19-10.81.39l-2.49.23c-.85.08-2.24.27-3.09.43s-2 .35-2.49.42c-1.39.2-4.11.76-5.38 1.12a21.08 21.08 0 01-2.26.48 54.77 54.77 0 00-6.38 1.63c-.39.16-1.72.6-3 1s-3.06 1.07-4.07 1.53a17 17 0 01-2 .83 1.35 1.35 0 00-.57.31 15.62 15.62 0 01-1.92 1c-3.57 1.69-12.47 7.18-13.63 8.41a10 10 0 01-1.31.91 63.28 63.28 0 00-6.31 4.9 58.25 58.25 0 00-5.63 5.12 48.12 48.12 0 00-5.45 6c-.81 1-1.75 2.15-2.1 2.5a53.75 53.75 0 00-5.45 8.5 19.42 19.42 0 01-1.2 2.15c-.22.3-.78 1.22-1.23 2s-1.23 2.18-1.72 3a27.84 27.84 0 00-1.58 3.38c-.39 1-1 2.43-1.4 3.16a14.7 14.7 0 00-1.06 2.8c-.21.81-.63 2.21-.94 3.09s-.82 2.54-1.15 3.66-.7 2.38-.83 2.8a76.06 76.06 0 00-1.55 7.63c-.41 2.7-.6 3.86-.76 4.63s-.47 4.19-.85 8.92a148.26 148.26 0 00.15 20c.07.94.18 2.75.24 4a70.91 70.91 0 001 8.77c.19 1 .45 2.75.57 3.87a21.19 21.19 0 00.57 3.12c.19.59.52 1.95.73 3s.53 2.47.71 3.12.39 1.57.48 2a26.6 26.6 0 001 3.11c.46 1.25 1.09 3 1.39 3.88a68.33 68.33 0 002.83 7c.31.59.91 1.8 1.33 2.69s.88 1.8 1 2 .91 1.64 1.72 3.12 2.09 3.7 2.85 4.94l1.9 3.12A80.52 80.52 0 0074.2 273c.68.82 1.5 1.86 1.81 2.3a15.23 15.23 0 001.78 1.94 7.79 7.79 0 011.22 1.3c0 .18 5.35 5.15 6.94 6.44.62.5 1.69 1.27 2.38 1.71s2 1.39 3 2.11a26.1 26.1 0 003.14 2c.75.37 1.94 1 2.65 1.42 1.12.65 2.26 1.23 6.44 3.25.53.26 1.38.7 1.9 1a63.38 63.38 0 007.84 3.13 32.88 32.88 0 013.57 1.05 17.56 17.56 0 004.45 1 5.57 5.57 0 011.53.24 24.48 24.48 0 004.23.81c.65.1 1.72.28 2.37.41s2 .28 3 .36 2.58.22 3.56.33 2.46.19 3.3.2a7.25 7.25 0 011.76.16c.68.37 6.93.46 11.69.16z" fill="#fff"/><path d="M79.85 189.88l-.72-2.82 3-.87 2.52-1.73 1.31 3-3.11 1.74zM94.33 192.8l-2.63.2-.6 2.28 1.2.32 1.79-.87zM104.15 190.2l-2.28.11.36 3.14 2.76-.65zM110.61 187.38l-3 .87.72 2.28 1.55-.33.84-1.3zM114.2 191.5l-1.67 2.5-.12 1.62.72 2.17 1.19.22 1.44-1.09-.6-4.33zM205.78 213.08l-4.31 5.74 1.2 6.62 1.2 8.67-.12 7 3.11-3.25 3-6.94.48-9-1.44-3.8zM200.59 208.81l-2 .77.08 1.61.94.69 1.43-1.15zM197.2 204.21l-2.12 1.69 1.53 1.23 1-.16.85-2zM197.54 198.31c-.34.15-1.69.38-1.69.77a13.09 13.09 0 00.59 2l1 .46.94-1.38zM194.83 229l-.51 2.76.34 4.91 1.52 1.84 1.19-2-.34-3.68zM205 241.7l2.88 4.75-2.37.15-2-3.68z" fill="#fff" stroke="#000" stroke-width=".5"/><path d="M165 278.88c-.51.07-7.53-.08-7.53-.08l-5.34-.76-1.1.07.26 2 2.71 1.31 4.91.38 10.58-.84 5.08-.62.42-3.14-3.81.69L168 279z" fill="#1c0e28" stroke="#000" stroke-width=".5"/><path d="M144.72 305.59a10 10 0 00-1.49-.2l-3.39-.32c-3.59-.35-6.67-.64-8.06-.76-1.61-.13-4.52-.58-7.78-1.19-1.29-.24-2.56-.46-2.82-.5a57.41 57.41 0 01-10.32-3.13c-2.84-1.1-11.11-4.87-12.68-5.78-.83-.48-2.35-1.35-3.4-1.93s-2.51-1.49-3.26-2l-2.74-1.91c-.75-.53-1.92-1.39-2.59-1.91s-1.61-1.25-2.08-1.6-2.25-2-3.94-3.72-3.19-3.17-3.34-3.29a11.62 11.62 0 01-1-1.28c-.44-.58-1.17-1.45-1.63-1.93a53.58 53.58 0 01-4.7-6.14c-1.12-1.79-1.18-1.87-2.27-3.4s-5.48-9.36-6.69-11.92c-.44-.92-1.06-2.21-1.38-2.85s-.82-1.79-1.11-2.55-1-2.39-1.51-3.62-1.29-3.23-1.68-4.46-.8-2.52-.92-2.87a98.88 98.88 0 01-2.7-10.84c-.17-1.05-.42-2.53-.55-3.29-.22-1.29-1-8.9-1.32-13s-.52-15.06-.33-19.13c.5-10.81 1-14.79 3-22.32a110.26 110.26 0 013.49-12.08 89.09 89.09 0 014.7-10.14 26.61 26.61 0 001.23-2.53 1.14 1.14 0 01.32-.52 31.79 31.79 0 001.84-3 68.39 68.39 0 014.17-6.48c2.76-4 7.85-10 8.5-9.92.21 0 .34-.08.28-.22s.51-.76 1.25-1.4a12.45 12.45 0 001.47-1.37 88.78 88.78 0 017.18-6.09c1-.75 2.13-1.61 2.46-1.9 2.83-2.53 12.06-8 17.94-10.6 5.24-2.33 13.51-5 17.19-5.47.48-.07 1.93-.35 3.22-.63s2.82-.57 3.4-.65a7.31 7.31 0 001.47-.33c.78-.37 11.17-1.22 14.92-1.23a73.52 73.52 0 0113.34.82 14.1 14.1 0 002.94.3 7.73 7.73 0 012.11.22 24.45 24.45 0 002.66.46c.64.07 1.54.2 2 .3s1.4.3 2.11.44c1.63.31 5 1.16 7.16 1.8.9.27 2 .54 2.41.61a39.31 39.31 0 015.92 2.11c1 .4 2.23.9 2.8 1.1a9.54 9.54 0 011.68.77 3.24 3.24 0 00.77.41c.18 0 3.69 1.45 4.14 1.7s3.65 2 4.82 2.55c.58.29 1.82 1 2.75 1.58s2.12 1.29 2.63 1.59a23.92 23.92 0 012.23 1.51 41.57 41.57 0 003.56 2.44 30.47 30.47 0 016.21 5 13 13 0 001.34 1.17 9.1 9.1 0 011.43 1.53 15.14 15.14 0 001.12 1.38c.3.29 1.18 1.29 3.37 3.81a26.21 26.21 0 011.79 2.34c.39.61.94 1.38 1.22 1.73a61.21 61.21 0 013.69 5.64c.27.53 1.26 2.4 2.2 4.15a82.18 82.18 0 014.08 8c.25.64.89 2.27 1.43 3.61s1 2.68 1.12 3a27 27 0 001 2.54 13.4 13.4 0 01.9 2.41 30.43 30.43 0 001.16 4.29c.11.35.32 1.26.48 2s.54 2.53.85 3.93.68 3.27.8 4.15c.24 1.6.3 2 1.13 6.8a59.89 59.89 0 01.86 7.65c.06 1 .16 2.38.22 3.08a94.55 94.55 0 01.41 11.07 84.48 84.48 0 01-.4 10.2c-.06.24-.21 1.77-.35 3.4a95.27 95.27 0 01-3 16.77c-.34 1.22-.54 1.82-1.81 5.42-.31.88-.9 2.6-1.32 3.83s-.9 2.51-1.07 2.87-.57 1.4-.9 2.33a58.18 58.18 0 01-2.62 5.95 21.49 21.49 0 00-1.52 3.27 13.41 13.41 0 01-1 1.87c-.54.91-1.53 2.62-2.2 3.79s-1.61 2.64-2.08 3.26a6.7 6.7 0 00-.85 1.33 30 30 0 01-2.57 3.38c-.13.11-.76.83-2.47 2.87-2 2.36-5.7 6.21-8.36 8.68-1.54 1.41-2.81 2.63-2.85 2.69a82.38 82.38 0 01-9 6.37 4.23 4.23 0 00-1 .63 3.85 3.85 0 01-1 .64 10.52 10.52 0 00-2.46 1.54.4.4 0 01-.33.17c-.14 0-2 .75-4 1.66s-4.15 1.8-4.6 1.95c-.9.3-3.58 1.31-5 1.9-.52.21-2.21.7-3.76 1.08l-4 1a148.61 148.61 0 01-14.78 2.38l-3.64.44a23.23 23.23 0 01-2.48.17 23 23 0 00-2.59.23c-1.54.22-10.99.51-11.18.34zm-5.72-1.18a.28.28 0 00-.36-.08.22.22 0 00-.09.33.28.28 0 00.36.07.23.23 0 00.09-.32zm14.32-1.16c4.8-.31 10.21-.75 11.38-.93l2.94-.45c.9-.14 2.3-.38 3.1-.55a15.19 15.19 0 012.31-.29c1.67 0 8.57-1.71 11.95-2.95.65-.24 2.34-.77 3.76-1.17a56 56 0 008.76-3.39 6 6 0 011.31-.66 9.39 9.39 0 001.88-1.05 17.5 17.5 0 012.13-1.31 43.41 43.41 0 004.71-2.89 1.75 1.75 0 01.68-.4c.55 0 7.11-5.58 10.1-8.59 1.94-2 2.2-2.24 4.27-4.57l2.48-2.76c.48-.54 1.06-1.24 1.29-1.57s.83-1.2 1.34-1.94a95.83 95.83 0 008.81-15.24c.8-1.88 1-2.24 1.39-2.16a.59.59 0 00.59-.13c.14-.21-.35-.34-.91-.24-.12 0-.09-.1.06-.27a82.59 82.59 0 003.27-7.9c.58-1.52 1.93-5.77 2.56-8.08.19-.7.45-1.66.58-2.12.44-1.59 1.74-8.25 2-10 .07-.59.23-1.54.36-2.13.22-1 .54-4.91.88-10.52.21-3.49.21-12.41 0-16.89a42 42 0 00-.45-6.06c-.12-.88-.37-2.65-.55-3.93-.42-3-1-6.39-1.4-8.29-.17-.82-.38-2-.47-2.55a27.65 27.65 0 00-.59-2.76c-.24-.94-.71-2.8-1-4.15s-.76-2.87-1-3.39a23 23 0 01-.7-2.23 15.45 15.45 0 00-.84-2.35c-.28-.58-.91-2.06-1.4-3.29a88.48 88.48 0 00-6.34-13.39l-2-3.3c-.85-1.4-2.08-3.31-2.74-4.25s-1.36-1.94-1.56-2.25a63.9 63.9 0 00-5.72-6.61 6.59 6.59 0 01-1.35-1.56c0-.14-.28-.43-.63-.63a6.73 6.73 0 01-1.23-1 25 25 0 00-3.35-2.93c-.55-.39-1.58-1.18-2.29-1.74a71.08 71.08 0 00-10.1-6.47 12.19 12.19 0 01-1.53-.9 70.26 70.26 0 00-6.49-3.52 24.89 24.89 0 00-2.64-1 5.86 5.86 0 01-1.65-.68 9.41 9.41 0 00-3.05-1.18 2 2 0 01-.78-.23c-.76-.41-10.7-3.37-12.49-3.72-.32-.06-.91-.19-1.29-.3-.61-.17-5.46-.83-8.45-1.15-.52 0-2.47-.29-4.34-.53s-4.4-.44-5.63-.46-3.24 0-4.46-.07c-2.15 0-8.75.19-10.68.38l-2.46.23c-.84.08-2.22.27-3.06.43s-1.94.35-2.46.42a51.4 51.4 0 00-5.31 1.1c-.6.17-1.6.38-2.23.48a51.52 51.52 0 00-6.3 1.61c-.39.15-1.7.59-2.92 1a42 42 0 00-4 1.51 17.67 17.67 0 01-2 .82 1.23 1.23 0 00-.56.3 16.06 16.06 0 01-1.9 1c-3.53 1.67-12.32 7.1-13.47 8.31a9.57 9.57 0 01-1.29.9 62.43 62.43 0 00-6.24 4.84 58.08 58.08 0 00-5.56 5.06 48.68 48.68 0 00-5.39 5.89c-.79 1-1.72 2.12-2.07 2.47a51.82 51.82 0 00-5.38 8.4 22.8 22.8 0 01-1.19 2.12 23.29 23.29 0 00-1.22 2c-.45.82-1.21 2.15-1.7 3a26.3 26.3 0 00-1.59 3.28c-.39 1-1 2.4-1.39 3.12a16.15 16.15 0 00-1.05 2.77c-.2.8-.62 2.18-.92 3.06s-.82 2.5-1.14 3.61l-.82 2.76a75.21 75.21 0 00-1.53 7.55c-.41 2.66-.6 3.81-.75 4.57s-.47 4.14-.84 8.82a146.08 146.08 0 00.14 19.76c.07.94.18 2.72.24 4a69.72 69.72 0 001 8.67c.19 1 .44 2.71.56 3.82a20.76 20.76 0 00.57 3.08c.18.59.51 1.93.72 3s.53 2.44.7 3.08.39 1.55.47 2a28.08 28.08 0 001 3.08c.45 1.23 1.07 3 1.37 3.83a65.37 65.37 0 002.79 6.9c.31.59.9 1.78 1.32 2.66s.87 1.78 1 2 .9 1.62 1.7 3.08 2.07 3.66 2.82 4.89l1.87 3.08a82 82 0 006.15 8.4c.68.82 1.48 1.84 1.79 2.28a16.42 16.42 0 001.76 1.92 7.93 7.93 0 011.21 1.27c0 .19 5.29 5.1 6.86 6.37.6.49 1.66 1.25 2.34 1.69s2 1.37 3 2.09a28.27 28.27 0 003.1 2c.74.36 1.92 1 2.62 1.4 1.11.64 2.23 1.21 6.37 3.21.52.25 1.36.69 1.87 1a61.38 61.38 0 007.75 3.1 30.88 30.88 0 013.52 1 17.65 17.65 0 004.4 1 5.37 5.37 0 011.51.24 23.81 23.81 0 004.18.81c.64.09 1.7.27 2.35.39s2 .28 2.93.36 2.55.22 3.52.32 2.43.2 3.25.21a7.23 7.23 0 011.74.15c.59.28 6.8.37 11.47.07zm-4.74-2.06a30.16 30.16 0 01-.25-4.31c-.07-4.15-.11-4.9-.4-6.38a1.25 1.25 0 01.27-1.32c.39-.43.72-.48 4-.61a33.44 33.44 0 014.18 0 5.57 5.57 0 011.65 1c1.72 1.43 1.68 3.33-.09 5.05-.55.52-.7.83-.59 1.17a22 22 0 002.14 3.79 1.12 1.12 0 01.27.85c-.07.44-.22.5-1.39.55-.87 0-1.4 0-1.56-.21a14.77 14.77 0 01-1-1.91c-1.11-2.43-1.43-2.72-2.93-2.72-1.77 0-1.88.18-1.54 2.52s.19 2.79-1.4 2.79a2.34 2.34 0 01-1.35-.26zm6.8-7.42a1.83 1.83 0 00.3-2.85c-.51-.46-.78-.52-2.3-.52a4.91 4.91 0 00-2 .25 5.1 5.1 0 000 3.34c.35.31 3.25.15 4.01-.22zm-24.3 6.5a12.92 12.92 0 01-2-.62 6.77 6.77 0 01-3.18-4.65 13.46 13.46 0 01.94-4.33 4.71 4.71 0 011.6-2.08 6.5 6.5 0 014.33-1.69 5.59 5.59 0 013.06.42 6.69 6.69 0 013.49 2.79 4.17 4.17 0 01.71 2.47 7.54 7.54 0 01-4.29 7.49 6.62 6.62 0 01-4.65.2zm3.73-2.82a5.71 5.71 0 002.13-4.82 3.58 3.58 0 00-3.79-3.51c-1.72 0-2.64.67-3.46 2.51-1 2.15-.81 4 .45 5.37a3 3 0 002.67 1 3.06 3.06 0 002.01-.55zm38 1.34a1.67 1.67 0 01-.57-.94 64.15 64.15 0 00-2.12-7.24c-.87-2.62-1.07-3.72-.72-3.91a6.33 6.33 0 011.42-.27c1.34-.14 1.31-.17 2 2.27a65.37 65.37 0 002.7 7.76 3.39 3.39 0 01.35 1.1c.18 1 .05 1.11-1.6 1.52-.83.2-.97.17-1.48-.29zM115 296.66a48.12 48.12 0 00-4.69-1.91 5.91 5.91 0 01-2.35-1.35 11.32 11.32 0 01.81-1.67 13.82 13.82 0 001-2 1.85 1.85 0 01.49-.8.79.79 0 00.33-.5 11 11 0 01.93-2c.51-.93 1-2 1.18-2.31.85-2.06 1.36-2.36 2.8-1.66 1.07.53 1 .68-.67 4-2.45 4.67-2.6 5-2.6 5.75s0 .74 1.82 1.3a18.33 18.33 0 012.4.89 6.31 6.31 0 001 .44c.66.19.69.69.07 1.57s-1.06.95-2.52.25zm72.46-3.32l-1.89-3.58c-.59-1.11-1.29-2.45-1.55-3s-.75-1.39-1.07-1.92a4.19 4.19 0 01-.59-1.3c0-.31.86-.7 2.55-1.15a12.54 12.54 0 001.89-.85 8.27 8.27 0 015.81-.65 7.43 7.43 0 014.11 3.95c.91 2.08.91 2.07.64 3.56a5.9 5.9 0 01-2 3.49 38.1 38.1 0 01-6.34 2.85c-.77.16-.8.13-1.6-1.4zm4.67-2.51a3.56 3.56 0 001.7-1.55c.66-1.23.62-1.75-.2-3.25-1.22-2.21-2.18-2.9-4-2.89-1.42 0-2.74.51-3.06 1.15-.22.43 0 .93 1.53 3.67a25.77 25.77 0 002.07 3.33c.41.26.63.21 1.92-.46zM146.29 287c-.9-.1-2.33-.2-3.17-.22a59.5 59.5 0 01-7.55-1 30.27 30.27 0 00-4.41-.63 11.32 11.32 0 01-2.32-.42 4.49 4.49 0 00-1.1-.3 3.71 3.71 0 01-1-.25 9.09 9.09 0 00-1.6-.49c-.89-.22-4.7-1.51-5.63-1.91a19.16 19.16 0 00-1.94-.64 51.74 51.74 0 01-7.91-3.48 17.68 17.68 0 01-1.62-.94 4.84 4.84 0 00-1.12-.58 50.44 50.44 0 01-5.25-3.29A63.2 63.2 0 0193 265c-2.31-2.67-5.25-6.36-6.36-8-.21-.3-.75-1.07-1.22-1.7s-1.19-1.73-1.61-2.43-1-1.57-1.31-1.94a60.93 60.93 0 01-4.6-8.48c-.9-2-3.22-8.06-3.48-9.13-.12-.47-.33-1.24-.48-1.7s-.51-1.62-.74-2.62-.65-2.71-.92-3.82a38.57 38.57 0 01-.73-4.24c-.13-1.24-.39-3.4-.58-4.8a91.93 91.93 0 01-.87-10.2 126.47 126.47 0 01.27-19.34 114 114 0 011.65-12c.51-2.86 1.77-7.89 2.93-11.79a59.56 59.56 0 013.2-8.11 5.85 5.85 0 00.56-1.45 21.6 21.6 0 011.29-3 13.14 13.14 0 00.94-2.08.82.82 0 01.34-.54 26.28 26.28 0 002.47-3.63s.82-1.15 1.82-2.44 2.19-2.85 2.64-3.47l1.73-2.35a84.11 84.11 0 018.72-8.09 72 72 0 017.59-5.13c2-1.2 3.7-2.18 3.81-2.18a6.2 6.2 0 001.23-.64 4.32 4.32 0 011.48-.63 2.08 2.08 0 00.91-.3 14.45 14.45 0 012.15-.84c.93-.3 1.88-.64 2.11-.76a29.09 29.09 0 012.89-.87c1.35-.36 3.62-1 5-1.39a73.67 73.67 0 0115.61-2.74c1-.06 2.18-.16 2.7-.21s2.2-.1 3.75-.09h3.76c.51 0 1.78.08 2.81.18 1.94.19 4.15.37 6.44.52 2 .13 5.4.52 6.71.77l2.69.5a21.44 21.44 0 012.77.72 7.9 7.9 0 001.61.45 4.57 4.57 0 011.19.35c.45.2 1.63.61 2.61.93 5.92 1.89 7.06 2.3 7.56 2.72a2.12 2.12 0 00.79.47 21.1 21.1 0 012.48 1.26c1.23.69 2.65 1.45 3.17 1.69a24.33 24.33 0 012.9 1.87c1.08.79 2.49 1.81 3.14 2.26 2.56 1.8 8.38 7.32 9.49 9 .32.5.68.9.8.9a7.59 7.59 0 011.74 2.11l.95 1.29c3.09 4.15 9.22 14.87 10.08 17.64.17.53.8 2.2 1.41 3.72a43.75 43.75 0 012.57 8.4l.73 3.67a16.22 16.22 0 01.34 2.2 8.77 8.77 0 00.34 1.75c.62 2.15 1.66 11 1.32 11.17s-.65-.17-.83-.68c-.09-.26-.25-.48-.37-.48s0 .27.13.59a2.44 2.44 0 01.34.84c0 .15.16.21.36.14.37-.13.37-.1.46 1.94 0 .59.13 2 .23 3.19s.19 3.65.2 5.52c0 4.33-.29 15.86-.46 16.1a7.87 7.87 0 00-.21 1.61 44.31 44.31 0 01-.77 6.43 9.06 9.06 0 00-.38 1.69 17.63 17.63 0 01-.49 2.23c-.61 2-1.34 4.67-1.46 5.37a1.45 1.45 0 01-.32.81.67.67 0 00-.21.52 3.44 3.44 0 01-.33 1.1c-.18.39-.56 1.42-.84 2.29s-.63 1.84-.77 2.13a20.68 20.68 0 00-.77 2.23 25.38 25.38 0 01-1 2.76l-1.47 3.3a20 20 0 01-1.32 2.57 1.11 1.11 0 00-.31.55.8.8 0 01-.36.49 1.06 1.06 0 00-.35.74 2.89 2.89 0 01-.58 1.26 5.39 5.39 0 00-.59.87s-.48.82-1.06 1.71a18.59 18.59 0 00-1.07 1.76 10.67 10.67 0 01-1.06 1.42c-.57.7-1.46 1.82-2 2.49-1.68 2.17-10.25 9.7-12.34 10.84a24.44 24.44 0 00-2.75 1.76 10.81 10.81 0 01-1.29.8 9.33 9.33 0 00-1 .57 4.89 4.89 0 01-.75.41 10.3 10.3 0 00-1.49.94c-1.33 1-8.5 4.18-9.73 4.32a6.27 6.27 0 00-1.88.59 30.89 30.89 0 01-5.67 1.82 5.63 5.63 0 00-1.37.51 12.06 12.06 0 01-3 .75c-3.59.46-9 1.3-9.85 1.53a109 109 0 01-13.22.26zm12.79-2.25c1.23-.19 2.94-.42 3.81-.52a11.16 11.16 0 001.83-.31 5.39 5.39 0 011.33-.25 9.33 9.33 0 001.65-.3 5.62 5.62 0 011.43-.21 4.07 4.07 0 002.73-.92c.39-.58-.42-1-2-1-1 0-1.36-.08-1.36-.3s.52-.37 1.7-.54c3.56-.51 3.91-.68 3.61-1.79-.21-.76-.75-.92-1.26-.38s-2.12.84-5.81 1.11l-4.93.38a8 8 0 01-3-.13 8.29 8.29 0 00-2.5-.2 7.88 7.88 0 01-2.49-.2c-1.3-.41-2.19-.37-2.19.09 0 .83 1.46 1.18 6.1 1.44 2.72.15 3.58.41 3.48 1-.07.4-.25.45-1.83.52-3 .12-7.55-.84-8.61-1.8-.59-.52-.61-.64-.56-2.42v-2.34-6.86c0-4.82 0-5.8-.34-6.35a5.4 5.4 0 01-.4-2.08 4.09 4.09 0 01.66-2.68c.67-1.18.76-1.25 2.11-1.62 1.55-.41 2.19-.46 2.65-.2s.08.78-1.25 1.37c-1 .46-1.28.67-1.28 1.08s.19.58 1.11.87c1.79.56 2.28.84 2.36 1.3.11.72-.5 1-1.31.64a7.57 7.57 0 00-1.89-.46c-1.19-.15-1.21-.14-1.21.4s1 1.24 2.19 1.23a14.64 14.64 0 014.37.71c.16.18 0 .44-.47.86-.82.72-.87 1.28-.34 3.82.56 2.71.61 2.88 1.39 4.13.5.81.88 1.19 1.2 1.19.67 0 1.7-1.94 2.33-4.38a6.07 6.07 0 00.24-3.56c-.21-1.11-.22-1.61 0-1.84s1-.33 3.67-.4a15 15 0 004.69-.53c2.36-.8 3.56-.46 2.54.72a4.19 4.19 0 00-.68 2.3 11.6 11.6 0 01-1.39 5.14c-.75 1.42-.78 1.61-.84 4.21l-.05 2.72 1.21-.07 1.21-.06v-2.44c0-1.35 0-3.32.06-4.39 0-2.23.31-2.62 1.31-1.64l.57.55.85-.58c.71-.49.82-.67.69-1.14a2.59 2.59 0 00-.49-.9 2.46 2.46 0 01-.34-1.52 2.2 2.2 0 01.61-1.85 2.09 2.09 0 011-.65 2.49 2.49 0 001-.51 5.48 5.48 0 01.92-.59 3 3 0 00.62-1.34 3.85 3.85 0 012.2-2.87c.67-.31.94-.59 1.06-1.11a4.76 4.76 0 012.22-3c.75-.46 1.08-.45 1.65.07s.6.74-.37 1.26-1 1.21 0 1.71c.82.42 1.46.1 1.48-.76 0-1.08.33-1.57.92-1.57.79 0 1.55 1.05 1.57 2.17 0 1.37.16 1.64 1 2a2.29 2.29 0 011.2 2.7c-.13.74-.07.9.47 1.31 1.56 1.17 1.74 1.43 1.74 2.61 0 1 .08 1.18.6 1.51a6.65 6.65 0 012.7 2.61c.47.88.64 1 1 .93a20.92 20.92 0 004.35-3.95c.32-.44.7-.8.85-.8s1.85-1.52 3.37-3.29c.58-.68 1.29-1.46 1.57-1.73a14.13 14.13 0 002.54-3.43 9.39 9.39 0 011.05-1.64c.25-.14 4.17-7.34 4.61-8.46a8.63 8.63 0 01.64-1.32c.3-.43 1-2.29 3.65-10 1.31-3.79 2.38-7.72 2.37-8.74a3.62 3.62 0 01.33-1.17 14.44 14.44 0 00.61-2.74c.15-1.11.43-2.66.61-3.44a13.68 13.68 0 00.33-2.49c0-1.27-.32-1.49-2.41-1.7-.09 0-.17-.35-.17-.75 0-.68.06-.75.88-.87 1.34-.2 1.43-.24 1.94-1a3.25 3.25 0 00.41-2.29l-.07-1.59-.89-.13c-1.74-.26-2.06-1.39-.43-1.51.74-.06.87-.15.93-.65s0-.59-.82-.59c-1.41 0-2.76-.51-2.85-1.07s0-.48 1.43-.34c1.2.11 1.58.08 1.81-.18a1 1 0 01.61-.32c.44 0 .8-.69.8-1.54a1.52 1.52 0 00-.6-1.24c-.6-.51-.67-.51-4.29-.45a54.61 54.61 0 00-6.14.45c-2.35.36-3.52.31-3.52-.17 0-.89 3-1.32 9.77-1.4a44.28 44.28 0 004.75-.2c.35-.2.34-1 0-1.47a3.18 3.18 0 00-1.66-.56c-1.86-.28-2.27-.41-2.27-.75s.83-.6 2-.44 1.52-.15 1.48-2.36c0-2.7-.14-2.92-1.38-3.07-2-.25-4.63.38-8.38 2a4.89 4.89 0 01-2.47-.14c-1.06-.2-2.57-.39-3.34-.44s-2.39-.15-3.58-.23l-2.17-.15v.58a2.12 2.12 0 00.88 1.38c.85.77 1 .81 3.34 1.06a18.76 18.76 0 013.21.55c1 .37 4.19.65 4.38.37a4.91 4.91 0 012.77.31c.57.51 0 .91-1.26.92-.68 0-1.82 0-2.53.08a8.22 8.22 0 01-2.33-.24 20.73 20.73 0 00-2.58-.48 13.91 13.91 0 01-1.92-.32.67.67 0 00-.66.18c-.24.26-.21.56.18 1.56a15.92 15.92 0 00.84 1.86 3 3 0 01.37 1.24c0 .53-.93 2.67-2.77 6.41a5.94 5.94 0 00-.63 3.4c0 2 0 2.2.7 3.19a16.66 16.66 0 012 4 .91.91 0 00.34.6c.61.46 1.07-.6 1.41-3.26a10.23 10.23 0 00.09-3.37 29.64 29.64 0 01-.27-4c0-2.62 0-3.09.31-3.09.55 0 .91 1.32.93 3.39a11.67 11.67 0 00.23 2.55 6.39 6.39 0 01.47 3.67c-.44 3.15-.64 4-1.13 5.12a4 4 0 00-.39 2.23c.39 4 .39 4.55 0 7.13a16.6 16.6 0 01-1 3.89 6.42 6.42 0 00-.56 1.53 14.24 14.24 0 01-2.09 3.65 5.82 5.82 0 00-1.57 2.91c-.15 1 .14 1.73 1.2 3s3.4 5.59 3.4 6.23a2.37 2.37 0 01-2.51 1.82 9.88 9.88 0 00-2.86.35 7.22 7.22 0 01-2.76.3c-.72-.18-2.47-.18-10.56 0l-5.2.12-.64-.75a1.59 1.59 0 00-1.3-.76 1.27 1.27 0 01-.8-.2c-.17-.26.54-1.46 1.76-3a8.45 8.45 0 002.14-4 22.06 22.06 0 01.55-2.17 25.62 25.62 0 001-7.64c-.1-1.51-.06-1.91.2-2s.28-.2 0-.71a2.67 2.67 0 01-.34-1.1c0-.72-3-5.93-3.88-6.86a7.6 7.6 0 01-2.11-3.52c-.15-.87-.13-.9.66-1.2a1.6 1.6 0 001.11-1.13 5.27 5.27 0 01.48-1 6.44 6.44 0 00.33-1.91 3.37 3.37 0 00-.77-3.07 4.93 4.93 0 00-1.11-1.38c-.2 0-.38.48-.69 1.84a6 6 0 01-1.48 1.83l-1.35 1.25-1.86-.06a16.39 16.39 0 01-2.17-.17c-.4-.14-.39-.86 0-1.16a1.87 1.87 0 00.46-.88c.16-.73.7-1 1.2-.64a.8.8 0 01.21.85c-.17.75.48 1 1.64.65s1.72-1 2.18-3l.43-1.87-.61-1a7.67 7.67 0 01-.76-1.56 21 21 0 00-2.7-4.95 5.54 5.54 0 00-5.78-2c-1 .21-1.37.21-1.59 0s-.13-.39.48-.88c1.1-.9 2.47-.92 4.31-.08 1.28.59 2.08.67 2.08.2s.13-.41 1 .15c1.07.71 1.37.24.57-.9a10.7 10.7 0 01-1.76-3.19 1.86 1.86 0 00-.47-.9 2 2 0 01-.46-1.07c0-.66-.61-1.17-1-.82-.2.18-.18.41.1.94.48.91.75 2.07.49 2.07a9.1 9.1 0 01-1.4-2.27 16.11 16.11 0 00-1.21-2.35 9.32 9.32 0 01-1.11-1.33l-.92-1.23.46-.68c.25-.38.4-.77.32-.88a6 6 0 00-1.26-.76 5.78 5.78 0 01-1.64-1.26 15.73 15.73 0 01-1.9-4.81 9.31 9.31 0 00-.28-1.66c-.24-.92-.23-1.13.06-1.29.71-.41 1.34-.16 3 1.17 1.88 1.55 2.39 2.42 3.14 5.34a9.35 9.35 0 00.73 2.15 2.34 2.34 0 001.27.28c.93 0 1.08-.08 1.77-1 1-1.31 1.67-1.22 2 .3.16.75.66 1.07 1.08.69.19-.17.19-.77 0-2.15a4.84 4.84 0 00-.88-2.75 6.36 6.36 0 01-.54-5.06 14.28 14.28 0 00.51-1.82c.3-1.52 1.42-.76 3.5 2.34a6.62 6.62 0 011 5.6 10.54 10.54 0 000 4.44c.19 1.46.35 3.33.36 4.15 0 1.62.58 4.55.95 4.89s.91-.54.91-1.61a6.45 6.45 0 01.2-1.6 28.47 28.47 0 00.84-4.66 16.59 16.59 0 01.48-2.51c.47-1.62.44-2.45-.09-3.24a3.24 3.24 0 01-.39-3.12 3.88 3.88 0 00.36-1.27 2.9 2.9 0 01.41-1.16c.23-.36.8-1.33 1.27-2.13 1-1.63 1.43-2.08 2-1.9s.43.13.94 2.79c.44 2.31.89 3.51 1.29 3.51a2.73 2.73 0 00.9-.43c.9-.61 1.37-.37 1.56.78.16 1 .87 1.87 1.37 1.72a4.54 4.54 0 001-1.24c.41-.63.94-1.39 1.17-1.68a14.56 14.56 0 001.13-2c.65-1.35.77-1.49 1.39-1.49s.72.1 1 1.07a18.86 18.86 0 01.5 2.93 4.64 4.64 0 00.52 2.18c.3.27.44.22 1.15-.38a13.12 13.12 0 001.57-1.71c.42-.55.93-1 1.13-1a5.21 5.21 0 011.43.56c2 1.06 4.55.29 4.54-1.36a6.31 6.31 0 00-.71-1.94 3.1 3.1 0 01-.56-2.29c.21-1.27-.14-1.63-1.45-1.45-.58.07-1 0-1.14-.09a8.3 8.3 0 00-2.53-1.08 6 6 0 01-1.38-.76c-1.47-1-1.53-1.56-.21-2.32a4.16 4.16 0 011.59-.53A5.21 5.21 0 00211 164c1-1 1.12-1.57.24-2.39s-.53-1.27.73-1.46a1.67 1.67 0 001.28-2.64 2.61 2.61 0 00-2.06-1.17 12 12 0 00-3.33.78c-1.19.55-1.68.39-2.27-.78-.46-.91-.63-1.06-1.2-1.06-.92 0-3 1-4.9 2.43-1.29.94-1.79 1.18-2.46 1.18a2.46 2.46 0 01-2.65-1.53 10 10 0 00-1.65-2.05 3.19 3.19 0 01-1-1.36 6.34 6.34 0 011.74-2.77 2.19 2.19 0 011.22.44 4.71 4.71 0 002.08.64 2.41 2.41 0 002.82-1.87c.35-1 .57-1.16 1.1-1.09l1.39.06c1 0 1.29-.05 1.54-.35.75-.93 0-3-1.18-3.53-.47-.19-.74-.14-1.61.32-1.33.71-1.61.7-2.11-.08-.21-.35-.57-.64-.78-.64a7.18 7.18 0 00-2 1.33c-1.67 1.43-3.37 2.39-3.9 2.21-.34-.12-.82-1.4-.82-2.19a4.08 4.08 0 01.81-1.56 4.16 4.16 0 00.83-1.57 1.45 1.45 0 00-1.38-1.41c-1.41 0-1.89-1-.68-1.46 1-.35 2.53-1.83 2.53-2.43s-.78-1.42-1.21-1.42c-.1 0-.3-.2-.45-.44s-.18-.51 0-.74c.39-.43.52-.39 1 .33s.89.86.89.41a2.28 2.28 0 00-.47-.84c-.3-.37-.39-.65-.24-.73.58-.33.07-2-.85-2.7a1.77 1.77 0 00-2.24.25 4.25 4.25 0 00-.69 1.35c-.44 1.38-.71 1.54-1.55.9a2.64 2.64 0 00-1.08-.55c-.51 0-1.92 1.65-2.27 2.66-.56 1.61-1.39 2.87-1.88 2.87s-.57-.21-.48-.82c.07-.44-.7-1.1-1.25-1.09-1.08 0-1.38.5-1.57 2.59-.24 2.57-.34 2.8-1.3 3.22a5.07 5.07 0 01-3.6 0c-1.11-.4-1.31-.86-1.09-2.53a3.38 3.38 0 00-1.16-3.21 2.3 2.3 0 01-.81-1.94c0-.94.1-1.13 1-2a4 4 0 001.66-2.57c.13-.65 0-1-.58-1.86a2.59 2.59 0 00-1.36-1.21c-1.05-.23-1.22-.48-1.18-1.76.06-1.49-.41-2.89-1.09-3.3a3.59 3.59 0 00-1.53-.29c-.92 0-1.13.12-2.33 1.26-1.36 1.29-1.92 1.48-2.72.94a2.18 2.18 0 00-1.1-.32 4.1 4.1 0 00-2.76 2.24 3.26 3.26 0 00.5 2.94 6.35 6.35 0 01.8 1.28c.33.7.32.78-.13 1.13-2.35 1.83-2.41 2.15-.68 3.72 1.26 1.14 1.29 1.29.65 2.75-.27.64-1.58 1.08-4 1.33l-1.33.14-.16-.7a4.36 4.36 0 00-.32-.92 5.65 5.65 0 01-.38-1.06l-.24-.85-1.76-.11c-1.41-.08-1.89-.2-2.34-.58a2.17 2.17 0 00-.75-.48c-.41 0-.15-.88.57-1.93 1.36-2 1-3.42-1.16-4.25l-1-.38.47-1.22a5 5 0 000-4c-.32-.52-.48-.59-1.17-.49a1.8 1.8 0 01-2.14-1.14 2 2 0 00-2-1.27 4.25 4.25 0 00-3 1.81 2.18 2.18 0 01-1 1c-2.06.73-2.1.76-2.61 2a2.53 2.53 0 00-.11 2.47 7.66 7.66 0 001.07 2.1 4.31 4.31 0 01.67 1.05c0 .12-.43.46-.94.75-.89.51-.94.6-.94 1.57 0 .71.12 1.12.41 1.35a9.83 9.83 0 003.45 1 2.49 2.49 0 011.91 1.84 9.71 9.71 0 01-.59 4.7 5.64 5.64 0 01-1.11 1.35 13.93 13.93 0 01-4.71 2.31 11.55 11.55 0 01-2.31-.49c-2-.6-2-.8-1.17-3.1 1-2.57.74-3.42-.92-3.42-.87 0-1-.53-.37-1.67 1-1.77 1-2 .23-3.09a2.12 2.12 0 00-2.21-1.15c-.84.14-1-.55-.31-1.88.86-1.75 1-2.41.55-3.31s-.45-.91-1.43-1.1a2 2 0 00-1.6.4c-1.17.72-1.45.68-2.12-.29-.92-1.31-1.73-1.79-2.8-1.63-2.09.3-3.52 1.48-4.75 3.89-.58 1.16-1 1.64-1.54 1.92a7.5 7.5 0 00-1.34.86c-.54.48-.57.59-.44 2.25a8.24 8.24 0 00.73 3 2.62 2.62 0 002 1.74c3.46 1.36 4.29 1.84 4.29 2.46a8 8 0 01-.84 2c-1.11 2.09-.84 2.84 1.48 4.08 1.2.64 2.48 2.29 2.27 2.93a6.94 6.94 0 01-3 2.84 7.12 7.12 0 01-4.09.37c-.39-.11-.84-.71-1.58-2.1-1.61-3-2.22-3.94-2.72-4.09a6.27 6.27 0 00-3.36.8c-1 .69-1.2.28-1.35-2.34a6.39 6.39 0 00-.64-3.14c-.9-1.5-1.95-1.95-2.95-1.26-.69.47-1 .39-1.52-.39a2.08 2.08 0 00-2.31-1 2.46 2.46 0 00-1.58 3.57c.36.63.35.73-.11 1.79a3.27 3.27 0 00-.35 1.92c.11.63 0 .89-.33 1.22-.56.51-.86.53-1.91.13a3.28 3.28 0 00-3.34 1c-.45.4-1.16 1-1.58 1.28-.72.51-.75.59-.48 1.17.41.91 2 2.42 2.56 2.42a2.75 2.75 0 011.33 1c1.06 1.17 1.56 1.21 3.59.32 1.37-.61 1.5-.63 2.25-.35a2.52 2.52 0 011.35 3c-.3 1.46-.66 1.62-3.13 1.46-2-.14-2.09-.12-2.78.4a2.74 2.74 0 01-1.34.55 2.45 2.45 0 00-2.43 3.12c.58 1.28 1.88 1.56 3.7.81 1.36-.55 1.88-.53 2.14.1s1.56.92 2.81.57 1.13-.31 1.42.19c.19.33.14.76-.23 1.86a10.37 10.37 0 01-.86 1.93c-.38.54-.52.54-2.66 0-2.58-.6-5 .24-5.6 1.89-.27.83-.34.88-1.19.88a3.66 3.66 0 00-2.28 1 10 10 0 00-1.54 1.25 5.55 5.55 0 00-.19 3.3c.31.68.47.75 2.19 1 1.08.13 1.17.1 2.16-.73a4.56 4.56 0 011.29-.86c.14 0 .57.62 1 1.38l.69 1.38h1.06c1 0 1.52-.21 3.34-1.41.41-.27.6-.29.86-.09a3.07 3.07 0 01.63 2.38c-.06.79.5 2.09.92 2.09s.57-.11.51-.44c-.14-.75.53-.89 2.39-.5 1.66.36 1.78.36 2.37 0a3.3 3.3 0 001.53-2.32c0-.76.38-1.42.82-1.42.19 0 .66.57 1 1.27.89 1.6 1.55 2 3.12 1.94 1 0 1.3-.16 1.74-.62a2.08 2.08 0 00.54-.81 1.32 1.32 0 01.45-.6.72.72 0 01.94-.13.85.85 0 01.49.63.94.94 0 00.36.66 5.1 5.1 0 003 .44 2 2 0 011.08 0c.49.17.54.29.42 1a5.37 5.37 0 01-1.2 2c-1.27 1.46-1.41 2.44-.52 3.62.54.72.55.72 2.23.68h1.69l.72 1.16c.61 1 .83 1.16 1.39 1.16a1.24 1.24 0 00.82-.22 5.1 5.1 0 011.25-.72c1-.49 1.28-.73 1.89-2.11.19-.44.4-.58.79-.53 1.09.14.53 2-1 3.24-.81.65-.6 1.53.63 2.73.7.68 1.27.72 3 .23s2-.25 2 1.39a3 3 0 00.38 1.69c.32.42.5.47 1.32.35 1.16-.18 1.4.09 1.21 1.31-.12.75-.06.92.41 1.22a2.61 2.61 0 001.25.33c1.23 0 3.41-2.14 3.41-3.31a3 3 0 01.62-1.18c.94-1.23 1.66-1.13 3 .41l1 1.23h1.54c1.79 0 2.24.25 2.43 1.34.3 1.73.6 2.39 1.2 2.6 1.53.53 2.51-.16 2.77-1.94a2.82 2.82 0 012.26-2.63 2.26 2.26 0 012 .15 2.72 2.72 0 001.36.3c.53-.19.87-1.13.83-2.26v-1.2c0-.28 1-.72 1.66-.72a2.27 2.27 0 001.64-1.66 2.57 2.57 0 00-.6-1.22 2.7 2.7 0 01-.47-3 1.61 1.61 0 012-.75 11.14 11.14 0 011.85 2.63c.21.43.82 1.06 1 1.06s.41-.36.7-.8c.65-1 1.1-1.33 1.53-1.18s.42.44-.12 1.45c-.25.47-.62 1.18-.81 1.59a74.93 74.93 0 01-4.83 8.82c-.6.33.12 4 1.1 5.71a15.37 15.37 0 011.45 3.75c.2.9.17 1-.64 2-.48.59-1.29 1.51-1.8 2a15.45 15.45 0 00-2.29 3c-.51.82-.54 2.11 0 2.48a3.53 3.53 0 01.72.9c.3.52.31.66.05.81-.47.27-.71.23-1.54-.23a2 2 0 01-1.17-2.35c.2-1.53 1.63-3.82 3.7-5.95a9.37 9.37 0 001.86-2.33 3.62 3.62 0 00-.32-1.11c-.41-.89-.75-1.77-1.47-3.83-.6-1.73-.85-2-1.24-1.61a28 28 0 00-2.7 3.32 2.63 2.63 0 01-.68.82c-1 .53-1.93 3.09-2.71 7.08a12.57 12.57 0 01-.38 1.51c-.09.21.09.59.45 1 1 1.07.83 1.33-.84 1.27s-2 .26-.92.69a3.26 3.26 0 012.12 2.1c.2.69.39.9.89 1 1 .19 1.34.42 1.42.92s0 .46-1.88.33a22.66 22.66 0 01-3.59-.57 18.32 18.32 0 00-3.41-.49 19.48 19.48 0 01-2.44-.21c-1-.23-1.31.29-1.31 2.28s0 1.95 2.11 2.18a10.47 10.47 0 013.17.78 12.43 12.43 0 001.88.39c.9.14 2.16.34 2.79.46a2.24 2.24 0 001.66-.1 7.08 7.08 0 002-3.48 1.06 1.06 0 01.58-1 3 3 0 00.93-.95c.29-.51.54-.63 1.57-.75 1.31-.16 1.91.08 1.49.6-.12.15-.62.81-1.1 1.47a6.69 6.69 0 01-1.44 1.52 15.34 15.34 0 00-3 4.57 10.55 10.55 0 00-.5 1.93 8.06 8.06 0 01-.63 2c-.6 1.27-.8 2.71-.74 5.47a12.61 12.61 0 002.07 7.07 12.76 12.76 0 011 1.67c0 .26.85 1.17 2.67 2.88a25.17 25.17 0 011.92 1.94c.36.57 2 1.19 3.86 1.46a18.75 18.75 0 005.27 0c1.23-.11 1 .55-.4 1.21a11.83 11.83 0 00-1.45.76c-.13.11.19.58.76 1.14.83.82 1 1.1 1 1.87 0 1-.11 1.1-2.16 2-1.34.59-2.94.66-3.16.14s.34-.79 1.94-1.14 2-.92 1.42-1.79c-.81-1.12-3.11-1.61-7.57-1.61s-6.42.22-6.42.66c0 .22.06.23 2 .3 1.62.06 2.51.4 2.39.92 0 .26-.27.34-.77.29s-1.91-.08-3.38-.1c-3-.06-3.44-.28-1.85-1l1-.48-.64-.21c-1.45-.48-.79-1.48 1.15-1.74a23.44 23.44 0 013.7.09c4.92.45 4.89.54 1.3-2.86a20.68 20.68 0 00-2.8-2.28c-.55-.34-.6-.33-1.32.34-.41.38-.9.79-1.08.92-1.13.79-2.31 1-2.31.34s-.5-.89-1.86-.89c-1.53 0-1.81.13-1.93.85-.08.52-.1.53-2.31.5a7.09 7.09 0 01-3.22-.47 5.15 5.15 0 00-1.32-.46c-.68 0-2.31-1-4.13-2.61s-1.95-1.78-3.65-5c-2.26-4.25-2.1-4-2.52-4.07s-.9.47-2.3 2.43c-1.09 1.54-1.14 2-.31 3.1.57.74.63 1 .62 2.76a6.18 6.18 0 00.44 2.9 6.77 6.77 0 01.46 4.2 2.23 2.23 0 00.19 1.92 56 56 0 011.92 5.29 29.8 29.8 0 001.28 3.22c.86 1.82 1.08 3.1.6 3.53a12.55 12.55 0 01-4.08 1.23 4.73 4.73 0 01-2.32-.11 3.34 3.34 0 00-1.46-.15 9.72 9.72 0 01-3.48-.06c-1.1-.16-1.11-.17-1.5-1.37a12.07 12.07 0 01-.47-2.68c0-.82-.18-2.16-.29-3s-.21-3-.22-4.84c0-3 0-3.41-.43-3.8s-.62-.41-1.53-.3-1.12.06-1.22-.17c-.25-.59-.55-12.07-.44-17.08 0-2.23.09-2.43.6-2.83a1.08 1.08 0 00.49-1c0-.31-.13-1.1-.2-1.74-.34-2.91-1-4.43-1.59-3.87-.24.22-.31 1.5-.32 5.63a48.61 48.61 0 01-.26 6.21 19.23 19.23 0 00-.2 3.72 11.38 11.38 0 01-.28 3.71 31.27 31.27 0 00-1.13 4.89 7.72 7.72 0 01-.6 2 4.34 4.34 0 00-.45 1.59 5.39 5.39 0 01-.25 1.45 56.52 56.52 0 00-.11 9.54c.14 2.66 0 3-1.06 3-.79 0-1.08-.33-.68-.77.22-.23.3-1.91.33-6.41 0-6.09 0-6.11.68-7.7 1.12-2.77 1.65-5.21 1.44-6.59-.13-.88-.08-1.07.37-1.46s.53-.64.59-3.69c0-1.78.13-3.73.21-4.33.11-.83.06-1.14-.22-1.35-.43-.33-.39-.36-.89.74-.63 1.39-.7 1.8-.42 2.42s.16.94-.46 2.8a28.06 28.06 0 00-.94 3.46 3.87 3.87 0 01-.59 1.63c-.35.35-.36.56-.1 1.88a3.68 3.68 0 010 2.08 13 13 0 00-.51 1.75 9.15 9.15 0 01-.63 1.86c-.33.63-.48.71-1.29.71s-1 .1-1.12.48a3.86 3.86 0 00.53 2.88 2.28 2.28 0 01.16 2.26 6.85 6.85 0 00-.26 1.87 16.08 16.08 0 01-.23 2.29 3.89 3.89 0 00.72 3.29c.64.62.48 1.12-.4 1.27l-1.69.34c-.93.19-1.09.17-1.59-.26-.67-.57-.69-.85-.09-1.34s.86-2.67 1.07-8l.09-2.25-.8-.48c-1.06-.45-1.1-1.11-.08-1.31a1.29 1.29 0 001.06-.92c.55-1.26.68-1.41 1.6-1.64.73-.18 1-.41 1.45-1.28a4.47 4.47 0 00.35-4.2c-.64-1.34-.62-1.56.17-2.24s.79-.79 1.8-3.81c.7-2.1.7-2.16.18-3-.41-.64-.4-.67.21-1.66a19.52 19.52 0 001.34-3.57c.39-1.4.88-3.1 1.08-3.77.41-1.33.27-1.87-.59-2.28a1.06 1.06 0 00-1.51.75c-.07.29-.18.79-.26 1.11a6.69 6.69 0 01-.44 1.22 26.15 26.15 0 00-1.43 3.93c-1 3.23-1.54 4.68-1.71 4.68s-.18.45-.2 1a6.57 6.57 0 01-1.1 3.23 7 7 0 00-.81 1.81 10.47 10.47 0 00-.44 4c.05 2.42 0 2.6-.58 3.51a14.58 14.58 0 01-1.77 2.05 3.59 3.59 0 00-1.44 2.76c-.17.92-.41 2.05-.54 2.52a39.52 39.52 0 00-1 4.25 19.38 19.38 0 00-.37 2.81c0 .84.06.93.84 1.22 1.08.41.94.76-.5 1.24-1.09.37-1.16.37-1.45 0-.64-.8-.21-4.69.88-7.85a4.23 4.23 0 00.23-1.17 31.45 31.45 0 011.52-6 3.32 3.32 0 01.91-.88 6.56 6.56 0 001.53-2c.72-1.35.76-1.49.49-2.34a6.16 6.16 0 01-.18-1.93A15.63 15.63 0 01110 243a5.35 5.35 0 00.78-1.92 18.11 18.11 0 01.44-1.87c.13-.41.46-1.47.74-2.34s.71-2.07 1-2.66a27.77 27.77 0 001.47-4.35 9.61 9.61 0 011.08-2.55 5.13 5.13 0 001.26-3 3.25 3.25 0 01.49-1.5 18.15 18.15 0 001.44-5.11c.1-.73 0-1-.25-1.24a1 1 0 01-.37-.61c0-.18-.45-.7-1-1.15a4.25 4.25 0 01-1.51-2.47 11.45 11.45 0 01-.54-2.09 4.24 4.24 0 00-.36-1.21c-.32-.7-.44-.76-1.59-.87-.68-.06-2.29-.09-3.58-.07-2.56 0-3.68-.24-3.83-1a1.16 1.16 0 00-1.36-1c-.61.1-.65.16-.89 1.13-.1.44-.32.6-.93.7-1.18.2-1.39.54-.84 1.36a1.22 1.22 0 001 .68c.69 0 1.34.53 1.15 1-.08.2-.45.31-1 .31-1 0-1.27-.25-4-3.26a5.76 5.76 0 00-1.57-1.41c-.54 0-.62.42-.23 1.17s.34.87.05 2a4.57 4.57 0 01-1 2 5.63 5.63 0 00-1.37 2.33c-.17.49-1.37.94-3 1.12a19.44 19.44 0 00-2.44.44 66.34 66.34 0 01-8.4.93 3.65 3.65 0 01-3.11-1.63 5.89 5.89 0 00-.58-.92 14 14 0 01-.69-1.23 8.25 8.25 0 00-1.22-1.78c-.68-.7-.68-1 0-1s1.86 1.29 2.83 3.12c.85 1.59 1 1.74 2 2.09a3.91 3.91 0 001.84.23c.42-.07 1.64-.22 2.7-.34s2.55-.31 3.29-.43 2-.32 2.71-.43c2-.29 2.63-.68 3.33-1.93a10.41 10.41 0 011.18-1.72c1.11-1.2.5-1.78-1.41-1.33-.73.18-1.26.21-1.4.08-.37-.33.62-1 1.86-1.31 1.65-.38 1.75-.69.73-2.13a18.94 18.94 0 01-1.46-2.54l-.93-2a3.29 3.29 0 01-.33-1.14 3.25 3.25 0 00-.33-1.13 15.5 15.5 0 01-.6-1.47c-.16-.44-.41-.8-.58-.8-.58 0-2.48 3.12-2.11 3.45a3.24 3.24 0 01-.26 1.2c-.55 1.67-.29 4.69.48 5.73a3.31 3.31 0 01.59 1 3 3 0 00.84 1l.85.74-.5.63c-.51.65-2 1.09-3.56 1.09-.77 0-.82-.07-1-1.55-.25-1.72-1.48-1.63-1.84.14l-.2 1-1.24-.18a2.36 2.36 0 01-1.6-.59 8 8 0 00-.78-.77c-1.48-1.26-1.76-1.59-1.71-2a9.25 9.25 0 00-.81-3.83 3.23 3.23 0 01-.34-2.23c.07-.77.16-1.54.2-1.72a.34.34 0 00-.16-.4c-.12 0-.31.25-.42.64s-.28 1-.4 1.35a12 12 0 00-.25 4.31c.27 1.29-.07 1.65-1.28 1.35-1.41-.35-1.86 0-2.35 2-.42 1.71-.41 2 .25 6.35.75 5 .82 5.55 1.05 7.65a35.91 35.91 0 001 4.89c1.88 6.36 2.29 7.73 2.88 9a15.62 15.62 0 01.74 2c.17.7.43 1.26 2.38 5a10 10 0 01.79 1.81 1.82 1.82 0 00.39.79c.22.28.91 1.42 1.55 2.54a19.68 19.68 0 001.58 2.46 7.31 7.31 0 01.87 1.4 4 4 0 00.74 1.14 12.59 12.59 0 011.75 2.2c.13.19.61.82 1.07 1.4 1 1.27 1.37 1.76 2.49 3.3a23.89 23.89 0 003.38 3.79c.6.55 1.49 1.47 2 2.06 2.19 2.55 7.77 6.56 11.71 8.4.77.37 2 1 2.81 1.37a31.22 31.22 0 004.93 2.1 27.7 27.7 0 012.87 1.1 20.4 20.4 0 002.42.94 7.37 7.37 0 011.35.5 14.1 14.1 0 002.52.76 15.16 15.16 0 012 .5 10.49 10.49 0 001.66.44c.58.09 2.06.35 3.29.58l4.12.76c3.9.71 17.92.98 21.67.41zm1-23.76c-.48-.52.23-.72 2.66-.75a27.69 27.69 0 002.83-.14c.58-.14 1.17.39 1 .86s-6.12.48-6.52.04zm18.74-8.07c0-.38.77-1 1.25-1s.53.65.12 1-1.4.36-1.4 0zm-9.22-.76a6.21 6.21 0 01-1.16-.62 1 1 0 00-.61-.25 16.86 16.86 0 01-3.75-3.46 21.76 21.76 0 01-1.91-5.21 42.4 42.4 0 01-.62-6.42 7 7 0 00.12-3.31c-.2-.22-.18-.32.09-.41s1-1.38 1.23-2.63a11.31 11.31 0 012.83-4.82c1.28-.91 2-1.21 2.48-1.08s.52.05.77-1c.11-.45.28-.59.73-.59s.68.19 1 1c.53 1.11.91 1.19 2.35.5 1.22-.57 1.47-1 1.11-1.87-.25-.61-.23-.72.17-1a5.26 5.26 0 013.47 0c.42.17 1.56.53 2.53.79 2 .55 2.42.89 3.54 2.87a8.19 8.19 0 001.47 2c.75.6.94 1 1.57 3 .4 1.26.42 1.72.21 4.46-.2 2.57-.33 3.21-.82 4.08-.7 1.24-.71 1.48-.12 2.22.4.51.43.72.22 1.74a4.38 4.38 0 01-.8 1.75 4 4 0 00-.7 1.1 15.89 15.89 0 01-2.64 3.29c-.44.33-.62.22-1.4-.84l-1.05-1.45a19.51 19.51 0 01-1.26-2.52c-.54-1.27-1-2-1.2-2-.52 0-.3.88 1.25 4.94 1.31 3.44 1.34 3.56.93 4a3.69 3.69 0 01-1.27.67 14.26 14.26 0 00-2.08.86c-1.13.56-1.42.61-3.52.59a8.59 8.59 0 01-3.19-.38zm5.9-1.29c1.64-.68 2.39-1.25 2.39-1.82a22.3 22.3 0 00-1.28-4.5 17 17 0 01-.6-1.7c-.45-1.59-1-1-2 2-.34 1.05-.82 2.49-1.06 3.19a18.6 18.6 0 00-.59 2.08c-.13.7-.08.82.39 1a3.5 3.5 0 002.72-.25zm-6.53-2.71c.28-.67.77-1.94 1.09-2.82a7.12 7.12 0 011-2c.42-.39.47-.4.85-.05s.37.42 0 1.37-.51 1.76-.2 1.76a7.83 7.83 0 001-2.08 23.11 23.11 0 011.23-2.79c.61-1 .41-1.34-.69-1.26a1.21 1.21 0 00-1.29.87c-.35.68-.53.79-1.18.79-1 0-2 .57-3.28 1.95a6.36 6.36 0 00-1.82 3.45c0 .49 1.8 2 2.37 2 .26.03.54-.35.89-1.19zm14-2.74a2.23 2.23 0 00.58-.75 3.71 3.71 0 01.55-1 10.33 10.33 0 001-1.85l.4-1.06-1.65-1.39a6.39 6.39 0 01-1.66-1.75c0-.37 1.25-1 2.4-1.3s1.38-1 1.49-3-.06-2.38-1.39-1.89c-.87.31-.9.35-.8 1.2.17 1.48-.72 2.53-1.47 1.72-.39-.43-1.11-.4-1.25 0a11.31 11.31 0 00-.27 1.27 4.1 4.1 0 01-.84 1.68 3.11 3.11 0 00-.69 1 .87.87 0 01-.35.53c-.49.37-.44 1 .13 1.72a7.94 7.94 0 01.92 2 5.8 5.8 0 001.49 2.84c.5.72.65.71 1.35.03zm-15.51-3.31c2.34-1.44 3-2.08 2.09-2.08a8.8 8.8 0 00-2.09 1 9.47 9.47 0 01-2.08 1c-.57 0-1.57 1-1.4 1.36.19.52.92.27 3.42-1.28zm.86-2.94c1.07-.7.79-1.26-.62-1.26a1 1 0 00-.93 1.28c.13.54.63.53 1.49-.02zm9.6-1.26c.6-.59.64-.74.54-1.93-.14-1.6-1.12-3.75-1.56-3.42a5.28 5.28 0 00-1.45 3.72c0 1.27.07 1.5.56 1.86.7.56 1.08.51 1.85-.23zm-8-1.28c.15 0 .24-.16.2-.35-.12-.56-1.52-.83-4.18-.82-2.24 0-2.47 0-2.55.41-.16.75.49.91 3.46.83zm3.93-1.46a11.68 11.68 0 01.92-2.06 1.33 1.33 0 00.21-1.13c-.34-1.41.85-1.94 2.42-1.08a11 11 0 001.76.74l1 .32 2.43-1.12c2.43-1.12 2.89-1.48 2.42-1.9-.17-.16-.51-.13-1.16.1-1.44.52-1.58.32-1.58-2.34 0-1.93-.06-2.28-.35-2.21-.9.2-1.06.12-1.13-.56s-.6-1.18-2.29-1.64c-1.44-.39-2.36-.41-2.52 0a1.94 1.94 0 00.33 1.54c.32.18.25 1.23-.1 1.67s-.43.36-1.47.13c-2.1-.46-2.44-.49-2.81-.21s-.28 1.76.35 3.17a24.84 24.84 0 011.42 3.54 4.12 4.12 0 01-.72 1.13 2.78 2.78 0 00-.75 2c-.13 2.19.77 2.16 1.57-.09zm-7.25-1.41a1.86 1.86 0 012.28-.22 1.77 1.77 0 001.95 0 2.31 2.31 0 00.41-.93c.13-.58.07-.66-.62-.88a7.38 7.38 0 00-1.79-.24 6.15 6.15 0 01-1.87-.32 6.6 6.6 0 00-1.87-.32c-1.14 0-1.24.15-1.33 1.9-.05.82 0 1 .53 1.22a2 2 0 002.26-.21zm2.54-4.7a8.68 8.68 0 00-.86-2.22c-.95-1.69-1.45-1.67-2.51.12-1.3 2.18-1.09 2.61 1.46 3 1.77.31 2.02.19 1.86-.9zm.62-3.61c.21-.19-.28-1-.53-.83s-.14.3-.08.53c.08.44.29.54.56.3zM137 249a1.86 1.86 0 01-.44-.9c-.07-.43-.25-.56-.9-.64-1.65-.21-.82-1.54 1-1.58.85 0 1 .07 1.3.57a2.05 2.05 0 00.77.8c.64.32.57.67-.32 1.44s-.97.81-1.41.31zm-60.67-25c-.86-.58-.07-.79 2.92-.76a10 10 0 004.07-.43c1.17-.41 1.52-.43 5-.29a118.13 118.13 0 0016.54-.35 41.64 41.64 0 014.82-.16c2.25.06 2.68.14 3.25.55s.76.42 1.12.25a1.74 1.74 0 011.94.29c.45.67-.82.94-1.86.4a123.94 123.94 0 00-12.55.21c-2.91.13-6.44.23-7.86.21a21.84 21.84 0 00-3.29.15A2.39 2.39 0 0189 224a3.18 3.18 0 00-1.87-.08 10.1 10.1 0 01-1.71.19c-.33 0-2.4 0-4.61.1-3.24.05-4.13.01-4.48-.21zm3.08-2.81c-1.36-.31-1.21-.77.52-1.65 2.14-1.08 3.18-.42 1.52 1-.96.78-1.13.84-2.04.64zm80.86-.15a.72.72 0 01.48-1.19.64.64 0 01.52 1c-.33.49-.67.54-1 .15zm-66.85-.17c-.43-.39-.34-.72.32-1.11 1.12-.67 2.64-.38 2.29.43a5.09 5.09 0 01-2.14.94 1 1 0 01-.47-.27zm6.62-.26c-.25-.59.34-1.18 1.18-1.18s1.32.35 1.08.94-2.06.71-2.3.23zm-11.44 0c-.59-.54.21-1.35 1.34-1.35.77 0 1 .35.61 1a1.05 1.05 0 01-1 .51 2 2 0 01-.95-.22zm19.88-.18c-.32-.75 1-1.27 1.56-.63.23.25.23.38 0 .63-.38.36-1.39.35-1.56-.06zm59.43-.45c-.4-.77-.4-.78.25-1.74a5.48 5.48 0 011.05-1.18c.56-.31 1.14.19 1.14 1 0 .63 0 .64 1 .5 1.28-.18 1.85-.48 1.85-1s-.83-1.44-1.69-1.85c-.62-.29-.69-.41-.56-1 .17-.77.76-1.43 1.29-1.43s1.43 1.23 1.43 1.73a8.45 8.45 0 001.75 2.57 2 2 0 00.85.16 16.15 16.15 0 014.72 1.21 1.2 1.2 0 01.43.75c0 .34-.13.38-.77.28-4.1-.64-4.11-.64-7.21-.34-2.49.23-3.19.38-3.87.79s-1.22.31-1.66-.51zm48.48-.68c-.67-.39.66-1.52 1.46-1.24s.43.93-.37 1.18l-.76.23a3.56 3.56 0 01-.33-.23zm-128.13-1.2c-.43-.39-.35-.55.41-.91s1.86-.41 2 0c.38.81-1.67 1.55-2.41.91zm15.54-1c-.47-.69 2.1-2.3 3.74-2.36s1.6 1.17 0 1.44a8.77 8.77 0 00-1.93.65c-1.2.52-1.61.57-1.81.23zm-8.86-.12c-.31-.29-.14-.49.84-1 1.22-.63 3.39-.77 3.61-.23s-.2.75-2.06 1.07-2.18.31-2.39.12zM216 215.44c-1.16-.27 1-1.76 2.58-1.76.67 0 .78.07.78.51.03.94-1.77 1.62-3.36 1.25zm-132.71-2c.05-.27.24-.5.43-.5.51 0 .44.83-.07.92-.31.05-.39-.04-.33-.43zm-2-.11c-.32-.28-.14-.7.3-.7s.87.41.45.65-.51.23-.71.04zm18.67-.21c-.44-.16-.35-.66.16-.91a1.42 1.42 0 011.68.12c.27.29.25.39-.13.64a2 2 0 01-1.67.14zm116.28-1.68c-.66-.6.51-1.58 1.87-1.57s1.71 1 .3 1.33c-1.54.34-1.96.39-2.13.23zm-45.05-1.61c-2.05-2.73-3.19-5.13-3.19-6.83 0-1.41.81-3 1.58-3.09s.85.36.3 1.34c-.89 1.58-.69 2.51 1.31 6.08 1.63 2.9 1.93 3.81 1.28 3.81a5.5 5.5 0 01-1.24-1.32zm-63.89.17a.67.67 0 01.22-.68c.5-.46 1.16-.2 1.07.41s-1.06.75-1.29.27zm67-2.06a2.35 2.35 0 01-.9-1.48c0-.53.08-.61.71-.61.92 0 1.11-.47.48-1.19s-.62-1.07 0-1.36.59-.56-.25-1.42c-.56-.59-.66-.8-.44-1 .44-.48 1.52-.35 2.33.27 1.11.84 1.28 1.44.66 2.21-.4.48-.45.68-.23.88a1.46 1.46 0 01-.07 1.77c-.55.67-.42 1 .46 1.34s1.09.92.23 1.27a2.36 2.36 0 01-2.98-.72zm-2.3-2.49c-.67-1.14-.48-3.08.32-3.22s1.33 1.37.85 3c-.17.59-.83.77-1.17.22zm42 .18c-1.45-.38-.34-1.3 1.57-1.3 1.33 0 1.78.35 1.3 1-.25.41-1.87.56-2.87.3zm3.27-2.15c-.38-.08-.59-.28-.59-.54s.26-.47 1.29-.66c1.89-.36 2.81-.35 3 0 .08.18.09.37 0 .43a11.07 11.07 0 01-3.69.77zm-73.69-18.72a7.58 7.58 0 01-1.57-.87 1.17 1.17 0 00-1.06-.32 4.22 4.22 0 01-2.87-.91c-.73-.62-1-2.42-.61-3.85a1.72 1.72 0 00-.21-1.82c-.42-.72-.44-.85-.13-1.13s.42-.26 1 .13a4.53 4.53 0 011.06 1.08c.41.63.41.66-.19 1.68a2.3 2.3 0 00-.46 1.77c.23 1.19.32 1.37.83 1.66s.61.22 1.21-.05c1.06-.48 1.25-.43 2.22.63.64.69 1.05 1 1.51 1 .76 0 .92-.31.92-1.8 0-1.08 0-1.15.66-1.27a2.94 2.94 0 011.29.08 2.87 2.87 0 002.75-.63c.82-.69.86-1 .22-1.76a2.3 2.3 0 00-1.55-.69c-1.66-.23-1.64-1 .06-2a4.35 4.35 0 002-3.25c0-.73 0-.79-.79-.92a3.72 3.72 0 00-1.3 0c-.69.2-1.41-.4-1.24-1a1.27 1.27 0 01.33-.59c.12-.06 0-.42-.17-.79a1 1 0 00-1-.68 1.32 1.32 0 01-1-.48l-.37-.48-.59.64c-1.28 1.4-2.07 2-2.56 2-.28 0-1.3-.11-2.27-.24l-1.77-.24-1.34.69a3.37 3.37 0 01-3.75 0 7.2 7.2 0 00-1-.42c-.42 0-1.85 1.5-2.33 2.46-1 1.91-3.37 3.7-5 3.7a7.92 7.92 0 00-2.32.53c-1.84.74-2.87.7-4.26-.17s-1.48-1.09-.89-1.3a2 2 0 011.29.4 4.16 4.16 0 004.71-.47 1.85 1.85 0 011.41-.19 1.66 1.66 0 001.59-.34 8.63 8.63 0 002.12-2.65 3.91 3.91 0 011-1.25 4.65 4.65 0 001.77-2.67c0-.83.66-1.88 1.19-1.88.36 0 .47.1.37.33s.07.4.5.57l.64.24-.59.09c-1.86.29-.55 2.6 1.47 2.6a4.27 4.27 0 002.85-1.4c.17-.41.61-.38 1.82.12 1.58.65 2.68.57 3.54-.26a5.74 5.74 0 001-1.34 1.59 1.59 0 011.14-.89c.82-.22.83-.22.68.31s-.13.54.92.4 1.13-.09 1.65.42a3.07 3.07 0 01.74 1.43c.19 1.09.49 1.42 1.29 1.42 1.22 0 1.53.43 1.62 2.29a3.72 3.72 0 01-.52 2.73 6.26 6.26 0 00-.62 1.22 5.09 5.09 0 00.74 1.11 2.13 2.13 0 01.31 2.82c-.86 1.21-1.83 1.73-3.88 2-.77.11-.86.2-1.13 1.19s-.94 1.7-1.66 1.69a6.57 6.57 0 01-1.41-.43zm19.33-13.95q-1.48-.26-1.71-2.55c-.13-1.35-.18-1.45-1-1.9a12.46 12.46 0 01-1.24-.8c-.78-.64-.34-2.72.76-3.63.42-.34.58-.37 1-.14a.92.92 0 00.73.11c.15-.08.19-.05.1.09a.25.25 0 00.09.37c.31.17-.15.74-.58.74a1.45 1.45 0 00-1.07 1.22c0 .58.34.76 1.64.9l1.06.11-.08 1.84c-.07 1.64 0 1.89.41 2.29a1.72 1.72 0 00.81.44c.54 0 1.55-.85 2-1.72.59-1.05 1.19-1.08 1.87-.09a1.2 1.2 0 002.09.23c.55-.53.56-.67.13-2.59-.14-.59-.08-.68.63-.93a6.13 6.13 0 002.77-2c.72-1.07.1-2.23-1.6-3l-1.09-.5v-1.22c0-1.1-.07-1.28-.7-1.75a1.88 1.88 0 00-1.76-.39c-2.08.25-2 .29-2.35-.79-.51-1.45-1-1.87-2.12-1.87a2 2 0 00-1.53.52c-.67.61-.71 1.16-.2 2.53s.33 1.69-.7 1.51a3 3 0 00-1.66.23c-.68.29-.92.32-1.14.11s-.07-.42.66-1c.93-.73.94-.76.94-2.21s.05-1.51.77-2.16 1-.72 2.78-.92 2-.17 2.16.11a10.86 10.86 0 001.73 2.28 4.31 4.31 0 001.42.33 4.53 4.53 0 013.18 1.74 6.55 6.55 0 01.41 1.29 3 3 0 001.13 1.59c2.36 2 2.34 3.13-.11 5.18-1.57 1.32-1.64 1.42-1.49 2.12a2.65 2.65 0 01-1.29 2.77 4 4 0 01-2.44.52 4.33 4.33 0 00-2 .3 4.26 4.26 0 01-3.4.69zm-42.7-.68a5 5 0 01-1.61-1.13c-.58-.7-.75-.77-1.8-.77a2 2 0 01-1.72-.55c-.49-.48-.68-.54-1.5-.41-1.23.19-3.71-.76-4-1.54a2.86 2.86 0 011.16-2.58c.66-.32.8 0 .52 1.08-.22.85-.19 1 .36 1.39.78.63 1 .61 2.11-.16s1.74-.77 2.16.39.78 1.27 1.75.94 2.26.21 2.11.94.75 1.56 1.73 1.56a2.17 2.17 0 002-1.9c0-.78.51-1.15 1.35-1s1.47-.26 1.63-1.29c.12-.81.08-.89-.72-1.31-1-.55-1.06-.85-.17-1.62a1.69 1.69 0 00.69-1.62c0-1.15-.26-1.46-1.43-1.68-.6-.11-.76-.24-.76-.64s.2-.56.94-.8c.93-.29.94-.29 1.67.43a6.59 6.59 0 011.49 3.54 2.86 2.86 0 01-.36 1.1c-.35.6-.34.71.16 1.79.62 1.35.43 2-.76 2.6a5.72 5.72 0 00-2.46 2 3.37 3.37 0 01-4.53 1.24zm60.79-2.56a3.42 3.42 0 01-1.65-3.22c.13-1.21.71-2.1 1.38-2.1.44 0 .47.08.3.9-.28 1.39-.16 2.11.47 2.68.78.71 1.61.5 2.17-.55s1.46-1.2 2.33-.17 1.32 1.24 2.44 1c1.47-.35 1.8-1.36.94-2.82-.71-1.21-.36-1.64 1.32-1.64 1.88 0 2.29-.26 2.11-1.31-.28-1.55-1.11-2.21-3-2.35-1.14-.08-1.23-.68-.16-1.15 2.35-1 4.75.92 5 4 .14 1.53 0 1.73-1.78 2.26l-1.09.33-.15 1.21a2.73 2.73 0 01-1.79 2.65 5.59 5.59 0 01-3.78.2c-1.4-.33-1.5-.32-2.38.08a2.57 2.57 0 01-2.68 0zm-2.72 113.1c.67-.23 1.78-.67 2.46-1s2.1-.85 3.13-1.23c2.71-1 3-1.31 1.7-1.55a8.08 8.08 0 01-2-.91c-1.65-1-2.47-1-3.38 0a5 5 0 01-3.68 1.36h-.81v1.38a5.42 5.42 0 01-.3 1.83c-.66.97.26 1.01 2.85.12zm-11.68-2.58c.79-.39.75-1.92-.09-3.45a28.78 28.78 0 01-1.29-3c-.41-1.09-.85-2.16-1-2.36-.39-.66-.88-.44-1.15.52a10.82 10.82 0 01-.46 1.35 7.67 7.67 0 00-.73 4.14 10.3 10.3 0 01.25 1.93c0 .76.1 1 .41 1.1a12.48 12.48 0 004.03-.23zm-7.94-.24a.86.86 0 00.45-.77 5.17 5.17 0 00-1-2.73 8.74 8.74 0 01-1-1.59c-.75-1.55-1.12-1.82-1.79-1.33-.46.33-.52.65-.65 2.95-.15 2.86 0 3.4 1 3.54a6.42 6.42 0 002.96-.07zm-6-1.39c.16-.57-.36-1.57-.81-1.57s-.28 1.77 0 2.07.57.18.76-.5zm26.85-1.93a2.1 2.1 0 011.29-.7c.95.07 1.08 0 1.36-.87s.11-1.25-.66-1.26a1.27 1.27 0 00-1 1.05 1 1 0 01-.38.67c-.32.24-.43.22-.69-.11a1.31 1.31 0 01-.19-1c.19-.82-.94-3-1.55-3s-.78.62-.56 1.86.16 1.48-.41 2.14-.59 1.7.08 1.93a2.7 2.7 0 002.66-.71zm6.49.47a.75.75 0 00-.23-1.33c-.77-.12-.91-.38-.59-1.09s.08-1.18-.65-1c-.29.08-.59.52-.84 1.2-.34 1-.34 1.14 0 1.68a1.54 1.54 0 002.31.54zm-16.23-5c.94-2.58 1-3 .93-4.25a4.65 4.65 0 00-.37-1.63c-.17-.19-.81-.26-2-.24a13.92 13.92 0 01-2.46-.13c-.39-.09-.62-.08-.55 0a3 3 0 01-.05 1.21c-.22 1.34.37 3.78 1.56 6.42.73 1.61 1.22 2.14 1.63 1.76a20.36 20.36 0 001.26-3.14zm22.23 2.78c.48-.34.52-.49.32-1a.91.91 0 00-1.71-.18c-.35.7-.35 1 0 1.34s.72.31 1.39-.16zm-37.86-2.3a9.3 9.3 0 00.63-2.05c.14-.89.09-1.1-.36-1.53a1.61 1.61 0 01-.49-1.44c0-.92-.15-1.22-.92-1.47s-.93.16-1.05 2.85c-.11 2.34-.06 2.78.35 3.65.59 1.34 1.17 1.34 1.8-.01zm35.42-.31a1.44 1.44 0 000-2.24 1.43 1.43 0 00-2.2 1.46c.26 1.31 1.16 1.61 2.16.78zm-7.25-.07c.42-.11 1-1.18 1-1.9a.91.91 0 01.4-.65c.35-.23.36-.32.08-.62a3.59 3.59 0 00-.95-.65c-.57-.27-.71-.25-1.48.23-1.13.69-1.31 1.06-1.17 2.32s.59 1.66 1.29 1.49zm13.12-.15c.81-.6-.3-2.08-1.56-2.08s-1.62 1.37-.56 2.12a1.74 1.74 0 002.08.01zM130 268.19c.2-.23.25-.73.15-1.65-.21-1.93-.25-2.16-.48-2.31s-.58-1.87-.76-5.26-.17-3.28-.89-4a10.86 10.86 0 00-1.11-1 5.93 5.93 0 01-1.06-1.22c-.71-1-1.19-1.32-1.57-1-.15.14 0 .48.38 1 1 1.3 1.18 2 1.15 4.1a52.22 52.22 0 001.19 10.56 1.53 1.53 0 00.74.89 2.68 2.68 0 002.26-.11zm5.61 0a1.89 1.89 0 00.81-.66 11.37 11.37 0 00-.78-3.71c-.11-.29-.38-1.1-.59-1.8a44.09 44.09 0 00-2-5.31c-.28-.34-.31-1.15-.12-3.1a4.65 4.65 0 00-.46-3.28c-.6-1.36-.62-1.53-.36-2.49s-.54 0-.48-2.59c0-.59-.63-.55-1.16-.44-.84.16-1 0-1.89-3.14-.39-1.31-.86-2.87-1-3.46s-.64-2.16-1-3.5a28.87 28.87 0 00-1.28-3.62 32 32 0 01-2.37-7.22 3.06 3.06 0 00-.37-1.06c-.2-.28-.28-.26-.6.1a1.5 1.5 0 00-.23 1.28 18.61 18.61 0 00.82 4 4 4 0 01.25 1.38 13.4 13.4 0 00.46 2.48c.25.94.56 2.28.69 3a65.62 65.62 0 001.79 6.91 7.31 7.31 0 01.07 5.42l-.61 1.62.51.95c.58 1.08 1 1.2 1.86.49.5-.42.58-.43.91-.13s.42.72.19 2.33c-.13.92-.08 1.05.7 1.83s.85.92.85 2.42a49 49 0 00.83 7c.64 2.53 1.29 4.23 1.71 4.45a4.23 4.23 0 002.84-.14zm55.92-2.4c.91-.94.65-2.39-.44-2.39s-1.73.44-1.73 1.15c-.01 1.36 1.32 2.12 2.16 1.25zm-10.82-1c.23-1.26-.1-1.67-1.24-1.53-1.8.22-2.13 1.09-.73 1.95 1.26.79 1.77.64 1.96-.42zm5.41.61a1.8 1.8 0 00.08-2.2 2.44 2.44 0 01-.35-1c0-.51-.54-.64-1.15-.29-.87.5-1.29 3.23-.56 3.62a2 2 0 001.97-.13zm4.14-4.16a1.31 1.31 0 000-1.63 3.69 3.69 0 00-1.43-.29c-1.91-.09-2 .95-.15 1.84.73.38 1.21.4 1.57.08zm-5.81-.6c.64-.31.57-.88-.2-1.55s-1.76-.74-2.25-.11c-.31.4-.31.53 0 1a1.91 1.91 0 002.44.66zm8.85-9.48c.84-.21.61-.45-.78-.82-1-.26-1.29-.42-1.23-.7s.39-.36 2.48-.32c1.92 0 2.4 0 2.4-.25s-.35-.45-2-.65a2.82 2.82 0 01-1.86-.75 2.19 2.19 0 00-1-.63 2.25 2.25 0 01-1-.63c-1.27-1.2-1.69-.66-.78 1 .66 1.19.38 1.5-.82.92a4.64 4.64 0 00-1.1-.42c-.34 0-1.17 1.29-1.17 1.82 0 .92.8 1.25 3.36 1.38l2.74.16a3.87 3.87 0 00.75-.11zm10.83-.21c.06 0 0-.23-.23-.39-.6-.54-6.09-.34-6.09.22-.01.41 5.84.57 6.31.22zm-54.8-.83a6.46 6.46 0 00-1.53-1.12c-2.07-1.26-2.47-1.62-3.44-3.16-.81-1.27-1.46-1.73-1.46-1 0 .2-.22.32-.57.32s-.57-.11-.54-.4.15-.36.38-.28.28 0 .18-.12 0-.27.14-.32.16-.32-.21-.92a13.79 13.79 0 01-.87-1.89 47.8 47.8 0 00-1-2.55 7.49 7.49 0 01-.62-3.93 9.7 9.7 0 011.52-6.08 4.87 4.87 0 00.82-2.07c-.15-.35-1.18-.48-1.9-.23-.48.17-1.65 2.25-2.39 4.28-1.2 3.26-1 8.16.47 10.24a4 4 0 01.6 1.08 5.77 5.77 0 001.18 1.3 3.42 3.42 0 011.17 1.57.67.67 0 00.38.62c.29.1.32.2.11.43s0 .58 1 1.68a5.79 5.79 0 003.11 2c2.62.89 3.51 1.04 3.46.55zM199.4 249c.82-.11.95-.66.14-.56l-1.56.19c-.73.09-1.12.24-1.12.43s.22.27.88.18zm-43.08-.22c1.66-.58 1.9-.89 1.57-2.06a4.23 4.23 0 01-.15-1.58 8.43 8.43 0 00-.22-2.28 23.93 23.93 0 01-.41-3.24 6.82 6.82 0 00-.2-1.67 4.93 4.93 0 00-2.65.49 1.16 1.16 0 00-.34.75 4.09 4.09 0 01-.44 1.32 14.62 14.62 0 00-1.18 4c-.58 3-.74 4.17-.61 4.36.24.44 3.53.33 4.63-.05zm48.73-.06c.45-.25.11-.65-.56-.65s-1 .33-.42.61.57.32.98.08zM122.86 244c-.08-2.11-.14-4-.15-4.11s-.09-.26-.19-.26c-.38 0-.78 3.08-.65 5 .19 2.78.42 3.64.89 3.37.17-.12.24-1.37.1-4zm81.13 2.5c0-.86-1.48-3-2-3a2.42 2.42 0 00-1.06.49 8.91 8.91 0 01-2.64 1.42 3 3 0 00-1 .54c-1 .71-2 .72-2 0 0-.38.29-.67 1.18-1.16a9.93 9.93 0 011.3-.66c.07 0 1-.36 2-.79 1.24-.52 1.91-.93 2-1.22s.22-.77.33-1.18.39-1.31.61-2a13.65 13.65 0 00.21-5.12c-.05-.35-.2-1.54-.33-2.66s-.33-2.46-.46-3a26.86 26.86 0 01-.37-2.84 7.4 7.4 0 00-.83-3.23 6.92 6.92 0 01-.69-1.88c0-.85-1.13-3.29-2.31-5a27.06 27.06 0 01-3.09-5.74c-.55-1.23-1.18-2.57-1.41-3-.53-.94-1.52-1.79-1.87-1.59a14 14 0 00-1.46 2.4l-1.18 2.25.27 2.43c.29 2.64 1 4.3 3 7.37a29.78 29.78 0 013 5.42c.36.88.82 1.93 1 2.34a22.5 22.5 0 011.71 7.44 32.22 32.22 0 01-1.21 6.63 3.62 3.62 0 01-.82 1.27 5 5 0 00-1 1.9 5.48 5.48 0 01-.82 1.69c-.49.37-.4.82.19 1a43.71 43.71 0 005.22.15h4.7zm-55.19-.66a19.94 19.94 0 001.72-4.41c.51-1.86 1.14-3 1.75-3.18.26-.08.47-.26.47-.41s-.56-.31-1.87-.39c-2.26-.14-2.82 0-2.82.52 0 .29-.11.39-.34.31a.72.72 0 00-.65.15 7.9 7.9 0 01-1.53.77c-.68.28-1.23.63-1.23.78 0 .39.3.36 1-.11a6.44 6.44 0 011.37-.64 4.27 4.27 0 001.21-.58c.45-.36 1.18-.34 1.32.05.05.13-.21.35-.57.48a8.75 8.75 0 00-1.63.93c-.54.37-1.48.95-2.09 1.28-.79.43-1 .66-.86.83a.44.44 0 01.14.47c-.05.14.16.58.48 1a10.54 10.54 0 011 1.47c.51 1 1.5 1.91 2.1 1.91.23-.07.56-.34 1.03-1.25zm44.2-1.26c.49-1.08.37-1.45-.47-1.45a1.16 1.16 0 00-1.12 1.68c.42.81 1.15.7 1.59-.25zm12.89.09c-.25-.77-.8-1.43-1.17-1.43s-.44.21.25 1.12 1.16 1.04.92.29zm-74-3.13c.48-.64 1.27-1.79 1.74-2.55a14.79 14.79 0 011.39-1.91c.44-.45.55-.89.68-2.66a14.21 14.21 0 011.64-6 12.76 12.76 0 00.84-2.29c0-.24-.32-.51-.82-.7-.79-.3-1.12-1-.63-1.24a13.62 13.62 0 013.85.54c1.72.62 2.83-.74 2.89-3.55a7.49 7.49 0 01.29-2.13 13.24 13.24 0 00.53-2.85c.45-3.8.51-3.5-.72-3.57a3.38 3.38 0 01-1.26-.26c-.34-.3.22-.75 1.25-1a2.85 2.85 0 001.1-.49c.25-.37-.81-1-1.65-1s-1.67-.45-1.48-.9c.11-.27.41-.31 1.53-.22 2.17.18 2.29 0 2.48-3.9.09-1.74.27-4 .42-5 .23-1.68.22-1.91-.18-2.53-.66-1-1.14-1.22-1.71-.75a2.14 2.14 0 00-.62 1 4.81 4.81 0 01-.73 1.39c-.7.94-.58 1.36.39 1.36s1.64.33 1.64.67c0 .17-.54.2-1.71.13a13.92 13.92 0 00-4.42.35c-.53.13-.66.07-.88-.44a12.66 12.66 0 00-3.21-3.41c-.81-.5-1-.78-1.38-2.07-.27-.91-.68-1.12-2.25-1.16a4.28 4.28 0 01-3.26-1.91l-.56-.93-1.24.14c-1.6.17-1.81.08-2.79-1.17-.81-1-.86-1-2.06-1a3.26 3.26 0 01-3.23-1.74 3.49 3.49 0 01.47-3.82c.72-1 .7-1.37-.08-1.57-.28-.07-1.07-.32-1.75-.56l-1.25-.44-.75.5a5.17 5.17 0 01-4.69.1 5.53 5.53 0 00-1.54-.54 3.3 3.3 0 00-1.32.84 5.32 5.32 0 01-1.75 1.09 7.59 7.59 0 00-1.5.67c-1.36.87-3.94 0-4.86-1.59a3.38 3.38 0 01-.46-1.19c0-.8-.59-1-1.91-.6a9.87 9.87 0 01-2.27.35 2.26 2.26 0 01-1.94-.77l-.87-.76-1.19.35c-.88.27-1.3.3-1.64.13a2.68 2.68 0 00-.94-.22 4.24 4.24 0 01-2.88-1.43 5 5 0 011.23-5.35 11.78 11.78 0 012.42-1.49 7.37 7.37 0 002.2-1.49c1.14-1.35 2.15-1.66 5.35-1.66h2.82v-.53c0-.45-.14-.55-1-.68a5.1 5.1 0 01-1.83-.73c-.72-.49-.91-.54-1.42-.33a5.78 5.78 0 01-1.78.25 3.13 3.13 0 01-2.21-.69 3 3 0 01-1.5-2.89c0-.88.1-1.06 1.14-2a5.53 5.53 0 011.94-1.15 9.32 9.32 0 001.82-.66 3.9 3.9 0 012.65-.37c1.14.1 1.71.06 2-.13.83-.63 0-1.62-1.15-1.38-3.14.64-4.43.47-5.52-.76a2.72 2.72 0 00-1-.84c-.37 0-1.76-1.48-2.46-2.62a3.08 3.08 0 01-.32-2.61 6.69 6.69 0 011.23-.79 4.59 4.59 0 001.35-1 4 4 0 013.2-1.16h1.41l.29-1.06a11.09 11.09 0 00.25-2.77 5.17 5.17 0 01.42-2.66c.81-1.64 1.29-2 3-2.07 1.48-.08 1.56-.06 2.35.64s.85.72 2 .51c1.38-.26 1.6-.13 3 1.75a13.71 13.71 0 001.2 1.44c.25.19.26.33 0 .64s-.21.62 0 1.3c.3 1 .21 1 2.41 1 1.17 0 1.69.13 2 .43a28.33 28.33 0 013.22 4.82 2.54 2.54 0 001 1.13 6.11 6.11 0 003.53-1 1.67 1.67 0 00.55-1.86 12.92 12.92 0 00-2.06-1.84c-2.17-1.7-2.45-2.25-1.8-3.59a3.42 3.42 0 01.7-1c.41-.23.31-1.51-.15-1.87a9.41 9.41 0 00-1.47-.8c-2.28-1-3.21-1.75-4-3.14a5 5 0 01-.73-3.15c0-2.25.3-2.82 2-3.8.89-.51 1.33-.92 1.43-1.33.69-2.69 4.36-5.14 7.42-5a5.16 5.16 0 011.61 1c1.16.93 1.23 1 1.76.64a3.58 3.58 0 013.11.08c1.36.64 1.55 1.08 1.56 3.75v2.36l1 .85a3.42 3.42 0 011.26 3.71c-.13.58-.25 1.09-.25 1.14a5.48 5.48 0 00.73.84c1 1.06 1.19 1.92.67 3.62-.46 1.5-.41 1.91.27 2.24a4.25 4.25 0 003-.46 2.17 2.17 0 011-.4c.7 0 1.35-.69 2-2.12s.8-2.85.37-3.57a5.08 5.08 0 00-2.14-1 9.11 9.11 0 01-2.51-1.14 3.14 3.14 0 01-.87-3.87c.42-.74.37-2.25-.14-4.3-.31-1.25-.31-1.26.49-2.64a4.74 4.74 0 012.09-2.13 8.22 8.22 0 001.58-1.11 8.9 8.9 0 013.47-1.93 4.19 4.19 0 013.28.91 2.64 2.64 0 01.59.84c0 .1.46.19 1 .19 2 0 3 1.68 3 5.16a2.11 2.11 0 00.81 2c1.43 1.43 1.64 2.61.81 4.61-.68 1.64-.52 1.89 1.07 1.74a7.6 7.6 0 011.75 0 3.2 3.2 0 011.51 2 1.53 1.53 0 001.94 1.23c.76-.11.92-.22 1-.68a1.55 1.55 0 00-.49-1.17c-1.38-1.5-1.51-2.91-.4-4.3.83-1 .85-1.18.23-2.26a4.62 4.62 0 01-.2-3.53 8.36 8.36 0 011.18-1.81 3.53 3.53 0 013.82-1.39c1.09.35 1.39.31 2-.31a8.09 8.09 0 013.13-1.57 8.75 8.75 0 011.63.43c1.57.53 2.05 1.18 2.47 3.35.29 1.45.35 1.56 1.1 1.84a3.68 3.68 0 012 2.6 5.2 5.2 0 01-1.54 4.83c-.82.74-.74 1.51.26 2.87a3.85 3.85 0 011 2.65c.13 1.78.58 2.4 1.59 2.17.78-.18 1.22-1.1 1.27-2.66a3.48 3.48 0 014-3.51l1.13.14.62-.93a15.36 15.36 0 011.39-1.74 2.4 2.4 0 011.95-.93 2.44 2.44 0 002-1 4.65 4.65 0 012.95-1.45c.57 0 2 1.57 2.61 2.9a2.21 2.21 0 01.1 1.9c-.24.92-.22 1.18.1 1.74a3.17 3.17 0 01-.15 3.18c-.52.89-.52.91-.11 2a3.56 3.56 0 01-.06 3c-.59 1.83-.15 1.93 1.54.33 1.52-1.43 2.12-1.6 3.6-1a2.52 2.52 0 002.12.22 2.26 2.26 0 012.77.8 4.2 4.2 0 011.38 3.07c.1 1.6-.41 2.13-2.38 2.51s-2.19.53-2.6 1.46c-.48 1.09-1.18 1.35-3.91 1.46-2 .09-2.29.14-2.29.49a2 2 0 00.6 1 12.28 12.28 0 011.12 1.33c.75 1.08 1.36 1.06 2.93 0a16.07 16.07 0 012.86-1.54 14.21 14.21 0 001.75-.78 2.89 2.89 0 012.38.21 3.6 3.6 0 01.77.85c.36.61 1.72.63 2.8 0a4 4 0 014.57 1.06 3.17 3.17 0 01.76 2c.16 1.35.14 1.43-.57 2.22a2.35 2.35 0 00-.73 2c0 1.05-.09 1.24-1 2.14a7.33 7.33 0 01-3.79 2.16c-1.3.22-1.12.72.51 1.46 1.28.57 1.44.6 2.46.37a2.52 2.52 0 011.52 0c.54.26 1.43 2.45 1.44 3.54a3.5 3.5 0 00.37 1.46 5.15 5.15 0 010 4c-.8 1.1-4.56 2-5.89 1.33-.83-.39-1.3-.38-1.3 0 0 .19.4.4 1 .55a5.67 5.67 0 012.28 1.36 5.32 5.32 0 002 1.24 18.21 18.21 0 013.4 1c1.08.38 2.45.45 6.44.35 2 0 2.1-.06 2.26-.62.1-.32.11-.63 0-.7a14.52 14.52 0 01-.3-2.51 24.52 24.52 0 00-.51-3.66c-.19-.7-.47-2.09-.63-3.08a64.61 64.61 0 00-3.56-12.54 111.62 111.62 0 00-5.48-11.05c-.43-.64-1-1.65-1.34-2.23a79.27 79.27 0 00-9.34-12.43 94.56 94.56 0 00-8.37-7.46 58.53 58.53 0 00-10.64-6.1c-1.36-.63-2.57-1.23-2.7-1.32a68.61 68.61 0 00-6.81-2.23 75 75 0 00-11.66-2.45 59.21 59.21 0 00-8.57-.75c-1.81 0-4.39-.16-5.75-.23-5.62-.31-13 .48-21.44 2.28a8.66 8.66 0 01-2 .28 1.89 1.89 0 00-1 .28 12.84 12.84 0 01-1.83.67c-1.79.48-5 1.53-6.29 2.06a9.08 9.08 0 01-1.43.5 12.5 12.5 0 00-3.19 1.29 11.84 11.84 0 01-1.76 1 23.31 23.31 0 00-2.52 1.41 9.5 9.5 0 01-1.37.81 32.43 32.43 0 00-4.21 2.76c-.9.65-1.91 1.34-2.23 1.53a71.72 71.72 0 00-6.41 5.71A65.65 65.65 0 0083.06 149c-1.16 2.15-2.12 4-2.12 4.1a5.3 5.3 0 01-.44 1.09 18.82 18.82 0 00-1.43 3.18 3.58 3.58 0 01-.33.87 47.55 47.55 0 00-2 5.77c-.38 1.29-.86 2.87-1.06 3.51a21.26 21.26 0 00-.55 2.23c-.11.59-.31 1.52-.45 2.07a152.22 152.22 0 00-2.28 15.36c-.65 5.8-.64 14.34 0 14.34s2.15-2.08 3.84-5.2a7 7 0 001.02-3.32 4.18 4.18 0 01.71-2.46c.51-.7.56-.95.45-2.22-.16-1.87.28-2.37 2.31-2.58 1.17-.12 1.46-.24 1.87-.76a3.53 3.53 0 012.9-1c.59.13 1.07 1.18 1.07 2.32a1.08 1.08 0 00.58 1.12 1.61 1.61 0 001 .21 1.26 1.26 0 011 .27l.54.4-.53 1.25a10.37 10.37 0 00-.66 3.41c-.14 2.35 0 3.26.5 3.26s1.21-1.52 1.52-2.78a2.89 2.89 0 01.45-1.09 12.44 12.44 0 014.07-.46c.31.17.09 2.76-.26 3.15a4.83 4.83 0 01-1.24.66 4.32 4.32 0 00-1.17.62c-.2.27 0 1 .53 2.13a13.66 13.66 0 01.69 1.78c.4 1.35 1.42 3.21 1.86 3.38a3.94 3.94 0 001.2.15h.82v-2.32l1.17-.59c1.72-.87 1.74-.87 2.12-.59.53.41.41.78-.45 1.37a3.82 3.82 0 00-1.31 1.82c-.62 1.55-.62 2 0 2.66a1.61 1.61 0 002.19.23 4.39 4.39 0 00.84-2.25.88.88 0 011-.76 1.12 1.12 0 01.49.74c.19.8.84 1 2.47.9l1.29-.11v-2.65c0-2.13-.07-2.72-.38-3.08s-.35-.63-.16-1.51a8.24 8.24 0 000-2.55c-.19-1.46-.2-1.48-.9-1.49a5.68 5.68 0 00-3.12.7 2.44 2.44 0 00-.22 1.59 2.26 2.26 0 001.54 2.32c.62.21.61.76 0 1.12s-1 0-2-1.23l-.79-1v-3a20.78 20.78 0 01.16-3.58c.16-.43.49-.64 1.45-.91a4.18 4.18 0 011.64-.21c.51.18.85.94.85 1.9 0 .5.14.79.45.94 1.11.54 1.78-.5 1.39-2.17s-.37-2.31 0-2.5a24.49 24.49 0 013.65-1.48c.63 0 1 2.49.47 3.38a4.57 4.57 0 01-2.22 1.72c-.86 0-1.47 4.08-.91 6a19.63 19.63 0 01.43 3.69c.16 4.59.17 4.47-.57 5.17s-.65 1.1.52 1.1 1.44-.3 1.44-1.08a1.17 1.17 0 01.36-.84c.29-.22.44-.2.82.11a1.32 1.32 0 01.46.84c0 .62.44 1 1.22 1s.81-.19.31-1.06a6.43 6.43 0 01-.45-2.1 6.58 6.58 0 00-.36-1.92 2.83 2.83 0 01.22-2.72l.46-.54-.7-1.13c-.9-1.47-.91-2.63 0-4.88.52-1.33.8-1.76 1.3-2 1.56-.68 1.93.08 2.41 5l.14 1.49-.94.79a2.43 2.43 0 00-1.1 2 4.72 4.72 0 002.37 4.86c.42.24.42.28-.19.75l-.64.49.42 1.49a19.44 19.44 0 001.39 3.32 11.16 11.16 0 011 2.13 1.84 1.84 0 00.37.78c.47.6.9.34 1.28-.78a15.06 15.06 0 01.61-1.47c.52-1 .25-1.54-.84-1.54s-1.13-.08-1.32-2.5c-.07-1-.22-2.36-.32-3a33.22 33.22 0 01.12-6.36c.12-.71.67-1.07 1-.64a9.84 9.84 0 01.22 2.38 11.65 11.65 0 00.41 3.19 16.33 16.33 0 01.52 3.5c.13 2.31.36 3.12.81 2.86a8.58 8.58 0 00.18-2.49c0-7.47.15-9.19 1.1-9.19.4 0 .46.13.43.85 0 .47-.07 2.77-.1 5.1-.06 4.77.06 5.35 1.18 5.56s1.33.56.78 2.16a15.22 15.22 0 00-.64 2.74 6.16 6.16 0 01-.7 2.23 6.24 6.24 0 00-.71 1.82 2.14 2.14 0 01-.38 1c-.48.27-.21 1.15.46 1.46a1.72 1.72 0 011 1.33 13.05 13.05 0 00.63 1.73 9.88 9.88 0 01.56 2.12 12.79 12.79 0 001.24 4.15c.55.77 2.91 8.29 3.8 12.11.11.88.69.65 1.72-.71zm-2.71-17.15c-.38-.34-.09-.69.67-.82a6.07 6.07 0 001.78-.77c1-.65 1.62-.67 1.62-.06.02.92-3.33 2.26-4.05 1.63zm5.51-.33c-.44-.4-.32-1 .2-1 .34 0 .47.14.47.52.02.59-.27.8-.65.42zM129.2 221l-.65-.59-.44.48c-.75.83-1.41.47-1-.54a12.59 12.59 0 00.49-1.44 4.26 4.26 0 013.06-2.85c1.13-.25 1.2-.24 1.94.32a8.68 8.68 0 011.29 1.28l.52.7 1.83-.11a22.86 22.86 0 002.56-.28c.85-.19 1.25 0 1.25.78s-.78 1-2.27.83c-1.2-.12-1.3-.1-1.94.54s-1.08.67-1.42-.14c-.23-.54-1.51-1.26-1.88-1.05a.85.85 0 00-.23.66 1.82 1.82 0 01-3.11 1.41zm.66-1.67a4.83 4.83 0 011.23-.74c.71-.25.59-.7-.22-.79-.47 0-.75.12-1.32.83-.4.49-.67 1-.6 1.07.17.21.18.21.91-.41zm-2.08-4.23c-.62-.43-.32-1 .56-1s1.21.57.58 1-.59.34-1.14-.04zm5.34-.2c-.21-.51.07-.69 1.56-1s2.34-.17 2.34.39c-.02.71-3.61 1.25-3.9.57zm-2.89-3.17c-1.83-.45-1.39-1.31.68-1.31 1 0 1.31.09 1.56.43.63.83-.47 1.27-2.24.84zm5.88-.54c-.86-.49.65-1.24 2.11-1.05.63.08.9.77.41 1.05a4.5 4.5 0 01-2.52-.04zm-10-3.4c-.27-.77.79-5.13 1.57-6.49a6.3 6.3 0 00.43-1.48 9.17 9.17 0 011.13-3.39c.61-.67 1.2-.3 1.2.75 0 .48-.9 4.29-1.67 7.1a4.6 4.6 0 00-.17 1.49c.08.57.16.62 1 .62 1.23 0 1.82.41 1.47 1-.21.36-.45.41-1.86.35a4 4 0 00-1.91.2.75.75 0 01-1.18-.19zm8.44-.1c-1.17-.4-1.35-.56-1-.9s.87-.3 2.48-.3c2.15 0 2.2 0 2.2.5-.03.86-1.99 1.23-3.67.66zm5.85-.29c-.66-.6-.52-.69 1.64-1.12a3 3 0 011.82 0c.78.29.87.92.2 1.25a6.41 6.41 0 01-3.65-.17zm-7.79-6.16c-.94-.11-1-.62-.11-.94 1.37-.48 2.35-.18 2.06.65-.15.41-.31.43-1.94.25zM93 183.67a4.23 4.23 0 00-1.61-.19c-.84 0-1.12 0-1-.23s.94-.55 2.22-.58c.76 0 1.05.08 1.23.39.49.84.16 1.11-.84.61zm-4.41-.93a4.75 4.75 0 00-1.26-.27c-.81-.1-1.16-.25-1.22-.51s.11-.37 1-.37c1.22 0 2 .29 2 .74s-.29.59-.49.41zm-7.84-2.84c-.68-.26-.91-.66-.52-.88a5.21 5.21 0 012.92 0c.43.63-1.37 1.26-2.37.88zm112.16 61.15a3.76 3.76 0 001.46-1.28l.47-.79-.55-1.4a7 7 0 01-.53-3.13 15.45 15.45 0 00-.24-3 4.91 4.91 0 01.15-2.88 4 4 0 000-3 14.54 14.54 0 00-1.49-3.08c-.59-.94-1.54-2.47-2.11-3.4-1.13-1.88-1.36-2.12-2.11-2.33-.91-.24-1.1.48-.68 2.67a15.43 15.43 0 00.5 2.12A4.54 4.54 0 01188 223c0 1 .17 1.49 1.05 3a8 8 0 001.49 2.05 3.52 3.52 0 012 3.42c-.09.39-.23.72-.32.73a3.63 3.63 0 00-.87.52l-.7.52.07 2.08a32.4 32.4 0 01-.18 4.17 9.84 9.84 0 00-.12 2.27c.15.24 1.29-.1 2.52-.71zm-49.29-2.58a27.85 27.85 0 002.93-1.48l1.71-1v-1.49c0-1.19-.08-1.51-.41-1.67a4.7 4.7 0 00-2.3-.32c-.33.11-.32.17 0 .52a.77.77 0 01.24.74c-.14.32-.42.34-2.36.21l-2.21-.14-.23.73c-.31 1 .33 3.85.95 4.21.45.22.28.22 1.71-.31zm62.87-2.26a5.42 5.42 0 01.57-.85 28.28 28.28 0 002.07-6c.55-4.57.44-5.74-.92-9.46-.29-.82-.61-1.82-.7-2.23-.31-1.43-1.53-3.41-2.09-3.39-.35 0-1 1-2.36 3.56-1.12 2.12-1.15 2.21-.86 3.08 1 2.92 1.2 4 1.2 5.11a16.94 16.94 0 00.34 2.88 45.84 45.84 0 01.88 7.65v1.78l.77-.82a10.12 10.12 0 001.13-1.31zm-83.58.73c0-.57-.4-.71-.62-.2s.09 1 .39.85a.84.84 0 00.26-.65zm73.33-2.5c0-1.83-.44-3.41-.9-3.27s-.22 4.51.13 5.11c.53.77.81-.02.8-1.84zM157 236a2.25 2.25 0 00.24-.93 4 4 0 01.37-1.31 3.67 3.67 0 00.29-1.57c-.07-.81-.12-.83-1.51-.56-1 .2-1.58 2.6-1 4.11a.88.88 0 001.61.26zm-4.36-.14a3.45 3.45 0 00.15-1.05 5.78 5.78 0 012.13-4c1-.82 1.3-1 1.81-.89 1.43.26 1.55.25 1.64-.13a.82.82 0 00-.17-.66c-.28-.31-2.92-.75-4.94-.83h-1.3v1.16a3.76 3.76 0 01-1.48 3c-.51.51-.56.71-.43 1.68.19 1.51.66 2.1 1.66 2.1.46-.03.8-.16.89-.37zm-7.83-3.18a7.55 7.55 0 00-2.6-.95c-.57 0-.59.55 0 .84a5.64 5.64 0 002.56.12zm4.71-1.16c.47 0 .84-1.4.73-2.81-.12-1.67-.35-1.88-2.51-2.29-2.48-.47-2.84-.77-2.1-1.8.47-.65.73-2.76.37-3s-.33-.8.06-1.28.4-.37 1-.13.83.21 1.65-.18a4.37 4.37 0 001.09-.63 6.21 6.21 0 011.66-.66c1.66-.5 2.07-.82 1.31-1s-.63-.81.11-1.6c.36-.4.54-.78.44-1s-.2-2.61-.26-5.38-.19-5.68-.27-6.48c-.15-1.32-.21-1.45-.81-1.64-1.08-.34-1.38.15-1.62 2.67a21 21 0 01-.49 3 11 11 0 00-.28 2.49c0 1.75-.3 2.35-.91 1.9-.42-.32-.32-3.56.2-6.71.43-2.55.26-6-.29-6.23a.63.63 0 00-.57.1c-.45.41-1 3-1 5.26a29.68 29.68 0 01-.47 4.25 32.06 32.06 0 00-.51 4c-.07 1.17-.17 2.87-.23 3.77-.12 1.85-.07 1.89 1.42 1.33 1-.36 2.17-.42 2.38-.1s-.14 1.06-.78 1.06a3.91 3.91 0 00-1.45.41c-.45.23-1.1.52-1.45.65-.77.3-.89.55-1.15 2.55-.38 2.87-.5 3.5-.71 3.71a.81.81 0 00-.21.53c0 .33-.19.68-1.1 2.14-.66 1.05-.78 1.64-.41 1.92a.57.57 0 00.54.11 1.36 1.36 0 01.81.08 12.28 12.28 0 002 .34 14.38 14.38 0 012.19.41 2.81 2.81 0 001.13.19 3 3 0 01.45.06zm-30.86-4.84c.38-.23 1.43-2.77 1.77-4.26.22-1 .23-1.37 0-1.55-.67-.62-1.62.65-1.36 1.82.1.48 0 .75-.48 1.2-1.11 1.05-1.08 3.49.03 2.8zm36.25-6.18c.3-.22.46-.5.36-.63-.32-.49-2.95-.16-2.95.36 0 .22 1 .62 1.67.65a1.82 1.82 0 00.88-.37zm-33-3.32c.85-1.74.89-2 .48-3.22-.12-.33 0-.47.28-.55.51-.12 1.11-1.67.89-2.3a.75.75 0 00-1.24-.15 2.92 2.92 0 00-.4 1.11 17.42 17.42 0 01-.59 2.13c-1.33 3.94-1.47 4.78-.74 4.78.29.02.64-.47 1.29-1.79zm80.56-1.07a4.37 4.37 0 00.76-1.41 2.07 2.07 0 01.56-1 3.44 3.44 0 00.74-1.66 30.28 30.28 0 011.72-6.62 22.17 22.17 0 001.73-4.29c.21-.71.2-1 0-1.36a10.11 10.11 0 01-.75-1.67c-.44-1.22-1-2.21-2.93-4.86a25.81 25.81 0 01-2-3.56 11.87 11.87 0 00-1.32-2.41c-.48-.37-.92.06-1.5 1.47a31.57 31.57 0 01-1.55 3 14.37 14.37 0 00-1.27 2.65 22.74 22.74 0 01-.72 2.19c-.58 1.5-.47 1.83.35 1.13 1.78-1.51 3.56 1.24 2.2 3.38a1.82 1.82 0 01-2.17.94c-.42-.1-.62-.32-.72-.84a2.44 2.44 0 00-.71-1.18c-.68-.58-1.1-.35-1.53.83a10.22 10.22 0 01-.72 1.49l-.44.7.85 1c.46.58 1 1.05 1.15 1.05a2.46 2.46 0 001-.73c1.17-1.2 1.54-1.29 2.75-.64.92.48 1.06.65 1.06 1.27 0 .39-.11.77-.24.84a2.63 2.63 0 00-.58.87c-.3.65-.42.72-1.28.72-1.56 0-1.63.48-.37 2.69a14.71 14.71 0 011.06 2.09 9.08 9.08 0 001.08 1.71c.59.81 1.34 1.9 1.67 2.4.71 1.24 1.09 1.2 2.09-.18zm-3.77-4.26l-.89-.55.13-1.4a3.53 3.53 0 01.53-1.85c.23-.24.45-.49.49-.54a5.69 5.69 0 011.41-.22l1.33-.1.07-1.22c.06-1 .18-1.29.68-1.65a1.37 1.37 0 012 0 1 1 0 01-.05 1.69c-.49.42-.5.47-.13 1 .49.76.32 1-1.11 1.47l-1.17.39v1.05c0 .58-.17 1.09-.32 1.13a5.54 5.54 0 00-1 .7 5.46 5.46 0 01-.87.61 7.46 7.46 0 01-1.13-.5zm1.48-1.25c0-.65-.22-1.18-.49-1.18s-.29.86-.07 1.36.53.41.53-.17zm3.79-8.08c-.93-1.23-.31-3.09 1-3.09.72 0 .84.2.92 1.54s-.37 2.29-1 2.28a1.77 1.77 0 01-.95-.72zm-.52-5.23a1 1 0 01-.13-.75c.21-.48.83-.35 1 .22.21.94-.42 1.33-.9.54zm-4.49-1.1a2.55 2.55 0 01-.52-1.37c-.13-1-.1-1.11.32-1.23a1.58 1.58 0 01.93.09c.66.32.91-.15.28-.55a1.64 1.64 0 01-.14-2.21c.3-.22.46-.19.91.2 1.47 1.25 1.63 3 .31 3.59-.69.3-.74.41-.41.89.45.7-.91 1.18-1.71.6zm-43 16.42a6 6 0 01.51-1.38 3.25 3.25 0 00.35-1.08 1.38 1.38 0 00-.37-1.46c-.42-.48-.55-1-.7-2.69-.34-3.95-.67-4.91-1.41-4.1-.23.26-.31.9-.27 2.29.22 8.94.32 9.8 1.16 9.65.29-.03.53-.45.77-1.22zm32-1.31a1.93 1.93 0 00-1.32-1.56 2.88 2.88 0 00-.95-.26c-.21.2.46 1.57 1 2.11s.67.58 1 .24a1.4 1.4 0 00.31-.52zM83 208.52c.28-.92.11-1.25-.6-1.18-.89.1-1.17.65-.68 1.32s1.04.7 1.28-.14zM184.71 207l-1.19-2.32a12.39 12.39 0 01-.74-1.56 2.46 2.46 0 00-.43-.7 3.89 3.89 0 01-.59-1.29c-.17-.83-.53-1.3-1-1.3s-.35.78.73 2.67a13.66 13.66 0 011.06 2.09 4.4 4.4 0 00.65 1.11c.35.48.9 1.26 1.23 1.73.72 1.1.9.83.28-.43zm3.66 1.08c.33-.3.38-1.44.06-1.44-.61 0-1.42.45-1.42.8a1 1 0 00.82.9 1.12 1.12 0 00.54-.23zm-101.19-.54a24.3 24.3 0 01-.3-2.86 7.66 7.66 0 01.51-4.14c.74-2.15.78-2.79.21-3.57-.32-.45-.39-1-.35-2.76a14.83 14.83 0 01.27-2.91 5.75 5.75 0 00.22-1.41c0-.85-.73-1.18-2.06-.93-.75.14-.88.25-.92.79a9.32 9.32 0 01-.18 1.26 9.53 9.53 0 00.14 4.42 14.49 14.49 0 00.56 1.65 5.33 5.33 0 01-.25 1.83 11.81 11.81 0 00-.25 4.09c.25 3.94.33 4.25 1.17 4.72 1.05.61 1.41.56 1.23-.15zm-4-1.77c.25-.19.33-.86.34-2.72a24.21 24.21 0 01.2-3.37c.25-1.19-.07-1.56-1.52-1.77-1.83-.25-2.43-.06-2.94.95-.59 1.19-.59 2.8 0 3.09.4.19.44.4.33 1.87s-.06 1.7.35 2.1.62.43 1.69.27a5.25 5.25 0 001.56-.39zm76.26-.44c.32-.56.33-1 .08-4-.19-2.23-.38-3.41-.57-3.48a1.54 1.54 0 00-.84.16c-.55.25-.56.31-.49 2.59.11 3.46.64 5.84 1.23 5.51a2.83 2.83 0 00.6-.75zm27.09.35c0-.18-.11-.32-.24-.32s-.23.14-.23.32.1.32.23.32.25-.12.25-.29zm10.89 0c.14-.31-.19-.69-.6-.7-.23 0-.46.64-.3.86a.53.53 0 00.91-.17zm-122.28-.16a18 18 0 000-4.87c-.24.05-.38.26-1 1.6a4.05 4.05 0 01-.69 1.12 2.58 2.58 0 00-.36 1.88c.23.53 1.91.75 2.06.26zm30.31-.12a.51.51 0 00-.37-.21.21.21 0 00-.22.21c0 .12.17.21.37.21s.31-.1.23-.22zm85.21-1.08c.68-1.29.87-1.89.6-1.89a5.74 5.74 0 00-1.58 2.43c-.25.92.4.57.99-.55zm-.13-3.58a12.14 12.14 0 011-1.86 11.16 11.16 0 00.93-2.21 22.94 22.94 0 011.5-3.46 22 22 0 001.38-3.11 5.91 5.91 0 011-2.34 12.39 12.39 0 00.93-1.87 4.46 4.46 0 00.49-3c-.21-1.75-.4-2.09-1.28-2.27a1.93 1.93 0 01-1.18-.84c-.6-.88-1.24-1-2-.52s-1.33 2.29-1.68 6.14c-.61 6.74-.77 8.19-1 9.14-.13.53-.36 1.72-.51 2.66a26.92 26.92 0 01-.72 3 8.55 8.55 0 00-.45 2v.65l.59-.49a5.41 5.41 0 001.01-1.63zm-28.7 1.63a4.41 4.41 0 00.52-1.07 17 17 0 011.77-2.82 13.34 13.34 0 001.65-2.69 15.55 15.55 0 011.23-2.49c1.15-2 1.24-2.46.57-2.78s-.86-.27-1.27 1.06c-.35 1.15-.48 1.32-1.27 1.62l-1.23.5a4.61 4.61 0 00-.84 1.92c-.48 1.7-.61 1.89-1.85 2.63-.4.24-.45.48-.4 1.95a13.88 13.88 0 00.19 2.06c.1.43.6.48.94.1zm23-.64a22.4 22.4 0 00-.84-5.63 10.16 10.16 0 01-.52-1.89c-.09-.55-.27-1-.41-1.07s-.28 3.41 0 4.4a15.2 15.2 0 01.27 1.8c.26 2.59.52 3.3 1.2 3.3.27-.01.36-.29.36-.92zm3.05-1.59c.16-.67.4-1.56.52-2a108.65 108.65 0 001.82-15.4 3.41 3.41 0 01.69-2.24 4.51 4.51 0 00.31-4.35c-.33-.89-.5-1.06-1-1.06s-.64.17-1 1a10.87 10.87 0 00-.56 2.23c-.13 1.09-.09 1.24.55 2l.7.79-.57 2a30.79 30.79 0 00-.78 3.46c-.11.82-.48 3.4-.81 5.74s-.59 4.59-.59 5a14.58 14.58 0 01-.22 2.13c-.33 2.56.4 3.1 1 .69zm4.77.64c.18-.32.51-.87.72-1.22a3.16 3.16 0 00.38-1.37c0-.71 0-.71-.47-.34a1.38 1.38 0 00-.47.9 3.59 3.59 0 01-.47 1.34 4.24 4.24 0 00-.46 1c.06.46.49.26.83-.32zm4.74-.89c0-.82-.44-1.09-.79-.49s-.07 1.36.41 1.28c.32-.06.44-.3.44-.8zm-82.73-3.19a9.23 9.23 0 00-.46-3.92c-1-.92-1.94 3.13-1 4.2a1 1 0 001.52-.29zm-31.42 0a4.27 4.27 0 00.08-1.85 8.19 8.19 0 01.13-2.59c.22-.81.22-1.16 0-1.52s-.39-.47-1.88-.34c-2.75.23-3.23.56-3.28 2.28a12.64 12.64 0 00.51 3.84c.39.57 4.09.71 4.5.16zm98.21-2.93c-.07-1.84-.21-4.16-.31-5.15-.17-1.76-.2-1.81-.88-2a9.15 9.15 0 01-1.5-.67 2 2 0 00-1.17-.33 5.39 5.39 0 00-2.14 1.36 19 19 0 002.25 3.92 5.68 5.68 0 01.8 1.31c0 .64 2.51 4.92 2.89 4.93a13.86 13.86 0 00.12-3.39zm13.75 1a11.36 11.36 0 001.55-3.87c-.07-.35-.39.09-1.2 1.64-1.29 2.46-1.55 3.19-1.07 3a1.87 1.87 0 00.78-.79zm-102.34-.21c.25-.12.45-.35.45-.5 0-.38-1-.6-1.33-.3s-.36.85.35 1a2.25 2.25 0 00.59-.22zm10.9-3c0-.39-.14-.55-.53-.6a.62.62 0 00-.67.93.59.59 0 00.67.26c.45-.02.59-.15.59-.57zm114.16-1a11.14 11.14 0 013.52-1 10.34 10.34 0 003.23-1l1.24-.5-.16-1.07a7.77 7.77 0 00-.34-1.53c-.28-.69-2-1-5-1a12.71 12.71 0 01-6.28-1.06 7.6 7.6 0 00-1.87-.62 5.8 5.8 0 01-1.94-1.24c-2-1.66-3.21-2-4.81-1.23-.61.28-1.55.68-2.11.89-1 .37-2.39 1.86-2.39 2.5 0 .86 2.81 5.75 3.5 6.09a14.05 14.05 0 002.74.33 53.86 53.86 0 017.09.84c.42.39 2.47.13 3.66-.36zm-34.82-2.08a33.69 33.69 0 00-.53-3.5 5.34 5.34 0 01-.1-3c.75-3.09.54-4.6-.78-5.76s-1.55-.81-1.55 1a4.24 4.24 0 00.7 2.64 2.68 2.68 0 01.56 2.15c-.09.6 0 1 .12 1.1s.27.51.27 1a56.91 56.91 0 00.83 6.13.25.25 0 00.37.13c.24-.08.28-.66.17-1.85zm15.38-.7c.94-1.85 1.06-2.29.67-2.51s-1.85 2.86-2.05 3.91.42.64 1.44-1.36zm-88.79 1.59c.35-.31.37-.95 0-1.13a.84.84 0 00-1.17.62c.11.81.67 1.06 1.23.55zM81 187.7c.37-.54-.37-1.21-.9-.81a1.12 1.12 0 00-.37.79c0 .42.11.51.51.46a1.3 1.3 0 00.76-.44zm3.75-.92a1.09 1.09 0 00-.22-1.38c-.3-.23-.45-.2-.86.18s-.46.53-.23 1c.33.6 1.12.72 1.34.2zm87.44-3.67c0-1.52-1.83-4.38-2.56-4-.55.31.55 3.36 1.54 4.26.6.54 1.05.41 1.05-.26zm28.67-1.47a3.73 3.73 0 001.5-2.77c.19-1.27 0-2.17-.47-2.17-.81 0-2.57 2.7-2.84 4.39s.51 1.81 1.84.55zm-110.66-45c-.24-.22-.44.11-.24.4s.2.21.28 0a.39.39 0 00-.01-.45zm113.66 149a12 12 0 01-.6-1.54 16.28 16.28 0 00-1.27-3.33 14.49 14.49 0 01-.92-2.34c-.29-.93-.79-2.27-1.09-3a12.19 12.19 0 01-.57-1.42 4.57 4.57 0 01.82-.9 2.48 2.48 0 013.36-.23 4.59 4.59 0 001 .53 10.13 10.13 0 011.64.85 9.8 9.8 0 001.63.85 21.15 21.15 0 013.54 2 7.56 7.56 0 002 .92c1.57.43 1.78.63 1.38 1.33a3.44 3.44 0 01-1.23 1c-.76.39-1 .42-1.4.21-2-1-2-1-2.63-.79a11.11 11.11 0 00-2 1.37l-1.41 1.13.31.93c.62 1.89.61 2-.3 2.7-1.12.94-1.66.88-2.23-.31zm2.53-6.52c.55-.52.68-.79.54-1.12-.23-.53-3-2.09-3.31-1.89s-.19.85.36 2.22c.21.52.43 1.07.48 1.22.22.45 1.22.23 1.96-.47zM89.08 283a2.86 2.86 0 01-.86-1.12 11.51 11.51 0 011.93-2.25c1.06-1.07 2.25-2.32 2.64-2.76s1.08-1.2 1.54-1.67 1.23-1.31 1.73-1.87c1-1.09 1.33-1.2 2.28-.63s3.65 2.41 4.3 2.92c2.25 1.77 2.26 1.79 1.64 2.88-.46.8-1.22.82-2.15 0-2.47-2.06-3.54-2.81-4-2.81-.65 0-1.72 1.22-1.72 2 0 .43.3.76 1.24 1.4 2.25 1.53 2.81 2.09 2.53 2.56a2.87 2.87 0 01-1.47 1.08 24.68 24.68 0 01-3.21-2.61 1.68 1.68 0 00-1.07-.36c-.63 0-.91.24-2.33 2a9.76 9.76 0 01-1.89 2 3.53 3.53 0 01-1.13-.76zm-27.5-69.5s-1.75-.09-3.79-.11h-3.72V211l6.22-.05a46.36 46.36 0 016.84.17c.52.2.64.39.71 1.2 0 .53 0 1-.16 1-.31.15-6.01.27-6.1.19zm181.75-1.5c-.57-.14-.59-.22-.59-1.88a6.07 6.07 0 00-.2-1.9 48.38 48.38 0 00-5.73-.22 31.75 31.75 0 01-5.78-.28 2.14 2.14 0 01-.26-1.19c0-1.46.35-1.6 3.51-1.42 3.52.21 7.8.21 8 0a6.88 6.88 0 00.43-1.8l.25-1.63.88-.19c1.57-.34 1.58-.31 1.5 5.19a31.15 31.15 0 01-.28 5.05 2.23 2.23 0 01-1.73.27zm-189.92-8.16a4.08 4.08 0 010-1.24 1.47 1.47 0 01.86-1.38c2-1.2 5.09-2.86 6.17-3.36a4.16 4.16 0 001.34-.86c.28-.68-.48-.8-4.32-.7a27.21 27.21 0 01-3.87-.05 7 7 0 01-.25-1.24c-.13-1-.11-1.1.43-1.29a7.85 7.85 0 012.08-.12c.83 0 3.74.09 6.48.09 5.45 0 5.7.08 5.7 1.28a1.47 1.47 0 01-1 1.64 18.44 18.44 0 00-2 1.27 6 6 0 01-1.67.92 1.08 1.08 0 00-.68.34 12.18 12.18 0 01-1.69 1.19c-.75.46-1.33.95-1.28 1.09.13.34 2.19.49 5 .34s3.41.06 3.41 1.15a1.49 1.49 0 01-.29 1c-.36.33-5.72.36-5.94 0a.48.48 0 00-.54-.09 37.28 37.28 0 01-4.06.23c-3.01.06-3.78.02-3.88-.21zm179.42-7.71a5.66 5.66 0 01-2.33-2.8 8.07 8.07 0 01.13-5.1c1-1.83 3-2.89 3.93-2.16.69.52.27 1.77-.95 2.84-.93.82-1.08 1.07-1.08 1.82 0 1.24.86 2.94 1.56 3.1 1.31.3 1.79-.38 2.58-3.69.52-2.14.74-2.68 1.35-3.29 1.63-1.63 3-1.9 4.64-.89a4.77 4.77 0 012.34 2.54 4.3 4.3 0 01.28 4.14 3.68 3.68 0 01-2.28 2.46c-1.29.6-1.72.64-1.92.18-.36-.86-.12-1.63.8-2.58a2.32 2.32 0 00.94-2.22c0-1.37-.41-2-1.54-2.22s-1.48.41-2 2.91a12.33 12.33 0 01-1.39 4.06c-.51 1.06-3.37 1.57-5.06.9zm-2-17.22a6.53 6.53 0 01-3.09-5.4 4.19 4.19 0 013.59-4.37c.72-.17 1.62-.42 2-.55a43.25 43.25 0 015.83-1c1.38-.16 1.93-.16 2.18 0a1.87 1.87 0 010 2.08 11.91 11.91 0 01-3.32.78c-.39.06-1.08.19-1.53.3s-1.77.39-2.93.63c-2.59.54-3.18 1-3.16 2.53a2.77 2.77 0 001.45 2.67c.68.22 2.23 0 8.83-1.5 2.06-.46 2.62-.22 2.62 1.09s-.22 1.3-3.11 1.7c-1.19.17-3.12.49-4.29.71-3.13.61-4.32.69-5.05.33zm-168-4.57c-.33-.09-1.07-.29-1.67-.43a7.55 7.55 0 01-4.28-3.16c-.67-1.2-.7-1.5-.35-4.68a7.09 7.09 0 012.51-2.83 5.71 5.71 0 011.91-.72c.83-.1.93-.06 1.06.42a1.93 1.93 0 01-1 1.95 4.19 4.19 0 00-2.39 3.64c0 .79 1.34 2.36 2.33 2.72a10 10 0 005 .57 4.54 4.54 0 002.86-2.46c.41-1.48-.52-3.58-1.69-3.84-.79-.18-1.1.14-1.38 1.47-.21 1-.3 1.11-.9 1.17a1.66 1.66 0 01-1.07-.26c-.39-.32-.39-.45 0-2.62.24-1.26.48-2.32.52-2.36a45.29 45.29 0 016.64.62c1 .32 1 1.15 0 1.94-.68.54-.7.61-.39 1.17a13.12 13.12 0 01.63 1.49c.38 1.1.1 2.19-1 3.73-.6.86-1 1.15-2.62 1.84a6.78 6.78 0 01-4.68.63zm162.66-12.25a7.9 7.9 0 01-.47-1.2c-.24-.79-.21-.86.51-1.49.42-.36 1.22-1 1.79-1.41 1-.74 1-.75.85-1.77s-.84-1.89-1.48-1.7c-.23.06-1.07.36-1.88.66-1.11.41-1.54.48-1.78.3-.46-.35-1-1.92-.72-2.16a10.12 10.12 0 011.86-.71c.9-.28 2.38-.76 3.28-1.08s2.24-.74 3-1 1.66-.56 2.07-.75a3.39 3.39 0 011.48-.28c.7.06.76.14 1.24 1.67a16.61 16.61 0 001.05 2.55 4.62 4.62 0 01.56 2.72c0 1.71 0 1.79-.69 2.3a4.65 4.65 0 01-5 .68c-1.13-.53-1.24-.48-3.45 1.5a15.38 15.38 0 01-1.81 1.5c-.1.04-.25-.13-.37-.33zm8.3-4.83c.74-.66.77-1.78.09-3.4-.45-1.1-.53-1.18-1.26-1.18a4.62 4.62 0 00-2.69.94 1 1 0 00-.16.87 8.21 8.21 0 001.73 3.07 2.07 2.07 0 002.33-.3zm-163.92-1.6a14.09 14.09 0 01-2.7-1 6.86 6.86 0 01-2.77-1.95c-1.12-1.37-1.34-1.89-1.34-3.29a6.48 6.48 0 012.94-5.25c2.12-1.54 5.88-1.44 8.81.24a6.15 6.15 0 013.08 3.59 5.4 5.4 0 01-.5 4.34 4.56 4.56 0 01-2.13 2.23 8.16 8.16 0 01-2.14.95 10.45 10.45 0 01-3.21.14zm3.62-2.54c1-.6 2.24-2.12 2.24-2.75 0-2.65-2.88-5-6.18-5a3.39 3.39 0 00-2.35.63 3.17 3.17 0 00-1.2 4.54c1.28 2.22 5.64 3.7 7.53 2.58zm142.79-9.85a3.84 3.84 0 01-1.15-1.92c0-.17.39-.47.88-.68a12.37 12.37 0 001.46-.73 9.28 9.28 0 011.41-.65 13.61 13.61 0 001.87-.94 12.45 12.45 0 012-1 2.8 2.8 0 001.29-.88c.32-.53.3-.62-.35-1.49a10.33 10.33 0 01-.88-1.34c-.26-.58.22-1.3 1.08-1.63.66-.24.74-.22 1.26.36a2.75 2.75 0 01.55.79 5 5 0 00.64 1.06c.35.49 1 1.57 1.48 2.39s1.18 2 1.6 2.58c.84 1.19.84 1.81 0 2.21a1.29 1.29 0 01-1.77-.72c-1.14-2-2-2.47-3.26-1.58a13.3 13.3 0 01-1.3.79c-.35.18-1.41.8-2.36 1.37-1.62 1-3.92 2.26-4 2.25a4.28 4.28 0 01-.41-.24zM82 140.93a18.43 18.43 0 01-3-2.22 2.44 2.44 0 00-.82-.56 7 7 0 01-1.24-.8 38.21 38.21 0 00-4-2.81c-.74-.45-1.35-1-1.35-1.14 0-.32.27-.64 2.88-3.41 1.83-1.94 3.33-2.68 5.28-2.62a4.47 4.47 0 011.61.26.54.54 0 00.51.1 4.42 4.42 0 011.62.7 10 10 0 013.46 3.39 5.05 5.05 0 01.14 4 37.47 37.47 0 01-4.45 5.4 2.34 2.34 0 01-.64-.29zm1.24-3.81c1.44-1.38 1.83-2.82 1.16-4.27a10.54 10.54 0 00-3.35-2.85 4.16 4.16 0 00-4.91 1.33c-1.24 1.36-1.14 1.81.63 2.89.81.49 2 1.34 2.76 1.88a8.82 8.82 0 002.71 1.7 2.71 2.71 0 00.97-.68zm115.47-12.3c-1.06-.79-1.09-1.1-.28-3.51a6.34 6.34 0 00.46-2.2 3.15 3.15 0 00-2.11-1.49c-.64 0-1.4.75-2.46 2.43-.88 1.38-1.44 1.51-2.45.56-.51-.47-.62-.73-.48-1.11a6.24 6.24 0 011.28-1.88c.19-.15 2.78-3.44 3.52-4.47 2.64-3.7 2.37-3.44 3.39-3.29a4.64 4.64 0 011.75.7c.93.65 1.66 1.11 2.78 1.77 1.54.89 2.64 3.5 2.11 5a3.68 3.68 0 01-3 2.24 3 3 0 00-1.1.27c-.48.22-.64.61-1.14 2.81s-.78 2.87-1.23 2.86a7.07 7.07 0 01-1.07-.69zm3.53-7.34a2.07 2.07 0 001.22-1.87c0-.62-1.37-2.11-2.39-2.58a1.19 1.19 0 00-1.11-.1 5.34 5.34 0 00-1.66 2.58c0 .47 2.27 2.1 2.93 2.1a5.28 5.28 0 00.98-.13zM107 119a8.2 8.2 0 01-.87-1.55 2.75 2.75 0 00-.46-.85 9.52 9.52 0 01-.75-1.16c-.53-1-2.18-3.76-3.15-5.34l-.68-1.08.57-.48c.81-.69 2-.69 2.39 0 .63 1.12 2.7 4.61 3.22 5.42 2.86 4.49 3.13 5.3 1.91 5.81-1.02.37-1.41.23-2.18-.77zm72.59-3.54a6.44 6.44 0 01-3.45-1.76 3 3 0 01-1.12-3.47 7.08 7.08 0 01.56-1.81 17.34 17.34 0 00.92-2.07c.35-.91.95-2.26 1.33-3a9.24 9.24 0 00.7-1.57c0-.39.73-.46 1.54-.16 1.06.4 1.05.79-.15 3.43-2.67 5.87-2.73 7.12-.36 8.15a2.5 2.5 0 001.82.28c.86-.2 1.47-1.06 2.52-3.56.3-.7.64-1.47.76-1.7s.52-1.24.9-2.23a6.15 6.15 0 01.95-1.88 2.93 2.93 0 012 .86c.33.43.11 1.14-1.17 3.67a41.74 41.74 0 00-2 4.71c0 .44-1.67 2-2.29 2.07a7.46 7.46 0 01-3.43-.01zm-62.26-.16c-1-.24-2.69-1.77-2.59-2.27s2.24-.89 2.5-.54a3.07 3.07 0 002 .93c1.83 0 4.1-1.29 4.1-2.32 0-.51-.83-1.26-1.56-1.43a19.77 19.77 0 00-3.11 0c-3.32.17-4.4-.1-5.14-1.3a3.48 3.48 0 01.35-4.45c1.14-1.39 4.82-2.5 6.6-2 1.17.33 2.39 1.38 2.39 2 0 .95-1.68 1.32-2.46.54-.34-.34-.73-.42-1.94-.42-1.41 0-1.57 0-2.31.72-1.2 1.08-1 2.23.43 2.66a9 9 0 003.23-.06c3.33-.39 4.41-.13 5.43 1.31a2.64 2.64 0 01.62 2.3c-.12 1.83-.82 2.61-3.33 3.7a7.35 7.35 0 01-5.18.58zm41-3.83a6.87 6.87 0 01-5.2-4.08 8.84 8.84 0 01.57-6.09 6.49 6.49 0 014.9-3.3 7.9 7.9 0 014.42.49 8.47 8.47 0 013.06 3.09 7.87 7.87 0 01-1 7.69c-.1.12-.32.37-.47.56a9.37 9.37 0 01-1.87 1.12c-1.61.76-2.09.81-4.36.47zm3-2.56c1.62-.84 2.35-2.28 2.36-4.65a5.25 5.25 0 00-1.9-3.87 3.73 3.73 0 00-5.22 1.52 4.67 4.67 0 00-.7 3c0 1.67 0 1.93.61 2.74a3.75 3.75 0 004.93 1.21zm-97.6 146.9a.23.23 0 00-.25-.21c-.14 0-.19.09-.11.21s.19.21.25.21.19-.14.19-.26z"/><path fill="#bf0a30" d="M300.32 0H600v133.29H300.32z"/><path fill="#fff" d="M300.32 133.42H600v133.29H300.32z"/><path fill="#bf0a30" d="M300.32 266.71H600V400H300.32z"/></svg>