<svg xmlns="http://www.w3.org/2000/svg" width="600" height="400" viewbox="0 0 600 400"><path fill="#160b60" d="M0 0h600v400H0z"/><circle cx="109.7" cy="109.7" r="81.39" fill="#fff"/><circle cx="90.04" cy="90.04" r="53.87" fill="#160b60"/><path d="M72.81 143.27a59 59 0 006.47 3.38q-4.45 10.48-8.92 20.95a77.16 77.16 0 0016.26 5.23c-.31 1.76-.63 3.52-.94 5.28a85.8 85.8 0 01-27.32-10.78l14.45-24.06zm27.9 8l.42 28.32a76.14 76.14 0 01-9.61-.54Q93 165 94.44 150.92a49.22 49.22 0 006.27.35zm5.37.09c1.57-.51 4.66-1.31 7.57-2.15 3.51-1 5.65-1.55 7.93-1.24a6.48 6.48 0 015.4 3.54c1.12 2.18.79 5.05-2.12 7.66v.07c3.74-.69 7.37 0 9.12 3.25 1.22 2.28.81 4.84-.82 7.17-1.87 2.69-6 5.78-13.93 7.86a44 44 0 01-10 1.43q-1.61-13.8-3.2-27.59zm8.41 9.43c.77-.19 1.54-.39 2.31-.61 3.74-1.1 5.08-3.21 4.33-5.15s-2.69-2.4-5.49-1.56a16.59 16.59 0 00-2.64.94q.73 3.19 1.49 6.38zm2.84 12.21a19 19 0 003.3-.75c3.81-1.12 6.62-3.52 5.51-6.28s-4.32-2.49-8-1.42c-.85.24-1.71.47-2.57.68l1.8 7.77zm34.81-30a74.17 74.17 0 01-9 8.88l4.16 5.12a79.94 79.94 0 0010.94-11l4 3.3a85.81 85.81 0 01-19 17.16l-15.08-23.77A56 56 0 00140.23 132l4 3.35a62.59 62.59 0 01-8 8l3.66 4.55a68.26 68.26 0 008.35-8.22l3.92 3.36zm-8.76-14.44c.81-1.79 2.13-4.26 3.59-7.11 1.76-3.46 3.25-5.78 5.42-7.16a7.8 7.8 0 016.46-1c3.47.84 5.07 4.34 4.85 7.39h.12c1.57-1.94 3.71-2.69 6.48-2.87 3.43-.21 7.32-.46 8.57-1a81.17 81.17 0 01-2.85 8.92 23.65 23.65 0 01-7.11.11c-3.72-.36-5.11.64-6.63 3.51-.36.69-.73 1.37-1.11 2l9.71 5.28a85.41 85.41 0 01-4.83 7.64l-22.67-15.84zm13.76.73c.47-.85.93-1.7 1.37-2.56 1.66-3.31.93-5.92-1.38-6.77s-4.27.32-5.57 3a16.33 16.33 0 00-1.19 2.69l6.77 3.68zm1.01-26.53a56.19 56.19 0 01-1.27 7.77l-5.24-1.13a49.26 49.26 0 00.53-20.47l5.3-.94a53.74 53.74 0 01.88 8.13l22.93-.81a74.77 74.77 0 01-.27 9.24l-22.86-1.79zM175 67.5l-10.7 4.38a61.07 61.07 0 01-12.59 14.83 48.94 48.94 0 00-2.21-7 68.7 68.7 0 005.05-5.43c1.43-1.77 2.44-3.11 3.69-4.69a.31.31 0 00-.05-.1c-1.95 0-3.81 0-6.07.12q-3.84.12-7.57.6a60.39 60.39 0 00-4.94-6.51 73.74 73.74 0 0120.45.41l10.21-5.79A83.25 83.25 0 01175 67.5z" fill="#160b60"/></svg>
