<?xml version="1.0" encoding="UTF-8" standalone="no"?>
<svg
   xmlns:dc="http://purl.org/dc/elements/1.1/"
   xmlns:cc="http://creativecommons.org/ns#"
   xmlns:rdf="http://www.w3.org/1999/02/22-rdf-syntax-ns#"
   xmlns:svg="http://www.w3.org/2000/svg"
   xmlns="http://www.w3.org/2000/svg"
   id="svg548"
   height="300"
   width="449.99997"
   version="1.0">
  <metadata
     id="metadata39">
    <rdf:RDF>
      <cc:Work
         rdf:about="">
        <dc:format>image/svg+xml</dc:format>
        <dc:type
           rdf:resource="http://purl.org/dc/dcmitype/StillImage" />
        <dc:title></dc:title>
      </cc:Work>
    </rdf:RDF>
  </metadata>
  <defs
     id="defs550" />
  <rect
     style="font-size:12px;fill:#bf0a30;fill-opacity:1;fill-rule:evenodd;stroke-width:1.00000003pt"
     id="rect552"
     y="2.5477191e-014"
     x="0"
     height="300"
     width="449.99997" />
  <path
     d="M 37.499981,148.84088 224.2246,275 412.49999,148.59512 224.2246,24.999999 Z"
     id="path90"
     style="fill:#002868;fill-opacity:1;fill-rule:evenodd;stroke:none;stroke-width:3.14457989;stroke-linecap:butt;stroke-linejoin:miter;stroke-dasharray:none;stroke-opacity:1" />
  <path
     d="M 229.48396,49.981067 223.96299,45.981503 218.45203,50 220.54659,43.508953 215.02499,39.505124 221.84047,39.493001 223.9389,33 226.0565,39.483554 232.87499,39.474488 227.36831,43.49367 Z"
     id="path96"
     style="font-size:12px;fill:#ffffff;fill-opacity:1;fill-rule:evenodd;stroke:none;stroke-width:0.625;stroke-dasharray:none;stroke-dashoffset:5;stroke-opacity:1" />
  <path
     d="M 82.018931,135.60897 86.018502,130.088 82.000001,124.57704 88.491041,126.6716 92.494871,121.15 92.506991,127.96548 99.000006,130.0639 92.516441,132.18151 92.525511,139 88.506332,133.49332 Z"
     id="path104"
     style="font-size:12px;fill:#ffffff;fill-opacity:1;fill-rule:evenodd;stroke:none;stroke-width:0.625;stroke-dasharray:none;stroke-dashoffset:5;stroke-opacity:1" />
  <path
     d="M 109.01893,117.60897 113.0185,112.088 109,106.57704 115.49104,108.6716 119.49487,103.15 119.50699,109.96548 126,112.0639 119.51644,114.18151 119.52551,121 115.50633,115.49332 Z"
     id="path106"
     style="font-size:12px;fill:#ffffff;fill-opacity:1;fill-rule:evenodd;stroke:none;stroke-width:0.625;stroke-dasharray:none;stroke-dashoffset:5;stroke-opacity:1" />
  <path
     d="M 190.01893,64.60897 194.0185,59.088001 190,53.57704 196.49104,55.6716 200.49487,50.15 200.50699,56.96548 207,59.0639 200.51644,61.18151 200.52551,68 196.50633,62.49332 Z"
     id="path108"
     style="font-size:12px;fill:#ffffff;fill-opacity:1;fill-rule:evenodd;stroke:none;stroke-width:0.625;stroke-dasharray:none;stroke-dashoffset:5;stroke-opacity:1" />
  <path
     d="M 163.01893,82.60897 167.0185,77.088 163,71.57704 169.49104,73.671601 173.49487,68.15 173.50699,74.96548 180,77.063901 173.51644,79.18151 173.52551,86 169.50633,80.493321 Z"
     id="path110"
     style="font-size:12px;fill:#ffffff;fill-opacity:1;fill-rule:evenodd;stroke:none;stroke-width:0.625;stroke-dasharray:none;stroke-dashoffset:5;stroke-opacity:1" />
  <path
     d="M 136.01893,99.60897 140.0185,94.088001 136,88.577041 142.49104,90.6716 146.49487,85.150001 146.50699,91.965481 153,94.0639 146.51644,96.18151 146.52551,103 142.50633,97.49332 Z"
     id="path112"
     style="font-size:12px;fill:#ffffff;fill-opacity:1;fill-rule:evenodd;stroke:none;stroke-width:0.625;stroke-dasharray:none;stroke-dashoffset:5;stroke-opacity:1" />
  <path
     d="M 82.018931,135.60897 86.018502,130.088 82.000001,124.57704 88.491041,126.6716 92.494871,121.15 92.506991,127.96548 99.000006,130.0639 92.516441,132.18151 92.525511,139 88.506332,133.49332 Z"
     id="path114"
     style="font-size:12px;fill:#ffffff;fill-opacity:1;fill-rule:evenodd;stroke:none;stroke-width:0.625;stroke-dasharray:none;stroke-dashoffset:5;stroke-opacity:1" />
  <path
     d="M 340.45883,117.60897 336.45926,112.088 340.47776,106.57704 333.98672,108.6716 329.98289,103.15 329.97077,109.96548 323.47776,112.0639 329.96132,114.18151 329.95225,121 333.97144,115.49332 Z"
     id="path116"
     style="font-size:12px;fill:#ffffff;fill-opacity:1;fill-rule:evenodd;stroke:none;stroke-width:0.625;stroke-dasharray:none;stroke-dashoffset:5;stroke-opacity:1" />
  <path
     d="M 259.45883,64.60897 255.45926,59.088001 259.47776,53.57704 252.98672,55.6716 248.98289,50.15 248.97077,56.96548 242.47776,59.0639 248.96132,61.18151 248.95225,68 252.97143,62.49332 Z"
     id="path118"
     style="font-size:12px;fill:#ffffff;fill-opacity:1;fill-rule:evenodd;stroke:none;stroke-width:0.625;stroke-dasharray:none;stroke-dashoffset:5;stroke-opacity:1" />
  <path
     d="M 286.45883,82.60897 282.45926,77.088 286.47776,71.57704 279.98672,73.671601 275.98289,68.15 275.97077,74.96548 269.47776,77.063901 275.96133,79.18151 275.95225,86 279.97143,80.493321 Z"
     id="path120"
     style="font-size:12px;fill:#ffffff;fill-opacity:1;fill-rule:evenodd;stroke:none;stroke-width:0.625;stroke-dasharray:none;stroke-dashoffset:5;stroke-opacity:1" />
  <path
     d="M 313.45883,99.60897 309.45926,94.088001 313.47776,88.577041 306.98673,90.6716 302.98289,85.150001 302.97077,91.965481 296.47776,94.0639 302.96132,96.18151 302.95225,103 306.97143,97.49332 Z"
     id="path122"
     style="font-size:12px;fill:#ffffff;fill-opacity:1;fill-rule:evenodd;stroke:none;stroke-width:0.625;stroke-dasharray:none;stroke-dashoffset:5;stroke-opacity:1" />
  <path
     d="M 367.45883,135.60897 363.45926,130.088 367.47777,124.57704 360.98672,126.6716 356.98289,121.15 356.97077,127.96548 350.47776,130.0639 356.96132,132.18151 356.95225,139 360.97143,133.49332 Z"
     id="path124"
     style="font-size:12px;fill:#ffffff;fill-opacity:1;fill-rule:evenodd;stroke:none;stroke-width:0.625;stroke-dasharray:none;stroke-dashoffset:5;stroke-opacity:1" />
  <path
     d="M 71.981072,144.46603 67.981501,149.987 72.000001,155.49796 65.508961,153.4034 61.505131,158.925 61.493011,152.10952 55.000001,150.0111 61.483561,147.89349 61.474491,141.075 65.493671,146.58168 Z"
     id="path126"
     style="font-size:12px;fill:#ffffff;fill-opacity:1;fill-rule:evenodd;stroke:none;stroke-width:0.625;stroke-dasharray:none;stroke-dashoffset:5;stroke-opacity:1" />
  <path
     d="M 95.981071,161.54103 91.981502,167.062 96.000001,172.57296 89.508961,170.4784 85.505131,176 85.493011,169.18452 79.000002,167.0861 85.483561,164.96849 85.474491,158.15 89.493672,163.65668 Z"
     id="path128"
     style="font-size:12px;fill:#ffffff;fill-opacity:1;fill-rule:evenodd;stroke:none;stroke-width:0.625;stroke-dasharray:none;stroke-dashoffset:5;stroke-opacity:1" />
  <path
     d="M 167.98107,210.54103 163.9815,216.062 168,221.57296 161.50896,219.4784 157.50513,225 157.49301,218.18452 151.00001,216.0861 157.48356,213.96849 157.47449,207.15 161.49367,212.65668 Z"
     id="path130"
     style="font-size:12px;fill:#ffffff;fill-opacity:1;fill-rule:evenodd;stroke:none;stroke-width:0.625;stroke-dasharray:none;stroke-dashoffset:5;stroke-opacity:1" />
  <path
     d="M 143.98107,193.54103 139.9815,199.062 144,204.57296 137.50896,202.4784 133.50513,208 133.49301,201.18452 127,199.0861 133.48357,196.96849 133.47449,190.15 137.49367,195.65668 Z"
     id="path132"
     style="font-size:12px;fill:#ffffff;fill-opacity:1;fill-rule:evenodd;stroke:none;stroke-width:0.625;stroke-dasharray:none;stroke-dashoffset:5;stroke-opacity:1" />
  <path
     d="M 191.98108,226.54103 187.9815,232.062 192,237.57296 185.50896,235.4784 181.50514,241 181.49302,234.18452 175,232.0861 181.48356,229.96849 181.4745,223.15 185.49367,228.65668 Z"
     id="path136"
     style="font-size:12px;fill:#ffffff;fill-opacity:1;fill-rule:evenodd;stroke:none;stroke-width:0.625;stroke-dasharray:none;stroke-dashoffset:5;stroke-opacity:1" />
  <path
     d="M 215.98108,243.54103 211.9815,249.062 216,254.57296 209.50896,252.4784 205.50513,258 205.49302,251.18452 199,249.0861 205.48356,246.96849 205.47449,240.15 209.49367,245.65668 Z"
     id="path138"
     style="font-size:12px;fill:#ffffff;fill-opacity:1;fill-rule:evenodd;stroke:none;stroke-width:0.625;stroke-dasharray:none;stroke-dashoffset:5;stroke-opacity:1" />
  <path
     d="M 377.01893,144.46603 381.0185,149.987 377.00001,155.49796 383.49104,153.4034 387.49487,158.925 387.50699,152.10952 394,150.0111 387.51644,147.89349 387.52551,141.075 383.50633,146.58168 Z"
     id="path140"
     style="font-size:12px;fill:#ffffff;fill-opacity:1;fill-rule:evenodd;stroke:none;stroke-width:0.625;stroke-dasharray:none;stroke-dashoffset:5;stroke-opacity:1" />
  <path
     d="M 353.01893,161.54103 357.0185,167.062 353,172.57296 359.49104,170.4784 363.49487,176 363.50699,169.18452 370,167.0861 363.51644,164.96849 363.52551,158.15 359.50633,163.65668 Z"
     id="path142"
     style="font-size:12px;fill:#ffffff;fill-opacity:1;fill-rule:evenodd;stroke:none;stroke-width:0.625;stroke-dasharray:none;stroke-dashoffset:5;stroke-opacity:1" />
  <path
     d="M 281.01893,210.54103 285.0185,216.062 281,221.57296 287.49104,219.4784 291.49487,225 291.50699,218.18452 298,216.0861 291.51644,213.96849 291.52551,207.15 287.50633,212.65668 Z"
     id="path144"
     style="font-size:12px;fill:#ffffff;fill-opacity:1;fill-rule:evenodd;stroke:none;stroke-width:0.625;stroke-dasharray:none;stroke-dashoffset:5;stroke-opacity:1" />
  <path
     d="M 305.01893,193.54103 309.0185,199.062 305,204.57296 311.49105,202.4784 315.49487,208 315.50699,201.18452 322,199.0861 315.51644,196.96849 315.52551,190.15 311.50633,195.65668 Z"
     id="path146"
     style="font-size:12px;fill:#ffffff;fill-opacity:1;fill-rule:evenodd;stroke:none;stroke-width:0.625;stroke-dasharray:none;stroke-dashoffset:5;stroke-opacity:1" />
  <g
     id="g1350">
    <path
       style="font-size:12px;fill:#ffffff;fill-opacity:1;fill-rule:evenodd;stroke:none;stroke-width:0.625;stroke-dasharray:none;stroke-dashoffset:5;stroke-opacity:1"
       id="path134"
       d="M 119.98107,177.54103 115.9815,183.062 120,188.57296 113.50896,186.4784 109.50513,192 109.49301,185.18452 103,183.0861 109.48356,180.96849 109.47449,174.15 113.49367,179.65668 Z" />
    <path
       style="font-size:12px;fill:#ffffff;fill-opacity:1;fill-rule:evenodd;stroke:none;stroke-width:0.625;stroke-dasharray:none;stroke-dashoffset:5;stroke-opacity:1"
       id="path148"
       d="M 329.01893,177.54103 333.0185,183.062 329,188.57296 335.49105,186.4784 339.49487,192 339.50699,185.18452 346,183.0861 339.51644,180.96849 339.52551,174.15 335.50633,179.65668 Z" />
  </g>
  <path
     d="M 257.01893,226.54103 261.0185,232.062 257,237.57296 263.49104,235.4784 267.49487,241 267.50699,234.18452 274,232.0861 267.51644,229.96849 267.52551,223.15 263.50633,228.65668 Z"
     id="path150"
     style="font-size:12px;fill:#ffffff;fill-opacity:1;fill-rule:evenodd;stroke:none;stroke-width:0.625;stroke-dasharray:none;stroke-dashoffset:5;stroke-opacity:1" />
  <path
     d="M 233.01893,243.54103 237.0185,249.062 233,254.57296 239.49104,252.4784 243.49487,258 243.50699,251.18452 250,249.0861 243.51644,246.96849 243.52551,240.15 239.50633,245.65668 Z"
     id="path152"
     style="font-size:12px;fill:#ffffff;fill-opacity:1;fill-rule:evenodd;stroke:none;stroke-width:0.625;stroke-dasharray:none;stroke-dashoffset:5;stroke-opacity:1" />
  <path
     d="M 83.999976,149.12835 224.41689,244 365.99999,148.94354 224.41689,56 Z"
     id="path92"
     style="fill:#ffffff;fill-opacity:1;fill-rule:evenodd;stroke:none;stroke-width:3.14458013;stroke-linecap:butt;stroke-linejoin:miter;stroke-dasharray:none;stroke-opacity:1" />
  <g
     id="text43"
     style="font-style:normal;font-variant:normal;font-weight:normal;font-stretch:normal;font-size:55.08210373px;line-height:1.25;font-family:Arial;-inkscape-font-specification:Arial;letter-spacing:0px;word-spacing:0px;fill:#002868;fill-opacity:1;stroke:none;stroke-width:0.57377195"
     transform="scale(0.85108506,1.1749707)"
     aria-label="ARKANSAS">
    <path
       id="path1386"
       style="font-style:normal;font-variant:normal;font-weight:normal;font-stretch:normal;font-size:55.08210373px;font-family:'DIN 1451 Engschrift';-inkscape-font-specification:'DIN 1451 Engschrift, Normal';font-variant-ligatures:normal;font-variant-caps:normal;font-variant-numeric:normal;font-feature-settings:normal;text-align:start;writing-mode:lr-tb;text-anchor:start;fill:#002868;fill-opacity:1;stroke-width:0.57377195"
       d="M 177.61752,146.03264 185.82475,109.29288 H 190.39657 L 198.6038,146.03264 H 192.98543 L 191.49821,138.1559 H 184.66803 L 183.18081,146.03264 Z M 185.60443,133.25359 H 190.56182 L 188.08312,119.86864 Z" />
    <path
       id="path1388"
       style="font-style:normal;font-variant:normal;font-weight:normal;font-stretch:normal;font-size:55.08210373px;font-family:'DIN 1451 Engschrift';-inkscape-font-specification:'DIN 1451 Engschrift, Normal';font-variant-ligatures:normal;font-variant-caps:normal;font-variant-numeric:normal;font-feature-settings:normal;text-align:start;writing-mode:lr-tb;text-anchor:start;fill:#002868;fill-opacity:1;stroke-width:0.57377195"
       d="M 201.24258,146.03264 V 109.29288 H 210.44129 Q 214.07671,109.29288 216.5554,111.82665 219.0341,114.36043 219.0341,117.99585 V 121.41094 Q 219.0341,126.47849 214.73769,129.17751 L 220.30099,146.03264 H 214.73769 L 209.7803,130.27916 H 206.47538 V 146.03264 Z M 212.91998,124.49554 Q 213.41572,123.88963 213.58097,123.11848 213.8013,122.34733 213.8013,121.41094 V 117.99585 Q 213.8013,116.2883 212.8649,115.24174 211.92851,114.19518 210.22096,114.19518 H 206.47538 V 125.65226 H 210.16588 Q 211.81834,125.65226 212.91998,124.49554 Z" />
    <path
       id="path1390"
       style="font-style:normal;font-variant:normal;font-weight:normal;font-stretch:normal;font-size:55.08210373px;font-family:'DIN 1451 Engschrift';-inkscape-font-specification:'DIN 1451 Engschrift, Normal';font-variant-ligatures:normal;font-variant-caps:normal;font-variant-numeric:normal;font-feature-settings:normal;text-align:start;writing-mode:lr-tb;text-anchor:start;fill:#002868;fill-opacity:1;stroke-width:0.57377195"
       d="M 238.09853,146.03264 232.20475,129.61817 229.28539,135.0713 V 146.03264 H 224.10768 V 109.29288 H 229.34048 V 126.20308 L 237.21722,109.29288 H 242.39494 L 235.23426,123.94471 243.66182,146.03264 Z" />
    <path
       id="path1392"
       style="font-style:normal;font-variant:normal;font-weight:normal;font-stretch:normal;font-size:55.08210373px;font-family:'DIN 1451 Engschrift';-inkscape-font-specification:'DIN 1451 Engschrift, Normal';font-variant-ligatures:normal;font-variant-caps:normal;font-variant-numeric:normal;font-feature-settings:normal;text-align:start;writing-mode:lr-tb;text-anchor:start;fill:#002868;fill-opacity:1;stroke-width:0.57377195"
       d="M 244.53367,146.03264 252.74091,109.29288 H 257.31272 L 265.51996,146.03264 H 259.90158 L 258.41436,138.1559 H 251.58418 L 250.09697,146.03264 Z M 252.52058,133.25359 H 257.47797 L 254.99927,119.86864 Z" />
    <path
       id="path1394"
       style="font-style:normal;font-variant:normal;font-weight:normal;font-stretch:normal;font-size:55.08210373px;font-family:'DIN 1451 Engschrift';-inkscape-font-specification:'DIN 1451 Engschrift, Normal';font-variant-ligatures:normal;font-variant-caps:normal;font-variant-numeric:normal;font-feature-settings:normal;text-align:start;writing-mode:lr-tb;text-anchor:start;fill:#002868;fill-opacity:1;stroke-width:0.57377195"
       d="M 281.65384,146.03264 273.44661,123.72439 V 146.03264 H 268.21381 V 109.29288 H 273.1712 L 281.32335,131.54605 V 109.29288 H 286.55615 V 146.03264 Z" />
    <path
       id="path1396"
       style="font-style:normal;font-variant:normal;font-weight:normal;font-stretch:normal;font-size:55.08210373px;font-family:'DIN 1451 Engschrift';-inkscape-font-specification:'DIN 1451 Engschrift, Normal';font-variant-ligatures:normal;font-variant-caps:normal;font-variant-numeric:normal;font-feature-settings:normal;text-align:start;writing-mode:lr-tb;text-anchor:start;fill:#002868;fill-opacity:1;stroke-width:0.57377195"
       d="M 296.16798,136.88901 Q 296.16798,137.93557 296.22306,138.48639 296.33322,138.98213 297.04929,140.08377 297.82044,141.13033 299.8034,141.13033 300.90504,141.13033 301.84143,140.68967 302.77783,140.19394 303.21849,139.47787 303.65914,138.70672 303.65914,137.93557 303.71422,137.10934 303.71422,136.83393 V 134.24507 Q 303.71422,133.14343 303.60406,132.59261 303.54898,132.04178 302.94308,131.43588 302.39225,130.7749 301.29061,130.27916 300.24405,129.72834 297.54503,128.73686 294.90109,127.74538 293.08338,125.65226 291.26567,123.50406 291.26567,119.81356 V 118.16109 Q 291.26567,114.41551 293.74436,111.71649 296.27814,108.96238 300.02372,108.96238 303.82439,108.96238 306.35817,111.66141 308.94702,114.30535 308.94702,118.16109 V 119.81356 H 303.71422 V 118.16109 Q 303.71422,117.38994 303.60406,116.83912 303.4939,116.2883 302.72275,115.24174 301.9516,114.19518 300.13389,114.19518 298.53651,114.19518 297.48995,115.35191 296.49847,116.45355 296.49847,118.16109 V 119.81356 Q 296.49847,120.86012 296.55355,121.35586 296.66372,121.79651 297.15945,122.40242 297.65519,123.00832 298.59159,123.44898 299.52798,123.88963 302.17193,124.88111 304.87095,125.81751 306.90899,128.02079 308.94702,130.16899 308.94702,133.91458 V 136.88901 Q 308.94702,138.70672 308.56145,140.08377 308.23096,141.46082 306.35817,143.93952 304.48537,146.36313 299.91356,146.36313 295.1765,146.36313 293.0283,143.27853 290.88009,140.13885 290.88009,136.88901 V 135.56704 H 296.16798 Z" />
    <path
       id="path1398"
       style="font-style:normal;font-variant:normal;font-weight:normal;font-stretch:normal;font-size:55.08210373px;font-family:'DIN 1451 Engschrift';-inkscape-font-specification:'DIN 1451 Engschrift, Normal';font-variant-ligatures:normal;font-variant-caps:normal;font-variant-numeric:normal;font-feature-settings:normal;text-align:start;writing-mode:lr-tb;text-anchor:start;fill:#002868;fill-opacity:1;stroke-width:0.57377195"
       d="M 310.80432,146.03264 319.01155,109.29288 H 323.58337 L 331.7906,146.03264 H 326.17223 L 324.68501,138.1559 H 317.85483 L 316.36761,146.03264 Z M 318.79122,133.25359 H 323.74861 L 321.26992,119.86864 Z" />
    <path
       id="path1400"
       style="font-style:normal;font-variant:normal;font-weight:normal;font-stretch:normal;font-size:55.08210373px;font-family:'DIN 1451 Engschrift';-inkscape-font-specification:'DIN 1451 Engschrift, Normal';font-variant-ligatures:normal;font-variant-caps:normal;font-variant-numeric:normal;font-feature-settings:normal;text-align:start;writing-mode:lr-tb;text-anchor:start;fill:#002868;fill-opacity:1;stroke-width:0.57377195"
       d="M 338.34021,136.88901 Q 338.34021,137.93557 338.39529,138.48639 338.50546,138.98213 339.22152,140.08377 339.99267,141.13033 341.97563,141.13033 343.07727,141.13033 344.01367,140.68967 344.95006,140.19394 345.39072,139.47787 345.83138,138.70672 345.83138,137.93557 345.88646,137.10934 345.88646,136.83393 V 134.24507 Q 345.88646,133.14343 345.77629,132.59261 345.72121,132.04178 345.11531,131.43588 344.56449,130.7749 343.46285,130.27916 342.41629,129.72834 339.71726,128.73686 337.07332,127.74538 335.25561,125.65226 333.4379,123.50406 333.4379,119.81356 V 118.16109 Q 333.4379,114.41551 335.9166,111.71649 338.45037,108.96238 342.19596,108.96238 345.99662,108.96238 348.5304,111.66141 351.11926,114.30535 351.11926,118.16109 V 119.81356 H 345.88646 V 118.16109 Q 345.88646,117.38994 345.77629,116.83912 345.66613,116.2883 344.89498,115.24174 344.12383,114.19518 342.30612,114.19518 340.70874,114.19518 339.66218,115.35191 338.6707,116.45355 338.6707,118.16109 V 119.81356 Q 338.6707,120.86012 338.72578,121.35586 338.83595,121.79651 339.33169,122.40242 339.82743,123.00832 340.76382,123.44898 341.70022,123.88963 344.34416,124.88111 347.04318,125.81751 349.08122,128.02079 351.11926,130.16899 351.11926,133.91458 V 136.88901 Q 351.11926,138.70672 350.73368,140.08377 350.40319,141.46082 348.5304,143.93952 346.65761,146.36313 342.08579,146.36313 337.34873,146.36313 335.20053,143.27853 333.05233,140.13885 333.05233,136.88901 V 135.56704 H 338.34021 Z" />
  </g>
  <path
     style="font-size:12px;fill:#002868;fill-opacity:1;fill-rule:evenodd;stroke:none;stroke-width:0.62500006;stroke-dasharray:none;stroke-dashoffset:5;stroke-opacity:1"
     id="polygon612"
     d="M 234.96407,112.08548 224.99957,105.00437 215.02362,112.07913 218.83349,100.62677 208.86785,93.538123 221.187,93.541287 225.00386,82.085485 228.80753,93.53981 241.13212,93.548384 231.1639,100.62438 Z" />
  <path
     d="M 211.57272,206.24614 201.60824,199.16502 191.63228,206.23978 195.44215,194.78742 185.4765,187.69877 197.79566,187.70193 201.61252,176.24613 205.41618,187.70047 217.74078,187.70903 207.77256,194.78504 Z"
     id="path188"
     style="font-size:12px;fill:#002868;fill-opacity:1;fill-rule:evenodd;stroke:none;stroke-width:0.62500006;stroke-dasharray:none;stroke-dashoffset:5;stroke-opacity:1" />
  <path
     style="font-size:12px;fill:#002868;fill-opacity:1;fill-rule:evenodd;stroke:none;stroke-width:0.62500006;stroke-dasharray:none;stroke-dashoffset:5;stroke-opacity:1"
     id="path198"
     d="M 238.42724,206.24614 248.39175,199.16502 258.36769,206.23978 254.55782,194.78742 264.52347,187.69877 252.20432,187.70193 248.38745,176.24613 244.5838,187.70047 232.2592,187.70903 242.22741,194.78504 Z" />
</svg>
