<svg xmlns="http://www.w3.org/2000/svg" width="600" height="392" viewBox="0 0 600 392"><title>flag-montana-dimensions</title><path d="M28,362.83h541.5V1.83H28Z" fill="#fff" stroke="#50d6cc" stroke-linecap="round" stroke-linejoin="round" stroke-width="0.9"/><path d="M391.23,211.61c-.78-8.42-1-16.14-2.72-23.72-1.13-5.27-3.79-9.9-5.79-14.89-.47-1.15-10.27-16.1-11.13-16.87,0,0-16.28-18-24.9-21.23-4-2.23-18.5-9.09-22.81-9.89-12.61-3-16.44-2.24-22.82-1.92-.09,0-17.6-1.57-38.94,9.1-1.15.29-12.51,7.55-14.52,9.26,0,0-16.6,15.17-20.44,22.29-6.66,11.85-12.31,25-13.4,38.83.19.77,0,12.39.47,19C215.34,235,221,247.69,227.54,259a144.91,144.91,0,0,0,22.15,23.9c5.74,2.51,11.09,5.69,16.73,8.29,5.11,3,19.64,7.29,26.22,7.63,0,0,16.38,1,24.42.27,0,0,16.72-3.49,27.32-10.45,2.69-1.43,6-5.17,8.06-4.77,0-.18,3.73,0,4.69-1.71-.1-.67-.86-1.05-1.23-1.53,7.18-4,11.32-10.7,17-16.52h.28a115,115,0,0,0,12.71-23C389,232,391.55,221.56,391.23,211.61ZM390,208.94h0s-6.62-.3-7.41.33-8.94.8-11.81,0-17.71.64-21.07.48-8.77,1.6-14.36,1.28-21.22,0-22.34.63-16.51.23-16.51.23c-1.78-1.51-3.54-3.15-5.73-3.73-.76-1.64-1.13-3.08-3-3.94-2-.86-4.89-.78-5-3.84l-.67-.87c.3-.75,2.2.3,2.58-.85,1.63-.47,3.16.87,4.79,1.26,3.73-.55,8.25-2.66,11.77-.15,2.2.38,4.51-1.24,7.09-1.13,7,1.35,14.28-1.2,21.65-.33,3.63.69,7.28-1.32,10.91.42,6.33-.56,12.94-.24,20-1,4.89-.27,10.15,1.28,15.14.05l8.42.21c.39,0,.67.58,1.06.11a23.25,23.25,0,0,0,3.64-.28C389.5,201.45,389.82,205.19,390,208.94Zm-87.87,4c1,.16,9.58-.15,11-.31s4.79-.64,6.38-.8,10.22-.32,12.61-.15,4.63,0,6.7,0,9.59-1,10.86-1.13,15.8-.64,18-.79a14.3,14.3,0,0,1,6.37,1c1.12.65,8.31-.16,9.74-.8s5.75-.15,5.75-.15a1.24,1.24,0,0,1-.48,1.43c-.8.49-5.27.64-6.86,1.11s-6.06,1.44-8,.81-5.28-.81-8.46-.81a9.09,9.09,0,0,0-6.22,2.4c-.8.81-8-.16-8.94-.63s-10.37.47-13.56.15-4.64,1.91-5.91,2.88-10.38-1-12.61-1.59-8.46.15-9.73,1.26-4.31.33-4.95,0-2.55-1.9-3.66-2.38a11.76,11.76,0,0,1-2.4-1.6h0C298.08,212.79,301.22,212.8,302.15,212.94Zm-47.63,21.35h1.72a1.51,1.51,0,0,0,.57,1.11l-2.3,0A1.68,1.68,0,0,0,254.52,234.29Zm3.17,1.61c.32.13.64.23.94.32.47-.2.76.29,1.05.48-.87,1.63-3.26.47-5,1a3.8,3.8,0,0,1-1.54-.67,2.39,2.39,0,0,0,1-.93Zm-.79-2.54-2.68.21c-1-1.56-3.89-2.28-1.8-4.45.3-.85,0-2.48,1.45-2.39,1.43-.38,2.49.48,3.64,1.06.85,1.35.27,3.46,1.13,4.8A8.33,8.33,0,0,0,256.9,233.36Zm-3.59-7.89c0,.57-.67.37-1,.57a.3.3,0,0,1,.1-.39c-1-1.05-2.4-.1-3.54-.2h-1.06c.19-.38-.38-.58-.57-.87-.77.77-1.15.2-2,.86-.39.38-.87,0-1.25-.19l-5.84.18v.38c-1.34-1.15-2.87-.59-4.5-1.26,0-.67-.86-.09-1.14-.47a22,22,0,0,1-9.39,1.11c-.48-.28-.38-1.25-.09-1.72a14.21,14.21,0,0,1,7.76-1.51l3.11.24c1.75,1.09,4.5.68,6.36,1.33v-.29H241c-.19.29.19.49.29.67a24.14,24.14,0,0,0,4.78-.23l1.65-.73c.52.54.86,1.3,1.89,1.37,1.82.29,3.83-.47,5.46-.75l2.86.16c.67.24,1.64-.44,2.51-.15,1.5-.33,3.08.23,4.1-.79l1.73.14c3.35-1.43,5.84,2,9.19.4h0l3.31-.19a21.5,21.5,0,0,0,6.65,1.09c2.19,1.05,5.55.3,7.75,1.75-1.16.85-3.83,1-5.37,1.12-3.83-2.31-7.85,1-12.16-.9-3.55,1.15-7.18-.68-10.92.84-1.83,1.14-4.69-2.79-7.08-.69C256.57,225.28,254.55,225.18,253.31,225.47Zm-7.94,8.25,1.52.05a.91.91,0,0,0-.13.69,2.11,2.11,0,0,0,.19.89l-1.86-.08h0a1.19,1.19,0,0,0,.33-.81A2.25,2.25,0,0,0,245.37,233.72Zm2,2.26h0a5,5,0,0,0,1.59,1.07,43.73,43.73,0,0,1-6.12-.68c.42-.49,1.16-.55,1.74-.78Zm0-2.49-2.33-.57c-1.1-1.82-4-2.95-1.51-5.17.95-.28,1.63-1.23,2.78-1.22v.38c.57.18,1.34-.57,2,0,1.24,1.44-.88,3.83,1,5.17,0,.48.1,1.15-.48,1.15-.22.28-1,.14-1.49.26Zm-15,1.55h0l3.34.31a9.86,9.86,0,0,1,2.41,0c.39.76,1.25,1.52.67,2.57-2.87,1.81-5.46-1-8.62.17-.57-.29-1.14-1-.66-1.63.65-.64,1.95-.87,2.86-1.38Zm2.18-.33-1.75,0h0a1.63,1.63,0,0,0,.6-1.26l1.13-.12C234.11,233.65,234,234.05,234.56,234.71Zm-1.37-1.85a8.08,8.08,0,0,1-2.31-2.08,4.36,4.36,0,0,1,2.11-3.92c1-1.53,4.42-1.8,4.79.88a4.32,4.32,0,0,1,.57,3.54c-.25,1.1-1.93,1.38-3.08,1.78Zm-6-23c.67-1.92,3.26-1.42,3.26-3.72a2,2,0,0,1,.9-.46l1.56,1.17h0c.83.69,1.28,1.9,2,2.73,1.15.77,2.88-.27,3.07,1.74-1.26,2.58,1.89,5.26-1.17,6.89-3.16-1.46-4.71,3.23-7.48.65-1.14-.11-2.48.17-3.24-.88s-2.11-2.59-1.53-4.12C224.8,212.08,227.86,211.9,227.2,209.89Zm11,11.24a1.71,1.71,0,0,0,1.52.86v.67c-2.1-.68-5.55.27-6.7-2.61,1.16-1.9,3.16.49,4.32-1.51.68-.48,1.15.1,1.25.67A1.8,1.8,0,0,0,238.18,221.13Zm34.31-8.71c-.38-.1-.38-.77-.19-1,.1.18.48,0,.39.29h0C272.68,211.93,272.78,212.31,272.49,212.42Zm-.31,4.3c2.59,1.25.28,4.6,3.53,4.51h0c-.48,1.34-2.21.86-3.07,1.24-1.72-.29-2.87-1.16-4.69-.88-.28-1.92,2.3-1.23,3.17-2.58Zm-1.43,0A2.57,2.57,0,0,1,269,219a2.64,2.64,0,0,0-1.29.31h0l-3.33.5a2.31,2.31,0,0,0-.73-.54c-1.15.19-1.63-.76-1.82-1.72.3-2.79-3.72-4.71-.55-7.19,3.26-.09,2.51-6.79,6.23-3.81a37.63,37.63,0,0,0,3.25,4.12C270.66,212.8,273.43,215,270.75,216.72Zm-4.38,5-1.45.06a3.85,3.85,0,0,0-.17-1.34l2.26-.07C267.29,221.21,266.79,221.47,266.37,221.71Zm-2.53.07a5.59,5.59,0,0,1-2.87.46c.86-.56.48-1.62.86-2.38C262.31,220.71,264.41,220.05,263.84,221.78Zm-7.77-.5a2.23,2.23,0,0,0-.17-.77c-.29-.29-.09-1-.67-1a7.89,7.89,0,0,0-.66-3.26,8,8,0,0,1,2.11-2.59l2.69-.37c1.23,2.3,1.8,5.56,1,7.76a14.37,14.37,0,0,1-2.14.92Zm1.57,1.09a1.32,1.32,0,0,0-.31.73l-1.64-.28a2.94,2.94,0,0,0,.33-.8Zm-18.39-7.47c.67-.57,1.25-1.34,2-1.52,1.71.19,2.19,2.39,3.82,2.79h0a1.76,1.76,0,0,1-1.25,2.1c-.68,1,.76,2.21-.49,3.06-.86.48-1.81-.39-2.2.86-.18-1.15-2.87-.4-1.72-2.21A23.56,23.56,0,0,1,239.25,214.9Zm5.64,6.44c.67-.86-.67-2.1.58-2.77,1.05.76-.87,3.15.94,3.82a1.74,1.74,0,0,1,.64.12h0l-1.26.27a14.67,14.67,0,0,1-3.78.26C242.3,221.71,244.49,223,244.89,221.34Zm1.72-.47a1.75,1.75,0,0,0,0-2.3c-1.05-.39,0-1.82-.27-2.87.86-.77,1.54-1.91,2.68-1.71,1.72.66,4.4,1.73,5.07,3.74h0c.28,1.83-3.36,1.24-1.74,3.63-1,.77-2.58.57-3.45,1.35C248.43,221.83,246.89,221.72,246.61,220.87Zm5.23,2.24a2.08,2.08,0,0,0,1.66-1.37c.29-.76-.67-1.62.58-1.91.86.1.37,1.34.95,1.91-.71,1.19-1.81,1.38-3.19,1.37a2.26,2.26,0,0,1-.93,0Zm6.86-10.83c-1.54.09-3.36.09-4.13,1.81-.19.38-.29.86-.67,1-2-.68-3.63-2.79-5.84-2.22-1.24.28-1.92,2.49-3.35,1.91-1-1.15-1.34-2.11-2.87-2.51a5.81,5.81,0,0,0-2.78,1.06c.48-.86-.09-1.73-.18-2.58.19-.58.86.47.86-.29a185.66,185.66,0,0,1,20.39-.32h0C259.85,211.14,259.18,211.42,258.7,212.28Zm-25.47,9.35h0l-2-.21c.26-.54.32-1.12,1.3-1a3.48,3.48,0,0,0,.69,1.2Zm42.89,1,1-1c.29-.3.38.57.28,1h0Zm2.38-1.21c-.28-2.4-5.08-.21-4.11-3.85-.47-1-2.49-1.35-1.24-2.69-.85-1.05.78-2.09,1.06-3,.68-1.52-.66-3.06.59-4.68.19-.48,1-.38,1.34-.09a1.62,1.62,0,0,0,2.11.48c.86-.86,1.83-1.53,2.87-.48.29,1.16,1.43,1.83,2.1,2.7h0c.38,1.82,2.77,3.93.65,5.75v3.26C282.14,219.72,279.36,219.43,278.5,221.44Zm-17.13-38h.57c.16-.28.33-.56.51-.82h0l.73,1.52c.84,1.86,2,3.84,3.05,5.73,2.59,2.51.75,7.19,4.1,9.13a7.79,7.79,0,0,1,6.3,5.18c-3.54-.68-4.78-5.08-8.6-5.19-1.15-.86-.48-2.49-.95-3.65.12-6-7.73-8.25-8.48-14,.2-5.07-5.92-7.39-8.68-11.33-.87-.68-.93-1.82-1.23-2.76l-.77-2.18,1.25-1.47c4.21,2.22,1,7.47,5.14,9.88,3.34,2.21,4.2,6,6.78,8.74C260.89,182.79,261.27,183.08,261.37,183.46ZM248,169.14c2.39,4.13,8,6.64,9.45,11.33-.59,6.62,7.83,8.17,8.2,14.2.66,1.72-.11,4.21,2.08,5.37,3.74-.56,4.88,5,8.22,5,.58,0,1.06,1.62,1.92.87a.52.52,0,0,1,.19.38c-1.44.86-2.11-1.73-3.64-.2a44.85,44.85,0,0,0-5.64-1.93c-4.78-4.12-11-4.72-16.55-6.74a17.08,17.08,0,0,0-2.37-5.57c-4.3-3.55-3.33-9.29-6.87-13.13a7.11,7.11,0,0,1-.57-4.7v-2.45l4.7-5.56h0l.51,1.57A3.91,3.91,0,0,1,248,169.14Zm34.17,37.46a2.66,2.66,0,0,0-3-1.16l-.1.1c-1.8-3.25-4.57-7.19-8.59-7.59-1.62-1.63-1.14-4.12-1.9-6-1.65-2.59-2.87-5.39-4.42-8l-1-2.3a20.67,20.67,0,0,1,6.53-4.72l1.61,1.35a3.2,3.2,0,0,1,1.44,1.58c-.11,6,4.38,10.16,6.66,15.24a5.79,5.79,0,0,0,.32,2.64l.72,1.48c3,1.26,1.71,6.62,5.83,5.48.57.39,1.43.67,2.1,1.06.67,2,2.09,4.21,4.59,4.7,1.62,1.06,2.57,2,4.2,3.09-2.92-.46-6.33-1.65-9.55-1.62l-2.22-.15A46.83,46.83,0,0,0,282.17,206.6Zm-11.43-30.19c.69-.35,1.37-.7,2-1.06,3.82,2,1.71,6.72,3.8,9.88.38,2.79,3.16,4.12,3.53,6.9.38.2,0,.49-.1.67-2.86-3.36-5.33-7-5.71-11.41-.33-1.43-.81-3.16-2.21-4h0Zm77.4,3.47a3.67,3.67,0,0,0,1.81,0c3.35,2.21,6.9-1.51,9.38,2a1.78,1.78,0,0,1-.87,1.43,5.16,5.16,0,0,1-1.23,0,3.76,3.76,0,0,1-4.12,0c-.48.19-1.34-.57-1.72,0l-.86-.2c-.1-.09-1.9-.86-1.9-.86-.48-.19-1,.47-1.35-.38,0,.38-.57,0-.57,0-.29.09-1,0-.86.56-.68,1.24-1.24.1-1.33.1l-.86.18c-.1-.67-1.83-.19-2.11-.87-.38-1-3.35-1.25-3.45-1.34.1-.1-1.43-.11-1.33-.2s-4.59.65-4.88.84c-1.34-1-5.27.93-4.79,1.32-1.63,2.1-4.5,2.09-7.09,2.28-2.67.66-3.19,0-5.1,1.17,3.2.67,5.38,1.7,6.34.85,1.44.76,3.26-1.43,4.12.39-.1,1.82-2.3,1.42-3.26,1.71-2.3-.49-4.21-1.26-6.61-.69-1.05.47-1.12.61-2.27.12.09-.09-1.35-.16-1.44-.36,0,0-5-.54-7.3.21-2.2-.3-3.83,1.23-5.46.17a36.07,36.07,0,0,1-6.79.47c-1.82-.3-8.36,3.63-9.74,5.14l-2,.53-.14-.93c7.3-7.35,18.69-4.73,26.93-6.8,4.79-3.16,10.82-.75,15.71-3.41,5.47-2.19,10.18-7.15,17.06-4.93.76-.19,3.66.54,4.78.53l1.89.31h0A6.37,6.37,0,0,0,348.14,179.88Zm-28,17.46a18,18,0,0,1,1.44-3.23c.36-.24,7.18-5,10.65-5.63s5.41.09,8.38-.35c3.23-.48,12,.71,12,.71S352,191,351.13,191s-4.32-1.92-7.55-1.07c-2.89.75-5.27,0-8,.11a12.85,12.85,0,0,0-7.54,2.75,28.05,28.05,0,0,0-3.47,4.31Zm68.95-1v.39c-5,.07-9.39-.33-14.27.14-4.7,1-9.48-1-14.65,0-5.55,0-12,.55-17.62.82-1.72-.11-2.2-.6-3.82-.88-4,.65-8.47.12-12.6.08l-.39,0a16.15,16.15,0,0,1,3.67-4.4c2.24-1.75,4.11-1.1,7.46-1.46a46.41,46.41,0,0,1,7.41-.36c4.08,0,4.67-.12,6.11.95s3-2.26,3.35-2.89-3.47-1.05-6.41-1.34-12.74.15-14.65.14-6.83,2.9-7.66,3.51-3.6,1.9-4.08,2.27-1.67,4.2-1.67,4.2c-3.66.49-7.06.82-10.75-.09-3-.68-5.95,2.76-8.61.35-4.4-1.82-8.64,2.77-13,0-1.87-.46-3.33.58-4.83.66l-1.2-1.07-.24-1.6,2.65-1.63c2.19-1.74,4.72-3.67,7.19-4.49,3,.3,5.46-.55,7.95-.65,4,1,6.52-1,10.06-.83a13.81,13.81,0,0,1,4.95,1.23c4.13-1.9,8.84,2,12.39-1,.78-5.56-5.27-.32-7.47-2.61,2.58-1,5.66-.36,8.34-1.7a5.18,5.18,0,0,1,3.65-2.76,7.39,7.39,0,0,0,4.11-.37c4.7-1.61,7.65,3.75,12.25,2.13l.39-.38.28.39a21.94,21.94,0,0,1,6.42,1.35,16.88,16.88,0,0,0,5.84-.65c-.38-1.24,1-2.48-.47-3.26l-1.9-.58c-1-.86-2.11-.28-2.59-.28l-1.9,0c0,.19-1.63.28-1.53,0-1.24.18-1.72-.58-2.77,0l-.86-.67a6.43,6.43,0,0,1,2.3-1.43c3.45.19,5.85-2.86,9.11-2.75a5.46,5.46,0,0,0,3.64-.66c2.77-.18,5.17-1.13,7.57-.84a6.73,6.73,0,0,0,2.1-.85c1.36-1.91,3.44-2.42,5.37-3.31l1.85-.14C384.3,177.47,388.4,186.4,389.07,196.38ZM378.53,167.9c-1.56,1.34-3.37,1-5.58,3.34-1.05,1.62-6.61,1.51-6.61,1.51-1.25,1-4.6,1.14-4.6,1.14a3.16,3.16,0,0,1-2.29.19,15.85,15.85,0,0,0-6.32,2.27c-2.14-.15-3.88,1.29-5.75,1.69h0l-2.33.1c-.14-.1-1.59-.19-1.41.2-.09-.19-.38-.19-.57-.19v-.29c4.89-.37,7.87-5.72,12.95-4.94,6.12-.85,12.93-1.3,17.63-5.7a25,25,0,0,1,3.58-1.6Zm-120.75-32c2.41-1.66,21.22-11.87,39.13-11.82,2.23-.47,14.2-.16,19.95.48,0,0,9.25,1.12,27.12,9.74,7.34,3,20.81,15.49,23.48,18.86,1.05,1,2.68,2,3.44,3.26a88.08,88.08,0,0,1,6,8.34h0l-.85.77c-4.11.08-6.52,4.48-10.64,4.67-5.56,2.37-13.4-.14-18,4.92-3.65,1.05-7.87,3-11.69,1.69-6.71-.21-11.41,6.28-18.31,6.64-4.87-.58-9.19,2.18-14,2.93-7.86-.31-16.19.34-22.24,5.4a9.26,9.26,0,0,0-3.23-5.18c-2.2-3.93,0-9.3-4.66-12.08-3-1-4.32,3-7.19,2.94-1.25,1.54-2.69,2.78-4.13,4.3-2.77-3.55-4.48-7.86-8.31-10.75-1.33-2.68-.35-7-4.09-8.25l-1.24.39c-3.08,3.05-5.58,7.06-8.65,10.32-.86.19-2.1-1.25-2.39-2.31-.66-2.11-1.32-5.17-4.1-5.46-.85-1.46-2.11-3.33-3-4.76C238.33,148.62,257.78,135.87,257.78,135.87Zm-28.38,26c1.33,1.83,2.34,5.22,5.29,5.52,1.34,2.3,1.14,5.47,4,7,.48-.38,1.05-.19,1.72-.47l1.21-1.42-.18,1.36c-1.65,5.15,4.22,9.09,4.38,14.34,2.2,3.16,4.87,6.05,5.15,9.88a9.51,9.51,0,0,0,2.77.87,8.32,8.32,0,0,0,5.55,1.36l-.19.18c1.72.49,3.16,1.64,5.17,1.93,1,1,2.39.87,3.06,2.11,1.62,2,7.56.6,5.54,4.43v1.62h-.57c-2.39-1.63-3.05-5.65-6.5-5.77-.85-.47-2.3.95-3.25.19-2.38-4.31-7.17-4.71-11.19-4.35L251,201v-.19c-.77.38-2.87-1-2.78.48-.86.18-.85-1.64-1.72-.49.86,1.44,3,2.3,3.15,4.13-2.3-.78-3.73-3.46-6.41-3.27-2-1.07-1.81-3.93-4.29-4.33-1.64-.1-2.88-.57-4.6-.4a10.6,10.6,0,0,0-3.45,1.05,1.72,1.72,0,0,1-.9.56l-1.37.17c2.7-1.9,5.53-4.39,9-2.91l3.72,2.6c2.12.1,4.41-.28,6.61-.36a.6.6,0,0,0,.86.47c.58-1-.38-2.21-.56-3.26.69-7-9-8.45-9.25-15-.47-1.83.59-5-2.18-5.18-.66-1.16-.86-2.68-1.71-3.84a80.52,80.52,0,0,0-6-5.37c-.47-.3-.68-1.49-.77-2.16C229.05,163.5,228.82,162.54,229.4,161.87Zm-9.74,37.84c1.06-.56,1.92.4,2.87.49-2.3,2-4.41,2-7.38,2.57C213.73,199.22,218,200.49,219.66,199.71Zm-4.51,4.11c3.35-.85,6.7-.84,8.91-3.71-2.58-1.92-5.93-1-8.71-.22,1.38-12.64,6-24.3,12-35.3-.2,2.3,3,2.59,3.62,4.8,4.3.79,2.76,6.14,6.49,7.3.76,2.11-.11,4.69,1.32,6.71,1.52,4.12,7.27,5.57,8.3,10a14,14,0,0,0,.28,3.45c-3.07.38-7,1.13-9.29-2-1.43-.29-3.24-1.07-4.59,0-2.25.33-4,2.09-5.69,3.61l-.94.82,2.23.16,1.14-.19c1.21-.23,2.47-.85,3.72-1.14,2.3.1,4.22-.47,5.85,1.25,1.13,4.6,6.3,2.71,8.31,6.35,1.24.29,2.58,1.74,3.74.68-.1-.67-.86-.57-1.34-.87a3.83,3.83,0,0,0-1.43-3.44c4.6-.37,9.48-1.31,12.24,3.48.39.86,1.54.58,2.3.86-1.74,5-8.33,1.43-11.59,2.56l-12.46.73-.86.48c-.29-.48-.86-1.25-1.53-1.34-2,.77-2.34-1.46-3.45-2.22l-2-1.59v0c-.38,0-.79.21-1,.15-1.92.09-1.16,3.16-3.27,2.77l-1,.86c-3.64.18-7.18,0-10.34.25-.19.19-.39.48-.68.38C214.66,207.94,215,205.55,215.15,203.82Zm4.5,36.9c-2.56-9.68-5.59-19.55-4.51-30.27a80.11,80.11,0,0,1,10.82-.54c.19,1.82-2.3,1.91-2.59,3.62-.49,2.3,1.32,4.51,2.95,5.85.67.87,2.59-.17,3.45.88l.19-.2a.71.71,0,0,1,.09,1.07c-2.31-.1-5.28.08-7,1.22A2.55,2.55,0,0,0,222,225.6l.67.68.19-.2c1.53.87,3.25-.08,4.79.21,1.05.28,1.34-.28,2.1-.19a5.38,5.38,0,0,1,3.26-.66c-1.25.86-2.78,2-3.27,3.63a3,3,0,0,0,1.05,3.26c.38.77,2.1.58,1.34,1.72-1.34.58-3,.95-3.84,2.3a2.28,2.28,0,0,0,1.43,2.59c2.2-.28,3.92.3,6.22.69.57-.29,2.2-.1,3.07-.38.76-.87,1.43-2.3.68-3.45-.57-.76-.86-1.54-1.92-1.73a5.36,5.36,0,0,1-2.2.18c1.25-.57,2.87-.66,3.84-2.09,1-1.91-.47-3.63-.75-5.46l4.21,0c-1.25,1.24-1.35,2.47-1.26,4.11.38,1.52,2.77,1.73,2.58,3.65a3.16,3.16,0,0,0-2.59,1.33,2.21,2.21,0,0,0,1.24,1.92c2.2-.38,5.55,1.07,7.56,0,.39-1.82-1.81-1.93-2.38-3a2.64,2.64,0,0,0,2.59-1.71,12,12,0,0,1-.55-6.33c.56.1.95-.37,1.52-.19.47,2.31-2.5,4.49,0,6.42.67.67,1.63.58,1.72,1.72a.91.91,0,0,1-.68,1.15,1.15,1.15,0,0,0-1.14.58c-.19,1,.67,1.34,1.34,1.81,1.81,1.16,4.68.69,6.7,0a2,2,0,0,0,1.25-1.52,2.88,2.88,0,0,0-1.72-1.92,1.6,1.6,0,0,1-1.24-.29,3,3,0,0,0,2.11-1.71c-1.14-2.12-.08-3.75-1.42-5.76,2.49,0,4.68,2.13,7.47,1.07,3.45-1.52,5.93.89,9.48-.64,4.2,2.22,8-1.32,12.35,1.1,2.39.09,3.07-1.73,5.36-1.05a2.26,2.26,0,0,0,1.06-2.19c-2.87-2.51-7.37-1-10.53-2.61a9.73,9.73,0,0,1-3.92-.59c-.19-.4.1-1.45.86-1.34,1.44-.39,3.64-.66,4.51-2.29-1.46-2.38,1.3-3.83.87-5.69l2,.11a23.66,23.66,0,0,1,4.36,1c4.12,1.45,8.62.31,11.58,4.53,4,1.65,7.84,4,12.34,4.44,1.58.51,3.26,1.61,5,1.81l1.55.55c-1.65,1.64-3.2,3.4-4.67,5.11a19.28,19.28,0,0,0-3.27,6.21c-2.59.19-4.6,1.63-6.71,1.32-1.14-.09-3.44.19-4.69,0,1.92-2.48,2.51-5.55,4.14-8.13.11-3-3.25-1.34-5-2-1.63,2.11-2.31,4.59-3.75,6.89a43.8,43.8,0,0,1-2.51,4.1l-4.76-6.91c-1.15-1.14-3,.09-4.7.67-1.35,1.9,1.14,3.63,1.23,5.55-3.16.17-7.66.17-11.39.64-2.59.18-5.92.8-7.38,0-.19-.1-1.15.29-1.25-.39-.76.28-1.91.86-1.72,1.92-.39,2.48.84,4.78.83,7.27,1.43,3,5.08.78,7.57,1.17a62.21,62.21,0,0,1,7.47-.06h6.89a5.26,5.26,0,0,0,1.92-.18l.47.18-3.47,9.29c-1.05,0-1.81-1.25-3-.59-3.17,4.3-2.61,10.44.15,14.65a6.69,6.69,0,0,1-.93.27v0l-.74-1.55c-1.64-4.89-2.94-10-6.52-13.87a2.24,2.24,0,0,1-1.43-.87l-.1.18c-.57-.67-2-.85-3-1.24-3.07-1-6-.4-9.1.16-1.24-3.26-4.87-5.48-7.25-7.78-10.82-3-22.4-4-34-5.26C221.47,241.5,220.22,241.59,219.65,240.72ZM318.29,236a2.4,2.4,0,0,0,1.24,2.78c1.34.76,2.3-.67,3.26-1.52,3.27-7,9.51-10.8,16-13.56,1.05.3,2.78-.07,3,1.36-1,1.91-3.26,1-4.89,1.9-5.66,3.24-10.18,9.64-14.5,14a12.27,12.27,0,0,1-2.88,3.34,106.83,106.83,0,0,0-11.59-1.75,24,24,0,0,1-4.71,5.63c-.37-1.92-2.47-3.17-3.42-4.79,1.14-1.64,1.54-3.45,3.36-4.49,4.21.77,8.62-.65,12.36-1.4,2.31-6.6,8.08-11.95,13.64-16.15,2.59-.76,5.27-2.76,8.14-1.33h0c-.77,2.39-3.35,1.71-5,2.57C326.46,225.69,322.23,230.47,318.29,236Zm9.9-9.26,1.43.07c-1.43,2.88-3,1.84-4,4.42-2.12,2.2-2.89,5.44-5.77,6.69a1.19,1.19,0,0,1-.48-1.26,50.47,50.47,0,0,1,8.84-9.92Zm-2.85,22c.86,1.53,2.38,2.79,2.57,4.69-.76.29-2.11.19-3,.66-2.1.16-4.66-.2-6.67.17l-1.71.08h0a5.44,5.44,0,0,0-1.77-2.29c-1.63.58-2,2.67-3.93,1.81a11.65,11.65,0,0,1-3.54.18c-1.24-1.81-2.86-3.07-3.05-5.19l3.65-4.09-.19-.2c.87-1.81,3.45-.08,5-.46,2.11.68,4.88.68,6.61,1.36a45.43,45.43,0,0,1,5.64.59,2.49,2.49,0,0,1,1.44.1C326.4,247.23,324.67,247.8,325.34,248.76Zm-21.6,16.31-1.43-.47a23.14,23.14,0,0,0,6-2.09c2.11-1.05,2.88-3.64,4.9-4.77a8.12,8.12,0,0,0,2-3.25,8.19,8.19,0,0,1-1.55,8.23h0A9.41,9.41,0,0,1,303.74,265.07Zm-3.4-15.32-1.91-2.59.69-2.87c4,5,6.48,10.55,10.28,15.64h0c-.47,1.05-1.53,1.34-2.39,1.71C304.72,257.9,302.25,253.68,300.34,249.75Zm.66,3.64-1.25.19h0l.77-.86Zm-12.12,18.44-2.78.28c.67-1.05-1.05-1.92-1.14-3.07-1.33-3.64-1.32-7.48.7-10.72,3.16.39,5.84,1.93,8.9,2.43h0C294.45,264.76,291.48,268.39,288.88,271.83Zm6.93-10.9c.47.2.86-.17,1.53.2.47,3.83-3.38,6.7-5.68,9.08C293.49,267.34,295.8,264.58,295.81,260.93Zm-2.57-1.53a17.37,17.37,0,0,0-3.83-1.26c1.45-4,2.7-8.71,5.1-12.34,1.16-2,1.65-4.4,3.28-6.21.77-3.16,3.27-6.12,4.53-9.28-.47-3,2.57-.87,3.92-1.23h0c-.59,4.89-4.71,8.31-6.73,12.62-1.64,1-1.93,3.06-2.41,4.78a17.29,17.29,0,0,1-.87,2.1C295.93,252.22,294,255.66,293.24,259.4Zm-23.42-18-.67-1.43c2.39-.19,5.08-.19,7.76-.65,3.45-.57,7.57-.17,11-.26l1-.2c2,1.35,2.87,3.38,4.58,5.39h0L292,247.52c-2.29-.88-4.89.07-7.18-.22a110.74,110.74,0,0,0-14.85.63C270.48,245.72,269.91,243.62,269.82,241.42Zm17.83-8.08c4.32-3.25,5.45,4,7.83,6h0c.47,1.44-1.06,2.38-1,3.83-.19-.11-.29.09-.39.18-1.71-2-2.76-4.51-5.15-6A12.24,12.24,0,0,1,287.65,233.34Zm21.77,24.38h0l-1.72-2.79,3.83.2Zm3.64-2.39c.28,0,.38-.28.67-.18a13.07,13.07,0,0,1-3.65,3.92C310.84,258,312.1,256.49,313.06,255.33Zm-44.41-7.88h-.19c0-2.68-1.52-5-.65-7.76C269.34,241.71,269.14,245,268.65,247.45ZM283.3,272.4h0a31.5,31.5,0,0,1-3.89.37A43.74,43.74,0,0,1,266,270.05c2.78-2.68,7.38-3.72,10.64-6.39a11.16,11.16,0,0,0,1.06-3.92c2.15,3.37,3.53,7.37,4.89,11.28l.69,1.38ZM256.39,249c1.62.95,2.77,2.68,4.1,3.65v0a16.33,16.33,0,0,0,1.91,2.78,22.37,22.37,0,0,1-6.43,2,32.13,32.13,0,0,1-8.22-4.33c2.58,0,4.5-1.22,7.18-1.5C255.81,251,256.77,250.2,256.39,249Zm-15.77,23.87h-.38c-7.35-8.74-15.08-17.19-18.69-27.63L220.41,242a49.46,49.46,0,0,0,10.43,1.76h0a149.86,149.86,0,0,1,24,4.38,1.44,1.44,0,0,1,.28,1.71,22.28,22.28,0,0,1-7.95,2.08,1.4,1.4,0,0,0-.11,2c2.11,2.2,5.17,2.69,7.75,4.32,5.84,1.08,10.55-4.94,17.24-2.53,1.72.67,3.93,1.25,5,3-.87,1.33-.49,3.15-1.45,4.48-3.75,1.91-7.58,4.3-11.52,6.1-5.55-1.35-12-2-16.75-.34-1.05-.28-2,1.15-2.87,1.05C243,271.12,241.58,271.3,240.62,272.84Zm8.4,8-8-7.4a12.63,12.63,0,0,1,5.18-2.95c.29.1.1.57.48.49.19,0,.19-.31.19-.49h0c1.91,1.73,4.49,3.37,6,5.57Zm1.24,1.05c-.18-.86.87-1.91,1.74-2.95l-.19-.2c.76-1.14,2.39-1.91,1.92-3.24-2-2.6-3.73-3.46-6-5.67,13.33-4.46,23.92,7.54,37.53,3.56h0c.86.38,2.49-.86,3.45.29l.67-.66a61.66,61.66,0,0,1,8.62-.26c-1.16,2.29-4.8,2.86-5.67,5.82-1.34,2.39-1.45,4.6-2.41,7.18-3.25-2-8.53.55-12.06-1.57a83.18,83.18,0,0,0-25.18-1.61C252,283,250.83,282.55,250.26,281.87Zm56-3.85a3.22,3.22,0,0,0,2.92-1.73c1.43.48,2.49.21,3.64,1.26,1.42,2.21.08,4.41.55,6.7-.67,2.2-.68,5.26-3.17,6-5.77-2-11.06-2.52-14.08-1.58a5.6,5.6,0,0,1-4.68-.87c0-.67-.76-1.53,0-1.91-.66-.67.68-.95.39-1.92.87-.76.39-1.72,1-2.67,0-1.93,1.26-3.26,2.31-4.88h0l5.22.63A33.29,33.29,0,0,0,306.24,278Zm-.62-1.53.15-2.22a25.1,25.1,0,0,0,1.66,2.57A3.25,3.25,0,0,1,305.62,276.49Zm-5.54-.7-3-.39a6.12,6.12,0,0,0,2.3-2.4C299.6,274,300.37,274.64,300.08,275.79Zm44.69,11.53c-6.52,4.48-13.24,7-22,9.57-9.59,2.75-20.16,1.13-29.46,1.29A79.69,79.69,0,0,1,264.21,289c-3.63-1.34-8-4.07-10.71-5.39,9-.45,17.14-.14,26.23,2.47l8.9.22h0c1.63.57,1.14,3.26,3,2.88,3.25,1.73,5.49-.34,9.89-.23,1.14-.38,6,1.62,8.67,2.38a4.14,4.14,0,0,0,3.27-2.95l.58-2.2c5.64,1.07,12.44.42,18.29-1.19a81.29,81.29,0,0,1,16.61-.71Zm-10.92-3.66c-6.71,1.5-12.26,2.83-19.54,1.46-.47-3.45,2.13-8-2.36-9.28-1.82-1.16-4.6,1-5.36-2.13,7.39-4.48,16,1.67,23.28.06,9,.61,17.92-4.83,26.44-4.51a8.46,8.46,0,0,0,1.72.47c-1.92,2.68-5,4.11-6.24,6.88.18,2.39,2.76,3.74,4.1,5.19C349.17,285,340.75,281.94,333.85,283.66ZM372.08,264c-4.8,5.54-9.8,11.84-16.13,15.85-1.16.29-2.3-1.44-2.87-2.41v-.76c2-2.57,5-4.48,6.54-6.87-4.31-3.46-10.83-.13-15.33.53a46.72,46.72,0,0,1-21.54,2.14c-3.17.19-6.71-1.74-10.06-1.08-.09-.66-1.34.09-2.2-.11A30.78,30.78,0,0,0,306,273c-1.34,1-1.15,2.29-1.55,3.54-.95.57-1.81-.49-3.06-.1-.18-1.26-.27-2.88-1.42-3.85l.19-.18c-1.15-1.34-3.44-.3-4.69-.88l-3.45.19c3.36-2.77,6.82-6.4,6.64-10.71-.86-1.34-2.77-.49-4-1a75.71,75.71,0,0,1,3.38-11.2,7.73,7.73,0,0,1,2,2.88c-.57.76-1.53,1.71-1.34,2.58.57.77,1.81.78,2.86.68,1.25,2.11,2.48,4.22,3.62,6.24-1.43.95-3.06,2.19-5,2.37-.67.38-.38.77-.19,1.24a13.93,13.93,0,0,0,10.52,1.76c2.4-1.34,4.42-2.67,5.86-5.15.35-2.2.84-4.19.51-5.94h0l1.81.07c.87-.09,1.77-.32,2,0,1.63-.48,2.77.2,4.5-.57a10.75,10.75,0,0,0,3.64-.46c.87-2.49-2.29-4.31-2.29-6.52.68,0,.87-.77,1.26-1.06,0-.38,0-1.23-.67-1.43-1.72-.39-3.64-.68-5.75-1,3.85-5.25,9.13-9.82,13.74-14.79a17.07,17.07,0,0,1,2.58,3.73c.18,3.46-4.8,3.92-4.24,7.28a7.06,7.06,0,0,0-2.21,1.71A5.13,5.13,0,0,1,330,246a1.67,1.67,0,0,0,1.05,1.35h.57c0,.76,1,.1,1.34.57,3.07-.66,5.85.31,9-1.21,3.83.78,6.51,1.93,10.33,2.8.67.77,2.31.49,3.06,1.73,0,.15,0,.31,0,.45l-1,.33c-.29.1-.57.27-.76.08l-.39.39c-1.44.37-3.15-1.08-4.4,1.13.56,2.39-3.45,1.52-1.73,4,1.61,3.36,5.54.5,7.74,2.42.58.29,2.29,1,3.25.48v.19a13.35,13.35,0,0,0,4.8-.84c2.87.78,6.12.5,8.8,1.56l.39-.86c.48.58,1,.38,1.34.68.47.29.38-.39.47-.3A6.16,6.16,0,0,1,372.08,264Zm-33.78-29.1c.38,3.65,2.48,7,3.42,10.64-3.26,1.14-6,.65-9.29,1l-1.25-.48c1.44-1.34.4-4.21,2.8-4.69,1-.38.67-1.82,1.06-2.77C336.29,237.79,338,236.45,338.3,234.92Zm17.19,17.6c.66,2.17,2.86,4,4.49,5,.86-.19.86,1.16,1.72,1.25-4.7,2.57-8.52-1.94-12.93-.9-.48-.48-1.14-.87-.86-1.72a2.24,2.24,0,0,0,1.73-1.24c.1-.68.2-1.72,1.16-1.83a11.25,11.25,0,0,0,3.5-.3Zm32.23-20.62a91.27,91.27,0,0,1-13,28.11c-1.43-1.15-2.87.28-4.11-.87l-.29.29c-3.25-.49-7.56,0-10.32-3.1-1.82-1-3.73-2.88-3.44-5.18-3.34-3.84-8.9-3.75-13.3-5.59a2.43,2.43,0,0,1-1.05-2.39c-2.66-4.51-2-10.35-6.28-14.2,1.83-1.42,3.55-1,5.47-1.81a2.54,2.54,0,0,0,1.25-2.76c-.66-.76-1.05-1.54-2.1-1.74-3.64-.77-6.33,2.48-9.69,3.62l-1.71-.2c2-1.62,4.8-3.15,7.09-3.23a5.76,5.76,0,0,0,1.92-2.29c.77-1.15-1.14-1.73-1.71-2.21-4.84.05-8.92,2.54-12.51,5.81l-2.25-.29c-5.55-2.54-12-3.34-17.13-6.19a10.81,10.81,0,0,0,3,.69c.64-.17,5.11-1.92,6.39-1.92s6.22,0,7.82.64,4.5.62,6.38.95a6.09,6.09,0,0,0,5.26-1.43,6.26,6.26,0,0,1,4.47-1.44c2.07.17,8.87-.76,11.49-.47,1.44.17,2.24.81,4.79,1s5.91.32,6.71-.48,3.18-2.07,6.86-1.75c2.41.21,6.06.47,8.3.79s5.42-.95,8.14-1.12a38.8,38.8,0,0,0,5.93-1.59h0C390.4,218.57,390.06,225.59,387.72,231.9Z" fill="#50d6cc"/><path d="M394,209.32s-.23-9.94-1.68-16c-2.45-10.82-6.14-21.36-12.6-30.81-4.67-8.26-10.74-14.78-17.24-20.74-15.09-12.21-30.8-20.43-52.67-22.5-6.32-.51-17.63.22-20.27.47-8.33.55-16.14,3.88-23.62,6.54A92.93,92.93,0,0,0,226.5,158c-9.43,13.28-14.48,29.18-16.25,45.54-.62,13.79.47,26.18,5.1,39.11,4.66,10.64,10.37,22.26,19.15,30.8a83.39,83.39,0,0,0,35,23.3l8.89,3.31h0c13,3.38,33.56,2.07,33.55,2.27,0,0,6.39-.71,7.92-1.09.76-.57,9.58-2.84,10.54-3.13,0,0,8.7-3.48,10.91-4.24,7.19-2.65,14.12-8.32,20.36-13.11l3.08-2.57c3.07-4.2,6.34-6.11,9.51-10.42a90.89,90.89,0,0,0,17.54-37S394.48,215.64,394,209.32Zm-10.93,42.41c-2.89,6.88-7.2,12.27-12.29,18.19-.1,0-10.38,11.17-18.83,16.92,0,0-5.91,3.35-9.33,5.26a102.38,102.38,0,0,1-20.52,7.34,84.84,84.84,0,0,1-25.05,1.92,87.58,87.58,0,0,1-18.2-2.23h0s-18.83-6.86-22-9.25c0,0-13.25-7.83-20.06-16.18-11.28-10.57-17.08-23.61-21.92-36.93-3.35-12.64-4.5-23.21-3-35.95,2.71-24.26,14.66-48.28,36.73-63.44C262,128.67,274.34,122.5,290,121l9.74-.8c11.78,0,22,1.15,32.24,5.1a94.12,94.12,0,0,1,38.41,26.1c3.72,2.79,15.69,21.79,18.88,34.71,3.36,9.42,4,24.1,4,24.1C392.67,224.6,390.11,237.84,383.09,251.73Z" fill="#50d6cc"/><path d="M256.84,159.7c.77-.85,1-.47,1.73-1.42l.95,1.53c-.87,2.58-2.87-.2-4.6.75a5,5,0,0,1-5,.95s-.29.09-.19,0a6.71,6.71,0,0,0-5.75.36c-1.34-.29-2.57-1.54-3.92-.68-1.05.47-1.82.19-3,.47.29-1.14,1.82-1.53,2.78-2l.19.09c1.35-.28,3.17-2.86,4.69-.65.87-.18,1.73-1,2.69-.47.66,1.92,2.2.67,3.35.3.48-.77,1.34-.58,2-.29l.57.49a15.1,15.1,0,0,0,1.53-1.06c.57.77.67,2.11,1.92,1.63" fill="none" stroke="#50d6cc" stroke-linecap="round" stroke-linejoin="round" stroke-width="0.9"/><path d="M283.26,131.63a6.23,6.23,0,0,0-3.6.72,2.4,2.4,0,0,1-.82.12c-.74.35-.74,1.42-.49,2.15s1.2,1.07,1.91,1.31a3.2,3.2,0,0,0,2.16,0c.6-.11,1.07-.84,1.67-1a11.56,11.56,0,0,1,5.39-.12c1,0,2,.36,2.75,0s1.31-.6,1.79-.84c.84-.36,1.79.12,2.62.23a9.9,9.9,0,0,1,1.73-.28.81.81,0,0,0,1.05.1,7.12,7.12,0,0,1,1.9,0,.38.38,0,0,1,.11.25c.49.36.37-.84,1.06.19,0-.08.15-.19,0,0a10,10,0,0,1,1.47-.08c.36,0,.24-.48.64-.59s.91-.36,1.39-.6a3.34,3.34,0,0,1,2.34-.05c.41.05.41-.43.67-.58a5.14,5.14,0,0,1,1.78.15c.24.11,0,.36,0,.43s.28.17.4.17a.81.81,0,0,0,.45.7c1.23.13,2.66.49,3.35-.75.27-.07.75-.07,1-.11a2.8,2.8,0,0,0,1.47.27.68.68,0,0,0-.22-.45,8.17,8.17,0,0,1,2.25.45c1.8.72,3.72,1.56,5.63,1.2a1.73,1.73,0,0,0,1.19-1.2c0-.48.12-1-.11-1.32a2.47,2.47,0,0,0-2.73-1.51c-.14,0-.26-.4-.38-.4a17.79,17.79,0,0,1-4.5-.38c-.05,0-.05-.33-.1-.28a8.83,8.83,0,0,0-3.78-.41c-1.2.36-2,1.2-3.23,1.56s-2.15-.49-3.33-.7a3.59,3.59,0,0,0-2.77,1.25c-.24.17-1,.28-1.08-.07s-.6-.6-1-.72a3.11,3.11,0,0,0-2.46.18c-.29.06-.65-.18-1.05-.09a2.92,2.92,0,0,0-.79-1.65c-1.08-.6-2.28-.36-3.35-.47-.25,0-.36.36-.64.68a2.88,2.88,0,0,1-1.44.67c.17.09,0,.09,0,0a4.75,4.75,0,0,1-3.07.93,18.19,18.19,0,0,1-2.77.1c-1.54-.47-3.33-.47-4.41.85" fill="none" stroke="#50d6cc" stroke-linecap="round" stroke-linejoin="round" stroke-width="0.9"/><path d="M282.18,140.73c-.84,0-1.79-.36-2.4.23-.47.37,0,1,.19,1.28a6,6,0,0,0,2.21.52,5,5,0,0,0,5.63,1.92c.72-.24,1.07-1.43,2-1.54a24.17,24.17,0,0,1,5.27.58c1.8.36,3.71.48,5.26-.55.85-.4,1.57.43,2.41.67.24.13,0,.6.46.58,1.09.14,2,0,3.13.26a6.67,6.67,0,0,0,2.63.11,4.19,4.19,0,0,0,1.33-.83c.23-.12.7.12.95,0a1.12,1.12,0,0,1,1.44.11c.11-.47.47-.23.83-.35v-.24c1.56.36,3.24-.11,4.79.36a4,4,0,0,0,2.63,0c.72-.24,1.32-1.2.84-1.79-.72-1-2.16-.47-3.24-.84-.83-.12-1.78.24-2.58,0a14.51,14.51,0,0,0-2-.83c-.83-.36-1.43-1.2-2.15-1.44a2.9,2.9,0,0,0-3.26.53c.15.07,0,.07,0,0a3,3,0,0,1-2.6.31,3.59,3.59,0,0,0-2.08-.32.82.82,0,0,0-.79.08c-.36.12-.6.72-1.08.6a1.3,1.3,0,0,0-1.31-.12c-.25.12-.6.36-.55.28-1.12.32-2,1-3,.67-.12-.11-.12-.23-.22-.39s-.5,0-.61-.2c-.61-1.08-1.92-.95-2.83-.95-.05,0-.17.23,0,0a3.87,3.87,0,0,1-2.56.11c-.84-.36-1.8-.83-2.64-.47-.12,0-.72.23-.36.63a1.66,1.66,0,0,1-1.34-.11,3.2,3.2,0,0,0-2.85.07c-.59.36-1.56.36-1.31,1.19-.12,0-.12-.11-.25-.11" fill="none" stroke="#50d6cc" stroke-linecap="round" stroke-linejoin="round" stroke-width="0.9"/><path d="M324.07,149c-1.2-.71-2.87-.83-3.71.25s-1,2.87.36,3.35a2,2,0,0,0,.84.12c1.31.23,2.75.47,3.71-.73,0-.11.12-.47-.12-.71a9.17,9.17,0,0,1,3.11.12c.72.23,1.19,1.07,1.91,1.19.48.13.72.48,1.2.48a4.84,4.84,0,0,0,1.32,0,6.56,6.56,0,0,1,1.68-1,2.65,2.65,0,0,1,1.92,0c.83.25,1.79.61,2.63.83a1.73,1.73,0,0,0,1.8-.47,1.77,1.77,0,0,1,.83-.24,1.85,1.85,0,0,1,0-.43,6.24,6.24,0,0,0,1.16.19c.24.12.48.36.72.48.6.24,1.2,0,1.8.11a1.86,1.86,0,0,0,2.27-.6c.36-.24.84-.36,1.2-.59a1.43,1.43,0,0,1,1.2.12,1.74,1.74,0,0,0,1.31,0c.23,0,.23-.47.49-.55,1.18-.17,2.38.19,3.45-.17s2.16-2.16,1.2-3-2.51-.71-3.83,0c-.24.13-.36-.11-.62-.09-.1,0-.1.33-.19.29-1.1,0-2.17,0-3.25,0a4.21,4.21,0,0,1-3,0,5.29,5.29,0,0,0-1.7,0c-.11,0-.24-.25-.4-.24-1.27.24-2.35,1.55-3.66,1a3.38,3.38,0,0,1-1.2-.84c-.12,0-.24.13-.31.07a4,4,0,0,0-3.4-.31c-.12,0-.48.48-.72.59a9.54,9.54,0,0,1-5.5-.7,1.75,1.75,0,0,0-1.2.19,5.1,5.1,0,0,1-1.56,0c-.72.12-1.07.72-1.79,1" fill="none" stroke="#50d6cc" stroke-linecap="round" stroke-linejoin="round" stroke-width="0.9"/><path d="M355.56,157.61c-1.2-.13-2.4-.84-3.36-.24s0,1.67.72,2.27a15.62,15.62,0,0,0,2,1,7.88,7.88,0,0,0,3.35,0c.48-.11,1.08-.36,1.08-1.07h.72c1.06,0,2.15-.36,3.22,0a2.22,2.22,0,0,1,.73.1c.58.48,1.3,1.09,1.78.61,1.08-.71.61-1.92.36-3-.11-.59-1.07-.47-1.67-.47-.12,0-.36-.23-.46-.2a2.91,2.91,0,0,1-2.54.33c-1.56-.48-3.35-1.08-4.78.11-.11.12-.47,0-.71,0" fill="none" stroke="#50d6cc" stroke-linecap="round" stroke-linejoin="round" stroke-width="0.9"/><path d="M352.13,163.07c.21.18,0-.2,0,0,0-.2,0,0,0,0a15.32,15.32,0,0,1-4.35-.09,3,3,0,0,0-2-.24c-.24,0-.47.13-.83.13,0,.11,0,.35,0,.27-.3.08-.3,0-.2.19-.93-.22-1.65.25-2.25-.11s-1.55-1-2.27-.6c-.11,0-.36.35-.45.5a2.81,2.81,0,0,1-1.94,0,5.46,5.46,0,0,0-3.83.71,1.7,1.7,0,0,1-1.32.12,14.05,14.05,0,0,1-1.24-.83,6.18,6.18,0,0,0-3.07.55c-.72.16-1.56.16-1.91-.55a.46.46,0,0,1,.19-.31c-1.52,0-4.15-.4-4.39,1.63,0,.47.6.94.74,1.14a18,18,0,0,0,6.6,1.55c-.16-.19,0,0,0,0a2.34,2.34,0,0,0,1.34-.58,3.39,3.39,0,0,1,1.37-.08,7.22,7.22,0,0,0,4.67,1.2c.48-1.2,1.8-.6,2.77-.89a.61.61,0,0,1,.19.57,1,1,0,0,1,1,.1,10.78,10.78,0,0,0,2.67-.14c0-.12-.12-.24-.08-.33.32.09.68-.27,1.05,0,0-.15,0-.4,0-.4a4.9,4.9,0,0,1,2.79.21,4.08,4.08,0,0,0,.86,0c.29-.08.65-.44.86-.28s.63.07.86.29a2.94,2.94,0,0,0,2.28-.09c1.2-.72.6-2.28.6-3.48,0-.11-.24.25-.67-.15" fill="none" stroke="#50d6cc" stroke-linecap="round" stroke-linejoin="round" stroke-width="0.9"/><path d="M321.68,171.25a5.18,5.18,0,0,0-2.39.49c-1,.34-1.92.11-2.87.7-.48.36-1.32.12-2,.12.24.36-.12.83,0,1.2a2.5,2.5,0,0,0,1.79,1.31,11.54,11.54,0,0,0,3.47-.11c.48,0,.48-.72.84-1.08.72-.71,1.56-.24,2.39-.35,1.32,2,3.83,1.07,5.75,1.43.72-.83,1.92-1.43,1.92-2.75a4.49,4.49,0,0,1-.93,0c-.75-.52-1.34-1.13-2.18-.76-1.2.36-2.76.95-3.83.36-.6.58-.84-.36-1.56-.36" fill="none" stroke="#50d6cc" stroke-linecap="round" stroke-linejoin="round" stroke-width="0.9"/><path d="M259.73,156.25l4.5-2,6.46,17-4.31,2.57-6.65-17.54" fill="none" stroke="#50d6cc" stroke-linecap="round" stroke-linejoin="round" stroke-width="0.9"/><path d="M268.41,151l4.87,20,4.5-1.33-4.34-20.12-5,1.44" fill="none" stroke="#50d6cc" stroke-linecap="round" stroke-linejoin="round" stroke-width="0.9"/><path d="M280.62,148.17l-.71,21.76,4.06,1.31,1.25-22.68-4.6-.39" fill="none" stroke="#50d6cc" stroke-linecap="round" stroke-linejoin="round" stroke-width="0.9"/><path d="M284.93,172.33l1.44,3.36,11.61-15-2.28-4.18-10.77,15.79" fill="none" stroke="#50d6cc" stroke-linecap="round" stroke-linejoin="round" stroke-width="0.9"/><path d="M287.53,177.49l.63,3.1,15.2-7.54-.1-4.81-15.73,9.25" fill="none" stroke="#50d6cc" stroke-linecap="round" stroke-linejoin="round" stroke-width="0.9"/><path d="M288.4,182.38v3.35l15.21-4.07-.25-3.95-15,4.67" fill="none" stroke="#50d6cc" stroke-linecap="round" stroke-linejoin="round" stroke-width="0.9"/><polygon points="379.95 199.25 380.24 199.45 380.43 199.25 379.95 199.25" fill="#50d6cc"/><path d="M378,203.91a1.44,1.44,0,0,1-.33-1,3.9,3.9,0,0,0,.06-.53l-.05.05c.07-.73.31-1.5.31-2-.38.39-.48.39-.67.87l.19.09c-.57.39-.38.87-.38,1.25a.73.73,0,0,0-.18,1,1.66,1.66,0,0,0-.08,1c-.72.57,0,1.39.35,1.64a3.88,3.88,0,0,0-.46,1.4h0a2.51,2.51,0,0,0,.49-.27h0c-.09.58-.76,1.54-.76,2.21h0c1.31-.51,1.29-1.73,1.25-2.8C378.16,205.94,377.89,204.75,378,203.91Zm-.48,1.54v0a2.66,2.66,0,0,1-.08-1.2.72.72,0,0,0,.18.12C378.05,204.78,377.48,205.07,377.48,205.45Z" fill="#50d6cc"/><polygon points="376.91 207.84 376.72 207.66 376.43 207.86 376.91 207.84" fill="#50d6cc"/><path d="M370.71,198.9h0c0,.67.66,1.63.76,2.21,0,.38.58.67.09,1l0,0a3.45,3.45,0,0,0,.09-.66c-.38.38-.48.38-.67.87l.19.09c-.57.38-.38.86-.38,1.25-.86.67.38,1.72.48,1.72.48.39-.09.67-.09,1.07-.1.56-.77,1.52-.76,2.19h0c1.34-.53,1.28-1.81,1.23-2.89l.33.31c0-.87-.76-2.59,0-3.44C371.85,201.49,372.43,199.58,370.71,198.9Z" fill="#50d6cc"/><polygon points="370.41 198.72 370.7 198.9 370.89 198.72 370.41 198.72" fill="#50d6cc"/><polygon points="367.36 207.3 367.17 207.12 366.88 207.3 367.36 207.3" fill="#50d6cc"/><path d="M359.48,204.4c-.1-1.16.48-3.06-1.24-3.74l.18-.18H358l.28.2a2.89,2.89,0,0,0,.29,1,1.44,1.44,0,0,0-.47.68l.19.09c-.57.38-.38.86-.38,1.25-.86.67.38,1.72.48,1.72.47.39-.09.67-.09,1.06-.1.56-.77,1.52-.76,2.21h0a2,2,0,0,0,1.24-2,1.14,1.14,0,0,0,.25.23l-.19.09c.19.47.28.47.67.85C359.47,207,358.71,205.26,359.48,204.4Zm-1,.12a5.56,5.56,0,0,1,.17-2.52,3.86,3.86,0,0,1,.33.87c0,.37.58.66.1,1A1.9,1.9,0,0,0,358.49,204.52Z" fill="#50d6cc"/><polygon points="354.89 209.06 354.7 208.88 354.42 209.06 354.89 209.06" fill="#50d6cc"/><path d="M355.94,205.13c-.76-.85,0-2.58,0-3.44-.38.38-.47.38-.66.86l.19.09c-.58.39-.39.86-.38,1.25-.86.67.38,1.73.48,1.73.47.38-.1.67-.1,1-.09.58-.76,1.54-.76,2.21h0C356.43,208.2,355.85,206.29,355.94,205.13Z" fill="#50d6cc"/><polygon points="364.03 198.23 364.32 198.43 364.51 198.24 364.03 198.23" fill="#50d6cc"/><path d="M362,202.89c-.77-.85,0-2.57,0-3.44-.39.38-.48.38-.67.86l.19.1c-.57.38-.38.85-.38,1.25a.65.65,0,0,0-.22.26v-.11c-.76-.86,0-2.59,0-3.45-.38.39-.47.39-.67.86l.19.09c-.57.39-.38.87-.38,1.26-.86.66.39,1.73.48,1.72.48.38-.09.68-.09,1.05-.1.57-.76,1.54-.76,2.21h0c1.38-.54,1.28-1.88,1.23-3a1.87,1.87,0,0,0,.7.82c.48.38-.1.67-.09,1.05-.1.58-.76,1.54-.76,2.21h0C362.52,206,361.93,204.05,362,202.89Z" fill="#50d6cc"/><polygon points="360.98 206.82 360.79 206.64 360.5 206.82 360.98 206.82" fill="#50d6cc"/><polygon points="351.74 199 352.03 199.19 352.22 199 351.74 199" fill="#50d6cc"/><polygon points="348.69 207.59 348.5 207.4 348.21 207.6 348.69 207.59" fill="#50d6cc"/><polygon points="341.69 209.69 341.5 209.51 341.21 209.71 341.69 209.69" fill="#50d6cc"/><path d="M339.42,206.53c0-.86-.76-2.58,0-3.45-.09-1.15.5-3.06-1.23-3.74h0c0,.68.67,1.64.76,2.21,0,.37.58.67.1,1-.1,0-1.34,1.06-.48,1.73,0,.38-.2.86.38,1.25l-.19.09C338.94,206.14,339,206.14,339.42,206.53Z" fill="#50d6cc"/><polygon points="337.9 199.16 338.18 199.34 338.37 199.16 337.9 199.16" fill="#50d6cc"/><path d="M335.89,203.81c-.76-.85,0-2.58,0-3.45-.38.39-.47.39-.67.87l.19.1c-.57.38-.38.85-.38,1.24-.85.67.39,1.73.49,1.73.47.38-.1.67-.1,1-.09.58-.76,1.53-.76,2.2l-.28.19h.47l-.18-.18C336.38,206.88,335.8,205,335.89,203.81Z" fill="#50d6cc"/><path d="M332.17,205l.11.11A.57.57,0,0,0,332.17,205Z" fill="#50d6cc"/><polygon points="331.31 201.75 331.6 201.93 331.79 201.75 331.31 201.75" fill="#50d6cc"/><path d="M331.61,201.93h0a1.92,1.92,0,0,0,.11.56h-.4l.28.19.14-.14a1.86,1.86,0,0,0,.1.25l-.23-.1h0a23.77,23.77,0,0,0,.88,2.51h0a.27.27,0,0,1-.17-.08c.38.48-.76,1-.51,1.58a.72.72,0,0,0,.19,1c0,.39-.19.87.38,1.25l-.19.09c.19.49.28.49.67.87a5.43,5.43,0,0,0-.12-.87l.13.13c0-.49-.24-1.26-.31-2a1.42,1.42,0,0,1,.31-.71,5.76,5.76,0,0,1,0-.72v-.15c0-.26,0-.52,0-.79C332.89,203.69,332.92,202.45,331.61,201.93Z" fill="#50d6cc"/><polygon points="328.26 210.33 328.07 210.15 327.78 210.33 328.26 210.33" fill="#50d6cc"/><path d="M329.31,206.41c-.76-.86,0-2.59,0-3.45-.38.39-.47.39-.66.86l.19.09c-.58.4-.39.87-.39,1.26-.86.67.39,1.72.49,1.72.47.38-.1.68-.1,1.05-.09.58-.76,1.54-.76,2.21h0C329.8,209.48,329.22,207.56,329.31,206.41Z" fill="#50d6cc"/><polygon points="325.37 199.19 325.65 199.39 325.84 199.19 325.37 199.19" fill="#50d6cc"/><polygon points="322.31 207.79 322.12 207.6 321.84 207.79 322.31 207.79" fill="#50d6cc"/><polygon points="318.76 202.18 319.05 202.37 319.24 202.18 318.76 202.18" fill="#50d6cc"/><polygon points="315.71 210.78 315.52 210.59 315.23 210.78 315.71 210.78" fill="#50d6cc"/><polygon points="313.78 199.34 314.07 199.53 314.26 199.34 313.78 199.34" fill="#50d6cc"/><path d="M315.31,203.28c-.1-1.15.48-3.06-1.24-3.74h0c0,.67.66,1.63.76,2.21,0,.38.57.68.09,1-.1,0-.19-.08-.29-.19.77.59-1.05,1.25-.19,1.93,0,.38-.19.85.38,1.24l-.19.09c.19.48.28.48.67.86C315.3,205.86,314.54,204.13,315.31,203.28Z" fill="#50d6cc"/><polygon points="309.13 204.14 309.42 204.33 309.61 204.14 309.13 204.14" fill="#50d6cc"/><path d="M307.26,204.24a2.58,2.58,0,0,0-.55.62,2,2,0,0,0-1.25-2.1h0c0,.67.66,1.63.76,2.21,0,.21.18.39.25.58a1,1,0,0,0-.08.4l-.07.07c-.1,0-1.35,1-.49,1.72,0,.38-.19.86.38,1.24l-.19.11a1.62,1.62,0,0,0,.57.75,4.72,4.72,0,0,0-.55,1.59h0c1.72-.69,1.14-2.58,1.24-3.74l0-.06h.25l-.19-.19-.12.09C306.61,206.62,307.27,205.05,307.26,204.24Zm-.47.95-.08.06v-.09Zm0,4a2.27,2.27,0,0,1-.13.43,10.21,10.21,0,0,1-.29-2.35c.26.37.67.73.23,1,.1-.09.19-.18.29-.18C307.36,208.55,306.79,208.84,306.79,209.22Z" fill="#50d6cc"/><polygon points="306.22 211.61 306.03 211.43 305.75 211.62 306.22 211.61" fill="#50d6cc"/><path d="M303.73,200h0c0,.67.67,1.64.76,2.21,0,.37.58.67.1,1-.1,0-1.34,1.06-.48,1.73,0,.38-.2.86.38,1.25l-.19.09c.19.47.28.47.67.87,0-.87-.76-2.61,0-3.46C304.87,202.56,305.45,200.65,303.73,200Z" fill="#50d6cc"/><polygon points="303.44 199.79 303.72 199.97 303.91 199.79 303.44 199.79" fill="#50d6cc"/><path d="M301.44,204.45c-.77-.85,0-2.59,0-3.45-.39.39-.48.39-.67.86l.19.09a.88.88,0,0,0-.4.93,1.94,1.94,0,0,0-.55-.32h0a3.38,3.38,0,0,0,.4,1.27h0a4.34,4.34,0,0,1,.36.93.65.65,0,0,0,.09.29l-.08.06.08-.06c.14.25.35.48,0,.77-.09,0-1.31,1-.49,1.7a1.89,1.89,0,0,0-.15.66h0l.12-.06a.83.83,0,0,0,.41.67l-.19.09c.19.48.29.48.67.87,0-.5-.24-1.29-.31-2C301.74,206.87,301.36,205.41,301.44,204.45Z" fill="#50d6cc"/><polygon points="300.39 208.38 300.2 208.19 299.91 208.38 300.39 208.38" fill="#50d6cc"/><path d="M297.93,199.16h0c0,.67.67,1.63.76,2.21,0,.37.57.66.1,1-.1,0-1.34,1-.48,1.71,0,.4-.2.87.38,1.25l-.19.1c.19.48.28.48.66.86,0-.87-.75-2.59,0-3.45C299.07,201.74,299.65,199.83,297.93,199.16Z" fill="#50d6cc"/><polygon points="297.64 198.96 297.92 199.16 298.11 198.96 297.64 198.96" fill="#50d6cc"/><polygon points="294.58 207.55 294.39 207.36 294.11 207.55 294.58 207.55" fill="#50d6cc"/><polygon points="295.24 199.34 295.53 199.53 295.72 199.34 295.24 199.34" fill="#50d6cc"/><polygon points="292.19 207.94 292 207.75 291.72 207.94 292.19 207.94" fill="#50d6cc"/><path d="M293.25,204c-.77-.87,0-2.59,0-3.45-.39.39-.48.39-.68.86l.19.09c-.57.39-.38.87-.38,1.25-.85.67.39,1.73.49,1.73.48.38-.1.68-.1,1.05-.09.57-.76,1.53-.76,2.21h0C293.73,207.08,293.15,205.17,293.25,204Z" fill="#50d6cc"/><polygon points="305.16 202.56 305.45 202.76 305.64 202.56 305.16 202.56" fill="#50d6cc"/><polygon points="302.12 211.16 301.93 210.96 301.64 211.16 302.12 211.16" fill="#50d6cc"/><path d="M303.17,207.23c-.77-.86,0-2.58,0-3.45-.39.38-.48.38-.67.87l.19.09c-.57.38-.38.86-.38,1.24-.86.68.38,1.73.48,1.73.48.38-.1.67-.09,1-.1.57-.76,1.53-.76,2.2h0C303.65,210.29,303.07,208.38,303.17,207.23Z" fill="#50d6cc"/><polygon points="299.7 202.38 299.99 202.56 300.18 202.38 299.7 202.38" fill="#50d6cc"/><path d="M297.7,207c-.77-.86,0-2.59,0-3.45-.39.39-.48.39-.67.86l.19.09c-.57.4-.38.87-.38,1.26a.75.75,0,0,0-.17.19c-.17-.9-.47-2.06.11-2.71-.09-1.15.49-3.06-1.23-3.74h0c0,.67.66,1.63.76,2.21,0,.38.57.68.09,1a1.84,1.84,0,0,0-.75,1,.91.91,0,0,1,0-.17c-.77-.86,0-2.58,0-3.45-.39.38-.48.38-.67.87l.19.09c-.57.38-.38.86-.38,1.25-.86.67.38,1.72.48,1.72.48.38-.1.67-.1,1.07-.09.56-.76,1.52-.76,2.19h0c1.51-.59,1.25-2.13,1.23-3.28a.72.72,0,0,0,.27.45c0,.38-.19.85.38,1.24l-.19.09a1.41,1.41,0,0,0,.47.67,1.85,1.85,0,0,0,.75,1c.48.38-.1.67-.09,1-.1.58-.76,1.54-.76,2.21h0C298.19,210.1,297.6,208.19,297.7,207Z" fill="#50d6cc"/><polygon points="296.65 210.97 296.46 210.78 296.17 210.97 296.65 210.97" fill="#50d6cc"/><path d="M310.84,199.23h0a5.26,5.26,0,0,0,.59,1.69,1.29,1.29,0,0,0-.32.52l.19.09c-.58.39-.39.87-.38,1.25-.4.31-.23.61,0,.91a.74.74,0,0,0,.29.54c0,.12,0,.25,0,.39l-.08.07.08-.07a.81.81,0,0,0,.2.66.58.58,0,0,0-.09.28,16.77,16.77,0,0,1-.62,1.58c0-1.06.06-2.29-1.25-2.8h0c0,.68.66,1.64.76,2.2,0,.39.57.68.09,1.06-.1,0-1.34,1-.48,1.72,0,.39-.19.87.38,1.25l-.19.1c.19.48.28.48.67.86,0-.86-.76-2.59,0-3.45a.57.57,0,0,1,0-.13h.07l-.07-.07v-.16a1.88,1.88,0,0,0,1.11-1.59l.3.29c0-.46-.21-1.16-.29-1.84a5,5,0,0,1,0-.55l0-.05a1.54,1.54,0,0,1,.33-1C312,201.81,312.56,199.9,310.84,199.23Zm.84,3.25a.8.8,0,0,0-.23.18,8,8,0,0,1,.16-1.09C311.72,201.89,312.1,202.15,311.68,202.48Z" fill="#50d6cc"/><polygon points="310.54 199.03 310.83 199.22 311.02 199.03 310.54 199.03" fill="#50d6cc"/><path d="M308.55,203.69c-.77-.86,0-2.58,0-3.45-.38.39-.47.39-.66.87l.18.09c-.57.4-.38.87-.38,1.25-.85.67.39,1.72.49,1.72.48.38-.1.67-.1,1.05-.09.58-.76,1.54-.76,2.21h0C309,206.75,308.45,204.85,308.55,203.69Z" fill="#50d6cc"/><polygon points="315.97 202.7 316.26 202.88 316.45 202.7 315.97 202.7" fill="#50d6cc"/><path d="M314,207.36c-.76-.86,0-2.58,0-3.45-.38.39-.47.39-.67.86l.19.1c-.57.38-.38.86-.38,1.24-.86.67.39,1.72.48,1.72.48.4-.09.68-.09,1.07-.1.57-.77,1.53-.77,2.21h0C314.47,210.43,313.89,208.51,314,207.36Z" fill="#50d6cc"/><polygon points="312.93 211.28 312.74 211.11 312.45 211.29 312.93 211.28" fill="#50d6cc"/><path d="M322,202.64c-.1-1.16.49-3.07-1.24-3.75h0c0,.67.67,1.63.76,2.21,0,.37.58.66.1,1-.1,0-1.34,1.06-.48,1.72,0,.4-.2.87.38,1.25l-.19.1c.19.48.28.48.67.86C322,205.21,321.21,203.49,322,202.64Z" fill="#50d6cc"/><polygon points="320.45 198.71 320.73 198.9 320.92 198.71 320.45 198.71" fill="#50d6cc"/><path d="M318.45,203.37c-.77-.86,0-2.59,0-3.45-.38.39-.47.39-.67.86l.19.09c-.57.39-.38.87-.38,1.25-.85.68,1,1.34.2,1.92.1-.1.19-.18.29-.18.48.37-.1.67-.1,1a6.06,6.06,0,0,1-.46,1.17c0-1.13.24-2.61-1.23-3.2h0a2.35,2.35,0,0,0,.2.8,1.35,1.35,0,0,0-.37.58l.18.1c-.57.38-.38.85-.38,1.25-.85.67,1,1.34.2,1.91a.58.58,0,0,1,.25-.17.65.65,0,0,0,.21.41c-.07.2-.27.4-.27.62-.09.58-.76,1.54-.76,2.21h0a1.87,1.87,0,0,0,1.23-1.71.89.89,0,0,0,.26.25l-.19.09c.19.47.28.47.66.86a14.88,14.88,0,0,1-.28-2.77h.18l-.15-.15s0-.05,0-.07C318.92,206.4,318.35,204.52,318.45,203.37Zm-1.83,3.24a4,4,0,0,1,0-2.47,4.26,4.26,0,0,1,.36,1c0,.38.57.67.1,1A1.75,1.75,0,0,0,316.62,206.61Z" fill="#50d6cc"/><path d="M323,202.7c0-.81.33-1.73.33-2.29-.39.38-.48.38-.67.85l.19.11c-.57.38-.38.85-.38,1.23-.86.69.38,1.74.48,1.74.48.37-.1.67-.09,1-.1.58-.77,1.53-.77,2.21h0c1.73-.67,1.14-2.58,1.24-3.73a1.66,1.66,0,0,1-.34-1.15l.27.18.19-.19Z" fill="#50d6cc"/><path d="M323.31,202.89h0c0,.68.67,1.64.76,2.21,0,.38.57.67.1,1.05-.1,0-1.35,1.06-.48,1.73,0,.38-.2.85.38,1.25l-.19.09c.19.47.28.47.67.86,0-.86-.76-2.58,0-3.45C324.45,205.48,325,203.58,323.31,202.89Z" fill="#50d6cc"/><path d="M321,207.37c-.76-.86,0-2.58,0-3.44-.38.38-.47.38-.67.85l.19.11a.78.78,0,0,0-.21.19c0-1,0-2.21-1.25-2.7h0c0,.68.66,1.64.76,2.2,0,.39.57.68.09,1.06-.09,0-1.34,1.05-.48,1.72,0,.39-.19.87.38,1.25l-.19.1c.2.48.29.48.67.86a14.69,14.69,0,0,1-.29-2.75c.23.43.85.85.35,1.24.1-.11.19-.19.29-.19.47.37-.1.67-.1,1-.09.57-.76,1.53-.76,2.21h0C321.5,210.43,320.92,208.52,321,207.37Z" fill="#50d6cc"/><polygon points="319.96 211.29 319.77 211.12 319.49 211.31 319.96 211.29" fill="#50d6cc"/><polygon points="329.4 198.72 329.68 198.9 329.87 198.72 329.4 198.72" fill="#50d6cc"/><path d="M329.69,198.9h0c0,.67.67,1.63.76,2.21,0,.38.58.67.1,1-.1,0-1.34,1.05-.48,1.72,0,.4-.19.87.38,1.25l-.19.11c.19.47.28.47.67.85,0-.87-.76-2.59,0-3.44C330.83,201.49,331.41,199.58,329.69,198.9Z" fill="#50d6cc"/><polygon points="326.34 207.3 326.15 207.12 325.87 207.3 326.34 207.3" fill="#50d6cc"/><path d="M327.39,203.38c-.76-.85,0-2.59,0-3.46-.32.34-.44.4-.58.7a1.78,1.78,0,0,0-1.14-1.23h0c0,.67.67,1.62.76,2.21a.67.67,0,0,0,.1.29,1.94,1.94,0,0,1,0,.24.69.69,0,0,0-.26.37s0,0,0-.05,0,0,0,.05a.83.83,0,0,0,0,.56c-.25.41-.85.85-.28,1.3,0,.39-.2.86.38,1.25l-.19.1a1.5,1.5,0,0,0,.22.41,2.6,2.6,0,0,0-.29,1h0C327.88,206.44,327.3,204.53,327.39,203.38Zm-.48-2.5s0,0,0,0a.13.13,0,0,1,0-.06Zm0,4a2.37,2.37,0,0,1-.19.57,3.89,3.89,0,0,1-.06-1.91,1.21,1.21,0,0,0,.35.3C327.48,204.24,326.91,204.53,326.91,204.91Z" fill="#50d6cc"/><path d="M337,199.15h0c0,.67.67,1.63.76,2.21,0,.38.57.67.09,1-.09,0-1.34,1.05-.48,1.72,0,.39-.19.86.38,1.25l-.19.09c.2.48.29.48.67.87,0-.87-.75-2.59,0-3.46C338.11,201.74,338.69,199.83,337,199.15Z" fill="#50d6cc"/><polygon points="336.68 198.96 336.96 199.15 337.15 198.96 336.68 198.96" fill="#50d6cc"/><polygon points="333.62 207.55 333.43 207.36 333.15 207.55 333.62 207.55" fill="#50d6cc"/><path d="M334.67,203.62c-.76-.86,0-2.58,0-3.45-.38.38-.47.38-.66.85l.19.11c-.58.38-.39.86-.38,1.25-.86.67.38,1.72.48,1.72.47.38-.1.67-.1,1.06-.09.57-.76,1.53-.76,2.2h0C335.16,206.68,334.58,204.77,334.67,203.62Z" fill="#50d6cc"/><path d="M340.46,205.94c-.76-.87,0-2.59,0-3.46-.38.39-.47.39-.66.87l.19.09c-.58.4-.39.87-.38,1.25-.86.67.38,1.72.48,1.72.47.38-.1.67-.1,1.05-.09.59-.76,1.54-.76,2.21h0C341,209,340.37,207.08,340.46,205.94Z" fill="#50d6cc"/><polygon points="339.41 209.86 339.22 209.67 338.94 209.86 339.41 209.86" fill="#50d6cc"/><polygon points="346.58 198.63 346.87 198.82 347.06 198.63 346.58 198.63" fill="#50d6cc"/><path d="M346.87,198.82h0c0,.67.66,1.63.76,2.19,0,.4.57.69.09,1.07-.1,0-1.34,1-.48,1.72,0,.39-.19.87.38,1.25l-.19.1c.19.48.28.48.67.86,0-.86-.76-2.59,0-3.45C348,201.41,348.6,199.5,346.87,198.82Z" fill="#50d6cc"/><path d="M344.58,203.3c-.77-.86,0-2.59,0-3.46-.38.39-.48.39-.67.87l.19.09c-.57.39-.38.87-.38,1.25-.8.64.74,1.26.32,1.81a.26.26,0,0,1,.16-.09c.48.38-.09.67-.09,1a5.68,5.68,0,0,1-.47,1.19c0-1.07.22-2.44-1-3.08a3.8,3.8,0,0,0,.07-.61l-.3.29h-.32l.2.13a1.37,1.37,0,0,0-.25.45l.19.09c-.58.39-.38.86-.38,1.25-.86.67.39,1.73.48,1.73.48.37-.09.67-.09,1-.1.58-.77,1.54-.77,2.21h0a1.89,1.89,0,0,0,1.23-1.75l0,0c0,.38-.19.85.38,1.23l-.19.11c.19.47.29.47.67.86a14.3,14.3,0,0,1-.29-2.78h.19l-.15-.15s0,0,0-.06C345.05,206.31,344.49,204.44,344.58,203.3Zm-1.84,3.26a6.93,6.93,0,0,1,0-.79c-.5-.55-.35-1.48-.19-2.29a13.78,13.78,0,0,1,.61,1.53c0,.38.57.68.09,1.05A1.73,1.73,0,0,0,342.74,206.56Z" fill="#50d6cc"/><path d="M344,203.86l-.12.11Z" fill="#50d6cc"/><path d="M349.44,202.82h0a.88.88,0,0,0,0,.16l0-.17h0l.19-.18h-.21c0-.85.33-1.84.33-2.43-.39.39-.48.39-.67.87l.19.09c-.58.39-.38.87-.38,1.25-.87.67.38,1.72.48,1.72.48.39-.1.67-.1,1.05-.09.58-.76,1.54-.76,2.21h0c1.62-.63,1.2-2.36,1.23-3.53a6.07,6.07,0,0,1,.45,1.15c0,.38.58.68.1,1.06-.1,0-1.35,1-.49,1.73,0,.38-.19.85.39,1.23l-.19.11c.19.47.28.47.67.86,0-.87-.76-2.6,0-3.45C350.58,205.4,351.16,203.49,349.44,202.82Z" fill="#50d6cc"/><polygon points="345.33 209.19 345.14 209 344.86 209.19 345.33 209.19" fill="#50d6cc"/><path d="M346.39,205.26a1.2,1.2,0,0,1-.13-.21h0c-.06-.63.09-1.48,0-2.23a5.4,5.4,0,0,0,.15-1l-.36.35a1.75,1.75,0,0,0-1-.86l.18-.19h-.47l.28.19a5.54,5.54,0,0,0,.61,1.73c-.23.33-.11.68-.11,1-.48.38-.3.87,0,1.23-.26.34-.54.68-.1,1,0,.37-.15.8.29,1.17l-.08.17h0a3.77,3.77,0,0,0-.44,1.36h0a1.83,1.83,0,0,0,.89-.69l.2.19a3,3,0,0,0-.05-.48A8.37,8.37,0,0,0,346.39,205.26Zm-.34-1.12a.29.29,0,0,1,0,.16A.81.81,0,0,1,346.05,204.14Zm-.08,1.57,0,0c.39.32.08.57,0,.86A2.88,2.88,0,0,1,346,205.71Z" fill="#50d6cc"/><polygon points="355.53 198.63 355.82 198.82 356.01 198.64 355.53 198.63" fill="#50d6cc"/><path d="M355.83,198.83h0c0,.68.66,1.64.76,2.2,0,.39.57.69.09,1.06-.1,0-1.34,1-.48,1.73,0,.38-.19.86.38,1.24l-.19.11c.19.47.28.47.67.85,0-.86-.76-2.59,0-3.45C357,201.42,357.54,199.51,355.83,198.83Z" fill="#50d6cc"/><polygon points="352.47 207.24 352.28 207.04 352 207.24 352.47 207.24" fill="#50d6cc"/><path d="M353.53,203.31a1.38,1.38,0,0,1-.27-.54c0-.45,0-1,0-1.5a8.26,8.26,0,0,0,.22-1.42c-.18.19-.3.29-.4.4a1.72,1.72,0,0,0-1.08-1.06h0a8.06,8.06,0,0,0,.69,2,1.79,1.79,0,0,0-.06.91.7.7,0,0,0-.26.83c-.28.36-.5.88,0,1.27,0,.39-.19.87.38,1.25l-.19.11.11.22a3.7,3.7,0,0,0-.42,1.3h0a1.81,1.81,0,0,0,.92-.72l.05.05s0-.09,0-.13C353.74,205.37,353.46,204.14,353.53,203.31Zm-.49,1.52s0,0,0,.07a3.81,3.81,0,0,1-.07-1.25.61.61,0,0,0,.18.13C353.61,204.16,353,204.45,353,204.83Z" fill="#50d6cc"/><path d="M362.77,201.3h0c0,.69.67,1.65.76,2.21,0,.39.57.68.1,1.06-.1,0-1.34,1.05-.49,1.73,0,.38-.19.86.38,1.24l-.19.1c.2.47.29.47.67.86,0-.87-.75-2.59,0-3.45C363.91,203.89,364.49,202,362.77,201.3Z" fill="#50d6cc"/><polygon points="362.47 201.11 362.76 201.29 362.95 201.11 362.47 201.11" fill="#50d6cc"/><path d="M368.13,198.83h0c0,.68.66,1.64.76,2.21,0,.38.57.68.09,1.05a1.8,1.8,0,0,0-.75,1c-.41-.91.19-2.37.18-3.15-.38.4-.47.4-.66.87l.18.09c-.57.39-.38.87-.38,1.25-.86.68.39,1.74.49,1.74.47.37-.1.66-.1,1-.09.57-.76,1.53-.76,2.21h0c1.56-.61,1.23-2.24,1.22-3.4a.81.81,0,0,0,.09.1c0,.38-.19.86.38,1.24l-.19.11c.19.47.29.47.67.85,0-.86-.76-2.59,0-3.45C369.26,201.42,369.84,199.51,368.13,198.83Z" fill="#50d6cc"/><polygon points="367.83 198.64 368.12 198.83 368.31 198.65 367.83 198.64" fill="#50d6cc"/><path d="M365.83,203.31a1.63,1.63,0,0,1-.33-1.05.53.53,0,0,1,.06-.1,5,5,0,0,1,0-.67,15.69,15.69,0,0,0,.26-1.63l-.27.26a1.85,1.85,0,0,0-1.22-1.69h0c0,.67.66,1.63.76,2.19a.68.68,0,0,0,.11.33.77.77,0,0,0-.26.58l0,0s0,0,0,0c0,.19,0,.37,0,.54a.68.68,0,0,0-.27.43c-.22.29-.39.6,0,.91,0,.38-.19.86.38,1.24l-.19.1a1.38,1.38,0,0,0,.33.53,6.06,6.06,0,0,0-.62,1.77h0C366.32,206.37,365.74,204.46,365.83,203.31Zm-.43,1.32c-.06-.32-.12-.66-.16-1a.63.63,0,0,0,.2.14C365.83,204.1,365.54,204.34,365.4,204.63Z" fill="#50d6cc"/><polygon points="364.78 207.24 364.59 207.05 364.3 207.24 364.78 207.24" fill="#50d6cc"/><polygon points="372.69 201.75 372.98 201.94 373.17 201.75 372.69 201.75" fill="#50d6cc"/><path d="M373,201.94h0c0,.67.66,1.62.76,2.2,0,.38.58.68.09,1.06-.09,0-1.34,1.05-.48,1.72,0,.38-.19.85.38,1.24l-.19.1c.2.48.29.48.67.87,0-.87-.75-2.59,0-3.46C374.13,204.52,374.71,202.62,373,201.94Z" fill="#50d6cc"/><polygon points="370.56 208.86 370.37 208.67 370.08 208.86 370.56 208.86" fill="#50d6cc"/><path d="M378,198.51h0c0,.67.67,1.63.76,2.21,0,.38.57.67.1,1-.1,0-1.34,1.05-.49,1.72,0,.39-.19.87.38,1.25l-.18.1c.19.48.28.48.66.86,0-.87-.75-2.59,0-3.44C379.17,201.09,379.75,199.18,378,198.51Z" fill="#50d6cc"/><polygon points="377.73 198.31 378.02 198.5 378.21 198.31 377.73 198.31" fill="#50d6cc"/><path d="M376.12,202.4c-.76-.86,0-2.58,0-3.45-.38.38-.47.38-.67.86l.19.1c-.57.38-.38.86-.38,1.24-.86.68.39,1.73.48,1.73.48.38-.09.67-.09,1.06-.1.56-.76,1.53-.76,2.2h0C376.61,205.47,376,203.55,376.12,202.4Z" fill="#50d6cc"/><polygon points="375.07 206.32 374.88 206.14 374.59 206.32 375.07 206.32" fill="#50d6cc"/><path d="M381.51,201.79a2.14,2.14,0,0,0-1.26-2.34h0a3.45,3.45,0,0,0,.38,1.23h-.43l.28.19.17-.17.13.3a2,2,0,0,0-.29-.14h0a6.24,6.24,0,0,0,.65,1.82s0,0,0,0-1.34,1-.49,1.72a5.82,5.82,0,0,0,0,.6.71.71,0,0,0,.24.8l0,0c0,.39-.19.86.38,1.23l-.19.11c.19.47.28.47.66.85a8.51,8.51,0,0,0-.23-1.43,3.75,3.75,0,0,0-.09-.68,1.8,1.8,0,0,1,.33-1.33A8,8,0,0,0,381.51,201.79Zm-.18,2.33a.72.72,0,0,0-.18.12,1.88,1.88,0,0,1,.2-.83C381.49,203.64,381.65,203.86,381.33,204.12Z" fill="#50d6cc"/><polygon points="376.64 209.8 376.45 209.61 376.17 209.81 376.64 209.8" fill="#50d6cc"/><polygon points="386.69 198.32 386.97 198.52 387.16 198.32 386.69 198.32" fill="#50d6cc"/><path d="M387,198.52h0c0,.67.67,1.62.76,2.2,0,.38.57.67.1,1.05-.1,0-1.35,1-.48,1.72,0,.39-.2.87.38,1.25l-.19.09c.19.49.28.49.66.87,0-.87-.75-2.59,0-3.44C388.12,201.1,388.7,199.19,387,198.52Z" fill="#50d6cc"/><path d="M384.68,203c-.76-.87,0-2.58,0-3.45-.38.38-.47.38-.67.86l.19.1c-.57.38-.38.86-.38,1.24a.85.85,0,0,0-.2.23c0-1-.06-2-1.25-2.51h0c0,.67.66,1.64.76,2.21,0,.38.57.66.09,1.05-.09,0-1.34,1.05-.48,1.73,0,.37-.19.85.38,1.24l-.19.09a1.69,1.69,0,0,0,.55.76,1.23,1.23,0,0,0,0,.19h0C385.17,206.05,384.59,204.13,384.68,203Zm-.48,1.54c-.07.43-.48,1.1-.66,1.69-.15-.92-.6-2.28,0-3a5.61,5.61,0,0,1,0-.58,1.84,1.84,0,0,0,.7.84C384.77,203.85,384.2,204.14,384.2,204.53Z" fill="#50d6cc"/><polygon points="383.63 206.92 383.44 206.73 383.16 206.92 383.63 206.92" fill="#50d6cc"/><polygon points="357.68 208.87 357.49 208.69 357.2 208.87 357.68 208.87" fill="#50d6cc"/><polygon points="359.89 205.73 359.7 205.55 359.41 205.73 359.89 205.73" fill="#50d6cc"/><polygon points="385.4 208.35 385.21 208.16 384.92 208.35 385.4 208.35" fill="#50d6cc"/><path d="M386.45,204.42c-.77-.85,0-2.58,0-3.44-.38.38-.48.38-.67.85l.19.1c-.57.39-.38.86-.38,1.26-.86.67.38,1.71.48,1.71.48.39-.09.68-.09,1-.1.57-.76,1.54-.76,2.21h0C386.93,207.48,386.35,205.57,386.45,204.42Z" fill="#50d6cc"/><polygon points="382.06 199.27 382.35 199.46 382.54 199.27 382.06 199.27" fill="#50d6cc"/><polygon points="381.26 215.32 381.41 215.55 381.45 215.5 381.26 215.32" fill="#50d6cc"/><path d="M380.88,215.23h-.09v.67h.1a1.62,1.62,0,0,0,.72-.08l-.19-.27-.34.34C380.79,215.7,381,215.41,380.88,215.23Z" fill="#50d6cc"/><path d="M381.7,215.79l-.1,0,0,.08Z" fill="#50d6cc"/><path d="M381.74,215.7l0,.09C381.81,215.75,381.85,215.7,381.74,215.7Z" fill="#50d6cc"/><path d="M378.68,215.89c.19-.11.28.09.38.19l-.19.1H380c.76,0,.28-.48.38-.86-.38.29-.95.29-1.05.76-.1-.19-.38-.3-.28-.57-.46.35-.82,0-1.18.46C378.22,216.13,378.67,216.4,378.68,215.89Z" fill="#50d6cc"/><path d="M377.81,216.07a.86.86,0,0,1,.07-.1.63.63,0,0,0-.26-.08Z" fill="#50d6cc"/><path d="M368.81,217c.58-.29,1.15-.86,1.73-.48a6.66,6.66,0,0,0,.95-.66c-.75,0-2.09.84-2.8,1Z" fill="#50d6cc"/><path d="M368.34,216.91a.64.64,0,0,0,.35,0l-.16-.16Z" fill="#50d6cc"/><path d="M371.6,215.85h0s0,0-.1,0Z" fill="#50d6cc"/><path d="M367.28,216.91v-.39a4.38,4.38,0,0,1-1.53-.67l-.19.28c-.1,0-.19-.19-.29-.09s0,.37-.19.47a2.9,2.9,0,0,1-.76.44l.09,0C365.27,216.51,366,216,367.28,216.91Z" fill="#50d6cc"/><path d="M364.22,216.89a2,2,0,0,1-.27.17l.37-.11Z" fill="#50d6cc"/><path d="M353.48,221l.19-.18-.24.12.05.07Z" fill="#50d6cc"/><path d="M353.43,220.92l-.24-.32c-1.63.38-3.35-.11-4,.85C350.51,221.36,352.12,221.61,353.43,220.92Z" fill="#50d6cc"/><path d="M356.42,226.36a.43.43,0,0,0-.12.11,1.18,1.18,0,0,0,.38,0C356.6,226.37,356.53,226.31,356.42,226.36Z" fill="#50d6cc"/><path d="M355.85,226.16l-.29.28c-.19,0-.19-.28-.18-.47l-.19.19c-.1-.28-.39-.85-.86-.68-.77.87.57.3.85,1.16.19.19.86.38.86-.19a.49.49,0,0,1,.19.38.7.7,0,0,1,.07-.36,1.71,1.71,0,0,1-.55-.12Z" fill="#50d6cc"/><path d="M356.91,226.83h0C356.63,227.11,356.83,227,356.91,226.83Z" fill="#50d6cc"/><path d="M358.62,226.45c-.09,0-.18-.09-.18-.28-.67-.2-1.15.18-1.76.28a1,1,0,0,0,.22.2c.06,0,0,.12,0,.18a.53.53,0,0,1,.38.2v-.58h.86v.2Z" fill="#50d6cc"/><path d="M349.72,227.68c1.15-.09,3.06.48,3.74-1.24h0c-.68,0-1.64.67-2.21.77-.38,0-.67.56-1.05.09a.49.49,0,0,1,.19-.29c-.57.77-1.24-1.06-1.92-.2-.38,0-.86-.2-1.24.39l-.1-.19a1.39,1.39,0,0,0-.65.45c-1.42.15-2.79-.1-3.37.73,1.35-.09,2.95.16,4.26-.53l-.1-.13C348.12,227.35,349.12,227.15,349.72,227.68Z" fill="#50d6cc"/><polygon points="353.65 226.15 353.45 226.43 353.65 226.63 353.65 226.15" fill="#50d6cc"/><path d="M361.77,234.59c-.67.87-1.54.58-2.3.19.19.19.57.39.57.68-1.62,1.24-3.35-1.73-4.69-.21-1,.38-2.59.57-3.45-.48l.19-.2h0c-.28-1.05-1.43-.09-1.53-.19-1.72.57-2.11.38-3.64,1.42a5.93,5.93,0,0,0,2.2-.75c1.15.1,2.4-1.35,2.78.57,1.34,1.16,3.17,0,4.31-.37,1.43,1.25,3.16.68,4.79.4.19-.95,1.91-.29,1.44-1.43C362.15,234.12,362,234.41,361.77,234.59Z" fill="#50d6cc"/><polygon points="373.06 240 373.06 240 373.06 240 373.06 240" fill="#50d6cc"/><polygon points="358.95 248.82 358.95 248.82 358.96 248.82 358.95 248.82" fill="#50d6cc"/><path d="M360.49,248.45c-.38.38-.57,0-1,.37-.17,0-.11.13-.13.27a.32.32,0,0,1,.13-.07C360.2,249.31,360.39,248.45,360.49,248.45Z" fill="#50d6cc"/><path d="M359.4,249.09a.27.27,0,0,0-.06.1A.11.11,0,0,0,359.4,249.09Z" fill="#50d6cc"/><path d="M359.34,249.49a1.5,1.5,0,0,1,0-.3.26.26,0,0,1-.19,0,.56.56,0,0,1-.19-.4c-1.82.57-1.71-2.1-3.63-1.92-1.16,0-2.88.76-3.74.36,1,1.54,1.92-.46,3.06.31C356.38,246.33,357.71,250.15,359.34,249.49Z" fill="#50d6cc"/><path d="M371.3,249.47c.29-.19.86-.19.77-.66H370.7a1.75,1.75,0,0,1,.32.29h0a.56.56,0,0,1-.42.13.66.66,0,0,1,0,.24Z" fill="#50d6cc"/><path d="M370.6,249.23c-.05-.11-.15-.07-.26,0A.75.75,0,0,0,370.6,249.23Z" fill="#50d6cc"/><path d="M370.35,248.8h.35A.28.28,0,0,0,370.35,248.8Z" fill="#50d6cc"/><path d="M375.8,218h-.1v.68h.1a1.57,1.57,0,0,0,.71-.07l-.18-.28-.35.35C375.7,218.45,375.9,218.17,375.8,218Z" fill="#50d6cc"/><path d="M376.61,218.54l-.1,0,.05.07Z" fill="#50d6cc"/><polygon points="376.18 218.07 376.33 218.3 376.37 218.26 376.18 218.07" fill="#50d6cc"/><path d="M376.66,218.45l-.05.09C376.73,218.49,376.76,218.45,376.66,218.45Z" fill="#50d6cc"/><path d="M372.73,218.83a1.05,1.05,0,0,1,.07-.11.92.92,0,0,0-.26-.08Z" fill="#50d6cc"/><path d="M363.44,219.48l-.19.18a.73.73,0,0,0,.35,0Z" fill="#50d6cc"/><path d="M365.45,219.29a6.25,6.25,0,0,0,.93-.66,15.69,15.69,0,0,0-2.78,1l.13.12C364.3,219.48,364.88,218.9,365.45,219.29Z" fill="#50d6cc"/><path d="M366.5,218.62c0-.06,0-.05-.12,0a.29.29,0,0,1,.13,0Z" fill="#50d6cc"/><path d="M359.13,219.65l-.25.16.35-.11Z" fill="#50d6cc"/><path d="M362.19,219.66v-.38h0a4.61,4.61,0,0,1-1.52-.67l-.19.28c-.1,0-.19-.19-.29-.09s0,.38-.19.47a2.61,2.61,0,0,1-.76.43l.09,0C360.18,219.27,361,218.8,362.19,219.66Z" fill="#50d6cc"/><path d="M352.23,220.49c1.92-1.26,4.88.34,6.65-.68a6.61,6.61,0,0,1-2.34.12c-1.62-1-3.63.28-5.55.37C351.27,220.58,351.84,220.39,352.23,220.49Z" fill="#50d6cc"/><path d="M348.39,223.74l.18-.19c-.07,0-.16.08-.23.13l.05.07Z" fill="#50d6cc"/><path d="M348.34,223.68l-.24-.31c-1.63.37-3.35-.12-4,.83C345.43,224.13,347,224.36,348.34,223.68Z" fill="#50d6cc"/><path d="M351.6,229.22c-.08-.09-.16-.16-.26-.11a.27.27,0,0,0-.13.13A1.64,1.64,0,0,0,351.6,229.22Z" fill="#50d6cc"/><path d="M342.6,230.07c.83-.06,2,.21,2.93-.27a2.47,2.47,0,0,0,2.11-.46,10.38,10.38,0,0,1,2.58.14.79.79,0,0,0,.45.1l.22.06a2.31,2.31,0,0,0,.79.11h0a1.67,1.67,0,0,0,.39-.05.44.44,0,0,1,.11.09v-.12a3.37,3.37,0,0,0,.86-.4v.13l.47-.19c-.06,0-.11-.06-.15-.16a3.47,3.47,0,0,1,1.71-.78l0,0-.14.15.34,0s.08,0,.11.08a9,9,0,0,0,2.75-.19,1.65,1.65,0,0,1,.25.15c1-.08,2.7.38,3.51-.82v0a2.16,2.16,0,0,0,.18-.34.48.48,0,0,0,.12,0l.1.11v-.13h.05a.1.1,0,0,0-.05,0v-.3l-.17.24s0,0-.05,0l-.06,0a1.45,1.45,0,0,0-.28,0,1.39,1.39,0,0,1-.33-.1l.1-.19-.3.28c-.19,0-.19-.28-.19-.47l-.19.19c-.09-.29-.38-.86-.85-.67-.77.85.57.28.85,1.14a.56.56,0,0,0,.15.1A5.59,5.59,0,0,1,360,228c-.38,0-.67.57-1.05.09,0-.09.09-.19.19-.28a.37.37,0,0,1-.4.18,1.92,1.92,0,0,0,.47-.72h0a2.88,2.88,0,0,0-1.1.34c-.29-.22-.59-.36-.89,0-.39,0-.86-.2-1.25.37l-.09-.19-.31.15c-.42-.23-.88-.89-1.34-.3-.39,0-.86-.2-1.25.37l-.09-.19c-.48.2-.48.29-.87.67.48,0,1.23-.22,1.94-.3a4.52,4.52,0,0,0-.45.61l-.3.12a4.59,4.59,0,0,0-1.58.32l.13.12a3.64,3.64,0,0,1-.57,0,.34.34,0,0,1,0-.14,1.42,1.42,0,0,1-.54-.13l.1-.19-.29.28c-.19,0-.19-.28-.19-.47l-.19.19c-.1-.29-.38-.87-.85-.67-.31.34-.28.45-.12.52a9.78,9.78,0,0,1-3.41.91,1.89,1.89,0,0,0,.62-.85c-.68,0-1.64.66-2.21.76-.37,0-.66.58-1.05.09,0-.09.09-.19.19-.28-.58.77-1.24-1.06-1.91-.2-.39,0-.86-.19-1.25.39l-.1-.2c-.48.2-.48.29-.86.68C340,230.07,341.74,229.31,342.6,230.07Zm19.17-2.82v0h0Zm-5.62,1,.36-.06A.47.47,0,0,1,356.15,228.26Zm-3.95.94h.12l-.12,0Zm-1.11.18h-.16a.48.48,0,0,0,0-.18A1,1,0,0,1,351.09,229.38Z" fill="#50d6cc"/><polygon points="346.52 228.54 346.34 228.83 346.52 229.02 346.52 228.54" fill="#50d6cc"/><path d="M374.79,234.44a1.15,1.15,0,0,1-.21.23,1.08,1.08,0,0,0,.8-.26,2.64,2.64,0,0,0-.5.22Z" fill="#50d6cc"/><path d="M369,234.33h-1.53c-1.62-2.21-4.11-.29-6.21-.4,2,.39,4.4-1.71,5.74.69,1.14.38,2.3-.38,3.25-.66a2.42,2.42,0,0,1,2.58.67,1.3,1.3,0,0,0,1.71,0c-.92-.08-1.92-1.1-2.28-1.1C371.15,233.1,370.1,233.86,369,234.33Z" fill="#50d6cc"/><path d="M345.38,239c1.33,1.15,3.16,0,4.31-.37a2,2,0,0,0,.35.24,2,2,0,0,0-1.57.63,28.15,28.15,0,0,0,3-.12l.39,0a5.92,5.92,0,0,1-3,.44,2.4,2.4,0,0,0,2.58-.29,9.7,9.7,0,0,1,3.26.31c2.1.67,2.88-1.73,4.69-1.33.19-.87-.57.08-.57-.67A2,2,0,0,0,357.3,239c-1,.43-2.45,1-3.7.19l.87-.16c.2-1,1.92-.29,1.45-1.43-.29-.09-.49.19-.68.38-.66.86-1.53.58-2.3.19.19.19.58.39.58.67a1,1,0,0,1-.22.13.48.48,0,0,1-.11-.09l-.41.16.19-.2-.24.13,0,.07-.26.11-.12,0a2.49,2.49,0,0,0,.33-.16l-.24-.31a6.65,6.65,0,0,1-1.08.14c-.92-.44-1.81-1-2.58-.16-1,.38-2.59.57-3.45-.48l.19-.21h0c-.28-1.06-1.43-.1-1.53-.2-1.73.57-2.11.37-3.64,1.43a6.4,6.4,0,0,0,2.2-.76C343.75,238.55,345,237.12,345.38,239Z" fill="#50d6cc"/><path d="M366.44,243.91c-1.16.47-2.78,1.13-4.12-.11-1.06.38-2.68,1.23-4.32.95a2.44,2.44,0,0,0,2.59-.29,9.88,9.88,0,0,1,3.25.3c2.11.67,2.88-1.71,4.7-1.32.19-.86-.57.06-.57-.67A1.92,1.92,0,0,0,366.44,243.91Z" fill="#50d6cc"/><path d="M368,242.75v0h0Z" fill="#50d6cc"/><path d="M370.07,243.62h0c-.2-.47-.2,0-.48-.38l-.19.57C369.59,243.72,370,243.91,370.07,243.62Z" fill="#50d6cc"/><path d="M365.39,254.72a.19.19,0,0,0-.07.11A.14.14,0,0,0,365.39,254.72Z" fill="#50d6cc"/><path d="M366.47,254.07c-.38.4-.57,0-1,.39-.17-.05-.1.13-.12.26a.42.42,0,0,1,.12-.07C366.18,254.94,366.38,254.07,366.47,254.07Z" fill="#50d6cc"/><path d="M369.83,254.38l.24,0C370,254.32,369.93,254.34,369.83,254.38Z" fill="#50d6cc"/><polygon points="372.54 224.89 372.35 225.17 372.53 225.37 372.54 224.89" fill="#50d6cc"/><path d="M367.36,225.55c-.39,0-.86-.19-1.25.37l-.09-.18c-.48.19-.48.29-.87.67.87,0,2.6-.75,3.45,0,1.15-.1,3.06.49,3.74-1.24h0c-.68,0-1.64.67-2.21.76-.38,0-.68.59-1.05.1,0-.1.09-.19.19-.29C368.7,226.52,368,224.7,367.36,225.55Z" fill="#50d6cc"/><path d="M367.27,222.49l.19-.2-.24.13Z" fill="#50d6cc"/><path d="M363,223c1.36-.09,3,.15,4.27-.53l-.24-.31C365.35,222.48,363.63,222,363,223Z" fill="#50d6cc"/><path d="M372.42,228c-.09,0-.19-.1-.19-.29-.66-.2-1.14.18-1.75.29a1.18,1.18,0,0,0,.21.18.15.15,0,0,1,0,.2.49.49,0,0,1,.38.19V228h.86v.18Z" fill="#50d6cc"/><path d="M370.7,228.34h0C370.42,228.61,370.62,228.5,370.7,228.34Z" fill="#50d6cc"/><path d="M370.22,227.86a.3.3,0,0,0-.13.12,1.64,1.64,0,0,0,.39,0C370.4,227.87,370.32,227.8,370.22,227.86Z" fill="#50d6cc"/><path d="M369.65,227.66l-.29.29c-.19,0-.19-.29-.19-.48l-.19.19c-.1-.29-.38-.86-.85-.67-.77.86.57.29.85,1.14.19.2.86.4.86-.17a.48.48,0,0,1,.19.37.67.67,0,0,1,.06-.35,1.66,1.66,0,0,1-.54-.12Z" fill="#50d6cc"/><path d="M362.27,228.31c-.38,0-.86-.2-1.24.38l-.1-.19c-.47.19-.48.28-.87.67.87,0,2.6-.76,3.45,0,1.16-.1,3.07.48,3.74-1.24-.67,0-1.63.66-2.19.75-.39,0-.68.58-1.06.09,0-.09.09-.18.19-.27C363.61,229.27,363,227.44,362.27,228.31Z" fill="#50d6cc"/><polygon points="367.25 227.94 367.25 227.94 367.26 227.94 367.25 227.94" fill="#50d6cc"/><polygon points="367.44 227.65 367.26 227.94 367.44 228.12 367.44 227.65" fill="#50d6cc"/><path d="M342.09,217.37c-.39,0-.86-.18-1.25.38l-.1-.18c-.48.19-.48.28-.86.67.86,0,2.59-.75,3.45,0,1.15-.09,3.06.48,3.74-1.24-.67,0-1.63.66-2.2.75-.39,0-.68.57-1.06.1,0-.1.09-.19.19-.29C343.43,218.34,342.76,216.52,342.09,217.37Z" fill="#50d6cc"/><polygon points="347.26 216.72 347.07 217.01 347.26 217.2 347.26 216.72" fill="#50d6cc"/><path d="M343.27,215.34c-1.63.38-3.35-.1-4,.86,1.36-.09,3,.15,4.27-.54Z" fill="#50d6cc"/><path d="M343.56,215.72l.19-.18c-.08.05-.16.08-.24.12l.05.07Z" fill="#50d6cc"/><path d="M347,221.4a.15.15,0,0,1,0,.18.51.51,0,0,1,.37.19v-.57h.87v.19l.47-.19c-.09,0-.18-.11-.18-.29-.67-.2-1.15.18-1.76.29A1,1,0,0,0,347,221.4Z" fill="#50d6cc"/><path d="M347,221.58h0C346.71,221.85,346.91,221.74,347,221.58Z" fill="#50d6cc"/><path d="M346.76,221.2c-.08-.09-.15-.16-.26-.11a.37.37,0,0,0-.12.13A1.59,1.59,0,0,0,346.76,221.2Z" fill="#50d6cc"/><path d="M345.64,221.19c-.19,0-.19-.29-.19-.48l-.19.19c-.09-.29-.38-.86-.85-.67-.77.85.57.29.85,1.14.19.2.86.4.86-.18a.5.5,0,0,1,.19.38.67.67,0,0,1,.07-.35,1.51,1.51,0,0,1-.55-.13l.1-.19Z" fill="#50d6cc"/><path d="M343.54,221.19h0c-.67,0-1.63.66-2.2.75-.38,0-.68.57-1,.09,0-.09.08-.18.18-.28-.57.77-1.24-1.05-1.91-.19-.39,0-.86-.2-1.25.38l-.09-.2c-.48.2-.48.29-.87.67.87,0,2.59-.75,3.45,0C341,222.33,342.86,222.9,343.54,221.19Z" fill="#50d6cc"/><polygon points="343.73 220.89 343.54 221.18 343.73 221.36 343.73 220.89" fill="#50d6cc"/><path d="M352.86,242.15c-.38,0-.85-.2-1.24.38l-.1-.19c-.47.19-.47.28-.86.66.87,0,2.59-.75,3.45,0,1.15-.09,3.06.48,3.74-1.23h0c-.67,0-1.64.66-2.21.77-.39,0-.67.56-1.06.09,0-.1.1-.2.19-.29C354.21,243.1,353.54,241.29,352.86,242.15Z" fill="#50d6cc"/><polygon points="358.05 241.49 357.86 241.77 358.05 241.96 358.05 241.49" fill="#50d6cc"/><path d="M355.15,244.26l-.28.29c-.19,0-.19-.3-.19-.49l-.19.19c-.1-.29-.38-.86-.86-.67-.77.85.58.29.86,1.15.19.19.85.39.86-.18a.48.48,0,0,1,.18.38.71.71,0,0,1,.08-.36,1.66,1.66,0,0,1-.55-.12Z" fill="#50d6cc"/><path d="M357.92,244.55c-.1,0-.19-.09-.19-.29-.65-.2-1.14.18-1.75.29a1.37,1.37,0,0,0,.22.2.13.13,0,0,1,0,.18.51.51,0,0,1,.37.19v-.57h.86v.19Z" fill="#50d6cc"/><path d="M356.21,244.93h0C355.93,245.2,356.14,245.09,356.21,244.93Z" fill="#50d6cc"/><path d="M355.73,244.46a.19.19,0,0,0-.12.11,1.51,1.51,0,0,0,.37,0C355.91,244.47,355.83,244.41,355.73,244.46Z" fill="#50d6cc"/><path d="M352.51,244.11h0c-.68,0-1.64.67-2.21.76-.38,0-.66.58-1.05.09,0-.09.1-.18.18-.29-.57.78-1.23-1-1.91-.18-.38,0-.86-.2-1.24.37l-.1-.19c-.47.2-.47.29-.86.67.87,0,2.59-.75,3.45,0C349.92,245.25,351.83,245.83,352.51,244.11Z" fill="#50d6cc"/><polygon points="352.69 243.82 352.51 244.1 352.69 244.29 352.69 243.82" fill="#50d6cc"/><polygon points="372.63 234.59 372.44 234.87 372.63 235.07 372.63 234.59" fill="#50d6cc"/><path d="M367.56,232l-.24.13.05.06Z" fill="#50d6cc"/><path d="M367.08,231.81c-1.63.38-3.34-.11-4,.84-.14,0-.26,0-.27-.31a2,2,0,0,0-1.53,1.15c-1.15.47-2.78,1.13-4.12-.12-1.05.39-2.68,1.24-4.31.94a2.37,2.37,0,0,0,2.59-.28,9.9,9.9,0,0,1,3.25.3c2.1.67,2.87-1.71,4.7-1.33,0-.22,0-.32,0-.36,1.29,0,2.76.13,4-.51Z" fill="#50d6cc"/><path d="M369.74,237.36l-.29.29c-.19,0-.19-.29-.19-.48l-.18.18c-.11-.28-.39-.86-.86-.67-.78.87.57.28.86,1.15.18.2.85.39.85-.18a.52.52,0,0,1,.19.38.7.7,0,0,1,.07-.36,1.71,1.71,0,0,1-.55-.12Z" fill="#50d6cc"/><path d="M370.31,237.55a.34.34,0,0,0-.12.12,1.28,1.28,0,0,0,.39,0C370.5,237.57,370.42,237.5,370.31,237.55Z" fill="#50d6cc"/><polygon points="367.54 237.34 367.35 237.63 367.54 237.82 367.54 237.34" fill="#50d6cc"/><path d="M362.37,238c-.39,0-.86-.2-1.25.38l-.1-.18c-.47.18-.47.27-.86.66.87,0,2.59-.76,3.45,0,1.15-.09,3.06.49,3.74-1.22h0c-.68,0-1.63.67-2.21.76-.37,0-.66.57-1.05.09,0-.1.1-.19.19-.28C363.7,239,363,237.15,362.37,238Z" fill="#50d6cc"/><polygon points="352.49 230.41 352.49 230.41 352.49 230.41 352.49 230.41" fill="#50d6cc"/><polygon points="352.68 230.12 352.49 230.41 352.68 230.6 352.68 230.12" fill="#50d6cc"/><path d="M347.42,227.71l.19-.19-.24.13.05.07Z" fill="#50d6cc"/><path d="M350.85,233.58h0C350.57,233.84,350.77,233.73,350.85,233.58Z" fill="#50d6cc"/><path d="M349.79,232.89l-.29.29c-.19,0-.19-.29-.19-.47l-.18.18c-.1-.28-.38-.85-.86-.67-.77.86.57.29.86,1.15.19.19.85.39.85-.19a.49.49,0,0,1,.19.39.68.68,0,0,1,.07-.36,1.71,1.71,0,0,1-.55-.12Z" fill="#50d6cc"/><path d="M350.36,233.1a.43.43,0,0,0-.12.11,1.64,1.64,0,0,0,.39,0C350.55,233.1,350.47,233,350.36,233.1Z" fill="#50d6cc"/><path d="M352.56,233.19c-.09,0-.19-.09-.19-.29-.65-.2-1.13.18-1.74.29a.72.72,0,0,0,.21.18.18.18,0,0,1,0,.21.44.44,0,0,1,.37.18v-.57h.86v.18Z" fill="#50d6cc"/><path d="M342.87,234.33c1.15-.09,3.06.49,3.74-1.23h0c-.67,0-1.63.67-2.2.76-.38,0-.67.58-1.06.09,0-.09.1-.18.19-.29-.57.78-1.24-1.05-1.91-.18-.39,0-.86-.2-1.25.37l-.09-.19a2,2,0,0,0-.87.67C340.29,234.32,342,233.57,342.87,234.33Z" fill="#50d6cc"/><polygon points="346.8 232.81 346.61 233.09 346.79 233.28 346.8 232.81" fill="#50d6cc"/><polygon points="381.96 242.98 381.96 242.51 381.77 242.8 381.96 242.98" fill="#50d6cc"/><path d="M378.76,243.83c1.09-.43,1.85-1.55,3.14-1.28.2-.85-.56.07-.56-.66A1.94,1.94,0,0,0,379.8,243a10.08,10.08,0,0,1-1.18.43l.08-.09a.38.38,0,0,1-.09.09l-.34.09c-.47-.13-1-1-1.48-.37a2.69,2.69,0,0,0-.75,0,2.11,2.11,0,0,1-.35-.26c-1.06.39-2.69,1.24-4.31,1a2.39,2.39,0,0,0,2.58-.28,7.58,7.58,0,0,1,1.1,0,4.6,4.6,0,0,0-.48.46c.48,0,1.23-.22,1.95-.3.24.05.48.1.68.16a2.44,2.44,0,0,0,.76.12l.06,0c1.15-.09,3.06.5,3.74-1.22h0c-.68,0-1.64.66-2.21.75C379.27,243.55,379,243.88,378.76,243.83Z" fill="#50d6cc"/><path d="M376.89,239.92c-.08.05-.17.08-.25.12l.06.07Z" fill="#50d6cc"/><path d="M381.65,245.29c-.66-.2-1.14.18-1.74.29a1,1,0,0,0,.21.19.15.15,0,0,1,0,.18.49.49,0,0,1,.37.2v-.58h.86v.2l.48-.2C381.75,245.57,381.65,245.48,381.65,245.29Z" fill="#50d6cc"/><path d="M379.64,245.48a.26.26,0,0,0-.12.11,1.7,1.7,0,0,0,.39,0C379.83,245.49,379.75,245.43,379.64,245.48Z" fill="#50d6cc"/><path d="M380.13,246h0C379.85,246.22,380.05,246.11,380.13,246Z" fill="#50d6cc"/><path d="M379.07,245.28l-.29.28c-.19,0-.19-.28-.19-.48l-.19.2c-.09-.29-.38-.87-.85-.68-.77.87.57.29.85,1.16.19.19.86.38.86-.2a.56.56,0,0,1,.19.39.7.7,0,0,1,.07-.36,1.71,1.71,0,0,1-.55-.12Z" fill="#50d6cc"/><polygon points="376.87 245.26 376.69 245.55 376.87 245.73 376.87 245.26" fill="#50d6cc"/><path d="M373.53,246.21l-.34.08c-.47-.12-1-1-1.49-.37a2.84,2.84,0,0,0-.77,0,2.29,2.29,0,0,1-.33-.24c-1.06.38-2.69,1.22-4.31.93a2.39,2.39,0,0,0,2.58-.27,6.28,6.28,0,0,1,1.1,0,6.35,6.35,0,0,0-.48.47c.49,0,1.25-.23,2-.3a5.84,5.84,0,0,1,.66.15,2.23,2.23,0,0,0,.73.12l.08.05c1.15-.1,3.06.48,3.74-1.24h0c-.67,0-1.63.67-2.2.77-.3,0-.54.33-.81.26,1.09-.43,1.86-1.56,3.15-1.28.19-.85-.56.08-.57-.66a1.93,1.93,0,0,0-1.54,1.14c-.35.14-.75.3-1.18.43l.09-.09Z" fill="#50d6cc"/><polygon points="364.45 224.2 364.27 224.49 364.45 224.68 364.45 224.2" fill="#50d6cc"/><path d="M360.53,225.73c1.16-.09,3.06.48,3.74-1.24-.68,0-1.63.66-2.2.75-.38,0-.68.57-1.05.1,0-.1.09-.19.19-.29-.58.77-1.25-1-1.92-.2-.39,0-.86-.18-1.25.38l-.09-.18c-.48.19-.48.28-.87.67C358,225.72,359.67,225,360.53,225.73Z" fill="#50d6cc"/><path d="M362.62,227.45c.06.06,0,.13,0,.2a.49.49,0,0,1,.38.19v-.59l.86,0v.18l.47-.18c-.09,0-.18-.09-.18-.29-.66-.2-1.14.18-1.75.29A.91.91,0,0,0,362.62,227.45Z" fill="#50d6cc"/><path d="M362.63,227.65h0C362.35,227.92,362.55,227.81,362.63,227.65Z" fill="#50d6cc"/><polygon points="359.37 226.96 359.18 227.23 359.37 227.43 359.37 226.96" fill="#50d6cc"/><path d="M382.24,224.91c0-.09.1-.18.19-.29-.57.78-1.24-1-1.92-.19-.38,0-.86-.19-1.24.38l-.1-.19c-.48.2-.48.28-.86.67.81,0,2.37-.64,3.27-.09l-.15.21.19.2v-.39a.67.67,0,0,1,.14.09c1.15-.09,3.06.48,3.74-1.24-.68,0-1.63.66-2.21.75C382.91,224.82,382.62,225.39,382.24,224.91Z" fill="#50d6cc"/><polygon points="385.5 224.07 385.5 224.07 385.5 224.07 385.5 224.07" fill="#50d6cc"/><polygon points="385.69 223.78 385.5 224.07 385.69 224.25 385.69 223.78" fill="#50d6cc"/><path d="M380.43,221.37l.18-.18c-.07.05-.16.08-.24.13l.06.07Z" fill="#50d6cc"/><path d="M382.8,226.54l-.29.29c-.19,0-.18-.29-.18-.47l-.19.18c-.1-.28-.39-.87-.86-.66-.77.85.57.28.85,1.14.19.19.86.39.87-.19a.55.55,0,0,1,.18.39.7.7,0,0,1,.07-.36,1.71,1.71,0,0,1-.55-.12Z" fill="#50d6cc"/><path d="M383.86,227.23h0C383.58,227.49,383.78,227.38,383.86,227.23Z" fill="#50d6cc"/><path d="M385.58,226.84c-.1,0-.19-.09-.19-.29-.66-.19-1.14.18-1.75.29a.76.76,0,0,0,.21.19.18.18,0,0,1,0,.2.44.44,0,0,1,.37.18v-.58h.86V227Z" fill="#50d6cc"/><path d="M383.37,226.74a.34.34,0,0,0-.12.12,1.67,1.67,0,0,0,.39,0C383.56,226.76,383.48,226.69,383.37,226.74Z" fill="#50d6cc"/><path d="M380.41,226.82c-.68,0-1.63.66-2.2.76-.38,0-.68.57-1.06.09,0-.09.1-.19.19-.28-.57.76-1.24-1.07-1.91-.19-.39,0-.86-.2-1.25.38l-.09-.2c-.48.2-.48.29-.87.67.86,0,2.59-.75,3.45,0C377.82,228,379.73,228.54,380.41,226.82Z" fill="#50d6cc"/><polygon points="380.41 226.82 380.41 226.82 380.41 226.82 380.41 226.82" fill="#50d6cc"/><polygon points="380.6 226.54 380.41 226.82 380.59 227.01 380.6 226.54" fill="#50d6cc"/><path d="M385.11,219.93c0-.1.1-.19.19-.29-.57.77-1.24-1-1.91-.19-.39,0-.86-.19-1.25.38l-.1-.19c-.47.2-.47.29-.86.67.87,0,2.59-.76,3.45,0,1.15-.1,3.06.49,3.74-1.24h0c-.68,0-1.63.67-2.21.77C385.78,219.84,385.5,220.4,385.11,219.93Z" fill="#50d6cc"/><polygon points="388.37 219.07 388.56 219.27 388.56 218.79 388.37 219.07" fill="#50d6cc"/><path d="M383.3,216.38l.19-.18c-.08.05-.16.08-.24.12l.05.07Z" fill="#50d6cc"/><path d="M379,216.86c1.35-.09,2.95.15,4.26-.54L383,216C381.38,216.38,379.66,215.9,379,216.86Z" fill="#50d6cc"/><path d="M385.67,221.56l-.28.29c-.19,0-.19-.29-.19-.48l-.19.19c-.1-.3-.38-.86-.86-.68-.77.86.58.3.86,1.16.19.19.86.39.86-.19a.52.52,0,0,1,.19.38.62.62,0,0,1,.07-.36,1.46,1.46,0,0,1-.55-.13Z" fill="#50d6cc"/><path d="M386.25,221.76a.26.26,0,0,0-.12.11,1.59,1.59,0,0,0,.38,0C386.43,221.77,386.35,221.71,386.25,221.76Z" fill="#50d6cc"/><path d="M388.25,221.57c-.65-.2-1.14.18-1.74.28a1,1,0,0,0,.21.2.13.13,0,0,1,0,.18.52.52,0,0,1,.37.2v-.57H388v.19l.47-.19C388.34,221.86,388.25,221.76,388.25,221.57Z" fill="#50d6cc"/><path d="M386.73,222.23h0C386.45,222.51,386.66,222.39,386.73,222.23Z" fill="#50d6cc"/><path d="M380,222.68c0-.09.1-.18.19-.29-.57.78-1.24-1-1.91-.19-.38,0-.86-.19-1.25.38l-.1-.19c-.47.2-.47.28-.86.68.87,0,2.59-.76,3.45,0,1.15-.09,3.07.48,3.74-1.24-.67,0-1.63.66-2.21.75C380.69,222.59,380.41,223.16,380,222.68Z" fill="#50d6cc"/><polygon points="383.47 222.03 383.47 221.55 383.28 221.84 383.47 222.03" fill="#50d6cc"/><polygon points="383.77 235.36 383.59 235.65 383.77 235.84 383.77 235.36" fill="#50d6cc"/><path d="M378.7,232.78l-.23.12,0,.06Z" fill="#50d6cc"/><path d="M382.66,239.18a.49.49,0,0,0-.12.13,2.42,2.42,0,0,0,.39,0C382.85,239.2,382.77,239.13,382.66,239.18Z" fill="#50d6cc"/><path d="M382.09,239l-.29.28c-.19,0-.19-.28-.18-.48l-.2.2h0c-.09-.29-.38-.86-.85-.67-.77.85.57.29.85,1.14.19.2.86.39.86-.18a.47.47,0,0,1,.19.38.67.67,0,0,1,.07-.35,1.51,1.51,0,0,1-.55-.13Z" fill="#50d6cc"/><path d="M384.68,239c-.66-.2-1.15.18-1.75.29a.91.91,0,0,0,.21.18.17.17,0,0,1,0,.2.51.51,0,0,1,.38.18v-.57h.86v.18l.47-.18C384.77,239.29,384.67,239.18,384.68,239Z" fill="#50d6cc"/><path d="M383.15,239.67h0C382.87,239.93,383.07,239.82,383.15,239.67Z" fill="#50d6cc"/><polygon points="378.69 238.13 378.5 238.41 378.68 238.61 378.69 238.13" fill="#50d6cc"/><path d="M375.78,239.67l0,0v0c1,0,2.18,0,2.68-1.25h0c-.68,0-1.64.67-2.21.76a1,1,0,0,0-.47.2v-.14l-.13.2a.37.37,0,0,1-.45-.16c0-.11.09-.19.19-.29-.58.77-1.24-1-1.92-.19-.39,0-.86-.19-1.25.37l0-.08c.12-.73-.59.12-.59-.62a2,2,0,0,0-1.53,1.15c-1.14.47-2.77,1.14-4.11-.1-1.06.38-2.69,1.23-4.31.94a2.43,2.43,0,0,0,2.58-.27,9.57,9.57,0,0,1,3.25.28,2.22,2.22,0,0,0,1.12.09c-.06,0-.11.11-.19.19.84,0,2.5-.71,3.38,0a4.28,4.28,0,0,0-.3.43c-1.15.48-2.78,1.14-4.11-.1l-.84.33a.52.52,0,0,1,0-.14,1.47,1.47,0,0,0-1.08.53,5.29,5.29,0,0,1-2.38.22,2.34,2.34,0,0,0,2.24-.06,5.45,5.45,0,0,0-.32.45c-1.14.47-2.77,1.13-4.11-.11-1.06.38-2.68,1.23-4.31,1a2.39,2.39,0,0,0,2.58-.28,9.43,9.43,0,0,1,3.26.3c2.1.67,2.87-1.72,4.69-1.33,0-.09,0-.14,0-.2a9.17,9.17,0,0,1,1.78.3c1.65.52,2.48-.83,3.64-1.25a4.85,4.85,0,0,0,2.08-.18l-.16.48c.19-.09.57.1.67-.19h0c-.18-.45-.19-.06-.42-.32h0a4.77,4.77,0,0,0,1.89-.49l-.23-.31a6.2,6.2,0,0,1-1,.13c0-.06.07-.13.11-.2Zm-6.38.59h0Zm5-.34a4.84,4.84,0,0,0-1.28.17.13.13,0,0,1,0-.09,1.24,1.24,0,0,0-.52.11l0,0,0,0a1.2,1.2,0,0,0-.27.16c-.51,0-1.06-1.1-1.62-.38a5.93,5.93,0,0,0-.61,0,3.08,3.08,0,0,1,1.86-.76,3,3,0,0,0-.59.54c.86,0,2.59-.76,3.45,0H375C374.81,239.72,374.58,239.82,374.35,239.92Z" fill="#50d6cc"/><path d="M317.32,218.11a1.46,1.46,0,0,1,.79.32c1.15-.09,3.06.49,3.74-1.23h0c-.68,0-1.63.67-2.21.76-.38,0-.67.57-1.05.09,0-.09.09-.19.19-.29-.32.42-.66.08-1-.19v-.21l-.09.14c-.27-.19-.54-.28-.81.06-.39,0-.87-.18-1.25.39l-.1-.19c-.48.2-.48.28-.86.67a7.76,7.76,0,0,0,1.23-.19,3,3,0,0,1-.51.17c-.38,0-.68.56-1.06.08,0-.1.1-.19.19-.29-.57.78-1.24-1.05-1.91-.19-.39,0-.86-.2-1.25.38l-.09-.19c-.48.19-.49.29-.87.66.87,0,2.59-.75,3.45,0C314.87,218.79,316.5,219.23,317.32,218.11Z" fill="#50d6cc"/><path d="M323.2,222.08l-.29.28c-.19,0-.19-.28-.19-.47l-.18.18c-.1-.29-.38-.86-.86-.66-.77.84.57.28.86,1.14.18.2.86.38.86-.19a.53.53,0,0,1,.18.39.7.7,0,0,1,.07-.36,1.42,1.42,0,0,1-.54-.13Z" fill="#50d6cc"/><path d="M324.26,222.76h0C324,223,324.18,222.91,324.26,222.76Z" fill="#50d6cc"/><path d="M325.78,222.09c-.66-.21-1.14.18-1.75.28a1,1,0,0,0,.22.19c.06.06,0,.13,0,.2a.46.46,0,0,1,.37.18v-.58h.85v.2l.48-.19C325.88,222.37,325.78,222.27,325.78,222.09Z" fill="#50d6cc"/><path d="M323.78,222.27a.3.3,0,0,0-.13.12,1.59,1.59,0,0,0,.38,0C324,222.29,323.88,222.22,323.78,222.27Z" fill="#50d6cc"/><path d="M322.19,219.22h0c-.68,0-1.64.66-2.21.75-.38,0-.67.57-1.05.09,0-.09.09-.18.19-.29-.57.78-1.25-1-1.92-.19-.38,0-.86-.19-1.24.39l-.1-.2c-.48.2-.48.29-.86.67.86,0,2.59-.75,3.45,0C319.6,220.36,321.51,220.93,322.19,219.22Z" fill="#50d6cc"/><polygon points="322.38 218.91 322.19 219.21 322.38 219.39 322.38 218.91" fill="#50d6cc"/><path d="M327,219.24a.3.3,0,0,0-.13.12,2.42,2.42,0,0,0,.39,0C327.18,219.25,327.11,219.18,327,219.24Z" fill="#50d6cc"/><path d="M326.43,219l-.29.28c-.19,0-.19-.28-.19-.48l-.19.2c-.09-.29-.38-.86-.86-.68-.77.87.57.29.86,1.16.19.2.86.38.86-.19a.54.54,0,0,1,.19.39.7.7,0,0,1,.06-.36,2,2,0,0,1-.54-.13Z" fill="#50d6cc"/><path d="M336.61,217.92a.68.68,0,0,1,.06-.35,1.46,1.46,0,0,1-.54-.13l.1-.19-.29.28c-.19,0-.19-.28-.19-.47l-.19.19c-.1-.29-.38-.87-.86-.68-.77.86.57.29.86,1.15.19.2.86.4.86-.19A.54.54,0,0,1,336.61,217.92Z" fill="#50d6cc"/><path d="M337.27,217.73a.15.15,0,0,1,0,.19.49.49,0,0,1,.37.2v-.59h.86v.2l.47-.2c-.09,0-.18-.09-.18-.27-.66-.2-1.14.18-1.74.29A.86.86,0,0,0,337.27,217.73Z" fill="#50d6cc"/><path d="M337.07,217.55c-.09-.09-.16-.17-.27-.11a.33.33,0,0,0-.13.13A1.76,1.76,0,0,0,337.07,217.55Z" fill="#50d6cc"/><path d="M337.29,217.92h0C337,218.2,337.21,218.08,337.29,217.92Z" fill="#50d6cc"/><path d="M350.21,216.78c-.08-.08-.16-.15-.26-.1a.3.3,0,0,0-.13.12A1.64,1.64,0,0,0,350.21,216.78Z" fill="#50d6cc"/><path d="M348.71,217c.19.19.86.39.86-.19a.52.52,0,0,1,.19.38.68.68,0,0,1,.06-.35,1.66,1.66,0,0,1-.54-.12l.1-.19-.29.29c-.19,0-.19-.3-.19-.48l-.19.18c-.09-.28-.38-.85-.86-.67C347.08,216.67,348.43,216.1,348.71,217Z" fill="#50d6cc"/><path d="M350.43,217a.16.16,0,0,1,0,.19.5.5,0,0,1,.37.19v-.57h.86V217l.48-.19c-.1,0-.19-.1-.19-.29-.66-.2-1.14.18-1.75.29A.79.79,0,0,0,350.43,217Z" fill="#50d6cc"/><path d="M350.44,217.16h0C350.15,217.43,350.36,217.31,350.44,217.16Z" fill="#50d6cc"/><polygon points="386.69 213.79 386.5 214.08 386.69 214.26 386.69 213.79" fill="#50d6cc"/><path d="M382.76,215.32c1.15-.09,3.06.48,3.74-1.23h0c-.68,0-1.64.67-2.21.76-.38,0-.68.57-1.05.09,0-.1.09-.19.19-.28-.59.76-1.25-1.06-1.92-.2-.39,0-.86-.2-1.25.38l-.1-.19c-.47.19-.47.28-.86.67C380.18,215.32,381.9,214.55,382.76,215.32Z" fill="#50d6cc"/><polygon points="361.44 230.44 361.26 230.73 361.44 230.92 361.44 230.44" fill="#50d6cc"/><path d="M356.27,231.11c-.38,0-.87-.19-1.25.38l-.1-.19c-.47.2-.47.28-.86.67.86,0,2.59-.76,3.45,0,1-.09,2.62.36,3.45-.72a9.84,9.84,0,0,1,2.8.32c2.1.67,2.87-1.73,4.69-1.33.19-.85-.56.07-.57-.66a2,2,0,0,0-1.53,1.14c-1.15.47-2.78,1.14-4.12-.11l-1.14.44a1.91,1.91,0,0,0,.16-.32h0c-.68,0-1.64.66-2.21.77a.65.65,0,0,0-.33.11,3.48,3.48,0,0,1-.72,0,.46.46,0,0,1,.18-.27C357.61,232.06,356.94,230.25,356.27,231.11Z" fill="#50d6cc"/><path d="M375.87,251.4a.26.26,0,0,1,.07-.16c-.55.41-1.17-1.12-1.8-.31-.39,0-.86-.2-1.25.37l-.09-.19c-.48.2-.48.29-.87.67.87,0,2.59-.76,3.45,0,1.16-.09,3.06.49,3.74-1.24h0c-.68,0-1.63.67-2.2.77C376.54,251.31,376.24,251.87,375.87,251.4Z" fill="#50d6cc"/><polygon points="379.31 250.74 379.31 250.27 379.12 250.54 379.31 250.74" fill="#50d6cc"/><path d="M376.06,251.12a.68.68,0,0,0-.12.12A.68.68,0,0,0,376.06,251.12Z" fill="#50d6cc"/><polygon points="363.82 219.77 363.82 219.77 363.82 219.77 363.82 219.77" fill="#50d6cc"/><path d="M359.3,223.21c.19-.86-.56.07-.57-.67a2,2,0,0,0-1.53,1.14c-1.15.47-2.78,1.14-4.12-.11-1.06.38-2.68,1.24-4.31,1a2.41,2.41,0,0,0,2.58-.28,9.65,9.65,0,0,1,3.26.29C356.71,225.22,357.48,222.82,359.3,223.21Z" fill="#50d6cc"/><path d="M358.73,222.53h0Z" fill="#50d6cc"/><path d="M351.89,218.17l-.1-.2c-.47.2-.48.29-.87.67.87,0,2.59-.75,3.45,0,1.16-.09,3.07.48,3.74-1.23h0l-.16,0,.19-.07,0,0,.18.19v-.27c1.84-.42,4.16.56,5.65-.27a6.72,6.72,0,0,1-2.32.11c-1.62-1-3.64.28-5.55.36.23.24.64.17,1,.18a6.32,6.32,0,0,1-1.17.46c-.38,0-.67.56-1.05.09,0-.09.1-.19.19-.28-.58.76-1.24-1-1.92-.2C352.75,217.77,352.27,217.59,351.89,218.17Z" fill="#50d6cc"/><polygon points="370.84 214.14 370.84 214.14 370.85 214.14 370.84 214.14" fill="#50d6cc"/><path d="M367.1,215.38c1.15-.09,3.06.48,3.74-1.24-.67,0-1.63.66-2.2.75-.38,0-.67.57-1.05.1,0-.1.09-.19.19-.29-.58.77-1.25-1-1.92-.2-.39,0-.86-.18-1.25.38l-.1-.18c-.47.19-.47.28-.86.67C364.52,215.37,366.25,214.62,367.1,215.38Z" fill="#50d6cc"/><polygon points="371.04 213.85 370.85 214.14 371.04 214.33 371.04 213.85" fill="#50d6cc"/><path d="M383.24,219.22c.19-.86-.56.06-.57-.67a1.93,1.93,0,0,0-1.53,1.14c-1.15.47-2.78,1.14-4.12-.11-1.06.38-2.69,1.24-4.31.95a2.42,2.42,0,0,0,2.58-.29,9.86,9.86,0,0,1,3.25.3C380.65,221.22,381.42,218.83,383.24,219.22Z" fill="#50d6cc"/><path d="M382.66,218.54h0Z" fill="#50d6cc"/><path d="M371.93,222.34c-1.06.38-2.68,1.23-4.31.94a2.43,2.43,0,0,0,2.58-.27,9.63,9.63,0,0,1,3.26.28c2.1.67,2.87-1.71,4.69-1.33a.47.47,0,0,0,0-.15,5.16,5.16,0,0,0,2.2-.49l-.23-.33c-1.63.38-3.35-.11-4,.85h.39a3.54,3.54,0,0,0-.45.61C374.9,222.91,373.27,223.58,371.93,222.34Z" fill="#50d6cc"/><polygon points="377.16 215.89 376.97 216.18 377.16 216.36 377.16 215.89" fill="#50d6cc"/><path d="M370.74,216.92l-.1-.19c-.47.2-.47.29-.86.67.87,0,2.59-.75,3.45,0,.55,0,1.26.06,1.94,0l-.15.24c-1.16.48-2.78,1.14-4.12-.11-1.06.39-2.68,1.24-4.32.94a2.28,2.28,0,0,0,1.36.24v.19a16.69,16.69,0,0,0,1.53.77h.47a.67.67,0,0,0,.37.18,4.94,4.94,0,0,0-.38.54c-1.15.48-2.78,1.15-4.12-.11a9.72,9.72,0,0,1-3.78,1c.73-.48,1.39-1,2.36-.85.19-.85-.57.1-.57-.67a2,2,0,0,0-1.54,1.15c-1.14.48-2.77,1.15-4.11-.1-1.06.38-2.69,1.23-4.31.94a2.3,2.3,0,0,0,1.29.23,1.38,1.38,0,0,0-.27.27c1.36-.09,3,.15,4.27-.53l-.08-.1.19,0-.11.06.05.07h0l.11-.11.38.1a179.94,179.94,0,0,0,4.39-.81,9.58,9.58,0,0,1,3.25.29c2.11.67,2.88-1.72,4.7-1.33.19-.86-.58.09-.57-.67l-.18,0c.09-.1.15-.17.2-.17a4.43,4.43,0,0,1-1.82.39v-.2l-.19.2-.39-.4a2.64,2.64,0,0,0-1-.41,2.61,2.61,0,0,0,1.07-.49,10.21,10.21,0,0,1,3.25.31,3.17,3.17,0,0,0,.48.1l-.1.11c.34.16.78.43.79-.08.19-.09.28.09.38.19l-.19.1h1.15c.76,0,.28-.48.38-.86-.38.29-1,.28-1.05.77-.07-.15-.24-.24-.29-.38,1.09-.43,1.86-1.56,3.15-1.29.15-.69-.31-.21-.5-.4a2,2,0,0,0,.35-.58h0a4.29,4.29,0,0,0-1.54.51,1.82,1.82,0,0,1-.68,0v-.18l-.19.18-.39-.38c-.29-.28-.76-.29-1.15-.47v.29c.48.27,1.35.66,1.54.76h.2c-.38,0-.66.58-1.05.1,0-.1.1-.19.19-.3-.58.78-1.24-1-1.92-.18C371.6,216.55,371.13,216.35,370.74,216.92Zm-14.58,4.74.28-.18a8.7,8.7,0,0,1,1.88,0C357.55,221.61,356.79,221.58,356.16,221.66Z" fill="#50d6cc"/><path d="M387.14,227.77h0c-.77,0-1.24.66-1.53,1.14-1.15.47-2.78,1.15-4.12-.12-1.05.39-2.68,1.25-4.31.95a2.37,2.37,0,0,0,2.58-.28,9.94,9.94,0,0,1,3.26.3c2.1.68,2.87-1.72,4.69-1.33C387.9,227.59,387.13,228.53,387.14,227.77Z" fill="#50d6cc"/><path d="M378.18,226.27c0-.11.09-.2.19-.29-.58.76-1.25-1.06-1.92-.2-.38,0-.86-.18-1.24.38l-.1-.19c-.48.19-.48.29-.87.67.87,0,2.6-.75,3.45,0,1.16-.1,3.07.49,3.74-1.23h0c-.67,0-1.63.66-2.2.76C378.85,226.16,378.55,226.74,378.18,226.27Z" fill="#50d6cc"/><path d="M385.9,232.13h0Z" fill="#50d6cc"/><path d="M385.9,232.14a2,2,0,0,0-1.53,1.14c-1.15.48-2.78,1.15-4.11-.11a18.79,18.79,0,0,1-2.59.89,2.16,2.16,0,0,0,.38-.28,5.28,5.28,0,0,0-2.06.34h0l-.51.21-.08.07a3.16,3.16,0,0,1,1.12-.1,2.44,2.44,0,0,0,2-.47,10.19,10.19,0,0,1,3.26.29c2.11.68,2.88-1.71,4.69-1.32C386.66,232,385.91,232.89,385.9,232.14Z" fill="#50d6cc"/><path d="M373.63,237.08c-.36.13-.79.31-1.25.49a.32.32,0,0,1-.06-.2c-.66-.2-1.14.18-1.74.28a.64.64,0,0,0,.21.19.18.18,0,0,1,0,.16,4.5,4.5,0,0,1-1.51,0,2.37,2.37,0,0,0,1.78.14l.08.06v-.09a2.9,2.9,0,0,0,.73-.39H372v.11l.33-.13a10.08,10.08,0,0,1,2.78.33c1.94.61,2.75-1.36,4.29-1.37a1.07,1.07,0,0,1,.4.23c1.16-.1,3.07.49,3.74-1.24h0c-.68,0-1.63.68-2.21.77-.38,0-.67.57-1.06.09,0-.09.1-.2.19-.29-.57.77-1.24-1.05-1.91-.2-.38,0-.86-.19-1.25.39l-.09-.19c-.48.19-.48.28-.87.67.45,0,1.11-.2,1.78-.29a4,4,0,0,0-.42.58C376.59,237.66,375,238.33,373.63,237.08Zm-2.46.85v-.28H372v0A7.94,7.94,0,0,1,371.17,237.93Z" fill="#50d6cc"/><polygon points="378.85 230.63 378.66 230.92 378.85 231.11 378.85 230.63" fill="#50d6cc"/><path d="M377.94,231.09a1.33,1.33,0,0,0-.55-.27,3.17,3.17,0,0,0-2.74.51c-.32-.24-.64-.46-1,0-.35,0-.77-.15-1.13.23-1.62-2.12-4.09-.25-6.17-.35,1.95.37,4.26-1.58,5.61.48a4.38,4.38,0,0,0-.52.5,8.24,8.24,0,0,0,1.26-.2,2.82,2.82,0,0,0,.91-.13,1.73,1.73,0,0,1,1.26.33,5.75,5.75,0,0,1-2.81.36,2.41,2.41,0,0,0,2.59-.28,9.9,9.9,0,0,1,3.25.3l.25.06c-1.62.35-3.31-.1-4,.84,1.35-.08,3,.16,4.27-.53l-.23-.3c1.18.22,1.93-.54,2.75-1,.73,0,1.34.19,2.15-.54l-.5,0c0-.54-.59.19-.59-.52a1.85,1.85,0,0,0-1.47,1.06h0l-.08.06h.07l0,0-.14.06.09-.08a2.19,2.19,0,0,0-.5.23l-.09-.19a1.46,1.46,0,0,1-.2.22h.25l-.47.15a1.07,1.07,0,0,0,.22-.15,2.9,2.9,0,0,1-1.28-.52,1.91,1.91,0,0,0,.26-.47A2.08,2.08,0,0,0,377.94,231.09Zm-2.54.68a.57.57,0,0,1,.2-.29c-.27.35-.55.16-.84-.07l.61-.22a2.18,2.18,0,0,1,1.92.18,4.47,4.47,0,0,1-.77.29s-.08,0-.12-.09l-.85.33A.58.58,0,0,1,375.4,231.77Zm1.86.33a2,2,0,0,0,.67-.26l0,0a1.43,1.43,0,0,0,.91.34A3,3,0,0,1,377.26,232.1Z" fill="#50d6cc"/><path d="M367.88,229.58h0Z" fill="#50d6cc"/><path d="M362.79,232.33h0Z" fill="#50d6cc"/><path d="M344.28,231.43c-1.06.39-2.68,1.24-4.32.94a2.39,2.39,0,0,0,2.59-.28,10,10,0,0,1,3.26.3c1.24.4,2-.27,2.83-.81a1.05,1.05,0,0,1,.11.07c1.15-.09,3.06.49,3.74-1.24-.68,0-1.63.66-2.2.76-.38,0-.67.56-1.06.09,0,0,0,0,0,0a1.87,1.87,0,0,1,1.25-.17c.19-.85-.57.1-.57-.67h0a1.55,1.55,0,0,0-1.17.63c-.4-.26-.82-.79-1.25-.26-.38,0-.86-.18-1.24.39l-.1-.19c-.48.2-.48.29-.87.67.78,0,2.23-.59,3.15-.18l-.06.09C347.24,232,345.62,232.69,344.28,231.43Z" fill="#50d6cc"/><polygon points="349.5 224.99 349.32 225.27 349.5 225.46 349.5 224.99" fill="#50d6cc"/><path d="M343.08,226l-.09-.19c-.48.19-.48.28-.87.66.87,0,2.6-.75,3.45,0,1.16-.1,3.07.48,3.74-1.24h0c-.68,0-1.64.67-2.2.77-.39,0-.69.56-1.06.09a.49.49,0,0,1,.18-.29c-.57.76-1.23-1.05-1.91-.19C344,225.65,343.47,225.45,343.08,226Z" fill="#50d6cc"/><polygon points="358.83 237.89 358.83 237.9 358.83 237.89 358.83 237.89" fill="#50d6cc"/><path d="M352.18,240.62h0Z" fill="#50d6cc"/><path d="M348.06,242.62c2.11.68,2.88-1.71,4.7-1.32.19-.86-.57.07-.58-.67a1.93,1.93,0,0,0-1.52,1.14c-1.16.47-2.78,1.14-4.12-.11-1.06.38-2.69,1.24-4.32,1a2.43,2.43,0,0,0,2.59-.28A9.86,9.86,0,0,1,348.06,242.62Z" fill="#50d6cc"/><polygon points="348.89 235.4 348.71 235.68 348.88 235.87 348.89 235.4" fill="#50d6cc"/><path d="M343.71,236.05c-.38,0-.86-.19-1.24.38l-.1-.19c-.47.2-.47.28-.86.67.86,0,2.59-.75,3.45,0,1.15-.09,3.06.49,3.74-1.23h0c-.68,0-1.64.67-2.21.76-.39,0-.68.57-1.06.09,0-.09.09-.18.19-.29C345.06,237,344.39,235.2,343.71,236.05Z" fill="#50d6cc"/><polygon points="371.63 238.46 371.63 238.46 371.64 238.46 371.63 238.46" fill="#50d6cc"/><polygon points="366.55 241.23 366.55 241.23 366.55 241.23 366.55 241.23" fill="#50d6cc"/><polygon points="365.94 236.11 365.94 236.11 365.94 236.11 365.94 236.11" fill="#50d6cc"/><path d="M361,236.47c-.38,0-.86-.19-1.24.38l-.1-.18c-.48.19-.48.27-.86.66.86,0,2.59-.75,3.45,0,1.15-.11,3.06.48,3.74-1.24-.67,0-1.63.66-2.2.75-.39,0-.67.57-1.06.09,0-.09.09-.18.19-.28C362.29,237.44,361.63,235.61,361,236.47Z" fill="#50d6cc"/><path d="M366.13,236c.88-.18,1.94-.42,2.57.14,1.15-.1,3.06.49,3.74-1.24h0c-.67,0-1.63.67-2.21.76-.38,0-.67.57-1.05.1,0-.11.09-.19.19-.29-.58.77-1.24-1.05-1.91-.19-.39,0-.87-.19-1.25.37l-.1-.18c-.48.18-.48.29-.86.66a4.17,4.17,0,0,0,.77-.1l-.08.11.19.18Z" fill="#50d6cc"/><path d="M381.33,241.88h0Z" fill="#50d6cc"/><path d="M376.25,244.63h0Z" fill="#50d6cc"/><path d="M372.64,252.33h0Z" fill="#50d6cc"/><polygon points="366.86 249.12 366.86 249.12 366.87 249.12 366.86 249.12" fill="#50d6cc"/><path d="M359.49,250.81a6.32,6.32,0,0,1,.67,0c-.11.1-.21.22-.41.42.48,0,1.23-.23,1.95-.3a7,7,0,0,1,1,.22,2.25,2.25,0,0,0,1.1.09c1.12,0,2.54.2,3.1-1.23a6.36,6.36,0,0,0-1.83.64,3.48,3.48,0,0,1,2-.87l-.15.23.19.18v-.41l.31,0c.09-.42,0-.41-.2-.38l.33-.32c1,.18,1.34-.57,2.2.19a.47.47,0,0,1,.19-.38c.09.36.25.34.38.29-.21-.06-.38-.2-.38-.39-1.08-.36-2.66-.62-2.92.63-.1,0-.18-.07-.18-.31a1.92,1.92,0,0,0-1.52,1.15,8.62,8.62,0,0,1-1.65.53.56.56,0,0,1,.18-.26c-.58.76-1.24-1.06-1.91-.2-.17,0-.35,0-.53,0a1.46,1.46,0,0,1-.21-.16c-1.06.39-2.69,1.24-4.31.95A2.36,2.36,0,0,0,359.49,250.81Z" fill="#50d6cc"/><polygon points="366.94 249.98 366.94 249.98 366.94 249.98 366.94 249.98" fill="#50d6cc"/><polygon points="377.98 252.9 377.98 252.9 377.98 252.9 377.98 252.9" fill="#50d6cc"/><path d="M378,252.9a2,2,0,0,0-1.53,1.14c-1.15.47-2.78,1.13-4.12-.11-.24.08-.51.2-.81.31a.36.36,0,0,0,0-.24h-.93c.82-.51,1.53-1.22,2.59-1,.19-.85-.57.08-.57-.66a1.92,1.92,0,0,0-1.53,1.13,8.61,8.61,0,0,1-1.67.54h0a4.51,4.51,0,0,0-2-.27,3,3,0,0,1-.48-.36,12.68,12.68,0,0,1-3.14,1c-.81-.51-1.12-2-2.54-1.82-1.15,0-2.88.77-3.74.38,1,1.54,1.92-.48,3.06.29,1-.73,1.92.33,2.82,1.17a3.41,3.41,0,0,1-.78-.05,2.44,2.44,0,0,0,1,.25c.54.47,1.08.81,1.66.57a1.5,1.5,0,0,1,0-.3.27.27,0,0,1-.19,0,.56.56,0,0,1-.19-.39h0a1.41,1.41,0,0,1-.69.05,2.76,2.76,0,0,0,1-.46,7.84,7.84,0,0,1,1.54,0,1.19,1.19,0,0,0-.33.81l.57-.58a1.93,1.93,0,0,0,.95-.07c.19,0,.36.08.52.13a2.64,2.64,0,0,0,.7.12s0,0,0,0,0,0,0,0a2,2,0,0,0,.43,0l.14,0h0a3,3,0,0,0,.56-.23l.13.14h0a.57.57,0,0,1-.42.13.42.42,0,0,1,0,.24h.25a5.13,5.13,0,0,1-2.34.22,2.38,2.38,0,0,0,2.48-.22h.28l.2-.09a9.78,9.78,0,0,1,2.88.33c2.1.67,2.87-1.72,4.69-1.33C378.74,252.71,378,253.66,378,252.9Z" fill="#50d6cc"/><path d="M372.89,255.65a2,2,0,0,0-1.53,1.15c-1.15.47-2.77,1.13-4.11-.11-1.06.39-2.69,1.23-4.32.94a2.4,2.4,0,0,0,2.59-.27,9.62,9.62,0,0,1,3.25.29c2.11.67,2.87-1.72,4.7-1.33C373.66,255.46,372.89,256.42,372.89,255.65Z" fill="#50d6cc"/><polygon points="372.89 255.65 372.89 255.65 372.9 255.65 372.89 255.65" fill="#50d6cc"/><polygon points="372.47 250.25 372.28 250.53 372.47 250.72 372.47 250.25" fill="#50d6cc"/><path d="M367.29,250.9c-.38,0-.85-.19-1.24.38l-.1-.2c-.48.2-.48.29-.86.67.86,0,2.59-.75,3.45,0,1.15-.09,3.06.5,3.74-1.22h0c-.67,0-1.63.67-2.21.76-.38,0-.67.57-1.05.09,0-.1.09-.18.19-.29C368.63,251.86,368,250,367.29,250.9Z" fill="#50d6cc"/><path d="M327.86,219.86v-.53h.86v.2l.47-.2c-.09,0-.18-.09-.18-.27-.66-.21-1.14.17-1.75.28a1.9,1.9,0,0,0,.21.19s0,0,0,0A2,2,0,0,0,326,220.7c-1.16.48-2.78,1.14-4.12-.11-1.06.38-2.69,1.24-4.32.95a2.41,2.41,0,0,0,2.59-.28,9.62,9.62,0,0,1,3.25.3c2.1.67,2.88-1.72,4.7-1.33C328.22,219.76,328.05,219.82,327.86,219.86Zm-.29-.12a.47.47,0,0,1,.24.13A.19.19,0,0,1,327.57,219.74Z" fill="#50d6cc"/><polygon points="322.03 216.91 321.85 217.19 322.03 217.38 322.03 216.91" fill="#50d6cc"/><path d="M261.52,277a3.59,3.59,0,1,1,3.58,3.6A3.26,3.26,0,0,1,261.52,277Zm3.58-2.26c-1.3,0-1.57,1.2-1.57,2.28s.27,2.23,1.57,2.23,1.57-1.2,1.57-2.23-.27-2.28-1.57-2.28" fill="#50d6cc"/><path d="M272.82,281.74H270.9v-6.92h3.2c1.17,0,2.68.32,2.68,1.78,0,1-.79,1.58-1.76,1.7v0c1.23,0,1.45.65,1.58,1.72a7.44,7.44,0,0,0,.32,1.68h-2.08a12.22,12.22,0,0,1-.21-1.46c-.08-.84-.11-1.18-1.09-1.18h-.72v2.64Zm.75-4c.61,0,1.2-.09,1.2-.79s-.59-.8-1.2-.8h-.75v1.59h.75" fill="#50d6cc"/><path d="M278.44,279.35A3.59,3.59,0,1,1,282,283,3.27,3.27,0,0,1,278.44,279.35Zm3.58-2.26c-1.29,0-1.56,1.21-1.56,2.29s.27,2.23,1.56,2.23,1.57-1.2,1.57-2.23-.27-2.29-1.57-2.29" fill="#50d6cc"/><path d="M316,283.05v-6.92h3.17c1.7,0,2.81.55,2.81,2.22s-1.12,2.22-2.81,2.22H318V283H316Zm2.9-3.81c.75,0,1.06-.37,1.06-.88s-.31-.84-1.06-.89h-1v1.77h1" fill="#50d6cc"/><path d="M322.77,282.93V276h1.92v5.57h3.12v1.34h-5" fill="#50d6cc"/><path d="M328.62,282.09l2.73-6.9h2.33l2.72,6.9h-2.15l-.46-1.35H331l-.45,1.35h-1.91Zm4.71-2.69-.88-2.87h0l-.93,2.87h1.85" fill="#50d6cc"/><path d="M338.17,276.16h-2.12v-1.34h6.2v1.34h-2.17v5.58h-1.91v-5.58" fill="#50d6cc"/><path d="M341.91,281.26l2.72-6.91H347l2.72,6.91h-2.16l-.46-1.35h-2.8l-.45,1.35h-1.91Zm4.7-2.69-.88-2.88h0l-.94,2.88h1.85" fill="#50d6cc"/><rect x="294.03" y="283.63" width="4.79" height="1.15" fill="#50d6cc"/><rect x="306" y="283.49" width="4.79" height="1.15" fill="#50d6cc"/><path d="M301.36,284.07l-2.62-4.33h2.2l1.5,2.86,1.55-2.86h1.95l-2.69,4.33-.09,3.69h-1.9l.1-3.69" fill="#50d6cc"/><path d="M140.31,94.39V60.13h10.42l6.82,26.07,6.72-26.07h10.47V94.39h-6.61V66.76l-7,27.63H154l-7-27.63V94.39h-6.61" fill="none" stroke="#50d6cc" stroke-linecap="round" stroke-linejoin="round" stroke-width="0.9"/><path d="M201.18,77.29q0,5.65,2.51,8.8a8.55,8.55,0,0,0,7,3.11,8.64,8.64,0,0,0,7.09-3.11q2.53-3.15,2.54-8.8c0-3.76-.85-6.69-2.54-8.77a9.53,9.53,0,0,0-14.12,0q-2.5,3.12-2.51,8.79m-7.18,0q0-8.3,4.51-13.16t12.21-4.89q7.68,0,12.21,4.89t4.56,13.16q0,8.28-4.56,13.17t-12.21,4.88q-7.68,0-12.21-4.88T194,77.29" fill="none" stroke="#50d6cc" stroke-linecap="round" stroke-linejoin="round" stroke-width="0.9"/><path d="M246.66,94.39V60.13H254l13.91,23.54V60.13h6.95V94.39h-7.28l-14-23.54V94.39h-7" fill="none" stroke="#50d6cc" stroke-linecap="round" stroke-linejoin="round" stroke-width="0.9"/><path d="M302.69,94.39V66.25H292.53V60.13h27.3v6.12H309.74V94.39h-7.05" fill="none" stroke="#50d6cc" stroke-linecap="round" stroke-linejoin="round" stroke-width="0.9"/><path d="M350.21,67l-4.74,14.58H355L350.21,67m-4.09-6.86h8.14l12.35,34.26h-7.4l-2.32-7H343.61l-2.26,7h-7.42l12.19-34.26" fill="none" stroke="#50d6cc" stroke-linecap="round" stroke-linejoin="round" stroke-width="0.9"/><path d="M383.71,94.39V60.13h7.37L405,83.67V60.13h6.95V94.39h-7.28l-14-23.54V94.39h-7" fill="none" stroke="#50d6cc" stroke-linecap="round" stroke-linejoin="round" stroke-width="0.9"/><path d="M445.39,67l-4.74,14.58h9.51L445.39,67m-4.09-6.86h8.14l12.35,34.26H454.4l-2.33-7H438.79l-2.26,7h-7.42L441.3,60.13" fill="none" stroke="#50d6cc" stroke-linecap="round" stroke-linejoin="round" stroke-width="0.9"/><polyline points="21.88 1.83 5.79 1.83 5.79 174.15" fill="none" stroke="#a3a3a3" stroke-linecap="round" stroke-linejoin="round" stroke-dasharray="5 5"/><polyline points="20.05 362.83 5.79 362.83 5.79 201.88" fill="none" stroke="#a3a3a3" stroke-linecap="round" stroke-linejoin="round" stroke-dasharray="5 5"/><path d="M5.82,180.26a3,3,0,0,1,3.07,3A4.76,4.76,0,0,1,7,186.58a14,14,0,0,0-2.88,3.31H8.59a.22.22,0,0,0,.18-.07s.12-.12.23-.08v1.19H2.78v-.75a12.64,12.64,0,0,1,3.08-3.94c.77-.69,1.85-1.62,1.85-2.91a2,2,0,0,0-2-2,2.21,2.21,0,0,0-1.81,1c-.09.14-.05.24-.15.39L2.86,182A3.44,3.44,0,0,1,5.82,180.26Z"/><polyline points="133.88 59.04 592.45 59.04 592.45 65.31" fill="none" stroke="#a3a3a3" stroke-linecap="round" stroke-linejoin="round" stroke-dasharray="5 5"/><polyline points="133.88 95.39 592.45 95.39 592.45 89.47" fill="none" stroke="#a3a3a3" stroke-linecap="round" stroke-linejoin="round" stroke-dasharray="5 5"/><path d="M586,81.27a1,1,0,1,1,0-2,1,1,0,1,1,0,2Z"/><path d="M594.74,70.41a3,3,0,0,1,3.07,3,4.72,4.72,0,0,1-1.87,3.34A14.21,14.21,0,0,0,593.06,80h4.45a.23.23,0,0,0,.18-.07.22.22,0,0,1,.23-.07v1.18H591.7v-.74a12.68,12.68,0,0,1,3.08-4c.76-.69,1.85-1.62,1.85-2.91a2,2,0,0,0-2-2,2.21,2.21,0,0,0-1.82,1c-.09.14,0,.25-.14.39l-.87-.68A3.46,3.46,0,0,1,594.74,70.41Z"/><path d="M302.9,384.07a2.85,2.85,0,0,1,1.82,2.74,3.08,3.08,0,0,1-3.26,3.09,3.71,3.71,0,0,1-2.78-1.21l.89-1.07c.15.16.08.32.22.48a2.29,2.29,0,0,0,1.66.72,2.12,2.12,0,0,0,2.13-2.16c0-1.26-1.05-2-2.49-2a3.27,3.27,0,0,0-.54,0v-.95a4.29,4.29,0,0,0,1.68-.27,1.87,1.87,0,0,0,1.13-1.67,1.73,1.73,0,0,0-1.84-1.65,2.51,2.51,0,0,0-1.83.81l-.66-.73a3.43,3.43,0,0,1,2.54-1.13,2.78,2.78,0,0,1,2.92,2.68A2.44,2.44,0,0,1,302.9,384.07Z"/><polyline points="28.03 369.54 28.03 384.56 291.89 384.56" fill="none" stroke="#a3a3a3" stroke-linecap="round" stroke-linejoin="round" stroke-dasharray="5 5"/><polyline points="569.53 369.54 569.53 384.56 315.94 384.56" fill="none" stroke="#a3a3a3" stroke-linecap="round" stroke-linejoin="round" stroke-dasharray="5 5"/></svg>