<svg xmlns="http://www.w3.org/2000/svg" width="300" height="300" viewBox="0 0 300 300"><path d="M37.15 153.57s9.39-1.88 15-2.33 7.52.45 13.14 3.26 1.4 3.74 1.87 9.39-12.19 7.5-23 8.43-7-8.43-6.57-20.18-2.82-9.82-12.2-9.82-23.92 8-23.92 8l12.67 6.56-1.42 8.44 23-2.8" fill="none" stroke="#000" stroke-linecap="round" stroke-linejoin="round" stroke-width="2"/><path d="M295.7 156.39s-14.55-11.74-23.94-13.14-16.42-1.43-15 8.44a134.89 134.89 0 003.17 16.08s2.45-.6 9.5-.6a21.6 21.6 0 0111.25 2.83l.95-10.77zM56.39 135.72s-4.68 19.7 17.37 18.78 164.7-.48 164.7-.48 10.32-1.38 9.85-10.32c.08-13.7 4.69-16.7-24.87-18.13s-152.5-.17-152.5-.17-15.48-1.4-14.55 10.32z" fill="none" stroke="#000" stroke-linecap="round" stroke-linejoin="round" stroke-width="2"/><path d="M235.52 155.09s.31 10.94 7.51 14.07c15 6.59 21.58-.45 21.58-.45M255.69 149l-8 1.87" fill="none" stroke="#000" stroke-linecap="round" stroke-linejoin="round" stroke-width="2"/><path d="M81.7 135.44h-5.46v-3.16h16v3.16h-5.6v13.08h-5v-13.08M94.15 148.52v-16.24h5v6.43h6.06v-6.43h4.93v16.24h-4.93v-6.67h-6.12v6.67h-4.94M113.48 148.52v-16.24h13.62v3.16h-8.67v3.33h8v3.14h-8v3.46h8.67v3.12h-13.62M155.4 132.28v10.29c0 4.51-4 6.27-8.52 6.27s-8.5-1.73-8.54-6.27v-10.29h4.95v10.07c.07 2 1.25 3.35 3.59 3.35a3.2 3.2 0 003.57-3.35v-10.07h4.94M158.79 132.28h6.93l6 12.08h.06v-12.08h4.44v16.24h-6.86l-6-12.45h-.05v12.45h-4.46v-16.24M179.35 148.49h5.09v-16.18h-5.09zM187.13 140.41c0-5.36 3.33-8.47 9.25-8.47s9.25 3.11 9.25 8.47-3.34 8.46-9.25 8.46-9.25-3.11-9.25-8.46zm9.25-5.35c-3.37 0-4.06 2.87-4.06 5.4s.69 5.24 4.06 5.24 4.06-2.81 4.06-5.24-.7-5.4-4.06-5.4M208.29 132.28h6.93l6 12.08h.06v-12.08h4.45v16.24h-6.86l-6.06-12.45v12.45h-4.47v-16.24"/></svg>