<svg xmlns="http://www.w3.org/2000/svg" width="600" height="444" viewBox="0 0 600 444"><title>flag-maryland-dimensions</title><rect x="67.25" y="4" width="530.69" height="353.8" fill="#fff"/><rect x="67.25" y="4" width="265.35" height="176.9" fill="none" stroke="#50d6cc" stroke-linecap="round" stroke-linejoin="round"/><path d="M67.25,180.9V33.49L111.47,63V180.9H155.7V4h44.22V180.9h44.23V4h44.22V180.9H332.6V151.42L111.47,4V63L288.37,180.9Z" fill="none" stroke="#50d6cc" stroke-linecap="round" stroke-linejoin="round"/><rect x="332.6" y="180.9" width="265.35" height="176.9" fill="none" stroke="#50d6cc" stroke-linecap="round" stroke-linejoin="round"/><path d="M597.94,357.8V328.32L376.82,180.9v59L553.72,357.8H332.6V210.38l44.22,29.49V357.8h44.23V180.9h44.22V357.8h44.22V180.9h44.23" fill="none" stroke="#50d6cc" stroke-linecap="round" stroke-linejoin="round"/><rect x="332.6" y="4" width="265.35" height="176.9" fill="none" stroke="#50d6cc" stroke-linecap="round" stroke-linejoin="round"/><path d="M465.27,4H597.94V92.45H332.6V180.9H465.27Z" fill="none" stroke="#50d6cc" stroke-linecap="round" stroke-linejoin="round"/><path d="M465.27,168.52a11.32,11.32,0,0,0,11.32-11.32v-5.66h11a11.33,11.33,0,0,0,0-22.65h-11V103.77H547v11a11.32,11.32,0,1,0,22.64,0v-11h9.91a11.32,11.32,0,0,0,11.32-11.32H465.27Z" fill="none" stroke="#50d6cc" stroke-linecap="round" stroke-linejoin="round"/><path d="M465.27,168.52A11.32,11.32,0,0,1,454,157.2v-5.66H443a11.33,11.33,0,0,1,0-22.65h11V103.77H383.54v11a11.32,11.32,0,1,1-22.64,0v-11H351a11.32,11.32,0,0,1-11.32-11.32h125.6Z" fill="none" stroke="#50d6cc" stroke-linecap="round" stroke-linejoin="round"/><path d="M465.27,16.38a11.32,11.32,0,0,1,11.32,11.33v5.66h11a11.32,11.32,0,0,1,0,22.64h-11V81.13H547v-11a11.32,11.32,0,1,1,22.64,0v11h9.91a11.32,11.32,0,0,1,11.32,11.32H465.27Z" fill="none" stroke="#50d6cc" stroke-linecap="round" stroke-linejoin="round"/><path d="M465.27,16.38A11.32,11.32,0,0,0,454,27.71v5.66H443A11.32,11.32,0,1,0,443,56h11V81.13H383.54v-11a11.32,11.32,0,1,0-22.64,0v11H351a11.32,11.32,0,0,0-11.32,11.32h125.6Z" fill="none" stroke="#50d6cc" stroke-linecap="round" stroke-linejoin="round"/><rect x="67.25" y="180.9" width="265.35" height="176.9" fill="none" stroke="#50d6cc" stroke-linecap="round" stroke-linejoin="round"/><path d="M199.92,180.9H332.6v88.45H67.25V357.8H199.92Z" fill="none" stroke="#50d6cc" stroke-linecap="round" stroke-linejoin="round"/><path d="M199.92,345.42a11.32,11.32,0,0,0,11.32-11.33v-5.66h11a11.32,11.32,0,1,0,0-22.64h-11V280.67h70.41v11a11.32,11.32,0,1,0,22.64,0v-11h9.91a11.32,11.32,0,0,0,11.32-11.32H199.92Z" fill="none" stroke="#50d6cc" stroke-linecap="round" stroke-linejoin="round"/><path d="M199.92,345.42a11.32,11.32,0,0,1-11.32-11.33v-5.66h-11a11.32,11.32,0,0,1,0-22.64h11V280.67H118.2v11a11.33,11.33,0,0,1-22.65,0v-11h-9.9a11.32,11.32,0,0,1-11.32-11.32H199.92Z" fill="none" stroke="#50d6cc" stroke-linecap="round" stroke-linejoin="round"/><path d="M199.92,193.28a11.32,11.32,0,0,1,11.32,11.32v5.67h11a11.32,11.32,0,0,1,0,22.64h-11V258h70.41v-11a11.32,11.32,0,0,1,22.64,0v11h9.91a11.32,11.32,0,0,1,11.32,11.32H199.92Z" fill="none" stroke="#50d6cc" stroke-linecap="round" stroke-linejoin="round"/><path d="M199.92,193.28A11.32,11.32,0,0,0,188.6,204.6v5.67h-11a11.32,11.32,0,0,0,0,22.64h11V258H118.2v-11a11.33,11.33,0,0,0-22.65,0v11h-9.9a11.32,11.32,0,0,0-11.32,11.32H199.92Z" fill="none" stroke="#50d6cc" stroke-linecap="round" stroke-linejoin="round"/><line x1="553.72" y1="357.8" x2="553.72" y2="180.9" fill="none" stroke="#50d6cc" stroke-linecap="round" stroke-linejoin="round" stroke-width="0.92"/><polyline points="60.87 4 4 4 4 165.04" fill="none" stroke="#a3a3a3" stroke-linecap="round" stroke-linejoin="round" stroke-dasharray="5 5"/><polyline points="60.87 357.8 4 357.8 4 196.76" fill="none" stroke="#a3a3a3" stroke-linecap="round" stroke-linejoin="round" stroke-dasharray="5 5"/><path d="M5.15,181.74A2.84,2.84,0,0,1,7,184.47a3.08,3.08,0,0,1-3.26,3.09,3.72,3.72,0,0,1-2.79-1.2l.9-1.07c.15.15.07.32.22.48a2.31,2.31,0,0,0,1.66.71,2.12,2.12,0,0,0,2.13-2.15c0-1.27-1.06-2-2.49-2a4.9,4.9,0,0,0-.54,0v-.95a4,4,0,0,0,1.67-.27,1.84,1.84,0,0,0,1.13-1.67,1.72,1.72,0,0,0-1.84-1.65,2.52,2.52,0,0,0-1.82.82l-.66-.74a3.47,3.47,0,0,1,2.54-1.13,2.78,2.78,0,0,1,2.91,2.68A2.45,2.45,0,0,1,5.15,181.74Z"/><line x1="39.68" y1="4" x2="39.68" y2="76.59" fill="none" stroke="#a3a3a3" stroke-linecap="round" stroke-linejoin="round" stroke-dasharray="5 5"/><polyline points="60.87 180.9 39.63 180.9 39.68 108.31" fill="none" stroke="#a3a3a3" stroke-linecap="round" stroke-linejoin="round" stroke-dasharray="5 5"/><path d="M32,99H30.83V89.81l-2.12.63-.28-.66,2.77-1.45H32Z"/><path d="M39.49,99.13a1,1,0,1,1,1-1A1,1,0,0,1,39.49,99.13Z"/><path d="M51.1,88.34v1.07H46.73l-.16,3a3.93,3.93,0,0,1,1.73-.41c1.77,0,3.2,1.27,3.2,3.54a3.26,3.26,0,0,1-3.35,3.54A3.77,3.77,0,0,1,45,97.5l1-.79c.15.1.06.27.13.4a2.56,2.56,0,0,0,1.94,1,2.55,2.55,0,0,0,0-5,2.55,2.55,0,0,0-2,1l-.76-.31.36-5.39Z"/><line x1="39.68" y1="180.9" x2="39.68" y2="253.49" fill="none" stroke="#a3a3a3" stroke-linecap="round" stroke-linejoin="round" stroke-dasharray="5 5"/><line x1="39.63" y1="357.8" x2="39.68" y2="285.21" fill="none" stroke="#a3a3a3" stroke-linecap="round" stroke-linejoin="round" stroke-dasharray="5 5"/><path d="M32,275.85H30.83v-9.14l-2.12.63-.28-.66,2.77-1.45H32Z"/><path d="M39.49,276a1,1,0,1,1,1-1A1,1,0,0,1,39.49,276Z"/><path d="M51.1,265.24v1.07H46.73l-.16,3.05A3.93,3.93,0,0,1,48.3,269a3.19,3.19,0,0,1,3.2,3.53A3.25,3.25,0,0,1,48.15,276,3.77,3.77,0,0,1,45,274.4l1-.8c.15.11.06.27.13.4a2.56,2.56,0,0,0,1.94,1,2.56,2.56,0,0,0,0-5.05,2.59,2.59,0,0,0-2,1l-.76-.31.36-5.38Z"/><path d="M335.16,430.68v1.07h-4.38l-.16,3.05a3.93,3.93,0,0,1,1.73-.41,3.19,3.19,0,0,1,3.2,3.53,3.25,3.25,0,0,1-3.34,3.54,3.75,3.75,0,0,1-3.14-1.63l1.05-.79c.15.11.06.27.13.4a2.56,2.56,0,0,0,1.94,1,2.56,2.56,0,0,0,0-5.05,2.59,2.59,0,0,0-2,1l-.76-.31.37-5.38Z"/><polyline points="67.25 363.69 67.25 436.19 317.84 436.19" fill="none" stroke="#a3a3a3" stroke-linecap="round" stroke-linejoin="round" stroke-dasharray="5 5"/><polyline points="597.91 363.19 597.91 436.19 345.99 436.19" fill="none" stroke="#a3a3a3" stroke-linecap="round" stroke-linejoin="round" stroke-dasharray="5 5"/><path d="M189.3,401.83a3,3,0,0,1,3.07,3,4.76,4.76,0,0,1-1.86,3.34,14.21,14.21,0,0,0-2.88,3.31h4.44a.22.22,0,0,0,.18-.07.26.26,0,0,1,.23-.08v1.19h-6.22v-.75a12.64,12.64,0,0,1,3.08-3.94c.77-.69,1.85-1.62,1.85-2.91a2,2,0,0,0-2-2,2.21,2.21,0,0,0-1.81,1c-.09.14,0,.25-.15.39l-.86-.69A3.43,3.43,0,0,1,189.3,401.83Z"/><path d="M197.57,412.68a1,1,0,1,1,0-1.95,1,1,0,1,1,0,1.95Z"/><path d="M209.19,401.9V403h-4.37l-.16,3a3.92,3.92,0,0,1,1.72-.41,3.19,3.19,0,0,1,3.21,3.53,3.26,3.26,0,0,1-3.35,3.54,3.75,3.75,0,0,1-3.14-1.63l1.06-.79c.14.1.06.27.12.4a2.56,2.56,0,0,0,1.95,1,2.56,2.56,0,0,0,0-5.05,2.59,2.59,0,0,0-2,1l-.77-.31.37-5.38Z"/><line x1="67.25" y1="409.9" x2="174.06" y2="409.9" fill="none" stroke="#a3a3a3" stroke-linecap="round" stroke-linejoin="round" stroke-dasharray="5 5"/><polyline points="332.6 364.21 332.6 409.9 225.79 409.9" fill="none" stroke="#a3a3a3" stroke-linecap="round" stroke-linejoin="round" stroke-dasharray="5 5"/><path d="M454.65,401.83a3,3,0,0,1,3.07,3,4.79,4.79,0,0,1-1.86,3.34,14.22,14.22,0,0,0-2.89,3.31h4.45a.22.22,0,0,0,.18-.07.26.26,0,0,1,.23-.08v1.19h-6.22v-.75a12.64,12.64,0,0,1,3.08-3.94c.76-.69,1.85-1.62,1.85-2.91a2,2,0,0,0-2-2,2.19,2.19,0,0,0-1.81,1c-.09.14-.05.25-.15.39l-.87-.69A3.46,3.46,0,0,1,454.65,401.83Z"/><path d="M462.92,412.68a1,1,0,1,1,1-1A1,1,0,0,1,462.92,412.68Z"/><path d="M474.54,401.9V403h-4.38l-.16,3a3.93,3.93,0,0,1,1.73-.41,3.19,3.19,0,0,1,3.2,3.53,3.25,3.25,0,0,1-3.34,3.54,3.75,3.75,0,0,1-3.14-1.63l1.05-.79c.15.1.06.27.13.4a2.56,2.56,0,0,0,1.94,1,2.56,2.56,0,0,0,0-5.05,2.59,2.59,0,0,0-2,1l-.76-.31.37-5.38Z"/><path d="M344,382.68a.69.69,0,1,1,0-1.37.69.69,0,1,1,0,1.37Z"/><path d="M351.64,375.07v4.68h1v.74h-1v2.06h-.87v-2.07h-3v-.62l3.17-4.79Zm-3.06,4.68h2.2V376.4Z"/><path d="M356.77,382.56h-.84v-6.45l-1.5.45-.2-.47,2-1h.58Z"/><path d="M364.26,375.68l-.58.64c-.11-.08-.11-.19-.18-.27a1.36,1.36,0,0,0-.88-.31c-.53,0-1.76.33-1.81,2.89a1.83,1.83,0,0,1,1.58-.9,2.2,2.2,0,0,1,2.06,2.44,2.27,2.27,0,0,1-2.14,2.5,2.1,2.1,0,0,1-1.76-1,4.57,4.57,0,0,1-.57-2.53,7.27,7.27,0,0,1,.32-2.3,2.5,2.5,0,0,1,2.32-1.86A2.33,2.33,0,0,1,364.26,375.68Zm-3.41,3.79c-.1,1.39.59,2.46,1.5,2.46.63,0,1.28-.54,1.28-1.71s-.71-1.76-1.31-1.76A1.78,1.78,0,0,0,360.85,379.47Z"/><line x1="332.6" y1="409.9" x2="439.41" y2="409.9" fill="none" stroke="#a3a3a3" stroke-linecap="round" stroke-linejoin="round" stroke-dasharray="5 5"/><line x1="597.44" y1="409.9" x2="491.13" y2="409.9" fill="none" stroke="#a3a3a3" stroke-linecap="round" stroke-linejoin="round" stroke-dasharray="5 5"/><line x1="332.6" y1="379.04" x2="337.97" y2="379.04" fill="none" stroke="#a3a3a3" stroke-linecap="round" stroke-linejoin="round" stroke-dasharray="5 5"/><polyline points="369.24 379.04 376.81 379.04 376.81 363.36" fill="none" stroke="#a3a3a3" stroke-linecap="round" stroke-linejoin="round" stroke-dasharray="5 5"/><path d="M388.25,382.68a.69.69,0,1,1,0-1.37.69.69,0,1,1,0,1.37Z"/><path d="M395.85,375.07v4.68h1v.74h-1v2.06H395v-2.07h-3v-.62l3.17-4.79Zm-3.06,4.68H395V376.4Z"/><path d="M401,382.56h-.84v-6.45l-1.5.45-.2-.47,2-1H401Z"/><path d="M408.47,375.68l-.58.64c-.11-.08-.11-.19-.18-.27a1.36,1.36,0,0,0-.88-.31c-.53,0-1.76.33-1.81,2.89a1.83,1.83,0,0,1,1.58-.9,2.19,2.19,0,0,1,2,2.44,2.26,2.26,0,0,1-2.13,2.5,2.1,2.1,0,0,1-1.76-1,4.57,4.57,0,0,1-.57-2.53,7.27,7.27,0,0,1,.32-2.3,2.5,2.5,0,0,1,2.32-1.86A2.33,2.33,0,0,1,408.47,375.68Zm-3.41,3.79c-.1,1.39.58,2.46,1.5,2.46.63,0,1.28-.54,1.28-1.71s-.71-1.76-1.31-1.76A1.78,1.78,0,0,0,405.06,379.47Z"/><line x1="376.81" y1="379.04" x2="382.17" y2="379.04" fill="none" stroke="#a3a3a3" stroke-linecap="round" stroke-linejoin="round" stroke-dasharray="5 5"/><path d="M122.87,382.68a.69.69,0,1,1,.71-.68A.7.7,0,0,1,122.87,382.68Z"/><path d="M129.6,382.56h-.84v-6.45l-1.5.45-.19-.47,2-1h.58Z"/><path d="M135,375a2.11,2.11,0,0,1,2.17,2.09,3.34,3.34,0,0,1-1.31,2.36,10.3,10.3,0,0,0-2,2.33H137a.17.17,0,0,0,.13,0,.15.15,0,0,1,.16-.06v.84h-4.39V382a9,9,0,0,1,2.17-2.78,3,3,0,0,0,1.31-2.05,1.41,1.41,0,0,0-1.43-1.42,1.53,1.53,0,0,0-1.28.68c-.07.1,0,.17-.11.27l-.61-.48A2.43,2.43,0,0,1,135,375Z"/><path d="M143.07,375.08v.75H140l-.12,2.16a2.67,2.67,0,0,1,1.22-.29,2.25,2.25,0,0,1,2.26,2.49,2.29,2.29,0,0,1-2.36,2.49,2.63,2.63,0,0,1-2.21-1.14l.74-.56c.11.07,0,.19.09.28A1.78,1.78,0,0,0,141,382a1.8,1.8,0,0,0,0-3.56,1.83,1.83,0,0,0-1.4.7l-.53-.21.25-3.8Z"/><line x1="67.25" y1="379.04" x2="116.8" y2="379.04" fill="none" stroke="#a3a3a3" stroke-linecap="round" stroke-linejoin="round" stroke-dasharray="5 5"/><polyline points="148.07 379.04 199.92 379.04 199.92 362.36" fill="none" stroke="#a3a3a3" stroke-linecap="round" stroke-linejoin="round" stroke-dasharray="5 5"/><path d="M255.55,382.68a.69.69,0,1,1,0-1.37.69.69,0,1,1,0,1.37Z"/><path d="M262.28,382.56h-.84v-6.45l-1.5.45-.2-.47,2-1h.58Z"/><path d="M267.71,375a2.11,2.11,0,0,1,2.17,2.09,3.34,3.34,0,0,1-1.32,2.36,10.06,10.06,0,0,0-2,2.33h3.13a.16.16,0,0,0,.13,0,.17.17,0,0,1,.16-.06v.84h-4.39V382a8.9,8.9,0,0,1,2.18-2.78,3,3,0,0,0,1.3-2.05,1.4,1.4,0,0,0-1.43-1.42,1.56,1.56,0,0,0-1.28.68c-.06.1,0,.17-.1.27l-.61-.48A2.41,2.41,0,0,1,267.71,375Z"/><path d="M275.75,375.08v.75h-3.09l-.11,2.16a2.6,2.6,0,0,1,1.21-.29,2.25,2.25,0,0,1,2.27,2.49,2.29,2.29,0,0,1-2.36,2.49,2.66,2.66,0,0,1-2.22-1.14l.75-.56c.1.07,0,.19.09.28a1.78,1.78,0,0,0,1.37.69,1.8,1.8,0,0,0,0-3.56,1.83,1.83,0,0,0-1.4.7l-.54-.21.26-3.8Z"/><line x1="199.92" y1="379.04" x2="249.47" y2="379.04" fill="none" stroke="#a3a3a3" stroke-linecap="round" stroke-linejoin="round" stroke-dasharray="5 5"/><line x1="280.74" y1="379.04" x2="332.6" y2="379.04" fill="none" stroke="#a3a3a3" stroke-linecap="round" stroke-linejoin="round" stroke-dasharray="5 5"/><polyline points="413.44 379.04 421.01 379.04 421.01 363.36" fill="none" stroke="#a3a3a3" stroke-linecap="round" stroke-linejoin="round" stroke-dasharray="5 5"/><path d="M432.46,382.68a.69.69,0,1,1,0-1.37.69.69,0,1,1,0,1.37Z"/><path d="M440.05,375.07v4.68h1v.74h-1v2.06h-.86v-2.07h-3v-.62l3.18-4.79ZM437,379.75h2.2V376.4Z"/><path d="M445.19,382.56h-.84v-6.45l-1.5.45-.2-.47,2-1h.58Z"/><path d="M452.68,375.68l-.58.64c-.11-.08-.11-.19-.18-.27a1.36,1.36,0,0,0-.88-.31c-.53,0-1.77.33-1.81,2.89a1.83,1.83,0,0,1,1.58-.9,2.19,2.19,0,0,1,2.05,2.44,2.26,2.26,0,0,1-2.13,2.5,2.12,2.12,0,0,1-1.77-1,4.56,4.56,0,0,1-.56-2.53,7.27,7.27,0,0,1,.32-2.3A2.5,2.5,0,0,1,451,375,2.34,2.34,0,0,1,452.68,375.68Zm-3.41,3.79c-.1,1.39.58,2.46,1.5,2.46.63,0,1.28-.54,1.28-1.71s-.71-1.76-1.32-1.76A1.78,1.78,0,0,0,449.27,379.47Z"/><line x1="421.01" y1="379.04" x2="426.38" y2="379.04" fill="none" stroke="#a3a3a3" stroke-linecap="round" stroke-linejoin="round" stroke-dasharray="5 5"/><polyline points="457.65 379.04 465.22 379.04 465.22 363.36" fill="none" stroke="#a3a3a3" stroke-linecap="round" stroke-linejoin="round" stroke-dasharray="5 5"/><path d="M476.71,382.68a.69.69,0,1,1,.71-.68A.7.7,0,0,1,476.71,382.68Z"/><path d="M484.31,375.07v4.68h1v.74h-1v2.06h-.87v-2.07h-3v-.62l3.18-4.79Zm-3.05,4.68h2.19V376.4Z"/><path d="M489.44,382.56h-.84v-6.45l-1.5.45-.19-.47,1.95-1h.58Z"/><path d="M496.93,375.68l-.58.64c-.11-.08-.11-.19-.18-.27a1.3,1.3,0,0,0-.87-.31c-.54,0-1.77.33-1.81,2.89a1.83,1.83,0,0,1,1.58-.9,2.19,2.19,0,0,1,2.05,2.44,2.27,2.27,0,0,1-2.13,2.5,2.12,2.12,0,0,1-1.77-1,4.56,4.56,0,0,1-.56-2.53,7.25,7.25,0,0,1,.31-2.3,2.5,2.5,0,0,1,2.32-1.86A2.33,2.33,0,0,1,496.93,375.68Zm-3.4,3.79c-.1,1.39.58,2.46,1.49,2.46.64,0,1.28-.54,1.28-1.71s-.71-1.76-1.31-1.76A1.77,1.77,0,0,0,493.53,379.47Z"/><line x1="465.27" y1="379.04" x2="470.64" y2="379.04" fill="none" stroke="#a3a3a3" stroke-linecap="round" stroke-linejoin="round" stroke-dasharray="5 5"/><polyline points="501.91 379.04 509.48 379.04 509.48 363.36" fill="none" stroke="#a3a3a3" stroke-linecap="round" stroke-linejoin="round" stroke-dasharray="5 5"/><path d="M520.92,382.68a.69.69,0,1,1,.71-.68A.7.7,0,0,1,520.92,382.68Z"/><path d="M528.52,375.07v4.68h1v.74h-1v2.06h-.87v-2.07h-3v-.62l3.18-4.79Zm-3,4.68h2.19V376.4Z"/><path d="M533.65,382.56h-.84v-6.45l-1.5.45-.2-.47,2-1h.58Z"/><path d="M541.14,375.68l-.58.64c-.11-.08-.11-.19-.18-.27a1.35,1.35,0,0,0-.87-.31c-.54,0-1.77.33-1.82,2.89a1.85,1.85,0,0,1,1.59-.9,2.2,2.2,0,0,1,2.05,2.44,2.27,2.27,0,0,1-2.14,2.5,2.1,2.1,0,0,1-1.76-1,4.57,4.57,0,0,1-.57-2.53,7.27,7.27,0,0,1,.32-2.3A2.5,2.5,0,0,1,539.5,375,2.33,2.33,0,0,1,541.14,375.68Zm-3.4,3.79c-.1,1.39.58,2.46,1.49,2.46.63,0,1.28-.54,1.28-1.71s-.71-1.76-1.31-1.76A1.75,1.75,0,0,0,537.74,379.47Z"/><line x1="509.48" y1="379.04" x2="514.85" y2="379.04" fill="none" stroke="#a3a3a3" stroke-linecap="round" stroke-linejoin="round" stroke-dasharray="5 5"/><polyline points="546.12 379.04 553.69 379.04 553.69 363.36" fill="none" stroke="#a3a3a3" stroke-linecap="round" stroke-linejoin="round" stroke-dasharray="5 5"/><path d="M565.13,382.68a.69.69,0,1,1,.71-.68A.7.7,0,0,1,565.13,382.68Z"/><path d="M572.73,375.07v4.68h1v.74h-1v2.06h-.87v-2.07h-3v-.62l3.17-4.79Zm-3.05,4.68h2.19V376.4Z"/><path d="M577.86,382.56H577v-6.45l-1.5.45-.2-.47,2-1h.58Z"/><path d="M585.35,375.68l-.58.64c-.11-.08-.11-.19-.18-.27a1.35,1.35,0,0,0-.87-.31c-.54,0-1.77.33-1.82,2.89a1.85,1.85,0,0,1,1.59-.9,2.2,2.2,0,0,1,2,2.44,2.27,2.27,0,0,1-2.14,2.5,2.1,2.1,0,0,1-1.76-1,4.57,4.57,0,0,1-.57-2.53,7.27,7.27,0,0,1,.32-2.3,2.5,2.5,0,0,1,2.32-1.86A2.33,2.33,0,0,1,585.35,375.68Zm-3.41,3.79c-.09,1.39.59,2.46,1.5,2.46.63,0,1.28-.54,1.28-1.71s-.71-1.76-1.31-1.76A1.78,1.78,0,0,0,581.94,379.47Z"/><line x1="553.69" y1="379.04" x2="559.06" y2="379.04" fill="none" stroke="#a3a3a3" stroke-linecap="round" stroke-linejoin="round" stroke-dasharray="5 5"/><line x1="590.33" y1="379.04" x2="597.9" y2="379.04" fill="none" stroke="#a3a3a3" stroke-linecap="round" stroke-linejoin="round" stroke-dasharray="5 5"/><line x1="67.25" y1="4" x2="597.94" y2="357.8" fill="none" stroke="#a3a3a3" stroke-linecap="round" stroke-linejoin="round" stroke-dasharray="5 5"/></svg>