<svg xmlns="http://www.w3.org/2000/svg" width="600" height="460" viewBox="0 0 600 460"><title>flag-texas-dimensions</title><line x1="21.43" y1="234.56" x2="21.43" y2="237.06" fill="none" stroke="#a3a3a3" stroke-linecap="round" stroke-linejoin="round"/><line x1="21.43" y1="242.14" x2="21.43" y2="361.49" fill="none" stroke="#a3a3a3" stroke-linecap="round" stroke-linejoin="round" stroke-dasharray="5.08 5.08"/><polyline points="21.43 364.03 21.43 366.53 23.93 366.53" fill="none" stroke="#a3a3a3" stroke-linecap="round" stroke-linejoin="round"/><line x1="26.79" y1="366.53" x2="31.08" y2="366.53" fill="none" stroke="#a3a3a3" stroke-linecap="round" stroke-linejoin="round" stroke-dasharray="2.86 2.86"/><line x1="32.5" y1="366.53" x2="35" y2="366.53" fill="none" stroke="#a3a3a3" stroke-linecap="round" stroke-linejoin="round"/><line x1="35" y1="2.76" x2="32.5" y2="2.76" fill="none" stroke="#a3a3a3" stroke-linecap="round" stroke-linejoin="round"/><line x1="29.65" y1="2.76" x2="25.36" y2="2.76" fill="none" stroke="#a3a3a3" stroke-linecap="round" stroke-linejoin="round" stroke-dasharray="2.86 2.86"/><polyline points="23.93 2.76 21.43 2.76 21.43 5.26" fill="none" stroke="#a3a3a3" stroke-linecap="round" stroke-linejoin="round"/><line x1="21.43" y1="10.15" x2="21.43" y2="164.22" fill="none" stroke="#a3a3a3" stroke-linecap="round" stroke-linejoin="round" stroke-dasharray="4.89 4.89"/><line x1="21.43" y1="166.66" x2="21.43" y2="169.16" fill="none" stroke="#a3a3a3" stroke-linecap="round" stroke-linejoin="round"/><line x1="358.36" y1="448.2" x2="360.86" y2="448.2" fill="none" stroke="#a3a3a3" stroke-linecap="round" stroke-linejoin="round"/><line x1="365.82" y1="448.2" x2="591.58" y2="448.2" fill="none" stroke="#a3a3a3" stroke-linecap="round" stroke-linejoin="round" stroke-dasharray="4.96 4.96"/><polyline points="594.07 448.2 596.57 448.2 596.57 445.7" fill="none" stroke="#a3a3a3" stroke-linecap="round" stroke-linejoin="round"/><line x1="596.57" y1="440.76" x2="596.57" y2="383.94" fill="none" stroke="#a3a3a3" stroke-linecap="round" stroke-linejoin="round" stroke-dasharray="4.94 4.94"/><line x1="596.57" y1="381.47" x2="596.57" y2="378.97" fill="none" stroke="#a3a3a3" stroke-linecap="round" stroke-linejoin="round"/><line x1="49.04" y1="378.97" x2="49.04" y2="381.47" fill="none" stroke="#a3a3a3" stroke-linecap="round" stroke-linejoin="round"/><line x1="49.04" y1="386.41" x2="49.04" y2="443.23" fill="none" stroke="#a3a3a3" stroke-linecap="round" stroke-linejoin="round" stroke-dasharray="4.94 4.94"/><polyline points="49.04 445.7 49.04 448.2 51.54 448.2" fill="none" stroke="#a3a3a3" stroke-linecap="round" stroke-linejoin="round"/><line x1="56.5" y1="448.2" x2="282.05" y2="448.2" fill="none" stroke="#a3a3a3" stroke-linecap="round" stroke-linejoin="round" stroke-dasharray="4.96 4.96"/><line x1="284.53" y1="448.2" x2="287.03" y2="448.2" fill="none" stroke="#a3a3a3" stroke-linecap="round" stroke-linejoin="round"/><path d="M5.62,208.87l-.42-.35a4.6,4.6,0,0,0,.81-2.6l.16-1.15H4.79c-1.06,0-2.25,0-2.92,0l0,0-.27-1.19,0-.05L7,196.76l0,0,1.69-.5.06,0c-.16.88-.32,1.91-.45,2.81l-.61,4.44H8.1a1.46,1.46,0,0,0,1.18-.34l.23.16-.74,1.47,0,0c-.37,0-.76-.05-1.18-.07l-.23,1.63c-.12.9-.11,1-.51,1.43A15.06,15.06,0,0,1,5.62,208.87Zm.73-5.34.47-3.45c.13-.88.23-1.84.3-2.47-2.81,3.57-4,5.12-4.42,5.85.66,0,1.38.07,2.16.07Z" fill="#727272"/><path d="M15.35,209.61l-1.19-1.25,1.44-10.24H14.18l.11-.73H15.7l.18-1.25a3.89,3.89,0,0,1,1.45-2.78c.9-1,1.22-1.22,2.21-1.22h1.13l0,0-.23.62c-.18.46-.25.53-.42.53s-.75,0-1.21,0c-1,0-1.27.39-1.45,1.59L17,197.39h2.21v.73H16.92l-.77,5.53c-.23,1.6-.43,3.29-.55,4.53l.51.78v0Z" fill="#727272"/><path d="M22.16,204.93c-2.18,0-3-.87-2.74-2.83l.23-1.66a3.75,3.75,0,0,1,1.91-2.8,3.4,3.4,0,0,1,2-.6c1.36,0,2.05.64,2.05,1.8a8.75,8.75,0,0,1-.26,1.77L24,201.3H20.82l-.08.5c-.22,1.63.5,2.16,2.09,2.16a4.55,4.55,0,0,0,2.62-.85h0v.21A3.71,3.71,0,0,1,22.16,204.93Zm-1.24-4.39h3.24a8.91,8.91,0,0,0,.19-1.41c0-.83-.49-1.26-1.57-1.26s-1.56.59-1.72,1.7Z" fill="#727272"/><path d="M29.48,204.93c-2.17,0-3-.87-2.74-2.83l.23-1.66a3.75,3.75,0,0,1,1.91-2.8,3.43,3.43,0,0,1,2-.6c1.36,0,2,.64,2,1.8a8.88,8.88,0,0,1-.27,1.77l-1.27.69H28.14l-.07.5c-.23,1.63.49,2.16,2.09,2.16a4.55,4.55,0,0,0,2.61-.85h0v.21A3.69,3.69,0,0,1,29.48,204.93Zm-1.23-4.39h3.23a8,8,0,0,0,.2-1.41c0-.83-.5-1.26-1.58-1.26s-1.55.59-1.71,1.7Z" fill="#727272"/><path d="M36.51,204.89c-1.42,0-2-.53-1.83-1.87l.75-4.9H34l.11-.73h1.43l.34-2.24,1.32-.2,0,0-.37,2.42h2.37v.73H36.77l-.72,4.72c-.11.71.17,1,1.25,1a3.4,3.4,0,0,0,1.45-.35h0l0,.15A3,3,0,0,1,36.51,204.89Z" fill="#727272"/><path d="M308.16,453.45c-1.81,0-2.78-1-2.48-3.25l.19-1.45a8.26,8.26,0,0,1,2.07-4.95,5.73,5.73,0,0,1,3.43-2.13l.06,0,.12.78c.05.33,0,.4-.28.49-1,.34-2.07.25-2.81,1.12-.43.49-.62.86-.94,3a3.47,3.47,0,0,1,2.55-1,2.12,2.12,0,0,1,2.26,2.6l-.16,1.17a3.61,3.61,0,0,1-1.77,2.87A4.22,4.22,0,0,1,308.16,453.45Zm.77-.92c1.24,0,1.54-.49,1.75-1.94l.2-1.38c.23-1.59-.32-2.16-1.56-2.16a2.18,2.18,0,0,0-1.92.87l-.29,2C306.86,451.68,307.54,452.53,308.93,452.53Z" fill="#727272"/><path d="M318.19,458.14,317,456.88l1.43-10.24H317l.1-.72h1.42l.18-1.26a3.78,3.78,0,0,1,1.45-2.77c.9-1,1.22-1.22,2.21-1.22h1.13l0,0-.23.62c-.18.46-.25.53-.43.53s-.74,0-1.2,0c-1,0-1.27.39-1.45,1.6l-.35,2.51h2.21v.72h-2.32l-.78,5.54c-.23,1.59-.42,3.29-.55,4.53l.52.77v0Z" fill="#727272"/><path d="M325,453.45c-2.18,0-3-.86-2.75-2.83l.23-1.66a3.76,3.76,0,0,1,1.91-2.79,3.39,3.39,0,0,1,2-.61c1.36,0,2.05.64,2.05,1.81a9,9,0,0,1-.27,1.77l-1.27.69h-3.22l-.07.49c-.23,1.63.5,2.16,2.09,2.16a4.58,4.58,0,0,0,2.62-.85h0v.21A3.68,3.68,0,0,1,325,453.45Zm-1.24-4.38H327a8.11,8.11,0,0,0,.2-1.42c0-.83-.5-1.26-1.57-1.26s-1.56.59-1.72,1.7Z" fill="#727272"/><path d="M332.32,453.45c-2.18,0-3-.86-2.74-2.83l.23-1.66a3.74,3.74,0,0,1,1.91-2.79,3.34,3.34,0,0,1,2-.61c1.36,0,2.05.64,2.05,1.81a8.85,8.85,0,0,1-.26,1.77l-1.28.69H331l-.07.49c-.23,1.63.5,2.16,2.09,2.16a4.55,4.55,0,0,0,2.62-.85h0v.21A3.71,3.71,0,0,1,332.32,453.45Zm-1.24-4.38h3.24a9,9,0,0,0,.19-1.42c0-.83-.49-1.26-1.57-1.26s-1.56.59-1.72,1.7Z" fill="#727272"/><path d="M339.34,453.42c-1.41,0-2-.53-1.82-1.88l.74-4.9h-1.41l.1-.72h1.44l.33-2.25,1.33-.19h0l-.37,2.43h2.37v.72h-2.47l-.73,4.72c-.1.71.18,1,1.26,1a3.4,3.4,0,0,0,1.45-.35h0l0,.16A3,3,0,0,1,339.34,453.42Z" fill="#727272"/><line x1="168.04" y1="421.75" x2="170.54" y2="421.75" fill="none" stroke="#a3a3a3" stroke-linecap="round" stroke-linejoin="round"/><line x1="175.85" y1="421.75" x2="226.37" y2="421.75" fill="none" stroke="#a3a3a3" stroke-linecap="round" stroke-linejoin="round" stroke-dasharray="5.32 5.32"/><polyline points="229.03 421.75 231.53 421.75 231.53 419.25" fill="none" stroke="#a3a3a3" stroke-linecap="round" stroke-linejoin="round"/><line x1="231.53" y1="414.96" x2="231.53" y2="399.95" fill="none" stroke="#a3a3a3" stroke-linecap="round" stroke-linejoin="round" stroke-dasharray="4.29 4.29"/><line x1="231.53" y1="397.8" x2="231.53" y2="395.3" fill="none" stroke="#a3a3a3" stroke-linecap="round" stroke-linejoin="round"/><path d="M121.27,426.86h-6.16l0-.07.28-1.11,0,0c1.06-.72,2.08-1.45,3.25-2.4,1-.78,1.45-1.35,1.54-1.95l0-.12c.12-.9-.52-1.47-1.56-1.47a3.3,3.3,0,0,0-2.17.64l-.2-.16.73-1.31,0,0a5.3,5.3,0,0,1,2-.33c1.84,0,2.81.94,2.62,2.24l0,.13c-.1.79-.65,1.36-2.62,2.88a23.78,23.78,0,0,0-2.19,1.91h3.06a2.66,2.66,0,0,0,2-.56l.19.12-.76,1.63Z" fill="#727272"/><path d="M127.87,431.69l-1.19-1.25,1.43-10.24H126.7l.1-.73h1.42l.18-1.25a3.82,3.82,0,0,1,1.45-2.78c.9-1,1.22-1.22,2.21-1.22h1.13l0,0-.23.62c-.18.46-.25.53-.43.53s-.74,0-1.2,0c-1,0-1.27.39-1.45,1.59l-.35,2.51h2.21v.73h-2.32l-.78,5.53c-.23,1.59-.42,3.29-.55,4.53l.52.78v0Z" fill="#727272"/><path d="M134.68,427c-2.18,0-3-.87-2.75-2.83l.23-1.67a3.76,3.76,0,0,1,1.91-2.79,3.43,3.43,0,0,1,2-.6c1.36,0,2.05.63,2.05,1.8a8.88,8.88,0,0,1-.27,1.77l-1.27.69h-3.22l-.07.5c-.23,1.62.5,2.15,2.09,2.15a4.47,4.47,0,0,0,2.61-.85h0v.22A3.68,3.68,0,0,1,134.68,427Zm-1.24-4.39h3.23a8,8,0,0,0,.2-1.42c0-.83-.5-1.25-1.58-1.25s-1.55.58-1.71,1.7Z" fill="#727272"/><path d="M142,427c-2.18,0-3-.87-2.74-2.83l.23-1.67a3.74,3.74,0,0,1,1.91-2.79,3.4,3.4,0,0,1,2-.6c1.36,0,2,.63,2,1.8a8.75,8.75,0,0,1-.26,1.77l-1.28.69h-3.22l-.07.5c-.23,1.62.5,2.15,2.09,2.15a4.48,4.48,0,0,0,2.62-.85h0v.22A3.71,3.71,0,0,1,142,427Zm-1.24-4.39H144a8.87,8.87,0,0,0,.19-1.42c0-.83-.49-1.25-1.57-1.25s-1.56.58-1.72,1.7Z" fill="#727272"/><path d="M149,427c-1.41,0-2-.53-1.82-1.87l.74-4.9h-1.41l.1-.73h1.44l.33-2.24,1.33-.2,0,0-.37,2.42h2.37v.73h-2.47l-.73,4.72c-.1.71.18,1,1.26,1a3.41,3.41,0,0,0,1.45-.36h0l0,.16A3,3,0,0,1,149,427Z" fill="#727272"/><line x1="49.04" y1="421.38" x2="102.23" y2="421.38" fill="none" stroke="#a3a3a3" stroke-linecap="round" stroke-linejoin="round" stroke-dasharray="5 5"/><rect x="49.04" y="2.65" width="547.45" height="364.97" fill="#fff" stroke="#50d6cc" stroke-linecap="round" stroke-linejoin="round"/><rect x="49.04" y="185.13" width="547.45" height="182.48" fill="#fff" stroke="#50d6cc" stroke-linecap="round" stroke-linejoin="round"/><rect x="49.04" y="2.65" width="182.48" height="364.97" fill="#fff" stroke="#50d6cc" stroke-linecap="round" stroke-linejoin="round"/><polygon points="165.15 193.21 205.37 163.99 155.65 163.99 140.29 116.7 124.92 163.99 75.2 163.99 115.43 193.21 100.06 240.5 140.29 211.27 180.51 240.5 165.15 193.21" fill="#fff" stroke="#50d6cc" stroke-linecap="round" stroke-linejoin="round"/><line x1="198.15" y1="392.59" x2="200.65" y2="392.59" fill="none" stroke="#a3a3a3" stroke-linecap="round" stroke-linejoin="round"/><polyline points="203.87 392.59 206.37 392.59 206.37 390.09" fill="none" stroke="#a3a3a3" stroke-linecap="round" stroke-linejoin="round"/><line x1="206.37" y1="385.04" x2="206.37" y2="165.24" fill="none" stroke="#a3a3a3" stroke-linecap="round" stroke-linejoin="round" stroke-dasharray="5.05 5.05"/><line x1="206.37" y1="162.71" x2="206.37" y2="160.21" fill="none" stroke="#a3a3a3" stroke-linecap="round" stroke-linejoin="round"/><line x1="74.2" y1="160.21" x2="74.2" y2="162.71" fill="none" stroke="#a3a3a3" stroke-linecap="round" stroke-linejoin="round"/><line x1="74.2" y1="167.77" x2="74.2" y2="387.56" fill="none" stroke="#a3a3a3" stroke-linecap="round" stroke-linejoin="round" stroke-dasharray="5.05 5.05"/><polyline points="74.2 390.09 74.2 392.59 76.7 392.59" fill="none" stroke="#a3a3a3" stroke-linecap="round" stroke-linejoin="round"/><line x1="81.39" y1="392.59" x2="83.89" y2="392.59" fill="none" stroke="#a3a3a3" stroke-linecap="round" stroke-linejoin="round"/><path d="M92.91,397.12l1.92-.09c.21-1,.87-5.7.92-6.76l-1.75.06,0,0,.15-.55,3.26-.53.07.06c-.5,3-.92,6.42-1.1,7.76l1.9.09.08.53v.05H92.82Z" fill="#727272"/><path d="M104.39,402.53l-1.19-1.26L104.63,391h-1.41l.1-.72h1.42l.18-1.26a3.78,3.78,0,0,1,1.45-2.77c.9-1,1.22-1.22,2.21-1.22h1.13l0,0-.23.62c-.18.46-.25.53-.43.53s-.74,0-1.2,0c-1,0-1.27.38-1.45,1.59l-.35,2.51h2.21V391H106l-.78,5.54c-.23,1.59-.42,3.29-.55,4.53l.52.77v0Z" fill="#727272"/><path d="M108.45,395l.23-1.66a3.61,3.61,0,0,1,1.84-2.69,4.09,4.09,0,0,1,2.09-.71c1.91,0,2.65.89,2.39,2.85l-.23,1.66a3.6,3.6,0,0,1-1.84,2.69,4,4,0,0,1-2.09.69C108.93,397.84,108.19,397,108.45,395Zm4.9.13.29-2c.23-1.64-.36-2.24-1.77-2.24-1.1,0-1.59.53-1.77,1.8l-.28,2c-.23,1.63.35,2.23,1.76,2.23C112.68,396.94,113.18,396.41,113.35,395.14Z" fill="#727272"/><path d="M116.57,395l.23-1.66a3.56,3.56,0,0,1,1.84-2.69,4.06,4.06,0,0,1,2.09-.71c1.91,0,2.65.89,2.39,2.85l-.23,1.66a3.62,3.62,0,0,1-1.84,2.69,4,4,0,0,1-2.09.69C117.05,397.84,116.31,397,116.57,395Zm4.9.13.28-2c.23-1.64-.35-2.24-1.76-2.24-1.1,0-1.6.53-1.77,1.8l-.29,2c-.23,1.63.36,2.23,1.77,2.23C120.8,396.94,121.29,396.41,121.47,395.14Z" fill="#727272"/><path d="M127,397.81c-1.42,0-2-.53-1.83-1.88l.75-4.9h-1.42l.11-.72H126l.34-2.25,1.32-.19,0,0-.37,2.42h2.37V391h-2.48l-.72,4.73c-.11.7.17,1,1.25,1a3.4,3.4,0,0,0,1.45-.35h0l0,.16A3,3,0,0,1,127,397.81Z" fill="#727272"/><path d="M136.3,397.84c-1.81,0-2.78-1-2.48-3.25l.19-1.45a8.26,8.26,0,0,1,2.07-4.95,5.78,5.78,0,0,1,3.43-2.13l.06,0,.12.78c.05.33,0,.4-.28.49-1,.34-2.07.25-2.81,1.12-.43.49-.62.86-.94,3a3.51,3.51,0,0,1,2.55-1,2.11,2.11,0,0,1,2.26,2.59l-.16,1.17a3.61,3.61,0,0,1-1.77,2.87A4.22,4.22,0,0,1,136.3,397.84Zm.77-.92c1.24,0,1.54-.49,1.76-1.94l.19-1.38c.23-1.59-.32-2.16-1.56-2.16a2.18,2.18,0,0,0-1.92.87l-.29,2C135,396.07,135.68,396.92,137.07,396.92Z" fill="#727272"/><path d="M145.64,396.53l.56-3.16a17.1,17.1,0,0,0,.34-2.53h-1.12l.11-.74,2.6-.09,0,0-1.12,6.1c-.07.42.14.63.71.63a4.67,4.67,0,0,0,.92-.1l0,.14a2.68,2.68,0,0,1-2,1C145.83,397.81,145.48,397.45,145.64,396.53Zm1-9.07c-.18-.33-.11-.44.37-.69s.72-.35.85-.35.24.09.49.56.11.45-.37.69-.73.36-.85.36S146.87,387.94,146.63,387.46Z" fill="#727272"/><path d="M150.22,397.9l-.06-.06.78-4.68c.25-1.45-.1-2.18-.88-2.32v-.09l1.17-.8h.07a1.52,1.52,0,0,1,1,1.37A3.26,3.26,0,0,1,154.9,390a2,2,0,0,1,2.06,2.62l-.62,3.65c-.11.67.49.72,1.13.61l0,.15a2.86,2.86,0,0,1-1.76.83c-.71,0-.92-.34-.8-1.05l.67-4c.21-1.22-.3-1.79-1.47-1.79-1,0-1.59.57-1.82,1.91l-.76,4.62-.09.07Z" fill="#727272"/><path d="M159.08,395l.23-1.66a3.67,3.67,0,0,1,1.84-2.76,4,4,0,0,1,2-.64,4.27,4.27,0,0,1,1.68.31l0,.07-.46,1.23h-.07a4.48,4.48,0,0,0-2.3-.58c-.87,0-1.17.37-1.35,1.61l-.33,2.35c-.2,1.35.51,1.89,1.85,1.89a3.83,3.83,0,0,0,2.41-.86h0v.21a3.78,3.78,0,0,1-3,1.66C159.61,397.84,158.81,397,159.08,395Z" fill="#727272"/><path d="M165.86,397.9l-.06-.06,1.31-8.65a25.74,25.74,0,0,0,.35-3.09l-.88,0,.07-.56,2.35-.09,0,0-.83,5.52a3.52,3.52,0,0,1,2.33-1c1.63,0,2.34,1.08,2.07,2.62l-.62,3.65c-.1.67.5.72,1.14.61l0,.15a2.86,2.86,0,0,1-1.77.83c-.7,0-.92-.34-.79-1.05l.67-4c.21-1.22-.32-1.79-1.4-1.79a2.06,2.06,0,0,0-1.82,1l-.83,5.52-.09.07Z" fill="#727272"/><path d="M177.46,397.84c-2.18,0-3-.86-2.74-2.83l.23-1.66a3.74,3.74,0,0,1,1.91-2.79,3.34,3.34,0,0,1,2-.61c1.36,0,2.05.64,2.05,1.81a8.85,8.85,0,0,1-.26,1.77l-1.28.69h-3.22l-.07.49c-.23,1.63.5,2.16,2.09,2.16a4.55,4.55,0,0,0,2.62-.85h0v.21A3.71,3.71,0,0,1,177.46,397.84Zm-1.24-4.38h3.24a9,9,0,0,0,.19-1.42c0-.83-.49-1.25-1.57-1.25s-1.56.58-1.72,1.69Z" fill="#727272"/><path d="M181.86,397.58v0l-.07-1.27.05,0a7.32,7.32,0,0,0,2.85.62c.81,0,1-.28,1.15-1.17s-.09-1.11-.87-1.18l-.73-.07c-1.57-.16-2.15-.34-1.92-1.86a2.23,2.23,0,0,1,1.34-1.91c1-.6,1.31-.69,1.73-.69s1.45.07,2,.09l0,0-.32.76a.4.4,0,0,1-.4.32c-.3,0-1.49-.19-2.27-.19-.6,0-.77.26-.88,1.11s.09,1.12.87,1.19l.72.07c1.57.16,2.16.33,1.93,1.86a2.25,2.25,0,0,1-1.36,1.9,3.4,3.4,0,0,1-2.05.71A6.53,6.53,0,0,1,181.86,397.58Z" fill="#727272"/></svg>