<svg xmlns="http://www.w3.org/2000/svg" width="600" height="400" viewBox="0 0 600 400"><title>flag-georgia</title><path d="M0,.13H600V399.87H0Z" fill="#fff"/><path d="M0,.13H600V133.38H0Z" fill="#b50027"/><path d="M0,.13H266.49V266.62H0Z" fill="#002d56"/><path d="M139.21,36.57l9.49-6.69-11.62-.17-3.43-11.1-3.75,11-11.61-.17,9.3,7-3.74,11,9.49-6.69,9.31,7Z" fill="#fff" fill-rule="evenodd"/><path d="M93.56,44.74,98.85,34.4,88.49,39.65l-8.21-8.23,1.8,11.48L71.72,48.15,83.19,50,85,61.47l5.29-10.34L101.76,53Z" fill="#fff" fill-rule="evenodd"/><path d="M56.79,73.41,56.67,61.8l-6.74,9.47L38.85,67.79l6.92,9.33L39,86.58l11-3.7L57,92.21l-.12-11.62,11-3.7Z" fill="#fff" fill-rule="evenodd"/><path d="M37.84,115.81l-5.5-10.23-1.56,11.51-11.44,2.07,10.47,5-1.57,11.51,8-8.39,10.47,5-5.5-10.23,8-8.4Z" fill="#fff" fill-rule="evenodd"/><path d="M40.52,162l-9.62-6.5,4,10.92-9.16,7.15,11.61-.4,4,10.92L44.48,173l11.61-.4-9.63-6.5,3.22-11.17Z" fill="#fff" fill-rule="evenodd"/><path d="M64.48,202l-11.54-1.29,8.58,7.83-4.79,10.58,10.09-5.74,8.58,7.83-2.34-11.39,10.09-5.74-11.54-1.29-2.34-11.38Z" fill="#fff" fill-rule="evenodd"/><path d="M104.33,226l-10.82,4.22,11.24,2.95.68,11.59L111.7,235l11.23,2.95-7.36-9,6.26-9.78L111,223.38l-7.37-9Z" fill="#fff" fill-rule="evenodd"/><path d="M150.53,228.84l-7.62,8.77L154.23,235l6,10,1-11.57,11.32-2.62-10.69-4.53,1-11.57-7.62,8.76-10.69-4.53Z" fill="#fff" fill-rule="evenodd"/><path d="M193,210l-2.67,11.3,8.81-7.58,9.93,6L204.6,209l8.81-7.57-11.58,1-4.49-10.71L194.67,203l-11.58,1Z" fill="#fff" fill-rule="evenodd"/><path d="M221.71,173.25l2.89,11.25,4.28-10.8,11.59.73-8.95-7.4,4.28-10.8L226,162.45l-9-7.39,2.89,11.24-9.81,6.23Z" fill="#fff" fill-rule="evenodd"/><path d="M216.47,83.32l10.9,4-6.46-9.65,7.19-9.13-11.18,3.16-6.45-9.66L210,73.66l-11.18,3.16,10.9,4-.45,11.6Z" fill="#fff" fill-rule="evenodd"/><path d="M183.54,50.35l11.51-1.51-10.2-5.55L187,31.87l-8.43,8-10.2-5.55,5,10.49-8.43,8,11.52-1.51,5,10.49Z" fill="#fff" fill-rule="evenodd"/><path d="M230.05,127.7l7.79,8.62-1.23-11.55,10.6-4.74-11.36-2.4-1.23-11.54-5.8,10.06-11.36-2.39,7.78,8.62-5.79,10.07Z" fill="#fff" fill-rule="evenodd"/><path d="M154.81,129.58s.36-.4.48-.11.14.54,0,.65-.08.17-.23.36-.08.28-.21.37-.2.05-.35,0l-.06.45-.1.38.05.36.26.58-.2-.44.28.48c.21.54,2.19,1.1,2.9,1.42,1.5.66,1.26,3.84,1.42,4.15a43,43,0,0,1,.79,5.23c0,.7-.79,4.51-.87,5.3,0,.39-.14,1.33-.23,2.28,0,.19-.29-.06-.38.11a3,3,0,0,0-.07,1.08c0,.46-.18.82-.2,1.06a1,1,0,0,1-.87.94,35.52,35.52,0,0,1-.19,3.66,6,6,0,0,0,0,2.81,15.42,15.42,0,0,1-.31,4.4s-.81,3.58-1,4.13a2.92,2.92,0,0,0,.19,1.45,7.41,7.41,0,0,1,.07,1h-6.9c-.18,0,.12-.62.35-1.06a1.29,1.29,0,0,1,.9-.59c.47-.08.51-.59.79-1.22a5.23,5.23,0,0,0-.08-2.79,19.48,19.48,0,0,1-.55-3.53,13.89,13.89,0,0,0-.78-3.42,17.78,17.78,0,0,1-.59-3.73A1.52,1.52,0,0,0,149,155c-.11-.26-.12-.66-.35-1.28a12.31,12.31,0,0,1-.39-3.57,6.74,6.74,0,0,0-.67-2.68l-.12-.49-1.21.38-1.18.91a1.47,1.47,0,0,1-1,.32c-.92.08-1.83-1-2-2.55-.23-1.72.1-2.46,2-2.45h.85l.74,0H146s.22.41-.12.56a2.88,2.88,0,0,1-.42.17l.42.49a9.69,9.69,0,0,1,1-.55l.26-.62a2.82,2.82,0,0,0,0-.91c-.08-.43-.23-2.91-.23-3.5s0-1.29.08-2a9,9,0,0,1,.34-2.58c.38-.73,2.39-1,2.39-1s.88-.1,1-.34c0-.08.26-.46.35-.61-.56-.2-.74-.89-.83-1s-.23-1-.25-1.07-.21-.84-.3-1.13a2.26,2.26,0,0,1,0-.82l-.64-.07-.77-.06a5.08,5.08,0,0,1-.54-.1c-.12,0-.49-.12-.49-.12s-.61-.53,0-1,1.33-.81,1.45-.88a.46.46,0,0,0,.16-.19v-.15a3.64,3.64,0,0,1-.45-1.14c-.18-.63,1.49-.9,1.49-.9.48,0,2.09.18,1.92.14a5.49,5.49,0,0,0,1.2.06,9.51,9.51,0,0,1,2,.33,2,2,0,0,1,1.18,1c.24.45,1.22,1,1.51,1.29a10.18,10.18,0,0,1,1.15,1.64c.35.57,0,.43-.14.5-.55.32-3.58-.36-3.32-.33s.17-.05-.07-.17v.21l-.17.67Z" fill="#eed000" fill-rule="evenodd"/><path d="M145.11,148.22a1.47,1.47,0,0,1-1,.32c-.92.08-1.83-1-2-2.55-.23-1.72,0-2.44,1.7-2.48" fill="none" stroke="#002d56" stroke-miterlimit="3.86" stroke-width="0.5"/><path d="M85,193.52H81.64v-.37l.41,0,.38-.06a.5.5,0,0,0,.25-.19.54.54,0,0,0,.08-.33v-5.42a1,1,0,0,0-.05-.31.5.5,0,0,0-.28-.21,2.23,2.23,0,0,0-.4-.11,2.73,2.73,0,0,0-.39-.07V186H85v.38a3.22,3.22,0,0,0-.39,0,2,2,0,0,0-.4.09.44.44,0,0,0-.27.2.83.83,0,0,0-.07.32v5.41a.62.62,0,0,0,.08.31.51.51,0,0,0,.26.21l.36.1a2.58,2.58,0,0,0,.43.05v.37Z" fill="#eed000" fill-rule="evenodd"/><path d="M94.22,186.42a2.24,2.24,0,0,0-.45.08,1.83,1.83,0,0,0-.44.17.72.72,0,0,0-.25.5,5.05,5.05,0,0,0-.07,1v5.48h-.46L88,187.48v3.86a4.25,4.25,0,0,0,.08,1,.9.9,0,0,0,.25.5,1.13,1.13,0,0,0,.5.21,2.56,2.56,0,0,0,.5.11v.37H86.29v-.37a3.15,3.15,0,0,0,.48-.1,1.26,1.26,0,0,0,.43-.17.82.82,0,0,0,.25-.45,5.8,5.8,0,0,0,.07-1v-3.69a1.36,1.36,0,0,0-.09-.48.87.87,0,0,0-.22-.38,2.31,2.31,0,0,0-1-.43V186H88.3l4.2,5.71v-3.56a4.93,4.93,0,0,0-.08-1,.85.85,0,0,0-.24-.47,1.86,1.86,0,0,0-.49-.2,3.07,3.07,0,0,0-.5-.1V186h3v.38Z" fill="#eed000" fill-rule="evenodd"/><path d="M105.24,190.54l-.34.05a1.28,1.28,0,0,0-.34.09.51.51,0,0,0-.23.23.86.86,0,0,0-.06.34v1.43c0,.15,0,.27,0,.36a7,7,0,0,1-1.39.49,5.89,5.89,0,0,1-1.36.17,3.61,3.61,0,0,1-1.38-.27,3.39,3.39,0,0,1-1.16-.76,3.69,3.69,0,0,1-.8-1.22,4.3,4.3,0,0,1-.29-1.6,4.36,4.36,0,0,1,.28-1.59A3.8,3.8,0,0,1,99,187a3.4,3.4,0,0,1,1.19-.81,3.69,3.69,0,0,1,1.48-.3,3.61,3.61,0,0,1,1.1.15,4.93,4.93,0,0,1,.83.37l.21-.36h.43l0,2.62h-.43a6.45,6.45,0,0,0-.27-.85,3,3,0,0,0-.42-.75,2,2,0,0,0-.64-.53,1.84,1.84,0,0,0-.88-.2,2.21,2.21,0,0,0-1,.23,2.13,2.13,0,0,0-.76.68,3.23,3.23,0,0,0-.5,1.09,6,6,0,0,0-.17,1.46,5,5,0,0,0,.17,1.35,3.26,3.26,0,0,0,.5,1.08,2.26,2.26,0,0,0,1.92,1,2.57,2.57,0,0,0,.85-.14,1.84,1.84,0,0,0,.54-.3,3.52,3.52,0,0,0,0-.56v-.88a1.14,1.14,0,0,0-.06-.39.43.43,0,0,0-.25-.26,1.55,1.55,0,0,0-.47-.11,3.47,3.47,0,0,0-.46-.05v-.39h3.27v.39Z" fill="#eed000" fill-rule="evenodd"/><path d="M112.59,186.93a3.52,3.52,0,0,1,.77,1.25,4.8,4.8,0,0,1,0,3.23,3.66,3.66,0,0,1-.79,1.24,3.41,3.41,0,0,1-1.14.78,3.54,3.54,0,0,1-1.38.27,3.43,3.43,0,0,1-1.44-.29,3.3,3.3,0,0,1-1.13-.81,3.68,3.68,0,0,1-.75-1.24,4.5,4.5,0,0,1-.27-1.57,4.3,4.3,0,0,1,.28-1.62,3.71,3.71,0,0,1,.79-1.24,3.38,3.38,0,0,1,1.15-.79,3.52,3.52,0,0,1,1.37-.27,3.64,3.64,0,0,1,1.4.27,3.38,3.38,0,0,1,1.14.79Zm-.79,5.3a3.44,3.44,0,0,0,.43-1.08,6.32,6.32,0,0,0,.14-1.36,5.69,5.69,0,0,0-.16-1.41,3.42,3.42,0,0,0-.43-1.1,2.09,2.09,0,0,0-.73-.69,2.09,2.09,0,0,0-2.07,0,2.37,2.37,0,0,0-.73.78,4,4,0,0,0-.39,1.09,6.82,6.82,0,0,0-.13,1.3,6.28,6.28,0,0,0,.14,1.37,3.65,3.65,0,0,0,.43,1.09,2.19,2.19,0,0,0,.72.73,2,2,0,0,0,1,.25,2,2,0,0,0,1-.26,2,2,0,0,0,.73-.74Z" fill="#eed000" fill-rule="evenodd"/><path d="M121.92,189.83a3.53,3.53,0,0,1-.36,1.65,3.42,3.42,0,0,1-.93,1.15,3.92,3.92,0,0,1-1.3.67,5,5,0,0,1-1.49.22h-3.1v-.37l.4,0a1.64,1.64,0,0,0,.32-.06.51.51,0,0,0,.23-.2.72.72,0,0,0,.07-.33v-5.4a.79.79,0,0,0-.06-.32.45.45,0,0,0-.24-.23,1.3,1.3,0,0,0-.35-.11,2.67,2.67,0,0,0-.33-.05V186h3.27a4.25,4.25,0,0,1,1.32.22,3.78,3.78,0,0,1,1.14.55,3.33,3.33,0,0,1,1,1.23,4,4,0,0,1,.38,1.79Zm-1.29,0a4.46,4.46,0,0,0-.2-1.36,3.22,3.22,0,0,0-.59-1.06,2.49,2.49,0,0,0-.89-.68,2.65,2.65,0,0,0-1.18-.25h-.89v5.75a.77.77,0,0,0,.28.67,1.62,1.62,0,0,0,.86.18,2.66,2.66,0,0,0,1.17-.24,2.07,2.07,0,0,0,.81-.65,2.77,2.77,0,0,0,.47-1,5,5,0,0,0,.16-1.35Z" fill="#eed000" fill-rule="evenodd"/><path d="M136.18,186.42a.93.93,0,0,0-.3.06,1.55,1.55,0,0,0-.32.14,1,1,0,0,0-.3.27,1.37,1.37,0,0,0-.2.42l-.87,2.85c-.33,1.08-.68,2.23-1.07,3.46h-.48l-1.88-5.76-2,5.76h-.46c-.35-1.23-.71-2.51-1.08-3.83s-.62-2.21-.75-2.66a1,1,0,0,0-.14-.29.94.94,0,0,0-.25-.23,1,1,0,0,0-.31-.13l-.31-.06V186h3v.38a4.1,4.1,0,0,0-.68.08c-.19,0-.28.1-.28.19a1,1,0,0,0,0,.15.83.83,0,0,1,0,.13c.08.31.23.82.43,1.54s.51,1.77.91,3.19l1.87-5.55h.51l1.88,5.67c.26-.87.47-1.63.66-2.28s.33-1.21.45-1.68.14-.55.16-.67a1.89,1.89,0,0,0,0-.31c0-.12-.08-.22-.25-.3a2.33,2.33,0,0,0-.79-.16V186h2.71Z" fill="#eed000" fill-rule="evenodd"/><path d="M143.44,191.32l-.14,2.2h-6.21v-.37l.42,0a1.52,1.52,0,0,0,.35-.08.46.46,0,0,0,.23-.2.76.76,0,0,0,.07-.32v-5.38a.75.75,0,0,0-.06-.31.47.47,0,0,0-.24-.22l-.39-.12-.38-.06V186h5.78v1.81h-.39A2.31,2.31,0,0,0,142,187a1.14,1.14,0,0,0-.66-.5l-.39,0h-1.69v3h.84a1.7,1.7,0,0,0,.59-.07.75.75,0,0,0,.33-.26,1.49,1.49,0,0,0,.2-.4,3.7,3.7,0,0,0,.11-.49h.39v2.93h-.39a2.94,2.94,0,0,0-.12-.54,1.31,1.31,0,0,0-.19-.41.86.86,0,0,0-.37-.27,2,2,0,0,0-.55-.06h-.84v2.25a1.94,1.94,0,0,0,.05.53.46.46,0,0,0,.18.29.9.9,0,0,0,.37.14l.68,0H141a3.25,3.25,0,0,0,.47,0,3.34,3.34,0,0,0,.42-.07.6.6,0,0,0,.3-.16,3.29,3.29,0,0,0,.51-.76,4.93,4.93,0,0,0,.34-.76Z" fill="#eed000" fill-rule="evenodd"/><path d="M154.43,188.07h-.37a2.57,2.57,0,0,0-.17-.44,3.05,3.05,0,0,0-.28-.5,2.4,2.4,0,0,0-.34-.42.72.72,0,0,0-.36-.21,2.37,2.37,0,0,0-.41,0h-.76v6a.71.71,0,0,0,.07.32.45.45,0,0,0,.26.22,2,2,0,0,0,.39.1,2.89,2.89,0,0,0,.48.07v.37h-3.53v-.37l.45,0a1.82,1.82,0,0,0,.42-.08.51.51,0,0,0,.25-.2.57.57,0,0,0,.08-.34v-6h-.71a3.44,3.44,0,0,0-.46,0,.57.57,0,0,0-.36.21,2.44,2.44,0,0,0-.35.42,4.11,4.11,0,0,0-.27.51,2.09,2.09,0,0,0-.17.43h-.37v-2h6.51v2Z" fill="#eed000" fill-rule="evenodd"/><path d="M162.92,193.52h-2c-.45-.69-.85-1.3-1.21-1.81s-.75-1-1.17-1.57h-.77v2.37a.79.79,0,0,0,.06.32.36.36,0,0,0,.25.21,1.19,1.19,0,0,0,.33.07,3.58,3.58,0,0,0,.4,0v.37h-3.16v-.37l.36,0a.92.92,0,0,0,.34-.07.42.42,0,0,0,.23-.2.65.65,0,0,0,.07-.33V187.1a1.14,1.14,0,0,0,0-.33.41.41,0,0,0-.25-.21,1.82,1.82,0,0,0-.34-.09,3.06,3.06,0,0,0-.36-.05V186h3.45a4.18,4.18,0,0,1,.89.1,2.3,2.3,0,0,1,.75.32,1.52,1.52,0,0,1,.52.55,1.61,1.61,0,0,1,.2.82,2.24,2.24,0,0,1-.13.76,1.74,1.74,0,0,1-.39.58,2.39,2.39,0,0,1-.57.39,4.82,4.82,0,0,1-.73.28c.37.49.67.9.91,1.23l.9,1.22a3,3,0,0,0,.42.47,2.31,2.31,0,0,0,.37.24,1.31,1.31,0,0,0,.35.11,2.55,2.55,0,0,0,.34,0v.37ZM160.15,188a1.48,1.48,0,0,0-.39-1.08,1.5,1.5,0,0,0-1.1-.4h-.9v3.21h.69a1.63,1.63,0,0,0,1.7-1.73Z" fill="#eed000" fill-rule="evenodd"/><path d="M170.73,186.42a2.26,2.26,0,0,0-.43.06,1.36,1.36,0,0,0-.47.18.73.73,0,0,0-.24.5,4.85,4.85,0,0,0-.07.92v3.26a2.21,2.21,0,0,1-.26,1.08,2.33,2.33,0,0,1-.68.75,2.82,2.82,0,0,1-.88.41,3.45,3.45,0,0,1-.88.12,3.69,3.69,0,0,1-1.2-.18,2.55,2.55,0,0,1-.88-.47,1.94,1.94,0,0,1-.53-.69,1.91,1.91,0,0,1-.18-.81v-4.42a.62.62,0,0,0-.07-.31.49.49,0,0,0-.24-.23,1.28,1.28,0,0,0-.33-.11l-.34-.06V186h3.11v.38a2,2,0,0,0-.37.05,1.31,1.31,0,0,0-.33.08.36.36,0,0,0-.24.21.79.79,0,0,0-.06.32v4.13a3.52,3.52,0,0,0,.06.63,1.75,1.75,0,0,0,.27.61,1.43,1.43,0,0,0,.55.48,2.18,2.18,0,0,0,1,.18,2.3,2.3,0,0,0,1-.18,1.61,1.61,0,0,0,.62-.49,1.68,1.68,0,0,0,.31-.59,2.28,2.28,0,0,0,.09-.63v-3.07a4.13,4.13,0,0,0-.09-1,.83.83,0,0,0-.24-.49,1.51,1.51,0,0,0-.51-.21,3.34,3.34,0,0,0-.48-.08V186h3v.38Z" fill="#eed000" fill-rule="evenodd"/><path d="M176.27,190.09a1.84,1.84,0,0,1,.35.58A2.26,2.26,0,0,1,176,193a2.64,2.64,0,0,1-1.81.65,3.12,3.12,0,0,1-1-.16,3.5,3.5,0,0,1-.87-.38l-.22.39h-.43L171.6,191H172a6.18,6.18,0,0,0,.3.86,3.24,3.24,0,0,0,.47.71,2,2,0,0,0,.64.49,1.78,1.78,0,0,0,.85.19,1.74,1.74,0,0,0,.63-.1,1.16,1.16,0,0,0,.45-.26,1.14,1.14,0,0,0,.24-.41,1.53,1.53,0,0,0,.09-.54,1.51,1.51,0,0,0-.26-.84,1.56,1.56,0,0,0-.75-.59l-.78-.3c-.3-.11-.55-.22-.77-.31a2.44,2.44,0,0,1-1-.75,2,2,0,0,1-.35-1.2,1.8,1.8,0,0,1,.18-.8,2,2,0,0,1,.49-.66,2.34,2.34,0,0,1,.72-.43,2.57,2.57,0,0,1,.87-.15,2.65,2.65,0,0,1,.92.15,4.76,4.76,0,0,1,.75.37L176,186h.43l0,2.49H176c-.08-.29-.16-.56-.26-.82a3,3,0,0,0-.38-.71,1.69,1.69,0,0,0-.55-.48,1.63,1.63,0,0,0-.8-.19,1.19,1.19,0,0,0-.85.33,1,1,0,0,0-.35.78,1.4,1.4,0,0,0,.22.81,1.68,1.68,0,0,0,.66.52c.26.12.51.23.75.32a7.72,7.72,0,0,1,.72.29,3.88,3.88,0,0,1,.61.31,2.06,2.06,0,0,1,.51.4Z" fill="#eed000" fill-rule="evenodd"/><path d="M184.36,188.07H184a2.57,2.57,0,0,0-.17-.44,4,4,0,0,0-.27-.5,3,3,0,0,0-.35-.42.68.68,0,0,0-.36-.21,2.37,2.37,0,0,0-.41,0h-.76v6a.71.71,0,0,0,.07.32.48.48,0,0,0,.26.22,2,2,0,0,0,.39.1,2.89,2.89,0,0,0,.48.07v.37h-3.53v-.37l.45,0a1.82,1.82,0,0,0,.42-.08.51.51,0,0,0,.25-.2.57.57,0,0,0,.08-.34v-6h-.71a3.44,3.44,0,0,0-.46,0,.6.6,0,0,0-.36.21,2,2,0,0,0-.34.42,3.15,3.15,0,0,0-.28.51,2.88,2.88,0,0,0-.17.43h-.37v-2h6.51Z" fill="#eed000" fill-rule="evenodd"/><path d="M133.51,98.79h0a1.74,1.74,0,0,1,.93,1.78q1.23-.24,1,1.29s-1-.26-1.13.29a1.22,1.22,0,0,0,.55,1.56s1,.8,1.64-.71l.86-2a3.83,3.83,0,0,1,2.19-2,1.72,1.72,0,0,1,1.1,0s.83.19.85.88a1.1,1.1,0,0,1-.73,1.21c-.52.22-1.16-.26-1.16-.26a.47.47,0,0,0-.43.13,2.24,2.24,0,0,0-.48.66,14.2,14.2,0,0,0-.69,1.73c-.17.59-.56,2.37-2.36,2.64h-4.26c-1.8-.27-2.19-2.05-2.36-2.64a14.2,14.2,0,0,0-.69-1.73,2.24,2.24,0,0,0-.48-.66.48.48,0,0,0-.43-.13s-.64.48-1.16.26a1.11,1.11,0,0,1-.74-1.21c0-.69.86-.88.86-.88a1.72,1.72,0,0,1,1.1,0,3.78,3.78,0,0,1,2.18,2s.23.51.87,2,1.64.71,1.64.71a1.2,1.2,0,0,0,.54-1.56c-.15-.55-1.12-.29-1.12-.29-.16-1,.17-1.45,1-1.29a1.75,1.75,0,0,1,.94-1.78h0Z" fill="#eed000"/><path d="M138.81,147.44H128.5l1.22-40.22h7.92Z" fill="#eed000" stroke="#002d56" stroke-miterlimit="3.86" stroke-width="0.75" fill-rule="evenodd"/><path d="M138.77,169.8h-11V151.54h11Z" fill="#eed000" stroke="#002d56" stroke-miterlimit="3.86" stroke-width="0.75" fill-rule="evenodd"/><path d="M127.64,149.46h11.1c.77,0,1.4.47,1.4,1s-.63,1.05-1.4,1.05h-11.1c-.77,0-1.4-.47-1.4-1.05S126.87,149.46,127.64,149.46Z" fill="#eed000" stroke="#002d56" stroke-miterlimit="3.86" stroke-width="0.75"/><path d="M128.46,147.48h9.69a1.14,1.14,0,0,1,1.25,1h0a1.14,1.14,0,0,1-1.25,1h-9.69a1.14,1.14,0,0,1-1.24-1h0A1.14,1.14,0,0,1,128.46,147.48Z" fill="#eed000" stroke="#002d56" stroke-miterlimit="3.86" stroke-width="0.75" fill-rule="evenodd"/><path d="M130.29,155h5.85v12h-5.85Z" fill="#eed000" stroke="#002d56" stroke-miterlimit="3.86" stroke-width="0.75"/><path d="M130.17,105.81h6.72c.55,0,1,.33,1,.73s-.45.73-1,.73h-6.72c-.55,0-1-.33-1-.73S129.62,105.81,130.17,105.81Z" fill="#eed000" stroke="#002d56" stroke-miterlimit="3.86" stroke-width="0.75"/><path d="M78.44,172H190v3.76H78.44Z" fill="#eed000" stroke="#002d56" stroke-miterlimit="3.86" stroke-width="0.75" fill-rule="evenodd"/><path d="M73.68,175.72H194.85v4H73.68Z" fill="#eed000" stroke="#002d56" stroke-miterlimit="3.86" stroke-width="0.75"/><path d="M81.74,90.3H185.91v2.31H81.74Z" fill="#eed000" stroke="#002d56" stroke-miterlimit="3.86" stroke-width="0.75" fill-rule="evenodd"/><path d="M166.29,90.23a35,35,0,0,0-65,0h-13c6-19.87,24.1-34.44,45.45-34.44s39.49,14.54,45.48,34.43Z" fill="#eed000" stroke="#002d56" stroke-miterlimit="3.86" stroke-width="0.75" fill-rule="evenodd"/><path d="M84.54,92.63a10,10,0,0,1,3.3,4.29h92.67s1.52-3.58,3.62-4.28Z" fill="#eed000" stroke="#002d56" stroke-miterlimit="3.86" stroke-width="0.75" fill-rule="evenodd"/><path d="M107.53,97.75s8.58,14.74,26,14.53c17.25-.2,26-14,26-14l4.6,6.82s1.7,2.3-1.6,5.21c-11.65,10.27-20.88,12.28-29,12.22q-18.06-1-29.14-12.22a3.4,3.4,0,0,1-1.2-3.76Z" fill="#eed000" stroke="#002d56" stroke-miterlimit="3.86" stroke-width="0.75" fill-rule="evenodd"/><path d="M103.06,108.05s-.53-3,4.17-.58l.35-9.67" fill="#eed000" stroke="#002d56" stroke-miterlimit="3.86" stroke-width="0.75"/><path d="M164.54,106c-1.5-3.23-4.25.73-4.25.73l-.69-8.45" fill="#eed000" stroke="#002d56" stroke-miterlimit="3.86" stroke-width="0.75"/><path d="M87.34,97.09h93.17a.62.62,0,0,1,.6.63v.21a.61.61,0,0,1-.6.62H87.34a.61.61,0,0,1-.6-.62v-.21A.62.62,0,0,1,87.34,97.09Z" fill="#eed000" stroke="#002d56" stroke-miterlimit="3.86" stroke-width="0.75"/><path d="M95.57,98.67h0a1.74,1.74,0,0,1,.93,1.78c.82-.15,1.15.28,1,1.3,0,0-1-.27-1.12.29a1.2,1.2,0,0,0,.54,1.56s1,.8,1.64-.72.87-2,.87-2a3.81,3.81,0,0,1,2.18-2,1.79,1.79,0,0,1,1.1,0s.83.18.86.88a1.1,1.1,0,0,1-.74,1.2c-.52.23-1.16-.26-1.16-.26a.45.45,0,0,0-.43.14,2,2,0,0,0-.48.66,14.51,14.51,0,0,0-.69,1.72c-.17.59-.56,2.38-2.36,2.64H93.47c-1.8-.26-2.19-2-2.36-2.64a14.51,14.51,0,0,0-.69-1.72,2,2,0,0,0-.48-.66.45.45,0,0,0-.43-.14s-.64.49-1.16.26a1.1,1.1,0,0,1-.74-1.2c0-.7.86-.88.86-.88a1.79,1.79,0,0,1,1.1,0,3.81,3.81,0,0,1,2.18,2s.23.52.87,2,1.64.72,1.64.72A1.2,1.2,0,0,0,94.8,102c-.15-.56-1.12-.29-1.12-.29-.16-1,.17-1.45,1-1.3a1.74,1.74,0,0,1,.93-1.78h0Z" fill="#eed000"/><path d="M100.75,147.44H90.45l1.37-40.22h7.61Z" fill="#eed000" stroke="#002d56" stroke-miterlimit="3.86" stroke-width="0.75" fill-rule="evenodd"/><path d="M101.07,169.8H90.13V151.54h10.94Z" fill="#eed000" stroke="#002d56" stroke-miterlimit="3.86" stroke-width="0.75" fill-rule="evenodd"/><path d="M90.05,149.46h11.1c.77,0,1.4.47,1.4,1h0c0,.58-.63,1.05-1.4,1.05H90.05c-.77,0-1.4-.47-1.4-1.05h0c0-.58.63-1,1.4-1Z" fill="#eed000" stroke="#002d56" stroke-miterlimit="3.86" stroke-width="0.75" fill-rule="evenodd"/><path d="M90.76,147.48h9.68a1.14,1.14,0,0,1,1.25,1h0a1.14,1.14,0,0,1-1.25,1H90.76a1.14,1.14,0,0,1-1.25-1h0A1.14,1.14,0,0,1,90.76,147.48Z" fill="#eed000" stroke="#002d56" stroke-miterlimit="3.86" stroke-width="0.75" fill-rule="evenodd"/><path d="M92.68,155h5.84v12H92.68Z" fill="#eed000" stroke="#002d56" stroke-miterlimit="3.86" stroke-width="0.75"/><path d="M92.24,106H99c.55,0,1,.32,1,.73s-.45.72-1,.72H92.24c-.55,0-1-.32-1-.72s.45-.73,1-.73Z" fill="#eed000" stroke="#002d56" stroke-miterlimit="3.86" stroke-width="0.75"/><path d="M87.8,169.85h15.6V172H87.8Z" fill="#eed000" stroke="#002d56" stroke-miterlimit="3.86" stroke-width="0.75" fill-rule="evenodd"/><path d="M172,98.79h0a1.75,1.75,0,0,1,.94,1.78c.81-.16,1.14.27,1,1.29,0,0-1-.26-1.12.29a1.2,1.2,0,0,0,.54,1.56s1,.8,1.64-.71.87-2,.87-2a3.78,3.78,0,0,1,2.18-2,1.72,1.72,0,0,1,1.1,0s.83.19.86.88a1.11,1.11,0,0,1-.73,1.21,1.4,1.4,0,0,1-1.17-.26.48.48,0,0,0-.43.13,2.44,2.44,0,0,0-.48.66,14.2,14.2,0,0,0-.69,1.73c-.17.59-.55,2.37-2.36,2.64h-4.26c-1.8-.27-2.19-2.05-2.36-2.64a14.93,14.93,0,0,0-.68-1.73,2.4,2.4,0,0,0-.49-.66.46.46,0,0,0-.43-.13s-.64.48-1.16.26a1.1,1.1,0,0,1-.73-1.21c0-.69.85-.88.85-.88a1.72,1.72,0,0,1,1.1,0,3.83,3.83,0,0,1,2.19,2l.86,2c.63,1.51,1.64.71,1.64.71a1.22,1.22,0,0,0,.55-1.56c-.16-.55-1.13-.29-1.13-.29q-.24-1.53,1-1.29c0-1.45.93-1.78.93-1.78h0Z" fill="#eed000"/><path d="M177.39,147.44H167.08l1.37-40.22h7.62Z" fill="#eed000" stroke="#002d56" stroke-miterlimit="3.86" stroke-width="0.75" fill-rule="evenodd"/><path d="M178,169.8H167l-.11-18.26H178Z" fill="#eed000" stroke="#002d56" stroke-miterlimit="3.86" stroke-width="0.75" fill-rule="evenodd"/><path d="M166.91,149.46H178c.77,0,1.4.47,1.4,1s-.63,1.05-1.4,1.05h-11.1c-.77,0-1.4-.47-1.4-1.05S166.14,149.46,166.91,149.46Z" fill="#eed000" stroke="#002d56" stroke-miterlimit="3.86" stroke-width="0.75"/><path d="M167.48,147.48h9.68a1.14,1.14,0,0,1,1.25,1h0a1.14,1.14,0,0,1-1.25,1h-9.68a1.14,1.14,0,0,1-1.25-1h0A1.14,1.14,0,0,1,167.48,147.48Z" fill="#eed000" stroke="#002d56" stroke-miterlimit="3.86" stroke-width="0.75" fill-rule="evenodd"/><path d="M169.46,155h5.85v12h-5.85Z" fill="#eed000" stroke="#002d56" stroke-miterlimit="3.86" stroke-width="0.75"/><path d="M168.83,105.81h6.71c.56,0,1,.33,1,.73s-.44.73-1,.73h-6.71c-.56,0-1-.33-1-.73S168.27,105.81,168.83,105.81Z" fill="#eed000" stroke="#002d56" stroke-miterlimit="3.86" stroke-width="0.75"/><path d="M125.24,169.85h15.6V172h-15.6Z" fill="#eed000" stroke="#002d56" stroke-miterlimit="3.86" stroke-width="0.75" fill-rule="evenodd"/><path d="M67.34,141.33a7.78,7.78,0,0,0-5.45-1.4,4.49,4.49,0,0,1,5.25-1.35c2,.85,3.8,4,9,.7s7.22-5,11.8-6.52,8.39-1.9,9.49-2.3,2.82-1,3.7-6.31c.2-1.21,5,10,5,10s-.7,3.71-5.3,5.81-12.56,3.36-17,6.91c-1.5,1.21-4.38,3.29-6.12,5.84-4.1,6-8.38,6.69-8.38,6.69a17.36,17.36,0,0,0,5-8c.2-.85-.13-4.68,1.4-6.21-1.62,1.63-5.72-1.58-5.2-1.15a12.59,12.59,0,0,0-3.15-2.76Z" fill="#eed000" stroke="#002d56" stroke-miterlimit="3.86" stroke-width="0.75" fill-rule="evenodd"/><path d="M166.56,124.24s.8,4.56,9.75,6.87,10.35,5.21,11.8,5.91,5.21,3.4,9.25,2c1.58-.53,6-1.75,6.38-1.48a11.24,11.24,0,0,1-1.44,2.79c-3,3.51-4.09,4.06-5.19,4.61-2.41,1.2-2.59,1.35-4.3,1.45a10.27,10.27,0,0,1,1.85,5.26c.25,3.26,4.6,6.57,4.6,6.57s-5.8-1.51-8.35-5a28.21,28.21,0,0,0-8.3-7.16c-1.55-.75-9.45-3.46-11.1-4.11s-6.79-3.36-7.49-7.72,2.54-10.07,2.54-10.07Z" fill="#eed000" stroke="#002d56" stroke-miterlimit="3.86" stroke-width="0.75" fill-rule="evenodd"/><path d="M81.73,127.75c-6.07-2.38-4.19-4-4.19-4,1.49-2.67,3.45-6,10.85-8.87,9.89-3.81,20-2.11,17.29,2.3-1.64,2.68-4.47,7.37-4.47,7.37s-1.18-3.16-6.57-1.15-7.07,2.85-7.39,3.91c-.5,1.65-.3,2.7,3.6,2.1-2.55.86-5.39,0-8.58-1.45Z" fill="#eed000" stroke="#002d56" stroke-miterlimit="3.86" stroke-width="0.75"/><path d="M174.29,123.26a15,15,0,0,1,4.17,2c5.5,4,4.48,7.39,3,7.48-1.7.1,10.79-.24,12.29-1.05s2-1.7,1.1-3.6-7.7-13.53-18.8-15.74-15.49,2.48-14.54,4.06,5,6.51,5.14,8.57c1.14-2.15,3.7-2.76,7.68-1.75Z" fill="#eed000" stroke="#002d56" stroke-miterlimit="3.86" stroke-width="0.75"/><path d="M169,121.1,166.83,118l.55,3.34-.85.14-1-5.82.92-.16,2.79,3.9,1.4-4.6.81-.14,1,5.83-1.13.19-.56-3.34L169.61,121Z" fill="#002d56" fill-rule="evenodd"/><path d="M177.81,118.87a3.14,3.14,0,0,1-1,2,2.07,2.07,0,0,1-1.78.39,2.12,2.12,0,0,1-1.48-1,3.2,3.2,0,0,1-.2-2.2l.07-.33a3.46,3.46,0,0,1,1-1.93,2,2,0,0,1,1.87-.45,2,2,0,0,1,1.49,1.14,3.6,3.6,0,0,1,.14,2.16Zm-1.23-.33,0-.16a5.39,5.39,0,0,0,.14-1.62.78.78,0,0,0-.72-.69.8.8,0,0,0-.9.3,4.6,4.6,0,0,0-.53,1.6l0,.14a5.24,5.24,0,0,0-.16,1.68c.06.32.31.52.74.61a.81.81,0,0,0,.86-.32,3.83,3.83,0,0,0,.56-1.54Z" fill="#002d56" fill-rule="evenodd"/><path d="M182.55,121.43a3.43,3.43,0,0,1-1.5,1.61,1.86,1.86,0,0,1-1.73-.15l-1.8-1,2.81-5.19,1.62.88a2.06,2.06,0,0,1,1.22,1.53,3.5,3.5,0,0,1-.51,2.09Zm-1.1-.65.08-.14a2.82,2.82,0,0,0,.42-1.45,1,1,0,0,0-.52-.87l-.41-.22-2,3.64.5.28a.9.9,0,0,0,.91,0,3.14,3.14,0,0,0,1-1.26Z" fill="#002d56" fill-rule="evenodd"/><path d="M185.76,121.67l-1.11,1.13,1.19,1.17-.63.64L184,123.44l-1.16,1.19,1.64,1.61-.62.63-2.54-2.5,4.13-4.22,2.43,2.4-.61.63Z" fill="#002d56" fill-rule="evenodd"/><path d="M186.34,131l-.63-1.08a5.84,5.84,0,0,0,1.62-1.26.81.81,0,0,0,.14-1l-.15-.26L185,128.79l-.64-1.09,5.08-3,1.12,1.9a1.54,1.54,0,0,1,.26,1.17,1.29,1.29,0,0,1-.61.75l-.28.17a1.08,1.08,0,0,1-.84.15,1.33,1.33,0,0,1-.76-.57,1.58,1.58,0,0,1-.29,1.32,5.3,5.3,0,0,1-1.74,1.42Zm2.9-3.33.14-.09a.67.67,0,0,0,.37-.44.86.86,0,0,0-.15-.58l-.21-.35-1.34.79.17.29a1,1,0,0,0,.48.47A.68.68,0,0,0,189.24,127.68Z" fill="#002d56" fill-rule="evenodd"/><path d="M170.41,138.3l-1-.76.5-1.39-1.5-1.09-1.17.9-.83-.61,5-3.67,1,.7Zm-.27-3,.72-2.16-1.8,1.37Z" fill="#002d56" fill-rule="evenodd"/><path d="M177,135.84l-1.09-.53-2.2,4.52-1.13-.56,2.2-4.51-1.12-.55.38-.79,3.35,1.63Z" fill="#002d56" fill-rule="evenodd"/><path d="M179.67,136l-2.3,5.44-1.16-.5,2.3-5.43Z" fill="#002d56" fill-rule="evenodd"/><path d="M184.13,141.36a3.13,3.13,0,0,1-1.44,1.69,2.08,2.08,0,0,1-1.82,0,2.11,2.11,0,0,1-1.21-1.34,3.13,3.13,0,0,1,.27-2.19l.14-.31a3.46,3.46,0,0,1,1.39-1.67,2,2,0,0,1,1.91,0,1.94,1.94,0,0,1,1.21,1.44,3.55,3.55,0,0,1-.32,2.14Zm-1.12-.59.06-.15a5.46,5.46,0,0,0,.5-1.55,1,1,0,0,0-1.51-.74,5,5,0,0,0-.86,1.46l-.06.13a5,5,0,0,0-.51,1.6c0,.33.18.58.58.76a.82.82,0,0,0,.92-.13,3.93,3.93,0,0,0,.88-1.38Z" fill="#002d56" fill-rule="evenodd"/><path d="M188.07,143.85l1.74-3,.78.45-2.94,5.11-.47-.27-.58-4.61-1.85,3.21-.78-.45,2.95-5.12.58.34Z" fill="#002d56" fill-rule="evenodd"/><path d="M87.43,124.28l-.78.48-4.36-4.27,1.09-.66,2.76,2.71-1-3.78.76-.46,2.88,2.63-1.14-3.68.87-.53,1.71,5.87-.78.47-3-2.69Z" fill="#002d56" fill-rule="evenodd"/><path d="M91.79,115.92l1.73,5.65-1.21.37-1.72-5.65Z" fill="#002d56" fill-rule="evenodd"/><path d="M98.57,118.94a1.64,1.64,0,0,1-.4,1.46,2.75,2.75,0,0,1-1.57.67,6.7,6.7,0,0,1-1,.07,3.33,3.33,0,0,1-.71-.09l-.14-1a2.7,2.7,0,0,0,.7.16,3.77,3.77,0,0,0,.89,0,1.58,1.58,0,0,0,.82-.29.77.77,0,0,0-.08-1,2.84,2.84,0,0,0-1-.39,2.48,2.48,0,0,1-1-.54,1.71,1.71,0,0,1-.5-1.07,1.46,1.46,0,0,1,.39-1.21,2.23,2.23,0,0,1,1.44-.68,3.6,3.6,0,0,1,.85,0,3.42,3.42,0,0,1,.55.07l.12.89-.65-.06a3.09,3.09,0,0,0-.67,0,1.21,1.21,0,0,0-.7.26.5.5,0,0,0-.16.44.61.61,0,0,0,.23.44,4,4,0,0,0,1,.34,2.29,2.29,0,0,1,1.17.57,1.76,1.76,0,0,1,.47,1Z" fill="#002d56" fill-rule="evenodd"/><path d="M116.8,114.92a1.41,1.41,0,0,1-.79.73,1.49,1.49,0,0,1-1.21-.15,3.62,3.62,0,0,1-.61-.39,1.27,1.27,0,0,1-.32-.35l.41-.81a1.84,1.84,0,0,0,.28.29,2.9,2.9,0,0,0,.41.27.65.65,0,0,0,.41.06.54.54,0,0,0,.35-.32l2-4,1.13.58Z" fill="#002d56" fill-rule="evenodd"/><path d="M123.2,117.28a1.71,1.71,0,0,1-.92,1,2,2,0,0,1-2.77-2.71l1.42-3.71,1.18.45-1.48,3.86a1.13,1.13,0,0,0-.07.75.9.9,0,0,0,.59.48,1,1,0,0,0,.72,0,1,1,0,0,0,.49-.64l1.47-3.84.88.34Z" fill="#002d56" fill-rule="evenodd"/><path d="M129.44,118.55a1.63,1.63,0,0,1-.76,1.31,2.64,2.64,0,0,1-1.69.24,5.45,5.45,0,0,1-1-.2,3,3,0,0,1-.66-.27l.13-1a2.5,2.5,0,0,0,.63.34,4,4,0,0,0,.87.22,1.46,1.46,0,0,0,.86-.07.66.66,0,0,0,.3-.54.7.7,0,0,0-.11-.47,3,3,0,0,0-.88-.64,2.63,2.63,0,0,1-.88-.79,1.79,1.79,0,0,1-.2-1.16,1.5,1.5,0,0,1,.69-1.08,2.29,2.29,0,0,1,1.57-.28,3.76,3.76,0,0,1,.83.19,4.16,4.16,0,0,1,.51.2l-.11.89-.61-.22a4.54,4.54,0,0,0-.66-.14,1.3,1.3,0,0,0-.75.07.5.5,0,0,0-.27.38.64.64,0,0,0,.11.49,3.63,3.63,0,0,0,.92.59,2.27,2.27,0,0,1,1,.87,1.71,1.71,0,0,1,.2,1.08Z" fill="#002d56" fill-rule="evenodd"/><path d="M135.25,115.62l-1.22,0-.09,5-1.26,0,.09-5-1.25,0,0-.88,3.72.06Z" fill="#002d56" fill-rule="evenodd"/><path d="M138.69,114.41l.71,5.86-1.25.16-.72-5.86Z" fill="#002d56" fill-rule="evenodd"/><path d="M145.74,118.52a1.75,1.75,0,0,1-.4.3,3.08,3.08,0,0,1-.73.31,2.41,2.41,0,0,1-2-.16,3,3,0,0,1-1.32-1.86l-.07-.23a3.11,3.11,0,0,1,.07-2.26,2.36,2.36,0,0,1,1.51-1.3,5.15,5.15,0,0,1,.77-.18,2.15,2.15,0,0,1,.51,0l.27.9a2,2,0,0,0-.46,0,2.66,2.66,0,0,0-.63.12,1.25,1.25,0,0,0-.86.85,2.69,2.69,0,0,0,.09,1.59l0,.08a2.7,2.7,0,0,0,.8,1.39,1.13,1.13,0,0,0,1.08.2,2.25,2.25,0,0,0,.66-.3,4.79,4.79,0,0,0,.4-.29Z" fill="#002d56" fill-rule="evenodd"/><path d="M147.48,112.26l.72,1.41,1.49-.76.4.8-1.48.76.75,1.48,2-1,.39.78-3.16,1.62L146,112.05l3-1.55.4.78Z" fill="#002d56" fill-rule="evenodd"/><path d="M85.37,140.38a3.41,3.41,0,0,1,.55,2.13,1.9,1.9,0,0,1-1,1.39l-1.8,1-2.85-5.16,1.6-.9a2.06,2.06,0,0,1,2-.21,3.54,3.54,0,0,1,1.48,1.55Zm-1.13.58-.08-.14a2.88,2.88,0,0,0-1-1.14,1,1,0,0,0-1,0l-.42.23,2,3.63.51-.28a.91.91,0,0,0,.5-.75,3.15,3.15,0,0,0-.52-1.52Z" fill="#002d56" fill-rule="evenodd"/><path d="M90.68,138.16a3.13,3.13,0,0,1,.25,2.21,2.24,2.24,0,0,1-3.06,1.3,3.12,3.12,0,0,1-1.4-1.69l-.13-.31a3.45,3.45,0,0,1-.28-2.16,2,2,0,0,1,1.28-1.43,1.92,1.92,0,0,1,1.88.1,3.52,3.52,0,0,1,1.34,1.69Zm-1.2.43-.06-.15a5.39,5.39,0,0,0-.79-1.42.8.8,0,0,0-1-.16.83.83,0,0,0-.58.76,4.91,4.91,0,0,0,.47,1.62l.06.14a5.23,5.23,0,0,0,.82,1.46.8.8,0,0,0,1,.09.81.81,0,0,0,.53-.76,3.83,3.83,0,0,0-.41-1.58Z" fill="#002d56" fill-rule="evenodd"/><path d="M95.33,139.66,92.66,137l1.16,3.19-.82.3L91,135l.88-.32L95.3,138l.54-4.78.78-.28,2,5.55-1.09.39-1.15-3.18-.46,3.77Z" fill="#002d56" fill-rule="evenodd"/><path d="M103.09,81.2a1.56,1.56,0,0,1-.16.56,3.93,3.93,0,0,1-.45.81,3,3,0,0,1-1.91,1.31,3.23,3.23,0,0,1-2.45-.7L97.9,83A3.31,3.31,0,0,1,96.45,81a2.8,2.8,0,0,1,.49-2.26,4.71,4.71,0,0,1,.58-.71,2,2,0,0,1,.46-.38l.86.6a2.26,2.26,0,0,0-.44.31,3.21,3.21,0,0,0-.49.57,1.44,1.44,0,0,0-.21,1.38,2.9,2.9,0,0,0,1.15,1.35l.07,0a3,3,0,0,0,1.66.66,1.39,1.39,0,0,0,1.12-.62,3.22,3.22,0,0,0,.4-.74,4.77,4.77,0,0,0,.16-.56Z" fill="#002d56" fill-rule="evenodd"/><path d="M106.29,73.31a3.43,3.43,0,0,1,1.19,2.18,2.75,2.75,0,0,1-2.7,2.8,3.42,3.42,0,0,1-2.21-1.1l-.26-.26a3.67,3.67,0,0,1-1.2-2.11,2.43,2.43,0,0,1,.77-2.09,2.28,2.28,0,0,1,2-.78A3.77,3.77,0,0,1,106,73.07Zm-1.09,1-.13-.12a5.46,5.46,0,0,0-1.44-1.1.92.92,0,0,0-1.11.3,1,1,0,0,0-.3,1.06,5.17,5.17,0,0,0,1.18,1.46l.12.12A5.36,5.36,0,0,0,105,77.17a.94.94,0,0,0,1-.36,1,1,0,0,0,.25-1,4.2,4.2,0,0,0-1.09-1.45Z" fill="#002d56" fill-rule="evenodd"/><path d="M112.13,69.28l-2.28-3.14.85-.61,3.86,5.3-.52.37L109,69.8l2.42,3.33-.85.62-3.85-5.31.64-.46Z" fill="#002d56" fill-rule="evenodd"/><path d="M120.3,66a1.78,1.78,0,0,1,0,1.69,3.25,3.25,0,0,1-1.54,1.27,7.54,7.54,0,0,1-1.12.43,4.37,4.37,0,0,1-.82.15l-.47-1a2.6,2.6,0,0,0,.82-.07,4.5,4.5,0,0,0,1-.32,1.76,1.76,0,0,0,.81-.6.68.68,0,0,0,0-.69.71.71,0,0,0-.39-.37,3.57,3.57,0,0,0-1.25-.07,2.92,2.92,0,0,1-1.34-.2,1.83,1.83,0,0,1-.89-1,1.57,1.57,0,0,1,0-1.43,2.74,2.74,0,0,1,1.4-1.23,4.62,4.62,0,0,1,.93-.34,4.55,4.55,0,0,1,.63-.12l.42.91c-.25.05-.5.1-.74.17a3.91,3.91,0,0,0-.74.27,1.44,1.44,0,0,0-.69.52.55.55,0,0,0,0,.52.68.68,0,0,0,.4.4,4.57,4.57,0,0,0,1.26,0,2.59,2.59,0,0,1,1.49.21,1.85,1.85,0,0,1,.84.9Z" fill="#002d56" fill-rule="evenodd"/><path d="M126,60.53l-1.38.37L126,66.29l-1.43.38-1.44-5.39-1.41.38-.26-.94,4.22-1.13Z" fill="#002d56" fill-rule="evenodd"/><path d="M129.8,59.07l1.47-.1.46,6.54-1.47.1Z" fill="#002d56" fill-rule="evenodd"/><path d="M139.17,60.22l-1.43-.1-.38,5.57-1.48-.11.39-5.56-1.45-.1.06-1,4.35.31Z" fill="#002d56" fill-rule="evenodd"/><path d="M146.34,65.83a1.88,1.88,0,0,1-1,1.22A3.25,3.25,0,0,1,141.93,66a2.26,2.26,0,0,1-.05-1.75L143.17,60l1.41.43-1.34,4.39a1.2,1.2,0,0,0,0,.84,1.12,1.12,0,0,0,.72.5,1.23,1.23,0,0,0,.85,0,1.11,1.11,0,0,0,.51-.74l1.33-4.36,1,.32Z" fill="#002d56" fill-rule="evenodd"/><path d="M154.57,65.42l-1.27-.65-2.53,5-1.32-.67,2.54-5-1.31-.66.45-.87,3.88,2Z" fill="#002d56" fill-rule="evenodd"/><path d="M158.19,66.59l1.2.87-3.86,5.3-1.19-.87Z" fill="#002d56" fill-rule="evenodd"/><path d="M163.94,76.18a3.42,3.42,0,0,1-2.2,1.15,2.48,2.48,0,0,1-2-.8,2.55,2.55,0,0,1-.8-2,3.43,3.43,0,0,1,1.14-2.19l.26-.26A3.65,3.65,0,0,1,162.52,71a2.4,2.4,0,0,1,2.07.8,2.29,2.29,0,0,1,.76,2,3.83,3.83,0,0,1-1.16,2.11Zm-1-1.11.13-.13a5.67,5.67,0,0,0,1.12-1.42.93.93,0,0,0-.29-1.12,1,1,0,0,0-1-.31,5.25,5.25,0,0,0-1.48,1.15l-.11.12a5.37,5.37,0,0,0-1.17,1.46,1.14,1.14,0,0,0,1.38,1.32A4.25,4.25,0,0,0,163,75.07Z" fill="#002d56" fill-rule="evenodd"/><path d="M168,81.89l3.14-2.28.61.85-5.3,3.85-.37-.51,1.4-5.08-3.33,2.42-.62-.85,5.31-3.85.46.64Z" fill="#002d56" fill-rule="evenodd"/><path d="M151.59,138.08a24.31,24.31,0,0,1,.47-4,.77.77,0,0,0,0-.49,1.26,1.26,0,0,1-1.13-.54" fill="none" stroke="#002d56" stroke-miterlimit="3.86" stroke-width="0.5"/><path d="M148.94,155.62,149,155a2,2,0,0,0,.13-1.12,19.15,19.15,0,0,1,.2-3.89c.18-1,1.76-4.13,1.91-4.95a31.19,31.19,0,0,0,.16-3.3,5,5,0,0,1,0-1.18" fill="none" stroke="#002d56" stroke-miterlimit="3.86" stroke-width="0.5"/><path d="M147.62,147.42a6.74,6.74,0,0,1,.67,2.68,12.22,12.22,0,0,0,.24,3.57c.22.62.39,1,.5,1.28s.44.35.44.45a17.78,17.78,0,0,0,.59,3.73,12.75,12.75,0,0,1,.62,3.42,20.4,20.4,0,0,0,.55,3.53,5.13,5.13,0,0,1,.08,2.79c-.27.63-.35,1-.78,1.22a1.6,1.6,0,0,0-.76.54c-.31.38-.67,1.11-.5,1.11h6.6a6.5,6.5,0,0,0-.08-1c-.08-.4-.55-.95-.39-1.5l1.18-4.08a15.42,15.42,0,0,0,.31-4.4c-.23-2-.31-2-.16-2.67s.33-3.53.33-3.53,1.23-.33,1.31-1.19.56-3.77.64-4.55.87-4.6.87-5.3a43,43,0,0,0-.79-5.23c-.16-.31,0-2.75-1.49-3.41a8.93,8.93,0,0,1-2.83-2.16l-.28-.48" fill="none"/><path d="M151,132.67l-.35.61s-3,.65-3.39,1.38a23.28,23.28,0,0,0-.42,4.55c0,.59.15,3.07.23,3.5a2.82,2.82,0,0,1,0,.91" fill="none" stroke="#002d56" stroke-miterlimit="3.86" stroke-width="0.5"/><path d="M152.73,142.52a7.88,7.88,0,0,0,.78,3.61c.36.55,1.9,3.54,2.24,3.93.21.23.73.31.86.63.68,1.61,0,3.2.93,3.43l.27.92" fill="none" stroke="#002d56" stroke-miterlimit="3.86" stroke-width="0.5"/><path d="M154.88,132.64a3.67,3.67,0,0,1-1.91.89c-.24,0-.1.48-.2,1.05a34.88,34.88,0,0,0,0,4.44c0,.17,0,.26,0,.82" fill="none" stroke="#002d56" stroke-miterlimit="3.86" stroke-width="0.5"/><path d="M155.9,136.85l.4,1.58.55,2.91.2,1.76,0,1.58,0,1.33-.16.94-.2.87-.35,2.83a2.63,2.63,0,0,1,2.44.43" fill="none" stroke="#002d56" stroke-miterlimit="3.86" stroke-width="0.5"/><path d="M148.38,134l.08.27c-.11-.59,1.79,7.81,8.27,11.74l.32.2" fill="none" stroke="#002d56" stroke-miterlimit="3.86" stroke-width="0.5"/><path d="M149.65,133.62c.69,2.16,2.72,7.57,7.38,10.39l.06.39" fill="none" stroke="#002d56" stroke-miterlimit="3.86" stroke-width="0.5"/><path d="M150.63,146.48a5.93,5.93,0,0,0,3.05,0" fill="none" stroke="#002d56" stroke-miterlimit="3.86" stroke-width="0.5"/><path d="M152.51,152.6c.23,1.64.52,3.59.61,3.9.16.55.31,3.3.31,3.3l.08,2.67.08,3.38v3.92a2.44,2.44,0,0,0-1,2" fill="none" stroke="#002d56" stroke-miterlimit="3.86" stroke-width="0.5"/><path d="M146,144.2c-.4.6-2.38-.54-2.48,1.17-.07,1.31.18,2.79,1.45,3l.93-.62.25-.25" fill="none" stroke="#002d56" stroke-miterlimit="3.86" stroke-width="0.5"/><path d="M144.87,143.62c-.55-8.53-.3-16,1.12-21.65-3.81,5.52-2.24,21.65-2.24,21.65Z" fill="#eed000" fill-rule="evenodd"/><path d="M147.11,143.5l-.27.74a3.5,3.5,0,0,1-.93.41" fill="none" stroke="#002d56" stroke-miterlimit="3.86" stroke-width="0.5"/><path d="M145.82,144.47a5.22,5.22,0,0,1,.12,3.24" fill="none" stroke="#002d56" stroke-miterlimit="3.86" stroke-width="0.5"/><path d="M144.89,143.55l.77,0H146s.22.41-.12.56a1.5,1.5,0,0,1-.56.15" fill="none" stroke="#002d56" stroke-miterlimit="3.86" stroke-width="0.5"/><path d="M149.6,127.84l.11.64-.15.27-.66,0-.78,0a4.14,4.14,0,0,1-.54-.08c-.12,0-.49-.1-.49-.1s-.56-.74,0-1.19a13.6,13.6,0,0,1,1.31-.84c.11-.07.17,0,.17,0" fill="none" stroke="#002d56" stroke-miterlimit="3.86" stroke-width="0.5"/><path d="M149.6,128v.72" fill="none" stroke="#002d56" stroke-miterlimit="3.86" stroke-width="0.5"/><path d="M149.7,128.52a2.08,2.08,0,0,0-.08.9c.09.29.27,1,.3,1.13s.17.89.25,1.07.29.91.9,1.07a2.23,2.23,0,0,0,1.7-.21" fill="none" stroke="#002d56" stroke-miterlimit="3.86" stroke-width="0.5"/><path d="M150.89,131.26s.3-.11.4-.07a3,3,0,0,0,.4.08,1.58,1.58,0,0,1,.48,0,1.25,1.25,0,0,0,.37,0" fill="none" stroke="#002d56" stroke-miterlimit="3.86" stroke-width="0.25"/><path d="M151.16,131.64a2.6,2.6,0,0,0,1,0" fill="none" stroke="#002d56" stroke-miterlimit="3.86" stroke-width="0.25"/><path d="M152.15,128.57a1.33,1.33,0,0,1,1.21.16" fill="none" stroke="#002d56" stroke-miterlimit="3.86" stroke-width="0.25"/><path d="M151.33,128.54a1.33,1.33,0,0,1-.13.68c-.09.16-.11.44-.17.56a1.19,1.19,0,0,0-.11.44c0,.11,0,.1.18.2s.29,0,.43,0a.69.69,0,0,1,.37,0c.13,0,.3-.06.3-.18a.63.63,0,0,0-.12-.37l-.26-.19" fill="none" stroke="#002d56" stroke-miterlimit="3.86" stroke-width="0.25"/><path d="M150.12,128.61c.1,0,.72-.36,1.23,0" fill="none" stroke="#002d56" stroke-miterlimit="3.86" stroke-width="0.25"/><ellipse cx="150.66" cy="129.03" rx="0.11" ry="0.42" transform="translate(19.01 277.41) rotate(-89)" fill="none" stroke="#002d56" stroke-miterlimit="3.86" stroke-width="0.25"/><path d="M151,132.67l.07,0a2.23,2.23,0,0,0,1.7-.21" fill="none" stroke="#002d56" stroke-miterlimit="3.86" stroke-width="0.5"/><path d="M149.49,124.05s-1.61.47-1.41,1.1a3.91,3.91,0,0,0,.5,1.12,11.49,11.49,0,0,1,.54,1.25c.09.23,0,.64.41.46,2.13-1,6.71.76,5.73.68-.27,0,3,.65,3.5.3.11-.07.34-.22,0-.77a11.78,11.78,0,0,0-1.32-1.55,7.59,7.59,0,0,1-1.43-1.27,2.18,2.18,0,0,0-1.36-.88,10,10,0,0,0-2-.25,3.7,3.7,0,0,1-1.17-.08,16.81,16.81,0,0,0-2-.11Z" fill="none" stroke="#002d56" stroke-miterlimit="3.86" stroke-width="0.5"/><path d="M153.37,158a3.87,3.87,0,0,0,3.7,0c1.87-1,.35-.19.35-.19" fill="none" stroke="#002d56" stroke-miterlimit="3.86" stroke-width="0.5"/><path d="M149.36,158.2a4.6,4.6,0,0,0,3.81-.11" fill="none" stroke="#002d56" stroke-miterlimit="3.86" stroke-width="0.5"/><ellipse cx="152.71" cy="129.09" rx="0.11" ry="0.44" transform="translate(8.36 267.46) rotate(-84)" fill="none" stroke="#002d56" stroke-miterlimit="3.86" stroke-width="0.25"/><path d="M150.25,147.56a7,7,0,0,0,4,0" fill="none" stroke="#002d56" stroke-miterlimit="3.86" stroke-width="0.5"/><path d="M164.69,169.85h15.59V172H164.69Z" fill="#eed000" stroke="#002d56" stroke-miterlimit="3.86" stroke-width="0.75" fill-rule="evenodd"/><path d="M0,266.62H600V399.87H0Z" fill="#b50027"/></svg>