<svg xmlns="http://www.w3.org/2000/svg" width="600" height="400" viewBox="0 0 600 400"><path fill="#fff" stroke="#50d6cc" stroke-linecap="round" stroke-linejoin="round" d="M70.31 111.23h490.54v109.01H70.31zM70.31 2.22h490.54v109.01H70.31zM70.31 220.24h490.54v109.01H70.31z"/><path d="M380.28 129.52a109 109 0 100 72.43l-102.85-36.21z" fill="#fff" stroke="#50d6cc" stroke-linecap="round" stroke-linejoin="round"/><circle cx="277.43" cy="165.74" r="54.5" fill="#fff" stroke="#50d6cc" stroke-linecap="round" stroke-linejoin="round"/><path fill="none" stroke="#a3a3a3" stroke-linecap="round" stroke-linejoin="round" stroke-dasharray="5 5" d="M568.86 2.22h13.57v41.91M568.86 111.23h13.57V70.58M61.85 2.22H4.8v148M61.85 329.25H4.8V180.16"/><path d="M4.83 159.37a3 3 0 013.08 3A4.76 4.76 0 016 165.69 13.93 13.93 0 003.16 169H7.6a.24.24 0 00.19-.07.22.22 0 01.23-.07V170H1.8v-.75a12.61 12.61 0 013.07-3.94c.77-.7 1.86-1.63 1.86-2.92a2 2 0 00-2-2 2.21 2.21 0 00-1.81 1c-.09.14 0 .24-.15.39l-.86-.69a3.44 3.44 0 012.92-1.72z"/><path fill="none" stroke="#a3a3a3" stroke-linecap="round" stroke-linejoin="round" stroke-dasharray="5 5" d="M380.28 56.73H39.79v95.49M380.28 274.74H39.79v-96.58"/><path d="M32.13 170.05h-1.19v-9.14l-2.13.63-.28-.66 2.78-1.45h.82zM39.59 170.23a1 1 0 111-1 1 1 0 01-1 1zM51.21 159.44v1.08h-4.37l-.16 3a3.78 3.78 0 011.72-.41 3.19 3.19 0 013.21 3.53 3.26 3.26 0 01-3.35 3.54 3.77 3.77 0 01-3.14-1.63l1.06-.79c.14.1.06.27.13.4a2.51 2.51 0 001.94 1 2.56 2.56 0 000-5.05 2.55 2.55 0 00-2 1l-.77-.31.37-5.39zM263.41 90a1 1 0 110-1.95 1 1 0 110 1.95zM274.17 79.16v6.63h1.37v1.06h-1.37v2.92h-1.23v-2.94h-4.27V86l4.51-6.79zm-4.32 6.63H273v-4.74zM281.44 89.78h-1.19v-9.14l-2.12.63-.28-.66 2.77-1.45h.82zM292.19 79.17v.66q-1.08 2.46-2 5t-1.69 5h-1.34q.94-2.86 2-5.67c.49-1.27 1-2.54 1.54-3.8h-4.53v-1.19zM337.48 172.32a1 1 0 110-2 1 1 0 110 2zM347.33 166.48a2.85 2.85 0 011.82 2.73 3.08 3.08 0 01-3.27 3.09 3.7 3.7 0 01-2.78-1.2l.9-1.1c.15.15.07.32.22.48a2.3 2.3 0 001.65.72 2.13 2.13 0 002.13-2.16c0-1.27-1.05-2-2.48-2a4.89 4.89 0 00-.54 0v-1a4 4 0 001.67-.27 1.86 1.86 0 001.13-1.67 1.72 1.72 0 00-1.84-1.65 2.56 2.56 0 00-1.83.82l-.66-.74a3.49 3.49 0 012.55-1.03 2.79 2.79 0 012.91 2.68 2.45 2.45 0 01-1.58 2.3zM355.52 172.14h-1.19V163l-2.13.63-.28-.66 2.78-1.45h.82zM363.21 161.46a3 3 0 013.08 3 4.76 4.76 0 01-1.87 3.34 13.93 13.93 0 00-2.88 3.3H366a.24.24 0 00.19-.07.21.21 0 01.22-.07v1.19h-6.22v-.75a12.83 12.83 0 013.08-3.95c.77-.69 1.86-1.62 1.86-2.91a2 2 0 00-2-2 2.23 2.23 0 00-1.81 1c-.09.15-.05.25-.15.4l-.86-.69a3.44 3.44 0 012.9-1.79zM374.76 161.53v.66q-1.06 2.46-2 5c-.61 1.63-1.17 3.29-1.68 5h-1.34q.94-2.87 2-5.67c.5-1.27 1-2.54 1.55-3.8h-4.54v-1.13zM402.87 172.32a1 1 0 111-1 1 1 0 01-1 1zM414.51 162.38l-.82.91c-.15-.11-.15-.27-.25-.38a1.93 1.93 0 00-1.24-.44c-.76 0-2.51.47-2.57 4.1a2.59 2.59 0 012.24-1.28c1.5 0 2.91 1.26 2.91 3.47s-1.41 3.54-3 3.54a3 3 0 01-2.51-1.41 6.47 6.47 0 01-.8-3.59 10.2 10.2 0 01.46-3.26 3.53 3.53 0 013.28-2.63 3.34 3.34 0 012.3.97zm-4.82 5.37c-.14 2 .82 3.5 2.12 3.5.89 0 1.81-.78 1.81-2.43 0-1.83-1-2.49-1.86-2.49a2.51 2.51 0 00-2.07 1.42zM420.1 161.46a3 3 0 013.07 3 4.76 4.76 0 01-1.87 3.34 13.93 13.93 0 00-2.88 3.3h4.45a.23.23 0 00.18-.07.22.22 0 01.23-.07v1.19h-6.22v-.75a12.66 12.66 0 013.07-3.95c.77-.69 1.86-1.62 1.86-2.91a2 2 0 00-2-2 2.24 2.24 0 00-1.82 1c-.09.15 0 .25-.14.4l-.87-.69a3.44 3.44 0 012.94-1.79zM431.48 161.53v1.07h-4.37l-.16 3.06a3.79 3.79 0 011.73-.41 3.19 3.19 0 013.2 3.53 3.26 3.26 0 01-3.34 3.54 3.78 3.78 0 01-3.14-1.63l1.05-.79c.15.1.06.27.13.4a2.56 2.56 0 001.94 1 2.55 2.55 0 000-5 2.56 2.56 0 00-2 1l-.76-.31.37-5.39zM440 161.53v1.07h-4.37l-.16 3.06a3.79 3.79 0 011.73-.41 3.19 3.19 0 013.2 3.53 3.26 3.26 0 01-3.34 3.54 3.78 3.78 0 01-3.14-1.63l1.05-.79c.15.1.06.27.13.4a2.56 2.56 0 001.94 1 2.55 2.55 0 000-5 2.56 2.56 0 00-2 1l-.76-.31.37-5.39zM569.49 63.31a1 1 0 111-1 1 1 0 01-1 1zM581.13 53.38l-.82.91c-.15-.12-.15-.28-.26-.39a1.92 1.92 0 00-1.23-.44c-.76 0-2.51.47-2.57 4.1a2.59 2.59 0 012.24-1.28c1.5 0 2.91 1.27 2.91 3.47s-1.42 3.54-3 3.54a3 3 0 01-2.51-1.4 6.52 6.52 0 01-.8-3.6 10.37 10.37 0 01.45-3.25 3.54 3.54 0 013.29-2.63 3.3 3.3 0 012.3.97zm-4.82 5.37c-.14 2 .82 3.49 2.11 3.49.9 0 1.82-.77 1.82-2.43 0-1.83-1-2.49-1.86-2.49a2.51 2.51 0 00-2.07 1.43zM589.63 53.38l-.82.91c-.15-.12-.15-.28-.26-.39a1.92 1.92 0 00-1.23-.44c-.76 0-2.51.47-2.57 4.1a2.59 2.59 0 012.25-1.28c1.5 0 2.91 1.27 2.91 3.47s-1.42 3.54-3 3.54a3 3 0 01-2.51-1.4 6.52 6.52 0 01-.8-3.6A10.37 10.37 0 01584 55a3.54 3.54 0 013.29-2.63 3.3 3.3 0 012.34 1.01zm-4.82 5.37c-.14 2 .82 3.49 2.11 3.49.9 0 1.82-.77 1.82-2.43 0-1.83-1-2.49-1.86-2.49a2.51 2.51 0 00-2.07 1.43zM598.13 53.38l-.82.91c-.15-.12-.15-.28-.26-.39a1.92 1.92 0 00-1.23-.44c-.76 0-2.51.47-2.57 4.1a2.59 2.59 0 012.24-1.28c1.5 0 2.91 1.27 2.91 3.47s-1.42 3.54-3 3.54a3 3 0 01-2.51-1.4 6.52 6.52 0 01-.8-3.6 10.37 10.37 0 01.45-3.25 3.54 3.54 0 013.29-2.63 3.3 3.3 0 012.3.97zm-4.82 5.37c-.14 2 .82 3.49 2.11 3.49.9 0 1.82-.77 1.82-2.43 0-1.83-1-2.49-1.86-2.49a2.51 2.51 0 00-2.07 1.43z"/><path fill="none" stroke="#a3a3a3" stroke-linecap="round" stroke-linejoin="round" stroke-dasharray="5 5" d="M582.43 111.23v39.91M568.86 220.24h13.57v-41.16"/><path d="M569.49 168.28a1 1 0 111-1 1 1 0 01-1 1zM581.13 158.34l-.82.91c-.15-.11-.15-.27-.26-.38a1.86 1.86 0 00-1.23-.44c-.76 0-2.51.47-2.57 4.1a2.59 2.59 0 012.24-1.28c1.5 0 2.91 1.26 2.91 3.47s-1.42 3.54-3 3.54a3 3 0 01-2.51-1.41 6.47 6.47 0 01-.8-3.59 10.48 10.48 0 01.45-3.26 3.55 3.55 0 013.29-2.63 3.34 3.34 0 012.3.97zm-4.82 5.37c-.14 2 .82 3.5 2.11 3.5.9 0 1.82-.78 1.82-2.43 0-1.83-1-2.49-1.86-2.49a2.5 2.5 0 00-2.07 1.42zM589.63 158.34l-.82.91c-.15-.11-.15-.27-.26-.38a1.86 1.86 0 00-1.23-.44c-.76 0-2.51.47-2.57 4.1a2.59 2.59 0 012.24-1.28c1.5 0 2.91 1.26 2.91 3.47s-1.42 3.54-3 3.54a3 3 0 01-2.51-1.41 6.47 6.47 0 01-.8-3.59A10.48 10.48 0 01584 160a3.55 3.55 0 013.29-2.63 3.34 3.34 0 012.34.97zm-4.82 5.37c-.14 2 .82 3.5 2.11 3.5.9 0 1.82-.78 1.82-2.43 0-1.83-1-2.49-1.86-2.49a2.5 2.5 0 00-2.07 1.42zM598.13 158.34l-.82.91c-.15-.11-.15-.27-.26-.38a1.86 1.86 0 00-1.23-.44c-.76 0-2.51.47-2.57 4.1a2.59 2.59 0 012.24-1.28c1.5 0 2.91 1.26 2.91 3.47s-1.42 3.54-3 3.54a3 3 0 01-2.51-1.41 6.47 6.47 0 01-.8-3.59 10.48 10.48 0 01.45-3.26 3.55 3.55 0 013.29-2.63 3.34 3.34 0 012.3.97zm-4.82 5.37c-.14 2 .82 3.5 2.11 3.5.9 0 1.82-.78 1.82-2.43 0-1.83-1-2.49-1.86-2.49a2.5 2.5 0 00-2.07 1.42z"/><path fill="none" stroke="#a3a3a3" stroke-linecap="round" stroke-linejoin="round" stroke-dasharray="5 5" d="M277.43 111.23v41.91M277.43 220.24v-41.16"/><path d="M264.48 172.32a1 1 0 110-2 1 1 0 110 2zM276.13 162.38l-.82.91c-.16-.11-.15-.27-.26-.38a1.86 1.86 0 00-1.23-.44c-.77 0-2.51.47-2.57 4.1a2.58 2.58 0 012.24-1.28c1.5 0 2.91 1.26 2.91 3.47s-1.42 3.54-3 3.54a3 3 0 01-2.5-1.41 6.47 6.47 0 01-.8-3.59 10.48 10.48 0 01.45-3.26 3.54 3.54 0 013.29-2.63 3.34 3.34 0 012.29.97zm-4.83 5.37c-.14 2 .83 3.5 2.12 3.5.9 0 1.82-.78 1.82-2.43 0-1.83-1-2.49-1.86-2.49a2.52 2.52 0 00-2.08 1.42zM284.63 162.38l-.82.91c-.16-.11-.15-.27-.26-.38a1.86 1.86 0 00-1.23-.44c-.77 0-2.51.47-2.57 4.1a2.58 2.58 0 012.24-1.28c1.5 0 2.91 1.26 2.91 3.47s-1.42 3.54-3 3.54a3 3 0 01-2.5-1.41 6.47 6.47 0 01-.8-3.59 10.48 10.48 0 01.4-3.3 3.54 3.54 0 013.29-2.63 3.34 3.34 0 012.34 1.01zm-4.83 5.37c-.14 2 .83 3.5 2.12 3.5.9 0 1.82-.78 1.82-2.43 0-1.83-1-2.49-1.86-2.49a2.52 2.52 0 00-2.08 1.42zM293.13 162.38l-.82.91c-.16-.11-.15-.27-.26-.38a1.86 1.86 0 00-1.23-.44c-.77 0-2.51.47-2.57 4.1a2.58 2.58 0 012.24-1.28c1.5 0 2.91 1.26 2.91 3.47s-1.42 3.54-3 3.54a3 3 0 01-2.5-1.41 6.47 6.47 0 01-.8-3.59 10.48 10.48 0 01.45-3.26 3.54 3.54 0 013.29-2.63 3.34 3.34 0 012.29.97zm-4.83 5.37c-.14 2 .83 3.5 2.12 3.5.9 0 1.82-.78 1.82-2.43 0-1.83-1-2.49-1.86-2.49a2.52 2.52 0 00-2.08 1.42z"/><path fill="none" stroke="#a3a3a3" stroke-linecap="round" stroke-linejoin="round" stroke-dasharray="5 5" d="M582.43 220.24v39.41M568.86 329.25h13.57v-41.16"/><path d="M569.49 277.33a1 1 0 111-1 1 1 0 01-1 1zM581.13 267.39l-.82.91c-.15-.11-.15-.27-.26-.38a1.86 1.86 0 00-1.23-.44c-.76 0-2.51.47-2.57 4.09a2.6 2.6 0 012.24-1.27c1.5 0 2.91 1.26 2.91 3.47s-1.42 3.54-3 3.54a3 3 0 01-2.51-1.41 6.47 6.47 0 01-.8-3.59 10.48 10.48 0 01.45-3.26 3.55 3.55 0 013.29-2.63 3.34 3.34 0 012.3.97zm-4.82 5.37c-.14 2 .82 3.5 2.11 3.5.9 0 1.82-.78 1.82-2.43 0-1.83-1-2.49-1.86-2.49a2.5 2.5 0 00-2.07 1.42zM589.63 267.39l-.82.91c-.15-.11-.15-.27-.26-.38a1.86 1.86 0 00-1.23-.44c-.76 0-2.51.47-2.57 4.09a2.6 2.6 0 012.25-1.27c1.5 0 2.91 1.26 2.91 3.47s-1.42 3.54-3 3.54a3 3 0 01-2.51-1.41 6.47 6.47 0 01-.8-3.59 10.48 10.48 0 01.45-3.26 3.55 3.55 0 013.29-2.63 3.34 3.34 0 012.29.97zm-4.82 5.37c-.14 2 .82 3.5 2.11 3.5.9 0 1.82-.78 1.82-2.43 0-1.83-1-2.49-1.86-2.49a2.5 2.5 0 00-2.07 1.42zM598.13 267.39l-.82.91c-.15-.11-.15-.27-.26-.38a1.86 1.86 0 00-1.23-.44c-.76 0-2.51.47-2.57 4.09a2.6 2.6 0 012.24-1.27c1.5 0 2.91 1.26 2.91 3.47s-1.42 3.54-3 3.54a3 3 0 01-2.51-1.41 6.47 6.47 0 01-.8-3.59 10.48 10.48 0 01.45-3.26 3.55 3.55 0 013.29-2.63 3.34 3.34 0 012.3.97zm-4.82 5.37c-.14 2 .82 3.5 2.11 3.5.9 0 1.82-.78 1.82-2.43 0-1.83-1-2.49-1.86-2.49a2.5 2.5 0 00-2.07 1.42zM319.27 387.28a3 3 0 011.9 2.85 3.2 3.2 0 01-3.4 3.21 3.86 3.86 0 01-2.89-1.25l.93-1.11c.16.16.08.33.23.5a2.4 2.4 0 001.72.74A2.21 2.21 0 00320 390c0-1.32-1.1-2.1-2.59-2.1a5.46 5.46 0 00-.56 0v-1a4.07 4.07 0 001.74-.28 1.92 1.92 0 001.18-1.73 1.8 1.8 0 00-1.92-1.72 2.65 2.65 0 00-1.9.85l-.68-.77a3.6 3.6 0 012.64-1.18 2.9 2.9 0 013 2.8 2.53 2.53 0 01-1.64 2.41z"/><path fill="none" stroke="#a3a3a3" stroke-linecap="round" stroke-linejoin="round" stroke-dasharray="5 5" d="M70.31 84.7v302.24H303.2M560.85 338.65v48.29H329.98"/><path d="M115.94 364.74a1 1 0 110-2 1 1 0 110 2zM128.06 354.41l-.86.94c-.16-.12-.16-.28-.26-.4a2 2 0 00-1.29-.46c-.79 0-2.61.5-2.68 4.27a2.71 2.71 0 012.34-1.33c1.56 0 3 1.31 3 3.61s-1.47 3.68-3.14 3.68a3.14 3.14 0 01-2.61-1.46 6.83 6.83 0 01-.83-3.74 10.72 10.72 0 01.47-3.39 3.69 3.69 0 013.42-2.73 3.47 3.47 0 012.44 1.01zM123 360c-.15 2.06.86 3.63 2.2 3.63.93 0 1.89-.8 1.89-2.52 0-1.9-1-2.59-1.94-2.59A2.62 2.62 0 00123 360z"/><path fill="none" stroke="#a3a3a3" stroke-linecap="round" stroke-linejoin="round" stroke-dasharray="5 5" d="M70.31 358.33h37.88M168.42 57.03v301.3h-29.96"/><path d="M268.38 364.56h-1.24v-9.51l-2.21.65-.29-.68 2.89-1.51h.85zM276.15 364.74a1 1 0 110-2 1 1 0 110 2zM288.24 353.52v1.11h-4.55l-.17 3.18a4 4 0 011.8-.43c1.84 0 3.33 1.32 3.33 3.68a3.39 3.39 0 01-3.48 3.68 3.92 3.92 0 01-3.27-1.7l1.1-.82c.15.11.06.28.13.42a2.66 2.66 0 002 1 2.66 2.66 0 000-5.26 2.69 2.69 0 00-2.07 1l-.79-.32.38-5.6z"/><path fill="none" stroke="#a3a3a3" stroke-linecap="round" stroke-linejoin="round" stroke-dasharray="5 5" d="M380.99 56.73v301.6h-81.74M168.42 358.33h87.18M277.43 56.73V76.4M277.43 96.23v15"/><path fill="none" stroke="#a3a3a3" stroke-linecap="round" stroke-linejoin="round" stroke-dasharray="5 5" d="M315.58 148.15h41.9v3.37M315.58 182.55h41.9v-3.42M354.18 129.52h67.52v16.61M354.18 201.95h67.52v-22.87M260.68 111.23h33.49M260.68 220.24h33.49"/></svg>