<svg xmlns="http://www.w3.org/2000/svg" width="300" height="300"><path d="M9.73 56L27 61.69l2.06-6.25 3.75 1.24-5.51 16.77-3.76-1.24 2-6.2L8.3 60.32 9.73 56M4.45 74.1l21.93 3.14-.65 4.54-8.17-1.17-1.3 9 8.18 1.17-.65 4.54-21.93-3.09.65-4.54 9.72 1.4L13.52 80 3.8 78.64l.65-4.54M1.5 99.82l22.14-.65.47 16.07-3.85.12-.33-11.58-4.72.14.3 10.58-3.79.11-.3-10.61-5.7.16.35 12.12-4.07.15-.5-16.61M6.44 142.52l20.86-7.45 2.26 6.35-14.39 9.81 17.33-1.56 2.28 6.33-20.87 7.44-1.43-4 16.83-6L11 155.22l-1.6-4.39 15.3-10.29-16.83 6-1.43-4M28.42 167.33a8.86 8.86 0 00-4.07 4.29 5.5 5.5 0 00.58 4.94 5.55 5.55 0 004.07 2.92 8.76 8.76 0 005.72-1.48 8.76 8.76 0 004.05-4.29 5.58 5.58 0 00-.59-5 5.52 5.52 0 00-4-2.88 8.85 8.85 0 00-5.72 1.49m-2.37-4q4.62-2.73 8.81-1.82a10.24 10.24 0 016.74 5.19 10.23 10.23 0 011.3 8.41 12 12 0 01-5.87 6.9 12 12 0 01-8.83 1.79 10.24 10.24 0 01-6.73-5.19 10.22 10.22 0 01-1.3-8.4 12.06 12.06 0 015.84-6.85M48.09 177.54l3 3.5-10.56 9a5.73 5.73 0 00-2.19 3.22 4.09 4.09 0 001.22 3.24 4.08 4.08 0 003 1.72 5.58 5.58 0 003.53-1.65l10.56-9 3 3.46-10.93 9.36a8.25 8.25 0 01-6.25 2.32c-2.08-.2-4.06-1.39-5.91-3.56s-2.76-4.33-2.66-6.44a8.28 8.28 0 013.28-5.81l10.94-9.36M47.38 210.46l14.17-17 3.66 3-2.82 17.45 9.74-11.7 3.45 2.88-14.16 17-3.62-3 2.77-17.49-9.73 11.7-3.46-2.88M72.86 229.4L82 213.64l-5.69-3.29 2-3.43 15.29 8.83-2 3.43-5.65-3.27-9.1 15.76-3.94-2.27M113.82 233.3l5.22 1.19a3.87 3.87 0 002.65-.13 2.72 2.72 0 001.3-2 2.81 2.81 0 00-.29-2.31 3.4 3.4 0 00-2.15-1.26l-5.43-1.23-1.3 5.72m-7.2 11.15l4.9-21.6 10.48 2.39q3.52.81 4.89 2.7a6.05 6.05 0 01.65 5A6.25 6.25 0 01126 236a4.21 4.21 0 01-2.79 1.26 3.69 3.69 0 011.65 2 7.42 7.42 0 010 3.36l-.49 2.57a.51.51 0 010 .09c-.26 1.29-.16 2.14.3 2.53l-.15.66-4.86-1.1a4.35 4.35 0 01-.12-1.2 13 13 0 01.22-1.63l.45-2.29a4.29 4.29 0 00-.14-2.89 3.44 3.44 0 00-2.29-1.26l-4.78-1.04-1.91 8.4-4.44-1M131.6 226.85l4.6.28-.84 13.87a5.65 5.65 0 00.8 3.81 4.06 4.06 0 003.17 1.37 4.13 4.13 0 003.34-1 5.57 5.57 0 001.26-3.69l.84-13.88 4.55.28-.87 14.36a8.22 8.22 0 01-2.66 6.11c-1.59 1.36-3.82 2-6.67 1.79s-5-1-6.48-2.56a8.27 8.27 0 01-1.9-6.4l.86-14.37M153.58 243.43l4.47-.48a3.82 3.82 0 001.77 2.54 6.16 6.16 0 003.63.49 5.17 5.17 0 002.9-1 2.4 2.4 0 00.79-2.18q-.21-2-6.11-2.71h-.14l-.47-.05a14.85 14.85 0 01-4.56-1.05 4.85 4.85 0 01-2-1.82 6.8 6.8 0 01-.93-2.92 5.9 5.9 0 011.66-5.15 10.09 10.09 0 016.13-2.39 9.11 9.11 0 016.22 1.19 6.66 6.66 0 012.85 4.9l-4.35.46a3.22 3.22 0 00-1.49-2.31 5.13 5.13 0 00-3.24-.5 4.61 4.61 0 00-2.68 1 2.3 2.3 0 00-.75 2.07q.19 1.75 4 2.23l1.63.2q2.48.36 3.51.6a11.17 11.17 0 011.84.57 5 5 0 012.23 1.78 6 6 0 011 2.88 6.53 6.53 0 01-1.76 5.58 12.18 12.18 0 01-13.06 1.34 7.22 7.22 0 01-3.12-5.22M178.35 247.19l-5.95-21.34 4.42-1.24 2.22 8 8.81-2.46-2.22-8 4.42-1.23 5.95 21.34-4.42 1.24-2.64-9.5-8.81 2.45 2.64 9.46-4.42 1.24M203.63 239.52l-9.95-19.79 6-3 11.51 13.08-3.69-17 6-3 9.95 19.79-3.81 1.92-8-16 4 18-4.17 2.1-12.09-13.92 8 16-3.81 1.92M225.5 214.69a8.92 8.92 0 004.75 3.52 6.18 6.18 0 007.23-5.58 10.64 10.64 0 00-6.93-9 6.16 6.16 0 00-7.24 5.56 8.82 8.82 0 002.19 5.49m-3.68 2.84a12 12 0 01-2.89-8.52 11.46 11.46 0 0112.51-9.64 13.76 13.76 0 0110.39 13.48 11.44 11.44 0 01-12.51 9.64 12 12 0 01-7.5-5M243.88 197.14l3.59-4a3.83 3.83 0 001.2-2.37 3.38 3.38 0 00-3.24-3 3.32 3.32 0 00-2.16 1.25l-3.74 4.12 4.35 3.94m6.17 11.76L233.64 194l7.22-7.95c1.62-1.79 3.21-2.77 4.75-2.94a6 6 0 014.68 1.89 6.13 6.13 0 011.93 2.91A4.26 4.26 0 01252 191a3.61 3.61 0 012.53-.47 7.35 7.35 0 012.9 1.68l2 1.7.07.06c1 .86 1.78 1.19 2.36 1l.5.45-3.36 3.7a4.29 4.29 0 01-1.1-.49 12.19 12.19 0 01-1.31-1l-1.77-1.52a4.21 4.21 0 00-2.59-1.29 3.49 3.49 0 00-2.22 1.37l-3.24 3.58 6.38 5.79-3.06 3.38M266.14 190.3l-18.6-12 8.73-13.5 3.23 2.1-6.29 9.72 4 2.56 5.75-8.88 3.18 2.05-5.75 8.89 4.78 3.1 6.59-10.18 3.44 2.23-9 14M278.13 154.31l1.35-4.29a3.84 3.84 0 003-.6 6.18 6.18 0 001.9-3.14 5.28 5.28 0 00.23-3.07 2.42 2.42 0 00-1.7-1.59Q281 141 278 146.14a.63.63 0 01-.07.12l-.24.42a14.75 14.75 0 01-2.78 3.76 4.93 4.93 0 01-2.46 1.1 6.87 6.87 0 01-3.05-.31 5.92 5.92 0 01-4.06-3.58 10 10 0 01.26-6.58 9.1 9.1 0 013.56-5.23 6.68 6.68 0 015.63-.65l-1.31 4.17a3.19 3.19 0 00-2.71.44 5.14 5.14 0 00-1.75 2.77 4.71 4.71 0 00-.16 2.86 2.29 2.29 0 001.61 1.51c1.11.35 2.33-.58 3.64-2.81l.84-1.41c.87-1.41 1.52-2.41 1.94-3a10.64 10.64 0 011.27-1.46 5 5 0 012.52-1.34 6 6 0 013 .25 6.57 6.57 0 014.43 3.83 10.22 10.22 0 01-.17 6.84 10.08 10.08 0 01-3.82 5.67 7.23 7.23 0 01-6 .78M292.37 126.49l-18-2.53-.92 6.51-3.91-.55 2.46-17.49 3.91.55-.91 6.47 18 2.55-.64 4.51M276.39 102.9l9.46 3-.05-6.15-9.41 3.16m-4.39 2.67l-.05-5.27L294 92.15v4.78l-4.54 1.54.06 8.59 4.57 1.42v4.8l-22.09-7.7M292.75 83.82l-18 2.78 1 6.49-3.91.61-2.69-17.45 3.91-.61 1 6.46 18-2.78.7 4.5M289.24 65.56l-21 7-5.08-15.25 3.65-1.22 3.66 11 4.48-1.49-3.35-10.05 3.6-1.19 3.34 10 5.41-1.8-3.83-11.5L284 49.8l5.25 15.76" fill="none" stroke="#000" stroke-linecap="round" stroke-linejoin="round" stroke-width="1.5"/></svg>