<svg xmlns="http://www.w3.org/2000/svg" width="600" height="315.79"><path fill="#bf0a30" d="M0 0h600v315.79H0z"/><path fill="#fff" d="M0 24.29h600v24.29H0zM0 72.87h600v24.29H0zM0 121.46h600v24.29H0zM0 170.04h600v24.29H0zM0 218.62h600v24.29H0zM0 267.21h600v24.29H0z"/><path d="M240.37 170V0H.15v170z" fill="#002868" fill-rule="evenodd"/><path d="M224.23 37.88l-5.75-4.18-5.75 4.18 2.19-6.76-5.75-4.18h7.11l2.2-6.77 2.2 6.77h7.11L222 31.12zM196.21 37.88l-5.75-4.18-5.75 4.18 2.19-6.76-5.75-4.18h7.11l2.2-6.77 2.2 6.77h7.11L194 31.12zM168.19 37.88l-5.75-4.18-5.75 4.18 2.19-6.76-5.75-4.18h7.11l2.2-6.77 2.2 6.77h7.11L166 31.12zM140.17 37.88l-5.75-4.18-5.75 4.18 2.19-6.76-5.75-4.18h7.11l2.2-6.77 2.2 6.77h7.11L138 31.12zM112.15 37.88l-5.75-4.18-5.75 4.18 2.19-6.76-5.75-4.18h7.11l2.2-6.77 2.2 6.77h7.11L110 31.12zM84.13 37.88l-5.75-4.18-5.75 4.18 2.19-6.76-5.75-4.18h7.11l2.2-6.77 2.2 6.77h7.11l-5.75 4.18zM56.11 37.88l-5.75-4.18-5.76 4.18 2.2-6.76-5.75-4.18h7.11l2.2-6.77 2.2 6.77h7.11l-5.75 4.18zM28.09 37.88l-5.75-4.18-5.76 4.18 2.2-6.76L13 26.94h7.11l2.2-6.77 2.2 6.77h7.11l-5.76 4.18zM210.22 75.21L204.47 71l-5.75 4.18 2.19-6.77-5.75-4.18h7.11l2.2-6.76 2.2 6.76h7.11L208 68.44zM182.2 75.21L176.45 71l-5.75 4.18 2.19-6.77-5.75-4.18h7.11l2.2-6.76 2.2 6.76h7.11L180 68.44zM154.18 75.21L148.43 71l-5.75 4.18 2.19-6.77-5.75-4.18h7.11l2.2-6.76 2.2 6.76h7.11L152 68.44zM126.16 75.21L120.41 71l-5.75 4.18 2.19-6.77-5.75-4.18h7.11l2.2-6.76 2.2 6.76h7.11L124 68.44zM98.14 75.21L92.39 71l-5.75 4.18 2.19-6.77-5.75-4.18h7.11l2.2-6.76 2.2 6.76h7.11L96 68.44zM70.12 75.21L64.37 71l-5.75 4.18 2.19-6.77-5.75-4.18h7.11l2.2-6.76 2.2 6.76h7.11l-5.75 4.18zM42.1 75.21L36.35 71l-5.75 4.21 2.19-6.77L27 64.26h7.11l2.2-6.76 2.2 6.76h7.11l-5.75 4.18zM196.21 112.54l-5.75-4.18-5.75 4.18 2.19-6.77-5.75-4.18h7.11l2.2-6.76 2.2 6.76h7.11l-5.77 4.18zM168.19 112.54l-5.75-4.18-5.75 4.18 2.19-6.77-5.75-4.18h7.11l2.2-6.76 2.2 6.76h7.11l-5.75 4.18zM140.17 112.54l-5.75-4.18-5.75 4.18 2.19-6.77-5.75-4.18h7.11l2.2-6.76 2.2 6.76h7.11l-5.73 4.18zM112.15 112.54l-5.75-4.18-5.75 4.18 2.19-6.77-5.75-4.18h7.11l2.2-6.76 2.2 6.76h7.11l-5.71 4.18zM84.13 112.54l-5.75-4.18-5.75 4.18 2.19-6.77-5.75-4.18h7.11l2.2-6.76 2.2 6.76h7.11l-5.75 4.18zM56.11 112.54l-5.75-4.18-5.76 4.18 2.2-6.77-5.75-4.18h7.11l2.2-6.76 2.2 6.76h7.11l-5.75 4.18zM224.23 149.87l-5.75-4.18-5.75 4.18 2.19-6.77-5.75-4.18h7.11l2.2-6.76 2.2 6.76h7.11L222 143.1zM196.21 149.87l-5.75-4.18-5.75 4.18 2.19-6.77-5.75-4.18h7.11l2.2-6.76 2.2 6.76h7.11L194 143.1zM168.19 149.87l-5.75-4.18-5.75 4.18 2.19-6.77-5.75-4.18h7.11l2.2-6.76 2.2 6.76h7.11L166 143.1zM140.17 149.87l-5.75-4.18-5.75 4.18 2.19-6.77-5.75-4.18h7.11l2.2-6.76 2.2 6.76h7.11L138 143.1zM112.15 149.87l-5.75-4.18-5.75 4.18 2.19-6.77-5.75-4.18h7.11l2.2-6.76 2.2 6.76h7.11L110 143.1zM84.13 149.87l-5.75-4.18-5.75 4.18 2.19-6.77-5.75-4.18h7.11l2.2-6.76 2.2 6.76h7.11l-5.75 4.18zM56.11 149.87l-5.75-4.18-5.76 4.18 2.2-6.77-5.75-4.18h7.11l2.2-6.76 2.2 6.76h7.11l-5.75 4.18zM28.09 149.87l-5.75-4.18-5.76 4.18 2.2-6.77-5.78-4.18h7.11l2.2-6.76 2.2 6.76h7.11l-5.76 4.18z" fill="#fff" fill-rule="evenodd"/></svg>