<svg version="1.1" id="Layer_1" xmlns="http://www.w3.org/2000/svg" xmlns:xlink="http://www.w3.org/1999/xlink" x="0" y="0" viewBox="0 0 600 300" xml:space="preserve"><style>.st0{fill:#cf142b}</style><path class="st0" d="M0 0h600v300H0z"/><defs><path id="SVGID_1_" d="M0 0h289.3v165.5H0z"/></defs><clipPath id="SVGID_2_"><use xlink:href="#SVGID_1_" overflow="visible"/></clipPath><path clip-path="url(#SVGID_2_)" fill="#00237d" d="M0 0h289.3v165.5H0z"/><defs><path id="SVGID_3_" d="M0 0h289.3v165.5H0z"/></defs><clipPath id="SVGID_4_"><use xlink:href="#SVGID_3_" overflow="visible"/></clipPath><path clip-path="url(#SVGID_4_)" fill="#fff" d="M117.1-5h55.1v182.7h-55.1z"/><defs><path id="SVGID_5_" d="M0 0h289.3v165.5H0z"/></defs><clipPath id="SVGID_6_"><use xlink:href="#SVGID_5_" overflow="visible"/></clipPath><path clip-path="url(#SVGID_6_)" fill="#fff" d="M297.8 13.9V-4.8h-33.9l-268 153.2v19.5h32.6z"/><defs><path id="SVGID_7_" d="M0 0h289.3v165.5H0z"/></defs><clipPath id="SVGID_8_"><use xlink:href="#SVGID_7_" overflow="visible"/></clipPath><path clip-path="url(#SVGID_8_)" fill="#fff" d="M-3.2-1.8v19.5l265.7 151.9h33.9v-18.8L29.5-1.8z"/><defs><path id="SVGID_9_" d="M0 0h289.3v165.5H0z"/></defs><clipPath id="SVGID_10_"><use xlink:href="#SVGID_9_" overflow="visible"/></clipPath><path clip-path="url(#SVGID_10_)" fill="#cf142b" d="M-2.1 166.9h21.9L152.7 91l-5.4-9.4z"/><defs><path id="SVGID_11_" d="M0 0h289.3v165.5H0z"/></defs><clipPath id="SVGID_12_"><use xlink:href="#SVGID_11_" overflow="visible"/></clipPath><path clip-path="url(#SVGID_12_)" fill="#cf142b" d="M149.3 73.2l-5.4 9.5L296 169.6l.5-12.3z"/><defs><path id="SVGID_13_" d="M0 0h289.3v165.5H0z"/></defs><clipPath id="SVGID_14_"><use xlink:href="#SVGID_13_" overflow="visible"/></clipPath><path clip-path="url(#SVGID_14_)" fill="#cf142b" d="M-4.2 10.6l143.8 82.2 5.4-9.5L-4.2-2z"/><defs><path id="SVGID_15_" d="M0 0h289.3v165.5H0z"/></defs><clipPath id="SVGID_16_"><use xlink:href="#SVGID_15_" overflow="visible"/></clipPath><path clip-path="url(#SVGID_16_)" fill="#cf142b" d="M270.7-1.5L121.1 84l5.4 9.4L292-1.2z"/><defs><path id="SVGID_17_" d="M0 0h289.3v165.5H0z"/></defs><clipPath id="SVGID_18_"><use xlink:href="#SVGID_17_" overflow="visible"/></clipPath><g clip-path="url(#SVGID_18_)"><path d="M-11.9 55.5h307.1v11.1H-11.9zm.1 44.2h307.1v11.1H-11.8z" fill="#fff"/><path class="st0" d="M-11.9 66.6h307.1v33.1H-11.9z"/></g><g><defs><path id="SVGID_19_" d="M0 0h289.3v165.5H0z"/></defs><clipPath id="SVGID_20_"><use xlink:href="#SVGID_19_" overflow="visible"/></clipPath><path clip-path="url(#SVGID_20_)" fill="#cf142b" d="M128.1-5h33.1v182.7h-33.1z"/></g></svg>