<svg xmlns="http://www.w3.org/2000/svg" width="580" height="500" viewBox="0 0 580 500"><path d="M580 68.8c-21.8 10.9-43.5 14.5-68.9 18.1 25.4-14.5 43.5-36.2 50.8-65.2-21.8 14.5-47.1 25.4-76.1 29-21.8-21.8-54.4-36.2-87-36.2-61.6 0-116 54.4-116 119.6 0 10.9 0 18.1 3.6 25.4-101.5-3.7-188.5-50.9-246.5-123.4C29 54.2 25.4 72.4 25.4 97.8c0 39.9 29 76.1 58 97.9-18.1 0-47.1-7.2-47.1-14.5 0 58 36.2 105.1 90.6 116-10.9 3.6-25.4 3.6-36.2 3.6-7.2 0-18.1 0-25.4-3.6 14.5 47.1 58 83.4 108.8 83.4-39.9 32.6-94.2 50.8-148.6 50.8h-29q87 54.3 184.9 54.4c217.5 0 337.1-181.2 337.1-337.1v-14.5c25.3-18.3 47-40.1 61.5-65.4z"/></svg>