<svg xmlns="http://www.w3.org/2000/svg" width="40" height="40" viewBox="0 0 40 40"><path d="M12.69 19.24c-1.15-.16-1.53-.38-1.53-.87 0-.3-.12-.34-.2-.34-.29 0-.76.72-.78 1.32a1 1 0 00.44.95 2.17 2.17 0 00.78.47l2 .34a16.22 16.22 0 012.1.47l.13.05a11 11 0 001.32-1.17c.33-.28.71-.45 1-.69h-.19c-.75 0-1.09-.41-1.28-1.54a4.52 4.52 0 00-1.65-2.93c-.52-.43-.88-.59-1.14-.55a.57.57 0 00-.39.3c-.15.25 0 .39.45.81a4.15 4.15 0 01.9 1.11 5.69 5.69 0 01.54 2.16 5.57 5.57 0 01-2.5.11zM24.48 18.68a3.62 3.62 0 01-.13.35 3.88 3.88 0 002.81-.54A5 5 0 0028.67 17v-.36a7 7 0 00-1.36-4 .3.3 0 00-.33-.07c-.21.11-.3.58-.24 1.29l.06.83-.48.37a5.58 5.58 0 00-1.72 2.88c-.06.22-.1.38-.14.51a.26.26 0 01.02.23zm1.68-.68a6.36 6.36 0 01.74-1.88 7 7 0 01-.27 2.16.51.51 0 01-.35.17h-.12c-.02 0-.03-.27 0-.45zM10.82 11.27c.18 0 .34-.25.26-.69s0-.48.3-.81c.62-.66 1.67-.87 3.75-.77a15.52 15.52 0 015 .93c2.29.75 3.51 1.56 3.74 2.48a2.78 2.78 0 01-.46 2l-.34.52-.19-.68c-.33-1.17-.33-1.19-.59-1.19a.47.47 0 00-.35.14c-.17.19-.22.59-.15 1.33.05.55.13 1.13.17 1.29s-.07.27-.26.46a3.46 3.46 0 01-.87.63 2.49 2.49 0 00.79 1.42 3 3 0 001.06.63 1.67 1.67 0 00.52.17 1.08 1.08 0 00.56-.38v-.19a.86.86 0 01.18-.75 11.09 11.09 0 001.91-3.09 21.18 21.18 0 01.82-2.05 5.32 5.32 0 00.53-1.52c0-.29-.17-.35-.25-.36s-.33.1-.48.37a1.57 1.57 0 01-.29.4 12.65 12.65 0 011-4.16 5.86 5.86 0 00.5-2.69c0-1.31 0-1.42-.39-1.92-.07-.09-.42-.54-.54-.54s-.16 0-.16 1.33a8.44 8.44 0 01-1 4c-.44.88-.75 1.26-1.11 1.37s-.72 0-1.38-.38c-.41-.24-.92-.52-1.13-.63-.64-.33-.77-.79-.68-2.35a6.91 6.91 0 00-.11-2.09c-.15-.54-.3-.79-.48-.77s-.45 1-.51 1.86a5.29 5.29 0 01-.71 2.68h-.06l-.64-.16a4.74 4.74 0 01-1.92-.94 4.44 4.44 0 01-.21-1 3.47 3.47 0 00-1.83-2.94c-.38-.2-.59-.24-.67-.14s-.08.26.45.88a3.2 3.2 0 01.62 1.2A3.6 3.6 0 0115 6.31a4.87 4.87 0 01-1.51.44c-1.85.36-2.78.85-3.21 1.7a2.76 2.76 0 00-.17 2.12c.13.53.46.75.71.7z" fill="#ddd"/><path d="M29.83 36.39c-1.65-1.54-1.9-2.39-1.83-6.23a11.83 11.83 0 00-.3-4L27.36 25l.68-.28a5.27 5.27 0 002.32-1.77 1.74 1.74 0 00.47-1.26.56.56 0 00-.26-.39c-.08-.05-.14-.09-.15-.12s.11-.22.3-.46a6.1 6.1 0 001.1-2.41 1.6 1.6 0 00-.37-.79l-.38-.52-2.4.18v-.54a7 7 0 00-1.36-4 .3.3 0 00-.33-.07c-.21.11-.3.58-.24 1.29l.06.83-.48.37a5.58 5.58 0 00-1.72 2.88c-.23.88-.29 1-.54 1s-.29 0-.36-.36a.86.86 0 01.18-.75 11.09 11.09 0 001.91-3.09 21.18 21.18 0 01.82-2.05 5.32 5.32 0 00.53-1.52c0-.29-.17-.35-.25-.36s-.33.1-.48.37a1.57 1.57 0 01-.29.4 12.65 12.65 0 011-4.16 5.86 5.86 0 00.5-2.69c0-1.31 0-1.42-.39-1.92-.07-.09-.42-.54-.54-.54s-.16 0-.16 1.33a8.44 8.44 0 01-1 4c-.44.88-.75 1.26-1.11 1.37s-.72 0-1.38-.38c-.41-.24-.92-.52-1.13-.63-.64-.33-.77-.79-.68-2.35a6.91 6.91 0 00-.11-2.09c-.15-.54-.3-.79-.48-.77s-.45 1-.51 1.86a5.29 5.29 0 01-.71 2.68h-.06l-.64-.16a4.74 4.74 0 01-1.92-.94 4.44 4.44 0 01-.21-1 3.47 3.47 0 00-1.83-2.94c-.38-.2-.59-.24-.67-.14s-.08.26.45.88a3.2 3.2 0 01.62 1.2A3.61 3.61 0 0115 6.31a4.87 4.87 0 01-1.51.44c-1.85.36-2.78.85-3.21 1.7a2.76 2.76 0 00-.17 2.12c.15.53.48.75.73.7s.34-.25.26-.69 0-.49.3-.81c.6-.66 1.65-.87 3.73-.77a15.52 15.52 0 015 .93c2.29.75 3.51 1.56 3.74 2.48a2.78 2.78 0 01-.46 2l-.34.52-.19-.68c-.33-1.17-.33-1.19-.59-1.19a.47.47 0 00-.35.14c-.17.19-.22.59-.15 1.33.05.55.13 1.13.17 1.29s-.07.27-.26.46a2.54 2.54 0 01-1.55.82c-.53-.12-.78.16-1.16 1.3s-.56 1.37-1.19 1.37-1.09-.41-1.28-1.54a4.52 4.52 0 00-1.65-2.93c-.52-.43-.88-.59-1.14-.55a.57.57 0 00-.39.3c-.15.25 0 .39.45.81a4.15 4.15 0 01.9 1.11 5.69 5.69 0 01.54 2.16 5.57 5.57 0 01-2.52.1c-1.15-.16-1.53-.38-1.53-.87 0-.3-.12-.34-.2-.34h0c-.29 0-.76.72-.78 1.32a1 1 0 00.44.95 2.33 2.33 0 00.78.47l2 .34a16.22 16.22 0 012.1.47l.34.13-1 .72a18.88 18.88 0 01-4.5 2.28c-1.12.35-1.7.83-1.88 1.53A2.58 2.58 0 009.6 29a2.56 2.56 0 002.08.14 3 3 0 011.11-.22 26.13 26.13 0 014.38.93c0 .06-.09.32-1 1.51-.69.88-1.2 1.52-1.26 1.56A35.41 35.41 0 0012 37.74a.2.2 0 00.17.21C12.3 38 30.8 38 31 38a.16.16 0 000 0c.11-.08 0-.29 0-.36a11 11 0 00-1.17-1.25zM26.16 18a6.36 6.36 0 01.74-1.88 7 7 0 01-.27 2.16.51.51 0 01-.35.17h-.12c-.02 0-.03-.27 0-.45zm4.26 3.18a11.82 11.82 0 01-3.21.49c-1.35-.06-2.33-.26-1.66.81s1.36.92 1.81 2.52m-10.19 4.85l2.09-2.55m-10.55.77s.14-1.39 1.25-1.39 2.58.09 3.2-.41" fill="none" stroke="#000" stroke-linecap="round" stroke-linejoin="round" stroke-width=".75"/><path d="M18 20.47a3.47 3.47 0 00-1.34.59c-.72.72 0 1.1.47 1.12a1.33 1.33 0 001.12-.32 1.34 1.34 0 01.65-.32c.18 0 .35-.07.35-.19s-.87-.78-1.25-.88zm-.5.67a.15.15 0 01-.15-.15.15.15 0 01.3 0 .15.15 0 01-.17.15z"/></svg>