<svg xmlns="http://www.w3.org/2000/svg" width="40" height="40"><path d="M10.55 27s-1.34-.64-2.66 1.53-4 6.3-4 6.3A6.85 6.85 0 017.14 38s2.92-7.82 3.62-8.18 1.1-1 1.4-3.38 4.63-6.54 4.63-6.54L33.08 2.84 32.22 2l-17.8 18.3a13.72 13.72 0 00-3.87 6.7zM22.49 12.01l.94.91M23.02 11.46l.94.91M13 24.49s3.79-.36 2.49-3.25M14.19 22.86s.05.65.52.43" fill="none" stroke="#000" stroke-linecap="round" stroke-linejoin="round" stroke-width=".75"/><path d="M15.78 18.91s-.58-.46-1-.11-.47-.1-1-.48M14.1 20.63s-2.65-.1-1-1" fill="none" stroke="#000" stroke-linecap="round" stroke-linejoin="round" stroke-width=".75"/><path d="M29.45 27s1.34-.64 2.66 1.53 4 6.3 4 6.3A6.85 6.85 0 0032.86 38s-2.92-7.82-3.62-8.18-1.1-1-1.4-3.38-4.63-6.54-4.63-6.54L6.92 2.84 7.78 2l17.8 18.3a13.72 13.72 0 013.87 6.7z" fill="#fff" stroke="#000" stroke-linecap="round" stroke-linejoin="round" stroke-width=".75"/><path fill="none" stroke="#000" stroke-linecap="round" stroke-linejoin="round" stroke-width=".75" d="M17.51 12.01l-.94.91M16.98 11.46l-.94.91M27 24.49s-3.79-.36-2.49-3.25M25.81 22.86s0 .65-.52.43M24.22 18.91s.58-.46 1-.11.47-.1 1-.48M25.9 20.63s2.65-.1 1-1"/></svg>