<svg xmlns="http://www.w3.org/2000/svg" width="40" height="40" viewBox="0 0 40 40"><path d="M26 14.11c-5.12 0-11.35 5.47-11.35 10.58s3.86 12.77 9 12.77c.19 0 2.18-2.93 2.59-2.91s1.2 1.15 1.3 1.38c3.83-2.83 7.16-9 7.16-12.8-.01-6.84-3.57-9.02-8.7-9.02z" fill="#ddd"/><circle cx="31.21" cy="28.48" r="2.58" fill="#fff" stroke="#000" stroke-linecap="round" stroke-linejoin="round" stroke-width=".75"/><circle cx="28.01" cy="26.49" r="2.58" fill="#ddd" stroke="#000" stroke-linecap="round" stroke-linejoin="round" stroke-width=".75"/><circle cx="20.21" cy="26.19" r="4.64" fill="#ddd" stroke="#000" stroke-linecap="round" stroke-linejoin="round" stroke-width=".75"/><path d="M20.31 28.81c1.83-.72 3.73-.22 4.25 1.1s-1.09 1.58-2.92 2.3-3.19 1.63-3.71.3.54-2.99 2.38-3.7z" fill="#fff" stroke="#000" stroke-linecap="round" stroke-linejoin="round" stroke-width=".75"/><path d="M28.52 28.81c1.39 1.39 1.71 3.34.7 4.35s-1.88-.37-3.28-1.75-2.78-2.26-1.77-3.27 2.95-.71 4.35.67z" fill="#fff" stroke="#000" stroke-linecap="round" stroke-linejoin="round" stroke-width=".75"/><path d="M31 17.62c2.28 0 2.1 2.41 1.42 3.19s-3.21 1.43-3.62-.67c-1.83-.19-1.83-2.72-1.15-3.5s2.95-1.09 3.35.98z" fill="#ddd" stroke="#000" stroke-linecap="round" stroke-linejoin="round" stroke-width=".75"/><circle cx="25.01" cy="17.72" r="2.58" fill="#fff" stroke="#000" stroke-linecap="round" stroke-linejoin="round" stroke-width=".75"/><path d="M19.91 36.57c-24-9.83-16-34.35-16-34.35S5 .5 7.3 6.68s6.72 9.93 14 8c7.94-2.09 13.1.1 13.41 6.85M24.72 14.06c-4.14 0-17.33 8.32-4.81 22.51M15.59 15.07s-9.12 3.81-3.74 16.81M11.15 12.77S4 14.75 5.94 24.93M8.38 9.08s-5.82-1.62-5.47 6.56M9.58 11s-6.13 1.09-5.94 8.28M6.9 5.66s-3.65-.37-4.11 2.57M12.87 14s-6.3 1.58-5 13.81M18.24 15.25s-10.95 5.31-3.17 18.89" fill="none" stroke="#000" stroke-linecap="round" stroke-linejoin="round" stroke-width=".75"/><circle cx="22.44" cy="34.69" r="3.31" fill="#fff" stroke="#000" stroke-linecap="round" stroke-linejoin="round" stroke-width=".75"/><circle cx="29.22" cy="22.25" r="2.58" fill="#fff" stroke="#000" stroke-linecap="round" stroke-linejoin="round" stroke-width=".75"/><path d="M23.81 22.17a3.56 3.56 0 013 4.07c-.3 1.94-1.8 1.21-3.74.91s-3.6-.07-3.29-2a3.56 3.56 0 014.03-2.98z" fill="#fff" stroke="#000" stroke-linecap="round" stroke-linejoin="round" stroke-width=".75"/><circle cx="19.11" cy="19.58" r="1.21" fill="#fff" stroke="#000" stroke-linecap="round" stroke-linejoin="round" stroke-width=".75"/><circle cx="21.23" cy="18.08" r="1.21" fill="#fff" stroke="#000" stroke-linecap="round" stroke-linejoin="round" stroke-width=".75"/><circle cx="21.23" cy="20.78" r="1.21" fill="#fff" stroke="#000" stroke-linecap="round" stroke-linejoin="round" stroke-width=".75"/><circle cx="19.13" cy="21.99" r="1.21" fill="#fff" stroke="#000" stroke-linecap="round" stroke-linejoin="round" stroke-width=".75"/><circle cx="23.52" cy="19.58" r="1.21" fill="#fff" stroke="#000" stroke-linecap="round" stroke-linejoin="round" stroke-width=".75"/><circle cx="25.44" cy="21.55" r="1.21" fill="#fff" stroke="#000" stroke-linecap="round" stroke-linejoin="round" stroke-width=".75"/><path d="M35.17 35.34a3.55 3.55 0 01-4.65-1.92c-.76-1.81.9-2 2.72-2.73s3.09-1.82 3.85 0a3.56 3.56 0 01-1.92 4.65z" fill="#ddd" stroke="#000" stroke-linecap="round" stroke-linejoin="round" stroke-width=".75"/><circle cx="33.17" cy="22" r="1.21" fill="#fff" stroke="#000" stroke-linecap="round" stroke-linejoin="round" stroke-width=".75"/><circle cx="35.62" cy="22.89" r="1.21" fill="#fff" stroke="#000" stroke-linecap="round" stroke-linejoin="round" stroke-width=".75"/><circle cx="33.4" cy="24.44" r="1.21" fill="#fff" stroke="#000" stroke-linecap="round" stroke-linejoin="round" stroke-width=".75"/><circle cx="31.21" cy="23.51" r="1.21" fill="#fff" stroke="#000" stroke-linecap="round" stroke-linejoin="round" stroke-width=".75"/><circle cx="31.21" cy="25.9" r="1.21" fill="#fff" stroke="#000" stroke-linecap="round" stroke-linejoin="round" stroke-width=".75"/><circle cx="33.4" cy="26.49" r="1.21" fill="#fff" stroke="#000" stroke-linecap="round" stroke-linejoin="round" stroke-width=".75"/><circle cx="35.27" cy="28.25" r="1.21" fill="#fff" stroke="#000" stroke-linecap="round" stroke-linejoin="round" stroke-width=".75"/><circle cx="33.4" cy="30.09" r="1.21" fill="#fff" stroke="#000" stroke-linecap="round" stroke-linejoin="round" stroke-width=".75"/><circle cx="25.75" cy="31.88" r="1.21" fill="#fff" stroke="#000" stroke-linecap="round" stroke-linejoin="round" stroke-width=".75"/><circle cx="29.81" cy="34.39" r="1.21" fill="#fff" stroke="#000" stroke-linecap="round" stroke-linejoin="round" stroke-width=".75"/><circle cx="28.04" cy="36.57" r="1.21" fill="#fff" stroke="#000" stroke-linecap="round" stroke-linejoin="round" stroke-width=".75"/><circle cx="35.7" cy="25.62" r="1.21" fill="#fff" stroke="#000" stroke-linecap="round" stroke-linejoin="round" stroke-width=".75"/><circle cx="27.18" cy="33.89" r="1.21" fill="#fff" stroke="#000" stroke-linecap="round" stroke-linejoin="round" stroke-width=".75"/></svg>