<svg xmlns="http://www.w3.org/2000/svg" width="40" height="40"><path d="M7.93 35l-2.2-1.68a.94.94 0 01-.21-1.53l2.11-2.77c1-1.37 4.07 1 4.07 1" fill="none" stroke="#000" stroke-linecap="round" stroke-linejoin="round" stroke-width=".75"/><path d="M7.08 35.41l-2.34-1.79a1.37 1.37 0 01-.26-1.91l2.7-3.54c1.16-1.52 4.42 1 4.42 1" fill="none" stroke="#000" stroke-linecap="round" stroke-linejoin="round" stroke-width=".75"/><path d="M7.34 37.62l.58-.76.08-.53 5.28-6.92c.32-.42-.78-1.26-1.1-.84l-5.32 7-.52.24-.51.67A1 1 0 006 37.8h0a1 1 0 001.34-.18z" fill="#fff" stroke="#000" stroke-linecap="round" stroke-linejoin="round" stroke-width=".75"/><path stroke-width=".75" stroke="#000" stroke-linecap="round" stroke-linejoin="round" fill="#fff" d="M10.095 27.769l.855-1.121 4.77 3.639-.855 1.121z"/><path d="M13.86 28.87S32.34 5.15 35.8 2c0 0-7.52 5.13-23.31 25.82M32.07 35l2.2-1.68a.94.94 0 00.21-1.53l-2.11-2.77c-1-1.37-4.07 1-4.07 1" fill="none" stroke="#000" stroke-linecap="round" stroke-linejoin="round" stroke-width=".75"/><path d="M32.92 35.41l2.34-1.79a1.37 1.37 0 00.26-1.91l-2.7-3.54c-1.16-1.52-4.42 1-4.42 1" fill="none" stroke="#000" stroke-linecap="round" stroke-linejoin="round" stroke-width=".75"/><path d="M32.66 37.62l-.58-.76-.08-.53-5.28-6.92c-.32-.42.78-1.26 1.1-.84l5.32 7 .52.24.51.67A1 1 0 0134 37.8h0a1 1 0 01-1.34-.18z" fill="#fff" stroke="#000" stroke-linecap="round" stroke-linejoin="round" stroke-width=".75"/><path stroke-width=".75" stroke="#000" stroke-linecap="round" stroke-linejoin="round" fill="#fff" d="M25.148 31.41l-.855-1.12 4.77-3.64.856 1.121z"/><path d="M26.14 28.87S7.66 5.15 4.2 2c0 0 7.52 5.13 23.31 25.82" fill="none" stroke="#000" stroke-linecap="round" stroke-linejoin="round" stroke-width=".75"/></svg>