<svg xmlns="http://www.w3.org/2000/svg" width="40" height="40" viewBox="0 0 40 40"><path d="M35.83 7.79c-.66.25-1 .88-1.3 1.43S32.7 12 32.05 11.64s.71-1.87-.36-1.66c-.6.11-1.46 1.26-1.89 1.65S28.53 13 28 13c-1.18 0 .6-1.48.58-2 0-.74-2.28.84-2.71 1.08-.84.46-1.7.89-2.57 1.31-.15-1.74 3.08-3.3 4.18-4.22A30.69 30.69 0 0031 5.73a5.82 5.82 0 001.71-3.14c0-.38.08-1-.39-.83s-.64 1.61-1 2a1.18 1.18 0 01-1.32.51c-.37-.08-.65-.37-1-.47-.54-.14-.44 0-.95.4-1.14 1-2.54 1.18-2.7-.62-.63 1.35-1 2.81-2.74 2.31-1.38-.41-1.64.77-2.69 1.54s-2.16-.12-2.83-1a6 6 0 01-1-1.85c-.11-.37-.09-1.51-.4-1.73-.58-.42-.6 3.33-.51 3.77a12.86 12.86 0 001 2.81c.23.5 1 1.53.83 2.12s-1.54.35-2.11.25a9.34 9.34 0 01-3.51-1.91c-.67-.49-1.28-1-1.95-1.51-.45-.31-.48-.45-.65 0-.35.86.67 2.68 1.08 3.39a24.08 24.08 0 01-4.17-1.64C5.33 9.86 4 8.64 3.6 8.81s.1 1 .3 1.34c1.33 2.18 3.26 3 5.8 3.26 2.27.24 7.49-.35 8.65 2.41.31.73.31 1.07-.51 1.2a19.77 19.77 0 01-3.07.26 12.46 12.46 0 01-4.45-.74c-.75-.28-1.36-.85-2.08-1.14s-.5.63-.31 1.29a11.85 11.85 0 01-2.66-.94c-.51-.26-2.37-1.91-1.67-.36.95 2.09 3.9 3.25 6 3.73a21.19 21.19 0 009 0 4.09 4.09 0 012.41-.36 5.55 5.55 0 002.26.05 11.53 11.53 0 001.63-.69 3.92 3.92 0 011.48-.7 13.39 13.39 0 004.21-1.92 19.51 19.51 0 005.54-6c.3-.68 1.07-2.21-.3-1.71z" fill="#ddd"/><path d="M25.18 37.53c.61.54.9-2.84 3.05-.46a20.72 20.72 0 01.25-7.49c.45-1.89-.05-3.39-.66-5.23-.09-.29-.19-.58-.29-.87q-.47-.6.27-.66a7.26 7.26 0 011.07-.57 4.93 4.93 0 001.33-1.12c.23-.29.82-1.12.62-1.56s-1-.44-1.38-.53a11.12 11.12 0 00-2.31-.25c-.53 0-1.65.32-2.13 0-1-.68.79-1.23 1.31-1.38a13.39 13.39 0 004.21-1.92 19.51 19.51 0 005.54-6c.37-.62 1.14-2.15-.23-1.65-.66.25-1 .88-1.3 1.43S32.7 12 32.05 11.64s.71-1.87-.36-1.66c-.6.11-1.46 1.26-1.89 1.65S28.53 13 28 13c-1.18 0 .6-1.48.58-2 0-.74-2.28.84-2.71 1.08-.84.46-1.7.89-2.57 1.31-.15-1.74 3.08-3.3 4.18-4.22A30.69 30.69 0 0031 5.73a5.82 5.82 0 001.71-3.14c0-.38.08-1-.39-.83s-.64 1.61-1 2a1.18 1.18 0 01-1.32.51c-.37-.08-.65-.37-1-.47-.54-.14-.44 0-.95.4-1.14 1-2.54 1.18-2.7-.62-.63 1.35-1 2.81-2.74 2.31-1.38-.41-1.64.77-2.69 1.54s-2.16-.12-2.83-1a6 6 0 01-1-1.85c-.11-.37-.09-1.51-.4-1.73-.58-.42-.6 3.33-.51 3.77a12.86 12.86 0 001 2.81c.23.5 1 1.53.83 2.12s-1.54.35-2.11.25a9.34 9.34 0 01-3.51-1.91c-.67-.49-1.28-1-1.95-1.51-.45-.31-.48-.45-.65 0-.35.86.67 2.68 1.08 3.39a24.08 24.08 0 01-4.17-1.64C5.33 9.86 4 8.64 3.6 8.81s.1 1 .3 1.34c1.33 2.18 3.26 3 5.8 3.26 2.27.24 7.49-.35 8.65 2.41.31.73.31 1.07-.51 1.2a19.77 19.77 0 01-3.07.26 12.46 12.46 0 01-4.45-.74c-.75-.28-1.36-.85-2.08-1.14s-.5.63-.31 1.29a11.85 11.85 0 01-2.66-.94c-.51-.26-2.37-1.91-1.67-.36.95 2.09 3.9 3.25 6 3.73a21.34 21.34 0 009.24-.07A14.23 14.23 0 0016.4 21c-1.22 1.23-2.26 1.34-3.95 1.63C10 23 6.37 24 6.73 27.16A2.8 2.8 0 008 29.54c.7.37 1.55.47 2.27.8a2.25 2.25 0 001.74.21c.52-.2.64-.67 1-1 .93-.85 1.45-.29 1 .77-.84 1.95-2.51 3.7-3.82 5.34 0 0 1.11 3.65 6 2.34s6.96-2.26 8.99-.47z" fill="none" stroke="#000" stroke-linecap="round" stroke-linejoin="round" stroke-width=".75"/><path d="M10.68 27.22c-.53.94-2.32 1.72-2.06 0 .18-1.27 1.8-2.05 2.89-2.3a5.48 5.48 0 00-1.67 1.05c-.11.12-.82 1.6-.36 1.7s.81-.89 1-1 .17.54.15.57M15.38 23.53c1.52-1.31 2.64-2.31 4.7-1.36-.28 0-1.15-.16-1.36 0s0 1-.68.9c-.29-.06-.32-.47-.58-.51s-.65.29-.85.38l-1.23.59M23.07 21.94a5.34 5.34 0 012.23-1.33 7 7 0 012.48.13c-1.25 1.13-3.14 1-4.71 1.2"/><path d="M8.83 29.87a2.08 2.08 0 002.53-.82 3.23 3.23 0 013.07-1.25M27.51 22.88c-1.13.51-2.6.36-3.74.49" fill="none" stroke="#000" stroke-linecap="round" stroke-linejoin="round" stroke-width=".75"/><path fill="#b37535" d="M3.6 14.6l-.01-.01v.01h.01z"/></svg>