<svg xmlns="http://www.w3.org/2000/svg" width="40" height="40"><path d="M26 22.05c1.65 1.65 1.14 4.82 1.14 4.82s-3.17.5-4.81-1.14-1.15-4.82-1.15-4.82 3.17-.5 4.82 1.14z" fill="none" stroke="#000" stroke-linecap="round" stroke-linejoin="round" stroke-width=".75"/><path d="M32.1 25.73c-1.64 1.64-4.81 1.14-4.81 1.14s-.5-3.17 1.14-4.82 4.82-1.14 4.82-1.14.5 3.17-1.15 4.82zM26 16c1.65 1.64 1.14 4.81 1.14 4.81s-3.17.51-4.81-1.14-1.15-4.82-1.15-4.82S24.35 14.3 26 16z" fill="none" stroke="#000" stroke-linecap="round" stroke-linejoin="round" stroke-width=".75"/><path d="M32.1 19.62c-1.64 1.65-4.81 1.14-4.81 1.14s-.5-3.17 1.14-4.81 4.82-1.15 4.82-1.15.5 3.2-1.15 4.82zM26 9.84c1.65 1.65 1.14 4.82 1.14 4.82s-3.17.5-4.81-1.15-1.15-4.81-1.15-4.81 3.17-.5 4.82 1.14z" fill="none" stroke="#000" stroke-linecap="round" stroke-linejoin="round" stroke-width=".75"/><path d="M32.1 13.51c-1.64 1.65-4.81 1.15-4.81 1.15s-.5-3.17 1.14-4.82 4.82-1.14 4.82-1.14.5 3.17-1.15 4.81zM29.81 6.22c0 2.32-2.59 4.21-2.59 4.21s-2.6-1.89-2.6-4.21S27.22 2 27.22 2s2.59 1.89 2.59 4.22zM27.29 26.87V38M11.57 22.05c1.64 1.65 1.14 4.82 1.14 4.82s-3.17.5-4.81-1.14-1.15-4.82-1.15-4.82 3.17-.5 4.82 1.14z" fill="none" stroke="#000" stroke-linecap="round" stroke-linejoin="round" stroke-width=".75"/><path d="M17.67 25.73c-1.64 1.64-4.81 1.14-4.81 1.14s-.51-3.17 1.14-4.82 4.82-1.14 4.82-1.14.5 3.17-1.15 4.82zM11.57 16c1.64 1.64 1.14 4.81 1.14 4.81s-3.17.51-4.81-1.14-1.15-4.87-1.15-4.87 3.17-.5 4.82 1.2z" fill="none" stroke="#000" stroke-linecap="round" stroke-linejoin="round" stroke-width=".75"/><path d="M17.67 19.62c-1.64 1.65-4.81 1.14-4.81 1.14S12.35 17.59 14 16s4.82-1.15 4.82-1.15.5 3.15-1.15 4.77zM11.57 9.84c1.64 1.65 1.14 4.82 1.14 4.82s-3.17.5-4.81-1.15S6.75 8.7 6.75 8.7s3.17-.5 4.82 1.14z" fill="none" stroke="#000" stroke-linecap="round" stroke-linejoin="round" stroke-width=".75"/><path d="M17.67 13.51c-1.64 1.65-4.81 1.15-4.81 1.15s-.51-3.17 1.14-4.82 4.82-1.14 4.82-1.14.5 3.17-1.15 4.81zM15.38 6.22c0 2.32-2.6 4.21-2.6 4.21s-2.59-1.89-2.59-4.21S12.78 2 12.78 2s2.6 1.89 2.6 4.22zM12.86 26.87V38" fill="none" stroke="#000" stroke-linecap="round" stroke-linejoin="round" stroke-width=".75"/></svg>