<svg xmlns="http://www.w3.org/2000/svg" width="40" height="40" viewBox="0 0 40 40"><path d="M38 13.36v-6.8a.49.49 0 00-.49-.5H2.53a.49.49 0 00-.49.5v6.8z" fill="#ddd"/><rect x="2.04" y="6.06" width="35.93" height="27.88" rx=".5" stroke-width=".75" stroke="#000" stroke-linecap="round" stroke-linejoin="round" fill="none"/><path fill="#fff" stroke="#000" stroke-linecap="round" stroke-linejoin="round" stroke-width=".75" d="M2.04 13.41h35.92"/><path d="M11.46 23.82H8.17v2.66h-.89v-5.95h.89V23h3.29v-2.5h.89v5.95h-.89zM13.67 20.53h4v.79h-3.11v1.74h3v.78h-3v1.85h3.11v.79h-4zM18.78 20.53h.89v5.16h2.7v.79h-3.59zM23.35 20.53h.89v5.16h2.7v.79h-3.59zM30.38 20.44a2.93 2.93 0 013 3.07 3 3 0 11-6 0 2.92 2.92 0 013-3.07zm0 .79a2.08 2.08 0 00-2.07 2.28 2.08 2.08 0 104.15 0 2.09 2.09 0 00-2.08-2.28z"/></svg>