<svg xmlns="http://www.w3.org/2000/svg" width="40" height="40" viewBox="0 0 40 40"><path d="M12.14 3.47S6.78.86 5.07 3.92c-2.23 4-.8 4.72-.8 4.72a8.82 8.82 0 013.19.1c0 .52 3.3 3.72 4.52 4.1 4.51-1.84.16-9.37.16-9.37z" fill="#ddd"/><path d="M9.93 24.55l-1.75 7.67 1.75-.5c0 1.44 0 2.51 1.31 3.11a4 4 0 012.67 2.67c.4-1 1.17-3 1.17-3s1 1.25 1.36 1.77c.08-.24.75-.67.82-.91L18.48 38l1.75-2.44L22.15 38c.4-.87 1.31-1.93 1.72-2.8.3.15 1.64 1.26 1.64 1.26s.67-1.06 1.17-1.78l1.93 1.74.87-2.61 2.62 1.75.52-3 2.44 2.09c-1-1.64-.84-5.48.4-4.77 1.4.8.9.56.68-1.32-.14-1.21-4.89-9.66-6-11.8-1.6-3.17-2.35-6.76-4.68-9.53a16.84 16.84 0 00-7.88-4.89 7.59 7.59 0 00-5.09.15c-.27.09-.54.46-.8.5-.61.11-1.68-.48-2.35-.56a4.82 4.82 0 00-5.55 4.92c.08 2 1.09 1.28 2.66 1.31 1.9 0 .76.2 1.84 1.48.85 1 2.66 1.66 3.69 2.7 3.23 3.28-2.05 11.71-2.05 11.71z" fill="none" stroke="#000" stroke-linecap="round" stroke-linejoin="round" stroke-width=".75"/><path d="M11.68 3a36.8 36.8 0 017 3.65c2.72 1.89.81 1.32-.85.66-1.48-.59-2.64.57-3.47-1.17-.28-.58-.11-1-.49-1.47a10.17 10.17 0 00-2.7-1.59l.51-.08"/><path d="M7.46 8.74a9.92 9.92 0 016.13 1.14" fill="none" stroke="#000" stroke-linecap="round" stroke-width=".75"/></svg>