<svg xmlns="http://www.w3.org/2000/svg" width="40" height="40" viewBox="0 0 40 40"><path d="M13.1 13.86c-2-6.92-1.36-7.77 5.3-10.85 2.88-1.37 5-1.57 7.17.8a12.79 12.79 0 002.07 1.47c3.58 2.72 3.94 4.24 2 8.33-.2.4-1.06.8-.3 1.41-.46 2.07-2.12 2.47-3.84 2.78-.15-.05-.35-.05-.46-.15-4.11-3.65-4.11-3.65-8.76-.56a1.13 1.13 0 01-.7-.05 7.88 7.88 0 01-1.67-1.26 2.11 2.11 0 01-.81-1.92M17.8 30.37a2.78 2.78 0 01-.31.4c-4.09 5.15-6 5.1-11.46 1.41-3.18-2.12-4.39-4.34-3.38-7.87a7.46 7.46 0 00.15-1.52c.71-4.84 2-5.95 6.87-6.05.86 0 1.66.05 2.52.05A2.49 2.49 0 0115 18.2a2.9 2.9 0 01-.25 1.46c-1.16 3.49-.66 4.7 2.77 6.36 1 .41 1.82.86 1.67 2.18-.3.85-.35 1.81-1.36 2.17M31.32 18.81c2.88.65 5.66 1.46 6 5.09 1.06 3-.25 5.91-.25 8.89 0 .3-.35.55-.71.66-2.77.9-5.15 2.82-8.13 3.23-1 0-2 .2-2.82-.56a9.86 9.86 0 01-3.79-4.34c-1-.4-1.06-1.36-1.36-2.17a3.44 3.44 0 01.3-2.63c4.7-.45 6.06-3.33 5.55-7.57 1.62-1.87 3.49-.86 5.25-.6" fill="#fefefe" stroke="#000" stroke-miterlimit="10" stroke-width=".75"/><path d="M25.32 17.59A12.77 12.77 0 0029.2 15c1.92-.91 3.89-1.82 5.81-2.68-1.11 2.58-3.18 4.09-5.25 5.61-.91 1.31-2.73.35-3.69 1.46a5.81 5.81 0 01-1.21 1.11 1.37 1.37 0 01-.65.1 1.77 1.77 0 01-1.27-1.06 1.32 1.32 0 01.06-.65 1.79 1.79 0 01.45-.46 12.75 12.75 0 011.87-.81M14.82 18.4c-.86-.5-1.77-1.06-2.63-1.56l-6.86-6.36c3.13 1 5.6 1.76 7.77 3.33.81.25.41 1.31 1.06 1.66a4.58 4.58 0 001.57 1.37h0a3.12 3.12 0 011.66 1.46 1.47 1.47 0 010 .66 1.25 1.25 0 01-1.11.65c-.7-.2-1.26-.45-1.46-1.21M20.77 30c.26.61.56 1.21.81 1.77-1.21 1.36-.7 3.08-1 4.69-.6.31.46 1.67-.91 1.52-.65-2.58-1.31-5.1-2-7.67.25-.66.5-1.27.75-1.87 1-.71.1-1.62.2-2.37.36-.81-.35-2.28 1.37-2.28a2.49 2.49 0 01.6 2.83c-.2 1.16-.5 2.27.1 3.38" fill="#ddd" stroke="#000" stroke-linecap="round" stroke-linejoin="round" stroke-width=".75"/><path d="M17.24 18.25a2.22 2.22 0 01-1.51-1.41 14.78 14.78 0 012.82-2.27c2.43-1.27 4.9-.05 6.82 3.08a1.76 1.76 0 01-1.57 1.16c-2.07-2-4.24-2.43-6.56-.56M14.82 18.4c.4.41 1.16.31 1.36 1 .35 1.41-.1 3 1 4.19.56.86 1.87 1.16 1.82 2.53-.31.8-.91.65-1.57.45-4.09-1.06-5.1-4.14-2.57-8.13M25.72 19.36c.15.15.25.3.41.46 2.06 4.34-.36 7.67-5.31 7.26-.1-.1-.15-.2-.25-.3a2.1 2.1 0 01.15-1.46c2.43-.76 3.49-2.68 4-4.95-.05-.66.36-1 1-1" fill="#fefefe" stroke="#000" stroke-miterlimit="10" stroke-width=".75"/><path d="M20.22 20.42c1.16-.2 1.31-2.37 3-1.51v.45a8.36 8.36 0 01-1 1c-.71-.15-1.36 1-2.07.05"/><path d="M24.71 20.37a1.19 1.19 0 01-.45-.1c-.56-.15-1.11-.3-1.67-.4a6.27 6.27 0 00-1.23.15 9.76 9.76 0 011.84-1.16l.55-.15c-.25-1.72-1.56-2.23-3-2.38s-3 .05-3.58 1.87a3.57 3.57 0 00.1.71v.06c-.39.15-.78.29-1.13.44a3.53 3.53 0 00.41 4.53v0c.4 1 1.71 1 2.22 1.86h.4c.61-.55.05-1.31.4-1.92.71.11.71.11 1.11 1.62 3.32-.28 4.44-1.7 4.03-5.13z" fill="#ddd" stroke="#000" stroke-linecap="round" stroke-linejoin="round" stroke-width=".75"/><path d="M17.7 23.45c.45-.55.85-1.16 1.31-1.72-.66-.8-1.52-.65-2.43-1 .61-.3 1.17-.55 1.67-.75.56.3.76 1.06 1.51 1-.15 1.26-.3 2.52-2.06 2.47M19.71 20.42a5.59 5.59 0 01-1.06-2.93c1.17 1 1 2.07 1.57 2.93h-.51M23.7 22.39c-.81-.2-1.66-.4-2.67-.66a1.88 1.88 0 012.67.66"/></svg>